<?xml version="1.0" standalone="no"?>
<!DOCTYPE svg PUBLIC "-//W3C//DTD SVG 1.1//EN" "http://www.w3.org/Graphics/SVG/1.1/DTD/svg11.dtd" >
<svg version="1.1" xmlns="http://www.w3.org/2000/svg">
<metadata>
Created by FontForge 20120731 at Fri Aug  1 16:50:21 2014
 By Alfred Xing
Copyright 2003, 2009 B. Jackowski and J. M. Nowacki (on behalf of TeX users groups). This work is released under the GUST Font License --  see http://tug.org/fonts/licenses/GUST-FONT-LICENSE.txt for details.
</metadata>
<defs>
<font id="LMMonoLt10-Oblique" horiz-adv-x="525" >
  <font-face 
    font-family="LMMonoLt10"
    font-weight="400"
    font-style="oblique"
    font-stretch="normal"
    units-per-em="1000"
    panose-1="0 0 5 9 0 0 0 0 0 0"
    ascent="770"
    descent="-230"
    x-height="425"
    cap-height="611"
    bbox="-472.543 -327 791.086 986"
    underline-thickness="50"
    underline-position="-123"
    slope="-9.4626"
    stemh="42"
    stemv="50"
    unicode-range="U+0020-F7A2"
  />
<missing-glyph horiz-adv-x="280" 
 />
    <glyph glyph-name=".notdef" horiz-adv-x="280" 
 />
    <glyph glyph-name="space" unicode=" " 
 />
    <glyph glyph-name="exclam" unicode="!" 
d="M399 574l-67 -344c-7 -32 -9 -40 -38 -40c-10 0 -30 0 -28 17l51 367c7 44 41 48 49 48s40 -4 33 -48zM310 41c-4 -23 -25 -41 -48 -41s-38 18 -34 41c4 24 25 42 48 42s38 -18 34 -42z" />
    <glyph glyph-name="quotedbl" unicode="&#x22;" 
d="M302 577l-48 -211c-3 -13 -7 -27 -26 -27s-20 17 -19 28l22 210c3 36 34 45 44 45s37 -7 27 -45zM485 577l-48 -211c-3 -13 -7 -27 -26 -27s-20 17 -19 28l22 210c3 36 34 45 44 45s37 -7 27 -45z" />
    <glyph glyph-name="numbersign" unicode="#" 
d="M518 194c-4 -25 -32 -25 -42 -25h-88l-39 -135c-4 -10 -12 -34 -33 -34c-16 0 -24 13 -22 26l42 143h-127l-40 -135c-4 -10 -12 -34 -33 -34c-16 0 -24 13 -22 26l42 143h-52c-10 0 -38 0 -34 25c5 26 33 26 43 26h60l49 172h-81c-10 0 -38 0 -33 26c4 26 32 26 42 26h89
l38 134c3 9 9 33 33 33c12 0 28 -8 19 -37l-38 -130h128l38 134c3 9 9 33 33 33c12 0 28 -8 19 -37l-38 -130h51c10 0 38 0 34 -26c-5 -26 -33 -26 -43 -26h-59l-49 -172h80c10 0 38 0 33 -26zM402 392h-128l-49 -172h128z" />
    <glyph glyph-name="dollar" unicode="$" 
d="M491 166c-12 -68 -77 -152 -208 -172l-8 -48c-2 -12 -5 -32 -26 -32c-22 0 -19 20 -17 32l8 48c-120 12 -166 86 -152 167c6 38 36 42 44 42c16 0 33 -14 29 -37c-3 -18 -11 -24 -24 -31c8 -65 50 -90 110 -98l44 260c-168 32 -158 136 -154 160c12 72 89 146 207 159
l8 49c2 12 5 32 27 32c21 0 18 -20 16 -32l-8 -48c122 -11 166 -80 153 -155c-5 -30 -27 -40 -44 -40c-21 0 -32 17 -29 35c2 10 8 20 22 30c-9 65 -62 81 -109 87l-39 -235c145 -28 158 -125 150 -173zM299 348l38 227c-83 -14 -144 -60 -153 -114c-10 -57 41 -99 115 -113
zM444 162c10 57 -29 109 -112 126l-42 -251c86 15 145 68 154 125z" />
    <glyph glyph-name="percent" unicode="%" 
d="M292 569c-12 -71 -54 -128 -101 -128c-45 0 -70 55 -58 129c12 70 54 127 100 127s71 -55 59 -128zM545 671c-1 -5 -4 -10 -9 -19l-407 -721c-5 -8 -12 -17 -26 -17s-24 12 -22 26c1 5 4 10 9 19l401 712c6 10 15 26 32 26c14 0 24 -13 22 -26zM493 41
c-12 -70 -53 -127 -100 -127s-71 57 -59 127s54 128 101 128s70 -58 58 -128zM255 570c8 49 -13 83 -29 83s-48 -34 -56 -83c-9 -54 14 -85 28 -85c15 0 48 31 57 85zM456 41c9 54 -14 84 -28 84c-15 0 -48 -30 -57 -84c-9 -53 14 -83 29 -83c14 0 47 30 56 83z" />
    <glyph glyph-name="ampersand" unicode="&#x26;" 
d="M554 403c-3 -20 -22 -20 -34 -20h-39l-92 -168c-15 -26 -43 -73 -75 -114c11 -19 46 -70 87 -70c20 0 49 14 65 75c2 7 7 16 20 16c0 0 18 -1 14 -24c-7 -45 -44 -109 -106 -109c-55 0 -88 50 -108 78c-46 -47 -90 -78 -141 -78c-73 0 -105 69 -93 142c7 45 29 79 54 105
l84 77c-11 69 -9 126 -1 170c15 95 72 139 120 139c67 0 73 -73 63 -131c-4 -23 -15 -81 -138 -191c11 -54 45 -128 61 -166c49 71 98 161 146 249c-28 0 -47 0 -44 21c4 21 24 21 35 21h95c12 0 31 0 27 -22zM335 491c2 11 8 89 -33 89c-26 0 -65 -29 -76 -97
c-2 -9 -10 -65 -1 -138c79 75 105 115 110 146zM268 101c-16 30 -20 40 -36 80c-11 24 -24 57 -33 88c-74 -69 -87 -82 -96 -135c-5 -31 -2 -103 50 -103c16 0 58 5 115 70z" />
    <glyph glyph-name="quotesingle" unicode="'" 
d="M394 577l-48 -211c-3 -13 -7 -27 -26 -27s-20 17 -19 28l22 210c3 36 34 45 44 45s37 -7 27 -45z" />
    <glyph glyph-name="parenleft" unicode="(" 
d="M422 -66c-1 -6 -7 -19 -25 -19c-24 0 -88 57 -128 129c-26 51 -58 142 -38 262c43 257 267 391 296 391c18 0 20 -13 19 -19c-1 -9 -9 -14 -24 -22c-158 -97 -222 -244 -240 -350c-20 -119 6 -260 122 -349c13 -9 19 -14 18 -23z" />
    <glyph glyph-name="parenright" unicode=")" 
d="M396 306c-43 -257 -267 -391 -296 -391c-17 0 -20 13 -19 19c1 9 10 14 24 22c159 97 222 244 240 350c12 69 24 239 -134 358c-4 3 -7 7 -6 14c1 6 8 19 25 19c24 0 88 -57 128 -129c26 -51 58 -142 38 -262z" />
    <glyph glyph-name="asterisk" unicode="*" 
d="M487 211c-2 -11 -13 -24 -28 -24c-7 0 -8 1 -30 15l-99 64l-23 -140c-1 -7 -5 -33 -29 -33s-20 26 -19 33l24 141l-152 -80c-27 1 -24 21 -24 24c2 13 15 20 24 25l141 70l-118 70c-9 6 -17 11 -15 24c2 11 13 24 28 24c0 0 4 0 6 -1l123 -80l23 142c1 7 5 33 29 33
s20 -26 19 -33l-25 -141l153 80c27 -1 24 -21 24 -24c-2 -13 -15 -20 -24 -25l-141 -70l129 -76c2 -3 6 -9 4 -18z" />
    <glyph glyph-name="plus" unicode="+" 
d="M534 306c-4 -26 -33 -26 -42 -26h-157l-27 -158c-1 -9 -6 -38 -32 -38s-21 29 -20 38l27 158h-157c-9 0 -38 0 -34 26s33 26 42 26h157l27 158c1 9 6 38 32 38s21 -29 20 -38l-27 -158h157c9 0 38 0 34 -26z" />
    <glyph glyph-name="comma" unicode="," 
d="M341 16c-18 -107 -124 -160 -155 -160c-12 0 -20 12 -18 23c1 9 9 14 17 17c22 7 85 32 106 94c3 8 5 20 5 20c-11 -8 -29 -10 -34 -10c-29 0 -50 22 -45 55c5 28 29 54 64 54c41 0 69 -37 60 -93z" />
    <glyph glyph-name="hyphen" unicode="-" 
d="M516 306c-4 -26 -33 -26 -43 -26h-328c-10 0 -39 0 -35 26s33 26 43 26h328c10 0 39 0 35 -26z" />
    <glyph glyph-name="period" unicode="." 
d="M326 54c-4 -27 -31 -54 -64 -54c-28 0 -50 23 -45 55c5 27 31 54 64 54c28 0 50 -23 45 -55z" />
    <glyph glyph-name="slash" unicode="/" 
d="M575 671c-1 -4 -3 -7 -12 -21l-460 -713c-6 -10 -14 -23 -30 -23c-15 0 -24 13 -22 26c1 4 3 7 11 20l460 714c7 10 14 23 31 23c14 0 24 -13 22 -26z" />
    <glyph glyph-name="zero" unicode="0" 
d="M522 305c-30 -181 -150 -316 -262 -316c-110 0 -187 132 -156 317c30 181 150 316 262 316c110 0 187 -132 156 -317zM473 316c26 160 -35 264 -114 264c-80 0 -176 -105 -202 -264c-27 -160 26 -285 110 -285s179 125 206 285z" />
    <glyph glyph-name="one" unicode="1" 
d="M442 21c-4 -21 -24 -21 -35 -21h-260c-11 0 -31 0 -27 21c3 21 22 21 34 21h105l78 470c-68 -52 -109 -58 -127 -58c-11 0 -24 3 -21 21c3 14 11 18 22 20c32 4 92 15 154 115c4 7 10 12 21 12c20 0 16 -20 14 -32l-91 -548h105c12 0 31 0 28 -21z" />
    <glyph glyph-name="two" unicode="2" 
d="M474 32c-4 -25 -11 -32 -36 -32h-351c-12 0 -32 0 -28 22c1 9 7 14 15 20l260 192c81 59 143 122 156 197c16 97 -59 149 -150 149c-61 0 -120 -35 -149 -94c11 -10 14 -20 12 -29c-3 -22 -25 -36 -42 -36c-13 0 -34 9 -29 39c14 83 105 162 221 162
c120 0 208 -73 188 -191c-12 -71 -59 -129 -120 -181c-74 -59 -186 -137 -280 -208h284c6 33 8 49 34 49c25 0 22 -18 20 -32z" />
    <glyph glyph-name="three" unicode="3" 
d="M505 170c-15 -92 -114 -181 -243 -181c-120 0 -208 54 -193 141c4 26 24 39 42 39c20 0 33 -16 29 -36c-2 -15 -8 -20 -20 -30c24 -58 105 -72 149 -72c101 0 174 71 185 139c11 64 -31 139 -141 139h-48c-12 0 -31 0 -28 22c3 19 20 20 69 24c41 2 68 4 108 33
c35 25 57 64 63 98c9 51 -39 94 -116 94c-10 0 -88 -1 -136 -42c7 -10 10 -18 8 -28c-4 -23 -24 -37 -41 -37c-16 0 -34 12 -30 39c12 67 89 110 205 110c112 0 173 -63 161 -135c-9 -53 -45 -108 -123 -154c75 -37 112 -94 100 -163z" />
    <glyph glyph-name="four" unicode="4" 
d="M526 195c-4 -20 -24 -20 -35 -20h-91l-22 -133h74c12 0 31 0 28 -21c-4 -21 -24 -21 -35 -21h-186c-11 0 -31 0 -27 21c3 21 22 21 34 21h74l22 133h-271c-24 0 -30 5 -26 31c3 13 3 17 8 24l303 376c14 17 18 17 38 17h28c27 0 32 -6 28 -32l-63 -374h91
c11 0 31 0 28 -22zM369 217l61 364h-27l-292 -364h258z" />
    <glyph glyph-name="five" unicode="5" 
d="M500 186c-18 -109 -131 -197 -254 -197c-110 0 -182 66 -168 147c5 32 30 40 42 40c17 0 34 -13 30 -36c-2 -16 -10 -22 -21 -32c23 -67 92 -77 124 -77c92 0 181 67 196 155c12 72 -24 153 -116 153c-63 0 -112 -20 -153 -61c-4 -4 -10 -6 -20 -6c-23 0 -20 18 -17 32
l46 275c4 25 11 32 36 32h279c12 0 31 0 27 -22c-3 -20 -23 -20 -34 -20h-259l-37 -224c61 30 106 36 140 36c116 0 176 -96 159 -195z" />
    <glyph glyph-name="six" unicode="6" 
d="M500 189c-20 -118 -131 -200 -238 -200c-99 0 -195 74 -156 310c34 202 187 323 321 323c92 0 119 -49 111 -96c-4 -24 -23 -38 -43 -38c-21 0 -32 16 -29 35c3 14 6 19 19 30c-11 13 -26 27 -66 27c-95 0 -213 -88 -261 -267c75 59 129 76 180 76
c108 0 180 -88 162 -200zM449 189c13 82 -33 156 -123 156c-85 0 -161 -57 -172 -126c-4 -23 -5 -51 -3 -67c11 -68 46 -121 118 -121c80 0 164 63 180 158z" />
    <glyph glyph-name="seven" unicode="7" 
d="M575 589c-1 -5 -2 -8 -6 -12c-92 -77 -288 -260 -338 -560c-5 -20 -18 -28 -30 -28c-26 0 -21 27 -19 38c18 112 91 336 318 542h-307c-6 -33 -8 -49 -34 -49c-25 0 -22 18 -20 32l7 43c3 15 6 33 31 33c5 0 19 0 23 -17h348c12 0 31 0 27 -22z" />
    <glyph glyph-name="eight" unicode="8" 
d="M505 170c-16 -96 -121 -181 -245 -181c-123 0 -201 85 -185 181c13 73 65 129 176 159c-103 36 -121 83 -112 138c13 79 110 155 227 155c116 0 188 -75 175 -155c-9 -55 -42 -101 -157 -138c99 -30 134 -86 121 -159zM490 466c9 58 -44 114 -131 114
c-88 0 -160 -56 -169 -114c-11 -62 49 -110 131 -110s158 46 169 110zM455 171c11 67 -40 134 -142 134c-101 0 -175 -67 -186 -134c-13 -77 48 -140 140 -140s175 63 188 140z" />
    <glyph glyph-name="nine" unicode="9" 
d="M520 312c-33 -197 -176 -323 -308 -323c-122 0 -129 65 -124 96c4 24 23 38 43 38c21 0 32 -16 29 -35c-3 -14 -7 -19 -18 -31c28 -24 67 -26 77 -26c104 0 208 106 248 266c-74 -58 -128 -75 -179 -75c-108 0 -180 88 -162 200c20 119 134 200 243 200
c95 0 191 -70 151 -310zM473 392c3 16 4 39 4 39c1 8 -2 64 -25 101c-15 22 -41 48 -90 48c-80 0 -169 -62 -185 -158c-13 -82 33 -156 123 -156c92 0 163 64 173 126z" />
    <glyph glyph-name="colon" unicode=":" 
d="M379 370c-5 -27 -31 -54 -64 -54c-28 0 -50 23 -45 55c4 27 31 54 64 54c28 0 50 -23 45 -55zM326 54c-4 -27 -31 -54 -64 -54c-28 0 -50 23 -45 55c5 27 31 54 64 54c28 0 50 -23 45 -55z" />
    <glyph glyph-name="semicolon" unicode=";" 
d="M379 370c-5 -27 -31 -54 -64 -54c-28 0 -50 23 -45 55c4 27 31 54 64 54c28 0 50 -23 45 -55zM325 18c-18 -108 -118 -162 -139 -162c-12 0 -20 12 -18 23c1 8 8 13 13 16c22 11 69 33 98 105c-56 0 -66 30 -62 55c5 29 32 54 63 54c35 0 55 -31 45 -91z" />
    <glyph glyph-name="less" unicode="&#x3c;" 
d="M479 84c-3 -17 -18 -26 -30 -26c-8 0 -10 1 -21 9l-308 216c-6 5 -12 13 -10 23c2 13 15 21 22 25l376 214c13 8 15 9 23 9c12 0 25 -9 22 -26c-2 -13 -15 -21 -24 -26l-344 -196l278 -196c8 -5 18 -13 16 -26z" />
    <glyph glyph-name="equal" unicode="=" 
d="M547 385c-4 -26 -31 -26 -40 -26h-370c-9 0 -36 0 -32 26c4 25 35 25 46 25h358c11 0 42 0 38 -25zM521 227c-4 -25 -35 -25 -46 -25h-358c-11 0 -42 0 -38 25c4 26 31 26 40 26h370c9 0 36 0 32 -26z" />
    <glyph glyph-name="greater" unicode="&#x3e;" 
d="M516 306c-2 -13 -14 -21 -22 -25l-377 -214c-12 -8 -14 -9 -22 -9c-12 0 -25 9 -22 26c2 13 16 21 24 26l344 196l-278 196c-7 5 -18 13 -16 26c3 17 18 26 30 26c8 0 10 -1 21 -9l308 -216c6 -5 12 -13 10 -23z" />
    <glyph glyph-name="question" unicode="?" 
d="M541 499c-8 -49 -47 -76 -77 -91c-111 -55 -139 -118 -147 -169l-3 -18c-4 -26 -12 -31 -36 -31c-31 0 -29 12 -24 44c7 39 22 127 180 207c25 12 52 27 57 58c6 35 -29 76 -143 76c-43 0 -97 -9 -137 -46c8 -12 11 -20 9 -30c-3 -22 -24 -36 -41 -36s-34 13 -29 38
c9 55 68 116 205 116c180 0 192 -82 186 -118zM295 41c-4 -23 -25 -41 -49 -41c-23 0 -38 18 -34 41c4 24 25 42 48 42c24 0 39 -18 35 -42z" />
    <glyph glyph-name="at" unicode="@" 
d="M489 72c-5 -28 -96 -78 -183 -78c-139 0 -238 133 -208 312c30 180 175 311 310 311c172 0 133 -231 123 -295c-29 -170 -128 -212 -176 -212c-72 0 -124 80 -105 196c18 110 94 195 172 195c32 0 55 -17 82 -36c-22 99 -71 110 -103 110c-111 0 -239 -109 -266 -270
c-26 -153 61 -269 177 -269c38 0 82 12 131 51c5 4 9 4 20 4c7 0 29 0 26 -19zM491 305c15 91 -26 154 -77 154c-47 0 -111 -60 -127 -154c-15 -87 24 -153 76 -153c49 0 113 62 128 153z" />
    <glyph glyph-name="A" unicode="A" 
d="M499 21c-4 -21 -26 -21 -39 -21h-105c-14 0 -33 0 -29 21c3 21 21 21 63 21l-6 129h-184l-50 -129c42 0 60 0 57 -21c-4 -21 -23 -21 -37 -21h-106c-12 0 -34 0 -30 21c1 9 6 16 15 20c6 1 27 1 48 1l219 550c13 31 27 31 51 31c26 0 38 0 41 -32l35 -549
c21 0 41 0 47 -1c9 -4 11 -11 10 -20zM379 213l-16 368h-7l-139 -368h162z" />
    <glyph glyph-name="B" unicode="B" 
d="M506 162c-13 -76 -85 -162 -195 -162h-255c-10 0 -31 0 -27 21c3 21 23 21 35 21h39l88 527h-39c-12 0 -32 0 -29 21c4 21 25 21 35 21h234c108 0 154 -79 142 -150c-10 -60 -51 -110 -152 -142c109 -27 135 -90 124 -157zM484 460c6 38 -7 109 -103 109h-140l-38 -230
h117c109 0 156 75 164 121zM455 164c11 65 -40 133 -136 133h-123l-43 -255h142c97 0 151 67 160 122z" />
    <glyph glyph-name="C" unicode="C" 
d="M508 163c-14 -88 -114 -174 -227 -174c-130 0 -217 134 -187 317c30 182 163 316 292 316c50 0 92 -19 128 -55c24 35 26 39 28 43c5 5 12 12 22 12c21 0 17 -20 15 -32l-23 -143c-3 -16 -6 -32 -32 -32c-21 0 -21 12 -22 25c0 90 -53 140 -119 140
c-96 0 -212 -113 -239 -274c-27 -162 50 -275 148 -275c45 0 141 27 166 136c5 20 22 20 28 20c8 0 26 0 22 -24z" />
    <glyph glyph-name="D" unicode="D" 
d="M532 301c-26 -160 -136 -301 -266 -301h-213c-11 0 -32 0 -28 21c3 21 23 21 35 21h33l88 527h-33c-11 0 -32 0 -29 20c4 22 24 22 36 22h213c133 0 191 -151 164 -310zM482 301c21 125 -18 268 -141 268h-109l-88 -527h109c121 0 208 132 229 259z" />
    <glyph glyph-name="E" unicode="E" 
d="M505 32c-4 -25 -11 -32 -36 -32h-409c-11 0 -32 0 -28 21c3 21 23 21 35 21h42l88 527h-42c-11 0 -32 0 -29 21c4 21 25 21 36 21h386c26 0 30 -8 26 -32l-13 -76c-3 -15 -5 -32 -31 -32c-25 0 -22 18 -20 32l11 66h-274l-39 -231h157c8 44 10 59 35 59s22 -18 20 -32
l-16 -96c-3 -15 -5 -32 -30 -32s-23 15 -16 59h-157l-42 -254h297l14 82c2 15 5 32 31 32c25 0 22 -17 20 -32z" />
    <glyph glyph-name="F" unicode="F" 
d="M571 503c-3 -15 -5 -32 -30 -32s-22 18 -20 32l11 66h-279l-40 -242h161c7 44 9 59 35 59c25 0 22 -18 20 -32l-16 -97c-2 -14 -5 -32 -30 -32c-26 0 -24 15 -17 59h-161l-40 -242h64c12 0 31 0 28 -21c-4 -21 -24 -21 -35 -21h-160c-11 0 -32 0 -28 21c3 21 23 21 35 21
h45l88 527h-45c-11 0 -32 0 -29 20c4 22 24 22 36 22h394c27 0 30 -8 26 -32z" />
    <glyph glyph-name="G" unicode="G" 
d="M534 238c-4 -22 -24 -22 -53 -22l-31 -184c-2 -14 -5 -32 -30 -32c-26 0 -23 16 -16 61c-44 -43 -90 -72 -145 -72c-119 0 -197 134 -167 317c30 180 153 316 273 316c41 0 77 -14 116 -53c25 42 32 53 47 53c21 0 17 -20 15 -32l-23 -143c-3 -16 -6 -32 -32 -32
c-16 0 -21 6 -21 16c1 125 -66 149 -105 149c-84 0 -193 -110 -220 -275c-27 -159 39 -274 127 -274c59 0 124 50 160 185h-55c-11 0 -31 0 -27 22c3 20 23 20 34 20h124c11 0 32 0 29 -20z" />
    <glyph glyph-name="H" unicode="H" 
d="M504 21c-4 -21 -24 -21 -35 -21h-123c-12 0 -31 0 -27 22c3 20 23 20 34 20h36l43 255h-240l-43 -255h36c12 0 31 0 28 -21c-4 -21 -24 -21 -35 -21h-123c-11 0 -31 0 -27 21c3 21 22 21 34 21h36l88 527h-36c-11 0 -31 0 -28 20c4 22 23 22 35 22h123c12 0 31 0 27 -22
c-3 -20 -23 -20 -34 -20h-36l-38 -230h240l38 230h-36c-12 0 -31 0 -28 21c4 21 24 21 35 21h123c12 0 31 0 27 -22c-3 -20 -23 -20 -34 -20h-36l-88 -527h36c12 0 31 0 28 -21z" />
    <glyph glyph-name="I" unicode="I" 
d="M446 21c-4 -21 -25 -21 -36 -21h-295c-11 0 -32 0 -28 22c3 20 24 20 35 20h122l88 527h-122c-11 0 -32 0 -29 21c4 21 25 21 36 21h295c11 0 32 0 28 -22c-3 -20 -24 -20 -35 -20h-122l-88 -527h122c11 0 32 0 29 -21z" />
    <glyph glyph-name="J" unicode="J" 
d="M573 590c-3 -21 -23 -21 -35 -21h-41l-74 -441c-14 -88 -103 -139 -189 -139c-96 0 -154 42 -144 103c5 26 24 38 43 38c20 0 32 -16 29 -35c-2 -12 -6 -16 -17 -28c34 -36 87 -36 96 -36c22 0 116 6 132 103l73 435h-95c-12 0 -32 0 -29 21c4 21 25 21 36 21h187
c11 0 32 0 28 -21z" />
    <glyph glyph-name="K" unicode="K" 
d="M497 21c-4 -21 -25 -21 -37 -21h-77c-12 0 -32 0 -28 22c3 20 23 20 52 20l-113 288l-131 -136l-25 -152h33c12 0 32 0 29 -21c-4 -21 -25 -21 -36 -21h-104c-12 0 -32 0 -28 22c3 20 24 20 35 20h31l88 527h-31c-12 0 -32 0 -29 21c4 21 25 21 36 21h104
c12 0 32 0 28 -22c-3 -20 -24 -20 -35 -20h-33l-53 -315l303 315c-32 0 -54 0 -51 20c4 22 25 22 36 22h91c11 0 32 0 28 -21c-3 -21 -22 -21 -56 -21l-200 -208l126 -319c29 0 50 0 47 -21z" />
    <glyph glyph-name="L" unicode="L" 
d="M490 32c-4 -25 -10 -32 -36 -32h-388c-12 0 -31 0 -27 21c3 21 22 21 34 21h48l88 527h-48c-12 0 -31 0 -28 20c4 22 23 22 35 22h167c11 0 32 0 28 -22c-3 -20 -24 -20 -35 -20h-68l-88 -527h270l14 82c2 16 5 32 30 32s22 -17 20 -32z" />
    <glyph glyph-name="M" unicode="M" 
d="M509 21c-4 -21 -24 -21 -35 -21h-85c-11 0 -31 0 -27 21c3 21 22 21 58 21l88 527h-7l-168 -341c-6 -13 -26 -17 -36 -17c-9 0 -25 2 -28 13l-55 345h-7l-88 -527c35 0 54 0 51 -21c-4 -21 -24 -21 -35 -21h-85c-11 0 -31 0 -27 21c3 21 22 21 58 21l88 527
c-36 0 -55 0 -52 21c4 21 24 21 35 21h58c11 0 38 1 41 -18l52 -340h2l158 324c11 22 21 34 55 34h58c11 0 31 0 27 -21c-3 -21 -22 -21 -58 -21l-88 -527c36 0 55 0 52 -21z" />
    <glyph glyph-name="N" unicode="N" 
d="M592 589c-3 -20 -23 -20 -34 -20h-37l-90 -537c-5 -30 -14 -32 -38 -32c-22 0 -38 1 -44 30l-110 539h-9l-88 -527h36c12 0 31 0 28 -21c-4 -21 -24 -21 -35 -21h-110c-12 0 -31 0 -27 22c3 20 23 20 34 20h37l88 527h-37c-12 0 -31 0 -28 21c4 21 24 21 35 21h71
c23 0 37 -2 43 -30l110 -539h9l88 527h-36c-11 0 -31 0 -28 20c4 22 23 22 35 22h110c12 0 31 0 27 -22z" />
    <glyph glyph-name="O" unicode="O" 
d="M516 305c-48 -288 -73 -316 -256 -316c-184 0 -198 28 -150 316c48 289 72 317 256 317s198 -29 150 -317zM466 314c11 64 24 143 19 192c-6 62 -42 74 -126 74c-92 0 -129 -15 -154 -81c-20 -49 -32 -120 -43 -185c-9 -57 -24 -148 -20 -202c3 -56 26 -81 125 -81
c100 0 132 25 155 88c21 56 34 130 44 195z" />
    <glyph glyph-name="P" unicode="P" 
d="M549 432c-15 -91 -102 -179 -215 -179h-140l-35 -211h42c11 0 32 0 29 -21c-4 -21 -25 -21 -36 -21h-134c-11 0 -32 0 -28 21c3 21 23 21 35 21h42l88 527h-42c-11 0 -32 0 -29 21c4 21 25 21 36 21h232c112 0 170 -88 155 -179zM498 432c10 59 -24 137 -131 137h-120
l-46 -273h120c107 0 167 77 177 136z" />
    <glyph glyph-name="Q" unicode="Q" 
d="M516 305c-8 -47 -19 -116 -36 -172c-21 -78 -42 -112 -99 -134l27 -72c7 -21 21 -56 21 -61c-2 -10 -15 -10 -25 -10h-9c-12 0 -22 0 -26 8l-45 126c-18 -1 -51 -1 -64 -1c-184 0 -198 28 -150 316c48 289 72 317 256 317s198 -29 150 -317zM465 306c9 56 21 127 21 181
c-1 72 -27 93 -127 93c-103 0 -131 -24 -156 -86c-19 -50 -32 -130 -42 -189c-9 -56 -21 -127 -21 -181c2 -60 18 -93 119 -93h50l-39 112v4c1 9 15 9 24 9h12c14 0 15 0 20 -11l39 -100c36 22 63 39 100 261z" />
    <glyph glyph-name="R" unicode="R" 
d="M534 86c-5 -35 -37 -97 -95 -97c-30 0 -53 13 -64 38c-15 35 -9 66 1 130c8 47 11 72 -10 96c-31 31 -65 31 -86 31h-91l-40 -242h36c12 0 31 0 28 -21c-4 -21 -24 -21 -35 -21h-123c-11 0 -31 0 -27 21c3 21 22 21 34 21h36l88 527h-36c-11 0 -31 0 -28 20
c4 22 23 22 35 22h183c115 0 177 -79 163 -163c-7 -40 -35 -99 -120 -143c23 -20 41 -40 49 -68c5 -22 3 -31 -7 -93s-13 -113 20 -113c22 0 38 46 40 57c4 21 20 21 28 21s25 0 21 -23zM453 448c9 53 -28 121 -131 121h-85l-40 -242h85c102 0 162 66 171 121z" />
    <glyph glyph-name="S" unicode="S" 
d="M496 161c-15 -87 -100 -172 -213 -172c-64 0 -122 15 -168 54c-18 -41 -24 -54 -41 -54c-21 0 -17 20 -15 32l22 136c3 15 6 32 32 32c23 0 21 -14 20 -26c-2 -21 -5 -68 37 -98c38 -29 90 -34 121 -34c88 0 147 67 157 125c16 97 -71 120 -102 127l-113 28
c-77 23 -112 87 -101 152c14 83 101 159 209 159c45 0 96 -11 141 -56c18 40 25 56 42 56c21 0 17 -20 15 -32l-22 -136c-3 -15 -6 -32 -32 -32c-13 0 -20 3 -21 15c-1 40 -4 143 -131 143c-80 0 -143 -55 -153 -113c-9 -53 26 -93 72 -107l81 -19c75 -18 101 -24 135 -64
c10 -13 38 -54 28 -116z" />
    <glyph glyph-name="T" unicode="T" 
d="M580 503c-3 -15 -5 -32 -31 -32c-25 0 -22 18 -20 32l11 66h-157l-88 -527h64c12 0 31 0 28 -21c-4 -21 -24 -21 -35 -21h-179c-12 0 -31 0 -27 22c3 20 23 20 34 20h64l88 527h-158l-11 -66c-3 -15 -5 -32 -31 -32c-25 0 -22 18 -20 32l13 76c4 26 12 32 37 32h405
c26 0 30 -8 26 -32z" />
    <glyph glyph-name="U" unicode="U" 
d="M616 590c-3 -21 -23 -21 -35 -21h-41l-61 -368c-21 -121 -121 -212 -219 -212s-168 91 -147 212l61 368h-41c-12 0 -32 0 -29 21c4 21 24 21 36 21h133c11 0 32 0 28 -21c-3 -21 -24 -21 -35 -21h-41l-61 -363c-19 -119 44 -175 103 -175c58 0 142 56 161 175l61 363h-41
c-11 0 -32 0 -29 21c4 21 25 21 36 21h133c12 0 32 0 28 -21z" />
    <glyph glyph-name="V" unicode="V" 
d="M602 590c-3 -21 -22 -21 -60 -21l-229 -547c-13 -30 -29 -30 -52 -30c-25 0 -39 0 -42 31l-47 546c-38 0 -57 0 -54 21c4 21 25 21 36 21h106c11 0 32 0 28 -21c-3 -21 -22 -21 -64 -21l41 -536l7 1l218 535c-42 0 -61 0 -58 21c4 21 25 21 36 21h106c11 0 32 0 28 -21z
" />
    <glyph glyph-name="W" unicode="W" 
d="M609 589c-3 -20 -24 -20 -41 -20l-167 -550c-8 -27 -31 -27 -41 -27c-5 0 -29 0 -30 18l-15 302l-119 -306c-10 -14 -27 -14 -34 -14c-10 0 -33 0 -33 27l17 550h-10c-7 0 -28 0 -25 20c4 22 25 22 36 22h82c12 0 31 0 27 -22c-3 -20 -23 -20 -34 -20h-34l-22 -535h4
l116 309c7 17 28 16 36 16c7 0 30 1 31 -17l12 -308h4l157 535h-34c-11 0 -31 0 -28 20c4 22 23 22 35 22h82c11 0 32 0 28 -22z" />
    <glyph glyph-name="X" unicode="X" 
d="M498 21c-4 -21 -25 -21 -36 -21h-108c-11 0 -31 0 -27 21c3 21 21 21 56 21l-81 235l-150 -235c35 0 55 0 52 -21c-4 -21 -25 -21 -36 -21h-108c-11 0 -31 0 -27 21c3 21 22 21 34 21h29l190 284l-88 243h-30c-12 0 -32 0 -29 21c4 21 25 21 36 21h107c11 0 31 0 27 -21
c-3 -21 -22 -21 -54 -21l66 -185l121 185c-35 0 -54 0 -51 21c4 21 24 21 35 21h108c11 0 32 0 28 -22c-3 -20 -24 -20 -35 -20h-30l-162 -242l104 -285h30c11 0 32 0 29 -21z" />
    <glyph glyph-name="Y" unicode="Y" 
d="M601 589c-3 -20 -23 -20 -34 -20h-28l-210 -325l-34 -202h36c12 0 31 0 28 -21c-4 -21 -24 -21 -35 -21h-123c-12 0 -31 0 -27 22c3 20 23 20 34 20h36l34 202l-103 325h-28c-12 0 -31 0 -28 21c4 21 24 21 35 21h108c11 0 31 0 27 -21c-3 -21 -22 -21 -57 -21l79 -280
l170 280c-34 0 -53 0 -50 21c4 21 24 21 35 21h108c12 0 31 0 27 -22z" />
    <glyph glyph-name="Z" unicode="Z" 
d="M483 32c-4 -25 -10 -32 -36 -32h-364c-14 0 -32 0 -28 25c2 8 2 13 14 26l437 518h-297l-11 -66c-3 -15 -5 -32 -31 -32c-25 0 -22 18 -20 32l13 76c4 26 12 32 38 32h345c14 0 32 0 28 -25c-2 -8 -2 -13 -14 -26l-437 -518h314l14 85c3 15 6 32 32 32
c25 0 22 -17 19 -32z" />
    <glyph glyph-name="bracketleft" unicode="[" 
d="M469 -65c-3 -21 -23 -21 -34 -21h-187c-26 0 -30 8 -26 32l120 719c4 25 10 32 36 32h187c12 0 31 0 28 -22c-4 -21 -24 -21 -35 -21h-167l-116 -697h167c12 0 31 0 27 -22z" />
    <glyph glyph-name="backslash" unicode="\" 
d="M453 -60c-2 -13 -16 -26 -30 -26c-16 0 -21 14 -24 22l-222 715c-3 5 -5 13 -4 20c2 13 15 26 30 26c16 0 21 -14 24 -22l222 -715c2 -5 5 -13 4 -20z" />
    <glyph glyph-name="bracketright" unicode="]" 
d="M284 -54c-4 -25 -10 -32 -36 -32h-187c-12 0 -31 0 -28 22c4 21 24 21 35 21h167l116 697h-167c-12 0 -31 0 -27 22c3 21 23 21 34 21h187c26 0 30 -8 26 -32z" />
    <glyph glyph-name="asciicircum" unicode="^" 
d="M539 525c-2 -12 -11 -21 -28 -21c-6 0 -18 5 -28 10l-127 60l-147 -60c-12 -5 -26 -10 -32 -10c-17 0 -22 9 -20 21c1 8 14 17 25 22l159 70c16 7 30 7 44 0l135 -70c9 -5 20 -14 19 -22z" />
    <glyph glyph-name="underscore" unicode="_" 
d="M439 -153c-4 -26 -33 -26 -43 -26h-328c-10 0 -39 0 -35 26c5 26 34 26 44 26h328c10 0 39 0 34 -26z" />
    <glyph glyph-name="grave" unicode="`" 
d="M450 536c-1 -7 -9 -31 -29 -31c0 0 -5 0 -7 1l-133 64c-18 8 -20 18 -18 27c2 14 15 25 30 25c0 0 6 0 14 -4l128 -62c9 -4 17 -8 15 -20z" />
    <glyph glyph-name="a" unicode="a" 
d="M517 22c-4 -22 -24 -22 -46 -22c-36 0 -83 0 -103 37c-61 -36 -124 -43 -160 -43c-99 0 -151 61 -140 128c16 95 149 141 334 144c15 90 -36 126 -121 126c-31 0 -69 -4 -72 -23c-6 -30 -31 -37 -43 -37c-19 0 -33 13 -29 37c10 65 109 65 150 65c140 0 181 -80 169 -150
l-38 -230c15 -6 29 -12 70 -12c12 0 32 0 29 -20zM379 128l17 98c-169 -5 -268 -51 -277 -104c-7 -45 32 -86 103 -86c8 0 57 0 99 19c50 21 54 46 58 73z" />
    <glyph glyph-name="b" unicode="b" 
d="M521 213c-21 -125 -132 -219 -239 -219c-31 0 -71 9 -120 68c-7 -45 -10 -62 -34 -62c-26 0 -23 17 -21 32l90 537h-57c-11 0 -31 0 -28 20c4 22 24 22 36 22h75c27 0 30 -8 26 -32l-36 -212c59 46 106 64 153 64c104 0 175 -97 155 -218zM471 213
c16 96 -36 176 -118 176c-71 0 -146 -60 -157 -126l-13 -76c-9 -53 15 -151 103 -151c77 0 167 71 185 177z" />
    <glyph glyph-name="c" unicode="c" 
d="M480 102c-3 -16 -53 -108 -187 -108c-124 0 -200 101 -180 219c14 87 95 221 265 221c43 0 143 -6 134 -65c-4 -23 -24 -37 -43 -37c-20 0 -33 12 -28 40c2 11 -44 20 -70 20c-148 0 -199 -126 -207 -179c-17 -100 49 -177 142 -177c81 0 114 54 129 77c6 7 12 8 22 8
c4 0 26 0 23 -19z" />
    <glyph glyph-name="d" unicode="d" 
d="M514 22c-4 -22 -24 -22 -36 -22h-75c-31 0 -29 12 -20 67c-54 -47 -98 -73 -153 -73c-104 0 -176 96 -156 218c21 125 131 219 238 219c42 0 79 -16 122 -59l33 197h-57c-11 0 -31 0 -28 20c4 22 24 22 36 22h75c27 0 30 -8 26 -32l-90 -537h57c11 0 31 0 28 -20z
M404 190l12 74c10 62 -35 125 -107 125c-77 0 -167 -71 -185 -177c-16 -98 39 -176 117 -176c86 0 152 92 163 154z" />
    <glyph glyph-name="e" unicode="e" 
d="M477 102c-4 -24 -65 -108 -192 -108c-128 0 -211 99 -191 220s131 220 248 220c128 0 174 -97 156 -209c-5 -28 -19 -28 -36 -28h-320c2 -106 75 -161 157 -161c32 0 94 11 132 74c6 10 12 11 24 11c4 0 25 0 22 -19zM449 239c10 126 -56 153 -114 153
c-77 0 -152 -60 -185 -153h299z" />
    <glyph glyph-name="f" unicode="f" 
d="M527 566c-3 -23 -25 -36 -41 -36c-27 0 -29 31 -27 45c-45 0 -121 -1 -136 -91l-10 -59h137c12 0 31 0 27 -22c-3 -20 -23 -20 -34 -20h-137l-57 -341h115c11 0 32 0 29 -21c-4 -21 -25 -21 -36 -21h-280c-11 0 -32 0 -28 22c3 20 24 20 35 20h115l57 341h-115
c-11 0 -31 0 -28 20c4 22 24 22 36 22h114l11 65c14 84 96 127 173 127c14 0 89 0 80 -51z" />
    <glyph glyph-name="g" unicode="g" 
d="M572 391c-4 -23 -23 -32 -36 -32c-8 0 -25 6 -26 36c-24 -2 -51 -7 -87 -25c16 -37 20 -65 15 -94c-14 -86 -97 -156 -186 -156c-48 0 -80 22 -93 31c-13 -23 -18 -40 -19 -45c0 0 -3 -26 8 -43c12 -18 19 -19 37 -19c9 -1 23 -2 31 -2h73c90 0 129 -21 140 -28
c44 -26 54 -74 48 -109c-14 -84 -129 -142 -255 -142s-221 57 -207 142c2 10 14 76 103 125c-12 21 -22 44 -16 78c5 28 17 49 35 70c-15 25 -26 56 -19 98c14 83 95 155 186 155c45 0 76 -18 95 -33c57 37 105 38 116 38c47 0 61 -25 57 -45zM388 276
c10 60 -29 114 -91 114c-59 0 -118 -50 -129 -115c-10 -60 29 -114 91 -114c59 0 118 50 129 115zM437 -95c16 94 -104 99 -202 99c-79 0 -89 -1 -119 -18c-41 -23 -57 -60 -61 -81c-8 -49 63 -100 174 -100c110 0 200 51 208 100z" />
    <glyph glyph-name="h" unicode="h" 
d="M514 21c-4 -21 -24 -21 -35 -21h-158c-11 0 -32 0 -28 21c3 21 23 21 35 21h51l41 245c12 70 -1 102 -63 102c-57 0 -147 -42 -166 -153l-32 -194h56c12 0 32 0 29 -21c-4 -21 -24 -21 -35 -21h-164c-11 0 -31 0 -27 21c3 21 23 21 35 21h56l88 527h-57
c-11 0 -31 0 -28 20c4 22 24 22 36 22h75c27 0 30 -8 26 -32l-37 -217c43 36 93 69 158 69c76 0 117 -42 101 -138l-42 -251h56c12 0 32 0 29 -21z" />
    <glyph glyph-name="i" unicode="i" 
d="M455 21c-4 -21 -25 -21 -36 -21h-305c-11 0 -32 0 -28 21c3 21 23 21 35 21h136l57 341h-128c-11 0 -32 0 -29 21c4 21 25 21 36 21h147c27 0 30 -8 26 -32l-59 -351h119c11 0 32 0 29 -21zM398 563c-4 -23 -25 -41 -48 -41s-38 18 -34 41c4 24 25 42 48 42
s38 -18 34 -42z" />
    <glyph glyph-name="j" unicode="j" 
d="M352 -56c-11 -62 -65 -180 -207 -180c-38 0 -133 0 -122 69c4 23 24 37 42 37c17 0 33 -14 29 -36l-8 -17s23 -10 72 -10c26 0 61 0 99 43c34 39 42 81 45 99l73 434h-145c-11 0 -31 0 -28 20c4 22 24 22 36 22h163c27 0 30 -8 26 -32zM454 563c-4 -23 -25 -41 -48 -41
s-38 18 -34 41c4 24 25 42 48 42s38 -18 34 -42z" />
    <glyph glyph-name="k" unicode="k" 
d="M510 21c-4 -21 -25 -21 -36 -21h-122c-11 0 -31 0 -27 21c3 21 19 19 69 19l-110 183l-109 -85l-16 -96h61c12 0 31 0 28 -21c-4 -21 -23 -21 -35 -21h-159c-12 0 -31 0 -27 22c3 20 23 20 34 20h54l88 527h-54c-12 0 -31 0 -28 21c4 21 24 21 35 21h67
c27 0 30 -8 26 -32l-65 -388l236 192h-64c-11 0 -31 0 -28 20c4 22 23 22 35 22h159c11 0 32 0 28 -22c-3 -20 -24 -20 -35 -20h-37l-159 -130l127 -211h35c11 0 32 0 29 -21z" />
    <glyph glyph-name="l" unicode="l" 
d="M468 21c-4 -21 -24 -21 -35 -21h-341c-10 0 -31 0 -27 21c3 21 23 21 35 21h144l88 527h-145c-10 0 -31 0 -28 20c4 22 24 22 36 22h164c26 0 30 -8 26 -32l-90 -537h145c12 0 31 0 28 -21z" />
    <glyph glyph-name="m" unicode="m" 
d="M518 21c-4 -21 -25 -21 -36 -21h-77c-11 0 -32 0 -28 21c3 21 21 21 46 21l42 252c13 77 -3 95 -30 95c-47 0 -103 -51 -119 -151l-33 -196c40 0 57 0 54 -21c-4 -21 -24 -21 -36 -21h-77c-11 0 -32 0 -28 21c3 21 21 21 46 21l42 252c13 77 -3 95 -30 95
c-46 0 -101 -51 -117 -151l-33 -196c40 0 57 0 54 -21c-4 -21 -24 -21 -36 -21h-91c-10 0 -32 0 -28 21c3 21 20 21 60 21l57 341c-40 0 -57 0 -54 21c4 21 25 21 36 21h33c14 0 30 0 26 -43c45 36 73 49 104 49c30 0 52 -17 65 -64c46 52 87 64 116 64
c81 0 65 -109 62 -128l-44 -261c40 0 57 0 54 -21z" />
    <glyph glyph-name="n" unicode="n" 
d="M514 21c-4 -21 -24 -21 -35 -21h-158c-11 0 -32 0 -28 21c3 21 23 21 35 21h51l41 245c12 70 -1 102 -63 102c-57 0 -147 -42 -166 -153l-32 -194h56c12 0 32 0 29 -21c-4 -21 -24 -21 -35 -21h-164c-11 0 -31 0 -27 21c3 21 23 21 35 21h56l57 341h-57
c-11 0 -31 0 -28 20c4 22 24 22 36 22h75c31 0 29 -13 20 -63c43 36 93 69 158 69c76 0 117 -42 101 -138l-42 -251h56c12 0 32 0 29 -21z" />
    <glyph glyph-name="o" unicode="o" 
d="M500 213c-21 -124 -131 -219 -239 -219s-186 94 -165 219c20 123 128 221 238 221s186 -98 166 -221zM450 220c17 101 -44 172 -123 172c-78 0 -162 -71 -179 -172c-17 -102 38 -184 120 -184c81 0 165 82 182 184z" />
    <glyph glyph-name="p" unicode="p" 
d="M521 213c-21 -125 -132 -219 -239 -219c-31 0 -71 9 -120 68l-41 -249h56c12 0 32 0 28 -22c-3 -21 -23 -21 -34 -21h-164c-11 0 -31 0 -28 21c4 22 24 22 36 22h56l95 570h-57c-11 0 -31 0 -28 20c4 22 24 22 36 22h75c30 0 29 -11 21 -58c59 46 106 64 153 64
c104 0 175 -97 155 -218zM471 213c16 96 -36 176 -118 176c-71 0 -146 -60 -157 -126l-13 -76c-9 -53 15 -151 103 -151c77 0 167 71 185 177z" />
    <glyph glyph-name="q" unicode="q" 
d="M501 -209c-3 -21 -23 -21 -34 -21h-173c-12 0 -31 0 -28 22c4 21 24 21 35 21h61l43 259c-45 -42 -96 -78 -163 -78c-108 0 -184 96 -164 218c21 125 137 219 248 219c55 0 91 -25 127 -73c9 58 12 73 38 73c25 0 22 -17 20 -32l-98 -586h61c12 0 31 0 27 -22zM425 190
l7 41c12 73 -25 158 -108 158c-88 0 -179 -76 -196 -177c-16 -99 44 -176 126 -176c91 0 160 91 171 154z" />
    <glyph glyph-name="r" unicode="r" 
d="M547 377c-4 -21 -21 -34 -39 -34c-20 0 -31 17 -26 46c-142 0 -225 -105 -242 -207l-23 -140h125c12 0 32 0 29 -21c-4 -21 -24 -21 -36 -21h-269c-12 0 -31 0 -27 22c3 20 22 20 34 20h94l57 341h-94c-12 0 -31 0 -28 21c4 21 23 21 35 21h113c27 0 30 -8 26 -32
l-11 -63c87 83 153 101 203 101c76 0 82 -35 79 -54z" />
    <glyph glyph-name="s" unicode="s" 
d="M475 119c-8 -47 -53 -125 -207 -125c-27 0 -80 2 -132 46c-22 -44 -33 -46 -40 -46c-21 0 -18 20 -16 32l17 100c3 15 5 32 31 32c14 0 19 -5 21 -12c15 -97 75 -110 127 -110c103 0 150 41 157 83c10 59 -74 78 -128 87c-87 13 -190 29 -175 117c6 34 42 111 204 111
c19 0 63 0 113 -26c8 17 12 26 29 26c20 0 17 -20 15 -32l-12 -71c-2 -15 -5 -32 -31 -32c-16 0 -20 6 -21 15c2 41 -7 78 -102 78c-108 0 -148 -40 -153 -69c-8 -45 65 -63 98 -68l69 -12c30 -5 152 -25 136 -124z" />
    <glyph glyph-name="t" unicode="t" 
d="M465 120c-14 -86 -100 -126 -171 -126c-70 0 -129 34 -114 126l44 263h-102c-11 0 -31 0 -28 20c4 22 24 22 36 22h101l16 95c2 15 5 32 30 32s22 -18 20 -32l-16 -95h180c12 0 31 0 27 -22c-3 -20 -23 -20 -34 -20h-180l-43 -257c-5 -29 -15 -90 75 -90
c27 0 95 12 108 85c2 13 5 29 30 29c26 0 23 -16 21 -30z" />
    <glyph glyph-name="u" unicode="u" 
d="M514 22c-4 -22 -24 -22 -36 -22h-75c-14 0 -31 0 -25 43c-58 -39 -101 -49 -141 -49c-70 0 -132 22 -117 114l46 275h-57c-11 0 -31 0 -28 20c4 22 24 22 36 22h75c27 0 30 -8 26 -32l-47 -279c-6 -38 -13 -78 79 -78c37 0 130 14 147 116l39 231h-57c-11 0 -31 0 -28 20
c4 22 24 22 36 22h75c27 0 30 -8 26 -32l-59 -351h57c11 0 31 0 28 -20z" />
    <glyph glyph-name="v" unicode="v" 
d="M565 403c-3 -20 -23 -20 -34 -20h-37l-181 -360c-14 -27 -36 -27 -52 -27c-18 0 -37 0 -42 28l-61 359h-37c-11 0 -31 0 -28 20c4 22 23 22 35 22h121c12 0 31 0 27 -22c-3 -20 -23 -20 -34 -20h-43l59 -345h20l175 345h-43c-12 0 -31 0 -28 21c4 21 24 21 35 21h121
c12 0 31 0 27 -22z" />
    <glyph glyph-name="w" unicode="w" 
d="M573 404c-3 -21 -19 -21 -52 -21l-123 -356c-6 -18 -13 -31 -43 -31c-9 0 -27 0 -35 12l-18 197h-6l-78 -181c-10 -24 -23 -28 -48 -28c-33 0 -35 12 -34 31l-5 356c-33 0 -49 0 -46 21c4 21 23 21 37 21h119c14 0 33 0 29 -22c-3 -20 -22 -20 -36 -20h-59l2 -345h6
l87 192c8 17 27 17 35 17c28 0 32 -10 32 -18l17 -191h6l117 345h-59c-14 0 -33 0 -30 21c4 21 23 21 37 21h119c13 0 33 0 29 -21z" />
    <glyph glyph-name="x" unicode="x" 
d="M498 21c-4 -21 -26 -21 -36 -21h-121c-12 0 -31 0 -27 21c3 21 22 21 64 21l-87 152l-134 -152c45 0 63 0 60 -21c-4 -21 -23 -21 -35 -21h-121c-10 0 -32 0 -28 21c3 21 24 21 35 21h47l161 177l-98 164h-46c-11 0 -32 0 -29 20c4 22 24 22 36 22h121c11 0 31 0 27 -21
c-3 -21 -22 -21 -63 -21l77 -134l119 134c-42 0 -61 0 -58 21c4 21 24 21 35 21h121c11 0 32 0 28 -22c-3 -20 -24 -20 -35 -20h-46l-148 -164l105 -177h47c11 0 32 0 29 -21z" />
    <glyph glyph-name="y" unicode="y" 
d="M565 403c-3 -20 -23 -20 -34 -20h-38l-242 -478c-6 -11 -76 -141 -169 -141c-44 0 -69 37 -63 75c3 20 19 35 41 35c20 0 32 -14 28 -34c-2 -11 -9 -20 -9 -20s4 -13 10 -13c30 0 54 4 97 65c18 26 61 115 61 115c1 3 -89 396 -89 396h-35c-11 0 -31 0 -28 20
c4 22 23 22 35 22h121c12 0 31 0 27 -22c-3 -20 -23 -20 -34 -20h-41l74 -348l173 348h-40c-12 0 -31 0 -28 21c4 21 24 21 35 21h121c12 0 31 0 27 -22z" />
    <glyph glyph-name="z" unicode="z" 
d="M477 32c-1 -11 -4 -27 -19 -32h-390c-15 0 -32 0 -28 25c3 14 4 17 25 34l395 324h-293l-6 -38c-3 -15 -6 -32 -32 -32c-25 0 -22 18 -19 32l8 48c4 26 11 32 37 32h352c14 0 32 0 28 -25c-3 -14 -5 -17 -26 -34l-395 -324h314l8 50c3 15 6 32 32 32c25 0 22 -18 19 -32z
" />
    <glyph glyph-name="braceleft" unicode="{" 
d="M453 -64c-3 -22 -23 -22 -37 -22c-47 0 -101 7 -139 30c-45 27 -38 70 -33 98l29 172c8 61 -111 69 -145 71c-9 0 -20 4 -17 21c3 16 17 21 21 21c25 0 78 1 119 17c46 19 49 36 57 79c0 0 28 172 30 178c32 86 140 96 208 96c14 0 34 0 31 -22c-3 -16 -17 -21 -21 -21
c-39 0 -136 -5 -163 -47c-5 -9 -40 -216 -40 -216c-5 -23 -25 -54 -85 -86c62 -37 58 -76 54 -99l-27 -167c-6 -35 -14 -79 141 -83c8 0 20 -3 17 -20z" />
    <glyph glyph-name="bar" unicode="|" 
d="M280 -48c-2 -9 -6 -38 -32 -38s-22 29 -20 38l118 707c1 9 6 38 32 38s21 -29 20 -38z" />
    <glyph glyph-name="braceright" unicode="}" 
d="M515 305c-3 -16 -17 -21 -21 -21c-26 0 -77 -1 -118 -17c-46 -19 -49 -36 -57 -79c0 0 -28 -172 -30 -178c-29 -79 -125 -96 -210 -96c-12 0 -33 0 -30 22c3 16 17 21 21 21c160 2 168 47 173 79l31 184c0 4 11 47 85 86c-52 31 -61 61 -55 98l28 167c6 37 14 81 -139 83
c-10 0 -23 3 -20 21c3 22 24 22 36 22c35 0 98 -4 141 -30c45 -27 38 -70 33 -96l-29 -173c-8 -63 112 -70 145 -72c8 0 19 -4 16 -21z" />
    <glyph glyph-name="asciitilde" unicode="~" 
d="M490 334c-2 -13 -35 -35 -55 -48c-25 -16 -54 -32 -80 -32c-20 0 -33 8 -44 18c-27 29 -35 39 -48 39c-15 0 -48 -17 -87 -49c-6 -4 -12 -8 -20 -8c-11 0 -20 11 -18 22c2 14 35 35 55 49c25 16 55 32 80 32c20 0 33 -9 44 -18c27 -29 35 -39 48 -39c15 0 48 17 87 48
c6 5 12 9 20 9c11 0 20 -11 18 -23z" />
    <glyph glyph-name="uni00A0" unicode="&#xa0;" 
 />
    <glyph glyph-name="exclamdown" unicode="&#xa1;" 
d="M360 340c-4 -23 -25 -41 -48 -41s-38 18 -34 41s25 41 48 41s38 -18 34 -41zM271 -192c-8 -45 -41 -49 -49 -49s-41 4 -33 49l66 344c8 32 11 39 39 39c9 0 30 0 28 -16z" />
    <glyph glyph-name="cent" unicode="&#xa2;" 
d="M480 102c-2 -15 -47 -96 -169 -108l-11 -68c-2 -12 -14 -22 -26 -22s-20 10 -18 22l11 69c-112 19 -172 110 -154 218c13 78 80 195 227 219l11 67c2 12 14 22 26 22s20 -10 18 -22l-11 -65c56 -1 138 -3 128 -65c-4 -23 -24 -37 -43 -37c-20 0 -32 12 -28 40
c2 9 -28 20 -64 20l-59 -356c78 10 103 55 114 74c8 10 15 11 25 11c4 0 26 0 23 -19zM275 39l58 351c-122 -30 -162 -131 -169 -177c-14 -84 30 -150 111 -174z" />
    <glyph glyph-name="sterling" unicode="&#xa3;" 
d="M528 139c-12 -76 -63 -150 -132 -150c-44 0 -87 36 -131 74c-40 -51 -100 -74 -158 -74c-49 0 -83 37 -75 85c10 56 75 87 135 87c17 0 31 -4 63 -17c-5 51 -19 94 -32 136h-74c-14 0 -24 11 -22 26c2 14 16 26 30 26h48c-9 42 -12 71 -6 103c16 97 107 176 204 176
c93 0 164 -66 149 -155c-3 -19 -22 -35 -41 -35s-32 16 -29 35c2 10 7 18 19 29c-11 48 -56 74 -107 74c-68 0 -133 -56 -144 -124c-6 -34 -2 -66 5 -103h174c14 0 24 -12 22 -26c-2 -15 -16 -26 -30 -26h-149c21 -65 39 -118 31 -176c40 -34 75 -64 127 -64
c42 0 63 50 71 99c3 14 16 25 30 25c15 0 25 -11 22 -25zM225 91c-26 13 -45 19 -67 19c-33 0 -69 -7 -74 -36c-3 -18 12 -34 32 -34c42 0 87 13 109 51z" />
    <glyph glyph-name="currency" unicode="&#xa4;" 
d="M444 149c-20 -17 -38 2 -44 8l-25 31c-32 -18 -58 -26 -85 -26c-28 0 -53 8 -78 26l-34 -30c-9 -6 -32 -24 -45 -10c-16 18 6 40 14 48l35 29c-13 28 -16 54 -12 81c5 27 17 53 39 81l-26 31c-5 7 -21 28 -1 45s38 -2 44 -8l26 -31c31 18 58 26 86 26c27 0 51 -8 77 -26
l34 30c8 6 31 24 44 10c16 -18 -6 -40 -13 -47l-35 -29c13 -29 17 -54 12 -82s-17 -53 -40 -82l26 -30c5 -7 21 -28 1 -45zM405 306c8 50 -26 92 -76 92c-51 0 -99 -42 -107 -92s26 -92 77 -92c50 0 98 42 106 92z" />
    <glyph glyph-name="yen" unicode="&#xa5;" 
d="M601 589c-3 -20 -23 -20 -34 -20h-28l-101 -157h56c14 0 24 -11 22 -25c-3 -15 -17 -26 -31 -26h-82l-70 -110h134c14 0 24 -11 22 -26c-3 -14 -17 -25 -31 -25h-137l-26 -158h36c12 0 31 0 28 -21c-4 -21 -24 -21 -35 -21h-123c-12 0 -31 0 -27 22c3 20 23 20 34 20h36
l26 158h-137c-14 0 -24 11 -21 25c2 15 16 26 30 26h134l-35 110h-81c-14 0 -24 11 -21 26c2 14 16 25 30 25h55l-49 157h-28c-12 0 -31 0 -28 21c4 21 24 21 35 21h108c11 0 31 0 27 -21c-3 -21 -22 -21 -57 -21l48 -157h106l95 157c-34 0 -53 0 -50 21c4 21 24 21 35 21
h108c12 0 31 0 27 -22zM355 361h-60l15 -79z" />
    <glyph glyph-name="brokenbar" unicode="&#xa6;" 
d="M356 410c-2 -13 -15 -21 -29 -21s-25 8 -23 21l42 249c1 9 6 38 32 38s21 -29 20 -38zM280 -48c-2 -9 -6 -38 -32 -38s-22 29 -20 38l42 249c2 13 15 21 29 21s25 -8 23 -21z" />
    <glyph glyph-name="section" unicode="&#xa7;" 
d="M531 194c-8 -50 -47 -91 -92 -106c11 -19 16 -42 12 -67c-15 -87 -113 -143 -208 -143c-93 0 -177 44 -163 127c3 20 22 36 42 36s33 -16 30 -36c-2 -11 -9 -21 -18 -28c12 -34 65 -47 117 -47c67 0 138 32 148 91c8 53 -46 77 -96 93l-103 33c-74 24 -135 80 -122 159
c8 49 47 90 93 106c-11 19 -16 41 -12 67c14 87 113 143 208 143c93 0 176 -44 163 -127c-4 -20 -22 -36 -42 -36s-34 16 -30 36c1 11 8 21 17 28c-12 34 -65 47 -117 47c-67 0 -137 -32 -147 -91c-9 -53 45 -77 95 -93l104 -33c74 -24 135 -80 121 -159zM479 194
c10 56 -38 92 -92 109l-104 33c-26 9 -52 21 -74 36c-36 2 -73 -28 -79 -66c-9 -56 39 -92 93 -109l103 -33c27 -9 53 -21 74 -36c36 -2 73 28 79 66z" />
    <glyph glyph-name="dieresis" unicode="&#xa8;" 
d="M307 563c-3 -20 -22 -36 -42 -36s-33 16 -30 36c3 21 22 37 42 37s33 -16 30 -37zM478 563c-3 -20 -22 -36 -42 -36s-33 16 -30 36c3 21 22 37 42 37s33 -16 30 -37z" />
    <glyph glyph-name="copyright" unicode="&#xa9;" 
d="M568 262c-24 -145 -162 -262 -305 -262c-144 0 -242 117 -218 262c24 143 161 260 305 260c143 0 242 -117 218 -260zM549 262c22 132 -69 241 -202 241c-134 0 -261 -109 -283 -241c-23 -134 68 -243 202 -243c133 0 260 109 283 243zM408 175
c-8 -52 -68 -104 -136 -104c-78 0 -131 80 -112 190c18 110 97 190 175 190c30 0 55 -11 77 -33c14 21 16 23 16 26c4 3 7 7 13 7c13 0 11 -12 10 -19l-14 -86c-2 -10 -3 -19 -19 -19c-12 0 -12 7 -13 15c0 54 -32 84 -72 84c-58 0 -127 -68 -143 -165
c-17 -97 30 -165 89 -165c27 0 84 16 99 82c4 12 14 12 17 12c5 0 16 0 13 -15z" />
    <glyph glyph-name="ordfeminine" unicode="&#xaa;" 
d="M478 337c-2 -12 -14 -12 -28 -12c-24 0 -57 0 -70 27c-46 -27 -89 -32 -115 -32c-67 0 -102 41 -94 87c11 66 102 96 233 98c12 68 -25 94 -86 94h-27c-26 -4 -26 -8 -28 -19c-4 -18 -18 -23 -26 -23c-12 0 -21 8 -18 23c7 42 74 42 101 42c97 0 125 -54 117 -101
l-27 -164c11 -5 19 -9 52 -9c6 0 18 0 16 -11zM433 256c-1 -7 -12 -11 -24 -11h-211c-12 0 -21 4 -20 11c1 8 12 13 24 13h211c12 0 21 -5 20 -13zM389 411l12 72c-124 -4 -194 -38 -200 -76c-6 -33 21 -63 74 -63c5 0 40 0 71 14c36 15 39 33 43 53z" />
    <glyph glyph-name="guillemotleft" unicode="&#xab;" 
d="M493 106c-3 -14 -9 -22 -16 -22c-4 0 -6 1 -11 7l-192 194c-5 4 -6 12 -5 21c2 12 9 19 15 23l254 192c7 6 9 7 13 7c7 0 11 -8 8 -22c-2 -13 -10 -19 -16 -24l-232 -176l174 -176c4 -5 10 -11 8 -24zM325 106c-3 -14 -9 -22 -16 -22c-3 0 -5 1 -11 7l-192 194
c-4 4 -6 12 -5 21c2 12 9 19 15 23l254 192c8 6 10 7 13 7c7 0 11 -8 8 -22c-2 -13 -9 -19 -15 -24l-233 -176l175 -176c4 -5 9 -11 7 -24z" />
    <glyph glyph-name="logicalnot" unicode="&#xac;" 
d="M521 227c-2 -14 -16 -25 -30 -25s-23 11 -21 25l22 132h-365c-14 0 -24 12 -22 26c3 14 16 25 30 25h390c14 0 25 -11 22 -25z" />
    <glyph glyph-name="uni00AD" unicode="&#xad;" 
d="M516 306c-4 -26 -33 -26 -43 -26h-328c-10 0 -39 0 -35 26s33 26 43 26h328c10 0 39 0 35 -26z" />
    <glyph glyph-name="registered" unicode="&#xae;" 
d="M568 262c-24 -145 -162 -262 -305 -262c-144 0 -242 117 -218 262c24 143 161 260 305 260c143 0 242 -117 218 -260zM549 262c22 132 -69 241 -202 241c-134 0 -261 -109 -283 -241c-23 -134 68 -243 202 -243c133 0 260 109 283 243zM448 133c-3 -21 -22 -59 -57 -59
c-18 0 -31 8 -39 23c-8 21 -5 40 1 78c5 28 7 43 -5 58c-19 18 -39 18 -52 18h-55l-24 -145h22c7 0 19 0 17 -12c-2 -13 -14 -13 -21 -13h-74c-6 0 -18 0 -16 13c2 12 13 12 20 12h22l52 316h-22c-6 0 -18 0 -16 12c3 14 14 14 21 14h110c69 0 106 -48 97 -98
c-4 -24 -21 -60 -71 -86c13 -12 24 -24 29 -41c3 -13 2 -18 -4 -56c-6 -37 -7 -67 12 -67c14 0 22 27 23 34c3 12 13 12 17 12c5 0 15 0 13 -13zM399 350c6 32 -17 72 -79 72h-51l-24 -145h51c62 0 98 40 103 73z" />
    <glyph glyph-name="macron" unicode="&#xaf;" 
d="M542 563c-4 -21 -23 -21 -35 -21h-307c-13 0 -32 0 -28 22s23 22 35 22h308c13 0 31 0 27 -23z" />
    <glyph glyph-name="degree" unicode="&#xb0;" 
d="M427 546c-6 -35 -37 -74 -88 -74c-46 0 -63 42 -58 73c6 35 40 76 87 76c40 0 65 -42 59 -75zM389 546c3 19 -9 35 -28 35c-20 0 -39 -16 -42 -36c-4 -21 13 -33 29 -33c20 0 38 14 41 34z" />
    <glyph glyph-name="plusminus" unicode="&#xb1;" 
d="M487 26c-4 -26 -33 -26 -42 -26h-366c-9 0 -38 0 -34 26c5 26 34 26 43 26h157l24 144h-157c-9 0 -38 0 -34 26s33 26 42 26h157l27 158c1 10 6 39 32 39s21 -29 20 -39l-27 -158h157c9 0 38 0 34 -26s-33 -26 -42 -26h-157l-24 -144h157c9 0 38 0 33 -26z" />
    <glyph glyph-name="two.superior" unicode="&#xb2;" 
d="M415 332c-1 -7 -2 -17 -14 -20h-174c-7 0 -21 0 -19 14c1 6 4 8 9 12l126 96c31 23 66 53 73 92c7 44 -27 68 -69 68c-29 0 -55 -17 -66 -44c1 -2 5 -5 3 -14c-2 -14 -14 -21 -23 -21c-3 0 -21 2 -17 23c7 42 53 85 111 85c62 0 102 -40 93 -97c-9 -55 -67 -98 -75 -104
l-109 -81h121c2 12 4 22 20 22s14 -11 12 -20z" />
    <glyph glyph-name="three.superior" unicode="&#xb3;" 
d="M430 398c-7 -47 -57 -92 -120 -92c-61 0 -104 32 -96 75c2 16 13 22 24 22c12 0 19 -9 17 -20c-1 -4 -3 -8 -6 -12l-1 -2c-2 -7 17 -34 67 -34c44 0 78 31 84 64c4 27 -13 63 -65 63h-23c-9 0 -19 0 -16 15c1 7 4 13 14 14l29 2c53 4 70 45 72 60c4 23 -18 41 -52 41
c-9 0 -43 -1 -61 -20c0 0 3 -5 2 -13c-3 -13 -15 -20 -24 -20c-8 0 -20 5 -17 21c6 37 49 61 105 61c54 0 86 -32 79 -70c-4 -26 -22 -56 -56 -75c41 -19 49 -54 44 -80z" />
    <glyph glyph-name="acute" unicode="&#xb4;" 
d="M462 597c-2 -9 -8 -19 -28 -27l-155 -64c-2 -1 -7 -1 -7 -1c-20 0 -20 24 -19 31c2 12 12 16 23 20l148 62c10 4 16 4 16 4c15 0 24 -11 22 -25z" />
    <glyph glyph-name="uni00B5" unicode="&#xb5;" 
d="M514 22c-4 -22 -24 -22 -36 -22h-75c-14 0 -31 0 -25 43c-58 -39 -101 -49 -141 -49c-31 0 -61 4 -83 18l-33 -200h56c12 0 32 0 28 -21c-3 -21 -23 -21 -34 -21h-164c-11 0 -31 0 -28 21c4 21 24 21 36 21h56l95 571h-57c-11 0 -31 0 -28 20c4 22 24 22 36 22h75
c27 0 30 -8 26 -32l-47 -279c-6 -38 -13 -78 79 -78c37 0 130 14 147 116l39 231h-57c-11 0 -31 0 -28 20c4 22 24 22 36 22h75c27 0 30 -8 26 -32l-59 -351h57c11 0 31 0 28 -20z" />
    <glyph glyph-name="paragraph" unicode="&#xb6;" 
d="M612 686c-1 -10 -12 -10 -20 -10h-54l-143 -853c-1 -9 -10 -24 -17 -24c-8 0 -11 15 -10 24l143 853h-71l-143 -853c-1 -9 -10 -24 -17 -24s-10 15 -9 24l70 414c-118 6 -238 76 -212 231c21 125 132 229 250 229h216c8 0 19 0 17 -11z" />
    <glyph glyph-name="periodcentered" unicode="&#xb7;" 
d="M368 305c-5 -27 -31 -54 -64 -54c-28 0 -50 23 -45 55c5 27 31 54 64 54c28 0 50 -23 45 -55z" />
    <glyph glyph-name="cedilla" unicode="&#xb8;" 
d="M403 -120c-16 -95 -155 -95 -248 -95c-11 0 -21 6 -18 22c3 21 23 21 55 21c42 0 153 7 161 52c4 24 -18 49 -70 52c-24 1 -22 17 -19 33l5 28c2 15 5 33 31 33c25 0 23 -16 16 -54c73 -15 93 -55 87 -92z" />
    <glyph glyph-name="one.superior" unicode="&#xb9;" 
d="M393 326c-2 -14 -15 -14 -22 -14h-121c-7 0 -20 0 -18 14c3 15 16 15 23 15h44l36 214s-27 -22 -55 -22c-11 0 -15 6 -14 15c3 13 14 14 21 14c27 2 48 29 61 50c4 7 8 11 16 11c15 0 13 -13 12 -20l-44 -262h44c7 0 20 0 17 -15z" />
    <glyph glyph-name="ordmasculine" unicode="&#xba;" 
d="M479 470c-14 -84 -90 -150 -163 -150c-74 0 -128 65 -114 150c15 85 89 152 165 152c75 0 127 -67 112 -152zM411 256c-1 -7 -12 -11 -23 -11h-169c-11 0 -20 4 -19 11c1 8 12 13 23 13h169c11 0 20 -5 19 -13zM451 476c12 72 -31 123 -88 123s-119 -51 -131 -123
c-12 -74 29 -132 88 -132c58 0 119 58 131 132z" />
    <glyph glyph-name="guillemotright" unicode="&#xbb;" 
d="M525 306c-1 -9 -7 -17 -11 -21l-258 -194c-8 -6 -10 -7 -13 -7c-7 0 -12 8 -9 22c2 13 10 19 16 24l233 176l-175 176c-4 5 -10 11 -8 24c3 14 10 22 17 22c3 0 5 -1 11 -7l190 -192c3 -4 9 -11 7 -23zM357 306c-1 -9 -6 -17 -11 -21l-258 -194c-7 -6 -9 -7 -13 -7
c-7 0 -11 8 -8 22c2 13 9 19 16 24l232 176l-174 176c-5 5 -10 11 -8 24c3 14 9 22 16 22c4 0 6 -1 11 -7l190 -192c4 -4 9 -11 7 -23z" />
    <glyph glyph-name="onequarter" unicode="&#xbc;" 
d="M244 326c-2 -14 -15 -14 -22 -14h-121c-7 0 -20 0 -18 14c3 15 16 15 23 15h44l36 214s-27 -22 -55 -22c-11 0 -15 6 -14 15c3 13 14 14 21 14c27 2 48 29 61 50c4 7 8 11 16 11c15 0 13 -13 12 -20l-44 -262h44c7 0 20 0 17 -15zM506 99c-3 -15 -16 -15 -23 -15h-38
l-9 -55h30c7 0 20 0 18 -14c-3 -15 -16 -15 -23 -15h-88c-7 0 -20 0 -17 15c2 14 15 14 22 14h30l9 55h-122c-14 0 -20 2 -17 20c2 9 2 10 7 16l145 183c7 9 9 10 21 10h12c17 0 20 -4 17 -21l-30 -179h38c7 0 20 0 18 -14zM565 609c-1 -4 -8 -16 -11 -19l-424 -592
c-7 -8 -13 -14 -22 -14c-13 0 -14 7 -11 22c1 4 8 11 9 14l426 593c7 8 16 14 25 14s9 -12 8 -18zM422 113l29 175l-138 -175h109z" />
    <glyph glyph-name="onehalf" unicode="&#xbd;" 
d="M244 326c-2 -14 -15 -14 -22 -14h-121c-7 0 -20 0 -18 14c3 15 16 15 23 15h44l36 214s-27 -22 -55 -22c-11 0 -15 6 -14 15c3 13 14 14 21 14c27 2 48 29 61 50c4 7 8 11 16 11c15 0 13 -13 12 -20l-44 -262h44c7 0 20 0 17 -15zM503 21c-3 -16 -7 -21 -24 -21h-169
c-8 0 -21 0 -18 16c1 7 4 9 10 13l125 93c38 28 68 57 74 92c7 44 -28 67 -69 67c-27 0 -54 -16 -65 -39c4 -3 6 -10 5 -16c-3 -14 -16 -22 -26 -22c-9 0 -22 5 -19 24c7 42 54 83 113 83c61 0 105 -37 95 -97c-7 -40 -35 -72 -71 -100c-25 -20 -80 -58 -113 -83h119
c3 14 4 23 21 23s15 -11 14 -20zM537 609c-1 -4 -8 -16 -11 -19l-424 -592c-7 -8 -13 -14 -22 -14c-13 0 -14 7 -11 22c1 4 8 11 9 14l426 593c7 8 16 14 25 14s9 -12 8 -18z" />
    <glyph glyph-name="threequarters" unicode="&#xbe;" 
d="M302 398c-7 -47 -58 -92 -121 -92c-61 0 -103 32 -95 75c2 16 13 22 23 22c12 0 19 -9 17 -20c-1 -4 -2 -8 -5 -12l-1 -2c-2 -7 16 -34 66 -34c44 0 78 31 84 64c4 27 -13 63 -65 63h-23c-8 0 -19 0 -16 15c1 7 5 13 15 14l28 2c54 4 70 45 72 60c4 23 -18 41 -52 41
c-8 0 -43 -1 -61 -20c0 0 3 -5 2 -13c-3 -13 -15 -20 -24 -20c-8 0 -19 5 -16 21c6 37 49 61 104 61c54 0 87 -32 80 -70c-4 -26 -23 -56 -56 -75c41 -19 49 -54 44 -80zM506 99c-3 -15 -16 -15 -23 -15h-38l-9 -55h30c7 0 20 0 18 -14c-3 -15 -16 -15 -23 -15h-88
c-7 0 -20 0 -17 15c2 14 15 14 22 14h30l9 55h-122c-14 0 -20 2 -17 20c2 9 2 10 7 16l145 183c7 9 9 10 21 10h12c17 0 20 -4 17 -21l-30 -179h38c7 0 20 0 18 -14zM422 113l29 175l-138 -175h109zM565 609c-1 -4 -8 -16 -11 -19l-424 -592c-7 -8 -13 -14 -22 -14
c-13 0 -14 7 -11 22c1 4 8 11 9 14l426 593c7 8 16 14 25 14s9 -12 8 -18z" />
    <glyph glyph-name="questiondown" unicode="&#xbf;" 
d="M345 340c-4 -23 -25 -41 -49 -41c-23 0 -38 18 -34 41s25 41 48 41c24 0 39 -18 35 -41zM438 -120c-19 -116 -198 -116 -229 -116c-173 0 -167 95 -163 118c9 53 54 81 72 93c99 60 115 132 121 167l3 17c4 28 13 32 36 32c31 0 29 -11 24 -43c-7 -40 -21 -124 -159 -208
c-17 -9 -41 -25 -47 -58c-12 -72 98 -75 121 -75c17 0 107 1 158 45c-10 13 -9 22 -8 30c4 23 24 36 41 36s34 -12 30 -38z" />
    <glyph glyph-name="Agrave" unicode="&#xc0;" 
d="M499 21c-4 -21 -26 -21 -39 -21h-105c-14 0 -33 0 -29 21c3 21 21 21 63 21l-6 129h-184l-50 -129c42 0 60 0 57 -21c-4 -21 -23 -21 -37 -21h-106c-12 0 -34 0 -30 21c1 9 6 16 15 20c6 1 27 1 48 1l219 550c13 31 27 31 51 31c26 0 38 0 41 -32l35 -549
c21 0 41 0 47 -1c9 -4 11 -11 10 -20zM379 213l-16 368h-7l-139 -368h162zM478 704c-1 -6 -9 -31 -29 -31c0 0 -5 1 -7 2l-133 64c-18 8 -20 18 -19 26c3 15 16 26 31 26c0 0 6 0 14 -4l128 -62c9 -5 17 -9 15 -21z" />
    <glyph glyph-name="Aacute" unicode="&#xc1;" 
d="M499 21c-4 -21 -26 -21 -39 -21h-105c-14 0 -33 0 -29 21c3 21 21 21 63 21l-6 129h-184l-50 -129c42 0 60 0 57 -21c-4 -21 -23 -21 -37 -21h-106c-12 0 -34 0 -30 21c1 9 6 16 15 20c6 1 27 1 48 1l219 550c13 31 27 31 51 31c26 0 38 0 41 -32l35 -549
c21 0 41 0 47 -1c9 -4 11 -11 10 -20zM379 213l-16 368h-7l-139 -368h162zM489 765c-1 -8 -7 -18 -27 -26l-155 -64c-2 -1 -7 -2 -7 -2c-20 0 -20 25 -19 31c2 12 12 16 23 21l148 62c10 4 16 4 16 4c15 0 24 -11 21 -26z" />
    <glyph glyph-name="Acircumflex" unicode="&#xc2;" 
d="M499 21c-4 -21 -26 -21 -39 -21h-105c-14 0 -33 0 -29 21c3 21 21 21 63 21l-6 129h-184l-50 -129c42 0 60 0 57 -21c-4 -21 -23 -21 -37 -21h-106c-12 0 -34 0 -30 21c1 9 6 16 15 20c6 1 27 1 48 1l219 550c13 31 27 31 51 31c26 0 38 0 41 -32l35 -549
c21 0 41 0 47 -1c9 -4 11 -11 10 -20zM379 213l-16 368h-7l-139 -368h162zM519 685c-2 -12 -11 -22 -28 -22c-6 0 -19 4 -28 7l-84 30l-94 -30c-11 -3 -26 -7 -32 -7c-17 0 -22 10 -20 22c1 8 12 17 26 22l115 40c10 3 18 3 26 0l101 -40c12 -5 19 -14 18 -22z" />
    <glyph glyph-name="Atilde" unicode="&#xc3;" 
d="M499 21c-4 -21 -26 -21 -39 -21h-105c-14 0 -33 0 -29 21c3 21 21 21 63 21l-6 129h-184l-50 -129c42 0 60 0 57 -21c-4 -21 -23 -21 -37 -21h-106c-12 0 -34 0 -30 21c1 9 6 16 15 20c6 1 27 1 48 1l219 550c13 31 27 31 51 31c26 0 38 0 41 -32l35 -549
c21 0 41 0 47 -1c9 -4 11 -11 10 -20zM379 213l-16 368h-7l-139 -368h162zM558 743c-2 -13 -35 -35 -55 -48c-25 -17 -54 -32 -80 -32c-20 0 -33 8 -44 18c-27 29 -35 38 -48 38c-15 0 -48 -16 -87 -48c-6 -4 -12 -8 -20 -8c-11 0 -20 11 -18 22c2 14 35 35 55 49
c25 16 55 32 80 32c20 0 33 -9 44 -18c27 -29 35 -39 48 -39c15 0 48 17 87 48c6 5 12 9 20 9c11 0 20 -11 18 -23z" />
    <glyph glyph-name="Adieresis" unicode="&#xc4;" 
d="M499 21c-4 -21 -26 -21 -39 -21h-105c-14 0 -33 0 -29 21c3 21 21 21 63 21l-6 129h-184l-50 -129c42 0 60 0 57 -21c-4 -21 -23 -21 -37 -21h-106c-12 0 -34 0 -30 21c1 9 6 16 15 20c6 1 27 1 48 1l219 550c13 31 27 31 51 31c26 0 38 0 41 -32l35 -549
c21 0 41 0 47 -1c9 -4 11 -11 10 -20zM379 213l-16 368h-7l-139 -368h162zM314 699c-3 -20 -22 -36 -42 -36s-33 16 -30 36c4 21 22 36 42 36s34 -15 30 -36zM515 699c-3 -20 -22 -36 -42 -36s-33 16 -30 36c4 21 22 36 42 36s34 -15 30 -36z" />
    <glyph glyph-name="Aring" unicode="&#xc5;" 
d="M499 21c-4 -21 -26 -21 -39 -21h-105c-14 0 -33 0 -29 21c3 21 21 21 63 21l-6 129h-184l-50 -129c42 0 60 0 57 -21c-4 -21 -23 -21 -37 -21h-106c-12 0 -34 0 -30 21c1 9 6 16 15 20c6 1 27 1 48 1l219 550c13 31 27 31 51 31c26 0 38 0 41 -32l35 -549
c21 0 41 0 47 -1c9 -4 11 -11 10 -20zM379 213l-16 368h-7l-139 -368h162zM431 694c3 23 -19 36 -46 36s-55 -13 -58 -36c-4 -22 19 -34 46 -34s54 12 58 34zM481 694c-7 -38 -55 -71 -114 -71s-97 33 -90 71c6 39 55 73 114 73s96 -34 90 -73z" />
    <glyph glyph-name="AE" unicode="&#xc6;" 
d="M502 32c-4 -25 -11 -32 -36 -32h-201c-12 0 -32 0 -28 22c3 20 24 20 44 20l25 147h-133l-55 -147c30 0 50 0 47 -21c-4 -21 -24 -21 -35 -21h-74c-11 0 -31 0 -27 21c3 21 22 21 51 21l195 527c-25 0 -44 0 -41 21c4 21 24 21 35 21h290c27 0 30 -8 26 -32l-13 -76
c-2 -10 -5 -32 -23 -32c-19 0 -16 22 -14 32l11 66h-139l-39 -231h129c12 0 31 0 28 -22c-4 -20 -24 -20 -35 -20h-129l-42 -254h147l14 82c2 11 5 32 24 32s16 -21 14 -32zM313 232l56 337h-57l-124 -337h125z" />
    <glyph glyph-name="Ccedilla" unicode="&#xc7;" 
d="M508 163c-16 -100 -125 -161 -175 -168l-4 -24s101 -10 88 -91c-16 -95 -156 -95 -249 -95c-10 0 -21 6 -18 22c3 21 24 21 55 21c43 0 153 7 161 52c4 24 -18 49 -70 52c-23 1 -21 17 -18 33l4 23c-135 7 -218 139 -188 318c30 182 163 316 292 316c50 0 92 -19 128 -55
c24 35 26 39 28 43c5 5 12 12 22 12c21 0 17 -20 15 -32l-23 -143c-3 -16 -6 -32 -32 -32c-21 0 -21 12 -22 25c0 90 -53 140 -119 140c-96 0 -212 -113 -239 -274c-27 -162 50 -275 148 -275c45 0 141 27 166 136c5 20 22 20 28 20c8 0 26 0 22 -24z" />
    <glyph glyph-name="Egrave" unicode="&#xc8;" 
d="M505 32c-4 -25 -11 -32 -36 -32h-409c-11 0 -32 0 -28 21c3 21 23 21 35 21h42l88 527h-42c-11 0 -32 0 -29 21c4 21 25 21 36 21h386c26 0 30 -8 26 -32l-13 -76c-3 -15 -5 -32 -31 -32c-25 0 -22 18 -20 32l11 66h-274l-39 -231h157c8 44 10 59 35 59s22 -18 20 -32
l-16 -96c-3 -15 -5 -32 -30 -32s-23 15 -16 59h-157l-42 -254h297l14 82c2 15 5 32 31 32c25 0 22 -17 20 -32zM478 704c-1 -6 -9 -31 -29 -31c0 0 -5 1 -7 2l-133 64c-18 8 -20 18 -19 26c3 15 16 26 31 26c0 0 6 0 14 -4l128 -62c9 -5 17 -9 15 -21z" />
    <glyph glyph-name="Eacute" unicode="&#xc9;" 
d="M505 32c-4 -25 -11 -32 -36 -32h-409c-11 0 -32 0 -28 21c3 21 23 21 35 21h42l88 527h-42c-11 0 -32 0 -29 21c4 21 25 21 36 21h386c26 0 30 -8 26 -32l-13 -76c-3 -15 -5 -32 -31 -32c-25 0 -22 18 -20 32l11 66h-274l-39 -231h157c8 44 10 59 35 59s22 -18 20 -32
l-16 -96c-3 -15 -5 -32 -30 -32s-23 15 -16 59h-157l-42 -254h297l14 82c2 15 5 32 31 32c25 0 22 -17 20 -32zM489 765c-1 -8 -7 -18 -27 -26l-155 -64c-2 -1 -7 -2 -7 -2c-20 0 -20 25 -19 31c2 12 12 16 23 21l148 62c10 4 16 4 16 4c15 0 24 -11 21 -26z" />
    <glyph glyph-name="Ecircumflex" unicode="&#xca;" 
d="M505 32c-4 -25 -11 -32 -36 -32h-409c-11 0 -32 0 -28 21c3 21 23 21 35 21h42l88 527h-42c-11 0 -32 0 -29 21c4 21 25 21 36 21h386c26 0 30 -8 26 -32l-13 -76c-3 -15 -5 -32 -31 -32c-25 0 -22 18 -20 32l11 66h-274l-39 -231h157c8 44 10 59 35 59s22 -18 20 -32
l-16 -96c-3 -15 -5 -32 -30 -32s-23 15 -16 59h-157l-42 -254h297l14 82c2 15 5 32 31 32c25 0 22 -17 20 -32zM519 685c-2 -12 -11 -22 -28 -22c-6 0 -19 4 -28 7l-84 30l-94 -30c-11 -3 -26 -7 -32 -7c-17 0 -22 10 -20 22c1 8 12 17 26 22l115 40c10 3 18 3 26 0l101 -40
c12 -5 19 -14 18 -22z" />
    <glyph glyph-name="Edieresis" unicode="&#xcb;" 
d="M505 32c-4 -25 -11 -32 -36 -32h-409c-11 0 -32 0 -28 21c3 21 23 21 35 21h42l88 527h-42c-11 0 -32 0 -29 21c4 21 25 21 36 21h386c26 0 30 -8 26 -32l-13 -76c-3 -15 -5 -32 -31 -32c-25 0 -22 18 -20 32l11 66h-274l-39 -231h157c8 44 10 59 35 59s22 -18 20 -32
l-16 -96c-3 -15 -5 -32 -30 -32s-23 15 -16 59h-157l-42 -254h297l14 82c2 15 5 32 31 32c25 0 22 -17 20 -32zM314 699c-3 -20 -22 -36 -42 -36s-33 16 -30 36c4 21 22 36 42 36s34 -15 30 -36zM515 699c-3 -20 -22 -36 -42 -36s-33 16 -30 36c4 21 22 36 42 36
s34 -15 30 -36z" />
    <glyph glyph-name="Igrave" unicode="&#xcc;" 
d="M446 21c-4 -21 -25 -21 -36 -21h-295c-11 0 -32 0 -28 22c3 20 24 20 35 20h122l88 527h-122c-11 0 -32 0 -29 21c4 21 25 21 36 21h295c11 0 32 0 28 -22c-3 -20 -24 -20 -35 -20h-122l-88 -527h122c11 0 32 0 29 -21zM478 704c-1 -6 -9 -31 -29 -31c0 0 -5 1 -7 2
l-133 64c-18 8 -20 18 -19 26c3 15 16 26 31 26c0 0 6 0 14 -4l128 -62c9 -5 17 -9 15 -21z" />
    <glyph glyph-name="Iacute" unicode="&#xcd;" 
d="M446 21c-4 -21 -25 -21 -36 -21h-295c-11 0 -32 0 -28 22c3 20 24 20 35 20h122l88 527h-122c-11 0 -32 0 -29 21c4 21 25 21 36 21h295c11 0 32 0 28 -22c-3 -20 -24 -20 -35 -20h-122l-88 -527h122c11 0 32 0 29 -21zM489 765c-1 -8 -7 -18 -27 -26l-155 -64
c-2 -1 -7 -2 -7 -2c-20 0 -20 25 -19 31c2 12 12 16 23 21l148 62c10 4 16 4 16 4c15 0 24 -11 21 -26z" />
    <glyph glyph-name="Icircumflex" unicode="&#xce;" 
d="M446 21c-4 -21 -25 -21 -36 -21h-295c-11 0 -32 0 -28 22c3 20 24 20 35 20h122l88 527h-122c-11 0 -32 0 -29 21c4 21 25 21 36 21h295c11 0 32 0 28 -22c-3 -20 -24 -20 -35 -20h-122l-88 -527h122c11 0 32 0 29 -21zM519 685c-2 -12 -11 -22 -28 -22c-6 0 -19 4 -28 7
l-84 30l-94 -30c-11 -3 -26 -7 -32 -7c-17 0 -22 10 -20 22c1 8 12 17 26 22l115 40c10 3 18 3 26 0l101 -40c12 -5 19 -14 18 -22z" />
    <glyph glyph-name="Idieresis" unicode="&#xcf;" 
d="M446 21c-4 -21 -25 -21 -36 -21h-295c-11 0 -32 0 -28 22c3 20 24 20 35 20h122l88 527h-122c-11 0 -32 0 -29 21c4 21 25 21 36 21h295c11 0 32 0 28 -22c-3 -20 -24 -20 -35 -20h-122l-88 -527h122c11 0 32 0 29 -21zM314 699c-3 -20 -22 -36 -42 -36s-33 16 -30 36
c4 21 22 36 42 36s34 -15 30 -36zM515 699c-3 -20 -22 -36 -42 -36s-33 16 -30 36c4 21 22 36 42 36s34 -15 30 -36z" />
    <glyph glyph-name="Eth" unicode="&#xd0;" 
d="M532 301c-26 -160 -136 -301 -266 -301h-213c-11 0 -32 0 -28 21c3 21 23 21 35 21h33l40 242h-39c-12 0 -20 9 -18 22c2 12 14 22 26 22h39l40 241h-33c-11 0 -32 0 -29 20c4 22 24 22 36 22h213c133 0 191 -151 164 -310zM482 301c21 125 -18 268 -141 268h-109
l-40 -241h71c12 0 20 -10 18 -22c-2 -13 -14 -22 -26 -22h-71l-40 -242h109c121 0 208 132 229 259z" />
    <glyph glyph-name="Ntilde" unicode="&#xd1;" 
d="M592 589c-3 -20 -23 -20 -34 -20h-37l-90 -537c-5 -30 -14 -32 -38 -32c-22 0 -38 1 -44 30l-110 539h-9l-88 -527h36c12 0 31 0 28 -21c-4 -21 -24 -21 -35 -21h-110c-12 0 -31 0 -27 22c3 20 23 20 34 20h37l88 527h-37c-12 0 -31 0 -28 21c4 21 24 21 35 21h71
c23 0 37 -2 43 -30l110 -539h9l88 527h-36c-11 0 -31 0 -28 20c4 22 23 22 35 22h110c12 0 31 0 27 -22zM558 743c-2 -13 -35 -35 -55 -48c-25 -17 -54 -32 -80 -32c-20 0 -33 8 -44 18c-27 29 -35 38 -48 38c-15 0 -48 -16 -87 -48c-6 -4 -12 -8 -20 -8
c-11 0 -20 11 -18 22c2 14 35 35 55 49c25 16 55 32 80 32c20 0 33 -9 44 -18c27 -29 35 -39 48 -39c15 0 48 17 87 48c6 5 12 9 20 9c11 0 20 -11 18 -23z" />
    <glyph glyph-name="Ograve" unicode="&#xd2;" 
d="M516 305c-48 -288 -73 -316 -256 -316c-184 0 -198 28 -150 316c48 289 72 317 256 317s198 -29 150 -317zM466 314c11 64 24 143 19 192c-6 62 -42 74 -126 74c-92 0 -129 -15 -154 -81c-20 -49 -32 -120 -43 -185c-9 -57 -24 -148 -20 -202c3 -56 26 -81 125 -81
c100 0 132 25 155 88c21 56 34 130 44 195zM478 704c-1 -6 -9 -31 -29 -31c0 0 -5 1 -7 2l-133 64c-18 8 -20 18 -19 26c3 15 16 26 31 26c0 0 6 0 14 -4l128 -62c9 -5 17 -9 15 -21z" />
    <glyph glyph-name="Oacute" unicode="&#xd3;" 
d="M516 305c-48 -288 -73 -316 -256 -316c-184 0 -198 28 -150 316c48 289 72 317 256 317s198 -29 150 -317zM466 314c11 64 24 143 19 192c-6 62 -42 74 -126 74c-92 0 -129 -15 -154 -81c-20 -49 -32 -120 -43 -185c-9 -57 -24 -148 -20 -202c3 -56 26 -81 125 -81
c100 0 132 25 155 88c21 56 34 130 44 195zM489 765c-1 -8 -7 -18 -27 -26l-155 -64c-2 -1 -7 -2 -7 -2c-20 0 -20 25 -19 31c2 12 12 16 23 21l148 62c10 4 16 4 16 4c15 0 24 -11 21 -26z" />
    <glyph glyph-name="Ocircumflex" unicode="&#xd4;" 
d="M516 305c-48 -288 -73 -316 -256 -316c-184 0 -198 28 -150 316c48 289 72 317 256 317s198 -29 150 -317zM466 314c11 64 24 143 19 192c-6 62 -42 74 -126 74c-92 0 -129 -15 -154 -81c-20 -49 -32 -120 -43 -185c-9 -57 -24 -148 -20 -202c3 -56 26 -81 125 -81
c100 0 132 25 155 88c21 56 34 130 44 195zM519 685c-2 -12 -11 -22 -28 -22c-6 0 -19 4 -28 7l-84 30l-94 -30c-11 -3 -26 -7 -32 -7c-17 0 -22 10 -20 22c1 8 12 17 26 22l115 40c10 3 18 3 26 0l101 -40c12 -5 19 -14 18 -22z" />
    <glyph glyph-name="Otilde" unicode="&#xd5;" 
d="M516 305c-48 -288 -73 -316 -256 -316c-184 0 -198 28 -150 316c48 289 72 317 256 317s198 -29 150 -317zM466 314c11 64 24 143 19 192c-6 62 -42 74 -126 74c-92 0 -129 -15 -154 -81c-20 -49 -32 -120 -43 -185c-9 -57 -24 -148 -20 -202c3 -56 26 -81 125 -81
c100 0 132 25 155 88c21 56 34 130 44 195zM558 743c-2 -13 -35 -35 -55 -48c-25 -17 -54 -32 -80 -32c-20 0 -33 8 -44 18c-27 29 -35 38 -48 38c-15 0 -48 -16 -87 -48c-6 -4 -12 -8 -20 -8c-11 0 -20 11 -18 22c2 14 35 35 55 49c25 16 55 32 80 32c20 0 33 -9 44 -18
c27 -29 35 -39 48 -39c15 0 48 17 87 48c6 5 12 9 20 9c11 0 20 -11 18 -23z" />
    <glyph glyph-name="Odieresis" unicode="&#xd6;" 
d="M516 305c-48 -288 -73 -316 -256 -316c-184 0 -198 28 -150 316c48 289 72 317 256 317s198 -29 150 -317zM466 314c11 64 24 143 19 192c-6 62 -42 74 -126 74c-92 0 -129 -15 -154 -81c-20 -49 -32 -120 -43 -185c-9 -57 -24 -148 -20 -202c3 -56 26 -81 125 -81
c100 0 132 25 155 88c21 56 34 130 44 195zM314 699c-3 -20 -22 -36 -42 -36s-33 16 -30 36c4 21 22 36 42 36s34 -15 30 -36zM515 699c-3 -20 -22 -36 -42 -36s-33 16 -30 36c4 21 22 36 42 36s34 -15 30 -36z" />
    <glyph glyph-name="multiply" unicode="&#xd7;" 
d="M444 149c-20 -17 -38 2 -44 8l-93 113l-130 -112c-8 -6 -31 -24 -44 -10c-16 18 6 40 14 48l130 110l-94 112c-5 7 -21 28 -1 45s38 -2 44 -8l93 -113l129 112c9 6 32 24 45 10c16 -18 -6 -40 -13 -47l-131 -111l94 -112c5 -7 21 -28 1 -45z" />
    <glyph glyph-name="Oslash" unicode="&#xd8;" 
d="M516 305c-48 -288 -73 -316 -256 -316c-24 0 -45 0 -80 2l-27 -55c-4 -10 -11 -24 -25 -24c-3 0 -22 2 -19 21c0 0 2 8 31 66c-53 26 -57 68 -52 144c3 49 14 116 22 162c48 289 72 317 256 317c23 0 45 0 79 -2l28 55c4 10 11 24 25 24c3 0 22 -2 19 -21
c0 0 -2 -8 -31 -67c68 -31 64 -101 30 -306zM478 306c36 214 14 233 -16 259l-259 -527c10 -3 17 -6 23 -6c11 -1 14 -1 41 -1c88 0 135 10 165 77c21 50 35 134 46 198zM423 573c-10 3 -17 6 -23 6c-11 1 -14 1 -41 1c-88 0 -135 -10 -165 -77c-21 -50 -35 -134 -46 -198
c-36 -214 -14 -233 16 -259z" />
    <glyph glyph-name="Ugrave" unicode="&#xd9;" 
d="M616 590c-3 -21 -23 -21 -35 -21h-41l-61 -368c-21 -121 -121 -212 -219 -212s-168 91 -147 212l61 368h-41c-12 0 -32 0 -29 21c4 21 24 21 36 21h133c11 0 32 0 28 -21c-3 -21 -24 -21 -35 -21h-41l-61 -363c-19 -119 44 -175 103 -175c58 0 142 56 161 175l61 363h-41
c-11 0 -32 0 -29 21c4 21 25 21 36 21h133c12 0 32 0 28 -21zM478 704c-1 -6 -9 -31 -29 -31c0 0 -5 1 -7 2l-133 64c-18 8 -20 18 -19 26c3 15 16 26 31 26c0 0 6 0 14 -4l128 -62c9 -5 17 -9 15 -21z" />
    <glyph glyph-name="Uacute" unicode="&#xda;" 
d="M616 590c-3 -21 -23 -21 -35 -21h-41l-61 -368c-21 -121 -121 -212 -219 -212s-168 91 -147 212l61 368h-41c-12 0 -32 0 -29 21c4 21 24 21 36 21h133c11 0 32 0 28 -21c-3 -21 -24 -21 -35 -21h-41l-61 -363c-19 -119 44 -175 103 -175c58 0 142 56 161 175l61 363h-41
c-11 0 -32 0 -29 21c4 21 25 21 36 21h133c12 0 32 0 28 -21zM489 765c-1 -8 -7 -18 -27 -26l-155 -64c-2 -1 -7 -2 -7 -2c-20 0 -20 25 -19 31c2 12 12 16 23 21l148 62c10 4 16 4 16 4c15 0 24 -11 21 -26z" />
    <glyph glyph-name="Ucircumflex" unicode="&#xdb;" 
d="M616 590c-3 -21 -23 -21 -35 -21h-41l-61 -368c-21 -121 -121 -212 -219 -212s-168 91 -147 212l61 368h-41c-12 0 -32 0 -29 21c4 21 24 21 36 21h133c11 0 32 0 28 -21c-3 -21 -24 -21 -35 -21h-41l-61 -363c-19 -119 44 -175 103 -175c58 0 142 56 161 175l61 363h-41
c-11 0 -32 0 -29 21c4 21 25 21 36 21h133c12 0 32 0 28 -21zM519 685c-2 -12 -11 -22 -28 -22c-6 0 -19 4 -28 7l-84 30l-94 -30c-11 -3 -26 -7 -32 -7c-17 0 -22 10 -20 22c1 8 12 17 26 22l115 40c10 3 18 3 26 0l101 -40c12 -5 19 -14 18 -22z" />
    <glyph glyph-name="Udieresis" unicode="&#xdc;" 
d="M616 590c-3 -21 -23 -21 -35 -21h-41l-61 -368c-21 -121 -121 -212 -219 -212s-168 91 -147 212l61 368h-41c-12 0 -32 0 -29 21c4 21 24 21 36 21h133c11 0 32 0 28 -21c-3 -21 -24 -21 -35 -21h-41l-61 -363c-19 -119 44 -175 103 -175c58 0 142 56 161 175l61 363h-41
c-11 0 -32 0 -29 21c4 21 25 21 36 21h133c12 0 32 0 28 -21zM314 699c-3 -20 -22 -36 -42 -36s-33 16 -30 36c4 21 22 36 42 36s34 -15 30 -36zM515 699c-3 -20 -22 -36 -42 -36s-33 16 -30 36c4 21 22 36 42 36s34 -15 30 -36z" />
    <glyph glyph-name="Yacute" unicode="&#xdd;" 
d="M601 589c-3 -20 -23 -20 -34 -20h-28l-210 -325l-34 -202h36c12 0 31 0 28 -21c-4 -21 -24 -21 -35 -21h-123c-12 0 -31 0 -27 22c3 20 23 20 34 20h36l34 202l-103 325h-28c-12 0 -31 0 -28 21c4 21 24 21 35 21h108c11 0 31 0 27 -21c-3 -21 -22 -21 -57 -21l79 -280
l170 280c-34 0 -53 0 -50 21c4 21 24 21 35 21h108c12 0 31 0 27 -22zM489 765c-1 -8 -7 -18 -27 -26l-155 -64c-2 -1 -7 -2 -7 -2c-20 0 -20 25 -19 31c2 12 12 16 23 21l148 62c10 4 16 4 16 4c15 0 24 -11 21 -26z" />
    <glyph glyph-name="Thorn" unicode="&#xde;" 
d="M518 306c-15 -91 -102 -179 -215 -179h-140l-14 -85h36c12 0 31 0 28 -21c-4 -21 -24 -21 -35 -21h-123c-11 0 -31 0 -27 21c3 21 22 21 34 21h36l88 527h-36c-11 0 -31 0 -28 20c4 22 23 22 35 22h123c12 0 31 0 27 -22c-3 -20 -23 -20 -34 -20h-36l-14 -84h140
c112 0 170 -88 155 -179zM467 306c10 59 -24 136 -131 136h-120l-46 -272h120c107 0 167 77 177 136z" />
    <glyph glyph-name="germandbls" unicode="&#xdf;" 
d="M522 171c-18 -108 -119 -177 -209 -177c-63 0 -89 33 -84 67c4 21 21 33 38 33c10 0 18 -5 22 -12c4 -8 4 -11 -1 -38c12 -6 23 -8 32 -8c59 0 136 48 151 135c9 59 1 202 -143 211c-3 1 -15 6 -13 21c3 16 14 21 23 22c114 3 156 64 160 89c4 27 -42 61 -113 61
c-28 0 -57 -5 -84 -16c-44 -18 -46 -34 -51 -59l-78 -468c-4 -25 -10 -32 -36 -32h-86c-11 0 -31 0 -27 21c3 21 22 21 34 21h66l57 341h-66c-11 0 -31 0 -28 20c4 22 23 22 35 22h66l14 83c15 90 130 109 192 109c93 0 166 -39 156 -102c-5 -29 -27 -72 -115 -116
c98 -77 96 -180 88 -228z" />
    <glyph glyph-name="agrave" unicode="&#xe0;" 
d="M517 22c-4 -22 -24 -22 -46 -22c-36 0 -83 0 -103 37c-61 -36 -124 -43 -160 -43c-99 0 -151 61 -140 128c16 95 149 141 334 144c15 90 -36 126 -121 126c-31 0 -69 -4 -72 -23c-6 -30 -31 -37 -43 -37c-19 0 -33 13 -29 37c10 65 109 65 150 65c140 0 181 -80 169 -150
l-38 -230c15 -6 29 -12 70 -12c12 0 32 0 29 -20zM379 128l17 98c-169 -5 -268 -51 -277 -104c-7 -45 32 -86 103 -86c8 0 57 0 99 19c50 21 54 46 58 73zM450 536c-1 -7 -9 -31 -29 -31c0 0 -5 0 -7 1l-133 64c-18 8 -20 18 -18 27c2 14 15 25 30 25c0 0 6 0 14 -4l128 -62
c9 -4 17 -8 15 -20z" />
    <glyph glyph-name="aacute" unicode="&#xe1;" 
d="M517 22c-4 -22 -24 -22 -46 -22c-36 0 -83 0 -103 37c-61 -36 -124 -43 -160 -43c-99 0 -151 61 -140 128c16 95 149 141 334 144c15 90 -36 126 -121 126c-31 0 -69 -4 -72 -23c-6 -30 -31 -37 -43 -37c-19 0 -33 13 -29 37c10 65 109 65 150 65c140 0 181 -80 169 -150
l-38 -230c15 -6 29 -12 70 -12c12 0 32 0 29 -20zM379 128l17 98c-169 -5 -268 -51 -277 -104c-7 -45 32 -86 103 -86c8 0 57 0 99 19c50 21 54 46 58 73zM462 597c-2 -9 -8 -19 -28 -27l-155 -64c-2 -1 -7 -1 -7 -1c-20 0 -20 24 -19 31c2 12 12 16 23 20l148 62
c10 4 16 4 16 4c15 0 24 -11 22 -25z" />
    <glyph glyph-name="acircumflex" unicode="&#xe2;" 
d="M517 22c-4 -22 -24 -22 -46 -22c-36 0 -83 0 -103 37c-61 -36 -124 -43 -160 -43c-99 0 -151 61 -140 128c16 95 149 141 334 144c15 90 -36 126 -121 126c-31 0 -69 -4 -72 -23c-6 -30 -31 -37 -43 -37c-19 0 -33 13 -29 37c10 65 109 65 150 65c140 0 181 -80 169 -150
l-38 -230c15 -6 29 -12 70 -12c12 0 32 0 29 -20zM379 128l17 98c-169 -5 -268 -51 -277 -104c-7 -45 32 -86 103 -86c8 0 57 0 99 19c50 21 54 46 58 73zM494 528c-2 -12 -11 -22 -28 -22c-6 0 -18 9 -27 15l-80 54l-98 -54c-11 -6 -27 -15 -33 -15c-17 0 -22 10 -20 22
c1 8 14 15 26 22l114 66c12 7 24 7 34 0l94 -66c10 -7 19 -14 18 -22z" />
    <glyph glyph-name="atilde" unicode="&#xe3;" 
d="M517 22c-4 -22 -24 -22 -46 -22c-36 0 -83 0 -103 37c-61 -36 -124 -43 -160 -43c-99 0 -151 61 -140 128c16 95 149 141 334 144c15 90 -36 126 -121 126c-31 0 -69 -4 -72 -23c-6 -30 -31 -37 -43 -37c-19 0 -33 13 -29 37c10 65 109 65 150 65c140 0 181 -80 169 -150
l-38 -230c15 -6 29 -12 70 -12c12 0 32 0 29 -20zM379 128l17 98c-169 -5 -268 -51 -277 -104c-7 -45 32 -86 103 -86c8 0 57 0 99 19c50 21 54 46 58 73zM533 592c-2 -13 -35 -35 -55 -48c-25 -16 -54 -32 -80 -32c-20 0 -33 8 -44 18c-27 29 -35 39 -48 39
c-15 0 -48 -17 -87 -49c-6 -4 -12 -8 -20 -8c-11 0 -20 11 -18 22c2 14 35 35 55 49c25 16 55 32 80 32c20 0 33 -9 44 -18c27 -29 35 -39 48 -39c15 0 48 17 87 48c6 5 12 9 20 9c11 0 20 -11 18 -23z" />
    <glyph glyph-name="adieresis" unicode="&#xe4;" 
d="M517 22c-4 -22 -24 -22 -46 -22c-36 0 -83 0 -103 37c-61 -36 -124 -43 -160 -43c-99 0 -151 61 -140 128c16 95 149 141 334 144c15 90 -36 126 -121 126c-31 0 -69 -4 -72 -23c-6 -30 -31 -37 -43 -37c-19 0 -33 13 -29 37c10 65 109 65 150 65c140 0 181 -80 169 -150
l-38 -230c15 -6 29 -12 70 -12c12 0 32 0 29 -20zM379 128l17 98c-169 -5 -268 -51 -277 -104c-7 -45 32 -86 103 -86c8 0 57 0 99 19c50 21 54 46 58 73zM307 563c-3 -20 -22 -36 -42 -36s-33 16 -30 36c3 21 22 37 42 37s33 -16 30 -37zM478 563c-3 -20 -22 -36 -42 -36
s-33 16 -30 36c3 21 22 37 42 37s33 -16 30 -37z" />
    <glyph glyph-name="aring" unicode="&#xe5;" 
d="M517 22c-4 -22 -24 -22 -46 -22c-36 0 -83 0 -103 37c-61 -36 -124 -43 -160 -43c-99 0 -151 61 -140 128c16 95 149 141 334 144c15 90 -36 126 -121 126c-31 0 -69 -4 -72 -23c-6 -30 -31 -37 -43 -37c-19 0 -33 13 -29 37c10 65 109 65 150 65c140 0 181 -80 169 -150
l-38 -230c15 -6 29 -12 70 -12c12 0 32 0 29 -20zM379 128l17 98c-169 -5 -268 -51 -277 -104c-7 -45 32 -86 103 -86c8 0 57 0 99 19c50 21 54 46 58 73zM409 563c4 23 -19 36 -46 36s-54 -13 -58 -36c-4 -22 19 -34 46 -34s54 12 58 34zM459 563c-6 -38 -55 -71 -114 -71
s-96 33 -90 71c6 39 55 73 114 73s96 -34 90 -73z" />
    <glyph glyph-name="ae" unicode="&#xe6;" 
d="M519 102c-3 -19 -46 -108 -127 -108c-61 0 -91 57 -104 80c-43 -56 -98 -80 -146 -80c-68 0 -97 62 -87 118c13 81 108 123 227 124l8 44c12 73 -18 112 -75 112c-18 0 -38 -9 -39 -15c-1 -3 0 -6 -1 -9c-7 -33 -35 -36 -41 -36c-19 0 -33 13 -29 37c5 31 35 65 120 65
c52 0 83 -28 105 -85c49 66 92 85 125 85c70 0 107 -74 86 -203c-5 -25 -9 -34 -37 -34h-189c-8 -106 40 -161 89 -161c27 0 57 20 77 67c3 4 10 18 22 18c11 0 18 -9 16 -19zM504 239c14 119 -22 153 -56 153c-48 0 -105 -70 -126 -153h182zM277 196
c-101 -4 -177 -35 -185 -83c-6 -36 14 -77 63 -77c8 0 40 2 71 24c30 21 34 46 37 68c5 30 8 45 14 68z" />
    <glyph glyph-name="ccedilla" unicode="&#xe7;" 
d="M480 102c-22 -68 -110 -101 -147 -105l-4 -25s101 -13 88 -92c-16 -95 -156 -95 -249 -95c-10 0 -21 6 -18 22c3 21 24 21 55 21c43 0 153 7 161 52c4 24 -18 49 -70 52c-23 1 -21 17 -18 33l5 29c-122 11 -189 106 -170 219c14 87 95 221 265 221c43 0 144 0 134 -65
c-4 -23 -24 -37 -43 -37c-20 0 -32 12 -28 40c2 11 -44 20 -70 20c-148 0 -199 -126 -207 -179c-17 -100 49 -177 142 -177c81 0 114 54 129 77c6 7 12 8 22 8c4 0 29 0 23 -19z" />
    <glyph glyph-name="egrave" unicode="&#xe8;" 
d="M477 102c-4 -24 -65 -108 -192 -108c-128 0 -211 99 -191 220s131 220 248 220c128 0 174 -97 156 -209c-5 -28 -19 -28 -36 -28h-320c2 -106 75 -161 157 -161c32 0 94 11 132 74c6 10 12 11 24 11c4 0 25 0 22 -19zM449 239c10 126 -56 153 -114 153
c-77 0 -152 -60 -185 -153h299zM450 536c-1 -7 -9 -31 -29 -31c0 0 -5 0 -7 1l-133 64c-18 8 -20 18 -18 27c2 14 15 25 30 25c0 0 6 0 14 -4l128 -62c9 -4 17 -8 15 -20z" />
    <glyph glyph-name="eacute" unicode="&#xe9;" 
d="M477 102c-4 -24 -65 -108 -192 -108c-128 0 -211 99 -191 220s131 220 248 220c128 0 174 -97 156 -209c-5 -28 -19 -28 -36 -28h-320c2 -106 75 -161 157 -161c32 0 94 11 132 74c6 10 12 11 24 11c4 0 25 0 22 -19zM449 239c10 126 -56 153 -114 153
c-77 0 -152 -60 -185 -153h299zM462 597c-2 -9 -8 -19 -28 -27l-155 -64c-2 -1 -7 -1 -7 -1c-20 0 -20 24 -19 31c2 12 12 16 23 20l148 62c10 4 16 4 16 4c15 0 24 -11 22 -25z" />
    <glyph glyph-name="ecircumflex" unicode="&#xea;" 
d="M477 102c-4 -24 -65 -108 -192 -108c-128 0 -211 99 -191 220s131 220 248 220c128 0 174 -97 156 -209c-5 -28 -19 -28 -36 -28h-320c2 -106 75 -161 157 -161c32 0 94 11 132 74c6 10 12 11 24 11c4 0 25 0 22 -19zM449 239c10 126 -56 153 -114 153
c-77 0 -152 -60 -185 -153h299zM494 528c-2 -12 -11 -22 -28 -22c-6 0 -18 9 -27 15l-80 54l-98 -54c-11 -6 -27 -15 -33 -15c-17 0 -22 10 -20 22c1 8 14 15 26 22l114 66c12 7 24 7 34 0l94 -66c10 -7 19 -14 18 -22z" />
    <glyph glyph-name="edieresis" unicode="&#xeb;" 
d="M477 102c-4 -24 -65 -108 -192 -108c-128 0 -211 99 -191 220s131 220 248 220c128 0 174 -97 156 -209c-5 -28 -19 -28 -36 -28h-320c2 -106 75 -161 157 -161c32 0 94 11 132 74c6 10 12 11 24 11c4 0 25 0 22 -19zM449 239c10 126 -56 153 -114 153
c-77 0 -152 -60 -185 -153h299zM307 563c-3 -20 -22 -36 -42 -36s-33 16 -30 36c3 21 22 37 42 37s33 -16 30 -37zM478 563c-3 -20 -22 -36 -42 -36s-33 16 -30 36c3 21 22 37 42 37s33 -16 30 -37z" />
    <glyph glyph-name="igrave" unicode="&#xec;" 
d="M455 21c-4 -21 -25 -21 -36 -21h-305c-11 0 -32 0 -28 21c3 21 23 21 35 21h136l57 341h-128c-11 0 -32 0 -29 21c4 21 25 21 36 21h147c27 0 30 -8 26 -32l-59 -351h119c11 0 32 0 29 -21zM450 536c-1 -7 -9 -31 -29 -31c0 0 -5 0 -7 1l-133 64c-18 8 -20 18 -18 27
c2 14 15 25 30 25c0 0 6 0 14 -4l128 -62c9 -4 17 -8 15 -20z" />
    <glyph glyph-name="iacute" unicode="&#xed;" 
d="M455 21c-4 -21 -25 -21 -36 -21h-305c-11 0 -32 0 -28 21c3 21 23 21 35 21h136l57 341h-128c-11 0 -32 0 -29 21c4 21 25 21 36 21h147c27 0 30 -8 26 -32l-59 -351h119c11 0 32 0 29 -21zM462 597c-2 -9 -8 -19 -28 -27l-155 -64c-2 -1 -7 -1 -7 -1
c-20 0 -20 24 -19 31c2 12 12 16 23 20l148 62c10 4 16 4 16 4c15 0 24 -11 22 -25z" />
    <glyph glyph-name="icircumflex" unicode="&#xee;" 
d="M455 21c-4 -21 -25 -21 -36 -21h-305c-11 0 -32 0 -28 21c3 21 23 21 35 21h136l57 341h-128c-11 0 -32 0 -29 21c4 21 25 21 36 21h147c27 0 30 -8 26 -32l-59 -351h119c11 0 32 0 29 -21zM494 528c-2 -12 -11 -22 -28 -22c-6 0 -18 9 -27 15l-80 54l-98 -54
c-11 -6 -27 -15 -33 -15c-17 0 -22 10 -20 22c1 8 14 15 26 22l114 66c12 7 24 7 34 0l94 -66c10 -7 19 -14 18 -22z" />
    <glyph glyph-name="idieresis" unicode="&#xef;" 
d="M455 21c-4 -21 -25 -21 -36 -21h-305c-11 0 -32 0 -28 21c3 21 23 21 35 21h136l57 341h-128c-11 0 -32 0 -29 21c4 21 25 21 36 21h147c27 0 30 -8 26 -32l-59 -351h119c11 0 32 0 29 -21zM307 563c-3 -20 -22 -36 -42 -36s-33 16 -30 36c3 21 22 37 42 37
s33 -16 30 -37zM478 563c-3 -20 -22 -36 -42 -36s-33 16 -30 36c3 21 22 37 42 37s33 -16 30 -37z" />
    <glyph glyph-name="eth" unicode="&#xf0;" 
d="M500 213c-10 -58 -41 -115 -87 -156c-44 -40 -98 -63 -152 -63c-108 0 -186 94 -165 219c20 123 128 221 238 221c40 0 74 -13 117 -48c-16 62 -54 113 -106 146l-84 -40c-5 -3 -10 -4 -15 -4c-12 0 -19 8 -18 18c2 10 10 18 19 23l53 25c-30 12 -64 17 -100 17
c-14 0 -24 9 -22 21c2 11 14 21 29 21c54 1 105 -11 148 -32l86 41c4 2 9 3 14 3c12 0 19 -8 17 -18c-1 -9 -9 -18 -19 -23l-57 -28c85 -62 133 -169 112 -293zM450 220c17 101 -44 172 -123 172c-78 0 -162 -71 -179 -172c-17 -102 38 -184 120 -184c81 0 165 82 182 184z
" />
    <glyph glyph-name="ntilde" unicode="&#xf1;" 
d="M514 21c-4 -21 -24 -21 -35 -21h-158c-11 0 -32 0 -28 21c3 21 23 21 35 21h51l41 245c12 70 -1 102 -63 102c-57 0 -147 -42 -166 -153l-32 -194h56c12 0 32 0 29 -21c-4 -21 -24 -21 -35 -21h-164c-11 0 -31 0 -27 21c3 21 23 21 35 21h56l57 341h-57
c-11 0 -31 0 -28 20c4 22 24 22 36 22h75c31 0 29 -13 20 -63c43 36 93 69 158 69c76 0 117 -42 101 -138l-42 -251h56c12 0 32 0 29 -21zM533 592c-2 -13 -35 -35 -55 -48c-25 -16 -54 -32 -80 -32c-20 0 -33 8 -44 18c-27 29 -35 39 -48 39c-15 0 -48 -17 -87 -49
c-6 -4 -12 -8 -20 -8c-11 0 -20 11 -18 22c2 14 35 35 55 49c25 16 55 32 80 32c20 0 33 -9 44 -18c27 -29 35 -39 48 -39c15 0 48 17 87 48c6 5 12 9 20 9c11 0 20 -11 18 -23z" />
    <glyph glyph-name="ograve" unicode="&#xf2;" 
d="M500 213c-21 -124 -131 -219 -239 -219s-186 94 -165 219c20 123 128 221 238 221s186 -98 166 -221zM450 220c17 101 -44 172 -123 172c-78 0 -162 -71 -179 -172c-17 -102 38 -184 120 -184c81 0 165 82 182 184zM450 536c-1 -7 -9 -31 -29 -31c0 0 -5 0 -7 1l-133 64
c-18 8 -20 18 -18 27c2 14 15 25 30 25c0 0 6 0 14 -4l128 -62c9 -4 17 -8 15 -20z" />
    <glyph glyph-name="oacute" unicode="&#xf3;" 
d="M500 213c-21 -124 -131 -219 -239 -219s-186 94 -165 219c20 123 128 221 238 221s186 -98 166 -221zM450 220c17 101 -44 172 -123 172c-78 0 -162 -71 -179 -172c-17 -102 38 -184 120 -184c81 0 165 82 182 184zM462 597c-2 -9 -8 -19 -28 -27l-155 -64
c-2 -1 -7 -1 -7 -1c-20 0 -20 24 -19 31c2 12 12 16 23 20l148 62c10 4 16 4 16 4c15 0 24 -11 22 -25z" />
    <glyph glyph-name="ocircumflex" unicode="&#xf4;" 
d="M500 213c-21 -124 -131 -219 -239 -219s-186 94 -165 219c20 123 128 221 238 221s186 -98 166 -221zM450 220c17 101 -44 172 -123 172c-78 0 -162 -71 -179 -172c-17 -102 38 -184 120 -184c81 0 165 82 182 184zM494 528c-2 -12 -11 -22 -28 -22c-6 0 -18 9 -27 15
l-80 54l-98 -54c-11 -6 -27 -15 -33 -15c-17 0 -22 10 -20 22c1 8 14 15 26 22l114 66c12 7 24 7 34 0l94 -66c10 -7 19 -14 18 -22z" />
    <glyph glyph-name="otilde" unicode="&#xf5;" 
d="M500 213c-21 -124 -131 -219 -239 -219s-186 94 -165 219c20 123 128 221 238 221s186 -98 166 -221zM450 220c17 101 -44 172 -123 172c-78 0 -162 -71 -179 -172c-17 -102 38 -184 120 -184c81 0 165 82 182 184zM533 592c-2 -13 -35 -35 -55 -48
c-25 -16 -54 -32 -80 -32c-20 0 -33 8 -44 18c-27 29 -35 39 -48 39c-15 0 -48 -17 -87 -49c-6 -4 -12 -8 -20 -8c-11 0 -20 11 -18 22c2 14 35 35 55 49c25 16 55 32 80 32c20 0 33 -9 44 -18c27 -29 35 -39 48 -39c15 0 48 17 87 48c6 5 12 9 20 9c11 0 20 -11 18 -23z
" />
    <glyph glyph-name="odieresis" unicode="&#xf6;" 
d="M500 213c-21 -124 -131 -219 -239 -219s-186 94 -165 219c20 123 128 221 238 221s186 -98 166 -221zM450 220c17 101 -44 172 -123 172c-78 0 -162 -71 -179 -172c-17 -102 38 -184 120 -184c81 0 165 82 182 184zM307 563c-3 -20 -22 -36 -42 -36s-33 16 -30 36
c3 21 22 37 42 37s33 -16 30 -37zM478 563c-3 -20 -22 -36 -42 -36s-33 16 -30 36c3 21 22 37 42 37s33 -16 30 -37z" />
    <glyph glyph-name="divide" unicode="&#xf7;" 
d="M534 306c-4 -26 -31 -26 -40 -26h-370c-9 0 -36 0 -32 26s35 26 46 26h358c11 0 42 0 38 -26zM403 524c-4 -27 -31 -54 -64 -54c-28 0 -50 23 -44 55c4 27 31 54 64 54c28 0 50 -23 44 -55zM330 86c-4 -27 -31 -54 -64 -54c-28 0 -50 23 -44 55c4 27 31 54 64 54
c28 0 50 -23 44 -55z" />
    <glyph glyph-name="oslash" unicode="&#xf8;" 
d="M570 549c0 0 -2 -7 -9 -17l-105 -141c46 -50 67 -112 56 -178c-21 -122 -135 -219 -251 -219c-18 0 -48 2 -87 20l-113 -151c-4 -4 -9 -8 -16 -8c-9 0 -22 7 -20 21c1 6 14 23 22 34l94 125c-56 56 -67 121 -57 178c20 120 131 221 250 221c39 0 66 -11 89 -21l106 142
c5 7 10 15 21 15c9 0 22 -7 20 -21zM475 213c6 39 0 93 -47 142l-227 -306c31 -11 38 -13 67 -13c97 0 190 78 207 177zM396 378c-32 12 -38 14 -69 14c-97 0 -190 -80 -206 -179c-7 -38 -3 -89 46 -143z" />
    <glyph glyph-name="ugrave" unicode="&#xf9;" 
d="M514 22c-4 -22 -24 -22 -36 -22h-75c-14 0 -31 0 -25 43c-58 -39 -101 -49 -141 -49c-70 0 -132 22 -117 114l46 275h-57c-11 0 -31 0 -28 20c4 22 24 22 36 22h75c27 0 30 -8 26 -32l-47 -279c-6 -38 -13 -78 79 -78c37 0 130 14 147 116l39 231h-57c-11 0 -31 0 -28 20
c4 22 24 22 36 22h75c27 0 30 -8 26 -32l-59 -351h57c11 0 31 0 28 -20zM450 536c-1 -7 -9 -31 -29 -31c0 0 -5 0 -7 1l-133 64c-18 8 -20 18 -18 27c2 14 15 25 30 25c0 0 6 0 14 -4l128 -62c9 -4 17 -8 15 -20z" />
    <glyph glyph-name="uacute" unicode="&#xfa;" 
d="M514 22c-4 -22 -24 -22 -36 -22h-75c-14 0 -31 0 -25 43c-58 -39 -101 -49 -141 -49c-70 0 -132 22 -117 114l46 275h-57c-11 0 -31 0 -28 20c4 22 24 22 36 22h75c27 0 30 -8 26 -32l-47 -279c-6 -38 -13 -78 79 -78c37 0 130 14 147 116l39 231h-57c-11 0 -31 0 -28 20
c4 22 24 22 36 22h75c27 0 30 -8 26 -32l-59 -351h57c11 0 31 0 28 -20zM462 597c-2 -9 -8 -19 -28 -27l-155 -64c-2 -1 -7 -1 -7 -1c-20 0 -20 24 -19 31c2 12 12 16 23 20l148 62c10 4 16 4 16 4c15 0 24 -11 22 -25z" />
    <glyph glyph-name="ucircumflex" unicode="&#xfb;" 
d="M514 22c-4 -22 -24 -22 -36 -22h-75c-14 0 -31 0 -25 43c-58 -39 -101 -49 -141 -49c-70 0 -132 22 -117 114l46 275h-57c-11 0 -31 0 -28 20c4 22 24 22 36 22h75c27 0 30 -8 26 -32l-47 -279c-6 -38 -13 -78 79 -78c37 0 130 14 147 116l39 231h-57c-11 0 -31 0 -28 20
c4 22 24 22 36 22h75c27 0 30 -8 26 -32l-59 -351h57c11 0 31 0 28 -20zM494 528c-2 -12 -11 -22 -28 -22c-6 0 -18 9 -27 15l-80 54l-98 -54c-11 -6 -27 -15 -33 -15c-17 0 -22 10 -20 22c1 8 14 15 26 22l114 66c12 7 24 7 34 0l94 -66c10 -7 19 -14 18 -22z" />
    <glyph glyph-name="udieresis" unicode="&#xfc;" 
d="M514 22c-4 -22 -24 -22 -36 -22h-75c-14 0 -31 0 -25 43c-58 -39 -101 -49 -141 -49c-70 0 -132 22 -117 114l46 275h-57c-11 0 -31 0 -28 20c4 22 24 22 36 22h75c27 0 30 -8 26 -32l-47 -279c-6 -38 -13 -78 79 -78c37 0 130 14 147 116l39 231h-57c-11 0 -31 0 -28 20
c4 22 24 22 36 22h75c27 0 30 -8 26 -32l-59 -351h57c11 0 31 0 28 -20zM307 563c-3 -20 -22 -36 -42 -36s-33 16 -30 36c3 21 22 37 42 37s33 -16 30 -37zM478 563c-3 -20 -22 -36 -42 -36s-33 16 -30 36c3 21 22 37 42 37s33 -16 30 -37z" />
    <glyph glyph-name="yacute" unicode="&#xfd;" 
d="M565 403c-3 -20 -23 -20 -34 -20h-38l-242 -478c-6 -11 -76 -141 -169 -141c-44 0 -69 37 -63 75c3 20 19 35 41 35c20 0 32 -14 28 -34c-2 -11 -9 -20 -9 -20s4 -13 10 -13c30 0 54 4 97 65c18 26 61 115 61 115c1 3 -89 396 -89 396h-35c-11 0 -31 0 -28 20
c4 22 23 22 35 22h121c12 0 31 0 27 -22c-3 -20 -23 -20 -34 -20h-41l74 -348l173 348h-40c-12 0 -31 0 -28 21c4 21 24 21 35 21h121c12 0 31 0 27 -22zM462 597c-2 -9 -8 -19 -28 -27l-155 -64c-2 -1 -7 -1 -7 -1c-20 0 -20 24 -19 31c2 12 12 16 23 20l148 62
c10 4 16 4 16 4c15 0 24 -11 22 -25z" />
    <glyph glyph-name="thorn" unicode="&#xfe;" 
d="M521 213c-21 -125 -132 -219 -239 -219c-31 0 -71 9 -120 68l-41 -249h56c12 0 32 0 28 -22c-3 -21 -23 -21 -34 -21h-164c-11 0 -31 0 -28 21c4 22 24 22 36 22h56l126 756h-57c-11 0 -31 0 -28 20c4 22 24 22 36 22h75c27 0 30 -8 26 -32l-36 -212c59 46 106 64 153 64
c104 0 175 -97 155 -218zM471 213c16 96 -36 176 -118 176c-71 0 -146 -60 -157 -126l-13 -76c-9 -53 15 -151 103 -151c77 0 167 71 185 177z" />
    <glyph glyph-name="ydieresis" unicode="&#xff;" 
d="M565 403c-3 -20 -23 -20 -34 -20h-38l-242 -478c-6 -11 -76 -141 -169 -141c-44 0 -69 37 -63 75c3 20 19 35 41 35c20 0 32 -14 28 -34c-2 -11 -9 -20 -9 -20s4 -13 10 -13c30 0 54 4 97 65c18 26 61 115 61 115c1 3 -89 396 -89 396h-35c-11 0 -31 0 -28 20
c4 22 23 22 35 22h121c12 0 31 0 27 -22c-3 -20 -23 -20 -34 -20h-41l74 -348l173 348h-40c-12 0 -31 0 -28 21c4 21 24 21 35 21h121c12 0 31 0 27 -22zM307 563c-3 -20 -22 -36 -42 -36s-33 16 -30 36c3 21 22 37 42 37s33 -16 30 -37zM478 563c-3 -20 -22 -36 -42 -36
s-33 16 -30 36c3 21 22 37 42 37s33 -16 30 -37z" />
    <glyph glyph-name="Amacron" unicode="&#x100;" 
d="M499 21c-4 -21 -26 -21 -39 -21h-105c-14 0 -33 0 -29 21c3 21 21 21 63 21l-6 129h-184l-50 -129c42 0 60 0 57 -21c-4 -21 -23 -21 -37 -21h-106c-12 0 -34 0 -30 21c1 9 6 16 15 20c6 1 27 1 48 1l219 550c13 31 27 31 51 31c26 0 38 0 41 -32l35 -549
c21 0 41 0 47 -1c9 -4 11 -11 10 -20zM379 213l-16 368h-7l-139 -368h162zM565 704c-3 -21 -22 -21 -34 -21h-307c-13 0 -32 0 -29 22c4 22 23 22 35 22h308c13 0 31 0 27 -23z" />
    <glyph glyph-name="amacron" unicode="&#x101;" 
d="M517 22c-4 -22 -24 -22 -46 -22c-36 0 -83 0 -103 37c-61 -36 -124 -43 -160 -43c-99 0 -151 61 -140 128c16 95 149 141 334 144c15 90 -36 126 -121 126c-31 0 -69 -4 -72 -23c-6 -30 -31 -37 -43 -37c-19 0 -33 13 -29 37c10 65 109 65 150 65c140 0 181 -80 169 -150
l-38 -230c15 -6 29 -12 70 -12c12 0 32 0 29 -20zM379 128l17 98c-169 -5 -268 -51 -277 -104c-7 -45 32 -86 103 -86c8 0 57 0 99 19c50 21 54 46 58 73zM542 563c-4 -21 -23 -21 -35 -21h-307c-13 0 -32 0 -28 22s23 22 35 22h308c13 0 31 0 27 -23z" />
    <glyph glyph-name="Abreve" unicode="&#x102;" 
d="M499 21c-4 -21 -26 -21 -39 -21h-105c-14 0 -33 0 -29 21c3 21 21 21 63 21l-6 129h-184l-50 -129c42 0 60 0 57 -21c-4 -21 -23 -21 -37 -21h-106c-12 0 -34 0 -30 21c1 9 6 16 15 20c6 1 27 1 48 1l219 550c13 31 27 31 51 31c26 0 38 0 41 -32l35 -549
c21 0 41 0 47 -1c9 -4 11 -11 10 -20zM379 213l-16 368h-7l-139 -368h162zM559 747c-12 -74 -120 -74 -184 -74s-172 0 -160 74c3 13 13 22 26 22c11 0 15 -5 16 -11c4 -34 77 -40 126 -40c48 0 124 6 138 40c3 6 9 11 20 11c14 0 21 -9 18 -22z" />
    <glyph glyph-name="abreve" unicode="&#x103;" 
d="M517 22c-4 -22 -24 -22 -46 -22c-36 0 -83 0 -103 37c-61 -36 -124 -43 -160 -43c-99 0 -151 61 -140 128c16 95 149 141 334 144c15 90 -36 126 -121 126c-31 0 -69 -4 -72 -23c-6 -30 -31 -37 -43 -37c-19 0 -33 13 -29 37c10 65 109 65 150 65c140 0 181 -80 169 -150
l-38 -230c15 -6 29 -12 70 -12c12 0 32 0 29 -20zM379 128l17 98c-169 -5 -268 -51 -277 -104c-7 -45 32 -86 103 -86c8 0 57 0 99 19c50 21 54 46 58 73zM533 590c-12 -74 -120 -74 -184 -74s-172 0 -160 74c3 14 13 22 26 22c11 0 15 -5 16 -11c4 -34 77 -40 126 -40
c48 0 124 6 138 40c3 6 9 11 20 11c14 0 21 -8 18 -22z" />
    <glyph glyph-name="Aogonek" unicode="&#x104;" 
d="M499 21c-4 -21 -26 -21 -39 -21h-22c-67 -36 -113 -76 -121 -124c-5 -31 25 -51 48 -51c24 0 55 23 71 42c5 4 18 8 24 3s5 -17 -1 -23c-28 -32 -68 -57 -104 -57c-58 0 -84 48 -77 88c7 45 35 79 109 122c-49 0 -65 0 -61 21c3 21 21 21 63 21l-6 129h-184l-50 -129
c42 0 60 0 57 -21c-4 -21 -23 -21 -37 -21h-106c-12 0 -34 0 -30 21c1 9 6 16 15 20c6 1 27 1 48 1l219 550c13 31 27 31 51 31c26 0 38 0 41 -32l35 -549c21 0 41 0 47 -1c9 -4 11 -11 10 -20zM379 213l-17 368h-7l-138 -368h162z" />
    <glyph glyph-name="aogonek" unicode="&#x105;" 
d="M487 -153c-28 -32 -68 -57 -105 -57c-58 0 -84 48 -77 88c7 45 51 88 113 124c-31 10 -40 17 -50 35c-61 -36 -124 -43 -160 -43c-99 0 -151 61 -140 128c16 95 149 141 334 144c15 90 -36 126 -121 126c-31 0 -69 -4 -72 -23c-6 -30 -31 -37 -43 -37
c-19 0 -33 13 -29 37c10 65 109 65 150 65c140 0 181 -80 169 -150l-38 -230c15 -6 29 -12 70 -12c12 0 32 0 29 -20c-4 -22 -24 -22 -49 -22c-67 -36 -115 -77 -123 -124c-5 -31 24 -51 48 -51c23 0 54 23 70 42c5 4 18 10 25 3c6 -6 4 -17 -1 -23zM379 128l17 98
c-169 -5 -268 -51 -277 -104c-7 -45 32 -86 103 -86c8 0 57 0 99 19c50 21 54 46 58 73z" />
    <glyph glyph-name="Cacute" unicode="&#x106;" 
d="M508 163c-14 -88 -114 -174 -227 -174c-130 0 -217 134 -187 317c30 182 163 316 292 316c50 0 92 -19 128 -55c24 35 26 39 28 43c5 5 12 12 22 12c21 0 17 -20 15 -32l-23 -143c-3 -16 -6 -32 -32 -32c-21 0 -21 12 -22 25c0 90 -53 140 -119 140
c-96 0 -212 -113 -239 -274c-27 -162 50 -275 148 -275c45 0 141 27 166 136c5 20 22 20 28 20c8 0 26 0 22 -24zM516 765c-1 -8 -7 -18 -27 -26l-155 -64c-2 -1 -7 -2 -7 -2c-20 0 -20 25 -19 31c2 12 12 16 23 21l148 62c10 4 16 4 16 4c15 0 24 -11 21 -26z" />
    <glyph glyph-name="cacute" unicode="&#x107;" 
d="M480 102c-3 -16 -53 -108 -187 -108c-124 0 -200 101 -180 219c14 87 95 221 265 221c43 0 143 -6 134 -65c-4 -23 -24 -37 -43 -37c-20 0 -33 12 -28 40c2 11 -44 20 -70 20c-148 0 -199 -126 -207 -179c-17 -100 49 -177 142 -177c81 0 114 54 129 77c6 7 12 8 22 8
c4 0 26 0 23 -19zM489 597c-2 -9 -8 -19 -28 -27l-155 -64c-2 -1 -7 -1 -7 -1c-20 0 -20 24 -19 31c2 12 12 16 23 20l148 62c10 4 16 4 16 4c15 0 24 -11 22 -25z" />
    <glyph glyph-name="Ccircumflex" unicode="&#x108;" 
d="M508 163c-14 -88 -114 -174 -227 -174c-130 0 -217 134 -187 317c30 182 163 316 292 316c50 0 92 -19 128 -55c24 35 26 39 28 43c5 5 12 12 22 12c21 0 17 -20 15 -32l-23 -143c-3 -16 -6 -32 -32 -32c-21 0 -21 12 -22 25c0 90 -53 140 -119 140
c-96 0 -212 -113 -239 -274c-27 -162 50 -275 148 -275c45 0 141 27 166 136c5 20 22 20 28 20c8 0 26 0 22 -24zM546 685c-2 -12 -11 -22 -28 -22c-6 0 -19 4 -28 7l-84 30l-94 -30c-11 -3 -26 -7 -32 -7c-17 0 -22 10 -20 22c1 8 12 17 26 22l115 40c10 3 18 3 26 0
l101 -40c12 -5 19 -14 18 -22z" />
    <glyph glyph-name="ccircumflex" unicode="&#x109;" 
d="M480 102c-3 -16 -53 -108 -187 -108c-124 0 -200 101 -180 219c14 87 95 221 265 221c43 0 143 -6 134 -65c-4 -23 -24 -37 -43 -37c-20 0 -33 12 -28 40c2 11 -44 20 -70 20c-148 0 -199 -126 -207 -179c-17 -100 49 -177 142 -177c81 0 114 54 129 77c6 7 12 8 22 8
c4 0 26 0 23 -19zM521 528c-2 -12 -11 -22 -28 -22c-6 0 -18 9 -27 15l-80 54l-98 -54c-11 -6 -27 -15 -33 -15c-17 0 -22 10 -20 22c1 8 14 15 26 22l114 66c12 7 24 7 34 0l94 -66c10 -7 19 -14 18 -22z" />
    <glyph glyph-name="Cdotaccent" unicode="&#x10a;" 
d="M508 163c-14 -88 -114 -174 -227 -174c-130 0 -217 134 -187 317c30 182 163 316 292 316c50 0 92 -19 128 -55c24 35 26 39 28 43c5 5 12 12 22 12c21 0 17 -20 15 -32l-23 -143c-3 -16 -6 -32 -32 -32c-21 0 -21 12 -22 25c0 90 -53 140 -119 140
c-96 0 -212 -113 -239 -274c-27 -162 50 -275 148 -275c45 0 141 27 166 136c5 20 22 20 28 20c8 0 26 0 22 -24zM449 715c-4 -23 -25 -41 -48 -41s-38 18 -34 41s25 42 48 42s38 -19 34 -42z" />
    <glyph glyph-name="cdotaccent" unicode="&#x10b;" 
d="M480 102c-3 -16 -53 -108 -187 -108c-124 0 -200 101 -180 219c14 87 95 221 265 221c43 0 143 -6 134 -65c-4 -23 -24 -37 -43 -37c-20 0 -33 12 -28 40c2 11 -44 20 -70 20c-148 0 -199 -126 -207 -179c-17 -100 49 -177 142 -177c81 0 114 54 129 77c6 7 12 8 22 8
c4 0 26 0 23 -19zM425 563c-4 -23 -25 -41 -48 -41s-38 18 -34 41c4 24 25 42 48 42s38 -18 34 -42z" />
    <glyph glyph-name="Ccaron" unicode="&#x10c;" 
d="M508 163c-14 -88 -114 -174 -227 -174c-130 0 -217 134 -187 317c30 182 163 316 292 316c50 0 92 -19 128 -55c24 35 26 39 28 43c5 5 12 12 22 12c21 0 17 -20 15 -32l-23 -143c-3 -16 -6 -32 -32 -32c-21 0 -21 12 -22 25c0 90 -53 140 -119 140
c-96 0 -212 -113 -239 -274c-27 -162 50 -275 148 -275c45 0 141 27 166 136c5 20 22 20 28 20c8 0 26 0 22 -24zM553 728c-1 -8 -12 -17 -25 -22l-116 -40c-10 -3 -18 -3 -26 0l-100 40c-13 5 -20 14 -19 22c2 12 11 22 28 22c6 0 19 -4 29 -7l84 -30l94 30c10 3 25 7 31 7
c17 0 22 -10 20 -22z" />
    <glyph glyph-name="ccaron" unicode="&#x10d;" 
d="M480 102c-3 -16 -53 -108 -187 -108c-124 0 -200 101 -180 219c14 87 95 221 265 221c43 0 143 -6 134 -65c-4 -23 -24 -37 -43 -37c-20 0 -33 12 -28 40c2 11 -44 20 -70 20c-148 0 -199 -126 -207 -179c-17 -100 49 -177 142 -177c81 0 114 54 129 77c6 7 12 8 22 8
c4 0 26 0 23 -19zM533 599c-1 -8 -14 -15 -26 -22l-114 -66c-12 -7 -24 -7 -34 0l-94 66c-10 7 -19 14 -18 22c2 12 11 22 28 22c6 0 18 -9 27 -15l80 -54l98 54c11 6 27 15 33 15c17 0 22 -10 20 -22z" />
    <glyph glyph-name="Dcaron" unicode="&#x10e;" 
d="M532 301c-26 -160 -136 -301 -266 -301h-213c-11 0 -32 0 -28 21c3 21 23 21 35 21h33l88 527h-33c-11 0 -32 0 -29 20c4 22 24 22 36 22h213c133 0 191 -151 164 -310zM482 301c21 125 -18 268 -141 268h-109l-88 -527h109c121 0 208 132 229 259zM463 728
c-1 -8 -12 -17 -25 -22l-116 -40c-10 -3 -18 -3 -26 0l-100 40c-13 5 -20 14 -19 22c2 12 11 22 28 22c6 0 19 -4 29 -7l84 -30l94 30c10 3 25 7 31 7c17 0 22 -10 20 -22z" />
    <glyph glyph-name="dcaron" unicode="&#x10f;" 
d="M514 22c-4 -22 -24 -22 -36 -22h-75c-31 0 -29 12 -20 67c-54 -47 -98 -73 -153 -73c-104 0 -176 96 -156 218c21 125 131 219 238 219c42 0 79 -16 122 -59l33 197h-57c-11 0 -31 0 -28 20c4 22 24 22 36 22h75c27 0 30 -8 26 -32l-90 -537h57c11 0 31 0 28 -20z
M404 190l12 74c10 62 -35 125 -107 125c-77 0 -167 -71 -185 -177c-16 -98 39 -176 117 -176c86 0 152 92 163 154zM661 544c-13 -77 -92 -117 -114 -117c-8 0 -13 8 -12 15c1 5 6 9 10 10c29 9 77 30 87 89c-8 -4 -17 -6 -28 -6c-20 0 -35 15 -31 39c3 20 21 37 45 37
c29 0 50 -26 43 -67z" />
    <glyph glyph-name="Dcroat" unicode="&#x110;" 
d="M532 301c-26 -160 -136 -301 -266 -301h-213c-11 0 -32 0 -28 21c3 21 23 21 35 21h33l40 242h-39c-12 0 -20 9 -18 22c2 12 14 22 26 22h39l40 241h-33c-11 0 -32 0 -29 20c4 22 24 22 36 22h213c133 0 191 -151 164 -310zM482 301c21 125 -18 268 -141 268h-109
l-40 -241h71c12 0 20 -10 18 -22c-2 -13 -14 -22 -26 -22h-71l-40 -242h109c121 0 208 132 229 259z" />
    <glyph glyph-name="dcroat" unicode="&#x111;" 
d="M514 22c-4 -22 -24 -22 -36 -22h-75c-31 0 -29 12 -20 67c-54 -47 -98 -73 -153 -73c-104 0 -176 96 -156 218c21 125 131 219 238 219c42 0 79 -16 122 -59l17 103h-164c-12 0 -19 9 -17 21s12 22 24 22h164l9 51h-57c-11 0 -31 0 -28 20c4 22 24 22 36 22h75
c27 0 30 -8 26 -32l-11 -61h62c12 0 21 -10 19 -22s-14 -21 -26 -21h-62l-72 -433h57c11 0 31 0 28 -20zM404 190l12 74c10 62 -35 125 -107 125c-77 0 -167 -71 -185 -177c-16 -98 39 -176 117 -176c86 0 152 92 163 154z" />
    <glyph glyph-name="Emacron" unicode="&#x112;" 
d="M505 32c-4 -25 -11 -32 -36 -32h-409c-11 0 -32 0 -28 21c3 21 23 21 35 21h42l88 527h-42c-11 0 -32 0 -29 21c4 21 25 21 36 21h386c26 0 30 -8 26 -32l-13 -76c-3 -15 -5 -32 -31 -32c-25 0 -22 18 -20 32l11 66h-274l-39 -231h157c8 44 10 59 35 59s22 -18 20 -32
l-16 -96c-3 -15 -5 -32 -30 -32s-23 15 -16 59h-157l-42 -254h297l14 82c2 15 5 32 31 32c25 0 22 -17 20 -32zM565 704c-3 -21 -22 -21 -34 -21h-307c-13 0 -32 0 -29 22c4 22 23 22 35 22h308c13 0 31 0 27 -23z" />
    <glyph glyph-name="emacron" unicode="&#x113;" 
d="M477 102c-4 -24 -65 -108 -192 -108c-128 0 -211 99 -191 220s131 220 248 220c128 0 174 -97 156 -209c-5 -28 -19 -28 -36 -28h-320c2 -106 75 -161 157 -161c32 0 94 11 132 74c6 10 12 11 24 11c4 0 25 0 22 -19zM449 239c10 126 -56 153 -114 153
c-77 0 -152 -60 -185 -153h299zM542 563c-4 -21 -23 -21 -35 -21h-307c-13 0 -32 0 -28 22s23 22 35 22h308c13 0 31 0 27 -23z" />
    <glyph glyph-name="Ebreve" unicode="&#x114;" 
d="M505 32c-4 -25 -11 -32 -36 -32h-409c-11 0 -32 0 -28 21c3 21 23 21 35 21h42l88 527h-42c-11 0 -32 0 -29 21c4 21 25 21 36 21h386c26 0 30 -8 26 -32l-13 -76c-3 -15 -5 -32 -31 -32c-25 0 -22 18 -20 32l11 66h-274l-39 -231h157c8 44 10 59 35 59s22 -18 20 -32
l-16 -96c-3 -15 -5 -32 -30 -32s-23 15 -16 59h-157l-42 -254h297l14 82c2 15 5 32 31 32c25 0 22 -17 20 -32zM559 747c-12 -74 -120 -74 -184 -74s-172 0 -160 74c3 13 13 22 26 22c11 0 15 -5 16 -11c4 -34 77 -40 126 -40c48 0 124 6 138 40c3 6 9 11 20 11
c14 0 21 -9 18 -22z" />
    <glyph glyph-name="ebreve" unicode="&#x115;" 
d="M477 102c-4 -24 -65 -108 -192 -108c-128 0 -211 99 -191 220s131 220 248 220c128 0 174 -97 156 -209c-5 -28 -19 -28 -36 -28h-320c2 -106 75 -161 157 -161c32 0 94 11 132 74c6 10 12 11 24 11c4 0 25 0 22 -19zM449 239c10 126 -56 153 -114 153
c-77 0 -152 -60 -185 -153h299zM533 590c-12 -74 -120 -74 -184 -74s-172 0 -160 74c3 14 13 22 26 22c11 0 15 -5 16 -11c4 -34 77 -40 126 -40c48 0 124 6 138 40c3 6 9 11 20 11c14 0 21 -8 18 -22z" />
    <glyph glyph-name="Edotaccent" unicode="&#x116;" 
d="M505 32c-4 -25 -11 -32 -36 -32h-409c-11 0 -32 0 -28 21c3 21 23 21 35 21h42l88 527h-42c-11 0 -32 0 -29 21c4 21 25 21 36 21h386c26 0 30 -8 26 -32l-13 -76c-3 -15 -5 -32 -31 -32c-25 0 -22 18 -20 32l11 66h-274l-39 -231h157c8 44 10 59 35 59s22 -18 20 -32
l-16 -96c-3 -15 -5 -32 -30 -32s-23 15 -16 59h-157l-42 -254h297l14 82c2 15 5 32 31 32c25 0 22 -17 20 -32zM423 715c-4 -23 -25 -41 -48 -41s-38 18 -34 41s25 42 48 42s38 -19 34 -42z" />
    <glyph glyph-name="edotaccent" unicode="&#x117;" 
d="M477 102c-4 -24 -65 -108 -192 -108c-128 0 -211 99 -191 220s131 220 248 220c128 0 174 -97 156 -209c-5 -28 -19 -28 -36 -28h-320c2 -106 75 -161 157 -161c32 0 94 11 132 74c6 10 12 11 24 11c4 0 25 0 22 -19zM449 239c10 126 -56 153 -114 153
c-77 0 -152 -60 -185 -153h299zM398 563c-4 -23 -25 -41 -48 -41s-38 18 -34 41c4 24 25 42 48 42s38 -18 34 -42z" />
    <glyph glyph-name="Eogonek" unicode="&#x118;" 
d="M505 32c-4 -25 -11 -32 -36 -32h-30c-67 -36 -114 -76 -122 -124c-5 -31 25 -51 48 -51c24 0 55 23 71 42c5 4 18 8 24 3s5 -17 -1 -23c-28 -32 -68 -57 -104 -57c-58 0 -84 48 -77 88c7 45 36 79 110 122h-328c-11 0 -32 0 -28 21c3 21 23 21 35 21h42l88 527h-42
c-11 0 -32 0 -29 21c4 21 25 21 36 21h386c26 0 30 -8 26 -32l-13 -76c-3 -15 -5 -32 -31 -32c-25 0 -22 18 -20 32l11 66h-274l-39 -231h157c8 44 10 59 35 59s22 -18 20 -32l-16 -96c-3 -15 -5 -32 -30 -32s-23 15 -16 59h-157l-42 -254h297l14 82c2 15 5 32 31 32
c25 0 22 -17 20 -32z" />
    <glyph glyph-name="eogonek" unicode="&#x119;" 
d="M477 102c-4 -30 -73 -77 -95 -89c-92 -50 -139 -90 -147 -137c-5 -31 25 -51 48 -51s54 23 70 42c5 4 18 10 25 3c6 -6 4 -17 -1 -23c-28 -32 -68 -57 -105 -57c-58 0 -84 48 -77 88c7 45 24 76 93 116c-146 13 -213 106 -194 220c20 121 131 220 248 220
c128 0 174 -97 156 -209c-5 -28 -19 -28 -36 -28h-320c2 -106 75 -161 157 -161c32 0 94 11 132 74c6 10 12 11 24 11c4 0 24 0 22 -19zM449 239c10 126 -56 153 -114 153c-77 0 -152 -60 -185 -153h299z" />
    <glyph glyph-name="Ecaron" unicode="&#x11a;" 
d="M505 32c-4 -25 -11 -32 -36 -32h-409c-11 0 -32 0 -28 21c3 21 23 21 35 21h42l88 527h-42c-11 0 -32 0 -29 21c4 21 25 21 36 21h386c26 0 30 -8 26 -32l-13 -76c-3 -15 -5 -32 -31 -32c-25 0 -22 18 -20 32l11 66h-274l-39 -231h157c8 44 10 59 35 59s22 -18 20 -32
l-16 -96c-3 -15 -5 -32 -30 -32s-23 15 -16 59h-157l-42 -254h297l14 82c2 15 5 32 31 32c25 0 22 -17 20 -32zM526 728c-1 -8 -12 -17 -25 -22l-116 -40c-10 -3 -18 -3 -26 0l-100 40c-13 5 -20 14 -19 22c2 12 11 22 28 22c6 0 19 -4 29 -7l84 -30l94 30c10 3 25 7 31 7
c17 0 22 -10 20 -22z" />
    <glyph glyph-name="ecaron" unicode="&#x11b;" 
d="M477 102c-4 -24 -65 -108 -192 -108c-128 0 -211 99 -191 220s131 220 248 220c128 0 174 -97 156 -209c-5 -28 -19 -28 -36 -28h-320c2 -106 75 -161 157 -161c32 0 94 11 132 74c6 10 12 11 24 11c4 0 25 0 22 -19zM449 239c10 126 -56 153 -114 153
c-77 0 -152 -60 -185 -153h299zM506 599c-1 -8 -14 -15 -26 -22l-114 -66c-12 -7 -24 -7 -34 0l-94 66c-10 7 -19 14 -18 22c2 12 11 22 28 22c6 0 18 -9 27 -15l80 -54l98 54c11 6 27 15 33 15c17 0 22 -10 20 -22z" />
    <glyph glyph-name="Gcircumflex" unicode="&#x11c;" 
d="M534 238c-4 -22 -24 -22 -53 -22l-31 -184c-2 -14 -5 -32 -30 -32c-26 0 -23 16 -16 61c-44 -43 -90 -72 -145 -72c-119 0 -197 134 -167 317c30 180 153 316 273 316c41 0 77 -14 116 -53c25 42 32 53 47 53c21 0 17 -20 15 -32l-23 -143c-3 -16 -6 -32 -32 -32
c-16 0 -21 6 -21 16c1 125 -66 149 -105 149c-84 0 -193 -110 -220 -275c-27 -159 39 -274 127 -274c59 0 124 50 160 185h-55c-11 0 -31 0 -27 22c3 20 23 20 34 20h124c11 0 32 0 29 -20zM519 685c-2 -12 -11 -22 -28 -22c-6 0 -19 4 -28 7l-84 30l-94 -30
c-11 -3 -26 -7 -32 -7c-17 0 -22 10 -20 22c1 8 12 17 26 22l115 40c10 3 18 3 26 0l101 -40c12 -5 19 -14 18 -22z" />
    <glyph glyph-name="gcircumflex" unicode="&#x11d;" 
d="M572 391c-4 -23 -23 -32 -36 -32c-8 0 -25 6 -26 36c-24 -2 -51 -7 -87 -25c16 -37 20 -65 15 -94c-14 -86 -97 -156 -186 -156c-48 0 -80 22 -93 31c-13 -23 -18 -40 -19 -45c0 0 -3 -26 8 -43c12 -18 19 -19 37 -19c9 -1 23 -2 31 -2h73c90 0 129 -21 140 -28
c44 -26 54 -74 48 -109c-14 -84 -129 -142 -255 -142s-221 57 -207 142c2 10 14 76 103 125c-12 21 -22 44 -16 78c5 28 17 49 35 70c-15 25 -26 56 -19 98c14 83 95 155 186 155c45 0 76 -18 95 -33c57 37 105 38 116 38c47 0 61 -25 57 -45zM388 276
c10 60 -29 114 -91 114c-59 0 -118 -50 -129 -115c-10 -60 29 -114 91 -114c59 0 118 50 129 115zM437 -95c16 94 -104 99 -202 99c-79 0 -89 -1 -119 -18c-41 -23 -57 -60 -61 -81c-8 -49 63 -100 174 -100c110 0 200 51 208 100zM458 528c-2 -12 -11 -22 -28 -22
c-6 0 -18 9 -27 15l-80 54l-98 -54c-11 -6 -27 -15 -33 -15c-17 0 -22 10 -20 22c1 8 14 15 26 22l114 66c12 7 24 7 34 0l94 -66c10 -7 19 -14 18 -22z" />
    <glyph glyph-name="Gbreve" unicode="&#x11e;" 
d="M534 238c-4 -22 -24 -22 -53 -22l-31 -184c-2 -14 -5 -32 -30 -32c-26 0 -23 16 -16 61c-44 -43 -90 -72 -145 -72c-119 0 -197 134 -167 317c30 180 153 316 273 316c41 0 77 -14 116 -53c25 42 32 53 47 53c21 0 17 -20 15 -32l-23 -143c-3 -16 -6 -32 -32 -32
c-16 0 -21 6 -21 16c1 125 -66 149 -105 149c-84 0 -193 -110 -220 -275c-27 -159 39 -274 127 -274c59 0 124 50 160 185h-55c-11 0 -31 0 -27 22c3 20 23 20 34 20h124c11 0 32 0 29 -20zM559 747c-12 -74 -120 -74 -184 -74s-172 0 -160 74c3 13 13 22 26 22
c11 0 15 -5 16 -11c4 -34 77 -40 126 -40c48 0 124 6 138 40c3 6 9 11 20 11c14 0 21 -9 18 -22z" />
    <glyph glyph-name="gbreve" unicode="&#x11f;" 
d="M572 391c-4 -23 -23 -32 -36 -32c-8 0 -25 6 -26 36c-24 -2 -51 -7 -87 -25c16 -37 20 -65 15 -94c-14 -86 -97 -156 -186 -156c-48 0 -80 22 -93 31c-13 -23 -18 -40 -19 -45c0 0 -3 -26 8 -43c12 -18 19 -19 37 -19c9 -1 23 -2 31 -2h73c90 0 129 -21 140 -28
c44 -26 54 -74 48 -109c-14 -84 -129 -142 -255 -142s-221 57 -207 142c2 10 14 76 103 125c-12 21 -22 44 -16 78c5 28 17 49 35 70c-15 25 -26 56 -19 98c14 83 95 155 186 155c45 0 76 -18 95 -33c57 37 105 38 116 38c47 0 61 -25 57 -45zM388 276
c10 60 -29 114 -91 114c-59 0 -118 -50 -129 -115c-10 -60 29 -114 91 -114c59 0 118 50 129 115zM437 -95c16 94 -104 99 -202 99c-79 0 -89 -1 -119 -18c-41 -23 -57 -60 -61 -81c-8 -49 63 -100 174 -100c110 0 200 51 208 100zM497 590c-12 -74 -120 -74 -184 -74
s-172 0 -160 74c3 14 13 22 26 22c11 0 15 -5 16 -11c4 -34 77 -40 126 -40c48 0 124 6 138 40c3 6 9 11 20 11c14 0 21 -8 18 -22z" />
    <glyph glyph-name="Gdotaccent" unicode="&#x120;" 
d="M534 238c-4 -22 -24 -22 -53 -22l-31 -184c-2 -14 -5 -32 -30 -32c-26 0 -23 16 -16 61c-44 -43 -90 -72 -145 -72c-119 0 -197 134 -167 317c30 180 153 316 273 316c41 0 77 -14 116 -53c25 42 32 53 47 53c21 0 17 -20 15 -32l-23 -143c-3 -16 -6 -32 -32 -32
c-16 0 -21 6 -21 16c1 125 -66 149 -105 149c-84 0 -193 -110 -220 -275c-27 -159 39 -274 127 -274c59 0 124 50 160 185h-55c-11 0 -31 0 -27 22c3 20 23 20 34 20h124c11 0 32 0 29 -20zM423 715c-4 -23 -25 -41 -48 -41s-38 18 -34 41s25 42 48 42s38 -19 34 -42z" />
    <glyph glyph-name="gdotaccent" unicode="&#x121;" 
d="M572 391c-4 -23 -23 -32 -36 -32c-8 0 -25 6 -26 36c-24 -2 -51 -7 -87 -25c16 -37 20 -65 15 -94c-14 -86 -97 -156 -186 -156c-48 0 -80 22 -93 31c-13 -23 -18 -40 -19 -45c0 0 -3 -26 8 -43c12 -18 19 -19 37 -19c9 -1 23 -2 31 -2h73c90 0 129 -21 140 -28
c44 -26 54 -74 48 -109c-14 -84 -129 -142 -255 -142s-221 57 -207 142c2 10 14 76 103 125c-12 21 -22 44 -16 78c5 28 17 49 35 70c-15 25 -26 56 -19 98c14 83 95 155 186 155c45 0 76 -18 95 -33c57 37 105 38 116 38c47 0 61 -25 57 -45zM388 276
c10 60 -29 114 -91 114c-59 0 -118 -50 -129 -115c-10 -60 29 -114 91 -114c59 0 118 50 129 115zM437 -95c16 94 -104 99 -202 99c-79 0 -89 -1 -119 -18c-41 -23 -57 -60 -61 -81c-8 -49 63 -100 174 -100c110 0 200 51 208 100zM362 563c-4 -23 -25 -41 -48 -41
s-38 18 -34 41c4 24 25 42 48 42s38 -18 34 -42z" />
    <glyph glyph-name="Gcommaaccent" unicode="&#x122;" 
d="M534 238c-4 -22 -24 -22 -53 -22l-31 -184c-2 -14 -5 -32 -30 -32c-26 0 -23 16 -16 61c-44 -43 -90 -72 -145 -72c-119 0 -197 134 -167 317c30 180 153 316 273 316c41 0 77 -14 116 -53c25 42 32 53 47 53c21 0 17 -20 15 -32l-23 -143c-3 -16 -6 -32 -32 -32
c-16 0 -21 6 -21 16c1 125 -66 149 -105 149c-84 0 -193 -110 -220 -275c-27 -159 39 -274 127 -274c59 0 124 50 160 185h-55c-11 0 -31 0 -27 22c3 20 23 20 34 20h124c11 0 32 0 29 -20zM297 -122c-13 -77 -92 -117 -114 -117c-8 0 -14 8 -12 15c0 5 6 9 10 10
c29 9 77 30 87 89c-9 -4 -17 -6 -28 -6c-20 0 -35 15 -31 39c3 20 21 37 45 37c29 0 49 -26 43 -67z" />
    <glyph glyph-name="gcommaaccent" unicode="&#x123;" 
d="M388 643c-1 -5 -6 -9 -10 -10c-29 -9 -77 -30 -87 -89c8 4 17 6 28 6c20 0 35 -15 31 -39c-3 -20 -21 -37 -45 -37c-29 0 -50 26 -43 67c13 77 92 117 114 117c8 0 13 -8 12 -15zM572 391c-4 -23 -23 -32 -36 -32c-8 0 -25 6 -26 36c-24 -2 -51 -7 -87 -25
c16 -37 20 -65 15 -94c-14 -86 -97 -156 -186 -156c-48 0 -80 22 -93 31c-13 -23 -18 -40 -19 -45c0 0 -3 -26 8 -43c12 -18 19 -19 37 -19c9 -1 23 -2 31 -2h73c90 0 129 -21 140 -28c44 -26 54 -74 48 -109c-14 -84 -129 -142 -255 -142s-221 57 -207 142
c2 10 14 76 103 125c-12 21 -22 44 -16 78c5 28 17 49 35 70c-15 25 -26 56 -19 98c14 83 95 155 186 155c45 0 76 -18 95 -33c57 37 105 38 116 38c47 0 61 -25 57 -45zM388 276c10 60 -29 114 -91 114c-59 0 -118 -50 -129 -115c-10 -60 29 -114 91 -114
c59 0 118 50 129 115zM437 -95c16 94 -104 99 -202 99c-79 0 -89 -1 -119 -18c-41 -23 -57 -60 -61 -81c-8 -49 63 -100 174 -100c110 0 200 51 208 100z" />
    <glyph glyph-name="Hcircumflex" unicode="&#x124;" 
d="M504 21c-4 -21 -24 -21 -35 -21h-123c-12 0 -31 0 -27 22c3 20 23 20 34 20h36l43 255h-240l-43 -255h36c12 0 31 0 28 -21c-4 -21 -24 -21 -35 -21h-123c-11 0 -31 0 -27 21c3 21 22 21 34 21h36l88 527h-36c-11 0 -31 0 -28 20c4 22 23 22 35 22h123c12 0 31 0 27 -22
c-3 -20 -23 -20 -34 -20h-36l-38 -230h240l38 230h-36c-12 0 -31 0 -28 21c4 21 24 21 35 21h123c12 0 31 0 27 -22c-3 -20 -23 -20 -34 -20h-36l-88 -527h36c12 0 31 0 28 -21zM519 685c-2 -12 -11 -22 -28 -22c-6 0 -19 4 -28 7l-84 30l-94 -30c-11 -3 -26 -7 -32 -7
c-17 0 -22 10 -20 22c1 8 12 17 26 22l115 40c10 3 18 3 26 0l101 -40c12 -5 19 -14 18 -22z" />
    <glyph glyph-name="hcircumflex" unicode="&#x125;" 
d="M514 21c-4 -21 -24 -21 -35 -21h-158c-11 0 -32 0 -28 21c3 21 23 21 35 21h51l41 245c12 70 -1 102 -63 102c-57 0 -147 -42 -166 -153l-32 -194h56c12 0 32 0 29 -21c-4 -21 -24 -21 -35 -21h-164c-11 0 -31 0 -27 21c3 21 23 21 35 21h56l88 527h-57
c-11 0 -31 0 -28 20c4 22 24 22 36 22h75c27 0 30 -8 26 -32l-37 -217c43 36 93 69 158 69c76 0 117 -42 101 -138l-42 -251h56c12 0 32 0 29 -21zM519 685c-2 -12 -11 -22 -28 -22c-6 0 -19 4 -28 7l-84 30l-94 -30c-11 -3 -26 -7 -32 -7c-17 0 -22 10 -20 22
c1 8 12 17 26 22l115 40c10 3 18 3 26 0l101 -40c12 -5 19 -14 18 -22z" />
    <glyph glyph-name="Hbar" unicode="&#x126;" 
d="M504 21c-4 -21 -24 -21 -35 -21h-123c-12 0 -31 0 -27 22c3 20 23 20 34 20h36l43 255h-240l-43 -255h36c12 0 31 0 28 -21c-4 -21 -24 -21 -35 -21h-123c-11 0 -31 0 -27 21c3 21 22 21 34 21h36l67 399h-41c-12 0 -21 10 -19 22s14 22 26 22h41l14 84h-36
c-11 0 -31 0 -28 20c4 22 23 22 35 22h123c12 0 31 0 27 -22c-3 -20 -23 -20 -34 -20h-36l-14 -84h240l14 84h-36c-12 0 -31 0 -28 21c4 21 24 21 35 21h123c12 0 31 0 27 -22c-3 -20 -23 -20 -34 -20h-36l-14 -84h41c12 0 20 -10 18 -22s-13 -22 -25 -22h-41l-67 -399h36
c12 0 31 0 28 -21zM439 339l17 102h-240l-17 -102h240z" />
    <glyph glyph-name="hbar" unicode="&#x127;" 
d="M514 21c-4 -21 -24 -21 -35 -21h-158c-11 0 -32 0 -28 21c3 21 23 21 35 21h51l41 245c12 70 -1 102 -63 102c-57 0 -147 -42 -166 -153l-32 -194h56c12 0 32 0 29 -21c-4 -21 -24 -21 -35 -21h-164c-11 0 -31 0 -27 21c3 21 23 21 35 21h56l72 433h-62
c-12 0 -20 9 -18 21s13 22 25 22h62l9 51h-57c-11 0 -31 0 -28 20c4 22 24 22 36 22h75c27 0 30 -8 26 -32l-11 -61h111c12 0 21 -10 19 -22s-14 -21 -26 -21h-111l-19 -113c43 36 93 69 158 69c76 0 117 -42 101 -138l-42 -251h56c12 0 32 0 29 -21z" />
    <glyph glyph-name="Itilde" unicode="&#x128;" 
d="M446 21c-4 -21 -25 -21 -36 -21h-295c-11 0 -32 0 -28 22c3 20 24 20 35 20h122l88 527h-122c-11 0 -32 0 -29 21c4 21 25 21 36 21h295c11 0 32 0 28 -22c-3 -20 -24 -20 -35 -20h-122l-88 -527h122c11 0 32 0 29 -21zM558 743c-2 -13 -35 -35 -55 -48
c-25 -17 -54 -32 -80 -32c-20 0 -33 8 -44 18c-27 29 -35 38 -48 38c-15 0 -48 -16 -87 -48c-6 -4 -12 -8 -20 -8c-11 0 -20 11 -18 22c2 14 35 35 55 49c25 16 55 32 80 32c20 0 33 -9 44 -18c27 -29 35 -39 48 -39c15 0 48 17 87 48c6 5 12 9 20 9c11 0 20 -11 18 -23z
" />
    <glyph glyph-name="itilde" unicode="&#x129;" 
d="M455 21c-4 -21 -25 -21 -36 -21h-305c-11 0 -32 0 -28 21c3 21 23 21 35 21h136l57 341h-128c-11 0 -32 0 -29 21c4 21 25 21 36 21h147c27 0 30 -8 26 -32l-59 -351h119c11 0 32 0 29 -21zM533 592c-2 -13 -35 -35 -55 -48c-25 -16 -54 -32 -80 -32c-20 0 -33 8 -44 18
c-27 29 -35 39 -48 39c-15 0 -48 -17 -87 -49c-6 -4 -12 -8 -20 -8c-11 0 -20 11 -18 22c2 14 35 35 55 49c25 16 55 32 80 32c20 0 33 -9 44 -18c27 -29 35 -39 48 -39c15 0 48 17 87 48c6 5 12 9 20 9c11 0 20 -11 18 -23z" />
    <glyph glyph-name="Imacron" unicode="&#x12a;" 
d="M446 21c-4 -21 -25 -21 -36 -21h-295c-11 0 -32 0 -28 22c3 20 24 20 35 20h122l88 527h-122c-11 0 -32 0 -29 21c4 21 25 21 36 21h295c11 0 32 0 28 -22c-3 -20 -24 -20 -35 -20h-122l-88 -527h122c11 0 32 0 29 -21zM565 704c-3 -21 -22 -21 -34 -21h-307
c-13 0 -32 0 -29 22c4 22 23 22 35 22h308c13 0 31 0 27 -23z" />
    <glyph glyph-name="imacron" unicode="&#x12b;" 
d="M455 21c-4 -21 -25 -21 -36 -21h-305c-11 0 -32 0 -28 21c3 21 23 21 35 21h136l57 341h-128c-11 0 -32 0 -29 21c4 21 25 21 36 21h147c27 0 30 -8 26 -32l-59 -351h119c11 0 32 0 29 -21zM542 563c-4 -21 -23 -21 -35 -21h-307c-13 0 -32 0 -28 22s23 22 35 22h308
c13 0 31 0 27 -23z" />
    <glyph glyph-name="Ibreve" unicode="&#x12c;" 
d="M446 21c-4 -21 -25 -21 -36 -21h-295c-11 0 -32 0 -28 22c3 20 24 20 35 20h122l88 527h-122c-11 0 -32 0 -29 21c4 21 25 21 36 21h295c11 0 32 0 28 -22c-3 -20 -24 -20 -35 -20h-122l-88 -527h122c11 0 32 0 29 -21zM559 747c-12 -74 -120 -74 -184 -74
s-172 0 -160 74c3 13 13 22 26 22c11 0 15 -5 16 -11c4 -34 77 -40 126 -40c48 0 124 6 138 40c3 6 9 11 20 11c14 0 21 -9 18 -22z" />
    <glyph glyph-name="ibreve" unicode="&#x12d;" 
d="M455 21c-4 -21 -25 -21 -36 -21h-305c-11 0 -32 0 -28 21c3 21 23 21 35 21h136l57 341h-128c-11 0 -32 0 -29 21c4 21 25 21 36 21h147c27 0 30 -8 26 -32l-59 -351h119c11 0 32 0 29 -21zM533 590c-12 -74 -120 -74 -184 -74s-172 0 -160 74c3 14 13 22 26 22
c11 0 15 -5 16 -11c4 -34 77 -40 126 -40c48 0 124 6 138 40c3 6 9 11 20 11c14 0 21 -8 18 -22z" />
    <glyph glyph-name="Iogonek" unicode="&#x12e;" 
d="M446 21c-4 -21 -25 -21 -36 -21h-104c-49 -26 -97 -72 -106 -124c-5 -31 24 -51 47 -51c24 0 55 23 71 42c5 4 19 9 25 3s4 -17 -2 -23c-28 -32 -67 -57 -104 -57c-58 0 -84 48 -77 88c6 40 28 78 92 122h-137c-11 0 -32 0 -28 22c3 20 24 20 35 20h122l88 527h-122
c-11 0 -32 0 -29 21c4 21 25 21 36 21h295c11 0 32 0 28 -22c-3 -20 -24 -20 -35 -20h-122l-88 -527h122c11 0 32 0 29 -21z" />
    <glyph glyph-name="iogonek" unicode="&#x12f;" 
d="M395 571c-4 -23 -25 -42 -48 -42s-38 19 -34 42s25 41 48 41s38 -18 34 -41zM455 21c-4 -21 -25 -21 -36 -21h-126c-50 -26 -97 -72 -106 -124c-5 -31 25 -51 48 -51s54 23 71 42c4 4 18 8 24 3s4 -17 -1 -23c-28 -32 -68 -57 -104 -57c-59 0 -84 48 -77 88
c6 40 31 78 95 122h-129c-11 0 -32 0 -28 21c3 21 23 21 35 21h136l57 341h-128c-11 0 -32 0 -29 21c4 21 25 21 36 21h147c27 0 30 -8 26 -32l-59 -351h119c11 0 32 0 29 -21z" />
    <glyph glyph-name="Idotaccent" unicode="&#x130;" 
d="M446 21c-4 -21 -25 -21 -36 -21h-295c-11 0 -32 0 -28 22c3 20 24 20 35 20h122l88 527h-122c-11 0 -32 0 -29 21c4 21 25 21 36 21h295c11 0 32 0 28 -22c-3 -20 -24 -20 -35 -20h-122l-88 -527h122c11 0 32 0 29 -21zM423 715c-4 -23 -25 -41 -48 -41s-38 18 -34 41
s25 42 48 42s38 -19 34 -42z" />
    <glyph glyph-name="dotlessi" unicode="&#x131;" 
d="M455 21c-4 -21 -25 -21 -36 -21h-305c-11 0 -32 0 -28 21c3 21 23 21 35 21h136l57 341h-128c-11 0 -32 0 -29 21c4 21 25 21 36 21h147c27 0 30 -8 26 -32l-59 -351h119c11 0 32 0 29 -21z" />
    <glyph glyph-name="Jcircumflex" unicode="&#x134;" 
d="M573 590c-3 -21 -23 -21 -35 -21h-41l-74 -441c-14 -88 -103 -139 -189 -139c-96 0 -154 42 -144 103c5 26 24 38 43 38c20 0 32 -16 29 -35c-2 -12 -6 -16 -17 -28c34 -36 87 -36 96 -36c22 0 116 6 132 103l73 435h-95c-12 0 -32 0 -29 21c4 21 25 21 36 21h187
c11 0 32 0 28 -21zM604 685c-2 -12 -11 -22 -28 -22c-6 0 -19 4 -28 7l-84 30l-94 -30c-11 -3 -26 -7 -32 -7c-17 0 -22 10 -20 22c1 8 12 17 26 22l115 40c10 3 18 3 26 0l101 -40c12 -5 19 -14 18 -22z" />
    <glyph glyph-name="jcircumflex" unicode="&#x135;" 
d="M352 -56c-11 -62 -65 -180 -207 -180c-38 0 -133 0 -122 69c4 23 24 37 42 37c17 0 33 -14 29 -36l-8 -17s23 -10 72 -10c26 0 61 0 99 43c34 39 42 81 45 99l73 434h-145c-11 0 -31 0 -28 20c4 22 24 22 36 22h163c27 0 30 -8 26 -32zM550 528c-2 -12 -11 -22 -28 -22
c-6 0 -18 9 -27 15l-80 54l-98 -54c-11 -6 -27 -15 -33 -15c-17 0 -22 10 -20 22c1 8 14 15 26 22l114 66c12 7 24 7 34 0l94 -66c10 -7 19 -14 18 -22z" />
    <glyph glyph-name="Kcommaaccent" unicode="&#x136;" 
d="M497 21c-4 -21 -25 -21 -37 -21h-77c-12 0 -32 0 -28 22c3 20 23 20 52 20l-113 288l-131 -136l-25 -152h33c12 0 32 0 29 -21c-4 -21 -25 -21 -36 -21h-104c-12 0 -32 0 -28 22c3 20 24 20 35 20h31l88 527h-31c-12 0 -32 0 -29 21c4 21 25 21 36 21h104
c12 0 32 0 28 -22c-3 -20 -24 -20 -35 -20h-33l-53 -315l303 315c-32 0 -54 0 -51 20c4 22 25 22 36 22h91c11 0 32 0 28 -21c-3 -21 -22 -21 -56 -21l-200 -208l126 -319c29 0 50 0 47 -21zM297 -122c-13 -77 -92 -117 -114 -117c-8 0 -14 8 -12 15c0 5 6 9 10 10
c29 9 77 30 87 89c-9 -4 -17 -6 -28 -6c-20 0 -35 15 -31 39c3 20 21 37 45 37c29 0 49 -26 43 -67z" />
    <glyph glyph-name="kcommaaccent" unicode="&#x137;" 
d="M510 21c-4 -21 -25 -21 -36 -21h-122c-11 0 -31 0 -27 21c3 21 19 19 69 19l-110 183l-109 -85l-16 -96h61c12 0 31 0 28 -21c-4 -21 -23 -21 -35 -21h-159c-12 0 -31 0 -27 22c3 20 23 20 34 20h54l88 527h-54c-12 0 -31 0 -28 21c4 21 24 21 35 21h67
c27 0 30 -8 26 -32l-65 -388l236 192h-64c-11 0 -31 0 -28 20c4 22 23 22 35 22h159c11 0 32 0 28 -22c-3 -20 -24 -20 -35 -20h-37l-159 -130l127 -211h35c11 0 32 0 29 -21zM297 -122c-13 -77 -92 -117 -114 -117c-8 0 -14 8 -12 15c0 5 6 9 10 10c29 9 77 30 87 89
c-9 -4 -17 -6 -28 -6c-20 0 -35 15 -31 39c3 20 21 37 45 37c29 0 49 -26 43 -67z" />
    <glyph glyph-name="Lacute" unicode="&#x139;" 
d="M490 32c-4 -25 -10 -32 -36 -32h-388c-12 0 -31 0 -27 21c3 21 22 21 34 21h48l88 527h-48c-12 0 -31 0 -28 20c4 22 23 22 35 22h167c11 0 32 0 28 -22c-3 -20 -24 -20 -35 -20h-68l-88 -527h270l14 82c2 16 5 32 30 32s22 -17 20 -32zM370 765c-1 -8 -7 -18 -27 -26
l-155 -64c-2 -1 -7 -2 -7 -2c-20 0 -20 25 -19 31c2 12 12 16 23 21l148 62c10 4 16 4 16 4c15 0 24 -11 21 -26z" />
    <glyph glyph-name="lacute" unicode="&#x13a;" 
d="M468 21c-4 -21 -24 -21 -35 -21h-341c-10 0 -31 0 -27 21c3 21 23 21 35 21h144l88 527h-145c-10 0 -31 0 -28 20c4 22 24 22 36 22h164c26 0 30 -8 26 -32l-90 -537h145c12 0 31 0 28 -21zM489 765c-1 -8 -7 -18 -27 -26l-155 -64c-2 -1 -7 -2 -7 -2
c-20 0 -20 25 -19 31c2 12 12 16 23 21l148 62c10 4 16 4 16 4c15 0 24 -11 21 -26z" />
    <glyph glyph-name="Lcommaaccent" unicode="&#x13b;" 
d="M490 32c-4 -25 -10 -32 -36 -32h-388c-12 0 -31 0 -27 21c3 21 22 21 34 21h48l88 527h-48c-12 0 -31 0 -28 20c4 22 23 22 35 22h167c11 0 32 0 28 -22c-3 -20 -24 -20 -35 -20h-68l-88 -527h270l14 82c2 16 5 32 30 32s22 -17 20 -32zM297 -122
c-13 -77 -92 -117 -114 -117c-8 0 -14 8 -12 15c0 5 6 9 10 10c29 9 77 30 87 89c-9 -4 -17 -6 -28 -6c-20 0 -35 15 -31 39c3 20 21 37 45 37c29 0 49 -26 43 -67z" />
    <glyph glyph-name="lcommaaccent" unicode="&#x13c;" 
d="M468 21c-4 -21 -24 -21 -35 -21h-341c-10 0 -31 0 -27 21c3 21 23 21 35 21h144l88 527h-145c-10 0 -31 0 -28 20c4 22 24 22 36 22h164c26 0 30 -8 26 -32l-90 -537h145c12 0 31 0 28 -21zM297 -122c-13 -77 -92 -117 -114 -117c-8 0 -14 8 -12 15c0 5 6 9 10 10
c29 9 77 30 87 89c-9 -4 -17 -6 -28 -6c-20 0 -35 15 -31 39c3 20 21 37 45 37c29 0 49 -26 43 -67z" />
    <glyph glyph-name="Lcaron" unicode="&#x13d;" 
d="M490 32c-4 -25 -10 -32 -36 -32h-388c-12 0 -31 0 -27 21c3 21 22 21 34 21h48l88 527h-48c-12 0 -31 0 -28 20c4 22 23 22 35 22h167c11 0 32 0 28 -22c-3 -20 -24 -20 -35 -20h-68l-88 -527h270l14 82c2 16 5 32 30 32s22 -17 20 -32zM523 544
c-13 -77 -92 -117 -114 -117c-8 0 -13 8 -12 15c1 5 6 9 10 10c29 9 77 30 87 89c-8 -4 -17 -6 -28 -6c-20 0 -35 15 -31 39c3 20 21 37 45 37c29 0 50 -26 43 -67z" />
    <glyph glyph-name="lcaron" unicode="&#x13e;" 
d="M468 21c-4 -21 -24 -21 -35 -21h-341c-10 0 -31 0 -27 21c3 21 23 21 35 21h144l88 527h-145c-10 0 -31 0 -28 20c4 22 24 22 36 22h164c26 0 30 -8 26 -32l-90 -537h145c12 0 31 0 28 -21zM527 544c-13 -77 -92 -117 -114 -117c-8 0 -13 8 -12 15c1 5 6 9 10 10
c29 9 77 30 87 89c-8 -4 -17 -6 -28 -6c-20 0 -35 15 -31 39c3 20 21 37 45 37c29 0 50 -26 43 -67z" />
    <glyph glyph-name="Ldot" unicode="&#x13f;" 
d="M490 32c-4 -25 -10 -32 -36 -32h-388c-12 0 -31 0 -27 21c3 21 22 21 34 21h48l88 527h-48c-12 0 -31 0 -28 20c4 22 23 22 35 22h167c11 0 32 0 28 -22c-3 -20 -24 -20 -35 -20h-68l-88 -527h270l14 82c2 16 5 32 30 32s22 -17 20 -32zM496 316c-4 -23 -25 -41 -48 -41
s-38 18 -34 41c4 24 25 42 48 42s38 -18 34 -42z" />
    <glyph glyph-name="ldot" unicode="&#x140;" 
d="M468 21c-4 -21 -24 -21 -35 -21h-341c-10 0 -31 0 -27 21c3 21 23 21 35 21h144l88 527h-145c-10 0 -31 0 -28 20c4 22 24 22 36 22h164c26 0 30 -8 26 -32l-90 -537h145c12 0 31 0 28 -21zM619 316c-4 -23 -25 -41 -48 -41s-38 18 -34 41c4 24 25 42 48 42
s38 -18 34 -42z" />
    <glyph glyph-name="Lslash" unicode="&#x141;" 
d="M490 32c-4 -25 -10 -32 -36 -32h-388c-12 0 -31 0 -27 21c3 21 22 21 34 21h48l40 238l-58 -36c-11 -7 -23 -4 -27 5c-5 9 0 22 9 28l84 52l40 240h-48c-12 0 -31 0 -28 20c4 22 23 22 35 22h167c11 0 32 0 28 -22c-3 -20 -24 -20 -35 -20h-68l-34 -206l212 130
c10 6 22 2 26 -7c5 -9 0 -22 -10 -28l-236 -143l-46 -273h270l14 82c2 16 5 32 30 32s22 -17 20 -32z" />
    <glyph glyph-name="lslash" unicode="&#x142;" 
d="M468 21c-4 -21 -24 -21 -35 -21h-341c-10 0 -31 0 -27 21c3 21 23 21 35 21h144l48 285l-135 -83c-11 -7 -23 -4 -27 5c-5 9 -1 22 9 28l161 98l32 194h-145c-10 0 -31 0 -28 20c4 22 24 22 36 22h164c26 0 30 -8 26 -32l-28 -168l134 82c10 6 21 3 26 -6
c6 -9 1 -23 -9 -29l-160 -97l-53 -319h145c12 0 31 0 28 -21z" />
    <glyph glyph-name="Nacute" unicode="&#x143;" 
d="M592 589c-3 -20 -23 -20 -34 -20h-37l-90 -537c-5 -30 -14 -32 -38 -32c-22 0 -38 1 -44 30l-110 539h-9l-88 -527h36c12 0 31 0 28 -21c-4 -21 -24 -21 -35 -21h-110c-12 0 -31 0 -27 22c3 20 23 20 34 20h37l88 527h-37c-12 0 -31 0 -28 21c4 21 24 21 35 21h71
c23 0 37 -2 43 -30l110 -539h9l88 527h-36c-11 0 -31 0 -28 20c4 22 23 22 35 22h110c12 0 31 0 27 -22zM489 765c-1 -8 -7 -18 -27 -26l-155 -64c-2 -1 -7 -2 -7 -2c-20 0 -20 25 -19 31c2 12 12 16 23 21l148 62c10 4 16 4 16 4c15 0 24 -11 21 -26z" />
    <glyph glyph-name="nacute" unicode="&#x144;" 
d="M514 21c-4 -21 -24 -21 -35 -21h-158c-11 0 -32 0 -28 21c3 21 23 21 35 21h51l41 245c12 70 -1 102 -63 102c-57 0 -147 -42 -166 -153l-32 -194h56c12 0 32 0 29 -21c-4 -21 -24 -21 -35 -21h-164c-11 0 -31 0 -27 21c3 21 23 21 35 21h56l57 341h-57
c-11 0 -31 0 -28 20c4 22 24 22 36 22h75c31 0 29 -13 20 -63c43 36 93 69 158 69c76 0 117 -42 101 -138l-42 -251h56c12 0 32 0 29 -21zM462 597c-2 -9 -8 -19 -28 -27l-155 -64c-2 -1 -7 -1 -7 -1c-20 0 -20 24 -19 31c2 12 12 16 23 20l148 62c10 4 16 4 16 4
c15 0 24 -11 22 -25z" />
    <glyph glyph-name="Ncommaaccent" unicode="&#x145;" 
d="M592 589c-3 -20 -23 -20 -34 -20h-37l-90 -537c-5 -30 -14 -32 -38 -32c-22 0 -38 1 -44 30l-110 539h-9l-88 -527h36c12 0 31 0 28 -21c-4 -21 -24 -21 -35 -21h-110c-12 0 -31 0 -27 22c3 20 23 20 34 20h37l88 527h-37c-12 0 -31 0 -28 21c4 21 24 21 35 21h71
c23 0 37 -2 43 -30l110 -539h9l88 527h-36c-11 0 -31 0 -28 20c4 22 23 22 35 22h110c12 0 31 0 27 -22zM297 -122c-13 -77 -92 -117 -114 -117c-8 0 -14 8 -12 15c0 5 6 9 10 10c29 9 77 30 87 89c-9 -4 -17 -6 -28 -6c-20 0 -35 15 -31 39c3 20 21 37 45 37
c29 0 49 -26 43 -67z" />
    <glyph glyph-name="ncommaaccent" unicode="&#x146;" 
d="M514 21c-4 -21 -24 -21 -35 -21h-158c-11 0 -32 0 -28 21c3 21 23 21 35 21h51l41 245c12 70 -1 102 -63 102c-57 0 -147 -42 -166 -153l-32 -194h56c12 0 32 0 29 -21c-4 -21 -24 -21 -35 -21h-164c-11 0 -31 0 -27 21c3 21 23 21 35 21h56l57 341h-57
c-11 0 -31 0 -28 20c4 22 24 22 36 22h75c31 0 29 -13 20 -63c43 36 93 69 158 69c76 0 117 -42 101 -138l-42 -251h56c12 0 32 0 29 -21zM297 -122c-13 -77 -92 -117 -114 -117c-8 0 -14 8 -12 15c0 5 6 9 10 10c29 9 77 30 87 89c-9 -4 -17 -6 -28 -6c-20 0 -35 15 -31 39
c3 20 21 37 45 37c29 0 49 -26 43 -67z" />
    <glyph glyph-name="Ncaron" unicode="&#x147;" 
d="M592 589c-3 -20 -23 -20 -34 -20h-37l-90 -537c-5 -30 -14 -32 -38 -32c-22 0 -38 1 -44 30l-110 539h-9l-88 -527h36c12 0 31 0 28 -21c-4 -21 -24 -21 -35 -21h-110c-12 0 -31 0 -27 22c3 20 23 20 34 20h37l88 527h-37c-12 0 -31 0 -28 21c4 21 24 21 35 21h71
c23 0 37 -2 43 -30l110 -539h9l88 527h-36c-11 0 -31 0 -28 20c4 22 23 22 35 22h110c12 0 31 0 27 -22zM526 728c-1 -8 -12 -17 -25 -22l-116 -40c-10 -3 -18 -3 -26 0l-100 40c-13 5 -20 14 -19 22c2 12 11 22 28 22c6 0 19 -4 29 -7l84 -30l94 30c10 3 25 7 31 7
c17 0 22 -10 20 -22z" />
    <glyph glyph-name="ncaron" unicode="&#x148;" 
d="M514 21c-4 -21 -24 -21 -35 -21h-158c-11 0 -32 0 -28 21c3 21 23 21 35 21h51l41 245c12 70 -1 102 -63 102c-57 0 -147 -42 -166 -153l-32 -194h56c12 0 32 0 29 -21c-4 -21 -24 -21 -35 -21h-164c-11 0 -31 0 -27 21c3 21 23 21 35 21h56l57 341h-57
c-11 0 -31 0 -28 20c4 22 24 22 36 22h75c31 0 29 -13 20 -63c43 36 93 69 158 69c76 0 117 -42 101 -138l-42 -251h56c12 0 32 0 29 -21zM506 599c-1 -8 -14 -15 -26 -22l-114 -66c-12 -7 -24 -7 -34 0l-94 66c-10 7 -19 14 -18 22c2 12 11 22 28 22c6 0 18 -9 27 -15
l80 -54l98 54c11 6 27 15 33 15c17 0 22 -10 20 -22z" />
    <glyph glyph-name="Eng" unicode="&#x14a;" 
d="M538 306c-25 -149 -60 -317 -187 -317c-19 0 -32 16 -29 35s22 35 41 35c8 0 16 -2 25 -12c59 38 82 158 99 259c22 129 8 265 -102 265c-74 0 -139 -62 -161 -138l-65 -391h56c12 0 32 0 29 -21c-4 -21 -24 -21 -35 -21h-164c-11 0 -31 0 -27 21c3 21 23 21 35 21h56
l88 527h-57c-11 0 -31 0 -28 20c4 22 24 22 36 22h75c26 0 30 -8 22 -54c58 47 102 65 149 65c137 0 170 -160 144 -316z" />
    <glyph glyph-name="eng" unicode="&#x14b;" 
d="M467 53c-12 -71 -30 -146 -58 -203c-28 -54 -66 -91 -123 -91c-15 0 -24 11 -22 26c2 14 15 26 30 26c75 0 104 132 123 242l39 234c12 70 -1 102 -63 102c-57 0 -146 -42 -165 -153l-32 -194h55c12 0 32 0 29 -21c-4 -21 -24 -21 -35 -21h-164c-10 0 -31 0 -27 21
c3 21 23 21 35 21h56l57 341h-57c-10 0 -31 0 -28 20c4 22 24 22 36 22h76c31 0 29 -13 20 -63c42 36 92 69 157 69c76 0 117 -42 101 -138z" />
    <glyph glyph-name="Omacron" unicode="&#x14c;" 
d="M516 305c-48 -288 -73 -316 -256 -316c-184 0 -198 28 -150 316c48 289 72 317 256 317s198 -29 150 -317zM466 314c11 64 24 143 19 192c-6 62 -42 74 -126 74c-92 0 -129 -15 -154 -81c-20 -49 -32 -120 -43 -185c-9 -57 -24 -148 -20 -202c3 -56 26 -81 125 -81
c100 0 132 25 155 88c21 56 34 130 44 195zM565 704c-3 -21 -22 -21 -34 -21h-307c-13 0 -32 0 -29 22c4 22 23 22 35 22h308c13 0 31 0 27 -23z" />
    <glyph glyph-name="omacron" unicode="&#x14d;" 
d="M500 213c-21 -124 -131 -219 -239 -219s-186 94 -165 219c20 123 128 221 238 221s186 -98 166 -221zM450 220c17 101 -44 172 -123 172c-78 0 -162 -71 -179 -172c-17 -102 38 -184 120 -184c81 0 165 82 182 184zM542 563c-4 -21 -23 -21 -35 -21h-307
c-13 0 -32 0 -28 22s23 22 35 22h308c13 0 31 0 27 -23z" />
    <glyph glyph-name="Obreve" unicode="&#x14e;" 
d="M516 305c-48 -288 -73 -316 -256 -316c-184 0 -198 28 -150 316c48 289 72 317 256 317s198 -29 150 -317zM466 314c11 64 24 143 19 192c-6 62 -42 74 -126 74c-92 0 -129 -15 -154 -81c-20 -49 -32 -120 -43 -185c-9 -57 -24 -148 -20 -202c3 -56 26 -81 125 -81
c100 0 132 25 155 88c21 56 34 130 44 195zM559 747c-12 -74 -120 -74 -184 -74s-172 0 -160 74c3 13 13 22 26 22c11 0 15 -5 16 -11c4 -34 77 -40 126 -40c48 0 124 6 138 40c3 6 9 11 20 11c14 0 21 -9 18 -22z" />
    <glyph glyph-name="obreve" unicode="&#x14f;" 
d="M500 213c-21 -124 -131 -219 -239 -219s-186 94 -165 219c20 123 128 221 238 221s186 -98 166 -221zM450 220c17 101 -44 172 -123 172c-78 0 -162 -71 -179 -172c-17 -102 38 -184 120 -184c81 0 165 82 182 184zM533 590c-12 -74 -120 -74 -184 -74s-172 0 -160 74
c3 14 13 22 26 22c11 0 15 -5 16 -11c4 -34 77 -40 126 -40c48 0 124 6 138 40c3 6 9 11 20 11c14 0 21 -8 18 -22z" />
    <glyph glyph-name="Ohungarumlaut" unicode="&#x150;" 
d="M516 305c-48 -288 -73 -316 -256 -316c-184 0 -198 28 -150 316c48 289 72 317 256 317s198 -29 150 -317zM466 314c11 64 24 143 19 192c-6 62 -42 74 -126 74c-92 0 -129 -15 -154 -81c-20 -49 -32 -120 -43 -185c-9 -57 -24 -148 -20 -202c3 -56 26 -81 125 -81
c100 0 132 25 155 88c21 56 34 130 44 195zM358 771c-1 -9 -18 -22 -31 -32l-55 -45c-9 -7 -27 -21 -35 -21c-13 0 -25 17 -23 30c1 5 8 12 13 16l75 62c13 10 23 15 35 17c14 0 24 -13 21 -27zM559 771c-1 -9 -18 -22 -31 -32l-55 -45c-9 -7 -27 -21 -35 -21
c-13 0 -25 17 -23 30c1 5 8 12 13 16l75 62c13 10 23 15 35 17c14 0 24 -13 21 -27z" />
    <glyph glyph-name="ohungarumlaut" unicode="&#x151;" 
d="M500 213c-21 -124 -131 -219 -239 -219s-186 94 -165 219c20 123 128 221 238 221s186 -98 166 -221zM450 220c17 101 -44 172 -123 172c-78 0 -162 -71 -179 -172c-17 -102 38 -184 120 -184c81 0 165 82 182 184zM330 599c-2 -9 -19 -22 -31 -32l-56 -45
c-8 -7 -26 -21 -34 -21c-13 0 -26 17 -23 30c0 5 8 12 12 16l76 62c12 10 22 15 34 17c14 0 24 -13 22 -27zM531 599c-2 -9 -19 -22 -31 -32l-56 -45c-8 -7 -26 -21 -34 -21c-13 0 -26 17 -23 30c0 5 8 12 12 16l76 62c12 10 22 15 34 17c14 0 24 -13 22 -27z" />
    <glyph glyph-name="OE" unicode="&#x152;" 
d="M505 32c-4 -25 -11 -32 -36 -32h-171c-10 0 -25 0 -47 -4c-35 -7 -42 -7 -62 -7c-106 0 -128 28 -130 87c-5 64 9 147 23 230c22 129 33 182 55 236c25 63 68 80 158 80c17 0 28 0 55 -6c25 -5 37 -5 50 -5h164c26 0 30 -8 26 -32l-13 -76c-2 -10 -5 -32 -24 -32
s-16 22 -14 32l11 66h-145l-39 -231h136c12 0 31 0 28 -22c-4 -20 -24 -20 -35 -20h-136l-42 -254h153l14 82c2 11 5 32 23 32c19 0 16 -21 14 -32zM300 167l46 277c20 121 0 136 -54 136c-122 0 -136 -56 -171 -266c-36 -219 -42 -283 81 -283c53 0 78 19 98 136z" />
    <glyph glyph-name="oe" unicode="&#x153;" 
d="M520 101c-3 -17 -42 -107 -118 -107c-58 0 -87 50 -103 105c-38 -55 -83 -105 -139 -105c-78 0 -124 94 -103 220s98 220 176 220c60 0 87 -56 103 -102c39 59 79 102 128 102c67 0 99 -74 78 -203c-5 -25 -10 -34 -37 -34h-172c-7 -97 32 -161 80 -161c26 0 53 24 71 69
c1 5 7 16 20 16c10 0 18 -8 16 -20zM505 239c15 125 -22 153 -48 153c-38 0 -92 -62 -116 -153h164zM300 220c17 105 -26 172 -74 172s-114 -66 -131 -172c-18 -106 23 -184 72 -184c48 0 115 78 133 184z" />
    <glyph glyph-name="Racute" unicode="&#x154;" 
d="M534 86c-5 -35 -37 -97 -95 -97c-30 0 -53 13 -64 38c-15 35 -9 66 1 130c8 47 11 72 -10 96c-31 31 -65 31 -86 31h-91l-40 -242h36c12 0 31 0 28 -21c-4 -21 -24 -21 -35 -21h-123c-11 0 -31 0 -27 21c3 21 22 21 34 21h36l88 527h-36c-11 0 -31 0 -28 20
c4 22 23 22 35 22h183c115 0 177 -79 163 -163c-7 -40 -35 -99 -120 -143c23 -20 41 -40 49 -68c5 -22 3 -31 -7 -93s-13 -113 20 -113c22 0 38 46 40 57c4 21 20 21 28 21s25 0 21 -23zM453 448c9 53 -28 121 -131 121h-85l-40 -242h85c102 0 162 66 171 121zM489 765
c-1 -8 -7 -18 -27 -26l-155 -64c-2 -1 -7 -2 -7 -2c-20 0 -20 25 -19 31c2 12 12 16 23 21l148 62c10 4 16 4 16 4c15 0 24 -11 21 -26z" />
    <glyph glyph-name="racute" unicode="&#x155;" 
d="M547 377c-4 -21 -21 -34 -39 -34c-20 0 -31 17 -26 46c-142 0 -225 -105 -242 -207l-23 -140h125c12 0 32 0 29 -21c-4 -21 -24 -21 -36 -21h-269c-12 0 -31 0 -27 22c3 20 22 20 34 20h94l57 341h-94c-12 0 -31 0 -28 21c4 21 23 21 35 21h113c27 0 30 -8 26 -32
l-11 -63c87 83 153 101 203 101c76 0 82 -35 79 -54zM462 597c-2 -9 -8 -19 -28 -27l-155 -64c-2 -1 -7 -1 -7 -1c-20 0 -20 24 -19 31c2 12 12 16 23 20l148 62c10 4 16 4 16 4c15 0 24 -11 22 -25z" />
    <glyph glyph-name="Rcommaaccent" unicode="&#x156;" 
d="M534 86c-5 -35 -37 -97 -95 -97c-30 0 -53 13 -64 38c-15 35 -9 66 1 130c8 47 11 72 -10 96c-31 31 -65 31 -86 31h-91l-40 -242h36c12 0 31 0 28 -21c-4 -21 -24 -21 -35 -21h-123c-11 0 -31 0 -27 21c3 21 22 21 34 21h36l88 527h-36c-11 0 -31 0 -28 20
c4 22 23 22 35 22h183c115 0 177 -79 163 -163c-7 -40 -35 -99 -120 -143c23 -20 41 -40 49 -68c5 -22 3 -31 -7 -93s-13 -113 20 -113c22 0 38 46 40 57c4 21 20 21 28 21s25 0 21 -23zM453 448c9 53 -28 121 -131 121h-85l-40 -242h85c102 0 162 66 171 121zM297 -122
c-13 -77 -92 -117 -114 -117c-8 0 -14 8 -12 15c0 5 6 9 10 10c29 9 77 30 87 89c-9 -4 -17 -6 -28 -6c-20 0 -35 15 -31 39c3 20 21 37 45 37c29 0 49 -26 43 -67z" />
    <glyph glyph-name="rcommaaccent" unicode="&#x157;" 
d="M547 377c-4 -21 -21 -34 -39 -34c-20 0 -31 17 -26 46c-142 0 -225 -105 -242 -207l-23 -140h125c12 0 32 0 29 -21c-4 -21 -24 -21 -36 -21h-269c-12 0 -31 0 -27 22c3 20 22 20 34 20h94l57 341h-94c-12 0 -31 0 -28 21c4 21 23 21 35 21h113c27 0 30 -8 26 -32
l-11 -63c87 83 153 101 203 101c76 0 82 -35 79 -54zM222 -122c-13 -77 -92 -117 -114 -117c-8 0 -14 8 -12 15c0 5 6 9 10 10c29 9 77 30 87 89c-9 -4 -17 -6 -28 -6c-20 0 -35 15 -31 39c3 20 21 37 45 37c29 0 49 -26 43 -67z" />
    <glyph glyph-name="Rcaron" unicode="&#x158;" 
d="M534 86c-5 -35 -37 -97 -95 -97c-30 0 -53 13 -64 38c-15 35 -9 66 1 130c8 47 11 72 -10 96c-31 31 -65 31 -86 31h-91l-40 -242h36c12 0 31 0 28 -21c-4 -21 -24 -21 -35 -21h-123c-11 0 -31 0 -27 21c3 21 22 21 34 21h36l88 527h-36c-11 0 -31 0 -28 20
c4 22 23 22 35 22h183c115 0 177 -79 163 -163c-7 -40 -35 -99 -120 -143c23 -20 41 -40 49 -68c5 -22 3 -31 -7 -93s-13 -113 20 -113c22 0 38 46 40 57c4 21 20 21 28 21s25 0 21 -23zM453 448c9 53 -28 121 -131 121h-85l-40 -242h85c102 0 162 66 171 121zM526 728
c-1 -8 -12 -17 -25 -22l-116 -40c-10 -3 -18 -3 -26 0l-100 40c-13 5 -20 14 -19 22c2 12 11 22 28 22c6 0 19 -4 29 -7l84 -30l94 30c10 3 25 7 31 7c17 0 22 -10 20 -22z" />
    <glyph glyph-name="rcaron" unicode="&#x159;" 
d="M547 377c-4 -21 -21 -34 -39 -34c-20 0 -31 17 -26 46c-142 0 -225 -105 -242 -207l-23 -140h125c12 0 32 0 29 -21c-4 -21 -24 -21 -36 -21h-269c-12 0 -31 0 -27 22c3 20 22 20 34 20h94l57 341h-94c-12 0 -31 0 -28 21c4 21 23 21 35 21h113c27 0 30 -8 26 -32
l-11 -63c87 83 153 101 203 101c76 0 82 -35 79 -54zM506 599c-1 -8 -14 -15 -26 -22l-114 -66c-12 -7 -24 -7 -34 0l-94 66c-10 7 -19 14 -18 22c2 12 11 22 28 22c6 0 18 -9 27 -15l80 -54l98 54c11 6 27 15 33 15c17 0 22 -10 20 -22z" />
    <glyph glyph-name="Sacute" unicode="&#x15a;" 
d="M496 161c-15 -87 -100 -172 -213 -172c-64 0 -122 15 -168 54c-18 -41 -24 -54 -41 -54c-21 0 -17 20 -15 32l22 136c3 15 6 32 32 32c23 0 21 -14 20 -26c-2 -21 -5 -68 37 -98c38 -29 90 -34 121 -34c88 0 147 67 157 125c16 97 -71 120 -102 127l-113 28
c-77 23 -112 87 -101 152c14 83 101 159 209 159c45 0 96 -11 141 -56c18 40 25 56 42 56c21 0 17 -20 15 -32l-22 -136c-3 -15 -6 -32 -32 -32c-13 0 -20 3 -21 15c-1 40 -4 143 -131 143c-80 0 -143 -55 -153 -113c-9 -53 26 -93 72 -107l81 -19c75 -18 101 -24 135 -64
c10 -13 38 -54 28 -116zM489 765c-1 -8 -7 -18 -27 -26l-155 -64c-2 -1 -7 -2 -7 -2c-20 0 -20 25 -19 31c2 12 12 16 23 21l148 62c10 4 16 4 16 4c15 0 24 -11 21 -26z" />
    <glyph glyph-name="sacute" unicode="&#x15b;" 
d="M475 119c-8 -47 -53 -125 -207 -125c-27 0 -80 2 -132 46c-22 -44 -33 -46 -40 -46c-21 0 -18 20 -16 32l17 100c3 15 5 32 31 32c14 0 19 -5 21 -12c15 -97 75 -110 127 -110c103 0 150 41 157 83c10 59 -74 78 -128 87c-87 13 -190 29 -175 117c6 34 42 111 204 111
c19 0 63 0 113 -26c8 17 12 26 29 26c20 0 17 -20 15 -32l-12 -71c-2 -15 -5 -32 -31 -32c-16 0 -20 6 -21 15c2 41 -7 78 -102 78c-108 0 -148 -40 -153 -69c-8 -45 65 -63 98 -68l69 -12c30 -5 152 -25 136 -124zM462 597c-2 -9 -8 -19 -28 -27l-155 -64
c-2 -1 -7 -1 -7 -1c-20 0 -20 24 -19 31c2 12 12 16 23 20l148 62c10 4 16 4 16 4c15 0 24 -11 22 -25z" />
    <glyph glyph-name="Scircumflex" unicode="&#x15c;" 
d="M496 161c-15 -87 -100 -172 -213 -172c-64 0 -122 15 -168 54c-18 -41 -24 -54 -41 -54c-21 0 -17 20 -15 32l22 136c3 15 6 32 32 32c23 0 21 -14 20 -26c-2 -21 -5 -68 37 -98c38 -29 90 -34 121 -34c88 0 147 67 157 125c16 97 -71 120 -102 127l-113 28
c-77 23 -112 87 -101 152c14 83 101 159 209 159c45 0 96 -11 141 -56c18 40 25 56 42 56c21 0 17 -20 15 -32l-22 -136c-3 -15 -6 -32 -32 -32c-13 0 -20 3 -21 15c-1 40 -4 143 -131 143c-80 0 -143 -55 -153 -113c-9 -53 26 -93 72 -107l81 -19c75 -18 101 -24 135 -64
c10 -13 38 -54 28 -116zM519 685c-2 -12 -11 -22 -28 -22c-6 0 -19 4 -28 7l-84 30l-94 -30c-11 -3 -26 -7 -32 -7c-17 0 -22 10 -20 22c1 8 12 17 26 22l115 40c10 3 18 3 26 0l101 -40c12 -5 19 -14 18 -22z" />
    <glyph glyph-name="scircumflex" unicode="&#x15d;" 
d="M475 119c-8 -47 -53 -125 -207 -125c-27 0 -80 2 -132 46c-22 -44 -33 -46 -40 -46c-21 0 -18 20 -16 32l17 100c3 15 5 32 31 32c14 0 19 -5 21 -12c15 -97 75 -110 127 -110c103 0 150 41 157 83c10 59 -74 78 -128 87c-87 13 -190 29 -175 117c6 34 42 111 204 111
c19 0 63 0 113 -26c8 17 12 26 29 26c20 0 17 -20 15 -32l-12 -71c-2 -15 -5 -32 -31 -32c-16 0 -20 6 -21 15c2 41 -7 78 -102 78c-108 0 -148 -40 -153 -69c-8 -45 65 -63 98 -68l69 -12c30 -5 152 -25 136 -124zM494 528c-2 -12 -11 -22 -28 -22c-6 0 -18 9 -27 15
l-80 54l-98 -54c-11 -6 -27 -15 -33 -15c-17 0 -22 10 -20 22c1 8 14 15 26 22l114 66c12 7 24 7 34 0l94 -66c10 -7 19 -14 18 -22z" />
    <glyph glyph-name="Scedilla" unicode="&#x15e;" 
d="M496 161c-13 -79 -84 -156 -191 -172l-5 -29c74 -14 94 -55 88 -91c-16 -95 -156 -95 -249 -95c-10 0 -21 5 -18 21c3 22 24 22 55 22c43 0 154 7 161 52c4 24 -18 49 -70 51c-23 2 -20 18 -18 33l6 37c-58 6 -101 20 -140 53c-18 -41 -24 -54 -41 -54
c-21 0 -17 20 -15 32l22 136c3 15 6 32 32 32c23 0 21 -14 20 -26c-2 -21 -5 -68 37 -98c38 -29 90 -34 121 -34c88 0 147 67 157 125c16 97 -71 120 -102 127l-113 28c-77 23 -112 87 -101 152c14 83 101 159 209 159c45 0 96 -11 141 -56c18 40 25 56 42 56
c21 0 17 -20 15 -32l-22 -136c-3 -15 -6 -32 -32 -32c-13 0 -20 3 -21 15c-1 40 -4 143 -131 143c-80 0 -143 -55 -153 -113c-9 -53 26 -93 72 -107l81 -19c75 -18 101 -24 135 -64c10 -13 38 -54 28 -116z" />
    <glyph glyph-name="scedilla" unicode="&#x15f;" 
d="M475 119c-13 -75 -88 -117 -169 -123l-4 -25c24 -2 99 -22 88 -91c-16 -95 -156 -95 -249 -95c-10 0 -21 6 -18 22c3 21 24 21 55 21c43 0 153 7 161 52c4 24 -18 49 -70 52c-23 1 -21 17 -18 33l5 29c-38 3 -77 10 -120 46c-22 -44 -33 -46 -40 -46c-21 0 -18 20 -16 32
l17 100c3 15 5 32 31 32c14 0 19 -5 21 -12c15 -97 75 -110 127 -110c103 0 150 41 157 83c10 59 -74 78 -128 87c-87 13 -190 29 -175 117c6 34 42 111 204 111c19 0 63 0 113 -26c8 17 12 26 29 26c20 0 17 -20 15 -32l-12 -71c-2 -15 -5 -32 -31 -32c-16 0 -20 6 -21 15
c2 41 -7 78 -102 78c-108 0 -148 -40 -153 -69c-8 -45 65 -63 98 -68l69 -12c30 -5 152 -25 136 -124z" />
    <glyph glyph-name="Scaron" unicode="&#x160;" 
d="M496 161c-15 -87 -100 -172 -213 -172c-64 0 -122 15 -168 54c-18 -41 -24 -54 -41 -54c-21 0 -17 20 -15 32l22 136c3 15 6 32 32 32c23 0 21 -14 20 -26c-2 -21 -5 -68 37 -98c38 -29 90 -34 121 -34c88 0 147 67 157 125c16 97 -71 120 -102 127l-113 28
c-77 23 -112 87 -101 152c14 83 101 159 209 159c45 0 96 -11 141 -56c18 40 25 56 42 56c21 0 17 -20 15 -32l-22 -136c-3 -15 -6 -32 -32 -32c-13 0 -20 3 -21 15c-1 40 -4 143 -131 143c-80 0 -143 -55 -153 -113c-9 -53 26 -93 72 -107l81 -19c75 -18 101 -24 135 -64
c10 -13 38 -54 28 -116zM526 728c-1 -8 -12 -17 -25 -22l-116 -40c-10 -3 -18 -3 -26 0l-100 40c-13 5 -20 14 -19 22c2 12 11 22 28 22c6 0 19 -4 29 -7l84 -30l94 30c10 3 25 7 31 7c17 0 22 -10 20 -22z" />
    <glyph glyph-name="scaron" unicode="&#x161;" 
d="M475 119c-8 -47 -53 -125 -207 -125c-27 0 -80 2 -132 46c-22 -44 -33 -46 -40 -46c-21 0 -18 20 -16 32l17 100c3 15 5 32 31 32c14 0 19 -5 21 -12c15 -97 75 -110 127 -110c103 0 150 41 157 83c10 59 -74 78 -128 87c-87 13 -190 29 -175 117c6 34 42 111 204 111
c19 0 63 0 113 -26c8 17 12 26 29 26c20 0 17 -20 15 -32l-12 -71c-2 -15 -5 -32 -31 -32c-16 0 -20 6 -21 15c2 41 -7 78 -102 78c-108 0 -148 -40 -153 -69c-8 -45 65 -63 98 -68l69 -12c30 -5 152 -25 136 -124zM506 599c-1 -8 -14 -15 -26 -22l-114 -66
c-12 -7 -24 -7 -34 0l-94 66c-10 7 -19 14 -18 22c2 12 11 22 28 22c6 0 18 -9 27 -15l80 -54l98 54c11 6 27 15 33 15c17 0 22 -10 20 -22z" />
    <glyph glyph-name="Tcedilla" unicode="&#x162;" 
d="M580 503c-3 -15 -5 -32 -31 -32c-25 0 -22 18 -20 32l11 66h-157l-88 -527h64c12 0 31 0 28 -21c-4 -21 -24 -21 -35 -21h-65c-1 -8 -3 -18 -5 -31c73 -15 93 -55 87 -92c-16 -95 -155 -95 -248 -95c-11 0 -21 6 -18 22c3 21 23 21 55 21c42 0 153 7 161 52
c4 24 -18 49 -70 52c-24 1 -22 17 -19 33l5 28c0 3 1 7 2 10h-64c-12 0 -31 0 -27 22c3 20 23 20 34 20h64l88 527h-158l-11 -66c-3 -15 -5 -32 -31 -32c-25 0 -22 18 -20 32l13 76c4 26 12 32 37 32h405c26 0 30 -8 26 -32z" />
    <glyph glyph-name="tcedilla" unicode="&#x163;" 
d="M465 120c-13 -75 -80 -115 -144 -124c0 -7 -2 -16 -4 -27c73 -15 93 -55 87 -92c-16 -95 -155 -95 -248 -95c-11 0 -21 6 -18 22c3 21 23 21 55 21c42 0 153 7 161 52c4 24 -18 49 -70 52c-24 1 -22 17 -19 33l5 28l1 5c-59 7 -105 43 -91 125l44 263h-102
c-11 0 -31 0 -28 20c4 22 24 22 36 22h101l16 95c2 15 5 32 30 32s22 -18 20 -32l-16 -95h180c12 0 31 0 27 -22c-3 -20 -23 -20 -34 -20h-180l-43 -257c-5 -29 -15 -90 75 -90c27 0 95 12 108 85c2 13 5 29 30 29c26 0 23 -16 21 -30z" />
    <glyph glyph-name="Tcaron" unicode="&#x164;" 
d="M580 503c-3 -15 -5 -32 -31 -32c-25 0 -22 18 -20 32l11 66h-157l-88 -527h64c12 0 31 0 28 -21c-4 -21 -24 -21 -35 -21h-179c-12 0 -31 0 -27 22c3 20 23 20 34 20h64l88 527h-158l-11 -66c-3 -15 -5 -32 -31 -32c-25 0 -22 18 -20 32l13 76c4 26 12 32 37 32h405
c26 0 30 -8 26 -32zM526 728c-1 -8 -12 -17 -25 -22l-116 -40c-10 -3 -18 -3 -26 0l-100 40c-13 5 -20 14 -19 22c2 12 11 22 28 22c6 0 19 -4 29 -7l84 -30l94 30c10 3 25 7 31 7c17 0 22 -10 20 -22z" />
    <glyph glyph-name="tcaron" unicode="&#x165;" 
d="M465 120c-14 -86 -100 -126 -171 -126c-70 0 -129 34 -114 126l44 263h-102c-11 0 -31 0 -28 20c4 22 24 22 36 22h101l16 95c2 15 5 32 30 32s22 -18 20 -32l-16 -95h180c12 0 31 0 27 -22c-3 -20 -23 -20 -34 -20h-180l-43 -257c-5 -29 -15 -90 75 -90
c27 0 95 12 108 85c2 13 5 29 30 29c26 0 23 -16 21 -30zM456 586c-13 -77 -92 -117 -114 -117c-8 0 -13 8 -12 15c1 5 6 9 10 10c29 9 77 30 87 89c-8 -4 -17 -6 -28 -6c-20 0 -35 15 -31 39c3 20 21 37 45 37c29 0 50 -26 43 -67z" />
    <glyph glyph-name="Utilde" unicode="&#x168;" 
d="M616 590c-3 -21 -23 -21 -35 -21h-41l-61 -368c-21 -121 -121 -212 -219 -212s-168 91 -147 212l61 368h-41c-12 0 -32 0 -29 21c4 21 24 21 36 21h133c11 0 32 0 28 -21c-3 -21 -24 -21 -35 -21h-41l-61 -363c-19 -119 44 -175 103 -175c58 0 142 56 161 175l61 363h-41
c-11 0 -32 0 -29 21c4 21 25 21 36 21h133c12 0 32 0 28 -21zM558 743c-2 -13 -35 -35 -55 -48c-25 -17 -54 -32 -80 -32c-20 0 -33 8 -44 18c-27 29 -35 38 -48 38c-15 0 -48 -16 -87 -48c-6 -4 -12 -8 -20 -8c-11 0 -20 11 -18 22c2 14 35 35 55 49c25 16 55 32 80 32
c20 0 33 -9 44 -18c27 -29 35 -39 48 -39c15 0 48 17 87 48c6 5 12 9 20 9c11 0 20 -11 18 -23z" />
    <glyph glyph-name="utilde" unicode="&#x169;" 
d="M514 22c-4 -22 -24 -22 -36 -22h-75c-14 0 -31 0 -25 43c-58 -39 -101 -49 -141 -49c-70 0 -132 22 -117 114l46 275h-57c-11 0 -31 0 -28 20c4 22 24 22 36 22h75c27 0 30 -8 26 -32l-47 -279c-6 -38 -13 -78 79 -78c37 0 130 14 147 116l39 231h-57c-11 0 -31 0 -28 20
c4 22 24 22 36 22h75c27 0 30 -8 26 -32l-59 -351h57c11 0 31 0 28 -20zM533 592c-2 -13 -35 -35 -55 -48c-25 -16 -54 -32 -80 -32c-20 0 -33 8 -44 18c-27 29 -35 39 -48 39c-15 0 -48 -17 -87 -49c-6 -4 -12 -8 -20 -8c-11 0 -20 11 -18 22c2 14 35 35 55 49
c25 16 55 32 80 32c20 0 33 -9 44 -18c27 -29 35 -39 48 -39c15 0 48 17 87 48c6 5 12 9 20 9c11 0 20 -11 18 -23z" />
    <glyph glyph-name="Umacron" unicode="&#x16a;" 
d="M616 590c-3 -21 -23 -21 -35 -21h-41l-61 -368c-21 -121 -121 -212 -219 -212s-168 91 -147 212l61 368h-41c-12 0 -32 0 -29 21c4 21 24 21 36 21h133c11 0 32 0 28 -21c-3 -21 -24 -21 -35 -21h-41l-61 -363c-19 -119 44 -175 103 -175c58 0 142 56 161 175l61 363h-41
c-11 0 -32 0 -29 21c4 21 25 21 36 21h133c12 0 32 0 28 -21zM565 704c-3 -21 -22 -21 -34 -21h-307c-13 0 -32 0 -29 22c4 22 23 22 35 22h308c13 0 31 0 27 -23z" />
    <glyph glyph-name="umacron" unicode="&#x16b;" 
d="M514 22c-4 -22 -24 -22 -36 -22h-75c-14 0 -31 0 -25 43c-58 -39 -101 -49 -141 -49c-70 0 -132 22 -117 114l46 275h-57c-11 0 -31 0 -28 20c4 22 24 22 36 22h75c27 0 30 -8 26 -32l-47 -279c-6 -38 -13 -78 79 -78c37 0 130 14 147 116l39 231h-57c-11 0 -31 0 -28 20
c4 22 24 22 36 22h75c27 0 30 -8 26 -32l-59 -351h57c11 0 31 0 28 -20zM542 563c-4 -21 -23 -21 -35 -21h-307c-13 0 -32 0 -28 22s23 22 35 22h308c13 0 31 0 27 -23z" />
    <glyph glyph-name="Ubreve" unicode="&#x16c;" 
d="M616 590c-3 -21 -23 -21 -35 -21h-41l-61 -368c-21 -121 -121 -212 -219 -212s-168 91 -147 212l61 368h-41c-12 0 -32 0 -29 21c4 21 24 21 36 21h133c11 0 32 0 28 -21c-3 -21 -24 -21 -35 -21h-41l-61 -363c-19 -119 44 -175 103 -175c58 0 142 56 161 175l61 363h-41
c-11 0 -32 0 -29 21c4 21 25 21 36 21h133c12 0 32 0 28 -21zM559 747c-12 -74 -120 -74 -184 -74s-172 0 -160 74c3 13 13 22 26 22c11 0 15 -5 16 -11c4 -34 77 -40 126 -40c48 0 124 6 138 40c3 6 9 11 20 11c14 0 21 -9 18 -22z" />
    <glyph glyph-name="ubreve" unicode="&#x16d;" 
d="M514 22c-4 -22 -24 -22 -36 -22h-75c-14 0 -31 0 -25 43c-58 -39 -101 -49 -141 -49c-70 0 -132 22 -117 114l46 275h-57c-11 0 -31 0 -28 20c4 22 24 22 36 22h75c27 0 30 -8 26 -32l-47 -279c-6 -38 -13 -78 79 -78c37 0 130 14 147 116l39 231h-57c-11 0 -31 0 -28 20
c4 22 24 22 36 22h75c27 0 30 -8 26 -32l-59 -351h57c11 0 31 0 28 -20zM533 590c-12 -74 -120 -74 -184 -74s-172 0 -160 74c3 14 13 22 26 22c11 0 15 -5 16 -11c4 -34 77 -40 126 -40c48 0 124 6 138 40c3 6 9 11 20 11c14 0 21 -8 18 -22z" />
    <glyph glyph-name="Uring" unicode="&#x16e;" 
d="M616 590c-3 -21 -23 -21 -35 -21h-41l-61 -368c-21 -121 -121 -212 -219 -212s-168 91 -147 212l61 368h-41c-12 0 -32 0 -29 21c4 21 24 21 36 21h133c11 0 32 0 28 -21c-3 -21 -24 -21 -35 -21h-41l-61 -363c-19 -119 44 -175 103 -175c58 0 142 56 161 175l61 363h-41
c-11 0 -32 0 -29 21c4 21 25 21 36 21h133c12 0 32 0 28 -21zM431 694c3 23 -19 36 -46 36s-55 -13 -58 -36c-4 -22 19 -34 46 -34s54 12 58 34zM481 694c-7 -38 -55 -71 -114 -71s-97 33 -90 71c6 39 55 73 114 73s96 -34 90 -73z" />
    <glyph glyph-name="uring" unicode="&#x16f;" 
d="M514 22c-4 -22 -24 -22 -36 -22h-75c-14 0 -31 0 -25 43c-58 -39 -101 -49 -141 -49c-70 0 -132 22 -117 114l46 275h-57c-11 0 -31 0 -28 20c4 22 24 22 36 22h75c27 0 30 -8 26 -32l-47 -279c-6 -38 -13 -78 79 -78c37 0 130 14 147 116l39 231h-57c-11 0 -31 0 -28 20
c4 22 24 22 36 22h75c27 0 30 -8 26 -32l-59 -351h57c11 0 31 0 28 -20zM409 563c4 23 -19 36 -46 36s-54 -13 -58 -36c-4 -22 19 -34 46 -34s54 12 58 34zM459 563c-6 -38 -55 -71 -114 -71s-96 33 -90 71c6 39 55 73 114 73s96 -34 90 -73z" />
    <glyph glyph-name="Uhungarumlaut" unicode="&#x170;" 
d="M616 590c-3 -21 -23 -21 -35 -21h-41l-61 -368c-21 -121 -121 -212 -219 -212s-168 91 -147 212l61 368h-41c-12 0 -32 0 -29 21c4 21 24 21 36 21h133c11 0 32 0 28 -21c-3 -21 -24 -21 -35 -21h-41l-61 -363c-19 -119 44 -175 103 -175c58 0 142 56 161 175l61 363h-41
c-11 0 -32 0 -29 21c4 21 25 21 36 21h133c12 0 32 0 28 -21zM358 771c-1 -9 -18 -22 -31 -32l-55 -45c-9 -7 -27 -21 -35 -21c-13 0 -25 17 -23 30c1 5 8 12 13 16l75 62c13 10 23 15 35 17c14 0 24 -13 21 -27zM559 771c-1 -9 -18 -22 -31 -32l-55 -45
c-9 -7 -27 -21 -35 -21c-13 0 -25 17 -23 30c1 5 8 12 13 16l75 62c13 10 23 15 35 17c14 0 24 -13 21 -27z" />
    <glyph glyph-name="uhungarumlaut" unicode="&#x171;" 
d="M514 22c-4 -22 -24 -22 -36 -22h-75c-14 0 -31 0 -25 43c-58 -39 -101 -49 -141 -49c-70 0 -132 22 -117 114l46 275h-57c-11 0 -31 0 -28 20c4 22 24 22 36 22h75c27 0 30 -8 26 -32l-47 -279c-6 -38 -13 -78 79 -78c37 0 130 14 147 116l39 231h-57c-11 0 -31 0 -28 20
c4 22 24 22 36 22h75c27 0 30 -8 26 -32l-59 -351h57c11 0 31 0 28 -20zM330 599c-2 -9 -19 -22 -31 -32l-56 -45c-8 -7 -26 -21 -34 -21c-13 0 -26 17 -23 30c0 5 8 12 12 16l76 62c12 10 22 15 34 17c14 0 24 -13 22 -27zM531 599c-2 -9 -19 -22 -31 -32l-56 -45
c-8 -7 -26 -21 -34 -21c-13 0 -26 17 -23 30c0 5 8 12 12 16l76 62c12 10 22 15 34 17c14 0 24 -13 22 -27z" />
    <glyph glyph-name="Uogonek" unicode="&#x172;" 
d="M616 590c-3 -21 -23 -21 -35 -21h-41l-61 -368c-18 -107 -89 -182 -177 -203c-44 -27 -82 -75 -90 -122c-5 -31 25 -51 48 -51s54 23 71 42c4 4 18 8 24 3s4 -17 -1 -23c-28 -32 -68 -57 -104 -57c-59 0 -84 48 -77 88c5 35 28 74 78 113c-106 17 -157 98 -138 210
l61 368h-41c-12 0 -32 0 -29 21c4 21 24 21 36 21h133c11 0 32 0 28 -21c-3 -21 -24 -21 -35 -21h-41l-61 -363c-19 -119 44 -175 103 -175c58 0 142 56 161 175l61 363h-41c-11 0 -32 0 -29 21c4 21 25 21 36 21h133c12 0 32 0 28 -21z" />
    <glyph glyph-name="uogonek" unicode="&#x173;" 
d="M503 -153c-28 -32 -68 -57 -104 -57c-59 0 -84 48 -77 88c6 40 34 78 98 122c-43 0 -48 2 -42 43c-58 -39 -101 -49 -141 -49c-70 0 -132 22 -117 114l46 275h-57c-11 0 -31 0 -28 20c4 22 24 22 36 22h75c27 0 30 -8 26 -32l-47 -279c-6 -38 -13 -78 79 -78
c37 0 130 14 147 116l39 231h-57c-11 0 -31 0 -28 20c4 22 24 22 36 22h75c27 0 30 -8 26 -32l-59 -351h57c11 0 31 0 28 -20c-4 -22 -24 -22 -36 -22h-10c-50 -26 -98 -72 -107 -124c-5 -31 25 -51 48 -51s54 23 70 42c5 4 18 10 25 3c6 -6 4 -17 -1 -23z" />
    <glyph glyph-name="Wcircumflex" unicode="&#x174;" 
d="M609 589c-3 -20 -24 -20 -41 -20l-167 -550c-8 -27 -31 -27 -41 -27c-5 0 -29 0 -30 18l-15 302l-119 -306c-10 -14 -27 -14 -34 -14c-10 0 -33 0 -33 27l17 550h-10c-7 0 -28 0 -25 20c4 22 25 22 36 22h82c12 0 31 0 27 -22c-3 -20 -23 -20 -34 -20h-34l-22 -535h4
l116 309c7 17 28 16 36 16c7 0 30 1 31 -17l12 -308h4l157 535h-34c-11 0 -31 0 -28 20c4 22 23 22 35 22h82c11 0 32 0 28 -22zM519 685c-2 -12 -11 -22 -28 -22c-6 0 -19 4 -28 7l-84 30l-94 -30c-11 -3 -26 -7 -32 -7c-17 0 -22 10 -20 22c1 8 12 17 26 22l115 40
c10 3 18 3 26 0l101 -40c12 -5 19 -14 18 -22z" />
    <glyph glyph-name="wcircumflex" unicode="&#x175;" 
d="M573 404c-3 -21 -19 -21 -52 -21l-123 -356c-6 -18 -13 -31 -43 -31c-9 0 -27 0 -35 12l-18 197h-6l-78 -181c-10 -24 -23 -28 -48 -28c-33 0 -35 12 -34 31l-5 356c-33 0 -49 0 -46 21c4 21 23 21 37 21h119c14 0 33 0 29 -22c-3 -20 -22 -20 -36 -20h-59l2 -345h6
l87 192c8 17 27 17 35 17c28 0 32 -10 32 -18l17 -191h6l117 345h-59c-14 0 -33 0 -30 21c4 21 23 21 37 21h119c13 0 33 0 29 -21zM494 528c-2 -12 -11 -22 -28 -22c-6 0 -18 9 -27 15l-80 54l-98 -54c-11 -6 -27 -15 -33 -15c-17 0 -22 10 -20 22c1 8 14 15 26 22l114 66
c12 7 24 7 34 0l94 -66c10 -7 19 -14 18 -22z" />
    <glyph glyph-name="Ycircumflex" unicode="&#x176;" 
d="M601 589c-3 -20 -23 -20 -34 -20h-28l-210 -325l-34 -202h36c12 0 31 0 28 -21c-4 -21 -24 -21 -35 -21h-123c-12 0 -31 0 -27 22c3 20 23 20 34 20h36l34 202l-103 325h-28c-12 0 -31 0 -28 21c4 21 24 21 35 21h108c11 0 31 0 27 -21c-3 -21 -22 -21 -57 -21l79 -280
l170 280c-34 0 -53 0 -50 21c4 21 24 21 35 21h108c12 0 31 0 27 -22zM519 685c-2 -12 -11 -22 -28 -22c-6 0 -19 4 -28 7l-84 30l-94 -30c-11 -3 -26 -7 -32 -7c-17 0 -22 10 -20 22c1 8 12 17 26 22l115 40c10 3 18 3 26 0l101 -40c12 -5 19 -14 18 -22z" />
    <glyph glyph-name="ycircumflex" unicode="&#x177;" 
d="M565 403c-3 -20 -23 -20 -34 -20h-38l-242 -478c-6 -11 -76 -141 -169 -141c-44 0 -69 37 -63 75c3 20 19 35 41 35c20 0 32 -14 28 -34c-2 -11 -9 -20 -9 -20s4 -13 10 -13c30 0 54 4 97 65c18 26 61 115 61 115c1 3 -89 396 -89 396h-35c-11 0 -31 0 -28 20
c4 22 23 22 35 22h121c12 0 31 0 27 -22c-3 -20 -23 -20 -34 -20h-41l74 -348l173 348h-40c-12 0 -31 0 -28 21c4 21 24 21 35 21h121c12 0 31 0 27 -22zM494 528c-2 -12 -11 -22 -28 -22c-6 0 -18 9 -27 15l-80 54l-98 -54c-11 -6 -27 -15 -33 -15c-17 0 -22 10 -20 22
c1 8 14 15 26 22l114 66c12 7 24 7 34 0l94 -66c10 -7 19 -14 18 -22z" />
    <glyph glyph-name="Ydieresis" unicode="&#x178;" 
d="M601 589c-3 -20 -23 -20 -34 -20h-28l-210 -325l-34 -202h36c12 0 31 0 28 -21c-4 -21 -24 -21 -35 -21h-123c-12 0 -31 0 -27 22c3 20 23 20 34 20h36l34 202l-103 325h-28c-12 0 -31 0 -28 21c4 21 24 21 35 21h108c11 0 31 0 27 -21c-3 -21 -22 -21 -57 -21l79 -280
l170 280c-34 0 -53 0 -50 21c4 21 24 21 35 21h108c12 0 31 0 27 -22zM314 699c-3 -20 -22 -36 -42 -36s-33 16 -30 36c4 21 22 36 42 36s34 -15 30 -36zM515 699c-3 -20 -22 -36 -42 -36s-33 16 -30 36c4 21 22 36 42 36s34 -15 30 -36z" />
    <glyph glyph-name="Zacute" unicode="&#x179;" 
d="M483 32c-4 -25 -10 -32 -36 -32h-364c-14 0 -32 0 -28 25c2 8 2 13 14 26l437 518h-297l-11 -66c-3 -15 -5 -32 -31 -32c-25 0 -22 18 -20 32l13 76c4 26 12 32 38 32h345c14 0 32 0 28 -25c-2 -8 -2 -13 -14 -26l-437 -518h314l14 85c3 15 6 32 32 32
c25 0 22 -17 19 -32zM489 765c-1 -8 -7 -18 -27 -26l-155 -64c-2 -1 -7 -2 -7 -2c-20 0 -20 25 -19 31c2 12 12 16 23 21l148 62c10 4 16 4 16 4c15 0 24 -11 21 -26z" />
    <glyph glyph-name="zacute" unicode="&#x17a;" 
d="M477 32c-1 -11 -4 -27 -19 -32h-390c-15 0 -32 0 -28 25c3 14 4 17 25 34l395 324h-293l-6 -38c-3 -15 -6 -32 -32 -32c-25 0 -22 18 -19 32l8 48c4 26 11 32 37 32h352c14 0 32 0 28 -25c-3 -14 -5 -17 -26 -34l-395 -324h314l8 50c3 15 6 32 32 32c25 0 22 -18 19 -32z
M462 597c-2 -9 -8 -19 -28 -27l-155 -64c-2 -1 -7 -1 -7 -1c-20 0 -20 24 -19 31c2 12 12 16 23 20l148 62c10 4 16 4 16 4c15 0 24 -11 22 -25z" />
    <glyph glyph-name="Zdotaccent" unicode="&#x17b;" 
d="M483 32c-4 -25 -10 -32 -36 -32h-364c-14 0 -32 0 -28 25c2 8 2 13 14 26l437 518h-297l-11 -66c-3 -15 -5 -32 -31 -32c-25 0 -22 18 -20 32l13 76c4 26 12 32 38 32h345c14 0 32 0 28 -25c-2 -8 -2 -13 -14 -26l-437 -518h314l14 85c3 15 6 32 32 32
c25 0 22 -17 19 -32zM423 715c-4 -23 -25 -41 -48 -41s-38 18 -34 41s25 42 48 42s38 -19 34 -42z" />
    <glyph glyph-name="zdotaccent" unicode="&#x17c;" 
d="M477 32c-1 -11 -4 -27 -19 -32h-390c-15 0 -32 0 -28 25c3 14 4 17 25 34l395 324h-293l-6 -38c-3 -15 -6 -32 -32 -32c-25 0 -22 18 -19 32l8 48c4 26 11 32 37 32h352c14 0 32 0 28 -25c-3 -14 -5 -17 -26 -34l-395 -324h314l8 50c3 15 6 32 32 32c25 0 22 -18 19 -32z
M398 563c-4 -23 -25 -41 -48 -41s-38 18 -34 41c4 24 25 42 48 42s38 -18 34 -42z" />
    <glyph glyph-name="Zcaron" unicode="&#x17d;" 
d="M483 32c-4 -25 -10 -32 -36 -32h-364c-14 0 -32 0 -28 25c2 8 2 13 14 26l437 518h-297l-11 -66c-3 -15 -5 -32 -31 -32c-25 0 -22 18 -20 32l13 76c4 26 12 32 38 32h345c14 0 32 0 28 -25c-2 -8 -2 -13 -14 -26l-437 -518h314l14 85c3 15 6 32 32 32
c25 0 22 -17 19 -32zM526 728c-1 -8 -12 -17 -25 -22l-116 -40c-10 -3 -18 -3 -26 0l-100 40c-13 5 -20 14 -19 22c2 12 11 22 28 22c6 0 19 -4 29 -7l84 -30l94 30c10 3 25 7 31 7c17 0 22 -10 20 -22z" />
    <glyph glyph-name="zcaron" unicode="&#x17e;" 
d="M477 32c-1 -11 -4 -27 -19 -32h-390c-15 0 -32 0 -28 25c3 14 4 17 25 34l395 324h-293l-6 -38c-3 -15 -6 -32 -32 -32c-25 0 -22 18 -19 32l8 48c4 26 11 32 37 32h352c14 0 32 0 28 -25c-3 -14 -5 -17 -26 -34l-395 -324h314l8 50c3 15 6 32 32 32c25 0 22 -18 19 -32z
M506 599c-1 -8 -14 -15 -26 -22l-114 -66c-12 -7 -24 -7 -34 0l-94 66c-10 7 -19 14 -18 22c2 12 11 22 28 22c6 0 18 -9 27 -15l80 -54l98 54c11 6 27 15 33 15c17 0 22 -10 20 -22z" />
    <glyph glyph-name="longs" unicode="&#x17f;" 
d="M527 566c-3 -23 -25 -36 -41 -36c-35 0 -29 31 -27 45c-45 0 -121 -1 -136 -91l-74 -442h115c11 0 32 0 29 -21c-4 -21 -25 -21 -36 -21h-280c-11 0 -32 0 -28 22c3 20 24 20 35 20h115l57 341h-115c-11 0 -31 0 -28 20c4 22 24 22 36 22h114l11 65c14 84 96 127 173 127
c14 0 89 0 80 -51z" />
    <glyph glyph-name="Ereversed" unicode="&#x18e;" 
d="M504 21c-4 -21 -25 -21 -36 -21h-409c-25 0 -30 7 -26 32l16 92c2 15 5 32 30 32c26 0 23 -17 21 -32l-14 -82h297l42 254h-157c-7 -44 -9 -59 -34 -59s-23 17 -20 32l16 96c2 14 5 32 30 32s23 -15 15 -59h157l39 231h-274l-11 -66c-2 -14 -5 -32 -30 -32
c-26 0 -24 17 -21 32l13 76c4 24 10 32 36 32h386c11 0 32 0 28 -21c-3 -21 -24 -21 -35 -21h-42l-88 -527h42c12 0 32 0 29 -21z" />
    <glyph glyph-name="florin" unicode="&#x192;" 
d="M527 566c-3 -23 -25 -36 -41 -36c-27 0 -29 31 -27 45c-45 0 -121 -1 -136 -91l-10 -59h137c12 0 31 0 27 -22c-3 -20 -23 -20 -34 -20h-137l-57 -341h115c11 0 32 0 29 -21c-4 -21 -25 -21 -36 -21h-280c-11 0 -32 0 -28 22c3 20 24 20 35 20h115l57 341h-115
c-11 0 -31 0 -28 20c4 22 24 22 36 22h114l11 65c14 84 96 127 173 127c14 0 89 0 80 -51z" />
    <glyph glyph-name="Ohorn" unicode="&#x1a0;" 
d="M602 654c-6 -36 -29 -72 -70 -93c14 -68 -4 -175 -17 -256c-15 -92 -37 -219 -78 -269c-39 -47 -113 -47 -178 -47c-64 0 -139 0 -161 47c-25 50 -3 177 12 269c15 93 37 220 78 270c38 47 113 47 177 47c51 0 108 0 144 -24c14 2 25 8 45 32c-27 10 -35 26 -32 43
c4 21 23 40 48 41c33 -1 36 -34 32 -60zM465 318c13 75 28 176 13 216c-17 43 -70 46 -120 46c-49 0 -104 -3 -135 -46c-30 -40 -47 -141 -60 -216c-13 -81 -31 -193 -15 -237c14 -44 68 -50 118 -50s107 6 137 50c29 44 49 156 62 237z" />
    <glyph glyph-name="ohorn" unicode="&#x1a1;" 
d="M498 212c-9 -57 -39 -113 -85 -154c-43 -40 -98 -64 -153 -64c-54 0 -101 24 -130 64c-32 41 -44 97 -35 154c10 58 39 114 86 156c43 41 98 65 152 65c33 0 64 -9 94 -29c45 4 53 20 61 40c-27 10 -34 25 -31 42c4 21 23 40 48 41c34 0 35 -33 31 -59
c-6 -37 -29 -74 -74 -96c36 -51 46 -105 36 -160zM449 221c7 44 -1 87 -24 120c-22 30 -58 50 -99 50c-40 0 -82 -20 -114 -50c-35 -33 -57 -76 -64 -120c-8 -47 -2 -93 22 -129c21 -34 56 -55 97 -55c42 0 84 21 116 55c36 36 58 82 66 129z" />
    <glyph glyph-name="Uhorn" unicode="&#x1af;" 
d="M633 655c-7 -43 -45 -79 -93 -86l-61 -368c-10 -56 -36 -108 -78 -150c-41 -38 -91 -62 -142 -62c-50 0 -93 24 -120 62c-27 42 -37 94 -27 150l61 368h-54c-10 0 -15 10 -15 20c2 12 10 22 22 22h159c13 0 17 -10 15 -22c-2 -10 -11 -20 -22 -20h-53l-61 -368
c-8 -46 -2 -89 18 -122c20 -30 50 -48 84 -48c35 0 71 18 101 48c32 33 52 76 60 122l61 368h-53c-11 0 -16 10 -16 20c2 12 10 22 23 22h86c6 0 26 -1 54 17c-26 15 -31 29 -29 45c4 21 23 40 48 41c33 -1 37 -33 32 -59z" />
    <glyph glyph-name="uhorn" unicode="&#x1b0;" 
d="M513 20c-2 -11 -12 -20 -23 -20h-100c-11 0 -17 9 -16 19l5 28c-21 -17 -88 -53 -138 -53c-41 0 -74 4 -100 26c-22 19 -28 51 -23 83l47 278h-70c-10 0 -16 10 -15 20c2 12 10 23 22 23h102c10 0 16 -8 15 -19l-51 -302c-4 -23 2 -41 13 -49c15 -13 36 -17 73 -17
c69 0 131 47 141 104l40 240h-69c-10 0 -16 10 -15 20c2 12 10 23 22 23h102c7 0 29 -1 58 18c-28 10 -30 29 -28 44c4 21 24 41 49 41c32 0 35 -33 31 -58c-7 -46 -47 -80 -99 -88l-57 -339h68c13 0 18 -10 16 -22z" />
    <glyph glyph-name="Acaron" unicode="&#x1cd;" 
d="M499 21c-4 -21 -26 -21 -39 -21h-105c-14 0 -33 0 -29 21c3 21 21 21 63 21l-6 129h-184l-50 -129c42 0 60 0 57 -21c-4 -21 -23 -21 -37 -21h-106c-12 0 -34 0 -30 21c1 9 6 16 15 20c6 1 27 1 48 1l219 550c13 31 27 31 51 31c26 0 38 0 41 -32l35 -549
c21 0 41 0 47 -1c9 -4 11 -11 10 -20zM379 213l-16 368h-7l-139 -368h162zM526 728c-1 -8 -12 -17 -25 -22l-116 -40c-10 -3 -18 -3 -26 0l-100 40c-13 5 -20 14 -19 22c2 12 11 22 28 22c6 0 19 -4 29 -7l84 -30l94 30c10 3 25 7 31 7c17 0 22 -10 20 -22z" />
    <glyph glyph-name="acaron" unicode="&#x1ce;" 
d="M517 22c-4 -22 -24 -22 -46 -22c-36 0 -83 0 -103 37c-61 -36 -124 -43 -160 -43c-99 0 -151 61 -140 128c16 95 149 141 334 144c15 90 -36 126 -121 126c-31 0 -69 -4 -72 -23c-6 -30 -31 -37 -43 -37c-19 0 -33 13 -29 37c10 65 109 65 150 65c140 0 181 -80 169 -150
l-38 -230c15 -6 29 -12 70 -12c12 0 32 0 29 -20zM379 128l17 98c-169 -5 -268 -51 -277 -104c-7 -45 32 -86 103 -86c8 0 57 0 99 19c50 21 54 46 58 73zM506 599c-1 -8 -14 -15 -26 -22l-114 -66c-12 -7 -24 -7 -34 0l-94 66c-10 7 -19 14 -18 22c2 12 11 22 28 22
c6 0 18 -9 27 -15l80 -54l98 54c11 6 27 15 33 15c17 0 22 -10 20 -22z" />
    <glyph glyph-name="Icaron" unicode="&#x1cf;" 
d="M446 21c-4 -21 -25 -21 -36 -21h-295c-11 0 -32 0 -28 22c3 20 24 20 35 20h122l88 527h-122c-11 0 -32 0 -29 21c4 21 25 21 36 21h295c11 0 32 0 28 -22c-3 -20 -24 -20 -35 -20h-122l-88 -527h122c11 0 32 0 29 -21zM526 728c-1 -8 -12 -17 -25 -22l-116 -40
c-10 -3 -18 -3 -26 0l-100 40c-13 5 -20 14 -19 22c2 12 11 22 28 22c6 0 19 -4 29 -7l84 -30l94 30c10 3 25 7 31 7c17 0 22 -10 20 -22z" />
    <glyph glyph-name="icaron" unicode="&#x1d0;" 
d="M455 21c-4 -21 -25 -21 -36 -21h-305c-11 0 -32 0 -28 21c3 21 23 21 35 21h136l57 341h-128c-11 0 -32 0 -29 21c4 21 25 21 36 21h147c27 0 30 -8 26 -32l-59 -351h119c11 0 32 0 29 -21zM506 599c-1 -8 -14 -15 -26 -22l-114 -66c-12 -7 -24 -7 -34 0l-94 66
c-10 7 -19 14 -18 22c2 12 11 22 28 22c6 0 18 -9 27 -15l80 -54l98 54c11 6 27 15 33 15c17 0 22 -10 20 -22z" />
    <glyph glyph-name="Ocaron" unicode="&#x1d1;" 
d="M516 305c-48 -288 -73 -316 -256 -316c-184 0 -198 28 -150 316c48 289 72 317 256 317s198 -29 150 -317zM466 314c11 64 24 143 19 192c-6 62 -42 74 -126 74c-92 0 -129 -15 -154 -81c-20 -49 -32 -120 -43 -185c-9 -57 -24 -148 -20 -202c3 -56 26 -81 125 -81
c100 0 132 25 155 88c21 56 34 130 44 195zM526 728c-1 -8 -12 -17 -25 -22l-116 -40c-10 -3 -18 -3 -26 0l-100 40c-13 5 -20 14 -19 22c2 12 11 22 28 22c6 0 19 -4 29 -7l84 -30l94 30c10 3 25 7 31 7c17 0 22 -10 20 -22z" />
    <glyph glyph-name="ocaron" unicode="&#x1d2;" 
d="M500 213c-21 -124 -131 -219 -239 -219s-186 94 -165 219c20 123 128 221 238 221s186 -98 166 -221zM450 220c17 101 -44 172 -123 172c-78 0 -162 -71 -179 -172c-17 -102 38 -184 120 -184c81 0 165 82 182 184zM506 599c-1 -8 -14 -15 -26 -22l-114 -66
c-12 -7 -24 -7 -34 0l-94 66c-10 7 -19 14 -18 22c2 12 11 22 28 22c6 0 18 -9 27 -15l80 -54l98 54c11 6 27 15 33 15c17 0 22 -10 20 -22z" />
    <glyph glyph-name="Ucaron" unicode="&#x1d3;" 
d="M616 590c-3 -21 -23 -21 -35 -21h-41l-61 -368c-21 -121 -121 -212 -219 -212s-168 91 -147 212l61 368h-41c-12 0 -32 0 -29 21c4 21 24 21 36 21h133c11 0 32 0 28 -21c-3 -21 -24 -21 -35 -21h-41l-61 -363c-19 -119 44 -175 103 -175c58 0 142 56 161 175l61 363h-41
c-11 0 -32 0 -29 21c4 21 25 21 36 21h133c12 0 32 0 28 -21zM526 728c-1 -8 -12 -17 -25 -22l-116 -40c-10 -3 -18 -3 -26 0l-100 40c-13 5 -20 14 -19 22c2 12 11 22 28 22c6 0 19 -4 29 -7l84 -30l94 30c10 3 25 7 31 7c17 0 22 -10 20 -22z" />
    <glyph glyph-name="ucaron" unicode="&#x1d4;" 
d="M514 22c-4 -22 -24 -22 -36 -22h-75c-14 0 -31 0 -25 43c-58 -39 -101 -49 -141 -49c-70 0 -132 22 -117 114l46 275h-57c-11 0 -31 0 -28 20c4 22 24 22 36 22h75c27 0 30 -8 26 -32l-47 -279c-6 -38 -13 -78 79 -78c37 0 130 14 147 116l39 231h-57c-11 0 -31 0 -28 20
c4 22 24 22 36 22h75c27 0 30 -8 26 -32l-59 -351h57c11 0 31 0 28 -20zM506 599c-1 -8 -14 -15 -26 -22l-114 -66c-12 -7 -24 -7 -34 0l-94 66c-10 7 -19 14 -18 22c2 12 11 22 28 22c6 0 18 -9 27 -15l80 -54l98 54c11 6 27 15 33 15c17 0 22 -10 20 -22z" />
    <glyph glyph-name="Udieresisacute" unicode="&#x1d7;" 
d="M616 590c-3 -21 -23 -21 -35 -21h-41l-61 -368c-21 -121 -121 -212 -219 -212s-168 91 -147 212l61 368h-41c-12 0 -32 0 -29 21c4 21 24 21 36 21h133c11 0 32 0 28 -21c-3 -21 -24 -21 -35 -21h-41l-61 -363c-19 -119 44 -175 103 -175c58 0 142 56 161 175l61 363h-41
c-11 0 -32 0 -29 21c4 21 25 21 36 21h133c12 0 32 0 28 -21zM314 699c-3 -20 -22 -36 -42 -36s-33 16 -30 36c4 21 22 36 42 36s34 -15 30 -36zM515 699c-3 -20 -22 -36 -42 -36s-33 16 -30 36c4 21 22 36 42 36s34 -15 30 -36zM510 888c-1 -8 -7 -18 -27 -26l-155 -64
c-2 -1 -7 -2 -7 -2c-20 0 -20 25 -19 31c2 12 12 16 23 21l148 62c10 4 16 4 16 4c15 0 24 -11 21 -26z" />
    <glyph glyph-name="udieresisacute" unicode="&#x1d8;" 
d="M514 22c-4 -22 -24 -22 -36 -22h-75c-14 0 -31 0 -25 43c-58 -39 -101 -49 -141 -49c-70 0 -132 22 -117 114l46 275h-57c-11 0 -31 0 -28 20c4 22 24 22 36 22h75c27 0 30 -8 26 -32l-47 -279c-6 -38 -13 -78 79 -78c37 0 130 14 147 116l39 231h-57c-11 0 -31 0 -28 20
c4 22 24 22 36 22h75c27 0 30 -8 26 -32l-59 -351h57c11 0 31 0 28 -20zM307 563c-3 -20 -22 -36 -42 -36s-33 16 -30 36c3 21 22 37 42 37s33 -16 30 -37zM478 563c-3 -20 -22 -36 -42 -36s-33 16 -30 36c3 21 22 37 42 37s33 -16 30 -37zM489 765c-1 -8 -7 -18 -27 -26
l-155 -64c-2 -1 -7 -2 -7 -2c-20 0 -20 25 -19 31c2 12 12 16 23 21l148 62c10 4 16 4 16 4c15 0 24 -11 21 -26z" />
    <glyph glyph-name="Udieresiscaron" unicode="&#x1d9;" 
d="M616 590c-3 -21 -23 -21 -35 -21h-41l-61 -368c-21 -121 -121 -212 -219 -212s-168 91 -147 212l61 368h-41c-12 0 -32 0 -29 21c4 21 24 21 36 21h133c11 0 32 0 28 -21c-3 -21 -24 -21 -35 -21h-41l-61 -363c-19 -119 44 -175 103 -175c58 0 142 56 161 175l61 363h-41
c-11 0 -32 0 -29 21c4 21 25 21 36 21h133c12 0 32 0 28 -21zM314 699c-3 -20 -22 -36 -42 -36s-33 16 -30 36c4 21 22 36 42 36s34 -15 30 -36zM515 699c-3 -20 -22 -36 -42 -36s-33 16 -30 36c4 21 22 36 42 36s34 -15 30 -36zM547 851c-1 -8 -12 -17 -25 -22l-116 -40
c-10 -3 -18 -3 -26 0l-100 40c-13 5 -20 14 -19 22c2 12 11 22 28 22c6 0 19 -4 29 -7l84 -30l94 30c10 3 25 7 31 7c17 0 22 -10 20 -22z" />
    <glyph glyph-name="udieresiscaron" unicode="&#x1da;" 
d="M514 22c-4 -22 -24 -22 -36 -22h-75c-14 0 -31 0 -25 43c-58 -39 -101 -49 -141 -49c-70 0 -132 22 -117 114l46 275h-57c-11 0 -31 0 -28 20c4 22 24 22 36 22h75c27 0 30 -8 26 -32l-47 -279c-6 -38 -13 -78 79 -78c37 0 130 14 147 116l39 231h-57c-11 0 -31 0 -28 20
c4 22 24 22 36 22h75c27 0 30 -8 26 -32l-59 -351h57c11 0 31 0 28 -20zM307 563c-3 -20 -22 -36 -42 -36s-33 16 -30 36c3 21 22 37 42 37s33 -16 30 -37zM478 563c-3 -20 -22 -36 -42 -36s-33 16 -30 36c3 21 22 37 42 37s33 -16 30 -37zM526 728c-1 -8 -12 -17 -25 -22
l-116 -40c-10 -3 -18 -3 -26 0l-100 40c-13 5 -20 14 -19 22c2 12 11 22 28 22c6 0 19 -4 29 -7l84 -30l94 30c10 3 25 7 31 7c17 0 22 -10 20 -22z" />
    <glyph glyph-name="Udieresisgrave" unicode="&#x1db;" 
d="M616 590c-3 -21 -23 -21 -35 -21h-41l-61 -368c-21 -121 -121 -212 -219 -212s-168 91 -147 212l61 368h-41c-12 0 -32 0 -29 21c4 21 24 21 36 21h133c11 0 32 0 28 -21c-3 -21 -24 -21 -35 -21h-41l-61 -363c-19 -119 44 -175 103 -175c58 0 142 56 161 175l61 363h-41
c-11 0 -32 0 -29 21c4 21 25 21 36 21h133c12 0 32 0 28 -21zM314 699c-3 -20 -22 -36 -42 -36s-33 16 -30 36c4 21 22 36 42 36s34 -15 30 -36zM515 699c-3 -20 -22 -36 -42 -36s-33 16 -30 36c4 21 22 36 42 36s34 -15 30 -36zM499 827c-1 -6 -9 -31 -29 -31
c0 0 -5 1 -7 2l-133 64c-18 8 -20 18 -19 26c3 15 16 26 31 26c0 0 6 0 14 -4l128 -62c9 -5 17 -9 15 -21z" />
    <glyph glyph-name="udieresisgrave" unicode="&#x1dc;" 
d="M514 22c-4 -22 -24 -22 -36 -22h-75c-14 0 -31 0 -25 43c-58 -39 -101 -49 -141 -49c-70 0 -132 22 -117 114l46 275h-57c-11 0 -31 0 -28 20c4 22 24 22 36 22h75c27 0 30 -8 26 -32l-47 -279c-6 -38 -13 -78 79 -78c37 0 130 14 147 116l39 231h-57c-11 0 -31 0 -28 20
c4 22 24 22 36 22h75c27 0 30 -8 26 -32l-59 -351h57c11 0 31 0 28 -20zM307 563c-3 -20 -22 -36 -42 -36s-33 16 -30 36c3 21 22 37 42 37s33 -16 30 -37zM478 563c-3 -20 -22 -36 -42 -36s-33 16 -30 36c3 21 22 37 42 37s33 -16 30 -37zM478 704c-1 -6 -9 -31 -29 -31
c0 0 -5 1 -7 2l-133 64c-18 8 -20 18 -19 26c3 15 16 26 31 26c0 0 6 0 14 -4l128 -62c9 -5 17 -9 15 -21z" />
    <glyph glyph-name="eturned" unicode="&#x1dd;" 
d="M496 214c-20 -121 -132 -220 -249 -220c-128 0 -174 97 -155 209c5 28 19 28 36 28h320c-3 106 -76 161 -158 161c-32 0 -93 -11 -132 -74c-6 -10 -12 -11 -24 -11c-4 0 -25 0 -22 19c4 24 65 108 192 108c128 0 212 -99 192 -220zM440 189h-299
c-10 -126 55 -153 113 -153c77 0 152 60 186 153z" />
    <glyph glyph-name="Gcaron" unicode="&#x1e6;" 
d="M534 238c-4 -22 -24 -22 -53 -22l-31 -184c-2 -14 -5 -32 -30 -32c-26 0 -23 16 -16 61c-44 -43 -90 -72 -145 -72c-119 0 -197 134 -167 317c30 180 153 316 273 316c41 0 77 -14 116 -53c25 42 32 53 47 53c21 0 17 -20 15 -32l-23 -143c-3 -16 -6 -32 -32 -32
c-16 0 -21 6 -21 16c1 125 -66 149 -105 149c-84 0 -193 -110 -220 -275c-27 -159 39 -274 127 -274c59 0 124 50 160 185h-55c-11 0 -31 0 -27 22c3 20 23 20 34 20h124c11 0 32 0 29 -20zM526 728c-1 -8 -12 -17 -25 -22l-116 -40c-10 -3 -18 -3 -26 0l-100 40
c-13 5 -20 14 -19 22c2 12 11 22 28 22c6 0 19 -4 29 -7l84 -30l94 30c10 3 25 7 31 7c17 0 22 -10 20 -22z" />
    <glyph glyph-name="gcaron" unicode="&#x1e7;" 
d="M572 391c-4 -23 -23 -32 -36 -32c-8 0 -25 6 -26 36c-24 -2 -51 -7 -87 -25c16 -37 20 -65 15 -94c-14 -86 -97 -156 -186 -156c-48 0 -80 22 -93 31c-13 -23 -18 -40 -19 -45c0 0 -3 -26 8 -43c12 -18 19 -19 37 -19c9 -1 23 -2 31 -2h73c90 0 129 -21 140 -28
c44 -26 54 -74 48 -109c-14 -84 -129 -142 -255 -142s-221 57 -207 142c2 10 14 76 103 125c-12 21 -22 44 -16 78c5 28 17 49 35 70c-15 25 -26 56 -19 98c14 83 95 155 186 155c45 0 76 -18 95 -33c57 37 105 38 116 38c47 0 61 -25 57 -45zM388 276
c10 60 -29 114 -91 114c-59 0 -118 -50 -129 -115c-10 -60 29 -114 91 -114c59 0 118 50 129 115zM437 -95c16 94 -104 99 -202 99c-79 0 -89 -1 -119 -18c-41 -23 -57 -60 -61 -81c-8 -49 63 -100 174 -100c110 0 200 51 208 100zM470 599c-1 -8 -14 -15 -26 -22l-114 -66
c-12 -7 -24 -7 -34 0l-94 66c-10 7 -19 14 -18 22c2 12 11 22 28 22c6 0 18 -9 27 -15l80 -54l98 54c11 6 27 15 33 15c17 0 22 -10 20 -22z" />
    <glyph glyph-name="Oogonek" unicode="&#x1ea;" 
d="M516 305c-46 -276 -73 -312 -227 -316c-40 -28 -77 -68 -85 -113c-5 -31 25 -51 48 -51s54 23 70 42c5 4 19 6 25 3c3 -5 4 -17 -1 -23c-28 -32 -68 -57 -105 -57c-58 0 -84 48 -77 88c5 34 30 69 83 110c-177 6 -182 48 -137 317c48 289 72 317 256 317
s198 -29 150 -317zM466 314c11 64 24 143 19 192c-6 62 -42 74 -126 74c-92 0 -129 -15 -154 -81c-20 -49 -32 -120 -43 -185c-9 -57 -24 -148 -20 -202c3 -56 26 -81 125 -81c100 0 132 25 155 88c21 56 34 130 44 195z" />
    <glyph glyph-name="oogonek" unicode="&#x1eb;" 
d="M500 213c-20 -119 -120 -204 -204 -215c-47 -26 -89 -73 -97 -122c-5 -31 24 -51 47 -51c24 0 55 23 71 42c5 4 18 8 24 3s5 -17 -1 -23c-28 -32 -67 -57 -104 -57c-58 0 -84 48 -77 88c6 38 35 78 89 117c-113 20 -171 105 -152 218c20 123 128 221 238 221
s186 -98 166 -221zM450 220c17 101 -44 172 -123 172c-78 0 -162 -71 -179 -172c-17 -102 38 -184 120 -184c81 0 165 82 182 184z" />
    <glyph glyph-name="jcaron" unicode="&#x1f0;" 
d="M352 -56c-11 -62 -65 -180 -207 -180c-38 0 -133 0 -122 69c4 23 24 37 42 37c17 0 33 -14 29 -36l-8 -17s23 -10 72 -10c26 0 61 0 99 43c34 39 42 81 45 99l73 434h-145c-11 0 -31 0 -28 20c4 22 24 22 36 22h163c27 0 30 -8 26 -32zM562 599c-1 -8 -14 -15 -26 -22
l-114 -66c-12 -7 -24 -7 -34 0l-94 66c-10 7 -19 14 -18 22c2 12 11 22 28 22c6 0 18 -9 27 -15l80 -54l98 54c11 6 27 15 33 15c17 0 22 -10 20 -22z" />
    <glyph glyph-name="Gacute" unicode="&#x1f4;" 
d="M534 238c-4 -22 -24 -22 -53 -22l-31 -184c-2 -14 -5 -32 -30 -32c-26 0 -23 16 -16 61c-44 -43 -90 -72 -145 -72c-119 0 -197 134 -167 317c30 180 153 316 273 316c41 0 77 -14 116 -53c25 42 32 53 47 53c21 0 17 -20 15 -32l-23 -143c-3 -16 -6 -32 -32 -32
c-16 0 -21 6 -21 16c1 125 -66 149 -105 149c-84 0 -193 -110 -220 -275c-27 -159 39 -274 127 -274c59 0 124 50 160 185h-55c-11 0 -31 0 -27 22c3 20 23 20 34 20h124c11 0 32 0 29 -20zM489 765c-1 -8 -7 -18 -27 -26l-155 -64c-2 -1 -7 -2 -7 -2c-20 0 -20 25 -19 31
c2 12 12 16 23 21l148 62c10 4 16 4 16 4c15 0 24 -11 21 -26z" />
    <glyph glyph-name="gacute" unicode="&#x1f5;" 
d="M572 391c-4 -23 -23 -32 -36 -32c-8 0 -25 6 -26 36c-24 -2 -51 -7 -87 -25c16 -37 20 -65 15 -94c-14 -86 -97 -156 -186 -156c-48 0 -80 22 -93 31c-13 -23 -18 -40 -19 -45c0 0 -3 -26 8 -43c12 -18 19 -19 37 -19c9 -1 23 -2 31 -2h73c90 0 129 -21 140 -28
c44 -26 54 -74 48 -109c-14 -84 -129 -142 -255 -142s-221 57 -207 142c2 10 14 76 103 125c-12 21 -22 44 -16 78c5 28 17 49 35 70c-15 25 -26 56 -19 98c14 83 95 155 186 155c45 0 76 -18 95 -33c57 37 105 38 116 38c47 0 61 -25 57 -45zM388 276
c10 60 -29 114 -91 114c-59 0 -118 -50 -129 -115c-10 -60 29 -114 91 -114c59 0 118 50 129 115zM437 -95c16 94 -104 99 -202 99c-79 0 -89 -1 -119 -18c-41 -23 -57 -60 -61 -81c-8 -49 63 -100 174 -100c110 0 200 51 208 100zM426 597c-2 -9 -8 -19 -28 -27l-155 -64
c-2 -1 -7 -1 -7 -1c-20 0 -20 24 -19 31c2 12 12 16 23 20l148 62c10 4 16 4 16 4c15 0 24 -11 22 -25z" />
    <glyph glyph-name="Aringacute" unicode="&#x1fa;" 
d="M499 21c-4 -21 -26 -21 -39 -21h-105c-14 0 -33 0 -29 21c3 21 21 21 63 21l-6 129h-184l-50 -129c42 0 60 0 57 -21c-4 -21 -23 -21 -37 -21h-106c-12 0 -34 0 -30 21c1 9 6 16 15 20c6 1 27 1 48 1l219 550c13 31 27 31 51 31c26 0 38 0 41 -32l35 -549
c21 0 41 0 47 -1c9 -4 11 -11 10 -20zM379 213l-16 368h-7l-139 -368h162zM431 694c3 23 -19 36 -46 36s-55 -13 -58 -36c-4 -22 19 -34 46 -34s54 12 58 34zM481 694c-7 -38 -55 -71 -114 -71s-97 33 -90 71c6 39 55 73 114 73s96 -34 90 -73zM508 879
c-1 -8 -7 -18 -27 -26l-155 -64c-2 -1 -7 -2 -7 -2c-20 0 -20 25 -19 31c2 12 12 16 23 21l148 62c10 4 16 4 16 4c15 0 24 -11 21 -26z" />
    <glyph glyph-name="aringacute" unicode="&#x1fb;" 
d="M517 22c-4 -22 -24 -22 -46 -22c-36 0 -83 0 -103 37c-61 -36 -124 -43 -160 -43c-99 0 -151 61 -140 128c16 95 149 141 334 144c15 90 -36 126 -121 126c-31 0 -69 -4 -72 -23c-6 -30 -31 -37 -43 -37c-19 0 -33 13 -29 37c10 65 109 65 150 65c140 0 181 -80 169 -150
l-38 -230c15 -6 29 -12 70 -12c12 0 32 0 29 -20zM379 128l17 98c-169 -5 -268 -51 -277 -104c-7 -45 32 -86 103 -86c8 0 57 0 99 19c50 21 54 46 58 73zM409 563c4 23 -19 36 -46 36s-54 -13 -58 -36c-4 -22 19 -34 46 -34s54 12 58 34zM459 563c-6 -38 -55 -71 -114 -71
s-96 33 -90 71c6 39 55 73 114 73s96 -34 90 -73zM487 748c-2 -8 -7 -18 -28 -26l-154 -64c-2 -1 -8 -2 -8 -2c-20 0 -19 25 -18 31c2 12 11 16 22 21l148 62c10 4 16 4 16 4c15 0 24 -11 22 -26z" />
    <glyph glyph-name="AEacute" unicode="&#x1fc;" 
d="M502 32c-4 -25 -11 -32 -36 -32h-201c-12 0 -32 0 -28 22c3 20 24 20 44 20l25 147h-133l-55 -147c30 0 50 0 47 -21c-4 -21 -24 -21 -35 -21h-74c-11 0 -31 0 -27 21c3 21 22 21 51 21l195 527c-25 0 -44 0 -41 21c4 21 24 21 35 21h290c27 0 30 -8 26 -32l-13 -76
c-2 -10 -5 -32 -23 -32c-19 0 -16 22 -14 32l11 66h-139l-39 -231h129c12 0 31 0 28 -22c-4 -20 -24 -20 -35 -20h-129l-42 -254h147l14 82c2 11 5 32 24 32s16 -21 14 -32zM313 232l56 337h-57l-124 -337h125zM489 765c-1 -8 -7 -18 -27 -26l-155 -64c-2 -1 -7 -2 -7 -2
c-20 0 -20 25 -19 31c2 12 12 16 23 21l148 62c10 4 16 4 16 4c15 0 24 -11 21 -26z" />
    <glyph glyph-name="aeacute" unicode="&#x1fd;" 
d="M519 102c-3 -19 -46 -108 -127 -108c-61 0 -91 57 -104 80c-43 -56 -98 -80 -146 -80c-68 0 -97 62 -87 118c13 81 108 123 227 124l8 44c12 73 -18 112 -75 112c-18 0 -38 -9 -39 -15c-1 -3 0 -6 -1 -9c-7 -33 -35 -36 -41 -36c-19 0 -33 13 -29 37c5 31 35 65 120 65
c52 0 83 -28 105 -85c49 66 92 85 125 85c70 0 107 -74 86 -203c-5 -25 -9 -34 -37 -34h-189c-8 -106 40 -161 89 -161c27 0 57 20 77 67c3 4 10 18 22 18c11 0 18 -9 16 -19zM504 239c14 119 -22 153 -56 153c-48 0 -105 -70 -126 -153h182zM277 196
c-101 -4 -177 -35 -185 -83c-6 -36 14 -77 63 -77c8 0 40 2 71 24c30 21 34 46 37 68c5 30 8 45 14 68zM462 597c-2 -9 -8 -19 -28 -27l-155 -64c-2 -1 -7 -1 -7 -1c-20 0 -20 24 -19 31c2 12 12 16 23 20l148 62c10 4 16 4 16 4c15 0 24 -11 22 -25z" />
    <glyph glyph-name="Oslashacute" unicode="&#x1fe;" 
d="M516 305c-48 -288 -73 -316 -256 -316c-24 0 -45 0 -80 2l-27 -55c-4 -10 -11 -24 -25 -24c-3 0 -22 2 -19 21c0 0 2 8 31 66c-53 26 -57 68 -52 144c3 49 14 116 22 162c48 289 72 317 256 317c23 0 45 0 79 -2l28 55c4 10 11 24 25 24c3 0 22 -2 19 -21
c0 0 -2 -8 -31 -67c68 -31 64 -101 30 -306zM478 306c36 214 14 233 -16 259l-259 -527c10 -3 17 -6 23 -6c11 -1 14 -1 41 -1c88 0 135 10 165 77c21 50 35 134 46 198zM423 573c-10 3 -17 6 -23 6c-11 1 -14 1 -41 1c-88 0 -135 -10 -165 -77c-21 -50 -35 -134 -46 -198
c-36 -214 -14 -233 16 -259zM476 765c-1 -8 -7 -18 -27 -26l-155 -64c-2 -1 -7 -2 -7 -2c-20 0 -20 25 -19 31c2 12 12 16 23 21l148 62c10 4 16 4 16 4c15 0 24 -11 21 -26z" />
    <glyph glyph-name="oslashacute" unicode="&#x1ff;" 
d="M570 549c0 0 -2 -7 -9 -17l-105 -141c46 -50 67 -112 56 -178c-21 -122 -135 -219 -251 -219c-18 0 -48 2 -87 20l-113 -151c-4 -4 -9 -8 -16 -8c-9 0 -22 7 -20 21c1 6 14 23 22 34l94 125c-56 56 -67 121 -57 178c20 120 131 221 250 221c39 0 66 -11 89 -21l106 142
c5 7 10 15 21 15c9 0 22 -7 20 -21zM475 213c6 39 0 93 -47 142l-227 -306c31 -11 38 -13 67 -13c97 0 190 78 207 177zM396 378c-32 12 -38 14 -69 14c-97 0 -190 -80 -206 -179c-7 -38 -3 -89 46 -143zM457 597c-2 -9 -8 -19 -28 -27l-155 -64c-2 -1 -7 -1 -7 -1
c-20 0 -20 24 -19 31c2 12 12 16 23 20l148 62c10 4 16 4 16 4c15 0 24 -11 22 -25z" />
    <glyph glyph-name="Adblgrave" unicode="&#x200;" 
d="M499 21c-4 -21 -26 -21 -39 -21h-105c-14 0 -33 0 -29 21c3 21 21 21 63 21l-6 129h-184l-50 -129c42 0 60 0 57 -21c-4 -21 -23 -21 -37 -21h-106c-12 0 -34 0 -30 21c1 9 6 16 15 20c6 1 27 1 48 1l219 550c13 31 27 31 51 31c26 0 38 0 41 -32l35 -549
c21 0 41 0 47 -1c9 -4 11 -11 10 -20zM379 213l-16 368h-7l-139 -368h162zM516 703c-2 -13 -20 -30 -33 -30c-8 0 -22 14 -27 21l-41 45c-9 10 -22 23 -21 32c3 14 17 27 31 27c12 -2 20 -7 29 -17l55 -62c3 -4 8 -11 7 -16zM315 703c-2 -13 -20 -30 -33 -30
c-8 0 -22 14 -27 21l-41 45c-9 10 -22 23 -21 32c3 14 17 27 31 27c12 -2 20 -7 29 -17l55 -62c3 -4 8 -11 7 -16z" />
    <glyph glyph-name="adblgrave" unicode="&#x201;" 
d="M517 22c-4 -22 -24 -22 -46 -22c-36 0 -83 0 -103 37c-61 -36 -124 -43 -160 -43c-99 0 -151 61 -140 128c16 95 149 141 334 144c15 90 -36 126 -121 126c-31 0 -69 -4 -72 -23c-6 -30 -31 -37 -43 -37c-19 0 -33 13 -29 37c10 65 109 65 150 65c140 0 181 -80 169 -150
l-38 -230c15 -6 29 -12 70 -12c12 0 32 0 29 -20zM379 128l17 98c-169 -5 -268 -51 -277 -104c-7 -45 32 -86 103 -86c8 0 57 0 99 19c50 21 54 46 58 73zM517 531c-3 -13 -20 -30 -33 -30c-8 0 -22 14 -28 21l-40 45c-10 10 -23 23 -21 32c2 14 16 27 30 27
c12 -2 20 -7 30 -17l54 -62c4 -4 8 -11 8 -16zM316 531c-3 -13 -20 -30 -33 -30c-8 0 -22 14 -28 21l-40 45c-10 10 -23 23 -21 32c2 14 16 27 30 27c12 -2 20 -7 30 -17l54 -62c4 -4 8 -11 8 -16z" />
    <glyph glyph-name="Edblgrave" unicode="&#x204;" 
d="M505 32c-4 -25 -11 -32 -36 -32h-409c-11 0 -32 0 -28 21c3 21 23 21 35 21h42l88 527h-42c-11 0 -32 0 -29 21c4 21 25 21 36 21h386c26 0 30 -8 26 -32l-13 -76c-3 -15 -5 -32 -31 -32c-25 0 -22 18 -20 32l11 66h-274l-39 -231h157c8 44 10 59 35 59s22 -18 20 -32
l-16 -96c-3 -15 -5 -32 -30 -32s-23 15 -16 59h-157l-42 -254h297l14 82c2 15 5 32 31 32c25 0 22 -17 20 -32zM545 703c-2 -13 -20 -30 -33 -30c-8 0 -22 14 -27 21l-41 45c-9 10 -22 23 -21 32c3 14 17 27 31 27c12 -2 20 -7 29 -17l55 -62c3 -4 8 -11 7 -16zM344 703
c-2 -13 -20 -30 -33 -30c-8 0 -22 14 -27 21l-41 45c-9 10 -22 23 -21 32c3 14 17 27 31 27c12 -2 20 -7 29 -17l55 -62c3 -4 8 -11 7 -16z" />
    <glyph glyph-name="edblgrave" unicode="&#x205;" 
d="M477 102c-4 -24 -65 -108 -192 -108c-128 0 -211 99 -191 220s131 220 248 220c128 0 174 -97 156 -209c-5 -28 -19 -28 -36 -28h-320c2 -106 75 -161 157 -161c32 0 94 11 132 74c6 10 12 11 24 11c4 0 25 0 22 -19zM449 239c10 126 -56 153 -114 153
c-77 0 -152 -60 -185 -153h299zM517 531c-3 -13 -20 -30 -33 -30c-8 0 -22 14 -28 21l-40 45c-10 10 -23 23 -21 32c2 14 16 27 30 27c12 -2 20 -7 30 -17l54 -62c4 -4 8 -11 8 -16zM316 531c-3 -13 -20 -30 -33 -30c-8 0 -22 14 -28 21l-40 45c-10 10 -23 23 -21 32
c2 14 16 27 30 27c12 -2 20 -7 30 -17l54 -62c4 -4 8 -11 8 -16z" />
    <glyph glyph-name="Idblgrave" unicode="&#x208;" 
d="M446 21c-4 -21 -25 -21 -36 -21h-295c-11 0 -32 0 -28 22c3 20 24 20 35 20h122l88 527h-122c-11 0 -32 0 -29 21c4 21 25 21 36 21h295c11 0 32 0 28 -22c-3 -20 -24 -20 -35 -20h-122l-88 -527h122c11 0 32 0 29 -21zM545 703c-2 -13 -20 -30 -33 -30
c-8 0 -22 14 -27 21l-41 45c-9 10 -22 23 -21 32c3 14 17 27 31 27c12 -2 20 -7 29 -17l55 -62c3 -4 8 -11 7 -16zM344 703c-2 -13 -20 -30 -33 -30c-8 0 -22 14 -27 21l-41 45c-9 10 -22 23 -21 32c3 14 17 27 31 27c12 -2 20 -7 29 -17l55 -62c3 -4 8 -11 7 -16z" />
    <glyph glyph-name="idblgrave" unicode="&#x209;" 
d="M455 21c-4 -21 -25 -21 -36 -21h-305c-11 0 -32 0 -28 21c3 21 23 21 35 21h136l57 341h-128c-11 0 -32 0 -29 21c4 21 25 21 36 21h147c27 0 30 -8 26 -32l-59 -351h119c11 0 32 0 29 -21zM517 531c-3 -13 -20 -30 -33 -30c-8 0 -22 14 -28 21l-40 45
c-10 10 -23 23 -21 32c2 14 16 27 30 27c12 -2 20 -7 30 -17l54 -62c4 -4 8 -11 8 -16zM316 531c-3 -13 -20 -30 -33 -30c-8 0 -22 14 -28 21l-40 45c-10 10 -23 23 -21 32c2 14 16 27 30 27c12 -2 20 -7 30 -17l54 -62c4 -4 8 -11 8 -16z" />
    <glyph glyph-name="Odblgrave" unicode="&#x20c;" 
d="M516 305c-48 -288 -73 -316 -256 -316c-184 0 -198 28 -150 316c48 289 72 317 256 317s198 -29 150 -317zM466 314c11 64 24 143 19 192c-6 62 -42 74 -126 74c-92 0 -129 -15 -154 -81c-20 -49 -32 -120 -43 -185c-9 -57 -24 -148 -20 -202c3 -56 26 -81 125 -81
c100 0 132 25 155 88c21 56 34 130 44 195zM545 703c-2 -13 -20 -30 -33 -30c-8 0 -22 14 -27 21l-41 45c-9 10 -22 23 -21 32c3 14 17 27 31 27c12 -2 20 -7 29 -17l55 -62c3 -4 8 -11 7 -16zM344 703c-2 -13 -20 -30 -33 -30c-8 0 -22 14 -27 21l-41 45
c-9 10 -22 23 -21 32c3 14 17 27 31 27c12 -2 20 -7 29 -17l55 -62c3 -4 8 -11 7 -16z" />
    <glyph glyph-name="odblgrave" unicode="&#x20d;" 
d="M500 213c-21 -124 -131 -219 -239 -219s-186 94 -165 219c20 123 128 221 238 221s186 -98 166 -221zM450 220c17 101 -44 172 -123 172c-78 0 -162 -71 -179 -172c-17 -102 38 -184 120 -184c81 0 165 82 182 184zM517 531c-3 -13 -20 -30 -33 -30c-8 0 -22 14 -28 21
l-40 45c-10 10 -23 23 -21 32c2 14 16 27 30 27c12 -2 20 -7 30 -17l54 -62c4 -4 8 -11 8 -16zM316 531c-3 -13 -20 -30 -33 -30c-8 0 -22 14 -28 21l-40 45c-10 10 -23 23 -21 32c2 14 16 27 30 27c12 -2 20 -7 30 -17l54 -62c4 -4 8 -11 8 -16z" />
    <glyph glyph-name="Rdblgrave" unicode="&#x210;" 
d="M534 86c-5 -35 -37 -97 -95 -97c-30 0 -53 13 -64 38c-15 35 -9 66 1 130c8 47 11 72 -10 96c-31 31 -65 31 -86 31h-91l-40 -242h36c12 0 31 0 28 -21c-4 -21 -24 -21 -35 -21h-123c-11 0 -31 0 -27 21c3 21 22 21 34 21h36l88 527h-36c-11 0 -31 0 -28 20
c4 22 23 22 35 22h183c115 0 177 -79 163 -163c-7 -40 -35 -99 -120 -143c23 -20 41 -40 49 -68c5 -22 3 -31 -7 -93s-13 -113 20 -113c22 0 38 46 40 57c4 21 20 21 28 21s25 0 21 -23zM453 448c9 53 -28 121 -131 121h-85l-40 -242h85c102 0 162 66 171 121zM516 703
c-2 -13 -20 -30 -33 -30c-8 0 -22 14 -27 21l-41 45c-9 10 -22 23 -21 32c3 14 17 27 31 27c12 -2 20 -7 29 -17l55 -62c3 -4 8 -11 7 -16zM315 703c-2 -13 -20 -30 -33 -30c-8 0 -22 14 -27 21l-41 45c-9 10 -22 23 -21 32c3 14 17 27 31 27c12 -2 20 -7 29 -17l55 -62
c3 -4 8 -11 7 -16z" />
    <glyph glyph-name="rdblgrave" unicode="&#x211;" 
d="M547 377c-4 -21 -21 -34 -39 -34c-20 0 -31 17 -26 46c-142 0 -225 -105 -242 -207l-23 -140h125c12 0 32 0 29 -21c-4 -21 -24 -21 -36 -21h-269c-12 0 -31 0 -27 22c3 20 22 20 34 20h94l57 341h-94c-12 0 -31 0 -28 21c4 21 23 21 35 21h113c27 0 30 -8 26 -32
l-11 -63c87 83 153 101 203 101c76 0 82 -35 79 -54zM517 531c-3 -13 -20 -30 -33 -30c-8 0 -22 14 -28 21l-40 45c-10 10 -23 23 -21 32c2 14 16 27 30 27c12 -2 20 -7 30 -17l54 -62c4 -4 8 -11 8 -16zM316 531c-3 -13 -20 -30 -33 -30c-8 0 -22 14 -28 21l-40 45
c-10 10 -23 23 -21 32c2 14 16 27 30 27c12 -2 20 -7 30 -17l54 -62c4 -4 8 -11 8 -16z" />
    <glyph glyph-name="Udblgrave" unicode="&#x214;" 
d="M616 590c-3 -21 -23 -21 -35 -21h-41l-61 -368c-21 -121 -121 -212 -219 -212s-168 91 -147 212l61 368h-41c-12 0 -32 0 -29 21c4 21 24 21 36 21h133c11 0 32 0 28 -21c-3 -21 -24 -21 -35 -21h-41l-61 -363c-19 -119 44 -175 103 -175c58 0 142 56 161 175l61 363h-41
c-11 0 -32 0 -29 21c4 21 25 21 36 21h133c12 0 32 0 28 -21zM545 703c-2 -13 -20 -30 -33 -30c-8 0 -22 14 -27 21l-41 45c-9 10 -22 23 -21 32c3 14 17 27 31 27c12 -2 20 -7 29 -17l55 -62c3 -4 8 -11 7 -16zM344 703c-2 -13 -20 -30 -33 -30c-8 0 -22 14 -27 21l-41 45
c-9 10 -22 23 -21 32c3 14 17 27 31 27c12 -2 20 -7 29 -17l55 -62c3 -4 8 -11 7 -16z" />
    <glyph glyph-name="udblgrave" unicode="&#x215;" 
d="M514 22c-4 -22 -24 -22 -36 -22h-75c-14 0 -31 0 -25 43c-58 -39 -101 -49 -141 -49c-70 0 -132 22 -117 114l46 275h-57c-11 0 -31 0 -28 20c4 22 24 22 36 22h75c27 0 30 -8 26 -32l-47 -279c-6 -38 -13 -78 79 -78c37 0 130 14 147 116l39 231h-57c-11 0 -31 0 -28 20
c4 22 24 22 36 22h75c27 0 30 -8 26 -32l-59 -351h57c11 0 31 0 28 -20zM517 531c-3 -13 -20 -30 -33 -30c-8 0 -22 14 -28 21l-40 45c-10 10 -23 23 -21 32c2 14 16 27 30 27c12 -2 20 -7 30 -17l54 -62c4 -4 8 -11 8 -16zM316 531c-3 -13 -20 -30 -33 -30
c-8 0 -22 14 -28 21l-40 45c-10 10 -23 23 -21 32c2 14 16 27 30 27c12 -2 20 -7 30 -17l54 -62c4 -4 8 -11 8 -16z" />
    <glyph glyph-name="uni0218" unicode="&#x218;" 
d="M496 161c-15 -87 -100 -172 -213 -172c-64 0 -122 15 -168 54c-18 -41 -24 -54 -41 -54c-21 0 -17 20 -15 32l22 136c3 15 6 32 32 32c23 0 21 -14 20 -26c-2 -21 -5 -68 37 -98c38 -29 90 -34 121 -34c88 0 147 67 157 125c16 97 -71 120 -102 127l-113 28
c-77 23 -112 87 -101 152c14 83 101 159 209 159c45 0 96 -11 141 -56c18 40 25 56 42 56c21 0 17 -20 15 -32l-22 -136c-3 -15 -6 -32 -32 -32c-13 0 -20 3 -21 15c-1 40 -4 143 -131 143c-80 0 -143 -55 -153 -113c-9 -53 26 -93 72 -107l81 -19c75 -18 101 -24 135 -64
c10 -13 38 -54 28 -116zM297 -122c-13 -77 -92 -117 -114 -117c-8 0 -14 8 -12 15c0 5 6 9 10 10c29 9 77 30 87 89c-9 -4 -17 -6 -28 -6c-20 0 -35 15 -31 39c3 20 21 37 45 37c29 0 49 -26 43 -67z" />
    <glyph glyph-name="uni0219" unicode="&#x219;" 
d="M475 119c-8 -47 -53 -125 -207 -125c-27 0 -80 2 -132 46c-22 -44 -33 -46 -40 -46c-21 0 -18 20 -16 32l17 100c3 15 5 32 31 32c14 0 19 -5 21 -12c15 -97 75 -110 127 -110c103 0 150 41 157 83c10 59 -74 78 -128 87c-87 13 -190 29 -175 117c6 34 42 111 204 111
c19 0 63 0 113 -26c8 17 12 26 29 26c20 0 17 -20 15 -32l-12 -71c-2 -15 -5 -32 -31 -32c-16 0 -20 6 -21 15c2 41 -7 78 -102 78c-108 0 -148 -40 -153 -69c-8 -45 65 -63 98 -68l69 -12c30 -5 152 -25 136 -124zM297 -122c-13 -77 -92 -117 -114 -117c-8 0 -14 8 -12 15
c0 5 6 9 10 10c29 9 77 30 87 89c-9 -4 -17 -6 -28 -6c-20 0 -35 15 -31 39c3 20 21 37 45 37c29 0 49 -26 43 -67z" />
    <glyph glyph-name="uni021A" unicode="&#x21a;" 
d="M580 503c-3 -15 -5 -32 -31 -32c-25 0 -22 18 -20 32l11 66h-157l-88 -527h64c12 0 31 0 28 -21c-4 -21 -24 -21 -35 -21h-179c-12 0 -31 0 -27 22c3 20 23 20 34 20h64l88 527h-158l-11 -66c-3 -15 -5 -32 -31 -32c-25 0 -22 18 -20 32l13 76c4 26 12 32 37 32h405
c26 0 30 -8 26 -32zM297 -122c-13 -77 -92 -117 -114 -117c-8 0 -14 8 -12 15c0 5 6 9 10 10c29 9 77 30 87 89c-9 -4 -17 -6 -28 -6c-20 0 -35 15 -31 39c3 20 21 37 45 37c29 0 49 -26 43 -67z" />
    <glyph glyph-name="uni021B" unicode="&#x21b;" 
d="M465 120c-14 -86 -100 -126 -171 -126c-70 0 -129 34 -114 126l44 263h-102c-11 0 -31 0 -28 20c4 22 24 22 36 22h101l16 95c2 15 5 32 30 32s22 -18 20 -32l-16 -95h180c12 0 31 0 27 -22c-3 -20 -23 -20 -34 -20h-180l-43 -257c-5 -29 -15 -90 75 -90
c27 0 95 12 108 85c2 13 5 29 30 29c26 0 23 -16 21 -30zM297 -122c-13 -77 -92 -117 -114 -117c-8 0 -14 8 -12 15c0 5 6 9 10 10c29 9 77 30 87 89c-9 -4 -17 -6 -28 -6c-20 0 -35 15 -31 39c3 20 21 37 45 37c29 0 49 -26 43 -67z" />
    <glyph glyph-name="uni0237" unicode="&#x237;" 
d="M352 -56c-11 -62 -65 -180 -207 -180c-38 0 -133 0 -122 69c4 23 24 37 42 37c17 0 33 -14 29 -36l-8 -17s23 -10 72 -10c26 0 61 0 99 43c34 39 42 81 45 99l73 434h-145c-11 0 -31 0 -28 20c4 22 24 22 36 22h163c27 0 30 -8 26 -32z" />
    <glyph glyph-name="ereversed" unicode="&#x258;" 
d="M496 214c-20 -121 -137 -220 -265 -220c-127 0 -160 84 -156 108c3 19 24 19 28 19c12 0 18 -1 20 -11c18 -63 76 -74 108 -74c82 0 173 55 211 161h-320c-17 0 -31 0 -26 28c18 112 96 209 224 209c117 0 196 -99 176 -220zM448 239c-3 93 -58 153 -135 153
c-58 0 -132 -27 -164 -153h299z" />
    <glyph glyph-name="schwa" unicode="&#x259;" 
d="M496 214c-20 -121 -132 -220 -249 -220c-128 0 -174 97 -155 209c5 28 19 28 36 28h320c-3 106 -76 161 -158 161c-32 0 -93 -11 -132 -74c-6 -10 -12 -11 -24 -11c-4 0 -25 0 -22 19c4 24 65 108 192 108c128 0 212 -99 192 -220zM440 189h-299
c-10 -126 55 -153 113 -153c77 0 152 60 186 153z" />
    <glyph glyph-name="ringhalfright" unicode="&#x2be;" 
d="M476 411c-11 -65 -71 -164 -197 -164c-34 0 -109 8 -102 54c3 19 20 31 36 31c18 0 31 -10 26 -36c-1 -6 29 -7 45 -7c102 0 137 87 143 124c11 68 -33 120 -96 120c-55 0 -77 -37 -88 -53c-6 -7 -11 -8 -21 -8c-4 0 -25 1 -22 20c2 13 39 83 140 83
c93 0 150 -76 136 -164z" />
    <glyph glyph-name="ringhalfleft" unicode="&#x2bf;" 
d="M462 330c-2 -13 -39 -83 -140 -83c-93 0 -150 76 -135 164c10 65 70 164 196 164c34 0 110 -8 102 -54c-3 -19 -20 -31 -36 -31c-18 0 -31 10 -26 36c1 6 -29 7 -45 7c-102 0 -137 -87 -143 -124c-11 -68 33 -120 96 -120c55 0 77 37 88 53c6 7 11 8 21 8
c4 0 25 -1 22 -20z" />
    <glyph glyph-name="circumflex" unicode="&#x2c6;" 
d="M494 528c-2 -12 -11 -22 -28 -22c-6 0 -18 9 -27 15l-80 54l-98 -54c-11 -6 -27 -15 -33 -15c-17 0 -22 10 -20 22c1 8 14 15 26 22l114 66c12 7 24 7 34 0l94 -66c10 -7 19 -14 18 -22z" />
    <glyph glyph-name="caron" unicode="&#x2c7;" 
d="M506 599c-1 -8 -14 -15 -26 -22l-114 -66c-12 -7 -24 -7 -34 0l-94 66c-10 7 -19 14 -18 22c2 12 11 22 28 22c6 0 18 -9 27 -15l80 -54l98 54c11 6 27 15 33 15c17 0 22 -10 20 -22z" />
    <glyph glyph-name="breve" unicode="&#x2d8;" 
d="M533 590c-12 -74 -120 -74 -184 -74s-172 0 -160 74c3 14 13 22 26 22c11 0 15 -5 16 -11c4 -34 77 -40 126 -40c48 0 124 6 138 40c3 6 9 11 20 11c14 0 21 -8 18 -22z" />
    <glyph glyph-name="dotaccent" unicode="&#x2d9;" 
d="M398 563c-4 -23 -25 -41 -48 -41s-38 18 -34 41c4 24 25 42 48 42s38 -18 34 -42z" />
    <glyph glyph-name="ring" unicode="&#x2da;" 
d="M409 563c4 23 -19 36 -46 36s-54 -13 -58 -36c-4 -22 19 -34 46 -34s54 12 58 34zM459 563c-6 -38 -55 -71 -114 -71s-96 33 -90 71c6 39 55 73 114 73s96 -34 90 -73z" />
    <glyph glyph-name="ogonek" unicode="&#x2db;" 
d="M329 -153c-28 -32 -68 -57 -104 -57c-59 0 -84 48 -77 88c7 44 49 86 89 111h27c-39 -25 -69 -67 -77 -113c-5 -31 25 -51 48 -51s54 23 71 42c4 4 18 8 24 3s4 -17 -1 -23z" />
    <glyph glyph-name="tilde" unicode="&#x2dc;" 
d="M533 592c-2 -13 -35 -35 -55 -48c-25 -16 -54 -32 -80 -32c-20 0 -33 8 -44 18c-27 29 -35 39 -48 39c-15 0 -48 -17 -87 -49c-6 -4 -12 -8 -20 -8c-11 0 -20 11 -18 22c2 14 35 35 55 49c25 16 55 32 80 32c20 0 33 -9 44 -18c27 -29 35 -39 48 -39c15 0 48 17 87 48
c6 5 12 9 20 9c11 0 20 -11 18 -23z" />
    <glyph glyph-name="hungarumlaut" unicode="&#x2dd;" 
d="M330 599c-2 -9 -19 -22 -31 -32l-56 -45c-8 -7 -26 -21 -34 -21c-13 0 -26 17 -23 30c0 5 8 12 12 16l76 62c12 10 22 15 34 17c14 0 24 -13 22 -27zM531 599c-2 -9 -19 -22 -31 -32l-56 -45c-8 -7 -26 -21 -34 -21c-13 0 -26 17 -23 30c0 5 8 12 12 16l76 62
c12 10 22 15 34 17c14 0 24 -13 22 -27z" />
    <glyph glyph-name="uni0300" unicode="&#x300;" horiz-adv-x="0" 
d="M-75 536c-1 -7 -9 -31 -29 -31c0 0 -5 0 -7 1l-133 64c-18 8 -20 18 -18 27c2 14 15 25 30 25c0 0 6 0 14 -4l128 -62c9 -4 17 -8 15 -20z" />
    <glyph glyph-name="uni0301" unicode="&#x301;" horiz-adv-x="0" 
d="M-63 597c-2 -9 -8 -19 -28 -27l-155 -64c-2 -1 -7 -1 -7 -1c-20 0 -20 24 -19 31c2 12 12 16 23 20l148 62c10 4 16 4 16 4c15 0 24 -11 22 -25z" />
    <glyph glyph-name="uni0302" unicode="&#x302;" horiz-adv-x="0" 
d="M-31 528c-2 -12 -11 -22 -28 -22c-6 0 -18 9 -27 15l-80 54l-98 -54c-11 -6 -27 -15 -33 -15c-17 0 -22 10 -20 22c1 8 14 15 26 22l114 66c12 7 24 7 34 0l94 -66c10 -7 19 -14 18 -22z" />
    <glyph glyph-name="uni0303" unicode="&#x303;" horiz-adv-x="0" 
d="M8 592c-2 -13 -35 -35 -55 -48c-25 -16 -54 -32 -80 -32c-20 0 -33 8 -44 18c-27 29 -35 39 -48 39c-15 0 -48 -17 -87 -49c-6 -4 -12 -8 -20 -8c-11 0 -20 11 -18 22c2 14 35 35 55 49c25 16 55 32 80 32c20 0 33 -9 44 -18c27 -29 35 -39 48 -39c15 0 48 17 87 48
c6 5 12 9 20 9c11 0 20 -11 18 -23z" />
    <glyph glyph-name="uni0304" unicode="&#x304;" horiz-adv-x="0" 
d="M17 563c-4 -21 -23 -21 -35 -21h-307c-13 0 -32 0 -28 22s23 22 35 22h308c13 0 31 0 27 -23z" />
    <glyph glyph-name="uni0306" unicode="&#x306;" horiz-adv-x="0" 
d="M8 590c-12 -74 -120 -74 -184 -74s-172 0 -160 74c3 14 13 22 26 22c11 0 15 -5 16 -11c4 -34 77 -40 126 -40c48 0 124 6 138 40c3 6 9 11 20 11c14 0 21 -8 18 -22z" />
    <glyph glyph-name="uni0307" unicode="&#x307;" horiz-adv-x="0" 
d="M-127 563c-4 -23 -25 -41 -48 -41s-38 18 -34 41c4 24 25 42 48 42s38 -18 34 -42z" />
    <glyph glyph-name="uni0308" unicode="&#x308;" horiz-adv-x="0" 
d="M-218 563c-3 -20 -22 -36 -42 -36s-33 16 -30 36c3 21 22 37 42 37s33 -16 30 -37zM-47 563c-3 -20 -22 -36 -42 -36s-33 16 -30 36c3 21 22 37 42 37s33 -16 30 -37z" />
    <glyph glyph-name="uni0309" unicode="&#x309;" horiz-adv-x="0" 
d="M-71 600c-4 -22 -20 -41 -39 -50c-38 -19 -57 -40 -60 -58l-3 -19c-2 -10 -11 -18 -21 -18c-11 0 -18 8 -16 18l3 19c7 42 43 69 85 91c8 5 14 14 14 14c2 12 -2 22 -9 27c-10 7 -25 11 -47 11c-25 0 -48 -18 -51 -36c-1 -5 -7 -19 -22 -19s-19 5 -17 19
c7 44 53 73 96 73c29 0 48 -4 66 -17c17 -13 25 -34 21 -55z" />
    <glyph glyph-name="uni030A" unicode="&#x30a;" horiz-adv-x="0" 
d="M-116 563c4 23 -19 36 -46 36s-54 -13 -58 -36c-4 -22 19 -34 46 -34s54 12 58 34zM-66 563c-6 -38 -55 -71 -114 -71s-96 33 -90 71c6 39 55 73 114 73s96 -34 90 -73z" />
    <glyph glyph-name="uni030B" unicode="&#x30b;" horiz-adv-x="0" 
d="M-195 599c-2 -9 -19 -22 -31 -32l-56 -45c-8 -7 -26 -21 -34 -21c-13 0 -26 17 -23 30c0 5 8 12 12 16l76 62c12 10 22 15 34 17c14 0 24 -13 22 -27zM6 599c-2 -9 -19 -22 -31 -32l-56 -45c-8 -7 -26 -21 -34 -21c-13 0 -26 17 -23 30c0 5 8 12 12 16l76 62
c12 10 22 15 34 17c14 0 24 -13 22 -27z" />
    <glyph glyph-name="uni030C" unicode="&#x30c;" horiz-adv-x="0" 
d="M-19 599c-1 -8 -14 -15 -26 -22l-114 -66c-12 -7 -24 -7 -34 0l-94 66c-10 7 -19 14 -18 22c2 12 11 22 28 22c6 0 18 -9 27 -15l80 -54l98 54c11 6 27 15 33 15c17 0 22 -10 20 -22z" />
    <glyph glyph-name="uni030F" unicode="&#x30f;" horiz-adv-x="0" 
d="M-8 531c-3 -13 -20 -30 -33 -30c-8 0 -22 14 -28 21l-40 45c-10 10 -23 23 -21 32c2 14 16 27 30 27c12 -2 20 -7 30 -17l54 -62c4 -4 8 -11 8 -16zM-209 531c-3 -13 -20 -30 -33 -30c-8 0 -22 14 -28 21l-40 45c-10 10 -23 23 -21 32c2 14 16 27 30 27
c12 -2 20 -7 30 -17l54 -62c4 -4 8 -11 8 -16z" />
    <glyph glyph-name="uni0311" unicode="&#x311;" horiz-adv-x="0" 
d="M0 538c-3 -14 -13 -22 -26 -22c-11 0 -15 5 -16 11c-3 34 -76 40 -125 40c-48 0 -124 -6 -139 -40c-3 -6 -9 -11 -20 -11c-14 0 -21 8 -18 22c12 74 120 74 184 74s172 0 160 -74z" />
    <glyph glyph-name="uni0323" unicode="&#x323;" horiz-adv-x="0" 
d="M-249 -165c-4 -24 -25 -42 -48 -42s-38 18 -34 42c4 23 25 41 48 41s38 -18 34 -41z" />
    <glyph glyph-name="uni0326" unicode="&#x326;" horiz-adv-x="0" 
d="M-228 -122c-13 -77 -92 -117 -114 -117c-8 0 -14 8 -12 15c0 5 6 9 10 10c29 9 77 30 87 89c-9 -4 -17 -6 -28 -6c-20 0 -35 15 -31 39c3 20 21 37 45 37c29 0 49 -26 43 -67z" />
    <glyph glyph-name="uni032E" unicode="&#x32e;" horiz-adv-x="0" 
d="M-111 -124c-12 -74 -120 -74 -184 -74s-172 0 -160 74c2 13 13 22 26 22c11 0 15 -5 16 -11c3 -34 76 -40 125 -40c48 0 124 6 139 40c3 6 9 11 20 11c14 0 20 -9 18 -22z" />
    <glyph glyph-name="uni032F" unicode="&#x32f;" horiz-adv-x="0" 
d="M-119 -176c-3 -13 -13 -22 -26 -22c-11 0 -15 5 -16 11c-4 34 -77 40 -126 40c-48 0 -124 -6 -138 -40c-3 -6 -9 -11 -20 -11c-14 0 -21 9 -18 22c12 74 120 74 184 74s172 0 160 -74z" />
    <glyph glyph-name="uni0330" unicode="&#x330;" horiz-adv-x="0" 
d="M-111 -121c-2 -13 -35 -35 -55 -48c-25 -17 -54 -32 -80 -32c-20 0 -33 8 -44 18c-27 29 -35 38 -48 38c-15 0 -48 -16 -87 -48c-6 -4 -12 -8 -20 -8c-11 0 -20 11 -18 22c2 14 35 35 55 49c25 16 55 32 80 32c20 0 33 -9 44 -18c27 -29 35 -39 48 -39c15 0 48 17 87 48
c6 5 12 9 20 9c11 0 20 -11 18 -23z" />
    <glyph glyph-name="uni0331" unicode="&#x331;" horiz-adv-x="0" 
d="M-102 -151c-4 -21 -23 -21 -35 -21h-307c-13 0 -32 0 -28 22s23 22 35 22h308c13 0 31 0 27 -23z" />
    <glyph glyph-name="uni0332" unicode="&#x332;" horiz-adv-x="0" 
d="M-102 -151c-4 -21 -23 -21 -35 -21h-307c-13 0 -32 0 -28 22s23 22 35 22h308c13 0 31 0 27 -23z" />
    <glyph glyph-name="Alpha" unicode="&#x391;" 
d="M499 21c-4 -21 -26 -21 -39 -21h-105c-14 0 -33 0 -29 21c3 21 21 21 63 21l-6 129h-184l-50 -129c42 0 60 0 57 -21c-4 -21 -23 -21 -37 -21h-106c-12 0 -34 0 -30 21c1 9 6 16 15 20c6 1 27 1 48 1l219 550c13 31 27 31 51 31c26 0 38 0 41 -32l35 -549
c21 0 41 0 47 -1c9 -4 11 -11 10 -20zM379 213l-16 368h-7l-139 -368h162z" />
    <glyph glyph-name="Beta" unicode="&#x392;" 
d="M506 162c-13 -76 -85 -162 -195 -162h-255c-10 0 -31 0 -27 21c3 21 23 21 35 21h39l88 527h-39c-12 0 -32 0 -29 21c4 21 25 21 35 21h234c108 0 154 -79 142 -150c-10 -60 -51 -110 -152 -142c109 -27 135 -90 124 -157zM484 460c6 38 -7 109 -103 109h-140l-38 -230
h117c109 0 156 75 164 121zM455 164c11 65 -40 133 -136 133h-123l-43 -255h142c97 0 151 67 160 122z" />
    <glyph glyph-name="Gamma" unicode="&#x393;" 
d="M569 503c-3 -15 -5 -32 -31 -32c-24 0 -21 18 -19 32l11 66h-270l-88 -527h68c11 0 32 0 29 -21c-4 -21 -25 -21 -36 -21h-167c-12 0 -31 0 -27 21c3 21 22 21 34 21h48l88 527h-48c-12 0 -31 0 -28 20c4 22 23 22 35 22h388c27 0 30 -8 26 -32z" />
    <glyph glyph-name="Delta" unicode="&#x394;" 
d="M489 12c-2 -12 -17 -12 -27 -12h-400c-10 0 -25 0 -23 12v1l276 584c12 26 32 26 51 26c28 0 38 -2 42 -30l81 -580v-1zM432 49l-71 532h-4l-249 -532h324z" />
    <glyph glyph-name="Epsilon" unicode="&#x395;" 
d="M505 32c-4 -25 -11 -32 -36 -32h-409c-11 0 -32 0 -28 21c3 21 23 21 35 21h42l88 527h-42c-11 0 -32 0 -29 21c4 21 25 21 36 21h386c26 0 30 -8 26 -32l-13 -76c-3 -15 -5 -32 -31 -32c-25 0 -22 18 -20 32l11 66h-274l-39 -231h157c8 44 10 59 35 59s22 -18 20 -32
l-16 -96c-3 -15 -5 -32 -30 -32s-23 15 -16 59h-157l-42 -254h297l14 82c2 15 5 32 31 32c25 0 22 -17 20 -32z" />
    <glyph glyph-name="Zeta" unicode="&#x396;" 
d="M483 32c-4 -25 -10 -32 -36 -32h-364c-14 0 -32 0 -28 25c2 8 2 13 14 26l437 518h-297l-11 -66c-3 -15 -5 -32 -31 -32c-25 0 -22 18 -20 32l13 76c4 26 12 32 38 32h345c14 0 32 0 28 -25c-2 -8 -2 -13 -14 -26l-437 -518h314l14 85c3 15 6 32 32 32
c25 0 22 -17 19 -32z" />
    <glyph glyph-name="Eta" unicode="&#x397;" 
d="M504 21c-4 -21 -24 -21 -35 -21h-123c-12 0 -31 0 -27 22c3 20 23 20 34 20h36l43 255h-240l-43 -255h36c12 0 31 0 28 -21c-4 -21 -24 -21 -35 -21h-123c-11 0 -31 0 -27 21c3 21 22 21 34 21h36l88 527h-36c-11 0 -31 0 -28 20c4 22 23 22 35 22h123c12 0 31 0 27 -22
c-3 -20 -23 -20 -34 -20h-36l-38 -230h240l38 230h-36c-12 0 -31 0 -28 21c4 21 24 21 35 21h123c12 0 31 0 27 -22c-3 -20 -23 -20 -34 -20h-36l-88 -527h36c12 0 31 0 28 -21z" />
    <glyph glyph-name="Theta" unicode="&#x398;" 
d="M516 305c-48 -288 -73 -316 -256 -316c-184 0 -198 28 -150 316c48 289 72 317 256 317s198 -29 150 -317zM465 306c9 56 21 127 21 181c-1 72 -27 93 -127 93c-103 0 -131 -24 -156 -86c-19 -50 -32 -130 -42 -189c-9 -56 -21 -127 -21 -181c1 -72 27 -93 127 -93
c103 0 131 24 156 86c19 50 32 130 42 189zM400 281c-3 -15 -5 -32 -31 -32c-9 0 -23 1 -20 32h-80c-7 -32 -22 -32 -30 -32c-26 0 -24 17 -21 32l8 49c3 15 5 32 31 32c9 0 23 -1 20 -32h80c7 32 22 32 30 32c26 0 24 -17 21 -32z" />
    <glyph glyph-name="Iota" unicode="&#x399;" 
d="M446 21c-4 -21 -25 -21 -36 -21h-295c-11 0 -32 0 -28 22c3 20 24 20 35 20h122l88 527h-122c-11 0 -32 0 -29 21c4 21 25 21 36 21h295c11 0 32 0 28 -22c-3 -20 -24 -20 -35 -20h-122l-88 -527h122c11 0 32 0 29 -21z" />
    <glyph glyph-name="Kappa" unicode="&#x39a;" 
d="M497 21c-4 -21 -25 -21 -37 -21h-77c-12 0 -32 0 -28 22c3 20 23 20 52 20l-113 288l-131 -136l-25 -152h33c12 0 32 0 29 -21c-4 -21 -25 -21 -36 -21h-104c-12 0 -32 0 -28 22c3 20 24 20 35 20h31l88 527h-31c-12 0 -32 0 -29 21c4 21 25 21 36 21h104
c12 0 32 0 28 -22c-3 -20 -24 -20 -35 -20h-33l-53 -315l303 315c-32 0 -54 0 -51 20c4 22 25 22 36 22h91c11 0 32 0 28 -21c-3 -21 -22 -21 -56 -21l-200 -208l126 -319c29 0 50 0 47 -21z" />
    <glyph glyph-name="Lambda" unicode="&#x39b;" 
d="M497 21c-4 -21 -25 -21 -37 -21h-111c-12 0 -32 0 -28 22c3 20 24 20 35 20h34l-29 539h-5l-209 -539h35c12 0 32 0 29 -21c-4 -21 -25 -21 -36 -21h-112c-11 0 -32 0 -28 21c3 21 23 21 60 21l220 554c12 27 29 27 46 27h10c18 0 34 0 37 -30l35 -551c37 0 57 0 54 -21z
" />
    <glyph glyph-name="Mu" unicode="&#x39c;" 
d="M509 21c-4 -21 -24 -21 -35 -21h-85c-11 0 -31 0 -27 21c3 21 22 21 58 21l88 527h-7l-168 -341c-6 -13 -26 -17 -36 -17c-9 0 -25 2 -28 13l-55 345h-7l-88 -527c35 0 54 0 51 -21c-4 -21 -24 -21 -35 -21h-85c-11 0 -31 0 -27 21c3 21 22 21 58 21l88 527
c-36 0 -55 0 -52 21c4 21 24 21 35 21h58c11 0 38 1 41 -18l52 -340h2l158 324c11 22 21 34 55 34h58c11 0 31 0 27 -21c-3 -21 -22 -21 -58 -21l-88 -527c36 0 55 0 52 -21z" />
    <glyph glyph-name="Nu" unicode="&#x39d;" 
d="M592 589c-3 -20 -23 -20 -34 -20h-37l-90 -537c-5 -30 -14 -32 -38 -32c-22 0 -38 1 -44 30l-110 539h-9l-88 -527h36c12 0 31 0 28 -21c-4 -21 -24 -21 -35 -21h-110c-12 0 -31 0 -27 22c3 20 23 20 34 20h37l88 527h-37c-12 0 -31 0 -28 21c4 21 24 21 35 21h71
c23 0 37 -2 43 -30l110 -539h9l88 527h-36c-11 0 -31 0 -28 20c4 22 23 22 35 22h110c12 0 31 0 27 -22z" />
    <glyph glyph-name="Xi" unicode="&#x39e;" 
d="M577 559c-2 -14 -5 -32 -30 -32s-22 16 -18 44h-344c-4 -28 -7 -44 -32 -44s-22 18 -20 32l4 20c4 26 11 32 37 32h381c27 0 30 -8 26 -32zM459 293c-3 -16 -5 -31 -31 -31c-18 0 -24 7 -19 36h-194c-5 -29 -13 -36 -31 -36c-26 0 -24 15 -21 31l8 50c3 15 5 31 31 31
c18 0 24 -7 19 -36h194c5 29 13 36 31 36c26 0 24 -16 21 -31zM493 32c-4 -25 -10 -32 -36 -32h-389c-26 0 -31 6 -27 32l5 25c2 14 5 32 29 32c26 0 23 -16 18 -49h352c5 33 8 49 34 49c24 0 21 -18 19 -32z" />
    <glyph glyph-name="Omicron" unicode="&#x39f;" 
d="M516 305c-48 -288 -73 -316 -256 -316c-184 0 -198 28 -150 316c48 289 72 317 256 317s198 -29 150 -317zM466 314c11 64 24 143 19 192c-6 62 -42 74 -126 74c-92 0 -129 -15 -154 -81c-20 -49 -32 -120 -43 -185c-9 -57 -24 -148 -20 -202c3 -56 26 -81 125 -81
c100 0 132 25 155 88c21 56 34 130 44 195z" />
    <glyph glyph-name="Pi" unicode="&#x3a0;" 
d="M504 21c-4 -21 -24 -21 -35 -21h-123c-12 0 -31 0 -27 22c3 20 23 20 34 20h36l88 527h-240l-88 -527h36c12 0 31 0 28 -21c-4 -21 -24 -21 -35 -21h-123c-11 0 -31 0 -27 21c3 21 22 21 34 21h36l88 527h-36c-11 0 -31 0 -28 20c4 22 23 22 35 22h414c12 0 31 0 27 -22
c-3 -20 -23 -20 -34 -20h-36l-88 -527h36c12 0 31 0 28 -21z" />
    <glyph glyph-name="Rho" unicode="&#x3a1;" 
d="M549 432c-15 -91 -102 -179 -215 -179h-140l-35 -211h42c11 0 32 0 29 -21c-4 -21 -25 -21 -36 -21h-134c-11 0 -32 0 -28 21c3 21 23 21 35 21h42l88 527h-42c-11 0 -32 0 -29 21c4 21 25 21 36 21h232c112 0 170 -88 155 -179zM498 432c10 59 -24 137 -131 137h-120
l-46 -273h120c107 0 167 77 177 136z" />
    <glyph glyph-name="Sigma" unicode="&#x3a3;" 
d="M486 32c-4 -25 -10 -32 -36 -32h-375c-10 0 -32 0 -29 19c0 0 1 3 2 5l210 281l-113 265c-5 10 -4 15 -4 19c4 22 24 22 36 22h375c27 0 30 -8 26 -32l-13 -76c-3 -15 -5 -32 -31 -32c-25 0 -22 18 -20 32l11 66h-320l109 -260c-2 -7 -3 -10 -12 -22l-181 -243h316l11 66
c3 15 6 32 32 32c25 0 22 -18 19 -32z" />
    <glyph glyph-name="Tau" unicode="&#x3a4;" 
d="M580 503c-3 -15 -5 -32 -31 -32c-25 0 -22 18 -20 32l11 66h-157l-88 -527h64c12 0 31 0 28 -21c-4 -21 -24 -21 -35 -21h-179c-12 0 -31 0 -27 22c3 20 23 20 34 20h64l88 527h-158l-11 -66c-3 -15 -5 -32 -31 -32c-25 0 -22 18 -20 32l13 76c4 26 12 32 37 32h405
c26 0 30 -8 26 -32z" />
    <glyph glyph-name="Upsilon" unicode="&#x3a5;" 
d="M566 499c-3 -22 -21 -22 -28 -22c-9 0 -25 0 -21 24c6 39 -1 88 -45 88c-80 0 -115 -173 -124 -231l-53 -316h46c12 0 32 0 29 -21c-4 -21 -24 -21 -36 -21h-143c-12 0 -32 0 -28 21c3 21 23 21 35 21h46l53 316c9 57 32 231 -49 231c-42 0 -66 -45 -74 -90
c-3 -22 -20 -22 -28 -22c-7 0 -25 0 -22 22c9 55 61 123 129 123c53 0 88 -38 85 -173c44 136 84 173 141 173c69 0 96 -69 87 -123z" />
    <glyph glyph-name="Phi" unicode="&#x3a6;" 
d="M532 305c-12 -69 -98 -133 -217 -146l-20 -117h53c11 0 32 0 29 -21c-4 -21 -25 -21 -36 -21h-157c-11 0 -32 0 -28 22c3 20 24 20 35 20h53l20 117c-113 11 -182 73 -170 147c12 70 98 134 218 146l20 117h-53c-11 0 -32 0 -29 21c4 21 25 21 36 21h157
c11 0 32 0 28 -22c-3 -20 -24 -20 -35 -20h-53l-20 -117c113 -12 181 -74 169 -147zM481 306c8 48 -40 92 -125 104l-34 -209c83 12 150 52 159 105zM271 201l34 209c-90 -12 -153 -56 -161 -105c-8 -46 37 -91 127 -104z" />
    <glyph glyph-name="Chi" unicode="&#x3a7;" 
d="M498 21c-4 -21 -25 -21 -36 -21h-108c-11 0 -31 0 -27 21c3 21 21 21 56 21l-81 235l-150 -235c35 0 55 0 52 -21c-4 -21 -25 -21 -36 -21h-108c-11 0 -31 0 -27 21c3 21 22 21 34 21h29l190 284l-88 243h-30c-12 0 -32 0 -29 21c4 21 25 21 36 21h107c11 0 31 0 27 -21
c-3 -21 -22 -21 -54 -21l66 -185l121 185c-35 0 -54 0 -51 21c4 21 24 21 35 21h108c11 0 32 0 28 -22c-3 -20 -24 -20 -35 -20h-30l-162 -242l104 -285h30c11 0 32 0 29 -21z" />
    <glyph glyph-name="Psi" unicode="&#x3a8;" 
d="M559 457c-2 -16 -16 -20 -22 -21c-18 -4 -30 -48 -33 -66c-16 -86 -59 -188 -189 -210l-20 -118h46c12 0 32 0 29 -21c-4 -21 -24 -21 -36 -21h-143c-12 0 -32 0 -28 21c3 21 23 21 35 21h46l20 118c-124 22 -133 126 -122 200c5 32 5 72 -9 76c-6 1 -18 5 -16 21
c4 22 23 22 31 22c60 0 55 -59 47 -106c-11 -66 -12 -144 76 -171l61 367h-46c-12 0 -32 0 -29 20c4 22 24 22 36 22h143c12 0 32 0 28 -22c-3 -20 -23 -20 -35 -20h-46l-61 -367c97 29 121 109 131 170c6 36 18 107 83 107c8 0 27 0 23 -22z" />
    <glyph glyph-name="Omega" unicode="&#x3a9;" 
d="M494 32c-4 -25 -10 -32 -36 -32h-106c-15 0 -32 0 -28 26c11 65 57 139 86 188c45 76 78 133 88 195c17 99 -50 171 -139 171s-181 -72 -198 -171c-10 -59 5 -119 42 -261c8 -40 12 -82 5 -122c-4 -26 -20 -26 -35 -26h-106c-26 0 -31 6 -27 32l5 27c2 10 5 32 23 32
c19 0 16 -22 11 -49h88c1 60 -8 96 -29 164c-19 66 -39 132 -27 203c20 121 136 213 255 213s203 -92 183 -213c-11 -69 -50 -132 -90 -196c-45 -70 -68 -107 -88 -171h88c5 27 8 49 27 49c18 0 15 -22 13 -32z" />
    <glyph glyph-name="baht" unicode="&#xe3f;" 
d="M506 162c-13 -76 -85 -162 -195 -162h-36l-12 -74c-2 -12 -12 -22 -24 -22c-13 0 -20 10 -18 22l12 74h-177c-10 0 -31 0 -27 21c3 21 23 21 35 21h39l88 527h-39c-12 0 -32 0 -29 21c4 21 25 21 35 21h176l12 74c2 12 14 22 27 22c12 0 19 -10 17 -22l-12 -74h14
c108 0 154 -79 142 -150c-10 -60 -51 -110 -152 -142c109 -27 135 -90 124 -157zM484 460c6 38 -7 109 -113 109l-38 -230c103 12 144 78 151 121zM290 339l38 230h-87l-38 -230h87zM455 164c9 51 -27 133 -123 133h-7l-43 -255h13c97 0 151 67 160 122zM240 42l43 255h-87
l-43 -255h87z" />
    <glyph glyph-name="Ddotbelow" unicode="&#x1e0c;" 
d="M532 301c-26 -160 -136 -301 -266 -301h-213c-11 0 -32 0 -28 21c3 21 23 21 35 21h33l88 527h-33c-11 0 -32 0 -29 20c4 22 24 22 36 22h213c133 0 191 -151 164 -310zM482 301c21 125 -18 268 -141 268h-109l-88 -527h109c121 0 208 132 229 259zM213 -165
c-4 -24 -25 -42 -48 -42s-38 18 -34 42c4 23 25 41 48 41s38 -18 34 -41z" />
    <glyph glyph-name="ddotbelow" unicode="&#x1e0d;" 
d="M514 22c-4 -22 -24 -22 -36 -22h-75c-31 0 -29 12 -20 67c-54 -47 -98 -73 -153 -73c-104 0 -176 96 -156 218c21 125 131 219 238 219c42 0 79 -16 122 -59l33 197h-57c-11 0 -31 0 -28 20c4 22 24 22 36 22h75c27 0 30 -8 26 -32l-90 -537h57c11 0 31 0 28 -20z
M404 190l12 74c10 62 -35 125 -107 125c-77 0 -167 -71 -185 -177c-16 -98 39 -176 117 -176c86 0 152 92 163 154zM276 -165c-4 -24 -25 -42 -48 -42s-38 18 -34 42c4 23 25 41 48 41s38 -18 34 -41z" />
    <glyph glyph-name="Dlinebelow" unicode="&#x1e0e;" 
d="M532 301c-26 -160 -136 -301 -266 -301h-213c-11 0 -32 0 -28 21c3 21 23 21 35 21h33l88 527h-33c-11 0 -32 0 -29 20c4 22 24 22 36 22h213c133 0 191 -151 164 -310zM482 301c21 125 -18 268 -141 268h-109l-88 -527h109c121 0 208 132 229 259zM360 -151
c-4 -21 -23 -21 -35 -21h-307c-13 0 -32 0 -28 22s23 22 35 22h308c13 0 31 0 27 -23z" />
    <glyph glyph-name="dlinebelow" unicode="&#x1e0f;" 
d="M514 22c-4 -22 -24 -22 -36 -22h-75c-31 0 -29 12 -20 67c-54 -47 -98 -73 -153 -73c-104 0 -176 96 -156 218c21 125 131 219 238 219c42 0 79 -16 122 -59l33 197h-57c-11 0 -31 0 -28 20c4 22 24 22 36 22h75c27 0 30 -8 26 -32l-90 -537h57c11 0 31 0 28 -20z
M404 190l12 74c10 62 -35 125 -107 125c-77 0 -167 -71 -185 -177c-16 -98 39 -176 117 -176c86 0 152 92 163 154zM423 -151c-4 -21 -23 -21 -35 -21h-307c-13 0 -32 0 -28 22s23 22 35 22h308c13 0 31 0 27 -23z" />
    <glyph glyph-name="Hdotbelow" unicode="&#x1e24;" 
d="M504 21c-4 -21 -24 -21 -35 -21h-123c-12 0 -31 0 -27 22c3 20 23 20 34 20h36l43 255h-240l-43 -255h36c12 0 31 0 28 -21c-4 -21 -24 -21 -35 -21h-123c-11 0 -31 0 -27 21c3 21 22 21 34 21h36l88 527h-36c-11 0 -31 0 -28 20c4 22 23 22 35 22h123c12 0 31 0 27 -22
c-3 -20 -23 -20 -34 -20h-36l-38 -230h240l38 230h-36c-12 0 -31 0 -28 21c4 21 24 21 35 21h123c12 0 31 0 27 -22c-3 -20 -23 -20 -34 -20h-36l-88 -527h36c12 0 31 0 28 -21zM276 -165c-4 -24 -25 -42 -48 -42s-38 18 -34 42c4 23 25 41 48 41s38 -18 34 -41z" />
    <glyph glyph-name="hdotbelow" unicode="&#x1e25;" 
d="M514 21c-4 -21 -24 -21 -35 -21h-158c-11 0 -32 0 -28 21c3 21 23 21 35 21h51l41 245c12 70 -1 102 -63 102c-57 0 -147 -42 -166 -153l-32 -194h56c12 0 32 0 29 -21c-4 -21 -24 -21 -35 -21h-164c-11 0 -31 0 -27 21c3 21 23 21 35 21h56l88 527h-57
c-11 0 -31 0 -28 20c4 22 24 22 36 22h75c27 0 30 -8 26 -32l-37 -217c43 36 93 69 158 69c76 0 117 -42 101 -138l-42 -251h56c12 0 32 0 29 -21zM276 -165c-4 -24 -25 -42 -48 -42s-38 18 -34 42c4 23 25 41 48 41s38 -18 34 -41z" />
    <glyph glyph-name="Hdieresis" unicode="&#x1e26;" 
d="M504 21c-4 -21 -24 -21 -35 -21h-123c-12 0 -31 0 -27 22c3 20 23 20 34 20h36l43 255h-240l-43 -255h36c12 0 31 0 28 -21c-4 -21 -24 -21 -35 -21h-123c-11 0 -31 0 -27 21c3 21 22 21 34 21h36l88 527h-36c-11 0 -31 0 -28 20c4 22 23 22 35 22h123c12 0 31 0 27 -22
c-3 -20 -23 -20 -34 -20h-36l-38 -230h240l38 230h-36c-12 0 -31 0 -28 21c4 21 24 21 35 21h123c12 0 31 0 27 -22c-3 -20 -23 -20 -34 -20h-36l-88 -527h36c12 0 31 0 28 -21zM314 699c-3 -20 -22 -36 -42 -36s-33 16 -30 36c4 21 22 36 42 36s34 -15 30 -36zM515 699
c-3 -20 -22 -36 -42 -36s-33 16 -30 36c4 21 22 36 42 36s34 -15 30 -36z" />
    <glyph glyph-name="hdieresis" unicode="&#x1e27;" 
d="M514 21c-4 -21 -24 -21 -35 -21h-158c-11 0 -32 0 -28 21c3 21 23 21 35 21h51l41 245c12 70 -1 102 -63 102c-57 0 -147 -42 -166 -153l-32 -194h56c12 0 32 0 29 -21c-4 -21 -24 -21 -35 -21h-164c-11 0 -31 0 -27 21c3 21 23 21 35 21h56l88 527h-57
c-11 0 -31 0 -28 20c4 22 24 22 36 22h75c27 0 30 -8 26 -32l-37 -217c43 36 93 69 158 69c76 0 117 -42 101 -138l-42 -251h56c12 0 32 0 29 -21zM314 699c-3 -20 -22 -36 -42 -36s-33 16 -30 36c4 21 22 36 42 36s34 -15 30 -36zM515 699c-3 -20 -22 -36 -42 -36
s-33 16 -30 36c4 21 22 36 42 36s34 -15 30 -36z" />
    <glyph glyph-name="Hbrevebelow" unicode="&#x1e2a;" 
d="M504 21c-4 -21 -24 -21 -35 -21h-123c-12 0 -31 0 -27 22c3 20 23 20 34 20h36l43 255h-240l-43 -255h36c12 0 31 0 28 -21c-4 -21 -24 -21 -35 -21h-123c-11 0 -31 0 -27 21c3 21 22 21 34 21h36l88 527h-36c-11 0 -31 0 -28 20c4 22 23 22 35 22h123c12 0 31 0 27 -22
c-3 -20 -23 -20 -34 -20h-36l-38 -230h240l38 230h-36c-12 0 -31 0 -28 21c4 21 24 21 35 21h123c12 0 31 0 27 -22c-3 -20 -23 -20 -34 -20h-36l-88 -527h36c12 0 31 0 28 -21zM414 -124c-12 -74 -120 -74 -184 -74s-172 0 -160 74c2 13 13 22 26 22c11 0 15 -5 16 -11
c3 -34 76 -40 125 -40c48 0 124 6 139 40c3 6 9 11 20 11c14 0 20 -9 18 -22z" />
    <glyph glyph-name="hbrevebelow" unicode="&#x1e2b;" 
d="M514 21c-4 -21 -24 -21 -35 -21h-158c-11 0 -32 0 -28 21c3 21 23 21 35 21h51l41 245c12 70 -1 102 -63 102c-57 0 -147 -42 -166 -153l-32 -194h56c12 0 32 0 29 -21c-4 -21 -24 -21 -35 -21h-164c-11 0 -31 0 -27 21c3 21 23 21 35 21h56l88 527h-57
c-11 0 -31 0 -28 20c4 22 24 22 36 22h75c27 0 30 -8 26 -32l-37 -217c43 36 93 69 158 69c76 0 117 -42 101 -138l-42 -251h56c12 0 32 0 29 -21zM414 -124c-12 -74 -120 -74 -184 -74s-172 0 -160 74c2 13 13 22 26 22c11 0 15 -5 16 -11c3 -34 76 -40 125 -40
c48 0 124 6 139 40c3 6 9 11 20 11c14 0 20 -9 18 -22z" />
    <glyph glyph-name="Idieresisacute" unicode="&#x1e2e;" 
d="M446 21c-4 -21 -25 -21 -36 -21h-295c-11 0 -32 0 -28 22c3 20 24 20 35 20h122l88 527h-122c-11 0 -32 0 -29 21c4 21 25 21 36 21h295c11 0 32 0 28 -22c-3 -20 -24 -20 -35 -20h-122l-88 -527h122c11 0 32 0 29 -21zM314 699c-3 -20 -22 -36 -42 -36s-33 16 -30 36
c4 21 22 36 42 36s34 -15 30 -36zM515 699c-3 -20 -22 -36 -42 -36s-33 16 -30 36c4 21 22 36 42 36s34 -15 30 -36zM510 888c-1 -8 -7 -18 -27 -26l-155 -64c-2 -1 -7 -2 -7 -2c-20 0 -20 25 -19 31c2 12 12 16 23 21l148 62c10 4 16 4 16 4c15 0 24 -11 21 -26z" />
    <glyph glyph-name="idieresisacute" unicode="&#x1e2f;" 
d="M455 21c-4 -21 -25 -21 -36 -21h-305c-11 0 -32 0 -28 21c3 21 23 21 35 21h136l57 341h-128c-11 0 -32 0 -29 21c4 21 25 21 36 21h147c27 0 30 -8 26 -32l-59 -351h119c11 0 32 0 29 -21zM307 563c-3 -20 -22 -36 -42 -36s-33 16 -30 36c3 21 22 37 42 37
s33 -16 30 -37zM478 563c-3 -20 -22 -36 -42 -36s-33 16 -30 36c3 21 22 37 42 37s33 -16 30 -37zM489 765c-1 -8 -7 -18 -27 -26l-155 -64c-2 -1 -7 -2 -7 -2c-20 0 -20 25 -19 31c2 12 12 16 23 21l148 62c10 4 16 4 16 4c15 0 24 -11 21 -26z" />
    </font>
</defs>
</svg>
