<svg xmlns="http://www.w3.org/2000/svg">
<defs>
<font id="vollkorn" horiz-adv-x="731" >
  <font-face 
    font-family="Vollkorn"
    font-weight="400"
    font-stretch="normal"
    units-per-em="1000"
    panose-1="0 0 5 0 0 0 0 0 0 0"
    ascent="800"
    descent="-200"
    x-height="460"
    cap-height="679"
    bbox="-175 -280 3056 980.182"
    underline-thickness="40"
    underline-position="-300"
    stemh="46"
    stemv="51"
    unicode-range="U+0020-FB02"
  />
<missing-glyph horiz-adv-x="454" 
d="M405 677v-677h-352v677h352zM121 559c2 0 2 0 2 -1v-11c0 -2 0 -2 -1 -2l-1 -1h3h3v1c-1 0 -2 0 -2 2v13v1c-1 0 -3 -1 -3 -1c-1 0 -1 0 -1 -1zM129 545v-1h3h2v1c-1 0 -1 0 -1 2v13c0 1 -1 1 -1 1s-2 -1 -3 -1v-1c1 0 2 0 2 -1v-11c0 -2 -1 -2 -2 -2zM140 547v2
c2 -1 4 -4 5 -5h3v1c-1 0 -1 0 -3 1l-3 5l2 1c1 2 2 2 3 3h-2h-3s0 -1 1 -1c0 -1 0 -1 -1 -2l-2 -2v10v1c-1 0 -3 -1 -4 -1v-1c2 0 2 0 2 -1v-11c0 -2 -1 -2 -2 -2v-1h3h3l-1 1c-1 0 -1 0 -1 2zM191 560v-1c2 0 2 0 2 -1v-10c0 -2 0 -2 -1 -3c1 -1 3 -1 5 -1c4 0 6 2 6 6
c0 3 -2 5 -4 5s-3 -1 -4 -2v1v6c0 1 0 1 -1 1c0 0 -2 -1 -3 -1zM94 560v-1c1 0 1 0 2 -3c2 -3 4 -8 5 -12h1c2 4 4 8 5 12c1 2 1 3 2 3v1h-2h-2v-1c1 0 1 0 1 -1v-2l-3 -9c-2 4 -3 7 -4 10c-1 0 -1 1 -1 1c0 1 1 1 2 1v1h-3h-3zM114 544c3 0 6 2 6 5c0 4 -2 6 -6 6
c-3 0 -5 -2 -5 -6c0 -3 2 -5 5 -5zM149 549c0 -3 2 -5 6 -5c3 0 5 2 5 5c0 4 -2 6 -5 6c-4 0 -6 -2 -6 -6zM162 545v-1h3h3v1c-1 0 -2 0 -2 2v3c0 2 1 3 2 3s1 0 1 -2h2v3c-1 1 -1 1 -2 1s-2 -1 -3 -1c0 1 0 1 -1 1c0 0 -2 -1 -3 -1v-1c2 0 2 0 2 -1v-5c0 -2 -1 -2 -2 -2z
M172 545v-1h3h3v1c-1 0 -2 0 -2 2v2c0 3 2 5 3 5s2 -1 2 -3v-4c0 -2 0 -2 -1 -2l-1 -1h3h3v1c-1 0 -2 0 -2 2v4c0 3 -1 4 -3 4s-3 -1 -4 -1v1l-4 -1v-1c2 0 2 0 2 -1v-5c0 -2 0 -2 -2 -2zM211 543l4 8c1 2 1 3 2 4h-2h-3v-1c1 0 2 -1 2 -1c0 -1 0 -1 -1 -2l-1 -4v-1
c-1 2 -2 4 -3 5v2s0 1 1 1s1 1 1 1h-4c-1 0 -2 0 -2 -1c1 0 1 -1 2 -3l3 -7c0 -2 0 -2 -1 -3c0 -1 -1 -1 -2 -1h-2v-2h2c2 0 2 0 4 5zM114 554c2 0 3 -2 3 -5s-1 -4 -3 -4s-3 2 -3 5c0 2 1 4 3 4zM154 554c2 0 4 -2 4 -5s-1 -4 -3 -4s-3 2 -3 5c0 2 0 4 2 4zM201 549

<glyph glyph-name="fi" unicode="fi" horiz-adv-x="628" 
d="M586 40c4 -12 5 -28 5 -43c-26 2 -70 3 -114 3s-87 -1 -114 -3c0 17 1 30 5 43c53 3 69 20 69 87v194c0 54 -11 78 -104 81c-39 0 -108 -6 -127 -12v-263c0 -64 18 -84 69 -87c4 -12 5 -25 5 -43c-26 2 -74 3 -114 3s-98 -1 -124 -3c0 18 1 32 5 43c53 3 69 20 69 87v265
c-16 7 -56 12 -80 12c0 12 4 31 14 44h66v40c0 129 93 227 243 227c62 0 109 -13 151 -31c-3 -42 -3 -66 -3 -92c-19 -13 -55 -21 -86 -15c0 54 -29 86 -88 86c-92 0 -127 -47 -127 -144v-71h167c43 1 95 6 132 19c16 -7 22 -17 22 -43v-297c0 -67 16 -84 59 -87z" />
    <glyph glyph-name="fl" unicode="fl" horiz-adv-x="624" 
d="M583 40c4 -14 5 -34 5 -43c-35 2 -75 3 -113 3s-82 -1 -115 -3c0 13 1 30 5 43c53 0 69 20 69 87v438c0 63 -44 96 -114 96c-76 0 -114 -40 -114 -142v-71h102c0 -13 -2 -32 -10 -45c-35 0 -66 -4 -92 -11v-245c0 -86 16 -104 69 -107c4 -11 5 -25 5 -43
c-31 2 -69 3 -116 3s-96 -1 -122 -3c0 18 1 32 5 43c53 3 69 20 69 87v268c-29 6 -60 8 -80 8c0 17 4 32 14 45h66v40c0 157 122 227 235 227c39 0 77 -9 101 -20c17 4 35 11 50 22c12 -4 22 -15 22 -40v-550c0 -67 16 -87 59 -87z" />
    <glyph glyph-name="f_f" unicode="ff" horiz-adv-x="665" 
d="M648 714c52 0 73 -12 95 -25c-3 -42 -4 -81 -4 -117c-17 -5 -39 -8 -57 -8c0 54 -22 95 -78 95c-54 0 -75 -51 -75 -140v-71h102c0 -13 -2 -32 -10 -45c-35 0 -66 -4 -92 -11v-245c0 -87 26 -104 89 -107c4 -11 5 -25 5 -43c-31 2 -79 3 -126 3s-106 -1 -132 -3
c0 18 1 32 5 43c53 3 69 20 69 87v268c-28 6 -59 10 -106 10c-67 0 -101 -6 -127 -13v-245c0 -87 26 -104 89 -107c4 -11 5 -25 5 -43c-31 2 -79 3 -126 3s-106 -1 -132 -3c0 18 1 32 5 43c53 3 69 20 69 87v268c-29 6 -60 8 -80 8c0 17 4 32 14 45h66v23
c0 134 104 228 237 228c52 0 102 -16 144 -49c40 43 96 64 151 64zM439 448v40c0 32 5 60 13 85c-27 46 -65 74 -114 74c-76 0 -132 -41 -132 -148v-51h233z" />
    <glyph glyph-name="f_f_i" unicode="ffi" horiz-adv-x="951" 
d="M909 40c4 -12 5 -28 5 -43c-26 2 -70 3 -114 3s-87 -1 -114 -3c0 17 1 30 5 43c53 3 69 20 69 87v194c0 54 -11 78 -104 81c-39 0 -108 -6 -127 -12v-263c0 -64 18 -84 69 -87c4 -12 5 -25 5 -43c-26 2 -74 3 -114 3s-98 -1 -124 -3c0 18 1 32 5 43c53 3 69 20 69 87v268
c-28 6 -59 10 -106 10c-67 0 -101 -6 -127 -13v-245c0 -87 26 -104 89 -107c4 -11 5 -25 5 -43c-31 2 -79 3 -126 3s-106 -1 -132 -3c0 18 1 32 5 43c53 3 69 20 69 87v268c-29 6 -60 8 -80 8c0 17 4 32 14 45h66v23c0 134 104 228 237 228c53 0 106 -17 148 -52
c42 42 104 68 181 68c62 0 109 -13 151 -31c-3 -42 -3 -66 -3 -92c-19 -13 -55 -21 -86 -15c0 54 -29 86 -88 86c-92 0 -127 -47 -127 -144v-71h167c43 1 95 6 132 19c16 -7 22 -17 22 -43v-297c0 -67 16 -84 59 -87zM439 448v40c0 30 5 58 14 83c-27 47 -66 76 -115 76
c-76 0 -132 -41 -132 -148v-51h233z" />
    <glyph glyph-name="f_f_l" unicode="ffl" horiz-adv-x="947" 
d="M906 40c4 -14 5 -34 5 -43c-35 2 -75 3 -113 3s-82 -1 -115 -3c0 13 1 30 5 43c53 0 69 20 69 87v438c0 63 -44 96 -114 96c-76 0 -114 -40 -114 -142v-71h102c0 -13 -2 -32 -10 -45c-35 0 -66 -4 -92 -11v-245c0 -86 16 -104 69 -107c4 -11 5 -25 5 -43
c-31 2 -69 3 -116 3s-96 -1 -122 -3c0 18 1 32 5 43c53 3 69 20 69 87v268c-28 6 -59 10 -106 10c-67 0 -101 -6 -127 -13v-245c0 -87 26 -104 89 -107c4 -11 5 -25 5 -43c-31 2 -79 3 -126 3s-106 -1 -132 -3c0 18 1 32 5 43c53 3 69 20 69 87v268c-29 6 -60 8 -80 8
c0 17 4 32 14 45h66v23c0 134 104 228 237 228c53 0 105 -16 147 -51c46 46 111 67 174 67c39 0 77 -9 101 -20c17 4 35 11 50 22c12 -4 22 -15 22 -40v-550c0 -67 16 -87 59 -87zM439 448v40c0 32 5 60 14 84c-28 47 -66 75 -115 75c-76 0 -132 -41 -132 -148v-51h233z" />
    <glyph glyph-name="f_f_t.liga" unicode="fft" horiz-adv-x="1013" 
d="M968 69c8 -9 14 -22 15 -33c-22 -25 -71 -45 -113 -45c-79 0 -116 38 -116 129v271c-20 7 -39 11 -72 13c0 17 2 28 9 44h63v97c0 63 -42 96 -112 96c-76 0 -113 -40 -113 -142v-51h102c0 -13 -2 -32 -10 -45c-35 0 -66 -4 -92 -11v-245c0 -87 26 -104 89 -107
c4 -11 5 -25 5 -43c-31 2 -79 3 -126 3s-106 -1 -132 -3c0 18 1 32 5 43c53 3 69 20 69 87v268c-28 6 -59 10 -106 10c-67 0 -101 -6 -127 -13v-245c0 -87 26 -104 89 -107c4 -11 5 -25 5 -43c-31 2 -79 3 -126 3s-106 -1 -132 -3c0 18 1 32 5 43c53 3 69 20 69 87v268
c-29 6 -60 8 -80 8c0 17 4 32 14 45h66v13c0 134 104 228 237 228c55 0 109 -18 152 -56c46 42 108 62 168 62c42 0 83 -11 109 -27c14 4 28 11 40 19c12 -4 23 -15 23 -40v-199h129c0 -13 -3 -29 -9 -44c-48 -2 -87 -6 -120 -13v-250c0 -67 21 -96 57 -96c28 0 47 8 66 24z
M439 448v20c0 34 6 64 16 90c-28 49 -67 79 -117 79c-76 0 -132 -41 -132 -148v-41h233z" />
    <glyph glyph-name="f_t.liga" unicode="ft" horiz-adv-x="690" 
d="M645 69c8 -9 14 -22 15 -33c-22 -25 -71 -45 -113 -45c-79 0 -116 38 -116 129v271c-20 7 -39 11 -72 13c0 17 2 28 9 44h63v97c0 63 -42 96 -112 96c-76 0 -113 -40 -113 -142v-51h102c0 -13 -2 -32 -10 -45c-35 0 -66 -4 -92 -11v-245c0 -87 26 -104 89 -107
c4 -11 5 -25 5 -43c-31 2 -79 3 -126 3s-106 -1 -132 -3c0 18 1 32 5 43c53 3 69 20 69 87v268c-29 6 -60 8 -80 8c0 17 4 32 14 45h66v20c0 157 121 227 234 227c42 0 83 -11 109 -27c14 4 28 11 40 19c12 -4 23 -15 23 -40v-199h129c0 -13 -3 -29 -9 -44
c-48 -2 -87 -6 -120 -13v-250c0 -67 21 -96 57 -96c28 0 47 8 66 24z" />
    <glyph glyph-name=".notdef" horiz-adv-x="454" 
d="M405 677v-677h-352v677h352zM121 559c2 0 2 0 2 -1v-11c0 -2 0 -2 -1 -2l-1 -1h3h3v1c-1 0 -2 0 -2 2v13v1c-1 0 -3 -1 -3 -1c-1 0 -1 0 -1 -1zM129 545v-1h3h2v1c-1 0 -1 0 -1 2v13c0 1 -1 1 -1 1s-2 -1 -3 -1v-1c1 0 2 0 2 -1v-11c0 -2 -1 -2 -2 -2zM140 547v2
c2 -1 4 -4 5 -5h3v1c-1 0 -1 0 -3 1l-3 5l2 1c1 2 2 2 3 3h-2h-3s0 -1 1 -1c0 -1 0 -1 -1 -2l-2 -2v10v1c-1 0 -3 -1 -4 -1v-1c2 0 2 0 2 -1v-11c0 -2 -1 -2 -2 -2v-1h3h3l-1 1c-1 0 -1 0 -1 2zM191 560v-1c2 0 2 0 2 -1v-10c0 -2 0 -2 -1 -3c1 -1 3 -1 5 -1c4 0 6 2 6 6
c0 3 -2 5 -4 5s-3 -1 -4 -2v1v6c0 1 0 1 -1 1c0 0 -2 -1 -3 -1zM94 560v-1c1 0 1 0 2 -3c2 -3 4 -8 5 -12h1c2 4 4 8 5 12c1 2 1 3 2 3v1h-2h-2v-1c1 0 1 0 1 -1v-2l-3 -9c-2 4 -3 7 -4 10c-1 0 -1 1 -1 1c0 1 1 1 2 1v1h-3h-3zM114 544c3 0 6 2 6 5c0 4 -2 6 -6 6
c-3 0 -5 -2 -5 -6c0 -3 2 -5 5 -5zM149 549c0 -3 2 -5 6 -5c3 0 5 2 5 5c0 4 -2 6 -5 6c-4 0 -6 -2 -6 -6zM162 545v-1h3h3v1c-1 0 -2 0 -2 2v3c0 2 1 3 2 3s1 0 1 -2h2v3c-1 1 -1 1 -2 1s-2 -1 -3 -1c0 1 0 1 -1 1c0 0 -2 -1 -3 -1v-1c2 0 2 0 2 -1v-5c0 -2 -1 -2 -2 -2z
M172 545v-1h3h3v1c-1 0 -2 0 -2 2v2c0 3 2 5 3 5s2 -1 2 -3v-4c0 -2 0 -2 -1 -2l-1 -1h3h3v1c-1 0 -2 0 -2 2v4c0 3 -1 4 -3 4s-3 -1 -4 -1v1l-4 -1v-1c2 0 2 0 2 -1v-5c0 -2 0 -2 -2 -2zM211 543l4 8c1 2 1 3 2 4h-2h-3v-1c1 0 2 -1 2 -1c0 -1 0 -1 -1 -2l-1 -4v-1
c-1 2 -2 4 -3 5v2s0 1 1 1s1 1 1 1h-4c-1 0 -2 0 -2 -1c1 0 1 -1 2 -3l3 -7c0 -2 0 -2 -1 -3c0 -1 -1 -1 -2 -1h-2v-2h2c2 0 2 0 4 5zM114 554c2 0 3 -2 3 -5s-1 -4 -3 -4s-3 2 -3 5c0 2 1 4 3 4zM154 554c2 0 4 -2 4 -5s-1 -4 -3 -4s-3 2 -3 5c0 2 0 4 2 4zM201 549
c0 -3 -3 -4 -4 -4h-2v4c0 3 2 5 3 5s3 -1 3 -5zM100 531c1 0 2 -1 3 -3v3c0 1 -1 1 -2 1c-2 0 -5 -2 -5 -6v-1h-2v-1h2v-6c0 -2 0 -2 -2 -3v-1h3h3v1c-1 1 -2 1 -2 3v6h2l1 1h-3v2c0 2 1 4 2 4zM115 530c0 -1 0 -1 1 -1s2 0 2 1s-1 2 -2 2s-1 -1 -1 -2zM144 516
c-1 0 -1 1 -1 2v13c0 1 -1 1 -1 1s-2 -1 -3 -1v-1c1 0 1 0 1 -2v-2h-2c-3 0 -6 -3 -6 -6c0 -4 2 -6 5 -6c2 0 3 1 3 2l1 1v-3c1 1 2 1 3 2zM160 530c0 1 0 2 -1 2s-2 -1 -2 -2s1 -1 2 -1s1 0 1 1zM187 514v1c-1 0 -2 1 -2 3v4c0 3 -1 4 -3 4s-3 -1 -4 -2v1v6c0 1 0 1 -1 1
c0 0 -2 -1 -3 -1v-1c2 0 2 0 2 -2v-10c0 -2 -1 -3 -2 -3v-1h3h3v1c-2 0 -2 1 -2 3v2c0 3 1 4 3 4c1 0 2 0 2 -3v-3c0 -2 -1 -3 -2 -3v-1h3h3zM206 514v1c-1 0 -2 1 -2 3v13v1c-1 0 -3 -1 -4 -1v-1c2 0 2 0 2 -2v-10c0 -2 0 -3 -2 -3v-1h3h3zM229 514v1c-1 0 -2 1 -2 3v4
c0 3 -1 4 -3 4s-3 -1 -4 -2v1v6v1c-1 0 -3 -1 -4 -1v-1c2 0 2 0 2 -2v-10c0 -2 0 -3 -2 -3v-1h3h3v1c-1 0 -2 1 -2 3v2c0 3 2 4 3 4s2 0 2 -3v-3c0 -2 0 -3 -2 -3v-1h3h3zM310 515c1 0 1 1 1 1c-2 0 -2 1 -2 2v13c0 1 0 1 -1 1c0 0 -2 -1 -3 -1v-1c2 0 2 0 2 -2v-2h-2
c-4 0 -6 -3 -6 -6c0 -4 1 -6 4 -6c2 0 3 1 4 2v-1s0 -1 1 -1c0 1 2 1 2 1zM212 514c1 0 2 1 3 1c0 1 -1 1 -2 1s-2 0 -2 2v6h3v1h-3v3v2c-1 -1 -1 -1 -2 -1v-4h-2v-1h2v-7c0 -2 1 -3 3 -3zM112 522v3c-1 0 -1 1 -2 1s-2 -1 -3 -1v1c-1 -1 -3 -1 -4 -2c2 0 2 0 2 -2v-4
c0 -2 0 -2 -2 -3v-1h3h3v1c-1 1 -2 1 -2 3v2c0 2 1 4 2 4s1 0 1 -2h2zM119 514v1c-1 0 -2 1 -2 3v8c-1 -1 -3 -1 -3 -1c-1 0 -1 -1 -1 -1c2 0 2 0 2 -2v-4c0 -2 0 -3 -2 -3v-1h3h3zM130 520v1c0 3 -1 5 -4 5s-5 -3 -5 -6s1 -6 5 -6c2 0 3 1 4 2v1c-1 -1 -2 -1 -3 -1
c-3 0 -4 2 -4 4h7zM155 522v3c-1 0 -1 1 -2 1s-2 -1 -3 -1c0 0 0 1 -1 1c0 -1 -2 -1 -3 -2c2 0 2 0 2 -2v-4c0 -2 -1 -2 -2 -3v-1h3h3v1c-1 1 -2 1 -2 3v2c0 2 1 4 2 4s1 0 1 -2h2zM162 514v1c-1 0 -2 1 -2 3v8c-1 -1 -3 -1 -4 -2c2 0 2 0 2 -2v-4c0 -2 0 -3 -2 -3v-1h3h3z
M169 514c2 0 3 1 4 2c0 1 -1 1 -1 1c-1 -1 -2 -1 -3 -1c-2 0 -3 2 -3 4c0 3 1 5 3 5c1 0 2 -1 3 -3v3c-1 0 -2 1 -3 1c-4 0 -5 -3 -5 -6c0 -4 2 -6 5 -6zM198 515c1 0 1 1 1 1c-2 0 -2 1 -2 2v3c0 2 0 3 -1 4c0 0 -1 1 -2 1c-2 0 -3 -1 -4 -1v-2s0 -1 1 -1c0 1 0 3 2 3
c1 0 1 0 2 -1v-3c-2 0 -6 -1 -6 -4c0 -2 1 -3 3 -3c1 0 2 1 2 1l1 1v-1l1 -1c1 1 2 1 2 1zM241 516c-1 0 -2 1 -2 2v3c0 2 0 3 -1 4c0 0 -1 1 -2 1c-2 0 -3 -1 -4 -1v-2s0 -1 1 -1c0 1 1 3 2 3s1 0 2 -1v-3c-2 0 -6 -1 -6 -4c0 -2 1 -3 3 -3c1 0 2 1 3 1l1 -1c1 1 2 1 3 2z
M254 516c-1 0 -1 1 -1 2v7s0 1 -1 1c0 0 -2 -1 -3 -1v-1c1 0 2 0 2 -1v-3c0 -3 -2 -4 -3 -4c-2 0 -2 1 -2 3v6s0 1 -1 1c-1 -1 -2 -1 -3 -2c1 0 2 0 2 -2v-3c0 -4 1 -5 3 -5c1 0 2 1 3 2c0 0 1 0 1 1v-2v-1c1 1 3 2 3 2zM260 514c3 0 5 2 5 4c0 1 -1 2 -4 3c-2 1 -3 2 -3 3
c0 0 1 1 2 1c2 0 3 -1 4 -3v3c-1 1 -2 1 -4 1c-1 0 -4 -1 -4 -3s1 -3 4 -4c2 -1 3 -1 3 -2s-1 -2 -2 -2c-2 0 -3 1 -3 3h-2v-1v-2c1 0 2 -1 4 -1zM276 520v1c0 3 -1 5 -4 5s-5 -3 -5 -6s1 -6 5 -6c2 0 3 1 4 2v1c-1 -1 -2 -1 -3 -1c-3 0 -4 2 -4 4h7zM291 514v1
c-1 0 -2 1 -2 3v4c0 3 -1 4 -3 4s-3 -1 -4 -2v1v1c-1 -1 -3 -1 -4 -2c2 0 2 0 2 -2v-4c0 -2 0 -3 -2 -3v-1h3h3v1c-1 0 -2 1 -2 3v2c0 3 2 4 3 4s2 0 2 -3v-3c0 -2 0 -3 -1 -3s-1 0 -1 -1h3h3zM322 520v1c0 3 -1 5 -5 5c-3 0 -5 -3 -5 -6s2 -6 6 -6c1 0 3 1 4 2
c0 1 0 1 -1 1c-1 -1 -2 -1 -3 -1c-2 0 -3 2 -3 4h7zM126 525c1 0 2 -2 2 -4h-5c0 3 1 4 3 4zM135 520c0 4 2 5 3 5s2 -1 2 -1v-4c0 -3 -1 -4 -3 -4c-1 0 -2 1 -2 4zM272 525c1 0 2 -2 2 -4h-5c0 3 1 4 3 4zM301 520c0 4 2 5 4 5c1 0 1 -1 2 -1v-4c0 -3 -2 -4 -3 -4
s-3 1 -3 4zM317 525c2 0 2 -2 2 -4h-4c0 3 1 4 2 4zM191 517c0 2 2 3 4 3v-1c0 -2 -1 -3 -2 -3s-2 0 -2 1zM233 517c0 2 3 3 4 3v-1c0 -2 -1 -3 -2 -3s-2 0 -2 1zM295 514c0 0 1 1 1 2c0 0 0 1 -1 1s-2 -1 -2 -1c0 -1 1 -2 2 -2zM238 516c0 0 -1 0 -1 -1c0 1 0 1 1 1z" />
    <glyph glyph-name="space" unicode=" " horiz-adv-x="200" 
 />
    <glyph glyph-name="exclam" unicode="!" horiz-adv-x="411" 
d="M264 683c-13 -125 -28 -306 -34 -458c-16 0 -33 1 -45 6c-11 188 -22 314 -40 450c27 6 79 21 101 33c14 -5 20 -14 18 -31zM266 50c0 -40 -28 -58 -59 -58c-36 0 -57 22 -57 53s25 57 61 57c34 0 55 -29 55 -52z" />
    <glyph glyph-name="quotedbl" unicode="&#x22;" horiz-adv-x="343" 
d="M136 681c-1 -4 -1 -9 -2 -14c-6 -53 -10 -113 -16 -188c-13 0 -33 3 -39 9c-3 69 -9 140 -19 205c18 3 43 11 56 21c14 -3 22 -15 20 -33zM283 687v-6c-7 -57 -12 -118 -18 -203c-14 0 -34 3 -41 9c-3 69 -8 141 -18 206c18 3 43 12 57 21c12 -3 20 -12 20 -27z" />
    <glyph glyph-name="numbersign" unicode="#" horiz-adv-x="592" 
d="M484 443h-35l-38 -180h109c0 -20 -2 -31 -12 -49h-97h-10l-47 -222c-25 4 -34 11 -44 22l43 200l-160 -1l-47 -221c-22 3 -35 11 -43 26l41 195l-114 -1c0 15 4 34 12 51h113l38 179l-110 -1c0 15 3 34 12 51h109l47 222c18 -3 32 -8 43 -22l-42 -200h160l47 222
c20 -4 34 -10 43 -20l-43 -202h103c0 -20 -2 -32 -12 -49h-66zM401 443h-160l-38 -180h160z" />
    <glyph glyph-name="dollar" unicode="$" horiz-adv-x="535" 
d="M499 183c0 -94 -61 -180 -199 -191l1 -83c-15 0 -37 5 -46 11v71c-74 3 -127 28 -187 64c8 50 9 105 9 142c15 4 37 6 54 6c5 -92 39 -151 124 -162v258c-86 41 -175 86 -175 206c0 104 66 170 175 179v60c20 0 32 -2 46 -11l-1 -49c62 -3 116 -22 148 -43
c0 -39 1 -96 6 -132c-15 -6 -38 -9 -56 -9c-18 102 -50 134 -98 140c-1 -80 -1 -162 -1 -245c93 -45 200 -87 200 -212zM167 542c0 -60 38 -95 88 -124v221c-56 -7 -88 -42 -88 -97zM300 39c81 5 113 49 113 104c0 70 -52 105 -114 135c0 -85 0 -156 1 -239z" />
    <glyph glyph-name="percent" unicode="%" horiz-adv-x="834" 
d="M733 657l-559 -664c-18 10 -32 24 -36 37l553 656c19 -4 30 -15 42 -29zM403 526c0 -90 -56 -167 -157 -167c-104 0 -156 77 -156 153c0 86 56 165 166 165c97 0 147 -79 147 -151zM167 525c0 -72 33 -124 87 -124c33 0 73 37 73 111c0 72 -35 123 -84 123
c-42 0 -76 -47 -76 -110zM774 159c0 -91 -57 -168 -159 -168c-105 0 -157 77 -157 154c0 87 57 166 168 166c98 0 148 -79 148 -152zM540 158c0 -72 31 -125 84 -125c31 0 69 37 69 112c0 72 -33 124 -81 124c-40 0 -72 -48 -72 -111z" />
    <glyph glyph-name="ampersand" unicode="&#x26;" horiz-adv-x="742" 
d="M517 161l55 -59c33 -35 55 -43 115 -47c0 -13 -1 -31 -6 -45c-38 0 -113 -9 -146 -19c-26 35 -52 67 -78 98c-57 -70 -115 -99 -189 -99c-160 0 -214 116 -214 218c0 93 56 164 128 213c-26 47 -40 93 -40 147c0 76 59 149 164 149c57 0 94 -11 136 -35
c-5 -35 -7 -77 -5 -117c-16 -7 -37 -8 -53 -8c-5 85 -30 116 -84 116c-46 0 -79 -32 -79 -86c0 -59 17 -100 94 -196c33 -41 76 -93 170 -195c33 55 52 97 62 138c13 52 -5 71 -75 85c-4 13 -7 29 -7 42c28 -2 69 -3 102 -3s77 1 100 3c0 -12 -1 -29 -4 -41
c-41 -15 -56 -35 -69 -82c-16 -57 -38 -108 -77 -177zM281 67c55 0 97 17 143 60c-53 61 -106 118 -159 180c-24 29 -45 55 -63 82c-35 -37 -64 -84 -64 -152c0 -111 65 -170 143 -170z" />
    <glyph glyph-name="quotesingle" unicode="'" horiz-adv-x="198" 
d="M138 690v-9c-8 -58 -12 -117 -18 -204c-14 0 -34 3 -40 10c-3 70 -9 140 -20 206c19 3 43 12 57 21c12 -2 20 -11 21 -24z" />
    <glyph glyph-name="parenleft" unicode="(" horiz-adv-x="291" 
d="M250 729c-94 -141 -130 -287 -130 -489c0 -207 41 -357 136 -506c-9 -7 -24 -7 -36 -5c-117 156 -185 316 -185 511c0 174 52 316 180 501c17 2 24 -3 35 -12z" />
    <glyph glyph-name="parenright" unicode=")" horiz-adv-x="291" 
d="M76 741c128 -185 180 -327 180 -501c0 -195 -68 -355 -185 -511c-11 -2 -27 -2 -36 5c95 149 136 299 136 506c0 202 -36 348 -130 489c9 8 19 13 35 12z" />
    <glyph glyph-name="asterisk" unicode="*" horiz-adv-x="443" 
d="M233 529c48 8 89 18 140 32c8 -17 12 -46 8 -67c-43 3 -96 5 -145 6c23 -44 45 -79 73 -123c-16 -15 -34 -24 -61 -27c-9 40 -24 91 -39 137c-34 -34 -61 -66 -93 -106c-17 9 -39 29 -45 50c35 21 79 51 119 80c-43 21 -82 37 -130 55c4 19 15 45 33 58
c31 -27 73 -59 112 -88c7 48 10 89 12 141c19 2 49 -1 67 -13c-17 -39 -35 -89 -51 -135z" />
    <glyph glyph-name="plus" unicode="+" horiz-adv-x="605" 
d="M326 287h219c0 -20 -1 -36 -10 -50c-98 1 -143 1 -209 1v-222c-9 -6 -36 -10 -51 -10c1 68 2 159 2 232c-68 0 -151 -1 -217 -2c0 15 4 42 10 51h207c0 64 0 113 -1 208c14 9 30 10 50 10v-218z" />
    <glyph glyph-name="comma" unicode="," horiz-adv-x="259" 
d="M199 25c0 -79 -50 -155 -107 -210c-12 0 -25 6 -32 15c41 46 64 93 64 127c0 28 -15 46 -47 50c0 13 2 43 8 60c30 6 58 16 80 30c23 -9 34 -34 34 -72z" />
    <glyph glyph-name="hyphen" unicode="-" horiz-adv-x="419" 
d="M76 299h283c0 -21 -4 -47 -13 -65c-73 0 -215 -2 -286 -4c0 23 7 52 16 69z" />
    <glyph glyph-name="period" unicode="." horiz-adv-x="236" 
d="M176 50c0 -40 -28 -58 -59 -58c-36 0 -57 22 -57 53s25 57 61 57c34 0 55 -29 55 -52z" />
    <glyph glyph-name="slash" unicode="/" horiz-adv-x="365" 
d="M334 687l-258 -696c-19 6 -36 17 -43 26l258 696c14 -4 34 -16 43 -26z" />
    <glyph glyph-name="zero" unicode="0" horiz-adv-x="601" 
d="M561 255c0 -161 -120 -264 -257 -264c-139 0 -264 103 -264 264s134 251 264 251s257 -90 257 -251zM131 269c0 -99 75 -221 199 -221c97 0 137 86 137 185c0 90 -69 222 -192 222c-94 0 -144 -83 -144 -186z" />
    <glyph glyph-name="one" unicode="1" horiz-adv-x="388" 
d="M239 373v-246c0 -66 16 -85 69 -87c4 -14 5 -29 5 -43c-39 2 -94 3 -119 3c-36 0 -83 -1 -119 -3c0 14 1 29 5 43c50 2 69 21 69 87v246c0 65 -14 84 -69 87c-3 12 -5 28 -5 43c32 -2 87 -3 119 -3c42 0 87 1 119 3c0 -17 -2 -31 -5 -43c-53 -3 -69 -22 -69 -87z" />
    <glyph glyph-name="two" unicode="2" horiz-adv-x="537" 
d="M461 144c0 -51 3 -86 11 -123c-6 -12 -16 -23 -32 -23c-64 1 -135 2 -193 2c-59 0 -131 -1 -169 -2c-11 12 -13 23 -13 41c57 53 118 108 171 155c78 69 97 112 97 164c0 66 -30 102 -87 102c-52 0 -80 -29 -95 -139c-17 0 -41 2 -54 7c4 35 5 94 -2 130
c39 28 96 48 168 48c92 0 167 -33 167 -132c0 -63 -31 -97 -110 -170c-34 -32 -70 -65 -122 -114h146c55 0 67 5 70 61c18 0 34 -2 47 -7z" />
    <glyph glyph-name="three" unicode="3" horiz-adv-x="513" 
d="M426 502c10 -9 13 -24 12 -40c-44 -53 -103 -127 -170 -214c98 5 195 -65 195 -198c0 -117 -101 -221 -267 -221c-66 0 -117 20 -146 45c0 10 4 22 14 33c17 -12 60 -28 127 -28c77 0 171 53 171 157c0 77 -48 136 -145 136c-11 0 -23 -2 -32 -7c-11 11 -18 26 -18 35
c79 101 132 171 167 220h-122c-59 0 -74 -9 -94 -70c-14 0 -30 4 -41 13c11 49 11 92 11 139c33 -1 90 -2 175 -2c83 0 127 1 163 2z" />
    <glyph glyph-name="four" unicode="4" horiz-adv-x="597" 
d="M547 70c-9 -18 -18 -51 -18 -70h-98v-152c-25 0 -79 -15 -83 -19c-8 8 -11 19 -11 33v138h-7c-102 0 -182 -3 -267 -6c-8 8 -18 23 -18 38l341 474c16 0 35 -4 45 -10v-417h87c14 0 23 -3 29 -9zM337 79v278l-185 -278h185z" />
    <glyph glyph-name="five" unicode="5" horiz-adv-x="481" 
d="M73 253l61 249c70 -2 115 -2 173 -2c39 0 52 21 52 48c12 4 30 5 45 5c-5 -36 -6 -78 -6 -125c-6 -11 -19 -18 -45 -18c-44 0 -166 -1 -193 -3l-24 -101c171 -37 285 -98 285 -239c0 -154 -139 -238 -246 -238c-50 0 -94 14 -115 32c0 11 4 22 13 33c17 -7 58 -15 98 -15
c80 0 150 62 150 161c0 114 -126 172 -231 182c-11 7 -17 20 -17 31z" />
    <glyph glyph-name="six" unicode="6" horiz-adv-x="506" 
d="M279 395c114 0 187 -65 187 -183c0 -133 -97 -221 -211 -221c-143 0 -220 87 -220 249c0 298 217 391 374 398c7 -8 10 -15 10 -31c-161 -33 -256 -100 -281 -264c56 37 94 52 141 52zM264 39c81 0 113 74 113 136c0 128 -84 161 -143 161c-31 0 -60 -6 -101 -32
c-1 -19 -2 -39 -2 -60c0 -162 86 -205 133 -205z" />
    <glyph glyph-name="seven" unicode="7" horiz-adv-x="485" 
d="M430 502c6 -4 13 -13 15 -22c-51 -87 -103 -177 -157 -282c-64 -125 -81 -207 -81 -319c-27 -17 -55 -36 -71 -55c-12 2 -19 10 -19 18c0 149 94 335 230 567h-159c-57 0 -79 -8 -97 -69c-13 0 -30 4 -41 12c12 50 17 94 17 150c52 -2 98 -2 178 -2s157 1 185 2z" />
    <glyph glyph-name="eight" unicode="8" horiz-adv-x="508" 
d="M315 354c90 -60 143 -115 143 -198c0 -101 -81 -165 -210 -165c-122 0 -198 58 -198 150c0 90 51 142 141 195c-76 51 -114 95 -114 156c0 89 66 145 172 145c112 0 182 -51 182 -133c0 -77 -58 -118 -116 -150zM171 512c-1 -52 24 -83 94 -126l13 -8c46 29 63 60 63 113
c0 62 -34 101 -87 101c-50 0 -82 -31 -83 -80zM261 36c63 0 102 39 102 100c0 69 -47 116 -136 176c-66 -49 -87 -86 -87 -163c0 -69 47 -113 121 -113z" />
    <glyph glyph-name="nine" unicode="9" horiz-adv-x="519" 
d="M263 506c152 0 221 -92 221 -264c0 -263 -244 -392 -394 -412c-9 12 -10 21 -10 36c173 65 272 152 302 279c-44 -37 -87 -52 -137 -52c-112 0 -205 76 -205 190c0 143 99 223 223 223zM293 156c36 0 71 12 97 36c1 14 2 28 2 43c0 161 -57 227 -143 227
c-68 0 -116 -66 -116 -144c0 -140 94 -162 160 -162z" />
    <glyph glyph-name="colon" unicode=":" horiz-adv-x="240" 
d="M176 381c0 -40 -28 -58 -59 -58c-36 0 -57 22 -57 53s25 57 61 57c34 0 55 -29 55 -52zM180 83c0 -40 -28 -58 -59 -58c-36 0 -57 22 -57 53s25 57 61 57c34 0 55 -29 55 -52z" />
    <glyph glyph-name="semicolon" unicode=";" horiz-adv-x="259" 
d="M198 369c0 -40 -28 -58 -59 -58c-36 0 -57 22 -57 53s25 57 61 57c34 0 55 -29 55 -52zM199 25c0 -79 -50 -155 -107 -210c-12 0 -25 6 -32 15c41 46 64 93 64 127c0 28 -15 46 -47 50c0 13 2 43 8 60c30 6 58 16 80 30c23 -9 34 -34 34 -72z" />
    <glyph glyph-name="less" unicode="&#x3c;" horiz-adv-x="508" 
d="M111 258l336 -239c4 -19 0 -44 -10 -56c-137 103 -232 172 -375 269c-3 17 -3 38 9 55l345 277c21 -5 34 -12 47 -27z" />
    <glyph glyph-name="equal" unicode="=" horiz-adv-x="572" 
d="M74 361h438c0 -20 -2 -34 -11 -48c-80 1 -119 1 -206 1c-88 0 -141 -1 -232 -2c0 15 5 40 11 49zM71 196h440c0 -20 -2 -34 -11 -48c-80 1 -120 1 -207 1c-88 0 -142 -1 -233 -2c0 15 5 40 11 49z" />
    <glyph glyph-name="greater" unicode="&#x3e;" horiz-adv-x="528" 
d="M417 258l-352 279c13 15 26 22 47 27l345 -277c12 -17 12 -38 9 -55c-143 -97 -238 -166 -375 -269c-10 12 -14 37 -10 56z" />
    <glyph glyph-name="question" unicode="?" horiz-adv-x="537" 
d="M274 714c94 0 161 -45 161 -128c0 -131 -145 -177 -145 -317c0 -16 5 -49 11 -68c-12 -7 -23 -8 -36 -8c-22 15 -46 65 -46 122c0 133 127 163 127 262c0 57 -39 96 -81 96c-50 0 -77 -37 -88 -129c-19 0 -44 3 -57 10c4 47 5 75 0 117c33 21 79 43 154 43zM332 50
c0 -40 -28 -58 -59 -58c-36 0 -57 22 -57 53s25 57 61 57c34 0 55 -29 55 -52z" />
    <glyph glyph-name="at" unicode="@" horiz-adv-x="997" 
d="M822 -43c17 -3 27 -11 31 -25c-61 -85 -189 -134 -327 -134c-273 0 -401 181 -401 430c0 239 150 432 411 432c225 0 336 -136 336 -301c0 -215 -124 -368 -224 -368c-52 0 -68 37 -68 98l1 76c-30 -103 -78 -174 -142 -174c-74 0 -124 56 -124 207c0 158 76 269 187 269
c32 0 58 -2 90 -9c16 0 34 3 51 9c18 -6 22 -22 22 -96v-191c0 -99 3 -111 36 -111c40 0 122 98 122 282c0 144 -100 268 -297 268c-226 0 -339 -162 -339 -382c0 -209 114 -394 353 -394c110 0 212 35 282 114zM465 73c33 0 102 89 119 266l1 54c-28 20 -61 29 -89 29
c-64 0 -91 -57 -91 -194c0 -116 28 -155 60 -155z" />
    <glyph glyph-name="A" unicode="A" horiz-adv-x="704" 
d="M673 40c5 -17 6 -27 6 -43c-20 1 -82 3 -114 3s-93 -2 -113 -3c0 16 1 31 7 43c55 6 62 17 36 78l-44 102c-84 0 -185 -1 -264 -4l-27 -69c-30 -79 -19 -103 36 -107c5 -12 7 -27 7 -43c-23 2 -62 3 -95 3s-64 -2 -83 -3c0 13 2 30 7 42c36 7 49 29 80 108l207 531
c13 3 23 4 39 4l238 -546c33 -75 46 -91 77 -96zM432 265l-76 178c-17 39 -28 63 -45 109c-14 -47 -26 -78 -37 -108l-69 -179h227z" />
    <glyph glyph-name="B" unicode="B" horiz-adv-x="631" 
d="M372 367c105 -6 196 -46 196 -170c0 -109 -70 -197 -240 -197c-74 0 -222 -1 -272 -3c0 18 1 32 5 43c53 3 70 20 70 98v411c0 67 -16 84 -69 87c-4 11 -5 27 -5 43c27 -2 68 -3 104 -3c48 0 96 2 143 2c115 0 213 -29 213 -146c0 -86 -56 -152 -145 -165zM415 502
c0 105 -83 134 -149 134c-14 0 -26 -1 -41 -5v-255h31c129 0 159 62 159 126zM318 43c98 0 143 53 143 140c0 124 -115 148 -213 148h-23v-193c0 -82 18 -95 93 -95z" />
    <glyph glyph-name="C" unicode="C" horiz-adv-x="653" 
d="M591 633c-10 -47 -11 -100 -11 -155c-17 -7 -32 -9 -53 -9c-5 142 -62 175 -150 175c-169 0 -237 -134 -237 -274c0 -179 95 -318 255 -318c64 0 134 23 190 59c8 -7 17 -22 18 -31c-79 -61 -149 -89 -250 -89c-186 0 -318 144 -318 352c0 229 164 342 334 342
c84 0 148 -17 222 -52z" />
    <glyph glyph-name="D" unicode="D" horiz-adv-x="732" 
d="M316 678c177 0 380 -48 380 -323c0 -324 -267 -355 -380 -355c-74 0 -209 -1 -259 -3c0 18 1 32 5 43c53 3 70 20 70 98v411c0 67 -16 84 -69 87c-4 11 -5 27 -5 43c31 -2 96 -3 140 -3c39 1 79 2 118 2zM316 45c159 0 277 69 277 295c0 217 -143 300 -293 300
c-24 0 -57 -4 -74 -9v-493c0 -74 15 -93 90 -93z" />
    <glyph glyph-name="E" unicode="E" horiz-adv-x="601" 
d="M516 171c20 -6 32 -12 44 -24c-15 -46 -25 -103 -31 -149c-39 1 -120 2 -214 2c-74 0 -209 -1 -259 -3c0 18 1 32 5 43c54 3 69 20 69 98v411c0 67 -16 84 -69 87c-4 11 -5 27 -5 43c39 -2 132 -3 168 -3c157 0 248 2 281 3c4 -45 11 -115 21 -158
c-11 -9 -27 -12 -45 -12c-5 62 -35 127 -164 127h-93v-274h63c82 0 110 16 111 81c17 5 30 7 48 7c-2 -34 -2 -74 -2 -109s0 -82 2 -116c-18 0 -31 1 -46 5c-5 69 -31 89 -113 89h-63v-181c0 -74 16 -93 91 -93h6c143 0 166 44 195 126z" />
    <glyph glyph-name="F" unicode="F" horiz-adv-x="561" 
d="M224 636v-294h69c82 0 110 16 111 81c17 5 30 7 48 7c-2 -34 -2 -74 -2 -109s0 -82 2 -116c-18 0 -31 1 -46 5c-5 69 -31 89 -113 89h-69v-152c0 -87 26 -104 89 -107c4 -11 5 -25 5 -43c-31 2 -79 3 -126 3s-110 -1 -136 -3c0 18 1 32 5 43c53 3 69 20 69 87v422
c0 67 -16 84 -69 87c-4 11 -5 25 -5 43c44 -2 119 -3 167 -3c156 0 245 2 278 3c4 -45 11 -115 21 -158c-11 -9 -27 -12 -45 -12c-5 62 -35 127 -164 127h-89z" />
    <glyph glyph-name="G" unicode="G" 
d="M519 131v50c0 91 -10 98 -86 100c-4 10 -6 30 -6 46c25 -2 81 -3 122 -3s96 1 117 2c0 -12 -1 -32 -6 -45c-40 -2 -47 -10 -47 -100v-45c0 -28 2 -50 13 -70c-57 -42 -149 -75 -262 -75c-197 0 -329 141 -329 356c0 224 172 338 347 338c96 0 181 -19 240 -47
c-9 -47 -11 -96 -11 -155c-16 -6 -32 -9 -53 -9c-5 140 -76 170 -168 170c-171 0 -249 -132 -249 -275c0 -182 80 -329 243 -329c40 0 69 3 101 16c23 10 34 24 34 75z" />
    <glyph glyph-name="H" unicode="H" horiz-adv-x="753" 
d="M623 549v-422c0 -67 16 -84 69 -87c4 -11 5 -25 5 -43c-40 2 -82 3 -121 3s-87 -1 -121 -3c0 18 1 32 5 43c53 3 69 20 69 87v198c-81 0 -225 0 -305 -5v-193c0 -67 16 -84 69 -87c4 -11 5 -25 5 -43c-40 2 -82 3 -121 3s-87 -1 -121 -3c0 18 1 32 5 43c53 3 69 20 69 87
v422c0 67 -16 84 -69 87c-4 11 -5 25 -5 43c37 -2 78 -3 121 -3s81 1 121 3c0 -18 -1 -32 -5 -43c-53 -3 -69 -20 -69 -87v-181h305v181c0 67 -16 84 -69 87c-4 11 -5 25 -5 43c37 -2 78 -3 121 -3s81 1 121 3c0 -18 -1 -32 -5 -43c-53 -3 -69 -20 -69 -87z" />
    <glyph glyph-name="I" unicode="I" horiz-adv-x="354" 
d="M130 127v422c0 67 -16 84 -69 87c-4 11 -5 25 -5 43c37 -2 78 -3 121 -3s81 1 121 3c0 -18 -1 -32 -5 -43c-53 -3 -69 -20 -69 -87v-422c0 -67 16 -84 69 -87c4 -11 5 -25 5 -43c-40 2 -82 3 -121 3s-87 -1 -121 -3c0 18 1 32 5 43c53 3 69 20 69 87z" />
    <glyph glyph-name="J" unicode="J" horiz-adv-x="329" 
d="M214 549v-424c0 -186 -23 -281 -194 -374c-9 5 -15 15 -17 26c75 63 117 130 117 257v515c0 67 -16 84 -69 87c-4 11 -5 25 -5 43c29 -2 77 -3 121 -3s97 1 121 3c0 -18 -1 -32 -5 -43c-51 -3 -69 -20 -69 -87z" />
    <glyph glyph-name="K" unicode="K" horiz-adv-x="678" 
d="M450 204c65 -85 138 -162 206 -164c0 -10 -1 -27 -5 -40c-50 0 -110 -1 -159 -6c-45 74 -172 245 -268 332v-199c0 -67 16 -84 69 -87c4 -11 5 -25 5 -43c-40 2 -82 3 -121 3s-87 -1 -121 -3c0 18 1 32 5 43c53 3 69 20 69 87v422c0 67 -16 84 -69 87c-4 11 -5 25 -5 43
c37 -2 78 -3 121 -3s81 1 121 3c0 -18 -1 -32 -5 -43c-53 -3 -69 -20 -69 -87v-194l180 188c70 73 55 90 13 93c-4 13 -5 28 -5 43c22 -2 63 -3 103 -3s76 1 103 3c0 -13 -1 -31 -6 -43c-45 -3 -78 -18 -143 -86l-162 -174c49 -43 94 -108 143 -172z" />
    <glyph glyph-name="L" unicode="L" horiz-adv-x="560" 
d="M315 45h6c111 0 142 33 175 126c20 -6 32 -12 44 -24c-15 -46 -25 -103 -31 -149c-39 1 -120 2 -194 2s-209 -1 -259 -3c0 18 1 32 5 43c53 3 70 20 70 98v411c0 67 -16 84 -69 87c-4 11 -5 27 -5 43c39 -2 92 -3 121 -3c43 0 81 1 121 3c0 -18 -1 -32 -5 -43
c-53 -3 -69 -20 -69 -90v-408c0 -74 15 -93 90 -93z" />
    <glyph glyph-name="M" unicode="M" horiz-adv-x="931" 
d="M891 41c4 -14 5 -31 5 -44c-31 2 -84 3 -120 3s-88 -1 -122 -3c0 12 2 30 6 43c64 6 70 27 61 115l-36 343l-207 -500c-12 -5 -25 -7 -41 -7l-233 506l-32 -321c-11 -106 6 -131 65 -136c4 -14 5 -34 5 -43c-32 2 -78 3 -107 3s-73 -1 -100 -3c0 9 1 29 5 43
c53 5 70 24 81 145l32 356c6 71 -12 95 -67 95c-4 13 -5 31 -5 43c20 -2 51 -3 76 -3s50 1 76 3l250 -553l218 553c23 -2 52 -3 78 -3s49 1 76 3c0 -14 -1 -28 -5 -43c-47 0 -76 -21 -68 -101l36 -367c10 -99 26 -123 73 -127z" />
    <glyph glyph-name="N" unicode="N" horiz-adv-x="742" 
d="M606 676c28 0 68 1 95 3c0 -13 -1 -29 -5 -43c-44 0 -59 -33 -59 -142v-498c-11 -4 -27 -5 -41 -5l-415 542v-346c0 -113 15 -147 69 -147c4 -12 5 -24 5 -43c-30 2 -70 3 -99 3s-75 -1 -100 -3c0 17 1 31 5 43c54 0 69 34 69 147v413l-4 5c-19 24 -32 28 -65 31
c-4 14 -5 32 -5 43c20 -2 49 -3 74 -3s49 1 67 3l389 -516v331c0 109 -15 142 -69 142c-4 23 -5 31 -5 43c29 -2 66 -3 94 -3z" />
    <glyph glyph-name="O" unicode="O" 
d="M365 685c191 0 331 -140 331 -345c0 -197 -137 -349 -331 -349c-198 0 -330 150 -330 349c0 204 145 345 330 345zM385 40c130 0 208 121 208 274c0 180 -106 323 -249 323c-118 0 -206 -108 -206 -270c0 -169 88 -327 247 -327z" />
    <glyph glyph-name="P" unicode="P" horiz-adv-x="582" 
d="M320 678c166 0 227 -91 227 -194c0 -115 -76 -231 -227 -231c-28 0 -52 4 -70 11c-3 14 -3 28 1 41c17 -4 34 -6 53 -6c73 0 141 30 141 156c0 107 -49 179 -169 179c-13 0 -27 -1 -51 -6v-481c0 -87 26 -104 89 -107c4 -11 5 -25 5 -43c-31 2 -79 3 -126 3
s-110 -1 -136 -3c0 18 1 32 5 43c53 3 69 20 69 87v422c0 67 -16 84 -69 87c-4 11 -5 25 -5 43c52 -3 104 -3 136 -3c28 0 102 2 127 2z" />
    <glyph glyph-name="Q" unicode="Q" horiz-adv-x="746" 
d="M483 12c113 -35 156 -123 283 -110c0 -12 -2 -27 -6 -40c-39 -12 -73 -23 -124 -46c-130 33 -121 159 -271 175c-198 0 -330 150 -330 349c0 204 145 345 330 345c191 0 331 -140 331 -345c0 -154 -84 -280 -213 -328zM138 367c0 -169 88 -327 247 -327
c130 0 208 121 208 274c0 180 -106 323 -249 323c-118 0 -206 -108 -206 -270z" />
    <glyph glyph-name="R" unicode="R" horiz-adv-x="685" 
d="M506 169c47 -84 86 -126 153 -129c0 -16 0 -29 -4 -43c-50 0 -108 -1 -157 -6c-21 33 -54 92 -86 155c-28 55 -66 110 -114 159c-28 -1 -51 -1 -73 1v-179c0 -67 15 -84 66 -87c4 -12 5 -29 5 -43c-43 3 -94 3 -119 3c-35 0 -90 -1 -120 -3c0 14 1 30 5 43
c54 3 69 20 69 87v422c0 67 -15 87 -69 87c-4 13 -5 26 -5 42c20 -1 73 -2 120 -2c55 0 111 2 167 2c151 0 218 -73 218 -168c0 -89 -63 -154 -167 -182c44 -41 63 -72 111 -159zM225 634v-280c16 -2 29 -3 44 -3c109 0 195 45 195 149c0 84 -45 142 -165 142
c-29 0 -50 -3 -74 -8z" />
    <glyph glyph-name="S" unicode="S" horiz-adv-x="552" 
d="M281 685c69 0 132 -21 167 -44c0 -39 1 -96 6 -132c-15 -6 -38 -9 -56 -9c-20 115 -58 141 -118 141c-71 0 -113 -36 -113 -99c0 -177 332 -139 332 -359c0 -100 -69 -192 -228 -192c-83 0 -139 25 -203 64c8 50 9 105 9 142c15 4 37 6 54 6c5 -102 47 -164 154 -164
c92 0 128 46 128 104c0 177 -333 130 -333 362c0 112 77 180 201 180z" />
    <glyph glyph-name="T" unicode="T" horiz-adv-x="585" 
d="M553 679c-2 -48 0 -96 6 -160c-14 -7 -30 -10 -50 -9c-2 81 -35 127 -113 127h-53v-510c0 -67 13 -84 78 -87c4 -11 5 -25 5 -43c-43 2 -89 3 -131 3s-94 -1 -131 -3c0 18 1 32 5 43c64 3 80 20 80 87v510h-51c-97 0 -111 -51 -125 -127c-15 0 -36 2 -48 9
c10 56 16 114 16 160c56 -3 154 -3 255 -3s202 0 257 3z" />
    <glyph glyph-name="U" unicode="U" horiz-adv-x="675" 
d="M570 509v-240c0 -115 -11 -175 -57 -221c-38 -38 -94 -57 -162 -57c-186 0 -245 85 -245 240v318c0 71 -10 81 -59 87c-4 14 -5 30 -5 43c27 -2 75 -3 116 -3s86 1 116 3c0 -13 -1 -29 -5 -43c-59 -5 -69 -14 -69 -87v-304c0 -113 37 -201 170 -201c33 0 78 10 106 38
c31 31 43 72 43 179v248c0 96 -10 122 -69 127c-4 20 -5 29 -5 43c23 -2 64 -3 94 -3s69 1 95 3c0 -9 -1 -21 -5 -43c-46 -5 -59 -30 -59 -127z" />
    <glyph glyph-name="V" unicode="V" horiz-adv-x="686" 
d="M559 676c31 0 73 1 102 3c0 -15 -1 -28 -5 -43c-41 -10 -60 -52 -84 -118c-62 -172 -126 -346 -193 -520c-13 -3 -23 -4 -39 -4c-78 194 -159 388 -222 527c-44 98 -51 111 -88 115c-4 16 -5 32 -5 43c26 -2 79 -3 121 -3s83 1 121 3c0 -12 -2 -29 -5 -43
c-64 -4 -76 -19 -37 -109c54 -124 107 -249 161 -385c50 123 94 244 137 372c25 74 19 115 -44 122c-4 15 -5 32 -5 43c29 -2 54 -3 85 -3z" />
    <glyph glyph-name="W" unicode="W" horiz-adv-x="1004" 
d="M883 676c31 0 68 1 95 3c0 -13 -2 -29 -7 -43c-35 -8 -51 -34 -84 -145l-146 -494c-11 -4 -25 -6 -40 -6c-60 166 -135 362 -201 529l-170 -523c-11 -4 -28 -6 -43 -6c-57 177 -117 355 -178 530c-37 107 -43 111 -79 115c-4 13 -5 29 -5 43c32 -2 82 -3 113 -3
s84 1 121 3c0 -11 -1 -27 -5 -43c-70 -4 -78 -14 -47 -103c39 -110 87 -253 125 -371l171 517c10 4 23 5 44 5c64 -161 137 -356 197 -522l97 332c30 101 17 134 -48 142c-5 13 -7 32 -7 43c28 -2 61 -3 97 -3z" />
    <glyph glyph-name="X" unicode="X" horiz-adv-x="667" 
d="M621 40c4 -12 6 -28 6 -43c-29 2 -81 3 -122 3s-91 -1 -121 -2c0 12 1 28 4 42c51 5 67 18 16 104c-27 47 -56 93 -84 140l-88 -129c-51 -75 -49 -103 17 -115c4 -14 5 -30 5 -43c-34 2 -73 3 -110 3s-77 -1 -104 -3c0 11 1 31 6 45c32 8 70 34 119 102l128 183
c-40 63 -80 126 -122 189c-71 108 -77 113 -109 119c-5 16 -6 30 -6 44c35 -2 84 -3 122 -3s90 1 121 2c0 -12 -1 -27 -4 -42c-56 -10 -65 -32 -16 -107c28 -42 55 -84 82 -126l73 115c54 86 46 110 -15 118c-4 15 -5 32 -5 43c33 -2 72 -3 102 -3s74 1 99 3
c0 -13 0 -28 -4 -43c-31 -8 -55 -24 -115 -115l-107 -163c42 -67 83 -134 123 -201c56 -93 77 -112 109 -117z" />
    <glyph glyph-name="Y" unicode="Y" horiz-adv-x="630" 
d="M519 676c30 0 63 1 86 2c0 -14 -1 -25 -4 -39c-36 -10 -67 -40 -101 -108l-135 -271v-97c0 -106 9 -114 77 -123c4 -12 6 -27 6 -43c-44 1 -90 3 -127 3c-44 0 -108 -1 -136 -2c0 14 2 30 6 42c71 6 80 16 80 110v109l-166 319c-21 41 -37 57 -74 59c-5 15 -6 27 -6 41
c28 -1 66 -2 104 -2s103 0 134 2c0 -15 -1 -25 -5 -39c-52 -5 -58 -25 -28 -82c35 -67 77 -153 117 -243c41 91 78 168 108 228c36 70 26 87 -27 95c-4 14 -7 26 -7 41c24 -2 68 -2 98 -2z" />
    <glyph glyph-name="Z" unicode="Z" horiz-adv-x="631" 
d="M516 169c21 -2 38 -7 52 -17c-11 -44 -17 -102 -18 -155c-98 3 -169 3 -261 3s-182 -1 -223 -3c-5 10 -8 19 -8 32c125 202 249 402 367 607h-142c-88 0 -122 -19 -143 -128c-17 0 -44 2 -57 10c12 42 19 106 19 160c41 -1 178 -2 244 -2s121 0 192 2c6 -7 11 -20 11 -33
c-121 -211 -239 -408 -364 -603h154c123 0 155 18 177 127z" />
    <glyph glyph-name="bracketleft" unicode="[" horiz-adv-x="272" 
d="M35 -269v1011c35 -2 69 -2 95 -2c35 0 58 0 96 2c9 -8 11 -24 11 -38c-107 -9 -132 -16 -132 -94v-767c0 -64 40 -68 121 -72c9 -10 11 -21 11 -40c-28 2 -69 2 -96 2c-33 0 -72 0 -106 -2z" />
    <glyph glyph-name="backslash" unicode="\" horiz-adv-x="380" 
d="M57 713c11 0 21 -1 27 -4l263 -709c-10 -4 -43 -6 -52 -3l-264 712c6 3 16 4 26 4z" />
    <glyph glyph-name="bracketright" unicode="]" horiz-adv-x="272" 
d="M237 742v-1011c-34 2 -73 2 -106 2c-27 0 -68 0 -96 -2c0 19 2 30 11 40c81 4 121 8 121 72v767c0 78 -25 85 -132 94c0 14 2 30 11 38c38 -2 61 -2 96 -2c26 0 60 0 95 2z" />
    <glyph glyph-name="asciicircum" unicode="^" horiz-adv-x="585" 
d="M469 394l-175 250c-74 -88 -150 -182 -207 -261c-15 13 -22 26 -27 47l206 255c15 9 38 12 55 9c54 -82 142 -208 204 -290c-12 -10 -37 -14 -56 -10z" />
    <glyph glyph-name="underscore" unicode="_" horiz-adv-x="566" 
d="M71 -92h435c0 -14 -4 -39 -11 -50c-101 1 -146 1 -223 1c-68 0 -121 -1 -212 -2c0 21 3 38 11 51z" />
    <glyph glyph-name="grave" unicode="`" horiz-adv-x="266" 
d="M116 535c-46 72 -85 124 -127 169c26 13 63 13 96 8c17 -57 39 -115 71 -175c-12 -6 -27 -4 -40 -2z" />
    <glyph glyph-name="a" unicode="a" horiz-adv-x="498" 
d="M396 256v-120c0 -47 7 -68 62 -68c0 -14 -1 -32 -6 -46c-33 -2 -83 -14 -114 -31c-14 6 -25 13 -25 55c0 9 1 19 2 28c-7 -17 -18 -33 -34 -47c-23 -20 -56 -34 -104 -34c-81 0 -127 40 -127 106c0 130 174 157 256 169c0 82 -4 103 -21 124c-16 20 -37 30 -62 30
c-67 0 -86 -74 -88 -116c-15 0 -42 2 -52 7c3 33 1 79 -5 109c54 28 119 45 170 45c49 0 84 -16 106 -38c34 -34 42 -84 42 -173zM306 189v38c-68 -9 -159 -21 -159 -108c0 -49 28 -71 59 -71c43 0 100 40 100 141z" />
    <glyph glyph-name="b" unicode="b" horiz-adv-x="547" 
d="M320 467c117 0 187 -68 187 -222c0 -140 -99 -254 -249 -254c-91 0 -155 30 -195 68c14 18 22 48 22 127v389c0 47 -7 71 -75 71c0 15 2 26 9 37c30 0 110 17 134 34c12 -4 22 -15 22 -40v-261c0 -18 -2 -31 -4 -43c5 9 9 15 12 20c18 30 70 74 137 74zM263 37
c55 0 145 36 145 195c0 128 -68 172 -112 172c-59 0 -121 -51 -121 -191v-141c23 -21 49 -35 88 -35z" />
    <glyph glyph-name="c" unicode="c" horiz-adv-x="447" 
d="M248 -9c-102 0 -208 79 -208 236c0 120 73 240 208 240c61 0 113 -15 151 -45c-6 -39 -7 -76 -7 -114c-11 -6 -32 -8 -46 -8c-8 77 -48 120 -106 120c-66 0 -107 -64 -107 -178c0 -100 50 -194 143 -194c43 0 82 20 111 58c10 -5 21 -16 25 -28c-36 -57 -88 -87 -164 -87
z" />
    <glyph glyph-name="d" unicode="d" horiz-adv-x="559" 
d="M462 677v-541c0 -47 7 -68 62 -68c0 -14 -1 -32 -6 -46c-33 -2 -83 -14 -114 -31c-14 6 -25 12 -25 58c0 20 3 32 8 58c-10 -22 -18 -34 -23 -42c-18 -30 -70 -74 -137 -74c-117 0 -187 68 -187 222c0 140 99 254 249 254c33 0 56 -5 83 -14v122c0 47 -7 71 -75 71
c0 15 2 26 9 37c30 0 110 17 134 34c12 -4 22 -15 22 -40zM251 54c59 0 121 51 121 191v141c-23 21 -49 35 -88 35c-55 0 -145 -36 -145 -195c0 -128 68 -172 112 -172z" />
    <glyph glyph-name="e" unicode="e" horiz-adv-x="474" 
d="M406 105c11 -6 22 -20 24 -31c-46 -60 -105 -83 -178 -83c-142 0 -212 107 -212 238c0 128 79 238 207 238c130 0 179 -93 187 -207c-3 -14 -8 -25 -15 -34c-42 0 -176 0 -280 -5c6 -89 40 -174 145 -174c44 0 89 20 122 58zM238 419c-47 0 -95 -32 -100 -148h192
c0 88 -34 148 -92 148z" />
    <glyph glyph-name="f" unicode="f" horiz-adv-x="342" 
d="M325 714c52 0 73 -12 95 -25c-3 -42 -4 -81 -4 -117c-17 -5 -39 -8 -57 -8c0 54 -22 95 -78 95c-54 0 -75 -51 -75 -140v-71h102c0 -13 -2 -32 -10 -45c-35 0 -66 -4 -92 -11v-245c0 -87 26 -104 89 -107c4 -11 5 -25 5 -43c-31 2 -79 3 -126 3s-106 -1 -132 -3
c0 18 1 32 5 43c53 3 69 20 69 87v268c-29 6 -60 8 -80 8c0 17 4 32 14 45h66v40c0 150 105 226 209 226z" />
    <glyph glyph-name="g" unicode="g" horiz-adv-x="511" 
d="M282 63c134 0 181 -30 181 -111c0 -91 -104 -201 -248 -201c-123 0 -174 47 -174 135c0 49 26 86 74 108c-37 13 -48 36 -48 74s21 75 53 106c-38 27 -63 70 -63 127c0 92 61 166 180 166c24 0 45 -3 63 -9h164c5 -17 7 -41 7 -62c-25 6 -66 13 -97 16
c32 -33 46 -75 46 -105c0 -93 -63 -168 -181 -168c-27 0 -53 4 -77 13c-18 -18 -25 -34 -25 -47c0 -36 17 -42 145 -42zM227 422c-53 0 -78 -53 -78 -108c0 -83 38 -129 102 -129c44 0 75 37 75 107c0 71 -36 130 -99 130zM239 -196c88 0 141 52 141 109
c0 51 -28 70 -165 70c-21 0 -39 1 -54 2c-26 -22 -34 -45 -34 -78c0 -68 30 -103 112 -103z" />
    <glyph glyph-name="h" unicode="h" horiz-adv-x="595" 
d="M555 40c4 -12 5 -25 5 -43c-29 2 -68 3 -109 3s-88 -2 -119 -3c0 18 1 32 5 43c48 0 69 20 69 87v152c0 94 -39 122 -93 122c-52 0 -113 -45 -113 -167v-107c0 -67 17 -87 69 -87c4 -12 5 -25 5 -43c-28 1 -78 3 -119 3s-90 -1 -119 -3c0 18 1 32 5 43c52 0 69 20 69 87
v448c0 47 -7 71 -75 71c0 15 2 26 9 37c30 0 110 17 134 34c12 -4 22 -15 22 -40v-254c0 -16 -1 -36 -7 -59c4 7 7 15 15 26c22 31 74 72 145 72c76 0 143 -41 143 -163v-172c0 -69 19 -87 59 -87z" />
    <glyph glyph-name="i" unicode="i" horiz-adv-x="301" 
d="M148 699c36 0 60 -25 60 -61c0 -31 -27 -58 -60 -58c-34 0 -59 26 -59 58c0 36 28 61 59 61zM201 427v-300c0 -67 16 -87 59 -87c4 -14 5 -34 5 -43c-35 2 -75 3 -113 3s-82 -1 -115 -3c0 13 1 30 5 43c53 0 69 20 69 87v198c0 47 -7 71 -75 71c0 15 2 26 9 37
c30 0 110 17 134 34c12 -4 22 -15 22 -40z" />
    <glyph glyph-name="j" unicode="j" horiz-adv-x="283" 
d="M148 699c36 0 60 -25 60 -61c0 -31 -27 -58 -60 -58c-34 0 -59 26 -59 58c0 36 28 61 59 61zM111 26v299c0 47 -7 71 -75 71c0 15 2 26 9 37c30 0 110 17 134 34c12 -4 22 -15 22 -40v-404c0 -135 -90 -231 -166 -272c-10 5 -20 15 -22 28c79 92 98 146 98 247z" />
    <glyph glyph-name="k" unicode="k" horiz-adv-x="545" 
d="M421 106c46 -57 58 -61 104 -63c0 -19 -1 -32 -5 -43c-48 0 -84 -2 -128 -9c-32 51 -125 171 -192 242v-106c0 -67 16 -87 59 -87c4 -14 5 -34 5 -43c-35 2 -75 3 -113 3s-82 -1 -115 -3c0 13 1 30 5 43c53 0 69 20 69 87v448c0 47 -7 71 -75 71c0 15 2 26 9 37
c30 0 110 17 134 34c12 -4 22 -15 22 -40v-415l67 61c45 41 64 66 64 80c0 11 -11 16 -29 16c-4 13 -6 26 -6 41c43 -2 77 -2 104 -2c22 0 58 0 94 2c0 -13 -2 -30 -7 -42c-39 -1 -72 -15 -122 -61l-87 -79c41 -45 82 -95 143 -172z" />
    <glyph glyph-name="l" unicode="l" horiz-adv-x="299" 
d="M110 127v448c0 47 -7 71 -75 71c0 15 2 26 9 37c30 0 110 17 134 34c12 -4 22 -15 22 -40v-550c0 -67 16 -87 59 -87c4 -14 5 -34 5 -43c-35 2 -75 3 -113 3s-82 -1 -115 -3c0 13 1 30 5 43c53 0 69 20 69 87z" />
    <glyph glyph-name="m" unicode="m" horiz-adv-x="884" 
d="M844 40c4 -12 5 -25 5 -43c-30 2 -69 3 -109 3s-86 -1 -119 -3c0 18 1 32 5 43c53 3 69 20 69 87v152c0 94 -38 122 -92 122c-51 0 -111 -45 -111 -167v-107c0 -69 19 -84 70 -87c4 -12 5 -25 5 -43c-34 2 -80 3 -119 3s-83 -1 -119 -3c0 18 1 32 5 43c53 3 69 20 69 87
v157c0 94 -38 122 -92 122c-51 0 -111 -45 -111 -167v-112c0 -67 17 -84 70 -87c4 -12 5 -25 5 -43c-34 2 -84 3 -119 3s-87 -1 -119 -3c0 18 1 32 5 43c53 3 69 20 69 87v198c0 47 -9 69 -75 71c0 15 2 26 9 37c34 2 103 19 129 34c12 -4 22 -15 22 -40
c0 -17 -1 -34 -4 -64c9 21 13 29 16 32c21 31 73 72 143 72c56 0 107 -23 128 -84c2 -7 4 -16 4 -25c5 14 10 23 17 32c22 31 73 72 143 72c75 0 141 -41 141 -163v-172c0 -69 19 -84 60 -87z" />
    <glyph glyph-name="n" unicode="n" horiz-adv-x="597" 
d="M556 40c4 -12 5 -25 5 -43c-29 2 -68 3 -109 3s-88 -2 -119 -3c0 18 1 32 5 43c48 0 69 20 69 87v152c0 94 -39 122 -93 122c-52 0 -113 -45 -113 -167v-107c0 -67 17 -87 69 -87c4 -12 5 -25 5 -43c-28 1 -78 3 -119 3s-90 -1 -119 -3c0 18 1 32 5 43c52 0 69 20 69 87
v198c0 47 -9 69 -75 71c0 15 2 26 9 37c41 3 103 18 134 34c12 -4 22 -15 22 -44c0 -16 -1 -36 -7 -59c4 7 7 15 15 26c22 31 74 72 145 72c76 0 143 -41 143 -163v-172c0 -69 19 -87 59 -87z" />
    <glyph glyph-name="o" unicode="o" horiz-adv-x="532" 
d="M266 467c142 0 226 -96 226 -238c0 -137 -91 -238 -226 -238c-137 0 -226 94 -226 238c0 136 93 238 226 238zM256 419c-77 0 -115 -69 -115 -169c0 -135 52 -211 133 -211c80 0 118 73 118 178c0 124 -62 202 -136 202z" />
    <glyph glyph-name="p" unicode="p" horiz-adv-x="573" 
d="M201 5v-100c0 -87 26 -104 89 -107c4 -11 5 -25 5 -43c-31 2 -79 3 -126 3s-106 -1 -132 -3c0 18 1 32 5 43c53 3 69 20 69 87v440c0 47 -9 69 -75 71c0 15 2 26 9 37c41 3 103 18 134 34c12 -4 22 -15 22 -44c0 -24 -6 -43 -15 -72c10 22 18 34 23 42
c18 30 70 74 137 74c117 0 187 -68 187 -213c0 -149 -99 -263 -249 -263c-33 0 -56 5 -83 14zM322 404c-59 0 -121 -51 -121 -191v-141c23 -21 49 -35 88 -35c55 0 145 36 145 195c0 105 -48 172 -112 172z" />
    <glyph glyph-name="q" unicode="q" horiz-adv-x="546" 
d="M531 -202c4 -12 5 -25 5 -43c-25 2 -81 3 -124 3s-90 -1 -124 -3c0 18 1 32 5 43c63 3 79 20 79 87v135c0 31 4 59 15 103c-8 -22 -19 -47 -29 -60c-27 -35 -81 -64 -134 -64c-97 0 -184 72 -184 215c0 136 98 253 244 253c91 0 156 -26 198 -67
c-13 -20 -20 -50 -20 -109v-406c0 -67 16 -84 69 -87zM261 60c46 0 111 43 111 173v153c-15 16 -51 35 -84 35c-87 0 -149 -69 -149 -194s65 -167 122 -167z" />
    <glyph glyph-name="r" unicode="r" horiz-adv-x="419" 
d="M330 458c27 0 48 -8 69 -24c-5 -33 -7 -83 -7 -118c-12 -4 -35 -9 -57 -9c-3 64 -23 78 -49 78c-35 0 -85 -64 -85 -142v-96c0 -87 26 -104 89 -107c4 -11 5 -25 5 -43c-31 2 -79 3 -126 3s-106 -1 -132 -3c0 18 1 32 5 43c53 3 69 20 69 87v198c0 47 -9 69 -75 71
c0 15 2 26 9 37c41 3 103 18 134 34c12 -4 22 -15 22 -44c0 -38 -7 -68 -13 -98c8 23 13 40 21 52c29 46 69 81 121 81z" />
    <glyph glyph-name="s" unicode="s" horiz-adv-x="428" 
d="M357 328c-13 -8 -31 -12 -50 -12c-4 55 -47 110 -112 110c-41 0 -68 -22 -68 -55c0 -34 12 -51 119 -93c108 -41 142 -75 142 -146c0 -85 -79 -141 -183 -141c-80 0 -120 13 -165 37c4 31 4 92 1 124c11 8 32 11 52 11c10 -84 53 -125 122 -125c54 0 86 27 86 64
c0 35 -19 52 -108 88c-108 43 -148 71 -148 152c0 85 99 125 166 125c60 0 103 -12 144 -35c-2 -32 -3 -69 2 -104z" />
    <glyph glyph-name="t" unicode="t" horiz-adv-x="351" 
d="M92 448v132c26 7 55 23 75 40c13 -6 16 -10 16 -52v-120h129c0 -13 -3 -29 -9 -44c-48 -2 -87 -6 -120 -13v-250c0 -67 21 -96 57 -96c28 0 47 8 66 24c8 -9 14 -22 15 -33c-22 -25 -71 -45 -113 -45c-79 0 -116 38 -116 129v271c-20 7 -39 11 -72 13c0 17 2 28 9 44h63z
" />
    <glyph glyph-name="u" unicode="u" horiz-adv-x="559" 
d="M462 423v-287c0 -47 7 -68 62 -68c0 -14 -1 -32 -6 -46c-33 -2 -83 -14 -114 -31c-14 6 -25 12 -25 58c0 9 0 22 3 42c-7 -16 -18 -30 -32 -44c-35 -35 -71 -51 -125 -51c-90 0 -143 45 -143 178v151c0 47 -5 69 -66 71c0 15 1 25 7 37c41 3 96 18 127 34
c12 -4 22 -15 22 -44v-227c0 -90 21 -139 83 -139c66 0 117 55 117 171v102c0 47 -9 69 -75 71c0 15 0 25 7 37c52 3 106 15 136 29c12 -4 22 -15 22 -44z" />
    <glyph glyph-name="v" unicode="v" horiz-adv-x="528" 
d="M420 458c31 0 69 1 93 3c0 -18 -3 -31 -9 -43c-33 -7 -47 -30 -80 -109l-134 -318c-16 0 -34 3 -46 9c-23 57 -140 312 -161 355c-26 53 -35 60 -62 63c-5 17 -6 24 -6 43c28 -2 63 -3 105 -3s91 1 123 3c0 -15 -3 -29 -7 -41c-67 -5 -74 -15 -49 -69
c17 -37 73 -165 108 -251l76 200c34 87 18 115 -33 119c-7 13 -11 28 -11 42c26 -2 62 -3 93 -3z" />
    <glyph glyph-name="w" unicode="w" horiz-adv-x="774" 
d="M671 458c36 0 65 1 88 3c0 -18 -2 -30 -8 -44c-30 -8 -41 -28 -74 -126l-101 -300c-19 0 -34 2 -46 9c-42 101 -93 224 -140 328l-131 -337c-22 0 -33 2 -44 9c-43 120 -88 238 -138 358c-15 37 -27 50 -56 59c-5 13 -6 31 -6 43c26 -1 54 -2 98 -2s76 1 110 3
c0 -13 -1 -34 -5 -44c-56 -6 -58 -23 -43 -60c30 -72 63 -163 90 -238l129 343c13 0 30 -1 40 -4c42 -92 94 -218 143 -340l54 170c31 97 9 123 -40 129c-6 14 -9 30 -9 44c25 -2 60 -3 89 -3z" />
    <glyph glyph-name="x" unicode="x" horiz-adv-x="521" 
d="M487 40c5 -13 5 -25 5 -42c-41 2 -71 2 -105 2s-76 0 -115 -2c0 17 0 30 4 42c47 1 57 16 26 62c-17 26 -37 55 -57 85l-42 -61c-42 -61 -30 -86 9 -86c4 -10 6 -28 6 -42c-37 2 -85 2 -105 2c-15 0 -42 0 -83 -2c0 14 1 31 6 42c36 2 62 19 112 89l70 97
c-28 40 -55 77 -76 105c-57 76 -67 86 -98 89c-5 11 -7 25 -7 40c29 -1 66 -2 105 -2s81 0 115 2c0 -13 -3 -29 -5 -40c-47 -2 -57 -17 -15 -74c11 -14 27 -36 45 -61l40 61c34 53 33 72 -11 74c-5 12 -6 26 -6 40c25 -1 49 -2 89 -2s63 1 84 2c0 -14 -3 -29 -6 -40
c-30 -2 -46 -11 -87 -69l-74 -104c32 -44 66 -91 90 -125c43 -63 60 -81 86 -82z" />
    <glyph glyph-name="y" unicode="y" horiz-adv-x="541" 
d="M426 458c37 0 70 0 100 2c0 -13 0 -29 -6 -43c-37 -9 -49 -28 -81 -104l-147 -350c-76 -182 -113 -212 -174 -212c-40 0 -62 13 -75 23c-5 20 -3 56 1 73c23 -4 44 -6 64 -6c39 0 75 17 101 59c10 15 27 49 46 93c-46 104 -103 229 -136 301c-47 100 -64 116 -98 123
c-4 12 -6 27 -6 43c38 -1 78 -2 113 -2s92 1 133 2c0 -17 -2 -31 -7 -43c-72 -12 -79 -35 -43 -110c26 -53 65 -145 90 -206l9 23l69 174c34 85 14 108 -45 119c-5 14 -7 28 -7 43c31 -2 62 -2 99 -2z" />
    <glyph glyph-name="z" unicode="z" horiz-adv-x="501" 
d="M448 150c0 -33 2 -97 8 -133c-5 -11 -16 -19 -32 -19c-51 1 -92 2 -179 2c-88 0 -142 -1 -178 -2c-9 9 -16 24 -16 40c66 91 212 296 264 376h-92c-72 0 -92 -18 -111 -106c-16 0 -37 2 -52 8c4 44 7 94 7 145c41 -2 122 -3 183 -3c59 0 138 1 177 3c9 -11 13 -29 13 -43
c-66 -95 -199 -279 -270 -373h127c71 0 91 15 98 111c16 0 33 -1 53 -6z" />
    <glyph glyph-name="braceleft" unicode="{" horiz-adv-x="327" 
d="M286 714c-68 -23 -86 -69 -86 -123c0 -60 22 -130 23 -192c1 -69 -22 -128 -127 -153c103 -27 128 -88 128 -160c0 -65 -20 -137 -20 -199c0 -58 18 -107 88 -129c0 -13 0 -21 -6 -29c-136 42 -162 123 -162 208c0 50 9 101 9 147c0 65 -17 118 -98 144c0 12 0 20 5 32
c77 26 95 75 95 134c0 48 -12 103 -12 155c0 77 26 150 154 192c6 -9 9 -18 9 -27z" />
    <glyph glyph-name="bar" unicode="|" horiz-adv-x="170" 
d="M60 -230v942c20 0 36 -2 50 -11c0 -112 -1 -289 -1 -467s1 -358 1 -475c-15 0 -41 5 -50 11z" />
    <glyph glyph-name="braceright" unicode="}" horiz-adv-x="327" 
d="M204 549c0 -52 -12 -107 -12 -155c0 -59 18 -108 95 -134c5 -12 5 -20 5 -32c-81 -26 -98 -79 -98 -144c0 -46 9 -97 9 -147c0 -85 -26 -166 -162 -208c-6 8 -6 16 -6 29c70 22 88 71 88 129c0 62 -20 134 -20 199c0 72 25 133 128 160c-105 25 -128 84 -127 153
c1 62 23 132 23 192c0 54 -18 100 -86 123c0 9 3 18 9 27c128 -42 154 -115 154 -192z" />
    <glyph glyph-name="asciitilde" unicode="~" horiz-adv-x="621" 
d="M60 239c54 73 103 96 150 96c74 0 143 -57 216 -57c33 0 67 12 103 45c14 -1 21 -4 32 -13c-56 -72 -103 -94 -146 -94c-72 0 -135 62 -209 62c-38 0 -78 -16 -125 -65c-13 6 -19 13 -21 26z" />
    <glyph glyph-name="uni00A0" unicode="&#xa0;" horiz-adv-x="200" 
 />
    <glyph glyph-name="exclamdown" unicode="&#xa1;" horiz-adv-x="411" 
d="M145 409c0 40 28 58 59 58c36 0 57 -22 57 -53s-25 -57 -61 -57c-34 0 -55 29 -55 52zM147 -224c13 125 28 306 34 458c16 0 33 -1 45 -6c11 -188 22 -314 40 -450c-27 -6 -79 -21 -101 -33c-14 5 -20 14 -18 31z" />
    <glyph glyph-name="cent" unicode="&#xa2;" horiz-adv-x="447" 
d="M412 78c-31 -50 -75 -79 -136 -86l1 -133c-15 0 -41 5 -50 11v122c-95 10 -187 89 -187 235c0 114 65 227 187 239v146c20 0 36 -2 50 -11l-1 -135c49 -4 91 -19 123 -44c-6 -39 -7 -76 -7 -114c-11 -6 -32 -8 -46 -8c-6 60 -32 100 -71 114v-366h1c43 0 82 20 111 58
c10 -5 21 -16 25 -28zM133 242c0 -81 33 -157 94 -184v361c-58 -8 -94 -71 -94 -177z" />
    <glyph glyph-name="sterling" unicode="&#xa3;" horiz-adv-x="558" 
d="M479 100c15 -2 26 -8 38 -20c-33 -25 -73 -64 -90 -89c-22 0 -39 3 -56 11c-44 19 -61 55 -140 55c-52 0 -95 -20 -140 -65c-15 6 -26 17 -34 30c76 72 120 128 120 216c0 19 -3 36 -7 52c-45 -1 -77 -1 -105 -2c0 21 3 30 11 46h79c-20 45 -44 89 -44 160
c0 97 65 191 186 191c72 0 110 -11 154 -35c-4 -41 -2 -81 1 -132c-19 -9 -37 -10 -54 -9c-6 92 -42 129 -113 129c-50 0 -90 -44 -90 -108c0 -86 55 -122 66 -196h118c0 -20 -3 -31 -10 -45c-36 1 -66 1 -107 1c-3 -64 -28 -124 -83 -191c43 29 73 36 109 36
c71 0 117 -52 153 -52c11 0 25 5 38 17z" />
    <glyph glyph-name="currency" unicode="&#xa4;" horiz-adv-x="527" 
d="M401 141l66 -64c-8 -10 -20 -19 -40 -20l-56 55c-34 -25 -74 -37 -108 -37c-42 0 -78 13 -107 34l-50 -51c-20 1 -28 5 -40 18l58 61c-28 33 -44 76 -44 120c0 41 13 76 35 104l-55 55c9 9 21 18 39 19l45 -44c33 26 75 40 119 40c42 0 81 -14 112 -38l45 46
c17 -4 27 -9 37 -21l-53 -53c23 -29 37 -66 37 -108c0 -49 -16 -87 -40 -116zM269 118c70 0 117 52 117 131c0 70 -56 142 -132 142c-70 0 -118 -51 -118 -127c0 -70 58 -146 133 -146z" />
    <glyph glyph-name="yen" unicode="&#xa5;" horiz-adv-x="630" 
d="M519 676c30 0 63 1 86 2c0 -14 -1 -25 -4 -39c-36 -10 -67 -40 -101 -108l-76 -153h111c0 -20 -5 -33 -11 -47h-124l-35 -71v-7h168c0 -18 -4 -34 -12 -47h-156v-43c0 -106 9 -114 77 -123c4 -12 6 -27 6 -43c-44 1 -90 3 -127 3c-44 0 -108 -1 -136 -2c0 14 2 30 6 42
c71 6 80 16 80 110v56h-166c0 15 4 34 11 47l155 1v5l-37 72h-120c0 17 4 34 10 47h85l-104 200c-21 41 -37 57 -74 59c-5 15 -6 27 -6 41c28 -1 66 -2 104 -2s103 0 134 2c0 -15 -1 -25 -5 -39c-52 -5 -58 -25 -28 -82c35 -67 77 -153 117 -243c41 91 78 168 108 228
c36 70 26 87 -27 95c-4 14 -7 26 -7 41c24 -2 68 -2 98 -2z" />
    <glyph glyph-name="brokenbar" unicode="&#xa6;" horiz-adv-x="181" 
d="M62 340v372c20 0 36 -2 50 -11c0 -42 -2 -111 -2 -179c0 -58 2 -155 2 -193c-15 0 -41 5 -50 11zM62 -230v403c20 0 36 -2 50 -11c0 -42 -2 -136 -2 -195c0 -50 2 -145 2 -208c-15 0 -41 5 -50 11z" />
    <glyph glyph-name="section" unicode="&#xa7;" horiz-adv-x="528" 
d="M336 68c61 -45 80 -91 80 -152c0 -85 -46 -158 -161 -158c-83 0 -119 27 -147 51c2 46 3 91 -1 135c14 4 35 6 51 6c11 -123 53 -146 103 -146c54 0 87 31 87 81c0 56 -16 80 -131 139c-116 60 -156 117 -156 217c0 75 41 142 113 168c-61 47 -73 99 -73 152
c0 79 61 153 156 153c66 0 106 -21 133 -42c-3 -34 -3 -79 1 -117c-17 -5 -31 -8 -51 -8c-17 98 -45 121 -85 121c-53 0 -87 -42 -87 -83c0 -48 13 -78 115 -124c135 -61 183 -108 183 -215c0 -80 -48 -150 -130 -178zM127 266c0 -55 24 -100 130 -152l21 -11
c92 11 120 62 120 111c0 53 -23 96 -154 155l-18 9c-66 -13 -99 -56 -99 -112z" />
    <glyph glyph-name="dieresis" unicode="&#xa8;" horiz-adv-x="540" 
d="M145 583c0 29 16 57 55 57c40 0 57 -24 57 -55s-24 -53 -55 -53c-34 0 -57 22 -57 51zM452 589c0 -28 -14 -56 -54 -56c-39 0 -59 23 -59 56c0 32 23 51 56 51s57 -21 57 -51z" />
    <glyph glyph-name="copyright" unicode="&#xa9;" horiz-adv-x="802" 
d="M401 571c190 0 341 -150 341 -341c0 -190 -151 -341 -341 -341c-193 0 -341 149 -341 341c0 191 150 341 341 341zM401 528c-167 0 -298 -130 -298 -298c0 -169 129 -297 298 -297c168 0 298 130 298 297c0 168 -130 298 -298 298zM410 453c62 0 97 -14 144 -43
c-6 -36 -7 -71 -7 -107c-9 -5 -30 -7 -43 -7c-5 54 -27 112 -112 112c-76 0 -103 -77 -103 -169s37 -182 130 -182c38 0 83 11 120 51c8 -7 13 -14 17 -24c-35 -51 -86 -79 -163 -79c-97 0 -196 75 -196 223c0 135 88 225 213 225z" />
    <glyph glyph-name="ordfeminine" unicode="&#xaa;" horiz-adv-x="416" 
d="M345 561v-73c0 -51 8 -62 41 -62c0 -15 -1 -31 -6 -44c-35 -3 -71 -13 -96 -23c-13 4 -23 14 -23 37c0 15 3 26 4 35c-5 -15 -14 -30 -30 -45c-18 -15 -44 -26 -80 -26c-70 0 -105 30 -105 84c0 83 92 113 205 130c0 54 -4 67 -17 82c-11 14 -26 22 -46 22
c-42 0 -57 -48 -60 -87c-17 0 -41 2 -54 7c2 27 1 59 -4 82c41 22 90 37 142 37c48 0 76 -11 96 -32c24 -25 33 -52 33 -124zM255 514v23c-56 -8 -112 -20 -112 -76c0 -34 19 -47 40 -47c32 0 72 29 72 100z" />
    <glyph glyph-name="guillemotleft" unicode="&#xab;" horiz-adv-x="510" 
d="M250 401c-34 -43 -81 -103 -104 -137c29 -52 63 -102 97 -147c-2 -14 -8 -26 -20 -34c-59 60 -110 108 -163 157c0 12 2 22 6 34c56 49 101 93 149 143c16 -2 26 -7 35 -16zM402 398c-31 -44 -60 -88 -86 -131c25 -50 55 -105 82 -151c-4 -13 -11 -22 -23 -28
c-53 63 -88 102 -136 152c0 14 3 26 6 33c47 50 83 92 123 140c13 -1 25 -6 34 -15z" />
    <glyph glyph-name="logicalnot" unicode="&#xac;" horiz-adv-x="585" 
d="M525 347v-231c-15 -9 -34 -14 -52 -14v195c-138 0 -267 1 -413 -1c0 15 4 42 10 51h455z" />
    <glyph glyph-name="softhyphen" unicode="&#xad;" horiz-adv-x="419" 
d="M76 299h283c0 -21 -4 -47 -13 -65c-73 0 -215 -2 -286 -4c0 23 7 52 16 69z" />
    <glyph glyph-name="registered" unicode="&#xae;" horiz-adv-x="495" 
d="M247 685c107 0 188 -83 188 -188c0 -106 -81 -187 -188 -187c-104 0 -187 81 -187 187c0 105 83 188 187 188zM247 343c90 0 155 67 155 154c0 88 -65 155 -155 155c-87 0 -154 -67 -154 -155c0 -87 67 -154 154 -154zM324 544c0 -24 -10 -52 -43 -61l51 -84l-38 -5
l-47 82l-23 1v-80h-38v205h73c44 0 65 -22 65 -58zM224 572v-68c39 -5 62 4 62 34c0 40 -35 41 -62 34z" />
    <glyph glyph-name="macron" unicode="&#xaf;" horiz-adv-x="540" 
d="M96 631h355c0 -14 -3 -28 -9 -43c-32 0 -184 0 -355 -3c0 8 3 34 9 46z" />
    <glyph glyph-name="degree" unicode="&#xb0;" horiz-adv-x="384" 
d="M324 579c0 -70 -53 -125 -134 -125c-82 0 -130 52 -130 124c0 69 54 122 130 122c86 0 134 -52 134 -121zM130 597c0 -62 35 -103 74 -103c28 0 50 24 50 74c0 58 -27 94 -70 94c-31 0 -54 -31 -54 -65z" />
    <glyph glyph-name="plusminus" unicode="&#xb1;" horiz-adv-x="585" 
d="M273 163c1 69 2 103 2 151c-41 0 -95 0 -167 -1c0 15 4 40 10 49h157c0 37 0 73 -1 150c14 9 29 10 49 10v-160h170c0 -20 -1 -34 -10 -48c-62 1 -88 1 -160 0v-141c-9 -6 -35 -10 -50 -10zM70 130h455c0 -20 -1 -34 -10 -48c-111 1 -125 1 -212 1c-88 0 -152 -1 -243 -2
c0 15 4 40 10 49z" />
    <glyph glyph-name="twosuperior" unicode="&#xb2;" horiz-adv-x="370" 
d="M296 626c0 -52 -20 -81 -63 -120c-24 -22 -55 -49 -88 -78h80c32 0 53 14 55 56c14 0 27 -1 37 -4c0 -35 1 -66 8 -102c-5 -11 -15 -20 -32 -20c-30 0 -80 2 -128 2c-49 0 -94 -2 -116 -2c-7 11 -9 22 -9 33c43 41 84 77 108 98c47 42 67 74 67 123c0 37 -23 62 -51 62
c-33 0 -44 -26 -53 -99c-15 0 -36 1 -49 6c3 32 3 73 -1 103c41 24 73 33 128 33c48 0 107 -23 107 -91z" />
    <glyph glyph-name="threesuperior" unicode="&#xb3;" horiz-adv-x="369" 
d="M298 716c7 -12 8 -20 8 -35c-33 -36 -77 -89 -119 -145c69 6 137 -43 137 -131c0 -87 -71 -160 -187 -160c-60 0 -92 23 -102 32c7 13 13 20 23 27c9 -8 34 -19 73 -19c48 0 108 39 108 110c0 51 -30 91 -89 91c-10 0 -15 -1 -22 -3c-8 6 -14 13 -17 26
c56 70 88 110 115 146h-62c-44 0 -53 -11 -73 -60c-12 0 -28 3 -37 9c5 41 7 79 7 112c23 -1 63 -1 123 -1c58 0 96 0 114 1z" />
    <glyph glyph-name="acute" unicode="&#xb4;" horiz-adv-x="540" 
d="M289 709c29 10 54 13 74 12c12 -1 22 -4 29 -7c-44 -51 -93 -122 -132 -183c-12 -1 -26 1 -36 6c32 66 52 121 65 172z" />
    <glyph glyph-name="uni00B5" unicode="&#xb5;" horiz-adv-x="554" 
d="M499 71c8 -10 13 -24 15 -41c-20 -22 -58 -39 -92 -39c-52 0 -68 35 -69 93c-22 -49 -69 -88 -133 -88c-46 0 -70 21 -80 48v-90c0 -59 5 -98 14 -128c-23 -19 -45 -42 -71 -75c-10 5 -18 15 -21 27c9 22 10 36 10 81v584c23 5 55 16 68 24c12 -4 22 -15 22 -44v-227
c0 -101 26 -139 79 -139c62 0 107 53 107 171v215c23 5 55 16 68 24c12 -4 22 -15 22 -44v-283c0 -56 9 -77 34 -77c9 0 18 3 27 8z" />
    <glyph glyph-name="paragraph" unicode="&#xb6;" horiz-adv-x="540" 
d="M439 676c23 0 54 0 82 2c0 -15 -1 -28 -6 -42c-59 -3 -67 -26 -67 -86v-799c-19 0 -33 3 -50 10v875c-22 3 -41 4 -61 5v-890c-19 0 -34 1 -50 9v558c-11 -1 -21 -2 -33 -2c-135 0 -218 43 -218 177c0 105 72 185 251 185c63 0 104 -2 152 -2zM287 355v286
c-117 -3 -160 -37 -160 -145c0 -98 67 -141 141 -141h19z" />
    <glyph glyph-name="periodcentered" unicode="&#xb7;" horiz-adv-x="236" 
d="M176 278c0 -40 -28 -58 -59 -58c-36 0 -57 22 -57 53s25 57 61 57c34 0 55 -29 55 -52z" />
    <glyph glyph-name="cedilla" unicode="&#xb8;" horiz-adv-x="540" 
d="M324 16l-48 -66c53 -9 87 -43 87 -91c0 -66 -76 -101 -128 -101c-5 9 -7 22 -7 32c40 0 79 20 79 55c0 33 -28 54 -65 54c-10 8 -18 21 -18 38l50 79h50z" />
    <glyph glyph-name="onesuperior" unicode="&#xb9;" horiz-adv-x="308" 
d="M195 612v-153c0 -43 15 -61 55 -61c3 -14 4 -27 4 -41c-31 2 -69 3 -99 3c-31 0 -69 -1 -101 -3c0 14 1 28 4 41c40 0 55 18 55 61v153c0 40 -15 60 -55 60c-3 13 -4 27 -4 42c22 -2 74 -3 101 -3c25 0 73 1 99 3c0 -15 -1 -29 -4 -42c-40 0 -55 -20 -55 -60z" />
    <glyph glyph-name="ordmasculine" unicode="&#xba;" horiz-adv-x="418" 
d="M210 717c110 0 169 -73 169 -178c0 -108 -67 -182 -171 -182c-105 0 -168 70 -168 178c0 109 73 182 170 182zM217 398c47 0 72 52 72 127c0 96 -39 152 -87 152c-47 0 -70 -51 -70 -123c0 -97 32 -156 85 -156z" />
    <glyph glyph-name="guillemotright" unicode="&#xbb;" horiz-adv-x="518" 
d="M279 116c33 42 64 85 94 133c-26 41 -73 108 -108 155c11 9 25 14 37 14c48 -46 97 -89 150 -133c5 -10 6 -20 6 -32c-54 -54 -106 -110 -156 -166c-11 7 -19 18 -23 29zM120 119c26 41 52 84 78 130c-22 40 -61 105 -90 151c10 9 25 14 39 14c40 -45 81 -87 126 -130
c4 -10 5 -19 5 -31c-45 -53 -89 -107 -131 -162c-12 7 -21 18 -27 28z" />
    <glyph glyph-name="onequarter" unicode="&#xbc;" horiz-adv-x="863" 
d="M246 320c3 -10 4 -26 4 -42c-14 1 -63 3 -109 3c-50 0 -88 -2 -109 -3c0 18 1 30 4 42c44 3 66 16 66 99v164c0 54 -15 70 -76 70c0 12 1 30 8 43c49 6 96 18 132 33c15 -5 20 -13 20 -44v-259c0 -86 19 -103 60 -106zM163 18l512 696c14 -4 31 -16 40 -26l-512 -696
c-19 6 -33 17 -40 26zM810 119h-61v-8c0 -62 14 -67 50 -69c3 -8 5 -30 5 -45c-23 1 -71 3 -102 3c-32 0 -85 -2 -104 -3c0 15 1 39 4 45c46 2 65 11 65 69v7c-82 -1 -132 -4 -172 -7c-11 12 -18 30 -18 49c67 83 152 188 220 290c18 2 35 0 52 -6v-253h47
c16 0 25 -2 32 -10c-9 -18 -15 -36 -18 -62zM667 191v147l-107 -147h107z" />
    <glyph glyph-name="onehalf" unicode="&#xbd;" horiz-adv-x="958" 
d="M102 419v164c0 54 -15 70 -76 70c0 12 1 30 8 43c49 6 96 18 132 33c15 -5 20 -13 20 -44v-259c0 -86 19 -103 60 -106c3 -10 4 -26 4 -42c-14 1 -63 3 -109 3c-50 0 -88 -2 -109 -3c0 18 1 30 4 42c44 3 66 16 66 99zM715 688l-512 -696c-19 6 -33 17 -40 26l512 696
c14 -4 31 -16 40 -26zM895 343c0 -56 -34 -98 -84 -145c-42 -40 -74 -72 -116 -120h123c32 0 53 10 53 46c16 1 32 0 44 -5c-1 -37 0 -76 7 -104c-7 -12 -19 -16 -50 -16c-14 0 -59 1 -93 1c-59 0 -114 -1 -172 -1c-7 6 -9 19 -9 29c20 23 48 54 67 74l91 94
c36 38 52 76 52 131c0 46 -22 84 -73 84c-47 0 -62 -28 -72 -91c-19 0 -35 2 -49 7c4 27 4 54 -1 90c40 21 89 32 140 32c77 0 142 -32 142 -106z" />
    <glyph glyph-name="threequarters" unicode="&#xbe;" horiz-adv-x="907" 
d="M348 430c0 -97 -80 -157 -195 -157c-64 0 -102 21 -116 34c-1 13 5 29 14 39c16 -10 47 -24 94 -24c62 0 108 27 108 87c0 48 -45 75 -90 75c-12 0 -23 -1 -33 -5c-9 8 -18 27 -19 36c43 48 91 100 123 139h-75c-33 0 -49 -15 -68 -64c-14 0 -33 5 -43 12
c8 34 10 90 9 124c26 -1 75 -2 137 -2c63 0 103 2 122 2c8 -9 13 -23 13 -36c-38 -40 -81 -87 -127 -137c69 0 146 -37 146 -123zM207 18l512 696c14 -4 31 -16 40 -26l-512 -696c-19 6 -33 17 -40 26zM854 119h-61v-8c0 -62 14 -67 50 -69c3 -8 5 -30 5 -45
c-23 1 -71 3 -102 3c-32 0 -85 -2 -104 -3c0 15 1 39 4 45c46 2 65 11 65 69v7c-82 -1 -132 -4 -172 -7c-11 12 -18 30 -18 49c67 83 152 188 220 290c18 2 35 0 52 -6v-253h47c16 0 25 -2 32 -10c-9 -18 -15 -36 -18 -62zM711 191v147l-107 -147h107z" />
    <glyph glyph-name="questiondown" unicode="&#xbf;" horiz-adv-x="537" 
d="M205 408c0 40 28 58 59 58c36 0 57 -22 57 -53s-25 -57 -61 -57c-34 0 -55 29 -55 52zM263 -256c-94 0 -161 45 -161 128c0 131 145 177 145 317c0 16 -5 49 -11 68c12 7 23 8 36 8c22 -15 46 -65 46 -122c0 -133 -127 -163 -127 -262c0 -57 39 -96 81 -96
c50 0 77 37 88 129c19 0 44 -3 57 -10c-4 -47 -5 -75 0 -117c-33 -21 -79 -43 -154 -43z" />
    <glyph glyph-name="Agrave" unicode="&#xc0;" horiz-adv-x="704" 
d="M372 755c-12 -6 -27 -4 -40 -2c-46 72 -85 124 -127 169c26 13 63 13 96 8c17 -57 39 -115 71 -175zM673 40c5 -17 6 -27 6 -43c-20 1 -82 3 -114 3s-93 -2 -113 -3c0 16 1 31 7 43c55 6 62 17 36 78l-44 102c-84 0 -185 -1 -264 -4l-27 -69c-30 -79 -19 -103 36 -107
c5 -12 7 -27 7 -43c-23 2 -62 3 -95 3s-64 -2 -83 -3c0 13 2 30 7 42c36 7 49 29 80 108l207 531c13 3 23 4 39 4l238 -546c33 -75 46 -91 77 -96zM432 265l-76 178c-17 39 -28 63 -45 109c-14 -47 -26 -78 -37 -108l-69 -179h227z" />
    <glyph glyph-name="Aacute" unicode="&#xc1;" horiz-adv-x="704" 
d="M345 749c-12 -1 -26 1 -36 6c32 66 52 121 65 172c29 10 54 13 74 12c12 -1 22 -4 29 -7c-44 -51 -93 -122 -132 -183zM673 40c5 -17 6 -27 6 -43c-20 1 -82 3 -114 3s-93 -2 -113 -3c0 16 1 31 7 43c55 6 62 17 36 78l-44 102c-84 0 -185 -1 -264 -4l-27 -69
c-30 -79 -19 -103 36 -107c5 -12 7 -27 7 -43c-23 2 -62 3 -95 3s-64 -2 -83 -3c0 13 2 30 7 42c36 7 49 29 80 108l207 531c13 3 23 4 39 4l238 -546c33 -75 46 -91 77 -96zM432 265l-76 178c-17 39 -28 63 -45 109c-14 -47 -26 -78 -37 -108l-69 -179h227z" />
    <glyph glyph-name="Acircumflex" unicode="&#xc2;" horiz-adv-x="704" 
d="M346 836c-31 -16 -121 -76 -154 -101c-9 9 -11 29 -11 38c50 38 112 96 157 150c11 3 24 4 32 4c36 -49 86 -109 146 -168c-6 -8 -18 -15 -30 -18c-43 30 -97 72 -140 95zM673 40c5 -17 6 -27 6 -43c-20 1 -82 3 -114 3s-93 -2 -113 -3c0 16 1 31 7 43c55 6 62 17 36 78
l-44 102c-84 0 -185 -1 -264 -4l-27 -69c-30 -79 -19 -103 36 -107c5 -12 7 -27 7 -43c-23 2 -62 3 -95 3s-64 -2 -83 -3c0 13 2 30 7 42c36 7 49 29 80 108l207 531c13 3 23 4 39 4l238 -546c33 -75 46 -91 77 -96zM432 265l-76 178c-17 39 -28 63 -45 109
c-14 -47 -26 -78 -37 -108l-69 -179h227z" />
    <glyph glyph-name="Atilde" unicode="&#xc3;" horiz-adv-x="704" 
d="M188 735c-7 4 -10 11 -10 19c40 70 76 91 109 91c47 0 89 -41 133 -41c20 0 40 8 61 31c5 0 14 -2 19 -8c-34 -74 -66 -96 -97 -96c-44 0 -88 43 -138 43c-24 0 -49 -10 -77 -39zM673 40c5 -17 6 -27 6 -43c-20 1 -82 3 -114 3s-93 -2 -113 -3c0 16 1 31 7 43
c55 6 62 17 36 78l-44 102c-84 0 -185 -1 -264 -4l-27 -69c-30 -79 -19 -103 36 -107c5 -12 7 -27 7 -43c-23 2 -62 3 -95 3s-64 -2 -83 -3c0 13 2 30 7 42c36 7 49 29 80 108l207 531c13 3 23 4 39 4l238 -546c33 -75 46 -91 77 -96zM432 265l-76 178
c-17 39 -28 63 -45 109c-14 -47 -26 -78 -37 -108l-69 -179h227z" />
    <glyph glyph-name="Adieresis" unicode="&#xc4;" horiz-adv-x="704" 
d="M243 750c-34 0 -57 22 -57 51s16 57 55 57c40 0 57 -24 57 -55s-24 -53 -55 -53zM439 751c-39 0 -59 23 -59 56c0 32 23 51 56 51s57 -21 57 -51c0 -28 -14 -56 -54 -56zM673 40c5 -17 6 -27 6 -43c-20 1 -82 3 -114 3s-93 -2 -113 -3c0 16 1 31 7 43c55 6 62 17 36 78
l-44 102c-84 0 -185 -1 -264 -4l-27 -69c-30 -79 -19 -103 36 -107c5 -12 7 -27 7 -43c-23 2 -62 3 -95 3s-64 -2 -83 -3c0 13 2 30 7 42c36 7 49 29 80 108l207 531c13 3 23 4 39 4l238 -546c33 -75 46 -91 77 -96zM432 265l-76 178c-17 39 -28 63 -45 109
c-14 -47 -26 -78 -37 -108l-69 -179h227z" />
    <glyph glyph-name="Aring" unicode="&#xc5;" horiz-adv-x="704" 
d="M334 744c-51 0 -97 34 -97 88c0 53 46 94 104 94c49 0 98 -27 98 -87c0 -54 -46 -95 -105 -95zM334 892c-25 0 -42 -21 -42 -56c0 -31 19 -55 52 -55c21 0 41 18 41 48c0 28 -16 63 -51 63zM673 40c5 -17 6 -27 6 -43c-20 1 -82 3 -114 3s-93 -2 -113 -3c0 16 1 31 7 43
c55 6 62 17 36 78l-44 102c-84 0 -185 -1 -264 -4l-27 -69c-30 -79 -19 -103 36 -107c5 -12 7 -27 7 -43c-23 2 -62 3 -95 3s-64 -2 -83 -3c0 13 2 30 7 42c36 7 49 29 80 108l207 531c13 3 23 4 39 4l238 -546c33 -75 46 -91 77 -96zM432 265l-76 178
c-17 39 -28 63 -45 109c-14 -47 -26 -78 -37 -108l-69 -179h227z" />
    <glyph glyph-name="AE" unicode="&#xc6;" horiz-adv-x="911" 
d="M870 147c-15 -46 -25 -103 -31 -149c-71 1 -172 2 -251 2c-78 0 -142 -1 -198 -2c0 15 1 31 7 42c51 7 64 20 64 98v160c-84 -1 -139 -2 -184 -4c-33 -58 -62 -109 -78 -139c-47 -88 -31 -109 17 -117c5 -12 7 -25 7 -41c-31 2 -72 3 -105 3s-73 -1 -93 -3
c0 13 2 30 7 42c32 4 54 19 108 113l234 404c30 52 20 72 -44 79c-5 12 -6 28 -6 43c52 -1 125 -2 159 -2h34c128 0 237 1 298 2c4 -45 11 -114 21 -157c-11 -9 -27 -12 -45 -12c-5 62 -35 127 -164 127h-72v-295h51c80 0 101 29 101 80c20 5 31 7 49 7
c-1 -20 -2 -75 -2 -111s1 -92 2 -114c-18 0 -32 0 -46 5c-5 52 -17 90 -112 90h-43v-160c0 -85 27 -93 70 -93h26c125 0 146 44 175 126c20 -6 32 -12 44 -24zM461 341v199c0 34 0 55 4 89c-11 -26 -21 -44 -43 -83l-118 -205h157z" />
    <glyph glyph-name="Ccedilla" unicode="&#xc7;" horiz-adv-x="653" 
d="M386 -8l-31 -42c53 -9 87 -43 87 -91c0 -66 -76 -101 -128 -101c-5 9 -7 22 -7 32c40 0 79 20 79 55c0 33 -28 54 -65 54c-10 8 -18 21 -18 38l34 54c-177 8 -302 150 -302 352c0 229 164 342 334 342c84 0 148 -17 222 -52c-10 -47 -11 -100 -11 -155
c-17 -7 -32 -9 -53 -9c-5 142 -62 175 -150 175c-169 0 -237 -134 -237 -274c0 -179 95 -318 255 -318c64 0 134 23 190 59c8 -7 17 -22 18 -31c-70 -54 -133 -82 -217 -88z" />
    <glyph glyph-name="Egrave" unicode="&#xc8;" horiz-adv-x="601" 
d="M321 755c-12 -6 -27 -4 -40 -2c-46 72 -85 124 -127 169c26 13 63 13 96 8c17 -57 39 -115 71 -175zM516 171c20 -6 32 -12 44 -24c-15 -46 -25 -103 -31 -149c-39 1 -120 2 -214 2c-74 0 -209 -1 -259 -3c0 18 1 32 5 43c54 3 69 20 69 98v411c0 67 -16 84 -69 87
c-4 11 -5 27 -5 43c39 -2 132 -3 168 -3c157 0 248 2 281 3c4 -45 11 -115 21 -158c-11 -9 -27 -12 -45 -12c-5 62 -35 127 -164 127h-93v-274h63c82 0 110 16 111 81c17 5 30 7 48 7c-2 -34 -2 -74 -2 -109s0 -82 2 -116c-18 0 -31 1 -46 5c-5 69 -31 89 -113 89h-63v-181
c0 -74 16 -93 91 -93h6c143 0 166 44 195 126z" />
    <glyph glyph-name="Eacute" unicode="&#xc9;" horiz-adv-x="601" 
d="M294 749c-12 -1 -26 1 -36 6c32 66 52 121 65 172c29 10 54 13 74 12c12 -1 22 -4 29 -7c-44 -51 -93 -122 -132 -183zM516 171c20 -6 32 -12 44 -24c-15 -46 -25 -103 -31 -149c-39 1 -120 2 -214 2c-74 0 -209 -1 -259 -3c0 18 1 32 5 43c54 3 69 20 69 98v411
c0 67 -16 84 -69 87c-4 11 -5 27 -5 43c39 -2 132 -3 168 -3c157 0 248 2 281 3c4 -45 11 -115 21 -158c-11 -9 -27 -12 -45 -12c-5 62 -35 127 -164 127h-93v-274h63c82 0 110 16 111 81c17 5 30 7 48 7c-2 -34 -2 -74 -2 -109s0 -82 2 -116c-18 0 -31 1 -46 5
c-5 69 -31 89 -113 89h-63v-181c0 -74 16 -93 91 -93h6c143 0 166 44 195 126z" />
    <glyph glyph-name="Ecircumflex" unicode="&#xca;" horiz-adv-x="601" 
d="M295 836c-31 -16 -121 -76 -154 -101c-9 9 -11 29 -11 38c50 38 112 96 157 150c11 3 24 4 32 4c36 -49 86 -109 146 -168c-6 -8 -18 -15 -30 -18c-43 30 -97 72 -140 95zM516 171c20 -6 32 -12 44 -24c-15 -46 -25 -103 -31 -149c-39 1 -120 2 -214 2
c-74 0 -209 -1 -259 -3c0 18 1 32 5 43c54 3 69 20 69 98v411c0 67 -16 84 -69 87c-4 11 -5 27 -5 43c39 -2 132 -3 168 -3c157 0 248 2 281 3c4 -45 11 -115 21 -158c-11 -9 -27 -12 -45 -12c-5 62 -35 127 -164 127h-93v-274h63c82 0 110 16 111 81c17 5 30 7 48 7
c-2 -34 -2 -74 -2 -109s0 -82 2 -116c-18 0 -31 1 -46 5c-5 69 -31 89 -113 89h-63v-181c0 -74 16 -93 91 -93h6c143 0 166 44 195 126z" />
    <glyph glyph-name="Edieresis" unicode="&#xcb;" horiz-adv-x="601" 
d="M192 750c-34 0 -57 22 -57 51s16 57 55 57c40 0 57 -24 57 -55s-24 -53 -55 -53zM388 751c-39 0 -59 23 -59 56c0 32 23 51 56 51s57 -21 57 -51c0 -28 -14 -56 -54 -56zM516 171c20 -6 32 -12 44 -24c-15 -46 -25 -103 -31 -149c-39 1 -120 2 -214 2
c-74 0 -209 -1 -259 -3c0 18 1 32 5 43c54 3 69 20 69 98v411c0 67 -16 84 -69 87c-4 11 -5 27 -5 43c39 -2 132 -3 168 -3c157 0 248 2 281 3c4 -45 11 -115 21 -158c-11 -9 -27 -12 -45 -12c-5 62 -35 127 -164 127h-93v-274h63c82 0 110 16 111 81c17 5 30 7 48 7
c-2 -34 -2 -74 -2 -109s0 -82 2 -116c-18 0 -31 1 -46 5c-5 69 -31 89 -113 89h-63v-181c0 -74 16 -93 91 -93h6c143 0 166 44 195 126z" />
    <glyph glyph-name="Igrave" unicode="&#xcc;" horiz-adv-x="354" 
d="M170 753c-46 72 -85 124 -127 169c26 13 63 13 96 8c17 -57 39 -115 71 -175c-12 -6 -27 -4 -40 -2zM130 127v422c0 67 -16 84 -69 87c-4 11 -5 25 -5 43c37 -2 78 -3 121 -3s81 1 121 3c0 -18 -1 -32 -5 -43c-53 -3 -69 -20 -69 -87v-422c0 -67 16 -84 69 -87
c4 -11 5 -25 5 -43c-40 2 -82 3 -121 3s-87 -1 -121 -3c0 18 1 32 5 43c53 3 69 20 69 87z" />
    <glyph glyph-name="Iacute" unicode="&#xcd;" horiz-adv-x="354" 
d="M212 927c29 10 54 13 74 12c12 -1 22 -4 29 -7c-44 -51 -93 -122 -132 -183c-12 -1 -26 1 -36 6c32 66 52 121 65 172zM130 127v422c0 67 -16 84 -69 87c-4 11 -5 25 -5 43c37 -2 78 -3 121 -3s81 1 121 3c0 -18 -1 -32 -5 -43c-53 -3 -69 -20 -69 -87v-422
c0 -67 16 -84 69 -87c4 -11 5 -25 5 -43c-40 2 -82 3 -121 3s-87 -1 -121 -3c0 18 1 32 5 43c53 3 69 20 69 87z" />
    <glyph glyph-name="Icircumflex" unicode="&#xce;" horiz-adv-x="354" 
d="M176 923c11 3 24 4 32 4c36 -49 86 -109 146 -168c-6 -8 -18 -15 -30 -18c-43 30 -97 72 -140 95c-31 -16 -121 -76 -154 -101c-9 9 -11 29 -11 38c50 38 112 96 157 150zM130 127v422c0 67 -16 84 -69 87c-4 11 -5 25 -5 43c37 -2 78 -3 121 -3s81 1 121 3
c0 -18 -1 -32 -5 -43c-53 -3 -69 -20 -69 -87v-422c0 -67 16 -84 69 -87c4 -11 5 -25 5 -43c-40 2 -82 3 -121 3s-87 -1 -121 -3c0 18 1 32 5 43c53 3 69 20 69 87z" />
    <glyph glyph-name="Idieresis" unicode="&#xcf;" horiz-adv-x="354" 
d="M24 801c0 29 16 57 55 57c40 0 57 -24 57 -55s-24 -53 -55 -53c-34 0 -57 22 -57 51zM331 807c0 -28 -14 -56 -54 -56c-39 0 -59 23 -59 56c0 32 23 51 56 51s57 -21 57 -51zM130 127v422c0 67 -16 84 -69 87c-4 11 -5 25 -5 43c37 -2 78 -3 121 -3s81 1 121 3
c0 -18 -1 -32 -5 -43c-53 -3 -69 -20 -69 -87v-422c0 -67 16 -84 69 -87c4 -11 5 -25 5 -43c-40 2 -82 3 -121 3s-87 -1 -121 -3c0 18 1 32 5 43c53 3 69 20 69 87z" />
    <glyph glyph-name="Eth" unicode="&#xd0;" 
d="M316 678c177 0 380 -48 380 -323c0 -324 -267 -355 -380 -355c-74 0 -209 -1 -259 -3c0 18 1 32 5 43c53 3 70 20 70 98v110c-27 0 -51 0 -93 -2c0 15 5 42 11 51h82v252c0 67 -16 84 -69 87c-4 11 -5 27 -5 43c31 -2 96 -3 140 -3c39 1 79 2 118 2zM316 45
c159 0 277 69 277 295c0 217 -143 300 -293 300c-24 0 -57 -4 -74 -9v-334h179c0 -20 -2 -36 -11 -50c-65 1 -107 1 -168 1v-110c0 -74 15 -93 90 -93z" />
    <glyph glyph-name="Ntilde" unicode="&#xd1;" horiz-adv-x="742" 
d="M225 735c-7 4 -10 11 -10 19c40 70 76 91 109 91c47 0 89 -41 133 -41c20 0 40 8 61 31c5 0 14 -2 19 -8c-34 -74 -66 -96 -97 -96c-44 0 -88 43 -138 43c-24 0 -49 -10 -77 -39zM606 676c28 0 68 1 95 3c0 -13 -1 -29 -5 -43c-44 0 -59 -33 -59 -142v-498
c-11 -4 -27 -5 -41 -5l-415 542v-346c0 -113 15 -147 69 -147c4 -12 5 -24 5 -43c-30 2 -70 3 -99 3s-75 -1 -100 -3c0 17 1 31 5 43c54 0 69 34 69 147v413l-4 5c-19 24 -32 28 -65 31c-4 14 -5 32 -5 43c20 -2 49 -3 74 -3s49 1 67 3l389 -516v331c0 109 -15 142 -69 142
c-4 23 -5 31 -5 43c29 -2 66 -3 94 -3z" />
    <glyph glyph-name="Ograve" unicode="&#xd2;" 
d="M359 753c-46 72 -85 124 -127 169c26 13 63 13 96 8c17 -57 39 -115 71 -175c-12 -6 -27 -4 -40 -2zM365 685c191 0 331 -140 331 -345c0 -197 -137 -349 -331 -349c-198 0 -330 150 -330 349c0 204 145 345 330 345zM385 40c130 0 208 121 208 274
c0 180 -106 323 -249 323c-118 0 -206 -108 -206 -270c0 -169 88 -327 247 -327z" />
    <glyph glyph-name="Oacute" unicode="&#xd3;" 
d="M401 927c29 10 54 13 74 12c12 -1 22 -4 29 -7c-44 -51 -93 -122 -132 -183c-12 -1 -26 1 -36 6c32 66 52 121 65 172zM365 685c191 0 331 -140 331 -345c0 -197 -137 -349 -331 -349c-198 0 -330 150 -330 349c0 204 145 345 330 345zM385 40c130 0 208 121 208 274
c0 180 -106 323 -249 323c-118 0 -206 -108 -206 -270c0 -169 88 -327 247 -327z" />
    <glyph glyph-name="Ocircumflex" unicode="&#xd4;" 
d="M365 923c11 3 24 4 32 4c36 -49 86 -109 146 -168c-6 -8 -18 -15 -30 -18c-43 30 -97 72 -140 95c-31 -16 -121 -76 -154 -101c-9 9 -11 29 -11 38c50 38 112 96 157 150zM365 685c191 0 331 -140 331 -345c0 -197 -137 -349 -331 -349c-198 0 -330 150 -330 349
c0 204 145 345 330 345zM385 40c130 0 208 121 208 274c0 180 -106 323 -249 323c-118 0 -206 -108 -206 -270c0 -169 88 -327 247 -327z" />
    <glyph glyph-name="Otilde" unicode="&#xd5;" 
d="M205 754c40 70 76 91 109 91c47 0 89 -41 133 -41c20 0 40 8 61 31c5 0 14 -2 19 -8c-34 -74 -66 -96 -97 -96c-44 0 -88 43 -138 43c-24 0 -49 -10 -77 -39c-7 4 -10 11 -10 19zM365 685c191 0 331 -140 331 -345c0 -197 -137 -349 -331 -349c-198 0 -330 150 -330 349
c0 204 145 345 330 345zM385 40c130 0 208 121 208 274c0 180 -106 323 -249 323c-118 0 -206 -108 -206 -270c0 -169 88 -327 247 -327z" />
    <glyph glyph-name="Odieresis" unicode="&#xd6;" 
d="M213 801c0 29 16 57 55 57c40 0 57 -24 57 -55s-24 -53 -55 -53c-34 0 -57 22 -57 51zM520 807c0 -28 -14 -56 -54 -56c-39 0 -59 23 -59 56c0 32 23 51 56 51s57 -21 57 -51zM365 685c191 0 331 -140 331 -345c0 -197 -137 -349 -331 -349c-198 0 -330 150 -330 349
c0 204 145 345 330 345zM385 40c130 0 208 121 208 274c0 180 -106 323 -249 323c-118 0 -206 -108 -206 -270c0 -169 88 -327 247 -327z" />
    <glyph glyph-name="multiply" unicode="&#xd7;" horiz-adv-x="642" 
d="M356 232l226 -217c-11 -15 -32 -24 -55 -24c-68 70 -137 138 -206 206c-67 -68 -134 -136 -200 -206c-21 0 -43 4 -55 19l221 219c-75 72 -150 144 -227 214c12 14 29 24 52 24l210 -202l204 202c21 -5 34 -12 47 -27c-73 -68 -145 -138 -217 -208z" />
    <glyph glyph-name="Oslash" unicode="&#xd8;" 
d="M655 685l-64 -85c66 -61 105 -151 105 -260c0 -197 -137 -349 -331 -349c-79 0 -147 24 -201 65l-66 -85c-19 0 -37 10 -44 22l75 94c-60 63 -94 152 -94 253c0 204 145 345 330 345c71 0 135 -19 187 -54l52 70c20 0 38 -3 51 -16zM344 637c-118 0 -206 -108 -206 -270
c0 -76 18 -149 52 -208l311 409c-42 43 -96 69 -157 69zM385 40c130 0 208 121 208 274c0 83 -23 158 -61 215l-314 -410c41 -49 97 -79 167 -79z" />
    <glyph glyph-name="Ugrave" unicode="&#xd9;" horiz-adv-x="675" 
d="M353 753c-46 72 -85 124 -127 169c26 13 63 13 96 8c17 -57 39 -115 71 -175c-12 -6 -27 -4 -40 -2zM570 509v-240c0 -115 -11 -175 -57 -221c-38 -38 -94 -57 -162 -57c-186 0 -245 85 -245 240v318c0 71 -10 81 -59 87c-4 14 -5 30 -5 43c27 -2 75 -3 116 -3
s86 1 116 3c0 -13 -1 -29 -5 -43c-59 -5 -69 -14 -69 -87v-304c0 -113 37 -201 170 -201c33 0 78 10 106 38c31 31 43 72 43 179v248c0 96 -10 122 -69 127c-4 20 -5 29 -5 43c23 -2 64 -3 94 -3s69 1 95 3c0 -9 -1 -21 -5 -43c-46 -5 -59 -30 -59 -127z" />
    <glyph glyph-name="Uacute" unicode="&#xda;" horiz-adv-x="675" 
d="M395 927c29 10 54 13 74 12c12 -1 22 -4 29 -7c-44 -51 -93 -122 -132 -183c-12 -1 -26 1 -36 6c32 66 52 121 65 172zM570 509v-240c0 -115 -11 -175 -57 -221c-38 -38 -94 -57 -162 -57c-186 0 -245 85 -245 240v318c0 71 -10 81 -59 87c-4 14 -5 30 -5 43
c27 -2 75 -3 116 -3s86 1 116 3c0 -13 -1 -29 -5 -43c-59 -5 -69 -14 -69 -87v-304c0 -113 37 -201 170 -201c33 0 78 10 106 38c31 31 43 72 43 179v248c0 96 -10 122 -69 127c-4 20 -5 29 -5 43c23 -2 64 -3 94 -3s69 1 95 3c0 -9 -1 -21 -5 -43c-46 -5 -59 -30 -59 -127z
" />
    <glyph glyph-name="Ucircumflex" unicode="&#xdb;" horiz-adv-x="675" 
d="M359 923c11 3 24 4 32 4c36 -49 86 -109 146 -168c-6 -8 -18 -15 -30 -18c-43 30 -97 72 -140 95c-31 -16 -121 -76 -154 -101c-9 9 -11 29 -11 38c50 38 112 96 157 150zM570 509v-240c0 -115 -11 -175 -57 -221c-38 -38 -94 -57 -162 -57c-186 0 -245 85 -245 240v318
c0 71 -10 81 -59 87c-4 14 -5 30 -5 43c27 -2 75 -3 116 -3s86 1 116 3c0 -13 -1 -29 -5 -43c-59 -5 -69 -14 -69 -87v-304c0 -113 37 -201 170 -201c33 0 78 10 106 38c31 31 43 72 43 179v248c0 96 -10 122 -69 127c-4 20 -5 29 -5 43c23 -2 64 -3 94 -3s69 1 95 3
c0 -9 -1 -21 -5 -43c-46 -5 -59 -30 -59 -127z" />
    <glyph glyph-name="Udieresis" unicode="&#xdc;" horiz-adv-x="675" 
d="M207 801c0 29 16 57 55 57c40 0 57 -24 57 -55s-24 -53 -55 -53c-34 0 -57 22 -57 51zM514 807c0 -28 -14 -56 -54 -56c-39 0 -59 23 -59 56c0 32 23 51 56 51s57 -21 57 -51zM570 509v-240c0 -115 -11 -175 -57 -221c-38 -38 -94 -57 -162 -57c-186 0 -245 85 -245 240
v318c0 71 -10 81 -59 87c-4 14 -5 30 -5 43c27 -2 75 -3 116 -3s86 1 116 3c0 -13 -1 -29 -5 -43c-59 -5 -69 -14 -69 -87v-304c0 -113 37 -201 170 -201c33 0 78 10 106 38c31 31 43 72 43 179v248c0 96 -10 122 -69 127c-4 20 -5 29 -5 43c23 -2 64 -3 94 -3s69 1 95 3
c0 -9 -1 -21 -5 -43c-46 -5 -59 -30 -59 -127z" />
    <glyph glyph-name="Yacute" unicode="&#xdd;" horiz-adv-x="630" 
d="M348 749c-12 -1 -26 1 -36 6c32 66 52 121 65 172c29 10 54 13 74 12c12 -1 22 -4 29 -7c-44 -51 -93 -122 -132 -183zM519 676c30 0 63 1 86 2c0 -14 -1 -25 -4 -39c-36 -10 -67 -40 -101 -108l-135 -271v-97c0 -106 9 -114 77 -123c4 -12 6 -27 6 -43
c-44 1 -90 3 -127 3c-44 0 -108 -1 -136 -2c0 14 2 30 6 42c71 6 80 16 80 110v109l-166 319c-21 41 -37 57 -74 59c-5 15 -6 27 -6 41c28 -1 66 -2 104 -2s103 0 134 2c0 -15 -1 -25 -5 -39c-52 -5 -58 -25 -28 -82c35 -67 77 -153 117 -243c41 91 78 168 108 228
c36 70 26 87 -27 95c-4 14 -7 26 -7 41c24 -2 68 -2 98 -2z" />
    <glyph glyph-name="Thorn" unicode="&#xde;" horiz-adv-x="587" 
d="M340 540c147 0 212 -84 212 -186c0 -95 -76 -203 -227 -203c-28 0 -52 4 -70 10c-3 10 -2 24 1 33c17 -4 34 -5 55 -5c74 0 146 28 146 144c0 99 -52 169 -171 169c-20 0 -34 -1 -62 -7v-368c0 -67 16 -84 69 -87c4 -11 5 -25 5 -43c-40 2 -82 3 -121 3s-87 -1 -121 -3
c0 18 1 32 5 43c53 3 69 20 69 87v422c0 67 -16 84 -69 87c-4 11 -5 25 -5 43c37 -2 78 -3 121 -3s81 1 121 3c0 -18 -1 -32 -5 -43c-53 -3 -69 -20 -69 -87v-10c36 0 80 1 116 1z" />
    <glyph glyph-name="germandbls" unicode="&#xdf;" horiz-adv-x="598" 
d="M116 127v265c-16 7 -56 12 -80 12c0 12 4 31 14 44h66v40c0 156 120 227 214 227c97 0 146 -64 146 -135c0 -122 -114 -130 -114 -199c0 -104 196 -85 196 -248c0 -74 -70 -140 -148 -140c-62 0 -90 11 -128 38c3 31 3 73 1 107c9 6 31 11 47 11c8 -86 27 -121 86 -121
c35 0 65 34 65 85c0 109 -199 93 -199 232c0 112 134 113 134 205c0 58 -51 110 -119 110c-61 0 -91 -31 -91 -141v-521c-17 1 -41 2 -76 2s-67 -1 -88 -3c0 18 1 32 5 43c53 3 69 20 69 87z" />
    <glyph glyph-name="agrave" unicode="&#xe0;" horiz-adv-x="498" 
d="M272 537c-12 -6 -27 -4 -40 -2c-46 72 -85 124 -127 169c26 13 63 13 96 8c17 -57 39 -115 71 -175zM396 256v-120c0 -47 7 -68 62 -68c0 -14 -1 -32 -6 -46c-33 -2 -83 -14 -114 -31c-14 6 -25 13 -25 55c0 9 1 19 2 28c-7 -17 -18 -33 -34 -47
c-23 -20 -56 -34 -104 -34c-81 0 -127 40 -127 106c0 130 174 157 256 169c0 82 -4 103 -21 124c-16 20 -37 30 -62 30c-67 0 -86 -74 -88 -116c-15 0 -42 2 -52 7c3 33 1 79 -5 109c54 28 119 45 170 45c49 0 84 -16 106 -38c34 -34 42 -84 42 -173zM306 189v38
c-68 -9 -159 -21 -159 -108c0 -49 28 -71 59 -71c43 0 100 40 100 141z" />
    <glyph glyph-name="aacute" unicode="&#xe1;" horiz-adv-x="498" 
d="M245 531c-12 -1 -26 1 -36 6c32 66 52 121 65 172c29 10 54 13 74 12c12 -1 22 -4 29 -7c-44 -51 -93 -122 -132 -183zM396 256v-120c0 -47 7 -68 62 -68c0 -14 -1 -32 -6 -46c-33 -2 -83 -14 -114 -31c-14 6 -25 13 -25 55c0 9 1 19 2 28c-7 -17 -18 -33 -34 -47
c-23 -20 -56 -34 -104 -34c-81 0 -127 40 -127 106c0 130 174 157 256 169c0 82 -4 103 -21 124c-16 20 -37 30 -62 30c-67 0 -86 -74 -88 -116c-15 0 -42 2 -52 7c3 33 1 79 -5 109c54 28 119 45 170 45c49 0 84 -16 106 -38c34 -34 42 -84 42 -173zM306 189v38
c-68 -9 -159 -21 -159 -108c0 -49 28 -71 59 -71c43 0 100 40 100 141z" />
    <glyph glyph-name="acircumflex" unicode="&#xe2;" horiz-adv-x="498" 
d="M246 618c-31 -16 -121 -76 -154 -101c-9 9 -11 29 -11 38c50 38 112 96 157 150c11 3 24 4 32 4c36 -49 86 -109 146 -168c-6 -8 -18 -15 -30 -18c-43 30 -97 72 -140 95zM396 256v-120c0 -47 7 -68 62 -68c0 -14 -1 -32 -6 -46c-33 -2 -83 -14 -114 -31
c-14 6 -25 13 -25 55c0 9 1 19 2 28c-7 -17 -18 -33 -34 -47c-23 -20 -56 -34 -104 -34c-81 0 -127 40 -127 106c0 130 174 157 256 169c0 82 -4 103 -21 124c-16 20 -37 30 -62 30c-67 0 -86 -74 -88 -116c-15 0 -42 2 -52 7c3 33 1 79 -5 109c54 28 119 45 170 45
c49 0 84 -16 106 -38c34 -34 42 -84 42 -173zM306 189v38c-68 -9 -159 -21 -159 -108c0 -49 28 -71 59 -71c43 0 100 40 100 141z" />
    <glyph glyph-name="atilde" unicode="&#xe3;" horiz-adv-x="498" 
d="M88 517c-7 4 -10 11 -10 19c40 70 76 91 109 91c47 0 89 -41 133 -41c20 0 40 8 61 31c5 0 14 -2 19 -8c-34 -74 -66 -96 -97 -96c-44 0 -88 43 -138 43c-24 0 -49 -10 -77 -39zM396 256v-120c0 -47 7 -68 62 -68c0 -14 -1 -32 -6 -46c-33 -2 -83 -14 -114 -31
c-14 6 -25 13 -25 55c0 9 1 19 2 28c-7 -17 -18 -33 -34 -47c-23 -20 -56 -34 -104 -34c-81 0 -127 40 -127 106c0 130 174 157 256 169c0 82 -4 103 -21 124c-16 20 -37 30 -62 30c-67 0 -86 -74 -88 -116c-15 0 -42 2 -52 7c3 33 1 79 -5 109c54 28 119 45 170 45
c49 0 84 -16 106 -38c34 -34 42 -84 42 -173zM306 189v38c-68 -9 -159 -21 -159 -108c0 -49 28 -71 59 -71c43 0 100 40 100 141z" />
    <glyph glyph-name="adieresis" unicode="&#xe4;" horiz-adv-x="498" 
d="M143 532c-34 0 -57 22 -57 51s16 57 55 57c40 0 57 -24 57 -55s-24 -53 -55 -53zM339 533c-39 0 -59 23 -59 56c0 32 23 51 56 51s57 -21 57 -51c0 -28 -14 -56 -54 -56zM396 256v-120c0 -47 7 -68 62 -68c0 -14 -1 -32 -6 -46c-33 -2 -83 -14 -114 -31
c-14 6 -25 13 -25 55c0 9 1 19 2 28c-7 -17 -18 -33 -34 -47c-23 -20 -56 -34 -104 -34c-81 0 -127 40 -127 106c0 130 174 157 256 169c0 82 -4 103 -21 124c-16 20 -37 30 -62 30c-67 0 -86 -74 -88 -116c-15 0 -42 2 -52 7c3 33 1 79 -5 109c54 28 119 45 170 45
c49 0 84 -16 106 -38c34 -34 42 -84 42 -173zM306 189v38c-68 -9 -159 -21 -159 -108c0 -49 28 -71 59 -71c43 0 100 40 100 141z" />
    <glyph glyph-name="aring" unicode="&#xe5;" horiz-adv-x="498" 
d="M234 526c-51 0 -97 34 -97 88c0 53 46 94 104 94c49 0 98 -27 98 -87c0 -54 -46 -95 -105 -95zM234 674c-25 0 -42 -21 -42 -56c0 -31 19 -55 52 -55c21 0 41 18 41 48c0 28 -16 63 -51 63zM396 256v-120c0 -47 7 -68 62 -68c0 -14 -1 -32 -6 -46
c-33 -2 -83 -14 -114 -31c-14 6 -25 13 -25 55c0 9 1 19 2 28c-7 -17 -18 -33 -34 -47c-23 -20 -56 -34 -104 -34c-81 0 -127 40 -127 106c0 130 174 157 256 169c0 82 -4 103 -21 124c-16 20 -37 30 -62 30c-67 0 -86 -74 -88 -116c-15 0 -42 2 -52 7c3 33 1 79 -5 109
c54 28 119 45 170 45c49 0 84 -16 106 -38c34 -34 42 -84 42 -173zM306 189v38c-68 -9 -159 -21 -159 -108c0 -49 28 -71 59 -71c43 0 100 40 100 141z" />
    <glyph glyph-name="ae" unicode="&#xe6;" horiz-adv-x="684" 
d="M624 108c9 -6 22 -20 25 -30c-44 -60 -101 -84 -170 -84c-82 0 -135 48 -164 108c-14 -63 -69 -108 -155 -108c-76 0 -122 37 -122 106c0 126 154 156 251 168v53c0 68 -40 101 -84 101c-63 0 -79 -64 -86 -116c-14 0 -43 2 -52 7c3 33 1 79 -5 109c55 26 107 45 175 45
c47 0 86 -19 113 -63c37 46 87 63 135 63c105 0 157 -99 162 -184c-2 -13 -7 -28 -16 -38c-91 -2 -173 -6 -249 -13v-2c0 -80 31 -183 119 -183c65 0 101 31 123 61zM460 422c-53 0 -78 -54 -78 -135v-10c50 6 105 9 168 11c0 56 -21 134 -90 134zM197 47c53 0 92 50 92 171
v5c-105 -10 -158 -38 -158 -106c0 -57 38 -70 66 -70z" />
    <glyph glyph-name="ccedilla" unicode="&#xe7;" horiz-adv-x="447" 
d="M412 78c-31 -50 -75 -79 -136 -86l-31 -42c53 -9 87 -43 87 -91c0 -66 -76 -101 -128 -101c-5 9 -7 22 -7 32c40 0 79 20 79 55c0 33 -28 54 -65 54c-10 8 -18 21 -18 38l35 55c-96 10 -188 88 -188 235c0 120 73 240 208 240c61 0 113 -15 151 -45
c-6 -39 -7 -76 -7 -114c-11 -6 -32 -8 -46 -8c-8 77 -48 120 -106 120c-66 0 -107 -64 -107 -178c0 -100 50 -194 143 -194c43 0 82 20 111 58c10 -5 21 -16 25 -28z" />
    <glyph glyph-name="egrave" unicode="&#xe8;" horiz-adv-x="474" 
d="M276 537c-12 -6 -27 -4 -40 -2c-46 72 -85 124 -127 169c26 13 63 13 96 8c17 -57 39 -115 71 -175zM406 105c11 -6 22 -20 24 -31c-46 -60 -105 -83 -178 -83c-142 0 -212 107 -212 238c0 128 79 238 207 238c130 0 179 -93 187 -207c-3 -14 -8 -25 -15 -34
c-42 0 -176 0 -280 -5c6 -89 40 -174 145 -174c44 0 89 20 122 58zM238 419c-47 0 -95 -32 -100 -148h192c0 88 -34 148 -92 148z" />
    <glyph glyph-name="eacute" unicode="&#xe9;" horiz-adv-x="474" 
d="M249 531c-12 -1 -26 1 -36 6c32 66 52 121 65 172c29 10 54 13 74 12c12 -1 22 -4 29 -7c-44 -51 -93 -122 -132 -183zM406 105c11 -6 22 -20 24 -31c-46 -60 -105 -83 -178 -83c-142 0 -212 107 -212 238c0 128 79 238 207 238c130 0 179 -93 187 -207
c-3 -14 -8 -25 -15 -34c-42 0 -176 0 -280 -5c6 -89 40 -174 145 -174c44 0 89 20 122 58zM238 419c-47 0 -95 -32 -100 -148h192c0 88 -34 148 -92 148z" />
    <glyph glyph-name="ecircumflex" unicode="&#xea;" horiz-adv-x="474" 
d="M250 618c-31 -16 -121 -76 -154 -101c-9 9 -11 29 -11 38c50 38 112 96 157 150c11 3 24 4 32 4c36 -49 86 -109 146 -168c-6 -8 -18 -15 -30 -18c-43 30 -97 72 -140 95zM406 105c11 -6 22 -20 24 -31c-46 -60 -105 -83 -178 -83c-142 0 -212 107 -212 238
c0 128 79 238 207 238c130 0 179 -93 187 -207c-3 -14 -8 -25 -15 -34c-42 0 -176 0 -280 -5c6 -89 40 -174 145 -174c44 0 89 20 122 58zM238 419c-47 0 -95 -32 -100 -148h192c0 88 -34 148 -92 148z" />
    <glyph glyph-name="edieresis" unicode="&#xeb;" horiz-adv-x="474" 
d="M147 532c-34 0 -57 22 -57 51s16 57 55 57c40 0 57 -24 57 -55s-24 -53 -55 -53zM343 533c-39 0 -59 23 -59 56c0 32 23 51 56 51s57 -21 57 -51c0 -28 -14 -56 -54 -56zM406 105c11 -6 22 -20 24 -31c-46 -60 -105 -83 -178 -83c-142 0 -212 107 -212 238
c0 128 79 238 207 238c130 0 179 -93 187 -207c-3 -14 -8 -25 -15 -34c-42 0 -176 0 -280 -5c6 -89 40 -174 145 -174c44 0 89 20 122 58zM238 419c-47 0 -95 -32 -100 -148h192c0 88 -34 148 -92 148z" />
    <glyph glyph-name="igrave" unicode="&#xec;" horiz-adv-x="302" 
d="M149 535c-46 72 -85 124 -127 169c26 13 63 13 96 8c17 -57 39 -115 71 -175c-12 -6 -27 -4 -40 -2zM201 427v-300c0 -67 16 -87 59 -87c4 -14 5 -34 5 -43c-35 2 -75 3 -113 3s-82 -1 -115 -3c0 13 1 30 5 43c53 0 69 20 69 87v198c0 47 -7 71 -75 71c0 15 2 26 9 37
c30 0 110 17 134 34c12 -4 22 -15 22 -40z" />
    <glyph glyph-name="iacute" unicode="&#xed;" horiz-adv-x="302" 
d="M191 709c29 10 54 13 74 12c12 -1 22 -4 29 -7c-44 -51 -93 -122 -132 -183c-12 -1 -26 1 -36 6c32 66 52 121 65 172zM201 427v-300c0 -67 16 -87 59 -87c4 -14 5 -34 5 -43c-35 2 -75 3 -113 3s-82 -1 -115 -3c0 13 1 30 5 43c53 0 69 20 69 87v198c0 47 -7 71 -75 71
c0 15 2 26 9 37c30 0 110 17 134 34c12 -4 22 -15 22 -40z" />
    <glyph glyph-name="icircumflex" unicode="&#xee;" horiz-adv-x="302" 
d="M155 705c11 3 24 4 32 4c36 -49 86 -109 146 -168c-6 -8 -18 -15 -30 -18c-43 30 -97 72 -140 95c-31 -16 -121 -76 -154 -101c-9 9 -11 29 -11 38c50 38 112 96 157 150zM201 427v-300c0 -67 16 -87 59 -87c4 -14 5 -34 5 -43c-35 2 -75 3 -113 3s-82 -1 -115 -3
c0 13 1 30 5 43c53 0 69 20 69 87v198c0 47 -7 71 -75 71c0 15 2 26 9 37c30 0 110 17 134 34c12 -4 22 -15 22 -40z" />
    <glyph glyph-name="idieresis" unicode="&#xef;" horiz-adv-x="302" 
d="M3 583c0 29 16 57 55 57c40 0 57 -24 57 -55s-24 -53 -55 -53c-34 0 -57 22 -57 51zM310 589c0 -28 -14 -56 -54 -56c-39 0 -59 23 -59 56c0 32 23 51 56 51s57 -21 57 -51zM201 427v-300c0 -67 16 -87 59 -87c4 -14 5 -34 5 -43c-35 2 -75 3 -113 3s-82 -1 -115 -3
c0 13 1 30 5 43c53 0 69 20 69 87v198c0 47 -7 71 -75 71c0 15 2 26 9 37c30 0 110 17 134 34c12 -4 22 -15 22 -40z" />
    <glyph glyph-name="eth" unicode="&#xf0;" horiz-adv-x="527" 
d="M383 629l-76 -41c105 -68 180 -177 180 -333c0 -181 -100 -263 -241 -263c-147 0 -206 89 -206 211c0 178 125 234 224 234c40 0 71 -9 97 -29c-24 60 -63 106 -117 145l-109 -63c-8 14 -16 40 -15 50l77 43c-33 19 -71 36 -113 52c0 14 4 25 11 34
c56 -10 112 -27 162 -52l112 62c9 -18 15 -33 14 -50zM257 48c59 0 129 48 129 211c0 32 -3 61 -8 88c-27 26 -67 44 -114 44c-73 0 -128 -44 -128 -163c0 -120 56 -180 121 -180z" />
    <glyph glyph-name="ntilde" unicode="&#xf1;" horiz-adv-x="597" 
d="M149 517c-7 4 -10 11 -10 19c40 70 76 91 109 91c47 0 89 -41 133 -41c20 0 40 8 61 31c5 0 14 -2 19 -8c-34 -74 -66 -96 -97 -96c-44 0 -88 43 -138 43c-24 0 -49 -10 -77 -39zM556 40c4 -12 5 -25 5 -43c-29 2 -68 3 -109 3s-88 -2 -119 -3c0 18 1 32 5 43
c48 0 69 20 69 87v152c0 94 -39 122 -93 122c-52 0 -113 -45 -113 -167v-107c0 -67 17 -87 69 -87c4 -12 5 -25 5 -43c-28 1 -78 3 -119 3s-90 -1 -119 -3c0 18 1 32 5 43c52 0 69 20 69 87v198c0 47 -9 69 -75 71c0 15 2 26 9 37c41 3 103 18 134 34c12 -4 22 -15 22 -44
c0 -16 -1 -36 -7 -59c4 7 7 15 15 26c22 31 74 72 145 72c76 0 143 -41 143 -163v-172c0 -69 19 -87 59 -87z" />
    <glyph glyph-name="ograve" unicode="&#xf2;" horiz-adv-x="532" 
d="M254 535c-46 72 -85 124 -127 169c26 13 63 13 96 8c17 -57 39 -115 71 -175c-12 -6 -27 -4 -40 -2zM266 467c142 0 226 -96 226 -238c0 -137 -91 -238 -226 -238c-137 0 -226 94 -226 238c0 136 93 238 226 238zM256 419c-77 0 -115 -69 -115 -169
c0 -135 52 -211 133 -211c80 0 118 73 118 178c0 124 -62 202 -136 202z" />
    <glyph glyph-name="oacute" unicode="&#xf3;" horiz-adv-x="532" 
d="M296 709c29 10 54 13 74 12c12 -1 22 -4 29 -7c-44 -51 -93 -122 -132 -183c-12 -1 -26 1 -36 6c32 66 52 121 65 172zM266 467c142 0 226 -96 226 -238c0 -137 -91 -238 -226 -238c-137 0 -226 94 -226 238c0 136 93 238 226 238zM256 419c-77 0 -115 -69 -115 -169
c0 -135 52 -211 133 -211c80 0 118 73 118 178c0 124 -62 202 -136 202z" />
    <glyph glyph-name="ocircumflex" unicode="&#xf4;" horiz-adv-x="532" 
d="M260 705c11 3 24 4 32 4c36 -49 86 -109 146 -168c-6 -8 -18 -15 -30 -18c-43 30 -97 72 -140 95c-31 -16 -121 -76 -154 -101c-9 9 -11 29 -11 38c50 38 112 96 157 150zM266 467c142 0 226 -96 226 -238c0 -137 -91 -238 -226 -238c-137 0 -226 94 -226 238
c0 136 93 238 226 238zM256 419c-77 0 -115 -69 -115 -169c0 -135 52 -211 133 -211c80 0 118 73 118 178c0 124 -62 202 -136 202z" />
    <glyph glyph-name="otilde" unicode="&#xf5;" horiz-adv-x="532" 
d="M100 536c40 70 76 91 109 91c47 0 89 -41 133 -41c20 0 40 8 61 31c5 0 14 -2 19 -8c-34 -74 -66 -96 -97 -96c-44 0 -88 43 -138 43c-24 0 -49 -10 -77 -39c-7 4 -10 11 -10 19zM266 467c142 0 226 -96 226 -238c0 -137 -91 -238 -226 -238c-137 0 -226 94 -226 238
c0 136 93 238 226 238zM256 419c-77 0 -115 -69 -115 -169c0 -135 52 -211 133 -211c80 0 118 73 118 178c0 124 -62 202 -136 202z" />
    <glyph glyph-name="odieresis" unicode="&#xf6;" horiz-adv-x="532" 
d="M108 583c0 29 16 57 55 57c40 0 57 -24 57 -55s-24 -53 -55 -53c-34 0 -57 22 -57 51zM415 589c0 -28 -14 -56 -54 -56c-39 0 -59 23 -59 56c0 32 23 51 56 51s57 -21 57 -51zM266 467c142 0 226 -96 226 -238c0 -137 -91 -238 -226 -238c-137 0 -226 94 -226 238
c0 136 93 238 226 238zM256 419c-77 0 -115 -69 -115 -169c0 -135 52 -211 133 -211c80 0 118 73 118 178c0 124 -62 202 -136 202z" />
    <glyph glyph-name="divide" unicode="&#xf7;" horiz-adv-x="605" 
d="M355 423c0 -31 -12 -55 -48 -55c-38 0 -55 22 -55 55c0 29 24 43 52 43s51 -16 51 -43zM70 287h475c0 -20 -1 -36 -10 -50c-111 1 -135 1 -222 1c-88 0 -162 -1 -253 -2c0 15 4 42 10 51zM257 109c0 27 14 49 50 49c37 0 52 -19 52 -49c0 -29 -23 -48 -50 -48
c-30 0 -52 21 -52 48z" />
    <glyph glyph-name="oslash" unicode="&#xf8;" horiz-adv-x="532" 
d="M472 458l-42 -54c40 -42 62 -103 62 -175c0 -137 -91 -238 -226 -238c-52 0 -97 13 -132 38l-54 -68c-19 0 -37 10 -44 22l62 77c-37 41 -58 99 -58 169c0 136 93 238 226 238c49 0 91 -11 125 -32l37 47c21 -3 31 -8 44 -24zM256 419c-77 0 -115 -69 -115 -169
c0 -45 6 -84 17 -115l186 240c-24 28 -55 44 -88 44zM274 39c80 0 118 73 118 178c0 44 -8 83 -21 114l-190 -243c23 -32 55 -49 93 -49z" />
    <glyph glyph-name="ugrave" unicode="&#xf9;" horiz-adv-x="559" 
d="M296 537c-12 -6 -27 -4 -40 -2c-46 72 -85 124 -127 169c26 13 63 13 96 8c17 -57 39 -115 71 -175zM462 423v-287c0 -47 7 -68 62 -68c0 -14 -1 -32 -6 -46c-33 -2 -83 -14 -114 -31c-14 6 -25 12 -25 58c0 9 0 22 3 42c-7 -16 -18 -30 -32 -44
c-35 -35 -71 -51 -125 -51c-90 0 -143 45 -143 178v151c0 47 -5 69 -66 71c0 15 1 25 7 37c41 3 96 18 127 34c12 -4 22 -15 22 -44v-227c0 -90 21 -139 83 -139c66 0 117 55 117 171v102c0 47 -9 69 -75 71c0 15 0 25 7 37c52 3 106 15 136 29c12 -4 22 -15 22 -44z" />
    <glyph glyph-name="uacute" unicode="&#xfa;" horiz-adv-x="559" 
d="M269 531c-12 -1 -26 1 -36 6c32 66 52 121 65 172c29 10 54 13 74 12c12 -1 22 -4 29 -7c-44 -51 -93 -122 -132 -183zM462 423v-287c0 -47 7 -68 62 -68c0 -14 -1 -32 -6 -46c-33 -2 -83 -14 -114 -31c-14 6 -25 12 -25 58c0 9 0 22 3 42c-7 -16 -18 -30 -32 -44
c-35 -35 -71 -51 -125 -51c-90 0 -143 45 -143 178v151c0 47 -5 69 -66 71c0 15 1 25 7 37c41 3 96 18 127 34c12 -4 22 -15 22 -44v-227c0 -90 21 -139 83 -139c66 0 117 55 117 171v102c0 47 -9 69 -75 71c0 15 0 25 7 37c52 3 106 15 136 29c12 -4 22 -15 22 -44z" />
    <glyph glyph-name="ucircumflex" unicode="&#xfb;" horiz-adv-x="559" 
d="M270 618c-31 -16 -121 -76 -154 -101c-9 9 -11 29 -11 38c50 38 112 96 157 150c11 3 24 4 32 4c36 -49 86 -109 146 -168c-6 -8 -18 -15 -30 -18c-43 30 -97 72 -140 95zM462 423v-287c0 -47 7 -68 62 -68c0 -14 -1 -32 -6 -46c-33 -2 -83 -14 -114 -31
c-14 6 -25 12 -25 58c0 9 0 22 3 42c-7 -16 -18 -30 -32 -44c-35 -35 -71 -51 -125 -51c-90 0 -143 45 -143 178v151c0 47 -5 69 -66 71c0 15 1 25 7 37c41 3 96 18 127 34c12 -4 22 -15 22 -44v-227c0 -90 21 -139 83 -139c66 0 117 55 117 171v102c0 47 -9 69 -75 71
c0 15 0 25 7 37c52 3 106 15 136 29c12 -4 22 -15 22 -44z" />
    <glyph glyph-name="udieresis" unicode="&#xfc;" horiz-adv-x="559" 
d="M167 532c-34 0 -57 22 -57 51s16 57 55 57c40 0 57 -24 57 -55s-24 -53 -55 -53zM363 533c-39 0 -59 23 -59 56c0 32 23 51 56 51s57 -21 57 -51c0 -28 -14 -56 -54 -56zM462 423v-287c0 -47 7 -68 62 -68c0 -14 -1 -32 -6 -46c-33 -2 -83 -14 -114 -31
c-14 6 -25 12 -25 58c0 9 0 22 3 42c-7 -16 -18 -30 -32 -44c-35 -35 -71 -51 -125 -51c-90 0 -143 45 -143 178v151c0 47 -5 69 -66 71c0 15 1 25 7 37c41 3 96 18 127 34c12 -4 22 -15 22 -44v-227c0 -90 21 -139 83 -139c66 0 117 55 117 171v102c0 47 -9 69 -75 71
c0 15 0 25 7 37c52 3 106 15 136 29c12 -4 22 -15 22 -44z" />
    <glyph glyph-name="yacute" unicode="&#xfd;" horiz-adv-x="541" 
d="M300 531c-12 -1 -26 1 -36 6c32 66 52 121 65 172c29 10 54 13 74 12c12 -1 22 -4 29 -7c-44 -51 -93 -122 -132 -183zM426 458c37 0 70 0 100 2c0 -13 0 -29 -6 -43c-37 -9 -49 -28 -81 -104l-147 -350c-76 -182 -113 -212 -174 -212c-40 0 -62 13 -75 23
c-5 20 -3 56 1 73c23 -4 44 -6 64 -6c39 0 75 17 101 59c10 15 27 49 46 93c-46 104 -103 229 -136 301c-47 100 -64 116 -98 123c-4 12 -6 27 -6 43c38 -1 78 -2 113 -2s92 1 133 2c0 -17 -2 -31 -7 -43c-72 -12 -79 -35 -43 -110c26 -53 65 -145 90 -206l9 23l69 174
c34 85 14 108 -45 119c-5 14 -7 28 -7 43c31 -2 62 -2 99 -2z" />
    <glyph glyph-name="thorn" unicode="&#xfe;" horiz-adv-x="572" 
d="M283 -9c-33 0 -56 5 -83 14v-100c0 -87 26 -104 89 -107c4 -11 5 -25 5 -43c-31 2 -79 3 -126 3s-106 -1 -132 -3c0 18 1 32 5 43c53 3 69 20 69 87v690c0 47 -7 71 -75 71c0 15 2 26 9 37c30 0 110 17 134 34c12 -4 22 -15 22 -40v-261c0 -18 -2 -31 -4 -43
c5 9 9 15 12 20c18 30 70 74 137 74c117 0 187 -68 187 -213c0 -149 -99 -263 -249 -263zM321 404c-59 0 -121 -51 -121 -191v-141c23 -21 49 -35 88 -35c55 0 145 36 145 195c0 105 -48 172 -112 172z" />
    <glyph glyph-name="ydieresis" unicode="&#xff;" horiz-adv-x="541" 
d="M198 532c-34 0 -57 22 -57 51s16 57 55 57c40 0 57 -24 57 -55s-24 -53 -55 -53zM394 533c-39 0 -59 23 -59 56c0 32 23 51 56 51s57 -21 57 -51c0 -28 -14 -56 -54 -56zM426 458c37 0 70 0 100 2c0 -13 0 -29 -6 -43c-37 -9 -49 -28 -81 -104l-147 -350
c-76 -182 -113 -212 -174 -212c-40 0 -62 13 -75 23c-5 20 -3 56 1 73c23 -4 44 -6 64 -6c39 0 75 17 101 59c10 15 27 49 46 93c-46 104 -103 229 -136 301c-47 100 -64 116 -98 123c-4 12 -6 27 -6 43c38 -1 78 -2 113 -2s92 1 133 2c0 -17 -2 -31 -7 -43
c-72 -12 -79 -35 -43 -110c26 -53 65 -145 90 -206l9 23l69 174c34 85 14 108 -45 119c-5 14 -7 28 -7 43c31 -2 62 -2 99 -2z" />
    <glyph glyph-name="Amacron" unicode="&#x100;" horiz-adv-x="704" 
d="M166 849h355c0 -14 -3 -28 -9 -43c-32 0 -184 0 -355 -3c0 8 3 34 9 46zM673 40c5 -17 6 -27 6 -43c-20 1 -82 3 -114 3s-93 -2 -113 -3c0 16 1 31 7 43c55 6 62 17 36 78l-44 102c-84 0 -185 -1 -264 -4l-27 -69c-30 -79 -19 -103 36 -107c5 -12 7 -27 7 -43
c-23 2 -62 3 -95 3s-64 -2 -83 -3c0 13 2 30 7 42c36 7 49 29 80 108l207 531c13 3 23 4 39 4l238 -546c33 -75 46 -91 77 -96zM432 265l-76 178c-17 39 -28 63 -45 109c-14 -47 -26 -78 -37 -108l-69 -179h227z" />
    <glyph glyph-name="amacron" unicode="&#x101;" horiz-adv-x="498" 
d="M66 631h355c0 -14 -3 -28 -9 -43c-32 0 -184 0 -355 -3c0 8 3 34 9 46zM396 256v-120c0 -47 7 -68 62 -68c0 -14 -1 -32 -6 -46c-33 -2 -83 -14 -114 -31c-14 6 -25 13 -25 55c0 9 1 19 2 28c-7 -17 -18 -33 -34 -47c-23 -20 -56 -34 -104 -34c-81 0 -127 40 -127 106
c0 130 174 157 256 169c0 82 -4 103 -21 124c-16 20 -37 30 -62 30c-67 0 -86 -74 -88 -116c-15 0 -42 2 -52 7c3 33 1 79 -5 109c54 28 119 45 170 45c49 0 84 -16 106 -38c34 -34 42 -84 42 -173zM306 189v38c-68 -9 -159 -21 -159 -108c0 -49 28 -71 59 -71
c43 0 100 40 100 141z" />
    <glyph glyph-name="Abreve" unicode="&#x102;" horiz-adv-x="704" 
d="M334 745c-105 0 -165 60 -165 165c12 7 27 11 40 11c10 -68 62 -111 135 -111s121 43 125 111c14 0 27 -2 33 -6c0 -108 -61 -170 -168 -170zM673 40c5 -17 6 -27 6 -43c-20 1 -82 3 -114 3s-93 -2 -113 -3c0 16 1 31 7 43c55 6 62 17 36 78l-44 102
c-84 0 -185 -1 -264 -4l-27 -69c-30 -79 -19 -103 36 -107c5 -12 7 -27 7 -43c-23 2 -62 3 -95 3s-64 -2 -83 -3c0 13 2 30 7 42c36 7 49 29 80 108l207 531c13 3 23 4 39 4l238 -546c33 -75 46 -91 77 -96zM432 265l-76 178c-17 39 -28 63 -45 109
c-14 -47 -26 -78 -37 -108l-69 -179h227z" />
    <glyph glyph-name="abreve" unicode="&#x103;" horiz-adv-x="498" 
d="M234 527c-105 0 -165 60 -165 165c12 7 27 11 40 11c10 -68 62 -111 135 -111s121 43 125 111c14 0 27 -2 33 -6c0 -108 -61 -170 -168 -170zM396 256v-120c0 -47 7 -68 62 -68c0 -14 -1 -32 -6 -46c-33 -2 -83 -14 -114 -31c-14 6 -25 13 -25 55c0 9 1 19 2 28
c-7 -17 -18 -33 -34 -47c-23 -20 -56 -34 -104 -34c-81 0 -127 40 -127 106c0 130 174 157 256 169c0 82 -4 103 -21 124c-16 20 -37 30 -62 30c-67 0 -86 -74 -88 -116c-15 0 -42 2 -52 7c3 33 1 79 -5 109c54 28 119 45 170 45c49 0 84 -16 106 -38c34 -34 42 -84 42 -173
zM306 189v38c-68 -9 -159 -21 -159 -108c0 -49 28 -71 59 -71c43 0 100 40 100 141z" />
    <glyph glyph-name="Aogonek" unicode="&#x104;" horiz-adv-x="704" 
d="M561 -163c12 0 27 2 42 8c6 -11 8 -23 7 -39c-26 -13 -50 -30 -74 -53c-6 -2 -12 -2 -19 -2c-32 0 -97 19 -97 97c0 53 28 102 112 152c-31 -1 -66 -2 -80 -3c0 16 1 31 7 43c55 6 62 17 36 78l-44 102c-84 0 -185 -1 -264 -4l-27 -69c-30 -79 -19 -103 36 -107
c5 -12 7 -27 7 -43c-23 2 -62 3 -95 3s-64 -2 -83 -3c0 13 2 30 7 42c36 7 49 29 80 108l207 531c13 3 23 4 39 4l238 -546c33 -75 46 -91 77 -96c5 -17 6 -27 6 -43c-14 1 -48 2 -78 3c-70 -27 -103 -69 -103 -109c0 -33 23 -54 63 -54zM432 265l-76 178
c-17 39 -28 63 -45 109c-14 -47 -26 -78 -37 -108l-69 -179h227z" />
    <glyph glyph-name="aogonek" unicode="&#x105;" horiz-adv-x="498" 
d="M452 22c-73 -25 -115 -72 -115 -126c0 -48 33 -59 62 -59c13 0 28 2 43 8c6 -11 8 -23 7 -39c-26 -13 -50 -30 -74 -53c-6 -2 -12 -2 -19 -2c-45 0 -97 28 -97 104c0 45 18 92 78 136c-14 6 -24 14 -24 55c0 9 1 19 2 28c-7 -17 -18 -33 -34 -47
c-23 -20 -56 -34 -104 -34c-81 0 -127 40 -127 106c0 130 174 157 256 169c0 82 -4 103 -21 124c-16 20 -37 30 -62 30c-67 0 -86 -74 -88 -116c-15 0 -42 2 -52 7c3 33 1 79 -5 109c54 28 119 45 170 45c49 0 84 -16 106 -38c34 -34 42 -84 42 -173v-120
c0 -47 7 -68 62 -68c0 -14 -1 -32 -6 -46zM306 189v38c-68 -9 -159 -21 -159 -108c0 -49 28 -71 59 -71c43 0 100 40 100 141z" />
    <glyph glyph-name="Cacute" unicode="&#x106;" horiz-adv-x="653" 
d="M409 927c29 10 54 13 74 12c12 -1 22 -4 29 -7c-44 -51 -93 -122 -132 -183c-12 -1 -26 1 -36 6c32 66 52 121 65 172zM591 633c-10 -47 -11 -100 -11 -155c-17 -7 -32 -9 -53 -9c-5 142 -62 175 -150 175c-169 0 -237 -134 -237 -274c0 -179 95 -318 255 -318
c64 0 134 23 190 59c8 -7 17 -22 18 -31c-79 -61 -149 -89 -250 -89c-186 0 -318 144 -318 352c0 229 164 342 334 342c84 0 148 -17 222 -52z" />
    <glyph glyph-name="cacute" unicode="&#x107;" horiz-adv-x="447" 
d="M279 709c29 10 54 13 74 12c12 -1 22 -4 29 -7c-44 -51 -93 -122 -132 -183c-12 -1 -26 1 -36 6c32 66 52 121 65 172zM248 -9c-102 0 -208 79 -208 236c0 120 73 240 208 240c61 0 113 -15 151 -45c-6 -39 -7 -76 -7 -114c-11 -6 -32 -8 -46 -8c-8 77 -48 120 -106 120
c-66 0 -107 -64 -107 -178c0 -100 50 -194 143 -194c43 0 82 20 111 58c10 -5 21 -16 25 -28c-36 -57 -88 -87 -164 -87z" />
    <glyph glyph-name="Ccircumflex" unicode="&#x108;" horiz-adv-x="653" 
d="M373 923c11 3 24 4 32 4c36 -49 86 -109 146 -168c-6 -8 -18 -15 -30 -18c-43 30 -97 72 -140 95c-31 -16 -121 -76 -154 -101c-9 9 -11 29 -11 38c50 38 112 96 157 150zM591 633c-10 -47 -11 -100 -11 -155c-17 -7 -32 -9 -53 -9c-5 142 -62 175 -150 175
c-169 0 -237 -134 -237 -274c0 -179 95 -318 255 -318c64 0 134 23 190 59c8 -7 17 -22 18 -31c-79 -61 -149 -89 -250 -89c-186 0 -318 144 -318 352c0 229 164 342 334 342c84 0 148 -17 222 -52z" />
    <glyph glyph-name="ccircumflex" unicode="&#x109;" horiz-adv-x="447" 
d="M243 705c11 3 24 4 32 4c36 -49 86 -109 146 -168c-6 -8 -18 -15 -30 -18c-43 30 -97 72 -140 95c-31 -16 -121 -76 -154 -101c-9 9 -11 29 -11 38c50 38 112 96 157 150zM248 -9c-102 0 -208 79 -208 236c0 120 73 240 208 240c61 0 113 -15 151 -45
c-6 -39 -7 -76 -7 -114c-11 -6 -32 -8 -46 -8c-8 77 -48 120 -106 120c-66 0 -107 -64 -107 -178c0 -100 50 -194 143 -194c43 0 82 20 111 58c10 -5 21 -16 25 -28c-36 -57 -88 -87 -164 -87z" />
    <glyph glyph-name="Cdotaccent" unicode="&#x10a;" horiz-adv-x="653" 
d="M373 867c36 0 60 -25 60 -61c0 -31 -27 -58 -60 -58c-34 0 -59 26 -59 58c0 36 28 61 59 61zM591 633c-10 -47 -11 -100 -11 -155c-17 -7 -32 -9 -53 -9c-5 142 -62 175 -150 175c-169 0 -237 -134 -237 -274c0 -179 95 -318 255 -318c64 0 134 23 190 59
c8 -7 17 -22 18 -31c-79 -61 -149 -89 -250 -89c-186 0 -318 144 -318 352c0 229 164 342 334 342c84 0 148 -17 222 -52z" />
    <glyph glyph-name="cdotaccent" unicode="&#x10b;" horiz-adv-x="447" 
d="M243 649c36 0 60 -25 60 -61c0 -31 -27 -58 -60 -58c-34 0 -59 26 -59 58c0 36 28 61 59 61zM248 -9c-102 0 -208 79 -208 236c0 120 73 240 208 240c61 0 113 -15 151 -45c-6 -39 -7 -76 -7 -114c-11 -6 -32 -8 -46 -8c-8 77 -48 120 -106 120c-66 0 -107 -64 -107 -178
c0 -100 50 -194 143 -194c43 0 82 20 111 58c10 -5 21 -16 25 -28c-36 -57 -88 -87 -164 -87z" />
    <glyph glyph-name="Ccaron" unicode="&#x10c;" horiz-adv-x="653" 
d="M515 919c13 -2 25 -10 31 -23c-51 -42 -113 -102 -157 -157c-11 -3 -24 -4 -32 -4c-37 48 -88 107 -141 155c2 13 8 23 20 29c45 -30 100 -71 143 -93c31 17 120 79 136 93zM591 633c-10 -47 -11 -100 -11 -155c-17 -7 -32 -9 -53 -9c-5 142 -62 175 -150 175
c-169 0 -237 -134 -237 -274c0 -179 95 -318 255 -318c64 0 134 23 190 59c8 -7 17 -22 18 -31c-79 -61 -149 -89 -250 -89c-186 0 -318 144 -318 352c0 229 164 342 334 342c84 0 148 -17 222 -52z" />
    <glyph glyph-name="ccaron" unicode="&#x10d;" horiz-adv-x="447" 
d="M385 701c13 -2 25 -10 31 -23c-51 -42 -113 -102 -157 -157c-11 -3 -24 -4 -32 -4c-37 48 -88 107 -141 155c2 13 8 23 20 29c45 -30 100 -71 143 -93c31 17 120 79 136 93zM248 -9c-102 0 -208 79 -208 236c0 120 73 240 208 240c61 0 113 -15 151 -45
c-6 -39 -7 -76 -7 -114c-11 -6 -32 -8 -46 -8c-8 77 -48 120 -106 120c-66 0 -107 -64 -107 -178c0 -100 50 -194 143 -194c43 0 82 20 111 58c10 -5 21 -16 25 -28c-36 -57 -88 -87 -164 -87z" />
    <glyph glyph-name="Dcaron" unicode="&#x10e;" horiz-adv-x="732" 
d="M339 735c-37 48 -88 107 -141 155c2 13 8 23 20 29c45 -30 100 -71 143 -93c31 17 120 79 136 93c13 -2 25 -10 31 -23c-51 -42 -113 -102 -157 -157c-11 -3 -24 -4 -32 -4zM316 678c177 0 380 -48 380 -323c0 -324 -267 -355 -380 -355c-74 0 -209 -1 -259 -3
c0 18 1 32 5 43c53 3 70 20 70 98v411c0 67 -16 84 -69 87c-4 11 -5 27 -5 43c31 -2 96 -3 140 -3c39 1 79 2 118 2zM316 45c159 0 277 69 277 295c0 217 -143 300 -293 300c-24 0 -57 -4 -74 -9v-493c0 -74 15 -93 90 -93z" />
    <glyph glyph-name="dcaron" unicode="&#x10f;" horiz-adv-x="660" 
d="M462 677v-541c0 -47 7 -68 62 -68c0 -14 -1 -32 -6 -46c-33 -2 -83 -14 -114 -31c-14 6 -25 12 -25 58c0 20 3 32 8 58c-10 -22 -18 -34 -23 -42c-18 -30 -70 -74 -137 -74c-117 0 -187 68 -187 222c0 140 99 254 249 254c33 0 56 -5 83 -14v122c0 47 -7 71 -75 71
c0 15 2 26 9 37c30 0 110 17 134 34c12 -4 22 -15 22 -40zM611 715c23 -9 34 -34 34 -72c0 -73 -26 -123 -74 -178c-14 0 -32 5 -40 13c34 47 39 64 39 97c0 28 -15 46 -47 50c0 13 2 43 8 60c30 6 58 16 80 30zM251 54c59 0 121 51 121 191v141c-23 21 -49 35 -88 35
c-55 0 -145 -36 -145 -195c0 -128 68 -172 112 -172z" />
    <glyph glyph-name="Dcroat" unicode="&#x110;" 
d="M316 678c177 0 380 -48 380 -323c0 -324 -267 -355 -380 -355c-74 0 -209 -1 -259 -3c0 18 1 32 5 43c53 3 70 20 70 98v110c-27 0 -51 0 -93 -2c0 15 5 42 11 51h82v252c0 67 -16 84 -69 87c-4 11 -5 27 -5 43c31 -2 96 -3 140 -3c39 1 79 2 118 2zM316 45
c159 0 277 69 277 295c0 217 -143 300 -293 300c-24 0 -57 -4 -74 -9v-334h179c0 -20 -2 -36 -11 -50c-65 1 -107 1 -168 1v-110c0 -74 15 -93 90 -93z" />
    <glyph glyph-name="dcroat" unicode="&#x111;" horiz-adv-x="562" 
d="M462 524v-388c0 -47 7 -68 62 -68c0 -14 -1 -32 -6 -46c-33 -2 -83 -14 -114 -31c-14 6 -25 12 -25 58c0 20 3 32 8 58c-10 -22 -18 -34 -23 -42c-18 -30 -70 -74 -137 -74c-117 0 -187 68 -187 222c0 140 99 254 249 254c33 0 56 -5 83 -14v71l-108 -1c0 18 4 31 10 43
h98v9c0 47 -7 71 -75 71c0 15 2 26 9 37c30 0 110 17 134 34c12 -4 22 -15 22 -40v-111h58c0 -14 -3 -27 -9 -42h-49zM251 54c59 0 121 51 121 191v141c-23 21 -49 35 -88 35c-55 0 -145 -36 -145 -195c0 -128 68 -172 112 -172z" />
    <glyph glyph-name="Emacron" unicode="&#x112;" horiz-adv-x="601" 
d="M115 849h355c0 -14 -3 -28 -9 -43c-32 0 -184 0 -355 -3c0 8 3 34 9 46zM516 171c20 -6 32 -12 44 -24c-15 -46 -25 -103 -31 -149c-39 1 -120 2 -214 2c-74 0 -209 -1 -259 -3c0 18 1 32 5 43c54 3 69 20 69 98v411c0 67 -16 84 -69 87c-4 11 -5 27 -5 43
c39 -2 132 -3 168 -3c157 0 248 2 281 3c4 -45 11 -115 21 -158c-11 -9 -27 -12 -45 -12c-5 62 -35 127 -164 127h-93v-274h63c82 0 110 16 111 81c17 5 30 7 48 7c-2 -34 -2 -74 -2 -109s0 -82 2 -116c-18 0 -31 1 -46 5c-5 69 -31 89 -113 89h-63v-181
c0 -74 16 -93 91 -93h6c143 0 166 44 195 126z" />
    <glyph glyph-name="emacron" unicode="&#x113;" horiz-adv-x="474" 
d="M70 631h355c0 -14 -3 -28 -9 -43c-32 0 -184 0 -355 -3c0 8 3 34 9 46zM406 105c11 -6 22 -20 24 -31c-46 -60 -105 -83 -178 -83c-142 0 -212 107 -212 238c0 128 79 238 207 238c130 0 179 -93 187 -207c-3 -14 -8 -25 -15 -34c-42 0 -176 0 -280 -5
c6 -89 40 -174 145 -174c44 0 89 20 122 58zM238 419c-47 0 -95 -32 -100 -148h192c0 88 -34 148 -92 148z" />
    <glyph glyph-name="Edotaccent" unicode="&#x116;" horiz-adv-x="601" 
d="M287 748c-34 0 -59 26 -59 58c0 36 28 61 59 61c36 0 60 -25 60 -61c0 -31 -27 -58 -60 -58zM516 171c20 -6 32 -12 44 -24c-15 -46 -25 -103 -31 -149c-39 1 -120 2 -214 2c-74 0 -209 -1 -259 -3c0 18 1 32 5 43c54 3 69 20 69 98v411c0 67 -16 84 -69 87
c-4 11 -5 27 -5 43c39 -2 132 -3 168 -3c157 0 248 2 281 3c4 -45 11 -115 21 -158c-11 -9 -27 -12 -45 -12c-5 62 -35 127 -164 127h-93v-274h63c82 0 110 16 111 81c17 5 30 7 48 7c-2 -34 -2 -74 -2 -109s0 -82 2 -116c-18 0 -31 1 -46 5c-5 69 -31 89 -113 89h-63v-181
c0 -74 16 -93 91 -93h6c143 0 166 44 195 126z" />
    <glyph glyph-name="edotaccent" unicode="&#x117;" horiz-adv-x="474" 
d="M242 530c-34 0 -59 26 -59 58c0 36 28 61 59 61c36 0 60 -25 60 -61c0 -31 -27 -58 -60 -58zM406 105c11 -6 22 -20 24 -31c-46 -60 -105 -83 -178 -83c-142 0 -212 107 -212 238c0 128 79 238 207 238c130 0 179 -93 187 -207c-3 -14 -8 -25 -15 -34
c-42 0 -176 0 -280 -5c6 -89 40 -174 145 -174c44 0 89 20 122 58zM238 419c-47 0 -95 -32 -100 -148h192c0 88 -34 148 -92 148z" />
    <glyph glyph-name="Eogonek" unicode="&#x118;" horiz-adv-x="601" 
d="M529 -2l-53 1c-69 -26 -101 -69 -101 -108c0 -33 23 -54 63 -54c12 0 27 2 42 8c6 -11 8 -23 7 -39c-26 -13 -50 -30 -74 -53c-6 -2 -12 -2 -19 -2c-32 0 -97 19 -97 97c0 53 28 102 112 152h-94c-74 0 -209 -1 -259 -3c0 18 1 32 5 43c54 3 69 20 69 98v411
c0 67 -16 84 -69 87c-4 11 -5 27 -5 43c39 -2 132 -3 168 -3c157 0 248 2 281 3c4 -45 11 -115 21 -158c-11 -9 -27 -12 -45 -12c-5 62 -35 127 -164 127h-93v-274h63c82 0 110 16 111 81c17 5 30 7 48 7c-2 -34 -2 -74 -2 -109s0 -82 2 -116c-18 0 -31 1 -46 5
c-5 69 -31 89 -113 89h-63v-181c0 -74 16 -93 91 -93h6c143 0 166 44 195 126c20 -6 32 -12 44 -24c-15 -46 -25 -103 -31 -149z" />
    <glyph glyph-name="eogonek" unicode="&#x119;" horiz-adv-x="474" 
d="M380 26c-53 -40 -82 -77 -82 -125c0 -49 30 -64 63 -64c12 0 27 2 42 8c6 -11 8 -23 7 -39c-26 -13 -50 -30 -74 -53c-6 -2 -12 -2 -19 -2c-43 0 -97 29 -97 109c0 48 19 91 77 134c-15 -2 -29 -3 -45 -3c-142 0 -212 107 -212 238c0 128 79 238 207 238
c130 0 179 -93 187 -207c-3 -14 -8 -25 -15 -34c-42 0 -176 0 -280 -5c6 -89 40 -174 145 -174c44 0 89 20 122 58c11 -6 22 -20 24 -31c-15 -20 -32 -35 -50 -48zM238 419c-47 0 -95 -32 -100 -148h192c0 88 -34 148 -92 148z" />
    <glyph glyph-name="Ecaron" unicode="&#x11a;" horiz-adv-x="601" 
d="M271 735c-37 48 -88 107 -141 155c2 13 8 23 20 29c45 -30 100 -71 143 -93c31 17 120 79 136 93c13 -2 25 -10 31 -23c-51 -42 -113 -102 -157 -157c-11 -3 -24 -4 -32 -4zM516 171c20 -6 32 -12 44 -24c-15 -46 -25 -103 -31 -149c-39 1 -120 2 -214 2
c-74 0 -209 -1 -259 -3c0 18 1 32 5 43c54 3 69 20 69 98v411c0 67 -16 84 -69 87c-4 11 -5 27 -5 43c39 -2 132 -3 168 -3c157 0 248 2 281 3c4 -45 11 -115 21 -158c-11 -9 -27 -12 -45 -12c-5 62 -35 127 -164 127h-93v-274h63c82 0 110 16 111 81c17 5 30 7 48 7
c-2 -34 -2 -74 -2 -109s0 -82 2 -116c-18 0 -31 1 -46 5c-5 69 -31 89 -113 89h-63v-181c0 -74 16 -93 91 -93h6c143 0 166 44 195 126z" />
    <glyph glyph-name="ecaron" unicode="&#x11b;" horiz-adv-x="474" 
d="M226 517c-37 48 -88 107 -141 155c2 13 8 23 20 29c45 -30 100 -71 143 -93c31 17 120 79 136 93c13 -2 25 -10 31 -23c-51 -42 -113 -102 -157 -157c-11 -3 -24 -4 -32 -4zM406 105c11 -6 22 -20 24 -31c-46 -60 -105 -83 -178 -83c-142 0 -212 107 -212 238
c0 128 79 238 207 238c130 0 179 -93 187 -207c-3 -14 -8 -25 -15 -34c-42 0 -176 0 -280 -5c6 -89 40 -174 145 -174c44 0 89 20 122 58zM238 419c-47 0 -95 -32 -100 -148h192c0 88 -34 148 -92 148z" />
    <glyph glyph-name="Gcircumflex" unicode="&#x11c;" 
d="M387 923c11 3 24 4 32 4c36 -49 86 -109 146 -168c-6 -8 -18 -15 -30 -18c-43 30 -97 72 -140 95c-31 -16 -121 -76 -154 -101c-9 9 -11 29 -11 38c50 38 112 96 157 150zM519 131v50c0 91 -10 98 -86 100c-4 10 -6 30 -6 46c25 -2 81 -3 122 -3s96 1 117 2
c0 -12 -1 -32 -6 -45c-40 -2 -47 -10 -47 -100v-45c0 -28 2 -50 13 -70c-57 -42 -149 -75 -262 -75c-197 0 -329 141 -329 356c0 224 172 338 347 338c96 0 181 -19 240 -47c-9 -47 -11 -96 -11 -155c-16 -6 -32 -9 -53 -9c-5 140 -76 170 -168 170
c-171 0 -249 -132 -249 -275c0 -182 80 -329 243 -329c40 0 69 3 101 16c23 10 34 24 34 75z" />
    <glyph glyph-name="gcircumflex" unicode="&#x11d;" horiz-adv-x="511" 
d="M241 618c-31 -16 -121 -76 -154 -101c-9 9 -11 29 -11 38c50 38 112 96 157 150c11 3 24 4 32 4c36 -49 86 -109 146 -168c-6 -8 -18 -15 -30 -18c-43 30 -97 72 -140 95zM282 63c134 0 181 -30 181 -111c0 -91 -104 -201 -248 -201c-123 0 -174 47 -174 135
c0 49 26 86 74 108c-37 13 -48 36 -48 74s21 75 53 106c-38 27 -63 70 -63 127c0 92 61 166 180 166c24 0 45 -3 63 -9h164c5 -17 7 -41 7 -62c-25 6 -66 13 -97 16c32 -33 46 -75 46 -105c0 -93 -63 -168 -181 -168c-27 0 -53 4 -77 13c-18 -18 -25 -34 -25 -47
c0 -36 17 -42 145 -42zM227 422c-53 0 -78 -53 -78 -108c0 -83 38 -129 102 -129c44 0 75 37 75 107c0 71 -36 130 -99 130zM239 -196c88 0 141 52 141 109c0 51 -28 70 -165 70c-21 0 -39 1 -54 2c-26 -22 -34 -45 -34 -78c0 -68 30 -103 112 -103z" />
    <glyph glyph-name="Gbreve" unicode="&#x11e;" 
d="M551 915c0 -108 -61 -170 -168 -170c-105 0 -165 60 -165 165c12 7 27 11 40 11c10 -68 62 -111 135 -111s121 43 125 111c14 0 27 -2 33 -6zM519 131v50c0 91 -10 98 -86 100c-4 10 -6 30 -6 46c25 -2 81 -3 122 -3s96 1 117 2c0 -12 -1 -32 -6 -45
c-40 -2 -47 -10 -47 -100v-45c0 -28 2 -50 13 -70c-57 -42 -149 -75 -262 -75c-197 0 -329 141 -329 356c0 224 172 338 347 338c96 0 181 -19 240 -47c-9 -47 -11 -96 -11 -155c-16 -6 -32 -9 -53 -9c-5 140 -76 170 -168 170c-171 0 -249 -132 -249 -275
c0 -182 80 -329 243 -329c40 0 69 3 101 16c23 10 34 24 34 75z" />
    <glyph glyph-name="gbreve" unicode="&#x11f;" horiz-adv-x="511" 
d="M229 527c-105 0 -165 60 -165 165c12 7 27 11 40 11c10 -68 62 -111 135 -111s121 43 125 111c14 0 27 -2 33 -6c0 -108 -61 -170 -168 -170zM282 63c134 0 181 -30 181 -111c0 -91 -104 -201 -248 -201c-123 0 -174 47 -174 135c0 49 26 86 74 108c-37 13 -48 36 -48 74
s21 75 53 106c-38 27 -63 70 -63 127c0 92 61 166 180 166c24 0 45 -3 63 -9h164c5 -17 7 -41 7 -62c-25 6 -66 13 -97 16c32 -33 46 -75 46 -105c0 -93 -63 -168 -181 -168c-27 0 -53 4 -77 13c-18 -18 -25 -34 -25 -47c0 -36 17 -42 145 -42zM227 422
c-53 0 -78 -53 -78 -108c0 -83 38 -129 102 -129c44 0 75 37 75 107c0 71 -36 130 -99 130zM239 -196c88 0 141 52 141 109c0 51 -28 70 -165 70c-21 0 -39 1 -54 2c-26 -22 -34 -45 -34 -78c0 -68 30 -103 112 -103z" />
    <glyph glyph-name="Gdotaccent" unicode="&#x120;" 
d="M387 867c36 0 60 -25 60 -61c0 -31 -27 -58 -60 -58c-34 0 -59 26 -59 58c0 36 28 61 59 61zM519 131v50c0 91 -10 98 -86 100c-4 10 -6 30 -6 46c25 -2 81 -3 122 -3s96 1 117 2c0 -12 -1 -32 -6 -45c-40 -2 -47 -10 -47 -100v-45c0 -28 2 -50 13 -70
c-57 -42 -149 -75 -262 -75c-197 0 -329 141 -329 356c0 224 172 338 347 338c96 0 181 -19 240 -47c-9 -47 -11 -96 -11 -155c-16 -6 -32 -9 -53 -9c-5 140 -76 170 -168 170c-171 0 -249 -132 -249 -275c0 -182 80 -329 243 -329c40 0 69 3 101 16c23 10 34 24 34 75z" />
    <glyph glyph-name="gdotaccent" unicode="&#x121;" horiz-adv-x="511" 
d="M233 530c-34 0 -59 26 -59 58c0 36 28 61 59 61c36 0 60 -25 60 -61c0 -31 -27 -58 -60 -58zM282 63c134 0 181 -30 181 -111c0 -91 -104 -201 -248 -201c-123 0 -174 47 -174 135c0 49 26 86 74 108c-37 13 -48 36 -48 74s21 75 53 106c-38 27 -63 70 -63 127
c0 92 61 166 180 166c24 0 45 -3 63 -9h164c5 -17 7 -41 7 -62c-25 6 -66 13 -97 16c32 -33 46 -75 46 -105c0 -93 -63 -168 -181 -168c-27 0 -53 4 -77 13c-18 -18 -25 -34 -25 -47c0 -36 17 -42 145 -42zM227 422c-53 0 -78 -53 -78 -108c0 -83 38 -129 102 -129
c44 0 75 37 75 107c0 71 -36 130 -99 130zM239 -196c88 0 141 52 141 109c0 51 -28 70 -165 70c-21 0 -39 1 -54 2c-26 -22 -34 -45 -34 -78c0 -68 30 -103 112 -103z" />
    <glyph glyph-name="Gcommaaccent" unicode="&#x122;" 
d="M519 131v50c0 91 -10 98 -86 100c-4 10 -6 30 -6 46c25 -2 81 -3 122 -3s96 1 117 2c0 -12 -1 -32 -6 -45c-40 -2 -47 -10 -47 -100v-45c0 -28 2 -50 13 -70c-57 -42 -149 -75 -262 -75c-197 0 -329 141 -329 356c0 224 172 338 347 338c96 0 181 -19 240 -47
c-9 -47 -11 -96 -11 -155c-16 -6 -32 -9 -53 -9c-5 140 -76 170 -168 170c-171 0 -249 -132 -249 -275c0 -182 80 -329 243 -329c40 0 69 3 101 16c23 10 34 24 34 75zM398 -43c23 -9 34 -34 34 -67c0 -70 -51 -128 -107 -170c-14 3 -23 10 -28 21c33 33 50 66 50 90
c0 20 -12 33 -37 36c-1 11 2 44 8 60c30 6 58 16 80 30z" />
    <glyph glyph-name="gcommaaccent" unicode="&#x123;" horiz-adv-x="511" 
d="M201 506c-23 8 -34 34 -34 64c0 54 35 105 98 151c14 -3 23 -10 28 -21c-33 -30 -41 -54 -41 -72c0 -22 12 -30 37 -33c1 -10 -2 -45 -8 -60c-30 -5 -58 -16 -80 -29zM282 63c134 0 181 -30 181 -111c0 -91 -104 -201 -248 -201c-123 0 -174 47 -174 135
c0 49 26 86 74 108c-37 13 -48 36 -48 74s21 75 53 106c-38 27 -63 70 -63 127c0 92 61 166 180 166c24 0 45 -3 63 -9h164c5 -17 7 -41 7 -62c-25 6 -66 13 -97 16c32 -33 46 -75 46 -105c0 -93 -63 -168 -181 -168c-27 0 -53 4 -77 13c-18 -18 -25 -34 -25 -47
c0 -36 17 -42 145 -42zM227 422c-53 0 -78 -53 -78 -108c0 -83 38 -129 102 -129c44 0 75 37 75 107c0 71 -36 130 -99 130zM239 -196c88 0 141 52 141 109c0 51 -28 70 -165 70c-21 0 -39 1 -54 2c-26 -22 -34 -45 -34 -78c0 -68 30 -103 112 -103z" />
    <glyph glyph-name="Hcircumflex" unicode="&#x124;" horiz-adv-x="753" 
d="M384 836c-31 -16 -121 -76 -154 -101c-9 9 -11 29 -11 38c50 38 112 96 157 150c11 3 24 4 32 4c36 -49 86 -109 146 -168c-6 -8 -18 -15 -30 -18c-43 30 -97 72 -140 95zM623 549v-422c0 -67 16 -84 69 -87c4 -11 5 -25 5 -43c-40 2 -82 3 -121 3s-87 -1 -121 -3
c0 18 1 32 5 43c53 3 69 20 69 87v198c-81 0 -225 0 -305 -5v-193c0 -67 16 -84 69 -87c4 -11 5 -25 5 -43c-40 2 -82 3 -121 3s-87 -1 -121 -3c0 18 1 32 5 43c53 3 69 20 69 87v422c0 67 -16 84 -69 87c-4 11 -5 25 -5 43c37 -2 78 -3 121 -3s81 1 121 3
c0 -18 -1 -32 -5 -43c-53 -3 -69 -20 -69 -87v-181h305v181c0 67 -16 84 -69 87c-4 11 -5 25 -5 43c37 -2 78 -3 121 -3s81 1 121 3c0 -18 -1 -32 -5 -43c-53 -3 -69 -20 -69 -87z" />
    <glyph glyph-name="hcircumflex" unicode="&#x125;" horiz-adv-x="595" 
d="M305 877c-31 -16 -121 -76 -154 -101c-9 9 -11 29 -11 38c50 38 112 96 157 150c11 3 24 4 32 4c36 -49 86 -109 146 -168c-6 -8 -18 -15 -30 -18c-43 30 -97 72 -140 95zM555 40c4 -12 5 -25 5 -43c-29 2 -68 3 -109 3s-88 -2 -119 -3c0 18 1 32 5 43c48 0 69 20 69 87
v152c0 94 -39 122 -93 122c-52 0 -113 -45 -113 -167v-107c0 -67 17 -87 69 -87c4 -12 5 -25 5 -43c-28 1 -78 3 -119 3s-90 -1 -119 -3c0 18 1 32 5 43c52 0 69 20 69 87v448c0 47 -7 71 -75 71c0 15 2 26 9 37c30 0 110 17 134 34c12 -4 22 -15 22 -40v-254
c0 -16 -1 -36 -7 -59c4 7 7 15 15 26c22 31 74 72 145 72c76 0 143 -41 143 -163v-172c0 -69 19 -87 59 -87z" />
    <glyph glyph-name="Hbar" unicode="&#x126;" horiz-adv-x="743" 
d="M623 448v-321c0 -67 16 -84 69 -87c4 -11 5 -25 5 -43c-40 2 -82 3 -121 3s-87 -1 -121 -3c0 18 1 32 5 43c53 3 69 20 69 87v198c-81 0 -225 0 -305 -5v-193c0 -67 16 -84 69 -87c4 -11 5 -25 5 -43c-40 2 -82 3 -121 3s-87 -1 -121 -3c0 18 1 32 5 43c53 3 69 20 69 87
v319l-66 -1c0 8 3 34 9 46h57v58c0 67 -16 84 -69 87c-4 11 -5 25 -5 43c37 -2 78 -3 121 -3s81 1 121 3c0 -18 -1 -32 -5 -43c-53 -3 -69 -20 -69 -87v-58h305v58c0 67 -16 84 -69 87c-4 11 -5 25 -5 43c37 -2 78 -3 121 -3s81 1 121 3c0 -18 -1 -32 -5 -43
c-53 -3 -69 -20 -69 -87v-58h64c0 -14 -3 -28 -9 -43h-55zM529 368v80c-89 0 -204 -1 -305 -1v-79h305z" />
    <glyph glyph-name="hbar" unicode="&#x127;" horiz-adv-x="595" 
d="M555 40c4 -12 5 -25 5 -43c-29 2 -68 3 -109 3s-88 -2 -119 -3c0 18 1 32 5 43c48 0 69 20 69 87v152c0 94 -39 122 -93 122c-52 0 -113 -45 -113 -167v-107c0 -67 17 -87 69 -87c4 -12 5 -25 5 -43c-28 1 -78 3 -119 3s-90 -1 -119 -3c0 18 1 32 5 43c52 0 69 20 69 87
v389l-76 -2c0 17 2 29 8 44h68v17c0 47 -7 71 -75 71c0 15 2 26 9 37c30 0 110 17 134 34c12 -4 22 -15 22 -40v-119h93c0 -16 -3 -28 -8 -41h-85v-94c0 -16 -1 -36 -7 -59c4 7 7 15 15 26c22 31 74 72 145 72c76 0 143 -41 143 -163v-172c0 -69 19 -87 59 -87z" />
    <glyph glyph-name="Imacron" unicode="&#x12a;" horiz-adv-x="354" 
d="M4 849h355c0 -14 -3 -28 -9 -43c-32 0 -184 0 -355 -3c0 8 3 34 9 46zM130 127v422c0 67 -16 84 -69 87c-4 11 -5 25 -5 43c37 -2 78 -3 121 -3s81 1 121 3c0 -18 -1 -32 -5 -43c-53 -3 -69 -20 -69 -87v-422c0 -67 16 -84 69 -87c4 -11 5 -25 5 -43c-40 2 -82 3 -121 3
s-87 -1 -121 -3c0 18 1 32 5 43c53 3 69 20 69 87z" />
    <glyph glyph-name="imacron" unicode="&#x12b;" horiz-adv-x="302" 
d="M-17 631h355c0 -14 -3 -28 -9 -43c-32 0 -184 0 -355 -3c0 8 3 34 9 46zM201 427v-300c0 -67 16 -87 59 -87c4 -14 5 -34 5 -43c-35 2 -75 3 -113 3s-82 -1 -115 -3c0 13 1 30 5 43c53 0 69 20 69 87v198c0 47 -7 71 -75 71c0 15 2 26 9 37c30 0 110 17 134 34
c12 -4 22 -15 22 -40z" />
    <glyph glyph-name="Iogonek" unicode="&#x12e;" horiz-adv-x="354" 
d="M215 0c-42 -32 -64 -68 -64 -106s23 -57 63 -57c12 0 27 2 42 8c6 -11 8 -23 7 -39c-26 -13 -50 -30 -74 -53c-6 -2 -12 -2 -19 -2c-33 0 -97 19 -97 98c0 52 28 101 92 151c-37 0 -79 -1 -109 -3c0 18 1 32 5 43c53 3 69 20 69 87v422c0 67 -16 84 -69 87
c-4 11 -5 25 -5 43c37 -2 78 -3 121 -3s81 1 121 3c0 -18 -1 -32 -5 -43c-53 -3 -69 -20 -69 -87v-422c0 -67 16 -84 69 -87c4 -11 5 -25 5 -43c-27 1 -56 2 -83 3z" />
    <glyph glyph-name="iogonek" unicode="&#x12f;" horiz-adv-x="302" 
d="M148 580c-34 0 -59 26 -59 58c0 36 28 61 59 61c36 0 60 -25 60 -61c0 -31 -27 -58 -60 -58zM194 -163c12 0 27 2 42 8c6 -11 8 -23 7 -39c-26 -13 -50 -30 -74 -53c-6 -2 -12 -2 -19 -2c-33 0 -97 19 -97 98c0 52 28 101 92 151c-37 0 -77 -1 -108 -3c0 13 1 30 5 43
c53 0 69 20 69 87v198c0 47 -7 71 -75 71c0 15 2 26 9 37c30 0 110 17 134 34c12 -4 22 -15 22 -40v-300c0 -67 16 -87 59 -87c4 -14 5 -34 5 -43c-22 1 -46 2 -71 3c-41 -32 -63 -68 -63 -106s23 -57 63 -57z" />
    <glyph glyph-name="Idotaccent" unicode="&#x130;" horiz-adv-x="354" 
d="M176 867c36 0 60 -25 60 -61c0 -31 -27 -58 -60 -58c-34 0 -59 26 -59 58c0 36 28 61 59 61zM130 127v422c0 67 -16 84 -69 87c-4 11 -5 25 -5 43c37 -2 78 -3 121 -3s81 1 121 3c0 -18 -1 -32 -5 -43c-53 -3 -69 -20 -69 -87v-422c0 -67 16 -84 69 -87
c4 -11 5 -25 5 -43c-40 2 -82 3 -121 3s-87 -1 -121 -3c0 18 1 32 5 43c53 3 69 20 69 87z" />
    <glyph glyph-name="dotlessi" unicode="&#x131;" horiz-adv-x="302" 
d="M201 427v-300c0 -67 16 -87 59 -87c4 -14 5 -34 5 -43c-35 2 -75 3 -113 3s-82 -1 -115 -3c0 13 1 30 5 43c53 0 69 20 69 87v198c0 47 -7 71 -75 71c0 15 2 26 9 37c30 0 110 17 134 34c12 -4 22 -15 22 -40z" />
    <glyph glyph-name="IJ" unicode="&#x132;" horiz-adv-x="609" 
d="M130 127v422c0 67 -16 84 -69 87c-4 11 -5 25 -5 43c37 -2 78 -3 121 -3s81 1 121 3c0 -18 -1 -32 -5 -43c-53 -3 -69 -20 -69 -87v-422c0 -67 16 -84 69 -87c4 -11 5 -25 5 -43c-40 2 -82 3 -121 3s-87 -1 -121 -3c0 18 1 32 5 43c53 3 69 20 69 87zM489 549v-424
c0 -186 -23 -281 -194 -374c-9 5 -15 15 -17 26c75 63 117 130 117 257v515c0 67 -16 84 -69 87c-4 11 -5 25 -5 43c29 -2 77 -3 121 -3s97 1 121 3c0 -18 -1 -32 -5 -43c-51 -3 -69 -20 -69 -87z" />
    <glyph glyph-name="ij" unicode="&#x133;" horiz-adv-x="535" 
d="M148 699c36 0 60 -25 60 -61c0 -31 -27 -58 -60 -58c-34 0 -59 26 -59 58c0 36 28 61 59 61zM400 699c36 0 60 -25 60 -61c0 -31 -27 -58 -60 -58c-34 0 -59 26 -59 58c0 36 28 61 59 61zM201 427v-300c0 -67 16 -87 59 -87c4 -14 5 -34 5 -43c-35 2 -75 3 -113 3
s-82 -1 -115 -3c0 13 1 30 5 43c53 0 69 20 69 87v198c0 47 -7 71 -75 71c0 15 2 26 9 37c30 0 110 17 134 34c12 -4 22 -15 22 -40zM363 26v299c0 47 -7 71 -75 71c0 15 2 26 9 37c30 0 110 17 134 34c12 -4 22 -15 22 -40v-404c0 -135 -90 -231 -166 -272
c-10 5 -20 15 -22 28c79 92 98 146 98 247z" />
    <glyph glyph-name="Jcircumflex" unicode="&#x134;" horiz-adv-x="329" 
d="M166 923c11 3 24 4 32 4c36 -49 86 -109 146 -168c-6 -8 -18 -15 -30 -18c-43 30 -97 72 -140 95c-31 -16 -121 -76 -154 -101c-9 9 -11 29 -11 38c50 38 112 96 157 150zM214 549v-424c0 -186 -23 -281 -194 -374c-9 5 -15 15 -17 26c75 63 117 130 117 257v515
c0 67 -16 84 -69 87c-4 11 -5 25 -5 43c29 -2 77 -3 121 -3s97 1 121 3c0 -18 -1 -32 -5 -43c-51 -3 -69 -20 -69 -87z" />
    <glyph glyph-name="jcircumflex" unicode="&#x135;" horiz-adv-x="283" 
d="M139 705c11 3 24 4 32 4c36 -49 86 -109 146 -168c-6 -8 -18 -15 -30 -18c-43 30 -97 72 -140 95c-31 -16 -121 -76 -154 -101c-9 9 -11 29 -11 38c50 38 112 96 157 150zM111 26v299c0 47 -7 71 -75 71c0 15 2 26 9 37c30 0 110 17 134 34c12 -4 22 -15 22 -40v-404
c0 -135 -90 -231 -166 -272c-10 5 -20 15 -22 28c79 92 98 146 98 247z" />
    <glyph glyph-name="Kcommaaccent" unicode="&#x136;" horiz-adv-x="678" 
d="M450 204c65 -85 138 -162 206 -164c0 -10 -1 -27 -5 -40c-50 0 -110 -1 -159 -6c-45 74 -172 245 -268 332v-199c0 -67 16 -84 69 -87c4 -11 5 -25 5 -43c-40 2 -82 3 -121 3s-87 -1 -121 -3c0 18 1 32 5 43c53 3 69 20 69 87v422c0 67 -16 84 -69 87c-4 11 -5 25 -5 43
c37 -2 78 -3 121 -3s81 1 121 3c0 -18 -1 -32 -5 -43c-53 -3 -69 -20 -69 -87v-194l180 188c70 73 55 90 13 93c-4 13 -5 28 -5 43c22 -2 63 -3 103 -3s76 1 103 3c0 -13 -1 -31 -6 -43c-45 -3 -78 -18 -143 -86l-162 -174c49 -43 94 -108 143 -172zM364 -43
c23 -9 34 -34 34 -67c0 -70 -51 -128 -107 -170c-14 3 -23 10 -28 21c33 33 50 66 50 90c0 20 -12 33 -37 36c-1 11 2 44 8 60c30 6 58 16 80 30z" />
    <glyph glyph-name="kcommaaccent" unicode="&#x137;" horiz-adv-x="545" 
d="M421 106c46 -57 58 -61 104 -63c0 -19 -1 -32 -5 -43c-48 0 -84 -2 -128 -9c-32 51 -125 171 -192 242v-106c0 -67 16 -87 59 -87c4 -14 5 -34 5 -43c-35 2 -75 3 -113 3s-82 -1 -115 -3c0 13 1 30 5 43c53 0 69 20 69 87v448c0 47 -7 71 -75 71c0 15 2 26 9 37
c30 0 110 17 134 34c12 -4 22 -15 22 -40v-415l67 61c45 41 64 66 64 80c0 11 -11 16 -29 16c-4 13 -6 26 -6 41c43 -2 77 -2 104 -2c22 0 58 0 94 2c0 -13 -2 -30 -7 -42c-39 -1 -72 -15 -122 -61l-87 -79c41 -45 82 -95 143 -172zM298 -43c23 -9 34 -34 34 -67
c0 -70 -51 -128 -107 -170c-14 3 -23 10 -28 21c33 33 50 66 50 90c0 20 -12 33 -37 36c-1 11 2 44 8 60c30 6 58 16 80 30z" />
    <glyph glyph-name="Lacute" unicode="&#x139;" horiz-adv-x="560" 
d="M213 927c29 10 54 13 74 12c12 -1 22 -4 29 -7c-44 -51 -93 -122 -132 -183c-12 -1 -26 1 -36 6c32 66 52 121 65 172zM315 45h6c111 0 142 33 175 126c20 -6 32 -12 44 -24c-15 -46 -25 -103 -31 -149c-39 1 -120 2 -194 2s-209 -1 -259 -3c0 18 1 32 5 43
c53 3 70 20 70 98v411c0 67 -16 84 -69 87c-4 11 -5 27 -5 43c39 -2 92 -3 121 -3c43 0 81 1 121 3c0 -18 -1 -32 -5 -43c-53 -3 -69 -20 -69 -90v-408c0 -74 15 -93 90 -93z" />
    <glyph glyph-name="lacute" unicode="&#x13a;" horiz-adv-x="299" 
d="M190 968c29 10 54 13 74 12c12 -1 22 -4 29 -7c-44 -51 -93 -122 -132 -183c-12 -1 -26 1 -36 6c32 66 52 121 65 172zM110 127v448c0 47 -7 71 -75 71c0 15 2 26 9 37c30 0 110 17 134 34c12 -4 22 -15 22 -40v-550c0 -67 16 -87 59 -87c4 -14 5 -34 5 -43
c-35 2 -75 3 -113 3s-82 -1 -115 -3c0 13 1 30 5 43c53 0 69 20 69 87z" />
    <glyph glyph-name="Lcommaaccent" unicode="&#x13b;" horiz-adv-x="560" 
d="M315 45h6c111 0 142 33 175 126c20 -6 32 -12 44 -24c-15 -46 -25 -103 -31 -149c-39 1 -120 2 -194 2s-209 -1 -259 -3c0 18 1 32 5 43c53 3 70 20 70 98v411c0 67 -16 84 -69 87c-4 11 -5 27 -5 43c39 -2 92 -3 121 -3c43 0 81 1 121 3c0 -18 -1 -32 -5 -43
c-53 -3 -69 -20 -69 -90v-408c0 -74 15 -93 90 -93zM315 -43c23 -9 34 -34 34 -67c0 -70 -51 -128 -107 -170c-14 3 -23 10 -28 21c33 33 50 66 50 90c0 20 -12 33 -37 36c-1 11 2 44 8 60c30 6 58 16 80 30z" />
    <glyph glyph-name="lcommaaccent" unicode="&#x13c;" horiz-adv-x="299" 
d="M110 127v448c0 47 -7 71 -75 71c0 15 2 26 9 37c30 0 110 17 134 34c12 -4 22 -15 22 -40v-550c0 -67 16 -87 59 -87c4 -14 5 -34 5 -43c-35 2 -75 3 -113 3s-82 -1 -115 -3c0 13 1 30 5 43c53 0 69 20 69 87zM175 -43c23 -9 34 -34 34 -67c0 -70 -51 -128 -107 -170
c-14 3 -23 10 -28 21c33 33 50 66 50 90c0 20 -12 33 -37 36c-1 11 2 44 8 60c30 6 58 16 80 30z" />
    <glyph glyph-name="Lcaron" unicode="&#x13d;" horiz-adv-x="560" 
d="M522 643c0 -73 -26 -123 -74 -178c-14 0 -32 5 -40 13c34 47 39 64 39 97c0 28 -15 46 -47 50c0 13 2 43 8 60c30 6 58 16 80 30c23 -9 34 -34 34 -72zM315 45h6c111 0 142 33 175 126c20 -6 32 -12 44 -24c-15 -46 -25 -103 -31 -149c-39 1 -120 2 -194 2
s-209 -1 -259 -3c0 18 1 32 5 43c53 3 70 20 70 98v411c0 67 -16 84 -69 87c-4 11 -5 27 -5 43c39 -2 92 -3 121 -3c43 0 81 1 121 3c0 -18 -1 -32 -5 -43c-53 -3 -69 -20 -69 -90v-408c0 -74 15 -93 90 -93z" />
    <glyph glyph-name="lcaron" unicode="&#x13e;" horiz-adv-x="397" 
d="M110 127v448c0 47 -7 71 -75 71c0 15 2 26 9 37c30 0 110 17 134 34c12 -4 22 -15 22 -40v-550c0 -67 16 -87 59 -87c4 -14 5 -34 5 -43c-35 2 -75 3 -113 3s-82 -1 -115 -3c0 13 1 30 5 43c53 0 69 20 69 87zM392 643c0 -73 -26 -123 -74 -178c-14 0 -32 5 -40 13
c34 47 39 64 39 97c0 28 -15 46 -47 50c0 13 2 43 8 60c30 6 58 16 80 30c23 -9 34 -34 34 -72z" />
    <glyph glyph-name="Ldot" unicode="&#x13f;" horiz-adv-x="560" 
d="M315 45h6c111 0 142 33 175 126c20 -6 32 -12 44 -24c-15 -46 -25 -103 -31 -149c-39 1 -120 2 -194 2s-209 -1 -259 -3c0 18 1 32 5 43c53 3 70 20 70 98v411c0 67 -16 84 -69 87c-4 11 -5 27 -5 43c39 -2 92 -3 121 -3c43 0 81 1 121 3c0 -18 -1 -32 -5 -43
c-53 -3 -69 -20 -69 -90v-408c0 -74 15 -93 90 -93zM516 368c0 -40 -28 -58 -59 -58c-36 0 -57 22 -57 53s25 57 61 57c34 0 55 -29 55 -52z" />
    <glyph glyph-name="ldot" unicode="&#x140;" horiz-adv-x="321" 
d="M110 127v448c0 47 -7 71 -75 71c0 15 2 26 9 37c30 0 110 17 134 34c12 -4 22 -15 22 -40v-550c0 -67 16 -87 59 -87c4 -14 5 -34 5 -43c-35 2 -75 3 -113 3s-82 -1 -115 -3c0 13 1 30 5 43c53 0 69 20 69 87zM373 348c0 -40 -28 -58 -59 -58c-36 0 -57 22 -57 53
s25 57 61 57c34 0 55 -29 55 -52z" />
    <glyph glyph-name="Lslash" unicode="&#x141;" horiz-adv-x="561" 
d="M496 171c20 -6 32 -12 44 -24c-15 -46 -25 -103 -31 -149c-39 1 -120 2 -194 2s-209 -1 -259 -3c0 18 1 32 5 43c53 3 70 20 70 98v128l-46 -52c-16 13 -28 29 -31 40l77 87v208c0 67 -16 84 -69 87c-4 11 -5 27 -5 43c39 -2 92 -3 121 -3c43 0 81 1 121 3
c0 -18 -1 -32 -5 -43c-53 -3 -69 -20 -69 -90v-118l60 68c12 -8 26 -27 31 -39l-91 -105v-214c0 -74 15 -93 90 -93h6c111 0 142 33 175 126z" />
    <glyph glyph-name="lslash" unicode="&#x142;" horiz-adv-x="300" 
d="M200 366v-239c0 -67 16 -87 59 -87c4 -14 5 -34 5 -43c-35 2 -75 3 -113 3s-82 -1 -115 -3c0 13 1 30 5 43c53 0 69 20 69 87v157l-53 -60c-16 13 -28 29 -31 40l84 95v216c0 47 -7 71 -75 71c0 15 2 26 9 37c30 0 110 17 134 34c12 -4 22 -15 22 -40v-236l57 65
c12 -8 26 -27 31 -39z" />
    <glyph glyph-name="Nacute" unicode="&#x143;" horiz-adv-x="742" 
d="M382 749c-12 -1 -26 1 -36 6c32 66 52 121 65 172c29 10 54 13 74 12c12 -1 22 -4 29 -7c-44 -51 -93 -122 -132 -183zM606 676c28 0 68 1 95 3c0 -13 -1 -29 -5 -43c-44 0 -59 -33 -59 -142v-498c-11 -4 -27 -5 -41 -5l-415 542v-346c0 -113 15 -147 69 -147
c4 -12 5 -24 5 -43c-30 2 -70 3 -99 3s-75 -1 -100 -3c0 17 1 31 5 43c54 0 69 34 69 147v413l-4 5c-19 24 -32 28 -65 31c-4 14 -5 32 -5 43c20 -2 49 -3 74 -3s49 1 67 3l389 -516v331c0 109 -15 142 -69 142c-4 23 -5 31 -5 43c29 -2 66 -3 94 -3z" />
    <glyph glyph-name="nacute" unicode="&#x144;" horiz-adv-x="597" 
d="M306 531c-12 -1 -26 1 -36 6c32 66 52 121 65 172c29 10 54 13 74 12c12 -1 22 -4 29 -7c-44 -51 -93 -122 -132 -183zM556 40c4 -12 5 -25 5 -43c-29 2 -68 3 -109 3s-88 -2 -119 -3c0 18 1 32 5 43c48 0 69 20 69 87v152c0 94 -39 122 -93 122
c-52 0 -113 -45 -113 -167v-107c0 -67 17 -87 69 -87c4 -12 5 -25 5 -43c-28 1 -78 3 -119 3s-90 -1 -119 -3c0 18 1 32 5 43c52 0 69 20 69 87v198c0 47 -9 69 -75 71c0 15 2 26 9 37c41 3 103 18 134 34c12 -4 22 -15 22 -44c0 -16 -1 -36 -7 -59c4 7 7 15 15 26
c22 31 74 72 145 72c76 0 143 -41 143 -163v-172c0 -69 19 -87 59 -87z" />
    <glyph glyph-name="Ncommaaccent" unicode="&#x145;" horiz-adv-x="742" 
d="M606 676c28 0 68 1 95 3c0 -13 -1 -29 -5 -43c-44 0 -59 -33 -59 -142v-498c-11 -4 -27 -5 -41 -5l-415 542v-346c0 -113 15 -147 69 -147c4 -12 5 -24 5 -43c-30 2 -70 3 -99 3s-75 -1 -100 -3c0 17 1 31 5 43c54 0 69 34 69 147v413l-4 5c-19 24 -32 28 -65 31
c-4 14 -5 32 -5 43c20 -2 49 -3 74 -3s49 1 67 3l389 -516v331c0 109 -15 142 -69 142c-4 23 -5 31 -5 43c29 -2 66 -3 94 -3zM423 -43c23 -9 34 -34 34 -67c0 -70 -51 -128 -107 -170c-14 3 -23 10 -28 21c33 33 50 66 50 90c0 20 -12 33 -37 36c-1 11 2 44 8 60
c30 6 58 16 80 30z" />
    <glyph glyph-name="ncommaaccent" unicode="&#x146;" horiz-adv-x="597" 
d="M556 40c4 -12 5 -25 5 -43c-29 2 -68 3 -109 3s-88 -2 -119 -3c0 18 1 32 5 43c48 0 69 20 69 87v152c0 94 -39 122 -93 122c-52 0 -113 -45 -113 -167v-107c0 -67 17 -87 69 -87c4 -12 5 -25 5 -43c-28 1 -78 3 -119 3s-90 -1 -119 -3c0 18 1 32 5 43c52 0 69 20 69 87
v198c0 47 -9 69 -75 71c0 15 2 26 9 37c41 3 103 18 134 34c12 -4 22 -15 22 -44c0 -16 -1 -36 -7 -59c4 7 7 15 15 26c22 31 74 72 145 72c76 0 143 -41 143 -163v-172c0 -69 19 -87 59 -87zM329 -43c23 -9 34 -34 34 -67c0 -70 -51 -128 -107 -170c-14 3 -23 10 -28 21
c33 33 50 66 50 90c0 20 -12 33 -37 36c-1 11 2 44 8 60c30 6 58 16 80 30z" />
    <glyph glyph-name="Ncaron" unicode="&#x147;" horiz-adv-x="742" 
d="M359 735c-37 48 -88 107 -141 155c2 13 8 23 20 29c45 -30 100 -71 143 -93c31 17 120 79 136 93c13 -2 25 -10 31 -23c-51 -42 -113 -102 -157 -157c-11 -3 -24 -4 -32 -4zM606 676c28 0 68 1 95 3c0 -13 -1 -29 -5 -43c-44 0 -59 -33 -59 -142v-498
c-11 -4 -27 -5 -41 -5l-415 542v-346c0 -113 15 -147 69 -147c4 -12 5 -24 5 -43c-30 2 -70 3 -99 3s-75 -1 -100 -3c0 17 1 31 5 43c54 0 69 34 69 147v413l-4 5c-19 24 -32 28 -65 31c-4 14 -5 32 -5 43c20 -2 49 -3 74 -3s49 1 67 3l389 -516v331c0 109 -15 142 -69 142
c-4 23 -5 31 -5 43c29 -2 66 -3 94 -3z" />
    <glyph glyph-name="ncaron" unicode="&#x148;" horiz-adv-x="597" 
d="M283 517c-37 48 -88 107 -141 155c2 13 8 23 20 29c45 -30 100 -71 143 -93c31 17 120 79 136 93c13 -2 25 -10 31 -23c-51 -42 -113 -102 -157 -157c-11 -3 -24 -4 -32 -4zM556 40c4 -12 5 -25 5 -43c-29 2 -68 3 -109 3s-88 -2 -119 -3c0 18 1 32 5 43
c48 0 69 20 69 87v152c0 94 -39 122 -93 122c-52 0 -113 -45 -113 -167v-107c0 -67 17 -87 69 -87c4 -12 5 -25 5 -43c-28 1 -78 3 -119 3s-90 -1 -119 -3c0 18 1 32 5 43c52 0 69 20 69 87v198c0 47 -9 69 -75 71c0 15 2 26 9 37c41 3 103 18 134 34c12 -4 22 -15 22 -44
c0 -16 -1 -36 -7 -59c4 7 7 15 15 26c22 31 74 72 145 72c76 0 143 -41 143 -163v-172c0 -69 19 -87 59 -87z" />
    <glyph glyph-name="napostrophe" unicode="&#x149;" horiz-adv-x="746" 
d="M165 719c23 -9 34 -34 34 -72c0 -79 -50 -155 -107 -210c-12 0 -25 6 -32 15c41 46 64 93 64 127c0 28 -15 46 -47 50c0 13 2 43 8 60c30 6 58 16 80 30zM706 40c4 -12 5 -25 5 -43c-29 2 -68 3 -109 3s-88 -2 -119 -3c0 18 1 32 5 43c48 0 69 20 69 87v152
c0 94 -39 122 -93 122c-52 0 -113 -45 -113 -167v-107c0 -67 17 -87 69 -87c4 -12 5 -25 5 -43c-28 1 -78 3 -119 3s-90 -1 -119 -3c0 18 1 32 5 43c52 0 69 20 69 87v198c0 47 -9 69 -75 71c0 15 2 26 9 37c41 3 103 18 134 34c12 -4 22 -15 22 -44c0 -16 -1 -36 -7 -59
c4 7 7 15 15 26c22 31 74 72 145 72c76 0 143 -41 143 -163v-172c0 -69 19 -87 59 -87z" />
    <glyph glyph-name="Eng" unicode="&#x14a;" horiz-adv-x="742" 
d="M606 676c28 0 68 1 95 3c0 -13 -1 -29 -5 -43c-44 0 -59 -33 -59 -142v-369c0 -186 -23 -281 -194 -374c-9 5 -15 15 -17 26c81 68 130 130 130 257v9l-375 490v-346c0 -113 15 -147 69 -147c4 -12 5 -24 5 -43c-30 2 -70 3 -99 3s-75 -1 -100 -3c0 17 1 31 5 43
c54 0 69 34 69 147v413l-4 5c-19 24 -32 28 -65 31c-4 14 -5 32 -5 43c20 -2 49 -3 74 -3s49 1 67 3l389 -516v331c0 109 -15 142 -69 142c-4 23 -5 31 -5 43c29 -2 66 -3 94 -3z" />
    <glyph glyph-name="eng" unicode="&#x14b;" horiz-adv-x="572" 
d="M354 462c76 0 143 -41 143 -163v-276c0 -135 -90 -231 -166 -272c-10 5 -20 15 -22 28c79 92 98 146 98 247v253c0 94 -39 122 -93 122c-52 0 -113 -45 -113 -167v-107c0 -67 17 -87 69 -87c4 -12 5 -25 5 -43c-28 1 -78 3 -119 3s-90 -1 -119 -3c0 18 1 32 5 43
c52 0 69 20 69 87v198c0 47 -9 69 -75 71c0 15 2 26 9 37c41 3 103 18 134 34c12 -4 22 -15 22 -44c0 -16 -1 -36 -7 -59c4 7 7 15 15 26c22 31 74 72 145 72z" />
    <glyph glyph-name="Omacron" unicode="&#x14c;" 
d="M193 849h355c0 -14 -3 -28 -9 -43c-32 0 -184 0 -355 -3c0 8 3 34 9 46zM365 685c191 0 331 -140 331 -345c0 -197 -137 -349 -331 -349c-198 0 -330 150 -330 349c0 204 145 345 330 345zM385 40c130 0 208 121 208 274c0 180 -106 323 -249 323
c-118 0 -206 -108 -206 -270c0 -169 88 -327 247 -327z" />
    <glyph glyph-name="omacron" unicode="&#x14d;" horiz-adv-x="532" 
d="M88 631h355c0 -14 -3 -28 -9 -43c-32 0 -184 0 -355 -3c0 8 3 34 9 46zM266 467c142 0 226 -96 226 -238c0 -137 -91 -238 -226 -238c-137 0 -226 94 -226 238c0 136 93 238 226 238zM256 419c-77 0 -115 -69 -115 -169c0 -135 52 -211 133 -211c80 0 118 73 118 178
c0 124 -62 202 -136 202z" />
    <glyph glyph-name="Ohungarumlaut" unicode="&#x150;" 
d="M315 927c29 10 54 13 74 12c12 -1 22 -4 29 -7c-44 -51 -93 -122 -132 -183c-12 -1 -26 1 -36 6c32 66 52 121 65 172zM475 927c29 10 54 13 74 12c12 -1 22 -4 29 -7c-44 -51 -93 -122 -132 -183c-12 -1 -26 1 -36 6c32 66 52 121 65 172zM365 685
c191 0 331 -140 331 -345c0 -197 -137 -349 -331 -349c-198 0 -330 150 -330 349c0 204 145 345 330 345zM385 40c130 0 208 121 208 274c0 180 -106 323 -249 323c-118 0 -206 -108 -206 -270c0 -169 88 -327 247 -327z" />
    <glyph glyph-name="ohungarumlaut" unicode="&#x151;" horiz-adv-x="532" 
d="M210 709c29 10 54 13 74 12c12 -1 22 -4 29 -7c-44 -51 -93 -122 -132 -183c-12 -1 -26 1 -36 6c32 66 52 121 65 172zM370 709c29 10 54 13 74 12c12 -1 22 -4 29 -7c-44 -51 -93 -122 -132 -183c-12 -1 -26 1 -36 6c32 66 52 121 65 172zM266 467
c142 0 226 -96 226 -238c0 -137 -91 -238 -226 -238c-137 0 -226 94 -226 238c0 136 93 238 226 238zM256 419c-77 0 -115 -69 -115 -169c0 -135 52 -211 133 -211c80 0 118 73 118 178c0 124 -62 202 -136 202z" />
    <glyph glyph-name="OE" unicode="&#x152;" horiz-adv-x="961" 
d="M358 682c44 0 166 -6 257 -6s189 1 250 2c4 -41 11 -111 21 -154c-11 -9 -27 -12 -45 -12c-5 62 -35 126 -167 126h-162c94 -55 134 -158 138 -276h14c79 0 100 30 100 80c18 5 31 7 49 7c-1 -20 -2 -75 -2 -111s1 -92 2 -114c-18 0 -31 1 -46 5c-5 53 -17 90 -111 90h-7
c-5 -114 -45 -215 -134 -274h186c123 0 146 44 175 126c20 -6 32 -12 44 -24c-15 -46 -25 -103 -31 -149c-39 1 -120 2 -218 2c-138 0 -230 -9 -319 -9c-195 0 -317 132 -317 342c0 213 125 349 323 349zM344 634c-129 0 -210 -111 -210 -282c0 -192 89 -312 231 -312
c103 0 183 91 183 284c0 212 -102 310 -204 310z" />
    <glyph glyph-name="oe" unicode="&#x153;" horiz-adv-x="780" 
d="M712 105c11 -6 22 -20 24 -31c-46 -60 -105 -83 -173 -83c-66 0 -118 27 -151 76c-34 -49 -87 -76 -156 -76c-133 0 -216 92 -216 238s83 238 216 238c69 0 122 -27 156 -75c32 48 82 75 146 75c125 0 174 -93 182 -207c-3 -14 -8 -25 -15 -34c-40 0 -165 0 -267 -4
c7 -109 57 -175 137 -175c39 0 84 20 117 58zM264 39c66 0 105 69 105 178c0 124 -46 202 -123 202c-65 0 -106 -65 -106 -169c0 -130 48 -211 124 -211zM549 419c-54 0 -88 -56 -92 -148h179c0 88 -34 148 -87 148z" />
    <glyph glyph-name="Racute" unicode="&#x154;" horiz-adv-x="685" 
d="M334 749c-12 -1 -26 1 -36 6c32 66 52 121 65 172c29 10 54 13 74 12c12 -1 22 -4 29 -7c-44 -51 -93 -122 -132 -183zM506 169c47 -84 86 -126 153 -129c0 -16 0 -29 -4 -43c-50 0 -108 -1 -157 -6c-21 33 -54 92 -86 155c-28 55 -66 110 -114 159c-28 -1 -51 -1 -73 1
v-179c0 -67 15 -84 66 -87c4 -12 5 -29 5 -43c-43 3 -94 3 -119 3c-35 0 -90 -1 -120 -3c0 14 1 30 5 43c54 3 69 20 69 87v422c0 67 -15 87 -69 87c-4 13 -5 26 -5 42c20 -1 73 -2 120 -2c55 0 111 2 167 2c151 0 218 -73 218 -168c0 -89 -63 -154 -167 -182
c44 -41 63 -72 111 -159zM225 634v-280c16 -2 29 -3 44 -3c109 0 195 45 195 149c0 84 -45 142 -165 142c-29 0 -50 -3 -74 -8z" />
    <glyph glyph-name="racute" unicode="&#x155;" horiz-adv-x="419" 
d="M236 531c-12 -1 -26 1 -36 6c32 66 52 121 65 172c29 10 54 13 74 12c12 -1 22 -4 29 -7c-44 -51 -93 -122 -132 -183zM330 458c27 0 48 -8 69 -24c-5 -33 -7 -83 -7 -118c-12 -4 -35 -9 -57 -9c-3 64 -23 78 -49 78c-35 0 -85 -64 -85 -142v-96c0 -87 26 -104 89 -107
c4 -11 5 -25 5 -43c-31 2 -79 3 -126 3s-106 -1 -132 -3c0 18 1 32 5 43c53 3 69 20 69 87v198c0 47 -9 69 -75 71c0 15 2 26 9 37c41 3 103 18 134 34c12 -4 22 -15 22 -44c0 -38 -7 -68 -13 -98c8 23 13 40 21 52c29 46 69 81 121 81z" />
    <glyph glyph-name="Rcommaaccent" unicode="&#x156;" horiz-adv-x="685" 
d="M506 169c47 -84 86 -126 153 -129c0 -16 0 -29 -4 -43c-50 0 -108 -1 -157 -6c-21 33 -54 92 -86 155c-28 55 -66 110 -114 159c-28 -1 -51 -1 -73 1v-179c0 -67 15 -84 66 -87c4 -12 5 -29 5 -43c-43 3 -94 3 -119 3c-35 0 -90 -1 -120 -3c0 14 1 30 5 43
c54 3 69 20 69 87v422c0 67 -15 87 -69 87c-4 13 -5 26 -5 42c20 -1 73 -2 120 -2c55 0 111 2 167 2c151 0 218 -73 218 -168c0 -89 -63 -154 -167 -182c44 -41 63 -72 111 -159zM225 634v-280c16 -2 29 -3 44 -3c109 0 195 45 195 149c0 84 -45 142 -165 142
c-29 0 -50 -3 -74 -8zM372 -43c23 -9 34 -34 34 -67c0 -70 -51 -128 -107 -170c-14 3 -23 10 -28 21c33 33 50 66 50 90c0 20 -12 33 -37 36c-1 11 2 44 8 60c30 6 58 16 80 30z" />
    <glyph glyph-name="rcommaaccent" unicode="&#x157;" horiz-adv-x="419" 
d="M330 458c27 0 48 -8 69 -24c-5 -33 -7 -83 -7 -118c-12 -4 -35 -9 -57 -9c-3 64 -23 78 -49 78c-35 0 -85 -64 -85 -142v-96c0 -87 26 -104 89 -107c4 -11 5 -25 5 -43c-31 2 -79 3 -126 3s-106 -1 -132 -3c0 18 1 32 5 43c53 3 69 20 69 87v198c0 47 -9 69 -75 71
c0 15 2 26 9 37c41 3 103 18 134 34c12 -4 22 -15 22 -44c0 -38 -7 -68 -13 -98c8 23 13 40 21 52c29 46 69 81 121 81zM191 -43c23 -9 34 -34 34 -67c0 -70 -51 -128 -107 -170c-14 3 -23 10 -28 21c33 33 50 66 50 90c0 20 -12 33 -37 36c-1 11 2 44 8 60
c30 6 58 16 80 30z" />
    <glyph glyph-name="Rcaron" unicode="&#x158;" horiz-adv-x="685" 
d="M311 735c-37 48 -88 107 -141 155c2 13 8 23 20 29c45 -30 100 -71 143 -93c31 17 120 79 136 93c13 -2 25 -10 31 -23c-51 -42 -113 -102 -157 -157c-11 -3 -24 -4 -32 -4zM506 169c47 -84 86 -126 153 -129c0 -16 0 -29 -4 -43c-50 0 -108 -1 -157 -6
c-21 33 -54 92 -86 155c-28 55 -66 110 -114 159c-28 -1 -51 -1 -73 1v-179c0 -67 15 -84 66 -87c4 -12 5 -29 5 -43c-43 3 -94 3 -119 3c-35 0 -90 -1 -120 -3c0 14 1 30 5 43c54 3 69 20 69 87v422c0 67 -15 87 -69 87c-4 13 -5 26 -5 42c20 -1 73 -2 120 -2
c55 0 111 2 167 2c151 0 218 -73 218 -168c0 -89 -63 -154 -167 -182c44 -41 63 -72 111 -159zM225 634v-280c16 -2 29 -3 44 -3c109 0 195 45 195 149c0 84 -45 142 -165 142c-29 0 -50 -3 -74 -8z" />
    <glyph glyph-name="rcaron" unicode="&#x159;" horiz-adv-x="419" 
d="M213 517c-37 48 -88 107 -141 155c2 13 8 23 20 29c45 -30 100 -71 143 -93c31 17 120 79 136 93c13 -2 25 -10 31 -23c-51 -42 -113 -102 -157 -157c-11 -3 -24 -4 -32 -4zM209 377c29 46 69 81 121 81c27 0 48 -8 69 -24c-5 -33 -7 -83 -7 -118c-12 -4 -35 -9 -57 -9
c-3 64 -23 78 -49 78c-35 0 -85 -64 -85 -142v-96c0 -87 26 -104 89 -107c4 -11 5 -25 5 -43c-31 2 -79 3 -126 3s-106 -1 -132 -3c0 18 1 32 5 43c53 3 69 20 69 87v198c0 47 -9 69 -75 71c0 15 2 26 9 37c41 3 103 18 134 34c12 -4 22 -15 22 -44c0 -38 -7 -68 -13 -98
c8 23 13 40 21 52z" />
    <glyph glyph-name="Sacute" unicode="&#x15a;" horiz-adv-x="552" 
d="M313 927c29 10 54 13 74 12c12 -1 22 -4 29 -7c-44 -51 -93 -122 -132 -183c-12 -1 -26 1 -36 6c32 66 52 121 65 172zM281 685c69 0 132 -21 167 -44c0 -39 1 -96 6 -132c-15 -6 -38 -9 -56 -9c-20 115 -58 141 -118 141c-71 0 -113 -36 -113 -99
c0 -177 332 -139 332 -359c0 -100 -69 -192 -228 -192c-83 0 -139 25 -203 64c8 50 9 105 9 142c15 4 37 6 54 6c5 -102 47 -164 154 -164c92 0 128 46 128 104c0 177 -333 130 -333 362c0 112 77 180 201 180z" />
    <glyph glyph-name="sacute" unicode="&#x15b;" horiz-adv-x="428" 
d="M238 709c29 10 54 13 74 12c12 -1 22 -4 29 -7c-44 -51 -93 -122 -132 -183c-12 -1 -26 1 -36 6c32 66 52 121 65 172zM357 328c-13 -8 -31 -12 -50 -12c-4 55 -47 110 -112 110c-41 0 -68 -22 -68 -55c0 -34 12 -51 119 -93c108 -41 142 -75 142 -146
c0 -85 -79 -141 -183 -141c-80 0 -120 13 -165 37c4 31 4 92 1 124c11 8 32 11 52 11c10 -84 53 -125 122 -125c54 0 86 27 86 64c0 35 -19 52 -108 88c-108 43 -148 71 -148 152c0 85 99 125 166 125c60 0 103 -12 144 -35c-2 -32 -3 -69 2 -104z" />
    <glyph glyph-name="Scircumflex" unicode="&#x15c;" horiz-adv-x="552" 
d="M277 923c11 3 24 4 32 4c36 -49 86 -109 146 -168c-6 -8 -18 -15 -30 -18c-43 30 -97 72 -140 95c-31 -16 -121 -76 -154 -101c-9 9 -11 29 -11 38c50 38 112 96 157 150zM281 685c69 0 132 -21 167 -44c0 -39 1 -96 6 -132c-15 -6 -38 -9 -56 -9
c-20 115 -58 141 -118 141c-71 0 -113 -36 -113 -99c0 -177 332 -139 332 -359c0 -100 -69 -192 -228 -192c-83 0 -139 25 -203 64c8 50 9 105 9 142c15 4 37 6 54 6c5 -102 47 -164 154 -164c92 0 128 46 128 104c0 177 -333 130 -333 362c0 112 77 180 201 180z" />
    <glyph glyph-name="scircumflex" unicode="&#x15d;" horiz-adv-x="428" 
d="M202 705c11 3 24 4 32 4c36 -49 86 -109 146 -168c-6 -8 -18 -15 -30 -18c-43 30 -97 72 -140 95c-31 -16 -121 -76 -154 -101c-9 9 -11 29 -11 38c50 38 112 96 157 150zM357 328c-13 -8 -31 -12 -50 -12c-4 55 -47 110 -112 110c-41 0 -68 -22 -68 -55
c0 -34 12 -51 119 -93c108 -41 142 -75 142 -146c0 -85 -79 -141 -183 -141c-80 0 -120 13 -165 37c4 31 4 92 1 124c11 8 32 11 52 11c10 -84 53 -125 122 -125c54 0 86 27 86 64c0 35 -19 52 -108 88c-108 43 -148 71 -148 152c0 85 99 125 166 125c60 0 103 -12 144 -35
c-2 -32 -3 -69 2 -104z" />
    <glyph glyph-name="Scedilla" unicode="&#x15e;" horiz-adv-x="552" 
d="M499 183c0 -93 -60 -180 -197 -191l-31 -42c53 -9 87 -43 87 -91c0 -66 -76 -101 -128 -101c-5 9 -7 22 -7 32c40 0 79 20 79 55c0 33 -28 54 -65 54c-10 8 -18 21 -18 38l34 54c-73 4 -126 28 -185 64c8 50 9 105 9 142c15 4 37 6 54 6c5 -102 47 -164 154 -164
c92 0 128 46 128 104c0 177 -333 130 -333 362c0 112 77 180 201 180c69 0 132 -21 167 -44c0 -39 1 -96 6 -132c-15 -6 -38 -9 -56 -9c-20 115 -58 141 -118 141c-71 0 -113 -36 -113 -99c0 -177 332 -139 332 -359z" />
    <glyph glyph-name="scedilla" unicode="&#x15f;" horiz-adv-x="428" 
d="M388 132c0 -80 -70 -135 -166 -140l-30 -42c53 -9 87 -43 87 -91c0 -66 -76 -101 -128 -101c-5 9 -7 22 -7 32c40 0 79 20 79 55c0 33 -28 54 -65 54c-10 8 -18 21 -18 38l35 55c-61 3 -96 15 -135 36c4 31 4 92 1 124c11 8 32 11 52 11c10 -84 53 -125 122 -125
c54 0 86 27 86 64c0 35 -19 52 -108 88c-108 43 -148 71 -148 152c0 85 99 125 166 125c60 0 103 -12 144 -35c-2 -32 -3 -69 2 -104c-13 -8 -31 -12 -50 -12c-4 55 -47 110 -112 110c-41 0 -68 -22 -68 -55c0 -34 12 -51 119 -93c108 -41 142 -75 142 -146z" />
    <glyph glyph-name="Scaron" unicode="&#x160;" horiz-adv-x="552" 
d="M419 919c13 -2 25 -10 31 -23c-51 -42 -113 -102 -157 -157c-11 -3 -24 -4 -32 -4c-37 48 -88 107 -141 155c2 13 8 23 20 29c45 -30 100 -71 143 -93c31 17 120 79 136 93zM281 685c69 0 132 -21 167 -44c0 -39 1 -96 6 -132c-15 -6 -38 -9 -56 -9
c-20 115 -58 141 -118 141c-71 0 -113 -36 -113 -99c0 -177 332 -139 332 -359c0 -100 -69 -192 -228 -192c-83 0 -139 25 -203 64c8 50 9 105 9 142c15 4 37 6 54 6c5 -102 47 -164 154 -164c92 0 128 46 128 104c0 177 -333 130 -333 362c0 112 77 180 201 180z" />
    <glyph glyph-name="scaron" unicode="&#x161;" horiz-adv-x="428" 
d="M344 701c13 -2 25 -10 31 -23c-51 -42 -113 -102 -157 -157c-11 -3 -24 -4 -32 -4c-37 48 -88 107 -141 155c2 13 8 23 20 29c45 -30 100 -71 143 -93c31 17 120 79 136 93zM357 328c-13 -8 -31 -12 -50 -12c-4 55 -47 110 -112 110c-41 0 -68 -22 -68 -55
c0 -34 12 -51 119 -93c108 -41 142 -75 142 -146c0 -85 -79 -141 -183 -141c-80 0 -120 13 -165 37c4 31 4 92 1 124c11 8 32 11 52 11c10 -84 53 -125 122 -125c54 0 86 27 86 64c0 35 -19 52 -108 88c-108 43 -148 71 -148 152c0 85 99 125 166 125c60 0 103 -12 144 -35
c-2 -32 -3 -69 2 -104z" />
    <glyph glyph-name="Tcedilla" unicode="&#x162;" horiz-adv-x="585" 
d="M553 679c-2 -48 0 -96 6 -160c-14 -7 -30 -10 -50 -9c-2 81 -35 127 -113 127h-53v-510c0 -67 13 -84 78 -87c4 -11 5 -25 5 -43c-36 2 -75 3 -112 3l-36 -50c53 -9 87 -43 87 -91c0 -66 -76 -101 -128 -101c-5 9 -7 22 -7 32c40 0 79 20 79 55c0 33 -28 54 -65 54
c-10 8 -18 21 -18 38l40 63c-35 0 -73 -1 -102 -3c0 18 1 32 5 43c64 3 80 20 80 87v510h-51c-97 0 -111 -51 -125 -127c-15 0 -36 2 -48 9c10 56 16 114 16 160c56 -3 154 -3 255 -3s202 0 257 3z" />
    <glyph glyph-name="tcedilla" unicode="&#x163;" horiz-adv-x="351" 
d="M208 -9h-1l-30 -41c53 -9 87 -43 87 -91c0 -66 -76 -101 -128 -101c-5 9 -7 22 -7 32c40 0 79 20 79 55c0 33 -28 54 -65 54c-10 8 -18 21 -18 38l38 59c-48 14 -71 53 -71 124v271c-20 7 -39 11 -72 13c0 17 2 28 9 44h63v132c26 7 55 23 75 40c13 -6 16 -10 16 -52
v-120h129c0 -13 -3 -29 -9 -44c-48 -2 -87 -6 -120 -13v-250c0 -67 21 -96 57 -96c28 0 47 8 66 24c8 -9 14 -22 15 -33c-22 -25 -71 -45 -113 -45z" />
    <glyph glyph-name="Tcaron" unicode="&#x164;" horiz-adv-x="585" 
d="M280 735c-37 48 -88 107 -141 155c2 13 8 23 20 29c45 -30 100 -71 143 -93c31 17 120 79 136 93c13 -2 25 -10 31 -23c-51 -42 -113 -102 -157 -157c-11 -3 -24 -4 -32 -4zM553 679c-2 -48 0 -96 6 -160c-14 -7 -30 -10 -50 -9c-2 81 -35 127 -113 127h-53v-510
c0 -67 13 -84 78 -87c4 -11 5 -25 5 -43c-43 2 -89 3 -131 3s-94 -1 -131 -3c0 18 1 32 5 43c64 3 80 20 80 87v510h-51c-97 0 -111 -51 -125 -127c-15 0 -36 2 -48 9c10 56 16 114 16 160c56 -3 154 -3 255 -3s202 0 257 3z" />
    <glyph glyph-name="tcaron" unicode="&#x165;" horiz-adv-x="454" 
d="M472 643c0 -73 -26 -123 -74 -178c-14 0 -32 5 -40 13c34 47 39 64 39 97c0 28 -15 46 -47 50c0 13 2 43 8 60c30 6 58 16 80 30c23 -9 34 -34 34 -72zM92 448v132c26 7 55 23 75 40c13 -6 16 -10 16 -52v-120h129c0 -13 -3 -29 -9 -44c-48 -2 -87 -6 -120 -13v-250
c0 -67 21 -96 57 -96c28 0 47 8 66 24c8 -9 14 -22 15 -33c-22 -25 -71 -45 -113 -45c-79 0 -116 38 -116 129v271c-20 7 -39 11 -72 13c0 17 2 28 9 44h63z" />
    <glyph glyph-name="Tbar" unicode="&#x166;" horiz-adv-x="585" 
d="M124 849h355c0 -14 -3 -28 -9 -43c-32 0 -184 0 -355 -3c0 8 3 34 9 46zM553 679c-2 -48 0 -96 6 -160c-14 -7 -30 -10 -50 -9c-2 81 -35 127 -113 127h-53v-510c0 -67 13 -84 78 -87c4 -11 5 -25 5 -43c-43 2 -89 3 -131 3s-94 -1 -131 -3c0 18 1 32 5 43
c64 3 80 20 80 87v510h-51c-97 0 -111 -51 -125 -127c-15 0 -36 2 -48 9c10 56 16 114 16 160c56 -3 154 -3 255 -3s202 0 257 3z" />
    <glyph glyph-name="tbar" unicode="&#x167;" horiz-adv-x="351" 
d="M306 69c8 -9 14 -22 15 -33c-22 -25 -71 -45 -113 -45c-79 0 -116 38 -116 129v126l-53 -2c0 17 2 29 9 46h44v101c-20 7 -39 11 -72 13c0 17 2 28 9 44h63v132c26 7 55 23 75 40c13 -6 16 -10 16 -52v-120h129c0 -13 -3 -29 -9 -44c-48 -2 -87 -6 -120 -13v-101h84
c0 -16 -4 -28 -9 -43h-75v-106c0 -67 21 -96 57 -96c28 0 47 8 66 24z" />
    <glyph glyph-name="Umacron" unicode="&#x16a;" horiz-adv-x="675" 
d="M187 849h355c0 -14 -3 -28 -9 -43c-32 0 -184 0 -355 -3c0 8 3 34 9 46zM570 509v-240c0 -115 -11 -175 -57 -221c-38 -38 -94 -57 -162 -57c-186 0 -245 85 -245 240v318c0 71 -10 81 -59 87c-4 14 -5 30 -5 43c27 -2 75 -3 116 -3s86 1 116 3c0 -13 -1 -29 -5 -43
c-59 -5 -69 -14 -69 -87v-304c0 -113 37 -201 170 -201c33 0 78 10 106 38c31 31 43 72 43 179v248c0 96 -10 122 -69 127c-4 20 -5 29 -5 43c23 -2 64 -3 94 -3s69 1 95 3c0 -9 -1 -21 -5 -43c-46 -5 -59 -30 -59 -127z" />
    <glyph glyph-name="umacron" unicode="&#x16b;" horiz-adv-x="559" 
d="M90 631h355c0 -14 -3 -28 -9 -43c-32 0 -184 0 -355 -3c0 8 3 34 9 46zM462 423v-287c0 -47 7 -68 62 -68c0 -14 -1 -32 -6 -46c-33 -2 -83 -14 -114 -31c-14 6 -25 12 -25 58c0 9 0 22 3 42c-7 -16 -18 -30 -32 -44c-35 -35 -71 -51 -125 -51c-90 0 -143 45 -143 178
v151c0 47 -5 69 -66 71c0 15 1 25 7 37c41 3 96 18 127 34c12 -4 22 -15 22 -44v-227c0 -90 21 -139 83 -139c66 0 117 55 117 171v102c0 47 -9 69 -75 71c0 15 0 25 7 37c52 3 106 15 136 29c12 -4 22 -15 22 -44z" />
    <glyph glyph-name="Ubreve" unicode="&#x16c;" horiz-adv-x="675" 
d="M523 915c0 -108 -61 -170 -168 -170c-105 0 -165 60 -165 165c12 7 27 11 40 11c10 -68 62 -111 135 -111s121 43 125 111c14 0 27 -2 33 -6zM570 509v-240c0 -115 -11 -175 -57 -221c-38 -38 -94 -57 -162 -57c-186 0 -245 85 -245 240v318c0 71 -10 81 -59 87
c-4 14 -5 30 -5 43c27 -2 75 -3 116 -3s86 1 116 3c0 -13 -1 -29 -5 -43c-59 -5 -69 -14 -69 -87v-304c0 -113 37 -201 170 -201c33 0 78 10 106 38c31 31 43 72 43 179v248c0 96 -10 122 -69 127c-4 20 -5 29 -5 43c23 -2 64 -3 94 -3s69 1 95 3c0 -9 -1 -21 -5 -43
c-46 -5 -59 -30 -59 -127z" />
    <glyph glyph-name="ubreve" unicode="&#x16d;" horiz-adv-x="559" 
d="M258 527c-105 0 -165 60 -165 165c12 7 27 11 40 11c10 -68 62 -111 135 -111s121 43 125 111c14 0 27 -2 33 -6c0 -108 -61 -170 -168 -170zM462 423v-287c0 -47 7 -68 62 -68c0 -14 -1 -32 -6 -46c-33 -2 -83 -14 -114 -31c-14 6 -25 12 -25 58c0 9 0 22 3 42
c-7 -16 -18 -30 -32 -44c-35 -35 -71 -51 -125 -51c-90 0 -143 45 -143 178v151c0 47 -5 69 -66 71c0 15 1 25 7 37c41 3 96 18 127 34c12 -4 22 -15 22 -44v-227c0 -90 21 -139 83 -139c66 0 117 55 117 171v102c0 47 -9 69 -75 71c0 15 0 25 7 37c52 3 106 15 136 29
c12 -4 22 -15 22 -44z" />
    <glyph glyph-name="Uring" unicode="&#x16e;" horiz-adv-x="675" 
d="M362 926c49 0 98 -27 98 -87c0 -54 -46 -95 -105 -95c-51 0 -97 34 -97 88c0 53 46 94 104 94zM365 781c21 0 41 18 41 48c0 28 -16 63 -51 63c-25 0 -42 -21 -42 -56c0 -31 19 -55 52 -55zM570 509v-240c0 -115 -11 -175 -57 -221c-38 -38 -94 -57 -162 -57
c-186 0 -245 85 -245 240v318c0 71 -10 81 -59 87c-4 14 -5 30 -5 43c27 -2 75 -3 116 -3s86 1 116 3c0 -13 -1 -29 -5 -43c-59 -5 -69 -14 -69 -87v-304c0 -113 37 -201 170 -201c33 0 78 10 106 38c31 31 43 72 43 179v248c0 96 -10 122 -69 127c-4 20 -5 29 -5 43
c23 -2 64 -3 94 -3s69 1 95 3c0 -9 -1 -21 -5 -43c-46 -5 -59 -30 -59 -127z" />
    <glyph glyph-name="uring" unicode="&#x16f;" horiz-adv-x="559" 
d="M258 526c-51 0 -97 34 -97 88c0 53 46 94 104 94c49 0 98 -27 98 -87c0 -54 -46 -95 -105 -95zM258 674c-25 0 -42 -21 -42 -56c0 -31 19 -55 52 -55c21 0 41 18 41 48c0 28 -16 63 -51 63zM462 423v-287c0 -47 7 -68 62 -68c0 -14 -1 -32 -6 -46
c-33 -2 -83 -14 -114 -31c-14 6 -25 12 -25 58c0 9 0 22 3 42c-7 -16 -18 -30 -32 -44c-35 -35 -71 -51 -125 -51c-90 0 -143 45 -143 178v151c0 47 -5 69 -66 71c0 15 1 25 7 37c41 3 96 18 127 34c12 -4 22 -15 22 -44v-227c0 -90 21 -139 83 -139c66 0 117 55 117 171
v102c0 47 -9 69 -75 71c0 15 0 25 7 37c52 3 106 15 136 29c12 -4 22 -15 22 -44z" />
    <glyph glyph-name="Uhungarumlaut" unicode="&#x170;" horiz-adv-x="675" 
d="M309 927c29 10 54 13 74 12c12 -1 22 -4 29 -7c-44 -51 -93 -122 -132 -183c-12 -1 -26 1 -36 6c32 66 52 121 65 172zM469 927c29 10 54 13 74 12c12 -1 22 -4 29 -7c-44 -51 -93 -122 -132 -183c-12 -1 -26 1 -36 6c32 66 52 121 65 172zM570 509v-240
c0 -115 -11 -175 -57 -221c-38 -38 -94 -57 -162 -57c-186 0 -245 85 -245 240v318c0 71 -10 81 -59 87c-4 14 -5 30 -5 43c27 -2 75 -3 116 -3s86 1 116 3c0 -13 -1 -29 -5 -43c-59 -5 -69 -14 -69 -87v-304c0 -113 37 -201 170 -201c33 0 78 10 106 38c31 31 43 72 43 179
v248c0 96 -10 122 -69 127c-4 20 -5 29 -5 43c23 -2 64 -3 94 -3s69 1 95 3c0 -9 -1 -21 -5 -43c-46 -5 -59 -30 -59 -127z" />
    <glyph glyph-name="uhungarumlaut" unicode="&#x171;" horiz-adv-x="559" 
d="M183 531c-12 -1 -26 1 -36 6c32 66 52 121 65 172c29 10 54 13 74 12c12 -1 22 -4 29 -7c-44 -51 -93 -122 -132 -183zM343 531c-12 -1 -26 1 -36 6c32 66 52 121 65 172c29 10 54 13 74 12c12 -1 22 -4 29 -7c-44 -51 -93 -122 -132 -183zM462 423v-287
c0 -47 7 -68 62 -68c0 -14 -1 -32 -6 -46c-33 -2 -83 -14 -114 -31c-14 6 -25 12 -25 58c0 9 0 22 3 42c-7 -16 -18 -30 -32 -44c-35 -35 -71 -51 -125 -51c-90 0 -143 45 -143 178v151c0 47 -5 69 -66 71c0 15 1 25 7 37c41 3 96 18 127 34c12 -4 22 -15 22 -44v-227
c0 -90 21 -139 83 -139c66 0 117 55 117 171v102c0 47 -9 69 -75 71c0 15 0 25 7 37c52 3 106 15 136 29c12 -4 22 -15 22 -44z" />
    <glyph glyph-name="Uogonek" unicode="&#x172;" horiz-adv-x="675" 
d="M539 676c30 0 69 1 95 3c0 -9 -1 -21 -5 -43c-46 -5 -59 -30 -59 -127v-240c0 -115 -11 -175 -57 -221c-8 -8 -17 -15 -26 -22c-54 -40 -83 -77 -83 -125c0 -49 30 -64 63 -64c12 0 27 2 42 8c6 -11 8 -23 7 -39c-26 -13 -50 -30 -74 -53c-6 -2 -12 -2 -19 -2
c-43 0 -97 29 -97 109c0 48 19 92 78 135c-17 -3 -34 -4 -53 -4c-186 0 -245 85 -245 240v318c0 71 -10 81 -59 87c-4 14 -5 30 -5 43c27 -2 75 -3 116 -3s86 1 116 3c0 -13 -1 -29 -5 -43c-59 -5 -69 -14 -69 -87v-304c0 -113 37 -201 170 -201c33 0 78 10 106 38
c31 31 43 72 43 179v248c0 96 -10 122 -69 127c-4 20 -5 29 -5 43c23 -2 64 -3 94 -3z" />
    <glyph glyph-name="uogonek" unicode="&#x173;" horiz-adv-x="559" 
d="M518 22c-73 -25 -115 -72 -115 -126c0 -48 33 -59 62 -59c13 0 28 2 43 8c6 -11 8 -23 7 -39c-26 -13 -50 -30 -74 -53c-6 -2 -12 -2 -19 -2c-45 0 -97 28 -97 104c0 45 18 92 78 136c-14 6 -24 13 -24 58c0 9 0 22 3 42c-7 -16 -18 -30 -32 -44
c-35 -35 -71 -51 -125 -51c-90 0 -143 45 -143 178v151c0 47 -5 69 -66 71c0 15 1 25 7 37c41 3 96 18 127 34c12 -4 22 -15 22 -44v-227c0 -90 21 -139 83 -139c66 0 117 55 117 171v102c0 47 -9 69 -75 71c0 15 0 25 7 37c52 3 106 15 136 29c12 -4 22 -15 22 -44v-287
c0 -47 7 -68 62 -68c0 -14 -1 -32 -6 -46z" />
    <glyph glyph-name="Wcircumflex" unicode="&#x174;" horiz-adv-x="1004" 
d="M530 836c-31 -16 -121 -76 -154 -101c-9 9 -11 29 -11 38c50 38 112 96 157 150c11 3 24 4 32 4c36 -49 86 -109 146 -168c-6 -8 -18 -15 -30 -18c-43 30 -97 72 -140 95zM883 676c31 0 68 1 95 3c0 -13 -2 -29 -7 -43c-35 -8 -51 -34 -84 -145l-146 -494
c-11 -4 -25 -6 -40 -6c-60 166 -135 362 -201 529l-170 -523c-11 -4 -28 -6 -43 -6c-57 177 -117 355 -178 530c-37 107 -43 111 -79 115c-4 13 -5 29 -5 43c32 -2 82 -3 113 -3s84 1 121 3c0 -11 -1 -27 -5 -43c-70 -4 -78 -14 -47 -103c39 -110 87 -253 125 -371l171 517
c10 4 23 5 44 5c64 -161 137 -356 197 -522l97 332c30 101 17 134 -48 142c-5 13 -7 32 -7 43c28 -2 61 -3 97 -3z" />
    <glyph glyph-name="wcircumflex" unicode="&#x175;" horiz-adv-x="774" 
d="M410 618c-31 -16 -121 -76 -154 -101c-9 9 -11 29 -11 38c50 38 112 96 157 150c11 3 24 4 32 4c36 -49 86 -109 146 -168c-6 -8 -18 -15 -30 -18c-43 30 -97 72 -140 95zM671 458c36 0 65 1 88 3c0 -18 -2 -30 -8 -44c-30 -8 -41 -28 -74 -126l-101 -300
c-19 0 -34 2 -46 9c-42 101 -93 224 -140 328l-131 -337c-22 0 -33 2 -44 9c-43 120 -88 238 -138 358c-15 37 -27 50 -56 59c-5 13 -6 31 -6 43c26 -1 54 -2 98 -2s76 1 110 3c0 -13 -1 -34 -5 -44c-56 -6 -58 -23 -43 -60c30 -72 63 -163 90 -238l129 343
c13 0 30 -1 40 -4c42 -92 94 -218 143 -340l54 170c31 97 9 123 -40 129c-6 14 -9 30 -9 44c25 -2 60 -3 89 -3z" />
    <glyph glyph-name="Ycircumflex" unicode="&#x176;" horiz-adv-x="630" 
d="M349 836c-31 -16 -121 -76 -154 -101c-9 9 -11 29 -11 38c50 38 112 96 157 150c11 3 24 4 32 4c36 -49 86 -109 146 -168c-6 -8 -18 -15 -30 -18c-43 30 -97 72 -140 95zM519 676c30 0 63 1 86 2c0 -14 -1 -25 -4 -39c-36 -10 -67 -40 -101 -108l-135 -271v-97
c0 -106 9 -114 77 -123c4 -12 6 -27 6 -43c-44 1 -90 3 -127 3c-44 0 -108 -1 -136 -2c0 14 2 30 6 42c71 6 80 16 80 110v109l-166 319c-21 41 -37 57 -74 59c-5 15 -6 27 -6 41c28 -1 66 -2 104 -2s103 0 134 2c0 -15 -1 -25 -5 -39c-52 -5 -58 -25 -28 -82
c35 -67 77 -153 117 -243c41 91 78 168 108 228c36 70 26 87 -27 95c-4 14 -7 26 -7 41c24 -2 68 -2 98 -2z" />
    <glyph glyph-name="ycircumflex" unicode="&#x177;" horiz-adv-x="541" 
d="M301 618c-31 -16 -121 -76 -154 -101c-9 9 -11 29 -11 38c50 38 112 96 157 150c11 3 24 4 32 4c36 -49 86 -109 146 -168c-6 -8 -18 -15 -30 -18c-43 30 -97 72 -140 95zM426 458c37 0 70 0 100 2c0 -13 0 -29 -6 -43c-37 -9 -49 -28 -81 -104l-147 -350
c-76 -182 -113 -212 -174 -212c-40 0 -62 13 -75 23c-5 20 -3 56 1 73c23 -4 44 -6 64 -6c39 0 75 17 101 59c10 15 27 49 46 93c-46 104 -103 229 -136 301c-47 100 -64 116 -98 123c-4 12 -6 27 -6 43c38 -1 78 -2 113 -2s92 1 133 2c0 -17 -2 -31 -7 -43
c-72 -12 -79 -35 -43 -110c26 -53 65 -145 90 -206l9 23l69 174c34 85 14 108 -45 119c-5 14 -7 28 -7 43c31 -2 62 -2 99 -2z" />
    <glyph glyph-name="Ydieresis" unicode="&#x178;" horiz-adv-x="630" 
d="M246 750c-34 0 -57 22 -57 51s16 57 55 57c40 0 57 -24 57 -55s-24 -53 -55 -53zM442 751c-39 0 -59 23 -59 56c0 32 23 51 56 51s57 -21 57 -51c0 -28 -14 -56 -54 -56zM519 676c30 0 63 1 86 2c0 -14 -1 -25 -4 -39c-36 -10 -67 -40 -101 -108l-135 -271v-97
c0 -106 9 -114 77 -123c4 -12 6 -27 6 -43c-44 1 -90 3 -127 3c-44 0 -108 -1 -136 -2c0 14 2 30 6 42c71 6 80 16 80 110v109l-166 319c-21 41 -37 57 -74 59c-5 15 -6 27 -6 41c28 -1 66 -2 104 -2s103 0 134 2c0 -15 -1 -25 -5 -39c-52 -5 -58 -25 -28 -82
c35 -67 77 -153 117 -243c41 91 78 168 108 228c36 70 26 87 -27 95c-4 14 -7 26 -7 41c24 -2 68 -2 98 -2z" />
    <glyph glyph-name="Zacute" unicode="&#x179;" horiz-adv-x="631" 
d="M337 749c-12 -1 -26 1 -36 6c32 66 52 121 65 172c29 10 54 13 74 12c12 -1 22 -4 29 -7c-44 -51 -93 -122 -132 -183zM516 169c21 -2 38 -7 52 -17c-11 -44 -17 -102 -18 -155c-98 3 -169 3 -261 3s-182 -1 -223 -3c-5 10 -8 19 -8 32c125 202 249 402 367 607h-142
c-88 0 -122 -19 -143 -128c-17 0 -44 2 -57 10c12 42 19 106 19 160c41 -1 178 -2 244 -2s121 0 192 2c6 -7 11 -20 11 -33c-121 -211 -239 -408 -364 -603h154c123 0 155 18 177 127z" />
    <glyph glyph-name="zacute" unicode="&#x17a;" horiz-adv-x="501" 
d="M256 531c-12 -1 -26 1 -36 6c32 66 52 121 65 172c29 10 54 13 74 12c12 -1 22 -4 29 -7c-44 -51 -93 -122 -132 -183zM448 150c0 -33 2 -97 8 -133c-5 -11 -16 -19 -32 -19c-51 1 -92 2 -179 2c-88 0 -142 -1 -178 -2c-9 9 -16 24 -16 40c66 91 212 296 264 376h-92
c-72 0 -92 -18 -111 -106c-16 0 -37 2 -52 8c4 44 7 94 7 145c41 -2 122 -3 183 -3c59 0 138 1 177 3c9 -11 13 -29 13 -43c-66 -95 -199 -279 -270 -373h127c71 0 91 15 98 111c16 0 33 -1 53 -6z" />
    <glyph glyph-name="Zdotaccent" unicode="&#x17b;" horiz-adv-x="631" 
d="M330 748c-34 0 -59 26 -59 58c0 36 28 61 59 61c36 0 60 -25 60 -61c0 -31 -27 -58 -60 -58zM516 169c21 -2 38 -7 52 -17c-11 -44 -17 -102 -18 -155c-98 3 -169 3 -261 3s-182 -1 -223 -3c-5 10 -8 19 -8 32c125 202 249 402 367 607h-142c-88 0 -122 -19 -143 -128
c-17 0 -44 2 -57 10c12 42 19 106 19 160c41 -1 178 -2 244 -2s121 0 192 2c6 -7 11 -20 11 -33c-121 -211 -239 -408 -364 -603h154c123 0 155 18 177 127z" />
    <glyph glyph-name="zdotaccent" unicode="&#x17c;" horiz-adv-x="501" 
d="M249 530c-34 0 -59 26 -59 58c0 36 28 61 59 61c36 0 60 -25 60 -61c0 -31 -27 -58 -60 -58zM448 150c0 -33 2 -97 8 -133c-5 -11 -16 -19 -32 -19c-51 1 -92 2 -179 2c-88 0 -142 -1 -178 -2c-9 9 -16 24 -16 40c66 91 212 296 264 376h-92c-72 0 -92 -18 -111 -106
c-16 0 -37 2 -52 8c4 44 7 94 7 145c41 -2 122 -3 183 -3c59 0 138 1 177 3c9 -11 13 -29 13 -43c-66 -95 -199 -279 -270 -373h127c71 0 91 15 98 111c16 0 33 -1 53 -6z" />
    <glyph glyph-name="Zcaron" unicode="&#x17d;" horiz-adv-x="631" 
d="M314 735c-37 48 -88 107 -141 155c2 13 8 23 20 29c45 -30 100 -71 143 -93c31 17 120 79 136 93c13 -2 25 -10 31 -23c-51 -42 -113 -102 -157 -157c-11 -3 -24 -4 -32 -4zM516 169c21 -2 38 -7 52 -17c-11 -44 -17 -102 -18 -155c-98 3 -169 3 -261 3s-182 -1 -223 -3
c-5 10 -8 19 -8 32c125 202 249 402 367 607h-142c-88 0 -122 -19 -143 -128c-17 0 -44 2 -57 10c12 42 19 106 19 160c41 -1 178 -2 244 -2s121 0 192 2c6 -7 11 -20 11 -33c-121 -211 -239 -408 -364 -603h154c123 0 155 18 177 127z" />
    <glyph glyph-name="zcaron" unicode="&#x17e;" horiz-adv-x="501" 
d="M233 517c-37 48 -88 107 -141 155c2 13 8 23 20 29c45 -30 100 -71 143 -93c31 17 120 79 136 93c13 -2 25 -10 31 -23c-51 -42 -113 -102 -157 -157c-11 -3 -24 -4 -32 -4zM448 150c0 -33 2 -97 8 -133c-5 -11 -16 -19 -32 -19c-51 1 -92 2 -179 2
c-88 0 -142 -1 -178 -2c-9 9 -16 24 -16 40c66 91 212 296 264 376h-92c-72 0 -92 -18 -111 -106c-16 0 -37 2 -52 8c4 44 7 94 7 145c41 -2 122 -3 183 -3c59 0 138 1 177 3c9 -11 13 -29 13 -43c-66 -95 -199 -279 -270 -373h127c71 0 91 15 98 111c16 0 33 -1 53 -6z" />
    <glyph glyph-name="longs" unicode="&#x17f;" horiz-adv-x="322" 
d="M325 714c52 0 73 -12 95 -25c-3 -42 -4 -81 -4 -117c-17 -5 -39 -8 -57 -8c0 54 -22 95 -78 95c-54 0 -75 -51 -75 -140v-372c0 -87 26 -104 89 -107c4 -11 5 -25 5 -43c-31 2 -79 3 -126 3s-106 -1 -132 -3c0 18 1 32 5 43c53 3 69 20 69 87v268c-29 6 -60 8 -80 8
c0 17 4 32 14 45h66v40c0 150 105 226 209 226z" />
    <glyph glyph-name="florin" unicode="&#x192;" horiz-adv-x="380" 
d="M372 714c45 0 84 -12 101 -25c-14 -30 -24 -70 -26 -107c-11 -6 -26 -9 -42 -8c-3 70 -27 94 -65 94c-49 0 -73 -41 -108 -220h99c0 -14 -2 -28 -7 -39c-37 0 -74 -4 -101 -8c-23 -129 -38 -230 -47 -283c-41 -244 -100 -366 -249 -366c-47 0 -85 12 -102 25
c14 30 24 70 26 107c11 6 26 9 42 8c2 -65 27 -94 60 -94c56 0 98 83 125 261c11 73 32 242 47 344c-22 3 -47 6 -70 6c0 14 4 29 11 39h67l1 6c36 188 129 260 238 260z" />
    <glyph glyph-name="Oslashacute" unicode="&#x1fe;" 
d="M372 749c-12 -1 -26 1 -36 6c32 66 52 121 65 172c29 10 54 13 74 12c12 -1 22 -4 29 -7c-44 -51 -93 -122 -132 -183zM655 685l-64 -85c66 -61 105 -151 105 -260c0 -197 -137 -349 -331 -349c-79 0 -147 24 -201 65l-66 -85c-19 0 -37 10 -44 22l75 94
c-60 63 -94 152 -94 253c0 204 145 345 330 345c71 0 135 -19 187 -54l52 70c20 0 38 -3 51 -16zM344 637c-118 0 -206 -108 -206 -270c0 -76 18 -149 52 -208l311 409c-42 43 -96 69 -157 69zM385 40c130 0 208 121 208 274c0 83 -23 158 -61 215l-314 -410
c41 -49 97 -79 167 -79z" />
    <glyph glyph-name="oslashacute" unicode="&#x1ff;" horiz-adv-x="532" 
d="M267 531c-12 -1 -26 1 -36 6c32 66 52 121 65 172c29 10 54 13 74 12c12 -1 22 -4 29 -7c-44 -51 -93 -122 -132 -183zM472 458l-42 -54c40 -42 62 -103 62 -175c0 -137 -91 -238 -226 -238c-52 0 -97 13 -132 38l-54 -68c-19 0 -37 10 -44 22l62 77
c-37 41 -58 99 -58 169c0 136 93 238 226 238c49 0 91 -11 125 -32l37 47c21 -3 31 -8 44 -24zM256 419c-77 0 -115 -69 -115 -169c0 -45 6 -84 17 -115l186 240c-24 28 -55 44 -88 44zM274 39c80 0 118 73 118 178c0 44 -8 83 -21 114l-190 -243c23 -32 55 -49 93 -49z" />
    <glyph glyph-name="Scommaaccent" unicode="&#x218;" horiz-adv-x="552" 
d="M281 685c69 0 132 -21 167 -44c0 -39 1 -96 6 -132c-15 -6 -38 -9 -56 -9c-20 115 -58 141 -118 141c-71 0 -113 -36 -113 -99c0 -177 332 -139 332 -359c0 -100 -69 -192 -228 -192c-83 0 -139 25 -203 64c8 50 9 105 9 142c15 4 37 6 54 6c5 -102 47 -164 154 -164
c92 0 128 46 128 104c0 177 -333 130 -333 362c0 112 77 180 201 180zM314 -43c23 -9 34 -34 34 -67c0 -70 -51 -128 -107 -170c-14 3 -23 10 -28 21c33 33 50 66 50 90c0 20 -12 33 -37 36c-1 11 2 44 8 60c30 6 58 16 80 30z" />
    <glyph glyph-name="scommaaccent" unicode="&#x219;" horiz-adv-x="428" 
d="M357 328c-13 -8 -31 -12 -50 -12c-4 55 -47 110 -112 110c-41 0 -68 -22 -68 -55c0 -34 12 -51 119 -93c108 -41 142 -75 142 -146c0 -85 -79 -141 -183 -141c-80 0 -120 13 -165 37c4 31 4 92 1 124c11 8 32 11 52 11c10 -84 53 -125 122 -125c54 0 86 27 86 64
c0 35 -19 52 -108 88c-108 43 -148 71 -148 152c0 85 99 125 166 125c60 0 103 -12 144 -35c-2 -32 -3 -69 2 -104zM235 -43c23 -9 34 -34 34 -67c0 -70 -51 -128 -107 -170c-14 3 -23 10 -28 21c33 33 50 66 50 90c0 20 -12 33 -37 36c-1 11 2 44 8 60c30 6 58 16 80 30z
" />
    <glyph glyph-name="uni021A" unicode="&#x21a;" horiz-adv-x="585" 
d="M553 679c-2 -48 0 -96 6 -160c-14 -7 -30 -10 -50 -9c-2 81 -35 127 -113 127h-53v-510c0 -67 13 -84 78 -87c4 -11 5 -25 5 -43c-43 2 -89 3 -131 3s-94 -1 -131 -3c0 18 1 32 5 43c64 3 80 20 80 87v510h-51c-97 0 -111 -51 -125 -127c-15 0 -36 2 -48 9
c10 56 16 114 16 160c56 -3 154 -3 255 -3s202 0 257 3zM320 -43c23 -9 34 -34 34 -67c0 -70 -51 -128 -107 -170c-14 3 -23 10 -28 21c33 33 50 66 50 90c0 20 -12 33 -37 36c-1 11 2 44 8 60c30 6 58 16 80 30z" />
    <glyph glyph-name="uni021B" unicode="&#x21b;" horiz-adv-x="351" 
d="M92 448v132c26 7 55 23 75 40c13 -6 16 -10 16 -52v-120h129c0 -13 -3 -29 -9 -44c-48 -2 -87 -6 -120 -13v-250c0 -67 21 -96 57 -96c28 0 47 8 66 24c8 -9 14 -22 15 -33c-22 -25 -71 -45 -113 -45c-79 0 -116 38 -116 129v271c-20 7 -39 11 -72 13c0 17 2 28 9 44h63z
M220 -43c23 -9 34 -34 34 -67c0 -70 -51 -128 -107 -170c-14 3 -23 10 -28 21c33 33 50 66 50 90c0 20 -12 33 -37 36c-1 11 2 44 8 60c30 6 58 16 80 30z" />
    <glyph glyph-name="dotlessj" unicode="&#x237;" horiz-adv-x="283" 
d="M111 26v299c0 47 -7 71 -75 71c0 15 2 26 9 37c30 0 110 17 134 34c12 -4 22 -15 22 -40v-404c0 -135 -90 -231 -166 -272c-10 5 -20 15 -22 28c79 92 98 146 98 247z" />
    <glyph glyph-name="uni02BC" unicode="&#x2bc;" horiz-adv-x="259" 
d="M199 647c0 -79 -50 -155 -107 -210c-12 0 -25 6 -32 15c41 46 64 93 64 127c0 28 -15 46 -47 50c0 13 2 43 8 60c30 6 58 16 80 30c23 -9 34 -34 34 -72z" />
    <glyph glyph-name="circumflex" unicode="&#x2c6;" horiz-adv-x="540" 
d="M232 705c11 3 24 4 32 4c36 -49 86 -109 146 -168c-6 -8 -18 -15 -30 -18c-43 30 -97 72 -140 95c-31 -16 -121 -76 -154 -101c-9 9 -11 29 -11 38c50 38 112 96 157 150z" />
    <glyph glyph-name="caron" unicode="&#x2c7;" horiz-adv-x="600" 
d="M382 701c13 -2 25 -10 31 -23c-51 -42 -113 -102 -157 -157c-11 -3 -24 -4 -32 -4c-37 48 -88 107 -141 155c2 13 8 23 20 29c45 -30 100 -71 143 -93c31 17 120 79 136 93z" />
    <glyph glyph-name="firsttonechinese" unicode="&#x2c9;" horiz-adv-x="484" 
d="M69 631h355c0 -14 -3 -28 -9 -43c-32 0 -184 0 -355 -3c0 8 3 34 9 46z" />
    <glyph glyph-name="breve" unicode="&#x2d8;" horiz-adv-x="433" 
d="M383 697c0 -108 -61 -170 -168 -170c-105 0 -165 60 -165 165c12 7 27 11 40 11c10 -68 62 -111 135 -111s121 43 125 111c14 0 27 -2 33 -6z" />
    <glyph glyph-name="dotaccent" unicode="&#x2d9;" horiz-adv-x="283" 
d="M148 649c36 0 60 -25 60 -61c0 -31 -27 -58 -60 -58c-34 0 -59 26 -59 58c0 36 28 61 59 61z" />
    <glyph glyph-name="ring" unicode="&#x2da;" horiz-adv-x="540" 
d="M310 708c49 0 98 -27 98 -87c0 -54 -46 -95 -105 -95c-51 0 -97 34 -97 88c0 53 46 94 104 94zM313 563c21 0 41 18 41 48c0 28 -16 63 -51 63c-25 0 -42 -21 -42 -56c0 -31 19 -55 52 -55z" />
    <glyph glyph-name="ogonek" unicode="&#x2db;" horiz-adv-x="350" 
d="M209 45l33 -20c-68 -26 -103 -79 -103 -124c0 -52 31 -67 57 -67c20 0 33 2 48 8c6 -11 8 -23 7 -39c-26 -13 -50 -30 -74 -53c-6 -2 -12 -2 -19 -2c-45 0 -97 34 -97 103c0 71 30 132 148 194z" />
    <glyph glyph-name="tilde" unicode="&#x2dc;" horiz-adv-x="540" 
d="M104 536c40 70 76 91 109 91c47 0 89 -41 133 -41c20 0 40 8 61 31c5 0 14 -2 19 -8c-34 -74 -66 -96 -97 -96c-44 0 -88 43 -138 43c-24 0 -49 -10 -77 -39c-7 4 -10 11 -10 19z" />
    <glyph glyph-name="hungarumlaut" unicode="&#x2dd;" horiz-adv-x="428" 
d="M115 709c29 10 54 13 74 12c12 -1 22 -4 29 -7c-44 -51 -93 -122 -132 -183c-12 -1 -26 1 -36 6c32 66 52 121 65 172zM275 709c29 10 54 13 74 12c12 -1 22 -4 29 -7c-44 -51 -93 -122 -132 -183c-12 -1 -26 1 -36 6c32 66 52 121 65 172z" />
    <glyph glyph-name="uni0326" unicode="&#x326;" horiz-adv-x="0" 
d="M165 -43c23 -9 34 -34 34 -67c0 -70 -51 -128 -107 -170c-14 3 -23 10 -28 21c33 33 50 66 50 90c0 20 -12 33 -37 36c-1 11 2 44 8 60c30 6 58 16 80 30z" />
    <glyph glyph-name="pi" unicode="&#x3c0;" horiz-adv-x="618" 
d="M496 368h-34c-3 -46 -5 -92 -5 -142c0 -124 12 -150 49 -150c15 0 31 4 45 10c7 -10 11 -22 12 -36c-26 -39 -50 -59 -93 -59c-54 0 -86 32 -86 127c0 56 11 162 30 251c-73 1 -127 3 -167 4c-1 -257 -37 -359 -49 -373c-31 -1 -59 -1 -89 -9c-8 11 -11 25 -11 40
c77 63 99 251 99 343c-61 2 -82 6 -134 -41c-12 1 -22 12 -27 22c41 76 109 108 194 108c74 0 155 -5 229 -5c49 0 66 13 78 62c18 -2 34 -6 46 -11c-9 -36 -15 -85 -15 -120c-5 -12 -15 -21 -72 -21z" />
    <glyph glyph-name="uni0401" unicode="&#x401;" horiz-adv-x="601" 
d="M192 750c-34 0 -57 22 -57 51s16 57 55 57c40 0 57 -24 57 -55s-24 -53 -55 -53zM388 751c-39 0 -59 23 -59 56c0 32 23 51 56 51s57 -21 57 -51c0 -28 -14 -56 -54 -56zM516 171c20 -6 32 -12 44 -24c-15 -46 -25 -103 -31 -149c-39 1 -120 2 -214 2
c-74 0 -209 -1 -259 -3c0 18 1 32 5 43c54 3 69 20 69 98v411c0 67 -16 84 -69 87c-4 11 -5 27 -5 43c39 -2 132 -3 168 -3c157 0 248 2 281 3c4 -45 11 -115 21 -158c-11 -9 -27 -12 -45 -12c-5 62 -35 127 -164 127h-93v-274h63c82 0 110 16 111 81c17 5 30 7 48 7
c-2 -34 -2 -74 -2 -109s0 -82 2 -116c-18 0 -31 1 -46 5c-5 69 -31 89 -113 89h-63v-181c0 -74 16 -93 91 -93h6c143 0 166 44 195 126z" />
    <glyph glyph-name="uni0406" unicode="&#x406;" horiz-adv-x="354" 
d="M130 127v422c0 67 -16 84 -69 87c-4 11 -5 25 -5 43c37 -2 78 -3 121 -3s81 1 121 3c0 -18 -1 -32 -5 -43c-53 -3 -69 -20 -69 -87v-422c0 -67 16 -84 69 -87c4 -11 5 -25 5 -43c-40 2 -82 3 -121 3s-87 -1 -121 -3c0 18 1 32 5 43c53 3 69 20 69 87z" />
    <glyph glyph-name="uni0410" unicode="&#x410;" horiz-adv-x="704" 
d="M673 40c5 -17 6 -27 6 -43c-20 1 -82 3 -114 3s-93 -2 -113 -3c0 16 1 31 7 43c55 6 62 17 36 78l-44 102c-84 0 -185 -1 -264 -4l-27 -69c-30 -79 -19 -103 36 -107c5 -12 7 -27 7 -43c-23 2 -62 3 -95 3s-64 -2 -83 -3c0 13 2 30 7 42c36 7 49 29 80 108l207 531
c13 3 23 4 39 4l238 -546c33 -75 46 -91 77 -96zM432 265l-76 178c-17 39 -28 63 -45 109c-14 -47 -26 -78 -37 -108l-69 -179h227z" />
    <glyph glyph-name="uni0411" unicode="&#x411;" horiz-adv-x="631" 
d="M305 379c161 0 263 -45 263 -180c0 -112 -70 -199 -240 -199c-74 0 -222 -1 -272 -3c0 18 1 32 5 43c53 3 70 20 70 98v411c0 67 -16 84 -69 87c-4 11 -5 27 -5 43c27 -2 67 -3 166 -3c140 0 229 2 262 3c4 -45 11 -115 21 -158c-11 -9 -27 -12 -45 -12
c-5 62 -35 127 -164 127h-72v-261c26 3 51 4 80 4zM318 43c98 0 143 55 143 137c0 127 -108 154 -170 154c-10 0 -42 -1 -66 -3v-193c0 -82 18 -95 93 -95z" />
    <glyph glyph-name="uni0412" unicode="&#x412;" horiz-adv-x="631" 
d="M372 367c105 -6 196 -46 196 -170c0 -109 -70 -197 -240 -197c-74 0 -222 -1 -272 -3c0 18 1 32 5 43c53 3 70 20 70 98v411c0 67 -16 84 -69 87c-4 11 -5 27 -5 43c27 -2 68 -3 104 -3c48 0 96 2 143 2c115 0 213 -29 213 -146c0 -86 -56 -152 -145 -165zM415 502
c0 105 -83 134 -149 134c-14 0 -26 -1 -41 -5v-255h31c129 0 159 62 159 126zM318 43c98 0 143 53 143 140c0 124 -115 148 -213 148h-23v-193c0 -82 18 -95 93 -95z" />
    <glyph glyph-name="uni0413" unicode="&#x413;" horiz-adv-x="545" 
d="M485 679c4 -45 11 -115 21 -158c-11 -9 -27 -12 -45 -12c-5 62 -35 127 -164 127h-73v-489c0 -87 26 -104 89 -107c4 -11 5 -25 5 -43c-31 2 -79 3 -126 3s-110 -1 -136 -3c0 18 1 32 5 43c53 3 69 20 69 87v422c0 67 -16 84 -69 87c-4 11 -5 25 -5 43
c44 -2 119 -3 167 -3c140 0 229 2 262 3z" />
    <glyph glyph-name="uni0414" unicode="&#x414;" horiz-adv-x="684" 
d="M600 40h13c10 -9 15 -23 15 -36c-8 -39 -13 -97 -13 -172c-16 -5 -38 -5 -56 0c1 60 -4 120 -13 168h-442c-9 -48 -14 -108 -13 -168c-18 -5 -40 -5 -56 0c0 75 -5 133 -13 172c0 13 5 27 15 36h7c56 0 82 20 100 49c33 53 61 180 69 458c2 68 1 83 -73 89
c-4 11 -5 25 -5 43c43 -2 117 -3 250 -3c132 0 180 1 220 3c0 -18 -1 -32 -5 -43c-53 -3 -69 -20 -69 -87v-422c0 -67 16 -84 69 -87zM412 50c20 12 25 41 25 77v422c0 49 -5 68 -24 78c-21 11 -58 12 -68 12c-18 0 -43 -3 -60 -12c-22 -12 -23 -32 -25 -78
c-13 -283 -26 -437 -92 -509h122c75 0 105 0 122 10z" />
    <glyph glyph-name="uni0415" unicode="&#x415;" horiz-adv-x="601" 
d="M516 171c20 -6 32 -12 44 -24c-15 -46 -25 -103 -31 -149c-39 1 -120 2 -214 2c-74 0 -209 -1 -259 -3c0 18 1 32 5 43c54 3 69 20 69 98v411c0 67 -16 84 -69 87c-4 11 -5 27 -5 43c39 -2 132 -3 168 -3c157 0 248 2 281 3c4 -45 11 -115 21 -158
c-11 -9 -27 -12 -45 -12c-5 62 -35 127 -164 127h-93v-274h63c82 0 110 16 111 81c17 5 30 7 48 7c-2 -34 -2 -74 -2 -109s0 -82 2 -116c-18 0 -31 1 -46 5c-5 69 -31 89 -113 89h-63v-181c0 -74 16 -93 91 -93h6c143 0 166 44 195 126z" />
    <glyph glyph-name="uni0416" unicode="&#x416;" horiz-adv-x="968" 
d="M750 259c76 -165 120 -216 196 -219c0 -10 -1 -27 -4 -40c-58 0 -87 -1 -133 -9c-40 35 -87 94 -140 221c-39 95 -67 118 -138 118v-203c0 -67 16 -84 69 -87c4 -11 5 -25 5 -43c-40 2 -82 3 -121 3s-87 -1 -121 -3c0 18 1 32 5 43c53 3 69 20 69 87v203
c-71 0 -99 -23 -138 -118c-53 -127 -100 -186 -140 -221c-46 8 -75 9 -133 9c-3 13 -4 30 -4 40c76 3 120 54 196 219c39 84 56 106 129 110c-24 7 -43 27 -98 116c-55 92 -71 118 -97 118c-20 0 -33 -16 -45 -82c-11 0 -34 3 -48 9c6 50 8 100 6 146c14 4 39 6 44 6
c63 0 86 -17 178 -176c62 -106 95 -130 150 -130v173c0 67 -16 84 -69 87c-4 11 -5 25 -5 43c37 -2 78 -3 121 -3s81 1 121 3c0 -18 -1 -32 -5 -43c-53 -3 -69 -20 -69 -87v-173c55 0 88 24 150 130c92 159 115 176 178 176c5 0 30 -2 44 -6c-2 -46 0 -96 6 -146
c-14 -6 -37 -9 -48 -9c-12 66 -25 82 -45 82c-26 0 -42 -26 -97 -118c-55 -89 -74 -109 -98 -116c73 -4 90 -26 129 -110z" />
    <glyph glyph-name="uni0417" unicode="&#x417;" horiz-adv-x="543" 
d="M323 376c101 -15 157 -79 157 -180c0 -130 -86 -205 -237 -205c-67 0 -132 16 -175 47c5 45 4 89 1 130c17 6 35 8 54 6c15 -85 41 -138 123 -138c85 0 133 53 133 146c0 102 -68 161 -187 161c-3 15 -2 32 3 39c103 10 158 59 158 143c0 73 -38 115 -103 115
c-64 0 -90 -36 -109 -138c-19 -2 -37 0 -54 6c3 41 4 85 -1 130c46 32 105 47 173 47c123 0 194 -55 194 -152c0 -87 -47 -143 -130 -157z" />
    <glyph glyph-name="uni0418" unicode="&#x418;" horiz-adv-x="753" 
d="M623 549v-422c0 -67 16 -84 69 -87c4 -11 5 -25 5 -43c-40 2 -82 3 -121 3s-87 -1 -121 -3c0 18 1 32 5 43c53 3 69 20 69 87v432l-318 -559c-68 0 -98 0 -155 -3c0 18 1 32 5 43c53 3 69 20 69 87v422c0 67 -16 84 -69 87c-4 11 -5 25 -5 43c40 -2 82 -3 121 -3
s87 1 121 3c0 -18 -1 -32 -5 -43c-53 -3 -69 -20 -69 -87v-430l318 557c66 0 99 0 155 3c0 -18 -1 -32 -5 -43c-53 -3 -69 -20 -69 -87z" />
    <glyph glyph-name="uni0419" unicode="&#x419;" horiz-adv-x="753" 
d="M372 745c-105 0 -185 54 -185 159c21 11 44 16 70 14c13 -85 52 -125 125 -125s109 40 115 125c26 3 51 0 70 -9c0 -108 -88 -164 -195 -164zM623 549v-422c0 -67 16 -84 69 -87c4 -11 5 -25 5 -43c-40 2 -82 3 -121 3s-87 -1 -121 -3c0 18 1 32 5 43c53 3 69 20 69 87
v432l-318 -559c-68 0 -98 0 -155 -3c0 18 1 32 5 43c53 3 69 20 69 87v422c0 67 -16 84 -69 87c-4 11 -5 25 -5 43c40 -2 82 -3 121 -3s87 1 121 3c0 -18 -1 -32 -5 -43c-53 -3 -69 -20 -69 -87v-430l318 557c66 0 99 0 155 3c0 -18 -1 -32 -5 -43c-53 -3 -69 -20 -69 -87z
" />
    <glyph glyph-name="uni041A" unicode="&#x41a;" horiz-adv-x="678" 
d="M450 259c79 -165 126 -216 206 -219c0 -10 -1 -27 -5 -40c-60 0 -90 -1 -138 -9c-42 35 -91 94 -146 221c-40 95 -69 118 -143 118v-203c0 -67 16 -84 69 -87c4 -11 5 -25 5 -43c-40 2 -82 3 -121 3s-87 -1 -121 -3c0 18 1 32 5 43c53 3 69 20 69 87v422
c0 67 -16 84 -69 87c-4 11 -5 25 -5 43c37 -2 78 -3 121 -3s81 1 121 3c0 -18 -1 -32 -5 -43c-53 -3 -69 -20 -69 -87v-173c57 0 91 24 156 130c96 159 119 176 185 176c5 0 31 -2 46 -6c-2 -46 0 -96 6 -146c-15 -6 -38 -9 -48 -9c-12 66 -28 82 -49 82
c-27 0 -44 -26 -102 -118c-57 -89 -76 -109 -100 -116c75 -5 92 -26 132 -110z" />
    <glyph glyph-name="uni041B" unicode="&#x41b;" horiz-adv-x="690" 
d="M634 679c0 -18 -1 -32 -5 -43c-53 -3 -69 -20 -69 -87v-422c0 -67 16 -84 69 -87c4 -11 5 -25 5 -43c-40 2 -82 3 -121 3s-87 -1 -121 -3c0 18 1 32 5 43c53 3 69 20 69 87v422c0 49 -5 68 -24 78c-21 11 -58 12 -68 12c-18 0 -43 -3 -60 -12c-22 -12 -23 -32 -25 -78
c-13 -283 -26 -439 -95 -513c-34 -36 -72 -45 -98 -45c-32 0 -59 13 -71 23c-5 20 -3 56 1 73c23 -4 44 -6 62 -6c45 0 72 12 91 45c30 52 55 137 63 421c2 68 1 83 -73 89c-4 11 -5 25 -5 43c43 -2 118 -3 248 -3c135 0 182 1 222 3z" />
    <glyph glyph-name="uni041C" unicode="&#x41c;" horiz-adv-x="931" 
d="M891 41c4 -14 5 -31 5 -44c-31 2 -84 3 -120 3s-88 -1 -122 -3c0 12 2 30 6 43c64 6 70 27 61 115l-36 343l-207 -500c-12 -5 -25 -7 -41 -7l-233 506l-32 -321c-11 -106 6 -131 65 -136c4 -14 5 -34 5 -43c-32 2 -78 3 -107 3s-73 -1 -100 -3c0 9 1 29 5 43
c53 5 70 24 81 145l32 356c6 71 -12 95 -67 95c-4 13 -5 31 -5 43c20 -2 51 -3 76 -3s50 1 76 3l250 -553l218 553c23 -2 52 -3 78 -3s49 1 76 3c0 -14 -1 -28 -5 -43c-47 0 -76 -21 -68 -101l36 -367c10 -99 26 -123 73 -127z" />
    <glyph glyph-name="uni041D" unicode="&#x41d;" horiz-adv-x="753" 
d="M623 549v-422c0 -67 16 -84 69 -87c4 -11 5 -25 5 -43c-40 2 -82 3 -121 3s-87 -1 -121 -3c0 18 1 32 5 43c53 3 69 20 69 87v198c-81 0 -225 0 -305 -5v-193c0 -67 16 -84 69 -87c4 -11 5 -25 5 -43c-40 2 -82 3 -121 3s-87 -1 -121 -3c0 18 1 32 5 43c53 3 69 20 69 87
v422c0 67 -16 84 -69 87c-4 11 -5 25 -5 43c37 -2 78 -3 121 -3s81 1 121 3c0 -18 -1 -32 -5 -43c-53 -3 -69 -20 -69 -87v-181h305v181c0 67 -16 84 -69 87c-4 11 -5 25 -5 43c37 -2 78 -3 121 -3s81 1 121 3c0 -18 -1 -32 -5 -43c-53 -3 -69 -20 -69 -87z" />
    <glyph glyph-name="uni041E" unicode="&#x41e;" 
d="M365 685c191 0 331 -140 331 -345c0 -197 -137 -349 -331 -349c-198 0 -330 150 -330 349c0 204 145 345 330 345zM385 40c130 0 208 121 208 274c0 180 -106 323 -249 323c-118 0 -206 -108 -206 -270c0 -169 88 -327 247 -327z" />
    <glyph glyph-name="uni041F" unicode="&#x41f;" horiz-adv-x="742" 
d="M612 549v-422c0 -67 16 -84 69 -87c4 -11 5 -25 5 -43c-40 2 -82 3 -121 3s-87 -1 -121 -3c0 18 1 32 5 43c53 3 69 20 69 87v422c0 36 -5 65 -25 77c-17 10 -47 11 -122 11s-105 -1 -122 -11c-20 -12 -25 -41 -25 -77v-422c0 -67 16 -84 69 -87c4 -11 5 -25 5 -43
c-40 2 -82 3 -121 3s-87 -1 -121 -3c0 18 1 32 5 43c53 3 69 20 69 87v422c0 67 -16 84 -69 87c-4 11 -5 25 -5 43c37 -2 78 -3 261 -3h108c183 0 221 1 261 3c0 -18 -1 -32 -5 -43c-53 -3 -69 -20 -69 -87z" />
    <glyph glyph-name="uni0420" unicode="&#x420;" horiz-adv-x="582" 
d="M320 678c166 0 227 -91 227 -194c0 -115 -76 -231 -227 -231c-28 0 -52 4 -70 11c-3 14 -3 28 1 41c17 -4 34 -6 53 -6c73 0 141 30 141 156c0 107 -49 179 -169 179c-13 0 -27 -1 -51 -6v-481c0 -87 26 -104 89 -107c4 -11 5 -25 5 -43c-31 2 -79 3 -126 3
s-110 -1 -136 -3c0 18 1 32 5 43c53 3 69 20 69 87v422c0 67 -16 84 -69 87c-4 11 -5 25 -5 43c52 -3 104 -3 136 -3c28 0 102 2 127 2z" />
    <glyph glyph-name="uni0421" unicode="&#x421;" horiz-adv-x="653" 
d="M591 633c-10 -47 -11 -100 -11 -155c-17 -7 -32 -9 -53 -9c-5 142 -62 175 -150 175c-169 0 -237 -134 -237 -274c0 -179 95 -318 255 -318c64 0 134 23 190 59c8 -7 17 -22 18 -31c-79 -61 -149 -89 -250 -89c-186 0 -318 144 -318 352c0 229 164 342 334 342
c84 0 148 -17 222 -52z" />
    <glyph glyph-name="uni0422" unicode="&#x422;" horiz-adv-x="585" 
d="M553 679c-2 -48 0 -96 6 -160c-14 -7 -30 -10 -50 -9c-2 81 -35 127 -113 127h-53v-510c0 -67 13 -84 78 -87c4 -11 5 -25 5 -43c-43 2 -89 3 -131 3s-94 -1 -131 -3c0 18 1 32 5 43c64 3 80 20 80 87v510h-51c-97 0 -111 -51 -125 -127c-15 0 -36 2 -48 9
c10 56 16 114 16 160c56 -3 154 -3 255 -3s202 0 257 3z" />
    <glyph glyph-name="uni0423" unicode="&#x423;" horiz-adv-x="686" 
d="M559 676c31 0 73 1 102 3c0 -15 -1 -28 -5 -43c-41 -10 -62 -55 -94 -117c-50 -96 -102 -194 -150 -278c-80 -141 -107 -197 -122 -247c-49 5 -79 6 -129 6c-4 13 -5 30 -5 40c64 2 107 39 185 163c-74 123 -145 238 -203 329c-58 90 -71 100 -108 104c-4 16 -5 32 -5 43
c26 -2 79 -3 121 -3s83 1 121 3c0 -12 -2 -29 -5 -43c-64 -4 -62 -15 -19 -83c52 -82 101 -164 153 -249c41 72 81 147 117 225c34 70 29 100 -34 107c-4 15 -5 32 -5 43c29 -2 54 -3 85 -3z" />
    <glyph glyph-name="uni0424" unicode="&#x424;" horiz-adv-x="811" 
d="M776 347c0 -166 -124 -275 -323 -283v-19c0 -67 13 -84 79 -87c4 -11 5 -25 5 -43c-44 2 -90 3 -132 3s-94 -1 -130 -3c0 18 1 32 5 43c63 3 79 20 79 87v19c-199 1 -324 103 -324 269s125 275 324 282v19c0 67 -13 84 -79 87c-4 11 -5 25 -5 43c44 -2 90 -3 132 -3
s94 1 130 3c0 -18 -1 -32 -5 -43c-63 -3 -79 -20 -79 -87v-19c199 -1 323 -102 323 -268zM138 346c0 -135 84 -225 221 -233v454c-136 -2 -221 -84 -221 -221zM673 332c0 136 -84 226 -220 234v-454c135 1 220 84 220 220z" />
    <glyph glyph-name="uni0425" unicode="&#x425;" horiz-adv-x="667" 
d="M621 40c4 -12 6 -28 6 -43c-29 2 -81 3 -122 3s-91 -1 -121 -2c0 12 1 28 4 42c51 5 67 18 16 104c-27 47 -56 93 -84 140l-88 -129c-51 -75 -49 -103 17 -115c4 -14 5 -30 5 -43c-34 2 -73 3 -110 3s-77 -1 -104 -3c0 11 1 31 6 45c32 8 70 34 119 102l128 183
c-40 63 -80 126 -122 189c-71 108 -77 113 -109 119c-5 16 -6 30 -6 44c35 -2 84 -3 122 -3s90 1 121 2c0 -12 -1 -27 -4 -42c-56 -10 -65 -32 -16 -107c28 -42 55 -84 82 -126l73 115c54 86 46 110 -15 118c-4 15 -5 32 -5 43c33 -2 72 -3 102 -3s74 1 99 3
c0 -13 0 -28 -4 -43c-31 -8 -55 -24 -115 -115l-107 -163c42 -67 83 -134 123 -201c56 -93 77 -112 109 -117z" />
    <glyph glyph-name="uni0426" unicode="&#x426;" horiz-adv-x="765" 
d="M681 40h13c10 -9 15 -23 15 -36c-8 -39 -13 -97 -13 -172c-16 -5 -38 -5 -56 0c1 59 -4 119 -12 167c-38 1 -96 1 -203 1h-108c-183 0 -221 -1 -261 -3c0 18 1 32 5 43c53 3 69 20 69 87v422c0 67 -16 84 -69 87c-4 11 -5 25 -5 43c40 -2 82 -3 121 -3s87 1 121 3
c0 -18 -1 -32 -5 -43c-53 -3 -69 -20 -69 -87v-422c0 -36 5 -65 25 -77c17 -10 47 -11 122 -11s105 1 122 11c20 12 25 41 25 77v422c0 67 -16 84 -69 87c-4 11 -5 25 -5 43c40 -2 82 -3 121 -3s87 1 121 3c0 -18 -1 -32 -5 -43c-53 -3 -69 -20 -69 -87v-422
c0 -67 16 -84 69 -87z" />
    <glyph glyph-name="uni0427" unicode="&#x427;" horiz-adv-x="709" 
d="M579 549v-422c0 -67 16 -84 69 -87c4 -11 5 -25 5 -43c-26 2 -89 3 -136 3s-95 -1 -126 -3c0 18 1 32 5 43c63 3 89 20 89 107v166c-44 -11 -102 -18 -157 -18c-200 0 -205 100 -212 254c-3 61 -6 83 -69 87c-4 11 -5 25 -5 43c37 -2 78 -3 121 -3s81 1 121 3
c0 -18 -1 -32 -5 -43c-58 -4 -69 -20 -69 -99c0 -142 36 -189 150 -189c28 0 81 3 125 9v192c0 67 -16 84 -69 87c-4 11 -5 25 -5 43c37 -2 78 -3 121 -3s81 1 121 3c0 -18 -1 -32 -5 -43c-53 -3 -69 -20 -69 -87z" />
    <glyph glyph-name="uni0428" unicode="&#x428;" horiz-adv-x="970" 
d="M56 -3c0 18 1 32 5 43c53 3 69 20 69 87v422c0 67 -16 84 -69 87c-4 11 -5 25 -5 43c40 -2 82 -3 121 -3s87 1 121 3c0 -18 -1 -32 -5 -43c-53 -3 -69 -20 -69 -87v-422c0 -36 5 -65 25 -77c17 -10 47 -11 82 -11s65 1 82 11c20 12 25 41 25 77v422c0 67 -16 84 -69 87
c-4 11 -5 25 -5 43c40 -2 82 -3 121 -3s87 1 121 3c0 -18 -1 -32 -5 -43c-53 -3 -69 -20 -69 -87v-422c0 -36 5 -65 25 -77c17 -10 47 -11 82 -11s65 1 82 11c20 12 25 41 25 77v422c0 67 -16 84 -69 87c-4 11 -5 25 -5 43c40 -2 82 -3 121 -3s87 1 121 3
c0 -18 -1 -32 -5 -43c-53 -3 -69 -20 -69 -87v-422c0 -67 16 -84 69 -87c4 -11 5 -25 5 -43c-37 2 -78 3 -221 3h-416c-143 0 -181 -1 -221 -3z" />
    <glyph glyph-name="uni0429" unicode="&#x429;" horiz-adv-x="993" 
d="M909 40h13c10 -9 15 -23 15 -36c-8 -39 -13 -97 -13 -172c-16 -5 -38 -5 -56 0c1 59 -4 119 -12 167c-34 1 -82 1 -163 1h-416c-143 0 -181 -1 -221 -3c0 18 1 32 5 43c53 3 69 20 69 87v422c0 67 -16 84 -69 87c-4 11 -5 25 -5 43c40 -2 82 -3 121 -3s87 1 121 3
c0 -18 -1 -32 -5 -43c-53 -3 -69 -20 -69 -87v-422c0 -36 5 -65 25 -77c17 -10 47 -11 82 -11s65 1 82 11c20 12 25 41 25 77v422c0 67 -16 84 -69 87c-4 11 -5 25 -5 43c40 -2 82 -3 121 -3s87 1 121 3c0 -18 -1 -32 -5 -43c-53 -3 -69 -20 -69 -87v-422
c0 -36 5 -65 25 -77c17 -10 47 -11 82 -11s65 1 82 11c20 12 25 41 25 77v422c0 67 -16 84 -69 87c-4 11 -5 25 -5 43c40 -2 82 -3 121 -3s87 1 121 3c0 -18 -1 -32 -5 -43c-53 -3 -69 -20 -69 -87v-422c0 -67 16 -84 69 -87z" />
    <glyph glyph-name="uni042A" unicode="&#x42a;" horiz-adv-x="739" 
d="M413 379c161 0 263 -45 263 -180c0 -112 -70 -199 -240 -199c-74 0 -222 -1 -272 -3c0 18 1 32 5 43c53 3 70 20 70 98v499h-41c-97 0 -111 -51 -125 -127c-15 0 -36 2 -48 9c10 56 16 114 16 160c48 -3 128 -3 214 -3c98 0 143 1 172 3c0 -18 -1 -32 -5 -43
c-63 -3 -89 -20 -89 -107v-154c26 3 51 4 80 4zM426 43c98 0 143 55 143 137c0 127 -108 154 -170 154c-10 0 -42 -1 -66 -3v-193c0 -82 18 -95 93 -95z" />
    <glyph glyph-name="uni042B" unicode="&#x42b;" horiz-adv-x="914" 
d="M307 379c164 0 268 -45 268 -180c0 -112 -71 -199 -245 -199c-74 0 -224 -1 -274 -3c0 18 1 32 5 43c53 3 70 20 70 98v411c0 67 -16 84 -69 87c-4 11 -5 25 -5 43c26 -2 89 -3 136 -3s95 1 126 3c0 -18 -1 -32 -5 -43c-63 -3 -89 -20 -89 -107v-155c26 3 52 5 82 5z
M784 549v-422c0 -67 16 -84 69 -87c4 -11 5 -25 5 -43c-40 2 -82 3 -121 3s-87 -1 -121 -3c0 18 1 32 5 43c53 3 69 20 69 87v422c0 67 -16 84 -69 87c-4 11 -5 25 -5 43c37 -2 78 -3 121 -3s81 1 121 3c0 -18 -1 -32 -5 -43c-53 -3 -69 -20 -69 -87zM318 43
c102 0 148 55 148 137c0 127 -110 154 -173 154c-11 0 -43 -1 -68 -3v-193c0 -82 18 -95 93 -95z" />
    <glyph glyph-name="uni042C" unicode="&#x42c;" horiz-adv-x="638" 
d="M307 379c164 0 268 -45 268 -180c0 -112 -71 -199 -245 -199c-74 0 -224 -1 -274 -3c0 18 1 32 5 43c53 3 70 20 70 98v411c0 67 -16 84 -69 87c-4 11 -5 25 -5 43c26 -2 89 -3 136 -3s95 1 126 3c0 -18 -1 -32 -5 -43c-63 -3 -89 -20 -89 -107v-155c26 3 52 5 82 5z
M318 43c102 0 148 55 148 137c0 127 -110 154 -173 154c-11 0 -43 -1 -68 -3v-193c0 -82 18 -95 93 -95z" />
    <glyph glyph-name="uni042D" unicode="&#x42d;" horiz-adv-x="674" 
d="M292 685c224 0 347 -121 347 -337c0 -225 -133 -357 -361 -357c-82 0 -152 17 -226 52c4 48 4 102 -2 155c15 9 31 13 52 14c16 -131 62 -180 172 -180c158 0 251 101 259 279c-100 0 -190 -1 -348 -3c0 18 4 43 11 56h337c-9 178 -104 280 -257 280
c-94 0 -146 -39 -152 -175c-21 0 -36 2 -53 9c0 55 -1 108 -11 155c70 34 145 52 232 52z" />
    <glyph glyph-name="uni042E" unicode="&#x42e;" horiz-adv-x="1014" 
d="M651 685c185 0 328 -140 328 -344c0 -199 -137 -350 -331 -350c-188 0 -314 144 -320 334c-30 0 -74 -1 -104 -4v-194c0 -67 16 -84 69 -87c4 -11 5 -25 5 -43c-40 2 -82 3 -121 3s-87 -1 -121 -3c0 18 1 32 5 43c53 3 69 20 69 87v422c0 67 -16 84 -69 87
c-4 11 -5 25 -5 43c37 -2 78 -3 121 -3s81 1 121 3c0 -18 -1 -32 -5 -43c-53 -3 -69 -20 -69 -87v-181h105c12 189 146 317 322 317zM667 40c132 0 209 121 209 274c0 180 -108 323 -245 323c-120 0 -200 -109 -200 -271c0 -167 84 -326 236 -326z" />
    <glyph glyph-name="uni042F" unicode="&#x42f;" horiz-adv-x="628" 
d="M498 549v-422c0 -67 15 -84 69 -87c4 -13 5 -29 5 -43c-30 2 -85 3 -120 3c-25 0 -76 0 -119 -3c0 14 1 31 5 43c51 3 66 20 66 87v176c-67 0 -83 -22 -125 -121c-50 -117 -56 -148 -114 -191c-48 8 -78 9 -138 9c-4 13 -5 30 -5 40c102 9 103 49 170 177
c35 67 55 92 84 103c-138 21 -209 95 -209 193c0 92 61 165 232 165c28 0 100 -2 157 -2c41 0 96 1 116 2c0 -16 -1 -29 -5 -42c-54 0 -69 -20 -69 -87zM165 504c0 -110 86 -153 195 -153c15 0 28 1 44 3v280c-24 5 -46 8 -72 8c-122 0 -167 -59 -167 -138z" />
    <glyph glyph-name="uni0430" unicode="&#x430;" horiz-adv-x="498" 
d="M396 256v-120c0 -47 7 -68 62 -68c0 -14 -1 -32 -6 -46c-33 -2 -83 -14 -114 -31c-14 6 -25 13 -25 55c0 9 1 19 2 28c-7 -17 -18 -33 -34 -47c-23 -20 -56 -34 -104 -34c-81 0 -127 40 -127 106c0 130 174 157 256 169c0 82 -4 103 -21 124c-16 20 -37 30 -62 30
c-67 0 -86 -74 -88 -116c-15 0 -42 2 -52 7c3 33 1 79 -5 109c54 28 119 45 170 45c49 0 84 -16 106 -38c34 -34 42 -84 42 -173zM306 189v38c-68 -9 -159 -21 -159 -108c0 -49 28 -71 59 -71c43 0 100 40 100 141z" />
    <glyph glyph-name="uni0431" unicode="&#x431;" horiz-adv-x="521" 
d="M283 435c115 0 198 -63 198 -205c0 -151 -94 -239 -233 -239c-134 0 -208 82 -208 307c0 339 167 377 308 377c36 0 49 13 56 48c16 2 31 -1 43 -9c-8 -37 -12 -74 -14 -111c-9 -15 -22 -18 -45 -18c-207 0 -290 -62 -290 -215c68 46 122 65 185 65zM272 39
c85 0 120 74 120 161c0 141 -93 176 -157 176c-27 0 -57 -6 -98 -33l-1 -39c0 -203 58 -265 136 -265z" />
    <glyph glyph-name="uni0432" unicode="&#x432;" horiz-adv-x="541" 
d="M323 247c93 -5 178 -33 178 -117c0 -72 -64 -130 -220 -130c-107 0 -197 -1 -245 -3c0 18 1 31 5 43c40 0 59 18 59 87v204c0 69 -19 87 -59 87c-4 12 -5 25 -5 43c29 -2 69 -3 96 -3c39 0 92 2 124 2c114 0 200 -26 200 -101c0 -58 -53 -103 -133 -112zM359 336
c0 65 -72 82 -129 82c-16 0 -26 -1 -40 -4v-155h28c111 0 141 35 141 77zM265 40c93 0 134 28 134 80c0 80 -95 97 -188 97h-21v-110c0 -56 17 -67 75 -67z" />
    <glyph glyph-name="uni0433" unicode="&#x433;" horiz-adv-x="437" 
d="M400 460c3 -32 8 -83 17 -118c-11 -7 -29 -12 -50 -12c-6 49 -23 92 -122 92h-55v-310c0 -59 21 -73 74 -76c4 -10 5 -24 5 -39c-39 2 -83 3 -124 3s-80 -1 -109 -3c0 18 1 31 5 43c40 0 59 18 59 87v204c0 69 -19 87 -59 87c-4 12 -5 25 -5 43c43 -2 112 -3 153 -3
c113 0 181 1 211 2z" />
    <glyph glyph-name="uni0434" unicode="&#x434;" horiz-adv-x="580" 
d="M516 40h13c10 -9 15 -23 15 -36c-8 -39 -13 -97 -13 -172c-16 -5 -38 -5 -56 0c1 60 -4 120 -13 168h-360c-9 -48 -14 -108 -13 -168c-18 -5 -40 -5 -56 0c0 75 -5 133 -13 172c0 13 5 27 15 36h11c46 5 67 25 82 47c23 35 49 107 54 266c2 53 -2 61 -59 65
c-4 12 -5 28 -5 42c34 -1 96 -2 209 -2s158 1 194 3c0 -18 -1 -31 -5 -43c-40 0 -59 -18 -59 -87v-204c0 -69 19 -87 59 -87zM367 105v247c0 37 -5 52 -21 59c-14 6 -37 7 -51 7c-19 0 -37 -2 -50 -7c-18 -7 -19 -19 -21 -59c-10 -175 -26 -268 -76 -312h103c58 0 81 1 94 7
c17 8 22 26 22 58z" />
    <glyph glyph-name="uni0435" unicode="&#x435;" horiz-adv-x="474" 
d="M406 105c11 -6 22 -20 24 -31c-46 -60 -105 -83 -178 -83c-142 0 -212 107 -212 238c0 128 79 238 207 238c130 0 179 -93 187 -207c-3 -14 -8 -25 -15 -34c-42 0 -176 0 -280 -5c6 -89 40 -174 145 -174c44 0 89 20 122 58zM238 419c-47 0 -95 -32 -100 -148h192
c0 88 -34 148 -92 148z" />
    <glyph glyph-name="uni0436" unicode="&#x436;" horiz-adv-x="799" 
d="M612 184c64 -107 82 -136 158 -142c0 -17 -1 -31 -5 -42c-45 0 -78 -1 -121 -9c-86 58 -106 227 -200 229v-93c0 -69 19 -87 59 -87c4 -12 5 -25 5 -43c-29 2 -68 3 -109 3s-80 -1 -109 -3c0 18 1 31 5 43c40 0 59 18 59 87v93c-93 -5 -112 -172 -198 -229
c-43 8 -76 9 -121 9c-4 11 -5 25 -5 42c76 6 94 35 158 142c32 54 42 67 102 71c-20 5 -35 18 -76 72c-41 53 -53 69 -74 69c-15 0 -22 -9 -28 -53c-16 -1 -39 2 -51 6c5 36 6 77 4 109c12 3 30 5 45 5c56 0 72 -30 138 -120c45 -60 63 -83 106 -84v72c0 69 -19 87 -59 87
c-4 12 -5 25 -5 43c29 -2 68 -3 109 -3s80 1 109 3c0 -18 -1 -31 -5 -43c-40 0 -59 -18 -59 -87v-72c45 1 63 23 108 84c66 90 82 120 138 120c15 0 33 -2 45 -5c-2 -32 -1 -73 4 -109c-12 -4 -35 -7 -51 -6c-6 44 -13 53 -28 53c-21 0 -33 -16 -74 -69
c-41 -54 -56 -67 -76 -72c60 -4 70 -17 102 -71z" />
    <glyph glyph-name="uni0437" unicode="&#x437;" horiz-adv-x="419" 
d="M254 253c80 -10 125 -52 125 -121c0 -86 -69 -138 -189 -138c-53 0 -102 10 -140 32c4 30 4 60 1 95c16 7 34 9 51 7c10 -68 30 -96 87 -96c62 0 96 34 96 89c0 67 -51 101 -138 101c-4 12 -3 27 2 36c75 5 118 37 118 96c0 46 -27 72 -74 72c-45 0 -63 -23 -76 -92
c-17 -2 -35 0 -52 6c4 32 4 62 0 93c39 22 86 31 136 31c104 0 157 -38 157 -106c0 -57 -37 -95 -104 -105z" />
    <glyph glyph-name="uni0438" unicode="&#x438;" horiz-adv-x="609" 
d="M509 331v-204c0 -69 19 -87 59 -87c4 -12 5 -25 5 -43c-29 2 -68 3 -109 3s-80 -1 -109 -3c0 18 1 31 5 43c40 0 59 18 59 87v242l-241 -369c-63 0 -113 -1 -142 -3c0 18 1 31 5 43c40 0 59 18 59 87v204c0 69 -19 87 -59 87c-4 12 -5 25 -5 43c29 -2 68 -3 109 -3
s80 1 109 3c0 -18 -1 -31 -5 -43c-40 0 -59 -18 -59 -87v-239l241 366c61 0 113 1 142 3c0 -18 -1 -31 -5 -43c-40 0 -59 -18 -59 -87z" />
    <glyph glyph-name="uni0439" unicode="&#x439;" horiz-adv-x="609" 
d="M300 527c-105 0 -185 54 -185 159c21 11 44 16 70 14c13 -85 52 -125 125 -125s109 40 115 125c26 3 51 0 70 -9c0 -108 -88 -164 -195 -164zM509 331v-204c0 -69 19 -87 59 -87c4 -12 5 -25 5 -43c-29 2 -68 3 -109 3s-80 -1 -109 -3c0 18 1 31 5 43c40 0 59 18 59 87
v242l-241 -369c-63 0 -113 -1 -142 -3c0 18 1 31 5 43c40 0 59 18 59 87v204c0 69 -19 87 -59 87c-4 12 -5 25 -5 43c29 -2 68 -3 109 -3s80 1 109 3c0 -18 -1 -31 -5 -43c-40 0 -59 -18 -59 -87v-239l241 366c61 0 113 1 142 3c0 -18 -1 -31 -5 -43c-40 0 -59 -18 -59 -87z
" />
    <glyph glyph-name="uni043A" unicode="&#x43a;" horiz-adv-x="549" 
d="M365 184c67 -107 85 -136 164 -142c0 -17 -1 -31 -6 -42c-46 0 -80 -1 -124 -9c-90 58 -110 229 -209 229v-93c0 -69 19 -87 59 -87c4 -12 5 -25 5 -43c-29 2 -68 3 -109 3s-80 -1 -109 -3c0 18 1 31 5 43c40 0 59 18 59 87v204c0 69 -19 87 -59 87c-4 12 -5 25 -5 43
c29 -2 68 -3 109 -3s80 1 109 3c0 -18 -1 -31 -5 -43c-40 0 -59 -18 -59 -87v-72c47 0 66 22 114 84c68 90 84 120 142 120c15 0 34 -2 46 -5c-2 -32 -1 -73 5 -109c-13 -4 -37 -7 -53 -6c-6 44 -13 53 -29 53c-22 0 -34 -16 -76 -69c-43 -54 -58 -67 -78 -72
c61 -4 71 -17 104 -71z" />
    <glyph glyph-name="uni043B" unicode="&#x43b;" horiz-adv-x="570" 
d="M534 461c0 -18 -1 -31 -5 -43c-40 0 -59 -18 -59 -87v-204c0 -69 19 -87 59 -87c4 -12 5 -25 5 -43c-29 2 -68 3 -109 3s-80 -1 -109 -3c0 18 1 31 5 43c40 0 59 18 59 87v225c0 37 -5 52 -21 59c-14 6 -37 7 -50 7c-18 0 -32 -2 -45 -7c-17 -7 -19 -16 -21 -59
c-10 -185 -21 -271 -72 -323c-30 -30 -62 -37 -85 -37c-30 0 -55 12 -67 24c-4 15 -2 44 3 60c19 -3 39 -7 62 -7c31 0 56 7 74 35c21 32 41 103 44 253c1 51 0 57 -60 61c-4 12 -5 28 -5 42c34 -1 95 -2 205 -2s156 1 192 3z" />
    <glyph glyph-name="uni043C" unicode="&#x43c;" horiz-adv-x="743" 
d="M708 40c4 -12 5 -29 5 -43c-24 2 -76 3 -105 3c-30 0 -75 -1 -100 -3c0 18 1 30 5 43c45 2 54 12 47 76l-27 219l-156 -336c-10 -4 -23 -5 -37 -5l-176 341l-23 -198c-9 -81 4 -95 50 -97c4 -14 5 -29 5 -43c-24 2 -60 3 -85 3c-24 0 -61 -1 -81 -3c0 16 1 30 5 43
c40 2 54 16 63 100l23 213c5 54 -9 65 -52 65c-4 12 -5 29 -5 43c28 -2 50 -3 71 -3c20 0 49 1 68 2l181 -347l158 347c20 -1 50 -2 71 -2s46 1 69 3c0 -15 -1 -31 -5 -43c-39 0 -58 -11 -52 -68l26 -225c8 -72 20 -82 57 -85z" />
    <glyph glyph-name="uni043D" unicode="&#x43d;" horiz-adv-x="609" 
d="M509 331v-204c0 -69 19 -87 59 -87c4 -12 5 -25 5 -43c-29 2 -68 3 -109 3s-80 -1 -109 -3c0 18 1 31 5 43c40 0 59 18 59 87v91c-60 0 -170 -1 -229 -5v-86c0 -69 19 -87 59 -87c4 -12 5 -25 5 -43c-29 2 -68 3 -109 3s-80 -1 -109 -3c0 18 1 31 5 43c40 0 59 18 59 87
v204c0 69 -19 87 -59 87c-4 12 -5 25 -5 43c29 -2 68 -3 109 -3s80 1 109 3c0 -18 -1 -31 -5 -43c-40 0 -59 -18 -59 -87v-77h229v77c0 69 -19 87 -59 87c-4 12 -5 25 -5 43c29 -2 68 -3 109 -3s80 1 109 3c0 -18 -1 -31 -5 -43c-40 0 -59 -18 -59 -87z" />
    <glyph glyph-name="uni043E" unicode="&#x43e;" horiz-adv-x="532" 
d="M266 467c142 0 226 -96 226 -238c0 -137 -91 -238 -226 -238c-137 0 -226 94 -226 238c0 136 93 238 226 238zM256 419c-77 0 -115 -69 -115 -169c0 -135 52 -211 133 -211c80 0 118 73 118 178c0 124 -62 202 -136 202z" />
    <glyph glyph-name="uni043F" unicode="&#x43f;" horiz-adv-x="582" 
d="M482 331v-204c0 -69 19 -87 59 -87c4 -12 5 -25 5 -43c-29 2 -68 3 -109 3s-80 -1 -109 -3c0 18 1 31 5 43c40 0 59 18 59 87v204c0 69 -19 87 -59 87h-84c-40 0 -59 -18 -59 -87v-204c0 -69 19 -87 59 -87c4 -12 5 -25 5 -43c-29 2 -68 3 -109 3s-80 -1 -109 -3
c0 18 1 31 5 43c40 0 59 18 59 87v204c0 69 -19 87 -59 87c-4 12 -5 25 -5 43c29 -2 68 -3 209 -3h92c141 0 180 1 209 3c0 -18 -1 -31 -5 -43c-40 0 -59 -18 -59 -87z" />
    <glyph glyph-name="uni0440" unicode="&#x440;" horiz-adv-x="573" 
d="M201 5v-100c0 -87 26 -104 89 -107c4 -11 5 -25 5 -43c-31 2 -79 3 -126 3s-106 -1 -132 -3c0 18 1 32 5 43c53 3 69 20 69 87v440c0 47 -9 69 -75 71c0 15 2 26 9 37c41 3 103 18 134 34c12 -4 22 -15 22 -44c0 -24 -6 -43 -15 -72c10 22 18 34 23 42
c18 30 70 74 137 74c117 0 187 -68 187 -213c0 -149 -99 -263 -249 -263c-33 0 -56 5 -83 14zM322 404c-59 0 -121 -51 -121 -191v-141c23 -21 49 -35 88 -35c55 0 145 36 145 195c0 105 -48 172 -112 172z" />
    <glyph glyph-name="uni0441" unicode="&#x441;" horiz-adv-x="447" 
d="M248 -9c-102 0 -208 79 -208 236c0 120 73 240 208 240c61 0 113 -15 151 -45c-6 -39 -7 -76 -7 -114c-11 -6 -32 -8 -46 -8c-8 77 -48 120 -106 120c-66 0 -107 -64 -107 -178c0 -100 50 -194 143 -194c43 0 82 20 111 58c10 -5 21 -16 25 -28c-36 -57 -88 -87 -164 -87
z" />
    <glyph glyph-name="uni0442" unicode="&#x442;" horiz-adv-x="486" 
d="M459 460c-2 -34 1 -73 7 -126c-15 -9 -32 -12 -50 -12c-5 72 -27 101 -88 101h-40v-318c0 -52 11 -63 66 -65c3 -11 4 -28 4 -43c-33 2 -74 3 -113 3c-40 0 -89 -1 -119 -3c0 15 1 31 5 43c54 2 67 13 67 65v318h-32c-74 0 -84 -32 -97 -101c-20 0 -32 3 -49 12
c9 48 14 93 14 126c49 -2 123 -2 212 -2c87 0 165 1 213 2z" />
    <glyph glyph-name="uni0443" unicode="&#x443;" horiz-adv-x="541" 
d="M426 458c37 0 70 0 100 2c0 -13 0 -29 -6 -43c-37 -9 -49 -28 -81 -104l-147 -350c-76 -182 -113 -212 -174 -212c-40 0 -62 13 -75 23c-5 20 -3 56 1 73c23 -4 44 -6 64 -6c39 0 75 17 101 59c10 15 27 49 46 93c-46 104 -103 229 -136 301c-47 100 -64 116 -98 123
c-4 12 -6 27 -6 43c38 -1 78 -2 113 -2s92 1 133 2c0 -17 -2 -31 -7 -43c-72 -12 -79 -35 -43 -110c26 -53 65 -145 90 -206l9 23l69 174c34 85 14 108 -45 119c-5 14 -7 28 -7 43c31 -2 62 -2 99 -2z" />
    <glyph glyph-name="uni0444" unicode="&#x444;" horiz-adv-x="758" 
d="M494 -9c-26 0 -49 4 -72 10c2 -38 2 -78 2 -116c0 -67 20 -84 79 -87c4 -11 5 -25 5 -43c-32 2 -95 3 -129 3s-97 -1 -129 -3c0 18 1 32 5 43c59 3 79 20 79 87c0 38 0 78 2 116c-23 -6 -46 -10 -72 -10c-140 0 -224 90 -224 241c0 147 84 235 224 235c26 0 49 -4 72 -10
c-2 41 -2 81 -2 122c0 43 -7 67 -75 67c0 15 2 26 9 37c30 0 110 17 134 34c12 -4 22 -15 22 -40v-98c0 -41 0 -81 -2 -122c23 6 46 10 72 10c140 0 224 -88 224 -235c0 -151 -84 -241 -224 -241zM140 232c0 -132 44 -193 138 -193c20 0 37 3 58 9v362c-21 6 -38 9 -58 9
c-94 0 -138 -59 -138 -187zM618 232c0 128 -44 187 -138 187c-20 0 -37 -3 -58 -9v-362c21 -6 38 -9 58 -9c94 0 138 61 138 193z" />
    <glyph glyph-name="uni0445" unicode="&#x445;" horiz-adv-x="521" 
d="M487 40c5 -13 5 -25 5 -42c-41 2 -71 2 -105 2s-76 0 -115 -2c0 17 0 30 4 42c47 1 57 16 26 62c-17 26 -37 55 -57 85l-42 -61c-42 -61 -30 -86 9 -86c4 -10 6 -28 6 -42c-37 2 -85 2 -105 2c-15 0 -42 0 -83 -2c0 14 1 31 6 42c36 2 62 19 112 89l70 97
c-28 40 -55 77 -76 105c-57 76 -67 86 -98 89c-5 11 -7 25 -7 40c29 -1 66 -2 105 -2s81 0 115 2c0 -13 -3 -29 -5 -40c-47 -2 -57 -17 -15 -74c11 -14 27 -36 45 -61l40 61c34 53 33 72 -11 74c-5 12 -6 26 -6 40c25 -1 49 -2 89 -2s63 1 84 2c0 -14 -3 -29 -6 -40
c-30 -2 -46 -11 -87 -69l-74 -104c32 -44 66 -91 90 -125c43 -63 60 -81 86 -82z" />
    <glyph glyph-name="uni0446" unicode="&#x446;" horiz-adv-x="605" 
d="M541 40h13c10 -9 15 -23 15 -36c-8 -39 -13 -97 -13 -172c-16 -5 -38 -5 -56 0c1 59 -4 119 -12 167c-32 1 -77 1 -151 1h-92c-141 0 -180 -1 -209 -3c0 18 1 31 5 43c40 0 59 18 59 87v204c0 69 -19 87 -59 87c-4 12 -5 25 -5 43c29 -2 68 -3 109 -3s80 1 109 3
c0 -18 -1 -31 -5 -43c-40 0 -59 -18 -59 -87v-204c0 -69 19 -87 59 -87h84c40 0 59 18 59 87v204c0 69 -19 87 -59 87c-4 12 -5 25 -5 43c29 -2 68 -3 109 -3s80 1 109 3c0 -18 -1 -31 -5 -43c-40 0 -59 -18 -59 -87v-204c0 -69 19 -87 59 -87z" />
    <glyph glyph-name="uni0447" unicode="&#x447;" horiz-adv-x="572" 
d="M472 331v-204c0 -69 19 -87 59 -87c4 -12 5 -25 5 -43c-29 2 -68 3 -109 3c-53 0 -98 -1 -124 -2c0 14 1 28 5 38c53 3 74 17 74 74v100c-34 -8 -79 -14 -125 -14c-155 0 -168 58 -173 149c0 55 -19 73 -59 73c-4 12 -5 25 -5 43c29 -2 68 -3 109 -3s80 1 109 3
c0 -18 -1 -31 -5 -43c-40 0 -59 -18 -59 -75c0 -73 28 -103 115 -103c21 0 62 2 93 6v85c0 69 -19 87 -59 87c-4 12 -5 25 -5 43c29 -2 68 -3 109 -3s80 1 109 3c0 -18 -1 -31 -5 -43c-40 0 -59 -18 -59 -87z" />
    <glyph glyph-name="uni0448" unicode="&#x448;" horiz-adv-x="772" 
d="M736 461c0 -18 -1 -31 -5 -43c-40 0 -59 -18 -59 -87v-204c0 -69 19 -87 59 -87c4 -12 5 -25 5 -43c-35 2 -76 3 -186 3h-330c-109 0 -146 -1 -184 -3c0 18 1 31 5 43c40 0 59 18 59 87v204c0 69 -19 87 -59 87c-4 12 -5 25 -5 43c29 -2 68 -3 109 -3s80 1 104 3
c0 -18 -1 -31 -5 -43c-39 0 -54 -18 -54 -87v-228c0 -32 4 -51 20 -59c11 -6 31 -7 56 -7c24 0 45 1 56 7c16 8 19 27 19 59v228c0 69 -15 87 -54 87c-4 12 -5 25 -5 43c24 -2 63 -3 104 -3s80 1 104 3c0 -18 -1 -31 -5 -43c-39 0 -54 -18 -54 -87v-228c0 -32 4 -51 20 -59
c11 -6 31 -7 55 -7c25 0 45 1 56 7c16 8 20 27 20 59v228c0 69 -15 87 -54 87c-4 12 -5 25 -5 43c24 -2 63 -3 104 -3s80 1 109 3z" />
    <glyph glyph-name="uni0449" unicode="&#x449;" horiz-adv-x="815" 
d="M731 40h33c10 -9 15 -23 15 -36c-8 -39 -13 -97 -13 -172c-16 -5 -38 -5 -56 0c1 59 -4 119 -12 167c-31 1 -74 1 -148 1h-330c-109 0 -146 -1 -184 -3c0 18 1 31 5 43c40 0 59 18 59 87v204c0 69 -19 87 -59 87c-4 12 -5 25 -5 43c29 -2 68 -3 109 -3s80 1 104 3
c0 -18 -1 -31 -5 -43c-39 0 -54 -18 -54 -87v-228c0 -32 4 -51 20 -59c11 -6 31 -7 56 -7c24 0 45 1 56 7c16 8 19 27 19 59v228c0 69 -15 87 -54 87c-4 12 -5 25 -5 43c24 -2 63 -3 104 -3s80 1 104 3c0 -18 -1 -31 -5 -43c-39 0 -54 -18 -54 -87v-228c0 -32 4 -51 20 -59
c11 -6 31 -7 55 -7c25 0 45 1 56 7c16 8 20 27 20 59v228c0 69 -15 87 -54 87c-4 12 -5 25 -5 43c24 -2 63 -3 104 -3s80 1 109 3c0 -18 -1 -31 -5 -43c-40 0 -59 -18 -59 -87v-204c0 -69 19 -87 59 -87z" />
    <glyph glyph-name="uni044A" unicode="&#x44a;" horiz-adv-x="631" 
d="M360 261c146 0 231 -34 231 -127c0 -77 -59 -134 -210 -134c-104 0 -191 -1 -239 -3c0 18 1 31 5 43c40 0 59 18 59 87v295h-14c-99 0 -116 -43 -122 -92c-21 0 -39 5 -50 12c9 35 14 86 17 118c30 -1 99 -2 213 -2h11c45 0 90 1 117 3c0 -15 -1 -32 -5 -43
c-55 -2 -77 -13 -77 -72v-88c21 2 42 3 64 3zM366 40c88 0 122 29 122 81c0 80 -81 100 -137 100c-9 0 -35 0 -55 -2v-112c0 -56 16 -67 70 -67z" />
    <glyph glyph-name="uni044B" unicode="&#x44b;" horiz-adv-x="770" 
d="M258 261c144 0 233 -35 233 -127c0 -77 -62 -134 -216 -134c-67 0 -191 -1 -239 -3c0 18 1 31 5 43c40 0 59 18 59 87v204c0 69 -19 87 -59 87c-4 12 -5 25 -5 43c29 -2 68 -3 119 -3c45 0 90 1 117 3c0 -15 -1 -32 -5 -43c-55 -2 -77 -13 -77 -72v-88c21 2 42 3 68 3z
M670 331v-204c0 -69 19 -87 59 -87c4 -12 5 -25 5 -43c-29 2 -68 3 -109 3s-80 -1 -109 -3c0 18 1 31 5 43c40 0 59 18 59 87v204c0 69 -19 87 -59 87c-4 12 -5 25 -5 43c29 -2 68 -3 109 -3s80 1 109 3c0 -18 -1 -31 -5 -43c-40 0 -59 -18 -59 -87zM266 40
c82 0 121 30 121 83c0 77 -87 98 -142 98c-9 0 -35 0 -55 -2v-112c0 -58 16 -67 76 -67z" />
    <glyph glyph-name="uni044C" unicode="&#x44c;" horiz-adv-x="531" 
d="M258 261c144 0 233 -35 233 -127c0 -77 -62 -134 -216 -134c-67 0 -191 -1 -239 -3c0 18 1 31 5 43c40 0 59 18 59 87v204c0 69 -19 87 -59 87c-4 12 -5 25 -5 43c29 -2 68 -3 119 -3c45 0 90 1 117 3c0 -15 -1 -32 -5 -43c-55 -2 -77 -13 -77 -72v-88c21 2 42 3 68 3z
M266 40c82 0 121 30 121 83c0 77 -87 98 -142 98c-9 0 -35 0 -55 -2v-112c0 -58 16 -67 76 -67z" />
    <glyph glyph-name="uni044D" unicode="&#x44d;" horiz-adv-x="512" 
d="M215 464c165 0 257 -81 257 -228c0 -151 -98 -242 -267 -242c-61 0 -114 12 -169 35c3 32 3 70 -1 105c12 7 30 11 47 10c10 -82 44 -113 119 -113c105 0 166 62 173 172c-66 0 -138 0 -237 -3c0 18 4 43 11 56h226c-10 109 -72 172 -172 172c-63 0 -99 -27 -103 -111
c-17 0 -35 2 -48 7c0 37 -1 74 -8 105c52 23 108 35 172 35z" />
    <glyph glyph-name="uni044E" unicode="&#x44e;" horiz-adv-x="819" 
d="M521 467c149 0 258 -95 258 -234s-107 -242 -261 -242c-149 0 -246 95 -252 227c-23 0 -54 -1 -76 -3v-88c0 -69 19 -87 59 -87c4 -12 5 -25 5 -43c-29 2 -68 3 -109 3s-80 -1 -109 -3c0 18 1 31 5 43c40 0 59 18 59 87v204c0 69 -19 87 -59 87c-4 12 -5 25 -5 43
c29 -2 68 -3 109 -3s80 1 109 3c0 -18 -1 -31 -5 -43c-40 0 -59 -18 -59 -87v-77h77c11 128 114 213 254 213zM531 39c93 0 151 72 151 175c0 121 -74 205 -176 205c-87 0 -144 -66 -144 -172c0 -117 63 -208 169 -208z" />
    <glyph glyph-name="uni044F" unicode="&#x44f;" horiz-adv-x="528" 
d="M428 331v-204c0 -69 19 -87 59 -87c4 -12 5 -25 5 -43c-29 2 -68 3 -109 3s-80 -1 -99 -3c0 18 1 31 5 43c30 0 49 18 49 87v67c-52 0 -66 -16 -99 -79c-39 -75 -46 -95 -90 -124c-42 8 -75 9 -124 9c-4 11 -5 29 -5 42c73 5 86 24 129 87c33 48 53 68 80 77
c-114 13 -172 63 -172 135c0 67 50 119 196 119c26 0 88 -2 136 -2c34 0 74 1 103 3c0 -18 -1 -31 -5 -43c-40 0 -59 -18 -59 -87zM151 334c0 -69 68 -97 152 -97c12 0 22 1 35 2v181c-19 3 -36 6 -56 6c-95 0 -131 -39 -131 -92z" />
    <glyph glyph-name="uni0451" unicode="&#x451;" horiz-adv-x="474" 
d="M147 532c-34 0 -57 22 -57 51s16 57 55 57c40 0 57 -24 57 -55s-24 -53 -55 -53zM343 533c-39 0 -59 23 -59 56c0 32 23 51 56 51s57 -21 57 -51c0 -28 -14 -56 -54 -56zM406 105c11 -6 22 -20 24 -31c-46 -60 -105 -83 -178 -83c-142 0 -212 107 -212 238
c0 128 79 238 207 238c130 0 179 -93 187 -207c-3 -14 -8 -25 -15 -34c-42 0 -176 0 -280 -5c6 -89 40 -174 145 -174c44 0 89 20 122 58zM238 419c-47 0 -95 -32 -100 -148h192c0 88 -34 148 -92 148z" />
    <glyph glyph-name="uni0456" unicode="&#x456;" horiz-adv-x="301" 
d="M148 699c36 0 60 -25 60 -61c0 -31 -27 -58 -60 -58c-34 0 -59 26 -59 58c0 36 28 61 59 61zM201 427v-300c0 -67 16 -87 59 -87c4 -14 5 -34 5 -43c-35 2 -75 3 -113 3s-82 -1 -115 -3c0 13 1 30 5 43c53 0 69 20 69 87v198c0 47 -7 71 -75 71c0 15 2 26 9 37
c30 0 110 17 134 34c12 -4 22 -15 22 -40z" />
    </font>
</defs>
</svg>
