<svg xmlns="http://www.w3.org/2000/svg">
<defs>
<font id="Vollkorn-MediumItalic" horiz-adv-x="564" >
  <font-face 
    font-family="Vollkorn Medium"
    font-weight="500"
    font-style="italic"
    font-stretch="normal"
    units-per-em="1000"
    panose-1="0 0 6 0 0 0 0 0 0 0"
    ascent="800"
    descent="-200"
    x-height="465"
    cap-height="679"
    bbox="-183 -290 1080 972.404"
    underline-thickness="48"
    underline-position="-296"
    slope="-11"
    stemh="54"
    stemv="123"
    unicode-range="U+0020-FB02"
  />
<missing-glyph horiz-adv-x="453" 
d="M490 677l-132 -677h-352l132 677h352zM170 559c2 0 2 0 2 -1v-11c0 -2 0 -2 -1 -2l-1 -1h3h3v1c-1 0 -2 0 -2 2v13v1c-1 0 -3 -1 -3 -1c-1 0 -1 0 -1 -1zM178 545v-1h3h2v1c-1 0 -1 0 -1 2v13c0 1 -1 1 -1 1s-2 -1 -3 -1v-1c1 0 2 0 2 -1v-11c0 -2 -1 -2 -2 -2zM189 547
v2c2 -1 4 -4 5 -5h3v1c-1 0 -1 0 -3 1l-3 5l2 1c1 2 2 2 3 3h-2h-3s0 -1 1 -1c0 -1 0 -1 -1 -2l-2 -2v10v1c-1 0 -3 -1 -4 -1v-1c2 0 2 0 2 -1v-11c0 -2 -1 -2 -2 -2v-1h3h3l-1 1c-1 0 -1 0 -1 2zM240 560v-1c2 0 2 0 2 -1v-10c0 -2 0 -2 -1 -3c1 -1 3 -1 5 -1c4 0 6 2 6 6
c0 3 -2 5 -4 5s-3 -1 -4 -2v1v6c0 1 0 1 -1 1c0 0 -2 -1 -3 -1zM143 560v-1c1 0 1 0 2 -3c2 -3 4 -8 5 -12h1c2 4 4 8 5 12c1 2 1 3 2 3v1h-2h-2v-1c1 0 1 0 1 -1v-2l-3 -9c-2 4 -3 7 -4 10c-1 0 -1 1 -1 1c0 1 1 1 2 1v1h-3h-3zM163 544c3 0 6 2 6 5c0 4 -2 6 -6 6
c-3 0 -5 -2 -5 -6c0 -3 2 -5 5 -5zM198 549c0 -3 2 -5 6 -5c3 0 5 2 5 5c0 4 -2 6 -5 6c-4 0 -6 -2 -6 -6zM211 545v-1h3h3v1c-1 0 -2 0 -2 2v3c0 2 1 3 2 3s1 0 1 -2h2v3c-1 1 -1 1 -2 1s-2 -1 -3 -1c0 1 0 1 -1 1c0 0 -2 -1 -3 -1v-1c2 0 2 0 2 -1v-5c0 -2 -1 -2 -2 -2z
M221 545v-1h3h3v1c-1 0 -2 0 -2 2v2c0 3 2 5 3 5s2 -1 2 -3v-4c0 -2 0 -2 -1 -2l-1 -1h3h3v1c-1 0 -2 0 -2 2v4c0 3 -1 4 -3 4s-3 -1 -4 -1v1l-4 -1v-1c2 0 2 0 2 -1v-5c0 -2 0 -2 -2 -2zM260 543l4 8c1 2 1 3 2 4h-2h-3v-1c1 0 2 -1 2 -1c0 -1 0 -1 -1 -2l-1 -4v-1

<glyph glyph-name="fi" unicode="fi" horiz-adv-x="578" 
d="M335 397c-39 0 -66 -4 -97 -10c-20 -110 -33 -199 -43 -255c-35 -215 -122 -380 -247 -380c-33 0 -67 13 -95 40c-1 23 3 51 12 72c31 -12 69 -18 109 -18c51 0 68 15 95 206c13 92 24 201 46 338c-26 5 -52 8 -74 8c0 18 3 38 12 50h70c38 192 141 266 277 266
c79 0 135 -12 175 -35c-13 -37 -20 -75 -21 -109c-23 -12 -72 -16 -100 -11c-2 68 -25 104 -73 104c-69 0 -94 -43 -132 -215h57c124 0 162 6 191 19c37 -17 48 -50 29 -125l-50 -191c-17 -66 -13 -78 5 -78c11 0 28 7 46 25c11 -9 20 -25 22 -42c-40 -42 -84 -65 -128 -65
c-80 0 -91 62 -67 154l35 129c26 98 21 123 -54 123z" />
    <glyph glyph-name="fl" unicode="fl" horiz-adv-x="590" 
d="M53 448h70c36 184 136 266 274 266c47 0 82 -8 109 -21c17 4 31 9 43 17c23 -12 30 -30 23 -71c-27 -149 -55 -292 -81 -426c-24 -122 -17 -140 2 -140c12 0 25 7 46 25c11 -10 19 -26 22 -40c-35 -40 -84 -67 -127 -67c-58 0 -82 32 -81 87c1 46 9 93 81 455
c15 78 7 129 -58 129c-59 0 -96 -41 -127 -214h97c0 -19 -2 -39 -8 -51c-36 0 -71 -4 -100 -10c-20 -110 -33 -199 -43 -255c-35 -215 -122 -380 -247 -380c-33 0 -67 13 -95 40c-1 23 3 51 12 72c31 -12 69 -18 109 -18c51 0 68 15 95 206c13 92 24 201 46 338
c-26 5 -52 8 -74 8c0 18 3 38 12 50z" />
    <glyph glyph-name="f_f" unicode="ff" horiz-adv-x="650" 
d="M58 448h71c35 158 144 238 276 238c55 0 99 -16 132 -35c42 42 98 63 164 63c52 0 92 -11 110 -23c-14 -33 -25 -84 -26 -121c-13 -7 -38 -11 -58 -10c-3 62 -17 100 -56 100c-44 0 -66 -40 -99 -212h97c0 -19 -2 -39 -8 -51c-36 0 -71 -4 -100 -10
c-29 -179 -49 -264 -75 -337c-51 -138 -165 -258 -290 -258c-50 0 -83 18 -110 41c-38 -50 -84 -81 -138 -81c-33 0 -67 13 -95 40c-1 23 3 51 12 72c31 -12 69 -18 109 -18c51 0 68 15 95 206c13 92 29 202 51 338c-26 5 -52 8 -74 8c0 18 4 38 12 50zM447 448l1 6
c8 48 21 89 37 124c-21 34 -52 55 -96 55c-66 0 -111 -59 -134 -185h192zM368 7c26 95 43 191 70 383c-25 4 -53 7 -92 7s-72 -4 -103 -10c-14 -77 -31 -165 -50 -267c-15 -86 -39 -165 -70 -227c23 -11 51 -16 85 -16c95 0 133 26 160 130z" />
    <glyph glyph-name="f_f_i" unicode="ffi" horiz-adv-x="901" 
d="M405 686c57 0 104 -18 138 -39c47 47 110 67 180 67c80 0 135 -12 175 -35c-13 -37 -20 -75 -21 -109c-23 -12 -72 -16 -99 -11c-3 68 -26 104 -73 104c-70 0 -95 -43 -133 -215h57c124 0 162 6 191 19c38 -17 48 -50 29 -125l-50 -191c-17 -66 -13 -78 5 -78
c11 0 28 7 46 25c11 -9 20 -25 22 -42c-40 -42 -84 -65 -127 -65c-81 0 -92 62 -68 154l35 129c26 98 21 123 -54 123c-39 0 -66 -4 -97 -10c-29 -179 -49 -264 -75 -337c-51 -138 -165 -258 -290 -258c-50 0 -83 18 -110 41c-38 -50 -84 -81 -138 -81c-33 0 -67 13 -95 40
c-1 23 3 51 12 72c31 -12 69 -18 109 -18c51 0 68 15 95 206c13 92 29 202 51 338c-26 5 -52 8 -74 8c0 18 4 38 12 50h71c35 158 144 238 276 238zM389 633c-66 0 -111 -59 -134 -185h192c9 49 23 91 41 125c-21 37 -53 60 -99 60zM346 397c-39 0 -72 -4 -103 -10
c-14 -77 -31 -165 -50 -267c-15 -86 -39 -165 -70 -227c23 -11 51 -16 85 -16c95 0 133 26 160 130c26 95 43 191 70 383c-25 4 -53 7 -92 7z" />
    <glyph glyph-name="f_f_l" unicode="ffl" horiz-adv-x="913" 
d="M58 448h71c35 158 144 238 276 238c59 0 105 -18 138 -39c47 46 108 67 178 67c47 0 82 -8 109 -21c16 4 31 9 43 17c23 -12 29 -30 23 -71c-27 -149 -55 -292 -81 -426c-24 -122 -18 -140 2 -140c11 0 25 7 46 25c11 -10 19 -26 22 -40c-36 -40 -84 -67 -127 -67
c-59 0 -82 32 -81 87c1 46 9 93 80 455c16 78 7 129 -58 129c-58 0 -95 -41 -126 -214h97c0 -19 -2 -39 -8 -51c-35 0 -72 -4 -101 -10c-29 -179 -49 -264 -75 -337c-51 -138 -165 -258 -290 -258c-50 0 -83 18 -110 41c-38 -50 -84 -81 -138 -81c-33 0 -67 13 -95 40
c-1 23 3 51 12 72c31 -12 69 -18 109 -18c51 0 68 15 95 206c13 92 29 202 51 338c-26 5 -52 8 -74 8c0 18 4 38 12 50zM255 448h192c10 48 24 90 42 125c-22 36 -54 60 -100 60c-66 0 -111 -59 -134 -185zM368 7c26 95 43 191 70 383c-25 4 -53 7 -92 7s-72 -4 -103 -10
c-14 -77 -31 -165 -50 -267c-15 -86 -39 -165 -70 -227c23 -11 51 -16 85 -16c95 0 133 26 160 130z" />
    <glyph glyph-name="f_f_t.liga" unicode="fft" horiz-adv-x="962" 
d="M849 388l-41 -174c-26 -112 -11 -146 21 -146c21 0 47 15 66 38c11 -10 21 -28 23 -44c-28 -35 -88 -71 -142 -71c-96 0 -123 72 -90 215l43 185c-21 5 -37 6 -60 6c-1 18 4 39 12 51h62c14 61 18 85 18 113c0 39 -20 64 -68 64c-57 0 -95 -30 -121 -177h75
c0 -17 -3 -38 -10 -51c-27 0 -49 -2 -76 -10c-29 -179 -49 -264 -75 -337c-51 -138 -165 -258 -290 -258c-50 0 -83 18 -110 41c-38 -50 -84 -81 -138 -81c-33 0 -67 13 -95 40c-1 23 3 51 12 72c31 -12 69 -18 109 -18c51 0 68 15 95 206c13 92 29 202 51 338
c-26 5 -52 8 -74 8c0 18 4 38 12 50h71c39 166 155 228 274 228c70 0 119 -20 153 -41c44 29 98 42 158 42c48 0 84 -11 111 -24c17 4 31 10 43 17c22 -10 28 -29 23 -65c-4 -32 -11 -72 -29 -157h93c0 -19 -2 -39 -8 -51c-36 0 -70 -3 -98 -9zM255 448h192
c9 49 25 89 47 122c-23 34 -56 52 -103 52c-63 0 -112 -43 -136 -174zM368 7c26 95 43 191 70 383c-25 4 -53 7 -92 7s-72 -4 -103 -10c-14 -77 -31 -165 -50 -267c-15 -86 -39 -165 -70 -227c23 -11 51 -16 85 -16c95 0 133 26 160 130z" />
    <glyph glyph-name="f_t.liga" unicode="ft" horiz-adv-x="639" 
d="M391 677c48 0 84 -11 111 -24c16 4 31 10 43 17c22 -10 28 -29 23 -65c-4 -32 -11 -72 -29 -157h92c0 -19 -2 -39 -7 -51c-36 0 -70 -3 -98 -9l-41 -174c-26 -112 -11 -146 21 -146c20 0 47 15 66 38c11 -10 21 -28 23 -44c-29 -35 -88 -71 -143 -71
c-95 0 -122 72 -89 215l43 185c-22 5 -37 6 -60 6c-1 18 4 39 12 51h62c14 61 18 85 18 113c0 39 -20 64 -68 64c-57 0 -95 -30 -121 -177h74c1 -17 -2 -38 -10 -51c-26 0 -48 -2 -75 -10c-20 -110 -33 -199 -43 -255c-35 -215 -122 -380 -247 -380c-33 0 -67 13 -95 40
c-1 23 3 51 12 72c31 -12 69 -18 109 -18c51 0 68 15 95 206c13 92 24 201 46 338c-26 5 -52 8 -74 8c0 18 3 38 12 50h70c33 165 136 229 268 229z" />
    <glyph glyph-name=".notdef" horiz-adv-x="453" 
d="M490 677l-132 -677h-352l132 677h352zM170 559c2 0 2 0 2 -1v-11c0 -2 0 -2 -1 -2l-1 -1h3h3v1c-1 0 -2 0 -2 2v13v1c-1 0 -3 -1 -3 -1c-1 0 -1 0 -1 -1zM178 545v-1h3h2v1c-1 0 -1 0 -1 2v13c0 1 -1 1 -1 1s-2 -1 -3 -1v-1c1 0 2 0 2 -1v-11c0 -2 -1 -2 -2 -2zM189 547
v2c2 -1 4 -4 5 -5h3v1c-1 0 -1 0 -3 1l-3 5l2 1c1 2 2 2 3 3h-2h-3s0 -1 1 -1c0 -1 0 -1 -1 -2l-2 -2v10v1c-1 0 -3 -1 -4 -1v-1c2 0 2 0 2 -1v-11c0 -2 -1 -2 -2 -2v-1h3h3l-1 1c-1 0 -1 0 -1 2zM240 560v-1c2 0 2 0 2 -1v-10c0 -2 0 -2 -1 -3c1 -1 3 -1 5 -1c4 0 6 2 6 6
c0 3 -2 5 -4 5s-3 -1 -4 -2v1v6c0 1 0 1 -1 1c0 0 -2 -1 -3 -1zM143 560v-1c1 0 1 0 2 -3c2 -3 4 -8 5 -12h1c2 4 4 8 5 12c1 2 1 3 2 3v1h-2h-2v-1c1 0 1 0 1 -1v-2l-3 -9c-2 4 -3 7 -4 10c-1 0 -1 1 -1 1c0 1 1 1 2 1v1h-3h-3zM163 544c3 0 6 2 6 5c0 4 -2 6 -6 6
c-3 0 -5 -2 -5 -6c0 -3 2 -5 5 -5zM198 549c0 -3 2 -5 6 -5c3 0 5 2 5 5c0 4 -2 6 -5 6c-4 0 -6 -2 -6 -6zM211 545v-1h3h3v1c-1 0 -2 0 -2 2v3c0 2 1 3 2 3s1 0 1 -2h2v3c-1 1 -1 1 -2 1s-2 -1 -3 -1c0 1 0 1 -1 1c0 0 -2 -1 -3 -1v-1c2 0 2 0 2 -1v-5c0 -2 -1 -2 -2 -2z
M221 545v-1h3h3v1c-1 0 -2 0 -2 2v2c0 3 2 5 3 5s2 -1 2 -3v-4c0 -2 0 -2 -1 -2l-1 -1h3h3v1c-1 0 -2 0 -2 2v4c0 3 -1 4 -3 4s-3 -1 -4 -1v1l-4 -1v-1c2 0 2 0 2 -1v-5c0 -2 0 -2 -2 -2zM260 543l4 8c1 2 1 3 2 4h-2h-3v-1c1 0 2 -1 2 -1c0 -1 0 -1 -1 -2l-1 -4v-1
c-1 2 -2 4 -3 5v2s0 1 1 1s1 1 1 1h-4c-1 0 -2 0 -2 -1c1 0 1 -1 2 -3l3 -7c0 -2 0 -2 -1 -3c0 -1 -1 -1 -2 -1h-2v-2h2c2 0 2 0 4 5zM163 554c2 0 3 -2 3 -5s-1 -4 -3 -4s-3 2 -3 5c0 2 1 4 3 4zM203 554c2 0 4 -2 4 -5s-1 -4 -3 -4s-3 2 -3 5c0 2 0 4 2 4zM250 549
c0 -3 -3 -4 -4 -4h-2v4c0 3 2 5 3 5s3 -1 3 -5zM149 531c1 0 2 -1 3 -3v3c0 1 -1 1 -2 1c-2 0 -5 -2 -5 -6v-1h-2v-1h2v-6c0 -2 0 -2 -2 -3v-1h3h3v1c-1 1 -2 1 -2 3v6h2l1 1h-3v2c0 2 1 4 2 4zM164 530c0 -1 0 -1 1 -1s2 0 2 1s-1 2 -2 2s-1 -1 -1 -2zM193 516
c-1 0 -1 1 -1 2v13c0 1 -1 1 -1 1s-2 -1 -3 -1v-1c1 0 1 0 1 -2v-2h-2c-3 0 -6 -3 -6 -6c0 -4 2 -6 5 -6c2 0 3 1 3 2l1 1v-3c1 1 2 1 3 2zM209 530c0 1 0 2 -1 2s-2 -1 -2 -2s1 -1 2 -1s1 0 1 1zM236 514v1c-1 0 -2 1 -2 3v4c0 3 -1 4 -3 4s-3 -1 -4 -2v1v6c0 1 0 1 -1 1
c0 0 -2 -1 -3 -1v-1c2 0 2 0 2 -2v-10c0 -2 -1 -3 -2 -3v-1h3h3v1c-2 0 -2 1 -2 3v2c0 3 1 4 3 4c1 0 2 0 2 -3v-3c0 -2 -1 -3 -2 -3v-1h3h3zM255 514v1c-1 0 -2 1 -2 3v13v1c-1 0 -3 -1 -4 -1v-1c2 0 2 0 2 -2v-10c0 -2 0 -3 -2 -3v-1h3h3zM278 514v1c-1 0 -2 1 -2 3v4
c0 3 -1 4 -3 4s-3 -1 -4 -2v1v6v1c-1 0 -3 -1 -4 -1v-1c2 0 2 0 2 -2v-10c0 -2 0 -3 -2 -3v-1h3h3v1c-1 0 -2 1 -2 3v2c0 3 2 4 3 4s2 0 2 -3v-3c0 -2 0 -3 -2 -3v-1h3h3zM359 515c1 0 1 1 1 1c-2 0 -2 1 -2 2v13c0 1 0 1 -1 1c0 0 -2 -1 -3 -1v-1c2 0 2 0 2 -2v-2h-2
c-4 0 -6 -3 -6 -6c0 -4 1 -6 4 -6c2 0 3 1 4 2v-1s0 -1 1 -1c0 1 2 1 2 1zM261 514c1 0 2 1 3 1c0 1 -1 1 -2 1s-2 0 -2 2v6h3v1h-3v3v2c-1 -1 -1 -1 -2 -1v-4h-2v-1h2v-7c0 -2 1 -3 3 -3zM161 522v3c-1 0 -1 1 -2 1s-2 -1 -3 -1v1c-1 -1 -3 -1 -4 -2c2 0 2 0 2 -2v-4
c0 -2 0 -2 -2 -3v-1h3h3v1c-1 1 -2 1 -2 3v2c0 2 1 4 2 4s1 0 1 -2h2zM168 514v1c-1 0 -2 1 -2 3v8c-1 -1 -3 -1 -3 -1c-1 0 -1 -1 -1 -1c2 0 2 0 2 -2v-4c0 -2 0 -3 -2 -3v-1h3h3zM179 520v1c0 3 -1 5 -4 5s-5 -3 -5 -6s1 -6 5 -6c2 0 3 1 4 2v1c-1 -1 -2 -1 -3 -1
c-3 0 -4 2 -4 4h7zM204 522v3c-1 0 -1 1 -2 1s-2 -1 -3 -1c0 0 0 1 -1 1c0 -1 -2 -1 -3 -2c2 0 2 0 2 -2v-4c0 -2 -1 -2 -2 -3v-1h3h3v1c-1 1 -2 1 -2 3v2c0 2 1 4 2 4s1 0 1 -2h2zM211 514v1c-1 0 -2 1 -2 3v8c-1 -1 -3 -1 -4 -2c2 0 2 0 2 -2v-4c0 -2 0 -3 -2 -3v-1h3h3z
M218 514c2 0 3 1 4 2c0 1 -1 1 -1 1c-1 -1 -2 -1 -3 -1c-2 0 -3 2 -3 4c0 3 1 5 3 5c1 0 2 -1 3 -3v3c-1 0 -2 1 -3 1c-4 0 -5 -3 -5 -6c0 -4 2 -6 5 -6zM247 515c1 0 1 1 1 1c-2 0 -2 1 -2 2v3c0 2 0 3 -1 4c0 0 -1 1 -2 1c-2 0 -3 -1 -4 -1v-2s0 -1 1 -1c0 1 0 3 2 3
c1 0 1 0 2 -1v-3c-2 0 -6 -1 -6 -4c0 -2 1 -3 3 -3c1 0 2 1 2 1l1 1v-1l1 -1c1 1 2 1 2 1zM290 516c-1 0 -2 1 -2 2v3c0 2 0 3 -1 4c0 0 -1 1 -2 1c-2 0 -3 -1 -4 -1v-2s0 -1 1 -1c0 1 1 3 2 3s1 0 2 -1v-3c-2 0 -6 -1 -6 -4c0 -2 1 -3 3 -3c1 0 2 1 3 1l1 -1c1 1 2 1 3 2z
M303 516c-1 0 -1 1 -1 2v7s0 1 -1 1c0 0 -2 -1 -3 -1v-1c1 0 2 0 2 -1v-3c0 -3 -2 -4 -3 -4c-2 0 -2 1 -2 3v6s0 1 -1 1c-1 -1 -2 -1 -3 -2c1 0 2 0 2 -2v-3c0 -4 1 -5 3 -5c1 0 2 1 3 2c0 0 1 0 1 1v-2v-1c1 1 3 2 3 2zM309 514c3 0 5 2 5 4c0 1 -1 2 -4 3c-2 1 -3 2 -3 3
c0 0 1 1 2 1c2 0 3 -1 4 -3v3c-1 1 -2 1 -4 1c-1 0 -4 -1 -4 -3s1 -3 4 -4c2 -1 3 -1 3 -2s-1 -2 -2 -2c-2 0 -3 1 -3 3h-2v-1v-2c1 0 2 -1 4 -1zM325 520v1c0 3 -1 5 -4 5s-5 -3 -5 -6s1 -6 5 -6c2 0 3 1 4 2v1c-1 -1 -2 -1 -3 -1c-3 0 -4 2 -4 4h7zM340 514v1
c-1 0 -2 1 -2 3v4c0 3 -1 4 -3 4s-3 -1 -4 -2v1v1c-1 -1 -3 -1 -4 -2c2 0 2 0 2 -2v-4c0 -2 0 -3 -2 -3v-1h3h3v1c-1 0 -2 1 -2 3v2c0 3 2 4 3 4s2 0 2 -3v-3c0 -2 0 -3 -1 -3s-1 0 -1 -1h3h3zM367 516c-2 0 -3 2 -3 4h7v1c0 3 -1 5 -5 5c-3 0 -5 -3 -5 -6s2 -6 6 -6
c1 0 3 1 4 2c0 1 0 1 -1 1c-1 -1 -2 -1 -3 -1zM175 525c1 0 2 -2 2 -4h-5c0 3 1 4 3 4zM184 520c0 4 2 5 3 5s2 -1 2 -1v-4c0 -3 -1 -4 -3 -4c-1 0 -2 1 -2 4zM321 525c1 0 2 -2 2 -4h-5c0 3 1 4 3 4zM350 520c0 4 2 5 4 5c1 0 1 -1 2 -1v-4c0 -3 -2 -4 -3 -4s-3 1 -3 4z
M366 525c2 0 2 -2 2 -4h-4c0 3 1 4 2 4zM240 517c0 2 2 3 4 3v-1c0 -2 -1 -3 -2 -3s-2 0 -2 1zM282 517c0 2 3 3 4 3v-1c0 -2 -1 -3 -2 -3s-2 0 -2 1zM344 514c0 0 1 1 1 2c0 0 0 1 -1 1s-2 -1 -2 -1c0 -1 1 -2 2 -2zM287 516c0 0 -1 0 -1 -1c0 1 0 1 1 1z" />
    <glyph glyph-name="space" unicode=" " horiz-adv-x="186" 
 />
    <glyph glyph-name="exclam" unicode="!" horiz-adv-x="418" 
d="M354 651c-29 -97 -75 -273 -108 -420c-22 -3 -44 0 -60 8c20 174 29 304 34 440c38 7 89 21 119 36c22 -8 27 -24 15 -64zM189 129c39 0 70 -31 61 -79c-7 -36 -30 -58 -69 -58c-46 0 -74 31 -64 80c6 34 34 57 72 57z" />
    <glyph glyph-name="quotedbl" unicode="&#x22;" horiz-adv-x="352" 
d="M218 715c17 -8 24 -27 14 -55c-16 -47 -35 -112 -57 -201c-19 0 -35 2 -50 11c12 75 20 153 22 221c24 4 53 13 71 24zM363 715c18 -8 24 -27 14 -55c-16 -47 -35 -112 -56 -201c-19 0 -36 2 -50 11c12 75 20 153 22 221c23 4 52 13 70 24z" />
    <glyph glyph-name="numbersign" unicode="#" horiz-adv-x="570" 
d="M564 436h-101l-37 -173h109c0 -22 -4 -40 -13 -56h-108l-45 -215c-22 2 -38 8 -52 22l41 193l-152 -1l-45 -214c-24 2 -41 10 -51 26l40 188l-115 -2c0 20 5 39 14 59h113l37 172c-44 0 -81 -1 -111 -2c0 20 4 40 14 59h109l47 222c23 -2 40 -9 51 -22l-42 -200h152
l47 222c22 -3 39 -9 51 -20l-43 -202h103c0 -24 -4 -41 -13 -56zM407 436l-153 -1l-36 -172h152z" />
    <glyph glyph-name="dollar" unicode="$" horiz-adv-x="480" 
d="M392 495c-1 70 -20 109 -52 125c-16 -79 -30 -151 -44 -222c80 -54 172 -112 150 -237c-18 -101 -116 -169 -233 -170l-15 -82c-21 1 -44 6 -58 19l13 66c-69 9 -111 33 -154 69c16 47 28 95 32 143c22 7 49 8 72 2c-6 -86 11 -135 61 -152l46 238
c-73 50 -148 109 -125 237c16 92 95 148 208 154l13 66c23 0 42 -5 58 -18l-11 -50c53 -7 95 -24 121 -46c-7 -46 -11 -92 -11 -136c-20 -7 -46 -9 -71 -6zM190 546c-8 -48 17 -81 55 -112l37 196c-50 -4 -83 -29 -92 -84zM327 135c10 56 -21 91 -65 123l-39 -210
c52 2 95 36 104 87z" />
    <glyph glyph-name="percent" unicode="%" horiz-adv-x="698" 
d="M97 38l516 647c22 -11 37 -26 41 -48c-202 -244 -321 -391 -518 -646c-20 8 -37 27 -39 47zM252 677c95 0 145 -72 123 -181c-17 -82 -79 -137 -153 -137c-100 0 -153 73 -131 183c17 81 81 135 161 135zM241 626c-33 0 -61 -33 -70 -82c-15 -80 7 -134 56 -134
c32 0 59 33 69 82c15 80 -7 134 -55 134zM523 309c95 0 145 -72 123 -181c-17 -82 -79 -137 -153 -137c-99 0 -152 73 -131 183c17 81 81 135 161 135zM512 258c-33 0 -61 -33 -70 -82c-15 -80 8 -134 56 -134c32 0 60 33 69 82c15 80 -6 134 -55 134z" />
    <glyph glyph-name="ampersand" unicode="&#x26;" horiz-adv-x="739" 
d="M665 100c14 -9 24 -25 29 -40c-24 -38 -68 -69 -124 -69c-43 0 -74 6 -120 50c-63 -32 -133 -50 -203 -50c-183 0 -245 93 -223 212c19 106 94 155 174 194c-38 81 -42 135 -32 192c11 64 67 128 204 128c120 0 172 -61 157 -137c-21 -107 -106 -144 -191 -181
c20 -33 46 -72 78 -119c42 -61 74 -104 99 -134c29 31 49 68 57 110c18 90 -16 119 -78 121c-3 16 -4 32 -1 48c40 5 102 25 129 43c52 -19 67 -72 51 -156c-15 -79 -60 -149 -122 -204c28 -27 46 -31 65 -31c18 0 34 6 51 23zM276 591c-7 -36 -2 -75 32 -143
c57 30 103 65 115 127c10 57 -15 89 -65 89c-46 0 -75 -30 -82 -73zM141 205c-16 -90 36 -157 132 -157c49 0 99 10 143 30c-29 33 -64 78 -108 141c-33 47 -60 87 -80 123c-42 -30 -75 -71 -87 -137z" />
    <glyph glyph-name="quotesingle" unicode="'" horiz-adv-x="207" 
d="M218 715c17 -8 24 -27 14 -55c-16 -47 -35 -112 -57 -201c-19 0 -35 2 -50 11c12 75 20 153 22 221c24 4 53 13 71 24z" />
    <glyph glyph-name="parenleft" unicode="(" horiz-adv-x="312" 
d="M365 726c-113 -122 -171 -251 -204 -444c-38 -218 -25 -402 35 -544c-11 -8 -27 -10 -45 -9c-93 154 -129 350 -96 534c32 183 101 316 263 478c19 2 37 -4 47 -15z" />
    <glyph glyph-name="parenright" unicode=")" horiz-adv-x="307" 
d="M259 234c-35 -201 -111 -342 -271 -505c-18 -2 -36 1 -47 11c120 152 180 289 214 488c36 202 23 362 -38 499c13 10 28 15 44 14c97 -175 129 -337 98 -507z" />
    <glyph glyph-name="asterisk" unicode="*" horiz-adv-x="469" 
d="M367 661c-23 16 -59 21 -87 17c0 -52 -1 -95 -6 -144c-41 32 -78 63 -109 95c-25 -17 -39 -43 -44 -75c51 -16 90 -30 134 -50c-41 -28 -84 -55 -123 -75c8 -32 26 -53 57 -66c31 44 56 75 90 112c14 -49 26 -97 33 -142c32 2 62 16 82 37c-32 42 -56 77 -82 120
c51 -3 101 -7 148 -14c7 31 3 64 -10 90c-49 -17 -92 -28 -141 -39c17 49 37 94 58 134z" />
    <glyph glyph-name="plus" unicode="+" horiz-adv-x="548" 
d="M316 295h205c1 -22 -3 -42 -14 -59h-203c-14 -77 -28 -153 -41 -230c-22 -5 -45 -2 -61 9l42 220c-70 0 -139 -1 -203 -2c-1 24 4 45 16 62h198l40 208c21 6 42 6 62 -3c-15 -69 -28 -137 -41 -205z" />
    <glyph glyph-name="comma" unicode="," horiz-adv-x="228" 
d="M126 126c24 -13 35 -43 23 -102c-14 -75 -68 -152 -137 -206c-20 1 -34 11 -42 26c80 74 123 157 35 175c0 26 7 57 20 76c35 2 77 16 101 31z" />
    <glyph glyph-name="hyphen" unicode="-" horiz-adv-x="352" 
d="M57 307h271c-1 -32 -6 -53 -15 -74c-66 0 -160 0 -275 -3c3 34 8 56 19 77z" />
    <glyph glyph-name="period" unicode="." horiz-adv-x="215" 
d="M81 129c38 0 70 -31 61 -79c-7 -36 -31 -58 -69 -58c-47 0 -75 31 -64 80c6 34 33 57 72 57z" />
    <glyph glyph-name="slash" unicode="/" horiz-adv-x="292" 
d="M-33 24l356 693c24 -5 39 -14 52 -30c-132 -245 -235 -444 -357 -696c-24 5 -40 14 -51 33z" />
    <glyph glyph-name="zero" unicode="0" horiz-adv-x="618" 
d="M346 507c-148 0 -263 -87 -290 -226c-33 -172 59 -290 233 -290c144 0 255 94 282 236c32 168 -56 280 -225 280zM325 450c100 0 150 -98 121 -247c-20 -104 -77 -156 -143 -156c-102 0 -152 102 -125 251c18 95 73 152 147 152z" />
    <glyph glyph-name="one" unicode="1" horiz-adv-x="397" 
d="M121 141l42 219c13 70 -2 83 -57 90c-3 16 -4 34 -1 53c40 -2 83 -3 132 -3c45 0 90 1 136 3c-1 -18 -4 -36 -11 -53c-52 -8 -64 -22 -78 -96l-41 -212c-14 -74 -1 -85 55 -92c3 -16 4 -34 2 -53c-45 2 -87 3 -133 3c-48 0 -97 -1 -134 -3c1 20 4 37 11 53
c52 6 64 18 77 91z" />
    <glyph glyph-name="two" unicode="2" horiz-adv-x="496" 
d="M449 377c-9 -59 -48 -96 -135 -158c-95 -70 -41 -26 -149 -112c22 2 43 2 65 2c31 0 61 -3 75 -3c26 0 39 11 50 62c22 2 49 -2 64 -9c-9 -46 -15 -96 -14 -133c-10 -24 -24 -29 -54 -29c-22 0 -77 3 -143 3c-61 0 -118 0 -186 -3c-9 16 -13 36 -10 57
c76 64 94 78 202 160c64 48 99 94 109 145c11 58 -16 93 -64 93c-51 0 -84 -38 -102 -136c-26 0 -52 3 -69 12c12 41 20 88 22 131c56 34 119 47 179 47c115 0 174 -48 160 -129z" />
    <glyph glyph-name="three" unicode="3" horiz-adv-x="491" 
d="M437 364c-11 -48 -44 -94 -138 -140c90 -23 131 -104 106 -200c-30 -118 -144 -195 -290 -195c-53 0 -90 10 -114 29c1 18 13 38 25 45c19 -11 49 -17 85 -17c94 0 156 51 172 129c17 81 -25 138 -131 136c-10 11 -15 33 -11 51c100 29 161 79 174 155
c11 61 -17 95 -64 95c-48 0 -85 -34 -104 -136c-23 -1 -51 3 -70 12c14 38 21 87 23 131c50 31 108 47 176 47c128 0 182 -58 161 -142z" />
    <glyph glyph-name="four" unicode="4" horiz-adv-x="557" 
d="M486 83c-11 -23 -21 -52 -26 -83h-79l-28 -153c-38 0 -71 -6 -102 -18c-13 8 -18 20 -14 41l24 129c-109 -1 -188 -2 -238 -5c-11 18 -15 36 -15 60c136 149 268 298 397 452c25 0 48 -4 67 -11l-72 -392h51c16 0 26 -6 35 -20zM222 213c-31 -35 -63 -71 -102 -110h160
l19 101c12 68 21 106 31 141c-32 -44 -69 -88 -108 -132z" />
    <glyph glyph-name="five" unicode="5" horiz-adv-x="473" 
d="M384 555c25 1 49 -1 66 -8c-12 -41 -18 -89 -21 -134c-7 -14 -20 -22 -40 -22c-87 0 -160 0 -225 -4l-27 -88c176 -21 279 -117 251 -258c-28 -134 -153 -212 -294 -212c-46 0 -85 8 -112 27c2 19 10 34 23 46c26 -11 57 -16 84 -16c95 0 162 56 177 136
c18 95 -53 166 -187 174c-13 10 -18 22 -18 39l84 268c60 -3 117 -3 174 -3c46 0 60 26 65 55z" />
    <glyph glyph-name="six" unicode="6" horiz-adv-x="555" 
d="M519 593c-171 -32 -272 -113 -317 -231c44 25 81 33 125 33c123 0 188 -84 164 -210c-23 -119 -115 -194 -239 -194c-152 0 -223 111 -187 294c41 208 222 341 451 353c6 -10 8 -26 3 -45zM278 330c-37 0 -63 -6 -91 -21l-4 -19c-26 -148 6 -242 81 -242
c51 0 92 46 106 118c18 99 -20 164 -92 164z" />
    <glyph glyph-name="seven" unicode="7" horiz-adv-x="472" 
d="M454 503c10 -11 16 -28 16 -46c-139 -195 -181 -261 -210 -323c-32 -65 -44 -127 -50 -242c-33 -12 -74 -39 -97 -62c-19 5 -31 20 -31 61c0 88 40 181 281 501h-122c-56 0 -77 -20 -96 -81c-26 -1 -50 2 -67 12c17 60 29 120 34 180c57 -3 131 -3 183 -3
c48 0 92 0 159 3z" />
    <glyph glyph-name="eight" unicode="8" horiz-adv-x="532" 
d="M502 491c-13 -65 -66 -106 -134 -137c60 -48 121 -120 94 -223c-26 -95 -108 -140 -227 -140c-139 0 -219 62 -193 179c16 74 63 119 159 166c-51 42 -93 97 -73 174c21 80 99 127 208 127c130 0 182 -67 166 -146zM392 485c13 68 -21 100 -67 100c-37 0 -67 -20 -78 -61
c-18 -65 32 -106 74 -136c39 26 62 53 71 97zM340 124c18 78 -25 124 -93 176c-54 -31 -79 -68 -89 -121c-15 -83 20 -133 88 -133c46 0 81 22 94 78z" />
    <glyph glyph-name="nine" unicode="9" horiz-adv-x="552" 
d="M311 506c148 0 220 -110 184 -289c-45 -221 -225 -372 -468 -387c-7 10 -9 26 -6 45c184 34 280 125 327 243c-37 -22 -74 -31 -115 -31c-135 0 -188 100 -161 230c25 116 109 189 239 189zM377 219c27 150 -11 230 -81 230c-52 0 -91 -46 -104 -119
c-17 -91 4 -178 95 -178c26 0 53 6 79 20c5 16 8 31 11 47z" />
    <glyph glyph-name="colon" unicode=":" horiz-adv-x="216" 
d="M143 441c38 0 70 -31 60 -79c-7 -36 -30 -58 -69 -58c-46 0 -74 31 -64 80c7 34 34 57 73 57zM86 154c38 0 70 -30 61 -78c-8 -36 -31 -59 -69 -59c-47 0 -75 31 -64 80c6 35 33 57 72 57z" />
    <glyph glyph-name="semicolon" unicode=";" horiz-adv-x="233" 
d="M153 441c38 0 69 -31 60 -79c-7 -36 -30 -58 -69 -58c-46 0 -74 31 -64 80c7 34 34 57 73 57zM129 126c23 -13 34 -43 22 -102c-14 -75 -67 -152 -137 -206c-20 1 -34 11 -42 26c80 74 123 157 35 175c0 26 8 57 20 76c35 2 78 16 102 31z" />
    <glyph glyph-name="less" unicode="&#x3c;" horiz-adv-x="459" 
d="M99 261l282 -237c1 -23 -7 -51 -19 -62c-119 108 -212 188 -320 275c-2 18 2 43 16 62l376 259c21 -4 39 -16 48 -34z" />
    <glyph glyph-name="equal" unicode="=" horiz-adv-x="525" 
d="M70 370h440c-1 -23 -7 -45 -19 -62c-134 0 -289 0 -438 -3c0 24 6 48 17 65zM42 200h439c-1 -23 -7 -45 -19 -62c-134 0 -288 0 -438 -3c0 24 6 48 18 65z" />
    <glyph glyph-name="greater" unicode="&#x3e;" horiz-adv-x="457" 
d="M127 561l290 -274c8 -20 8 -47 2 -69c-154 -87 -259 -152 -409 -250c-13 16 -17 38 -12 60l372 228l-300 280c14 15 36 24 57 25z" />
    <glyph glyph-name="question" unicode="?" horiz-adv-x="528" 
d="M203 671c31 23 90 44 152 44c113 0 173 -57 155 -146c-25 -129 -182 -153 -208 -291c-4 -17 -5 -46 -3 -66c-15 -9 -32 -11 -49 -11c-20 17 -34 68 -23 124c25 131 143 157 161 250c9 53 -7 89 -51 89c-40 0 -70 -33 -99 -131c-28 0 -43 4 -59 14c15 51 21 78 24 124z
M244 129c38 0 70 -31 61 -79c-7 -36 -31 -59 -69 -59c-47 0 -74 31 -64 81c6 34 33 57 72 57z" />
    <glyph glyph-name="at" unicode="@" horiz-adv-x="832" 
d="M545 -9c-90 0 -85 88 -63 158c-43 -91 -110 -158 -184 -158c-88 0 -114 86 -88 219c30 147 132 257 279 257c25 0 53 -5 72 -11c26 1 51 5 71 11c17 -10 25 -25 9 -94l-48 -216c-16 -74 -8 -82 11 -82c68 0 126 80 148 205c37 208 -72 330 -275 330
c-185 0 -333 -135 -368 -339c-46 -256 74 -419 305 -419c108 0 204 40 280 100c17 -4 26 -16 29 -31c-75 -74 -183 -123 -325 -123c-266 0 -412 180 -362 463c41 240 225 399 458 399c236 0 361 -139 320 -371c-29 -167 -141 -298 -269 -298zM365 86c34 0 113 85 149 250
l15 64c-17 7 -40 10 -60 10c-74 0 -113 -65 -132 -158c-23 -107 -11 -166 28 -166z" />
    <glyph glyph-name="A" unicode="A" horiz-adv-x="693" 
d="M633 50c4 -16 4 -34 2 -53c-35 3 -94 3 -124 3c-34 0 -92 0 -132 -3c1 20 3 38 10 53c57 8 68 24 54 80l-18 74c-81 0 -175 -1 -255 -5l-32 -53c-39 -67 -31 -88 18 -96c3 -17 4 -34 2 -53c-29 3 -69 3 -101 3c-34 0 -60 0 -87 -3c1 19 3 36 10 53c36 9 55 31 102 108
c87 147 179 307 299 518c16 5 33 6 49 6c55 -185 104 -370 142 -532c20 -83 32 -93 61 -100zM202 256h210c-14 55 -28 110 -43 165c-11 34 -18 67 -23 106c-18 -40 -36 -73 -56 -111c-29 -53 -58 -107 -88 -160z" />
    <glyph glyph-name="B" unicode="B" horiz-adv-x="632" 
d="M605 510c-13 -73 -79 -130 -174 -143c130 -7 185 -74 162 -196c-21 -103 -116 -171 -286 -171c-89 0 -204 0 -286 -3c1 21 5 38 11 53c58 7 68 22 82 108l67 381c12 71 -6 82 -57 87c-4 17 -4 34 -2 53c42 -3 75 -3 111 -3c49 0 109 3 165 3c162 0 229 -52 207 -169z
M475 506c16 81 -30 120 -108 120c-16 0 -32 -3 -50 -8l-41 -238h30c96 0 154 49 169 126zM454 176c22 109 -26 148 -161 148h-27l-31 -181c-15 -84 3 -92 65 -92c77 0 140 50 154 125z" />
    <glyph glyph-name="C" unicode="C" horiz-adv-x="622" 
d="M665 628c-17 -46 -27 -95 -33 -152c-19 -8 -43 -9 -66 -4c17 133 -30 162 -109 162c-153 0 -246 -136 -266 -297c-19 -149 34 -276 186 -276c65 0 127 19 186 53c11 -12 17 -28 18 -47c-74 -52 -152 -76 -239 -76c-210 0 -311 150 -283 346c33 242 221 348 392 348
c83 0 147 -17 214 -57z" />
    <glyph glyph-name="D" unicode="D" horiz-adv-x="734" 
d="M400 679c184 0 371 -63 317 -353c-45 -246 -237 -326 -430 -326h-3c-73 0 -192 0 -263 -3c1 19 4 37 11 53c57 7 68 23 82 108l67 381c12 71 -6 82 -57 88c-4 18 -4 37 -2 52c44 -2 107 -3 156 -3c39 0 80 3 122 3zM587 327c44 234 -69 300 -204 300c-25 0 -45 -3 -67 -9
l-80 -471c-14 -79 -4 -94 68 -94c126 0 243 64 283 274z" />
    <glyph glyph-name="E" unicode="E" horiz-adv-x="598" 
d="M318 623l-43 -254h42c76 0 105 15 115 78c20 4 38 5 60 2c-9 -34 -15 -65 -22 -116c-7 -45 -10 -80 -12 -114c-22 2 -41 5 -57 14c4 59 -14 83 -90 83h-45l-28 -162c-14 -86 -2 -101 69 -101h18c108 0 140 44 179 132c24 -4 42 -11 59 -27c-20 -43 -40 -101 -51 -161
c-59 3 -136 3 -224 3c-89 0 -190 0 -264 -3c0 18 3 35 10 53c58 7 67 23 82 108l64 371c14 75 -1 90 -57 97c-2 17 -3 33 -1 53c73 -3 156 -3 203 -3h2c107 0 187 0 276 3c-7 -51 -11 -118 -7 -168c-17 -6 -39 -9 -64 -9c-3 82 -15 121 -136 121h-78z" />
    <glyph glyph-name="F" unicode="F" horiz-adv-x="558" 
d="M599 679c-7 -51 -12 -118 -8 -168c-17 -6 -39 -9 -63 -9c-4 82 -16 121 -137 121h-74l-48 -283h49c76 0 105 16 115 80c20 3 38 5 60 2c-9 -34 -15 -65 -22 -116c-7 -45 -10 -82 -12 -115c-22 2 -41 5 -57 14c4 62 -14 83 -89 83h-53l-22 -133c-15 -80 -9 -93 74 -105
c4 -16 4 -33 2 -53c-51 3 -93 3 -144 3c-54 0 -100 0 -148 -3c1 20 5 38 11 53c58 8 68 23 81 100l65 378c13 71 4 91 -55 98c-3 16 -4 34 -2 53c59 -3 127 -3 202 -3h2c104 0 183 0 273 3z" />
    <glyph glyph-name="G" unicode="G" horiz-adv-x="684" 
d="M460 685c99 0 170 -18 231 -57c-16 -45 -26 -95 -33 -151c-21 -9 -43 -9 -67 -4c14 134 -35 161 -126 161c-159 0 -253 -128 -274 -297c-19 -151 23 -288 167 -288c35 0 59 3 87 14c26 11 32 24 44 89c19 106 10 118 -60 124c-3 16 -3 36 -1 53c46 -3 89 -3 131 -3
c44 0 75 0 128 3c-1 -20 -4 -37 -11 -53c-40 -5 -50 -13 -69 -122c-9 -48 -10 -68 -2 -91c-65 -41 -162 -72 -271 -72c-203 0 -305 145 -276 347c35 243 221 347 402 347z" />
    <glyph glyph-name="H" unicode="H" horiz-adv-x="771" 
d="M654 676c45 0 91 1 136 3c-1 -18 -3 -36 -11 -53c-52 -8 -64 -21 -78 -96l-67 -388c-13 -72 -2 -85 55 -92c3 -16 4 -34 2 -53c-45 2 -87 3 -133 3c-49 0 -99 -1 -136 -3c1 20 4 37 11 53c53 6 65 19 78 91l30 176c-79 0 -196 -1 -276 -5l-29 -170c-13 -72 -2 -85 54 -92
c4 -16 5 -34 2 -53c-44 2 -86 3 -132 3c-49 0 -99 -1 -136 -3c1 20 4 37 11 53c52 6 65 19 77 91l68 395c13 70 -1 83 -57 90c-2 16 -3 34 -1 53c41 -2 85 -3 134 -3c45 0 90 1 136 3c-1 -18 -4 -36 -11 -53c-52 -8 -64 -21 -78 -96l-27 -159h275l28 165c12 70 -2 83 -57 90
c-3 16 -4 34 -1 53c40 -2 84 -3 133 -3z" />
    <glyph glyph-name="I" unicode="I" horiz-adv-x="373" 
d="M112 141l68 395c13 70 -1 83 -57 90c-2 16 -3 34 -1 53c41 -2 85 -3 134 -3c45 0 90 1 136 3c-1 -18 -4 -36 -11 -53c-52 -8 -64 -21 -78 -96l-67 -388c-13 -72 -2 -85 54 -92c4 -16 5 -34 2 -53c-44 2 -86 3 -132 3c-49 0 -99 -1 -136 -3c1 20 4 37 11 53
c52 6 65 19 77 91z" />
    <glyph glyph-name="J" unicode="J" horiz-adv-x="328" 
d="M108 679c34 -3 84 -3 132 -3c56 0 92 0 138 3c-1 -20 -4 -38 -9 -53c-54 -7 -67 -21 -81 -100l-71 -405c-32 -185 -74 -282 -274 -369c-14 11 -18 29 -20 49c83 52 135 117 158 247l85 490c12 65 3 81 -56 88c-5 17 -4 34 -2 53z" />
    <glyph glyph-name="K" unicode="K" horiz-adv-x="680" 
d="M705 626c-55 -7 -82 -19 -157 -87l-178 -163c56 -57 101 -127 147 -229c20 -47 36 -60 58 -60c14 0 24 4 38 15c13 -9 24 -25 30 -41c-38 -45 -79 -70 -134 -70c-53 1 -84 28 -109 96c-39 107 -78 179 -132 243l-32 -189c-13 -71 -3 -85 44 -91c4 -16 5 -34 2 -53
c-44 2 -76 3 -122 3c-49 0 -99 -1 -136 -3c1 20 4 37 11 53c55 5 65 23 78 96l67 390c13 70 -1 83 -57 90c-2 16 -3 34 -1 53c41 -2 85 -3 134 -3c45 0 90 1 136 3c-1 -18 -4 -36 -11 -53c-52 -8 -64 -21 -78 -96l-28 -165l187 173c69 65 68 81 31 88c-3 17 -5 35 -3 53
c40 -3 73 -3 114 -3c39 0 74 0 109 3c0 -16 -1 -37 -8 -53z" />
    <glyph glyph-name="L" unicode="L" horiz-adv-x="571" 
d="M303 53h9c99 0 136 39 179 134c24 -5 43 -13 60 -29c-21 -41 -40 -100 -51 -161c-47 3 -137 3 -211 3c-76 0 -199 0 -268 -3c1 19 4 35 10 53c59 5 68 23 82 108l67 381c12 67 -3 80 -56 87c-3 16 -3 35 -2 53c41 -3 85 -3 134 -3c44 0 100 0 145 2c0 -18 -3 -37 -10 -52
c-64 -7 -77 -23 -90 -102l-66 -377c-14 -79 -3 -94 68 -94z" />
    <glyph glyph-name="M" unicode="M" horiz-adv-x="909" 
d="M824 515c-7 -128 -15 -242 -24 -341c-10 -99 2 -115 49 -124c3 -16 3 -35 1 -53c-35 3 -85 3 -136 3c-49 0 -95 0 -136 -3c0 17 4 36 10 53c66 9 78 31 87 124c10 102 18 211 24 324c-90 -169 -188 -339 -288 -502c-17 -5 -33 -5 -50 -5c-41 173 -89 346 -142 518
c-26 -109 -57 -222 -79 -305c-31 -118 -24 -141 41 -154c3 -17 3 -36 1 -53c-37 3 -73 3 -103 3c-35 0 -67 0 -109 -3c0 17 3 36 10 53c51 13 66 39 99 147c35 116 64 224 90 340c16 71 5 84 -48 89c-4 18 -4 35 -1 53c31 -3 68 -3 93 -3c29 0 59 0 90 3
c54 -174 101 -346 142 -520c101 169 197 343 288 520c36 -3 64 -3 86 -3c24 0 54 0 86 3c0 -19 -3 -36 -9 -53c-52 -7 -67 -29 -72 -111z" />
    <glyph glyph-name="N" unicode="N" horiz-adv-x="685" 
d="M630 676c32 0 74 0 105 3c0 -16 -4 -38 -10 -53c-47 -13 -61 -40 -79 -146l-84 -483c-15 -5 -34 -6 -55 -6c-88 177 -178 345 -274 517l-55 -316c-18 -106 -10 -130 55 -142c4 -16 4 -33 2 -53c-42 3 -84 3 -112 3c-33 0 -61 0 -104 -3c1 19 4 37 9 53
c52 10 74 36 91 135l70 400l-5 10c-13 24 -25 28 -60 31c-4 16 -4 34 -2 53c26 -2 52 -3 79 -3c30 0 60 1 82 3c89 -154 177 -321 257 -480l49 289c17 104 6 126 -57 138c-2 16 -3 34 -1 53c34 -3 72 -3 99 -3z" />
    <glyph glyph-name="O" unicode="O" horiz-adv-x="741" 
d="M438 685c199 0 329 -138 282 -378c-34 -179 -179 -316 -375 -316c-206 0 -324 154 -282 377c36 185 188 317 375 317zM422 632c-111 0 -199 -111 -226 -257c-35 -181 23 -331 164 -331c120 0 203 112 231 266c34 187 -42 322 -169 322z" />
    <glyph glyph-name="P" unicode="P" horiz-adv-x="593" 
d="M432 679c146 0 211 -86 184 -231c-22 -125 -126 -207 -268 -207c-27 0 -46 3 -61 11c-1 13 4 39 10 49c10 -3 24 -5 42 -5c78 0 136 51 155 150c21 112 -15 180 -119 180c-20 0 -37 -2 -57 -8l-80 -463c-14 -80 -8 -93 74 -105c4 -17 4 -33 3 -53c-52 3 -93 3 -142 3
c-57 0 -102 0 -149 -3c1 19 4 38 10 53c58 8 67 23 80 100l68 389c11 64 -1 80 -58 87c-3 16 -4 34 -2 53c44 -3 110 -3 150 -3c38 0 99 3 160 3z" />
    <glyph glyph-name="Q" unicode="Q" horiz-adv-x="741" 
d="M719 -109c14 -7 26 -25 30 -42c-24 -33 -74 -68 -133 -68c-60 0 -101 23 -137 92c-35 65 -73 109 -147 118c-198 7 -310 159 -269 377c36 185 188 317 375 317c199 0 329 -138 282 -378c-27 -142 -123 -257 -259 -299c51 -16 97 -48 150 -95c37 -34 52 -40 74 -38
c13 0 25 7 34 16zM196 375c-35 -181 23 -331 164 -331c120 0 203 112 231 266c34 187 -42 322 -169 322c-111 0 -199 -111 -226 -257z" />
    <glyph glyph-name="R" unicode="R" horiz-adv-x="672" 
d="M597 101c14 -9 25 -25 31 -41c-38 -45 -81 -69 -135 -69c-63 0 -88 43 -115 132c-24 77 -46 124 -77 169c-14 0 -28 0 -39 1l-27 -156c-12 -71 -3 -80 44 -87c3 -18 3 -35 2 -53c-53 3 -76 3 -126 3c-53 0 -90 0 -131 -3c1 18 3 36 11 53c55 5 66 23 79 100l67 389
c11 64 -2 81 -58 87c-3 17 -3 35 -1 53c49 -3 90 -3 142 -3c47 0 114 4 158 4c139 0 222 -73 200 -193c-18 -91 -86 -156 -207 -179c31 -35 55 -73 86 -152c20 -51 40 -70 60 -70c14 0 23 4 36 15zM317 617l-45 -265c13 -2 24 -2 35 -2c102 0 168 53 184 138
c18 94 -29 139 -105 139c-21 0 -47 -3 -69 -10z" />
    <glyph glyph-name="S" unicode="S" horiz-adv-x="480" 
d="M311 685c73 0 130 -21 163 -48c-7 -46 -11 -92 -11 -136c-20 -7 -46 -9 -71 -6c-2 99 -38 135 -97 135c-57 0 -95 -25 -105 -84c-25 -154 295 -162 256 -385c-18 -102 -117 -170 -236 -170c-104 0 -157 27 -211 72c16 47 28 95 32 143c22 7 49 8 72 2
c-8 -112 23 -160 116 -160c54 0 99 35 108 87c30 159 -286 151 -242 396c17 97 103 154 226 154z" />
    <glyph glyph-name="T" unicode="T" horiz-adv-x="572" 
d="M630 679c-8 -49 -13 -110 -11 -169c-19 -8 -39 -9 -62 -8c-3 91 -22 125 -101 125h-34l-85 -487c-11 -64 -5 -80 71 -90c3 -17 4 -35 2 -53c-43 3 -96 3 -147 3c-57 0 -115 0 -156 -3c0 21 5 40 10 53c71 9 85 24 98 100l83 477h-39c-73 0 -106 -38 -136 -128
c-25 0 -45 3 -60 16c15 44 31 115 38 164c62 -3 151 -3 261 -3s200 0 268 3z" />
    <glyph glyph-name="U" unicode="U" horiz-adv-x="647" 
d="M107 679c47 -3 81 -3 126 -3c46 0 83 0 135 3c-1 -18 -3 -35 -10 -53c-61 -6 -72 -19 -86 -99l-46 -265c-26 -148 22 -210 113 -210c95 0 155 74 177 200l44 252c16 91 7 105 -49 122c-3 17 -4 34 -1 53c42 -3 74 -3 101 -3c35 0 58 0 102 3c-1 -19 -4 -36 -11 -53
c-56 -15 -67 -29 -85 -133l-41 -232c-33 -187 -112 -270 -265 -270c-176 0 -238 97 -209 266l49 282c11 66 4 81 -43 87c-4 15 -4 34 -1 53z" />
    <glyph glyph-name="V" unicode="V" horiz-adv-x="665" 
d="M640 676c35 0 58 0 97 3c0 -18 -4 -36 -10 -53c-33 -12 -48 -32 -94 -124c-84 -165 -172 -328 -276 -502c-14 -7 -36 -8 -54 -7c-45 189 -93 381 -133 528c-24 85 -34 97 -69 106c-3 15 -3 33 -1 52c47 -3 90 -3 127 -3c42 0 88 0 140 3c-1 -18 -4 -38 -11 -53
c-67 -8 -78 -24 -55 -111c31 -113 58 -226 84 -353c73 123 133 235 186 350c38 81 35 101 -28 114c-3 17 -3 34 -1 53c30 -3 62 -3 98 -3z" />
    <glyph glyph-name="W" unicode="W" horiz-adv-x="967" 
d="M942 676c34 0 67 0 97 3c0 -18 -3 -36 -10 -53c-34 -12 -54 -38 -102 -151c-69 -158 -141 -317 -221 -476c-15 -6 -41 -6 -60 -2c-24 157 -59 334 -101 493c-77 -165 -162 -333 -248 -491c-14 -6 -43 -6 -59 -2c-28 199 -56 376 -83 520c-17 92 -21 100 -52 110
c-4 15 -5 33 -3 52c52 -3 95 -3 124 -3c34 0 89 0 133 3c-1 -20 -3 -37 -9 -53c-72 -12 -80 -36 -66 -117c15 -93 35 -213 51 -327c84 161 165 327 243 495c15 6 33 8 53 6c42 -157 81 -331 108 -495c51 101 96 202 137 302c40 100 34 124 -28 136c-4 17 -4 35 -1 53
c28 -3 65 -3 97 -3z" />
    <glyph glyph-name="X" unicode="X" horiz-adv-x="636" 
d="M570 676c33 0 67 0 104 3c0 -16 -4 -36 -10 -53c-41 -5 -58 -22 -119 -108c-48 -66 -92 -124 -138 -180c25 -59 49 -116 71 -171c40 -97 56 -106 98 -118c4 -15 4 -31 1 -52c-56 3 -96 3 -132 3c-41 0 -98 0 -136 -3c0 19 4 37 10 53c62 9 65 24 26 125
c-13 33 -27 66 -42 100c-32 -43 -64 -83 -100 -126c-50 -61 -42 -89 -2 -99c2 -18 2 -34 1 -53c-41 3 -75 3 -109 3c-38 0 -73 0 -111 -3c0 19 4 36 10 53c45 9 72 29 133 96c54 61 107 125 153 187c-27 61 -57 123 -89 187c-45 90 -53 97 -87 107c-4 16 -4 34 -1 52
c53 -3 96 -3 129 -3c39 0 85 0 139 3c0 -19 -4 -38 -10 -53c-65 -10 -72 -31 -34 -108l57 -123c30 37 63 80 89 117c60 84 48 105 6 114c-4 17 -4 36 -1 53c32 -3 65 -3 94 -3z" />
    <glyph glyph-name="Y" unicode="Y" horiz-adv-x="590" 
d="M569 676c33 0 58 0 93 3c-1 -17 -4 -36 -11 -53c-22 -8 -40 -15 -87 -91c-64 -103 -120 -188 -178 -269l-22 -126c-12 -64 -6 -78 70 -90c4 -17 5 -35 3 -53c-43 3 -96 3 -147 3c-57 0 -115 0 -156 -3c0 21 4 40 10 53c72 11 85 24 98 100l20 117c-27 91 -57 178 -91 265
c-30 77 -41 86 -70 95c-3 15 -3 32 -1 52c41 -3 90 -3 124 -3c39 0 87 0 140 3c0 -20 -4 -38 -10 -53c-63 -9 -75 -27 -56 -80c26 -69 47 -143 67 -220c43 64 84 131 125 204c34 62 34 86 -22 96c-4 17 -4 34 -1 53c33 -3 66 -3 102 -3z" />
    <glyph glyph-name="Z" unicode="Z" horiz-adv-x="545" 
d="M568 679c9 -12 15 -30 14 -52c-143 -198 -280 -382 -435 -574h112c113 0 146 22 192 133c26 -5 47 -14 65 -29c-18 -44 -38 -107 -47 -160c-90 3 -171 3 -255 3c-91 0 -149 0 -222 -3c-8 13 -13 31 -12 52c158 193 298 376 438 574h-107c-80 0 -117 -23 -160 -134
c-29 2 -50 8 -67 22c19 44 38 113 47 168c72 -3 145 -3 230 -3c69 0 134 0 207 3z" />
    <glyph glyph-name="bracketleft" unicode="[" horiz-adv-x="295" 
d="M-31 -269l179 1011c53 -3 143 -3 198 0c6 -14 7 -32 3 -50c-103 -9 -127 -17 -140 -92l-129 -733c-12 -65 8 -80 99 -84c5 -15 5 -33 -2 -52c-43 3 -158 3 -208 0z" />
    <glyph glyph-name="backslash" unicode="\" horiz-adv-x="296" 
d="M94 707c19 9 40 12 60 7l97 -714c-16 -8 -39 -11 -60 -8c-28 236 -60 480 -97 715z" />
    <glyph glyph-name="bracketright" unicode="]" horiz-adv-x="295" 
d="M328 742l-178 -1011c-58 3 -155 3 -207 0c-1 17 3 39 12 52c95 4 121 17 132 77l130 740c13 75 -5 83 -105 92c0 18 6 39 16 50c55 -3 144 -3 200 0z" />
    <glyph glyph-name="asciicircum" unicode="^" horiz-adv-x="488" 
d="M74 429l231 258c19 11 42 11 59 8c32 -83 85 -208 124 -290c-11 -8 -35 -14 -53 -11l-105 246c-78 -84 -165 -183 -228 -257c-17 10 -25 24 -28 46z" />
    <glyph glyph-name="underscore" unicode="_" horiz-adv-x="507" 
d="M-18 -86h440c-1 -22 -7 -44 -19 -61c-134 0 -289 0 -438 -4c0 24 5 48 17 65z" />
    <glyph glyph-name="grave" unicode="`" horiz-adv-x="254" 
d="M238 706c9 -54 22 -111 44 -168c-15 -5 -37 -5 -52 1c-26 52 -65 112 -105 163c33 11 76 14 113 4z" />
    <glyph glyph-name="a" unicode="a" horiz-adv-x="514" 
d="M464 98c10 -10 18 -26 21 -41c-36 -39 -78 -66 -127 -66c-77 0 -81 77 -66 128c5 20 19 52 29 75h-4c-40 -112 -117 -203 -203 -203c-88 0 -114 86 -87 219c29 147 131 257 278 257c25 0 53 -5 72 -11c27 1 52 5 72 11c16 -10 24 -25 9 -94l-49 -216
c-15 -71 -15 -85 5 -85c15 0 27 7 50 26zM181 86c35 0 113 85 150 250l15 63c-18 7 -41 11 -61 11c-73 0 -112 -65 -131 -158c-23 -107 -11 -166 27 -166z" />
    <glyph glyph-name="b" unicode="b" horiz-adv-x="493" 
d="M378 467c88 0 114 -85 87 -219c-29 -147 -131 -257 -278 -257h-2c-78 0 -132 20 -171 61c18 28 38 90 51 165l54 309c16 87 13 95 -51 95c-1 16 2 35 8 48c52 5 116 21 161 41c22 -12 29 -30 22 -71c-41 -233 -53 -275 -85 -374h1c40 111 117 202 203 202zM338 206
c23 107 11 166 -27 166c-35 0 -113 -85 -150 -250l-15 -63c18 -7 41 -11 61 -11c73 0 112 66 131 158z" />
    <glyph glyph-name="c" unicode="c" horiz-adv-x="393" 
d="M282 467c38 0 83 -9 107 -25c-13 -35 -21 -74 -22 -111c-15 -6 -36 -9 -56 -7c5 61 -11 87 -49 87c-61 0 -93 -67 -109 -155c-15 -87 -16 -185 68 -185c40 0 79 21 109 50c12 -12 17 -25 20 -43c-56 -61 -119 -87 -187 -87c-138 0 -157 124 -131 245
c27 122 101 231 250 231z" />
    <glyph glyph-name="d" unicode="d" horiz-adv-x="519" 
d="M499 639l-81 -461c-17 -96 -16 -106 0 -106c14 0 27 7 51 26c10 -10 18 -26 22 -41c-36 -39 -80 -66 -128 -66c-77 0 -82 70 -69 125c5 20 17 56 26 78h-3c-40 -112 -117 -203 -203 -203c-88 0 -114 86 -87 219c29 147 131 257 278 257c15 0 32 -2 46 -5c2 19 4 41 8 64
c15 90 13 95 -51 95c-1 16 1 34 8 48c45 3 121 23 160 41c23 -12 30 -30 23 -71zM181 86c35 0 113 85 150 250l15 63c-18 7 -41 11 -61 11c-73 0 -112 -65 -131 -158c-23 -107 -11 -166 27 -166z" />
    <glyph glyph-name="e" unicode="e" horiz-adv-x="408" 
d="M276 467c90 0 129 -56 116 -117c-18 -82 -136 -148 -246 -156c-4 -66 11 -121 73 -121c36 0 73 16 104 49c12 -12 18 -25 20 -44c-47 -52 -105 -87 -185 -87c-133 0 -150 123 -128 234c32 160 136 242 246 242zM298 340c8 41 -8 70 -42 70c-41 0 -85 -51 -103 -161l-1 -5
c75 6 135 40 146 96z" />
    <glyph glyph-name="f" unicode="f" horiz-adv-x="327" 
d="M378 714c51 0 92 -11 110 -23c-14 -33 -25 -84 -26 -121c-13 -7 -38 -11 -58 -10c-3 62 -17 100 -56 100c-44 0 -66 -40 -99 -212h97c0 -19 -2 -39 -8 -51c-37 0 -70 -4 -100 -9c-20 -110 -33 -197 -43 -256c-35 -215 -122 -380 -247 -380c-33 0 -67 13 -95 40
c-1 23 3 51 12 72c31 -12 69 -18 109 -18c51 0 68 15 95 206c13 92 24 202 45 338c-26 5 -51 8 -73 8c0 18 3 38 12 50h70l1 6c31 174 117 260 254 260z" />
    <glyph glyph-name="g" unicode="g" horiz-adv-x="484" 
d="M442 467c16 -10 22 -24 15 -64l-50 -285c-37 -208 -128 -366 -273 -366c-54 0 -98 18 -138 49c-2 25 3 53 12 73c53 -20 119 -31 171 -31c53 0 65 11 92 190c6 38 21 88 41 142l7 19h-2c-40 -112 -117 -203 -203 -203c-88 0 -114 86 -87 219c29 147 131 257 278 257
c26 0 53 -5 73 -12c28 2 49 6 64 12zM181 86c35 0 113 85 150 250l15 63c-18 7 -41 11 -61 11c-73 0 -112 -65 -131 -158c-23 -107 -11 -166 27 -166z" />
    <glyph glyph-name="h" unicode="h" horiz-adv-x="546" 
d="M494 98c11 -11 19 -26 22 -42c-44 -44 -86 -65 -128 -65c-89 0 -85 66 -62 167l23 104c20 85 8 111 -16 111c-48 0 -137 -99 -168 -265l-19 -108h-119l92 526c16 87 13 95 -51 95c-1 16 2 35 8 48c52 5 116 21 161 41c22 -12 29 -30 22 -71c-42 -237 -54 -281 -84 -376h2
l23 48c34 72 119 156 195 156c55 0 114 -41 78 -194l-26 -111c-20 -85 -18 -90 -2 -90c12 0 33 11 49 26z" />
    <glyph glyph-name="i" unicode="i" horiz-adv-x="275" 
d="M215 694c40 0 64 -28 55 -72c-7 -40 -37 -65 -82 -65c-40 0 -62 28 -54 69c8 42 39 68 81 68zM193 467c38 -17 49 -50 29 -125l-49 -191c-18 -66 -14 -78 4 -78c12 0 28 7 47 25c10 -9 19 -25 21 -42c-40 -42 -84 -65 -127 -65c-80 0 -92 62 -68 154l35 129
c25 93 22 104 -43 104c-1 17 1 34 8 48c45 3 107 23 143 41z" />
    <glyph glyph-name="j" unicode="j" horiz-adv-x="254" 
d="M214 695c40 0 64 -28 55 -71c-7 -40 -38 -66 -82 -66c-40 0 -62 28 -54 70c8 41 39 67 81 67zM46 426c46 3 114 23 149 41c32 -18 42 -34 23 -131l-45 -248c-34 -182 -109 -272 -267 -336c-12 11 -18 25 -19 46c88 58 139 138 160 253l46 249c11 64 8 78 -55 78
c-1 16 1 33 8 48z" />
    <glyph glyph-name="k" unicode="k" horiz-adv-x="498" 
d="M474 358c-13 -68 -79 -113 -184 -149c17 -21 32 -45 57 -90c19 -36 30 -44 47 -44c15 0 26 7 44 24c10 -10 20 -26 22 -42c-34 -36 -76 -66 -127 -66c-56 0 -76 35 -101 90c-17 37 -34 67 -54 99c-1 -11 -3 -23 -5 -34l-27 -146h-119l92 526c15 87 13 95 -51 95
c-1 16 2 35 8 48c52 5 116 21 161 41c24 -13 29 -31 22 -71c-37 -209 -43 -231 -78 -336h1c41 95 108 164 194 164c69 0 109 -46 98 -109zM354 331c6 33 -8 56 -38 56c-46 0 -109 -70 -134 -169c102 23 162 57 172 113z" />
    <glyph glyph-name="l" unicode="l" horiz-adv-x="277" 
d="M178 213c-24 -122 -17 -140 2 -140c12 0 26 7 46 25c11 -10 19 -26 22 -40c-35 -40 -84 -67 -127 -67c-58 0 -82 32 -80 87c0 46 7 87 78 448c17 86 13 95 -51 95c0 17 1 34 8 48c46 3 121 23 161 41c22 -12 29 -30 22 -71c-27 -149 -54 -292 -81 -426z" />
    <glyph glyph-name="m" unicode="m" horiz-adv-x="827" 
d="M210 467c22 -9 29 -29 23 -65c-8 -50 -20 -87 -38 -128h1l17 37c32 69 117 155 194 155c51 0 89 -35 80 -110c-3 -24 -10 -52 -21 -82h1l15 35c32 74 124 158 200 158s101 -76 71 -200l-26 -105c-21 -82 -17 -90 -1 -90s29 7 51 26c11 -10 19 -26 21 -42
c-43 -46 -85 -65 -132 -65c-80 0 -85 55 -60 167l20 85c22 94 19 130 -11 130c-44 0 -133 -87 -167 -265l-21 -108h-117l43 215c27 128 20 158 -8 158c-46 0 -131 -89 -165 -265l-20 -108h-120l54 283c15 87 12 95 -52 95c-2 15 1 34 8 48c45 3 120 23 160 41z" />
    <glyph glyph-name="n" unicode="n" horiz-adv-x="560" 
d="M509 98c11 -11 19 -26 22 -42c-44 -44 -86 -65 -129 -65c-89 0 -85 66 -62 167l23 104c20 85 8 111 -16 111c-48 0 -137 -99 -168 -265l-20 -108h-119l53 283c16 87 13 95 -51 95c0 17 1 35 8 48c45 3 122 23 161 41c22 -9 29 -30 24 -65c-10 -53 -21 -86 -37 -125l16 34
c34 72 119 156 195 156c56 0 114 -41 79 -194l-27 -111c-19 -85 -18 -90 -2 -90c12 0 33 11 50 26z" />
    <glyph glyph-name="o" unicode="o" horiz-adv-x="498" 
d="M293 467c134 0 199 -95 175 -232c-24 -144 -127 -244 -263 -244s-200 101 -174 239c26 144 128 237 262 237zM279 412c-55 0 -102 -70 -121 -173c-21 -115 4 -193 60 -193c54 0 105 73 123 181c20 108 -5 185 -62 185z" />
    <glyph glyph-name="p" unicode="p" horiz-adv-x="510" 
d="M395 468c88 0 114 -86 88 -220c-30 -146 -132 -256 -279 -256c-17 0 -36 2 -52 6c2 -30 -1 -67 -12 -128l-20 -114h-120l93 526c16 87 13 94 -51 94c0 17 1 35 8 49c45 2 117 23 156 41c22 -12 28 -32 23 -67c-6 -37 -18 -82 -32 -117l-6 -17h1c40 112 117 203 203 203z
M356 206c23 108 11 166 -28 166c-34 0 -113 -84 -149 -249l-15 -64c17 -7 40 -10 60 -10c74 0 113 65 132 157z" />
    <glyph glyph-name="q" unicode="q" horiz-adv-x="499" 
d="M305 467h2c79 0 132 -20 171 -61c-18 -28 -38 -90 -51 -165l-85 -483h-119l50 285c7 40 24 90 42 139l4 12h-2c-40 -112 -117 -203 -203 -203c-88 0 -114 86 -87 219c29 147 131 257 278 257zM181 86c35 0 113 85 150 250l15 63c-18 7 -41 11 -61 11
c-73 0 -112 -65 -131 -158c-23 -107 -11 -166 27 -166z" />
    <glyph glyph-name="r" unicode="r" horiz-adv-x="410" 
d="M205 467c23 -9 29 -30 22 -67c-5 -34 -21 -84 -44 -136h2l20 45c43 92 94 158 159 158c18 0 37 -5 52 -16c-15 -43 -25 -97 -28 -141c-17 -9 -41 -12 -65 -11c3 40 -4 54 -17 54c-14 0 -37 -19 -65 -72c-23 -42 -54 -119 -70 -203l-14 -78h-120l54 283
c16 87 14 95 -50 95c0 17 2 35 9 48c45 3 116 23 155 41z" />
    <glyph glyph-name="s" unicode="s" horiz-adv-x="399" 
d="M242 467c53 0 110 -15 143 -33c-11 -35 -18 -75 -19 -117c-18 -9 -41 -11 -64 -10c-1 76 -23 106 -68 106c-33 0 -52 -14 -57 -36c-19 -86 190 -126 160 -277c-16 -78 -76 -109 -178 -109c-69 0 -122 18 -154 39c13 42 18 80 19 117c19 8 42 11 64 9
c-2 -68 18 -110 77 -110c35 0 54 15 59 36c17 78 -182 130 -153 277c14 75 77 108 171 108z" />
    <glyph glyph-name="t" unicode="t" horiz-adv-x="343" 
d="M237 388l-41 -174c-26 -112 -11 -146 21 -146c21 0 47 15 66 38c11 -10 21 -28 23 -44c-28 -35 -88 -71 -142 -71c-96 0 -123 72 -90 215l43 184c-25 5 -50 8 -73 8c0 18 4 38 12 50h75l2 10c14 61 23 106 25 134c34 4 76 15 99 28c25 -10 25 -39 3 -134l-9 -38h106
c0 -19 -2 -39 -8 -51c-49 0 -83 -3 -112 -9z" />
    <glyph glyph-name="u" unicode="u" horiz-adv-x="555" 
d="M209 467c33 -20 34 -29 -13 -230c-25 -104 -17 -148 17 -148c39 0 124 83 159 268l20 101h119l-48 -249c-24 -127 -24 -137 -3 -137c12 0 24 8 43 27c11 -10 20 -27 23 -42c-35 -39 -84 -66 -126 -66c-74 0 -90 49 -77 113c3 16 8 32 16 48h-2
c-37 -76 -118 -161 -202 -161c-87 0 -91 103 -60 227c37 155 34 159 -33 160c-1 15 1 34 8 48c44 3 122 23 159 41z" />
    <glyph glyph-name="v" unicode="v" horiz-adv-x="494" 
d="M415 468c37 -14 57 -44 57 -103c0 -87 -60 -192 -265 -374c-21 -1 -45 3 -60 12c-12 123 -33 237 -53 314c-13 47 -24 63 -76 60c0 12 2 35 7 49c39 4 98 25 125 41c34 -11 39 -28 53 -96c21 -95 37 -200 46 -279c76 89 110 160 110 208c0 51 -20 73 -67 77
c-3 16 -3 32 -1 48c40 8 101 30 124 43z" />
    <glyph glyph-name="w" unicode="w" horiz-adv-x="733" 
d="M650 467c37 -13 60 -43 60 -107c0 -82 -52 -186 -243 -369c-21 -1 -44 3 -60 12c-8 80 -18 149 -31 211c-27 -78 -75 -138 -169 -223c-21 -1 -45 3 -60 12c-12 123 -33 237 -53 314c-13 47 -24 63 -76 60c0 12 2 35 7 49c39 4 98 25 125 41c34 -11 39 -28 53 -96
c21 -94 37 -197 45 -276c90 108 109 190 69 338c30 6 57 19 75 34c29 -8 35 -20 53 -95c23 -93 44 -196 55 -276c71 86 98 154 98 200c0 54 -23 78 -69 81c-4 16 -5 32 -2 48c40 8 100 28 123 42z" />
    <glyph glyph-name="x" unicode="x" horiz-adv-x="483" 
d="M362 365c-25 0 -60 -56 -84 -118c15 -51 33 -100 48 -135c15 -32 27 -38 43 -38c13 0 26 7 46 25c12 -13 18 -26 22 -42c-32 -37 -82 -66 -123 -66c-45 0 -69 16 -86 50c-15 32 -28 68 -39 101c-40 -78 -98 -151 -163 -151c-22 0 -36 3 -49 13c12 35 20 91 20 132
c17 8 39 12 61 11c1 -41 10 -50 24 -50c23 0 56 42 83 102l-34 120c-12 48 -32 61 -83 58c-2 18 1 35 7 49c38 4 105 24 131 41c21 -4 32 -15 41 -53c9 -39 18 -76 25 -108c41 81 101 161 168 161c24 0 41 -5 56 -16c-16 -38 -29 -91 -30 -136c-17 -8 -36 -12 -58 -10
c0 49 -10 60 -26 60z" />
    <glyph glyph-name="y" unicode="y" horiz-adv-x="482" 
d="M410 468c38 -14 55 -44 55 -83c0 -77 -51 -174 -191 -361c-176 -237 -224 -272 -300 -272c-35 0 -68 13 -96 40c-2 23 3 51 11 72c32 -12 69 -18 103 -18c49 0 86 16 154 97c-10 151 -31 282 -57 374c-13 47 -23 63 -75 60c-1 19 1 35 7 49c38 4 97 25 124 41
c30 -10 38 -22 51 -84c24 -112 38 -209 44 -313c80 115 111 196 111 249c0 32 -17 54 -63 58c-4 16 -4 32 -1 48c40 8 100 30 123 43z" />
    <glyph glyph-name="z" unicode="z" horiz-adv-x="415" 
d="M319 153c21 1 43 -4 59 -14c-16 -35 -26 -84 -29 -125c-9 -16 -30 -23 -88 -23c-66 0 -114 9 -170 9c-27 0 -54 -2 -87 -9c-9 14 -14 34 -12 52c132 111 233 218 295 310c-20 5 -41 7 -66 7c-66 0 -85 -12 -114 -60c-22 0 -44 7 -56 20c23 43 40 90 47 138
c38 4 87 7 144 7c54 0 101 -2 141 -7c9 -12 16 -31 16 -46c-59 -101 -153 -217 -262 -317c45 14 74 4 110 4c41 0 51 11 72 54z" />
    <glyph glyph-name="braceleft" unicode="{" horiz-adv-x="357" 
d="M402 745c6 -10 8 -30 5 -44c-245 -49 5 -386 -277 -442c257 -71 -79 -420 115 -490c1 -16 -4 -32 -14 -43c-318 95 33 432 -179 513c0 15 3 30 12 41c236 74 -40 395 338 465z" />
    <glyph glyph-name="bar" unicode="|" horiz-adv-x="191" 
d="M-21 -228l181 941c24 0 43 -4 59 -18c-66 -311 -126 -625 -182 -942c-21 1 -44 5 -58 19z" />
    <glyph glyph-name="braceright" unicode="}" horiz-adv-x="359" 
d="M131 745c322 -108 -22 -373 183 -463c4 -13 3 -27 -1 -41c-235 -71 -2 -458 -355 -515c-7 15 -8 29 -2 44c232 38 -8 422 284 488c-270 72 90 354 -128 445c2 16 8 33 19 42z" />
    <glyph glyph-name="asciitilde" unicode="~" horiz-adv-x="572" 
d="M198 346c78 0 140 -64 212 -64c34 0 67 13 105 51c16 -3 30 -15 36 -30c-55 -73 -105 -99 -151 -99c-78 0 -134 69 -209 69c-39 0 -80 -19 -125 -68c-16 7 -26 17 -29 35c62 82 115 106 161 106z" />
    <glyph glyph-name="uni00A0" unicode="&#xa0;" horiz-adv-x="186" 
 />
    <glyph glyph-name="exclamdown" unicode="&#xa1;" horiz-adv-x="417" 
d="M228 330c-38 0 -70 30 -60 78c7 36 30 59 69 59c46 0 74 -31 64 -80c-7 -35 -34 -57 -73 -57zM64 -192c29 97 74 273 108 420c21 2 43 0 60 -8c-21 -175 -30 -305 -35 -441c-37 -6 -89 -21 -118 -35c-22 7 -27 24 -15 64z" />
    <glyph glyph-name="cent" unicode="&#xa2;" horiz-adv-x="393" 
d="M367 331c-15 -6 -36 -9 -56 -7c4 46 -4 72 -25 82c-24 -115 -44 -222 -64 -335c40 0 78 21 108 50c12 -12 17 -25 20 -43c-43 -47 -90 -73 -141 -83l-22 -131c-21 1 -44 6 -58 19l21 108c-126 8 -143 128 -118 245c24 110 87 209 208 228l28 149c24 0 43 -5 59 -18
l-28 -129c34 -2 70 -10 90 -24c-13 -35 -21 -74 -22 -111zM153 256c-10 -63 -14 -131 16 -164l59 311c-39 -20 -62 -77 -75 -147z" />
    <glyph glyph-name="sterling" unicode="&#xa3;" horiz-adv-x="532" 
d="M493 507c-22 -7 -48 -6 -68 0c6 89 -25 122 -89 122c-50 0 -90 -36 -100 -93c-14 -83 27 -120 29 -190h127c1 -23 -5 -46 -16 -62h-118c-13 -56 -43 -103 -105 -165c39 22 69 29 105 29c64 0 99 -43 132 -43c19 0 35 11 46 30c17 -3 36 -17 43 -29
c-21 -66 -67 -115 -128 -115c-81 0 -95 56 -192 56c-45 0 -89 -15 -139 -56c-18 11 -29 30 -34 51c84 62 133 114 148 200c3 15 3 28 3 41c-38 0 -73 -1 -101 -2c-1 24 4 48 16 65h75c-11 45 -26 92 -14 161c17 94 104 178 243 178c66 0 117 -16 156 -43
c-10 -42 -17 -86 -19 -135z" />
    <glyph glyph-name="currency" unicode="&#xa4;" horiz-adv-x="483" 
d="M424 246c-7 -42 -25 -79 -51 -107l59 -65c-10 -11 -33 -18 -52 -20l-46 52c-30 -19 -67 -30 -106 -30c-44 0 -80 12 -107 34l-57 -54c-17 1 -38 11 -49 25l74 64c-22 36 -29 82 -20 136c6 34 20 63 40 87l-52 56c12 10 35 18 54 19l37 -42c31 20 70 31 113 31
c48 0 87 -13 116 -37l56 50c18 -5 36 -16 44 -28l-70 -58c18 -30 25 -69 17 -113zM131 276c-15 -87 26 -150 106 -150c61 0 112 48 124 113c15 84 -29 144 -109 144c-61 0 -109 -43 -121 -107z" />
    <glyph glyph-name="yen" unicode="&#xa5;" horiz-adv-x="590" 
d="M569 676c33 0 58 0 93 3c-1 -17 -4 -36 -11 -53c-22 -8 -40 -15 -87 -91c-35 -56 -68 -107 -99 -155h95c1 -22 -4 -44 -15 -62h-122l-37 -52l-3 -16h161c0 -22 -6 -44 -18 -61h-153l-9 -49c-12 -64 -6 -78 70 -90c4 -17 5 -35 3 -53c-43 3 -96 3 -147 3
c-57 0 -115 0 -156 -3c0 21 4 40 10 53c72 11 85 24 98 100l7 38l-159 -3c-1 23 3 47 14 65h155l3 17l-15 51c-56 -1 -93 -2 -141 -3c-1 24 5 48 17 65h103c-17 51 -35 102 -55 152c-30 77 -41 86 -70 95c-3 15 -3 32 -1 52c41 -3 90 -3 124 -3c39 0 87 0 140 3
c0 -20 -4 -38 -10 -53c-63 -9 -75 -27 -56 -80c26 -69 47 -143 66 -219l14 19c39 58 75 118 112 184c34 62 34 86 -22 96c-4 17 -4 34 -1 53c33 -3 66 -3 102 -3z" />
    <glyph glyph-name="brokenbar" unicode="&#xa6;" horiz-adv-x="192" 
d="M89 338l72 375c23 0 42 -4 58 -18c-26 -124 -50 -249 -72 -376c-21 1 -44 6 -58 19zM-21 -228l78 401c23 0 42 -5 59 -18c-29 -133 -55 -267 -79 -402c-21 1 -44 5 -58 19z" />
    <glyph glyph-name="section" unicode="&#xa7;" horiz-adv-x="518" 
d="M242 602c-29 -140 290 -159 244 -385c-16 -78 -78 -133 -168 -162c46 -42 79 -94 64 -175c-15 -77 -93 -127 -195 -127c-59 0 -108 14 -148 42c8 43 14 87 13 130c17 7 41 9 63 7c1 -100 33 -125 89 -125c38 0 66 22 74 58c28 141 -291 159 -245 386
c16 78 78 133 168 162c-46 42 -78 94 -63 174c14 77 92 128 194 128c60 0 109 -14 148 -43c-8 -42 -13 -87 -13 -130c-17 -6 -41 -9 -63 -7c-1 100 -33 125 -89 125c-38 0 -66 -21 -73 -58zM369 195c16 83 -53 127 -121 178c-48 -18 -88 -54 -97 -100
c-16 -83 53 -127 120 -179c49 19 89 55 98 101z" />
    <glyph glyph-name="dieresis" unicode="&#xa8;" horiz-adv-x="365" 
d="M105 598c6 34 28 53 65 53c42 0 63 -29 54 -72c-10 -36 -32 -57 -66 -57c-41 0 -63 31 -53 76zM400 582c-7 -38 -31 -59 -67 -59c-41 0 -63 28 -55 71c6 37 30 57 70 57c39 0 61 -27 52 -69z" />
    <glyph glyph-name="copyright" unicode="&#xa9;" horiz-adv-x="740" 
d="M403 573c220 0 337 -153 294 -379c-35 -187 -177 -307 -359 -307c-219 0 -337 151 -294 379c35 186 179 307 359 307zM346 -61c153 0 272 102 299 256c38 198 -52 327 -250 327c-152 0 -272 -103 -300 -257c-38 -197 52 -326 251 -326zM428 441c34 0 75 -8 96 -23
c-12 -31 -19 -66 -20 -99c-13 -6 -32 -8 -50 -7c5 55 -10 78 -44 78c-55 0 -84 -60 -98 -139c-14 -78 -15 -167 61 -167c36 0 71 19 99 46c10 -11 15 -23 17 -39c-50 -55 -107 -78 -168 -78c-125 0 -141 112 -118 220c25 110 91 208 225 208z" />
    <glyph glyph-name="ordfeminine" unicode="&#xaa;" horiz-adv-x="483" 
d="M443 451c9 -8 17 -29 18 -42c-28 -29 -63 -48 -93 -48c-69 0 -63 65 -48 107h-2c-34 -60 -85 -107 -139 -107c-63 0 -83 64 -63 163c21 110 98 193 208 193c21 0 41 -4 55 -9c20 1 40 4 56 9c15 -10 19 -21 8 -69l-36 -160c-9 -48 -8 -53 4 -53c8 0 20 5 32 16zM231 446
c24 0 75 54 107 173l11 42c-12 4 -25 5 -38 5c-48 0 -78 -41 -94 -115c-14 -70 -9 -105 14 -105z" />
    <glyph glyph-name="guillemotleft" unicode="&#xab;" horiz-adv-x="440" 
d="M206 417c19 -1 37 -11 45 -22c-33 -35 -90 -99 -115 -136c12 -40 45 -109 64 -143c-8 -18 -20 -31 -35 -40c-42 57 -88 112 -128 154c1 21 8 41 18 53c56 46 103 85 151 134zM380 410c18 -1 36 -11 44 -22c-33 -36 -78 -91 -104 -129c11 -40 35 -99 53 -137
c-8 -18 -20 -31 -35 -39c-40 55 -78 103 -117 147c1 21 8 41 18 53c56 46 95 81 141 127z" />
    <glyph glyph-name="logicalnot" unicode="&#xac;" horiz-adv-x="550" 
d="M508 350l-38 -234c-18 -9 -43 -11 -65 -6l30 182c-120 0 -254 0 -384 -3c0 24 5 43 17 61h440z" />
    <glyph glyph-name="softhyphen" unicode="&#xad;" horiz-adv-x="352" 
d="M57 307h271c-1 -32 -6 -53 -15 -74c-66 0 -160 0 -275 -3c3 34 8 56 19 77z" />
    <glyph glyph-name="registered" unicode="&#xae;" horiz-adv-x="518" 
d="M308 685c114 0 199 -87 199 -199s-85 -197 -199 -197c-109 0 -197 85 -197 197s88 199 197 199zM308 329c92 0 159 69 159 157c0 90 -67 159 -159 159c-89 0 -157 -69 -157 -159c0 -88 68 -157 157 -157zM389 531c0 -26 -11 -52 -41 -62l50 -81l-46 -5l-43 77l-22 1v-75
h-43v205h75c47 0 70 -22 70 -60zM287 557v-64c36 -6 57 2 57 32c0 37 -30 40 -57 32z" />
    <glyph glyph-name="macron" unicode="&#xaf;" horiz-adv-x="423" 
d="M114 631h352c0 -14 -3 -31 -9 -47c-127 0 -245 -1 -352 -4c0 11 2 37 9 51z" />
    <glyph glyph-name="degree" unicode="&#xb0;" horiz-adv-x="394" 
d="M276 700c90 0 140 -56 125 -139c-13 -73 -70 -118 -149 -118c-90 0 -139 60 -124 148c12 68 70 109 148 109zM270 656c-30 0 -54 -25 -60 -62c-11 -63 8 -105 48 -105c30 0 54 28 62 71c10 57 -10 96 -50 96z" />
    <glyph glyph-name="plusminus" unicode="&#xb1;" horiz-adv-x="466" 
d="M282 370h160c1 -21 -3 -42 -14 -59h-157c-10 -52 -18 -103 -24 -143c-21 -6 -45 -3 -62 8l26 134c-53 0 -106 -1 -156 -2c-1 24 4 45 16 62h152l28 146c19 9 43 9 62 1c-8 -37 -20 -90 -31 -147zM17 66c-1 24 5 48 17 65h376c-1 -23 -7 -45 -19 -62
c-134 0 -245 0 -374 -3z" />
    <glyph glyph-name="twosuperior" unicode="&#xb2;" horiz-adv-x="335" 
d="M364 616c-7 -35 -30 -66 -86 -105c-24 -15 -66 -46 -98 -72c12 1 24 1 35 1c21 0 31 -2 47 -2c21 0 43 15 51 52c16 2 33 1 46 -5c-7 -31 -14 -80 -14 -108c-6 -11 -19 -20 -43 -20c-30 0 -59 3 -114 3c-48 0 -96 0 -134 -2c-5 11 -6 22 -3 38c39 34 101 83 135 108
c46 33 69 63 77 103c7 38 -7 61 -36 61c-30 0 -48 -33 -65 -96c-19 -1 -42 1 -55 8c10 29 17 74 18 106c42 21 82 31 130 31c74 0 124 -31 109 -101z" />
    <glyph glyph-name="threesuperior" unicode="&#xb3;" horiz-adv-x="328" 
d="M349 616c-8 -37 -34 -65 -89 -90c61 -14 97 -59 81 -137c-19 -87 -110 -144 -223 -144c-33 0 -70 10 -85 23c0 15 11 34 22 40c13 -7 37 -14 67 -14c63 0 110 35 121 91c13 54 -19 93 -94 92c-7 7 -9 23 -7 35c69 21 102 54 111 101c6 32 -5 56 -36 56
c-36 0 -53 -25 -74 -97c-17 -3 -40 0 -54 7c9 30 17 74 18 104c34 22 78 34 125 34c85 0 129 -38 117 -101z" />
    <glyph glyph-name="acute" unicode="&#xb4;" horiz-adv-x="246" 
d="M185 717c47 10 93 6 121 -11c-55 -53 -113 -118 -159 -181c-20 2 -38 9 -52 20c41 65 75 131 90 172z" />
    <glyph glyph-name="uni00B5" unicode="&#xb5;" horiz-adv-x="538" 
d="M221 458l-35 -181c-24 -125 -4 -184 36 -184c44 0 99 77 127 231l26 134h119l-47 -249c-25 -127 -25 -137 -4 -137c12 0 24 8 44 27c10 -10 19 -27 22 -42c-35 -39 -83 -66 -126 -66c-60 0 -76 39 -64 96c4 22 7 34 11 43h-1c-32 -88 -86 -139 -137 -139
c-40 0 -60 23 -68 56h-1c1 -34 -3 -73 -10 -107c-8 -39 -12 -87 -7 -117c-38 -12 -96 -41 -127 -65c-13 9 -18 22 -13 46c6 30 20 50 39 154l96 500h120z" />
    <glyph glyph-name="paragraph" unicode="&#xb6;" 
d="M536 676c26 0 48 0 77 3c0 -18 -4 -37 -10 -53c-58 -6 -64 -20 -76 -86c-60 -312 -86 -469 -136 -787c-22 -2 -42 -2 -61 5l152 865c-17 2 -34 3 -52 4c-58 -302 -104 -565 -153 -876c-22 -1 -44 1 -60 11l96 546c-13 -2 -27 -2 -41 -2c-142 0 -209 72 -186 198
c19 105 113 175 301 175c59 0 102 -3 149 -3zM321 355l48 273c-103 -1 -146 -32 -161 -117c-20 -111 37 -156 103 -156h10z" />
    <glyph glyph-name="periodcentered" unicode="&#xb7;" horiz-adv-x="209" 
d="M119 344c39 0 70 -30 61 -78c-7 -36 -30 -59 -69 -59c-47 0 -74 31 -64 80c6 35 34 57 72 57z" />
    <glyph glyph-name="cedilla" unicode="&#xb8;" horiz-adv-x="219" 
d="M111 16l-59 -69c49 -11 71 -45 60 -102c-12 -59 -73 -89 -160 -87c-4 11 -3 25 -1 37c48 0 83 15 89 46c7 36 -18 55 -53 55c-9 10 -14 24 -10 41l69 79h65z" />
    <glyph glyph-name="onesuperior" unicode="&#xb9;" horiz-adv-x="278" 
d="M141 488l17 91c11 60 8 78 -40 85c-3 14 -4 28 -1 47c30 -3 64 -3 105 -3c40 0 74 0 109 3c0 -17 -3 -31 -10 -47c-45 -8 -53 -27 -65 -86l-17 -89c-12 -62 -8 -75 38 -82c4 -15 5 -32 2 -50c-31 3 -64 3 -105 3c-42 0 -81 -1 -108 -3c1 20 4 36 11 50c45 6 53 20 64 81z
" />
    <glyph glyph-name="ordmasculine" unicode="&#xba;" horiz-adv-x="441" 
d="M314 717c99 0 148 -70 129 -180c-20 -113 -97 -179 -199 -179c-99 0 -146 70 -127 179c22 112 94 180 197 180zM304 667c-38 0 -67 -43 -81 -123c-15 -82 -2 -135 31 -135c36 0 67 44 82 125c14 79 0 133 -32 133z" />
    <glyph glyph-name="guillemotright" unicode="&#xbb;" horiz-adv-x="449" 
d="M301 415c32 -43 70 -87 111 -130c7 -17 7 -37 2 -53c-59 -47 -122 -101 -178 -152c-13 10 -22 26 -25 44c37 35 85 83 116 120c-16 43 -48 111 -73 158c15 11 31 14 47 13zM126 409c31 -45 60 -81 98 -124c7 -17 7 -37 2 -53c-59 -47 -109 -92 -164 -146
c-14 11 -23 27 -25 44c37 36 75 77 103 114c-14 42 -37 100 -62 151c15 11 31 15 48 14z" />
    <glyph glyph-name="onequarter" unicode="&#xbc;" horiz-adv-x="810" 
d="M289 279c-50 3 -76 3 -114 3c-42 0 -73 -1 -116 -3c1 17 5 38 11 52c47 6 56 18 68 82l26 132c13 70 7 81 -60 81c-2 18 1 36 9 50c61 7 107 19 156 41c22 -9 33 -28 25 -67l-46 -235c-12 -66 -6 -77 39 -84c4 -17 4 -34 2 -52zM171 38l541 678c23 -10 37 -26 41 -48
c-202 -244 -346 -422 -544 -677c-19 8 -36 27 -38 47zM786 156c-9 -17 -19 -61 -22 -83h-55l-14 -73h-116l14 72c-68 0 -120 -1 -156 -3c-13 12 -21 46 -19 67c100 106 206 202 298 313c22 0 47 -4 61 -10l-50 -268h32c12 0 20 -5 27 -15zM580 235c-23 -24 -46 -45 -69 -64
h101l8 39c7 38 14 69 26 101h-1c-18 -25 -38 -48 -65 -76z" />
    <glyph glyph-name="onehalf" unicode="&#xbd;" horiz-adv-x="913" 
d="M113 676c61 7 107 19 156 41c22 -9 33 -28 25 -67l-46 -235c-12 -66 -6 -77 39 -84c4 -17 4 -34 2 -52c-50 3 -76 3 -114 3c-42 0 -73 -1 -116 -3c1 17 5 38 11 52c47 6 56 18 68 82l26 132c13 70 7 81 -60 81c-2 18 1 36 9 50zM171 38l541 678c23 -10 37 -26 41 -48
c-202 -244 -346 -422 -544 -677c-19 8 -36 27 -38 47zM885 331c-11 -55 -45 -91 -129 -142c-30 -19 -79 -56 -119 -87c18 2 32 2 50 2c30 0 48 -4 65 -4c20 0 38 11 49 57c18 2 45 -2 57 -9c-9 -40 -13 -89 -11 -122c-8 -17 -22 -29 -46 -29c-32 0 -70 3 -132 3
c-53 0 -85 0 -144 -3c-10 15 -14 40 -11 60c52 50 111 100 156 131c58 43 83 78 93 126c11 52 -2 83 -38 83c-42 0 -59 -31 -80 -123c-22 0 -48 4 -63 11c13 39 19 80 20 120c52 32 91 44 150 44c94 0 146 -45 133 -118z" />
    <glyph glyph-name="threequarters" unicode="&#xbe;" horiz-adv-x="804" 
d="M344 396c-18 -82 -109 -123 -203 -123c-62 0 -92 12 -110 27c0 16 10 40 23 47c15 -11 38 -20 74 -20c48 0 85 23 94 66c10 49 -13 80 -80 81c-6 14 -4 30 1 45c63 9 90 41 99 88c7 37 -4 61 -34 61s-49 -25 -69 -100c-16 -3 -42 0 -57 8c9 28 19 79 20 108
c32 19 81 33 124 33c94 0 144 -34 130 -104c-8 -41 -43 -78 -95 -94c59 -13 98 -52 83 -123zM165 38l541 678c23 -10 37 -26 41 -48c-202 -244 -346 -422 -544 -677c-19 8 -36 27 -38 47zM779 156c-9 -17 -19 -61 -22 -83h-55l-14 -73h-116l14 72c-68 0 -120 -1 -156 -3
c-13 12 -21 46 -19 67c100 106 206 202 298 313c22 0 47 -4 61 -10l-50 -268h32c12 0 20 -5 27 -15zM573 235c-23 -24 -46 -45 -69 -64h101l8 39c7 38 14 69 26 101h-1c-18 -25 -38 -48 -65 -76z" />
    <glyph glyph-name="questiondown" unicode="&#xbf;" horiz-adv-x="528" 
d="M284 329c-39 0 -70 31 -61 79c7 36 30 58 69 58c46 0 74 -31 64 -80c-6 -34 -34 -57 -72 -57zM325 -214c-32 -22 -90 -43 -153 -43c-113 0 -172 57 -155 145c26 130 182 154 208 292c4 17 6 46 3 65c15 9 32 12 49 11c21 -16 34 -67 24 -123
c-26 -131 -143 -157 -161 -251c-10 -52 7 -88 51 -88c40 0 69 33 99 130c27 0 43 -3 59 -13c-15 -51 -21 -79 -24 -125z" />
    <glyph glyph-name="Agrave" unicode="&#xc0;" horiz-adv-x="693" 
d="M445 756c-15 -5 -37 -5 -52 1c-26 52 -65 112 -105 163c33 11 76 14 113 4c9 -54 22 -111 44 -168zM633 50c4 -16 4 -34 2 -53c-35 3 -94 3 -124 3c-34 0 -92 0 -132 -3c1 20 3 38 10 53c57 8 68 24 54 80l-18 74c-81 0 -175 -1 -255 -5l-32 -53c-39 -67 -31 -88 18 -96
c3 -17 4 -34 2 -53c-29 3 -69 3 -101 3c-34 0 -60 0 -87 -3c1 19 3 36 10 53c36 9 55 31 102 108c87 147 179 307 299 518c16 5 33 6 49 6c55 -185 104 -370 142 -532c20 -83 32 -93 61 -100zM202 256h210c-14 55 -28 110 -43 165c-11 34 -18 67 -23 106
c-18 -40 -36 -73 -56 -111c-29 -53 -58 -107 -88 -160z" />
    <glyph glyph-name="Aacute" unicode="&#xc1;" horiz-adv-x="693" 
d="M579 924c-55 -53 -113 -118 -159 -181c-20 2 -38 9 -52 20c41 65 75 131 90 172c47 10 93 6 121 -11zM633 50c4 -16 4 -34 2 -53c-35 3 -94 3 -124 3c-34 0 -92 0 -132 -3c1 20 3 38 10 53c57 8 68 24 54 80l-18 74c-81 0 -175 -1 -255 -5l-32 -53
c-39 -67 -31 -88 18 -96c3 -17 4 -34 2 -53c-29 3 -69 3 -101 3c-34 0 -60 0 -87 -3c1 19 3 36 10 53c36 9 55 31 102 108c87 147 179 307 299 518c16 5 33 6 49 6c55 -185 104 -370 142 -532c20 -83 32 -93 61 -100zM202 256h210c-14 55 -28 110 -43 165
c-11 34 -18 67 -23 106c-18 -40 -36 -73 -56 -111c-29 -53 -58 -107 -88 -160z" />
    <glyph glyph-name="Acircumflex" unicode="&#xc2;" horiz-adv-x="693" 
d="M291 743c-15 12 -24 34 -23 52c59 39 118 86 166 132c17 2 35 0 51 -7c31 -48 67 -94 110 -143c-9 -15 -27 -27 -47 -30c-37 31 -78 58 -118 80c-47 -24 -98 -54 -139 -84zM633 50c4 -16 4 -34 2 -53c-35 3 -94 3 -124 3c-34 0 -92 0 -132 -3c1 20 3 38 10 53
c57 8 68 24 54 80l-18 74c-81 0 -175 -1 -255 -5l-32 -53c-39 -67 -31 -88 18 -96c3 -17 4 -34 2 -53c-29 3 -69 3 -101 3c-34 0 -60 0 -87 -3c1 19 3 36 10 53c36 9 55 31 102 108c87 147 179 307 299 518c16 5 33 6 49 6c55 -185 104 -370 142 -532c20 -83 32 -93 61 -100
zM202 256h210c-14 55 -28 110 -43 165c-11 34 -18 67 -23 106c-18 -40 -36 -73 -56 -111c-29 -53 -58 -107 -88 -160z" />
    <glyph glyph-name="Atilde" unicode="&#xc3;" horiz-adv-x="693" 
d="M350 772c-31 0 -62 -13 -95 -41c-11 11 -17 24 -16 41c58 72 103 90 136 90c55 0 88 -42 128 -42c30 0 56 15 78 36c10 -8 19 -19 23 -35c-47 -72 -84 -93 -121 -93c-54 0 -86 44 -133 44zM633 50c4 -16 4 -34 2 -53c-35 3 -94 3 -124 3c-34 0 -92 0 -132 -3
c1 20 3 38 10 53c57 8 68 24 54 80l-18 74c-81 0 -175 -1 -255 -5l-32 -53c-39 -67 -31 -88 18 -96c3 -17 4 -34 2 -53c-29 3 -69 3 -101 3c-34 0 -60 0 -87 -3c1 19 3 36 10 53c36 9 55 31 102 108c87 147 179 307 299 518c16 5 33 6 49 6c55 -185 104 -370 142 -532
c20 -83 32 -93 61 -100zM202 256h210c-14 55 -28 110 -43 165c-11 34 -18 67 -23 106c-18 -40 -36 -73 -56 -111c-29 -53 -58 -107 -88 -160z" />
    <glyph glyph-name="Adieresis" unicode="&#xc4;" horiz-adv-x="693" 
d="M338 740c-41 0 -63 31 -53 76c6 34 28 53 65 53c42 0 63 -29 54 -72c-10 -36 -32 -57 -66 -57zM513 741c-41 0 -63 28 -55 71c6 37 30 57 70 57c39 0 61 -27 52 -69c-7 -38 -31 -59 -67 -59zM633 50c4 -16 4 -34 2 -53c-35 3 -94 3 -124 3c-34 0 -92 0 -132 -3
c1 20 3 38 10 53c57 8 68 24 54 80l-18 74c-81 0 -175 -1 -255 -5l-32 -53c-39 -67 -31 -88 18 -96c3 -17 4 -34 2 -53c-29 3 -69 3 -101 3c-34 0 -60 0 -87 -3c1 19 3 36 10 53c36 9 55 31 102 108c87 147 179 307 299 518c16 5 33 6 49 6c55 -185 104 -370 142 -532
c20 -83 32 -93 61 -100zM202 256h210c-14 55 -28 110 -43 165c-11 34 -18 67 -23 106c-18 -40 -36 -73 -56 -111c-29 -53 -58 -107 -88 -160z" />
    <glyph glyph-name="Aring" unicode="&#xc5;" horiz-adv-x="693" 
d="M427 741c-79 0 -111 47 -99 105c11 52 54 86 120 86c84 0 109 -56 98 -107c-10 -51 -53 -84 -119 -84zM394 839c-5 -32 9 -54 38 -54c22 0 39 13 46 43c7 31 -5 64 -35 64c-26 0 -44 -23 -49 -53zM633 50c4 -16 4 -34 2 -53c-35 3 -94 3 -124 3c-34 0 -92 0 -132 -3
c1 20 3 38 10 53c57 8 68 24 54 80l-18 74c-81 0 -175 -1 -255 -5l-32 -53c-39 -67 -31 -88 18 -96c3 -17 4 -34 2 -53c-29 3 -69 3 -101 3c-34 0 -60 0 -87 -3c1 19 3 36 10 53c36 9 55 31 102 108c87 147 179 307 299 518c16 5 33 6 49 6c55 -185 104 -370 142 -532
c20 -83 32 -93 61 -100zM202 256h210c-14 55 -28 110 -43 165c-11 34 -18 67 -23 106c-18 -40 -36 -73 -56 -111c-29 -53 -58 -107 -88 -160z" />
    <glyph glyph-name="AE" unicode="&#xc6;" horiz-adv-x="873" 
d="M603 623l-47 -279h33c76 0 105 17 115 80c20 4 38 5 60 2c-9 -34 -15 -64 -22 -116c-7 -44 -10 -80 -12 -113c-22 2 -41 5 -57 13c4 60 -14 85 -90 85h-35l-24 -141c-15 -86 -2 -101 69 -101h7c107 0 140 44 178 132c25 -4 43 -11 60 -27c-21 -43 -40 -101 -51 -161
c-59 3 -136 3 -213 3c-90 0 -191 0 -265 -3c0 18 3 35 10 53c58 7 68 23 82 108l24 137c-60 -1 -112 -2 -157 -5l-114 -157c-38 -52 -37 -74 2 -83c3 -17 4 -34 2 -53c-29 3 -69 3 -101 3c-34 0 -60 0 -87 -3c1 19 3 36 10 53c36 9 59 24 115 95c88 116 181 241 285 386
c39 54 30 90 -34 95c-3 17 -3 36 -1 53c85 -3 135 -3 178 -3h2h85h2c96 0 177 0 266 3c-7 -51 -11 -118 -8 -168c-16 -6 -38 -9 -63 -9c-4 82 -16 121 -136 121h-68zM434 344l27 153c8 43 16 81 25 112c-39 -66 -90 -141 -179 -265h127z" />
    <glyph glyph-name="Ccedilla" unicode="&#xc7;" horiz-adv-x="622" 
d="M451 685c83 0 147 -17 214 -57c-17 -46 -27 -95 -33 -152c-19 -8 -43 -9 -66 -4c17 133 -30 162 -109 162c-153 0 -246 -136 -266 -297c-19 -149 34 -276 186 -276c65 0 127 19 186 53c11 -12 17 -28 18 -47c-71 -50 -145 -74 -228 -76l-37 -44c49 -11 71 -45 60 -102
c-12 -59 -73 -89 -160 -87c-4 11 -3 25 -1 37c48 0 83 15 89 46c7 36 -18 55 -53 55c-9 10 -14 24 -10 41l50 57c-176 23 -258 164 -232 343c33 242 221 348 392 348z" />
    <glyph glyph-name="Egrave" unicode="&#xc8;" horiz-adv-x="598" 
d="M410 756c-15 -5 -37 -5 -52 1c-26 52 -65 112 -105 163c33 11 76 14 113 4c9 -54 22 -111 44 -168zM318 623l-43 -254h42c76 0 105 15 115 78c20 4 38 5 60 2c-9 -34 -15 -65 -22 -116c-7 -45 -10 -80 -12 -114c-22 2 -41 5 -57 14c4 59 -14 83 -90 83h-45l-28 -162
c-14 -86 -2 -101 69 -101h18c108 0 140 44 179 132c24 -4 42 -11 59 -27c-20 -43 -40 -101 -51 -161c-59 3 -136 3 -224 3c-89 0 -190 0 -264 -3c0 18 3 35 10 53c58 7 67 23 82 108l64 371c14 75 -1 90 -57 97c-2 17 -3 33 -1 53c73 -3 156 -3 203 -3h2c107 0 187 0 276 3
c-7 -51 -11 -118 -7 -168c-17 -6 -39 -9 -64 -9c-3 82 -15 121 -136 121h-78z" />
    <glyph glyph-name="Eacute" unicode="&#xc9;" horiz-adv-x="598" 
d="M544 924c-55 -53 -113 -118 -159 -181c-20 2 -38 9 -52 20c41 65 75 131 90 172c47 10 93 6 121 -11zM318 623l-43 -254h42c76 0 105 15 115 78c20 4 38 5 60 2c-9 -34 -15 -65 -22 -116c-7 -45 -10 -80 -12 -114c-22 2 -41 5 -57 14c4 59 -14 83 -90 83h-45l-28 -162
c-14 -86 -2 -101 69 -101h18c108 0 140 44 179 132c24 -4 42 -11 59 -27c-20 -43 -40 -101 -51 -161c-59 3 -136 3 -224 3c-89 0 -190 0 -264 -3c0 18 3 35 10 53c58 7 67 23 82 108l64 371c14 75 -1 90 -57 97c-2 17 -3 33 -1 53c73 -3 156 -3 203 -3h2c107 0 187 0 276 3
c-7 -51 -11 -118 -7 -168c-17 -6 -39 -9 -64 -9c-3 82 -15 121 -136 121h-78z" />
    <glyph glyph-name="Ecircumflex" unicode="&#xca;" horiz-adv-x="598" 
d="M256 743c-15 12 -24 34 -23 52c59 39 118 86 166 132c17 2 35 0 51 -7c31 -48 67 -94 110 -143c-9 -15 -27 -27 -47 -30c-37 31 -78 58 -118 80c-47 -24 -98 -54 -139 -84zM318 623l-43 -254h42c76 0 105 15 115 78c20 4 38 5 60 2c-9 -34 -15 -65 -22 -116
c-7 -45 -10 -80 -12 -114c-22 2 -41 5 -57 14c4 59 -14 83 -90 83h-45l-28 -162c-14 -86 -2 -101 69 -101h18c108 0 140 44 179 132c24 -4 42 -11 59 -27c-20 -43 -40 -101 -51 -161c-59 3 -136 3 -224 3c-89 0 -190 0 -264 -3c0 18 3 35 10 53c58 7 67 23 82 108l64 371
c14 75 -1 90 -57 97c-2 17 -3 33 -1 53c73 -3 156 -3 203 -3h2c107 0 187 0 276 3c-7 -51 -11 -118 -7 -168c-17 -6 -39 -9 -64 -9c-3 82 -15 121 -136 121h-78z" />
    <glyph glyph-name="Edieresis" unicode="&#xcb;" horiz-adv-x="598" 
d="M303 740c-41 0 -63 31 -53 76c6 34 28 53 65 53c42 0 63 -29 54 -72c-10 -36 -32 -57 -66 -57zM478 741c-41 0 -63 28 -55 71c6 37 30 57 70 57c39 0 61 -27 52 -69c-7 -38 -31 -59 -67 -59zM318 623l-43 -254h42c76 0 105 15 115 78c20 4 38 5 60 2
c-9 -34 -15 -65 -22 -116c-7 -45 -10 -80 -12 -114c-22 2 -41 5 -57 14c4 59 -14 83 -90 83h-45l-28 -162c-14 -86 -2 -101 69 -101h18c108 0 140 44 179 132c24 -4 42 -11 59 -27c-20 -43 -40 -101 -51 -161c-59 3 -136 3 -224 3c-89 0 -190 0 -264 -3c0 18 3 35 10 53
c58 7 67 23 82 108l64 371c14 75 -1 90 -57 97c-2 17 -3 33 -1 53c73 -3 156 -3 203 -3h2c107 0 187 0 276 3c-7 -51 -11 -118 -7 -168c-17 -6 -39 -9 -64 -9c-3 82 -15 121 -136 121h-78z" />
    <glyph glyph-name="Igrave" unicode="&#xcc;" horiz-adv-x="373" 
d="M251 924c9 -54 22 -111 44 -168c-15 -5 -37 -5 -52 1c-26 52 -65 112 -105 163c33 11 76 14 113 4zM112 141l68 395c13 70 -1 83 -57 90c-2 16 -3 34 -1 53c41 -2 85 -3 134 -3c45 0 90 1 136 3c-1 -18 -4 -36 -11 -53c-52 -8 -64 -21 -78 -96l-67 -388
c-13 -72 -2 -85 54 -92c4 -16 5 -34 2 -53c-44 2 -86 3 -132 3c-49 0 -99 -1 -136 -3c1 20 4 37 11 53c52 6 65 19 77 91z" />
    <glyph glyph-name="Iacute" unicode="&#xcd;" horiz-adv-x="373" 
d="M309 935c47 10 93 6 121 -11c-55 -53 -113 -118 -159 -181c-20 2 -38 9 -52 20c41 65 75 131 90 172zM112 141l68 395c13 70 -1 83 -57 90c-2 16 -3 34 -1 53c41 -2 85 -3 134 -3c45 0 90 1 136 3c-1 -18 -4 -36 -11 -53c-52 -8 -64 -21 -78 -96l-67 -388
c-13 -72 -2 -85 54 -92c4 -16 5 -34 2 -53c-44 2 -86 3 -132 3c-49 0 -99 -1 -136 -3c1 20 4 37 11 53c52 6 65 19 77 91z" />
    <glyph glyph-name="Icircumflex" unicode="&#xce;" horiz-adv-x="373" 
d="M285 927c17 2 35 0 51 -7c31 -48 67 -94 110 -143c-9 -15 -27 -27 -47 -30c-37 31 -78 58 -118 80c-47 -24 -98 -54 -139 -84c-15 12 -24 34 -23 52c59 39 118 86 166 132zM112 141l68 395c13 70 -1 83 -57 90c-2 16 -3 34 -1 53c41 -2 85 -3 134 -3c45 0 90 1 136 3
c-1 -18 -4 -36 -11 -53c-52 -8 -64 -21 -78 -96l-67 -388c-13 -72 -2 -85 54 -92c4 -16 5 -34 2 -53c-44 2 -86 3 -132 3c-49 0 -99 -1 -136 -3c1 20 4 37 11 53c52 6 65 19 77 91z" />
    <glyph glyph-name="Idieresis" unicode="&#xcf;" horiz-adv-x="373" 
d="M135 816c6 34 28 53 65 53c42 0 63 -29 54 -72c-10 -36 -32 -57 -66 -57c-41 0 -63 31 -53 76zM430 800c-7 -38 -31 -59 -67 -59c-41 0 -63 28 -55 71c6 37 30 57 70 57c39 0 61 -27 52 -69zM112 141l68 395c13 70 -1 83 -57 90c-2 16 -3 34 -1 53c41 -2 85 -3 134 -3
c45 0 90 1 136 3c-1 -18 -4 -36 -11 -53c-52 -8 -64 -21 -78 -96l-67 -388c-13 -72 -2 -85 54 -92c4 -16 5 -34 2 -53c-44 2 -86 3 -132 3c-49 0 -99 -1 -136 -3c1 20 4 37 11 53c52 6 65 19 77 91z" />
    <glyph glyph-name="Eth" unicode="&#xd0;" horiz-adv-x="734" 
d="M400 679c184 0 371 -63 317 -353c-45 -246 -237 -326 -430 -326h-3c-73 0 -192 0 -263 -3c1 19 4 37 11 53c57 7 68 23 82 108l25 143c-27 0 -51 -1 -67 -2c0 22 3 38 12 55h64l33 185c12 71 -6 82 -57 88c-4 18 -4 37 -2 52c44 -2 107 -3 156 -3c39 0 80 3 122 3z
M587 327c44 234 -69 300 -204 300c-25 0 -45 -3 -67 -9l-45 -264h70c2 -18 0 -36 -8 -52h-71l-26 -155c-14 -79 -4 -94 68 -94c126 0 243 64 283 274z" />
    <glyph glyph-name="Ntilde" unicode="&#xd1;" horiz-adv-x="685" 
d="M379 772c-31 0 -62 -13 -95 -41c-11 11 -17 24 -16 41c58 72 103 90 136 90c55 0 88 -42 128 -42c30 0 56 15 78 36c10 -8 19 -19 23 -35c-47 -72 -84 -93 -121 -93c-54 0 -86 44 -133 44zM630 676c32 0 74 0 105 3c0 -16 -4 -38 -10 -53c-47 -13 -61 -40 -79 -146
l-84 -483c-15 -5 -34 -6 -55 -6c-88 177 -178 345 -274 517l-55 -316c-18 -106 -10 -130 55 -142c4 -16 4 -33 2 -53c-42 3 -84 3 -112 3c-33 0 -61 0 -104 -3c1 19 4 37 9 53c52 10 74 36 91 135l70 400l-5 10c-13 24 -25 28 -60 31c-4 16 -4 34 -2 53c26 -2 52 -3 79 -3
c30 0 60 1 82 3c89 -154 177 -321 257 -480l49 289c17 104 6 126 -57 138c-2 16 -3 34 -1 53c34 -3 72 -3 99 -3z" />
    <glyph glyph-name="Ograve" unicode="&#xd2;" horiz-adv-x="741" 
d="M430 924c9 -54 22 -111 44 -168c-15 -5 -37 -5 -52 1c-26 52 -65 112 -105 163c33 11 76 14 113 4zM438 685c199 0 329 -138 282 -378c-34 -179 -179 -316 -375 -316c-206 0 -324 154 -282 377c36 185 188 317 375 317zM422 632c-111 0 -199 -111 -226 -257
c-35 -181 23 -331 164 -331c120 0 203 112 231 266c34 187 -42 322 -169 322z" />
    <glyph glyph-name="Oacute" unicode="&#xd3;" horiz-adv-x="741" 
d="M488 935c47 10 93 6 121 -11c-55 -53 -113 -118 -159 -181c-20 2 -38 9 -52 20c41 65 75 131 90 172zM438 685c199 0 329 -138 282 -378c-34 -179 -179 -316 -375 -316c-206 0 -324 154 -282 377c36 185 188 317 375 317zM422 632c-111 0 -199 -111 -226 -257
c-35 -181 23 -331 164 -331c120 0 203 112 231 266c34 187 -42 322 -169 322z" />
    <glyph glyph-name="Ocircumflex" unicode="&#xd4;" horiz-adv-x="741" 
d="M464 927c17 2 35 0 51 -7c31 -48 67 -94 110 -143c-9 -15 -27 -27 -47 -30c-37 31 -78 58 -118 80c-47 -24 -98 -54 -139 -84c-15 12 -24 34 -23 52c59 39 118 86 166 132zM438 685c199 0 329 -138 282 -378c-34 -179 -179 -316 -375 -316c-206 0 -324 154 -282 377
c36 185 188 317 375 317zM422 632c-111 0 -199 -111 -226 -257c-35 -181 23 -331 164 -331c120 0 203 112 231 266c34 187 -42 322 -169 322z" />
    <glyph glyph-name="Otilde" unicode="&#xd5;" horiz-adv-x="741" 
d="M404 862c55 0 88 -42 128 -42c30 0 56 15 78 36c10 -8 19 -19 23 -35c-47 -72 -84 -93 -121 -93c-54 0 -86 44 -133 44c-31 0 -62 -13 -95 -41c-11 11 -17 24 -16 41c58 72 103 90 136 90zM438 685c199 0 329 -138 282 -378c-34 -179 -179 -316 -375 -316
c-206 0 -324 154 -282 377c36 185 188 317 375 317zM422 632c-111 0 -199 -111 -226 -257c-35 -181 23 -331 164 -331c120 0 203 112 231 266c34 187 -42 322 -169 322z" />
    <glyph glyph-name="Odieresis" unicode="&#xd6;" horiz-adv-x="741" 
d="M314 816c6 34 28 53 65 53c42 0 63 -29 54 -72c-10 -36 -32 -57 -66 -57c-41 0 -63 31 -53 76zM609 800c-7 -38 -31 -59 -67 -59c-41 0 -63 28 -55 71c6 37 30 57 70 57c39 0 61 -27 52 -69zM438 685c199 0 329 -138 282 -378c-34 -179 -179 -316 -375 -316
c-206 0 -324 154 -282 377c36 185 188 317 375 317zM422 632c-111 0 -199 -111 -226 -257c-35 -181 23 -331 164 -331c120 0 203 112 231 266c34 187 -42 322 -169 322z" />
    <glyph glyph-name="multiply" unicode="&#xd7;" horiz-adv-x="602" 
d="M587 446c-64 -54 -154 -132 -245 -213l194 -219c-14 -17 -38 -22 -62 -20c-52 62 -112 131 -174 202c-85 -76 -168 -151 -230 -209c-23 3 -46 15 -57 31l248 221c-66 75 -133 149 -194 215c14 13 37 19 61 19l175 -197l230 205c24 -3 42 -16 54 -35z" />
    <glyph glyph-name="Oslash" unicode="&#xd8;" horiz-adv-x="741" 
d="M730 660l-65 -66c56 -65 79 -162 55 -287c-34 -179 -179 -316 -375 -316c-75 0 -138 20 -186 57l-50 -57c-25 0 -48 11 -55 30l63 67c-55 67 -76 164 -54 280c36 185 188 317 375 317c72 0 135 -18 184 -53l50 53c26 0 47 -10 58 -25zM196 375c-14 -74 -13 -143 3 -198
l357 383c-31 46 -77 72 -134 72c-111 0 -199 -111 -226 -257zM591 310c14 76 10 144 -9 197c-119 -125 -244 -261 -358 -387c29 -47 75 -76 136 -76c120 0 203 112 231 266z" />
    <glyph glyph-name="Ugrave" unicode="&#xd9;" horiz-adv-x="647" 
d="M430 924c9 -54 22 -111 44 -168c-15 -5 -37 -5 -52 1c-26 52 -65 112 -105 163c33 11 76 14 113 4zM107 679c47 -3 81 -3 126 -3c46 0 83 0 135 3c-1 -18 -3 -35 -10 -53c-61 -6 -72 -19 -86 -99l-46 -265c-26 -148 22 -210 113 -210c95 0 155 74 177 200l44 252
c16 91 7 105 -49 122c-3 17 -4 34 -1 53c42 -3 74 -3 101 -3c35 0 58 0 102 3c-1 -19 -4 -36 -11 -53c-56 -15 -67 -29 -85 -133l-41 -232c-33 -187 -112 -270 -265 -270c-176 0 -238 97 -209 266l49 282c11 66 4 81 -43 87c-4 15 -4 34 -1 53z" />
    <glyph glyph-name="Uacute" unicode="&#xda;" horiz-adv-x="647" 
d="M488 935c47 10 93 6 121 -11c-55 -53 -113 -118 -159 -181c-20 2 -38 9 -52 20c41 65 75 131 90 172zM107 679c47 -3 81 -3 126 -3c46 0 83 0 135 3c-1 -18 -3 -35 -10 -53c-61 -6 -72 -19 -86 -99l-46 -265c-26 -148 22 -210 113 -210c95 0 155 74 177 200l44 252
c16 91 7 105 -49 122c-3 17 -4 34 -1 53c42 -3 74 -3 101 -3c35 0 58 0 102 3c-1 -19 -4 -36 -11 -53c-56 -15 -67 -29 -85 -133l-41 -232c-33 -187 -112 -270 -265 -270c-176 0 -238 97 -209 266l49 282c11 66 4 81 -43 87c-4 15 -4 34 -1 53z" />
    <glyph glyph-name="Ucircumflex" unicode="&#xdb;" horiz-adv-x="647" 
d="M464 927c17 2 35 0 51 -7c31 -48 67 -94 110 -143c-9 -15 -27 -27 -47 -30c-37 31 -78 58 -118 80c-47 -24 -98 -54 -139 -84c-15 12 -24 34 -23 52c59 39 118 86 166 132zM107 679c47 -3 81 -3 126 -3c46 0 83 0 135 3c-1 -18 -3 -35 -10 -53c-61 -6 -72 -19 -86 -99
l-46 -265c-26 -148 22 -210 113 -210c95 0 155 74 177 200l44 252c16 91 7 105 -49 122c-3 17 -4 34 -1 53c42 -3 74 -3 101 -3c35 0 58 0 102 3c-1 -19 -4 -36 -11 -53c-56 -15 -67 -29 -85 -133l-41 -232c-33 -187 -112 -270 -265 -270c-176 0 -238 97 -209 266l49 282
c11 66 4 81 -43 87c-4 15 -4 34 -1 53z" />
    <glyph glyph-name="Udieresis" unicode="&#xdc;" horiz-adv-x="647" 
d="M314 816c6 34 28 53 65 53c42 0 63 -29 54 -72c-10 -36 -32 -57 -66 -57c-41 0 -63 31 -53 76zM609 800c-7 -38 -31 -59 -67 -59c-41 0 -63 28 -55 71c6 37 30 57 70 57c39 0 61 -27 52 -69zM107 679c47 -3 81 -3 126 -3c46 0 83 0 135 3c-1 -18 -3 -35 -10 -53
c-61 -6 -72 -19 -86 -99l-46 -265c-26 -148 22 -210 113 -210c95 0 155 74 177 200l44 252c16 91 7 105 -49 122c-3 17 -4 34 -1 53c42 -3 74 -3 101 -3c35 0 58 0 102 3c-1 -19 -4 -36 -11 -53c-56 -15 -67 -29 -85 -133l-41 -232c-33 -187 -112 -270 -265 -270
c-176 0 -238 97 -209 266l49 282c11 66 4 81 -43 87c-4 15 -4 34 -1 53z" />
    <glyph glyph-name="Yacute" unicode="&#xdd;" horiz-adv-x="590" 
d="M578 924c-55 -53 -113 -118 -159 -181c-20 2 -38 9 -52 20c41 65 75 131 90 172c47 10 93 6 121 -11zM569 676c33 0 58 0 93 3c-1 -17 -4 -36 -11 -53c-22 -8 -40 -15 -87 -91c-64 -103 -120 -188 -178 -269l-22 -126c-12 -64 -6 -78 70 -90c4 -17 5 -35 3 -53
c-43 3 -96 3 -147 3c-57 0 -115 0 -156 -3c0 21 4 40 10 53c72 11 85 24 98 100l20 117c-27 91 -57 178 -91 265c-30 77 -41 86 -70 95c-3 15 -3 32 -1 52c41 -3 90 -3 124 -3c39 0 87 0 140 3c0 -20 -4 -38 -10 -53c-63 -9 -75 -27 -56 -80c26 -69 47 -143 67 -220
c43 64 84 131 125 204c34 62 34 86 -22 96c-4 17 -4 34 -1 53c33 -3 66 -3 102 -3z" />
    <glyph glyph-name="Thorn" unicode="&#xde;" horiz-adv-x="591" 
d="M305 540l103 1c154 0 204 -91 186 -196c-18 -99 -112 -195 -259 -195c-31 0 -53 4 -69 15c-2 14 -1 30 4 42c13 -7 27 -7 44 -7c69 0 138 35 158 144c16 89 -19 148 -122 148c-18 0 -33 -2 -55 -7l-59 -343c-13 -72 -2 -85 54 -92c4 -16 5 -34 2 -53c-44 2 -86 3 -132 3
c-49 0 -99 -1 -136 -3c1 20 4 37 11 53c52 6 65 19 77 91l68 395c13 70 -1 83 -57 90c-2 16 -3 34 -1 53c41 -2 85 -3 134 -3c45 0 90 1 136 3c-1 -18 -4 -36 -11 -53c-50 -8 -63 -20 -76 -86z" />
    <glyph glyph-name="germandbls" unicode="&#xdf;" horiz-adv-x="596" 
d="M554 573c-25 -123 -142 -135 -154 -195c-18 -88 164 -117 137 -267c-14 -80 -75 -119 -176 -119c-58 0 -101 14 -134 38c12 42 17 80 18 117c20 8 42 11 64 9c-1 -72 16 -112 65 -112c31 0 53 16 58 48c16 92 -165 132 -139 269c17 89 145 85 166 190
c11 60 -20 110 -92 110c-59 0 -88 -56 -119 -214c-23 -121 -41 -240 -52 -308c-34 -219 -124 -387 -250 -387c-31 0 -64 13 -94 40c0 23 4 52 12 72c40 -13 73 -18 110 -18c54 0 71 30 95 206c10 79 26 211 45 338c-26 5 -51 8 -74 8c0 19 4 38 12 50h71l1 5
c26 148 90 261 274 261c135 0 170 -70 156 -141z" />
    <glyph glyph-name="agrave" unicode="&#xe0;" horiz-adv-x="514" 
d="M345 538c-15 -5 -37 -5 -52 1c-26 52 -65 112 -105 163c33 11 76 14 113 4c9 -54 22 -111 44 -168zM464 98c10 -10 18 -26 21 -41c-36 -39 -78 -66 -127 -66c-77 0 -81 77 -66 128c5 20 19 52 29 75h-4c-40 -112 -117 -203 -203 -203c-88 0 -114 86 -87 219
c29 147 131 257 278 257c25 0 53 -5 72 -11c27 1 52 5 72 11c16 -10 24 -25 9 -94l-49 -216c-15 -71 -15 -85 5 -85c15 0 27 7 50 26zM181 86c35 0 113 85 150 250l15 63c-18 7 -41 11 -61 11c-73 0 -112 -65 -131 -158c-23 -107 -11 -166 27 -166z" />
    <glyph glyph-name="aacute" unicode="&#xe1;" horiz-adv-x="514" 
d="M480 706c-55 -53 -113 -118 -159 -181c-20 2 -38 9 -52 20c41 65 75 131 90 172c47 10 93 6 121 -11zM464 98c10 -10 18 -26 21 -41c-36 -39 -78 -66 -127 -66c-77 0 -81 77 -66 128c5 20 19 52 29 75h-4c-40 -112 -117 -203 -203 -203c-88 0 -114 86 -87 219
c29 147 131 257 278 257c25 0 53 -5 72 -11c27 1 52 5 72 11c16 -10 24 -25 9 -94l-49 -216c-15 -71 -15 -85 5 -85c15 0 27 7 50 26zM181 86c35 0 113 85 150 250l15 63c-18 7 -41 11 -61 11c-73 0 -112 -65 -131 -158c-23 -107 -11 -166 27 -166z" />
    <glyph glyph-name="acircumflex" unicode="&#xe2;" horiz-adv-x="514" 
d="M386 702c31 -48 67 -94 110 -143c-9 -15 -27 -27 -47 -30c-37 31 -78 58 -118 80c-47 -24 -98 -54 -139 -84c-15 12 -24 34 -23 52c59 39 118 86 166 132c17 2 35 0 51 -7zM414 72c15 0 27 7 50 26c10 -10 18 -26 21 -41c-36 -39 -78 -66 -127 -66c-77 0 -81 77 -66 128
c5 20 19 52 29 75h-4c-40 -112 -117 -203 -203 -203c-88 0 -114 86 -87 219c29 147 131 257 278 257c25 0 53 -5 72 -11c27 1 52 5 72 11c16 -10 24 -25 9 -94l-49 -216c-15 -71 -15 -85 5 -85zM181 86c35 0 113 85 150 250l15 63c-18 7 -41 11 -61 11
c-73 0 -112 -65 -131 -158c-23 -107 -11 -166 27 -166z" />
    <glyph glyph-name="atilde" unicode="&#xe3;" horiz-adv-x="514" 
d="M250 554c-31 0 -62 -13 -95 -41c-11 11 -17 24 -16 41c58 72 103 90 136 90c55 0 88 -42 128 -42c30 0 56 15 78 36c10 -8 19 -19 23 -35c-47 -72 -84 -93 -121 -93c-54 0 -86 44 -133 44zM414 72c15 0 27 7 50 26c10 -10 18 -26 21 -41c-36 -39 -78 -66 -127 -66
c-77 0 -81 77 -66 128c5 20 19 52 29 75h-4c-40 -112 -117 -203 -203 -203c-88 0 -114 86 -87 219c29 147 131 257 278 257c25 0 53 -5 72 -11c27 1 52 5 72 11c16 -10 24 -25 9 -94l-49 -216c-15 -71 -15 -85 5 -85zM181 86c35 0 113 85 150 250l15 63c-18 7 -41 11 -61 11
c-73 0 -112 -65 -131 -158c-23 -107 -11 -166 27 -166z" />
    <glyph glyph-name="adieresis" unicode="&#xe4;" horiz-adv-x="514" 
d="M238 522c-41 0 -63 31 -53 76c6 34 28 53 65 53c42 0 63 -29 54 -72c-10 -36 -32 -57 -66 -57zM413 523c-41 0 -63 28 -55 71c6 37 30 57 70 57c39 0 61 -27 52 -69c-7 -38 -31 -59 -67 -59zM464 98c10 -10 18 -26 21 -41c-36 -39 -78 -66 -127 -66c-77 0 -81 77 -66 128
c5 20 19 52 29 75h-4c-40 -112 -117 -203 -203 -203c-88 0 -114 86 -87 219c29 147 131 257 278 257c25 0 53 -5 72 -11c27 1 52 5 72 11c16 -10 24 -25 9 -94l-49 -216c-15 -71 -15 -85 5 -85c15 0 27 7 50 26zM181 86c35 0 113 85 150 250l15 63c-18 7 -41 11 -61 11
c-73 0 -112 -65 -131 -158c-23 -107 -11 -166 27 -166z" />
    <glyph glyph-name="aring" unicode="&#xe5;" horiz-adv-x="514" 
d="M327 523c-79 0 -111 47 -99 105c11 52 54 86 120 86c84 0 109 -56 98 -107c-10 -51 -53 -84 -119 -84zM294 621c-5 -32 9 -54 38 -54c22 0 39 13 46 43c7 31 -5 64 -35 64c-26 0 -44 -23 -49 -53zM464 98c10 -10 18 -26 21 -41c-36 -39 -78 -66 -127 -66
c-77 0 -81 77 -66 128c5 20 19 52 29 75h-4c-40 -112 -117 -203 -203 -203c-88 0 -114 86 -87 219c29 147 131 257 278 257c25 0 53 -5 72 -11c27 1 52 5 72 11c16 -10 24 -25 9 -94l-49 -216c-15 -71 -15 -85 5 -85c15 0 27 7 50 26zM181 86c35 0 113 85 150 250l15 63
c-18 7 -41 11 -61 11c-73 0 -112 -65 -131 -158c-23 -107 -11 -166 27 -166z" />
    <glyph glyph-name="ae" unicode="&#xe6;" horiz-adv-x="640" 
d="M626 343c-18 -82 -109 -171 -228 -236c11 -19 28 -32 55 -32c32 0 74 17 102 47c12 -12 18 -25 20 -44c-45 -48 -109 -87 -177 -87c-56 0 -91 21 -111 55c-45 -31 -98 -55 -150 -55c-108 0 -138 94 -110 219c36 163 141 257 275 257c38 0 74 -8 111 -27
c32 18 67 27 103 27c90 0 124 -58 110 -124zM203 84c19 0 40 6 65 18c-6 37 -3 80 6 123c16 73 45 131 83 171c-24 11 -44 14 -62 14c-84 0 -122 -58 -145 -158c-26 -113 -7 -168 53 -168zM531 333c8 51 -10 75 -39 75c-48 0 -84 -59 -100 -137c-7 -35 -12 -79 -7 -116
c75 42 134 100 146 178z" />
    <glyph glyph-name="ccedilla" unicode="&#xe7;" horiz-adv-x="393" 
d="M367 331c-15 -6 -36 -9 -56 -7c5 61 -11 87 -49 87c-61 0 -93 -67 -109 -155c-15 -87 -16 -185 68 -185c40 0 79 21 109 50c12 -12 17 -25 20 -43c-41 -45 -87 -71 -135 -81l-42 -50c49 -11 71 -45 60 -102c-12 -59 -73 -89 -160 -87c-4 11 -3 25 -1 37c48 0 83 15 89 46
c7 36 -18 55 -53 55c-9 10 -14 24 -10 41l48 55c-123 10 -139 128 -114 244c27 122 101 231 250 231c38 0 83 -9 107 -25c-13 -35 -21 -74 -22 -111z" />
    <glyph glyph-name="egrave" unicode="&#xe8;" horiz-adv-x="408" 
d="M302 538c-15 -5 -37 -5 -52 1c-26 52 -65 112 -105 163c33 11 76 14 113 4c9 -54 22 -111 44 -168zM276 467c90 0 129 -56 116 -117c-18 -82 -136 -148 -246 -156c-4 -66 11 -121 73 -121c36 0 73 16 104 49c12 -12 18 -25 20 -44c-47 -52 -105 -87 -185 -87
c-133 0 -150 123 -128 234c32 160 136 242 246 242zM298 340c8 41 -8 70 -42 70c-41 0 -85 -51 -103 -161l-1 -5c75 6 135 40 146 96z" />
    <glyph glyph-name="eacute" unicode="&#xe9;" horiz-adv-x="408" 
d="M315 717c47 10 93 6 121 -11c-55 -53 -113 -118 -159 -181c-20 2 -38 9 -52 20c41 65 75 131 90 172zM276 467c90 0 129 -56 116 -117c-18 -82 -136 -148 -246 -156c-4 -66 11 -121 73 -121c36 0 73 16 104 49c12 -12 18 -25 20 -44c-47 -52 -105 -87 -185 -87
c-133 0 -150 123 -128 234c32 160 136 242 246 242zM298 340c8 41 -8 70 -42 70c-41 0 -85 -51 -103 -161l-1 -5c75 6 135 40 146 96z" />
    <glyph glyph-name="ecircumflex" unicode="&#xea;" horiz-adv-x="408" 
d="M342 702c31 -48 67 -94 110 -143c-9 -15 -27 -27 -47 -30c-37 31 -78 58 -118 80c-47 -24 -98 -54 -139 -84c-15 12 -24 34 -23 52c59 39 118 86 166 132c17 2 35 0 51 -7zM276 467c90 0 129 -56 116 -117c-18 -82 -136 -148 -246 -156c-4 -66 11 -121 73 -121
c36 0 73 16 104 49c12 -12 18 -25 20 -44c-47 -52 -105 -87 -185 -87c-133 0 -150 123 -128 234c32 160 136 242 246 242zM298 340c8 41 -8 70 -42 70c-41 0 -85 -51 -103 -161l-1 -5c75 6 135 40 146 96z" />
    <glyph glyph-name="edieresis" unicode="&#xeb;" horiz-adv-x="408" 
d="M195 522c-41 0 -63 31 -53 76c6 34 28 53 65 53c42 0 63 -29 54 -72c-10 -36 -32 -57 -66 -57zM385 651c39 0 61 -27 52 -69c-7 -38 -31 -59 -67 -59c-41 0 -63 28 -55 71c6 37 30 57 70 57zM276 467c90 0 129 -56 116 -117c-18 -82 -136 -148 -246 -156
c-4 -66 11 -121 73 -121c36 0 73 16 104 49c12 -12 18 -25 20 -44c-47 -52 -105 -87 -185 -87c-133 0 -150 123 -128 234c32 160 136 242 246 242zM298 340c8 41 -8 70 -42 70c-41 0 -85 -51 -103 -161l-1 -5c75 6 135 40 146 96z" />
    <glyph glyph-name="igrave" unicode="&#xec;" horiz-adv-x="275" 
d="M167 706c9 -54 22 -111 44 -168c-15 -5 -37 -5 -52 1c-26 52 -65 112 -105 163c33 11 76 14 113 4zM193 467c38 -17 49 -50 29 -125l-49 -191c-18 -66 -14 -78 4 -78c12 0 28 7 47 25c10 -9 19 -25 21 -42c-40 -42 -84 -65 -127 -65c-80 0 -92 62 -68 154l35 129
c25 93 22 104 -43 104c-1 17 1 34 8 48c45 3 107 23 143 41z" />
    <glyph glyph-name="iacute" unicode="&#xed;" horiz-adv-x="275" 
d="M224 717c47 10 93 6 121 -11c-55 -53 -113 -118 -159 -181c-20 2 -38 9 -52 20c41 65 75 131 90 172zM193 467c38 -17 49 -50 29 -125l-49 -191c-18 -66 -14 -78 4 -78c12 0 28 7 47 25c10 -9 19 -25 21 -42c-40 -42 -84 -65 -127 -65c-80 0 -92 62 -68 154l35 129
c25 93 22 104 -43 104c-1 17 1 34 8 48c45 3 107 23 143 41z" />
    <glyph glyph-name="icircumflex" unicode="&#xee;" horiz-adv-x="275" 
d="M200 709c17 2 35 0 51 -7c31 -48 67 -94 110 -143c-9 -15 -27 -27 -47 -30c-37 31 -78 58 -118 80c-47 -24 -98 -54 -139 -84c-15 12 -24 34 -23 52c59 39 118 86 166 132zM193 467c38 -17 49 -50 29 -125l-49 -191c-18 -66 -14 -78 4 -78c12 0 28 7 47 25
c10 -9 19 -25 21 -42c-40 -42 -84 -65 -127 -65c-80 0 -92 62 -68 154l35 129c25 93 22 104 -43 104c-1 17 1 34 8 48c45 3 107 23 143 41z" />
    <glyph glyph-name="idieresis" unicode="&#xef;" horiz-adv-x="275" 
d="M51 598c6 34 28 53 65 53c42 0 63 -29 54 -72c-10 -36 -32 -57 -66 -57c-41 0 -63 31 -53 76zM346 582c-7 -38 -31 -59 -67 -59c-41 0 -63 28 -55 71c6 37 30 57 70 57c39 0 61 -27 52 -69zM193 467c38 -17 49 -50 29 -125l-49 -191c-18 -66 -14 -78 4 -78
c12 0 28 7 47 25c10 -9 19 -25 21 -42c-40 -42 -84 -65 -127 -65c-80 0 -92 62 -68 154l35 129c25 93 22 104 -43 104c-1 17 1 34 8 48c45 3 107 23 143 41z" />
    <glyph glyph-name="eth" unicode="&#xf0;" horiz-adv-x="472" 
d="M319 664l137 64c5 -20 7 -44 3 -59c-25 -11 -60 -26 -97 -43c92 -93 112 -203 87 -333c-35 -179 -176 -302 -299 -302c-101 0 -150 84 -123 219c28 146 131 257 278 257c13 0 26 -1 39 -3c-4 50 -18 93 -48 132c-47 -23 -95 -46 -136 -68c-7 19 -9 44 -5 59l104 49
c-23 22 -53 43 -89 64c5 16 18 29 32 36c46 -23 85 -47 117 -72zM327 286c8 42 14 80 17 114c-18 7 -40 10 -59 10c-73 0 -113 -66 -131 -158c-23 -110 -1 -185 51 -185c44 0 92 61 122 219z" />
    <glyph glyph-name="ntilde" unicode="&#xf1;" horiz-adv-x="560" 
d="M261 554c-31 0 -62 -13 -95 -41c-11 11 -17 24 -16 41c58 72 103 90 136 90c55 0 88 -42 128 -42c30 0 56 15 78 36c10 -8 19 -19 23 -35c-47 -72 -84 -93 -121 -93c-54 0 -86 44 -133 44zM509 98c11 -11 19 -26 22 -42c-44 -44 -86 -65 -129 -65c-89 0 -85 66 -62 167
l23 104c20 85 8 111 -16 111c-48 0 -137 -99 -168 -265l-20 -108h-119l53 283c16 87 13 95 -51 95c0 17 1 35 8 48c45 3 122 23 161 41c22 -9 29 -30 24 -65c-10 -53 -21 -86 -37 -125l16 34c34 72 119 156 195 156c56 0 114 -41 79 -194l-27 -111c-19 -85 -18 -90 -2 -90
c12 0 33 11 50 26z" />
    <glyph glyph-name="ograve" unicode="&#xf2;" horiz-adv-x="498" 
d="M285 706c9 -54 22 -111 44 -168c-15 -5 -37 -5 -52 1c-26 52 -65 112 -105 163c33 11 76 14 113 4zM293 467c134 0 199 -95 175 -232c-24 -144 -127 -244 -263 -244s-200 101 -174 239c26 144 128 237 262 237zM279 412c-55 0 -102 -70 -121 -173
c-21 -115 4 -193 60 -193c54 0 105 73 123 181c20 108 -5 185 -62 185z" />
    <glyph glyph-name="oacute" unicode="&#xf3;" horiz-adv-x="498" 
d="M343 717c47 10 93 6 121 -11c-55 -53 -113 -118 -159 -181c-20 2 -38 9 -52 20c41 65 75 131 90 172zM293 467c134 0 199 -95 175 -232c-24 -144 -127 -244 -263 -244s-200 101 -174 239c26 144 128 237 262 237zM279 412c-55 0 -102 -70 -121 -173
c-21 -115 4 -193 60 -193c54 0 105 73 123 181c20 108 -5 185 -62 185z" />
    <glyph glyph-name="ocircumflex" unicode="&#xf4;" horiz-adv-x="498" 
d="M319 709c17 2 35 0 51 -7c31 -48 67 -94 110 -143c-9 -15 -27 -27 -47 -30c-37 31 -78 58 -118 80c-47 -24 -98 -54 -139 -84c-15 12 -24 34 -23 52c59 39 118 86 166 132zM293 467c134 0 199 -95 175 -232c-24 -144 -127 -244 -263 -244s-200 101 -174 239
c26 144 128 237 262 237zM279 412c-55 0 -102 -70 -121 -173c-21 -115 4 -193 60 -193c54 0 105 73 123 181c20 108 -5 185 -62 185z" />
    <glyph glyph-name="otilde" unicode="&#xf5;" horiz-adv-x="498" 
d="M259 644c55 0 88 -42 128 -42c30 0 56 15 78 36c10 -8 19 -19 23 -35c-47 -72 -84 -93 -121 -93c-54 0 -86 44 -133 44c-31 0 -62 -13 -95 -41c-11 11 -17 24 -16 41c58 72 103 90 136 90zM293 467c134 0 199 -95 175 -232c-24 -144 -127 -244 -263 -244
s-200 101 -174 239c26 144 128 237 262 237zM279 412c-55 0 -102 -70 -121 -173c-21 -115 4 -193 60 -193c54 0 105 73 123 181c20 108 -5 185 -62 185z" />
    <glyph glyph-name="odieresis" unicode="&#xf6;" horiz-adv-x="498" 
d="M169 598c6 34 28 53 65 53c42 0 63 -29 54 -72c-10 -36 -32 -57 -66 -57c-41 0 -63 31 -53 76zM464 582c-7 -38 -31 -59 -67 -59c-41 0 -63 28 -55 71c6 37 30 57 70 57c39 0 61 -27 52 -69zM293 467c134 0 199 -95 175 -232c-24 -144 -127 -244 -263 -244
s-200 101 -174 239c26 144 128 237 262 237zM279 412c-55 0 -102 -70 -121 -173c-21 -115 4 -193 60 -193c54 0 105 73 123 181c20 108 -5 185 -62 185z" />
    <glyph glyph-name="divide" unicode="&#xf7;" horiz-adv-x="521" 
d="M304 483c36 0 63 -28 55 -71c-7 -33 -28 -55 -63 -55c-42 0 -68 29 -58 74c5 31 31 52 66 52zM56 292h440c-1 -22 -7 -44 -19 -61c-134 0 -289 0 -438 -4c-1 24 5 48 17 65zM252 165c36 0 64 -27 56 -71c-7 -33 -28 -54 -63 -54c-42 0 -68 28 -58 74c6 30 30 51 65 51z
" />
    <glyph glyph-name="oslash" unicode="&#xf8;" horiz-adv-x="504" 
d="M514 462c-20 -19 -43 -42 -68 -66c26 -41 35 -96 24 -161c-24 -144 -128 -244 -263 -244c-46 0 -83 11 -112 31l-44 -49c-21 0 -43 10 -54 25l60 63c-28 43 -37 101 -24 169c25 144 128 237 262 237c48 0 87 -12 116 -34l48 50c23 1 43 -8 55 -21zM160 239
c-6 -28 -8 -54 -8 -78l188 198c-10 33 -31 53 -60 53c-54 0 -101 -70 -120 -173zM343 227c4 25 7 48 6 70c-62 -65 -128 -136 -187 -201c11 -32 30 -50 57 -50c55 0 105 73 124 181z" />
    <glyph glyph-name="ugrave" unicode="&#xf9;" horiz-adv-x="555" 
d="M297 706c9 -54 22 -111 44 -168c-15 -5 -37 -5 -52 1c-26 52 -65 112 -105 163c33 11 76 14 113 4zM209 467c33 -20 34 -29 -13 -230c-25 -104 -17 -148 17 -148c39 0 124 83 159 268l20 101h119l-48 -249c-24 -127 -24 -137 -3 -137c12 0 24 8 43 27
c11 -10 20 -27 23 -42c-35 -39 -84 -66 -126 -66c-74 0 -90 49 -77 113c3 16 8 32 16 48h-2c-37 -76 -118 -161 -202 -161c-87 0 -91 103 -60 227c37 155 34 159 -33 160c-1 15 1 34 8 48c44 3 122 23 159 41z" />
    <glyph glyph-name="uacute" unicode="&#xfa;" horiz-adv-x="555" 
d="M354 717c47 10 93 6 121 -11c-55 -53 -113 -118 -159 -181c-20 2 -38 9 -52 20c41 65 75 131 90 172zM209 467c33 -20 34 -29 -13 -230c-25 -104 -17 -148 17 -148c39 0 124 83 159 268l20 101h119l-48 -249c-24 -127 -24 -137 -3 -137c12 0 24 8 43 27
c11 -10 20 -27 23 -42c-35 -39 -84 -66 -126 -66c-74 0 -90 49 -77 113c3 16 8 32 16 48h-2c-37 -76 -118 -161 -202 -161c-87 0 -91 103 -60 227c37 155 34 159 -33 160c-1 15 1 34 8 48c44 3 122 23 159 41z" />
    <glyph glyph-name="ucircumflex" unicode="&#xfb;" horiz-adv-x="555" 
d="M330 709c17 2 35 0 51 -7c31 -48 67 -94 110 -143c-9 -15 -27 -27 -47 -30c-37 31 -78 58 -118 80c-47 -24 -98 -54 -139 -84c-15 12 -24 34 -23 52c59 39 118 86 166 132zM209 467c33 -20 34 -29 -13 -230c-25 -104 -17 -148 17 -148c39 0 124 83 159 268l20 101h119
l-48 -249c-24 -127 -24 -137 -3 -137c12 0 24 8 43 27c11 -10 20 -27 23 -42c-35 -39 -84 -66 -126 -66c-74 0 -90 49 -77 113c3 16 8 32 16 48h-2c-37 -76 -118 -161 -202 -161c-87 0 -91 103 -60 227c37 155 34 159 -33 160c-1 15 1 34 8 48c44 3 122 23 159 41z" />
    <glyph glyph-name="udieresis" unicode="&#xfc;" horiz-adv-x="555" 
d="M181 598c6 34 28 53 65 53c42 0 63 -29 54 -72c-10 -36 -32 -57 -66 -57c-41 0 -63 31 -53 76zM476 582c-7 -38 -31 -59 -67 -59c-41 0 -63 28 -55 71c6 37 30 57 70 57c39 0 61 -27 52 -69zM209 467c33 -20 34 -29 -13 -230c-25 -104 -17 -148 17 -148
c39 0 124 83 159 268l20 101h119l-48 -249c-24 -127 -24 -137 -3 -137c12 0 24 8 43 27c11 -10 20 -27 23 -42c-35 -39 -84 -66 -126 -66c-74 0 -90 49 -77 113c3 16 8 32 16 48h-2c-37 -76 -118 -161 -202 -161c-87 0 -91 103 -60 227c37 155 34 159 -33 160
c-1 15 1 34 8 48c44 3 122 23 159 41z" />
    <glyph glyph-name="yacute" unicode="&#xfd;" horiz-adv-x="482" 
d="M426 706c-55 -53 -113 -118 -159 -181c-20 2 -38 9 -52 20c41 65 75 131 90 172c47 10 93 6 121 -11zM410 468c38 -14 55 -44 55 -83c0 -77 -51 -174 -191 -361c-176 -237 -224 -272 -300 -272c-35 0 -68 13 -96 40c-2 23 3 51 11 72c32 -12 69 -18 103 -18
c49 0 86 16 154 97c-10 151 -31 282 -57 374c-13 47 -23 63 -75 60c-1 19 1 35 7 49c38 4 97 25 124 41c30 -10 38 -22 51 -84c24 -112 38 -209 44 -313c80 115 111 196 111 249c0 32 -17 54 -63 58c-4 16 -4 32 -1 48c40 8 100 30 123 43z" />
    <glyph glyph-name="thorn" unicode="&#xfe;" horiz-adv-x="495" 
d="M380 468c88 0 114 -86 88 -220c-30 -146 -132 -256 -279 -256c-17 0 -34 2 -50 5c1 -26 -1 -50 -6 -75l-30 -166h-119l135 770c15 87 13 95 -51 95c0 17 1 34 8 48c46 3 121 23 161 41c22 -12 30 -30 22 -71l-37 -199c-16 -82 -28 -126 -47 -175h2
c40 112 117 203 203 203zM341 206c22 108 10 166 -28 166c-35 0 -113 -84 -150 -249l-15 -63c18 -7 41 -11 61 -11c73 0 113 65 132 157z" />
    <glyph glyph-name="ydieresis" unicode="&#xff;" horiz-adv-x="482" 
d="M185 522c-41 0 -63 31 -53 76c6 34 28 53 65 53c42 0 63 -29 54 -72c-10 -36 -32 -57 -66 -57zM360 523c-41 0 -63 28 -55 71c6 37 30 57 70 57c39 0 61 -27 52 -69c-7 -38 -31 -59 -67 -59zM410 468c38 -14 55 -44 55 -83c0 -77 -51 -174 -191 -361
c-176 -237 -224 -272 -300 -272c-35 0 -68 13 -96 40c-2 23 3 51 11 72c32 -12 69 -18 103 -18c49 0 86 16 154 97c-10 151 -31 282 -57 374c-13 47 -23 63 -75 60c-1 19 1 35 7 49c38 4 97 25 124 41c30 -10 38 -22 51 -84c24 -112 38 -209 44 -313c80 115 111 196 111 249
c0 32 -17 54 -63 58c-4 16 -4 32 -1 48c40 8 100 30 123 43z" />
    <glyph glyph-name="Amacron" unicode="&#x100;" horiz-adv-x="693" 
d="M264 849h352c0 -14 -3 -31 -9 -47c-127 0 -245 -1 -352 -4c0 11 2 37 9 51zM633 50c4 -16 4 -34 2 -53c-35 3 -94 3 -124 3c-34 0 -92 0 -132 -3c1 20 3 38 10 53c57 8 68 24 54 80l-18 74c-81 0 -175 -1 -255 -5l-32 -53c-39 -67 -31 -88 18 -96c3 -17 4 -34 2 -53
c-29 3 -69 3 -101 3c-34 0 -60 0 -87 -3c1 19 3 36 10 53c36 9 55 31 102 108c87 147 179 307 299 518c16 5 33 6 49 6c55 -185 104 -370 142 -532c20 -83 32 -93 61 -100zM202 256h210c-14 55 -28 110 -43 165c-11 34 -18 67 -23 106c-18 -40 -36 -73 -56 -111
c-29 -53 -58 -107 -88 -160z" />
    <glyph glyph-name="amacron" unicode="&#x101;" horiz-adv-x="514" 
d="M164 631h352c0 -14 -3 -31 -9 -47c-127 0 -245 -1 -352 -4c0 11 2 37 9 51zM414 72c15 0 27 7 50 26c10 -10 18 -26 21 -41c-36 -39 -78 -66 -127 -66c-77 0 -81 77 -66 128c5 20 19 52 29 75h-4c-40 -112 -117 -203 -203 -203c-88 0 -114 86 -87 219
c29 147 131 257 278 257c25 0 53 -5 72 -11c27 1 52 5 72 11c16 -10 24 -25 9 -94l-49 -216c-15 -71 -15 -85 5 -85zM181 86c35 0 113 85 150 250l15 63c-18 7 -41 11 -61 11c-73 0 -112 -65 -131 -158c-23 -107 -11 -166 27 -166z" />
    <glyph glyph-name="Abreve" unicode="&#x102;" horiz-adv-x="693" 
d="M418 742c-113 0 -164 61 -142 171c18 8 41 12 60 11c-3 -63 39 -101 109 -101s123 38 139 101c20 1 37 -1 47 -6c-21 -113 -98 -176 -213 -176zM633 50c4 -16 4 -34 2 -53c-35 3 -94 3 -124 3c-34 0 -92 0 -132 -3c1 20 3 38 10 53c57 8 68 24 54 80l-18 74
c-81 0 -175 -1 -255 -5l-32 -53c-39 -67 -31 -88 18 -96c3 -17 4 -34 2 -53c-29 3 -69 3 -101 3c-34 0 -60 0 -87 -3c1 19 3 36 10 53c36 9 55 31 102 108c87 147 179 307 299 518c16 5 33 6 49 6c55 -185 104 -370 142 -532c20 -83 32 -93 61 -100zM202 256h210
c-14 55 -28 110 -43 165c-11 34 -18 67 -23 106c-18 -40 -36 -73 -56 -111c-29 -53 -58 -107 -88 -160z" />
    <glyph glyph-name="abreve" unicode="&#x103;" horiz-adv-x="514" 
d="M318 524c-113 0 -164 61 -142 171c18 8 41 12 60 11c-3 -63 39 -101 109 -101s123 38 139 101c20 1 37 -1 47 -6c-21 -113 -98 -176 -213 -176zM414 72c15 0 27 7 50 26c10 -10 18 -26 21 -41c-36 -39 -78 -66 -127 -66c-77 0 -81 77 -66 128c5 20 19 52 29 75h-4
c-40 -112 -117 -203 -203 -203c-88 0 -114 86 -87 219c29 147 131 257 278 257c25 0 53 -5 72 -11c27 1 52 5 72 11c16 -10 24 -25 9 -94l-49 -216c-15 -71 -15 -85 5 -85zM181 86c35 0 113 85 150 250l15 63c-18 7 -41 11 -61 11c-73 0 -112 -65 -131 -158
c-23 -107 -11 -166 27 -166z" />
    <glyph glyph-name="Aogonek" unicode="&#x104;" horiz-adv-x="693" 
d="M574 0c-71 -33 -102 -69 -107 -102c-3 -27 14 -53 52 -53c11 0 26 2 39 8c8 -13 11 -30 10 -47c-30 -13 -60 -31 -87 -53c-7 -2 -13 -2 -20 -2c-58 0 -114 33 -101 111c8 47 40 94 125 138c-33 0 -75 -1 -106 -3c1 20 3 38 10 53c57 8 68 24 54 80l-18 74
c-81 0 -175 -1 -255 -5l-32 -53c-39 -67 -31 -88 18 -96c3 -17 4 -34 2 -53c-29 3 -69 3 -101 3c-34 0 -60 0 -87 -3c1 19 3 36 10 53c36 9 55 31 102 108c87 147 179 307 299 518c16 5 33 6 49 6c55 -185 104 -370 142 -532c20 -83 32 -93 61 -100c4 -16 4 -34 2 -53
c-17 1 -39 2 -61 3zM202 256h210c-14 55 -28 110 -43 165c-11 34 -18 67 -23 106c-18 -40 -36 -73 -56 -111c-29 -53 -58 -107 -88 -160z" />
    <glyph glyph-name="aogonek" unicode="&#x105;" horiz-adv-x="514" 
d="M485 57c-14 -15 -29 -29 -45 -40c-70 -45 -103 -85 -108 -119c-3 -28 16 -53 52 -53c11 0 26 2 39 8c8 -13 11 -30 10 -47c-30 -13 -60 -31 -87 -53c-7 -2 -13 -2 -20 -2c-58 0 -114 33 -101 111c7 44 36 89 114 131c-59 11 -61 80 -47 126c5 20 19 52 29 75h-4
c-40 -112 -117 -203 -203 -203c-88 0 -114 86 -87 219c29 147 131 257 278 257c25 0 53 -5 72 -11c27 1 52 5 72 11c16 -10 24 -25 9 -94l-49 -216c-15 -71 -15 -85 5 -85c15 0 27 7 50 26c10 -10 18 -26 21 -41zM181 86c35 0 113 85 150 250l15 63c-18 7 -41 11 -61 11
c-73 0 -112 -65 -131 -158c-23 -107 -11 -166 27 -166z" />
    <glyph glyph-name="Cacute" unicode="&#x106;" horiz-adv-x="622" 
d="M507 935c47 10 93 6 121 -11c-55 -53 -113 -118 -159 -181c-20 2 -38 9 -52 20c41 65 75 131 90 172zM665 628c-17 -46 -27 -95 -33 -152c-19 -8 -43 -9 -66 -4c17 133 -30 162 -109 162c-153 0 -246 -136 -266 -297c-19 -149 34 -276 186 -276c65 0 127 19 186 53
c11 -12 17 -28 18 -47c-74 -52 -152 -76 -239 -76c-210 0 -311 150 -283 346c33 242 221 348 392 348c83 0 147 -17 214 -57z" />
    <glyph glyph-name="cacute" unicode="&#x107;" horiz-adv-x="393" 
d="M325 717c47 10 93 6 121 -11c-55 -53 -113 -118 -159 -181c-20 2 -38 9 -52 20c41 65 75 131 90 172zM282 467c38 0 83 -9 107 -25c-13 -35 -21 -74 -22 -111c-15 -6 -36 -9 -56 -7c5 61 -11 87 -49 87c-61 0 -93 -67 -109 -155c-15 -87 -16 -185 68 -185
c40 0 79 21 109 50c12 -12 17 -25 20 -43c-56 -61 -119 -87 -187 -87c-138 0 -157 124 -131 245c27 122 101 231 250 231z" />
    <glyph glyph-name="Ccircumflex" unicode="&#x108;" horiz-adv-x="622" 
d="M483 927c17 2 35 0 51 -7c31 -48 67 -94 110 -143c-9 -15 -27 -27 -47 -30c-37 31 -78 58 -118 80c-47 -24 -98 -54 -139 -84c-15 12 -24 34 -23 52c59 39 118 86 166 132zM665 628c-17 -46 -27 -95 -33 -152c-19 -8 -43 -9 -66 -4c17 133 -30 162 -109 162
c-153 0 -246 -136 -266 -297c-19 -149 34 -276 186 -276c65 0 127 19 186 53c11 -12 17 -28 18 -47c-74 -52 -152 -76 -239 -76c-210 0 -311 150 -283 346c33 242 221 348 392 348c83 0 147 -17 214 -57z" />
    <glyph glyph-name="ccircumflex" unicode="&#x109;" horiz-adv-x="393" 
d="M301 709c17 2 35 0 51 -7c31 -48 67 -94 110 -143c-9 -15 -27 -27 -47 -30c-37 31 -78 58 -118 80c-47 -24 -98 -54 -139 -84c-15 12 -24 34 -23 52c59 39 118 86 166 132zM282 467c38 0 83 -9 107 -25c-13 -35 -21 -74 -22 -111c-15 -6 -36 -9 -56 -7
c5 61 -11 87 -49 87c-61 0 -93 -67 -109 -155c-15 -87 -16 -185 68 -185c40 0 79 21 109 50c12 -12 17 -25 20 -43c-56 -61 -119 -87 -187 -87c-138 0 -157 124 -131 245c27 122 101 231 250 231z" />
    <glyph glyph-name="Cdotaccent" unicode="&#x10a;" horiz-adv-x="622" 
d="M493 877c46 0 70 -28 63 -68c-7 -39 -39 -65 -85 -65c-48 0 -67 27 -62 64c7 43 41 69 84 69zM665 628c-17 -46 -27 -95 -33 -152c-19 -8 -43 -9 -66 -4c17 133 -30 162 -109 162c-153 0 -246 -136 -266 -297c-19 -149 34 -276 186 -276c65 0 127 19 186 53
c11 -12 17 -28 18 -47c-74 -52 -152 -76 -239 -76c-210 0 -311 150 -283 346c33 242 221 348 392 348c83 0 147 -17 214 -57z" />
    <glyph glyph-name="cdotaccent" unicode="&#x10b;" horiz-adv-x="393" 
d="M318 659c40 0 64 -28 55 -71c-7 -41 -37 -66 -82 -66c-40 0 -62 28 -54 70c8 41 39 67 81 67zM282 467c38 0 83 -9 107 -25c-13 -35 -21 -74 -22 -111c-15 -6 -36 -9 -56 -7c5 61 -11 87 -49 87c-61 0 -93 -67 -109 -155c-15 -87 -16 -185 68 -185c40 0 79 21 109 50
c12 -12 17 -25 20 -43c-56 -61 -119 -87 -187 -87c-138 0 -157 124 -131 245c27 122 101 231 250 231z" />
    <glyph glyph-name="Ccaron" unicode="&#x10c;" horiz-adv-x="622" 
d="M628 918c16 -4 28 -17 34 -33c-56 -39 -120 -92 -171 -144c-16 -7 -34 -9 -49 -6c-33 49 -75 106 -120 153c6 20 18 32 39 36c39 -31 87 -65 127 -88c54 25 102 53 140 82zM665 628c-17 -46 -27 -95 -33 -152c-19 -8 -43 -9 -66 -4c17 133 -30 162 -109 162
c-153 0 -246 -136 -266 -297c-19 -149 34 -276 186 -276c65 0 127 19 186 53c11 -12 17 -28 18 -47c-74 -52 -152 -76 -239 -76c-210 0 -311 150 -283 346c33 242 221 348 392 348c83 0 147 -17 214 -57z" />
    <glyph glyph-name="ccaron" unicode="&#x10d;" horiz-adv-x="393" 
d="M445 700c16 -4 28 -17 34 -33c-56 -39 -120 -92 -171 -144c-16 -7 -34 -9 -49 -6c-33 49 -75 106 -120 153c6 20 18 32 39 36c39 -31 87 -65 127 -88c54 25 102 53 140 82zM282 467c38 0 83 -9 107 -25c-13 -35 -21 -74 -22 -111c-15 -6 -36 -9 -56 -7
c5 61 -11 87 -49 87c-61 0 -93 -67 -109 -155c-15 -87 -16 -185 68 -185c40 0 79 21 109 50c12 -12 17 -25 20 -43c-56 -61 -119 -87 -187 -87c-138 0 -157 124 -131 245c27 122 101 231 250 231z" />
    <glyph glyph-name="Dcaron" unicode="&#x10e;" horiz-adv-x="734" 
d="M447 741c-16 -7 -34 -9 -49 -6c-33 49 -75 106 -120 153c6 20 18 32 39 36c39 -31 87 -65 127 -88c54 25 102 53 140 82c16 -4 28 -17 34 -33c-56 -39 -120 -92 -171 -144zM400 679c184 0 371 -63 317 -353c-45 -246 -237 -326 -430 -326h-3c-73 0 -192 0 -263 -3
c1 19 4 37 11 53c57 7 68 23 82 108l67 381c12 71 -6 82 -57 88c-4 18 -4 37 -2 52c44 -2 107 -3 156 -3c39 0 80 3 122 3zM587 327c44 234 -69 300 -204 300c-25 0 -45 -3 -67 -9l-80 -471c-14 -79 -4 -94 68 -94c126 0 243 64 283 274z" />
    <glyph glyph-name="dcaron" unicode="&#x10f;" horiz-adv-x="638" 
d="M661 717c28 -15 33 -54 23 -102c-11 -57 -43 -119 -112 -175c-20 1 -35 11 -42 25c75 74 82 130 11 145c0 26 7 57 20 76c35 2 76 16 100 31zM476 710c23 -12 30 -30 23 -71l-81 -461c-17 -96 -16 -106 0 -106c14 0 27 7 51 26c10 -10 18 -26 22 -41
c-36 -39 -80 -66 -128 -66c-77 0 -82 70 -69 125c5 20 17 56 26 78h-3c-40 -112 -117 -203 -203 -203c-88 0 -114 86 -87 219c29 147 131 257 278 257c15 0 32 -2 46 -5c2 19 4 41 8 64c15 90 13 95 -51 95c-1 16 1 34 8 48c45 3 121 23 160 41zM181 86c35 0 113 85 150 250
l15 63c-18 7 -41 11 -61 11c-73 0 -112 -65 -131 -158c-23 -107 -11 -166 27 -166z" />
    <glyph glyph-name="Dcroat" unicode="&#x110;" horiz-adv-x="734" 
d="M400 679c184 0 371 -63 317 -353c-45 -246 -237 -326 -430 -326h-3c-73 0 -192 0 -263 -3c1 19 4 37 11 53c57 7 68 23 82 108l25 143c-27 0 -51 -1 -67 -2c0 22 3 38 12 55h64l33 185c12 71 -6 82 -57 88c-4 18 -4 37 -2 52c44 -2 107 -3 156 -3c39 0 80 3 122 3z
M587 327c44 234 -69 300 -204 300c-25 0 -45 -3 -67 -9l-45 -264h70c2 -18 0 -36 -8 -52h-71l-26 -155c-14 -79 -4 -94 68 -94c126 0 243 64 283 274z" />
    <glyph glyph-name="dcroat" unicode="&#x111;" horiz-adv-x="519" 
d="M478 518l-60 -340c-17 -96 -16 -106 0 -106c14 0 27 7 51 26c10 -10 18 -26 22 -41c-36 -39 -80 -66 -128 -66c-77 0 -82 70 -69 125c5 20 17 56 26 78h-3c-40 -112 -117 -203 -203 -203c-88 0 -114 86 -87 219c29 147 131 257 278 257c15 0 32 -2 46 -5c1 17 4 35 7 55
l-97 -1c0 18 4 35 10 49h94c7 53 -4 56 -57 56c-1 16 1 34 8 48c45 3 121 23 160 41c23 -12 30 -30 23 -71l-13 -74h64c0 -14 -3 -30 -9 -47h-63zM181 86c35 0 113 85 150 250l15 63c-18 7 -41 11 -61 11c-73 0 -112 -65 -131 -158c-23 -107 -11 -166 27 -166z" />
    <glyph glyph-name="Emacron" unicode="&#x112;" horiz-adv-x="598" 
d="M229 849h352c0 -14 -3 -31 -9 -47c-127 0 -245 -1 -352 -4c0 11 2 37 9 51zM318 623l-43 -254h42c76 0 105 15 115 78c20 4 38 5 60 2c-9 -34 -15 -65 -22 -116c-7 -45 -10 -80 -12 -114c-22 2 -41 5 -57 14c4 59 -14 83 -90 83h-45l-28 -162c-14 -86 -2 -101 69 -101h18
c108 0 140 44 179 132c24 -4 42 -11 59 -27c-20 -43 -40 -101 -51 -161c-59 3 -136 3 -224 3c-89 0 -190 0 -264 -3c0 18 3 35 10 53c58 7 67 23 82 108l64 371c14 75 -1 90 -57 97c-2 17 -3 33 -1 53c73 -3 156 -3 203 -3h2c107 0 187 0 276 3c-7 -51 -11 -118 -7 -168
c-17 -6 -39 -9 -64 -9c-3 82 -15 121 -136 121h-78z" />
    <glyph glyph-name="emacron" unicode="&#x113;" horiz-adv-x="408" 
d="M121 631h352c0 -14 -3 -31 -9 -47c-127 0 -245 -1 -352 -4c0 11 2 37 9 51zM276 467c90 0 129 -56 116 -117c-18 -82 -136 -148 -246 -156c-4 -66 11 -121 73 -121c36 0 73 16 104 49c12 -12 18 -25 20 -44c-47 -52 -105 -87 -185 -87c-133 0 -150 123 -128 234
c32 160 136 242 246 242zM298 340c8 41 -8 70 -42 70c-41 0 -85 -51 -103 -161l-1 -5c75 6 135 40 146 96z" />
    <glyph glyph-name="Edotaccent" unicode="&#x116;" horiz-adv-x="598" 
d="M386 744c-48 0 -67 27 -62 64c7 43 41 69 84 69c46 0 70 -28 63 -68c-7 -39 -39 -65 -85 -65zM318 623l-43 -254h42c76 0 105 15 115 78c20 4 38 5 60 2c-9 -34 -15 -65 -22 -116c-7 -45 -10 -80 -12 -114c-22 2 -41 5 -57 14c4 59 -14 83 -90 83h-45l-28 -162
c-14 -86 -2 -101 69 -101h18c108 0 140 44 179 132c24 -4 42 -11 59 -27c-20 -43 -40 -101 -51 -161c-59 3 -136 3 -224 3c-89 0 -190 0 -264 -3c0 18 3 35 10 53c58 7 67 23 82 108l64 371c14 75 -1 90 -57 97c-2 17 -3 33 -1 53c73 -3 156 -3 203 -3h2c107 0 187 0 276 3
c-7 -51 -11 -118 -7 -168c-17 -6 -39 -9 -64 -9c-3 82 -15 121 -136 121h-78z" />
    <glyph glyph-name="edotaccent" unicode="&#x117;" horiz-adv-x="408" 
d="M281 522c-40 0 -62 28 -54 70c8 41 39 67 81 67c40 0 64 -28 55 -71c-7 -41 -37 -66 -82 -66zM276 467c90 0 129 -56 116 -117c-18 -82 -136 -148 -246 -156c-4 -66 11 -121 73 -121c36 0 73 16 104 49c12 -12 18 -25 20 -44c-47 -52 -105 -87 -185 -87
c-133 0 -150 123 -128 234c32 160 136 242 246 242zM298 340c8 41 -8 70 -42 70c-41 0 -85 -51 -103 -161l-1 -5c75 6 135 40 146 96z" />
    <glyph glyph-name="Eogonek" unicode="&#x118;" horiz-adv-x="598" 
d="M318 623l-43 -254h42c76 0 105 15 115 78c20 4 38 5 60 2c-9 -34 -15 -65 -22 -116c-7 -45 -10 -80 -12 -114c-22 2 -41 5 -57 14c4 59 -14 83 -90 83h-45l-28 -162c-14 -86 -2 -101 69 -101h18c108 0 140 44 179 132c24 -4 42 -11 59 -27c-20 -43 -40 -101 -51 -161
c-24 1 -52 2 -81 2c-71 -32 -102 -68 -107 -101c-3 -27 14 -53 52 -53c11 0 26 2 39 8c8 -13 11 -30 10 -47c-30 -13 -60 -31 -87 -53c-7 -2 -13 -2 -20 -2c-58 0 -114 33 -101 111c8 47 40 94 125 138h-54c-89 0 -190 0 -264 -3c0 18 3 35 10 53c58 7 67 23 82 108l64 371
c14 75 -1 90 -57 97c-2 17 -3 33 -1 53c73 -3 156 -3 203 -3h2c107 0 187 0 276 3c-7 -51 -11 -118 -7 -168c-17 -6 -39 -9 -64 -9c-3 82 -15 121 -136 121h-78z" />
    <glyph glyph-name="eogonek" unicode="&#x119;" horiz-adv-x="409" 
d="M276 467c90 0 129 -56 116 -117c-18 -82 -136 -148 -246 -156c-4 -66 11 -121 73 -121c36 0 73 16 104 49c12 -12 18 -25 20 -44c-18 -20 -38 -38 -61 -52c-68 -52 -89 -83 -95 -116c-7 -50 22 -63 57 -63c13 0 27 2 41 7c6 -12 6 -34 2 -52c-34 -12 -68 -28 -99 -49
c-7 -2 -12 -2 -20 -2c-45 0 -101 28 -90 109c6 43 28 89 93 131h-13c-133 0 -150 123 -128 234c32 160 136 242 246 242zM298 340c8 41 -8 70 -42 70c-41 0 -85 -51 -103 -161l-1 -5c75 6 135 40 146 96z" />
    <glyph glyph-name="Ecaron" unicode="&#x11a;" horiz-adv-x="598" 
d="M407 741c-16 -7 -34 -9 -49 -6c-33 49 -75 106 -120 153c6 20 18 32 39 36c39 -31 87 -65 127 -88c54 25 102 53 140 82c16 -4 28 -17 34 -33c-56 -39 -120 -92 -171 -144zM318 623l-43 -254h42c76 0 105 15 115 78c20 4 38 5 60 2c-9 -34 -15 -65 -22 -116
c-7 -45 -10 -80 -12 -114c-22 2 -41 5 -57 14c4 59 -14 83 -90 83h-45l-28 -162c-14 -86 -2 -101 69 -101h18c108 0 140 44 179 132c24 -4 42 -11 59 -27c-20 -43 -40 -101 -51 -161c-59 3 -136 3 -224 3c-89 0 -190 0 -264 -3c0 18 3 35 10 53c58 7 67 23 82 108l64 371
c14 75 -1 90 -57 97c-2 17 -3 33 -1 53c73 -3 156 -3 203 -3h2c107 0 187 0 276 3c-7 -51 -11 -118 -7 -168c-17 -6 -39 -9 -64 -9c-3 82 -15 121 -136 121h-78z" />
    <glyph glyph-name="ecaron" unicode="&#x11b;" horiz-adv-x="408" 
d="M299 523c-16 -7 -34 -9 -49 -6c-33 49 -75 106 -120 153c6 20 18 32 39 36c39 -31 87 -65 127 -88c54 25 102 53 140 82c16 -4 28 -17 34 -33c-56 -39 -120 -92 -171 -144zM276 467c90 0 129 -56 116 -117c-18 -82 -136 -148 -246 -156c-4 -66 11 -121 73 -121
c36 0 73 16 104 49c12 -12 18 -25 20 -44c-47 -52 -105 -87 -185 -87c-133 0 -150 123 -128 234c32 160 136 242 246 242zM298 340c8 41 -8 70 -42 70c-41 0 -85 -51 -103 -161l-1 -5c75 6 135 40 146 96z" />
    <glyph glyph-name="Gcircumflex" unicode="&#x11c;" horiz-adv-x="684" 
d="M489 927c17 2 35 0 51 -7c31 -48 67 -94 110 -143c-9 -15 -27 -27 -47 -30c-37 31 -78 58 -118 80c-47 -24 -98 -54 -139 -84c-15 12 -24 34 -23 52c59 39 118 86 166 132zM460 685c99 0 170 -18 231 -57c-16 -45 -26 -95 -33 -151c-21 -9 -43 -9 -67 -4
c14 134 -35 161 -126 161c-159 0 -253 -128 -274 -297c-19 -151 23 -288 167 -288c35 0 59 3 87 14c26 11 32 24 44 89c19 106 10 118 -60 124c-3 16 -3 36 -1 53c46 -3 89 -3 131 -3c44 0 75 0 128 3c-1 -20 -4 -37 -11 -53c-40 -5 -50 -13 -69 -122c-9 -48 -10 -68 -2 -91
c-65 -41 -162 -72 -271 -72c-203 0 -305 145 -276 347c35 243 221 347 402 347z" />
    <glyph glyph-name="gcircumflex" unicode="&#x11d;" horiz-adv-x="484" 
d="M369 702c31 -48 67 -94 110 -143c-9 -15 -27 -27 -47 -30c-37 31 -78 58 -118 80c-47 -24 -98 -54 -139 -84c-15 12 -24 34 -23 52c59 39 118 86 166 132c17 2 35 0 51 -7zM442 467c16 -10 22 -24 15 -64l-50 -285c-37 -208 -128 -366 -273 -366c-54 0 -98 18 -138 49
c-2 25 3 53 12 73c53 -20 119 -31 171 -31c53 0 65 11 92 190c6 38 21 88 41 142l7 19h-2c-40 -112 -117 -203 -203 -203c-88 0 -114 86 -87 219c29 147 131 257 278 257c26 0 53 -5 73 -12c28 2 49 6 64 12zM181 86c35 0 113 85 150 250l15 63c-18 7 -41 11 -61 11
c-73 0 -112 -65 -131 -158c-23 -107 -11 -166 27 -166z" />
    <glyph glyph-name="Gbreve" unicode="&#x11e;" horiz-adv-x="684" 
d="M685 918c-21 -113 -98 -176 -213 -176c-113 0 -164 61 -142 171c18 8 41 12 60 11c-3 -63 39 -101 109 -101s123 38 139 101c20 1 37 -1 47 -6zM460 685c99 0 170 -18 231 -57c-16 -45 -26 -95 -33 -151c-21 -9 -43 -9 -67 -4c14 134 -35 161 -126 161
c-159 0 -253 -128 -274 -297c-19 -151 23 -288 167 -288c35 0 59 3 87 14c26 11 32 24 44 89c19 106 10 118 -60 124c-3 16 -3 36 -1 53c46 -3 89 -3 131 -3c44 0 75 0 128 3c-1 -20 -4 -37 -11 -53c-40 -5 -50 -13 -69 -122c-9 -48 -10 -68 -2 -91
c-65 -41 -162 -72 -271 -72c-203 0 -305 145 -276 347c35 243 221 347 402 347z" />
    <glyph glyph-name="gbreve" unicode="&#x11f;" horiz-adv-x="484" 
d="M301 524c-113 0 -164 61 -142 171c18 8 41 12 60 11c-3 -63 39 -101 109 -101s123 38 139 101c20 1 37 -1 47 -6c-21 -113 -98 -176 -213 -176zM442 467c16 -10 22 -24 15 -64l-50 -285c-37 -208 -128 -366 -273 -366c-54 0 -98 18 -138 49c-2 25 3 53 12 73
c53 -20 119 -31 171 -31c53 0 65 11 92 190c6 38 21 88 41 142l7 19h-2c-40 -112 -117 -203 -203 -203c-88 0 -114 86 -87 219c29 147 131 257 278 257c26 0 53 -5 73 -12c28 2 49 6 64 12zM181 86c35 0 113 85 150 250l15 63c-18 7 -41 11 -61 11c-73 0 -112 -65 -131 -158
c-23 -107 -11 -166 27 -166z" />
    <glyph glyph-name="Gdotaccent" unicode="&#x120;" horiz-adv-x="684" 
d="M498 877c46 0 70 -28 63 -68c-7 -39 -39 -65 -85 -65c-48 0 -67 27 -62 64c7 43 41 69 84 69zM460 685c99 0 170 -18 231 -57c-16 -45 -26 -95 -33 -151c-21 -9 -43 -9 -67 -4c14 134 -35 161 -126 161c-159 0 -253 -128 -274 -297c-19 -151 23 -288 167 -288
c35 0 59 3 87 14c26 11 32 24 44 89c19 106 10 118 -60 124c-3 16 -3 36 -1 53c46 -3 89 -3 131 -3c44 0 75 0 128 3c-1 -20 -4 -37 -11 -53c-40 -5 -50 -13 -69 -122c-9 -48 -10 -68 -2 -91c-65 -41 -162 -72 -271 -72c-203 0 -305 145 -276 347c35 243 221 347 402 347z
" />
    <glyph glyph-name="gdotaccent" unicode="&#x121;" horiz-adv-x="484" 
d="M308 522c-40 0 -62 28 -54 70c8 41 39 67 81 67c40 0 64 -28 55 -71c-7 -41 -37 -66 -82 -66zM442 467c16 -10 22 -24 15 -64l-50 -285c-37 -208 -128 -366 -273 -366c-54 0 -98 18 -138 49c-2 25 3 53 12 73c53 -20 119 -31 171 -31c53 0 65 11 92 190
c6 38 21 88 41 142l7 19h-2c-40 -112 -117 -203 -203 -203c-88 0 -114 86 -87 219c29 147 131 257 278 257c26 0 53 -5 73 -12c28 2 49 6 64 12zM181 86c35 0 113 85 150 250l15 63c-18 7 -41 11 -61 11c-73 0 -112 -65 -131 -158c-23 -107 -11 -166 27 -166z" />
    <glyph glyph-name="Gcommaaccent" unicode="&#x122;" horiz-adv-x="684" 
d="M460 685c99 0 170 -18 231 -57c-16 -45 -26 -95 -33 -151c-21 -9 -43 -9 -67 -4c14 134 -35 161 -126 161c-159 0 -253 -128 -274 -297c-19 -151 23 -288 167 -288c35 0 59 3 87 14c26 11 32 24 44 89c19 106 10 118 -60 124c-3 16 -3 36 -1 53c46 -3 89 -3 131 -3
c44 0 75 0 128 3c-1 -20 -4 -37 -11 -53c-40 -5 -50 -13 -69 -122c-9 -48 -10 -68 -2 -91c-65 -41 -162 -72 -271 -72c-203 0 -305 145 -276 347c35 243 221 347 402 347zM374 -41c26 -10 34 -34 28 -72c-12 -74 -70 -134 -136 -177c-16 5 -28 13 -33 27c35 28 57 59 61 83
c3 22 -9 35 -39 38c-1 26 7 51 21 70c37 5 71 15 98 31z" />
    <glyph glyph-name="gcommaaccent" unicode="&#x123;" horiz-adv-x="484" 
d="M266 509c-26 8 -34 37 -27 70c12 56 70 111 135 150c16 -5 28 -13 33 -27c-35 -25 -56 -52 -60 -66c-3 -14 4 -28 38 -30c0 -24 -7 -48 -21 -67c-37 -4 -71 -15 -98 -30zM442 467c16 -10 22 -24 15 -64l-50 -285c-37 -208 -128 -366 -273 -366c-54 0 -98 18 -138 49
c-2 25 3 53 12 73c53 -20 119 -31 171 -31c53 0 65 11 92 190c6 38 21 88 41 142l7 19h-2c-40 -112 -117 -203 -203 -203c-88 0 -114 86 -87 219c29 147 131 257 278 257c26 0 53 -5 73 -12c28 2 49 6 64 12zM181 86c35 0 113 85 150 250l15 63c-18 7 -41 11 -61 11
c-73 0 -112 -65 -131 -158c-23 -107 -11 -166 27 -166z" />
    <glyph glyph-name="Hcircumflex" unicode="&#x124;" horiz-adv-x="771" 
d="M339 743c-15 12 -24 34 -23 52c59 39 118 86 166 132c17 2 35 0 51 -7c31 -48 67 -94 110 -143c-9 -15 -27 -27 -47 -30c-37 31 -78 58 -118 80c-47 -24 -98 -54 -139 -84zM654 676c45 0 91 1 136 3c-1 -18 -3 -36 -11 -53c-52 -8 -64 -21 -78 -96l-67 -388
c-13 -72 -2 -85 55 -92c3 -16 4 -34 2 -53c-45 2 -87 3 -133 3c-49 0 -99 -1 -136 -3c1 20 4 37 11 53c53 6 65 19 78 91l30 176c-79 0 -196 -1 -276 -5l-29 -170c-13 -72 -2 -85 54 -92c4 -16 5 -34 2 -53c-44 2 -86 3 -132 3c-49 0 -99 -1 -136 -3c1 20 4 37 11 53
c52 6 65 19 77 91l68 395c13 70 -1 83 -57 90c-2 16 -3 34 -1 53c41 -2 85 -3 134 -3c45 0 90 1 136 3c-1 -18 -4 -36 -11 -53c-52 -8 -64 -21 -78 -96l-27 -159h275l28 165c12 70 -2 83 -57 90c-3 16 -4 34 -1 53c40 -2 84 -3 133 -3z" />
    <glyph glyph-name="hcircumflex" unicode="&#x125;" horiz-adv-x="546" 
d="M191 743c-15 12 -24 34 -23 52c59 39 118 86 166 132c17 2 35 0 51 -7c31 -48 67 -94 110 -143c-9 -15 -27 -27 -47 -30c-37 31 -78 58 -118 80c-47 -24 -98 -54 -139 -84zM494 98c11 -11 19 -26 22 -42c-44 -44 -86 -65 -128 -65c-89 0 -85 66 -62 167l23 104
c20 85 8 111 -16 111c-48 0 -137 -99 -168 -265l-19 -108h-119l92 526c16 87 13 95 -51 95c-1 16 2 35 8 48c52 5 116 21 161 41c22 -12 29 -30 22 -71c-42 -237 -54 -281 -84 -376h2l23 48c34 72 119 156 195 156c55 0 114 -41 78 -194l-26 -111c-20 -85 -18 -90 -2 -90
c12 0 33 11 49 26z" />
    <glyph glyph-name="Hbar" unicode="&#x126;" horiz-adv-x="771" 
d="M779 626c-52 -8 -64 -21 -78 -96l-6 -34h62c0 -19 -3 -35 -10 -52h-61l-52 -302c-13 -72 -2 -85 55 -92c3 -16 4 -34 2 -53c-45 2 -87 3 -133 3c-49 0 -99 -1 -136 -3c1 20 4 37 11 53c53 6 65 19 78 91l30 176c-79 0 -196 -1 -276 -5l-29 -170c-13 -72 -2 -85 54 -92
c4 -16 5 -34 2 -53c-44 2 -86 3 -132 3c-49 0 -99 -1 -136 -3c1 20 4 37 11 53c52 6 65 19 77 91l52 300l-61 -1c0 16 4 42 11 56h59l7 40c13 70 -1 83 -57 90c-2 16 -3 34 -1 53c41 -2 85 -3 134 -3c45 0 90 1 136 3c-1 -18 -4 -36 -11 -53c-52 -8 -64 -21 -78 -96l-6 -34
h275l7 40c12 70 -2 83 -57 90c-3 16 -4 34 -1 53c40 -2 84 -3 133 -3c45 0 91 1 136 3c-1 -18 -3 -36 -11 -53zM551 371l13 73c-84 0 -182 -1 -276 -2l-12 -71h275z" />
    <glyph glyph-name="hbar" unicode="&#x127;" horiz-adv-x="551" 
d="M500 98c11 -11 19 -26 22 -42c-44 -44 -86 -65 -128 -65c-90 0 -86 66 -63 167l23 104c20 85 8 111 -16 111c-48 0 -137 -99 -167 -265v3l-20 -111h-119l89 501l-69 -2c0 19 3 39 11 58h67c8 58 -2 64 -57 64c-1 16 2 35 8 48c52 5 117 21 161 41c22 -12 29 -30 22 -71
l-15 -82h90c0 -18 -3 -36 -9 -54h-91c-23 -124 -35 -167 -58 -240h1l23 48c35 72 119 156 195 156c56 0 114 -41 79 -194l-27 -111c-19 -85 -18 -90 -2 -90c12 0 33 11 50 26z" />
    <glyph glyph-name="Imacron" unicode="&#x12a;" horiz-adv-x="373" 
d="M114 849h352c0 -14 -3 -31 -9 -47c-127 0 -245 -1 -352 -4c0 11 2 37 9 51zM112 141l68 395c13 70 -1 83 -57 90c-2 16 -3 34 -1 53c41 -2 85 -3 134 -3c45 0 90 1 136 3c-1 -18 -4 -36 -11 -53c-52 -8 -64 -21 -78 -96l-67 -388c-13 -72 -2 -85 54 -92
c4 -16 5 -34 2 -53c-44 2 -86 3 -132 3c-49 0 -99 -1 -136 -3c1 20 4 37 11 53c52 6 65 19 77 91z" />
    <glyph glyph-name="imacron" unicode="&#x12b;" horiz-adv-x="275" 
d="M30 631h352c0 -14 -3 -31 -9 -47c-127 0 -245 -1 -352 -4c0 11 2 37 9 51zM193 467c38 -17 49 -50 29 -125l-49 -191c-18 -66 -14 -78 4 -78c12 0 28 7 47 25c10 -9 19 -25 21 -42c-40 -42 -84 -65 -127 -65c-80 0 -92 62 -68 154l35 129c25 93 22 104 -43 104
c-1 17 1 34 8 48c45 3 107 23 143 41z" />
    <glyph glyph-name="Iogonek" unicode="&#x12e;" horiz-adv-x="373" 
d="M256 676c45 0 90 1 136 3c-1 -18 -4 -36 -11 -53c-52 -8 -64 -21 -78 -96l-67 -388c-13 -72 -2 -85 54 -92c4 -16 5 -34 2 -53l-61 2c-71 -33 -101 -68 -106 -101c-3 -27 14 -53 52 -53c11 0 26 2 39 8c8 -13 11 -30 10 -47c-30 -13 -60 -31 -87 -53c-7 -2 -13 -2 -20 -2
c-58 0 -114 33 -101 111c8 47 40 94 125 138c-43 0 -86 -1 -119 -3c1 20 4 37 11 53c52 6 65 19 77 91l68 395c13 70 -1 83 -57 90c-2 16 -3 34 -1 53c41 -2 85 -3 134 -3z" />
    <glyph glyph-name="iogonek" unicode="&#x12f;" horiz-adv-x="275" 
d="M210 659c46 0 70 -28 63 -68c-7 -39 -39 -65 -85 -65c-48 0 -67 27 -62 64c7 43 41 69 84 69zM224 98c10 -9 19 -25 21 -42c-15 -16 -30 -29 -46 -39h1c-70 -45 -103 -85 -108 -119c-3 -28 16 -53 52 -53c11 0 26 2 39 8c8 -13 11 -30 10 -47c-30 -13 -60 -31 -87 -53
c-7 -2 -13 -2 -20 -2c-58 0 -114 33 -101 111c7 44 36 88 114 130c-63 10 -71 69 -49 153l35 129c25 93 22 104 -43 104c-1 17 1 34 8 48c45 3 107 23 143 41c38 -17 49 -50 29 -125l-49 -191c-18 -66 -14 -78 4 -78c12 0 28 7 47 25z" />
    <glyph glyph-name="Idotaccent" unicode="&#x130;" horiz-adv-x="373" 
d="M294 877c46 0 70 -28 63 -68c-7 -39 -39 -65 -85 -65c-48 0 -67 27 -62 64c7 43 41 69 84 69zM112 141l68 395c13 70 -1 83 -57 90c-2 16 -3 34 -1 53c41 -2 85 -3 134 -3c45 0 90 1 136 3c-1 -18 -4 -36 -11 -53c-52 -8 -64 -21 -78 -96l-67 -388c-13 -72 -2 -85 54 -92
c4 -16 5 -34 2 -53c-44 2 -86 3 -132 3c-49 0 -99 -1 -136 -3c1 20 4 37 11 53c52 6 65 19 77 91z" />
    <glyph glyph-name="dotlessi" unicode="&#x131;" horiz-adv-x="275" 
d="M193 467c38 -17 49 -50 29 -125l-49 -191c-18 -66 -14 -78 4 -78c12 0 28 7 47 25c10 -9 19 -25 21 -42c-40 -42 -84 -65 -127 -65c-80 0 -92 62 -68 154l35 129c25 93 22 104 -43 104c-1 17 1 34 8 48c45 3 107 23 143 41z" />
    <glyph glyph-name="IJ" unicode="&#x132;" horiz-adv-x="693" 
d="M112 141l68 395c13 70 -1 83 -57 90c-2 16 -3 34 -1 53c41 -2 85 -3 134 -3c45 0 90 1 136 3c-1 -18 -4 -36 -11 -53c-52 -8 -64 -21 -78 -96l-67 -388c-13 -72 -2 -85 54 -92c4 -16 5 -34 2 -53c-44 2 -86 3 -132 3c-49 0 -99 -1 -136 -3c1 20 4 37 11 53
c52 6 65 19 77 91zM473 679c34 -3 84 -3 132 -3c56 0 92 0 138 3c-1 -20 -4 -38 -9 -53c-54 -7 -67 -21 -81 -100l-71 -405c-32 -185 -74 -282 -274 -369c-14 11 -18 29 -20 49c83 52 135 117 158 247l85 490c12 65 3 81 -56 88c-5 17 -4 34 -2 53z" />
    <glyph glyph-name="ij" unicode="&#x133;" horiz-adv-x="493" 
d="M204 557c-37 0 -59 26 -54 66c6 39 37 63 78 63c37 0 60 -26 53 -67c-6 -38 -33 -62 -77 -62zM435 686c39 0 63 -26 57 -67c-7 -38 -35 -62 -75 -62c-41 0 -63 26 -56 66c6 39 35 63 74 63zM359 458h120l-69 -370c-34 -183 -109 -272 -266 -336c-13 11 -19 25 -20 46
c92 61 140 140 161 253c7 41 13 71 26 102l-3 2c-39 -88 -126 -164 -195 -164c-72 0 -87 61 -63 154l35 129c25 93 22 104 -43 104c-1 17 1 34 8 48c45 3 107 23 143 41c38 -17 49 -50 29 -125l-44 -163c-18 -74 -13 -90 7 -90c43 0 125 106 148 230l-1 -6z" />
    <glyph glyph-name="Jcircumflex" unicode="&#x134;" horiz-adv-x="328" 
d="M264 927c17 2 35 0 51 -7c31 -48 67 -94 110 -143c-9 -15 -27 -27 -47 -30c-37 31 -78 58 -118 80c-47 -24 -98 -54 -139 -84c-15 12 -24 34 -23 52c59 39 118 86 166 132zM108 679c34 -3 84 -3 132 -3c56 0 92 0 138 3c-1 -20 -4 -38 -9 -53c-54 -7 -67 -21 -81 -100
l-71 -405c-32 -185 -74 -282 -274 -369c-14 11 -18 29 -20 49c83 52 135 117 158 247l85 490c12 65 3 81 -56 88c-5 17 -4 34 -2 53z" />
    <glyph glyph-name="jcircumflex" unicode="&#x135;" horiz-adv-x="254" 
d="M200 709c17 2 35 0 51 -7c31 -48 67 -94 110 -143c-9 -15 -27 -27 -47 -30c-37 31 -78 58 -118 80c-47 -24 -98 -54 -139 -84c-15 12 -24 34 -23 52c59 39 118 86 166 132zM46 426c46 3 114 23 149 41c32 -18 42 -34 23 -131l-45 -248c-34 -182 -109 -272 -267 -336
c-12 11 -18 25 -19 46c88 58 139 138 160 253l46 249c11 64 8 78 -55 78c-1 16 1 33 8 48z" />
    <glyph glyph-name="Kcommaaccent" unicode="&#x136;" horiz-adv-x="680" 
d="M705 626c-55 -7 -82 -19 -157 -87l-178 -163c56 -57 101 -127 147 -229c20 -47 36 -60 58 -60c14 0 24 4 38 15c13 -9 24 -25 30 -41c-38 -45 -79 -70 -134 -70c-53 1 -84 28 -109 96c-39 107 -78 179 -132 243l-32 -189c-13 -71 -3 -85 44 -91c4 -16 5 -34 2 -53
c-44 2 -76 3 -122 3c-49 0 -99 -1 -136 -3c1 20 4 37 11 53c55 5 65 23 78 96l67 390c13 70 -1 83 -57 90c-2 16 -3 34 -1 53c41 -2 85 -3 134 -3c45 0 90 1 136 3c-1 -18 -4 -36 -11 -53c-52 -8 -64 -21 -78 -96l-28 -165l187 173c69 65 68 81 31 88c-3 17 -5 35 -3 53
c40 -3 73 -3 114 -3c39 0 74 0 109 3c0 -16 -1 -37 -8 -53zM387 -41c26 -10 34 -34 28 -72c-12 -74 -70 -134 -136 -177c-16 5 -28 13 -33 27c35 28 57 59 61 83c3 22 -9 35 -39 38c-1 26 7 51 21 70c37 5 71 15 98 31z" />
    <glyph glyph-name="kcommaaccent" unicode="&#x137;" horiz-adv-x="498" 
d="M474 358c-13 -68 -79 -113 -184 -149c17 -21 32 -45 57 -90c19 -36 30 -44 47 -44c15 0 26 7 44 24c10 -10 20 -26 22 -42c-34 -36 -76 -66 -127 -66c-56 0 -76 35 -101 90c-17 37 -34 67 -54 99c-1 -11 -3 -23 -5 -34l-27 -146h-119l92 526c15 87 13 95 -51 95
c-1 16 2 35 8 48c52 5 116 21 161 41c24 -13 29 -31 22 -71c-37 -209 -43 -231 -78 -336h1c41 95 108 164 194 164c69 0 109 -46 98 -109zM354 331c6 33 -8 56 -38 56c-46 0 -109 -70 -134 -169c102 23 162 57 172 113zM232 -41c26 -10 34 -34 28 -72
c-12 -74 -70 -134 -136 -177c-16 5 -28 13 -33 27c35 28 57 59 61 83c3 22 -9 35 -39 38c-1 26 7 51 21 70c37 5 71 15 98 31z" />
    <glyph glyph-name="Lacute" unicode="&#x139;" horiz-adv-x="571" 
d="M317 935c47 10 93 6 121 -11c-55 -53 -113 -118 -159 -181c-20 2 -38 9 -52 20c41 65 75 131 90 172zM303 53h9c99 0 136 39 179 134c24 -5 43 -13 60 -29c-21 -41 -40 -100 -51 -161c-47 3 -137 3 -211 3c-76 0 -199 0 -268 -3c1 19 4 35 10 53c59 5 68 23 82 108
l67 381c12 67 -3 80 -56 87c-3 16 -3 35 -2 53c41 -3 85 -3 134 -3c44 0 100 0 145 2c0 -18 -3 -37 -10 -52c-64 -7 -77 -23 -90 -102l-66 -377c-14 -79 -3 -94 68 -94z" />
    <glyph glyph-name="lacute" unicode="&#x13a;" horiz-adv-x="277" 
d="M265 967c47 10 93 6 121 -11c-55 -53 -113 -118 -159 -181c-20 2 -38 9 -52 20c41 65 75 131 90 172zM178 213c-24 -122 -17 -140 2 -140c12 0 26 7 46 25c11 -10 19 -26 22 -40c-35 -40 -84 -67 -127 -67c-58 0 -82 32 -80 87c0 46 7 87 78 448c17 86 13 95 -51 95
c0 17 1 34 8 48c46 3 121 23 161 41c22 -12 29 -30 22 -71c-27 -149 -54 -292 -81 -426z" />
    <glyph glyph-name="Lcommaaccent" unicode="&#x13b;" horiz-adv-x="571" 
d="M303 53h9c99 0 136 39 179 134c24 -5 43 -13 60 -29c-21 -41 -40 -100 -51 -161c-47 3 -137 3 -211 3c-76 0 -199 0 -268 -3c1 19 4 35 10 53c59 5 68 23 82 108l67 381c12 67 -3 80 -56 87c-3 16 -3 35 -2 53c41 -3 85 -3 134 -3c44 0 100 0 145 2c0 -18 -3 -37 -10 -52
c-64 -7 -77 -23 -90 -102l-66 -377c-14 -79 -3 -94 68 -94zM284 -41c26 -10 34 -34 28 -72c-12 -74 -70 -134 -136 -177c-16 5 -28 13 -33 27c35 28 57 59 61 83c3 22 -9 35 -39 38c-1 26 7 51 21 70c37 5 71 15 98 31z" />
    <glyph glyph-name="lcommaaccent" unicode="&#x13c;" horiz-adv-x="277" 
d="M178 213c-24 -122 -17 -140 2 -140c12 0 26 7 46 25c11 -10 19 -26 22 -40c-35 -40 -84 -67 -127 -67c-58 0 -82 32 -80 87c0 46 7 87 78 448c17 86 13 95 -51 95c0 17 1 34 8 48c46 3 121 23 161 41c22 -12 29 -30 22 -71c-27 -149 -54 -292 -81 -426zM174 -41
c26 -10 34 -34 28 -72c-12 -74 -70 -134 -136 -177c-16 5 -28 13 -33 27c35 28 57 59 61 83c3 22 -9 35 -39 38c-1 26 7 51 21 70c37 5 71 15 98 31z" />
    <glyph glyph-name="Lcaron" unicode="&#x13d;" horiz-adv-x="571" 
d="M578 733c24 -13 35 -43 23 -102c-14 -75 -68 -152 -137 -206c-20 1 -34 11 -42 26c80 74 123 157 35 175c0 26 7 57 20 76c35 2 77 16 101 31zM303 53h9c99 0 136 39 179 134c24 -5 43 -13 60 -29c-21 -41 -40 -100 -51 -161c-47 3 -137 3 -211 3c-76 0 -199 0 -268 -3
c1 19 4 35 10 53c59 5 68 23 82 108l67 381c12 67 -3 80 -56 87c-3 16 -3 35 -2 53c41 -3 85 -3 134 -3c44 0 100 0 145 2c0 -18 -3 -37 -10 -52c-64 -7 -77 -23 -90 -102l-66 -377c-14 -79 -3 -94 68 -94z" />
    <glyph glyph-name="lcaron" unicode="&#x13e;" horiz-adv-x="392" 
d="M408 717c28 -15 33 -54 23 -102c-11 -57 -43 -119 -112 -175c-20 1 -35 11 -42 25c75 74 82 130 11 145c0 26 7 57 20 76c35 2 76 16 100 31zM178 213c-24 -122 -17 -140 2 -140c12 0 26 7 46 25c11 -10 19 -26 22 -40c-35 -40 -84 -67 -127 -67c-58 0 -82 32 -80 87
c0 46 7 87 78 448c17 86 13 95 -51 95c0 17 1 34 8 48c46 3 121 23 161 41c22 -12 29 -30 22 -71c-27 -149 -54 -292 -81 -426z" />
    <glyph glyph-name="Ldot" unicode="&#x13f;" horiz-adv-x="571" 
d="M303 53h9c99 0 136 39 179 134c24 -5 43 -13 60 -29c-21 -41 -40 -100 -51 -161c-47 3 -137 3 -211 3c-76 0 -199 0 -268 -3c1 19 4 35 10 53c59 5 68 23 82 108l67 381c12 67 -3 80 -56 87c-3 16 -3 35 -2 53c41 -3 85 -3 134 -3c44 0 100 0 145 2c0 -18 -3 -37 -10 -52
c-64 -7 -77 -23 -90 -102l-66 -377c-14 -79 -3 -94 68 -94zM503 433c38 0 70 -31 61 -79c-7 -36 -31 -58 -69 -58c-47 0 -75 31 -64 80c6 34 33 57 72 57z" />
    <glyph glyph-name="ldot" unicode="&#x140;" horiz-adv-x="375" 
d="M178 213c-24 -122 -17 -140 2 -140c12 0 26 7 46 25c11 -10 19 -26 22 -40c-35 -40 -84 -67 -127 -67c-58 0 -82 32 -80 87c0 46 7 87 78 448c17 86 13 95 -51 95c0 17 1 34 8 48c46 3 121 23 161 41c22 -12 29 -30 22 -71c-27 -149 -54 -292 -81 -426zM338 423
c38 0 70 -31 61 -79c-7 -36 -31 -58 -69 -58c-47 0 -75 31 -64 80c6 34 33 57 72 57z" />
    <glyph glyph-name="Lslash" unicode="&#x141;" horiz-adv-x="571" 
d="M491 187c24 -5 43 -13 60 -29c-21 -41 -40 -100 -51 -161c-47 3 -137 3 -211 3c-76 0 -199 0 -268 -3c1 19 4 35 10 53c59 5 68 23 82 108l16 90l-47 -42c-16 12 -27 33 -27 52l89 79l36 202c12 67 -3 80 -56 87c-3 16 -3 35 -2 53c41 -3 85 -3 134 -3c44 0 100 0 145 2
c0 -18 -3 -37 -10 -52c-64 -7 -77 -23 -90 -102l-15 -86l70 61c14 -9 25 -31 25 -49l-110 -99l-36 -204c-14 -79 -3 -94 68 -94h9c99 0 136 39 179 134z" />
    <glyph glyph-name="lslash" unicode="&#x142;" horiz-adv-x="277" 
d="M226 98c11 -10 19 -26 22 -40c-35 -40 -84 -67 -127 -67c-58 0 -82 32 -80 87c0 30 3 58 25 174l-52 -46c-16 12 -27 33 -27 52l96 85l36 183c17 86 13 95 -51 95c0 17 1 34 8 48c46 3 121 23 161 41c22 -12 29 -30 22 -71l-36 -197l65 57c14 -9 25 -31 25 -49l-107 -96
l-28 -141c-24 -122 -17 -140 2 -140c12 0 26 7 46 25z" />
    <glyph glyph-name="Nacute" unicode="&#x143;" horiz-adv-x="685" 
d="M608 924c-55 -53 -113 -118 -159 -181c-20 2 -38 9 -52 20c41 65 75 131 90 172c47 10 93 6 121 -11zM630 676c32 0 74 0 105 3c0 -16 -4 -38 -10 -53c-47 -13 -61 -40 -79 -146l-84 -483c-15 -5 -34 -6 -55 -6c-88 177 -178 345 -274 517l-55 -316
c-18 -106 -10 -130 55 -142c4 -16 4 -33 2 -53c-42 3 -84 3 -112 3c-33 0 -61 0 -104 -3c1 19 4 37 9 53c52 10 74 36 91 135l70 400l-5 10c-13 24 -25 28 -60 31c-4 16 -4 34 -2 53c26 -2 52 -3 79 -3c30 0 60 1 82 3c89 -154 177 -321 257 -480l49 289
c17 104 6 126 -57 138c-2 16 -3 34 -1 53c34 -3 72 -3 99 -3z" />
    <glyph glyph-name="nacute" unicode="&#x144;" horiz-adv-x="560" 
d="M491 706c-55 -53 -113 -118 -159 -181c-20 2 -38 9 -52 20c41 65 75 131 90 172c47 10 93 6 121 -11zM509 98c11 -11 19 -26 22 -42c-44 -44 -86 -65 -129 -65c-89 0 -85 66 -62 167l23 104c20 85 8 111 -16 111c-48 0 -137 -99 -168 -265l-20 -108h-119l53 283
c16 87 13 95 -51 95c0 17 1 35 8 48c45 3 122 23 161 41c22 -9 29 -30 24 -65c-10 -53 -21 -86 -37 -125l16 34c34 72 119 156 195 156c56 0 114 -41 79 -194l-27 -111c-19 -85 -18 -90 -2 -90c12 0 33 11 50 26z" />
    <glyph glyph-name="Ncommaaccent" unicode="&#x145;" horiz-adv-x="685" 
d="M630 676c32 0 74 0 105 3c0 -16 -4 -38 -10 -53c-47 -13 -61 -40 -79 -146l-84 -483c-15 -5 -34 -6 -55 -6c-88 177 -178 345 -274 517l-55 -316c-18 -106 -10 -130 55 -142c4 -16 4 -33 2 -53c-42 3 -84 3 -112 3c-33 0 -61 0 -104 -3c1 19 4 37 9 53
c52 10 74 36 91 135l70 400l-5 10c-13 24 -25 28 -60 31c-4 16 -4 34 -2 53c26 -2 52 -3 79 -3c30 0 60 1 82 3c89 -154 177 -321 257 -480l49 289c17 104 6 126 -57 138c-2 16 -3 34 -1 53c34 -3 72 -3 99 -3zM362 -41c26 -10 34 -34 28 -72c-12 -74 -70 -134 -136 -177
c-16 5 -28 13 -33 27c35 28 57 59 61 83c3 22 -9 35 -39 38c-1 26 7 51 21 70c37 5 71 15 98 31z" />
    <glyph glyph-name="ncommaaccent" unicode="&#x146;" horiz-adv-x="560" 
d="M509 98c11 -11 19 -26 22 -42c-44 -44 -86 -65 -129 -65c-89 0 -85 66 -62 167l23 104c20 85 8 111 -16 111c-48 0 -137 -99 -168 -265l-20 -108h-119l53 283c16 87 13 95 -51 95c0 17 1 35 8 48c45 3 122 23 161 41c22 -9 29 -30 24 -65c-10 -53 -21 -86 -37 -125l16 34
c34 72 119 156 195 156c56 0 114 -41 79 -194l-27 -111c-19 -85 -18 -90 -2 -90c12 0 33 11 50 26zM293 -41c26 -10 34 -34 28 -72c-12 -74 -70 -134 -136 -177c-16 5 -28 13 -33 27c35 28 57 59 61 83c3 22 -9 35 -39 38c-1 26 7 51 21 70c37 5 71 15 98 31z" />
    <glyph glyph-name="Ncaron" unicode="&#x147;" horiz-adv-x="685" 
d="M471 741c-16 -7 -34 -9 -49 -6c-33 49 -75 106 -120 153c6 20 18 32 39 36c39 -31 87 -65 127 -88c54 25 102 53 140 82c16 -4 28 -17 34 -33c-56 -39 -120 -92 -171 -144zM630 676c32 0 74 0 105 3c0 -16 -4 -38 -10 -53c-47 -13 -61 -40 -79 -146l-84 -483
c-15 -5 -34 -6 -55 -6c-88 177 -178 345 -274 517l-55 -316c-18 -106 -10 -130 55 -142c4 -16 4 -33 2 -53c-42 3 -84 3 -112 3c-33 0 -61 0 -104 -3c1 19 4 37 9 53c52 10 74 36 91 135l70 400l-5 10c-13 24 -25 28 -60 31c-4 16 -4 34 -2 53c26 -2 52 -3 79 -3
c30 0 60 1 82 3c89 -154 177 -321 257 -480l49 289c17 104 6 126 -57 138c-2 16 -3 34 -1 53c34 -3 72 -3 99 -3z" />
    <glyph glyph-name="ncaron" unicode="&#x148;" horiz-adv-x="560" 
d="M353 523c-16 -7 -34 -9 -49 -6c-33 49 -75 106 -120 153c6 20 18 32 39 36c39 -31 87 -65 127 -88c54 25 102 53 140 82c16 -4 28 -17 34 -33c-56 -39 -120 -92 -171 -144zM509 98c11 -11 19 -26 22 -42c-44 -44 -86 -65 -129 -65c-89 0 -85 66 -62 167l23 104
c20 85 8 111 -16 111c-48 0 -137 -99 -168 -265l-20 -108h-119l53 283c16 87 13 95 -51 95c0 17 1 35 8 48c45 3 122 23 161 41c22 -9 29 -30 24 -65c-10 -53 -21 -86 -37 -125l16 34c34 72 119 156 195 156c56 0 114 -41 79 -194l-27 -111c-19 -85 -18 -90 -2 -90
c12 0 33 11 50 26z" />
    <glyph glyph-name="napostrophe" unicode="&#x149;" horiz-adv-x="731" 
d="M262 733c24 -13 35 -43 23 -102c-14 -75 -68 -152 -137 -206c-20 1 -34 11 -42 26c80 74 123 157 35 175c0 26 7 57 20 76c35 2 77 16 101 31zM680 98c11 -11 19 -26 22 -42c-44 -44 -86 -65 -128 -65c-90 0 -86 66 -63 167l24 104c19 85 7 111 -17 111
c-47 0 -137 -99 -167 -265l-21 -108h-119l53 283c16 87 13 95 -51 95c0 17 1 35 8 48c46 3 122 23 161 41c23 -9 29 -30 24 -65c-10 -53 -21 -86 -37 -125l16 34c35 72 119 156 195 156c56 0 114 -41 79 -194l-26 -111c-20 -85 -19 -90 -3 -90c13 0 34 11 50 26z" />
    <glyph glyph-name="Eng" unicode="&#x14a;" horiz-adv-x="685" 
d="M630 676c32 0 74 0 105 3c0 -16 -4 -38 -10 -53c-47 -13 -61 -40 -79 -146l-68 -392c-32 -182 -109 -272 -267 -336c-12 11 -18 25 -19 46c108 64 158 137 181 261c-77 153 -156 299 -240 449l-55 -316c-18 -106 -10 -130 55 -142c4 -16 4 -33 2 -53c-42 3 -84 3 -112 3
c-33 0 -61 0 -104 -3c1 19 4 37 9 53c52 10 74 36 91 135l70 401l-5 9c-13 24 -25 28 -60 31c-4 16 -4 34 -2 53c26 -2 52 -3 79 -3c30 0 60 1 82 3c89 -153 177 -320 257 -480l49 289c17 104 6 126 -57 138c-2 16 -3 34 -1 53c34 -3 72 -3 99 -3z" />
    <glyph glyph-name="eng" unicode="&#x14b;" horiz-adv-x="539" 
d="M414 467c54 0 109 -32 77 -199l-35 -180c-35 -182 -109 -272 -267 -336c-12 11 -18 25 -19 46c89 58 139 138 160 253l41 225c14 72 -1 93 -25 93c-47 0 -136 -95 -167 -261l-20 -108h-119l53 283c16 87 13 95 -51 95c0 17 1 35 8 48c45 3 122 23 161 41
c22 -9 29 -30 24 -65c-10 -53 -21 -86 -37 -125l16 34c34 72 121 156 200 156z" />
    <glyph glyph-name="Omacron" unicode="&#x14c;" horiz-adv-x="741" 
d="M293 849h352c0 -14 -3 -31 -9 -47c-127 0 -245 -1 -352 -4c0 11 2 37 9 51zM438 685c199 0 329 -138 282 -378c-34 -179 -179 -316 -375 -316c-206 0 -324 154 -282 377c36 185 188 317 375 317zM422 632c-111 0 -199 -111 -226 -257c-35 -181 23 -331 164 -331
c120 0 203 112 231 266c34 187 -42 322 -169 322z" />
    <glyph glyph-name="omacron" unicode="&#x14d;" horiz-adv-x="498" 
d="M148 631h352c0 -14 -3 -31 -9 -47c-127 0 -245 -1 -352 -4c0 11 2 37 9 51zM293 467c134 0 199 -95 175 -232c-24 -144 -127 -244 -263 -244s-200 101 -174 239c26 144 128 237 262 237zM279 412c-55 0 -102 -70 -121 -173c-21 -115 4 -193 60 -193c54 0 105 73 123 181
c20 108 -5 185 -62 185z" />
    <glyph glyph-name="Ohungarumlaut" unicode="&#x150;" horiz-adv-x="741" 
d="M420 935c47 10 93 6 121 -11c-55 -53 -113 -118 -159 -181c-20 2 -38 9 -52 20c41 65 75 131 90 172zM591 935c47 10 93 6 121 -11c-55 -53 -113 -118 -159 -181c-20 2 -38 9 -52 20c41 65 75 131 90 172zM438 685c199 0 329 -138 282 -378c-34 -179 -179 -316 -375 -316
c-206 0 -324 154 -282 377c36 185 188 317 375 317zM422 632c-111 0 -199 -111 -226 -257c-35 -181 23 -331 164 -331c120 0 203 112 231 266c34 187 -42 322 -169 322z" />
    <glyph glyph-name="ohungarumlaut" unicode="&#x151;" horiz-adv-x="498" 
d="M275 717c47 10 93 6 121 -11c-55 -53 -113 -118 -159 -181c-20 2 -38 9 -52 20c41 65 75 131 90 172zM446 717c47 10 93 6 121 -11c-55 -53 -113 -118 -159 -181c-20 2 -38 9 -52 20c41 65 75 131 90 172zM293 467c134 0 199 -95 175 -232c-24 -144 -127 -244 -263 -244
s-200 101 -174 239c26 144 128 237 262 237zM279 412c-55 0 -102 -70 -121 -173c-21 -115 4 -193 60 -193c54 0 105 73 123 181c20 108 -5 185 -62 185z" />
    <glyph glyph-name="OE" unicode="&#x152;" horiz-adv-x="988" 
d="M933 502c-4 82 -16 121 -137 121h-172c63 -54 95 -142 84 -254h17c76 0 104 15 114 78c20 4 38 5 60 2c-7 -31 -15 -66 -22 -116c-7 -51 -9 -80 -11 -114c-23 2 -41 5 -57 14c3 59 -14 83 -90 83h-19l-1 -9c-23 -106 -73 -197 -151 -254h177c108 0 140 44 179 132
c24 -4 43 -11 49 -24c-11 -47 -30 -104 -40 -164c-60 3 -136 3 -235 3c-116 0 -193 -9 -329 -9h-3h-2h-4c-221 3 -317 179 -276 377c40 194 189 316 370 317h2h1h2c96 0 138 -9 300 -9c97 0 189 0 265 3c-7 -51 -12 -118 -8 -168c-17 -6 -39 -9 -63 -9zM576 310
c34 193 -30 322 -154 322c-115 0 -196 -112 -226 -257c-35 -175 20 -331 162 -331c120 0 191 112 218 266z" />
    <glyph glyph-name="oe" unicode="&#x153;" horiz-adv-x="713" 
d="M580 467c91 0 129 -56 117 -117c-18 -82 -136 -149 -247 -156c-4 -66 11 -121 74 -121c35 0 72 16 104 49c11 -12 17 -25 20 -44c-47 -52 -106 -87 -185 -87c-62 0 -91 29 -103 72c-39 -45 -91 -72 -155 -72c-136 0 -200 101 -174 239c26 144 128 237 262 237
c70 0 114 -33 134 -85c38 56 89 85 153 85zM341 227c20 108 -5 185 -62 185c-55 0 -102 -70 -121 -173c-21 -115 4 -193 60 -193c54 0 105 73 123 181zM602 340c8 41 -7 70 -41 70c-42 0 -85 -51 -104 -161l-1 -5c75 5 134 40 146 96z" />
    <glyph glyph-name="Racute" unicode="&#x154;" horiz-adv-x="672" 
d="M575 924c-55 -53 -113 -118 -159 -181c-20 2 -38 9 -52 20c41 65 75 131 90 172c47 10 93 6 121 -11zM597 101c14 -9 25 -25 31 -41c-38 -45 -81 -69 -135 -69c-63 0 -88 43 -115 132c-24 77 -46 124 -77 169c-14 0 -28 0 -39 1l-27 -156c-12 -71 -3 -80 44 -87
c3 -18 3 -35 2 -53c-53 3 -76 3 -126 3c-53 0 -90 0 -131 -3c1 18 3 36 11 53c55 5 66 23 79 100l67 389c11 64 -2 81 -58 87c-3 17 -3 35 -1 53c49 -3 90 -3 142 -3c47 0 114 4 158 4c139 0 222 -73 200 -193c-18 -91 -86 -156 -207 -179c31 -35 55 -73 86 -152
c20 -51 40 -70 60 -70c14 0 23 4 36 15zM317 617l-45 -265c13 -2 24 -2 35 -2c102 0 168 53 184 138c18 94 -29 139 -105 139c-21 0 -47 -3 -69 -10z" />
    <glyph glyph-name="racute" unicode="&#x155;" horiz-adv-x="410" 
d="M325 717c47 10 93 6 121 -11c-55 -53 -113 -118 -159 -181c-20 2 -38 9 -52 20c41 65 75 131 90 172zM205 467c23 -9 29 -30 22 -67c-5 -34 -21 -84 -44 -136h2l20 45c43 92 94 158 159 158c18 0 37 -5 52 -16c-15 -43 -25 -97 -28 -141c-17 -9 -41 -12 -65 -11
c3 40 -4 54 -17 54c-14 0 -37 -19 -65 -72c-23 -42 -54 -119 -70 -203l-14 -78h-120l54 283c16 87 14 95 -50 95c0 17 2 35 9 48c45 3 116 23 155 41z" />
    <glyph glyph-name="Rcommaaccent" unicode="&#x156;" horiz-adv-x="672" 
d="M597 101c14 -9 25 -25 31 -41c-38 -45 -81 -69 -135 -69c-63 0 -88 43 -115 132c-24 77 -46 124 -77 169c-14 0 -28 0 -39 1l-27 -156c-12 -71 -3 -80 44 -87c3 -18 3 -35 2 -53c-53 3 -76 3 -126 3c-53 0 -90 0 -131 -3c1 18 3 36 11 53c55 5 66 23 79 100l67 389
c11 64 -2 81 -58 87c-3 17 -3 35 -1 53c49 -3 90 -3 142 -3c47 0 114 4 158 4c139 0 222 -73 200 -193c-18 -91 -86 -156 -207 -179c31 -35 55 -73 86 -152c20 -51 40 -70 60 -70c14 0 23 4 36 15zM317 617l-45 -265c13 -2 24 -2 35 -2c102 0 168 53 184 138
c18 94 -29 139 -105 139c-21 0 -47 -3 -69 -10zM363 -41c26 -10 34 -34 28 -72c-12 -74 -70 -134 -136 -177c-16 5 -28 13 -33 27c35 28 57 59 61 83c3 22 -9 35 -39 38c-1 26 7 51 21 70c37 5 71 15 98 31z" />
    <glyph glyph-name="rcommaaccent" unicode="&#x157;" horiz-adv-x="410" 
d="M205 467c23 -9 29 -30 22 -67c-5 -34 -21 -84 -44 -136h2l20 45c43 92 94 158 159 158c18 0 37 -5 52 -16c-15 -43 -25 -97 -28 -141c-17 -9 -41 -12 -65 -11c3 40 -4 54 -17 54c-14 0 -37 -19 -65 -72c-23 -42 -54 -119 -70 -203l-14 -78h-120l54 283
c16 87 14 95 -50 95c0 17 2 35 9 48c45 3 116 23 155 41zM137 -41c26 -10 34 -34 28 -72c-12 -74 -70 -134 -136 -177c-16 5 -28 13 -33 27c35 28 57 59 61 83c3 22 -9 35 -39 38c-1 26 7 51 21 70c37 5 71 15 98 31z" />
    <glyph glyph-name="Rcaron" unicode="&#x158;" horiz-adv-x="672" 
d="M437 741c-16 -7 -34 -9 -49 -6c-33 49 -75 106 -120 153c6 20 18 32 39 36c39 -31 87 -65 127 -88c54 25 102 53 140 82c16 -4 28 -17 34 -33c-56 -39 -120 -92 -171 -144zM597 101c14 -9 25 -25 31 -41c-38 -45 -81 -69 -135 -69c-63 0 -88 43 -115 132
c-24 77 -46 124 -77 169c-14 0 -28 0 -39 1l-27 -156c-12 -71 -3 -80 44 -87c3 -18 3 -35 2 -53c-53 3 -76 3 -126 3c-53 0 -90 0 -131 -3c1 18 3 36 11 53c55 5 66 23 79 100l67 389c11 64 -2 81 -58 87c-3 17 -3 35 -1 53c49 -3 90 -3 142 -3c47 0 114 4 158 4
c139 0 222 -73 200 -193c-18 -91 -86 -156 -207 -179c31 -35 55 -73 86 -152c20 -51 40 -70 60 -70c14 0 23 4 36 15zM317 617l-45 -265c13 -2 24 -2 35 -2c102 0 168 53 184 138c18 94 -29 139 -105 139c-21 0 -47 -3 -69 -10z" />
    <glyph glyph-name="rcaron" unicode="&#x159;" horiz-adv-x="410" 
d="M446 700c16 -4 28 -17 34 -33c-56 -39 -120 -92 -171 -144c-16 -7 -34 -9 -49 -6c-33 49 -75 106 -120 153c6 20 18 32 39 36c39 -31 87 -65 127 -88c54 25 102 53 140 82zM205 467c23 -9 29 -30 22 -67c-5 -34 -21 -84 -44 -136h2l20 45c43 92 94 158 159 158
c18 0 37 -5 52 -16c-15 -43 -25 -97 -28 -141c-17 -9 -41 -12 -65 -11c3 40 -4 54 -17 54c-14 0 -37 -19 -65 -72c-23 -42 -54 -119 -70 -203l-14 -78h-120l54 283c16 87 14 95 -50 95c0 17 2 35 9 48c45 3 116 23 155 41z" />
    <glyph glyph-name="Sacute" unicode="&#x15a;" horiz-adv-x="480" 
d="M359 935c47 10 93 6 121 -11c-55 -53 -113 -118 -159 -181c-20 2 -38 9 -52 20c41 65 75 131 90 172zM311 685c73 0 130 -21 163 -48c-7 -46 -11 -92 -11 -136c-20 -7 -46 -9 -71 -6c-2 99 -38 135 -97 135c-57 0 -95 -25 -105 -84c-25 -154 295 -162 256 -385
c-18 -102 -117 -170 -236 -170c-104 0 -157 27 -211 72c16 47 28 95 32 143c22 7 49 8 72 2c-8 -112 23 -160 116 -160c54 0 99 35 108 87c30 159 -286 151 -242 396c17 97 103 154 226 154z" />
    <glyph glyph-name="sacute" unicode="&#x15b;" horiz-adv-x="399" 
d="M299 717c47 10 93 6 121 -11c-55 -53 -113 -118 -159 -181c-20 2 -38 9 -52 20c41 65 75 131 90 172zM242 467c53 0 110 -15 143 -33c-11 -35 -18 -75 -19 -117c-18 -9 -41 -11 -64 -10c-1 76 -23 106 -68 106c-33 0 -52 -14 -57 -36c-19 -86 190 -126 160 -277
c-16 -78 -76 -109 -178 -109c-69 0 -122 18 -154 39c13 42 18 80 19 117c19 8 42 11 64 9c-2 -68 18 -110 77 -110c35 0 54 15 59 36c17 78 -182 130 -153 277c14 75 77 108 171 108z" />
    <glyph glyph-name="Scircumflex" unicode="&#x15c;" horiz-adv-x="480" 
d="M335 927c17 2 35 0 51 -7c31 -48 67 -94 110 -143c-9 -15 -27 -27 -47 -30c-37 31 -78 58 -118 80c-47 -24 -98 -54 -139 -84c-15 12 -24 34 -23 52c59 39 118 86 166 132zM311 685c73 0 130 -21 163 -48c-7 -46 -11 -92 -11 -136c-20 -7 -46 -9 -71 -6
c-2 99 -38 135 -97 135c-57 0 -95 -25 -105 -84c-25 -154 295 -162 256 -385c-18 -102 -117 -170 -236 -170c-104 0 -157 27 -211 72c16 47 28 95 32 143c22 7 49 8 72 2c-8 -112 23 -160 116 -160c54 0 99 35 108 87c30 159 -286 151 -242 396c17 97 103 154 226 154z" />
    <glyph glyph-name="scircumflex" unicode="&#x15d;" horiz-adv-x="399" 
d="M274 709c17 2 35 0 51 -7c31 -48 67 -94 110 -143c-9 -15 -27 -27 -47 -30c-37 31 -78 58 -118 80c-47 -24 -98 -54 -139 -84c-15 12 -24 34 -23 52c59 39 118 86 166 132zM242 467c53 0 110 -15 143 -33c-11 -35 -18 -75 -19 -117c-18 -9 -41 -11 -64 -10
c-1 76 -23 106 -68 106c-33 0 -52 -14 -57 -36c-19 -86 190 -126 160 -277c-16 -78 -76 -109 -178 -109c-69 0 -122 18 -154 39c13 42 18 80 19 117c19 8 42 11 64 9c-2 -68 18 -110 77 -110c35 0 54 15 59 36c17 78 -182 130 -153 277c14 75 77 108 171 108z" />
    <glyph glyph-name="Scedilla" unicode="&#x15e;" horiz-adv-x="480" 
d="M295 630c-57 0 -95 -25 -105 -84c-25 -154 295 -162 256 -385c-16 -92 -98 -156 -201 -168l-39 -46c49 -11 71 -45 60 -102c-12 -59 -73 -89 -160 -87c-4 11 -3 25 -1 37c48 0 83 15 89 46c7 36 -18 55 -53 55c-9 10 -14 24 -10 41l48 55c-84 5 -132 31 -180 71
c16 47 28 95 32 143c22 7 49 8 72 2c-8 -112 23 -160 116 -160c54 0 99 35 108 87c30 159 -286 151 -242 396c17 97 103 154 226 154c73 0 130 -21 163 -48c-7 -46 -11 -92 -11 -136c-20 -7 -46 -9 -71 -6c-2 99 -38 135 -97 135z" />
    <glyph glyph-name="scedilla" unicode="&#x15f;" horiz-adv-x="399" 
d="M234 413c-33 0 -52 -14 -57 -36c-19 -86 190 -126 160 -277c-15 -72 -68 -104 -157 -109l-38 -44c49 -11 71 -45 60 -102c-12 -59 -73 -89 -160 -87c-4 11 -3 25 -1 37c48 0 83 15 89 46c7 36 -18 55 -53 55c-9 10 -14 24 -10 41l49 56c-48 6 -86 21 -111 37
c13 42 18 80 19 117c19 8 42 11 64 9c-2 -68 18 -110 77 -110c35 0 54 15 59 36c17 78 -182 130 -153 277c14 75 77 108 171 108c53 0 110 -15 143 -33c-11 -35 -18 -75 -19 -117c-18 -9 -41 -11 -64 -10c-1 76 -23 106 -68 106z" />
    <glyph glyph-name="Scaron" unicode="&#x160;" horiz-adv-x="480" 
d="M479 918c16 -4 28 -17 34 -33c-56 -39 -120 -92 -171 -144c-16 -7 -34 -9 -49 -6c-33 49 -75 106 -120 153c6 20 18 32 39 36c39 -31 87 -65 127 -88c54 25 102 53 140 82zM311 685c73 0 130 -21 163 -48c-7 -46 -11 -92 -11 -136c-20 -7 -46 -9 -71 -6
c-2 99 -38 135 -97 135c-57 0 -95 -25 -105 -84c-25 -154 295 -162 256 -385c-18 -102 -117 -170 -236 -170c-104 0 -157 27 -211 72c16 47 28 95 32 143c22 7 49 8 72 2c-8 -112 23 -160 116 -160c54 0 99 35 108 87c30 159 -286 151 -242 396c17 97 103 154 226 154z" />
    <glyph glyph-name="scaron" unicode="&#x161;" horiz-adv-x="399" 
d="M419 700c16 -4 28 -17 34 -33c-56 -39 -120 -92 -171 -144c-16 -7 -34 -9 -49 -6c-33 49 -75 106 -120 153c6 20 18 32 39 36c39 -31 87 -65 127 -88c54 25 102 53 140 82zM242 467c53 0 110 -15 143 -33c-11 -35 -18 -75 -19 -117c-18 -9 -41 -11 -64 -10
c-1 76 -23 106 -68 106c-33 0 -52 -14 -57 -36c-19 -86 190 -126 160 -277c-16 -78 -76 -109 -178 -109c-69 0 -122 18 -154 39c13 42 18 80 19 117c19 8 42 11 64 9c-2 -68 18 -110 77 -110c35 0 54 15 59 36c17 78 -182 130 -153 277c14 75 77 108 171 108z" />
    <glyph glyph-name="Tcedilla" unicode="&#x162;" horiz-adv-x="572" 
d="M630 679c-8 -49 -13 -110 -11 -169c-19 -8 -39 -9 -62 -8c-3 91 -22 125 -101 125h-34l-85 -487c-11 -64 -5 -80 71 -90c3 -17 4 -35 2 -53c-33 2 -73 3 -113 3l-45 -53c49 -11 71 -45 60 -102c-12 -59 -73 -89 -160 -87c-4 11 -3 25 -1 37c48 0 83 15 89 46
c7 36 -18 55 -53 55c-9 10 -14 24 -10 41l55 63c-46 0 -91 -1 -125 -3c0 21 5 40 10 53c71 9 85 24 98 100l83 477h-39c-73 0 -106 -38 -136 -128c-25 0 -45 3 -60 16c15 44 31 115 38 164c62 -3 151 -3 261 -3s200 0 268 3z" />
    <glyph glyph-name="tcedilla" unicode="&#x163;" horiz-adv-x="343" 
d="M237 388l-41 -174c-26 -112 -11 -146 21 -146c21 0 47 15 66 38c11 -10 21 -28 23 -44c-24 -29 -70 -60 -116 -68l-40 -47c49 -11 71 -45 60 -102c-12 -59 -73 -89 -160 -87c-4 11 -3 25 -1 37c48 0 83 15 89 46c7 36 -18 55 -53 55c-9 10 -14 24 -10 41l51 59
c-65 18 -80 88 -52 210l43 184c-25 5 -50 8 -73 8c0 18 4 38 12 50h75l2 10c14 61 23 106 25 134c34 4 76 15 99 28c25 -10 25 -39 3 -134l-9 -38h106c0 -19 -2 -39 -8 -51c-49 0 -83 -3 -112 -9z" />
    <glyph glyph-name="Tcaron" unicode="&#x164;" horiz-adv-x="572" 
d="M397 741c-16 -7 -34 -9 -49 -6c-33 49 -75 106 -120 153c6 20 18 32 39 36c39 -31 87 -65 127 -88c54 25 102 53 140 82c16 -4 28 -17 34 -33c-56 -39 -120 -92 -171 -144zM630 679c-8 -49 -13 -110 -11 -169c-19 -8 -39 -9 -62 -8c-3 91 -22 125 -101 125h-34l-85 -487
c-11 -64 -5 -80 71 -90c3 -17 4 -35 2 -53c-43 3 -96 3 -147 3c-57 0 -115 0 -156 -3c0 21 5 40 10 53c71 9 85 24 98 100l83 477h-39c-73 0 -106 -38 -136 -128c-25 0 -45 3 -60 16c15 44 31 115 38 164c62 -3 151 -3 261 -3s200 0 268 3z" />
    <glyph glyph-name="tcaron" unicode="&#x165;" horiz-adv-x="454" 
d="M504 717c28 -15 33 -54 23 -102c-11 -57 -43 -119 -112 -175c-20 1 -35 11 -42 25c75 74 82 130 11 145c0 26 7 57 20 76c35 2 76 16 100 31zM251 448h106c0 -19 -2 -39 -8 -51c-49 0 -83 -3 -112 -9l-41 -174c-26 -112 -11 -146 21 -146c21 0 47 15 66 38
c11 -10 21 -28 23 -44c-28 -35 -88 -71 -142 -71c-96 0 -123 72 -90 215l43 184c-25 5 -50 8 -73 8c0 18 4 38 12 50h75l2 10c14 61 23 106 25 134c34 4 76 15 99 28c25 -10 25 -39 3 -134z" />
    <glyph glyph-name="Tbar" unicode="&#x166;" horiz-adv-x="572" 
d="M630 679c-8 -49 -13 -110 -11 -169c-19 -8 -39 -9 -62 -8c-3 91 -22 125 -101 125h-34l-48 -276h118c0 -15 -3 -31 -9 -48h-118l-28 -163c-11 -64 -5 -80 71 -90c3 -17 4 -35 2 -53c-43 3 -96 3 -147 3c-57 0 -115 0 -156 -3c0 21 5 40 10 53c71 9 85 24 98 100l26 151
l-110 -2c0 12 2 38 9 52h110l48 276h-39c-73 0 -106 -38 -136 -128c-25 0 -45 3 -60 16c15 44 31 115 38 164c62 -3 151 -3 261 -3s200 0 268 3z" />
    <glyph glyph-name="tbar" unicode="&#x167;" horiz-adv-x="350" 
d="M349 397c-49 0 -83 -3 -112 -9l-24 -100h67c0 -16 -4 -31 -9 -48h-69l-6 -26c-26 -112 -11 -146 21 -146c21 0 47 15 66 38c11 -10 21 -28 23 -44c-28 -35 -88 -71 -142 -71c-96 0 -123 72 -90 215l7 32c-20 -1 -40 -2 -56 -3c0 18 2 35 9 53h59l24 102
c-25 5 -50 8 -73 8c0 18 4 38 12 50h75l2 10c14 61 23 106 25 134c34 4 76 15 99 28c25 -10 25 -39 3 -134l-9 -38h106c0 -19 -2 -39 -8 -51z" />
    <glyph glyph-name="Umacron" unicode="&#x16a;" horiz-adv-x="647" 
d="M293 849h352c0 -14 -3 -31 -9 -47c-127 0 -245 -1 -352 -4c0 11 2 37 9 51zM107 679c47 -3 81 -3 126 -3c46 0 83 0 135 3c-1 -18 -3 -35 -10 -53c-61 -6 -72 -19 -86 -99l-46 -265c-26 -148 22 -210 113 -210c95 0 155 74 177 200l44 252c16 91 7 105 -49 122
c-3 17 -4 34 -1 53c42 -3 74 -3 101 -3c35 0 58 0 102 3c-1 -19 -4 -36 -11 -53c-56 -15 -67 -29 -85 -133l-41 -232c-33 -187 -112 -270 -265 -270c-176 0 -238 97 -209 266l49 282c11 66 4 81 -43 87c-4 15 -4 34 -1 53z" />
    <glyph glyph-name="umacron" unicode="&#x16b;" horiz-adv-x="555" 
d="M160 631h352c0 -14 -3 -31 -9 -47c-127 0 -245 -1 -352 -4c0 11 2 37 9 51zM209 467c33 -20 34 -29 -13 -230c-25 -104 -17 -148 17 -148c39 0 124 83 159 268l20 101h119l-48 -249c-24 -127 -24 -137 -3 -137c12 0 24 8 43 27c11 -10 20 -27 23 -42
c-35 -39 -84 -66 -126 -66c-74 0 -90 49 -77 113c3 16 8 32 16 48h-2c-37 -76 -118 -161 -202 -161c-87 0 -91 103 -60 227c37 155 34 159 -33 160c-1 15 1 34 8 48c44 3 122 23 159 41z" />
    <glyph glyph-name="Ubreve" unicode="&#x16c;" horiz-adv-x="647" 
d="M660 918c-21 -113 -98 -176 -213 -176c-113 0 -164 61 -142 171c18 8 41 12 60 11c-3 -63 39 -101 109 -101s123 38 139 101c20 1 37 -1 47 -6zM107 679c47 -3 81 -3 126 -3c46 0 83 0 135 3c-1 -18 -3 -35 -10 -53c-61 -6 -72 -19 -86 -99l-46 -265
c-26 -148 22 -210 113 -210c95 0 155 74 177 200l44 252c16 91 7 105 -49 122c-3 17 -4 34 -1 53c42 -3 74 -3 101 -3c35 0 58 0 102 3c-1 -19 -4 -36 -11 -53c-56 -15 -67 -29 -85 -133l-41 -232c-33 -187 -112 -270 -265 -270c-176 0 -238 97 -209 266l49 282
c11 66 4 81 -43 87c-4 15 -4 34 -1 53z" />
    <glyph glyph-name="ubreve" unicode="&#x16d;" horiz-adv-x="555" 
d="M526 700c-21 -113 -98 -176 -213 -176c-113 0 -164 61 -142 171c18 8 41 12 60 11c-3 -63 39 -101 109 -101s123 38 139 101c20 1 37 -1 47 -6zM209 467c33 -20 34 -29 -13 -230c-25 -104 -17 -148 17 -148c39 0 124 83 159 268l20 101h119l-48 -249
c-24 -127 -24 -137 -3 -137c12 0 24 8 43 27c11 -10 20 -27 23 -42c-35 -39 -84 -66 -126 -66c-74 0 -90 49 -77 113c3 16 8 32 16 48h-2c-37 -76 -118 -161 -202 -161c-87 0 -91 103 -60 227c37 155 34 159 -33 160c-1 15 1 34 8 48c44 3 122 23 159 41z" />
    <glyph glyph-name="Uring" unicode="&#x16e;" horiz-adv-x="647" 
d="M477 932c84 0 109 -56 98 -107c-10 -51 -53 -84 -119 -84c-79 0 -111 47 -99 105c11 52 54 86 120 86zM472 892c-26 0 -44 -23 -49 -53c-5 -32 9 -54 38 -54c22 0 39 13 46 43c7 31 -5 64 -35 64zM107 679c47 -3 81 -3 126 -3c46 0 83 0 135 3c-1 -18 -3 -35 -10 -53
c-61 -6 -72 -19 -86 -99l-46 -265c-26 -148 22 -210 113 -210c95 0 155 74 177 200l44 252c16 91 7 105 -49 122c-3 17 -4 34 -1 53c42 -3 74 -3 101 -3c35 0 58 0 102 3c-1 -19 -4 -36 -11 -53c-56 -15 -67 -29 -85 -133l-41 -232c-33 -187 -112 -270 -265 -270
c-176 0 -238 97 -209 266l49 282c11 66 4 81 -43 87c-4 15 -4 34 -1 53z" />
    <glyph glyph-name="uring" unicode="&#x16f;" horiz-adv-x="555" 
d="M343 714c84 0 109 -56 98 -107c-10 -51 -53 -84 -119 -84c-79 0 -111 47 -99 105c11 52 54 86 120 86zM338 674c-26 0 -44 -23 -49 -53c-5 -32 9 -54 38 -54c22 0 39 13 46 43c7 31 -5 64 -35 64zM209 467c33 -20 34 -29 -13 -230c-25 -104 -17 -148 17 -148
c39 0 124 83 159 268l20 101h119l-48 -249c-24 -127 -24 -137 -3 -137c12 0 24 8 43 27c11 -10 20 -27 23 -42c-35 -39 -84 -66 -126 -66c-74 0 -90 49 -77 113c3 16 8 32 16 48h-2c-37 -76 -118 -161 -202 -161c-87 0 -91 103 -60 227c37 155 34 159 -33 160
c-1 15 1 34 8 48c44 3 122 23 159 41z" />
    <glyph glyph-name="Uhungarumlaut" unicode="&#x170;" horiz-adv-x="647" 
d="M420 935c47 10 93 6 121 -11c-55 -53 -113 -118 -159 -181c-20 2 -38 9 -52 20c41 65 75 131 90 172zM591 935c47 10 93 6 121 -11c-55 -53 -113 -118 -159 -181c-20 2 -38 9 -52 20c41 65 75 131 90 172zM107 679c47 -3 81 -3 126 -3c46 0 83 0 135 3
c-1 -18 -3 -35 -10 -53c-61 -6 -72 -19 -86 -99l-46 -265c-26 -148 22 -210 113 -210c95 0 155 74 177 200l44 252c16 91 7 105 -49 122c-3 17 -4 34 -1 53c42 -3 74 -3 101 -3c35 0 58 0 102 3c-1 -19 -4 -36 -11 -53c-56 -15 -67 -29 -85 -133l-41 -232
c-33 -187 -112 -270 -265 -270c-176 0 -238 97 -209 266l49 282c11 66 4 81 -43 87c-4 15 -4 34 -1 53z" />
    <glyph glyph-name="uhungarumlaut" unicode="&#x171;" horiz-adv-x="555" 
d="M287 717c47 10 93 6 121 -11c-55 -53 -113 -118 -159 -181c-20 2 -38 9 -52 20c41 65 75 131 90 172zM458 717c47 10 93 6 121 -11c-55 -53 -113 -118 -159 -181c-20 2 -38 9 -52 20c41 65 75 131 90 172zM209 467c33 -20 34 -29 -13 -230c-25 -104 -17 -148 17 -148
c39 0 124 83 159 268l20 101h119l-48 -249c-24 -127 -24 -137 -3 -137c12 0 24 8 43 27c11 -10 20 -27 23 -42c-35 -39 -84 -66 -126 -66c-74 0 -90 49 -77 113c3 16 8 32 16 48h-2c-37 -76 -118 -161 -202 -161c-87 0 -91 103 -60 227c37 155 34 159 -33 160
c-1 15 1 34 8 48c44 3 122 23 159 41z" />
    <glyph glyph-name="Uogonek" unicode="&#x172;" horiz-adv-x="647" 
d="M611 676c35 0 58 0 102 3c-1 -19 -4 -36 -11 -53c-56 -15 -67 -29 -85 -133l-41 -232c-22 -127 -66 -206 -139 -244c-70 -45 -103 -85 -108 -119c-3 -28 16 -53 52 -53c11 0 26 2 39 8c8 -13 11 -30 10 -47c-30 -13 -60 -31 -87 -53c-7 -2 -13 -2 -20 -2
c-58 0 -114 33 -101 111c7 43 35 88 112 130l-23 -1c-176 0 -238 97 -209 266l49 282c11 66 4 81 -43 87c-4 15 -4 34 -1 53c47 -3 81 -3 126 -3c46 0 83 0 135 3c-1 -18 -3 -35 -10 -53c-61 -6 -72 -19 -86 -99l-46 -265c-26 -148 22 -210 113 -210c95 0 155 74 177 200
l44 252c16 91 7 105 -49 122c-3 17 -4 34 -1 53c42 -3 74 -3 101 -3z" />
    <glyph glyph-name="uogonek" unicode="&#x173;" horiz-adv-x="555" 
d="M526 57c-14 -16 -30 -29 -47 -40c-70 -45 -103 -85 -108 -119c-3 -28 16 -53 52 -53c11 0 26 2 39 8c8 -13 11 -30 10 -47c-30 -13 -60 -31 -87 -53c-7 -2 -13 -2 -20 -2c-58 0 -114 33 -101 111c7 44 36 89 114 131c-55 9 -67 54 -55 111c3 16 8 32 16 48h-2
c-37 -76 -118 -161 -202 -161c-87 0 -91 103 -60 227c37 155 34 159 -33 160c-1 15 1 34 8 48c44 3 122 23 159 41c33 -20 34 -29 -13 -230c-25 -104 -17 -148 17 -148c39 0 124 83 159 268l20 101h119l-48 -249c-24 -127 -24 -137 -3 -137c12 0 24 8 43 27
c11 -10 20 -27 23 -42z" />
    <glyph glyph-name="Wcircumflex" unicode="&#x174;" horiz-adv-x="967" 
d="M489 743c-15 12 -24 34 -23 52c59 39 118 86 166 132c17 2 35 0 51 -7c31 -48 67 -94 110 -143c-9 -15 -27 -27 -47 -30c-37 31 -78 58 -118 80c-47 -24 -98 -54 -139 -84zM942 676c34 0 67 0 97 3c0 -18 -3 -36 -10 -53c-34 -12 -54 -38 -102 -151
c-69 -158 -141 -317 -221 -476c-15 -6 -41 -6 -60 -2c-24 157 -59 334 -101 493c-77 -165 -162 -333 -248 -491c-14 -6 -43 -6 -59 -2c-28 199 -56 376 -83 520c-17 92 -21 100 -52 110c-4 15 -5 33 -3 52c52 -3 95 -3 124 -3c34 0 89 0 133 3c-1 -20 -3 -37 -9 -53
c-72 -12 -80 -36 -66 -117c15 -93 35 -213 51 -327c84 161 165 327 243 495c15 6 33 8 53 6c42 -157 81 -331 108 -495c51 101 96 202 137 302c40 100 34 124 -28 136c-4 17 -4 35 -1 53c28 -3 65 -3 97 -3z" />
    <glyph glyph-name="wcircumflex" unicode="&#x175;" horiz-adv-x="733" 
d="M262 525c-15 12 -24 34 -23 52c59 39 118 86 166 132c17 2 35 0 51 -7c31 -48 67 -94 110 -143c-9 -15 -27 -27 -47 -30c-37 31 -78 58 -118 80c-47 -24 -98 -54 -139 -84zM650 467c37 -13 60 -43 60 -107c0 -82 -52 -186 -243 -369c-21 -1 -44 3 -60 12
c-8 80 -18 149 -31 211c-27 -78 -75 -138 -169 -223c-21 -1 -45 3 -60 12c-12 123 -33 237 -53 314c-13 47 -24 63 -76 60c0 12 2 35 7 49c39 4 98 25 125 41c34 -11 39 -28 53 -96c21 -94 37 -197 45 -276c90 108 109 190 69 338c30 6 57 19 75 34c29 -8 35 -20 53 -95
c23 -93 44 -196 55 -276c71 86 98 154 98 200c0 54 -23 78 -69 81c-4 16 -5 32 -2 48c40 8 100 28 123 42z" />
    <glyph glyph-name="Ycircumflex" unicode="&#x176;" horiz-adv-x="590" 
d="M289 743c-15 12 -24 34 -23 52c59 39 118 86 166 132c17 2 35 0 51 -7c31 -48 67 -94 110 -143c-9 -15 -27 -27 -47 -30c-37 31 -78 58 -118 80c-47 -24 -98 -54 -139 -84zM569 676c33 0 58 0 93 3c-1 -17 -4 -36 -11 -53c-22 -8 -40 -15 -87 -91
c-64 -103 -120 -188 -178 -269l-22 -126c-12 -64 -6 -78 70 -90c4 -17 5 -35 3 -53c-43 3 -96 3 -147 3c-57 0 -115 0 -156 -3c0 21 4 40 10 53c72 11 85 24 98 100l20 117c-27 91 -57 178 -91 265c-30 77 -41 86 -70 95c-3 15 -3 32 -1 52c41 -3 90 -3 124 -3
c39 0 87 0 140 3c0 -20 -4 -38 -10 -53c-63 -9 -75 -27 -56 -80c26 -69 47 -143 67 -220c43 64 84 131 125 204c34 62 34 86 -22 96c-4 17 -4 34 -1 53c33 -3 66 -3 102 -3z" />
    <glyph glyph-name="ycircumflex" unicode="&#x177;" horiz-adv-x="482" 
d="M138 525c-15 12 -24 34 -23 52c59 39 118 86 166 132c17 2 35 0 51 -7c31 -48 67 -94 110 -143c-9 -15 -27 -27 -47 -30c-37 31 -78 58 -118 80c-47 -24 -98 -54 -139 -84zM410 468c38 -14 55 -44 55 -83c0 -77 -51 -174 -191 -361c-176 -237 -224 -272 -300 -272
c-35 0 -68 13 -96 40c-2 23 3 51 11 72c32 -12 69 -18 103 -18c49 0 86 16 154 97c-10 151 -31 282 -57 374c-13 47 -23 63 -75 60c-1 19 1 35 7 49c38 4 97 25 124 41c30 -10 38 -22 51 -84c24 -112 38 -209 44 -313c80 115 111 196 111 249c0 32 -17 54 -63 58
c-4 16 -4 32 -1 48c40 8 100 30 123 43z" />
    <glyph glyph-name="Ydieresis" unicode="&#x178;" horiz-adv-x="590" 
d="M336 740c-41 0 -63 31 -53 76c6 34 28 53 65 53c42 0 63 -29 54 -72c-10 -36 -32 -57 -66 -57zM511 741c-41 0 -63 28 -55 71c6 37 30 57 70 57c39 0 61 -27 52 -69c-7 -38 -31 -59 -67 -59zM569 676c33 0 58 0 93 3c-1 -17 -4 -36 -11 -53c-22 -8 -40 -15 -87 -91
c-64 -103 -120 -188 -178 -269l-22 -126c-12 -64 -6 -78 70 -90c4 -17 5 -35 3 -53c-43 3 -96 3 -147 3c-57 0 -115 0 -156 -3c0 21 4 40 10 53c72 11 85 24 98 100l20 117c-27 91 -57 178 -91 265c-30 77 -41 86 -70 95c-3 15 -3 32 -1 52c41 -3 90 -3 124 -3
c39 0 87 0 140 3c0 -20 -4 -38 -10 -53c-63 -9 -75 -27 -56 -80c26 -69 47 -143 67 -220c43 64 84 131 125 204c34 62 34 86 -22 96c-4 17 -4 34 -1 53c33 -3 66 -3 102 -3z" />
    <glyph glyph-name="Zacute" unicode="&#x179;" horiz-adv-x="545" 
d="M517 924c-55 -53 -113 -118 -159 -181c-20 2 -38 9 -52 20c41 65 75 131 90 172c47 10 93 6 121 -11zM568 679c9 -12 15 -30 14 -52c-143 -198 -280 -382 -435 -574h112c113 0 146 22 192 133c26 -5 47 -14 65 -29c-18 -44 -38 -107 -47 -160c-90 3 -171 3 -255 3
c-91 0 -149 0 -222 -3c-8 13 -13 31 -12 52c158 193 298 376 438 574h-107c-80 0 -117 -23 -160 -134c-29 2 -50 8 -67 22c19 44 38 113 47 168c72 -3 145 -3 230 -3c69 0 134 0 207 3z" />
    <glyph glyph-name="zacute" unicode="&#x17a;" horiz-adv-x="415" 
d="M307 717c47 10 93 6 121 -11c-55 -53 -113 -118 -159 -181c-20 2 -38 9 -52 20c41 65 75 131 90 172zM399 412c-59 -101 -153 -217 -262 -317c45 14 74 4 110 4c41 0 51 11 72 54c21 1 43 -4 59 -14c-16 -35 -26 -84 -29 -125c-9 -16 -30 -23 -88 -23
c-66 0 -114 9 -170 9c-27 0 -54 -2 -87 -9c-9 14 -14 34 -12 52c132 111 233 218 295 310c-20 5 -41 7 -66 7c-66 0 -85 -12 -114 -60c-22 0 -44 7 -56 20c23 43 40 90 47 138c38 4 87 7 144 7c54 0 101 -2 141 -7c9 -12 16 -31 16 -46z" />
    <glyph glyph-name="Zdotaccent" unicode="&#x17b;" horiz-adv-x="545" 
d="M360 744c-48 0 -67 27 -62 64c7 43 41 69 84 69c46 0 70 -28 63 -68c-7 -39 -39 -65 -85 -65zM568 679c9 -12 15 -30 14 -52c-143 -198 -280 -382 -435 -574h112c113 0 146 22 192 133c26 -5 47 -14 65 -29c-18 -44 -38 -107 -47 -160c-90 3 -171 3 -255 3
c-91 0 -149 0 -222 -3c-8 13 -13 31 -12 52c158 193 298 376 438 574h-107c-80 0 -117 -23 -160 -134c-29 2 -50 8 -67 22c19 44 38 113 47 168c72 -3 145 -3 230 -3c69 0 134 0 207 3z" />
    <glyph glyph-name="zdotaccent" unicode="&#x17c;" horiz-adv-x="415" 
d="M273 522c-40 0 -62 28 -54 70c8 41 39 67 81 67c40 0 64 -28 55 -71c-7 -41 -37 -66 -82 -66zM319 153c21 1 43 -4 59 -14c-16 -35 -26 -84 -29 -125c-9 -16 -30 -23 -88 -23c-66 0 -114 9 -170 9c-27 0 -54 -2 -87 -9c-9 14 -14 34 -12 52c132 111 233 218 295 310
c-20 5 -41 7 -66 7c-66 0 -85 -12 -114 -60c-22 0 -44 7 -56 20c23 43 40 90 47 138c38 4 87 7 144 7c54 0 101 -2 141 -7c9 -12 16 -31 16 -46c-59 -101 -153 -217 -262 -317c45 14 74 4 110 4c41 0 51 11 72 54z" />
    <glyph glyph-name="Zcaron" unicode="&#x17d;" horiz-adv-x="545" 
d="M380 741c-16 -7 -34 -9 -49 -6c-33 49 -75 106 -120 153c6 20 18 32 39 36c39 -31 87 -65 127 -88c54 25 102 53 140 82c16 -4 28 -17 34 -33c-56 -39 -120 -92 -171 -144zM568 679c9 -12 15 -30 14 -52c-143 -198 -280 -382 -435 -574h112c113 0 146 22 192 133
c26 -5 47 -14 65 -29c-18 -44 -38 -107 -47 -160c-90 3 -171 3 -255 3c-91 0 -149 0 -222 -3c-8 13 -13 31 -12 52c158 193 298 376 438 574h-107c-80 0 -117 -23 -160 -134c-29 2 -50 8 -67 22c19 44 38 113 47 168c72 -3 145 -3 230 -3c69 0 134 0 207 3z" />
    <glyph glyph-name="zcaron" unicode="&#x17e;" horiz-adv-x="415" 
d="M291 523c-16 -7 -34 -9 -49 -6c-33 49 -75 106 -120 153c6 20 18 32 39 36c39 -31 87 -65 127 -88c54 25 102 53 140 82c16 -4 28 -17 34 -33c-56 -39 -120 -92 -171 -144zM399 412c-59 -101 -153 -217 -262 -317c45 14 74 4 110 4c41 0 51 11 72 54c21 1 43 -4 59 -14
c-16 -35 -26 -84 -29 -125c-9 -16 -30 -23 -88 -23c-66 0 -114 9 -170 9c-27 0 -54 -2 -87 -9c-9 14 -14 34 -12 52c132 111 233 218 295 310c-20 5 -41 7 -66 7c-66 0 -85 -12 -114 -60c-22 0 -44 7 -56 20c23 43 40 90 47 138c38 4 87 7 144 7c54 0 101 -2 141 -7
c9 -12 16 -31 16 -46z" />
    <glyph glyph-name="longs" unicode="&#x17f;" horiz-adv-x="303" 
d="M378 714c51 0 92 -11 110 -23c-14 -33 -25 -84 -26 -121c-13 -7 -38 -11 -58 -10c-3 62 -17 100 -56 100c-44 0 -66 -40 -99 -212c-26 -138 -42 -247 -54 -316c-35 -215 -122 -380 -247 -380c-33 0 -67 13 -95 40c-1 23 3 51 12 72c31 -12 69 -18 109 -18
c51 0 68 15 95 206c13 92 24 202 45 338c-26 5 -51 8 -73 8c0 18 3 38 12 50h70l1 6c31 174 117 260 254 260z" />
    <glyph glyph-name="florin" unicode="&#x192;" horiz-adv-x="390" 
d="M378 714c50 0 91 -11 109 -23c-14 -33 -24 -84 -26 -121c-12 -7 -38 -11 -58 -10c-3 69 -19 100 -56 100c-45 0 -66 -42 -99 -212h97c0 -19 -2 -39 -7 -51c-37 0 -71 -4 -101 -9c-21 -120 -34 -213 -43 -265c-41 -245 -100 -371 -269 -371c-48 0 -90 11 -108 23
c14 33 25 84 26 121c13 7 38 11 59 10c1 -63 18 -100 52 -100c49 0 91 75 114 246c9 63 28 226 45 338c-25 5 -51 8 -73 8c0 18 4 38 12 50h71l1 6c35 182 116 260 254 260z" />
    <glyph glyph-name="Oslashacute" unicode="&#x1fe;" horiz-adv-x="741" 
d="M615 924c-55 -53 -113 -118 -159 -181c-20 2 -38 9 -52 20c41 65 75 131 90 172c47 10 93 6 121 -11zM730 660l-65 -66c56 -65 79 -162 55 -287c-34 -179 -179 -316 -375 -316c-75 0 -138 20 -186 57l-50 -57c-25 0 -48 11 -55 30l63 67c-55 67 -76 164 -54 280
c36 185 188 317 375 317c72 0 135 -18 184 -53l50 53c26 0 47 -10 58 -25zM196 375c-14 -74 -13 -143 3 -198l357 383c-31 46 -77 72 -134 72c-111 0 -199 -111 -226 -257zM591 310c14 76 10 144 -9 197c-119 -125 -244 -261 -358 -387c29 -47 75 -76 136 -76
c120 0 203 112 231 266z" />
    <glyph glyph-name="oslashacute" unicode="&#x1ff;" horiz-adv-x="504" 
d="M463 706c-55 -53 -113 -118 -159 -181c-20 2 -38 9 -52 20c41 65 75 131 90 172c47 10 93 6 121 -11zM514 462c-20 -19 -43 -42 -68 -66c26 -41 35 -96 24 -161c-24 -144 -128 -244 -263 -244c-46 0 -83 11 -112 31l-44 -49c-21 0 -43 10 -54 25l60 63
c-28 43 -37 101 -24 169c25 144 128 237 262 237c48 0 87 -12 116 -34l48 50c23 1 43 -8 55 -21zM160 239c-6 -28 -8 -54 -8 -78l188 198c-10 33 -31 53 -60 53c-54 0 -101 -70 -120 -173zM343 227c4 25 7 48 6 70c-62 -65 -128 -136 -187 -201c11 -32 30 -50 57 -50
c55 0 105 73 124 181z" />
    <glyph glyph-name="Scommaaccent" unicode="&#x218;" horiz-adv-x="480" 
d="M311 685c73 0 130 -21 163 -48c-7 -46 -11 -92 -11 -136c-20 -7 -46 -9 -71 -6c-2 99 -38 135 -97 135c-57 0 -95 -25 -105 -84c-25 -154 295 -162 256 -385c-18 -102 -117 -170 -236 -170c-104 0 -157 27 -211 72c16 47 28 95 32 143c22 7 49 8 72 2
c-8 -112 23 -160 116 -160c54 0 99 35 108 87c30 159 -286 151 -242 396c17 97 103 154 226 154zM237 -41c26 -10 34 -34 28 -72c-12 -74 -70 -134 -136 -177c-16 5 -28 13 -33 27c35 28 57 59 61 83c3 22 -9 35 -39 38c-1 26 7 51 21 70c37 5 71 15 98 31z" />
    <glyph glyph-name="scommaaccent" unicode="&#x219;" horiz-adv-x="399" 
d="M242 467c53 0 110 -15 143 -33c-11 -35 -18 -75 -19 -117c-18 -9 -41 -11 -64 -10c-1 76 -23 106 -68 106c-33 0 -52 -14 -57 -36c-19 -86 190 -126 160 -277c-16 -78 -76 -109 -178 -109c-69 0 -122 18 -154 39c13 42 18 80 19 117c19 8 42 11 64 9
c-2 -68 18 -110 77 -110c35 0 54 15 59 36c17 78 -182 130 -153 277c14 75 77 108 171 108zM173 -41c26 -10 34 -34 28 -72c-12 -74 -70 -134 -136 -177c-16 5 -28 13 -33 27c35 28 57 59 61 83c3 22 -9 35 -39 38c-1 26 7 51 21 70c37 5 71 15 98 31z" />
    <glyph glyph-name="uni021A" unicode="&#x21a;" horiz-adv-x="572" 
d="M630 679c-8 -49 -13 -110 -11 -169c-19 -8 -39 -9 -62 -8c-3 91 -22 125 -101 125h-34l-85 -487c-11 -64 -5 -80 71 -90c3 -17 4 -35 2 -53c-43 3 -96 3 -147 3c-57 0 -115 0 -156 -3c0 21 5 40 10 53c71 9 85 24 98 100l83 477h-39c-73 0 -106 -38 -136 -128
c-25 0 -45 3 -60 16c15 44 31 115 38 164c62 -3 151 -3 261 -3s200 0 268 3zM283 -41c26 -10 34 -34 28 -72c-12 -74 -70 -134 -136 -177c-16 5 -28 13 -33 27c35 28 57 59 61 83c3 22 -9 35 -39 38c-1 26 7 51 21 70c37 5 71 15 98 31z" />
    <glyph glyph-name="uni021B" unicode="&#x21b;" horiz-adv-x="343" 
d="M237 388l-41 -174c-26 -112 -11 -146 21 -146c21 0 47 15 66 38c11 -10 21 -28 23 -44c-28 -35 -88 -71 -142 -71c-96 0 -123 72 -90 215l43 184c-25 5 -50 8 -73 8c0 18 4 38 12 50h75l2 10c14 61 23 106 25 134c34 4 76 15 99 28c25 -10 25 -39 3 -134l-9 -38h106
c0 -19 -2 -39 -8 -51c-49 0 -83 -3 -112 -9zM181 -41c26 -10 34 -34 28 -72c-12 -74 -70 -134 -136 -177c-16 5 -28 13 -33 27c35 28 57 59 61 83c3 22 -9 35 -39 38c-1 26 7 51 21 70c37 5 71 15 98 31z" />
    <glyph glyph-name="dotlessj" unicode="&#x237;" horiz-adv-x="254" 
d="M46 426c46 3 114 23 149 41c32 -18 42 -34 23 -131l-45 -248c-34 -182 -109 -272 -267 -336c-12 11 -18 25 -19 46c88 58 139 138 160 253l46 249c11 64 8 78 -55 78c-1 16 1 33 8 48z" />
    <glyph glyph-name="uni02BC" unicode="&#x2bc;" horiz-adv-x="216" 
d="M238 733c24 -13 35 -43 23 -102c-14 -75 -68 -152 -137 -206c-20 1 -35 11 -42 26c79 74 122 157 35 175c0 26 7 57 19 76c35 2 78 16 102 31z" />
    <glyph glyph-name="circumflex" unicode="&#x2c6;" horiz-adv-x="395" 
d="M266 709c17 2 35 0 51 -7c31 -48 67 -94 110 -143c-9 -15 -27 -27 -47 -30c-37 31 -78 58 -118 80c-47 -24 -98 -54 -139 -84c-15 12 -24 34 -23 52c59 39 118 86 166 132z" />
    <glyph glyph-name="caron" unicode="&#x2c7;" horiz-adv-x="414" 
d="M434 700c16 -4 28 -17 34 -33c-56 -39 -120 -92 -171 -144c-16 -7 -34 -9 -49 -6c-33 49 -75 106 -120 153c6 20 18 32 39 36c39 -31 87 -65 127 -88c54 25 102 53 140 82z" />
    <glyph glyph-name="firsttonechinese" unicode="&#x2c9;" horiz-adv-x="423" 
d="M114 631h352c0 -14 -3 -31 -9 -47c-127 0 -245 -1 -352 -4c0 11 2 37 9 51z" />
    <glyph glyph-name="breve" unicode="&#x2d8;" horiz-adv-x="421" 
d="M479 700c-21 -113 -98 -176 -213 -176c-113 0 -164 61 -142 171c18 8 41 12 60 11c-3 -63 39 -101 109 -101s123 38 139 101c20 1 37 -1 47 -6z" />
    <glyph glyph-name="dotaccent" unicode="&#x2d9;" horiz-adv-x="275" 
d="M215 659c40 0 64 -28 55 -71c-7 -41 -37 -66 -82 -66c-40 0 -62 28 -54 70c8 41 39 67 81 67z" />
    <glyph glyph-name="ring" unicode="&#x2da;" horiz-adv-x="289" 
d="M231 714c84 0 109 -56 98 -107c-10 -51 -53 -84 -119 -84c-79 0 -111 47 -99 105c11 52 54 86 120 86zM226 674c-26 0 -44 -23 -49 -53c-5 -32 9 -54 38 -54c22 0 39 13 46 43c7 31 -5 64 -35 64z" />
    <glyph glyph-name="ogonek" unicode="&#x2db;" horiz-adv-x="299" 
d="M118 46l54 -22c-71 -24 -113 -71 -121 -117c-6 -37 12 -63 49 -63c12 0 24 3 32 8c13 -11 20 -27 22 -44c-30 -15 -60 -36 -81 -57c-7 -1 -12 -2 -22 -2c-69 0 -119 33 -109 108c8 65 56 131 176 189z" />
    <glyph glyph-name="tilde" unicode="&#x2dc;" horiz-adv-x="422" 
d="M232 644c55 0 88 -42 128 -42c30 0 56 15 78 36c10 -8 19 -19 23 -35c-47 -72 -84 -93 -121 -93c-54 0 -86 44 -133 44c-31 0 -62 -13 -95 -41c-11 11 -17 24 -16 41c58 72 103 90 136 90z" />
    <glyph glyph-name="hungarumlaut" unicode="&#x2dd;" horiz-adv-x="417" 
d="M185 717c47 10 93 6 121 -11c-55 -53 -113 -118 -159 -181c-20 2 -38 9 -52 20c41 65 75 131 90 172zM356 717c47 10 93 6 121 -11c-55 -53 -113 -118 -159 -181c-19 2 -38 9 -52 20c41 65 75 131 90 172z" />
    <glyph glyph-name="uni0326" unicode="&#x326;" horiz-adv-x="0" 
d="M63 -41c26 -10 34 -34 28 -72c-12 -74 -70 -134 -136 -177c-16 5 -28 13 -33 27c35 28 57 59 61 83c3 22 -9 35 -39 38c-1 26 7 51 21 70c37 5 71 15 98 31z" />
    <glyph glyph-name="mu" unicode="&#x3bc;" horiz-adv-x="538" 
d="M221 458l-35 -181c-24 -125 -4 -184 36 -184c44 0 99 77 127 231l26 134h119l-47 -249c-25 -127 -25 -137 -4 -137c12 0 24 8 44 27c10 -10 19 -27 22 -42c-35 -39 -83 -66 -126 -66c-60 0 -76 39 -64 96c4 22 7 34 11 43h-1c-32 -88 -86 -139 -137 -139
c-40 0 -60 23 -68 56h-1c1 -34 -3 -73 -10 -107c-8 -39 -12 -87 -7 -117c-38 -12 -96 -41 -127 -65c-13 9 -18 22 -13 46c6 30 20 50 39 154l96 500h120z" />
    <glyph glyph-name="pi" unicode="&#x3c0;" horiz-adv-x="554" 
d="M557 521c21 -6 42 -13 54 -24c-16 -40 -29 -90 -36 -130c-8 -12 -18 -18 -90 -18h-22c-12 -49 -24 -99 -33 -145c-21 -107 -12 -124 21 -124c17 0 34 5 47 7c7 -14 10 -30 8 -51c-30 -28 -64 -46 -106 -46c-60 0 -90 36 -70 135c11 55 41 145 77 226c-54 2 -113 5 -154 6
c-48 -244 -94 -342 -111 -357c-38 0 -73 -2 -103 -9c-9 14 -10 35 -6 57c87 61 143 220 162 310c-59 0 -78 -7 -126 -45c-18 5 -31 22 -36 40c67 85 130 110 230 110c46 0 160 -5 198 -5c58 0 75 12 96 63z" />
    <glyph glyph-name="Wgrave" unicode="&#x1e80;" horiz-adv-x="967" 
d="M643 756c-15 -5 -37 -5 -52 1c-26 52 -65 112 -105 163c33 11 76 14 113 4c9 -54 22 -111 44 -168zM942 676c34 0 67 0 97 3c0 -18 -3 -36 -10 -53c-34 -12 -54 -38 -102 -151c-69 -158 -141 -317 -221 -476c-15 -6 -41 -6 -60 -2c-24 157 -59 334 -101 493
c-77 -165 -162 -333 -248 -491c-14 -6 -43 -6 -59 -2c-28 199 -56 376 -83 520c-17 92 -21 100 -52 110c-4 15 -5 33 -3 52c52 -3 95 -3 124 -3c34 0 89 0 133 3c-1 -20 -3 -37 -9 -53c-72 -12 -80 -36 -66 -117c15 -93 35 -213 51 -327c84 161 165 327 243 495
c15 6 33 8 53 6c42 -157 81 -331 108 -495c51 101 96 202 137 302c40 100 34 124 -28 136c-4 17 -4 35 -1 53c28 -3 65 -3 97 -3z" />
    <glyph glyph-name="wgrave" unicode="&#x1e81;" horiz-adv-x="733" 
d="M415 538c-15 -5 -37 -5 -52 1c-26 52 -65 112 -105 163c33 11 76 14 113 4c9 -54 22 -111 44 -168zM650 467c37 -13 60 -43 60 -107c0 -82 -52 -186 -243 -369c-21 -1 -44 3 -60 12c-8 80 -18 149 -31 211c-27 -78 -75 -138 -169 -223c-21 -1 -45 3 -60 12
c-12 123 -33 237 -53 314c-13 47 -24 63 -76 60c0 12 2 35 7 49c39 4 98 25 125 41c34 -11 39 -28 53 -96c21 -94 37 -197 45 -276c90 108 109 190 69 338c30 6 57 19 75 34c29 -8 35 -20 53 -95c23 -93 44 -196 55 -276c71 86 98 154 98 200c0 54 -23 78 -69 81
c-4 16 -5 32 -2 48c40 8 100 28 123 42z" />
    <glyph glyph-name="Wacute" unicode="&#x1e82;" horiz-adv-x="967" 
d="M777 924c-55 -53 -113 -118 -159 -181c-20 2 -38 9 -52 20c41 65 75 131 90 172c47 10 93 6 121 -11zM942 676c34 0 67 0 97 3c0 -18 -3 -36 -10 -53c-34 -12 -54 -38 -102 -151c-69 -158 -141 -317 -221 -476c-15 -6 -41 -6 -60 -2c-24 157 -59 334 -101 493
c-77 -165 -162 -333 -248 -491c-14 -6 -43 -6 -59 -2c-28 199 -56 376 -83 520c-17 92 -21 100 -52 110c-4 15 -5 33 -3 52c52 -3 95 -3 124 -3c34 0 89 0 133 3c-1 -20 -3 -37 -9 -53c-72 -12 -80 -36 -66 -117c15 -93 35 -213 51 -327c84 161 165 327 243 495
c15 6 33 8 53 6c42 -157 81 -331 108 -495c51 101 96 202 137 302c40 100 34 124 -28 136c-4 17 -4 35 -1 53c28 -3 65 -3 97 -3z" />
    <glyph glyph-name="wacute" unicode="&#x1e83;" horiz-adv-x="733" 
d="M550 706c-55 -53 -113 -118 -159 -181c-20 2 -38 9 -52 20c41 65 75 131 90 172c47 10 93 6 121 -11zM650 467c37 -13 60 -43 60 -107c0 -82 -52 -186 -243 -369c-21 -1 -44 3 -60 12c-8 80 -18 149 -31 211c-27 -78 -75 -138 -169 -223c-21 -1 -45 3 -60 12
c-12 123 -33 237 -53 314c-13 47 -24 63 -76 60c0 12 2 35 7 49c39 4 98 25 125 41c34 -11 39 -28 53 -96c21 -94 37 -197 45 -276c90 108 109 190 69 338c30 6 57 19 75 34c29 -8 35 -20 53 -95c23 -93 44 -196 55 -276c71 86 98 154 98 200c0 54 -23 78 -69 81
c-4 16 -5 32 -2 48c40 8 100 28 123 42z" />
    <glyph glyph-name="Wdieresis" unicode="&#x1e84;" horiz-adv-x="967" 
d="M536 740c-41 0 -63 31 -53 76c6 34 28 53 65 53c42 0 63 -29 54 -72c-10 -36 -32 -57 -66 -57zM711 741c-41 0 -63 28 -55 71c6 37 30 57 70 57c39 0 61 -27 52 -69c-7 -38 -31 -59 -67 -59zM942 676c34 0 67 0 97 3c0 -18 -3 -36 -10 -53c-34 -12 -54 -38 -102 -151
c-69 -158 -141 -317 -221 -476c-15 -6 -41 -6 -60 -2c-24 157 -59 334 -101 493c-77 -165 -162 -333 -248 -491c-14 -6 -43 -6 -59 -2c-28 199 -56 376 -83 520c-17 92 -21 100 -52 110c-4 15 -5 33 -3 52c52 -3 95 -3 124 -3c34 0 89 0 133 3c-1 -20 -3 -37 -9 -53
c-72 -12 -80 -36 -66 -117c15 -93 35 -213 51 -327c84 161 165 327 243 495c15 6 33 8 53 6c42 -157 81 -331 108 -495c51 101 96 202 137 302c40 100 34 124 -28 136c-4 17 -4 35 -1 53c28 -3 65 -3 97 -3z" />
    <glyph glyph-name="wdieresis" unicode="&#x1e85;" horiz-adv-x="733" 
d="M308 522c-41 0 -63 31 -53 76c6 34 28 53 65 53c42 0 63 -29 54 -72c-10 -36 -32 -57 -66 -57zM483 523c-41 0 -63 28 -55 71c6 37 30 57 70 57c39 0 61 -27 52 -69c-7 -38 -31 -59 -67 -59zM650 467c37 -13 60 -43 60 -107c0 -82 -52 -186 -243 -369
c-21 -1 -44 3 -60 12c-8 80 -18 149 -31 211c-27 -78 -75 -138 -169 -223c-21 -1 -45 3 -60 12c-12 123 -33 237 -53 314c-13 47 -24 63 -76 60c0 12 2 35 7 49c39 4 98 25 125 41c34 -11 39 -28 53 -96c21 -94 37 -197 45 -276c90 108 109 190 69 338c30 6 57 19 75 34
c29 -8 35 -20 53 -95c23 -93 44 -196 55 -276c71 86 98 154 98 200c0 54 -23 78 -69 81c-4 16 -5 32 -2 48c40 8 100 28 123 42z" />
    <glyph glyph-name="uni1E9E" unicode="&#x1e9e;" horiz-adv-x="682" 
d="M659 679c9 -14 15 -36 13 -58c-45 -63 -111 -151 -180 -230c112 -21 172 -99 151 -218c-18 -106 -101 -182 -244 -182c-78 0 -125 22 -162 60c15 41 26 95 29 133c20 8 49 10 70 3c-8 -106 6 -138 64 -138s98 56 108 113c19 108 -30 172 -152 189c-9 15 -13 33 -11 52
c59 63 126 146 180 223c-42 2 -73 3 -116 3c-83 0 -146 -45 -173 -209l-70 -420c-63 0 -117 0 -190 -3c0 20 4 37 11 53c52 6 65 19 77 91l50 285c34 203 157 253 310 253c46 0 89 -3 126 -3c36 0 74 0 109 3z" />
    <glyph glyph-name="Ygrave" unicode="&#x1ef2;" horiz-adv-x="590" 
d="M443 756c-15 -5 -37 -5 -52 1c-26 52 -65 112 -105 163c33 11 76 14 113 4c9 -54 22 -111 44 -168zM569 676c33 0 58 0 93 3c-1 -17 -4 -36 -11 -53c-22 -8 -40 -15 -87 -91c-64 -103 -120 -188 -178 -269l-22 -126c-12 -64 -6 -78 70 -90c4 -17 5 -35 3 -53
c-43 3 -96 3 -147 3c-57 0 -115 0 -156 -3c0 21 4 40 10 53c72 11 85 24 98 100l20 117c-27 91 -57 178 -91 265c-30 77 -41 86 -70 95c-3 15 -3 32 -1 52c41 -3 90 -3 124 -3c39 0 87 0 140 3c0 -20 -4 -38 -10 -53c-63 -9 -75 -27 -56 -80c26 -69 47 -143 67 -220
c43 64 84 131 125 204c34 62 34 86 -22 96c-4 17 -4 34 -1 53c33 -3 66 -3 102 -3z" />
    <glyph glyph-name="ygrave" unicode="&#x1ef3;" horiz-adv-x="482" 
d="M292 538c-15 -5 -37 -5 -52 1c-26 52 -65 112 -105 163c33 11 76 14 113 4c9 -54 22 -111 44 -168zM410 468c38 -14 55 -44 55 -83c0 -77 -51 -174 -191 -361c-176 -237 -224 -272 -300 -272c-35 0 -68 13 -96 40c-2 23 3 51 11 72c32 -12 69 -18 103 -18
c49 0 86 16 154 97c-10 151 -31 282 -57 374c-13 47 -23 63 -75 60c-1 19 1 35 7 49c38 4 97 25 124 41c30 -10 38 -22 51 -84c24 -112 38 -209 44 -313c80 115 111 196 111 249c0 32 -17 54 -63 58c-4 16 -4 32 -1 48c40 8 100 30 123 43z" />
    <glyph glyph-name="endash" unicode="&#x2013;" horiz-adv-x="521" 
d="M57 299h440c-1 -22 -7 -44 -19 -62c-134 0 -289 0 -438 -3c0 24 6 48 17 65z" />
    <glyph glyph-name="emdash" unicode="&#x2014;" horiz-adv-x="983" 
d="M59 298h900c-2 -24 -8 -45 -20 -62c-223 0 -512 0 -901 -3c2 28 9 49 21 65z" />
    <glyph glyph-name="quoteleft" unicode="&#x2018;" horiz-adv-x="259" 
d="M141 440c-28 14 -33 54 -23 102c11 56 43 118 112 175c20 -1 34 -11 42 -25c-75 -74 -82 -130 -11 -146c0 -26 -8 -56 -20 -76c-35 -2 -76 -15 -100 -30z" />
    <glyph glyph-name="quoteright" unicode="&#x2019;" horiz-adv-x="260" 
d="M254 717c28 -15 33 -54 23 -102c-11 -57 -42 -119 -112 -175c-20 1 -34 11 -42 25c76 74 82 130 12 145c0 26 7 57 19 77c35 2 76 15 100 30z" />
    <glyph glyph-name="quotesinglbase" unicode="&#x201a;" horiz-adv-x="222" 
d="M121 126c28 -15 33 -54 23 -102c-11 -57 -43 -119 -112 -176c-20 2 -35 12 -42 26c75 74 82 130 11 145c0 26 7 57 20 76c35 2 76 16 100 31z" />
    <glyph glyph-name="quotedblleft" unicode="&#x201c;" horiz-adv-x="425" 
d="M140 437c-28 15 -32 55 -23 102c11 57 43 119 112 176c20 -2 35 -12 42 -26c-70 -69 -80 -124 -15 -145c0 -26 -7 -57 -19 -76c-35 -2 -73 -16 -97 -31zM310 437c-30 16 -33 59 -21 107c12 58 40 115 102 166c20 -1 34 -12 41 -26c-74 -72 -73 -126 -6 -140
c0 -26 -7 -57 -19 -76c-35 -2 -73 -16 -97 -31z" />
    <glyph glyph-name="quotedblright" unicode="&#x201d;" horiz-adv-x="426" 
d="M251 717c31 -16 33 -58 21 -107c-12 -57 -40 -115 -101 -165c-21 1 -35 11 -42 25c74 73 73 126 6 140c0 26 7 57 19 77c35 2 73 15 97 30zM421 717c28 -15 33 -54 23 -102c-11 -57 -43 -119 -112 -175c-20 1 -34 11 -42 25c70 69 80 124 15 145c0 26 7 57 19 77
c35 2 73 15 97 30z" />
    <glyph glyph-name="quotedblbase" unicode="&#x201e;" horiz-adv-x="389" 
d="M117 126c31 -16 33 -59 21 -107c-12 -58 -40 -115 -101 -166c-20 1 -34 12 -42 26c74 72 73 126 6 140c0 26 7 57 20 76c35 2 72 16 96 31zM287 126c28 -15 33 -54 23 -102c-11 -57 -42 -119 -112 -176c-20 2 -34 12 -42 26c71 69 81 124 15 145c0 26 7 57 20 76
c35 2 72 16 96 31z" />
    <glyph glyph-name="dagger" unicode="&#x2020;" horiz-adv-x="470" 
d="M319 458h151c-1 -28 -13 -65 -30 -86c-45 11 -82 17 -136 20c-48 -210 -91 -423 -128 -642c-20 1 -37 4 -50 17c37 203 70 413 97 624c-59 -5 -102 -10 -151 -18c0 36 6 61 19 85h141c8 61 15 122 21 183c37 4 61 14 88 33c22 -12 24 -26 17 -53
c-13 -54 -26 -109 -39 -163z" />
    <glyph glyph-name="daggerdbl" unicode="&#x2021;" horiz-adv-x="466" 
d="M297 393l-6 -28c-16 -77 -16 -106 -4 -139c-21 -25 -30 -54 -43 -133l-4 -26c62 4 106 10 157 18c0 -35 -6 -61 -19 -85h-145c-5 -44 -10 -101 -17 -183c-37 -5 -61 -14 -88 -33c-22 12 -25 26 -17 52c20 73 34 124 45 164h-157c1 28 13 65 30 86c47 -11 86 -17 143 -21
l6 30c16 75 16 104 4 137c21 26 30 54 43 136l3 23c-61 -4 -105 -10 -156 -18c0 36 6 61 19 85h145c5 44 10 100 17 183c37 4 61 14 88 33c22 -12 25 -26 17 -53c-20 -73 -34 -124 -45 -163h157c-1 -28 -13 -65 -30 -86c-48 11 -86 17 -143 21z" />
    <glyph glyph-name="bullet" unicode="&#x2022;" horiz-adv-x="318" 
d="M179 398c79 0 124 -62 110 -134c-12 -63 -59 -103 -125 -103c-87 0 -129 67 -114 142c11 55 59 95 129 95z" />
    <glyph glyph-name="ellipsis" unicode="&#x2026;" horiz-adv-x="774" 
d="M81 129c38 0 70 -31 61 -79c-7 -36 -31 -58 -69 -58c-47 0 -75 31 -64 80c6 34 33 57 72 57zM361 129c38 0 69 -31 60 -79c-7 -36 -30 -58 -69 -58c-46 0 -74 31 -64 80c7 34 34 57 73 57zM640 129c38 0 70 -31 61 -79c-8 -36 -31 -58 -69 -58c-47 0 -75 31 -64 80
c6 34 33 57 72 57z" />
    <glyph glyph-name="perthousand" unicode="&#x2030;" horiz-adv-x="1027" 
d="M97 38l516 647c22 -11 37 -26 41 -48c-202 -244 -321 -391 -518 -646c-20 8 -37 27 -39 47zM252 677c95 0 145 -72 123 -181c-17 -82 -79 -137 -153 -137c-100 0 -153 73 -131 183c17 81 81 135 161 135zM241 626c-33 0 -61 -33 -70 -82c-15 -80 7 -134 56 -134
c32 0 59 33 69 82c15 80 -7 134 -55 134zM523 309c95 0 145 -72 123 -181c-17 -82 -79 -137 -153 -137c-99 0 -152 73 -131 183c17 81 81 135 161 135zM855 309c95 0 145 -72 123 -181c-17 -82 -79 -137 -153 -137c-100 0 -153 73 -131 183c17 81 81 135 161 135zM512 258
c-33 0 -61 -33 -70 -82c-15 -80 8 -134 56 -134c32 0 60 33 69 82c15 80 -6 134 -55 134zM844 258c-33 0 -61 -33 -70 -82c-15 -80 7 -134 56 -134c32 0 59 33 69 82c15 80 -7 134 -55 134z" />
    <glyph glyph-name="minute" unicode="&#x2032;" horiz-adv-x="225" 
d="M251 667c-24 -54 -61 -120 -100 -208c-19 0 -33 3 -47 11c25 75 44 153 59 221c27 4 59 14 80 24c14 -3 20 -18 8 -48z" />
    <glyph glyph-name="second" unicode="&#x2033;" horiz-adv-x="399" 
d="M243 715c14 -3 20 -18 8 -48c-24 -54 -61 -120 -100 -208c-19 0 -33 3 -47 11c25 75 44 153 59 221c27 4 59 14 80 24zM416 715c15 -3 21 -18 9 -48c-24 -54 -61 -120 -100 -208c-19 0 -33 3 -47 11c25 75 44 153 59 221c27 4 59 14 79 24z" />
    <glyph glyph-name="guilsinglleft" unicode="&#x2039;" horiz-adv-x="268" 
d="M206 417c-48 -49 -95 -88 -151 -134c-10 -12 -17 -32 -18 -53c40 -42 86 -97 128 -154c15 9 27 22 35 40c-19 34 -52 103 -64 143c25 37 82 101 115 136c-8 11 -26 21 -45 22z" />
    <glyph glyph-name="guilsinglright" unicode="&#x203a;" horiz-adv-x="275" 
d="M127 415c32 -43 70 -87 111 -130c7 -17 6 -37 1 -53c-58 -47 -121 -101 -177 -152c-14 10 -23 26 -25 44c37 35 85 83 115 120c-16 43 -47 111 -72 158c14 11 31 14 47 13z" />
    <glyph glyph-name="uni203D" unicode="&#x203d;" horiz-adv-x="595" 
d="M392 715c130 0 197 -63 183 -157c-21 -144 -201 -176 -236 -327c-22 -3 -44 0 -60 8c16 131 11 245 14 334c34 5 75 19 100 35c19 -10 25 -23 18 -54c-14 -69 -64 -141 -90 -258c41 125 127 162 137 268c7 63 -20 100 -85 100c-56 0 -103 -26 -135 -131
c-28 0 -43 4 -59 14c15 51 21 78 24 124c43 27 123 44 189 44zM282 129c38 0 70 -31 61 -79c-7 -36 -30 -59 -69 -59c-47 0 -74 31 -64 81c6 34 33 57 72 57z" />
    <glyph glyph-name="fraction" unicode="&#x2044;" horiz-adv-x="460" 
d="M-37 38l541 678c23 -10 37 -26 41 -48c-202 -244 -346 -422 -544 -677c-19 8 -36 27 -38 47z" />
    <glyph glyph-name="Euro" unicode="&#x20ac;" horiz-adv-x="692" 
d="M522 685c83 0 147 -17 213 -57c-17 -46 -26 -95 -33 -152c-19 -8 -42 -9 -65 -4c16 133 -31 162 -110 162c-127 0 -213 -95 -250 -221h243c-1 -22 -7 -44 -18 -61c-74 0 -155 0 -238 -1l-2 -14c-2 -19 -4 -37 -4 -55h243c0 -22 -6 -44 -17 -62h-220
c16 -93 74 -159 184 -159c64 0 127 19 185 53c12 -12 18 -28 19 -47c-74 -52 -152 -76 -240 -76c-164 0 -262 93 -283 227l-76 -1c-4 23 0 48 11 65h61c0 18 1 36 4 55l2 13c-22 -1 -45 -1 -67 -2c-2 24 3 48 16 65h66c58 188 224 272 376 272z" />
    <glyph glyph-name="uni2113" unicode="&#x2113;" horiz-adv-x="359" 
d="M324 573c-17 -92 -71 -168 -141 -227c-40 -244 -10 -273 33 -273c16 0 31 6 52 25c11 -10 19 -26 22 -40c-42 -47 -86 -67 -134 -67c-103 0 -145 89 -93 373c40 220 104 346 194 346c48 0 88 -34 67 -137zM268 656c-12 0 -36 -26 -73 -237c50 48 71 96 82 149
c13 56 3 88 -9 88z" />
    <glyph glyph-name="trademark" unicode="&#x2122;" horiz-adv-x="975" 
d="M476 713c-6 -28 -9 -70 -8 -102c-16 -6 -32 -8 -53 -7c2 49 -10 70 -46 70h-9l-40 -207c-9 -47 2 -58 42 -60c4 -15 5 -32 5 -49c-19 1 -61 2 -102 2c-43 0 -95 -1 -118 -2c0 16 1 33 6 49c44 2 59 12 68 60l40 207h-6c-40 0 -59 -23 -74 -70c-17 -1 -37 1 -49 8
c11 32 21 68 27 101c41 -1 77 -1 159 -1c72 0 116 0 158 1zM925 615l-13 -148c-6 -52 0 -57 26 -60c4 -16 5 -32 5 -49c-14 1 -73 2 -98 2s-66 -1 -78 -2c0 19 1 34 5 49c31 4 36 8 40 55l13 146l-146 -249c-9 -3 -27 -4 -39 -4l-62 252l-36 -122c-20 -66 -13 -76 14 -78
c4 -15 5 -30 5 -49c-11 1 -36 2 -57 2s-54 -1 -64 -2c0 16 1 34 6 49c27 2 39 12 58 76l37 133c11 36 7 47 -23 47c-3 14 -4 30 -4 50c20 -1 53 -1 70 -1c16 0 56 0 78 1l51 -226l131 226c17 -1 42 -1 61 -1s51 0 69 1c0 -18 -1 -35 -5 -50c-29 -1 -39 -8 -44 -48z" />
    <glyph glyph-name="Ohm" unicode="&#x2126;" horiz-adv-x="749" 
d="M726 360c-20 -103 -100 -188 -216 -251h71c44 0 65 17 83 63c19 -4 42 -13 54 -24c-15 -40 -31 -92 -36 -132c-8 -12 -19 -18 -38 -18c-38 0 -140 2 -244 2c-9 15 -13 37 -10 57c147 128 185 203 204 303c34 174 -39 270 -149 270c-105 0 -214 -96 -247 -265
c-22 -114 -14 -175 87 -308c-4 -19 -13 -42 -22 -57c-140 0 -201 -2 -234 -2c-23 0 -34 15 -35 35c5 31 10 83 8 128c15 4 37 6 57 3c5 -46 17 -55 61 -55h76c-97 64 -149 154 -124 286c34 171 197 290 377 290c192 0 313 -137 277 -325z" />
    <glyph glyph-name="estimated" unicode="&#x212e;" horiz-adv-x="601" 
d="M161 296h433c-4 97 -32 171 -85 221c-53 49 -117 74 -192 74c-82 0 -148 -28 -199 -83c-52 -56 -77 -126 -77 -212s25 -156 76 -212s118 -84 200 -84c43 0 84 9 123 27s80 57 121 117l-37 23c-49 -86 -118 -129 -207 -129c-62 0 -114 21 -156 64v194zM161 334v155
c43 42 94 64 155 64c60 0 113 -21 157 -64v-155h-312z" />
    <glyph glyph-name="arrowleft" unicode="&#x2190;" horiz-adv-x="599" 
d="M575 305c-2 -34 -9 -61 -19 -77h-341c11 -26 22 -51 36 -74c20 -35 13 -56 -18 -69c-51 54 -129 121 -181 154c-7 16 -7 44 -2 59c71 33 131 75 192 122c26 21 52 18 66 -2c-31 -37 -63 -80 -87 -119c98 1 267 3 354 6z" />
    <glyph glyph-name="arrowright" unicode="&#x2192;" horiz-adv-x="599" 
d="M561 296c7 -16 8 -44 3 -59c-71 -33 -132 -75 -193 -122c-25 -21 -51 -18 -65 2c31 37 62 80 86 119c-99 -1 -267 -3 -353 -6c2 34 9 61 19 77h340c-10 26 -22 51 -36 74c-19 35 -12 56 19 69c50 -54 129 -121 180 -154z" />
    <glyph glyph-name="partialdiff" unicode="&#x2202;" horiz-adv-x="472" 
d="M202 736c227 -113 282 -257 247 -443c-35 -179 -176 -302 -299 -302c-101 0 -150 84 -123 219c28 146 131 257 278 257c13 0 26 -1 39 -3c-7 97 -55 166 -174 236c5 16 18 29 32 36zM327 286c8 42 14 80 17 114c-18 7 -40 10 -59 10c-73 0 -113 -66 -131 -158
c-23 -110 -1 -185 51 -185c44 0 92 61 122 219z" />
    <glyph glyph-name="increment" unicode="&#x2206;" horiz-adv-x="647" 
d="M433 685l166 -636c-5 -18 -13 -35 -27 -49h-583c-7 15 -12 31 -11 49l405 629c17 6 34 7 50 7zM346 529c-21 -38 -43 -70 -66 -110l-237 -366h420l-93 375c-10 36 -18 67 -24 101z" />
    <glyph glyph-name="product" unicode="&#x220f;" horiz-adv-x="891" 
d="M717 533v-489c0 -74 15 -91 68 -94c4 -13 6 -33 6 -53c-37 2 -84 3 -132 3c-47 0 -102 -1 -140 -3c0 20 2 39 7 53c53 3 67 20 67 94v489c0 43 -5 72 -25 84c-15 8 -40 10 -111 10s-97 -2 -112 -10c-20 -12 -25 -41 -25 -84v-489c0 -74 15 -91 68 -94c4 -13 6 -33 6 -53
c-37 2 -84 3 -132 3c-47 0 -102 -1 -140 -3c0 20 3 39 7 53c53 3 67 20 67 94v489c0 73 -14 89 -67 93c-5 14 -7 33 -7 53c36 -2 93 -3 266 -3h140c173 0 223 1 263 3c0 -20 -1 -38 -6 -53c-54 -4 -68 -20 -68 -93z" />
    <glyph glyph-name="summation" unicode="&#x2211;" horiz-adv-x="722" 
d="M609 119c24 -5 45 -13 60 -27c-15 -49 -29 -129 -34 -194c-81 2 -163 2 -280 2c-114 0 -202 0 -262 -2c-11 14 -15 30 -15 49c79 101 161 199 245 297c-79 127 -155 258 -228 391c1 17 6 33 14 43c68 -2 163 -2 257 -2c119 0 204 1 265 3c3 -47 10 -118 23 -166
c-16 -9 -38 -13 -61 -14c-12 85 -53 127 -151 127h-193c59 -109 120 -213 186 -313c3 -12 2 -28 -2 -38c-77 -88 -152 -176 -224 -266h236c108 0 137 28 164 110z" />
    <glyph glyph-name="minus" unicode="&#x2212;" horiz-adv-x="521" 
d="M57 299h440c-1 -22 -7 -44 -19 -62c-134 0 -289 0 -438 -3c0 24 6 48 17 65z" />
    <glyph glyph-name="divisionslash" unicode="&#x2215;" horiz-adv-x="292" 
d="M-33 24l356 693c24 -5 39 -14 52 -30c-132 -245 -235 -444 -357 -696c-24 5 -40 14 -51 33z" />
    <glyph glyph-name="bulletoperator" unicode="&#x2219;" horiz-adv-x="287" 
d="M131 358c46 0 84 -37 73 -94c-9 -43 -36 -71 -83 -71c-56 0 -89 38 -77 97c8 41 41 68 87 68z" />
    <glyph glyph-name="radical" unicode="&#x221a;" horiz-adv-x="548" 
d="M480 746h208c0 -19 -4 -38 -12 -52h-152l-190 -694c-15 -4 -33 -5 -49 -5l-156 340h-69c0 19 4 39 11 54h168l90 -208z" />
    <glyph glyph-name="infinity" unicode="&#x221e;" horiz-adv-x="936" 
d="M710 481c105 0 191 -76 191 -217c0 -136 -80 -213 -204 -213c-113 0 -180 65 -242 145c-73 -95 -131 -145 -215 -145c-105 0 -191 76 -191 216c0 132 78 214 200 214c119 0 190 -78 245 -149c78 102 135 149 216 149zM723 130c68 0 114 49 114 142c0 97 -50 156 -127 156
c-68 0 -115 -49 -183 -140c84 -112 132 -158 196 -158zM240 104c66 0 114 45 182 135c-82 107 -129 163 -198 163c-65 0 -111 -50 -111 -143c0 -98 52 -155 127 -155z" />
    <glyph glyph-name="integral" unicode="&#x222b;" horiz-adv-x="499" 
d="M390 814c49 0 90 -10 109 -23c-14 -33 -24 -84 -26 -121c-12 -7 -38 -11 -58 -10c-3 67 -19 100 -49 100c-54 0 -50 -89 -55 -452c-6 -437 -30 -556 -202 -556c-49 0 -89 10 -109 23c14 33 25 84 26 121c13 7 38 11 58 10c3 -67 19 -100 49 -100c54 0 51 89 55 452
c6 437 30 556 202 556z" />
    <glyph glyph-name="approxequal" unicode="&#x2248;" horiz-adv-x="574" 
d="M215 431c78 0 140 -64 212 -64c34 0 67 14 105 52c16 -4 30 -16 35 -31c-55 -72 -104 -99 -151 -99c-78 0 -133 69 -208 69c-39 0 -80 -18 -125 -68c-16 7 -26 18 -29 36c61 82 115 105 161 105zM181 260c78 0 140 -64 212 -64c34 0 68 13 105 51c17 -3 30 -15 36 -30
c-55 -72 -105 -99 -151 -99c-78 0 -134 69 -209 69c-39 0 -80 -19 -124 -68c-17 7 -27 18 -29 36c61 82 114 105 160 105z" />
    <glyph glyph-name="notequal" unicode="&#x2260;" horiz-adv-x="525" 
d="M491 308h-186c-19 -36 -37 -72 -55 -108h231c-1 -23 -7 -45 -19 -62c-76 0 -159 0 -244 -1c-28 -55 -56 -111 -85 -172c-19 3 -32 11 -41 26l75 146l-143 -2c0 24 6 48 18 65h158l55 107c-67 0 -135 -1 -202 -2c0 24 6 48 17 65h217l90 175c19 -4 31 -11 41 -24l-80 -151
h172c-1 -23 -7 -45 -19 -62z" />
    <glyph glyph-name="lessequal" unicode="&#x2264;" horiz-adv-x="487" 
d="M111 307l327 -161c6 -20 3 -48 -8 -65c-138 77 -256 134 -399 201c-2 18 5 42 19 59l434 196c22 -6 38 -23 43 -44zM-24 -2c0 24 3 45 12 60h440c0 -23 -3 -41 -12 -59c-80 1 -120 1 -207 1c-88 0 -139 0 -233 -2z" />
    <glyph glyph-name="greaterequal" unicode="&#x2265;" horiz-adv-x="490" 
d="M120 539l358 -205c7 -18 7 -42 1 -63c-167 -59 -308 -117 -472 -186c-7 21 -3 49 10 69l389 153l-343 194c13 21 32 32 57 38zM-16 -2c0 24 4 45 12 60h440c0 -23 -2 -41 -12 -59c-80 1 -120 1 -207 1c-88 0 -139 0 -233 -2z" />
    <glyph glyph-name="lozenge" unicode="&#x25ca;" horiz-adv-x="530" 
d="M42 259l229 303l229 -303l-229 -303zM434 259l-163 216l-163 -216l163 -215z" />
    <glyph glyph-name="uni2799" unicode="&#x2799;" horiz-adv-x="599" 
d="M561 296c7 -16 8 -44 3 -59c-71 -33 -132 -75 -193 -122c-25 -21 -51 -18 -65 2c31 37 62 80 86 119c-99 -1 -267 -3 -353 -6c2 34 9 61 19 77h340c-10 26 -22 51 -36 74c-19 35 -12 56 19 69c50 -54 129 -121 180 -154z" />
    <glyph glyph-name="uni2E18" unicode="&#x2e18;" horiz-adv-x="594" 
d="M312 329c-38 0 -70 31 -60 79c7 36 30 58 69 58c46 0 74 -31 64 -80c-7 -34 -34 -57 -73 -57zM202 -257c-130 0 -197 62 -183 157c21 143 201 175 236 327c22 2 44 0 60 -8c-16 -132 -10 -246 -14 -334c-34 -5 -75 -19 -100 -35c-19 9 -24 22 -18 53c15 69 64 142 90 259
c-40 -125 -126 -162 -136 -269c-8 -62 19 -99 85 -99c56 0 102 26 135 130c27 0 42 -3 58 -13c-15 -51 -20 -79 -23 -125c-44 -26 -123 -43 -190 -43z" />
    <glyph glyph-name="J.ss01" horiz-adv-x="485" 
d="M535 679c-1 -20 -5 -38 -10 -53c-53 -7 -68 -21 -81 -100l-54 -320c-25 -138 -115 -215 -249 -215c-66 0 -117 18 -152 49c14 39 24 87 28 132c22 6 49 7 71 1c-5 -80 14 -125 73 -125c52 0 81 34 102 146l59 337c11 69 2 88 -69 95c-4 17 -4 34 -2 53
c46 -3 89 -3 141 -3c61 0 96 0 143 3z" />
    <glyph glyph-name="Jcircumflex.ss01" horiz-adv-x="485" 
d="M419 927c17 2 35 0 51 -7c31 -48 67 -94 110 -143c-9 -15 -27 -27 -47 -30c-37 31 -78 58 -118 80c-47 -24 -98 -54 -139 -84c-15 12 -24 34 -23 52c59 39 118 86 166 132zM535 679c-1 -20 -5 -38 -10 -53c-53 -7 -68 -21 -81 -100l-54 -320
c-25 -138 -115 -215 -249 -215c-66 0 -117 18 -152 49c14 39 24 87 28 132c22 6 49 7 71 1c-5 -80 14 -125 73 -125c52 0 81 34 102 146l59 337c11 69 2 88 -69 95c-4 17 -4 34 -2 53c46 -3 89 -3 141 -3c61 0 96 0 143 3z" />
    <glyph glyph-name="Q.ss01" horiz-adv-x="741" 
d="M1051 -118c13 -7 26 -25 29 -42c-39 -42 -101 -82 -208 -82c-256 0 -249 224 -540 233c-198 7 -310 159 -269 377c36 185 188 317 375 317c199 0 329 -138 282 -378c-26 -135 -115 -247 -242 -293c210 -36 306 -157 476 -157c50 0 78 10 97 25zM196 375
c-35 -181 23 -331 164 -331c120 0 203 112 231 266c34 187 -42 322 -169 322c-111 0 -199 -111 -226 -257z" />
    <glyph glyph-name="uni1E9E.ss01" horiz-adv-x="691" 
d="M668 679c10 -14 15 -36 13 -58c-45 -63 -111 -151 -180 -230c113 -21 172 -99 152 -218c-19 -106 -102 -182 -245 -182c-78 0 -125 22 -162 60c15 41 27 95 30 133c19 8 48 10 69 3c-8 -106 7 -138 64 -138c58 0 99 56 109 113c18 108 -31 172 -153 189
c-9 15 -12 33 -10 52c58 63 125 146 179 223c-42 2 -73 3 -116 3c-83 0 -145 -45 -173 -209l-52 -299c-32 -185 -75 -282 -274 -369c-14 11 -18 29 -20 49c83 52 135 117 158 247l66 378c36 203 157 253 310 253c47 0 89 -3 127 -3c36 0 73 0 108 3z" />
    <glyph glyph-name="i.loclTRK" horiz-adv-x="275" 
d="M217 659c40 0 64 -28 55 -71c-7 -41 -37 -66 -82 -66c-40 0 -62 28 -54 70c8 41 39 67 81 67zM193 467c38 -17 49 -50 29 -125l-49 -191c-18 -66 -14 -78 4 -78c12 0 28 7 47 25c10 -9 19 -25 21 -42c-40 -42 -84 -65 -127 -65c-80 0 -92 62 -68 154l35 129
c25 93 22 104 -43 104c-1 17 1 34 8 48c45 3 107 23 143 41z" />
    <glyph glyph-name="f.calt" horiz-adv-x="328" 
d="M325 714c40 0 73 -7 94 -18c-14 -33 -21 -87 -22 -124c-14 -7 -39 -10 -61 -8c3 76 -6 95 -31 95s-40 -22 -61 -191l-3 -20h105c0 -18 -2 -37 -8 -51c-37 0 -74 -4 -104 -10c-11 -78 -21 -146 -38 -253c-36 -217 -123 -382 -248 -382c-33 0 -67 13 -95 40
c-1 23 3 51 12 72c31 -12 69 -18 109 -18c51 0 68 15 95 206c13 92 24 202 45 338c-26 5 -51 8 -73 8c-1 18 3 37 12 50h70l1 6c34 193 99 260 201 260z" />
    <glyph glyph-name="longs.calt" horiz-adv-x="304" 
d="M325 714c40 0 73 -7 94 -18c-14 -33 -21 -87 -22 -124c-14 -7 -39 -10 -61 -8c3 76 -6 95 -31 95s-40 -22 -61 -191c-15 -118 -25 -192 -48 -334c-36 -217 -123 -382 -248 -382c-33 0 -67 13 -95 40c-1 23 3 51 12 72c31 -12 69 -18 109 -18c51 0 68 15 95 206
c13 92 24 202 45 338c-26 5 -51 8 -73 8c-1 18 3 37 12 50h70l1 6c34 193 99 260 201 260z" />
    <glyph glyph-name="g.ss01" horiz-adv-x="486" 
d="M442 467c16 -10 22 -24 15 -64l-73 -409c-30 -173 -123 -244 -263 -244c-60 0 -116 11 -144 30c13 33 23 87 25 124c12 7 39 11 59 10c2 -78 21 -110 75 -110c61 0 103 49 124 161l11 68c7 37 21 88 41 142l7 19h-2c-40 -112 -117 -203 -203 -203c-88 0 -114 86 -87 219
c29 147 131 257 278 257c26 0 53 -5 73 -12c28 2 49 6 64 12zM181 86c35 0 113 85 150 250l15 63c-18 7 -41 11 -61 11c-73 0 -112 -65 -131 -158c-23 -107 -11 -166 27 -166z" />
    <glyph glyph-name="gbreve.ss01" horiz-adv-x="486" 
d="M301 524c-113 0 -164 61 -142 171c18 8 41 12 60 11c-3 -63 39 -101 109 -101s123 38 139 101c20 1 37 -1 47 -6c-21 -113 -98 -176 -213 -176zM442 467c16 -10 22 -24 15 -64l-73 -409c-30 -173 -123 -244 -263 -244c-60 0 -116 11 -144 30c13 33 23 87 25 124
c12 7 39 11 59 10c2 -78 21 -110 75 -110c61 0 103 49 124 161l11 68c7 37 21 88 41 142l7 19h-2c-40 -112 -117 -203 -203 -203c-88 0 -114 86 -87 219c29 147 131 257 278 257c26 0 53 -5 73 -12c28 2 49 6 64 12zM181 86c35 0 113 85 150 250l15 63c-18 7 -41 11 -61 11
c-73 0 -112 -65 -131 -158c-23 -107 -11 -166 27 -166z" />
    <glyph glyph-name="gcircumflex.ss01" horiz-adv-x="486" 
d="M369 702c31 -48 67 -94 110 -143c-9 -15 -27 -27 -47 -30c-37 31 -78 58 -118 80c-47 -24 -98 -54 -139 -84c-15 12 -24 34 -23 52c59 39 118 86 166 132c17 2 35 0 51 -7zM442 467c16 -10 22 -24 15 -64l-73 -409c-30 -173 -123 -244 -263 -244c-60 0 -116 11 -144 30
c13 33 23 87 25 124c12 7 39 11 59 10c2 -78 21 -110 75 -110c61 0 103 49 124 161l11 68c7 37 21 88 41 142l7 19h-2c-40 -112 -117 -203 -203 -203c-88 0 -114 86 -87 219c29 147 131 257 278 257c26 0 53 -5 73 -12c28 2 49 6 64 12zM181 86c35 0 113 85 150 250l15 63
c-18 7 -41 11 -61 11c-73 0 -112 -65 -131 -158c-23 -107 -11 -166 27 -166z" />
    <glyph glyph-name="gcommaaccent.ss01" horiz-adv-x="486" 
d="M266 509c-26 8 -34 37 -27 70c12 56 70 111 135 150c16 -5 28 -13 33 -27c-35 -25 -56 -52 -60 -66c-3 -14 4 -28 38 -30c0 -24 -7 -48 -21 -67c-37 -4 -71 -15 -98 -30zM442 467c16 -10 22 -24 15 -64l-73 -409c-30 -173 -123 -244 -263 -244c-60 0 -116 11 -144 30
c13 33 23 87 25 124c12 7 39 11 59 10c2 -78 21 -110 75 -110c61 0 103 49 124 161l11 68c7 37 21 88 41 142l7 19h-2c-40 -112 -117 -203 -203 -203c-88 0 -114 86 -87 219c29 147 131 257 278 257c26 0 53 -5 73 -12c28 2 49 6 64 12zM181 86c35 0 113 85 150 250l15 63
c-18 7 -41 11 -61 11c-73 0 -112 -65 -131 -158c-23 -107 -11 -166 27 -166z" />
    <glyph glyph-name="gdotaccent.ss01" horiz-adv-x="486" 
d="M308 522c-40 0 -62 28 -54 70c8 41 39 67 81 67c40 0 64 -28 55 -71c-7 -41 -37 -66 -82 -66zM442 467c16 -10 22 -24 15 -64l-73 -409c-30 -173 -123 -244 -263 -244c-60 0 -116 11 -144 30c13 33 23 87 25 124c12 7 39 11 59 10c2 -78 21 -110 75 -110
c61 0 103 49 124 161l11 68c7 37 21 88 41 142l7 19h-2c-40 -112 -117 -203 -203 -203c-88 0 -114 86 -87 219c29 147 131 257 278 257c26 0 53 -5 73 -12c28 2 49 6 64 12zM181 86c35 0 113 85 150 250l15 63c-18 7 -41 11 -61 11c-73 0 -112 -65 -131 -158
c-23 -107 -11 -166 27 -166z" />
    <glyph glyph-name="x.ss01" horiz-adv-x="503" 
d="M480 407c-11 -59 -64 -123 -181 -203c15 -38 30 -71 43 -93c20 -32 33 -37 46 -37s27 7 48 24c11 -12 17 -25 21 -41c-31 -35 -74 -66 -129 -66c-38 0 -59 14 -79 47c-18 27 -37 71 -56 117c-66 -54 -90 -91 -94 -123c-3 -22 7 -37 39 -39c5 -15 7 -34 5 -50
c-46 -6 -109 -24 -147 -41c-26 8 -34 28 -28 60c10 54 56 126 207 239c-19 52 -36 100 -44 126c-14 38 -24 53 -83 50c-2 18 1 35 7 49c38 4 105 24 131 41c26 -6 30 -16 42 -56c15 -47 34 -106 54 -161c47 35 65 63 68 88c3 22 -6 36 -41 39c-2 16 0 34 5 48
c42 8 99 24 138 42c27 -7 34 -30 28 -60z" />
    <glyph glyph-name="z.ss01" horiz-adv-x="415" 
d="M390 -19c21 -8 38 -23 47 -39c-30 -25 -58 -61 -74 -91c-8 -8 -21 -12 -38 -12c-109 0 -205 157 -295 157c-9 0 -17 -2 -26 -5c-9 14 -14 34 -12 52c132 111 233 218 295 310c-20 5 -41 7 -66 7c-66 0 -85 -12 -114 -60c-22 0 -44 7 -56 20c23 43 40 90 47 138
c38 4 87 7 144 7c54 0 101 -2 141 -7c9 -12 16 -31 16 -46c-67 -111 -168 -234 -292 -341c67 -2 164 -115 232 -115c22 0 38 12 51 25z" />
    <glyph glyph-name="zacute.ss01" horiz-adv-x="415" 
d="M417 706c-55 -53 -113 -118 -159 -181c-20 2 -38 9 -52 20c41 65 75 131 90 172c47 10 93 6 121 -11zM390 -19c21 -8 38 -23 47 -39c-30 -25 -58 -61 -74 -91c-8 -8 -21 -12 -38 -12c-109 0 -205 157 -295 157c-9 0 -17 -2 -26 -5c-9 14 -14 34 -12 52
c132 111 233 218 295 310c-20 5 -41 7 -66 7c-66 0 -85 -12 -114 -60c-22 0 -44 7 -56 20c23 43 40 90 47 138c38 4 87 7 144 7c54 0 101 -2 141 -7c9 -12 16 -31 16 -46c-67 -111 -168 -234 -292 -341c67 -2 164 -115 232 -115c22 0 38 12 51 25z" />
    <glyph glyph-name="zcaron.ss01" horiz-adv-x="415" 
d="M279 523c-16 -7 -34 -9 -49 -6c-33 49 -75 106 -120 153c6 20 18 32 39 36c39 -31 87 -65 127 -88c54 25 102 53 140 82c16 -4 28 -17 34 -33c-56 -39 -120 -92 -171 -144zM390 -19c21 -8 38 -23 47 -39c-30 -25 -58 -61 -74 -91c-8 -8 -21 -12 -38 -12
c-109 0 -205 157 -295 157c-9 0 -17 -2 -26 -5c-9 14 -14 34 -12 52c132 111 233 218 295 310c-20 5 -41 7 -66 7c-66 0 -85 -12 -114 -60c-22 0 -44 7 -56 20c23 43 40 90 47 138c38 4 87 7 144 7c54 0 101 -2 141 -7c9 -12 16 -31 16 -46c-67 -111 -168 -234 -292 -341
c67 -2 164 -115 232 -115c22 0 38 12 51 25z" />
    <glyph glyph-name="zdotaccent.ss01" horiz-adv-x="415" 
d="M262 522c-40 0 -62 28 -54 70c8 41 39 67 81 67c40 0 64 -28 55 -71c-7 -41 -37 -66 -82 -66zM390 -19c21 -8 38 -23 47 -39c-30 -25 -58 -61 -74 -91c-8 -8 -21 -12 -38 -12c-109 0 -205 157 -295 157c-9 0 -17 -2 -26 -5c-9 14 -14 34 -12 52c132 111 233 218 295 310
c-20 5 -41 7 -66 7c-66 0 -85 -12 -114 -60c-22 0 -44 7 -56 20c23 43 40 90 47 138c38 4 87 7 144 7c54 0 101 -2 141 -7c9 -12 16 -31 16 -46c-67 -111 -168 -234 -292 -341c67 -2 164 -115 232 -115c22 0 38 12 51 25z" />
    <glyph glyph-name="f_b" horiz-adv-x="805" 
d="M691 467c87 0 113 -85 87 -219c-29 -147 -131 -257 -278 -257h-2c-79 0 -132 20 -172 61c18 28 39 90 52 165l56 316c14 78 7 129 -58 129c-59 0 -96 -41 -127 -214h97c0 -19 -2 -39 -8 -51c-36 0 -71 -4 -100 -10c-20 -110 -33 -199 -43 -255
c-35 -215 -122 -380 -247 -380c-33 0 -67 13 -95 40c-1 23 3 51 12 72c31 -12 69 -18 109 -18c51 0 68 15 95 206c13 92 24 201 46 338c-26 5 -52 8 -74 8c0 18 3 38 12 50h70c36 184 136 266 274 266c47 0 82 -8 109 -21c17 4 31 9 43 17c23 -12 30 -30 23 -71l-35 -191
c-9 -54 -22 -98 -42 -151h6c42 96 112 170 190 170zM651 206c23 107 11 166 -27 166c-35 0 -114 -85 -150 -250l-15 -64c18 -7 40 -10 60 -10c74 0 113 66 132 158z" />
    <glyph glyph-name="f_h" horiz-adv-x="858" 
d="M807 98c11 -11 19 -26 22 -42c-44 -44 -86 -65 -128 -65c-90 0 -85 66 -63 167l24 104c19 85 7 111 -17 111c-46 0 -134 -97 -166 -259l-20 -114h-119l94 533c14 78 7 129 -58 129c-59 0 -96 -41 -127 -214h97c0 -19 -2 -39 -8 -51c-36 0 -71 -4 -100 -10
c-20 -110 -33 -199 -43 -255c-35 -215 -122 -380 -247 -380c-33 0 -67 13 -95 40c-1 23 3 51 12 72c31 -12 69 -18 109 -18c51 0 68 15 95 206c13 92 24 201 46 338c-26 5 -52 8 -74 8c0 18 3 38 12 50h70c36 184 136 266 274 266c47 0 82 -8 109 -21c17 4 31 9 43 17
c23 -12 30 -30 23 -71c-40 -220 -50 -271 -84 -376v-2l24 50c35 72 119 156 196 156c55 0 114 -41 78 -194l-26 -111c-20 -85 -19 -90 -2 -90c12 0 33 11 49 26z" />
    <glyph glyph-name="f_j" horiz-adv-x="563" 
d="M532 367l-52 -279c-35 -182 -109 -272 -267 -336c-12 11 -19 25 -19 46c88 58 139 138 160 253l45 249c13 70 9 97 -64 97c-39 0 -66 -4 -97 -10c-20 -110 -33 -199 -43 -255c-35 -215 -122 -380 -247 -380c-33 0 -67 13 -95 40c-1 23 3 51 12 72c31 -12 69 -18 109 -18
c51 0 68 15 95 206c13 92 24 201 46 338c-26 5 -52 8 -74 8c0 18 3 38 12 50h70c38 192 141 266 277 266c79 0 135 -12 175 -35c-13 -37 -20 -75 -21 -109c-23 -12 -72 -16 -100 -11c-2 68 -25 104 -73 104c-69 0 -94 -43 -132 -215h57c124 0 162 6 191 19
c34 -15 45 -48 35 -100z" />
    <glyph glyph-name="f_k" horiz-adv-x="812" 
d="M788 358c-12 -68 -79 -113 -183 -149c17 -22 32 -47 56 -90c19 -35 30 -44 47 -44c15 0 26 7 44 24c10 -10 20 -26 22 -42c-34 -36 -76 -66 -126 -66c-56 0 -77 34 -102 90c-16 35 -33 66 -52 96l-2 -8l-31 -169h-119l92 531c14 79 7 131 -58 131
c-59 0 -96 -41 -127 -214h97c0 -19 -2 -39 -8 -51c-36 0 -71 -4 -100 -10c-20 -110 -33 -199 -43 -255c-35 -215 -122 -380 -247 -380c-33 0 -67 13 -95 40c-1 23 3 51 12 72c31 -12 69 -18 109 -18c51 0 68 15 95 206c13 92 24 201 46 338c-26 5 -52 8 -74 8
c0 18 3 38 12 50h70c36 184 136 266 274 266c47 0 82 -8 109 -21c17 4 31 9 43 17c23 -11 32 -28 24 -71c-29 -166 -44 -245 -75 -336h1c39 95 106 164 192 164c70 0 108 -46 97 -109zM668 332c5 33 -9 54 -35 54c-48 0 -101 -72 -129 -166c97 23 154 58 164 112z" />
    <glyph glyph-name="longs_t" horiz-adv-x="639" 
d="M391 677c48 0 84 -11 111 -24c16 4 31 10 43 17c22 -10 28 -29 23 -65c-4 -32 -11 -72 -29 -157h92c0 -19 -2 -39 -7 -51c-36 0 -70 -3 -98 -9l-41 -174c-26 -112 -11 -146 21 -146c20 0 47 15 66 38c11 -10 21 -28 23 -44c-29 -35 -88 -71 -143 -71
c-95 0 -122 72 -89 215l43 185c-22 5 -37 6 -60 6c-1 18 4 39 12 51h62c14 61 18 85 18 113c0 39 -20 64 -68 64c-57 0 -94 -30 -121 -177c-26 -138 -42 -247 -54 -316c-35 -215 -122 -380 -247 -380c-33 0 -67 13 -95 40c-1 23 3 51 12 72c31 -12 69 -18 109 -18
c51 0 68 15 95 206c13 92 24 201 46 338c-26 5 -52 8 -74 8c0 18 3 38 12 50h70c33 165 136 229 268 229z" />
    <glyph glyph-name="longs_b" horiz-adv-x="805" 
d="M691 467c87 0 113 -85 87 -219c-29 -147 -131 -257 -278 -257h-2c-79 0 -132 20 -172 61c18 28 39 90 52 165l56 316c14 78 7 129 -58 129c-59 0 -96 -41 -127 -214c-16 -90 -33 -195 -54 -316c-35 -215 -122 -380 -247 -380c-33 0 -67 13 -95 40c-1 23 3 51 12 72
c31 -12 69 -18 109 -18c51 0 68 15 95 206c13 92 24 201 46 338c-26 5 -52 8 -74 8c0 18 3 38 12 50h70c36 184 136 266 274 266c47 0 82 -8 109 -21c17 4 31 9 43 17c23 -12 30 -30 23 -71l-35 -191c-9 -54 -22 -98 -42 -151h6c42 96 112 170 190 170zM651 206
c23 107 11 166 -27 166c-35 0 -114 -85 -150 -250l-15 -64c18 -7 40 -10 60 -10c74 0 113 66 132 158z" />
    <glyph glyph-name="longs_h" horiz-adv-x="858" 
d="M807 98c11 -11 19 -26 22 -42c-44 -44 -86 -65 -128 -65c-90 0 -85 66 -63 167l24 104c19 85 7 111 -17 111c-46 0 -134 -97 -166 -259l-20 -114h-119l94 533c14 78 7 129 -58 129c-59 0 -96 -41 -127 -214c-15 -84 -33 -195 -54 -316c-35 -215 -122 -380 -247 -380
c-33 0 -67 13 -95 40c-1 23 3 51 12 72c31 -12 69 -18 109 -18c51 0 68 15 95 206c13 92 24 201 46 338c-26 5 -52 8 -74 8c0 18 3 38 12 50h70c36 184 136 266 274 266c47 0 82 -8 109 -21c17 4 31 9 43 17c23 -12 30 -30 23 -71c-40 -220 -50 -271 -84 -376v-2l24 50
c35 72 119 156 196 156c55 0 114 -41 78 -194l-26 -111c-20 -85 -19 -90 -2 -90c12 0 33 11 49 26z" />
    <glyph glyph-name="longs_i" horiz-adv-x="586" 
d="M400 714c79 0 135 -12 175 -35c-13 -37 -20 -75 -21 -109c-23 -12 -72 -16 -100 -11c-2 68 -25 104 -73 104c-69 0 -95 -43 -131 -215c-20 -97 -34 -195 -55 -316c-35 -215 -122 -380 -247 -380c-33 0 -67 13 -95 40c-1 23 3 51 12 72c31 -12 69 -18 109 -18
c51 0 68 15 95 206c13 92 24 201 46 338c-26 5 -52 8 -74 8c0 18 3 38 12 50h70c38 192 141 266 277 266zM504 467c38 -17 49 -50 30 -125l-50 -191c-17 -66 -14 -78 4 -78c12 0 28 7 47 25c11 -9 19 -25 22 -42c-41 -42 -85 -65 -128 -65c-80 0 -91 62 -68 154l35 129
c25 93 22 104 -43 104c-1 17 2 34 8 48c46 3 108 23 143 41z" />
    </font>
</defs>
</svg>
