<svg xmlns="http://www.w3.org/2000/svg">
<defs>
<font id="Vollkorn-Semibold" horiz-adv-x="626" >
  <font-face 
    font-family="Vollkorn Semibold"
    font-weight="600"
    font-stretch="normal"
    units-per-em="1000"
    panose-1="0 0 7 0 0 0 0 0 0 0"
    ascent="800"
    descent="-200"
    x-height="460"
    cap-height="679"
    bbox="-176 -299 3056 979"
    underline-thickness="57"
    underline-position="-292"
    stemh="61"
    stemv="64"
    unicode-range="U+0020-FB02"
  />
<missing-glyph horiz-adv-x="454" 
d="M405 677v-677h-352v677h352zM121 559c2 0 2 0 2 -1v-11c0 -2 0 -2 -1 -2l-1 -1h3h3v1c-1 0 -2 0 -2 2v13v1c-1 0 -3 -1 -3 -1c-1 0 -1 0 -1 -1zM129 545v-1h3h2v1c-1 0 -1 0 -1 2v13c0 1 -1 1 -1 1s-2 -1 -3 -1v-1c1 0 2 0 2 -1v-11c0 -2 -1 -2 -2 -2zM140 547v2
c2 -1 4 -4 5 -5h3v1c-1 0 -1 0 -3 1l-3 5l2 1c1 2 2 2 3 3h-2h-3s0 -1 1 -1c0 -1 0 -1 -1 -2l-2 -2v10v1c-1 0 -3 -1 -4 -1v-1c2 0 2 0 2 -1v-11c0 -2 -1 -2 -2 -2v-1h3h3l-1 1c-1 0 -1 0 -1 2zM191 560v-1c2 0 2 0 2 -1v-10c0 -2 0 -2 -1 -3c1 -1 3 -1 5 -1c4 0 6 2 6 6
c0 3 -2 5 -4 5s-3 -1 -4 -2v1v6c0 1 0 1 -1 1c0 0 -2 -1 -3 -1zM94 560v-1c1 0 1 0 2 -3c2 -3 4 -8 5 -12h1c2 4 4 8 5 12c1 2 1 3 2 3v1h-2h-2v-1c1 0 1 0 1 -1v-2l-3 -9c-2 4 -3 7 -4 10c-1 0 -1 1 -1 1c0 1 1 1 2 1v1h-3h-3zM114 544c3 0 6 2 6 5c0 4 -2 6 -6 6
c-3 0 -5 -2 -5 -6c0 -3 2 -5 5 -5zM149 549c0 -3 2 -5 6 -5c3 0 5 2 5 5c0 4 -2 6 -5 6c-4 0 -6 -2 -6 -6zM162 545v-1h3h3v1c-1 0 -2 0 -2 2v3c0 2 1 3 2 3s1 0 1 -2h2v3c-1 1 -1 1 -2 1s-2 -1 -3 -1c0 1 0 1 -1 1c0 0 -2 -1 -3 -1v-1c2 0 2 0 2 -1v-5c0 -2 -1 -2 -2 -2z
M172 545v-1h3h3v1c-1 0 -2 0 -2 2v2c0 3 2 5 3 5s2 -1 2 -3v-4c0 -2 0 -2 -1 -2l-1 -1h3h3v1c-1 0 -2 0 -2 2v4c0 3 -1 4 -3 4s-3 -1 -4 -1v1l-4 -1v-1c2 0 2 0 2 -1v-5c0 -2 0 -2 -2 -2zM211 543l4 8c1 2 1 3 2 4h-2h-3v-1c1 0 2 -1 2 -1c0 -1 0 -1 -1 -2l-1 -4v-1
c-1 2 -2 4 -3 5v2s0 1 1 1s1 1 1 1h-4c-1 0 -2 0 -2 -1c1 0 1 -1 2 -3l3 -7c0 -2 0 -2 -1 -3c0 -1 -1 -1 -2 -1h-2v-2h2c2 0 2 0 4 5zM114 554c2 0 3 -2 3 -5s-1 -4 -3 -4s-3 2 -3 5c0 2 1 4 3 4zM154 554c2 0 4 -2 4 -5s-1 -4 -3 -4s-3 2 -3 5c0 2 0 4 2 4zM201 549

<glyph glyph-name="fi" unicode="fi" horiz-adv-x="724" 
d="M683 59c6 -16 7 -39 7 -62c-29 2 -97 3 -145 3c-47 0 -110 0 -144 -3c0 25 2 47 6 62c53 3 68 19 68 86v150c0 54 -12 78 -94 81c-46 0 -108 -6 -127 -12v-198c0 -81 15 -101 69 -107c6 -16 6 -38 6 -62c-34 2 -85 3 -140 3c-54 0 -123 -1 -155 -3c0 25 1 45 6 62
c53 3 68 20 68 99v211c-19 8 -53 16 -77 16c0 24 4 46 15 63h62v36c0 135 104 232 295 232c100 0 155 -18 193 -34c-7 -42 -8 -80 -8 -117c-32 -15 -82 -24 -130 -21c-5 76 -26 107 -89 107c-86 0 -115 -48 -115 -136v-67h167c54 1 123 7 171 19c16 -7 28 -21 28 -50v-271
c0 -69 18 -84 63 -87z" />
    <glyph glyph-name="fl" unicode="fl" horiz-adv-x="733" 
d="M691 59c5 -16 7 -40 7 -62c-29 2 -89 3 -144 3s-117 -1 -145 -3c0 24 1 46 7 62c53 2 67 20 67 87v408c0 66 -50 96 -109 96c-75 0 -120 -35 -120 -135v-67h110c0 -24 -2 -51 -10 -66c-37 0 -68 -4 -100 -13v-194c0 -86 14 -111 74 -116c7 -17 8 -40 8 -62
c-35 2 -91 3 -146 3c-61 0 -119 -1 -156 -3c0 28 2 47 6 62c54 4 68 20 68 101v213c-30 8 -57 11 -77 11c0 23 3 48 14 64h63v34c0 159 130 234 284 234c46 0 94 -11 125 -24c30 5 63 14 82 25c18 -7 29 -23 29 -53v-518c0 -67 15 -85 63 -87z" />
    <glyph glyph-name="f_f" unicode="ff" horiz-adv-x="752" 
d="M822 686c-5 -40 -6 -92 -5 -128c-21 -9 -63 -12 -91 -11c0 62 -21 102 -61 102c-41 0 -56 -34 -56 -134v-67h110c0 -24 -2 -51 -10 -66c-37 0 -67 -4 -100 -13v-194c0 -87 25 -111 100 -116c6 -17 7 -40 7 -62c-35 2 -100 3 -156 3c-61 0 -133 -1 -171 -3c0 28 2 47 7 62
c53 4 67 20 67 101v214c-31 7 -63 10 -93 10c-52 0 -84 -5 -116 -15v-194c0 -96 19 -111 78 -116c6 -17 7 -40 7 -62c-35 2 -89 3 -145 3c-61 0 -123 -1 -160 -3c0 28 2 47 6 62c54 4 68 20 68 101v213c-30 8 -57 11 -77 11c0 23 3 48 14 64h63v26c0 143 114 224 268 224
c58 0 120 -14 158 -37c42 37 99 55 162 55c54 0 100 -14 126 -30zM463 448v34c0 33 5 62 13 88c-25 42 -65 63 -112 63c-71 0 -110 -29 -110 -129v-56h209z" />
    <glyph glyph-name="f_f_i" unicode="ffi" horiz-adv-x="1072" 
d="M1038 59c6 -16 7 -39 7 -62c-29 2 -97 3 -144 3c-48 0 -111 0 -145 -3c0 25 3 47 7 62c53 3 67 19 67 86v150c0 54 -12 78 -100 81c-45 0 -102 -6 -121 -12v-198c0 -81 15 -101 70 -107c5 -16 6 -38 6 -62c-35 2 -86 3 -140 3c-55 0 -124 -1 -156 -3c0 25 1 45 7 62
c53 3 67 20 67 99v216c-31 7 -63 10 -93 10c-52 0 -84 -5 -116 -15v-194c0 -96 19 -111 78 -116c6 -17 7 -40 7 -62c-35 2 -89 3 -145 3c-61 0 -123 -1 -160 -3c0 28 2 47 6 62c54 4 68 20 68 101v213c-30 8 -57 11 -77 11c0 23 3 48 14 64h63v26c0 143 114 224 268 224
c58 0 121 -14 168 -43c50 38 122 61 214 61c100 0 155 -18 193 -34c-7 -42 -8 -80 -8 -117c-31 -15 -81 -24 -130 -21c-5 76 -26 107 -89 107c-86 0 -115 -48 -115 -136v-67h161c55 1 129 7 177 19c16 -7 29 -21 29 -50v-271c0 -69 17 -84 62 -87zM463 448v36
c0 29 5 57 15 82c-25 45 -65 67 -114 67c-71 0 -110 -29 -110 -129v-56h209z" />
    <glyph glyph-name="f_f_l" unicode="ffl" horiz-adv-x="1083" 
d="M1047 59c5 -16 6 -40 6 -62c-29 2 -89 3 -144 3s-117 -1 -145 -3c0 24 2 46 7 62c53 2 67 20 67 87v408c0 66 -49 96 -108 96c-76 0 -121 -35 -121 -135v-67h110c0 -24 -2 -51 -10 -66c-37 0 -67 -4 -100 -13v-194c0 -86 14 -111 75 -116c6 -17 7 -40 7 -62
c-35 2 -90 3 -146 3c-61 0 -118 -1 -156 -3c0 28 2 47 7 62c53 4 67 20 67 101v214c-31 7 -63 10 -93 10c-52 0 -84 -5 -116 -15v-194c0 -96 19 -111 78 -116c6 -17 7 -40 7 -62c-35 2 -89 3 -145 3c-61 0 -123 -1 -160 -3c0 28 2 47 6 62c54 4 68 20 68 101v213
c-30 8 -57 11 -77 11c0 23 3 48 14 64h63v26c0 143 114 224 268 224c57 0 119 -14 168 -42c52 40 124 60 203 60c46 0 96 -12 127 -25c29 5 59 13 80 26c18 -7 30 -23 30 -53v-518c0 -67 14 -85 63 -87zM463 448v34c0 32 5 60 15 85c-25 45 -65 67 -111 67
c-71 0 -113 -34 -113 -130v-56h209z" />
    <glyph glyph-name="f_f_t.liga" unicode="fft" horiz-adv-x="1129" 
d="M1095 80c9 -11 15 -30 15 -50c-26 -22 -81 -39 -132 -39c-94 0 -141 44 -141 159v222c-21 8 -42 12 -74 13c0 24 3 42 12 63h62v86c0 66 -49 96 -108 96c-75 0 -120 -35 -120 -135v-47h110c0 -24 -2 -51 -10 -66c-37 0 -67 -4 -100 -13v-194c0 -87 25 -111 100 -116
c6 -17 7 -40 7 -62c-35 2 -100 3 -156 3c-61 0 -133 -1 -171 -3c0 28 2 47 7 62c53 4 67 20 67 101v214c-31 7 -63 10 -93 10c-52 0 -84 -5 -116 -15v-194c0 -96 19 -111 78 -116c6 -17 7 -40 7 -62c-35 2 -89 3 -145 3c-61 0 -123 -1 -160 -3c0 28 2 47 6 62
c54 4 68 20 68 101v213c-30 8 -57 11 -77 11c0 23 3 48 14 64h63v16c0 143 114 224 268 224c59 0 123 -15 174 -47c52 37 122 55 197 55c48 0 100 -12 138 -32c26 6 52 14 68 23c18 -7 30 -23 30 -53v-186h122c0 -25 -3 -45 -9 -64c-45 -1 -81 -6 -113 -16v-202
c0 -81 16 -103 51 -103c22 0 43 6 61 17zM463 448v14c0 34 6 64 17 91c-25 47 -66 70 -116 70c-71 0 -110 -29 -110 -129v-46h209z" />
    <glyph glyph-name="f_t.liga" unicode="ft" horiz-adv-x="774" 
d="M740 80c9 -11 15 -30 15 -50c-26 -22 -81 -39 -132 -39c-94 0 -141 44 -141 159v222c-21 8 -42 12 -74 13c0 24 2 42 12 63h62v86c0 66 -49 96 -108 96c-75 0 -120 -35 -120 -135v-47h110c0 -24 -2 -51 -10 -66c-37 0 -68 -4 -100 -13v-194c0 -87 25 -111 100 -116
c6 -17 7 -40 7 -62c-35 2 -100 3 -156 3c-61 0 -134 -1 -171 -3c0 28 2 47 6 62c54 4 68 20 68 101v213c-30 8 -57 11 -77 11c0 23 3 48 14 64h63v14c0 159 130 234 284 234c48 0 99 -12 137 -32c26 6 53 14 69 23c17 -7 30 -23 30 -53v-186h122c0 -25 -4 -45 -10 -64
c-44 -1 -81 -6 -112 -16v-202c0 -81 16 -103 51 -103c21 0 43 6 61 17z" />
    <glyph glyph-name=".notdef" horiz-adv-x="454" 
d="M405 677v-677h-352v677h352zM121 559c2 0 2 0 2 -1v-11c0 -2 0 -2 -1 -2l-1 -1h3h3v1c-1 0 -2 0 -2 2v13v1c-1 0 -3 -1 -3 -1c-1 0 -1 0 -1 -1zM129 545v-1h3h2v1c-1 0 -1 0 -1 2v13c0 1 -1 1 -1 1s-2 -1 -3 -1v-1c1 0 2 0 2 -1v-11c0 -2 -1 -2 -2 -2zM140 547v2
c2 -1 4 -4 5 -5h3v1c-1 0 -1 0 -3 1l-3 5l2 1c1 2 2 2 3 3h-2h-3s0 -1 1 -1c0 -1 0 -1 -1 -2l-2 -2v10v1c-1 0 -3 -1 -4 -1v-1c2 0 2 0 2 -1v-11c0 -2 -1 -2 -2 -2v-1h3h3l-1 1c-1 0 -1 0 -1 2zM191 560v-1c2 0 2 0 2 -1v-10c0 -2 0 -2 -1 -3c1 -1 3 -1 5 -1c4 0 6 2 6 6
c0 3 -2 5 -4 5s-3 -1 -4 -2v1v6c0 1 0 1 -1 1c0 0 -2 -1 -3 -1zM94 560v-1c1 0 1 0 2 -3c2 -3 4 -8 5 -12h1c2 4 4 8 5 12c1 2 1 3 2 3v1h-2h-2v-1c1 0 1 0 1 -1v-2l-3 -9c-2 4 -3 7 -4 10c-1 0 -1 1 -1 1c0 1 1 1 2 1v1h-3h-3zM114 544c3 0 6 2 6 5c0 4 -2 6 -6 6
c-3 0 -5 -2 -5 -6c0 -3 2 -5 5 -5zM149 549c0 -3 2 -5 6 -5c3 0 5 2 5 5c0 4 -2 6 -5 6c-4 0 -6 -2 -6 -6zM162 545v-1h3h3v1c-1 0 -2 0 -2 2v3c0 2 1 3 2 3s1 0 1 -2h2v3c-1 1 -1 1 -2 1s-2 -1 -3 -1c0 1 0 1 -1 1c0 0 -2 -1 -3 -1v-1c2 0 2 0 2 -1v-5c0 -2 -1 -2 -2 -2z
M172 545v-1h3h3v1c-1 0 -2 0 -2 2v2c0 3 2 5 3 5s2 -1 2 -3v-4c0 -2 0 -2 -1 -2l-1 -1h3h3v1c-1 0 -2 0 -2 2v4c0 3 -1 4 -3 4s-3 -1 -4 -1v1l-4 -1v-1c2 0 2 0 2 -1v-5c0 -2 0 -2 -2 -2zM211 543l4 8c1 2 1 3 2 4h-2h-3v-1c1 0 2 -1 2 -1c0 -1 0 -1 -1 -2l-1 -4v-1
c-1 2 -2 4 -3 5v2s0 1 1 1s1 1 1 1h-4c-1 0 -2 0 -2 -1c1 0 1 -1 2 -3l3 -7c0 -2 0 -2 -1 -3c0 -1 -1 -1 -2 -1h-2v-2h2c2 0 2 0 4 5zM114 554c2 0 3 -2 3 -5s-1 -4 -3 -4s-3 2 -3 5c0 2 1 4 3 4zM154 554c2 0 4 -2 4 -5s-1 -4 -3 -4s-3 2 -3 5c0 2 0 4 2 4zM201 549
c0 -3 -3 -4 -4 -4h-2v4c0 3 2 5 3 5s3 -1 3 -5zM100 531c1 0 2 -1 3 -3v3c0 1 -1 1 -2 1c-2 0 -5 -2 -5 -6v-1h-2v-1h2v-6c0 -2 0 -2 -2 -3v-1h3h3v1c-1 1 -2 1 -2 3v6h2l1 1h-3v2c0 2 1 4 2 4zM115 530c0 -1 0 -1 1 -1s2 0 2 1s-1 2 -2 2s-1 -1 -1 -2zM144 516
c-1 0 -1 1 -1 2v13c0 1 -1 1 -1 1s-2 -1 -3 -1v-1c1 0 1 0 1 -2v-2h-2c-3 0 -6 -3 -6 -6c0 -4 2 -6 5 -6c2 0 3 1 3 2l1 1v-3c1 1 2 1 3 2zM160 530c0 1 0 2 -1 2s-2 -1 -2 -2s1 -1 2 -1s1 0 1 1zM187 514v1c-1 0 -2 1 -2 3v4c0 3 -1 4 -3 4s-3 -1 -4 -2v1v6c0 1 0 1 -1 1
c0 0 -2 -1 -3 -1v-1c2 0 2 0 2 -2v-10c0 -2 -1 -3 -2 -3v-1h3h3v1c-2 0 -2 1 -2 3v2c0 3 1 4 3 4c1 0 2 0 2 -3v-3c0 -2 -1 -3 -2 -3v-1h3h3zM206 514v1c-1 0 -2 1 -2 3v13v1c-1 0 -3 -1 -4 -1v-1c2 0 2 0 2 -2v-10c0 -2 0 -3 -2 -3v-1h3h3zM229 514v1c-1 0 -2 1 -2 3v4
c0 3 -1 4 -3 4s-3 -1 -4 -2v1v6v1c-1 0 -3 -1 -4 -1v-1c2 0 2 0 2 -2v-10c0 -2 0 -3 -2 -3v-1h3h3v1c-1 0 -2 1 -2 3v2c0 3 2 4 3 4s2 0 2 -3v-3c0 -2 0 -3 -2 -3v-1h3h3zM310 515c1 0 1 1 1 1c-2 0 -2 1 -2 2v13c0 1 0 1 -1 1c0 0 -2 -1 -3 -1v-1c2 0 2 0 2 -2v-2h-2
c-4 0 -6 -3 -6 -6c0 -4 1 -6 4 -6c2 0 3 1 4 2v-1s0 -1 1 -1c0 1 2 1 2 1zM212 514c1 0 2 1 3 1c0 1 -1 1 -2 1s-2 0 -2 2v6h3v1h-3v3v2c-1 -1 -1 -1 -2 -1v-4h-2v-1h2v-7c0 -2 1 -3 3 -3zM112 522v3c-1 0 -1 1 -2 1s-2 -1 -3 -1v1c-1 -1 -3 -1 -4 -2c2 0 2 0 2 -2v-4
c0 -2 0 -2 -2 -3v-1h3h3v1c-1 1 -2 1 -2 3v2c0 2 1 4 2 4s1 0 1 -2h2zM119 514v1c-1 0 -2 1 -2 3v8c-1 -1 -3 -1 -3 -1c-1 0 -1 -1 -1 -1c2 0 2 0 2 -2v-4c0 -2 0 -3 -2 -3v-1h3h3zM130 520v1c0 3 -1 5 -4 5s-5 -3 -5 -6s1 -6 5 -6c2 0 3 1 4 2v1c-1 -1 -2 -1 -3 -1
c-3 0 -4 2 -4 4h7zM155 522v3c-1 0 -1 1 -2 1s-2 -1 -3 -1c0 0 0 1 -1 1c0 -1 -2 -1 -3 -2c2 0 2 0 2 -2v-4c0 -2 -1 -2 -2 -3v-1h3h3v1c-1 1 -2 1 -2 3v2c0 2 1 4 2 4s1 0 1 -2h2zM162 514v1c-1 0 -2 1 -2 3v8c-1 -1 -3 -1 -4 -2c2 0 2 0 2 -2v-4c0 -2 0 -3 -2 -3v-1h3h3z
M169 514c2 0 3 1 4 2c0 1 -1 1 -1 1c-1 -1 -2 -1 -3 -1c-2 0 -3 2 -3 4c0 3 1 5 3 5c1 0 2 -1 3 -3v3c-1 0 -2 1 -3 1c-4 0 -5 -3 -5 -6c0 -4 2 -6 5 -6zM198 515c1 0 1 1 1 1c-2 0 -2 1 -2 2v3c0 2 0 3 -1 4c0 0 -1 1 -2 1c-2 0 -3 -1 -4 -1v-2s0 -1 1 -1c0 1 0 3 2 3
c1 0 1 0 2 -1v-3c-2 0 -6 -1 -6 -4c0 -2 1 -3 3 -3c1 0 2 1 2 1l1 1v-1l1 -1c1 1 2 1 2 1zM241 516c-1 0 -2 1 -2 2v3c0 2 0 3 -1 4c0 0 -1 1 -2 1c-2 0 -3 -1 -4 -1v-2s0 -1 1 -1c0 1 1 3 2 3s1 0 2 -1v-3c-2 0 -6 -1 -6 -4c0 -2 1 -3 3 -3c1 0 2 1 3 1l1 -1c1 1 2 1 3 2z
M254 516c-1 0 -1 1 -1 2v7s0 1 -1 1c0 0 -2 -1 -3 -1v-1c1 0 2 0 2 -1v-3c0 -3 -2 -4 -3 -4c-2 0 -2 1 -2 3v6s0 1 -1 1c-1 -1 -2 -1 -3 -2c1 0 2 0 2 -2v-3c0 -4 1 -5 3 -5c1 0 2 1 3 2c0 0 1 0 1 1v-2v-1c1 1 3 2 3 2zM260 514c3 0 5 2 5 4c0 1 -1 2 -4 3c-2 1 -3 2 -3 3
c0 0 1 1 2 1c2 0 3 -1 4 -3v3c-1 1 -2 1 -4 1c-1 0 -4 -1 -4 -3s1 -3 4 -4c2 -1 3 -1 3 -2s-1 -2 -2 -2c-2 0 -3 1 -3 3h-2v-1v-2c1 0 2 -1 4 -1zM276 520v1c0 3 -1 5 -4 5s-5 -3 -5 -6s1 -6 5 -6c2 0 3 1 4 2v1c-1 -1 -2 -1 -3 -1c-3 0 -4 2 -4 4h7zM291 514v1
c-1 0 -2 1 -2 3v4c0 3 -1 4 -3 4s-3 -1 -4 -2v1v1c-1 -1 -3 -1 -4 -2c2 0 2 0 2 -2v-4c0 -2 0 -3 -2 -3v-1h3h3v1c-1 0 -2 1 -2 3v2c0 3 2 4 3 4s2 0 2 -3v-3c0 -2 0 -3 -1 -3s-1 0 -1 -1h3h3zM322 520v1c0 3 -1 5 -5 5c-3 0 -5 -3 -5 -6s2 -6 6 -6c1 0 3 1 4 2
c0 1 0 1 -1 1c-1 -1 -2 -1 -3 -1c-2 0 -3 2 -3 4h7zM126 525c1 0 2 -2 2 -4h-5c0 3 1 4 3 4zM135 520c0 4 2 5 3 5s2 -1 2 -1v-4c0 -3 -1 -4 -3 -4c-1 0 -2 1 -2 4zM272 525c1 0 2 -2 2 -4h-5c0 3 1 4 3 4zM301 520c0 4 2 5 4 5c1 0 1 -1 2 -1v-4c0 -3 -2 -4 -3 -4
s-3 1 -3 4zM317 525c2 0 2 -2 2 -4h-4c0 3 1 4 2 4zM191 517c0 2 2 3 4 3v-1c0 -2 -1 -3 -2 -3s-2 0 -2 1zM233 517c0 2 3 3 4 3v-1c0 -2 -1 -3 -2 -3s-2 0 -2 1zM295 514c0 0 1 1 1 2c0 0 0 1 -1 1s-2 -1 -2 -1c0 -1 1 -2 2 -2zM238 516c0 0 -1 0 -1 -1c0 1 0 1 1 1z" />
    <glyph glyph-name="space" unicode=" " horiz-adv-x="200" 
 />
    <glyph glyph-name="exclam" unicode="!" horiz-adv-x="411" 
d="M283 656c-13 -106 -29 -277 -37 -420c-28 0 -56 1 -77 10c-12 162 -27 296 -48 432c42 5 104 22 138 38c22 -6 29 -22 24 -60zM290 77c0 -50 -33 -85 -84 -85s-82 31 -82 80c0 48 37 80 88 80c48 0 78 -38 78 -75z" />
    <glyph glyph-name="quotedbl" unicode="&#x22;" horiz-adv-x="381" 
d="M168 678c-1 -7 -1 -15 -2 -20c-9 -58 -15 -128 -24 -216c-18 0 -49 4 -57 11c-4 80 -11 162 -25 237c31 4 57 12 83 26c16 -4 26 -22 25 -38zM321 678c0 -2 0 -6 -1 -15c-9 -61 -13 -123 -21 -222c-25 0 -45 2 -60 10c-5 81 -9 164 -22 239c27 4 56 13 78 26
c17 -4 26 -18 26 -38z" />
    <glyph glyph-name="numbersign" unicode="#" horiz-adv-x="610" 
d="M496 437h-27l-33 -168h112c0 -26 -3 -46 -14 -72h-95h-17l-40 -206c-30 2 -54 10 -66 23l36 183l-149 -1l-40 -205c-26 2 -53 11 -66 27l35 178c-48 -1 -83 -1 -108 -2c0 26 3 52 14 75h108l33 167c-40 0 -74 -1 -106 -2c0 27 3 49 14 75h106l41 207c27 -2 55 -10 66 -24
l-36 -183h149l40 207c28 -2 57 -12 66 -22l-36 -185h102c0 -29 -3 -50 -13 -72h-76zM398 437h-148l-33 -168h148z" />
    <glyph glyph-name="dollar" unicode="$" horiz-adv-x="541" 
d="M508 196c0 -105 -69 -186 -206 -202l1 -81c-20 0 -55 5 -69 14v64c-75 3 -130 25 -188 59c9 53 11 111 11 158c28 7 61 9 91 9c5 -95 27 -143 86 -156v211c-84 41 -175 92 -175 220c0 117 73 179 182 191v66c25 0 48 -3 69 -14l-1 -51c61 -4 119 -20 149 -39
c0 -50 2 -112 7 -147c-23 -11 -61 -15 -88 -15c-12 81 -35 117 -68 131l-1 -199c92 -43 200 -88 200 -219zM177 544c0 -43 26 -71 64 -94v169c-39 -8 -64 -34 -64 -75zM301 239l1 -178c53 9 75 43 75 80c0 45 -32 73 -76 98z" />
    <glyph glyph-name="percent" unicode="%" horiz-adv-x="834" 
d="M742 657l-553 -664c-29 3 -49 21 -58 37l547 656c24 -2 49 -12 64 -29zM406 526c0 -90 -57 -167 -160 -167c-106 0 -159 77 -159 153c0 86 57 165 169 165c99 0 150 -79 150 -151zM186 524c0 -60 26 -105 66 -105c25 0 56 31 56 94c0 62 -27 105 -64 105
c-32 0 -58 -40 -58 -94zM776 159c0 -91 -57 -168 -161 -168c-107 0 -159 77 -159 154c0 87 57 166 170 166c100 0 150 -79 150 -152zM558 157c0 -60 24 -105 64 -105c24 0 53 31 53 94c0 60 -25 104 -62 104c-31 0 -55 -40 -55 -93z" />
    <glyph glyph-name="ampersand" unicode="&#x26;" horiz-adv-x="776" 
d="M565 180l43 -46c39 -41 57 -49 114 -52c0 -22 -3 -52 -10 -72c-47 0 -126 -8 -174 -19c-20 27 -40 53 -60 77c-54 -54 -110 -78 -192 -78c-164 0 -233 92 -233 205c0 106 58 174 146 221c-31 53 -45 98 -45 148c0 82 58 153 211 153c70 0 117 -9 169 -32
c-8 -38 -10 -89 -6 -141c-26 -8 -57 -10 -87 -10c-6 84 -29 121 -86 121c-35 0 -61 -26 -61 -70c0 -54 18 -97 94 -194c41 -53 81 -102 134 -163c22 39 35 69 42 100c12 48 -4 66 -63 78c-6 19 -9 36 -9 55c30 -3 80 -3 113 -3s74 0 103 3c0 -18 -1 -36 -7 -55
c-45 -14 -57 -32 -72 -78c-15 -45 -33 -90 -64 -148zM324 69c42 0 76 15 111 50c-52 63 -104 122 -158 188c-14 18 -27 34 -38 50c-25 -28 -40 -60 -40 -120c0 -115 58 -168 125 -168z" />
    <glyph glyph-name="quotesingle" unicode="'" horiz-adv-x="229" 
d="M169 678c0 -4 -1 -8 -2 -14c-10 -60 -15 -132 -21 -224c-22 0 -46 4 -61 13c-3 81 -12 165 -25 237c32 3 64 14 81 26c17 -4 27 -17 28 -38z" />
    <glyph glyph-name="parenleft" unicode="(" horiz-adv-x="325" 
d="M278 723c-85 -132 -122 -261 -122 -469c0 -219 47 -383 128 -514c-14 -9 -33 -12 -53 -11c-110 130 -196 306 -196 511c0 198 68 345 191 501c20 1 37 -6 52 -18z" />
    <glyph glyph-name="parenright" unicode=")" horiz-adv-x="325" 
d="M99 741c123 -156 191 -303 191 -484c0 -222 -86 -398 -196 -528c-20 -1 -39 2 -52 11c90 147 127 285 127 502c0 209 -36 349 -121 481c14 12 31 18 51 18z" />
    <glyph glyph-name="asterisk" unicode="*" horiz-adv-x="479" 
d="M262 526c53 13 88 24 142 44c14 -34 17 -72 12 -112c-54 12 -97 17 -150 23c30 -43 56 -76 91 -119c-28 -24 -64 -42 -105 -45c-5 48 -14 95 -26 146c-32 -39 -56 -73 -87 -119c-31 20 -57 47 -69 82c44 21 85 44 128 71c-45 19 -83 30 -138 45c9 32 27 69 54 91
c33 -35 64 -64 106 -100c3 50 3 94 0 147c35 1 78 -6 107 -23c-25 -43 -44 -83 -65 -131z" />
    <glyph glyph-name="plus" unicode="+" horiz-adv-x="590" 
d="M329 298h210c0 -28 -1 -50 -12 -72c-87 1 -135 1 -198 1v-211c-13 -9 -48 -12 -73 -12c2 68 2 141 2 223c-75 0 -139 -1 -207 -2c0 26 1 50 11 73h196c0 61 0 109 -1 195c21 10 39 12 72 12v-207z" />
    <glyph glyph-name="comma" unicode="," horiz-adv-x="291" 
d="M231 42c0 -82 -46 -168 -110 -228c-24 1 -47 10 -59 22c43 48 66 92 66 125c0 27 -21 44 -60 49c0 31 2 58 12 91c43 4 79 14 106 31c31 -10 45 -33 45 -90z" />
    <glyph glyph-name="hyphen" unicode="-" horiz-adv-x="419" 
d="M77 314h282c0 -23 -3 -56 -13 -83c-79 0 -198 -1 -286 -6c0 26 6 63 17 89z" />
    <glyph glyph-name="period" unicode="." horiz-adv-x="287" 
d="M227 77c0 -50 -33 -85 -84 -85c-52 0 -83 31 -83 80c0 48 37 80 88 80c48 0 79 -38 79 -75z" />
    <glyph glyph-name="slash" unicode="/" horiz-adv-x="385" 
d="M358 691l-260 -700c-30 3 -54 11 -67 21l262 703c23 -2 48 -12 65 -24z" />
    <glyph glyph-name="zero" unicode="0" horiz-adv-x="617" 
d="M582 255c0 -165 -122 -264 -270 -264c-153 0 -278 99 -278 264s135 251 278 251c151 0 270 -90 270 -251zM179 278c0 -96 56 -217 152 -217c72 0 104 79 104 167c0 90 -53 214 -146 214c-69 0 -110 -77 -110 -164z" />
    <glyph glyph-name="one" unicode="1" horiz-adv-x="402" 
d="M274 342v-181c0 -84 13 -100 69 -102c6 -19 7 -40 7 -62c-39 2 -124 3 -149 3c-36 0 -112 -1 -148 -3c0 22 2 46 6 62c56 6 69 21 69 101v182c0 80 -13 96 -69 99c-4 18 -6 38 -6 62c32 -2 116 -3 148 -3c42 0 117 1 149 3c0 -24 -2 -44 -7 -62c-55 -3 -69 -19 -69 -99z
" />
    <glyph glyph-name="two" unicode="2" horiz-adv-x="519" 
d="M465 176c0 -56 3 -107 11 -144c-8 -21 -25 -34 -49 -34c-50 1 -125 2 -189 2c-66 0 -135 -1 -173 -2c-14 20 -19 44 -19 73c45 44 94 86 152 136c83 72 102 107 102 155c0 50 -25 80 -73 80c-45 0 -68 -28 -79 -129c-32 0 -57 4 -79 12c4 35 5 97 -2 133
c50 30 110 48 202 48c115 0 180 -40 180 -124c0 -65 -35 -102 -131 -172c-34 -26 -66 -51 -101 -81h98c65 0 75 5 81 55c24 0 53 -2 69 -8z" />
    <glyph glyph-name="three" unicode="3" horiz-adv-x="510" 
d="M435 503c12 -16 19 -39 17 -63c-47 -59 -108 -138 -165 -214c110 -1 184 -62 184 -179c0 -127 -100 -218 -274 -218c-72 0 -127 18 -161 47c2 18 10 38 26 53c24 -18 59 -32 113 -32c79 0 145 47 145 131c0 62 -35 106 -107 106c-10 0 -21 -2 -32 -6
c-14 15 -22 39 -21 57c64 79 111 140 147 191h-94c-58 0 -74 -10 -96 -74c-23 0 -49 4 -66 17c12 62 12 115 12 184c40 -1 116 -3 192 -3c74 0 143 2 180 3z" />
    <glyph glyph-name="four" unicode="4" horiz-adv-x="607" 
d="M576 103c-15 -36 -21 -63 -21 -103h-91v-146c-47 0 -98 -12 -128 -25c-14 11 -20 25 -20 50v121h-19c-84 0 -157 -2 -241 -7c-15 27 -28 59 -28 92l337 421c35 1 69 -2 99 -8v-373h67c22 0 34 -6 45 -22zM316 124v225l-162 -225h162z" />
    <glyph glyph-name="five" unicode="5" horiz-adv-x="481" 
d="M54 227l62 277c69 -3 107 -4 192 -4c34 0 49 21 49 52c19 6 46 7 68 7c-5 -48 -6 -106 -6 -162c-8 -16 -23 -24 -49 -24c-79 0 -177 -1 -218 -4l-17 -74c214 -37 305 -106 305 -240c0 -153 -142 -226 -270 -226c-62 0 -103 11 -127 27c0 20 5 38 17 54
c14 -7 44 -14 90 -14c78 0 139 49 139 129c0 81 -76 129 -210 150c-15 15 -23 33 -25 52z" />
    <glyph glyph-name="six" unicode="6" horiz-adv-x="552" 
d="M320 395c123 0 197 -69 197 -183c0 -156 -125 -221 -239 -221c-153 0 -243 75 -243 249c0 298 240 391 397 398c11 -11 15 -31 14 -54c-146 -30 -224 -99 -251 -221c42 22 82 32 125 32zM285 59c59 0 86 56 86 122c0 100 -59 143 -114 143c-21 0 -46 -6 -71 -18
c-2 -20 -3 -41 -3 -64c0 -132 56 -183 102 -183z" />
    <glyph glyph-name="seven" unicode="7" horiz-adv-x="478" 
d="M429 502c12 -12 19 -36 20 -55c-52 -81 -105 -171 -136 -241c-40 -92 -56 -154 -56 -319c-41 -14 -87 -37 -118 -63c-16 3 -28 15 -28 52c0 151 94 305 216 495h-114c-65 0 -87 -11 -105 -72c-30 -1 -55 4 -75 15c12 50 17 121 17 188c49 -2 101 -2 184 -2
c74 0 134 0 195 2z" />
    <glyph glyph-name="eight" unicode="8" horiz-adv-x="553" 
d="M379 362c83 -54 127 -111 127 -193c0 -116 -81 -178 -230 -178c-145 0 -229 59 -229 161c0 73 35 130 117 174c-67 42 -101 89 -101 150c0 97 77 161 213 161c123 0 207 -48 207 -137c0 -65 -44 -111 -104 -138zM271 579c-38 0 -61 -25 -62 -65c0 -45 23 -73 100 -112
l2 -1c22 24 32 52 32 90c0 53 -28 88 -72 88zM287 54c45 0 71 32 71 79c0 55 -34 103 -125 154c-29 -28 -40 -60 -40 -112c0 -74 37 -121 94 -121z" />
    <glyph glyph-name="nine" unicode="9" horiz-adv-x="555" 
d="M279 506c157 0 243 -77 243 -256c0 -284 -265 -407 -424 -419c-11 13 -15 33 -14 56c154 44 242 124 276 235c-39 -21 -78 -30 -120 -30c-123 0 -206 80 -206 191c0 162 126 223 245 223zM304 165c21 0 46 6 69 18c2 17 3 35 3 54c0 141 -43 203 -106 203
c-53 0 -88 -52 -88 -125c0 -106 64 -150 122 -150z" />
    <glyph glyph-name="colon" unicode=":" horiz-adv-x="288" 
d="M227 377c0 -50 -33 -85 -84 -85c-52 0 -83 31 -83 80c0 48 37 80 88 80c48 0 79 -39 79 -75zM228 91c0 -49 -33 -84 -84 -84s-82 31 -82 79c0 49 37 81 87 81c49 0 79 -39 79 -76z" />
    <glyph glyph-name="semicolon" unicode=";" horiz-adv-x="297" 
d="M236 371c0 -49 -33 -84 -84 -84s-82 31 -82 79s37 81 87 81c49 0 79 -39 79 -76zM235 42c0 -82 -47 -168 -110 -228c-24 1 -47 10 -59 22c43 48 66 92 66 125c0 27 -21 44 -61 49c0 31 2 58 13 91c43 4 79 14 105 31c32 -10 46 -33 46 -90z" />
    <glyph glyph-name="less" unicode="&#x3c;" horiz-adv-x="485" 
d="M132 260l298 -212c6 -29 2 -67 -11 -85c-137 104 -249 185 -369 265c-3 23 1 48 16 70l320 257c29 -6 50 -17 69 -39z" />
    <glyph glyph-name="equal" unicode="=" horiz-adv-x="554" 
d="M65 378h438c0 -28 -1 -48 -13 -71c-80 1 -119 1 -206 1c-88 0 -141 -1 -232 -2c0 28 5 53 13 72zM62 202h440c0 -27 -3 -49 -13 -71c-80 1 -120 1 -207 1c-88 0 -142 -1 -233 -2c0 24 4 54 13 72z" />
    <glyph glyph-name="greater" unicode="&#x3e;" horiz-adv-x="524" 
d="M389 260l-332 264c17 18 41 28 70 32l324 -259c13 -23 14 -50 12 -72c-143 -97 -228 -159 -365 -262c-18 21 -23 53 -18 78z" />
    <glyph glyph-name="question" unicode="?" horiz-adv-x="537" 
d="M297 716c113 0 175 -46 175 -125c0 -138 -155 -160 -155 -291c0 -24 5 -51 13 -76c-17 -10 -44 -14 -66 -14c-28 17 -53 70 -53 125c0 128 116 143 116 240c0 52 -29 80 -61 80c-37 0 -59 -31 -71 -132c-33 0 -60 5 -82 17c4 48 5 90 0 132c41 21 100 44 184 44zM374 77
c0 -50 -33 -85 -84 -85c-52 0 -83 31 -83 80c0 48 37 80 88 80c48 0 79 -38 79 -75z" />
    <glyph glyph-name="at" unicode="@" horiz-adv-x="999" 
d="M816 -30c20 -6 34 -20 41 -38c-62 -85 -194 -134 -335 -134c-291 0 -422 181 -422 430c0 239 159 432 438 432c245 0 361 -139 361 -312c0 -213 -111 -357 -246 -357c-53 0 -83 37 -83 98v30c-34 -80 -85 -128 -154 -128c-89 0 -137 67 -137 211c0 156 90 265 200 265
c37 0 67 -3 106 -11c41 0 76 3 100 11c21 -10 26 -25 26 -96v-164c0 -105 5 -119 32 -119c31 0 86 73 86 239c0 147 -90 274 -304 274c-230 0 -345 -160 -345 -366c0 -198 108 -374 356 -374c109 0 210 34 280 109zM476 87c37 0 81 77 97 225l2 67c-24 17 -50 25 -73 25
c-56 0 -78 -36 -78 -168c0 -108 22 -149 52 -149z" />
    <glyph glyph-name="A" unicode="A" horiz-adv-x="711" 
d="M687 59c5 -17 8 -37 8 -62c-32 2 -106 3 -138 3s-118 -1 -148 -3c0 28 2 46 7 62c49 9 56 25 33 77l-23 54c-79 0 -165 -2 -244 -7l-13 -33c-20 -51 -11 -85 38 -91c5 -17 7 -37 7 -62c-23 2 -74 3 -107 3s-71 -1 -90 -3c0 22 2 43 8 62c34 6 48 26 80 104l210 514
c20 5 35 5 60 5l229 -513c41 -91 54 -106 83 -110zM401 246l-54 126c-21 47 -36 88 -47 128c-13 -42 -27 -83 -44 -127l-50 -127h195z" />
    <glyph glyph-name="B" unicode="B" horiz-adv-x="677" 
d="M436 369c126 -7 196 -62 196 -174c0 -113 -78 -195 -282 -195c-99 0 -229 -1 -308 -3c0 24 2 47 6 62c54 4 68 20 68 106v352c0 80 -13 94 -68 100c-4 16 -6 43 -6 62c26 -2 71 -3 106 -3c51 0 138 2 191 2c171 0 250 -43 250 -151c0 -81 -56 -144 -153 -158zM433 499
c0 82 -59 118 -120 118c-17 0 -30 -3 -44 -8v-226h34c93 0 130 48 130 116zM349 60c70 0 113 45 113 123c0 107 -77 134 -169 134h-24v-157c0 -86 26 -100 80 -100z" />
    <glyph glyph-name="C" unicode="C" horiz-adv-x="642" 
d="M595 633c-8 -46 -11 -100 -11 -155c-17 -9 -52 -12 -78 -12c-3 121 -51 158 -126 158c-135 0 -184 -124 -184 -256c0 -168 74 -298 223 -298c53 0 113 18 167 50c11 -10 20 -29 23 -44c-62 -51 -137 -85 -242 -85c-197 0 -332 143 -332 351c0 228 164 343 340 343
c77 0 149 -18 220 -52z" />
    <glyph glyph-name="D" unicode="D" horiz-adv-x="736" 
d="M332 678c187 0 368 -50 368 -323c0 -324 -266 -355 -371 -355c-72 0 -239 -2 -287 -3c0 24 2 47 7 62c53 4 67 20 67 106v352c0 80 -13 94 -67 100c-5 16 -7 43 -7 62c41 -2 119 -2 179 -3c33 1 70 2 111 2zM353 62c87 0 189 41 189 276c0 215 -105 281 -218 281
c-19 0 -41 -3 -55 -8v-443c0 -84 17 -106 84 -106z" />
    <glyph glyph-name="E" unicode="E" 
d="M523 193c34 -5 62 -15 76 -29c-15 -46 -25 -109 -31 -166c-50 1 -151 2 -240 2c-71 0 -239 -2 -286 -3c0 24 2 47 6 62c54 4 68 20 68 106v352c0 80 -14 94 -68 100c-5 16 -6 43 -6 62c52 -2 167 -3 225 -3c150 0 228 1 275 3c2 -48 9 -124 21 -169
c-20 -10 -43 -15 -76 -15c-10 67 -38 122 -150 122h-69v-248h29c73 0 93 17 94 75c21 7 46 10 71 10c-2 -33 -4 -70 -4 -114c0 -46 2 -86 4 -117c-29 0 -49 1 -69 8c-5 61 -27 77 -96 77h-29v-140c0 -84 18 -106 84 -106h12c102 0 132 41 159 131z" />
    <glyph glyph-name="F" unicode="F" horiz-adv-x="592" 
d="M268 617v-277h48c73 0 94 18 95 76c20 7 45 10 70 10c-2 -33 -3 -71 -3 -114c0 -47 1 -86 3 -118c-29 0 -49 2 -68 8c-5 61 -27 78 -97 78h-48v-105c0 -87 26 -111 101 -116c6 -17 7 -40 7 -62c-35 2 -106 3 -162 3c-61 0 -135 -1 -172 -3c0 28 1 47 6 62
c53 4 68 20 68 101v357c0 80 -13 94 -67 100c-5 16 -7 36 -7 62c54 -2 165 -3 224 -3c155 0 233 1 279 3c3 -48 10 -124 21 -169c-19 -10 -42 -15 -76 -15c-9 67 -37 122 -149 122h-73z" />
    <glyph glyph-name="G" unicode="G" horiz-adv-x="708" 
d="M487 140v41c0 73 -12 84 -77 86c-4 16 -6 39 -6 63c32 -2 87 -3 130 -3c40 0 98 1 131 2c0 -19 -1 -43 -6 -62c-37 -2 -42 -13 -42 -77v-33c0 -42 4 -62 16 -89c-60 -44 -152 -77 -258 -77c-207 0 -340 143 -340 354c0 226 168 340 350 340c91 0 177 -22 235 -50
c-8 -46 -11 -98 -11 -155c-23 -10 -52 -12 -78 -12c-5 121 -62 155 -145 155c-135 0 -191 -124 -191 -255c0 -177 70 -311 196 -311c27 0 45 2 63 10c21 8 33 21 33 73z" />
    <glyph glyph-name="H" unicode="H" horiz-adv-x="780" 
d="M665 517v-357c0 -81 13 -97 67 -101c5 -14 7 -40 7 -62c-35 2 -87 3 -142 3c-56 0 -118 -1 -159 -3c0 21 3 47 8 62c53 4 66 20 66 101v159c-74 0 -170 -1 -244 -5v-154c0 -81 14 -97 68 -101c4 -14 6 -40 6 -62c-34 2 -86 3 -142 3c-55 0 -117 -1 -158 -3
c0 21 3 47 7 62c54 4 67 20 67 101v357c0 80 -13 94 -67 100c-5 16 -7 40 -7 62c34 -2 107 -3 153 -3s107 1 147 3c0 -23 0 -43 -7 -62c-54 -5 -67 -20 -67 -100v-138h244v138c0 80 -12 94 -67 100c-5 16 -7 40 -7 62c35 -2 107 -3 153 -3s108 1 148 3c0 -23 -1 -43 -8 -62
c-54 -5 -66 -20 -66 -100z" />
    <glyph glyph-name="I" unicode="I" horiz-adv-x="384" 
d="M116 160v357c0 80 -13 94 -67 100c-5 16 -7 40 -7 62c34 -2 107 -3 153 -3s107 1 147 3c0 -23 0 -43 -7 -62c-54 -5 -67 -20 -67 -100v-357c0 -81 14 -97 68 -101c4 -14 6 -40 6 -62c-34 2 -86 3 -142 3c-55 0 -117 -1 -158 -3c0 21 3 47 7 62c54 4 67 20 67 101z" />
    <glyph glyph-name="J" unicode="J" horiz-adv-x="365" 
d="M256 515v-384c0 -186 -33 -293 -235 -380c-17 12 -25 32 -28 53c74 55 110 111 110 246v465c0 82 -13 97 -67 102c-5 16 -7 41 -7 62c36 -3 100 -3 150 -3s115 0 151 3c0 -25 -2 -45 -8 -62c-56 -5 -66 -26 -66 -102z" />
    <glyph glyph-name="K" unicode="K" horiz-adv-x="727" 
d="M548 188c53 -77 106 -124 164 -129c0 -21 -1 -42 -9 -59c-50 0 -161 -2 -211 -8c-49 94 -136 226 -224 321v-153c0 -81 14 -97 68 -101c4 -14 6 -40 6 -62c-34 2 -86 3 -142 3c-55 0 -117 -1 -158 -3c0 21 3 47 7 62c54 4 67 20 67 101v357c0 80 -13 94 -67 100
c-5 16 -7 40 -7 62c34 -2 107 -3 153 -3s107 1 147 3c0 -23 0 -43 -7 -62c-54 -5 -67 -20 -67 -100v-151l155 158c66 67 57 90 18 93c-6 18 -7 42 -7 62c23 -2 69 -3 108 -3c40 0 106 1 131 3c0 -19 -3 -47 -9 -62c-48 -3 -87 -23 -142 -80l-132 -139
c60 -66 108 -137 158 -210z" />
    <glyph glyph-name="L" unicode="L" horiz-adv-x="605" 
d="M352 62h12c87 0 121 37 150 131c34 -5 62 -15 77 -29c-15 -46 -26 -109 -31 -166c-51 1 -152 2 -232 2c-71 0 -239 -2 -286 -3c0 24 2 47 6 62c54 4 68 20 68 106v352c0 80 -13 94 -68 100c-4 16 -6 43 -6 62c52 -2 96 -3 150 -3c46 0 111 1 151 3c0 -23 -1 -46 -7 -62
c-54 -5 -67 -20 -67 -102v-347c0 -84 17 -106 83 -106z" />
    <glyph glyph-name="M" unicode="M" horiz-adv-x="968" 
d="M941 60c5 -19 6 -40 6 -63c-28 2 -118 3 -162 3c-43 0 -111 -2 -139 -3c0 24 3 43 7 62c63 7 69 24 59 121l-32 306l-196 -487c-15 -6 -39 -8 -60 -8l-221 493l-27 -269c-13 -125 5 -151 62 -156c5 -19 6 -42 6 -62c-25 2 -72 3 -108 3c-37 0 -92 -2 -115 -3
c0 20 2 43 7 62c52 4 72 32 84 158l26 293c8 85 -8 107 -64 107c-6 19 -7 39 -7 62c26 -2 83 -3 112 -3s86 1 109 3l212 -486l183 486c30 -2 86 -3 115 -3s80 1 109 3c0 -22 -2 -45 -7 -62c-55 0 -74 -25 -66 -110l32 -315c11 -110 24 -126 75 -132z" />
    <glyph glyph-name="N" unicode="N" horiz-adv-x="725" 
d="M589 676c31 0 76 1 101 3c0 -21 -1 -42 -6 -62c-49 -4 -61 -30 -61 -143v-476c-20 -6 -42 -7 -69 -7l-374 498v-285c0 -113 14 -141 74 -145c6 -17 7 -39 7 -62c-29 2 -80 3 -112 3c-31 0 -91 1 -116 -1c0 25 1 43 7 60c58 4 76 32 76 145v370l-10 13
c-15 21 -28 26 -66 30c-5 18 -7 40 -7 62c24 -2 78 -3 107 -3s70 0 93 3l325 -439v234c0 112 -14 138 -78 143c-5 23 -6 44 -6 62c29 -2 83 -3 115 -3z" />
    <glyph glyph-name="O" unicode="O" horiz-adv-x="748" 
d="M373 685c201 0 340 -134 340 -337c0 -207 -136 -357 -340 -357c-208 0 -338 145 -338 350c0 209 144 344 338 344zM389 56c104 0 164 111 164 269c0 165 -79 297 -196 297c-98 0 -162 -97 -162 -256c0 -164 64 -310 194 -310z" />
    <glyph glyph-name="P" unicode="P" horiz-adv-x="635" 
d="M340 297c55 0 109 34 109 151c0 97 -41 167 -134 167c-15 0 -28 -2 -46 -7v-433c0 -87 25 -111 100 -116c6 -17 7 -40 7 -62c-35 2 -105 3 -161 3c-61 0 -136 -1 -173 -3c0 28 2 47 6 62c54 4 68 20 68 101v357c0 80 -12 94 -67 100c-4 16 -7 36 -7 62
c58 -2 110 -3 157 -3c45 0 113 2 177 2c165 0 224 -96 224 -207c0 -128 -85 -239 -232 -239c-29 0 -52 3 -70 10c-4 23 -2 42 6 59c12 -3 24 -4 36 -4z" />
    <glyph glyph-name="Q" unicode="Q" horiz-adv-x="754" 
d="M506 15c111 -37 141 -115 271 -106c0 -21 -3 -47 -9 -65c-53 -8 -105 -23 -158 -47c-115 39 -106 177 -237 194c-208 0 -338 145 -338 350c0 209 144 344 338 344c201 0 340 -134 340 -337c0 -158 -79 -282 -207 -333zM195 366c0 -164 64 -310 194 -310
c104 0 164 111 164 269c0 165 -79 297 -196 297c-98 0 -162 -97 -162 -256z" />
    <glyph glyph-name="R" unicode="R" horiz-adv-x="703" 
d="M574 156c36 -67 61 -92 112 -95c0 -23 -2 -43 -8 -63c-80 0 -156 -2 -197 -7l-68 154c-27 61 -52 101 -91 135c-19 -1 -35 -1 -53 0v-114c0 -90 14 -104 56 -107c5 -13 7 -40 7 -62c-41 2 -113 3 -151 3c-45 0 -100 -1 -139 -3c0 25 2 46 7 62c54 4 67 20 67 101v358
c0 80 -13 95 -68 100c-4 17 -6 46 -6 61c31 -1 90 -3 149 -3c45 0 116 4 189 4c163 0 235 -81 235 -179c0 -106 -62 -173 -153 -196c47 -27 64 -55 112 -149zM305 349c80 0 151 42 151 134c0 85 -43 137 -131 137c-21 0 -38 -2 -56 -7v-261c15 -2 26 -3 36 -3z" />
    <glyph glyph-name="S" unicode="S" horiz-adv-x="543" 
d="M282 685c70 0 141 -18 176 -40c0 -50 2 -112 7 -147c-23 -11 -61 -15 -88 -15c-17 110 -53 138 -109 138c-55 0 -91 -27 -91 -77c0 -151 331 -119 331 -348c0 -117 -86 -205 -256 -205c-84 0 -143 22 -206 59c9 53 11 111 11 158c28 7 61 9 91 9c6 -112 36 -159 121 -159
c77 0 108 39 108 83c0 143 -318 111 -318 351c0 131 92 193 223 193z" />
    <glyph glyph-name="T" unicode="T" horiz-adv-x="659" 
d="M618 679c-1 -52 5 -115 16 -177c-21 -9 -48 -13 -80 -13c-11 86 -41 128 -113 128h-35v-457c0 -81 15 -97 89 -101c6 -14 8 -40 8 -62c-39 2 -100 3 -166 3s-146 -1 -187 -3c0 21 4 47 9 62c75 4 94 20 94 101v457h-23c-84 0 -108 -45 -126 -128c-28 0 -58 2 -79 13
c12 55 21 125 21 177c72 -3 152 -3 287 -3c125 0 214 1 285 3z" />
    <glyph glyph-name="U" unicode="U" horiz-adv-x="687" 
d="M584 491v-218c0 -115 -12 -181 -58 -227c-40 -38 -98 -55 -171 -55c-194 0 -256 78 -256 244v279c0 83 -11 95 -63 103c-4 17 -6 40 -6 62c27 -2 79 -3 127 -3s136 1 167 3c0 -24 -1 -43 -6 -62c-56 -8 -66 -19 -66 -103v-263c0 -120 37 -191 138 -191c31 0 71 11 95 40
c23 29 35 71 35 175v211c0 98 -14 123 -68 131c-4 23 -5 42 -5 62c25 -2 74 -3 104 -3c35 0 76 1 101 3c0 -20 -1 -40 -6 -62c-50 -7 -62 -32 -62 -126z" />
    <glyph glyph-name="V" unicode="V" horiz-adv-x="698" 
d="M581 676c32 0 76 1 100 3c0 -24 -3 -44 -8 -62c-37 -9 -56 -39 -82 -109c-60 -168 -123 -334 -190 -509c-19 -6 -45 -7 -69 -7c-74 182 -150 360 -220 507c-45 96 -56 112 -89 118c-4 16 -6 38 -6 62c30 -2 108 -3 144 -3s96 0 148 3c0 -26 -2 -47 -6 -62
c-57 -7 -63 -25 -29 -103c48 -108 90 -205 133 -327c46 115 81 210 120 333c18 54 11 90 -41 97c-4 16 -6 36 -6 62c25 -2 69 -3 101 -3z" />
    <glyph glyph-name="W" unicode="W" horiz-adv-x="993" 
d="M874 676c31 0 75 1 102 3c0 -21 -1 -42 -8 -62c-35 -11 -52 -37 -83 -144l-137 -474c-16 -5 -52 -8 -78 -8c-57 155 -114 301 -177 456l-150 -449c-20 -6 -57 -7 -77 -7c-56 178 -113 352 -164 500c-39 113 -45 120 -79 124c-6 19 -6 42 -6 64c32 -2 112 -3 143 -3
s107 0 150 3c0 -20 -2 -42 -7 -62c-65 -7 -74 -22 -42 -111c28 -81 60 -176 91 -275l152 446c18 6 43 7 66 7c63 -155 122 -307 179 -462l73 252c30 101 15 133 -50 143c-7 18 -8 43 -8 62c28 -2 74 -3 110 -3z" />
    <glyph glyph-name="X" unicode="X" horiz-adv-x="702" 
d="M665 59c7 -18 8 -39 8 -62c-29 2 -105 3 -158 3s-122 -1 -152 -2c0 21 1 40 6 61c47 5 56 17 -8 126l-47 79l-59 -86c-57 -85 -55 -108 2 -119c5 -20 6 -41 6 -62c-34 2 -82 3 -119 3s-88 -1 -115 -3c0 22 1 48 8 64c47 12 86 40 138 114l103 146
c-37 59 -78 122 -117 181c-65 99 -76 107 -111 114c-7 21 -8 41 -8 63c35 -2 119 -3 169 -3c51 0 105 1 136 2c0 -19 -2 -40 -6 -61c-48 -9 -57 -25 -8 -101c21 -32 42 -64 63 -97l53 83c51 81 47 108 -5 115c-5 18 -6 43 -6 62c33 -2 84 -3 114 -3s82 1 107 3
c0 -22 -1 -42 -6 -62c-48 -13 -68 -28 -124 -112l-95 -145c37 -59 71 -115 96 -156c74 -123 93 -138 135 -145z" />
    <glyph glyph-name="Y" unicode="Y" horiz-adv-x="632" 
d="M526 676c30 0 62 0 90 2c0 -25 -3 -43 -7 -60c-30 -7 -53 -29 -84 -95l-128 -272v-69c0 -102 12 -115 89 -123c7 -20 9 -37 9 -62c-52 2 -118 3 -176 3c-61 0 -132 -2 -178 -3c0 23 2 45 9 62c85 7 94 18 94 118v77l-151 304c-21 42 -41 56 -69 59c-6 19 -7 36 -7 61
c39 -2 101 -2 139 -2s117 0 153 2c0 -26 -2 -42 -6 -60c-46 -6 -47 -31 -23 -83c25 -53 59 -129 91 -208c34 81 65 150 90 205c27 56 16 80 -28 85c-5 18 -8 35 -8 61c31 -2 65 -2 101 -2z" />
    <glyph glyph-name="Z" unicode="Z" horiz-adv-x="606" 
d="M478 193c33 -3 62 -10 83 -24c-11 -44 -22 -119 -23 -172c-87 3 -177 3 -260 3c-84 0 -169 -1 -221 -3c-9 14 -15 32 -15 54c119 202 219 369 323 566h-93c-73 0 -103 -24 -127 -138c-31 0 -65 3 -84 12c15 55 22 130 22 187c46 -2 173 -2 239 -2s143 0 208 2
c10 -14 16 -32 17 -54c-106 -203 -201 -372 -318 -564h88c103 0 135 22 161 133z" />
    <glyph glyph-name="bracketleft" unicode="[" horiz-adv-x="294" 
d="M35 -269v1011c36 -1 68 -1 96 -1c37 0 68 0 109 1c11 -17 12 -40 12 -63c-96 -8 -115 -18 -115 -88v-714c0 -67 25 -77 104 -81c10 -22 11 -39 11 -65c-37 1 -74 2 -103 2c-35 0 -72 -1 -114 -2z" />
    <glyph glyph-name="backslash" unicode="\" horiz-adv-x="394" 
d="M81 715c6 0 13 0 17 -2l265 -713c-17 -6 -53 -8 -70 -6l-266 715c13 4 31 6 54 6z" />
    <glyph glyph-name="bracketright" unicode="]" horiz-adv-x="294" 
d="M259 742v-1011c-42 1 -79 2 -114 2c-29 0 -66 -1 -103 -2c0 26 1 43 11 65c79 4 104 14 104 81v714c0 70 -19 80 -115 88c0 23 1 46 11 63c42 -1 72 -1 110 -1c28 0 60 0 96 1z" />
    <glyph glyph-name="asciicircum" unicode="^" horiz-adv-x="569" 
d="M451 388l-166 236c-73 -86 -140 -168 -197 -249c-21 14 -37 37 -41 59l205 258c16 8 38 11 64 10c55 -86 144 -215 205 -297c-17 -14 -46 -19 -70 -17z" />
    <glyph glyph-name="underscore" unicode="_" horiz-adv-x="606" 
d="M73 -81h473c0 -19 -3 -49 -13 -67c-109 1 -158 1 -242 1c-74 0 -132 -1 -231 -2c0 27 3 49 13 68z" />
    <glyph glyph-name="grave" unicode="`" horiz-adv-x="266" 
d="M109 534c-41 61 -77 109 -129 159c38 17 86 24 133 22c16 -53 41 -115 70 -170c-19 -10 -43 -12 -74 -11z" />
    <glyph glyph-name="a" unicode="a" horiz-adv-x="549" 
d="M522 88c3 -22 1 -45 -8 -64c-49 -2 -106 -13 -151 -33c-22 9 -32 22 -32 56c0 12 1 25 4 39c-10 -23 -24 -43 -42 -57c-27 -22 -63 -36 -112 -36c-95 0 -145 40 -145 114c0 134 190 160 282 173c0 61 -5 84 -22 104c-14 16 -35 25 -56 25c-55 0 -74 -57 -79 -112
c-33 0 -61 1 -84 10c3 36 3 78 -6 120c55 24 125 40 195 40c82 0 126 -15 154 -45c29 -29 44 -74 44 -166v-90c0 -61 7 -77 58 -78zM318 200v26c-78 -14 -136 -33 -136 -93c0 -40 22 -55 47 -55c40 0 89 38 89 122z" />
    <glyph glyph-name="b" unicode="b" horiz-adv-x="603" 
d="M372 467c116 0 197 -64 197 -211c0 -154 -109 -265 -274 -265c-103 0 -200 29 -242 71c16 19 23 50 23 110v383c0 46 -11 67 -74 70c0 21 2 42 11 59c68 0 151 17 179 33c18 -7 30 -23 30 -53v-212c0 -32 -2 -48 -6 -68c8 12 16 21 24 28c22 24 71 55 132 55zM296 51
c50 0 123 31 123 183c0 92 -39 151 -94 151c-50 0 -103 -45 -103 -170v-130c20 -21 42 -34 74 -34z" />
    <glyph glyph-name="c" unicode="c" horiz-adv-x="468" 
d="M274 -9c-136 0 -240 76 -240 236c0 120 79 240 233 240c73 0 125 -14 168 -42c-8 -38 -10 -75 -10 -124c-22 -10 -53 -13 -79 -13c-4 77 -34 118 -79 118c-56 0 -87 -66 -87 -165c0 -86 41 -174 135 -174c42 0 79 14 105 39c12 -11 22 -28 24 -48
c-36 -43 -95 -67 -170 -67z" />
    <glyph glyph-name="d" unicode="d" horiz-adv-x="607" 
d="M586 88c2 -22 0 -45 -9 -64c-49 -2 -106 -13 -151 -33c-22 9 -32 22 -32 57c0 15 2 30 6 47c-13 -24 -26 -39 -37 -49c-21 -24 -71 -55 -132 -55c-115 0 -197 64 -197 211c0 154 110 265 275 265c26 0 48 -3 72 -10v98c0 46 -10 67 -74 70c0 21 2 42 11 59
c69 0 151 17 180 33c17 -7 29 -23 29 -53v-495c0 -64 8 -80 59 -81zM278 73c50 0 103 45 103 169v131c-20 21 -42 34 -74 34c-50 0 -122 -31 -122 -183c0 -93 38 -151 93 -151z" />
    <glyph glyph-name="e" unicode="e" horiz-adv-x="513" 
d="M448 114c13 -8 25 -31 26 -52c-49 -47 -114 -71 -194 -71c-174 0 -246 103 -246 234c0 148 94 242 240 242c143 0 203 -105 204 -215c-4 -19 -13 -36 -25 -48c-60 0 -173 -1 -268 -6c11 -74 51 -131 139 -131c43 0 93 18 124 47zM265 405c-43 0 -80 -35 -83 -142h160
c0 83 -27 142 -77 142z" />
    <glyph glyph-name="f" unicode="f" horiz-adv-x="396" 
d="M467 686c-6 -40 -7 -92 -5 -128c-21 -9 -63 -12 -91 -11c0 62 -21 102 -62 102c-40 0 -55 -34 -55 -134v-67h110c0 -24 -2 -51 -10 -66c-37 0 -68 -4 -100 -13v-194c0 -87 25 -111 100 -116c6 -17 7 -40 7 -62c-35 2 -100 3 -156 3c-61 0 -134 -1 -171 -3c0 28 2 47 6 62
c54 4 68 20 68 101v213c-30 8 -57 11 -77 11c0 23 3 48 14 64h63v34c0 157 105 234 233 234c54 0 100 -14 126 -30z" />
    <glyph glyph-name="g" unicode="g" horiz-adv-x="552" 
d="M331 84c132 0 184 -41 184 -126c0 -111 -120 -207 -284 -207c-155 0 -202 47 -202 125c0 42 25 80 71 99c-29 19 -41 47 -41 87c0 41 27 80 62 108c-49 26 -77 71 -77 134c0 97 73 163 214 163c29 0 54 -3 76 -9h181c8 -20 10 -48 10 -78c-29 11 -61 18 -92 21
c30 -34 41 -72 41 -95c0 -97 -78 -166 -213 -166c-29 0 -56 3 -80 8c-14 -11 -20 -22 -20 -31c0 -26 14 -33 170 -33zM251 413c-43 0 -63 -46 -63 -98c0 -76 32 -116 82 -116c36 0 62 35 62 97c0 66 -28 117 -81 117zM253 -182c85 0 135 37 135 82c0 34 -18 47 -121 47
c-40 0 -73 2 -100 6c-15 -17 -19 -31 -19 -54c0 -54 29 -81 105 -81z" />
    <glyph glyph-name="h" unicode="h" horiz-adv-x="653" 
d="M615 59c7 -17 8 -36 8 -62c-29 1 -81 3 -125 3c-45 0 -113 -1 -144 -3c0 24 1 44 8 62c37 0 57 22 57 94v105c0 84 -28 112 -75 112c-51 0 -97 -56 -97 -160v-64c0 -68 17 -87 56 -87c8 -19 9 -37 9 -62c-29 2 -93 3 -138 3c-46 0 -117 -1 -147 -3c0 25 2 48 8 62
c52 0 66 20 66 87v409c0 46 -11 67 -74 70c0 21 2 42 11 59c68 0 151 17 179 33c18 -7 30 -23 30 -53v-252c0 -16 -4 -37 -10 -60c8 17 15 34 28 49c28 31 77 61 140 61c83 0 160 -44 160 -163v-153c0 -67 14 -87 50 -87z" />
    <glyph glyph-name="i" unicode="i" horiz-adv-x="350" 
d="M165 691c55 0 86 -28 86 -76c0 -41 -36 -72 -90 -72c-50 0 -83 30 -83 71c0 49 38 77 87 77zM251 414v-268c0 -67 14 -85 63 -87c5 -16 7 -40 7 -62c-30 2 -89 3 -145 3c-55 0 -117 -1 -145 -3c0 24 2 46 8 62c53 2 66 20 66 87v159c0 46 -10 67 -74 70c0 21 2 42 11 59
c69 0 151 17 180 33c17 -7 29 -23 29 -53z" />
    <glyph glyph-name="j" unicode="j" horiz-adv-x="310" 
d="M171 691c55 0 86 -28 86 -76c0 -41 -35 -72 -90 -72c-50 0 -83 30 -83 71c0 49 38 77 87 77zM105 32v273c0 46 -10 67 -74 70c0 21 2 42 11 59c69 0 151 17 180 33c17 -7 29 -23 29 -53v-358c0 -157 -116 -262 -201 -305c-18 9 -33 30 -36 54c71 77 91 129 91 227z" />
    <glyph glyph-name="k" unicode="k" horiz-adv-x="610" 
d="M509 114c36 -47 43 -50 84 -53c0 -22 -3 -44 -10 -61c-50 0 -118 -2 -162 -9c-31 49 -108 149 -174 224v-69c0 -65 12 -84 51 -87c6 -16 7 -40 7 -62c-30 2 -85 3 -136 3c-52 0 -114 -1 -142 -3c0 24 2 46 7 62c53 2 67 20 67 87v409c0 46 -11 67 -74 70c0 21 2 42 11 59
c68 0 151 17 179 33c18 -7 30 -23 30 -53v-401l66 59c37 34 49 50 49 60c0 11 -8 16 -28 17c-7 21 -10 40 -10 61c33 -1 92 -2 141 -2c30 0 64 1 94 2c0 -22 -3 -42 -10 -61c-50 -4 -78 -15 -127 -61l-59 -54c51 -49 96 -102 146 -170z" />
    <glyph glyph-name="l" unicode="l" horiz-adv-x="343" 
d="M101 146v415c-1 42 -14 61 -74 64c0 21 2 42 11 59c68 0 151 17 179 33c18 -7 30 -23 30 -53v-518c0 -67 14 -85 63 -87c5 -16 6 -40 6 -62c-29 2 -89 3 -144 3s-117 -1 -145 -3c0 24 2 46 7 62c53 2 67 20 67 87z" />
    <glyph glyph-name="m" unicode="m" horiz-adv-x="966" 
d="M929 59c6 -18 8 -38 8 -62c-34 3 -80 3 -126 3c-47 0 -108 -1 -143 -3c0 26 2 44 7 62c42 3 58 22 58 109v92c0 86 -28 110 -70 110c-55 0 -99 -54 -99 -160v-60c0 -69 14 -88 59 -91c6 -15 8 -38 8 -62c-32 3 -88 3 -137 3s-105 0 -141 -3c0 24 3 46 8 62
c47 3 59 18 59 114v95c0 79 -27 104 -73 104c-51 0 -96 -59 -96 -160v-62c0 -71 12 -88 57 -91c7 -17 8 -38 8 -62c-32 3 -101 3 -144 3c-44 0 -111 0 -141 -3c0 24 2 45 8 62c54 3 66 20 66 87v140c0 67 -6 85 -73 89c0 20 3 40 12 59c61 0 142 15 176 33
c16 -5 29 -22 29 -53c0 -18 -3 -34 -10 -66c14 33 22 47 30 55c28 32 78 63 139 63c62 0 114 -26 139 -80c6 -11 9 -21 10 -32c10 22 21 38 31 49c27 30 73 57 131 57c97 0 159 -46 159 -170v-117c0 -97 9 -111 51 -114z" />
    <glyph glyph-name="n" unicode="n" horiz-adv-x="658" 
d="M619 59c7 -17 9 -36 9 -62c-30 1 -82 3 -126 3s-113 -1 -143 -3c0 24 1 44 7 62c37 0 58 22 58 94v105c0 84 -28 112 -76 112c-50 0 -97 -56 -97 -160v-64c0 -68 18 -87 57 -87c7 -19 8 -37 8 -62c-29 2 -92 3 -138 3c-45 0 -117 -1 -147 -3c0 25 3 48 8 62
c52 0 66 20 66 87v148c0 57 -7 77 -72 81c0 21 2 42 11 59c73 1 147 17 178 33c18 -7 29 -23 29 -55c0 -16 -3 -37 -10 -60c8 17 15 34 29 49c27 31 76 61 139 61c84 0 160 -44 160 -163v-153c0 -67 14 -87 50 -87z" />
    <glyph glyph-name="o" unicode="o" horiz-adv-x="574" 
d="M289 467c165 0 251 -97 251 -234c0 -148 -100 -242 -256 -242c-161 0 -250 91 -250 233c0 154 110 243 255 243zM276 406c-61 0 -91 -65 -91 -152c0 -117 41 -199 113 -199c60 0 92 66 92 155c0 127 -54 196 -114 196z" />
    <glyph glyph-name="p" unicode="p" horiz-adv-x="631" 
d="M250 1v-68c0 -87 25 -111 100 -116c6 -17 7 -40 7 -62c-35 2 -100 3 -156 3c-61 0 -134 -1 -171 -3c0 28 2 47 6 62c54 4 68 20 68 101v376c0 57 -7 77 -72 81c0 21 2 42 11 59c73 1 147 17 178 33c18 -7 29 -23 29 -55c0 -7 -1 -15 -3 -24c7 10 14 18 21 24
c22 24 72 55 132 55c116 0 197 -64 197 -207c0 -158 -110 -269 -275 -269c-26 0 -47 3 -72 10zM354 385c-51 0 -104 -45 -104 -169v-131c20 -21 42 -34 74 -34c50 0 123 31 123 183c0 82 -30 151 -93 151z" />
    <glyph glyph-name="q" unicode="q" horiz-adv-x="602" 
d="M591 -183c6 -19 7 -38 7 -62c-35 3 -104 3 -158 3c-61 0 -129 0 -164 -3c0 24 1 44 7 62c79 5 98 24 98 109v72c0 37 3 68 14 106c-11 -22 -24 -43 -36 -55c-29 -30 -80 -51 -134 -51c-110 0 -191 75 -191 208c0 153 111 261 273 261c105 0 189 -27 241 -71
c-16 -33 -22 -64 -22 -142v-325c0 -90 11 -107 65 -112zM282 74c44 0 99 42 99 161v137c-12 18 -41 35 -72 35c-70 0 -124 -57 -124 -184c0 -112 43 -149 97 -149z" />
    <glyph glyph-name="r" unicode="r" horiz-adv-x="476" 
d="M458 436c-6 -40 -10 -104 -8 -147c-21 -8 -59 -11 -84 -11c-2 52 -17 70 -44 70c-30 0 -71 -59 -71 -124v-49c0 -87 25 -111 100 -116c6 -17 7 -40 7 -62c-35 2 -100 3 -156 3c-61 0 -133 -1 -171 -3c0 28 2 47 7 62c53 4 67 20 67 101v134c0 57 -7 77 -72 81
c0 21 2 42 11 59c73 1 147 17 178 33c18 -7 29 -23 29 -55c0 -30 -7 -58 -16 -98c9 25 18 52 26 65c29 46 73 81 126 81c27 0 49 -7 71 -24z" />
    <glyph glyph-name="s" unicode="s" horiz-adv-x="464" 
d="M395 329c-18 -11 -48 -18 -77 -18c-6 51 -36 95 -95 95c-31 0 -50 -17 -50 -42c0 -28 10 -45 109 -84c113 -45 148 -80 148 -147c0 -90 -82 -142 -211 -142c-83 0 -130 12 -181 35c5 37 4 92 1 124c19 11 52 17 80 17c7 -74 45 -111 98 -111c39 0 65 19 65 49
c0 31 -17 47 -96 78c-93 36 -144 68 -144 155c0 88 88 129 188 129c71 0 117 -10 162 -32c-2 -34 -2 -71 3 -106z" />
    <glyph glyph-name="t" unicode="t" horiz-adv-x="378" 
d="M85 448v123c45 6 94 26 121 49c20 -8 25 -18 25 -62v-110h123c0 -25 -4 -45 -10 -64c-44 -1 -81 -6 -113 -16v-202c0 -81 16 -103 52 -103c21 0 43 6 61 17c8 -11 14 -30 15 -50c-26 -22 -81 -39 -133 -39c-94 0 -141 44 -141 159v222c-20 8 -41 12 -73 13
c0 24 2 42 11 63h62z" />
    <glyph glyph-name="u" unicode="u" horiz-adv-x="609" 
d="M587 88c3 -22 1 -45 -8 -64c-50 -2 -106 -13 -151 -33c-22 9 -32 22 -32 57c0 13 2 30 5 47c-9 -22 -21 -41 -35 -54c-30 -28 -75 -47 -135 -47c-97 0 -152 47 -152 184v116c0 57 -6 77 -64 81c0 21 2 42 11 59c73 1 139 17 170 33c18 -7 29 -23 29 -55v-210
c0 -90 17 -123 61 -123c52 0 97 50 97 159v61c0 57 -10 78 -73 81c0 21 1 42 11 59c78 1 148 13 179 28c18 -7 29 -23 29 -55v-243c0 -64 7 -80 58 -81z" />
    <glyph glyph-name="v" unicode="v" horiz-adv-x="559" 
d="M447 458c36 0 73 1 99 3c0 -22 -3 -48 -11 -62c-34 -8 -49 -25 -73 -84l-135 -324c-29 -3 -64 2 -84 12c-36 82 -125 268 -161 335c-24 47 -35 55 -61 61c-6 18 -9 39 -9 62c30 -2 80 -3 134 -3c52 0 116 1 148 3c0 -21 -5 -46 -10 -62c-54 -5 -60 -17 -36 -66
c22 -46 54 -118 82 -189c22 63 41 113 62 166c26 65 14 84 -32 89c-6 16 -11 41 -11 62c26 -2 61 -3 98 -3z" />
    <glyph glyph-name="w" unicode="w" horiz-adv-x="787" 
d="M680 458c39 0 68 1 95 3c0 -20 -4 -46 -11 -62c-30 -7 -43 -24 -65 -92l-99 -316c-23 0 -66 1 -83 9c-44 97 -83 181 -114 268l-115 -277c-25 0 -66 1 -83 9c-39 113 -88 247 -125 340c-15 38 -30 53 -58 58c-6 16 -10 41 -10 63c40 -2 79 -3 125 -3c49 0 100 1 143 3
c0 -22 -4 -47 -9 -62c-46 -5 -47 -16 -30 -67c17 -50 37 -107 52 -169l115 300c21 0 47 -1 64 -7c42 -90 84 -195 123 -296l39 141c20 70 5 91 -37 98c-7 19 -10 40 -10 62c26 -2 57 -3 93 -3z" />
    <glyph glyph-name="x" unicode="x" horiz-adv-x="569" 
d="M534 61c6 -18 8 -38 8 -62c-35 2 -61 1 -107 1c-45 0 -135 0 -172 -2c0 27 2 46 7 61c33 4 40 18 8 69c-11 19 -21 34 -33 51l-24 -35c-41 -62 -37 -82 -9 -85c6 -17 7 -36 7 -61c-31 2 -76 2 -103 2c-25 0 -59 0 -89 -2c0 23 3 45 10 61c32 2 50 16 107 98l51 74
c-26 41 -53 80 -76 111c-34 46 -47 54 -78 57c-6 18 -10 40 -10 61c36 -2 85 -2 134 -2c50 0 105 0 144 2c0 -20 -3 -47 -6 -61c-37 -2 -42 -15 -7 -67l33 -47l31 48c31 48 31 63 -2 66c-6 16 -9 39 -9 61c31 -2 57 -2 97 -2s59 0 86 2c0 -22 -3 -43 -9 -61
c-30 -2 -42 -11 -77 -61l-68 -99c24 -32 47 -65 64 -92c43 -67 60 -84 92 -86z" />
    <glyph glyph-name="y" unicode="y" horiz-adv-x="562" 
d="M453 458c34 0 67 1 97 3c0 -19 -2 -44 -10 -63c-34 -8 -47 -25 -73 -85l-147 -350c-76 -182 -119 -212 -185 -212c-43 0 -80 19 -97 40c-4 24 -1 66 8 93c23 -7 56 -14 93 -14c43 0 70 13 94 51c5 7 13 23 23 45c-48 114 -110 250 -155 342c-35 73 -52 84 -81 90
c-5 17 -8 42 -8 63c38 -2 89 -3 135 -3c49 0 114 1 155 3c0 -22 -4 -49 -10 -63c-59 -10 -64 -27 -32 -91c22 -46 49 -107 71 -166l62 157c29 73 16 92 -31 100c-6 16 -9 40 -9 63c31 -2 66 -3 100 -3z" />
    <glyph glyph-name="z" unicode="z" horiz-adv-x="510" 
d="M471 167c0 -43 2 -111 8 -147c-6 -15 -20 -22 -40 -22c-48 0 -121 2 -191 2c-88 0 -148 -1 -184 -2c-11 14 -19 37 -19 59c69 94 176 248 233 340h-50c-63 0 -80 -19 -97 -101c-28 -1 -61 2 -82 12c7 45 10 102 10 153c41 -2 117 -3 199 -3c84 0 146 1 188 3
c9 -13 15 -35 15 -54c-62 -100 -157 -241 -232 -345h77c66 0 81 24 87 113c27 2 52 -1 78 -8z" />
    <glyph glyph-name="braceleft" unicode="{" horiz-adv-x="380" 
d="M330 698c-68 -23 -85 -69 -84 -122c0 -59 22 -128 23 -189c0 -66 -25 -122 -134 -141c107 -21 134 -79 135 -147c0 -62 -20 -133 -20 -194c-1 -57 16 -104 86 -125c5 -20 3 -40 -10 -58c-164 35 -197 123 -198 212c-1 49 7 98 7 144c-1 64 -19 116 -100 142
c0 12 0 36 5 48c77 26 96 74 97 132c0 48 -11 101 -10 152c1 82 29 156 188 196c12 -12 15 -33 15 -50z" />
    <glyph glyph-name="bar" unicode="|" horiz-adv-x="192" 
d="M60 -234v948c27 0 58 -4 72 -13c0 -112 -2 -289 -2 -467s2 -362 2 -479c-23 0 -57 3 -72 11z" />
    <glyph glyph-name="braceright" unicode="}" horiz-adv-x="380" 
d="M253 552c1 -51 -10 -104 -9 -152c1 -58 19 -106 96 -132c5 -12 5 -36 5 -48c-81 -26 -98 -78 -99 -142c-1 -46 7 -95 6 -144c-1 -89 -33 -177 -198 -212c-13 18 -15 38 -10 58c70 21 87 68 87 125c-1 61 -21 132 -20 194c0 68 27 126 134 147c-108 19 -134 75 -133 141
c0 61 22 130 23 189c0 53 -17 99 -85 122c0 17 3 38 16 50c159 -40 186 -114 187 -196z" />
    <glyph glyph-name="asciitilde" unicode="~" horiz-adv-x="643" 
d="M60 232c58 96 115 125 162 125c80 0 144 -77 217 -77c33 0 62 16 98 60c18 -4 35 -17 46 -30c-59 -95 -112 -118 -152 -118c-82 0 -139 81 -213 81c-38 0 -77 -19 -118 -78c-20 7 -34 17 -40 37z" />
    <glyph glyph-name="uni00A0" unicode="&#xa0;" horiz-adv-x="200" 
 />
    <glyph glyph-name="exclamdown" unicode="&#xa1;" horiz-adv-x="411" 
d="M121 382c0 50 33 85 84 85s82 -31 82 -80c0 -48 -37 -80 -88 -80c-48 0 -78 38 -78 75zM128 -197c13 106 29 277 37 420c28 0 56 -1 77 -10c12 -162 27 -296 48 -432c-42 -5 -104 -22 -138 -38c-22 6 -29 22 -24 60z" />
    <glyph glyph-name="cent" unicode="&#xa2;" horiz-adv-x="477" 
d="M444 58c-30 -36 -77 -59 -136 -65l1 -133c-23 0 -57 4 -72 11v122c-117 13 -203 89 -203 234c0 112 69 224 203 238v144c27 0 58 -5 72 -14l-2 -130c53 -4 93 -17 128 -40c-8 -38 -10 -75 -10 -124c-22 -10 -53 -13 -79 -13c-3 51 -17 86 -39 104v-325h8
c42 0 79 14 105 39c12 -11 22 -28 24 -48zM180 241c0 -57 18 -114 57 -147v305c-37 -20 -57 -78 -57 -158z" />
    <glyph glyph-name="sterling" unicode="&#xa3;" horiz-adv-x="581" 
d="M493 173c25 -4 51 -19 63 -35c-41 -49 -73 -102 -88 -147c-39 0 -67 5 -95 16c-54 21 -88 42 -145 42c-52 0 -99 -16 -143 -57c-18 10 -33 29 -40 49c77 61 110 118 110 197c0 20 -2 37 -6 52l-96 -2c0 25 4 47 14 68h58c-18 39 -38 78 -38 145c0 103 82 184 236 184
c63 0 133 -9 177 -33c-4 -41 -5 -89 -2 -140c-29 -14 -62 -15 -95 -15c-8 90 -34 123 -94 123c-42 0 -71 -33 -71 -84c0 -77 56 -108 70 -180h112c0 -26 -2 -46 -13 -67l-100 2c-12 -56 -54 -119 -108 -175c57 39 106 63 148 63c56 0 79 -32 106 -32c16 0 27 6 40 26z" />
    <glyph glyph-name="currency" unicode="&#xa4;" horiz-adv-x="534" 
d="M410 150l74 -72c-11 -14 -27 -24 -53 -27l-61 60c-33 -22 -71 -33 -103 -33c-39 0 -73 11 -101 29l-56 -57c-25 1 -41 9 -54 23l68 72c-25 32 -40 73 -40 115c0 38 11 70 30 97l-66 66c13 15 29 24 52 26l53 -52c32 24 72 37 114 37c39 0 76 -12 106 -33l50 52
c23 -5 36 -12 50 -28l-62 -61c21 -29 34 -64 34 -104c0 -46 -14 -82 -35 -110zM272 133c62 0 104 48 104 119c0 64 -50 130 -118 130c-62 0 -104 -47 -104 -116c0 -64 51 -133 118 -133z" />
    <glyph glyph-name="yen" unicode="&#xa5;" horiz-adv-x="624" 
d="M526 676c30 0 62 0 90 2c0 -25 -3 -43 -7 -60c-30 -7 -53 -29 -84 -95l-66 -139h87c0 -27 -4 -44 -11 -64h-106l-31 -67h146c0 -25 -4 -45 -12 -64h-135v-7c0 -102 12 -115 89 -123c7 -20 9 -37 9 -62c-52 2 -118 3 -176 3c-61 0 -132 -2 -178 -3c0 23 2 45 9 62
c85 7 94 18 94 118v12h-151c0 23 3 45 12 64l139 1l-33 66h-115c0 24 3 46 10 64h73l-86 174c-21 42 -41 56 -69 59c-6 19 -7 36 -7 61c39 -2 101 -2 139 -2s117 0 153 2c0 -26 -2 -42 -6 -60c-46 -6 -47 -31 -23 -83c25 -53 59 -129 91 -208c34 81 65 150 90 205
c27 56 16 80 -28 85c-5 18 -8 35 -8 61c31 -2 65 -2 101 -2z" />
    <glyph glyph-name="brokenbar" unicode="&#xa6;" horiz-adv-x="195" 
d="M61 329v386c25 0 49 -3 70 -14c0 -42 -2 -114 -2 -182c0 -58 2 -166 2 -204c-22 0 -52 5 -70 14zM61 -232v411c29 0 49 -3 70 -14c0 -42 -2 -142 -2 -201c0 -50 2 -146 2 -209c-20 0 -57 5 -70 13z" />
    <glyph glyph-name="section" unicode="&#xa7;" horiz-adv-x="573" 
d="M516 249c0 -90 -57 -144 -130 -172c56 -47 74 -95 74 -160c0 -90 -67 -159 -186 -159c-79 0 -122 15 -157 37c4 41 4 93 0 134c18 6 44 9 68 9c11 -93 52 -117 93 -117c48 0 76 22 76 61c0 42 -16 67 -148 131c-119 59 -162 122 -162 216c0 88 55 140 123 168
c-56 48 -72 99 -72 161c0 86 74 156 184 156c71 0 117 -13 150 -33c-3 -36 -3 -88 1 -126c-19 -6 -43 -10 -68 -10c-14 82 -48 106 -85 106c-47 0 -76 -27 -76 -62c0 -39 14 -65 141 -125c127 -59 174 -118 174 -215zM295 136l27 -15c61 16 76 52 76 80
c0 45 -16 75 -145 140l-24 13c-52 -16 -68 -49 -68 -80c0 -45 16 -76 134 -138z" />
    <glyph glyph-name="dieresis" unicode="&#xa8;" horiz-adv-x="540" 
d="M131 585c0 39 23 75 77 75c55 0 79 -32 79 -73c0 -40 -33 -69 -77 -69c-47 0 -79 29 -79 67zM515 593c0 -39 -20 -75 -75 -75c-54 0 -82 31 -82 75c0 42 32 67 78 67s79 -29 79 -67z" />
    <glyph glyph-name="copyright" unicode="&#xa9;" horiz-adv-x="809" 
d="M404 574c192 0 345 -151 345 -344c0 -192 -153 -344 -345 -344c-195 0 -344 150 -344 344c0 193 151 344 344 344zM404 518c-161 0 -288 -126 -288 -288c0 -163 125 -287 288 -287s288 126 288 287c0 162 -125 288 -288 288zM417 453c57 0 96 -13 140 -39
c-6 -36 -7 -78 -7 -114c-15 -9 -39 -12 -57 -12c-6 61 -28 107 -89 107c-56 0 -77 -58 -77 -150c0 -90 28 -173 108 -173c33 0 70 12 101 43c12 -8 22 -24 23 -42c-35 -40 -86 -68 -163 -68c-101 0 -196 77 -196 223c0 135 84 225 217 225z" />
    <glyph glyph-name="ordfeminine" unicode="&#xaa;" horiz-adv-x="420" 
d="M354 562v-63c0 -52 10 -62 33 -62c0 -19 -1 -38 -8 -54c-44 -3 -83 -13 -110 -24c-16 5 -26 16 -26 38c0 12 3 24 5 35c-4 -16 -16 -35 -29 -46c-18 -16 -44 -26 -76 -26c-70 0 -104 31 -104 88c0 86 90 115 198 133c0 44 -3 58 -13 72c-9 13 -21 19 -38 19
c-30 0 -42 -34 -47 -84c-25 0 -51 2 -70 8c2 28 1 59 -4 83c36 21 86 39 140 39c65 0 95 -13 118 -37c22 -25 31 -53 31 -119zM237 520v18c-50 -9 -83 -21 -83 -70c0 -29 12 -40 27 -40c26 0 56 29 56 92z" />
    <glyph glyph-name="guillemotleft" unicode="&#xab;" horiz-adv-x="507" 
d="M271 396c-36 -44 -73 -90 -98 -130c27 -56 58 -107 91 -151c-9 -19 -27 -37 -47 -48c-59 63 -103 110 -157 158c0 24 4 41 12 61c51 43 95 84 140 130c25 0 44 -8 59 -20zM449 387c-30 -46 -57 -87 -81 -129c24 -47 52 -95 79 -134c-6 -16 -28 -38 -53 -50
c-49 60 -83 97 -133 147c0 26 4 46 10 64c47 44 79 79 117 125c24 -3 47 -11 61 -23z" />
    <glyph glyph-name="logicalnot" unicode="&#xac;" horiz-adv-x="568" 
d="M519 352v-231c-21 -11 -39 -17 -67 -17v179c-137 0 -265 1 -411 -3c0 21 4 53 11 72h467z" />
    <glyph glyph-name="softhyphen" unicode="&#xad;" horiz-adv-x="419" 
d="M77 314h282c0 -23 -3 -56 -13 -83c-79 0 -198 -1 -286 -6c0 26 6 63 17 89z" />
    <glyph glyph-name="registered" unicode="&#xae;" horiz-adv-x="537" 
d="M268 685c119 0 209 -92 209 -209c0 -118 -90 -208 -209 -208c-116 0 -208 90 -208 208c0 117 92 209 208 209zM268 315c94 0 162 70 162 161c0 92 -68 162 -162 162c-91 0 -161 -70 -161 -162c0 -91 70 -161 161 -161zM352 518c0 -27 -11 -51 -38 -63l47 -77l-53 -6
l-38 71l-23 1v-68h-48v205h79c49 0 74 -23 74 -63zM247 543v-61c34 -7 52 0 52 30c0 34 -24 39 -52 31z" />
    <glyph glyph-name="macron" unicode="&#xaf;" horiz-adv-x="540" 
d="M90 631h367c0 -14 -3 -34 -9 -51c-73 0 -214 -1 -367 -7c0 14 3 42 9 58z" />
    <glyph glyph-name="degree" unicode="&#xb0;" horiz-adv-x="413" 
d="M353 568c0 -76 -59 -136 -149 -136c-91 0 -144 57 -144 135c0 75 60 132 144 132c96 0 149 -56 149 -131zM152 586c0 -62 31 -103 65 -103c24 0 44 24 44 74c0 58 -24 93 -62 93c-27 0 -47 -31 -47 -64z" />
    <glyph glyph-name="plusminus" unicode="&#xb1;" horiz-adv-x="560" 
d="M249 163c1 64 2 90 2 142c-40 0 -90 0 -156 -1c0 21 4 56 10 68h146c0 40 0 76 -1 140c20 9 43 10 71 10v-150h159c0 -27 -1 -48 -10 -67c-60 1 -85 1 -149 0v-132c-12 -6 -51 -10 -72 -10zM68 130h443c0 -27 -1 -47 -10 -65c-108 1 -121 1 -206 1c-86 0 -148 -1 -237 -3
c0 20 4 55 10 67z" />
    <glyph glyph-name="twosuperior" unicode="&#xb2;" horiz-adv-x="379" 
d="M322 626c0 -52 -27 -82 -60 -108c-26 -20 -59 -45 -85 -68h52c41 0 53 10 54 46c22 0 41 -1 57 -6c0 -35 0 -76 7 -112c-5 -11 -15 -20 -36 -20c-26 0 -81 2 -129 2c-58 0 -102 -1 -133 -2c-9 14 -12 26 -12 44c30 30 65 60 89 81c55 50 78 81 78 125c0 32 -19 54 -43 54
c-23 0 -32 -16 -43 -93c-21 0 -49 3 -65 9c3 33 3 79 -1 112c42 20 80 27 139 27c62 0 131 -23 131 -91z" />
    <glyph glyph-name="threesuperior" unicode="&#xb3;" horiz-adv-x="390" 
d="M311 716c8 -13 11 -24 11 -42c-32 -37 -70 -86 -111 -145c74 3 135 -39 135 -127c0 -84 -70 -157 -206 -157c-54 0 -89 17 -106 29c5 18 14 36 26 47c13 -8 43 -17 80 -17c47 0 95 29 95 91c0 42 -25 75 -69 75c-10 0 -15 -1 -22 -3c-11 8 -22 25 -25 41
c41 51 68 85 91 119h-49c-35 0 -47 -10 -62 -48c-18 0 -39 4 -48 10c7 42 10 94 10 127c23 -1 74 -1 134 -1c58 0 98 0 116 1z" />
    <glyph glyph-name="acute" unicode="&#xb4;" horiz-adv-x="540" 
d="M287 707c28 10 60 13 90 13c18 -1 35 -2 48 -5c-48 -58 -95 -124 -131 -185c-25 0 -54 6 -69 14c30 62 49 111 62 163z" />
    <glyph glyph-name="uni00B5" unicode="&#xb5;" horiz-adv-x="617" 
d="M562 95c12 -15 20 -33 24 -53c-33 -30 -82 -51 -127 -51c-56 0 -78 32 -82 86c-21 -49 -64 -83 -123 -83c-31 0 -56 10 -70 28v-65c0 -59 6 -109 16 -140c-42 -17 -75 -37 -111 -67c-18 10 -33 32 -35 54c13 24 15 41 15 121v517c44 3 92 14 117 25c18 -7 29 -23 29 -55
v-221c0 -86 21 -112 58 -112c48 0 89 49 89 159v204c43 3 92 14 117 25c17 -7 28 -23 28 -55v-223c0 -84 9 -103 31 -103c9 0 17 3 24 9z" />
    <glyph glyph-name="paragraph" unicode="&#xb6;" horiz-adv-x="590" 
d="M467 677c29 0 70 0 100 3c0 -21 -2 -43 -8 -63c-59 -3 -67 -26 -67 -100v-765c-22 0 -45 3 -66 13v850c-17 3 -34 5 -51 6l1 -869c-24 0 -46 1 -67 12v537c-10 -1 -19 -1 -31 -1c-156 0 -241 45 -241 186c0 113 77 194 280 194c59 0 105 -3 150 -3zM309 359v262
c-90 -5 -123 -40 -123 -128c0 -94 61 -134 120 -134h3z" />
    <glyph glyph-name="periodcentered" unicode="&#xb7;" horiz-adv-x="287" 
d="M227 282c0 -50 -33 -85 -84 -85c-52 0 -83 32 -83 80s37 80 88 80c48 0 79 -38 79 -75z" />
    <glyph glyph-name="cedilla" unicode="&#xb8;" horiz-adv-x="540" 
d="M337 16l-46 -62c56 -9 88 -47 88 -93c0 -67 -69 -103 -155 -103c-6 12 -8 30 -8 43c41 0 79 17 79 48c0 27 -27 45 -61 45c-11 11 -18 26 -18 43l58 79h63z" />
    <glyph glyph-name="onesuperior" unicode="&#xb9;" horiz-adv-x="334" 
d="M226 585v-103c0 -48 11 -63 51 -66c4 -18 6 -36 6 -59c-31 2 -83 3 -113 3c-31 0 -85 -1 -117 -3c0 22 2 42 6 59c41 3 52 18 52 66v103c0 46 -12 66 -52 69c-5 19 -6 39 -6 60c22 -2 90 -3 117 -3c25 0 87 1 113 3c0 -21 -1 -41 -5 -60c-40 -3 -52 -23 -52 -69z" />
    <glyph glyph-name="ordmasculine" unicode="&#xba;" horiz-adv-x="437" 
d="M219 717c122 0 182 -73 182 -176c0 -114 -71 -184 -186 -184c-119 0 -181 68 -181 175c0 120 82 185 185 185zM226 409c35 0 55 48 55 111c0 98 -34 148 -71 148s-55 -49 -55 -111c0 -85 25 -148 71 -148z" />
    <glyph glyph-name="guillemotright" unicode="&#xbb;" horiz-adv-x="511" 
d="M250 114c34 43 61 83 88 127c-27 48 -61 102 -97 154c14 11 38 20 60 20c49 -48 83 -78 138 -124c10 -19 12 -37 12 -59c-55 -54 -108 -110 -156 -164c-20 10 -36 27 -45 46zM66 123c29 41 50 76 73 119c-21 44 -50 94 -82 144c13 11 40 21 65 24c42 -47 69 -75 117 -119
c9 -22 10 -42 10 -64c-48 -53 -87 -99 -130 -152c-22 11 -43 31 -53 48z" />
    <glyph glyph-name="onequarter" unicode="&#xbc;" horiz-adv-x="918" 
d="M277 339c4 -12 5 -37 5 -61c-28 2 -81 3 -124 3c-48 0 -89 -1 -122 -3c0 22 1 42 6 61c47 5 61 14 61 84v141c0 53 -12 66 -73 68c0 17 1 39 8 56c59 7 113 23 156 41c19 -6 25 -16 25 -49v-251c0 -73 13 -85 58 -90zM179 18l513 698c23 -2 51 -15 65 -28l-512 -697
c-26 3 -56 14 -66 27zM890 195c-9 -17 -15 -49 -18 -75h-62c2 -53 16 -59 51 -60c4 -19 5 -41 5 -62c-31 1 -91 2 -122 2c-32 0 -90 -1 -119 -2c0 22 1 47 6 62c43 2 62 10 65 59c-78 -1 -134 -4 -170 -6c-11 11 -22 40 -22 59c83 98 151 180 223 279c24 3 62 0 83 -7v-231
h42c20 0 30 -5 38 -18zM696 328l-85 -115h85v115z" />
    <glyph glyph-name="onehalf" unicode="&#xbd;" horiz-adv-x="994" 
d="M103 423v141c0 53 -12 66 -73 68c0 17 1 39 8 56c59 7 113 23 156 41c19 -6 25 -16 25 -49v-251c0 -73 13 -85 58 -90c4 -12 5 -37 5 -61c-28 2 -81 3 -124 3c-48 0 -89 -1 -122 -3c0 22 1 42 6 61c47 5 61 14 61 84zM757 688l-512 -697c-26 3 -56 14 -66 27l513 698
c23 -2 51 -15 65 -28zM939 344c0 -57 -38 -102 -95 -147c-36 -30 -61 -53 -92 -86h90c38 0 52 8 53 42c23 0 46 -1 61 -6c-1 -44 0 -100 7 -128c-8 -14 -24 -20 -50 -20c-14 0 -76 1 -110 1c-59 0 -106 -1 -164 -1c-11 14 -17 36 -17 59c19 22 46 50 61 66l61 63
c50 50 68 89 68 138c0 44 -15 73 -50 73c-33 0 -52 -24 -60 -98c-30 0 -47 2 -70 11c7 32 8 68 5 106c40 22 90 32 153 32c86 0 149 -30 149 -105z" />
    <glyph glyph-name="threequarters" unicode="&#xbe;" horiz-adv-x="924" 
d="M347 430c0 -97 -79 -157 -195 -157c-63 0 -101 21 -115 34c-1 17 4 35 12 46c15 -9 45 -22 88 -22c54 0 88 26 88 74c0 38 -33 61 -68 61c-13 0 -22 -1 -30 -4c-13 12 -21 32 -22 47c35 37 70 77 99 116h-51c-28 0 -44 -12 -59 -51c-19 0 -38 4 -51 12
c8 34 12 106 11 140c26 -1 78 -2 140 -2c63 0 101 2 120 2c8 -8 13 -26 13 -43c-37 -41 -75 -87 -114 -136c69 -5 134 -31 134 -117zM185 18l513 698c23 -2 51 -15 65 -28l-512 -697c-26 3 -56 14 -66 27zM896 195c-9 -17 -15 -49 -18 -75h-62c2 -53 16 -59 51 -60
c4 -19 5 -41 5 -62c-31 1 -91 2 -122 2c-32 0 -90 -1 -119 -2c0 22 1 47 6 62c43 2 62 10 65 59c-78 -1 -134 -4 -170 -6c-11 11 -22 40 -22 59c83 98 151 180 223 279c24 3 62 0 83 -7v-231h42c20 0 30 -5 38 -18zM702 328l-85 -115h85v115z" />
    <glyph glyph-name="questiondown" unicode="&#xbf;" horiz-adv-x="537" 
d="M163 381c0 50 33 85 84 85c52 0 83 -31 83 -80c0 -48 -37 -80 -88 -80c-48 0 -79 38 -79 75zM240 -258c-113 0 -175 46 -175 125c0 138 155 160 155 291c0 24 -5 51 -13 76c17 10 44 14 66 14c28 -17 53 -70 53 -125c0 -128 -116 -143 -116 -240c0 -52 29 -80 61 -80
c37 0 59 31 71 132c33 0 60 -5 82 -17c-4 -48 -5 -90 0 -132c-41 -21 -100 -44 -184 -44z" />
    <glyph glyph-name="Agrave" unicode="&#xc0;" horiz-adv-x="711" 
d="M326 752c-41 61 -77 109 -129 159c38 17 86 24 133 22c16 -53 41 -115 70 -170c-19 -10 -43 -12 -74 -11zM687 59c5 -17 8 -37 8 -62c-32 2 -106 3 -138 3s-118 -1 -148 -3c0 28 2 46 7 62c49 9 56 25 33 77l-23 54c-79 0 -165 -2 -244 -7l-13 -33
c-20 -51 -11 -85 38 -91c5 -17 7 -37 7 -62c-23 2 -74 3 -107 3s-71 -1 -90 -3c0 22 2 43 8 62c34 6 48 26 80 104l210 514c20 5 35 5 60 5l229 -513c41 -91 54 -106 83 -110zM401 246l-54 126c-21 47 -36 88 -47 128c-13 -42 -27 -83 -44 -127l-50 -127h195z" />
    <glyph glyph-name="Aacute" unicode="&#xc1;" horiz-adv-x="711" 
d="M501 933c-48 -58 -95 -124 -131 -185c-25 0 -54 6 -69 14c30 62 49 111 62 163c28 10 60 13 90 13c18 -1 35 -2 48 -5zM687 59c5 -17 8 -37 8 -62c-32 2 -106 3 -138 3s-118 -1 -148 -3c0 28 2 46 7 62c49 9 56 25 33 77l-23 54c-79 0 -165 -2 -244 -7l-13 -33
c-20 -51 -11 -85 38 -91c5 -17 7 -37 7 -62c-23 2 -74 3 -107 3s-71 -1 -90 -3c0 22 2 43 8 62c34 6 48 26 80 104l210 514c20 5 35 5 60 5l229 -513c41 -91 54 -106 83 -110zM401 246l-54 126c-21 47 -36 88 -47 128c-13 -42 -27 -83 -44 -127l-50 -127h195z" />
    <glyph glyph-name="Acircumflex" unicode="&#xc2;" horiz-adv-x="711" 
d="M202 734c-22 8 -35 32 -39 48c54 38 118 93 163 143c18 6 42 10 62 10c39 -49 91 -105 154 -162c-14 -17 -34 -31 -63 -36c-40 28 -93 65 -137 88c-34 -18 -107 -66 -140 -91zM687 59c5 -17 8 -37 8 -62c-32 2 -106 3 -138 3s-118 -1 -148 -3c0 28 2 46 7 62
c49 9 56 25 33 77l-23 54c-79 0 -165 -2 -244 -7l-13 -33c-20 -51 -11 -85 38 -91c5 -17 7 -37 7 -62c-23 2 -74 3 -107 3s-71 -1 -90 -3c0 22 2 43 8 62c34 6 48 26 80 104l210 514c20 5 35 5 60 5l229 -513c41 -91 54 -106 83 -110zM401 246l-54 126
c-21 47 -36 88 -47 128c-13 -42 -27 -83 -44 -127l-50 -127h195z" />
    <glyph glyph-name="Atilde" unicode="&#xc3;" horiz-adv-x="711" 
d="M176 726c-15 11 -22 24 -24 43c52 87 99 109 138 109c57 0 96 -41 143 -41c29 0 53 11 73 32c14 -7 27 -18 33 -32c-39 -81 -76 -115 -125 -115c-58 0 -94 44 -148 44c-31 0 -60 -13 -90 -40zM687 59c5 -17 8 -37 8 -62c-32 2 -106 3 -138 3s-118 -1 -148 -3
c0 28 2 46 7 62c49 9 56 25 33 77l-23 54c-79 0 -165 -2 -244 -7l-13 -33c-20 -51 -11 -85 38 -91c5 -17 7 -37 7 -62c-23 2 -74 3 -107 3s-71 -1 -90 -3c0 22 2 43 8 62c34 6 48 26 80 104l210 514c20 5 35 5 60 5l229 -513c41 -91 54 -106 83 -110zM401 246l-54 126
c-21 47 -36 88 -47 128c-13 -42 -27 -83 -44 -127l-50 -127h195z" />
    <glyph glyph-name="Adieresis" unicode="&#xc4;" horiz-adv-x="711" 
d="M233 736c-47 0 -79 29 -79 67c0 39 23 75 77 75c55 0 79 -32 79 -73c0 -40 -33 -69 -77 -69zM463 736c-54 0 -82 31 -82 75c0 42 32 67 78 67s79 -29 79 -67c0 -39 -20 -75 -75 -75zM687 59c5 -17 8 -37 8 -62c-32 2 -106 3 -138 3s-118 -1 -148 -3c0 28 2 46 7 62
c49 9 56 25 33 77l-23 54c-79 0 -165 -2 -244 -7l-13 -33c-20 -51 -11 -85 38 -91c5 -17 7 -37 7 -62c-23 2 -74 3 -107 3s-71 -1 -90 -3c0 22 2 43 8 62c34 6 48 26 80 104l210 514c20 5 35 5 60 5l229 -513c41 -91 54 -106 83 -110zM401 246l-54 126
c-21 47 -36 88 -47 128c-13 -42 -27 -83 -44 -127l-50 -127h195z" />
    <glyph glyph-name="Aring" unicode="&#xc5;" horiz-adv-x="711" 
d="M339 738c-64 0 -116 37 -116 97c0 61 54 103 125 103c63 0 117 -30 117 -96c0 -60 -52 -104 -126 -104zM341 892c-22 0 -36 -19 -36 -52c0 -29 16 -52 43 -52c19 0 36 17 36 45c0 26 -13 59 -43 59zM687 59c5 -17 8 -37 8 -62c-32 2 -106 3 -138 3s-118 -1 -148 -3
c0 28 2 46 7 62c49 9 56 25 33 77l-23 54c-79 0 -165 -2 -244 -7l-13 -33c-20 -51 -11 -85 38 -91c5 -17 7 -37 7 -62c-23 2 -74 3 -107 3s-71 -1 -90 -3c0 22 2 43 8 62c34 6 48 26 80 104l210 514c20 5 35 5 60 5l229 -513c41 -91 54 -106 83 -110zM401 246l-54 126
c-21 47 -36 88 -47 128c-13 -42 -27 -83 -44 -127l-50 -127h195z" />
    <glyph glyph-name="AE" unicode="&#xc6;" horiz-adv-x="997" 
d="M956 164c-15 -46 -26 -110 -31 -166c-58 1 -181 2 -269 2c-90 0 -201 -1 -247 -3c0 24 1 45 7 62c53 6 66 20 66 106v124c-80 -2 -142 -5 -184 -9c-29 -50 -52 -92 -65 -117c-38 -71 -24 -96 24 -104c6 -16 8 -38 8 -62c-31 2 -79 3 -112 3s-95 -1 -115 -3
c0 20 3 47 9 62c40 5 60 20 102 93l223 383c30 54 20 75 -36 81c-5 12 -10 43 -10 62c52 -1 132 -2 186 -2h91c140 0 233 1 295 3c2 -57 11 -126 21 -169c-13 -11 -53 -15 -76 -15c-9 67 -37 122 -149 122h-60v-270h29c67 0 85 17 85 78c21 7 47 10 70 10
c-1 -26 -2 -65 -2 -115c0 -41 1 -92 2 -118c-23 0 -51 0 -68 8c-4 59 -16 81 -90 81h-26v-123c0 -91 23 -106 75 -106h21c92 0 116 35 151 131c29 -6 60 -15 75 -29zM482 347v193c0 22 1 46 3 69c-9 -17 -19 -36 -34 -63l-115 -199h146z" />
    <glyph glyph-name="Ccedilla" unicode="&#xc7;" horiz-adv-x="642" 
d="M409 -7l-29 -39c56 -9 88 -47 88 -93c0 -67 -69 -103 -155 -103c-6 12 -8 30 -8 43c41 0 79 17 79 48c0 27 -27 45 -61 45c-11 11 -18 26 -18 43l40 55c-185 10 -310 150 -310 350c0 228 164 343 340 343c77 0 149 -18 220 -52c-8 -46 -11 -100 -11 -155
c-17 -9 -52 -12 -78 -12c-3 121 -51 158 -126 158c-135 0 -184 -124 -184 -256c0 -168 74 -298 223 -298c53 0 113 18 167 50c11 -10 20 -29 23 -44c-53 -44 -117 -75 -200 -83z" />
    <glyph glyph-name="Egrave" unicode="&#xc8;" 
d="M283 752c-41 61 -77 109 -129 159c38 17 86 24 133 22c16 -53 41 -115 70 -170c-19 -10 -43 -12 -74 -11zM523 193c34 -5 62 -15 76 -29c-15 -46 -25 -109 -31 -166c-50 1 -151 2 -240 2c-71 0 -239 -2 -286 -3c0 24 2 47 6 62c54 4 68 20 68 106v352
c0 80 -14 94 -68 100c-5 16 -6 43 -6 62c52 -2 167 -3 225 -3c150 0 228 1 275 3c2 -48 9 -124 21 -169c-20 -10 -43 -15 -76 -15c-10 67 -38 122 -150 122h-69v-248h29c73 0 93 17 94 75c21 7 46 10 71 10c-2 -33 -4 -70 -4 -114c0 -46 2 -86 4 -117c-29 0 -49 1 -69 8
c-5 61 -27 77 -96 77h-29v-140c0 -84 18 -106 84 -106h12c102 0 132 41 159 131z" />
    <glyph glyph-name="Eacute" unicode="&#xc9;" 
d="M458 933c-48 -58 -95 -124 -131 -185c-25 0 -54 6 -69 14c30 62 49 111 62 163c28 10 60 13 90 13c18 -1 35 -2 48 -5zM523 193c34 -5 62 -15 76 -29c-15 -46 -25 -109 -31 -166c-50 1 -151 2 -240 2c-71 0 -239 -2 -286 -3c0 24 2 47 6 62c54 4 68 20 68 106v352
c0 80 -14 94 -68 100c-5 16 -6 43 -6 62c52 -2 167 -3 225 -3c150 0 228 1 275 3c2 -48 9 -124 21 -169c-20 -10 -43 -15 -76 -15c-10 67 -38 122 -150 122h-69v-248h29c73 0 93 17 94 75c21 7 46 10 71 10c-2 -33 -4 -70 -4 -114c0 -46 2 -86 4 -117c-29 0 -49 1 -69 8
c-5 61 -27 77 -96 77h-29v-140c0 -84 18 -106 84 -106h12c102 0 132 41 159 131z" />
    <glyph glyph-name="Ecircumflex" unicode="&#xca;" 
d="M160 734c-22 8 -35 32 -39 48c54 38 118 93 163 143c18 6 42 10 62 10c39 -49 91 -105 154 -162c-14 -17 -34 -31 -63 -36c-40 28 -93 65 -137 88c-34 -18 -107 -66 -140 -91zM523 193c34 -5 62 -15 76 -29c-15 -46 -25 -109 -31 -166c-50 1 -151 2 -240 2
c-71 0 -239 -2 -286 -3c0 24 2 47 6 62c54 4 68 20 68 106v352c0 80 -14 94 -68 100c-5 16 -6 43 -6 62c52 -2 167 -3 225 -3c150 0 228 1 275 3c2 -48 9 -124 21 -169c-20 -10 -43 -15 -76 -15c-10 67 -38 122 -150 122h-69v-248h29c73 0 93 17 94 75c21 7 46 10 71 10
c-2 -33 -4 -70 -4 -114c0 -46 2 -86 4 -117c-29 0 -49 1 -69 8c-5 61 -27 77 -96 77h-29v-140c0 -84 18 -106 84 -106h12c102 0 132 41 159 131z" />
    <glyph glyph-name="Edieresis" unicode="&#xcb;" 
d="M190 736c-47 0 -79 29 -79 67c0 39 23 75 77 75c55 0 79 -32 79 -73c0 -40 -33 -69 -77 -69zM420 736c-54 0 -82 31 -82 75c0 42 32 67 78 67s79 -29 79 -67c0 -39 -20 -75 -75 -75zM523 193c34 -5 62 -15 76 -29c-15 -46 -25 -109 -31 -166c-50 1 -151 2 -240 2
c-71 0 -239 -2 -286 -3c0 24 2 47 6 62c54 4 68 20 68 106v352c0 80 -14 94 -68 100c-5 16 -6 43 -6 62c52 -2 167 -3 225 -3c150 0 228 1 275 3c2 -48 9 -124 21 -169c-20 -10 -43 -15 -76 -15c-10 67 -38 122 -150 122h-69v-248h29c73 0 93 17 94 75c21 7 46 10 71 10
c-2 -33 -4 -70 -4 -114c0 -46 2 -86 4 -117c-29 0 -49 1 -69 8c-5 61 -27 77 -96 77h-29v-140c0 -84 18 -106 84 -106h12c102 0 132 41 159 131z" />
    <glyph glyph-name="Igrave" unicode="&#xcc;" horiz-adv-x="384" 
d="M173 752c-41 61 -77 109 -129 159c38 17 86 24 133 22c16 -53 41 -115 70 -170c-19 -10 -43 -12 -74 -11zM116 160v357c0 80 -13 94 -67 100c-5 16 -7 40 -7 62c34 -2 107 -3 153 -3s107 1 147 3c0 -23 0 -43 -7 -62c-54 -5 -67 -20 -67 -100v-357c0 -81 14 -97 68 -101
c4 -14 6 -40 6 -62c-34 2 -86 3 -142 3c-55 0 -117 -1 -158 -3c0 21 3 47 7 62c54 4 67 20 67 101z" />
    <glyph glyph-name="Iacute" unicode="&#xcd;" horiz-adv-x="384" 
d="M210 925c28 10 60 13 90 13c18 -1 35 -2 48 -5c-48 -58 -95 -124 -131 -185c-25 0 -54 6 -69 14c30 62 49 111 62 163zM116 160v357c0 80 -13 94 -67 100c-5 16 -7 40 -7 62c34 -2 107 -3 153 -3s107 1 147 3c0 -23 0 -43 -7 -62c-54 -5 -67 -20 -67 -100v-357
c0 -81 14 -97 68 -101c4 -14 6 -40 6 -62c-34 2 -86 3 -142 3c-55 0 -117 -1 -158 -3c0 21 3 47 7 62c54 4 67 20 67 101z" />
    <glyph glyph-name="Icircumflex" unicode="&#xce;" horiz-adv-x="384" 
d="M173 925c18 6 42 10 62 10c39 -49 91 -105 154 -162c-14 -17 -34 -31 -63 -36c-40 28 -93 65 -137 88c-34 -18 -107 -66 -140 -91c-22 8 -35 32 -39 48c54 38 118 93 163 143zM116 160v357c0 80 -13 94 -67 100c-5 16 -7 40 -7 62c34 -2 107 -3 153 -3s107 1 147 3
c0 -23 0 -43 -7 -62c-54 -5 -67 -20 -67 -100v-357c0 -81 14 -97 68 -101c4 -14 6 -40 6 -62c-34 2 -86 3 -142 3c-55 0 -117 -1 -158 -3c0 21 3 47 7 62c54 4 67 20 67 101z" />
    <glyph glyph-name="Idieresis" unicode="&#xcf;" horiz-adv-x="384" 
d="M1 803c0 39 23 75 77 75c55 0 79 -32 79 -73c0 -40 -33 -69 -77 -69c-47 0 -79 29 -79 67zM385 811c0 -39 -20 -75 -75 -75c-54 0 -82 31 -82 75c0 42 32 67 78 67s79 -29 79 -67zM116 160v357c0 80 -13 94 -67 100c-5 16 -7 40 -7 62c34 -2 107 -3 153 -3s107 1 147 3
c0 -23 0 -43 -7 -62c-54 -5 -67 -20 -67 -100v-357c0 -81 14 -97 68 -101c4 -14 6 -40 6 -62c-34 2 -86 3 -142 3c-55 0 -117 -1 -158 -3c0 21 3 47 7 62c54 4 67 20 67 101z" />
    <glyph glyph-name="Eth" unicode="&#xd0;" horiz-adv-x="742" 
d="M336 678c187 0 369 -50 369 -323c0 -324 -267 -355 -372 -355c-72 0 -239 -2 -287 -3c0 24 3 47 7 62c54 4 68 20 68 106v83c-27 0 -54 -1 -93 -2c0 28 5 57 12 73h81v198c0 80 -13 94 -68 100c-5 16 -6 43 -6 62c40 -2 119 -2 179 -3c33 1 69 2 110 2zM357 62
c87 0 190 41 190 276c0 215 -106 281 -218 281c-19 0 -42 -3 -55 -8v-292h154c0 -28 -3 -51 -12 -71c-59 1 -93 1 -142 1v-81c0 -84 16 -106 83 -106z" />
    <glyph glyph-name="Ntilde" unicode="&#xd1;" horiz-adv-x="725" 
d="M198 726c-15 11 -22 24 -24 43c52 87 99 109 138 109c57 0 96 -41 143 -41c29 0 53 11 73 32c14 -7 27 -18 33 -32c-39 -81 -76 -115 -125 -115c-58 0 -94 44 -148 44c-31 0 -60 -13 -90 -40zM589 676c31 0 76 1 101 3c0 -21 -1 -42 -6 -62c-49 -4 -61 -30 -61 -143v-476
c-20 -6 -42 -7 -69 -7l-374 498v-285c0 -113 14 -141 74 -145c6 -17 7 -39 7 -62c-29 2 -80 3 -112 3c-31 0 -91 1 -116 -1c0 25 1 43 7 60c58 4 76 32 76 145v370l-10 13c-15 21 -28 26 -66 30c-5 18 -7 40 -7 62c24 -2 78 -3 107 -3s70 0 93 3l325 -439v234
c0 112 -14 138 -78 143c-5 23 -6 44 -6 62c29 -2 83 -3 115 -3z" />
    <glyph glyph-name="Ograve" unicode="&#xd2;" horiz-adv-x="748" 
d="M355 752c-41 61 -77 109 -129 159c38 17 86 24 133 22c16 -53 41 -115 70 -170c-19 -10 -43 -12 -74 -11zM373 685c201 0 340 -134 340 -337c0 -207 -136 -357 -340 -357c-208 0 -338 145 -338 350c0 209 144 344 338 344zM389 56c104 0 164 111 164 269
c0 165 -79 297 -196 297c-98 0 -162 -97 -162 -256c0 -164 64 -310 194 -310z" />
    <glyph glyph-name="Oacute" unicode="&#xd3;" horiz-adv-x="748" 
d="M392 925c28 10 60 13 90 13c18 -1 35 -2 48 -5c-48 -58 -95 -124 -131 -185c-25 0 -54 6 -69 14c30 62 49 111 62 163zM373 685c201 0 340 -134 340 -337c0 -207 -136 -357 -340 -357c-208 0 -338 145 -338 350c0 209 144 344 338 344zM389 56c104 0 164 111 164 269
c0 165 -79 297 -196 297c-98 0 -162 -97 -162 -256c0 -164 64 -310 194 -310z" />
    <glyph glyph-name="Ocircumflex" unicode="&#xd4;" horiz-adv-x="748" 
d="M356 925c18 6 42 10 62 10c39 -49 91 -105 154 -162c-14 -17 -34 -31 -63 -36c-40 28 -93 65 -137 88c-34 -18 -107 -66 -140 -91c-22 8 -35 32 -39 48c54 38 118 93 163 143zM373 685c201 0 340 -134 340 -337c0 -207 -136 -357 -340 -357c-208 0 -338 145 -338 350
c0 209 144 344 338 344zM389 56c104 0 164 111 164 269c0 165 -79 297 -196 297c-98 0 -162 -97 -162 -256c0 -164 64 -310 194 -310z" />
    <glyph glyph-name="Otilde" unicode="&#xd5;" horiz-adv-x="748" 
d="M181 769c52 87 99 109 138 109c57 0 96 -41 143 -41c29 0 53 11 73 32c14 -7 27 -18 33 -32c-39 -81 -76 -115 -125 -115c-58 0 -94 44 -148 44c-31 0 -60 -13 -90 -40c-15 11 -22 24 -24 43zM373 685c201 0 340 -134 340 -337c0 -207 -136 -357 -340 -357
c-208 0 -338 145 -338 350c0 209 144 344 338 344zM389 56c104 0 164 111 164 269c0 165 -79 297 -196 297c-98 0 -162 -97 -162 -256c0 -164 64 -310 194 -310z" />
    <glyph glyph-name="Odieresis" unicode="&#xd6;" horiz-adv-x="748" 
d="M183 803c0 39 23 75 77 75c55 0 79 -32 79 -73c0 -40 -33 -69 -77 -69c-47 0 -79 29 -79 67zM567 811c0 -39 -20 -75 -75 -75c-54 0 -82 31 -82 75c0 42 32 67 78 67s79 -29 79 -67zM373 685c201 0 340 -134 340 -337c0 -207 -136 -357 -340 -357
c-208 0 -338 145 -338 350c0 209 144 344 338 344zM389 56c104 0 164 111 164 269c0 165 -79 297 -196 297c-98 0 -162 -97 -162 -256c0 -164 64 -310 194 -310z" />
    <glyph glyph-name="multiply" unicode="&#xd7;" horiz-adv-x="637" 
d="M371 237l220 -214c-14 -19 -44 -32 -71 -32c-65 67 -131 132 -197 198c-64 -66 -128 -132 -190 -198c-27 -1 -61 8 -74 25l218 219c-72 70 -145 139 -220 208c18 18 44 31 69 31l198 -192l192 193c28 -2 59 -12 72 -27c-73 -70 -146 -140 -217 -211z" />
    <glyph glyph-name="Oslash" unicode="&#xd8;" horiz-adv-x="752" 
d="M697 680l-73 -93c56 -58 89 -141 89 -239c0 -207 -136 -357 -340 -357c-72 0 -135 17 -186 49l-55 -67c-32 0 -62 9 -77 22l75 90c-61 62 -95 151 -95 256c0 209 144 344 338 344c74 0 139 -18 192 -51l51 66c31 0 63 -6 81 -20zM357 622c-98 0 -162 -97 -162 -256
c0 -61 9 -120 27 -170l269 350c-33 47 -80 76 -134 76zM389 56c104 0 164 111 164 269c0 54 -8 104 -24 148l-269 -349c31 -42 75 -68 129 -68z" />
    <glyph glyph-name="Ugrave" unicode="&#xd9;" horiz-adv-x="687" 
d="M367 752c-41 61 -77 109 -129 159c38 17 86 24 133 22c16 -53 41 -115 70 -170c-19 -10 -43 -12 -74 -11zM584 491v-218c0 -115 -12 -181 -58 -227c-40 -38 -98 -55 -171 -55c-194 0 -256 78 -256 244v279c0 83 -11 95 -63 103c-4 17 -6 40 -6 62c27 -2 79 -3 127 -3
s136 1 167 3c0 -24 -1 -43 -6 -62c-56 -8 -66 -19 -66 -103v-263c0 -120 37 -191 138 -191c31 0 71 11 95 40c23 29 35 71 35 175v211c0 98 -14 123 -68 131c-4 23 -5 42 -5 62c25 -2 74 -3 104 -3c35 0 76 1 101 3c0 -20 -1 -40 -6 -62c-50 -7 -62 -32 -62 -126z" />
    <glyph glyph-name="Uacute" unicode="&#xda;" horiz-adv-x="687" 
d="M404 925c28 10 60 13 90 13c18 -1 35 -2 48 -5c-48 -58 -95 -124 -131 -185c-25 0 -54 6 -69 14c30 62 49 111 62 163zM584 491v-218c0 -115 -12 -181 -58 -227c-40 -38 -98 -55 -171 -55c-194 0 -256 78 -256 244v279c0 83 -11 95 -63 103c-4 17 -6 40 -6 62
c27 -2 79 -3 127 -3s136 1 167 3c0 -24 -1 -43 -6 -62c-56 -8 -66 -19 -66 -103v-263c0 -120 37 -191 138 -191c31 0 71 11 95 40c23 29 35 71 35 175v211c0 98 -14 123 -68 131c-4 23 -5 42 -5 62c25 -2 74 -3 104 -3c35 0 76 1 101 3c0 -20 -1 -40 -6 -62
c-50 -7 -62 -32 -62 -126z" />
    <glyph glyph-name="Ucircumflex" unicode="&#xdb;" horiz-adv-x="687" 
d="M367 925c18 6 42 10 62 10c39 -49 91 -105 154 -162c-14 -17 -34 -31 -63 -36c-40 28 -93 65 -137 88c-34 -18 -107 -66 -140 -91c-22 8 -35 32 -39 48c54 38 118 93 163 143zM584 491v-218c0 -115 -12 -181 -58 -227c-40 -38 -98 -55 -171 -55c-194 0 -256 78 -256 244
v279c0 83 -11 95 -63 103c-4 17 -6 40 -6 62c27 -2 79 -3 127 -3s136 1 167 3c0 -24 -1 -43 -6 -62c-56 -8 -66 -19 -66 -103v-263c0 -120 37 -191 138 -191c31 0 71 11 95 40c23 29 35 71 35 175v211c0 98 -14 123 -68 131c-4 23 -5 42 -5 62c25 -2 74 -3 104 -3
c35 0 76 1 101 3c0 -20 -1 -40 -6 -62c-50 -7 -62 -32 -62 -126z" />
    <glyph glyph-name="Udieresis" unicode="&#xdc;" horiz-adv-x="687" 
d="M194 803c0 39 23 75 77 75c55 0 79 -32 79 -73c0 -40 -33 -69 -77 -69c-47 0 -79 29 -79 67zM578 811c0 -39 -20 -75 -75 -75c-54 0 -82 31 -82 75c0 42 32 67 78 67s79 -29 79 -67zM584 491v-218c0 -115 -12 -181 -58 -227c-40 -38 -98 -55 -171 -55
c-194 0 -256 78 -256 244v279c0 83 -11 95 -63 103c-4 17 -6 40 -6 62c27 -2 79 -3 127 -3s136 1 167 3c0 -24 -1 -43 -6 -62c-56 -8 -66 -19 -66 -103v-263c0 -120 37 -191 138 -191c31 0 71 11 95 40c23 29 35 71 35 175v211c0 98 -14 123 -68 131c-4 23 -5 42 -5 62
c25 -2 74 -3 104 -3c35 0 76 1 101 3c0 -20 -1 -40 -6 -62c-50 -7 -62 -32 -62 -126z" />
    <glyph glyph-name="Yacute" unicode="&#xdd;" horiz-adv-x="632" 
d="M519 933c-48 -58 -95 -124 -131 -185c-25 0 -54 6 -69 14c30 62 49 111 62 163c28 10 60 13 90 13c18 -1 35 -2 48 -5zM526 676c30 0 62 0 90 2c0 -25 -3 -43 -7 -60c-30 -7 -53 -29 -84 -95l-128 -272v-69c0 -102 12 -115 89 -123c7 -20 9 -37 9 -62
c-52 2 -118 3 -176 3c-61 0 -132 -2 -178 -3c0 23 2 45 9 62c85 7 94 18 94 118v77l-151 304c-21 42 -41 56 -69 59c-6 19 -7 36 -7 61c39 -2 101 -2 139 -2s117 0 153 2c0 -26 -2 -42 -6 -60c-46 -6 -47 -31 -23 -83c25 -53 59 -129 91 -208c34 81 65 150 90 205
c27 56 16 80 -28 85c-5 18 -8 35 -8 61c31 -2 65 -2 101 -2z" />
    <glyph glyph-name="Thorn" unicode="&#xde;" horiz-adv-x="645" 
d="M389 543c157 0 218 -85 218 -186c0 -112 -85 -207 -233 -207c-29 0 -51 3 -69 9c-4 21 -1 40 5 54c12 -2 24 -2 37 -2c56 0 112 31 112 129c0 82 -43 142 -135 142c-16 0 -32 0 -55 -7v-315c0 -81 14 -97 67 -101c5 -14 7 -40 7 -62c-34 2 -86 3 -142 3s-118 -1 -159 -3
c0 21 3 47 8 62c53 4 66 20 66 101v357c0 80 -12 94 -67 100c-4 16 -7 40 -7 62c35 -2 108 -3 153 -3c46 0 108 1 148 3c0 -23 0 -43 -7 -62c-48 -4 -64 -17 -66 -76c34 1 74 2 119 2z" />
    <glyph glyph-name="germandbls" unicode="&#xdf;" horiz-adv-x="690" 
d="M109 155v217c-16 7 -54 12 -78 12c0 22 2 43 13 64h65v34c0 159 109 234 250 234c140 0 203 -63 203 -133c0 -109 -119 -118 -119 -172c0 -85 213 -76 213 -247c0 -108 -103 -172 -207 -172c-63 0 -108 9 -143 31c5 31 6 96 4 130c17 8 53 12 74 12
c8 -79 25 -113 75 -113c28 0 53 24 53 61c0 105 -204 99 -204 240c0 115 134 97 134 201c0 52 -43 97 -109 97c-53 0 -78 -22 -78 -132v-520c-29 1 -68 1 -95 1c-52 0 -95 -1 -125 -3c0 24 2 45 8 62c53 3 66 20 66 96z" />
    <glyph glyph-name="agrave" unicode="&#xe0;" horiz-adv-x="549" 
d="M239 534c-41 61 -77 109 -129 159c38 17 86 24 133 22c16 -53 41 -115 70 -170c-19 -10 -43 -12 -74 -11zM522 88c3 -22 1 -45 -8 -64c-49 -2 -106 -13 -151 -33c-22 9 -32 22 -32 56c0 12 1 25 4 39c-10 -23 -24 -43 -42 -57c-27 -22 -63 -36 -112 -36
c-95 0 -145 40 -145 114c0 134 190 160 282 173c0 61 -5 84 -22 104c-14 16 -35 25 -56 25c-55 0 -74 -57 -79 -112c-33 0 -61 1 -84 10c3 36 3 78 -6 120c55 24 125 40 195 40c82 0 126 -15 154 -45c29 -29 44 -74 44 -166v-90c0 -61 7 -77 58 -78zM318 200v26
c-78 -14 -136 -33 -136 -93c0 -40 22 -55 47 -55c40 0 89 38 89 122z" />
    <glyph glyph-name="aacute" unicode="&#xe1;" horiz-adv-x="549" 
d="M414 715c-48 -58 -95 -124 -131 -185c-25 0 -54 6 -69 14c30 62 49 111 62 163c28 10 60 13 90 13c18 -1 35 -2 48 -5zM522 88c3 -22 1 -45 -8 -64c-49 -2 -106 -13 -151 -33c-22 9 -32 22 -32 56c0 12 1 25 4 39c-10 -23 -24 -43 -42 -57c-27 -22 -63 -36 -112 -36
c-95 0 -145 40 -145 114c0 134 190 160 282 173c0 61 -5 84 -22 104c-14 16 -35 25 -56 25c-55 0 -74 -57 -79 -112c-33 0 -61 1 -84 10c3 36 3 78 -6 120c55 24 125 40 195 40c82 0 126 -15 154 -45c29 -29 44 -74 44 -166v-90c0 -61 7 -77 58 -78zM318 200v26
c-78 -14 -136 -33 -136 -93c0 -40 22 -55 47 -55c40 0 89 38 89 122z" />
    <glyph glyph-name="acircumflex" unicode="&#xe2;" horiz-adv-x="549" 
d="M115 516c-22 8 -35 32 -39 48c54 38 118 93 163 143c18 6 42 10 62 10c39 -49 91 -105 154 -162c-14 -17 -34 -31 -63 -36c-40 28 -93 65 -137 88c-34 -18 -107 -66 -140 -91zM522 88c3 -22 1 -45 -8 -64c-49 -2 -106 -13 -151 -33c-22 9 -32 22 -32 56c0 12 1 25 4 39
c-10 -23 -24 -43 -42 -57c-27 -22 -63 -36 -112 -36c-95 0 -145 40 -145 114c0 134 190 160 282 173c0 61 -5 84 -22 104c-14 16 -35 25 -56 25c-55 0 -74 -57 -79 -112c-33 0 -61 1 -84 10c3 36 3 78 -6 120c55 24 125 40 195 40c82 0 126 -15 154 -45
c29 -29 44 -74 44 -166v-90c0 -61 7 -77 58 -78zM318 200v26c-78 -14 -136 -33 -136 -93c0 -40 22 -55 47 -55c40 0 89 38 89 122z" />
    <glyph glyph-name="atilde" unicode="&#xe3;" horiz-adv-x="549" 
d="M88 508c-15 11 -22 24 -24 43c52 87 99 109 138 109c57 0 96 -41 143 -41c29 0 53 11 73 32c14 -7 27 -18 33 -32c-39 -81 -76 -115 -125 -115c-58 0 -94 44 -148 44c-31 0 -60 -13 -90 -40zM522 88c3 -22 1 -45 -8 -64c-49 -2 -106 -13 -151 -33c-22 9 -32 22 -32 56
c0 12 1 25 4 39c-10 -23 -24 -43 -42 -57c-27 -22 -63 -36 -112 -36c-95 0 -145 40 -145 114c0 134 190 160 282 173c0 61 -5 84 -22 104c-14 16 -35 25 -56 25c-55 0 -74 -57 -79 -112c-33 0 -61 1 -84 10c3 36 3 78 -6 120c55 24 125 40 195 40c82 0 126 -15 154 -45
c29 -29 44 -74 44 -166v-90c0 -61 7 -77 58 -78zM318 200v26c-78 -14 -136 -33 -136 -93c0 -40 22 -55 47 -55c40 0 89 38 89 122z" />
    <glyph glyph-name="adieresis" unicode="&#xe4;" horiz-adv-x="549" 
d="M145 518c-47 0 -79 29 -79 67c0 39 23 75 77 75c55 0 79 -32 79 -73c0 -40 -33 -69 -77 -69zM375 518c-54 0 -82 31 -82 75c0 42 32 67 78 67s79 -29 79 -67c0 -39 -20 -75 -75 -75zM522 88c3 -22 1 -45 -8 -64c-49 -2 -106 -13 -151 -33c-22 9 -32 22 -32 56
c0 12 1 25 4 39c-10 -23 -24 -43 -42 -57c-27 -22 -63 -36 -112 -36c-95 0 -145 40 -145 114c0 134 190 160 282 173c0 61 -5 84 -22 104c-14 16 -35 25 -56 25c-55 0 -74 -57 -79 -112c-33 0 -61 1 -84 10c3 36 3 78 -6 120c55 24 125 40 195 40c82 0 126 -15 154 -45
c29 -29 44 -74 44 -166v-90c0 -61 7 -77 58 -78zM318 200v26c-78 -14 -136 -33 -136 -93c0 -40 22 -55 47 -55c40 0 89 38 89 122z" />
    <glyph glyph-name="aring" unicode="&#xe5;" horiz-adv-x="549" 
d="M252 520c-64 0 -116 37 -116 97c0 61 54 103 125 103c63 0 117 -30 117 -96c0 -60 -52 -104 -126 -104zM254 674c-22 0 -36 -19 -36 -52c0 -29 16 -52 43 -52c19 0 36 17 36 45c0 26 -13 59 -43 59zM522 88c3 -22 1 -45 -8 -64c-49 -2 -106 -13 -151 -33
c-22 9 -32 22 -32 56c0 12 1 25 4 39c-10 -23 -24 -43 -42 -57c-27 -22 -63 -36 -112 -36c-95 0 -145 40 -145 114c0 134 190 160 282 173c0 61 -5 84 -22 104c-14 16 -35 25 -56 25c-55 0 -74 -57 -79 -112c-33 0 -61 1 -84 10c3 36 3 78 -6 120c55 24 125 40 195 40
c82 0 126 -15 154 -45c29 -29 44 -74 44 -166v-90c0 -61 7 -77 58 -78zM318 200v26c-78 -14 -136 -33 -136 -93c0 -40 22 -55 47 -55c40 0 89 38 89 122z" />
    <glyph glyph-name="ae" unicode="&#xe6;" horiz-adv-x="722" 
d="M657 114c12 -10 25 -34 26 -54c-41 -44 -104 -66 -183 -66c-87 0 -144 39 -177 90c-21 -52 -82 -90 -165 -90c-82 0 -127 40 -127 112c0 121 133 154 255 166v37c0 66 -28 96 -66 96c-47 0 -62 -45 -69 -109c-25 0 -66 3 -86 13c3 33 2 84 -5 121c60 24 113 37 182 37
c56 0 97 -16 127 -54c37 40 92 54 138 54c137 0 179 -120 181 -199c-5 -16 -15 -36 -28 -49c-75 -1 -156 -2 -231 -7c3 -72 35 -143 112 -143c54 0 90 21 116 45zM491 405c-43 0 -62 -49 -62 -124v-10c42 3 86 4 131 5c0 67 -17 129 -69 129zM210 71c38 0 76 37 76 138v3v2
c-89 -9 -127 -32 -127 -85c0 -43 26 -58 51 -58z" />
    <glyph glyph-name="ccedilla" unicode="&#xe7;" horiz-adv-x="468" 
d="M444 58c-30 -36 -77 -59 -136 -65l-29 -39c56 -9 88 -47 88 -93c0 -67 -69 -103 -155 -103c-6 12 -8 30 -8 43c41 0 79 17 79 48c0 27 -27 45 -61 45c-11 11 -18 26 -18 43l41 55c-122 11 -211 87 -211 235c0 120 79 240 233 240c73 0 125 -14 168 -42
c-8 -38 -10 -75 -10 -124c-22 -10 -53 -13 -79 -13c-4 77 -34 118 -79 118c-56 0 -87 -66 -87 -165c0 -86 41 -174 135 -174c42 0 79 14 105 39c12 -11 22 -28 24 -48z" />
    <glyph glyph-name="egrave" unicode="&#xe8;" horiz-adv-x="513" 
d="M248 534c-41 61 -77 109 -129 159c38 17 86 24 133 22c16 -53 41 -115 70 -170c-19 -10 -43 -12 -74 -11zM448 114c13 -8 25 -31 26 -52c-49 -47 -114 -71 -194 -71c-174 0 -246 103 -246 234c0 148 94 242 240 242c143 0 203 -105 204 -215c-4 -19 -13 -36 -25 -48
c-60 0 -173 -1 -268 -6c11 -74 51 -131 139 -131c43 0 93 18 124 47zM265 405c-43 0 -80 -35 -83 -142h160c0 83 -27 142 -77 142z" />
    <glyph glyph-name="eacute" unicode="&#xe9;" horiz-adv-x="513" 
d="M423 715c-48 -58 -95 -124 -131 -185c-25 0 -54 6 -69 14c30 62 49 111 62 163c28 10 60 13 90 13c18 -1 35 -2 48 -5zM448 114c13 -8 25 -31 26 -52c-49 -47 -114 -71 -194 -71c-174 0 -246 103 -246 234c0 148 94 242 240 242c143 0 203 -105 204 -215
c-4 -19 -13 -36 -25 -48c-60 0 -173 -1 -268 -6c11 -74 51 -131 139 -131c43 0 93 18 124 47zM265 405c-43 0 -80 -35 -83 -142h160c0 83 -27 142 -77 142z" />
    <glyph glyph-name="ecircumflex" unicode="&#xea;" horiz-adv-x="513" 
d="M124 516c-22 8 -35 32 -39 48c54 38 118 93 163 143c18 6 42 10 62 10c39 -49 91 -105 154 -162c-14 -17 -34 -31 -63 -36c-40 28 -93 65 -137 88c-34 -18 -107 -66 -140 -91zM448 114c13 -8 25 -31 26 -52c-49 -47 -114 -71 -194 -71c-174 0 -246 103 -246 234
c0 148 94 242 240 242c143 0 203 -105 204 -215c-4 -19 -13 -36 -25 -48c-60 0 -173 -1 -268 -6c11 -74 51 -131 139 -131c43 0 93 18 124 47zM265 405c-43 0 -80 -35 -83 -142h160c0 83 -27 142 -77 142z" />
    <glyph glyph-name="edieresis" unicode="&#xeb;" horiz-adv-x="513" 
d="M154 518c-47 0 -79 29 -79 67c0 39 23 75 77 75c55 0 79 -32 79 -73c0 -40 -33 -69 -77 -69zM384 518c-54 0 -82 31 -82 75c0 42 32 67 78 67s79 -29 79 -67c0 -39 -20 -75 -75 -75zM448 114c13 -8 25 -31 26 -52c-49 -47 -114 -71 -194 -71c-174 0 -246 103 -246 234
c0 148 94 242 240 242c143 0 203 -105 204 -215c-4 -19 -13 -36 -25 -48c-60 0 -173 -1 -268 -6c11 -74 51 -131 139 -131c43 0 93 18 124 47zM265 405c-43 0 -80 -35 -83 -142h160c0 83 -27 142 -77 142z" />
    <glyph glyph-name="igrave" unicode="&#xec;" horiz-adv-x="351" 
d="M159 534c-41 61 -77 109 -129 159c38 17 86 24 133 22c16 -53 41 -115 70 -170c-19 -10 -43 -12 -74 -11zM251 414v-268c0 -67 14 -85 63 -87c5 -16 7 -40 7 -62c-30 2 -89 3 -145 3c-55 0 -117 -1 -145 -3c0 24 2 46 8 62c53 2 66 20 66 87v159c0 46 -10 67 -74 70
c0 21 2 42 11 59c69 0 151 17 180 33c17 -7 29 -23 29 -53z" />
    <glyph glyph-name="iacute" unicode="&#xed;" horiz-adv-x="351" 
d="M196 707c28 10 60 13 90 13c18 -1 35 -2 48 -5c-48 -58 -95 -124 -131 -185c-25 0 -54 6 -69 14c30 62 49 111 62 163zM251 414v-268c0 -67 14 -85 63 -87c5 -16 7 -40 7 -62c-30 2 -89 3 -145 3c-55 0 -117 -1 -145 -3c0 24 2 46 8 62c53 2 66 20 66 87v159
c0 46 -10 67 -74 70c0 21 2 42 11 59c69 0 151 17 180 33c17 -7 29 -23 29 -53z" />
    <glyph glyph-name="icircumflex" unicode="&#xee;" horiz-adv-x="351" 
d="M160 707c18 6 42 10 62 10c39 -49 91 -105 154 -162c-14 -17 -34 -31 -63 -36c-40 28 -93 65 -137 88c-34 -18 -107 -66 -140 -91c-22 8 -35 32 -39 48c54 38 118 93 163 143zM251 414v-268c0 -67 14 -85 63 -87c5 -16 7 -40 7 -62c-30 2 -89 3 -145 3
c-55 0 -117 -1 -145 -3c0 24 2 46 8 62c53 2 66 20 66 87v159c0 46 -10 67 -74 70c0 21 2 42 11 59c69 0 151 17 180 33c17 -7 29 -23 29 -53z" />
    <glyph glyph-name="idieresis" unicode="&#xef;" horiz-adv-x="351" 
d="M-13 585c0 39 23 75 77 75c55 0 79 -32 79 -73c0 -40 -33 -69 -77 -69c-47 0 -79 29 -79 67zM371 593c0 -39 -20 -75 -75 -75c-54 0 -82 31 -82 75c0 42 32 67 78 67s79 -29 79 -67zM251 414v-268c0 -67 14 -85 63 -87c5 -16 7 -40 7 -62c-30 2 -89 3 -145 3
c-55 0 -117 -1 -145 -3c0 24 2 46 8 62c53 2 66 20 66 87v159c0 46 -10 67 -74 70c0 21 2 42 11 59c69 0 151 17 180 33c17 -7 29 -23 29 -53z" />
    <glyph glyph-name="eth" unicode="&#xf0;" horiz-adv-x="558" 
d="M423 616l-67 -29c104 -69 168 -176 168 -319c0 -192 -115 -276 -266 -276c-158 0 -224 92 -224 218c0 178 131 249 240 249c20 0 40 -3 58 -9c-19 36 -45 65 -78 90c-40 -20 -82 -42 -127 -67c-11 18 -19 50 -18 68l79 37c-33 15 -70 28 -112 38c0 22 4 42 16 56
c71 -7 136 -23 193 -47l122 58c10 -20 16 -46 16 -67zM280 65c45 0 93 32 93 183c0 39 -3 74 -9 105c-22 21 -48 31 -77 31c-59 0 -104 -44 -104 -161c0 -109 40 -158 97 -158z" />
    <glyph glyph-name="ntilde" unicode="&#xf1;" horiz-adv-x="658" 
d="M163 508c-15 11 -22 24 -24 43c52 87 99 109 138 109c57 0 96 -41 143 -41c29 0 53 11 73 32c14 -7 27 -18 33 -32c-39 -81 -76 -115 -125 -115c-58 0 -94 44 -148 44c-31 0 -60 -13 -90 -40zM619 59c7 -17 9 -36 9 -62c-30 1 -82 3 -126 3s-113 -1 -143 -3
c0 24 1 44 7 62c37 0 58 22 58 94v105c0 84 -28 112 -76 112c-50 0 -97 -56 -97 -160v-64c0 -68 18 -87 57 -87c7 -19 8 -37 8 -62c-29 2 -92 3 -138 3c-45 0 -117 -1 -147 -3c0 25 3 48 8 62c52 0 66 20 66 87v148c0 57 -7 77 -72 81c0 21 2 42 11 59c73 1 147 17 178 33
c18 -7 29 -23 29 -55c0 -16 -3 -37 -10 -60c8 17 15 34 29 49c27 31 76 61 139 61c84 0 160 -44 160 -163v-153c0 -67 14 -87 50 -87z" />
    <glyph glyph-name="ograve" unicode="&#xf2;" horiz-adv-x="574" 
d="M264 534c-41 61 -77 109 -129 159c38 17 86 24 133 22c16 -53 41 -115 70 -170c-19 -10 -43 -12 -74 -11zM289 467c165 0 251 -97 251 -234c0 -148 -100 -242 -256 -242c-161 0 -250 91 -250 233c0 154 110 243 255 243zM276 406c-61 0 -91 -65 -91 -152
c0 -117 41 -199 113 -199c60 0 92 66 92 155c0 127 -54 196 -114 196z" />
    <glyph glyph-name="oacute" unicode="&#xf3;" horiz-adv-x="574" 
d="M301 707c28 10 60 13 90 13c18 -1 35 -2 48 -5c-48 -58 -95 -124 -131 -185c-25 0 -54 6 -69 14c30 62 49 111 62 163zM289 467c165 0 251 -97 251 -234c0 -148 -100 -242 -256 -242c-161 0 -250 91 -250 233c0 154 110 243 255 243zM276 406c-61 0 -91 -65 -91 -152
c0 -117 41 -199 113 -199c60 0 92 66 92 155c0 127 -54 196 -114 196z" />
    <glyph glyph-name="ocircumflex" unicode="&#xf4;" horiz-adv-x="574" 
d="M264 707c18 6 42 10 62 10c39 -49 91 -105 154 -162c-14 -17 -34 -31 -63 -36c-40 28 -93 65 -137 88c-34 -18 -107 -66 -140 -91c-22 8 -35 32 -39 48c54 38 118 93 163 143zM289 467c165 0 251 -97 251 -234c0 -148 -100 -242 -256 -242c-161 0 -250 91 -250 233
c0 154 110 243 255 243zM276 406c-61 0 -91 -65 -91 -152c0 -117 41 -199 113 -199c60 0 92 66 92 155c0 127 -54 196 -114 196z" />
    <glyph glyph-name="otilde" unicode="&#xf5;" horiz-adv-x="574" 
d="M89 551c52 87 99 109 138 109c57 0 96 -41 143 -41c29 0 53 11 73 32c14 -7 27 -18 33 -32c-39 -81 -76 -115 -125 -115c-58 0 -94 44 -148 44c-31 0 -60 -13 -90 -40c-15 11 -22 24 -24 43zM289 467c165 0 251 -97 251 -234c0 -148 -100 -242 -256 -242
c-161 0 -250 91 -250 233c0 154 110 243 255 243zM276 406c-61 0 -91 -65 -91 -152c0 -117 41 -199 113 -199c60 0 92 66 92 155c0 127 -54 196 -114 196z" />
    <glyph glyph-name="odieresis" unicode="&#xf6;" horiz-adv-x="574" 
d="M91 585c0 39 23 75 77 75c55 0 79 -32 79 -73c0 -40 -33 -69 -77 -69c-47 0 -79 29 -79 67zM475 593c0 -39 -20 -75 -75 -75c-54 0 -82 31 -82 75c0 42 32 67 78 67s79 -29 79 -67zM289 467c165 0 251 -97 251 -234c0 -148 -100 -242 -256 -242c-161 0 -250 91 -250 233
c0 154 110 243 255 243zM276 406c-61 0 -91 -65 -91 -152c0 -117 41 -199 113 -199c60 0 92 66 92 155c0 127 -54 196 -114 196z" />
    <glyph glyph-name="divide" unicode="&#xf7;" horiz-adv-x="569" 
d="M354 439c0 -43 -22 -77 -66 -77c-52 0 -76 27 -76 71c0 45 35 65 73 66c38 0 69 -23 69 -60zM59 297h464c0 -28 -1 -46 -11 -69c-109 1 -132 1 -217 1c-86 0 -158 -1 -247 -2c0 20 3 52 11 70zM219 93c0 37 19 68 69 68c51 0 72 -27 72 -68s-31 -67 -70 -67
c-40 0 -71 29 -71 67z" />
    <glyph glyph-name="oslash" unicode="&#xf8;" horiz-adv-x="574" 
d="M522 458l-45 -58c42 -41 63 -99 63 -167c0 -148 -100 -242 -256 -242c-48 0 -89 8 -124 23l-41 -53c-33 0 -63 9 -77 22l56 71c-42 41 -64 99 -64 170c0 154 110 243 255 243c49 0 91 -9 126 -24l30 39c31 -1 59 -9 77 -24zM276 406c-61 0 -91 -65 -91 -152
c0 -32 3 -61 9 -86l154 198c-20 26 -45 40 -72 40zM298 55c60 0 92 66 92 155c0 29 -3 55 -8 78l-154 -197c18 -23 42 -36 70 -36z" />
    <glyph glyph-name="ugrave" unicode="&#xf9;" horiz-adv-x="609" 
d="M282 534c-41 61 -77 109 -129 159c38 17 86 24 133 22c16 -53 41 -115 70 -170c-19 -10 -43 -12 -74 -11zM587 88c3 -22 1 -45 -8 -64c-50 -2 -106 -13 -151 -33c-22 9 -32 22 -32 57c0 13 2 30 5 47c-9 -22 -21 -41 -35 -54c-30 -28 -75 -47 -135 -47
c-97 0 -152 47 -152 184v116c0 57 -6 77 -64 81c0 21 2 42 11 59c73 1 139 17 170 33c18 -7 29 -23 29 -55v-210c0 -90 17 -123 61 -123c52 0 97 50 97 159v61c0 57 -10 78 -73 81c0 21 1 42 11 59c78 1 148 13 179 28c18 -7 29 -23 29 -55v-243c0 -64 7 -80 58 -81z" />
    <glyph glyph-name="uacute" unicode="&#xfa;" horiz-adv-x="609" 
d="M457 715c-48 -58 -95 -124 -131 -185c-25 0 -54 6 -69 14c30 62 49 111 62 163c28 10 60 13 90 13c18 -1 35 -2 48 -5zM587 88c3 -22 1 -45 -8 -64c-50 -2 -106 -13 -151 -33c-22 9 -32 22 -32 57c0 13 2 30 5 47c-9 -22 -21 -41 -35 -54c-30 -28 -75 -47 -135 -47
c-97 0 -152 47 -152 184v116c0 57 -6 77 -64 81c0 21 2 42 11 59c73 1 139 17 170 33c18 -7 29 -23 29 -55v-210c0 -90 17 -123 61 -123c52 0 97 50 97 159v61c0 57 -10 78 -73 81c0 21 1 42 11 59c78 1 148 13 179 28c18 -7 29 -23 29 -55v-243c0 -64 7 -80 58 -81z" />
    <glyph glyph-name="ucircumflex" unicode="&#xfb;" horiz-adv-x="609" 
d="M159 516c-22 8 -35 32 -39 48c54 38 118 93 163 143c18 6 42 10 62 10c39 -49 91 -105 154 -162c-14 -17 -34 -31 -63 -36c-40 28 -93 65 -137 88c-34 -18 -107 -66 -140 -91zM587 88c3 -22 1 -45 -8 -64c-50 -2 -106 -13 -151 -33c-22 9 -32 22 -32 57c0 13 2 30 5 47
c-9 -22 -21 -41 -35 -54c-30 -28 -75 -47 -135 -47c-97 0 -152 47 -152 184v116c0 57 -6 77 -64 81c0 21 2 42 11 59c73 1 139 17 170 33c18 -7 29 -23 29 -55v-210c0 -90 17 -123 61 -123c52 0 97 50 97 159v61c0 57 -10 78 -73 81c0 21 1 42 11 59c78 1 148 13 179 28
c18 -7 29 -23 29 -55v-243c0 -64 7 -80 58 -81z" />
    <glyph glyph-name="udieresis" unicode="&#xfc;" horiz-adv-x="609" 
d="M189 518c-47 0 -79 29 -79 67c0 39 23 75 77 75c55 0 79 -32 79 -73c0 -40 -33 -69 -77 -69zM419 518c-54 0 -82 31 -82 75c0 42 32 67 78 67s79 -29 79 -67c0 -39 -20 -75 -75 -75zM587 88c3 -22 1 -45 -8 -64c-50 -2 -106 -13 -151 -33c-22 9 -32 22 -32 57
c0 13 2 30 5 47c-9 -22 -21 -41 -35 -54c-30 -28 -75 -47 -135 -47c-97 0 -152 47 -152 184v116c0 57 -6 77 -64 81c0 21 2 42 11 59c73 1 139 17 170 33c18 -7 29 -23 29 -55v-210c0 -90 17 -123 61 -123c52 0 97 50 97 159v61c0 57 -10 78 -73 81c0 21 1 42 11 59
c78 1 148 13 179 28c18 -7 29 -23 29 -55v-243c0 -64 7 -80 58 -81z" />
    <glyph glyph-name="yacute" unicode="&#xfd;" horiz-adv-x="562" 
d="M483 715c-48 -58 -95 -124 -131 -185c-25 0 -54 6 -69 14c30 62 49 111 62 163c28 10 60 13 90 13c18 -1 35 -2 48 -5zM453 458c34 0 67 1 97 3c0 -19 -2 -44 -10 -63c-34 -8 -47 -25 -73 -85l-147 -350c-76 -182 -119 -212 -185 -212c-43 0 -80 19 -97 40
c-4 24 -1 66 8 93c23 -7 56 -14 93 -14c43 0 70 13 94 51c5 7 13 23 23 45c-48 114 -110 250 -155 342c-35 73 -52 84 -81 90c-5 17 -8 42 -8 63c38 -2 89 -3 135 -3c49 0 114 1 155 3c0 -22 -4 -49 -10 -63c-59 -10 -64 -27 -32 -91c22 -46 49 -107 71 -166l62 157
c29 73 16 92 -31 100c-6 16 -9 40 -9 63c31 -2 66 -3 100 -3z" />
    <glyph glyph-name="thorn" unicode="&#xfe;" horiz-adv-x="628" 
d="M319 -9c-26 0 -47 3 -72 10v-68c0 -87 25 -111 100 -116c6 -17 7 -40 7 -62c-35 2 -100 3 -156 3c-61 0 -134 -1 -171 -3c0 28 2 47 6 62c54 4 68 20 68 101v637c0 46 -11 67 -74 70c0 21 2 42 11 59c68 0 151 17 179 33c18 -7 30 -23 30 -53v-212c0 -32 -2 -48 -6 -68
c8 12 16 21 24 28c22 24 71 55 132 55c116 0 197 -64 197 -207c0 -158 -110 -269 -275 -269zM350 385c-50 0 -103 -45 -103 -169v-131c20 -21 42 -34 74 -34c50 0 123 31 123 183c0 82 -30 151 -94 151z" />
    <glyph glyph-name="ydieresis" unicode="&#xff;" horiz-adv-x="562" 
d="M215 518c-47 0 -79 29 -79 67c0 39 23 75 77 75c55 0 79 -32 79 -73c0 -40 -33 -69 -77 -69zM445 518c-54 0 -82 31 -82 75c0 42 32 67 78 67s79 -29 79 -67c0 -39 -20 -75 -75 -75zM453 458c34 0 67 1 97 3c0 -19 -2 -44 -10 -63c-34 -8 -47 -25 -73 -85l-147 -350
c-76 -182 -119 -212 -185 -212c-43 0 -80 19 -97 40c-4 24 -1 66 8 93c23 -7 56 -14 93 -14c43 0 70 13 94 51c5 7 13 23 23 45c-48 114 -110 250 -155 342c-35 73 -52 84 -81 90c-5 17 -8 42 -8 63c38 -2 89 -3 135 -3c49 0 114 1 155 3c0 -22 -4 -49 -10 -63
c-59 -10 -64 -27 -32 -91c22 -46 49 -107 71 -166l62 157c29 73 16 92 -31 100c-6 16 -9 40 -9 63c31 -2 66 -3 100 -3z" />
    <glyph glyph-name="Amacron" unicode="&#x100;" horiz-adv-x="711" 
d="M166 849h367c0 -14 -3 -34 -9 -51c-73 0 -214 -1 -367 -7c0 14 3 42 9 58zM687 59c5 -17 8 -37 8 -62c-32 2 -106 3 -138 3s-118 -1 -148 -3c0 28 2 46 7 62c49 9 56 25 33 77l-23 54c-79 0 -165 -2 -244 -7l-13 -33c-20 -51 -11 -85 38 -91c5 -17 7 -37 7 -62
c-23 2 -74 3 -107 3s-71 -1 -90 -3c0 22 2 43 8 62c34 6 48 26 80 104l210 514c20 5 35 5 60 5l229 -513c41 -91 54 -106 83 -110zM401 246l-54 126c-21 47 -36 88 -47 128c-13 -42 -27 -83 -44 -127l-50 -127h195z" />
    <glyph glyph-name="amacron" unicode="&#x101;" horiz-adv-x="549" 
d="M79 631h367c0 -14 -3 -34 -9 -51c-73 0 -214 -1 -367 -7c0 14 3 42 9 58zM522 88c3 -22 1 -45 -8 -64c-49 -2 -106 -13 -151 -33c-22 9 -32 22 -32 56c0 12 1 25 4 39c-10 -23 -24 -43 -42 -57c-27 -22 -63 -36 -112 -36c-95 0 -145 40 -145 114c0 134 190 160 282 173
c0 61 -5 84 -22 104c-14 16 -35 25 -56 25c-55 0 -74 -57 -79 -112c-33 0 -61 1 -84 10c3 36 3 78 -6 120c55 24 125 40 195 40c82 0 126 -15 154 -45c29 -29 44 -74 44 -166v-90c0 -61 7 -77 58 -78zM318 200v26c-78 -14 -136 -33 -136 -93c0 -40 22 -55 47 -55
c40 0 89 38 89 122z" />
    <glyph glyph-name="Abreve" unicode="&#x102;" horiz-adv-x="711" 
d="M339 739c-122 0 -188 62 -188 176c22 10 51 14 77 12c9 -57 55 -91 123 -91c67 0 110 34 113 91c25 3 49 0 65 -7c0 -117 -67 -181 -190 -181zM687 59c5 -17 8 -37 8 -62c-32 2 -106 3 -138 3s-118 -1 -148 -3c0 28 2 46 7 62c49 9 56 25 33 77l-23 54
c-79 0 -165 -2 -244 -7l-13 -33c-20 -51 -11 -85 38 -91c5 -17 7 -37 7 -62c-23 2 -74 3 -107 3s-71 -1 -90 -3c0 22 2 43 8 62c34 6 48 26 80 104l210 514c20 5 35 5 60 5l229 -513c41 -91 54 -106 83 -110zM401 246l-54 126c-21 47 -36 88 -47 128
c-13 -42 -27 -83 -44 -127l-50 -127h195z" />
    <glyph glyph-name="abreve" unicode="&#x103;" horiz-adv-x="549" 
d="M252 521c-122 0 -188 62 -188 176c22 10 51 14 77 12c9 -57 55 -91 123 -91c67 0 110 34 113 91c25 3 49 0 65 -7c0 -117 -67 -181 -190 -181zM522 88c3 -22 1 -45 -8 -64c-49 -2 -106 -13 -151 -33c-22 9 -32 22 -32 56c0 12 1 25 4 39c-10 -23 -24 -43 -42 -57
c-27 -22 -63 -36 -112 -36c-95 0 -145 40 -145 114c0 134 190 160 282 173c0 61 -5 84 -22 104c-14 16 -35 25 -56 25c-55 0 -74 -57 -79 -112c-33 0 -61 1 -84 10c3 36 3 78 -6 120c55 24 125 40 195 40c82 0 126 -15 154 -45c29 -29 44 -74 44 -166v-90
c0 -61 7 -77 58 -78zM318 200v26c-78 -14 -136 -33 -136 -93c0 -40 22 -55 47 -55c40 0 89 38 89 122z" />
    <glyph glyph-name="Aogonek" unicode="&#x104;" horiz-adv-x="711" 
d="M585 -143c13 0 25 1 38 5c8 -12 15 -44 12 -65c-38 -10 -78 -25 -107 -45c-8 -1 -13 -1 -21 -1c-45 0 -117 27 -117 106c0 58 40 106 127 143c-38 -1 -87 -2 -108 -3c0 28 2 46 7 62c49 9 56 25 33 77l-23 54c-79 0 -165 -2 -244 -7l-13 -33c-20 -51 -11 -85 38 -91
c5 -17 7 -37 7 -62c-23 2 -74 3 -107 3s-71 -1 -90 -3c0 22 2 43 8 62c34 6 48 26 80 104l210 514c20 5 35 5 60 5l229 -513c41 -91 54 -106 83 -110c5 -17 8 -37 8 -62c-19 1 -51 2 -82 2c-71 -23 -98 -62 -98 -94c0 -30 26 -48 70 -48zM401 246l-54 126
c-21 47 -36 88 -47 128c-13 -42 -27 -83 -44 -127l-50 -127h195z" />
    <glyph glyph-name="aogonek" unicode="&#x105;" horiz-adv-x="549" 
d="M467 -143c13 0 26 1 38 5c9 -12 15 -44 12 -65c-38 -10 -77 -25 -107 -45c-8 -1 -13 -1 -21 -1c-51 0 -117 31 -117 115c0 39 15 85 89 126c-21 9 -30 22 -30 55c0 12 1 25 4 39c-10 -23 -24 -43 -42 -57c-27 -22 -63 -36 -112 -36c-95 0 -145 40 -145 114
c0 134 190 160 282 173c0 61 -5 84 -22 104c-14 16 -35 25 -56 25c-55 0 -74 -57 -79 -112c-33 0 -61 1 -84 10c3 36 3 78 -6 120c55 24 125 40 195 40c82 0 126 -15 154 -45c29 -29 44 -74 44 -166v-90c0 -61 7 -77 58 -78c3 -22 1 -45 -8 -64c-83 -20 -117 -70 -117 -113
c0 -40 29 -54 70 -54zM318 200v26c-78 -14 -136 -33 -136 -93c0 -40 22 -55 47 -55c40 0 89 38 89 122z" />
    <glyph glyph-name="Cacute" unicode="&#x106;" horiz-adv-x="642" 
d="M394 925c28 10 60 13 90 13c18 -1 35 -2 48 -5c-48 -58 -95 -124 -131 -185c-25 0 -54 6 -69 14c30 62 49 111 62 163zM595 633c-8 -46 -11 -100 -11 -155c-17 -9 -52 -12 -78 -12c-3 121 -51 158 -126 158c-135 0 -184 -124 -184 -256c0 -168 74 -298 223 -298
c53 0 113 18 167 50c11 -10 20 -29 23 -44c-62 -51 -137 -85 -242 -85c-197 0 -332 143 -332 351c0 228 164 343 340 343c77 0 149 -18 220 -52z" />
    <glyph glyph-name="cacute" unicode="&#x107;" horiz-adv-x="468" 
d="M283 707c28 10 60 13 90 13c18 -1 35 -2 48 -5c-48 -58 -95 -124 -131 -185c-25 0 -54 6 -69 14c30 62 49 111 62 163zM274 -9c-136 0 -240 76 -240 236c0 120 79 240 233 240c73 0 125 -14 168 -42c-8 -38 -10 -75 -10 -124c-22 -10 -53 -13 -79 -13
c-4 77 -34 118 -79 118c-56 0 -87 -66 -87 -165c0 -86 41 -174 135 -174c42 0 79 14 105 39c12 -11 22 -28 24 -48c-36 -43 -95 -67 -170 -67z" />
    <glyph glyph-name="Ccircumflex" unicode="&#x108;" horiz-adv-x="642" 
d="M357 925c18 6 42 10 62 10c39 -49 91 -105 154 -162c-14 -17 -34 -31 -63 -36c-40 28 -93 65 -137 88c-34 -18 -107 -66 -140 -91c-22 8 -35 32 -39 48c54 38 118 93 163 143zM595 633c-8 -46 -11 -100 -11 -155c-17 -9 -52 -12 -78 -12c-3 121 -51 158 -126 158
c-135 0 -184 -124 -184 -256c0 -168 74 -298 223 -298c53 0 113 18 167 50c11 -10 20 -29 23 -44c-62 -51 -137 -85 -242 -85c-197 0 -332 143 -332 351c0 228 164 343 340 343c77 0 149 -18 220 -52z" />
    <glyph glyph-name="ccircumflex" unicode="&#x109;" horiz-adv-x="468" 
d="M246 707c18 6 42 10 62 10c39 -49 91 -105 154 -162c-14 -17 -34 -31 -63 -36c-40 28 -93 65 -137 88c-34 -18 -107 -66 -140 -91c-22 8 -35 32 -39 48c54 38 118 93 163 143zM274 -9c-136 0 -240 76 -240 236c0 120 79 240 233 240c73 0 125 -14 168 -42
c-8 -38 -10 -75 -10 -124c-22 -10 -53 -13 -79 -13c-4 77 -34 118 -79 118c-56 0 -87 -66 -87 -165c0 -86 41 -174 135 -174c42 0 79 14 105 39c12 -11 22 -28 24 -48c-36 -43 -95 -67 -170 -67z" />
    <glyph glyph-name="Cdotaccent" unicode="&#x10a;" horiz-adv-x="642" 
d="M375 886c55 0 86 -27 86 -75c0 -41 -35 -72 -90 -72c-50 0 -83 29 -83 71c0 49 38 76 87 76zM595 633c-8 -46 -11 -100 -11 -155c-17 -9 -52 -12 -78 -12c-3 121 -51 158 -126 158c-135 0 -184 -124 -184 -256c0 -168 74 -298 223 -298c53 0 113 18 167 50
c11 -10 20 -29 23 -44c-62 -51 -137 -85 -242 -85c-197 0 -332 143 -332 351c0 228 164 343 340 343c77 0 149 -18 220 -52z" />
    <glyph glyph-name="cdotaccent" unicode="&#x10b;" horiz-adv-x="468" 
d="M265 668c55 0 86 -27 86 -75c0 -41 -35 -72 -90 -72c-50 0 -83 29 -83 71c0 49 38 76 87 76zM274 -9c-136 0 -240 76 -240 236c0 120 79 240 233 240c73 0 125 -14 168 -42c-8 -38 -10 -75 -10 -124c-22 -10 -53 -13 -79 -13c-4 77 -34 118 -79 118
c-56 0 -87 -66 -87 -165c0 -86 41 -174 135 -174c42 0 79 14 105 39c12 -11 22 -28 24 -48c-36 -43 -95 -67 -170 -67z" />
    <glyph glyph-name="Ccaron" unicode="&#x10c;" horiz-adv-x="642" 
d="M514 931c24 -5 42 -24 49 -42c-54 -42 -115 -97 -157 -147c-19 -6 -43 -8 -64 -8c-43 51 -95 106 -147 153c7 20 23 34 49 44c41 -29 92 -64 138 -85c37 18 106 63 132 85zM595 633c-8 -46 -11 -100 -11 -155c-17 -9 -52 -12 -78 -12c-3 121 -51 158 -126 158
c-135 0 -184 -124 -184 -256c0 -168 74 -298 223 -298c53 0 113 18 167 50c11 -10 20 -29 23 -44c-62 -51 -137 -85 -242 -85c-197 0 -332 143 -332 351c0 228 164 343 340 343c77 0 149 -18 220 -52z" />
    <glyph glyph-name="ccaron" unicode="&#x10d;" horiz-adv-x="468" 
d="M404 713c24 -5 42 -24 49 -42c-54 -42 -115 -97 -157 -147c-19 -6 -43 -8 -64 -8c-43 51 -95 106 -147 153c7 20 23 34 49 44c41 -29 92 -64 138 -85c37 18 106 63 132 85zM274 -9c-136 0 -240 76 -240 236c0 120 79 240 233 240c73 0 125 -14 168 -42
c-8 -38 -10 -75 -10 -124c-22 -10 -53 -13 -79 -13c-4 77 -34 118 -79 118c-56 0 -87 -66 -87 -165c0 -86 41 -174 135 -174c42 0 79 14 105 39c12 -11 22 -28 24 -48c-36 -43 -95 -67 -170 -67z" />
    <glyph glyph-name="Dcaron" unicode="&#x10e;" horiz-adv-x="736" 
d="M319 734c-43 51 -95 106 -147 153c7 20 23 34 49 44c41 -29 92 -64 138 -85c37 18 106 63 132 85c24 -5 42 -24 49 -42c-54 -42 -115 -97 -157 -147c-19 -6 -43 -8 -64 -8zM332 678c187 0 368 -50 368 -323c0 -324 -266 -355 -371 -355c-72 0 -239 -2 -287 -3
c0 24 2 47 7 62c53 4 67 20 67 106v352c0 80 -13 94 -67 100c-5 16 -7 43 -7 62c41 -2 119 -2 179 -3c33 1 70 2 111 2zM353 62c87 0 189 41 189 276c0 215 -105 281 -218 281c-19 0 -41 -3 -55 -8v-443c0 -84 17 -106 84 -106z" />
    <glyph glyph-name="dcaron" unicode="&#x10f;" horiz-adv-x="752" 
d="M689 724c32 -10 45 -34 45 -88c0 -75 -33 -144 -91 -201c-24 0 -44 5 -60 17c39 44 48 68 48 102c0 28 -19 43 -60 48c0 31 2 58 12 91c43 3 79 13 106 31zM527 664v-495c0 -64 8 -80 59 -81c2 -22 0 -45 -9 -64c-49 -2 -106 -13 -151 -33c-22 9 -32 22 -32 57
c0 15 2 30 6 47c-13 -24 -26 -39 -37 -49c-21 -24 -71 -55 -132 -55c-115 0 -197 64 -197 211c0 154 110 265 275 265c26 0 48 -3 72 -10v98c0 46 -10 67 -74 70c0 21 2 42 11 59c69 0 151 17 180 33c17 -7 29 -23 29 -53zM278 73c50 0 103 45 103 169v131
c-20 21 -42 34 -74 34c-50 0 -122 -31 -122 -183c0 -93 38 -151 93 -151z" />
    <glyph glyph-name="Dcroat" unicode="&#x110;" horiz-adv-x="742" 
d="M336 678c187 0 369 -50 369 -323c0 -324 -267 -355 -372 -355c-72 0 -239 -2 -287 -3c0 24 3 47 7 62c54 4 68 20 68 106v83c-27 0 -54 -1 -93 -2c0 28 5 57 12 73h81v198c0 80 -13 94 -68 100c-5 16 -6 43 -6 62c40 -2 119 -2 179 -3c33 1 69 2 110 2zM357 62
c87 0 190 41 190 276c0 215 -106 281 -218 281c-19 0 -42 -3 -55 -8v-292h154c0 -28 -3 -51 -12 -71c-59 1 -93 1 -142 1v-81c0 -84 16 -106 83 -106z" />
    <glyph glyph-name="dcroat" unicode="&#x111;" horiz-adv-x="620" 
d="M586 88c2 -22 0 -45 -9 -64c-49 -2 -106 -13 -151 -33c-22 9 -32 22 -32 57c0 15 2 30 6 47c-13 -24 -26 -39 -37 -49c-21 -24 -71 -55 -132 -55c-115 0 -197 64 -197 211c0 154 110 265 275 265c26 0 48 -3 72 -10v54c-41 -1 -79 -2 -116 -3c0 19 2 39 9 55h107
c-1 40 -14 59 -74 62c0 21 2 42 11 59c69 0 151 17 180 33c17 -7 29 -23 29 -53v-101h59c0 -14 -2 -33 -9 -51h-50v-343c0 -64 8 -80 59 -81zM278 73c50 0 103 45 103 169v131c-20 21 -42 34 -74 34c-50 0 -122 -31 -122 -183c0 -93 38 -151 93 -151z" />
    <glyph glyph-name="Emacron" unicode="&#x112;" 
d="M123 849h367c0 -14 -3 -34 -9 -51c-73 0 -214 -1 -367 -7c0 14 3 42 9 58zM523 193c34 -5 62 -15 76 -29c-15 -46 -25 -109 -31 -166c-50 1 -151 2 -240 2c-71 0 -239 -2 -286 -3c0 24 2 47 6 62c54 4 68 20 68 106v352c0 80 -14 94 -68 100c-5 16 -6 43 -6 62
c52 -2 167 -3 225 -3c150 0 228 1 275 3c2 -48 9 -124 21 -169c-20 -10 -43 -15 -76 -15c-10 67 -38 122 -150 122h-69v-248h29c73 0 93 17 94 75c21 7 46 10 71 10c-2 -33 -4 -70 -4 -114c0 -46 2 -86 4 -117c-29 0 -49 1 -69 8c-5 61 -27 77 -96 77h-29v-140
c0 -84 18 -106 84 -106h12c102 0 132 41 159 131z" />
    <glyph glyph-name="emacron" unicode="&#x113;" horiz-adv-x="513" 
d="M88 631h367c0 -14 -3 -34 -9 -51c-73 0 -214 -1 -367 -7c0 14 3 42 9 58zM448 114c13 -8 25 -31 26 -52c-49 -47 -114 -71 -194 -71c-174 0 -246 103 -246 234c0 148 94 242 240 242c143 0 203 -105 204 -215c-4 -19 -13 -36 -25 -48c-60 0 -173 -1 -268 -6
c11 -74 51 -131 139 -131c43 0 93 18 124 47zM265 405c-43 0 -80 -35 -83 -142h160c0 83 -27 142 -77 142z" />
    <glyph glyph-name="Edotaccent" unicode="&#x116;" 
d="M298 739c-50 0 -83 29 -83 71c0 49 38 76 87 76c55 0 86 -27 86 -75c0 -41 -35 -72 -90 -72zM523 193c34 -5 62 -15 76 -29c-15 -46 -25 -109 -31 -166c-50 1 -151 2 -240 2c-71 0 -239 -2 -286 -3c0 24 2 47 6 62c54 4 68 20 68 106v352c0 80 -14 94 -68 100
c-5 16 -6 43 -6 62c52 -2 167 -3 225 -3c150 0 228 1 275 3c2 -48 9 -124 21 -169c-20 -10 -43 -15 -76 -15c-10 67 -38 122 -150 122h-69v-248h29c73 0 93 17 94 75c21 7 46 10 71 10c-2 -33 -4 -70 -4 -114c0 -46 2 -86 4 -117c-29 0 -49 1 -69 8c-5 61 -27 77 -96 77h-29
v-140c0 -84 18 -106 84 -106h12c102 0 132 41 159 131z" />
    <glyph glyph-name="edotaccent" unicode="&#x117;" horiz-adv-x="513" 
d="M263 521c-50 0 -83 29 -83 71c0 49 38 76 87 76c55 0 86 -27 86 -75c0 -41 -35 -72 -90 -72zM448 114c13 -8 25 -31 26 -52c-49 -47 -114 -71 -194 -71c-174 0 -246 103 -246 234c0 148 94 242 240 242c143 0 203 -105 204 -215c-4 -19 -13 -36 -25 -48
c-60 0 -173 -1 -268 -6c11 -74 51 -131 139 -131c43 0 93 18 124 47zM265 405c-43 0 -80 -35 -83 -142h160c0 83 -27 142 -77 142z" />
    <glyph glyph-name="Eogonek" unicode="&#x118;" 
d="M568 -2l-54 1c-70 -23 -96 -63 -96 -94c0 -30 26 -48 70 -48c13 0 25 1 38 5c8 -12 15 -44 12 -65c-38 -10 -78 -25 -107 -45c-8 -1 -13 -1 -21 -1c-45 0 -117 27 -117 106c0 58 40 106 127 143h-92c-71 0 -239 -2 -286 -3c0 24 2 47 6 62c54 4 68 20 68 106v352
c0 80 -14 94 -68 100c-5 16 -6 43 -6 62c52 -2 167 -3 225 -3c150 0 228 1 275 3c2 -48 9 -124 21 -169c-20 -10 -43 -15 -76 -15c-10 67 -38 122 -150 122h-69v-248h29c73 0 93 17 94 75c21 7 46 10 71 10c-2 -33 -4 -70 -4 -114c0 -46 2 -86 4 -117c-29 0 -49 1 -69 8
c-5 61 -27 77 -96 77h-29v-140c0 -84 18 -106 84 -106h12c102 0 132 41 159 131c34 -5 62 -15 76 -29c-15 -46 -25 -109 -31 -166z" />
    <glyph glyph-name="eogonek" unicode="&#x119;" horiz-adv-x="513" 
d="M448 114c13 -8 25 -31 26 -52c-12 -12 -26 -22 -39 -31c-63 -39 -93 -75 -93 -117c0 -41 28 -57 71 -57c12 0 25 1 37 5c9 -12 15 -44 13 -65c-38 -10 -78 -25 -108 -45c-8 -1 -13 -1 -21 -1c-49 0 -117 32 -117 117c0 40 17 82 94 124c-10 -1 -21 -1 -31 -1
c-174 0 -246 103 -246 234c0 148 94 242 240 242c143 0 203 -105 204 -215c-4 -19 -13 -36 -25 -48c-60 0 -173 -1 -268 -6c11 -74 51 -131 139 -131c43 0 93 18 124 47zM265 405c-43 0 -80 -35 -83 -142h160c0 83 -27 142 -77 142z" />
    <glyph glyph-name="Ecaron" unicode="&#x11a;" 
d="M269 734c-43 51 -95 106 -147 153c7 20 23 34 49 44c41 -29 92 -64 138 -85c37 18 106 63 132 85c24 -5 42 -24 49 -42c-54 -42 -115 -97 -157 -147c-19 -6 -43 -8 -64 -8zM523 193c34 -5 62 -15 76 -29c-15 -46 -25 -109 -31 -166c-50 1 -151 2 -240 2
c-71 0 -239 -2 -286 -3c0 24 2 47 6 62c54 4 68 20 68 106v352c0 80 -14 94 -68 100c-5 16 -6 43 -6 62c52 -2 167 -3 225 -3c150 0 228 1 275 3c2 -48 9 -124 21 -169c-20 -10 -43 -15 -76 -15c-10 67 -38 122 -150 122h-69v-248h29c73 0 93 17 94 75c21 7 46 10 71 10
c-2 -33 -4 -70 -4 -114c0 -46 2 -86 4 -117c-29 0 -49 1 -69 8c-5 61 -27 77 -96 77h-29v-140c0 -84 18 -106 84 -106h12c102 0 132 41 159 131z" />
    <glyph glyph-name="ecaron" unicode="&#x11b;" horiz-adv-x="513" 
d="M233 516c-43 51 -95 106 -147 153c7 20 23 34 49 44c41 -29 92 -64 138 -85c37 18 106 63 132 85c24 -5 42 -24 49 -42c-54 -42 -115 -97 -157 -147c-19 -6 -43 -8 -64 -8zM448 114c13 -8 25 -31 26 -52c-49 -47 -114 -71 -194 -71c-174 0 -246 103 -246 234
c0 148 94 242 240 242c143 0 203 -105 204 -215c-4 -19 -13 -36 -25 -48c-60 0 -173 -1 -268 -6c11 -74 51 -131 139 -131c43 0 93 18 124 47zM265 405c-43 0 -80 -35 -83 -142h160c0 83 -27 142 -77 142z" />
    <glyph glyph-name="Gcircumflex" unicode="&#x11c;" horiz-adv-x="708" 
d="M366 925c18 6 42 10 62 10c39 -49 91 -105 154 -162c-14 -17 -34 -31 -63 -36c-40 28 -93 65 -137 88c-34 -18 -107 -66 -140 -91c-22 8 -35 32 -39 48c54 38 118 93 163 143zM487 140v41c0 73 -12 84 -77 86c-4 16 -6 39 -6 63c32 -2 87 -3 130 -3c40 0 98 1 131 2
c0 -19 -1 -43 -6 -62c-37 -2 -42 -13 -42 -77v-33c0 -42 4 -62 16 -89c-60 -44 -152 -77 -258 -77c-207 0 -340 143 -340 354c0 226 168 340 350 340c91 0 177 -22 235 -50c-8 -46 -11 -98 -11 -155c-23 -10 -52 -12 -78 -12c-5 121 -62 155 -145 155
c-135 0 -191 -124 -191 -255c0 -177 70 -311 196 -311c27 0 45 2 63 10c21 8 33 21 33 73z" />
    <glyph glyph-name="gcircumflex" unicode="&#x11d;" horiz-adv-x="552" 
d="M112 516c-22 8 -35 32 -39 48c54 38 118 93 163 143c18 6 42 10 62 10c39 -49 91 -105 154 -162c-14 -17 -34 -31 -63 -36c-40 28 -93 65 -137 88c-34 -18 -107 -66 -140 -91zM331 84c132 0 184 -41 184 -126c0 -111 -120 -207 -284 -207c-155 0 -202 47 -202 125
c0 42 25 80 71 99c-29 19 -41 47 -41 87c0 41 27 80 62 108c-49 26 -77 71 -77 134c0 97 73 163 214 163c29 0 54 -3 76 -9h181c8 -20 10 -48 10 -78c-29 11 -61 18 -92 21c30 -34 41 -72 41 -95c0 -97 -78 -166 -213 -166c-29 0 -56 3 -80 8c-14 -11 -20 -22 -20 -31
c0 -26 14 -33 170 -33zM251 413c-43 0 -63 -46 -63 -98c0 -76 32 -116 82 -116c36 0 62 35 62 97c0 66 -28 117 -81 117zM253 -182c85 0 135 37 135 82c0 34 -18 47 -121 47c-40 0 -73 2 -100 6c-15 -17 -19 -31 -19 -54c0 -54 29 -81 105 -81z" />
    <glyph glyph-name="Gbreve" unicode="&#x11e;" horiz-adv-x="708" 
d="M569 920c0 -117 -67 -181 -190 -181c-122 0 -188 62 -188 176c22 10 51 14 77 12c9 -57 55 -91 123 -91c67 0 110 34 113 91c25 3 49 0 65 -7zM487 140v41c0 73 -12 84 -77 86c-4 16 -6 39 -6 63c32 -2 87 -3 130 -3c40 0 98 1 131 2c0 -19 -1 -43 -6 -62
c-37 -2 -42 -13 -42 -77v-33c0 -42 4 -62 16 -89c-60 -44 -152 -77 -258 -77c-207 0 -340 143 -340 354c0 226 168 340 350 340c91 0 177 -22 235 -50c-8 -46 -11 -98 -11 -155c-23 -10 -52 -12 -78 -12c-5 121 -62 155 -145 155c-135 0 -191 -124 -191 -255
c0 -177 70 -311 196 -311c27 0 45 2 63 10c21 8 33 21 33 73z" />
    <glyph glyph-name="gbreve" unicode="&#x11f;" horiz-adv-x="552" 
d="M249 521c-122 0 -188 62 -188 176c22 10 51 14 77 12c9 -57 55 -91 123 -91c67 0 110 34 113 91c25 3 49 0 65 -7c0 -117 -67 -181 -190 -181zM331 84c132 0 184 -41 184 -126c0 -111 -120 -207 -284 -207c-155 0 -202 47 -202 125c0 42 25 80 71 99
c-29 19 -41 47 -41 87c0 41 27 80 62 108c-49 26 -77 71 -77 134c0 97 73 163 214 163c29 0 54 -3 76 -9h181c8 -20 10 -48 10 -78c-29 11 -61 18 -92 21c30 -34 41 -72 41 -95c0 -97 -78 -166 -213 -166c-29 0 -56 3 -80 8c-14 -11 -20 -22 -20 -31c0 -26 14 -33 170 -33z
M251 413c-43 0 -63 -46 -63 -98c0 -76 32 -116 82 -116c36 0 62 35 62 97c0 66 -28 117 -81 117zM253 -182c85 0 135 37 135 82c0 34 -18 47 -121 47c-40 0 -73 2 -100 6c-15 -17 -19 -31 -19 -54c0 -54 29 -81 105 -81z" />
    <glyph glyph-name="Gdotaccent" unicode="&#x120;" horiz-adv-x="708" 
d="M384 886c55 0 86 -27 86 -75c0 -41 -35 -72 -90 -72c-50 0 -83 29 -83 71c0 49 38 76 87 76zM487 140v41c0 73 -12 84 -77 86c-4 16 -6 39 -6 63c32 -2 87 -3 130 -3c40 0 98 1 131 2c0 -19 -1 -43 -6 -62c-37 -2 -42 -13 -42 -77v-33c0 -42 4 -62 16 -89
c-60 -44 -152 -77 -258 -77c-207 0 -340 143 -340 354c0 226 168 340 350 340c91 0 177 -22 235 -50c-8 -46 -11 -98 -11 -155c-23 -10 -52 -12 -78 -12c-5 121 -62 155 -145 155c-135 0 -191 -124 -191 -255c0 -177 70 -311 196 -311c27 0 45 2 63 10c21 8 33 21 33 73z
" />
    <glyph glyph-name="gdotaccent" unicode="&#x121;" horiz-adv-x="552" 
d="M251 521c-50 0 -83 29 -83 71c0 49 38 76 87 76c55 0 86 -27 86 -75c0 -41 -35 -72 -90 -72zM331 84c132 0 184 -41 184 -126c0 -111 -120 -207 -284 -207c-155 0 -202 47 -202 125c0 42 25 80 71 99c-29 19 -41 47 -41 87c0 41 27 80 62 108c-49 26 -77 71 -77 134
c0 97 73 163 214 163c29 0 54 -3 76 -9h181c8 -20 10 -48 10 -78c-29 11 -61 18 -92 21c30 -34 41 -72 41 -95c0 -97 -78 -166 -213 -166c-29 0 -56 3 -80 8c-14 -11 -20 -22 -20 -31c0 -26 14 -33 170 -33zM251 413c-43 0 -63 -46 -63 -98c0 -76 32 -116 82 -116
c36 0 62 35 62 97c0 66 -28 117 -81 117zM253 -182c85 0 135 37 135 82c0 34 -18 47 -121 47c-40 0 -73 2 -100 6c-15 -17 -19 -31 -19 -54c0 -54 29 -81 105 -81z" />
    <glyph glyph-name="Gcommaaccent" unicode="&#x122;" horiz-adv-x="708" 
d="M487 140v41c0 73 -12 84 -77 86c-4 16 -6 39 -6 63c32 -2 87 -3 130 -3c40 0 98 1 131 2c0 -19 -1 -43 -6 -62c-37 -2 -42 -13 -42 -77v-33c0 -42 4 -62 16 -89c-60 -44 -152 -77 -258 -77c-207 0 -340 143 -340 354c0 226 168 340 350 340c91 0 177 -22 235 -50
c-8 -46 -11 -98 -11 -155c-23 -10 -52 -12 -78 -12c-5 121 -62 155 -145 155c-135 0 -191 -124 -191 -255c0 -177 70 -311 196 -311c27 0 45 2 63 10c21 8 33 21 33 73zM415 -40c31 -10 45 -33 45 -76c0 -78 -47 -139 -111 -183c-23 0 -43 8 -54 23c37 31 55 62 55 86
c0 23 -17 36 -53 40c-3 24 2 55 12 80c43 3 79 13 106 30z" />
    <glyph glyph-name="gcommaaccent" unicode="&#x123;" horiz-adv-x="552" 
d="M215 503c-32 8 -45 36 -45 71c0 59 37 110 93 152c26 0 47 -10 57 -24c-25 -22 -40 -45 -40 -63c0 -20 18 -25 53 -29c2 -26 -2 -54 -12 -79c-43 -3 -79 -13 -106 -28zM331 84c132 0 184 -41 184 -126c0 -111 -120 -207 -284 -207c-155 0 -202 47 -202 125
c0 42 25 80 71 99c-29 19 -41 47 -41 87c0 41 27 80 62 108c-49 26 -77 71 -77 134c0 97 73 163 214 163c29 0 54 -3 76 -9h181c8 -20 10 -48 10 -78c-29 11 -61 18 -92 21c30 -34 41 -72 41 -95c0 -97 -78 -166 -213 -166c-29 0 -56 3 -80 8c-14 -11 -20 -22 -20 -31
c0 -26 14 -33 170 -33zM251 413c-43 0 -63 -46 -63 -98c0 -76 32 -116 82 -116c36 0 62 35 62 97c0 66 -28 117 -81 117zM253 -182c85 0 135 37 135 82c0 34 -18 47 -121 47c-40 0 -73 2 -100 6c-15 -17 -19 -31 -19 -54c0 -54 29 -81 105 -81z" />
    <glyph glyph-name="Hcircumflex" unicode="&#x124;" horiz-adv-x="780" 
d="M248 734c-22 8 -35 32 -39 48c54 38 118 93 163 143c18 6 42 10 62 10c39 -49 91 -105 154 -162c-14 -17 -34 -31 -63 -36c-40 28 -93 65 -137 88c-34 -18 -107 -66 -140 -91zM665 517v-357c0 -81 13 -97 67 -101c5 -14 7 -40 7 -62c-35 2 -87 3 -142 3
c-56 0 -118 -1 -159 -3c0 21 3 47 8 62c53 4 66 20 66 101v159c-74 0 -170 -1 -244 -5v-154c0 -81 14 -97 68 -101c4 -14 6 -40 6 -62c-34 2 -86 3 -142 3c-55 0 -117 -1 -158 -3c0 21 3 47 7 62c54 4 67 20 67 101v357c0 80 -13 94 -67 100c-5 16 -7 40 -7 62
c34 -2 107 -3 153 -3s107 1 147 3c0 -23 0 -43 -7 -62c-54 -5 -67 -20 -67 -100v-138h244v138c0 80 -12 94 -67 100c-5 16 -7 40 -7 62c35 -2 107 -3 153 -3s108 1 148 3c0 -23 -1 -43 -8 -62c-54 -5 -66 -20 -66 -100z" />
    <glyph glyph-name="hcircumflex" unicode="&#x125;" horiz-adv-x="653" 
d="M179 775c-22 8 -35 32 -39 48c54 38 118 93 163 143c18 6 42 10 62 10c39 -49 91 -105 154 -162c-14 -17 -34 -31 -63 -36c-40 28 -93 65 -137 88c-34 -18 -107 -66 -140 -91zM615 59c7 -17 8 -36 8 -62c-29 1 -81 3 -125 3c-45 0 -113 -1 -144 -3c0 24 1 44 8 62
c37 0 57 22 57 94v105c0 84 -28 112 -75 112c-51 0 -97 -56 -97 -160v-64c0 -68 17 -87 56 -87c8 -19 9 -37 9 -62c-29 2 -93 3 -138 3c-46 0 -117 -1 -147 -3c0 25 2 48 8 62c52 0 66 20 66 87v409c0 46 -11 67 -74 70c0 21 2 42 11 59c68 0 151 17 179 33
c18 -7 30 -23 30 -53v-252c0 -16 -4 -37 -10 -60c8 17 15 34 28 49c28 31 77 61 140 61c83 0 160 -44 160 -163v-153c0 -67 14 -87 50 -87z" />
    <glyph glyph-name="Hbar" unicode="&#x126;" horiz-adv-x="776" 
d="M665 439v-279c0 -81 13 -97 67 -101c5 -14 7 -40 7 -62c-35 2 -87 3 -142 3c-56 0 -118 -1 -159 -3c0 21 3 47 8 62c53 4 66 20 66 101v159c-74 0 -170 -1 -244 -5v-154c0 -81 14 -97 68 -101c4 -14 6 -40 6 -62c-34 2 -86 3 -142 3c-55 0 -117 -1 -158 -3
c0 21 3 47 7 62c54 4 67 20 67 101v276l-71 -1c0 23 5 50 12 65h59v17c0 80 -13 94 -67 100c-5 16 -7 40 -7 62c34 -2 107 -3 153 -3s107 1 147 3c0 -23 0 -43 -7 -62c-54 -5 -67 -20 -67 -100v-17h244v17c0 80 -12 94 -67 100c-5 16 -7 40 -7 62c35 -2 107 -3 153 -3
s108 1 148 3c0 -23 -1 -43 -8 -62c-54 -5 -66 -20 -66 -100v-17h66c0 -24 -5 -41 -12 -61h-54zM512 379v60l-244 -1v-59h244z" />
    <glyph glyph-name="hbar" unicode="&#x127;" horiz-adv-x="653" 
d="M615 59c7 -17 8 -36 8 -62c-29 1 -81 3 -125 3c-45 0 -113 -1 -144 -3c0 24 1 44 8 62c37 0 57 22 57 94v105c0 84 -28 112 -75 112c-51 0 -97 -56 -97 -160v-64c0 -68 17 -87 56 -87c8 -19 9 -37 9 -62c-29 2 -93 3 -138 3c-46 0 -117 -1 -147 -3c0 25 2 48 8 62
c52 0 66 20 66 87v341c-27 -1 -54 -2 -78 -4c0 22 4 49 13 73h65c0 45 -11 66 -74 69c0 21 2 42 11 59c68 0 151 17 179 33c18 -7 30 -23 30 -53v-108h91c0 -20 -2 -44 -10 -67h-81v-77c0 -16 -4 -37 -10 -60c8 17 15 34 28 49c28 31 77 61 140 61c83 0 160 -44 160 -163
v-153c0 -67 14 -87 50 -87z" />
    <glyph glyph-name="Imacron" unicode="&#x12a;" horiz-adv-x="384" 
d="M13 849h367c0 -14 -3 -34 -9 -51c-73 0 -214 -1 -367 -7c0 14 3 42 9 58zM116 160v357c0 80 -13 94 -67 100c-5 16 -7 40 -7 62c34 -2 107 -3 153 -3s107 1 147 3c0 -23 0 -43 -7 -62c-54 -5 -67 -20 -67 -100v-357c0 -81 14 -97 68 -101c4 -14 6 -40 6 -62
c-34 2 -86 3 -142 3c-55 0 -117 -1 -158 -3c0 21 3 47 7 62c54 4 67 20 67 101z" />
    <glyph glyph-name="imacron" unicode="&#x12b;" horiz-adv-x="351" 
d="M-1 631h367c0 -14 -3 -34 -9 -51c-73 0 -214 -1 -367 -7c0 14 3 42 9 58zM251 414v-268c0 -67 14 -85 63 -87c5 -16 7 -40 7 -62c-30 2 -89 3 -145 3c-55 0 -117 -1 -145 -3c0 24 2 46 8 62c53 2 66 20 66 87v159c0 46 -10 67 -74 70c0 21 2 42 11 59c69 0 151 17 180 33
c17 -7 29 -23 29 -53z" />
    <glyph glyph-name="Iogonek" unicode="&#x12e;" horiz-adv-x="384" 
d="M259 0c-45 -21 -76 -55 -76 -92c0 -35 26 -51 70 -51c12 0 25 1 37 5c9 -12 16 -44 13 -65c-38 -10 -78 -25 -107 -45c-9 -1 -13 -1 -22 -1c-44 0 -117 26 -117 107c0 57 36 105 116 142c-47 0 -96 -1 -131 -3c0 21 3 47 7 62c54 4 67 20 67 101v357c0 80 -13 94 -67 100
c-5 16 -7 40 -7 62c34 -2 107 -3 153 -3s107 1 147 3c0 -23 0 -43 -7 -62c-54 -5 -67 -20 -67 -100v-357c0 -81 14 -97 68 -101c4 -14 6 -40 6 -62c-22 1 -50 2 -83 3z" />
    <glyph glyph-name="iogonek" unicode="&#x12f;" horiz-adv-x="356" 
d="M161 543c-50 0 -83 30 -83 71c0 49 38 77 87 77c55 0 86 -28 86 -76c0 -41 -36 -72 -90 -72zM244 -143c13 0 25 1 38 5c8 -12 15 -44 12 -65c-38 -10 -78 -25 -107 -45c-8 -1 -13 -1 -21 -1c-45 0 -117 26 -117 107c0 57 36 105 116 142c-52 0 -108 -1 -134 -3
c0 24 2 46 8 62c53 2 66 20 66 87v159c0 46 -10 67 -74 70c0 21 2 42 11 59c69 0 151 17 180 33c17 -7 29 -23 29 -53v-268c0 -67 14 -85 63 -87c5 -16 7 -40 7 -62c-17 1 -42 2 -71 2c-46 -21 -76 -54 -76 -91c0 -35 26 -51 70 -51z" />
    <glyph glyph-name="Idotaccent" unicode="&#x130;" horiz-adv-x="384" 
d="M192 886c55 0 86 -27 86 -75c0 -41 -35 -72 -90 -72c-50 0 -83 29 -83 71c0 49 38 76 87 76zM116 160v357c0 80 -13 94 -67 100c-5 16 -7 40 -7 62c34 -2 107 -3 153 -3s107 1 147 3c0 -23 0 -43 -7 -62c-54 -5 -67 -20 -67 -100v-357c0 -81 14 -97 68 -101
c4 -14 6 -40 6 -62c-34 2 -86 3 -142 3c-55 0 -117 -1 -158 -3c0 21 3 47 7 62c54 4 67 20 67 101z" />
    <glyph glyph-name="dotlessi" unicode="&#x131;" horiz-adv-x="351" 
d="M251 414v-268c0 -67 14 -85 63 -87c5 -16 7 -40 7 -62c-30 2 -89 3 -145 3c-55 0 -117 -1 -145 -3c0 24 2 46 8 62c53 2 66 20 66 87v159c0 46 -10 67 -74 70c0 21 2 42 11 59c69 0 151 17 180 33c17 -7 29 -23 29 -53z" />
    <glyph glyph-name="IJ" unicode="&#x132;" horiz-adv-x="688" 
d="M116 160v357c0 80 -13 94 -67 100c-5 16 -7 40 -7 62c34 -2 107 -3 153 -3s107 1 147 3c0 -23 0 -43 -7 -62c-54 -5 -67 -20 -67 -100v-357c0 -81 14 -97 68 -101c4 -14 6 -40 6 -62c-34 2 -86 3 -142 3c-55 0 -117 -1 -158 -3c0 21 3 47 7 62c54 4 67 20 67 101z
M588 515v-384c0 -186 -33 -293 -235 -380c-17 12 -25 32 -28 53c74 55 110 111 110 246v465c0 82 -13 97 -67 102c-5 16 -7 41 -7 62c36 -3 100 -3 150 -3c51 0 115 0 151 3c0 -25 -2 -45 -7 -62c-57 -5 -67 -26 -67 -102z" />
    <glyph glyph-name="ij" unicode="&#x133;" horiz-adv-x="600" 
d="M165 691c55 0 86 -28 86 -76c0 -41 -36 -72 -90 -72c-50 0 -83 30 -83 71c0 49 38 77 87 77zM461 690c55 0 86 -27 86 -75c0 -41 -35 -72 -90 -72c-50 0 -83 29 -83 71c0 49 38 76 87 76zM251 414v-268c0 -67 14 -85 63 -87c5 -16 7 -40 7 -62c-30 2 -89 3 -145 3
c-55 0 -117 -1 -145 -3c0 24 2 46 8 62c53 2 66 20 66 87v159c0 46 -10 67 -74 70c0 21 2 42 11 59c69 0 151 17 180 33c17 -7 29 -23 29 -53zM395 32v273c0 46 -10 67 -74 70c0 21 2 42 11 59c69 0 151 17 180 33c17 -7 29 -23 29 -53v-358c0 -157 -116 -262 -201 -305
c-18 9 -33 30 -36 54c71 77 91 129 91 227z" />
    <glyph glyph-name="Jcircumflex" unicode="&#x134;" horiz-adv-x="365" 
d="M161 925c18 6 42 10 62 10c39 -49 91 -105 154 -162c-14 -17 -34 -31 -63 -36c-40 28 -93 65 -137 88c-34 -18 -107 -66 -140 -91c-22 8 -35 32 -39 48c54 38 118 93 163 143zM256 515v-384c0 -186 -33 -293 -235 -380c-17 12 -25 32 -28 53c74 55 110 111 110 246v465
c0 82 -13 97 -67 102c-5 16 -7 41 -7 62c36 -3 100 -3 150 -3s115 0 151 3c0 -25 -2 -45 -8 -62c-56 -5 -66 -26 -66 -102z" />
    <glyph glyph-name="jcircumflex" unicode="&#x135;" horiz-adv-x="312" 
d="M141 707c18 6 42 10 62 10c39 -49 91 -105 154 -162c-14 -17 -34 -31 -63 -36c-40 28 -93 65 -137 88c-34 -18 -107 -66 -140 -91c-22 8 -35 32 -39 48c54 38 118 93 163 143zM105 32v273c0 46 -10 67 -74 70c0 21 2 42 11 59c69 0 151 17 180 33c17 -7 29 -23 29 -53
v-358c0 -157 -116 -262 -201 -305c-18 9 -33 30 -36 54c71 77 91 129 91 227z" />
    <glyph glyph-name="Kcommaaccent" unicode="&#x136;" horiz-adv-x="727" 
d="M548 188c53 -77 106 -124 164 -129c0 -21 -1 -42 -9 -59c-50 0 -161 -2 -211 -8c-49 94 -136 226 -224 321v-153c0 -81 14 -97 68 -101c4 -14 6 -40 6 -62c-34 2 -86 3 -142 3c-55 0 -117 -1 -158 -3c0 21 3 47 7 62c54 4 67 20 67 101v357c0 80 -13 94 -67 100
c-5 16 -7 40 -7 62c34 -2 107 -3 153 -3s107 1 147 3c0 -23 0 -43 -7 -62c-54 -5 -67 -20 -67 -100v-151l155 158c66 67 57 90 18 93c-6 18 -7 42 -7 62c23 -2 69 -3 108 -3c40 0 106 1 131 3c0 -19 -3 -47 -9 -62c-48 -3 -87 -23 -142 -80l-132 -139
c60 -66 108 -137 158 -210zM399 -40c31 -10 45 -33 45 -76c0 -78 -47 -139 -111 -183c-23 0 -43 8 -54 23c37 31 55 62 55 86c0 23 -17 36 -53 40c-3 24 2 55 12 80c43 3 79 13 106 30z" />
    <glyph glyph-name="kcommaaccent" unicode="&#x137;" horiz-adv-x="610" 
d="M509 114c36 -47 43 -50 84 -53c0 -22 -3 -44 -10 -61c-50 0 -118 -2 -162 -9c-31 49 -108 149 -174 224v-69c0 -65 12 -84 51 -87c6 -16 7 -40 7 -62c-30 2 -85 3 -136 3c-52 0 -114 -1 -142 -3c0 24 2 46 7 62c53 2 67 20 67 87v409c0 46 -11 67 -74 70c0 21 2 42 11 59
c68 0 151 17 179 33c18 -7 30 -23 30 -53v-401l66 59c37 34 49 50 49 60c0 11 -8 16 -28 17c-7 21 -10 40 -10 61c33 -1 92 -2 141 -2c30 0 64 1 94 2c0 -22 -3 -42 -10 -61c-50 -4 -78 -15 -127 -61l-59 -54c51 -49 96 -102 146 -170zM340 -40c31 -10 45 -33 45 -76
c0 -78 -47 -139 -111 -183c-23 0 -43 8 -54 23c37 31 55 62 55 86c0 23 -17 36 -53 40c-3 24 2 55 12 80c43 3 79 13 106 30z" />
    <glyph glyph-name="Lacute" unicode="&#x139;" horiz-adv-x="605" 
d="M210 925c28 10 60 13 90 13c18 -1 35 -2 48 -5c-48 -58 -95 -124 -131 -185c-25 0 -54 6 -69 14c30 62 49 111 62 163zM352 62h12c87 0 121 37 150 131c34 -5 62 -15 77 -29c-15 -46 -26 -109 -31 -166c-51 1 -152 2 -232 2c-71 0 -239 -2 -286 -3c0 24 2 47 6 62
c54 4 68 20 68 106v352c0 80 -13 94 -68 100c-4 16 -6 43 -6 62c52 -2 96 -3 150 -3c46 0 111 1 151 3c0 -23 -1 -46 -7 -62c-54 -5 -67 -20 -67 -102v-347c0 -84 17 -106 83 -106z" />
    <glyph glyph-name="lacute" unicode="&#x13a;" horiz-adv-x="343" 
d="M192 966c28 10 60 13 90 13c18 -1 35 -2 48 -5c-48 -58 -95 -124 -131 -185c-25 0 -54 6 -69 14c30 62 49 111 62 163zM101 146v415c-1 42 -14 61 -74 64c0 21 2 42 11 59c68 0 151 17 179 33c18 -7 30 -23 30 -53v-518c0 -67 14 -85 63 -87c5 -16 6 -40 6 -62
c-29 2 -89 3 -144 3s-117 -1 -145 -3c0 24 2 46 7 62c53 2 67 20 67 87z" />
    <glyph glyph-name="Lcommaaccent" unicode="&#x13b;" horiz-adv-x="605" 
d="M352 62h12c87 0 121 37 150 131c34 -5 62 -15 77 -29c-15 -46 -26 -109 -31 -166c-51 1 -152 2 -232 2c-71 0 -239 -2 -286 -3c0 24 2 47 6 62c54 4 68 20 68 106v352c0 80 -13 94 -68 100c-4 16 -6 43 -6 62c52 -2 96 -3 150 -3c46 0 111 1 151 3c0 -23 -1 -46 -7 -62
c-54 -5 -67 -20 -67 -102v-347c0 -84 17 -106 83 -106zM342 -40c31 -10 45 -33 45 -76c0 -78 -47 -139 -111 -183c-23 0 -43 8 -54 23c37 31 55 62 55 86c0 23 -17 36 -53 40c-3 24 2 55 12 80c43 3 79 13 106 30z" />
    <glyph glyph-name="lcommaaccent" unicode="&#x13c;" horiz-adv-x="343" 
d="M101 146v415c-1 42 -14 61 -74 64c0 21 2 42 11 59c68 0 151 17 179 33c18 -7 30 -23 30 -53v-518c0 -67 14 -85 63 -87c5 -16 6 -40 6 -62c-29 2 -89 3 -144 3s-117 -1 -145 -3c0 24 2 46 7 62c53 2 67 20 67 87zM207 -40c31 -10 45 -33 45 -76
c0 -78 -47 -139 -111 -183c-23 0 -43 8 -54 23c37 31 55 62 55 86c0 23 -17 36 -53 40c-3 24 2 55 12 80c43 3 79 13 106 30z" />
    <glyph glyph-name="Lcaron" unicode="&#x13d;" horiz-adv-x="605" 
d="M580 636c0 -75 -33 -144 -91 -201c-24 0 -44 5 -60 17c39 44 48 68 48 102c0 28 -19 43 -60 48c0 31 2 58 12 91c43 3 79 13 106 31c32 -10 45 -34 45 -88zM352 62h12c87 0 121 37 150 131c34 -5 62 -15 77 -29c-15 -46 -26 -109 -31 -166c-51 1 -152 2 -232 2
c-71 0 -239 -2 -286 -3c0 24 2 47 6 62c54 4 68 20 68 106v352c0 80 -13 94 -68 100c-4 16 -6 43 -6 62c52 -2 96 -3 150 -3c46 0 111 1 151 3c0 -23 -1 -46 -7 -62c-54 -5 -67 -20 -67 -102v-347c0 -84 17 -106 83 -106z" />
    <glyph glyph-name="lcaron" unicode="&#x13e;" horiz-adv-x="483" 
d="M472 636c0 -75 -33 -144 -91 -201c-24 0 -44 5 -60 17c39 44 48 68 48 102c0 28 -19 43 -60 48c0 31 2 58 12 91c43 3 79 13 106 31c32 -10 45 -34 45 -88zM101 146v415c-1 42 -14 61 -74 64c0 21 2 42 11 59c68 0 151 17 179 33c18 -7 30 -23 30 -53v-518
c0 -67 14 -85 63 -87c5 -16 6 -40 6 -62c-29 2 -89 3 -144 3s-117 -1 -145 -3c0 24 2 46 7 62c53 2 67 20 67 87z" />
    <glyph glyph-name="Ldot" unicode="&#x13f;" horiz-adv-x="605" 
d="M352 62h12c87 0 121 37 150 131c34 -5 62 -15 77 -29c-15 -46 -26 -109 -31 -166c-51 1 -152 2 -232 2c-71 0 -239 -2 -286 -3c0 24 2 47 6 62c54 4 68 20 68 106v352c0 80 -13 94 -68 100c-4 16 -6 43 -6 62c52 -2 96 -3 150 -3c46 0 111 1 151 3c0 -23 -1 -46 -7 -62
c-54 -5 -67 -20 -67 -102v-347c0 -84 17 -106 83 -106zM578 372c0 -50 -33 -85 -84 -85c-52 0 -83 31 -83 80c0 48 37 80 88 80c48 0 79 -38 79 -75z" />
    <glyph glyph-name="ldot" unicode="&#x140;" horiz-adv-x="414" 
d="M101 146v415c-1 42 -14 61 -74 64c0 21 2 42 11 59c68 0 151 17 179 33c18 -7 30 -23 30 -53v-518c0 -67 14 -85 63 -87c5 -16 6 -40 6 -62c-29 2 -89 3 -144 3s-117 -1 -145 -3c0 24 2 46 7 62c53 2 67 20 67 87zM465 363c0 -50 -33 -85 -84 -85c-52 0 -83 31 -83 80
c0 48 37 80 88 80c48 0 79 -38 79 -75z" />
    <glyph glyph-name="Lslash" unicode="&#x141;" horiz-adv-x="605" 
d="M514 193c34 -5 62 -15 77 -29c-15 -46 -26 -109 -31 -166c-51 1 -152 2 -232 2c-71 0 -239 -2 -286 -3c0 24 2 47 6 62c54 4 68 20 68 106v71l-41 -38c-18 20 -34 47 -38 64l79 72v183c0 80 -13 94 -68 100c-4 16 -6 43 -6 62c52 -2 96 -3 150 -3c46 0 111 1 151 3
c0 -23 -1 -46 -7 -62c-54 -5 -67 -20 -67 -102v-70l63 58c16 -18 31 -43 35 -61l-98 -91v-183c0 -84 17 -106 83 -106h12c87 0 121 37 150 131z" />
    <glyph glyph-name="lslash" unicode="&#x142;" horiz-adv-x="346" 
d="M247 357v-211c0 -67 14 -85 63 -87c5 -16 6 -40 6 -62c-29 2 -89 3 -144 3s-117 -1 -145 -3c0 24 2 46 7 62c53 2 67 20 67 87v104l-50 -48c-18 21 -33 47 -38 64l88 81v214c-1 42 -14 61 -74 64c0 21 2 42 11 59c68 0 151 17 179 33c18 -7 30 -23 30 -53v-213l61 56
c17 -18 31 -43 36 -61z" />
    <glyph glyph-name="Nacute" unicode="&#x143;" horiz-adv-x="725" 
d="M523 933c-48 -58 -95 -124 -131 -185c-25 0 -54 6 -69 14c30 62 49 111 62 163c28 10 60 13 90 13c18 -1 35 -2 48 -5zM589 676c31 0 76 1 101 3c0 -21 -1 -42 -6 -62c-49 -4 -61 -30 -61 -143v-476c-20 -6 -42 -7 -69 -7l-374 498v-285c0 -113 14 -141 74 -145
c6 -17 7 -39 7 -62c-29 2 -80 3 -112 3c-31 0 -91 1 -116 -1c0 25 1 43 7 60c58 4 76 32 76 145v370l-10 13c-15 21 -28 26 -66 30c-5 18 -7 40 -7 62c24 -2 78 -3 107 -3s70 0 93 3l325 -439v234c0 112 -14 138 -78 143c-5 23 -6 44 -6 62c29 -2 83 -3 115 -3z" />
    <glyph glyph-name="nacute" unicode="&#x144;" horiz-adv-x="658" 
d="M488 715c-48 -58 -95 -124 -131 -185c-25 0 -54 6 -69 14c30 62 49 111 62 163c28 10 60 13 90 13c18 -1 35 -2 48 -5zM619 59c7 -17 9 -36 9 -62c-30 1 -82 3 -126 3s-113 -1 -143 -3c0 24 1 44 7 62c37 0 58 22 58 94v105c0 84 -28 112 -76 112c-50 0 -97 -56 -97 -160
v-64c0 -68 18 -87 57 -87c7 -19 8 -37 8 -62c-29 2 -92 3 -138 3c-45 0 -117 -1 -147 -3c0 25 3 48 8 62c52 0 66 20 66 87v148c0 57 -7 77 -72 81c0 21 2 42 11 59c73 1 147 17 178 33c18 -7 29 -23 29 -55c0 -16 -3 -37 -10 -60c8 17 15 34 29 49c27 31 76 61 139 61
c84 0 160 -44 160 -163v-153c0 -67 14 -87 50 -87z" />
    <glyph glyph-name="Ncommaaccent" unicode="&#x145;" horiz-adv-x="725" 
d="M589 676c31 0 76 1 101 3c0 -21 -1 -42 -6 -62c-49 -4 -61 -30 -61 -143v-476c-20 -6 -42 -7 -69 -7l-374 498v-285c0 -113 14 -141 74 -145c6 -17 7 -39 7 -62c-29 2 -80 3 -112 3c-31 0 -91 1 -116 -1c0 25 1 43 7 60c58 4 76 32 76 145v370l-10 13
c-15 21 -28 26 -66 30c-5 18 -7 40 -7 62c24 -2 78 -3 107 -3s70 0 93 3l325 -439v234c0 112 -14 138 -78 143c-5 23 -6 44 -6 62c29 -2 83 -3 115 -3zM428 -40c31 -10 45 -33 45 -76c0 -78 -47 -139 -111 -183c-23 0 -43 8 -54 23c37 31 55 62 55 86c0 23 -17 36 -53 40
c-3 24 2 55 12 80c43 3 79 13 106 30z" />
    <glyph glyph-name="ncommaaccent" unicode="&#x146;" horiz-adv-x="658" 
d="M619 59c7 -17 9 -36 9 -62c-30 1 -82 3 -126 3s-113 -1 -143 -3c0 24 1 44 7 62c37 0 58 22 58 94v105c0 84 -28 112 -76 112c-50 0 -97 -56 -97 -160v-64c0 -68 18 -87 57 -87c7 -19 8 -37 8 -62c-29 2 -92 3 -138 3c-45 0 -117 -1 -147 -3c0 25 3 48 8 62
c52 0 66 20 66 87v148c0 57 -7 77 -72 81c0 21 2 42 11 59c73 1 147 17 178 33c18 -7 29 -23 29 -55c0 -16 -3 -37 -10 -60c8 17 15 34 29 49c27 31 76 61 139 61c84 0 160 -44 160 -163v-153c0 -67 14 -87 50 -87zM372 -40c31 -10 45 -33 45 -76c0 -78 -47 -139 -111 -183
c-23 0 -43 8 -54 23c37 31 55 62 55 86c0 23 -17 36 -53 40c-3 24 2 55 12 80c43 3 79 13 106 30z" />
    <glyph glyph-name="Ncaron" unicode="&#x147;" horiz-adv-x="725" 
d="M334 734c-43 51 -95 106 -147 153c7 20 23 34 49 44c41 -29 92 -64 138 -85c37 18 106 63 132 85c24 -5 42 -24 49 -42c-54 -42 -115 -97 -157 -147c-19 -6 -43 -8 -64 -8zM589 676c31 0 76 1 101 3c0 -21 -1 -42 -6 -62c-49 -4 -61 -30 -61 -143v-476
c-20 -6 -42 -7 -69 -7l-374 498v-285c0 -113 14 -141 74 -145c6 -17 7 -39 7 -62c-29 2 -80 3 -112 3c-31 0 -91 1 -116 -1c0 25 1 43 7 60c58 4 76 32 76 145v370l-10 13c-15 21 -28 26 -66 30c-5 18 -7 40 -7 62c24 -2 78 -3 107 -3s70 0 93 3l325 -439v234
c0 112 -14 138 -78 143c-5 23 -6 44 -6 62c29 -2 83 -3 115 -3z" />
    <glyph glyph-name="ncaron" unicode="&#x148;" horiz-adv-x="658" 
d="M299 516c-43 51 -95 106 -147 153c7 20 23 34 49 44c41 -29 92 -64 138 -85c37 18 106 63 132 85c24 -5 42 -24 49 -42c-54 -42 -115 -97 -157 -147c-19 -6 -43 -8 -64 -8zM619 59c7 -17 9 -36 9 -62c-30 1 -82 3 -126 3s-113 -1 -143 -3c0 24 1 44 7 62
c37 0 58 22 58 94v105c0 84 -28 112 -76 112c-50 0 -97 -56 -97 -160v-64c0 -68 18 -87 57 -87c7 -19 8 -37 8 -62c-29 2 -92 3 -138 3c-45 0 -117 -1 -147 -3c0 25 3 48 8 62c52 0 66 20 66 87v148c0 57 -7 77 -72 81c0 21 2 42 11 59c73 1 147 17 178 33
c18 -7 29 -23 29 -55c0 -16 -3 -37 -10 -60c8 17 15 34 29 49c27 31 76 61 139 61c84 0 160 -44 160 -163v-153c0 -67 14 -87 50 -87z" />
    <glyph glyph-name="napostrophe" unicode="&#x149;" horiz-adv-x="846" 
d="M186 724c31 -10 45 -33 45 -90c0 -82 -46 -168 -110 -228c-24 1 -47 10 -59 22c43 48 66 92 66 125c0 27 -21 44 -60 49c0 31 2 58 12 91c43 4 79 14 106 31zM808 59c7 -17 9 -36 9 -62c-30 1 -82 3 -126 3s-113 -1 -144 -3c0 24 1 44 8 62c37 0 58 22 58 94v105
c0 84 -28 112 -76 112c-51 0 -97 -56 -97 -160v-64c0 -68 17 -87 57 -87c7 -19 8 -37 8 -62c-29 2 -92 3 -138 3c-45 0 -117 -1 -147 -3c0 25 2 48 8 62c52 0 66 20 66 87v148c0 57 -7 77 -72 81c0 21 2 42 11 59c73 1 147 17 178 33c18 -7 29 -23 29 -55
c0 -16 -3 -37 -10 -60c8 17 15 34 28 49c28 31 77 61 140 61c84 0 160 -44 160 -163v-153c0 -67 14 -87 50 -87z" />
    <glyph glyph-name="Eng" unicode="&#x14a;" horiz-adv-x="734" 
d="M597 676c31 0 76 1 101 3c0 -20 0 -42 -6 -62c-48 -4 -61 -30 -61 -143v-343c0 -186 -33 -293 -235 -380c-17 12 -25 32 -28 53c86 62 144 112 144 243v11l-324 431v-285c0 -113 15 -141 75 -145c5 -17 6 -39 6 -62c-29 2 -80 3 -111 3c-32 0 -92 1 -116 -1
c0 25 1 43 6 60c59 4 76 32 76 145v370l-10 13c-14 21 -27 26 -66 30c-5 18 -6 40 -6 62c23 -2 77 -3 106 -3c30 0 70 0 93 3l326 -440v235c0 112 -14 138 -78 143c-5 23 -6 44 -6 62c28 -2 83 -3 114 -3z" />
    <glyph glyph-name="eng" unicode="&#x14b;" horiz-adv-x="622" 
d="M409 462c84 0 160 -44 160 -163v-243c0 -157 -116 -262 -201 -305c-18 9 -33 30 -36 54c72 77 92 129 92 227v226c0 84 -28 112 -76 112c-50 0 -97 -56 -97 -160v-64c0 -68 18 -87 57 -87c7 -19 8 -37 8 -62c-29 2 -92 3 -138 3c-45 0 -117 -1 -147 -3c0 25 3 48 8 62
c52 0 66 20 66 87v148c0 57 -7 77 -72 81c0 21 2 42 11 59c73 1 147 17 178 33c18 -7 29 -23 29 -55c0 -16 -3 -37 -10 -60c8 17 15 34 29 49c27 31 76 61 139 61z" />
    <glyph glyph-name="Omacron" unicode="&#x14c;" horiz-adv-x="748" 
d="M195 849h367c0 -14 -3 -34 -9 -51c-73 0 -214 -1 -367 -7c0 14 3 42 9 58zM373 685c201 0 340 -134 340 -337c0 -207 -136 -357 -340 -357c-208 0 -338 145 -338 350c0 209 144 344 338 344zM389 56c104 0 164 111 164 269c0 165 -79 297 -196 297
c-98 0 -162 -97 -162 -256c0 -164 64 -310 194 -310z" />
    <glyph glyph-name="omacron" unicode="&#x14d;" horiz-adv-x="574" 
d="M104 631h367c0 -14 -3 -34 -9 -51c-73 0 -214 -1 -367 -7c0 14 3 42 9 58zM289 467c165 0 251 -97 251 -234c0 -148 -100 -242 -256 -242c-161 0 -250 91 -250 233c0 154 110 243 255 243zM276 406c-61 0 -91 -65 -91 -152c0 -117 41 -199 113 -199c60 0 92 66 92 155
c0 127 -54 196 -114 196z" />
    <glyph glyph-name="Ohungarumlaut" unicode="&#x150;" horiz-adv-x="748" 
d="M293 925c28 10 60 13 90 13c18 -1 35 -2 48 -5c-48 -58 -95 -124 -131 -185c-25 0 -54 6 -69 14c30 62 49 111 62 163zM476 925c28 10 60 13 90 13c18 -1 35 -2 48 -5c-48 -58 -95 -124 -131 -185c-25 0 -54 6 -69 14c30 62 49 111 62 163zM373 685
c201 0 340 -134 340 -337c0 -207 -136 -357 -340 -357c-208 0 -338 145 -338 350c0 209 144 344 338 344zM389 56c104 0 164 111 164 269c0 165 -79 297 -196 297c-98 0 -162 -97 -162 -256c0 -164 64 -310 194 -310z" />
    <glyph glyph-name="ohungarumlaut" unicode="&#x151;" horiz-adv-x="574" 
d="M201 707c28 10 60 13 90 13c18 -1 35 -2 48 -5c-48 -58 -95 -124 -131 -185c-25 0 -54 6 -69 14c30 62 49 111 62 163zM384 707c28 10 60 13 90 13c18 -1 35 -2 48 -5c-48 -58 -95 -124 -131 -185c-25 0 -54 6 -69 14c30 62 49 111 62 163zM289 467
c165 0 251 -97 251 -234c0 -148 -100 -242 -256 -242c-161 0 -250 91 -250 233c0 154 110 243 255 243zM276 406c-61 0 -91 -65 -91 -152c0 -117 41 -199 113 -199c60 0 92 66 92 155c0 127 -54 196 -114 196z" />
    <glyph glyph-name="OE" unicode="&#x152;" horiz-adv-x="998" 
d="M366 684c77 0 173 -8 293 -8c119 0 201 1 260 3c2 -47 9 -123 21 -168c-19 -9 -43 -15 -76 -15c-10 67 -37 123 -151 123h-147c76 -55 110 -146 113 -254h12c68 0 85 24 86 75c21 8 46 10 70 10c-1 -27 -3 -70 -3 -114c0 -47 2 -91 3 -117c-28 0 -48 2 -68 8
c-5 54 -21 78 -93 78h-9c-8 -102 -45 -188 -115 -244h183c92 0 123 42 150 132c33 -5 61 -15 76 -29c-15 -46 -25 -109 -31 -166c-50 1 -152 2 -258 2c-137 0 -215 -9 -319 -9c-207 0 -328 137 -328 346c0 213 131 347 331 347zM352 621c-102 0 -161 -99 -161 -262
c0 -174 63 -303 185 -303c91 0 150 98 150 273c0 179 -75 292 -174 292z" />
    <glyph glyph-name="oe" unicode="&#x153;" horiz-adv-x="829" 
d="M764 114c13 -8 25 -31 26 -52c-49 -47 -114 -71 -188 -71c-68 0 -123 21 -162 58c-39 -37 -95 -58 -165 -58c-148 0 -241 90 -241 233c0 149 95 243 246 243c69 0 124 -20 162 -56c38 36 90 56 154 56c137 0 197 -105 198 -215c-4 -19 -13 -36 -25 -48
c-61 0 -171 -1 -254 -6c13 -82 60 -131 131 -131c37 0 87 18 118 47zM290 55c49 0 80 60 80 155c0 120 -39 196 -102 196c-51 0 -84 -59 -84 -152c0 -122 41 -199 106 -199zM587 405c-45 0 -73 -54 -76 -142h147c0 83 -27 142 -71 142z" />
    <glyph glyph-name="Racute" unicode="&#x154;" horiz-adv-x="703" 
d="M490 933c-48 -58 -95 -124 -131 -185c-25 0 -54 6 -69 14c30 62 49 111 62 163c28 10 60 13 90 13c18 -1 35 -2 48 -5zM574 156c36 -67 61 -92 112 -95c0 -23 -2 -43 -8 -63c-80 0 -156 -2 -197 -7l-68 154c-27 61 -52 101 -91 135c-19 -1 -35 -1 -53 0v-114
c0 -90 14 -104 56 -107c5 -13 7 -40 7 -62c-41 2 -113 3 -151 3c-45 0 -100 -1 -139 -3c0 25 2 46 7 62c54 4 67 20 67 101v358c0 80 -13 95 -68 100c-4 17 -6 46 -6 61c31 -1 90 -3 149 -3c45 0 116 4 189 4c163 0 235 -81 235 -179c0 -106 -62 -173 -153 -196
c47 -27 64 -55 112 -149zM305 349c80 0 151 42 151 134c0 85 -43 137 -131 137c-21 0 -38 -2 -56 -7v-261c15 -2 26 -3 36 -3z" />
    <glyph glyph-name="racute" unicode="&#x155;" horiz-adv-x="476" 
d="M409 715c-48 -58 -95 -124 -131 -185c-25 0 -54 6 -69 14c30 62 49 111 62 163c28 10 60 13 90 13c18 -1 35 -2 48 -5zM458 436c-6 -40 -10 -104 -8 -147c-21 -8 -59 -11 -84 -11c-2 52 -17 70 -44 70c-30 0 -71 -59 -71 -124v-49c0 -87 25 -111 100 -116
c6 -17 7 -40 7 -62c-35 2 -100 3 -156 3c-61 0 -133 -1 -171 -3c0 28 2 47 7 62c53 4 67 20 67 101v134c0 57 -7 77 -72 81c0 21 2 42 11 59c73 1 147 17 178 33c18 -7 29 -23 29 -55c0 -30 -7 -58 -16 -98c9 25 18 52 26 65c29 46 73 81 126 81c27 0 49 -7 71 -24z" />
    <glyph glyph-name="Rcommaaccent" unicode="&#x156;" horiz-adv-x="703" 
d="M574 156c36 -67 61 -92 112 -95c0 -23 -2 -43 -8 -63c-80 0 -156 -2 -197 -7l-68 154c-27 61 -52 101 -91 135c-19 -1 -35 -1 -53 0v-114c0 -90 14 -104 56 -107c5 -13 7 -40 7 -62c-41 2 -113 3 -151 3c-45 0 -100 -1 -139 -3c0 25 2 46 7 62c54 4 67 20 67 101v358
c0 80 -13 95 -68 100c-4 17 -6 46 -6 61c31 -1 90 -3 149 -3c45 0 116 4 189 4c163 0 235 -81 235 -179c0 -106 -62 -173 -153 -196c47 -27 64 -55 112 -149zM305 349c80 0 151 42 151 134c0 85 -43 137 -131 137c-21 0 -38 -2 -56 -7v-261c15 -2 26 -3 36 -3zM411 -40
c31 -10 45 -33 45 -76c0 -78 -47 -139 -111 -183c-23 0 -43 8 -54 23c37 31 55 62 55 86c0 23 -17 36 -53 40c-3 24 2 55 12 80c43 3 79 13 106 30z" />
    <glyph glyph-name="rcommaaccent" unicode="&#x157;" horiz-adv-x="476" 
d="M458 436c-6 -40 -10 -104 -8 -147c-21 -8 -59 -11 -84 -11c-2 52 -17 70 -44 70c-30 0 -71 -59 -71 -124v-49c0 -87 25 -111 100 -116c6 -17 7 -40 7 -62c-35 2 -100 3 -156 3c-61 0 -133 -1 -171 -3c0 28 2 47 7 62c53 4 67 20 67 101v134c0 57 -7 77 -72 81
c0 21 2 42 11 59c73 1 147 17 178 33c18 -7 29 -23 29 -55c0 -30 -7 -58 -16 -98c9 25 18 52 26 65c29 46 73 81 126 81c27 0 49 -7 71 -24zM230 -40c31 -10 45 -33 45 -76c0 -78 -47 -139 -111 -183c-23 0 -43 8 -54 23c37 31 55 62 55 86c0 23 -17 36 -53 40
c-3 24 2 55 12 80c43 3 79 13 106 30z" />
    <glyph glyph-name="Rcaron" unicode="&#x158;" horiz-adv-x="703" 
d="M301 734c-43 51 -95 106 -147 153c7 20 23 34 49 44c41 -29 92 -64 138 -85c37 18 106 63 132 85c24 -5 42 -24 49 -42c-54 -42 -115 -97 -157 -147c-19 -6 -43 -8 -64 -8zM574 156c36 -67 61 -92 112 -95c0 -23 -2 -43 -8 -63c-80 0 -156 -2 -197 -7l-68 154
c-27 61 -52 101 -91 135c-19 -1 -35 -1 -53 0v-114c0 -90 14 -104 56 -107c5 -13 7 -40 7 -62c-41 2 -113 3 -151 3c-45 0 -100 -1 -139 -3c0 25 2 46 7 62c54 4 67 20 67 101v358c0 80 -13 95 -68 100c-4 17 -6 46 -6 61c31 -1 90 -3 149 -3c45 0 116 4 189 4
c163 0 235 -81 235 -179c0 -106 -62 -173 -153 -196c47 -27 64 -55 112 -149zM305 349c80 0 151 42 151 134c0 85 -43 137 -131 137c-21 0 -38 -2 -56 -7v-261c15 -2 26 -3 36 -3z" />
    <glyph glyph-name="rcaron" unicode="&#x159;" horiz-adv-x="476" 
d="M219 516c-43 51 -95 106 -147 153c7 20 23 34 49 44c41 -29 92 -64 138 -85c37 18 106 63 132 85c24 -5 42 -24 49 -42c-54 -42 -115 -97 -157 -147c-19 -6 -43 -8 -64 -8zM458 436c-6 -40 -10 -104 -8 -147c-21 -8 -59 -11 -84 -11c-2 52 -17 70 -44 70
c-30 0 -71 -59 -71 -124v-49c0 -87 25 -111 100 -116c6 -17 7 -40 7 -62c-35 2 -100 3 -156 3c-61 0 -133 -1 -171 -3c0 28 2 47 7 62c53 4 67 20 67 101v134c0 57 -7 77 -72 81c0 21 2 42 11 59c73 1 147 17 178 33c18 -7 29 -23 29 -55c0 -30 -7 -58 -16 -98
c9 25 18 52 26 65c29 46 73 81 126 81c27 0 49 -7 71 -24z" />
    <glyph glyph-name="Sacute" unicode="&#x15a;" horiz-adv-x="543" 
d="M294 925c28 10 60 13 90 13c18 -1 35 -2 48 -5c-48 -58 -95 -124 -131 -185c-25 0 -54 6 -69 14c30 62 49 111 62 163zM282 685c70 0 141 -18 176 -40c0 -50 2 -112 7 -147c-23 -11 -61 -15 -88 -15c-17 110 -53 138 -109 138c-55 0 -91 -27 -91 -77
c0 -151 331 -119 331 -348c0 -117 -86 -205 -256 -205c-84 0 -143 22 -206 59c9 53 11 111 11 158c28 7 61 9 91 9c6 -112 36 -159 121 -159c77 0 108 39 108 83c0 143 -318 111 -318 351c0 131 92 193 223 193z" />
    <glyph glyph-name="sacute" unicode="&#x15b;" horiz-adv-x="464" 
d="M244 707c28 10 60 13 90 13c18 -1 35 -2 48 -5c-48 -58 -95 -124 -131 -185c-25 0 -54 6 -69 14c30 62 49 111 62 163zM395 329c-18 -11 -48 -18 -77 -18c-6 51 -36 95 -95 95c-31 0 -50 -17 -50 -42c0 -28 10 -45 109 -84c113 -45 148 -80 148 -147
c0 -90 -82 -142 -211 -142c-83 0 -130 12 -181 35c5 37 4 92 1 124c19 11 52 17 80 17c7 -74 45 -111 98 -111c39 0 65 19 65 49c0 31 -17 47 -96 78c-93 36 -144 68 -144 155c0 88 88 129 188 129c71 0 117 -10 162 -32c-2 -34 -2 -71 3 -106z" />
    <glyph glyph-name="Scircumflex" unicode="&#x15c;" horiz-adv-x="543" 
d="M258 925c18 6 42 10 62 10c39 -49 91 -105 154 -162c-14 -17 -34 -31 -63 -36c-40 28 -93 65 -137 88c-34 -18 -107 -66 -140 -91c-22 8 -35 32 -39 48c54 38 118 93 163 143zM282 685c70 0 141 -18 176 -40c0 -50 2 -112 7 -147c-23 -11 -61 -15 -88 -15
c-17 110 -53 138 -109 138c-55 0 -91 -27 -91 -77c0 -151 331 -119 331 -348c0 -117 -86 -205 -256 -205c-84 0 -143 22 -206 59c9 53 11 111 11 158c28 7 61 9 91 9c6 -112 36 -159 121 -159c77 0 108 39 108 83c0 143 -318 111 -318 351c0 131 92 193 223 193z" />
    <glyph glyph-name="scircumflex" unicode="&#x15d;" horiz-adv-x="464" 
d="M208 707c18 6 42 10 62 10c39 -49 91 -105 154 -162c-14 -17 -34 -31 -63 -36c-40 28 -93 65 -137 88c-34 -18 -107 -66 -140 -91c-22 8 -35 32 -39 48c54 38 118 93 163 143zM395 329c-18 -11 -48 -18 -77 -18c-6 51 -36 95 -95 95c-31 0 -50 -17 -50 -42
c0 -28 10 -45 109 -84c113 -45 148 -80 148 -147c0 -90 -82 -142 -211 -142c-83 0 -130 12 -181 35c5 37 4 92 1 124c19 11 52 17 80 17c7 -74 45 -111 98 -111c39 0 65 19 65 49c0 31 -17 47 -96 78c-93 36 -144 68 -144 155c0 88 88 129 188 129c71 0 117 -10 162 -32
c-2 -34 -2 -71 3 -106z" />
    <glyph glyph-name="Scedilla" unicode="&#x15e;" horiz-adv-x="543" 
d="M508 196c0 -104 -69 -186 -204 -202l-30 -40c56 -9 88 -47 88 -93c0 -67 -69 -103 -155 -103c-6 12 -8 30 -8 43c41 0 79 17 79 48c0 27 -27 45 -61 45c-11 11 -18 26 -18 43l40 54c-77 2 -133 24 -193 59c9 53 11 111 11 158c28 7 61 9 91 9c6 -112 36 -159 121 -159
c77 0 108 39 108 83c0 143 -318 111 -318 351c0 131 92 193 223 193c70 0 141 -18 176 -40c0 -50 2 -112 7 -147c-23 -11 -61 -15 -88 -15c-17 110 -53 138 -109 138c-55 0 -91 -27 -91 -77c0 -151 331 -119 331 -348z" />
    <glyph glyph-name="scedilla" unicode="&#x15f;" horiz-adv-x="464" 
d="M430 133c0 -83 -69 -133 -180 -141l-28 -38c56 -9 88 -47 88 -93c0 -67 -69 -103 -155 -103c-6 12 -8 30 -8 43c41 0 79 17 79 48c0 27 -27 45 -61 45c-11 11 -18 26 -18 43l40 55c-64 2 -105 14 -149 34c5 37 4 92 1 124c19 11 52 17 80 17c7 -74 45 -111 98 -111
c39 0 65 19 65 49c0 31 -17 47 -96 78c-93 36 -144 68 -144 155c0 88 88 129 188 129c71 0 117 -10 162 -32c-2 -34 -2 -71 3 -106c-18 -11 -48 -18 -77 -18c-6 51 -36 95 -95 95c-31 0 -50 -17 -50 -42c0 -28 10 -45 109 -84c113 -45 148 -80 148 -147z" />
    <glyph glyph-name="Scaron" unicode="&#x160;" horiz-adv-x="543" 
d="M415 931c24 -5 42 -24 49 -42c-54 -42 -115 -97 -157 -147c-19 -6 -43 -8 -64 -8c-43 51 -95 106 -147 153c7 20 23 34 49 44c41 -29 92 -64 138 -85c37 18 106 63 132 85zM282 685c70 0 141 -18 176 -40c0 -50 2 -112 7 -147c-23 -11 -61 -15 -88 -15
c-17 110 -53 138 -109 138c-55 0 -91 -27 -91 -77c0 -151 331 -119 331 -348c0 -117 -86 -205 -256 -205c-84 0 -143 22 -206 59c9 53 11 111 11 158c28 7 61 9 91 9c6 -112 36 -159 121 -159c77 0 108 39 108 83c0 143 -318 111 -318 351c0 131 92 193 223 193z" />
    <glyph glyph-name="scaron" unicode="&#x161;" horiz-adv-x="464" 
d="M365 713c24 -5 42 -24 49 -42c-54 -42 -115 -97 -157 -147c-19 -6 -43 -8 -64 -8c-43 51 -95 106 -147 153c7 20 23 34 49 44c41 -29 92 -64 138 -85c37 18 106 63 132 85zM395 329c-18 -11 -48 -18 -77 -18c-6 51 -36 95 -95 95c-31 0 -50 -17 -50 -42
c0 -28 10 -45 109 -84c113 -45 148 -80 148 -147c0 -90 -82 -142 -211 -142c-83 0 -130 12 -181 35c5 37 4 92 1 124c19 11 52 17 80 17c7 -74 45 -111 98 -111c39 0 65 19 65 49c0 31 -17 47 -96 78c-93 36 -144 68 -144 155c0 88 88 129 188 129c71 0 117 -10 162 -32
c-2 -34 -2 -71 3 -106z" />
    <glyph glyph-name="Tcedilla" unicode="&#x162;" horiz-adv-x="659" 
d="M618 679c-1 -52 5 -115 16 -177c-21 -9 -48 -13 -80 -13c-11 86 -41 128 -113 128h-35v-457c0 -81 15 -97 89 -101c6 -14 8 -40 8 -62c-35 2 -89 3 -148 3l-34 -46c56 -9 88 -47 88 -93c0 -67 -69 -103 -155 -103c-6 12 -8 30 -8 43c41 0 79 17 79 48c0 27 -27 45 -61 45
c-11 11 -18 26 -18 43l46 63c-54 0 -110 -1 -142 -3c0 21 4 47 9 62c75 4 94 20 94 101v457h-23c-84 0 -108 -45 -126 -128c-28 0 -58 2 -79 13c12 55 21 125 21 177c72 -3 152 -3 287 -3c125 0 214 1 285 3z" />
    <glyph glyph-name="tcedilla" unicode="&#x163;" horiz-adv-x="378" 
d="M243 -8l-28 -38c56 -9 88 -47 88 -93c0 -67 -69 -103 -155 -103c-6 12 -8 30 -8 43c41 0 79 17 79 48c0 27 -27 45 -61 45c-11 11 -18 26 -18 43l42 58c-65 13 -97 59 -97 155v222c-20 8 -41 12 -73 13c0 24 2 42 11 63h62v123c45 6 94 26 121 49c20 -8 25 -18 25 -62
v-110h123c0 -25 -4 -45 -10 -64c-44 -1 -81 -6 -113 -16v-202c0 -81 16 -103 52 -103c21 0 43 6 61 17c8 -11 14 -30 15 -50c-23 -20 -69 -35 -116 -38z" />
    <glyph glyph-name="Tcaron" unicode="&#x164;" horiz-adv-x="659" 
d="M298 734c-43 51 -95 106 -147 153c7 20 23 34 49 44c41 -29 92 -64 138 -85c37 18 106 63 132 85c24 -5 42 -24 49 -42c-54 -42 -115 -97 -157 -147c-19 -6 -43 -8 -64 -8zM618 679c-1 -52 5 -115 16 -177c-21 -9 -48 -13 -80 -13c-11 86 -41 128 -113 128h-35v-457
c0 -81 15 -97 89 -101c6 -14 8 -40 8 -62c-39 2 -100 3 -166 3s-146 -1 -187 -3c0 21 4 47 9 62c75 4 94 20 94 101v457h-23c-84 0 -108 -45 -126 -128c-28 0 -58 2 -79 13c12 55 21 125 21 177c72 -3 152 -3 287 -3c125 0 214 1 285 3z" />
    <glyph glyph-name="tcaron" unicode="&#x165;" horiz-adv-x="528" 
d="M535 636c0 -75 -33 -144 -91 -201c-24 0 -44 5 -60 17c39 44 48 68 48 102c0 28 -19 43 -60 48c0 31 2 58 12 91c43 3 79 13 106 31c32 -10 45 -34 45 -88zM85 448v123c45 6 94 26 121 49c20 -8 25 -18 25 -62v-110h123c0 -25 -4 -45 -10 -64c-44 -1 -81 -6 -113 -16
v-202c0 -81 16 -103 52 -103c21 0 43 6 61 17c8 -11 14 -30 15 -50c-26 -22 -81 -39 -133 -39c-94 0 -141 44 -141 159v222c-20 8 -41 12 -73 13c0 24 2 42 11 63h62z" />
    <glyph glyph-name="Tbar" unicode="&#x166;" horiz-adv-x="659" 
d="M153 849h367c0 -14 -3 -34 -9 -51c-73 0 -214 -1 -367 -7c0 14 3 42 9 58zM618 679c-1 -52 5 -115 16 -177c-21 -9 -48 -13 -80 -13c-11 86 -41 128 -113 128h-35v-457c0 -81 15 -97 89 -101c6 -14 8 -40 8 -62c-39 2 -100 3 -166 3s-146 -1 -187 -3c0 21 4 47 9 62
c75 4 94 20 94 101v457h-23c-84 0 -108 -45 -126 -128c-28 0 -58 2 -79 13c12 55 21 125 21 177c72 -3 152 -3 287 -3c125 0 214 1 285 3z" />
    <glyph glyph-name="tbar" unicode="&#x167;" horiz-adv-x="378" 
d="M344 80c8 -11 14 -30 15 -50c-26 -22 -81 -39 -133 -39c-94 0 -141 44 -141 159v80c-21 -1 -39 -2 -53 -3c0 18 2 40 9 58h44v87c-20 8 -41 12 -73 13c0 24 2 42 11 63h62v123c45 6 94 26 121 49c20 -8 25 -18 25 -62v-110h123c0 -25 -4 -45 -10 -64
c-44 -1 -81 -6 -113 -16v-83h83c0 -15 -3 -34 -9 -51h-74v-68c0 -81 16 -103 52 -103c21 0 43 6 61 17z" />
    <glyph glyph-name="Umacron" unicode="&#x16a;" horiz-adv-x="687" 
d="M207 849h367c0 -14 -3 -34 -9 -51c-73 0 -214 -1 -367 -7c0 14 3 42 9 58zM584 491v-218c0 -115 -12 -181 -58 -227c-40 -38 -98 -55 -171 -55c-194 0 -256 78 -256 244v279c0 83 -11 95 -63 103c-4 17 -6 40 -6 62c27 -2 79 -3 127 -3s136 1 167 3c0 -24 -1 -43 -6 -62
c-56 -8 -66 -19 -66 -103v-263c0 -120 37 -191 138 -191c31 0 71 11 95 40c23 29 35 71 35 175v211c0 98 -14 123 -68 131c-4 23 -5 42 -5 62c25 -2 74 -3 104 -3c35 0 76 1 101 3c0 -20 -1 -40 -6 -62c-50 -7 -62 -32 -62 -126z" />
    <glyph glyph-name="umacron" unicode="&#x16b;" horiz-adv-x="609" 
d="M122 631h367c0 -14 -3 -34 -9 -51c-73 0 -214 -1 -367 -7c0 14 3 42 9 58zM587 88c3 -22 1 -45 -8 -64c-50 -2 -106 -13 -151 -33c-22 9 -32 22 -32 57c0 13 2 30 5 47c-9 -22 -21 -41 -35 -54c-30 -28 -75 -47 -135 -47c-97 0 -152 47 -152 184v116c0 57 -6 77 -64 81
c0 21 2 42 11 59c73 1 139 17 170 33c18 -7 29 -23 29 -55v-210c0 -90 17 -123 61 -123c52 0 97 50 97 159v61c0 57 -10 78 -73 81c0 21 1 42 11 59c78 1 148 13 179 28c18 -7 29 -23 29 -55v-243c0 -64 7 -80 58 -81z" />
    <glyph glyph-name="Ubreve" unicode="&#x16c;" horiz-adv-x="687" 
d="M570 920c0 -117 -67 -181 -190 -181c-122 0 -188 62 -188 176c22 10 51 14 77 12c9 -57 55 -91 123 -91c67 0 110 34 113 91c25 3 49 0 65 -7zM584 491v-218c0 -115 -12 -181 -58 -227c-40 -38 -98 -55 -171 -55c-194 0 -256 78 -256 244v279c0 83 -11 95 -63 103
c-4 17 -6 40 -6 62c27 -2 79 -3 127 -3s136 1 167 3c0 -24 -1 -43 -6 -62c-56 -8 -66 -19 -66 -103v-263c0 -120 37 -191 138 -191c31 0 71 11 95 40c23 29 35 71 35 175v211c0 98 -14 123 -68 131c-4 23 -5 42 -5 62c25 -2 74 -3 104 -3c35 0 76 1 101 3
c0 -20 -1 -40 -6 -62c-50 -7 -62 -32 -62 -126z" />
    <glyph glyph-name="ubreve" unicode="&#x16d;" horiz-adv-x="609" 
d="M296 521c-122 0 -188 62 -188 176c22 10 51 14 77 12c9 -57 55 -91 123 -91c67 0 110 34 113 91c25 3 49 0 65 -7c0 -117 -67 -181 -190 -181zM587 88c3 -22 1 -45 -8 -64c-50 -2 -106 -13 -151 -33c-22 9 -32 22 -32 57c0 13 2 30 5 47c-9 -22 -21 -41 -35 -54
c-30 -28 -75 -47 -135 -47c-97 0 -152 47 -152 184v116c0 57 -6 77 -64 81c0 21 2 42 11 59c73 1 139 17 170 33c18 -7 29 -23 29 -55v-210c0 -90 17 -123 61 -123c52 0 97 50 97 159v61c0 57 -10 78 -73 81c0 21 1 42 11 59c78 1 148 13 179 28c18 -7 29 -23 29 -55v-243
c0 -64 7 -80 58 -81z" />
    <glyph glyph-name="Uring" unicode="&#x16e;" horiz-adv-x="687" 
d="M389 938c63 0 117 -30 117 -96c0 -60 -52 -104 -126 -104c-64 0 -116 37 -116 97c0 61 54 103 125 103zM389 788c19 0 36 17 36 45c0 26 -13 59 -43 59c-22 0 -36 -19 -36 -52c0 -29 16 -52 43 -52zM584 491v-218c0 -115 -12 -181 -58 -227c-40 -38 -98 -55 -171 -55
c-194 0 -256 78 -256 244v279c0 83 -11 95 -63 103c-4 17 -6 40 -6 62c27 -2 79 -3 127 -3s136 1 167 3c0 -24 -1 -43 -6 -62c-56 -8 -66 -19 -66 -103v-263c0 -120 37 -191 138 -191c31 0 71 11 95 40c23 29 35 71 35 175v211c0 98 -14 123 -68 131c-4 23 -5 42 -5 62
c25 -2 74 -3 104 -3c35 0 76 1 101 3c0 -20 -1 -40 -6 -62c-50 -7 -62 -32 -62 -126z" />
    <glyph glyph-name="uring" unicode="&#x16f;" horiz-adv-x="609" 
d="M295 520c-64 0 -116 37 -116 97c0 61 54 103 125 103c63 0 117 -30 117 -96c0 -60 -52 -104 -126 -104zM297 674c-22 0 -36 -19 -36 -52c0 -29 16 -52 43 -52c19 0 36 17 36 45c0 26 -13 59 -43 59zM587 88c3 -22 1 -45 -8 -64c-50 -2 -106 -13 -151 -33
c-22 9 -32 22 -32 57c0 13 2 30 5 47c-9 -22 -21 -41 -35 -54c-30 -28 -75 -47 -135 -47c-97 0 -152 47 -152 184v116c0 57 -6 77 -64 81c0 21 2 42 11 59c73 1 139 17 170 33c18 -7 29 -23 29 -55v-210c0 -90 17 -123 61 -123c52 0 97 50 97 159v61c0 57 -10 78 -73 81
c0 21 1 42 11 59c78 1 148 13 179 28c18 -7 29 -23 29 -55v-243c0 -64 7 -80 58 -81z" />
    <glyph glyph-name="Uhungarumlaut" unicode="&#x170;" horiz-adv-x="687" 
d="M304 925c28 10 60 13 90 13c18 -1 35 -2 48 -5c-48 -58 -95 -124 -131 -185c-25 0 -54 6 -69 14c30 62 49 111 62 163zM487 925c28 10 60 13 90 13c18 -1 35 -2 48 -5c-48 -58 -95 -124 -131 -185c-25 0 -54 6 -69 14c30 62 49 111 62 163zM584 491v-218
c0 -115 -12 -181 -58 -227c-40 -38 -98 -55 -171 -55c-194 0 -256 78 -256 244v279c0 83 -11 95 -63 103c-4 17 -6 40 -6 62c27 -2 79 -3 127 -3s136 1 167 3c0 -24 -1 -43 -6 -62c-56 -8 -66 -19 -66 -103v-263c0 -120 37 -191 138 -191c31 0 71 11 95 40
c23 29 35 71 35 175v211c0 98 -14 123 -68 131c-4 23 -5 42 -5 62c25 -2 74 -3 104 -3c35 0 76 1 101 3c0 -20 -1 -40 -6 -62c-50 -7 -62 -32 -62 -126z" />
    <glyph glyph-name="uhungarumlaut" unicode="&#x171;" horiz-adv-x="609" 
d="M358 715c-48 -58 -95 -124 -131 -185c-25 0 -54 6 -69 14c30 62 49 111 62 163c28 10 60 13 90 13c18 -1 35 -2 48 -5zM410 530c-25 0 -54 6 -69 14c30 62 49 111 62 163c28 10 60 13 90 13c18 -1 35 -2 48 -5c-48 -58 -95 -124 -131 -185zM587 88c3 -22 1 -45 -8 -64
c-50 -2 -106 -13 -151 -33c-22 9 -32 22 -32 57c0 13 2 30 5 47c-9 -22 -21 -41 -35 -54c-30 -28 -75 -47 -135 -47c-97 0 -152 47 -152 184v116c0 57 -6 77 -64 81c0 21 2 42 11 59c73 1 139 17 170 33c18 -7 29 -23 29 -55v-210c0 -90 17 -123 61 -123c52 0 97 50 97 159
v61c0 57 -10 78 -73 81c0 21 1 42 11 59c78 1 148 13 179 28c18 -7 29 -23 29 -55v-243c0 -64 7 -80 58 -81z" />
    <glyph glyph-name="Uogonek" unicode="&#x172;" horiz-adv-x="682" 
d="M551 676c35 0 76 1 101 3c0 -20 -1 -40 -6 -62c-50 -7 -62 -32 -62 -126v-218c0 -115 -12 -181 -58 -227c-8 -8 -17 -15 -27 -21c-56 -36 -83 -72 -83 -111c0 -41 28 -57 70 -57c13 0 26 1 38 5c9 -12 15 -44 13 -65c-39 -10 -78 -25 -108 -45c-8 -1 -13 -1 -21 -1
c-50 0 -117 32 -117 117c0 43 17 83 92 124c-9 -1 -18 -1 -28 -1c-194 0 -256 78 -256 244v279c0 83 -11 95 -63 103c-4 17 -6 40 -6 62c27 -2 79 -3 127 -3s136 1 167 3c0 -24 -1 -43 -6 -62c-56 -8 -66 -19 -66 -103v-263c0 -120 37 -191 138 -191c31 0 71 11 95 40
c23 29 35 71 35 175v211c0 98 -14 123 -68 131c-4 23 -5 42 -5 62c25 -2 74 -3 104 -3z" />
    <glyph glyph-name="uogonek" unicode="&#x173;" horiz-adv-x="609" 
d="M532 -143c13 0 26 1 38 5c9 -12 15 -44 12 -65c-38 -10 -77 -25 -107 -45c-8 -1 -13 -1 -21 -1c-51 0 -117 31 -117 115c0 39 15 85 89 126c-21 9 -30 22 -30 56c0 13 2 30 5 47c-9 -22 -21 -41 -35 -54c-30 -28 -75 -47 -135 -47c-97 0 -152 47 -152 184v116
c0 57 -6 77 -64 81c0 21 2 42 11 59c73 1 139 17 170 33c18 -7 29 -23 29 -55v-210c0 -90 17 -123 61 -123c52 0 97 50 97 159v61c0 57 -10 78 -73 81c0 21 1 42 11 59c78 1 148 13 179 28c18 -7 29 -23 29 -55v-243c0 -64 7 -80 58 -81c3 -22 1 -45 -8 -64
c-83 -20 -117 -70 -117 -113c0 -40 29 -54 70 -54z" />
    <glyph glyph-name="Wcircumflex" unicode="&#x174;" horiz-adv-x="993" 
d="M394 734c-22 8 -35 32 -39 48c54 38 118 93 163 143c18 6 42 10 62 10c39 -49 91 -105 154 -162c-14 -17 -34 -31 -63 -36c-40 28 -93 65 -137 88c-34 -18 -107 -66 -140 -91zM874 676c31 0 75 1 102 3c0 -21 -1 -42 -8 -62c-35 -11 -52 -37 -83 -144l-137 -474
c-16 -5 -52 -8 -78 -8c-57 155 -114 301 -177 456l-150 -449c-20 -6 -57 -7 -77 -7c-56 178 -113 352 -164 500c-39 113 -45 120 -79 124c-6 19 -6 42 -6 64c32 -2 112 -3 143 -3s107 0 150 3c0 -20 -2 -42 -7 -62c-65 -7 -74 -22 -42 -111c28 -81 60 -176 91 -275l152 446
c18 6 43 7 66 7c63 -155 122 -307 179 -462l73 252c30 101 15 133 -50 143c-7 18 -8 43 -8 62c28 -2 74 -3 110 -3z" />
    <glyph glyph-name="wcircumflex" unicode="&#x175;" horiz-adv-x="787" 
d="M291 516c-22 8 -35 32 -39 48c54 38 118 93 163 143c18 6 42 10 62 10c39 -49 91 -105 154 -162c-14 -17 -34 -31 -63 -36c-40 28 -93 65 -137 88c-34 -18 -107 -66 -140 -91zM680 458c39 0 68 1 95 3c0 -20 -4 -46 -11 -62c-30 -7 -43 -24 -65 -92l-99 -316
c-23 0 -66 1 -83 9c-44 97 -83 181 -114 268l-115 -277c-25 0 -66 1 -83 9c-39 113 -88 247 -125 340c-15 38 -30 53 -58 58c-6 16 -10 41 -10 63c40 -2 79 -3 125 -3c49 0 100 1 143 3c0 -22 -4 -47 -9 -62c-46 -5 -47 -16 -30 -67c17 -50 37 -107 52 -169l115 300
c21 0 47 -1 64 -7c42 -90 84 -195 123 -296l39 141c20 70 5 91 -37 98c-7 19 -10 40 -10 62c26 -2 57 -3 93 -3z" />
    <glyph glyph-name="Ycircumflex" unicode="&#x176;" horiz-adv-x="632" 
d="M220 734c-22 8 -35 32 -39 48c54 38 118 93 163 143c18 6 42 10 62 10c39 -49 91 -105 154 -162c-14 -17 -34 -31 -63 -36c-40 28 -93 65 -137 88c-34 -18 -107 -66 -140 -91zM526 676c30 0 62 0 90 2c0 -25 -3 -43 -7 -60c-30 -7 -53 -29 -84 -95l-128 -272v-69
c0 -102 12 -115 89 -123c7 -20 9 -37 9 -62c-52 2 -118 3 -176 3c-61 0 -132 -2 -178 -3c0 23 2 45 9 62c85 7 94 18 94 118v77l-151 304c-21 42 -41 56 -69 59c-6 19 -7 36 -7 61c39 -2 101 -2 139 -2s117 0 153 2c0 -26 -2 -42 -6 -60c-46 -6 -47 -31 -23 -83
c25 -53 59 -129 91 -208c34 81 65 150 90 205c27 56 16 80 -28 85c-5 18 -8 35 -8 61c31 -2 65 -2 101 -2z" />
    <glyph glyph-name="ycircumflex" unicode="&#x177;" horiz-adv-x="562" 
d="M185 516c-22 8 -35 32 -39 48c54 38 118 93 163 143c18 6 42 10 62 10c39 -49 91 -105 154 -162c-14 -17 -34 -31 -63 -36c-40 28 -93 65 -137 88c-34 -18 -107 -66 -140 -91zM453 458c34 0 67 1 97 3c0 -19 -2 -44 -10 -63c-34 -8 -47 -25 -73 -85l-147 -350
c-76 -182 -119 -212 -185 -212c-43 0 -80 19 -97 40c-4 24 -1 66 8 93c23 -7 56 -14 93 -14c43 0 70 13 94 51c5 7 13 23 23 45c-48 114 -110 250 -155 342c-35 73 -52 84 -81 90c-5 17 -8 42 -8 63c38 -2 89 -3 135 -3c49 0 114 1 155 3c0 -22 -4 -49 -10 -63
c-59 -10 -64 -27 -32 -91c22 -46 49 -107 71 -166l62 157c29 73 16 92 -31 100c-6 16 -9 40 -9 63c31 -2 66 -3 100 -3z" />
    <glyph glyph-name="Ydieresis" unicode="&#x178;" horiz-adv-x="632" 
d="M251 736c-47 0 -79 29 -79 67c0 39 23 75 77 75c55 0 79 -32 79 -73c0 -40 -33 -69 -77 -69zM481 736c-54 0 -82 31 -82 75c0 42 32 67 78 67s79 -29 79 -67c0 -39 -20 -75 -75 -75zM526 676c30 0 62 0 90 2c0 -25 -3 -43 -7 -60c-30 -7 -53 -29 -84 -95l-128 -272v-69
c0 -102 12 -115 89 -123c7 -20 9 -37 9 -62c-52 2 -118 3 -176 3c-61 0 -132 -2 -178 -3c0 23 2 45 9 62c85 7 94 18 94 118v77l-151 304c-21 42 -41 56 -69 59c-6 19 -7 36 -7 61c39 -2 101 -2 139 -2s117 0 153 2c0 -26 -2 -42 -6 -60c-46 -6 -47 -31 -23 -83
c25 -53 59 -129 91 -208c34 81 65 150 90 205c27 56 16 80 -28 85c-5 18 -8 35 -8 61c31 -2 65 -2 101 -2z" />
    <glyph glyph-name="Zacute" unicode="&#x179;" horiz-adv-x="606" 
d="M470 933c-48 -58 -95 -124 -131 -185c-25 0 -54 6 -69 14c30 62 49 111 62 163c28 10 60 13 90 13c18 -1 35 -2 48 -5zM478 193c33 -3 62 -10 83 -24c-11 -44 -22 -119 -23 -172c-87 3 -177 3 -260 3c-84 0 -169 -1 -221 -3c-9 14 -15 32 -15 54c119 202 219 369 323 566
h-93c-73 0 -103 -24 -127 -138c-31 0 -65 3 -84 12c15 55 22 130 22 187c46 -2 173 -2 239 -2s143 0 208 2c10 -14 16 -32 17 -54c-106 -203 -201 -372 -318 -564h88c103 0 135 22 161 133z" />
    <glyph glyph-name="zacute" unicode="&#x17a;" horiz-adv-x="510" 
d="M415 715c-48 -58 -95 -124 -131 -185c-25 0 -54 6 -69 14c30 62 49 111 62 163c28 10 60 13 90 13c18 -1 35 -2 48 -5zM471 167c0 -43 2 -111 8 -147c-6 -15 -20 -22 -40 -22c-48 0 -121 2 -191 2c-88 0 -148 -1 -184 -2c-11 14 -19 37 -19 59c69 94 176 248 233 340h-50
c-63 0 -80 -19 -97 -101c-28 -1 -61 2 -82 12c7 45 10 102 10 153c41 -2 117 -3 199 -3c84 0 146 1 188 3c9 -13 15 -35 15 -54c-62 -100 -157 -241 -232 -345h77c66 0 81 24 87 113c27 2 52 -1 78 -8z" />
    <glyph glyph-name="Zdotaccent" unicode="&#x17b;" horiz-adv-x="606" 
d="M310 739c-50 0 -83 29 -83 71c0 49 38 76 87 76c55 0 86 -27 86 -75c0 -41 -35 -72 -90 -72zM478 193c33 -3 62 -10 83 -24c-11 -44 -22 -119 -23 -172c-87 3 -177 3 -260 3c-84 0 -169 -1 -221 -3c-9 14 -15 32 -15 54c119 202 219 369 323 566h-93
c-73 0 -103 -24 -127 -138c-31 0 -65 3 -84 12c15 55 22 130 22 187c46 -2 173 -2 239 -2s143 0 208 2c10 -14 16 -32 17 -54c-106 -203 -201 -372 -318 -564h88c103 0 135 22 161 133z" />
    <glyph glyph-name="zdotaccent" unicode="&#x17c;" horiz-adv-x="510" 
d="M255 521c-50 0 -83 29 -83 71c0 49 38 76 87 76c55 0 86 -27 86 -75c0 -41 -35 -72 -90 -72zM471 167c0 -43 2 -111 8 -147c-6 -15 -20 -22 -40 -22c-48 0 -121 2 -191 2c-88 0 -148 -1 -184 -2c-11 14 -19 37 -19 59c69 94 176 248 233 340h-50c-63 0 -80 -19 -97 -101
c-28 -1 -61 2 -82 12c7 45 10 102 10 153c41 -2 117 -3 199 -3c84 0 146 1 188 3c9 -13 15 -35 15 -54c-62 -100 -157 -241 -232 -345h77c66 0 81 24 87 113c27 2 52 -1 78 -8z" />
    <glyph glyph-name="Zcaron" unicode="&#x17d;" horiz-adv-x="606" 
d="M280 734c-43 51 -95 106 -147 153c7 20 23 34 49 44c41 -29 92 -64 138 -85c37 18 106 63 132 85c24 -5 42 -24 49 -42c-54 -42 -115 -97 -157 -147c-19 -6 -43 -8 -64 -8zM478 193c33 -3 62 -10 83 -24c-11 -44 -22 -119 -23 -172c-87 3 -177 3 -260 3
c-84 0 -169 -1 -221 -3c-9 14 -15 32 -15 54c119 202 219 369 323 566h-93c-73 0 -103 -24 -127 -138c-31 0 -65 3 -84 12c15 55 22 130 22 187c46 -2 173 -2 239 -2s143 0 208 2c10 -14 16 -32 17 -54c-106 -203 -201 -372 -318 -564h88c103 0 135 22 161 133z" />
    <glyph glyph-name="zcaron" unicode="&#x17e;" horiz-adv-x="510" 
d="M226 516c-43 51 -95 106 -147 153c7 20 23 34 49 44c41 -29 92 -64 138 -85c37 18 106 63 132 85c24 -5 42 -24 49 -42c-54 -42 -115 -97 -157 -147c-19 -6 -43 -8 -64 -8zM471 167c0 -43 2 -111 8 -147c-6 -15 -20 -22 -40 -22c-48 0 -121 2 -191 2
c-88 0 -148 -1 -184 -2c-11 14 -19 37 -19 59c69 94 176 248 233 340h-50c-63 0 -80 -19 -97 -101c-28 -1 -61 2 -82 12c7 45 10 102 10 153c41 -2 117 -3 199 -3c84 0 146 1 188 3c9 -13 15 -35 15 -54c-62 -100 -157 -241 -232 -345h77c66 0 81 24 87 113
c27 2 52 -1 78 -8z" />
    <glyph glyph-name="longs" unicode="&#x17f;" horiz-adv-x="376" 
d="M467 686c-6 -40 -7 -92 -5 -128c-21 -9 -63 -12 -91 -11c0 62 -21 102 -62 102c-40 0 -55 -34 -55 -134v-340c0 -87 25 -111 100 -116c6 -17 7 -40 7 -62c-35 2 -100 3 -156 3c-61 0 -134 -1 -171 -3c0 28 2 47 6 62c54 4 68 20 68 101v213c-30 8 -57 11 -77 11
c0 23 3 48 14 64h63v34c0 157 105 234 233 234c54 0 100 -14 126 -30z" />
    <glyph glyph-name="florin" unicode="&#x192;" horiz-adv-x="414" 
d="M398 714c55 0 99 -10 118 -21c-14 -36 -25 -98 -26 -136c-15 -7 -50 -11 -75 -11c-2 67 -10 106 -46 106c-41 0 -59 -44 -90 -204h95c0 -24 -2 -49 -8 -63c-37 0 -69 -4 -100 -11c-20 -109 -32 -195 -40 -245c-40 -247 -99 -377 -288 -377c-50 0 -95 10 -114 21
c13 36 25 98 26 136c14 7 50 11 75 11c1 -61 9 -106 44 -106c43 0 84 67 104 232c7 54 24 210 42 331c-28 7 -54 10 -76 10c0 22 4 46 13 61h75l1 6c34 176 103 260 270 260z" />
    <glyph glyph-name="Oslashacute" unicode="&#x1fe;" horiz-adv-x="752" 
d="M533 933c-48 -58 -95 -124 -131 -185c-25 0 -54 6 -69 14c30 62 49 111 62 163c28 10 60 13 90 13c18 -1 35 -2 48 -5zM697 680l-73 -93c56 -58 89 -141 89 -239c0 -207 -136 -357 -340 -357c-72 0 -135 17 -186 49l-55 -67c-32 0 -62 9 -77 22l75 90
c-61 62 -95 151 -95 256c0 209 144 344 338 344c74 0 139 -18 192 -51l51 66c31 0 63 -6 81 -20zM357 622c-98 0 -162 -97 -162 -256c0 -61 9 -120 27 -170l269 350c-33 47 -80 76 -134 76zM389 56c104 0 164 111 164 269c0 54 -8 104 -24 148l-269 -349
c31 -42 75 -68 129 -68z" />
    <glyph glyph-name="oslashacute" unicode="&#x1ff;" horiz-adv-x="574" 
d="M439 715c-48 -58 -95 -124 -131 -185c-25 0 -54 6 -69 14c30 62 49 111 62 163c28 10 60 13 90 13c18 -1 35 -2 48 -5zM522 458l-45 -58c42 -41 63 -99 63 -167c0 -148 -100 -242 -256 -242c-48 0 -89 8 -124 23l-41 -53c-33 0 -63 9 -77 22l56 71c-42 41 -64 99 -64 170
c0 154 110 243 255 243c49 0 91 -9 126 -24l30 39c31 -1 59 -9 77 -24zM276 406c-61 0 -91 -65 -91 -152c0 -32 3 -61 9 -86l154 198c-20 26 -45 40 -72 40zM298 55c60 0 92 66 92 155c0 29 -3 55 -8 78l-154 -197c18 -23 42 -36 70 -36z" />
    <glyph glyph-name="Scommaaccent" unicode="&#x218;" horiz-adv-x="543" 
d="M282 685c70 0 141 -18 176 -40c0 -50 2 -112 7 -147c-23 -11 -61 -15 -88 -15c-17 110 -53 138 -109 138c-55 0 -91 -27 -91 -77c0 -151 331 -119 331 -348c0 -117 -86 -205 -256 -205c-84 0 -143 22 -206 59c9 53 11 111 11 158c28 7 61 9 91 9c6 -112 36 -159 121 -159
c77 0 108 39 108 83c0 143 -318 111 -318 351c0 131 92 193 223 193zM314 -40c31 -10 45 -33 45 -76c0 -78 -47 -139 -111 -183c-23 0 -43 8 -54 23c37 31 55 62 55 86c0 23 -17 36 -53 40c-3 24 2 55 12 80c43 3 79 13 106 30z" />
    <glyph glyph-name="scommaaccent" unicode="&#x219;" horiz-adv-x="464" 
d="M395 329c-18 -11 -48 -18 -77 -18c-6 51 -36 95 -95 95c-31 0 -50 -17 -50 -42c0 -28 10 -45 109 -84c113 -45 148 -80 148 -147c0 -90 -82 -142 -211 -142c-83 0 -130 12 -181 35c5 37 4 92 1 124c19 11 52 17 80 17c7 -74 45 -111 98 -111c39 0 65 19 65 49
c0 31 -17 47 -96 78c-93 36 -144 68 -144 155c0 88 88 129 188 129c71 0 117 -10 162 -32c-2 -34 -2 -71 3 -106zM263 -40c31 -10 45 -33 45 -76c0 -78 -47 -139 -111 -183c-23 0 -43 8 -54 23c37 31 55 62 55 86c0 23 -17 36 -53 40c-3 24 2 55 12 80c43 3 79 13 106 30z
" />
    <glyph glyph-name="uni021A" unicode="&#x21a;" horiz-adv-x="659" 
d="M618 679c-1 -52 5 -115 16 -177c-21 -9 -48 -13 -80 -13c-11 86 -41 128 -113 128h-35v-457c0 -81 15 -97 89 -101c6 -14 8 -40 8 -62c-39 2 -100 3 -166 3s-146 -1 -187 -3c0 21 4 47 9 62c75 4 94 20 94 101v457h-23c-84 0 -108 -45 -126 -128c-28 0 -58 2 -79 13
c12 55 21 125 21 177c72 -3 152 -3 287 -3c125 0 214 1 285 3zM362 -40c31 -10 45 -33 45 -76c0 -78 -47 -139 -111 -183c-23 0 -43 8 -54 23c37 31 55 62 55 86c0 23 -17 36 -53 40c-3 24 2 55 12 80c43 3 79 13 106 30z" />
    <glyph glyph-name="uni021B" unicode="&#x21b;" horiz-adv-x="378" 
d="M85 448v123c45 6 94 26 121 49c20 -8 25 -18 25 -62v-110h123c0 -25 -4 -45 -10 -64c-44 -1 -81 -6 -113 -16v-202c0 -81 16 -103 52 -103c21 0 43 6 61 17c8 -11 14 -30 15 -50c-26 -22 -81 -39 -133 -39c-94 0 -141 44 -141 159v222c-20 8 -41 12 -73 13
c0 24 2 42 11 63h62zM255 -40c31 -10 45 -33 45 -76c0 -78 -47 -139 -111 -183c-23 0 -43 8 -54 23c37 31 55 62 55 86c0 23 -17 36 -53 40c-3 24 2 55 12 80c43 3 79 13 106 30z" />
    <glyph glyph-name="dotlessj" unicode="&#x237;" horiz-adv-x="312" 
d="M105 32v273c0 46 -10 67 -74 70c0 21 2 42 11 59c69 0 151 17 180 33c17 -7 29 -23 29 -53v-358c0 -157 -116 -262 -201 -305c-18 9 -33 30 -36 54c71 77 91 129 91 227z" />
    <glyph glyph-name="uni02BC" unicode="&#x2bc;" horiz-adv-x="291" 
d="M231 634c0 -82 -46 -168 -110 -228c-24 1 -47 10 -59 22c43 48 66 92 66 125c0 27 -21 44 -60 49c0 31 2 58 12 91c43 4 79 14 106 31c31 -10 45 -33 45 -90z" />
    <glyph glyph-name="circumflex" unicode="&#x2c6;" horiz-adv-x="540" 
d="M231 707c18 6 42 10 62 10c39 -49 91 -105 154 -162c-14 -17 -34 -31 -63 -36c-40 28 -93 65 -137 88c-34 -18 -107 -66 -140 -91c-22 8 -35 32 -39 48c54 38 118 93 163 143z" />
    <glyph glyph-name="caron" unicode="&#x2c7;" horiz-adv-x="600" 
d="M400 713c24 -5 42 -24 49 -42c-54 -42 -115 -97 -157 -147c-19 -6 -43 -8 -64 -8c-43 51 -95 106 -147 153c7 20 23 34 49 44c41 -29 92 -64 138 -85c37 18 106 63 132 85z" />
    <glyph glyph-name="firsttonechinese" unicode="&#x2c9;" horiz-adv-x="495" 
d="M69 631h366c0 -14 -2 -34 -9 -51c-72 0 -213 -1 -366 -7c0 14 2 42 9 58z" />
    <glyph glyph-name="breve" unicode="&#x2d8;" horiz-adv-x="526" 
d="M432 702c0 -117 -67 -181 -190 -181c-122 0 -188 62 -188 176c22 10 51 14 77 12c9 -57 55 -91 123 -91c67 0 110 34 113 91c25 3 49 0 65 -7z" />
    <glyph glyph-name="dotaccent" unicode="&#x2d9;" horiz-adv-x="310" 
d="M171 668c55 0 86 -27 86 -75c0 -41 -35 -72 -90 -72c-50 0 -83 29 -83 71c0 49 38 76 87 76z" />
    <glyph glyph-name="ring" unicode="&#x2da;" horiz-adv-x="540" 
d="M311 720c63 0 117 -30 117 -96c0 -60 -52 -104 -126 -104c-64 0 -116 37 -116 97c0 61 54 103 125 103zM311 570c19 0 36 17 36 45c0 26 -13 59 -43 59c-22 0 -36 -19 -36 -52c0 -29 16 -52 43 -52z" />
    <glyph glyph-name="ogonek" unicode="&#x2db;" horiz-adv-x="372" 
d="M207 45l79 -23c-66 -23 -100 -70 -100 -110c0 -42 28 -58 67 -58c17 0 29 1 41 5c9 -12 15 -44 13 -65c-39 -10 -78 -25 -108 -45c-8 -1 -13 -1 -21 -1c-51 0 -117 34 -117 114c0 60 28 121 146 183z" />
    <glyph glyph-name="tilde" unicode="&#x2dc;" horiz-adv-x="540" 
d="M71 551c52 87 99 109 138 109c57 0 96 -41 143 -41c29 0 53 11 73 32c14 -7 27 -18 33 -32c-39 -81 -76 -115 -125 -115c-58 0 -94 44 -148 44c-31 0 -60 -13 -90 -40c-15 11 -22 24 -24 43z" />
    <glyph glyph-name="hungarumlaut" unicode="&#x2dd;" horiz-adv-x="483" 
d="M113 707c27 10 60 13 89 13c18 -1 36 -2 49 -5c-49 -58 -95 -124 -131 -185c-25 0 -54 6 -70 14c31 62 50 111 63 163zM295 707c27 10 60 13 90 13c18 -1 35 -2 48 -5c-48 -58 -95 -124 -131 -185c-25 0 -54 6 -70 14c31 62 50 111 63 163z" />
    <glyph glyph-name="uni0326" unicode="&#x326;" horiz-adv-x="0" 
d="M186 -40c31 -10 45 -33 45 -76c0 -78 -47 -139 -111 -183c-23 0 -43 8 -54 23c37 31 55 62 55 86c0 23 -17 36 -53 40c-3 24 2 55 12 80c43 3 79 13 106 30z" />
    <glyph glyph-name="pi" unicode="&#x3c0;" horiz-adv-x="615" 
d="M488 329h-22c-3 -43 -5 -91 -5 -130c2 -91 20 -112 51 -112c15 0 31 4 45 10c9 -17 14 -37 13 -57c-25 -29 -61 -49 -108 -49c-66 0 -94 38 -94 126c0 59 13 135 36 214c-54 3 -104 8 -146 10c-1 -226 -20 -321 -43 -341c-46 0 -82 -2 -112 -9c-10 15 -15 43 -13 66
c76 61 100 199 102 285c-47 0 -65 -5 -108 -43c-23 2 -44 17 -53 35c58 103 124 130 215 130c60 0 153 -6 205 -6c43 0 54 10 67 57c24 -2 52 -8 68 -16c-8 -49 -11 -102 -10 -138c-6 -20 -20 -32 -88 -32z" />
    <glyph glyph-name="uni0401" unicode="&#x401;" 
d="M190 736c-47 0 -79 29 -79 67c0 39 23 75 77 75c55 0 79 -32 79 -73c0 -40 -33 -69 -77 -69zM420 736c-54 0 -82 31 -82 75c0 42 32 67 78 67s79 -29 79 -67c0 -39 -20 -75 -75 -75zM523 193c34 -5 62 -15 76 -29c-15 -46 -25 -109 -31 -166c-50 1 -151 2 -240 2
c-71 0 -239 -2 -286 -3c0 24 2 47 6 62c54 4 68 20 68 106v352c0 80 -14 94 -68 100c-5 16 -6 43 -6 62c52 -2 167 -3 225 -3c150 0 228 1 275 3c2 -48 9 -124 21 -169c-20 -10 -43 -15 -76 -15c-10 67 -38 122 -150 122h-69v-248h29c73 0 93 17 94 75c21 7 46 10 71 10
c-2 -33 -4 -70 -4 -114c0 -46 2 -86 4 -117c-29 0 -49 1 -69 8c-5 61 -27 77 -96 77h-29v-140c0 -84 18 -106 84 -106h12c102 0 132 41 159 131z" />
    <glyph glyph-name="uni0406" unicode="&#x406;" horiz-adv-x="384" 
d="M116 160v357c0 80 -13 94 -67 100c-5 16 -7 40 -7 62c34 -2 107 -3 153 -3s107 1 147 3c0 -23 0 -43 -7 -62c-54 -5 -67 -20 -67 -100v-357c0 -81 14 -97 68 -101c4 -14 6 -40 6 -62c-34 2 -86 3 -142 3c-55 0 -117 -1 -158 -3c0 21 3 47 7 62c54 4 67 20 67 101z" />
    <glyph glyph-name="uni0410" unicode="&#x410;" horiz-adv-x="711" 
d="M687 59c5 -17 8 -37 8 -62c-32 2 -106 3 -138 3s-118 -1 -148 -3c0 28 2 46 7 62c49 9 56 25 33 77l-23 54c-79 0 -165 -2 -244 -7l-13 -33c-20 -51 -11 -85 38 -91c5 -17 7 -37 7 -62c-23 2 -74 3 -107 3s-71 -1 -90 -3c0 22 2 43 8 62c34 6 48 26 80 104l210 514
c20 5 35 5 60 5l229 -513c41 -91 54 -106 83 -110zM401 246l-54 126c-21 47 -36 88 -47 128c-13 -42 -27 -83 -44 -127l-50 -127h195z" />
    <glyph glyph-name="uni0411" unicode="&#x411;" horiz-adv-x="677" 
d="M342 388c188 0 290 -55 290 -192c0 -114 -78 -196 -282 -196c-99 0 -229 -1 -308 -3c0 24 2 47 6 62c54 4 68 20 68 106v352c0 80 -12 94 -67 100c-4 16 -7 37 -7 62c47 -2 142 -3 225 -3c148 0 225 1 271 3c3 -48 10 -124 21 -169c-19 -10 -42 -15 -76 -15
c-9 67 -37 122 -149 122h-65v-233c22 3 42 4 73 4zM349 60c70 0 113 46 113 122c0 108 -73 140 -140 140c-10 0 -33 -1 -53 -3v-159c0 -86 26 -100 80 -100z" />
    <glyph glyph-name="uni0412" unicode="&#x412;" horiz-adv-x="677" 
d="M436 369c126 -7 196 -62 196 -174c0 -113 -78 -195 -282 -195c-99 0 -229 -1 -308 -3c0 24 2 47 6 62c54 4 68 20 68 106v352c0 80 -13 94 -68 100c-4 16 -6 43 -6 62c26 -2 71 -3 106 -3c51 0 138 2 191 2c171 0 250 -43 250 -151c0 -81 -56 -144 -153 -158zM433 499
c0 82 -59 118 -120 118c-17 0 -30 -3 -44 -8v-226h34c93 0 130 48 130 116zM349 60c70 0 113 45 113 123c0 107 -77 134 -169 134h-24v-157c0 -86 26 -100 80 -100z" />
    <glyph glyph-name="uni0413" unicode="&#x413;" horiz-adv-x="579" 
d="M533 679c2 -48 9 -124 21 -169c-20 -10 -43 -15 -76 -15c-10 67 -38 122 -150 122h-60v-442c0 -87 26 -111 101 -116c6 -17 7 -40 7 -62c-35 2 -106 3 -162 3c-61 0 -135 -1 -172 -3c0 28 1 47 6 62c53 4 68 20 68 101v357c0 80 -13 94 -67 100c-5 16 -7 36 -7 62
c53 -2 165 -3 224 -3c144 0 220 1 267 3z" />
    <glyph glyph-name="uni0414" unicode="&#x414;" horiz-adv-x="710" 
d="M668 2c-7 -39 -12 -90 -11 -148c-24 -9 -60 -9 -87 0c1 46 -3 97 -11 146h-434c-8 -49 -12 -100 -12 -146c-27 -9 -63 -9 -86 0c0 58 -4 109 -12 148c0 22 6 42 18 57h20c53 13 79 45 94 81c25 53 47 160 53 376c3 81 -1 93 -81 101c-5 16 -7 40 -7 62
c48 -3 130 -3 264 -3c163 0 229 1 269 3c0 -23 0 -43 -7 -62c-54 -5 -67 -20 -67 -100v-358c0 -80 12 -94 67 -100h13c11 -15 17 -35 17 -57zM392 69c21 12 26 39 26 90v358c0 59 -3 80 -24 92c-16 8 -41 11 -55 11c-19 0 -38 -5 -50 -11c-20 -11 -22 -27 -26 -92
c-15 -244 -32 -385 -92 -458h130c58 0 78 3 91 10z" />
    <glyph glyph-name="uni0415" unicode="&#x415;" 
d="M523 193c34 -5 62 -15 76 -29c-15 -46 -25 -109 -31 -166c-50 1 -151 2 -240 2c-71 0 -239 -2 -286 -3c0 24 2 47 6 62c54 4 68 20 68 106v352c0 80 -14 94 -68 100c-5 16 -6 43 -6 62c52 -2 167 -3 225 -3c150 0 228 1 275 3c2 -48 9 -124 21 -169
c-20 -10 -43 -15 -76 -15c-10 67 -38 122 -150 122h-69v-248h29c73 0 93 17 94 75c21 7 46 10 71 10c-2 -33 -4 -70 -4 -114c0 -46 2 -86 4 -117c-29 0 -49 1 -69 8c-5 61 -27 77 -96 77h-29v-140c0 -84 18 -106 84 -106h12c102 0 132 41 159 131z" />
    <glyph glyph-name="uni0416" unicode="&#x416;" horiz-adv-x="1044" 
d="M834 278c81 -168 110 -213 194 -219c0 -10 -1 -42 -8 -59c-52 0 -120 -1 -177 -9c-52 41 -84 91 -140 221c-27 64 -54 109 -105 110v-162c0 -81 14 -97 68 -101c4 -14 6 -40 6 -62c-34 2 -86 3 -142 3s-117 -1 -159 -3c0 21 4 47 8 62c54 4 66 20 66 101v162
c-51 -1 -78 -46 -104 -110c-56 -130 -88 -180 -140 -221c-57 8 -125 9 -178 9c-6 17 -8 49 -8 59c84 6 114 51 195 219c34 72 66 95 127 101c-28 7 -44 26 -90 102c-43 73 -55 94 -80 94c-19 0 -27 -12 -36 -72c-27 -1 -58 2 -78 9c7 49 8 115 5 164c14 4 40 7 59 7
c81 0 96 -30 185 -177c59 -100 86 -122 143 -122v133c0 80 -12 94 -66 100c-5 16 -8 40 -8 62c35 -2 108 -3 154 -3c45 0 107 1 147 3c0 -23 0 -43 -7 -62c-54 -5 -67 -20 -67 -100v-133c58 0 84 22 144 122c88 147 104 177 185 177c19 0 44 -3 59 -7c-3 -49 -2 -115 5 -164
c-20 -7 -51 -10 -78 -9c-10 60 -18 72 -36 72c-25 0 -37 -21 -80 -94c-46 -76 -62 -95 -90 -102c60 -6 93 -29 127 -101z" />
    <glyph glyph-name="uni0417" unicode="&#x417;" horiz-adv-x="534" 
d="M317 372c109 -15 172 -76 172 -174c0 -131 -94 -207 -259 -207c-70 0 -133 15 -184 46c6 46 6 91 1 133c20 11 51 15 78 12c12 -88 28 -129 101 -129c70 0 110 47 110 130c0 87 -61 136 -169 136c-6 19 -4 44 5 60c93 7 144 56 144 140c0 66 -30 104 -82 104
c-57 0 -73 -33 -87 -129c-27 -3 -58 1 -78 12c5 42 5 87 -1 133c52 32 112 46 187 46c133 0 209 -57 209 -155c0 -88 -54 -144 -147 -158z" />
    <glyph glyph-name="uni0418" unicode="&#x418;" horiz-adv-x="780" 
d="M665 516v-357c0 -80 12 -94 66 -100c5 -16 8 -40 8 -62c-36 2 -110 3 -154 3s-110 -1 -147 -3c0 23 0 43 7 62c54 5 67 20 67 100v346l-263 -505c-102 0 -156 -1 -207 -3c0 21 3 47 7 62c54 4 67 20 67 101v357c0 80 -13 94 -67 100c-5 16 -7 40 -7 62
c36 -2 109 -3 153 -3s110 1 147 3c0 -23 0 -43 -7 -62c-54 -5 -67 -20 -67 -100v-343l263 502c101 0 157 1 208 3c0 -21 -4 -47 -8 -62c-54 -4 -66 -20 -66 -101z" />
    <glyph glyph-name="uni0419" unicode="&#x419;" horiz-adv-x="780" 
d="M383 739c-125 0 -202 59 -202 173c25 13 63 18 96 13c14 -87 50 -124 121 -124c68 0 100 37 106 124c32 5 71 1 95 -10c0 -116 -84 -176 -216 -176zM665 516v-357c0 -80 12 -94 66 -100c5 -16 8 -40 8 -62c-36 2 -110 3 -154 3s-110 -1 -147 -3c0 23 0 43 7 62
c54 5 67 20 67 100v346l-263 -505c-102 0 -156 -1 -207 -3c0 21 3 47 7 62c54 4 67 20 67 101v357c0 80 -13 94 -67 100c-5 16 -7 40 -7 62c36 -2 109 -3 153 -3s110 1 147 3c0 -23 0 -43 -7 -62c-54 -5 -67 -20 -67 -100v-343l263 502c101 0 157 1 208 3
c0 -21 -4 -47 -8 -62c-54 -4 -66 -20 -66 -101z" />
    <glyph glyph-name="uni041A" unicode="&#x41a;" horiz-adv-x="733" 
d="M513 278c84 -168 117 -213 205 -219c0 -10 -2 -42 -9 -59c-55 0 -125 -1 -184 -9c-55 41 -89 91 -146 221c-28 65 -57 110 -111 110v-162c0 -81 14 -97 68 -101c4 -14 6 -40 6 -62c-34 2 -86 3 -142 3c-55 0 -117 -1 -158 -3c0 21 3 47 7 62c54 4 67 20 67 101v357
c0 80 -13 94 -67 100c-5 16 -7 40 -7 62c34 -2 107 -3 153 -3s107 1 147 3c0 -23 0 -43 -7 -62c-54 -5 -67 -20 -67 -100v-133c61 0 88 21 151 122c93 147 108 177 193 177c19 0 46 -3 61 -7c-3 -49 -2 -115 5 -164c-21 -6 -48 -11 -78 -9c-9 60 -21 72 -41 72
c-25 0 -40 -21 -85 -94c-47 -76 -62 -95 -91 -102c63 -6 94 -29 130 -101z" />
    <glyph glyph-name="uni041B" unicode="&#x41b;" horiz-adv-x="746" 
d="M705 679c0 -23 -1 -43 -8 -62c-54 -5 -66 -20 -66 -100v-357c0 -81 13 -97 67 -101c4 -14 7 -40 7 -62c-35 2 -87 3 -143 3c-55 0 -117 -1 -158 -3c0 21 3 47 7 62c54 4 67 20 67 101v357c0 59 -4 80 -25 92c-16 8 -41 11 -54 11c-20 0 -39 -5 -51 -11
c-20 -11 -21 -27 -26 -92c-15 -251 -33 -395 -93 -468c-38 -47 -84 -58 -115 -58c-43 0 -80 20 -97 40c-4 24 -1 66 8 93c23 -7 56 -14 91 -14c52 0 77 14 95 57c20 43 42 130 49 349c2 81 -1 93 -82 101c-4 16 -7 40 -7 62c49 -3 131 -3 263 -3c165 0 231 1 271 3z" />
    <glyph glyph-name="uni041C" unicode="&#x41c;" horiz-adv-x="968" 
d="M941 60c5 -19 6 -40 6 -63c-28 2 -118 3 -162 3c-43 0 -111 -2 -139 -3c0 24 3 43 7 62c63 7 69 24 59 121l-32 306l-196 -487c-15 -6 -39 -8 -60 -8l-221 493l-27 -269c-13 -125 5 -151 62 -156c5 -19 6 -42 6 -62c-25 2 -72 3 -108 3c-37 0 -92 -2 -115 -3
c0 20 2 43 7 62c52 4 72 32 84 158l26 293c8 85 -8 107 -64 107c-6 19 -7 39 -7 62c26 -2 83 -3 112 -3s86 1 109 3l212 -486l183 486c30 -2 86 -3 115 -3s80 1 109 3c0 -22 -2 -45 -7 -62c-55 0 -74 -25 -66 -110l32 -315c11 -110 24 -126 75 -132z" />
    <glyph glyph-name="uni041D" unicode="&#x41d;" horiz-adv-x="780" 
d="M665 517v-357c0 -81 13 -97 67 -101c5 -14 7 -40 7 -62c-35 2 -87 3 -142 3c-56 0 -118 -1 -159 -3c0 21 3 47 8 62c53 4 66 20 66 101v159c-74 0 -170 -1 -244 -5v-154c0 -81 14 -97 68 -101c4 -14 6 -40 6 -62c-34 2 -86 3 -142 3c-55 0 -117 -1 -158 -3
c0 21 3 47 7 62c54 4 67 20 67 101v357c0 80 -13 94 -67 100c-5 16 -7 40 -7 62c34 -2 107 -3 153 -3s107 1 147 3c0 -23 0 -43 -7 -62c-54 -5 -67 -20 -67 -100v-138h244v138c0 80 -12 94 -67 100c-5 16 -7 40 -7 62c35 -2 107 -3 153 -3s108 1 148 3c0 -23 -1 -43 -8 -62
c-54 -5 -66 -20 -66 -100z" />
    <glyph glyph-name="uni041E" unicode="&#x41e;" horiz-adv-x="748" 
d="M373 685c201 0 340 -134 340 -337c0 -207 -136 -357 -340 -357c-208 0 -338 145 -338 350c0 209 144 344 338 344zM389 56c104 0 164 111 164 269c0 165 -79 297 -196 297c-98 0 -162 -97 -162 -256c0 -164 64 -310 194 -310z" />
    <glyph glyph-name="uni041F" unicode="&#x41f;" horiz-adv-x="771" 
d="M655 517v-357c0 -81 14 -97 68 -101c4 -14 6 -40 6 -62c-34 2 -86 3 -142 3c-55 0 -117 -1 -159 -3c0 21 4 47 8 62c54 4 66 20 66 101v357c0 51 -5 78 -26 90c-12 7 -33 10 -91 10c-57 0 -78 -3 -90 -10c-22 -12 -27 -39 -27 -90v-357c0 -81 14 -97 68 -101
c4 -14 6 -40 6 -62c-34 2 -86 3 -142 3c-55 0 -117 -1 -158 -3c0 21 3 47 7 62c54 4 67 20 67 101v357c0 80 -13 94 -67 100c-5 16 -7 40 -7 62c34 -2 107 -3 271 -3h151c163 0 225 1 265 3c0 -23 0 -43 -7 -62c-54 -5 -67 -20 -67 -100z" />
    <glyph glyph-name="uni0420" unicode="&#x420;" horiz-adv-x="635" 
d="M340 297c55 0 109 34 109 151c0 97 -41 167 -134 167c-15 0 -28 -2 -46 -7v-433c0 -87 25 -111 100 -116c6 -17 7 -40 7 -62c-35 2 -105 3 -161 3c-61 0 -136 -1 -173 -3c0 28 2 47 6 62c54 4 68 20 68 101v357c0 80 -12 94 -67 100c-4 16 -7 36 -7 62
c58 -2 110 -3 157 -3c45 0 113 2 177 2c165 0 224 -96 224 -207c0 -128 -85 -239 -232 -239c-29 0 -52 3 -70 10c-4 23 -2 42 6 59c12 -3 24 -4 36 -4z" />
    <glyph glyph-name="uni0421" unicode="&#x421;" horiz-adv-x="642" 
d="M595 633c-8 -46 -11 -100 -11 -155c-17 -9 -52 -12 -78 -12c-3 121 -51 158 -126 158c-135 0 -184 -124 -184 -256c0 -168 74 -298 223 -298c53 0 113 18 167 50c11 -10 20 -29 23 -44c-62 -51 -137 -85 -242 -85c-197 0 -332 143 -332 351c0 228 164 343 340 343
c77 0 149 -18 220 -52z" />
    <glyph glyph-name="uni0422" unicode="&#x422;" horiz-adv-x="659" 
d="M618 679c-1 -52 5 -115 16 -177c-21 -9 -48 -13 -80 -13c-11 86 -41 128 -113 128h-35v-457c0 -81 15 -97 89 -101c6 -14 8 -40 8 -62c-39 2 -100 3 -166 3s-146 -1 -187 -3c0 21 4 47 9 62c75 4 94 20 94 101v457h-23c-84 0 -108 -45 -126 -128c-28 0 -58 2 -79 13
c12 55 21 125 21 177c72 -3 152 -3 287 -3c125 0 214 1 285 3z" />
    <glyph glyph-name="uni0423" unicode="&#x423;" horiz-adv-x="698" 
d="M581 676c32 0 76 1 100 3c0 -24 -3 -44 -8 -62c-38 -9 -56 -43 -91 -110c-89 -169 -114 -212 -143 -263c-69 -123 -90 -167 -115 -252c-49 6 -114 8 -164 8c-7 17 -9 38 -9 59c75 8 117 33 172 131c-61 105 -134 227 -189 314c-57 87 -76 107 -111 113c-4 16 -6 38 -6 62
c30 -2 108 -3 144 -3s96 0 148 3c0 -26 -2 -47 -6 -62c-57 -7 -54 -24 -20 -78c53 -83 89 -141 131 -215c40 66 74 131 106 198c29 60 18 88 -34 95c-4 16 -6 36 -6 62c25 -2 69 -3 101 -3z" />
    <glyph glyph-name="uni0424" unicode="&#x424;" horiz-adv-x="883" 
d="M848 348c0 -173 -126 -284 -329 -292v-12c0 -79 16 -95 91 -99c5 -15 8 -40 8 -62c-42 2 -103 3 -174 3c-60 0 -140 -1 -179 -3c0 21 3 47 8 62c74 4 93 20 93 99v11c-204 4 -331 110 -331 280c0 167 127 276 331 284v10c0 79 -17 95 -92 99c-6 15 -8 40 -8 62
c42 -2 103 -3 178 -3c57 0 136 1 175 3c0 -21 -4 -47 -9 -62c-73 -4 -91 -20 -91 -99v-10c203 -4 329 -106 329 -271zM195 349c0 -132 65 -219 171 -230v437c-105 -3 -171 -81 -171 -207zM689 330c0 128 -65 213 -170 225v-437c104 4 170 83 170 212z" />
    <glyph glyph-name="uni0425" unicode="&#x425;" horiz-adv-x="702" 
d="M665 59c7 -18 8 -39 8 -62c-29 2 -105 3 -158 3s-122 -1 -152 -2c0 21 1 40 6 61c47 5 56 17 -8 126l-47 79l-59 -86c-57 -85 -55 -108 2 -119c5 -20 6 -41 6 -62c-34 2 -82 3 -119 3s-88 -1 -115 -3c0 22 1 48 8 64c47 12 86 40 138 114l103 146
c-37 59 -78 122 -117 181c-65 99 -76 107 -111 114c-7 21 -8 41 -8 63c35 -2 119 -3 169 -3c51 0 105 1 136 2c0 -19 -2 -40 -6 -61c-48 -9 -57 -25 -8 -101c21 -32 42 -64 63 -97l53 83c51 81 47 108 -5 115c-5 18 -6 43 -6 62c33 -2 84 -3 114 -3s82 1 107 3
c0 -22 -1 -42 -6 -62c-48 -13 -68 -28 -124 -112l-95 -145c37 -59 71 -115 96 -156c74 -123 93 -138 135 -145z" />
    <glyph glyph-name="uni0426" unicode="&#x426;" horiz-adv-x="794" 
d="M752 2c-7 -39 -12 -90 -11 -148c-24 -9 -60 -9 -87 0c1 46 -3 97 -11 145c-43 1 -103 1 -185 1h-151c-164 0 -225 -1 -265 -3c0 23 0 43 7 62c54 5 67 20 67 100v357c0 81 -14 97 -68 101c-4 14 -6 40 -6 62c34 -2 86 -3 142 -3c55 0 117 1 158 3c0 -21 -3 -47 -7 -62
c-54 -4 -67 -20 -67 -101v-357c0 -51 5 -78 27 -90c12 -7 33 -10 90 -10c58 0 79 3 91 10c21 12 26 39 26 90v357c0 81 -13 97 -67 101c-4 14 -7 40 -7 62c35 -2 87 -3 143 -3c55 0 117 1 158 3c0 -21 -3 -47 -7 -62c-54 -4 -67 -20 -67 -101v-357c0 -80 12 -94 67 -100h13
c12 -15 17 -35 17 -57z" />
    <glyph glyph-name="uni0427" unicode="&#x427;" horiz-adv-x="750" 
d="M634 517v-357c0 -81 14 -97 67 -101c5 -14 7 -40 7 -62c-28 2 -87 3 -156 3c-70 0 -143 -1 -178 -3c0 22 1 45 7 62c75 5 100 29 100 110v138c-40 -12 -88 -21 -151 -21c-183 0 -220 78 -226 231c-3 79 -5 92 -67 100c-5 16 -7 40 -7 62c35 -2 107 -3 153 -3s108 1 148 3
c0 -23 -1 -43 -8 -62c-51 -5 -66 -18 -66 -98c0 -120 32 -162 127 -162c26 0 66 4 97 9v151c0 80 -12 94 -67 100c-4 16 -7 40 -7 62c35 -2 108 -3 153 -3c46 0 108 1 148 3c0 -23 0 -43 -7 -62c-54 -5 -67 -20 -67 -100z" />
    <glyph glyph-name="uni0428" unicode="&#x428;" horiz-adv-x="1042" 
d="M42 -3c0 23 0 43 7 62c54 5 67 20 67 100v357c0 81 -14 97 -68 101c-4 14 -6 40 -6 62c34 -2 86 -3 142 -3c55 0 112 1 153 3c0 -21 -3 -47 -8 -62c-48 -4 -61 -20 -61 -101v-357c0 -51 5 -78 27 -90c12 -7 33 -10 62 -10c28 0 49 3 62 10c21 12 26 39 26 90v357
c0 81 -14 97 -62 101c-5 14 -7 40 -7 62c35 -2 81 -3 137 -3c55 0 112 1 153 3c0 -21 -3 -47 -8 -62c-48 -4 -60 -20 -60 -101v-357c0 -51 5 -78 26 -90c12 -7 33 -10 62 -10s49 3 62 10c21 12 26 39 26 90v357c0 81 -14 97 -62 101c-5 14 -7 40 -7 62c35 -2 81 -3 137 -3
s117 1 159 3c0 -21 -4 -47 -8 -62c-54 -4 -66 -20 -66 -101v-357c0 -80 12 -94 66 -100c5 -16 8 -40 8 -62c-35 2 -108 3 -254 3h-458c-146 0 -207 -1 -247 -3z" />
    <glyph glyph-name="uni0429" unicode="&#x429;" horiz-adv-x="1065" 
d="M993 59h13c12 -15 18 -35 18 -57c-8 -39 -12 -90 -12 -148c-23 -9 -59 -9 -86 0c0 46 -4 97 -12 145c-41 1 -95 1 -167 1h-458c-146 0 -207 -1 -247 -3c0 23 0 43 7 62c54 5 67 20 67 100v357c0 81 -14 97 -68 101c-4 14 -6 40 -6 62c34 -2 86 -3 142 -3
c55 0 112 1 153 3c0 -21 -3 -47 -8 -62c-48 -4 -61 -20 -61 -101v-357c0 -51 5 -78 27 -90c12 -7 33 -10 62 -10c28 0 49 3 62 10c21 12 26 39 26 90v357c0 81 -14 97 -62 101c-5 14 -7 40 -7 62c35 -2 81 -3 137 -3c55 0 112 1 153 3c0 -21 -3 -47 -8 -62
c-48 -4 -60 -20 -60 -101v-357c0 -51 5 -78 26 -90c12 -7 33 -10 62 -10s49 3 62 10c21 12 26 39 26 90v357c0 81 -14 97 -62 101c-5 14 -7 40 -7 62c35 -2 81 -3 137 -3s117 1 159 3c0 -21 -4 -47 -8 -62c-54 -4 -66 -20 -66 -101v-357c0 -80 12 -94 66 -100z" />
    <glyph glyph-name="uni042A" unicode="&#x42a;" horiz-adv-x="802" 
d="M467 388c189 0 291 -55 291 -192c0 -114 -79 -196 -283 -196c-98 0 -228 -1 -308 -3c0 24 2 47 7 62c54 4 68 20 68 106v452h-20c-71 0 -102 -45 -118 -128c-28 0 -58 2 -79 13c12 55 21 125 21 177c60 -3 126 -3 225 -3c134 0 198 1 231 3c0 -22 -1 -45 -7 -62
c-75 -5 -100 -29 -100 -116v-117c21 3 42 4 72 4zM474 60c71 0 114 46 114 122c0 108 -73 140 -141 140c-10 0 -32 -1 -52 -3v-159c0 -86 25 -100 79 -100z" />
    <glyph glyph-name="uni042B" unicode="&#x42b;" horiz-adv-x="1000" 
d="M344 388c191 0 295 -55 295 -192c0 -114 -79 -196 -288 -196c-98 0 -230 -1 -309 -3c0 24 2 47 6 62c54 4 68 20 68 106v352c0 80 -12 94 -67 100c-4 16 -7 36 -7 62c47 -2 113 -3 173 -3c56 0 126 1 161 3c0 -22 -1 -45 -7 -62c-75 -5 -100 -29 -100 -116v-117
c22 3 43 4 75 4zM884 517v-357c0 -81 14 -97 67 -101c5 -14 7 -40 7 -62c-34 2 -86 3 -142 3s-118 -1 -159 -3c0 21 3 47 8 62c53 4 66 20 66 101v357c0 80 -12 94 -67 100c-4 16 -7 40 -7 62c35 -2 108 -3 153 -3c46 0 108 1 148 3c0 -23 0 -43 -7 -62
c-54 -5 -67 -20 -67 -100zM349 60c74 0 117 46 117 122c0 108 -74 140 -143 140c-10 0 -34 -1 -54 -3v-159c0 -86 26 -100 80 -100z" />
    <glyph glyph-name="uni042C" unicode="&#x42c;" horiz-adv-x="684" 
d="M344 388c191 0 295 -55 295 -192c0 -114 -79 -196 -288 -196c-98 0 -230 -1 -309 -3c0 24 2 47 6 62c54 4 68 20 68 106v352c0 80 -12 94 -67 100c-4 16 -7 36 -7 62c47 -2 113 -3 173 -3c56 0 126 1 161 3c0 -22 -1 -45 -7 -62c-75 -5 -100 -29 -100 -116v-117
c22 3 43 4 75 4zM349 60c74 0 117 46 117 122c0 108 -74 140 -143 140c-10 0 -34 -1 -54 -3v-159c0 -86 26 -100 80 -100z" />
    <glyph glyph-name="uni042D" unicode="&#x42d;" horiz-adv-x="661" 
d="M279 685c221 0 347 -120 347 -336c0 -223 -132 -358 -361 -358c-83 0 -157 18 -230 52c4 47 4 103 -2 155c17 10 50 16 78 16c9 -117 56 -162 146 -162c128 0 201 91 208 252c-85 0 -172 -1 -307 -4c0 25 5 58 14 76h292c-11 156 -86 248 -204 248
c-77 0 -122 -40 -125 -158c-26 0 -61 3 -78 12c0 55 -3 109 -11 155c69 33 146 52 233 52z" />
    <glyph glyph-name="uni042E" unicode="&#x42e;" horiz-adv-x="1058" 
d="M688 685c195 0 335 -134 335 -340c0 -204 -136 -354 -341 -354c-193 0 -318 135 -327 328c-27 0 -61 -2 -87 -5v-154c0 -81 14 -97 68 -101c4 -14 6 -40 6 -62c-34 2 -86 3 -142 3c-55 0 -117 -1 -158 -3c0 21 3 47 7 62c54 4 67 20 67 101v357c0 80 -13 94 -67 100
c-5 16 -7 40 -7 62c34 -2 107 -3 153 -3s107 1 147 3c0 -23 0 -43 -7 -62c-54 -5 -67 -20 -67 -100v-138h89c16 188 148 306 331 306zM698 56c105 0 165 112 165 262c0 173 -80 304 -193 304c-97 0 -156 -97 -156 -256c0 -163 62 -310 184 -310z" />
    <glyph glyph-name="uni042F" unicode="&#x42f;" horiz-adv-x="672" 
d="M556 518v-358c0 -81 14 -97 68 -101c4 -16 6 -37 6 -62c-39 2 -94 3 -138 3c-39 0 -111 -1 -151 -3c0 22 1 49 6 62c43 3 56 17 56 107v111c-52 0 -72 -25 -104 -114c-38 -109 -44 -130 -91 -172c-59 8 -129 9 -184 9c-7 17 -9 49 -9 59c99 9 116 59 158 144
c28 58 48 83 84 94c-133 22 -200 94 -200 200c0 102 61 183 253 183c40 0 122 -4 184 -4c41 0 105 2 136 3c0 -15 -1 -44 -6 -61c-55 -5 -68 -20 -68 -100zM217 488c0 -100 70 -139 150 -139c11 0 21 1 36 3v261c-18 5 -35 7 -54 7c-91 0 -132 -55 -132 -132z" />
    <glyph glyph-name="uni0430" unicode="&#x430;" horiz-adv-x="549" 
d="M522 88c3 -22 1 -45 -8 -64c-49 -2 -106 -13 -151 -33c-22 9 -32 22 -32 56c0 12 1 25 4 39c-10 -23 -24 -43 -42 -57c-27 -22 -63 -36 -112 -36c-95 0 -145 40 -145 114c0 134 190 160 282 173c0 61 -5 84 -22 104c-14 16 -35 25 -56 25c-55 0 -74 -57 -79 -112
c-33 0 -61 1 -84 10c3 36 3 78 -6 120c55 24 125 40 195 40c82 0 126 -15 154 -45c29 -29 44 -74 44 -166v-90c0 -61 7 -77 58 -78zM318 200v26c-78 -14 -136 -33 -136 -93c0 -40 22 -55 47 -55c40 0 89 38 89 122z" />
    <glyph glyph-name="uni0431" unicode="&#x431;" horiz-adv-x="567" 
d="M324 441c128 0 208 -63 208 -199c0 -160 -96 -251 -260 -251c-155 0 -238 84 -238 319c0 274 151 362 328 362c40 0 56 13 65 52c25 1 50 -4 66 -13c-10 -47 -15 -94 -17 -141c-9 -19 -24 -25 -48 -25c-231 0 -303 -48 -319 -175c70 48 147 71 215 71zM286 59
c69 0 100 63 100 155c0 115 -62 155 -131 155c-21 0 -44 -4 -71 -19l-1 -31c0 -201 40 -260 103 -260z" />
    <glyph glyph-name="uni0432" unicode="&#x432;" horiz-adv-x="599" 
d="M389 250c111 -6 176 -48 176 -121c0 -76 -72 -129 -260 -129c-130 0 -205 -1 -274 -3c0 26 2 45 8 62c36 0 50 20 50 87v166c0 67 -14 87 -50 87c-6 17 -8 36 -8 62c30 -1 77 -3 111 -3c39 0 113 2 150 2c167 0 236 -39 236 -104c0 -55 -50 -95 -139 -106zM379 330
c0 50 -50 70 -102 70c-18 0 -29 -3 -42 -8v-128h31c77 0 113 24 113 66zM302 58c63 0 101 21 101 67c0 58 -61 80 -146 80h-22v-76c0 -61 25 -71 67 -71z" />
    <glyph glyph-name="uni0433" unicode="&#x433;" horiz-adv-x="483" 
d="M448 460c2 -35 7 -91 17 -125c-18 -11 -46 -18 -77 -18c-9 56 -26 87 -114 87h-39v-266c0 -58 20 -80 85 -84c6 -16 7 -39 7 -57c-45 2 -115 3 -165 3s-101 -1 -131 -3c0 26 2 45 8 62c36 0 50 20 50 87v166c0 67 -14 87 -50 87c-6 17 -8 36 -8 62c41 -2 107 -3 204 -3
c114 0 172 0 213 2z" />
    <glyph glyph-name="uni0434" unicode="&#x434;" horiz-adv-x="599" 
d="M539 59h13c12 -15 18 -35 18 -57c-8 -39 -12 -90 -12 -148c-24 -9 -59 -9 -86 0c0 46 -4 97 -12 146h-336c-8 -49 -12 -100 -12 -146c-27 -9 -62 -9 -86 0c0 58 -4 109 -12 148c0 22 6 42 18 57h17c41 15 63 42 78 77c14 27 32 84 37 188c4 60 -2 69 -64 75
c-7 17 -9 37 -9 62c42 -3 109 -3 221 -3c144 0 201 1 236 3c0 -26 -2 -45 -9 -62c-36 0 -50 -20 -50 -87v-166c0 -67 14 -87 50 -87zM344 136v184c0 47 -3 63 -21 72c-11 5 -26 7 -39 7s-29 -2 -41 -6c-18 -7 -17 -18 -23 -73c-12 -137 -29 -213 -75 -261h111
c33 0 53 1 66 7c17 7 22 25 22 70z" />
    <glyph glyph-name="uni0435" unicode="&#x435;" horiz-adv-x="513" 
d="M448 114c13 -8 25 -31 26 -52c-49 -47 -114 -71 -194 -71c-174 0 -246 103 -246 234c0 148 94 242 240 242c143 0 203 -105 204 -215c-4 -19 -13 -36 -25 -48c-60 0 -173 -1 -268 -6c11 -74 51 -131 139 -131c43 0 93 18 124 47zM265 405c-43 0 -80 -35 -83 -142h160
c0 83 -27 142 -77 142z" />
    <glyph glyph-name="uni0436" unicode="&#x436;" horiz-adv-x="883" 
d="M701 202c68 -113 80 -135 155 -142c0 -22 -3 -46 -9 -60c-39 0 -109 -1 -160 -9c-87 49 -111 217 -173 222v-67c0 -67 14 -87 50 -87c7 -17 8 -36 8 -62c-29 1 -81 3 -131 3s-101 -2 -131 -3c0 26 2 45 8 62c36 0 50 20 50 87v67c-61 -7 -86 -173 -172 -222
c-51 8 -120 9 -159 9c-7 14 -10 38 -10 60c76 7 88 29 155 142c26 43 54 55 99 60c-23 5 -34 18 -68 61c-27 36 -37 47 -55 47c-11 0 -18 -5 -22 -45c-28 -1 -58 2 -79 8c6 34 6 90 2 125c15 3 35 6 58 6c69 0 78 -29 147 -121c45 -59 61 -75 104 -76v45c0 67 -14 87 -50 87
c-6 17 -8 36 -8 62c30 -1 81 -3 131 -3s102 2 131 3c0 -26 -1 -45 -8 -62c-36 0 -50 -20 -50 -87v-45c44 1 61 16 106 76c68 92 77 121 146 121c23 0 44 -3 58 -6c-3 -35 -3 -91 3 -125c-22 -6 -51 -9 -80 -8c-4 40 -10 45 -22 45c-18 0 -27 -11 -55 -47
c-33 -43 -45 -56 -67 -61c45 -5 72 -17 98 -60z" />
    <glyph glyph-name="uni0437" unicode="&#x437;" horiz-adv-x="445" 
d="M268 250c98 -10 142 -50 142 -117c0 -86 -75 -139 -218 -139c-58 0 -108 9 -156 31c6 31 6 63 1 97c19 10 51 14 75 12c9 -64 23 -86 70 -86c55 0 82 29 82 75c0 59 -46 86 -129 85c-6 16 -4 38 4 56c71 2 111 34 111 86c0 38 -21 60 -60 60c-40 0 -51 -23 -59 -85
c-25 -3 -56 1 -76 11c6 34 6 66 0 98c48 21 99 30 156 30c119 0 179 -39 179 -109c0 -57 -41 -95 -122 -105z" />
    <glyph glyph-name="uni0438" unicode="&#x438;" horiz-adv-x="640" 
d="M551 312v-166c0 -67 14 -87 50 -87c7 -17 9 -36 9 -62c-30 1 -82 3 -132 3c-49 0 -101 -2 -131 -3c0 26 2 45 9 62c36 0 50 20 50 87v175l-189 -321c-95 0 -156 -2 -186 -3c0 26 2 45 8 62c36 0 50 20 50 87v166c0 67 -14 87 -50 87c-6 17 -8 36 -8 62
c30 -1 81 -3 131 -3s102 2 131 3c0 -26 -1 -45 -8 -62c-36 0 -50 -20 -50 -87v-173l189 319c95 0 156 2 186 3c0 -26 -2 -45 -9 -62c-36 0 -50 -20 -50 -87z" />
    <glyph glyph-name="uni0439" unicode="&#x439;" horiz-adv-x="640" 
d="M313 521c-125 0 -202 59 -202 173c25 13 63 18 96 13c14 -87 50 -124 121 -124c68 0 100 37 106 124c32 5 71 1 95 -10c0 -116 -84 -176 -216 -176zM551 312v-166c0 -67 14 -87 50 -87c7 -17 9 -36 9 -62c-30 1 -82 3 -132 3c-49 0 -101 -2 -131 -3c0 26 2 45 9 62
c36 0 50 20 50 87v175l-189 -321c-95 0 -156 -2 -186 -3c0 26 2 45 8 62c36 0 50 20 50 87v166c0 67 -14 87 -50 87c-6 17 -8 36 -8 62c30 -1 81 -3 131 -3s102 2 131 3c0 -26 -1 -45 -8 -62c-36 0 -50 -20 -50 -87v-173l189 319c95 0 156 2 186 3c0 -26 -2 -45 -9 -62
c-36 0 -50 -20 -50 -87z" />
    <glyph glyph-name="uni043A" unicode="&#x43a;" horiz-adv-x="606" 
d="M429 202c70 -113 82 -135 159 -142c0 -22 -2 -46 -9 -60c-40 0 -112 -1 -163 -9c-91 50 -115 222 -181 222v-67c0 -67 14 -87 50 -87c7 -17 8 -36 8 -62c-29 1 -81 3 -131 3s-101 -2 -131 -3c0 26 2 45 8 62c36 0 50 20 50 87v166c0 67 -14 87 -50 87c-6 17 -8 36 -8 62
c30 -1 81 -3 131 -3s102 2 131 3c0 -26 -1 -45 -8 -62c-36 0 -50 -20 -50 -87v-45c46 0 64 15 111 76c70 92 80 121 150 121c24 0 45 -3 59 -6c-3 -35 -3 -91 4 -125c-23 -6 -53 -9 -82 -8c-5 40 -11 45 -23 45c-18 0 -28 -11 -57 -47c-34 -43 -45 -56 -68 -61
c46 -5 74 -17 100 -60z" />
    <glyph glyph-name="uni043B" unicode="&#x43b;" 
d="M596 461c0 -26 -1 -45 -8 -62c-36 0 -50 -20 -50 -87v-166c0 -67 14 -87 50 -87c7 -17 8 -36 8 -62c-29 1 -81 3 -131 3s-102 -2 -131 -3c0 26 1 45 8 62c36 0 50 20 50 87v175c0 47 -3 62 -21 71c-10 4 -23 7 -37 7c-18 0 -28 -4 -36 -6c-16 -6 -17 -14 -23 -73
c-11 -145 -29 -227 -71 -278c-34 -40 -73 -49 -100 -49c-40 0 -74 18 -89 40c-4 18 -1 53 9 77c18 -6 50 -14 87 -14c41 0 61 9 76 46c13 23 30 89 33 184c2 62 -2 67 -67 73c-6 20 -8 38 -8 62c40 -3 109 -3 218 -3c141 0 199 1 233 3z" />
    <glyph glyph-name="uni043C" unicode="&#x43c;" horiz-adv-x="782" 
d="M756 59c6 -18 8 -39 8 -62c-19 2 -114 3 -145 3c-39 0 -96 -2 -118 -2c0 26 2 42 9 61c45 4 51 12 43 80l-23 185l-145 -324c-13 -5 -37 -6 -55 -6l-165 329l-18 -150c-11 -98 1 -112 45 -114c6 -18 8 -39 8 -62c-23 2 -55 3 -84 3c-28 0 -70 -1 -97 -3c0 24 1 44 8 62
c39 2 55 23 64 110l18 156c6 63 -5 74 -49 74c-7 18 -8 38 -8 62c29 -2 81 -3 105 -3s84 1 100 2l145 -285l125 285c27 -1 82 -2 105 -2c25 0 71 1 102 3c0 -27 -2 -45 -8 -62c-46 0 -57 -16 -50 -75l22 -177c10 -77 17 -84 58 -88z" />
    <glyph glyph-name="uni043D" unicode="&#x43d;" horiz-adv-x="640" 
d="M551 312v-166c0 -67 14 -87 50 -87c7 -17 9 -36 9 -62c-30 1 -82 3 -132 3c-49 0 -101 -2 -131 -3c0 26 2 45 9 62c36 0 50 20 50 87v66c-52 0 -122 -1 -171 -6v-60c0 -67 14 -87 50 -87c7 -17 8 -36 8 -62c-29 1 -81 3 -131 3s-101 -2 -131 -3c0 26 2 45 8 62
c36 0 50 20 50 87v166c0 67 -14 87 -50 87c-6 17 -8 36 -8 62c30 -1 81 -3 131 -3s102 2 131 3c0 -26 -1 -45 -8 -62c-36 0 -50 -20 -50 -87v-48h171v48c0 67 -14 87 -50 87c-7 17 -9 36 -9 62c30 -1 82 -3 131 -3c50 0 102 2 132 3c0 -26 -2 -45 -9 -62
c-36 0 -50 -20 -50 -87z" />
    <glyph glyph-name="uni043E" unicode="&#x43e;" horiz-adv-x="574" 
d="M289 467c165 0 251 -97 251 -234c0 -148 -100 -242 -256 -242c-161 0 -250 91 -250 233c0 154 110 243 255 243zM276 406c-61 0 -91 -65 -91 -152c0 -117 41 -199 113 -199c60 0 92 66 92 155c0 127 -54 196 -114 196z" />
    <glyph glyph-name="uni043F" unicode="&#x43f;" horiz-adv-x="639" 
d="M551 312v-166c0 -67 14 -87 50 -87c7 -17 8 -36 8 -62c-29 1 -81 3 -131 3s-102 -2 -131 -3c0 26 1 45 8 62c36 0 50 20 50 87v166c0 67 -14 87 -50 87h-70c-36 0 -50 -20 -50 -87v-166c0 -67 14 -87 50 -87c7 -17 8 -36 8 -62c-29 1 -81 3 -131 3s-101 -2 -131 -3
c0 26 2 45 8 62c36 0 50 20 50 87v166c0 67 -14 87 -50 87c-6 17 -8 36 -8 62c30 -1 81 -3 203 -3h166c128 0 180 2 209 3c0 -26 -1 -45 -8 -62c-36 0 -50 -20 -50 -87z" />
    <glyph glyph-name="uni0440" unicode="&#x440;" horiz-adv-x="631" 
d="M250 1v-68c0 -87 25 -111 100 -116c6 -17 7 -40 7 -62c-35 2 -100 3 -156 3c-61 0 -134 -1 -171 -3c0 28 2 47 6 62c54 4 68 20 68 101v376c0 57 -7 77 -72 81c0 21 2 42 11 59c73 1 147 17 178 33c18 -7 29 -23 29 -55c0 -7 -1 -15 -3 -24c7 10 14 18 21 24
c22 24 72 55 132 55c116 0 197 -64 197 -207c0 -158 -110 -269 -275 -269c-26 0 -47 3 -72 10zM354 385c-51 0 -104 -45 -104 -169v-131c20 -21 42 -34 74 -34c50 0 123 31 123 183c0 82 -30 151 -93 151z" />
    <glyph glyph-name="uni0441" unicode="&#x441;" horiz-adv-x="468" 
d="M274 -9c-136 0 -240 76 -240 236c0 120 79 240 233 240c73 0 125 -14 168 -42c-8 -38 -10 -75 -10 -124c-22 -10 -53 -13 -79 -13c-4 77 -34 118 -79 118c-56 0 -87 -66 -87 -165c0 -86 41 -174 135 -174c42 0 79 14 105 39c12 -11 22 -28 24 -48
c-36 -43 -95 -67 -170 -67z" />
    <glyph glyph-name="uni0442" unicode="&#x442;" horiz-adv-x="563" 
d="M354 404v-267c0 -65 13 -76 76 -78c5 -17 7 -43 7 -62c-30 2 -85 3 -147 3s-137 -1 -171 -3c0 18 4 44 9 62c63 2 81 10 81 78v267h-10c-61 0 -83 -27 -99 -99c-30 0 -55 2 -77 13c10 47 19 103 19 142c63 -2 121 -2 242 -2c109 0 176 2 239 2c0 -38 6 -91 17 -142
c-21 -9 -48 -13 -78 -13c-12 74 -33 99 -88 99h-20z" />
    <glyph glyph-name="uni0443" unicode="&#x443;" horiz-adv-x="562" 
d="M453 458c34 0 67 1 97 3c0 -19 -2 -44 -10 -63c-34 -8 -47 -25 -73 -85l-147 -350c-76 -182 -119 -212 -185 -212c-43 0 -80 19 -97 40c-4 24 -1 66 8 93c23 -7 56 -14 93 -14c43 0 70 13 94 51c5 7 13 23 23 45c-48 114 -110 250 -155 342c-35 73 -52 84 -81 90
c-5 17 -8 42 -8 63c38 -2 89 -3 135 -3c49 0 114 1 155 3c0 -22 -4 -49 -10 -63c-59 -10 -64 -27 -32 -91c22 -46 49 -107 71 -166l62 157c29 73 16 92 -31 100c-6 16 -9 40 -9 63c31 -2 66 -3 100 -3z" />
    <glyph glyph-name="uni0444" unicode="&#x444;" horiz-adv-x="825" 
d="M552 -9c-25 0 -47 3 -70 9c2 -26 2 -53 2 -87c0 -72 24 -94 80 -96c6 -17 7 -40 7 -62c-35 3 -107 3 -159 3c-51 0 -123 0 -159 -3c0 22 1 45 8 62c56 2 80 24 80 96c0 34 0 61 2 87c-24 -6 -45 -9 -70 -9c-153 0 -239 89 -239 239c0 148 86 237 239 237
c25 0 46 -3 69 -9c-2 36 -2 71 -2 100c0 43 -11 64 -75 67c0 21 2 42 11 59c69 0 151 17 180 33c17 -7 29 -23 29 -53v-98c0 -36 0 -72 -3 -108c23 6 45 9 70 9c153 0 238 -89 238 -237c0 -150 -85 -239 -238 -239zM183 230c0 -136 49 -178 116 -178c16 0 27 2 44 6v342
c-17 4 -28 6 -44 6c-67 0 -116 -41 -116 -176zM641 230c0 135 -48 176 -115 176c-16 0 -28 -2 -45 -6v-342c17 -4 29 -6 45 -6c67 0 115 42 115 178z" />
    <glyph glyph-name="uni0445" unicode="&#x445;" horiz-adv-x="569" 
d="M534 61c6 -18 8 -38 8 -62c-35 2 -61 1 -107 1c-45 0 -135 0 -172 -2c0 27 2 46 7 61c33 4 40 18 8 69c-11 19 -21 34 -33 51l-24 -35c-41 -62 -37 -82 -9 -85c6 -17 7 -36 7 -61c-31 2 -76 2 -103 2c-25 0 -59 0 -89 -2c0 23 3 45 10 61c32 2 50 16 107 98l51 74
c-26 41 -53 80 -76 111c-34 46 -47 54 -78 57c-6 18 -10 40 -10 61c36 -2 85 -2 134 -2c50 0 105 0 144 2c0 -20 -3 -47 -6 -61c-37 -2 -42 -15 -7 -67l33 -47l31 48c31 48 31 63 -2 66c-6 16 -9 39 -9 61c31 -2 57 -2 97 -2s59 0 86 2c0 -22 -3 -43 -9 -61
c-30 -2 -42 -11 -77 -61l-68 -99c24 -32 47 -65 64 -92c43 -67 60 -84 92 -86z" />
    <glyph glyph-name="uni0446" unicode="&#x446;" horiz-adv-x="662" 
d="M601 59h14c11 -15 17 -35 17 -57c-8 -39 -12 -90 -12 -148c-23 -9 -59 -9 -86 0c0 46 -4 97 -12 145c-29 1 -67 1 -116 1h-166c-128 0 -179 -2 -209 -3c0 26 2 45 8 62c36 0 50 20 50 87v166c0 67 -14 87 -50 87c-6 17 -8 36 -8 62c30 -1 81 -3 131 -3s102 2 131 3
c0 -26 -1 -45 -8 -62c-36 0 -50 -20 -50 -87v-166c0 -67 14 -87 50 -87h70c36 0 50 20 50 87v166c0 67 -14 87 -50 87c-7 17 -8 36 -8 62c29 -1 81 -3 131 -3s102 2 131 3c0 -26 -1 -45 -8 -62c-36 0 -50 -20 -50 -87v-166c0 -67 14 -87 50 -87z" />
    <glyph glyph-name="uni0447" unicode="&#x447;" horiz-adv-x="615" 
d="M527 312v-166c0 -67 14 -87 50 -87c7 -17 8 -36 8 -62c-42 2 -91 3 -140 3c-53 0 -125 -1 -155 -2c0 17 1 40 7 56c64 4 84 26 84 77v73c-33 -10 -76 -17 -128 -17c-144 0 -175 45 -177 144c0 45 -11 68 -50 68c-7 17 -9 36 -9 62c30 -1 82 -3 131 -3c50 0 102 2 132 3
c0 -26 -2 -45 -9 -62c-35 0 -50 -21 -50 -65c0 -59 24 -85 94 -85c19 0 47 2 66 6v57c0 67 -14 87 -50 87c-6 17 -8 36 -8 62c30 -1 81 -3 131 -3s102 2 131 3c0 -26 -1 -45 -8 -62c-36 0 -50 -20 -50 -87z" />
    <glyph glyph-name="uni0448" unicode="&#x448;" horiz-adv-x="879" 
d="M849 461c0 -26 -2 -45 -9 -62c-36 0 -50 -20 -50 -87v-166c0 -67 14 -87 50 -87c7 -17 9 -36 9 -62c-46 2 -115 3 -221 3h-382c-107 0 -164 -1 -215 -3c0 26 2 45 8 62c36 0 50 20 50 87v166c0 67 -14 87 -50 87c-6 17 -8 36 -8 62c30 -2 70 -3 131 -3s96 1 124 3
c0 -26 -1 -45 -8 -62c-31 0 -43 -20 -43 -87v-180c0 -46 4 -63 22 -71c8 -4 22 -6 44 -6s36 2 44 6c19 8 22 25 22 71v180c0 67 -12 87 -43 87c-7 17 -8 36 -8 62c28 -2 63 -3 124 -3s96 1 124 3c0 -26 -2 -45 -8 -62c-31 0 -43 -20 -43 -87v-180c0 -46 4 -63 22 -71
c8 -4 22 -6 43 -6c22 0 36 2 45 6c18 8 22 25 22 71v180c0 67 -12 87 -43 87c-7 17 -8 36 -8 62c27 -2 63 -3 124 -3s101 1 131 3z" />
    <glyph glyph-name="uni0449" unicode="&#x449;" horiz-adv-x="916" 
d="M883 2c-8 -39 -12 -90 -11 -148c-24 -9 -60 -9 -87 0c0 46 -3 97 -11 145c-38 1 -86 1 -145 1h-381c-107 0 -165 -1 -215 -3c0 26 1 45 8 62c36 0 50 20 50 87v166c0 67 -14 87 -50 87c-7 17 -8 36 -8 62c29 -2 70 -3 131 -3s96 1 124 3c0 -26 -2 -45 -8 -62
c-31 0 -43 -20 -43 -87v-180c0 -46 4 -63 22 -71c8 -4 22 -6 44 -6c21 0 36 2 44 6c18 8 22 25 22 71v180c0 67 -12 87 -43 87c-7 17 -8 36 -8 62c27 -2 63 -3 124 -3s96 1 124 3c0 -26 -2 -45 -9 -62c-30 0 -43 -20 -43 -87v-180c0 -46 4 -63 23 -71c8 -4 22 -6 43 -6
c22 0 36 2 44 6c18 8 22 25 22 71v180c0 67 -12 87 -42 87c-7 17 -9 36 -9 62c28 -2 63 -3 124 -3s102 1 131 3c0 -26 -1 -45 -8 -62c-36 0 -50 -20 -50 -87v-166c0 -67 14 -87 50 -87h24c11 -15 17 -35 17 -57z" />
    <glyph glyph-name="uni044A" unicode="&#x44a;" horiz-adv-x="704" 
d="M415 270c171 0 255 -44 255 -139c0 -79 -66 -131 -251 -131c-107 0 -208 0 -268 -3c0 26 1 45 8 62c36 0 50 20 50 87v258h-7c-76 0 -93 -31 -101 -87c-31 0 -59 7 -78 18c10 34 15 90 17 125c42 -2 106 -2 222 -2h31c60 0 126 1 157 3c0 -22 -2 -44 -9 -62
c-66 -4 -86 -21 -86 -79v-53c18 2 35 3 60 3zM416 59c63 0 92 22 92 65c0 60 -50 86 -111 86c-8 0 -26 0 -42 -2v-78c0 -60 24 -71 61 -71z" />
    <glyph glyph-name="uni044B" unicode="&#x44b;" horiz-adv-x="873" 
d="M297 270c170 0 259 -45 259 -139c0 -79 -70 -131 -257 -131c-90 0 -208 0 -268 -3c0 26 2 45 8 62c36 0 50 20 50 87v166c0 67 -14 87 -50 87c-6 17 -8 36 -8 62c30 -1 81 -3 142 -3c60 0 126 1 157 3c0 -22 -2 -44 -9 -62c-66 -4 -86 -21 -86 -79v-53c18 2 35 3 62 3z
M785 312v-166c0 -67 14 -87 50 -87c7 -17 8 -36 8 -62c-29 1 -81 3 -131 3s-101 -2 -131 -3c0 26 2 45 8 62c36 0 50 20 50 87v166c0 67 -14 87 -50 87c-6 17 -8 36 -8 62c30 -1 81 -3 131 -3s102 2 131 3c0 -26 -1 -45 -8 -62c-36 0 -50 -20 -50 -87zM299 59
c60 0 92 22 92 66c0 58 -54 85 -114 85c-8 0 -26 0 -42 -2v-78c0 -61 24 -71 64 -71z" />
    </font>
</defs>
</svg>
