<svg xmlns="http://www.w3.org/2000/svg">
<defs>
<font id="Vollkorn-SemiboldItalic" horiz-adv-x="742" >
  <font-face 
    font-family="Vollkorn Semibold"
    font-weight="600"
    font-style="italic"
    font-stretch="normal"
    units-per-em="1000"
    panose-1="0 0 7 0 0 0 0 0 0 0"
    ascent="800"
    descent="-200"
    x-height="466"
    cap-height="679"
    bbox="-181 -301 1111 972.373"
    underline-thickness="57"
    underline-position="-292"
    slope="-11"
    stemh="61"
    stemv="151"
    unicode-range="U+0020-FB02"
  />
<missing-glyph horiz-adv-x="453" 
d="M490 677l-132 -677h-352l132 677h352zM170 559c2 0 2 0 2 -1v-11c0 -2 0 -2 -1 -2l-1 -1h3h3v1c-1 0 -2 0 -2 2v13v1c-1 0 -3 -1 -3 -1c-1 0 -1 0 -1 -1zM178 545v-1h3h2v1c-1 0 -1 0 -1 2v13c0 1 -1 1 -1 1s-2 -1 -3 -1v-1c1 0 2 0 2 -1v-11c0 -2 -1 -2 -2 -2zM189 547
v2c2 -1 4 -4 5 -5h3v1c-1 0 -1 0 -3 1l-3 5l2 1c1 2 2 2 3 3h-2h-3s0 -1 1 -1c0 -1 0 -1 -1 -2l-2 -2v10v1c-1 0 -3 -1 -4 -1v-1c2 0 2 0 2 -1v-11c0 -2 -1 -2 -2 -2v-1h3h3l-1 1c-1 0 -1 0 -1 2zM240 560v-1c2 0 2 0 2 -1v-10c0 -2 0 -2 -1 -3c1 -1 3 -1 5 -1c4 0 6 2 6 6
c0 3 -2 5 -4 5s-3 -1 -4 -2v1v6c0 1 0 1 -1 1c0 0 -2 -1 -3 -1zM143 560v-1c1 0 1 0 2 -3c2 -3 4 -8 5 -12h1c2 4 4 8 5 12c1 2 1 3 2 3v1h-2h-2v-1c1 0 1 0 1 -1v-2l-3 -9c-2 4 -3 7 -4 10c-1 0 -1 1 -1 1c0 1 1 1 2 1v1h-3h-3zM163 544c3 0 6 2 6 5c0 4 -2 6 -6 6
c-3 0 -5 -2 -5 -6c0 -3 2 -5 5 -5zM198 549c0 -3 2 -5 6 -5c3 0 5 2 5 5c0 4 -2 6 -5 6c-4 0 -6 -2 -6 -6zM211 545v-1h3h3v1c-1 0 -2 0 -2 2v3c0 2 1 3 2 3s1 0 1 -2h2v3c-1 1 -1 1 -2 1s-2 -1 -3 -1c0 1 0 1 -1 1c0 0 -2 -1 -3 -1v-1c2 0 2 0 2 -1v-5c0 -2 -1 -2 -2 -2z
M221 545v-1h3h3v1c-1 0 -2 0 -2 2v2c0 3 2 5 3 5s2 -1 2 -3v-4c0 -2 0 -2 -1 -2l-1 -1h3h3v1c-1 0 -2 0 -2 2v4c0 3 -1 4 -3 4s-3 -1 -4 -1v1l-4 -1v-1c2 0 2 0 2 -1v-5c0 -2 0 -2 -2 -2zM260 543l4 8c1 2 1 3 2 4h-2h-3v-1c1 0 2 -1 2 -1c0 -1 0 -1 -1 -2l-1 -4v-1

<glyph glyph-name="fi" unicode="fi" horiz-adv-x="629" 
d="M356 385c-40 0 -61 -3 -95 -11c-16 -93 -28 -169 -37 -229c-35 -215 -133 -393 -274 -393c-37 0 -72 14 -101 43c-1 27 6 61 16 85c32 -14 69 -20 109 -20c56 0 74 18 95 186c10 84 22 195 43 330c-29 8 -55 11 -77 11c0 22 4 46 13 61h75c37 183 138 266 300 266
c83 0 145 -11 188 -32c-15 -42 -23 -89 -24 -125c-25 -13 -82 -16 -111 -11c-2 67 -26 108 -73 108c-67 0 -94 -43 -128 -206h62c138 0 177 5 209 19c35 -16 48 -46 32 -114l-45 -189c-15 -67 -12 -79 4 -79c11 0 25 6 41 21c12 -11 23 -32 26 -51c-42 -43 -92 -64 -141 -64
c-93 0 -104 66 -81 165l29 114c22 90 17 115 -55 115z" />
    <glyph glyph-name="fl" unicode="fl" horiz-adv-x="637" 
d="M48 448h75c36 178 135 266 298 266c54 0 92 -7 124 -23c20 4 37 10 53 19c23 -16 31 -33 23 -77c-26 -149 -53 -292 -81 -431c-19 -102 -13 -117 4 -117c11 0 23 5 42 21c12 -12 23 -33 26 -50c-39 -41 -92 -65 -141 -65c-70 0 -94 36 -93 93c0 42 8 89 76 438
c16 80 9 131 -55 131c-59 0 -95 -41 -124 -205h95c0 -24 -2 -49 -8 -63c-37 0 -69 -4 -101 -11c-16 -93 -28 -169 -37 -229c-35 -215 -133 -393 -274 -393c-37 0 -72 14 -101 43c-1 27 6 61 16 85c32 -14 69 -20 109 -20c56 0 74 18 95 186c10 84 22 195 43 330
c-29 8 -55 11 -77 11c0 22 4 46 13 61z" />
    <glyph glyph-name="f_f" unicode="ff" horiz-adv-x="715" 
d="M54 448h76c38 159 142 240 299 240c55 0 103 -14 141 -34c43 40 102 60 180 60c53 0 97 -10 116 -21c-13 -36 -25 -98 -26 -136c-14 -7 -50 -11 -75 -11c-2 56 -8 106 -45 106c-41 0 -59 -40 -91 -204h96c0 -24 -2 -49 -9 -63c-37 0 -69 -5 -101 -11
c-26 -162 -51 -261 -77 -325c-61 -142 -187 -256 -308 -256c-55 0 -94 21 -123 47c-42 -54 -95 -88 -157 -88c-37 0 -72 14 -101 43c-1 27 6 61 16 85c32 -14 69 -20 109 -20c56 0 74 18 95 186c10 84 26 199 49 330c-29 8 -56 11 -77 11c0 22 3 46 13 61zM477 448l1 6
c9 47 20 88 36 123c-22 31 -53 50 -99 50c-65 0 -108 -49 -133 -179h195zM402 19c24 89 44 196 64 357c-24 6 -54 10 -95 10c-39 0 -70 -4 -104 -12l-48 -253c-14 -77 -37 -152 -69 -212c26 -12 55 -18 92 -18c95 0 130 23 160 128z" />
    <glyph glyph-name="f_f_i" unicode="ffi" horiz-adv-x="983" 
d="M429 688c59 0 111 -16 151 -39c50 44 118 65 197 65c83 0 145 -11 188 -32c-14 -42 -23 -89 -24 -125c-25 -13 -82 -16 -111 -11c-2 67 -26 108 -73 108c-66 0 -94 -43 -128 -206h62c138 0 177 5 210 19c34 -16 47 -46 31 -114l-44 -189c-16 -67 -13 -79 4 -79
c10 0 24 6 40 21c12 -11 24 -32 26 -51c-42 -43 -92 -64 -141 -64c-93 0 -104 66 -81 165l29 114c22 90 17 115 -55 115c-40 0 -61 -3 -95 -11c-26 -162 -51 -261 -77 -325c-61 -142 -187 -256 -308 -256c-55 0 -94 21 -123 47c-42 -54 -95 -88 -157 -88
c-37 0 -72 14 -101 43c-1 27 6 61 16 85c32 -14 69 -20 109 -20c56 0 74 18 95 186c10 84 26 199 49 330c-29 8 -56 11 -77 11c0 22 3 46 13 61h76c38 159 142 240 299 240zM415 627c-65 0 -108 -49 -133 -179h195c10 47 24 88 42 122c-23 36 -56 57 -104 57zM371 386
c-39 0 -70 -4 -104 -12l-48 -253c-14 -77 -37 -152 -69 -212c26 -12 55 -18 92 -18c95 0 130 23 160 128c24 89 44 196 64 357c-24 6 -54 10 -95 10z" />
    <glyph glyph-name="f_f_l" unicode="ffl" horiz-adv-x="991" 
d="M54 448h76c38 159 142 240 299 240c61 0 111 -16 151 -40c50 44 115 66 196 66c53 0 91 -7 124 -23c20 4 37 10 52 19c24 -16 32 -33 24 -77c-26 -149 -54 -292 -81 -431c-20 -102 -13 -117 4 -117c11 0 22 5 42 21c11 -12 22 -33 25 -50c-38 -41 -91 -65 -140 -65
c-70 0 -94 36 -93 93c0 42 7 89 76 438c15 80 9 131 -55 131c-60 0 -95 -41 -124 -205h95c0 -24 -2 -49 -9 -63c-35 0 -69 -4 -101 -11c-26 -162 -51 -261 -77 -325c-61 -142 -187 -256 -308 -256c-55 0 -94 21 -123 47c-42 -54 -95 -88 -157 -88c-37 0 -72 14 -101 43
c-1 27 6 61 16 85c32 -14 69 -20 109 -20c56 0 74 18 95 186c10 84 26 199 49 330c-29 8 -56 11 -77 11c0 22 3 46 13 61zM282 448h196c9 47 23 88 41 122c-22 36 -56 57 -104 57c-65 0 -108 -49 -133 -179zM402 19c24 89 44 196 64 357c-24 6 -54 10 -95 10
c-39 0 -70 -4 -104 -12l-48 -253c-14 -77 -37 -152 -69 -212c26 -12 55 -18 92 -18c95 0 130 23 160 128z" />
    <glyph glyph-name="f_f_t.liga" unicode="fft" horiz-adv-x="1036" 
d="M927 374l-35 -149c-26 -113 -11 -143 20 -143c18 0 41 13 59 32c11 -13 21 -36 23 -55c-29 -36 -95 -68 -151 -68c-107 0 -135 82 -101 224l38 164c-20 5 -35 6 -56 7c-1 20 3 47 13 62h59c13 57 17 79 17 105c0 38 -19 64 -68 64c-55 0 -91 -28 -116 -169h70
c2 -20 -2 -48 -10 -62c-26 0 -46 -3 -74 -12c-26 -162 -51 -261 -77 -325c-61 -142 -187 -256 -308 -256c-55 0 -94 21 -123 47c-42 -54 -95 -88 -157 -88c-37 0 -72 14 -101 43c-1 27 6 61 16 85c32 -14 69 -20 109 -20c56 0 74 18 95 186c10 84 26 199 49 330
c-29 8 -56 11 -77 11c0 22 3 46 13 61h76c40 163 149 229 299 229c66 0 119 -18 161 -42c47 30 107 43 177 43c55 0 94 -10 127 -25c20 4 37 10 53 19c23 -13 28 -30 25 -67c-4 -28 -11 -70 -28 -157h91c0 -24 -2 -49 -9 -63c-36 0 -67 -3 -99 -11zM282 448h195
c10 46 24 85 44 116c-25 36 -59 52 -104 52c-64 0 -111 -39 -135 -168zM402 19c24 89 44 196 64 357c-24 6 -54 10 -95 10c-39 0 -70 -4 -104 -12l-48 -253c-14 -77 -37 -152 -69 -212c26 -12 55 -18 92 -18c95 0 130 23 160 128z" />
    <glyph glyph-name="f_t.liga" unicode="ft" horiz-adv-x="682" 
d="M412 678c56 0 95 -10 128 -25c20 4 37 10 52 19c24 -13 29 -30 25 -67c-3 -28 -10 -70 -27 -157h91c0 -24 -2 -49 -9 -63c-36 0 -67 -3 -99 -11l-35 -149c-26 -113 -11 -143 20 -143c18 0 41 13 58 32c12 -13 22 -36 24 -55c-29 -36 -95 -68 -151 -68
c-108 0 -135 82 -102 224l38 164c-19 5 -34 6 -55 7c-1 20 3 47 12 62h59c14 57 18 79 18 105c0 38 -19 64 -68 64c-56 0 -91 -28 -116 -169h70c1 -20 -3 -48 -10 -62c-27 0 -46 -3 -74 -12c-16 -93 -28 -169 -37 -229c-35 -215 -133 -393 -274 -393c-37 0 -72 14 -101 43
c-1 27 6 61 16 85c32 -14 69 -20 109 -20c56 0 74 18 95 186c10 84 22 195 43 330c-29 8 -55 11 -77 11c0 22 4 46 13 61h75c34 167 137 230 289 230z" />
    <glyph glyph-name=".notdef" horiz-adv-x="453" 
d="M490 677l-132 -677h-352l132 677h352zM170 559c2 0 2 0 2 -1v-11c0 -2 0 -2 -1 -2l-1 -1h3h3v1c-1 0 -2 0 -2 2v13v1c-1 0 -3 -1 -3 -1c-1 0 -1 0 -1 -1zM178 545v-1h3h2v1c-1 0 -1 0 -1 2v13c0 1 -1 1 -1 1s-2 -1 -3 -1v-1c1 0 2 0 2 -1v-11c0 -2 -1 -2 -2 -2zM189 547
v2c2 -1 4 -4 5 -5h3v1c-1 0 -1 0 -3 1l-3 5l2 1c1 2 2 2 3 3h-2h-3s0 -1 1 -1c0 -1 0 -1 -1 -2l-2 -2v10v1c-1 0 -3 -1 -4 -1v-1c2 0 2 0 2 -1v-11c0 -2 -1 -2 -2 -2v-1h3h3l-1 1c-1 0 -1 0 -1 2zM240 560v-1c2 0 2 0 2 -1v-10c0 -2 0 -2 -1 -3c1 -1 3 -1 5 -1c4 0 6 2 6 6
c0 3 -2 5 -4 5s-3 -1 -4 -2v1v6c0 1 0 1 -1 1c0 0 -2 -1 -3 -1zM143 560v-1c1 0 1 0 2 -3c2 -3 4 -8 5 -12h1c2 4 4 8 5 12c1 2 1 3 2 3v1h-2h-2v-1c1 0 1 0 1 -1v-2l-3 -9c-2 4 -3 7 -4 10c-1 0 -1 1 -1 1c0 1 1 1 2 1v1h-3h-3zM163 544c3 0 6 2 6 5c0 4 -2 6 -6 6
c-3 0 -5 -2 -5 -6c0 -3 2 -5 5 -5zM198 549c0 -3 2 -5 6 -5c3 0 5 2 5 5c0 4 -2 6 -5 6c-4 0 -6 -2 -6 -6zM211 545v-1h3h3v1c-1 0 -2 0 -2 2v3c0 2 1 3 2 3s1 0 1 -2h2v3c-1 1 -1 1 -2 1s-2 -1 -3 -1c0 1 0 1 -1 1c0 0 -2 -1 -3 -1v-1c2 0 2 0 2 -1v-5c0 -2 -1 -2 -2 -2z
M221 545v-1h3h3v1c-1 0 -2 0 -2 2v2c0 3 2 5 3 5s2 -1 2 -3v-4c0 -2 0 -2 -1 -2l-1 -1h3h3v1c-1 0 -2 0 -2 2v4c0 3 -1 4 -3 4s-3 -1 -4 -1v1l-4 -1v-1c2 0 2 0 2 -1v-5c0 -2 0 -2 -2 -2zM260 543l4 8c1 2 1 3 2 4h-2h-3v-1c1 0 2 -1 2 -1c0 -1 0 -1 -1 -2l-1 -4v-1
c-1 2 -2 4 -3 5v2s0 1 1 1s1 1 1 1h-4c-1 0 -2 0 -2 -1c1 0 1 -1 2 -3l3 -7c0 -2 0 -2 -1 -3c0 -1 -1 -1 -2 -1h-2v-2h2c2 0 2 0 4 5zM163 554c2 0 3 -2 3 -5s-1 -4 -3 -4s-3 2 -3 5c0 2 1 4 3 4zM203 554c2 0 4 -2 4 -5s-1 -4 -3 -4s-3 2 -3 5c0 2 0 4 2 4zM250 549
c0 -3 -3 -4 -4 -4h-2v4c0 3 2 5 3 5s3 -1 3 -5zM149 531c1 0 2 -1 3 -3v3c0 1 -1 1 -2 1c-2 0 -5 -2 -5 -6v-1h-2v-1h2v-6c0 -2 0 -2 -2 -3v-1h3h3v1c-1 1 -2 1 -2 3v6h2l1 1h-3v2c0 2 1 4 2 4zM164 530c0 -1 0 -1 1 -1s2 0 2 1s-1 2 -2 2s-1 -1 -1 -2zM193 516
c-1 0 -1 1 -1 2v13c0 1 -1 1 -1 1s-2 -1 -3 -1v-1c1 0 1 0 1 -2v-2h-2c-3 0 -6 -3 -6 -6c0 -4 2 -6 5 -6c2 0 3 1 3 2l1 1v-3c1 1 2 1 3 2zM209 530c0 1 0 2 -1 2s-2 -1 -2 -2s1 -1 2 -1s1 0 1 1zM236 514v1c-1 0 -2 1 -2 3v4c0 3 -1 4 -3 4s-3 -1 -4 -2v1v6c0 1 0 1 -1 1
c0 0 -2 -1 -3 -1v-1c2 0 2 0 2 -2v-10c0 -2 -1 -3 -2 -3v-1h3h3v1c-2 0 -2 1 -2 3v2c0 3 1 4 3 4c1 0 2 0 2 -3v-3c0 -2 -1 -3 -2 -3v-1h3h3zM255 514v1c-1 0 -2 1 -2 3v13v1c-1 0 -3 -1 -4 -1v-1c2 0 2 0 2 -2v-10c0 -2 0 -3 -2 -3v-1h3h3zM278 514v1c-1 0 -2 1 -2 3v4
c0 3 -1 4 -3 4s-3 -1 -4 -2v1v6v1c-1 0 -3 -1 -4 -1v-1c2 0 2 0 2 -2v-10c0 -2 0 -3 -2 -3v-1h3h3v1c-1 0 -2 1 -2 3v2c0 3 2 4 3 4s2 0 2 -3v-3c0 -2 0 -3 -2 -3v-1h3h3zM359 515c1 0 1 1 1 1c-2 0 -2 1 -2 2v13c0 1 0 1 -1 1c0 0 -2 -1 -3 -1v-1c2 0 2 0 2 -2v-2h-2
c-4 0 -6 -3 -6 -6c0 -4 1 -6 4 -6c2 0 3 1 4 2v-1s0 -1 1 -1c0 1 2 1 2 1zM261 514c1 0 2 1 3 1c0 1 -1 1 -2 1s-2 0 -2 2v6h3v1h-3v3v2c-1 -1 -1 -1 -2 -1v-4h-2v-1h2v-7c0 -2 1 -3 3 -3zM161 522v3c-1 0 -1 1 -2 1s-2 -1 -3 -1v1c-1 -1 -3 -1 -4 -2c2 0 2 0 2 -2v-4
c0 -2 0 -2 -2 -3v-1h3h3v1c-1 1 -2 1 -2 3v2c0 2 1 4 2 4s1 0 1 -2h2zM168 514v1c-1 0 -2 1 -2 3v8c-1 -1 -3 -1 -3 -1c-1 0 -1 -1 -1 -1c2 0 2 0 2 -2v-4c0 -2 0 -3 -2 -3v-1h3h3zM179 520v1c0 3 -1 5 -4 5s-5 -3 -5 -6s1 -6 5 -6c2 0 3 1 4 2v1c-1 -1 -2 -1 -3 -1
c-3 0 -4 2 -4 4h7zM204 522v3c-1 0 -1 1 -2 1s-2 -1 -3 -1c0 0 0 1 -1 1c0 -1 -2 -1 -3 -2c2 0 2 0 2 -2v-4c0 -2 -1 -2 -2 -3v-1h3h3v1c-1 1 -2 1 -2 3v2c0 2 1 4 2 4s1 0 1 -2h2zM211 514v1c-1 0 -2 1 -2 3v8c-1 -1 -3 -1 -4 -2c2 0 2 0 2 -2v-4c0 -2 0 -3 -2 -3v-1h3h3z
M218 514c2 0 3 1 4 2c0 1 -1 1 -1 1c-1 -1 -2 -1 -3 -1c-2 0 -3 2 -3 4c0 3 1 5 3 5c1 0 2 -1 3 -3v3c-1 0 -2 1 -3 1c-4 0 -5 -3 -5 -6c0 -4 2 -6 5 -6zM247 515c1 0 1 1 1 1c-2 0 -2 1 -2 2v3c0 2 0 3 -1 4c0 0 -1 1 -2 1c-2 0 -3 -1 -4 -1v-2s0 -1 1 -1c0 1 0 3 2 3
c1 0 1 0 2 -1v-3c-2 0 -6 -1 -6 -4c0 -2 1 -3 3 -3c1 0 2 1 2 1l1 1v-1l1 -1c1 1 2 1 2 1zM290 516c-1 0 -2 1 -2 2v3c0 2 0 3 -1 4c0 0 -1 1 -2 1c-2 0 -3 -1 -4 -1v-2s0 -1 1 -1c0 1 1 3 2 3s1 0 2 -1v-3c-2 0 -6 -1 -6 -4c0 -2 1 -3 3 -3c1 0 2 1 3 1l1 -1c1 1 2 1 3 2z
M303 516c-1 0 -1 1 -1 2v7s0 1 -1 1c0 0 -2 -1 -3 -1v-1c1 0 2 0 2 -1v-3c0 -3 -2 -4 -3 -4c-2 0 -2 1 -2 3v6s0 1 -1 1c-1 -1 -2 -1 -3 -2c1 0 2 0 2 -2v-3c0 -4 1 -5 3 -5c1 0 2 1 3 2c0 0 1 0 1 1v-2v-1c1 1 3 2 3 2zM309 514c3 0 5 2 5 4c0 1 -1 2 -4 3c-2 1 -3 2 -3 3
c0 0 1 1 2 1c2 0 3 -1 4 -3v3c-1 1 -2 1 -4 1c-1 0 -4 -1 -4 -3s1 -3 4 -4c2 -1 3 -1 3 -2s-1 -2 -2 -2c-2 0 -3 1 -3 3h-2v-1v-2c1 0 2 -1 4 -1zM325 520v1c0 3 -1 5 -4 5s-5 -3 -5 -6s1 -6 5 -6c2 0 3 1 4 2v1c-1 -1 -2 -1 -3 -1c-3 0 -4 2 -4 4h7zM340 514v1
c-1 0 -2 1 -2 3v4c0 3 -1 4 -3 4s-3 -1 -4 -2v1v1c-1 -1 -3 -1 -4 -2c2 0 2 0 2 -2v-4c0 -2 0 -3 -2 -3v-1h3h3v1c-1 0 -2 1 -2 3v2c0 3 2 4 3 4s2 0 2 -3v-3c0 -2 0 -3 -1 -3s-1 0 -1 -1h3h3zM367 516c-2 0 -3 2 -3 4h7v1c0 3 -1 5 -5 5c-3 0 -5 -3 -5 -6s2 -6 6 -6
c1 0 3 1 4 2c0 1 0 1 -1 1c-1 -1 -2 -1 -3 -1zM175 525c1 0 2 -2 2 -4h-5c0 3 1 4 3 4zM184 520c0 4 2 5 3 5s2 -1 2 -1v-4c0 -3 -1 -4 -3 -4c-1 0 -2 1 -2 4zM321 525c1 0 2 -2 2 -4h-5c0 3 1 4 3 4zM350 520c0 4 2 5 4 5c1 0 1 -1 2 -1v-4c0 -3 -2 -4 -3 -4s-3 1 -3 4z
M366 525c2 0 2 -2 2 -4h-4c0 3 1 4 2 4zM240 517c0 2 2 3 4 3v-1c0 -2 -1 -3 -2 -3s-2 0 -2 1zM282 517c0 2 3 3 4 3v-1c0 -2 -1 -3 -2 -3s-2 0 -2 1zM344 514c0 0 1 1 1 2c0 0 0 1 -1 1s-2 -1 -2 -1c0 -1 1 -2 2 -2zM287 516c0 0 -1 0 -1 -1c0 1 0 1 1 1z" />
    <glyph glyph-name="space" unicode=" " horiz-adv-x="191" 
 />
    <glyph glyph-name="exclam" unicode="!" horiz-adv-x="421" 
d="M362 640c-28 -90 -74 -261 -107 -404c-27 -2 -56 0 -76 10c18 162 25 296 28 432c45 6 101 21 137 38c25 -8 33 -28 18 -76zM194 155c45 0 86 -35 74 -95c-8 -42 -35 -69 -84 -69c-57 0 -91 36 -79 97c8 42 39 67 89 67z" />
    <glyph glyph-name="quotedbl" unicode="&#x22;" horiz-adv-x="372" 
d="M229 716c20 -9 26 -33 13 -66c-18 -47 -38 -118 -60 -210c-22 0 -43 3 -60 13c13 81 21 165 22 237c30 3 62 13 85 26zM384 716c20 -9 25 -33 13 -66c-18 -47 -38 -118 -60 -210c-22 0 -43 3 -60 13c13 81 21 165 22 237c30 3 62 13 85 26z" />
    <glyph glyph-name="numbersign" unicode="#" horiz-adv-x="574" 
d="M568 429h-100l-35 -166h109c0 -26 -5 -44 -16 -63h-106l-44 -208c-25 1 -45 7 -61 22l40 186l-144 -1l-44 -207c-26 1 -47 10 -59 26l38 181l-114 -2c0 23 4 43 15 66h113l35 165c-43 0 -80 -1 -110 -2c0 24 4 45 15 66h109l47 222c25 -2 45 -9 59 -22l-42 -200h144
l47 222c24 -2 44 -7 60 -20l-43 -202h103c0 -28 -5 -46 -16 -63zM403 429h-144l-35 -166h144z" />
    <glyph glyph-name="dollar" unicode="$" horiz-adv-x="501" 
d="M397 486c-1 61 -17 99 -44 119c-14 -69 -27 -133 -39 -195c82 -51 175 -109 152 -240c-18 -104 -116 -173 -238 -179l-14 -80c-25 1 -51 5 -70 19l12 64c-70 7 -112 31 -159 68c17 48 29 98 34 149c28 6 61 8 90 1c-7 -78 8 -125 50 -144l40 212
c-74 49 -151 110 -126 247c17 94 101 150 214 157l13 70c26 0 48 -4 69 -17l-12 -55c56 -6 99 -24 125 -45c-7 -49 -12 -102 -11 -144c-26 -8 -56 -11 -86 -7zM207 550c-7 -42 14 -72 47 -98l32 168c-42 -4 -70 -24 -79 -70zM326 133c9 46 -16 77 -53 105l-33 -179
c43 5 79 34 86 74z" />
    <glyph glyph-name="percent" unicode="%" horiz-adv-x="710" 
d="M101 46l514 639c25 -11 42 -31 47 -56c-203 -244 -315 -383 -515 -638c-22 9 -43 32 -46 55zM253 677c98 0 150 -72 128 -181c-19 -82 -83 -137 -159 -137c-103 0 -158 73 -135 183c17 81 84 135 166 135zM242 616c-32 0 -58 -29 -66 -72c-14 -74 7 -124 52 -124
c29 0 55 29 63 73c14 74 -5 123 -49 123zM535 309c99 0 150 -72 128 -181c-18 -82 -82 -137 -159 -137c-103 0 -158 73 -135 183c17 81 84 135 166 135zM524 248c-31 0 -57 -29 -66 -72c-14 -74 7 -124 52 -124c29 0 55 29 63 73c15 74 -5 123 -49 123z" />
    <glyph glyph-name="ampersand" unicode="&#x26;" horiz-adv-x="770" 
d="M713 111c14 -9 28 -33 31 -49c-25 -36 -81 -71 -145 -71c-51 0 -86 5 -131 43c-64 -27 -134 -43 -207 -43c-187 0 -268 82 -244 215c19 104 98 150 182 186c-46 87 -50 141 -40 199c11 64 70 126 226 126c133 0 194 -60 178 -146c-21 -107 -105 -142 -191 -177
c19 -30 43 -65 73 -105c44 -61 77 -103 103 -133c25 28 43 61 51 99c15 81 -21 111 -88 111c-3 21 -1 41 4 59c45 5 118 25 151 42c49 -17 68 -67 51 -154c-15 -76 -60 -145 -124 -200c25 -19 43 -22 64 -22c20 0 37 5 56 20zM299 592c-7 -36 0 -74 38 -142
c51 26 90 60 101 116c11 54 -14 90 -64 90c-42 0 -69 -27 -75 -64zM168 203c-16 -89 39 -148 128 -148c44 0 88 8 128 22c-30 33 -66 79 -113 143c-29 39 -53 74 -73 105c-34 -28 -60 -66 -70 -122z" />
    <glyph glyph-name="quotesingle" unicode="'" horiz-adv-x="217" 
d="M229 716c20 -9 26 -33 13 -66c-18 -47 -38 -118 -60 -210c-22 0 -43 3 -60 13c13 81 21 165 22 237c30 3 62 13 85 26z" />
    <glyph glyph-name="parenleft" unicode="(" horiz-adv-x="325" 
d="M376 723c-109 -120 -166 -246 -199 -440c-37 -213 -25 -402 33 -542c-15 -10 -35 -13 -56 -12c-94 150 -134 349 -101 537c32 187 99 320 264 475c24 2 47 -5 59 -18z" />
    <glyph glyph-name="parenright" unicode=")" horiz-adv-x="317" 
d="M274 238c-36 -204 -113 -347 -275 -509c-21 -1 -43 3 -59 14c118 154 177 289 211 484c35 203 24 362 -34 497c15 11 35 17 54 17c100 -168 133 -329 103 -503z" />
    <glyph glyph-name="asterisk" unicode="*" horiz-adv-x="483" 
d="M383 657c-27 20 -68 27 -106 23c3 -54 3 -97 0 -147c-43 35 -75 64 -107 100c-31 -19 -48 -52 -53 -91c54 -13 92 -26 137 -45c-42 -27 -84 -51 -128 -71c9 -40 31 -66 69 -82c31 47 55 80 88 119c13 -52 21 -97 26 -146c42 0 80 18 104 45c-35 42 -61 75 -90 119
c52 -5 99 -12 150 -23c9 41 6 79 -12 112c-47 -18 -91 -32 -142 -44c19 46 41 92 64 131z" />
    <glyph glyph-name="plus" unicode="+" horiz-adv-x="543" 
d="M319 299h203c-1 -25 -5 -49 -19 -68h-197c-14 -75 -27 -151 -40 -227c-26 -4 -53 -2 -71 12l41 214c-66 0 -134 -1 -201 -3c1 27 6 52 20 72h194l39 204c24 6 49 5 72 -4c-14 -67 -28 -133 -41 -200z" />
    <glyph glyph-name="comma" unicode="," horiz-adv-x="245" 
d="M145 149c24 -12 38 -43 25 -109c-16 -87 -72 -167 -145 -223c-24 3 -41 14 -49 30c85 81 121 163 28 179c0 32 9 65 24 90c42 2 89 16 117 33z" />
    <glyph glyph-name="hyphen" unicode="-" horiz-adv-x="343" 
d="M55 314h269c-1 -35 -6 -58 -18 -83c-66 0 -157 0 -272 -3c4 40 9 64 21 86z" />
    <glyph glyph-name="period" unicode="." horiz-adv-x="244" 
d="M99 155c46 0 86 -35 74 -95c-8 -42 -35 -69 -84 -69c-57 0 -91 36 -79 97c8 42 39 67 89 67z" />
    <glyph glyph-name="slash" unicode="/" horiz-adv-x="296" 
d="M-31 27l346 690c28 -4 46 -12 62 -30c-136 -261 -220 -427 -346 -696c-28 4 -48 15 -62 36z" />
    <glyph glyph-name="zero" unicode="0" horiz-adv-x="615" 
d="M345 508c-154 0 -265 -84 -292 -221c-33 -177 55 -296 235 -296c148 0 257 88 284 231c33 172 -53 286 -227 286zM322 442c86 0 126 -99 97 -251c-17 -88 -64 -136 -118 -136c-86 0 -125 102 -99 252c15 84 61 135 120 135z" />
    <glyph glyph-name="one" unicode="1" horiz-adv-x="416" 
d="M120 155l36 191c13 73 2 87 -54 95c-3 18 -4 40 -1 62c43 -3 91 -3 145 -3c48 0 100 0 150 3c0 -21 -3 -42 -12 -62c-53 -8 -63 -21 -78 -106l-34 -179c-16 -78 -4 -88 50 -97c3 -19 4 -40 2 -62c-50 3 -91 3 -145 3c-57 0 -109 -1 -150 -3c2 24 6 43 14 62
c52 7 62 18 77 96z" />
    <glyph glyph-name="two" unicode="2" horiz-adv-x="508" 
d="M463 376c-10 -57 -49 -91 -139 -150c-78 -54 -59 -35 -141 -100c21 2 40 2 59 2c30 0 58 -3 71 -3c25 0 36 12 47 60c24 3 58 -2 76 -11c-11 -48 -16 -104 -14 -144c-12 -26 -29 -33 -59 -33c-21 0 -77 3 -143 3c-61 0 -124 0 -192 -3c-11 18 -15 46 -12 71
c67 63 94 83 182 150c66 50 102 90 112 140c11 55 -14 85 -58 85s-70 -32 -86 -131c-33 -1 -64 4 -85 14c13 41 20 90 21 133c56 33 125 47 191 47c123 0 183 -48 170 -130z" />
    <glyph glyph-name="three" unicode="3" horiz-adv-x="499" 
d="M452 361c-12 -46 -41 -89 -133 -133c86 -30 125 -109 101 -202c-31 -122 -151 -197 -298 -197c-56 0 -93 9 -119 29c1 18 17 46 29 53c20 -10 49 -16 84 -16c86 0 140 46 156 118c17 80 -25 136 -124 133c-11 14 -15 42 -10 63c96 26 153 68 167 141c11 58 -14 93 -59 93
c-43 0 -71 -32 -87 -131c-28 -2 -62 3 -86 14c12 39 20 90 21 133c54 31 114 47 186 47c137 0 194 -57 172 -145z" />
    <glyph glyph-name="four" unicode="4" horiz-adv-x="575" 
d="M510 96c-12 -26 -23 -60 -30 -96h-77l-29 -153c-47 3 -86 -3 -123 -18c-18 9 -24 23 -20 46l23 124c-101 -1 -178 -2 -227 -4c-14 22 -19 49 -18 78c136 143 268 285 397 433c32 0 61 -3 89 -13l-70 -372h46c19 0 31 -8 39 -25zM231 219c-29 -30 -59 -61 -97 -98h144
l14 73c12 66 20 103 31 136c-28 -37 -59 -74 -92 -111z" />
    <glyph glyph-name="five" unicode="5" horiz-adv-x="482" 
d="M383 555c26 3 57 1 79 -8c-14 -47 -21 -101 -25 -150c-7 -16 -21 -24 -45 -24c-98 0 -172 0 -232 -3l-22 -75c193 -24 289 -120 259 -258c-30 -136 -158 -208 -301 -208c-50 0 -90 9 -116 25c4 23 12 41 27 56c26 -11 56 -15 82 -15c85 0 145 46 160 119
c19 90 -49 149 -180 160c-13 14 -19 29 -18 50l86 279c67 -3 124 -3 183 -3c41 0 57 24 63 55z" />
    <glyph glyph-name="six" unicode="6" horiz-adv-x="574" 
d="M526 582c-156 -30 -255 -105 -300 -216c45 22 81 29 125 29c123 0 189 -83 164 -208c-23 -122 -120 -196 -257 -196c-161 0 -234 110 -197 296c40 208 218 338 462 351c8 -12 9 -32 3 -56zM283 324c-29 0 -51 -5 -75 -15l-3 -17c-27 -145 -2 -234 64 -234
c47 0 84 42 97 109c18 94 -17 157 -83 157z" />
    <glyph glyph-name="seven" unicode="7" horiz-adv-x="479" 
d="M461 503c12 -17 18 -39 18 -60c-134 -181 -173 -245 -202 -311c-27 -59 -39 -122 -42 -239c-41 -12 -88 -38 -118 -63c-21 6 -34 26 -34 64c0 77 28 163 272 478h-111c-52 0 -75 -18 -91 -72c-33 -1 -61 4 -82 15c18 63 30 125 37 188c57 -3 127 -3 185 -3
c48 0 107 0 168 3z" />
    <glyph glyph-name="eight" unicode="8" horiz-adv-x="552" 
d="M527 491c-13 -61 -61 -102 -133 -134c61 -48 120 -119 93 -222c-26 -96 -109 -144 -241 -144c-149 0 -234 61 -207 181c18 73 65 119 152 161c-53 45 -87 101 -68 174c22 84 105 130 224 130c138 0 197 -63 180 -146zM393 487c12 61 -15 92 -57 92c-34 0 -59 -19 -69 -54
c-17 -60 28 -99 68 -126c32 23 51 49 58 88zM338 126c17 72 -19 111 -88 162c-37 -25 -57 -56 -66 -103c-14 -77 15 -130 74 -130c40 0 69 22 80 71z" />
    <glyph glyph-name="nine" unicode="9" horiz-adv-x="570" 
d="M327 506c150 0 228 -106 191 -290c-44 -221 -230 -369 -489 -385c-7 11 -9 32 -4 55c178 34 270 121 317 229c-36 -18 -75 -26 -116 -26c-129 0 -187 92 -160 226c24 117 115 191 261 191zM375 226c26 144 -7 213 -66 213c-48 0 -83 -44 -95 -109c-16 -89 2 -170 84 -170
c22 0 44 5 65 15c5 17 9 34 12 51z" />
    <glyph glyph-name="colon" unicode=":" horiz-adv-x="245" 
d="M157 451c46 0 86 -35 75 -95c-9 -43 -36 -69 -84 -69c-57 0 -92 36 -79 97c7 41 39 67 88 67zM103 174c45 0 86 -36 74 -95c-8 -43 -35 -69 -84 -69c-57 0 -91 36 -79 97c8 41 39 67 89 67z" />
    <glyph glyph-name="semicolon" unicode=";" horiz-adv-x="254" 
d="M163 451c46 0 86 -35 74 -95c-8 -43 -35 -69 -84 -69c-57 0 -91 36 -79 97c8 41 39 67 89 67zM149 149c24 -12 39 -43 26 -109c-16 -87 -73 -167 -145 -223c-25 3 -41 14 -50 30c86 81 122 163 29 179c0 32 8 65 24 90c42 2 88 16 116 33z" />
    <glyph glyph-name="less" unicode="&#x3c;" horiz-adv-x="474" 
d="M103 262l268 -227c1 -29 -7 -61 -20 -74c-119 110 -212 191 -314 273c-2 22 4 51 19 74l358 245c25 -4 46 -18 58 -38z" />
    <glyph glyph-name="equal" unicode="=" horiz-adv-x="527" 
d="M70 378h447c-1 -26 -8 -52 -22 -72c-140 0 -284 0 -446 -3c0 27 7 54 21 75zM40 203h448c-1 -26 -8 -52 -22 -72c-141 0 -285 0 -447 -3c0 27 7 54 21 75z" />
    <glyph glyph-name="greater" unicode="&#x3e;" horiz-adv-x="455" 
d="M137 557l281 -267c9 -22 9 -51 1 -78c-147 -82 -257 -150 -403 -245c-16 19 -21 44 -15 69l362 219l-294 276c16 16 43 26 68 26z" />
    <glyph glyph-name="question" unicode="?" horiz-adv-x="534" 
d="M199 672c41 25 102 44 163 44c127 0 191 -56 174 -146c-26 -131 -188 -147 -215 -284c-3 -18 -4 -42 -1 -62c-19 -11 -43 -15 -65 -14c-24 17 -38 70 -28 125c25 128 139 145 157 240c10 51 -7 80 -44 80c-34 0 -61 -30 -93 -132c-33 0 -53 5 -73 17c16 52 22 85 25 132z
M260 155c46 0 86 -36 74 -96c-8 -42 -35 -68 -84 -68c-57 0 -91 36 -79 97c8 41 40 67 89 67z" />
    <glyph glyph-name="at" unicode="@" horiz-adv-x="855" 
d="M567 -9c-90 0 -97 75 -78 156c-43 -97 -108 -156 -185 -156c-108 0 -128 108 -105 228c28 139 124 248 288 248c34 0 66 -5 90 -14c30 3 59 7 85 14c21 -14 28 -33 15 -92l-47 -207c-16 -72 -8 -82 10 -82c55 0 104 71 125 188c37 207 -69 327 -278 327
c-188 0 -336 -130 -370 -329c-45 -255 73 -411 312 -411c103 0 199 39 275 96c18 -6 29 -21 33 -38c-75 -72 -186 -121 -324 -121c-276 0 -429 176 -379 464c42 239 231 398 473 398c247 0 372 -139 331 -373c-29 -164 -143 -296 -271 -296zM382 101c34 0 103 70 138 235
l13 56c-17 7 -42 11 -60 11c-66 0 -99 -61 -117 -146c-21 -103 -10 -156 26 -156z" />
    <glyph glyph-name="A" unicode="A" horiz-adv-x="700" 
d="M642 59c4 -16 5 -39 2 -62c-37 3 -106 3 -137 3c-33 0 -110 0 -149 -3c0 24 4 46 11 62c57 9 66 27 53 79l-12 52c-79 0 -165 -2 -246 -7l-20 -35c-33 -55 -25 -81 22 -89c3 -19 4 -40 0 -62c-26 2 -77 3 -109 3c-34 0 -64 -1 -89 -3c1 23 4 43 12 62c35 9 54 29 101 106
c73 119 158 264 299 511c21 6 38 6 61 6c57 -189 106 -374 140 -515c21 -91 33 -102 61 -108zM201 246h195c-13 49 -26 99 -40 148c-10 32 -16 68 -20 107c-18 -40 -37 -76 -54 -109c-26 -49 -53 -98 -81 -146z" />
    <glyph glyph-name="B" unicode="B" horiz-adv-x="663" 
d="M642 507c-12 -71 -76 -126 -177 -140c132 -7 183 -77 162 -195c-20 -104 -115 -172 -307 -172c-101 0 -218 0 -304 -3c2 24 7 44 15 62c56 7 64 20 80 114l61 352c13 74 -2 85 -54 92c-4 18 -4 40 -1 62c38 -2 76 -3 110 -3c51 0 122 3 189 3c184 0 247 -57 226 -172z
M487 510c13 71 -27 107 -96 107c-19 0 -34 -5 -52 -11l-38 -223h30c84 0 141 48 156 127zM459 186c18 100 -25 131 -143 131h-27l-28 -165c-16 -85 6 -92 56 -92c68 0 128 49 142 126z" />
    <glyph glyph-name="C" unicode="C" horiz-adv-x="619" 
d="M663 629c-16 -46 -26 -96 -33 -153c-21 -8 -50 -10 -77 -5c16 125 -28 153 -101 153c-133 0 -215 -132 -237 -283c-21 -150 26 -271 171 -271c56 0 114 16 171 47c14 -14 20 -33 21 -55c-70 -48 -146 -71 -235 -71c-214 0 -319 151 -287 356c35 231 221 338 392 338
c82 0 150 -16 215 -56z" />
    <glyph glyph-name="D" unicode="D" horiz-adv-x="734" 
d="M408 678c190 0 365 -61 313 -348c-48 -273 -269 -330 -426 -330h-3c-72 0 -211 0 -275 -3c1 22 5 43 13 62c56 6 66 23 81 114l61 352c13 74 -3 86 -54 92c-5 21 -5 45 -1 62c44 -2 116 -3 174 -3c35 0 75 2 117 2zM565 338c41 223 -53 280 -167 280
c-22 0 -41 -3 -61 -10l-76 -448c-15 -84 -4 -98 63 -98c90 0 200 50 241 276z" />
    <glyph glyph-name="E" unicode="E" horiz-adv-x="614" 
d="M340 614l-41 -240h28c70 0 94 13 103 74c23 4 46 6 72 3c-8 -35 -16 -70 -23 -121c-5 -41 -9 -79 -10 -112c-27 1 -49 5 -69 14c3 51 -11 80 -80 80h-31l-25 -147c-16 -89 -2 -103 65 -103h16c92 0 129 40 165 136c31 -5 53 -13 74 -31c-18 -45 -38 -108 -48 -170
c-59 3 -153 3 -239 3c-82 0 -208 0 -279 -3c1 22 5 41 14 63c56 6 65 22 80 113l60 345c14 77 0 91 -55 99c-3 19 -4 38 0 62c68 -3 170 -3 229 -3c123 0 201 1 278 3c-7 -53 -12 -119 -8 -174c-22 -6 -48 -10 -77 -9c-4 77 -18 118 -130 118h-69z" />
    <glyph glyph-name="F" unicode="F" horiz-adv-x="576" 
d="M621 679c-8 -53 -12 -119 -8 -174c-22 -6 -49 -10 -77 -9c-4 77 -18 118 -130 118h-67l-47 -275h40c70 0 95 14 104 74c23 5 46 6 71 3c-8 -35 -15 -70 -22 -121c-6 -41 -10 -80 -11 -114c-26 1 -49 5 -68 14c2 57 -12 83 -81 83h-43l-19 -111c-14 -82 -9 -94 77 -108
c4 -18 5 -40 3 -62c-53 3 -105 3 -163 3s-113 0 -164 -3c2 24 7 45 14 62c55 7 66 23 81 109l60 350c14 74 3 91 -53 99c-3 18 -4 40 -1 62c69 -3 155 -3 227 -3c122 0 200 1 277 3z" />
    <glyph glyph-name="G" unicode="G" horiz-adv-x="675" 
d="M457 685c96 0 169 -18 227 -55c-15 -43 -26 -98 -32 -152c-25 -10 -53 -12 -80 -7c12 122 -29 152 -114 152c-140 0 -222 -127 -244 -282c-23 -156 18 -284 142 -284c30 0 50 3 71 12c22 11 29 25 39 84c16 96 5 108 -60 115c-3 18 -4 42 -1 62c47 -3 96 -3 138 -3
c48 0 84 0 140 3c-1 -21 -4 -42 -12 -62c-39 -5 -48 -11 -68 -121c-6 -42 -7 -62 1 -88c-65 -38 -162 -68 -266 -68c-210 0 -315 148 -283 356c36 234 220 338 402 338z" />
    <glyph glyph-name="H" unicode="H" horiz-adv-x="786" 
d="M661 676c48 0 99 0 150 3c-1 -21 -4 -42 -12 -62c-53 -8 -63 -21 -79 -106l-61 -355c-14 -77 -3 -88 50 -97c4 -19 5 -40 2 -62c-49 3 -91 3 -144 3c-58 0 -111 -1 -151 -3c1 24 6 43 14 62c51 7 62 19 76 96l26 154c-75 0 -171 -1 -245 -6l-25 -147
c-14 -77 -4 -88 50 -97c3 -19 4 -40 2 -62c-50 3 -91 3 -145 3c-57 0 -110 -1 -151 -3c2 24 6 43 15 62c51 7 62 19 76 96l63 367c12 73 2 87 -54 95c-3 18 -4 40 -1 62c44 -3 92 -3 147 -3c48 0 99 0 149 3c0 -21 -3 -42 -11 -62c-54 -8 -64 -21 -79 -106l-24 -138h244
l26 149c13 73 2 87 -54 95c-3 18 -4 40 -1 62c44 -3 92 -3 147 -3z" />
    <glyph glyph-name="I" unicode="I" horiz-adv-x="389" 
d="M109 155l63 367c12 73 2 87 -54 95c-3 18 -4 40 -1 62c44 -3 92 -3 147 -3c48 0 99 0 149 3c0 -21 -3 -42 -11 -62c-54 -8 -64 -21 -79 -106l-61 -355c-14 -77 -4 -88 50 -97c3 -19 4 -40 2 -62c-50 3 -91 3 -145 3c-57 0 -110 -1 -151 -3c2 24 6 43 15 62
c51 7 62 19 76 96z" />
    <glyph glyph-name="J" unicode="J" horiz-adv-x="350" 
d="M108 679c39 -3 95 -3 147 -3c58 0 105 1 150 3c-1 -24 -5 -45 -10 -62c-54 -7 -65 -19 -82 -110l-67 -384c-32 -186 -80 -288 -293 -370c-18 14 -24 37 -24 63c81 48 130 107 153 241l81 466c13 72 5 87 -53 94c-5 19 -5 40 -2 62z" />
    <glyph glyph-name="K" unicode="K" horiz-adv-x="720" 
d="M736 616c-56 -6 -81 -17 -158 -85l-169 -148c57 -56 102 -126 144 -223c20 -46 36 -59 59 -59c15 0 29 3 42 13c14 -11 26 -32 31 -51c-41 -46 -91 -72 -151 -72c-67 1 -103 29 -129 107c-33 94 -67 160 -115 222l-29 -165c-13 -76 -4 -89 41 -96c3 -19 4 -40 2 -62
c-50 3 -81 3 -135 3c-57 0 -110 -1 -151 -3c2 24 6 43 15 62c56 5 63 26 77 107l62 356c12 73 2 87 -54 95c-3 18 -4 40 -1 62c44 -3 92 -3 147 -3c48 0 99 0 149 3c0 -21 -3 -42 -11 -62c-54 -8 -64 -21 -79 -106l-24 -140l175 158c71 64 71 79 36 88c-4 18 -5 41 -3 62
c40 -3 80 -3 119 -3c40 0 89 1 120 3c0 -19 -3 -42 -10 -63z" />
    <glyph glyph-name="L" unicode="L" horiz-adv-x="598" 
d="M324 62h12c88 0 126 43 165 139c31 -6 55 -16 76 -35c-18 -40 -39 -106 -49 -169c-54 3 -153 3 -230 3c-74 0 -221 -1 -281 -3c2 22 5 41 13 62c57 6 65 23 80 114l62 352c13 71 1 84 -54 92c-4 18 -4 41 -1 62c44 -3 91 -3 148 -3c48 0 112 0 162 3
c0 -21 -4 -43 -12 -62c-67 -8 -79 -23 -93 -109l-61 -348c-14 -84 -3 -98 63 -98z" />
    <glyph glyph-name="M" unicode="M" horiz-adv-x="934" 
d="M851 499c-6 -113 -13 -219 -22 -315c-9 -98 0 -116 48 -125c4 -18 4 -40 2 -62c-41 3 -92 3 -151 3c-50 0 -104 0 -151 -3c0 20 3 42 11 62c67 9 77 31 87 129c10 97 17 197 23 302c-87 -167 -182 -332 -280 -493c-23 -6 -42 -6 -61 -6c-40 171 -86 340 -138 509
c-23 -102 -53 -211 -73 -291c-30 -111 -25 -137 38 -150c4 -19 4 -41 2 -62c-34 3 -70 3 -103 3c-40 0 -78 0 -115 -3c0 20 4 43 12 62c47 14 63 40 96 145c35 115 61 213 87 324c15 70 6 82 -48 89c-4 19 -4 40 -1 62c34 -3 83 -3 109 -3c32 0 72 0 110 3
c49 -159 92 -320 128 -481c95 158 182 318 266 481c44 -3 82 -3 106 -3c29 0 61 0 99 3c0 -22 -4 -43 -10 -62c-52 -9 -66 -33 -71 -118z" />
    <glyph glyph-name="N" unicode="N" horiz-adv-x="696" 
d="M637 676c34 0 78 0 114 3c-1 -20 -6 -46 -12 -62c-52 -16 -65 -40 -83 -145l-82 -473c-21 -6 -43 -8 -70 -8c-86 171 -175 336 -269 501l-50 -290c-19 -105 -12 -128 55 -143c4 -19 4 -40 1 -62c-42 3 -86 3 -114 3c-35 0 -70 0 -113 -3c1 22 5 45 11 62
c55 14 76 38 94 139l67 380l-5 8c-13 23 -25 28 -63 31c-4 19 -4 39 -1 62c32 -3 65 -3 97 -3c33 0 68 0 95 3c84 -142 167 -294 241 -443l40 240c17 105 8 126 -59 141c-3 19 -3 40 -1 62c38 -3 79 -3 107 -3z" />
    <glyph glyph-name="O" unicode="O" 
d="M440 685c205 0 331 -139 287 -368c-36 -188 -184 -326 -384 -326c-212 0 -327 153 -285 371c37 195 191 323 382 323zM426 624c-100 0 -179 -107 -208 -257c-33 -173 11 -313 138 -313c107 0 184 112 213 273c31 169 -29 297 -143 297z" />
    <glyph glyph-name="P" unicode="P" horiz-adv-x="620" 
d="M458 679c146 0 212 -89 185 -239c-22 -125 -126 -209 -276 -209c-23 0 -42 3 -56 10c-1 15 5 45 12 59c6 -3 17 -5 32 -5c65 0 122 51 140 146c20 107 -12 175 -105 175c-18 0 -32 -1 -51 -7l-75 -442c-15 -82 -7 -96 77 -108c4 -19 4 -40 2 -62c-53 3 -104 3 -157 3
c-64 0 -116 0 -167 -3c2 21 6 44 14 63c55 7 63 22 78 108l62 357c13 70 1 84 -54 92c-4 17 -5 40 -2 62c50 -3 113 -3 159 -3c47 0 110 3 182 3z" />
    <glyph glyph-name="Q" unicode="Q" 
d="M718 -97c14 -11 27 -33 30 -52c-32 -39 -86 -70 -148 -70c-67 0 -109 28 -141 99c-28 63 -62 101 -128 111c-204 6 -314 157 -273 371c37 195 191 323 382 323c205 0 331 -139 287 -368c-28 -147 -124 -263 -260 -307c47 -13 86 -40 144 -91c33 -29 46 -35 67 -34
c14 1 28 7 40 18zM218 367c-33 -173 11 -313 138 -313c107 0 184 112 213 273c31 169 -29 297 -143 297c-100 0 -179 -107 -208 -257z" />
    <glyph glyph-name="R" unicode="R" horiz-adv-x="704" 
d="M633 113c14 -12 27 -32 32 -51c-41 -46 -94 -71 -154 -71c-69 0 -99 40 -130 139c-23 70 -42 110 -69 149h-29l-22 -126c-13 -76 -5 -87 38 -94c4 -20 4 -40 2 -62c-54 3 -79 3 -134 3c-61 0 -106 -1 -149 -3c2 22 6 42 15 62c52 5 63 23 78 109l61 357
c12 69 2 84 -54 92c-4 18 -4 40 -1 62c49 -3 98 -3 154 -3c44 0 117 4 176 4c154 0 230 -81 209 -198c-17 -96 -92 -163 -204 -184c32 -30 56 -67 86 -139c18 -46 35 -61 56 -61c15 0 27 5 39 15zM339 607l-44 -257c12 -1 21 -1 30 -1c86 0 154 52 170 139s-24 130 -93 130
c-20 0 -43 -3 -63 -11z" />
    <glyph glyph-name="S" unicode="S" horiz-adv-x="501" 
d="M323 685c78 0 138 -21 171 -48c-7 -49 -12 -102 -11 -144c-26 -8 -56 -11 -86 -7c-2 94 -37 134 -98 134c-50 0 -83 -20 -92 -70c-26 -147 300 -147 259 -380c-19 -109 -125 -179 -255 -179c-106 0 -156 25 -214 71c17 48 29 98 34 149c28 6 61 8 90 1
c-9 -107 22 -154 106 -154c49 0 91 31 99 75c27 148 -288 136 -241 394c18 101 113 158 238 158z" />
    <glyph glyph-name="T" unicode="T" horiz-adv-x="598" 
d="M650 679c-7 -51 -11 -119 -7 -179c-23 -9 -49 -11 -77 -9c-5 90 -24 126 -98 126h-20l-80 -459c-12 -70 -6 -87 75 -99c4 -19 5 -42 3 -62c-43 3 -103 3 -166 3c-69 0 -136 0 -182 -3c1 24 7 47 13 63c78 10 92 23 106 108l78 449h-19c-73 0 -109 -40 -140 -128
c-30 0 -54 4 -74 18c18 45 34 120 41 172c69 -3 150 -3 271 -3c116 0 195 0 276 3z" />
    <glyph glyph-name="U" unicode="U" horiz-adv-x="658" 
d="M105 679c48 -3 90 -3 143 -3c48 0 94 0 149 3c-1 -21 -4 -41 -12 -62c-58 -6 -67 -19 -83 -108l-43 -246c-26 -143 15 -203 98 -203c91 0 144 76 166 198l41 235c18 97 11 108 -44 124c-4 19 -4 39 -1 62c42 -3 77 -3 104 -3c38 0 62 0 102 3c-1 -22 -5 -44 -12 -62
c-56 -13 -64 -23 -84 -134l-37 -216c-35 -194 -110 -276 -271 -276c-183 0 -246 95 -216 267l47 267c12 70 5 84 -46 92c-3 17 -4 40 -1 62z" />
    <glyph glyph-name="V" unicode="V" horiz-adv-x="675" 
d="M650 676c35 0 59 0 99 3c-1 -22 -5 -43 -12 -62c-33 -11 -48 -32 -93 -123c-82 -162 -168 -321 -272 -494c-19 -8 -46 -9 -69 -8c-43 182 -91 368 -135 521c-24 85 -34 95 -70 104c-3 16 -4 39 -1 62c49 -3 105 -3 139 -3c39 0 98 0 154 3c0 -23 -5 -46 -12 -63
c-63 -7 -72 -29 -50 -109c29 -105 52 -205 75 -323c71 120 125 221 169 317c37 84 29 105 -27 116c-4 19 -4 40 -1 62c31 -3 72 -3 106 -3z" />
    <glyph glyph-name="W" unicode="W" horiz-adv-x="971" 
d="M946 676c36 0 65 0 100 3c-1 -21 -5 -43 -12 -62c-34 -11 -57 -38 -106 -152c-66 -155 -137 -311 -215 -467c-18 -6 -54 -4 -77 1c-26 152 -57 303 -97 455c-72 -154 -150 -307 -231 -456c-20 -6 -57 -4 -76 2c-26 190 -53 364 -79 505c-17 93 -21 103 -54 112
c-4 16 -5 39 -2 62c52 -3 109 -3 137 -3c35 0 99 0 150 3c-1 -24 -4 -46 -11 -63c-70 -10 -78 -43 -65 -124c13 -76 30 -172 43 -274c80 151 156 304 229 459c19 5 41 7 63 5c43 -153 78 -308 105 -465c44 89 83 176 119 265c38 96 31 124 -25 135c-4 19 -4 40 -1 62
c31 -3 74 -3 105 -3z" />
    <glyph glyph-name="X" unicode="X" horiz-adv-x="654" 
d="M592 676c35 0 70 0 109 3c-1 -20 -5 -43 -12 -62c-42 -7 -62 -21 -118 -98c-53 -71 -97 -127 -141 -180c24 -55 46 -107 64 -153c42 -103 59 -115 104 -127c3 -16 4 -38 1 -62c-54 3 -113 3 -146 3c-39 0 -104 0 -152 -3c1 24 5 46 12 63c60 8 62 25 18 138
c-9 22 -18 46 -28 70c-28 -36 -59 -74 -91 -113c-48 -57 -44 -87 -8 -96c4 -20 4 -40 1 -62c-37 3 -80 3 -111 3c-38 0 -79 0 -119 -3c1 22 5 43 12 62c52 10 82 30 137 92c54 60 107 125 149 183c-26 58 -55 120 -86 181c-42 83 -52 93 -88 102c-4 17 -4 39 -1 62
c52 -3 112 -3 144 -3c38 0 96 0 154 3c-1 -24 -5 -46 -12 -63c-62 -9 -68 -29 -31 -106c16 -34 32 -70 48 -105c27 33 55 70 79 102c60 82 48 101 10 110c-4 19 -4 41 -1 62c33 -3 74 -3 103 -3z" />
    <glyph glyph-name="Y" unicode="Y" horiz-adv-x="596" 
d="M573 676c35 0 60 0 97 3c0 -21 -4 -43 -12 -62c-22 -7 -39 -15 -83 -90c-59 -97 -114 -182 -171 -264l-18 -105c-12 -70 -6 -86 75 -99c4 -19 4 -42 2 -62c-43 3 -103 3 -165 3c-69 0 -136 0 -182 -3c1 24 7 47 13 63c78 11 91 23 106 108l17 96c-25 88 -53 173 -85 259
c-28 76 -40 86 -69 94c-3 17 -4 38 -1 62c45 -3 105 -3 137 -3c38 0 98 0 155 3c-1 -25 -6 -46 -12 -63c-60 -8 -70 -29 -53 -79c23 -64 41 -131 56 -202c40 61 75 125 111 193c29 56 28 80 -24 89c-4 19 -4 39 -1 62c33 -3 74 -3 107 -3z" />
    <glyph glyph-name="Z" unicode="Z" horiz-adv-x="551" 
d="M576 679c11 -16 16 -36 15 -62c-135 -192 -262 -366 -409 -555h77c103 0 139 26 184 137c32 -5 57 -15 80 -33c-19 -46 -41 -116 -50 -169c-85 3 -174 3 -254 3c-88 0 -154 0 -221 -3c-10 16 -17 37 -16 63c153 192 281 362 416 555h-82c-74 0 -109 -27 -152 -141
c-36 2 -61 10 -82 26c22 48 42 123 51 179c64 -3 152 -3 229 -3c69 0 146 0 214 3z" />
    <glyph glyph-name="bracketleft" unicode="[" horiz-adv-x="301" 
d="M-33 -268l178 1010c60 -3 144 -3 205 0c8 -18 7 -41 2 -63c-98 -8 -119 -18 -132 -88l-125 -710c-11 -66 5 -81 91 -85c5 -20 4 -43 -4 -64c-48 3 -159 3 -215 0z" />
    <glyph glyph-name="backslash" unicode="\" horiz-adv-x="299" 
d="M94 705c21 11 47 14 70 9l90 -714c-18 -9 -46 -12 -70 -9c-24 234 -55 482 -90 714z" />
    <glyph glyph-name="bracketright" unicode="]" horiz-adv-x="300" 
d="M336 742l-178 -1011c-62 4 -157 4 -216 0c-1 20 4 48 16 65c89 4 112 18 123 81l127 714c12 70 -3 80 -97 88c0 23 6 48 18 63c60 -2 141 -2 207 0z" />
    <glyph glyph-name="asciicircum" unicode="^" horiz-adv-x="477" 
d="M68 429l229 260c19 10 47 11 65 6c31 -82 83 -206 120 -289c-12 -9 -43 -16 -62 -12l-98 236c-74 -82 -154 -175 -213 -247c-22 7 -36 23 -41 46z" />
    <glyph glyph-name="underscore" unicode="_" horiz-adv-x="514" 
d="M-19 -79h448c-1 -26 -8 -52 -22 -72c-140 0 -285 0 -447 -3c0 27 7 55 21 75z" />
    <glyph glyph-name="grave" unicode="`" horiz-adv-x="273" 
d="M256 705c9 -52 24 -111 44 -166c-19 -6 -48 -5 -68 2c-28 51 -63 105 -108 159c39 11 88 15 132 5z" />
    <glyph glyph-name="a" unicode="a" horiz-adv-x="557" 
d="M506 106c11 -12 22 -33 26 -51c-39 -40 -84 -64 -138 -64c-81 0 -92 69 -80 125c5 22 15 49 26 75h-4c-43 -122 -115 -200 -203 -200c-108 0 -128 108 -105 228c28 139 124 248 288 248c34 0 66 -5 90 -14c30 3 59 7 85 14c21 -14 28 -33 15 -92l-47 -207
c-16 -71 -14 -84 5 -84c12 0 23 6 42 22zM211 101c34 0 103 70 138 235l13 56c-17 7 -42 11 -60 11c-66 0 -99 -61 -117 -146c-21 -103 -10 -156 26 -156z" />
    <glyph glyph-name="b" unicode="b" horiz-adv-x="543" 
d="M409 467c108 0 128 -108 105 -228c-28 -139 -124 -248 -288 -248h-1c-93 0 -161 25 -207 72c18 28 37 79 50 154l53 301c14 81 12 92 -52 92c-1 20 2 42 10 59c63 4 134 19 186 41c24 -16 32 -33 24 -77c-40 -226 -53 -275 -85 -366h2c43 122 115 200 203 200zM357 201
c21 103 10 156 -26 156c-34 0 -103 -70 -138 -235l-13 -56c17 -7 42 -11 60 -11c66 0 99 61 117 146z" />
    <glyph glyph-name="c" unicode="c" horiz-adv-x="423" 
d="M301 467c45 0 94 -12 119 -29c-13 -37 -20 -75 -21 -110c-20 -8 -43 -10 -67 -7c4 53 -10 82 -47 82c-50 0 -84 -53 -100 -141c-17 -91 -15 -181 69 -181c42 0 81 19 111 43c13 -17 18 -34 19 -58c-58 -54 -119 -75 -197 -75c-154 0 -180 121 -155 244
c24 113 97 232 269 232z" />
    <glyph glyph-name="d" unicode="d" horiz-adv-x="558" 
d="M542 633l-80 -453c-15 -87 -14 -96 2 -96c11 0 22 6 43 22c11 -12 23 -33 26 -51c-38 -40 -86 -64 -136 -64c-84 0 -93 67 -81 122c4 21 14 51 24 78h-4c-43 -122 -115 -200 -203 -200c-108 0 -128 108 -105 228c28 139 124 248 288 248c18 0 36 -2 51 -4c1 18 3 37 6 55
c14 84 13 92 -52 92c0 20 3 42 10 59c60 2 137 20 187 41c24 -16 31 -33 24 -77zM211 101c34 0 103 70 138 235l13 56c-17 7 -42 11 -60 11c-66 0 -99 -61 -117 -146c-21 -103 -10 -156 26 -156z" />
    <glyph glyph-name="e" unicode="e" horiz-adv-x="451" 
d="M297 467c103 0 151 -56 137 -122c-15 -76 -124 -151 -257 -158c-1 -60 16 -105 76 -105c39 0 77 16 107 43c13 -17 19 -35 19 -59c-52 -48 -110 -75 -194 -75c-152 0 -178 120 -155 237c30 153 139 239 267 239zM326 337c8 41 -6 67 -41 67c-41 0 -82 -45 -100 -146
l-2 -12c76 7 133 40 143 91z" />
    <glyph glyph-name="f" unicode="f" horiz-adv-x="361" 
d="M396 714c53 0 97 -10 116 -21c-14 -36 -25 -98 -26 -136c-15 -7 -50 -11 -75 -11c-2 56 -8 106 -45 106c-41 0 -60 -40 -91 -204h95c0 -24 -2 -49 -8 -63c-37 0 -69 -4 -101 -11c-16 -91 -27 -166 -37 -229c-35 -215 -133 -393 -274 -393c-37 0 -72 14 -101 43
c-1 27 6 61 16 85c32 -14 69 -20 109 -20c56 0 74 18 95 186c10 83 22 196 43 330c-28 7 -55 11 -77 11c0 22 4 46 13 61h75l1 6c30 170 103 260 272 260z" />
    <glyph glyph-name="g" unicode="g" horiz-adv-x="525" 
d="M483 467c21 -14 26 -32 19 -73l-48 -275c-37 -204 -130 -367 -303 -367c-64 0 -108 19 -149 51c-2 25 5 60 16 83c53 -20 124 -31 177 -31c61 0 70 15 92 158c6 44 21 95 45 159l7 19h-3c-43 -122 -115 -200 -203 -200c-108 0 -128 108 -105 228c28 139 124 248 288 248
c34 0 65 -5 89 -14c35 3 59 8 78 14zM211 101c34 0 103 70 138 235l13 56c-17 7 -42 11 -60 11c-66 0 -99 -61 -117 -146c-21 -103 -10 -156 26 -156z" />
    <glyph glyph-name="h" unicode="h" horiz-adv-x="593" 
d="M542 106c12 -12 23 -33 26 -51c-44 -44 -93 -64 -141 -64c-101 0 -102 70 -79 172l20 89c16 69 8 101 -18 101c-45 0 -120 -87 -155 -250l-18 -103h-147l91 518c14 81 12 92 -52 92c-1 20 2 42 10 59c63 4 134 19 186 41c24 -16 32 -33 24 -77
c-42 -235 -55 -287 -82 -369h2l22 47c39 79 122 156 205 156c68 0 121 -49 87 -196l-24 -101c-18 -80 -16 -86 0 -86c10 0 26 8 43 22z" />
    <glyph glyph-name="i" unicode="i" horiz-adv-x="302" 
d="M221 690c46 0 76 -32 66 -81c-8 -46 -42 -72 -98 -72c-48 0 -74 32 -67 80c8 46 45 73 99 73zM219 467c35 -16 47 -46 32 -114l-45 -189c-15 -67 -13 -79 4 -79c10 0 24 6 41 21c12 -11 23 -32 26 -51c-42 -43 -92 -64 -141 -64c-94 0 -104 66 -81 165l29 114
c21 84 18 97 -47 97c0 20 3 42 10 59c60 3 125 20 172 41z" />
    <glyph glyph-name="j" unicode="j" horiz-adv-x="275" 
d="M223 693c47 0 76 -32 67 -81c-8 -46 -42 -72 -99 -72c-47 0 -74 32 -66 79s45 74 98 74zM44 426c60 2 132 20 180 41c29 -20 39 -35 24 -115l-46 -250c-36 -199 -115 -286 -285 -349c-16 13 -24 32 -24 58c81 50 132 123 153 241l42 234c12 66 9 81 -54 81
c0 20 2 41 10 59z" />
    <glyph glyph-name="k" unicode="k" horiz-adv-x="540" 
d="M521 357c-12 -69 -73 -111 -174 -146c17 -21 29 -42 50 -80c18 -32 27 -42 45 -42c12 0 22 5 35 17c13 -11 25 -32 27 -51c-39 -39 -84 -64 -136 -64c-64 0 -86 34 -110 88c-18 41 -30 66 -49 97c-1 -12 -3 -24 -5 -36l-27 -140h-147l91 518c14 81 12 92 -52 92
c-1 20 2 42 10 59c63 4 134 19 186 41c28 -19 31 -36 24 -77c-34 -194 -41 -219 -80 -337h1c44 98 119 171 210 171c70 0 113 -42 101 -110zM380 320c5 30 -8 52 -38 52c-45 0 -107 -62 -131 -157c104 22 159 52 169 105z" />
    <glyph glyph-name="l" unicode="l" horiz-adv-x="304" 
d="M208 202c-20 -102 -13 -117 4 -117c11 0 22 5 41 21c12 -12 23 -33 26 -50c-38 -41 -91 -65 -141 -65c-69 0 -93 36 -93 93c1 42 7 85 76 434c15 81 12 92 -52 92c0 20 2 42 10 59c59 2 137 20 186 41c24 -16 32 -33 24 -77c-26 -149 -54 -292 -81 -431z" />
    <glyph glyph-name="m" unicode="m" horiz-adv-x="885" 
d="M233 467c24 -11 31 -30 27 -65c-7 -44 -19 -82 -41 -131h1l19 40c37 78 123 156 203 156c60 0 93 -37 88 -108c-2 -24 -8 -54 -21 -88h1l16 37c37 86 131 159 208 159c85 0 108 -75 78 -204l-22 -93c-18 -78 -15 -86 1 -86c12 0 23 6 44 22c11 -12 22 -33 25 -51
c-43 -45 -93 -64 -144 -64c-94 0 -102 63 -76 172l13 57c23 97 21 133 -8 133c-43 0 -123 -85 -157 -266l-16 -87h-145l41 206c23 116 20 147 -9 147c-46 0 -123 -85 -158 -267l-16 -86h-148l52 275c15 81 12 92 -52 92c-1 19 2 42 10 59c60 2 137 20 186 41z" />
    <glyph glyph-name="n" unicode="n" horiz-adv-x="601" 
d="M550 106c12 -12 23 -33 26 -51c-44 -44 -93 -64 -141 -64c-101 0 -102 70 -79 172l21 89c15 69 8 101 -19 101c-45 0 -125 -93 -157 -267l-16 -86h-148l52 275c14 81 12 92 -52 92c0 20 2 42 10 59c60 2 138 20 187 41c24 -11 32 -33 27 -65c-9 -49 -19 -81 -38 -124v-3
l17 36c38 79 122 156 205 156c67 0 120 -49 86 -196l-23 -101c-19 -80 -16 -86 -1 -86c11 0 27 8 43 22z" />
    <glyph glyph-name="o" unicode="o" horiz-adv-x="541" 
d="M310 467c150 0 223 -94 200 -235c-23 -147 -130 -241 -279 -241c-154 0 -224 100 -200 239c24 147 130 237 279 237zM297 406c-52 0 -93 -68 -110 -167c-20 -115 4 -187 55 -187c50 0 96 66 114 174c18 106 -5 180 -59 180z" />
    <glyph glyph-name="p" unicode="p" horiz-adv-x="553" 
d="M419 467c108 0 128 -108 105 -227c-28 -139 -124 -249 -288 -249c-21 0 -41 2 -58 6c2 -33 -3 -77 -15 -142l-17 -99h-148l91 519c14 80 12 92 -52 92c0 19 2 41 10 58c60 3 129 20 178 41c23 -16 30 -35 24 -70c-5 -33 -19 -85 -31 -118l-4 -11h2
c43 122 115 200 203 200zM367 202c21 102 10 156 -26 156c-34 0 -103 -71 -138 -236l-13 -56c17 -7 42 -11 60 -11c66 0 99 61 117 147z" />
    <glyph glyph-name="q" unicode="q" horiz-adv-x="541" 
d="M316 467h16c87 -4 149 -28 192 -72c-18 -28 -37 -79 -50 -154l-85 -483h-147l48 275c8 49 27 100 47 153l1 5h-2c-43 -122 -115 -200 -203 -200c-108 0 -128 108 -105 228c28 138 122 246 283 248h3h2zM211 101c34 0 103 70 138 235l13 56c-17 7 -42 11 -60 11
c-66 0 -99 -61 -117 -146c-21 -103 -10 -156 26 -156z" />
    <glyph glyph-name="r" unicode="r" horiz-adv-x="446" 
d="M223 467c25 -12 30 -34 25 -70c-6 -34 -23 -89 -45 -140h1l24 53c42 90 103 157 175 157c19 0 37 -5 52 -15c-17 -48 -28 -113 -31 -166c-22 -10 -52 -15 -82 -13c5 33 -6 50 -22 50c-14 0 -34 -16 -58 -57c-25 -42 -51 -115 -66 -199l-13 -67h-148l52 275
c16 81 14 92 -50 92c0 20 2 42 10 59c60 3 126 20 176 41z" />
    <glyph glyph-name="s" unicode="s" horiz-adv-x="429" 
d="M262 467c57 0 120 -15 157 -35c-12 -36 -18 -78 -19 -125c-23 -11 -51 -13 -79 -11c-1 73 -23 110 -68 110c-28 0 -45 -10 -49 -33c-19 -86 197 -123 168 -272c-16 -82 -80 -110 -205 -110c-75 0 -133 17 -168 40c14 40 20 81 21 124c24 9 51 12 80 9
c-1 -70 20 -109 74 -109c30 0 46 13 50 31c16 75 -189 123 -161 270c16 82 91 111 199 111z" />
    <glyph glyph-name="t" unicode="t" horiz-adv-x="364" 
d="M260 374l-35 -149c-26 -113 -12 -143 19 -143c18 0 42 13 59 32c12 -13 22 -36 24 -55c-30 -36 -96 -68 -152 -68c-107 0 -135 82 -101 224l38 163c-27 6 -51 9 -71 9c0 22 3 46 12 61h76l2 10c14 60 22 102 24 130c42 5 91 18 118 32c36 -11 31 -56 10 -145l-6 -27h99
c0 -24 -2 -49 -8 -63c-44 0 -77 -3 -108 -11z" />
    <glyph glyph-name="u" unicode="u" horiz-adv-x="602" 
d="M233 467c35 -22 36 -34 -4 -210c-25 -108 -16 -143 17 -143c39 0 116 76 151 262l15 82h148l-46 -251c-22 -112 -21 -123 -1 -123c10 0 21 7 37 22c13 -10 24 -32 27 -51c-39 -40 -92 -64 -141 -64c-86 0 -103 52 -90 115c3 15 7 31 15 48h-1
c-43 -87 -127 -163 -218 -163c-83 0 -102 78 -69 221c36 149 33 153 -35 155c-1 19 1 42 9 59c59 2 138 20 186 41z" />
    <glyph glyph-name="v" unicode="v" horiz-adv-x="522" 
d="M449 467c37 -12 57 -43 57 -101c0 -96 -66 -201 -284 -375c-25 0 -56 4 -73 15c-16 122 -38 229 -58 301c-13 47 -26 63 -78 60c0 18 3 42 9 59c44 4 116 25 148 41c31 -10 38 -25 51 -80c23 -95 41 -195 51 -280c69 76 97 138 97 185c0 50 -24 73 -72 74
c-2 21 -1 41 4 59c45 7 118 28 148 42z" />
    <glyph glyph-name="w" unicode="w" horiz-adv-x="772" 
d="M693 467c38 -13 61 -43 61 -111c0 -86 -61 -195 -255 -365c-25 0 -54 4 -71 15c-9 75 -19 137 -36 198c-25 -76 -78 -139 -170 -213c-25 0 -56 4 -73 15c-16 122 -38 229 -58 301c-13 47 -26 63 -78 60c0 18 3 42 9 59c44 4 116 25 148 41c31 -10 38 -25 51 -80
c23 -94 40 -193 51 -278c82 101 93 178 53 321c38 7 69 20 94 37c28 -8 35 -19 52 -80c27 -95 49 -193 64 -278c62 73 85 132 85 175c0 57 -27 82 -75 82c-3 21 -3 41 2 59c45 7 116 27 146 42z" />
    <glyph glyph-name="x" unicode="x" horiz-adv-x="502" 
d="M470 297c-21 -10 -45 -15 -73 -13c1 41 -10 54 -27 54c-21 0 -46 -38 -66 -87c13 -44 30 -91 47 -126c14 -31 28 -37 45 -37c12 0 23 5 37 18c15 -15 22 -32 25 -51c-32 -37 -87 -64 -130 -64c-49 0 -80 17 -98 51c-16 30 -29 64 -36 92c-44 -83 -102 -143 -168 -143
c-22 0 -36 3 -50 13c13 40 23 105 23 148c21 11 49 15 77 13c0 -35 10 -47 24 -47c18 0 42 26 62 70c-9 42 -22 83 -32 121c-15 48 -35 60 -85 58c-2 22 2 42 8 59c44 3 120 24 152 41c21 -4 36 -15 45 -53c9 -41 17 -78 22 -107c45 92 106 160 176 160c22 0 40 -5 55 -15
c-18 -45 -31 -102 -33 -155z" />
    <glyph glyph-name="y" unicode="y" horiz-adv-x="518" 
d="M451 467c37 -12 55 -43 55 -86c0 -70 -38 -150 -198 -350c-192 -242 -242 -279 -324 -279c-40 0 -75 14 -104 43c-1 27 5 61 16 85c31 -14 69 -20 104 -20c56 0 94 14 156 83c-13 145 -34 264 -63 364c-14 47 -26 63 -78 60c-1 22 2 42 9 59c44 4 116 25 148 41
c29 -9 37 -21 49 -73c26 -107 41 -206 49 -306c76 107 99 168 99 216c0 38 -22 61 -70 62c-3 21 -1 41 4 59c45 7 118 28 148 42z" />
    <glyph glyph-name="z" unicode="z" horiz-adv-x="432" 
d="M264 117c35 0 46 11 65 55c26 0 55 -6 74 -17c-16 -37 -26 -92 -28 -135c-10 -20 -31 -29 -91 -29c-64 0 -111 9 -177 9c-31 0 -63 -2 -104 -9c-11 17 -17 42 -14 63c128 101 227 195 291 280c-20 6 -39 8 -60 8c-54 0 -73 -11 -102 -65c-27 0 -59 9 -75 24
c27 50 44 101 52 157c37 5 92 8 161 8c63 0 108 -3 149 -8c11 -15 18 -37 19 -56c-62 -92 -153 -197 -262 -291c46 16 71 6 102 6z" />
    <glyph glyph-name="braceleft" unicode="{" horiz-adv-x="377" 
d="M419 749c10 -12 12 -37 9 -55c-245 -52 15 -393 -278 -435c269 -67 -81 -416 116 -483c1 -19 -4 -40 -18 -54c-351 87 23 425 -199 513c-1 16 3 35 14 48c246 69 -45 396 356 466z" />
    <glyph glyph-name="bar" unicode="|" horiz-adv-x="194" 
d="M-25 -229l182 943c26 0 48 -4 69 -17c-66 -311 -126 -626 -182 -945c-25 0 -51 5 -69 19z" />
    <glyph glyph-name="braceright" unicode="}" horiz-adv-x="376" 
d="M136 748c335 -110 -16 -362 197 -463c5 -15 4 -33 -1 -48c-243 -77 8 -471 -378 -515c-9 20 -9 38 -1 57c240 32 -17 413 285 478c-286 72 80 346 -126 441c2 19 10 39 24 50z" />
    <glyph glyph-name="asciitilde" unicode="~" horiz-adv-x="579" 
d="M204 357c83 0 138 -72 209 -72c35 0 68 15 106 58c21 -7 37 -24 42 -44c-57 -77 -108 -107 -158 -107c-84 0 -131 75 -208 75c-40 0 -82 -21 -124 -71c-20 8 -34 23 -37 46c68 91 126 115 170 115z" />
    <glyph glyph-name="uni00A0" unicode="&#xa0;" horiz-adv-x="191" 
 />
    <glyph glyph-name="exclamdown" unicode="&#xa1;" horiz-adv-x="421" 
d="M227 303c-45 0 -85 36 -74 96c8 42 36 68 84 68c57 0 92 -36 79 -97c-8 -41 -39 -67 -89 -67zM60 -182c27 91 73 262 106 404c28 3 56 0 76 -10c-17 -161 -25 -295 -28 -431c-45 -7 -101 -21 -137 -38c-25 8 -32 27 -17 75z" />
    <glyph glyph-name="cent" unicode="&#xa2;" horiz-adv-x="415" 
d="M399 328c-20 -8 -43 -10 -67 -7c4 53 -10 82 -47 82c-50 0 -84 -53 -100 -141c-17 -91 -15 -181 69 -181c42 0 81 19 111 43c13 -17 18 -34 19 -58c-51 -47 -104 -69 -168 -74l-22 -127c-25 0 -51 4 -69 19l21 110c-118 20 -137 130 -114 241c20 95 74 193 192 223
l30 153c27 0 49 -4 69 -17l-27 -127h5c45 0 94 -12 119 -29c-13 -37 -20 -75 -21 -110z" />
    <glyph glyph-name="sterling" unicode="&#xa3;" horiz-adv-x="573" 
d="M522 503c-24 -9 -58 -10 -83 -6c6 88 -30 123 -89 123c-43 0 -78 -32 -86 -82c-14 -77 25 -113 28 -181h126c1 -26 -6 -53 -18 -71h-117c-13 -53 -41 -92 -104 -152c50 29 81 37 120 37c55 0 86 -35 118 -35c19 0 36 11 46 33c21 -4 45 -17 55 -31
c-19 -82 -68 -147 -144 -147c-93 0 -111 52 -209 52c-48 0 -88 -13 -138 -51c-21 12 -34 37 -38 62c83 56 124 104 139 182c3 17 4 33 3 49c-39 -1 -73 -2 -98 -3c-1 27 5 55 18 75h68c-11 44 -23 90 -12 153c17 96 112 175 267 175c71 0 131 -17 170 -44
c-13 -43 -20 -91 -22 -138z" />
    <glyph glyph-name="currency" unicode="&#xa4;" horiz-adv-x="500" 
d="M432 244c-7 -39 -23 -74 -47 -101l64 -68c-11 -13 -38 -22 -59 -24l-48 55c-30 -18 -66 -28 -104 -28c-42 0 -77 12 -104 32l-59 -56c-20 1 -43 13 -56 28l79 68c-21 36 -29 83 -20 135c6 32 19 59 38 82l-58 61c13 13 40 21 61 22l40 -45c31 18 68 29 109 29
c47 0 86 -13 114 -36l60 53c20 -4 41 -18 51 -32l-77 -61c18 -31 24 -70 16 -114zM147 277c-14 -81 26 -142 100 -142c58 0 105 43 116 103c14 80 -29 138 -104 138c-57 0 -101 -40 -112 -99z" />
    <glyph glyph-name="yen" unicode="&#xa5;" horiz-adv-x="596" 
d="M573 676c35 0 60 0 97 3c0 -21 -4 -43 -12 -62c-22 -7 -39 -15 -83 -90c-29 -48 -57 -93 -85 -136h83c1 -25 -4 -52 -17 -71h-113l-39 -57l-2 -11h153c1 -25 -6 -51 -20 -71h-145l-4 -23c-12 -70 -6 -86 75 -99c4 -19 4 -42 2 -62c-43 3 -103 3 -165 3
c-69 0 -136 0 -182 -3c1 24 7 47 13 63c78 11 91 23 106 108l2 12c-47 -1 -96 -2 -146 -3c-2 26 3 55 17 75h142l2 12l-16 56c-50 -1 -86 -2 -129 -4c0 27 7 55 22 75h84c-14 44 -29 88 -46 132c-28 76 -40 86 -69 94c-3 17 -4 38 -1 62c45 -3 105 -3 137 -3
c38 0 98 0 155 3c-1 -25 -6 -46 -12 -63c-60 -8 -70 -29 -53 -79c23 -64 41 -131 56 -202c40 61 75 125 111 193c29 56 28 80 -24 89c-4 19 -4 39 -1 62c33 -3 74 -3 107 -3z" />
    <glyph glyph-name="brokenbar" unicode="&#xa6;" horiz-adv-x="195" 
d="M83 330l74 384c27 0 49 -4 69 -17c-27 -127 -51 -255 -73 -386c-25 0 -51 5 -70 19zM-25 -229l79 403c27 0 48 -4 69 -16c-29 -134 -55 -269 -79 -406c-24 0 -50 5 -69 19z" />
    <glyph glyph-name="section" unicode="&#xa7;" horiz-adv-x="524" 
d="M250 599c-26 -129 295 -149 252 -371c-16 -83 -82 -135 -164 -163c42 -42 71 -96 56 -176c-16 -85 -106 -137 -205 -137c-64 0 -112 12 -155 38c10 41 16 91 15 132c19 6 46 10 71 9c0 -88 32 -115 87 -115c34 0 61 19 68 52c27 129 -294 148 -251 371
c16 83 81 135 163 163c-42 42 -71 96 -56 176c17 85 106 136 205 136c64 0 112 -11 155 -37c-10 -41 -16 -91 -15 -132c-19 -6 -46 -10 -71 -9c0 88 -32 115 -86 115c-35 0 -62 -19 -69 -52zM364 194c14 72 -56 112 -124 163c-41 -16 -71 -44 -79 -85
c-13 -71 57 -111 124 -162c41 16 72 44 79 84z" />
    <glyph glyph-name="dieresis" unicode="&#xa8;" horiz-adv-x="406" 
d="M105 600c7 40 33 62 76 62c50 0 75 -34 63 -85c-10 -41 -36 -64 -76 -64c-49 0 -74 35 -63 87zM441 580c-8 -43 -35 -67 -78 -67c-49 0 -74 33 -64 83c6 42 33 66 80 66c48 0 73 -32 62 -82z" />
    <glyph glyph-name="copyright" unicode="&#xa9;" 
d="M402 574c224 0 345 -158 301 -386c-35 -187 -177 -302 -361 -302c-225 0 -345 154 -302 385c36 186 180 303 362 303zM351 -55c151 0 268 98 293 245c37 199 -54 326 -251 326c-151 0 -268 -98 -294 -246c-39 -197 55 -325 252 -325zM435 442c40 0 84 -10 107 -26
c-12 -33 -19 -68 -20 -99c-18 -7 -38 -10 -60 -7c4 49 -8 74 -42 74c-45 0 -76 -48 -90 -127c-15 -82 -14 -162 62 -162c38 0 73 17 100 38c11 -15 16 -31 17 -52c-52 -48 -107 -67 -177 -67c-139 0 -163 108 -140 219c22 102 87 209 243 209z" />
    <glyph glyph-name="ordfeminine" unicode="&#xaa;" horiz-adv-x="513" 
d="M477 460c10 -10 17 -37 16 -53c-29 -30 -66 -47 -102 -47c-67 0 -71 57 -58 100h-2c-37 -60 -88 -100 -142 -100c-76 0 -92 83 -75 170c20 103 93 187 216 187c26 0 49 -5 67 -10c25 1 49 5 69 10c18 -13 23 -26 14 -68l-34 -149c-10 -48 -8 -54 4 -54c7 0 17 5 27 14z
M253 460c23 0 66 48 94 160l8 33c-10 3 -22 5 -33 5c-37 0 -67 -36 -82 -110c-11 -56 -7 -88 13 -88z" />
    <glyph glyph-name="guillemotleft" unicode="&#xab;" horiz-adv-x="455" 
d="M201 415c22 1 44 -11 54 -24c-32 -35 -83 -94 -111 -133c13 -42 41 -107 60 -144c-12 -20 -26 -34 -46 -44c-39 53 -86 108 -127 151c1 25 10 52 23 67c54 43 99 80 147 127zM387 407c22 1 44 -11 55 -25c-32 -35 -72 -85 -100 -124c11 -42 31 -97 49 -136
c-13 -21 -27 -34 -47 -45c-38 53 -75 100 -115 144c1 25 10 52 23 67c53 42 94 77 135 119z" />
    <glyph glyph-name="logicalnot" unicode="&#xac;" horiz-adv-x="553" 
d="M514 352l-38 -234c-20 -10 -47 -12 -73 -7l28 174c-121 0 -247 0 -386 -3c0 27 8 50 22 70h447z" />
    <glyph glyph-name="softhyphen" unicode="&#xad;" horiz-adv-x="343" 
d="M55 314h269c-1 -35 -6 -58 -18 -83c-66 0 -157 0 -272 -3c4 40 9 64 21 86z" />
    <glyph glyph-name="registered" unicode="&#xae;" horiz-adv-x="535" 
d="M315 685c119 0 209 -92 209 -209c0 -118 -90 -208 -209 -208c-116 0 -208 90 -208 208c0 117 92 209 208 209zM315 315c94 0 162 70 162 161c0 92 -68 162 -162 162c-91 0 -161 -70 -161 -162c0 -91 70 -161 161 -161zM398 518c0 -27 -11 -51 -37 -63l47 -77l-53 -6
l-39 71l-22 1v-68h-48v205h79c49 0 73 -23 73 -63zM294 543v-61c33 -7 52 0 52 30c0 34 -24 39 -52 31z" />
    <glyph glyph-name="macron" unicode="&#xaf;" horiz-adv-x="427" 
d="M113 631h356c0 -15 -2 -34 -9 -51c-118 0 -236 -1 -356 -6c0 15 2 41 9 57z" />
    <glyph glyph-name="degree" unicode="&#xb0;" horiz-adv-x="403" 
d="M279 699c95 0 148 -58 132 -147c-13 -75 -73 -120 -158 -120c-93 0 -144 63 -128 155c12 73 72 112 154 112zM273 650c-27 0 -50 -23 -55 -59c-12 -64 5 -108 42 -108c28 0 52 28 59 68c10 60 -8 99 -46 99z" />
    <glyph glyph-name="plusminus" unicode="&#xb1;" horiz-adv-x="459" 
d="M284 374h155c1 -25 -4 -49 -16 -68h-152c-10 -54 -18 -105 -23 -139c-25 -6 -52 -4 -72 8l25 130c-51 0 -102 -1 -150 -3c-2 27 3 52 17 72h146l27 143c23 9 50 10 73 1c-8 -33 -19 -87 -30 -144zM11 55c1 28 8 55 22 75h373c-1 -25 -8 -52 -22 -71
c-140 0 -249 0 -373 -4z" />
    <glyph glyph-name="twosuperior" unicode="&#xb2;" horiz-adv-x="353" 
d="M381 617c-7 -35 -30 -66 -87 -101c-25 -16 -64 -44 -92 -67c11 1 22 1 32 1c16 0 25 -1 39 -1c20 0 39 10 47 47c20 1 39 0 55 -6c-6 -33 -15 -82 -14 -112c-7 -12 -20 -21 -44 -21c-32 0 -60 3 -120 3c-54 0 -101 -1 -139 -2c-6 13 -7 25 -3 43c36 34 89 78 127 105
c51 35 72 64 79 100c7 35 -6 56 -32 56c-28 0 -45 -36 -59 -93c-22 -2 -48 1 -64 9c10 30 19 79 20 112c43 18 84 27 138 27c74 0 133 -27 117 -100z" />
    <glyph glyph-name="threesuperior" unicode="&#xb3;" horiz-adv-x="344" 
d="M364 616c-7 -38 -33 -66 -90 -91c62 -15 97 -58 80 -135c-20 -92 -115 -145 -231 -145c-34 0 -73 10 -89 23c1 18 13 42 27 50c13 -8 37 -14 68 -14c58 0 104 31 114 83c12 51 -22 85 -91 83c-8 9 -10 29 -7 43c65 18 101 51 110 97c6 31 -6 52 -34 52
c-31 0 -48 -22 -67 -93c-17 -3 -45 1 -62 9c10 30 17 76 18 107c36 21 81 31 132 31c92 0 134 -39 122 -100z" />
    <glyph glyph-name="acute" unicode="&#xb4;" horiz-adv-x="262" 
d="M182 718c54 9 109 4 139 -14c-59 -56 -116 -121 -158 -180c-24 2 -49 11 -68 24c39 62 73 130 87 170z" />
    <glyph glyph-name="uni00B5" unicode="&#xb5;" horiz-adv-x="590" 
d="M253 458l-30 -161c-23 -126 -8 -181 34 -181c47 0 92 71 121 225l22 117h148l-47 -251c-21 -112 -20 -123 -1 -123c11 0 22 7 38 22c13 -10 24 -32 27 -51c-39 -40 -92 -64 -141 -64c-65 0 -85 38 -73 100c3 17 7 29 10 37h-1c-33 -93 -84 -137 -135 -137
c-39 0 -59 20 -68 53h-1c2 -34 -3 -70 -10 -104c-8 -39 -12 -87 -7 -117c-45 -12 -118 -41 -155 -65c-14 9 -20 23 -15 50c6 30 23 55 43 161l93 489h148z" />
    <glyph glyph-name="paragraph" unicode="&#xb6;" horiz-adv-x="572" 
d="M544 677c27 0 52 0 83 2c-1 -21 -5 -44 -12 -62c-55 -6 -63 -21 -76 -92c-59 -312 -82 -454 -133 -773c-25 -2 -50 -1 -71 7l149 853c-15 3 -29 5 -45 6c-57 -300 -102 -558 -151 -867c-24 -1 -50 2 -70 14l94 532c-13 -1 -26 -2 -43 -2c-149 0 -214 76 -192 203
c20 113 124 182 319 182c55 0 101 -3 148 -3zM322 354l46 266c-89 -4 -126 -36 -140 -114c-19 -109 34 -152 92 -152h2z" />
    <glyph glyph-name="periodcentered" unicode="&#xb7;" horiz-adv-x="232" 
d="M133 359c45 0 85 -36 74 -95c-8 -43 -36 -69 -84 -69c-57 0 -92 36 -79 97c8 41 39 67 89 67z" />
    <glyph glyph-name="cedilla" unicode="&#xb8;" horiz-adv-x="231" 
d="M125 16l-58 -66c49 -13 68 -49 58 -102c-12 -60 -76 -93 -174 -90c-4 12 -3 29 1 43c46 -1 83 13 88 42c6 34 -18 51 -53 51c-8 11 -12 26 -9 43l73 79h74z" />
    <glyph glyph-name="onesuperior" unicode="&#xb9;" horiz-adv-x="300" 
d="M145 489l16 87c9 52 4 71 -40 78c-4 18 -5 34 -1 56c33 -3 73 -3 111 -3c37 0 76 0 116 3c0 -20 -3 -35 -11 -56c-41 -6 -49 -25 -60 -79l-17 -84c-11 -56 -6 -68 37 -76c5 -18 5 -36 3 -58c-34 3 -68 3 -110 3c-47 0 -86 -1 -117 -3c1 22 5 42 14 58c43 7 50 19 59 74z
" />
    <glyph glyph-name="ordmasculine" unicode="&#xba;" horiz-adv-x="470" 
d="M325 717c111 0 168 -71 148 -185c-19 -112 -97 -175 -214 -175c-109 0 -164 75 -142 190c21 108 92 170 208 170zM313 659c-35 0 -60 -42 -73 -112c-13 -74 -1 -129 32 -129c35 0 61 42 75 114c14 79 -4 127 -34 127z" />
    <glyph glyph-name="guillemotright" unicode="&#xbb;" horiz-adv-x="463" 
d="M315 414c30 -39 72 -84 113 -124c8 -21 7 -47 1 -68c-62 -48 -125 -102 -181 -153c-18 13 -30 29 -35 51c39 35 85 83 116 119c-17 47 -44 108 -71 157c19 14 38 19 57 18zM131 406c29 -40 60 -76 99 -116c7 -21 7 -47 0 -68c-61 -49 -109 -91 -165 -145
c-18 13 -29 29 -35 50c38 36 75 76 103 112c-13 44 -34 98 -59 150c19 13 37 18 57 17z" />
    <glyph glyph-name="onequarter" unicode="&#xbc;" horiz-adv-x="869" 
d="M314 341c4 -21 4 -40 2 -63c-53 3 -86 3 -126 3c-50 0 -88 0 -132 -3c2 22 6 43 14 62c48 7 59 18 72 90l18 94c14 77 7 88 -63 88c-1 21 2 42 11 59c68 8 122 22 178 46c24 -11 35 -30 27 -75l-41 -209c-15 -74 -6 -84 40 -92zM202 46l540 671c25 -12 42 -31 47 -56
c-203 -245 -341 -415 -540 -670c-23 9 -44 32 -47 55zM843 155c-9 -18 -20 -63 -24 -88h-57l-13 -67h-139l13 66c-64 -1 -114 -2 -148 -4c-12 16 -20 54 -17 80c100 102 203 200 296 307c28 0 60 -4 78 -12l-50 -261h32c14 0 23 -8 29 -21zM691 316c-19 -27 -42 -53 -73 -83
c-28 -27 -54 -50 -79 -68h115l15 67c7 35 12 58 22 84z" />
    <glyph glyph-name="onehalf" unicode="&#xbd;" horiz-adv-x="975" 
d="M110 671c68 8 122 22 178 46c24 -11 35 -30 27 -75l-41 -209c-15 -74 -6 -84 40 -92c4 -21 4 -40 2 -63c-53 3 -86 3 -126 3c-50 0 -88 0 -132 -3c2 22 6 43 14 62c48 7 59 18 72 90l18 94c14 77 7 88 -63 88c-1 21 2 42 11 59zM202 46l540 671c25 -12 42 -31 47 -56
c-203 -245 -341 -415 -540 -670c-23 9 -44 32 -47 55zM950 328c-10 -53 -43 -87 -136 -138c-30 -16 -72 -45 -108 -72c15 1 29 1 45 1c27 0 46 -3 62 -3c20 0 34 10 45 55c21 3 52 -2 68 -11c-11 -42 -15 -94 -12 -130c-8 -20 -26 -33 -49 -33c-33 0 -72 3 -134 3
c-53 0 -91 0 -151 -3c-11 18 -15 47 -13 72c47 47 97 88 145 120c61 42 86 74 95 122c10 49 -3 78 -35 78c-35 0 -49 -29 -69 -123c-28 -1 -58 5 -75 14c12 39 18 83 19 124c51 33 93 45 159 45c100 0 158 -46 144 -121z" />
    <glyph glyph-name="threequarters" unicode="&#xbe;" horiz-adv-x="842" 
d="M176 46l540 671c25 -12 42 -31 47 -56c-203 -245 -341 -415 -540 -670c-23 9 -44 32 -47 55zM354 398c-19 -84 -116 -125 -207 -125c-64 0 -96 11 -115 26c1 19 12 45 26 53c16 -9 38 -18 71 -18c42 0 75 21 83 59c11 48 -11 79 -72 80c-6 14 -5 33 2 48
c65 9 92 43 100 87c6 35 -3 55 -31 55c-27 0 -44 -23 -62 -94c-17 -3 -46 1 -63 9c9 29 18 78 19 107c35 20 81 31 129 31c98 0 148 -35 135 -100c-8 -44 -42 -77 -99 -94c62 -14 100 -53 84 -124zM817 155c-9 -18 -20 -63 -24 -88h-57l-13 -67h-139l13 66
c-64 -1 -114 -2 -148 -4c-12 16 -20 54 -17 80c100 102 203 200 296 307c28 0 60 -4 78 -12l-50 -261h32c14 0 23 -8 29 -21zM665 316c-19 -27 -42 -53 -73 -83c-28 -27 -54 -50 -79 -68h115l15 67c7 35 12 58 22 84z" />
    <glyph glyph-name="questiondown" unicode="&#xbf;" horiz-adv-x="534" 
d="M274 303c-45 0 -86 35 -74 95c8 42 35 69 84 69c57 0 91 -36 79 -97c-8 -42 -39 -67 -89 -67zM335 -214c-40 -25 -101 -44 -163 -44c-126 0 -191 55 -173 146c25 131 187 146 214 283c3 18 4 42 2 63c18 11 42 15 64 14c24 -18 39 -71 28 -126
c-25 -128 -139 -145 -157 -239c-9 -51 8 -80 44 -80c35 0 62 30 93 132c34 0 54 -5 73 -18c-15 -52 -22 -84 -25 -131z" />
    <glyph glyph-name="Agrave" unicode="&#xc0;" horiz-adv-x="700" 
d="M461 757c-19 -6 -48 -5 -68 2c-28 51 -63 105 -108 159c39 11 88 15 132 5c9 -52 24 -111 44 -166zM642 59c4 -16 5 -39 2 -62c-37 3 -106 3 -137 3c-33 0 -110 0 -149 -3c0 24 4 46 11 62c57 9 66 27 53 79l-12 52c-79 0 -165 -2 -246 -7l-20 -35
c-33 -55 -25 -81 22 -89c3 -19 4 -40 0 -62c-26 2 -77 3 -109 3c-34 0 -64 -1 -89 -3c1 23 4 43 12 62c35 9 54 29 101 106c73 119 158 264 299 511c21 6 38 6 61 6c57 -189 106 -374 140 -515c21 -91 33 -102 61 -108zM201 246h195c-13 49 -26 99 -40 148
c-10 32 -16 68 -20 107c-18 -40 -37 -76 -54 -109c-26 -49 -53 -98 -81 -146z" />
    <glyph glyph-name="Aacute" unicode="&#xc1;" horiz-adv-x="700" 
d="M589 922c-59 -56 -116 -121 -158 -180c-24 2 -49 11 -68 24c39 62 73 130 87 170c54 9 109 4 139 -14zM642 59c4 -16 5 -39 2 -62c-37 3 -106 3 -137 3c-33 0 -110 0 -149 -3c0 24 4 46 11 62c57 9 66 27 53 79l-12 52c-79 0 -165 -2 -246 -7l-20 -35
c-33 -55 -25 -81 22 -89c3 -19 4 -40 0 -62c-26 2 -77 3 -109 3c-34 0 -64 -1 -89 -3c1 23 4 43 12 62c35 9 54 29 101 106c73 119 158 264 299 511c21 6 38 6 61 6c57 -189 106 -374 140 -515c21 -91 33 -102 61 -108zM201 246h195c-13 49 -26 99 -40 148
c-10 32 -16 68 -20 107c-18 -40 -37 -76 -54 -109c-26 -49 -53 -98 -81 -146z" />
    <glyph glyph-name="Acircumflex" unicode="&#xc2;" horiz-adv-x="700" 
d="M293 737c-22 13 -35 40 -35 59c60 38 127 89 175 135c21 3 44 0 64 -7c33 -49 71 -96 119 -150c-12 -16 -36 -27 -62 -30c-37 30 -79 58 -119 79c-47 -23 -104 -58 -142 -86zM642 59c4 -16 5 -39 2 -62c-37 3 -106 3 -137 3c-33 0 -110 0 -149 -3c0 24 4 46 11 62
c57 9 66 27 53 79l-12 52c-79 0 -165 -2 -246 -7l-20 -35c-33 -55 -25 -81 22 -89c3 -19 4 -40 0 -62c-26 2 -77 3 -109 3c-34 0 -64 -1 -89 -3c1 23 4 43 12 62c35 9 54 29 101 106c73 119 158 264 299 511c21 6 38 6 61 6c57 -189 106 -374 140 -515
c21 -91 33 -102 61 -108zM201 246h195c-13 49 -26 99 -40 148c-10 32 -16 68 -20 107c-18 -40 -37 -76 -54 -109c-26 -49 -53 -98 -81 -146z" />
    <glyph glyph-name="Atilde" unicode="&#xc3;" horiz-adv-x="700" 
d="M353 769c-33 0 -69 -16 -102 -43c-14 16 -22 32 -21 56c65 79 115 96 151 96c60 0 92 -41 133 -41c35 0 62 17 84 35c14 -12 25 -28 29 -49c-51 -73 -90 -99 -136 -99c-61 0 -89 45 -138 45zM642 59c4 -16 5 -39 2 -62c-37 3 -106 3 -137 3c-33 0 -110 0 -149 -3
c0 24 4 46 11 62c57 9 66 27 53 79l-12 52c-79 0 -165 -2 -246 -7l-20 -35c-33 -55 -25 -81 22 -89c3 -19 4 -40 0 -62c-26 2 -77 3 -109 3c-34 0 -64 -1 -89 -3c1 23 4 43 12 62c35 9 54 29 101 106c73 119 158 264 299 511c21 6 38 6 61 6c57 -189 106 -374 140 -515
c21 -91 33 -102 61 -108zM201 246h195c-13 49 -26 99 -40 148c-10 32 -16 68 -20 107c-18 -40 -37 -76 -54 -109c-26 -49 -53 -98 -81 -146z" />
    <glyph glyph-name="Adieresis" unicode="&#xc4;" horiz-adv-x="700" 
d="M332 731c-49 0 -74 35 -63 87c7 40 33 62 76 62c50 0 75 -34 63 -85c-10 -41 -36 -64 -76 -64zM527 731c-49 0 -74 33 -64 83c6 42 33 66 80 66c48 0 73 -32 62 -82c-8 -43 -35 -67 -78 -67zM642 59c4 -16 5 -39 2 -62c-37 3 -106 3 -137 3c-33 0 -110 0 -149 -3
c0 24 4 46 11 62c57 9 66 27 53 79l-12 52c-79 0 -165 -2 -246 -7l-20 -35c-33 -55 -25 -81 22 -89c3 -19 4 -40 0 -62c-26 2 -77 3 -109 3c-34 0 -64 -1 -89 -3c1 23 4 43 12 62c35 9 54 29 101 106c73 119 158 264 299 511c21 6 38 6 61 6c57 -189 106 -374 140 -515
c21 -91 33 -102 61 -108zM201 246h195c-13 49 -26 99 -40 148c-10 32 -16 68 -20 107c-18 -40 -37 -76 -54 -109c-26 -49 -53 -98 -81 -146z" />
    <glyph glyph-name="Aring" unicode="&#xc5;" horiz-adv-x="700" 
d="M430 738c-86 0 -121 50 -108 110c13 57 62 90 131 90c88 0 120 -54 108 -111c-13 -55 -60 -89 -131 -89zM403 841c-5 -30 6 -53 33 -53c21 0 38 14 44 43c5 29 -4 61 -32 61c-24 0 -41 -22 -45 -51zM642 59c4 -16 5 -39 2 -62c-37 3 -106 3 -137 3c-33 0 -110 0 -149 -3
c0 24 4 46 11 62c57 9 66 27 53 79l-12 52c-79 0 -165 -2 -246 -7l-20 -35c-33 -55 -25 -81 22 -89c3 -19 4 -40 0 -62c-26 2 -77 3 -109 3c-34 0 -64 -1 -89 -3c1 23 4 43 12 62c35 9 54 29 101 106c73 119 158 264 299 511c21 6 38 6 61 6c57 -189 106 -374 140 -515
c21 -91 33 -102 61 -108zM201 246h195c-13 49 -26 99 -40 148c-10 32 -16 68 -20 107c-18 -40 -37 -76 -54 -109c-26 -49 -53 -98 -81 -146z" />
    <glyph glyph-name="AE" unicode="&#xc6;" horiz-adv-x="890" 
d="M623 614l-45 -267h23c70 0 94 17 103 78c23 4 46 6 72 3c-9 -35 -16 -70 -23 -121c-6 -42 -9 -79 -11 -112c-26 1 -48 5 -68 14c2 51 -11 82 -80 82h-26l-21 -126c-16 -89 -2 -103 65 -103h9c93 0 129 40 166 136c30 -5 52 -13 74 -31c-19 -45 -39 -108 -48 -170
c-60 3 -153 3 -233 3c-82 0 -208 0 -279 -3c1 22 4 41 14 63c56 6 65 22 80 113l21 118c-63 -1 -111 -3 -152 -6l-101 -140c-41 -57 -37 -77 3 -86c3 -19 4 -40 0 -62c-26 2 -77 3 -109 3c-34 0 -64 -1 -89 -3c1 23 4 43 12 62c35 9 57 22 113 94c72 94 154 207 273 372
c34 48 26 86 -36 92c-5 18 -5 43 -1 62c90 -3 136 -3 190 -3h2h106c118 0 196 1 274 3c-8 -53 -13 -119 -9 -174c-22 -6 -48 -10 -76 -9c-4 77 -18 118 -131 118h-62zM426 347l23 132c7 44 16 83 26 117c-40 -66 -88 -137 -167 -249h118z" />
    <glyph glyph-name="Ccedilla" unicode="&#xc7;" horiz-adv-x="619" 
d="M448 685c82 0 150 -16 215 -56c-16 -46 -26 -96 -33 -153c-21 -8 -50 -10 -77 -5c16 125 -28 153 -101 153c-133 0 -215 -132 -237 -283c-21 -150 26 -271 171 -271c56 0 114 16 171 47c14 -14 20 -33 21 -55c-66 -45 -137 -68 -220 -71l-36 -41c49 -13 68 -49 58 -102
c-12 -60 -76 -93 -174 -90c-4 12 -3 29 1 43c46 -1 83 13 88 42c6 34 -18 51 -53 51c-8 11 -12 26 -9 43l53 58c-175 24 -259 166 -230 352c35 231 221 338 392 338z" />
    <glyph glyph-name="Egrave" unicode="&#xc8;" horiz-adv-x="614" 
d="M426 757c-19 -6 -48 -5 -68 2c-28 51 -63 105 -108 159c39 11 88 15 132 5c9 -52 24 -111 44 -166zM340 614l-41 -240h28c70 0 94 13 103 74c23 4 46 6 72 3c-8 -35 -16 -70 -23 -121c-5 -41 -9 -79 -10 -112c-27 1 -49 5 -69 14c3 51 -11 80 -80 80h-31l-25 -147
c-16 -89 -2 -103 65 -103h16c92 0 129 40 165 136c31 -5 53 -13 74 -31c-18 -45 -38 -108 -48 -170c-59 3 -153 3 -239 3c-82 0 -208 0 -279 -3c1 22 5 41 14 63c56 6 65 22 80 113l60 345c14 77 0 91 -55 99c-3 19 -4 38 0 62c68 -3 170 -3 229 -3c123 0 201 1 278 3
c-7 -53 -12 -119 -8 -174c-22 -6 -48 -10 -77 -9c-4 77 -18 118 -130 118h-69z" />
    <glyph glyph-name="Eacute" unicode="&#xc9;" horiz-adv-x="614" 
d="M553 922c-59 -56 -116 -121 -158 -180c-24 2 -49 11 -68 24c39 62 73 130 87 170c54 9 109 4 139 -14zM340 614l-41 -240h28c70 0 94 13 103 74c23 4 46 6 72 3c-8 -35 -16 -70 -23 -121c-5 -41 -9 -79 -10 -112c-27 1 -49 5 -69 14c3 51 -11 80 -80 80h-31l-25 -147
c-16 -89 -2 -103 65 -103h16c92 0 129 40 165 136c31 -5 53 -13 74 -31c-18 -45 -38 -108 -48 -170c-59 3 -153 3 -239 3c-82 0 -208 0 -279 -3c1 22 5 41 14 63c56 6 65 22 80 113l60 345c14 77 0 91 -55 99c-3 19 -4 38 0 62c68 -3 170 -3 229 -3c123 0 201 1 278 3
c-7 -53 -12 -119 -8 -174c-22 -6 -48 -10 -77 -9c-4 77 -18 118 -130 118h-69z" />
    <glyph glyph-name="Ecircumflex" unicode="&#xca;" horiz-adv-x="614" 
d="M257 737c-22 13 -35 40 -35 59c60 38 127 89 175 135c21 3 44 0 64 -7c33 -49 71 -96 119 -150c-12 -16 -36 -27 -62 -30c-37 30 -79 58 -119 79c-47 -23 -104 -58 -142 -86zM340 614l-41 -240h28c70 0 94 13 103 74c23 4 46 6 72 3c-8 -35 -16 -70 -23 -121
c-5 -41 -9 -79 -10 -112c-27 1 -49 5 -69 14c3 51 -11 80 -80 80h-31l-25 -147c-16 -89 -2 -103 65 -103h16c92 0 129 40 165 136c31 -5 53 -13 74 -31c-18 -45 -38 -108 -48 -170c-59 3 -153 3 -239 3c-82 0 -208 0 -279 -3c1 22 5 41 14 63c56 6 65 22 80 113l60 345
c14 77 0 91 -55 99c-3 19 -4 38 0 62c68 -3 170 -3 229 -3c123 0 201 1 278 3c-7 -53 -12 -119 -8 -174c-22 -6 -48 -10 -77 -9c-4 77 -18 118 -130 118h-69z" />
    <glyph glyph-name="Edieresis" unicode="&#xcb;" horiz-adv-x="614" 
d="M296 731c-49 0 -74 35 -63 87c7 40 33 62 76 62c50 0 75 -34 63 -85c-10 -41 -36 -64 -76 -64zM491 731c-49 0 -74 33 -64 83c6 42 33 66 80 66c48 0 73 -32 62 -82c-8 -43 -35 -67 -78 -67zM340 614l-41 -240h28c70 0 94 13 103 74c23 4 46 6 72 3
c-8 -35 -16 -70 -23 -121c-5 -41 -9 -79 -10 -112c-27 1 -49 5 -69 14c3 51 -11 80 -80 80h-31l-25 -147c-16 -89 -2 -103 65 -103h16c92 0 129 40 165 136c31 -5 53 -13 74 -31c-18 -45 -38 -108 -48 -170c-59 3 -153 3 -239 3c-82 0 -208 0 -279 -3c1 22 5 41 14 63
c56 6 65 22 80 113l60 345c14 77 0 91 -55 99c-3 19 -4 38 0 62c68 -3 170 -3 229 -3c123 0 201 1 278 3c-7 -53 -12 -119 -8 -174c-22 -6 -48 -10 -77 -9c-4 77 -18 118 -130 118h-69z" />
    <glyph glyph-name="Igrave" unicode="&#xcc;" horiz-adv-x="389" 
d="M271 923c9 -52 24 -111 44 -166c-19 -6 -48 -5 -68 2c-28 51 -63 105 -108 159c39 11 88 15 132 5zM109 155l63 367c12 73 2 87 -54 95c-3 18 -4 40 -1 62c44 -3 92 -3 147 -3c48 0 99 0 149 3c0 -21 -3 -42 -11 -62c-54 -8 -64 -21 -79 -106l-61 -355
c-14 -77 -4 -88 50 -97c3 -19 4 -40 2 -62c-50 3 -91 3 -145 3c-57 0 -110 -1 -151 -3c2 24 6 43 15 62c51 7 62 19 76 96z" />
    <glyph glyph-name="Iacute" unicode="&#xcd;" horiz-adv-x="389" 
d="M304 936c54 9 109 4 139 -14c-59 -56 -116 -121 -158 -180c-24 2 -49 11 -68 24c39 62 73 130 87 170zM109 155l63 367c12 73 2 87 -54 95c-3 18 -4 40 -1 62c44 -3 92 -3 147 -3c48 0 99 0 149 3c0 -21 -3 -42 -11 -62c-54 -8 -64 -21 -79 -106l-61 -355
c-14 -77 -4 -88 50 -97c3 -19 4 -40 2 -62c-50 3 -91 3 -145 3c-57 0 -110 -1 -151 -3c2 24 6 43 15 62c51 7 62 19 76 96z" />
    <glyph glyph-name="Icircumflex" unicode="&#xce;" horiz-adv-x="389" 
d="M286 931c21 3 44 0 64 -7c33 -49 71 -96 119 -150c-12 -16 -36 -27 -62 -30c-37 30 -79 58 -119 79c-47 -23 -104 -58 -142 -86c-22 13 -35 40 -35 59c60 38 127 89 175 135zM109 155l63 367c12 73 2 87 -54 95c-3 18 -4 40 -1 62c44 -3 92 -3 147 -3c48 0 99 0 149 3
c0 -21 -3 -42 -11 -62c-54 -8 -64 -21 -79 -106l-61 -355c-14 -77 -4 -88 50 -97c3 -19 4 -40 2 -62c-50 3 -91 3 -145 3c-57 0 -110 -1 -151 -3c2 24 6 43 15 62c51 7 62 19 76 96z" />
    <glyph glyph-name="Idieresis" unicode="&#xcf;" horiz-adv-x="389" 
d="M122 818c7 40 33 62 76 62c50 0 75 -34 63 -85c-10 -41 -36 -64 -76 -64c-49 0 -74 35 -63 87zM458 798c-8 -43 -35 -67 -78 -67c-49 0 -74 33 -64 83c6 42 33 66 80 66c48 0 73 -32 62 -82zM109 155l63 367c12 73 2 87 -54 95c-3 18 -4 40 -1 62c44 -3 92 -3 147 -3
c48 0 99 0 149 3c0 -21 -3 -42 -11 -62c-54 -8 -64 -21 -79 -106l-61 -355c-14 -77 -4 -88 50 -97c3 -19 4 -40 2 -62c-50 3 -91 3 -145 3c-57 0 -110 -1 -151 -3c2 24 6 43 15 62c51 7 62 19 76 96z" />
    <glyph glyph-name="Eth" unicode="&#xd0;" horiz-adv-x="734" 
d="M408 678c190 0 365 -61 313 -348c-48 -273 -269 -330 -426 -330h-3c-72 0 -211 0 -275 -3c1 22 5 43 13 62c56 6 66 23 81 114l21 123c-30 -1 -54 -1 -68 -2c0 24 3 45 14 64h65l29 167c13 74 -3 86 -54 92c-5 21 -5 45 -1 62c44 -2 116 -3 174 -3c35 0 75 2 117 2z
M565 338c41 223 -53 280 -167 280c-22 0 -41 -3 -61 -10l-43 -250h74c3 -20 1 -43 -9 -61h-75l-23 -137c-15 -84 -4 -98 63 -98c90 0 200 50 241 276z" />
    <glyph glyph-name="Ntilde" unicode="&#xd1;" horiz-adv-x="696" 
d="M385 769c-33 0 -69 -16 -102 -43c-14 16 -22 32 -21 56c65 79 115 96 151 96c60 0 92 -41 133 -41c35 0 62 17 84 35c14 -12 25 -28 29 -49c-51 -73 -90 -99 -136 -99c-61 0 -89 45 -138 45zM637 676c34 0 78 0 114 3c-1 -20 -6 -46 -12 -62c-52 -16 -65 -40 -83 -145
l-82 -473c-21 -6 -43 -8 -70 -8c-86 171 -175 336 -269 501l-50 -290c-19 -105 -12 -128 55 -143c4 -19 4 -40 1 -62c-42 3 -86 3 -114 3c-35 0 -70 0 -113 -3c1 22 5 45 11 62c55 14 76 38 94 139l67 380l-5 8c-13 23 -25 28 -63 31c-4 19 -4 39 -1 62c32 -3 65 -3 97 -3
c33 0 68 0 95 3c84 -142 167 -294 241 -443l40 240c17 105 8 126 -59 141c-3 19 -3 40 -1 62c38 -3 79 -3 107 -3z" />
    <glyph glyph-name="Ograve" unicode="&#xd2;" 
d="M445 923c9 -52 24 -111 44 -166c-19 -6 -48 -5 -68 2c-28 51 -63 105 -108 159c39 11 88 15 132 5zM440 685c205 0 331 -139 287 -368c-36 -188 -184 -326 -384 -326c-212 0 -327 153 -285 371c37 195 191 323 382 323zM426 624c-100 0 -179 -107 -208 -257
c-33 -173 11 -313 138 -313c107 0 184 112 213 273c31 169 -29 297 -143 297z" />
    <glyph glyph-name="Oacute" unicode="&#xd3;" 
d="M478 936c54 9 109 4 139 -14c-59 -56 -116 -121 -158 -180c-24 2 -49 11 -68 24c39 62 73 130 87 170zM440 685c205 0 331 -139 287 -368c-36 -188 -184 -326 -384 -326c-212 0 -327 153 -285 371c37 195 191 323 382 323zM426 624c-100 0 -179 -107 -208 -257
c-33 -173 11 -313 138 -313c107 0 184 112 213 273c31 169 -29 297 -143 297z" />
    <glyph glyph-name="Ocircumflex" unicode="&#xd4;" 
d="M460 931c21 3 44 0 64 -7c33 -49 71 -96 119 -150c-12 -16 -36 -27 -62 -30c-37 30 -79 58 -119 79c-47 -23 -104 -58 -142 -86c-22 13 -35 40 -35 59c60 38 127 89 175 135zM440 685c205 0 331 -139 287 -368c-36 -188 -184 -326 -384 -326c-212 0 -327 153 -285 371
c37 195 191 323 382 323zM426 624c-100 0 -179 -107 -208 -257c-33 -173 11 -313 138 -313c107 0 184 112 213 273c31 169 -29 297 -143 297z" />
    <glyph glyph-name="Otilde" unicode="&#xd5;" 
d="M409 878c60 0 92 -41 133 -41c35 0 62 17 84 35c14 -12 25 -28 29 -49c-51 -73 -90 -99 -136 -99c-61 0 -89 45 -138 45c-33 0 -69 -16 -102 -43c-14 16 -22 32 -21 56c65 79 115 96 151 96zM440 685c205 0 331 -139 287 -368c-36 -188 -184 -326 -384 -326
c-212 0 -327 153 -285 371c37 195 191 323 382 323zM426 624c-100 0 -179 -107 -208 -257c-33 -173 11 -313 138 -313c107 0 184 112 213 273c31 169 -29 297 -143 297z" />
    <glyph glyph-name="Odieresis" unicode="&#xd6;" 
d="M296 818c7 40 33 62 76 62c50 0 75 -34 63 -85c-10 -41 -36 -64 -76 -64c-49 0 -74 35 -63 87zM632 798c-8 -43 -35 -67 -78 -67c-49 0 -74 33 -64 83c6 42 33 66 80 66c48 0 73 -32 62 -82zM440 685c205 0 331 -139 287 -368c-36 -188 -184 -326 -384 -326
c-212 0 -327 153 -285 371c37 195 191 323 382 323zM426 624c-100 0 -179 -107 -208 -257c-33 -173 11 -313 138 -313c107 0 184 112 213 273c31 169 -29 297 -143 297z" />
    <glyph glyph-name="multiply" unicode="&#xd7;" horiz-adv-x="611" 
d="M596 444c-67 -55 -154 -132 -242 -210l193 -217c-16 -18 -42 -26 -70 -23c-45 55 -106 125 -171 198c-85 -77 -167 -152 -226 -206c-25 3 -51 17 -63 36l246 219c-70 77 -139 154 -195 214c17 15 44 22 71 21l171 -193l223 199c28 -3 52 -18 63 -38z" />
    <glyph glyph-name="Oslash" unicode="&#xd8;" 
d="M735 655l-63 -63c55 -63 77 -157 55 -275c-36 -188 -184 -326 -384 -326c-74 0 -136 18 -183 51l-45 -51c-29 0 -57 13 -65 35l59 63c-53 66 -73 161 -51 273c37 195 191 323 382 323c71 0 133 -17 181 -49l46 49c32 0 56 -11 68 -30zM218 367c-12 -62 -14 -119 -6 -168
l332 355c-26 44 -67 70 -118 70c-100 0 -179 -107 -208 -257zM569 327c11 60 10 115 0 160c-114 -117 -226 -239 -334 -360c24 -45 64 -73 121 -73c107 0 184 112 213 273z" />
    <glyph glyph-name="Ugrave" unicode="&#xd9;" horiz-adv-x="658" 
d="M458 923c9 -52 24 -111 44 -166c-19 -6 -48 -5 -68 2c-28 51 -63 105 -108 159c39 11 88 15 132 5zM105 679c48 -3 90 -3 143 -3c48 0 94 0 149 3c-1 -21 -4 -41 -12 -62c-58 -6 -67 -19 -83 -108l-43 -246c-26 -143 15 -203 98 -203c91 0 144 76 166 198l41 235
c18 97 11 108 -44 124c-4 19 -4 39 -1 62c42 -3 77 -3 104 -3c38 0 62 0 102 3c-1 -22 -5 -44 -12 -62c-56 -13 -64 -23 -84 -134l-37 -216c-35 -194 -110 -276 -271 -276c-183 0 -246 95 -216 267l47 267c12 70 5 84 -46 92c-3 17 -4 40 -1 62z" />
    <glyph glyph-name="Uacute" unicode="&#xda;" horiz-adv-x="658" 
d="M491 936c54 9 109 4 139 -14c-59 -56 -116 -121 -158 -180c-24 2 -49 11 -68 24c39 62 73 130 87 170zM105 679c48 -3 90 -3 143 -3c48 0 94 0 149 3c-1 -21 -4 -41 -12 -62c-58 -6 -67 -19 -83 -108l-43 -246c-26 -143 15 -203 98 -203c91 0 144 76 166 198l41 235
c18 97 11 108 -44 124c-4 19 -4 39 -1 62c42 -3 77 -3 104 -3c38 0 62 0 102 3c-1 -22 -5 -44 -12 -62c-56 -13 -64 -23 -84 -134l-37 -216c-35 -194 -110 -276 -271 -276c-183 0 -246 95 -216 267l47 267c12 70 5 84 -46 92c-3 17 -4 40 -1 62z" />
    <glyph glyph-name="Ucircumflex" unicode="&#xdb;" horiz-adv-x="658" 
d="M473 931c21 3 44 0 64 -7c33 -49 71 -96 119 -150c-12 -16 -36 -27 -62 -30c-37 30 -79 58 -119 79c-47 -23 -104 -58 -142 -86c-22 13 -35 40 -35 59c60 38 127 89 175 135zM105 679c48 -3 90 -3 143 -3c48 0 94 0 149 3c-1 -21 -4 -41 -12 -62c-58 -6 -67 -19 -83 -108
l-43 -246c-26 -143 15 -203 98 -203c91 0 144 76 166 198l41 235c18 97 11 108 -44 124c-4 19 -4 39 -1 62c42 -3 77 -3 104 -3c38 0 62 0 102 3c-1 -22 -5 -44 -12 -62c-56 -13 -64 -23 -84 -134l-37 -216c-35 -194 -110 -276 -271 -276c-183 0 -246 95 -216 267l47 267
c12 70 5 84 -46 92c-3 17 -4 40 -1 62z" />
    <glyph glyph-name="Udieresis" unicode="&#xdc;" horiz-adv-x="658" 
d="M310 818c7 40 33 62 76 62c50 0 75 -34 63 -85c-10 -41 -36 -64 -76 -64c-49 0 -74 35 -63 87zM646 798c-8 -43 -35 -67 -78 -67c-49 0 -74 33 -64 83c6 42 33 66 80 66c48 0 73 -32 62 -82zM105 679c48 -3 90 -3 143 -3c48 0 94 0 149 3c-1 -21 -4 -41 -12 -62
c-58 -6 -67 -19 -83 -108l-43 -246c-26 -143 15 -203 98 -203c91 0 144 76 166 198l41 235c18 97 11 108 -44 124c-4 19 -4 39 -1 62c42 -3 77 -3 104 -3c38 0 62 0 102 3c-1 -22 -5 -44 -12 -62c-56 -13 -64 -23 -84 -134l-37 -216c-35 -194 -110 -276 -271 -276
c-183 0 -246 95 -216 267l47 267c12 70 5 84 -46 92c-3 17 -4 40 -1 62z" />
    <glyph glyph-name="Yacute" unicode="&#xdd;" horiz-adv-x="596" 
d="M583 922c-59 -56 -116 -121 -158 -180c-24 2 -49 11 -68 24c39 62 73 130 87 170c54 9 109 4 139 -14zM573 676c35 0 60 0 97 3c0 -21 -4 -43 -12 -62c-22 -7 -39 -15 -83 -90c-59 -97 -114 -182 -171 -264l-18 -105c-12 -70 -6 -86 75 -99c4 -19 4 -42 2 -62
c-43 3 -103 3 -165 3c-69 0 -136 0 -182 -3c1 24 7 47 13 63c78 11 91 23 106 108l17 96c-25 88 -53 173 -85 259c-28 76 -40 86 -69 94c-3 17 -4 38 -1 62c45 -3 105 -3 137 -3c38 0 98 0 155 3c-1 -25 -6 -46 -12 -63c-60 -8 -70 -29 -53 -79c23 -64 41 -131 56 -202
c40 61 75 125 111 193c29 56 28 80 -24 89c-4 19 -4 39 -1 62c33 -3 74 -3 107 -3z" />
    <glyph glyph-name="Thorn" unicode="&#xde;" horiz-adv-x="615" 
d="M429 543c160 0 208 -93 191 -196c-20 -110 -117 -197 -261 -197c-32 0 -54 3 -70 14c-2 18 1 38 8 53c10 -5 21 -6 34 -6c62 0 123 37 140 134c15 85 -16 137 -105 137c-16 0 -31 -2 -49 -7l-55 -319c-14 -77 -4 -88 50 -97c3 -19 4 -40 2 -62c-50 3 -91 3 -145 3
c-57 0 -110 -1 -151 -3c2 24 6 43 15 62c51 7 62 19 76 96l63 367c12 73 2 87 -54 95c-3 18 -4 40 -1 62c44 -3 92 -3 147 -3c48 0 99 0 149 3c0 -21 -3 -42 -11 -62c-47 -7 -60 -18 -73 -75c30 0 64 1 100 1z" />
    <glyph glyph-name="germandbls" unicode="&#xdf;" horiz-adv-x="658" 
d="M609 567c-23 -119 -138 -117 -152 -185c-17 -84 174 -118 147 -267c-15 -83 -79 -123 -202 -123c-70 0 -117 14 -153 39c14 40 20 81 21 124c23 9 51 12 80 9c-1 -72 14 -111 59 -111c28 0 48 17 53 43c17 87 -173 127 -147 265c18 91 150 82 170 185
c12 64 -23 106 -92 106c-63 0 -89 -48 -118 -204c-22 -116 -39 -219 -51 -298c-34 -218 -133 -398 -275 -398c-36 0 -71 13 -100 43c-1 27 6 62 16 85c37 -15 71 -20 109 -20c58 0 75 27 95 186c9 76 24 202 43 331c-29 7 -55 10 -77 10c0 22 3 46 13 61h75l1 5
c28 154 87 261 296 261c151 0 205 -66 189 -147z" />
    <glyph glyph-name="agrave" unicode="&#xe0;" horiz-adv-x="557" 
d="M379 539c-19 -6 -48 -5 -68 2c-28 51 -63 105 -108 159c39 11 88 15 132 5c9 -52 24 -111 44 -166zM506 106c11 -12 22 -33 26 -51c-39 -40 -84 -64 -138 -64c-81 0 -92 69 -80 125c5 22 15 49 26 75h-4c-43 -122 -115 -200 -203 -200c-108 0 -128 108 -105 228
c28 139 124 248 288 248c34 0 66 -5 90 -14c30 3 59 7 85 14c21 -14 28 -33 15 -92l-47 -207c-16 -71 -14 -84 5 -84c12 0 23 6 42 22zM211 101c34 0 103 70 138 235l13 56c-17 7 -42 11 -60 11c-66 0 -99 -61 -117 -146c-21 -103 -10 -156 26 -156z" />
    <glyph glyph-name="aacute" unicode="&#xe1;" horiz-adv-x="557" 
d="M506 704c-59 -56 -116 -121 -158 -180c-24 2 -49 11 -68 24c39 62 73 130 87 170c54 9 109 4 139 -14zM506 106c11 -12 22 -33 26 -51c-39 -40 -84 -64 -138 -64c-81 0 -92 69 -80 125c5 22 15 49 26 75h-4c-43 -122 -115 -200 -203 -200c-108 0 -128 108 -105 228
c28 139 124 248 288 248c34 0 66 -5 90 -14c30 3 59 7 85 14c21 -14 28 -33 15 -92l-47 -207c-16 -71 -14 -84 5 -84c12 0 23 6 42 22zM211 101c34 0 103 70 138 235l13 56c-17 7 -42 11 -60 11c-66 0 -99 -61 -117 -146c-21 -103 -10 -156 26 -156z" />
    <glyph glyph-name="acircumflex" unicode="&#xe2;" horiz-adv-x="557" 
d="M210 519c-22 13 -35 40 -35 59c60 38 127 89 175 135c21 3 44 0 64 -7c33 -49 71 -96 119 -150c-12 -16 -36 -27 -62 -30c-37 30 -79 58 -119 79c-47 -23 -104 -58 -142 -86zM464 84c12 0 23 6 42 22c11 -12 22 -33 26 -51c-39 -40 -84 -64 -138 -64
c-81 0 -92 69 -80 125c5 22 15 49 26 75h-4c-43 -122 -115 -200 -203 -200c-108 0 -128 108 -105 228c28 139 124 248 288 248c34 0 66 -5 90 -14c30 3 59 7 85 14c21 -14 28 -33 15 -92l-47 -207c-16 -71 -14 -84 5 -84zM211 101c34 0 103 70 138 235l13 56
c-17 7 -42 11 -60 11c-66 0 -99 -61 -117 -146c-21 -103 -10 -156 26 -156z" />
    <glyph glyph-name="atilde" unicode="&#xe3;" horiz-adv-x="557" 
d="M271 551c-33 0 -69 -16 -102 -43c-14 16 -22 32 -21 56c65 79 115 96 151 96c60 0 92 -41 133 -41c35 0 62 17 84 35c14 -12 25 -28 29 -49c-51 -73 -90 -99 -136 -99c-61 0 -89 45 -138 45zM464 84c12 0 23 6 42 22c11 -12 22 -33 26 -51c-39 -40 -84 -64 -138 -64
c-81 0 -92 69 -80 125c5 22 15 49 26 75h-4c-43 -122 -115 -200 -203 -200c-108 0 -128 108 -105 228c28 139 124 248 288 248c34 0 66 -5 90 -14c30 3 59 7 85 14c21 -14 28 -33 15 -92l-47 -207c-16 -71 -14 -84 5 -84zM211 101c34 0 103 70 138 235l13 56
c-17 7 -42 11 -60 11c-66 0 -99 -61 -117 -146c-21 -103 -10 -156 26 -156z" />
    <glyph glyph-name="adieresis" unicode="&#xe4;" horiz-adv-x="557" 
d="M249 513c-49 0 -74 35 -63 87c7 40 33 62 76 62c50 0 75 -34 63 -85c-10 -41 -36 -64 -76 -64zM444 513c-49 0 -74 33 -64 83c6 42 33 66 80 66c48 0 73 -32 62 -82c-8 -43 -35 -67 -78 -67zM506 106c11 -12 22 -33 26 -51c-39 -40 -84 -64 -138 -64
c-81 0 -92 69 -80 125c5 22 15 49 26 75h-4c-43 -122 -115 -200 -203 -200c-108 0 -128 108 -105 228c28 139 124 248 288 248c34 0 66 -5 90 -14c30 3 59 7 85 14c21 -14 28 -33 15 -92l-47 -207c-16 -71 -14 -84 5 -84c12 0 23 6 42 22zM211 101c34 0 103 70 138 235
l13 56c-17 7 -42 11 -60 11c-66 0 -99 -61 -117 -146c-21 -103 -10 -156 26 -156z" />
    <glyph glyph-name="aring" unicode="&#xe5;" horiz-adv-x="557" 
d="M348 520c-86 0 -121 50 -108 110c13 57 62 90 131 90c88 0 120 -54 108 -111c-13 -55 -60 -89 -131 -89zM321 623c-5 -30 6 -53 33 -53c21 0 38 14 44 43c5 29 -4 61 -32 61c-24 0 -41 -22 -45 -51zM506 106c11 -12 22 -33 26 -51c-39 -40 -84 -64 -138 -64
c-81 0 -92 69 -80 125c5 22 15 49 26 75h-4c-43 -122 -115 -200 -203 -200c-108 0 -128 108 -105 228c28 139 124 248 288 248c34 0 66 -5 90 -14c30 3 59 7 85 14c21 -14 28 -33 15 -92l-47 -207c-16 -71 -14 -84 5 -84c12 0 23 6 42 22zM211 101c34 0 103 70 138 235
l13 56c-17 7 -42 11 -60 11c-66 0 -99 -61 -117 -146c-21 -103 -10 -156 26 -156z" />
    <glyph glyph-name="ae" unicode="&#xe6;" horiz-adv-x="705" 
d="M690 340c-17 -81 -110 -165 -241 -223c12 -20 31 -33 61 -33c35 0 76 17 105 41c13 -17 18 -35 19 -59c-51 -45 -117 -75 -185 -75c-69 0 -112 23 -135 59c-47 -34 -101 -59 -160 -59c-125 0 -149 113 -126 228c31 147 130 248 286 248c43 0 85 -7 127 -27
c34 18 72 27 115 27c104 0 148 -57 134 -127zM233 100c18 0 37 4 59 14c-5 35 -1 75 8 114c14 67 41 121 76 161c-24 11 -45 14 -63 14c-76 0 -111 -54 -131 -146c-24 -104 -7 -157 51 -157zM582 333c7 45 -7 70 -40 70c-56 0 -85 -70 -98 -132c-6 -32 -11 -68 -9 -99
c83 38 134 88 147 161z" />
    <glyph glyph-name="ccedilla" unicode="&#xe7;" horiz-adv-x="423" 
d="M399 328c-20 -8 -43 -10 -67 -7c4 53 -10 82 -47 82c-50 0 -84 -53 -100 -141c-17 -91 -15 -181 69 -181c42 0 81 19 111 43c13 -17 18 -34 19 -58c-42 -39 -86 -61 -137 -70l-40 -46c49 -13 68 -49 58 -102c-12 -60 -76 -93 -174 -90c-4 12 -3 29 1 43
c46 -1 83 13 88 42c6 34 -18 51 -53 51c-8 11 -12 26 -9 43l50 55c-137 9 -160 125 -136 243c24 113 97 232 269 232c45 0 94 -12 119 -29c-13 -37 -20 -75 -21 -110z" />
    <glyph glyph-name="egrave" unicode="&#xe8;" horiz-adv-x="451" 
d="M335 539c-19 -6 -48 -5 -68 2c-28 51 -63 105 -108 159c39 11 88 15 132 5c9 -52 24 -111 44 -166zM297 467c103 0 151 -56 137 -122c-15 -76 -124 -151 -257 -158c-1 -60 16 -105 76 -105c39 0 77 16 107 43c13 -17 19 -35 19 -59c-52 -48 -110 -75 -194 -75
c-152 0 -178 120 -155 237c30 153 139 239 267 239zM326 337c8 41 -6 67 -41 67c-41 0 -82 -45 -100 -146l-2 -12c76 7 133 40 143 91z" />
    <glyph glyph-name="eacute" unicode="&#xe9;" horiz-adv-x="451" 
d="M324 718c54 9 109 4 139 -14c-59 -56 -116 -121 -158 -180c-24 2 -49 11 -68 24c39 62 73 130 87 170zM297 467c103 0 151 -56 137 -122c-15 -76 -124 -151 -257 -158c-1 -60 16 -105 76 -105c39 0 77 16 107 43c13 -17 19 -35 19 -59c-52 -48 -110 -75 -194 -75
c-152 0 -178 120 -155 237c30 153 139 239 267 239zM326 337c8 41 -6 67 -41 67c-41 0 -82 -45 -100 -146l-2 -12c76 7 133 40 143 91z" />
    <glyph glyph-name="ecircumflex" unicode="&#xea;" horiz-adv-x="451" 
d="M371 706c33 -49 71 -96 119 -150c-12 -16 -36 -27 -62 -30c-37 30 -79 58 -119 79c-47 -23 -104 -58 -142 -86c-22 13 -35 40 -35 59c60 38 127 89 175 135c21 3 44 0 64 -7zM297 467c103 0 151 -56 137 -122c-15 -76 -124 -151 -257 -158c-1 -60 16 -105 76 -105
c39 0 77 16 107 43c13 -17 19 -35 19 -59c-52 -48 -110 -75 -194 -75c-152 0 -178 120 -155 237c30 153 139 239 267 239zM326 337c8 41 -6 67 -41 67c-41 0 -82 -45 -100 -146l-2 -12c76 7 133 40 143 91z" />
    <glyph glyph-name="edieresis" unicode="&#xeb;" horiz-adv-x="451" 
d="M206 513c-49 0 -74 35 -63 87c7 40 33 62 76 62c50 0 75 -34 63 -85c-10 -41 -36 -64 -76 -64zM417 662c48 0 73 -32 62 -82c-8 -43 -35 -67 -78 -67c-49 0 -74 33 -64 83c6 42 33 66 80 66zM297 467c103 0 151 -56 137 -122c-15 -76 -124 -151 -257 -158
c-1 -60 16 -105 76 -105c39 0 77 16 107 43c13 -17 19 -35 19 -59c-52 -48 -110 -75 -194 -75c-152 0 -178 120 -155 237c30 153 139 239 267 239zM326 337c8 41 -6 67 -41 67c-41 0 -82 -45 -100 -146l-2 -12c76 7 133 40 143 91z" />
    <glyph glyph-name="igrave" unicode="&#xec;" horiz-adv-x="302" 
d="M183 705c9 -52 24 -111 44 -166c-19 -6 -48 -5 -68 2c-28 51 -63 105 -108 159c39 11 88 15 132 5zM219 467c35 -16 47 -46 32 -114l-45 -189c-15 -67 -13 -79 4 -79c10 0 24 6 41 21c12 -11 23 -32 26 -51c-42 -43 -92 -64 -141 -64c-94 0 -104 66 -81 165l29 114
c21 84 18 97 -47 97c0 20 3 42 10 59c60 3 125 20 172 41z" />
    <glyph glyph-name="iacute" unicode="&#xed;" horiz-adv-x="302" 
d="M216 718c54 9 109 4 139 -14c-59 -56 -116 -121 -158 -180c-24 2 -49 11 -68 24c39 62 73 130 87 170zM219 467c35 -16 47 -46 32 -114l-45 -189c-15 -67 -13 -79 4 -79c10 0 24 6 41 21c12 -11 23 -32 26 -51c-42 -43 -92 -64 -141 -64c-94 0 -104 66 -81 165l29 114
c21 84 18 97 -47 97c0 20 3 42 10 59c60 3 125 20 172 41z" />
    <glyph glyph-name="icircumflex" unicode="&#xee;" horiz-adv-x="302" 
d="M199 713c21 3 44 0 64 -7c33 -49 71 -96 119 -150c-12 -16 -36 -27 -62 -30c-37 30 -79 58 -119 79c-47 -23 -104 -58 -142 -86c-22 13 -35 40 -35 59c60 38 127 89 175 135zM219 467c35 -16 47 -46 32 -114l-45 -189c-15 -67 -13 -79 4 -79c10 0 24 6 41 21
c12 -11 23 -32 26 -51c-42 -43 -92 -64 -141 -64c-94 0 -104 66 -81 165l29 114c21 84 18 97 -47 97c0 20 3 42 10 59c60 3 125 20 172 41z" />
    <glyph glyph-name="idieresis" unicode="&#xef;" horiz-adv-x="302" 
d="M35 600c7 40 33 62 76 62c50 0 75 -34 63 -85c-10 -41 -36 -64 -76 -64c-49 0 -74 35 -63 87zM371 580c-8 -43 -35 -67 -78 -67c-49 0 -74 33 -64 83c6 42 33 66 80 66c48 0 73 -32 62 -82zM219 467c35 -16 47 -46 32 -114l-45 -189c-15 -67 -13 -79 4 -79
c10 0 24 6 41 21c12 -11 23 -32 26 -51c-42 -43 -92 -64 -141 -64c-94 0 -104 66 -81 165l29 114c21 84 18 97 -47 97c0 20 3 42 10 59c60 3 125 20 172 41z" />
    <glyph glyph-name="eth" unicode="&#xf0;" horiz-adv-x="509" 
d="M389 620c96 -86 127 -193 99 -335c-35 -181 -183 -294 -309 -294c-135 0 -175 104 -151 228c27 136 123 248 288 248c15 0 29 -1 42 -3c-5 48 -21 86 -51 121c-54 -24 -108 -49 -145 -68c-7 20 -9 49 -4 68l101 44c-24 19 -54 37 -89 55c7 20 19 36 38 45
c48 -21 90 -43 126 -67l150 66c6 -21 6 -49 2 -68c-22 -9 -57 -23 -97 -40zM230 73c40 0 85 60 114 210c8 41 13 78 15 110c-17 7 -40 10 -58 10c-64 0 -98 -62 -116 -146c-21 -104 -4 -184 45 -184z" />
    <glyph glyph-name="ntilde" unicode="&#xf1;" horiz-adv-x="601" 
d="M272 551c-33 0 -69 -16 -102 -43c-14 16 -22 32 -21 56c65 79 115 96 151 96c60 0 92 -41 133 -41c35 0 62 17 84 35c14 -12 25 -28 29 -49c-51 -73 -90 -99 -136 -99c-61 0 -89 45 -138 45zM550 106c12 -12 23 -33 26 -51c-44 -44 -93 -64 -141 -64
c-101 0 -102 70 -79 172l21 89c15 69 8 101 -19 101c-45 0 -125 -93 -157 -267l-16 -86h-148l52 275c14 81 12 92 -52 92c0 20 2 42 10 59c60 2 138 20 187 41c24 -11 32 -33 27 -65c-9 -49 -19 -81 -38 -124v-3l17 36c38 79 122 156 205 156c67 0 120 -49 86 -196l-23 -101
c-19 -80 -16 -86 -1 -86c11 0 27 8 43 22z" />
    <glyph glyph-name="ograve" unicode="&#xf2;" horiz-adv-x="541" 
d="M314 705c9 -52 24 -111 44 -166c-19 -6 -48 -5 -68 2c-28 51 -63 105 -108 159c39 11 88 15 132 5zM310 467c150 0 223 -94 200 -235c-23 -147 -130 -241 -279 -241c-154 0 -224 100 -200 239c24 147 130 237 279 237zM297 406c-52 0 -93 -68 -110 -167
c-20 -115 4 -187 55 -187c50 0 96 66 114 174c18 106 -5 180 -59 180z" />
    <glyph glyph-name="oacute" unicode="&#xf3;" horiz-adv-x="541" 
d="M346 718c54 9 109 4 139 -14c-59 -56 -116 -121 -158 -180c-24 2 -49 11 -68 24c39 62 73 130 87 170zM310 467c150 0 223 -94 200 -235c-23 -147 -130 -241 -279 -241c-154 0 -224 100 -200 239c24 147 130 237 279 237zM297 406c-52 0 -93 -68 -110 -167
c-20 -115 4 -187 55 -187c50 0 96 66 114 174c18 106 -5 180 -59 180z" />
    <glyph glyph-name="ocircumflex" unicode="&#xf4;" horiz-adv-x="541" 
d="M329 713c21 3 44 0 64 -7c33 -49 71 -96 119 -150c-12 -16 -36 -27 -62 -30c-37 30 -79 58 -119 79c-47 -23 -104 -58 -142 -86c-22 13 -35 40 -35 59c60 38 127 89 175 135zM310 467c150 0 223 -94 200 -235c-23 -147 -130 -241 -279 -241c-154 0 -224 100 -200 239
c24 147 130 237 279 237zM297 406c-52 0 -93 -68 -110 -167c-20 -115 4 -187 55 -187c50 0 96 66 114 174c18 106 -5 180 -59 180z" />
    <glyph glyph-name="otilde" unicode="&#xf5;" horiz-adv-x="541" 
d="M278 660c60 0 92 -41 133 -41c35 0 62 17 84 35c14 -12 25 -28 29 -49c-51 -73 -90 -99 -136 -99c-61 0 -89 45 -138 45c-33 0 -69 -16 -102 -43c-14 16 -22 32 -21 56c65 79 115 96 151 96zM310 467c150 0 223 -94 200 -235c-23 -147 -130 -241 -279 -241
c-154 0 -224 100 -200 239c24 147 130 237 279 237zM297 406c-52 0 -93 -68 -110 -167c-20 -115 4 -187 55 -187c50 0 96 66 114 174c18 106 -5 180 -59 180z" />
    <glyph glyph-name="odieresis" unicode="&#xf6;" horiz-adv-x="541" 
d="M165 600c7 40 33 62 76 62c50 0 75 -34 63 -85c-10 -41 -36 -64 -76 -64c-49 0 -74 35 -63 87zM501 580c-8 -43 -35 -67 -78 -67c-49 0 -74 33 -64 83c6 42 33 66 80 66c48 0 73 -32 62 -82zM310 467c150 0 223 -94 200 -235c-23 -147 -130 -241 -279 -241
c-154 0 -224 100 -200 239c24 147 130 237 279 237zM297 406c-52 0 -93 -68 -110 -167c-20 -115 4 -187 55 -187c50 0 96 66 114 174c18 106 -5 180 -59 180z" />
    <glyph glyph-name="divide" unicode="&#xf7;" horiz-adv-x="523" 
d="M307 499c40 0 72 -31 63 -80c-7 -36 -32 -60 -72 -60c-49 0 -78 32 -68 83c7 35 34 57 77 57zM55 298h447c-1 -26 -8 -52 -22 -72c-140 0 -284 0 -447 -3c1 27 8 54 22 75zM253 164c39 0 74 -30 64 -80c-7 -38 -31 -61 -73 -61c-47 0 -77 31 -66 84c6 34 32 57 75 57z
" />
    <glyph glyph-name="oslash" unicode="&#xf8;" horiz-adv-x="547" 
d="M551 453c-19 -17 -42 -37 -66 -59c29 -41 40 -96 29 -162c-24 -147 -130 -241 -280 -241c-49 0 -90 10 -122 29l-43 -46c-25 0 -52 11 -65 28l61 60c-32 42 -43 101 -31 168c25 147 131 237 280 237c52 0 94 -11 127 -32l47 47c28 0 51 -12 63 -29zM190 239
c-4 -21 -6 -41 -7 -59l174 173c-10 33 -29 53 -57 53c-52 0 -93 -68 -110 -167zM359 226c3 19 5 36 6 53c-58 -58 -119 -119 -174 -176c10 -33 29 -51 55 -51c49 0 95 66 113 174z" />
    <glyph glyph-name="ugrave" unicode="&#xf9;" horiz-adv-x="602" 
d="M328 705c9 -52 24 -111 44 -166c-19 -6 -48 -5 -68 2c-28 51 -63 105 -108 159c39 11 88 15 132 5zM233 467c35 -22 36 -34 -4 -210c-25 -108 -16 -143 17 -143c39 0 116 76 151 262l15 82h148l-46 -251c-22 -112 -21 -123 -1 -123c10 0 21 7 37 22c13 -10 24 -32 27 -51
c-39 -40 -92 -64 -141 -64c-86 0 -103 52 -90 115c3 15 7 31 15 48h-1c-43 -87 -127 -163 -218 -163c-83 0 -102 78 -69 221c36 149 33 153 -35 155c-1 19 1 42 9 59c59 2 138 20 186 41z" />
    <glyph glyph-name="uacute" unicode="&#xfa;" horiz-adv-x="602" 
d="M360 718c54 9 109 4 139 -14c-59 -56 -116 -121 -158 -180c-24 2 -49 11 -68 24c39 62 73 130 87 170zM233 467c35 -22 36 -34 -4 -210c-25 -108 -16 -143 17 -143c39 0 116 76 151 262l15 82h148l-46 -251c-22 -112 -21 -123 -1 -123c10 0 21 7 37 22
c13 -10 24 -32 27 -51c-39 -40 -92 -64 -141 -64c-86 0 -103 52 -90 115c3 15 7 31 15 48h-1c-43 -87 -127 -163 -218 -163c-83 0 -102 78 -69 221c36 149 33 153 -35 155c-1 19 1 42 9 59c59 2 138 20 186 41z" />
    <glyph glyph-name="ucircumflex" unicode="&#xfb;" horiz-adv-x="602" 
d="M343 713c21 3 44 0 64 -7c33 -49 71 -96 119 -150c-12 -16 -36 -27 -62 -30c-37 30 -79 58 -119 79c-47 -23 -104 -58 -142 -86c-22 13 -35 40 -35 59c60 38 127 89 175 135zM233 467c35 -22 36 -34 -4 -210c-25 -108 -16 -143 17 -143c39 0 116 76 151 262l15 82h148
l-46 -251c-22 -112 -21 -123 -1 -123c10 0 21 7 37 22c13 -10 24 -32 27 -51c-39 -40 -92 -64 -141 -64c-86 0 -103 52 -90 115c3 15 7 31 15 48h-1c-43 -87 -127 -163 -218 -163c-83 0 -102 78 -69 221c36 149 33 153 -35 155c-1 19 1 42 9 59c59 2 138 20 186 41z" />
    <glyph glyph-name="udieresis" unicode="&#xfc;" horiz-adv-x="602" 
d="M179 600c7 40 33 62 76 62c50 0 75 -34 63 -85c-10 -41 -36 -64 -76 -64c-49 0 -74 35 -63 87zM515 580c-8 -43 -35 -67 -78 -67c-49 0 -74 33 -64 83c6 42 33 66 80 66c48 0 73 -32 62 -82zM233 467c35 -22 36 -34 -4 -210c-25 -108 -16 -143 17 -143
c39 0 116 76 151 262l15 82h148l-46 -251c-22 -112 -21 -123 -1 -123c10 0 21 7 37 22c13 -10 24 -32 27 -51c-39 -40 -92 -64 -141 -64c-86 0 -103 52 -90 115c3 15 7 31 15 48h-1c-43 -87 -127 -163 -218 -163c-83 0 -102 78 -69 221c36 149 33 153 -35 155
c-1 19 1 42 9 59c59 2 138 20 186 41z" />
    <glyph glyph-name="yacute" unicode="&#xfd;" horiz-adv-x="518" 
d="M458 704c-59 -56 -116 -121 -158 -180c-24 2 -49 11 -68 24c39 62 73 130 87 170c54 9 109 4 139 -14zM451 467c37 -12 55 -43 55 -86c0 -70 -38 -150 -198 -350c-192 -242 -242 -279 -324 -279c-40 0 -75 14 -104 43c-1 27 5 61 16 85c31 -14 69 -20 104 -20
c56 0 94 14 156 83c-13 145 -34 264 -63 364c-14 47 -26 63 -78 60c-1 22 2 42 9 59c44 4 116 25 148 41c29 -9 37 -21 49 -73c26 -107 41 -206 49 -306c76 107 99 168 99 216c0 38 -22 61 -70 62c-3 21 -1 41 4 59c45 7 118 28 148 42z" />
    <glyph glyph-name="thorn" unicode="&#xfe;" horiz-adv-x="544" 
d="M410 467c109 0 128 -108 105 -227c-28 -139 -124 -249 -288 -249c-21 0 -40 2 -57 6c0 -28 -2 -52 -6 -76l-30 -165h-147l134 762c14 81 12 92 -52 92c0 20 2 42 10 59c59 2 137 20 186 41c24 -16 32 -33 24 -77l-31 -167c-18 -99 -33 -145 -53 -199h2
c43 122 115 200 203 200zM358 202c22 102 10 156 -26 156c-34 0 -103 -71 -137 -236l-13 -56c17 -7 42 -11 60 -11c65 0 98 61 116 147z" />
    <glyph glyph-name="ydieresis" unicode="&#xff;" horiz-adv-x="518" 
d="M201 513c-49 0 -74 35 -63 87c7 40 33 62 76 62c50 0 75 -34 63 -85c-10 -41 -36 -64 -76 -64zM396 513c-49 0 -74 33 -64 83c6 42 33 66 80 66c48 0 73 -32 62 -82c-8 -43 -35 -67 -78 -67zM451 467c37 -12 55 -43 55 -86c0 -70 -38 -150 -198 -350
c-192 -242 -242 -279 -324 -279c-40 0 -75 14 -104 43c-1 27 5 61 16 85c31 -14 69 -20 104 -20c56 0 94 14 156 83c-13 145 -34 264 -63 364c-14 47 -26 63 -78 60c-1 22 2 42 9 59c44 4 116 25 148 41c29 -9 37 -21 49 -73c26 -107 41 -206 49 -306c76 107 99 168 99 216
c0 38 -22 61 -70 62c-3 21 -1 41 4 59c45 7 118 28 148 42z" />
    <glyph glyph-name="Amacron" unicode="&#x100;" horiz-adv-x="700" 
d="M266 849h356c0 -15 -2 -34 -9 -51c-118 0 -236 -1 -356 -6c0 15 2 41 9 57zM642 59c4 -16 5 -39 2 -62c-37 3 -106 3 -137 3c-33 0 -110 0 -149 -3c0 24 4 46 11 62c57 9 66 27 53 79l-12 52c-79 0 -165 -2 -246 -7l-20 -35c-33 -55 -25 -81 22 -89c3 -19 4 -40 0 -62
c-26 2 -77 3 -109 3c-34 0 -64 -1 -89 -3c1 23 4 43 12 62c35 9 54 29 101 106c73 119 158 264 299 511c21 6 38 6 61 6c57 -189 106 -374 140 -515c21 -91 33 -102 61 -108zM201 246h195c-13 49 -26 99 -40 148c-10 32 -16 68 -20 107c-18 -40 -37 -76 -54 -109
c-26 -49 -53 -98 -81 -146z" />
    <glyph glyph-name="amacron" unicode="&#x101;" horiz-adv-x="557" 
d="M184 631h356c0 -15 -2 -34 -9 -51c-118 0 -236 -1 -356 -6c0 15 2 41 9 57zM464 84c12 0 23 6 42 22c11 -12 22 -33 26 -51c-39 -40 -84 -64 -138 -64c-81 0 -92 69 -80 125c5 22 15 49 26 75h-4c-43 -122 -115 -200 -203 -200c-108 0 -128 108 -105 228
c28 139 124 248 288 248c34 0 66 -5 90 -14c30 3 59 7 85 14c21 -14 28 -33 15 -92l-47 -207c-16 -71 -14 -84 5 -84zM211 101c34 0 103 70 138 235l13 56c-17 7 -42 11 -60 11c-66 0 -99 -61 -117 -146c-21 -103 -10 -156 26 -156z" />
    <glyph glyph-name="Abreve" unicode="&#x102;" horiz-adv-x="700" 
d="M424 739c-122 0 -175 62 -153 176c24 10 54 14 79 12c-3 -57 37 -91 105 -91c67 0 116 34 131 91c26 3 49 0 64 -7c-23 -117 -103 -181 -226 -181zM581 167c21 -91 33 -102 61 -108c4 -16 5 -39 2 -62c-37 3 -106 3 -137 3c-33 0 -110 0 -149 -3c0 24 4 46 11 62
c57 9 66 27 53 79l-12 52c-79 0 -165 -2 -246 -7l-20 -35c-33 -55 -25 -81 22 -89c3 -19 4 -40 0 -62c-26 2 -77 3 -109 3c-34 0 -64 -1 -89 -3c1 23 4 43 12 62c35 9 54 29 101 106c73 119 158 264 299 511c21 6 38 6 61 6c57 -189 106 -374 140 -515zM201 246h195
c-13 49 -26 99 -40 148c-10 32 -16 68 -20 107c-18 -40 -37 -76 -54 -109c-26 -49 -53 -98 -81 -146z" />
    <glyph glyph-name="abreve" unicode="&#x103;" horiz-adv-x="557" 
d="M342 521c-122 0 -175 62 -153 176c24 10 54 14 79 12c-3 -57 37 -91 105 -91c67 0 116 34 131 91c26 3 49 0 64 -7c-23 -117 -103 -181 -226 -181zM464 84c12 0 23 6 42 22c11 -12 22 -33 26 -51c-39 -40 -84 -64 -138 -64c-81 0 -92 69 -80 125c5 22 15 49 26 75h-4
c-43 -122 -115 -200 -203 -200c-108 0 -128 108 -105 228c28 139 124 248 288 248c34 0 66 -5 90 -14c30 3 59 7 85 14c21 -14 28 -33 15 -92l-47 -207c-16 -71 -14 -84 5 -84zM211 101c34 0 103 70 138 235l13 56c-17 7 -42 11 -60 11c-66 0 -99 -61 -117 -146
c-21 -103 -10 -156 26 -156z" />
    <glyph glyph-name="Aogonek" unicode="&#x104;" horiz-adv-x="700" 
d="M582 -1c-70 -27 -101 -63 -105 -95c-4 -25 10 -50 48 -50c11 0 24 2 35 7c13 -15 18 -37 19 -56c-32 -11 -66 -31 -91 -53c-8 -1 -13 -1 -21 -1c-77 0 -136 35 -121 115c8 45 36 89 128 134c-37 0 -87 -1 -116 -3c0 24 4 46 11 62c57 9 66 27 53 79l-12 52
c-79 0 -165 -2 -246 -7l-20 -35c-33 -55 -25 -81 22 -89c3 -19 4 -40 0 -62c-26 2 -77 3 -109 3c-34 0 -64 -1 -89 -3c1 23 4 43 12 62c35 9 54 29 101 106c73 119 158 264 299 511c21 6 38 6 61 6c57 -189 106 -374 140 -515c21 -91 33 -102 61 -108c4 -16 5 -39 2 -62
c-16 1 -39 2 -62 2zM201 246h195c-13 49 -26 99 -40 148c-10 32 -16 68 -20 107c-18 -40 -37 -76 -54 -109c-26 -49 -53 -98 -81 -146z" />
    <glyph glyph-name="aogonek" unicode="&#x105;" horiz-adv-x="557" 
d="M532 55c-15 -15 -30 -28 -46 -38c-69 -39 -102 -78 -106 -113c-4 -26 12 -50 48 -50c11 0 24 2 35 7c13 -15 18 -37 19 -56c-32 -11 -66 -31 -91 -53c-8 -1 -13 -1 -21 -1c-77 0 -136 35 -121 115c7 42 32 86 121 127c-59 13 -67 73 -56 123c5 22 15 49 26 75h-4
c-43 -122 -115 -200 -203 -200c-108 0 -128 108 -105 228c28 139 124 248 288 248c34 0 66 -5 90 -14c30 3 59 7 85 14c21 -14 28 -33 15 -92l-47 -207c-16 -71 -14 -84 5 -84c12 0 23 6 42 22c11 -12 22 -33 26 -51zM211 101c34 0 103 70 138 235l13 56
c-17 7 -42 11 -60 11c-66 0 -99 -61 -117 -146c-21 -103 -10 -156 26 -156z" />
    <glyph glyph-name="Cacute" unicode="&#x106;" horiz-adv-x="619" 
d="M491 936c54 9 109 4 139 -14c-59 -56 -116 -121 -158 -180c-24 2 -49 11 -68 24c39 62 73 130 87 170zM663 629c-16 -46 -26 -96 -33 -153c-21 -8 -50 -10 -77 -5c16 125 -28 153 -101 153c-133 0 -215 -132 -237 -283c-21 -150 26 -271 171 -271c56 0 114 16 171 47
c14 -14 20 -33 21 -55c-70 -48 -146 -71 -235 -71c-214 0 -319 151 -287 356c35 231 221 338 392 338c82 0 150 -16 215 -56z" />
    <glyph glyph-name="cacute" unicode="&#x107;" horiz-adv-x="423" 
d="M332 718c54 9 109 4 139 -14c-59 -56 -116 -121 -158 -180c-24 2 -49 11 -68 24c39 62 73 130 87 170zM301 467c45 0 94 -12 119 -29c-13 -37 -20 -75 -21 -110c-20 -8 -43 -10 -67 -7c4 53 -10 82 -47 82c-50 0 -84 -53 -100 -141c-17 -91 -15 -181 69 -181
c42 0 81 19 111 43c13 -17 18 -34 19 -58c-58 -54 -119 -75 -197 -75c-154 0 -180 121 -155 244c24 113 97 232 269 232z" />
    <glyph glyph-name="Ccircumflex" unicode="&#x108;" horiz-adv-x="619" 
d="M474 931c21 3 44 0 64 -7c33 -49 71 -96 119 -150c-12 -16 -36 -27 -62 -30c-37 30 -79 58 -119 79c-47 -23 -104 -58 -142 -86c-22 13 -35 40 -35 59c60 38 127 89 175 135zM663 629c-16 -46 -26 -96 -33 -153c-21 -8 -50 -10 -77 -5c16 125 -28 153 -101 153
c-133 0 -215 -132 -237 -283c-21 -150 26 -271 171 -271c56 0 114 16 171 47c14 -14 20 -33 21 -55c-70 -48 -146 -71 -235 -71c-214 0 -319 151 -287 356c35 231 221 338 392 338c82 0 150 -16 215 -56z" />
    <glyph glyph-name="ccircumflex" unicode="&#x109;" horiz-adv-x="423" 
d="M315 713c21 3 44 0 64 -7c33 -49 71 -96 119 -150c-12 -16 -36 -27 -62 -30c-37 30 -79 58 -119 79c-47 -23 -104 -58 -142 -86c-22 13 -35 40 -35 59c60 38 127 89 175 135zM301 467c45 0 94 -12 119 -29c-13 -37 -20 -75 -21 -110c-20 -8 -43 -10 -67 -7
c4 53 -10 82 -47 82c-50 0 -84 -53 -100 -141c-17 -91 -15 -181 69 -181c42 0 81 19 111 43c13 -17 18 -34 19 -58c-58 -54 -119 -75 -197 -75c-154 0 -180 121 -155 244c24 113 97 232 269 232z" />
    <glyph glyph-name="Cdotaccent" unicode="&#x10a;" horiz-adv-x="619" 
d="M492 886c55 0 82 -30 75 -75c-8 -43 -44 -72 -101 -72c-58 0 -80 30 -73 71c7 49 47 76 99 76zM663 629c-16 -46 -26 -96 -33 -153c-21 -8 -50 -10 -77 -5c16 125 -28 153 -101 153c-133 0 -215 -132 -237 -283c-21 -150 26 -271 171 -271c56 0 114 16 171 47
c14 -14 20 -33 21 -55c-70 -48 -146 -71 -235 -71c-214 0 -319 151 -287 356c35 231 221 338 392 338c82 0 150 -16 215 -56z" />
    <glyph glyph-name="cdotaccent" unicode="&#x10b;" horiz-adv-x="423" 
d="M339 671c46 0 76 -32 66 -82c-8 -45 -42 -71 -98 -71c-48 0 -74 31 -67 79c8 47 45 74 99 74zM301 467c45 0 94 -12 119 -29c-13 -37 -20 -75 -21 -110c-20 -8 -43 -10 -67 -7c4 53 -10 82 -47 82c-50 0 -84 -53 -100 -141c-17 -91 -15 -181 69 -181c42 0 81 19 111 43
c13 -17 18 -34 19 -58c-58 -54 -119 -75 -197 -75c-154 0 -180 121 -155 244c24 113 97 232 269 232z" />
    <glyph glyph-name="Ccaron" unicode="&#x10c;" horiz-adv-x="619" 
d="M630 927c19 -6 34 -23 41 -42c-58 -41 -124 -93 -174 -143c-19 -9 -43 -11 -65 -8c-35 51 -79 106 -123 153c9 24 26 39 55 44c37 -31 83 -63 125 -85c51 22 103 52 141 81zM663 629c-16 -46 -26 -96 -33 -153c-21 -8 -50 -10 -77 -5c16 125 -28 153 -101 153
c-133 0 -215 -132 -237 -283c-21 -150 26 -271 171 -271c56 0 114 16 171 47c14 -14 20 -33 21 -55c-70 -48 -146 -71 -235 -71c-214 0 -319 151 -287 356c35 231 221 338 392 338c82 0 150 -16 215 -56z" />
    <glyph glyph-name="ccaron" unicode="&#x10d;" horiz-adv-x="423" 
d="M471 709c19 -6 34 -23 41 -42c-58 -41 -124 -93 -174 -143c-19 -9 -43 -11 -65 -8c-35 51 -79 106 -123 153c9 24 26 39 55 44c37 -31 83 -63 125 -85c51 22 103 52 141 81zM301 467c45 0 94 -12 119 -29c-13 -37 -20 -75 -21 -110c-20 -8 -43 -10 -67 -7
c4 53 -10 82 -47 82c-50 0 -84 -53 -100 -141c-17 -91 -15 -181 69 -181c42 0 81 19 111 43c13 -17 18 -34 19 -58c-58 -54 -119 -75 -197 -75c-154 0 -180 121 -155 244c24 113 97 232 269 232z" />
    <glyph glyph-name="Dcaron" unicode="&#x10e;" horiz-adv-x="734" 
d="M459 742c-19 -9 -43 -11 -65 -8c-35 51 -79 106 -123 153c9 24 26 39 55 44c37 -31 83 -63 125 -85c51 22 103 52 141 81c19 -6 34 -23 41 -42c-58 -41 -124 -93 -174 -143zM408 678c190 0 365 -61 313 -348c-48 -273 -269 -330 -426 -330h-3c-72 0 -211 0 -275 -3
c1 22 5 43 13 62c56 6 66 23 81 114l61 352c13 74 -3 86 -54 92c-5 21 -5 45 -1 62c44 -2 116 -3 174 -3c35 0 75 2 117 2zM565 338c41 223 -53 280 -167 280c-22 0 -41 -3 -61 -10l-76 -448c-15 -84 -4 -98 63 -98c90 0 200 50 241 276z" />
    <glyph glyph-name="dcaron" unicode="&#x10f;" horiz-adv-x="684" 
d="M710 717c26 -14 37 -50 25 -109c-12 -66 -49 -134 -119 -189c-25 2 -41 13 -50 30c76 74 82 132 7 145c0 32 8 65 23 90c42 2 86 16 114 33zM518 710c24 -16 31 -33 24 -77l-80 -453c-15 -87 -14 -96 2 -96c11 0 22 6 43 22c11 -12 23 -33 26 -51
c-38 -40 -86 -64 -136 -64c-84 0 -93 67 -81 122c4 21 14 51 24 78h-4c-43 -122 -115 -200 -203 -200c-108 0 -128 108 -105 228c28 139 124 248 288 248c18 0 36 -2 51 -4c1 18 3 37 6 55c14 84 13 92 -52 92c0 20 3 42 10 59c60 2 137 20 187 41zM211 101
c34 0 103 70 138 235l13 56c-17 7 -42 11 -60 11c-66 0 -99 -61 -117 -146c-21 -103 -10 -156 26 -156z" />
    <glyph glyph-name="Dcroat" unicode="&#x110;" horiz-adv-x="734" 
d="M408 678c190 0 365 -61 313 -348c-48 -273 -269 -330 -426 -330h-3c-72 0 -211 0 -275 -3c1 22 5 43 13 62c56 6 66 23 81 114l21 123c-30 -1 -54 -1 -68 -2c0 24 3 45 14 64h65l29 167c13 74 -3 86 -54 92c-5 21 -5 45 -1 62c44 -2 116 -3 174 -3c35 0 75 2 117 2z
M565 338c41 223 -53 280 -167 280c-22 0 -41 -3 -61 -10l-43 -250h74c3 -20 1 -43 -9 -61h-75l-23 -137c-15 -84 -4 -98 63 -98c90 0 200 50 241 276z" />
    <glyph glyph-name="dcroat" unicode="&#x111;" horiz-adv-x="558" 
d="M521 512l-59 -332c-15 -87 -14 -96 2 -96c11 0 22 6 43 22c11 -12 23 -33 26 -51c-38 -40 -86 -64 -136 -64c-84 0 -93 67 -81 122c4 21 14 51 24 78h-4c-43 -122 -115 -200 -203 -200c-108 0 -128 108 -105 228c28 139 124 248 288 248c18 0 36 -2 51 -4c1 15 3 32 5 48
l-102 -3c0 19 3 39 10 55h100c3 42 -8 47 -59 47c0 20 3 42 10 59c60 2 137 20 187 41c24 -16 31 -33 24 -77l-12 -70h62c0 -14 -3 -33 -9 -51h-62zM211 101c34 0 103 70 138 235l13 56c-17 7 -42 11 -60 11c-66 0 -99 -61 -117 -146c-21 -103 -10 -156 26 -156z" />
    <glyph glyph-name="Emacron" unicode="&#x112;" horiz-adv-x="614" 
d="M231 849h356c0 -15 -2 -34 -9 -51c-118 0 -236 -1 -356 -6c0 15 2 41 9 57zM340 614l-41 -240h28c70 0 94 13 103 74c23 4 46 6 72 3c-8 -35 -16 -70 -23 -121c-5 -41 -9 -79 -10 -112c-27 1 -49 5 -69 14c3 51 -11 80 -80 80h-31l-25 -147c-16 -89 -2 -103 65 -103h16
c92 0 129 40 165 136c31 -5 53 -13 74 -31c-18 -45 -38 -108 -48 -170c-59 3 -153 3 -239 3c-82 0 -208 0 -279 -3c1 22 5 41 14 63c56 6 65 22 80 113l60 345c14 77 0 91 -55 99c-3 19 -4 38 0 62c68 -3 170 -3 229 -3c123 0 201 1 278 3c-7 -53 -12 -119 -8 -174
c-22 -6 -48 -10 -77 -9c-4 77 -18 118 -130 118h-69z" />
    <glyph glyph-name="emacron" unicode="&#x113;" horiz-adv-x="451" 
d="M140 631h356c0 -15 -2 -34 -9 -51c-118 0 -236 -1 -356 -6c0 15 2 41 9 57zM297 467c103 0 151 -56 137 -122c-15 -76 -124 -151 -257 -158c-1 -60 16 -105 76 -105c39 0 77 16 107 43c13 -17 19 -35 19 -59c-52 -48 -110 -75 -194 -75c-152 0 -178 120 -155 237
c30 153 139 239 267 239zM326 337c8 41 -6 67 -41 67c-41 0 -82 -45 -100 -146l-2 -12c76 7 133 40 143 91z" />
    <glyph glyph-name="Edotaccent" unicode="&#x116;" horiz-adv-x="614" 
d="M390 739c-58 0 -80 30 -73 71c7 49 47 76 99 76c55 0 82 -30 75 -75c-8 -43 -44 -72 -101 -72zM340 614l-41 -240h28c70 0 94 13 103 74c23 4 46 6 72 3c-8 -35 -16 -70 -23 -121c-5 -41 -9 -79 -10 -112c-27 1 -49 5 -69 14c3 51 -11 80 -80 80h-31l-25 -147
c-16 -89 -2 -103 65 -103h16c92 0 129 40 165 136c31 -5 53 -13 74 -31c-18 -45 -38 -108 -48 -170c-59 3 -153 3 -239 3c-82 0 -208 0 -279 -3c1 22 5 41 14 63c56 6 65 22 80 113l60 345c14 77 0 91 -55 99c-3 19 -4 38 0 62c68 -3 170 -3 229 -3c123 0 201 1 278 3
c-7 -53 -12 -119 -8 -174c-22 -6 -48 -10 -77 -9c-4 77 -18 118 -130 118h-69z" />
    <glyph glyph-name="edotaccent" unicode="&#x117;" horiz-adv-x="451" 
d="M299 518c-48 0 -74 31 -67 79c8 47 45 74 99 74c46 0 76 -32 66 -82c-8 -45 -42 -71 -98 -71zM297 467c103 0 151 -56 137 -122c-15 -76 -124 -151 -257 -158c-1 -60 16 -105 76 -105c39 0 77 16 107 43c13 -17 19 -35 19 -59c-52 -48 -110 -75 -194 -75
c-152 0 -178 120 -155 237c30 153 139 239 267 239zM326 337c8 41 -6 67 -41 67c-41 0 -82 -45 -100 -146l-2 -12c76 7 133 40 143 91z" />
    <glyph glyph-name="Eogonek" unicode="&#x118;" horiz-adv-x="614" 
d="M340 614l-41 -240h28c70 0 94 13 103 74c23 4 46 6 72 3c-8 -35 -16 -70 -23 -121c-5 -41 -9 -79 -10 -112c-27 1 -49 5 -69 14c3 51 -11 80 -80 80h-31l-25 -147c-16 -89 -2 -103 65 -103h16c92 0 129 40 165 136c31 -5 53 -13 74 -31c-18 -45 -38 -108 -48 -170
c-22 1 -49 2 -78 2c-70 -28 -100 -63 -104 -95c-4 -25 10 -50 48 -50c11 0 24 2 35 7c13 -15 18 -37 19 -56c-32 -11 -66 -31 -91 -53c-8 -1 -13 -1 -21 -1c-77 0 -136 35 -121 115c8 45 36 89 128 134h-54c-82 0 -208 0 -279 -3c1 22 5 41 14 63c56 6 65 22 80 113l60 345
c14 77 0 91 -55 99c-3 19 -4 38 0 62c68 -3 170 -3 229 -3c123 0 201 1 278 3c-7 -53 -12 -119 -8 -174c-22 -6 -48 -10 -77 -9c-4 77 -18 118 -130 118h-69z" />
    <glyph glyph-name="eogonek" unicode="&#x119;" horiz-adv-x="451" 
d="M297 467c103 0 151 -56 137 -122c-15 -76 -124 -151 -257 -158c-1 -60 16 -105 76 -105c39 0 77 16 107 43c13 -17 19 -35 19 -59c-26 -24 -53 -42 -83 -55c-51 -36 -73 -66 -77 -96c-7 -44 20 -58 61 -58c13 0 26 1 39 5c6 -12 8 -44 2 -65c-40 -10 -82 -25 -115 -45
c-8 -1 -13 -1 -21 -1c-49 0 -111 30 -99 114c6 41 28 85 99 126c-152 0 -178 120 -155 237c30 153 139 239 267 239zM326 337c8 41 -6 67 -41 67c-41 0 -82 -45 -100 -146l-2 -12c76 7 133 40 143 91z" />
    <glyph glyph-name="Ecaron" unicode="&#x11a;" horiz-adv-x="614" 
d="M420 742c-19 -9 -43 -11 -65 -8c-35 51 -79 106 -123 153c9 24 26 39 55 44c37 -31 83 -63 125 -85c51 22 103 52 141 81c19 -6 34 -23 41 -42c-58 -41 -124 -93 -174 -143zM340 614l-41 -240h28c70 0 94 13 103 74c23 4 46 6 72 3c-8 -35 -16 -70 -23 -121
c-5 -41 -9 -79 -10 -112c-27 1 -49 5 -69 14c3 51 -11 80 -80 80h-31l-25 -147c-16 -89 -2 -103 65 -103h16c92 0 129 40 165 136c31 -5 53 -13 74 -31c-18 -45 -38 -108 -48 -170c-59 3 -153 3 -239 3c-82 0 -208 0 -279 -3c1 22 5 41 14 63c56 6 65 22 80 113l60 345
c14 77 0 91 -55 99c-3 19 -4 38 0 62c68 -3 170 -3 229 -3c123 0 201 1 278 3c-7 -53 -12 -119 -8 -174c-22 -6 -48 -10 -77 -9c-4 77 -18 118 -130 118h-69z" />
    <glyph glyph-name="ecaron" unicode="&#x11b;" horiz-adv-x="451" 
d="M330 524c-19 -9 -43 -11 -65 -8c-35 51 -79 106 -123 153c9 24 26 39 55 44c37 -31 83 -63 125 -85c51 22 103 52 141 81c19 -6 34 -23 41 -42c-58 -41 -124 -93 -174 -143zM297 467c103 0 151 -56 137 -122c-15 -76 -124 -151 -257 -158c-1 -60 16 -105 76 -105
c39 0 77 16 107 43c13 -17 19 -35 19 -59c-52 -48 -110 -75 -194 -75c-152 0 -178 120 -155 237c30 153 139 239 267 239zM326 337c8 41 -6 67 -41 67c-41 0 -82 -45 -100 -146l-2 -12c76 7 133 40 143 91z" />
    <glyph glyph-name="Gcircumflex" unicode="&#x11c;" horiz-adv-x="675" 
d="M475 931c21 3 44 0 64 -7c33 -49 71 -96 119 -150c-12 -16 -36 -27 -62 -30c-37 30 -79 58 -119 79c-47 -23 -104 -58 -142 -86c-22 13 -35 40 -35 59c60 38 127 89 175 135zM457 685c96 0 169 -18 227 -55c-15 -43 -26 -98 -32 -152c-25 -10 -53 -12 -80 -7
c12 122 -29 152 -114 152c-140 0 -222 -127 -244 -282c-23 -156 18 -284 142 -284c30 0 50 3 71 12c22 11 29 25 39 84c16 96 5 108 -60 115c-3 18 -4 42 -1 62c47 -3 96 -3 138 -3c48 0 84 0 140 3c-1 -21 -4 -42 -12 -62c-39 -5 -48 -11 -68 -121c-6 -42 -7 -62 1 -88
c-65 -38 -162 -68 -266 -68c-210 0 -315 148 -283 356c36 234 220 338 402 338z" />
    <glyph glyph-name="gcircumflex" unicode="&#x11d;" horiz-adv-x="525" 
d="M393 706c33 -49 71 -96 119 -150c-12 -16 -36 -27 -62 -30c-37 30 -79 58 -119 79c-47 -23 -104 -58 -142 -86c-22 13 -35 40 -35 59c60 38 127 89 175 135c21 3 44 0 64 -7zM483 467c21 -14 26 -32 19 -73l-48 -275c-37 -204 -130 -367 -303 -367c-64 0 -108 19 -149 51
c-2 25 5 60 16 83c53 -20 124 -31 177 -31c61 0 70 15 92 158c6 44 21 95 45 159l7 19h-3c-43 -122 -115 -200 -203 -200c-108 0 -128 108 -105 228c28 139 124 248 288 248c34 0 65 -5 89 -14c35 3 59 8 78 14zM211 101c34 0 103 70 138 235l13 56c-17 7 -42 11 -60 11
c-66 0 -99 -61 -117 -146c-21 -103 -10 -156 26 -156z" />
    <glyph glyph-name="Gbreve" unicode="&#x11e;" horiz-adv-x="675" 
d="M693 920c-23 -117 -103 -181 -226 -181c-122 0 -175 62 -153 176c24 10 54 14 79 12c-3 -57 37 -91 105 -91c67 0 116 34 131 91c26 3 49 0 64 -7zM457 685c96 0 169 -18 227 -55c-15 -43 -26 -98 -32 -152c-25 -10 -53 -12 -80 -7c12 122 -29 152 -114 152
c-140 0 -222 -127 -244 -282c-23 -156 18 -284 142 -284c30 0 50 3 71 12c22 11 29 25 39 84c16 96 5 108 -60 115c-3 18 -4 42 -1 62c47 -3 96 -3 138 -3c48 0 84 0 140 3c-1 -21 -4 -42 -12 -62c-39 -5 -48 -11 -68 -121c-6 -42 -7 -62 1 -88c-65 -38 -162 -68 -266 -68
c-210 0 -315 148 -283 356c36 234 220 338 402 338z" />
    <glyph glyph-name="gbreve" unicode="&#x11f;" horiz-adv-x="525" 
d="M321 521c-122 0 -175 62 -153 176c24 10 54 14 79 12c-3 -57 37 -91 105 -91c67 0 116 34 131 91c26 3 49 0 64 -7c-23 -117 -103 -181 -226 -181zM483 467c21 -14 26 -32 19 -73l-48 -275c-37 -204 -130 -367 -303 -367c-64 0 -108 19 -149 51c-2 25 5 60 16 83
c53 -20 124 -31 177 -31c61 0 70 15 92 158c6 44 21 95 45 159l7 19h-3c-43 -122 -115 -200 -203 -200c-108 0 -128 108 -105 228c28 139 124 248 288 248c34 0 65 -5 89 -14c35 3 59 8 78 14zM211 101c34 0 103 70 138 235l13 56c-17 7 -42 11 -60 11
c-66 0 -99 -61 -117 -146c-21 -103 -10 -156 26 -156z" />
    <glyph glyph-name="Gdotaccent" unicode="&#x120;" horiz-adv-x="675" 
d="M494 886c55 0 82 -30 75 -75c-8 -43 -44 -72 -101 -72c-58 0 -80 30 -73 71c7 49 47 76 99 76zM457 685c96 0 169 -18 227 -55c-15 -43 -26 -98 -32 -152c-25 -10 -53 -12 -80 -7c12 122 -29 152 -114 152c-140 0 -222 -127 -244 -282c-23 -156 18 -284 142 -284
c30 0 50 3 71 12c22 11 29 25 39 84c16 96 5 108 -60 115c-3 18 -4 42 -1 62c47 -3 96 -3 138 -3c48 0 84 0 140 3c-1 -21 -4 -42 -12 -62c-39 -5 -48 -11 -68 -121c-6 -42 -7 -62 1 -88c-65 -38 -162 -68 -266 -68c-210 0 -315 148 -283 356c36 234 220 338 402 338z" />
    <glyph glyph-name="gdotaccent" unicode="&#x121;" horiz-adv-x="525" 
d="M321 518c-48 0 -74 31 -67 79c8 47 45 74 99 74c46 0 76 -32 66 -82c-8 -45 -42 -71 -98 -71zM483 467c21 -14 26 -32 19 -73l-48 -275c-37 -204 -130 -367 -303 -367c-64 0 -108 19 -149 51c-2 25 5 60 16 83c53 -20 124 -31 177 -31c61 0 70 15 92 158
c6 44 21 95 45 159l7 19h-3c-43 -122 -115 -200 -203 -200c-108 0 -128 108 -105 228c28 139 124 248 288 248c34 0 65 -5 89 -14c35 3 59 8 78 14zM211 101c34 0 103 70 138 235l13 56c-17 7 -42 11 -60 11c-66 0 -99 -61 -117 -146c-21 -103 -10 -156 26 -156z" />
    <glyph glyph-name="Gcommaaccent" unicode="&#x122;" horiz-adv-x="675" 
d="M457 685c96 0 169 -18 227 -55c-15 -43 -26 -98 -32 -152c-25 -10 -53 -12 -80 -7c12 122 -29 152 -114 152c-140 0 -222 -127 -244 -282c-23 -156 18 -284 142 -284c30 0 50 3 71 12c22 11 29 25 39 84c16 96 5 108 -60 115c-3 18 -4 42 -1 62c47 -3 96 -3 138 -3
c48 0 84 0 140 3c-1 -21 -4 -42 -12 -62c-39 -5 -48 -11 -68 -121c-6 -42 -7 -62 1 -88c-65 -38 -162 -68 -266 -68c-210 0 -315 148 -283 356c36 234 220 338 402 338zM375 -40c31 -10 41 -33 34 -76c-13 -78 -70 -139 -141 -185c-20 4 -34 15 -42 31c34 25 57 56 61 80
c3 23 -12 36 -47 40c0 30 9 58 25 80c43 3 81 13 110 30z" />
    <glyph glyph-name="gcommaaccent" unicode="&#x123;" horiz-adv-x="525" 
d="M282 506c-32 10 -39 39 -32 74c12 59 68 112 139 152c20 -4 34 -15 42 -31c-34 -22 -56 -45 -59 -60s7 -26 45 -29c-1 -27 -9 -53 -25 -75c-43 -3 -81 -14 -110 -31zM483 467c21 -14 26 -32 19 -73l-48 -275c-37 -204 -130 -367 -303 -367c-64 0 -108 19 -149 51
c-2 25 5 60 16 83c53 -20 124 -31 177 -31c61 0 70 15 92 158c6 44 21 95 45 159l7 19h-3c-43 -122 -115 -200 -203 -200c-108 0 -128 108 -105 228c28 139 124 248 288 248c34 0 65 -5 89 -14c35 3 59 8 78 14zM211 101c34 0 103 70 138 235l13 56c-17 7 -42 11 -60 11
c-66 0 -99 -61 -117 -146c-21 -103 -10 -156 26 -156z" />
    <glyph glyph-name="Hcircumflex" unicode="&#x124;" horiz-adv-x="786" 
d="M344 737c-22 13 -35 40 -35 59c60 38 127 89 175 135c21 3 44 0 64 -7c33 -49 71 -96 119 -150c-12 -16 -36 -27 -62 -30c-37 30 -79 58 -119 79c-47 -23 -104 -58 -142 -86zM661 676c48 0 99 0 150 3c-1 -21 -4 -42 -12 -62c-53 -8 -63 -21 -79 -106l-61 -355
c-14 -77 -3 -88 50 -97c4 -19 5 -40 2 -62c-49 3 -91 3 -144 3c-58 0 -111 -1 -151 -3c1 24 6 43 14 62c51 7 62 19 76 96l26 154c-75 0 -171 -1 -245 -6l-25 -147c-14 -77 -4 -88 50 -97c3 -19 4 -40 2 -62c-50 3 -91 3 -145 3c-57 0 -110 -1 -151 -3c2 24 6 43 15 62
c51 7 62 19 76 96l63 367c12 73 2 87 -54 95c-3 18 -4 40 -1 62c44 -3 92 -3 147 -3c48 0 99 0 149 3c0 -21 -3 -42 -11 -62c-54 -8 -64 -21 -79 -106l-24 -138h244l26 149c13 73 2 87 -54 95c-3 18 -4 40 -1 62c44 -3 92 -3 147 -3z" />
    <glyph glyph-name="hcircumflex" unicode="&#x125;" horiz-adv-x="593" 
d="M215 737c-22 13 -35 40 -35 59c60 38 127 89 175 135c21 3 44 0 64 -7c33 -49 71 -96 119 -150c-12 -16 -36 -27 -62 -30c-37 30 -79 58 -119 79c-47 -23 -104 -58 -142 -86zM542 106c12 -12 23 -33 26 -51c-44 -44 -93 -64 -141 -64c-101 0 -102 70 -79 172l20 89
c16 69 8 101 -18 101c-45 0 -120 -87 -155 -250l-18 -103h-147l91 518c14 81 12 92 -52 92c-1 20 2 42 10 59c63 4 134 19 186 41c24 -16 32 -33 24 -77c-42 -235 -55 -287 -82 -369h2l22 47c39 79 122 156 205 156c68 0 121 -49 87 -196l-24 -101c-18 -80 -16 -86 0 -86
c10 0 26 8 43 22z" />
    <glyph glyph-name="Hbar" unicode="&#x126;" horiz-adv-x="786" 
d="M799 617c-53 -8 -63 -21 -79 -106l-2 -11h63c0 -24 -5 -41 -13 -61h-60l-49 -283c-14 -77 -3 -88 50 -97c4 -19 5 -40 2 -62c-49 3 -91 3 -144 3c-58 0 -111 -1 -151 -3c1 24 6 43 14 62c51 7 62 19 76 96l26 154c-75 0 -171 -1 -245 -6l-25 -147c-14 -77 -4 -88 50 -97
c3 -19 4 -40 2 -62c-50 3 -91 3 -145 3c-57 0 -110 -1 -151 -3c2 24 6 43 15 62c51 7 62 19 76 96l48 281l-62 -1c0 23 5 50 12 65h61l4 22c12 73 2 87 -54 95c-3 18 -4 40 -1 62c44 -3 92 -3 147 -3c48 0 99 0 149 3c0 -21 -3 -42 -11 -62c-54 -8 -64 -21 -79 -106l-2 -11
h244l4 22c13 73 2 87 -54 95c-3 18 -4 40 -1 62c44 -3 92 -3 147 -3c48 0 99 0 150 3c-1 -21 -4 -42 -12 -62zM554 439l-244 -1l-11 -65h244z" />
    <glyph glyph-name="hbar" unicode="&#x127;" horiz-adv-x="604" 
d="M553 106c11 -12 22 -33 25 -51c-44 -44 -93 -64 -141 -64c-100 0 -102 70 -78 172l20 89c16 69 8 101 -18 101c-46 0 -125 -92 -157 -263l-16 -90h-148l85 487c-26 -1 -52 -2 -76 -4c0 22 4 49 13 73h75c6 47 -6 54 -58 54c0 20 3 42 10 59c64 4 134 19 187 41
c24 -16 31 -33 24 -77l-14 -77h78c0 -20 -2 -44 -10 -67h-81c-23 -119 -35 -163 -55 -225h2l22 47c38 79 122 156 205 156c67 0 121 -49 86 -196l-23 -101c-19 -80 -16 -86 -1 -86c11 0 27 8 44 22z" />
    <glyph glyph-name="Imacron" unicode="&#x12a;" horiz-adv-x="389" 
d="M120 849h356c0 -15 -2 -34 -9 -51c-118 0 -236 -1 -356 -6c0 15 2 41 9 57zM109 155l63 367c12 73 2 87 -54 95c-3 18 -4 40 -1 62c44 -3 92 -3 147 -3c48 0 99 0 149 3c0 -21 -3 -42 -11 -62c-54 -8 -64 -21 -79 -106l-61 -355c-14 -77 -4 -88 50 -97c3 -19 4 -40 2 -62
c-50 3 -91 3 -145 3c-57 0 -110 -1 -151 -3c2 24 6 43 15 62c51 7 62 19 76 96z" />
    <glyph glyph-name="imacron" unicode="&#x12b;" horiz-adv-x="302" 
d="M32 631h356c0 -15 -2 -34 -9 -51c-118 0 -236 -1 -356 -6c0 15 2 41 9 57zM219 467c35 -16 47 -46 32 -114l-45 -189c-15 -67 -13 -79 4 -79c10 0 24 6 41 21c12 -11 23 -32 26 -51c-42 -43 -92 -64 -141 -64c-94 0 -104 66 -81 165l29 114c21 84 18 97 -47 97
c0 20 3 42 10 59c60 3 125 20 172 41z" />
    <glyph glyph-name="Iogonek" unicode="&#x12e;" horiz-adv-x="389" 
d="M264 676c48 0 99 0 149 3c0 -21 -3 -42 -11 -62c-54 -8 -64 -21 -79 -106l-61 -355c-14 -77 -4 -88 50 -97c3 -19 4 -40 2 -62c-22 1 -41 2 -61 2c-70 -27 -101 -63 -105 -95c-4 -25 10 -50 48 -50c11 0 24 2 35 7c13 -15 18 -37 19 -56c-32 -11 -66 -31 -91 -53
c-8 -1 -13 -1 -21 -1c-77 0 -136 35 -121 115c8 45 36 89 128 134c-48 0 -92 -1 -127 -3c2 24 6 43 15 62c51 7 62 19 76 96l63 367c12 73 2 87 -54 95c-3 18 -4 40 -1 62c44 -3 92 -3 147 -3z" />
    <glyph glyph-name="iogonek" unicode="&#x12f;" horiz-adv-x="302" 
d="M217 668c55 0 82 -30 75 -75c-8 -43 -44 -72 -101 -72c-58 0 -80 30 -73 71c7 49 47 76 99 76zM251 106c12 -11 23 -32 26 -51c-15 -16 -31 -28 -48 -38c-69 -39 -102 -78 -106 -113c-4 -26 12 -50 48 -50c11 0 24 2 35 7c13 -15 18 -37 19 -56c-32 -11 -66 -31 -91 -53
c-8 -1 -13 -1 -21 -1c-77 0 -136 35 -121 115c7 42 32 86 120 127c-72 10 -78 73 -57 163l29 114c21 84 18 97 -47 97c0 20 3 42 10 59c60 3 125 20 172 41c35 -16 47 -46 32 -114l-45 -189c-15 -67 -13 -79 4 -79c10 0 24 6 41 21z" />
    <glyph glyph-name="Idotaccent" unicode="&#x130;" horiz-adv-x="389" 
d="M305 886c55 0 82 -30 75 -75c-8 -43 -44 -72 -101 -72c-58 0 -80 30 -73 71c7 49 47 76 99 76zM109 155l63 367c12 73 2 87 -54 95c-3 18 -4 40 -1 62c44 -3 92 -3 147 -3c48 0 99 0 149 3c0 -21 -3 -42 -11 -62c-54 -8 -64 -21 -79 -106l-61 -355c-14 -77 -4 -88 50 -97
c3 -19 4 -40 2 -62c-50 3 -91 3 -145 3c-57 0 -110 -1 -151 -3c2 24 6 43 15 62c51 7 62 19 76 96z" />
    <glyph glyph-name="dotlessi" unicode="&#x131;" horiz-adv-x="302" 
d="M219 467c35 -16 47 -46 32 -114l-45 -189c-15 -67 -13 -79 4 -79c10 0 24 6 41 21c12 -11 23 -32 26 -51c-42 -43 -92 -64 -141 -64c-94 0 -104 66 -81 165l29 114c21 84 18 97 -47 97c0 20 3 42 10 59c60 3 125 20 172 41z" />
    <glyph glyph-name="IJ" unicode="&#x132;" horiz-adv-x="722" 
d="M109 155l63 367c12 73 2 87 -54 95c-3 18 -4 40 -1 62c44 -3 92 -3 147 -3c48 0 99 0 149 3c0 -21 -3 -42 -11 -62c-54 -8 -64 -21 -79 -106l-61 -355c-14 -77 -4 -88 50 -97c3 -19 4 -40 2 -62c-50 3 -91 3 -145 3c-57 0 -110 -1 -151 -3c2 24 6 43 15 62
c51 7 62 19 76 96zM480 679c39 -3 95 -3 147 -3c58 0 105 1 150 3c-1 -24 -5 -45 -10 -62c-54 -7 -65 -19 -82 -110l-67 -384c-32 -186 -80 -288 -293 -370c-18 14 -24 37 -24 63c81 48 130 107 153 241l81 466c13 72 5 87 -53 94c-5 19 -5 40 -2 62z" />
    <glyph glyph-name="ij" unicode="&#x133;" horiz-adv-x="539" 
d="M208 537c-44 0 -69 31 -63 77c6 45 41 72 91 72c42 0 71 -31 62 -79c-6 -44 -37 -70 -90 -70zM466 686c48 0 76 -31 68 -79c-7 -44 -38 -70 -86 -70c-49 0 -74 31 -67 77c6 45 40 72 85 72zM381 458h149l-66 -356c-36 -199 -115 -286 -286 -349c-15 13 -23 32 -23 58
c82 51 132 124 153 241c7 38 13 70 27 103l-2 2c-37 -85 -130 -166 -203 -166c-86 0 -99 65 -75 165l29 114c21 84 18 97 -47 97c0 20 3 42 10 59c60 3 125 20 172 41c35 -16 47 -46 32 -114l-34 -134c-20 -92 -15 -105 4 -105c42 0 117 107 142 242z" />
    <glyph glyph-name="Jcircumflex" unicode="&#x134;" horiz-adv-x="350" 
d="M273 931c21 3 44 0 64 -7c33 -49 71 -96 119 -150c-12 -16 -36 -27 -62 -30c-37 30 -79 58 -119 79c-47 -23 -104 -58 -142 -86c-22 13 -35 40 -35 59c60 38 127 89 175 135zM108 679c39 -3 95 -3 147 -3c58 0 105 1 150 3c-1 -24 -5 -45 -10 -62
c-54 -7 -65 -19 -82 -110l-67 -384c-32 -186 -80 -288 -293 -370c-18 14 -24 37 -24 63c81 48 130 107 153 241l81 466c13 72 5 87 -53 94c-5 19 -5 40 -2 62z" />
    <glyph glyph-name="jcircumflex" unicode="&#x135;" horiz-adv-x="275" 
d="M202 713c21 3 44 0 64 -7c33 -49 71 -96 119 -150c-12 -16 -36 -27 -62 -30c-37 30 -79 58 -119 79c-47 -23 -104 -58 -142 -86c-22 13 -35 40 -35 59c60 38 127 89 175 135zM44 426c60 2 132 20 180 41c29 -20 39 -35 24 -115l-46 -250c-36 -199 -115 -286 -285 -349
c-16 13 -24 32 -24 58c81 50 132 123 153 241l42 234c12 66 9 81 -54 81c0 20 2 41 10 59z" />
    <glyph glyph-name="Kcommaaccent" unicode="&#x136;" horiz-adv-x="720" 
d="M736 616c-56 -6 -81 -17 -158 -85l-169 -148c57 -56 102 -126 144 -223c20 -46 36 -59 59 -59c15 0 29 3 42 13c14 -11 26 -32 31 -51c-41 -46 -91 -72 -151 -72c-67 1 -103 29 -129 107c-33 94 -67 160 -115 222l-29 -165c-13 -76 -4 -89 41 -96c3 -19 4 -40 2 -62
c-50 3 -81 3 -135 3c-57 0 -110 -1 -151 -3c2 24 6 43 15 62c56 5 63 26 77 107l62 356c12 73 2 87 -54 95c-3 18 -4 40 -1 62c44 -3 92 -3 147 -3c48 0 99 0 149 3c0 -21 -3 -42 -11 -62c-54 -8 -64 -21 -79 -106l-24 -140l175 158c71 64 71 79 36 88c-4 18 -5 41 -3 62
c40 -3 80 -3 119 -3c40 0 89 1 120 3c0 -19 -3 -42 -10 -63zM404 -40c31 -10 41 -33 34 -76c-13 -78 -70 -139 -141 -185c-20 4 -34 15 -42 31c34 25 57 56 61 80c3 23 -12 36 -47 40c0 30 9 58 25 80c43 3 81 13 110 30z" />
    <glyph glyph-name="kcommaaccent" unicode="&#x137;" horiz-adv-x="540" 
d="M521 357c-12 -69 -73 -111 -174 -146c17 -21 29 -42 50 -80c18 -32 27 -42 45 -42c12 0 22 5 35 17c13 -11 25 -32 27 -51c-39 -39 -84 -64 -136 -64c-64 0 -86 34 -110 88c-18 41 -30 66 -49 97c-1 -12 -3 -24 -5 -36l-27 -140h-147l91 518c14 81 12 92 -52 92
c-1 20 2 42 10 59c63 4 134 19 186 41c28 -19 31 -36 24 -77c-34 -194 -41 -219 -80 -337h1c44 98 119 171 210 171c70 0 113 -42 101 -110zM380 320c5 30 -8 52 -38 52c-45 0 -107 -62 -131 -157c104 22 159 52 169 105zM269 -40c31 -10 41 -33 34 -76
c-13 -78 -70 -139 -141 -185c-20 4 -34 15 -42 31c34 25 57 56 61 80c3 23 -12 36 -47 40c0 30 9 58 25 80c43 3 81 13 110 30z" />
    <glyph glyph-name="Lacute" unicode="&#x139;" horiz-adv-x="598" 
d="M315 936c54 9 109 4 139 -14c-59 -56 -116 -121 -158 -180c-24 2 -49 11 -68 24c39 62 73 130 87 170zM324 62h12c88 0 126 43 165 139c31 -6 55 -16 76 -35c-18 -40 -39 -106 -49 -169c-54 3 -153 3 -230 3c-74 0 -221 -1 -281 -3c2 22 5 41 13 62c57 6 65 23 80 114
l62 352c13 71 1 84 -54 92c-4 18 -4 41 -1 62c44 -3 91 -3 148 -3c48 0 112 0 162 3c0 -21 -4 -43 -12 -62c-67 -8 -79 -23 -93 -109l-61 -348c-14 -84 -3 -98 63 -98z" />
    <glyph glyph-name="lacute" unicode="&#x13a;" horiz-adv-x="304" 
d="M269 968c54 9 109 4 139 -14c-59 -56 -116 -121 -158 -180c-24 2 -49 11 -68 24c39 62 73 130 87 170zM208 202c-20 -102 -13 -117 4 -117c11 0 22 5 41 21c12 -12 23 -33 26 -50c-38 -41 -91 -65 -141 -65c-69 0 -93 36 -93 93c1 42 7 85 76 434c15 81 12 92 -52 92
c0 20 2 42 10 59c59 2 137 20 186 41c24 -16 32 -33 24 -77c-26 -149 -54 -292 -81 -431z" />
    <glyph glyph-name="Lcommaaccent" unicode="&#x13b;" horiz-adv-x="598" 
d="M324 62h12c88 0 126 43 165 139c31 -6 55 -16 76 -35c-18 -40 -39 -106 -49 -169c-54 3 -153 3 -230 3c-74 0 -221 -1 -281 -3c2 22 5 41 13 62c57 6 65 23 80 114l62 352c13 71 1 84 -54 92c-4 18 -4 41 -1 62c44 -3 91 -3 148 -3c48 0 112 0 162 3
c0 -21 -4 -43 -12 -62c-67 -8 -79 -23 -93 -109l-61 -348c-14 -84 -3 -98 63 -98zM300 -40c31 -10 41 -33 34 -76c-13 -78 -70 -139 -141 -185c-20 4 -34 15 -42 31c34 25 57 56 61 80c3 23 -12 36 -47 40c0 30 9 58 25 80c43 3 81 13 110 30z" />
    <glyph glyph-name="lcommaaccent" unicode="&#x13c;" horiz-adv-x="304" 
d="M208 202c-20 -102 -13 -117 4 -117c11 0 22 5 41 21c12 -12 23 -33 26 -50c-38 -41 -91 -65 -141 -65c-69 0 -93 36 -93 93c1 42 7 85 76 434c15 81 12 92 -52 92c0 20 2 42 10 59c59 2 137 20 186 41c24 -16 32 -33 24 -77c-26 -149 -54 -292 -81 -431zM195 -40
c31 -10 41 -33 34 -76c-13 -78 -70 -139 -141 -185c-20 4 -34 15 -42 31c34 25 57 56 61 80c3 23 -12 36 -47 40c0 30 9 58 25 80c43 3 81 13 110 30z" />
    <glyph glyph-name="Lcaron" unicode="&#x13d;" horiz-adv-x="598" 
d="M615 741c24 -12 38 -43 25 -109c-16 -87 -72 -167 -145 -223c-24 3 -41 14 -49 30c85 81 121 163 28 179c0 32 9 65 24 90c42 2 89 16 117 33zM324 62h12c88 0 126 43 165 139c31 -6 55 -16 76 -35c-18 -40 -39 -106 -49 -169c-54 3 -153 3 -230 3c-74 0 -221 -1 -281 -3
c2 22 5 41 13 62c57 6 65 23 80 114l62 352c13 71 1 84 -54 92c-4 18 -4 41 -1 62c44 -3 91 -3 148 -3c48 0 112 0 162 3c0 -21 -4 -43 -12 -62c-67 -8 -79 -23 -93 -109l-61 -348c-14 -84 -3 -98 63 -98z" />
    <glyph glyph-name="lcaron" unicode="&#x13e;" horiz-adv-x="439" 
d="M454 717c26 -14 37 -50 25 -109c-12 -66 -49 -134 -119 -189c-25 2 -41 13 -50 30c76 74 82 132 7 145c0 32 8 65 23 90c42 2 86 16 114 33zM208 202c-20 -102 -13 -117 4 -117c11 0 22 5 41 21c12 -12 23 -33 26 -50c-38 -41 -91 -65 -141 -65c-69 0 -93 36 -93 93
c1 42 7 85 76 434c15 81 12 92 -52 92c0 20 2 42 10 59c59 2 137 20 186 41c24 -16 32 -33 24 -77c-26 -149 -54 -292 -81 -431z" />
    <glyph glyph-name="Ldot" unicode="&#x13f;" horiz-adv-x="598" 
d="M324 62h12c88 0 126 43 165 139c31 -6 55 -16 76 -35c-18 -40 -39 -106 -49 -169c-54 3 -153 3 -230 3c-74 0 -221 -1 -281 -3c2 22 5 41 13 62c57 6 65 23 80 114l62 352c13 71 1 84 -54 92c-4 18 -4 41 -1 62c44 -3 91 -3 148 -3c48 0 112 0 162 3
c0 -21 -4 -43 -12 -62c-67 -8 -79 -23 -93 -109l-61 -348c-14 -84 -3 -98 63 -98zM528 452c46 0 86 -35 74 -95c-8 -42 -35 -69 -84 -69c-57 0 -91 36 -79 97c8 42 39 67 89 67z" />
    <glyph glyph-name="ldot" unicode="&#x140;" horiz-adv-x="418" 
d="M208 202c-20 -102 -13 -117 4 -117c11 0 22 5 41 21c12 -12 23 -33 26 -50c-38 -41 -91 -65 -141 -65c-69 0 -93 36 -93 93c1 42 7 85 76 434c15 81 12 92 -52 92c0 20 2 42 10 59c59 2 137 20 186 41c24 -16 32 -33 24 -77c-26 -149 -54 -292 -81 -431zM381 445
c46 0 86 -35 74 -95c-8 -42 -35 -69 -84 -69c-57 0 -91 36 -79 97c8 42 39 67 89 67z" />
    <glyph glyph-name="Lslash" unicode="&#x141;" horiz-adv-x="598" 
d="M501 201c31 -6 55 -16 76 -35c-18 -40 -39 -106 -49 -169c-54 3 -153 3 -230 3c-74 0 -221 -1 -281 -3c2 22 5 41 13 62c57 6 65 23 80 114l11 61l-44 -36c-17 14 -28 41 -28 64l89 71l34 192c13 71 1 84 -54 92c-4 18 -4 41 -1 62c44 -3 91 -3 148 -3c48 0 112 0 162 3
c0 -21 -4 -43 -12 -62c-67 -8 -79 -23 -93 -109l-11 -62l71 57c15 -13 26 -38 26 -61l-114 -92l-33 -190c-14 -84 -3 -98 63 -98h12c88 0 126 43 165 139z" />
    <glyph glyph-name="lslash" unicode="&#x142;" horiz-adv-x="304" 
d="M212 85c11 0 22 5 41 21c12 -12 23 -33 26 -50c-38 -41 -91 -65 -141 -65c-69 0 -93 36 -93 93c1 27 3 53 22 157l-53 -43c-17 14 -28 41 -28 64l101 80l34 176c15 81 12 92 -52 92c0 20 2 42 10 59c59 2 137 20 186 41c24 -16 32 -33 24 -77c-11 -61 -22 -121 -33 -180
l63 50c15 -13 26 -38 26 -61l-107 -86l-30 -154c-20 -102 -13 -117 4 -117z" />
    <glyph glyph-name="Nacute" unicode="&#x143;" horiz-adv-x="696" 
d="M620 922c-59 -56 -116 -121 -158 -180c-24 2 -49 11 -68 24c39 62 73 130 87 170c54 9 109 4 139 -14zM637 676c34 0 78 0 114 3c-1 -20 -6 -46 -12 -62c-52 -16 -65 -40 -83 -145l-82 -473c-21 -6 -43 -8 -70 -8c-86 171 -175 336 -269 501l-50 -290
c-19 -105 -12 -128 55 -143c4 -19 4 -40 1 -62c-42 3 -86 3 -114 3c-35 0 -70 0 -113 -3c1 22 5 45 11 62c55 14 76 38 94 139l67 380l-5 8c-13 23 -25 28 -63 31c-4 19 -4 39 -1 62c32 -3 65 -3 97 -3c33 0 68 0 95 3c84 -142 167 -294 241 -443l40 240
c17 105 8 126 -59 141c-3 19 -3 40 -1 62c38 -3 79 -3 107 -3z" />
    <glyph glyph-name="nacute" unicode="&#x144;" horiz-adv-x="601" 
d="M507 704c-59 -56 -116 -121 -158 -180c-24 2 -49 11 -68 24c39 62 73 130 87 170c54 9 109 4 139 -14zM550 106c12 -12 23 -33 26 -51c-44 -44 -93 -64 -141 -64c-101 0 -102 70 -79 172l21 89c15 69 8 101 -19 101c-45 0 -125 -93 -157 -267l-16 -86h-148l52 275
c14 81 12 92 -52 92c0 20 2 42 10 59c60 2 138 20 187 41c24 -11 32 -33 27 -65c-9 -49 -19 -81 -38 -124v-3l17 36c38 79 122 156 205 156c67 0 120 -49 86 -196l-23 -101c-19 -80 -16 -86 -1 -86c11 0 27 8 43 22z" />
    <glyph glyph-name="Ncommaaccent" unicode="&#x145;" horiz-adv-x="696" 
d="M637 676c34 0 78 0 114 3c-1 -20 -6 -46 -12 -62c-52 -16 -65 -40 -83 -145l-82 -473c-21 -6 -43 -8 -70 -8c-86 171 -175 336 -269 501l-50 -290c-19 -105 -12 -128 55 -143c4 -19 4 -40 1 -62c-42 3 -86 3 -114 3c-35 0 -70 0 -113 -3c1 22 5 45 11 62
c55 14 76 38 94 139l67 380l-5 8c-13 23 -25 28 -63 31c-4 19 -4 39 -1 62c32 -3 65 -3 97 -3c33 0 68 0 95 3c84 -142 167 -294 241 -443l40 240c17 105 8 126 -59 141c-3 19 -3 40 -1 62c38 -3 79 -3 107 -3zM373 -40c31 -10 41 -33 34 -76c-13 -78 -70 -139 -141 -185
c-20 4 -34 15 -42 31c34 25 57 56 61 80c3 23 -12 36 -47 40c0 30 9 58 25 80c43 3 81 13 110 30z" />
    <glyph glyph-name="ncommaaccent" unicode="&#x146;" horiz-adv-x="601" 
d="M550 106c12 -12 23 -33 26 -51c-44 -44 -93 -64 -141 -64c-101 0 -102 70 -79 172l21 89c15 69 8 101 -19 101c-45 0 -125 -93 -157 -267l-16 -86h-148l52 275c14 81 12 92 -52 92c0 20 2 42 10 59c60 2 138 20 187 41c24 -11 32 -33 27 -65c-9 -49 -19 -81 -38 -124v-3
l17 36c38 79 122 156 205 156c67 0 120 -49 86 -196l-23 -101c-19 -80 -16 -86 -1 -86c11 0 27 8 43 22zM328 -40c31 -10 41 -33 34 -76c-13 -78 -70 -139 -141 -185c-20 4 -34 15 -42 31c34 25 57 56 61 80c3 23 -12 36 -47 40c0 30 9 58 25 80c43 3 81 13 110 30z" />
    <glyph glyph-name="Ncaron" unicode="&#x147;" horiz-adv-x="696" 
d="M487 742c-19 -9 -43 -11 -65 -8c-35 51 -79 106 -123 153c9 24 26 39 55 44c37 -31 83 -63 125 -85c51 22 103 52 141 81c19 -6 34 -23 41 -42c-58 -41 -124 -93 -174 -143zM637 676c34 0 78 0 114 3c-1 -20 -6 -46 -12 -62c-52 -16 -65 -40 -83 -145l-82 -473
c-21 -6 -43 -8 -70 -8c-86 171 -175 336 -269 501l-50 -290c-19 -105 -12 -128 55 -143c4 -19 4 -40 1 -62c-42 3 -86 3 -114 3c-35 0 -70 0 -113 -3c1 22 5 45 11 62c55 14 76 38 94 139l67 380l-5 8c-13 23 -25 28 -63 31c-4 19 -4 39 -1 62c32 -3 65 -3 97 -3
c33 0 68 0 95 3c84 -142 167 -294 241 -443l40 240c17 105 8 126 -59 141c-3 19 -3 40 -1 62c38 -3 79 -3 107 -3z" />
    <glyph glyph-name="ncaron" unicode="&#x148;" horiz-adv-x="601" 
d="M374 524c-19 -9 -43 -11 -65 -8c-35 51 -79 106 -123 153c9 24 26 39 55 44c37 -31 83 -63 125 -85c51 22 103 52 141 81c19 -6 34 -23 41 -42c-58 -41 -124 -93 -174 -143zM550 106c12 -12 23 -33 26 -51c-44 -44 -93 -64 -141 -64c-101 0 -102 70 -79 172l21 89
c15 69 8 101 -19 101c-45 0 -125 -93 -157 -267l-16 -86h-148l52 275c14 81 12 92 -52 92c0 20 2 42 10 59c60 2 138 20 187 41c24 -11 32 -33 27 -65c-9 -49 -19 -81 -38 -124v-3l17 36c38 79 122 156 205 156c67 0 120 -49 86 -196l-23 -101c-19 -80 -16 -86 -1 -86
c11 0 27 8 43 22z" />
    <glyph glyph-name="napostrophe" unicode="&#x149;" horiz-adv-x="807" 
d="M278 741c24 -12 38 -43 25 -109c-16 -87 -72 -167 -145 -223c-24 3 -41 14 -49 30c85 81 121 163 28 179c0 32 9 65 24 90c42 2 89 16 117 33zM756 106c11 -12 22 -33 25 -51c-44 -44 -92 -64 -141 -64c-100 0 -101 70 -78 172l20 89c16 69 8 101 -18 101
c-46 0 -126 -93 -158 -267l-16 -86h-148l52 275c15 81 12 92 -52 92c0 20 3 42 10 59c60 2 138 20 187 41c24 -11 32 -33 27 -65c-8 -49 -19 -81 -38 -124v-3l17 36c38 79 122 156 205 156c67 0 121 -49 87 -196l-24 -101c-19 -80 -16 -86 -1 -86c11 0 27 8 44 22z" />
    <glyph glyph-name="Eng" unicode="&#x14a;" horiz-adv-x="696" 
d="M637 676c34 0 78 0 114 3c-1 -20 -6 -46 -12 -62c-52 -16 -65 -40 -83 -145l-64 -370c-35 -199 -115 -286 -286 -349c-16 13 -24 32 -24 58c110 62 162 131 185 253c-74 145 -151 286 -232 428l-50 -290c-19 -105 -12 -128 55 -143c4 -19 4 -40 1 -62c-42 3 -86 3 -114 3
c-35 0 -70 0 -113 -3c1 22 5 45 11 62c55 14 76 38 94 139l66 380l-4 8c-13 23 -25 28 -63 31c-4 19 -4 39 -1 62c32 -3 65 -3 97 -3c33 0 68 0 95 3c84 -142 167 -295 241 -443l40 240c17 105 8 126 -59 141c-3 19 -3 40 -1 62c38 -3 79 -3 107 -3z" />
    <glyph glyph-name="eng" unicode="&#x14b;" horiz-adv-x="579" 
d="M453 467c66 0 115 -33 82 -204l-30 -161c-38 -199 -115 -286 -286 -349c-16 13 -24 32 -24 58c81 50 133 123 154 241l36 201c12 70 -2 92 -29 92c-44 0 -123 -85 -155 -259l-16 -86h-148l52 275c14 81 12 92 -52 92c0 20 2 42 10 59c60 2 138 20 187 41
c24 -11 32 -33 27 -65c-9 -49 -19 -81 -38 -124v-3l17 36c37 78 127 156 213 156z" />
    <glyph glyph-name="Omacron" unicode="&#x14c;" 
d="M294 849h356c0 -15 -2 -34 -9 -51c-118 0 -236 -1 -356 -6c0 15 2 41 9 57zM440 685c205 0 331 -139 287 -368c-36 -188 -184 -326 -384 -326c-212 0 -327 153 -285 371c37 195 191 323 382 323zM426 624c-100 0 -179 -107 -208 -257c-33 -173 11 -313 138 -313
c107 0 184 112 213 273c31 169 -29 297 -143 297z" />
    <glyph glyph-name="omacron" unicode="&#x14d;" horiz-adv-x="541" 
d="M163 631h356c0 -15 -2 -34 -9 -51c-118 0 -236 -1 -356 -6c0 15 2 41 9 57zM310 467c150 0 223 -94 200 -235c-23 -147 -130 -241 -279 -241c-154 0 -224 100 -200 239c24 147 130 237 279 237zM297 406c-52 0 -93 -68 -110 -167c-20 -115 4 -187 55 -187
c50 0 96 66 114 174c18 106 -5 180 -59 180z" />
    <glyph glyph-name="Ohungarumlaut" unicode="&#x150;" 
d="M408 936c54 9 109 4 139 -14c-59 -56 -116 -121 -158 -180c-24 2 -49 11 -68 24c39 62 73 130 87 170zM590 936c54 9 109 4 139 -14c-59 -56 -116 -121 -158 -180c-24 2 -49 11 -68 24c39 62 73 130 87 170zM440 685c205 0 331 -139 287 -368
c-36 -188 -184 -326 -384 -326c-212 0 -327 153 -285 371c37 195 191 323 382 323zM426 624c-100 0 -179 -107 -208 -257c-33 -173 11 -313 138 -313c107 0 184 112 213 273c31 169 -29 297 -143 297z" />
    <glyph glyph-name="ohungarumlaut" unicode="&#x151;" horiz-adv-x="541" 
d="M277 718c54 9 109 4 139 -14c-59 -56 -116 -121 -158 -180c-24 2 -49 11 -68 24c39 62 73 130 87 170zM459 718c54 9 109 4 139 -14c-59 -56 -116 -121 -158 -180c-24 2 -49 11 -68 24c39 62 73 130 87 170zM310 467c150 0 223 -94 200 -235
c-23 -147 -130 -241 -279 -241c-154 0 -224 100 -200 239c24 147 130 237 279 237zM297 406c-52 0 -93 -68 -110 -167c-20 -115 4 -187 55 -187c50 0 96 66 114 174c18 106 -5 180 -59 180z" />
    <glyph glyph-name="OE" unicode="&#x152;" horiz-adv-x="1004" 
d="M936 496c-4 77 -18 118 -130 118h-164c56 -54 83 -137 73 -240h13c70 0 95 13 103 74c24 4 47 6 72 3c-8 -34 -16 -73 -22 -121c-7 -46 -10 -79 -11 -112c-26 1 -49 5 -68 14c2 51 -12 80 -81 80h-15c-22 -103 -70 -192 -145 -250h181c92 0 129 40 165 136
c31 -5 53 -13 68 -30c-13 -47 -32 -109 -42 -171c-59 3 -153 3 -246 3c-120 0 -195 -9 -345 -9h-2c-221 1 -322 168 -282 371c40 200 192 322 380 323h2h1h3c102 0 142 -9 331 -9c87 0 177 1 246 3c-8 -53 -12 -119 -8 -174c-22 -6 -49 -10 -77 -9zM558 327
c30 177 -20 297 -131 297c-104 0 -179 -107 -209 -257c-33 -171 11 -313 134 -313c108 0 179 112 206 273z" />
    <glyph glyph-name="oe" unicode="&#x153;" horiz-adv-x="767" 
d="M614 467c103 0 150 -56 137 -122c-16 -76 -125 -151 -258 -158c-1 -60 17 -105 77 -105c38 0 77 16 107 43c13 -17 18 -35 19 -59c-53 -48 -110 -75 -195 -75c-63 0 -97 24 -113 60c-40 -38 -93 -60 -157 -60c-154 0 -224 100 -200 239c24 147 130 237 279 237
c73 0 120 -27 146 -71c38 46 89 71 158 71zM356 226c18 106 -5 180 -59 180c-52 0 -93 -68 -110 -167c-20 -115 4 -187 55 -187c50 0 96 66 114 174zM643 337c8 41 -7 67 -42 67c-40 0 -82 -45 -100 -146l-2 -12c76 7 134 40 144 91z" />
    <glyph glyph-name="Racute" unicode="&#x154;" horiz-adv-x="704" 
d="M587 922c-59 -56 -116 -121 -158 -180c-24 2 -49 11 -68 24c39 62 73 130 87 170c54 9 109 4 139 -14zM633 113c14 -12 27 -32 32 -51c-41 -46 -94 -71 -154 -71c-69 0 -99 40 -130 139c-23 70 -42 110 -69 149h-29l-22 -126c-13 -76 -5 -87 38 -94c4 -20 4 -40 2 -62
c-54 3 -79 3 -134 3c-61 0 -106 -1 -149 -3c2 22 6 42 15 62c52 5 63 23 78 109l61 357c12 69 2 84 -54 92c-4 18 -4 40 -1 62c49 -3 98 -3 154 -3c44 0 117 4 176 4c154 0 230 -81 209 -198c-17 -96 -92 -163 -204 -184c32 -30 56 -67 86 -139c18 -46 35 -61 56 -61
c15 0 27 5 39 15zM339 607l-44 -257c12 -1 21 -1 30 -1c86 0 154 52 170 139s-24 130 -93 130c-20 0 -43 -3 -63 -11z" />
    <glyph glyph-name="racute" unicode="&#x155;" horiz-adv-x="446" 
d="M335 718c54 9 109 4 139 -14c-59 -56 -116 -121 -158 -180c-24 2 -49 11 -68 24c39 62 73 130 87 170zM223 467c25 -12 30 -34 25 -70c-6 -34 -23 -89 -45 -140h1l24 53c42 90 103 157 175 157c19 0 37 -5 52 -15c-17 -48 -28 -113 -31 -166c-22 -10 -52 -15 -82 -13
c5 33 -6 50 -22 50c-14 0 -34 -16 -58 -57c-25 -42 -51 -115 -66 -199l-13 -67h-148l52 275c16 81 14 92 -50 92c0 20 2 42 10 59c60 3 126 20 176 41z" />
    <glyph glyph-name="Rcommaaccent" unicode="&#x156;" horiz-adv-x="704" 
d="M633 113c14 -12 27 -32 32 -51c-41 -46 -94 -71 -154 -71c-69 0 -99 40 -130 139c-23 70 -42 110 -69 149h-29l-22 -126c-13 -76 -5 -87 38 -94c4 -20 4 -40 2 -62c-54 3 -79 3 -134 3c-61 0 -106 -1 -149 -3c2 22 6 42 15 62c52 5 63 23 78 109l61 357
c12 69 2 84 -54 92c-4 18 -4 40 -1 62c49 -3 98 -3 154 -3c44 0 117 4 176 4c154 0 230 -81 209 -198c-17 -96 -92 -163 -204 -184c32 -30 56 -67 86 -139c18 -46 35 -61 56 -61c15 0 27 5 39 15zM339 607l-44 -257c12 -1 21 -1 30 -1c86 0 154 52 170 139s-24 130 -93 130
c-20 0 -43 -3 -63 -11zM379 -40c31 -10 41 -33 34 -76c-13 -78 -70 -139 -141 -185c-20 4 -34 15 -42 31c34 25 57 56 61 80c3 23 -12 36 -47 40c0 30 9 58 25 80c43 3 81 13 110 30z" />
    <glyph glyph-name="rcommaaccent" unicode="&#x157;" horiz-adv-x="446" 
d="M223 467c25 -12 30 -34 25 -70c-6 -34 -23 -89 -45 -140h1l24 53c42 90 103 157 175 157c19 0 37 -5 52 -15c-17 -48 -28 -113 -31 -166c-22 -10 -52 -15 -82 -13c5 33 -6 50 -22 50c-14 0 -34 -16 -58 -57c-25 -42 -51 -115 -66 -199l-13 -67h-148l52 275
c16 81 14 92 -50 92c0 20 2 42 10 59c60 3 126 20 176 41zM152 -40c31 -10 41 -33 34 -76c-13 -78 -70 -139 -141 -185c-20 4 -34 15 -42 31c34 25 57 56 61 80c3 23 -12 36 -47 40c0 30 9 58 25 80c43 3 81 13 110 30z" />
    <glyph glyph-name="Rcaron" unicode="&#x158;" horiz-adv-x="704" 
d="M454 742c-19 -9 -43 -11 -65 -8c-35 51 -79 106 -123 153c9 24 26 39 55 44c37 -31 83 -63 125 -85c51 22 103 52 141 81c19 -6 34 -23 41 -42c-58 -41 -124 -93 -174 -143zM633 113c14 -12 27 -32 32 -51c-41 -46 -94 -71 -154 -71c-69 0 -99 40 -130 139
c-23 70 -42 110 -69 149h-29l-22 -126c-13 -76 -5 -87 38 -94c4 -20 4 -40 2 -62c-54 3 -79 3 -134 3c-61 0 -106 -1 -149 -3c2 22 6 42 15 62c52 5 63 23 78 109l61 357c12 69 2 84 -54 92c-4 18 -4 40 -1 62c49 -3 98 -3 154 -3c44 0 117 4 176 4c154 0 230 -81 209 -198
c-17 -96 -92 -163 -204 -184c32 -30 56 -67 86 -139c18 -46 35 -61 56 -61c15 0 27 5 39 15zM339 607l-44 -257c12 -1 21 -1 30 -1c86 0 154 52 170 139s-24 130 -93 130c-20 0 -43 -3 -63 -11z" />
    <glyph glyph-name="rcaron" unicode="&#x159;" horiz-adv-x="446" 
d="M474 709c19 -6 34 -23 41 -42c-58 -41 -124 -93 -174 -143c-19 -9 -43 -11 -65 -8c-35 51 -79 106 -123 153c9 24 26 39 55 44c37 -31 83 -63 125 -85c51 22 103 52 141 81zM223 467c25 -12 30 -34 25 -70c-6 -34 -23 -89 -45 -140h1l24 53c42 90 103 157 175 157
c19 0 37 -5 52 -15c-17 -48 -28 -113 -31 -166c-22 -10 -52 -15 -82 -13c5 33 -6 50 -22 50c-14 0 -34 -16 -58 -57c-25 -42 -51 -115 -66 -199l-13 -67h-148l52 275c16 81 14 92 -50 92c0 20 2 42 10 59c60 3 126 20 176 41z" />
    <glyph glyph-name="Sacute" unicode="&#x15a;" horiz-adv-x="501" 
d="M357 936c54 9 109 4 139 -14c-59 -56 -116 -121 -158 -180c-24 2 -49 11 -68 24c39 62 73 130 87 170zM323 685c78 0 138 -21 171 -48c-7 -49 -12 -102 -11 -144c-26 -8 -56 -11 -86 -7c-2 94 -37 134 -98 134c-50 0 -83 -20 -92 -70c-26 -147 300 -147 259 -380
c-19 -109 -125 -179 -255 -179c-106 0 -156 25 -214 71c17 48 29 98 34 149c28 6 61 8 90 1c-9 -107 22 -154 106 -154c49 0 91 31 99 75c27 148 -288 136 -241 394c18 101 113 158 238 158z" />
    <glyph glyph-name="sacute" unicode="&#x15b;" horiz-adv-x="429" 
d="M303 718c54 9 109 4 139 -14c-59 -56 -116 -121 -158 -180c-24 2 -49 11 -68 24c39 62 73 130 87 170zM262 467c57 0 120 -15 157 -35c-12 -36 -18 -78 -19 -125c-23 -11 -51 -13 -79 -11c-1 73 -23 110 -68 110c-28 0 -45 -10 -49 -33c-19 -86 197 -123 168 -272
c-16 -82 -80 -110 -205 -110c-75 0 -133 17 -168 40c14 40 20 81 21 124c24 9 51 12 80 9c-1 -70 20 -109 74 -109c30 0 46 13 50 31c16 75 -189 123 -161 270c16 82 91 111 199 111z" />
    <glyph glyph-name="Scircumflex" unicode="&#x15c;" horiz-adv-x="501" 
d="M340 931c21 3 44 0 64 -7c33 -49 71 -96 119 -150c-12 -16 -36 -27 -62 -30c-37 30 -79 58 -119 79c-47 -23 -104 -58 -142 -86c-22 13 -35 40 -35 59c60 38 127 89 175 135zM323 685c78 0 138 -21 171 -48c-7 -49 -12 -102 -11 -144c-26 -8 -56 -11 -86 -7
c-2 94 -37 134 -98 134c-50 0 -83 -20 -92 -70c-26 -147 300 -147 259 -380c-19 -109 -125 -179 -255 -179c-106 0 -156 25 -214 71c17 48 29 98 34 149c28 6 61 8 90 1c-9 -107 22 -154 106 -154c49 0 91 31 99 75c27 148 -288 136 -241 394c18 101 113 158 238 158z" />
    <glyph glyph-name="scircumflex" unicode="&#x15d;" horiz-adv-x="429" 
d="M286 713c21 3 44 0 64 -7c33 -49 71 -96 119 -150c-12 -16 -36 -27 -62 -30c-37 30 -79 58 -119 79c-47 -23 -104 -58 -142 -86c-22 13 -35 40 -35 59c60 38 127 89 175 135zM262 467c57 0 120 -15 157 -35c-12 -36 -18 -78 -19 -125c-23 -11 -51 -13 -79 -11
c-1 73 -23 110 -68 110c-28 0 -45 -10 -49 -33c-19 -86 197 -123 168 -272c-16 -82 -80 -110 -205 -110c-75 0 -133 17 -168 40c14 40 20 81 21 124c24 9 51 12 80 9c-1 -70 20 -109 74 -109c30 0 46 13 50 31c16 75 -189 123 -161 270c16 82 91 111 199 111z" />
    <glyph glyph-name="Scedilla" unicode="&#x15e;" horiz-adv-x="501" 
d="M299 620c-50 0 -83 -20 -92 -70c-26 -147 300 -147 259 -380c-17 -97 -103 -163 -214 -177l-38 -43c49 -13 68 -49 58 -102c-12 -60 -76 -93 -174 -90c-4 12 -3 29 1 43c46 -1 83 13 88 42c6 34 -18 51 -53 51c-8 11 -12 26 -9 43l51 55c-83 5 -128 29 -179 70
c17 48 29 98 34 149c28 6 61 8 90 1c-9 -107 22 -154 106 -154c49 0 91 31 99 75c27 148 -288 136 -241 394c18 101 113 158 238 158c78 0 138 -21 171 -48c-7 -49 -12 -102 -11 -144c-26 -8 -56 -11 -86 -7c-2 94 -37 134 -98 134z" />
    <glyph glyph-name="scedilla" unicode="&#x15f;" horiz-adv-x="429" 
d="M253 406c-28 0 -45 -10 -49 -33c-19 -86 197 -123 168 -272c-14 -74 -68 -104 -170 -109l-37 -42c49 -13 68 -49 58 -102c-12 -60 -76 -93 -174 -90c-4 12 -3 29 1 43c46 -1 83 13 88 42c6 34 -18 51 -53 51c-8 11 -12 26 -9 43l51 56c-56 4 -99 19 -128 38
c14 40 20 81 21 124c24 9 51 12 80 9c-1 -70 20 -109 74 -109c30 0 46 13 50 31c16 75 -189 123 -161 270c16 82 91 111 199 111c57 0 120 -15 157 -35c-12 -36 -18 -78 -19 -125c-23 -11 -51 -13 -79 -11c-1 73 -23 110 -68 110z" />
    <glyph glyph-name="Scaron" unicode="&#x160;" horiz-adv-x="501" 
d="M496 927c19 -6 34 -23 41 -42c-58 -41 -124 -93 -174 -143c-19 -9 -43 -11 -65 -8c-35 51 -79 106 -123 153c9 24 26 39 55 44c37 -31 83 -63 125 -85c51 22 103 52 141 81zM323 685c78 0 138 -21 171 -48c-7 -49 -12 -102 -11 -144c-26 -8 -56 -11 -86 -7
c-2 94 -37 134 -98 134c-50 0 -83 -20 -92 -70c-26 -147 300 -147 259 -380c-19 -109 -125 -179 -255 -179c-106 0 -156 25 -214 71c17 48 29 98 34 149c28 6 61 8 90 1c-9 -107 22 -154 106 -154c49 0 91 31 99 75c27 148 -288 136 -241 394c18 101 113 158 238 158z" />
    <glyph glyph-name="scaron" unicode="&#x161;" horiz-adv-x="429" 
d="M442 709c19 -6 34 -23 41 -42c-58 -41 -124 -93 -174 -143c-19 -9 -43 -11 -65 -8c-35 51 -79 106 -123 153c9 24 26 39 55 44c37 -31 83 -63 125 -85c51 22 103 52 141 81zM262 467c57 0 120 -15 157 -35c-12 -36 -18 -78 -19 -125c-23 -11 -51 -13 -79 -11
c-1 73 -23 110 -68 110c-28 0 -45 -10 -49 -33c-19 -86 197 -123 168 -272c-16 -82 -80 -110 -205 -110c-75 0 -133 17 -168 40c14 40 20 81 21 124c24 9 51 12 80 9c-1 -70 20 -109 74 -109c30 0 46 13 50 31c16 75 -189 123 -161 270c16 82 91 111 199 111z" />
    <glyph glyph-name="Tcedilla" unicode="&#x162;" horiz-adv-x="598" 
d="M650 679c-7 -51 -11 -119 -7 -179c-23 -9 -49 -11 -77 -9c-5 90 -24 126 -98 126h-20l-80 -459c-12 -70 -6 -87 75 -99c4 -19 5 -42 3 -62c-34 2 -79 3 -128 3l-44 -50c49 -13 68 -49 58 -102c-12 -60 -76 -93 -174 -90c-4 12 -3 29 1 43c46 -1 83 13 88 42
c6 34 -18 51 -53 51c-8 11 -12 26 -9 43l58 63c-55 0 -107 -1 -145 -3c1 24 7 47 13 63c78 10 92 23 106 108l78 449h-19c-73 0 -109 -40 -140 -128c-30 0 -54 4 -74 18c18 45 34 120 41 172c69 -3 150 -3 271 -3c116 0 195 0 276 3z" />
    <glyph glyph-name="tcedilla" unicode="&#x163;" horiz-adv-x="364" 
d="M260 374l-35 -149c-26 -113 -12 -143 19 -143c18 0 42 13 59 32c12 -13 22 -36 24 -55c-24 -29 -70 -55 -117 -64l-39 -45c49 -13 68 -49 58 -102c-12 -60 -76 -93 -174 -90c-4 12 -3 29 1 43c46 -1 83 13 88 42c6 34 -18 51 -53 51c-8 11 -12 26 -9 43l54 58
c-74 19 -91 97 -62 220l38 163c-27 6 -51 9 -71 9c0 22 3 46 12 61h76l2 10c14 60 22 102 24 130c42 5 91 18 118 32c36 -11 31 -56 10 -145l-6 -27h99c0 -24 -2 -49 -8 -63c-44 0 -77 -3 -108 -11z" />
    <glyph glyph-name="Tcaron" unicode="&#x164;" horiz-adv-x="598" 
d="M417 742c-19 -9 -43 -11 -65 -8c-35 51 -79 106 -123 153c9 24 26 39 55 44c37 -31 83 -63 125 -85c51 22 103 52 141 81c19 -6 34 -23 41 -42c-58 -41 -124 -93 -174 -143zM650 679c-7 -51 -11 -119 -7 -179c-23 -9 -49 -11 -77 -9c-5 90 -24 126 -98 126h-20l-80 -459
c-12 -70 -6 -87 75 -99c4 -19 5 -42 3 -62c-43 3 -103 3 -166 3c-69 0 -136 0 -182 -3c1 24 7 47 13 63c78 10 92 23 106 108l78 449h-19c-73 0 -109 -40 -140 -128c-30 0 -54 4 -74 18c18 45 34 120 41 172c69 -3 150 -3 271 -3c116 0 195 0 276 3z" />
    <glyph glyph-name="tcaron" unicode="&#x165;" horiz-adv-x="491" 
d="M536 717c26 -14 37 -50 25 -109c-12 -66 -49 -134 -119 -189c-25 2 -41 13 -50 30c76 74 82 132 7 145c0 32 8 65 23 90c42 2 86 16 114 33zM277 448h99c0 -24 -2 -49 -8 -63c-44 0 -77 -3 -108 -11l-35 -149c-26 -113 -12 -143 19 -143c18 0 42 13 59 32
c12 -13 22 -36 24 -55c-30 -36 -96 -68 -152 -68c-107 0 -135 82 -101 224l38 163c-27 6 -51 9 -71 9c0 22 3 46 12 61h76l2 10c14 60 22 102 24 130c42 5 91 18 118 32c36 -11 31 -56 10 -145z" />
    <glyph glyph-name="Tbar" unicode="&#x166;" horiz-adv-x="598" 
d="M650 679c-7 -51 -11 -119 -7 -179c-23 -9 -49 -11 -77 -9c-5 90 -24 126 -98 126h-20l-46 -263h106c0 -14 -3 -33 -9 -51h-106l-25 -145c-12 -70 -6 -87 75 -99c4 -19 5 -42 3 -62c-43 3 -103 3 -166 3c-69 0 -136 0 -182 -3c1 24 7 47 13 63c78 10 92 23 106 108l23 133
l-97 -3c0 14 2 40 9 56h97l46 263h-19c-73 0 -109 -40 -140 -128c-30 0 -54 4 -74 18c18 45 34 120 41 172c69 -3 150 -3 271 -3c116 0 195 0 276 3z" />
    <glyph glyph-name="tbar" unicode="&#x167;" horiz-adv-x="369" 
d="M368 385c-44 0 -77 -3 -108 -11l-21 -89h63c0 -15 -3 -34 -9 -51h-66l-2 -9c-26 -113 -12 -143 19 -143c18 0 42 13 59 32c12 -13 22 -36 24 -55c-30 -36 -96 -68 -152 -68c-107 0 -135 82 -101 224l4 15c-23 -1 -42 -2 -57 -3c0 18 2 40 9 58h60l22 93
c-27 6 -51 9 -71 9c0 22 3 46 12 61h76l2 10c14 60 22 102 24 130c42 5 91 18 118 32c36 -11 31 -56 10 -145l-6 -27h99c0 -24 -2 -49 -8 -63z" />
    <glyph glyph-name="Umacron" unicode="&#x16a;" horiz-adv-x="658" 
d="M307 849h356c0 -15 -2 -34 -9 -51c-118 0 -236 -1 -356 -6c0 15 2 41 9 57zM105 679c48 -3 90 -3 143 -3c48 0 94 0 149 3c-1 -21 -4 -41 -12 -62c-58 -6 -67 -19 -83 -108l-43 -246c-26 -143 15 -203 98 -203c91 0 144 76 166 198l41 235c18 97 11 108 -44 124
c-4 19 -4 39 -1 62c42 -3 77 -3 104 -3c38 0 62 0 102 3c-1 -22 -5 -44 -12 -62c-56 -13 -64 -23 -84 -134l-37 -216c-35 -194 -110 -276 -271 -276c-183 0 -246 95 -216 267l47 267c12 70 5 84 -46 92c-3 17 -4 40 -1 62z" />
    <glyph glyph-name="umacron" unicode="&#x16b;" horiz-adv-x="602" 
d="M177 631h356c0 -15 -2 -34 -9 -51c-118 0 -236 -1 -356 -6c0 15 2 41 9 57zM233 467c35 -22 36 -34 -4 -210c-25 -108 -16 -143 17 -143c39 0 116 76 151 262l15 82h148l-46 -251c-22 -112 -21 -123 -1 -123c10 0 21 7 37 22c13 -10 24 -32 27 -51
c-39 -40 -92 -64 -141 -64c-86 0 -103 52 -90 115c3 15 7 31 15 48h-1c-43 -87 -127 -163 -218 -163c-83 0 -102 78 -69 221c36 149 33 153 -35 155c-1 19 1 42 9 59c59 2 138 20 186 41z" />
    <glyph glyph-name="Ubreve" unicode="&#x16c;" horiz-adv-x="658" 
d="M691 920c-23 -117 -103 -181 -226 -181c-122 0 -175 62 -153 176c24 10 54 14 79 12c-3 -57 37 -91 105 -91c67 0 116 34 131 91c26 3 49 0 64 -7zM105 679c48 -3 90 -3 143 -3c48 0 94 0 149 3c-1 -21 -4 -41 -12 -62c-58 -6 -67 -19 -83 -108l-43 -246
c-26 -143 15 -203 98 -203c91 0 144 76 166 198l41 235c18 97 11 108 -44 124c-4 19 -4 39 -1 62c42 -3 77 -3 104 -3c38 0 62 0 102 3c-1 -22 -5 -44 -12 -62c-56 -13 -64 -23 -84 -134l-37 -216c-35 -194 -110 -276 -271 -276c-183 0 -246 95 -216 267l47 267
c12 70 5 84 -46 92c-3 17 -4 40 -1 62z" />
    <glyph glyph-name="ubreve" unicode="&#x16d;" horiz-adv-x="602" 
d="M561 702c-23 -117 -103 -181 -226 -181c-122 0 -175 62 -153 176c24 10 54 14 79 12c-3 -57 37 -91 105 -91c67 0 116 34 131 91c26 3 49 0 64 -7zM233 467c35 -22 36 -34 -4 -210c-25 -108 -16 -143 17 -143c39 0 116 76 151 262l15 82h148l-46 -251
c-22 -112 -21 -123 -1 -123c10 0 21 7 37 22c13 -10 24 -32 27 -51c-39 -40 -92 -64 -141 -64c-86 0 -103 52 -90 115c3 15 7 31 15 48h-1c-43 -87 -127 -163 -218 -163c-83 0 -102 78 -69 221c36 149 33 153 -35 155c-1 19 1 42 9 59c59 2 138 20 186 41z" />
    <glyph glyph-name="Uring" unicode="&#x16e;" horiz-adv-x="658" 
d="M494 938c88 0 120 -54 108 -111c-13 -55 -60 -89 -131 -89c-86 0 -121 50 -108 110c13 57 62 90 131 90zM489 892c-24 0 -41 -22 -45 -51c-5 -30 6 -53 33 -53c21 0 38 14 44 43c5 29 -4 61 -32 61zM105 679c48 -3 90 -3 143 -3c48 0 94 0 149 3c-1 -21 -4 -41 -12 -62
c-58 -6 -67 -19 -83 -108l-43 -246c-26 -143 15 -203 98 -203c91 0 144 76 166 198l41 235c18 97 11 108 -44 124c-4 19 -4 39 -1 62c42 -3 77 -3 104 -3c38 0 62 0 102 3c-1 -22 -5 -44 -12 -62c-56 -13 -64 -23 -84 -134l-37 -216c-35 -194 -110 -276 -271 -276
c-183 0 -246 95 -216 267l47 267c12 70 5 84 -46 92c-3 17 -4 40 -1 62z" />
    <glyph glyph-name="uring" unicode="&#x16f;" horiz-adv-x="602" 
d="M364 720c88 0 120 -54 108 -111c-13 -55 -60 -89 -131 -89c-86 0 -121 50 -108 110c13 57 62 90 131 90zM359 674c-24 0 -41 -22 -45 -51c-5 -30 6 -53 33 -53c21 0 38 14 44 43c5 29 -4 61 -32 61zM233 467c35 -22 36 -34 -4 -210c-25 -108 -16 -143 17 -143
c39 0 116 76 151 262l15 82h148l-46 -251c-22 -112 -21 -123 -1 -123c10 0 21 7 37 22c13 -10 24 -32 27 -51c-39 -40 -92 -64 -141 -64c-86 0 -103 52 -90 115c3 15 7 31 15 48h-1c-43 -87 -127 -163 -218 -163c-83 0 -102 78 -69 221c36 149 33 153 -35 155
c-1 19 1 42 9 59c59 2 138 20 186 41z" />
    <glyph glyph-name="Uhungarumlaut" unicode="&#x170;" horiz-adv-x="658" 
d="M421 936c54 9 109 4 139 -14c-59 -56 -116 -121 -158 -180c-24 2 -49 11 -68 24c39 62 73 130 87 170zM603 936c54 9 109 4 139 -14c-59 -56 -116 -121 -158 -180c-24 2 -49 11 -68 24c39 62 73 130 87 170zM105 679c48 -3 90 -3 143 -3c48 0 94 0 149 3
c-1 -21 -4 -41 -12 -62c-58 -6 -67 -19 -83 -108l-43 -246c-26 -143 15 -203 98 -203c91 0 144 76 166 198l41 235c18 97 11 108 -44 124c-4 19 -4 39 -1 62c42 -3 77 -3 104 -3c38 0 62 0 102 3c-1 -22 -5 -44 -12 -62c-56 -13 -64 -23 -84 -134l-37 -216
c-35 -194 -110 -276 -271 -276c-183 0 -246 95 -216 267l47 267c12 70 5 84 -46 92c-3 17 -4 40 -1 62z" />
    <glyph glyph-name="uhungarumlaut" unicode="&#x171;" horiz-adv-x="602" 
d="M291 718c54 9 109 4 139 -14c-59 -56 -116 -121 -158 -180c-24 2 -49 11 -68 24c39 62 73 130 87 170zM473 718c54 9 109 4 139 -14c-59 -56 -116 -121 -158 -180c-24 2 -49 11 -68 24c39 62 73 130 87 170zM233 467c35 -22 36 -34 -4 -210c-25 -108 -16 -143 17 -143
c39 0 116 76 151 262l15 82h148l-46 -251c-22 -112 -21 -123 -1 -123c10 0 21 7 37 22c13 -10 24 -32 27 -51c-39 -40 -92 -64 -141 -64c-86 0 -103 52 -90 115c3 15 7 31 15 48h-1c-43 -87 -127 -163 -218 -163c-83 0 -102 78 -69 221c36 149 33 153 -35 155
c-1 19 1 42 9 59c59 2 138 20 186 41z" />
    <glyph glyph-name="Uogonek" unicode="&#x172;" horiz-adv-x="658" 
d="M623 676c38 0 62 0 102 3c-1 -22 -5 -44 -12 -62c-56 -13 -64 -23 -84 -134l-37 -216c-24 -133 -67 -214 -144 -251c-68 -39 -100 -77 -104 -112c-4 -26 12 -50 48 -50c11 0 24 2 35 7c13 -15 18 -37 19 -56c-32 -11 -66 -31 -91 -53c-8 -1 -13 -1 -21 -1
c-77 0 -136 35 -121 115c7 41 31 85 117 125h-9c-183 0 -246 95 -216 267l47 267c12 70 5 84 -46 92c-3 17 -4 40 -1 62c48 -3 90 -3 143 -3c48 0 94 0 149 3c-1 -21 -4 -41 -12 -62c-58 -6 -67 -19 -83 -108l-43 -246c-26 -143 15 -203 98 -203c91 0 144 76 166 198l41 235
c18 97 11 108 -44 124c-4 19 -4 39 -1 62c42 -3 77 -3 104 -3z" />
    <glyph glyph-name="uogonek" unicode="&#x173;" horiz-adv-x="602" 
d="M577 55c-15 -15 -31 -28 -48 -38c-69 -39 -102 -78 -106 -113c-4 -26 12 -50 48 -50c11 0 24 2 35 7c13 -15 18 -37 19 -56c-32 -11 -66 -31 -91 -53c-8 -1 -13 -1 -21 -1c-77 0 -136 35 -121 115c7 42 32 86 120 127c-65 9 -78 56 -66 113c3 15 7 31 15 48h-1
c-43 -87 -127 -163 -218 -163c-83 0 -102 78 -69 221c36 149 33 153 -35 155c-1 19 1 42 9 59c59 2 138 20 186 41c35 -22 36 -34 -4 -210c-25 -108 -16 -143 17 -143c39 0 116 76 151 262l15 82h148l-46 -251c-22 -112 -21 -123 -1 -123c10 0 21 7 37 22
c13 -10 24 -32 27 -51z" />
    <glyph glyph-name="Wcircumflex" unicode="&#x174;" horiz-adv-x="971" 
d="M494 737c-22 13 -35 40 -35 59c60 38 127 89 175 135c21 3 44 0 64 -7c33 -49 71 -96 119 -150c-12 -16 -36 -27 -62 -30c-37 30 -79 58 -119 79c-47 -23 -104 -58 -142 -86zM946 676c36 0 65 0 100 3c-1 -21 -5 -43 -12 -62c-34 -11 -57 -38 -106 -152
c-66 -155 -137 -311 -215 -467c-18 -6 -54 -4 -77 1c-26 152 -57 303 -97 455c-72 -154 -150 -307 -231 -456c-20 -6 -57 -4 -76 2c-26 190 -53 364 -79 505c-17 93 -21 103 -54 112c-4 16 -5 39 -2 62c52 -3 109 -3 137 -3c35 0 99 0 150 3c-1 -24 -4 -46 -11 -63
c-70 -10 -78 -43 -65 -124c13 -76 30 -172 43 -274c80 151 156 304 229 459c19 5 41 7 63 5c43 -153 78 -308 105 -465c44 89 83 176 119 265c38 96 31 124 -25 135c-4 19 -4 40 -1 62c31 -3 74 -3 105 -3z" />
    <glyph glyph-name="wcircumflex" unicode="&#x175;" horiz-adv-x="772" 
d="M281 519c-22 13 -35 40 -35 59c60 38 127 89 175 135c21 3 44 0 64 -7c33 -49 71 -96 119 -150c-12 -16 -36 -27 -62 -30c-37 30 -79 58 -119 79c-47 -23 -104 -58 -142 -86zM693 467c38 -13 61 -43 61 -111c0 -86 -61 -195 -255 -365c-25 0 -54 4 -71 15
c-9 75 -19 137 -36 198c-25 -76 -78 -139 -170 -213c-25 0 -56 4 -73 15c-16 122 -38 229 -58 301c-13 47 -26 63 -78 60c0 18 3 42 9 59c44 4 116 25 148 41c31 -10 38 -25 51 -80c23 -94 40 -193 51 -278c82 101 93 178 53 321c38 7 69 20 94 37c28 -8 35 -19 52 -80
c27 -95 49 -193 64 -278c62 73 85 132 85 175c0 57 -27 82 -75 82c-3 21 -3 41 2 59c45 7 116 27 146 42z" />
    <glyph glyph-name="Ycircumflex" unicode="&#x176;" horiz-adv-x="596" 
d="M287 737c-22 13 -35 40 -35 59c60 38 127 89 175 135c21 3 44 0 64 -7c33 -49 71 -96 119 -150c-12 -16 -36 -27 -62 -30c-37 30 -79 58 -119 79c-47 -23 -104 -58 -142 -86zM573 676c35 0 60 0 97 3c0 -21 -4 -43 -12 -62c-22 -7 -39 -15 -83 -90
c-59 -97 -114 -182 -171 -264l-18 -105c-12 -70 -6 -86 75 -99c4 -19 4 -42 2 -62c-43 3 -103 3 -165 3c-69 0 -136 0 -182 -3c1 24 7 47 13 63c78 11 91 23 106 108l17 96c-25 88 -53 173 -85 259c-28 76 -40 86 -69 94c-3 17 -4 38 -1 62c45 -3 105 -3 137 -3
c38 0 98 0 155 3c-1 -25 -6 -46 -12 -63c-60 -8 -70 -29 -53 -79c23 -64 41 -131 56 -202c40 61 75 125 111 193c29 56 28 80 -24 89c-4 19 -4 39 -1 62c33 -3 74 -3 107 -3z" />
    <glyph glyph-name="ycircumflex" unicode="&#x177;" horiz-adv-x="518" 
d="M162 519c-22 13 -35 40 -35 59c60 38 127 89 175 135c21 3 44 0 64 -7c33 -49 71 -96 119 -150c-12 -16 -36 -27 -62 -30c-37 30 -79 58 -119 79c-47 -23 -104 -58 -142 -86zM451 467c37 -12 55 -43 55 -86c0 -70 -38 -150 -198 -350c-192 -242 -242 -279 -324 -279
c-40 0 -75 14 -104 43c-1 27 5 61 16 85c31 -14 69 -20 104 -20c56 0 94 14 156 83c-13 145 -34 264 -63 364c-14 47 -26 63 -78 60c-1 22 2 42 9 59c44 4 116 25 148 41c29 -9 37 -21 49 -73c26 -107 41 -206 49 -306c76 107 99 168 99 216c0 38 -22 61 -70 62
c-3 21 -1 41 4 59c45 7 118 28 148 42z" />
    <glyph glyph-name="Ydieresis" unicode="&#x178;" horiz-adv-x="596" 
d="M326 731c-49 0 -74 35 -63 87c7 40 33 62 76 62c50 0 75 -34 63 -85c-10 -41 -36 -64 -76 -64zM521 731c-49 0 -74 33 -64 83c6 42 33 66 80 66c48 0 73 -32 62 -82c-8 -43 -35 -67 -78 -67zM573 676c35 0 60 0 97 3c0 -21 -4 -43 -12 -62c-22 -7 -39 -15 -83 -90
c-59 -97 -114 -182 -171 -264l-18 -105c-12 -70 -6 -86 75 -99c4 -19 4 -42 2 -62c-43 3 -103 3 -165 3c-69 0 -136 0 -182 -3c1 24 7 47 13 63c78 11 91 23 106 108l17 96c-25 88 -53 173 -85 259c-28 76 -40 86 -69 94c-3 17 -4 38 -1 62c45 -3 105 -3 137 -3
c38 0 98 0 155 3c-1 -25 -6 -46 -12 -63c-60 -8 -70 -29 -53 -79c23 -64 41 -131 56 -202c40 61 75 125 111 193c29 56 28 80 -24 89c-4 19 -4 39 -1 62c33 -3 74 -3 107 -3z" />
    <glyph glyph-name="Zacute" unicode="&#x179;" horiz-adv-x="551" 
d="M526 922c-59 -56 -116 -121 -158 -180c-24 2 -49 11 -68 24c39 62 73 130 87 170c54 9 109 4 139 -14zM576 679c11 -16 16 -36 15 -62c-135 -192 -262 -366 -409 -555h77c103 0 139 26 184 137c32 -5 57 -15 80 -33c-19 -46 -41 -116 -50 -169c-85 3 -174 3 -254 3
c-88 0 -154 0 -221 -3c-10 16 -17 37 -16 63c153 192 281 362 416 555h-82c-74 0 -109 -27 -152 -141c-36 2 -61 10 -82 26c22 48 42 123 51 179c64 -3 152 -3 229 -3c69 0 146 0 214 3z" />
    <glyph glyph-name="zacute" unicode="&#x17a;" horiz-adv-x="432" 
d="M439 704c-59 -56 -116 -121 -158 -180c-24 2 -49 11 -68 24c39 62 73 130 87 170c54 9 109 4 139 -14zM424 402c-62 -92 -153 -197 -262 -291c46 16 71 6 102 6c35 0 46 11 65 55c26 0 55 -6 74 -17c-16 -37 -26 -92 -28 -135c-10 -20 -31 -29 -91 -29
c-64 0 -111 9 -177 9c-31 0 -63 -2 -104 -9c-11 17 -17 42 -14 63c128 101 227 195 291 280c-20 6 -39 8 -60 8c-54 0 -73 -11 -102 -65c-27 0 -59 9 -75 24c27 50 44 101 52 157c37 5 92 8 161 8c63 0 108 -3 149 -8c11 -15 18 -37 19 -56z" />
    <glyph glyph-name="Zdotaccent" unicode="&#x17b;" horiz-adv-x="551" 
d="M362 739c-58 0 -80 30 -73 71c7 49 47 76 99 76c55 0 82 -30 75 -75c-8 -43 -44 -72 -101 -72zM576 679c11 -16 16 -36 15 -62c-135 -192 -262 -366 -409 -555h77c103 0 139 26 184 137c32 -5 57 -15 80 -33c-19 -46 -41 -116 -50 -169c-85 3 -174 3 -254 3
c-88 0 -154 0 -221 -3c-10 16 -17 37 -16 63c153 192 281 362 416 555h-82c-74 0 -109 -27 -152 -141c-36 2 -61 10 -82 26c22 48 42 123 51 179c64 -3 152 -3 229 -3c69 0 146 0 214 3z" />
    <glyph glyph-name="zdotaccent" unicode="&#x17c;" horiz-adv-x="432" 
d="M275 518c-48 0 -74 31 -67 79c8 47 45 74 99 74c46 0 76 -32 66 -82c-8 -45 -42 -71 -98 -71zM264 117c35 0 46 11 65 55c26 0 55 -6 74 -17c-16 -37 -26 -92 -28 -135c-10 -20 -31 -29 -91 -29c-64 0 -111 9 -177 9c-31 0 -63 -2 -104 -9c-11 17 -17 42 -14 63
c128 101 227 195 291 280c-20 6 -39 8 -60 8c-54 0 -73 -11 -102 -65c-27 0 -59 9 -75 24c27 50 44 101 52 157c37 5 92 8 161 8c63 0 108 -3 149 -8c11 -15 18 -37 19 -56c-62 -92 -153 -197 -262 -291c46 16 71 6 102 6z" />
    <glyph glyph-name="Zcaron" unicode="&#x17d;" horiz-adv-x="551" 
d="M393 742c-19 -9 -43 -11 -65 -8c-35 51 -79 106 -123 153c9 24 26 39 55 44c37 -31 83 -63 125 -85c51 22 103 52 141 81c19 -6 34 -23 41 -42c-58 -41 -124 -93 -174 -143zM576 679c11 -16 16 -36 15 -62c-135 -192 -262 -366 -409 -555h77c103 0 139 26 184 137
c32 -5 57 -15 80 -33c-19 -46 -41 -116 -50 -169c-85 3 -174 3 -254 3c-88 0 -154 0 -221 -3c-10 16 -17 37 -16 63c153 192 281 362 416 555h-82c-74 0 -109 -27 -152 -141c-36 2 -61 10 -82 26c22 48 42 123 51 179c64 -3 152 -3 229 -3c69 0 146 0 214 3z" />
    <glyph glyph-name="zcaron" unicode="&#x17e;" horiz-adv-x="432" 
d="M305 524c-19 -9 -43 -11 -65 -8c-35 51 -79 106 -123 153c9 24 26 39 55 44c37 -31 83 -63 125 -85c51 22 103 52 141 81c19 -6 34 -23 41 -42c-58 -41 -124 -93 -174 -143zM424 402c-62 -92 -153 -197 -262 -291c46 16 71 6 102 6c35 0 46 11 65 55c26 0 55 -6 74 -17
c-16 -37 -26 -92 -28 -135c-10 -20 -31 -29 -91 -29c-64 0 -111 9 -177 9c-31 0 -63 -2 -104 -9c-11 17 -17 42 -14 63c128 101 227 195 291 280c-20 6 -39 8 -60 8c-54 0 -73 -11 -102 -65c-27 0 -59 9 -75 24c27 50 44 101 52 157c37 5 92 8 161 8c63 0 108 -3 149 -8
c11 -15 18 -37 19 -56z" />
    <glyph glyph-name="longs" unicode="&#x17f;" horiz-adv-x="323" 
d="M396 714c53 0 97 -10 116 -21c-14 -36 -25 -98 -26 -136c-15 -7 -50 -11 -75 -11c-2 56 -8 106 -45 106c-41 0 -60 -40 -91 -204c-24 -125 -39 -223 -51 -303c-35 -215 -133 -393 -274 -393c-37 0 -72 14 -101 43c-1 27 6 61 16 85c32 -14 69 -20 109 -20
c56 0 74 18 95 186c10 83 22 196 43 330c-28 7 -55 11 -77 11c0 22 4 46 13 61h75l1 6c30 170 103 260 272 260z" />
    <glyph glyph-name="florin" unicode="&#x192;" horiz-adv-x="409" 
d="M394 714c55 0 98 -10 117 -21c-13 -36 -25 -98 -26 -136c-14 -7 -50 -11 -74 -11c-2 67 -10 106 -47 106c-40 0 -59 -44 -89 -204h95c0 -24 -2 -49 -9 -63c-36 0 -67 -3 -100 -11c-19 -109 -31 -195 -39 -245c-41 -247 -100 -377 -288 -377c-51 0 -95 10 -115 21
c14 36 26 98 26 136c15 7 50 11 75 11c2 -61 9 -106 44 -106c44 0 84 67 105 232c6 54 23 210 42 331c-29 7 -55 10 -76 10c0 22 3 46 13 61h75l1 6c34 176 102 260 270 260z" />
    <glyph glyph-name="Oslashacute" unicode="&#x1fe;" 
d="M619 922c-59 -56 -116 -121 -158 -180c-24 2 -49 11 -68 24c39 62 73 130 87 170c54 9 109 4 139 -14zM735 655l-63 -63c55 -63 77 -157 55 -275c-36 -188 -184 -326 -384 -326c-74 0 -136 18 -183 51l-45 -51c-29 0 -57 13 -65 35l59 63c-53 66 -73 161 -51 273
c37 195 191 323 382 323c71 0 133 -17 181 -49l46 49c32 0 56 -11 68 -30zM218 367c-12 -62 -14 -119 -6 -168l332 355c-26 44 -67 70 -118 70c-100 0 -179 -107 -208 -257zM569 327c11 60 10 115 0 160c-114 -117 -226 -239 -334 -360c24 -45 64 -73 121 -73
c107 0 184 112 213 273z" />
    <glyph glyph-name="oslashacute" unicode="&#x1ff;" horiz-adv-x="547" 
d="M487 704c-59 -56 -116 -121 -158 -180c-24 2 -49 11 -68 24c39 62 73 130 87 170c54 9 109 4 139 -14zM551 453c-19 -17 -42 -37 -66 -59c29 -41 40 -96 29 -162c-24 -147 -130 -241 -280 -241c-49 0 -90 10 -122 29l-43 -46c-25 0 -52 11 -65 28l61 60
c-32 42 -43 101 -31 168c25 147 131 237 280 237c52 0 94 -11 127 -32l47 47c28 0 51 -12 63 -29zM190 239c-4 -21 -6 -41 -7 -59l174 173c-10 33 -29 53 -57 53c-52 0 -93 -68 -110 -167zM359 226c3 19 5 36 6 53c-58 -58 -119 -119 -174 -176c10 -33 29 -51 55 -51
c49 0 95 66 113 174z" />
    <glyph glyph-name="Scommaaccent" unicode="&#x218;" horiz-adv-x="501" 
d="M323 685c78 0 138 -21 171 -48c-7 -49 -12 -102 -11 -144c-26 -8 -56 -11 -86 -7c-2 94 -37 134 -98 134c-50 0 -83 -20 -92 -70c-26 -147 300 -147 259 -380c-19 -109 -125 -179 -255 -179c-106 0 -156 25 -214 71c17 48 29 98 34 149c28 6 61 8 90 1
c-9 -107 22 -154 106 -154c49 0 91 31 99 75c27 148 -288 136 -241 394c18 101 113 158 238 158zM242 -40c31 -10 41 -33 34 -76c-13 -78 -70 -139 -141 -185c-20 4 -34 15 -42 31c34 25 57 56 61 80c3 23 -12 36 -47 40c0 30 9 58 25 80c43 3 81 13 110 30z" />
    <glyph glyph-name="scommaaccent" unicode="&#x219;" horiz-adv-x="429" 
d="M262 467c57 0 120 -15 157 -35c-12 -36 -18 -78 -19 -125c-23 -11 -51 -13 -79 -11c-1 73 -23 110 -68 110c-28 0 -45 -10 -49 -33c-19 -86 197 -123 168 -272c-16 -82 -80 -110 -205 -110c-75 0 -133 17 -168 40c14 40 20 81 21 124c24 9 51 12 80 9
c-1 -70 20 -109 74 -109c30 0 46 13 50 31c16 75 -189 123 -161 270c16 82 91 111 199 111zM193 -40c31 -10 41 -33 34 -76c-13 -78 -70 -139 -141 -185c-20 4 -34 15 -42 31c34 25 57 56 61 80c3 23 -12 36 -47 40c0 30 9 58 25 80c43 3 81 13 110 30z" />
    <glyph glyph-name="uni021A" unicode="&#x21a;" horiz-adv-x="598" 
d="M650 679c-7 -51 -11 -119 -7 -179c-23 -9 -49 -11 -77 -9c-5 90 -24 126 -98 126h-20l-80 -459c-12 -70 -6 -87 75 -99c4 -19 5 -42 3 -62c-43 3 -103 3 -166 3c-69 0 -136 0 -182 -3c1 24 7 47 13 63c78 10 92 23 106 108l78 449h-19c-73 0 -109 -40 -140 -128
c-30 0 -54 4 -74 18c18 45 34 120 41 172c69 -3 150 -3 271 -3c116 0 195 0 276 3zM303 -40c31 -10 41 -33 34 -76c-13 -78 -70 -139 -141 -185c-20 4 -34 15 -42 31c34 25 57 56 61 80c3 23 -12 36 -47 40c0 30 9 58 25 80c43 3 81 13 110 30z" />
    <glyph glyph-name="uni021B" unicode="&#x21b;" horiz-adv-x="364" 
d="M260 374l-35 -149c-26 -113 -12 -143 19 -143c18 0 42 13 59 32c12 -13 22 -36 24 -55c-30 -36 -96 -68 -152 -68c-107 0 -135 82 -101 224l38 163c-27 6 -51 9 -71 9c0 22 3 46 12 61h76l2 10c14 60 22 102 24 130c42 5 91 18 118 32c36 -11 31 -56 10 -145l-6 -27h99
c0 -24 -2 -49 -8 -63c-44 0 -77 -3 -108 -11zM199 -40c31 -10 41 -33 34 -76c-13 -78 -70 -139 -141 -185c-20 4 -34 15 -42 31c34 25 57 56 61 80c3 23 -12 36 -47 40c0 30 9 58 25 80c43 3 81 13 110 30z" />
    <glyph glyph-name="dotlessj" unicode="&#x237;" horiz-adv-x="275" 
d="M44 426c60 2 132 20 180 41c29 -20 39 -35 24 -115l-46 -250c-36 -199 -115 -286 -285 -349c-16 13 -24 32 -24 58c81 50 132 123 153 241l42 234c12 66 9 81 -54 81c0 20 2 41 10 59z" />
    <glyph glyph-name="uni02BC" unicode="&#x2bc;" horiz-adv-x="235" 
d="M255 741c24 -12 39 -43 25 -109c-15 -87 -72 -167 -145 -223c-24 3 -40 14 -49 30c86 81 122 163 29 179c0 32 8 65 23 90c42 2 89 16 117 33z" />
    <glyph glyph-name="circumflex" unicode="&#x2c6;" horiz-adv-x="428" 
d="M276 713c21 3 44 0 64 -7c33 -49 71 -96 119 -150c-12 -16 -36 -27 -62 -30c-37 30 -79 58 -119 79c-47 -23 -104 -58 -142 -86c-22 13 -35 40 -35 59c60 38 127 89 175 135z" />
    <glyph glyph-name="caron" unicode="&#x2c7;" horiz-adv-x="433" 
d="M445 709c19 -6 34 -23 41 -42c-58 -41 -124 -93 -174 -143c-19 -9 -43 -11 -65 -8c-35 51 -79 106 -123 153c9 24 26 39 55 44c37 -31 83 -63 125 -85c51 22 103 52 141 81z" />
    <glyph glyph-name="firsttonechinese" unicode="&#x2c9;" horiz-adv-x="427" 
d="M113 631h356c0 -15 -2 -34 -9 -51c-118 0 -236 -1 -356 -6c0 15 2 41 9 57z" />
    <glyph glyph-name="breve" unicode="&#x2d8;" horiz-adv-x="444" 
d="M503 702c-23 -117 -103 -181 -226 -181c-122 0 -175 62 -153 176c24 10 54 14 79 12c-3 -57 37 -91 105 -91c67 0 116 34 131 91c26 3 49 0 64 -7z" />
    <glyph glyph-name="dotaccent" unicode="&#x2d9;" horiz-adv-x="302" 
d="M221 671c46 0 76 -32 66 -82c-8 -45 -42 -71 -98 -71c-48 0 -74 31 -67 79c8 47 45 74 99 74z" />
    <glyph glyph-name="ring" unicode="&#x2da;" horiz-adv-x="309" 
d="M242 720c88 0 120 -54 108 -111c-13 -55 -60 -89 -131 -89c-86 0 -121 50 -108 110c13 57 62 90 131 90zM237 674c-24 0 -41 -22 -45 -51c-5 -30 6 -53 33 -53c21 0 38 14 44 43c5 29 -4 61 -32 61z" />
    <glyph glyph-name="ogonek" unicode="&#x2db;" horiz-adv-x="328" 
d="M118 47l76 -23c-70 -23 -111 -68 -118 -110c-6 -37 14 -61 51 -61c11 0 22 2 30 8c15 -14 23 -36 26 -54c-32 -14 -65 -34 -87 -55c-9 -2 -13 -2 -23 -2c-83 0 -142 33 -130 114c8 59 51 123 175 183z" />
    <glyph glyph-name="tilde" unicode="&#x2dc;" horiz-adv-x="455" 
d="M249 660c60 0 92 -41 133 -41c35 0 62 17 84 35c14 -12 25 -28 29 -49c-51 -73 -90 -99 -136 -99c-61 0 -89 45 -138 45c-33 0 -69 -16 -102 -43c-14 16 -22 32 -21 56c65 79 115 96 151 96z" />
    <glyph glyph-name="hungarumlaut" unicode="&#x2dd;" horiz-adv-x="444" 
d="M182 718c54 9 109 4 139 -14c-59 -56 -116 -121 -158 -180c-24 2 -49 11 -68 24c39 62 73 130 87 170zM364 718c55 9 109 4 139 -14c-58 -56 -115 -121 -157 -180c-25 2 -50 11 -69 24c39 62 73 130 87 170z" />
    <glyph glyph-name="uni0326" unicode="&#x326;" horiz-adv-x="0" 
d="M77 -40c31 -10 41 -33 34 -76c-13 -78 -70 -139 -141 -185c-20 4 -34 15 -42 31c34 25 57 56 61 80c3 23 -12 36 -47 40c0 30 9 58 25 80c43 3 81 13 110 30z" />
    <glyph glyph-name="mu" unicode="&#x3bc;" horiz-adv-x="590" 
d="M253 458l-30 -161c-23 -126 -8 -181 34 -181c47 0 92 71 121 225l22 117h148l-47 -251c-21 -112 -20 -123 -1 -123c11 0 22 7 38 22c13 -10 24 -32 27 -51c-39 -40 -92 -64 -141 -64c-65 0 -85 38 -73 100c3 17 7 29 10 37h-1c-33 -93 -84 -137 -135 -137
c-39 0 -59 20 -68 53h-1c2 -34 -3 -70 -10 -104c-8 -39 -12 -87 -7 -117c-45 -12 -118 -41 -155 -65c-14 9 -20 23 -15 50c6 30 23 55 43 161l93 489h148z" />
    <glyph glyph-name="pi" unicode="&#x3c0;" horiz-adv-x="551" 
d="M547 520c23 -8 51 -17 63 -30c-15 -46 -28 -98 -34 -140c-8 -14 -20 -21 -92 -21h-22c-13 -46 -25 -99 -33 -140c-16 -91 -4 -104 25 -104c17 0 34 4 48 6c8 -18 10 -39 6 -63c-29 -22 -68 -39 -111 -39c-68 0 -94 41 -75 136c11 54 37 129 75 207c-50 3 -101 7 -142 9
c-44 -229 -81 -324 -103 -341c-45 0 -85 -3 -115 -9c-11 16 -11 45 -6 71c83 55 139 193 158 280c-49 -2 -68 -11 -112 -47c-24 7 -42 26 -48 49c77 97 140 120 238 120c49 0 157 -6 190 -6c53 0 69 14 90 62z" />
    <glyph glyph-name="Wgrave" unicode="&#x1e80;" horiz-adv-x="971" 
d="M663 757c-19 -6 -48 -5 -68 2c-28 51 -63 105 -108 159c39 11 88 15 132 5c9 -52 24 -111 44 -166zM946 676c36 0 65 0 100 3c-1 -21 -5 -43 -12 -62c-34 -11 -57 -38 -106 -152c-66 -155 -137 -311 -215 -467c-18 -6 -54 -4 -77 1c-26 152 -57 303 -97 455
c-72 -154 -150 -307 -231 -456c-20 -6 -57 -4 -76 2c-26 190 -53 364 -79 505c-17 93 -21 103 -54 112c-4 16 -5 39 -2 62c52 -3 109 -3 137 -3c35 0 99 0 150 3c-1 -24 -4 -46 -11 -63c-70 -10 -78 -43 -65 -124c13 -76 30 -172 43 -274c80 151 156 304 229 459
c19 5 41 7 63 5c43 -153 78 -308 105 -465c44 89 83 176 119 265c38 96 31 124 -25 135c-4 19 -4 40 -1 62c31 -3 74 -3 105 -3z" />
    <glyph glyph-name="wgrave" unicode="&#x1e81;" horiz-adv-x="772" 
d="M450 539c-19 -6 -48 -5 -68 2c-28 51 -63 105 -108 159c39 11 88 15 132 5c9 -52 24 -111 44 -166zM693 467c38 -13 61 -43 61 -111c0 -86 -61 -195 -255 -365c-25 0 -54 4 -71 15c-9 75 -19 137 -36 198c-25 -76 -78 -139 -170 -213c-25 0 -56 4 -73 15
c-16 122 -38 229 -58 301c-13 47 -26 63 -78 60c0 18 3 42 9 59c44 4 116 25 148 41c31 -10 38 -25 51 -80c23 -94 40 -193 51 -278c82 101 93 178 53 321c38 7 69 20 94 37c28 -8 35 -19 52 -80c27 -95 49 -193 64 -278c62 73 85 132 85 175c0 57 -27 82 -75 82
c-3 21 -3 41 2 59c45 7 116 27 146 42z" />
    <glyph glyph-name="Wacute" unicode="&#x1e82;" horiz-adv-x="971" 
d="M791 922c-59 -56 -116 -121 -158 -180c-24 2 -49 11 -68 24c39 62 73 130 87 170c54 9 109 4 139 -14zM946 676c36 0 65 0 100 3c-1 -21 -5 -43 -12 -62c-34 -11 -57 -38 -106 -152c-66 -155 -137 -311 -215 -467c-18 -6 -54 -4 -77 1c-26 152 -57 303 -97 455
c-72 -154 -150 -307 -231 -456c-20 -6 -57 -4 -76 2c-26 190 -53 364 -79 505c-17 93 -21 103 -54 112c-4 16 -5 39 -2 62c52 -3 109 -3 137 -3c35 0 99 0 150 3c-1 -24 -4 -46 -11 -63c-70 -10 -78 -43 -65 -124c13 -76 30 -172 43 -274c80 151 156 304 229 459
c19 5 41 7 63 5c43 -153 78 -308 105 -465c44 89 83 176 119 265c38 96 31 124 -25 135c-4 19 -4 40 -1 62c31 -3 74 -3 105 -3z" />
    <glyph glyph-name="wacute" unicode="&#x1e83;" horiz-adv-x="772" 
d="M578 704c-59 -56 -116 -121 -158 -180c-24 2 -49 11 -68 24c39 62 73 130 87 170c54 9 109 4 139 -14zM693 467c38 -13 61 -43 61 -111c0 -86 -61 -195 -255 -365c-25 0 -54 4 -71 15c-9 75 -19 137 -36 198c-25 -76 -78 -139 -170 -213c-25 0 -56 4 -73 15
c-16 122 -38 229 -58 301c-13 47 -26 63 -78 60c0 18 3 42 9 59c44 4 116 25 148 41c31 -10 38 -25 51 -80c23 -94 40 -193 51 -278c82 101 93 178 53 321c38 7 69 20 94 37c28 -8 35 -19 52 -80c27 -95 49 -193 64 -278c62 73 85 132 85 175c0 57 -27 82 -75 82
c-3 21 -3 41 2 59c45 7 116 27 146 42z" />
    <glyph glyph-name="Wdieresis" unicode="&#x1e84;" horiz-adv-x="971" 
d="M534 731c-49 0 -74 35 -63 87c7 40 33 62 76 62c50 0 75 -34 63 -85c-10 -41 -36 -64 -76 -64zM729 731c-49 0 -74 33 -64 83c6 42 33 66 80 66c48 0 73 -32 62 -82c-8 -43 -35 -67 -78 -67zM946 676c36 0 65 0 100 3c-1 -21 -5 -43 -12 -62c-34 -11 -57 -38 -106 -152
c-66 -155 -137 -311 -215 -467c-18 -6 -54 -4 -77 1c-26 152 -57 303 -97 455c-72 -154 -150 -307 -231 -456c-20 -6 -57 -4 -76 2c-26 190 -53 364 -79 505c-17 93 -21 103 -54 112c-4 16 -5 39 -2 62c52 -3 109 -3 137 -3c35 0 99 0 150 3c-1 -24 -4 -46 -11 -63
c-70 -10 -78 -43 -65 -124c13 -76 30 -172 43 -274c80 151 156 304 229 459c19 5 41 7 63 5c43 -153 78 -308 105 -465c44 89 83 176 119 265c38 96 31 124 -25 135c-4 19 -4 40 -1 62c31 -3 74 -3 105 -3z" />
    <glyph glyph-name="wdieresis" unicode="&#x1e85;" horiz-adv-x="772" 
d="M320 513c-49 0 -74 35 -63 87c7 40 33 62 76 62c50 0 75 -34 63 -85c-10 -41 -36 -64 -76 -64zM515 513c-49 0 -74 33 -64 83c6 42 33 66 80 66c48 0 73 -32 62 -82c-8 -43 -35 -67 -78 -67zM693 467c38 -13 61 -43 61 -111c0 -86 -61 -195 -255 -365c-25 0 -54 4 -71 15
c-9 75 -19 137 -36 198c-25 -76 -78 -139 -170 -213c-25 0 -56 4 -73 15c-16 122 -38 229 -58 301c-13 47 -26 63 -78 60c0 18 3 42 9 59c44 4 116 25 148 41c31 -10 38 -25 51 -80c23 -94 40 -193 51 -278c82 101 93 178 53 321c38 7 69 20 94 37c28 -8 35 -19 52 -80
c27 -95 49 -193 64 -278c62 73 85 132 85 175c0 57 -27 82 -75 82c-3 21 -3 41 2 59c45 7 116 27 146 42z" />
    <glyph glyph-name="uni1E9E" unicode="&#x1e9e;" horiz-adv-x="698" 
d="M676 679c11 -15 17 -43 15 -68c-43 -64 -105 -145 -168 -217c108 -24 161 -97 141 -217c-20 -113 -104 -186 -254 -186c-76 0 -122 21 -159 57c14 42 26 97 29 136c23 9 55 10 82 3c-8 -100 6 -128 50 -128c45 0 80 45 90 102c19 110 -33 169 -142 185
c-11 17 -15 41 -13 64c55 57 117 133 169 207c-35 1 -63 2 -97 2c-77 0 -130 -45 -157 -202l-69 -417c-67 0 -137 0 -219 -3c2 24 6 43 14 62c52 7 63 19 77 96l46 269c36 208 162 255 318 255c50 0 99 -3 140 -3c36 0 71 0 107 3z" />
    <glyph glyph-name="Ygrave" unicode="&#x1ef2;" horiz-adv-x="596" 
d="M455 757c-19 -6 -48 -5 -68 2c-28 51 -63 105 -108 159c39 11 88 15 132 5c9 -52 24 -111 44 -166zM573 676c35 0 60 0 97 3c0 -21 -4 -43 -12 -62c-22 -7 -39 -15 -83 -90c-59 -97 -114 -182 -171 -264l-18 -105c-12 -70 -6 -86 75 -99c4 -19 4 -42 2 -62
c-43 3 -103 3 -165 3c-69 0 -136 0 -182 -3c1 24 7 47 13 63c78 11 91 23 106 108l17 96c-25 88 -53 173 -85 259c-28 76 -40 86 -69 94c-3 17 -4 38 -1 62c45 -3 105 -3 137 -3c38 0 98 0 155 3c-1 -25 -6 -46 -12 -63c-60 -8 -70 -29 -53 -79c23 -64 41 -131 56 -202
c40 61 75 125 111 193c29 56 28 80 -24 89c-4 19 -4 39 -1 62c33 -3 74 -3 107 -3z" />
    <glyph glyph-name="ygrave" unicode="&#x1ef3;" horiz-adv-x="518" 
d="M330 539c-19 -6 -48 -5 -68 2c-28 51 -63 105 -108 159c39 11 88 15 132 5c9 -52 24 -111 44 -166zM451 467c37 -12 55 -43 55 -86c0 -70 -38 -150 -198 -350c-192 -242 -242 -279 -324 -279c-40 0 -75 14 -104 43c-1 27 5 61 16 85c31 -14 69 -20 104 -20
c56 0 94 14 156 83c-13 145 -34 264 -63 364c-14 47 -26 63 -78 60c-1 22 2 42 9 59c44 4 116 25 148 41c29 -9 37 -21 49 -73c26 -107 41 -206 49 -306c76 107 99 168 99 216c0 38 -22 61 -70 62c-3 21 -1 41 4 59c45 7 118 28 148 42z" />
    <glyph glyph-name="endash" unicode="&#x2013;" horiz-adv-x="523" 
d="M57 307h447c-1 -26 -8 -52 -22 -71c-140 0 -284 0 -446 -4c0 27 7 55 21 75z" />
    <glyph glyph-name="emdash" unicode="&#x2014;" horiz-adv-x="984" 
d="M57 307h909c-2 -28 -9 -52 -23 -71c-249 0 -538 0 -909 -4c2 30 9 56 23 75z" />
    <glyph glyph-name="quoteleft" unicode="&#x2018;" horiz-adv-x="273" 
d="M139 419c-27 14 -37 50 -25 109c12 66 48 134 119 189c24 -2 41 -13 50 -30c-77 -74 -82 -132 -7 -145c0 -32 -8 -65 -24 -90c-42 -2 -85 -16 -113 -33z" />
    <glyph glyph-name="quoteright" unicode="&#x2019;" horiz-adv-x="274" 
d="M266 717c27 -13 38 -50 26 -109c-12 -65 -49 -133 -120 -189c-24 3 -40 14 -49 30c76 74 82 132 6 146c0 32 9 64 24 89c42 2 86 16 113 33z" />
    <glyph glyph-name="quotesinglbase" unicode="&#x201a;" horiz-adv-x="238" 
d="M139 149c26 -14 37 -50 25 -109c-12 -66 -49 -134 -119 -189c-25 2 -41 13 -50 30c76 74 82 132 7 145c0 32 8 65 23 90c42 2 86 16 114 33z" />
    <glyph glyph-name="quotedblleft" unicode="&#x201c;" horiz-adv-x="456" 
d="M137 414c-26 14 -37 50 -25 109c12 66 49 134 119 189c25 -2 41 -13 50 -30c-71 -69 -81 -126 -11 -145c0 -32 -8 -65 -24 -90c-41 -2 -81 -16 -109 -33zM325 414c-33 16 -38 58 -23 120c15 63 48 127 106 172c24 -2 41 -13 50 -30c-75 -72 -72 -127 -1 -139
c0 -32 -8 -65 -24 -90c-42 -2 -80 -16 -108 -33z" />
    <glyph glyph-name="quotedblright" unicode="&#x201d;" horiz-adv-x="457" 
d="M262 717c33 -16 38 -58 23 -119c-14 -64 -48 -127 -106 -173c-24 2 -41 14 -49 30c74 72 71 127 0 140c0 32 8 64 24 89c42 2 81 16 108 33zM450 717c27 -13 37 -50 25 -109c-12 -65 -48 -133 -119 -189c-25 3 -41 14 -50 30c71 70 81 127 11 146c0 32 8 64 24 89
c42 2 81 16 109 33z" />
    <glyph glyph-name="quotedblbase" unicode="&#x201e;" horiz-adv-x="421" 
d="M134 149c33 -16 38 -58 23 -120c-15 -63 -48 -127 -106 -172c-25 2 -41 13 -50 30c75 72 72 127 1 139c0 32 8 65 23 90c42 2 81 16 109 33zM321 149c27 -14 38 -50 26 -109c-12 -66 -49 -134 -120 -189c-24 2 -40 13 -49 30c71 69 80 126 10 145c0 32 9 65 24 90
c42 2 82 16 109 33z" />
    <glyph glyph-name="dagger" unicode="&#x2020;" horiz-adv-x="479" 
d="M329 458h147c-2 -33 -14 -71 -32 -97c-44 12 -81 19 -133 22c-48 -207 -91 -417 -127 -633c-24 1 -43 6 -58 22c37 198 68 403 94 609c-58 -4 -101 -10 -150 -19c0 39 7 69 21 96h138c7 61 14 123 20 184c42 4 69 13 99 32c25 -13 28 -28 20 -59
c-13 -52 -26 -105 -39 -157z" />
    <glyph glyph-name="daggerdbl" unicode="&#x2021;" horiz-adv-x="470" 
d="M305 383l-6 -25c-16 -72 -15 -102 -4 -133c-19 -22 -29 -51 -41 -124l-3 -25c60 5 104 11 155 20c0 -39 -7 -69 -21 -96h-143c-4 -47 -9 -105 -15 -185c-42 -3 -69 -13 -100 -32c-24 13 -28 28 -19 60c19 66 34 117 45 157h-153c2 33 14 71 32 97c46 -13 84 -19 140 -22
l6 28c15 69 14 99 3 129c20 23 30 53 42 129l3 21c-61 -5 -105 -11 -156 -20c0 39 7 69 21 96h143c4 47 9 105 15 184c42 4 69 13 99 32c25 -13 29 -28 20 -59c-19 -66 -34 -117 -44 -157h152c-2 -33 -14 -71 -32 -97c-46 13 -84 19 -139 22z" />
    <glyph glyph-name="bullet" unicode="&#x2022;" horiz-adv-x="339" 
d="M190 402c87 0 137 -66 121 -149c-13 -69 -66 -115 -138 -115c-95 0 -145 71 -128 159c13 64 68 105 145 105z" />
    <glyph glyph-name="ellipsis" unicode="&#x2026;" horiz-adv-x="841" 
d="M99 155c46 0 86 -35 74 -95c-8 -42 -35 -69 -84 -69c-57 0 -91 36 -79 97c8 42 39 67 89 67zM398 155c45 0 86 -35 74 -95c-8 -42 -35 -69 -84 -69c-57 0 -91 36 -79 97c8 42 39 67 89 67zM697 155c45 0 86 -35 74 -95c-8 -42 -35 -69 -84 -69c-57 0 -91 36 -79 97
c8 42 39 67 89 67z" />
    <glyph glyph-name="perthousand" unicode="&#x2030;" horiz-adv-x="1044" 
d="M101 46l514 639c25 -11 42 -31 47 -56c-203 -244 -315 -383 -515 -638c-22 9 -43 32 -46 55zM253 677c98 0 150 -72 128 -181c-19 -82 -83 -137 -159 -137c-103 0 -158 73 -135 183c17 81 84 135 166 135zM242 616c-32 0 -58 -29 -66 -72c-14 -74 7 -124 52 -124
c29 0 55 29 63 73c14 74 -5 123 -49 123zM535 309c99 0 150 -72 128 -181c-18 -82 -82 -137 -159 -137c-103 0 -158 73 -135 183c17 81 84 135 166 135zM873 309c98 0 150 -72 127 -181c-18 -82 -82 -137 -158 -137c-103 0 -158 73 -136 183c18 81 85 135 167 135zM524 248
c-31 0 -57 -29 -66 -72c-14 -74 7 -124 52 -124c29 0 55 29 63 73c15 74 -5 123 -49 123zM861 248c-31 0 -57 -29 -65 -72c-14 -74 7 -124 51 -124c30 0 56 29 64 73c14 74 -5 123 -50 123z" />
    <glyph glyph-name="minute" unicode="&#x2032;" horiz-adv-x="237" 
d="M264 663c-27 -62 -68 -132 -110 -223c-21 0 -39 4 -56 13c27 81 50 165 64 237c34 3 70 14 93 26c18 -5 22 -24 9 -53z" />
    <glyph glyph-name="second" unicode="&#x2033;" horiz-adv-x="425" 
d="M255 716c18 -5 22 -24 9 -53c-27 -62 -68 -132 -110 -223c-21 0 -39 4 -56 13c27 81 50 165 64 237c34 3 70 14 93 26zM443 716c17 -5 22 -24 9 -53c-27 -62 -68 -132 -110 -223c-22 0 -39 4 -56 13c27 81 50 165 64 237c34 3 70 14 93 26z" />
    <glyph glyph-name="guilsinglleft" unicode="&#x2039;" horiz-adv-x="270" 
d="M201 415c-48 -47 -93 -84 -147 -127c-13 -15 -22 -42 -23 -67c41 -43 88 -98 127 -151c20 10 34 24 46 44c-19 37 -47 102 -60 144c28 39 79 98 111 133c-10 13 -32 25 -54 24z" />
    <glyph glyph-name="guilsinglright" unicode="&#x203a;" horiz-adv-x="280" 
d="M133 414c29 -39 71 -84 113 -124c7 -21 7 -47 0 -68c-62 -48 -124 -102 -181 -153c-18 13 -29 29 -35 51c39 35 86 83 116 119c-16 47 -44 108 -71 157c20 14 38 19 58 18z" />
    <glyph glyph-name="uni203D" unicode="&#x203d;" horiz-adv-x="618" 
d="M411 716c148 0 221 -72 204 -169c-24 -141 -207 -165 -247 -311c-27 -2 -56 0 -76 10c15 128 6 235 8 323c37 5 84 20 110 37c23 -9 29 -26 22 -60c-15 -71 -68 -130 -93 -249c38 125 121 152 135 256c12 70 -24 102 -86 102c-58 0 -108 -27 -141 -132
c-33 0 -53 5 -73 17c16 52 22 85 25 132c49 27 143 44 212 44zM306 155c46 0 86 -36 75 -96c-9 -42 -36 -68 -84 -68c-58 0 -92 36 -79 97c7 41 39 67 88 67z" />
    <glyph glyph-name="fraction" unicode="&#x2044;" horiz-adv-x="467" 
d="M-36 46l540 671c25 -12 42 -31 47 -56c-203 -245 -341 -415 -540 -670c-23 9 -44 32 -47 55z" />
    <glyph glyph-name="Euro" unicode="&#x20ac;" horiz-adv-x="685" 
d="M514 685c82 0 150 -16 215 -56c-16 -46 -26 -96 -33 -153c-21 -8 -50 -10 -76 -5c15 125 -29 153 -102 153c-109 0 -184 -89 -219 -204h227c0 -26 -6 -52 -20 -72h-224c0 -3 -1 -5 -1 -7c-3 -21 -5 -42 -5 -62h232c1 -25 -6 -52 -19 -72h-206c18 -82 71 -137 169 -137
c56 0 114 16 172 47c13 -14 19 -33 21 -55c-71 -48 -147 -71 -236 -71c-160 0 -259 85 -286 214l-74 -1c-5 26 -1 54 11 75h56c0 22 2 44 6 67l-62 -1c-2 27 4 55 19 75h60c59 181 223 265 375 265z" />
    <glyph glyph-name="uni2113" unicode="&#x2113;" horiz-adv-x="378" 
d="M356 570c-19 -94 -78 -175 -152 -237c-34 -221 -10 -248 33 -248c16 0 30 5 49 21c12 -12 23 -33 26 -50c-43 -46 -92 -65 -144 -65c-113 0 -161 93 -109 373c43 238 116 346 215 346c57 0 104 -32 82 -140zM290 647c-12 0 -35 -23 -71 -224c48 45 67 88 79 140
c13 60 4 84 -8 84z" />
    <glyph glyph-name="trademark" unicode="&#x2122;" horiz-adv-x="1004" 
d="M955 607l-12 -133c-5 -48 -1 -55 27 -58c3 -18 4 -38 4 -58c-12 1 -82 2 -109 2s-71 -2 -83 -3c1 22 3 42 7 59c29 4 35 10 38 52l12 134l-142 -242c-10 -4 -30 -5 -43 -5l-61 248l-32 -108c-19 -65 -14 -77 14 -79c4 -18 5 -37 5 -58c-9 1 -34 2 -58 2
c-23 0 -58 -1 -68 -2c0 19 2 40 7 58c27 2 40 13 58 76l33 115c10 34 7 46 -22 47c-4 18 -5 35 -5 60c28 -1 62 -2 80 -2c17 0 63 0 88 1l44 -204l118 204c19 -1 47 -1 70 -1s60 0 79 1c1 -20 -1 -40 -6 -59c-30 -1 -40 -11 -43 -47zM492 713c-6 -30 -8 -73 -6 -106
c-18 -7 -37 -10 -62 -8c-1 50 -11 70 -45 70h-4l-35 -187c-11 -51 -2 -64 42 -66c3 -18 4 -38 4 -58c-18 1 -61 2 -110 2c-48 0 -108 -1 -131 -2c0 20 1 40 7 58c48 2 62 14 73 66l35 187c-34 0 -57 -21 -73 -70c-21 -2 -44 0 -59 8c13 33 23 70 30 106c46 -2 78 -1 168 -1
c79 0 119 0 166 1z" />
    <glyph glyph-name="Ohm" unicode="&#x2126;" horiz-adv-x="770" 
d="M746 371c-22 -112 -110 -188 -215 -242h71c39 0 58 16 76 60c22 -5 50 -16 63 -29c-15 -46 -29 -99 -34 -141c-9 -14 -22 -21 -44 -21c-40 1 -130 2 -253 2c-11 18 -15 46 -11 72c127 112 166 190 186 294c35 178 -38 256 -128 256s-197 -83 -231 -263
c-21 -107 -12 -167 71 -287c-4 -24 -14 -53 -27 -72c-146 0 -203 -1 -238 -2c-27 0 -38 17 -40 42c7 31 14 85 14 137c16 3 44 6 67 2c6 -44 16 -50 55 -50h75c-90 54 -156 137 -129 271c33 167 196 285 386 285c199 0 321 -134 286 -314z" />
    <glyph glyph-name="estimated" unicode="&#x212e;" horiz-adv-x="601" 
d="M161 296h433c-4 97 -32 171 -85 221c-53 49 -117 74 -192 74c-82 0 -148 -28 -199 -83c-52 -56 -77 -126 -77 -212s25 -156 76 -212s118 -84 200 -84c43 0 84 9 123 27s80 57 121 117l-37 23c-49 -86 -118 -129 -207 -129c-62 0 -114 21 -156 64v194zM161 334v155
c43 42 94 64 155 64c60 0 113 -21 157 -64v-155h-312z" />
    <glyph glyph-name="arrowleft" unicode="&#x2190;" horiz-adv-x="592" 
d="M574 314c-3 -39 -10 -67 -21 -86h-332c9 -27 20 -55 32 -77c20 -42 7 -62 -30 -74c-48 58 -119 123 -174 160c-8 18 -8 50 -2 68c71 34 139 81 200 131c22 18 55 16 70 -3c-31 -38 -63 -85 -88 -126c93 1 254 4 345 7z" />
    <glyph glyph-name="arrowright" unicode="&#x2192;" horiz-adv-x="592" 
d="M560 305c8 -18 7 -50 2 -68c-71 -34 -139 -81 -200 -131c-23 -18 -55 -17 -71 3c31 38 64 85 89 126c-93 -1 -255 -4 -346 -7c3 39 10 67 22 86h331c-9 27 -19 55 -31 77c-20 42 -7 62 29 73c48 -57 119 -122 175 -159z" />
    <glyph glyph-name="partialdiff" unicode="&#x2202;" horiz-adv-x="509" 
d="M208 729c235 -101 321 -235 280 -444c-35 -181 -183 -294 -309 -294c-135 0 -175 104 -151 228c27 136 123 248 288 248c15 0 29 -1 42 -3c-10 96 -64 155 -188 220c7 20 19 36 38 45zM230 73c40 0 85 60 114 210c8 41 13 78 15 110c-17 7 -40 10 -58 10
c-64 0 -98 -62 -116 -146c-21 -104 -4 -184 45 -184z" />
    <glyph glyph-name="increment" unicode="&#x2206;" horiz-adv-x="655" 
d="M441 685l170 -627c-6 -21 -15 -41 -30 -58h-593c-7 17 -13 37 -12 58l406 619c20 6 40 8 59 8zM334 498c-24 -41 -48 -79 -75 -120l-208 -317h392l-84 327c-9 38 -19 73 -25 110z" />
    <glyph glyph-name="product" unicode="&#x220f;" horiz-adv-x="908" 
d="M740 517v-457c0 -81 13 -97 67 -101c4 -14 7 -40 7 -62c-35 2 -87 3 -143 3c-55 0 -117 -1 -158 -3c0 21 3 47 7 62c54 4 67 20 67 101v457c0 51 -5 78 -26 90c-13 7 -34 10 -96 10s-83 -3 -95 -10c-21 -12 -26 -39 -26 -90v-457c0 -81 14 -97 67 -101c5 -14 7 -40 7 -62
c-35 2 -87 3 -142 3c-56 0 -118 -1 -159 -3c0 21 3 47 8 62c53 4 66 20 66 101v457c0 80 -12 94 -67 100c-4 16 -7 40 -7 62c35 -2 107 -3 271 -3h160c164 0 226 1 266 3c0 -23 -1 -43 -8 -62c-54 -5 -66 -20 -66 -100z" />
    <glyph glyph-name="summation" unicode="&#x2211;" horiz-adv-x="736" 
d="M608 142c30 -4 58 -15 77 -29c-15 -53 -28 -138 -32 -215c-93 2 -176 2 -284 2c-107 0 -200 0 -270 -2c-12 17 -17 37 -17 58c75 95 151 189 231 282c-77 125 -150 255 -219 386c0 21 6 41 16 54c66 -2 145 -2 267 -2c131 0 210 1 270 3c1 -49 9 -123 23 -175
c-21 -9 -47 -14 -76 -15c-14 84 -50 128 -148 128h-169c52 -100 108 -195 167 -287c3 -15 1 -34 -3 -49c-73 -82 -144 -166 -212 -252h230c92 0 125 31 149 113z" />
    <glyph glyph-name="minus" unicode="&#x2212;" horiz-adv-x="523" 
d="M57 307h447c-1 -26 -8 -52 -22 -71c-140 0 -284 0 -446 -4c0 27 7 55 21 75z" />
    <glyph glyph-name="divisionslash" unicode="&#x2215;" horiz-adv-x="296" 
d="M-31 27l346 690c28 -4 46 -12 62 -30c-136 -261 -220 -427 -346 -696c-28 4 -48 15 -62 36z" />
    <glyph glyph-name="bulletoperator" unicode="&#x2219;" horiz-adv-x="318" 
d="M147 376c55 0 103 -43 89 -115c-10 -50 -42 -82 -101 -82c-68 0 -109 43 -94 116c9 50 47 81 106 81z" />
    <glyph glyph-name="radical" unicode="&#x221a;" horiz-adv-x="565" 
d="M491 746h213c0 -21 -5 -45 -13 -61h-149l-194 -685c-19 -4 -40 -5 -60 -5l-160 332h-73c0 20 4 46 11 62h194l81 -185z" />
    <glyph glyph-name="infinity" unicode="&#x221e;" horiz-adv-x="917" 
d="M696 481c104 0 190 -76 190 -217c0 -136 -80 -213 -207 -213c-108 0 -174 57 -234 132c-74 -91 -134 -132 -209 -132c-105 0 -191 77 -191 216c0 127 72 214 201 214c115 0 183 -71 238 -141c78 100 136 141 212 141zM705 141c63 0 106 43 106 132s-43 146 -115 146
c-59 0 -105 -38 -174 -131c76 -101 120 -147 183 -147zM236 113c55 0 103 34 170 120c-73 98 -116 158 -184 158c-60 0 -103 -45 -103 -133c0 -90 45 -145 117 -145z" />
    <glyph glyph-name="integral" unicode="&#x222b;" horiz-adv-x="538" 
d="M423 814c51 0 95 -9 115 -21c-13 -36 -25 -98 -26 -136c-14 -7 -50 -11 -74 -11c-2 63 -10 106 -43 106c-47 0 -46 -82 -50 -447c-4 -430 -40 -553 -230 -553c-51 0 -95 9 -115 21c13 36 25 98 26 136c14 7 50 11 75 11c2 -63 9 -106 42 -106c48 0 47 83 50 448
c5 429 40 552 230 552z" />
    <glyph glyph-name="approxequal" unicode="&#x2248;" horiz-adv-x="581" 
d="M222 448c82 0 137 -72 208 -72c35 0 68 15 107 58c20 -7 37 -24 42 -44c-57 -76 -108 -107 -158 -107c-84 0 -132 76 -208 76c-40 0 -82 -22 -124 -72c-21 8 -34 23 -38 46c69 91 126 115 171 115zM187 266c82 0 137 -72 208 -72c35 0 68 15 107 58c20 -7 37 -24 41 -44
c-56 -77 -108 -108 -157 -108c-85 0 -132 76 -208 76c-41 0 -82 -21 -125 -71c-20 8 -34 23 -37 46c69 90 126 115 171 115z" />
    <glyph glyph-name="notequal" unicode="&#x2260;" horiz-adv-x="527" 
d="M495 306h-191c-18 -35 -35 -69 -52 -103h236c-1 -26 -8 -52 -22 -72c-81 0 -163 0 -249 -1c-25 -51 -51 -105 -79 -166c-22 4 -38 12 -49 29l68 137l-138 -2c0 27 7 54 21 75h154l51 102c-63 0 -128 -1 -196 -2c0 27 7 54 21 75h211l84 167c23 -3 37 -10 50 -24l-74 -143
h176c-1 -26 -8 -52 -22 -72z" />
    <glyph glyph-name="lessequal" unicode="&#x2264;" horiz-adv-x="483" 
d="M124 312l314 -149c7 -23 3 -53 -9 -74c-136 76 -262 133 -402 196c-2 21 5 47 21 68l421 183c28 -7 46 -28 53 -52zM-26 -2c0 26 3 52 12 71h440c0 -26 -3 -49 -12 -70c-80 1 -120 1 -207 1c-88 0 -141 -1 -233 -2z" />
    <glyph glyph-name="greaterequal" unicode="&#x2265;" horiz-adv-x="487" 
d="M130 538l351 -195c7 -20 6 -47 0 -72c-162 -53 -310 -111 -472 -177c-8 26 -3 57 12 79l371 140l-330 182c16 24 38 36 68 43zM-14 -2c0 26 3 52 12 71h440c0 -26 -3 -49 -12 -70c-80 1 -120 1 -207 1c-88 0 -140 -1 -233 -2z" />
    <glyph glyph-name="lozenge" unicode="&#x25ca;" horiz-adv-x="534" 
d="M38 259l235 310l234 -310l-234 -310zM430 259l-157 208l-158 -208l158 -208z" />
    <glyph glyph-name="uni2799" unicode="&#x2799;" horiz-adv-x="592" 
d="M560 305c8 -18 7 -50 2 -68c-71 -34 -139 -81 -200 -131c-23 -18 -55 -17 -71 3c31 38 64 85 89 126c-93 -1 -255 -4 -346 -7c3 39 10 67 22 86h331c-9 27 -19 55 -31 77c-20 42 -7 62 29 73c48 -57 119 -122 175 -159z" />
    <glyph glyph-name="uni2E18" unicode="&#x2e18;" horiz-adv-x="618" 
d="M311 303c-45 0 -85 35 -74 95c8 42 36 69 84 69c57 0 92 -36 79 -97c-8 -42 -39 -67 -89 -67zM206 -258c-147 0 -220 71 -203 168c24 142 207 166 247 311c27 3 55 0 76 -10c-15 -127 -7 -234 -9 -323c-36 -5 -83 -20 -110 -36c-22 9 -29 26 -22 60c16 71 69 129 94 248
c-38 -125 -121 -151 -136 -255c-11 -71 24 -102 87 -102c58 0 108 26 140 132c34 0 54 -5 74 -18c-16 -52 -23 -84 -26 -131c-49 -28 -143 -44 -212 -44z" />
    <glyph glyph-name="J.ss01" horiz-adv-x="508" 
d="M562 679c-1 -24 -5 -45 -10 -62c-54 -7 -66 -19 -82 -110l-52 -304c-24 -134 -116 -212 -264 -212c-73 0 -124 19 -165 52c16 42 26 95 31 142c28 7 60 8 89 2c-7 -82 11 -129 64 -129c43 0 70 29 88 124l58 336c13 73 3 92 -65 99c-6 19 -5 40 -2 62
c49 -3 100 -3 155 -3c63 0 110 1 155 3z" />
    <glyph glyph-name="Jcircumflex.ss01" horiz-adv-x="508" 
d="M426 931c21 3 44 0 64 -7c33 -49 71 -96 119 -150c-12 -16 -36 -27 -62 -30c-37 30 -79 58 -119 79c-47 -23 -104 -58 -142 -86c-22 13 -35 40 -35 59c60 38 127 89 175 135zM562 679c-1 -24 -5 -45 -10 -62c-54 -7 -66 -19 -82 -110l-52 -304
c-24 -134 -116 -212 -264 -212c-73 0 -124 19 -165 52c16 42 26 95 31 142c28 7 60 8 89 2c-7 -82 11 -129 64 -129c43 0 70 29 88 124l58 336c13 73 3 92 -65 99c-6 19 -5 40 -2 62c49 -3 100 -3 155 -3c63 0 110 1 155 3z" />
    <glyph glyph-name="Q.ss01" 
d="M1080 -108c14 -11 27 -32 31 -51c-43 -46 -115 -83 -224 -83c-265 0 -270 214 -542 233h-2c-212 0 -327 153 -285 371c37 195 191 323 382 323c205 0 331 -139 287 -368c-27 -141 -117 -254 -244 -301c202 -32 302 -150 490 -150c54 0 83 9 107 26zM218 367
c-33 -173 11 -313 138 -313c107 0 184 112 213 273c31 169 -29 297 -143 297c-100 0 -179 -107 -208 -257z" />
    <glyph glyph-name="uni1E9E.ss01" horiz-adv-x="710" 
d="M688 679c10 -15 17 -43 15 -68c-43 -64 -105 -145 -168 -217c107 -24 161 -97 140 -217c-20 -113 -104 -186 -253 -186c-76 0 -122 21 -159 57c14 42 25 97 28 136c23 9 55 10 83 3c-9 -100 5 -128 50 -128s79 45 89 102c19 110 -33 169 -141 185c-11 17 -16 41 -14 64
c55 57 117 133 169 207c-34 1 -62 2 -97 2c-76 0 -129 -45 -156 -202l-52 -294c-32 -186 -79 -288 -292 -370c-19 14 -24 37 -25 63c81 48 130 107 153 241l64 367c37 208 163 255 318 255c50 0 99 -3 140 -3c36 0 71 0 108 3z" />
    <glyph glyph-name="i.loclTRK" horiz-adv-x="302" 
d="M223 671c46 0 76 -32 66 -82c-8 -45 -42 -71 -98 -71c-48 0 -74 31 -67 79c8 47 45 74 99 74zM219 467c35 -16 47 -46 32 -114l-45 -189c-15 -67 -13 -79 4 -79c10 0 24 6 41 21c12 -11 23 -32 26 -51c-42 -43 -92 -64 -141 -64c-94 0 -104 66 -81 165l29 114
c21 84 18 97 -47 97c0 20 3 42 10 59c60 3 125 20 172 41z" />
    <glyph glyph-name="f.calt" horiz-adv-x="361" 
d="M428 558c-16 -9 -48 -12 -76 -10c2 82 -5 103 -30 103s-37 -24 -53 -171l-4 -32h105c1 -22 -2 -47 -8 -63c-37 0 -73 -4 -105 -12c-8 -62 -17 -128 -32 -222c-36 -221 -134 -399 -275 -399c-37 0 -72 14 -101 43c-1 27 6 61 16 85c32 -14 69 -20 109 -20
c56 0 74 18 95 186c10 83 22 196 43 330c-28 7 -55 11 -77 11c0 21 4 45 13 61h75l1 6c33 188 101 260 216 260c48 0 85 -6 110 -18c-13 -36 -21 -100 -22 -138z" />
    <glyph glyph-name="longs.calt" horiz-adv-x="323" 
d="M340 714c48 0 85 -6 110 -18c-13 -36 -21 -100 -22 -138c-16 -9 -48 -12 -76 -10c2 82 -5 103 -30 103s-37 -24 -53 -171c-11 -102 -21 -182 -44 -329c-36 -221 -134 -399 -275 -399c-37 0 -72 14 -101 43c-1 27 6 61 16 85c32 -14 69 -20 109 -20c56 0 74 18 95 186
c10 83 22 196 43 330c-28 7 -55 11 -77 11c0 21 4 45 13 61h75l1 6c33 188 101 260 216 260z" />
    <glyph glyph-name="g.ss01" horiz-adv-x="527" 
d="M483 467c21 -14 26 -32 19 -73l-69 -393c-31 -176 -133 -251 -288 -251c-65 0 -124 11 -158 29c14 36 24 97 25 135c14 7 51 11 76 11c2 -78 22 -113 73 -113c60 0 97 46 116 147l10 54c7 44 21 95 45 159l7 19h-3c-43 -122 -115 -200 -203 -200
c-108 0 -128 108 -105 228c28 139 124 248 288 248c34 0 65 -5 89 -14c35 3 59 8 78 14zM211 101c34 0 103 70 138 235l13 56c-17 7 -42 11 -60 11c-66 0 -99 -61 -117 -146c-21 -103 -10 -156 26 -156z" />
    <glyph glyph-name="gbreve.ss01" horiz-adv-x="527" 
d="M321 521c-122 0 -175 62 -153 176c24 10 54 14 79 12c-3 -57 37 -91 105 -91c67 0 116 34 131 91c26 3 49 0 64 -7c-23 -117 -103 -181 -226 -181zM483 467c21 -14 26 -32 19 -73l-69 -393c-31 -176 -133 -251 -288 -251c-65 0 -124 11 -158 29c14 36 24 97 25 135
c14 7 51 11 76 11c2 -78 22 -113 73 -113c60 0 97 46 116 147l10 54c7 44 21 95 45 159l7 19h-3c-43 -122 -115 -200 -203 -200c-108 0 -128 108 -105 228c28 139 124 248 288 248c34 0 65 -5 89 -14c35 3 59 8 78 14zM211 101c34 0 103 70 138 235l13 56
c-17 7 -42 11 -60 11c-66 0 -99 -61 -117 -146c-21 -103 -10 -156 26 -156z" />
    <glyph glyph-name="gcircumflex.ss01" horiz-adv-x="527" 
d="M393 706c33 -49 71 -96 119 -150c-12 -16 -36 -27 -62 -30c-37 30 -79 58 -119 79c-47 -23 -104 -58 -142 -86c-22 13 -35 40 -35 59c60 38 127 89 175 135c21 3 44 0 64 -7zM483 467c21 -14 26 -32 19 -73l-69 -393c-31 -176 -133 -251 -288 -251c-65 0 -124 11 -158 29
c14 36 24 97 25 135c14 7 51 11 76 11c2 -78 22 -113 73 -113c60 0 97 46 116 147l10 54c7 44 21 95 45 159l7 19h-3c-43 -122 -115 -200 -203 -200c-108 0 -128 108 -105 228c28 139 124 248 288 248c34 0 65 -5 89 -14c35 3 59 8 78 14zM211 101c34 0 103 70 138 235
l13 56c-17 7 -42 11 -60 11c-66 0 -99 -61 -117 -146c-21 -103 -10 -156 26 -156z" />
    <glyph glyph-name="gcommaaccent.ss01" horiz-adv-x="527" 
d="M282 506c-32 10 -39 39 -32 74c12 59 68 112 139 152c20 -4 34 -15 42 -31c-34 -22 -56 -45 -59 -60s7 -26 45 -29c-1 -27 -9 -53 -25 -75c-43 -3 -81 -14 -110 -31zM483 467c21 -14 26 -32 19 -73l-69 -393c-31 -176 -133 -251 -288 -251c-65 0 -124 11 -158 29
c14 36 24 97 25 135c14 7 51 11 76 11c2 -78 22 -113 73 -113c60 0 97 46 116 147l10 54c7 44 21 95 45 159l7 19h-3c-43 -122 -115 -200 -203 -200c-108 0 -128 108 -105 228c28 139 124 248 288 248c34 0 65 -5 89 -14c35 3 59 8 78 14zM211 101c34 0 103 70 138 235
l13 56c-17 7 -42 11 -60 11c-66 0 -99 -61 -117 -146c-21 -103 -10 -156 26 -156z" />
    <glyph glyph-name="gdotaccent.ss01" horiz-adv-x="527" 
d="M321 518c-48 0 -74 31 -67 79c8 47 45 74 99 74c46 0 76 -32 66 -82c-8 -45 -42 -71 -98 -71zM483 467c21 -14 26 -32 19 -73l-69 -393c-31 -176 -133 -251 -288 -251c-65 0 -124 11 -158 29c14 36 24 97 25 135c14 7 51 11 76 11c2 -78 22 -113 73 -113
c60 0 97 46 116 147l10 54c7 44 21 95 45 159l7 19h-3c-43 -122 -115 -200 -203 -200c-108 0 -128 108 -105 228c28 139 124 248 288 248c34 0 65 -5 89 -14c35 3 59 8 78 14zM211 101c34 0 103 70 138 235l13 56c-17 7 -42 11 -60 11c-66 0 -99 -61 -117 -146
c-21 -103 -10 -156 26 -156z" />
    <glyph glyph-name="x.ss01" horiz-adv-x="523" 
d="M512 399c-11 -61 -67 -126 -183 -199c13 -30 26 -57 37 -76c17 -30 30 -36 47 -36c14 0 26 5 41 17c14 -14 21 -31 25 -50c-31 -34 -77 -64 -140 -64c-43 0 -66 14 -88 46c-18 26 -39 68 -58 112c-57 -44 -78 -77 -82 -107c-4 -28 12 -45 45 -47c6 -20 6 -42 4 -61
c-49 -5 -123 -23 -166 -41c-27 10 -34 33 -28 68c11 67 62 142 205 239c-19 48 -35 91 -42 113c-16 44 -25 56 -84 54c-2 22 2 42 8 59c44 3 120 24 152 41c29 -7 34 -18 47 -59c15 -44 35 -101 56 -155c40 27 57 50 61 72c4 23 -9 39 -46 42c-2 20 2 41 8 58
c42 6 109 24 152 42c26 -8 35 -36 29 -68z" />
    <glyph glyph-name="z.ss01" horiz-adv-x="432" 
d="M394 -19c25 -9 47 -28 59 -48c-32 -25 -65 -69 -83 -103c-10 -8 -24 -12 -40 -12c-123 0 -201 177 -300 177c-9 0 -18 -1 -27 -4c-11 17 -17 42 -14 63c128 101 227 195 291 280c-20 6 -39 8 -60 8c-54 0 -73 -11 -102 -65c-27 0 -59 9 -75 24c27 50 44 101 52 157
c37 5 92 8 161 8c63 0 108 -3 149 -8c11 -15 18 -37 19 -56c-72 -105 -171 -216 -301 -322c71 4 153 -120 224 -120c19 0 33 10 47 21z" />
    <glyph glyph-name="zacute.ss01" horiz-adv-x="432" 
d="M435 704c-59 -56 -116 -121 -158 -180c-24 2 -49 11 -68 24c39 62 73 130 87 170c54 9 109 4 139 -14zM394 -19c25 -9 47 -28 59 -48c-32 -25 -65 -69 -83 -103c-10 -8 -24 -12 -40 -12c-123 0 -201 177 -300 177c-9 0 -18 -1 -27 -4c-11 17 -17 42 -14 63
c128 101 227 195 291 280c-20 6 -39 8 -60 8c-54 0 -73 -11 -102 -65c-27 0 -59 9 -75 24c27 50 44 101 52 157c37 5 92 8 161 8c63 0 108 -3 149 -8c11 -15 18 -37 19 -56c-72 -105 -171 -216 -301 -322c71 4 153 -120 224 -120c19 0 33 10 47 21z" />
    <glyph glyph-name="zcaron.ss01" horiz-adv-x="432" 
d="M302 524c-19 -9 -43 -11 -65 -8c-35 51 -79 106 -123 153c9 24 26 39 55 44c37 -31 83 -63 125 -85c51 22 103 52 141 81c19 -6 34 -23 41 -42c-58 -41 -124 -93 -174 -143zM394 -19c25 -9 47 -28 59 -48c-32 -25 -65 -69 -83 -103c-10 -8 -24 -12 -40 -12
c-123 0 -201 177 -300 177c-9 0 -18 -1 -27 -4c-11 17 -17 42 -14 63c128 101 227 195 291 280c-20 6 -39 8 -60 8c-54 0 -73 -11 -102 -65c-27 0 -59 9 -75 24c27 50 44 101 52 157c37 5 92 8 161 8c63 0 108 -3 149 -8c11 -15 18 -37 19 -56c-72 -105 -171 -216 -301 -322
c71 4 153 -120 224 -120c19 0 33 10 47 21z" />
    <glyph glyph-name="zdotaccent.ss01" horiz-adv-x="432" 
d="M271 518c-48 0 -74 31 -67 79c8 47 45 74 99 74c46 0 76 -32 66 -82c-8 -45 -42 -71 -98 -71zM394 -19c25 -9 47 -28 59 -48c-32 -25 -65 -69 -83 -103c-10 -8 -24 -12 -40 -12c-123 0 -201 177 -300 177c-9 0 -18 -1 -27 -4c-11 17 -17 42 -14 63
c128 101 227 195 291 280c-20 6 -39 8 -60 8c-54 0 -73 -11 -102 -65c-27 0 -59 9 -75 24c27 50 44 101 52 157c37 5 92 8 161 8c63 0 108 -3 149 -8c11 -15 18 -37 19 -56c-72 -105 -171 -216 -301 -322c71 4 153 -120 224 -120c19 0 33 10 47 21z" />
    <glyph glyph-name="f_b" horiz-adv-x="875" 
d="M741 467c109 0 129 -108 105 -228c-28 -138 -122 -246 -283 -248h-3h-2h-15c-87 4 -149 28 -192 72c18 28 36 79 49 154l54 305c15 80 9 131 -55 131c-59 0 -95 -41 -124 -205h95c0 -24 -2 -49 -8 -63c-37 0 -69 -4 -101 -11c-16 -93 -28 -169 -37 -229
c-35 -215 -133 -393 -274 -393c-37 0 -72 14 -101 43c-1 27 6 61 16 85c32 -14 69 -20 109 -20c56 0 74 18 95 186c10 84 22 195 43 330c-29 8 -55 11 -77 11c0 22 4 46 13 61h75c36 178 135 266 298 266c54 0 92 -7 124 -23c20 4 37 10 53 19c23 -16 32 -33 23 -77
l-29 -165c-10 -56 -24 -102 -44 -154h9c44 95 108 153 184 153zM689 201c22 103 11 156 -26 156c-34 0 -102 -70 -137 -235l-13 -56c17 -7 42 -11 60 -11c65 0 98 61 116 146z" />
    <glyph glyph-name="f_h" horiz-adv-x="925" 
d="M874 106c12 -12 23 -33 26 -51c-44 -44 -93 -64 -141 -64c-101 0 -102 70 -79 172l21 89c16 69 8 101 -19 101c-44 0 -121 -89 -155 -254l-17 -99h-148l92 522c14 80 9 131 -55 131c-59 0 -95 -41 -124 -205h95c0 -24 -2 -49 -8 -63c-37 0 -69 -4 -101 -11
c-16 -93 -28 -169 -37 -229c-35 -215 -133 -393 -274 -393c-37 0 -72 14 -101 43c-1 27 6 61 16 85c32 -14 69 -20 109 -20c56 0 74 18 95 186c10 84 22 195 43 330c-29 8 -55 11 -77 11c0 22 4 46 13 61h75c36 178 135 266 298 266c54 0 92 -7 124 -23c20 4 37 10 53 19
c23 -16 31 -33 23 -77c-39 -219 -51 -278 -81 -369v-3l24 50c38 79 122 156 205 156c67 0 121 -49 86 -196l-23 -101c-19 -80 -16 -86 -1 -86c11 0 27 8 43 22z" />
    <glyph glyph-name="f_j" horiz-adv-x="608" 
d="M583 369l-50 -267c-37 -199 -115 -286 -286 -349c-15 13 -23 32 -24 58c81 50 133 123 154 241l42 234c13 72 8 99 -63 99c-40 0 -61 -3 -95 -11c-16 -93 -28 -169 -37 -229c-35 -215 -133 -393 -274 -393c-37 0 -72 14 -101 43c-1 27 6 61 16 85c32 -14 69 -20 109 -20
c56 0 74 18 95 186c10 84 22 195 43 330c-29 8 -55 11 -77 11c0 22 4 46 13 61h75c37 183 138 266 300 266c83 0 145 -11 188 -32c-15 -42 -23 -89 -24 -125c-25 -13 -82 -16 -111 -11c-2 67 -26 108 -73 108c-67 0 -94 -43 -128 -206h62c138 0 177 5 209 19
c35 -17 46 -47 37 -98z" />
    <glyph glyph-name="f_k" horiz-adv-x="872" 
d="M855 357c-12 -70 -74 -111 -176 -147c18 -22 30 -42 50 -79c17 -32 27 -42 45 -42c12 0 22 5 36 17c12 -11 24 -32 26 -51c-38 -39 -84 -64 -136 -64c-62 0 -86 33 -110 88c-15 37 -28 63 -47 93l-2 -11l-30 -161h-148l92 522c13 79 8 131 -56 131
c-59 0 -95 -41 -124 -205h95c0 -24 -2 -49 -8 -63c-37 0 -69 -4 -101 -11c-16 -93 -28 -169 -37 -229c-35 -215 -133 -393 -274 -393c-37 0 -72 14 -101 43c-1 27 6 61 16 85c32 -14 69 -20 109 -20c56 0 74 18 95 186c10 84 22 195 43 330c-29 8 -55 11 -77 11
c0 22 4 46 13 61h75c36 178 135 266 298 266c54 0 92 -7 124 -23c20 4 37 10 53 19c23 -15 32 -29 24 -77c-20 -118 -44 -248 -76 -337h1c40 98 116 171 208 171c71 0 111 -44 100 -110zM711 322c5 30 -9 49 -32 49c-46 0 -95 -68 -123 -154c95 23 147 56 155 105z" />
    <glyph glyph-name="longs_t" horiz-adv-x="682" 
d="M412 678c56 0 95 -10 128 -25c20 4 37 10 52 19c24 -13 29 -30 25 -67c-3 -28 -10 -70 -27 -157h91c0 -24 -2 -49 -9 -63c-36 0 -67 -3 -99 -11l-35 -149c-26 -113 -11 -143 20 -143c18 0 41 13 58 32c12 -13 22 -36 24 -55c-29 -36 -95 -68 -151 -68
c-108 0 -135 82 -102 224l38 164c-19 5 -34 6 -55 7c-1 20 3 47 12 62h59c14 57 18 79 18 105c0 38 -19 64 -68 64c-56 0 -90 -28 -116 -169c-24 -125 -39 -223 -51 -303c-35 -215 -133 -393 -274 -393c-37 0 -72 14 -101 43c-1 27 6 61 16 85c32 -14 69 -20 109 -20
c56 0 74 18 95 186c10 84 22 195 43 330c-29 8 -55 11 -77 11c0 22 4 46 13 61h75c34 167 137 230 289 230z" />
    <glyph glyph-name="longs_b" horiz-adv-x="875" 
d="M741 467c109 0 129 -108 105 -228c-28 -138 -122 -246 -283 -248h-3h-2h-15c-87 4 -149 28 -192 72c18 28 36 79 49 154l54 305c15 80 9 131 -55 131c-59 0 -95 -41 -124 -205c-15 -88 -33 -194 -51 -303c-35 -215 -133 -393 -274 -393c-37 0 -72 14 -101 43
c-1 27 6 61 16 85c32 -14 69 -20 109 -20c56 0 74 18 95 186c10 84 22 195 43 330c-29 8 -55 11 -77 11c0 22 4 46 13 61h75c36 178 135 266 298 266c54 0 92 -7 124 -23c20 4 37 10 53 19c23 -16 32 -33 23 -77l-29 -165c-10 -56 -24 -102 -44 -154h9
c44 95 108 153 184 153zM689 201c22 103 11 156 -26 156c-34 0 -102 -70 -137 -235l-13 -56c17 -7 42 -11 60 -11c65 0 98 61 116 146z" />
    <glyph glyph-name="longs_h" horiz-adv-x="925" 
d="M874 106c12 -12 23 -33 26 -51c-44 -44 -93 -64 -141 -64c-101 0 -102 70 -79 172l21 89c16 69 8 101 -19 101c-44 0 -121 -89 -155 -254l-17 -99h-148l92 522c14 80 9 131 -55 131c-59 0 -95 -41 -124 -205c-15 -84 -33 -194 -51 -303c-35 -215 -133 -393 -274 -393
c-37 0 -72 14 -101 43c-1 27 6 61 16 85c32 -14 69 -20 109 -20c56 0 74 18 95 186c10 84 22 195 43 330c-29 8 -55 11 -77 11c0 22 4 46 13 61h75c36 178 135 266 298 266c54 0 92 -7 124 -23c20 4 37 10 53 19c23 -16 31 -33 23 -77c-39 -219 -51 -278 -81 -369v-3l24 50
c38 79 122 156 205 156c67 0 121 -49 86 -196l-23 -101c-19 -80 -16 -86 -1 -86c11 0 27 8 43 22z" />
    </font>
</defs>
</svg>
