<svg xmlns="http://www.w3.org/2000/svg">
<defs>
<font id="vollkorn" horiz-adv-x="677" >
  <font-face 
    font-family="Vollkorn"
    font-weight="700"
    font-style="italic"
    font-stretch="normal"
    units-per-em="1000"
    panose-1="0 0 8 0 0 0 0 0 0 0"
    ascent="800"
    descent="-200"
    x-height="467"
    cap-height="679"
    bbox="-177 -318 1164 972.891"
    underline-thickness="70"
    underline-position="-285"
    slope="-11"
    stemh="73"
    stemv="195"
    unicode-range="U+0020-FB02"
  />
<missing-glyph horiz-adv-x="453" 
d="M490 677l-132 -677h-352l132 677h352zM170 559c2 0 2 0 2 -1v-11c0 -2 0 -2 -1 -2l-1 -1h3h3v1c-1 0 -2 0 -2 2v13v1c-1 0 -3 -1 -3 -1c-1 0 -1 0 -1 -1zM178 545v-1h3h2v1c-1 0 -1 0 -1 2v13c0 1 -1 1 -1 1s-2 -1 -3 -1v-1c1 0 2 0 2 -1v-11c0 -2 -1 -2 -2 -2zM189 547
v2c2 -1 4 -4 5 -5h3v1c-1 0 -1 0 -3 1l-3 5l2 1c1 2 2 2 3 3h-2h-3s0 -1 1 -1c0 -1 0 -1 -1 -2l-2 -2v10v1c-1 0 -3 -1 -4 -1v-1c2 0 2 0 2 -1v-11c0 -2 -1 -2 -2 -2v-1h3h3l-1 1c-1 0 -1 0 -1 2zM240 560v-1c2 0 2 0 2 -1v-10c0 -2 0 -2 -1 -3c1 -1 3 -1 5 -1c4 0 6 2 6 6
c0 3 -2 5 -4 5s-3 -1 -4 -2v1v6c0 1 0 1 -1 1c0 0 -2 -1 -3 -1zM143 560v-1c1 0 1 0 2 -3c2 -3 4 -8 5 -12h1c2 4 4 8 5 12c1 2 1 3 2 3v1h-2h-2v-1c1 0 1 0 1 -1v-2l-3 -9c-2 4 -3 7 -4 10c-1 0 -1 1 -1 1c0 1 1 1 2 1v1h-3h-3zM163 544c3 0 6 2 6 5c0 4 -2 6 -6 6
c-3 0 -5 -2 -5 -6c0 -3 2 -5 5 -5zM198 549c0 -3 2 -5 6 -5c3 0 5 2 5 5c0 4 -2 6 -5 6c-4 0 -6 -2 -6 -6zM211 545v-1h3h3v1c-1 0 -2 0 -2 2v3c0 2 1 3 2 3s1 0 1 -2h2v3c-1 1 -1 1 -2 1s-2 -1 -3 -1c0 1 0 1 -1 1c0 0 -2 -1 -3 -1v-1c2 0 2 0 2 -1v-5c0 -2 -1 -2 -2 -2z
M221 545v-1h3h3v1c-1 0 -2 0 -2 2v2c0 3 2 5 3 5s2 -1 2 -3v-4c0 -2 0 -2 -1 -2l-1 -1h3h3v1c-1 0 -2 0 -2 2v4c0 3 -1 4 -3 4s-3 -1 -4 -1v1l-4 -1v-1c2 0 2 0 2 -1v-5c0 -2 0 -2 -2 -2zM260 543l4 8c1 2 1 3 2 4h-2h-3v-1c1 0 2 -1 2 -1c0 -1 0 -1 -1 -2l-1 -4v-1

<glyph glyph-name="fi" unicode="fi" horiz-adv-x="711" 
d="M388 365c-39 0 -51 -2 -89 -13c-11 -63 -20 -120 -30 -185c-33 -216 -149 -415 -316 -415c-42 0 -80 14 -110 49c0 31 9 76 23 104c32 -16 69 -22 107 -22c64 0 84 21 96 152c6 72 19 188 39 320c-33 11 -61 14 -81 14c0 28 3 60 14 79h81c36 170 134 266 339 266
c87 0 161 -10 206 -28c-16 -49 -26 -109 -26 -149c-29 -14 -99 -18 -131 -13c-1 67 -26 115 -73 115c-61 0 -93 -41 -120 -191h70c160 0 201 4 239 19c29 -16 45 -40 35 -96l-36 -187c-13 -68 -12 -80 3 -80c8 0 18 3 32 14c13 -13 29 -43 32 -66c-44 -43 -104 -61 -163 -61
c-114 0 -124 73 -101 181l19 90c16 78 9 103 -59 103z" />
    <glyph glyph-name="fl" unicode="fl" horiz-adv-x="712" 
d="M41 448h81c36 170 134 266 339 266c62 0 105 -7 148 -27c24 4 45 11 66 23c26 -24 35 -37 26 -88c-26 -146 -53 -292 -81 -438c-13 -69 -7 -80 7 -80c9 0 17 3 34 14c13 -13 29 -43 32 -66c-44 -43 -104 -61 -163 -61c-88 0 -113 44 -113 102c0 37 7 82 70 413
c15 82 12 133 -50 133c-61 0 -93 -41 -120 -191h92c0 -32 -2 -66 -10 -83c-36 0 -64 -3 -100 -13c-11 -63 -20 -120 -30 -185c-33 -216 -149 -415 -316 -415c-42 0 -80 14 -110 49c0 31 9 76 23 104c32 -16 69 -22 107 -22c64 0 84 21 96 152c6 72 19 188 39 320
c-33 11 -61 14 -81 14c0 28 3 60 14 79z" />
    <glyph glyph-name="f_f" unicode="ff" horiz-adv-x="818" 
d="M47 448h83c43 159 141 244 339 244c55 0 108 -10 155 -32c44 35 108 54 204 54c56 0 105 -8 126 -18c-13 -40 -26 -120 -26 -159c-17 -8 -69 -13 -101 -13c-1 46 5 115 -28 115c-37 0 -50 -40 -78 -191h92c0 -32 -2 -66 -10 -83c-36 0 -64 -5 -100 -13
c-23 -134 -56 -256 -81 -305c-77 -148 -223 -251 -339 -251c-61 0 -110 24 -143 56c-49 -60 -112 -100 -187 -100c-42 0 -80 14 -110 49c0 31 9 76 23 104c32 -16 69 -22 107 -22c64 0 84 21 96 152c6 72 22 194 45 320c-33 11 -61 14 -81 14c0 28 3 60 14 79zM526 448l1 6
c9 46 19 86 34 121c-24 28 -56 44 -104 44c-63 0 -105 -36 -132 -171h201zM455 39c23 77 46 204 57 316c-23 8 -56 12 -101 12c-39 0 -68 -4 -106 -15c-12 -67 -24 -131 -44 -228c-13 -63 -35 -131 -67 -190c29 -13 61 -20 101 -20c98 0 128 18 160 125z" />
    <glyph glyph-name="f_f_i" unicode="ffi" horiz-adv-x="1115" 
d="M469 692c61 0 121 -13 171 -41c53 40 129 63 225 63c87 0 161 -10 206 -28c-16 -49 -26 -109 -26 -149c-29 -14 -99 -18 -131 -13c-1 67 -26 115 -73 115c-61 0 -93 -41 -120 -191h70c160 0 201 4 239 19c29 -16 45 -40 35 -96l-36 -187c-13 -68 -12 -80 3 -80
c8 0 18 3 32 14c13 -13 29 -43 32 -66c-44 -43 -104 -61 -163 -61c-114 0 -124 73 -101 181l19 90c16 78 9 103 -59 103c-39 0 -51 -2 -89 -13c-23 -134 -56 -256 -81 -305c-77 -148 -223 -251 -339 -251c-61 0 -110 24 -143 56c-49 -60 -112 -100 -187 -100
c-42 0 -80 14 -110 49c0 31 9 76 23 104c32 -16 69 -22 107 -22c64 0 84 21 96 152c6 72 22 194 45 320c-33 11 -61 14 -81 14c0 28 3 60 14 79h83c43 159 141 244 339 244zM457 619c-63 0 -105 -36 -132 -171h201c9 44 23 84 42 118c-24 34 -59 53 -111 53zM411 367
c-39 0 -68 -4 -106 -15c-12 -67 -24 -131 -44 -228c-13 -63 -35 -131 -67 -190c29 -13 61 -20 101 -20c98 0 128 18 160 125c23 77 46 204 57 316c-23 8 -56 12 -101 12z" />
    <glyph glyph-name="f_f_l" unicode="ffl" horiz-adv-x="1116" 
d="M47 448h83c43 159 141 244 339 244c64 0 120 -13 171 -41c54 41 127 63 225 63c62 0 105 -7 148 -27c24 4 45 11 66 23c26 -24 35 -37 26 -88c-26 -146 -53 -292 -81 -438c-13 -69 -7 -80 7 -80c9 0 17 3 34 14c13 -13 29 -43 32 -66c-44 -43 -104 -61 -163 -61
c-88 0 -113 44 -113 102c0 37 7 82 70 413c15 82 12 133 -50 133c-61 0 -93 -41 -120 -191h92c0 -32 -2 -66 -10 -83c-36 0 -64 -3 -100 -13c-23 -134 -56 -256 -81 -305c-77 -148 -223 -251 -339 -251c-61 0 -110 24 -143 56c-49 -60 -112 -100 -187 -100
c-42 0 -80 14 -110 49c0 31 9 76 23 104c32 -16 69 -22 107 -22c64 0 84 21 96 152c6 72 22 194 45 320c-33 11 -61 14 -81 14c0 28 3 60 14 79zM325 448h201c9 44 23 84 42 118c-24 34 -59 53 -111 53c-63 0 -105 -36 -132 -171zM455 39c23 77 46 204 57 316
c-23 8 -56 12 -101 12c-39 0 -68 -4 -106 -15c-12 -67 -24 -131 -44 -228c-13 -63 -35 -131 -67 -190c29 -13 61 -20 101 -20c98 0 128 18 160 125z" />
    <glyph glyph-name="f_f_t.liga" unicode="fft" horiz-adv-x="1155" 
d="M1053 352l-25 -109c-27 -116 -13 -137 17 -137c14 0 32 7 46 21c13 -19 24 -49 26 -74c-31 -36 -108 -62 -166 -62c-126 0 -155 99 -121 240l31 128c-17 6 -30 7 -49 8c-2 26 3 62 14 81h54c12 49 16 71 16 93c0 35 -17 64 -67 64c-54 0 -85 -26 -108 -157h62
c3 -25 -2 -64 -10 -81c-26 0 -43 -4 -70 -15c-23 -134 -56 -256 -81 -305c-77 -148 -223 -251 -339 -251c-61 0 -110 24 -143 56c-49 -60 -112 -100 -187 -100c-42 0 -80 14 -110 49c0 31 9 76 23 104c32 -16 69 -22 107 -22c64 0 84 21 96 152c6 72 22 194 45 320
c-33 11 -61 14 -81 14c0 28 3 60 14 79h83c43 159 141 230 339 230c60 0 122 -15 176 -42c52 31 121 44 206 44c66 0 111 -9 155 -27c24 4 45 11 66 23c25 -19 31 -33 28 -70c-2 -22 -9 -67 -26 -158h90c0 -32 -2 -66 -10 -83c-36 0 -65 -3 -101 -13zM325 448h201
c9 42 22 77 39 107c-28 38 -65 50 -108 50c-65 0 -107 -31 -132 -157zM455 39c23 77 46 204 57 316c-23 8 -56 12 -101 12c-39 0 -68 -4 -106 -15c-12 -67 -24 -131 -44 -228c-13 -63 -35 -131 -67 -190c29 -13 61 -20 101 -20c98 0 128 18 160 125z" />
    <glyph glyph-name="f_t.liga" unicode="ft" horiz-adv-x="751" 
d="M447 680c66 0 111 -9 155 -27c24 4 45 11 66 23c25 -19 31 -33 28 -70c-2 -22 -9 -67 -26 -158h90c0 -32 -2 -66 -10 -83c-36 0 -65 -3 -101 -13l-25 -109c-27 -116 -13 -137 17 -137c14 0 32 7 46 21c13 -19 24 -49 26 -74c-31 -36 -108 -62 -166 -62
c-126 0 -155 99 -121 240l31 128c-17 6 -30 7 -49 8c-2 26 3 62 14 81h54c12 49 16 71 16 93c0 35 -17 64 -67 64c-54 0 -85 -26 -108 -157h62c3 -25 -2 -64 -10 -81c-26 0 -43 -4 -70 -15c-11 -63 -20 -120 -30 -185c-33 -216 -149 -415 -316 -415c-42 0 -80 14 -110 49
c0 31 9 76 23 104c32 -16 69 -22 107 -22c64 0 84 21 96 152c6 72 19 188 39 320c-33 11 -61 14 -81 14c0 28 3 60 14 79h81c36 171 141 232 325 232z" />
    <glyph glyph-name=".notdef" horiz-adv-x="453" 
d="M490 677l-132 -677h-352l132 677h352zM170 559c2 0 2 0 2 -1v-11c0 -2 0 -2 -1 -2l-1 -1h3h3v1c-1 0 -2 0 -2 2v13v1c-1 0 -3 -1 -3 -1c-1 0 -1 0 -1 -1zM178 545v-1h3h2v1c-1 0 -1 0 -1 2v13c0 1 -1 1 -1 1s-2 -1 -3 -1v-1c1 0 2 0 2 -1v-11c0 -2 -1 -2 -2 -2zM189 547
v2c2 -1 4 -4 5 -5h3v1c-1 0 -1 0 -3 1l-3 5l2 1c1 2 2 2 3 3h-2h-3s0 -1 1 -1c0 -1 0 -1 -1 -2l-2 -2v10v1c-1 0 -3 -1 -4 -1v-1c2 0 2 0 2 -1v-11c0 -2 -1 -2 -2 -2v-1h3h3l-1 1c-1 0 -1 0 -1 2zM240 560v-1c2 0 2 0 2 -1v-10c0 -2 0 -2 -1 -3c1 -1 3 -1 5 -1c4 0 6 2 6 6
c0 3 -2 5 -4 5s-3 -1 -4 -2v1v6c0 1 0 1 -1 1c0 0 -2 -1 -3 -1zM143 560v-1c1 0 1 0 2 -3c2 -3 4 -8 5 -12h1c2 4 4 8 5 12c1 2 1 3 2 3v1h-2h-2v-1c1 0 1 0 1 -1v-2l-3 -9c-2 4 -3 7 -4 10c-1 0 -1 1 -1 1c0 1 1 1 2 1v1h-3h-3zM163 544c3 0 6 2 6 5c0 4 -2 6 -6 6
c-3 0 -5 -2 -5 -6c0 -3 2 -5 5 -5zM198 549c0 -3 2 -5 6 -5c3 0 5 2 5 5c0 4 -2 6 -5 6c-4 0 -6 -2 -6 -6zM211 545v-1h3h3v1c-1 0 -2 0 -2 2v3c0 2 1 3 2 3s1 0 1 -2h2v3c-1 1 -1 1 -2 1s-2 -1 -3 -1c0 1 0 1 -1 1c0 0 -2 -1 -3 -1v-1c2 0 2 0 2 -1v-5c0 -2 -1 -2 -2 -2z
M221 545v-1h3h3v1c-1 0 -2 0 -2 2v2c0 3 2 5 3 5s2 -1 2 -3v-4c0 -2 0 -2 -1 -2l-1 -1h3h3v1c-1 0 -2 0 -2 2v4c0 3 -1 4 -3 4s-3 -1 -4 -1v1l-4 -1v-1c2 0 2 0 2 -1v-5c0 -2 0 -2 -2 -2zM260 543l4 8c1 2 1 3 2 4h-2h-3v-1c1 0 2 -1 2 -1c0 -1 0 -1 -1 -2l-1 -4v-1
c-1 2 -2 4 -3 5v2s0 1 1 1s1 1 1 1h-4c-1 0 -2 0 -2 -1c1 0 1 -1 2 -3l3 -7c0 -2 0 -2 -1 -3c0 -1 -1 -1 -2 -1h-2v-2h2c2 0 2 0 4 5zM163 554c2 0 3 -2 3 -5s-1 -4 -3 -4s-3 2 -3 5c0 2 1 4 3 4zM203 554c2 0 4 -2 4 -5s-1 -4 -3 -4s-3 2 -3 5c0 2 0 4 2 4zM250 549
c0 -3 -3 -4 -4 -4h-2v4c0 3 2 5 3 5s3 -1 3 -5zM149 531c1 0 2 -1 3 -3v3c0 1 -1 1 -2 1c-2 0 -5 -2 -5 -6v-1h-2v-1h2v-6c0 -2 0 -2 -2 -3v-1h3h3v1c-1 1 -2 1 -2 3v6h2l1 1h-3v2c0 2 1 4 2 4zM164 530c0 -1 0 -1 1 -1s2 0 2 1s-1 2 -2 2s-1 -1 -1 -2zM193 516
c-1 0 -1 1 -1 2v13c0 1 -1 1 -1 1s-2 -1 -3 -1v-1c1 0 1 0 1 -2v-2h-2c-3 0 -6 -3 -6 -6c0 -4 2 -6 5 -6c2 0 3 1 3 2l1 1v-3c1 1 2 1 3 2zM209 530c0 1 0 2 -1 2s-2 -1 -2 -2s1 -1 2 -1s1 0 1 1zM236 514v1c-1 0 -2 1 -2 3v4c0 3 -1 4 -3 4s-3 -1 -4 -2v1v6c0 1 0 1 -1 1
c0 0 -2 -1 -3 -1v-1c2 0 2 0 2 -2v-10c0 -2 -1 -3 -2 -3v-1h3h3v1c-2 0 -2 1 -2 3v2c0 3 1 4 3 4c1 0 2 0 2 -3v-3c0 -2 -1 -3 -2 -3v-1h3h3zM255 514v1c-1 0 -2 1 -2 3v13v1c-1 0 -3 -1 -4 -1v-1c2 0 2 0 2 -2v-10c0 -2 0 -3 -2 -3v-1h3h3zM278 514v1c-1 0 -2 1 -2 3v4
c0 3 -1 4 -3 4s-3 -1 -4 -2v1v6v1c-1 0 -3 -1 -4 -1v-1c2 0 2 0 2 -2v-10c0 -2 0 -3 -2 -3v-1h3h3v1c-1 0 -2 1 -2 3v2c0 3 2 4 3 4s2 0 2 -3v-3c0 -2 0 -3 -2 -3v-1h3h3zM359 515c1 0 1 1 1 1c-2 0 -2 1 -2 2v13c0 1 0 1 -1 1c0 0 -2 -1 -3 -1v-1c2 0 2 0 2 -2v-2h-2
c-4 0 -6 -3 -6 -6c0 -4 1 -6 4 -6c2 0 3 1 4 2v-1s0 -1 1 -1c0 1 2 1 2 1zM261 514c1 0 2 1 3 1c0 1 -1 1 -2 1s-2 0 -2 2v6h3v1h-3v3v2c-1 -1 -1 -1 -2 -1v-4h-2v-1h2v-7c0 -2 1 -3 3 -3zM161 522v3c-1 0 -1 1 -2 1s-2 -1 -3 -1v1c-1 -1 -3 -1 -4 -2c2 0 2 0 2 -2v-4
c0 -2 0 -2 -2 -3v-1h3h3v1c-1 1 -2 1 -2 3v2c0 2 1 4 2 4s1 0 1 -2h2zM168 514v1c-1 0 -2 1 -2 3v8c-1 -1 -3 -1 -3 -1c-1 0 -1 -1 -1 -1c2 0 2 0 2 -2v-4c0 -2 0 -3 -2 -3v-1h3h3zM179 520v1c0 3 -1 5 -4 5s-5 -3 -5 -6s1 -6 5 -6c2 0 3 1 4 2v1c-1 -1 -2 -1 -3 -1
c-3 0 -4 2 -4 4h7zM204 522v3c-1 0 -1 1 -2 1s-2 -1 -3 -1c0 0 0 1 -1 1c0 -1 -2 -1 -3 -2c2 0 2 0 2 -2v-4c0 -2 -1 -2 -2 -3v-1h3h3v1c-1 1 -2 1 -2 3v2c0 2 1 4 2 4s1 0 1 -2h2zM211 514v1c-1 0 -2 1 -2 3v8c-1 -1 -3 -1 -4 -2c2 0 2 0 2 -2v-4c0 -2 0 -3 -2 -3v-1h3h3z
M218 514c2 0 3 1 4 2c0 1 -1 1 -1 1c-1 -1 -2 -1 -3 -1c-2 0 -3 2 -3 4c0 3 1 5 3 5c1 0 2 -1 3 -3v3c-1 0 -2 1 -3 1c-4 0 -5 -3 -5 -6c0 -4 2 -6 5 -6zM247 515c1 0 1 1 1 1c-2 0 -2 1 -2 2v3c0 2 0 3 -1 4c0 0 -1 1 -2 1c-2 0 -3 -1 -4 -1v-2s0 -1 1 -1c0 1 0 3 2 3
c1 0 1 0 2 -1v-3c-2 0 -6 -1 -6 -4c0 -2 1 -3 3 -3c1 0 2 1 2 1l1 1v-1l1 -1c1 1 2 1 2 1zM290 516c-1 0 -2 1 -2 2v3c0 2 0 3 -1 4c0 0 -1 1 -2 1c-2 0 -3 -1 -4 -1v-2s0 -1 1 -1c0 1 1 3 2 3s1 0 2 -1v-3c-2 0 -6 -1 -6 -4c0 -2 1 -3 3 -3c1 0 2 1 3 1l1 -1c1 1 2 1 3 2z
M303 516c-1 0 -1 1 -1 2v7s0 1 -1 1c0 0 -2 -1 -3 -1v-1c1 0 2 0 2 -1v-3c0 -3 -2 -4 -3 -4c-2 0 -2 1 -2 3v6s0 1 -1 1c-1 -1 -2 -1 -3 -2c1 0 2 0 2 -2v-3c0 -4 1 -5 3 -5c1 0 2 1 3 2c0 0 1 0 1 1v-2v-1c1 1 3 2 3 2zM309 514c3 0 5 2 5 4c0 1 -1 2 -4 3c-2 1 -3 2 -3 3
c0 0 1 1 2 1c2 0 3 -1 4 -3v3c-1 1 -2 1 -4 1c-1 0 -4 -1 -4 -3s1 -3 4 -4c2 -1 3 -1 3 -2s-1 -2 -2 -2c-2 0 -3 1 -3 3h-2v-1v-2c1 0 2 -1 4 -1zM325 520v1c0 3 -1 5 -4 5s-5 -3 -5 -6s1 -6 5 -6c2 0 3 1 4 2v1c-1 -1 -2 -1 -3 -1c-3 0 -4 2 -4 4h7zM340 514v1
c-1 0 -2 1 -2 3v4c0 3 -1 4 -3 4s-3 -1 -4 -2v1v1c-1 -1 -3 -1 -4 -2c2 0 2 0 2 -2v-4c0 -2 0 -3 -2 -3v-1h3h3v1c-1 0 -2 1 -2 3v2c0 3 2 4 3 4s2 0 2 -3v-3c0 -2 0 -3 -1 -3s-1 0 -1 -1h3h3zM367 516c-2 0 -3 2 -3 4h7v1c0 3 -1 5 -5 5c-3 0 -5 -3 -5 -6s2 -6 6 -6
c1 0 3 1 4 2c0 1 0 1 -1 1c-1 -1 -2 -1 -3 -1zM175 525c1 0 2 -2 2 -4h-5c0 3 1 4 3 4zM184 520c0 4 2 5 3 5s2 -1 2 -1v-4c0 -3 -1 -4 -3 -4c-1 0 -2 1 -2 4zM321 525c1 0 2 -2 2 -4h-5c0 3 1 4 3 4zM350 520c0 4 2 5 4 5c1 0 1 -1 2 -1v-4c0 -3 -2 -4 -3 -4s-3 1 -3 4z
M366 525c2 0 2 -2 2 -4h-4c0 3 1 4 2 4zM240 517c0 2 2 3 4 3v-1c0 -2 -1 -3 -2 -3s-2 0 -2 1zM282 517c0 2 3 3 4 3v-1c0 -2 -1 -3 -2 -3s-2 0 -2 1zM344 514c0 0 1 1 1 2c0 0 0 1 -1 1s-2 -1 -2 -1c0 -1 1 -2 2 -2zM287 516c0 0 -1 0 -1 -1c0 1 0 1 1 1z" />
    <glyph glyph-name="space" unicode=" " horiz-adv-x="200" 
 />
    <glyph glyph-name="exclam" unicode="!" horiz-adv-x="427" 
d="M374 623c-26 -80 -71 -243 -105 -378c-36 -3 -74 0 -101 13c13 141 19 281 19 417c55 7 120 21 166 42c30 -9 41 -33 21 -94zM201 197c57 0 111 -43 96 -122c-10 -52 -44 -84 -108 -84c-74 0 -119 44 -103 123c10 53 48 83 115 83z" />
    <glyph glyph-name="quotedbl" unicode="&#x22;" horiz-adv-x="403" 
d="M246 717c24 -11 29 -41 12 -82c-20 -48 -43 -128 -66 -224c-27 0 -53 4 -74 15c14 89 22 185 22 261c40 4 77 14 106 30zM416 717c24 -11 29 -41 12 -82c-20 -48 -43 -128 -66 -224c-27 0 -53 4 -74 15c14 89 22 185 22 261c40 4 77 14 106 30z" />
    <glyph glyph-name="numbersign" unicode="#" horiz-adv-x="580" 
d="M576 417h-100l-33 -154h109c0 -31 -5 -52 -18 -75h-107l-41 -196c-30 0 -56 6 -74 22l37 174l-131 -1l-41 -195c-31 0 -57 9 -72 26l36 169l-115 -2c0 29 5 50 18 78h113l33 153c-44 0 -82 -1 -111 -2c0 32 5 54 18 78h109l47 222c28 -1 54 -8 72 -22l-42 -200h131
l47 222c27 -1 53 -5 73 -20l-43 -202h103c0 -33 -5 -54 -18 -75zM397 417h-131l-32 -154h131z" />
    <glyph glyph-name="dollar" unicode="$" horiz-adv-x="533" 
d="M305 605c-37 0 -64 -14 -70 -47c-27 -138 308 -123 264 -375c-18 -107 -118 -178 -245 -190l-14 -78c-30 0 -66 4 -91 19l13 59c-74 6 -115 28 -169 69c18 48 31 100 38 156c38 7 79 9 118 1c-9 -99 20 -146 91 -146c40 0 79 24 85 58c22 128 -291 112 -240 389
c18 99 109 154 223 164l13 74c32 0 64 -3 92 -15l-14 -61c58 -8 102 -25 127 -46c-7 -52 -12 -116 -11 -155c-34 -11 -72 -14 -111 -10c-2 86 -36 134 -99 134z" />
    <glyph glyph-name="percent" unicode="%" horiz-adv-x="730" 
d="M107 59l510 626c30 -12 52 -38 58 -68c-205 -245 -307 -370 -509 -626c-28 9 -55 40 -59 68zM254 677c104 0 158 -72 135 -181c-19 -82 -87 -137 -167 -137c-109 0 -167 73 -143 183c18 81 89 135 175 135zM242 601c-28 0 -51 -23 -58 -58c-12 -65 6 -108 44 -108
c27 0 49 23 56 58c12 65 -4 108 -42 108zM554 309c104 0 158 -72 135 -181c-19 -82 -87 -137 -167 -137c-109 0 -167 73 -143 183c18 81 89 135 175 135zM542 233c-28 0 -51 -23 -58 -58c-12 -65 6 -108 44 -108c27 0 49 23 56 58c12 65 -4 108 -42 108z" />
    <glyph glyph-name="ampersand" unicode="&#x26;" horiz-adv-x="818" 
d="M790 130c15 -12 33 -47 33 -65c-25 -31 -100 -74 -178 -74c-62 0 -103 4 -149 36c-64 -23 -136 -36 -211 -36c-196 0 -307 65 -278 220c19 102 104 143 196 173c-60 98 -66 149 -56 209c11 65 74 124 261 124c156 0 231 -60 211 -161c-21 -104 -103 -138 -190 -170
c18 -24 40 -51 64 -82c48 -61 83 -103 110 -132c21 24 35 51 41 82c13 67 -27 96 -104 96c0 29 4 54 12 76c53 4 146 25 187 41c45 -14 69 -62 52 -152c-14 -70 -58 -137 -124 -193c19 -9 37 -10 59 -10c23 0 43 6 64 18zM335 593c-6 -36 5 -74 50 -143c40 23 69 53 78 100
c10 51 -13 92 -65 92c-35 0 -58 -20 -63 -49zM210 201c-16 -88 45 -135 123 -135c34 0 70 4 103 12c-32 34 -70 80 -119 144c-22 28 -41 54 -58 77c-24 -24 -41 -55 -49 -98z" />
    <glyph glyph-name="quotesingle" unicode="'" horiz-adv-x="233" 
d="M246 717c24 -11 29 -41 12 -82c-20 -48 -43 -128 -66 -224c-27 0 -53 4 -74 15c14 89 22 185 22 261c40 4 77 14 106 30z" />
    <glyph glyph-name="parenleft" unicode="(" horiz-adv-x="347" 
d="M394 719c-104 -118 -158 -239 -192 -433c-36 -208 -23 -402 30 -541c-20 -12 -46 -16 -73 -16c-97 144 -143 349 -110 541c34 194 98 326 268 471c30 2 61 -8 77 -22z" />
    <glyph glyph-name="parenright" unicode=")" horiz-adv-x="335" 
d="M297 245c-37 -211 -115 -355 -280 -516c-27 0 -56 5 -77 19c114 156 170 289 203 476c36 205 27 363 -27 495c20 14 48 22 71 22c106 -157 141 -316 110 -496z" />
    <glyph glyph-name="asterisk" unicode="*" horiz-adv-x="505" 
d="M410 652c-34 26 -85 36 -138 30c7 -55 9 -100 9 -152c-44 40 -69 67 -102 111c-41 -25 -65 -69 -70 -118c59 -10 97 -20 144 -37c-45 -25 -84 -44 -135 -64c10 -55 38 -89 88 -107c29 52 52 86 83 129c11 -56 15 -98 16 -154c58 -1 107 23 139 60c-41 40 -71 72 -105 115
c55 -8 97 -18 154 -35c14 57 11 101 -15 148c-44 -21 -90 -39 -143 -55c21 44 47 89 75 129z" />
    <glyph glyph-name="plus" unicode="+" horiz-adv-x="536" 
d="M325 305h197c-1 -31 -7 -60 -24 -83h-189c-14 -74 -27 -148 -39 -222c-33 -3 -64 0 -87 16l40 205c-61 -1 -125 -1 -196 -3c1 32 8 62 25 87h187l38 199c30 5 59 4 87 -8c-14 -63 -27 -127 -39 -191z" />
    <glyph glyph-name="comma" unicode="," horiz-adv-x="271" 
d="M174 185c25 -11 45 -42 30 -120c-19 -105 -80 -192 -158 -249c-31 4 -51 17 -62 37c96 91 121 171 19 185c0 41 10 77 31 110c53 2 106 17 140 37z" />
    <glyph glyph-name="hyphen" unicode="-" horiz-adv-x="328" 
d="M52 326h265c-1 -39 -7 -66 -21 -97c-66 0 -154 0 -269 -3c5 47 12 75 25 100z" />
    <glyph glyph-name="period" unicode="." horiz-adv-x="289" 
d="M128 197c57 0 111 -43 96 -122c-10 -52 -44 -84 -108 -84c-74 0 -119 44 -103 123c10 53 48 83 115 83z" />
    <glyph glyph-name="slash" unicode="/" horiz-adv-x="302" 
d="M-28 31l329 686c34 -1 58 -10 80 -30c-144 -286 -196 -399 -330 -696c-33 4 -61 17 -79 40z" />
    <glyph glyph-name="zero" unicode="0" horiz-adv-x="611" 
d="M343 509c-162 0 -268 -77 -294 -213c-34 -183 49 -305 237 -305c156 0 260 80 287 223c34 177 -47 295 -230 295zM318 430c64 0 88 -103 59 -258c-12 -62 -43 -103 -78 -103c-61 0 -84 101 -58 253c11 65 42 108 77 108z" />
    <glyph glyph-name="one" unicode="1" horiz-adv-x="448" 
d="M117 177l27 148c13 78 8 92 -49 100c-4 22 -5 51 -1 78c49 -3 104 -3 168 -3c52 0 113 0 172 3c0 -25 -4 -51 -14 -78c-55 -6 -61 -19 -79 -120l-24 -125c-17 -87 -6 -96 43 -105c4 -26 5 -50 2 -78c-57 3 -98 3 -163 3c-73 0 -129 -1 -175 -3c3 29 8 51 19 78
c49 7 58 17 74 102z" />
    <glyph glyph-name="two" unicode="2" horiz-adv-x="526" 
d="M484 376c-9 -56 -50 -83 -145 -138c-50 -29 -79 -45 -125 -81c17 2 32 2 48 2c26 0 51 -3 63 -3c23 0 33 12 43 55c28 5 71 -1 95 -13c-13 -51 -19 -116 -15 -160c-13 -32 -35 -41 -67 -41c-19 0 -76 3 -141 3c-61 0 -134 0 -202 -3c-13 22 -20 63 -17 95
c54 60 95 91 152 134c70 53 106 83 116 132c10 47 -12 72 -47 72c-34 0 -48 -23 -60 -126c-45 -1 -85 6 -111 19c12 41 18 92 19 135c56 34 135 48 208 48c136 0 200 -49 186 -130z" />
    <glyph glyph-name="three" unicode="3" horiz-adv-x="513" 
d="M475 357c-11 -44 -37 -84 -126 -123c82 -39 118 -116 94 -206c-33 -126 -162 -199 -311 -199c-59 0 -97 9 -125 30c1 18 22 59 34 66c23 -11 50 -16 84 -16c71 0 114 37 128 102c17 78 -25 133 -110 127c-13 19 -17 56 -11 81c90 21 143 52 157 121c11 52 -10 90 -51 90
c-36 0 -50 -30 -61 -126c-35 -2 -80 4 -112 19c12 40 19 93 20 135c59 33 122 48 200 48c152 0 213 -57 190 -149z" />
    <glyph glyph-name="four" unicode="4" horiz-adv-x="605" 
d="M548 116c-14 -30 -26 -71 -35 -116h-75l-29 -153c-62 7 -112 1 -159 -18c-24 12 -32 29 -27 55l22 115c-91 -1 -164 -2 -213 -4c-16 31 -23 70 -21 107c137 134 267 266 397 404c44 0 82 -3 124 -17l-65 -340h37c23 0 37 -11 44 -33zM334 338c-22 -30 -50 -64 -95 -109
c-26 -26 -56 -53 -102 -93h148l9 41c14 69 26 122 40 161z" />
    <glyph glyph-name="five" unicode="5" horiz-adv-x="497" 
d="M380 555c30 5 72 3 100 -7c-17 -57 -25 -120 -30 -175c-8 -20 -24 -30 -52 -30c-115 0 -191 0 -244 -2l-15 -53c220 -27 307 -124 274 -257c-34 -138 -166 -202 -313 -202c-56 0 -100 9 -122 23c5 28 15 51 33 70c26 -9 54 -12 77 -12c71 0 118 28 133 91
c20 83 -42 122 -167 137c-15 21 -20 41 -18 68l89 297c76 -3 136 -3 197 -3c31 0 52 20 58 55z" />
    <glyph glyph-name="six" unicode="6" horiz-adv-x="603" 
d="M389 395c124 0 190 -82 166 -204c-25 -128 -129 -200 -289 -200c-175 0 -251 108 -213 300c41 207 214 332 482 347c10 -15 11 -42 2 -73c-132 -26 -227 -94 -273 -191c47 15 83 21 125 21zM359 169c17 87 -11 145 -69 145c-18 0 -32 -2 -48 -7l-3 -13
c-26 -140 -12 -219 37 -219c42 0 71 34 83 94z" />
    <glyph glyph-name="seven" unicode="7" horiz-adv-x="491" 
d="M473 503c15 -25 22 -56 20 -82c-126 -160 -159 -219 -188 -292c-19 -48 -31 -114 -31 -236c-52 -11 -109 -34 -150 -63c-24 9 -40 35 -40 69c0 58 10 133 258 442h-92c-48 0 -73 -17 -84 -57c-45 -1 -79 6 -105 19c19 67 32 133 39 200c57 -3 123 -3 190 -3
c48 0 130 0 183 3z" />
    <glyph glyph-name="eight" unicode="8" horiz-adv-x="585" 
d="M567 492c-12 -55 -52 -96 -131 -129c63 -47 120 -118 92 -221c-27 -99 -113 -151 -266 -151c-163 0 -257 59 -227 183c18 74 68 119 142 154c-56 51 -80 108 -62 173c25 91 114 136 250 136c152 0 221 -56 202 -145zM299 526c-15 -50 21 -87 57 -111c22 21 35 44 40 76
c8 48 -7 78 -44 78c-26 0 -45 -16 -53 -43zM336 130c13 62 -11 90 -79 139c-13 -17 -24 -39 -30 -73c-13 -68 5 -127 51 -127c29 0 50 23 58 61z" />
    <glyph glyph-name="nine" unicode="9" horiz-adv-x="599" 
d="M351 506c154 0 242 -99 205 -290c-44 -224 -240 -365 -523 -385c-9 15 -11 42 -2 73c168 34 254 113 300 209c-33 -13 -74 -21 -115 -21c-121 0 -186 81 -159 221c23 117 125 193 294 193zM371 238c25 135 1 184 -41 184c-41 0 -70 -41 -80 -91c-16 -87 -1 -158 67 -158
c15 0 27 2 40 7c6 19 10 39 14 58z" />
    <glyph glyph-name="colon" unicode=":" horiz-adv-x="290" 
d="M181 467c57 0 111 -43 96 -122c-10 -52 -44 -84 -108 -84c-74 0 -119 44 -103 123c10 53 48 83 115 83zM130 205c57 0 111 -43 96 -122c-10 -52 -44 -84 -108 -84c-74 0 -119 44 -103 123c10 53 48 83 115 83z" />
    <glyph glyph-name="semicolon" unicode=";" horiz-adv-x="289" 
d="M180 467c57 0 111 -43 96 -122c-10 -52 -44 -84 -108 -84c-74 0 -119 44 -103 123c10 53 48 83 115 83zM182 185c25 -11 45 -42 30 -120c-19 -105 -80 -192 -158 -249c-31 4 -51 17 -62 37c96 91 121 171 19 185c0 41 10 77 31 110c53 2 106 17 140 37z" />
    <glyph glyph-name="less" unicode="&#x3c;" horiz-adv-x="498" 
d="M109 264l247 -213c1 -36 -8 -74 -24 -90c-119 112 -212 195 -302 268c-2 28 7 65 23 92l330 224c30 -4 56 -21 72 -46z" />
    <glyph glyph-name="equal" unicode="=" horiz-adv-x="530" 
d="M69 390h460c-1 -31 -10 -64 -27 -87c-150 0 -278 0 -461 -4c1 32 11 66 28 91zM38 207h460c-1 -31 -10 -64 -27 -87c-150 0 -278 0 -461 -4c1 32 11 66 28 91z" />
    <glyph glyph-name="greater" unicode="&#x3e;" horiz-adv-x="451" 
d="M152 551l267 -255c10 -27 10 -60 1 -93c-138 -75 -255 -146 -396 -238c-20 24 -25 54 -18 84l345 206l-283 268c20 19 52 29 84 28z" />
    <glyph glyph-name="question" unicode="?" horiz-adv-x="545" 
d="M194 672c54 29 119 45 180 45c147 0 220 -53 202 -147c-25 -133 -197 -135 -224 -270c-3 -20 -3 -36 0 -58c-23 -14 -60 -21 -90 -19c-29 20 -45 75 -35 128c24 124 133 127 152 223c9 48 -9 66 -33 66c-26 0 -49 -25 -83 -134c-44 0 -71 7 -97 23c17 55 25 95 28 143z
M286 196c57 0 111 -43 96 -122c-10 -52 -44 -84 -108 -84c-74 0 -119 44 -103 123c10 53 48 83 115 83z" />
    <glyph glyph-name="at" unicode="@" horiz-adv-x="892" 
d="M529 660c264 0 389 -139 348 -376c-28 -160 -146 -293 -276 -293c-91 0 -115 61 -98 157c-46 -110 -106 -157 -188 -157c-142 0 -152 144 -133 241c25 127 112 235 303 235c47 0 84 -7 115 -17c38 4 74 9 109 17c28 -22 35 -47 26 -88l-45 -195c-16 -68 -8 -80 6 -80
c35 0 69 57 90 159c36 207 -66 323 -283 323c-192 0 -341 -123 -374 -314c-44 -253 73 -396 324 -396c96 0 192 36 267 89c21 -8 34 -29 38 -48c-75 -71 -188 -119 -322 -119c-291 0 -456 168 -404 466c42 238 241 396 497 396zM410 124c34 0 86 47 118 212l11 46
c-16 7 -45 11 -60 11c-52 0 -76 -55 -92 -129c-20 -94 -10 -140 23 -140z" />
    <glyph glyph-name="A" unicode="A" horiz-adv-x="710" 
d="M658 75c4 -18 5 -48 1 -78c-40 3 -127 3 -159 3s-138 0 -177 -3c1 32 6 58 14 78c56 10 63 31 52 76l-4 15c-73 0 -150 -2 -229 -10l-3 -4c-22 -37 -14 -70 28 -77c3 -24 4 -50 -2 -78c-22 2 -90 3 -123 3s-71 -1 -92 -3c1 30 5 53 15 78c33 6 53 25 102 101
s122 197 299 500c27 6 46 6 77 6c62 -194 112 -380 137 -487c24 -103 36 -117 64 -120zM200 231h169c-10 40 -21 81 -33 121c-8 27 -14 63 -18 102c-18 -39 -36 -74 -50 -100c-22 -41 -44 -82 -68 -123z" />
    <glyph glyph-name="B" unicode="B" horiz-adv-x="712" 
d="M702 503c-11 -67 -72 -119 -182 -135c136 -7 180 -82 161 -194c-19 -106 -112 -174 -339 -174c-122 0 -242 0 -333 -3c2 29 10 54 20 78c52 4 59 16 77 122l53 304c14 80 2 92 -50 100c-6 22 -4 52 -1 78c31 -2 77 -3 111 -3c53 0 142 3 226 3c219 0 277 -65 257 -176z
M505 516c9 55 -22 85 -74 85c-24 0 -40 -7 -58 -15l-34 -197h32c65 0 119 46 134 127zM466 203c14 83 -24 103 -112 103h-29l-24 -138c-16 -89 11 -94 44 -94c53 0 107 49 121 129z" />
    <glyph glyph-name="C" unicode="C" horiz-adv-x="614" 
d="M661 632c-16 -47 -27 -98 -33 -155c-26 -10 -62 -13 -95 -7c13 111 -26 138 -88 138c-103 0 -168 -127 -191 -261c-26 -150 11 -262 147 -262c42 0 91 10 148 38c16 -17 23 -41 25 -69c-64 -41 -137 -63 -230 -63c-219 0 -330 153 -292 371c37 216 219 323 391 323
c81 0 154 -13 218 -53z" />
    <glyph glyph-name="D" unicode="D" horiz-adv-x="733" 
d="M420 678c199 0 357 -61 308 -343c-55 -314 -321 -335 -420 -335h-3c-71 0 -242 0 -295 -3c1 27 6 51 18 78c52 4 60 20 77 122l52 304c14 80 3 94 -49 100c-5 27 -5 58 0 78c46 -2 130 -3 202 -3c30 0 66 2 110 2zM530 357c35 203 -29 246 -107 246c-19 0 -35 -3 -54 -12
l-68 -409c-16 -92 -4 -107 56 -107c30 0 129 31 173 282z" />
    <glyph glyph-name="E" unicode="E" horiz-adv-x="638" 
d="M374 601l-37 -219h6c60 0 78 11 85 67c28 6 59 8 91 5c-9 -37 -17 -79 -24 -129c-5 -36 -9 -76 -10 -110c-32 1 -60 5 -86 15c0 39 -7 77 -66 77h-8l-21 -125c-16 -92 -2 -107 59 -107h14c68 0 111 36 144 143c41 -6 68 -16 97 -38c-16 -47 -35 -117 -43 -183
c-60 3 -180 3 -265 3c-70 0 -236 0 -300 -3c1 27 6 51 19 79c52 4 60 19 78 121l53 304c14 80 0 92 -52 100c-4 25 -5 48 0 78c61 -3 195 -3 271 -3c148 0 222 1 279 3c-9 -55 -14 -122 -9 -182c-31 -8 -64 -12 -98 -12c-5 70 -22 116 -121 116h-56z" />
    <glyph glyph-name="F" unicode="F" horiz-adv-x="606" 
d="M657 679c-9 -55 -14 -122 -9 -182c-31 -8 -64 -12 -98 -12c-5 70 -22 116 -121 116h-56l-44 -265h26c60 0 78 11 85 67c28 6 59 8 91 5c-9 -37 -17 -79 -24 -129c-5 -36 -9 -80 -10 -114c-32 1 -60 5 -86 15c1 49 -7 81 -66 81h-29l-12 -74c-15 -86 -9 -98 82 -112
c4 -22 5 -52 2 -78c-55 3 -122 3 -191 3c-66 0 -135 0 -191 -3c3 29 9 55 19 78c52 4 64 20 81 122l53 304c14 80 2 92 -50 100c-4 23 -4 50 -1 78c88 -3 200 -3 270 -3c148 0 222 1 279 3z" />
    <glyph glyph-name="G" unicode="G" horiz-adv-x="659" 
d="M452 685c90 0 168 -17 222 -51c-13 -41 -26 -103 -32 -154c-31 -13 -67 -16 -100 -11c8 102 -21 138 -94 138c-110 0 -174 -128 -197 -260c-28 -163 10 -276 103 -276c22 0 33 3 44 9c16 9 23 26 31 75c13 78 -2 92 -59 100c-4 22 -5 51 -1 78c49 -3 106 -3 150 -3
c52 0 98 0 157 3c0 -25 -4 -51 -14 -78c-37 -4 -44 -7 -64 -120c-4 -33 -3 -50 4 -81c-66 -36 -162 -63 -259 -63c-219 0 -330 154 -292 372s217 322 401 322z" />
    <glyph glyph-name="H" unicode="H" horiz-adv-x="810" 
d="M672 676c52 0 113 0 172 3c0 -25 -4 -51 -14 -78c-55 -6 -61 -19 -79 -120l-52 -301c-15 -85 -6 -96 43 -105c4 -26 5 -50 2 -78c-57 3 -98 3 -163 3c-73 0 -129 -1 -175 -3c3 29 8 51 19 78c49 7 59 18 74 102l20 119c-65 0 -135 -2 -197 -5l-19 -111
c-15 -85 -6 -96 43 -105c4 -26 5 -50 2 -78c-57 3 -98 3 -163 3c-73 0 -129 -1 -175 -3c3 29 8 51 19 78c49 7 59 18 74 102l55 324c13 78 8 92 -49 100c-4 22 -5 51 -1 78c49 -3 104 -3 168 -3c52 0 113 0 172 3c0 -25 -4 -51 -14 -78c-55 -6 -61 -19 -79 -120l-18 -104
h196l21 124c13 78 8 92 -49 100c-4 22 -5 51 -1 78c49 -3 104 -3 168 -3z" />
    <glyph glyph-name="I" unicode="I" horiz-adv-x="414" 
d="M103 177l55 324c13 78 8 92 -49 100c-4 22 -5 51 -1 78c49 -3 104 -3 168 -3c52 0 113 0 172 3c0 -25 -4 -51 -14 -78c-55 -6 -61 -19 -79 -120l-52 -301c-15 -85 -6 -96 43 -105c4 -26 5 -50 2 -78c-57 3 -98 3 -163 3c-73 0 -129 -1 -175 -3c3 29 8 51 19 78
c49 7 59 18 74 102z" />
    <glyph glyph-name="J" unicode="J" horiz-adv-x="386" 
d="M108 679c48 -3 111 -3 172 -3c59 0 124 1 168 3c-1 -29 -5 -55 -12 -78c-53 -5 -62 -13 -82 -123l-62 -353c-32 -185 -88 -295 -324 -371c-25 21 -31 52 -31 87c79 39 122 91 146 231l74 426c15 84 8 97 -47 103c-6 25 -5 52 -2 78z" />
    <glyph glyph-name="K" unicode="K" horiz-adv-x="784" 
d="M784 600c-55 -4 -77 -14 -157 -81l-153 -127c56 -54 100 -121 138 -210c19 -46 35 -60 60 -60c17 0 36 4 49 12c15 -15 28 -44 31 -67c-46 -49 -110 -76 -179 -76c-87 0 -132 32 -161 123c-23 74 -49 130 -88 189l-22 -126c-14 -82 -5 -95 34 -102c4 -26 5 -50 2 -78
c-57 3 -88 3 -153 3c-73 0 -129 -1 -175 -3c3 29 8 51 19 78c59 4 61 30 77 122l52 304c13 78 8 92 -49 100c-4 22 -5 51 -1 78c49 -3 104 -3 168 -3c52 0 113 0 172 3c0 -25 -4 -51 -14 -78c-55 -6 -61 -19 -79 -120l-17 -99l156 134c72 62 76 74 42 85c-4 22 -4 51 -1 78
c39 -3 91 -3 126 -3c43 0 114 1 137 3c0 -25 -4 -51 -14 -79z" />
    <glyph glyph-name="L" unicode="L" horiz-adv-x="640" 
d="M359 75h17c68 0 110 52 142 150c42 -9 74 -23 102 -46c-16 -39 -38 -116 -46 -182c-68 3 -180 3 -260 3c-74 0 -259 -1 -304 -3c3 28 8 51 19 78c54 5 59 20 77 122l53 304c14 78 7 92 -50 100c-5 23 -5 51 -1 78c49 -3 103 -3 173 -3c52 0 128 0 187 3
c0 -25 -4 -52 -14 -78c-72 -8 -82 -20 -99 -120l-52 -299c-16 -92 -4 -107 56 -107z" />
    <glyph glyph-name="M" unicode="M" horiz-adv-x="975" 
d="M894 475c-5 -91 -9 -183 -17 -274c-9 -97 -4 -120 46 -126c5 -23 5 -51 1 -78c-49 3 -103 3 -173 3c-52 0 -118 0 -177 -3c0 25 4 52 14 78c69 8 77 30 88 135c9 88 14 176 20 265c-83 -161 -173 -321 -268 -478c-30 -6 -54 -6 -76 -6c-38 167 -82 332 -132 493
c-21 -91 -48 -194 -66 -266c-26 -100 -25 -130 36 -143c4 -24 4 -52 1 -78c-27 3 -65 3 -103 3c-46 0 -95 0 -124 -3c0 26 5 55 15 78c42 13 60 41 92 141c36 113 58 195 81 298c15 69 9 80 -45 87c-5 22 -5 51 -1 78c36 -3 106 -3 134 -3c36 0 91 0 140 3
c41 -138 78 -277 108 -418c82 138 158 277 230 418c55 -3 111 -3 139 -3c36 0 70 0 119 3c0 -28 -5 -55 -13 -78c-52 -10 -64 -37 -69 -126z" />
    <glyph glyph-name="N" unicode="N" horiz-adv-x="712" 
d="M648 676c38 0 85 0 127 3c-1 -27 -7 -58 -15 -78c-57 -18 -70 -39 -88 -143l-80 -457c-28 -8 -55 -10 -92 -10c-82 161 -170 320 -262 477l-43 -250c-18 -104 -15 -126 56 -143c4 -24 4 -52 1 -78c-45 3 -89 3 -119 3c-38 0 -85 0 -127 -3c1 27 7 58 15 78
c58 18 80 38 98 143l61 347l-5 8c-12 20 -23 25 -66 28c-5 24 -5 48 -1 78c41 -3 88 -3 127 -3c37 0 81 0 116 3c77 -123 152 -255 217 -385l25 164c16 104 9 126 -63 143c-4 24 -4 52 -1 78c45 -3 89 -3 119 -3z" />
    <glyph glyph-name="O" unicode="O" horiz-adv-x="742" 
d="M444 685c213 0 333 -140 293 -351c-39 -205 -191 -343 -398 -343c-220 0 -330 151 -290 360c41 213 197 334 395 334zM434 610c-85 0 -150 -98 -180 -255c-31 -160 -8 -286 94 -286c87 0 156 113 187 284c26 143 -9 257 -101 257z" />
    <glyph glyph-name="P" unicode="P" horiz-adv-x="664" 
d="M499 679c148 0 215 -93 188 -251c-22 -125 -126 -213 -288 -213c-19 0 -36 2 -49 9c-1 19 5 55 13 73c2 -1 6 -2 17 -2c46 0 101 48 117 137c18 100 -9 169 -82 169c-15 0 -26 -2 -40 -8l-70 -406c-15 -86 -4 -100 82 -112c5 -25 5 -52 2 -78c-55 3 -122 3 -181 3
c-76 0 -141 0 -196 -3c2 24 7 53 18 79c52 4 59 19 77 121l53 304c14 80 2 92 -50 100c-4 21 -5 50 -2 78c61 -3 118 -3 173 -3c64 0 128 3 218 3z" />
    <glyph glyph-name="Q" unicode="Q" horiz-adv-x="742" 
d="M715 -79c15 -15 30 -43 33 -66c-46 -49 -106 -74 -175 -74c-77 0 -121 35 -145 110c-21 64 -50 92 -108 100c-207 9 -310 157 -271 360c41 213 197 334 395 334c213 0 333 -140 293 -351c-30 -156 -125 -274 -261 -321c42 -8 69 -26 136 -85c24 -21 37 -26 56 -26
c16 0 32 6 47 19zM254 355c-31 -160 -8 -286 94 -286c87 0 156 113 187 284c26 143 -9 257 -101 257c-85 0 -150 -98 -180 -255z" />
    <glyph glyph-name="R" unicode="R" horiz-adv-x="756" 
d="M691 131c15 -15 30 -43 33 -66c-46 -49 -116 -74 -185 -74c-79 0 -115 36 -153 150c-21 62 -35 90 -57 118h-13l-14 -82c-14 -82 -9 -95 30 -102c4 -26 5 -50 2 -78c-57 3 -84 3 -149 3c-73 0 -129 -1 -175 -3c3 29 8 51 19 78c48 4 60 20 77 122l52 304
c13 78 8 92 -49 100c-4 22 -5 51 -1 78c49 -3 111 -3 175 -3c38 0 122 5 204 5c177 0 244 -96 225 -208c-17 -101 -102 -172 -199 -193c32 -20 58 -56 83 -115c15 -38 29 -47 52 -47c17 0 33 6 43 13zM501 489c14 76 -17 114 -75 114c-19 0 -35 -4 -52 -11l-42 -244
c9 -1 15 -1 22 -1c61 0 131 50 147 142z" />
    <glyph glyph-name="S" unicode="S" horiz-adv-x="533" 
d="M343 685c86 0 150 -22 183 -49c-7 -52 -12 -116 -11 -155c-34 -11 -72 -14 -111 -10c-2 86 -36 134 -99 134c-37 0 -64 -14 -70 -47c-27 -138 308 -123 264 -375c-20 -118 -139 -192 -286 -192c-109 0 -155 21 -220 71c18 48 31 100 38 156c38 7 79 9 118 1
c-9 -99 20 -146 91 -146c40 0 79 24 85 58c22 128 -291 112 -240 389c20 109 129 165 258 165z" />
    <glyph glyph-name="T" unicode="T" horiz-adv-x="641" 
d="M683 679c-6 -55 -10 -132 -3 -196c-29 -9 -64 -12 -100 -10c-7 86 -25 126 -89 128l-72 -414c-14 -81 -8 -99 81 -112c5 -25 5 -54 3 -78c-44 3 -115 3 -196 3c-89 0 -168 0 -222 -3c2 29 10 58 18 78c88 11 101 23 118 122l70 404c-65 -5 -103 -47 -134 -129
c-39 0 -68 5 -95 21c20 48 38 130 44 186c81 -3 149 -3 287 -3c127 0 188 0 290 3z" />
    <glyph glyph-name="U" unicode="U" 
d="M103 679c49 -3 104 -3 168 -3c52 0 113 0 172 3c0 -25 -4 -51 -14 -78c-55 -6 -61 -19 -79 -120l-39 -215c-24 -135 4 -194 74 -194c87 0 128 79 149 195l37 210c19 105 16 112 -37 124c-4 24 -5 48 -1 78c43 -3 83 -3 108 -3c43 0 68 0 104 3c-1 -26 -6 -56 -14 -78
c-55 -7 -61 -13 -82 -135l-33 -189c-37 -206 -106 -286 -279 -286c-195 0 -258 93 -227 268l43 242c13 78 8 92 -49 100c-4 22 -5 51 -1 78z" />
    <glyph glyph-name="V" unicode="V" horiz-adv-x="690" 
d="M665 676c37 0 61 0 103 3c-1 -27 -6 -55 -14 -78c-35 -7 -50 -31 -93 -119c-78 -158 -161 -310 -266 -482c-26 -8 -62 -9 -91 -9c-42 171 -90 346 -138 509c-25 84 -35 92 -72 101c-4 19 -5 48 -1 78c51 -3 129 -3 157 -3c36 0 115 0 178 3c-1 -32 -7 -59 -14 -78
c-57 -7 -62 -38 -43 -107c25 -92 44 -174 61 -275c68 112 112 197 140 266c37 87 22 109 -23 116c-5 24 -5 50 -1 78c33 -3 88 -3 117 -3z" />
    <glyph glyph-name="W" unicode="W" horiz-adv-x="978" 
d="M953 676c37 0 61 0 103 3c-1 -27 -6 -55 -14 -78c-35 -7 -61 -36 -111 -153c-64 -150 -132 -301 -206 -451c-22 -6 -74 -3 -106 6c-28 143 -53 255 -89 393c-65 -135 -134 -268 -206 -400c-27 -6 -79 -1 -102 9c-22 175 -47 345 -72 480c-18 95 -22 107 -56 116
c-4 19 -5 48 -1 78c51 -3 129 -3 157 -3c36 0 115 0 178 3c-1 -32 -7 -59 -14 -78c-67 -8 -76 -55 -63 -135c8 -52 20 -114 30 -193c72 133 141 267 205 403c26 6 55 8 80 6c42 -147 73 -274 101 -416c32 67 62 134 88 202c36 91 27 126 -18 133c-5 24 -5 50 -1 78
c33 -3 88 -3 117 -3z" />
    <glyph glyph-name="X" unicode="X" horiz-adv-x="684" 
d="M628 676c37 0 74 0 116 3c-1 -27 -6 -55 -14 -78c-46 -9 -70 -19 -118 -81c-59 -77 -103 -130 -145 -177c21 -50 40 -96 53 -128c46 -112 62 -128 112 -140c4 -19 5 -48 1 -78c-51 3 -138 3 -166 3c-36 0 -115 0 -178 -3c1 32 7 59 14 78c57 7 56 26 6 160l-8 21
c-22 -29 -48 -60 -75 -91c-46 -52 -46 -84 -16 -90c5 -24 5 -50 1 -78c-33 3 -88 3 -117 3c-37 0 -88 0 -130 -3c1 27 6 55 14 78c65 9 98 31 144 83c54 61 109 127 144 178c-24 53 -53 114 -83 172c-37 72 -51 84 -88 93c-4 19 -5 48 -1 78c51 -3 138 -3 166 -3
c36 0 115 0 178 3c-1 -32 -7 -59 -14 -78c-57 -7 -61 -26 -25 -103l34 -75c20 25 41 52 60 75c63 79 49 97 19 103c-5 24 -5 50 -1 78c33 -3 88 -3 117 -3z" />
    <glyph glyph-name="Y" unicode="Y" horiz-adv-x="606" 
d="M581 676c37 0 61 0 103 3c-1 -27 -6 -55 -14 -78c-22 -5 -38 -14 -79 -86c-51 -88 -103 -172 -156 -254l-13 -74c-14 -81 -8 -99 81 -112c5 -25 5 -54 3 -78c-44 3 -115 3 -196 3c-89 0 -168 0 -222 -3c2 29 10 58 18 78c88 11 101 23 118 122l11 66
c-22 82 -46 163 -74 246c-25 73 -39 85 -67 92c-4 19 -5 48 -1 78c51 -3 129 -3 157 -3c36 0 115 0 178 3c-1 -32 -7 -59 -14 -78c-57 -7 -63 -32 -48 -80c16 -53 29 -110 40 -171c32 58 61 116 88 176c21 46 16 68 -29 75c-5 24 -5 50 -1 78c33 -3 88 -3 117 -3z" />
    <glyph glyph-name="Z" unicode="Z" horiz-adv-x="559" 
d="M588 679c14 -21 20 -45 18 -79c-125 -184 -233 -340 -371 -525h24c87 0 127 35 171 146c42 -6 74 -19 104 -41c-21 -50 -46 -130 -55 -183c-75 3 -180 3 -251 3c-83 0 -164 0 -222 -3c-13 20 -21 48 -20 81c145 188 255 338 379 523h-42c-62 0 -95 -32 -138 -150
c-47 2 -80 12 -106 31c25 56 47 141 57 197c50 -3 164 -3 226 -3c70 0 168 0 226 3z" />
    <glyph glyph-name="bracketleft" unicode="[" horiz-adv-x="309" 
d="M-37 -268l178 1010c72 -3 146 -3 217 0c8 -25 6 -54 -2 -83c-88 -7 -106 -19 -117 -84l-119 -671c-12 -69 0 -84 77 -88c5 -28 2 -57 -7 -84c-57 3 -161 3 -227 0z" />
    <glyph glyph-name="backslash" unicode="\" horiz-adv-x="305" 
d="M94 702c25 14 57 18 86 11l80 -713c-23 -11 -57 -15 -88 -9c-18 228 -46 483 -78 711z" />
    <glyph glyph-name="bracketright" unicode="]" horiz-adv-x="308" 
d="M348 742l-178 -1011c-69 4 -161 4 -228 0c-1 26 5 62 20 85c79 4 99 19 111 88l119 671c11 65 2 77 -84 84c0 30 8 63 22 83c70 -2 136 -2 218 0z" />
    <glyph glyph-name="asciicircum" unicode="^" horiz-adv-x="460" 
d="M59 428l224 264c20 9 55 10 77 4c29 -83 78 -205 114 -289c-15 -10 -56 -18 -79 -13l-85 219c-67 -78 -137 -162 -190 -230c-31 3 -52 20 -61 45z" />
    <glyph glyph-name="underscore" unicode="_" horiz-adv-x="526" 
d="M-20 -69h460c-1 -31 -10 -64 -27 -87c-150 0 -278 0 -461 -4c1 32 11 66 28 91z" />
    <glyph glyph-name="grave" unicode="`" horiz-adv-x="302" 
d="M286 705c9 -49 25 -112 44 -163c-28 -8 -67 -8 -94 1c-31 52 -62 94 -112 153c48 13 107 19 162 9z" />
    <glyph glyph-name="a" unicode="a" horiz-adv-x="625" 
d="M574 118c13 -13 29 -43 32 -66c-44 -43 -94 -61 -156 -61c-86 0 -109 55 -100 119c4 27 8 44 20 77h-3c-48 -138 -112 -196 -203 -196c-142 0 -152 144 -133 241c25 127 112 235 303 235c47 0 84 -7 115 -17c38 4 74 9 109 17c28 -22 35 -47 26 -88l-45 -195
c-16 -68 -13 -80 4 -80c9 0 17 3 31 14zM259 124c34 0 86 47 118 212l11 46c-16 7 -45 11 -60 11c-52 0 -76 -55 -92 -129c-20 -94 -10 -140 23 -140z" />
    <glyph glyph-name="b" unicode="b" horiz-adv-x="623" 
d="M458 467c142 0 152 -144 133 -241c-25 -127 -112 -235 -303 -235c-116 0 -206 32 -262 89c18 28 33 62 46 137l51 289c12 71 11 88 -53 88c0 24 4 52 13 75c82 2 162 15 228 41c26 -24 35 -37 26 -88c-38 -213 -54 -273 -84 -351h2c48 138 112 196 203 196zM386 194
c20 94 10 140 -23 140c-34 0 -86 -47 -118 -212l-11 -46c16 -7 45 -11 60 -11c52 0 76 55 92 129z" />
    <glyph glyph-name="c" unicode="c" horiz-adv-x="470" 
d="M332 467c56 0 110 -16 139 -36c-13 -38 -20 -75 -20 -109c-28 -10 -56 -12 -87 -6c3 42 -6 75 -42 75c-33 0 -69 -32 -85 -120c-20 -97 -15 -173 71 -173c44 0 84 16 112 31c15 -25 19 -49 17 -82c-61 -42 -117 -56 -210 -56c-182 0 -220 115 -196 243
c19 98 91 233 301 233z" />
    <glyph glyph-name="d" unicode="d" horiz-adv-x="620" 
d="M610 622l-78 -440c-12 -70 -10 -78 4 -78c8 0 16 3 33 14c13 -13 29 -43 32 -66c-41 -41 -95 -61 -149 -61c-95 0 -110 63 -102 116c3 22 11 49 22 80h-5c-48 -138 -112 -196 -203 -196c-142 0 -152 144 -133 241c25 127 112 235 303 235c21 0 41 -1 59 -4
c0 16 1 31 3 43c11 72 12 88 -53 88c0 24 4 52 13 75c82 2 162 15 228 41c26 -24 35 -37 26 -88zM259 124c34 0 86 47 118 212l11 46c-16 7 -45 11 -60 11c-52 0 -76 -55 -92 -129c-20 -94 -10 -140 23 -140z" />
    <glyph glyph-name="e" unicode="e" horiz-adv-x="519" 
d="M332 467c123 0 184 -55 170 -131c-13 -68 -108 -154 -274 -163c4 -46 27 -75 80 -75c44 0 84 16 112 31c15 -25 19 -49 17 -82c-61 -42 -117 -56 -210 -56c-182 0 -220 115 -196 243c27 140 142 233 301 233zM372 333c8 41 -5 62 -42 62c-38 0 -77 -36 -93 -124l-4 -21
c78 7 131 39 139 83z" />
    <glyph glyph-name="f" unicode="f" horiz-adv-x="414" 
d="M424 714c56 0 105 -8 126 -18c-13 -40 -26 -120 -26 -159c-17 -8 -69 -13 -101 -13c-1 46 5 115 -28 115c-37 0 -50 -40 -78 -191h92c0 -32 -2 -66 -10 -83c-36 0 -64 -3 -100 -13c-11 -63 -20 -120 -30 -185c-33 -216 -149 -415 -316 -415c-42 0 -80 14 -110 49
c0 31 9 76 23 104c32 -16 69 -22 107 -22c64 0 84 21 96 152c6 72 19 188 39 320c-33 11 -61 14 -81 14c0 28 3 60 14 79h81l1 6c31 164 83 260 301 260z" />
    <glyph glyph-name="g" unicode="g" horiz-adv-x="591" 
d="M548 467c28 -22 34 -45 27 -86l-46 -262c-37 -197 -133 -367 -352 -367c-80 0 -123 19 -167 54c0 26 9 71 23 99c53 -21 134 -32 187 -32c73 0 78 21 91 108c8 55 22 107 52 186l8 20h-4c-48 -138 -112 -196 -203 -196c-142 0 -152 144 -133 241c25 127 112 235 303 235
c48 0 85 -7 116 -17c45 4 75 9 98 17zM259 124c34 0 86 47 118 212l11 46c-16 7 -45 11 -60 11c-52 0 -76 -55 -92 -129c-20 -94 -10 -140 23 -140z" />
    <glyph glyph-name="h" unicode="h" horiz-adv-x="669" 
d="M618 118c13 -13 29 -43 32 -66c-44 -43 -104 -61 -162 -61c-118 0 -128 76 -104 181l15 65c10 42 9 83 -21 83c-43 0 -107 -83 -142 -269l-9 -51h-193l89 506c12 71 11 88 -53 88c0 24 4 52 13 75c82 2 162 15 228 41c26 -24 35 -37 26 -88c-42 -229 -58 -296 -77 -357
l22 46c44 90 127 156 220 156c87 0 132 -61 100 -200l-19 -83c-17 -72 -12 -80 2 -80c8 0 16 3 33 14z" />
    <glyph glyph-name="i" unicode="i" horiz-adv-x="346" 
d="M229 685c57 0 96 -39 86 -98c-9 -54 -50 -82 -125 -82c-60 0 -94 38 -86 96c8 54 53 84 125 84zM261 467c29 -16 45 -40 35 -96l-36 -187c-13 -68 -12 -80 3 -80c8 0 18 3 32 14c13 -13 29 -43 32 -66c-44 -43 -104 -61 -163 -61c-114 0 -124 73 -101 181l19 90
c15 72 12 89 -52 89c0 24 4 53 13 75c82 2 152 15 218 41z" />
    <glyph glyph-name="j" unicode="j" horiz-adv-x="309" 
d="M238 690c57 0 96 -39 86 -98c-9 -54 -50 -82 -125 -82c-60 0 -94 38 -86 96c8 54 53 84 125 84zM41 426c82 2 162 15 228 41c26 -24 35 -37 26 -88l-45 -254c-40 -227 -125 -308 -317 -371c-21 18 -31 43 -31 79c69 35 122 97 143 219l36 211c12 71 11 88 -53 88
c0 24 4 52 13 75z" />
    <glyph glyph-name="k" unicode="k" horiz-adv-x="607" 
d="M597 354c-11 -70 -64 -107 -158 -142c15 -18 24 -33 39 -62c14 -27 21 -40 40 -40c8 0 16 3 23 8c15 -14 31 -43 32 -66c-44 -43 -94 -61 -150 -61c-75 0 -101 32 -122 84c-19 47 -26 64 -42 91c-1 -12 -3 -23 -6 -37l-26 -129h-193l89 506c12 71 11 88 -53 88
c0 24 4 52 13 75c82 2 162 15 228 41c33 -28 34 -43 26 -88c-30 -168 -37 -200 -83 -336h1c47 101 136 181 237 181c69 0 117 -37 105 -113zM382 349c-39 0 -100 -51 -123 -139c108 20 153 43 162 92c5 27 -8 47 -39 47z" />
    <glyph glyph-name="l" unicode="l" horiz-adv-x="348" 
d="M256 184c-13 -69 -7 -80 7 -80c9 0 17 3 34 14c13 -13 29 -43 32 -66c-44 -43 -104 -61 -163 -61c-88 0 -113 44 -113 102c0 37 7 82 70 413c13 71 11 88 -53 88c0 24 4 52 13 75c82 2 162 15 228 41c26 -24 35 -37 26 -88c-26 -146 -53 -292 -81 -438z" />
    <glyph glyph-name="m" unicode="m" horiz-adv-x="978" 
d="M271 467c26 -15 34 -32 31 -65s-16 -75 -44 -137h1l22 46c46 94 133 156 218 156c73 0 99 -40 99 -102c0 -26 -4 -58 -19 -100h1l17 40c45 108 141 162 220 162c100 0 120 -75 91 -209l-16 -74c-16 -72 -12 -80 2 -80c8 0 16 3 33 14c13 -13 29 -43 32 -66
c-44 -43 -104 -61 -162 -61c-118 0 -130 76 -104 181l3 12c25 100 26 136 -4 136c-41 0 -107 -82 -140 -268l-9 -52h-188l36 190c19 98 20 130 -11 130c-43 0 -108 -76 -145 -270l-9 -50h-193l49 262c13 72 12 89 -52 89c0 24 4 53 13 75c82 2 162 15 228 41z" />
    <glyph glyph-name="n" unicode="n" horiz-adv-x="668" 
d="M617 118c13 -13 29 -43 32 -66c-44 -43 -104 -61 -162 -61c-118 0 -128 76 -104 181l15 65c10 42 9 83 -21 83c-43 0 -107 -83 -142 -270l-9 -50h-193l49 262c13 72 12 89 -52 89c0 24 4 53 13 75c82 2 162 15 228 41c26 -14 35 -37 31 -65c-6 -43 -15 -73 -38 -124v-3
l17 36c44 90 127 156 220 156c87 0 132 -61 100 -200l-19 -83c-17 -72 -12 -80 2 -80c8 0 16 3 33 14z" />
    <glyph glyph-name="o" unicode="o" horiz-adv-x="610" 
d="M338 467c175 0 262 -93 240 -240c-22 -150 -134 -236 -307 -236c-180 0 -262 97 -240 239c22 151 134 237 307 237zM325 395c-47 0 -79 -63 -93 -157c-17 -114 5 -175 50 -175c42 0 81 53 97 161c15 102 -5 171 -54 171z" />
    <glyph glyph-name="p" unicode="p" horiz-adv-x="621" 
d="M456 467c142 0 152 -144 133 -241c-25 -127 -112 -235 -303 -235c-25 0 -48 2 -68 5c3 -36 -5 -92 -18 -166l-13 -73h-193l89 506c12 71 11 88 -53 88c0 24 4 52 13 75c82 2 147 15 213 41c24 -23 31 -42 26 -75c-4 -28 -21 -92 -31 -121h2c48 138 112 196 203 196z
M384 194c20 94 10 140 -23 140c-34 0 -86 -47 -118 -212l-11 -46c16 -7 45 -11 60 -11c52 0 76 55 92 129z" />
    <glyph glyph-name="q" unicode="q" horiz-adv-x="608" 
d="M384 464c95 -9 165 -39 212 -86c-18 -28 -33 -62 -46 -137l-85 -483h-193l45 259c11 61 32 112 53 170h-3c-48 -138 -112 -196 -203 -196c-142 0 -152 144 -133 241c25 125 109 231 292 235h6h5c18 0 35 -1 50 -3zM259 124c34 0 86 47 118 212l11 46c-16 7 -45 11 -60 11
c-52 0 -76 -55 -92 -129c-20 -94 -10 -140 23 -140z" />
    <glyph glyph-name="r" unicode="r" horiz-adv-x="504" 
d="M251 467c29 -16 34 -39 29 -75c-5 -35 -23 -98 -45 -146h1l29 65c39 88 118 156 200 156c20 0 39 -4 54 -12c-21 -58 -36 -141 -37 -206c-30 -14 -71 -20 -108 -17c5 22 -10 43 -31 43c-15 0 -31 -10 -47 -34c-28 -42 -46 -109 -61 -191l-9 -50h-193l49 262
c13 72 12 89 -52 89c0 24 4 53 13 75c82 3 142 15 208 41z" />
    <glyph glyph-name="s" unicode="s" horiz-adv-x="478" 
d="M294 467c63 0 136 -16 179 -37c-12 -40 -18 -84 -19 -139c-31 -14 -68 -17 -102 -13c-3 68 -24 117 -69 117c-18 0 -33 -5 -37 -27c-17 -86 210 -118 182 -265c-17 -90 -88 -112 -247 -112c-86 0 -151 14 -191 40c15 39 23 84 24 137c30 10 66 13 105 9
c1 -73 24 -108 69 -108c23 0 34 10 37 24c15 68 -202 110 -174 259c18 94 112 115 243 115z" />
    <glyph glyph-name="t" unicode="t" horiz-adv-x="398" 
d="M296 352l-25 -109c-27 -116 -13 -137 17 -137c14 0 32 7 46 21c13 -19 24 -49 26 -74c-31 -36 -108 -62 -166 -62c-126 0 -155 99 -121 240l31 128c-28 7 -51 10 -69 10c0 28 3 60 14 79h77l2 10c14 60 20 96 22 124c54 5 116 21 150 38c51 -12 40 -82 21 -162l-2 -10h88
c0 -32 -2 -66 -10 -83c-36 0 -65 -3 -101 -13z" />
    <glyph glyph-name="u" unicode="u" 
d="M271 467c40 -25 40 -41 10 -179c-25 -114 -14 -135 17 -135c41 0 103 67 138 255l9 50h193l-44 -253c-16 -89 -13 -101 3 -101c7 0 17 5 29 14c15 -12 31 -42 32 -66c-44 -43 -104 -61 -163 -61c-106 0 -125 57 -113 117c3 15 7 31 15 48h-1
c-51 -104 -141 -165 -242 -165c-76 0 -122 39 -83 210c32 141 29 146 -41 150c0 24 4 53 13 75c82 2 162 15 228 41z" />
    <glyph glyph-name="v" unicode="v" horiz-adv-x="566" 
d="M503 467c38 -12 56 -42 56 -101c0 -110 -75 -215 -313 -375c-31 0 -72 6 -93 20c-22 120 -46 217 -66 281c-14 46 -31 61 -83 58c0 29 4 54 12 76c53 4 146 25 187 41c26 -8 35 -19 46 -56c28 -97 48 -190 62 -282c57 59 74 104 74 149c0 48 -29 75 -81 72
c0 29 4 54 12 76c53 4 146 25 187 41z" />
    <glyph glyph-name="w" unicode="w" horiz-adv-x="834" 
d="M763 467c38 -12 62 -42 62 -116c0 -95 -77 -210 -275 -360c-31 0 -69 6 -90 20c-10 66 -20 116 -41 177c-25 -74 -85 -140 -173 -197c-31 0 -72 6 -93 20c-22 120 -46 217 -66 281c-14 46 -31 61 -83 58c0 29 4 54 12 76c53 4 146 25 187 41c26 -8 35 -19 46 -56
c27 -95 47 -187 62 -277c66 89 66 157 27 292c50 8 89 21 125 41c26 -8 35 -19 49 -56c33 -97 58 -190 77 -281c49 54 65 97 65 136c0 60 -32 87 -84 84c0 29 1 54 9 76c53 4 143 25 184 41z" />
    <glyph glyph-name="x" unicode="x" horiz-adv-x="533" 
d="M510 269c-30 -14 -61 -20 -98 -17c3 25 -11 42 -30 42c-13 0 -24 -11 -34 -36c8 -35 25 -79 42 -113c15 -28 29 -35 49 -35c10 0 18 3 23 8c19 -19 28 -41 31 -66c-32 -37 -96 -61 -144 -61c-53 0 -95 20 -116 53c-17 26 -28 53 -32 74c-51 -92 -108 -127 -176 -127
c-20 0 -36 3 -50 12c15 48 26 127 26 175c30 14 67 18 104 15c-3 -25 10 -41 25 -41c11 0 20 5 29 21c-6 39 -19 80 -32 119c-17 49 -37 60 -87 58c-2 28 3 54 11 76c53 3 144 23 185 41c22 -4 41 -15 50 -53c10 -43 16 -79 16 -102c56 114 116 155 191 155
c20 0 39 -4 54 -12c-21 -58 -36 -121 -37 -186z" />
    <glyph glyph-name="y" unicode="y" horiz-adv-x="576" 
d="M515 467c38 -12 56 -42 56 -92c0 -59 -18 -112 -209 -332c-217 -251 -270 -291 -363 -291c-48 0 -86 14 -116 49c0 31 9 76 23 104c32 -16 69 -22 107 -22c66 0 107 11 161 60c-18 137 -40 236 -75 349c-14 46 -31 61 -83 58c0 29 4 54 12 76c53 4 146 25 187 41
c26 -8 35 -19 46 -56c29 -101 46 -201 56 -299c68 90 80 128 80 169c0 45 -29 72 -81 69c0 29 4 54 12 76c53 4 146 25 187 41z" />
    <glyph glyph-name="z" unicode="z" horiz-adv-x="460" 
d="M290 145c28 0 38 11 55 56c35 0 73 -8 99 -20c-18 -40 -27 -105 -28 -153c-10 -26 -31 -37 -96 -37c-59 0 -106 9 -186 9c-38 0 -78 -2 -132 -9c-15 22 -22 56 -17 82c122 83 214 158 285 231c-19 7 -34 9 -50 9c-38 0 -57 -10 -84 -72c-37 0 -83 10 -106 29
c32 62 52 120 61 188c35 5 100 9 188 9c76 0 119 -3 162 -9c14 -20 22 -47 22 -72c-63 -77 -148 -161 -258 -248c44 17 64 7 85 7z" />
    <glyph glyph-name="braceleft" unicode="{" horiz-adv-x="410" 
d="M447 754c14 -14 19 -48 14 -72c-245 -57 33 -402 -280 -423c289 -62 -84 -408 119 -472c2 -25 -6 -51 -24 -70c-403 73 7 412 -232 510c-1 20 4 46 16 62c263 61 -52 398 387 465z" />
    <glyph glyph-name="bar" unicode="|" horiz-adv-x="199" 
d="M-32 -231l183 947c32 0 58 -3 86 -15c-65 -313 -125 -630 -182 -951c-30 0 -62 4 -87 19z" />
    <glyph glyph-name="braceright" unicode="}" horiz-adv-x="404" 
d="M145 754c356 -116 -8 -344 217 -463c8 -20 7 -44 0 -62c-255 -86 23 -491 -414 -512c-14 25 -12 50 1 75c251 25 -32 401 285 464c-310 72 66 333 -123 434c2 24 14 50 34 64z" />
    <glyph glyph-name="asciitilde" unicode="~" horiz-adv-x="591" 
d="M215 374c89 0 133 -83 202 -83c37 0 69 17 110 68c26 -12 47 -39 51 -67c-60 -82 -114 -120 -169 -120c-94 0 -129 87 -207 87c-42 0 -85 -26 -124 -76c-26 9 -46 30 -50 61c80 105 144 130 187 130z" />
    <glyph glyph-name="uni00A0" unicode="&#xa0;" horiz-adv-x="200" 
 />
    <glyph glyph-name="exclamdown" unicode="&#xa1;" horiz-adv-x="427" 
d="M226 261c-57 0 -111 43 -96 122c10 52 44 84 108 84c74 0 119 -44 103 -123c-10 -53 -48 -83 -115 -83zM53 -165c26 80 71 243 105 378c36 3 74 0 101 -13c-13 -141 -19 -281 -19 -417c-55 -7 -120 -21 -166 -42c-30 9 -41 33 -21 94z" />
    <glyph glyph-name="cent" unicode="&#xa2;" horiz-adv-x="451" 
d="M451 322c-28 -10 -56 -12 -87 -6c3 42 -6 75 -42 75c-33 0 -69 -32 -85 -120c-20 -97 -15 -173 71 -173c44 0 84 16 112 31c15 -25 19 -49 17 -82c-56 -38 -107 -53 -187 -56l-22 -126c-30 0 -62 4 -87 19l22 113c-127 24 -153 126 -132 237c15 80 67 186 201 221l29 152
c32 0 58 -3 86 -15l-26 -125h11c56 0 110 -16 139 -36c-13 -38 -20 -75 -20 -109z" />
    <glyph glyph-name="sterling" unicode="&#xa3;" horiz-adv-x="639" 
d="M460 185c20 0 38 13 47 38c27 -4 58 -18 74 -33c-18 -109 -71 -199 -171 -199c-112 0 -136 47 -236 47c-53 0 -86 -12 -136 -46c-25 16 -41 50 -43 82c80 47 110 86 122 153c4 21 5 41 3 59c-37 0 -70 -1 -91 -2c-2 32 6 66 22 91h55c-9 42 -17 86 -8 139
c18 100 125 171 306 171c79 0 151 -20 190 -44c-15 -46 -25 -99 -26 -145c-26 -13 -73 -17 -107 -14c5 87 -36 124 -87 124c-35 0 -59 -25 -66 -66c-12 -67 24 -100 28 -165h124c2 -31 -7 -64 -21 -87h-114c-15 -46 -40 -75 -109 -132c73 43 105 51 150 51
c40 0 63 -22 94 -22z" />
    <glyph glyph-name="currency" unicode="&#xa4;" horiz-adv-x="527" 
d="M446 242c-6 -35 -20 -66 -40 -91l71 -75c-13 -16 -46 -27 -71 -29l-52 59c-29 -17 -63 -26 -100 -26c-39 0 -72 11 -98 29l-62 -59c-25 1 -52 17 -67 35l85 74c-20 36 -27 83 -18 132c5 28 16 53 32 74l-66 71c15 15 47 25 71 25l46 -51c29 17 63 26 101 26
c45 0 83 -12 112 -34l68 60c23 -5 47 -22 59 -40l-86 -67c17 -32 23 -71 15 -113zM173 277c-12 -69 24 -126 89 -126c53 0 95 35 104 87c12 72 -28 127 -96 127c-49 0 -87 -35 -97 -88z" />
    <glyph glyph-name="yen" unicode="&#xa5;" horiz-adv-x="606" 
d="M581 676c37 0 61 0 103 3c-1 -27 -6 -55 -14 -78c-22 -5 -38 -14 -79 -86c-21 -36 -42 -71 -63 -106h67c1 -31 -5 -64 -22 -87h-99l-39 -61l-1 -5h140c2 -30 -6 -63 -23 -87h-132c-10 -66 2 -82 84 -94c5 -25 5 -54 3 -78c-44 3 -115 3 -196 3c-89 0 -168 0 -222 -3
c2 29 10 58 18 78c78 10 97 20 112 92l-127 -2c-1 30 6 66 23 91h120l1 7l-16 58c-43 0 -76 -1 -110 -3c0 32 10 66 28 91h56c-10 33 -21 66 -32 100c-25 73 -39 85 -67 92c-4 19 -5 48 -1 78c51 -3 129 -3 157 -3c36 0 115 0 178 3c-1 -32 -7 -59 -14 -78
c-57 -7 -63 -32 -48 -80c16 -53 29 -110 40 -171c32 58 61 116 88 176c21 46 16 68 -29 75c-5 24 -5 50 -1 78c33 -3 88 -3 117 -3z" />
    <glyph glyph-name="brokenbar" unicode="&#xa6;" horiz-adv-x="200" 
d="M74 316l78 400c32 0 58 -3 86 -15c-29 -133 -54 -267 -77 -404c-30 0 -62 4 -87 19zM-31 -231l80 408c32 0 58 -3 86 -15c-29 -135 -56 -273 -79 -412c-30 0 -62 4 -87 19z" />
    <glyph glyph-name="section" unicode="&#xa7;" horiz-adv-x="533" 
d="M264 593c-23 -109 301 -131 262 -346c-17 -94 -89 -142 -156 -168c36 -42 59 -97 44 -175c-19 -100 -126 -152 -223 -152c-70 0 -116 7 -165 30c12 37 20 96 19 134c22 7 54 12 83 12c-1 -69 32 -99 83 -99c29 0 54 15 60 44c23 109 -301 131 -262 346
c17 94 89 142 156 168c-36 42 -59 97 -44 175c19 100 126 152 223 152c70 0 116 -7 165 -30c-12 -37 -20 -96 -19 -134c-22 -7 -54 -12 -83 -12c1 69 -32 99 -83 99c-29 0 -54 -15 -60 -44zM178 272c-9 -53 63 -87 130 -137c28 13 44 28 49 59c9 53 -62 87 -130 137
c-28 -13 -44 -28 -49 -59z" />
    <glyph glyph-name="dieresis" unicode="&#xa8;" horiz-adv-x="473" 
d="M106 604c9 48 39 75 93 75c62 0 93 -41 78 -105c-12 -49 -42 -77 -92 -77c-62 0 -92 43 -79 107zM507 576c-10 -51 -41 -79 -95 -79c-62 0 -93 40 -81 101c8 52 40 81 99 81c60 0 90 -39 77 -103z" />
    <glyph glyph-name="copyright" unicode="&#xa9;" horiz-adv-x="747" 
d="M399 577c232 0 358 -166 313 -398c-35 -188 -176 -296 -364 -296c-233 0 -358 159 -313 397c35 185 180 297 364 297zM358 -46c148 0 261 91 283 228c38 200 -56 325 -252 325c-147 0 -261 -92 -284 -229c-39 -198 60 -324 253 -324zM445 443c50 0 99 -14 125 -32
c-12 -34 -18 -68 -18 -98c-25 -9 -51 -11 -78 -6c2 38 -6 68 -38 68c-30 0 -62 -29 -77 -108c-18 -87 -13 -156 64 -156c40 0 76 15 101 28c13 -22 17 -44 15 -74c-55 -38 -105 -50 -189 -50c-164 0 -198 103 -176 219c17 88 82 209 271 209z" />
    <glyph glyph-name="ordfeminine" unicode="&#xaa;" horiz-adv-x="561" 
d="M531 473c11 -13 18 -48 14 -68c-33 -32 -72 -45 -117 -45c-65 0 -83 41 -75 88h-2c-41 -57 -93 -88 -145 -88c-97 0 -108 111 -94 180c18 93 83 177 227 177c38 0 65 -5 89 -13c32 3 63 7 89 13c23 -17 28 -35 21 -66l-30 -132c-10 -47 -7 -54 3 -54c6 0 14 3 20 8z
M288 481c22 0 51 39 75 139l5 21c-9 2 -19 3 -27 3c-22 0 -50 -26 -64 -101c-7 -33 -3 -62 11 -62z" />
    <glyph glyph-name="guillemotleft" unicode="&#xab;" horiz-adv-x="479" 
d="M192 413c29 2 56 -12 71 -29c-31 -34 -75 -87 -105 -129c12 -45 34 -101 54 -143c-20 -25 -37 -40 -65 -53c-36 47 -83 102 -126 146c3 33 15 70 31 90c52 38 94 74 140 118zM399 403c29 2 56 -12 71 -29c-30 -34 -63 -76 -92 -119c9 -45 23 -91 41 -133
c-20 -25 -37 -40 -65 -53c-36 49 -71 92 -113 136c3 33 15 70 31 90c50 37 92 72 127 108z" />
    <glyph glyph-name="logicalnot" unicode="&#xac;" horiz-adv-x="558" 
d="M524 356l-37 -235c-25 -11 -55 -13 -87 -7l26 160c-122 0 -237 -1 -390 -4c1 32 11 61 28 86h460z" />
    <glyph glyph-name="softhyphen" unicode="&#xad;" horiz-adv-x="328" 
d="M52 326h265c-1 -39 -7 -66 -21 -97c-66 0 -154 0 -269 -3c5 47 12 75 25 100z" />
    <glyph glyph-name="registered" unicode="&#xae;" horiz-adv-x="562" 
d="M325 685c129 0 226 -99 226 -226c0 -128 -97 -225 -226 -225c-125 0 -225 97 -225 225c0 127 100 226 225 226zM325 292c97 0 168 73 168 167c0 95 -71 168 -168 168c-94 0 -167 -73 -167 -168c0 -94 73 -167 167 -167zM414 497c0 -29 -11 -50 -33 -63l44 -73l-65 -6
l-32 62l-22 1v-59h-56v205h83c53 0 81 -23 81 -67zM306 519v-55c29 -9 44 -2 44 27c0 30 -16 37 -44 28z" />
    <glyph glyph-name="macron" unicode="&#xaf;" horiz-adv-x="434" 
d="M113 631h362c0 -15 -2 -38 -9 -58c-105 0 -223 -1 -362 -7c0 20 2 46 9 65z" />
    <glyph glyph-name="degree" unicode="&#xb0;" horiz-adv-x="418" 
d="M284 699c103 0 160 -64 143 -160c-14 -81 -77 -124 -171 -124c-100 0 -154 68 -137 165c13 81 77 119 165 119zM277 641c-23 0 -42 -22 -47 -54c-12 -67 1 -112 33 -112c26 0 48 25 54 63c11 62 -5 103 -40 103z" />
    <glyph glyph-name="plusminus" unicode="&#xb1;" horiz-adv-x="448" 
d="M286 380h148c2 -30 -5 -59 -20 -83h-143c-10 -56 -19 -107 -22 -132c-31 -7 -63 -4 -89 10l23 121c-47 -1 -95 -2 -140 -3c-2 32 4 62 21 87h136l26 137c27 12 61 13 89 3c-7 -28 -18 -81 -29 -140zM3 39c1 32 11 66 28 91h370c-1 -31 -10 -64 -27 -87
c-150 0 -258 0 -371 -4z" />
    <glyph glyph-name="twosuperior" unicode="&#xb2;" horiz-adv-x="382" 
d="M409 618c-7 -35 -32 -65 -89 -95c-30 -16 -61 -38 -82 -57c9 1 18 1 25 1c8 0 17 -1 28 -1c17 0 33 4 40 40c27 0 50 -1 71 -8c-6 -35 -17 -84 -17 -120c-7 -11 -19 -22 -44 -22c-35 0 -60 4 -129 4c-64 0 -108 -1 -147 -2c-7 17 -8 29 -4 52c30 32 71 68 116 100
c56 39 76 64 82 94c6 29 -6 48 -27 48c-25 0 -41 -40 -49 -87c-27 -3 -57 1 -77 9c10 32 19 88 20 121c47 16 89 22 152 22c75 0 148 -22 131 -99z" />
    <glyph glyph-name="threesuperior" unicode="&#xb3;" horiz-adv-x="370" 
d="M389 615c-8 -40 -33 -68 -92 -93c62 -15 96 -55 79 -131c-22 -98 -123 -146 -245 -146c-36 0 -79 11 -94 24c2 23 14 55 32 65c16 -8 38 -15 70 -15c52 0 94 27 103 71c11 46 -25 72 -85 68c-9 13 -11 39 -7 57c59 13 99 46 107 91c6 30 -5 46 -29 46
c-25 0 -39 -20 -56 -87c-19 -3 -53 1 -76 10c11 32 18 81 19 112c40 20 86 29 143 29c104 0 143 -41 131 -101z" />
    <glyph glyph-name="acute" unicode="&#xb4;" horiz-adv-x="287" 
d="M178 719c66 9 134 2 168 -17c-65 -63 -121 -128 -156 -181c-33 3 -67 15 -94 33c34 56 70 128 82 165z" />
    <glyph glyph-name="uni00B5" unicode="&#xb5;" horiz-adv-x="672" 
d="M305 458l-22 -130c-22 -126 -14 -175 30 -175c51 0 82 60 110 215l17 90h193l-44 -253c-16 -89 -13 -101 3 -101c7 0 17 5 29 14c15 -12 31 -42 32 -66c-44 -43 -104 -61 -163 -61c-73 0 -101 37 -87 107c2 10 5 21 7 28h-1c-35 -103 -79 -135 -131 -135
c-36 0 -57 16 -67 49h-1c2 -35 -3 -66 -10 -100c-8 -39 -12 -87 -7 -117c-59 -12 -154 -42 -200 -65c-15 10 -24 26 -18 56c6 32 26 62 47 173l90 471h193z" />
    <glyph glyph-name="paragraph" unicode="&#xb6;" horiz-adv-x="586" 
d="M557 677c30 0 59 0 91 2c0 -26 -5 -56 -14 -78c-51 -5 -60 -20 -75 -100c-59 -313 -77 -430 -128 -751c-30 0 -63 1 -88 12l147 835c-12 3 -24 5 -36 7c-56 -295 -98 -547 -147 -854c-30 0 -62 4 -87 19l90 512c-11 -1 -25 -2 -45 -2c-161 0 -224 82 -202 208
c22 127 141 194 346 194c51 0 101 -4 148 -4zM261 498c-17 -96 21 -137 62 -143l44 250c-66 -9 -94 -40 -106 -107z" />
    <glyph glyph-name="periodcentered" unicode="&#xb7;" horiz-adv-x="269" 
d="M154 382c57 0 111 -43 96 -122c-10 -52 -44 -84 -108 -84c-74 0 -119 44 -103 123c10 53 48 83 115 83z" />
    <glyph glyph-name="cedilla" unicode="&#xb8;" horiz-adv-x="251" 
d="M149 16l-59 -62c49 -16 64 -54 55 -102c-12 -62 -79 -97 -194 -94c-5 15 -3 36 1 51c44 -1 84 13 88 36c6 31 -19 45 -52 45c-8 14 -11 30 -9 47l80 79h90z" />
    <glyph glyph-name="onesuperior" unicode="&#xb9;" horiz-adv-x="336" 
d="M152 491l14 81c6 38 -3 59 -40 67c-5 22 -6 44 -2 71c39 -3 89 -3 123 -3c32 0 78 0 127 3c0 -25 -3 -44 -13 -71c-35 -4 -44 -22 -54 -68l-16 -77c-9 -47 -3 -56 36 -65c6 -23 6 -45 3 -72c-37 3 -73 3 -118 3c-53 0 -94 -1 -130 -3c2 26 7 51 18 72c39 7 44 17 52 62z
" />
    <glyph glyph-name="ordmasculine" unicode="&#xba;" horiz-adv-x="515" 
d="M344 717c128 0 198 -72 177 -192c-19 -112 -98 -168 -237 -168c-127 0 -193 81 -168 207c20 99 89 153 228 153zM329 647c-32 0 -51 -40 -61 -94c-10 -62 -1 -120 34 -120c31 0 51 39 62 95c13 79 -9 119 -35 119z" />
    <glyph glyph-name="guillemotright" unicode="&#xbb;" horiz-adv-x="484" 
d="M338 412c26 -31 73 -78 116 -115c9 -28 8 -63 0 -91c-68 -51 -130 -102 -187 -153c-25 15 -41 33 -51 60c41 37 86 82 117 119c-18 51 -40 101 -69 156c27 18 49 24 74 24zM140 402c25 -32 59 -68 98 -105c9 -28 8 -63 0 -91c-67 -51 -112 -90 -167 -143
c-25 15 -41 33 -51 60c40 36 75 72 102 109c-12 45 -30 93 -56 146c27 18 49 24 74 24z" />
    <glyph glyph-name="onequarter" unicode="&#xbc;" horiz-adv-x="962" 
d="M357 356c4 -26 5 -50 2 -78c-57 3 -101 3 -145 3c-62 0 -111 -1 -157 -3c3 29 8 51 19 78c49 7 63 17 78 102l6 34c15 86 7 98 -70 98c0 27 3 51 14 74c80 8 148 25 215 53c28 -14 39 -34 28 -88l-33 -168c-17 -87 -6 -96 43 -105zM252 59l536 658c30 -12 52 -38 58 -68
c-205 -245 -333 -402 -535 -658c-28 9 -55 40 -59 68zM937 155c-10 -22 -22 -68 -27 -99h-62l-11 -56h-176l12 55c-57 -1 -104 -2 -134 -3c-13 22 -20 66 -15 98c100 98 199 198 293 299c36 0 79 -5 103 -16l-48 -249h32c17 0 29 -12 33 -29zM682 228
c-29 -27 -56 -48 -80 -64h115l18 80c7 28 10 43 17 58c-19 -24 -41 -47 -70 -74z" />
    <glyph glyph-name="onehalf" unicode="&#xbd;" horiz-adv-x="1073" 
d="M104 664c80 8 148 25 215 53c28 -14 39 -34 28 -88l-33 -168c-17 -87 -6 -96 43 -105c4 -26 5 -50 2 -78c-57 3 -101 3 -145 3c-62 0 -111 -1 -157 -3c3 29 8 51 19 78c49 7 63 17 78 102l6 34c15 86 7 98 -70 98c0 27 3 51 14 74zM252 59l536 658c30 -12 52 -38 58 -68
c-205 -245 -333 -402 -535 -658c-28 9 -55 40 -59 68zM1054 324c-9 -50 -41 -83 -149 -131c-30 -13 -60 -30 -91 -50c13 1 25 1 38 1c24 0 42 -2 56 -2c20 0 30 8 40 51c26 5 63 -1 85 -13c-12 -47 -17 -102 -13 -142c-9 -25 -31 -41 -54 -41c-33 0 -74 3 -136 3
c-53 0 -102 0 -162 -3c-13 22 -19 59 -16 91c39 41 74 70 127 103c64 40 89 68 98 115c9 46 -6 69 -30 69s-33 -25 -53 -123c-37 0 -72 7 -95 19c13 41 18 88 18 131c52 34 96 47 175 47c109 0 175 -49 162 -125z" />
    <glyph glyph-name="threequarters" unicode="&#xbe;" horiz-adv-x="904" 
d="M194 59l536 658c30 -12 52 -38 58 -68c-205 -245 -333 -402 -535 -658c-28 9 -55 40 -59 68zM370 402c-19 -87 -127 -129 -215 -129c-65 0 -100 10 -120 26c2 22 14 53 31 62c15 -8 36 -17 64 -17c34 0 60 20 67 50c11 44 -8 75 -60 77c-6 14 -6 37 2 54
c68 8 96 45 103 86c5 29 -2 44 -25 44c-24 0 -37 -19 -53 -83c-18 -3 -51 1 -73 10c11 30 18 77 19 106c38 19 81 28 136 28c105 0 156 -38 144 -96c-8 -48 -41 -76 -105 -94c65 -14 101 -55 85 -124zM879 155c-10 -22 -22 -68 -27 -99h-62l-11 -56h-176l12 55
c-57 -1 -104 -2 -134 -3c-13 22 -20 66 -15 98c100 98 199 198 293 299c36 0 79 -5 103 -16l-48 -249h32c17 0 29 -12 33 -29zM624 228c-29 -27 -56 -48 -80 -64h115l18 80c7 28 10 43 17 58c-19 -24 -41 -47 -70 -74z" />
    <glyph glyph-name="questiondown" unicode="&#xbf;" horiz-adv-x="545" 
d="M259 261c-57 0 -111 43 -96 122c10 52 44 84 108 84c74 0 119 -44 103 -123c-10 -53 -48 -83 -115 -83zM351 -215c-54 -29 -119 -45 -180 -45c-147 0 -220 53 -202 147c25 133 197 135 224 270c3 20 3 36 0 58c23 14 60 21 90 19c29 -20 45 -75 35 -128
c-24 -124 -133 -127 -152 -223c-9 -48 9 -66 33 -66c26 0 49 25 83 134c44 0 71 -7 97 -23c-17 -55 -25 -95 -28 -143z" />
    <glyph glyph-name="Agrave" unicode="&#xc0;" horiz-adv-x="710" 
d="M488 760c-28 -8 -67 -8 -94 1c-31 52 -62 94 -112 153c48 13 107 19 162 9c9 -49 25 -112 44 -163zM658 75c4 -18 5 -48 1 -78c-40 3 -127 3 -159 3s-138 0 -177 -3c1 32 6 58 14 78c56 10 63 31 52 76l-4 15c-73 0 -150 -2 -229 -10l-3 -4c-22 -37 -14 -70 28 -77
c3 -24 4 -50 -2 -78c-22 2 -90 3 -123 3s-71 -1 -92 -3c1 30 5 53 15 78c33 6 53 25 102 101s122 197 299 500c27 6 46 6 77 6c62 -194 112 -380 137 -487c24 -103 36 -117 64 -120zM200 231h169c-10 40 -21 81 -33 121c-8 27 -14 63 -18 102c-18 -39 -36 -74 -50 -100
c-22 -41 -44 -82 -68 -123z" />
    <glyph glyph-name="Aacute" unicode="&#xc1;" horiz-adv-x="710" 
d="M605 920c-65 -63 -121 -128 -156 -181c-33 3 -67 15 -94 33c34 56 70 128 82 165c66 9 134 2 168 -17zM658 75c4 -18 5 -48 1 -78c-40 3 -127 3 -159 3s-138 0 -177 -3c1 32 6 58 14 78c56 10 63 31 52 76l-4 15c-73 0 -150 -2 -229 -10l-3 -4c-22 -37 -14 -70 28 -77
c3 -24 4 -50 -2 -78c-22 2 -90 3 -123 3s-71 -1 -92 -3c1 30 5 53 15 78c33 6 53 25 102 101s122 197 299 500c27 6 46 6 77 6c62 -194 112 -380 137 -487c24 -103 36 -117 64 -120zM200 231h169c-10 40 -21 81 -33 121c-8 27 -14 63 -18 102c-18 -39 -36 -74 -50 -100
c-22 -41 -44 -82 -68 -123z" />
    <glyph glyph-name="Acircumflex" unicode="&#xc2;" horiz-adv-x="710" 
d="M296 729c-33 13 -53 47 -57 70c64 36 143 93 191 138c26 4 59 2 85 -7c35 -49 76 -98 134 -160c-19 -18 -51 -29 -88 -31c-37 30 -81 59 -120 77c-45 -22 -112 -63 -145 -87zM658 75c4 -18 5 -48 1 -78c-40 3 -127 3 -159 3s-138 0 -177 -3c1 32 6 58 14 78
c56 10 63 31 52 76l-4 15c-73 0 -150 -2 -229 -10l-3 -4c-22 -37 -14 -70 28 -77c3 -24 4 -50 -2 -78c-22 2 -90 3 -123 3s-71 -1 -92 -3c1 30 5 53 15 78c33 6 53 25 102 101s122 197 299 500c27 6 46 6 77 6c62 -194 112 -380 137 -487c24 -103 36 -117 64 -120zM200 231
h169c-10 40 -21 81 -33 121c-8 27 -14 63 -18 102c-18 -39 -36 -74 -50 -100c-22 -41 -44 -82 -68 -123z" />
    <glyph glyph-name="Atilde" unicode="&#xc3;" horiz-adv-x="710" 
d="M358 764c-34 0 -79 -22 -111 -47c-20 25 -30 47 -30 82c77 90 134 106 174 106c69 0 98 -41 143 -41c41 0 72 20 92 35c20 -20 34 -43 38 -73c-55 -76 -99 -108 -157 -108c-74 0 -96 46 -149 46zM594 195c24 -103 36 -117 64 -120c4 -18 5 -48 1 -78c-40 3 -127 3 -159 3
s-138 0 -177 -3c1 32 6 58 14 78c56 10 63 31 52 76l-4 15c-73 0 -150 -2 -229 -10l-3 -4c-22 -37 -14 -70 28 -77c3 -24 4 -50 -2 -78c-22 2 -90 3 -123 3s-71 -1 -92 -3c1 30 5 53 15 78c33 6 53 25 102 101s122 197 299 500c27 6 46 6 77 6c62 -194 112 -380 137 -487z
M200 231h169c-10 40 -21 81 -33 121c-8 27 -14 63 -18 102c-18 -39 -36 -74 -50 -100c-22 -41 -44 -82 -68 -123z" />
    <glyph glyph-name="Adieresis" unicode="&#xc4;" horiz-adv-x="710" 
d="M323 715c-62 0 -92 43 -79 107c9 48 39 75 93 75c62 0 93 -41 78 -105c-12 -49 -42 -77 -92 -77zM550 715c-62 0 -93 40 -81 101c8 52 40 81 99 81c60 0 90 -39 77 -103c-10 -51 -41 -79 -95 -79zM658 75c4 -18 5 -48 1 -78c-40 3 -127 3 -159 3s-138 0 -177 -3
c1 32 6 58 14 78c56 10 63 31 52 76l-4 15c-73 0 -150 -2 -229 -10l-3 -4c-22 -37 -14 -70 28 -77c3 -24 4 -50 -2 -78c-22 2 -90 3 -123 3s-71 -1 -92 -3c1 30 5 53 15 78c33 6 53 25 102 101s122 197 299 500c27 6 46 6 77 6c62 -194 112 -380 137 -487
c24 -103 36 -117 64 -120zM200 231h169c-10 40 -21 81 -33 121c-8 27 -14 63 -18 102c-18 -39 -36 -74 -50 -100c-22 -41 -44 -82 -68 -123z" />
    <glyph glyph-name="Aring" unicode="&#xc5;" horiz-adv-x="710" 
d="M437 734c-99 0 -138 54 -122 118c16 63 74 95 149 95c94 0 137 -50 121 -117c-15 -62 -70 -96 -148 -96zM418 843c-4 -27 3 -49 26 -49c19 0 35 16 40 43c4 23 -1 55 -27 55c-20 0 -35 -19 -39 -49zM658 75c4 -18 5 -48 1 -78c-40 3 -127 3 -159 3s-138 0 -177 -3
c1 32 6 58 14 78c56 10 63 31 52 76l-4 15c-73 0 -150 -2 -229 -10l-3 -4c-22 -37 -14 -70 28 -77c3 -24 4 -50 -2 -78c-22 2 -90 3 -123 3s-71 -1 -92 -3c1 30 5 53 15 78c33 6 53 25 102 101s122 197 299 500c27 6 46 6 77 6c62 -194 112 -380 137 -487
c24 -103 36 -117 64 -120zM200 231h169c-10 40 -21 81 -33 121c-8 27 -14 63 -18 102c-18 -39 -36 -74 -50 -100c-22 -41 -44 -82 -68 -123z" />
    <glyph glyph-name="AE" unicode="&#xc6;" horiz-adv-x="917" 
d="M653 601l-42 -249h9c60 0 78 17 85 73c28 6 59 8 91 5c-9 -37 -17 -79 -24 -129c-5 -36 -9 -76 -10 -110c-32 1 -60 5 -86 15c0 39 -7 80 -66 80h-10l-17 -104c-16 -92 -2 -107 59 -107h14c68 0 111 36 144 143c41 -6 68 -16 97 -38c-16 -47 -35 -117 -43 -183
c-60 3 -180 3 -265 3c-70 0 -236 0 -300 -3c1 27 6 51 19 79c52 4 60 19 78 121l16 88c-63 -1 -106 -3 -143 -7l-81 -115c-45 -63 -39 -81 3 -88c3 -24 4 -50 -2 -78c-22 2 -90 3 -123 3s-71 -1 -92 -3c1 30 5 53 15 78c33 6 56 18 112 91c45 60 111 151 251 348
c29 41 22 82 -39 87c-6 22 -6 55 -1 78c98 -3 139 -3 209 -3h2h142c150 0 225 1 282 3c-9 -55 -14 -122 -9 -182c-31 -8 -64 -12 -98 -12c-5 70 -22 116 -121 116h-56zM413 352l18 99c8 47 17 89 30 131c-40 -68 -82 -133 -150 -230h102z" />
    <glyph glyph-name="Ccedilla" unicode="&#xc7;" horiz-adv-x="614" 
d="M628 477c-26 -10 -62 -13 -95 -7c13 111 -26 138 -88 138c-103 0 -168 -127 -191 -261c-26 -150 11 -262 147 -262c42 0 91 10 148 38c16 -17 23 -41 25 -69c-59 -38 -126 -60 -209 -63l-36 -37c49 -16 64 -54 55 -102c-12 -62 -79 -97 -194 -94c-5 15 -3 36 1 51
c44 -1 84 13 88 36c6 31 -19 45 -52 45c-8 14 -11 30 -9 47l60 59c-175 28 -260 171 -226 366c37 216 219 323 391 323c81 0 154 -13 218 -53c-16 -47 -27 -98 -33 -155z" />
    <glyph glyph-name="Egrave" unicode="&#xc8;" horiz-adv-x="638" 
d="M452 760c-28 -8 -67 -8 -94 1c-31 52 -62 94 -112 153c48 13 107 19 162 9c9 -49 25 -112 44 -163zM374 601l-37 -219h6c60 0 78 11 85 67c28 6 59 8 91 5c-9 -37 -17 -79 -24 -129c-5 -36 -9 -76 -10 -110c-32 1 -60 5 -86 15c0 39 -7 77 -66 77h-8l-21 -125
c-16 -92 -2 -107 59 -107h14c68 0 111 36 144 143c41 -6 68 -16 97 -38c-16 -47 -35 -117 -43 -183c-60 3 -180 3 -265 3c-70 0 -236 0 -300 -3c1 27 6 51 19 79c52 4 60 19 78 121l53 304c14 80 0 92 -52 100c-4 25 -5 48 0 78c61 -3 195 -3 271 -3c148 0 222 1 279 3
c-9 -55 -14 -122 -9 -182c-31 -8 -64 -12 -98 -12c-5 70 -22 116 -121 116h-56z" />
    <glyph glyph-name="Eacute" unicode="&#xc9;" horiz-adv-x="638" 
d="M569 920c-65 -63 -121 -128 -156 -181c-33 3 -67 15 -94 33c34 56 70 128 82 165c66 9 134 2 168 -17zM374 601l-37 -219h6c60 0 78 11 85 67c28 6 59 8 91 5c-9 -37 -17 -79 -24 -129c-5 -36 -9 -76 -10 -110c-32 1 -60 5 -86 15c0 39 -7 77 -66 77h-8l-21 -125
c-16 -92 -2 -107 59 -107h14c68 0 111 36 144 143c41 -6 68 -16 97 -38c-16 -47 -35 -117 -43 -183c-60 3 -180 3 -265 3c-70 0 -236 0 -300 -3c1 27 6 51 19 79c52 4 60 19 78 121l53 304c14 80 0 92 -52 100c-4 25 -5 48 0 78c61 -3 195 -3 271 -3c148 0 222 1 279 3
c-9 -55 -14 -122 -9 -182c-31 -8 -64 -12 -98 -12c-5 70 -22 116 -121 116h-56z" />
    <glyph glyph-name="Ecircumflex" unicode="&#xca;" horiz-adv-x="638" 
d="M260 729c-33 13 -53 47 -57 70c64 36 143 93 191 138c26 4 59 2 85 -7c35 -49 76 -98 134 -160c-19 -18 -51 -29 -88 -31c-37 30 -81 59 -120 77c-45 -22 -112 -63 -145 -87zM374 601l-37 -219h6c60 0 78 11 85 67c28 6 59 8 91 5c-9 -37 -17 -79 -24 -129
c-5 -36 -9 -76 -10 -110c-32 1 -60 5 -86 15c0 39 -7 77 -66 77h-8l-21 -125c-16 -92 -2 -107 59 -107h14c68 0 111 36 144 143c41 -6 68 -16 97 -38c-16 -47 -35 -117 -43 -183c-60 3 -180 3 -265 3c-70 0 -236 0 -300 -3c1 27 6 51 19 79c52 4 60 19 78 121l53 304
c14 80 0 92 -52 100c-4 25 -5 48 0 78c61 -3 195 -3 271 -3c148 0 222 1 279 3c-9 -55 -14 -122 -9 -182c-31 -8 -64 -12 -98 -12c-5 70 -22 116 -121 116h-56z" />
    <glyph glyph-name="Edieresis" unicode="&#xcb;" horiz-adv-x="638" 
d="M287 715c-62 0 -92 43 -79 107c9 48 39 75 93 75c62 0 93 -41 78 -105c-12 -49 -42 -77 -92 -77zM514 715c-62 0 -93 40 -81 101c8 52 40 81 99 81c60 0 90 -39 77 -103c-10 -51 -41 -79 -95 -79zM374 601l-37 -219h6c60 0 78 11 85 67c28 6 59 8 91 5
c-9 -37 -17 -79 -24 -129c-5 -36 -9 -76 -10 -110c-32 1 -60 5 -86 15c0 39 -7 77 -66 77h-8l-21 -125c-16 -92 -2 -107 59 -107h14c68 0 111 36 144 143c41 -6 68 -16 97 -38c-16 -47 -35 -117 -43 -183c-60 3 -180 3 -265 3c-70 0 -236 0 -300 -3c1 27 6 51 19 79
c52 4 60 19 78 121l53 304c14 80 0 92 -52 100c-4 25 -5 48 0 78c61 -3 195 -3 271 -3c148 0 222 1 279 3c-9 -55 -14 -122 -9 -182c-31 -8 -64 -12 -98 -12c-5 70 -22 116 -121 116h-56z" />
    <glyph glyph-name="Igrave" unicode="&#xcc;" horiz-adv-x="414" 
d="M303 923c9 -49 25 -112 44 -163c-28 -8 -67 -8 -94 1c-31 52 -62 94 -112 153c48 13 107 19 162 9zM103 177l55 324c13 78 8 92 -49 100c-4 22 -5 51 -1 78c49 -3 104 -3 168 -3c52 0 113 0 172 3c0 -25 -4 -51 -14 -78c-55 -6 -61 -19 -79 -120l-52 -301
c-15 -85 -6 -96 43 -105c4 -26 5 -50 2 -78c-57 3 -98 3 -163 3c-73 0 -129 -1 -175 -3c3 29 8 51 19 78c49 7 59 18 74 102z" />
    <glyph glyph-name="Iacute" unicode="&#xcd;" horiz-adv-x="414" 
d="M296 937c66 9 134 2 168 -17c-65 -63 -121 -128 -156 -181c-33 3 -67 15 -94 33c34 56 70 128 82 165zM103 177l55 324c13 78 8 92 -49 100c-4 22 -5 51 -1 78c49 -3 104 -3 168 -3c52 0 113 0 172 3c0 -25 -4 -51 -14 -78c-55 -6 -61 -19 -79 -120l-52 -301
c-15 -85 -6 -96 43 -105c4 -26 5 -50 2 -78c-57 3 -98 3 -163 3c-73 0 -129 -1 -175 -3c3 29 8 51 19 78c49 7 59 18 74 102z" />
    <glyph glyph-name="Icircumflex" unicode="&#xce;" horiz-adv-x="414" 
d="M289 937c26 4 59 2 85 -7c35 -49 76 -98 134 -160c-19 -18 -51 -29 -88 -31c-37 30 -81 59 -120 77c-45 -22 -112 -63 -145 -87c-33 13 -53 47 -57 70c64 36 143 93 191 138zM103 177l55 324c13 78 8 92 -49 100c-4 22 -5 51 -1 78c49 -3 104 -3 168 -3c52 0 113 0 172 3
c0 -25 -4 -51 -14 -78c-55 -6 -61 -19 -79 -120l-52 -301c-15 -85 -6 -96 43 -105c4 -26 5 -50 2 -78c-57 3 -98 3 -163 3c-73 0 -129 -1 -175 -3c3 29 8 51 19 78c49 7 59 18 74 102z" />
    <glyph glyph-name="Idieresis" unicode="&#xcf;" horiz-adv-x="414" 
d="M103 822c9 48 39 75 93 75c62 0 93 -41 78 -105c-12 -49 -42 -77 -92 -77c-62 0 -92 43 -79 107zM504 794c-10 -51 -41 -79 -95 -79c-62 0 -93 40 -81 101c8 52 40 81 99 81c60 0 90 -39 77 -103zM103 177l55 324c13 78 8 92 -49 100c-4 22 -5 51 -1 78
c49 -3 104 -3 168 -3c52 0 113 0 172 3c0 -25 -4 -51 -14 -78c-55 -6 -61 -19 -79 -120l-52 -301c-15 -85 -6 -96 43 -105c4 -26 5 -50 2 -78c-57 3 -98 3 -163 3c-73 0 -129 -1 -175 -3c3 29 8 51 19 78c49 7 59 18 74 102z" />
    <glyph glyph-name="Eth" unicode="&#xd0;" horiz-adv-x="733" 
d="M420 678c199 0 357 -61 308 -343c-55 -314 -321 -335 -420 -335h-3c-71 0 -242 0 -295 -3c1 27 6 51 18 78c52 4 60 20 77 122l16 91c-35 -1 -59 -1 -69 -2c-2 28 1 55 15 80h67l23 135c14 80 3 94 -49 100c-5 27 -5 58 0 78c46 -2 130 -3 202 -3c30 0 66 2 110 2z
M530 357c35 203 -29 246 -107 246c-19 0 -35 -3 -54 -12l-38 -225h81c4 -26 1 -55 -11 -77h-82l-18 -107c-16 -92 -4 -107 56 -107c30 0 129 31 173 282z" />
    <glyph glyph-name="Ntilde" unicode="&#xd1;" horiz-adv-x="712" 
d="M394 764c-34 0 -79 -22 -111 -47c-20 25 -30 47 -30 82c77 90 134 106 174 106c69 0 98 -41 143 -41c41 0 72 20 92 35c20 -20 34 -43 38 -73c-55 -76 -99 -108 -157 -108c-74 0 -96 46 -149 46zM648 676c38 0 85 0 127 3c-1 -27 -7 -58 -15 -78
c-57 -18 -70 -39 -88 -143l-80 -457c-28 -8 -55 -10 -92 -10c-82 161 -170 320 -262 477l-43 -250c-18 -104 -15 -126 56 -143c4 -24 4 -52 1 -78c-45 3 -89 3 -119 3c-38 0 -85 0 -127 -3c1 27 7 58 15 78c58 18 80 38 98 143l61 347l-5 8c-12 20 -23 25 -66 28
c-5 24 -5 48 -1 78c41 -3 88 -3 127 -3c37 0 81 0 116 3c77 -123 152 -255 217 -385l25 164c16 104 9 126 -63 143c-4 24 -4 52 -1 78c45 -3 89 -3 119 -3z" />
    <glyph glyph-name="Ograve" unicode="&#xd2;" horiz-adv-x="742" 
d="M469 923c9 -49 25 -112 44 -163c-28 -8 -67 -8 -94 1c-31 52 -62 94 -112 153c48 13 107 19 162 9zM444 685c213 0 333 -140 293 -351c-39 -205 -191 -343 -398 -343c-220 0 -330 151 -290 360c41 213 197 334 395 334zM434 610c-85 0 -150 -98 -180 -255
c-31 -160 -8 -286 94 -286c87 0 156 113 187 284c26 143 -9 257 -101 257z" />
    <glyph glyph-name="Oacute" unicode="&#xd3;" horiz-adv-x="742" 
d="M462 937c66 9 134 2 168 -17c-65 -63 -121 -128 -156 -181c-33 3 -67 15 -94 33c34 56 70 128 82 165zM444 685c213 0 333 -140 293 -351c-39 -205 -191 -343 -398 -343c-220 0 -330 151 -290 360c41 213 197 334 395 334zM434 610c-85 0 -150 -98 -180 -255
c-31 -160 -8 -286 94 -286c87 0 156 113 187 284c26 143 -9 257 -101 257z" />
    <glyph glyph-name="Ocircumflex" unicode="&#xd4;" horiz-adv-x="742" 
d="M455 937c26 4 59 2 85 -7c35 -49 76 -98 134 -160c-19 -18 -51 -29 -88 -31c-37 30 -81 59 -120 77c-45 -22 -112 -63 -145 -87c-33 13 -53 47 -57 70c64 36 143 93 191 138zM444 685c213 0 333 -140 293 -351c-39 -205 -191 -343 -398 -343c-220 0 -330 151 -290 360
c41 213 197 334 395 334zM434 610c-85 0 -150 -98 -180 -255c-31 -160 -8 -286 94 -286c87 0 156 113 187 284c26 143 -9 257 -101 257z" />
    <glyph glyph-name="Otilde" unicode="&#xd5;" horiz-adv-x="742" 
d="M416 905c69 0 98 -41 143 -41c41 0 72 20 92 35c20 -20 34 -43 38 -73c-55 -76 -99 -108 -157 -108c-74 0 -96 46 -149 46c-34 0 -79 -22 -111 -47c-20 25 -30 47 -30 82c77 90 134 106 174 106zM444 685c213 0 333 -140 293 -351c-39 -205 -191 -343 -398 -343
c-220 0 -330 151 -290 360c41 213 197 334 395 334zM434 610c-85 0 -150 -98 -180 -255c-31 -160 -8 -286 94 -286c87 0 156 113 187 284c26 143 -9 257 -101 257z" />
    <glyph glyph-name="Odieresis" unicode="&#xd6;" horiz-adv-x="742" 
d="M269 822c9 48 39 75 93 75c62 0 93 -41 78 -105c-12 -49 -42 -77 -92 -77c-62 0 -92 43 -79 107zM670 794c-10 -51 -41 -79 -95 -79c-62 0 -93 40 -81 101c8 52 40 81 99 81c60 0 90 -39 77 -103zM444 685c213 0 333 -140 293 -351c-39 -205 -191 -343 -398 -343
c-220 0 -330 151 -290 360c41 213 197 334 395 334zM434 610c-85 0 -150 -98 -180 -255c-31 -160 -8 -286 94 -286c87 0 156 113 187 284c26 143 -9 257 -101 257z" />
    <glyph glyph-name="multiply" unicode="&#xd7;" horiz-adv-x="627" 
d="M612 440c-70 -57 -156 -130 -239 -204l190 -215c-16 -20 -46 -30 -82 -28c-36 44 -98 116 -165 192c-87 -78 -167 -152 -220 -201c-29 4 -58 19 -72 45l241 215c-74 82 -148 163 -196 213c21 17 57 25 87 23l165 -186l211 188c34 0 68 -20 80 -42z" />
    <glyph glyph-name="Oslash" unicode="&#xd8;" horiz-adv-x="742" 
d="M743 648l-59 -57c53 -62 73 -150 53 -257c-39 -205 -191 -343 -398 -343c-71 0 -130 16 -177 44l-38 -44c-35 0 -71 17 -81 44l54 57c-50 64 -68 154 -48 259c41 213 197 334 395 334c69 0 129 -15 176 -42l40 42c41 0 68 -12 83 -37zM254 355c-8 -40 -12 -77 -13 -111
l284 299c-17 42 -48 67 -91 67c-85 0 -150 -98 -180 -255zM535 353c6 35 9 67 8 97c-100 -102 -192 -202 -288 -310c16 -44 46 -71 93 -71c87 0 156 113 187 284z" />
    <glyph glyph-name="Ugrave" unicode="&#xd9;" 
d="M503 923c9 -49 25 -112 44 -163c-28 -8 -67 -8 -94 1c-31 52 -62 94 -112 153c48 13 107 19 162 9zM103 679c49 -3 104 -3 168 -3c52 0 113 0 172 3c0 -25 -4 -51 -14 -78c-55 -6 -61 -19 -79 -120l-39 -215c-24 -135 4 -194 74 -194c87 0 128 79 149 195l37 210
c19 105 16 112 -37 124c-4 24 -5 48 -1 78c43 -3 83 -3 108 -3c43 0 68 0 104 3c-1 -26 -6 -56 -14 -78c-55 -7 -61 -13 -82 -135l-33 -189c-37 -206 -106 -286 -279 -286c-195 0 -258 93 -227 268l43 242c13 78 8 92 -49 100c-4 22 -5 51 -1 78z" />
    <glyph glyph-name="Uacute" unicode="&#xda;" 
d="M496 937c66 9 134 2 168 -17c-65 -63 -121 -128 -156 -181c-33 3 -67 15 -94 33c34 56 70 128 82 165zM103 679c49 -3 104 -3 168 -3c52 0 113 0 172 3c0 -25 -4 -51 -14 -78c-55 -6 -61 -19 -79 -120l-39 -215c-24 -135 4 -194 74 -194c87 0 128 79 149 195l37 210
c19 105 16 112 -37 124c-4 24 -5 48 -1 78c43 -3 83 -3 108 -3c43 0 68 0 104 3c-1 -26 -6 -56 -14 -78c-55 -7 -61 -13 -82 -135l-33 -189c-37 -206 -106 -286 -279 -286c-195 0 -258 93 -227 268l43 242c13 78 8 92 -49 100c-4 22 -5 51 -1 78z" />
    <glyph glyph-name="Ucircumflex" unicode="&#xdb;" 
d="M489 937c26 4 59 2 85 -7c35 -49 76 -98 134 -160c-19 -18 -51 -29 -88 -31c-37 30 -81 59 -120 77c-45 -22 -112 -63 -145 -87c-33 13 -53 47 -57 70c64 36 143 93 191 138zM103 679c49 -3 104 -3 168 -3c52 0 113 0 172 3c0 -25 -4 -51 -14 -78
c-55 -6 -61 -19 -79 -120l-39 -215c-24 -135 4 -194 74 -194c87 0 128 79 149 195l37 210c19 105 16 112 -37 124c-4 24 -5 48 -1 78c43 -3 83 -3 108 -3c43 0 68 0 104 3c-1 -26 -6 -56 -14 -78c-55 -7 -61 -13 -82 -135l-33 -189c-37 -206 -106 -286 -279 -286
c-195 0 -258 93 -227 268l43 242c13 78 8 92 -49 100c-4 22 -5 51 -1 78z" />
    <glyph glyph-name="Udieresis" unicode="&#xdc;" 
d="M303 822c9 48 39 75 93 75c62 0 93 -41 78 -105c-12 -49 -42 -77 -92 -77c-62 0 -92 43 -79 107zM704 794c-10 -51 -41 -79 -95 -79c-62 0 -93 40 -81 101c8 52 40 81 99 81c60 0 90 -39 77 -103zM103 679c49 -3 104 -3 168 -3c52 0 113 0 172 3c0 -25 -4 -51 -14 -78
c-55 -6 -61 -19 -79 -120l-39 -215c-24 -135 4 -194 74 -194c87 0 128 79 149 195l37 210c19 105 16 112 -37 124c-4 24 -5 48 -1 78c43 -3 83 -3 108 -3c43 0 68 0 104 3c-1 -26 -6 -56 -14 -78c-55 -7 -61 -13 -82 -135l-33 -189c-37 -206 -106 -286 -279 -286
c-195 0 -258 93 -227 268l43 242c13 78 8 92 -49 100c-4 22 -5 51 -1 78z" />
    <glyph glyph-name="Yacute" unicode="&#xdd;" horiz-adv-x="606" 
d="M593 920c-65 -63 -121 -128 -156 -181c-33 3 -67 15 -94 33c34 56 70 128 82 165c66 9 134 2 168 -17zM581 676c37 0 61 0 103 3c-1 -27 -6 -55 -14 -78c-22 -5 -38 -14 -79 -86c-51 -88 -103 -172 -156 -254l-13 -74c-14 -81 -8 -99 81 -112c5 -25 5 -54 3 -78
c-44 3 -115 3 -196 3c-89 0 -168 0 -222 -3c2 29 10 58 18 78c88 11 101 23 118 122l11 66c-22 82 -46 163 -74 246c-25 73 -39 85 -67 92c-4 19 -5 48 -1 78c51 -3 129 -3 157 -3c36 0 115 0 178 3c-1 -32 -7 -59 -14 -78c-57 -7 -63 -32 -48 -80c16 -53 29 -110 40 -171
c32 58 61 116 88 176c21 46 16 68 -29 75c-5 24 -5 50 -1 78c33 -3 88 -3 117 -3z" />
    <glyph glyph-name="Thorn" unicode="&#xde;" horiz-adv-x="653" 
d="M368 544l96 1c169 0 214 -96 197 -196c-22 -125 -123 -200 -264 -200c-34 0 -55 3 -71 13c-1 24 4 52 13 70c5 -2 11 -3 20 -3c51 0 97 39 111 117s-11 120 -77 120c-13 0 -27 -2 -42 -7l-48 -279c-15 -85 -6 -96 43 -105c4 -26 5 -50 2 -78c-57 3 -98 3 -163 3
c-73 0 -129 -1 -175 -3c3 29 8 51 19 78c49 7 59 18 74 102l55 324c13 78 8 92 -49 100c-4 22 -5 51 -1 78c49 -3 104 -3 168 -3c52 0 113 0 172 3c0 -25 -4 -51 -14 -78c-40 -4 -54 -13 -66 -57z" />
    <glyph glyph-name="germandbls" unicode="&#xdf;" horiz-adv-x="757" 
d="M548 388c-15 -76 191 -118 163 -265c-17 -90 -86 -132 -245 -132c-86 0 -141 14 -181 40c15 39 23 84 24 137c30 10 66 13 105 9c1 -73 14 -108 52 -108c23 0 40 16 44 34c17 78 -185 120 -159 259c18 94 158 76 177 176c13 69 -29 101 -93 101c-69 0 -90 -38 -118 -191
c-20 -105 -33 -184 -48 -281c-33 -216 -149 -415 -316 -415c-42 0 -80 14 -110 49c0 31 9 76 23 104c32 -16 69 -22 107 -22c64 0 84 21 96 152c6 72 19 188 39 320c-33 11 -61 14 -81 14c0 28 3 60 14 79h81l1 6c31 164 83 260 331 260c179 0 262 -60 243 -158
c-21 -110 -133 -87 -149 -168z" />
    <glyph glyph-name="agrave" unicode="&#xe0;" horiz-adv-x="625" 
d="M433 542c-28 -8 -67 -8 -94 1c-31 52 -62 94 -112 153c48 13 107 19 162 9c9 -49 25 -112 44 -163zM574 118c13 -13 29 -43 32 -66c-44 -43 -94 -61 -156 -61c-86 0 -109 55 -100 119c4 27 8 44 20 77h-3c-48 -138 -112 -196 -203 -196c-142 0 -152 144 -133 241
c25 127 112 235 303 235c47 0 84 -7 115 -17c38 4 74 9 109 17c28 -22 35 -47 26 -88l-45 -195c-16 -68 -13 -80 4 -80c9 0 17 3 31 14zM259 124c34 0 86 47 118 212l11 46c-16 7 -45 11 -60 11c-52 0 -76 -55 -92 -129c-20 -94 -10 -140 23 -140z" />
    <glyph glyph-name="aacute" unicode="&#xe1;" horiz-adv-x="625" 
d="M550 702c-65 -63 -121 -128 -156 -181c-33 3 -67 15 -94 33c34 56 70 128 82 165c66 9 134 2 168 -17zM574 118c13 -13 29 -43 32 -66c-44 -43 -94 -61 -156 -61c-86 0 -109 55 -100 119c4 27 8 44 20 77h-3c-48 -138 -112 -196 -203 -196c-142 0 -152 144 -133 241
c25 127 112 235 303 235c47 0 84 -7 115 -17c38 4 74 9 109 17c28 -22 35 -47 26 -88l-45 -195c-16 -68 -13 -80 4 -80c9 0 17 3 31 14zM259 124c34 0 86 47 118 212l11 46c-16 7 -45 11 -60 11c-52 0 -76 -55 -92 -129c-20 -94 -10 -140 23 -140z" />
    <glyph glyph-name="acircumflex" unicode="&#xe2;" horiz-adv-x="625" 
d="M241 511c-33 13 -53 47 -57 70c64 36 143 93 191 138c26 4 59 2 85 -7c35 -49 76 -98 134 -160c-19 -18 -51 -29 -88 -31c-37 30 -81 59 -120 77c-45 -22 -112 -63 -145 -87zM574 118c13 -13 29 -43 32 -66c-44 -43 -94 -61 -156 -61c-86 0 -109 55 -100 119
c4 27 8 44 20 77h-3c-48 -138 -112 -196 -203 -196c-142 0 -152 144 -133 241c25 127 112 235 303 235c47 0 84 -7 115 -17c38 4 74 9 109 17c28 -22 35 -47 26 -88l-45 -195c-16 -68 -13 -80 4 -80c9 0 17 3 31 14zM259 124c34 0 86 47 118 212l11 46c-16 7 -45 11 -60 11
c-52 0 -76 -55 -92 -129c-20 -94 -10 -140 23 -140z" />
    <glyph glyph-name="atilde" unicode="&#xe3;" horiz-adv-x="625" 
d="M303 546c-34 0 -79 -22 -111 -47c-20 25 -30 47 -30 82c77 90 134 106 174 106c69 0 98 -41 143 -41c41 0 72 20 92 35c20 -20 34 -43 38 -73c-55 -76 -99 -108 -157 -108c-74 0 -96 46 -149 46zM543 104c9 0 17 3 31 14c13 -13 29 -43 32 -66c-44 -43 -94 -61 -156 -61
c-86 0 -109 55 -100 119c4 27 8 44 20 77h-3c-48 -138 -112 -196 -203 -196c-142 0 -152 144 -133 241c25 127 112 235 303 235c47 0 84 -7 115 -17c38 4 74 9 109 17c28 -22 35 -47 26 -88l-45 -195c-16 -68 -13 -80 4 -80zM259 124c34 0 86 47 118 212l11 46
c-16 7 -45 11 -60 11c-52 0 -76 -55 -92 -129c-20 -94 -10 -140 23 -140z" />
    <glyph glyph-name="adieresis" unicode="&#xe4;" horiz-adv-x="625" 
d="M268 497c-62 0 -92 43 -79 107c9 48 39 75 93 75c62 0 93 -41 78 -105c-12 -49 -42 -77 -92 -77zM495 497c-62 0 -93 40 -81 101c8 52 40 81 99 81c60 0 90 -39 77 -103c-10 -51 -41 -79 -95 -79zM574 118c13 -13 29 -43 32 -66c-44 -43 -94 -61 -156 -61
c-86 0 -109 55 -100 119c4 27 8 44 20 77h-3c-48 -138 -112 -196 -203 -196c-142 0 -152 144 -133 241c25 127 112 235 303 235c47 0 84 -7 115 -17c38 4 74 9 109 17c28 -22 35 -47 26 -88l-45 -195c-16 -68 -13 -80 4 -80c9 0 17 3 31 14zM259 124c34 0 86 47 118 212
l11 46c-16 7 -45 11 -60 11c-52 0 -76 -55 -92 -129c-20 -94 -10 -140 23 -140z" />
    <glyph glyph-name="aring" unicode="&#xe5;" horiz-adv-x="625" 
d="M382 516c-99 0 -138 54 -122 118c16 63 74 95 149 95c94 0 137 -50 121 -117c-15 -62 -70 -96 -148 -96zM363 625c-4 -27 3 -49 26 -49c19 0 35 16 40 43c4 23 -1 55 -27 55c-20 0 -35 -19 -39 -49zM574 118c13 -13 29 -43 32 -66c-44 -43 -94 -61 -156 -61
c-86 0 -109 55 -100 119c4 27 8 44 20 77h-3c-48 -138 -112 -196 -203 -196c-142 0 -152 144 -133 241c25 127 112 235 303 235c47 0 84 -7 115 -17c38 4 74 9 109 17c28 -22 35 -47 26 -88l-45 -195c-16 -68 -13 -80 4 -80c9 0 17 3 31 14zM259 124c34 0 86 47 118 212
l11 46c-16 7 -45 11 -60 11c-52 0 -76 -55 -92 -129c-20 -94 -10 -140 23 -140z" />
    <glyph glyph-name="ae" unicode="&#xe6;" horiz-adv-x="809" 
d="M620 467c126 0 186 -55 172 -131c-15 -82 -112 -159 -262 -204c12 -21 35 -34 71 -34c40 0 81 16 109 31c15 -25 19 -49 17 -82c-59 -42 -127 -56 -195 -56c-92 0 -146 25 -175 64c-49 -36 -107 -64 -175 -64c-154 0 -169 143 -151 241c23 123 110 235 303 235
c50 0 99 -8 150 -28c38 18 83 28 136 28zM662 333c6 34 0 62 -39 62c-69 0 -88 -87 -96 -124c-5 -25 -9 -49 -10 -70c100 34 134 69 145 132zM282 124c14 0 31 3 48 10c-2 31 2 66 10 100c13 57 35 105 66 143c-25 12 -47 16 -65 16c-62 0 -92 -48 -109 -129
c-19 -90 -5 -140 50 -140z" />
    <glyph glyph-name="ccedilla" unicode="&#xe7;" horiz-adv-x="470" 
d="M451 322c-28 -10 -56 -12 -87 -6c3 42 -6 75 -42 75c-33 0 -69 -32 -85 -120c-20 -97 -15 -173 71 -173c44 0 84 16 112 31c15 -25 19 -49 17 -82c-44 -30 -85 -46 -139 -52l-39 -41c49 -16 64 -54 55 -102c-12 -62 -79 -97 -194 -94c-5 15 -3 36 1 51c44 -1 84 13 88 36
c6 31 -19 45 -52 45c-8 14 -11 30 -9 47l55 55c-161 9 -195 120 -172 242c19 98 91 233 301 233c56 0 110 -16 139 -36c-13 -38 -20 -75 -20 -109z" />
    <glyph glyph-name="egrave" unicode="&#xe8;" horiz-adv-x="519" 
d="M389 542c-28 -8 -67 -8 -94 1c-31 52 -62 94 -112 153c48 13 107 19 162 9c9 -49 25 -112 44 -163zM332 467c123 0 184 -55 170 -131c-13 -68 -108 -154 -274 -163c4 -46 27 -75 80 -75c44 0 84 16 112 31c15 -25 19 -49 17 -82c-61 -42 -117 -56 -210 -56
c-182 0 -220 115 -196 243c27 140 142 233 301 233zM372 333c8 41 -5 62 -42 62c-38 0 -77 -36 -93 -124l-4 -21c78 7 131 39 139 83z" />
    <glyph glyph-name="eacute" unicode="&#xe9;" horiz-adv-x="519" 
d="M506 702c-65 -63 -121 -128 -156 -181c-33 3 -67 15 -94 33c34 56 70 128 82 165c66 9 134 2 168 -17zM332 467c123 0 184 -55 170 -131c-13 -68 -108 -154 -274 -163c4 -46 27 -75 80 -75c44 0 84 16 112 31c15 -25 19 -49 17 -82c-61 -42 -117 -56 -210 -56
c-182 0 -220 115 -196 243c27 140 142 233 301 233zM372 333c8 41 -5 62 -42 62c-38 0 -77 -36 -93 -124l-4 -21c78 7 131 39 139 83z" />
    <glyph glyph-name="ecircumflex" unicode="&#xea;" horiz-adv-x="519" 
d="M197 511c-33 13 -53 47 -57 70c64 36 143 93 191 138c26 4 59 2 85 -7c35 -49 76 -98 134 -160c-19 -18 -51 -29 -88 -31c-37 30 -81 59 -120 77c-45 -22 -112 -63 -145 -87zM332 467c123 0 184 -55 170 -131c-13 -68 -108 -154 -274 -163c4 -46 27 -75 80 -75
c44 0 84 16 112 31c15 -25 19 -49 17 -82c-61 -42 -117 -56 -210 -56c-182 0 -220 115 -196 243c27 140 142 233 301 233zM372 333c8 41 -5 62 -42 62c-38 0 -77 -36 -93 -124l-4 -21c78 7 131 39 139 83z" />
    <glyph glyph-name="edieresis" unicode="&#xeb;" horiz-adv-x="519" 
d="M224 497c-62 0 -92 43 -79 107c9 48 39 75 93 75c62 0 93 -41 78 -105c-12 -49 -42 -77 -92 -77zM469 679c60 0 90 -39 77 -103c-10 -51 -41 -79 -95 -79c-62 0 -93 40 -81 101c8 52 40 81 99 81zM332 467c123 0 184 -55 170 -131c-13 -68 -108 -154 -274 -163
c4 -46 27 -75 80 -75c44 0 84 16 112 31c15 -25 19 -49 17 -82c-61 -42 -117 -56 -210 -56c-182 0 -220 115 -196 243c27 140 142 233 301 233zM372 333c8 41 -5 62 -42 62c-38 0 -77 -36 -93 -124l-4 -21c78 7 131 39 139 83z" />
    <glyph glyph-name="igrave" unicode="&#xec;" horiz-adv-x="346" 
d="M210 705c9 -49 25 -112 44 -163c-28 -8 -67 -8 -94 1c-31 52 -62 94 -112 153c48 13 107 19 162 9zM261 467c29 -16 45 -40 35 -96l-36 -187c-13 -68 -12 -80 3 -80c8 0 18 3 32 14c13 -13 29 -43 32 -66c-44 -43 -104 -61 -163 -61c-114 0 -124 73 -101 181l19 90
c15 72 12 89 -52 89c0 24 4 53 13 75c82 2 152 15 218 41z" />
    <glyph glyph-name="iacute" unicode="&#xed;" horiz-adv-x="346" 
d="M203 719c66 9 134 2 168 -17c-65 -63 -121 -128 -156 -181c-33 3 -67 15 -94 33c34 56 70 128 82 165zM261 467c29 -16 45 -40 35 -96l-36 -187c-13 -68 -12 -80 3 -80c8 0 18 3 32 14c13 -13 29 -43 32 -66c-44 -43 -104 -61 -163 -61c-114 0 -124 73 -101 181l19 90
c15 72 12 89 -52 89c0 24 4 53 13 75c82 2 152 15 218 41z" />
    <glyph glyph-name="icircumflex" unicode="&#xee;" horiz-adv-x="346" 
d="M196 719c26 4 59 2 85 -7c35 -49 76 -98 134 -160c-19 -18 -51 -29 -88 -31c-37 30 -81 59 -120 77c-45 -22 -112 -63 -145 -87c-33 13 -53 47 -57 70c64 36 143 93 191 138zM261 467c29 -16 45 -40 35 -96l-36 -187c-13 -68 -12 -80 3 -80c8 0 18 3 32 14
c13 -13 29 -43 32 -66c-44 -43 -104 -61 -163 -61c-114 0 -124 73 -101 181l19 90c15 72 12 89 -52 89c0 24 4 53 13 75c82 2 152 15 218 41z" />
    <glyph glyph-name="idieresis" unicode="&#xef;" horiz-adv-x="346" 
d="M10 604c9 48 39 75 93 75c62 0 93 -41 78 -105c-12 -49 -42 -77 -92 -77c-62 0 -92 43 -79 107zM411 576c-10 -51 -41 -79 -95 -79c-62 0 -93 40 -81 101c8 52 40 81 99 81c60 0 90 -39 77 -103zM261 467c29 -16 45 -40 35 -96l-36 -187c-13 -68 -12 -80 3 -80
c8 0 18 3 32 14c13 -13 29 -43 32 -66c-44 -43 -104 -61 -163 -61c-114 0 -124 73 -101 181l19 90c15 72 12 89 -52 89c0 24 4 53 13 75c82 2 152 15 218 41z" />
    <glyph glyph-name="eth" unicode="&#xf0;" horiz-adv-x="569" 
d="M437 612c101 -77 146 -182 115 -339c-36 -184 -195 -282 -327 -282c-189 0 -215 137 -194 241c23 123 110 235 303 235c17 0 33 -1 48 -3c-7 44 -25 77 -55 105c-66 -27 -130 -54 -161 -69c-8 21 -10 58 -3 82l91 36c-24 13 -52 26 -83 39c8 28 21 47 45 60
c53 -17 100 -36 142 -57l170 68c7 -23 6 -57 2 -82c-18 -6 -52 -18 -93 -34zM271 84c33 0 73 58 99 194c7 40 12 75 15 106c-17 5 -43 9 -58 9c-50 0 -76 -56 -91 -129c-18 -93 -9 -180 35 -180z" />
    <glyph glyph-name="ntilde" unicode="&#xf1;" horiz-adv-x="668" 
d="M288 546c-34 0 -79 -22 -111 -47c-20 25 -30 47 -30 82c77 90 134 106 174 106c69 0 98 -41 143 -41c41 0 72 20 92 35c20 -20 34 -43 38 -73c-55 -76 -99 -108 -157 -108c-74 0 -96 46 -149 46zM617 118c13 -13 29 -43 32 -66c-44 -43 -104 -61 -162 -61
c-118 0 -128 76 -104 181l15 65c10 42 9 83 -21 83c-43 0 -107 -83 -142 -270l-9 -50h-193l49 262c13 72 12 89 -52 89c0 24 4 53 13 75c82 2 162 15 228 41c26 -14 35 -37 31 -65c-6 -43 -15 -73 -38 -124v-3l17 36c44 90 127 156 220 156c87 0 132 -61 100 -200l-19 -83
c-17 -72 -12 -80 2 -80c8 0 16 3 33 14z" />
    <glyph glyph-name="ograve" unicode="&#xf2;" horiz-adv-x="610" 
d="M360 705c9 -49 25 -112 44 -163c-28 -8 -67 -8 -94 1c-31 52 -62 94 -112 153c48 13 107 19 162 9zM338 467c175 0 262 -93 240 -240c-22 -150 -134 -236 -307 -236c-180 0 -262 97 -240 239c22 151 134 237 307 237zM325 395c-47 0 -79 -63 -93 -157
c-17 -114 5 -175 50 -175c42 0 81 53 97 161c15 102 -5 171 -54 171z" />
    <glyph glyph-name="oacute" unicode="&#xf3;" horiz-adv-x="610" 
d="M353 719c66 9 134 2 168 -17c-65 -63 -121 -128 -156 -181c-33 3 -67 15 -94 33c34 56 70 128 82 165zM338 467c175 0 262 -93 240 -240c-22 -150 -134 -236 -307 -236c-180 0 -262 97 -240 239c22 151 134 237 307 237zM325 395c-47 0 -79 -63 -93 -157
c-17 -114 5 -175 50 -175c42 0 81 53 97 161c15 102 -5 171 -54 171z" />
    <glyph glyph-name="ocircumflex" unicode="&#xf4;" horiz-adv-x="610" 
d="M346 719c26 4 59 2 85 -7c35 -49 76 -98 134 -160c-19 -18 -51 -29 -88 -31c-37 30 -81 59 -120 77c-45 -22 -112 -63 -145 -87c-33 13 -53 47 -57 70c64 36 143 93 191 138zM338 467c175 0 262 -93 240 -240c-22 -150 -134 -236 -307 -236c-180 0 -262 97 -240 239
c22 151 134 237 307 237zM325 395c-47 0 -79 -63 -93 -157c-17 -114 5 -175 50 -175c42 0 81 53 97 161c15 102 -5 171 -54 171z" />
    <glyph glyph-name="otilde" unicode="&#xf5;" horiz-adv-x="610" 
d="M307 687c69 0 98 -41 143 -41c41 0 72 20 92 35c20 -20 34 -43 38 -73c-55 -76 -99 -108 -157 -108c-74 0 -96 46 -149 46c-34 0 -79 -22 -111 -47c-20 25 -30 47 -30 82c77 90 134 106 174 106zM338 467c175 0 262 -93 240 -240c-22 -150 -134 -236 -307 -236
c-180 0 -262 97 -240 239c22 151 134 237 307 237zM325 395c-47 0 -79 -63 -93 -157c-17 -114 5 -175 50 -175c42 0 81 53 97 161c15 102 -5 171 -54 171z" />
    <glyph glyph-name="odieresis" unicode="&#xf6;" horiz-adv-x="610" 
d="M160 604c9 48 39 75 93 75c62 0 93 -41 78 -105c-12 -49 -42 -77 -92 -77c-62 0 -92 43 -79 107zM561 576c-10 -51 -41 -79 -95 -79c-62 0 -93 40 -81 101c8 52 40 81 99 81c60 0 90 -39 77 -103zM338 467c175 0 262 -93 240 -240c-22 -150 -134 -236 -307 -236
c-180 0 -262 97 -240 239c22 151 134 237 307 237zM325 395c-47 0 -79 -63 -93 -157c-17 -114 5 -175 50 -175c42 0 81 53 97 161c15 102 -5 171 -54 171z" />
    <glyph glyph-name="divide" unicode="&#xf7;" horiz-adv-x="526" 
d="M311 525c48 0 87 -35 76 -94c-8 -41 -37 -70 -85 -70c-60 0 -96 37 -84 98c8 42 39 66 93 66zM53 306h460c-1 -31 -10 -64 -27 -87c-150 0 -278 0 -461 -4c1 32 11 66 28 91zM253 161c47 0 90 -32 78 -94c-8 -44 -35 -70 -87 -70c-56 0 -94 35 -81 100c8 39 36 64 90 64z
" />
    <glyph glyph-name="oslash" unicode="&#xf8;" horiz-adv-x="616" 
d="M611 439c-18 -13 -40 -30 -63 -48c33 -41 46 -97 36 -164c-22 -150 -134 -236 -307 -236c-55 0 -101 9 -138 26l-42 -43c-32 0 -65 15 -82 36l60 54c-36 42 -48 99 -38 166c22 151 134 237 307 237c58 0 106 -10 144 -29l48 43c34 -2 63 -20 75 -42zM238 238l-4 -30
l149 135c-9 33 -27 52 -52 52c-47 0 -79 -63 -93 -157zM385 224l3 29c-50 -45 -102 -93 -150 -139c8 -34 26 -51 50 -51c42 0 81 53 97 161z" />
    <glyph glyph-name="ugrave" unicode="&#xf9;" 
d="M378 705c9 -49 25 -112 44 -163c-28 -8 -67 -8 -94 1c-31 52 -62 94 -112 153c48 13 107 19 162 9zM271 467c40 -25 40 -41 10 -179c-25 -114 -14 -135 17 -135c41 0 103 67 138 255l9 50h193l-44 -253c-16 -89 -13 -101 3 -101c7 0 17 5 29 14c15 -12 31 -42 32 -66
c-44 -43 -104 -61 -163 -61c-106 0 -125 57 -113 117c3 15 7 31 15 48h-1c-51 -104 -141 -165 -242 -165c-76 0 -122 39 -83 210c32 141 29 146 -41 150c0 24 4 53 13 75c82 2 162 15 228 41z" />
    <glyph glyph-name="uacute" unicode="&#xfa;" 
d="M371 719c66 9 134 2 168 -17c-65 -63 -121 -128 -156 -181c-33 3 -67 15 -94 33c34 56 70 128 82 165zM271 467c40 -25 40 -41 10 -179c-25 -114 -14 -135 17 -135c41 0 103 67 138 255l9 50h193l-44 -253c-16 -89 -13 -101 3 -101c7 0 17 5 29 14c15 -12 31 -42 32 -66
c-44 -43 -104 -61 -163 -61c-106 0 -125 57 -113 117c3 15 7 31 15 48h-1c-51 -104 -141 -165 -242 -165c-76 0 -122 39 -83 210c32 141 29 146 -41 150c0 24 4 53 13 75c82 2 162 15 228 41z" />
    <glyph glyph-name="ucircumflex" unicode="&#xfb;" 
d="M364 719c26 4 59 2 85 -7c35 -49 76 -98 134 -160c-19 -18 -51 -29 -88 -31c-37 30 -81 59 -120 77c-45 -22 -112 -63 -145 -87c-33 13 -53 47 -57 70c64 36 143 93 191 138zM271 467c40 -25 40 -41 10 -179c-25 -114 -14 -135 17 -135c41 0 103 67 138 255l9 50h193
l-44 -253c-16 -89 -13 -101 3 -101c7 0 17 5 29 14c15 -12 31 -42 32 -66c-44 -43 -104 -61 -163 -61c-106 0 -125 57 -113 117c3 15 7 31 15 48h-1c-51 -104 -141 -165 -242 -165c-76 0 -122 39 -83 210c32 141 29 146 -41 150c0 24 4 53 13 75c82 2 162 15 228 41z" />
    <glyph glyph-name="udieresis" unicode="&#xfc;" 
d="M178 604c9 48 39 75 93 75c62 0 93 -41 78 -105c-12 -49 -42 -77 -92 -77c-62 0 -92 43 -79 107zM579 576c-10 -51 -41 -79 -95 -79c-62 0 -93 40 -81 101c8 52 40 81 99 81c60 0 90 -39 77 -103zM271 467c40 -25 40 -41 10 -179c-25 -114 -14 -135 17 -135
c41 0 103 67 138 255l9 50h193l-44 -253c-16 -89 -13 -101 3 -101c7 0 17 5 29 14c15 -12 31 -42 32 -66c-44 -43 -104 -61 -163 -61c-106 0 -125 57 -113 117c3 15 7 31 15 48h-1c-51 -104 -141 -165 -242 -165c-76 0 -122 39 -83 210c32 141 29 146 -41 150
c0 24 4 53 13 75c82 2 162 15 228 41z" />
    <glyph glyph-name="yacute" unicode="&#xfd;" horiz-adv-x="576" 
d="M509 702c-65 -63 -121 -128 -156 -181c-33 3 -67 15 -94 33c34 56 70 128 82 165c66 9 134 2 168 -17zM515 467c38 -12 56 -42 56 -92c0 -59 -18 -112 -209 -332c-217 -251 -270 -291 -363 -291c-48 0 -86 14 -116 49c0 31 9 76 23 104c32 -16 69 -22 107 -22
c66 0 107 11 161 60c-18 137 -40 236 -75 349c-14 46 -31 61 -83 58c0 29 4 54 12 76c53 4 146 25 187 41c26 -8 35 -19 46 -56c29 -101 46 -201 56 -299c68 90 80 128 80 169c0 45 -29 72 -81 69c0 29 4 54 12 76c53 4 146 25 187 41z" />
    <glyph glyph-name="thorn" unicode="&#xfe;" horiz-adv-x="623" 
d="M458 467c142 0 152 -144 133 -241c-25 -127 -112 -235 -303 -235c-26 0 -48 2 -69 5c1 -29 -2 -55 -6 -77l-29 -162h-193l132 749c12 71 11 88 -53 88c0 24 4 52 13 75c82 2 162 15 228 41c26 -24 35 -37 26 -88l-21 -115c-23 -124 -39 -174 -63 -236h2
c48 138 112 196 203 196zM386 194c20 94 10 140 -23 140c-34 0 -86 -47 -118 -212l-11 -46c16 -7 45 -11 60 -11c52 0 76 55 92 129z" />
    <glyph glyph-name="ydieresis" unicode="&#xff;" horiz-adv-x="576" 
d="M227 497c-62 0 -92 43 -79 107c9 48 39 75 93 75c62 0 93 -41 78 -105c-12 -49 -42 -77 -92 -77zM454 497c-62 0 -93 40 -81 101c8 52 40 81 99 81c60 0 90 -39 77 -103c-10 -51 -41 -79 -95 -79zM515 467c38 -12 56 -42 56 -92c0 -59 -18 -112 -209 -332
c-217 -251 -270 -291 -363 -291c-48 0 -86 14 -116 49c0 31 9 76 23 104c32 -16 69 -22 107 -22c66 0 107 11 161 60c-18 137 -40 236 -75 349c-14 46 -31 61 -83 58c0 29 4 54 12 76c53 4 146 25 187 41c26 -8 35 -19 46 -56c29 -101 46 -201 56 -299c68 90 80 128 80 169
c0 45 -29 72 -81 69c0 29 4 54 12 76c53 4 146 25 187 41z" />
    <glyph glyph-name="Amacron" unicode="&#x100;" horiz-adv-x="710" 
d="M271 849h362c0 -15 -2 -38 -9 -58c-105 0 -223 -1 -362 -7c0 20 2 46 9 65zM658 75c4 -18 5 -48 1 -78c-40 3 -127 3 -159 3s-138 0 -177 -3c1 32 6 58 14 78c56 10 63 31 52 76l-4 15c-73 0 -150 -2 -229 -10l-3 -4c-22 -37 -14 -70 28 -77c3 -24 4 -50 -2 -78
c-22 2 -90 3 -123 3s-71 -1 -92 -3c1 30 5 53 15 78c33 6 53 25 102 101s122 197 299 500c27 6 46 6 77 6c62 -194 112 -380 137 -487c24 -103 36 -117 64 -120zM200 231h169c-10 40 -21 81 -33 121c-8 27 -14 63 -18 102c-18 -39 -36 -74 -50 -100
c-22 -41 -44 -82 -68 -123z" />
    <glyph glyph-name="amacron" unicode="&#x101;" horiz-adv-x="625" 
d="M216 631h362c0 -15 -2 -38 -9 -58c-105 0 -223 -1 -362 -7c0 20 2 46 9 65zM574 118c13 -13 29 -43 32 -66c-44 -43 -94 -61 -156 -61c-86 0 -109 55 -100 119c4 27 8 44 20 77h-3c-48 -138 -112 -196 -203 -196c-142 0 -152 144 -133 241c25 127 112 235 303 235
c47 0 84 -7 115 -17c38 4 74 9 109 17c28 -22 35 -47 26 -88l-45 -195c-16 -68 -13 -80 4 -80c9 0 17 3 31 14zM259 124c34 0 86 47 118 212l11 46c-16 7 -45 11 -60 11c-52 0 -76 -55 -92 -129c-20 -94 -10 -140 23 -140z" />
    <glyph glyph-name="Abreve" unicode="&#x102;" horiz-adv-x="710" 
d="M434 735c-135 0 -192 63 -169 184c32 12 73 17 109 12c-2 -48 34 -75 98 -75c63 0 106 27 119 75c34 6 66 2 89 -7c-24 -124 -109 -189 -246 -189zM594 195c24 -103 36 -117 64 -120c4 -18 5 -48 1 -78c-40 3 -127 3 -159 3s-138 0 -177 -3c1 32 6 58 14 78
c56 10 63 31 52 76l-4 15c-73 0 -150 -2 -229 -10l-3 -4c-22 -37 -14 -70 28 -77c3 -24 4 -50 -2 -78c-22 2 -90 3 -123 3s-71 -1 -92 -3c1 30 5 53 15 78c33 6 53 25 102 101s122 197 299 500c27 6 46 6 77 6c62 -194 112 -380 137 -487zM200 231h169
c-10 40 -21 81 -33 121c-8 27 -14 63 -18 102c-18 -39 -36 -74 -50 -100c-22 -41 -44 -82 -68 -123z" />
    <glyph glyph-name="abreve" unicode="&#x103;" horiz-adv-x="625" 
d="M379 517c-135 0 -192 63 -169 184c32 12 73 17 109 12c-2 -48 34 -75 98 -75c63 0 106 27 119 75c34 6 66 2 89 -7c-24 -124 -109 -189 -246 -189zM543 104c9 0 17 3 31 14c13 -13 29 -43 32 -66c-44 -43 -94 -61 -156 -61c-86 0 -109 55 -100 119c4 27 8 44 20 77h-3
c-48 -138 -112 -196 -203 -196c-142 0 -152 144 -133 241c25 127 112 235 303 235c47 0 84 -7 115 -17c38 4 74 9 109 17c28 -22 35 -47 26 -88l-45 -195c-16 -68 -13 -80 4 -80zM259 124c34 0 86 47 118 212l11 46c-16 7 -45 11 -60 11c-52 0 -76 -55 -92 -129
c-20 -94 -10 -140 23 -140z" />
    <glyph glyph-name="Aogonek" unicode="&#x104;" horiz-adv-x="710" 
d="M594 -1c-66 -21 -96 -55 -101 -85c-4 -22 6 -47 43 -47c10 0 22 2 29 7c19 -18 29 -48 32 -69c-35 -11 -74 -32 -97 -53c-10 -1 -14 -1 -23 -1c-107 0 -170 38 -153 123c8 38 30 82 135 126c-45 0 -108 -1 -136 -3c1 32 6 58 14 78c56 10 63 31 52 76l-4 15
c-73 0 -150 -2 -229 -10l-3 -4c-22 -37 -14 -70 28 -77c3 -24 4 -50 -2 -78c-22 2 -90 3 -123 3s-71 -1 -92 -3c1 30 5 53 15 78c33 6 53 25 102 101s122 197 299 500c27 6 46 6 77 6c62 -194 112 -380 137 -487c24 -103 36 -117 64 -120c4 -18 5 -48 1 -78
c-16 1 -40 2 -65 2zM200 231h169c-10 40 -21 81 -33 121c-8 27 -14 63 -18 102c-18 -39 -36 -74 -50 -100c-22 -41 -44 -82 -68 -123z" />
    <glyph glyph-name="aogonek" unicode="&#x105;" horiz-adv-x="625" 
d="M527 -126c19 -18 29 -48 32 -69c-35 -11 -74 -32 -97 -53c-10 -1 -14 -1 -23 -1c-107 0 -170 38 -153 123c7 36 27 80 133 120c-61 12 -77 61 -69 116c4 27 8 44 20 77h-3c-48 -138 -112 -196 -203 -196c-142 0 -152 144 -133 241c25 127 112 235 303 235
c47 0 84 -7 115 -17c38 4 74 9 109 17c28 -22 35 -47 26 -88l-45 -195c-16 -68 -13 -80 4 -80c9 0 17 3 31 14c13 -13 29 -43 32 -66c-15 -15 -31 -27 -48 -36h-1c-5 -3 -10 -6 -15 -8c-55 -28 -82 -62 -87 -94c-3 -22 6 -47 43 -47c10 0 22 2 29 7zM259 124
c34 0 86 47 118 212l11 46c-16 7 -45 11 -60 11c-52 0 -76 -55 -92 -129c-20 -94 -10 -140 23 -140z" />
    <glyph glyph-name="Cacute" unicode="&#x106;" horiz-adv-x="614" 
d="M465 937c66 9 134 2 168 -17c-65 -63 -121 -128 -156 -181c-33 3 -67 15 -94 33c34 56 70 128 82 165zM661 632c-16 -47 -27 -98 -33 -155c-26 -10 -62 -13 -95 -7c13 111 -26 138 -88 138c-103 0 -168 -127 -191 -261c-26 -150 11 -262 147 -262c42 0 91 10 148 38
c16 -17 23 -41 25 -69c-64 -41 -137 -63 -230 -63c-219 0 -330 153 -292 371c37 216 219 323 391 323c81 0 154 -13 218 -53z" />
    <glyph glyph-name="cacute" unicode="&#x107;" horiz-adv-x="470" 
d="M344 719c66 9 134 2 168 -17c-65 -63 -121 -128 -156 -181c-33 3 -67 15 -94 33c34 56 70 128 82 165zM332 467c56 0 110 -16 139 -36c-13 -38 -20 -75 -20 -109c-28 -10 -56 -12 -87 -6c3 42 -6 75 -42 75c-33 0 -69 -32 -85 -120c-20 -97 -15 -173 71 -173
c44 0 84 16 112 31c15 -25 19 -49 17 -82c-61 -42 -117 -56 -210 -56c-182 0 -220 115 -196 243c19 98 91 233 301 233z" />
    <glyph glyph-name="Ccircumflex" unicode="&#x108;" horiz-adv-x="614" 
d="M458 937c26 4 59 2 85 -7c35 -49 76 -98 134 -160c-19 -18 -51 -29 -88 -31c-37 30 -81 59 -120 77c-45 -22 -112 -63 -145 -87c-33 13 -53 47 -57 70c64 36 143 93 191 138zM661 632c-16 -47 -27 -98 -33 -155c-26 -10 -62 -13 -95 -7c13 111 -26 138 -88 138
c-103 0 -168 -127 -191 -261c-26 -150 11 -262 147 -262c42 0 91 10 148 38c16 -17 23 -41 25 -69c-64 -41 -137 -63 -230 -63c-219 0 -330 153 -292 371c37 216 219 323 391 323c81 0 154 -13 218 -53z" />
    <glyph glyph-name="ccircumflex" unicode="&#x109;" horiz-adv-x="470" 
d="M337 719c26 4 59 2 85 -7c35 -49 76 -98 134 -160c-19 -18 -51 -29 -88 -31c-37 30 -81 59 -120 77c-45 -22 -112 -63 -145 -87c-33 13 -53 47 -57 70c64 36 143 93 191 138zM332 467c56 0 110 -16 139 -36c-13 -38 -20 -75 -20 -109c-28 -10 -56 -12 -87 -6
c3 42 -6 75 -42 75c-33 0 -69 -32 -85 -120c-20 -97 -15 -173 71 -173c44 0 84 16 112 31c15 -25 19 -49 17 -82c-61 -42 -117 -56 -210 -56c-182 0 -220 115 -196 243c19 98 91 233 301 233z" />
    <glyph glyph-name="Cdotaccent" unicode="&#x10a;" horiz-adv-x="614" 
d="M490 902c71 0 104 -35 95 -87c-9 -51 -52 -83 -125 -83c-76 0 -100 34 -93 81c9 59 57 89 123 89zM661 632c-16 -47 -27 -98 -33 -155c-26 -10 -62 -13 -95 -7c13 111 -26 138 -88 138c-103 0 -168 -127 -191 -261c-26 -150 11 -262 147 -262c42 0 91 10 148 38
c16 -17 23 -41 25 -69c-64 -41 -137 -63 -230 -63c-219 0 -330 153 -292 371c37 216 219 323 391 323c81 0 154 -13 218 -53z" />
    <glyph glyph-name="cdotaccent" unicode="&#x10b;" horiz-adv-x="470" 
d="M371 690c57 0 96 -39 86 -98c-9 -54 -50 -82 -125 -82c-60 0 -94 38 -86 96c8 54 53 84 125 84zM332 467c56 0 110 -16 139 -36c-13 -38 -20 -75 -20 -109c-28 -10 -56 -12 -87 -6c3 42 -6 75 -42 75c-33 0 -69 -32 -85 -120c-20 -97 -15 -173 71 -173c44 0 84 16 112 31
c15 -25 19 -49 17 -82c-61 -42 -117 -56 -210 -56c-182 0 -220 115 -196 243c19 98 91 233 301 233z" />
    <glyph glyph-name="Ccaron" unicode="&#x10c;" horiz-adv-x="614" 
d="M632 941c26 -8 44 -33 52 -57c-62 -42 -130 -94 -178 -139c-25 -12 -58 -15 -91 -11c-39 53 -85 105 -128 150c15 33 41 53 82 57c33 -29 76 -58 120 -79c46 18 104 51 143 79zM661 632c-16 -47 -27 -98 -33 -155c-26 -10 -62 -13 -95 -7c13 111 -26 138 -88 138
c-103 0 -168 -127 -191 -261c-26 -150 11 -262 147 -262c42 0 91 10 148 38c16 -17 23 -41 25 -69c-64 -41 -137 -63 -230 -63c-219 0 -330 153 -292 371c37 216 219 323 391 323c81 0 154 -13 218 -53z" />
    <glyph glyph-name="ccaron" unicode="&#x10d;" horiz-adv-x="470" 
d="M511 723c26 -8 44 -33 52 -57c-62 -42 -130 -94 -178 -139c-25 -12 -58 -15 -91 -11c-39 53 -85 105 -128 150c15 33 41 53 82 57c33 -29 76 -58 120 -79c46 18 104 51 143 79zM332 467c56 0 110 -16 139 -36c-13 -38 -20 -75 -20 -109c-28 -10 -56 -12 -87 -6
c3 42 -6 75 -42 75c-33 0 -69 -32 -85 -120c-20 -97 -15 -173 71 -173c44 0 84 16 112 31c15 -25 19 -49 17 -82c-61 -42 -117 -56 -210 -56c-182 0 -220 115 -196 243c19 98 91 233 301 233z" />
    <glyph glyph-name="Dcaron" unicode="&#x10e;" horiz-adv-x="733" 
d="M478 745c-25 -12 -58 -15 -91 -11c-39 53 -85 105 -128 150c15 33 41 53 82 57c33 -29 76 -58 120 -79c46 18 104 51 143 79c26 -8 44 -33 52 -57c-62 -42 -130 -94 -178 -139zM420 678c199 0 357 -61 308 -343c-55 -314 -321 -335 -420 -335h-3c-71 0 -242 0 -295 -3
c1 27 6 51 18 78c52 4 60 20 77 122l52 304c14 80 3 94 -49 100c-5 27 -5 58 0 78c46 -2 130 -3 202 -3c30 0 66 2 110 2zM530 357c35 203 -29 246 -107 246c-19 0 -35 -3 -54 -12l-68 -409c-16 -92 -4 -107 56 -107c30 0 129 31 173 282z" />
    <glyph glyph-name="dcaron" unicode="&#x10f;" horiz-adv-x="758" 
d="M788 717c25 -11 45 -42 30 -120c-15 -79 -59 -157 -132 -210c-31 4 -51 17 -62 37c78 74 82 135 -1 146c0 41 10 77 31 110c53 2 100 17 134 37zM584 710c26 -24 35 -37 26 -88l-78 -440c-12 -70 -10 -78 4 -78c8 0 16 3 33 14c13 -13 29 -43 32 -66
c-41 -41 -95 -61 -149 -61c-95 0 -110 63 -102 116c3 22 11 49 22 80h-5c-48 -138 -112 -196 -203 -196c-142 0 -152 144 -133 241c25 127 112 235 303 235c21 0 41 -1 59 -4c0 16 1 31 3 43c11 72 12 88 -53 88c0 24 4 52 13 75c82 2 162 15 228 41zM259 124
c34 0 86 47 118 212l11 46c-16 7 -45 11 -60 11c-52 0 -76 -55 -92 -129c-20 -94 -10 -140 23 -140z" />
    <glyph glyph-name="Dcroat" unicode="&#x110;" horiz-adv-x="733" 
d="M420 678c199 0 357 -61 308 -343c-55 -314 -321 -335 -420 -335h-3c-71 0 -242 0 -295 -3c1 27 6 51 18 78c52 4 60 20 77 122l16 91c-35 -1 -59 -1 -69 -2c-2 28 1 55 15 80h67l23 135c14 80 3 94 -49 100c-5 27 -5 58 0 78c46 -2 130 -3 202 -3c30 0 66 2 110 2z
M530 357c35 203 -29 246 -107 246c-19 0 -35 -3 -54 -12l-38 -225h81c4 -26 1 -55 -11 -77h-82l-18 -107c-16 -92 -4 -107 56 -107c30 0 129 31 173 282z" />
    <glyph glyph-name="dcroat" unicode="&#x111;" horiz-adv-x="620" 
d="M589 503l-57 -321c-12 -70 -10 -78 4 -78c8 0 16 3 33 14c13 -13 29 -43 32 -66c-41 -41 -95 -61 -149 -61c-95 0 -110 63 -102 116c3 22 11 49 22 80h-5c-48 -138 -112 -196 -203 -196c-142 0 -152 144 -133 241c25 127 112 235 303 235c21 0 41 -1 59 -4
c0 14 1 27 2 38c-38 -2 -71 -3 -110 -5c0 20 2 46 9 65h108c-2 26 -16 33 -59 33c0 24 4 52 13 75c82 2 162 15 228 41c26 -24 35 -37 26 -88l-11 -61h60c0 -14 -2 -38 -9 -58h-61zM259 124c34 0 86 47 118 212l11 46c-16 7 -45 11 -60 11c-52 0 -76 -55 -92 -129
c-20 -94 -10 -140 23 -140z" />
    <glyph glyph-name="Emacron" unicode="&#x112;" horiz-adv-x="638" 
d="M235 849h362c0 -15 -2 -38 -9 -58c-105 0 -223 -1 -362 -7c0 20 2 46 9 65zM374 601l-37 -219h6c60 0 78 11 85 67c28 6 59 8 91 5c-9 -37 -17 -79 -24 -129c-5 -36 -9 -76 -10 -110c-32 1 -60 5 -86 15c0 39 -7 77 -66 77h-8l-21 -125c-16 -92 -2 -107 59 -107h14
c68 0 111 36 144 143c41 -6 68 -16 97 -38c-16 -47 -35 -117 -43 -183c-60 3 -180 3 -265 3c-70 0 -236 0 -300 -3c1 27 6 51 19 79c52 4 60 19 78 121l53 304c14 80 0 92 -52 100c-4 25 -5 48 0 78c61 -3 195 -3 271 -3c148 0 222 1 279 3c-9 -55 -14 -122 -9 -182
c-31 -8 -64 -12 -98 -12c-5 70 -22 116 -121 116h-56z" />
    <glyph glyph-name="emacron" unicode="&#x113;" horiz-adv-x="519" 
d="M172 631h362c0 -15 -2 -38 -9 -58c-105 0 -223 -1 -362 -7c0 20 2 46 9 65zM332 467c123 0 184 -55 170 -131c-13 -68 -108 -154 -274 -163c4 -46 27 -75 80 -75c44 0 84 16 112 31c15 -25 19 -49 17 -82c-61 -42 -117 -56 -210 -56c-182 0 -220 115 -196 243
c27 140 142 233 301 233zM372 333c8 41 -5 62 -42 62c-38 0 -77 -36 -93 -124l-4 -21c78 7 131 39 139 83z" />
    <glyph glyph-name="Edotaccent" unicode="&#x116;" horiz-adv-x="638" 
d="M396 732c-76 0 -100 34 -93 81c9 59 57 89 123 89c71 0 104 -35 95 -87c-9 -51 -52 -83 -125 -83zM374 601l-37 -219h6c60 0 78 11 85 67c28 6 59 8 91 5c-9 -37 -17 -79 -24 -129c-5 -36 -9 -76 -10 -110c-32 1 -60 5 -86 15c0 39 -7 77 -66 77h-8l-21 -125
c-16 -92 -2 -107 59 -107h14c68 0 111 36 144 143c41 -6 68 -16 97 -38c-16 -47 -35 -117 -43 -183c-60 3 -180 3 -265 3c-70 0 -236 0 -300 -3c1 27 6 51 19 79c52 4 60 19 78 121l53 304c14 80 0 92 -52 100c-4 25 -5 48 0 78c61 -3 195 -3 271 -3c148 0 222 1 279 3
c-9 -55 -14 -122 -9 -182c-31 -8 -64 -12 -98 -12c-5 70 -22 116 -121 116h-56z" />
    <glyph glyph-name="edotaccent" unicode="&#x117;" horiz-adv-x="519" 
d="M326 510c-60 0 -94 38 -86 96c8 54 53 84 125 84c57 0 96 -39 86 -98c-9 -54 -50 -82 -125 -82zM332 467c123 0 184 -55 170 -131c-13 -68 -108 -154 -274 -163c4 -46 27 -75 80 -75c44 0 84 16 112 31c15 -25 19 -49 17 -82c-61 -42 -117 -56 -210 -56
c-182 0 -220 115 -196 243c27 140 142 233 301 233zM372 333c8 41 -5 62 -42 62c-38 0 -77 -36 -93 -124l-4 -21c78 7 131 39 139 83z" />
    <glyph glyph-name="Eogonek" unicode="&#x118;" horiz-adv-x="638" 
d="M374 601l-37 -219h6c60 0 78 11 85 67c28 6 59 8 91 5c-9 -37 -17 -79 -24 -129c-5 -36 -9 -76 -10 -110c-32 1 -60 5 -86 15c0 39 -7 77 -66 77h-8l-21 -125c-16 -92 -2 -107 59 -107h14c68 0 111 36 144 143c41 -6 68 -16 97 -38c-16 -47 -35 -117 -43 -183
c-19 1 -45 2 -73 2c-65 -21 -95 -55 -100 -85c-4 -22 6 -47 43 -47c10 0 22 2 29 7c19 -18 29 -48 32 -69c-35 -11 -74 -32 -97 -53c-10 -1 -14 -1 -23 -1c-107 0 -170 38 -153 123c8 38 30 82 135 126h-58c-70 0 -236 0 -300 -3c1 27 6 51 19 79c52 4 60 19 78 121l53 304
c14 80 0 92 -52 100c-4 25 -5 48 0 78c61 -3 195 -3 271 -3c148 0 222 1 279 3c-9 -55 -14 -122 -9 -182c-31 -8 -64 -12 -98 -12c-5 70 -22 116 -121 116h-56z" />
    <glyph glyph-name="eogonek" unicode="&#x119;" horiz-adv-x="519" 
d="M332 467c123 0 184 -55 170 -131c-13 -68 -107 -154 -273 -163c4 -46 26 -75 79 -75c44 0 84 16 112 31c15 -25 19 -49 17 -82c-34 -24 -67 -39 -106 -47c-37 -22 -58 -50 -62 -76c-5 -35 18 -51 67 -51c15 0 26 1 36 3c9 -14 11 -61 3 -86c-49 -7 -103 -21 -140 -38
c-10 -1 -14 -1 -23 -1c-55 0 -128 34 -113 123c6 38 27 79 116 117c-171 5 -207 118 -184 243c27 140 142 233 301 233zM372 333c8 41 -5 62 -42 62c-38 0 -77 -36 -93 -124l-4 -21c78 7 131 39 139 83z" />
    <glyph glyph-name="Ecaron" unicode="&#x11a;" horiz-adv-x="638" 
d="M442 745c-25 -12 -58 -15 -91 -11c-39 53 -85 105 -128 150c15 33 41 53 82 57c33 -29 76 -58 120 -79c46 18 104 51 143 79c26 -8 44 -33 52 -57c-62 -42 -130 -94 -178 -139zM374 601l-37 -219h6c60 0 78 11 85 67c28 6 59 8 91 5c-9 -37 -17 -79 -24 -129
c-5 -36 -9 -76 -10 -110c-32 1 -60 5 -86 15c0 39 -7 77 -66 77h-8l-21 -125c-16 -92 -2 -107 59 -107h14c68 0 111 36 144 143c41 -6 68 -16 97 -38c-16 -47 -35 -117 -43 -183c-60 3 -180 3 -265 3c-70 0 -236 0 -300 -3c1 27 6 51 19 79c52 4 60 19 78 121l53 304
c14 80 0 92 -52 100c-4 25 -5 48 0 78c61 -3 195 -3 271 -3c148 0 222 1 279 3c-9 -55 -14 -122 -9 -182c-31 -8 -64 -12 -98 -12c-5 70 -22 116 -121 116h-56z" />
    <glyph glyph-name="ecaron" unicode="&#x11b;" horiz-adv-x="519" 
d="M379 527c-25 -12 -58 -15 -91 -11c-39 53 -85 105 -128 150c15 33 41 53 82 57c33 -29 76 -58 120 -79c46 18 104 51 143 79c26 -8 44 -33 52 -57c-62 -42 -130 -94 -178 -139zM332 467c123 0 184 -55 170 -131c-13 -68 -108 -154 -274 -163c4 -46 27 -75 80 -75
c44 0 84 16 112 31c15 -25 19 -49 17 -82c-61 -42 -117 -56 -210 -56c-182 0 -220 115 -196 243c27 140 142 233 301 233zM372 333c8 41 -5 62 -42 62c-38 0 -77 -36 -93 -124l-4 -21c78 7 131 39 139 83z" />
    <glyph glyph-name="Gcircumflex" unicode="&#x11c;" horiz-adv-x="659" 
d="M454 937c26 4 59 2 85 -7c35 -49 76 -98 134 -160c-19 -18 -51 -29 -88 -31c-37 30 -81 59 -120 77c-45 -22 -112 -63 -145 -87c-33 13 -53 47 -57 70c64 36 143 93 191 138zM452 685c90 0 168 -17 222 -51c-13 -41 -26 -103 -32 -154c-31 -13 -67 -16 -100 -11
c8 102 -21 138 -94 138c-110 0 -174 -128 -197 -260c-28 -163 10 -276 103 -276c22 0 33 3 44 9c16 9 23 26 31 75c13 78 -2 92 -59 100c-4 22 -5 51 -1 78c49 -3 106 -3 150 -3c52 0 98 0 157 3c0 -25 -4 -51 -14 -78c-37 -4 -44 -7 -64 -120c-4 -33 -3 -50 4 -81
c-66 -36 -162 -63 -259 -63c-219 0 -330 154 -292 372s217 322 401 322z" />
    <glyph glyph-name="gcircumflex" unicode="&#x11d;" horiz-adv-x="591" 
d="M213 511c-33 13 -53 47 -57 70c64 36 143 93 191 138c26 4 59 2 85 -7c35 -49 76 -98 134 -160c-19 -18 -51 -29 -88 -31c-37 30 -81 59 -120 77c-45 -22 -112 -63 -145 -87zM548 467c28 -22 34 -45 27 -86l-46 -262c-37 -197 -133 -367 -352 -367c-80 0 -123 19 -167 54
c0 26 9 71 23 99c53 -21 134 -32 187 -32c73 0 78 21 91 108c8 55 22 107 52 186l8 20h-4c-48 -138 -112 -196 -203 -196c-142 0 -152 144 -133 241c25 127 112 235 303 235c48 0 85 -7 116 -17c45 4 75 9 98 17zM259 124c34 0 86 47 118 212l11 46c-16 7 -45 11 -60 11
c-52 0 -76 -55 -92 -129c-20 -94 -10 -140 23 -140z" />
    <glyph glyph-name="Gbreve" unicode="&#x11e;" horiz-adv-x="659" 
d="M704 924c-24 -124 -109 -189 -246 -189c-135 0 -192 63 -169 184c32 12 73 17 109 12c-2 -48 34 -75 98 -75c63 0 106 27 119 75c34 6 66 2 89 -7zM452 685c90 0 168 -17 222 -51c-13 -41 -26 -103 -32 -154c-31 -13 -67 -16 -100 -11c8 102 -21 138 -94 138
c-110 0 -174 -128 -197 -260c-28 -163 10 -276 103 -276c22 0 33 3 44 9c16 9 23 26 31 75c13 78 -2 92 -59 100c-4 22 -5 51 -1 78c49 -3 106 -3 150 -3c52 0 98 0 157 3c0 -25 -4 -51 -14 -78c-37 -4 -44 -7 -64 -120c-4 -33 -3 -50 4 -81c-66 -36 -162 -63 -259 -63
c-219 0 -330 154 -292 372s217 322 401 322z" />
    <glyph glyph-name="gbreve" unicode="&#x11f;" horiz-adv-x="591" 
d="M351 517c-135 0 -192 63 -169 184c32 12 73 17 109 12c-2 -48 34 -75 98 -75c63 0 106 27 119 75c34 6 66 2 89 -7c-24 -124 -109 -189 -246 -189zM548 467c28 -22 34 -45 27 -86l-46 -262c-37 -197 -133 -367 -352 -367c-80 0 -123 19 -167 54c0 26 9 71 23 99
c53 -21 134 -32 187 -32c73 0 78 21 91 108c8 55 22 107 52 186l8 20h-4c-48 -138 -112 -196 -203 -196c-142 0 -152 144 -133 241c25 127 112 235 303 235c48 0 85 -7 116 -17c45 4 75 9 98 17zM259 124c34 0 86 47 118 212l11 46c-16 7 -45 11 -60 11
c-52 0 -76 -55 -92 -129c-20 -94 -10 -140 23 -140z" />
    <glyph glyph-name="Gdotaccent" unicode="&#x120;" horiz-adv-x="659" 
d="M486 902c71 0 104 -35 95 -87c-9 -51 -52 -83 -125 -83c-76 0 -100 34 -93 81c9 59 57 89 123 89zM452 685c90 0 168 -17 222 -51c-13 -41 -26 -103 -32 -154c-31 -13 -67 -16 -100 -11c8 102 -21 138 -94 138c-110 0 -174 -128 -197 -260c-28 -163 10 -276 103 -276
c22 0 33 3 44 9c16 9 23 26 31 75c13 78 -2 92 -59 100c-4 22 -5 51 -1 78c49 -3 106 -3 150 -3c52 0 98 0 157 3c0 -25 -4 -51 -14 -78c-37 -4 -44 -7 -64 -120c-4 -33 -3 -50 4 -81c-66 -36 -162 -63 -259 -63c-219 0 -330 154 -292 372s217 322 401 322z" />
    <glyph glyph-name="gdotaccent" unicode="&#x121;" horiz-adv-x="591" 
d="M342 510c-60 0 -94 38 -86 96c8 54 53 84 125 84c57 0 96 -39 86 -98c-9 -54 -50 -82 -125 -82zM548 467c28 -22 34 -45 27 -86l-46 -262c-37 -197 -133 -367 -352 -367c-80 0 -123 19 -167 54c0 26 9 71 23 99c53 -21 134 -32 187 -32c73 0 78 21 91 108
c8 55 22 107 52 186l8 20h-4c-48 -138 -112 -196 -203 -196c-142 0 -152 144 -133 241c25 127 112 235 303 235c48 0 85 -7 116 -17c45 4 75 9 98 17zM259 124c34 0 86 47 118 212l11 46c-16 7 -45 11 -60 11c-52 0 -76 -55 -92 -129c-20 -94 -10 -140 23 -140z" />
    <glyph glyph-name="Gcommaaccent" unicode="&#x122;" horiz-adv-x="659" 
d="M452 685c90 0 168 -17 222 -51c-13 -41 -26 -103 -32 -154c-31 -13 -67 -16 -100 -11c8 102 -21 138 -94 138c-110 0 -174 -128 -197 -260c-28 -163 10 -276 103 -276c22 0 33 3 44 9c16 9 23 26 31 75c13 78 -2 92 -59 100c-4 22 -5 51 -1 78c49 -3 106 -3 150 -3
c52 0 98 0 157 3c0 -25 -4 -51 -14 -78c-37 -4 -44 -7 -64 -120c-4 -33 -3 -50 4 -81c-66 -36 -162 -63 -259 -63c-219 0 -330 154 -292 372s217 322 401 322zM378 -37c37 -11 49 -33 41 -84c-14 -85 -68 -148 -147 -197c-26 3 -46 16 -57 36c33 22 56 51 60 75
c4 26 -15 38 -59 43c2 38 12 69 31 96c53 1 98 11 131 31z" />
    <glyph glyph-name="gcommaaccent" unicode="&#x123;" horiz-adv-x="591" 
d="M305 502c-39 11 -47 40 -39 79c14 65 67 115 145 155c26 -3 46 -16 57 -36c-33 -18 -55 -35 -58 -50c-3 -16 13 -23 57 -27c-2 -32 -12 -63 -31 -90c-53 -1 -98 -11 -131 -31zM548 467c28 -22 34 -45 27 -86l-46 -262c-37 -197 -133 -367 -352 -367
c-80 0 -123 19 -167 54c0 26 9 71 23 99c53 -21 134 -32 187 -32c73 0 78 21 91 108c8 55 22 107 52 186l8 20h-4c-48 -138 -112 -196 -203 -196c-142 0 -152 144 -133 241c25 127 112 235 303 235c48 0 85 -7 116 -17c45 4 75 9 98 17zM259 124c34 0 86 47 118 212l11 46
c-16 7 -45 11 -60 11c-52 0 -76 -55 -92 -129c-20 -94 -10 -140 23 -140z" />
    <glyph glyph-name="Hcircumflex" unicode="&#x124;" horiz-adv-x="810" 
d="M354 729c-33 13 -53 47 -57 70c64 36 143 93 191 138c26 4 59 2 85 -7c35 -49 76 -98 134 -160c-19 -18 -51 -29 -88 -31c-37 30 -81 59 -120 77c-45 -22 -112 -63 -145 -87zM672 676c52 0 113 0 172 3c0 -25 -4 -51 -14 -78c-55 -6 -61 -19 -79 -120l-52 -301
c-15 -85 -6 -96 43 -105c4 -26 5 -50 2 -78c-57 3 -98 3 -163 3c-73 0 -129 -1 -175 -3c3 29 8 51 19 78c49 7 59 18 74 102l20 119c-65 0 -135 -2 -197 -5l-19 -111c-15 -85 -6 -96 43 -105c4 -26 5 -50 2 -78c-57 3 -98 3 -163 3c-73 0 -129 -1 -175 -3c3 29 8 51 19 78
c49 7 59 18 74 102l55 324c13 78 8 92 -49 100c-4 22 -5 51 -1 78c49 -3 104 -3 168 -3c52 0 113 0 172 3c0 -25 -4 -51 -14 -78c-55 -6 -61 -19 -79 -120l-18 -104h196l21 124c13 78 8 92 -49 100c-4 22 -5 51 -1 78c49 -3 104 -3 168 -3z" />
    <glyph glyph-name="hcircumflex" unicode="&#x125;" horiz-adv-x="669" 
d="M256 729c-33 13 -53 47 -57 70c64 36 143 93 191 138c26 4 59 2 85 -7c35 -49 76 -98 134 -160c-19 -18 -51 -29 -88 -31c-37 30 -81 59 -120 77c-45 -22 -112 -63 -145 -87zM618 118c13 -13 29 -43 32 -66c-44 -43 -104 -61 -162 -61c-118 0 -128 76 -104 181l15 65
c10 42 9 83 -21 83c-43 0 -107 -83 -142 -269l-9 -51h-193l89 506c12 71 11 88 -53 88c0 24 4 52 13 75c82 2 162 15 228 41c26 -24 35 -37 26 -88c-42 -229 -58 -296 -77 -357l22 46c44 90 127 156 220 156c87 0 132 -61 100 -200l-19 -83c-17 -72 -12 -80 2 -80
c8 0 16 3 33 14z" />
    <glyph glyph-name="Hbar" unicode="&#x126;" horiz-adv-x="810" 
d="M830 601c-50 -5 -59 -17 -74 -93h62c0 -32 -6 -53 -15 -76h-60l-44 -252c-15 -85 -6 -96 43 -105c4 -26 5 -50 2 -78c-57 3 -98 3 -163 3c-73 0 -129 -1 -175 -3c3 29 8 51 19 78c49 7 59 18 74 102l20 119c-65 0 -135 -2 -197 -5l-19 -111c-15 -85 -6 -96 43 -105
c4 -26 5 -50 2 -78c-57 3 -98 3 -163 3c-73 0 -129 -1 -175 -3c3 29 8 51 19 78c49 7 59 18 74 102l43 251l-64 -1c0 35 7 62 15 81h62c12 72 5 85 -50 93c-4 22 -5 51 -1 78c49 -3 104 -3 168 -3c52 0 113 0 172 3c0 -25 -4 -51 -14 -78c-50 -5 -59 -17 -74 -93h195
c12 72 5 85 -50 93c-4 22 -5 51 -1 78c49 -3 104 -3 168 -3c52 0 113 0 172 3c0 -25 -4 -51 -14 -78zM542 432l-196 -1l-9 -54h196z" />
    <glyph glyph-name="hbar" unicode="&#x127;" horiz-adv-x="688" 
d="M637 118c13 -13 29 -43 32 -66c-44 -43 -104 -61 -162 -61c-118 0 -128 76 -104 181l15 65c10 42 9 83 -21 83c-43 0 -107 -83 -142 -269l-9 -51h-193l82 464c-33 -1 -63 -3 -90 -5c0 26 5 65 17 95h86c0 31 -13 40 -59 40c0 24 4 52 13 75c82 2 162 15 228 41
c26 -24 35 -37 26 -88l-13 -68h61c0 -23 -2 -57 -12 -87h-65c-22 -110 -34 -158 -48 -202l22 46c44 90 127 156 220 156c87 0 132 -61 100 -200l-19 -83c-17 -72 -12 -80 2 -80c8 0 16 3 33 14z" />
    <glyph glyph-name="Imacron" unicode="&#x12a;" horiz-adv-x="414" 
d="M130 849h362c0 -15 -2 -38 -9 -58c-105 0 -223 -1 -362 -7c0 20 2 46 9 65zM103 177l55 324c13 78 8 92 -49 100c-4 22 -5 51 -1 78c49 -3 104 -3 168 -3c52 0 113 0 172 3c0 -25 -4 -51 -14 -78c-55 -6 -61 -19 -79 -120l-52 -301c-15 -85 -6 -96 43 -105
c4 -26 5 -50 2 -78c-57 3 -98 3 -163 3c-73 0 -129 -1 -175 -3c3 29 8 51 19 78c49 7 59 18 74 102z" />
    <glyph glyph-name="imacron" unicode="&#x12b;" horiz-adv-x="346" 
d="M37 631h362c0 -15 -2 -38 -9 -58c-105 0 -223 -1 -362 -7c0 20 2 46 9 65zM261 467c29 -16 45 -40 35 -96l-36 -187c-13 -68 -12 -80 3 -80c8 0 18 3 32 14c13 -13 29 -43 32 -66c-44 -43 -104 -61 -163 -61c-114 0 -124 73 -101 181l19 90c15 72 12 89 -52 89
c0 24 4 53 13 75c82 2 152 15 218 41z" />
    <glyph glyph-name="Iogonek" unicode="&#x12e;" horiz-adv-x="414" 
d="M276 676c52 0 113 0 172 3c0 -25 -4 -51 -14 -78c-55 -6 -61 -19 -79 -120l-52 -301c-15 -85 -6 -96 43 -105c4 -26 5 -50 2 -78c-22 1 -42 2 -62 2c-66 -21 -96 -55 -101 -85c-4 -22 6 -47 43 -47c10 0 22 2 29 7c19 -18 29 -48 32 -69c-35 -11 -74 -32 -97 -53
c-10 -1 -14 -1 -23 -1c-107 0 -170 38 -153 123c8 38 30 82 135 126c-57 0 -102 -1 -141 -3c3 29 8 51 19 78c49 7 59 18 74 102l55 324c13 78 8 92 -49 100c-4 22 -5 51 -1 78c49 -3 104 -3 168 -3z" />
    <glyph glyph-name="iogonek" unicode="&#x12f;" horiz-adv-x="346" 
d="M198 514c-76 0 -100 34 -93 81c9 59 57 89 123 89c71 0 104 -35 95 -87c-9 -51 -52 -83 -125 -83zM245 -126c19 -18 29 -48 32 -69c-35 -11 -74 -32 -97 -53c-10 -1 -14 -1 -23 -1c-107 0 -170 38 -153 123c7 36 27 80 130 119c-86 12 -92 81 -71 179l19 90
c15 72 12 89 -52 89c0 24 4 53 13 75c82 2 152 15 218 41c29 -16 45 -40 35 -96l-36 -187c-13 -68 -12 -80 3 -80c8 0 18 3 32 14c13 -13 29 -43 32 -66c-19 -18 -40 -32 -63 -42c-57 -28 -86 -63 -91 -96c-3 -22 6 -47 43 -47c10 0 22 2 29 7z" />
    <glyph glyph-name="Idotaccent" unicode="&#x130;" horiz-adv-x="414" 
d="M321 902c71 0 104 -35 95 -87c-9 -51 -52 -83 -125 -83c-76 0 -100 34 -93 81c9 59 57 89 123 89zM103 177l55 324c13 78 8 92 -49 100c-4 22 -5 51 -1 78c49 -3 104 -3 168 -3c52 0 113 0 172 3c0 -25 -4 -51 -14 -78c-55 -6 -61 -19 -79 -120l-52 -301
c-15 -85 -6 -96 43 -105c4 -26 5 -50 2 -78c-57 3 -98 3 -163 3c-73 0 -129 -1 -175 -3c3 29 8 51 19 78c49 7 59 18 74 102z" />
    <glyph glyph-name="dotlessi" unicode="&#x131;" horiz-adv-x="346" 
d="M261 467c29 -16 45 -40 35 -96l-36 -187c-13 -68 -12 -80 3 -80c8 0 18 3 32 14c13 -13 29 -43 32 -66c-44 -43 -104 -61 -163 -61c-114 0 -124 73 -101 181l19 90c15 72 12 89 -52 89c0 24 4 53 13 75c82 2 152 15 218 41z" />
    <glyph glyph-name="IJ" unicode="&#x132;" horiz-adv-x="770" 
d="M103 177l55 324c13 78 8 92 -49 100c-4 22 -5 51 -1 78c49 -3 104 -3 168 -3c52 0 113 0 172 3c0 -25 -4 -51 -14 -78c-55 -6 -61 -19 -79 -120l-52 -301c-15 -85 -6 -96 43 -105c4 -26 5 -50 2 -78c-57 3 -98 3 -163 3c-73 0 -129 -1 -175 -3c3 29 8 51 19 78
c49 7 59 18 74 102zM492 679c48 -3 111 -3 172 -3c59 0 124 1 168 3c-1 -29 -5 -55 -12 -78c-53 -5 -62 -13 -82 -123l-62 -353c-32 -185 -88 -295 -324 -371c-25 21 -31 52 -31 87c79 39 122 91 146 231l74 426c15 84 8 97 -47 103c-6 25 -5 52 -2 78z" />
    <glyph glyph-name="ij" unicode="&#x133;" horiz-adv-x="612" 
d="M213 505c-53 0 -83 38 -77 96c7 54 48 84 113 84c51 0 87 -39 77 -98c-8 -54 -45 -82 -113 -82zM499 505c-63 0 -94 38 -86 96c7 54 47 84 103 84c61 0 95 -39 86 -98c-8 -54 -45 -82 -103 -82zM610 458l-59 -333c-40 -226 -125 -308 -317 -371c-21 18 -31 43 -31 79
c69 35 122 97 143 219c6 35 12 70 28 105l-2 2c-32 -79 -136 -168 -214 -168c-108 0 -118 73 -95 181l19 90c15 72 12 89 -52 89c0 24 4 53 13 75c82 2 152 15 218 41c29 -16 45 -40 35 -96l-17 -87c-23 -123 -19 -131 1 -131c37 0 94 95 124 235l12 70h194z" />
    <glyph glyph-name="Jcircumflex" unicode="&#x134;" horiz-adv-x="386" 
d="M287 937c26 4 59 2 85 -7c35 -49 76 -98 134 -160c-19 -18 -51 -29 -88 -31c-37 30 -81 59 -120 77c-45 -22 -112 -63 -145 -87c-33 13 -53 47 -57 70c64 36 143 93 191 138zM108 679c48 -3 111 -3 172 -3c59 0 124 1 168 3c-1 -29 -5 -55 -12 -78
c-53 -5 -62 -13 -82 -123l-62 -353c-32 -185 -88 -295 -324 -371c-25 21 -31 52 -31 87c79 39 122 91 146 231l74 426c15 84 8 97 -47 103c-6 25 -5 52 -2 78z" />
    <glyph glyph-name="jcircumflex" unicode="&#x135;" horiz-adv-x="309" 
d="M204 719c26 4 59 2 85 -7c35 -49 76 -98 134 -160c-19 -18 -51 -29 -88 -31c-37 30 -81 59 -120 77c-45 -22 -112 -63 -145 -87c-33 13 -53 47 -57 70c64 36 143 93 191 138zM41 426c82 2 162 15 228 41c26 -24 35 -37 26 -88l-45 -254c-40 -227 -125 -308 -317 -371
c-21 18 -31 43 -31 79c69 35 122 97 143 219l36 211c12 71 11 88 -53 88c0 24 4 52 13 75z" />
    <glyph glyph-name="Kcommaaccent" unicode="&#x136;" horiz-adv-x="784" 
d="M784 600c-55 -4 -77 -14 -157 -81l-153 -127c56 -54 100 -121 138 -210c19 -46 35 -60 60 -60c17 0 36 4 49 12c15 -15 28 -44 31 -67c-46 -49 -110 -76 -179 -76c-87 0 -132 32 -161 123c-23 74 -49 130 -88 189l-22 -126c-14 -82 -5 -95 34 -102c4 -26 5 -50 2 -78
c-57 3 -88 3 -153 3c-73 0 -129 -1 -175 -3c3 29 8 51 19 78c59 4 61 30 77 122l52 304c13 78 8 92 -49 100c-4 22 -5 51 -1 78c49 -3 104 -3 168 -3c52 0 113 0 172 3c0 -25 -4 -51 -14 -78c-55 -6 -61 -19 -79 -120l-17 -99l156 134c72 62 76 74 42 85c-4 22 -4 51 -1 78
c39 -3 91 -3 126 -3c43 0 114 1 137 3c0 -25 -4 -51 -14 -79zM432 -37c37 -11 49 -33 41 -84c-14 -85 -68 -148 -147 -197c-26 3 -46 16 -57 36c33 22 56 51 60 75c4 26 -15 38 -59 43c2 38 12 69 31 96c53 1 98 11 131 31z" />
    <glyph glyph-name="kcommaaccent" unicode="&#x137;" horiz-adv-x="607" 
d="M597 354c-11 -70 -64 -107 -158 -142c15 -18 24 -33 39 -62c14 -27 21 -40 40 -40c8 0 16 3 23 8c15 -14 31 -43 32 -66c-44 -43 -94 -61 -150 -61c-75 0 -101 32 -122 84c-19 47 -26 64 -42 91c-1 -12 -3 -23 -6 -37l-26 -129h-193l89 506c12 71 11 88 -53 88
c0 24 4 52 13 75c82 2 162 15 228 41c33 -28 34 -43 26 -88c-30 -168 -37 -200 -83 -336h1c47 101 136 181 237 181c69 0 117 -37 105 -113zM382 349c-39 0 -100 -51 -123 -139c108 20 153 43 162 92c5 27 -8 47 -39 47zM329 -37c37 -11 49 -33 41 -84
c-14 -85 -68 -148 -147 -197c-26 3 -46 16 -57 36c33 22 56 51 60 75c4 26 -15 38 -59 43c2 38 12 69 31 96c53 1 98 11 131 31z" />
    <glyph glyph-name="Lacute" unicode="&#x139;" horiz-adv-x="640" 
d="M311 937c66 9 134 2 168 -17c-65 -63 -121 -128 -156 -181c-33 3 -67 15 -94 33c34 56 70 128 82 165zM359 75h17c68 0 110 52 142 150c42 -9 74 -23 102 -46c-16 -39 -38 -116 -46 -182c-68 3 -180 3 -260 3c-74 0 -259 -1 -304 -3c3 28 8 51 19 78c54 5 59 20 77 122
l53 304c14 78 7 92 -50 100c-5 23 -5 51 -1 78c49 -3 103 -3 173 -3c52 0 128 0 187 3c0 -25 -4 -52 -14 -78c-72 -8 -82 -20 -99 -120l-52 -299c-16 -92 -4 -107 56 -107z" />
    <glyph glyph-name="lacute" unicode="&#x13a;" horiz-adv-x="348" 
d="M276 969c66 9 134 2 168 -17c-65 -63 -121 -128 -156 -181c-33 3 -67 15 -94 33c34 56 70 128 82 165zM256 184c-13 -69 -7 -80 7 -80c9 0 17 3 34 14c13 -13 29 -43 32 -66c-44 -43 -104 -61 -163 -61c-88 0 -113 44 -113 102c0 37 7 82 70 413c13 71 11 88 -53 88
c0 24 4 52 13 75c82 2 162 15 228 41c26 -24 35 -37 26 -88c-26 -146 -53 -292 -81 -438z" />
    <glyph glyph-name="Lcommaaccent" unicode="&#x13b;" horiz-adv-x="640" 
d="M359 75h17c68 0 110 52 142 150c42 -9 74 -23 102 -46c-16 -39 -38 -116 -46 -182c-68 3 -180 3 -260 3c-74 0 -259 -1 -304 -3c3 28 8 51 19 78c54 5 59 20 77 122l53 304c14 78 7 92 -50 100c-5 23 -5 51 -1 78c49 -3 103 -3 173 -3c52 0 128 0 187 3
c0 -25 -4 -52 -14 -78c-72 -8 -82 -20 -99 -120l-52 -299c-16 -92 -4 -107 56 -107zM328 -37c37 -11 49 -33 41 -84c-14 -85 -68 -148 -147 -197c-26 3 -46 16 -57 36c33 22 56 51 60 75c4 26 -15 38 -59 43c2 38 12 69 31 96c53 1 98 11 131 31z" />
    <glyph glyph-name="lcommaaccent" unicode="&#x13c;" horiz-adv-x="348" 
d="M256 184c-13 -69 -7 -80 7 -80c9 0 17 3 34 14c13 -13 29 -43 32 -66c-44 -43 -104 -61 -163 -61c-88 0 -113 44 -113 102c0 37 7 82 70 413c13 71 11 88 -53 88c0 24 4 52 13 75c82 2 162 15 228 41c26 -24 35 -37 26 -88c-26 -146 -53 -292 -81 -438zM229 -37
c37 -11 49 -33 41 -84c-14 -85 -68 -148 -147 -197c-26 3 -46 16 -57 36c33 22 56 51 60 75c4 26 -15 38 -59 43c2 38 12 69 31 96c53 1 98 11 131 31z" />
    <glyph glyph-name="Lcaron" unicode="&#x13d;" horiz-adv-x="640" 
d="M674 753c25 -11 45 -42 30 -120c-19 -105 -80 -192 -158 -249c-31 4 -51 17 -62 37c96 91 121 171 19 185c0 41 10 77 31 110c53 2 106 17 140 37zM359 75h17c68 0 110 52 142 150c42 -9 74 -23 102 -46c-16 -39 -38 -116 -46 -182c-68 3 -180 3 -260 3
c-74 0 -259 -1 -304 -3c3 28 8 51 19 78c54 5 59 20 77 122l53 304c14 78 7 92 -50 100c-5 23 -5 51 -1 78c49 -3 103 -3 173 -3c52 0 128 0 187 3c0 -25 -4 -52 -14 -78c-72 -8 -82 -20 -99 -120l-52 -299c-16 -92 -4 -107 56 -107z" />
    <glyph glyph-name="lcaron" unicode="&#x13e;" horiz-adv-x="515" 
d="M526 717c25 -11 45 -42 30 -120c-15 -79 -59 -157 -132 -210c-31 4 -51 17 -62 37c78 74 82 135 -1 146c0 41 10 77 31 110c53 2 100 17 134 37zM256 184c-13 -69 -7 -80 7 -80c9 0 17 3 34 14c13 -13 29 -43 32 -66c-44 -43 -104 -61 -163 -61c-88 0 -113 44 -113 102
c0 37 7 82 70 413c13 71 11 88 -53 88c0 24 4 52 13 75c82 2 162 15 228 41c26 -24 35 -37 26 -88c-26 -146 -53 -292 -81 -438z" />
    <glyph glyph-name="Ldot" unicode="&#x13f;" horiz-adv-x="640" 
d="M359 75h17c68 0 110 52 142 150c42 -9 74 -23 102 -46c-16 -39 -38 -116 -46 -182c-68 3 -180 3 -260 3c-74 0 -259 -1 -304 -3c3 28 8 51 19 78c54 5 59 20 77 122l53 304c14 78 7 92 -50 100c-5 23 -5 51 -1 78c49 -3 103 -3 173 -3c52 0 128 0 187 3
c0 -25 -4 -52 -14 -78c-72 -8 -82 -20 -99 -120l-52 -299c-16 -92 -4 -107 56 -107zM568 482c57 0 111 -43 96 -122c-10 -52 -44 -84 -108 -84c-74 0 -119 44 -103 123c10 53 48 83 115 83z" />
    <glyph glyph-name="ldot" unicode="&#x140;" horiz-adv-x="488" 
d="M256 184c-13 -69 -7 -80 7 -80c9 0 17 3 34 14c13 -13 29 -43 32 -66c-44 -43 -104 -61 -163 -61c-88 0 -113 44 -113 102c0 37 7 82 70 413c13 71 11 88 -53 88c0 24 4 52 13 75c82 2 162 15 228 41c26 -24 35 -37 26 -88c-26 -146 -53 -292 -81 -438zM449 482
c57 0 111 -43 96 -122c-10 -52 -44 -84 -108 -84c-74 0 -119 44 -103 123c10 53 48 83 115 83z" />
    <glyph glyph-name="Lslash" unicode="&#x141;" horiz-adv-x="640" 
d="M518 225c42 -9 74 -23 102 -46c-16 -39 -38 -116 -46 -182c-68 3 -180 3 -260 3c-74 0 -259 -1 -304 -3c3 28 8 51 19 78c54 5 59 20 77 122l3 15l-39 -27c-19 19 -32 54 -30 83l89 61l30 172c14 78 7 92 -50 100c-5 23 -5 51 -1 78c49 -3 103 -3 173 -3
c52 0 128 0 187 3c0 -25 -4 -52 -14 -78c-72 -8 -82 -20 -99 -120l-4 -23l73 50c17 -19 28 -49 26 -78l-118 -82l-29 -166c-16 -92 -4 -107 56 -107h17c68 0 110 52 142 150z" />
    <glyph glyph-name="lslash" unicode="&#x142;" horiz-adv-x="348" 
d="M289 356l-33 -172c-13 -69 -7 -80 7 -80c9 0 17 3 34 14c13 -13 29 -43 32 -66c-44 -43 -104 -61 -163 -61c-88 0 -113 44 -113 102c0 22 2 46 17 131l-55 -39c-19 19 -32 54 -30 83l107 73l31 165c13 71 11 88 -53 88c0 24 4 52 13 75c82 2 162 15 228 41
c26 -24 35 -37 26 -88l-28 -155l60 41c17 -19 28 -49 26 -78z" />
    <glyph glyph-name="Nacute" unicode="&#x143;" horiz-adv-x="712" 
d="M641 920c-65 -63 -121 -128 -156 -181c-33 3 -67 15 -94 33c34 56 70 128 82 165c66 9 134 2 168 -17zM648 676c38 0 85 0 127 3c-1 -27 -7 -58 -15 -78c-57 -18 -70 -39 -88 -143l-80 -457c-28 -8 -55 -10 -92 -10c-82 161 -170 320 -262 477l-43 -250
c-18 -104 -15 -126 56 -143c4 -24 4 -52 1 -78c-45 3 -89 3 -119 3c-38 0 -85 0 -127 -3c1 27 7 58 15 78c58 18 80 38 98 143l61 347l-5 8c-12 20 -23 25 -66 28c-5 24 -5 48 -1 78c41 -3 88 -3 127 -3c37 0 81 0 116 3c77 -123 152 -255 217 -385l25 164
c16 104 9 126 -63 143c-4 24 -4 52 -1 78c45 -3 89 -3 119 -3z" />
    <glyph glyph-name="nacute" unicode="&#x144;" horiz-adv-x="668" 
d="M535 702c-65 -63 -121 -128 -156 -181c-33 3 -67 15 -94 33c34 56 70 128 82 165c66 9 134 2 168 -17zM617 118c13 -13 29 -43 32 -66c-44 -43 -104 -61 -162 -61c-118 0 -128 76 -104 181l15 65c10 42 9 83 -21 83c-43 0 -107 -83 -142 -270l-9 -50h-193l49 262
c13 72 12 89 -52 89c0 24 4 53 13 75c82 2 162 15 228 41c26 -14 35 -37 31 -65c-6 -43 -15 -73 -38 -124v-3l17 36c44 90 127 156 220 156c87 0 132 -61 100 -200l-19 -83c-17 -72 -12 -80 2 -80c8 0 16 3 33 14z" />
    <glyph glyph-name="Ncommaaccent" unicode="&#x145;" horiz-adv-x="712" 
d="M648 676c38 0 85 0 127 3c-1 -27 -7 -58 -15 -78c-57 -18 -70 -39 -88 -143l-80 -457c-28 -8 -55 -10 -92 -10c-82 161 -170 320 -262 477l-43 -250c-18 -104 -15 -126 56 -143c4 -24 4 -52 1 -78c-45 3 -89 3 -119 3c-38 0 -85 0 -127 -3c1 27 7 58 15 78
c58 18 80 38 98 143l61 347l-5 8c-12 20 -23 25 -66 28c-5 24 -5 48 -1 78c41 -3 88 -3 127 -3c37 0 81 0 116 3c77 -123 152 -255 217 -385l25 164c16 104 9 126 -63 143c-4 24 -4 52 -1 78c45 -3 89 -3 119 -3zM393 -37c37 -11 49 -33 41 -84c-14 -85 -68 -148 -147 -197
c-26 3 -46 16 -57 36c33 22 56 51 60 75c4 26 -15 38 -59 43c2 38 12 69 31 96c53 1 98 11 131 31z" />
    <glyph glyph-name="ncommaaccent" unicode="&#x146;" horiz-adv-x="668" 
d="M617 118c13 -13 29 -43 32 -66c-44 -43 -104 -61 -162 -61c-118 0 -128 76 -104 181l15 65c10 42 9 83 -21 83c-43 0 -107 -83 -142 -270l-9 -50h-193l49 262c13 72 12 89 -52 89c0 24 4 53 13 75c82 2 162 15 228 41c26 -14 35 -37 31 -65c-6 -43 -15 -73 -38 -124v-3
l17 36c44 90 127 156 220 156c87 0 132 -61 100 -200l-19 -83c-17 -72 -12 -80 2 -80c8 0 16 3 33 14zM384 -37c37 -11 49 -33 41 -84c-14 -85 -68 -148 -147 -197c-26 3 -46 16 -57 36c33 22 56 51 60 75c4 26 -15 38 -59 43c2 38 12 69 31 96c53 1 98 11 131 31z" />
    <glyph glyph-name="Ncaron" unicode="&#x147;" horiz-adv-x="712" 
d="M514 745c-25 -12 -58 -15 -91 -11c-39 53 -85 105 -128 150c15 33 41 53 82 57c33 -29 76 -58 120 -79c46 18 104 51 143 79c26 -8 44 -33 52 -57c-62 -42 -130 -94 -178 -139zM648 676c38 0 85 0 127 3c-1 -27 -7 -58 -15 -78c-57 -18 -70 -39 -88 -143l-80 -457
c-28 -8 -55 -10 -92 -10c-82 161 -170 320 -262 477l-43 -250c-18 -104 -15 -126 56 -143c4 -24 4 -52 1 -78c-45 3 -89 3 -119 3c-38 0 -85 0 -127 -3c1 27 7 58 15 78c58 18 80 38 98 143l61 347l-5 8c-12 20 -23 25 -66 28c-5 24 -5 48 -1 78c41 -3 88 -3 127 -3
c37 0 81 0 116 3c77 -123 152 -255 217 -385l25 164c16 104 9 126 -63 143c-4 24 -4 52 -1 78c45 -3 89 -3 119 -3z" />
    <glyph glyph-name="ncaron" unicode="&#x148;" horiz-adv-x="668" 
d="M408 527c-25 -12 -58 -15 -91 -11c-39 53 -85 105 -128 150c15 33 41 53 82 57c33 -29 76 -58 120 -79c46 18 104 51 143 79c26 -8 44 -33 52 -57c-62 -42 -130 -94 -178 -139zM617 118c13 -13 29 -43 32 -66c-44 -43 -104 -61 -162 -61c-118 0 -128 76 -104 181l15 65
c10 42 9 83 -21 83c-43 0 -107 -83 -142 -270l-9 -50h-193l49 262c13 72 12 89 -52 89c0 24 4 53 13 75c82 2 162 15 228 41c26 -14 35 -37 31 -65c-6 -43 -15 -73 -38 -124v-3l17 36c44 90 127 156 220 156c87 0 132 -61 100 -200l-19 -83c-17 -72 -12 -80 2 -80
c8 0 16 3 33 14z" />
    <glyph glyph-name="napostrophe" unicode="&#x149;" horiz-adv-x="928" 
d="M301 753c25 -11 45 -42 30 -120c-19 -105 -80 -192 -158 -249c-31 4 -51 17 -62 37c96 91 121 171 19 185c0 41 10 77 31 110c53 2 106 17 140 37zM877 118c13 -13 29 -43 32 -66c-44 -43 -104 -61 -162 -61c-118 0 -128 76 -104 181l15 65c10 42 9 83 -21 83
c-43 0 -107 -83 -142 -270l-9 -50h-193l49 262c13 72 12 89 -52 89c0 24 4 53 13 75c82 2 162 15 228 41c26 -14 35 -37 31 -65c-6 -43 -15 -73 -38 -124v-3l17 36c44 90 127 156 220 156c87 0 132 -61 100 -200l-19 -83c-17 -72 -12 -80 2 -80c8 0 16 3 33 14z" />
    <glyph glyph-name="Eng" unicode="&#x14a;" horiz-adv-x="712" 
d="M648 676c38 0 85 0 127 3c-1 -27 -7 -58 -15 -78c-57 -18 -70 -39 -88 -143l-58 -333c-40 -227 -125 -308 -317 -371c-21 18 -31 43 -31 79c113 58 168 120 191 240c-69 134 -142 265 -219 395l-43 -250c-18 -104 -15 -126 56 -143c4 -24 4 -52 1 -78c-45 3 -89 3 -119 3
c-38 0 -85 0 -127 -3c1 27 7 58 15 78c58 18 80 38 98 143l61 347l-5 8c-12 20 -23 25 -66 28c-5 24 -5 48 -1 78c41 -3 88 -3 127 -3c37 0 81 0 116 3c77 -122 152 -256 217 -386l25 165c16 104 9 126 -63 143c-4 24 -4 52 -1 78c45 -3 89 -3 119 -3z" />
    <glyph glyph-name="eng" unicode="&#x14b;" horiz-adv-x="644" 
d="M517 467c83 0 123 -36 90 -213l-24 -129c-43 -226 -125 -308 -317 -371c-21 18 -31 43 -31 79c69 35 122 97 143 219l28 165c11 66 -3 88 -33 88c-41 0 -103 -67 -138 -255l-9 -50h-193l49 262c13 72 12 89 -52 89c0 24 4 53 13 75c82 2 162 15 228 41
c26 -14 35 -37 31 -65c-6 -43 -15 -73 -38 -124v-3l17 36c43 89 136 156 236 156z" />
    <glyph glyph-name="Omacron" unicode="&#x14c;" horiz-adv-x="742" 
d="M296 849h362c0 -15 -2 -38 -9 -58c-105 0 -223 -1 -362 -7c0 20 2 46 9 65zM444 685c213 0 333 -140 293 -351c-39 -205 -191 -343 -398 -343c-220 0 -330 151 -290 360c41 213 197 334 395 334zM434 610c-85 0 -150 -98 -180 -255c-31 -160 -8 -286 94 -286
c87 0 156 113 187 284c26 143 -9 257 -101 257z" />
    <glyph glyph-name="omacron" unicode="&#x14d;" horiz-adv-x="610" 
d="M187 631h362c0 -15 -2 -38 -9 -58c-105 0 -223 -1 -362 -7c0 20 2 46 9 65zM338 467c175 0 262 -93 240 -240c-22 -150 -134 -236 -307 -236c-180 0 -262 97 -240 239c22 151 134 237 307 237zM325 395c-47 0 -79 -63 -93 -157c-17 -114 5 -175 50 -175
c42 0 81 53 97 161c15 102 -5 171 -54 171z" />
    <glyph glyph-name="Ohungarumlaut" unicode="&#x150;" horiz-adv-x="742" 
d="M390 937c66 9 134 2 168 -17c-65 -63 -121 -128 -156 -181c-33 3 -67 15 -94 33c34 56 70 128 82 165zM590 937c66 9 134 2 168 -17c-65 -63 -121 -128 -156 -181c-33 3 -67 15 -94 33c34 56 70 128 82 165zM444 685c213 0 333 -140 293 -351
c-39 -205 -191 -343 -398 -343c-220 0 -330 151 -290 360c41 213 197 334 395 334zM434 610c-85 0 -150 -98 -180 -255c-31 -160 -8 -286 94 -286c87 0 156 113 187 284c26 143 -9 257 -101 257z" />
    <glyph glyph-name="ohungarumlaut" unicode="&#x151;" horiz-adv-x="610" 
d="M281 719c66 9 134 2 168 -17c-65 -63 -121 -128 -156 -181c-33 3 -67 15 -94 33c34 56 70 128 82 165zM481 719c66 9 134 2 168 -17c-65 -63 -121 -128 -156 -181c-33 3 -67 15 -94 33c34 56 70 128 82 165zM338 467c175 0 262 -93 240 -240
c-22 -150 -134 -236 -307 -236c-180 0 -262 97 -240 239c22 151 134 237 307 237zM325 395c-47 0 -79 -63 -93 -157c-17 -114 5 -175 50 -175c42 0 81 53 97 161c15 102 -5 171 -54 171z" />
    <glyph glyph-name="OE" unicode="&#x152;" horiz-adv-x="1029" 
d="M942 485c-5 70 -22 116 -121 116h-154c45 -52 66 -127 58 -219h9c60 0 78 11 85 67c28 6 59 8 91 5c-9 -37 -18 -85 -24 -129c-5 -37 -9 -76 -10 -110c-32 1 -60 5 -86 15c0 39 -7 77 -66 77h-10c-22 -95 -67 -176 -134 -232h188c68 0 111 36 144 143
c41 -6 68 -16 97 -38c-16 -47 -35 -117 -43 -183c-60 3 -180 3 -265 3c-126 0 -196 -9 -362 -9h-3c-219 0 -325 152 -287 360c39 212 198 333 395 334h2h2c114 0 150 -9 384 -9c71 0 160 1 217 3c-9 -55 -14 -122 -9 -182c-31 -8 -64 -12 -98 -12zM254 355
c-31 -165 -4 -286 89 -286c89 0 158 113 185 284c24 154 -3 257 -93 257c-87 0 -151 -98 -181 -255z" />
    <glyph glyph-name="oe" unicode="&#x153;" horiz-adv-x="854" 
d="M667 467c123 0 184 -55 170 -131c-13 -68 -108 -154 -274 -163c4 -46 27 -75 80 -75c44 0 84 16 112 31c15 -25 19 -49 17 -82c-61 -42 -117 -56 -210 -56c-64 0 -104 18 -127 48c-42 -31 -97 -48 -164 -48c-180 0 -262 97 -240 239c22 151 134 237 307 237
c78 0 130 -21 163 -57c39 36 92 57 166 57zM379 224c15 102 -5 171 -54 171c-47 0 -79 -63 -93 -157c-17 -114 5 -175 50 -175c42 0 81 53 97 161zM707 333c8 41 -5 62 -42 62c-38 0 -77 -36 -93 -124l-4 -21c78 7 131 39 139 83z" />
    <glyph glyph-name="Racute" unicode="&#x154;" horiz-adv-x="756" 
d="M608 920c-65 -63 -121 -128 -156 -181c-33 3 -67 15 -94 33c34 56 70 128 82 165c66 9 134 2 168 -17zM691 131c15 -15 30 -43 33 -66c-46 -49 -116 -74 -185 -74c-79 0 -115 36 -153 150c-21 62 -35 90 -57 118h-13l-14 -82c-14 -82 -9 -95 30 -102c4 -26 5 -50 2 -78
c-57 3 -84 3 -149 3c-73 0 -129 -1 -175 -3c3 29 8 51 19 78c48 4 60 20 77 122l52 304c13 78 8 92 -49 100c-4 22 -5 51 -1 78c49 -3 111 -3 175 -3c38 0 122 5 204 5c177 0 244 -96 225 -208c-17 -101 -102 -172 -199 -193c32 -20 58 -56 83 -115c15 -38 29 -47 52 -47
c17 0 33 6 43 13zM501 489c14 76 -17 114 -75 114c-19 0 -35 -4 -52 -11l-42 -244c9 -1 15 -1 22 -1c61 0 131 50 147 142z" />
    <glyph glyph-name="racute" unicode="&#x155;" horiz-adv-x="504" 
d="M352 719c66 9 134 2 168 -17c-65 -63 -121 -128 -156 -181c-33 3 -67 15 -94 33c34 56 70 128 82 165zM251 467c29 -16 34 -39 29 -75c-5 -35 -23 -98 -45 -146h1l29 65c39 88 118 156 200 156c20 0 39 -4 54 -12c-21 -58 -36 -141 -37 -206c-30 -14 -71 -20 -108 -17
c5 22 -10 43 -31 43c-15 0 -31 -10 -47 -34c-28 -42 -46 -109 -61 -191l-9 -50h-193l49 262c13 72 12 89 -52 89c0 24 4 53 13 75c82 3 142 15 208 41z" />
    <glyph glyph-name="Rcommaaccent" unicode="&#x156;" horiz-adv-x="756" 
d="M691 131c15 -15 30 -43 33 -66c-46 -49 -116 -74 -185 -74c-79 0 -115 36 -153 150c-21 62 -35 90 -57 118h-13l-14 -82c-14 -82 -9 -95 30 -102c4 -26 5 -50 2 -78c-57 3 -84 3 -149 3c-73 0 -129 -1 -175 -3c3 29 8 51 19 78c48 4 60 20 77 122l52 304
c13 78 8 92 -49 100c-4 22 -5 51 -1 78c49 -3 111 -3 175 -3c38 0 122 5 204 5c177 0 244 -96 225 -208c-17 -101 -102 -172 -199 -193c32 -20 58 -56 83 -115c15 -38 29 -47 52 -47c17 0 33 6 43 13zM501 489c14 76 -17 114 -75 114c-19 0 -35 -4 -52 -11l-42 -244
c9 -1 15 -1 22 -1c61 0 131 50 147 142zM407 -37c37 -11 49 -33 41 -84c-14 -85 -68 -148 -147 -197c-26 3 -46 16 -57 36c33 22 56 51 60 75c4 26 -15 38 -59 43c2 38 12 69 31 96c53 1 98 11 131 31z" />
    <glyph glyph-name="rcommaaccent" unicode="&#x157;" horiz-adv-x="504" 
d="M251 467c29 -16 34 -39 29 -75c-5 -35 -23 -98 -45 -146h1l29 65c39 88 118 156 200 156c20 0 39 -4 54 -12c-21 -58 -36 -141 -37 -206c-30 -14 -71 -20 -108 -17c5 22 -10 43 -31 43c-15 0 -31 -10 -47 -34c-28 -42 -46 -109 -61 -191l-9 -50h-193l49 262
c13 72 12 89 -52 89c0 24 4 53 13 75c82 3 142 15 208 41zM179 -37c37 -11 49 -33 41 -84c-14 -85 -68 -148 -147 -197c-26 3 -46 16 -57 36c33 22 56 51 60 75c4 26 -15 38 -59 43c2 38 12 69 31 96c53 1 98 11 131 31z" />
    <glyph glyph-name="Rcaron" unicode="&#x158;" horiz-adv-x="756" 
d="M481 745c-25 -12 -58 -15 -91 -11c-39 53 -85 105 -128 150c15 33 41 53 82 57c33 -29 76 -58 120 -79c46 18 104 51 143 79c26 -8 44 -33 52 -57c-62 -42 -130 -94 -178 -139zM691 131c15 -15 30 -43 33 -66c-46 -49 -116 -74 -185 -74c-79 0 -115 36 -153 150
c-21 62 -35 90 -57 118h-13l-14 -82c-14 -82 -9 -95 30 -102c4 -26 5 -50 2 -78c-57 3 -84 3 -149 3c-73 0 -129 -1 -175 -3c3 29 8 51 19 78c48 4 60 20 77 122l52 304c13 78 8 92 -49 100c-4 22 -5 51 -1 78c49 -3 111 -3 175 -3c38 0 122 5 204 5c177 0 244 -96 225 -208
c-17 -101 -102 -172 -199 -193c32 -20 58 -56 83 -115c15 -38 29 -47 52 -47c17 0 33 6 43 13zM501 489c14 76 -17 114 -75 114c-19 0 -35 -4 -52 -11l-42 -244c9 -1 15 -1 22 -1c61 0 131 50 147 142z" />
    <glyph glyph-name="rcaron" unicode="&#x159;" horiz-adv-x="504" 
d="M519 723c26 -8 44 -33 52 -57c-62 -42 -130 -94 -178 -139c-25 -12 -58 -15 -91 -11c-39 53 -85 105 -128 150c15 33 41 53 82 57c33 -29 76 -58 120 -79c46 18 104 51 143 79zM251 467c29 -16 34 -39 29 -75c-5 -35 -23 -98 -45 -146h1l29 65c39 88 118 156 200 156
c20 0 39 -4 54 -12c-21 -58 -36 -141 -37 -206c-30 -14 -71 -20 -108 -17c5 22 -10 43 -31 43c-15 0 -31 -10 -47 -34c-28 -42 -46 -109 -61 -191l-9 -50h-193l49 262c13 72 12 89 -52 89c0 24 4 53 13 75c82 3 142 15 208 41z" />
    <glyph glyph-name="Sacute" unicode="&#x15a;" horiz-adv-x="533" 
d="M356 937c66 9 134 2 168 -17c-65 -63 -121 -128 -156 -181c-33 3 -67 15 -94 33c34 56 70 128 82 165zM343 685c86 0 150 -22 183 -49c-7 -52 -12 -116 -11 -155c-34 -11 -72 -14 -111 -10c-2 86 -36 134 -99 134c-37 0 -64 -14 -70 -47c-27 -138 308 -123 264 -375
c-20 -118 -139 -192 -286 -192c-109 0 -155 21 -220 71c18 48 31 100 38 156c38 7 79 9 118 1c-9 -99 20 -146 91 -146c40 0 79 24 85 58c22 128 -291 112 -240 389c20 109 129 165 258 165z" />
    <glyph glyph-name="sacute" unicode="&#x15b;" horiz-adv-x="478" 
d="M311 719c66 9 134 2 168 -17c-65 -63 -121 -128 -156 -181c-33 3 -67 15 -94 33c34 56 70 128 82 165zM294 467c63 0 136 -16 179 -37c-12 -40 -18 -84 -19 -139c-31 -14 -68 -17 -102 -13c-3 68 -24 117 -69 117c-18 0 -33 -5 -37 -27c-17 -86 210 -118 182 -265
c-17 -90 -88 -112 -247 -112c-86 0 -151 14 -191 40c15 39 23 84 24 137c30 10 66 13 105 9c1 -73 24 -108 69 -108c23 0 34 10 37 24c15 68 -202 110 -174 259c18 94 112 115 243 115z" />
    <glyph glyph-name="Scircumflex" unicode="&#x15c;" horiz-adv-x="533" 
d="M349 937c26 4 59 2 85 -7c35 -49 76 -98 134 -160c-19 -18 -51 -29 -88 -31c-37 30 -81 59 -120 77c-45 -22 -112 -63 -145 -87c-33 13 -53 47 -57 70c64 36 143 93 191 138zM343 685c86 0 150 -22 183 -49c-7 -52 -12 -116 -11 -155c-34 -11 -72 -14 -111 -10
c-2 86 -36 134 -99 134c-37 0 -64 -14 -70 -47c-27 -138 308 -123 264 -375c-20 -118 -139 -192 -286 -192c-109 0 -155 21 -220 71c18 48 31 100 38 156c38 7 79 9 118 1c-9 -99 20 -146 91 -146c40 0 79 24 85 58c22 128 -291 112 -240 389c20 109 129 165 258 165z" />
    <glyph glyph-name="scircumflex" unicode="&#x15d;" horiz-adv-x="478" 
d="M304 719c26 4 59 2 85 -7c35 -49 76 -98 134 -160c-19 -18 -51 -29 -88 -31c-37 30 -81 59 -120 77c-45 -22 -112 -63 -145 -87c-33 13 -53 47 -57 70c64 36 143 93 191 138zM294 467c63 0 136 -16 179 -37c-12 -40 -18 -84 -19 -139c-31 -14 -68 -17 -102 -13
c-3 68 -24 117 -69 117c-18 0 -33 -5 -37 -27c-17 -86 210 -118 182 -265c-17 -90 -88 -112 -247 -112c-86 0 -151 14 -191 40c15 39 23 84 24 137c30 10 66 13 105 9c1 -73 24 -108 69 -108c23 0 34 10 37 24c15 68 -202 110 -174 259c18 94 112 115 243 115z" />
    <glyph glyph-name="Scedilla" unicode="&#x15e;" horiz-adv-x="533" 
d="M305 605c-37 0 -64 -14 -70 -47c-27 -138 308 -123 264 -375c-18 -104 -112 -174 -235 -189l-38 -40c49 -16 64 -54 55 -102c-12 -62 -79 -97 -194 -94c-5 15 -3 36 1 51c44 -1 84 13 88 36c6 31 -19 45 -52 45c-8 14 -11 30 -9 47l56 55c-80 5 -122 27 -178 70
c18 48 31 100 38 156c38 7 79 9 118 1c-9 -99 20 -146 91 -146c40 0 79 24 85 58c22 128 -291 112 -240 389c20 109 129 165 258 165c86 0 150 -22 183 -49c-7 -52 -12 -116 -11 -155c-34 -11 -72 -14 -111 -10c-2 86 -36 134 -99 134z" />
    <glyph glyph-name="scedilla" unicode="&#x15f;" horiz-adv-x="478" 
d="M283 395c-18 0 -33 -5 -37 -27c-17 -86 210 -118 182 -265c-15 -79 -71 -105 -191 -111l-36 -38c49 -16 64 -54 55 -102c-12 -62 -79 -97 -194 -94c-5 15 -3 36 1 51c44 -1 84 13 88 36c6 31 -19 45 -52 45c-8 14 -11 30 -9 47l56 55c-69 3 -122 17 -156 39
c15 39 23 84 24 137c30 10 66 13 105 9c1 -73 24 -108 69 -108c23 0 34 10 37 24c15 68 -202 110 -174 259c18 94 112 115 243 115c63 0 136 -16 179 -37c-12 -40 -18 -84 -19 -139c-31 -14 -68 -17 -102 -13c-3 68 -24 117 -69 117z" />
    <glyph glyph-name="Scaron" unicode="&#x160;" horiz-adv-x="533" 
d="M523 941c26 -8 44 -33 52 -57c-62 -42 -130 -94 -178 -139c-25 -12 -58 -15 -91 -11c-39 53 -85 105 -128 150c15 33 41 53 82 57c33 -29 76 -58 120 -79c46 18 104 51 143 79zM343 685c86 0 150 -22 183 -49c-7 -52 -12 -116 -11 -155c-34 -11 -72 -14 -111 -10
c-2 86 -36 134 -99 134c-37 0 -64 -14 -70 -47c-27 -138 308 -123 264 -375c-20 -118 -139 -192 -286 -192c-109 0 -155 21 -220 71c18 48 31 100 38 156c38 7 79 9 118 1c-9 -99 20 -146 91 -146c40 0 79 24 85 58c22 128 -291 112 -240 389c20 109 129 165 258 165z" />
    <glyph glyph-name="scaron" unicode="&#x161;" horiz-adv-x="478" 
d="M478 723c26 -8 44 -33 52 -57c-62 -42 -130 -94 -178 -139c-25 -12 -58 -15 -91 -11c-39 53 -85 105 -128 150c15 33 41 53 82 57c33 -29 76 -58 120 -79c46 18 104 51 143 79zM294 467c63 0 136 -16 179 -37c-12 -40 -18 -84 -19 -139c-31 -14 -68 -17 -102 -13
c-3 68 -24 117 -69 117c-18 0 -33 -5 -37 -27c-17 -86 210 -118 182 -265c-17 -90 -88 -112 -247 -112c-86 0 -151 14 -191 40c15 39 23 84 24 137c30 10 66 13 105 9c1 -73 24 -108 69 -108c23 0 34 10 37 24c15 68 -202 110 -174 259c18 94 112 115 243 115z" />
    <glyph glyph-name="Tcedilla" unicode="&#x162;" horiz-adv-x="641" 
d="M683 679c-6 -55 -10 -132 -3 -196c-29 -9 -64 -12 -100 -10c-7 86 -25 126 -89 128l-72 -414c-14 -81 -8 -99 81 -112c5 -25 5 -54 3 -78c-35 2 -89 3 -150 3l-44 -46c49 -16 64 -54 55 -102c-12 -62 -79 -97 -194 -94c-5 15 -3 36 1 51c44 -1 84 13 88 36
c6 31 -19 45 -52 45c-8 14 -11 30 -9 47l64 63c-71 0 -132 -1 -177 -3c2 29 10 58 18 78c88 11 101 23 118 122l70 404c-65 -5 -103 -47 -134 -129c-39 0 -68 5 -95 21c20 48 38 130 44 186c81 -3 149 -3 287 -3c127 0 188 0 290 3z" />
    <glyph glyph-name="tcedilla" unicode="&#x163;" horiz-adv-x="398" 
d="M296 352l-25 -109c-27 -116 -13 -137 17 -137c14 0 32 7 46 21c13 -19 24 -49 26 -74c-23 -27 -71 -48 -118 -57l-40 -42c49 -16 64 -54 55 -102c-12 -62 -79 -97 -194 -94c-5 15 -3 36 1 51c44 -1 84 13 88 36c6 31 -19 45 -52 45c-8 14 -11 30 -9 47l59 59
c-88 21 -107 112 -77 235l31 128c-28 7 -51 10 -69 10c0 28 3 60 14 79h77l2 10c14 60 20 96 22 124c54 5 116 21 150 38c51 -12 40 -82 21 -162l-2 -10h88c0 -32 -2 -66 -10 -83c-36 0 -65 -3 -101 -13z" />
    <glyph glyph-name="Tcaron" unicode="&#x164;" horiz-adv-x="641" 
d="M450 745c-25 -12 -58 -15 -91 -11c-39 53 -85 105 -128 150c15 33 41 53 82 57c33 -29 76 -58 120 -79c46 18 104 51 143 79c26 -8 44 -33 52 -57c-62 -42 -130 -94 -178 -139zM683 679c-6 -55 -10 -132 -3 -196c-29 -9 -64 -12 -100 -10c-7 86 -25 126 -89 128l-72 -414
c-14 -81 -8 -99 81 -112c5 -25 5 -54 3 -78c-44 3 -115 3 -196 3c-89 0 -168 0 -222 -3c2 29 10 58 18 78c88 11 101 23 118 122l70 404c-65 -5 -103 -47 -134 -129c-39 0 -68 5 -95 21c20 48 38 130 44 186c81 -3 149 -3 287 -3c127 0 188 0 290 3z" />
    <glyph glyph-name="tcaron" unicode="&#x165;" horiz-adv-x="551" 
d="M586 717c25 -11 45 -42 30 -120c-15 -79 -59 -157 -132 -210c-31 4 -51 17 -62 37c78 74 82 135 -1 146c0 41 10 77 31 110c53 2 100 17 134 37zM319 448h88c0 -32 -2 -66 -10 -83c-36 0 -65 -3 -101 -13l-25 -109c-27 -116 -13 -137 17 -137c14 0 32 7 46 21
c13 -19 24 -49 26 -74c-31 -36 -108 -62 -166 -62c-126 0 -155 99 -121 240l31 128c-28 7 -51 10 -69 10c0 28 3 60 14 79h77l2 10c14 60 20 96 22 124c54 5 116 21 150 38c51 -12 40 -82 21 -162z" />
    <glyph glyph-name="Tbar" unicode="&#x166;" horiz-adv-x="641" 
d="M683 679c-6 -55 -10 -132 -3 -196c-29 -9 -64 -12 -100 -10c-7 86 -25 126 -89 128l-42 -241h84c0 -15 -2 -38 -9 -58h-85l-20 -115c-14 -81 -8 -99 81 -112c5 -25 5 -54 3 -78c-44 3 -115 3 -196 3c-89 0 -168 0 -222 -3c2 29 10 58 18 78c88 11 101 23 118 122l17 101
l-76 -3c0 20 2 46 9 65h78l42 241c-65 -5 -103 -47 -134 -129c-39 0 -68 5 -95 21c20 48 38 130 44 186c81 -3 149 -3 287 -3c127 0 188 0 290 3z" />
    <glyph glyph-name="tbar" unicode="&#x167;" horiz-adv-x="398" 
d="M397 365c-36 0 -65 -3 -101 -13l-16 -71h58c0 -14 -2 -38 -9 -58h-63c-20 -99 -6 -117 22 -117c14 0 32 7 46 21c13 -19 24 -49 26 -74c-31 -36 -108 -62 -166 -62c-122 0 -153 93 -124 226c-24 -1 -43 -2 -56 -4c0 20 2 49 9 68h62l19 78c-28 7 -51 10 -69 10
c0 28 3 60 14 79h77l2 10c14 60 20 96 22 124c54 5 116 21 150 38c51 -12 40 -82 21 -162l-2 -10h88c0 -32 -2 -66 -10 -83z" />
    <glyph glyph-name="Umacron" unicode="&#x16a;" 
d="M330 849h362c0 -15 -2 -38 -9 -58c-105 0 -223 -1 -362 -7c0 20 2 46 9 65zM103 679c49 -3 104 -3 168 -3c52 0 113 0 172 3c0 -25 -4 -51 -14 -78c-55 -6 -61 -19 -79 -120l-39 -215c-24 -135 4 -194 74 -194c87 0 128 79 149 195l37 210c19 105 16 112 -37 124
c-4 24 -5 48 -1 78c43 -3 83 -3 108 -3c43 0 68 0 104 3c-1 -26 -6 -56 -14 -78c-55 -7 -61 -13 -82 -135l-33 -189c-37 -206 -106 -286 -279 -286c-195 0 -258 93 -227 268l43 242c13 78 8 92 -49 100c-4 22 -5 51 -1 78z" />
    <glyph glyph-name="umacron" unicode="&#x16b;" 
d="M205 631h362c0 -15 -2 -38 -9 -58c-105 0 -223 -1 -362 -7c0 20 2 46 9 65zM271 467c40 -25 40 -41 10 -179c-25 -114 -14 -135 17 -135c41 0 103 67 138 255l9 50h193l-44 -253c-16 -89 -13 -101 3 -101c7 0 17 5 29 14c15 -12 31 -42 32 -66c-44 -43 -104 -61 -163 -61
c-106 0 -125 57 -113 117c3 15 7 31 15 48h-1c-51 -104 -141 -165 -242 -165c-76 0 -122 39 -83 210c32 141 29 146 -41 150c0 24 4 53 13 75c82 2 162 15 228 41z" />
    <glyph glyph-name="Ubreve" unicode="&#x16c;" 
d="M739 924c-24 -124 -109 -189 -246 -189c-135 0 -192 63 -169 184c32 12 73 17 109 12c-2 -48 34 -75 98 -75c63 0 106 27 119 75c34 6 66 2 89 -7zM103 679c49 -3 104 -3 168 -3c52 0 113 0 172 3c0 -25 -4 -51 -14 -78c-55 -6 -61 -19 -79 -120l-39 -215
c-24 -135 4 -194 74 -194c87 0 128 79 149 195l37 210c19 105 16 112 -37 124c-4 24 -5 48 -1 78c43 -3 83 -3 108 -3c43 0 68 0 104 3c-1 -26 -6 -56 -14 -78c-55 -7 -61 -13 -82 -135l-33 -189c-37 -206 -106 -286 -279 -286c-195 0 -258 93 -227 268l43 242
c13 78 8 92 -49 100c-4 22 -5 51 -1 78z" />
    <glyph glyph-name="ubreve" unicode="&#x16d;" 
d="M614 706c-24 -124 -109 -189 -246 -189c-135 0 -192 63 -169 184c32 12 73 17 109 12c-2 -48 34 -75 98 -75c63 0 106 27 119 75c34 6 66 2 89 -7zM271 467c40 -25 40 -41 10 -179c-25 -114 -14 -135 17 -135c41 0 103 67 138 255l9 50h193l-44 -253
c-16 -89 -13 -101 3 -101c7 0 17 5 29 14c15 -12 31 -42 32 -66c-44 -43 -104 -61 -163 -61c-106 0 -125 57 -113 117c3 15 7 31 15 48h-1c-51 -104 -141 -165 -242 -165c-76 0 -122 39 -83 210c32 141 29 146 -41 150c0 24 4 53 13 75c82 2 162 15 228 41z" />
    <glyph glyph-name="Uring" unicode="&#x16e;" 
d="M523 947c94 0 137 -50 121 -117c-15 -62 -70 -96 -148 -96c-99 0 -138 54 -122 118c16 63 74 95 149 95zM516 892c-20 0 -35 -19 -39 -49c-4 -27 3 -49 26 -49c19 0 35 16 40 43c4 23 -1 55 -27 55zM103 679c49 -3 104 -3 168 -3c52 0 113 0 172 3c0 -25 -4 -51 -14 -78
c-55 -6 -61 -19 -79 -120l-39 -215c-24 -135 4 -194 74 -194c87 0 128 79 149 195l37 210c19 105 16 112 -37 124c-4 24 -5 48 -1 78c43 -3 83 -3 108 -3c43 0 68 0 104 3c-1 -26 -6 -56 -14 -78c-55 -7 -61 -13 -82 -135l-33 -189c-37 -206 -106 -286 -279 -286
c-195 0 -258 93 -227 268l43 242c13 78 8 92 -49 100c-4 22 -5 51 -1 78z" />
    <glyph glyph-name="uring" unicode="&#x16f;" 
d="M398 729c94 0 137 -50 121 -117c-15 -62 -70 -96 -148 -96c-99 0 -138 54 -122 118c16 63 74 95 149 95zM391 674c-20 0 -35 -19 -39 -49c-4 -27 3 -49 26 -49c19 0 35 16 40 43c4 23 -1 55 -27 55zM271 467c40 -25 40 -41 10 -179c-25 -114 -14 -135 17 -135
c41 0 103 67 138 255l9 50h193l-44 -253c-16 -89 -13 -101 3 -101c7 0 17 5 29 14c15 -12 31 -42 32 -66c-44 -43 -104 -61 -163 -61c-106 0 -125 57 -113 117c3 15 7 31 15 48h-1c-51 -104 -141 -165 -242 -165c-76 0 -122 39 -83 210c32 141 29 146 -41 150
c0 24 4 53 13 75c82 2 162 15 228 41z" />
    <glyph glyph-name="Uhungarumlaut" unicode="&#x170;" 
d="M424 937c66 9 134 2 168 -17c-65 -63 -121 -128 -156 -181c-33 3 -67 15 -94 33c34 56 70 128 82 165zM624 937c66 9 134 2 168 -17c-65 -63 -121 -128 -156 -181c-33 3 -67 15 -94 33c34 56 70 128 82 165zM103 679c49 -3 104 -3 168 -3c52 0 113 0 172 3
c0 -25 -4 -51 -14 -78c-55 -6 -61 -19 -79 -120l-39 -215c-24 -135 4 -194 74 -194c87 0 128 79 149 195l37 210c19 105 16 112 -37 124c-4 24 -5 48 -1 78c43 -3 83 -3 108 -3c43 0 68 0 104 3c-1 -26 -6 -56 -14 -78c-55 -7 -61 -13 -82 -135l-33 -189
c-37 -206 -106 -286 -279 -286c-195 0 -258 93 -227 268l43 242c13 78 8 92 -49 100c-4 22 -5 51 -1 78z" />
    <glyph glyph-name="uhungarumlaut" unicode="&#x171;" 
d="M299 719c66 9 134 2 168 -17c-65 -63 -121 -128 -156 -181c-33 3 -67 15 -94 33c34 56 70 128 82 165zM499 719c66 9 134 2 168 -17c-65 -63 -121 -128 -156 -181c-33 3 -67 15 -94 33c34 56 70 128 82 165zM271 467c40 -25 40 -41 10 -179c-25 -114 -14 -135 17 -135
c41 0 103 67 138 255l9 50h193l-44 -253c-16 -89 -13 -101 3 -101c7 0 17 5 29 14c15 -12 31 -42 32 -66c-44 -43 -104 -61 -163 -61c-106 0 -125 57 -113 117c3 15 7 31 15 48h-1c-51 -104 -141 -165 -242 -165c-76 0 -122 39 -83 210c32 141 29 146 -41 150
c0 24 4 53 13 75c82 2 162 15 228 41z" />
    <glyph glyph-name="Uogonek" unicode="&#x172;" 
d="M641 676c43 0 68 0 104 3c-1 -26 -6 -56 -14 -78c-55 -7 -61 -13 -82 -135l-33 -189c-26 -146 -68 -229 -153 -265c-59 -28 -90 -65 -95 -98c-3 -22 6 -47 43 -47c10 0 22 2 29 7c19 -18 29 -48 32 -69c-35 -11 -74 -32 -97 -53c-10 -1 -14 -1 -23 -1
c-107 0 -170 38 -153 123c8 36 27 78 126 117c-185 4 -245 97 -215 268l43 242c13 78 8 92 -49 100c-4 22 -5 51 -1 78c49 -3 104 -3 168 -3c52 0 113 0 172 3c0 -25 -4 -51 -14 -78c-55 -6 -61 -19 -79 -120l-39 -215c-24 -135 4 -194 74 -194c87 0 128 79 149 195l37 210
c19 105 16 112 -37 124c-4 24 -5 48 -1 78c43 -3 83 -3 108 -3z" />
    <glyph glyph-name="uogonek" unicode="&#x173;" 
d="M576 -126c19 -18 29 -48 32 -69c-35 -11 -74 -32 -97 -53c-10 -1 -14 -1 -23 -1c-107 0 -170 38 -153 123c7 36 27 79 130 119c-80 10 -94 61 -83 115c3 15 7 31 15 48h-1c-51 -104 -141 -165 -242 -165c-76 0 -122 39 -83 210c32 141 29 146 -41 150c0 24 4 53 13 75
c82 2 162 15 228 41c40 -25 40 -41 10 -179c-25 -114 -14 -135 17 -135c41 0 103 67 138 255l9 50h193l-44 -253c-16 -89 -13 -101 3 -101c7 0 17 5 29 14c15 -12 31 -42 32 -66c-19 -18 -40 -32 -63 -42c-57 -28 -86 -63 -91 -96c-3 -22 6 -47 43 -47c10 0 22 2 29 7z" />
    <glyph glyph-name="Wcircumflex" unicode="&#x174;" horiz-adv-x="978" 
d="M504 729c-33 13 -53 47 -57 70c64 36 143 93 191 138c26 4 59 2 85 -7c35 -49 76 -98 134 -160c-19 -18 -51 -29 -88 -31c-37 30 -81 59 -120 77c-45 -22 -112 -63 -145 -87zM953 676c37 0 61 0 103 3c-1 -27 -6 -55 -14 -78c-35 -7 -61 -36 -111 -153
c-64 -150 -132 -301 -206 -451c-22 -6 -74 -3 -106 6c-28 143 -53 255 -89 393c-65 -135 -134 -268 -206 -400c-27 -6 -79 -1 -102 9c-22 175 -47 345 -72 480c-18 95 -22 107 -56 116c-4 19 -5 48 -1 78c51 -3 129 -3 157 -3c36 0 115 0 178 3c-1 -32 -7 -59 -14 -78
c-67 -8 -76 -55 -63 -135c8 -52 20 -114 30 -193c72 133 141 267 205 403c26 6 55 8 80 6c42 -147 73 -274 101 -416c32 67 62 134 88 202c36 91 27 126 -18 133c-5 24 -5 50 -1 78c33 -3 88 -3 117 -3z" />
    <glyph glyph-name="wcircumflex" unicode="&#x175;" horiz-adv-x="834" 
d="M314 511c-33 13 -53 47 -57 70c64 36 143 93 191 138c26 4 59 2 85 -7c35 -49 76 -98 134 -160c-19 -18 -51 -29 -88 -31c-37 30 -81 59 -120 77c-45 -22 -112 -63 -145 -87zM763 467c38 -12 62 -42 62 -116c0 -95 -77 -210 -275 -360c-31 0 -69 6 -90 20
c-10 66 -20 116 -41 177c-25 -74 -85 -140 -173 -197c-31 0 -72 6 -93 20c-22 120 -46 217 -66 281c-14 46 -31 61 -83 58c0 29 4 54 12 76c53 4 146 25 187 41c26 -8 35 -19 46 -56c27 -95 47 -187 62 -277c66 89 66 157 27 292c50 8 89 21 125 41c26 -8 35 -19 49 -56
c33 -97 58 -190 77 -281c49 54 65 97 65 136c0 60 -32 87 -84 84c0 29 1 54 9 76c53 4 143 25 184 41z" />
    <glyph glyph-name="Ycircumflex" unicode="&#x176;" horiz-adv-x="606" 
d="M284 729c-33 13 -53 47 -57 70c64 36 143 93 191 138c26 4 59 2 85 -7c35 -49 76 -98 134 -160c-19 -18 -51 -29 -88 -31c-37 30 -81 59 -120 77c-45 -22 -112 -63 -145 -87zM581 676c37 0 61 0 103 3c-1 -27 -6 -55 -14 -78c-22 -5 -38 -14 -79 -86
c-51 -88 -103 -172 -156 -254l-13 -74c-14 -81 -8 -99 81 -112c5 -25 5 -54 3 -78c-44 3 -115 3 -196 3c-89 0 -168 0 -222 -3c2 29 10 58 18 78c88 11 101 23 118 122l11 66c-22 82 -46 163 -74 246c-25 73 -39 85 -67 92c-4 19 -5 48 -1 78c51 -3 129 -3 157 -3
c36 0 115 0 178 3c-1 -32 -7 -59 -14 -78c-57 -7 -63 -32 -48 -80c16 -53 29 -110 40 -171c32 58 61 116 88 176c21 46 16 68 -29 75c-5 24 -5 50 -1 78c33 -3 88 -3 117 -3z" />
    <glyph glyph-name="ycircumflex" unicode="&#x177;" horiz-adv-x="576" 
d="M200 511c-33 13 -53 47 -57 70c64 36 143 93 191 138c26 4 59 2 85 -7c35 -49 76 -98 134 -160c-19 -18 -51 -29 -88 -31c-37 30 -81 59 -120 77c-45 -22 -112 -63 -145 -87zM515 467c38 -12 56 -42 56 -92c0 -59 -18 -112 -209 -332c-217 -251 -270 -291 -363 -291
c-48 0 -86 14 -116 49c0 31 9 76 23 104c32 -16 69 -22 107 -22c66 0 107 11 161 60c-18 137 -40 236 -75 349c-14 46 -31 61 -83 58c0 29 4 54 12 76c53 4 146 25 187 41c26 -8 35 -19 46 -56c29 -101 46 -201 56 -299c68 90 80 128 80 169c0 45 -29 72 -81 69
c0 29 4 54 12 76c53 4 146 25 187 41z" />
    <glyph glyph-name="Ydieresis" unicode="&#x178;" horiz-adv-x="606" 
d="M311 715c-62 0 -92 43 -79 107c9 48 39 75 93 75c62 0 93 -41 78 -105c-12 -49 -42 -77 -92 -77zM538 715c-62 0 -93 40 -81 101c8 52 40 81 99 81c60 0 90 -39 77 -103c-10 -51 -41 -79 -95 -79zM581 676c37 0 61 0 103 3c-1 -27 -6 -55 -14 -78c-22 -5 -38 -14 -79 -86
c-51 -88 -103 -172 -156 -254l-13 -74c-14 -81 -8 -99 81 -112c5 -25 5 -54 3 -78c-44 3 -115 3 -196 3c-89 0 -168 0 -222 -3c2 29 10 58 18 78c88 11 101 23 118 122l11 66c-22 82 -46 163 -74 246c-25 73 -39 85 -67 92c-4 19 -5 48 -1 78c51 -3 129 -3 157 -3
c36 0 115 0 178 3c-1 -32 -7 -59 -14 -78c-57 -7 -63 -32 -48 -80c16 -53 29 -110 40 -171c32 58 61 116 88 176c21 46 16 68 -29 75c-5 24 -5 50 -1 78c33 -3 88 -3 117 -3z" />
    <glyph glyph-name="Zacute" unicode="&#x179;" horiz-adv-x="559" 
d="M540 920c-65 -63 -121 -128 -156 -181c-33 3 -67 15 -94 33c34 56 70 128 82 165c66 9 134 2 168 -17zM588 679c14 -21 20 -45 18 -79c-125 -184 -233 -340 -371 -525h24c87 0 127 35 171 146c42 -6 74 -19 104 -41c-21 -50 -46 -130 -55 -183c-75 3 -180 3 -251 3
c-83 0 -164 0 -222 -3c-13 20 -21 48 -20 81c145 188 255 338 379 523h-42c-62 0 -95 -32 -138 -150c-47 2 -80 12 -106 31c25 56 47 141 57 197c50 -3 164 -3 226 -3c70 0 168 0 226 3z" />
    <glyph glyph-name="zacute" unicode="&#x17a;" horiz-adv-x="460" 
d="M456 702c-65 -63 -121 -128 -156 -181c-33 3 -67 15 -94 33c34 56 70 128 82 165c66 9 134 2 168 -17zM290 145c28 0 38 11 55 56c35 0 73 -8 99 -20c-18 -40 -27 -105 -28 -153c-10 -26 -31 -37 -96 -37c-59 0 -106 9 -186 9c-38 0 -78 -2 -132 -9c-15 22 -22 56 -17 82
c122 83 214 158 285 231c-19 7 -34 9 -50 9c-38 0 -57 -10 -84 -72c-37 0 -83 10 -106 29c32 62 52 120 61 188c35 5 100 9 188 9c76 0 119 -3 162 -9c14 -20 22 -47 22 -72c-63 -77 -148 -161 -258 -248c44 17 64 7 85 7z" />
    <glyph glyph-name="Zdotaccent" unicode="&#x17b;" horiz-adv-x="559" 
d="M367 732c-76 0 -100 34 -93 81c9 59 57 89 123 89c71 0 104 -35 95 -87c-9 -51 -52 -83 -125 -83zM588 679c14 -21 20 -45 18 -79c-125 -184 -233 -340 -371 -525h24c87 0 127 35 171 146c42 -6 74 -19 104 -41c-21 -50 -46 -130 -55 -183c-75 3 -180 3 -251 3
c-83 0 -164 0 -222 -3c-13 20 -21 48 -20 81c145 188 255 338 379 523h-42c-62 0 -95 -32 -138 -150c-47 2 -80 12 -106 31c25 56 47 141 57 197c50 -3 164 -3 226 -3c70 0 168 0 226 3z" />
    <glyph glyph-name="zdotaccent" unicode="&#x17c;" horiz-adv-x="460" 
d="M276 510c-60 0 -94 38 -86 96c8 54 53 84 125 84c57 0 96 -39 86 -98c-9 -54 -50 -82 -125 -82zM290 145c28 0 38 11 55 56c35 0 73 -8 99 -20c-18 -40 -27 -105 -28 -153c-10 -26 -31 -37 -96 -37c-59 0 -106 9 -186 9c-38 0 -78 -2 -132 -9c-15 22 -22 56 -17 82
c122 83 214 158 285 231c-19 7 -34 9 -50 9c-38 0 -57 -10 -84 -72c-37 0 -83 10 -106 29c32 62 52 120 61 188c35 5 100 9 188 9c76 0 119 -3 162 -9c14 -20 22 -47 22 -72c-63 -77 -148 -161 -258 -248c44 17 64 7 85 7z" />
    <glyph glyph-name="Zcaron" unicode="&#x17d;" horiz-adv-x="559" 
d="M413 745c-25 -12 -58 -15 -91 -11c-39 53 -85 105 -128 150c15 33 41 53 82 57c33 -29 76 -58 120 -79c46 18 104 51 143 79c26 -8 44 -33 52 -57c-62 -42 -130 -94 -178 -139zM588 679c14 -21 20 -45 18 -79c-125 -184 -233 -340 -371 -525h24c87 0 127 35 171 146
c42 -6 74 -19 104 -41c-21 -50 -46 -130 -55 -183c-75 3 -180 3 -251 3c-83 0 -164 0 -222 -3c-13 20 -21 48 -20 81c145 188 255 338 379 523h-42c-62 0 -95 -32 -138 -150c-47 2 -80 12 -106 31c25 56 47 141 57 197c50 -3 164 -3 226 -3c70 0 168 0 226 3z" />
    <glyph glyph-name="zcaron" unicode="&#x17e;" horiz-adv-x="460" 
d="M329 527c-25 -12 -58 -15 -91 -11c-39 53 -85 105 -128 150c15 33 41 53 82 57c33 -29 76 -58 120 -79c46 18 104 51 143 79c26 -8 44 -33 52 -57c-62 -42 -130 -94 -178 -139zM463 386c-63 -77 -148 -161 -258 -248c44 17 64 7 85 7c28 0 38 11 55 56c35 0 73 -8 99 -20
c-18 -40 -27 -105 -28 -153c-10 -26 -31 -37 -96 -37c-59 0 -106 9 -186 9c-38 0 -78 -2 -132 -9c-15 22 -22 56 -17 82c122 83 214 158 285 231c-19 7 -34 9 -50 9c-38 0 -57 -10 -84 -72c-37 0 -83 10 -106 29c32 62 52 120 61 188c35 5 100 9 188 9c76 0 119 -3 162 -9
c14 -20 22 -47 22 -72z" />
    <glyph glyph-name="longs" unicode="&#x17f;" horiz-adv-x="354" 
d="M424 714c56 0 105 -8 126 -18c-13 -40 -26 -120 -26 -159c-17 -8 -69 -13 -101 -13c-1 46 5 115 -28 115c-37 0 -50 -40 -78 -191c-20 -105 -33 -184 -48 -281c-33 -216 -149 -415 -316 -415c-42 0 -80 14 -110 49c0 31 9 76 23 104c32 -16 69 -22 107 -22
c64 0 84 21 96 152c6 72 19 188 39 320c-33 11 -61 14 -81 14c0 28 3 60 14 79h81l1 6c31 164 83 260 301 260z" />
    <glyph glyph-name="florin" unicode="&#x192;" horiz-adv-x="441" 
d="M419 714c63 0 110 -8 131 -18c-13 -40 -26 -120 -26 -159c-17 -8 -69 -13 -101 -13c-1 65 4 115 -31 115c-34 0 -48 -46 -75 -191h92c0 -32 -2 -66 -10 -83c-36 0 -64 -3 -99 -13c-16 -93 -26 -167 -34 -215c-40 -249 -99 -385 -319 -385c-53 0 -103 8 -124 18
c13 40 26 120 26 159c17 8 69 13 101 13c1 -57 -5 -115 31 -115c34 0 73 54 88 208c4 40 19 188 38 320c-32 11 -60 14 -80 14c0 28 3 60 14 79h82l1 6c32 166 81 260 295 260z" />
    <glyph glyph-name="Oslashacute" unicode="&#x1fe;" horiz-adv-x="742" 
d="M628 920c-65 -63 -121 -128 -156 -181c-33 3 -67 15 -94 33c34 56 70 128 82 165c66 9 134 2 168 -17zM743 648l-59 -57c53 -62 73 -150 53 -257c-39 -205 -191 -343 -398 -343c-71 0 -130 16 -177 44l-38 -44c-35 0 -71 17 -81 44l54 57c-50 64 -68 154 -48 259
c41 213 197 334 395 334c69 0 129 -15 176 -42l40 42c41 0 68 -12 83 -37zM254 355c-8 -40 -12 -77 -13 -111l284 299c-17 42 -48 67 -91 67c-85 0 -150 -98 -180 -255zM535 353c6 35 9 67 8 97c-100 -102 -192 -202 -288 -310c16 -44 46 -71 93 -71c87 0 156 113 187 284z
" />
    <glyph glyph-name="oslashacute" unicode="&#x1ff;" horiz-adv-x="616" 
d="M528 702c-65 -63 -121 -128 -156 -181c-33 3 -67 15 -94 33c34 56 70 128 82 165c66 9 134 2 168 -17zM611 439c-18 -13 -40 -30 -63 -48c33 -41 46 -97 36 -164c-22 -150 -134 -236 -307 -236c-55 0 -101 9 -138 26l-42 -43c-32 0 -65 15 -82 36l60 54
c-36 42 -48 99 -38 166c22 151 134 237 307 237c58 0 106 -10 144 -29l48 43c34 -2 63 -20 75 -42zM238 238l-4 -30l149 135c-9 33 -27 52 -52 52c-47 0 -79 -63 -93 -157zM385 224l3 29c-50 -45 -102 -93 -150 -139c8 -34 26 -51 50 -51c42 0 81 53 97 161z" />
    <glyph glyph-name="Scommaaccent" unicode="&#x218;" horiz-adv-x="533" 
d="M343 685c86 0 150 -22 183 -49c-7 -52 -12 -116 -11 -155c-34 -11 -72 -14 -111 -10c-2 86 -36 134 -99 134c-37 0 -64 -14 -70 -47c-27 -138 308 -123 264 -375c-20 -118 -139 -192 -286 -192c-109 0 -155 21 -220 71c18 48 31 100 38 156c38 7 79 9 118 1
c-9 -99 20 -146 91 -146c40 0 79 24 85 58c22 128 -291 112 -240 389c20 109 129 165 258 165zM253 -37c37 -11 49 -33 41 -84c-14 -85 -68 -148 -147 -197c-26 3 -46 16 -57 36c33 22 56 51 60 75c4 26 -15 38 -59 43c2 38 12 69 31 96c53 1 98 11 131 31z" />
    <glyph glyph-name="scommaaccent" unicode="&#x219;" horiz-adv-x="478" 
d="M294 467c63 0 136 -16 179 -37c-12 -40 -18 -84 -19 -139c-31 -14 -68 -17 -102 -13c-3 68 -24 117 -69 117c-18 0 -33 -5 -37 -27c-17 -86 210 -118 182 -265c-17 -90 -88 -112 -247 -112c-86 0 -151 14 -191 40c15 39 23 84 24 137c30 10 66 13 105 9
c1 -73 24 -108 69 -108c23 0 34 10 37 24c15 68 -202 110 -174 259c18 94 112 115 243 115zM228 -37c37 -11 49 -33 41 -84c-14 -85 -68 -148 -147 -197c-26 3 -46 16 -57 36c33 22 56 51 60 75c4 26 -15 38 -59 43c2 38 12 69 31 96c53 1 98 11 131 31z" />
    <glyph glyph-name="uni021A" unicode="&#x21a;" horiz-adv-x="641" 
d="M683 679c-6 -55 -10 -132 -3 -196c-29 -9 -64 -12 -100 -10c-7 86 -25 126 -89 128l-72 -414c-14 -81 -8 -99 81 -112c5 -25 5 -54 3 -78c-44 3 -115 3 -196 3c-89 0 -168 0 -222 -3c2 29 10 58 18 78c88 11 101 23 118 122l70 404c-65 -5 -103 -47 -134 -129
c-39 0 -68 5 -95 21c20 48 38 130 44 186c81 -3 149 -3 287 -3c127 0 188 0 290 3zM336 -37c37 -11 49 -33 41 -84c-14 -85 -68 -148 -147 -197c-26 3 -46 16 -57 36c33 22 56 51 60 75c4 26 -15 38 -59 43c2 38 12 69 31 96c53 1 98 11 131 31z" />
    <glyph glyph-name="uni021B" unicode="&#x21b;" horiz-adv-x="398" 
d="M296 352l-25 -109c-27 -116 -13 -137 17 -137c14 0 32 7 46 21c13 -19 24 -49 26 -74c-31 -36 -108 -62 -166 -62c-126 0 -155 99 -121 240l31 128c-28 7 -51 10 -69 10c0 28 3 60 14 79h77l2 10c14 60 20 96 22 124c54 5 116 21 150 38c51 -12 40 -82 21 -162l-2 -10h88
c0 -32 -2 -66 -10 -83c-36 0 -65 -3 -101 -13zM229 -37c37 -11 49 -33 41 -84c-14 -85 -68 -148 -147 -197c-26 3 -46 16 -57 36c33 22 56 51 60 75c4 26 -15 38 -59 43c2 38 12 69 31 96c53 1 98 11 131 31z" />
    <glyph glyph-name="dotlessj" unicode="&#x237;" horiz-adv-x="309" 
d="M41 426c82 2 162 15 228 41c26 -24 35 -37 26 -88l-45 -254c-40 -227 -125 -308 -317 -371c-21 18 -31 43 -31 79c69 35 122 97 143 219l36 211c12 71 11 88 -53 88c0 24 4 52 13 75z" />
    <glyph glyph-name="uni02BC" unicode="&#x2bc;" horiz-adv-x="267" 
d="M282 753c25 -11 45 -42 30 -120c-19 -105 -80 -192 -158 -249c-31 4 -51 17 -62 37c96 91 121 171 19 185c0 41 10 77 31 110c53 2 106 17 140 37z" />
    <glyph glyph-name="circumflex" unicode="&#x2c6;" horiz-adv-x="481" 
d="M292 719c26 4 59 2 85 -7c35 -49 76 -98 134 -160c-19 -18 -51 -29 -88 -31c-37 30 -81 59 -120 77c-45 -22 -112 -63 -145 -87c-33 13 -53 47 -57 70c64 36 143 93 191 138z" />
    <glyph glyph-name="caron" unicode="&#x2c7;" horiz-adv-x="463" 
d="M462 723c26 -8 44 -33 52 -57c-62 -42 -130 -94 -178 -139c-25 -12 -58 -15 -91 -11c-39 53 -85 105 -128 150c15 33 41 53 82 57c33 -29 76 -58 120 -79c46 18 104 51 143 79z" />
    <glyph glyph-name="firsttonechinese" unicode="&#x2c9;" horiz-adv-x="434" 
d="M113 631h362c0 -15 -2 -38 -9 -58c-105 0 -223 -1 -362 -7c0 20 2 46 9 65z" />
    <glyph glyph-name="breve" unicode="&#x2d8;" horiz-adv-x="480" 
d="M540 706c-24 -124 -109 -189 -246 -189c-135 0 -192 63 -169 184c32 12 73 17 109 12c-2 -48 34 -75 98 -75c63 0 106 27 119 75c34 6 66 2 89 -7z" />
    <glyph glyph-name="dotaccent" unicode="&#x2d9;" horiz-adv-x="346" 
d="M229 690c57 0 96 -39 86 -98c-9 -54 -50 -82 -125 -82c-60 0 -94 38 -86 96c8 54 53 84 125 84z" />
    <glyph glyph-name="ring" unicode="&#x2da;" horiz-adv-x="341" 
d="M261 729c94 0 137 -50 121 -117c-15 -62 -70 -96 -148 -96c-99 0 -138 54 -122 118c16 63 74 95 149 95zM254 674c-20 0 -35 -19 -39 -49c-4 -27 3 -49 26 -49c19 0 35 16 40 43c4 23 -1 55 -27 55z" />
    <glyph glyph-name="ogonek" unicode="&#x2db;" horiz-adv-x="375" 
d="M117 48l113 -25c-69 -21 -108 -63 -114 -99c-5 -35 18 -57 53 -57c9 0 21 2 28 7c19 -18 29 -48 32 -69c-35 -11 -74 -32 -97 -53c-10 -1 -14 -1 -23 -1c-105 0 -178 34 -163 123c8 51 43 112 171 174z" />
    <glyph glyph-name="tilde" unicode="&#x2dc;" horiz-adv-x="507" 
d="M275 687c69 0 98 -41 143 -41c41 0 72 20 92 35c20 -20 34 -43 38 -73c-55 -76 -99 -108 -157 -108c-74 0 -96 46 -149 46c-34 0 -79 -22 -111 -47c-20 25 -30 47 -30 82c77 90 134 106 174 106z" />
    <glyph glyph-name="hungarumlaut" unicode="&#x2dd;" horiz-adv-x="487" 
d="M178 719c66 9 134 2 168 -17c-65 -63 -121 -128 -156 -181c-33 3 -67 15 -94 33c34 56 70 128 82 165zM378 719c66 9 134 2 168 -17c-65 -63 -121 -128 -156 -181c-33 3 -67 15 -94 33c34 56 70 128 82 165z" />
    <glyph glyph-name="uni0326" unicode="&#x326;" horiz-adv-x="0" 
d="M101 -37c37 -11 49 -33 41 -84c-14 -85 -68 -148 -147 -197c-26 3 -46 16 -57 36c33 22 56 51 60 75c4 26 -15 38 -59 43c2 38 12 69 31 96c53 1 98 11 131 31z" />
    <glyph glyph-name="mu" unicode="&#x3bc;" horiz-adv-x="672" 
d="M305 458l-22 -130c-22 -126 -14 -175 30 -175c51 0 82 60 110 215l17 90h193l-44 -253c-16 -89 -13 -101 3 -101c7 0 17 5 29 14c15 -12 31 -42 32 -66c-44 -43 -104 -61 -163 -61c-73 0 -101 37 -87 107c2 10 5 21 7 28h-1c-35 -103 -79 -135 -131 -135
c-36 0 -57 16 -67 49h-1c2 -35 -3 -66 -10 -100c-8 -39 -12 -87 -7 -117c-59 -12 -154 -42 -200 -65c-15 10 -24 26 -18 56c6 32 26 62 47 173l90 471h193z" />
    <glyph glyph-name="pi" unicode="&#x3c0;" horiz-adv-x="546" 
d="M530 517c28 -9 65 -21 80 -38c-16 -55 -27 -110 -32 -155c-10 -17 -24 -26 -96 -26h-21c-14 -43 -27 -99 -33 -134c-10 -64 7 -72 32 -72c17 0 34 4 47 4c10 -23 12 -51 5 -80c-27 -14 -76 -29 -120 -29c-81 0 -100 51 -82 139c10 51 30 102 73 177c-45 4 -86 9 -124 12
c-39 -205 -62 -296 -91 -315c-57 0 -103 -3 -135 -9c-12 20 -12 60 -4 93c77 47 131 150 151 231c-33 -4 -52 -17 -91 -48c-32 9 -59 33 -67 64c93 115 158 133 251 133c53 0 152 -6 179 -6c45 0 59 16 78 59z" />
    <glyph glyph-name="Wgrave" unicode="&#x1e80;" horiz-adv-x="978" 
d="M696 760c-28 -8 -67 -8 -94 1c-31 52 -62 94 -112 153c48 13 107 19 162 9c9 -49 25 -112 44 -163zM953 676c37 0 61 0 103 3c-1 -27 -6 -55 -14 -78c-35 -7 -61 -36 -111 -153c-64 -150 -132 -301 -206 -451c-22 -6 -74 -3 -106 6c-28 143 -53 255 -89 393
c-65 -135 -134 -268 -206 -400c-27 -6 -79 -1 -102 9c-22 175 -47 345 -72 480c-18 95 -22 107 -56 116c-4 19 -5 48 -1 78c51 -3 129 -3 157 -3c36 0 115 0 178 3c-1 -32 -7 -59 -14 -78c-67 -8 -76 -55 -63 -135c8 -52 20 -114 30 -193c72 133 141 267 205 403
c26 6 55 8 80 6c42 -147 73 -274 101 -416c32 67 62 134 88 202c36 91 27 126 -18 133c-5 24 -5 50 -1 78c33 -3 88 -3 117 -3z" />
    <glyph glyph-name="wgrave" unicode="&#x1e81;" horiz-adv-x="834" 
d="M506 542c-28 -8 -67 -8 -94 1c-31 52 -62 94 -112 153c48 13 107 19 162 9c9 -49 25 -112 44 -163zM763 467c38 -12 62 -42 62 -116c0 -95 -77 -210 -275 -360c-31 0 -69 6 -90 20c-10 66 -20 116 -41 177c-25 -74 -85 -140 -173 -197c-31 0 -72 6 -93 20
c-22 120 -46 217 -66 281c-14 46 -31 61 -83 58c0 29 4 54 12 76c53 4 146 25 187 41c26 -8 35 -19 46 -56c27 -95 47 -187 62 -277c66 89 66 157 27 292c50 8 89 21 125 41c26 -8 35 -19 49 -56c33 -97 58 -190 77 -281c49 54 65 97 65 136c0 60 -32 87 -84 84
c0 29 1 54 9 76c53 4 143 25 184 41z" />
    <glyph glyph-name="Wacute" unicode="&#x1e82;" horiz-adv-x="978" 
d="M813 920c-65 -63 -121 -128 -156 -181c-33 3 -67 15 -94 33c34 56 70 128 82 165c66 9 134 2 168 -17zM953 676c37 0 61 0 103 3c-1 -27 -6 -55 -14 -78c-35 -7 -61 -36 -111 -153c-64 -150 -132 -301 -206 -451c-22 -6 -74 -3 -106 6c-28 143 -53 255 -89 393
c-65 -135 -134 -268 -206 -400c-27 -6 -79 -1 -102 9c-22 175 -47 345 -72 480c-18 95 -22 107 -56 116c-4 19 -5 48 -1 78c51 -3 129 -3 157 -3c36 0 115 0 178 3c-1 -32 -7 -59 -14 -78c-67 -8 -76 -55 -63 -135c8 -52 20 -114 30 -193c72 133 141 267 205 403
c26 6 55 8 80 6c42 -147 73 -274 101 -416c32 67 62 134 88 202c36 91 27 126 -18 133c-5 24 -5 50 -1 78c33 -3 88 -3 117 -3z" />
    <glyph glyph-name="wacute" unicode="&#x1e83;" horiz-adv-x="834" 
d="M623 702c-65 -63 -121 -128 -156 -181c-33 3 -67 15 -94 33c34 56 70 128 82 165c66 9 134 2 168 -17zM763 467c38 -12 62 -42 62 -116c0 -95 -77 -210 -275 -360c-31 0 -69 6 -90 20c-10 66 -20 116 -41 177c-25 -74 -85 -140 -173 -197c-31 0 -72 6 -93 20
c-22 120 -46 217 -66 281c-14 46 -31 61 -83 58c0 29 4 54 12 76c53 4 146 25 187 41c26 -8 35 -19 46 -56c27 -95 47 -187 62 -277c66 89 66 157 27 292c50 8 89 21 125 41c26 -8 35 -19 49 -56c33 -97 58 -190 77 -281c49 54 65 97 65 136c0 60 -32 87 -84 84
c0 29 1 54 9 76c53 4 143 25 184 41z" />
    <glyph glyph-name="Wdieresis" unicode="&#x1e84;" horiz-adv-x="978" 
d="M531 715c-62 0 -92 43 -79 107c9 48 39 75 93 75c62 0 93 -41 78 -105c-12 -49 -42 -77 -92 -77zM758 715c-62 0 -93 40 -81 101c8 52 40 81 99 81c60 0 90 -39 77 -103c-10 -51 -41 -79 -95 -79zM953 676c37 0 61 0 103 3c-1 -27 -6 -55 -14 -78
c-35 -7 -61 -36 -111 -153c-64 -150 -132 -301 -206 -451c-22 -6 -74 -3 -106 6c-28 143 -53 255 -89 393c-65 -135 -134 -268 -206 -400c-27 -6 -79 -1 -102 9c-22 175 -47 345 -72 480c-18 95 -22 107 -56 116c-4 19 -5 48 -1 78c51 -3 129 -3 157 -3c36 0 115 0 178 3
c-1 -32 -7 -59 -14 -78c-67 -8 -76 -55 -63 -135c8 -52 20 -114 30 -193c72 133 141 267 205 403c26 6 55 8 80 6c42 -147 73 -274 101 -416c32 67 62 134 88 202c36 91 27 126 -18 133c-5 24 -5 50 -1 78c33 -3 88 -3 117 -3z" />
    <glyph glyph-name="wdieresis" unicode="&#x1e85;" horiz-adv-x="834" 
d="M341 497c-62 0 -92 43 -79 107c9 48 39 75 93 75c62 0 93 -41 78 -105c-12 -49 -42 -77 -92 -77zM568 497c-62 0 -93 40 -81 101c8 52 40 81 99 81c60 0 90 -39 77 -103c-10 -51 -41 -79 -95 -79zM763 467c38 -12 62 -42 62 -116c0 -95 -77 -210 -275 -360
c-31 0 -69 6 -90 20c-10 66 -20 116 -41 177c-25 -74 -85 -140 -173 -197c-31 0 -72 6 -93 20c-22 120 -46 217 -66 281c-14 46 -31 61 -83 58c0 29 4 54 12 76c53 4 146 25 187 41c26 -8 35 -19 46 -56c27 -95 47 -187 62 -277c66 89 66 157 27 292c50 8 89 21 125 41
c26 -8 35 -19 49 -56c33 -97 58 -190 77 -281c49 54 65 97 65 136c0 60 -32 87 -84 84c0 29 1 54 9 76c53 4 143 25 184 41z" />
    <glyph glyph-name="uni1E9E" unicode="&#x1e9e;" horiz-adv-x="725" 
d="M704 679c12 -17 21 -55 19 -84c-41 -63 -96 -135 -152 -197c99 -27 146 -95 125 -213c-22 -126 -108 -194 -268 -194c-72 0 -117 20 -154 53c13 42 24 100 27 139c29 10 66 12 103 3c-9 -90 4 -111 28 -111c25 0 49 27 59 83c20 116 -37 166 -124 179
c-14 22 -20 54 -18 84c49 47 104 113 153 182c-24 1 -46 1 -67 1c-66 0 -105 -45 -130 -193l-68 -411c-73 0 -169 0 -265 -3c3 29 8 51 19 78c49 7 60 18 74 102l42 245c37 216 170 257 330 257c55 0 115 -3 161 -3c36 0 67 0 106 3z" />
    <glyph glyph-name="Ygrave" unicode="&#x1ef2;" horiz-adv-x="606" 
d="M476 760c-28 -8 -67 -8 -94 1c-31 52 -62 94 -112 153c48 13 107 19 162 9c9 -49 25 -112 44 -163zM581 676c37 0 61 0 103 3c-1 -27 -6 -55 -14 -78c-22 -5 -38 -14 -79 -86c-51 -88 -103 -172 -156 -254l-13 -74c-14 -81 -8 -99 81 -112c5 -25 5 -54 3 -78
c-44 3 -115 3 -196 3c-89 0 -168 0 -222 -3c2 29 10 58 18 78c88 11 101 23 118 122l11 66c-22 82 -46 163 -74 246c-25 73 -39 85 -67 92c-4 19 -5 48 -1 78c51 -3 129 -3 157 -3c36 0 115 0 178 3c-1 -32 -7 -59 -14 -78c-57 -7 -63 -32 -48 -80c16 -53 29 -110 40 -171
c32 58 61 116 88 176c21 46 16 68 -29 75c-5 24 -5 50 -1 78c33 -3 88 -3 117 -3z" />
    <glyph glyph-name="ygrave" unicode="&#x1ef3;" horiz-adv-x="576" 
d="M392 542c-28 -8 -67 -8 -94 1c-31 52 -62 94 -112 153c48 13 107 19 162 9c9 -49 25 -112 44 -163zM515 467c38 -12 56 -42 56 -92c0 -59 -18 -112 -209 -332c-217 -251 -270 -291 -363 -291c-48 0 -86 14 -116 49c0 31 9 76 23 104c32 -16 69 -22 107 -22
c66 0 107 11 161 60c-18 137 -40 236 -75 349c-14 46 -31 61 -83 58c0 29 4 54 12 76c53 4 146 25 187 41c26 -8 35 -19 46 -56c29 -101 46 -201 56 -299c68 90 80 128 80 169c0 45 -29 72 -81 69c0 29 4 54 12 76c53 4 146 25 187 41z" />
    <glyph glyph-name="endash" unicode="&#x2013;" horiz-adv-x="526" 
d="M56 320h460c-1 -31 -10 -64 -27 -87c-150 0 -278 0 -461 -4c1 32 11 66 28 91z" />
    <glyph glyph-name="emdash" unicode="&#x2014;" horiz-adv-x="986" 
d="M55 320h921c-2 -32 -10 -62 -26 -85c-292 0 -581 0 -922 -4c1 34 10 65 27 89z" />
    <glyph glyph-name="quoteleft" unicode="&#x2018;" horiz-adv-x="296" 
d="M136 387c-25 11 -45 42 -30 120c15 79 59 157 132 210c31 -4 51 -17 62 -37c-78 -74 -82 -135 1 -146c0 -41 -10 -77 -31 -110c-53 -2 -100 -17 -134 -37z" />
    <glyph glyph-name="quoteright" unicode="&#x2019;" horiz-adv-x="296" 
d="M286 717c25 -11 45 -42 30 -120c-15 -79 -59 -157 -132 -210c-31 4 -51 17 -62 37c78 74 82 135 -1 146c0 41 10 77 31 110c53 2 100 17 134 37z" />
    <glyph glyph-name="quotesinglbase" unicode="&#x201a;" horiz-adv-x="264" 
d="M167 185c25 -11 45 -42 30 -120c-15 -79 -59 -157 -132 -210c-31 4 -51 17 -62 37c78 74 82 135 -1 146c0 41 10 77 31 110c53 2 100 17 134 37z" />
    <glyph glyph-name="quotedblleft" unicode="&#x201c;" horiz-adv-x="505" 
d="M133 378c-25 11 -45 42 -30 120c15 79 59 157 132 210c31 -4 51 -17 62 -37c-73 -70 -81 -131 -4 -146c0 -41 -10 -77 -31 -110c-53 -2 -95 -17 -129 -37zM348 378c-36 16 -46 57 -25 139c18 73 61 147 113 184c31 -4 51 -17 62 -37c-76 -72 -69 -129 9 -139
c0 -41 -10 -77 -31 -110c-53 -2 -94 -17 -128 -37z" />
    <glyph glyph-name="quotedblright" unicode="&#x201d;" horiz-adv-x="505" 
d="M281 717c36 -16 46 -57 25 -139c-18 -73 -61 -147 -113 -184c-31 4 -51 17 -62 37c76 72 69 129 -9 139c0 41 10 77 31 110c53 2 94 17 128 37zM496 717c25 -11 45 -42 30 -120c-15 -79 -59 -157 -132 -210c-31 4 -51 17 -62 37c73 70 81 131 4 146c0 41 10 77 31 110
c53 2 95 17 129 37z" />
    <glyph glyph-name="quotedblbase" unicode="&#x201e;" horiz-adv-x="473" 
d="M161 185c36 -16 46 -57 25 -139c-18 -73 -61 -147 -113 -184c-31 4 -51 17 -62 37c76 72 69 129 -9 139c0 41 10 77 31 110c53 2 94 17 128 37zM376 185c25 -11 45 -42 30 -120c-15 -79 -59 -157 -132 -210c-31 4 -51 17 -62 37c73 70 81 131 4 146c0 41 10 77 31 110
c53 2 95 17 129 37z" />
    <glyph glyph-name="dagger" unicode="&#x2020;" horiz-adv-x="494" 
d="M345 458h140c-2 -41 -14 -82 -34 -114c-42 13 -79 20 -129 24c-48 -200 -90 -405 -125 -618c-31 2 -54 8 -72 29c36 191 66 388 90 587c-57 -6 -100 -13 -149 -23c0 46 8 83 24 115h136c6 62 12 125 18 187c49 1 80 10 116 29c30 -13 34 -30 23 -70
c-13 -48 -26 -97 -38 -146z" />
    <glyph glyph-name="daggerdbl" unicode="&#x2021;" horiz-adv-x="476" 
d="M316 369l-5 -21c-14 -65 -13 -98 -3 -124c-17 -17 -29 -46 -39 -109l-3 -23c60 6 104 13 155 23c0 -46 -8 -83 -24 -115h-141c-4 -50 -8 -112 -13 -188c-49 -1 -80 -10 -116 -29c-30 13 -35 30 -23 70c18 57 32 106 44 147h-146c2 41 14 82 34 114c44 -14 82 -21 135 -25
l6 27c13 60 12 92 2 117c18 18 30 49 40 118l2 15c-60 -6 -104 -13 -155 -23c0 46 8 83 24 115h141c4 50 8 112 13 187c49 1 80 10 116 29c30 -13 35 -30 23 -70c-18 -57 -32 -105 -44 -146h146c-2 -41 -14 -82 -34 -114c-44 14 -82 21 -135 25z" />
    <glyph glyph-name="bullet" unicode="&#x2022;" horiz-adv-x="371" 
d="M206 410c102 0 161 -74 141 -174c-16 -80 -79 -134 -159 -134c-110 0 -172 78 -151 186c16 77 82 122 169 122z" />
    <glyph glyph-name="ellipsis" unicode="&#x2026;" horiz-adv-x="949" 
d="M128 197c57 0 111 -43 96 -122c-10 -52 -44 -84 -108 -84c-74 0 -119 44 -103 123c10 53 48 83 115 83zM458 197c57 0 111 -43 96 -122c-10 -52 -44 -84 -108 -84c-74 0 -119 44 -103 123c10 53 48 83 115 83zM788 197c57 0 111 -43 96 -122c-10 -52 -44 -84 -108 -84
c-74 0 -119 44 -103 123c10 53 48 83 115 83z" />
    <glyph glyph-name="perthousand" unicode="&#x2030;" horiz-adv-x="1070" 
d="M107 59l510 626c30 -12 52 -38 58 -68c-205 -245 -307 -370 -509 -626c-28 9 -55 40 -59 68zM254 677c104 0 158 -72 135 -181c-19 -82 -87 -137 -167 -137c-109 0 -167 73 -143 183c18 81 89 135 175 135zM242 601c-28 0 -51 -23 -58 -58c-12 -65 6 -108 44 -108
c27 0 49 23 56 58c12 65 -4 108 -42 108zM554 309c104 0 158 -72 135 -181c-19 -82 -87 -137 -167 -137c-109 0 -167 73 -143 183c18 81 89 135 175 135zM901 309c104 0 158 -72 135 -181c-19 -82 -87 -137 -167 -137c-109 0 -167 73 -143 183c18 81 89 135 175 135z
M542 233c-28 0 -51 -23 -58 -58c-12 -65 6 -108 44 -108c27 0 49 23 56 58c12 65 -4 108 -42 108zM889 233c-28 0 -51 -23 -58 -58c-12 -65 6 -108 44 -108c27 0 49 23 56 58c12 65 -4 108 -42 108z" />
    <glyph glyph-name="minute" unicode="&#x2032;" horiz-adv-x="257" 
d="M286 655c-34 -74 -80 -148 -126 -244c-27 0 -50 5 -71 15c31 89 58 185 72 261c45 4 87 17 114 30c23 -6 24 -34 11 -62z" />
    <glyph glyph-name="second" unicode="&#x2033;" horiz-adv-x="467" 
d="M275 717c23 -6 24 -34 11 -62c-34 -74 -80 -148 -126 -244c-27 0 -50 5 -71 15c31 89 58 185 72 261c45 4 87 17 114 30zM485 717c23 -6 24 -34 11 -62c-34 -74 -80 -148 -126 -244c-27 0 -50 5 -71 15c31 89 58 185 72 261c45 4 87 17 114 30z" />
    <glyph glyph-name="guilsinglleft" unicode="&#x2039;" horiz-adv-x="272" 
d="M192 413c-46 -44 -88 -80 -140 -118c-16 -20 -28 -57 -31 -90c43 -44 90 -99 126 -146c28 13 45 28 65 53c-20 42 -42 98 -54 143c30 42 74 95 105 129c-15 17 -42 31 -71 29z" />
    <glyph glyph-name="guilsinglright" unicode="&#x203a;" horiz-adv-x="288" 
d="M142 412c26 -31 73 -78 116 -115c9 -28 8 -63 0 -91c-68 -51 -130 -102 -187 -153c-25 15 -41 33 -51 60c41 37 86 82 117 119c-18 51 -40 101 -69 156c27 18 49 24 74 24z" />
    <glyph glyph-name="uni203D" unicode="&#x203d;" horiz-adv-x="656" 
d="M442 717c176 0 259 -85 237 -187c-30 -138 -217 -149 -265 -285c-36 -3 -74 0 -101 13c13 121 -1 217 -1 305c41 5 97 22 126 39c27 -8 36 -31 28 -70c-16 -74 -76 -111 -98 -233c34 125 112 135 133 235c18 84 -31 106 -88 106c-63 0 -117 -27 -150 -134
c-44 0 -71 7 -97 23c17 55 25 95 28 143c58 30 175 45 248 45zM345 196c57 0 111 -43 96 -122c-10 -52 -44 -84 -108 -84c-74 0 -119 44 -103 123c10 53 48 83 115 83z" />
    <glyph glyph-name="fraction" unicode="&#x2044;" horiz-adv-x="479" 
d="M-33 59l536 658c30 -12 52 -38 58 -68c-205 -245 -333 -402 -535 -658c-28 9 -55 40 -59 68z" />
    <glyph glyph-name="Euro" unicode="&#x20ac;" horiz-adv-x="673" 
d="M687 477c-26 -10 -62 -13 -95 -7c13 111 -26 138 -88 138c-81 0 -139 -79 -171 -178h204c1 -32 -7 -63 -23 -87h-202c-4 -24 -6 -47 -7 -69h214c2 -30 -5 -63 -21 -87h-183c19 -63 65 -102 145 -102c42 0 91 10 148 38c16 -17 23 -41 25 -69c-64 -41 -137 -63 -230 -63
c-153 0 -253 74 -287 193l-75 -1c-6 32 -1 65 14 91h49c-1 21 1 43 4 66l-55 -1c-3 32 5 66 24 91h52c59 170 220 255 373 255c81 0 154 -13 218 -53c-16 -47 -27 -98 -33 -155z" />
    <glyph glyph-name="uni2113" unicode="&#x2113;" horiz-adv-x="407" 
d="M406 566c-21 -99 -87 -187 -167 -253c-27 -184 -11 -209 31 -209c17 0 29 4 45 14c13 -13 29 -43 32 -66c-44 -43 -103 -61 -159 -61c-131 0 -187 100 -136 373c50 267 137 346 250 346c70 0 128 -30 104 -144zM326 634c-12 0 -34 -19 -68 -206c44 41 60 76 72 126
c16 66 7 80 -4 80z" />
    <glyph glyph-name="trademark" unicode="&#x2122;" horiz-adv-x="1051" 
d="M1002 595l-10 -111c-4 -39 -1 -49 28 -53c4 -22 5 -48 5 -73c-11 1 -97 2 -127 2s-81 -2 -91 -3c1 26 4 52 10 74c25 3 32 12 35 48l10 115l-136 -234c-11 -4 -36 -5 -51 -5l-56 242l-26 -85c-19 -65 -16 -79 11 -81c4 -24 5 -48 5 -73c-6 1 -31 2 -58 2
c-26 0 -66 -1 -74 -2c0 25 2 50 9 73c26 1 41 14 58 74l25 89c9 28 9 44 -21 45c-5 24 -5 44 -5 75c39 -1 75 -2 94 -2s77 0 107 1l33 -170l97 170c22 -1 54 -1 83 -1c28 0 73 0 95 1c1 -24 -1 -49 -7 -74c-31 -2 -41 -15 -43 -44zM517 713c-5 -32 -7 -79 -3 -112
c-20 -9 -45 -13 -75 -11c-5 50 -12 68 -39 70l-29 -153c-12 -57 -6 -75 42 -77c4 -22 5 -47 5 -72c-17 1 -64 2 -123 2s-129 -1 -154 -2c0 25 2 50 10 72c53 2 67 18 79 77l29 152c-24 -4 -47 -24 -64 -69c-25 -3 -53 -1 -72 9c14 35 26 74 35 114c52 -2 77 -1 182 -1
c88 0 124 0 177 1z" />
    <glyph glyph-name="Ohm" unicode="&#x2126;" horiz-adv-x="804" 
d="M779 390c-24 -126 -124 -191 -212 -230h69c31 0 46 17 63 57c27 -9 65 -21 80 -38c-16 -55 -28 -110 -32 -155c-11 -19 -26 -26 -53 -26c-43 1 -115 2 -267 2c-14 24 -19 62 -12 97c93 85 135 169 156 279c36 185 -37 234 -96 234c-65 0 -167 -63 -205 -262
c-19 -96 -9 -152 47 -251c-4 -33 -18 -73 -35 -97c-155 0 -207 -1 -244 -2c-33 0 -47 21 -48 54c8 31 18 86 21 150c19 3 57 6 83 1c8 -40 15 -43 46 -43h74c-77 38 -165 111 -138 248c32 161 195 277 401 277c212 0 334 -130 302 -295z" />
    <glyph glyph-name="estimated" unicode="&#x212e;" horiz-adv-x="601" 
d="M161 296h433c-4 97 -32 171 -85 221c-53 49 -117 74 -192 74c-82 0 -148 -28 -199 -83c-52 -56 -77 -126 -77 -212s25 -156 76 -212s118 -84 200 -84c43 0 84 9 123 27s80 57 121 117l-37 23c-49 -86 -118 -129 -207 -129c-62 0 -114 21 -156 64v194zM161 334v155
c43 42 94 64 155 64c60 0 113 -21 157 -64v-155h-312z" />
    <glyph glyph-name="arrowleft" unicode="&#x2190;" horiz-adv-x="582" 
d="M573 327c-5 -47 -12 -75 -25 -100h-318c7 -30 16 -60 25 -81c21 -52 -2 -71 -47 -81c-45 63 -103 124 -165 168c-10 22 -8 60 -1 82c71 37 151 93 212 145c18 16 60 16 79 -3c-31 -39 -66 -94 -93 -138c84 1 235 5 333 8z" />
    <glyph glyph-name="arrowright" unicode="&#x2192;" horiz-adv-x="582" 
d="M557 320c10 -22 8 -60 1 -82c-71 -37 -151 -93 -212 -145c-18 -16 -60 -16 -79 3c31 39 66 94 93 138c-84 -1 -235 -5 -333 -8c5 47 12 75 25 100h318c-7 30 -16 60 -25 81c-21 52 2 71 47 81c45 -63 103 -124 165 -168z" />
    <glyph glyph-name="partialdiff" unicode="&#x2202;" horiz-adv-x="569" 
d="M216 717c249 -80 384 -199 336 -444c-36 -184 -195 -282 -327 -282c-189 0 -215 137 -194 241c23 123 110 235 303 235c17 0 33 -1 48 -3c-15 94 -80 137 -211 193c8 28 21 47 45 60zM271 84c33 0 73 58 99 194c7 40 12 75 15 106c-17 5 -43 9 -58 9
c-50 0 -76 -56 -91 -129c-18 -93 -9 -180 35 -180z" />
    <glyph glyph-name="increment" unicode="&#x2206;" horiz-adv-x="667" 
d="M455 685l176 -613c-7 -26 -18 -50 -36 -72h-607c-9 21 -17 45 -14 72l406 605c25 6 50 8 75 8zM313 448c-26 -46 -56 -91 -87 -137l-160 -236h345l-68 249c-11 41 -22 82 -30 124z" />
    <glyph glyph-name="product" unicode="&#x220f;" horiz-adv-x="935" 
d="M776 491v-404c0 -92 12 -108 66 -112c5 -18 8 -52 8 -78c-30 2 -90 3 -159 3s-142 -1 -189 -3c0 24 5 59 10 78c54 4 64 20 64 112v404c0 63 -5 89 -27 101c-9 5 -22 9 -70 9s-61 -4 -70 -9c-22 -12 -27 -38 -27 -101v-404c0 -92 12 -108 66 -112c5 -18 8 -52 8 -78
c-30 2 -90 3 -159 3s-142 -1 -189 -3c0 24 5 59 10 78c54 4 64 20 64 112v404c0 90 -9 102 -65 110c-5 20 -9 52 -9 78c33 -2 131 -3 279 -3h194c148 0 229 1 269 3c0 -27 0 -52 -9 -78c-55 -6 -65 -20 -65 -110z" />
    <glyph glyph-name="summation" unicode="&#x2211;" horiz-adv-x="757" 
d="M608 179c37 -3 78 -17 102 -34c-14 -58 -25 -150 -28 -247c-113 2 -197 2 -292 2s-195 0 -280 -2c-14 23 -20 48 -20 73c66 86 134 170 206 256c-73 124 -141 252 -205 381c1 27 8 52 21 70c61 -2 116 -2 282 -2c150 0 220 1 277 3c1 -51 8 -131 26 -188
c-29 -12 -63 -17 -101 -18c-18 82 -44 128 -143 128h-132c43 -85 88 -166 136 -244c4 -20 2 -45 -4 -65c-67 -76 -131 -153 -193 -232h221c68 0 106 36 127 119z" />
    <glyph glyph-name="minus" unicode="&#x2212;" horiz-adv-x="526" 
d="M56 320h460c-1 -31 -10 -64 -27 -87c-150 0 -278 0 -461 -4c1 32 11 66 28 91z" />
    <glyph glyph-name="divisionslash" unicode="&#x2215;" horiz-adv-x="302" 
d="M-28 31l329 686c34 -1 58 -10 80 -30c-144 -286 -196 -399 -330 -696c-33 4 -61 17 -79 40z" />
    <glyph glyph-name="bulletoperator" unicode="&#x2219;" horiz-adv-x="366" 
d="M173 403c68 0 133 -51 115 -146c-12 -62 -53 -101 -130 -101c-88 0 -142 53 -123 148c12 63 57 99 138 99z" />
    <glyph glyph-name="radical" unicode="&#x221a;" horiz-adv-x="592" 
d="M509 746h220c0 -24 -5 -55 -14 -75h-142l-203 -671c-24 -5 -51 -6 -76 -6l-165 320h-82c0 22 4 56 11 75h237l65 -146z" />
    <glyph glyph-name="infinity" unicode="&#x221e;" horiz-adv-x="887" 
d="M672 481c104 0 190 -76 190 -218c0 -135 -79 -212 -211 -212c-102 0 -166 46 -222 112c-75 -84 -139 -112 -201 -112c-104 0 -190 77 -190 216c0 119 64 214 203 214c110 0 173 -60 226 -128c79 97 139 128 205 128zM677 157c54 0 94 35 94 118c0 77 -34 130 -99 130
c-42 0 -87 -21 -158 -114c66 -88 102 -134 163 -134zM228 127c39 0 88 18 154 97c-61 85 -98 151 -164 151c-50 0 -89 -38 -89 -120c0 -77 35 -128 99 -128z" />
    <glyph glyph-name="integral" unicode="&#x222b;" horiz-adv-x="601" 
d="M476 814c54 0 104 -8 125 -18c-13 -40 -26 -120 -26 -159c-17 -8 -69 -13 -101 -13c-1 55 5 115 -31 115c-39 0 -40 -72 -43 -440c-3 -417 -55 -547 -275 -547c-54 0 -104 8 -125 18c13 40 26 120 26 159c17 8 69 13 101 13c1 -55 -5 -115 31 -115c39 0 41 72 43 440
c3 417 55 547 275 547z" />
    <glyph glyph-name="approxequal" unicode="&#x2248;" horiz-adv-x="593" 
d="M234 474c89 0 133 -83 202 -83c37 0 69 17 110 68c26 -12 47 -39 51 -67c-60 -82 -114 -120 -169 -120c-94 0 -129 87 -207 87c-42 0 -85 -26 -124 -76c-26 9 -46 30 -50 61c80 105 144 130 187 130zM196 274c89 0 133 -83 202 -83c37 0 69 17 110 68
c26 -12 47 -39 51 -67c-60 -82 -114 -120 -169 -120c-94 0 -129 87 -207 87c-42 0 -85 -26 -124 -76c-26 9 -46 30 -50 61c80 105 144 130 187 130z" />
    <glyph glyph-name="notequal" unicode="&#x2260;" horiz-adv-x="530" 
d="M502 303h-199c-15 -33 -30 -64 -45 -96h240c-1 -31 -10 -64 -27 -87c-87 0 -166 0 -254 -1l-70 -155c-27 3 -49 13 -63 32l59 122l-133 -2c1 32 11 66 28 91h147l46 95c-58 -1 -120 -1 -190 -3c1 32 11 66 28 91h204l74 155c27 -1 46 -8 64 -24l-65 -131h183
c-1 -31 -10 -64 -27 -87z" />
    <glyph glyph-name="lessequal" unicode="&#x2264;" horiz-adv-x="477" 
d="M147 322l291 -131c8 -27 4 -61 -12 -90c-133 75 -269 133 -405 190c-2 25 5 54 24 80l401 162c35 -7 59 -33 67 -63zM-30 -2c0 30 3 64 14 89h440c0 -31 -4 -61 -14 -88c-80 1 -120 1 -207 1c-88 0 -142 -1 -233 -2z" />
    <glyph glyph-name="greaterequal" unicode="&#x2265;" horiz-adv-x="482" 
d="M146 535l339 -176c9 -26 6 -57 0 -87c-156 -43 -315 -102 -472 -163c-10 35 -4 69 14 96l341 119l-308 160c20 30 48 44 86 51zM-12 -2c0 30 3 64 14 89h440c0 -31 -4 -61 -14 -88c-80 1 -120 1 -207 1c-88 0 -142 -1 -233 -2z" />
    <glyph glyph-name="lozenge" unicode="&#x25ca;" horiz-adv-x="539" 
d="M32 259l244 322l243 -322l-243 -322zM424 259l-148 196l-149 -196l149 -196z" />
    <glyph glyph-name="uni2799" unicode="&#x2799;" horiz-adv-x="582" 
d="M557 320c10 -22 8 -60 1 -82c-71 -37 -151 -93 -212 -145c-18 -16 -60 -16 -79 3c31 39 66 94 93 138c-84 -1 -235 -5 -333 -8c5 47 12 75 25 100h318c-7 30 -16 60 -25 81c-21 52 2 71 47 81c45 -63 103 -124 165 -168z" />
    <glyph glyph-name="uni2E18" unicode="&#x2e18;" horiz-adv-x="655" 
d="M310 261c-57 0 -111 43 -96 122c10 52 44 84 108 84c74 0 119 -44 103 -123c-10 -53 -48 -83 -115 -83zM213 -260c-176 0 -259 85 -237 187c30 138 217 149 265 285c36 3 74 0 101 -13c-13 -121 1 -217 1 -305c-41 -5 -97 -22 -126 -39c-27 8 -36 31 -28 70
c16 74 76 111 98 233c-34 -125 -112 -135 -133 -235c-18 -84 31 -106 88 -106c63 0 117 27 150 134c44 0 71 -7 97 -23c-17 -55 -25 -95 -28 -143c-58 -30 -175 -45 -248 -45z" />
    <glyph glyph-name="J.ss01" horiz-adv-x="544" 
d="M606 679c-1 -29 -5 -55 -12 -78c-53 -5 -63 -13 -82 -123l-49 -279c-24 -129 -117 -208 -289 -208c-85 0 -134 19 -184 58c17 46 29 105 34 158c38 7 78 9 117 1c-8 -83 7 -135 52 -135c29 0 52 22 64 90l58 335c14 80 4 97 -61 103c-6 25 -5 52 -2 78
c57 -3 120 -3 179 -3c66 0 131 1 175 3z" />
    <glyph glyph-name="Jcircumflex.ss01" horiz-adv-x="544" 
d="M436 937c26 4 59 2 85 -7c35 -49 76 -98 134 -160c-19 -18 -51 -29 -88 -31c-37 30 -81 59 -120 77c-45 -22 -112 -63 -145 -87c-33 13 -53 47 -57 70c64 36 143 93 191 138zM606 679c-1 -29 -5 -55 -12 -78c-53 -5 -63 -13 -82 -123l-49 -279
c-24 -129 -117 -208 -289 -208c-85 0 -134 19 -184 58c17 46 29 105 34 158c38 7 78 9 117 1c-8 -83 7 -135 52 -135c29 0 52 22 64 90l58 335c14 80 4 97 -61 103c-6 25 -5 52 -2 78c57 -3 120 -3 179 -3c66 0 131 1 175 3z" />
    <glyph glyph-name="Q.ss01" horiz-adv-x="742" 
d="M1126 -93c15 -15 30 -43 33 -66c-48 -50 -135 -83 -248 -83c-289 0 -304 215 -575 233c-218 1 -327 152 -287 360c41 213 197 334 395 334c213 0 333 -140 293 -351c-29 -152 -120 -267 -249 -316c192 -22 299 -139 516 -139c59 0 91 8 122 28zM254 355
c-31 -160 -8 -286 94 -286c87 0 156 113 187 284c26 143 -9 257 -101 257c-85 0 -150 -98 -180 -255z" />
    <glyph glyph-name="uni1E9E.ss01" horiz-adv-x="740" 
d="M719 679c12 -17 21 -55 19 -84c-41 -63 -96 -135 -152 -197c99 -27 146 -95 125 -213c-22 -126 -108 -194 -268 -194c-72 0 -117 20 -154 53c13 42 24 100 27 139c29 10 66 12 103 3c-9 -90 4 -111 28 -111c25 0 49 27 59 83c20 116 -37 166 -124 179
c-14 22 -20 54 -18 84c49 47 104 113 153 182c-24 1 -46 1 -67 1c-66 0 -104 -45 -130 -193l-50 -286c-32 -185 -88 -295 -324 -371c-25 21 -31 52 -31 87c79 39 122 91 146 231l61 350c38 216 170 257 330 257c55 0 115 -3 161 -3c36 0 67 0 106 3z" />
    <glyph glyph-name="i.loclTRK" horiz-adv-x="346" 
d="M230 690c57 0 96 -39 86 -98c-9 -54 -50 -82 -125 -82c-60 0 -94 38 -86 96c8 54 53 84 125 84zM261 467c29 -16 45 -40 35 -96l-36 -187c-13 -68 -12 -80 3 -80c8 0 18 3 32 14c13 -13 29 -43 32 -66c-44 -43 -104 -61 -163 -61c-114 0 -124 73 -101 181l19 90
c15 72 12 89 -52 89c0 24 4 53 13 75c82 2 152 15 218 41z" />
    <glyph glyph-name="f.calt" horiz-adv-x="413" 
d="M479 535c-21 -10 -64 -15 -101 -11c1 89 -4 114 -28 114c-25 0 -34 -27 -41 -140l-4 -50h104c1 -29 -3 -62 -10 -83c-37 0 -66 -3 -104 -14c-6 -48 -14 -104 -24 -174c-35 -226 -151 -425 -318 -425c-42 0 -80 14 -110 49c0 31 9 76 23 104c32 -16 69 -22 107 -22
c64 0 84 21 96 152c6 72 19 188 39 320c-33 11 -61 14 -81 14c-1 27 3 58 14 79h81l1 6c34 181 106 260 241 260c62 0 105 -6 137 -18c-13 -40 -22 -122 -22 -161z" />
    <glyph glyph-name="longs.calt" horiz-adv-x="354" 
d="M364 714c62 0 105 -6 137 -18c-13 -40 -22 -122 -22 -161c-21 -10 -64 -15 -101 -11c1 89 -4 114 -28 114c-25 0 -34 -27 -41 -140c-4 -74 -15 -164 -38 -321c-35 -226 -151 -425 -318 -425c-42 0 -80 14 -110 49c0 31 9 76 23 104c32 -16 69 -22 107 -22
c64 0 84 21 96 152c6 72 19 188 39 320c-33 11 -61 14 -81 14c-1 27 3 58 14 79h81l1 6c34 181 106 260 241 260z" />
    <glyph glyph-name="g.ss01" horiz-adv-x="593" 
d="M548 467c28 -22 34 -45 27 -86l-65 -370c-32 -179 -149 -261 -325 -261c-75 0 -140 10 -181 28c13 40 25 112 25 151c17 8 69 13 101 13c2 -79 24 -116 70 -116c58 0 89 40 105 123l6 32c10 54 22 107 52 186l8 20h-4c-48 -138 -112 -196 -203 -196
c-142 0 -152 144 -133 241c25 127 112 235 303 235c48 0 85 -7 116 -17c45 4 75 9 98 17zM259 124c34 0 86 47 118 212l11 46c-16 7 -45 11 -60 11c-52 0 -76 -55 -92 -129c-20 -94 -10 -140 23 -140z" />
    <glyph glyph-name="gbreve.ss01" horiz-adv-x="593" 
d="M351 517c-135 0 -192 63 -169 184c32 12 73 17 109 12c-2 -48 34 -75 98 -75c63 0 106 27 119 75c34 6 66 2 89 -7c-24 -124 -109 -189 -246 -189zM548 467c28 -22 34 -45 27 -86l-65 -370c-32 -179 -149 -261 -325 -261c-75 0 -140 10 -181 28c13 40 25 112 25 151
c17 8 69 13 101 13c2 -79 24 -116 70 -116c58 0 89 40 105 123l6 32c10 54 22 107 52 186l8 20h-4c-48 -138 -112 -196 -203 -196c-142 0 -152 144 -133 241c25 127 112 235 303 235c48 0 85 -7 116 -17c45 4 75 9 98 17zM259 124c34 0 86 47 118 212l11 46
c-16 7 -45 11 -60 11c-52 0 -76 -55 -92 -129c-20 -94 -10 -140 23 -140z" />
    <glyph glyph-name="gcircumflex.ss01" horiz-adv-x="593" 
d="M213 511c-33 13 -53 47 -57 70c64 36 143 93 191 138c26 4 59 2 85 -7c35 -49 76 -98 134 -160c-19 -18 -51 -29 -88 -31c-37 30 -81 59 -120 77c-45 -22 -112 -63 -145 -87zM548 467c28 -22 34 -45 27 -86l-65 -370c-32 -179 -149 -261 -325 -261c-75 0 -140 10 -181 28
c13 40 25 112 25 151c17 8 69 13 101 13c2 -79 24 -116 70 -116c58 0 89 40 105 123l6 32c10 54 22 107 52 186l8 20h-4c-48 -138 -112 -196 -203 -196c-142 0 -152 144 -133 241c25 127 112 235 303 235c48 0 85 -7 116 -17c45 4 75 9 98 17zM259 124c34 0 86 47 118 212
l11 46c-16 7 -45 11 -60 11c-52 0 -76 -55 -92 -129c-20 -94 -10 -140 23 -140z" />
    <glyph glyph-name="gcommaaccent.ss01" horiz-adv-x="593" 
d="M305 502c-39 11 -47 40 -39 79c14 65 67 115 145 155c26 -3 46 -16 57 -36c-33 -18 -55 -35 -58 -50c-3 -16 13 -23 57 -27c-2 -32 -12 -63 -31 -90c-53 -1 -98 -11 -131 -31zM548 467c28 -22 34 -45 27 -86l-65 -370c-32 -179 -149 -261 -325 -261
c-75 0 -140 10 -181 28c13 40 25 112 25 151c17 8 69 13 101 13c2 -79 24 -116 70 -116c58 0 89 40 105 123l6 32c10 54 22 107 52 186l8 20h-4c-48 -138 -112 -196 -203 -196c-142 0 -152 144 -133 241c25 127 112 235 303 235c48 0 85 -7 116 -17c45 4 75 9 98 17z
M259 124c34 0 86 47 118 212l11 46c-16 7 -45 11 -60 11c-52 0 -76 -55 -92 -129c-20 -94 -10 -140 23 -140z" />
    <glyph glyph-name="gdotaccent.ss01" horiz-adv-x="593" 
d="M342 510c-60 0 -94 38 -86 96c8 54 53 84 125 84c57 0 96 -39 86 -98c-9 -54 -50 -82 -125 -82zM548 467c28 -22 34 -45 27 -86l-65 -370c-32 -179 -149 -261 -325 -261c-75 0 -140 10 -181 28c13 40 25 112 25 151c17 8 69 13 101 13c2 -79 24 -116 70 -116
c58 0 89 40 105 123l6 32c10 54 22 107 52 186l8 20h-4c-48 -138 -112 -196 -203 -196c-142 0 -152 144 -133 241c25 127 112 235 303 235c48 0 85 -7 116 -17c45 4 75 9 98 17zM259 124c34 0 86 47 118 212l11 46c-16 7 -45 11 -60 11c-52 0 -76 -55 -92 -129
c-20 -94 -10 -140 23 -140z" />
    <glyph glyph-name="x.ss01" horiz-adv-x="554" 
d="M563 386c-12 -64 -71 -130 -185 -192c9 -20 18 -37 25 -50c15 -26 25 -34 50 -34c15 0 25 3 31 7c18 -18 27 -40 30 -65c-30 -33 -82 -61 -156 -61c-52 0 -79 14 -103 44c-20 24 -42 64 -62 105c-41 -28 -58 -56 -62 -83c-5 -37 19 -57 53 -60c7 -27 6 -54 3 -77
c-53 -3 -144 -23 -195 -41c-29 14 -36 41 -30 81c13 86 73 168 202 241c-17 40 -32 75 -38 91c-21 51 -26 59 -86 58c-2 28 3 54 11 76c53 3 144 23 185 41c34 -8 40 -22 55 -63c15 -39 37 -96 60 -148c29 16 44 32 48 49c5 24 -15 42 -52 45c-2 28 3 54 11 76
c43 3 124 23 175 41c25 -9 37 -44 30 -81z" />
    <glyph glyph-name="z.ss01" horiz-adv-x="460" 
d="M399 -18c34 -12 63 -38 78 -64c-35 -26 -74 -80 -97 -122c-11 -8 -26 -11 -43 -11c-145 0 -194 209 -308 209c-8 0 -17 -1 -27 -3c-15 22 -22 56 -17 82c122 83 214 158 285 231c-19 7 -34 9 -50 9c-38 0 -57 -10 -84 -72c-37 0 -83 10 -106 29c32 62 52 120 61 188
c35 5 100 9 188 9c76 0 119 -3 162 -9c14 -20 22 -47 22 -72c-79 -97 -173 -185 -312 -290c78 9 135 -129 210 -129c14 0 25 5 38 15z" />
    <glyph glyph-name="zacute.ss01" horiz-adv-x="460" 
d="M466 702c-65 -63 -121 -128 -156 -181c-33 3 -67 15 -94 33c34 56 70 128 82 165c66 9 134 2 168 -17zM399 -18c34 -12 63 -38 78 -64c-35 -26 -74 -80 -97 -122c-11 -8 -26 -11 -43 -11c-145 0 -194 209 -308 209c-8 0 -17 -1 -27 -3c-15 22 -22 56 -17 82
c122 83 214 158 285 231c-19 7 -34 9 -50 9c-38 0 -57 -10 -84 -72c-37 0 -83 10 -106 29c32 62 52 120 61 188c35 5 100 9 188 9c76 0 119 -3 162 -9c14 -20 22 -47 22 -72c-79 -97 -173 -185 -312 -290c78 9 135 -129 210 -129c14 0 25 5 38 15z" />
    <glyph glyph-name="zcaron.ss01" horiz-adv-x="460" 
d="M339 527c-25 -12 -58 -15 -91 -11c-39 53 -85 105 -128 150c15 33 41 53 82 57c33 -29 76 -58 120 -79c46 18 104 51 143 79c26 -8 44 -33 52 -57c-62 -42 -130 -94 -178 -139zM399 -18c34 -12 63 -38 78 -64c-35 -26 -74 -80 -97 -122c-11 -8 -26 -11 -43 -11
c-145 0 -194 209 -308 209c-8 0 -17 -1 -27 -3c-15 22 -22 56 -17 82c122 83 214 158 285 231c-19 7 -34 9 -50 9c-38 0 -57 -10 -84 -72c-37 0 -83 10 -106 29c32 62 52 120 61 188c35 5 100 9 188 9c76 0 119 -3 162 -9c14 -20 22 -47 22 -72c-79 -97 -173 -185 -312 -290
c78 9 135 -129 210 -129c14 0 25 5 38 15z" />
    <glyph glyph-name="zdotaccent.ss01" horiz-adv-x="460" 
d="M286 510c-60 0 -94 38 -86 96c8 54 53 84 125 84c57 0 96 -39 86 -98c-9 -54 -50 -82 -125 -82zM399 -18c34 -12 63 -38 78 -64c-35 -26 -74 -80 -97 -122c-11 -8 -26 -11 -43 -11c-145 0 -194 209 -308 209c-8 0 -17 -1 -27 -3c-15 22 -22 56 -17 82
c122 83 214 158 285 231c-19 7 -34 9 -50 9c-38 0 -57 -10 -84 -72c-37 0 -83 10 -106 29c32 62 52 120 61 188c35 5 100 9 188 9c76 0 119 -3 162 -9c14 -20 22 -47 22 -72c-79 -97 -173 -185 -312 -290c78 9 135 -129 210 -129c14 0 25 5 38 15z" />
    <glyph glyph-name="f_b" horiz-adv-x="987" 
d="M822 467c142 0 152 -144 133 -241c-25 -125 -109 -231 -292 -235h-6h-5c-18 0 -35 1 -50 3c-95 9 -165 39 -212 86c18 28 33 62 46 137l51 289c15 82 12 133 -50 133c-61 0 -93 -41 -120 -191h92c0 -32 -2 -66 -10 -83c-36 0 -64 -3 -100 -13c-11 -63 -20 -120 -30 -185
c-33 -216 -149 -415 -316 -415c-42 0 -80 14 -110 49c0 31 9 76 23 104c32 -16 69 -22 107 -22c64 0 84 21 96 152c6 72 19 188 39 320c-33 11 -61 14 -81 14c0 28 3 60 14 79h81c36 170 134 266 339 266c62 0 105 -7 148 -27c24 4 45 11 66 23c26 -24 35 -37 26 -88
l-22 -121c-11 -61 -26 -111 -47 -159h17c44 87 100 125 173 125zM750 194c20 94 10 140 -23 140c-34 0 -86 -47 -118 -212l-11 -46c16 -7 45 -11 60 -11c52 0 76 55 92 129z" />
    <glyph glyph-name="f_h" horiz-adv-x="1033" 
d="M982 118c13 -13 29 -43 32 -66c-44 -43 -104 -61 -162 -61c-118 0 -128 76 -104 181l15 65c10 42 9 83 -21 83c-43 0 -107 -83 -142 -269l-9 -51h-193l89 506c14 82 12 133 -50 133c-61 0 -93 -41 -120 -191h92c0 -32 -2 -66 -10 -83c-36 0 -64 -3 -100 -13
c-11 -63 -20 -120 -30 -185c-33 -216 -149 -415 -316 -415c-42 0 -80 14 -110 49c0 31 9 76 23 104c32 -16 69 -22 107 -22c64 0 84 21 96 152c6 72 19 188 39 320c-33 11 -61 14 -81 14c0 28 3 60 14 79h81c36 170 134 266 339 266c62 0 105 -7 148 -27c24 4 45 11 66 23
c26 -24 35 -37 26 -88c-40 -216 -55 -287 -78 -357v-1l23 47c44 90 127 156 220 156c87 0 132 -61 100 -200l-19 -83c-17 -72 -12 -80 2 -80c8 0 16 3 33 14z" />
    <glyph glyph-name="f_j" horiz-adv-x="680" 
d="M663 371l-44 -246c-41 -227 -125 -308 -317 -371c-21 18 -31 43 -31 79c69 35 122 97 143 219l36 211c13 76 7 102 -62 102c-39 0 -51 -2 -89 -13c-11 -63 -20 -120 -30 -185c-33 -216 -149 -415 -316 -415c-42 0 -80 14 -110 49c0 31 9 76 23 104c32 -16 69 -22 107 -22
c64 0 84 21 96 152c6 72 19 188 39 320c-33 11 -61 14 -81 14c0 28 3 60 14 79h81c36 170 134 266 339 266c87 0 161 -10 206 -28c-16 -49 -26 -109 -26 -149c-29 -14 -99 -18 -131 -13c-1 67 -26 115 -73 115c-61 0 -93 -41 -120 -191h70c160 0 201 4 239 19
c34 -19 46 -45 37 -96z" />
    <glyph glyph-name="f_k" horiz-adv-x="968" 
d="M961 354c-11 -70 -65 -108 -161 -143c16 -19 25 -34 39 -61c13 -26 21 -40 40 -40c8 0 16 3 23 8c15 -14 31 -43 32 -66c-44 -43 -94 -61 -150 -61c-72 0 -101 30 -122 84c-15 39 -24 60 -39 85l-2 -11l-30 -149h-193l89 506c14 82 12 133 -50 133
c-61 0 -93 -41 -120 -191h92c0 -32 -2 -66 -10 -83c-36 0 -64 -3 -100 -13c-11 -63 -20 -120 -30 -185c-33 -216 -149 -415 -316 -415c-42 0 -80 14 -110 49c0 31 9 76 23 104c32 -16 69 -22 107 -22c64 0 84 21 96 152c6 72 19 188 39 320c-33 11 -61 14 -81 14
c0 28 3 60 14 79h81c36 170 134 266 339 266c62 0 105 -7 148 -27c24 4 45 11 66 23c24 -22 35 -30 26 -88c-6 -39 -44 -251 -77 -336h1c41 101 130 181 232 181c72 0 115 -40 104 -113zM751 347c-43 0 -86 -61 -112 -134c92 21 136 51 142 93c4 26 -9 41 -30 41z" />
    <glyph glyph-name="longs_t" horiz-adv-x="751" 
d="M447 680c66 0 111 -9 155 -27c24 4 45 11 66 23c25 -19 31 -33 28 -70c-2 -22 -9 -67 -26 -158h90c0 -32 -2 -66 -10 -83c-36 0 -65 -3 -101 -13l-25 -109c-27 -116 -13 -137 17 -137c14 0 32 7 46 21c13 -19 24 -49 26 -74c-31 -36 -108 -62 -166 -62
c-126 0 -155 99 -121 240l31 128c-17 6 -30 7 -49 8c-2 26 3 62 14 81h54c12 49 16 71 16 93c0 35 -17 64 -67 64c-54 0 -83 -25 -108 -157c-20 -105 -33 -184 -48 -281c-33 -216 -149 -415 -316 -415c-42 0 -80 14 -110 49c0 31 9 76 23 104c32 -16 69 -22 107 -22
c64 0 84 21 96 152c6 72 19 188 39 320c-33 11 -61 14 -81 14c0 28 3 60 14 79h81c36 171 141 232 325 232z" />
    <glyph glyph-name="longs_b" horiz-adv-x="987" 
d="M822 467c142 0 152 -144 133 -241c-25 -125 -109 -231 -292 -235h-6h-5c-18 0 -35 1 -50 3c-95 9 -165 39 -212 86c18 28 33 62 46 137l51 289c15 82 12 133 -50 133c-61 0 -93 -41 -120 -191c-15 -85 -34 -191 -48 -281c-33 -216 -149 -415 -316 -415
c-42 0 -80 14 -110 49c0 31 9 76 23 104c32 -16 69 -22 107 -22c64 0 84 21 96 152c6 72 19 188 39 320c-33 11 -61 14 -81 14c0 28 3 60 14 79h81c36 170 134 266 339 266c62 0 105 -7 148 -27c24 4 45 11 66 23c26 -24 35 -37 26 -88l-22 -121c-11 -61 -26 -111 -47 -159
h17c44 87 100 125 173 125zM750 194c20 94 10 140 -23 140c-34 0 -86 -47 -118 -212l-11 -46c16 -7 45 -11 60 -11c52 0 76 55 92 129z" />
    <glyph glyph-name="longs_h" horiz-adv-x="1033" 
d="M982 118c13 -13 29 -43 32 -66c-44 -43 -104 -61 -162 -61c-118 0 -128 76 -104 181l15 65c10 42 9 83 -21 83c-43 0 -107 -83 -142 -269l-9 -51h-193l89 506c14 82 12 133 -50 133c-61 0 -93 -41 -120 -191c-15 -85 -34 -191 -48 -281c-33 -216 -149 -415 -316 -415
c-42 0 -80 14 -110 49c0 31 9 76 23 104c32 -16 69 -22 107 -22c64 0 84 21 96 152c6 72 19 188 39 320c-33 11 -61 14 -81 14c0 28 3 60 14 79h81c36 170 134 266 339 266c62 0 105 -7 148 -27c24 4 45 11 66 23c26 -24 35 -37 26 -88c-40 -216 -55 -287 -78 -357v-1l23 47
c44 90 127 156 220 156c87 0 132 -61 100 -200l-19 -83c-17 -72 -12 -80 2 -80c8 0 16 3 33 14z" />
    <glyph glyph-name="longs_i" horiz-adv-x="723" 
d="M461 714c87 0 161 -10 206 -28c-16 -49 -26 -109 -26 -149c-29 -14 -99 -18 -131 -13c-1 67 -26 115 -73 115c-61 0 -93 -41 -120 -191c-15 -85 -34 -191 -48 -281c-33 -216 -149 -415 -316 -415c-42 0 -80 14 -110 49c0 31 9 76 23 104c32 -16 69 -22 107 -22
c64 0 84 21 96 152c6 72 19 188 39 320c-33 11 -61 14 -81 14c0 28 3 60 14 79h81c36 170 134 266 339 266zM638 467c29 -16 45 -40 35 -96l-36 -187c-13 -68 -12 -80 3 -80c8 0 18 3 32 14c13 -13 29 -43 32 -66c-44 -43 -104 -61 -163 -61c-114 0 -124 73 -101 181l19 90
c15 72 12 89 -52 89c0 24 4 53 13 75c82 2 152 15 218 41z" />
    </font>
</defs>
</svg>
