<?xml version="1.0" standalone="no"?>
<!DOCTYPE svg PUBLIC "-//W3C//DTD SVG 1.1//EN" "http://www.w3.org/Graphics/SVG/1.1/DTD/svg11.dtd" >
<svg version="1.1" xmlns="http://www.w3.org/2000/svg">
<metadata>
Created by FontForge 20120731 at Tue Aug 26 08:46:22 2014

Digitized data copyright (c) 2012-2014, The Mozilla Foundation and Telefonica S.A.
</metadata>
<defs>
<font id="firamono" horiz-adv-x="600" >
  <font-face 
    font-family="Fira Mono Medium"
    font-weight="500"
    font-stretch="normal"
    units-per-em="1000"
    panose-1="2 11 6 9 5 0 0 2 0 4"
    ascent="785"
    descent="-215"
    x-height="528"
    cap-height="690"
    bbox="-285 -500 1192 1050"
    underline-thickness="50"
    underline-position="-50"
    unicode-range="U+000D-1F310"
  />
<missing-glyph 
d="M510 -350h-420v1400h420v-1400zM145 998v-1296h311v1296h-311zM299.5 155.5q-7.5 -6.5 -17.5 -6.5t-17.5 6.5t-7.5 17.5v84q53 3 72 19.5t19 57.5q0 33 -13 51t-48 18q-29 0 -52 -11q-7 -3 -13 -3q-11 0 -17.5 6.5t-6.5 16.5q0 19 29.5 29t63.5 10q60 0 85.5 -32
t25.5 -83q0 -53 -22.5 -82t-72.5 -36v-45q0 -11 -7.5 -17.5zM257 110q10 10 25 10t25 -10t10 -25q0 -16 -10 -26.5t-25 -10.5t-25 10.5t-10 26.5q0 15 10 25z" />
    <glyph glyph-name=".notdef" 
d="M510 -350h-420v1400h420v-1400zM145 998v-1296h311v1296h-311zM299.5 155.5q-7.5 -6.5 -17.5 -6.5t-17.5 6.5t-7.5 17.5v84q53 3 72 19.5t19 57.5q0 33 -13 51t-48 18q-29 0 -52 -11q-7 -3 -13 -3q-11 0 -17.5 6.5t-6.5 16.5q0 19 29.5 29t63.5 10q60 0 85.5 -32
t25.5 -83q0 -53 -22.5 -82t-72.5 -36v-45q0 -11 -7.5 -17.5zM257 110q10 10 25 10t25 -10t10 -25q0 -16 -10 -26.5t-25 -10.5t-25 10.5t-10 26.5q0 15 10 25z" />
    <glyph glyph-name="null" horiz-adv-x="0" 
 />
    <glyph glyph-name="nonmarkingreturn" unicode="&#xd;" 
 />
    <glyph glyph-name="space" unicode=" " 
 />
    <glyph glyph-name="A" unicode="A" 
d="M127 0h-119l220 690h144l220 -690h-123l-48 166h-246zM298 600l-99 -344h198z" />
    <glyph glyph-name="Aacute" unicode="&#xc1;" 
d="M127 0h-119l220 690h144l220 -690h-123l-48 166h-246zM298 600l-99 -344h198zM204 754l-28 58l205 112l46 -90z" />
    <glyph glyph-name="Abreve" unicode="&#x102;" 
d="M127 0h-119l220 690h144l220 -690h-123l-48 166h-246zM298 600l-99 -344h198zM191 792.5q-42 36.5 -49 96.5l70 13q21 -64 87 -64q35 0 57.5 16.5t32.5 47.5l69 -13q-6 -59 -49 -96t-110 -37q-66 0 -108 36.5z" />
    <glyph glyph-name="Acircumflex" unicode="&#xc2;" 
d="M127 0h-119l220 690h144l220 -690h-123l-48 166h-246zM298 600l-99 -344h198zM429 756l-129 82l-128 -82l-45 51l137 116h72l137 -116z" />
    <glyph glyph-name="Adieresis" unicode="&#xc4;" 
d="M127 0h-119l220 690h144l220 -690h-123l-48 166h-246zM298 600l-99 -344h198zM145.5 784q-18.5 18 -18.5 45q0 28 18.5 46t46.5 18t46.5 -18t18.5 -46q0 -27 -18.5 -45t-46.5 -18t-46.5 18zM362 784q-19 18 -19 45t19 45.5t46 18.5q28 0 47 -18t19 -46q0 -27 -19 -45
t-47 -18q-27 0 -46 18z" />
    <glyph glyph-name="Agrave" unicode="&#xc0;" 
d="M127 0h-119l220 690h144l220 -690h-123l-48 166h-246zM298 600l-99 -344h198zM394 754l-217 82l51 90l197 -114z" />
    <glyph glyph-name="Amacron" unicode="&#x100;" 
d="M127 0h-119l220 690h144l220 -690h-123l-48 166h-246zM298 600l-99 -344h198zM159 872h283v-82h-283v82z" />
    <glyph glyph-name="Aogonek" unicode="&#x104;" 
d="M441.5 -54.5q-25.5 -26.5 -25.5 -58.5q0 -48 56 -48q28 0 59 7l-10 -77q-30 -8 -62 -8q-59 0 -96 30t-37 78q0 51 34.5 87.5t102.5 62.5l-42 147h-246l-48 -166h-119l220 690h144l220 -690h-56q-69 -28 -94.5 -54.5zM298 600l-99 -344h198z" />
    <glyph glyph-name="Aring" unicode="&#xc5;" 
d="M127 0h-119l220 690h144l220 -690h-123l-48 166h-246zM298 600l-99 -344h198zM388 928q34 -33 34 -81t-34 -80.5t-88 -32.5q-53 0 -87 33t-34 80q0 48 34 81t87 33q54 0 88 -33zM263.5 887q-13.5 -14 -13.5 -40t13.5 -40t36.5 -14q24 0 37.5 14t13.5 40t-13.5 40
t-37.5 14q-23 0 -36.5 -14z" />
    <glyph glyph-name="Atilde" unicode="&#xc3;" 
d="M127 0h-119l220 690h144l220 -690h-123l-48 166h-246zM298 600l-99 -344h198zM315.5 773.5q-15.5 7.5 -35.5 21.5q-12 9 -20 13.5t-17 4.5q-16 0 -27 -10t-24 -33l-64 29q17 43 47 70t71 27q24 0 40.5 -8t34.5 -21q13 -10 20 -14t16 -4q16 0 27.5 10.5t23.5 33.5l64 -29
q-18 -43 -47.5 -70.5t-70.5 -27.5q-23 0 -38.5 7.5z" />
    <glyph glyph-name="AE" unicode="&#xc6;" 
d="M103 0h-115l192 690h386l-13 -86h-215l44 -211h175v-86h-159l45 -221h163v-86h-251l-31 167h-180zM242 606l-77 -351h142z" />
    <glyph glyph-name="AEacute" unicode="&#x1fc;" 
d="M103 0h-115l192 690h386l-13 -86h-215l44 -211h175v-86h-159l45 -221h163v-86h-251l-31 167h-180zM242 606l-77 -351h142zM261 754l-28 58l205 112l46 -90z" />
    <glyph glyph-name="B" unicode="B" 
d="M476 46q-76 -46 -193 -46h-202v690h189q110 0 181 -40.5t71 -134.5q0 -61 -36.5 -99t-91.5 -50q68 -12 113 -50.5t45 -116.5q0 -107 -76 -153zM372.5 579.5q-31.5 23.5 -92.5 23.5h-83v-199h90q59 0 88 24.5t29 77.5q0 50 -31.5 73.5zM394 290.5q-36 26.5 -99 26.5h-98
v-227h94q139 0 139 110q0 64 -36 90.5z" />
    <glyph glyph-name="C" unicode="C" 
d="M474 687q48 -17 92 -53l-60 -72q-63 51 -143 51q-84 0 -137 -64.5t-53 -202.5q0 -136 52 -200.5t139 -64.5q49 0 85 15.5t71 43.5l56 -71q-84 -82 -216 -82q-89 0 -159 41.5t-109.5 122.5t-39.5 195q0 112 40.5 193t110 123t155.5 42q68 0 116 -17z" />
    <glyph glyph-name="Cacute" unicode="&#x106;" 
d="M474 687q48 -17 92 -53l-60 -72q-63 51 -143 51q-84 0 -137 -64.5t-53 -202.5q0 -136 52 -200.5t139 -64.5q49 0 85 15.5t71 43.5l56 -71q-84 -82 -216 -82q-89 0 -159 41.5t-109.5 122.5t-39.5 195q0 112 40.5 193t110 123t155.5 42q68 0 116 -17zM268 754l-28 58
l205 112l46 -90z" />
    <glyph glyph-name="Ccaron" unicode="&#x10c;" 
d="M474 687q48 -17 92 -53l-60 -72q-63 51 -143 51q-84 0 -137 -64.5t-53 -202.5q0 -136 52 -200.5t139 -64.5q49 0 85 15.5t71 43.5l56 -71q-84 -82 -216 -82q-89 0 -159 41.5t-109.5 122.5t-39.5 195q0 112 40.5 193t110 123t155.5 42q68 0 116 -17zM400 753h-72l-137 116
l45 51l128 -82l129 82l44 -51z" />
    <glyph glyph-name="Ccedilla" unicode="&#xc7;" 
d="M447.5 -82.5q24.5 -24.5 24.5 -60.5q0 -48 -38 -76.5t-95 -28.5q-31 0 -59.5 7.5t-49.5 19.5l30 58q34 -17 66 -17q57 0 57 38q0 23 -21.5 31t-66.5 8l8 95q-114 19 -182.5 110.5t-68.5 243.5q0 112 40.5 193t110 123t155.5 42q67 0 115.5 -17t92.5 -53l-60 -72
q-63 51 -143 51q-84 0 -137 -64.5t-53 -202.5q0 -136 52 -200.5t139 -64.5q49 0 85 15.5t71 43.5l56 -71q-79 -77 -201 -82v-41q48 -4 72.5 -28.5z" />
    <glyph glyph-name="Ccircumflex" unicode="&#x108;" 
d="M474 687q48 -17 92 -53l-60 -72q-63 51 -143 51q-84 0 -137 -64.5t-53 -202.5q0 -136 52 -200.5t139 -64.5q49 0 85 15.5t71 43.5l56 -71q-84 -82 -216 -82q-89 0 -159 41.5t-109.5 122.5t-39.5 195q0 112 40.5 193t110 123t155.5 42q68 0 116 -17zM493 756l-129 82
l-128 -82l-45 51l137 116h72l137 -116z" />
    <glyph glyph-name="Cdotaccent" unicode="&#x10a;" 
d="M474 687q48 -17 92 -53l-60 -72q-63 51 -143 51q-84 0 -137 -64.5t-53 -202.5q0 -136 52 -200.5t139 -64.5q49 0 85 15.5t71 43.5l56 -71q-84 -82 -216 -82q-89 0 -159 41.5t-109.5 122.5t-39.5 195q0 112 40.5 193t110 123t155.5 42q68 0 116 -17zM416.5 888
q20.5 -20 20.5 -50t-20.5 -50.5t-53.5 -20.5q-32 0 -52.5 20.5t-20.5 50.5t20 50t53 20t53.5 -20z" />
    <glyph glyph-name="D" unicode="D" 
d="M470 76.5q-91 -76.5 -230 -76.5h-169v690h158q150 0 241 -72.5t91 -268.5t-91 -272.5zM387.5 549q-51.5 52 -136.5 52h-63v-512h64q84 0 135.5 57.5t51.5 202.5q0 148 -51.5 200z" />
    <glyph glyph-name="Eth" unicode="&#xd0;" 
d="M480.5 617q91.5 -73 91.5 -268q0 -196 -91 -272.5t-230 -76.5h-169v314h-66v78h66v298h158q149 0 240.5 -73zM450 349q0 148 -51.5 200t-136.5 52h-64v-209h144v-78h-144v-225h65q187 0 187 260z" />
    <glyph glyph-name="Dcaron" unicode="&#x10e;" 
d="M470 76.5q-91 -76.5 -230 -76.5h-169v690h158q150 0 241 -72.5t91 -268.5t-91 -272.5zM387.5 549q-51.5 52 -136.5 52h-63v-512h64q84 0 135.5 57.5t51.5 202.5q0 148 -51.5 200zM321 753h-72l-137 116l45 51l128 -82l129 82l44 -51z" />
    <glyph glyph-name="Dcroat" unicode="&#x110;" 
d="M480.5 617q91.5 -73 91.5 -268q0 -196 -91 -272.5t-230 -76.5h-169v314h-66v78h66v298h158q149 0 240.5 -73zM450 349q0 148 -51.5 200t-136.5 52h-64v-209h144v-78h-144v-225h65q187 0 187 260z" />
    <glyph glyph-name="E" unicode="E" 
d="M479 395v-88h-250v-219h305v-88h-421v690h415l-13 -88h-286v-207h250z" />
    <glyph glyph-name="Eacute" unicode="&#xc9;" 
d="M479 395v-88h-250v-219h305v-88h-421v690h415l-13 -88h-286v-207h250zM225 754l-28 58l205 112l46 -90z" />
    <glyph glyph-name="Ebreve" unicode="&#x114;" 
d="M479 395v-88h-250v-219h305v-88h-421v690h415l-13 -88h-286v-207h250zM211 792.5q-42 36.5 -49 96.5l70 13q21 -64 87 -64q35 0 57.5 16.5t32.5 47.5l69 -13q-6 -59 -49 -96t-110 -37q-66 0 -108 36.5z" />
    <glyph glyph-name="Ecaron" unicode="&#x11a;" 
d="M479 395v-88h-250v-219h305v-88h-421v690h415l-13 -88h-286v-207h250zM357 753h-72l-137 116l45 51l128 -82l129 82l44 -51z" />
    <glyph glyph-name="Ecircumflex" unicode="&#xca;" 
d="M479 395v-88h-250v-219h305v-88h-421v690h415l-13 -88h-286v-207h250zM450 756l-129 82l-128 -82l-45 51l137 116h72l137 -116z" />
    <glyph glyph-name="Edieresis" unicode="&#xcb;" 
d="M479 395v-88h-250v-219h305v-88h-421v690h415l-13 -88h-286v-207h250zM165.5 784q-18.5 18 -18.5 45q0 28 18.5 46t46.5 18t46.5 -18t18.5 -46q0 -27 -18.5 -45t-46.5 -18t-46.5 18zM382 784q-19 18 -19 45t19 45.5t46 18.5q28 0 47 -18t19 -46q0 -27 -19 -45t-47 -18
q-27 0 -46 18z" />
    <glyph glyph-name="Edotaccent" unicode="&#x116;" 
d="M479 395v-88h-250v-219h305v-88h-421v690h415l-13 -88h-286v-207h250zM373.5 888q20.5 -20 20.5 -50t-20.5 -50.5t-53.5 -20.5q-32 0 -52.5 20.5t-20.5 50.5t20 50t53 20t53.5 -20z" />
    <glyph glyph-name="Egrave" unicode="&#xc8;" 
d="M479 395v-88h-250v-219h305v-88h-421v690h415l-13 -88h-286v-207h250zM414 754l-217 82l51 90l197 -114z" />
    <glyph glyph-name="Emacron" unicode="&#x112;" 
d="M479 395v-88h-250v-219h305v-88h-421v690h415l-13 -88h-286v-207h250zM179 872h283v-82h-283v82z" />
    <glyph glyph-name="Eogonek" unicode="&#x118;" 
d="M534 0h-67q-69 -28 -94.5 -54.5t-25.5 -58.5q0 -48 56 -48q28 0 59 7l-10 -77q-30 -8 -62 -8q-59 0 -96 30t-37 78q0 43 23.5 74.5t70.5 56.5h-238v690h415l-13 -88h-286v-207h250v-88h-250v-219h305v-88z" />
    <glyph glyph-name="F" unicode="F" 
d="M503 382v-88h-260v-294h-116v690h424l-12 -88h-296v-220h260z" />
    <glyph glyph-name="G" unicode="G" 
d="M110.5 78.5q-73.5 91.5 -73.5 267.5q0 114 40.5 195t109 122t151.5 41q67 0 115 -20t91 -60l-66 -67q-32 29 -64.5 42.5t-72.5 13.5q-80 0 -131 -64.5t-51 -202.5q0 -142 40.5 -205.5t124.5 -63.5q58 0 113 29v190h-117l-12 89h242v-335q-53 -30 -108.5 -46.5
t-123.5 -16.5q-134 0 -207.5 91.5z" />
    <glyph glyph-name="Gbreve" unicode="&#x11e;" 
d="M110.5 78.5q-73.5 91.5 -73.5 267.5q0 114 40.5 195t109 122t151.5 41q67 0 115 -20t91 -60l-66 -67q-32 29 -64.5 42.5t-72.5 13.5q-80 0 -131 -64.5t-51 -202.5q0 -142 40.5 -205.5t124.5 -63.5q58 0 113 29v190h-117l-12 89h242v-335q-53 -30 -108.5 -46.5
t-123.5 -16.5q-134 0 -207.5 91.5zM220 792.5q-42 36.5 -49 96.5l70 13q21 -64 87 -64q35 0 57.5 16.5t32.5 47.5l69 -13q-6 -59 -49 -96t-110 -37q-66 0 -108 36.5z" />
    <glyph glyph-name="Gcircumflex" unicode="&#x11c;" 
d="M110.5 78.5q-73.5 91.5 -73.5 267.5q0 114 40.5 195t109 122t151.5 41q67 0 115 -20t91 -60l-66 -67q-32 29 -64.5 42.5t-72.5 13.5q-80 0 -131 -64.5t-51 -202.5q0 -142 40.5 -205.5t124.5 -63.5q58 0 113 29v190h-117l-12 89h242v-335q-53 -30 -108.5 -46.5
t-123.5 -16.5q-134 0 -207.5 91.5zM459 756l-129 82l-128 -82l-45 51l137 116h72l137 -116z" />
    <glyph glyph-name="Gcommaaccent" unicode="&#x122;" 
d="M110.5 78.5q-73.5 91.5 -73.5 267.5q0 114 40.5 195t109 122t151.5 41q67 0 115 -20t91 -60l-66 -67q-32 29 -64.5 42.5t-72.5 13.5q-80 0 -131 -64.5t-51 -202.5q0 -142 40.5 -205.5t124.5 -63.5q58 0 113 29v190h-117l-12 89h242v-335q-53 -30 -108.5 -46.5
t-123.5 -16.5q-134 0 -207.5 91.5zM376.5 -86.5q18.5 -17.5 18.5 -44.5t-18 -66l-50 -103h-62l29 116q-26 21 -26 53q0 26 18 44t45 18t45.5 -17.5z" />
    <glyph glyph-name="Gdotaccent" unicode="&#x120;" 
d="M110.5 78.5q-73.5 91.5 -73.5 267.5q0 114 40.5 195t109 122t151.5 41q67 0 115 -20t91 -60l-66 -67q-32 29 -64.5 42.5t-72.5 13.5q-80 0 -131 -64.5t-51 -202.5q0 -142 40.5 -205.5t124.5 -63.5q58 0 113 29v190h-117l-12 89h242v-335q-53 -30 -108.5 -46.5
t-123.5 -16.5q-134 0 -207.5 91.5zM383.5 888q20.5 -20 20.5 -50t-20.5 -50.5t-53.5 -20.5q-32 0 -52.5 20.5t-20.5 50.5t20 50t53 20t53.5 -20z" />
    <glyph glyph-name="H" unicode="H" 
d="M188 313v-313h-117v690h117v-280h224v280h117v-690h-117v313h-224z" />
    <glyph glyph-name="Hbar" unicode="&#x126;" 
d="M527 506v-506h-116v315h-222v-315h-116v506h-71v76h71v108h116v-108h222v108h116v-108h71v-76h-71zM189 506v-98h222v98h-222z" />
    <glyph glyph-name="Hcircumflex" unicode="&#x124;" 
d="M188 313v-313h-117v690h117v-280h224v280h117v-690h-117v313h-224zM429 756l-129 82l-128 -82l-45 51l137 116h72l137 -116z" />
    <glyph glyph-name="I" unicode="I" 
d="M359 601v-512h149v-89h-416v89h149v512h-149v89h416v-89h-149z" />
    <glyph glyph-name="IJ" unicode="&#x132;" 
d="M336 -27.5q52 31.5 71.5 82t19.5 127.5v425h-214v-524h69v-83h-272v83h90v524h-90v83h532v-509q0 -139 -76.5 -226t-262.5 -109l-14 83q95 12 147 43.5z" />
    <glyph glyph-name="Iacute" unicode="&#xcd;" 
d="M359 601v-512h149v-89h-416v89h149v512h-149v89h416v-89h-149zM204 754l-28 58l205 112l46 -90z" />
    <glyph glyph-name="Ibreve" unicode="&#x12c;" 
d="M359 601v-512h149v-89h-416v89h149v512h-149v89h416v-89h-149zM190 792.5q-42 36.5 -49 96.5l70 13q21 -64 87 -64q35 0 57.5 16.5t32.5 47.5l69 -13q-6 -59 -49 -96t-110 -37q-66 0 -108 36.5z" />
    <glyph glyph-name="Icircumflex" unicode="&#xce;" 
d="M359 601v-512h149v-89h-416v89h149v512h-149v89h416v-89h-149zM429 756l-129 82l-128 -82l-45 51l137 116h72l137 -116z" />
    <glyph glyph-name="Idieresis" unicode="&#xcf;" 
d="M359 601v-512h149v-89h-416v89h149v512h-149v89h416v-89h-149zM144.5 784q-18.5 18 -18.5 45q0 28 18.5 46t46.5 18t46.5 -18t18.5 -46q0 -27 -18.5 -45t-46.5 -18t-46.5 18zM361 784q-19 18 -19 45t19 45.5t46 18.5q28 0 47 -18t19 -46q0 -27 -19 -45t-47 -18
q-27 0 -46 18z" />
    <glyph glyph-name="Idotaccent" unicode="&#x130;" 
d="M359 601v-512h149v-89h-416v89h149v512h-149v89h416v-89h-149zM352.5 888q20.5 -20 20.5 -50t-20.5 -50.5t-53.5 -20.5q-32 0 -52.5 20.5t-20.5 50.5t20 50t53 20t53.5 -20z" />
    <glyph glyph-name="Igrave" unicode="&#xcc;" 
d="M359 601v-512h149v-89h-416v89h149v512h-149v89h416v-89h-149zM393 754l-217 82l51 90l197 -114z" />
    <glyph glyph-name="Imacron" unicode="&#x12a;" 
d="M359 601v-512h149v-89h-416v89h149v512h-149v89h416v-89h-149zM158 872h283v-82h-283v82z" />
    <glyph glyph-name="Iogonek" unicode="&#x12e;" 
d="M359 89h149v-89h-150q-69 -28 -94.5 -54.5t-25.5 -58.5q0 -48 56 -48q28 0 59 7l-10 -77q-30 -8 -62 -8q-59 0 -96 30t-37 78q0 43 23.5 74.5t70.5 56.5h-150v89h149v512h-149v89h416v-89h-149v-512z" />
    <glyph glyph-name="Itilde" unicode="&#x128;" 
d="M359 601v-512h149v-89h-416v89h149v512h-149v89h416v-89h-149zM314.5 773.5q-15.5 7.5 -35.5 21.5q-12 9 -20 13.5t-17 4.5q-16 0 -27 -10t-24 -33l-64 29q17 43 47 70t71 27q24 0 40.5 -8t34.5 -21q13 -10 20 -14t16 -4q16 0 27.5 10.5t23.5 33.5l64 -29
q-18 -43 -47.5 -70.5t-70.5 -27.5q-23 0 -38.5 7.5z" />
    <glyph glyph-name="J" unicode="J" 
d="M445.5 57.5q-62.5 -70.5 -189.5 -70.5q-109 0 -196 64l47 74q39 -26 73.5 -36t71.5 -10q65 0 102.5 42t37.5 118v362h-207v89h323v-453q0 -109 -62.5 -179.5z" />
    <glyph glyph-name="Jcircumflex" unicode="&#x134;" 
d="M445.5 57.5q-62.5 -70.5 -189.5 -70.5q-109 0 -196 64l47 74q39 -26 73.5 -36t71.5 -10q65 0 102.5 42t37.5 118v362h-207v89h323v-453q0 -109 -62.5 -179.5zM480 756l-129 82l-128 -82l-45 51l137 116h72l137 -116z" />
    <glyph glyph-name="K" unicode="K" 
d="M87 690h117v-690h-117v690zM576 690l-241 -314l260 -376h-139l-247 369l239 321h128z" />
    <glyph glyph-name="Kcommaaccent" unicode="&#x136;" 
d="M87 690h117v-690h-117v690zM576 690l-241 -314l260 -376h-139l-247 369l239 321h128zM361.5 -86.5q18.5 -17.5 18.5 -44.5t-18 -66l-50 -103h-62l29 116q-26 21 -26 53q0 26 18 44t45 18t45.5 -17.5z" />
    <glyph glyph-name="L" unicode="L" 
d="M236 690v-593h309l-13 -97h-413v690h117z" />
    <glyph glyph-name="Lacute" unicode="&#x139;" 
d="M236 690v-593h309l-13 -97h-413v690h117zM82 754l-28 58l205 112l46 -90z" />
    <glyph glyph-name="Lcaron" unicode="&#x13d;" 
d="M236 690v-593h309l-13 -97h-413v690h117zM361 493l-67 10l30 201l100 -12z" />
    <glyph glyph-name="Lcommaaccent" unicode="&#x13b;" 
d="M236 690v-593h309l-13 -97h-413v690h117zM373.5 -86.5q18.5 -17.5 18.5 -44.5t-18 -66l-50 -103h-62l29 116q-26 21 -26 53q0 26 18 44t45 18t45.5 -17.5z" />
    <glyph glyph-name="Ldot" unicode="&#x13f;" 
d="M236 690v-593h309l-13 -97h-413v690h117zM522.5 431q20.5 -20 20.5 -50q0 -31 -20.5 -51.5t-53.5 -20.5q-32 0 -52.5 20.5t-20.5 51.5q0 30 20.5 50t52.5 20q33 0 53.5 -20z" />
    <glyph glyph-name="Lslash" unicode="&#x141;" 
d="M536 0h-412v253l-53 -33l-43 69l96 58v343h116v-271l149 93l44 -67l-193 -120v-228h309z" />
    <glyph glyph-name="M" unicode="M" 
d="M468 0l-16 336q-3 66 -3 125q0 76 3 109h-4l-98 -448h-101l-104 448h-4q4 -48 4 -124q0 -35 -2 -111l-13 -335h-105l39 690h140l98 -462l94 462h140l39 -690h-107z" />
    <glyph glyph-name="N" unicode="N" 
d="M158 570q5 -28 11 -106t6 -151v-313h-104v690h151l216 -572h4q-5 29 -11 102.5t-6 155.5v314h104v-690h-152l-215 570h-4z" />
    <glyph glyph-name="Nacute" unicode="&#x143;" 
d="M158 570q5 -28 11 -106t6 -151v-313h-104v690h151l216 -572h4q-5 29 -11 102.5t-6 155.5v314h104v-690h-152l-215 570h-4zM207 754l-28 58l205 112l46 -90z" />
    <glyph glyph-name="Ncaron" unicode="&#x147;" 
d="M158 570q5 -28 11 -106t6 -151v-313h-104v690h151l216 -572h4q-5 29 -11 102.5t-6 155.5v314h104v-690h-152l-215 570h-4zM339 753h-72l-137 116l45 51l128 -82l129 82l44 -51z" />
    <glyph glyph-name="Ncommaaccent" unicode="&#x145;" 
d="M158 570q5 -28 11 -106t6 -151v-313h-104v690h151l216 -572h4q-5 29 -11 102.5t-6 155.5v314h104v-690h-152l-215 570h-4zM347.5 -86.5q18.5 -17.5 18.5 -44.5t-18 -66l-50 -103h-62l29 116q-26 21 -26 53q0 26 18 44t45 18t45.5 -17.5z" />
    <glyph glyph-name="Eng" unicode="&#x14a;" 
d="M479 -130.5q-50 -53.5 -142 -85.5l-28 82q63 26 86.5 55.5t25.5 78.5h-44l-215 570h-4q5 -28 11 -106t6 -151v-313h-104v690h151l216 -572h4q-5 29 -11 102.5t-6 155.5v314h104v-676q0 -91 -50 -144.5z" />
    <glyph glyph-name="Ntilde" unicode="&#xd1;" 
d="M158 570q5 -28 11 -106t6 -151v-313h-104v690h151l216 -572h4q-5 29 -11 102.5t-6 155.5v314h104v-690h-152l-215 570h-4zM318.5 773.5q-15.5 7.5 -35.5 21.5q-12 9 -20 13.5t-17 4.5q-16 0 -27 -10t-24 -33l-64 29q17 43 47 70t71 27q24 0 40.5 -8t34.5 -21
q13 -10 20 -14t16 -4q16 0 27.5 10.5t23.5 33.5l64 -29q-18 -43 -47.5 -70.5t-70.5 -27.5q-23 0 -38.5 7.5z" />
    <glyph glyph-name="O" unicode="O" 
d="M495 84q-68 -97 -195 -97t-195 95.5t-68 261.5q0 108 30 189t89 126t144 45q127 0 195 -96.5t68 -262.5q0 -164 -68 -261zM408.5 547q-33.5 66 -108.5 66t-108.5 -66t-33.5 -203q0 -135 34.5 -201t107.5 -66q75 0 108.5 66t33.5 202t-33.5 202z" />
    <glyph glyph-name="Oacute" unicode="&#xd3;" 
d="M495 84q-68 -97 -195 -97t-195 95.5t-68 261.5q0 108 30 189t89 126t144 45q127 0 195 -96.5t68 -262.5q0 -164 -68 -261zM408.5 547q-33.5 66 -108.5 66t-108.5 -66t-33.5 -203q0 -135 34.5 -201t107.5 -66q75 0 108.5 66t33.5 202t-33.5 202zM204 754l-28 58l205 112
l46 -90z" />
    <glyph glyph-name="Obreve" unicode="&#x14e;" 
d="M495 84q-68 -97 -195 -97t-195 95.5t-68 261.5q0 108 30 189t89 126t144 45q127 0 195 -96.5t68 -262.5q0 -164 -68 -261zM408.5 547q-33.5 66 -108.5 66t-108.5 -66t-33.5 -203q0 -135 34.5 -201t107.5 -66q75 0 108.5 66t33.5 202t-33.5 202zM190 792.5
q-42 36.5 -49 96.5l70 13q21 -64 87 -64q35 0 57.5 16.5t32.5 47.5l69 -13q-6 -59 -49 -96t-110 -37q-66 0 -108 36.5z" />
    <glyph glyph-name="Ocircumflex" unicode="&#xd4;" 
d="M495 84q-68 -97 -195 -97t-195 95.5t-68 261.5q0 108 30 189t89 126t144 45q127 0 195 -96.5t68 -262.5q0 -164 -68 -261zM408.5 547q-33.5 66 -108.5 66t-108.5 -66t-33.5 -203q0 -135 34.5 -201t107.5 -66q75 0 108.5 66t33.5 202t-33.5 202zM429 756l-129 82l-128 -82
l-45 51l137 116h72l137 -116z" />
    <glyph glyph-name="Odieresis" unicode="&#xd6;" 
d="M495 84q-68 -97 -195 -97t-195 95.5t-68 261.5q0 108 30 189t89 126t144 45q127 0 195 -96.5t68 -262.5q0 -164 -68 -261zM408.5 547q-33.5 66 -108.5 66t-108.5 -66t-33.5 -203q0 -135 34.5 -201t107.5 -66q75 0 108.5 66t33.5 202t-33.5 202zM144.5 784
q-18.5 18 -18.5 45q0 28 18.5 46t46.5 18t46.5 -18t18.5 -46q0 -27 -18.5 -45t-46.5 -18t-46.5 18zM361 784q-19 18 -19 45t19 45.5t46 18.5q28 0 47 -18t19 -46q0 -27 -19 -45t-47 -18q-27 0 -46 18z" />
    <glyph glyph-name="Ograve" unicode="&#xd2;" 
d="M495 84q-68 -97 -195 -97t-195 95.5t-68 261.5q0 108 30 189t89 126t144 45q127 0 195 -96.5t68 -262.5q0 -164 -68 -261zM408.5 547q-33.5 66 -108.5 66t-108.5 -66t-33.5 -203q0 -135 34.5 -201t107.5 -66q75 0 108.5 66t33.5 202t-33.5 202zM393 754l-217 82l51 90
l197 -114z" />
    <glyph glyph-name="Ohungarumlaut" unicode="&#x150;" 
d="M495 84q-68 -97 -195 -97t-195 95.5t-68 261.5q0 108 30 189t89 126t144 45q127 0 195 -96.5t68 -262.5q0 -164 -68 -261zM408.5 547q-33.5 66 -108.5 66t-108.5 -66t-33.5 -203q0 -135 34.5 -201t107.5 -66q75 0 108.5 66t33.5 202t-33.5 202zM346 925l-107 -171l-66 29
l86 182zM516 922l-115 -170l-64 32l92 181z" />
    <glyph glyph-name="Omacron" unicode="&#x14c;" 
d="M495 84q-68 -97 -195 -97t-195 95.5t-68 261.5q0 108 30 189t89 126t144 45q127 0 195 -96.5t68 -262.5q0 -164 -68 -261zM408.5 547q-33.5 66 -108.5 66t-108.5 -66t-33.5 -203q0 -135 34.5 -201t107.5 -66q75 0 108.5 66t33.5 202t-33.5 202zM158 872h283v-82h-283v82z
" />
    <glyph glyph-name="Oslash" unicode="&#xd8;" 
d="M532 535.5q31 -81.5 31 -190.5q0 -164 -68 -261t-195 -97q-30 0 -59 6l-31 -103l-89 25l36 116q-58 43 -89 123.5t-31 189.5q0 108 30 189t89 126t144 45q33 0 60 -7l31 106l88 -25l-36 -118q58 -43 89 -124.5zM190 548q-34 -66 -34 -204q0 -163 45 -223l141 488
q-20 5 -42 5q-76 0 -110 -66zM410 142.5q34 65.5 34 202.5q0 84 -11 138.5t-34 85.5l-141 -487q22 -5 42 -5q76 0 110 65.5z" />
    <glyph glyph-name="Oslashacute" unicode="&#x1fe;" 
d="M532 535.5q31 -81.5 31 -190.5q0 -164 -68 -261t-195 -97q-30 0 -59 6l-31 -103l-89 25l36 116q-58 43 -89 123.5t-31 189.5q0 108 30 189t89 126t144 45q33 0 60 -7l31 106l88 -25l-36 -118q58 -43 89 -124.5zM190 548q-34 -66 -34 -204q0 -163 45 -223l141 488
q-20 5 -42 5q-76 0 -110 -66zM410 142.5q34 65.5 34 202.5q0 84 -11 138.5t-34 85.5l-141 -487q22 -5 42 -5q76 0 110 65.5zM204 754l-28 58l205 112l46 -90z" />
    <glyph glyph-name="Otilde" unicode="&#xd5;" 
d="M495 84q-68 -97 -195 -97t-195 95.5t-68 261.5q0 108 30 189t89 126t144 45q127 0 195 -96.5t68 -262.5q0 -164 -68 -261zM408.5 547q-33.5 66 -108.5 66t-108.5 -66t-33.5 -203q0 -135 34.5 -201t107.5 -66q75 0 108.5 66t33.5 202t-33.5 202zM314.5 773.5
q-15.5 7.5 -35.5 21.5q-12 9 -20 13.5t-17 4.5q-16 0 -27 -10t-24 -33l-64 29q17 43 47 70t71 27q24 0 40.5 -8t34.5 -21q13 -10 20 -14t16 -4q16 0 27.5 10.5t23.5 33.5l64 -29q-18 -43 -47.5 -70.5t-70.5 -27.5q-23 0 -38.5 7.5z" />
    <glyph glyph-name="OE" unicode="&#x152;" 
d="M297 690h307l-13 -86h-220q48 -66 55 -211h141v-86h-141q-4 -145 -59 -221h242v-86h-315q-41 -13 -77 -13q-109 0 -161.5 90t-52.5 267q0 175 53 267.5t161 92.5q38 0 80 -14zM138 554q-24 -63 -24 -210q0 -145 25 -208t78 -63q56 0 80.5 63t24.5 209q0 100 -10.5 159
t-33.5 86t-61 27q-55 0 -79 -63z" />
    <glyph glyph-name="P" unicode="P" 
d="M492 301.5q-72 -55.5 -197 -55.5h-83v-246h-117v690h192q133 0 205 -54.5t72 -162.5q0 -116 -72 -171.5zM295 603h-83v-268h84q70 0 108 32t38 106q0 130 -147 130z" />
    <glyph glyph-name="Thorn" unicode="&#xde;" 
d="M287 575q133 0 205 -55t72 -165q0 -117 -71.5 -174t-197.5 -57h-90v-124h-116v690h116v-115h82zM205 212h93q69 0 106.5 32t37.5 109q0 70 -38 102.5t-108 32.5h-91v-276z" />
    <glyph glyph-name="Q" unicode="Q" 
d="M422 32q75 -15 117.5 -51.5t68.5 -113.5l-107 -40q-23 57 -49 91.5t-65 52.5t-97 18q-121 0 -185.5 94.5t-64.5 260.5q0 165 67.5 262.5t193.5 97.5q127 0 194 -96t67 -263q0 -236 -140 -313zM408.5 547.5q-32.5 65.5 -107.5 65.5t-107.5 -66t-32.5 -203
q0 -136 33.5 -201.5t106.5 -65.5q75 0 107.5 65.5t32.5 202.5t-32.5 202.5z" />
    <glyph glyph-name="R" unicode="R" 
d="M504 370q-43 -48 -114 -70l195 -300h-135l-174 284h-75v-284h-116v690h192q270 0 270 -200q0 -72 -43 -120zM390.5 576.5q-34.5 27.5 -106.5 27.5h-83v-235h86q68 0 103 29t35 92q0 59 -34.5 86.5z" />
    <glyph glyph-name="Racute" unicode="&#x154;" 
d="M504 370q-43 -48 -114 -70l195 -300h-135l-174 284h-75v-284h-116v690h192q270 0 270 -200q0 -72 -43 -120zM390.5 576.5q-34.5 27.5 -106.5 27.5h-83v-235h86q68 0 103 29t35 92q0 59 -34.5 86.5zM204 754l-28 58l205 112l46 -90z" />
    <glyph glyph-name="Rcaron" unicode="&#x158;" 
d="M504 370q-43 -48 -114 -70l195 -300h-135l-174 284h-75v-284h-116v690h192q270 0 270 -200q0 -72 -43 -120zM390.5 576.5q-34.5 27.5 -106.5 27.5h-83v-235h86q68 0 103 29t35 92q0 59 -34.5 86.5zM336 753h-72l-137 116l45 51l128 -82l129 82l44 -51z" />
    <glyph glyph-name="Rcommaaccent" unicode="&#x156;" 
d="M504 370q-43 -48 -114 -70l195 -300h-135l-174 284h-75v-284h-116v690h192q270 0 270 -200q0 -72 -43 -120zM390.5 576.5q-34.5 27.5 -106.5 27.5h-83v-235h86q68 0 103 29t35 92q0 59 -34.5 86.5zM350.5 -86.5q18.5 -17.5 18.5 -44.5t-18 -66l-50 -103h-62l29 116
q-26 21 -26 53q0 26 18 44t45 18t45.5 -17.5z" />
    <glyph glyph-name="S" unicode="S" 
d="M517.5 86q-31.5 -47 -91 -73t-141.5 -26q-159 0 -254 92l64 71q78 -72 190 -72q62 0 102.5 29t40.5 82q0 31 -12.5 52t-43 37.5t-86.5 33.5q-114 34 -168 81t-54 124q0 55 30.5 97.5t84.5 66t122 23.5q140 0 231 -83l-61 -69q-35 31 -77 46t-86 15q-55 0 -90 -23t-35 -66
q0 -27 14.5 -45.5t49 -34.5t98.5 -35q100 -30 152 -77t52 -137q0 -62 -31.5 -109z" />
    <glyph glyph-name="Sacute" unicode="&#x15a;" 
d="M517.5 86q-31.5 -47 -91 -73t-141.5 -26q-159 0 -254 92l64 71q78 -72 190 -72q62 0 102.5 29t40.5 82q0 31 -12.5 52t-43 37.5t-86.5 33.5q-114 34 -168 81t-54 124q0 55 30.5 97.5t84.5 66t122 23.5q140 0 231 -83l-61 -69q-35 31 -77 46t-86 15q-55 0 -90 -23t-35 -66
q0 -27 14.5 -45.5t49 -34.5t98.5 -35q100 -30 152 -77t52 -137q0 -62 -31.5 -109zM211 754l-28 58l205 112l46 -90z" />
    <glyph glyph-name="Scaron" unicode="&#x160;" 
d="M517.5 86q-31.5 -47 -91 -73t-141.5 -26q-159 0 -254 92l64 71q78 -72 190 -72q62 0 102.5 29t40.5 82q0 31 -12.5 52t-43 37.5t-86.5 33.5q-114 34 -168 81t-54 124q0 55 30.5 97.5t84.5 66t122 23.5q140 0 231 -83l-61 -69q-35 31 -77 46t-86 15q-55 0 -90 -23t-35 -66
q0 -27 14.5 -45.5t49 -34.5t98.5 -35q100 -30 152 -77t52 -137q0 -62 -31.5 -109zM343 753h-72l-137 116l45 51l128 -82l129 82l44 -51z" />
    <glyph glyph-name="Scedilla" unicode="&#x15e;" 
d="M489 53q-60 -56 -167 -65v-42q48 -4 72.5 -28.5t24.5 -60.5q0 -48 -38 -76.5t-95 -28.5q-31 0 -59.5 7.5t-49.5 19.5l30 58q34 -17 66 -17q57 0 57 38q0 23 -21.5 31t-66.5 8l8 91q-135 10 -219 91l64 71q78 -72 190 -72q62 0 102.5 29t40.5 82q0 31 -12.5 52t-43 37.5
t-86.5 33.5q-114 34 -168 81t-54 124q0 55 30.5 97.5t84.5 66t122 23.5q140 0 231 -83l-61 -69q-35 31 -77 46t-86 15q-55 0 -90 -23t-35 -66q0 -27 14.5 -45.5t49 -34.5t98.5 -35q100 -30 152 -77t52 -137q0 -86 -60 -142z" />
    <glyph glyph-name="Scircumflex" unicode="&#x15c;" 
d="M517.5 86q-31.5 -47 -91 -73t-141.5 -26q-159 0 -254 92l64 71q78 -72 190 -72q62 0 102.5 29t40.5 82q0 31 -12.5 52t-43 37.5t-86.5 33.5q-114 34 -168 81t-54 124q0 55 30.5 97.5t84.5 66t122 23.5q140 0 231 -83l-61 -69q-35 31 -77 46t-86 15q-55 0 -90 -23t-35 -66
q0 -27 14.5 -45.5t49 -34.5t98.5 -35q100 -30 152 -77t52 -137q0 -62 -31.5 -109zM436 756l-129 82l-128 -82l-45 51l137 116h72l137 -116z" />
    <glyph glyph-name="Scommaaccent" unicode="&#x218;" 
d="M517.5 86q-31.5 -47 -91 -73t-141.5 -26q-159 0 -254 92l64 71q78 -72 190 -72q62 0 102.5 29t40.5 82q0 31 -12.5 52t-43 37.5t-86.5 33.5q-114 34 -168 81t-54 124q0 55 30.5 97.5t84.5 66t122 23.5q140 0 231 -83l-61 -69q-35 31 -77 46t-86 15q-55 0 -90 -23t-35 -66
q0 -27 14.5 -45.5t49 -34.5t98.5 -35q100 -30 152 -77t52 -137q0 -62 -31.5 -109zM345.5 -86.5q18.5 -17.5 18.5 -44.5t-18 -66l-50 -103h-62l29 116q-26 21 -26 53q0 26 18 44t45 18t45.5 -17.5z" />
    <glyph glyph-name="T" unicode="T" 
d="M241 0v596h-208v94h536l-12 -94h-200v-596h-116z" />
    <glyph glyph-name="Tbar" unicode="&#x166;" 
d="M357 413h126v-77h-126v-336h-116v336h-126v77h126v183h-208v94h536l-12 -94h-200v-183z" />
    <glyph glyph-name="Tcaron" unicode="&#x164;" 
d="M241 0v596h-208v94h536l-12 -94h-200v-596h-116zM335 753h-72l-137 116l45 51l128 -82l129 82l44 -51z" />
    <glyph glyph-name="Tcedilla" unicode="&#x162;" 
d="M335 -54q48 -4 72.5 -28.5t24.5 -60.5q0 -48 -38 -76.5t-95 -28.5q-31 0 -59.5 7.5t-49.5 19.5l30 58q34 -17 66 -17q57 0 57 38q0 23 -21.5 31t-66.5 8l9 103h-23v596h-208v94h536l-12 -94h-200v-596h-22v-54z" />
    <glyph glyph-name="uni021A" unicode="&#x21a;" 
d="M241 0v596h-208v94h536l-12 -94h-200v-596h-116zM346.5 -86.5q18.5 -17.5 18.5 -44.5t-18 -66l-50 -103h-62l29 116q-26 21 -26 53q0 26 18 44t45 18t45.5 -17.5z" />
    <glyph glyph-name="U" unicode="U" 
d="M510.5 102q-28.5 -54 -82.5 -84.5t-129 -30.5q-113 0 -175.5 65t-62.5 174v464h116v-442q0 -85 29.5 -127t92.5 -42q64 0 93.5 42t29.5 127v442h117v-464q0 -70 -28.5 -124z" />
    <glyph glyph-name="Uacute" unicode="&#xda;" 
d="M510.5 102q-28.5 -54 -82.5 -84.5t-129 -30.5q-113 0 -175.5 65t-62.5 174v464h116v-442q0 -85 29.5 -127t92.5 -42q64 0 93.5 42t29.5 127v442h117v-464q0 -70 -28.5 -124zM204 754l-28 58l205 112l46 -90z" />
    <glyph glyph-name="Ubreve" unicode="&#x16c;" 
d="M510.5 102q-28.5 -54 -82.5 -84.5t-129 -30.5q-113 0 -175.5 65t-62.5 174v464h116v-442q0 -85 29.5 -127t92.5 -42q64 0 93.5 42t29.5 127v442h117v-464q0 -70 -28.5 -124zM190 792.5q-42 36.5 -49 96.5l70 13q21 -64 87 -64q35 0 57.5 16.5t32.5 47.5l69 -13
q-6 -59 -49 -96t-110 -37q-66 0 -108 36.5z" />
    <glyph glyph-name="Ucircumflex" unicode="&#xdb;" 
d="M510.5 102q-28.5 -54 -82.5 -84.5t-129 -30.5q-113 0 -175.5 65t-62.5 174v464h116v-442q0 -85 29.5 -127t92.5 -42q64 0 93.5 42t29.5 127v442h117v-464q0 -70 -28.5 -124zM429 756l-129 82l-128 -82l-45 51l137 116h72l137 -116z" />
    <glyph glyph-name="Udieresis" unicode="&#xdc;" 
d="M510.5 102q-28.5 -54 -82.5 -84.5t-129 -30.5q-113 0 -175.5 65t-62.5 174v464h116v-442q0 -85 29.5 -127t92.5 -42q64 0 93.5 42t29.5 127v442h117v-464q0 -70 -28.5 -124zM144.5 784q-18.5 18 -18.5 45q0 28 18.5 46t46.5 18t46.5 -18t18.5 -46q0 -27 -18.5 -45
t-46.5 -18t-46.5 18zM361 784q-19 18 -19 45t19 45.5t46 18.5q28 0 47 -18t19 -46q0 -27 -19 -45t-47 -18q-27 0 -46 18z" />
    <glyph glyph-name="Ugrave" unicode="&#xd9;" 
d="M510.5 102q-28.5 -54 -82.5 -84.5t-129 -30.5q-113 0 -175.5 65t-62.5 174v464h116v-442q0 -85 29.5 -127t92.5 -42q64 0 93.5 42t29.5 127v442h117v-464q0 -70 -28.5 -124zM393 754l-217 82l51 90l197 -114z" />
    <glyph glyph-name="Uhungarumlaut" unicode="&#x170;" 
d="M510.5 102q-28.5 -54 -82.5 -84.5t-129 -30.5q-113 0 -175.5 65t-62.5 174v464h116v-442q0 -85 29.5 -127t92.5 -42q64 0 93.5 42t29.5 127v442h117v-464q0 -70 -28.5 -124zM346 925l-107 -171l-66 29l86 182zM516 922l-115 -170l-64 32l92 181z" />
    <glyph glyph-name="Umacron" unicode="&#x16a;" 
d="M510.5 102q-28.5 -54 -82.5 -84.5t-129 -30.5q-113 0 -175.5 65t-62.5 174v464h116v-442q0 -85 29.5 -127t92.5 -42q64 0 93.5 42t29.5 127v442h117v-464q0 -70 -28.5 -124zM158 872h283v-82h-283v82z" />
    <glyph glyph-name="Uogonek" unicode="&#x172;" 
d="M539 226q0 -84 -40 -144t-114 -83q-68 -27 -93 -53.5t-25 -58.5q0 -48 56 -48q28 0 59 7l-10 -77q-30 -8 -62 -8q-59 0 -96 30t-37 78q0 38 19.5 67.5t57.5 53.5q-92 13 -142.5 76t-50.5 160v464h116v-442q0 -85 29.5 -127t92.5 -42q64 0 93.5 42t29.5 127v442h117v-464z
" />
    <glyph glyph-name="Uring" unicode="&#x16e;" 
d="M510.5 102q-28.5 -54 -82.5 -84.5t-129 -30.5q-113 0 -175.5 65t-62.5 174v464h116v-442q0 -85 29.5 -127t92.5 -42q64 0 93.5 42t29.5 127v442h117v-464q0 -70 -28.5 -124zM387 928q34 -33 34 -81t-34 -80.5t-88 -32.5q-53 0 -87 33t-34 80q0 48 34 81t87 33
q54 0 88 -33zM262.5 887q-13.5 -14 -13.5 -40t13.5 -40t36.5 -14q24 0 37.5 14t13.5 40t-13.5 40t-37.5 14q-23 0 -36.5 -14z" />
    <glyph glyph-name="Utilde" unicode="&#x168;" 
d="M510.5 102q-28.5 -54 -82.5 -84.5t-129 -30.5q-113 0 -175.5 65t-62.5 174v464h116v-442q0 -85 29.5 -127t92.5 -42q64 0 93.5 42t29.5 127v442h117v-464q0 -70 -28.5 -124zM314.5 773.5q-15.5 7.5 -35.5 21.5q-12 9 -20 13.5t-17 4.5q-16 0 -27 -10t-24 -33l-64 29
q17 43 47 70t71 27q24 0 40.5 -8t34.5 -21q13 -10 20 -14t16 -4q16 0 27.5 10.5t23.5 33.5l64 -29q-18 -43 -47.5 -70.5t-70.5 -27.5q-23 0 -38.5 7.5z" />
    <glyph glyph-name="V" unicode="V" 
d="M585 690l-218 -690h-134l-218 690h124l163 -580l165 580h118z" />
    <glyph glyph-name="W" unicode="W" 
d="M367 0l-66 498h-4l-68 -498h-139l-88 690h112l51 -568h4l73 488h119l67 -486h4l62 566h104l-95 -690h-136z" />
    <glyph glyph-name="Wacute" unicode="&#x1e82;" 
d="M367 0l-66 498h-4l-68 -498h-139l-88 690h112l51 -568h4l73 488h119l67 -486h4l62 566h104l-95 -690h-136zM204 754l-28 58l205 112l46 -90z" />
    <glyph glyph-name="Wcircumflex" unicode="&#x174;" 
d="M367 0l-66 498h-4l-68 -498h-139l-88 690h112l51 -568h4l73 488h119l67 -486h4l62 566h104l-95 -690h-136zM429 756l-129 82l-128 -82l-45 51l137 116h72l137 -116z" />
    <glyph glyph-name="Wdieresis" unicode="&#x1e84;" 
d="M367 0l-66 498h-4l-68 -498h-139l-88 690h112l51 -568h4l73 488h119l67 -486h4l62 566h104l-95 -690h-136zM144.5 784q-18.5 18 -18.5 45q0 28 18.5 46t46.5 18t46.5 -18t18.5 -46q0 -27 -18.5 -45t-46.5 -18t-46.5 18zM361 784q-19 18 -19 45t19 45.5t46 18.5
q28 0 47 -18t19 -46q0 -27 -19 -45t-47 -18q-27 0 -46 18z" />
    <glyph glyph-name="Wgrave" unicode="&#x1e80;" 
d="M367 0l-66 498h-4l-68 -498h-139l-88 690h112l51 -568h4l73 488h119l67 -486h4l62 566h104l-95 -690h-136zM393 754l-217 82l51 90l197 -114z" />
    <glyph glyph-name="X" unicode="X" 
d="M300 442l135 248h124l-191 -317l212 -373h-130l-152 293l-153 -293h-125l209 367l-191 323h129z" />
    <glyph glyph-name="Y" unicode="Y" 
d="M241 0v263l-230 427h128l163 -327l165 327h122l-230 -426v-264h-118z" />
    <glyph glyph-name="Yacute" unicode="&#xdd;" 
d="M241 0v263l-230 427h128l163 -327l165 327h122l-230 -426v-264h-118zM206 754l-28 58l205 112l46 -90z" />
    <glyph glyph-name="Ycircumflex" unicode="&#x176;" 
d="M241 0v263l-230 427h128l163 -327l165 327h122l-230 -426v-264h-118zM431 756l-129 82l-128 -82l-45 51l137 116h72l137 -116z" />
    <glyph glyph-name="Ydieresis" unicode="&#x178;" 
d="M241 0v263l-230 427h128l163 -327l165 327h122l-230 -426v-264h-118zM147.5 784q-18.5 18 -18.5 45q0 28 18.5 46t46.5 18t46.5 -18t18.5 -46q0 -27 -18.5 -45t-46.5 -18t-46.5 18zM364 784q-19 18 -19 45t19 45.5t46 18.5q28 0 47 -18t19 -46q0 -27 -19 -45t-47 -18
q-27 0 -46 18z" />
    <glyph glyph-name="Ygrave" unicode="&#x1ef2;" 
d="M241 0v263l-230 427h128l163 -327l165 327h122l-230 -426v-264h-118zM396 754l-217 82l51 90l197 -114z" />
    <glyph glyph-name="Z" unicode="Z" 
d="M528 0h-469v90l350 506h-314v94h443v-91l-346 -503h349z" />
    <glyph glyph-name="Zacute" unicode="&#x179;" 
d="M528 0h-469v90l350 506h-314v94h443v-91l-346 -503h349zM220 754l-28 58l205 112l46 -90z" />
    <glyph glyph-name="Zcaron" unicode="&#x17d;" 
d="M528 0h-469v90l350 506h-314v94h443v-91l-346 -503h349zM353 753h-72l-137 116l45 51l128 -82l129 82l44 -51z" />
    <glyph glyph-name="Zdotaccent" unicode="&#x17b;" 
d="M528 0h-469v90l350 506h-314v94h443v-91l-346 -503h349zM369.5 888q20.5 -20 20.5 -50t-20.5 -50.5t-53.5 -20.5q-32 0 -52.5 20.5t-20.5 50.5t20 50t53 20t53.5 -20z" />
    <glyph glyph-name="Cacute.loclPLK" 
d="M474 687q48 -17 92 -53l-60 -72q-63 51 -143 51q-84 0 -137 -64.5t-53 -202.5q0 -136 52 -200.5t139 -64.5q49 0 85 15.5t71 43.5l56 -71q-84 -82 -216 -82q-89 0 -159 41.5t-109.5 122.5t-39.5 195q0 112 40.5 193t110 123t155.5 42q68 0 116 -17zM359 732l-54 34
l104 171l87 -56z" />
    <glyph glyph-name="Nacute.loclPLK" 
d="M158 570q5 -28 11 -106t6 -151v-313h-104v690h151l216 -572h4q-5 29 -11 102.5t-6 155.5v314h104v-690h-152l-215 570h-4zM298 732l-54 34l104 171l87 -56z" />
    <glyph glyph-name="Oacute.loclPLK" 
d="M495 84q-68 -97 -195 -97t-195 95.5t-68 261.5q0 108 30 189t89 126t144 45q127 0 195 -96.5t68 -262.5q0 -164 -68 -261zM408.5 547q-33.5 66 -108.5 66t-108.5 -66t-33.5 -203q0 -135 34.5 -201t107.5 -66q75 0 108.5 66t33.5 202t-33.5 202zM295 732l-54 34l104 171
l87 -56z" />
    <glyph glyph-name="Sacute.loclPLK" 
d="M517.5 86q-31.5 -47 -91 -73t-141.5 -26q-159 0 -254 92l64 71q78 -72 190 -72q62 0 102.5 29t40.5 82q0 31 -12.5 52t-43 37.5t-86.5 33.5q-114 34 -168 81t-54 124q0 55 30.5 97.5t84.5 66t122 23.5q140 0 231 -83l-61 -69q-35 31 -77 46t-86 15q-55 0 -90 -23t-35 -66
q0 -27 14.5 -45.5t49 -34.5t98.5 -35q100 -30 152 -77t52 -137q0 -62 -31.5 -109zM302 732l-54 34l104 171l87 -56z" />
    <glyph glyph-name="Zacute.loclPLK" 
d="M528 0h-469v90l350 506h-314v94h443v-91l-346 -503h349zM311 732l-54 34l104 171l87 -56z" />
    <glyph glyph-name="a" unicode="a" 
d="M502 84.5q9 -14.5 31 -21.5l-26 -76q-83 10 -109 73q-29 -36 -73 -54.5t-96 -18.5q-80 0 -126.5 45t-46.5 119q0 83 65 128t186 45h75v34q0 50 -30 73t-87 23q-28 0 -65 -7t-75 -20l-28 79q95 36 185 36q105 0 158 -46t53 -131v-235q0 -31 9 -45.5zM330.5 87.5
q32.5 18.5 51.5 50.5v116h-62q-76 0 -111 -25.5t-35 -73.5q0 -42 22.5 -64t66.5 -22q35 0 67.5 18.5z" />
    <glyph glyph-name="aacute" unicode="&#xe1;" 
d="M502 84.5q9 -14.5 31 -21.5l-26 -76q-83 10 -109 73q-29 -36 -73 -54.5t-96 -18.5q-80 0 -126.5 45t-46.5 119q0 83 65 128t186 45h75v34q0 50 -30 73t-87 23q-28 0 -65 -7t-75 -20l-28 79q95 36 185 36q105 0 158 -46t53 -131v-235q0 -31 9 -45.5zM330.5 87.5
q32.5 18.5 51.5 50.5v116h-62q-76 0 -111 -25.5t-35 -73.5q0 -42 22.5 -64t66.5 -22q35 0 67.5 18.5zM417 714l-215 -96l-35 59l196 127z" />
    <glyph glyph-name="abreve" unicode="&#x103;" 
d="M502 84.5q9 -14.5 31 -21.5l-26 -76q-83 10 -109 73q-29 -36 -73 -54.5t-96 -18.5q-80 0 -126.5 45t-46.5 119q0 83 65 128t186 45h75v34q0 50 -30 73t-87 23q-28 0 -65 -7t-75 -20l-28 79q95 36 185 36q105 0 158 -46t53 -131v-235q0 -31 9 -45.5zM330.5 87.5
q32.5 18.5 51.5 50.5v116h-62q-76 0 -111 -25.5t-35 -73.5q0 -42 22.5 -64t66.5 -22q35 0 67.5 18.5zM181.5 668q-40.5 45 -47.5 106l69 13q10 -39 32 -61t56 -22t56.5 22t33.5 61l69 -13q-4 -38 -23.5 -72.5t-54.5 -56.5t-81 -22q-69 0 -109.5 45z" />
    <glyph glyph-name="acircumflex" unicode="&#xe2;" 
d="M502 84.5q9 -14.5 31 -21.5l-26 -76q-83 10 -109 73q-29 -36 -73 -54.5t-96 -18.5q-80 0 -126.5 45t-46.5 119q0 83 65 128t186 45h75v34q0 50 -30 73t-87 23q-28 0 -65 -7t-75 -20l-28 79q95 36 185 36q105 0 158 -46t53 -131v-235q0 -31 9 -45.5zM330.5 87.5
q32.5 18.5 51.5 50.5v116h-62q-76 0 -111 -25.5t-35 -73.5q0 -42 22.5 -64t66.5 -22q35 0 67.5 18.5zM256 799h72l137 -126l-45 -51l-127 92l-128 -92l-46 51z" />
    <glyph glyph-name="adieresis" unicode="&#xe4;" 
d="M502 84.5q9 -14.5 31 -21.5l-26 -76q-83 10 -109 73q-29 -36 -73 -54.5t-96 -18.5q-80 0 -126.5 45t-46.5 119q0 83 65 128t186 45h75v34q0 50 -30 73t-87 23q-28 0 -65 -7t-75 -20l-28 79q95 36 185 36q105 0 158 -46t53 -131v-235q0 -31 9 -45.5zM330.5 87.5
q32.5 18.5 51.5 50.5v116h-62q-76 0 -111 -25.5t-35 -73.5q0 -42 22.5 -64t66.5 -22q35 0 67.5 18.5zM137 662q-19 18 -19 46q0 27 19 45t47 18q27 0 46 -18t19 -45t-19 -45.5t-46 -18.5q-28 0 -47 18zM354 662.5q-19 18.5 -19 45.5t19 45t46 18q28 0 46.5 -18t18.5 -45
q0 -28 -18.5 -46t-46.5 -18q-27 0 -46 18.5z" />
    <glyph glyph-name="agrave" unicode="&#xe0;" 
d="M502 84.5q9 -14.5 31 -21.5l-26 -76q-83 10 -109 73q-29 -36 -73 -54.5t-96 -18.5q-80 0 -126.5 45t-46.5 119q0 83 65 128t186 45h75v34q0 50 -30 73t-87 23q-28 0 -65 -7t-75 -20l-28 79q95 36 185 36q105 0 158 -46t53 -131v-235q0 -31 9 -45.5zM330.5 87.5
q32.5 18.5 51.5 50.5v116h-62q-76 0 -111 -25.5t-35 -73.5q0 -42 22.5 -64t66.5 -22q35 0 67.5 18.5zM220 804l197 -127l-35 -59l-215 97z" />
    <glyph glyph-name="amacron" unicode="&#x101;" 
d="M502 84.5q9 -14.5 31 -21.5l-26 -76q-83 10 -109 73q-29 -36 -73 -54.5t-96 -18.5q-80 0 -126.5 45t-46.5 119q0 83 65 128t186 45h75v34q0 50 -30 73t-87 23q-28 0 -65 -7t-75 -20l-28 79q95 36 185 36q105 0 158 -46t53 -131v-235q0 -31 9 -45.5zM330.5 87.5
q32.5 18.5 51.5 50.5v116h-62q-76 0 -111 -25.5t-35 -73.5q0 -42 22.5 -64t66.5 -22q35 0 67.5 18.5zM150 751h283v-82h-283v82z" />
    <glyph glyph-name="aogonek" unicode="&#x105;" 
d="M412.5 -67.5q-25.5 -26.5 -25.5 -58.5q0 -48 56 -48q28 0 59 7l-10 -77q-30 -8 -62 -8q-59 0 -96 30t-37 78q0 52 36 89t107 64q-29 18 -42 51q-29 -36 -73 -54.5t-96 -18.5q-80 0 -126.5 45t-46.5 119q0 83 65 128t186 45h75v34q0 50 -30 73t-87 23q-28 0 -65 -7
t-75 -20l-28 79q95 36 185 36q105 0 158 -46t53 -131v-235q0 -31 9 -45.5t31 -21.5l-26 -76q-69 -28 -94.5 -54.5zM320 254q-76 0 -111 -25.5t-35 -73.5q0 -42 22.5 -64t66.5 -22q35 0 67.5 18.5t51.5 50.5v116h-62z" />
    <glyph glyph-name="aring" unicode="&#xe5;" 
d="M502 84.5q9 -14.5 31 -21.5l-26 -76q-83 10 -109 73q-29 -36 -73 -54.5t-96 -18.5q-80 0 -126.5 45t-46.5 119q0 83 65 128t186 45h75v34q0 50 -30 73t-87 23q-28 0 -65 -7t-75 -20l-28 79q95 36 185 36q105 0 158 -46t53 -131v-235q0 -31 9 -45.5zM330.5 87.5
q32.5 18.5 51.5 50.5v116h-62q-76 0 -111 -25.5t-35 -73.5q0 -42 22.5 -64t66.5 -22q35 0 67.5 18.5zM379.5 806.5q33.5 -32.5 33.5 -80.5t-33.5 -81t-87.5 -33t-88 33t-34 81t34 80.5t88 32.5t87.5 -32.5zM255 765q-14 -14 -14 -39q0 -26 14 -40.5t37 -14.5t36.5 14.5
t13.5 40.5q0 25 -13.5 39t-36.5 14t-37 -14z" />
    <glyph glyph-name="atilde" unicode="&#xe3;" 
d="M502 84.5q9 -14.5 31 -21.5l-26 -76q-83 10 -109 73q-29 -36 -73 -54.5t-96 -18.5q-80 0 -126.5 45t-46.5 119q0 83 65 128t186 45h75v34q0 50 -30 73t-87 23q-28 0 -65 -7t-75 -20l-28 79q95 36 185 36q105 0 158 -46t53 -131v-235q0 -31 9 -45.5zM330.5 87.5
q32.5 18.5 51.5 50.5v116h-62q-76 0 -111 -25.5t-35 -73.5q0 -42 22.5 -64t66.5 -22q35 0 67.5 18.5zM306.5 652.5q-16.5 7.5 -35.5 21.5q-12 9 -20 13.5t-17 4.5q-15 0 -26.5 -10.5t-24.5 -33.5l-64 30q18 43 48 70t71 27q24 0 39.5 -7.5t35.5 -21.5q22 -18 36 -18
q16 0 27 10.5t24 33.5l64 -29q-17 -43 -47.5 -70.5t-71.5 -27.5q-22 0 -38.5 7.5z" />
    <glyph glyph-name="ae" unicode="&#xe6;" 
d="M604 278q0 -20 -2 -48h-258q7 -83 32 -121.5t74 -38.5q26 0 48 9t47 28l47 -66q-32 -26 -67 -40t-79 -14q-102 0 -153 87q-33 -47 -66 -67t-82 -20q-69 0 -110 45t-41 119q0 84 53 128t157 44h43v35q0 104 -90 104q-24 0 -45.5 -6t-54.5 -21l-28 72q76 35 139 35
q55 0 87.5 -21t50.5 -60q16 38 48 59.5t78 21.5q172 0 172 -264zM368.5 426q-19.5 -35 -24.5 -122h164q-2 82 -19.5 119.5t-60.5 37.5q-40 0 -59.5 -35zM126.5 229q-26.5 -25 -26.5 -72q0 -44 17 -67.5t47 -23.5q27 0 48.5 20t45.5 63q-11 50 -11 105h-34q-60 0 -86.5 -25z
" />
    <glyph glyph-name="aeacute" unicode="&#x1fd;" 
d="M604 278q0 -20 -2 -48h-258q7 -83 32 -121.5t74 -38.5q26 0 48 9t47 28l47 -66q-32 -26 -67 -40t-79 -14q-102 0 -153 87q-33 -47 -66 -67t-82 -20q-69 0 -110 45t-41 119q0 84 53 128t157 44h43v35q0 104 -90 104q-24 0 -45.5 -6t-54.5 -21l-28 72q76 35 139 35
q55 0 87.5 -21t50.5 -60q16 38 48 59.5t78 21.5q172 0 172 -264zM368.5 426q-19.5 -35 -24.5 -122h164q-2 82 -19.5 119.5t-60.5 37.5q-40 0 -59.5 -35zM126.5 229q-26.5 -25 -26.5 -72q0 -44 17 -67.5t47 -23.5q27 0 48.5 20t45.5 63q-11 50 -11 105h-34q-60 0 -86.5 -25z
M431 714l-215 -96l-35 59l196 127z" />
    <glyph glyph-name="b" unicode="b" 
d="M265.5 522q37.5 20 80.5 20q101 0 149 -73t48 -204q0 -124 -55.5 -201t-154.5 -77q-89 0 -139 65l-6 -52h-99v740l112 13v-288q27 37 64.5 57zM393.5 119.5q30.5 47.5 30.5 144.5q0 100 -27.5 146t-81.5 46q-34 0 -63.5 -21t-50.5 -55v-247q19 -29 45.5 -45t58.5 -16
q58 0 88.5 47.5z" />
    <glyph glyph-name="c" unicode="c" 
d="M474 127l52 -75q-36 -30 -85 -47.5t-101 -17.5q-121 0 -189 74.5t-68 199.5q0 81 31 144.5t89.5 100t138.5 36.5q105 0 183 -63l-52 -73q-63 46 -129 46t-104 -47.5t-38 -143.5q0 -94 38.5 -138t103.5 -44t130 48z" />
    <glyph glyph-name="cacute" unicode="&#x107;" 
d="M474 127l52 -75q-36 -30 -85 -47.5t-101 -17.5q-121 0 -189 74.5t-68 199.5q0 81 31 144.5t89.5 100t138.5 36.5q105 0 183 -63l-52 -73q-63 46 -129 46t-104 -47.5t-38 -143.5q0 -94 38.5 -138t103.5 -44t130 48zM469 704l-215 -96l-35 59l196 127z" />
    <glyph glyph-name="ccaron" unicode="&#x10d;" 
d="M474 127l52 -75q-36 -30 -85 -47.5t-101 -17.5q-121 0 -189 74.5t-68 199.5q0 81 31 144.5t89.5 100t138.5 36.5q105 0 183 -63l-52 -73q-63 46 -129 46t-104 -47.5t-38 -143.5q0 -94 38.5 -138t103.5 -44t130 48zM380 612h-72l-137 127l46 50l128 -92l127 92l45 -50z
" />
    <glyph glyph-name="ccedilla" unicode="&#xe7;" 
d="M435.5 -82.5q24.5 -24.5 24.5 -60.5q0 -48 -38 -76.5t-95 -28.5q-31 0 -59.5 7.5t-49.5 19.5l30 58q34 -17 66 -17q57 0 57 38q0 23 -21.5 31t-66.5 8l8 94q-99 15 -153.5 86.5t-54.5 183.5q0 81 31 144.5t89.5 100t138.5 36.5q105 0 183 -63l-52 -73q-63 46 -129 46
t-104 -47.5t-38 -143.5q0 -94 38.5 -138t103.5 -44t130 48l52 -75q-32 -27 -74.5 -43.5t-88.5 -20.5v-42q48 -4 72.5 -28.5z" />
    <glyph glyph-name="ccircumflex" unicode="&#x109;" 
d="M474 127l52 -75q-36 -30 -85 -47.5t-101 -17.5q-121 0 -189 74.5t-68 199.5q0 81 31 144.5t89.5 100t138.5 36.5q105 0 183 -63l-52 -73q-63 46 -129 46t-104 -47.5t-38 -143.5q0 -94 38.5 -138t103.5 -44t130 48zM308 789h72l137 -126l-45 -51l-127 92l-128 -92l-46 51z
" />
    <glyph glyph-name="cdotaccent" unicode="&#x10b;" 
d="M474 127l52 -75q-36 -30 -85 -47.5t-101 -17.5q-121 0 -189 74.5t-68 199.5q0 81 31 144.5t89.5 100t138.5 36.5q105 0 183 -63l-52 -73q-63 46 -129 46t-104 -47.5t-38 -143.5q0 -94 38.5 -138t103.5 -44t130 48zM396.5 757q20.5 -20 20.5 -50q0 -31 -20.5 -51.5
t-53.5 -20.5q-32 0 -52.5 20.5t-20.5 51.5q0 30 20.5 50t52.5 20q33 0 53.5 -20z" />
    <glyph glyph-name="d" unicode="d" 
d="M511 0h-99l-8 65q-26 -38 -64 -58t-84 -20q-99 0 -149 74t-50 203q0 81 25 144t72.5 98.5t111.5 35.5q81 0 133 -57v268l112 -13v-740zM206.5 408.5q-30.5 -47.5 -30.5 -144.5q0 -99 28 -145t82 -46q65 0 113 75v249q-41 59 -104 59q-58 0 -88.5 -47.5z" />
    <glyph glyph-name="eth" unicode="&#xf0;" 
d="M118 672l23 80q90 -16 148 -44l71 75l63 -55l-59 -60q91 -61 134.5 -159.5t43.5 -239.5q0 -83 -30 -147t-86 -99.5t-131 -35.5q-67 0 -121 29.5t-85.5 85.5t-31.5 133q0 72 29 128t78 87t106 31q47 0 83.5 -15.5t65.5 -46.5q-31 115 -121 182l-70 -72l-75 36l72 76
q-45 19 -107 31zM425 331q-22 32 -56.5 49t-75.5 17q-54 0 -88 -40t-34 -119q0 -81 33.5 -123.5t90.5 -42.5q64 0 98.5 48.5t34.5 142.5q0 35 -3 68z" />
    <glyph glyph-name="dcaron" unicode="&#x10f;" 
d="M479 0h-99l-8 65q-26 -38 -64 -58t-84 -20q-99 0 -149 74t-50 203q0 81 25 144t72.5 98.5t111.5 35.5q81 0 133 -57v268l112 -13v-740zM174.5 408.5q-30.5 -47.5 -30.5 -144.5q0 -99 28 -145t82 -46q65 0 113 75v249q-41 59 -104 59q-58 0 -88.5 -47.5zM581 542l-67 10
l30 201l100 -12z" />
    <glyph glyph-name="dcroat" unicode="&#x111;" 
d="M506 596v-596h-100l-8 65q-26 -38 -64 -58t-84 -20q-99 0 -148.5 74t-49.5 203q0 81 25 144t72 98.5t111 35.5q81 0 133 -57v111h-152v77h152v80l113 -13v-67h79v-77h-79zM290 456q-58 0 -89 -47.5t-31 -144.5q0 -191 110 -191q67 0 113 75v249q-41 59 -103 59z" />
    <glyph glyph-name="e" unicode="e" 
d="M226.5 112.5q39.5 -38.5 99.5 -38.5q79 0 138 49l49 -70q-37 -31 -87 -48.5t-105 -17.5q-121 0 -188 75.5t-67 201.5q0 79 29 142.5t83 99.5t126 36q107 0 169 -70.5t62 -193.5q0 -30 -3 -50h-350q5 -77 44.5 -115.5zM220 420q-33 -39 -38 -115h244q-2 75 -32.5 114.5
t-87.5 39.5q-53 0 -86 -39z" />
    <glyph glyph-name="eacute" unicode="&#xe9;" 
d="M226.5 112.5q39.5 -38.5 99.5 -38.5q79 0 138 49l49 -70q-37 -31 -87 -48.5t-105 -17.5q-121 0 -188 75.5t-67 201.5q0 79 29 142.5t83 99.5t126 36q107 0 169 -70.5t62 -193.5q0 -30 -3 -50h-350q5 -77 44.5 -115.5zM220 420q-33 -39 -38 -115h244q-2 75 -32.5 114.5
t-87.5 39.5q-53 0 -86 -39zM434 714l-215 -96l-35 59l196 127z" />
    <glyph glyph-name="ebreve" unicode="&#x115;" 
d="M226.5 112.5q39.5 -38.5 99.5 -38.5q79 0 138 49l49 -70q-37 -31 -87 -48.5t-105 -17.5q-121 0 -188 75.5t-67 201.5q0 79 29 142.5t83 99.5t126 36q107 0 169 -70.5t62 -193.5q0 -30 -3 -50h-350q5 -77 44.5 -115.5zM220 420q-33 -39 -38 -115h244q-2 75 -32.5 114.5
t-87.5 39.5q-53 0 -86 -39zM198.5 668q-40.5 45 -47.5 106l69 13q10 -39 32 -61t56 -22t56.5 22t33.5 61l69 -13q-4 -38 -23.5 -72.5t-54.5 -56.5t-81 -22q-69 0 -109.5 45z" />
    <glyph glyph-name="ecaron" unicode="&#x11b;" 
d="M226.5 112.5q39.5 -38.5 99.5 -38.5q79 0 138 49l49 -70q-37 -31 -87 -48.5t-105 -17.5q-121 0 -188 75.5t-67 201.5q0 79 29 142.5t83 99.5t126 36q107 0 169 -70.5t62 -193.5q0 -30 -3 -50h-350q5 -77 44.5 -115.5zM220 420q-33 -39 -38 -115h244q-2 75 -32.5 114.5
t-87.5 39.5q-53 0 -86 -39zM345 622h-72l-137 127l46 50l128 -92l127 92l45 -50z" />
    <glyph glyph-name="ecircumflex" unicode="&#xea;" 
d="M226.5 112.5q39.5 -38.5 99.5 -38.5q79 0 138 49l49 -70q-37 -31 -87 -48.5t-105 -17.5q-121 0 -188 75.5t-67 201.5q0 79 29 142.5t83 99.5t126 36q107 0 169 -70.5t62 -193.5q0 -30 -3 -50h-350q5 -77 44.5 -115.5zM220 420q-33 -39 -38 -115h244q-2 75 -32.5 114.5
t-87.5 39.5q-53 0 -86 -39zM273 799h72l137 -126l-45 -51l-127 92l-128 -92l-46 51z" />
    <glyph glyph-name="edieresis" unicode="&#xeb;" 
d="M226.5 112.5q39.5 -38.5 99.5 -38.5q79 0 138 49l49 -70q-37 -31 -87 -48.5t-105 -17.5q-121 0 -188 75.5t-67 201.5q0 79 29 142.5t83 99.5t126 36q107 0 169 -70.5t62 -193.5q0 -30 -3 -50h-350q5 -77 44.5 -115.5zM220 420q-33 -39 -38 -115h244q-2 75 -32.5 114.5
t-87.5 39.5q-53 0 -86 -39zM154 662q-19 18 -19 46q0 27 19 45t47 18q27 0 46 -18t19 -45t-19 -45.5t-46 -18.5q-28 0 -47 18zM371 662.5q-19 18.5 -19 45.5t19 45t46 18q28 0 46.5 -18t18.5 -45q0 -28 -18.5 -46t-46.5 -18q-27 0 -46 18.5z" />
    <glyph glyph-name="edotaccent" unicode="&#x117;" 
d="M226.5 112.5q39.5 -38.5 99.5 -38.5q79 0 138 49l49 -70q-37 -31 -87 -48.5t-105 -17.5q-121 0 -188 75.5t-67 201.5q0 79 29 142.5t83 99.5t126 36q107 0 169 -70.5t62 -193.5q0 -30 -3 -50h-350q5 -77 44.5 -115.5zM220 420q-33 -39 -38 -115h244q-2 75 -32.5 114.5
t-87.5 39.5q-53 0 -86 -39zM361.5 767q20.5 -20 20.5 -50q0 -31 -20.5 -51.5t-53.5 -20.5q-32 0 -52.5 20.5t-20.5 51.5q0 30 20.5 50t52.5 20q33 0 53.5 -20z" />
    <glyph glyph-name="egrave" unicode="&#xe8;" 
d="M226.5 112.5q39.5 -38.5 99.5 -38.5q79 0 138 49l49 -70q-37 -31 -87 -48.5t-105 -17.5q-121 0 -188 75.5t-67 201.5q0 79 29 142.5t83 99.5t126 36q107 0 169 -70.5t62 -193.5q0 -30 -3 -50h-350q5 -77 44.5 -115.5zM220 420q-33 -39 -38 -115h244q-2 75 -32.5 114.5
t-87.5 39.5q-53 0 -86 -39zM237 804l197 -127l-35 -59l-215 97z" />
    <glyph glyph-name="emacron" unicode="&#x113;" 
d="M226.5 112.5q39.5 -38.5 99.5 -38.5q79 0 138 49l49 -70q-37 -31 -87 -48.5t-105 -17.5q-121 0 -188 75.5t-67 201.5q0 79 29 142.5t83 99.5t126 36q107 0 169 -70.5t62 -193.5q0 -30 -3 -50h-350q5 -77 44.5 -115.5zM220 420q-33 -39 -38 -115h244q-2 75 -32.5 114.5
t-87.5 39.5q-53 0 -86 -39zM167 751h283v-82h-283v82z" />
    <glyph glyph-name="eogonek" unicode="&#x119;" 
d="M532 228h-350q5 -77 44.5 -115.5t99.5 -38.5q79 0 138 49l49 -70q-42 -35 -100 -53q-69 -28 -94.5 -54.5t-25.5 -58.5q0 -48 56 -48q28 0 59 7l-10 -77q-30 -8 -62 -8q-59 0 -96 30t-37 78q0 75 87 119q-107 10 -165.5 84.5t-58.5 191.5q0 79 29 142.5t83 99.5t126 36
q107 0 169 -70.5t62 -193.5q0 -30 -3 -50zM393.5 419.5q-30.5 39.5 -87.5 39.5q-53 0 -86 -39t-38 -115h244q-2 75 -32.5 114.5z" />
    <glyph glyph-name="f" unicode="f" 
d="M568 722l-34 -78q-50 22 -113 22q-52 0 -77 -20t-25 -63v-93h177l-12 -83h-165v-407h-112v407h-120v83h120v95q0 50 25.5 88t71.5 59t106 21q86 0 158 -31z" />
    <glyph glyph-name="g" unicode="g" 
d="M498 488.5q-37 -3.5 -88 -3.5q48 -22 72 -55t24 -80q0 -52 -25.5 -92t-72.5 -63t-111 -23q-45 0 -72 9q-11 -8 -17 -19.5t-6 -24.5q0 -18 14.5 -28.5t51.5 -10.5h92q55 0 99 -19t68.5 -52.5t24.5 -75.5q0 -80 -68 -123.5t-196 -43.5q-89 0 -141 18.5t-73.5 54t-21.5 91.5
h101q0 -30 11.5 -47.5t40.5 -26t84 -8.5q80 0 115 19.5t35 57.5q0 32 -27.5 49.5t-74.5 17.5h-91q-71 0 -107.5 28.5t-36.5 72.5q0 27 15 52t43 44q-47 25 -69 60.5t-22 87.5q0 55 28 97.5t78.5 66t114.5 23.5q86 -1 136.5 12t107.5 41l30 -93q-29 -10 -66 -13.5z
M211.5 434.5q-27.5 -29.5 -27.5 -79.5q0 -51 28 -80.5t81 -29.5q49 0 75 29t26 83q0 107 -103 107q-52 0 -79.5 -29.5z" />
    <glyph glyph-name="gbreve" unicode="&#x11f;" 
d="M498 488.5q-37 -3.5 -88 -3.5q48 -22 72 -55t24 -80q0 -52 -25.5 -92t-72.5 -63t-111 -23q-45 0 -72 9q-11 -8 -17 -19.5t-6 -24.5q0 -18 14.5 -28.5t51.5 -10.5h92q55 0 99 -19t68.5 -52.5t24.5 -75.5q0 -80 -68 -123.5t-196 -43.5q-89 0 -141 18.5t-73.5 54t-21.5 91.5
h101q0 -30 11.5 -47.5t40.5 -26t84 -8.5q80 0 115 19.5t35 57.5q0 32 -27.5 49.5t-74.5 17.5h-91q-71 0 -107.5 28.5t-36.5 72.5q0 27 15 52t43 44q-47 25 -69 60.5t-22 87.5q0 55 28 97.5t78.5 66t114.5 23.5q86 -1 136.5 12t107.5 41l30 -93q-29 -10 -66 -13.5z
M211.5 434.5q-27.5 -29.5 -27.5 -79.5q0 -51 28 -80.5t81 -29.5q49 0 75 29t26 83q0 107 -103 107q-52 0 -79.5 -29.5zM191.5 668q-40.5 45 -47.5 106l69 13q10 -39 32 -61t56 -22t56.5 22t33.5 61l69 -13q-4 -38 -23.5 -72.5t-54.5 -56.5t-81 -22q-69 0 -109.5 45z" />
    <glyph glyph-name="gcircumflex" unicode="&#x11d;" 
d="M498 488.5q-37 -3.5 -88 -3.5q48 -22 72 -55t24 -80q0 -52 -25.5 -92t-72.5 -63t-111 -23q-45 0 -72 9q-11 -8 -17 -19.5t-6 -24.5q0 -18 14.5 -28.5t51.5 -10.5h92q55 0 99 -19t68.5 -52.5t24.5 -75.5q0 -80 -68 -123.5t-196 -43.5q-89 0 -141 18.5t-73.5 54t-21.5 91.5
h101q0 -30 11.5 -47.5t40.5 -26t84 -8.5q80 0 115 19.5t35 57.5q0 32 -27.5 49.5t-74.5 17.5h-91q-71 0 -107.5 28.5t-36.5 72.5q0 27 15 52t43 44q-47 25 -69 60.5t-22 87.5q0 55 28 97.5t78.5 66t114.5 23.5q86 -1 136.5 12t107.5 41l30 -93q-29 -10 -66 -13.5z
M211.5 434.5q-27.5 -29.5 -27.5 -79.5q0 -51 28 -80.5t81 -29.5q49 0 75 29t26 83q0 107 -103 107q-52 0 -79.5 -29.5zM266 799h72l137 -126l-45 -51l-127 92l-128 -92l-46 51z" />
    <glyph glyph-name="gcommaaccent" unicode="&#x123;" 
d="M498 488.5q-37 -3.5 -88 -3.5q48 -22 72 -55t24 -80q0 -52 -25.5 -92t-72.5 -63t-111 -23q-45 0 -72 9q-11 -8 -17 -19.5t-6 -24.5q0 -18 14.5 -28.5t51.5 -10.5h92q55 0 99 -19t68.5 -52.5t24.5 -75.5q0 -80 -68 -123.5t-196 -43.5q-89 0 -141 18.5t-73.5 54t-21.5 91.5
h101q0 -30 11.5 -47.5t40.5 -26t84 -8.5q80 0 115 19.5t35 57.5q0 32 -27.5 49.5t-74.5 17.5h-91q-71 0 -107.5 28.5t-36.5 72.5q0 27 15 52t43 44q-47 25 -69 60.5t-22 87.5q0 55 28 97.5t78.5 66t114.5 23.5q86 -1 136.5 12t107.5 41l30 -93q-29 -10 -66 -13.5z
M211.5 434.5q-27.5 -29.5 -27.5 -79.5q0 -51 28 -80.5t81 -29.5q49 0 75 29t26 83q0 107 -103 107q-52 0 -79.5 -29.5zM254.5 614.5q-18.5 17.5 -18.5 44.5t18 66l50 103h62l-29 -116q26 -21 26 -53q0 -26 -18 -44t-45 -18t-45.5 17.5z" />
    <glyph glyph-name="gdotaccent" unicode="&#x121;" 
d="M498 488.5q-37 -3.5 -88 -3.5q48 -22 72 -55t24 -80q0 -52 -25.5 -92t-72.5 -63t-111 -23q-45 0 -72 9q-11 -8 -17 -19.5t-6 -24.5q0 -18 14.5 -28.5t51.5 -10.5h92q55 0 99 -19t68.5 -52.5t24.5 -75.5q0 -80 -68 -123.5t-196 -43.5q-89 0 -141 18.5t-73.5 54t-21.5 91.5
h101q0 -30 11.5 -47.5t40.5 -26t84 -8.5q80 0 115 19.5t35 57.5q0 32 -27.5 49.5t-74.5 17.5h-91q-71 0 -107.5 28.5t-36.5 72.5q0 27 15 52t43 44q-47 25 -69 60.5t-22 87.5q0 55 28 97.5t78.5 66t114.5 23.5q86 -1 136.5 12t107.5 41l30 -93q-29 -10 -66 -13.5z
M211.5 434.5q-27.5 -29.5 -27.5 -79.5q0 -51 28 -80.5t81 -29.5q49 0 75 29t26 83q0 107 -103 107q-52 0 -79.5 -29.5zM354.5 767q20.5 -20 20.5 -50q0 -31 -20.5 -51.5t-53.5 -20.5q-32 0 -52.5 20.5t-20.5 51.5q0 30 20.5 50t52.5 20q33 0 53.5 -20z" />
    <glyph glyph-name="h" unicode="h" 
d="M275.5 522q42.5 20 89.5 20q73 0 110 -40.5t37 -116.5v-385h-112v367q0 48 -18 68.5t-58 20.5q-35 0 -67 -22t-56 -56v-378h-112v739l112 12v-287q32 38 74.5 58z" />
    <glyph glyph-name="hbar" unicode="&#x127;" 
d="M475 501.5q37 -40.5 37 -116.5v-385h-112v367q0 48 -18 68.5t-58 20.5q-35 0 -67 -22t-56 -56v-378h-112v596h-74v77h74v66l112 12v-78h158v-77h-158v-132q32 38 74.5 58t89.5 20q73 0 110 -40.5z" />
    <glyph glyph-name="hcircumflex" unicode="&#x125;" 
d="M275.5 522q42.5 20 89.5 20q73 0 110 -40.5t37 -116.5v-385h-112v367q0 48 -18 68.5t-58 20.5q-35 0 -67 -22t-56 -56v-378h-112v739l112 12v-287q32 38 74.5 58zM429 806l-129 82l-128 -82l-45 51l137 116h72l137 -116z" />
    <glyph glyph-name="i" unicode="i" 
d="M352.5 767q20.5 -20 20.5 -50q0 -31 -20 -51.5t-53 -20.5t-53.5 20.5t-20.5 51.5q0 30 20.5 50t53.5 20q32 0 52.5 -20zM521 82v-82h-414v82h158v364h-153v82h266v-446h143z" />
    <glyph glyph-name="dotlessi" unicode="&#x131;" 
d="M521 82v-82h-414v82h158v364h-153v82h266v-446h143z" />
    <glyph glyph-name="iacute" unicode="&#xed;" 
d="M521 82v-82h-414v82h158v364h-153v82h266v-446h143zM425 714l-215 -96l-35 59l196 127z" />
    <glyph glyph-name="ibreve" unicode="&#x12d;" 
d="M521 82v-82h-414v82h158v364h-153v82h266v-446h143zM189.5 668q-40.5 45 -47.5 106l69 13q10 -39 32 -61t56 -22t56.5 22t33.5 61l69 -13q-4 -38 -23.5 -72.5t-54.5 -56.5t-81 -22q-69 0 -109.5 45z" />
    <glyph glyph-name="icircumflex" unicode="&#xee;" 
d="M521 82v-82h-414v82h158v364h-153v82h266v-446h143zM264 799h72l137 -126l-45 -51l-127 92l-128 -92l-46 51z" />
    <glyph glyph-name="idieresis" unicode="&#xef;" 
d="M521 82v-82h-414v82h158v364h-153v82h266v-446h143zM145 662q-19 18 -19 46q0 27 19 45t47 18q27 0 46 -18t19 -45t-19 -45.5t-46 -18.5q-28 0 -47 18zM362 662.5q-19 18.5 -19 45.5t19 45t46 18q28 0 46.5 -18t18.5 -45q0 -28 -18.5 -46t-46.5 -18q-27 0 -46 18.5z" />
    <glyph glyph-name="i.loclTRK" 
d="M521 82v-82h-414v82h158v364h-153v82h266v-446h143zM352.5 767q20.5 -20 20.5 -50q0 -31 -20.5 -51.5t-53.5 -20.5q-32 0 -52.5 20.5t-20.5 51.5q0 30 20.5 50t52.5 20q33 0 53.5 -20z" />
    <glyph glyph-name="igrave" unicode="&#xec;" 
d="M521 82v-82h-414v82h158v364h-153v82h266v-446h143zM228 804l197 -127l-35 -59l-215 97z" />
    <glyph glyph-name="ij" unicode="&#x133;" 
d="M237 767q21 -20 21 -50q0 -31 -21 -51.5t-54 -20.5q-32 0 -52.5 20.5t-20.5 51.5q0 30 20.5 50t52.5 20q33 0 54 -20zM504 767q21 -20 21 -50q0 -31 -21 -51.5t-53 -20.5t-52.5 20.5t-20.5 51.5q0 30 20.5 50t52.5 20t53 -20zM447.5 -106q-69.5 -68 -202.5 -110l-36 85
q63 22 105 46t67.5 62.5t25.5 94.5v375h-170v-365h79v-82h-273v82h85v365h-80v81h469v-447q0 -119 -69.5 -187z" />
    <glyph glyph-name="imacron" unicode="&#x12b;" 
d="M521 82v-82h-414v82h158v364h-153v82h266v-446h143zM158 751h283v-82h-283v82z" />
    <glyph glyph-name="iogonek" unicode="&#x12f;" 
d="M246.5 665.5q-20.5 20.5 -20.5 51.5q0 30 20.5 50t52.5 20q33 0 53.5 -20t20.5 -50q0 -31 -20.5 -51.5t-53.5 -20.5q-32 0 -52.5 20.5zM521 0h-144q-69 -28 -94.5 -54.5t-25.5 -58.5q0 -48 56 -48q28 0 59 7l-10 -77q-30 -8 -62 -8q-59 0 -96 30t-37 78q0 43 23.5 74.5
t70.5 56.5h-154v82h158v364h-153v82h266v-446h143v-82z" />
    <glyph glyph-name="itilde" unicode="&#x129;" 
d="M521 82v-82h-414v82h158v364h-153v82h266v-446h143zM314.5 652.5q-16.5 7.5 -35.5 21.5q-12 9 -20 13.5t-17 4.5q-15 0 -26.5 -10.5t-24.5 -33.5l-64 30q18 43 48 70t71 27q24 0 39.5 -7.5t35.5 -21.5q22 -18 36 -18q16 0 27 10.5t24 33.5l64 -29q-17 -43 -47.5 -70.5
t-71.5 -27.5q-22 0 -38.5 7.5z" />
    <glyph glyph-name="j" unicode="j" 
d="M421.5 767q20.5 -20 20.5 -50q0 -31 -20.5 -51.5t-53.5 -20.5q-32 0 -52.5 20.5t-20.5 51.5q0 30 20.5 50t52.5 20q33 0 53.5 -20zM368.5 -108q-87.5 -76 -264.5 -108l-18 87q128 24 192.5 76.5t64.5 156.5v342h-208v82h321v-417q0 -143 -87.5 -219z" />
    <glyph glyph-name="jdotless" unicode="&#x237;" 
d="M368.5 -108q-87.5 -76 -264.5 -108l-18 87q128 24 192.5 76.5t64.5 156.5v342h-208v82h321v-417q0 -143 -87.5 -219z" />
    <glyph glyph-name="jcircumflex" unicode="&#x135;" 
d="M368.5 -108q-87.5 -76 -264.5 -108l-18 87q128 24 192.5 76.5t64.5 156.5v342h-208v82h321v-417q0 -143 -87.5 -219zM333 799h72l137 -126l-45 -51l-127 92l-128 -92l-46 51z" />
    <glyph glyph-name="k" unicode="k" 
d="M92 0v740l113 13v-753h-113zM576 0h-137l-226 289l210 239h131l-213 -236z" />
    <glyph glyph-name="kcommaaccent" unicode="&#x137;" 
d="M92 0v740l113 13v-753h-113zM576 0h-137l-226 289l210 239h131l-213 -236zM350.5 -86.5q18.5 -17.5 18.5 -44.5t-18 -66l-50 -103h-62l29 116q-26 21 -26 53q0 26 18 44t45 18t45.5 -17.5z" />
    <glyph glyph-name="kgreenlandic" unicode="&#x138;" 
d="M89 0v528h112v-528h-112zM573 0h-137l-227 280l211 248h131l-215 -240z" />
    <glyph glyph-name="l" unicode="l" 
d="M401 78q38 0 84 17l28 -78q-55 -30 -136 -30q-79 0 -123.5 44.5t-44.5 122.5v504h-159v82h271v-596q0 -66 80 -66z" />
    <glyph glyph-name="lacute" unicode="&#x13a;" 
d="M401 78q38 0 84 17l28 -78q-55 -30 -136 -30q-79 0 -123.5 44.5t-44.5 122.5v504h-159v82h271v-596q0 -66 80 -66zM387 926l-215 -96l-35 59l196 127z" />
    <glyph glyph-name="lcaron" unicode="&#x13e;" 
d="M401 78q38 0 84 17l28 -78q-55 -30 -136 -30q-79 0 -123.5 44.5t-44.5 122.5v504h-159v82h271v-596q0 -66 80 -66zM434 543l-67 10l30 201l100 -12z" />
    <glyph glyph-name="lcommaaccent" unicode="&#x13c;" 
d="M401 78q38 0 84 17l28 -78q-55 -30 -136 -30q-79 0 -123.5 44.5t-44.5 122.5v504h-159v82h271v-596q0 -66 80 -66zM405.5 -86.5q18.5 -17.5 18.5 -44.5t-18 -66l-50 -103h-62l29 116q-26 21 -26 53q0 26 18 44t45 18t45.5 -17.5z" />
    <glyph glyph-name="ldot" unicode="&#x140;" 
d="M401 78q38 0 84 17l28 -78q-55 -30 -136 -30q-79 0 -123.5 44.5t-44.5 122.5v504h-159v82h271v-596q0 -66 80 -66zM616.5 433q20.5 -20 20.5 -50q0 -31 -20.5 -51.5t-53.5 -20.5q-32 0 -52.5 20.5t-20.5 51.5q0 30 20.5 50t52.5 20q33 0 53.5 -20z" />
    <glyph glyph-name="lslash" unicode="&#x142;" 
d="M377 -13q-79 0 -123.5 44.5t-44.5 122.5v134l-59 -36l-43 67l102 62v277h-159v82h271v-290l81 50l43 -68l-124 -76v-212q0 -66 80 -66q38 0 84 17l28 -78q-55 -30 -136 -30z" />
    <glyph glyph-name="m" unicode="m" 
d="M531 508q28 -34 28 -116v-392h-100v377q0 44 -6.5 60.5t-28.5 16.5q-42 0 -78 -52v-402h-91v377q0 44 -6.5 60.5t-28.5 16.5q-42 0 -78 -52v-402h-101v528h85l8 -57q25 35 51 53t62 18q70 0 90 -67q24 32 52 49.5t64 17.5q50 0 78 -34z" />
    <glyph glyph-name="n" unicode="n" 
d="M186 528l8 -68q33 39 78 60.5t93 21.5q73 0 110 -40.5t37 -116.5v-385h-112v330q0 48 -6 74.5t-22 39t-47 12.5q-36 0 -67.5 -22t-56.5 -56v-378h-112v528h97z" />
    <glyph glyph-name="nacute" unicode="&#x144;" 
d="M186 528l8 -68q33 39 78 60.5t93 21.5q73 0 110 -40.5t37 -116.5v-385h-112v330q0 48 -6 74.5t-22 39t-47 12.5q-36 0 -67.5 -22t-56.5 -56v-378h-112v528h97zM425 710l-215 -96l-35 59l196 127z" />
    <glyph glyph-name="napostrophe" unicode="&#x149;" 
d="M199 528l8 -68q33 39 78 60.5t93 21.5q73 0 110 -40.5t37 -116.5v-385h-112v330q0 48 -6 74.5t-22 39t-47 12.5q-36 0 -67.5 -22t-56.5 -56v-378h-112v528h97zM128.5 734.5q18.5 -17.5 18.5 -43.5q0 -14 -6 -30.5t-21 -47.5l-39 -80h-61l26 104q-27 22 -27 53
q0 26 18.5 44t45.5 18t45.5 -17.5z" />
    <glyph glyph-name="ncaron" unicode="&#x148;" 
d="M186 528l8 -68q33 39 78 60.5t93 21.5q73 0 110 -40.5t37 -116.5v-385h-112v330q0 48 -6 74.5t-22 39t-47 12.5q-36 0 -67.5 -22t-56.5 -56v-378h-112v528h97zM336 618h-72l-137 127l46 50l128 -92l127 92l45 -50z" />
    <glyph glyph-name="ncommaaccent" unicode="&#x146;" 
d="M186 528l8 -68q33 39 78 60.5t93 21.5q73 0 110 -40.5t37 -116.5v-385h-112v330q0 48 -6 74.5t-22 39t-47 12.5q-36 0 -67.5 -22t-56.5 -56v-378h-112v528h97zM348.5 -86.5q18.5 -17.5 18.5 -44.5t-18 -66l-50 -103h-62l29 116q-26 21 -26 53q0 26 18 44t45 18
t45.5 -17.5z" />
    <glyph glyph-name="eng" unicode="&#x14b;" 
d="M492 -83.5q-20 -47.5 -57 -76t-99 -55.5l-41 82q39 17 60.5 35t33 49t11.5 83v296q0 49 -5.5 75t-22 38.5t-48.5 12.5q-35 0 -67 -22t-56 -56v-378h-112v528h97l8 -68q33 39 78 60.5t93 21.5q73 0 110 -40.5t37 -116.5v-344q0 -77 -20 -124.5z" />
    <glyph glyph-name="ntilde" unicode="&#xf1;" 
d="M186 528l8 -68q33 39 78 60.5t93 21.5q73 0 110 -40.5t37 -116.5v-385h-112v330q0 48 -6 74.5t-22 39t-47 12.5q-36 0 -67.5 -22t-56.5 -56v-378h-112v528h97zM314.5 648.5q-16.5 7.5 -35.5 21.5q-12 9 -20 13.5t-17 4.5q-15 0 -26.5 -10.5t-24.5 -33.5l-64 30
q18 43 48 70t71 27q24 0 39.5 -7.5t35.5 -21.5q22 -18 36 -18q16 0 27 10.5t24 33.5l64 -29q-17 -43 -47.5 -70.5t-71.5 -27.5q-22 0 -38.5 7.5z" />
    <glyph glyph-name="o" unicode="o" 
d="M477 467.5q62 -74.5 62 -202.5t-63 -203t-176 -75q-114 0 -176.5 73.5t-62.5 203.5q0 126 63.5 202t176.5 76q114 0 176 -74.5zM209.5 408q-30.5 -47 -30.5 -144q0 -98 30 -144.5t91 -46.5t91 47t30 145q0 97 -30 143.5t-90 46.5q-61 0 -91.5 -47z" />
    <glyph glyph-name="oacute" unicode="&#xf3;" 
d="M477 467.5q62 -74.5 62 -202.5t-63 -203t-176 -75q-114 0 -176.5 73.5t-62.5 203.5q0 126 63.5 202t176.5 76q114 0 176 -74.5zM209.5 408q-30.5 -47 -30.5 -144q0 -98 30 -144.5t91 -46.5t91 47t30 145q0 97 -30 143.5t-90 46.5q-61 0 -91.5 -47zM425 714l-215 -96
l-35 59l196 127z" />
    <glyph glyph-name="obreve" unicode="&#x14f;" 
d="M477 467.5q62 -74.5 62 -202.5t-63 -203t-176 -75q-114 0 -176.5 73.5t-62.5 203.5q0 126 63.5 202t176.5 76q114 0 176 -74.5zM209.5 408q-30.5 -47 -30.5 -144q0 -98 30 -144.5t91 -46.5t91 47t30 145q0 97 -30 143.5t-90 46.5q-61 0 -91.5 -47zM189.5 668
q-40.5 45 -47.5 106l69 13q10 -39 32 -61t56 -22t56.5 22t33.5 61l69 -13q-4 -38 -23.5 -72.5t-54.5 -56.5t-81 -22q-69 0 -109.5 45z" />
    <glyph glyph-name="ocircumflex" unicode="&#xf4;" 
d="M477 467.5q62 -74.5 62 -202.5t-63 -203t-176 -75q-114 0 -176.5 73.5t-62.5 203.5q0 126 63.5 202t176.5 76q114 0 176 -74.5zM209.5 408q-30.5 -47 -30.5 -144q0 -98 30 -144.5t91 -46.5t91 47t30 145q0 97 -30 143.5t-90 46.5q-61 0 -91.5 -47zM264 799h72l137 -126
l-45 -51l-127 92l-128 -92l-46 51z" />
    <glyph glyph-name="odieresis" unicode="&#xf6;" 
d="M477 467.5q62 -74.5 62 -202.5t-63 -203t-176 -75q-114 0 -176.5 73.5t-62.5 203.5q0 126 63.5 202t176.5 76q114 0 176 -74.5zM209.5 408q-30.5 -47 -30.5 -144q0 -98 30 -144.5t91 -46.5t91 47t30 145q0 97 -30 143.5t-90 46.5q-61 0 -91.5 -47zM145 662q-19 18 -19 46
q0 27 19 45t47 18q27 0 46 -18t19 -45t-19 -45.5t-46 -18.5q-28 0 -47 18zM362 662.5q-19 18.5 -19 45.5t19 45t46 18q28 0 46.5 -18t18.5 -45q0 -28 -18.5 -46t-46.5 -18q-27 0 -46 18.5z" />
    <glyph glyph-name="ograve" unicode="&#xf2;" 
d="M477 467.5q62 -74.5 62 -202.5t-63 -203t-176 -75q-114 0 -176.5 73.5t-62.5 203.5q0 126 63.5 202t176.5 76q114 0 176 -74.5zM209.5 408q-30.5 -47 -30.5 -144q0 -98 30 -144.5t91 -46.5t91 47t30 145q0 97 -30 143.5t-90 46.5q-61 0 -91.5 -47zM228 804l197 -127
l-35 -59l-215 97z" />
    <glyph glyph-name="ohungarumlaut" unicode="&#x151;" 
d="M477 467.5q62 -74.5 62 -202.5t-63 -203t-176 -75q-114 0 -176.5 73.5t-62.5 203.5q0 126 63.5 202t176.5 76q114 0 176 -74.5zM209.5 408q-30.5 -47 -30.5 -144q0 -98 30 -144.5t91 -46.5t91 47t30 145q0 97 -30 143.5t-90 46.5q-61 0 -91.5 -47zM344 803l-108 -171
l-65 30l86 182zM513 800l-115 -170l-64 32l93 182z" />
    <glyph glyph-name="omacron" unicode="&#x14d;" 
d="M477 467.5q62 -74.5 62 -202.5t-63 -203t-176 -75q-114 0 -176.5 73.5t-62.5 203.5q0 126 63.5 202t176.5 76q114 0 176 -74.5zM209.5 408q-30.5 -47 -30.5 -144q0 -98 30 -144.5t91 -46.5t91 47t30 145q0 97 -30 143.5t-90 46.5q-61 0 -91.5 -47zM158 751h283v-82h-283
v82z" />
    <glyph glyph-name="oslash" unicode="&#xf8;" 
d="M510 412q29 -63 29 -147q0 -128 -63 -203t-176 -75q-23 0 -43 3l-37 -123l-87 26l41 126q-55 33 -84 96t-29 149q0 126 63.5 202t176.5 76q22 0 42 -3l38 118l87 -25l-40 -123q53 -34 82 -97zM209 409q-30 -47 -30 -145q0 -62 9.5 -101t29.5 -61l109 352q-16 2 -26 2
q-62 0 -92 -47zM392 119.5q30 46.5 30 145.5q0 118 -38 160l-110 -350q16 -2 26 -2q62 0 92 46.5z" />
    <glyph glyph-name="oslashacute" unicode="&#x1ff;" 
d="M510 412q29 -63 29 -147q0 -128 -63 -203t-176 -75q-23 0 -43 3l-37 -123l-87 26l41 126q-55 33 -84 96t-29 149q0 126 63.5 202t176.5 76q22 0 42 -3l38 118l87 -25l-40 -123q53 -34 82 -97zM209 409q-30 -47 -30 -145q0 -62 9.5 -101t29.5 -61l109 352q-16 2 -26 2
q-62 0 -92 -47zM392 119.5q30 46.5 30 145.5q0 118 -38 160l-110 -350q16 -2 26 -2q62 0 92 46.5zM425 714l-215 -96l-35 59l196 127z" />
    <glyph glyph-name="otilde" unicode="&#xf5;" 
d="M477 467.5q62 -74.5 62 -202.5t-63 -203t-176 -75q-114 0 -176.5 73.5t-62.5 203.5q0 126 63.5 202t176.5 76q114 0 176 -74.5zM209.5 408q-30.5 -47 -30.5 -144q0 -98 30 -144.5t91 -46.5t91 47t30 145q0 97 -30 143.5t-90 46.5q-61 0 -91.5 -47zM314.5 652.5
q-16.5 7.5 -35.5 21.5q-12 9 -20 13.5t-17 4.5q-15 0 -26.5 -10.5t-24.5 -33.5l-64 30q18 43 48 70t71 27q24 0 39.5 -7.5t35.5 -21.5q22 -18 36 -18q16 0 27 10.5t24 33.5l64 -29q-17 -43 -47.5 -70.5t-71.5 -27.5q-22 0 -38.5 7.5z" />
    <glyph glyph-name="oe" unicode="&#x153;" 
d="M572 474.5q40 -67.5 40 -196.5q0 -27 -3 -48h-252q7 -83 31.5 -121.5t72.5 -38.5q25 0 45.5 9t45.5 28l47 -66q-32 -27 -66 -40.5t-76 -13.5q-106 0 -151 93q-19 -46 -51 -69.5t-85 -23.5q-88 0 -131.5 72.5t-43.5 204.5q0 129 43.5 203.5t131.5 74.5q56 0 88 -24.5
t50 -71.5q41 96 137 96q87 0 127 -67.5zM381.5 425.5q-19.5 -35.5 -24.5 -121.5h158q-1 82 -17 119.5t-57 37.5q-40 0 -59.5 -35.5zM119 410.5q-18 -45.5 -18 -146.5q0 -103 17.5 -147t60.5 -44q29 0 45.5 18.5t24 60t7.5 113.5q0 101 -17.5 146t-59.5 45t-60 -45.5z" />
    <glyph glyph-name="p" unicode="p" 
d="M539 265q0 -125 -53 -201.5t-151 -76.5q-83 0 -134 58v-248l-112 -13v744h98l7 -68q30 40 69 61t84 21q192 0 192 -277zM252 435q-29 -21 -51 -55v-247q40 -59 104 -59q58 0 87 46t29 144q0 101 -26 146.5t-79 45.5q-35 0 -64 -21z" />
    <glyph glyph-name="thorn" unicode="&#xfe;" 
d="M266 522.5q38 19.5 81 19.5q192 0 192 -277q0 -125 -53 -201.5t-151 -76.5q-83 0 -134 58v-248l-112 -13v956l112 13v-285q27 35 65 54.5zM252 435q-29 -21 -51 -55v-247q40 -59 104 -59q58 0 87 46t29 144q0 101 -26 146.5t-79 45.5q-35 0 -64 -21z" />
    <glyph glyph-name="q" unicode="q" 
d="M407 476l7 52h97v-744l-112 13v261q-54 -71 -144 -71q-100 0 -147 72.5t-47 204.5q0 124 54.5 201t151.5 77q88 0 140 -66zM179 264q0 -99 26.5 -144.5t79.5 -45.5q36 0 64.5 20t49.5 54v249q-40 59 -104 59q-116 0 -116 -192z" />
    <glyph glyph-name="r" unicode="r" 
d="M87 82h117v364h-117v82h216l12 -100q21 54 60.5 83.5t88.5 29.5q36 0 68 -8l-20 -110q-32 9 -61 9q-49 0 -84.5 -39t-49.5 -97v-214h143v-82h-373v82z" />
    <glyph glyph-name="racute" unicode="&#x155;" 
d="M87 82h117v364h-117v82h216l12 -100q21 54 60.5 83.5t88.5 29.5q36 0 68 -8l-20 -110q-32 9 -61 9q-49 0 -84.5 -39t-49.5 -97v-214h143v-82h-373v82zM437 714l-215 -96l-35 59l196 127z" />
    <glyph glyph-name="rcaron" unicode="&#x159;" 
d="M87 82h117v364h-117v82h216l12 -100q21 54 60.5 83.5t88.5 29.5q36 0 68 -8l-20 -110q-32 9 -61 9q-49 0 -84.5 -39t-49.5 -97v-214h143v-82h-373v82zM348 622h-72l-137 127l46 50l128 -92l127 92l45 -50z" />
    <glyph glyph-name="rcommaaccent" unicode="&#x157;" 
d="M87 82h117v364h-117v82h216l12 -100q21 54 60.5 83.5t88.5 29.5q36 0 68 -8l-20 -110q-32 9 -61 9q-49 0 -84.5 -39t-49.5 -97v-214h143v-82h-373v82zM307.5 -86.5q18.5 -17.5 18.5 -44.5t-18 -66l-50 -103h-62l29 116q-26 21 -26 53q0 26 18 44t45 18t45.5 -17.5z" />
    <glyph glyph-name="s" unicode="s" 
d="M364.5 91.5q30.5 18.5 30.5 51.5q0 23 -9 37.5t-36 27t-81 26.5q-87 22 -130.5 56.5t-43.5 99.5q0 69 57 110.5t154 41.5q119 0 201 -61l-47 -71q-35 22 -71.5 34.5t-79.5 12.5q-99 0 -99 -58q0 -20 11.5 -33t39 -24.5t83.5 -26.5q86 -23 128 -58.5t42 -105.5
q0 -81 -67 -122.5t-166 -41.5q-132 0 -217 74l60 68q70 -56 157 -56q53 0 83.5 18.5z" />
    <glyph glyph-name="sacute" unicode="&#x15b;" 
d="M364.5 91.5q30.5 18.5 30.5 51.5q0 23 -9 37.5t-36 27t-81 26.5q-87 22 -130.5 56.5t-43.5 99.5q0 69 57 110.5t154 41.5q119 0 201 -61l-47 -71q-35 22 -71.5 34.5t-79.5 12.5q-99 0 -99 -58q0 -20 11.5 -33t39 -24.5t83.5 -26.5q86 -23 128 -58.5t42 -105.5
q0 -81 -67 -122.5t-166 -41.5q-132 0 -217 74l60 68q70 -56 157 -56q53 0 83.5 18.5zM435 714l-215 -96l-35 59l196 127z" />
    <glyph glyph-name="scaron" unicode="&#x161;" 
d="M364.5 91.5q30.5 18.5 30.5 51.5q0 23 -9 37.5t-36 27t-81 26.5q-87 22 -130.5 56.5t-43.5 99.5q0 69 57 110.5t154 41.5q119 0 201 -61l-47 -71q-35 22 -71.5 34.5t-79.5 12.5q-99 0 -99 -58q0 -20 11.5 -33t39 -24.5t83.5 -26.5q86 -23 128 -58.5t42 -105.5
q0 -81 -67 -122.5t-166 -41.5q-132 0 -217 74l60 68q70 -56 157 -56q53 0 83.5 18.5zM346 622h-72l-137 127l46 50l128 -92l127 92l45 -50z" />
    <glyph glyph-name="scedilla" unicode="&#x15f;" 
d="M460.5 38q-53.5 -41 -138.5 -49v-43q48 -4 72.5 -28.5t24.5 -60.5q0 -48 -38 -76.5t-95 -28.5q-31 0 -59.5 7.5t-49.5 19.5l30 58q34 -17 66 -17q57 0 57 38q0 23 -21.5 31t-66.5 8l8 91q-111 8 -186 73l60 68q70 -56 157 -56q53 0 83.5 18.5t30.5 51.5q0 23 -9 37.5
t-36 27t-81 26.5q-87 22 -130.5 56.5t-43.5 99.5q0 69 57 110.5t154 41.5q119 0 201 -61l-47 -71q-35 22 -71.5 34.5t-79.5 12.5q-99 0 -99 -58q0 -20 11.5 -33t39 -24.5t83.5 -26.5q86 -23 128 -58.5t42 -105.5q0 -72 -53.5 -113z" />
    <glyph glyph-name="scircumflex" unicode="&#x15d;" 
d="M364.5 91.5q30.5 18.5 30.5 51.5q0 23 -9 37.5t-36 27t-81 26.5q-87 22 -130.5 56.5t-43.5 99.5q0 69 57 110.5t154 41.5q119 0 201 -61l-47 -71q-35 22 -71.5 34.5t-79.5 12.5q-99 0 -99 -58q0 -20 11.5 -33t39 -24.5t83.5 -26.5q86 -23 128 -58.5t42 -105.5
q0 -81 -67 -122.5t-166 -41.5q-132 0 -217 74l60 68q70 -56 157 -56q53 0 83.5 18.5zM274 799h72l137 -126l-45 -51l-127 92l-128 -92l-46 51z" />
    <glyph glyph-name="scommaaccent" unicode="&#x219;" 
d="M364.5 91.5q30.5 18.5 30.5 51.5q0 23 -9 37.5t-36 27t-81 26.5q-87 22 -130.5 56.5t-43.5 99.5q0 69 57 110.5t154 41.5q119 0 201 -61l-47 -71q-35 22 -71.5 34.5t-79.5 12.5q-99 0 -99 -58q0 -20 11.5 -33t39 -24.5t83.5 -26.5q86 -23 128 -58.5t42 -105.5
q0 -81 -67 -122.5t-166 -41.5q-132 0 -217 74l60 68q70 -56 157 -56q53 0 83.5 18.5zM345.5 -86.5q18.5 -17.5 18.5 -44.5t-18 -66l-50 -103h-62l29 116q-26 21 -26 53q0 26 18 44t45 18t45.5 -17.5z" />
    <glyph glyph-name="germandbls" unicode="&#xdf;" 
d="M429 711q50 -42 50 -107q0 -35 -15 -57t-45 -50q-23 -21 -33.5 -34.5t-10.5 -32.5q0 -23 17 -40t53 -41q38 -26 61.5 -47t41 -54.5t17.5 -80.5q0 -56 -25.5 -97t-69 -62t-97.5 -21q-75 0 -128 33l40 76q37 -21 76 -21q43 0 66 22.5t23 66.5q0 39 -22 64t-65 55
q-30 21 -48.5 36.5t-31 39t-12.5 54.5q0 33 14 55.5t40 48.5q23 22 34.5 39.5t11.5 40.5q0 30 -19 51t-59 21q-50 0 -74 -31t-24 -99v-539h-113v532q0 107 55.5 164t157.5 57q84 0 134 -42z" />
    <glyph glyph-name="t" unicode="t" 
d="M460.5 -2q-40.5 -11 -84.5 -11q-90 0 -139 46.5t-49 126.5v286h-117v82h117v118l113 13v-131h178l-13 -82h-165v-285q0 -43 21.5 -63t69.5 -20q52 0 98 24l40 -74q-29 -19 -69.5 -30z" />
    <glyph glyph-name="tbar" unicode="&#x167;" 
d="M460.5 -2q-40.5 -11 -84.5 -11q-90 0 -139 46.5t-49 126.5v118h-106v77h106v91h-117v82h117v118l113 13v-131h178l-13 -82h-165v-91h166v-77h-166v-117q0 -43 21.5 -63t69.5 -20q52 0 98 24l40 -74q-29 -19 -69.5 -30z" />
    <glyph glyph-name="tcaron" unicode="&#x165;" 
d="M460.5 -2q-40.5 -11 -84.5 -11q-90 0 -139 46.5t-49 126.5v286h-117v82h117v118l113 13v-131h178l-13 -82h-165v-285q0 -43 21.5 -63t69.5 -20q52 0 98 24l40 -74q-29 -19 -69.5 -30zM0.0488281 0.0488281l-0.00292969 -0.00292969l0.0136719 0.0136719
l0.00488281 0.00488281z" />
    <glyph glyph-name="tcedilla" unicode="&#x163;" 
d="M463.5 -82.5q24.5 -24.5 24.5 -60.5q0 -48 -38 -76.5t-95 -28.5q-31 0 -59.5 7.5t-49.5 19.5l30 58q34 -17 66 -17q57 0 57 38q0 23 -21.5 31t-66.5 8l8 96q-64 13 -97.5 57t-33.5 110v286h-117v82h117v118l113 13v-131h178l-13 -82h-165v-285q0 -43 21.5 -63t69.5 -20
q52 0 98 24l40 -74q-26 -17 -62.5 -28t-76.5 -13v-41q48 -4 72.5 -28.5z" />
    <glyph glyph-name="uni021B" unicode="&#x21b;" 
d="M460.5 -2q-40.5 -11 -84.5 -11q-90 0 -139 46.5t-49 126.5v286h-117v82h117v118l113 13v-131h178l-13 -82h-165v-285q0 -43 21.5 -63t69.5 -20q52 0 98 24l40 -74q-29 -19 -69.5 -30zM414.5 -86.5q18.5 -17.5 18.5 -44.5t-18 -66l-50 -103h-62l29 116q-26 21 -26 53
q0 26 18 44t45 18t45.5 -17.5z" />
    <glyph glyph-name="u" unicode="u" 
d="M219.5 92.5q18.5 -20.5 56.5 -20.5q36 0 69.5 21t53.5 53v382h112v-528h-97l-7 68q-28 -39 -73 -60t-93 -21q-76 0 -114 41t-38 117v383h112v-369q0 -46 18.5 -66.5z" />
    <glyph glyph-name="uacute" unicode="&#xfa;" 
d="M219.5 92.5q18.5 -20.5 56.5 -20.5q36 0 69.5 21t53.5 53v382h112v-528h-97l-7 68q-28 -39 -73 -60t-93 -21q-76 0 -114 41t-38 117v383h112v-369q0 -46 18.5 -66.5zM425 714l-215 -96l-35 59l196 127z" />
    <glyph glyph-name="ubreve" unicode="&#x16d;" 
d="M219.5 92.5q18.5 -20.5 56.5 -20.5q36 0 69.5 21t53.5 53v382h112v-528h-97l-7 68q-28 -39 -73 -60t-93 -21q-76 0 -114 41t-38 117v383h112v-369q0 -46 18.5 -66.5zM189.5 668q-40.5 45 -47.5 106l69 13q10 -39 32 -61t56 -22t56.5 22t33.5 61l69 -13
q-4 -38 -23.5 -72.5t-54.5 -56.5t-81 -22q-69 0 -109.5 45z" />
    <glyph glyph-name="ucircumflex" unicode="&#xfb;" 
d="M219.5 92.5q18.5 -20.5 56.5 -20.5q36 0 69.5 21t53.5 53v382h112v-528h-97l-7 68q-28 -39 -73 -60t-93 -21q-76 0 -114 41t-38 117v383h112v-369q0 -46 18.5 -66.5zM264 799h72l137 -126l-45 -51l-127 92l-128 -92l-46 51z" />
    <glyph glyph-name="udieresis" unicode="&#xfc;" 
d="M219.5 92.5q18.5 -20.5 56.5 -20.5q36 0 69.5 21t53.5 53v382h112v-528h-97l-7 68q-28 -39 -73 -60t-93 -21q-76 0 -114 41t-38 117v383h112v-369q0 -46 18.5 -66.5zM145 662q-19 18 -19 46q0 27 19 45t47 18q27 0 46 -18t19 -45t-19 -45.5t-46 -18.5q-28 0 -47 18z
M362 662.5q-19 18.5 -19 45.5t19 45t46 18q28 0 46.5 -18t18.5 -45q0 -28 -18.5 -46t-46.5 -18q-27 0 -46 18.5z" />
    <glyph glyph-name="ugrave" unicode="&#xf9;" 
d="M219.5 92.5q18.5 -20.5 56.5 -20.5q36 0 69.5 21t53.5 53v382h112v-528h-97l-7 68q-28 -39 -73 -60t-93 -21q-76 0 -114 41t-38 117v383h112v-369q0 -46 18.5 -66.5zM228 804l197 -127l-35 -59l-215 97z" />
    <glyph glyph-name="uhungarumlaut" unicode="&#x171;" 
d="M219.5 92.5q18.5 -20.5 56.5 -20.5q36 0 69.5 21t53.5 53v382h112v-528h-97l-7 68q-28 -39 -73 -60t-93 -21q-76 0 -114 41t-38 117v383h112v-369q0 -46 18.5 -66.5zM344 803l-108 -171l-65 30l86 182zM513 800l-115 -170l-64 32l93 182z" />
    <glyph glyph-name="umacron" unicode="&#x16b;" 
d="M219.5 92.5q18.5 -20.5 56.5 -20.5q36 0 69.5 21t53.5 53v382h112v-528h-97l-7 68q-28 -39 -73 -60t-93 -21q-76 0 -114 41t-38 117v383h112v-369q0 -46 18.5 -66.5zM158 751h283v-82h-283v82z" />
    <glyph glyph-name="uogonek" unicode="&#x173;" 
d="M416.5 -54.5q-25.5 -26.5 -25.5 -58.5q0 -48 56 -48q28 0 59 7l-10 -77q-30 -8 -62 -8q-59 0 -96 30t-37 78q0 46 28 80t84 60l-6 59q-28 -39 -73 -60t-93 -21q-76 0 -114 41t-38 117v383h112v-369q0 -46 18.5 -66.5t56.5 -20.5q36 0 69.5 21t53.5 53v382h112v-528
q-69 -28 -94.5 -54.5z" />
    <glyph glyph-name="uring" unicode="&#x16f;" 
d="M219.5 92.5q18.5 -20.5 56.5 -20.5q36 0 69.5 21t53.5 53v382h112v-528h-97l-7 68q-28 -39 -73 -60t-93 -21q-76 0 -114 41t-38 117v383h112v-369q0 -46 18.5 -66.5zM387.5 806.5q33.5 -32.5 33.5 -80.5t-33.5 -81t-87.5 -33t-88 33t-34 81t34 80.5t88 32.5t87.5 -32.5z
M263 765q-14 -14 -14 -39q0 -26 14 -40.5t37 -14.5t36.5 14.5t13.5 40.5q0 25 -13.5 39t-36.5 14t-37 -14z" />
    <glyph glyph-name="utilde" unicode="&#x169;" 
d="M219.5 92.5q18.5 -20.5 56.5 -20.5q36 0 69.5 21t53.5 53v382h112v-528h-97l-7 68q-28 -39 -73 -60t-93 -21q-76 0 -114 41t-38 117v383h112v-369q0 -46 18.5 -66.5zM314.5 652.5q-16.5 7.5 -35.5 21.5q-12 9 -20 13.5t-17 4.5q-15 0 -26.5 -10.5t-24.5 -33.5l-64 30
q18 43 48 70t71 27q24 0 39.5 -7.5t35.5 -21.5q22 -18 36 -18q16 0 27 10.5t24 33.5l64 -29q-17 -43 -47.5 -70.5t-71.5 -27.5q-22 0 -38.5 7.5z" />
    <glyph glyph-name="v" unicode="v" 
d="M234 0l-186 528h121l133 -435l135 435h115l-186 -528h-132z" />
    <glyph glyph-name="w" unicode="w" 
d="M304 362h-4l-61 -362h-138l-89 528h108l54 -444h4l71 377h112l64 -375h4l55 442h104l-86 -528h-140z" />
    <glyph glyph-name="wacute" unicode="&#x1e83;" 
d="M304 362h-4l-61 -362h-138l-89 528h108l54 -444h4l71 377h112l64 -375h4l55 442h104l-86 -528h-140zM425 714l-215 -96l-35 59l196 127z" />
    <glyph glyph-name="wcircumflex" unicode="&#x175;" 
d="M304 362h-4l-61 -362h-138l-89 528h108l54 -444h4l71 377h112l64 -375h4l55 442h104l-86 -528h-140zM264 799h72l137 -126l-45 -51l-127 92l-128 -92l-46 51z" />
    <glyph glyph-name="wdieresis" unicode="&#x1e85;" 
d="M304 362h-4l-61 -362h-138l-89 528h108l54 -444h4l71 377h112l64 -375h4l55 442h104l-86 -528h-140zM145 662q-19 18 -19 46q0 27 19 45t47 18q27 0 46 -18t19 -45t-19 -45.5t-46 -18.5q-28 0 -47 18zM362 662.5q-19 18.5 -19 45.5t19 45t46 18q28 0 46.5 -18t18.5 -45
q0 -28 -18.5 -46t-46.5 -18q-27 0 -46 18.5z" />
    <glyph glyph-name="wgrave" unicode="&#x1e81;" 
d="M304 362h-4l-61 -362h-138l-89 528h108l54 -444h4l71 377h112l64 -375h4l55 442h104l-86 -528h-140zM228 804l197 -127l-35 -59l-215 97z" />
    <glyph glyph-name="x" unicode="x" 
d="M232 278l-168 250h129l108 -186l108 186h123l-165 -245l190 -283h-132l-129 216l-129 -216h-124z" />
    <glyph glyph-name="y" unicode="y" 
d="M276 -153q-61 -54 -166 -63l-14 84q52 8 84 24.5t50.5 41.5t34.5 66h-38l-178 528h119l133 -450l135 450h115l-182 -530q-32 -97 -93 -151z" />
    <glyph glyph-name="yacute" unicode="&#xfd;" 
d="M276 -153q-61 -54 -166 -63l-14 84q52 8 84 24.5t50.5 41.5t34.5 66h-38l-178 528h119l133 -450l135 450h115l-182 -530q-32 -97 -93 -151zM425 714l-215 -96l-35 59l196 127z" />
    <glyph glyph-name="ycircumflex" unicode="&#x177;" 
d="M276 -153q-61 -54 -166 -63l-14 84q52 8 84 24.5t50.5 41.5t34.5 66h-38l-178 528h119l133 -450l135 450h115l-182 -530q-32 -97 -93 -151zM264 799h72l137 -126l-45 -51l-127 92l-128 -92l-46 51z" />
    <glyph glyph-name="ydieresis" unicode="&#xff;" 
d="M276 -153q-61 -54 -166 -63l-14 84q52 8 84 24.5t50.5 41.5t34.5 66h-38l-178 528h119l133 -450l135 450h115l-182 -530q-32 -97 -93 -151zM145 662q-19 18 -19 46q0 27 19 45t47 18q27 0 46 -18t19 -45t-19 -45.5t-46 -18.5q-28 0 -47 18zM362 662.5q-19 18.5 -19 45.5
t19 45t46 18q28 0 46.5 -18t18.5 -45q0 -28 -18.5 -46t-46.5 -18q-27 0 -46 18.5z" />
    <glyph glyph-name="ygrave" unicode="&#x1ef3;" 
d="M276 -153q-61 -54 -166 -63l-14 84q52 8 84 24.5t50.5 41.5t34.5 66h-38l-178 528h119l133 -450l135 450h115l-182 -530q-32 -97 -93 -151zM228 804l197 -127l-35 -59l-215 97z" />
    <glyph glyph-name="z" unicode="z" 
d="M496 0h-405v82l281 356h-259v90h392v-82l-279 -356h282z" />
    <glyph glyph-name="zacute" unicode="&#x17a;" 
d="M496 0h-405v82l281 356h-259v90h392v-82l-279 -356h282zM434 714l-215 -96l-35 59l196 127z" />
    <glyph glyph-name="zcaron" unicode="&#x17e;" 
d="M496 0h-405v82l281 356h-259v90h392v-82l-279 -356h282zM345 622h-72l-137 127l46 50l128 -92l127 92l45 -50z" />
    <glyph glyph-name="zdotaccent" unicode="&#x17c;" 
d="M496 0h-405v82l281 356h-259v90h392v-82l-279 -356h282zM361.5 767q20.5 -20 20.5 -50q0 -31 -20.5 -51.5t-53.5 -20.5q-32 0 -52.5 20.5t-20.5 51.5q0 30 20.5 50t52.5 20q33 0 53.5 -20z" />
    <glyph glyph-name="cacute.loclPLK" 
d="M474 127l52 -75q-36 -30 -85 -47.5t-101 -17.5q-121 0 -189 74.5t-68 199.5q0 81 31 144.5t89.5 100t138.5 36.5q105 0 183 -63l-52 -73q-63 46 -129 46t-104 -47.5t-38 -143.5q0 -94 38.5 -138t103.5 -44t130 48zM339 568l-54 35l103 179l87 -57z" />
    <glyph glyph-name="nacute.loclPLK" 
d="M186 528l8 -68q33 39 78 60.5t93 21.5q73 0 110 -40.5t37 -116.5v-385h-112v330q0 48 -6 74.5t-22 39t-47 12.5q-36 0 -67.5 -22t-56.5 -56v-378h-112v528h97zM295 574l-54 35l103 179l87 -57z" />
    <glyph glyph-name="oacute.loclPLK" 
d="M477 467.5q62 -74.5 62 -202.5t-63 -203t-176 -75q-114 0 -176.5 73.5t-62.5 203.5q0 126 63.5 202t176.5 76q114 0 176 -74.5zM209.5 408q-30.5 -47 -30.5 -144q0 -98 30 -144.5t91 -46.5t91 47t30 145q0 97 -30 143.5t-90 46.5q-61 0 -91.5 -47zM295 578l-54 35
l103 179l87 -57z" />
    <glyph glyph-name="sacute.loclPLK" 
d="M364.5 91.5q30.5 18.5 30.5 51.5q0 23 -9 37.5t-36 27t-81 26.5q-87 22 -130.5 56.5t-43.5 99.5q0 69 57 110.5t154 41.5q119 0 201 -61l-47 -71q-35 22 -71.5 34.5t-79.5 12.5q-99 0 -99 -58q0 -20 11.5 -33t39 -24.5t83.5 -26.5q86 -23 128 -58.5t42 -105.5
q0 -81 -67 -122.5t-166 -41.5q-132 0 -217 74l60 68q70 -56 157 -56q53 0 83.5 18.5zM304 578l-54 35l103 179l87 -57z" />
    <glyph glyph-name="zacute.loclPLK" 
d="M496 0h-405v82l281 356h-259v90h392v-82l-279 -356h282zM304 578l-54 35l103 179l87 -57z" />
    <glyph glyph-name="fi" unicode="&#xfb01;" 
d="M314 82h81v363h-183v-445h-110v445h-86v83h86v57q0 75 55.5 121.5t146.5 46.5q88 0 158 -31l-33 -78q-51 22 -114 22q-53 0 -78 -20t-25 -63v-55h294v-446h83v-82h-275v82z" />
    <glyph glyph-name="fl" unicode="&#xfb02;" 
d="M509 -13q-63 0 -99 35t-36 105v531q-31 8 -70 8q-51 0 -75 -20t-24 -63v-55h110l-13 -83h-97v-445h-111v445h-83v83h83v57q0 49 25.5 87.5t71.5 59.5t105 21q50 0 101 -18l87 16v-617q0 -31 12 -43.5t34 -12.5t47 10l27 -81q-43 -20 -95 -20z" />
    <glyph glyph-name="ordfeminine" unicode="&#xaa;" 
d="M466 608v-185q0 -21 8 -32.5t24 -16.5l-23 -67q-36 4 -58.5 17.5t-35.5 40.5q-25 -28 -60 -43.5t-74 -15.5q-68 0 -110 37t-42 98q0 67 57 104t160 37h56v23q0 38 -22.5 54t-69.5 16q-22 0 -54 -6t-66 -17l-27 70q85 31 161 31q176 0 176 -145zM230.5 497.5
q-28.5 -17.5 -28.5 -52.5q0 -33 18.5 -50t53.5 -17q27 0 51.5 14.5t42.5 38.5v84h-47q-62 0 -90.5 -17.5zM104 0v88h400v-88h-400z" />
    <glyph glyph-name="ordmasculine" unicode="&#xba;" 
d="M453.5 692q56.5 -61 56.5 -162q0 -66 -25.5 -116.5t-73.5 -79t-111 -28.5q-97 0 -154 61t-57 163q0 65 26 115.5t74 79t111 28.5q97 0 153.5 -61zM222 639.5q-28 -35.5 -28 -109.5t28 -110t78 -36t77.5 36t27.5 110t-27.5 109.5t-77.5 35.5t-78 -35.5zM100 0v88h401v-88
h-401z" />
    <glyph glyph-name="nsuperior" unicode="&#x207f;" 
d="M414 696.5q25 -26.5 25 -76.5v-242h-88v208q0 40 -7 54.5t-30 14.5q-17 0 -34 -11.5t-31 -30.5v-235h-87v337h78l4 -28q20 17 45 26.5t50 9.5q50 0 75 -26.5z" />
    <glyph glyph-name="uni0410" unicode="&#x410;" 
d="M127 0h-119l220 690h144l220 -690h-123l-48 166h-246zM298 600l-99 -344h198z" />
    <glyph glyph-name="uni0411" unicode="&#x411;" 
d="M200 598v-169h81q130 0 200.5 -51.5t70.5 -157.5q0 -112 -72 -166t-195 -54h-201v690h404l-11 -92h-277zM200 90h85q72 0 109.5 28.5t37.5 100.5q0 123 -148 123h-84v-252z" />
    <glyph glyph-name="uni0412" unicode="&#x412;" 
d="M476 46q-76 -46 -193 -46h-202v690h189q110 0 181 -40.5t71 -134.5q0 -61 -36.5 -99t-91.5 -50q68 -12 113 -50.5t45 -116.5q0 -107 -76 -153zM372.5 579.5q-31.5 23.5 -92.5 23.5h-83v-199h90q59 0 88 24.5t29 77.5q0 50 -31.5 73.5zM394 290.5q-36 26.5 -99 26.5h-98
v-227h94q139 0 139 110q0 64 -36 90.5z" />
    <glyph glyph-name="uni0413" unicode="&#x413;" 
d="M235 594v-594h-117v690h432l-12 -96h-303z" />
    <glyph glyph-name="uni0403" unicode="&#x403;" 
d="M235 594v-594h-117v690h432l-12 -96h-303zM246 754l-28 58l205 112l46 -90z" />
    <glyph glyph-name="uni0490" unicode="&#x490;" 
d="M550 690l-12 -96h-303v-594h-117v690h322v150h110v-150z" />
    <glyph glyph-name="uni0414" unicode="&#x414;" 
d="M569 -158h-90l-17 158h-359l-16 -158h-91v250h41q26 26 41 65t26.5 110t28.5 218l24 205h361v-598h51v-250zM257 601l-12 -115q-15 -140 -27 -211.5t-30 -113.5t-49 -69h267v509h-149z" />
    <glyph glyph-name="uni0415" unicode="&#x415;" 
d="M479 395v-88h-250v-219h305v-88h-421v690h415l-13 -88h-286v-207h250z" />
    <glyph glyph-name="uni0400" unicode="&#x400;" 
d="M479 395v-88h-250v-219h305v-88h-421v690h415l-13 -88h-286v-207h250zM414 754l-217 82l51 90l197 -114z" />
    <glyph glyph-name="uni0401" unicode="&#x401;" 
d="M479 395v-88h-250v-219h305v-88h-421v690h415l-13 -88h-286v-207h250zM165.5 784q-18.5 18 -18.5 45q0 28 18.5 46t46.5 18t46.5 -18t18.5 -46q0 -27 -18.5 -45t-46.5 -18t-46.5 18zM382 784q-19 18 -19 45t19 45.5t46 18.5q28 0 47 -18t19 -46q0 -27 -19 -45t-47 -18
q-27 0 -46 18z" />
    <glyph glyph-name="uni0416" unicode="&#x416;" 
d="M114 0h-106l117 370l-104 320h103l85 -291h48v291h86v-291h48l86 291h102l-104 -320l117 -370h-108l-93 324h-48v-324h-86v324h-49z" />
    <glyph glyph-name="uni0417" unicode="&#x417;" 
d="M411.5 681q55.5 -23 85.5 -64t30 -94q0 -62 -40.5 -100.5t-108.5 -49.5q75 -7 123 -51.5t48 -119.5q0 -63 -33 -111.5t-94.5 -76t-145.5 -27.5q-79 0 -144 25t-108 73l69 62q33 -34 80 -52t101 -18q73 0 114 33.5t41 92.5q0 61 -40.5 90.5t-110.5 29.5h-119l14 90h101
q59 0 97.5 26t38.5 77q0 47 -37.5 73t-98.5 26q-101 0 -173 -63l-62 65q99 87 244 87q73 0 128.5 -23z" />
    <glyph glyph-name="uni0418" unicode="&#x418;" 
d="M182 690v-305q0 -85 -4 -141.5t-12 -123.5h4l221 570h138v-690h-111v303q0 139 16 265h-4l-218 -568h-141v690h111z" />
    <glyph glyph-name="uni0419" unicode="&#x419;" 
d="M182 690v-305q0 -85 -4 -141.5t-12 -123.5h4l221 570h138v-690h-111v303q0 139 16 265h-4l-218 -568h-141v690h111zM190.5 795q-42.5 36 -48.5 93l69 14q17 -61 88 -61t90 61l69 -14q-6 -57 -49.5 -93t-109.5 -36t-108.5 36z" />
    <glyph glyph-name="uni040D" unicode="&#x40d;" 
d="M182 690v-305q0 -85 -4 -141.5t-12 -123.5h4l221 570h138v-690h-111v303q0 139 16 265h-4l-218 -568h-141v690h111zM393 754l-217 82l51 90l197 -114z" />
    <glyph glyph-name="uni041A" unicode="&#x41a;" 
d="M195 0h-117v690h117v-283h73l189 283h119l-211 -320l230 -370h-133l-194 316h-73v-316z" />
    <glyph glyph-name="uni040C" unicode="&#x40c;" 
d="M195 0h-117v690h117v-283h73l189 283h119l-211 -320l230 -370h-133l-194 316h-73v-316zM225 754l-28 58l205 112l46 -90z" />
    <glyph glyph-name="uni041B" unicode="&#x41b;" 
d="M412 0v596h-156l-19 -168q-18 -161 -39.5 -244t-53.5 -123t-91 -75l-49 81q32 25 51 54t36 97.5t32 200.5l32 271h374v-690h-117z" />
    <glyph glyph-name="uni041C" unicode="&#x41c;" 
d="M468 0l-16 336q-3 66 -3 125q0 76 3 109h-4l-98 -448h-101l-104 448h-4q4 -48 4 -124q0 -35 -2 -111l-13 -335h-105l39 690h140l98 -462l94 462h140l39 -690h-107z" />
    <glyph glyph-name="uni041D" unicode="&#x41d;" 
d="M188 313v-313h-117v690h117v-280h224v280h117v-690h-117v313h-224z" />
    <glyph glyph-name="uni041E" unicode="&#x41e;" 
d="M495 84q-68 -97 -195 -97t-195 95.5t-68 261.5q0 108 30 189t89 126t144 45q127 0 195 -96.5t68 -262.5q0 -164 -68 -261zM408.5 547q-33.5 66 -108.5 66t-108.5 -66t-33.5 -203q0 -135 34.5 -201t107.5 -66q75 0 108.5 66t33.5 202t-33.5 202z" />
    <glyph glyph-name="uni041F" unicode="&#x41f;" 
d="M188 595v-595h-117v690h458v-690h-117v595h-224z" />
    <glyph glyph-name="uni0420" unicode="&#x420;" 
d="M492 301.5q-72 -55.5 -197 -55.5h-83v-246h-117v690h192q133 0 205 -54.5t72 -162.5q0 -116 -72 -171.5zM295 603h-83v-268h84q70 0 108 32t38 106q0 130 -147 130z" />
    <glyph glyph-name="uni0421" unicode="&#x421;" 
d="M474 687q48 -17 92 -53l-60 -72q-63 51 -143 51q-84 0 -137 -64.5t-53 -202.5q0 -136 52 -200.5t139 -64.5q49 0 85 15.5t71 43.5l56 -71q-84 -82 -216 -82q-89 0 -159 41.5t-109.5 122.5t-39.5 195q0 112 40.5 193t110 123t155.5 42q68 0 116 -17z" />
    <glyph glyph-name="uni0422" unicode="&#x422;" 
d="M241 0v596h-208v94h536l-12 -94h-200v-596h-116z" />
    <glyph glyph-name="uni0423" unicode="&#x423;" 
d="M331 85.5q-33 -42.5 -84 -66.5t-131 -32l-17 85q58 7 92 21t54 36t35 58h-43l-223 503h121l177 -432l161 432h118l-198 -489q-29 -73 -62 -115.5z" />
    <glyph glyph-name="uni040E" unicode="&#x40e;" 
d="M331 85.5q-33 -42.5 -84 -66.5t-131 -32l-17 85q58 7 92 21t54 36t35 58h-43l-223 503h121l177 -432l161 432h118l-198 -489q-29 -73 -62 -115.5zM200 792.5q-42 36.5 -49 96.5l70 13q21 -64 87 -64q35 0 57.5 16.5t32.5 47.5l69 -13q-6 -59 -49 -96t-110 -37
q-66 0 -108 36.5z" />
    <glyph glyph-name="uni0424" unicode="&#x424;" 
d="M530.5 572.5q59.5 -76.5 59.5 -224.5q0 -149 -61.5 -228.5t-180.5 -85.5v-67h-96v67q-120 6 -181 85t-61 229q0 148 59.5 224.5t182.5 85.5v64h96v-64q123 -9 182.5 -85.5zM154.5 526.5q-31.5 -53.5 -31.5 -178.5q0 -122 30.5 -177.5t103.5 -62.5v477
q-71 -5 -102.5 -58.5zM446.5 170.5q30.5 55.5 30.5 177.5q0 124 -31 178t-102 59v-477q72 7 102.5 62.5z" />
    <glyph glyph-name="uni0425" unicode="&#x425;" 
d="M300 442l135 248h124l-191 -317l212 -373h-130l-152 293l-153 -293h-125l209 367l-191 323h129z" />
    <glyph glyph-name="uni0427" unicode="&#x427;" 
d="M529 0h-117v267q-39 -29 -77 -42.5t-88 -13.5q-95 0 -150.5 57.5t-55.5 158.5v263h116v-257q0 -66 30 -97t91 -31q81 0 134 51v334h117v-690z" />
    <glyph glyph-name="uni0426" unicode="&#x426;" 
d="M585 -158h-91l-16 158h-407v690h117v-597h224v597h117v-598h56v-250z" />
    <glyph glyph-name="uni0428" unicode="&#x428;" 
d="M42 0v690h100v-602h112v602h92v-602h112v602h100v-690h-516z" />
    <glyph glyph-name="uni0429" unicode="&#x429;" 
d="M615 -158h-91l-16 158h-466v690h100v-602h112v602h92v-602h112v602h100v-598h57v-250z" />
    <glyph glyph-name="uni040F" unicode="&#x40f;" 
d="M353 0v-158h-91l-16 158h-175v690h117v-597h224v597h117v-690h-176z" />
    <glyph glyph-name="uni042F" unicode="&#x42f;" 
d="M412 0v267h-127l-136 -267h-128l159 291q-120 55 -120 189q0 102 69 156t201 54h199v-690h-117zM218 573.5q-35 -30.5 -35 -94.5q0 -126 132 -126h97v251h-87q-72 0 -107 -30.5z" />
    <glyph glyph-name="uni042C" unicode="&#x42c;" 
d="M286 443q132 0 203.5 -53t71.5 -163q0 -115 -72.5 -171t-198.5 -56h-211v690h117v-247h90zM196 90h97q70 0 108 30.5t38 105.5q0 130 -148 130h-95v-266z" />
    <glyph glyph-name="uni042A" unicode="&#x42a;" 
d="M308 443q132 0 204 -53t72 -163q0 -116 -73 -171.5t-198 -55.5h-203v597h-111v93h224v-247h85zM223 89h88q74 0 113 30t39 107q0 131 -148 131h-92v-268z" />
    <glyph glyph-name="uni042B" unicode="&#x42b;" 
d="M175 444q124 0 187.5 -55t63.5 -162q0 -114 -65 -170.5t-184 -56.5h-150v690h106v-246h42zM467 0v690h106v-690h-106zM133 86h50q66 0 99.5 32.5t33.5 107.5q0 135 -130 135h-53v-275z" />
    <glyph glyph-name="uni0409" unicode="&#x409;" 
d="M539.5 390q60.5 -53 60.5 -163q0 -116 -61.5 -171.5t-174.5 -55.5h-106v606h-80l-19 -298q-8 -117 -21.5 -178t-33.5 -89t-59 -55l-50 71q17 17 28 41t20 75t15 143l27 374h273v-247q121 0 181.5 -53zM358 84h15q61 0 90.5 32.5t29.5 109.5q0 71 -29.5 103.5t-91.5 32.5
h-14v-278z" />
    <glyph glyph-name="uni040A" unicode="&#x40a;" 
d="M539.5 371.5q60.5 -49.5 60.5 -153.5q0 -113 -61 -165.5t-177 -52.5h-104v339h-120v-339h-102v690h102v-268h120v268h102v-268q119 -1 179.5 -50.5zM360 85h12q64 1 93 29t29 103q0 67 -29.5 94.5t-92.5 27.5h-12v-254z" />
    <glyph glyph-name="uni0405" unicode="&#x405;" 
d="M517.5 86q-31.5 -47 -91 -73t-141.5 -26q-159 0 -254 92l64 71q78 -72 190 -72q62 0 102.5 29t40.5 82q0 31 -12.5 52t-43 37.5t-86.5 33.5q-114 34 -168 81t-54 124q0 55 30.5 97.5t84.5 66t122 23.5q140 0 231 -83l-61 -69q-35 31 -77 46t-86 15q-55 0 -90 -23t-35 -66
q0 -27 14.5 -45.5t49 -34.5t98.5 -35q100 -30 152 -77t52 -137q0 -62 -31.5 -109z" />
    <glyph glyph-name="uni0404" unicode="&#x404;" 
d="M470.5 686.5q49.5 -17.5 92.5 -53.5l-61 -69q-61 51 -140 51t-131.5 -52.5t-61.5 -162.5h286v-92h-287q6 -116 58 -172.5t134 -56.5q51 0 87.5 15.5t68.5 42.5l57 -70q-88 -80 -219 -80q-90 0 -159.5 41.5t-108 122.5t-38.5 195q0 112 40.5 193t110 123t155.5 42
q67 0 116.5 -17.5z" />
    <glyph glyph-name="uni042D" unicode="&#x42d;" 
d="M473 614.5q74 -89.5 74 -262.5q0 -178 -78.5 -271.5t-214.5 -93.5q-67 0 -124 23t-99 65l62 65q36 -31 73 -46t84 -15q83 0 128 56t50 174h-285v90h285q-6 114 -48.5 165t-121.5 51q-50 0 -87 -16.5t-73 -45.5l-59 65q47 41 102 63.5t125 22.5q133 0 207 -89.5z" />
    <glyph glyph-name="uni0406" unicode="&#x406;" 
d="M359 601v-512h149v-89h-416v89h149v512h-149v89h416v-89h-149z" />
    <glyph glyph-name="uni0407" unicode="&#x407;" 
d="M359 601v-512h149v-89h-416v89h149v512h-149v89h416v-89h-149zM144.5 784q-18.5 18 -18.5 45q0 28 18.5 46t46.5 18t46.5 -18t18.5 -46q0 -27 -18.5 -45t-46.5 -18t-46.5 18zM361 784q-19 18 -19 45t19 45.5t46 18.5q28 0 47 -18t19 -46q0 -27 -19 -45t-47 -18
q-27 0 -46 18z" />
    <glyph glyph-name="uni0408" unicode="&#x408;" 
d="M445.5 57.5q-62.5 -70.5 -189.5 -70.5q-109 0 -196 64l47 74q39 -26 73.5 -36t71.5 -10q65 0 102.5 42t37.5 118v362h-207v89h323v-453q0 -109 -62.5 -179.5z" />
    <glyph glyph-name="uni040B" unicode="&#x40b;" 
d="M259 601v-197q59 54 135 54q89 0 133.5 -53t44.5 -157v-248h-112v250q0 62 -21.5 89t-72.5 27q-35 0 -60 -12.5t-47 -32.5v-321h-112v601h-153v89h430l-13 -89h-152z" />
    <glyph glyph-name="uni042E" unicode="&#x42e;" 
d="M503.5 664q42.5 -40 60.5 -118t18 -201q0 -180 -45 -269t-147 -89q-101 0 -144.5 83t-46.5 244h-59v-314h-99v690h99v-289h60q6 151 51 227t139 76q71 0 113.5 -40zM340 594q-18 -25 -26 -83.5t-8 -164.5t8 -165t26 -84t50 -25q31 0 50 25t27.5 84.5t8.5 163.5
q0 105 -8.5 164.5t-27.5 84.5t-50 25q-32 0 -50 -25z" />
    <glyph glyph-name="uni0402" unicode="&#x402;" 
d="M394 458q89 0 133.5 -53t44.5 -157v-151q0 -105 -47 -160t-140 -86l-29 86q43 18 65 38t30.5 48.5t8.5 74.5v152q0 62 -21.5 89t-72.5 27q-35 0 -60 -12.5t-47 -32.5v-321h-112v601h-153v89h430l-13 -89h-152v-197q63 54 135 54z" />
    <glyph glyph-name="uni0462" unicode="&#x462;" 
d="M318 429q129 0 198.5 -51.5t69.5 -157.5q0 -113 -71.5 -166.5t-197.5 -53.5h-167v601h-153v89h429l-12 -89h-152v-172h56zM324 87q71 0 108.5 29.5t37.5 102.5q0 65 -38.5 96t-108.5 31h-61v-259h62z" />
    <glyph glyph-name="uni0472" unicode="&#x472;" 
d="M495 84q-68 -97 -195 -97t-195 95.5t-68 261.5q0 108 30 189t89 126t144 45q127 0 195 -96.5t68 -262.5q0 -164 -68 -261zM197 558.5q-34 -54.5 -40 -167.5h285q-5 113 -39 167.5t-103 54.5t-103 -54.5zM406 135q34 58 37 177h-287q3 -118 38 -176.5t106 -58.5
q72 0 106 58z" />
    <glyph glyph-name="uni0474" unicode="&#x474;" 
d="M561.5 621q-13.5 -30 -30.5 -85l-163 -536h-135l-218 690h124l163 -584l123 456q15 55 26.5 83.5t28.5 56.5l114 -21q-19 -30 -32.5 -60z" />
    <glyph glyph-name="uni0492" unicode="&#x492;" 
d="M263 433h152v-79h-152v-354h-116v354h-92v79h92v257h431l-11 -96h-304v-161z" />
    <glyph glyph-name="uni0496" unicode="&#x496;" 
d="M484 0l-93 324h-48v-324h-86v324h-49l-94 -324h-106l117 370l-104 320h103l85 -291h48v291h86v-291h48l86 291h102l-104 -320l117 -370h-108z" />
    <glyph glyph-name="uni0498" unicode="&#x498;" 
d="M486.5 56.5q-62.5 -58.5 -171.5 -67.5v-43q48 -4 72.5 -28.5t24.5 -60.5q0 -48 -38 -76.5t-95 -28.5q-31 0 -59.5 7.5t-49.5 19.5l30 58q34 -17 66 -17q57 0 57 38q0 23 -21.5 31t-66.5 8l8 91q-69 5 -124.5 29.5t-94.5 67.5l69 62q33 -34 80 -52t101 -18q73 0 114 33.5
t41 92.5q0 61 -40.5 90.5t-110.5 29.5h-119l14 90h101q59 0 97.5 26t38.5 77q0 47 -37.5 73t-98.5 26q-101 0 -173 -63l-62 65q99 87 244 87q73 0 128.5 -23t85.5 -64t30 -94q0 -62 -40.5 -100.5t-108.5 -49.5q75 -7 123 -51.5t48 -119.5q0 -87 -62.5 -145.5z" />
    <glyph glyph-name="uni049A" unicode="&#x49a;" 
d="M595 -158h-91l-16 158h-26l-194 316h-73v-316h-117v690h117v-283h73l189 283h119l-211 -320l173 -278h57v-250z" />
    <glyph glyph-name="uni049C" unicode="&#x49c;" 
d="M188 320v-320h-110v690h110v-286h43v167h54v-167h23l150 286h117l-179 -320l198 -370h-126l-159 320h-24v-171h-54v171h-43z" />
    <glyph glyph-name="uni04A0" unicode="&#x4a0;" 
d="M230 0h-112v597h-111v93h223v-284h65l170 284h118l-193 -320l212 -370h-132l-175 317h-65v-317z" />
    <glyph glyph-name="uni04A2" unicode="&#x4a2;" 
d="M582 -158h-91l-16 158h-63v313h-224v-313h-117v690h117v-280h224v280h117v-598h53v-250z" />
    <glyph glyph-name="uni0524" unicode="&#x524;" 
d="M585 -158h-91l-16 158h-66v595h-224v-595h-117v690h458v-598h56v-250z" />
    <glyph glyph-name="uni04AA" unicode="&#x4aa;" 
d="M474 -131q0 -53 -36.5 -84t-99.5 -31q-55 0 -100 25l26 61q34 -16 67 -16q28 0 42 14t14 39q0 30 -18 59t-56 54q-77 11 -136 55.5t-92 121t-33 179.5q0 112 40.5 193t110 123t155.5 42q68 0 116 -17t92 -53l-60 -72q-63 51 -143 51q-84 0 -137 -64.5t-53 -202.5
q0 -136 52 -200.5t139 -64.5q49 0 85 15.5t71 43.5l56 -71q-71 -69 -178 -80q76 -48 76 -120z" />
    <glyph glyph-name="uni04AC" unicode="&#x4ac;" 
d="M357 92h56v-250h-91l-16 158h-65v596h-208v94h536l-12 -94h-200v-504z" />
    <glyph glyph-name="uni04AE" unicode="&#x4ae;" 
d="M241 0v263l-230 427h128l163 -327l165 327h122l-230 -426v-264h-118z" />
    <glyph glyph-name="uni04B0" unicode="&#x4b0;" 
d="M482 309v-77h-123v-232h-118v232h-123v77h98l-205 381h128l163 -327l165 327h122l-206 -381h99z" />
    <glyph glyph-name="uni04B2" unicode="&#x4b2;" 
d="M583 -158h-91l-16 158h-26l-152 293l-153 -293h-125l209 367l-191 323h129l133 -248l135 248h124l-191 -317l160 -281h55v-250z" />
    <glyph glyph-name="uni04B6" unicode="&#x4b6;" 
d="M585 -158h-91l-16 158h-66v267q-39 -29 -77 -42.5t-88 -13.5q-95 0 -150.5 57.5t-55.5 158.5v263h116v-257q0 -66 30 -97t91 -31q81 0 134 51v334h117v-598h56v-250z" />
    <glyph glyph-name="uni04B8" unicode="&#x4b8;" 
d="M529 0h-117v267q-44 -34 -91 -47v-98h-61v89h-13q-95 0 -150.5 57.5t-55.5 158.5v263h116v-257q0 -61 25.5 -92t77.5 -35v239h61v-236q53 11 91 47v334h117v-690z" />
    <glyph glyph-name="uni04BA" unicode="&#x4ba;" 
d="M505 399.5q54 -58.5 54 -165.5v-234h-117v233q0 67 -29 99t-91 32q-80 0 -134 -62v-302h-117v690h117v-295q65 63 164 63t153 -58.5z" />
    <glyph glyph-name="uni0526" unicode="&#x526;" 
d="M602 -158h-91l-16 158h-64v233q0 66 -28.5 98.5t-86.5 32.5q-74 0 -128 -62v-302h-117v690h117v-295q65 63 157 63q96 0 149 -59t53 -165v-142h55v-250z" />
    <glyph glyph-name="uni04C0" unicode="&#x4c0;" 
d="M359 601v-512h149v-89h-416v89h149v512h-149v89h416v-89h-149z" />
    <glyph glyph-name="uni04C1" unicode="&#x4c1;" 
d="M114 0h-106l117 370l-104 320h103l85 -291h48v291h86v-291h48l86 291h102l-104 -320l117 -370h-108l-93 324h-48v-324h-86v324h-49zM190.5 795q-42.5 36 -48.5 93l69 14q17 -61 88 -61t90 61l69 -14q-6 -57 -49.5 -93t-109.5 -36t-108.5 36z" />
    <glyph glyph-name="uni04CB" unicode="&#x4cb;" 
d="M529 0h-80l-16 -158h-91v250h70v175q-39 -29 -77 -42.5t-88 -13.5q-95 0 -150.5 57.5t-55.5 158.5v263h116v-257q0 -66 30 -97t91 -31q81 0 134 51v334h117v-690z" />
    <glyph glyph-name="uni04D0" unicode="&#x4d0;" 
d="M127 0h-119l220 690h144l220 -690h-123l-48 166h-246zM298 600l-99 -344h198zM190.5 795q-42.5 36 -48.5 93l69 14q17 -61 88 -61t90 61l69 -14q-6 -57 -49.5 -93t-109.5 -36t-108.5 36z" />
    <glyph glyph-name="uni04D2" unicode="&#x4d2;" 
d="M127 0h-119l220 690h144l220 -690h-123l-48 166h-246zM298 600l-99 -344h198zM145.5 784q-18.5 18 -18.5 45q0 28 18.5 46t46.5 18t46.5 -18t18.5 -46q0 -27 -18.5 -45t-46.5 -18t-46.5 18zM362 784q-19 18 -19 45t19 45.5t46 18.5q28 0 47 -18t19 -46q0 -27 -19 -45
t-47 -18q-27 0 -46 18z" />
    <glyph glyph-name="uni04D6" unicode="&#x4d6;" 
d="M479 395v-88h-250v-219h305v-88h-421v690h415l-13 -88h-286v-207h250zM211.5 795q-42.5 36 -48.5 93l69 14q17 -61 88 -61t90 61l69 -14q-6 -57 -49.5 -93t-109.5 -36t-108.5 36z" />
    <glyph glyph-name="uni04D8" unicode="&#x4d8;" 
d="M39 389h405q-4 119 -44.5 173t-114.5 54q-46 0 -80 -15.5t-69 -44.5l-59 67q46 39 98 60t118 21q131 0 199.5 -89t68.5 -263q0 -115 -31.5 -197t-91 -125t-141.5 -43q-126 0 -194 89.5t-68 257.5q0 31 4 55zM401 130.5q37 55.5 43 172.5h-297q4 -121 41 -174.5t109 -53.5
q67 0 104 55.5z" />
    <glyph glyph-name="uni04DA" unicode="&#x4da;" 
d="M39 389h405q-4 119 -44.5 173t-114.5 54q-46 0 -80 -15.5t-69 -44.5l-59 67q46 39 98 60t118 21q131 0 199.5 -89t68.5 -263q0 -115 -31.5 -197t-91 -125t-141.5 -43q-126 0 -194 89.5t-68 257.5q0 31 4 55zM401 130.5q37 55.5 43 172.5h-297q4 -121 41 -174.5t109 -53.5
q67 0 104 55.5zM137.5 784q-18.5 18 -18.5 45q0 28 18.5 46t46.5 18t46.5 -18t18.5 -46q0 -27 -18.5 -45t-46.5 -18t-46.5 18zM354 784q-19 18 -19 45t19 45.5t46 18.5q28 0 47 -18t19 -46q0 -27 -19 -45t-47 -18q-27 0 -46 18z" />
    <glyph glyph-name="uni04DC" unicode="&#x4dc;" 
d="M114 0h-106l117 370l-104 320h103l85 -291h48v291h86v-291h48l86 291h102l-104 -320l117 -370h-108l-93 324h-48v-324h-86v324h-49zM144.5 784q-18.5 18 -18.5 45q0 28 18.5 46t46.5 18t46.5 -18t18.5 -46q0 -27 -18.5 -45t-46.5 -18t-46.5 18zM361 784q-19 18 -19 45
t19 45.5t46 18.5q28 0 47 -18t19 -46q0 -27 -19 -45t-47 -18q-27 0 -46 18z" />
    <glyph glyph-name="uni04DE" unicode="&#x4de;" 
d="M411.5 681q55.5 -23 85.5 -64t30 -94q0 -62 -40.5 -100.5t-108.5 -49.5q75 -7 123 -51.5t48 -119.5q0 -63 -33 -111.5t-94.5 -76t-145.5 -27.5q-79 0 -144 25t-108 73l69 62q33 -34 80 -52t101 -18q73 0 114 33.5t41 92.5q0 61 -40.5 90.5t-110.5 29.5h-119l14 90h101
q59 0 97.5 26t38.5 77q0 47 -37.5 73t-98.5 26q-101 0 -173 -63l-62 65q99 87 244 87q73 0 128.5 -23zM139.5 784q-18.5 18 -18.5 45q0 28 18.5 46t46.5 18t46.5 -18t18.5 -46q0 -27 -18.5 -45t-46.5 -18t-46.5 18zM356 784q-19 18 -19 45t19 45.5t46 18.5q28 0 47 -18
t19 -46q0 -27 -19 -45t-47 -18q-27 0 -46 18z" />
    <glyph glyph-name="uni04E2" unicode="&#x4e2;" 
d="M182 690v-305q0 -85 -4 -141.5t-12 -123.5h4l221 570h138v-690h-111v303q0 139 16 265h-4l-218 -568h-141v690h111zM158 872h283v-82h-283v82z" />
    <glyph glyph-name="uni04E4" unicode="&#x4e4;" 
d="M182 690v-305q0 -85 -4 -141.5t-12 -123.5h4l221 570h138v-690h-111v303q0 139 16 265h-4l-218 -568h-141v690h111zM144.5 784q-18.5 18 -18.5 45q0 28 18.5 46t46.5 18t46.5 -18t18.5 -46q0 -27 -18.5 -45t-46.5 -18t-46.5 18zM361 784q-19 18 -19 45t19 45.5t46 18.5
q28 0 47 -18t19 -46q0 -27 -19 -45t-47 -18q-27 0 -46 18z" />
    <glyph glyph-name="uni04E6" unicode="&#x4e6;" 
d="M495 84q-68 -97 -195 -97t-195 95.5t-68 261.5q0 108 30 189t89 126t144 45q127 0 195 -96.5t68 -262.5q0 -164 -68 -261zM408.5 547q-33.5 66 -108.5 66t-108.5 -66t-33.5 -203q0 -135 34.5 -201t107.5 -66q75 0 108.5 66t33.5 202t-33.5 202zM144.5 784
q-18.5 18 -18.5 45q0 28 18.5 46t46.5 18t46.5 -18t18.5 -46q0 -27 -18.5 -45t-46.5 -18t-46.5 18zM361 784q-19 18 -19 45t19 45.5t46 18.5q28 0 47 -18t19 -46q0 -27 -19 -45t-47 -18q-27 0 -46 18z" />
    <glyph glyph-name="uni04E8" unicode="&#x4e8;" 
d="M495 84q-68 -97 -195 -97t-195 95.5t-68 261.5q0 108 30 189t89 126t144 45q127 0 195 -96.5t68 -262.5q0 -164 -68 -261zM197 558.5q-34 -54.5 -40 -167.5h285q-5 113 -39 167.5t-103 54.5t-103 -54.5zM406 135q34 58 37 177h-287q3 -118 38 -176.5t106 -58.5
q72 0 106 58z" />
    <glyph glyph-name="uni04EA" unicode="&#x4ea;" 
d="M495 84q-68 -97 -195 -97t-195 95.5t-68 261.5q0 108 30 189t89 126t144 45q127 0 195 -96.5t68 -262.5q0 -164 -68 -261zM197 558.5q-34 -54.5 -40 -167.5h285q-5 113 -39 167.5t-103 54.5t-103 -54.5zM406 135q34 58 37 177h-287q3 -118 38 -176.5t106 -58.5
q72 0 106 58zM144.5 784q-18.5 18 -18.5 45q0 28 18.5 46t46.5 18t46.5 -18t18.5 -46q0 -27 -18.5 -45t-46.5 -18t-46.5 18zM361 784q-19 18 -19 45t19 45.5t46 18.5q28 0 47 -18t19 -46q0 -27 -19 -45t-47 -18q-27 0 -46 18z" />
    <glyph glyph-name="uni04EC" unicode="&#x4ec;" 
d="M473 614.5q74 -89.5 74 -262.5q0 -178 -78.5 -271.5t-214.5 -93.5q-67 0 -124 23t-99 65l62 65q36 -31 73 -46t84 -15q83 0 128 56t50 174h-285v90h285q-6 114 -48.5 165t-121.5 51q-50 0 -87 -16.5t-73 -45.5l-59 65q47 41 102 63.5t125 22.5q133 0 207 -89.5z
M129.5 783q-18.5 18 -18.5 45q0 28 18.5 46t46.5 18t46.5 -18t18.5 -46q0 -27 -18.5 -45t-46.5 -18t-46.5 18zM346 783q-19 18 -19 45t19 45.5t46 18.5q28 0 47 -18t19 -46q0 -27 -19 -45t-47 -18q-27 0 -46 18z" />
    <glyph glyph-name="uni04EE" unicode="&#x4ee;" 
d="M331 85.5q-33 -42.5 -84 -66.5t-131 -32l-17 85q58 7 92 21t54 36t35 58h-43l-223 503h121l177 -432l161 432h118l-198 -489q-29 -73 -62 -115.5zM169 872h283v-82h-283v82z" />
    <glyph glyph-name="uni04F0" unicode="&#x4f0;" 
d="M331 85.5q-33 -42.5 -84 -66.5t-131 -32l-17 85q58 7 92 21t54 36t35 58h-43l-223 503h121l177 -432l161 432h118l-198 -489q-29 -73 -62 -115.5zM155.5 784q-18.5 18 -18.5 45q0 28 18.5 46t46.5 18t46.5 -18t18.5 -46q0 -27 -18.5 -45t-46.5 -18t-46.5 18zM372 784
q-19 18 -19 45t19 45.5t46 18.5q28 0 47 -18t19 -46q0 -27 -19 -45t-47 -18q-27 0 -46 18z" />
    <glyph glyph-name="uni04F2" unicode="&#x4f2;" 
d="M331 85.5q-33 -42.5 -84 -66.5t-131 -32l-17 85q58 7 92 21t54 36t35 58h-43l-223 503h121l177 -432l161 432h118l-198 -489q-29 -73 -62 -115.5zM356 925l-107 -171l-66 29l86 182zM526 922l-115 -170l-64 32l92 181z" />
    <glyph glyph-name="uni04F4" unicode="&#x4f4;" 
d="M529 0h-117v267q-39 -29 -77 -42.5t-88 -13.5q-95 0 -150.5 57.5t-55.5 158.5v263h116v-257q0 -66 30 -97t91 -31q81 0 134 51v334h117v-690zM133.5 784q-18.5 18 -18.5 45q0 28 18.5 46t46.5 18t46.5 -18t18.5 -46q0 -27 -18.5 -45t-46.5 -18t-46.5 18zM350 784
q-19 18 -19 45t19 45.5t46 18.5q28 0 47 -18t19 -46q0 -27 -19 -45t-47 -18q-27 0 -46 18z" />
    <glyph glyph-name="uni04F6" unicode="&#x4f6;" 
d="M235 92h62v-250h-91l-16 158h-72v690h432l-12 -96h-303v-502z" />
    <glyph glyph-name="uni04F8" unicode="&#x4f8;" 
d="M175 444q124 0 187.5 -55t63.5 -162q0 -114 -65 -170.5t-184 -56.5h-150v690h106v-246h42zM467 0v690h106v-690h-106zM133 86h50q66 0 99.5 32.5t33.5 107.5q0 135 -130 135h-53v-275zM144.5 784q-18.5 18 -18.5 45q0 28 18.5 46t46.5 18t46.5 -18t18.5 -46
q0 -27 -18.5 -45t-46.5 -18t-46.5 18zM361 784q-19 18 -19 45t19 45.5t46 18.5q28 0 47 -18t19 -46q0 -27 -19 -45t-47 -18q-27 0 -46 18z" />
    <glyph glyph-name="uni051C" unicode="&#x51c;" 
d="M367 0l-66 498h-4l-68 -498h-139l-88 690h112l51 -568h4l73 488h119l67 -486h4l62 566h104l-95 -690h-136z" />
    <glyph glyph-name="uni0430" unicode="&#x430;" 
d="M502 84.5q9 -14.5 31 -21.5l-26 -76q-83 10 -109 73q-29 -36 -73 -54.5t-96 -18.5q-80 0 -126.5 45t-46.5 119q0 83 65 128t186 45h75v34q0 50 -30 73t-87 23q-28 0 -65 -7t-75 -20l-28 79q95 36 185 36q105 0 158 -46t53 -131v-235q0 -31 9 -45.5zM330.5 87.5
q32.5 18.5 51.5 50.5v116h-62q-76 0 -111 -25.5t-35 -73.5q0 -42 22.5 -64t66.5 -22q35 0 67.5 18.5z" />
    <glyph glyph-name="uni0431" unicode="&#x431;" 
d="M441.5 465.5q44.5 -29.5 69.5 -85t25 -131.5q0 -84 -30 -143t-83.5 -89t-123.5 -30q-110 0 -173 75.5t-63 230.5q0 115 17.5 188.5t61 121t122.5 73.5q60 19 96 35t78 42l44 -78q-33 -22 -71 -39.5t-96 -37.5q-46 -16 -73 -36t-43 -56.5t-22 -98.5q28 42 69.5 65t92.5 23
q58 0 102.5 -29.5zM387 111q32 38 32 136q0 87 -27 125t-79 38q-39 0 -73.5 -22.5t-58.5 -63.5v-66q0 -90 30.5 -137.5t87.5 -47.5q56 0 88 38z" />
    <glyph glyph-name="uni0432" unicode="&#x432;" 
d="M542 157q0 -79 -65 -118t-167 -39h-211v522q105 20 194 20q102 0 162.5 -36.5t60.5 -102.5q0 -44 -26 -72.5t-82 -42.5q134 -15 134 -131zM211 456v-140h93q49 0 74.5 17.5t25.5 56.5q0 38 -27.5 55t-83.5 17q-43 0 -82 -6zM391.5 98.5q34.5 16.5 34.5 63.5q0 82 -115 82
h-100v-162h87q59 0 93.5 16.5z" />
    <glyph glyph-name="uni0433" unicode="&#x433;" 
d="M144 528h386l-13 -90h-260v-438h-113v528z" />
    <glyph glyph-name="uni0453" unicode="&#x453;" 
d="M144 528h386l-13 -90h-260v-438h-113v528zM464 714l-215 -96l-35 59l196 127z" />
    <glyph glyph-name="uni0491" unicode="&#x491;" 
d="M530 528l-13 -90h-260v-438h-113v528h278v141h108v-141z" />
    <glyph glyph-name="uni0434" unicode="&#x434;" 
d="M550 -158h-89l-16 158h-319l-16 -158h-89v245h38q23 21 37 49.5t23.5 80.5t15.5 141l13 170h358v-441h44v-245zM248 444l-5 -80q-7 -94 -17 -145.5t-26.5 -80.5t-46.5 -51h244v357h-149z" />
    <glyph glyph-name="uni0435" unicode="&#x435;" 
d="M226.5 112.5q39.5 -38.5 99.5 -38.5q79 0 138 49l49 -70q-37 -31 -87 -48.5t-105 -17.5q-121 0 -188 75.5t-67 201.5q0 79 29 142.5t83 99.5t126 36q107 0 169 -70.5t62 -193.5q0 -30 -3 -50h-350q5 -77 44.5 -115.5zM220 420q-33 -39 -38 -115h244q-2 75 -32.5 114.5
t-87.5 39.5q-53 0 -86 -39z" />
    <glyph glyph-name="uni0450" unicode="&#x450;" 
d="M226.5 112.5q39.5 -38.5 99.5 -38.5q79 0 138 49l49 -70q-37 -31 -87 -48.5t-105 -17.5q-121 0 -188 75.5t-67 201.5q0 79 29 142.5t83 99.5t126 36q107 0 169 -70.5t62 -193.5q0 -30 -3 -50h-350q5 -77 44.5 -115.5zM220 420q-33 -39 -38 -115h244q-2 75 -32.5 114.5
t-87.5 39.5q-53 0 -86 -39zM237 804l197 -127l-35 -59l-215 97z" />
    <glyph glyph-name="uni0451" unicode="&#x451;" 
d="M226.5 112.5q39.5 -38.5 99.5 -38.5q79 0 138 49l49 -70q-37 -31 -87 -48.5t-105 -17.5q-121 0 -188 75.5t-67 201.5q0 79 29 142.5t83 99.5t126 36q107 0 169 -70.5t62 -193.5q0 -30 -3 -50h-350q5 -77 44.5 -115.5zM220 420q-33 -39 -38 -115h244q-2 75 -32.5 114.5
t-87.5 39.5q-53 0 -86 -39zM154 662q-19 18 -19 46q0 27 19 45t47 18q27 0 46 -18t19 -45t-19 -45.5t-46 -18.5q-28 0 -47 18zM371 662.5q-19 18.5 -19 45.5t19 45t46 18q28 0 46.5 -18t18.5 -45q0 -28 -18.5 -46t-46.5 -18q-27 0 -46 18.5z" />
    <glyph glyph-name="uni0436" unicode="&#x436;" 
d="M212 241l-97 -241h-105l122 284l-115 244h106l88 -213h46v213h87v-213h45l92 213h102l-115 -244l122 -284h-105l-98 241h-43v-241h-87v241h-45z" />
    <glyph glyph-name="uni0437" unicode="&#x437;" 
d="M353.5 334.5q27.5 19.5 27.5 51.5q0 72 -111 72q-42 0 -83 -11.5t-72 -33.5l-53 65q39 30 97 47t120 17q96 0 156.5 -37t60.5 -107q0 -42 -30.5 -72t-84.5 -45q67 -10 105 -40t38 -89q0 -79 -68 -122t-177 -43q-145 0 -236 72l56 69q36 -28 79.5 -41.5t100.5 -13.5
q62 0 94 22.5t32 62.5q0 76 -119 76h-110l7 81h95q48 0 75.5 19.5z" />
    <glyph glyph-name="uni0438" unicode="&#x438;" 
d="M404 0v217q0 63 4.5 116.5t9.5 77.5h-4l-201 -411h-124v528h107v-217q0 -56 -4 -111t-9 -81h4l199 409h125v-528h-107z" />
    <glyph glyph-name="uni0439" unicode="&#x439;" 
d="M404 0v217q0 63 4.5 116.5t9.5 77.5h-4l-201 -411h-124v528h107v-217q0 -56 -4 -111t-9 -81h4l199 409h125v-528h-107zM189.5 669q-42.5 36 -48.5 93l70 14q17 -61 87 -61q73 0 90 61l69 -14q-6 -57 -49 -93t-110 -36q-66 0 -108.5 36z" />
    <glyph glyph-name="uni045D" unicode="&#x45d;" 
d="M404 0v217q0 63 4.5 116.5t9.5 77.5h-4l-201 -411h-124v528h107v-217q0 -56 -4 -111t-9 -81h4l199 409h125v-528h-107zM228 804l197 -127l-35 -59l-215 97z" />
    <glyph glyph-name="uni043A" unicode="&#x43a;" 
d="M205 528v-209h93l138 209h117l-165 -244l188 -284h-127l-153 237h-91v-237h-112v528h112z" />
    <glyph glyph-name="uni045C" unicode="&#x45c;" 
d="M205 528v-209h93l138 209h117l-165 -244l188 -284h-127l-153 237h-91v-237h-112v528h112zM445 714l-215 -96l-35 59l196 127z" />
    <glyph glyph-name="uni043B" unicode="&#x43b;" 
d="M404 0v441h-165l-8 -111q-8 -120 -23.5 -183t-44.5 -97.5t-84 -63.5l-48 71q29 19 45.5 42t28 75t19.5 151l15 203h378v-528h-113z" />
    <glyph glyph-name="uni043C" unicode="&#x43c;" 
d="M463 0l-16 228q-4 74 -4 114q0 24 2 80h-4l-92 -335h-95l-102 335h-4q3 -42 3 -86q0 -56 -3 -109l-12 -227h-102l36 528h134l99 -347l89 347h137l37 -528h-103z" />
    <glyph glyph-name="uni043D" unicode="&#x43d;" 
d="M201 226v-226h-112v528h112v-215h198v215h112v-528h-112v226h-198z" />
    <glyph glyph-name="uni043E" unicode="&#x43e;" 
d="M477 467.5q62 -74.5 62 -202.5t-63 -203t-176 -75q-114 0 -176.5 73.5t-62.5 203.5q0 126 63.5 202t176.5 76q114 0 176 -74.5zM209.5 408q-30.5 -47 -30.5 -144q0 -98 30 -144.5t91 -46.5t91 47t30 145q0 97 -30 143.5t-90 46.5q-61 0 -91.5 -47z" />
    <glyph glyph-name="uni043F" unicode="&#x43f;" 
d="M201 441v-441h-112v528h422v-528h-112v441h-198z" />
    <glyph glyph-name="uni0440" unicode="&#x440;" 
d="M539 265q0 -125 -53 -201.5t-151 -76.5q-83 0 -134 58v-248l-112 -13v744h98l7 -68q30 40 69 61t84 21q192 0 192 -277zM252 435q-29 -21 -51 -55v-247q40 -59 104 -59q58 0 87 46t29 144q0 101 -26 146.5t-79 45.5q-35 0 -64 -21z" />
    <glyph glyph-name="uni0441" unicode="&#x441;" 
d="M474 127l52 -75q-36 -30 -85 -47.5t-101 -17.5q-121 0 -189 74.5t-68 199.5q0 81 31 144.5t89.5 100t138.5 36.5q105 0 183 -63l-52 -73q-63 46 -129 46t-104 -47.5t-38 -143.5q0 -94 38.5 -138t103.5 -44t130 48z" />
    <glyph glyph-name="uni0442" unicode="&#x442;" 
d="M356 440v-440h-112v440h-187v88h492l-13 -88h-180z" />
    <glyph glyph-name="uni0443" unicode="&#x443;" 
d="M276 -153q-61 -54 -166 -63l-14 84q52 8 84 24.5t50.5 41.5t34.5 66h-38l-178 528h119l133 -450l135 450h115l-182 -530q-32 -97 -93 -151z" />
    <glyph glyph-name="uni045E" unicode="&#x45e;" 
d="M276 -153q-61 -54 -166 -63l-14 84q52 8 84 24.5t50.5 41.5t34.5 66h-38l-178 528h119l133 -450l135 450h115l-182 -530q-32 -97 -93 -151zM189.5 669q-42.5 36 -48.5 93l70 14q17 -61 87 -61q73 0 90 61l69 -14q-6 -57 -49 -93t-110 -36q-66 0 -108.5 36z" />
    <glyph glyph-name="uni0444" unicode="&#x444;" 
d="M345 490q41 52 98 52q76 0 105 -70t29 -208q0 -130 -36.5 -203.5t-107.5 -73.5q-51 0 -88 52v-243l-90 -12v255q-37 -52 -90 -52q-70 0 -106 73.5t-36 203.5q0 135 32 206.5t108 71.5q27 0 49.5 -12t42.5 -38v261l90 -12v-251zM145.5 415q-14.5 -45 -14.5 -151
q0 -105 14.5 -150t47.5 -45q17 0 30 10t32 33v307q-17 22 -30.5 31.5t-31.5 9.5q-33 0 -47.5 -45zM378 450.5q-15 -9.5 -33 -31.5v-307q17 -23 30.5 -33t31.5 -10q32 0 47.5 45.5t15.5 149.5q0 108 -12.5 152t-44.5 44q-20 0 -35 -9.5z" />
    <glyph glyph-name="uni0445" unicode="&#x445;" 
d="M232 278l-168 250h129l108 -186l108 186h123l-165 -245l190 -283h-132l-129 216l-129 -216h-124z" />
    <glyph glyph-name="uni0447" unicode="&#x447;" 
d="M391 0v213q-30 -26 -71.5 -40.5t-89.5 -14.5q-77 0 -118 42t-41 117v211h112v-198q0 -45 20.5 -65.5t62.5 -20.5q34 0 69 13.5t56 36.5v234h112v-528h-112z" />
    <glyph glyph-name="uni0446" unicode="&#x446;" 
d="M579 -158h-89l-16 158h-395v528h112v-440h199v440h112v-441h77v-245z" />
    <glyph glyph-name="uni0448" unicode="&#x448;" 
d="M39 0v528h101v-440h114v440h92v-440h114v440h101v-528h-522z" />
    <glyph glyph-name="uni0449" unicode="&#x449;" 
d="M624 -158h-89l-16 158h-480v528h101v-440h114v440h92v-440h114v440h101v-441h63v-245z" />
    <glyph glyph-name="uni045F" unicode="&#x45f;" 
d="M352 0v-158h-89l-16 158h-158v528h112v-440h198v440h112v-528h-159z" />
    <glyph glyph-name="uni044F" unicode="&#x44f;" 
d="M501 522v-522h-113v197h-116l-107 -197h-124l128 222q-45 22 -68 59t-23 87q0 83 58 128.5t176 45.5q94 0 189 -20zM221 437.5q-26 -23.5 -26 -70.5t27 -70t84 -23h82v182q-43 5 -78 5q-63 0 -89 -23.5z" />
    <glyph glyph-name="uni044C" unicode="&#x44c;" 
d="M309 365q122 0 177.5 -46t55.5 -135q0 -94 -61.5 -139t-158.5 -45h-211v528h113v-163h85zM224 83h93q52 0 79.5 23.5t27.5 78.5q0 52 -26 76t-89 24h-85v-202z" />
    <glyph glyph-name="uni044A" unicode="&#x44a;" 
d="M309 365q246 0 246 -180q0 -96 -63 -140.5t-176 -44.5h-173v445h-117v83h229v-163h54zM255 83h62q58 0 89 22.5t31 80.5q0 52 -30.5 75t-90.5 23h-61v-201z" />
    <glyph glyph-name="uni044B" unicode="&#x44b;" 
d="M175 361q228 0 228 -177q0 -93 -58.5 -138.5t-163.5 -45.5h-133v528h101v-167h26zM450 0v528h102v-528h-102zM149 78h33q56 0 84.5 24t28.5 83q0 54 -27.5 77.5t-87.5 23.5h-31v-208z" />
    <glyph glyph-name="uni0459" unicode="&#x459;" 
d="M382 360q214 0 214 -177q0 -90 -55.5 -136.5t-153.5 -46.5h-116v447h-88l-5 -126q-5 -114 -19.5 -176.5t-42 -96t-79.5 -62.5l-38 72q23 18 37.5 41t25 75.5t15.5 147.5l10 206h283v-168h12zM370 77h16q53 0 78 23.5t25 83.5q0 55 -24 78t-80 23h-15v-208z" />
    <glyph glyph-name="uni045A" unicode="&#x45a;" 
d="M385 334q214 0 214 -166q0 -168 -214 -168h-111v258h-116v-258h-101v528h101v-194h116v194h99v-194h12zM373 79h13q56 0 81.5 18t25.5 72q0 49 -24.5 70t-78.5 21h-17v-181z" />
    <glyph glyph-name="uni0455" unicode="&#x455;" 
d="M364.5 91.5q30.5 18.5 30.5 51.5q0 23 -9 37.5t-36 27t-81 26.5q-87 22 -130.5 56.5t-43.5 99.5q0 69 57 110.5t154 41.5q119 0 201 -61l-47 -71q-35 22 -71.5 34.5t-79.5 12.5q-99 0 -99 -58q0 -20 11.5 -33t39 -24.5t83.5 -26.5q86 -23 128 -58.5t42 -105.5
q0 -81 -67 -122.5t-166 -41.5q-132 0 -217 74l60 68q70 -56 157 -56q53 0 83.5 18.5z" />
    <glyph glyph-name="uni0454" unicode="&#x454;" 
d="M526 481l-52 -68q-62 43 -130 43q-59 0 -97.5 -37t-47.5 -109h228v-79h-229q6 -80 45 -118.5t102 -38.5q70 0 129 43l52 -69q-37 -29 -86.5 -45t-99.5 -16q-121 0 -189 74t-68 200q0 81 31 144.5t89.5 100t137.5 36.5q109 0 185 -61z" />
    <glyph glyph-name="uni044D" unicode="&#x44d;" 
d="M462 467q64 -75 64 -202q0 -126 -67.5 -202t-189.5 -76q-53 0 -100.5 16t-85.5 46l52 69q60 -44 132 -44q132 0 143 157h-228v79h227q-15 146 -137 146q-72 0 -133 -43l-51 67q37 30 86.5 46t103.5 16q120 0 184 -75z" />
    <glyph glyph-name="uni0456" unicode="&#x456;" 
d="M352.5 767q20.5 -20 20.5 -50q0 -31 -20 -51.5t-53 -20.5t-53.5 20.5t-20.5 51.5q0 30 20.5 50t53.5 20q32 0 52.5 -20zM521 82v-82h-414v82h158v364h-153v82h266v-446h143z" />
    <glyph glyph-name="uni0457" unicode="&#x457;" 
d="M521 82v-82h-414v82h158v364h-153v82h266v-446h143zM145 662q-19 18 -19 46q0 27 19 45t47 18q27 0 46 -18t19 -45t-19 -45.5t-46 -18.5q-28 0 -47 18zM362 662.5q-19 18.5 -19 45.5t19 45t46 18q28 0 46.5 -18t18.5 -45q0 -28 -18.5 -46t-46.5 -18q-27 0 -46 18.5z" />
    <glyph glyph-name="uni0458" unicode="&#x458;" 
d="M421.5 767q20.5 -20 20.5 -50q0 -31 -20.5 -51.5t-53.5 -20.5q-32 0 -52.5 20.5t-20.5 51.5q0 30 20.5 50t52.5 20q33 0 53.5 -20zM368.5 -108q-87.5 -76 -264.5 -108l-18 87q128 24 192.5 76.5t64.5 156.5v342h-208v82h321v-417q0 -143 -87.5 -219z" />
    <glyph glyph-name="uni045B" unicode="&#x45b;" 
d="M475 501.5q37 -40.5 37 -116.5v-385h-112v367q0 48 -18 68.5t-58 20.5q-35 0 -67 -22t-56 -56v-378h-112v596h-74v77h74v66l112 12v-78h158v-77h-158v-132q32 38 74.5 58t89.5 20q73 0 110 -40.5z" />
    <glyph glyph-name="uni044E" unicode="&#x44e;" 
d="M529.5 470q45.5 -72 45.5 -205q0 -132 -45 -205t-140 -73q-88 0 -132 63.5t-50 176.5h-60v-227h-102v528h102v-217h60q7 110 51.5 170.5t130.5 60.5q94 0 139.5 -72zM329.5 414q-16.5 -45 -16.5 -150q0 -102 16 -148.5t61 -46.5q46 0 62 46.5t16 149.5t-17 148.5
t-61 45.5t-60.5 -45z" />
    <glyph glyph-name="uni0452" unicode="&#x452;" 
d="M359 673v-77h-158v-131q32 37 75 57t89 20q73 0 110 -40.5t37 -116.5v-338q0 -79 -19.5 -128t-56.5 -78t-100 -56l-41 82q39 18 60.5 35t33 47.5t11.5 81.5v344q0 43 -18.5 62t-57.5 19q-35 0 -67 -22t-56 -56v-378h-112v596h-74v77h74v66l112 12v-78h158z" />
    <glyph glyph-name="uni0463" unicode="&#x463;" 
d="M373 540l-12 -77h-121v-102h62q246 0 246 -178q0 -95 -62 -139t-174 -44h-185v463h-77v77h77v110l113 12v-122h133zM240 83h70q58 0 89 22t31 78q0 51 -30.5 74t-90.5 23h-69v-197z" />
    <glyph glyph-name="uni0473" unicode="&#x473;" 
d="M477 467.5q62 -74.5 62 -202.5t-63 -203t-176 -75q-114 0 -176.5 73.5t-62.5 203.5q0 126 63.5 202t176.5 76q114 0 176 -74.5zM178 306h244q-11 150 -121 150q-113 0 -123 -150zM214 110.5q30 -37.5 86 -37.5t86 37.5t36 119.5h-244q6 -82 36 -119.5z" />
    <glyph glyph-name="uni0475" unicode="&#x475;" 
d="M527.5 462q-13.5 -30 -30.5 -80l-131 -382h-132l-186 528h121l133 -437l97 323q14 48 25.5 75.5t26.5 45.5l109 -15q-19 -28 -32.5 -58z" />
    <glyph glyph-name="uni0493" unicode="&#x493;" 
d="M285 306h122v-79h-122v-227h-112v227h-87v79h87v222h386l-13 -90h-261v-132z" />
    <glyph glyph-name="uni0497" unicode="&#x497;" 
d="M620 -158h-88l-17 158h-37l-91 241h-43v-241h-87v241h-45l-90 -241h-105l115 284l-108 244h105l82 -213h46v213h87v-213h45l85 213h102l-108 -244l80 -197h72v-245z" />
    <glyph glyph-name="uni0499" unicode="&#x499;" 
d="M469 40q-55 -42 -147 -51v-43q48 -4 72.5 -28.5t24.5 -60.5q0 -48 -38 -76.5t-95 -28.5q-31 0 -59.5 7.5t-49.5 19.5l30 58q34 -17 66 -17q57 0 57 38q0 23 -21.5 31t-66.5 8l8 91q-125 7 -207 71l56 69q36 -28 79.5 -41.5t100.5 -13.5q62 0 94 22.5t32 62.5
q0 76 -119 76h-110l7 81h95q48 0 75.5 19.5t27.5 51.5q0 72 -111 72q-42 0 -83 -11.5t-72 -33.5l-53 65q39 30 97 47t120 17q96 0 156.5 -37t60.5 -107q0 -42 -30.5 -72t-84.5 -45q67 -10 105 -40t38 -89q0 -70 -55 -112z" />
    <glyph glyph-name="uni049B" unicode="&#x49b;" 
d="M591 -158h-89l-16 158h-37l-153 237h-91v-237h-112v528h112v-209h93l138 209h117l-165 -244l130 -197h73v-245z" />
    <glyph glyph-name="uni049D" unicode="&#x49d;" 
d="M203 528v-212h41v115h48v-115h25l124 212h112l-147 -244l170 -284h-120l-139 240h-25v-121h-48v121h-41v-240h-110v528h110z" />
    <glyph glyph-name="uni04A1" unicode="&#x4a1;" 
d="M465 0l-150 237h-80v-237h-113v445h-117v83h230v-209h83l135 209h117l-163 -244l185 -284h-127z" />
    <glyph glyph-name="uni04A3" unicode="&#x4a3;" 
d="M572 -158h-89l-16 158h-84v226h-198v-226h-113v528h113v-215h198v215h112v-441h77v-245z" />
    <glyph glyph-name="uni0525" unicode="&#x525;" 
d="M581 -158h-89l-17 158h-84v441h-198v-441h-112v528h423v-441h77v-245z" />
    <glyph glyph-name="uni04AB" unicode="&#x4ab;" 
d="M462 -131q0 -53 -36.5 -84t-99.5 -31q-55 0 -100 25l26 61q34 -16 67 -16q28 0 42 14t14 39q0 64 -73 112q-104 12 -161.5 84.5t-57.5 187.5q0 81 31 144.5t89.5 100t138.5 36.5q105 0 183 -63l-52 -73q-63 46 -129 46t-104 -47.5t-38 -143.5q0 -94 38.5 -138t103.5 -44
t130 48l52 -75q-28 -24 -65 -40t-77 -22q78 -48 78 -121z" />
    <glyph glyph-name="uni04AD" unicode="&#x4ad;" 
d="M356 87h77v-245h-89l-16 158h-84v440h-187v88h492l-13 -88h-180v-353z" />
    <glyph glyph-name="uni04AF" unicode="&#x4af;" 
d="M45 528h121l136 -416l138 416h115l-200 -516v-215l-110 -13v228z" />
    <glyph glyph-name="uni04B1" unicode="&#x4b1;" 
d="M456 72v-76h-101v-199l-110 -13v212h-101v76h78l-177 456h121l136 -416l138 416h115l-177 -456h78z" />
    <glyph glyph-name="uni04B3" unicode="&#x4b3;" 
d="M568 -158h-89l-16 158h-38l-129 216l-129 -216h-124l189 278l-168 250h129l108 -186l108 186h123l-165 -245l132 -196h69v-245z" />
    <glyph glyph-name="uni04B7" unicode="&#x4b7;" 
d="M570 -158h-89l-16 158h-84v213q-30 -26 -71.5 -40.5t-89.5 -14.5q-77 0 -118 42t-41 117v211h112v-198q0 -45 20.5 -65.5t62.5 -20.5q34 0 69 13.5t56 36.5v234h112v-441h77v-245z" />
    <glyph glyph-name="uni04B9" unicode="&#x4b9;" 
d="M503 0h-112v213q-33 -30 -83 -44v-82h-56v72l-22 -1q-77 0 -118 42t-41 117v211h112v-198q0 -41 17 -61.5t52 -23.5v148h56v-144q53 13 83 45v234h112v-528z" />
    <glyph glyph-name="uni04BB" unicode="&#x4bb;" 
d="M471.5 441.5q39.5 -42.5 39.5 -117.5v-324h-113v309q0 49 -18.5 69t-55.5 20q-38 0 -67 -21t-55 -60v-317h-112v739l112 12v-345q28 37 68.5 57.5t89.5 20.5q72 0 111.5 -42.5z" />
    <glyph glyph-name="uni0527" unicode="&#x527;" 
d="M582 -158h-88l-17 158h-84v309q0 50 -18.5 69.5t-56.5 19.5q-37 0 -66 -20.5t-55 -59.5v-318h-113v739l113 12v-344q28 36 68 56.5t90 20.5q72 0 111 -42.5t39 -117.5v-237h77v-245z" />
    <glyph glyph-name="uni04CF" unicode="&#x4cf;" 
d="M401 78q38 0 84 17l28 -78q-55 -30 -136 -30q-79 0 -123.5 44.5t-44.5 122.5v504h-159v82h271v-596q0 -66 80 -66z" />
    <glyph glyph-name="uni04C2" unicode="&#x4c2;" 
d="M212 241l-97 -241h-105l122 284l-115 244h106l88 -213h46v213h87v-213h45l92 213h102l-115 -244l122 -284h-105l-98 241h-43v-241h-87v241h-45zM189.5 669q-42.5 36 -48.5 93l70 14q17 -61 87 -61q73 0 90 61l69 -14q-6 -57 -49 -93t-110 -36q-66 0 -108.5 36z" />
    <glyph glyph-name="uni04CC" unicode="&#x4cc;" 
d="M503 0h-85l-16 -158h-89v245h78v126q-30 -26 -71.5 -40.5t-89.5 -14.5q-77 0 -118 42t-41 117v211h112v-198q0 -45 20.5 -65.5t62.5 -20.5q34 0 69 13.5t56 36.5v234h112v-528z" />
    <glyph glyph-name="uni04D1" unicode="&#x4d1;" 
d="M502 84.5q9 -14.5 31 -21.5l-26 -76q-83 10 -109 73q-29 -36 -73 -54.5t-96 -18.5q-80 0 -126.5 45t-46.5 119q0 83 65 128t186 45h75v34q0 50 -30 73t-87 23q-28 0 -65 -7t-75 -20l-28 79q95 36 185 36q105 0 158 -46t53 -131v-235q0 -31 9 -45.5zM330.5 87.5
q32.5 18.5 51.5 50.5v116h-62q-76 0 -111 -25.5t-35 -73.5q0 -42 22.5 -64t66.5 -22q35 0 67.5 18.5zM182.5 669q-42.5 36 -48.5 93l70 14q17 -61 87 -61q73 0 90 61l69 -14q-6 -57 -49 -93t-110 -36q-66 0 -108.5 36z" />
    <glyph glyph-name="uni04D3" unicode="&#x4d3;" 
d="M502 84.5q9 -14.5 31 -21.5l-26 -76q-83 10 -109 73q-29 -36 -73 -54.5t-96 -18.5q-80 0 -126.5 45t-46.5 119q0 83 65 128t186 45h75v34q0 50 -30 73t-87 23q-28 0 -65 -7t-75 -20l-28 79q95 36 185 36q105 0 158 -46t53 -131v-235q0 -31 9 -45.5zM330.5 87.5
q32.5 18.5 51.5 50.5v116h-62q-76 0 -111 -25.5t-35 -73.5q0 -42 22.5 -64t66.5 -22q35 0 67.5 18.5zM137 662q-19 18 -19 46q0 27 19 45t47 18q27 0 46 -18t19 -45t-19 -45.5t-46 -18.5q-28 0 -47 18zM354 662.5q-19 18.5 -19 45.5t19 45t46 18q28 0 46.5 -18t18.5 -45
q0 -28 -18.5 -46t-46.5 -18q-27 0 -46 18.5z" />
    <glyph glyph-name="uni04D7" unicode="&#x4d7;" 
d="M226.5 112.5q39.5 -38.5 99.5 -38.5q79 0 138 49l49 -70q-37 -31 -87 -48.5t-105 -17.5q-121 0 -188 75.5t-67 201.5q0 79 29 142.5t83 99.5t126 36q107 0 169 -70.5t62 -193.5q0 -30 -3 -50h-350q5 -77 44.5 -115.5zM220 420q-33 -39 -38 -115h244q-2 75 -32.5 114.5
t-87.5 39.5q-53 0 -86 -39zM198.5 669q-42.5 36 -48.5 93l70 14q17 -61 87 -61q73 0 90 61l69 -14q-6 -57 -49 -93t-110 -36q-66 0 -108.5 36z" />
    <glyph glyph-name="uni04D9" unicode="&#x4d9;" 
d="M477 468.5q61 -73.5 61 -203.5q0 -83 -29 -146t-83.5 -97.5t-130.5 -34.5q-108 0 -171 69.5t-63 193.5q0 29 3 50h359q-4 80 -37.5 118t-96.5 38q-41 0 -74.5 -11t-65.5 -37l-50 69q81 65 193 65q124 0 185 -73.5zM388.5 107.5q31.5 35.5 35.5 116.5h-255v-7
q1 -70 33.5 -107.5t92.5 -37.5q62 0 93.5 35.5z" />
    <glyph glyph-name="uni04DB" unicode="&#x4db;" 
d="M477 468.5q61 -73.5 61 -203.5q0 -83 -29 -146t-83.5 -97.5t-130.5 -34.5q-108 0 -171 69.5t-63 193.5q0 29 3 50h359q-4 80 -37.5 118t-96.5 38q-41 0 -74.5 -11t-65.5 -37l-50 69q81 65 193 65q124 0 185 -73.5zM388.5 107.5q31.5 35.5 35.5 116.5h-255v-7
q1 -70 33.5 -107.5t92.5 -37.5q62 0 93.5 35.5zM149 662q-19 18 -19 46q0 27 19 45t47 18q27 0 46 -18t19 -45t-19 -45.5t-46 -18.5q-28 0 -47 18zM366 662.5q-19 18.5 -19 45.5t19 45t46 18q28 0 46.5 -18t18.5 -45q0 -28 -18.5 -46t-46.5 -18q-27 0 -46 18.5z" />
    <glyph glyph-name="uni04DD" unicode="&#x4dd;" 
d="M212 241l-97 -241h-105l122 284l-115 244h106l88 -213h46v213h87v-213h45l92 213h102l-115 -244l122 -284h-105l-98 241h-43v-241h-87v241h-45zM145 662q-19 18 -19 46q0 27 19 45t47 18q27 0 46 -18t19 -45t-19 -45.5t-46 -18.5q-28 0 -47 18zM362 662.5
q-19 18.5 -19 45.5t19 45t46 18q28 0 46.5 -18t18.5 -45q0 -28 -18.5 -46t-46.5 -18q-27 0 -46 18.5z" />
    <glyph glyph-name="uni04DF" unicode="&#x4df;" 
d="M353.5 334.5q27.5 19.5 27.5 51.5q0 72 -111 72q-42 0 -83 -11.5t-72 -33.5l-53 65q39 30 97 47t120 17q96 0 156.5 -37t60.5 -107q0 -42 -30.5 -72t-84.5 -45q67 -10 105 -40t38 -89q0 -79 -68 -122t-177 -43q-145 0 -236 72l56 69q36 -28 79.5 -41.5t100.5 -13.5
q62 0 94 22.5t32 62.5q0 76 -119 76h-110l7 81h95q48 0 75.5 19.5zM136 661q-19 18 -19 46q0 27 19 45t47 18q27 0 46 -18t19 -45t-19 -45.5t-46 -18.5q-28 0 -47 18zM353 661.5q-19 18.5 -19 45.5t19 45t46 18q28 0 46.5 -18t18.5 -45q0 -28 -18.5 -46t-46.5 -18
q-27 0 -46 18.5z" />
    <glyph glyph-name="uni04E3" unicode="&#x4e3;" 
d="M404 0v217q0 63 4.5 116.5t9.5 77.5h-4l-201 -411h-124v528h107v-217q0 -56 -4 -111t-9 -81h4l199 409h125v-528h-107zM158 751h283v-82h-283v82z" />
    <glyph glyph-name="uni04E5" unicode="&#x4e5;" 
d="M404 0v217q0 63 4.5 116.5t9.5 77.5h-4l-201 -411h-124v528h107v-217q0 -56 -4 -111t-9 -81h4l199 409h125v-528h-107zM145 662q-19 18 -19 46q0 27 19 45t47 18q27 0 46 -18t19 -45t-19 -45.5t-46 -18.5q-28 0 -47 18zM362 662.5q-19 18.5 -19 45.5t19 45t46 18
q28 0 46.5 -18t18.5 -45q0 -28 -18.5 -46t-46.5 -18q-27 0 -46 18.5z" />
    <glyph glyph-name="uni04E7" unicode="&#x4e7;" 
d="M477 467.5q62 -74.5 62 -202.5t-63 -203t-176 -75q-114 0 -176.5 73.5t-62.5 203.5q0 126 63.5 202t176.5 76q114 0 176 -74.5zM209.5 408q-30.5 -47 -30.5 -144q0 -98 30 -144.5t91 -46.5t91 47t30 145q0 97 -30 143.5t-90 46.5q-61 0 -91.5 -47zM145 662q-19 18 -19 46
q0 27 19 45t47 18q27 0 46 -18t19 -45t-19 -45.5t-46 -18.5q-28 0 -47 18zM362 662.5q-19 18.5 -19 45.5t19 45t46 18q28 0 46.5 -18t18.5 -45q0 -28 -18.5 -46t-46.5 -18q-27 0 -46 18.5z" />
    <glyph glyph-name="uni04E9" unicode="&#x4e9;" 
d="M477 467.5q62 -74.5 62 -202.5t-63 -203t-176 -75q-114 0 -176.5 73.5t-62.5 203.5q0 126 63.5 202t176.5 76q114 0 176 -74.5zM178 306h244q-11 150 -121 150q-113 0 -123 -150zM214 110.5q30 -37.5 86 -37.5t86 37.5t36 119.5h-244q6 -82 36 -119.5z" />
    <glyph glyph-name="uni04EB" unicode="&#x4eb;" 
d="M477 467.5q62 -74.5 62 -202.5t-63 -203t-176 -75q-114 0 -176.5 73.5t-62.5 203.5q0 126 63.5 202t176.5 76q114 0 176 -74.5zM178 306h244q-11 150 -121 150q-113 0 -123 -150zM214 110.5q30 -37.5 86 -37.5t86 37.5t36 119.5h-244q6 -82 36 -119.5zM146 662
q-19 18 -19 46q0 27 19 45t47 18q27 0 46 -18t19 -45t-19 -45.5t-46 -18.5q-28 0 -47 18zM363 662.5q-19 18.5 -19 45.5t19 45t46 18q28 0 46.5 -18t18.5 -45q0 -28 -18.5 -46t-46.5 -18q-27 0 -46 18.5z" />
    <glyph glyph-name="uni04ED" unicode="&#x4ed;" 
d="M462 467q64 -75 64 -202q0 -126 -67.5 -202t-189.5 -76q-53 0 -100.5 16t-85.5 46l52 69q60 -44 132 -44q132 0 143 157h-228v79h227q-15 146 -137 146q-72 0 -133 -43l-51 67q37 30 86.5 46t103.5 16q120 0 184 -75zM142 662q-19 18 -19 46q0 27 19 45t47 18
q27 0 46 -18t19 -45t-19 -45.5t-46 -18.5q-28 0 -47 18zM359 662.5q-19 18.5 -19 45.5t19 45t46 18q28 0 46.5 -18t18.5 -45q0 -28 -18.5 -46t-46.5 -18q-27 0 -46 18.5z" />
    <glyph glyph-name="uni04EF" unicode="&#x4ef;" 
d="M276 -153q-61 -54 -166 -63l-14 84q52 8 84 24.5t50.5 41.5t34.5 66h-38l-178 528h119l133 -450l135 450h115l-182 -530q-32 -97 -93 -151zM158 751h283v-82h-283v82z" />
    <glyph glyph-name="uni04F1" unicode="&#x4f1;" 
d="M276 -153q-61 -54 -166 -63l-14 84q52 8 84 24.5t50.5 41.5t34.5 66h-38l-178 528h119l133 -450l135 450h115l-182 -530q-32 -97 -93 -151zM145 662q-19 18 -19 46q0 27 19 45t47 18q27 0 46 -18t19 -45t-19 -45.5t-46 -18.5q-28 0 -47 18zM362 662.5q-19 18.5 -19 45.5
t19 45t46 18q28 0 46.5 -18t18.5 -45q0 -28 -18.5 -46t-46.5 -18q-27 0 -46 18.5z" />
    <glyph glyph-name="uni04F3" unicode="&#x4f3;" 
d="M276 -153q-61 -54 -166 -63l-14 84q52 8 84 24.5t50.5 41.5t34.5 66h-38l-178 528h119l133 -450l135 450h115l-182 -530q-32 -97 -93 -151zM344 803l-108 -171l-65 30l86 182zM513 800l-115 -170l-64 32l93 182z" />
    <glyph glyph-name="uni04F5" unicode="&#x4f5;" 
d="M391 0v213q-30 -26 -71.5 -40.5t-89.5 -14.5q-77 0 -118 42t-41 117v211h112v-198q0 -45 20.5 -65.5t62.5 -20.5q34 0 69 13.5t56 36.5v234h112v-528h-112zM132 662q-19 18 -19 46q0 27 19 45t47 18q27 0 46 -18t19 -45t-19 -45.5t-46 -18.5q-28 0 -47 18zM349 662.5
q-19 18.5 -19 45.5t19 45t46 18q28 0 46.5 -18t18.5 -45q0 -28 -18.5 -46t-46.5 -18q-27 0 -46 18.5z" />
    <glyph glyph-name="uni04F7" unicode="&#x4f7;" 
d="M257 87h77v-245h-89l-16 158h-85v528h386l-13 -90h-260v-351z" />
    <glyph glyph-name="uni04F9" unicode="&#x4f9;" 
d="M175 361q228 0 228 -177q0 -93 -58.5 -138.5t-163.5 -45.5h-133v528h101v-167h26zM450 0v528h102v-528h-102zM149 78h33q56 0 84.5 24t28.5 83q0 54 -27.5 77.5t-87.5 23.5h-31v-208zM145 662q-19 18 -19 46q0 27 19 45t47 18q27 0 46 -18t19 -45t-19 -45.5t-46 -18.5
q-28 0 -47 18zM362 662.5q-19 18.5 -19 45.5t19 45t46 18q28 0 46.5 -18t18.5 -45q0 -28 -18.5 -46t-46.5 -18q-27 0 -46 18.5z" />
    <glyph glyph-name="uni051D" unicode="&#x51d;" 
d="M304 362h-4l-61 -362h-138l-89 528h108l54 -444h4l71 377h112l64 -375h4l55 442h104l-86 -528h-140z" />
    <glyph glyph-name="uni04D4" unicode="&#x4d4;" 
d="M103 0h-115l192 690h386l-13 -86h-215l44 -211h175v-86h-159l45 -221h163v-86h-251l-31 167h-180zM242 606l-77 -351h142z" />
    <glyph glyph-name="uni04D5" unicode="&#x4d5;" 
d="M604 278q0 -20 -2 -48h-258q7 -83 32 -121.5t74 -38.5q26 0 48 9t47 28l47 -66q-32 -26 -67 -40t-79 -14q-102 0 -153 87q-33 -47 -66 -67t-82 -20q-69 0 -110 45t-41 119q0 84 53 128t157 44h43v35q0 104 -90 104q-24 0 -45.5 -6t-54.5 -21l-28 72q76 35 139 35
q55 0 87.5 -21t50.5 -60q16 38 48 59.5t78 21.5q172 0 172 -264zM368.5 426q-19.5 -35 -24.5 -122h164q-2 82 -19.5 119.5t-60.5 37.5q-40 0 -59.5 -35zM126.5 229q-26.5 -25 -26.5 -72q0 -44 17 -67.5t47 -23.5q27 0 48.5 20t45.5 63q-11 50 -11 105h-34q-60 0 -86.5 -25z
" />
    <glyph glyph-name="Alpha" unicode="&#x391;" 
d="M127 0h-119l220 690h144l220 -690h-123l-48 166h-246zM298 600l-99 -344h198z" />
    <glyph glyph-name="Beta" unicode="&#x392;" 
d="M476 46q-76 -46 -193 -46h-202v690h189q110 0 181 -40.5t71 -134.5q0 -61 -36.5 -99t-91.5 -50q68 -12 113 -50.5t45 -116.5q0 -107 -76 -153zM372.5 579.5q-31.5 23.5 -92.5 23.5h-83v-199h90q59 0 88 24.5t29 77.5q0 50 -31.5 73.5zM394 290.5q-36 26.5 -99 26.5h-98
v-227h94q139 0 139 110q0 64 -36 90.5z" />
    <glyph glyph-name="Gamma" unicode="&#x393;" 
d="M235 594v-594h-117v690h432l-12 -96h-303z" />
    <glyph glyph-name="Delta" unicode="&#x394;" 
d="M8 0l220 690h144l220 -690h-584zM442 95l-144 504l-145 -504h289z" />
    <glyph glyph-name="Epsilon" unicode="&#x395;" 
d="M479 395v-88h-250v-219h305v-88h-421v690h415l-13 -88h-286v-207h250z" />
    <glyph glyph-name="Zeta" unicode="&#x396;" 
d="M528 0h-469v90l350 506h-314v94h443v-91l-346 -503h349z" />
    <glyph glyph-name="Eta" unicode="&#x397;" 
d="M188 313v-313h-117v690h117v-280h224v280h117v-690h-117v313h-224z" />
    <glyph glyph-name="Theta" unicode="&#x398;" 
d="M495 84q-68 -97 -195 -97t-195 95.5t-68 261.5q0 108 30 189t89 126t144 45q127 0 195 -96.5t68 -262.5q0 -164 -68 -261zM409.5 547q-34.5 66 -109.5 66t-109.5 -66t-34.5 -203q0 -135 35 -201t109 -66q75 0 109.5 66t34.5 202t-34.5 202zM208 392h183v-79h-183v79z" />
    <glyph glyph-name="Iota" unicode="&#x399;" 
d="M359 601v-512h149v-89h-416v89h149v512h-149v89h416v-89h-149z" />
    <glyph glyph-name="Kappa" unicode="&#x39a;" 
d="M87 690h117v-690h-117v690zM576 690l-241 -314l260 -376h-139l-247 369l239 321h128z" />
    <glyph glyph-name="Lambda" unicode="&#x39b;" 
d="M464 0l-166 594l-166 -594h-120l216 690h144l215 -690h-123z" />
    <glyph glyph-name="Mu" unicode="&#x39c;" 
d="M468 0l-16 336q-3 66 -3 125q0 76 3 109h-4l-98 -448h-101l-104 448h-4q4 -48 4 -124q0 -35 -2 -111l-13 -335h-105l39 690h140l98 -462l94 462h140l39 -690h-107z" />
    <glyph glyph-name="Nu" unicode="&#x39d;" 
d="M158 570q5 -28 11 -106t6 -151v-313h-104v690h151l216 -572h4q-5 29 -11 102.5t-6 155.5v314h104v-690h-152l-215 570h-4z" />
    <glyph glyph-name="Xi" unicode="&#x39e;" 
d="M67 591v99h459l-15 -99h-444zM121 302v97h351v-97h-351zM67 0v102h466v-102h-466z" />
    <glyph glyph-name="Omicron" unicode="&#x39f;" 
d="M495 84q-68 -97 -195 -97t-195 95.5t-68 261.5q0 108 30 189t89 126t144 45q127 0 195 -96.5t68 -262.5q0 -164 -68 -261zM408.5 547q-33.5 66 -108.5 66t-108.5 -66t-33.5 -203q0 -135 34.5 -201t107.5 -66q75 0 108.5 66t33.5 202t-33.5 202z" />
    <glyph glyph-name="Pi" unicode="&#x3a0;" 
d="M188 595v-595h-117v690h458v-690h-117v595h-224z" />
    <glyph glyph-name="Rho" unicode="&#x3a1;" 
d="M492 301.5q-72 -55.5 -197 -55.5h-83v-246h-117v690h192q133 0 205 -54.5t72 -162.5q0 -116 -72 -171.5zM295 603h-83v-268h84q70 0 108 32t38 106q0 130 -147 130z" />
    <glyph glyph-name="Sigma" unicode="&#x3a3;" 
d="M534 92v-92h-468v91l238 252l-238 256v91h468v-90h-337l214 -223v-63l-213 -222h336z" />
    <glyph glyph-name="Tau" unicode="&#x3a4;" 
d="M241 0v596h-208v94h536l-12 -94h-200v-596h-116z" />
    <glyph glyph-name="Upsilon" unicode="&#x3a5;" 
d="M241 0v263l-230 427h128l163 -327l165 327h122l-230 -426v-264h-118z" />
    <glyph glyph-name="Phi" unicode="&#x3a6;" 
d="M531.5 541q60.5 -65 60.5 -193q0 -129 -62 -196t-182 -71v-81h-96v81q-121 4 -182.5 70.5t-61.5 196.5q0 128 60 193t184 70v79h96v-79q123 -5 183.5 -70zM151 492q-33 -44 -33 -144q0 -98 32 -143.5t107 -49.5v383q-73 -2 -106 -46zM450 205q32 46 32 143q0 101 -33 145
t-105 45v-383q74 4 106 50z" />
    <glyph glyph-name="Chi" unicode="&#x3a7;" 
d="M300 442l135 248h124l-191 -317l212 -373h-130l-152 293l-153 -293h-125l209 367l-191 323h129z" />
    <glyph glyph-name="Psi" unicode="&#x3a8;" 
d="M70 263.5q-58 62.5 -58 163.5v263h108v-261q0 -72 29 -109t101 -46v416h101v-415q71 9 100 46t29 108v261h108v-263q0 -100 -58.5 -162.5t-173.5 -74.5v-190h-111v189q-117 12 -175 74.5z" />
    <glyph glyph-name="Omega" unicode="&#x3a9;" 
d="M193 552.5q-35 -60.5 -35 -192.5q0 -115 27.5 -181t83.5 -95v-84h-221v88h112v4q-123 64 -123 268q0 105 31.5 183t91 119.5t140.5 41.5t140.5 -41.5t91 -119.5t31.5 -183q0 -202 -124 -268v-4h113v-88h-220v84q56 29 83 95t27 181q0 132 -35 192.5t-107 60.5t-107 -60.5
z" />
    <glyph glyph-name="Alphatonos" unicode="&#x386;" 
d="M127 0h-119l220 690h144l220 -690h-123l-48 166h-246zM298 600l-99 -344h198zM182 690l-86 -196l-84 16l49 200z" />
    <glyph glyph-name="Epsilontonos" unicode="&#x388;" 
d="M479 395v-88h-250v-219h305v-88h-421v690h415l-13 -88h-286v-207h250zM91 690l-86 -196l-84 16l49 200z" />
    <glyph glyph-name="Etatonos" unicode="&#x389;" 
d="M188 313v-313h-117v690h117v-280h224v280h117v-690h-117v313h-224zM46 690l-86 -196l-84 16l49 200z" />
    <glyph glyph-name="Iotatonos" unicode="&#x38a;" 
d="M359 601v-512h149v-89h-416v89h149v512h-149v89h416v-89h-149zM71 690l-86 -196l-84 16l49 200z" />
    <glyph glyph-name="Omicrontonos" unicode="&#x38c;" 
d="M495 84q-68 -97 -195 -97t-195 95.5t-68 261.5q0 108 30 189t89 126t144 45q127 0 195 -96.5t68 -262.5q0 -164 -68 -261zM408.5 547q-33.5 66 -108.5 66t-108.5 -66t-33.5 -203q0 -135 34.5 -201t107.5 -66q75 0 108.5 66t33.5 202t-33.5 202zM84 690l-86 -196l-84 16
l49 200z" />
    <glyph glyph-name="Upsilontonos" unicode="&#x38e;" 
d="M241 0v263l-230 427h128l163 -327l165 327h122l-230 -426v-264h-118zM6 690l-86 -196l-84 16l49 200z" />
    <glyph glyph-name="Omegatonos" unicode="&#x38f;" 
d="M193 552.5q-35 -60.5 -35 -192.5q0 -115 27.5 -181t83.5 -95v-84h-221v88h112v4q-123 64 -123 268q0 105 31.5 183t91 119.5t140.5 41.5t140.5 -41.5t91 -119.5t31.5 -183q0 -202 -124 -268v-4h113v-88h-220v84q56 29 83 95t27 181q0 132 -35 192.5t-107 60.5t-107 -60.5
zM83 690l-86 -196l-84 16l49 200z" />
    <glyph glyph-name="Iotadieresis" unicode="&#x3aa;" 
d="M359 601v-512h149v-89h-416v89h149v512h-149v89h416v-89h-149zM144.5 784q-18.5 18 -18.5 45q0 28 18.5 46t46.5 18t46.5 -18t18.5 -46q0 -27 -18.5 -45t-46.5 -18t-46.5 18zM361 784q-19 18 -19 45t19 45.5t46 18.5q28 0 47 -18t19 -46q0 -27 -19 -45t-47 -18
q-27 0 -46 18z" />
    <glyph glyph-name="Upsilondieresis" unicode="&#x3ab;" 
d="M241 0v263l-230 427h128l163 -327l165 327h122l-230 -426v-264h-118zM147.5 784q-18.5 18 -18.5 45q0 28 18.5 46t46.5 18t46.5 -18t18.5 -46q0 -27 -18.5 -45t-46.5 -18t-46.5 18zM364 784q-19 18 -19 45t19 45.5t46 18.5q28 0 47 -18t19 -46q0 -27 -19 -45t-47 -18
q-27 0 -46 18z" />
    <glyph glyph-name="uni1FBA" unicode="&#x1fba;" 
d="M127 0h-119l220 690h144l220 -690h-123l-48 166h-246zM298 600l-99 -344h198zM394 754l-217 82l51 90l197 -114z" />
    <glyph glyph-name="uni1FBB" unicode="&#x1fbb;" 
d="M127 0h-119l220 690h144l220 -690h-123l-48 166h-246zM298 600l-99 -344h198zM204 754l-28 58l205 112l46 -90z" />
    <glyph glyph-name="uni1FB8" unicode="&#x1fb8;" 
d="M127 0h-119l220 690h144l220 -690h-123l-48 166h-246zM298 600l-99 -344h198zM191 792.5q-42 36.5 -49 96.5l70 13q21 -64 87 -64q35 0 57.5 16.5t32.5 47.5l69 -13q-6 -59 -49 -96t-110 -37q-66 0 -108 36.5z" />
    <glyph glyph-name="uni1FB9" unicode="&#x1fb9;" 
d="M127 0h-119l220 690h144l220 -690h-123l-48 166h-246zM298 600l-99 -344h198zM159 872h283v-82h-283v82z" />
    <glyph glyph-name="uni1FC8" unicode="&#x1fc8;" 
d="M479 395v-88h-250v-219h305v-88h-421v690h415l-13 -88h-286v-207h250zM414 754l-217 82l51 90l197 -114z" />
    <glyph glyph-name="uni1FC9" unicode="&#x1fc9;" 
d="M479 395v-88h-250v-219h305v-88h-421v690h415l-13 -88h-286v-207h250zM225 754l-28 58l205 112l46 -90z" />
    <glyph glyph-name="uni1FCA" unicode="&#x1fca;" 
d="M188 313v-313h-117v690h117v-280h224v280h117v-690h-117v313h-224zM393 754l-217 82l51 90l197 -114z" />
    <glyph glyph-name="uni1FCB" unicode="&#x1fcb;" 
d="M188 313v-313h-117v690h117v-280h224v280h117v-690h-117v313h-224zM204 754l-28 58l205 112l46 -90z" />
    <glyph glyph-name="uni1FDA" unicode="&#x1fda;" 
d="M359 601v-512h149v-89h-416v89h149v512h-149v89h416v-89h-149zM393 754l-217 82l51 90l197 -114z" />
    <glyph glyph-name="uni1FDB" unicode="&#x1fdb;" 
d="M359 601v-512h149v-89h-416v89h149v512h-149v89h416v-89h-149zM204 754l-28 58l205 112l46 -90z" />
    <glyph glyph-name="uni1FD8" unicode="&#x1fd8;" 
d="M359 601v-512h149v-89h-416v89h149v512h-149v89h416v-89h-149zM190 792.5q-42 36.5 -49 96.5l70 13q21 -64 87 -64q35 0 57.5 16.5t32.5 47.5l69 -13q-6 -59 -49 -96t-110 -37q-66 0 -108 36.5z" />
    <glyph glyph-name="uni1FD9" unicode="&#x1fd9;" 
d="M359 601v-512h149v-89h-416v89h149v512h-149v89h416v-89h-149zM158 872h283v-82h-283v82z" />
    <glyph glyph-name="uni1FF8" unicode="&#x1ff8;" 
d="M495 84q-68 -97 -195 -97t-195 95.5t-68 261.5q0 108 30 189t89 126t144 45q127 0 195 -96.5t68 -262.5q0 -164 -68 -261zM408.5 547q-33.5 66 -108.5 66t-108.5 -66t-33.5 -203q0 -135 34.5 -201t107.5 -66q75 0 108.5 66t33.5 202t-33.5 202zM393 754l-217 82l51 90
l197 -114z" />
    <glyph glyph-name="uni1FF9" unicode="&#x1ff9;" 
d="M495 84q-68 -97 -195 -97t-195 95.5t-68 261.5q0 108 30 189t89 126t144 45q127 0 195 -96.5t68 -262.5q0 -164 -68 -261zM408.5 547q-33.5 66 -108.5 66t-108.5 -66t-33.5 -203q0 -135 34.5 -201t107.5 -66q75 0 108.5 66t33.5 202t-33.5 202zM204 754l-28 58l205 112
l46 -90z" />
    <glyph glyph-name="uni1FEA" unicode="&#x1fea;" 
d="M241 0v263l-230 427h128l163 -327l165 327h122l-230 -426v-264h-118zM396 754l-217 82l51 90l197 -114z" />
    <glyph glyph-name="uni1FEB" unicode="&#x1feb;" 
d="M241 0v263l-230 427h128l163 -327l165 327h122l-230 -426v-264h-118zM206 754l-28 58l205 112l46 -90z" />
    <glyph glyph-name="uni1FE8" unicode="&#x1fe8;" 
d="M241 0v263l-230 427h128l163 -327l165 327h122l-230 -426v-264h-118zM192 792.5q-42 36.5 -49 96.5l70 13q21 -64 87 -64q35 0 57.5 16.5t32.5 47.5l69 -13q-6 -59 -49 -96t-110 -37q-66 0 -108 36.5z" />
    <glyph glyph-name="uni1FE9" unicode="&#x1fe9;" 
d="M241 0v263l-230 427h128l163 -327l165 327h122l-230 -426v-264h-118zM161 872h283v-82h-283v82z" />
    <glyph glyph-name="uni1FFA" unicode="&#x1ffa;" 
d="M193 552.5q-35 -60.5 -35 -192.5q0 -115 27.5 -181t83.5 -95v-84h-221v88h112v4q-123 64 -123 268q0 105 31.5 183t91 119.5t140.5 41.5t140.5 -41.5t91 -119.5t31.5 -183q0 -202 -124 -268v-4h113v-88h-220v84q56 29 83 95t27 181q0 132 -35 192.5t-107 60.5t-107 -60.5
zM393 754l-217 82l51 90l197 -114z" />
    <glyph glyph-name="uni1FFB" unicode="&#x1ffb;" 
d="M193 552.5q-35 -60.5 -35 -192.5q0 -115 27.5 -181t83.5 -95v-84h-221v88h112v4q-123 64 -123 268q0 105 31.5 183t91 119.5t140.5 41.5t140.5 -41.5t91 -119.5t31.5 -183q0 -202 -124 -268v-4h113v-88h-220v84q56 29 83 95t27 181q0 132 -35 192.5t-107 60.5t-107 -60.5
zM204 754l-28 58l205 112l46 -90z" />
    <glyph glyph-name="alpha" unicode="&#x3b1;" 
d="M361.5 504.5q39.5 -37.5 52.5 -119.5l27 143h102l-64 -268l26 -128q5 -25 16 -37t34 -20l-38 -89q-84 14 -99 95l-10 55q-44 -149 -164 -149q-92 0 -143.5 70t-51.5 203q0 83 24 146.5t69.5 99.5t109.5 36q70 0 109.5 -37.5zM192 406q-25 -50 -25 -146q0 -188 93 -188
q89 0 125 195q-18 105 -46.5 147t-74.5 42q-47 0 -72 -50z" />
    <glyph glyph-name="beta" unicode="&#x3b2;" 
d="M554 205q0 -65 -29.5 -115t-80 -77t-112.5 -27q-77 0 -143 48v-235l-112 -17v761q0 99 57.5 155t154.5 56q61 0 109 -23t75.5 -64.5t27.5 -96.5q0 -71 -38.5 -112t-105.5 -53q197 -22 197 -200zM402.5 108q36.5 35 36.5 101q0 72 -40.5 109.5t-114.5 37.5h-46l10 83h40
q46 0 74.5 30t28.5 90q0 54 -27.5 81.5t-73.5 27.5q-101 0 -101 -122v-433q49 -40 121 -40q56 0 92.5 35z" />
    <glyph glyph-name="gamma" unicode="&#x3b3;" 
d="M354 20q-25 -59 -25 -121q0 -44 11 -102l-89 -12q-27 54 -27 119q0 57 21 113q-37 152 -94.5 285t-118.5 199l113 40q49 -64 91.5 -175t66.5 -246l152 421l113 -26z" />
    <glyph glyph-name="delta" unicode="&#x3b4;" 
d="M494 692l-55 -64q-31 23 -59.5 32.5t-62.5 9.5q-40 0 -62 -16t-22 -44q0 -21 9.5 -34.5t31.5 -25.5t68 -30q73 -30 117 -65t66 -85.5t22 -124.5q0 -72 -30 -131t-85.5 -93t-129.5 -34q-75 0 -130 33t-84.5 91.5t-29.5 131.5q0 83 42.5 143t115.5 90q-54 27 -76 57.5
t-22 75.5q0 67 54 105.5t146 38.5q100 0 176 -61zM202.5 363.5q-25.5 -47.5 -25.5 -118.5q0 -82 32.5 -127t92.5 -45q61 0 93.5 44t32.5 129q0 56 -12.5 90.5t-42 58.5t-85.5 48q-60 -32 -85.5 -79.5z" />
    <glyph glyph-name="epsilon" unicode="&#x3b5;" 
d="M221.5 215.5q-26.5 -18.5 -26.5 -57.5t33.5 -62t95.5 -23q100 0 178 51l55 -69q-43 -31 -105 -49.5t-136 -18.5q-107 0 -173.5 43t-66.5 121q0 59 33 90.5t102 40.5q-57 13 -86 43.5t-29 74.5q0 67 62 104.5t158 37.5q58 0 113.5 -13.5t96.5 -41.5l-52 -65
q-60 36 -148 36q-55 0 -85 -18t-30 -54q0 -33 27.5 -52t76.5 -19h99l-12 -81h-94q-60 0 -86.5 -18.5z" />
    <glyph glyph-name="zeta" unicode="&#x3b6;" 
d="M362 508q-69 -69 -103.5 -130t-34.5 -122q0 -45 14 -72t44.5 -45t88.5 -38q64 -22 97 -38.5t50.5 -40.5t17.5 -61q0 -58 -40.5 -102.5t-126.5 -82.5l-43 74q46 24 69 46t23 53q0 22 -18.5 34t-77.5 32q-79 29 -124.5 57t-69 70.5t-23.5 109.5q0 102 78 199.5t253 215.5
q-33 -14 -160 -14h-133l13 87h374l14 -72q-113 -91 -182 -160z" />
    <glyph glyph-name="eta" unicode="&#x3b7;" 
d="M477 501.5q37 -40.5 37 -116.5v-588l-112 -13v546q0 49 -5.5 75t-22 38.5t-48.5 12.5q-35 0 -67.5 -22.5t-55.5 -55.5v-378h-113v365q0 76 -24 161l105 15q7 -13 14 -38t9 -46q34 41 79.5 63t93.5 22q73 0 110 -40.5z" />
    <glyph glyph-name="theta" unicode="&#x3b8;" 
d="M477.5 654q61.5 -99 61.5 -282q0 -181 -62.5 -283t-176.5 -102q-115 0 -177 100.5t-62 283.5q0 181 62.5 281.5t177.5 100.5t176.5 -99zM207.5 606.5q-30.5 -59.5 -33.5 -196.5h252q-4 138 -33.5 197t-91.5 59q-63 0 -93.5 -59.5zM208.5 133.5q30.5 -60.5 91.5 -60.5
t91 60.5t34 199.5h-251q4 -139 34.5 -199.5z" />
    <glyph glyph-name="iota" unicode="&#x3b9;" 
d="M64 528h274v-384q0 -66 80 -66q39 0 83 17l28 -78q-22 -13 -59 -21.5t-77 -8.5q-77 0 -122.5 43t-45.5 118v292h-172z" />
    <glyph glyph-name="kappa" unicode="&#x3ba;" 
d="M339 286l133 -147q27 -29 48.5 -42.5t48.5 -19.5l-39 -91q-45 6 -76.5 27t-66.5 64l-173 204l233 260l93 -52zM203.5 435.5q6.5 -52.5 6.5 -106.5v-329h-112v343q0 97 -25 185h110q14 -40 20.5 -92.5z" />
    <glyph glyph-name="lambda" unicode="&#x3bb;" 
d="M233.5 602q-19.5 28 -52 44.5t-86.5 24.5l15 83q87 -12 140 -41.5t85.5 -83.5t54.5 -147q44 -183 84.5 -289.5t96.5 -167.5l-113 -38q-54 72 -92.5 181t-69.5 277l-146 -459l-110 25l187 517h41q-15 46 -34.5 74z" />
    <glyph glyph-name="mu" unicode="&#x3bc;" 
d="M521 0l-104 -13q-6 15 -12 38.5t-7 43.5q-24 -37 -59 -59.5t-72 -22.5q-36 0 -56.5 10.5t-40.5 39.5q10 -33 14.5 -58.5t4.5 -52.5v-129l-109 -12v743h112v-298q0 -55 5 -86.5t21.5 -48.5t49.5 -17q37 0 67 19.5t52 51.5v379h112v-352q0 -82 22 -176z" />
    <glyph glyph-name="nu" unicode="&#x3bd;" 
d="M135 309q-53 142 -109 194l107 38q51 -60 93 -178t71 -272l150 451l111 -25l-202 -517h-132q-36 167 -89 309z" />
    <glyph glyph-name="xi" unicode="&#x3be;" 
d="M560 693l-52 -63q-31 19 -68.5 29.5t-73.5 10.5q-58 0 -90.5 -23.5t-32.5 -68.5q0 -48 30.5 -72t86.5 -24h113l-12 -86h-107q-67 0 -106.5 -35t-39.5 -91q0 -48 17.5 -75t54 -45.5t114.5 -44.5q59 -20 92 -37.5t49.5 -42.5t16.5 -64q0 -58 -41 -102.5t-126 -82.5l-43 74
q43 21 67 45.5t24 57.5q0 23 -16 35t-65 28q-95 33 -148 61t-84 72t-31 115q0 79 49.5 123.5t114.5 56.5q-58 21 -91.5 53.5t-33.5 86.5q0 51 31 89.5t83.5 59t115.5 20.5q117 0 202 -60z" />
    <glyph glyph-name="omicron" unicode="&#x3bf;" 
d="M477 467.5q62 -74.5 62 -202.5t-63 -203t-176 -75q-114 0 -176.5 73.5t-62.5 203.5q0 126 63.5 202t176.5 76q114 0 176 -74.5zM209.5 408q-30.5 -47 -30.5 -144q0 -98 30 -144.5t91 -46.5t91 47t30 145q0 97 -30 143.5t-90 46.5q-61 0 -91.5 -47z" />
    <glyph glyph-name="pi" unicode="&#x3c0;" 
d="M487 153q0 -37 10.5 -54.5t37.5 -25.5l-37 -86q-63 14 -92.5 49t-29.5 103v302h-159v-441h-110v441q-44 -3 -80 -13l-22 81q25 11 53.5 15t69.5 4h437v-87h-78v-288z" />
    <glyph glyph-name="rho" unicode="&#x3c1;" 
d="M537 265q0 -78 -23.5 -141t-70 -100t-112.5 -37q-84 0 -135 58v-248l-112 -13v488q0 132 56.5 201t167.5 69q229 0 229 -277zM221 407.5q-25 -49.5 -25 -153.5v-121q19 -29 46 -44t59 -15q57 0 87 48t30 142q0 101 -27.5 147t-84.5 46q-60 0 -85 -49.5z" />
    <glyph glyph-name="sigmafinal" unicode="&#x3c2;" 
d="M451.5 528q43.5 -14 85.5 -46l-52 -70q-31 21 -60 30.5t-67 9.5q-64 0 -105.5 -46t-41.5 -132q0 -48 13 -76t44.5 -48t94.5 -43q56 -21 88 -39t50 -44t18 -64q0 -58 -40 -99.5t-126 -78.5l-45 74q46 19 69 39.5t23 51.5q0 19 -9 30.5t-31.5 22t-71.5 28.5
q-67 25 -109 54.5t-64.5 76t-22.5 115.5q0 81 33 141.5t92 93.5t134 33q57 0 100.5 -14z" />
    <glyph glyph-name="sigma" unicode="&#x3c3;" 
d="M452 453q40 -27 62.5 -76.5t22.5 -120.5q0 -123 -63 -196t-174 -73q-113 0 -176 74t-63 202q0 125 67 198.5t188 73.5q87 0 250 -7v-83zM389.5 120q29.5 47 29.5 144q0 138 -62 191q-60 0 -98 -16t-59 -58t-21 -118q0 -97 30 -143.5t91 -46.5q60 0 89.5 47z" />
    <glyph glyph-name="tau" unicode="&#x3c4;" 
d="M327 144q0 -66 79 -66q40 0 84 17l28 -78q-22 -13 -59 -21.5t-77 -8.5q-78 0 -122.5 43t-44.5 118v293h-46q-33 0 -59.5 -3.5t-59.5 -12.5l-18 83q55 20 143 20h343v-87h-191v-297z" />
    <glyph glyph-name="upsilon" unicode="&#x3c5;" 
d="M535 255q0 -89 -34.5 -149.5t-91 -89.5t-123.5 -29q-89 0 -143 46.5t-54 134.5v360h112v-351q0 -104 91 -104q56 0 93 45t37 146q0 128 -26 264h112q27 -142 27 -273z" />
    <glyph glyph-name="phi" unicode="&#x3c6;" 
d="M531 474.5q41 -67.5 41 -205.5q0 -257 -231 -280v-193l-96 -12v205q-217 20 -217 250q0 143 54 289h102q-28 -82 -41 -146t-13 -121q0 -92 25.5 -138t89.5 -56v254q0 109 36.5 165t119.5 56q89 0 130 -67.5zM360 444q-13 -19 -16 -49t-3 -85v-244q69 10 97.5 57.5
t28.5 144.5q0 72 -6 114t-20.5 61.5t-40.5 19.5q-27 0 -40 -19z" />
    <glyph glyph-name="chi" unicode="&#x3c7;" 
d="M451 -220l-146 325l-149 -324l-114 18l199 381q-52 123 -96.5 193.5t-104.5 128.5l109 39q48 -53 84.5 -119.5t71.5 -170.5l129 288l111 -16l-178 -341l198 -381z" />
    <glyph glyph-name="psi" unicode="&#x3c8;" 
d="M425 102.5q26 21.5 35.5 59t9.5 99.5q0 112 -25 267h101q27 -135 27 -273q0 -119 -54 -185t-170 -79v-194l-96 -13v207q-112 10 -164.5 65.5t-52.5 140.5v331h103v-326q0 -60 26 -90.5t88 -37.5v454h96v-454q50 7 76 28.5z" />
    <glyph glyph-name="omega" unicode="&#x3c9;" 
d="M578 240q0 -122 -39 -187.5t-114 -65.5q-106 0 -126 111q-27 -111 -124 -111q-76 0 -114.5 64t-38.5 189q0 148 51 288h93q-22 -76 -31 -140t-9 -128q0 -97 14 -142t51 -45q36 0 49.5 40.5t13.5 118.5v119l93 15v-133q0 -83 13.5 -121.5t49.5 -38.5q37 0 50.5 44.5
t13.5 142.5q0 123 -42 268h95q51 -153 51 -288z" />
    <glyph glyph-name="iotatonos" unicode="&#x3af;" 
d="M64 528h274v-384q0 -66 80 -66q39 0 83 17l28 -78q-22 -13 -59 -21.5t-77 -8.5q-77 0 -122.5 43t-45.5 118v292h-172zM399 803l-75 -215l-83 13l38 224z" />
    <glyph glyph-name="iotadieresis" unicode="&#x3ca;" 
d="M64 528h274v-384q0 -66 80 -66q39 0 83 17l28 -78q-22 -13 -59 -21.5t-77 -8.5q-77 0 -122.5 43t-45.5 118v292h-172zM131 662q-19 18 -19 46q0 27 19 45t47 18q27 0 46 -18t19 -45t-19 -45.5t-46 -18.5q-28 0 -47 18zM348 662.5q-19 18.5 -19 45.5t19 45t46 18
q28 0 46.5 -18t18.5 -45q0 -28 -18.5 -46t-46.5 -18q-27 0 -46 18.5z" />
    <glyph glyph-name="iotadieresistonos" unicode="&#x390;" 
d="M64 528h274v-384q0 -66 80 -66q39 0 83 17l28 -78q-22 -13 -59 -21.5t-77 -8.5q-77 0 -122.5 43t-45.5 118v292h-172zM319 723l-75 11l29 185l111 -19zM207.5 718q18.5 -18 18.5 -45q0 -26 -18.5 -44t-44.5 -18q-28 0 -46.5 18t-18.5 44q0 27 18.5 45t46.5 18
q26 0 44.5 -18zM449.5 718q18.5 -18 18.5 -45q0 -26 -18.5 -44t-46.5 -18q-27 0 -45.5 18t-18.5 44q0 27 18.5 45t45.5 18q28 0 46.5 -18z" />
    <glyph glyph-name="upsilontonos" unicode="&#x3cd;" 
d="M535 255q0 -89 -34.5 -149.5t-91 -89.5t-123.5 -29q-89 0 -143 46.5t-54 134.5v360h112v-351q0 -104 91 -104q56 0 93 45t37 146q0 128 -26 264h112q27 -142 27 -273zM412 803l-75 -215l-83 13l38 224z" />
    <glyph glyph-name="upsilondieresis" unicode="&#x3cb;" 
d="M535 255q0 -89 -34.5 -149.5t-91 -89.5t-123.5 -29q-89 0 -143 46.5t-54 134.5v360h112v-351q0 -104 91 -104q56 0 93 45t37 146q0 128 -26 264h112q27 -142 27 -273zM145 662q-19 18 -19 46q0 27 19 45t47 18q27 0 46 -18t19 -45t-19 -45.5t-46 -18.5q-28 0 -47 18z
M362 662.5q-19 18.5 -19 45.5t19 45t46 18q28 0 46.5 -18t18.5 -45q0 -28 -18.5 -46t-46.5 -18q-27 0 -46 18.5z" />
    <glyph glyph-name="upsilondieresistonos" unicode="&#x3b0;" 
d="M535 255q0 -89 -34.5 -149.5t-91 -89.5t-123.5 -29q-89 0 -143 46.5t-54 134.5v360h112v-351q0 -104 91 -104q56 0 93 45t37 146q0 128 -26 264h112q27 -142 27 -273zM336 723l-75 11l29 185l111 -19zM224.5 718q18.5 -18 18.5 -45q0 -26 -18.5 -44t-44.5 -18
q-28 0 -46.5 18t-18.5 44q0 27 18.5 45t46.5 18q26 0 44.5 -18zM466.5 718q18.5 -18 18.5 -45q0 -26 -18.5 -44t-46.5 -18q-27 0 -45.5 18t-18.5 44q0 27 18.5 45t45.5 18q28 0 46.5 -18z" />
    <glyph glyph-name="omicrontonos" unicode="&#x3cc;" 
d="M477 467.5q62 -74.5 62 -202.5t-63 -203t-176 -75q-114 0 -176.5 73.5t-62.5 203.5q0 126 63.5 202t176.5 76q114 0 176 -74.5zM209.5 408q-30.5 -47 -30.5 -144q0 -98 30 -144.5t91 -46.5t91 47t30 145q0 97 -30 143.5t-90 46.5q-61 0 -91.5 -47zM412 803l-75 -215
l-83 13l38 224z" />
    <glyph glyph-name="omegatonos" unicode="&#x3ce;" 
d="M578 240q0 -122 -39 -187.5t-114 -65.5q-106 0 -126 111q-27 -111 -124 -111q-76 0 -114.5 64t-38.5 189q0 148 51 288h93q-22 -76 -31 -140t-9 -128q0 -97 14 -142t51 -45q36 0 49.5 40.5t13.5 118.5v119l93 15v-133q0 -83 13.5 -121.5t49.5 -38.5q37 0 50.5 44.5
t13.5 142.5q0 123 -42 268h95q51 -153 51 -288zM412 803l-75 -215l-83 13l38 224z" />
    <glyph glyph-name="alphatonos" unicode="&#x3ac;" 
d="M361.5 504.5q39.5 -37.5 52.5 -119.5l27 143h102l-64 -268l26 -128q5 -25 16 -37t34 -20l-38 -89q-84 14 -99 95l-10 55q-44 -149 -164 -149q-92 0 -143.5 70t-51.5 203q0 83 24 146.5t69.5 99.5t109.5 36q70 0 109.5 -37.5zM192 406q-25 -50 -25 -146q0 -188 93 -188
q89 0 125 195q-18 105 -46.5 147t-74.5 42q-47 0 -72 -50zM387 803l-75 -215l-83 13l38 224z" />
    <glyph glyph-name="epsilontonos" unicode="&#x3ad;" 
d="M221.5 215.5q-26.5 -18.5 -26.5 -57.5t33.5 -62t95.5 -23q100 0 178 51l55 -69q-43 -31 -105 -49.5t-136 -18.5q-107 0 -173.5 43t-66.5 121q0 59 33 90.5t102 40.5q-57 13 -86 43.5t-29 74.5q0 67 62 104.5t158 37.5q58 0 113.5 -13.5t96.5 -41.5l-52 -65
q-60 36 -148 36q-55 0 -85 -18t-30 -54q0 -33 27.5 -52t76.5 -19h99l-12 -81h-94q-60 0 -86.5 -18.5zM428 803l-75 -215l-83 13l38 224z" />
    <glyph glyph-name="etatonos" unicode="&#x3ae;" 
d="M477 501.5q37 -40.5 37 -116.5v-588l-112 -13v546q0 49 -5.5 75t-22 38.5t-48.5 12.5q-35 0 -67.5 -22.5t-55.5 -55.5v-378h-113v365q0 76 -24 161l105 15q7 -13 14 -38t9 -46q34 41 79.5 63t93.5 22q73 0 110 -40.5zM415 803l-75 -215l-83 13l38 224z" />
    <glyph glyph-name="uni1F70" unicode="&#x1f70;" 
d="M361.5 504.5q39.5 -37.5 52.5 -119.5l27 143h102l-64 -268l26 -128q5 -25 16 -37t34 -20l-38 -89q-84 14 -99 95l-10 55q-44 -149 -164 -149q-92 0 -143.5 70t-51.5 203q0 83 24 146.5t69.5 99.5t109.5 36q70 0 109.5 -37.5zM192 406q-25 -50 -25 -146q0 -188 93 -188
q89 0 125 195q-18 105 -46.5 147t-74.5 42q-47 0 -72 -50zM203 804l197 -127l-35 -59l-215 97z" />
    <glyph glyph-name="uni1F71" unicode="&#x1f71;" 
d="M361.5 504.5q39.5 -37.5 52.5 -119.5l27 143h102l-64 -268l26 -128q5 -25 16 -37t34 -20l-38 -89q-84 14 -99 95l-10 55q-44 -149 -164 -149q-92 0 -143.5 70t-51.5 203q0 83 24 146.5t69.5 99.5t109.5 36q70 0 109.5 -37.5zM192 406q-25 -50 -25 -146q0 -188 93 -188
q89 0 125 195q-18 105 -46.5 147t-74.5 42q-47 0 -72 -50zM400 714l-215 -96l-35 59l196 127z" />
    <glyph glyph-name="uni1FB6" unicode="&#x1fb6;" 
d="M361.5 504.5q39.5 -37.5 52.5 -119.5l27 143h102l-64 -268l26 -128q5 -25 16 -37t34 -20l-38 -89q-84 14 -99 95l-10 55q-44 -149 -164 -149q-92 0 -143.5 70t-51.5 203q0 83 24 146.5t69.5 99.5t109.5 36q70 0 109.5 -37.5zM192 406q-25 -50 -25 -146q0 -188 93 -188
q89 0 125 195q-18 105 -46.5 147t-74.5 42q-47 0 -72 -50zM289.5 652.5q-16.5 7.5 -35.5 21.5q-12 9 -20 13.5t-17 4.5q-15 0 -26.5 -10.5t-24.5 -33.5l-64 30q18 43 48 70t71 27q24 0 39.5 -7.5t35.5 -21.5q22 -18 36 -18q16 0 27 10.5t24 33.5l64 -29q-17 -43 -47.5 -70.5
t-71.5 -27.5q-22 0 -38.5 7.5z" />
    <glyph glyph-name="uni1FB0" unicode="&#x1fb0;" 
d="M361.5 504.5q39.5 -37.5 52.5 -119.5l27 143h102l-64 -268l26 -128q5 -25 16 -37t34 -20l-38 -89q-84 14 -99 95l-10 55q-44 -149 -164 -149q-92 0 -143.5 70t-51.5 203q0 83 24 146.5t69.5 99.5t109.5 36q70 0 109.5 -37.5zM192 406q-25 -50 -25 -146q0 -188 93 -188
q89 0 125 195q-18 105 -46.5 147t-74.5 42q-47 0 -72 -50zM164.5 668q-40.5 45 -47.5 106l69 13q10 -39 32 -61t56 -22t56.5 22t33.5 61l69 -13q-4 -38 -23.5 -72.5t-54.5 -56.5t-81 -22q-69 0 -109.5 45z" />
    <glyph glyph-name="uni1FB1" unicode="&#x1fb1;" 
d="M361.5 504.5q39.5 -37.5 52.5 -119.5l27 143h102l-64 -268l26 -128q5 -25 16 -37t34 -20l-38 -89q-84 14 -99 95l-10 55q-44 -149 -164 -149q-92 0 -143.5 70t-51.5 203q0 83 24 146.5t69.5 99.5t109.5 36q70 0 109.5 -37.5zM192 406q-25 -50 -25 -146q0 -188 93 -188
q89 0 125 195q-18 105 -46.5 147t-74.5 42q-47 0 -72 -50zM133 751h283v-82h-283v82z" />
    <glyph glyph-name="uni1F72" unicode="&#x1f72;" 
d="M221.5 215.5q-26.5 -18.5 -26.5 -57.5t33.5 -62t95.5 -23q100 0 178 51l55 -69q-43 -31 -105 -49.5t-136 -18.5q-107 0 -173.5 43t-66.5 121q0 59 33 90.5t102 40.5q-57 13 -86 43.5t-29 74.5q0 67 62 104.5t158 37.5q58 0 113.5 -13.5t96.5 -41.5l-52 -65
q-60 36 -148 36q-55 0 -85 -18t-30 -54q0 -33 27.5 -52t76.5 -19h99l-12 -81h-94q-60 0 -86.5 -18.5zM244 804l197 -127l-35 -59l-215 97z" />
    <glyph glyph-name="uni1F73" unicode="&#x1f73;" 
d="M221.5 215.5q-26.5 -18.5 -26.5 -57.5t33.5 -62t95.5 -23q100 0 178 51l55 -69q-43 -31 -105 -49.5t-136 -18.5q-107 0 -173.5 43t-66.5 121q0 59 33 90.5t102 40.5q-57 13 -86 43.5t-29 74.5q0 67 62 104.5t158 37.5q58 0 113.5 -13.5t96.5 -41.5l-52 -65
q-60 36 -148 36q-55 0 -85 -18t-30 -54q0 -33 27.5 -52t76.5 -19h99l-12 -81h-94q-60 0 -86.5 -18.5zM441 714l-215 -96l-35 59l196 127z" />
    <glyph glyph-name="uni1F74" unicode="&#x1f74;" 
d="M477 501.5q37 -40.5 37 -116.5v-588l-112 -13v546q0 49 -5.5 75t-22 38.5t-48.5 12.5q-35 0 -67.5 -22.5t-55.5 -55.5v-378h-113v365q0 76 -24 161l105 15q7 -13 14 -38t9 -46q34 41 79.5 63t93.5 22q73 0 110 -40.5zM231 804l197 -127l-35 -59l-215 97z" />
    <glyph glyph-name="uni1F75" unicode="&#x1f75;" 
d="M477 501.5q37 -40.5 37 -116.5v-588l-112 -13v546q0 49 -5.5 75t-22 38.5t-48.5 12.5q-35 0 -67.5 -22.5t-55.5 -55.5v-378h-113v365q0 76 -24 161l105 15q7 -13 14 -38t9 -46q34 41 79.5 63t93.5 22q73 0 110 -40.5zM428 714l-215 -96l-35 59l196 127z" />
    <glyph glyph-name="uni1FC6" unicode="&#x1fc6;" 
d="M477 501.5q37 -40.5 37 -116.5v-588l-112 -13v546q0 49 -5.5 75t-22 38.5t-48.5 12.5q-35 0 -67.5 -22.5t-55.5 -55.5v-378h-113v365q0 76 -24 161l105 15q7 -13 14 -38t9 -46q34 41 79.5 63t93.5 22q73 0 110 -40.5zM317.5 652.5q-16.5 7.5 -35.5 21.5q-12 9 -20 13.5
t-17 4.5q-15 0 -26.5 -10.5t-24.5 -33.5l-64 30q18 43 48 70t71 27q24 0 39.5 -7.5t35.5 -21.5q22 -18 36 -18q16 0 27 10.5t24 33.5l64 -29q-17 -43 -47.5 -70.5t-71.5 -27.5q-22 0 -38.5 7.5z" />
    <glyph glyph-name="uni1F76" unicode="&#x1f76;" 
d="M64 528h274v-384q0 -66 80 -66q39 0 83 17l28 -78q-22 -13 -59 -21.5t-77 -8.5q-77 0 -122.5 43t-45.5 118v292h-172zM214 804l197 -127l-35 -59l-215 97z" />
    <glyph glyph-name="uni1F77" unicode="&#x1f77;" 
d="M64 528h274v-384q0 -66 80 -66q39 0 83 17l28 -78q-22 -13 -59 -21.5t-77 -8.5q-77 0 -122.5 43t-45.5 118v292h-172zM411 714l-215 -96l-35 59l196 127z" />
    <glyph glyph-name="uni1FD6" unicode="&#x1fd6;" 
d="M64 528h274v-384q0 -66 80 -66q39 0 83 17l28 -78q-22 -13 -59 -21.5t-77 -8.5q-77 0 -122.5 43t-45.5 118v292h-172zM300.5 652.5q-16.5 7.5 -35.5 21.5q-12 9 -20 13.5t-17 4.5q-15 0 -26.5 -10.5t-24.5 -33.5l-64 30q18 43 48 70t71 27q24 0 39.5 -7.5t35.5 -21.5
q22 -18 36 -18q16 0 27 10.5t24 33.5l64 -29q-17 -43 -47.5 -70.5t-71.5 -27.5q-22 0 -38.5 7.5z" />
    <glyph glyph-name="uni1FD0" unicode="&#x1fd0;" 
d="M64 528h274v-384q0 -66 80 -66q39 0 83 17l28 -78q-22 -13 -59 -21.5t-77 -8.5q-77 0 -122.5 43t-45.5 118v292h-172zM175.5 668q-40.5 45 -47.5 106l69 13q10 -39 32 -61t56 -22t56.5 22t33.5 61l69 -13q-4 -38 -23.5 -72.5t-54.5 -56.5t-81 -22q-69 0 -109.5 45z" />
    <glyph glyph-name="uni1FD1" unicode="&#x1fd1;" 
d="M64 528h274v-384q0 -66 80 -66q39 0 83 17l28 -78q-22 -13 -59 -21.5t-77 -8.5q-77 0 -122.5 43t-45.5 118v292h-172zM144 751h283v-82h-283v82z" />
    <glyph glyph-name="uni1FD2" unicode="&#x1fd2;" 
d="M380 790l-226 84l49 97l211 -117zM222.5 744.5q19.5 -19.5 19.5 -48.5q0 -28 -19.5 -48t-48.5 -20t-49 19.5t-20 48.5t20 48.5t49 19.5t48.5 -19.5zM449 744.5q20 -19.5 20 -48.5t-20 -48.5t-50 -19.5q-28 0 -48 20t-20 48q0 29 20 48.5t48 19.5q30 0 50 -19.5zM64 528
h274v-384q0 -66 80 -66q39 0 83 17l28 -78q-22 -13 -59 -21.5t-77 -8.5q-77 0 -122.5 43t-45.5 118v292h-172z" />
    <glyph glyph-name="uni1FD3" unicode="&#x1fd3;" 
d="M193 790l-34 64l211 117l49 -97zM222.5 744.5q19.5 -19.5 19.5 -48.5q0 -28 -19.5 -48t-48.5 -20q-30 0 -49.5 19.5t-19.5 48.5t19.5 48.5t49.5 19.5q29 0 48.5 -19.5zM448.5 744q20.5 -20 20.5 -48t-20.5 -48t-49.5 -20q-28 0 -48 20t-20 48q0 29 20 48.5t48 19.5
q29 0 49.5 -20zM64 528h274v-384q0 -66 80 -66q39 0 83 17l28 -78q-22 -13 -59 -21.5t-77 -8.5q-77 0 -122.5 43t-45.5 118v292h-172z" />
    <glyph glyph-name="uni1FD7" unicode="&#x1fd7;" 
d="M64 528h274v-384q0 -66 80 -66q39 0 83 17l28 -78q-22 -13 -59 -21.5t-77 -8.5q-77 0 -122.5 43t-45.5 118v292h-172zM131 662q-19 18 -19 46q0 27 19 45t47 18q27 0 46 -18t19 -45t-19 -45.5t-46 -18.5q-28 0 -47 18zM348 662.5q-19 18.5 -19 45.5t19 45t46 18
q28 0 46.5 -18t18.5 -45q0 -28 -18.5 -46t-46.5 -18q-27 0 -46 18.5zM300.5 831.5q-16.5 7.5 -35.5 21.5q-12 9 -20 13.5t-17 4.5q-15 0 -26.5 -10.5t-24.5 -33.5l-64 30q18 43 48 70t71 27q24 0 39.5 -7.5t35.5 -21.5q22 -18 36 -18q16 0 27 10.5t24 33.5l64 -29
q-17 -43 -47.5 -70.5t-71.5 -27.5q-22 0 -38.5 7.5z" />
    <glyph glyph-name="uni1F78" unicode="&#x1f78;" 
d="M477 467.5q62 -74.5 62 -202.5t-63 -203t-176 -75q-114 0 -176.5 73.5t-62.5 203.5q0 126 63.5 202t176.5 76q114 0 176 -74.5zM209.5 408q-30.5 -47 -30.5 -144q0 -98 30 -144.5t91 -46.5t91 47t30 145q0 97 -30 143.5t-90 46.5q-61 0 -91.5 -47zM228 804l197 -127
l-35 -59l-215 97z" />
    <glyph glyph-name="uni1F79" unicode="&#x1f79;" 
d="M477 467.5q62 -74.5 62 -202.5t-63 -203t-176 -75q-114 0 -176.5 73.5t-62.5 203.5q0 126 63.5 202t176.5 76q114 0 176 -74.5zM209.5 408q-30.5 -47 -30.5 -144q0 -98 30 -144.5t91 -46.5t91 47t30 145q0 97 -30 143.5t-90 46.5q-61 0 -91.5 -47zM425 714l-215 -96
l-35 59l196 127z" />
    <glyph glyph-name="uni1F7A" unicode="&#x1f7a;" 
d="M535 255q0 -89 -34.5 -149.5t-91 -89.5t-123.5 -29q-89 0 -143 46.5t-54 134.5v360h112v-351q0 -104 91 -104q56 0 93 45t37 146q0 128 -26 264h112q27 -142 27 -273zM228 804l197 -127l-35 -59l-215 97z" />
    <glyph glyph-name="uni1F7B" unicode="&#x1f7b;" 
d="M535 255q0 -89 -34.5 -149.5t-91 -89.5t-123.5 -29q-89 0 -143 46.5t-54 134.5v360h112v-351q0 -104 91 -104q56 0 93 45t37 146q0 128 -26 264h112q27 -142 27 -273zM425 714l-215 -96l-35 59l196 127z" />
    <glyph glyph-name="uni1FE6" unicode="&#x1fe6;" 
d="M535 255q0 -89 -34.5 -149.5t-91 -89.5t-123.5 -29q-89 0 -143 46.5t-54 134.5v360h112v-351q0 -104 91 -104q56 0 93 45t37 146q0 128 -26 264h112q27 -142 27 -273zM314.5 652.5q-16.5 7.5 -35.5 21.5q-12 9 -20 13.5t-17 4.5q-15 0 -26.5 -10.5t-24.5 -33.5l-64 30
q18 43 48 70t71 27q24 0 39.5 -7.5t35.5 -21.5q22 -18 36 -18q16 0 27 10.5t24 33.5l64 -29q-17 -43 -47.5 -70.5t-71.5 -27.5q-22 0 -38.5 7.5z" />
    <glyph glyph-name="uni1FE0" unicode="&#x1fe0;" 
d="M535 255q0 -89 -34.5 -149.5t-91 -89.5t-123.5 -29q-89 0 -143 46.5t-54 134.5v360h112v-351q0 -104 91 -104q56 0 93 45t37 146q0 128 -26 264h112q27 -142 27 -273zM189.5 668q-40.5 45 -47.5 106l69 13q10 -39 32 -61t56 -22t56.5 22t33.5 61l69 -13
q-4 -38 -23.5 -72.5t-54.5 -56.5t-81 -22q-69 0 -109.5 45z" />
    <glyph glyph-name="uni1FE1" unicode="&#x1fe1;" 
d="M535 255q0 -89 -34.5 -149.5t-91 -89.5t-123.5 -29q-89 0 -143 46.5t-54 134.5v360h112v-351q0 -104 91 -104q56 0 93 45t37 146q0 128 -26 264h112q27 -142 27 -273zM158 751h283v-82h-283v82z" />
    <glyph glyph-name="uni1FE2" unicode="&#x1fe2;" 
d="M393 790l-226 84l49 97l211 -117zM235.5 744.5q19.5 -19.5 19.5 -48.5q0 -28 -19.5 -48t-48.5 -20t-49 19.5t-20 48.5t20 48.5t49 19.5t48.5 -19.5zM462 744.5q20 -19.5 20 -48.5t-20 -48.5t-50 -19.5q-28 0 -48 20t-20 48q0 29 20 48.5t48 19.5q30 0 50 -19.5zM535 255
q0 -89 -34.5 -149.5t-91 -89.5t-123.5 -29q-89 0 -143 46.5t-54 134.5v360h112v-351q0 -104 91 -104q56 0 93 45t37 146q0 128 -26 264h112q27 -142 27 -273z" />
    <glyph glyph-name="uni1FE3" unicode="&#x1fe3;" 
d="M206 790l-34 64l211 117l49 -97zM235.5 744.5q19.5 -19.5 19.5 -48.5q0 -28 -19.5 -48t-48.5 -20q-30 0 -49.5 19.5t-19.5 48.5t19.5 48.5t49.5 19.5q29 0 48.5 -19.5zM461.5 744q20.5 -20 20.5 -48t-20.5 -48t-49.5 -20q-28 0 -48 20t-20 48q0 29 20 48.5t48 19.5
q29 0 49.5 -20zM535 255q0 -89 -34.5 -149.5t-91 -89.5t-123.5 -29q-89 0 -143 46.5t-54 134.5v360h112v-351q0 -104 91 -104q56 0 93 45t37 146q0 128 -26 264h112q27 -142 27 -273z" />
    <glyph glyph-name="uni1FE7" unicode="&#x1fe7;" 
d="M535 255q0 -89 -34.5 -149.5t-91 -89.5t-123.5 -29q-89 0 -143 46.5t-54 134.5v360h112v-351q0 -104 91 -104q56 0 93 45t37 146q0 128 -26 264h112q27 -142 27 -273zM145 662q-19 18 -19 46q0 27 19 45t47 18q27 0 46 -18t19 -45t-19 -45.5t-46 -18.5q-28 0 -47 18z
M362 662.5q-19 18.5 -19 45.5t19 45t46 18q28 0 46.5 -18t18.5 -45q0 -28 -18.5 -46t-46.5 -18q-27 0 -46 18.5zM314.5 831.5q-16.5 7.5 -35.5 21.5q-12 9 -20 13.5t-17 4.5q-15 0 -26.5 -10.5t-24.5 -33.5l-64 30q18 43 48 70t71 27q24 0 39.5 -7.5t35.5 -21.5
q22 -18 36 -18q16 0 27 10.5t24 33.5l64 -29q-17 -43 -47.5 -70.5t-71.5 -27.5q-22 0 -38.5 7.5z" />
    <glyph glyph-name="uni1F7C" unicode="&#x1f7c;" 
d="M578 240q0 -122 -39 -187.5t-114 -65.5q-106 0 -126 111q-27 -111 -124 -111q-76 0 -114.5 64t-38.5 189q0 148 51 288h93q-22 -76 -31 -140t-9 -128q0 -97 14 -142t51 -45q36 0 49.5 40.5t13.5 118.5v119l93 15v-133q0 -83 13.5 -121.5t49.5 -38.5q37 0 50.5 44.5
t13.5 142.5q0 123 -42 268h95q51 -153 51 -288zM228 804l197 -127l-35 -59l-215 97z" />
    <glyph glyph-name="uni1F7D" unicode="&#x1f7d;" 
d="M578 240q0 -122 -39 -187.5t-114 -65.5q-106 0 -126 111q-27 -111 -124 -111q-76 0 -114.5 64t-38.5 189q0 148 51 288h93q-22 -76 -31 -140t-9 -128q0 -97 14 -142t51 -45q36 0 49.5 40.5t13.5 118.5v119l93 15v-133q0 -83 13.5 -121.5t49.5 -38.5q37 0 50.5 44.5
t13.5 142.5q0 123 -42 268h95q51 -153 51 -288zM425 714l-215 -96l-35 59l196 127z" />
    <glyph glyph-name="uni1FF6" unicode="&#x1ff6;" 
d="M578 240q0 -122 -39 -187.5t-114 -65.5q-106 0 -126 111q-27 -111 -124 -111q-76 0 -114.5 64t-38.5 189q0 148 51 288h93q-22 -76 -31 -140t-9 -128q0 -97 14 -142t51 -45q36 0 49.5 40.5t13.5 118.5v119l93 15v-133q0 -83 13.5 -121.5t49.5 -38.5q37 0 50.5 44.5
t13.5 142.5q0 123 -42 268h95q51 -153 51 -288zM314.5 652.5q-16.5 7.5 -35.5 21.5q-12 9 -20 13.5t-17 4.5q-15 0 -26.5 -10.5t-24.5 -33.5l-64 30q18 43 48 70t71 27q24 0 39.5 -7.5t35.5 -21.5q22 -18 36 -18q16 0 27 10.5t24 33.5l64 -29q-17 -43 -47.5 -70.5
t-71.5 -27.5q-22 0 -38.5 7.5z" />
    <glyph glyph-name="zero" unicode="0" 
d="M475 611.5q60 -92.5 60 -265.5t-60 -266t-175 -93t-175 93t-60 266t60 265.5t175 92.5t175 -92.5zM209 553q-31 -65 -31 -207q0 -144 31 -209t91 -65t91 65t31 209q0 143 -31 207.5t-91 64.5t-91 -65zM347 391q19 -19 19 -46q0 -28 -19 -47t-47 -19t-46.5 19t-18.5 47
q0 27 18.5 46t46.5 19t47 -19z" />
    <glyph glyph-name="one" unicode="1" 
d="M530 0h-417v88h168v487l-152 -94l-48 79l212 130h99v-602h138v-88z" />
    <glyph glyph-name="two" unicode="2" 
d="M390 678q50 -26 76 -70t26 -99q0 -61 -28.5 -118.5t-91.5 -126.5t-178 -173h314l-13 -91h-429v85q130 125 193.5 195.5t89.5 120t26 101.5t-29.5 82t-81.5 30q-45 0 -76.5 -16.5t-63.5 -55.5l-72 56q41 53 94 79.5t126 26.5q68 0 118 -26z" />
    <glyph glyph-name="three" unicode="3" 
d="M386.5 680.5q50.5 -23.5 77.5 -63.5t27 -87q0 -62 -38.5 -105.5t-98.5 -57.5q70 -7 114.5 -50t44.5 -120q0 -59 -31 -107t-88 -75.5t-131 -27.5q-67 0 -126 24.5t-98 71.5l69 60q28 -33 67 -50t82 -17q65 0 102 33.5t37 91.5q0 121 -133 121h-59l13 82h42q52 0 86.5 28
t34.5 81q0 49 -33.5 76.5t-85.5 27.5q-42 0 -76 -15t-67 -47l-59 64q88 85 211 85q66 0 116.5 -23.5z" />
    <glyph glyph-name="four" unicode="4" 
d="M456 159v-159h-108v159h-286v78l198 467l95 -37l-176 -421h170l11 184h96v-184h82v-87h-82z" />
    <glyph glyph-name="five" unicode="5" 
d="M218 606v-192q53 27 113 27q55 0 98.5 -26t68 -75.5t24.5 -117.5q0 -69 -31 -122.5t-87 -83t-130 -29.5q-127 0 -212 90l67 63q58 -64 140 -64q64 0 100 38.5t36 107.5q0 136 -113 136q-25 0 -48 -5.5t-50 -17.5h-83v355h387l-15 -84h-265z" />
    <glyph glyph-name="six" unicode="6" 
d="M440 429.5q44 -25.5 70 -75.5t26 -121q0 -72 -29.5 -128t-81 -87t-117.5 -31q-124 0 -182 89.5t-58 244.5q0 115 32.5 201.5t94.5 134t146 47.5q79 0 142 -42l-43 -72q-46 29 -99 29q-70 0 -111.5 -65.5t-46.5 -179.5q62 81 158 81q55 0 99 -25.5zM393 114q29 42 29 114
q0 76 -27 109t-77 33q-40 0 -74.5 -21t-59.5 -58q2 -114 31 -166.5t94 -52.5q55 0 84 42z" />
    <glyph glyph-name="seven" unicode="7" 
d="M402 602h-316v88h430v-80l-273 -622l-105 33z" />
    <glyph glyph-name="eight" unicode="8" 
d="M487.5 441q-28.5 -36 -86.5 -69q69 -31 105.5 -78t36.5 -108q0 -56 -29.5 -101.5t-85 -71.5t-130.5 -26q-76 0 -130.5 26t-82.5 70.5t-28 99.5q0 118 134 178q-56 29 -81.5 65.5t-25.5 93.5q0 59 31 100.5t80.5 62.5t104.5 21q59 0 108 -20.5t78.5 -60.5t29.5 -97
q0 -49 -28.5 -85zM208 465q15 -21 42 -34.5t75 -30.5q44 27 63 54t19 66q0 47 -28 74.5t-79 27.5t-79 -27t-28 -76q0 -33 15 -54zM409 250.5q-19 25.5 -51.5 41.5t-93.5 37q-92 -47 -92 -142q0 -54 32.5 -84.5t94.5 -30.5q61 0 95 32t34 81q0 40 -19 65.5z" />
    <glyph glyph-name="nine" unicode="9" 
d="M468 631q60 -72 60 -198q0 -140 -40 -228.5t-123.5 -141t-224.5 -87.5l-25 82q138 35 211 97t84 166q-64 -73 -156 -74q-56 0 -100.5 27t-70 77t-25.5 117q0 73 30.5 126t83.5 81t120 28q116 0 176 -72zM353 350q31 18 59 52q2 117 -25.5 166.5t-94.5 49.5
q-58 0 -88.5 -38t-30.5 -112q0 -70 29 -103.5t81 -33.5q39 1 70 19z" />
    <glyph glyph-name="zero.tosf" 
d="M487 498.5q68 -77.5 68 -215.5q0 -91 -31 -158t-88.5 -102.5t-135.5 -35.5t-135.5 35.5t-88 102.5t-30.5 158q0 138 67.5 215.5t186.5 77.5t187 -77.5zM196 441q-40 -50 -40 -158q0 -109 40 -160t104 -51t104 51t40 160q0 108 -40 158t-104 50t-104 -50zM344 327
q18 -18 18 -45t-18 -45.5t-46 -18.5q-27 0 -45 18.5t-18 45.5q0 26 18 44.5t45 18.5q28 0 46 -18z" />
    <glyph glyph-name="one.tosf" 
d="M535 0h-414v88h166v362l-150 -90l-47 78l209 128h100v-478h136v-88z" />
    <glyph glyph-name="two.tosf" 
d="M400.5 552.5q49.5 -23.5 76.5 -64t27 -91.5t-19 -91t-79 -91t-183 -125h292l-12 -90h-422v85q138 95 201.5 147t84 85.5t20.5 74.5q0 44 -29 70t-78 26q-44 0 -78.5 -18t-67.5 -59l-69 56q42 54 96 81.5t125 27.5q65 0 114.5 -23.5z" />
    <glyph glyph-name="three.tosf" 
d="M390 553.5q48 -22.5 72.5 -61t24.5 -84.5q0 -58 -36 -98.5t-96 -54.5q70 -8 112 -50.5t42 -118.5q0 -58 -29.5 -105t-84.5 -73.5t-130 -26.5q-136 0 -215 94l65 60q31 -34 66.5 -50t78.5 -16q63 0 97.5 33t34.5 91q0 117 -132 117h-58l14 81h40q54 0 87 27.5t33 77.5
q0 44 -29.5 69t-82.5 25q-40 0 -73 -14.5t-66 -45.5l-58 64q88 82 208 82q67 0 115 -22.5z" />
    <glyph glyph-name="four.tosf" 
d="M463 36v-145h-108v145h-298v76l198 464l94 -38l-176 -417h183l11 177h96v-177h89v-85h-89z" />
    <glyph glyph-name="five.tosf" 
d="M223 482v-181q49 25 109 25q57 0 101 -26t69 -74.5t25 -113.5q0 -67 -31 -119.5t-87.5 -82t-129.5 -29.5q-127 0 -212 91l67 62q29 -32 63 -48t77 -16q63 0 99.5 38t36.5 104q0 68 -31.5 99.5t-85.5 31.5q-46 0 -95 -23h-83v347h388l-15 -85h-265z" />
    <glyph glyph-name="six.tosf" 
d="M440 429.5q44 -25.5 70 -75.5t26 -121q0 -72 -29.5 -128t-81 -87t-117.5 -31q-124 0 -182 89.5t-58 244.5q0 115 32.5 201.5t94.5 134t146 47.5q79 0 142 -42l-43 -72q-46 29 -99 29q-70 0 -111.5 -65.5t-46.5 -179.5q62 81 158 81q55 0 99 -25.5zM393 114q29 42 29 114
q0 76 -27 109t-77 33q-40 0 -74.5 -21t-59.5 -58q2 -114 31 -166.5t94 -52.5q55 0 84 42z" />
    <glyph glyph-name="seven.tosf" 
d="M259 -123l-103 34l240 567h-314v88h428v-80z" />
    <glyph glyph-name="eight.tosf" 
d="M487.5 440.5q-28.5 -36.5 -86.5 -68.5q69 -31 105.5 -78t36.5 -108q0 -56 -29.5 -101.5t-85 -71.5t-130.5 -26q-76 0 -130.5 26t-82.5 70.5t-28 99.5q0 118 134 178q-56 30 -81.5 66.5t-25.5 92.5q0 58 31 100t80.5 63t104.5 21q58 0 107.5 -20.5t79 -61t29.5 -96.5
q0 -49 -28.5 -85.5zM208 465q15 -21 42 -34.5t75 -30.5q44 27 63 54t19 66q0 47 -28 74.5t-79 27.5t-79 -27t-28 -76q0 -33 15 -54zM409 250.5q-19 25.5 -51.5 41.5t-93.5 37q-92 -47 -92 -142q0 -54 32.5 -84.5t94.5 -30.5q61 0 95 32t34 81q0 40 -19 65.5z" />
    <glyph glyph-name="nine.tosf" 
d="M468 504.5q60 -71.5 60 -195.5q0 -127 -40.5 -210.5t-124.5 -135.5t-223 -87l-25 82q140 37 215.5 99t80.5 154q-58 -74 -158 -74q-55 0 -99.5 27.5t-70 76.5t-25.5 110q0 66 30.5 117.5t84 79.5t119.5 28q116 0 176 -71.5zM354.5 238q31.5 17 57.5 53q1 108 -27 154
t-93 46q-57 0 -88 -37t-31 -103q0 -63 28.5 -96.5t79.5 -33.5q42 0 73.5 17z" />
    <glyph glyph-name="zero.zero" 
d="M475 611.5q60 -92.5 60 -265.5t-60 -266t-175 -93t-175 93t-60 266t60 265.5t175 92.5t175 -92.5zM208 553q-31 -65 -31 -207q0 -103 12 -165l195 397q-27 40 -84 40q-61 0 -92 -65zM392.5 137q30.5 65 30.5 209q0 95 -10 151l-192 -391q27 -34 79 -34q62 0 92.5 65z" />
    <glyph glyph-name="zero.tosf.zero" 
d="M435.5 540.5q57.5 -35.5 88.5 -102t31 -155.5q0 -91 -31 -158t-88.5 -102.5t-135.5 -35.5q-77 0 -134.5 36t-88.5 103t-31 157q0 138 67.5 215.5t186.5 77.5q78 0 135.5 -35.5zM195 441q-40 -50 -40 -158q0 -105 31 -156l177 353q-26 11 -63 11q-65 0 -105 -50zM405 123
q40 51 40 160t-35 160l-178 -358q29 -13 68 -13q65 0 105 51z" />
    <glyph glyph-name="fraction" unicode="&#x2044;" horiz-adv-x="0" 
d="M250 499l35 -62l-535 -256l-35 62z" />
    <glyph glyph-name="onefraction" unicode="&#x215f;" 
d="M54 549l-42 58l146 83h72v-321h-87v228zM554 499l35 -62l-535 -256l-35 62z" />
    <glyph glyph-name="onehalf" unicode="&#xbd;" 
d="M32 549l-42 58l146 83h72v-321h-87v228zM544 499l35 -62l-535 -256l-35 62zM584.5 167.5q-14.5 -23.5 -48.5 -46t-96 -52.5h170l-10 -69h-281v61q82 48 120 73t52.5 42.5t14.5 38.5q0 20 -13.5 31.5t-37.5 11.5q-49 0 -85 -43l-58 43q60 69 151 69q64 0 100 -29.5
t36 -75.5q0 -31 -14.5 -54.5z" />
    <glyph glyph-name="uni2153" unicode="&#x2153;" 
d="M25 549l-42 58l146 83h72v-321h-87v228zM536 499l35 -62l-535 -256l-35 62zM566.5 302.5q35.5 -24.5 35.5 -64.5q0 -28 -16.5 -44.5t-53.5 -23.5q44 -7 64 -24t20 -52q0 -45 -42 -72.5t-116 -27.5q-44 0 -85 14t-69 43l53 45q44 -37 102 -37q33 0 49.5 11t16.5 30
q0 21 -15.5 30.5t-47.5 9.5h-49l9 51h37q54 0 54 34q0 37 -53 37q-27 0 -50.5 -8t-48.5 -26l-46 47q65 52 153 52q63 0 98.5 -24.5z" />
    <glyph glyph-name="uni2154" unicode="&#x2154;" 
d="M228.5 536.5q-14.5 -23.5 -48.5 -46t-96 -52.5h170l-10 -69h-281v61q82 48 120 73t52.5 42.5t14.5 38.5q0 20 -13.5 31.5t-37.5 11.5q-49 0 -85 -43l-58 43q60 69 151 69q64 0 100 -29.5t36 -75.5q0 -31 -14.5 -54.5zM565 499l35 -62l-535 -256l-35 62zM593.5 302.5
q35.5 -24.5 35.5 -64.5q0 -28 -16.5 -44.5t-53.5 -23.5q44 -7 64 -24t20 -52q0 -45 -42 -72.5t-116 -27.5q-44 0 -85 14t-69 43l53 45q44 -37 102 -37q33 0 49.5 11t16.5 30q0 21 -15.5 30.5t-47.5 9.5h-49l9 51h37q54 0 54 34q0 37 -53 37q-27 0 -50.5 -8t-48.5 -26l-46 47
q65 52 153 52q63 0 98.5 -24.5z" />
    <glyph glyph-name="onequarter" unicode="&#xbc;" 
d="M35 549l-42 58l146 83h72v-321h-87v228zM548 499l35 -62l-535 -256l-35 62zM472 0v56h-180v55l130 220l74 -28l-108 -182h84l10 83h74v-83h51v-65h-51v-56h-84z" />
    <glyph glyph-name="threequarters" unicode="&#xbe;" 
d="M256.5 671.5q35.5 -24.5 35.5 -64.5q0 -28 -16.5 -44.5t-53.5 -23.5q44 -7 64 -24t20 -52q0 -45 -42 -72.5t-116 -27.5q-44 0 -85 14t-69 43l53 45q44 -37 102 -37q33 0 49.5 11t16.5 30q0 21 -15.5 30.5t-47.5 9.5h-49l9 51h37q54 0 54 34q0 37 -53 37q-27 0 -50.5 -8
t-48.5 -26l-46 47q65 52 153 52q63 0 98.5 -24.5zM556 499l35 -62l-535 -256l-35 62zM472 0v56h-180v55l130 220l74 -28l-108 -182h84l10 83h74v-83h51v-65h-51v-56h-84z" />
    <glyph glyph-name="uni2155" unicode="&#x2155;" 
d="M17 549l-42 58l146 83h72v-321h-87v228zM517 499l35 -62l-535 -256l-35 62zM583.5 24q-41.5 -30 -110.5 -30q-91 0 -148 54l52 46q40 -34 93 -34q31 0 47 12.5t16 35.5q0 22 -14 33.5t-40 11.5q-27 0 -59 -14h-62v182h250l-8 -66h-158v-55q33 14 66 14q52 0 84.5 -27.5
t32.5 -78.5q0 -54 -41.5 -84z" />
    <glyph glyph-name="uni2156" unicode="&#x2156;" 
d="M222.5 536.5q-14.5 -23.5 -48.5 -46t-96 -52.5h170l-10 -69h-281v61q82 48 120 73t52.5 42.5t14.5 38.5q0 20 -13.5 31.5t-37.5 11.5q-49 0 -85 -43l-58 43q60 69 151 69q64 0 100 -29.5t36 -75.5q0 -31 -14.5 -54.5zM546 499l35 -62l-535 -256l-35 62zM609.5 24
q-41.5 -30 -110.5 -30q-91 0 -148 54l52 46q40 -34 93 -34q31 0 47 12.5t16 35.5q0 22 -14 33.5t-40 11.5q-27 0 -59 -14h-62v182h250l-8 -66h-158v-55q33 14 66 14q52 0 84.5 -27.5t32.5 -78.5q0 -54 -41.5 -84z" />
    <glyph glyph-name="uni2157" unicode="&#x2157;" 
d="M230.5 671.5q35.5 -24.5 35.5 -64.5q0 -28 -16.5 -44.5t-53.5 -23.5q44 -7 64 -24t20 -52q0 -45 -42 -72.5t-116 -27.5q-44 0 -85 14t-69 43l53 45q44 -37 102 -37q33 0 49.5 11t16.5 30q0 21 -15.5 30.5t-47.5 9.5h-49l9 51h37q54 0 54 34q0 37 -53 37q-27 0 -50.5 -8
t-48.5 -26l-46 47q65 52 153 52q63 0 98.5 -24.5zM527 499l35 -62l-535 -256l-35 62zM590.5 24q-41.5 -30 -110.5 -30q-91 0 -148 54l52 46q40 -34 93 -34q31 0 47 12.5t16 35.5q0 22 -14 33.5t-40 11.5q-27 0 -59 -14h-62v182h250l-8 -66h-158v-55q33 14 66 14
q52 0 84.5 -27.5t32.5 -78.5q0 -54 -41.5 -84z" />
    <glyph glyph-name="uni2158" unicode="&#x2158;" 
d="M140 369v56h-180v55l130 220l74 -28l-108 -182h84l10 83h74v-83h51v-65h-51v-56h-84zM540 499l35 -62l-535 -256l-35 62zM598.5 24q-41.5 -30 -110.5 -30q-91 0 -148 54l52 46q40 -34 93 -34q31 0 47 12.5t16 35.5q0 22 -14 33.5t-40 11.5q-27 0 -59 -14h-62v182h250
l-8 -66h-158v-55q33 14 66 14q52 0 84.5 -27.5t32.5 -78.5q0 -54 -41.5 -84z" />
    <glyph glyph-name="uni2159" unicode="&#x2159;" 
d="M47 549l-42 58l146 83h72v-321h-87v228zM544 499l35 -62l-535 -256l-35 62zM460 261q-82 0 -86 -86q43 38 101 38q51 0 85.5 -26t34.5 -75q0 -53 -42.5 -85.5t-107.5 -32.5q-78 0 -120 45t-42 118q0 74 46 122t130 48q61 0 108 -27l-39 -53q-28 14 -68 14zM375 122
q8 -29 23.5 -45.5t46.5 -16.5q29 0 44.5 13.5t15.5 35.5q0 47 -51 47q-39 0 -79 -34z" />
    <glyph glyph-name="uni215A" unicode="&#x215a;" 
d="M260.5 393q-41.5 -30 -110.5 -30q-91 0 -148 54l52 46q40 -34 93 -34q31 0 47 12.5t16 35.5q0 22 -14 33.5t-40 11.5q-29 0 -59 -15h-62v183h250l-8 -66h-158v-55q33 14 66 14q52 0 84.5 -27.5t32.5 -78.5q0 -54 -41.5 -84zM545 499l35 -62l-535 -256l-35 62zM463 261
q-82 0 -86 -86q43 38 101 38q51 0 85.5 -26t34.5 -75q0 -53 -42.5 -85.5t-107.5 -32.5q-78 0 -120 45t-42 118q0 74 46 122t130 48q61 0 108 -27l-39 -53q-28 14 -68 14zM378 122q8 -29 23.5 -45.5t46.5 -16.5q29 0 44.5 13.5t15.5 35.5q0 47 -51 47q-39 0 -79 -34z" />
    <glyph glyph-name="oneeighth" unicode="&#x215b;" 
d="M26 549l-42 58l146 83h72v-321h-87v228zM533 499l35 -62l-535 -256l-35 62zM583 198q-18 -16 -51 -22q43 -13 64.5 -32t21.5 -50q0 -45 -43.5 -72.5t-119.5 -27.5t-117.5 26.5t-41.5 71.5q0 57 79 77q-30 10 -45.5 27.5t-15.5 45.5q0 37 39.5 61t103.5 24q66 0 105 -24
t39 -59q0 -30 -18 -46zM416 218.5q15 -8.5 53 -16.5q24 8 34.5 16t10.5 21q0 12 -14.5 20t-42.5 8t-42 -8t-14 -19q0 -13 15 -21.5zM506.5 122.5q-21.5 9.5 -70.5 18.5q-24 -7 -37 -18.5t-13 -25.5q0 -37 70 -37q34 0 53 10t19 25q0 18 -21.5 27.5z" />
    <glyph glyph-name="threeeighths" unicode="&#x215c;" 
d="M245.5 671.5q35.5 -24.5 35.5 -64.5q0 -28 -16.5 -44.5t-53.5 -23.5q44 -7 64 -24t20 -52q0 -45 -42 -72.5t-116 -27.5q-44 0 -85 14t-69 43l53 45q44 -37 102 -37q33 0 49.5 11t16.5 30q0 21 -15.5 30.5t-47.5 9.5h-49l9 51h37q54 0 54 34q0 37 -53 37q-27 0 -50.5 -8
t-48.5 -26l-46 47q65 52 153 52q63 0 98.5 -24.5zM536 499l35 -62l-535 -256l-35 62zM583 198q-18 -16 -51 -22q43 -13 64.5 -32t21.5 -50q0 -45 -43.5 -72.5t-119.5 -27.5t-117.5 26.5t-41.5 71.5q0 57 79 77q-30 10 -45.5 27.5t-15.5 45.5q0 37 39.5 61t103.5 24
q66 0 105 -24t39 -59q0 -30 -18 -46zM416 218.5q15 -8.5 53 -16.5q24 8 34.5 16t10.5 21q0 12 -14.5 20t-42.5 8t-42 -8t-14 -19q0 -13 15 -21.5zM506.5 122.5q-21.5 9.5 -70.5 18.5q-24 -7 -37 -18.5t-13 -25.5q0 -37 70 -37q34 0 53 10t19 25q0 18 -21.5 27.5z" />
    <glyph glyph-name="fiveeighths" unicode="&#x215d;" 
d="M252.5 393q-41.5 -30 -110.5 -30q-91 0 -148 54l52 46q40 -34 93 -34q31 0 47 12.5t16 35.5q0 22 -14 33.5t-40 11.5q-29 0 -59 -15h-62v183h250l-8 -66h-158v-55q33 14 66 14q52 0 84.5 -27.5t32.5 -78.5q0 -54 -41.5 -84zM527 499l35 -62l-535 -256l-35 62zM573 198
q-18 -16 -51 -22q43 -13 64.5 -32t21.5 -50q0 -45 -43.5 -72.5t-119.5 -27.5t-117.5 26.5t-41.5 71.5q0 57 79 77q-30 10 -45.5 27.5t-15.5 45.5q0 37 39.5 61t103.5 24q66 0 105 -24t39 -59q0 -30 -18 -46zM406 218.5q15 -8.5 53 -16.5q24 8 34.5 16t10.5 21q0 12 -14.5 20
t-42.5 8t-42 -8t-14 -19q0 -13 15 -21.5zM496.5 122.5q-21.5 9.5 -70.5 18.5q-24 -7 -37 -18.5t-13 -25.5q0 -37 70 -37q34 0 53 10t19 25q0 18 -21.5 27.5z" />
    <glyph glyph-name="seveneighths" unicode="&#x215e;" 
d="M239 622h-191v68h285v-56l-160 -273l-84 34zM527 499l35 -62l-535 -256l-35 62zM573 198q-18 -16 -51 -22q43 -13 64.5 -32t21.5 -50q0 -45 -43.5 -72.5t-119.5 -27.5t-117.5 26.5t-41.5 71.5q0 57 79 77q-30 10 -45.5 27.5t-15.5 45.5q0 37 39.5 61t103.5 24
q66 0 105 -24t39 -59q0 -30 -18 -46zM406 218.5q15 -8.5 53 -16.5q24 8 34.5 16t10.5 21q0 12 -14.5 20t-42.5 8t-42 -8t-14 -19q0 -13 15 -21.5zM496.5 122.5q-21.5 9.5 -70.5 18.5q-24 -7 -37 -18.5t-13 -25.5q0 -37 70 -37q34 0 53 10t19 25q0 18 -21.5 27.5z" />
    <glyph glyph-name="zero.dnom" 
d="M414 40q-41 -46 -114 -46t-114.5 46.5t-41.5 120.5t41.5 120t114.5 46t114 -46t41 -120q0 -75 -41 -121zM348.5 237q-15.5 23 -48.5 23q-65 0 -65 -99q0 -100 65 -100q32 0 48 23.5t16 76.5t-15.5 76z" />
    <glyph glyph-name="one.dnom" 
d="M233 181l-42 57l146 83h72v-321h-87v228z" />
    <glyph glyph-name="two.dnom" 
d="M423.5 167.5q-14.5 -23.5 -48.5 -46t-96 -52.5h170l-10 -69h-281v61q82 48 120 73t52.5 42.5t14.5 38.5q0 20 -13.5 31.5t-37.5 11.5q-49 0 -85 -43l-58 43q60 69 151 69q64 0 100 -29.5t36 -75.5q0 -31 -14.5 -54.5z" />
    <glyph glyph-name="three.dnom" 
d="M405.5 302.5q35.5 -24.5 35.5 -64.5q0 -28 -16.5 -44.5t-53.5 -23.5q44 -7 64 -24t20 -52q0 -45 -42 -72.5t-116 -27.5q-44 0 -85 14t-69 43l53 45q44 -37 102 -37q33 0 49.5 11t16.5 30q0 21 -15.5 30.5t-47.5 9.5h-49l9 51h37q54 0 54 34q0 37 -53 37q-27 0 -50.5 -8
t-48.5 -26l-46 47q65 52 153 52q63 0 98.5 -24.5z" />
    <glyph glyph-name="four.dnom" 
d="M322 0v56h-180v55l130 220l74 -28l-108 -182h84l10 83h74v-83h51v-65h-51v-56h-84z" />
    <glyph glyph-name="five.dnom" 
d="M408.5 24q-41.5 -30 -110.5 -30q-91 0 -148 54l52 46q40 -34 93 -34q31 0 47 12.5t16 35.5q0 22 -14 33.5t-40 11.5q-27 0 -59 -14h-62v182h250l-8 -66h-158v-55q33 14 66 14q52 0 84.5 -27.5t32.5 -78.5q0 -54 -41.5 -84z" />
    <glyph glyph-name="six.dnom" 
d="M321 261q-82 0 -86 -86q43 38 101 38q51 0 85.5 -26t34.5 -75q0 -53 -42.5 -85.5t-107.5 -32.5q-78 0 -120 45t-42 118q0 74 46 122t130 48q61 0 108 -27l-39 -53q-28 14 -68 14zM236 122q8 -29 23.5 -45.5t46.5 -16.5q29 0 44.5 13.5t15.5 35.5q0 47 -51 47
q-39 0 -79 -34z" />
    <glyph glyph-name="seven.dnom" 
d="M349 253h-191v68h285v-56l-160 -274l-84 35z" />
    <glyph glyph-name="eight.dnom" 
d="M426 198q-18 -16 -51 -22q43 -13 64.5 -32t21.5 -50q0 -45 -43.5 -72.5t-119.5 -27.5t-117.5 26.5t-41.5 71.5q0 57 79 77q-30 10 -45.5 27.5t-15.5 45.5q0 37 39.5 61t103.5 24q66 0 105 -24t39 -59q0 -30 -18 -46zM259 218.5q15 -8.5 53 -16.5q24 8 34.5 16t10.5 21
q0 12 -14.5 20t-42.5 8t-42 -8t-14 -19q0 -13 15 -21.5zM349.5 122.5q-21.5 9.5 -70.5 18.5q-24 -7 -37 -18.5t-13 -25.5q0 -37 70 -37q34 0 53 10t19 25q0 18 -21.5 27.5z" />
    <glyph glyph-name="nine.dnom" 
d="M302.5 85.5q42.5 18.5 63.5 58.5q-30 -16 -52.5 -23.5t-49.5 -7.5q-52 0 -86 25.5t-34 73.5q0 53 45 84t111 31q75 0 116.5 -36.5t41.5 -99.5q0 -90 -63.5 -137t-195.5 -62l-21 65q82 10 124.5 28.5zM367 193q-1 68 -69 68q-29 0 -46 -12t-17 -34q0 -41 58 -41
q38 0 74 19z" />
    <glyph glyph-name="zero.numr" 
d="M414 411q-41 -46 -114 -46t-114.5 46.5t-41.5 120.5t41.5 120t114.5 46t114 -46t41 -120q0 -75 -41 -121zM348.5 608q-15.5 23 -48.5 23q-65 0 -65 -99q0 -100 65 -100q32 0 48 23.5t16 76.5t-15.5 76z" />
    <glyph glyph-name="one.numr" 
d="M233 549l-42 58l146 83h72v-321h-87v228z" />
    <glyph glyph-name="two.numr" 
d="M423.5 536.5q-14.5 -23.5 -48.5 -46t-96 -52.5h170l-10 -69h-281v61q82 48 120 73t52.5 42.5t14.5 38.5q0 20 -13.5 31.5t-37.5 11.5q-49 0 -85 -43l-58 43q60 69 151 69q64 0 100 -29.5t36 -75.5q0 -31 -14.5 -54.5z" />
    <glyph glyph-name="three.numr" 
d="M405.5 671.5q35.5 -24.5 35.5 -64.5q0 -28 -16.5 -44.5t-53.5 -23.5q44 -7 64 -24t20 -52q0 -45 -42 -72.5t-116 -27.5q-44 0 -85 14t-69 43l53 45q44 -37 102 -37q33 0 49.5 11t16.5 30q0 21 -15.5 30.5t-47.5 9.5h-49l9 51h37q54 0 54 34q0 37 -53 37q-27 0 -50.5 -8
t-48.5 -26l-46 47q65 52 153 52q63 0 98.5 -24.5z" />
    <glyph glyph-name="four.numr" 
d="M322 369v56h-180v55l130 220l74 -28l-108 -182h84l10 83h74v-83h51v-65h-51v-56h-84z" />
    <glyph glyph-name="five.numr" 
d="M408.5 393q-41.5 -30 -110.5 -30q-91 0 -148 54l52 46q40 -34 93 -34q31 0 47 12.5t16 35.5q0 22 -14 33.5t-40 11.5q-29 0 -59 -15h-62v183h250l-8 -66h-158v-55q33 14 66 14q52 0 84.5 -27.5t32.5 -78.5q0 -54 -41.5 -84z" />
    <glyph glyph-name="six.numr" 
d="M321 630q-82 0 -86 -86q43 38 101 38q51 0 85.5 -26t34.5 -75q0 -53 -42.5 -85.5t-107.5 -32.5q-78 0 -120 45t-42 118q0 74 46 122t130 48q61 0 108 -27l-39 -53q-28 14 -68 14zM236 491q8 -29 23.5 -45.5t46.5 -16.5q29 0 44.5 13.5t15.5 35.5q0 47 -51 47
q-39 0 -79 -34z" />
    <glyph glyph-name="seven.numr" 
d="M349 622h-191v68h285v-56l-160 -273l-84 34z" />
    <glyph glyph-name="eight.numr" 
d="M426 567q-18 -16 -51 -22q43 -13 64.5 -32t21.5 -50q0 -45 -43.5 -72.5t-119.5 -27.5t-117.5 26.5t-41.5 71.5q0 57 79 77q-30 10 -45.5 27.5t-15.5 45.5q0 37 39.5 61t103.5 24q66 0 105 -24t39 -59q0 -30 -18 -46zM259 587.5q15 -8.5 53 -16.5q24 8 34.5 16t10.5 21
q0 12 -14.5 20t-42.5 8t-42 -8t-14 -19q0 -13 15 -21.5zM349.5 491.5q-21.5 9.5 -70.5 18.5q-24 -7 -37 -18.5t-13 -25.5q0 -37 70 -37q34 0 53 10t19 25q0 18 -21.5 27.5z" />
    <glyph glyph-name="nine.numr" 
d="M302.5 454.5q42.5 18.5 63.5 58.5q-30 -16 -52.5 -23.5t-49.5 -7.5q-52 0 -86 25.5t-34 73.5q0 53 45 84t111 31q75 0 116.5 -36.5t41.5 -99.5q0 -90 -63.5 -137t-195.5 -62l-21 65q82 10 124.5 28.5zM367 562q-1 68 -69 68q-29 0 -46 -12t-17 -34q0 -41 58 -41
q38 0 74 19z" />
    <glyph glyph-name="zeroinferior" unicode="&#x2080;" 
d="M414 -153q-41 -46 -114 -46t-114.5 46.5t-41.5 120.5t41.5 120t114.5 46t114 -46t41 -120q0 -75 -41 -121zM348.5 44q-15.5 23 -48.5 23q-65 0 -65 -99q0 -100 65 -100q32 0 48 23.5t16 76.5t-15.5 76z" />
    <glyph glyph-name="oneinferior" unicode="&#x2081;" 
d="M254 -12l-42 57l146 83h72v-321h-87v228z" />
    <glyph glyph-name="twoinferior" unicode="&#x2082;" 
d="M423.5 -25.5q-14.5 -23.5 -48.5 -46t-96 -52.5h170l-10 -69h-281v61q82 48 120 73t52.5 42.5t14.5 38.5q0 20 -13.5 31.5t-37.5 11.5q-49 0 -85 -43l-58 43q60 69 151 69q64 0 100 -29.5t36 -75.5q0 -31 -14.5 -54.5z" />
    <glyph glyph-name="threeinferior" unicode="&#x2083;" 
d="M405.5 109.5q35.5 -24.5 35.5 -64.5q0 -28 -16.5 -44.5t-53.5 -23.5q44 -7 64 -24t20 -52q0 -45 -42 -72.5t-116 -27.5q-44 0 -85 14t-69 43l53 45q44 -37 102 -37q33 0 49.5 11t16.5 30q0 21 -15.5 30.5t-47.5 9.5h-49l9 51h37q54 0 54 34q0 37 -53 37q-27 0 -50.5 -8
t-48.5 -26l-46 47q65 52 153 52q63 0 98.5 -24.5z" />
    <glyph glyph-name="fourinferior" unicode="&#x2084;" 
d="M322 -193v56h-180v55l130 220l74 -28l-108 -182h84l10 83h74v-83h51v-65h-51v-56h-84z" />
    <glyph glyph-name="fiveinferior" unicode="&#x2085;" 
d="M408.5 -169q-41.5 -30 -110.5 -30q-91 0 -148 54l52 46q40 -34 93 -34q31 0 47 12.5t16 35.5q0 22 -14 33.5t-40 11.5q-27 0 -59 -14h-62v182h250l-8 -66h-158v-55q33 14 66 14q52 0 84.5 -27.5t32.5 -78.5q0 -54 -41.5 -84z" />
    <glyph glyph-name="sixinferior" unicode="&#x2086;" 
d="M321 68q-82 0 -86 -86q43 38 101 38q51 0 85.5 -26t34.5 -75q0 -53 -42.5 -85.5t-107.5 -32.5q-78 0 -120 45t-42 118q0 74 46 122t130 48q61 0 108 -27l-39 -53q-28 14 -68 14zM236 -71q8 -29 23.5 -45.5t46.5 -16.5q29 0 44.5 13.5t15.5 35.5q0 47 -51 47
q-39 0 -79 -34z" />
    <glyph glyph-name="seveninferior" unicode="&#x2087;" 
d="M349 60h-191v68h285v-56l-160 -274l-84 35z" />
    <glyph glyph-name="eightinferior" unicode="&#x2088;" 
d="M426 5q-18 -16 -51 -22q43 -13 64.5 -32t21.5 -50q0 -45 -43.5 -72.5t-119.5 -27.5t-117.5 26.5t-41.5 71.5q0 57 79 77q-30 10 -45.5 27.5t-15.5 45.5q0 37 39.5 61t103.5 24q66 0 105 -24t39 -59q0 -30 -18 -46zM259 25.5q15 -8.5 53 -16.5q24 8 34.5 16t10.5 21
q0 12 -14.5 20t-42.5 8t-42 -8t-14 -19q0 -13 15 -21.5zM349.5 -70.5q-21.5 9.5 -70.5 18.5q-24 -7 -37 -18.5t-13 -25.5q0 -37 70 -37q34 0 53 10t19 25q0 18 -21.5 27.5z" />
    <glyph glyph-name="nineinferior" unicode="&#x2089;" 
d="M302.5 -107.5q42.5 18.5 63.5 58.5q-30 -16 -52.5 -23.5t-49.5 -7.5q-52 0 -86 25.5t-34 73.5q0 53 45 84t111 31q75 0 116.5 -36.5t41.5 -99.5q0 -90 -63.5 -137t-195.5 -62l-21 65q82 10 124.5 28.5zM367 0q-1 68 -69 68q-29 0 -46 -12t-17 -34q0 -41 58 -41
q38 0 74 19z" />
    <glyph glyph-name="zerosuperior" unicode="&#x2070;" 
d="M414 355q-41 -46 -114 -46t-114.5 46.5t-41.5 120.5t41.5 120t114.5 46t114 -46t41 -120q0 -75 -41 -121zM348.5 552q-15.5 23 -48.5 23q-65 0 -65 -99q0 -100 65 -100q32 0 48 23.5t16 76.5t-15.5 76z" />
    <glyph glyph-name="onesuperior" unicode="&#xb9;" 
d="M254 496l-42 57l146 83h72v-321h-87v228z" />
    <glyph glyph-name="twosuperior" unicode="&#xb2;" 
d="M423.5 482.5q-14.5 -23.5 -48.5 -46t-96 -52.5h170l-10 -69h-281v61q82 48 120 73t52.5 42.5t14.5 38.5q0 20 -13.5 31.5t-37.5 11.5q-49 0 -85 -43l-58 43q60 69 151 69q64 0 100 -29.5t36 -75.5q0 -31 -14.5 -54.5z" />
    <glyph glyph-name="threesuperior" unicode="&#xb3;" 
d="M405.5 617.5q35.5 -24.5 35.5 -64.5q0 -28 -16.5 -44.5t-53.5 -23.5q44 -7 64 -24t20 -52q0 -45 -42 -72.5t-116 -27.5q-44 0 -85 14t-69 43l53 45q44 -37 102 -37q33 0 49.5 11t16.5 30q0 21 -15.5 30.5t-47.5 9.5h-49l9 51h37q54 0 54 34q0 37 -53 37q-27 0 -50.5 -8
t-48.5 -26l-46 47q65 52 153 52q63 0 98.5 -24.5z" />
    <glyph glyph-name="foursuperior" unicode="&#x2074;" 
d="M322 315v56h-180v55l130 220l74 -28l-108 -182h84l10 83h74v-83h51v-65h-51v-56h-84z" />
    <glyph glyph-name="fivesuperior" unicode="&#x2075;" 
d="M408.5 339q-41.5 -30 -110.5 -30q-91 0 -148 54l52 46q40 -34 93 -34q31 0 47 12.5t16 35.5q0 22 -14 33.5t-40 11.5q-27 0 -59 -14h-62v182h250l-8 -66h-158v-55q33 14 66 14q52 0 84.5 -27.5t32.5 -78.5q0 -54 -41.5 -84z" />
    <glyph glyph-name="sixsuperior" unicode="&#x2076;" 
d="M321 576q-82 0 -86 -86q43 38 101 38q51 0 85.5 -26t34.5 -75q0 -53 -42.5 -85.5t-107.5 -32.5q-78 0 -120 45t-42 118q0 74 46 122t130 48q61 0 108 -27l-39 -53q-28 14 -68 14zM236 437q8 -29 23.5 -45.5t46.5 -16.5q29 0 44.5 13.5t15.5 35.5q0 47 -51 47
q-39 0 -79 -34z" />
    <glyph glyph-name="sevensuperior" unicode="&#x2077;" 
d="M349 568h-191v68h285v-56l-160 -274l-84 35z" />
    <glyph glyph-name="eightsuperior" unicode="&#x2078;" 
d="M426 513q-18 -16 -51 -22q43 -13 64.5 -32t21.5 -50q0 -45 -43.5 -72.5t-119.5 -27.5t-117.5 26.5t-41.5 71.5q0 57 79 77q-30 10 -45.5 27.5t-15.5 45.5q0 37 39.5 61t103.5 24q66 0 105 -24t39 -59q0 -30 -18 -46zM259 533.5q15 -8.5 53 -16.5q24 8 34.5 16t10.5 21
q0 12 -14.5 20t-42.5 8t-42 -8t-14 -19q0 -13 15 -21.5zM349.5 437.5q-21.5 9.5 -70.5 18.5q-24 -7 -37 -18.5t-13 -25.5q0 -37 70 -37q34 0 53 10t19 25q0 18 -21.5 27.5z" />
    <glyph glyph-name="ninesuperior" unicode="&#x2079;" 
d="M302.5 400.5q42.5 18.5 63.5 58.5q-30 -16 -52.5 -23.5t-49.5 -7.5q-52 0 -86 25.5t-34 73.5q0 53 45 84t111 31q75 0 116.5 -36.5t41.5 -99.5q0 -90 -63.5 -137t-195.5 -62l-21 65q82 10 124.5 28.5zM367 508q-1 68 -69 68q-29 0 -46 -12t-17 -34q0 -41 58 -41
q38 0 74 19z" />
    <glyph glyph-name="asterisk" unicode="*" 
d="M480 432l31 -97l-154 -32l109 -116l-84 -63l-82 138l-76 -140l-86 60l106 121l-155 32l31 97l145 -63l-17 159h104l-18 -159z" />
    <glyph glyph-name="backslash" unicode="\" 
d="M557 -66l-90 -40l-424 877l89 41z" />
    <glyph glyph-name="periodcentered" unicode="&#xb7;" 
d="M231 410.5q28 28.5 68 28.5q41 0 69.5 -28.5t28.5 -68.5q0 -41 -28.5 -69t-69.5 -28q-40 0 -68 28t-28 69q0 40 28 68.5z" />
    <glyph glyph-name="bullet" unicode="&#x2022;" 
d="M207.5 249.5q-37.5 37.5 -37.5 92.5t37 92t93 37t93 -37t37 -93q0 -55 -37 -92t-93 -37q-55 0 -92.5 37.5z" />
    <glyph glyph-name="colon" unicode=":" 
d="M235.5 495.5q26.5 26.5 63.5 26.5q39 0 65 -26.5t26 -63.5t-26 -63.5t-65 -26.5q-37 0 -63.5 26.5t-26.5 63.5t26.5 63.5zM235.5 140q26.5 26 63.5 26q39 0 65 -26t26 -63q0 -38 -26 -64t-65 -26q-37 0 -63.5 26.5t-26.5 63.5t26.5 63z" />
    <glyph glyph-name="comma" unicode="," 
d="M365.5 154q26.5 -26 26.5 -64q0 -22 -6.5 -44t-22.5 -58l-77 -177h-87l48 204q-18 12 -28 32t-10 43q0 38 26.5 64t64.5 26q39 0 65.5 -26z" />
    <glyph glyph-name="ellipsis" unicode="&#x2026;" 
d="M46.5 113q21.5 22 52.5 22t53 -22t22 -53t-22 -52.5t-53 -21.5t-52.5 21.5t-21.5 52.5t21.5 53zM247 113q22 22 53 22t52.5 -22t21.5 -53t-21.5 -52.5t-52.5 -21.5t-53 21.5t-22 52.5t22 53zM447.5 113q21.5 22 52.5 22t53 -22t22 -53t-22 -52.5t-53 -21.5t-52.5 21.5
t-21.5 52.5t21.5 53z" />
    <glyph glyph-name="exclam" unicode="!" 
d="M251 238l-14 452h123l-13 -452h-96zM354 116q22 -22 22 -53q0 -32 -22 -54t-55 -22q-31 0 -53 22t-22 54q0 31 22 53t53 22q33 0 55 -22z" />
    <glyph glyph-name="exclamdown" unicode="&#xa1;" 
d="M353.5 481.5q22.5 -22.5 22.5 -54.5q0 -31 -22.5 -53t-54.5 -22q-31 0 -53 22t-22 53q0 32 22 54.5t53 22.5q32 0 54.5 -22.5zM237 -200l16 452h93l16 -452h-125z" />
    <glyph glyph-name="numbersign" unicode="#" 
d="M517 240v-80h-85l-20 -160h-95l22 160h-127l-21 -160h-94l21 160h-72v80h82l29 212h-74v81h85l20 157h95l-22 -157h127l21 157h94l-21 -157h72v-81h-83l-28 -212h74zM378 452h-127l-28 -212h126z" />
    <glyph glyph-name="period" unicode="." 
d="M231 152q28 28 68 28q41 0 69.5 -28t28.5 -68q0 -41 -28.5 -69t-69.5 -28q-40 0 -68 28t-28 69q0 40 28 68z" />
    <glyph glyph-name="question" unicode="?" 
d="M410.5 682q47.5 -22 72.5 -59t25 -79q0 -39 -13.5 -66.5t-32.5 -45t-51 -40.5q-29 -21 -45.5 -36t-28 -37t-11.5 -52v-29h-108v34q0 43 14.5 74t35 50.5t52.5 43.5q36 26 53.5 46t17.5 50q0 36 -29 56.5t-75 20.5q-36 0 -71.5 -17t-63.5 -52l-75 58q87 102 221 102
q65 0 112.5 -22zM328.5 116q22.5 -22 22.5 -53q0 -32 -22.5 -54t-54.5 -22q-31 0 -53 22t-22 54q0 31 22 53t53 22q32 0 54.5 -22z" />
    <glyph glyph-name="questiondown" unicode="&#xbf;" 
d="M375 481.5q22 -22.5 22 -54.5q0 -31 -22 -53t-54 -22q-31 0 -53 22t-22 53q0 32 22 54.5t53 22.5q32 0 54 -22.5zM363.5 142.5q-14.5 -30.5 -35 -50t-52.5 -43.5q-37 -28 -54 -47.5t-17 -49.5q0 -36 29 -56.5t75 -20.5q36 0 71 17.5t64 51.5l75 -57q-86 -103 -221 -103
q-65 0 -112.5 22t-72.5 59t-25 79q0 39 13.5 66.5t32.5 45.5t51 40q43 31 64.5 57t21.5 70v29h107v-36q0 -43 -14.5 -73.5z" />
    <glyph glyph-name="quotedbl" unicode="&#x22;" 
d="M273 740l-17 -267h-89l-17 267h123zM450 740l-17 -267h-89l-17 267h123z" />
    <glyph glyph-name="quotesingle" unicode="'" 
d="M361 740l-17 -267h-88l-17 267h122z" />
    <glyph glyph-name="semicolon" unicode=";" 
d="M364 495.5q26 -26.5 26 -63.5t-26 -63.5t-65 -26.5q-37 0 -63.5 26.5t-26.5 63.5t26.5 63.5t63.5 26.5q39 0 65 -26.5zM364 152q26 -26 26 -64q0 -21 -6.5 -43t-21.5 -57l-77 -175h-86l48 201q-17 12 -27.5 32t-10.5 42q0 38 26 64t64 26q39 0 65 -26z" />
    <glyph glyph-name="slash" unicode="/" 
d="M468 812l89 -41l-424 -877l-90 40z" />
    <glyph glyph-name="underscore" unicode="_" 
d="M594 -90v-93h-588v93h588z" />
    <glyph glyph-name="underscoredbl" unicode="&#x2017;" 
d="M6 -79v79h588v-79h-588zM6 -215v79h588v-79h-588z" />
    <glyph glyph-name="exclamdown.case" 
d="M354 681.5q22 -22.5 22 -54.5q0 -31 -22 -53t-54 -22q-31 0 -53.5 22t-22.5 53q0 32 22 54.5t54 22.5t54 -22.5zM238 0l16 451h93l16 -451h-125z" />
    <glyph glyph-name="questiondown.case" 
d="M375 681.5q22 -22.5 22 -54.5q0 -31 -22 -53t-54 -22q-31 0 -53 22t-22 53q0 32 22 54.5t53 22.5q32 0 54 -22.5zM363.5 344q-14.5 -31 -34.5 -50t-53 -43q-36 -26 -53.5 -46t-17.5 -50q0 -36 28.5 -56.5t74.5 -20.5q37 0 73 17t64 51l75 -58q-87 -101 -222 -101
q-65 0 -112.5 22t-72.5 58.5t-25 78.5q0 39 13.5 66.5t32.5 45.5t51 40q43 31 64.5 57t21.5 70v29h107v-36q0 -43 -14.5 -74z" />
    <glyph glyph-name="numbersign.tosf" 
d="M517 240v-80h-85l-20 -160h-95l22 160h-127l-21 -160h-94l21 160h-72v80h82l29 212h-74v81h85l20 157h95l-22 -157h127l21 157h94l-21 -157h72v-81h-83l-28 -212h74zM378 452h-127l-28 -212h126z" />
    <glyph glyph-name="uni208D" unicode="&#x208d;" 
d="M312.5 -144.5q17.5 -46.5 62.5 -113.5l-52 -37q-59 69 -87 127t-28 140q0 83 28 141t87 127l52 -37q-45 -68 -62.5 -114t-17.5 -117q0 -70 17.5 -116.5z" />
    <glyph glyph-name="uni208E" unicode="&#x208e;" 
d="M286.5 89q-17.5 46 -62.5 114l52 37q59 -69 87 -127t28 -141q0 -82 -28 -140t-87 -127l-52 37q45 67 62.5 113.5t17.5 116.5q0 71 -17.5 117z" />
    <glyph glyph-name="braceleft" unicode="{" 
d="M370.5 737.5q-30.5 -16.5 -26.5 -56.5l19 -183q1 -9 1 -25q0 -55 -30 -84t-88 -39q60 -10 89 -37.5t29 -84.5q0 -17 -1 -26l-19 -183q-4 -40 26.5 -56.5t86.5 -16.5v-83q-105 0 -161.5 32.5t-56.5 110.5q0 16 1 24l19 172q1 5 1 15q0 46 -34 67t-113 21v90q79 0 113 21
t34 67q0 10 -1 15l-19 172q-1 8 -1 24q0 78 56.5 110.5t161.5 32.5v-83q-56 0 -86.5 -16.5z" />
    <glyph glyph-name="braceright" unicode="}" 
d="M304.5 804.5q56.5 -32.5 56.5 -110.5q0 -16 -1 -24l-19 -172l-1 -14q0 -46 35.5 -67.5t111.5 -21.5v-90q-76 0 -111.5 -21.5t-35.5 -67.5l1 -14l19 -172q1 -8 1 -24q0 -78 -56.5 -110.5t-161.5 -32.5v83q56 0 86.5 16.5t26.5 56.5l-19 183q-1 9 -1 25q0 57 30.5 85
t94.5 37q-63 11 -94 39.5t-31 84.5q0 16 1 25l19 183q4 40 -26.5 56.5t-86.5 16.5v83q105 0 161.5 -32.5z" />
    <glyph glyph-name="bracketleft" unicode="[" 
d="M446 818v-89h-167v-759h167v-88h-273v936h273z" />
    <glyph glyph-name="bracketright" unicode="]" 
d="M154 -118v89h167v758h-167v89h273v-936h-273z" />
    <glyph glyph-name="parenleft" unicode="(" 
d="M252 183q21 -72 65 -134.5t119 -135.5l-63 -60q-130 109 -194 223t-64 274t64 274t194 223l63 -60q-74 -71 -118 -133.5t-65.5 -135.5t-21.5 -168t21 -167z" />
    <glyph glyph-name="parenright" unicode=")" 
d="M347.5 518q-21.5 73 -65.5 135.5t-118 133.5l63 60q130 -109 194 -223t64 -274t-64 -274t-194 -223l-63 60q75 73 119 135.5t65 134.5t21 167t-21.5 168z" />
    <glyph glyph-name="parenleftsuperior" unicode="&#x207d;" 
d="M316.5 363.5q17.5 -46.5 62.5 -113.5l-52 -37q-59 69 -87 127t-28 140q0 83 28 141t87 127l52 -37q-45 -68 -62.5 -114t-17.5 -117q0 -70 17.5 -116.5z" />
    <glyph glyph-name="parenrightsuperior" unicode="&#x207e;" 
d="M283.5 597q-17.5 46 -62.5 114l52 37q59 -69 87 -127t28 -141q0 -82 -28 -140t-87 -127l-52 37q45 67 62.5 113.5t17.5 116.5q0 71 -17.5 117z" />
    <glyph glyph-name="braceleft.case" 
d="M370.5 727.5q-30.5 -16.5 -26.5 -56.5l19 -183q1 -9 1 -25q0 -55 -30 -84t-88 -39q60 -10 89 -37.5t29 -84.5q0 -17 -1 -26l-19 -183q-4 -40 26.5 -56.5t86.5 -16.5v-83q-105 0 -161.5 32.5t-56.5 110.5q0 16 1 24l19 172q1 5 1 15q0 46 -34 67t-113 21v90q79 0 113 21
t34 67q0 10 -1 15l-19 172q-1 8 -1 24q0 78 56.5 110.5t161.5 32.5v-83q-56 0 -86.5 -16.5z" />
    <glyph glyph-name="braceright.case" 
d="M304.5 794.5q56.5 -32.5 56.5 -110.5q0 -16 -1 -24l-19 -172l-1 -14q0 -46 35.5 -67.5t111.5 -21.5v-90q-76 0 -111.5 -21.5t-35.5 -67.5l1 -14l19 -172q1 -8 1 -24q0 -78 -56.5 -110.5t-161.5 -32.5v83q56 0 86.5 16.5t26.5 56.5l-19 183q-1 9 -1 25q0 57 30.5 85
t94.5 37q-63 11 -94 39.5t-31 84.5q0 16 1 25l19 183q4 40 -26.5 56.5t-86.5 16.5v83q105 0 161.5 -32.5z" />
    <glyph glyph-name="bracketleft.case" 
d="M446 808v-89h-167v-759h167v-88h-273v936h273z" />
    <glyph glyph-name="bracketright.case" 
d="M154 -128v89h167v758h-167v89h273v-936h-273z" />
    <glyph glyph-name="parenleft.case" 
d="M252 173q21 -72 65 -134.5t119 -135.5l-63 -60q-130 109 -194 223t-64 274t64 274t194 223l63 -60q-74 -71 -118 -133.5t-65.5 -135.5t-21.5 -168t21 -167z" />
    <glyph glyph-name="parenright.case" 
d="M347.5 508q-21.5 73 -65.5 135.5t-118 133.5l63 60q130 -109 194 -223t64 -274t-64 -274t-194 -223l-63 60q75 73 119 135.5t65 134.5t21 167t-21.5 168z" />
    <glyph glyph-name="parenleft.dnom" 
d="M312.5 48.5q17.5 -46.5 62.5 -113.5l-52 -37q-59 69 -87 127t-28 140q0 83 28 141t87 127l52 -37q-45 -68 -62.5 -114t-17.5 -117q0 -70 17.5 -116.5z" />
    <glyph glyph-name="parenright.dnom" 
d="M286.5 282q-17.5 46 -62.5 114l52 37q59 -69 87 -127t28 -141q0 -82 -28 -140t-87 -127l-52 37q45 67 62.5 113.5t17.5 116.5q0 71 -17.5 117z" />
    <glyph glyph-name="parenleft.numr" 
d="M316.5 418.5q17.5 -46.5 62.5 -113.5l-52 -37q-59 69 -87 127t-28 140q0 83 28 141t87 127l52 -37q-45 -68 -62.5 -114t-17.5 -117q0 -70 17.5 -116.5z" />
    <glyph glyph-name="parenright.numr" 
d="M283.5 652q-17.5 46 -62.5 114l52 37q59 -69 87 -127t28 -141q0 -82 -28 -140t-87 -127l-52 37q45 67 62.5 113.5t17.5 116.5q0 71 -17.5 117z" />
    <glyph glyph-name="uni2015" unicode="&#x2015;" 
d="M570 399v-92h-539v92h539z" />
    <glyph glyph-name="emdash" unicode="&#x2014;" 
d="M600 359v-92h-600v92h600z" />
    <glyph glyph-name="endash" unicode="&#x2013;" 
d="M570 359v-92h-539v92h539z" />
    <glyph glyph-name="figuredash" unicode="&#x2012;" 
d="M566 361v-92h-532v92h532z" />
    <glyph glyph-name="hyphen" unicode="-" 
d="M482 359v-92h-363v92h363z" />
    <glyph glyph-name="softhyphen" unicode="&#xad;" 
d="M459 359v-92h-318v92h318z" />
    <glyph glyph-name="emdash.case" 
d="M600 399v-92h-600v92h600z" />
    <glyph glyph-name="endash.case" 
d="M570 399v-92h-539v92h539z" />
    <glyph glyph-name="hyphen.case" 
d="M482 399v-92h-363v92h363z" />
    <glyph glyph-name="softhyphen.case" 
d="M459 399v-92h-318v92h318z" />
    <glyph glyph-name="figuredash.tosf" 
d="M566 361v-92h-532v92h532z" />
    <glyph glyph-name="guillemotleft" unicode="&#xab;" 
d="M71 253v76l173 213l66 -42l-127 -209l127 -209l-66 -42zM288 253v76l175 213l66 -42l-128 -209l128 -209l-66 -42z" />
    <glyph glyph-name="guillemotright" unicode="&#xbb;" 
d="M137 542l173 -213v-76l-173 -213l-66 42l127 209l-127 209zM354 542l175 -213v-76l-175 -213l-66 42l128 209l-128 209z" />
    <glyph glyph-name="guilsinglleft" unicode="&#x2039;" 
d="M176 253v76l180 213l68 -44l-132 -207l132 -206l-68 -45z" />
    <glyph glyph-name="guilsinglright" unicode="&#x203a;" 
d="M244 542l180 -213v-76l-180 -213l-68 45l132 206l-132 207z" />
    <glyph glyph-name="quotedblbase" unicode="&#x201e;" 
d="M135.5 118.5q24.5 23.5 58.5 23.5q35 0 59 -23t24 -57q0 -18 -5 -35t-18 -46l-78 -163h-75l42 181q-32 24 -32 63q0 33 24.5 56.5zM357.5 118.5q24.5 23.5 58.5 23.5q35 0 58.5 -23t23.5 -57q0 -18 -5 -36t-18 -45l-78 -163h-74l42 181q-32 24 -32 63q0 33 24.5 56.5z
" />
    <glyph glyph-name="quotedblleft" unicode="&#x201c;" 
d="M242 488q-24 -23 -59 -23t-58.5 23t-23.5 57q0 16 5 34.5t18 46.5l77 163h75l-41 -181q31 -23 31 -63q0 -34 -24 -57zM464.5 488.5q-24.5 -23.5 -58.5 -23.5q-35 0 -58.5 23t-23.5 57q0 17 4.5 35t17.5 46l78 163h75l-42 -181q32 -24 32 -63q0 -33 -24.5 -56.5z" />
    <glyph glyph-name="quotedblright" unicode="&#x201d;" 
d="M135 768.5q24 22.5 59 22.5t59 -22.5t24 -56.5q0 -17 -5.5 -33.5t-19.5 -47.5l-77 -163h-75l41 181q-30 23 -30 63q0 34 24 56.5zM357.5 768q24.5 23 58.5 23q35 0 59 -22.5t24 -56.5q0 -18 -5 -35t-19 -46l-78 -163h-74l42 181q-32 24 -32 63q0 33 24.5 56z" />
    <glyph glyph-name="quoteleft" unicode="&#x2018;" 
d="M353 488q-24 -23 -59 -23t-58.5 23t-23.5 57q0 16 5 34.5t18 46.5l78 163h75l-42 -181q31 -23 31 -63q0 -34 -24 -57z" />
    <glyph glyph-name="quoteright" unicode="&#x2019;" 
d="M246 766q24 23 59 23t59 -23t24 -57q0 -16 -5 -33.5t-19 -46.5l-78 -164h-75l42 182q-15 10 -23 26t-8 36q0 34 24 57z" />
    <glyph glyph-name="quotesinglbase" unicode="&#x201a;" 
d="M246.5 118.5q24.5 23.5 58.5 23.5q35 0 59 -23t24 -57q0 -17 -5 -34t-19 -47l-78 -163h-75l42 181q-31 23 -31 63q0 33 24.5 56.5z" />
    <glyph glyph-name="guillemotleft.case" 
d="M71 298v76l173 213l66 -42l-127 -209l127 -209l-66 -42zM288 298v76l175 213l66 -42l-128 -209l128 -209l-66 -42z" />
    <glyph glyph-name="guillemotright.case" 
d="M137 587l173 -213v-76l-173 -213l-66 42l127 209l-127 209zM354 587l175 -213v-76l-175 -213l-66 42l128 209l-128 209z" />
    </font>
</defs>
</svg>
