<?xml version="1.0" standalone="no"?>
<!DOCTYPE svg PUBLIC "-//W3C//DTD SVG 1.1//EN" "http://www.w3.org/Graphics/SVG/1.1/DTD/svg11.dtd" >
<svg>
<metadata>
Created by FontForge 20120731 at Fri Aug  1 16:50:30 2014
 By Alfred Xing
Copyright (c) 2011-2013 by Cyreal (www.cyreal.org a@cyreal.org). All rights reserved.
</metadata>
<defs>
<font id="Lora-Bold" horiz-adv-x="1368" >
  <font-face 
    font-family="Lora"
    font-weight="700"
    font-stretch="normal"
    units-per-em="2048"
    panose-1="2 0 8 3 0 0 0 2 0 4"
    ascent="1638"
    descent="-410"
    x-height="1024"
    cap-height="1434"
    bbox="-230.998 -582.007 2619 2061"
    underline-thickness="102"
    underline-position="-103"
    unicode-range="U+000D-FB02"
  />
<missing-glyph horiz-adv-x="1083" 
d="M62 1024h928v-1024h-928v1024zM332 147h388v730h-388v-730z" />
    <glyph glyph-name=".notdef" horiz-adv-x="1083" 
d="M62 1024h928v-1024h-928v1024zM332 147h388v730h-388v-730z" />
    <glyph glyph-name="nonmarkingreturn" unicode="&#xd;" horiz-adv-x="539" 
 />
    <glyph glyph-name="space" unicode=" " horiz-adv-x="539" 
 />
    <glyph glyph-name="exclam" unicode="!" horiz-adv-x="528" 
d="M412 126c0 -22 -4.16406 -42.667 -12.4971 -62s-19.5 -36.166 -33.5 -50.499s-30 -25.666 -48 -33.999s-36.667 -12.5 -56 -12.5c-20 0 -38.833 4.16699 -56.5 12.5s-33.334 19.666 -47.001 33.999s-24.334 31.166 -32.001 50.499s-11.5 40 -11.5 62s4 42.833 12 62.5
s18.833 36.834 32.5 51.501s29.5 26.167 47.5 34.5s37 12.5 57 12.5c21.333 0 41 -4.16699 59 -12.5s33.667 -19.833 47 -34.5s23.666 -31.834 30.999 -51.501s11 -40.5 11 -62.5zM333.003 437h-138.997l-77 844c-2 22 -0.333008 44 5 66s14.166 41.833 26.499 59.5
s28.166 32.167 47.499 43.5s42 17 68 17c27.333 0 50.666 -5.66699 69.999 -17s35 -25.833 47 -43.5s20.333 -37.5 25 -59.5s6 -44 4 -66z" />
    <glyph glyph-name="quotedbl" unicode="&#x22;" horiz-adv-x="667" 
d="M105 1006l-17 461h198l-17 -461h-164zM398 1006l-17 461h198l-17 -461h-164z" />
    <glyph glyph-name="numbersign" unicode="#" horiz-adv-x="1784" 
d="M332 -33l83 348h-340l43 182h335l102 404h-345l43 182h341l91 384h205l-88 -384h355l91 384h205l-88 -384h343v-2l-41 -180h-340l-97 -404h342l-42 -182h-337l-80 -348h-218l83 348h-349l-80 -348h-217zM666 497h350l102 404h-354z" />
    <glyph glyph-name="dollar" unicode="$" horiz-adv-x="1205" 
d="M618 115c36.667 0 68.999 5.16602 96.999 15.499s51.667 24.666 71 42.999s34 40 44 65s15 52.167 15 81.5c0 34.667 -8.33301 64.167 -25 88.5s-38.667 45.833 -66 64.5s-59.166 35.5 -95.499 50.5s-73.833 30.5 -112.5 46.5c-59.333 24 -115.666 51.333 -168.999 82
s-100.333 66.167 -141 106.5s-73 86.5 -97 138.5s-36 111.667 -36 179c0 40 6 82 18 126s33.333 85 64 123s72.5 70 125.5 96s120.5 41 202.5 45v248h192l-2 -268c60.667 -16 115.667 -41.667 165 -77h2l-7 84h158v-479h-134c-18.667 114.667 -53.667 200.834 -105 258.501
s-124.666 86.5 -219.999 86.5c-29.333 0 -55.833 -4.33301 -79.5 -13s-43.834 -20.834 -60.501 -36.501s-29.667 -34.334 -39 -56.001s-14 -45.167 -14 -70.5c0 -32 5.16699 -60 15.5 -84s27.666 -46.5 51.999 -67.5s56.333 -42 96 -63s88.834 -44.833 147.501 -71.5
c34 -15.333 68.333 -31.5 103 -48.5s68.167 -35.833 100.5 -56.5s62.833 -43.167 91.5 -67.5s53.5 -51.666 74.5 -81.999s37.667 -63.833 50 -100.5s18.5 -77.334 18.5 -122.001c0 -53.333 -8.66699 -102.833 -26 -148.5s-42.5 -86.167 -75.5 -121.5
s-73.833 -64.666 -122.5 -87.999s-104.334 -39.333 -167.001 -48l-1 -289h-187l-2 289c-44 6.66699 -88 17.834 -132 33.501s-86.333 35.834 -127 60.501h-2l7 -87h-158v479h134c18.667 -116 59 -202.5 121 -259.5s141.333 -85.5 238 -85.5z" />
    <glyph glyph-name="percent" unicode="%" horiz-adv-x="1852" 
d="M335 1089c0 -25.333 1.99707 -53.1689 5.99707 -83.502s11 -58.5 21 -84.5s24 -47.833 42 -65.5s41 -26.5 69 -26.5c24.667 0 45.5 6.83301 62.5 20.5s30.5 31.167 40.5 52.5s17.167 44.833 21.5 70.5s6.5 50.5 6.5 74.5c0 26.667 -2.16699 55.334 -6.5 86.001
s-11.666 59 -21.999 85s-24.166 47.667 -41.499 65s-39 26 -65 26s-47.667 -7.83301 -65 -23.5s-31.166 -34.667 -41.499 -57s-17.5 -46.166 -21.5 -71.499s-6 -48 -6 -68zM1578 1332l-1183 -1366l-133 124l1167 1377zM83.9971 1059c0 47.333 8.66797 95.334 26.001 144.001
s42.5 92.5 75.5 131.5s73.5 70.833 121.5 95.5s103 37 165 37s116.833 -11.5 164.5 -34.5s87.667 -53 120 -90s56.833 -78.833 73.5 -125.5s25 -93.334 25 -140.001c0 -54 -9.83301 -105.833 -29.5 -155.5s-46.834 -93.5 -81.501 -131.5s-75.167 -68.333 -121.5 -91
s-96.5 -34 -150.5 -34c-63.333 0 -119 11 -167 33s-88.5 51.333 -121.5 88s-57.833 78.667 -74.5 126s-25 96.333 -25 147zM1250 390.998c0 -25.333 1.99707 -53.1689 5.99707 -83.502s11 -58.5 21 -84.5s24 -47.833 42 -65.5s41 -26.5 69 -26.5
c24.667 0 45.5 6.83301 62.5 20.5s30.5 31.167 40.5 52.5s17.167 44.833 21.5 70.5s6.5 50.5 6.5 74.5c0 26.667 -2.16699 55.334 -6.5 86.001s-11.666 59 -21.999 85s-24.166 47.667 -41.499 65s-39 26 -65 26s-47.667 -7.83301 -65 -23.5s-31.166 -34.667 -41.499 -57
s-17.5 -46.166 -21.5 -71.499s-6 -48 -6 -68zM998.995 360.995c0 47.333 8.66797 95.334 26.001 144.001s42.5 92.5 75.5 131.5s74 70.833 123 95.5s103.5 37 163.5 37c62 0 116.833 -11.5 164.5 -34.5s87.667 -53 120 -90s56.833 -78.833 73.5 -125.5
s25 -93.334 25 -140.001c0 -54 -9.83301 -105.833 -29.5 -155.5s-46.834 -93.5 -81.501 -131.5s-75.167 -68.333 -121.5 -91s-96.5 -34 -150.5 -34c-63.333 0 -119 11 -167 33s-88.5 51.333 -121.5 88s-57.833 78.667 -74.5 126s-25 96.333 -25 147z" />
    <glyph glyph-name="ampersand" unicode="&#x26;" horiz-adv-x="1372" 
d="M1139 536c0 -79.333 -13.334 -152.997 -40.001 -220.997l32 -27c26 -22 51.167 -42.5 75.5 -61.5s47.166 -35.167 68.499 -48.5s41 -23.833 59 -31.5s34 -11.5 48 -11.5v-135h-218c-12.667 0 -37.334 10 -74.001 30s-79.334 49 -128.001 87
c-54 -48 -116.667 -85 -188 -111s-151 -39 -239 -39c-59.333 0 -118.166 7.33301 -176.499 22s-110.5 37.5 -156.5 68.5s-83.167 70.5 -111.5 118.5s-42.5 105.667 -42.5 173c0 46 8 89.333 24 130s38.167 78 66.5 112s62 64.333 101 91s81.5 48.667 127.5 66
c-36.667 40 -66.167 77 -88.5 111s-39.5 66.167 -51.5 96.5s-19.833 59.666 -23.5 87.999s-5.5 56.833 -5.5 85.5c0.666992 51.333 10.5 97.833 29.5 139.5s45.5 77.167 79.5 106.5s74.833 52 122.5 68s100.834 24 159.501 24c54 0 103 -8.66699 147 -26
s81.5 -40.833 112.5 -70.5s55 -64 72 -103s25.5 -79.833 25.5 -122.5c0 -42 -8.16699 -82.333 -24.5 -121s-38.333 -75 -66 -109s-59.167 -65.167 -94.5 -93.5s-72 -53.5 -110 -75.5c4 -4.66699 16.167 -17.5 36.5 -38.5s45.833 -46.833 76.5 -77.5
s64.834 -64.334 102.501 -101.001s75.834 -73 114.501 -109h2c4 16 6.83301 32.667 8.5 50s2.5 34.666 2.5 51.999c0 28 -2.33301 51.667 -7 71s-11.5 35.166 -20.5 47.499s-20.333 21.333 -34 27s-29.5 9.16699 -47.5 10.5v131h344v-154
c-13.333 0.666992 -30 1.83398 -50 3.50098s-40.667 3.16699 -62 4.5v-2c14.667 -32 22 -73.667 22 -125zM600.999 113.003c50.667 0 97.498 8.5 140.498 25.5s81.5 40.5 115.5 70.5l-103 93c-39.333 35.333 -74.666 67.833 -105.999 97.5s-60 57.667 -86 84
s-50 51.5 -72 75.5s-43.333 48 -64 72c-19.333 -16 -35.5 -34.333 -48.5 -55s-23.333 -41.5 -31 -62.5s-13.167 -41.5 -16.5 -61.5s-5 -37.333 -5 -52c0 -94 24.333 -165.333 73 -214s116.334 -73 203.001 -73zM442.997 1139c0 -20.667 3.00195 -43.332 9.00195 -67.999
s14.167 -49.667 24.5 -75s22.666 -50.166 36.999 -74.499s29.833 -46.5 46.5 -66.5c26 20 48.5 42.833 67.5 68.5s35 52.167 48 79.5s22.667 54.166 29 80.499s9.5 50.166 9.5 71.499c0 50 -11.833 90.333 -35.5 121s-56.834 46 -99.501 46c-38.667 0 -71 -15.5 -97 -46.5
s-39 -76.5 -39 -136.5z" />
    <glyph glyph-name="quotesingle" unicode="'" horiz-adv-x="386" 
d="M106 1006l-19 461h212l-18 -461h-175z" />
    <glyph glyph-name="parenleft" unicode="(" horiz-adv-x="607" 
d="M327 489c0 -30.667 1.49902 -69.4951 4.49902 -116.495s8.16699 -98.833 15.5 -155.5s17.333 -116.334 30 -179.001s28.5 -124.834 47.5 -186.501s41.833 -121.334 68.5 -179.001s57.667 -109.834 93 -156.501l-74 -71c-34 31.333 -69 68.166 -105 110.499
s-71 89.5 -105 141.5s-66.333 108.333 -97 169s-57.5 124.5 -80.5 191.5s-41.167 136.667 -54.5 209s-20 146.5 -20 222.5c0 75.333 6.66699 149.833 20 223.5s31.333 144.834 54 213.501s49.334 134.334 80.001 197.001s63 121 97 175s69 102.833 105 146.5
s71 80.834 105 111.501l75 -71c-35.333 -46.667 -66.333 -99.334 -93 -158.001s-49.5 -119.834 -68.5 -183.501s-34.833 -127.834 -47.5 -192.501s-22.667 -126.167 -30 -184.5s-12.5 -111.5 -15.5 -159.5s-4.5 -87.333 -4.5 -118z" />
    <glyph glyph-name="parenright" unicode=")" horiz-adv-x="607" 
d="M280 512c0 30.667 -1.49902 69.4951 -4.49902 116.495s-8.16699 98.833 -15.5 155.5s-17.333 116.334 -30 179.001s-28.5 124.834 -47.5 186.501s-41.833 121.334 -68.5 179.001s-57.667 109.834 -93 156.501l74 71c34 -31.333 69 -68.166 105 -110.499
s71 -89.5 105 -141.5s66.333 -108.333 97 -169s57.5 -124.5 80.5 -191.5s41.167 -136.667 54.5 -209s20 -146.5 20 -222.5c0 -75.333 -6.66699 -149.833 -20 -223.5s-31.333 -144.834 -54 -213.501s-49.334 -134.334 -80.001 -197.001s-63 -121 -97 -175
s-69 -102.833 -105 -146.5s-71 -80.834 -105 -111.501l-75 71c35.333 46.667 66.333 99.334 93 158.001s49.5 119.834 68.5 183.501s34.833 127.834 47.5 192.501s22.667 126.167 30 184.5s12.5 111.5 15.5 159.5s4.5 87.333 4.5 118z" />
    <glyph glyph-name="asterisk" unicode="*" horiz-adv-x="1092" 
d="M497 1060c-20 60.667 -34.5068 112.166 -43.5068 154.499s-13.5 77.5 -13.5 105.5c0 18 1.33301 35.667 4 53s8 33 16 47s19 25.333 33 34s32 13 54 13s39.833 -4.33301 53.5 -13s24.5 -20 32.5 -34s13.333 -29.667 16 -47s4 -35 4 -53c0 -28.667 -4.5 -64 -13.5 -106
s-23.5 -93.333 -43.5 -154c39.333 28.667 74 52.5 104 71.5s57 34.167 81 45.5s45.5 19.333 64.5 24s37.167 7 54.5 7c10.667 0 22.167 -1.83301 34.5 -5.5s23.666 -9.5 33.999 -17.5s18.833 -18.833 25.5 -32.5s10 -30.5 10 -50.5c0 -15.333 -3.16699 -28.833 -9.5 -40.5
s-14.666 -22 -24.999 -31s-22.333 -16.833 -36 -23.5s-27.5 -12 -41.5 -16c-29.333 -9.33301 -65 -16 -107 -20s-95 -6 -159 -6c52 -38 94 -71.167 126 -99.5s56.333 -53.833 73 -76.5c12 -16.667 22.333 -34.167 31 -52.5s13 -36.166 13 -53.499
c0 -10.667 -2.66699 -21.667 -8 -33s-12.666 -21.833 -21.999 -31.5s-20.333 -17.667 -33 -24s-26 -9.5 -40 -9.5c-23.333 0 -44.5 7.83301 -63.5 23.5s-35.5 33.5 -49.5 53.5c-17.333 24 -34.666 55.667 -51.999 95s-35.333 89.333 -54 150
c-20 -61.333 -38.667 -111.333 -56 -150s-34.666 -69.667 -51.999 -93c-15.333 -20.667 -32.166 -39 -50.499 -55s-39.166 -24 -62.499 -24c-14 0 -27.167 3.16699 -39.5 9.5s-23.166 14.166 -32.499 23.499s-16.666 19.833 -21.999 31.5s-8 22.834 -8 33.501
c0 19.333 4.16699 38.833 12.5 58.5s22 40.834 41 63.501s43.833 47 74.5 73s68.667 55 114 87c-65.333 0 -118.833 2.16699 -160.5 6.5s-76.5 11.166 -104.5 20.499c-14.667 4.66699 -28.834 10.167 -42.501 16.5s-25.667 14 -36 23s-18.666 19.333 -24.999 31
s-9.5 25.167 -9.5 40.5c0 20 3.16699 36.833 9.5 50.5s14.5 24.5 24.5 32.5s21 13.833 33 17.5s23.667 5.5 35 5.5c18 0 36.833 -2.5 56.5 -7.5s41.667 -13.333 66 -25s51.5 -27 81.5 -46s64.333 -42.5 103 -70.5z" />
    <glyph glyph-name="plus" unicode="+" horiz-adv-x="1078" 
d="M82 748l353 -2v366h202v-366l359 -2v-188l-359 -1v-387h-202v386l-353 -1v195z" />
    <glyph glyph-name="comma" unicode="," horiz-adv-x="512" 
d="M425 65c0 -66.667 -15.168 -138.167 -45.501 -214.5s-77.833 -153.833 -142.5 -232.5l-79 57c10.667 14 22.834 33 36.501 57s26.5 50.667 38.5 80s22 60.166 30 92.499s12 63.5 12 93.5c-10 -3.33301 -18 -5.33301 -24 -6s-12.667 -1 -20 -1
c-18 0 -35.5 2.66699 -52.5 8s-32 13.5 -45 24.5s-23.5 25 -31.5 42s-12 37.5 -12 61.5c0 20.667 3.66699 40.334 11 59.001s17.666 35 30.999 49s29.333 25.167 48 33.5s39.667 12.5 63 12.5c30.667 0 57.334 -5.5 80.001 -16.5s41.5 -26.333 56.5 -46
s26.333 -42.667 34 -69s11.5 -54.5 11.5 -84.5z" />
    <glyph glyph-name="hyphen" unicode="-" horiz-adv-x="964" 
d="M105 753h754v-214l-754 -7v221z" />
    <glyph glyph-name="period" unicode="." horiz-adv-x="478" 
d="M387 126c0 -22 -3.49902 -42.667 -10.499 -62s-16.667 -36.166 -29 -50.499s-27.5 -25.666 -45.5 -33.999s-38 -12.5 -60 -12.5c-22.667 0 -43.334 4.16699 -62.001 12.5s-34.667 19.666 -48 33.999s-23.666 31.166 -30.999 50.499s-11 40 -11 62s4 42.833 12 62.5
s18.833 36.834 32.5 51.501s29.5 26.167 47.5 34.5s37 12.5 57 12.5c21.333 0 41 -4.16699 59 -12.5s33.667 -19.833 47 -34.5s23.666 -31.834 30.999 -51.501s11 -40.5 11 -62.5z" />
    <glyph glyph-name="slash" unicode="/" horiz-adv-x="1432" 
d="M1381 1427l-1170 -1982l-159 105l1143 1997z" />
    <glyph glyph-name="zero" unicode="0" horiz-adv-x="1302" 
d="M400 753c0 -47.333 0.998047 -96.168 2.99805 -146.501s6.33301 -99.166 13 -146.499s16 -92.166 28 -134.499s27.667 -79.333 47 -111s43.166 -56.667 71.499 -75s61.833 -27.5 100.5 -27.5c48.667 0 88.5 15.333 119.5 46s55.333 71.834 73 123.501
s29.834 111.667 36.501 180s10 140.166 10 215.499c0 55.333 -1.16699 109.666 -3.5 162.999s-6.83301 103.833 -13.5 151.5s-15.667 91.834 -27 132.501s-26.166 75.667 -44.499 105s-40.5 52.166 -66.5 68.499s-56.667 24.5 -92 24.5c-49.333 0 -90.333 -15.333 -123 -46
s-58.667 -72 -78 -124s-33.166 -112.5 -41.499 -181.5s-12.5 -141.5 -12.5 -217.5zM88.998 710.998c0 57.333 5.33203 115.835 15.999 175.502s26.5 117.5 47.5 173.5s47.333 108.667 79 158s68.667 92.5 111 129.5s90 66.167 143 87.5s111.167 32 174.5 32
c66 0 125.5 -10.5 178.5 -31.5s100 -49.667 141 -86s76.167 -78.833 105.5 -127.5s53.5 -100.5 72.5 -155.5s33 -112.167 42 -171.5s13.5 -117.333 13.5 -174s-5 -114.667 -15 -174s-25.333 -116.833 -46 -172.5s-46.5 -108.334 -77.5 -158.001s-67.167 -93 -108.5 -130
s-88.333 -66.167 -141 -87.5s-110.667 -32 -174 -32c-69.333 0 -131.5 10.5 -186.5 31.5s-103.167 49.5 -144.5 85.5s-76.666 78.167 -105.999 126.5s-53.333 100.166 -72 155.499s-32.167 112.5 -40.5 171.5s-12.5 116.833 -12.5 173.5z" />
    <glyph glyph-name="one" unicode="1" horiz-adv-x="831" 
d="M85 1001l-71.999 123l468 343h124v-1131c0 -18.667 -0.166992 -37 -0.5 -55s-0.833008 -35.167 -1.5 -51.5s-1.5 -31.166 -2.5 -44.499s-2.16699 -24.333 -3.5 -33l154 6v-158h-588v135c22.667 1.33301 43.167 3.5 61.5 6.5s33.666 10.333 45.999 22
s21.833 29.167 28.5 52.5s10 55.666 10 96.999v821z" />
    <glyph glyph-name="two" unicode="2" horiz-adv-x="1091" 
d="M477 1321c-36.667 0 -69.665 -8.50586 -98.998 -25.5059s-51.333 -37.167 -66 -60.5c14.667 -15.333 25 -33.166 31 -53.499s9 -37.833 9 -52.5c0 -12.667 -2.5 -26.667 -7.5 -42s-13 -29.5 -24 -42.5s-25.5 -24 -43.5 -33s-39.667 -13.5 -65 -13.5
c-21.333 0.666992 -40 5 -56 13s-29.5 18.667 -40.5 32s-19.333 29 -25 47s-8.5 37 -8.5 57c0 20.667 4.33301 43 13 67s21.5 47.833 38.5 71.5s38.167 46.334 63.5 68.001s54.5 41 87.5 58s69.833 30.5 110.5 40.5s85 15 133 15c54.667 0 109.5 -6.66699 164.5 -20
s104.333 -35.333 148 -66s79.167 -70.5 106.5 -119.5s41 -109.5 41 -181.5c0 -34.667 -6.16699 -70.5 -18.5 -107.5s-35 -78.333 -68 -124s-78.833 -97.167 -137.5 -154.5s-134.334 -123.666 -227.001 -198.999c-38 -30.667 -70.667 -60.167 -98 -88.5
s-50.333 -54.833 -69 -79.5s-33.167 -46.834 -43.5 -66.501s-16.833 -36.167 -19.5 -49.5l401 -11h16c20.667 0 39.667 1.83301 57 5.5s32 10.5 44 20.5s21.333 23.5 28 40.5s10 39.167 10 66.5h130l-16 -333h-897c0 70.667 9.33301 133.834 28 189.501
s43 106.334 73 152.001s64.167 87.667 102.5 126s77.166 75.833 116.499 112.5c49.333 46 91.333 89.667 126 131s63 81.333 85 120s38 76.334 48 113.001s15 73.667 15 111c0 32.667 -3 64.834 -9 96.501s-16.5 60 -31.5 85s-35.167 45.333 -60.5 61s-57.333 23.5 -96 23.5
z" />
    <glyph glyph-name="three" unicode="3" horiz-adv-x="1146" 
d="M72 269c0 20.667 3.49805 40.3408 10.498 59.0078s16.667 35.167 29 49.5s27.333 25.666 45 33.999s37.5 12.5 59.5 12.5c24 0 44.167 -4.33301 60.5 -13s29.5 -19.5 39.5 -32.5s17.167 -27.167 21.5 -42.5s6.5 -30 6.5 -44c0 -12.667 -2.5 -27.834 -7.5 -45.501
s-13.167 -33.834 -24.5 -48.501c6.66699 -12.667 16.334 -24 29.001 -34s27.334 -18.5 44.001 -25.5s34.5 -12.333 53.5 -16s38.167 -5.5 57.5 -5.5c42.667 0 80.167 6.83301 112.5 20.5s59.333 32.667 81 57s38 53 49 86s16.5 68.833 16.5 107.5
c0 36 -4.66699 71.667 -14 107s-25.666 67.166 -48.999 95.499s-54.5 51.333 -93.5 69s-87.833 26.5 -146.5 26.5c-4.66699 0 -11.667 -0.166992 -21 -0.5s-19.333 -0.833008 -30 -1.5s-21 -1.33398 -31 -2.00098s-18 -1.33398 -24 -2.00098v147
c7.33301 -1.33301 13.666 -2 18.999 -2h16c101.333 -2 178.5 20.333 231.5 67s79.5 113.334 79.5 200.001c0 33.333 -3.5 64.166 -10.5 92.499s-18.167 52.666 -33.5 72.999s-35 36.166 -59 47.499s-53 17 -87 17c-18.667 0 -36.5 -2.5 -53.5 -7.5s-32.5 -11.5 -46.5 -19.5
s-26.333 -17 -37 -27s-19 -20.333 -25 -31c12.667 -15.333 21.334 -32.666 26.001 -51.999s7 -35.666 7 -48.999c0 -12.667 -2.5 -26.5 -7.5 -41.5s-13 -29.167 -24 -42.5s-25.333 -24.5 -43 -33.5s-39.167 -13.5 -64.5 -13.5c-21.333 0.666992 -40 5 -56 13
s-29.5 18.667 -40.5 32s-19.333 29 -25 47s-8.5 37 -8.5 57c0 30 8.83301 63.333 26.5 100s44.5 70.667 80.5 102s80.833 57.666 134.5 78.999s116.5 32 188.5 32c63.333 0 122.833 -6.33301 178.5 -19s104 -33.5 145 -62.5s73.333 -66.667 97 -113
s35.5 -102.833 35.5 -169.5c0 -26.667 -5.5 -56.167 -16.5 -88.5s-28.667 -63.666 -53 -93.999s-56 -58 -95 -83s-86.833 -43.5 -143.5 -55.5v-2c65.333 -11.333 122 -29.333 170 -54s87.667 -53.834 119 -87.501s54.666 -70.834 69.999 -111.501s23 -82.667 23 -126
c0 -70 -13.5 -132 -40.5 -186s-64.833 -99.333 -113.5 -136s-106.5 -64.5 -173.5 -83.5s-140.5 -28.5 -220.5 -28.5c-77.333 0 -144 9 -200 27s-102 41.5 -138 70.5s-62.667 61.333 -80 97s-26 71.5 -26 107.5z" />
    <glyph glyph-name="four" unicode="4" horiz-adv-x="1121" 
d="M852 370l0.000976562 -34c0 -18.667 -0.166992 -37 -0.5 -55s-0.833008 -35.167 -1.5 -51.5s-1.5 -31.166 -2.5 -44.499s-2.16699 -24.333 -3.5 -33l154 6v-158h-585v135c22.667 1.33301 43.167 3.5 61.5 6.5s33.666 10.333 45.999 22s21.833 29.167 28.5 52.5
s10 55.666 10 96.999v57h-534v193l703 904h124v-911h200v-186h-200zM215.001 561h344v450z" />
    <glyph glyph-name="five" unicode="5" horiz-adv-x="1106" 
d="M338 188c4.66699 -11.333 12.998 -21.666 24.998 -30.999s25.667 -17.333 41 -24s31.333 -11.834 48 -15.501s32 -5.5 46 -5.5c40.667 0 75.334 8.66699 104.001 26s52 39.666 70 66.999s31.167 58.333 39.5 93s12.5 69.667 12.5 105c0 20.667 -0.666992 43.667 -2 69
s-4.66602 51.166 -9.99902 77.499s-13.333 52 -24 77s-25 47.167 -43 66.5s-40.5 35 -67.5 47s-59.833 18 -98.5 18c-30 0 -66.5 -5.5 -109.5 -16.5s-88.5 -30.5 -136.5 -58.5l-88 67l-7 684h530c23.333 0 44.5 1.5 63.5 4.5s35.333 9.33301 49 19s24.167 23.167 31.5 40.5
s11 40.333 11 69h130l-16 -333l-643 -11v-365c15.333 6.66699 33.166 13 53.499 19s41.5 11.167 63.5 15.5s44.333 7.83301 67 10.5s44.334 4 65.001 4c84.667 0 158.167 -12.5 220.5 -37.5s114 -58.667 155 -101s71.5 -91.333 91.5 -147s30 -113.834 30 -174.501
c0 -79.333 -15 -149 -45 -209s-69.667 -110 -119 -150s-105.5 -70.167 -168.5 -90.5s-127.833 -30.5 -194.5 -30.5c-67.333 0 -127.166 8.5 -179.499 25.5s-96.5 38.833 -132.5 65.5s-63.5 56.667 -82.5 90s-28.5 66.333 -28.5 99c0 20.667 3.33301 40.334 10 59.001
s16.167 35.334 28.5 50.001s27.166 26.334 44.499 35.001s37 13 59 13c24.667 0 45.167 -4.33301 61.5 -13s29.5 -19.5 39.5 -32.5s17.167 -27.167 21.5 -42.5s6.5 -30 6.5 -44c0 -11.333 -1.83301 -24.833 -5.5 -40.5s-9.5 -30.167 -17.5 -43.5z" />
    <glyph glyph-name="six" unicode="6" horiz-adv-x="1178" 
d="M596 750c-21.333 0 -42.333 -3.50293 -63 -10.5029s-40 -16.667 -58 -29s-34.167 -26.666 -48.5 -42.999s-25.833 -33.833 -34.5 -52.5c0 -32 1.33301 -66.667 4 -104s7.16699 -74.666 13.5 -111.999s14.666 -73.333 24.999 -108s23.166 -65.334 38.499 -92.001
s33.333 -48 54 -64s44.334 -24 71.001 -24c36 0 65.667 7.83301 89 23.5s41.833 36.5 55.5 62.5s23.334 55.667 29.001 89s8.5 67.666 8.5 102.999c0 20.667 -0.666992 43.834 -2 69.501s-4 51.834 -8 78.501s-10 52.834 -18 78.501s-18.833 48.5 -32.5 68.5
s-30.667 36 -51 48s-44.5 18 -72.5 18zM1029 1192c0 -18 -2.83496 -35.8281 -8.50195 -53.4951s-14 -33.334 -25 -47.001s-24.667 -24.667 -41 -33s-34.833 -12.5 -55.5 -12.5c-25.333 0 -46.666 4.16699 -63.999 12.5s-31.333 19 -42 32s-18.167 27 -22.5 42
s-6.5 29.5 -6.5 43.5c0 11.333 2 25.666 6 42.999s11.667 32.666 23 45.999c-11.333 15.333 -27.666 28.833 -48.999 40.5s-47.666 17.5 -78.999 17.5c-34.667 0 -65.334 -7.66699 -92.001 -23s-50 -36.166 -70 -62.499s-36.833 -57 -50.5 -92s-24.834 -72 -33.501 -111
s-15.167 -78.833 -19.5 -119.5s-7.16602 -79.667 -8.49902 -117c12 14 28.167 27.833 48.5 41.5s43.333 26 69 37s52.5 19.833 80.5 26.5s55.333 10 82 10c72.667 0 135.334 -11.667 188.001 -35s96.167 -56 130.5 -98s59.666 -92 75.999 -150s24.5 -121.333 24.5 -190
c0 -64.667 -12.5 -125.667 -37.5 -183s-59.833 -107.5 -104.5 -150.5s-97.834 -77 -159.501 -102s-128.834 -37.5 -201.501 -37.5c-91.333 0 -168.333 16.167 -231 48.5s-113.5 78.666 -152.5 138.999s-67 133.166 -84 218.499s-25.5 181 -25.5 287
c0 39.333 3.16699 86.5 9.5 141.5s17.333 112.5 33 172.5s37 119.333 64 178s61.333 111.334 103 158.001s91.334 84.5 149.001 113.5s125.167 43.5 202.5 43.5c64.667 0 120.5 -8.5 167.5 -25.5s85.833 -38.833 116.5 -65.5s53.334 -56.334 68.001 -89.001
s22 -64.334 22 -95.001z" />
    <glyph glyph-name="seven" unicode="7" horiz-adv-x="960" 
d="M315 1231l-10.999 -0.00292969c-22 0 -41.833 -2.5 -59.5 -7.5s-32.667 -13.167 -45 -24.5s-22 -26.333 -29 -45s-10.5 -41.667 -10.5 -69h-130l16 349h872v-186c-46 -94.667 -85.667 -186.167 -119 -274.5s-63.5 -177.5 -90.5 -267.5s-52.5 -182.667 -76.5 -278
s-49.333 -197.333 -76 -306c-4.66699 -19.333 -11.167 -38.166 -19.5 -56.499s-18.5 -34.833 -30.5 -49.5s-26 -26.5 -42 -35.5s-34 -13.5 -54 -13.5c-22 0 -40.333 3.5 -55 10.5s-26.5 16.333 -35.5 28s-15.5 24.667 -19.5 39s-6 29.166 -6 44.499
c0 14.667 1.83301 31.334 5.5 50.001s11.167 44.334 22.5 77.001s27.166 74.5 47.499 125.5s47.166 116.167 80.499 195.5s74.333 175.333 123 288s106.334 246.334 173.001 401.001z" />
    <glyph glyph-name="eight" unicode="8" horiz-adv-x="1172" 
d="M1025 1119c0 -35.333 -7.33105 -69.498 -21.998 -102.498s-33.667 -63.833 -57 -92.5s-49.5 -54.834 -78.5 -78.501s-57.833 -43.834 -86.5 -60.501v-2c104.667 -64.667 181.667 -133 231 -205s74 -147.333 74 -226c0 -66.667 -14 -124.167 -42 -172.5
s-65.333 -88.333 -112 -120s-100.5 -55 -161.5 -70s-124.833 -22.5 -191.5 -22.5c-32 0 -65.833 2.66699 -101.5 8s-70.667 13.666 -105 24.999s-67 26.166 -98 44.499s-58.333 40.666 -82 66.999s-42.5 57 -56.5 92s-21 74.833 -21 119.5c0 39.333 7.66699 77.5 23 114.5
s35.666 72 60.999 105s54.166 63 86.499 90s65.5 50.167 99.5 69.5v2c-45.333 28.667 -83.666 58.834 -114.999 90.501s-56.833 63.667 -76.5 96s-33.834 64.333 -42.501 96s-13 61.5 -13 89.5c0 66.667 14.333 124.5 43 173.5s65.5 89.667 110.5 122
s94.833 56.333 149.5 72s108.334 23.5 161.001 23.5s104.5 -7.66699 155.5 -23s96.167 -37.666 135.5 -66.999s71.166 -65.666 95.499 -108.999s36.5 -93 36.5 -149zM792.002 309.002c0 25.333 -4.33301 51.5 -13 78.5s-23.334 54.167 -44.001 81.5s-48 54.5 -82 81.5
s-76.333 53.167 -127 78.5c-29.333 -22.667 -54.166 -47.5 -74.499 -74.5s-37 -54.167 -50 -81.5s-22.5 -53.5 -28.5 -78.5s-9 -46.833 -9 -65.5c0 -31.333 5.66699 -60.333 17 -87s27 -49.667 47 -69s43.5 -34.5 70.5 -45.5s56.5 -16.5 88.5 -16.5s60.667 5.16699 86 15.5
s46.833 24.5 64.5 42.5s31.167 39 40.5 63s14 49.667 14 77zM423.002 1133c0 -26.667 6.00195 -53.166 18.002 -79.499s28.167 -51.333 48.5 -75s44.166 -45.167 71.499 -64.5s56.333 -35 87 -47c23.333 17.333 44.5 36.666 63.5 57.999s35.333 43.333 49 66
s24.167 45.167 31.5 67.5s11 43.166 11 62.499c0 32.667 -4.83301 61.667 -14.5 87s-22.834 46.5 -39.501 63.5s-36.167 29.833 -58.5 38.5s-46.5 13 -72.5 13c-30 0 -57 -5.16699 -81 -15.5s-44.5 -24.166 -61.5 -41.499s-30 -37.5 -39 -60.5s-13.5 -47.167 -13.5 -72.5z
" />
    <glyph glyph-name="nine" unicode="9" horiz-adv-x="1179" 
d="M585 684c22 0 43.1709 3.50293 63.5039 10.5029s39.166 16.667 56.499 29s32.833 26.666 46.5 42.999s25.167 33.833 34.5 52.5c0 66 -3.16699 129.333 -9.5 190s-17.333 114.167 -33 160.5s-36.834 83.5 -63.501 111.5s-60 42 -100 42
c-31.333 0 -58.333 -7.83301 -81 -23.5s-41.5 -36.5 -56.5 -62.5s-26.167 -55.667 -33.5 -89s-11 -67.666 -11 -102.999c0 -20.667 0.666992 -43.834 2 -69.501s4.16602 -51.834 8.49902 -78.501s10.666 -52.834 18.999 -78.501s19.5 -48.5 33.5 -68.5s31 -36 51 -48
s44.333 -18 73 -18zM148.004 236.003c0 18 3.1709 36.1748 9.50391 54.5078s15.166 34.666 26.499 48.999s25.333 26 42 35s35.667 13.5 57 13.5c25.333 0 46.333 -4.16699 63 -12.5s30 -19 40 -32s17 -27 21 -42s6 -29.5 6 -43.5c0 -6 -0.5 -12.833 -1.5 -20.5
s-2.83301 -15.5 -5.5 -23.5s-5.83398 -15.833 -9.50098 -23.5s-7.83398 -14.167 -12.501 -19.5c10.667 -15.333 26.834 -28.833 48.501 -40.5s47.834 -17.5 78.501 -17.5c48.667 0 90.5 13.167 125.5 39.5s63.667 61.5 86 105.5s38.833 94.667 49.5 152
s16 116.666 16 177.999v24c0 8 -0.333008 16 -1 24c-12 -14 -28.167 -27.833 -48.5 -41.5s-42.666 -26 -66.999 -37s-50.333 -19.833 -78 -26.5s-54.834 -10 -81.501 -10c-72 0 -134.667 11.833 -188 35.5s-97.5 56.834 -132.5 99.501s-61 93 -78 151
s-25.5 121.667 -25.5 191c0 68.667 12 131.667 36 189s57.667 106.666 101 147.999s95.166 73.666 155.499 96.999s127.166 35 200.499 35c91.333 0 168.833 -17.333 232.5 -52s115.5 -82.834 155.5 -144.501s69 -134.834 87 -219.501s27 -177 27 -277
c0 -50.667 -2.83301 -105.834 -8.5 -165.501s-15.834 -119.334 -30.501 -179.001s-35.167 -117.334 -61.5 -173.001s-60.333 -105 -102 -148s-91.834 -77.333 -150.501 -103s-128 -38.5 -208 -38.5c-67.333 0 -124.666 7.66699 -171.999 23s-86 35.5 -116 60.5
s-51.833 53.667 -65.5 86s-20.5 65.5 -20.5 99.5z" />
    <glyph glyph-name="colon" unicode=":" horiz-adv-x="507" 
d="M402 126c0 -22 -3.49902 -42.667 -10.499 -62s-16.667 -36.166 -29 -50.499s-27.5 -25.666 -45.5 -33.999s-38 -12.5 -60 -12.5c-22.667 0 -43.334 4.16699 -62.001 12.5s-34.667 19.666 -48 33.999s-23.666 31.166 -30.999 50.499s-11 40 -11 62s4 42.833 12 62.5
s18.833 36.834 32.5 51.501s29.5 26.167 47.5 34.5s37 12.5 57 12.5c21.333 0 41 -4.16699 59 -12.5s33.667 -19.833 47 -34.5s23.666 -31.834 30.999 -51.501s11 -40.5 11 -62.5zM402.001 951c0 -22 -3.49902 -42.667 -10.499 -62s-16.667 -36.166 -29 -50.499
s-27.5 -25.666 -45.5 -33.999s-38 -12.5 -60 -12.5c-22.667 0 -43.334 4.16699 -62.001 12.5s-34.667 19.666 -48 33.999s-23.666 31.166 -30.999 50.499s-11 40 -11 62s4 42.833 12 62.5s18.833 36.834 32.5 51.501s29.5 26.167 47.5 34.5s37 12.5 57 12.5
c21.333 0 41 -4.16699 59 -12.5s33.667 -19.833 47 -34.5s23.666 -31.834 30.999 -51.501s11 -40.5 11 -62.5z" />
    <glyph glyph-name="semicolon" unicode=";" horiz-adv-x="546" 
d="M438 65c0 -66.667 -15.168 -138.167 -45.501 -214.5s-77.833 -153.833 -142.5 -232.5l-79 57c10.667 14 22.834 33 36.501 57s26.5 50.667 38.5 80s22 60.166 30 92.499s12 63.5 12 93.5c-10 -3.33301 -18 -5.33301 -24 -6s-12.667 -1 -20 -1
c-18 0 -35.5 2.66699 -52.5 8s-32 13.5 -45 24.5s-23.5 25 -31.5 42s-12 37.5 -12 61.5c0 20.667 3.66699 40.334 11 59.001s17.666 35 30.999 49s29.333 25.167 48 33.5s39.667 12.5 63 12.5c30.667 0 57.334 -5.5 80.001 -16.5s41.5 -26.333 56.5 -46
s26.333 -42.667 34 -69s11.5 -54.5 11.5 -84.5zM430.999 951c0 -22 -3.49902 -42.667 -10.499 -62s-16.667 -36.166 -29 -50.499s-27.5 -25.666 -45.5 -33.999s-38 -12.5 -60 -12.5c-22.667 0 -43.334 4.16699 -62.001 12.5s-34.667 19.666 -48 33.999
s-23.666 31.166 -30.999 50.499s-11 40 -11 62s4 42.833 12 62.5s18.833 36.834 32.5 51.501s29.5 26.167 47.5 34.5s37 12.5 57 12.5c21.333 0 41 -4.16699 59 -12.5s33.667 -19.833 47 -34.5s23.666 -31.834 30.999 -51.501s11 -40.5 11 -62.5z" />
    <glyph glyph-name="less" unicode="&#x3c;" horiz-adv-x="1128" 
d="M79 733l922 409v-216l-637 -280v-2l637 -280v-218l-922 401v186z" />
    <glyph glyph-name="equal" unicode="=" horiz-adv-x="1181" 
d="M130 546l922 -4v-189l-922 -4v197zM130 926l922 -3v-190l-922 -3v196z" />
    <glyph glyph-name="greater" unicode="&#x3e;" horiz-adv-x="1128" 
d="M1049 555l-922 -409v216l637 280v2l-637 280v218l922 -401v-186z" />
    <glyph glyph-name="question" unicode="?" horiz-adv-x="1031" 
d="M655 126c0 -22 -4.16406 -42.667 -12.4971 -62s-19.5 -36.166 -33.5 -50.499s-30 -25.666 -48 -33.999s-36.667 -12.5 -56 -12.5c-20 0 -38.833 4.16699 -56.5 12.5s-33.334 19.666 -47.001 33.999s-24.334 31.166 -32.001 50.499s-11.5 40 -11.5 62s4 42.833 12 62.5
s18.833 36.834 32.5 51.501s29.5 26.167 47.5 34.5s37 12.5 57 12.5c21.333 0 41 -4.16699 59 -12.5s33.667 -19.833 47 -34.5s23.666 -31.834 30.999 -51.501s11 -40.5 11 -62.5zM638.003 1100c0 32 -2.66797 61.667 -8.00098 89s-14.666 51 -27.999 71
s-31.166 35.667 -53.499 47s-50.833 17 -85.5 17c-16.667 0 -33 -2 -49 -6s-30.833 -9.16699 -44.5 -15.5s-25.834 -13.333 -36.501 -21s-19.334 -15.5 -26.001 -23.5c14 -14 23.833 -31 29.5 -51s8.5 -37 8.5 -51c0 -13.333 -2.5 -28 -7.5 -44s-12.833 -31 -23.5 -45
s-24.5 -25.833 -41.5 -35.5s-37.167 -14.5 -60.5 -14.5s-43.666 3.66699 -60.999 11s-31.666 17.5 -42.999 30.5s-19.666 28.5 -24.999 46.5s-8 37.333 -8 58c0 36.667 10.833 73 32.5 109s51.5 68.5 89.5 97.5s83 52.5 135 70.5s108.667 27 170 27
c80.667 0 148.834 -9.33301 204.501 -28s100.5 -43.334 134.5 -74.001s58.5 -65.5 73.5 -104.5s22.5 -78.833 22.5 -119.5c0 -48 -10.5 -92.333 -31.5 -133s-47.333 -78.5 -79 -113.5s-65.834 -67.333 -102.501 -97s-70.834 -57.5 -102.501 -83.5s-58 -50.5 -79 -73.5
s-31.5 -45.5 -31.5 -67.5c0 -17.333 6.5 -31.666 19.5 -42.999s33.5 -17 61.5 -17c9.33301 0 19.166 0.5 29.499 1.5s21.5 3.16699 33.5 6.5l32 -105c-17.333 -9.33301 -35.166 -16.833 -53.499 -22.5s-36.333 -10.167 -54 -13.5s-34.667 -5.66602 -51 -6.99902
s-30.833 -2 -43.5 -2c-22 0 -43.667 2.5 -65 7.5s-40.333 13.167 -57 24.5s-30.167 26 -40.5 44s-15.5 40 -15.5 66c0 16.667 2.16699 32.667 6.5 48s12.666 32.333 24.999 51s29.333 40.167 51 64.5s49.834 53.5 84.501 87.5c24 24 46 47.667 66 71
s37.167 48.166 51.5 74.499s25.666 54.833 33.999 85.5s12.5 65.667 12.5 105z" />
    <glyph glyph-name="at" unicode="@" horiz-adv-x="1624" 
d="M717 297c17.333 0 34.835 9.16602 52.502 27.499s34.667 42.833 51 73.5s31.666 65.834 45.999 105.501s27 81.334 38 125.001s20.167 87.5 27.5 131.5s12 85.333 14 124c-17.333 5.33301 -37 8 -59 8c-26 0 -49.833 -6.33301 -71.5 -19s-41.167 -29.834 -58.5 -51.501
s-32.833 -47 -46.5 -76s-25.167 -60 -34.5 -93s-16.333 -67.167 -21 -102.5s-7 -70 -7 -104c0 -48 6.16699 -84.833 18.5 -110.5s29.166 -38.5 50.499 -38.5zM1416 56.999c-80.667 -90 -171.168 -155.836 -271.501 -197.503s-206.833 -62.5 -319.5 -62.5
c-80.667 0 -154.667 9.16699 -222 27.5s-127.833 43.666 -181.5 75.999s-100.834 71.166 -141.501 116.499s-74.5 94.833 -101.5 148.5s-47.333 111 -61 172s-20.5 123.5 -20.5 187.5c0 58 7.33301 117.5 22 178.5s36.5 120.333 65.5 178s64.833 112.167 107.5 163.5
s92.167 96.166 148.5 134.499s119.333 68.666 189 90.999s145.5 33.5 227.5 33.5c73.333 0 141 -8.83301 203 -26.5s117.833 -42 167.5 -73s93.334 -67.5 131.001 -109.5s69 -87.667 94 -137s43.833 -101.166 56.5 -155.499s19 -109.166 19 -164.499
c0 -56 -5.83301 -107 -17.5 -153s-27.5 -87.333 -47.5 -124s-43.333 -68.5 -70 -95.5s-54.667 -49.5 -84 -67.5s-59.333 -31.333 -90 -40s-60.334 -13 -89.001 -13c-24 0 -48.333 3 -73 9s-47 17.167 -67 33.5s-36.167 39 -48.5 68s-18.5 66.833 -18.5 113.5
c0 6.66699 0.166992 13.334 0.5 20.001s0.833008 13.667 1.5 21c-18.667 -46 -38.667 -85.167 -60 -117.5s-43.333 -58.666 -66 -78.999s-45.667 -35 -69 -44s-46 -13.5 -68 -13.5c-28.667 0 -56.167 5.66699 -82.5 17s-49.5 29 -69.5 53s-36 54.667 -48 92
s-18 82.333 -18 135c0 66.667 10.167 132.167 30.5 196.5s50.333 122 90 173s88.834 92.167 147.501 123.5s126.334 47 203.001 47c30 0 66.833 -3.5 110.5 -10.5s88.5 -17.833 134.5 -32.5c-4 -30.667 -8.33301 -64 -13 -100s-9.5 -72.667 -14.5 -110
s-9.83301 -74.666 -14.5 -111.999s-8.83398 -72.5 -12.501 -105.5s-6.5 -63.167 -8.5 -90.5s-3 -49.666 -3 -66.999c0 -15.333 1.16699 -30.166 3.5 -44.499s6.5 -27.166 12.5 -38.499s13.833 -20.5 23.5 -27.5s21.5 -10.5 35.5 -10.5c26.667 0 50.5 6.5 71.5 19.5
s39.167 30.167 54.5 51.5s28.333 45.833 39 73.5s19.334 56 26.001 85s11.334 57.833 14.001 86.5s4 55 4 79c0 93.333 -13.667 175.833 -41 247.5s-64.833 132 -112.5 181s-104 86 -169 111s-135.167 37.5 -210.5 37.5c-58.667 0 -113.834 -8.66699 -165.501 -26
s-99.167 -41.333 -142.5 -72s-82.333 -67.334 -117 -110.001s-64 -89 -88 -139s-42.333 -103.167 -55 -159.5s-19 -113.833 -19 -172.5c0 -103.333 16.333 -194.833 49 -274.5s77 -146.5 133 -200.5s121.5 -95 196.5 -123s154.5 -42 238.5 -42c41.333 0 84.333 4.5 129 13.5
s88.667 22.333 132 40s85 40 125 67s76.333 58.5 109 94.5z" />
    <glyph glyph-name="A" unicode="A" 
d="M844 428l-445.003 -7.99902l-33 -96l-12.5 -35c-5 -14 -10.667 -28.833 -17 -44.5s-12.666 -31 -18.999 -46s-11.833 -28.5 -16.5 -40.5l146 6v-164h-439v141c28.667 0 52.834 6.5 72.501 19.5s36.834 30.167 51.501 51.5s27.667 46.166 39 74.499
s22.666 57.833 33.999 88.5l400 1095h142l437 -1116c4 -10 8.83301 -23.333 14.5 -40s11.5 -34.5 17.5 -53.5s11.333 -38 16 -57s8 -36.167 10 -51.5l118 6v-158h-552v135c36.667 0 62.334 7.16699 77.001 21.5s22 33.833 22 58.5c0 14 -2 29.5 -6 46.5
s-9.33301 35.167 -16 54.5zM450.997 573.001h340.999l-93 257c-18 50 -34 99.5 -48 148.5s-24.333 92.5 -31 130.5h-2c-5.33301 -23.333 -13.666 -58 -24.999 -104s-28 -101.333 -50 -166z" />
    <glyph glyph-name="B" unicode="B" horiz-adv-x="1354" 
d="M102 135c22.667 1.33301 43.167 3.50195 61.5 6.50195s33.666 10.333 45.999 22s21.833 29.167 28.5 52.5s10 55.666 10 96.999v785c0 18.667 0.166992 37 0.5 55s0.833008 35.167 1.5 51.5s1.5 31.166 2.5 44.499s2.16699 24.333 3.5 33l-154 -6v158l568 4
c79.333 0 151.166 -7.16699 215.499 -21.5s119.333 -36 165 -65s80.834 -65.5 105.501 -109.5s37 -96 37 -156c0 -34.667 -5.66699 -66.667 -17 -96s-28.833 -57.666 -52.5 -84.999s-54 -52.166 -91 -74.499s-81.167 -40.5 -132.5 -54.5v-2
c68 -10.667 126.833 -27.834 176.5 -51.501s90.834 -51.667 123.501 -84s57 -68.333 73 -108s24 -80.834 24 -123.501c0 -66.667 -12.5 -125.334 -37.5 -176.001s-59.667 -93.167 -104 -127.5s-96.833 -60.166 -157.5 -77.499s-127 -26 -199 -26h-697v135zM536 145.002
c36 0 70.335 0.167969 103.002 0.500977s65 1.16602 97 2.49902c41.333 2 77 9.83301 107 23.5s54.667 32.167 74 55.5s33.666 50.833 42.999 82.5s14 66.5 14 104.5c0 46.667 -7.5 85.834 -22.5 117.501s-35 57.167 -60 76.5s-53.333 33 -85 41s-63.834 12 -96.501 12
c-64.667 0 -120 -0.666992 -166 -2v-333c0 -18.667 -0.166992 -36.834 -0.5 -54.501s-0.833008 -34.5 -1.5 -50.5s-1.5 -30.5 -2.5 -43.5s-2.16699 -23.833 -3.5 -32.5zM651.002 807.003c43.333 0.666992 79.6689 8.33301 109.002 23s53 34.5 71 59.5
s30.833 53.833 38.5 86.5s11.5 68 11.5 106c0 41.333 -6.5 75.666 -19.5 102.999s-29.667 49 -50 65s-43.5 27.333 -69.5 34s-52 10 -78 10c-16.667 -0.666992 -32.334 -2.66699 -47.001 -6s-27.334 -10.833 -38.001 -22.5s-19.167 -28.667 -25.5 -51
s-9.5 -53.166 -9.5 -92.499v-318z" />
    <glyph glyph-name="C" unicode="C" horiz-adv-x="1410" 
d="M394 738c0 -88.667 9.50098 -170 28.501 -244s46.667 -137.833 83 -191.5s81.166 -95.334 134.499 -125.001s114.666 -44.5 183.999 -44.5c42.667 0 85.667 5.66699 129 17s85.333 27.833 126 49.5s79.167 48.167 115.5 79.5s68.833 66.666 97.5 105.999l98 -90
c-50 -69.333 -102.333 -125.333 -157 -168s-109 -75.834 -163 -99.501s-106.333 -39.667 -157 -48s-97 -12.5 -139 -12.5c-106 0 -202.167 18.833 -288.5 56.5s-160.166 89.334 -221.499 155.001s-108.666 142.834 -141.999 231.501s-50 184 -50 286
c0 62 6.66699 124.167 20 186.5s33.166 122 59.499 179s59.5 110.167 99.5 159.5s86.5 92.333 139.5 129s112.667 65.334 179 86.001s139.166 31 218.499 31c26.667 0 54.834 -2.16699 84.501 -6.5s59.834 -10.833 90.501 -19.5s61 -19.167 91 -31.5
s58.667 -26.833 86 -43.5h2l-7 87h158v-479h-134c-18.667 114 -56.334 199.833 -113.001 257.5s-133.667 86.5 -231 86.5c-71.333 0 -133.5 -16.333 -186.5 -49s-96.833 -76 -131.5 -130s-60.5 -115.833 -77.5 -185.5s-25.5 -141.5 -25.5 -215.5z" />
    <glyph glyph-name="D" unicode="D" horiz-adv-x="1555" 
d="M102 1434l597 2.00488c90 0 171.833 -9.33301 245.5 -28s139.5 -44.667 197.5 -78s108.333 -72.666 151 -117.999s78 -94.166 106 -146.499s48.833 -107 62.5 -164s20.5 -113.833 20.5 -170.5c0 -55.333 -6.33301 -111.833 -19 -169.5s-32.5 -113.667 -59.5 -168
s-61.5 -105.333 -103.5 -153s-92.333 -89.334 -151 -125.001s-126.167 -63.834 -202.5 -84.501s-162.166 -31 -257.499 -31h-587v135c22.667 1.33301 43.167 3.66602 61.5 6.99902s33.666 10.666 45.999 21.999s21.833 28.666 28.5 51.999s10 55.666 10 96.999v785
c0 18.667 0.166992 37 0.5 55s0.833008 35.167 1.5 51.5s1.5 31.166 2.5 44.499s2.16699 24.333 3.5 33l-154 -6v158zM695 1299c-25.333 0.666992 -47.5049 -0.668945 -66.5049 -4.00195s-34.667 -11 -47 -23s-21.666 -29.667 -27.999 -53s-9.5 -54.666 -9.5 -93.999v-789
c0 -18.667 -0.166992 -37 -0.5 -55s-0.833008 -35.167 -1.5 -51.5s-1.5 -31.166 -2.5 -44.499s-2.16699 -24.333 -3.5 -33c10 0.666992 23.5 1 40.5 1s35 -0.333008 54 -1s37.667 -1.16699 56 -1.5s33.5 -0.5 45.5 -0.5c74.667 0 138.834 15.167 192.501 45.5
s97.834 70.666 132.501 120.999s60.334 107.833 77.001 172.5s25 131 25 199c0 104.667 -10.833 195 -32.5 271s-52.667 138.833 -93 188.5s-89.166 86.834 -146.499 111.501s-121.333 38 -192 40z" />
    <glyph glyph-name="E" unicode="E" horiz-adv-x="1278" 
d="M544 672l0.000976562 -335.993c0 -18.667 -0.166992 -36.834 -0.5 -54.501s-0.833008 -34.5 -1.5 -50.5s-1.5 -30.5 -2.5 -43.5s-2.16699 -23.833 -3.5 -32.5l275 1c30 0 60 5 90 15s56.667 26.5 80 49.5s42.333 53.333 57 91s22 84.167 22 139.5h135l-12 -451h-1081v135
c22.667 1.33301 43.167 3.66602 61.5 6.99902s33.666 10.666 45.999 21.999s21.833 28.666 28.5 51.999s10 55.666 10 96.999v785c0 18.667 0.166992 37 0.5 55s0.833008 35.167 1.5 51.5s1.5 31.166 2.5 44.499s2.16699 24.333 3.5 33l-154 -6v158h1025l12 -397h-135
c0 55.333 -7.83301 100.333 -23.5 135s-35.5 61.667 -59.5 81s-50.667 32.333 -80 39s-58 9.66699 -86 9l-74 -2c-21.333 -0.666992 -40.5 -2.83398 -57.5 -6.50098s-31.333 -11.5 -43 -23.5s-20.667 -29.667 -27 -53s-9.5 -55 -9.5 -95v-307h241l-9 177h158v-498h-135
c0 42.667 -5.33301 76.334 -16 101.001s-25 43 -43 55s-39.167 19.167 -63.5 21.5s-50.5 3.16602 -78.5 2.49902z" />
    <glyph glyph-name="F" unicode="F" horiz-adv-x="1169" 
d="M544 622l0.000976562 -285.995c0 -18.667 -0.166992 -37 -0.5 -55s-0.833008 -35.167 -1.5 -51.5s-1.5 -31.166 -2.5 -44.499s-2.16699 -24.333 -3.5 -33l182 6v-158h-616v135c22.667 1.33301 43.167 3.66602 61.5 6.99902s33.666 10.666 45.999 21.999
s21.833 28.666 28.5 51.999s10 55.666 10 96.999v785c0 18.667 0.166992 37 0.5 55s0.833008 35.167 1.5 51.5s1.5 31.166 2.5 44.499s2.16699 24.333 3.5 33l-154 -6v158h1025l12 -397h-135c0 55.333 -7.83301 100.333 -23.5 135s-35.5 61.667 -59.5 81
s-50.667 32.333 -80 39s-58 9.66699 -86 9l-74 -2c-21.333 -0.666992 -40.5 -2.83398 -57.5 -6.50098s-31.333 -11.5 -43 -23.5s-20.667 -29.667 -27 -53s-9.5 -55 -9.5 -95v-357h212l-9 177h158v-498h-135c0 42.667 -5.33301 76.334 -16 101.001s-25 43 -43 55
s-39.167 19.167 -63.5 21.5s-50.5 3.16602 -78.5 2.49902z" />
    <glyph glyph-name="G" unicode="G" horiz-adv-x="1545" 
d="M1373 69l-49.999 0.000976562c-39.333 0 -78.5 -5.33301 -117.5 -16s-80.167 -22.334 -123.5 -35.001s-90.333 -24.334 -141 -35.001s-107.334 -16 -170.001 -16c-111.333 0 -210.333 18.833 -297 56.5s-159.667 89.334 -219 155.001s-104.5 142.834 -135.5 231.501
s-46.5 184 -46.5 286c0 62 6.5 124.167 19.5 186.5s32.667 122 59 179s59.166 110.167 98.499 159.5s85.5 92.333 138.5 129s112.5 65.334 178.5 86.001s138.667 31 218 31c26.667 0 56.834 -2.16699 90.501 -6.5s68 -10.833 103 -19.5s69.333 -19.167 103 -31.5
s64.167 -26.833 91.5 -43.5h2l-7 87h158v-479h-134c-9.33301 57.333 -25.333 107.5 -48 150.5s-50.667 78.833 -84 107.5s-71 50.167 -113 64.5s-87 21.5 -135 21.5c-71.333 0 -133.333 -16.333 -186 -49s-96.167 -76 -130.5 -130s-59.833 -115.833 -76.5 -185.5
s-25 -141.5 -25 -215.5c0 -88.667 9.16699 -170.167 27.5 -244.5s45.5 -138.5 81.5 -192.5s80.5 -96 133.5 -126s114.5 -45 184.5 -45c20 0 42.667 1.16699 68 3.5s51.333 5.66602 78 9.99902s52.5 10 77.5 17s47.167 15.167 66.5 24.5v190c0 18.667 0.166992 37 0.5 55
s0.833008 35.167 1.5 51.5s1.5 31.166 2.5 44.499s2.16699 24.333 3.5 33l-154 -6v158h544v-135c-23.333 -1.33301 -43.5 -4 -60.5 -8s-31 -12.167 -42 -24.5s-19.333 -30 -25 -53s-8.5 -53.833 -8.5 -92.5v-329z" />
    <glyph glyph-name="H" unicode="H" horiz-adv-x="1652" 
d="M1404 336c0 -18.667 -0.165039 -37.0059 -0.498047 -55.0059s-0.833008 -35.167 -1.5 -51.5s-1.5 -31.166 -2.5 -44.499s-2.16699 -24.333 -3.5 -33l154 6v-158h-588v135c22.667 1.33301 43.167 3.5 61.5 6.5s33.666 10.333 45.999 22s21.833 29.167 28.5 52.5
s10 55.666 10 96.999v332l-564 -7v-302c0 -18.667 -0.166992 -37 -0.5 -55s-0.833008 -35.167 -1.5 -51.5s-1.5 -31.166 -2.5 -44.499s-2.16699 -24.333 -3.5 -33l154 6v-158h-588v135c22.667 1.33301 43.167 3.5 61.5 6.5s33.666 10.333 45.999 22s21.833 29.167 28.5 52.5
s10 55.666 10 96.999v785c0 18.667 0.166992 37 0.5 55s0.833008 35.167 1.5 51.5s1.5 31.166 2.5 44.499s2.16699 24.333 3.5 33l-154 -6v158h588v-135c-23.333 -1.33301 -44 -3.66602 -62 -6.99902s-33.167 -10.666 -45.5 -21.999s-21.833 -28.666 -28.5 -51.999
s-10 -55.666 -10 -96.999v-321h564v298c0 18.667 0.166992 37 0.5 55s0.833008 35.167 1.5 51.5s1.5 31.166 2.5 44.499s2.16699 24.333 3.5 33l-154 -6v158h588v-135c-23.333 -1.33301 -44 -3.66602 -62 -6.99902s-33.167 -10.666 -45.5 -21.999
s-21.833 -28.666 -28.5 -51.999s-10 -55.666 -10 -96.999v-785z" />
    <glyph glyph-name="I" unicode="I" horiz-adv-x="792" 
d="M544 336c0 -18.667 -0.166016 -37.0029 -0.499023 -55.0029s-0.833008 -35.167 -1.5 -51.5s-1.5 -31.166 -2.5 -44.499s-2.16699 -24.333 -3.5 -33l154 6v-158h-588v135c22.667 1.33301 43.167 3.5 61.5 6.5s33.666 10.333 45.999 22s21.833 29.167 28.5 52.5
s10 55.666 10 96.999v785c0 18.667 0.166992 37 0.5 55s0.833008 35.167 1.5 51.5s1.5 31.166 2.5 44.499s2.16699 24.333 3.5 33l-154 -6v158h588v-135c-23.333 -1.33301 -44 -3.66602 -62 -6.99902s-33.167 -10.666 -45.5 -21.999s-21.833 -28.666 -28.5 -51.999
s-10 -55.666 -10 -96.999v-785z" />
    <glyph glyph-name="J" unicode="J" horiz-adv-x="924" 
d="M722 521c0 -98.667 -9.33301 -183.005 -28 -253.005s-46 -127.333 -82 -172s-80.667 -77.334 -134 -98.001s-114.333 -31 -183 -31c-40 0 -77.833 5.5 -113.5 16.5s-66.834 26.167 -93.501 45.5s-47.667 42.333 -63 69s-23 56 -23 88c0 22.667 3.16699 44.334 9.5 65.001
s16 38.834 29 54.501s28.833 28.167 47.5 37.5s40.667 14 66 14c24 0 44.5 -4 61.5 -12s31.167 -18.5 42.5 -31.5s19.666 -27.833 24.999 -44.5s8 -33.334 8 -50.001c0 -11.333 -1.66699 -23.166 -5 -35.499s-7.66602 -24.166 -12.999 -35.499
c2.66699 -6.66699 6.83398 -12.167 12.501 -16.5s11.5 -7.83301 17.5 -10.5s12 -4.5 18 -5.5s10.667 -1.5 14 -1.5c29.333 0 51.833 12.667 67.5 38s23.5 67 23.5 125v821c0 18.667 0.166992 37 0.5 55s0.833008 35.167 1.5 51.5s1.5 31.166 2.5 44.499
s2.16699 24.333 3.5 33l-154 -6v158h588v-135c-23.333 -1.33301 -44 -3.66602 -62 -6.99902s-33.167 -10.666 -45.5 -21.999s-21.833 -28.666 -28.5 -51.999s-10 -55.666 -10 -96.999v-600z" />
    <glyph glyph-name="K" unicode="K" horiz-adv-x="1459" 
d="M544 809l149 -0.00390625l156 268c12 20.667 24.333 41.667 37 63s25.334 41.333 38.001 60s24.5 35.167 35.5 49.5s21.167 25.166 30.5 32.499v2l-130 -8v158h501v-135c-23.333 -1.33301 -47.5 -4.5 -72.5 -9.5s-51 -14.667 -78 -29s-54.5 -35.166 -82.5 -62.499
s-56 -63.666 -84 -108.999l-196 -314v-3c28 -16.667 52.333 -34.834 73 -54.501s39 -40.834 55 -63.501l211 -297c20.667 -29.333 42 -57.166 64 -83.499s44.333 -49.5 67 -69.5s45.5 -36.167 68.5 -48.5s46.167 -19.166 69.5 -20.499v-135h-316
c-8.66699 0.666992 -21.334 8.16699 -38.001 22.5s-34.667 31.833 -54 52.5s-38.666 43 -57.999 67s-36 46 -50 66l-202 295c-9.33301 12.667 -19 26 -29 40s-20.333 27.5 -31 40.5s-21 25 -31 36s-19.667 19.833 -29 26.5l-74 -1v-309c0 -18.667 -0.166992 -37 -0.5 -55
s-0.833008 -35.167 -1.5 -51.5s-1.5 -31.166 -2.5 -44.499s-2.16699 -24.333 -3.5 -33l154 6v-158h-588v135c22.667 1.33301 43.167 3.5 61.5 6.5s33.666 10.333 45.999 22s21.833 29.167 28.5 52.5s10 55.666 10 96.999v785c0 18.667 0.166992 37 0.5 55
s0.833008 35.167 1.5 51.5s1.5 31.166 2.5 44.499s2.16699 24.333 3.5 33l-154 -6v158h588v-135c-23.333 -1.33301 -44 -3.66602 -62 -6.99902s-33.167 -10.666 -45.5 -21.999s-21.833 -28.666 -28.5 -51.999s-10 -55.666 -10 -96.999v-312z" />
    <glyph glyph-name="L" unicode="L" horiz-adv-x="1238" 
d="M102 0l0.000976562 134.999c22.667 1.33301 43.167 3.5 61.5 6.5s33.666 10.333 45.999 22s21.833 29.167 28.5 52.5s10 55.666 10 96.999v785c0 18.667 0.166992 37 0.5 55s0.833008 35.167 1.5 51.5s1.5 31.166 2.5 44.499s2.16699 24.333 3.5 33l-154 -6v158h588v-135
c-23.333 -1.33301 -44 -3.66602 -62 -6.99902s-33.167 -10.666 -45.5 -21.999s-21.833 -28.666 -28.5 -51.999s-10 -55.666 -10 -96.999v-785c0 -18.667 -0.166992 -36.834 -0.5 -54.501s-0.833008 -34.5 -1.5 -50.5s-1.5 -30.5 -2.5 -43.5s-2.16699 -23.833 -3.5 -32.5
l275 1c80.667 0 144 27.833 190 83.5s69 139.5 69 251.5h136l-12 -491h-1092z" />
    <glyph glyph-name="M" unicode="M" horiz-adv-x="1990" 
d="M1445 1102l-419.005 -1121.99h-191l-275 674c-8 18.667 -18.167 44.167 -30.5 76.5s-25.166 68.833 -38.499 109.5s-26.5 84.5 -39.5 131.5s-24.833 95.167 -35.5 144.5h-2c2 -76.667 3.66699 -148.667 5 -216s1.66602 -132 0.999023 -194l-3 -370
c0 -18.667 -0.166992 -37 -0.5 -55s-1 -35.167 -2 -51.5s-2 -31.166 -3 -44.499s-2.16699 -24.333 -3.5 -33l155 6v-158h-467v135c22.667 1.33301 43 3.66602 61 6.99902s33.167 10.666 45.5 21.999s21.833 28.666 28.5 51.999s10.334 55.666 11.001 96.999l12 785
c0 18.667 0.333008 37 1 55s1.33398 35.167 2.00098 51.5s1.5 31.166 2.5 44.499s2.16699 24.333 3.5 33l-155 -6v158h453l310 -793c9.33301 -24 19.5 -51 30.5 -81s21.833 -60 32.5 -90s20.5 -58.5 29.5 -85.5s16.167 -49.167 21.5 -66.5h2
c17.333 47.333 33.5 93.166 48.5 137.499s31.167 88.5 48.5 132.5l316 846h473v-135c-23.333 -1.33301 -44.166 -3.66602 -62.499 -6.99902s-34 -10.666 -47 -21.999s-22.667 -28.666 -29 -51.999s-8.83301 -55.666 -7.5 -96.999l31 -785
c0.666992 -18.667 0.833984 -37 0.500977 -55s-0.833008 -35.167 -1.5 -51.5s-1.66699 -31.166 -3 -44.499s-2.66602 -24.333 -3.99902 -33l154 6v-158h-569v135c22.667 1.33301 43.334 3.66602 62.001 6.99902s34.5 10.666 47.5 21.999s22.667 28.666 29 51.999
s8.83301 55.666 7.5 96.999l-17 434c-0.666992 12 -1.66699 31.5 -3 58.5s-2.83301 57.167 -4.5 90.5s-3.33398 68.166 -5.00098 104.499s-3.16699 70.166 -4.5 101.499h-2z" />
    <glyph glyph-name="N" unicode="N" horiz-adv-x="1583" 
d="M1365 -20l-173.999 -0.00195312l-655 837c-34.667 44.667 -72 95.667 -112 153h-2l3 -634c0 -18.667 -0.166992 -37 -0.5 -55s-0.833008 -35.167 -1.5 -51.5s-1.5 -31.166 -2.5 -44.499s-2.16699 -24.333 -3.5 -33l154 6v-158h-467v135
c22.667 1.33301 43.167 3.5 61.5 6.5s33.666 10.333 45.999 22s21.833 29.167 28.5 52.5s10 55.666 10 96.999l-5 785c0 18.667 0.166992 37 0.5 55s0.833008 35.167 1.5 51.5s1.5 31.166 2.5 44.499s2.16699 24.333 3.5 33l-154 -6v158h321l626 -790
c34.667 -44 63.167 -81.833 85.5 -113.5s41.5 -59.167 57.5 -82.5h2v650c0 18.667 0.166992 37 0.5 55s0.833008 35.167 1.5 51.5s1.5 31.166 2.5 44.499s2.16699 24.333 3.5 33l-154 -6v158h466v-135c-23.333 -1.33301 -44 -3.66602 -62 -6.99902
s-33.167 -10.666 -45.5 -21.999s-21.833 -28.666 -28.5 -51.999s-10 -55.666 -10 -96.999v-1141z" />
    <glyph glyph-name="O" unicode="O" horiz-adv-x="1574" 
d="M394 741c0 -43.333 2.99902 -88.665 8.99902 -135.998s15.667 -94.166 29 -140.499s30.666 -90.5 51.999 -132.5s47.166 -78.833 77.499 -110.5s65.833 -57 106.5 -76s86.667 -28.5 138 -28.5c47.333 0 89.333 8.16699 126 24.5s68.834 38.5 96.501 66.5
s51.167 60.667 70.5 98s35 76.833 47 118.5s20.667 84.667 26 129s8 87.166 8 128.499c0 92 -8 176.833 -24 254.5s-40.667 144.667 -74 201s-75.333 100.333 -126 132s-110.667 47.5 -180 47.5c-48.667 0 -91.834 -8.16699 -129.501 -24.5s-70.667 -38.833 -99 -67.5
s-52.166 -61.834 -71.499 -99.501s-35.166 -77.834 -47.499 -120.501s-21.166 -86.5 -26.499 -131.5s-8 -89.167 -8 -132.5zM71.999 717.001c0 57.333 6.50195 115.665 19.502 174.998s32.667 116.666 59 171.999s59.333 107.5 99 156.5s86.167 91.833 139.5 128.5
s113.5 65.5 180.5 86.5s140.833 31.5 221.5 31.5c82.667 0 157.834 -10.667 225.501 -32s127.834 -50.333 180.501 -87s98.167 -79.5 136.5 -128.5s70.166 -101.167 95.499 -156.5s44 -112.666 56 -171.999s18 -117.333 18 -174s-6.5 -114.5 -19.5 -173.5
s-32.667 -116.167 -59 -171.5s-59.333 -107.666 -99 -156.999s-86.167 -92.333 -139.5 -129s-113.333 -65.667 -180 -87s-140.334 -32 -221.001 -32c-86.667 0 -164.334 10.333 -233.001 31s-129.5 48.834 -182.5 84.501s-98.333 77.667 -136 126
s-68.334 100.333 -92.001 156s-41.167 113.5 -52.5 173.5s-17 119.667 -17 179z" />
    <glyph glyph-name="P" unicode="P" horiz-adv-x="1308" 
d="M693 519c-16 -0.666992 -30.498 -1.16992 -43.498 -1.50293s-25.333 -0.5 -37 -0.5h-34c-11 0 -22.5 0.333008 -34.5 1v-181c0 -37.333 -0.666992 -73.166 -2 -107.499s-3.33301 -60.166 -6 -77.499l174 6v-158h-608v135c22.667 1.33301 43.167 3.5 61.5 6.5
s33.666 10.333 45.999 22s21.833 29.167 28.5 52.5s10 55.666 10 96.999v785c0 18.667 0.166992 37 0.5 55s0.833008 35.167 1.5 51.5s1.5 31.166 2.5 44.499s2.16699 24.333 3.5 33l-154 -6v158l583 4c88.667 0.666992 169.167 -7.66602 241.5 -24.999
s134.166 -44.166 185.499 -80.499s91 -82.833 119 -139.5s42 -124.667 42 -204c0.666992 -57.333 -10.666 -113.166 -33.999 -167.499s-58.833 -103.5 -106.5 -147.5s-107.834 -80 -180.501 -108s-159 -43.667 -259 -47zM636.002 664.997
c56 0 104.332 7.16406 144.999 21.4971s74 35.5 100 63.5s45.167 62.333 57.5 103s18.5 87 18.5 139c0 45.333 -4.33301 84.333 -13 117s-20.334 60.167 -35.001 82.5s-31.5 40.333 -50.5 54s-38.667 24 -59 31s-40.666 11.667 -60.999 14s-39.166 3.5 -56.499 3.5
c-22 0 -41.5 -1.66699 -58.5 -5s-31.333 -10.666 -43 -21.999s-20.667 -27.666 -27 -48.999s-9.5 -50 -9.5 -86v-461c14.667 -1.33301 29.667 -2.66602 45 -3.99902s31 -2 47 -2z" />
    <glyph glyph-name="Q" unicode="Q" horiz-adv-x="1576" 
d="M73 717c0 57.333 6.49707 115.67 19.4971 175.003s32.667 116.666 59 171.999s59.333 107.5 99 156.5s86.167 91.833 139.5 128.5s113.5 65.5 180.5 86.5s140.833 31.5 221.5 31.5c82.667 0 157.834 -10.667 225.501 -32s127.834 -50.333 180.501 -87
s98.167 -79.5 136.5 -128.5s70.166 -101.167 95.499 -156.5s44 -112.666 56 -171.999s18 -117.333 18 -174c0 -68 -9.66699 -137.5 -29 -208.5s-48.166 -138.333 -86.499 -202s-86.5 -121.334 -144.5 -173.001s-125.333 -91.834 -202 -120.501v-2
c29.333 0 56.166 -1.33301 80.499 -4s47.833 -8 70.5 -16s45.5 -19.667 68.5 -35s48.167 -35.333 75.5 -60c46.667 -44 84.167 -79.5 112.5 -106.5s51.666 -47.667 69.999 -62s35 -24 50 -29s33.833 -7.5 56.5 -7.5v-137h-88c-47.333 0 -86.833 1 -118.5 3
s-60 6.66699 -85 14s-49 18.5 -72 33.5s-48.833 35.167 -77.5 60.5c-43.333 38 -81.666 75.167 -114.999 111.5s-65.5 68.666 -96.5 96.999s-62.833 51 -95.5 68s-70 25.5 -112 25.5c-84 0 -159.5 10.333 -226.5 31s-126.167 49 -177.5 85s-95.166 78.333 -131.499 127
s-66.166 100.667 -89.499 156s-40.5 113 -51.5 173s-16.5 119.333 -16.5 178zM394.997 741.004c0 -43.333 2.99902 -88.665 8.99902 -135.998s15.667 -94.166 29 -140.499s30.666 -90.5 51.999 -132.5s47.166 -78.833 77.499 -110.5s65.833 -57 106.5 -76
s86.667 -28.5 138 -28.5c47.333 0 89.333 8.16699 126 24.5s68.834 38.5 96.501 66.5s51.167 60.667 70.5 98s35 76.833 47 118.5s20.667 84.667 26 129s8 87.166 8 128.499c0 92 -8 176.833 -24 254.5s-40.667 144.667 -74 201s-75.333 100.333 -126 132
s-110.667 47.5 -180 47.5c-48.667 0 -91.834 -8.16699 -129.501 -24.5s-70.667 -38.833 -99 -67.5s-52.166 -61.834 -71.499 -99.501s-35.166 -77.834 -47.499 -120.501s-21.166 -86.5 -26.499 -131.5s-8 -89.167 -8 -132.5z" />
    <glyph glyph-name="R" unicode="R" horiz-adv-x="1404" 
d="M1147 327c22.667 -34 43.0039 -63.002 61.0039 -87.002s35.5 -43.667 52.5 -59s34.667 -26.666 53 -33.999s39.166 -11.333 62.499 -12v-135h-337c-24 17.333 -48.333 42.666 -73 75.999s-50.667 72.333 -78 117l-150 245c-17.333 28 -33 51.333 -47 70
s-27 35.334 -39 50.001c-11.333 -0.666992 -21.333 -1 -30 -1h-26h-24.5c-8.33301 0 -17.5 0.333008 -27.5 1v-221c0 -37.333 -0.666992 -73.166 -2 -107.499s-3.33301 -60.166 -6 -77.499l174 6v-158h-608v135c22.667 1.33301 43.167 3.5 61.5 6.5s33.666 10.333 45.999 22
s21.833 29.167 28.5 52.5s10 55.666 10 96.999v785c0 18.667 0.166992 37 0.5 55s0.833008 35.167 1.5 51.5s1.5 31.166 2.5 44.499s2.16699 24.333 3.5 33l-154 -6v158l583 4c88.667 0 168.834 -7.33301 240.501 -22s133.167 -38.834 184.5 -72.501
s90.666 -77.5 117.999 -131.5s41 -120.333 41 -199c0.666992 -45.333 -6.33301 -89.166 -21 -131.499s-36.834 -81.166 -66.501 -116.499s-67 -67 -112 -95s-98.167 -50.667 -159.5 -68v-2c25.333 -10 50.666 -27 75.999 -51s47 -49.667 65 -77zM644.004 704.998
c56.667 0 105 6.16406 145 18.4971s72.667 31.333 98 57s44 57.834 56 96.501s18 84 18 136c0 44 -5 81.5 -15 112.5s-23 56.833 -39 77.5s-34.167 37 -54.5 49s-40.833 21.167 -61.5 27.5s-40.5 10.333 -59.5 12s-35.5 2.5 -49.5 2.5c-22 0 -41.5 -1.66699 -58.5 -5
s-31.333 -10.666 -43 -21.999s-20.667 -27.666 -27 -48.999s-9.5 -50 -9.5 -86v-420c16 -2 32.333 -3.66699 49 -5s33.667 -2 51 -2z" />
    <glyph glyph-name="S" unicode="S" horiz-adv-x="1225" 
d="M634 115c36.667 0 70.1621 5.00098 100.495 15.001s56.333 23.833 78 41.5s38.5 38.167 50.5 61.5s18 48.333 18 75c0 36 -9.83301 67 -29.5 93s-45.334 48.833 -77.001 68.5s-67 37.334 -106 53.001s-77.833 31.167 -116.5 46.5c-66 26.667 -127.333 55.334 -184 86.001
s-105.667 66 -147 106s-73.666 85.667 -96.999 137s-35 110.666 -35 177.999c0 28 3.5 57.167 10.5 87.5s18 60 33 89s34.833 56.5 59.5 82.5s54.834 48.833 90.501 68.5s77 35.167 124 46.5s100.833 17 161.5 17c26.667 0 55.334 -2.16699 86.001 -6.5
s61.334 -10.5 92.001 -18.5s60.167 -18.167 88.5 -30.5s53.833 -26.5 76.5 -42.5h2l-7 84h158v-479h-134c-18.667 116.667 -58.5 203.334 -119.5 260.001s-139.5 85 -235.5 85c-29.333 0 -57.166 -4.33301 -83.499 -13s-49.666 -20.834 -69.999 -36.501
s-36.5 -34.334 -48.5 -56.001s-18 -45.167 -18 -70.5c0 -32 6.66699 -60.667 20 -86s33.666 -49 60.999 -71s61.666 -43.333 102.999 -64s90.333 -42.334 147 -65.001c34 -14 69.333 -29.333 106 -46s72.334 -35.167 107.001 -55.5s67.5 -43 98.5 -68s58 -52.833 81 -83.5
s41.333 -64.5 55 -101.5s20.5 -77.833 20.5 -122.5c0 -60.667 -12.5 -116.334 -37.5 -167.001s-60.5 -94.167 -106.5 -130.5s-101.333 -64.666 -166 -84.999s-136.667 -30.5 -216 -30.5c-26.667 0 -55 2.16699 -85 6.5s-60.333 10.666 -91 18.999s-61.167 18.833 -91.5 31.5
s-59.166 27.334 -86.499 44.001h-2l7 -87h-158v479h134c9.33301 -57.333 25.333 -107.5 48 -150.5s50.5 -79 83.5 -108s70.5 -50.667 112.5 -65s87 -21.5 135 -21.5z" />
    <glyph glyph-name="T" unicode="T" horiz-adv-x="1331" 
d="M1285 1434l12.001 -463.999h-135c0 108.667 -22.333 190.5 -67 245.5s-106.667 82.167 -186 81.5l-98 -1v-960c0 -18.667 -0.166992 -37 -0.5 -55s-0.833008 -35.167 -1.5 -51.5s-1.5 -31.166 -2.5 -44.499s-2.16699 -24.333 -3.5 -33l164 6v-158h-598v135
c22.667 0.666992 43.167 2.83398 61.5 6.50098s33.666 11.167 45.999 22.5s21.833 28.666 28.5 51.999s10 55.666 10 96.999v981h-95c-78 0 -139.5 -26.333 -184.5 -79s-67.833 -134.334 -68.5 -245.001h-135l12 464h1241z" />
    <glyph glyph-name="U" unicode="U" horiz-adv-x="1556" 
d="M1361 608c0 -118 -14.4961 -217.674 -43.4961 -299.007s-69 -147.333 -120 -198s-111.333 -87.334 -181 -110.001s-145.5 -34 -227.5 -34c-77.333 0 -145.5 7.5 -204.5 22.5s-110.333 36.333 -154 64s-80.334 60.834 -110.001 99.501s-53.5 81.5 -71.5 128.5
s-30.833 97.5 -38.5 151.5s-11.5 110.333 -11.5 169v496c0 18.667 0.166992 37 0.5 55s0.833008 35.167 1.5 51.5s1.5 31.166 2.5 44.499s2.16699 24.333 3.5 33l-154 -6v158h589v-135c-23.333 -1.33301 -44 -3.66602 -62 -6.99902s-33.167 -10.666 -45.5 -21.999
s-21.833 -28.666 -28.5 -51.999s-10 -55.666 -10 -96.999v-563c0 -89.333 9.83301 -162.166 29.5 -218.499s45.5 -100.5 77.5 -132.5s68.5 -54 109.5 -66s82.833 -18 125.5 -18c53.333 0 101.166 9 143.499 27s78.166 45.167 107.499 81.5s51.666 82 66.999 137
s23 119.167 23 192.5v537c0 18.667 0.166992 37 0.5 55s0.833008 35.167 1.5 51.5s1.5 31.166 2.5 44.499s2.16699 24.333 3.5 33l-154 -6v158h474v-135c-23.333 -1.33301 -44 -3.66602 -62 -6.99902s-33.167 -10.666 -45.5 -21.999s-21.833 -28.666 -28.5 -51.999
s-10 -55.666 -10 -96.999v-513z" />
    <glyph glyph-name="V" unicode="V" horiz-adv-x="1449" 
d="M690 677c12 -28 22.832 -54.1699 32.499 -78.5029s18.834 -47.833 27.501 -70.5s17.5 -45.5 26.5 -68.5s18.833 -47.5 29.5 -73.5h2c15.333 40.667 31.333 86 48 136s33.667 98.333 51 145l155 429c4 11.333 9 25.333 15 42s12.667 34 20 52s15.166 35.167 23.499 51.5
s16.833 29.833 25.5 40.5v2l-157 -8v158h461v-135c-22.667 -1.33301 -44 -6 -64 -14s-38.833 -20.667 -56.5 -38s-34.5 -39.666 -50.5 -66.999s-31.333 -60.666 -46 -99.999l-409 -1092h-168l-472 1099c-7.33301 16.667 -14.5 34.167 -21.5 52.5s-13.167 36.333 -18.5 54
s-9.66602 34.167 -12.999 49.5s-5 28.333 -5 39l-109 -6v158h603v-135h-11c-36.667 0 -66.5 -6.66699 -89.5 -20s-34.5 -35.666 -34.5 -66.999c0 -20 5.33301 -43.667 16 -71z" />
    <glyph glyph-name="W" unicode="W" horiz-adv-x="2080" 
d="M1195 1434l232 -754.997c14.667 -48 27.834 -96.167 39.501 -144.5s23.167 -98.5 34.5 -150.5h2c12 46 24.667 92.167 38 138.5s26.666 94.5 39.999 144.5l114 429c9.33301 32.667 20.666 66.167 33.999 100.5s30 62.833 50 85.5v2l-157 -8v158h461v-135
c-22.667 -1.33301 -44.334 -6 -65.001 -14s-40.167 -20.5 -58.5 -37.5s-35.333 -39.167 -51 -66.5s-29.834 -61 -42.501 -101l-335 -1092h-181l-243 733c-18 54 -32.5 106.167 -43.5 156.5s-21.167 98.833 -30.5 145.5h-2c-7.33301 -46.667 -15.833 -91.334 -25.5 -134.001
s-21.5 -87 -35.5 -133l-233 -768h-178l-365 1103c-7.33301 16.667 -14.5 34 -21.5 52s-13.167 35.5 -18.5 52.5s-9.66602 32.833 -12.999 47.5s-5 27.667 -5 39l-109 -6v158h603v-135h-12c-37.333 0 -66.5 -6.5 -87.5 -19.5s-31.5 -36.167 -31.5 -69.5
c-0.666992 -9.33301 0 -19.333 2 -30s4.66699 -22.334 8 -35.001l123 -468c6 -23.333 11.833 -45.333 17.5 -66s11.334 -42.167 17.001 -64.5s11.334 -46.333 17.001 -72s11.5 -54.834 17.5 -87.501h2c3.33301 12 8 29.5 14 52.5s12.833 48.333 20.5 76s15.667 56.5 24 86.5
s16.333 58.5 24 85.5s14.5 51 20.5 72s10.667 36.5 14 46.5l190 628h185z" />
    <glyph glyph-name="X" unicode="X" horiz-adv-x="1432" 
d="M652 1299c-44 0 -76.165 -4.99805 -96.498 -14.998s-30.5 -25 -30.5 -45c0 -11.333 3.5 -23.666 10.5 -36.999s16.167 -27.666 27.5 -42.999l180 -232h2l156 216c14 19.333 26.5 36 37.5 50s21.167 26.167 30.5 36.5s18.166 19.666 26.499 27.999s16.833 16.5 25.5 24.5
v2l-153 -8v158h466v-135c-24 -3.33301 -47.5 -10.333 -70.5 -21s-46.333 -25.334 -70 -44.001s-47.667 -41.834 -72 -69.501s-50.166 -60.167 -77.499 -97.5l-197 -269l386 -491c23.333 -30 44.166 -57.667 62.499 -83s33.166 -49.333 44.499 -72l83 6v-158h-612v135
c42 0 71.5 4.5 88.5 13.5s25.5 21.167 25.5 36.5c0 12 -4.33301 25.667 -13 41s-19.667 31.666 -33 48.999l-208 264h-2l-179 -248c-14 -19.333 -26.333 -36 -37 -50s-20.167 -26.333 -28.5 -37s-16.333 -20 -24 -28s-15.5 -16 -23.5 -24v-2l146 8v-158h-451v135
c38.667 8.66699 78 30.5 118 65.5s85.333 86.167 136 153.5l238 318l-330 417c-23.333 30 -43.833 62.167 -61.5 96.5s-31.5 66.5 -41.5 96.5l-103 -6v158h624v-135z" />
    <glyph glyph-name="Y" unicode="Y" horiz-adv-x="1365" 
d="M858 568l0.000976562 -232.002c0 -18.667 -0.166992 -37 -0.5 -55s-0.833008 -35.167 -1.5 -51.5s-1.5 -31.166 -2.5 -44.499s-2.16699 -24.333 -3.5 -33l164 6v-158h-598v135c22.667 0.666992 43.167 2.83398 61.5 6.50098s33.666 11.167 45.999 22.5
s21.833 28.666 28.5 51.999s10 55.666 10 96.999v179l-378 595c-10 16 -19.667 33 -29 51s-17.666 35.833 -24.999 53.5s-13.166 34.334 -17.499 50.001s-6.5 29.167 -6.5 40.5l-99 -6v158h603v-135c-4 0 -7.83301 0.166992 -11.5 0.5s-7.5 0.5 -11.5 0.5
c-38 0 -68 -6.83301 -90 -20.5s-33 -33.834 -33 -60.501c0.666992 -11.333 2.66699 -23.5 6 -36.5s9.66602 -26.833 18.999 -41.5l157 -257l21 -36c9.33301 -16 19.166 -33.5 29.499 -52.5s20.333 -38.167 30 -57.5s17.167 -36.333 22.5 -51h3
c6.66699 15.333 18 39.5 34 72.5s36.667 75.5 62 127.5l106 209c5.33301 10.667 12.333 24.334 21 41.001s18 34 28 52s20 35.333 30 52s19.667 30.334 29 41.001v2l-157 -8v158h452v-135c-24 -4 -45.833 -10.667 -65.5 -20s-38.5 -22.5 -56.5 -39.5
s-35.833 -38.5 -53.5 -64.5s-36.5 -57.667 -56.5 -95z" />
    <glyph glyph-name="Z" unicode="Z" horiz-adv-x="1237" 
d="M557 388c-29.333 -44 -58.3301 -86.335 -86.9971 -127.002s-58.334 -79 -89.001 -115v-2l374 -8c38 0 72.833 5.33301 104.5 16s59 27.834 82 51.501s40.833 54.667 53.5 93s19 85.5 19 141.5h135l-12 -438h-1055v154l613 934
c25.333 38.667 49.166 73.834 71.499 105.501s46.166 63.5 71.499 95.5v2l-351 9c-38 0 -72.833 -5.16699 -104.5 -15.5s-59 -27.5 -82 -51.5s-40.833 -55.333 -53.5 -94s-19 -86 -19 -142h-135l12 437h1042v-154z" />
    <glyph glyph-name="bracketleft" unicode="[" horiz-adv-x="791" 
d="M129 1546h655v-145l-390 -6l-9 -1766l403 -6v-145h-661z" />
    <glyph glyph-name="backslash" unicode="\" horiz-adv-x="1432" 
d="M50.9971 1427l1169.93 -1982l158.99 105l-1142.93 1997z" />
    <glyph glyph-name="bracketright" unicode="]" horiz-adv-x="791" 
d="M662 -522h-655v145l390 6l9 1766l-403 6v145h661z" />
    <glyph glyph-name="asciicircum" unicode="^" horiz-adv-x="1686" 
d="M936 1467l627 -573h-281l-445 422h-2l-444 -412h-268l631 563h182z" />
    <glyph glyph-name="underscore" unicode="_" horiz-adv-x="1704" 
d="M221 -102l1259 -9v-206h-1259v215z" />
    <glyph glyph-name="grave" unicode="`" horiz-adv-x="578" 
d="M145 1374c-16 15.333 -28.9971 33.5039 -38.9971 54.5039s-15 42.167 -15 63.5c0 13.333 2.66699 26.666 8 39.999s12.666 25.166 21.999 35.499s20.666 18.666 33.999 24.999s27.666 9.5 42.999 9.5c23.333 0 46 -6.83301 68 -20.5s40 -31.834 54 -54.501l168 -286
l-94 -83z" />
    <glyph glyph-name="a" unicode="a" horiz-adv-x="1074" 
d="M631 471c-38.667 -4 -75.001 -11 -109.001 -21s-63.5 -23.167 -88.5 -39.5s-44.667 -35.833 -59 -58.5s-21.5 -48.667 -21.5 -78c0.666992 -19.333 4.33398 -35.666 11.001 -48.999s15.167 -24.333 25.5 -33s22.333 -15 36 -19s27.834 -6 42.501 -6
c32 0 61.667 6.66699 89 20s51.666 31.666 72.999 54.999zM105.999 787c0 40 11.168 76.667 33.501 110s53 61.833 92 85.5s84.833 42 137.5 55s109 19.5 169 19.5s113.5 -7.66699 160.5 -23s86.667 -39 119 -71s57 -72.667 74 -122s25.5 -108 25.5 -176
c0 -34.667 -0.166992 -65.167 -0.5 -91.5s-0.5 -51.666 -0.5 -75.999s-0.166992 -49.833 -0.5 -76.5s-0.5 -57.334 -0.5 -92.001c0 -10 -0.166992 -22 -0.5 -36s-0.666016 -29 -0.999023 -45s-1 -32.5 -2 -49.5s-2.16699 -33.167 -3.5 -48.5l132 6v-156h-387
c-2.66699 19.333 -4.5 35.5 -5.5 48.5s-1.83301 28.167 -2.5 45.5h-2c-46.667 -46.667 -95.334 -79.5 -146.001 -98.5s-103 -28.5 -157 -28.5c-44 0 -83.333 6.83301 -118 20.5s-63.834 32.834 -87.501 57.501s-41.834 53.5 -54.501 86.5s-19 69.167 -19 108.5
c0 43.333 7.66699 82.333 23 117s36.5 65.667 63.5 93s58.833 51 95.5 71s76.167 36.667 118.5 50s86.5 23.666 132.5 30.999s92 12 138 14v107c0 27.333 -2.33301 52.5 -7 75.5s-12.667 42.833 -24 59.5s-26.333 29.667 -45 39s-42 13.666 -70 12.999
c-28 -1.33301 -54 -7 -78 -17s-44.667 -24 -62 -42c10.667 -11.333 17.5 -24.333 20.5 -39s4.5 -27 4.5 -37c0 -14.667 -2.66699 -29.5 -8 -44.5s-13.666 -28.667 -24.999 -41s-25.666 -22.5 -42.999 -30.5s-38 -12 -62 -12c-20 0.666992 -38 4.83398 -54 12.501
s-29.333 17.667 -40 30s-18.834 26.833 -24.501 43.5s-8.5 34.667 -8.5 54z" />
    <glyph glyph-name="b" unicode="b" horiz-adv-x="1173" 
d="M128 1157c0 24.667 0.498047 53.0029 1.49805 85.0029s3.16699 63.333 6.5 94l-144 -6v155c47.333 0 89.166 2 125.499 6s67.333 9 93 15s46.334 12.5 62.001 19.5s27.167 13.833 34.5 20.5h111v-599c46 41.333 92.833 70 140.5 86s92.834 24 135.501 24
c61.333 0 117.333 -12.167 168 -36.5s94.167 -59 130.5 -104s64.5 -99.5 84.5 -163.5s30 -135.667 30 -215c0 -82.667 -11.333 -158.834 -34 -228.501s-55.5 -129.834 -98.5 -180.501s-95.167 -90.334 -156.5 -119.001s-130.666 -43 -207.999 -43c-18.667 0 -40 1.5 -64 4.5
s-49.333 9 -76 18s-53.5 21.667 -80.5 38s-52.5 37.5 -76.5 63.5h-2l-59 -91h-124v1157zM582.998 872.003c-34 -1.33301 -65.5029 -9.83301 -94.5029 -25.5s-52.5 -36.167 -70.5 -61.5v-478c0 -36 4.66699 -66.167 14 -90.5s21.5 -43.833 36.5 -58.5
s31.833 -25.167 50.5 -31.5s37.334 -9.5 56.001 -9.5c44.667 0 81.834 11 111.501 33s53.5 51.167 71.5 87.5s30.667 77.833 38 124.5s11 95 11 145c0 48 -4.33301 94 -13 138s-22 82.833 -40 116.5s-41.167 60.5 -69.5 80.5s-62.166 30 -101.499 30z" />
    <glyph glyph-name="c" unicode="c" horiz-adv-x="1060" 
d="M713 756c0 12 2.00098 26.498 6.00098 43.498s10.333 32.167 19 45.5c-7.33301 13.333 -16.833 24.333 -28.5 33s-24 15.667 -37 21s-26 9 -39 11s-24.5 3 -34.5 3c-34.667 0 -66.334 -7.83301 -95.001 -23.5s-53.5 -39 -74.5 -70s-37.333 -69.167 -49 -114.5
s-17.5 -97.666 -17.5 -156.999c0 -52 4.83301 -102 14.5 -150s25.5 -90.333 47.5 -127s51 -66 87 -88s80.333 -33 133 -33c27.333 0 54.833 3.83301 82.5 11.5s54.167 18.334 79.5 32.001s49.5 30.167 72.5 49.5s43.5 40.666 61.5 63.999l94 -91
c-37.333 -51.333 -75.666 -93.166 -114.999 -125.499s-79 -57.666 -119 -75.999s-79.667 -30.833 -119 -37.5s-77.666 -10 -114.999 -10c-69.333 0 -134.5 11.667 -195.5 35s-114.333 57.333 -160 102s-81.834 99.334 -108.501 164.001s-40 138.667 -40 222
c0 76.667 13 149.5 39 218.5s62.333 129.167 109 180.5s102.667 92.166 168 122.499s137.666 45.5 216.999 45.5c64.667 0 121.667 -8 171 -24s90.5 -37 123.5 -63s57.833 -55.833 74.5 -89.5s25 -68.5 25 -104.5c0 -20.667 -3.16699 -40.334 -9.5 -59.001
s-15.666 -35 -27.999 -49s-27.5 -25 -45.5 -33s-38.333 -12 -61 -12c-25.333 0 -46.333 4.33301 -63 13s-30.334 19.5 -41.001 32.5s-18.167 27.333 -22.5 43s-6.5 30.5 -6.5 44.5z" />
    <glyph glyph-name="d" unicode="d" horiz-adv-x="1221" 
d="M1045 1546l0.000976562 -1217c0 -10 -0.166992 -22 -0.5 -36s-0.833008 -29 -1.5 -45s-1.5 -32.5 -2.5 -49.5s-2.16699 -33.167 -3.5 -48.5l133 6v-156h-389l-11 95h-2c-45.333 -47.333 -92.166 -80.5 -140.499 -99.5s-97.833 -28.5 -148.5 -28.5
c-61.333 0 -117.333 12.167 -168 36.5s-94.167 59 -130.5 104s-64.5 99.5 -84.5 163.5s-30 135.667 -30 215c0 82.667 12.167 158.834 36.5 228.501s58.666 129.834 102.999 180.501s97.666 90.334 159.999 119.001s131.5 43 207.5 43c38 0 71.5 -3.83301 100.5 -11.5
s56.167 -16.167 81.5 -25.5v136c0 10 0.166992 22 0.5 36s0.833008 29 1.5 45s1.5 32.5 2.5 49.5s2.16699 33.167 3.5 48.5l-144 -6v156c47.333 0 89.166 2 125.499 6s67.333 9 93 15s46.334 12.5 62.001 19.5s27.167 13.833 34.5 20.5h111zM586.001 153.997
c34.667 0 67 8.99609 97 26.9961s54 41.333 72 70v616c-14.667 10 -35 18.833 -61 26.5s-54 11.5 -84 11.5c-47.333 -1.33301 -86.666 -13.166 -117.999 -35.499s-56.333 -51.666 -75 -87.999s-31.834 -77.5 -39.501 -123.5s-11.5 -93 -11.5 -141c0 -44 4 -87.667 12 -131
s20.833 -82.166 38.5 -116.499s40.5 -62.166 68.5 -83.499s61.667 -32 101 -32z" />
    <glyph glyph-name="e" unicode="e" horiz-adv-x="1102" 
d="M585 913c-30 0 -56.833 -5.66602 -80.5 -16.999s-44.167 -27 -61.5 -47s-31.5 -44.167 -42.5 -72.5s-18.833 -59.5 -23.5 -93.5h377c-1.33301 42 -6.33301 77.667 -15 107s-20.5 53.166 -35.5 71.499s-32.5 31.5 -52.5 39.5s-42 12 -66 12zM1037 551.001l-672.998 -12
c0 -56 5.16699 -107.833 15.5 -155.5s26.833 -88.667 49.5 -123s52.334 -61.333 89.001 -81s81.667 -29.5 135 -29.5c20.667 0 43.667 2.66699 69 8s51.166 14 77.499 26s52.833 27.833 79.5 47.5s51.667 43.834 75 72.501l92 -87
c-36.667 -52.667 -75.667 -95.334 -117 -128.001s-82.833 -58 -124.5 -76s-82.667 -30.167 -123 -36.5s-77.833 -9.5 -112.5 -9.5c-75.333 0 -144 12.667 -206 38s-115.333 61.666 -160 108.999s-79.167 104.333 -103.5 171s-36.5 141.667 -36.5 225
c0 72 12.167 140.833 36.5 206.5s58.833 123.834 103.5 174.501s98.5 91 161.5 121s133.167 45 210.5 45c38 0 75.833 -3.33301 113.5 -10s73.667 -17.834 108 -33.501s66.333 -36.167 96 -61.5s55.167 -56.666 76.5 -93.999s38.166 -81.333 50.499 -132
s18.166 -109 17.499 -175z" />
    <glyph glyph-name="f" unicode="f" horiz-adv-x="755" 
d="M497 861l2.99902 -527.998c0 -10 -0.166992 -22.167 -0.5 -36.5s-0.833008 -29.833 -1.5 -46.5s-1.5 -33.667 -2.5 -51s-2.16699 -33.666 -3.5 -48.999l143 6v-156h-547v133c28.667 0 51.167 4.33301 67.5 13s28.5 21 36.5 37s13 35.167 15 57.5s3 47.166 3 74.499v541
l-148 -3v171h148v60c0 82.667 9.33301 153.167 28 211.5s45.5 106 80.5 143s77.333 64.167 127 81.5s105.167 26 166.5 26c48 0 88.667 -5.33301 122 -16s60.333 -24.667 81 -42s35.5 -36.666 44.5 -57.999s13.5 -42.666 13.5 -63.999
c0 -18.667 -2.83301 -36.334 -8.5 -53.001s-14.167 -31.334 -25.5 -44.001s-25.333 -22.667 -42 -30s-36 -11 -58 -11c-38 0 -67.5 11 -88.5 33s-31.5 50.333 -31.5 85c0 11.333 1.66699 24.666 5 39.999c-6.66699 7.33301 -14.667 12 -24 14s-16.666 3 -21.999 3
c-17.333 -0.666992 -31.333 -5 -42 -13s-19 -18 -25 -30s-10.167 -25.333 -12.5 -40s-3.5 -29.334 -3.5 -44.001l1 -252h229v-158z" />
    <glyph glyph-name="g" unicode="g" horiz-adv-x="1140" 
d="M583 -114c-15.333 0.666992 -31.999 1.33203 -49.999 1.99902s-36.167 1.66699 -54.5 3s-36.5 2.83301 -54.5 4.5s-34.333 3.83398 -49 6.50098c-22.667 -17.333 -39.334 -39.333 -50.001 -66s-16 -52 -16 -76c0 -26.667 6.33301 -50.667 19 -72s31 -39.5 55 -54.5
s52.833 -26.5 86.5 -34.5s71.5 -12 113.5 -12c48 0 90.5 5 127.5 15s68 22.833 93 38.5s43.833 33.167 56.5 52.5s19 38.666 19 57.999c0 42 -24 73.833 -72 95.5s-122.667 34.834 -224 39.501zM553.001 918.998c-27.333 0 -51.499 -6.66992 -72.499 -20.0029
s-39 -31.166 -54 -53.499s-26.333 -48.166 -34 -77.499s-11.5 -59.666 -11.5 -90.999c0 -36 3.83301 -70.667 11.5 -104s18.834 -62.833 33.501 -88.5s33 -46.167 55 -61.5s47 -23 75 -23c27.333 0 51.5 6.66699 72.5 20s38.667 31 53 53s25.166 46.833 32.499 74.5
s11 55.5 11 83.5c0 36 -3.5 71.167 -10.5 105.5s-17.667 65 -32 92s-32.333 48.833 -54 65.5s-46.834 25 -75.501 25zM1074 984.995c-10 0 -20.499 2.16602 -31.499 6.49902s-21.167 10 -30.5 17s-17.333 15.333 -24 25s-11 19.834 -13 30.501
c-9.33301 -2 -18.666 -8 -27.999 -18s-17.833 -21.667 -25.5 -35s-14.334 -27.166 -20.001 -41.499s-9.5 -26.833 -11.5 -37.5c40 -34 70.333 -73.5 91 -118.5s31 -93.5 31 -145.5c0 -59.333 -13 -113.833 -39 -163.5s-60.5 -92.5 -103.5 -128.5s-92.5 -64 -148.5 -84
s-114 -30 -174 -30c-18.667 0 -38.834 1.16699 -60.501 3.5s-42.834 3.5 -63.501 3.5c-30 0 -55.167 -5.5 -75.5 -16.5s-30.5 -26.167 -30.5 -45.5c0 -12.667 4.66699 -23.334 14 -32.001s24.333 -15.667 45 -21s47.667 -9.83301 81 -13.5s74 -6.83398 122 -9.50098
c78.667 -4.66699 150.167 -13.167 214.5 -25.5s119.5 -30.833 165.5 -55.5s81.667 -56.834 107 -96.501s38 -89.167 38 -148.5c0 -38.667 -8 -74.5 -24 -107.5s-37.833 -62.833 -65.5 -89.5s-60.334 -50.167 -98.001 -70.5s-77.834 -37.333 -120.501 -51
s-87.167 -24 -133.5 -31s-92.166 -10.5 -137.499 -10.5c-88.667 0 -162.834 7.5 -222.501 22.5s-107.667 35 -144 60s-62.166 53.5 -77.499 85.5s-23 65.333 -23 100c0 21.333 3.16699 43 9.5 65s17 43.167 32 63.5s34.833 39.666 59.5 57.999s55.667 34.5 93 48.5
c-28 8 -51.667 18.333 -71 31s-35 26.834 -47 42.501s-20.667 32.667 -26 51s-8 37.166 -8 56.499c0 17.333 3.33301 36.333 10 57s17.834 41.334 33.501 62.001s36.167 39.834 61.5 57.501s57 32.167 95 43.5v2c-30 11.333 -57.333 26.333 -82 45
s-45.834 40.667 -63.501 66s-31.5 53.666 -41.5 84.999s-15 65.333 -15 102c0 60 12.833 115 38.5 165s59.834 93 102.501 129s91.334 64 146.001 84s111 30 169 30c18 0 37.667 -1.16699 59 -3.5s43 -6 65 -11s43.333 -11.5 64 -19.5s39.667 -18 57 -30
c11.333 31.333 25 61.833 41 91.5s34.833 56.167 56.5 79.5s46 42 73 56s56.833 21 89.5 21c46 0 81.167 -12 105.5 -36s36.5 -56 36.5 -96c0 -12.667 -2 -26.167 -6 -40.5s-10.833 -27.666 -20.5 -39.999s-22.667 -22.666 -39 -30.999s-36.833 -12.5 -61.5 -12.5z" />
    <glyph glyph-name="h" unicode="h" horiz-adv-x="1271" 
d="M1107 329c0 -10 -0.167969 -21.9971 -0.500977 -35.9971s-0.833008 -29 -1.5 -45s-1.5 -32.5 -2.5 -49.5s-2.16699 -33.167 -3.5 -48.5l133 6v-156h-537v133c28.667 0 51.167 4.33301 67.5 13s28.5 21 36.5 37s13 35.167 15 57.5s3 47.166 3 74.499l-1 292
c-0.666992 90 -14.334 156 -41.001 198s-68.334 63 -125.001 63c-35.333 -0.666992 -69.5 -8.16699 -102.5 -22.5s-61.167 -31.833 -84.5 -52.5v-464c0 -10 -0.166992 -22 -0.5 -36s-0.833008 -29 -1.5 -45s-1.5 -32.5 -2.5 -49.5s-2.16699 -33.167 -3.5 -48.5l133 6v-156
h-537v133c28.667 0 51.167 4.33301 67.5 13s28.5 21 36.5 37s13 35.167 15 57.5s3 47.166 3 74.499v842c0 24.667 0.5 53 1.5 85s3.16699 63.333 6.5 94l-144 -6v155c47.333 0 89.166 2 125.499 6s67.333 9 93 15s46.334 12.5 62.001 19.5s27.167 13.833 34.5 20.5h111v-603
c20 16 42.833 30.833 68.5 44.5s52 25.667 79 36s53.667 18.5 80 24.5s49.833 9 70.5 9c62.667 0 115.834 -8.83301 159.501 -26.5s79.334 -44.834 107.001 -81.501s47.834 -83.667 60.501 -141s19 -125.333 19 -204v-275z" />
    <glyph glyph-name="i" unicode="i" horiz-adv-x="670" 
d="M495 329c0 -10 -0.166992 -21.999 -0.5 -35.999s-0.833008 -29 -1.5 -45s-1.5 -32.5 -2.5 -49.5s-2.16699 -33.167 -3.5 -48.5l133 6v-156h-537v133c28.667 0 51.167 4.33301 67.5 13s28.5 21 36.5 37s13 35.167 15 57.5s3 47.166 3 74.499v340c0 24.667 0.5 53 1.5 85
s3.16699 63.333 6.5 94l-144 -6v155c47.333 0 89.166 2 125.499 6s67.333 9 93 15s46.334 12.5 62.001 19.5s27.167 13.833 34.5 20.5h111v-715zM525 1393c0 -23.333 -3.66602 -45 -10.999 -65s-17.5 -37.667 -30.5 -53s-29 -27.333 -48 -36s-39.833 -13 -62.5 -13
c-23.333 0 -44.833 4.33301 -64.5 13s-36.5 20.667 -50.5 36s-24.833 33 -32.5 53s-11.5 41.667 -11.5 65s4.16699 45.333 12.5 66s19.666 38.667 33.999 54s30.833 27.333 49.5 36s38.667 13 60 13c22 0 42.5 -4.33301 61.5 -13s35.5 -20.667 49.5 -36
s24.833 -33.333 32.5 -54s11.5 -42.667 11.5 -66z" />
    <glyph glyph-name="j" unicode="j" horiz-adv-x="603" 
d="M185 655c0 24.667 0.500977 52.9971 1.50098 84.9971s3.16699 63.333 6.5 94l-144 -6v155c47.333 0 89.166 2 125.499 6s67.333 9 93 15s46.334 12.5 62.001 19.5s27.167 13.833 34.5 20.5h111v-1040c0 -94.667 -11 -177 -33 -247s-52.333 -128.167 -91 -174.5
s-84.334 -80.833 -137.001 -103.5s-109.667 -34 -171 -34c-38 0 -71 4.83301 -99 14.5s-51.167 22.334 -69.5 38.001s-32 33.5 -41 53.5s-13.5 40.667 -13.5 62c0 18.667 3 36.334 9 53.001s14.667 31.5 26 44.5s25.333 23.333 42 31s35.667 11.5 57 11.5
c36 0 64.667 -11.333 86 -34s32 -52 32 -88c0 -10.667 -1 -22 -3 -34c3.33301 -2.66699 8.83301 -4.83398 16.5 -6.50098s14.167 -2.5 19.5 -2.5c18.667 0 33.667 5.16699 45 15.5s20 23.333 26 39s9.83301 32.334 11.5 50.001s2.5 33.834 2.5 48.501zM494.001 1393
c0 -23.333 -3.66602 -45 -10.999 -65s-17.5 -37.667 -30.5 -53s-29 -27.333 -48 -36s-39.833 -13 -62.5 -13c-23.333 0 -44.833 4.33301 -64.5 13s-36.5 20.667 -50.5 36s-24.833 33 -32.5 53s-11.5 41.667 -11.5 65s4.16699 45.333 12.5 66s19.666 38.667 33.999 54
s30.833 27.333 49.5 36s38.667 13 60 13c22 0 42.5 -4.33301 61.5 -13s35.5 -20.667 49.5 -36s24.833 -33.333 32.5 -54s11.5 -42.667 11.5 -66z" />
    <glyph glyph-name="k" unicode="k" horiz-adv-x="1216" 
d="M464 329c0 -10 -0.166016 -21.999 -0.499023 -35.999s-0.833008 -29 -1.5 -45s-1.5 -32.5 -2.5 -49.5s-2.16699 -33.167 -3.5 -48.5l133 6v-156h-537v133c28.667 0 51.167 4.33301 67.5 13s28.5 21 36.5 37s13 35.167 15 57.5s3 47.166 3 74.499v842
c0 24.667 0.5 53 1.5 85s3.16699 63.333 6.5 94l-144 -6v155c47.333 0 89.166 2 125.499 6s67.333 9 93 15s46.334 12.5 62.001 19.5s27.167 13.833 34.5 20.5h111v-934h100l146 170c17.333 20 31.833 36.5 43.5 49.5s23.834 25.167 36.501 36.5v2l-109 -2v156h462v-131
c-36 -4 -68.833 -11.667 -98.5 -23s-56.334 -24.5 -80.001 -39.5s-44.834 -31.167 -63.501 -48.5s-35.334 -34 -50.001 -50l-131 -146v-2c10.667 -5.33301 20.834 -11.5 30.501 -18.5s19.667 -15.333 30 -25s21.5 -21.334 33.5 -35.001s25.333 -30.167 40 -49.5l137 -179
c8 -10.667 18.333 -24.167 31 -40.5s27 -32.166 43 -47.499s33.667 -28.5 53 -39.5s39.666 -16.5 60.999 -16.5v-133h-235c-22 0 -42.167 4 -60.5 12s-36.333 19.5 -54 34.5s-35.667 33.667 -54 56s-38.166 47.833 -59.499 76.5c-18 24 -37 50 -57 78
s-39.167 55.333 -57.5 82s-35.5 51.5 -51.5 74.5s-29 41.5 -39 55.5l-47 -2v-138z" />
    <glyph glyph-name="l" unicode="l" horiz-adv-x="639" 
d="M463 329c0 -10 -0.166992 -21.999 -0.5 -35.999s-0.833008 -29 -1.5 -45s-1.5 -32.5 -2.5 -49.5s-2.16699 -33.167 -3.5 -48.5l133 6v-156h-537v133c28.667 0 51.167 4.33301 67.5 13s28.5 21 36.5 37s13 35.167 15 57.5s3 47.166 3 74.499v842c0 24.667 0.5 53 1.5 85
s3.16699 63.333 6.5 94l-144 -6v155c47.333 0 89.166 2 125.499 6s67.333 9 93 15s46.334 12.5 62.001 19.5s27.167 13.833 34.5 20.5h111v-1217z" />
    <glyph glyph-name="m" unicode="m" horiz-adv-x="1885" 
d="M1109 329c0 -10 -0.169922 -21.9971 -0.50293 -35.9971s-0.833008 -29 -1.5 -45s-1.5 -32.5 -2.5 -49.5s-2.16699 -33.167 -3.5 -48.5l133 6v-156h-527v133c26 0 46.5 4.33301 61.5 13s26.167 21 33.5 37s12 35.167 14 57.5s3 47.166 3 74.499l-1 320
c0 44.667 -3.66699 82 -11 112s-17.5 54 -30.5 72s-28.667 30.667 -47 38s-39.166 11 -62.499 11c-32.667 0 -63.667 -7.5 -93 -22.5s-55 -32.5 -77 -52.5v-464c0 -10 -0.166992 -22 -0.5 -36s-0.833008 -29 -1.5 -45s-1.5 -32.5 -2.5 -49.5s-2.16699 -33.167 -3.5 -48.5
l123 6v-156h-527v133c28.667 0 51.167 4.33301 67.5 13s28.5 21 36.5 37s13 35.167 15 57.5s3 47.166 3 74.499v345c0 24.667 0.5 52.167 1.5 82.5s3.16699 60.833 6.5 91.5l-144 -6v155c47.333 0 89.166 2 125.499 6s67.333 9 93 15s46.334 12.5 62.001 19.5
s27.167 13.833 34.5 20.5h101l9 -101h3c20 15.333 42 30 66 44s48.5 26.167 73.5 36.5s51 18.5 78 24.5s53.833 9 80.5 9c62.667 0 114.5 -11 155.5 -33s73.833 -56 98.5 -102c24.667 20.667 50.667 39.334 78 56.001s55.5 30.834 84.5 42.501s58 20.667 87 27
s57.167 9.5 84.5 9.5c54.667 0 103 -7.5 145 -22.5s77 -39.333 105 -73s49.167 -77.5 63.5 -131.5s21.5 -120.333 21.5 -199v-302c0 -10 -0.166992 -22 -0.5 -36s-0.833008 -29 -1.5 -45s-1.5 -32.5 -2.5 -49.5s-2.16699 -33.167 -3.5 -48.5l133 6v-156h-517v133
c23.333 0 41.833 4.33301 55.5 13s24 21 31 37s11.333 35.167 13 57.5s2.5 47.166 2.5 74.499l-1 314c0 46 -4.16699 84.333 -12.5 115s-19.666 55 -33.999 73s-31.666 30.667 -51.999 38s-42.833 11 -67.5 11c-34.667 -0.666992 -66 -7.33398 -94 -20.001
s-53.667 -28.334 -77 -47.001c5.33301 -28 9.5 -58 12.5 -90s4.5 -67 4.5 -105v-275z" />
    <glyph glyph-name="n" unicode="n" horiz-adv-x="1303" 
d="M1139 329c0 -10 -0.168945 -21.9961 -0.501953 -35.9961s-0.833008 -29 -1.5 -45s-1.5 -32.5 -2.5 -49.5s-2.16699 -33.167 -3.5 -48.5l133 6v-156h-537v133c28.667 0 51.167 4.33301 67.5 13s28.5 21 36.5 37s13 35.167 15 57.5s3 47.166 3 74.499l-1 292
c-0.666992 90 -14.334 156 -41.001 198s-68.334 63 -125.001 63c-35.333 0 -69.5 -7.33301 -102.5 -22s-61.167 -32.334 -84.5 -53.001v-464c0 -10 -0.166992 -22 -0.5 -36s-0.833008 -29 -1.5 -45s-1.5 -32.5 -2.5 -49.5s-2.16699 -33.167 -3.5 -48.5l133 6v-156h-537v133
c28.667 0 51.167 4.33301 67.5 13s28.5 21 36.5 37s13 35.167 15 57.5s3 47.166 3 74.499v345c0 24.667 0.5 52.167 1.5 82.5s3.16699 60.833 6.5 91.5l-144 -6v155c47.333 0 89.166 2 125.499 6s67.333 9 93 15s46.334 12.5 62.001 19.5s27.167 13.833 34.5 20.5h101
l9 -101h3c20 15.333 42.833 30 68.5 44s52 26.167 79 36.5s53.333 18.5 79 24.5s48.834 9 69.501 9c62.667 0 115.834 -8.83301 159.501 -26.5s79.334 -44.834 107.001 -81.501s47.834 -83.667 60.501 -141s19 -125.333 19 -204v-275z" />
    <glyph glyph-name="o" unicode="o" horiz-adv-x="1159" 
d="M575 913c-40 -1.33301 -73.332 -12.8291 -99.999 -34.4961s-48.334 -49.834 -65.001 -84.501s-28.5 -73.834 -35.5 -117.501s-10.5 -87.834 -10.5 -132.501c0 -52.667 4.16699 -104.834 12.5 -156.501s21.666 -97.834 39.999 -138.501s42 -73.667 71 -99
s64.167 -38 105.5 -38c40.667 0.666992 73.834 12 99.501 34s46 50.5 61 85.5s25.333 74.167 31 117.5s8.5 87 8.5 131c0 50.667 -3.5 101.834 -10.5 153.501s-19 98.167 -36 139.5s-39.333 75 -67 101s-62.5 39 -104.5 39zM579.001 1057c73.333 0 141.503 -12 204.503 -36
s117.5 -58.667 163.5 -104s82.167 -100.5 108.5 -165.5s39.5 -138.5 39.5 -220.5c0 -86 -12.5 -163.833 -37.5 -233.5s-60 -129 -105 -178s-98.833 -86.667 -161.5 -113s-131.334 -39.5 -206.001 -39.5c-74 0 -142.833 12.167 -206.5 36.5s-118.834 59 -165.501 104
s-83.334 99.667 -110.001 164s-40 136.833 -40 217.5c0 84.667 13.667 162 41 232s64.5 129.833 111.5 179.5s101.833 88.167 164.5 115.5s129 41 199 41z" />
    <glyph glyph-name="p" unicode="p" horiz-adv-x="1231" 
d="M641 872c-34 -1.33301 -65.501 -10 -94.501 -26s-52.5 -37 -70.5 -63v-625c6.66699 -5.33301 15.5 -10.333 26.5 -15s23 -8.66699 36 -12s26.833 -6 41.5 -8s29.334 -3 44.001 -3c47.333 0 86.5 10.833 117.5 32.5s55.667 50.5 74 86.5s31.166 77.333 38.499 124
s11 94.667 11 144c0 48 -4.33301 94 -13 138s-22 82.833 -40 116.5s-41.167 60.5 -69.5 80.5s-62.166 30 -101.499 30zM185.999 660c0 24.667 0.495117 52.1719 1.49512 82.5049s3.16699 60.833 6.5 91.5l-144 -6v155c47.333 0 89 2 125 6s66.833 9 92.5 15
s46.334 12.5 62.001 19.5s27.167 13.833 34.5 20.5h101l10 -98h3c46.667 41.333 93.334 70.166 140.001 86.499s91.334 24.5 134.001 24.5c61.333 0 117.333 -12.167 168 -36.5s94.167 -59 130.5 -104s64.5 -99.5 84.5 -163.5s30 -135.667 30 -215
c0 -82.667 -12.167 -158.834 -36.5 -228.501s-58.666 -129.834 -102.999 -180.501s-97.666 -90.334 -159.999 -119.001s-131.5 -43 -207.5 -43c-38 0 -71.5 3.83301 -100.5 11.5s-56.167 16.167 -81.5 25.5v-197c0 -10 -0.166992 -22 -0.5 -36s-0.833008 -29 -1.5 -45
s-1.5 -32.5 -2.5 -49.5s-2.16699 -33.167 -3.5 -48.5l133 6v-156h-537v133c28.667 0 51.167 4.33301 67.5 13s28.5 21 36.5 37s13 35.167 15 57.5s3 47.166 3 74.499v867z" />
    <glyph glyph-name="q" unicode="q" horiz-adv-x="1174" 
d="M1046 -193c0 -10 -0.166992 -22.0029 -0.5 -36.0029s-0.833008 -29 -1.5 -45s-1.5 -32.5 -2.5 -49.5s-2.16699 -33.167 -3.5 -48.5l133 6v-156h-537v133c28 0 50.167 4.33301 66.5 13s28.5 21 36.5 37s13.167 35.167 15.5 57.5s3.5 47.166 3.5 74.499l2 289h-2
c-44 -42.667 -89 -72.5 -135 -89.5s-93.333 -25.5 -142 -25.5c-61.333 0 -117.333 12.167 -168 36.5s-94.167 59 -130.5 104s-64.5 99.5 -84.5 163.5s-30 135.667 -30 215c0 82.667 12.167 158.834 36.5 228.501s58.833 129.834 103.5 180.501s98.5 90.334 161.5 119.001
s133.167 43 210.5 43c38 0 71.667 -2.33301 101 -7s55.5 -10 78.5 -16s43.167 -11.333 60.5 -16s33 -7 47 -7c10 0 22.167 2.83301 36.5 8.5s25.5 13.834 33.5 24.501h111v-1237zM586 151.997c34 0 66.335 8.83203 97.002 26.499s55 40.5 73 68.5v481
c0 38 -5 68.833 -15 92.5s-22.833 41.834 -38.5 54.501s-32.834 21.167 -51.501 25.5s-36.667 6.5 -54 6.5c-45.333 0 -83 -11.333 -113 -34s-53.667 -52.5 -71 -89.5s-29.5 -78.833 -36.5 -125.5s-10.5 -93.667 -10.5 -141c0.666992 -44 5.16699 -87.833 13.5 -131.5
s21.166 -82.667 38.499 -117s39.833 -62.333 67.5 -84s61.167 -32.5 100.5 -32.5z" />
    <glyph glyph-name="r" unicode="r" horiz-adv-x="984" 
d="M792 1057c24 0 46.8311 -3.33203 68.498 -9.99902s40.667 -16.834 57 -30.501s29.333 -31.167 39 -52.5s14.5 -47 14.5 -77c0 -16 -2.66699 -32.5 -8 -49.5s-13.666 -32.5 -24.999 -46.5s-26.166 -25.5 -44.499 -34.5s-40.5 -13.5 -66.5 -13.5
c-14 0 -28.333 1.83301 -43 5.5s-28.167 10 -40.5 19s-23 21.167 -32 36.5s-14.5 35 -16.5 59c-20.667 0 -41.5 -6.83301 -62.5 -20.5s-40.667 -30.667 -59 -51s-34.5 -42.166 -48.5 -65.499s-24 -44.333 -30 -63v-334c0 -10 -0.166992 -22 -0.5 -36s-0.833008 -29 -1.5 -45
s-1.5 -32.5 -2.5 -49.5s-2.16699 -33.167 -3.5 -48.5l133 6v-156h-537v133c28.667 0 51.167 4.33301 67.5 13s28.5 21 36.5 37s13 35.167 15 57.5s3 47.166 3 74.499v345c0 24.667 0.5 52.167 1.5 82.5s3.16699 60.833 6.5 91.5l-144 -6v155c47.333 0 89.166 2 125.499 6
s67.333 9 93 15s46.334 12.5 62.001 19.5s27.167 13.833 34.5 20.5h101l9 -176h3c13.333 18 29.5 38 48.5 60s41 42.5 66 61.5s52.5 35 82.5 48s62.667 19.5 98 19.5z" />
    <glyph glyph-name="s" unicode="s" horiz-adv-x="993" 
d="M225 338c2.66699 -31.333 12.666 -60.665 29.999 -87.998s40 -51 68 -71s60.833 -35.667 98.5 -47s78.167 -17 121.5 -17c16.667 0 33.5 2 50.5 6s32.167 10.167 45.5 18.5s24.166 18.833 32.499 31.5s12.5 28 12.5 46c0 19.333 -5.16699 35.833 -15.5 49.5
s-25.5 26.334 -45.5 38.001s-44.833 23.167 -74.5 34.5s-63.834 24.666 -102.501 39.999c-42.667 16.667 -85.667 33.834 -129 51.501s-82.666 39.167 -117.999 64.5s-64.166 56.5 -86.499 93.5s-33.5 83.167 -33.5 138.5c0 39.333 7.5 78.666 22.5 117.999
s38.167 74.666 69.5 105.999s71.333 56.833 120 76.5s106.667 29.5 174 29.5c18.667 0 38.834 -1.33301 60.501 -4s43.5 -6.83398 65.5 -12.501s43.333 -12.834 64 -21.501s39.334 -19 56.001 -31h2l-3 58h156v-362h-132c-6 35.333 -17.167 67.166 -33.5 95.499
s-36.833 52.333 -61.5 72s-52.834 34.834 -84.501 45.501s-65.834 16 -102.501 16c-17.333 0 -34.166 -2 -50.499 -6s-30.833 -10.333 -43.5 -19s-22.667 -19.834 -30 -33.501s-11 -30.5 -11 -50.5c0 -24 6.33301 -43.833 19 -59.5s30.334 -29.167 53.001 -40.5
s49.167 -21.833 79.5 -31.5s63.166 -20.5 98.499 -32.5c52 -18 100 -37.667 144 -59s82 -46.166 114 -74.499s57.167 -60.666 75.5 -96.999s27.5 -78.5 27.5 -126.5c0 -53.333 -10.5 -99.833 -31.5 -139.5s-48.833 -72.5 -83.5 -98.5s-74.334 -45.5 -119.001 -58.5
s-91 -19.5 -139 -19.5c-29.333 0 -58.666 2 -87.999 6s-57.333 9.5 -84 16.5s-51.167 15.5 -73.5 25.5s-41.5 21 -57.5 33h-2l7 -62h-156l-8 352h132z" />
    <glyph glyph-name="t" unicode="t" horiz-adv-x="846" 
d="M34 1024c35.333 0.666992 68.3301 9.50195 98.9971 26.502s58.167 38.167 82.5 63.5s45 53 62 83s29.5 58 37.5 84h151l-1 -257h261v-158l-261 -5c-0.666992 -96.667 -1.16699 -176.834 -1.5 -240.501s-0.666016 -114.667 -0.999023 -153s-0.5 -65.666 -0.5 -81.999
v-28.5c0 -24 1.5 -47.833 4.5 -71.5s9 -45 18 -64s21.667 -34.333 38 -46s37.5 -17.5 63.5 -17.5c8.66699 0 19.5 1.33301 32.5 4s27.667 8.16699 44 16.5s33.833 20.666 52.5 36.999s37.667 38.166 57 65.499l99 -92c-37.333 -54.667 -74.666 -97 -111.999 -127
s-73 -52 -107 -66s-65 -22.333 -93 -25s-51.333 -4 -70 -4c-22.667 0 -46.167 1.83301 -70.5 5.5s-48.333 10.5 -72 20.5s-46 24.167 -67 42.5s-39.667 42.166 -56 71.499s-29.166 64.833 -38.499 106.5s-14 90.834 -14 147.501l3 494l-140 -2v171z" />
    <glyph glyph-name="u" unicode="u" horiz-adv-x="1266" 
d="M1091 329c-0.666992 -38 -1.33398 -65.001 -2.00098 -81.001s-1.5 -32.5 -2.5 -49.5s-2.16699 -33.167 -3.5 -48.5l133 6v-156h-389l-11 107h-2c-20.667 -18 -42.167 -35.5 -64.5 -52.5s-46 -32 -71 -45s-51.667 -23.333 -80 -31s-58.833 -11.5 -91.5 -11.5
c-60.667 0 -112.5 8.83301 -155.5 26.5s-78.167 44.834 -105.5 81.501s-47.333 83.5 -60 140.5s-19 125.167 -19 204.5v235c0 24.667 0.5 53 1.5 85s3.16699 63.333 6.5 94l-144 -6v155c47.333 0 89.166 2 125.499 6s67.333 9 93 15s46.334 12.5 62.001 19.5
s27.167 13.833 34.5 20.5h112v-627c0 -90 11.5 -156 34.5 -198s60.5 -63 112.5 -63c16.667 0 34 2.5 52 7.5s35.667 12 53 21s33.833 19.5 49.5 31.5s29.5 24.667 41.5 38v401c0 24.667 0.5 53 1.5 85s3.16699 63.333 6.5 94l-144 -6v155c47.333 0 89 2 125 6
s66.833 9 92.5 15s46.334 12.5 62.001 19.5s27.167 13.833 34.5 20.5h112v-715z" />
    <glyph glyph-name="v" unicode="v" horiz-adv-x="1101" 
d="M492 893c-25.333 -1.33301 -43.1641 -8.1709 -53.4971 -20.5039s-15.5 -28.166 -15.5 -47.499c0 -13.333 1.83301 -27.666 5.5 -42.999s8.5 -31.666 14.5 -48.999l172 -424h2l149 422c12 33.333 23.167 60.5 33.5 81.5s21.833 41.5 34.5 61.5v2l-127 -8v156h388v-131
c-24 -4 -45.833 -15.167 -65.5 -33.5s-37.334 -39.833 -53.001 -64.5s-29.334 -50.167 -41.001 -76.5s-21.5 -49.833 -29.5 -70.5l-262 -654h-179l-324 710c-11.333 24.667 -20 45.167 -26 61.5s-10.5 30.333 -13.5 42s-5.33301 22.334 -7 32.001
s-3.83398 20.5 -6.50098 32.5l-76 -4v156h480v-131z" />
    <glyph glyph-name="w" unicode="w" horiz-adv-x="1660" 
d="M980 1024l164.003 -564.999c8 -28.667 16.5 -59.667 25.5 -93s17.167 -64 24.5 -92h2c4 28 10.833 58.167 20.5 90.5s18.5 61.833 26.5 88.5l79 259c6 18.667 11.333 35.5 16 50.5s9.5 28.833 14.5 41.5s9.83301 24.667 14.5 36s10 22.666 16 33.999v2l-118 -8v156h389
v-131c-27.333 0 -51.333 -9 -72 -27s-38.5 -39.333 -53.5 -64s-27.333 -49.334 -37 -74.001s-16.834 -43.667 -21.501 -57l-233 -677h-217l-141 437c-4 10.667 -9 25.834 -15 45.501s-12.167 41 -18.5 64s-13 46.833 -20 71.5s-13.5 48 -19.5 70h-2
c-4 -28.667 -10.5 -60.834 -19.5 -96.501s-18.333 -70.5 -28 -104.5s-18.667 -64.667 -27 -92s-14.5 -46.666 -18.5 -57.999l-113 -337h-203l-248 710c-9.33301 26 -16.666 47 -21.999 63s-9.83301 29.833 -13.5 41.5s-6.5 22.167 -8.5 31.5s-4.33301 20 -7 32l-80 -4v156
h491v-131c-28.667 -2 -48.834 -10.667 -60.501 -26s-17.5 -35 -17.5 -59c-0.666992 -11.333 0.166016 -23.333 2.49902 -36s5.5 -25.667 9.5 -39l69 -250c8 -30 15.833 -61.5 23.5 -94.5s13.834 -66.5 18.501 -100.5h2c3.33301 14.667 6.66602 29.667 9.99902 45
s7 31.833 11 49.5s8.66699 37 14 58s11.666 44.167 18.999 69.5l150 514h222z" />
    <glyph glyph-name="x" unicode="x" horiz-adv-x="1122" 
d="M920 285c18.667 -21.333 36.3359 -42.666 53.0029 -63.999s31.667 -44.333 45 -69l70 4v-156h-483v131c24 1.33301 41.333 5.16602 52 11.499s16 14.833 16 25.5c-1.33301 18.667 -13 40 -35 64l-121 128h-2l-95 -114c-3.33301 -4.66699 -8.83301 -11.5 -16.5 -20.5
s-16.167 -18.5 -25.5 -28.5s-18.5 -19.333 -27.5 -28s-16.5 -15 -22.5 -19v-2l93 8v-156h-339v131c28 11.333 54 28.5 78 51.5s50 50.5 78 82.5l178 204l-200 236c-8.66699 10 -18.834 22 -30.501 36s-23.334 28.667 -35.001 44s-22.167 30.666 -31.5 45.999s-16 29 -20 41
l-57 -4v156h454v-131c-18 -1.33301 -31 -5 -39 -11s-12 -13.667 -12 -23c0 -10.667 4 -22.667 12 -36s18.667 -27.666 32 -42.999l95 -110h2l77 93c16.667 20 33.167 39.5 49.5 58.5s33.166 36.5 50.499 52.5v2l-99 -8v156h361v-131c-42 -17.333 -79.167 -39.5 -111.5 -66.5
s-63.833 -59.167 -94.5 -96.5l-137 -168z" />
    <glyph glyph-name="y" unicode="y" horiz-adv-x="1128" 
d="M657 274c6 17.333 13.335 40 22.002 68s18.5 59.833 29.5 95.5s23 74.334 36 116.001s26.833 84.834 41.5 129.501c4 12.667 9 27.5 15 44.5s12.833 34.5 20.5 52.5s15.834 35.333 24.501 52s17.667 30.667 27 42v2l-117 -8v156h364v-131
c-42.667 -10.667 -77.834 -36.834 -105.501 -78.501s-52.167 -93.5 -73.5 -155.5l-257 -731c-28.667 -83.333 -56 -155.5 -82 -216.5s-53.333 -111.167 -82 -150.5s-60.334 -68.5 -95.001 -87.5s-75 -28.5 -121 -28.5c-26.667 0 -51.334 4 -74.001 12
s-42.334 19.333 -59.001 34s-29.834 32.334 -39.501 53.001s-14.5 43.667 -14.5 69c0 18.667 3.33301 36.5 10 53.5s15.834 32 27.501 45s25.667 23.333 42 31s34.166 11.5 53.499 11.5c14 0 27.333 -2.83301 40 -8.5s23.834 -13.5 33.501 -23.5s17.334 -22 23.001 -36
s8.5 -29.333 8.5 -46c0 -8.66699 -1 -18 -3 -28v-2c14 0 28.667 9.5 44 28.5s30.833 44 46.5 75s30.667 66.667 45 107s27.5 82.166 39.5 125.499l-325 649c-19.333 38 -35 71 -47 99s-21.5 52.5 -28.5 73.5s-12 39.833 -15 56.5s-5.5 32.667 -7.5 48l-94 -4v156h510v-131
c-32 -4 -54.333 -13.333 -67 -28s-19 -32 -19 -52c0 -12.667 2 -25.834 6 -39.501s9 -27.167 15 -40.5l200 -459h2z" />
    <glyph glyph-name="z" unicode="z" horiz-adv-x="1053" 
d="M72 0l-0.00195312 147.999l470 621c11.333 14.667 22.833 28.834 34.5 42.501s22.334 25.667 32.001 36s18.167 19.166 25.5 26.499s12 12.333 14 15v2l-277 -4c-24 -0.666992 -44.5 -7.83398 -61.5 -21.501s-31.5 -32.167 -43.5 -55.5s-21.833 -50.5 -29.5 -81.5
s-14.167 -64.167 -19.5 -99.5h-127l29 395h830v-130l-457 -619c-20 -27.333 -39.833 -51 -59.5 -71s-38.167 -38 -55.5 -54v-2l288 -7c32 0 59.167 6.66699 81.5 20s40.833 31.833 55.5 55.5s26.334 51.334 35.001 83.001s15.667 65.834 21 102.501h127l-30 -402h-883z" />
    <glyph glyph-name="braceleft" unicode="{" horiz-adv-x="754" 
d="M172 537c49.333 -6 95.0039 -18.501 137.004 -37.501s78.5 -43.667 109.5 -74s55.167 -66.166 72.5 -107.499s26 -87 26 -137c0 -26 -1.16699 -54.167 -3.5 -84.5s-5 -60.5 -8 -90.5s-5.66699 -58.167 -8 -84.5s-3.5 -48.5 -3.5 -66.5
c0 -55.333 4.16699 -100.333 12.5 -135s21.333 -61.667 39 -81s40.167 -32.5 67.5 -39.5s60 -10.5 98 -10.5c4.66699 0 9.16699 0.166992 13.5 0.5s9.16602 0.5 14.499 0.5v-145h-57c-155.333 0 -271.666 37 -348.999 111s-116 183 -116 327c0 30 1.16699 62.5 3.5 97.5
s4.66602 70.167 6.99902 105.5s4.66602 69.666 6.99902 102.999s3.5 63.333 3.5 90c0 34.667 -3.16699 64 -9.5 88s-17 43.333 -32 58s-35.167 25.167 -60.5 31.5s-57 9.5 -95 9.5h-47v146h47c38 0 69.667 2.83301 95 8.5s45.5 15.167 60.5 28.5s25.667 31.5 32 54.5
s9.5 52.167 9.5 87.5c0 54 -3.5 109.5 -10.5 166.5s-10.5 115.833 -10.5 176.5c0 144.667 38.667 251.167 116 319.5s193.666 102.5 348.999 102.5h57v-144c-8.66699 0.666992 -16.834 1 -24.501 1h-22.5c-34.667 0 -64.5 -3.16699 -89.5 -9.5s-45.5 -18.666 -61.5 -36.999
s-27.833 -43.833 -35.5 -76.5s-11.5 -75 -11.5 -127c0 -18 1.16699 -38 3.5 -60s4.83301 -45.167 7.5 -69.5s5.16699 -49 7.5 -74s3.5 -49.167 3.5 -72.5c0 -50 -8.5 -95.167 -25.5 -135.5s-40.833 -75.333 -71.5 -105s-67 -53.5 -109 -71.5s-88 -29.333 -138 -34v-4z" />
    <glyph glyph-name="bar" unicode="|" horiz-adv-x="531" 
d="M407 1556l-8 -2111h-269l-6 2111h283z" />
    <glyph glyph-name="braceright" unicode="}" horiz-adv-x="754" 
d="M582 541c-50 4.66699 -95.9961 16.001 -137.996 34.001s-78.333 41.833 -109 71.5s-54.5 64.667 -71.5 105s-25.5 85.5 -25.5 135.5c0 23.333 1.16699 47.5 3.5 72.5s4.83301 49.667 7.5 74s5.16699 47.5 7.5 69.5s3.5 42 3.5 60c0 52 -3.83301 94.333 -11.5 127
s-19.5 58.167 -35.5 76.5s-36.5 30.666 -61.5 36.999s-54.833 9.5 -89.5 9.5h-22.5c-7.66699 0 -15.834 -0.333008 -24.501 -1v144h57c155.333 0 271.666 -34.167 348.999 -102.5s116 -174.833 116 -319.5c0 -60.667 -3.5 -119.5 -10.5 -176.5s-10.5 -112.5 -10.5 -166.5
c0 -35.333 3.16699 -64.5 9.5 -87.5s17 -41.167 32 -54.5s35.167 -22.833 60.5 -28.5s57 -8.5 95 -8.5h47v-146h-47c-38 0 -69.667 -3.16699 -95 -9.5s-45.5 -16.833 -60.5 -31.5s-25.667 -34 -32 -58s-9.5 -53.333 -9.5 -88c0 -26.667 1.16699 -56.667 3.5 -90
s4.66602 -67.666 6.99902 -102.999s4.66602 -70.5 6.99902 -105.5s3.5 -67.5 3.5 -97.5c0 -144 -38.667 -253 -116 -327s-193.666 -111 -348.999 -111h-57v145c5.33301 0 10.166 -0.166992 14.499 -0.5s8.83301 -0.5 13.5 -0.5c38 0 70.667 3.5 98 10.5
s49.833 20.167 67.5 39.5s30.667 46.333 39 81s12.5 79.667 12.5 135c0 18 -1.16699 40.167 -3.5 66.5s-5 54.5 -8 84.5s-5.66699 60.167 -8 90.5s-3.5 58.5 -3.5 84.5c0 50 8.66699 95.667 26 137s41.5 77.166 72.5 107.499s67.5 55 109.5 74s87.667 31.5 137 37.5v4z" />
    <glyph glyph-name="asciitilde" unicode="~" horiz-adv-x="1106" 
d="M351 565c-28 0 -53.332 -2.66504 -75.999 -7.99805s-44 -12.5 -64 -21.5s-39 -19.5 -57 -31.5s-36.333 -24.667 -55 -38v242c21.333 17.333 41.833 32.833 61.5 46.5s39.667 25.167 60 34.5s41.666 16.333 63.999 21s47.166 7 74.499 7
c36.667 0 68.667 -3.83301 96 -11.5s51.666 -17.167 72.999 -28.5s40.833 -23.833 58.5 -37.5s35.667 -26.167 54 -37.5s38 -20.833 59 -28.5s45.5 -11.5 73.5 -11.5c45.333 0 87.833 8.83301 127.5 26.5s75.834 41.5 108.501 71.5v-242
c-28 -32 -62.167 -57.833 -102.5 -77.5s-87.5 -29.5 -141.5 -29.5c-34 0 -64.167 3.83301 -90.5 11.5s-50.166 17.167 -71.499 28.5s-41.333 23.666 -60 36.999s-37.667 25.666 -57 36.999s-39.833 20.833 -61.5 28.5s-46.167 11.5 -73.5 11.5z" />
    <glyph glyph-name="uni00A0" unicode="&#xa0;" horiz-adv-x="539" 
 />
    <glyph glyph-name="exclamdown" unicode="&#xa1;" horiz-adv-x="486" 
d="M93.9941 897.945c0 21.999 4.16602 42.6641 12.499 61.9961s19.499 36.1641 33.498 50.4971s29.998 25.666 47.9971 33.999s36.665 12.499 55.9971 12.499c19.999 0 38.8311 -4.16602 56.4961 -12.499c17.666 -8.33301 33.332 -19.666 46.9971 -33.999
c13.666 -14.333 24.332 -31.165 31.998 -50.4971c7.66699 -19.332 11.5 -39.9971 11.5 -61.9961s-4 -42.8311 -12 -62.4961c-7.99902 -19.665 -18.832 -36.8311 -32.498 -51.4971c-13.665 -14.666 -29.4971 -26.165 -47.4961 -34.498s-36.998 -12.499 -56.9971 -12.499
c-21.332 0 -40.9971 4.16602 -58.9961 12.499s-33.665 19.832 -46.9971 34.498c-13.333 14.666 -23.666 31.832 -30.999 51.4971s-10.999 40.4971 -10.999 62.4961zM172.989 586.964h138.991l76.9961 -843.948c2 -21.999 0.333008 -43.998 -5 -65.9971
s-14.166 -41.8311 -26.498 -59.4961c-12.333 -17.665 -28.165 -32.1641 -47.4971 -43.4971c-19.333 -11.333 -41.998 -16.999 -67.9961 -16.999c-27.332 0 -50.6641 5.66602 -69.9961 16.999s-34.998 25.832 -46.9971 43.4971s-20.332 37.4971 -24.998 59.4961
c-4.66699 21.999 -6 43.998 -4 65.9971z" />
    <glyph glyph-name="cent" unicode="&#xa2;" horiz-adv-x="1157" 
d="M754 756c0 12 2.00098 26.5 6.00098 43.5s10.333 32.167 19 45.5c-7.33301 13.333 -16.833 24.333 -28.5 33s-24 15.667 -37 21s-26 9 -39 11s-24.5 3 -34.5 3c-34.667 0 -66.334 -7.83301 -95.001 -23.5s-53.5 -39 -74.5 -70s-37.333 -69.167 -49 -114.5
s-17.5 -97.666 -17.5 -156.999c0 -52 4.83301 -102 14.5 -150s25.5 -90.333 47.5 -127s51 -66 87 -88s80.333 -33 133 -33c27.333 0 54.833 3.83301 82.5 11.5s54.167 18.334 79.5 32.001s49.5 30.167 72.5 49.5s43.5 40.666 61.5 63.999l94 -91
c-30 -41.333 -60.667 -76.5 -92 -105.5s-63 -53 -95 -72s-64 -33.5 -96 -43.5s-63.667 -17 -95 -21l-1 -254h-169l-1 254c-60 8 -115.667 25.333 -167 52s-96 62 -134 106s-67.833 96 -89.5 156s-32.5 127.333 -32.5 202c0 68 10.167 132.833 30.5 194.5
s49.166 117.334 86.499 167.001s82.333 91.5 135 125.5s111.334 57.333 176.001 70l-1 235h181l-2 -229c53.333 -6 100 -17.667 140 -35s73.5 -38.5 100.5 -63.5s47.167 -52.833 60.5 -83.5s20 -62.334 20 -95.001c0 -20.667 -3.16699 -40.334 -9.5 -59.001
s-15.666 -35 -27.999 -49s-27.5 -25 -45.5 -33s-38.333 -12 -61 -12c-25.333 0 -46.333 4.33301 -63 13s-30.334 19.5 -41.001 32.5s-18.167 27.333 -22.5 43s-6.5 30.5 -6.5 44.5z" />
    <glyph glyph-name="sterling" unicode="&#xa3;" horiz-adv-x="1173" 
d="M545 604c2 -10 3.49902 -20.6641 4.49902 -31.9971s1.5 -22.666 1.5 -33.999c0 -50 -11.333 -98.333 -34 -145s-57.667 -86.334 -105 -119.001v-2c32.667 13.333 62.334 22.166 89.001 26.499s51.667 6.5 75 6.5c38 0 71.667 -5.33301 101 -16s56 -22.5 80 -35.5
s46 -24.833 66 -35.5s39.667 -16 59 -16c15.333 0 30.5 9.5 45.5 28.5s23.833 48.833 26.5 89.5h134c-2 -50.667 -8.5 -97.5 -19.5 -140.5s-26.333 -80.333 -46 -112s-43.834 -56.334 -72.501 -74.001s-62 -26.5 -100 -26.5c-27.333 0 -53.833 4.33301 -79.5 13
s-50.834 19.667 -75.501 33s-49 27.833 -73 43.5s-48.667 29.834 -74 42.501s-51.166 23.667 -77.499 33s-53.5 14.666 -81.5 15.999c-6 -25.333 -14.833 -48.833 -26.5 -70.5s-25 -40.834 -40 -57.501s-31.333 -29.667 -49 -39s-35.5 -14 -53.5 -14
c-21.333 0 -39.333 3.16699 -54 9.5s-26.5 14.833 -35.5 25.5s-15.5 22.834 -19.5 36.501s-6 27.834 -6 42.501c0 20 4.5 39.5 13.5 58.5s21.333 36.833 37 53.5s34.334 31.667 56.001 45s45.167 24.666 70.5 33.999c4.66699 8.66699 9.16699 19.167 13.5 31.5
s8.16602 25.166 11.499 38.499s6 26.5 8 39.5s3 24.833 3 35.5c0 34.667 -2.33301 66.834 -7 96.501s-10.667 58.5 -18 86.5l-161 -3v171h115c-7.33301 30 -13.166 61.5 -17.499 94.5s-6.5 69.833 -6.5 110.5c0 78.667 11.833 148.667 35.5 210s55.334 113 95.001 155
s85.5 74 137.5 96s106.333 33 163 33c63.333 0 117 -8.33301 161 -25s79.667 -37.667 107 -63s47.166 -52.833 59.499 -82.5s18.5 -57.5 18.5 -83.5c0 -20.667 -3 -40.334 -9 -59.001s-14.833 -35 -26.5 -49s-26 -25 -43 -33s-36.5 -12 -58.5 -12
c-24 0 -44.5 4.33301 -61.5 13s-30.833 19.334 -41.5 32.001s-18.5 26.167 -23.5 40.5s-7.5 27.5 -7.5 39.5c0 18 2.5 36.333 7.5 55s14.167 36 27.5 52c-6.66699 8 -17.167 15.333 -31.5 22s-33.166 10 -56.499 10c-36.667 0 -67.334 -8.5 -92.001 -25.5
s-44.5 -38.833 -59.5 -65.5s-25.667 -56.334 -32 -89.001s-9.5 -64.667 -9.5 -96c0 -54 3 -104 9 -150s13 -89.333 21 -130h322v-158z" />
    <glyph glyph-name="currency" unicode="&#xa4;" horiz-adv-x="1160" 
d="M276 999l102.001 -128.001c28 17.333 58.667 31 92 41s70 15 110 15s76.667 -5.16699 110 -15.5s64 -24.166 92 -41.499l102 128l148 -118l-124 -141c40.667 -69.333 61 -142.333 61 -219s-18.333 -147 -55 -211l118 -134l-148 -119l-98 123
c-57.333 -35.333 -126.333 -53 -207 -53c-40 0 -77.167 4.5 -111.5 13.5s-65.5 21.833 -93.5 38.5l-97 -122l-149 119l118 134c-36.667 64 -55 134.333 -55 211c0 38 5.16699 75.5 15.5 112.5s25.166 72.5 44.499 106.5l-123 141zM580.001 776.999
c-26.667 0 -48.8301 -8.16699 -66.4971 -24.5s-31.834 -36.166 -42.501 -59.499s-18.334 -48 -23.001 -74s-7 -49 -7 -69c0 -25.333 2 -53.666 6 -84.999s11.333 -60.5 22 -87.5s24.834 -49.667 42.501 -68s40.5 -27.5 68.5 -27.5s51 9.16699 69 27.5s32.167 41 42.5 68
s17.666 56.167 21.999 87.5s6.5 59.666 6.5 84.999c0 20 -2.33301 43 -7 69s-12.5 50.667 -23.5 74s-25.333 43.166 -43 59.499s-39.834 24.5 -66.501 24.5z" />
    <glyph glyph-name="yen" unicode="&#xa5;" horiz-adv-x="1479" 
d="M915 286c-0.666992 -28.667 -1.49902 -54.8359 -2.49902 -78.5029s-2.5 -42.167 -4.5 -55.5l164 6v-158h-598v135c22 0.666992 41.5 2.5 58.5 5.5s31.5 9.33301 43.5 19s21.667 24.167 29 43.5s12 46 14 80l-223 -1v159h224v102h-224v158h100l-254 386
c-10 16 -19.833 33 -29.5 51s-18 35.833 -25 53.5s-12.667 34.334 -17 50.001s-6.5 29.167 -6.5 40.5l-99 -6v158h603v-135c-4 0 -7.83301 0.166992 -11.5 0.5s-7.16699 0.5 -10.5 0.5c-38 0 -68.5 -6.83301 -91.5 -20.5s-34.5 -34.167 -34.5 -61.5c0 -21.333 9 -47 27 -77
l157 -257c4.66699 -8 11.667 -19.833 21 -35.5s19.166 -33 29.499 -52s20.333 -38 30 -57s17.167 -35.833 22.5 -50.5h3c12.667 30.667 44.667 96.667 96 198l106 209c5.33301 10.667 12.333 24.334 21 41.001s18 34 28 52s20 35.333 30 52s19.667 30.334 29 41.001v2
l-157 -8v158h452v-135c-24 -4 -45.833 -10.667 -65.5 -20s-38.5 -22.5 -56.5 -39.5s-35.833 -38.5 -53.5 -64.5s-36.5 -57.667 -56.5 -95l-203 -383h140v-151h-204v-108h204v-152h-205z" />
    <glyph glyph-name="brokenbar" unicode="&#xa6;" horiz-adv-x="507" 
d="M369 1557l-8 -790h-217l-6 790h231zM369 231l-8 -786h-217l-6 786h231z" />
    <glyph glyph-name="section" unicode="&#xa7;" horiz-adv-x="1124" 
d="M325 678c0 -31.333 7.66797 -60.833 23.001 -88.5s35.5 -53.834 60.5 -78.501s53.5 -48.167 85.5 -70.5s64.5 -43.833 97.5 -64.5s65.333 -40.5 97 -59.5s59.834 -37.833 84.501 -56.5c9.33301 20 16.666 41.833 21.999 65.5s8 46.167 8 67.5
c0 31.333 -7.66699 60.833 -23 88.5s-35.5 53.834 -60.5 78.501s-53.5 48 -85.5 70s-64.5 43.167 -97.5 63.5s-65.333 40 -97 59s-59.834 37.833 -84.501 56.5c-10 -20.667 -17.5 -42.167 -22.5 -64.5s-7.5 -44.5 -7.5 -66.5zM729.001 -155
c0 28 -5.66895 54.0039 -17.002 78.0039s-26.333 46.667 -45 68s-40 41.166 -64 59.499s-48.667 35.666 -74 51.999s-50.5 31.666 -75.5 45.999s-47.833 28.166 -68.5 41.499c-37.333 24 -73.833 50 -109.5 78s-67.167 58.833 -94.5 92.5s-49.333 71 -66 112
s-25 86.5 -25 136.5c0 54 14.333 108.5 43 163.5s67.334 105.5 116.001 151.5c-32 40 -53.5 81.667 -64.5 125s-16.5 85 -16.5 125c0 26 3.16699 53.5 9.5 82.5s16.333 57.667 30 86s31.334 55.333 53.001 81s47.5 48.334 77.5 68.001s64.5 35.334 103.5 47.001
s83.167 17.5 132.5 17.5c56 0 107.333 -8.16699 154 -24.5s86.667 -37.5 120 -63.5s59.166 -55.5 77.499 -88.5s27.5 -66.167 27.5 -99.5c0 -20 -2.83301 -38.667 -8.5 -56s-14 -32.666 -25 -45.999s-24.667 -23.833 -41 -31.5s-34.833 -11.5 -55.5 -11.5
c-23.333 0 -43 4 -59 12s-29 18 -39 30s-17.333 24.833 -22 38.5s-7 26.167 -7 37.5c0 14.667 1.66699 29.167 5 43.5s9.33301 28.166 18 41.499c-10 21.333 -27.667 38.666 -53 51.999s-53.333 20 -84 20c-31.333 0 -58.5 -5.16699 -81.5 -15.5s-42 -23.5 -57 -39.5
s-26.333 -34 -34 -54s-11.834 -40 -12.501 -60c0.666992 -30.667 6.66699 -58.834 18 -84.501s26.166 -49.5 44.499 -71.5s39.333 -42.333 63 -61s48.334 -36.5 74.001 -53.5s51.5 -33 77.5 -48s50.667 -29.833 74 -44.5c36.667 -24 72.334 -49.833 107.001 -77.5
s65.334 -58.334 92.001 -92.001s48 -70.834 64 -111.501s24 -85.334 24 -134.001c0 -26.667 -4 -53.834 -12 -81.501s-19 -55.167 -33 -82.5s-30.667 -54 -50 -80s-40.666 -50.667 -63.999 -74c8.66699 -13.333 17.834 -27.833 27.501 -43.5s18.5 -32.5 26.5 -50.5
s14.667 -37.667 20 -59s8 -44.333 8 -69c0 -39.333 -7.5 -81.666 -22.5 -126.999s-38.833 -87.5 -71.5 -126.5s-75.167 -71.5 -127.5 -97.5s-115.833 -39 -190.5 -39c-56 0 -107.333 8.16699 -154 24.5s-86.667 37.5 -120 63.5s-59.166 55.5 -77.499 88.5
s-27.5 66.167 -27.5 99.5c0 20 2.83301 38.667 8.5 56s14 32.666 25 45.999s24.5 23.833 40.5 31.5s34.333 11.5 55 11.5c23.333 0 43.166 -4.16699 59.499 -12.5s29.5 -18.5 39.5 -30.5s17.333 -24.833 22 -38.5s7 -25.834 7 -36.501c0 -14.667 -1.66699 -29.167 -5 -43.5
s-9.33301 -28.166 -18 -41.499c4.66699 -11.333 11.834 -21.333 21.501 -30s21 -16.167 34 -22.5s27 -11.166 42 -14.499s30.167 -5 45.5 -5c31.333 0 58.666 4.83301 81.999 14.5s42.666 22.334 57.999 38.001s26.666 33.334 33.999 53.001s11 39.834 11 60.501z" />
    <glyph glyph-name="dieresis" unicode="&#xa8;" horiz-adv-x="874" 
d="M395 1382c0 -21.333 -3.6709 -41.333 -11.0039 -60s-17.166 -35 -29.499 -49s-26.833 -25 -43.5 -33s-34 -12 -52 -12c-18.667 0 -36.167 4 -52.5 12s-30.666 19 -42.999 33s-22.166 30.333 -29.499 49s-11 38.667 -11 60s3.66699 41.5 11 60.5s17.333 35.5 30 49.5
s27.334 25.167 44.001 33.5s34 12.5 52 12.5c19.333 0 37.333 -4.16699 54 -12.5s31 -19.5 43 -33.5s21.333 -30.5 28 -49.5s10 -39.167 10 -60.5zM750.996 1382c0 -21.333 -3.6709 -41.333 -11.0039 -60s-17.166 -35 -29.499 -49s-26.833 -25 -43.5 -33s-34 -12 -52 -12
c-18.667 0 -36.167 4 -52.5 12s-30.666 19 -42.999 33s-22.166 30.333 -29.499 49s-11 38.667 -11 60s3.66699 41.5 11 60.5s17.333 35.5 30 49.5s27.334 25.167 44.001 33.5s34 12.5 52 12.5c19.333 0 37.333 -4.16699 54 -12.5s31 -19.5 43 -33.5s21.333 -30.5 28 -49.5
s10 -39.167 10 -60.5z" />
    <glyph glyph-name="copyright" unicode="&#xa9;" horiz-adv-x="1874" 
d="M968 1066c-36 0 -69.8359 -8.66699 -101.503 -26s-59.334 -41.666 -83.001 -72.999s-42.167 -68.5 -55.5 -111.5s-20 -89.833 -20 -140.5c0 -47.333 7 -91.833 21 -133.5s34.333 -78 61 -109s59.334 -55.667 98.001 -74s82.667 -27.5 132 -27.5
c48 0 95.5 12.667 142.5 38s90.5 62.666 130.5 111.999l97 -93c-34 -46.667 -70.333 -85.167 -109 -115.5s-77.334 -54.5 -116.001 -72.5s-76.167 -30.5 -112.5 -37.5s-68.833 -10.5 -97.5 -10.5c-71.333 0 -137 13 -197 39s-111.667 61.5 -155 106.5s-77.333 98 -102 159
s-37 126.5 -37 196.5c0 39.333 4.33301 79.333 13 120s21.667 80.167 39 118.5s39 74.166 65 107.499s56.5 62.5 91.5 87.5s74.5 44.833 118.5 59.5s92.333 22 145 22c46 0 88.833 -4.83301 128.5 -14.5s78.834 -28.5 117.501 -56.5c-0.666992 4 -1.16699 9.33301 -1.5 16
s-0.666016 13.167 -0.999023 19.5s-0.5 12.166 -0.5 17.499v11h156v-359h-136c-5.33301 40.667 -15.166 75.334 -29.499 104.001s-32 51.834 -53 69.501s-44.167 30.5 -69.5 38.5s-51.666 12 -78.999 12zM94.9971 697c0 78 9.66797 152.999 29.001 224.999
s47 139.5 83 202.5s79.333 120.333 130 172s107.5 96 170.5 133s131.167 65.667 204.5 86s150.666 30.5 231.999 30.5c82 0 159.667 -10.167 233 -30.5s141 -49.166 203 -86.499s117.667 -82 167 -134s91.333 -109.5 126 -172.5s61.167 -130.667 79.5 -203
s27.5 -147.5 27.5 -225.5c0 -77.333 -9.83301 -151.833 -29.5 -223.5s-47.667 -138.667 -84 -201s-79.833 -119 -130.5 -170s-107.167 -94.667 -169.5 -131s-129.333 -64.5 -201 -84.5s-146.5 -30 -224.5 -30c-125.333 0 -240 21 -344 63s-193.167 100.5 -267.5 175.5
s-132 164 -173 267s-61.5 215.5 -61.5 337.5zM239.998 696.999c0 -66 7.33398 -129.666 22.001 -190.999s36.167 -118.833 64.5 -172.5s63 -102.667 104 -147s87.667 -82.333 140 -114s110 -56.334 173 -74.001s130.833 -26.5 203.5 -26.5c106 0 201.5 19.167 286.5 57.5
s157.333 90.5 217 156.5s105.667 142.833 138 230.5s48.5 181.167 48.5 280.5c0 66 -7.33301 129.833 -22 191.5s-36.167 119.5 -64.5 173.5s-62.833 103.5 -103.5 148.5s-86.667 83.667 -138 116s-107.833 57.333 -169.5 75s-127.834 26.5 -198.501 26.5
c-70 0 -135.833 -8.83301 -197.5 -26.5s-118.5 -42.667 -170.5 -75s-98.5 -70.833 -139.5 -115.5s-75.833 -94.167 -104.5 -148.5s-50.667 -112.333 -66 -174s-23 -125.5 -23 -191.5z" />
    <glyph glyph-name="ordfeminine" unicode="&#xaa;" horiz-adv-x="790" 
d="M282 950c1.33301 -12 6.50098 -22.668 15.501 -32.001s23.167 -14 42.5 -14c33.333 0 66.666 16.667 99.999 50v99c-20 -2 -39.333 -5.5 -58 -10.5s-35.5 -11.667 -50.5 -20s-27 -18.166 -36 -29.499s-13.5 -24 -13.5 -38v-5zM102.001 1265
c0 26 7.1709 51.166 21.5039 75.499s34.166 45.833 59.499 64.5s55.5 33.667 90.5 45s73.167 17 114.5 17c80.667 0 142.834 -21.333 186.501 -64s65.5 -110.334 65.5 -203.001c0 -17.333 -0.166992 -36 -0.5 -56s-0.5 -40.333 -0.5 -61s-0.166992 -41 -0.5 -61
s-0.5 -38.333 -0.5 -55c0 -6.66699 0.333008 -14 1 -22s2.33398 -15.667 5.00098 -23s6.33398 -13.5 11.001 -18.5s11 -7.5 19 -7.5c5.33301 0 10.666 0.5 15.999 1.5s11.666 4.16699 18.999 9.5l40 -60c-20.667 -28 -45.834 -50.833 -75.501 -68.5s-59.5 -26.5 -89.5 -26.5
c-14.667 0 -29 2.33301 -43 7s-26.833 11.834 -38.5 21.501s-21.334 21.834 -29.001 36.501s-12.5 32 -14.5 52h-2c-10 -19.333 -22.333 -36.166 -37 -50.499s-30.5 -26.5 -47.5 -36.5s-34.167 -17.5 -51.5 -22.5s-33.333 -7.5 -48 -7.5
c-64.667 0 -114.334 14.167 -149.001 42.5s-52 68.833 -52 121.5c0 38.667 11.167 72 33.5 100s51 51.333 86 70s74.333 33.167 118 43.5s87.167 17.166 130.5 20.499v89c0 13.333 -0.666992 26.666 -2 39.999s-4.5 25.5 -9.5 36.5s-12.667 20 -23 27s-24.5 10.5 -42.5 10.5
c-13.333 0 -26.833 -2.16699 -40.5 -6.5s-25.167 -11.166 -34.5 -20.499c5.33301 -8 9.16602 -17.667 11.499 -29s3.5 -21.333 3.5 -30c0 -10 -1.83301 -21 -5.5 -33s-9.66699 -23 -18 -33s-19 -18.5 -32 -25.5s-28.833 -10.5 -47.5 -10.5c-32 0 -56.333 9.66699 -73 29
s-25 43 -25 71z" />
    <glyph glyph-name="guillemotleft" unicode="&#xab;" horiz-adv-x="1011" 
d="M40.9971 524.968v47.9971l546.967 568.966l96.9941 -98.9941l-386.977 -496.97v-2l379.978 -475.971l-95.9941 -93.9941zM490.97 529.968v46.9971l348.979 408.975l95.9941 -78.9951l-204.988 -344.979v-3l201.988 -345.979l-94.9941 -79.9951z" />
    <glyph glyph-name="logicalnot" unicode="&#xac;" horiz-adv-x="1190" 
d="M129 741l921 -5v-430h-179l-6 238l-736 -3v200z" />
    <glyph glyph-name="uni00AD" unicode="&#xad;" horiz-adv-x="957" 
d="M103 761h751v-207l-751 -7v214z" />
    <glyph glyph-name="registered" unicode="&#xae;" horiz-adv-x="1874" 
d="M1220 461c15.333 -23.333 28.668 -42.998 40.001 -58.998s22.333 -29.167 33 -39.5s21.834 -18 33.501 -23s25.5 -7.83301 41.5 -8.5v-90h-215c-16 12.667 -33 29.834 -51 51.501s-35.667 47.5 -53 77.5c-30.667 51.333 -54.334 91.666 -71.001 120.999
s-29.334 51.833 -38.001 67.5s-14.667 26.667 -18 33s-7 12.166 -11 17.499c-7.33301 -0.666992 -14.166 -1 -20.499 -1h-18.5h-18.5c-6.33301 0 -13.166 0.333008 -20.499 1v-141c0 -24.667 -0.166992 -48.667 -0.5 -72s-0.833008 -40.666 -1.5 -51.999l116 4v-107h-413v90
c16 0.666992 30 2.16699 42 4.5s22.167 7.5 30.5 15.5s14.666 19.833 18.999 35.5s6.5 37.5 6.5 65.5v518c0 26.667 0.666992 51.5 2 74.5s2.66602 40.167 3.99902 51.5l-104 -4v107l387 1c58.667 0 112 -5 160 -15s89.167 -26 123.5 -48s60.833 -50.833 79.5 -86.5
s28 -79.5 28 -131.5c0 -30.667 -4 -60.334 -12 -89.001s-21 -55.334 -39 -80.001s-41.667 -46.667 -71 -66s-65 -35 -107 -47v-1c17.333 -7.33301 32.333 -18.833 45 -34.5s25 -33.167 37 -52.5zM890.002 725.002c68.667 0 120.5 16.501 155.5 49.501
s52.5 79.833 52.5 140.5c0 40 -6.66699 71.333 -20 94s-29.5 39.667 -48.5 51s-38.833 18.5 -59.5 21.5s-38 4.5 -52 4.5c-28 0 -49.167 -7.5 -63.5 -22.5s-21.5 -44.5 -21.5 -88.5v-244c11.333 -2.66699 20.833 -4.33398 28.5 -5.00098s17.167 -1 28.5 -1zM95.002 697.003
c0 78 9.66797 152.999 29.001 224.999s47 139.5 83 202.5s79.333 120.333 130 172s107.5 96 170.5 133s131.167 65.667 204.5 86s150.666 30.5 231.999 30.5c82 0 159.667 -10.167 233 -30.5s141 -49.166 203 -86.499s117.667 -82 167 -134s91.333 -109.5 126 -172.5
s61.167 -130.667 79.5 -203s27.5 -147.5 27.5 -225.5c0 -77.333 -9.83301 -151.833 -29.5 -223.5s-47.667 -138.667 -84 -201s-79.833 -119 -130.5 -170s-107.167 -94.667 -169.5 -131s-129.333 -64.5 -201 -84.5s-146.5 -30 -224.5 -30c-125.333 0 -240 21 -344 63
s-193.167 100.5 -267.5 175.5s-132 164 -173 267s-61.5 215.5 -61.5 337.5zM240.003 697.002c0 -66 7.33398 -129.666 22.001 -190.999s36.167 -118.833 64.5 -172.5s63 -102.667 104 -147s87.667 -82.333 140 -114s110 -56.334 173 -74.001s130.833 -26.5 203.5 -26.5
c106 0 201.5 19.167 286.5 57.5s157.333 90.5 217 156.5s105.667 142.833 138 230.5s48.5 181.167 48.5 280.5c0 66 -7.33301 129.833 -22 191.5s-36.167 119.5 -64.5 173.5s-62.833 103.5 -103.5 148.5s-86.667 83.667 -138 116s-107.833 57.333 -169.5 75
s-127.834 26.5 -198.501 26.5c-70 0 -135.833 -8.83301 -197.5 -26.5s-118.5 -42.667 -170.5 -75s-98.5 -70.833 -139.5 -115.5s-75.833 -94.167 -104.5 -148.5s-50.667 -112.333 -66 -174s-23 -125.5 -23 -191.5z" />
    <glyph glyph-name="macron" unicode="&#xaf;" horiz-adv-x="766" 
d="M92 1481h582v-189l-582 -7v196z" />
    <glyph glyph-name="degree" unicode="&#xb0;" horiz-adv-x="782" 
d="M232 1139c0 -24.667 3.83301 -48.167 11.5 -70.5s18.5 -41.833 32.5 -58.5s30.833 -30 50.5 -40s41.5 -15 65.5 -15s45.833 5 65.5 15s36.5 23.333 50.5 40s24.833 36.167 32.5 58.5s11.5 45.833 11.5 70.5s-3.83301 48 -11.5 70s-18.5 41.5 -32.5 58.5
s-31 30.5 -51 40.5s-42 15 -66 15c-23.333 0 -44.833 -5 -64.5 -15s-36.5 -23.5 -50.5 -40.5s-24.833 -36.5 -32.5 -58.5s-11.5 -45.333 -11.5 -70zM58 1139c0 46.667 9.00098 90 27.001 130s42.333 74.667 73 104s66.334 52.333 107.001 69s83.667 25 129 25
c50.667 0 96.5 -8.33301 137.5 -25s75.833 -39.667 104.5 -69s50.834 -64 66.501 -104s23.5 -83.333 23.5 -130s-9 -90.167 -27 -130.5s-42.333 -75.333 -73 -105s-66.5 -53 -107.5 -70s-84.167 -25.5 -129.5 -25.5c-50.667 0 -96.334 8.5 -137.001 25.5
s-75.334 40.333 -104.001 70s-50.834 64.667 -66.501 105s-23.5 83.833 -23.5 130.5z" />
    <glyph glyph-name="plusminus" unicode="&#xb1;" horiz-adv-x="1139" 
d="M109 760l357 -2v296h205v-296l359 -1v-189l-359 -2v-312h-205v311l-357 -1v196zM1030 1h-921v180l921 8v-188z" />
    <glyph glyph-name="twosuperior" unicode="&#xb2;" horiz-adv-x="767" 
d="M260 1315c11.333 -9.33301 18.834 -20.4971 22.501 -33.4971s5.5 -23.167 5.5 -30.5c0 -9.33301 -1.83301 -19.666 -5.5 -30.999s-9.66699 -21.833 -18 -31.5s-19.166 -17.834 -32.499 -24.501s-29.333 -10 -48 -10c-32 1.33301 -56 12.5 -72 33.5s-24 46.5 -24 76.5
c0 20.667 6 42.834 18 66.501s29.667 45.667 53 66s52.333 37.166 87 50.499s75 20 121 20c34.667 0 69 -4 103 -12s64.333 -20.667 91 -38s48.167 -39.833 64.5 -67.5s24.5 -61.5 24.5 -101.5c0 -36 -9.16699 -68.833 -27.5 -98.5s-42.333 -58.5 -72 -86.5
s-63 -56.167 -100 -84.5s-74.5 -59.5 -112.5 -93.5c-10 -8.66699 -18.333 -16.667 -25 -24s-12.5 -14.666 -17.5 -21.999s-9.66699 -14.833 -14 -22.5s-8.83301 -16.167 -13.5 -25.5l252 -5c18 -0.666992 32.5 3.5 43.5 12.5s16.5 30.167 16.5 63.5h97l-11 -244h-571
c0.666992 47.333 6.66699 89.166 18 125.499s26.333 69.333 45 99s40.167 57 64.5 82s50.166 49.5 77.499 73.5c26 23.333 47.333 46.166 64 68.499s29.667 43.5 39 63.5s15.666 38.667 18.999 56s5 32.666 5 45.999c0 42 -8.66699 71.833 -26 89.5s-41 26.5 -71 26.5
c-13.333 0 -27 -3.33301 -41 -10s-23.667 -14.334 -29 -23.001z" />
    <glyph glyph-name="threesuperior" unicode="&#xb3;" horiz-adv-x="748" 
d="M74 797c0 15.333 2.50098 30.167 7.50098 44.5s12.167 26.833 21.5 37.5s20.666 19.167 33.999 25.5s28 9.5 44 9.5c18 0 33 -3.16699 45 -9.5s21.667 -14.333 29 -24s12.5 -20.5 15.5 -32.5s4.5 -24 4.5 -36c0 -4 -0.5 -9 -1.5 -15s-2.66699 -12.5 -5 -19.5
s-5.33301 -13.833 -9 -20.5s-8.16699 -12.334 -13.5 -17.001c4.66699 -7.33301 11 -13 19 -17s16.333 -7.16699 25 -9.5s17.167 -3.83301 25.5 -4.5s15.166 -1 20.499 -1c40 0 71.333 12.833 94 38.5s34 58.834 34 99.501c0 43.333 -13.667 78.833 -41 106.5
s-68 41.5 -122 41.5c-10.667 0 -22.834 -0.333008 -36.501 -1s-24.5 -1.33398 -32.5 -2.00098v111l36 -2c12 -0.666992 23.667 -1 35 -1c26 0 47.667 4.33301 65 13s31 19.834 41 33.501s17.167 28.834 21.5 45.501s6.5 33 6.5 49c0 36.667 -9.16699 65.167 -27.5 85.5
s-44.5 30.5 -78.5 30.5c-18 0 -33.167 -2.83301 -45.5 -8.5s-21.166 -10.834 -26.499 -15.501c11.333 -9.33301 18.833 -20.5 22.5 -33.5s5.5 -23.167 5.5 -30.5c0 -9.33301 -1.66699 -19.666 -5 -30.999s-9 -21.833 -17 -31.5s-18.333 -17.834 -31 -24.501
s-28.334 -10 -47.001 -10c-32 1.33301 -56.667 11.5 -74 30.5s-26 43.5 -26 73.5c0 19.333 5.5 40.333 16.5 63s27.833 43.5 50.5 62.5s51.334 34.833 86.001 47.5s76 19 124 19c39.333 0 75.833 -4.33301 109.5 -13s62.834 -22 87.501 -40s44 -40.5 58 -67.5
s21 -58.5 21 -94.5c0 -19.333 -4 -38.666 -12 -57.999s-19 -37.333 -33 -54s-30.333 -31 -49 -43s-38.667 -20.667 -60 -26v-2c68 -13.333 117.167 -38.833 147.5 -76.5s45.5 -84.5 45.5 -140.5c0 -36 -7.16699 -69.5 -21.5 -100.5s-35.5 -57.833 -63.5 -80.5
s-62.833 -40.5 -104.5 -53.5s-89.834 -19.5 -144.501 -19.5c-42 0 -79.833 5.66699 -113.5 17s-62.167 26.166 -85.5 44.499s-41.166 39.5 -53.499 63.5s-18.5 48.667 -18.5 74z" />
    <glyph glyph-name="acute" unicode="&#xb4;" horiz-adv-x="578" 
d="M184 1158l-94 82.9961l168 286c14 22.667 31.833 40.834 53.5 54.501s44.167 20.5 67.5 20.5c16 0 30.5 -3.16699 43.5 -9.5s24.333 -14.666 34 -24.999s17.167 -22.166 22.5 -35.499s8 -26.666 8 -39.999c0 -21.333 -5 -42.5 -15 -63.5s-23 -39.167 -39 -54.5z" />
    <glyph glyph-name="mu" unicode="&#xb5;" horiz-adv-x="1253" 
d="M1005 1024l-1.99512 -733.002c0 -8 0.166992 -18 0.5 -30s2 -23.5 5 -34.5s7.83301 -20.333 14.5 -28s16.667 -11.5 30 -11.5c9.33301 0 20.166 2.33301 32.499 7s26.5 14.334 42.5 29.001l69 -86c-12 -16.667 -26.833 -33.667 -44.5 -51
s-37.334 -33.166 -59.001 -47.499s-44.834 -26.166 -69.501 -35.499s-50 -14 -76 -14c-40 0 -75.333 10.167 -106 30.5s-51.667 53.833 -63 100.5h-2c-40 -48.667 -80.5 -86 -121.5 -112s-80.5 -39 -118.5 -39c-70.667 0 -125.667 47.667 -165 143h-2
c2.66699 -56.667 8.16699 -111.5 16.5 -164.5s17 -102 26 -147s17 -84.833 24 -119.5s10.5 -61.667 10.5 -81s-2.16699 -38.333 -6.5 -57s-11.666 -35.167 -21.999 -49.5s-23.833 -26 -40.5 -35s-37.334 -13.5 -62.001 -13.5c-26 0 -48.167 5.16699 -66.5 15.5
s-33.333 24.833 -45 43.5s-20 41.167 -25 67.5s-7.5 55.5 -7.5 87.5l1 1365h255v-558c0 -46 3 -87.667 9 -125s15 -69.333 27 -96s27.333 -47.334 46 -62.001s40.667 -22 66 -22s54.166 5.66699 86.499 17s61.166 31 86.499 59v787h256z" />
    <glyph glyph-name="paragraph" unicode="&#xb6;" horiz-adv-x="1174" 
d="M994 1434l0.00292969 -1956h-232l3 1814l-192 -2c0 -91.333 -0.166992 -187 -0.5 -287s-0.5 -201.833 -0.5 -305.5s-0.333008 -208.5 -1 -314.5s-1 -210.833 -1 -314.5s-0.166992 -205.334 -0.5 -305.001s-0.5 -194.834 -0.5 -285.501h-230l5 1343
c-33.333 6 -65.5 15.667 -96.5 29s-58.833 32 -83.5 56s-44.334 53.833 -59.001 89.5s-22 78.834 -22 129.501c0 52.667 8.83301 98.334 26.5 137.001s41.167 70.667 70.5 96s62.666 44.333 99.999 57s75.666 19 114.999 19h599z" />
    <glyph glyph-name="periodcentered" unicode="&#xb7;" horiz-adv-x="463" 
d="M380 699c0 -22 -3.49902 -42.667 -10.499 -62s-16.667 -36.166 -29 -50.499s-27.5 -25.666 -45.5 -33.999s-38 -12.5 -60 -12.5c-22.667 0 -43.334 4.16699 -62.001 12.5s-34.667 19.666 -48 33.999s-23.666 31.166 -30.999 50.499s-11 40 -11 62s4 42.833 12 62.5
s18.833 36.834 32.5 51.501s29.5 26.167 47.5 34.5s37 12.5 57 12.5c21.333 0 41 -4.16699 59 -12.5s33.667 -19.833 47 -34.5s23.666 -31.834 30.999 -51.501s11 -40.5 11 -62.5z" />
    <glyph glyph-name="cedilla" unicode="&#xb8;" horiz-adv-x="665" 
d="M424 -109c20.667 -0.666992 40.1689 -3.83398 58.502 -9.50098s34.166 -14.334 47.499 -26.001s23.833 -26.334 31.5 -44.001s11.5 -38.834 11.5 -63.501c0 -32 -7.83301 -60.5 -23.5 -85.5s-36.334 -47.167 -62.001 -66.5s-55 -36.166 -88 -50.499
s-66.667 -26.5 -101 -36.5s-68.166 -18.167 -101.499 -24.5s-63 -11.166 -89 -14.499l-16 106c10.667 2 24.167 4.66699 40.5 8s33.666 7.5 51.999 12.5s36.666 10.833 54.999 17.5s34.833 14.5 49.5 23.5s26.5 19.167 35.5 30.5s13.5 24 13.5 38
c0 18 -5.66699 30.667 -17 38s-24.666 11 -39.999 11s-30.5 -2.66699 -45.5 -8s-27.167 -11.666 -36.5 -18.999l-76 32l63 260h156l-60 -161h2c8.66699 4.66699 19 9 31 13s24.5 7.33301 37.5 10s25.667 4.83398 38 6.50098s23.5 2.5 33.5 2.5z" />
    <glyph glyph-name="onesuperior" unicode="&#xb9;" horiz-adv-x="569" 
d="M83 1191l-41 80l300 196h71v-658c0 -21.333 -0.333008 -41.666 -1 -60.999s-1.66699 -34 -3 -44l88 3v-90h-365v77c12.667 0.666992 24.167 2 34.5 4s19 6.33301 26 13s12.333 16.667 16 30s5.5 31.666 5.5 54.999v471z" />
    <glyph glyph-name="ordmasculine" unicode="&#xba;" horiz-adv-x="775" 
d="M388 1355c-34 -1.33301 -60.333 -20.832 -79 -58.499s-28 -94.5 -28 -170.5c0 -85.333 9.16699 -150.833 27.5 -196.5s47.5 -68.5 87.5 -68.5c32.667 1.33301 58 20.833 76 58.5s27 93.5 27 167.5c0 41.333 -2 78.666 -6 111.999s-10.333 61.5 -19 84.5
s-20 40.667 -34 53s-31.333 18.5 -52 18.5zM391 1467c50 0 94.8301 -8.8291 134.497 -26.4961s73.334 -42.334 101.001 -74.001s48.834 -69.334 63.501 -113.001s22 -91.834 22 -144.501c0 -53.333 -7.5 -102.333 -22.5 -147s-36.667 -83 -65 -115
s-62.666 -56.833 -102.999 -74.5s-85.5 -26.5 -135.5 -26.5c-49.333 0 -94 8.66699 -134 26s-74 41.333 -102 72s-49.667 67.167 -65 109.5s-23 88.5 -23 138.5c0 52.667 7.66699 102 23 148s37.166 85.667 65.499 119s62.833 59.666 103.5 78.999s86.334 29 137.001 29z
" />
    <glyph glyph-name="guillemotright" unicode="&#xbb;" horiz-adv-x="1011" 
d="M970 583v-48l-547 -569l-97 99l387 497v2l-380 476l96 94zM520 578v-47l-349 -409l-96 79l205 345v3l-202 346l95 80z" />
    <glyph glyph-name="onequarter" unicode="&#xbc;" horiz-adv-x="1621" 
d="M1317 1357l-913 -1390l-133 99l907 1401zM118 1191l-41 80l300 196h71v-658c0 -21.333 -0.333008 -41.666 -1 -60.999s-1.66699 -34 -3 -44l88 3v-90h-365v77c12.667 0.666992 24.167 2 34.5 4s19 6.33301 26 13s12.333 16.667 16 30s5.5 31.666 5.5 54.999v471z
M1414 197l-0.000976562 -13c0 -21.333 -0.333008 -41.666 -1 -60.999s-1.66699 -34 -3 -44l88 3v-90h-365v77c12.667 0.666992 24.334 2 35.001 4s19.5 6.33301 26.5 13s12.5 16.667 16.5 30s6 31.666 6 54.999v27l-310 2v120l436 522h71v-531h121v-115zM1043 317l178 -3
l9 244h-2z" />
    <glyph glyph-name="onehalf" unicode="&#xbd;" horiz-adv-x="1705" 
d="M1317 1357l-913 -1390l-133 99l907 1401zM118 1191l-41 80l300 196h71v-658c0 -21.333 -0.333008 -41.666 -1 -60.999s-1.66699 -34 -3 -44l88 3v-90h-365v77c12.667 0.666992 24.167 2 34.5 4s19 6.33301 26 13s12.333 16.667 16 30s5.5 31.666 5.5 54.999v471z
M1194 688c11.333 -9.33301 18.834 -20.4971 22.501 -33.4971s5.5 -23.167 5.5 -30.5c0 -9.33301 -1.83301 -19.666 -5.5 -30.999s-9.66699 -21.833 -18 -31.5s-19.166 -17.834 -32.499 -24.501s-29.333 -10 -48 -10c-32 1.33301 -56 12.5 -72 33.5s-24 46.5 -24 76.5
c0 20.667 6 42.834 18 66.501s29.667 45.667 53 66s52.333 37.166 87 50.499s75 20 121 20c34.667 0 69 -4 103 -12s64.333 -20.667 91 -38s48.167 -39.833 64.5 -67.5s24.5 -61.5 24.5 -101.5c0 -36 -9.16699 -68.833 -27.5 -98.5s-42.333 -58.5 -72 -86.5
s-63 -56.167 -100 -84.5s-74.5 -59.5 -112.5 -93.5c-10 -8.66699 -18.333 -16.667 -25 -24s-12.5 -14.666 -17.5 -21.999s-9.66699 -14.833 -14 -22.5s-8.83301 -16.167 -13.5 -25.5l252 -5c18 -0.666992 32.5 3.5 43.5 12.5s16.5 30.167 16.5 63.5h97l-11 -244h-571
c0.666992 47.333 6.66699 89.166 18 125.499s26.333 69.333 45 99s40.167 57 64.5 82s50.166 49.5 77.499 73.5c26 23.333 47.333 46.166 64 68.499s29.667 43.5 39 63.5s15.666 38.667 18.999 56s5 32.666 5 45.999c0 42 -8.66699 71.833 -26 89.5s-41 26.5 -71 26.5
c-13.333 0 -27 -3.33301 -41 -10s-23.667 -14.334 -29 -23.001z" />
    <glyph glyph-name="threequarters" unicode="&#xbe;" horiz-adv-x="1755" 
d="M1451 1357l-913 -1390l-133 99l907 1401zM90 797c0 15.333 2.50098 30.167 7.50098 44.5s12.167 26.833 21.5 37.5s20.666 19.167 33.999 25.5s28 9.5 44 9.5c18 0 33 -3.16699 45 -9.5s21.667 -14.333 29 -24s12.5 -20.5 15.5 -32.5s4.5 -24 4.5 -36
c0 -4 -0.5 -9 -1.5 -15s-2.66699 -12.5 -5 -19.5s-5.33301 -13.833 -9 -20.5s-8.16699 -12.334 -13.5 -17.001c4.66699 -7.33301 11 -13 19 -17s16.333 -7.16699 25 -9.5s17.167 -3.83301 25.5 -4.5s15.166 -1 20.499 -1c40 0 71.333 12.833 94 38.5s34 58.834 34 99.501
c0 43.333 -13.667 78.833 -41 106.5s-68 41.5 -122 41.5c-10.667 0 -22.834 -0.333008 -36.501 -1s-24.5 -1.33398 -32.5 -2.00098v111l36 -2c12 -0.666992 23.667 -1 35 -1c26 0 47.667 4.33301 65 13s31 19.834 41 33.501s17.167 28.834 21.5 45.501s6.5 33 6.5 49
c0 36.667 -9.16699 65.167 -27.5 85.5s-44.5 30.5 -78.5 30.5c-18 0 -33.167 -2.83301 -45.5 -8.5s-21.166 -10.834 -26.499 -15.501c11.333 -9.33301 18.833 -20.5 22.5 -33.5s5.5 -23.167 5.5 -30.5c0 -9.33301 -1.66699 -19.666 -5 -30.999s-9 -21.833 -17 -31.5
s-18.333 -17.834 -31 -24.501s-28.334 -10 -47.001 -10c-32 1.33301 -56.667 11.5 -74 30.5s-26 43.5 -26 73.5c0 19.333 5.5 40.333 16.5 63s27.833 43.5 50.5 62.5s51.334 34.833 86.001 47.5s76 19 124 19c39.333 0 75.833 -4.33301 109.5 -13s62.834 -22 87.501 -40
s44 -40.5 58 -67.5s21 -58.5 21 -94.5c0 -19.333 -4 -38.666 -12 -57.999s-19 -37.333 -33 -54s-30.333 -31 -49 -43s-38.667 -20.667 -60 -26v-2c68 -13.333 117.167 -38.833 147.5 -76.5s45.5 -84.5 45.5 -140.5c0 -36 -7.16699 -69.5 -21.5 -100.5
s-35.5 -57.833 -63.5 -80.5s-62.833 -40.5 -104.5 -53.5s-89.834 -19.5 -144.501 -19.5c-42 0 -79.833 5.66699 -113.5 17s-62.167 26.166 -85.5 44.499s-41.166 39.5 -53.499 63.5s-18.5 48.667 -18.5 74zM1552 197.001l-0.000976562 -13
c0 -21.333 -0.333008 -41.666 -1 -60.999s-1.66699 -34 -3 -44l88 3v-90h-365v77c12.667 0.666992 24.334 2 35.001 4s19.5 6.33301 26.5 13s12.5 16.667 16.5 30s6 31.666 6 54.999v27l-310 2v120l436 522h71v-531h121v-115zM1181 317.001l178 -3l9 244h-2z" />
    <glyph glyph-name="questiondown" unicode="&#xbf;" horiz-adv-x="1010" 
d="M363.978 897.945c0 21.999 4.16699 42.6641 12.5 61.9961s19.499 36.1641 33.498 50.4971s29.998 25.666 47.9971 33.999s36.665 12.499 55.9971 12.499c19.999 0 38.8311 -4.16602 56.4961 -12.499c17.666 -8.33301 33.332 -19.666 46.9971 -33.999
c13.666 -14.333 24.332 -31.165 31.998 -50.4971c7.66699 -19.332 11.5 -39.9971 11.5 -61.9961s-4 -42.8311 -12 -62.4961c-7.99902 -19.665 -18.832 -36.8311 -32.498 -51.4971c-13.665 -14.666 -29.4971 -26.165 -47.4961 -34.498s-36.998 -12.499 -56.9971 -12.499
c-21.332 0 -40.9971 4.16602 -58.9961 12.499s-33.665 19.832 -46.9971 34.498c-13.333 14.666 -23.666 31.832 -30.999 51.4971s-11 40.4971 -11 62.4961zM380.978 -75.9951c0 -31.998 2.66699 -61.6621 8 -88.9941c5.33301 -27.3311 14.666 -50.9961 27.999 -70.9951
s31.165 -35.665 53.4971 -46.998c22.3311 -11.333 50.8291 -16.999 85.4941 -16.999c16.666 0 32.998 2 48.9971 5.99902c15.999 4 30.8311 9.16602 44.4961 15.499c13.666 6.33301 25.832 13.333 36.498 20.999s19.332 15.499 25.999 23.499
c-13.999 13.999 -23.832 30.998 -29.499 50.9971c-5.66602 19.999 -8.49902 36.998 -8.49902 50.9971c0 13.333 2.5 27.999 7.49902 43.998c5 15.999 12.833 30.998 23.499 44.9971s24.498 25.8311 41.4971 35.4971c16.999 9.66699 37.165 14.5 60.4971 14.5
c23.3311 0 43.6631 -3.66699 60.9961 -11c17.332 -7.33301 31.6641 -17.499 42.9971 -30.498s19.666 -28.498 24.999 -46.4971s7.99902 -37.3311 7.99902 -57.9961c0 -36.665 -10.833 -72.9961 -32.498 -108.993c-21.665 -35.998 -51.4961 -68.4961 -89.4932 -97.4941
c-37.998 -28.999 -82.9951 -52.498 -134.992 -70.4971s-108.66 -26.998 -169.989 -26.998c-80.6621 0 -148.825 9.33301 -204.488 27.998s-100.493 43.3301 -134.491 73.9951s-58.4971 65.4961 -73.4961 104.494c-14.999 38.9971 -22.498 78.8281 -22.498 119.492
c0 47.9971 10.499 92.3281 31.498 132.992s47.3311 78.4951 78.9961 113.493s65.8301 67.3291 102.495 96.9941c36.6641 29.665 70.8281 57.4971 102.493 83.4961c31.665 25.998 57.9971 50.4961 78.9961 73.4951s31.498 45.498 31.498 67.4971
c0 17.332 -6.5 31.6641 -19.499 42.9971s-33.498 16.999 -61.4971 16.999c-9.33301 0 -19.166 -0.5 -29.499 -1.5s-21.499 -3.16602 -33.498 -6.49902l-31.998 104.993c17.333 9.33301 35.165 16.833 53.4971 22.5c18.332 5.66602 36.3311 10.166 53.9971 13.499
c17.665 3.33301 34.6641 5.66602 50.9961 6.99902c16.333 1.33301 30.832 2 43.498 2c21.999 0 43.6641 -2.5 64.9961 -7.49902c21.332 -5 40.3311 -13.166 56.9961 -24.499s30.1641 -25.999 40.4971 -43.998s15.5 -39.998 15.5 -65.9971
c0 -16.665 -2.16699 -32.6641 -6.5 -47.9971s-12.666 -32.332 -24.999 -50.9971c-12.332 -18.665 -29.3311 -40.1641 -50.9961 -64.4961c-21.665 -24.3311 -49.8301 -53.4961 -84.4951 -87.4941c-23.999 -23.999 -45.998 -47.6641 -65.9971 -70.9961
s-37.165 -48.1641 -51.498 -74.4951c-14.332 -26.332 -25.665 -54.8301 -33.998 -85.4951s-12.499 -65.6631 -12.499 -104.994z" />
    <glyph glyph-name="Agrave" unicode="&#xc0;" 
d="M844 428l-445.003 -7.99902l-33 -96l-12.5 -35c-5 -14 -10.667 -28.833 -17 -44.5s-12.666 -31 -18.999 -46s-11.833 -28.5 -16.5 -40.5l146 6v-164h-439v141c28.667 0 52.834 6.5 72.501 19.5s36.834 30.167 51.501 51.5s27.667 46.166 39 74.499
s22.666 57.833 33.999 88.5l400 1095h142l437 -1116c4 -10 8.83301 -23.333 14.5 -40s11.5 -34.5 17.5 -53.5s11.333 -38 16 -57s8 -36.167 10 -51.5l118 6v-158h-552v135c36.667 0 62.334 7.16699 77.001 21.5s22 33.833 22 58.5c0 14 -2 29.5 -6 46.5
s-9.33301 35.167 -16 54.5zM450.997 573.001h340.999l-93 257c-18 50 -34 99.5 -48 148.5s-24.333 92.5 -31 130.5h-2c-5.33301 -23.333 -13.666 -58 -24.999 -104s-28 -101.333 -50 -166zM408.996 1745c-23.333 14 -43 32 -59 54s-24 45.667 -24 71
c0 14.667 3 28.334 9 41.001s14 23.5 24 32.5s21.167 16.167 33.5 21.5s24.833 8 37.5 8c20.667 0 41.167 -4.83301 61.5 -14.5s38.5 -22.834 54.5 -39.501l235 -242l-73 -101z" />
    <glyph glyph-name="Aacute" unicode="&#xc1;" 
d="M844 428l-445.003 -7.99902l-33 -96l-12.5 -35c-5 -14 -10.667 -28.833 -17 -44.5s-12.666 -31 -18.999 -46s-11.833 -28.5 -16.5 -40.5l146 6v-164h-439v141c28.667 0 52.834 6.5 72.501 19.5s36.834 30.167 51.501 51.5s27.667 46.166 39 74.499
s22.666 57.833 33.999 88.5l400 1095h142l437 -1116c4 -10 8.83301 -23.333 14.5 -40s11.5 -34.5 17.5 -53.5s11.333 -38 16 -57s8 -36.167 10 -51.5l118 6v-158h-552v135c36.667 0 62.334 7.16699 77.001 21.5s22 33.833 22 58.5c0 14 -2 29.5 -6 46.5
s-9.33301 35.167 -16 54.5zM450.997 573.001h340.999l-93 257c-18 50 -34 99.5 -48 148.5s-24.333 92.5 -31 130.5h-2c-5.33301 -23.333 -13.666 -58 -24.999 -104s-28 -101.333 -50 -166zM657.996 1576l-73 100.998l235 242c16 16.667 34 29.834 54 39.501
s40.333 14.5 61 14.5c12.667 0 25.167 -2.5 37.5 -7.5s23.5 -12.167 33.5 -21.5s18 -20.333 24 -33s9 -26.667 9 -42c0 -25.333 -7.83301 -48.666 -23.5 -69.999s-35.167 -39.333 -58.5 -54z" />
    <glyph glyph-name="Acircumflex" unicode="&#xc2;" 
d="M844 428l-445.003 -7.99902l-33 -96l-12.5 -35c-5 -14 -10.667 -28.833 -17 -44.5s-12.666 -31 -18.999 -46s-11.833 -28.5 -16.5 -40.5l146 6v-164h-439v141c28.667 0 52.834 6.5 72.501 19.5s36.834 30.167 51.501 51.5s27.667 46.166 39 74.499
s22.666 57.833 33.999 88.5l400 1095h142l437 -1116c4 -10 8.83301 -23.333 14.5 -40s11.5 -34.5 17.5 -53.5s11.333 -38 16 -57s8 -36.167 10 -51.5l118 6v-158h-552v135c36.667 0 62.334 7.16699 77.001 21.5s22 33.833 22 58.5c0 14 -2 29.5 -6 46.5
s-9.33301 35.167 -16 54.5zM450.997 573.001h340.999l-93 257c-18 50 -34 99.5 -48 148.5s-24.333 92.5 -31 130.5h-2c-5.33301 -23.333 -13.666 -58 -24.999 -104s-28 -101.333 -50 -166zM662.996 1988h40l400 -307l-64 -95l-365 178l-374 -175l-55 92z" />
    <glyph glyph-name="Atilde" unicode="&#xc3;" 
d="M844 428l-445.003 -7.99902l-33 -96l-12.5 -35c-5 -14 -10.667 -28.833 -17 -44.5s-12.666 -31 -18.999 -46s-11.833 -28.5 -16.5 -40.5l146 6v-164h-439v141c28.667 0 52.834 6.5 72.501 19.5s36.834 30.167 51.501 51.5s27.667 46.166 39 74.499
s22.666 57.833 33.999 88.5l400 1095h142l437 -1116c4 -10 8.83301 -23.333 14.5 -40s11.5 -34.5 17.5 -53.5s11.333 -38 16 -57s8 -36.167 10 -51.5l118 6v-158h-552v135c36.667 0 62.334 7.16699 77.001 21.5s22 33.833 22 58.5c0 14 -2 29.5 -6 46.5
s-9.33301 35.167 -16 54.5zM450.997 573.001h340.999l-93 257c-18 50 -34 99.5 -48 148.5s-24.333 92.5 -31 130.5h-2c-5.33301 -23.333 -13.666 -58 -24.999 -104s-28 -101.333 -50 -166zM534.996 1732c-26 0 -54.3311 -7.33496 -84.998 -22.002s-60 -42.334 -88 -83.001
l-114 75c15.333 38 33.833 70.833 55.5 98.5s45 50.334 70 68.001s50.667 30.834 77 39.501s51.833 13 76.5 13c34 0 63.833 -5.33301 89.5 -16s49.667 -22.167 72 -34.5s44.5 -23.833 66.5 -34.5s46 -16 72 -16c14 0 28.667 3.33301 44 10s30.5 15.834 45.5 27.501
s29.167 25.667 42.5 42s25 34.166 35 53.499l116 -64c-18 -53.333 -38.333 -96.666 -61 -129.999s-46.334 -59.5 -71.001 -78.5s-49.167 -32 -73.5 -39s-46.833 -10.5 -67.5 -10.5c-32 0 -60.333 5.33301 -85 16s-48.334 22.167 -71.001 34.5s-45.667 23.833 -69 34.5
s-49 16 -77 16z" />
    <glyph glyph-name="Adieresis" unicode="&#xc4;" 
d="M844 428l-445.003 -7.99902l-33 -96l-12.5 -35c-5 -14 -10.667 -28.833 -17 -44.5s-12.666 -31 -18.999 -46s-11.833 -28.5 -16.5 -40.5l146 6v-164h-439v141c28.667 0 52.834 6.5 72.501 19.5s36.834 30.167 51.501 51.5s27.667 46.166 39 74.499
s22.666 57.833 33.999 88.5l400 1095h142l437 -1116c4 -10 8.83301 -23.333 14.5 -40s11.5 -34.5 17.5 -53.5s11.333 -38 16 -57s8 -36.167 10 -51.5l118 6v-158h-552v135c36.667 0 62.334 7.16699 77.001 21.5s22 33.833 22 58.5c0 14 -2 29.5 -6 46.5
s-9.33301 35.167 -16 54.5zM450.997 573.001h340.999l-93 257c-18 50 -34 99.5 -48 148.5s-24.333 92.5 -31 130.5h-2c-5.33301 -23.333 -13.666 -58 -24.999 -104s-28 -101.333 -50 -166zM634.996 1786c0 -21.333 -3.66992 -41.333 -11.0029 -60s-17.333 -35 -30 -49
s-27.334 -25 -44.001 -33s-34 -12 -52 -12s-35.333 4 -52 12s-31.167 19 -43.5 33s-22.166 30.333 -29.499 49s-11 38.667 -11 60s3.83301 41.5 11.5 60.5s17.834 35.667 30.501 50s27.334 25.666 44.001 33.999s34 12.5 52 12.5c18.667 0 36.334 -4.16699 53.001 -12.5
s31 -19.666 43 -33.999s21.5 -31 28.5 -50s10.5 -39.167 10.5 -60.5zM991.993 1786c0 -21.333 -3.66992 -41.333 -11.0029 -60s-17.333 -35 -30 -49s-27.334 -25 -44.001 -33s-34 -12 -52 -12s-35.333 4 -52 12s-31.167 19 -43.5 33s-22.166 30.333 -29.499 49
s-11 38.667 -11 60s3.83301 41.5 11.5 60.5s17.834 35.667 30.501 50s27.334 25.666 44.001 33.999s34 12.5 52 12.5c18.667 0 36.334 -4.16699 53.001 -12.5s31 -19.666 43 -33.999s21.5 -31 28.5 -50s10.5 -39.167 10.5 -60.5z" />
    <glyph glyph-name="Aring" unicode="&#xc5;" 
d="M844 428l-445.003 -7.99902l-33 -96l-12.5 -35c-5 -14 -10.667 -28.833 -17 -44.5s-12.666 -31 -18.999 -46s-11.833 -28.5 -16.5 -40.5l146 6v-164h-439v141c28.667 0 52.834 6.5 72.501 19.5s36.834 30.167 51.501 51.5s27.667 46.166 39 74.499
s22.666 57.833 33.999 88.5l400 1095h142l437 -1116c4 -10 8.83301 -23.333 14.5 -40s11.5 -34.5 17.5 -53.5s11.333 -38 16 -57s8 -36.167 10 -51.5l118 6v-158h-552v135c36.667 0 62.334 7.16699 77.001 21.5s22 33.833 22 58.5c0 14 -2 29.5 -6 46.5
s-9.33301 35.167 -16 54.5zM450.997 573.001h340.999l-93 257c-18 50 -34 99.5 -48 148.5s-24.333 92.5 -31 130.5h-2c-5.33301 -23.333 -13.666 -58 -24.999 -104s-28 -101.333 -50 -166zM655.996 1952c-24.667 -2 -44.5 -15.168 -59.5 -39.501s-22.5 -57.5 -22.5 -99.5
c0 -53.333 9 -94.166 27 -122.499s41.333 -42.5 70 -42.5c24 0 44 10.167 60 30.5s24 52.5 24 96.5c0 58 -8 102 -24 132s-38 45 -66 45h-9zM662.996 2061c31.333 0 63.333 -5.16797 96 -15.501s62.167 -26.166 88.5 -47.499s48 -48.166 65 -80.499s25.5 -70.5 25.5 -114.5
c0 -41.333 -8.16699 -78.5 -24.5 -111.5s-37.5 -60.833 -63.5 -83.5s-55.167 -40 -87.5 -52s-64.5 -18 -96.5 -18c-33.333 0 -66.333 5.16699 -99 15.5s-62 26.166 -88 47.499s-47 48.333 -63 81s-24 71.667 -24 117c0 38.667 8 74.167 24 106.5s37 60 63 83
s55.167 40.833 87.5 53.5s64.5 19 96.5 19z" />
    <glyph glyph-name="AE" unicode="&#xc6;" horiz-adv-x="1915" 
d="M739 0l-0.000976562 135.007c22.667 1.33301 43.167 3.5 61.5 6.5s33.666 10.333 45.999 22s21.833 29.167 28.5 52.5s10 55.666 10 96.999v111l-401 -10l-72 -105c-22 -32 -43.667 -61.833 -65 -89.5s-43 -49.834 -65 -66.501v-2l164 7v-158h-458v135
c24 0 47 6.66699 69 20s43 30.333 63 51s39.333 43.667 58 69s36.667 50.333 54 75l660 929c0 0.666992 0.166992 1.16699 0.5 1.5s0.5 0.833008 0.5 1.5l-154 -6v158h1025l12 -397h-135c0 53.333 -7.33301 97.166 -22 131.499s-33.5 61.333 -56.5 81
s-48.667 33.167 -77 40.5s-56.166 11 -83.499 11l-84 -2c-21.333 -0.666992 -40.5 -2.83398 -57.5 -6.50098s-31.333 -11.5 -43 -23.5s-20.667 -29.667 -27 -53s-9.5 -55 -9.5 -95v-307h241l-9 177h158v-498h-135c0 40 -4.5 71.833 -13.5 95.5s-21.333 41.667 -37 54
s-34.167 20.666 -55.5 24.999s-47.666 6.16602 -78.999 5.49902l-70 -1v-336c0 -18.667 -0.166992 -36.834 -0.5 -54.501s-0.833008 -34.5 -1.5 -50.5s-1.5 -30.5 -2.5 -43.5s-2.16699 -23.833 -3.5 -32.5l275 1c30 0 60 5 90 15s56.667 26.5 80 49.5s42.333 53.333 57 91
s22 84.167 22 139.5h135l-12 -451h-1081zM582.999 565.007h301.999v177c0 44 0.833008 89.667 2.5 137s4.83398 96 9.50098 146c-25.333 -38.667 -50.333 -76.667 -75 -114s-49 -73.333 -73 -108z" />
    <glyph glyph-name="Ccedilla" unicode="&#xc7;" horiz-adv-x="1410" 
d="M857 -106c20.667 -0.666992 40.5029 -4.33301 59.5029 -11s35.5 -16.167 49.5 -28.5s25.167 -27.833 33.5 -46.5s12.5 -40.334 12.5 -65.001c0 -32 -8 -61.167 -24 -87.5s-37 -50.333 -63 -72s-55.667 -40.834 -89 -57.501s-67.5 -31 -102.5 -43
s-69.333 -21.833 -103 -29.5s-63.5 -13.167 -89.5 -16.5l-16 112c10.667 2 24.167 5.16699 40.5 9.5s33.666 9.83301 51.999 16.5s36.5 14.334 54.5 23.001s34.333 18.334 49 29.001s26.5 22.167 35.5 34.5s13.5 25.5 13.5 39.5c0 18.667 -5.16699 31.667 -15.5 39
s-22.833 11 -37.5 11s-30 -3 -46 -9s-29 -13 -39 -21l-85 32l55 233c-81.333 18.667 -154.666 49.834 -219.999 93.501s-121 96.5 -167 158.5s-81.333 132 -106 210s-37 160.667 -37 248c0 62 6.66699 124.167 20 186.5s33.166 122 59.499 179s59.5 110.167 99.5 159.5
s86.5 92.333 139.5 129s112.667 65.334 179 86.001s139.166 31 218.499 31c26.667 0 54.834 -2.16699 84.501 -6.5s59.834 -10.833 90.501 -19.5s61 -19.167 91 -31.5s58.667 -26.833 86 -43.5h2l-7 87h158v-479h-134c-18.667 114 -56.334 199.833 -113.001 257.5
s-133.667 86.5 -231 86.5c-71.333 0 -133.5 -16.333 -186.5 -49s-96.833 -76 -131.5 -130s-60.5 -115.833 -77.5 -185.5s-25.5 -141.5 -25.5 -215.5c0 -88.667 9.5 -170 28.5 -244s46.667 -137.833 83 -191.5s81.166 -95.334 134.499 -125.001s114.666 -44.5 183.999 -44.5
c42.667 0 85.667 5.66699 129 17s85.333 27.833 126 49.5s79.167 48.167 115.5 79.5s68.833 66.666 97.5 105.999l98 -90c-50 -69.333 -102.333 -125.333 -157 -168s-109 -75.834 -163 -99.501s-106.333 -39.667 -157 -48s-97 -12.5 -139 -12.5
c-3.33301 0 -6.5 0.166992 -9.5 0.5s-6.16699 0.5 -9.5 0.5l-40 -106h2c8.66699 4.66699 19 9 31 13s24.5 7.33301 37.5 10s25.667 4.83398 38 6.50098s23.5 2.5 33.5 2.5z" />
    <glyph glyph-name="Egrave" unicode="&#xc8;" horiz-adv-x="1278" 
d="M544 672l0.000976562 -335.993c0 -18.667 -0.166992 -36.834 -0.5 -54.501s-0.833008 -34.5 -1.5 -50.5s-1.5 -30.5 -2.5 -43.5s-2.16699 -23.833 -3.5 -32.5l275 1c30 0 60 5 90 15s56.667 26.5 80 49.5s42.333 53.333 57 91s22 84.167 22 139.5h135l-12 -451h-1081v135
c22.667 1.33301 43.167 3.66602 61.5 6.99902s33.666 10.666 45.999 21.999s21.833 28.666 28.5 51.999s10 55.666 10 96.999v785c0 18.667 0.166992 37 0.5 55s0.833008 35.167 1.5 51.5s1.5 31.166 2.5 44.499s2.16699 24.333 3.5 33l-154 -6v158h1025l12 -397h-135
c0 55.333 -7.83301 100.333 -23.5 135s-35.5 61.667 -59.5 81s-50.667 32.333 -80 39s-58 9.66699 -86 9l-74 -2c-21.333 -0.666992 -40.5 -2.83398 -57.5 -6.50098s-31.333 -11.5 -43 -23.5s-20.667 -29.667 -27 -53s-9.5 -55 -9.5 -95v-307h241l-9 177h158v-498h-135
c0 42.667 -5.33301 76.334 -16 101.001s-25 43 -43 55s-39.167 19.167 -63.5 21.5s-50.5 3.16602 -78.5 2.49902zM434.001 1745.01c-23.333 14 -43 32 -59 54s-24 45.667 -24 71c0 14.667 3 28.334 9 41.001s14 23.5 24 32.5s21.167 16.167 33.5 21.5s24.833 8 37.5 8
c20.667 0 41.167 -4.83301 61.5 -14.5s38.5 -22.834 54.5 -39.501l235 -242l-73 -101z" />
    <glyph glyph-name="Eacute" unicode="&#xc9;" horiz-adv-x="1278" 
d="M544 672l0.000976562 -335.993c0 -18.667 -0.166992 -36.834 -0.5 -54.501s-0.833008 -34.5 -1.5 -50.5s-1.5 -30.5 -2.5 -43.5s-2.16699 -23.833 -3.5 -32.5l275 1c30 0 60 5 90 15s56.667 26.5 80 49.5s42.333 53.333 57 91s22 84.167 22 139.5h135l-12 -451h-1081v135
c22.667 1.33301 43.167 3.66602 61.5 6.99902s33.666 10.666 45.999 21.999s21.833 28.666 28.5 51.999s10 55.666 10 96.999v785c0 18.667 0.166992 37 0.5 55s0.833008 35.167 1.5 51.5s1.5 31.166 2.5 44.499s2.16699 24.333 3.5 33l-154 -6v158h1025l12 -397h-135
c0 55.333 -7.83301 100.333 -23.5 135s-35.5 61.667 -59.5 81s-50.667 32.333 -80 39s-58 9.66699 -86 9l-74 -2c-21.333 -0.666992 -40.5 -2.83398 -57.5 -6.50098s-31.333 -11.5 -43 -23.5s-20.667 -29.667 -27 -53s-9.5 -55 -9.5 -95v-307h241l-9 177h158v-498h-135
c0 42.667 -5.33301 76.334 -16 101.001s-25 43 -43 55s-39.167 19.167 -63.5 21.5s-50.5 3.16602 -78.5 2.49902zM554.001 1576.01l-73 100.998l235 242c16 16.667 34 29.834 54 39.501s40.333 14.5 61 14.5c12.667 0 25.167 -2.5 37.5 -7.5s23.5 -12.167 33.5 -21.5
s18 -20.333 24 -33s9 -26.667 9 -42c0 -25.333 -7.83301 -48.666 -23.5 -69.999s-35.167 -39.333 -58.5 -54z" />
    <glyph glyph-name="Ecircumflex" unicode="&#xca;" horiz-adv-x="1278" 
d="M544 672l0.000976562 -335.993c0 -18.667 -0.166992 -36.834 -0.5 -54.501s-0.833008 -34.5 -1.5 -50.5s-1.5 -30.5 -2.5 -43.5s-2.16699 -23.833 -3.5 -32.5l275 1c30 0 60 5 90 15s56.667 26.5 80 49.5s42.333 53.333 57 91s22 84.167 22 139.5h135l-12 -451h-1081v135
c22.667 1.33301 43.167 3.66602 61.5 6.99902s33.666 10.666 45.999 21.999s21.833 28.666 28.5 51.999s10 55.666 10 96.999v785c0 18.667 0.166992 37 0.5 55s0.833008 35.167 1.5 51.5s1.5 31.166 2.5 44.499s2.16699 24.333 3.5 33l-154 -6v158h1025l12 -397h-135
c0 55.333 -7.83301 100.333 -23.5 135s-35.5 61.667 -59.5 81s-50.667 32.333 -80 39s-58 9.66699 -86 9l-74 -2c-21.333 -0.666992 -40.5 -2.83398 -57.5 -6.50098s-31.333 -11.5 -43 -23.5s-20.667 -29.667 -27 -53s-9.5 -55 -9.5 -95v-307h241l-9 177h158v-498h-135
c0 42.667 -5.33301 76.334 -16 101.001s-25 43 -43 55s-39.167 19.167 -63.5 21.5s-50.5 3.16602 -78.5 2.49902zM646.001 1988.01h40l400 -307l-64 -95l-365 178l-374 -175l-55 92z" />
    <glyph glyph-name="Edieresis" unicode="&#xcb;" horiz-adv-x="1278" 
d="M544 672l0.000976562 -335.993c0 -18.667 -0.166992 -36.834 -0.5 -54.501s-0.833008 -34.5 -1.5 -50.5s-1.5 -30.5 -2.5 -43.5s-2.16699 -23.833 -3.5 -32.5l275 1c30 0 60 5 90 15s56.667 26.5 80 49.5s42.333 53.333 57 91s22 84.167 22 139.5h135l-12 -451h-1081v135
c22.667 1.33301 43.167 3.66602 61.5 6.99902s33.666 10.666 45.999 21.999s21.833 28.666 28.5 51.999s10 55.666 10 96.999v785c0 18.667 0.166992 37 0.5 55s0.833008 35.167 1.5 51.5s1.5 31.166 2.5 44.499s2.16699 24.333 3.5 33l-154 -6v158h1025l12 -397h-135
c0 55.333 -7.83301 100.333 -23.5 135s-35.5 61.667 -59.5 81s-50.667 32.333 -80 39s-58 9.66699 -86 9l-74 -2c-21.333 -0.666992 -40.5 -2.83398 -57.5 -6.50098s-31.333 -11.5 -43 -23.5s-20.667 -29.667 -27 -53s-9.5 -55 -9.5 -95v-307h241l-9 177h158v-498h-135
c0 42.667 -5.33301 76.334 -16 101.001s-25 43 -43 55s-39.167 19.167 -63.5 21.5s-50.5 3.16602 -78.5 2.49902zM604.001 1786.01c0 -21.333 -3.66992 -41.333 -11.0029 -60s-17.333 -35 -30 -49s-27.334 -25 -44.001 -33s-34 -12 -52 -12s-35.333 4 -52 12
s-31.167 19 -43.5 33s-22.166 30.333 -29.499 49s-11 38.667 -11 60s3.83301 41.5 11.5 60.5s17.834 35.667 30.501 50s27.334 25.666 44.001 33.999s34 12.5 52 12.5c18.667 0 36.334 -4.16699 53.001 -12.5s31 -19.666 43 -33.999s21.5 -31 28.5 -50
s10.5 -39.167 10.5 -60.5zM960.998 1786.01c0 -21.333 -3.66992 -41.333 -11.0029 -60s-17.333 -35 -30 -49s-27.334 -25 -44.001 -33s-34 -12 -52 -12s-35.333 4 -52 12s-31.167 19 -43.5 33s-22.166 30.333 -29.499 49s-11 38.667 -11 60s3.83301 41.5 11.5 60.5
s17.834 35.667 30.501 50s27.334 25.666 44.001 33.999s34 12.5 52 12.5c18.667 0 36.334 -4.16699 53.001 -12.5s31 -19.666 43 -33.999s21.5 -31 28.5 -50s10.5 -39.167 10.5 -60.5z" />
    <glyph glyph-name="Igrave" unicode="&#xcc;" horiz-adv-x="792" 
d="M544 336c0 -18.667 -0.166016 -37.0029 -0.499023 -55.0029s-0.833008 -35.167 -1.5 -51.5s-1.5 -31.166 -2.5 -44.499s-2.16699 -24.333 -3.5 -33l154 6v-158h-588v135c22.667 1.33301 43.167 3.5 61.5 6.5s33.666 10.333 45.999 22s21.833 29.167 28.5 52.5
s10 55.666 10 96.999v785c0 18.667 0.166992 37 0.5 55s0.833008 35.167 1.5 51.5s1.5 31.166 2.5 44.499s2.16699 24.333 3.5 33l-154 -6v158h588v-135c-23.333 -1.33301 -44 -3.66602 -62 -6.99902s-33.167 -10.666 -45.5 -21.999s-21.833 -28.666 -28.5 -51.999
s-10 -55.666 -10 -96.999v-785zM156.001 1745c-23.333 14 -43 32 -59 54s-24 45.667 -24 71c0 14.667 3 28.334 9 41.001s14 23.5 24 32.5s21.167 16.167 33.5 21.5s24.833 8 37.5 8c20.667 0 41.167 -4.83301 61.5 -14.5s38.5 -22.834 54.5 -39.501l235 -242l-73 -101z" />
    <glyph glyph-name="Iacute" unicode="&#xcd;" horiz-adv-x="791" 
d="M544 336c0 -18.667 -0.166016 -37.0029 -0.499023 -55.0029s-0.833008 -35.167 -1.5 -51.5s-1.5 -31.166 -2.5 -44.499s-2.16699 -24.333 -3.5 -33l154 6v-158h-588v135c22.667 1.33301 43.167 3.5 61.5 6.5s33.666 10.333 45.999 22s21.833 29.167 28.5 52.5
s10 55.666 10 96.999v785c0 18.667 0.166992 37 0.5 55s0.833008 35.167 1.5 51.5s1.5 31.166 2.5 44.499s2.16699 24.333 3.5 33l-154 -6v158h588v-135c-23.333 -1.33301 -44 -3.66602 -62 -6.99902s-33.167 -10.666 -45.5 -21.999s-21.833 -28.666 -28.5 -51.999
s-10 -55.666 -10 -96.999v-785zM323.001 1576l-73 100.998l235 242c16 16.667 34 29.834 54 39.501s40.333 14.5 61 14.5c12.667 0 25.167 -2.5 37.5 -7.5s23.5 -12.167 33.5 -21.5s18 -20.333 24 -33s9 -26.667 9 -42c0 -25.333 -7.83301 -48.666 -23.5 -69.999
s-35.167 -39.333 -58.5 -54z" />
    <glyph glyph-name="Icircumflex" unicode="&#xce;" horiz-adv-x="792" 
d="M389 1988h40l320 -307l-64 -95l-285 178l-294 -175l-55 92zM544 336c0 -18.667 -0.166016 -37.0029 -0.499023 -55.0029s-0.833008 -35.167 -1.5 -51.5s-1.5 -31.166 -2.5 -44.499s-2.16699 -24.333 -3.5 -33l154 6v-158h-588v135c22.667 1.33301 43.167 3.5 61.5 6.5
s33.666 10.333 45.999 22s21.833 29.167 28.5 52.5s10 55.666 10 96.999v785c0 18.667 0.166992 37 0.5 55s0.833008 35.167 1.5 51.5s1.5 31.166 2.5 44.499s2.16699 24.333 3.5 33l-154 -6v158h588v-135c-23.333 -1.33301 -44 -3.66602 -62 -6.99902
s-33.167 -10.666 -45.5 -21.999s-21.833 -28.666 -28.5 -51.999s-10 -55.666 -10 -96.999v-785z" />
    <glyph glyph-name="Idieresis" unicode="&#xcf;" horiz-adv-x="792" 
d="M544 336c0 -18.667 -0.166016 -37.0029 -0.499023 -55.0029s-0.833008 -35.167 -1.5 -51.5s-1.5 -31.166 -2.5 -44.499s-2.16699 -24.333 -3.5 -33l154 6v-158h-588v135c22.667 1.33301 43.167 3.5 61.5 6.5s33.666 10.333 45.999 22s21.833 29.167 28.5 52.5
s10 55.666 10 96.999v785c0 18.667 0.166992 37 0.5 55s0.833008 35.167 1.5 51.5s1.5 31.166 2.5 44.499s2.16699 24.333 3.5 33l-154 -6v158h588v-135c-23.333 -1.33301 -44 -3.66602 -62 -6.99902s-33.167 -10.666 -45.5 -21.999s-21.833 -28.666 -28.5 -51.999
s-10 -55.666 -10 -96.999v-785zM367.001 1786c0 -21.333 -3.66992 -41.333 -11.0029 -60s-17.333 -35 -30 -49s-27.334 -25 -44.001 -33s-34 -12 -52 -12s-35.333 4 -52 12s-31.167 19 -43.5 33s-22.166 30.333 -29.499 49s-11 38.667 -11 60s3.83301 41.5 11.5 60.5
s17.834 35.667 30.501 50s27.334 25.666 44.001 33.999s34 12.5 52 12.5c18.667 0 36.334 -4.16699 53.001 -12.5s31 -19.666 43 -33.999s21.5 -31 28.5 -50s10.5 -39.167 10.5 -60.5zM723.998 1786c0 -21.333 -3.66992 -41.333 -11.0029 -60s-17.333 -35 -30 -49
s-27.334 -25 -44.001 -33s-34 -12 -52 -12s-35.333 4 -52 12s-31.167 19 -43.5 33s-22.166 30.333 -29.499 49s-11 38.667 -11 60s3.83301 41.5 11.5 60.5s17.834 35.667 30.501 50s27.334 25.666 44.001 33.999s34 12.5 52 12.5c18.667 0 36.334 -4.16699 53.001 -12.5
s31 -19.666 43 -33.999s21.5 -31 28.5 -50s10.5 -39.167 10.5 -60.5z" />
    <glyph glyph-name="Eth" unicode="&#xd0;" horiz-adv-x="1555" 
d="M61 819l187 0.00390625v280c0 18.667 0.166992 37 0.5 55s0.833008 35.167 1.5 51.5s1.5 31.166 2.5 44.499s2.16699 24.333 3.5 33l-154 -6v158l597 2c90 0 171.833 -9.5 245.5 -28.5s139.5 -45.167 197.5 -78.5s108.333 -72.5 151 -117.5s78 -93.667 106 -146
s48.833 -107 62.5 -164s20.5 -113.833 20.5 -170.5c0 -55.333 -6.33301 -111.833 -19 -169.5s-32.5 -113.667 -59.5 -168s-61.5 -105.333 -103.5 -153s-92.333 -89.334 -151 -125.001s-126.167 -63.834 -202.5 -84.501s-162.166 -31 -257.499 -31h-587v135
c22.667 1.33301 43.167 3.5 61.5 6.5s33.666 10.333 45.999 22s21.833 29.167 28.5 52.5s10 55.666 10 96.999v306l-187 -2v201zM695 1300l-17.002 -0.00390625c-22.667 0 -42.334 -2.16699 -59.001 -6.5s-30.5 -12.666 -41.5 -24.999s-19.333 -30 -25 -53
s-8.5 -52.833 -8.5 -89.5v-307h218v-192l-218 -3v-287c0 -18.667 -0.166992 -37 -0.5 -55s-0.833008 -35.167 -1.5 -51.5s-1.5 -31.166 -2.5 -44.499s-2.16699 -24.333 -3.5 -33c4.66699 0.666992 10 1 16 1h20c12.667 0 26.334 -0.166992 41.001 -0.5
s29.167 -0.666016 43.5 -0.999023s28.166 -0.666016 41.499 -0.999023s24.666 -0.5 33.999 -0.5c74.667 0 138.834 15.167 192.501 45.5s97.834 70.666 132.501 120.999s60.334 107.833 77.001 172.5s25 131 25 199c0 104.667 -10.833 195 -32.5 271
s-52.667 138.833 -93 188.5s-89.166 86.834 -146.499 111.501s-121.333 38 -192 40z" />
    <glyph glyph-name="Ntilde" unicode="&#xd1;" horiz-adv-x="1583" 
d="M1365 -20l-173.999 -0.00195312l-655 837c-34.667 44.667 -72 95.667 -112 153h-2l3 -634c0 -18.667 -0.166992 -37 -0.5 -55s-0.833008 -35.167 -1.5 -51.5s-1.5 -31.166 -2.5 -44.499s-2.16699 -24.333 -3.5 -33l154 6v-158h-467v135
c22.667 1.33301 43.167 3.5 61.5 6.5s33.666 10.333 45.999 22s21.833 29.167 28.5 52.5s10 55.666 10 96.999l-5 785c0 18.667 0.166992 37 0.5 55s0.833008 35.167 1.5 51.5s1.5 31.166 2.5 44.499s2.16699 24.333 3.5 33l-154 -6v158h321l626 -790
c34.667 -44 63.167 -81.833 85.5 -113.5s41.5 -59.167 57.5 -82.5h2v650c0 18.667 0.166992 37 0.5 55s0.833008 35.167 1.5 51.5s1.5 31.166 2.5 44.499s2.16699 24.333 3.5 33l-154 -6v158h466v-135c-23.333 -1.33301 -44 -3.66602 -62 -6.99902
s-33.167 -10.666 -45.5 -21.999s-21.833 -28.666 -28.5 -51.999s-10 -55.666 -10 -96.999v-1141zM659.001 1732c-26 0 -54.3311 -7.33496 -84.998 -22.002s-60 -42.334 -88 -83.001l-114 75c15.333 38 33.833 70.833 55.5 98.5s45 50.334 70 68.001s50.667 30.834 77 39.501
s51.833 13 76.5 13c34 0 63.833 -5.33301 89.5 -16s49.667 -22.167 72 -34.5s44.5 -23.833 66.5 -34.5s46 -16 72 -16c14 0 28.667 3.33301 44 10s30.5 15.834 45.5 27.501s29.167 25.667 42.5 42s25 34.166 35 53.499l116 -64c-18 -53.333 -38.333 -96.666 -61 -129.999
s-46.334 -59.5 -71.001 -78.5s-49.167 -32 -73.5 -39s-46.833 -10.5 -67.5 -10.5c-32 0 -60.333 5.33301 -85 16s-48.334 22.167 -71.001 34.5s-45.667 23.833 -69 34.5s-49 16 -77 16z" />
    <glyph glyph-name="Ograve" unicode="&#xd2;" horiz-adv-x="1574" 
d="M394 741c0 -43.333 2.99902 -88.665 8.99902 -135.998s15.667 -94.166 29 -140.499s30.666 -90.5 51.999 -132.5s47.166 -78.833 77.499 -110.5s65.833 -57 106.5 -76s86.667 -28.5 138 -28.5c47.333 0 89.333 8.16699 126 24.5s68.834 38.5 96.501 66.5
s51.167 60.667 70.5 98s35 76.833 47 118.5s20.667 84.667 26 129s8 87.166 8 128.499c0 92 -8 176.833 -24 254.5s-40.667 144.667 -74 201s-75.333 100.333 -126 132s-110.667 47.5 -180 47.5c-48.667 0 -91.834 -8.16699 -129.501 -24.5s-70.667 -38.833 -99 -67.5
s-52.166 -61.834 -71.499 -99.501s-35.166 -77.834 -47.499 -120.501s-21.166 -86.5 -26.499 -131.5s-8 -89.167 -8 -132.5zM71.999 717.001c0 57.333 6.50195 115.665 19.502 174.998s32.667 116.666 59 171.999s59.333 107.5 99 156.5s86.167 91.833 139.5 128.5
s113.5 65.5 180.5 86.5s140.833 31.5 221.5 31.5c82.667 0 157.834 -10.667 225.501 -32s127.834 -50.333 180.501 -87s98.167 -79.5 136.5 -128.5s70.166 -101.167 95.499 -156.5s44 -112.666 56 -171.999s18 -117.333 18 -174s-6.5 -114.5 -19.5 -173.5
s-32.667 -116.167 -59 -171.5s-59.333 -107.666 -99 -156.999s-86.167 -92.333 -139.5 -129s-113.333 -65.667 -180 -87s-140.334 -32 -221.001 -32c-86.667 0 -164.334 10.333 -233.001 31s-129.5 48.834 -182.5 84.501s-98.333 77.667 -136 126
s-68.334 100.333 -92.001 156s-41.167 113.5 -52.5 173.5s-17 119.667 -17 179zM549.001 1745c-23.333 14 -43 32 -59 54s-24 45.667 -24 71c0 14.667 3 28.334 9 41.001s14 23.5 24 32.5s21.167 16.167 33.5 21.5s24.833 8 37.5 8c20.667 0 41.167 -4.83301 61.5 -14.5
s38.5 -22.834 54.5 -39.501l235 -242l-73 -101z" />
    <glyph glyph-name="Oacute" unicode="&#xd3;" horiz-adv-x="1574" 
d="M394 741c0 -43.333 2.99902 -88.665 8.99902 -135.998s15.667 -94.166 29 -140.499s30.666 -90.5 51.999 -132.5s47.166 -78.833 77.499 -110.5s65.833 -57 106.5 -76s86.667 -28.5 138 -28.5c47.333 0 89.333 8.16699 126 24.5s68.834 38.5 96.501 66.5
s51.167 60.667 70.5 98s35 76.833 47 118.5s20.667 84.667 26 129s8 87.166 8 128.499c0 92 -8 176.833 -24 254.5s-40.667 144.667 -74 201s-75.333 100.333 -126 132s-110.667 47.5 -180 47.5c-48.667 0 -91.834 -8.16699 -129.501 -24.5s-70.667 -38.833 -99 -67.5
s-52.166 -61.834 -71.499 -99.501s-35.166 -77.834 -47.499 -120.501s-21.166 -86.5 -26.499 -131.5s-8 -89.167 -8 -132.5zM71.999 717.001c0 57.333 6.50195 115.665 19.502 174.998s32.667 116.666 59 171.999s59.333 107.5 99 156.5s86.167 91.833 139.5 128.5
s113.5 65.5 180.5 86.5s140.833 31.5 221.5 31.5c82.667 0 157.834 -10.667 225.501 -32s127.834 -50.333 180.501 -87s98.167 -79.5 136.5 -128.5s70.166 -101.167 95.499 -156.5s44 -112.666 56 -171.999s18 -117.333 18 -174s-6.5 -114.5 -19.5 -173.5
s-32.667 -116.167 -59 -171.5s-59.333 -107.666 -99 -156.999s-86.167 -92.333 -139.5 -129s-113.333 -65.667 -180 -87s-140.334 -32 -221.001 -32c-86.667 0 -164.334 10.333 -233.001 31s-129.5 48.834 -182.5 84.501s-98.333 77.667 -136 126
s-68.334 100.333 -92.001 156s-41.167 113.5 -52.5 173.5s-17 119.667 -17 179zM740.001 1576l-73 100.998l235 242c16 16.667 34 29.834 54 39.501s40.333 14.5 61 14.5c12.667 0 25.167 -2.5 37.5 -7.5s23.5 -12.167 33.5 -21.5s18 -20.333 24 -33s9 -26.667 9 -42
c0 -25.333 -7.83301 -48.666 -23.5 -69.999s-35.167 -39.333 -58.5 -54z" />
    <glyph glyph-name="Ocircumflex" unicode="&#xd4;" horiz-adv-x="1574" 
d="M394 741c0 -43.333 2.99902 -88.665 8.99902 -135.998s15.667 -94.166 29 -140.499s30.666 -90.5 51.999 -132.5s47.166 -78.833 77.499 -110.5s65.833 -57 106.5 -76s86.667 -28.5 138 -28.5c47.333 0 89.333 8.16699 126 24.5s68.834 38.5 96.501 66.5
s51.167 60.667 70.5 98s35 76.833 47 118.5s20.667 84.667 26 129s8 87.166 8 128.499c0 92 -8 176.833 -24 254.5s-40.667 144.667 -74 201s-75.333 100.333 -126 132s-110.667 47.5 -180 47.5c-48.667 0 -91.834 -8.16699 -129.501 -24.5s-70.667 -38.833 -99 -67.5
s-52.166 -61.834 -71.499 -99.501s-35.166 -77.834 -47.499 -120.501s-21.166 -86.5 -26.499 -131.5s-8 -89.167 -8 -132.5zM71.999 717.001c0 57.333 6.50195 115.665 19.502 174.998s32.667 116.666 59 171.999s59.333 107.5 99 156.5s86.167 91.833 139.5 128.5
s113.5 65.5 180.5 86.5s140.833 31.5 221.5 31.5c82.667 0 157.834 -10.667 225.501 -32s127.834 -50.333 180.501 -87s98.167 -79.5 136.5 -128.5s70.166 -101.167 95.499 -156.5s44 -112.666 56 -171.999s18 -117.333 18 -174s-6.5 -114.5 -19.5 -173.5
s-32.667 -116.167 -59 -171.5s-59.333 -107.666 -99 -156.999s-86.167 -92.333 -139.5 -129s-113.333 -65.667 -180 -87s-140.334 -32 -221.001 -32c-86.667 0 -164.334 10.333 -233.001 31s-129.5 48.834 -182.5 84.501s-98.333 77.667 -136 126
s-68.334 100.333 -92.001 156s-41.167 113.5 -52.5 173.5s-17 119.667 -17 179zM785.001 1988h40l400 -307l-64 -95l-365 178l-374 -175l-55 92z" />
    <glyph glyph-name="Otilde" unicode="&#xd5;" horiz-adv-x="1574" 
d="M394 741c0 -43.333 2.99902 -88.665 8.99902 -135.998s15.667 -94.166 29 -140.499s30.666 -90.5 51.999 -132.5s47.166 -78.833 77.499 -110.5s65.833 -57 106.5 -76s86.667 -28.5 138 -28.5c47.333 0 89.333 8.16699 126 24.5s68.834 38.5 96.501 66.5
s51.167 60.667 70.5 98s35 76.833 47 118.5s20.667 84.667 26 129s8 87.166 8 128.499c0 92 -8 176.833 -24 254.5s-40.667 144.667 -74 201s-75.333 100.333 -126 132s-110.667 47.5 -180 47.5c-48.667 0 -91.834 -8.16699 -129.501 -24.5s-70.667 -38.833 -99 -67.5
s-52.166 -61.834 -71.499 -99.501s-35.166 -77.834 -47.499 -120.501s-21.166 -86.5 -26.499 -131.5s-8 -89.167 -8 -132.5zM71.999 717.001c0 57.333 6.50195 115.665 19.502 174.998s32.667 116.666 59 171.999s59.333 107.5 99 156.5s86.167 91.833 139.5 128.5
s113.5 65.5 180.5 86.5s140.833 31.5 221.5 31.5c82.667 0 157.834 -10.667 225.501 -32s127.834 -50.333 180.501 -87s98.167 -79.5 136.5 -128.5s70.166 -101.167 95.499 -156.5s44 -112.666 56 -171.999s18 -117.333 18 -174s-6.5 -114.5 -19.5 -173.5
s-32.667 -116.167 -59 -171.5s-59.333 -107.666 -99 -156.999s-86.167 -92.333 -139.5 -129s-113.333 -65.667 -180 -87s-140.334 -32 -221.001 -32c-86.667 0 -164.334 10.333 -233.001 31s-129.5 48.834 -182.5 84.501s-98.333 77.667 -136 126
s-68.334 100.333 -92.001 156s-41.167 113.5 -52.5 173.5s-17 119.667 -17 179zM640.001 1732c-26 0 -54.3311 -7.33496 -84.998 -22.002s-60 -42.334 -88 -83.001l-114 75c15.333 38 33.833 70.833 55.5 98.5s45 50.334 70 68.001s50.667 30.834 77 39.501
s51.833 13 76.5 13c34 0 63.833 -5.33301 89.5 -16s49.667 -22.167 72 -34.5s44.5 -23.833 66.5 -34.5s46 -16 72 -16c14 0 28.667 3.33301 44 10s30.5 15.834 45.5 27.501s29.167 25.667 42.5 42s25 34.166 35 53.499l116 -64c-18 -53.333 -38.333 -96.666 -61 -129.999
s-46.334 -59.5 -71.001 -78.5s-49.167 -32 -73.5 -39s-46.833 -10.5 -67.5 -10.5c-32 0 -60.333 5.33301 -85 16s-48.334 22.167 -71.001 34.5s-45.667 23.833 -69 34.5s-49 16 -77 16z" />
    <glyph glyph-name="Odieresis" unicode="&#xd6;" horiz-adv-x="1574" 
d="M394 741c0 -43.333 2.99902 -88.665 8.99902 -135.998s15.667 -94.166 29 -140.499s30.666 -90.5 51.999 -132.5s47.166 -78.833 77.499 -110.5s65.833 -57 106.5 -76s86.667 -28.5 138 -28.5c47.333 0 89.333 8.16699 126 24.5s68.834 38.5 96.501 66.5
s51.167 60.667 70.5 98s35 76.833 47 118.5s20.667 84.667 26 129s8 87.166 8 128.499c0 92 -8 176.833 -24 254.5s-40.667 144.667 -74 201s-75.333 100.333 -126 132s-110.667 47.5 -180 47.5c-48.667 0 -91.834 -8.16699 -129.501 -24.5s-70.667 -38.833 -99 -67.5
s-52.166 -61.834 -71.499 -99.501s-35.166 -77.834 -47.499 -120.501s-21.166 -86.5 -26.499 -131.5s-8 -89.167 -8 -132.5zM71.999 717.001c0 57.333 6.50195 115.665 19.502 174.998s32.667 116.666 59 171.999s59.333 107.5 99 156.5s86.167 91.833 139.5 128.5
s113.5 65.5 180.5 86.5s140.833 31.5 221.5 31.5c82.667 0 157.834 -10.667 225.501 -32s127.834 -50.333 180.501 -87s98.167 -79.5 136.5 -128.5s70.166 -101.167 95.499 -156.5s44 -112.666 56 -171.999s18 -117.333 18 -174s-6.5 -114.5 -19.5 -173.5
s-32.667 -116.167 -59 -171.5s-59.333 -107.666 -99 -156.999s-86.167 -92.333 -139.5 -129s-113.333 -65.667 -180 -87s-140.334 -32 -221.001 -32c-86.667 0 -164.334 10.333 -233.001 31s-129.5 48.834 -182.5 84.501s-98.333 77.667 -136 126
s-68.334 100.333 -92.001 156s-41.167 113.5 -52.5 173.5s-17 119.667 -17 179zM757.001 1786c0 -21.333 -3.66992 -41.333 -11.0029 -60s-17.333 -35 -30 -49s-27.334 -25 -44.001 -33s-34 -12 -52 -12s-35.333 4 -52 12s-31.167 19 -43.5 33s-22.166 30.333 -29.499 49
s-11 38.667 -11 60s3.83301 41.5 11.5 60.5s17.834 35.667 30.501 50s27.334 25.666 44.001 33.999s34 12.5 52 12.5c18.667 0 36.334 -4.16699 53.001 -12.5s31 -19.666 43 -33.999s21.5 -31 28.5 -50s10.5 -39.167 10.5 -60.5zM1114 1786
c0 -21.333 -3.66992 -41.333 -11.0029 -60s-17.333 -35 -30 -49s-27.334 -25 -44.001 -33s-34 -12 -52 -12s-35.333 4 -52 12s-31.167 19 -43.5 33s-22.166 30.333 -29.499 49s-11 38.667 -11 60s3.83301 41.5 11.5 60.5s17.834 35.667 30.501 50
s27.334 25.666 44.001 33.999s34 12.5 52 12.5c18.667 0 36.334 -4.16699 53.001 -12.5s31 -19.666 43 -33.999s21.5 -31 28.5 -50s10.5 -39.167 10.5 -60.5z" />
    <glyph glyph-name="multiply" unicode="&#xd7;" horiz-adv-x="1147" 
d="M92 302l328 321l-325 322l161 152l322 -325l335 335l138 -149l-328 -329l333 -342l-157 -153l-333 342l-328 -325z" />
    <glyph glyph-name="Oslash" unicode="&#xd8;" horiz-adv-x="1573" 
d="M72 717c0 57.333 6.50195 115.667 19.502 175s32.667 116.666 59 171.999s59.333 107.5 99 156.5s86.167 91.833 139.5 128.5s113.5 65.5 180.5 86.5s140.833 31.5 221.5 31.5c60 0 115.333 -5.5 166 -16.5s98 -26.5 142 -46.5l121 207l162 -101l-124 -210
c42 -38 78.5 -80.333 109.5 -127s56.5 -95.167 76.5 -145.5s34.833 -102 44.5 -155s14.5 -104.833 14.5 -155.5c0 -56.667 -6.5 -114.5 -19.5 -173.5s-32.667 -116.167 -59 -171.5s-59.333 -107.666 -99 -156.999s-86.167 -92.333 -139.5 -129s-113.333 -65.667 -180 -87
s-140.334 -32 -221.001 -32c-54 0 -104.333 4 -151 12s-90.334 19.667 -131.001 35l-127 -216l-152 102l118 202c-48 36.667 -89 78.667 -123 126s-61.833 97.666 -83.5 150.999s-37.667 108.833 -48 166.5s-15.5 114.834 -15.5 171.501zM394.002 741.001
c0 -31.333 1.5 -64.1689 4.5 -98.502s8 -68.666 15 -102.999s16 -68.5 27 -102.5s24.167 -66.333 39.5 -97l521 896c-30 26 -63.5 46 -100.5 60s-78.167 21 -123.5 21c-48.667 0 -91.834 -8.16699 -129.501 -24.5s-70.667 -38.666 -99 -66.999s-52.333 -61.5 -72 -99.5
s-35.667 -78.333 -48 -121s-21.166 -86.5 -26.499 -131.5s-8 -89.167 -8 -132.5zM1180 681.998c0 74 -5.00195 142.834 -15.002 206.501s-25.667 121.5 -47 173.5l-516 -879c28.667 -22 59.334 -38.5 92.001 -49.5s70 -16.5 112 -16.5c47.333 0 89.333 8.16699 126 24.5
s68.834 38.5 96.501 66.5s51.167 60.667 70.5 98s35 76.833 47 118.5s20.667 84.667 26 129s8 87.166 8 128.499z" />
    <glyph glyph-name="Ugrave" unicode="&#xd9;" horiz-adv-x="1557" 
d="M1361 608c0 -118 -14.4961 -217.674 -43.4961 -299.007s-69 -147.333 -120 -198s-111.333 -87.334 -181 -110.001s-145.5 -34 -227.5 -34c-77.333 0 -145.5 7.5 -204.5 22.5s-110.333 36.333 -154 64s-80.334 60.834 -110.001 99.501s-53.5 81.5 -71.5 128.5
s-30.833 97.5 -38.5 151.5s-11.5 110.333 -11.5 169v496c0 18.667 0.166992 37 0.5 55s0.833008 35.167 1.5 51.5s1.5 31.166 2.5 44.499s2.16699 24.333 3.5 33l-154 -6v158h589v-135c-23.333 -1.33301 -44 -3.66602 -62 -6.99902s-33.167 -10.666 -45.5 -21.999
s-21.833 -28.666 -28.5 -51.999s-10 -55.666 -10 -96.999v-563c0 -89.333 9.83301 -162.166 29.5 -218.499s45.5 -100.5 77.5 -132.5s68.5 -54 109.5 -66s82.833 -18 125.5 -18c53.333 0 101.166 9 143.499 27s78.166 45.167 107.499 81.5s51.666 82 66.999 137
s23 119.167 23 192.5v537c0 18.667 0.166992 37 0.5 55s0.833008 35.167 1.5 51.5s1.5 31.166 2.5 44.499s2.16699 24.333 3.5 33l-154 -6v158h474v-135c-23.333 -1.33301 -44 -3.66602 -62 -6.99902s-33.167 -10.666 -45.5 -21.999s-21.833 -28.666 -28.5 -51.999
s-10 -55.666 -10 -96.999v-513zM647.004 1744.99c-23.333 14 -43 32 -59 54s-24 45.667 -24 71c0 14.667 3 28.334 9 41.001s14 23.5 24 32.5s21.167 16.167 33.5 21.5s24.833 8 37.5 8c20.667 0 41.167 -4.83301 61.5 -14.5s38.5 -22.834 54.5 -39.501l235 -242l-73 -101z
" />
    <glyph glyph-name="Uacute" unicode="&#xda;" horiz-adv-x="1557" 
d="M1361 608c0 -118 -14.4961 -217.674 -43.4961 -299.007s-69 -147.333 -120 -198s-111.333 -87.334 -181 -110.001s-145.5 -34 -227.5 -34c-77.333 0 -145.5 7.5 -204.5 22.5s-110.333 36.333 -154 64s-80.334 60.834 -110.001 99.501s-53.5 81.5 -71.5 128.5
s-30.833 97.5 -38.5 151.5s-11.5 110.333 -11.5 169v496c0 18.667 0.166992 37 0.5 55s0.833008 35.167 1.5 51.5s1.5 31.166 2.5 44.499s2.16699 24.333 3.5 33l-154 -6v158h589v-135c-23.333 -1.33301 -44 -3.66602 -62 -6.99902s-33.167 -10.666 -45.5 -21.999
s-21.833 -28.666 -28.5 -51.999s-10 -55.666 -10 -96.999v-563c0 -89.333 9.83301 -162.166 29.5 -218.499s45.5 -100.5 77.5 -132.5s68.5 -54 109.5 -66s82.833 -18 125.5 -18c53.333 0 101.166 9 143.499 27s78.166 45.167 107.499 81.5s51.666 82 66.999 137
s23 119.167 23 192.5v537c0 18.667 0.166992 37 0.5 55s0.833008 35.167 1.5 51.5s1.5 31.166 2.5 44.499s2.16699 24.333 3.5 33l-154 -6v158h474v-135c-23.333 -1.33301 -44 -3.66602 -62 -6.99902s-33.167 -10.666 -45.5 -21.999s-21.833 -28.666 -28.5 -51.999
s-10 -55.666 -10 -96.999v-513zM753.004 1575.99l-73 100.998l235 242c16 16.667 34 29.834 54 39.501s40.333 14.5 61 14.5c12.667 0 25.167 -2.5 37.5 -7.5s23.5 -12.167 33.5 -21.5s18 -20.333 24 -33s9 -26.667 9 -42c0 -25.333 -7.83301 -48.666 -23.5 -69.999
s-35.167 -39.333 -58.5 -54z" />
    <glyph glyph-name="Ucircumflex" unicode="&#xdb;" horiz-adv-x="1557" 
d="M1361 608c0 -118 -14.4961 -217.674 -43.4961 -299.007s-69 -147.333 -120 -198s-111.333 -87.334 -181 -110.001s-145.5 -34 -227.5 -34c-77.333 0 -145.5 7.5 -204.5 22.5s-110.333 36.333 -154 64s-80.334 60.834 -110.001 99.501s-53.5 81.5 -71.5 128.5
s-30.833 97.5 -38.5 151.5s-11.5 110.333 -11.5 169v496c0 18.667 0.166992 37 0.5 55s0.833008 35.167 1.5 51.5s1.5 31.166 2.5 44.499s2.16699 24.333 3.5 33l-154 -6v158h589v-135c-23.333 -1.33301 -44 -3.66602 -62 -6.99902s-33.167 -10.666 -45.5 -21.999
s-21.833 -28.666 -28.5 -51.999s-10 -55.666 -10 -96.999v-563c0 -89.333 9.83301 -162.166 29.5 -218.499s45.5 -100.5 77.5 -132.5s68.5 -54 109.5 -66s82.833 -18 125.5 -18c53.333 0 101.166 9 143.499 27s78.166 45.167 107.499 81.5s51.666 82 66.999 137
s23 119.167 23 192.5v537c0 18.667 0.166992 37 0.5 55s0.833008 35.167 1.5 51.5s1.5 31.166 2.5 44.499s2.16699 24.333 3.5 33l-154 -6v158h474v-135c-23.333 -1.33301 -44 -3.66602 -62 -6.99902s-33.167 -10.666 -45.5 -21.999s-21.833 -28.666 -28.5 -51.999
s-10 -55.666 -10 -96.999v-513zM824.004 1987.99h40l400 -307l-64 -95l-365 178l-374 -175l-55 92z" />
    <glyph glyph-name="Udieresis" unicode="&#xdc;" horiz-adv-x="1557" 
d="M1361 608c0 -118 -14.4961 -217.674 -43.4961 -299.007s-69 -147.333 -120 -198s-111.333 -87.334 -181 -110.001s-145.5 -34 -227.5 -34c-77.333 0 -145.5 7.5 -204.5 22.5s-110.333 36.333 -154 64s-80.334 60.834 -110.001 99.501s-53.5 81.5 -71.5 128.5
s-30.833 97.5 -38.5 151.5s-11.5 110.333 -11.5 169v496c0 18.667 0.166992 37 0.5 55s0.833008 35.167 1.5 51.5s1.5 31.166 2.5 44.499s2.16699 24.333 3.5 33l-154 -6v158h589v-135c-23.333 -1.33301 -44 -3.66602 -62 -6.99902s-33.167 -10.666 -45.5 -21.999
s-21.833 -28.666 -28.5 -51.999s-10 -55.666 -10 -96.999v-563c0 -89.333 9.83301 -162.166 29.5 -218.499s45.5 -100.5 77.5 -132.5s68.5 -54 109.5 -66s82.833 -18 125.5 -18c53.333 0 101.166 9 143.499 27s78.166 45.167 107.499 81.5s51.666 82 66.999 137
s23 119.167 23 192.5v537c0 18.667 0.166992 37 0.5 55s0.833008 35.167 1.5 51.5s1.5 31.166 2.5 44.499s2.16699 24.333 3.5 33l-154 -6v158h474v-135c-23.333 -1.33301 -44 -3.66602 -62 -6.99902s-33.167 -10.666 -45.5 -21.999s-21.833 -28.666 -28.5 -51.999
s-10 -55.666 -10 -96.999v-513zM800.004 1785.99c0 -21.333 -3.66992 -41.333 -11.0029 -60s-17.333 -35 -30 -49s-27.334 -25 -44.001 -33s-34 -12 -52 -12s-35.333 4 -52 12s-31.167 19 -43.5 33s-22.166 30.333 -29.499 49s-11 38.667 -11 60s3.83301 41.5 11.5 60.5
s17.834 35.667 30.501 50s27.334 25.666 44.001 33.999s34 12.5 52 12.5c18.667 0 36.334 -4.16699 53.001 -12.5s31 -19.666 43 -33.999s21.5 -31 28.5 -50s10.5 -39.167 10.5 -60.5zM1157 1785.99c0 -21.333 -3.66992 -41.333 -11.0029 -60s-17.333 -35 -30 -49
s-27.334 -25 -44.001 -33s-34 -12 -52 -12s-35.333 4 -52 12s-31.167 19 -43.5 33s-22.166 30.333 -29.499 49s-11 38.667 -11 60s3.83301 41.5 11.5 60.5s17.834 35.667 30.501 50s27.334 25.666 44.001 33.999s34 12.5 52 12.5c18.667 0 36.334 -4.16699 53.001 -12.5
s31 -19.666 43 -33.999s21.5 -31 28.5 -50s10.5 -39.167 10.5 -60.5z" />
    <glyph glyph-name="Yacute" unicode="&#xdd;" horiz-adv-x="1365" 
d="M858 568l0.000976562 -232.002c0 -18.667 -0.166992 -37 -0.5 -55s-0.833008 -35.167 -1.5 -51.5s-1.5 -31.166 -2.5 -44.499s-2.16699 -24.333 -3.5 -33l164 6v-158h-598v135c22.667 0.666992 43.167 2.83398 61.5 6.50098s33.666 11.167 45.999 22.5
s21.833 28.666 28.5 51.999s10 55.666 10 96.999v179l-378 595c-10 16 -19.667 33 -29 51s-17.666 35.833 -24.999 53.5s-13.166 34.334 -17.499 50.001s-6.5 29.167 -6.5 40.5l-99 -6v158h603v-135c-4 0 -7.83301 0.166992 -11.5 0.5s-7.5 0.5 -11.5 0.5
c-38 0 -68 -6.83301 -90 -20.5s-33 -33.834 -33 -60.501c0.666992 -11.333 2.66699 -23.5 6 -36.5s9.66602 -26.833 18.999 -41.5l157 -257l21 -36c9.33301 -16 19.166 -33.5 29.499 -52.5s20.333 -38.167 30 -57.5s17.167 -36.333 22.5 -51h3
c6.66699 15.333 18 39.5 34 72.5s36.667 75.5 62 127.5l106 209c5.33301 10.667 12.333 24.334 21 41.001s18 34 28 52s20 35.333 30 52s19.667 30.334 29 41.001v2l-157 -8v158h452v-135c-24 -4 -45.833 -10.667 -65.5 -20s-38.5 -22.5 -56.5 -39.5
s-35.833 -38.5 -53.5 -64.5s-36.5 -57.667 -56.5 -95zM665.001 1576l-73 100.998l235 242c16 16.667 34 29.834 54 39.501s40.333 14.5 61 14.5c12.667 0 25.167 -2.5 37.5 -7.5s23.5 -12.167 33.5 -21.5s18 -20.333 24 -33s9 -26.667 9 -42
c0 -25.333 -7.83301 -48.666 -23.5 -69.999s-35.167 -39.333 -58.5 -54z" />
    <glyph glyph-name="Thorn" unicode="&#xde;" horiz-adv-x="1296" 
d="M677 311c-28 -1.33301 -51.9971 -2.16406 -71.9971 -2.49707s-40.333 -0.166016 -61 0.500977c-0.666992 -32.667 -1.66699 -63.167 -3 -91.5s-3 -50.166 -5 -65.499c40.667 2 92 4 154 6v-158h-588v135c22.667 1.33301 43.167 3.66602 61.5 6.99902
s33.666 10.666 45.999 21.999s21.833 28.666 28.5 51.999s10 55.666 10 96.999v785c0 18.667 0.166992 37 0.5 55s0.833008 35.167 1.5 51.5s1.5 31.166 2.5 44.499s2.16699 24.333 3.5 33l-154 -6v158h588v-135c-20.667 -1.33301 -39.334 -3.33301 -56.001 -6
s-31 -8.33398 -43 -17.001s-21.833 -21.334 -29.5 -38.001s-12.834 -40 -15.501 -70l123 2c90 0.666992 171.833 -6.16602 245.5 -20.499s136.834 -38.666 189.501 -72.999s92.834 -79.5 120.501 -135.5s40.5 -124.667 38.5 -206c-1.33301 -54.667 -14.5 -107 -39.5 -157
s-61.833 -94.333 -110.5 -133s-109.334 -70 -182.001 -94s-157.334 -37.333 -254.001 -40zM666.003 1025l-67.5 0.00292969c-19.667 0 -37.834 -0.333008 -54.501 -1v-563c12 -1.33301 24.333 -2.33301 37 -3s25.667 -1 39 -1c112.667 0 195.334 24.667 248.001 74
s79 123.666 79 222.999c0 44 -5 81.167 -15 111.5s-23 55.5 -39 75.5s-34.167 35.667 -54.5 47s-41 19.666 -62 24.999s-41.167 8.66602 -60.5 9.99902s-36 2 -50 2z" />
    <glyph glyph-name="germandbls" unicode="&#xdf;" horiz-adv-x="1579" 
d="M1277 909c-27.333 2 -54.3311 2.99902 -80.998 2.99902c-27.333 0 -53.333 -1.66699 -78 -5s-46.5 -9 -65.5 -17s-34.167 -19 -45.5 -33s-17 -31.667 -17 -53s4.33301 -39.166 13 -53.499s21.667 -27 39 -38s39.166 -21.5 65.499 -31.5s57.166 -21 92.499 -33
c52 -18 99.5 -38.167 142.5 -60.5s80 -48 111 -77s55 -62.167 72 -99.5s25.5 -80 25.5 -128c0 -53.333 -10 -99.833 -30 -139.5s-46.667 -72.5 -80 -98.5s-71.833 -45.5 -115.5 -58.5s-89.5 -19.5 -137.5 -19.5c-60 0 -110.833 7.5 -152.5 22.5s-78.5 34.5 -110.5 58.5h-2
l7 -62h-156l-8 352h132c2.66699 -31.333 10.5 -60.666 23.5 -87.999s31 -51 54 -71s51.167 -35.667 84.5 -47s72 -17 116 -17c14.667 0 29.667 2.16699 45 6.5s29.333 10.833 42 19.5s23.167 19.334 31.5 32.001s12.5 27.334 12.5 44.001
c0 19.333 -4.66699 36.166 -14 50.499s-23.333 27.833 -42 40.5s-42.334 25.167 -71.001 37.5s-62.334 26.166 -101.001 41.499c-42.667 16.667 -83.667 34 -123 52s-74.166 39.833 -104.499 65.5s-54.5 57 -72.5 94s-27 83.167 -27 138.5c0 34 4.83301 67.667 14.5 101
s24.834 64 45.501 92s47.5 52.333 80.5 73s72.5 35.667 118.5 45c0 74.667 -7.83301 134.667 -23.5 180s-35.5 80.166 -59.5 104.499s-50.333 40.333 -79 48s-55.667 11.5 -81 11.5c-32 0 -64 -5.33301 -96 -16s-60.833 -30.5 -86.5 -59.5s-46.5 -69.167 -62.5 -120.5
s-24 -117.666 -24 -198.999v-664c0 -10 -0.166992 -22.167 -0.5 -36.5s-0.833008 -29.833 -1.5 -46.5s-1.5 -33.667 -2.5 -51s-2.16699 -33.666 -3.5 -48.999l143 6v-156h-547v133c28.667 0 51.167 4.33301 67.5 13s28.5 21 36.5 37s13 35.167 15 57.5s3 47.166 3 74.499
v543l-148 -5v171h151c8 102 28 186.5 60 253.5s72.667 120.333 122 160s106 67.667 170 84s131.667 24.5 203 24.5c24 0 53.5 -1.66699 88.5 -5s71.667 -10.833 110 -22.5s76.333 -28.834 114 -51.501s71.667 -53.5 102 -92.5s54.833 -87.333 73.5 -145
s28 -127.167 28 -208.5c0 -34.667 -2 -72 -6 -112z" />
    <glyph glyph-name="agrave" unicode="&#xe0;" horiz-adv-x="1074" 
d="M631 471c-38.667 -4 -75.001 -11 -109.001 -21s-63.5 -23.167 -88.5 -39.5s-44.667 -35.833 -59 -58.5s-21.5 -48.667 -21.5 -78c0.666992 -19.333 4.33398 -35.666 11.001 -48.999s15.167 -24.333 25.5 -33s22.333 -15 36 -19s27.834 -6 42.501 -6
c32 0 61.667 6.66699 89 20s51.666 31.666 72.999 54.999zM105.999 787c0 40 11.168 76.667 33.501 110s53 61.833 92 85.5s84.833 42 137.5 55s109 19.5 169 19.5s113.5 -7.66699 160.5 -23s86.667 -39 119 -71s57 -72.667 74 -122s25.5 -108 25.5 -176
c0 -34.667 -0.166992 -65.167 -0.5 -91.5s-0.5 -51.666 -0.5 -75.999s-0.166992 -49.833 -0.5 -76.5s-0.5 -57.334 -0.5 -92.001c0 -10 -0.166992 -22 -0.5 -36s-0.666016 -29 -0.999023 -45s-1 -32.5 -2 -49.5s-2.16699 -33.167 -3.5 -48.5l132 6v-156h-387
c-2.66699 19.333 -4.5 35.5 -5.5 48.5s-1.83301 28.167 -2.5 45.5h-2c-46.667 -46.667 -95.334 -79.5 -146.001 -98.5s-103 -28.5 -157 -28.5c-44 0 -83.333 6.83301 -118 20.5s-63.834 32.834 -87.501 57.501s-41.834 53.5 -54.501 86.5s-19 69.167 -19 108.5
c0 43.333 7.66699 82.333 23 117s36.5 65.667 63.5 93s58.833 51 95.5 71s76.167 36.667 118.5 50s86.5 23.666 132.5 30.999s92 12 138 14v107c0 27.333 -2.33301 52.5 -7 75.5s-12.667 42.833 -24 59.5s-26.333 29.667 -45 39s-42 13.666 -70 12.999
c-28 -1.33301 -54 -7 -78 -17s-44.667 -24 -62 -42c10.667 -11.333 17.5 -24.333 20.5 -39s4.5 -27 4.5 -37c0 -14.667 -2.66699 -29.5 -8 -44.5s-13.666 -28.667 -24.999 -41s-25.666 -22.5 -42.999 -30.5s-38 -12 -62 -12c-20 0.666992 -38 4.83398 -54 12.501
s-29.333 17.667 -40 30s-18.834 26.833 -24.501 43.5s-8.5 34.667 -8.5 54zM295 1374c-16 15.333 -28.9971 33.5039 -38.9971 54.5039s-15 42.167 -15 63.5c0 13.333 2.66699 26.666 8 39.999s12.666 25.166 21.999 35.499s20.666 18.666 33.999 24.999
s27.666 9.5 42.999 9.5c23.333 0 46 -6.83301 68 -20.5s40 -31.834 54 -54.501l168 -286l-94 -83z" />
    <glyph glyph-name="aacute" unicode="&#xe1;" horiz-adv-x="1074" 
d="M631 471c-38.667 -4 -75.001 -11 -109.001 -21s-63.5 -23.167 -88.5 -39.5s-44.667 -35.833 -59 -58.5s-21.5 -48.667 -21.5 -78c0.666992 -19.333 4.33398 -35.666 11.001 -48.999s15.167 -24.333 25.5 -33s22.333 -15 36 -19s27.834 -6 42.501 -6
c32 0 61.667 6.66699 89 20s51.666 31.666 72.999 54.999zM105.999 787c0 40 11.168 76.667 33.501 110s53 61.833 92 85.5s84.833 42 137.5 55s109 19.5 169 19.5s113.5 -7.66699 160.5 -23s86.667 -39 119 -71s57 -72.667 74 -122s25.5 -108 25.5 -176
c0 -34.667 -0.166992 -65.167 -0.5 -91.5s-0.5 -51.666 -0.5 -75.999s-0.166992 -49.833 -0.5 -76.5s-0.5 -57.334 -0.5 -92.001c0 -10 -0.166992 -22 -0.5 -36s-0.666016 -29 -0.999023 -45s-1 -32.5 -2 -49.5s-2.16699 -33.167 -3.5 -48.5l132 6v-156h-387
c-2.66699 19.333 -4.5 35.5 -5.5 48.5s-1.83301 28.167 -2.5 45.5h-2c-46.667 -46.667 -95.334 -79.5 -146.001 -98.5s-103 -28.5 -157 -28.5c-44 0 -83.333 6.83301 -118 20.5s-63.834 32.834 -87.501 57.501s-41.834 53.5 -54.501 86.5s-19 69.167 -19 108.5
c0 43.333 7.66699 82.333 23 117s36.5 65.667 63.5 93s58.833 51 95.5 71s76.167 36.667 118.5 50s86.5 23.666 132.5 30.999s92 12 138 14v107c0 27.333 -2.33301 52.5 -7 75.5s-12.667 42.833 -24 59.5s-26.333 29.667 -45 39s-42 13.666 -70 12.999
c-28 -1.33301 -54 -7 -78 -17s-44.667 -24 -62 -42c10.667 -11.333 17.5 -24.333 20.5 -39s4.5 -27 4.5 -37c0 -14.667 -2.66699 -29.5 -8 -44.5s-13.666 -28.667 -24.999 -41s-25.666 -22.5 -42.999 -30.5s-38 -12 -62 -12c-20 0.666992 -38 4.83398 -54 12.501
s-29.333 17.667 -40 30s-18.834 26.833 -24.501 43.5s-8.5 34.667 -8.5 54zM450 1158l-94 82.9961l168 286c14 22.667 31.833 40.834 53.5 54.501s44.167 20.5 67.5 20.5c16 0 30.5 -3.16699 43.5 -9.5s24.333 -14.666 34 -24.999s17.167 -22.166 22.5 -35.499
s8 -26.666 8 -39.999c0 -21.333 -5 -42.5 -15 -63.5s-23 -39.167 -39 -54.5z" />
    <glyph glyph-name="acircumflex" unicode="&#xe2;" horiz-adv-x="1074" 
d="M631 471c-38.667 -4 -75.001 -11 -109.001 -21s-63.5 -23.167 -88.5 -39.5s-44.667 -35.833 -59 -58.5s-21.5 -48.667 -21.5 -78c0.666992 -19.333 4.33398 -35.666 11.001 -48.999s15.167 -24.333 25.5 -33s22.333 -15 36 -19s27.834 -6 42.501 -6
c32 0 61.667 6.66699 89 20s51.666 31.666 72.999 54.999zM105.999 787c0 40 11.168 76.667 33.501 110s53 61.833 92 85.5s84.833 42 137.5 55s109 19.5 169 19.5s113.5 -7.66699 160.5 -23s86.667 -39 119 -71s57 -72.667 74 -122s25.5 -108 25.5 -176
c0 -34.667 -0.166992 -65.167 -0.5 -91.5s-0.5 -51.666 -0.5 -75.999s-0.166992 -49.833 -0.5 -76.5s-0.5 -57.334 -0.5 -92.001c0 -10 -0.166992 -22 -0.5 -36s-0.666016 -29 -0.999023 -45s-1 -32.5 -2 -49.5s-2.16699 -33.167 -3.5 -48.5l132 6v-156h-387
c-2.66699 19.333 -4.5 35.5 -5.5 48.5s-1.83301 28.167 -2.5 45.5h-2c-46.667 -46.667 -95.334 -79.5 -146.001 -98.5s-103 -28.5 -157 -28.5c-44 0 -83.333 6.83301 -118 20.5s-63.834 32.834 -87.501 57.501s-41.834 53.5 -54.501 86.5s-19 69.167 -19 108.5
c0 43.333 7.66699 82.333 23 117s36.5 65.667 63.5 93s58.833 51 95.5 71s76.167 36.667 118.5 50s86.5 23.666 132.5 30.999s92 12 138 14v107c0 27.333 -2.33301 52.5 -7 75.5s-12.667 42.833 -24 59.5s-26.333 29.667 -45 39s-42 13.666 -70 12.999
c-28 -1.33301 -54 -7 -78 -17s-44.667 -24 -62 -42c10.667 -11.333 17.5 -24.333 20.5 -39s4.5 -27 4.5 -37c0 -14.667 -2.66699 -29.5 -8 -44.5s-13.666 -28.667 -24.999 -41s-25.666 -22.5 -42.999 -30.5s-38 -12 -62 -12c-20 0.666992 -38 4.83398 -54 12.501
s-29.333 17.667 -40 30s-18.834 26.833 -24.501 43.5s-8.5 34.667 -8.5 54zM513 1603h21l328 -347l-88 -105l-261 214h-2l-262 -199l-86 98z" />
    <glyph glyph-name="atilde" unicode="&#xe3;" horiz-adv-x="1074" 
d="M631 471c-38.667 -4 -75.001 -11 -109.001 -21s-63.5 -23.167 -88.5 -39.5s-44.667 -35.833 -59 -58.5s-21.5 -48.667 -21.5 -78c0.666992 -19.333 4.33398 -35.666 11.001 -48.999s15.167 -24.333 25.5 -33s22.333 -15 36 -19s27.834 -6 42.501 -6
c32 0 61.667 6.66699 89 20s51.666 31.666 72.999 54.999zM105.999 787c0 40 11.168 76.667 33.501 110s53 61.833 92 85.5s84.833 42 137.5 55s109 19.5 169 19.5s113.5 -7.66699 160.5 -23s86.667 -39 119 -71s57 -72.667 74 -122s25.5 -108 25.5 -176
c0 -34.667 -0.166992 -65.167 -0.5 -91.5s-0.5 -51.666 -0.5 -75.999s-0.166992 -49.833 -0.5 -76.5s-0.5 -57.334 -0.5 -92.001c0 -10 -0.166992 -22 -0.5 -36s-0.666016 -29 -0.999023 -45s-1 -32.5 -2 -49.5s-2.16699 -33.167 -3.5 -48.5l132 6v-156h-387
c-2.66699 19.333 -4.5 35.5 -5.5 48.5s-1.83301 28.167 -2.5 45.5h-2c-46.667 -46.667 -95.334 -79.5 -146.001 -98.5s-103 -28.5 -157 -28.5c-44 0 -83.333 6.83301 -118 20.5s-63.834 32.834 -87.501 57.501s-41.834 53.5 -54.501 86.5s-19 69.167 -19 108.5
c0 43.333 7.66699 82.333 23 117s36.5 65.667 63.5 93s58.833 51 95.5 71s76.167 36.667 118.5 50s86.5 23.666 132.5 30.999s92 12 138 14v107c0 27.333 -2.33301 52.5 -7 75.5s-12.667 42.833 -24 59.5s-26.333 29.667 -45 39s-42 13.666 -70 12.999
c-28 -1.33301 -54 -7 -78 -17s-44.667 -24 -62 -42c10.667 -11.333 17.5 -24.333 20.5 -39s4.5 -27 4.5 -37c0 -14.667 -2.66699 -29.5 -8 -44.5s-13.666 -28.667 -24.999 -41s-25.666 -22.5 -42.999 -30.5s-38 -12 -62 -12c-20 0.666992 -38 4.83398 -54 12.501
s-29.333 17.667 -40 30s-18.834 26.833 -24.501 43.5s-8.5 34.667 -8.5 54zM386 1322c-8 0 -17.168 -1.33301 -27.501 -4s-21.166 -7.16699 -32.499 -13.5s-22.833 -14.833 -34.5 -25.5s-22.834 -24 -33.501 -40l-114 68c10.667 30.667 25 59 43 85s37.667 48.167 59 66.5
s43.833 32.666 67.5 42.999s46.834 15.5 69.501 15.5c32 0 58.333 -4 79 -12s39.667 -17 57 -27s34.5 -19 51.5 -27s37.833 -12 62.5 -12c24 0 46.833 9.16699 68.5 27.5s41.167 43.5 58.5 75.5l116 -59c-14 -42.667 -30.667 -79.167 -50 -109.5s-40 -55.166 -62 -74.499
s-44.333 -33.5 -67 -42.5s-44 -13.5 -64 -13.5c-27.333 0 -51.833 4.16699 -73.5 12.5s-42 17.333 -61 27s-37.5 18.667 -55.5 27s-37 12.5 -57 12.5z" />
    <glyph glyph-name="adieresis" unicode="&#xe4;" horiz-adv-x="1074" 
d="M631 471c-38.667 -4 -75.001 -11 -109.001 -21s-63.5 -23.167 -88.5 -39.5s-44.667 -35.833 -59 -58.5s-21.5 -48.667 -21.5 -78c0.666992 -19.333 4.33398 -35.666 11.001 -48.999s15.167 -24.333 25.5 -33s22.333 -15 36 -19s27.834 -6 42.501 -6
c32 0 61.667 6.66699 89 20s51.666 31.666 72.999 54.999zM105.999 787c0 40 11.168 76.667 33.501 110s53 61.833 92 85.5s84.833 42 137.5 55s109 19.5 169 19.5s113.5 -7.66699 160.5 -23s86.667 -39 119 -71s57 -72.667 74 -122s25.5 -108 25.5 -176
c0 -34.667 -0.166992 -65.167 -0.5 -91.5s-0.5 -51.666 -0.5 -75.999s-0.166992 -49.833 -0.5 -76.5s-0.5 -57.334 -0.5 -92.001c0 -10 -0.166992 -22 -0.5 -36s-0.666016 -29 -0.999023 -45s-1 -32.5 -2 -49.5s-2.16699 -33.167 -3.5 -48.5l132 6v-156h-387
c-2.66699 19.333 -4.5 35.5 -5.5 48.5s-1.83301 28.167 -2.5 45.5h-2c-46.667 -46.667 -95.334 -79.5 -146.001 -98.5s-103 -28.5 -157 -28.5c-44 0 -83.333 6.83301 -118 20.5s-63.834 32.834 -87.501 57.501s-41.834 53.5 -54.501 86.5s-19 69.167 -19 108.5
c0 43.333 7.66699 82.333 23 117s36.5 65.667 63.5 93s58.833 51 95.5 71s76.167 36.667 118.5 50s86.5 23.666 132.5 30.999s92 12 138 14v107c0 27.333 -2.33301 52.5 -7 75.5s-12.667 42.833 -24 59.5s-26.333 29.667 -45 39s-42 13.666 -70 12.999
c-28 -1.33301 -54 -7 -78 -17s-44.667 -24 -62 -42c10.667 -11.333 17.5 -24.333 20.5 -39s4.5 -27 4.5 -37c0 -14.667 -2.66699 -29.5 -8 -44.5s-13.666 -28.667 -24.999 -41s-25.666 -22.5 -42.999 -30.5s-38 -12 -62 -12c-20 0.666992 -38 4.83398 -54 12.501
s-29.333 17.667 -40 30s-18.834 26.833 -24.501 43.5s-8.5 34.667 -8.5 54zM466 1382c0 -21.333 -3.6709 -41.333 -11.0039 -60s-17.166 -35 -29.499 -49s-26.833 -25 -43.5 -33s-34 -12 -52 -12c-18.667 0 -36.167 4 -52.5 12s-30.666 19 -42.999 33
s-22.166 30.333 -29.499 49s-11 38.667 -11 60s3.66699 41.5 11 60.5s17.333 35.5 30 49.5s27.334 25.167 44.001 33.5s34 12.5 52 12.5c19.333 0 37.333 -4.16699 54 -12.5s31 -19.5 43 -33.5s21.333 -30.5 28 -49.5s10 -39.167 10 -60.5zM821.996 1382
c0 -21.333 -3.6709 -41.333 -11.0039 -60s-17.166 -35 -29.499 -49s-26.833 -25 -43.5 -33s-34 -12 -52 -12c-18.667 0 -36.167 4 -52.5 12s-30.666 19 -42.999 33s-22.166 30.333 -29.499 49s-11 38.667 -11 60s3.66699 41.5 11 60.5s17.333 35.5 30 49.5
s27.334 25.167 44.001 33.5s34 12.5 52 12.5c19.333 0 37.333 -4.16699 54 -12.5s31 -19.5 43 -33.5s21.333 -30.5 28 -49.5s10 -39.167 10 -60.5z" />
    <glyph glyph-name="aring" unicode="&#xe5;" horiz-adv-x="1074" 
d="M631 471c-38.667 -4 -75.001 -11 -109.001 -21s-63.5 -23.167 -88.5 -39.5s-44.667 -35.833 -59 -58.5s-21.5 -48.667 -21.5 -78c0.666992 -19.333 4.33398 -35.666 11.001 -48.999s15.167 -24.333 25.5 -33s22.333 -15 36 -19s27.834 -6 42.501 -6
c32 0 61.667 6.66699 89 20s51.666 31.666 72.999 54.999zM105.999 787c0 40 11.168 76.667 33.501 110s53 61.833 92 85.5s84.833 42 137.5 55s109 19.5 169 19.5s113.5 -7.66699 160.5 -23s86.667 -39 119 -71s57 -72.667 74 -122s25.5 -108 25.5 -176
c0 -34.667 -0.166992 -65.167 -0.5 -91.5s-0.5 -51.666 -0.5 -75.999s-0.166992 -49.833 -0.5 -76.5s-0.5 -57.334 -0.5 -92.001c0 -10 -0.166992 -22 -0.5 -36s-0.666016 -29 -0.999023 -45s-1 -32.5 -2 -49.5s-2.16699 -33.167 -3.5 -48.5l132 6v-156h-387
c-2.66699 19.333 -4.5 35.5 -5.5 48.5s-1.83301 28.167 -2.5 45.5h-2c-46.667 -46.667 -95.334 -79.5 -146.001 -98.5s-103 -28.5 -157 -28.5c-44 0 -83.333 6.83301 -118 20.5s-63.834 32.834 -87.501 57.501s-41.834 53.5 -54.501 86.5s-19 69.167 -19 108.5
c0 43.333 7.66699 82.333 23 117s36.5 65.667 63.5 93s58.833 51 95.5 71s76.167 36.667 118.5 50s86.5 23.666 132.5 30.999s92 12 138 14v107c0 27.333 -2.33301 52.5 -7 75.5s-12.667 42.833 -24 59.5s-26.333 29.667 -45 39s-42 13.666 -70 12.999
c-28 -1.33301 -54 -7 -78 -17s-44.667 -24 -62 -42c10.667 -11.333 17.5 -24.333 20.5 -39s4.5 -27 4.5 -37c0 -14.667 -2.66699 -29.5 -8 -44.5s-13.666 -28.667 -24.999 -41s-25.666 -22.5 -42.999 -30.5s-38 -12 -62 -12c-20 0.666992 -38 4.83398 -54 12.501
s-29.333 17.667 -40 30s-18.834 26.833 -24.501 43.5s-8.5 34.667 -8.5 54zM523 1505c-17.333 -0.666992 -33.333 -8.66797 -48 -24.001s-22 -40.333 -22 -75c0 -43.333 7.83301 -75.5 23.5 -96.5s35.5 -31.5 59.5 -31.5c17.333 0 33 8.33301 47 25s21 41 21 73
c0 46.667 -8 79.834 -24 99.501s-35 29.5 -57 29.5zM524 1628c28.667 0 57.502 -4.66797 86.502 -14.001s55 -23.5 78 -42.5s41.833 -43 56.5 -72s22 -63.167 22 -102.5c0 -37.333 -7 -71.166 -21 -101.499s-32.5 -56 -55.5 -77s-48.833 -37.167 -77.5 -48.5
s-57.334 -17 -86.001 -17c-29.333 0 -58.5 5.16699 -87.5 15.5s-55 25.5 -78 45.5s-41.833 44.667 -56.5 74s-22 63 -22 101c0 34 6.66699 65.5 20 94.5s31.166 54.333 53.499 76s48 38.5 77 50.5s59.167 18 90.5 18z" />
    <glyph glyph-name="ae" unicode="&#xe6;" horiz-adv-x="1577" 
d="M343 -33c-44 0 -83.498 6.83203 -118.498 20.499s-64.667 32.834 -89 57.501s-43 53.5 -56 86.5s-19.5 69.167 -19.5 108.5c0 43.333 7.83301 82.5 23.5 117.5s37.167 66 64.5 93s59.333 50.5 96 70.5s76.167 36.667 118.5 50s86.666 23.666 132.999 30.999
s92.166 12 137.499 14v111c0 27.333 -2.66699 52.333 -8 75s-13.666 42 -24.999 58s-26 28.5 -44 37.5s-39.667 13.5 -65 13.5c-28 -1.33301 -55 -6.16602 -81 -14.499s-47.667 -21.5 -65 -39.5c10.667 -11.333 17.5 -25.333 20.5 -42s4.5 -30 4.5 -40
c0 -14.667 -2.66699 -29.5 -8 -44.5s-13.666 -28.667 -24.999 -41s-25.666 -22.5 -42.999 -30.5s-38 -12 -62 -12c-20 0.666992 -38 4.83398 -54 12.501s-29.333 17.667 -40 30s-18.834 26.833 -24.501 43.5s-8.5 34.667 -8.5 54c0 38 10.5 73.333 31.5 106
s50.167 61.167 87.5 85.5s81.5 43.5 132.5 57.5s106.5 21 166.5 21c70 0 128.833 -12.833 176.5 -38.5s80.834 -70.5 99.501 -134.5h2c18.667 31.333 38.667 58 60 80s45 39.833 71 53.5s54.667 23.667 86 30s66.666 9.5 105.999 9.5
c46 -0.666992 91.167 -9.83398 135.5 -27.501s84 -46.334 119 -86.001s63.333 -91.5 85 -155.5s32.5 -143 32.5 -237l-581 -12c0 -56 3.66699 -107.833 11 -155.5s20.333 -88.667 39 -123s44 -61.333 76 -81s73 -29.5 123 -29.5c20.667 0 42.5 2.66699 65.5 8
s46.5 14 70.5 26s48.333 27.833 73 47.5s48.667 43.834 72 72.501l92 -87c-36.667 -52.667 -74.334 -95.334 -113.001 -128.001s-77.167 -58 -115.5 -76s-76.166 -30.167 -113.499 -36.5s-73.333 -9.5 -108 -9.5c-38 0 -73.333 4.66699 -106 14s-62.667 21.833 -90 37.5
s-52 33.834 -74 54.501s-41.667 42.667 -59 66c-31.333 -36 -64.333 -65.167 -99 -87.5s-69.834 -39.833 -105.501 -52.5s-71.334 -21.167 -107.001 -25.5s-70.167 -6.5 -103.5 -6.5zM632.002 470.999c-39.333 -4 -75.998 -11 -109.998 -21s-63.833 -23.167 -89.5 -39.5
s-45.834 -35.833 -60.501 -58.5s-22 -48.667 -22 -78c0.666992 -19.333 4.66699 -35.666 12 -48.999s16.833 -24.333 28.5 -33s24.667 -15 39 -19s28.833 -6 43.5 -6c32 0 62.5 7.16699 91.5 21.5s54.167 33.166 75.5 56.499c-3.33301 40 -5.33301 78.5 -6 115.5
s-1.33398 73.833 -2.00098 110.5zM1090 910.999c-28 0 -51.6641 -6.16699 -70.9971 -18.5s-35.333 -29 -48 -50s-22.334 -45.333 -29.001 -73s-11.334 -56.5 -14.001 -86.5h297c-1.33301 42 -6 77.5 -14 106.5s-18.167 52.5 -30.5 70.5s-26.333 31 -42 39
s-31.834 12 -48.501 12z" />
    <glyph glyph-name="ccedilla" unicode="&#xe7;" horiz-adv-x="1065" 
d="M642 -109c20.667 -0.666992 40.1719 -3.83398 58.5049 -9.50098s34.166 -14.334 47.499 -26.001s23.833 -26.334 31.5 -44.001s11.5 -38.834 11.5 -63.501c0 -32 -7.83301 -60.5 -23.5 -85.5s-36.334 -47.167 -62.001 -66.5s-55 -36.166 -88 -50.499
s-66.667 -26.5 -101 -36.5s-68.166 -18.167 -101.499 -24.5s-63 -11.166 -89 -14.499l-16 106c10.667 2 24.167 4.66699 40.5 8s33.666 7.5 51.999 12.5s36.666 10.833 54.999 17.5s34.833 14.5 49.5 23.5s26.5 19.167 35.5 30.5s13.5 24 13.5 38
c0 18 -5.66699 30.667 -17 38s-24.666 11 -39.999 11s-30.5 -2.66699 -45.5 -8s-27.167 -11.666 -36.5 -18.999l-76 32l57 235c-48.667 15.333 -93.334 37.5 -134.001 66.5s-75.834 64.5 -105.501 106.5s-52.667 90 -69 144s-24.5 113.333 -24.5 178
c0 76.667 13 149.5 39 218.5s62.333 129.167 109 180.5s102.667 92.166 168 122.499s137.666 45.5 216.999 45.5c64.667 0 121.667 -8 171 -24s90.5 -37 123.5 -63s57.833 -55.833 74.5 -89.5s25 -68.5 25 -104.5c0 -20.667 -3.16699 -40.334 -9.5 -59.001
s-15.666 -35 -27.999 -49s-27.5 -25 -45.5 -33s-38.333 -12 -61 -12c-25.333 0 -46.333 4.33301 -63 13s-30.334 19.5 -41.001 32.5s-18.167 27.333 -22.5 43s-6.5 30.5 -6.5 44.5c0 12 2 26.5 6 43.5s10.333 32.167 19 45.5c-7.33301 13.333 -16.833 24.333 -28.5 33
s-24 15.667 -37 21s-26 9 -39 11s-24.5 3 -34.5 3c-34.667 0 -66.334 -7.83301 -95.001 -23.5s-53.5 -39 -74.5 -70s-37.333 -69.167 -49 -114.5s-17.5 -97.666 -17.5 -156.999c0 -52 4.83301 -102 14.5 -150s25.5 -90.333 47.5 -127s51 -66 87 -88s80.333 -33 133 -33
c27.333 0 54.833 3.83301 82.5 11.5s54.167 18.334 79.5 32.001s49.5 30.167 72.5 49.5s43.5 40.666 61.5 63.999l94 -91c-37.333 -51.333 -75.833 -93.166 -115.5 -125.499s-79.334 -57.5 -119.001 -75.5s-79.167 -30.333 -118.5 -37s-77.666 -10 -114.999 -10
c-5.33301 0 -10.166 0.166992 -14.499 0.5s-8.83301 0.5 -13.5 0.5l-41 -110h2c8.66699 4.66699 19 9 31 13s24.5 7.33301 37.5 10s25.667 4.83398 38 6.50098s23.5 2.5 33.5 2.5z" />
    <glyph glyph-name="egrave" unicode="&#xe8;" horiz-adv-x="1103" 
d="M585 913c-30 0 -56.833 -5.66602 -80.5 -16.999s-44.167 -27 -61.5 -47s-31.5 -44.167 -42.5 -72.5s-18.833 -59.5 -23.5 -93.5h377c-1.33301 42 -6.33301 77.667 -15 107s-20.5 53.166 -35.5 71.499s-32.5 31.5 -52.5 39.5s-42 12 -66 12zM1037 551.001l-672.998 -12
c0 -56 5.16699 -107.833 15.5 -155.5s26.833 -88.667 49.5 -123s52.334 -61.333 89.001 -81s81.667 -29.5 135 -29.5c20.667 0 43.667 2.66699 69 8s51.166 14 77.499 26s52.833 27.833 79.5 47.5s51.667 43.834 75 72.501l92 -87
c-36.667 -52.667 -75.667 -95.334 -117 -128.001s-82.833 -58 -124.5 -76s-82.667 -30.167 -123 -36.5s-77.833 -9.5 -112.5 -9.5c-75.333 0 -144 12.667 -206 38s-115.333 61.666 -160 108.999s-79.167 104.333 -103.5 171s-36.5 141.667 -36.5 225
c0 72 12.167 140.833 36.5 206.5s58.833 123.834 103.5 174.501s98.5 91 161.5 121s133.167 45 210.5 45c38 0 75.833 -3.33301 113.5 -10s73.667 -17.834 108 -33.501s66.333 -36.167 96 -61.5s55.167 -56.666 76.5 -93.999s38.166 -81.333 50.499 -132
s18.166 -109 17.499 -175zM324.002 1374c-16 15.333 -28.9971 33.5039 -38.9971 54.5039s-15 42.167 -15 63.5c0 13.333 2.66699 26.666 8 39.999s12.666 25.166 21.999 35.499s20.666 18.666 33.999 24.999s27.666 9.5 42.999 9.5c23.333 0 46 -6.83301 68 -20.5
s40 -31.834 54 -54.501l168 -286l-94 -83z" />
    <glyph glyph-name="eacute" unicode="&#xe9;" horiz-adv-x="1103" 
d="M585 913c-30 0 -56.833 -5.66602 -80.5 -16.999s-44.167 -27 -61.5 -47s-31.5 -44.167 -42.5 -72.5s-18.833 -59.5 -23.5 -93.5h377c-1.33301 42 -6.33301 77.667 -15 107s-20.5 53.166 -35.5 71.499s-32.5 31.5 -52.5 39.5s-42 12 -66 12zM1037 551.001l-672.998 -12
c0 -56 5.16699 -107.833 15.5 -155.5s26.833 -88.667 49.5 -123s52.334 -61.333 89.001 -81s81.667 -29.5 135 -29.5c20.667 0 43.667 2.66699 69 8s51.166 14 77.499 26s52.833 27.833 79.5 47.5s51.667 43.834 75 72.501l92 -87
c-36.667 -52.667 -75.667 -95.334 -117 -128.001s-82.833 -58 -124.5 -76s-82.667 -30.167 -123 -36.5s-77.833 -9.5 -112.5 -9.5c-75.333 0 -144 12.667 -206 38s-115.333 61.666 -160 108.999s-79.167 104.333 -103.5 171s-36.5 141.667 -36.5 225
c0 72 12.167 140.833 36.5 206.5s58.833 123.834 103.5 174.501s98.5 91 161.5 121s133.167 45 210.5 45c38 0 75.833 -3.33301 113.5 -10s73.667 -17.834 108 -33.501s66.333 -36.167 96 -61.5s55.167 -56.666 76.5 -93.999s38.166 -81.333 50.499 -132
s18.166 -109 17.499 -175zM516.002 1158l-94 82.9961l168 286c14 22.667 31.833 40.834 53.5 54.501s44.167 20.5 67.5 20.5c16 0 30.5 -3.16699 43.5 -9.5s24.333 -14.666 34 -24.999s17.167 -22.166 22.5 -35.499s8 -26.666 8 -39.999c0 -21.333 -5 -42.5 -15 -63.5
s-23 -39.167 -39 -54.5z" />
    <glyph glyph-name="ecircumflex" unicode="&#xea;" horiz-adv-x="1103" 
d="M585 913c-30 0 -56.833 -5.66602 -80.5 -16.999s-44.167 -27 -61.5 -47s-31.5 -44.167 -42.5 -72.5s-18.833 -59.5 -23.5 -93.5h377c-1.33301 42 -6.33301 77.667 -15 107s-20.5 53.166 -35.5 71.499s-32.5 31.5 -52.5 39.5s-42 12 -66 12zM1037 551.001l-672.998 -12
c0 -56 5.16699 -107.833 15.5 -155.5s26.833 -88.667 49.5 -123s52.334 -61.333 89.001 -81s81.667 -29.5 135 -29.5c20.667 0 43.667 2.66699 69 8s51.166 14 77.499 26s52.833 27.833 79.5 47.5s51.667 43.834 75 72.501l92 -87
c-36.667 -52.667 -75.667 -95.334 -117 -128.001s-82.833 -58 -124.5 -76s-82.667 -30.167 -123 -36.5s-77.833 -9.5 -112.5 -9.5c-75.333 0 -144 12.667 -206 38s-115.333 61.666 -160 108.999s-79.167 104.333 -103.5 171s-36.5 141.667 -36.5 225
c0 72 12.167 140.833 36.5 206.5s58.833 123.834 103.5 174.501s98.5 91 161.5 121s133.167 45 210.5 45c38 0 75.833 -3.33301 113.5 -10s73.667 -17.834 108 -33.501s66.333 -36.167 96 -61.5s55.167 -56.666 76.5 -93.999s38.166 -81.333 50.499 -132
s18.166 -109 17.499 -175zM579.002 1603h21l328 -347l-88 -105l-261 214h-2l-262 -199l-86 98z" />
    <glyph glyph-name="edieresis" unicode="&#xeb;" horiz-adv-x="1103" 
d="M585 913c-30 0 -56.833 -5.66602 -80.5 -16.999s-44.167 -27 -61.5 -47s-31.5 -44.167 -42.5 -72.5s-18.833 -59.5 -23.5 -93.5h377c-1.33301 42 -6.33301 77.667 -15 107s-20.5 53.166 -35.5 71.499s-32.5 31.5 -52.5 39.5s-42 12 -66 12zM1037 551.001l-672.998 -12
c0 -56 5.16699 -107.833 15.5 -155.5s26.833 -88.667 49.5 -123s52.334 -61.333 89.001 -81s81.667 -29.5 135 -29.5c20.667 0 43.667 2.66699 69 8s51.166 14 77.499 26s52.833 27.833 79.5 47.5s51.667 43.834 75 72.501l92 -87
c-36.667 -52.667 -75.667 -95.334 -117 -128.001s-82.833 -58 -124.5 -76s-82.667 -30.167 -123 -36.5s-77.833 -9.5 -112.5 -9.5c-75.333 0 -144 12.667 -206 38s-115.333 61.666 -160 108.999s-79.167 104.333 -103.5 171s-36.5 141.667 -36.5 225
c0 72 12.167 140.833 36.5 206.5s58.833 123.834 103.5 174.501s98.5 91 161.5 121s133.167 45 210.5 45c38 0 75.833 -3.33301 113.5 -10s73.667 -17.834 108 -33.501s66.333 -36.167 96 -61.5s55.167 -56.666 76.5 -93.999s38.166 -81.333 50.499 -132
s18.166 -109 17.499 -175zM542.002 1382c0 -21.333 -3.6709 -41.333 -11.0039 -60s-17.166 -35 -29.499 -49s-26.833 -25 -43.5 -33s-34 -12 -52 -12c-18.667 0 -36.167 4 -52.5 12s-30.666 19 -42.999 33s-22.166 30.333 -29.499 49s-11 38.667 -11 60
s3.66699 41.5 11 60.5s17.333 35.5 30 49.5s27.334 25.167 44.001 33.5s34 12.5 52 12.5c19.333 0 37.333 -4.16699 54 -12.5s31 -19.5 43 -33.5s21.333 -30.5 28 -49.5s10 -39.167 10 -60.5zM897.998 1382c0 -21.333 -3.6709 -41.333 -11.0039 -60s-17.166 -35 -29.499 -49
s-26.833 -25 -43.5 -33s-34 -12 -52 -12c-18.667 0 -36.167 4 -52.5 12s-30.666 19 -42.999 33s-22.166 30.333 -29.499 49s-11 38.667 -11 60s3.66699 41.5 11 60.5s17.333 35.5 30 49.5s27.334 25.167 44.001 33.5s34 12.5 52 12.5c19.333 0 37.333 -4.16699 54 -12.5
s31 -19.5 43 -33.5s21.333 -30.5 28 -49.5s10 -39.167 10 -60.5z" />
    <glyph glyph-name="igrave" unicode="&#xec;" horiz-adv-x="670" 
d="M495 329c0 -10 -0.166992 -21.999 -0.5 -35.999s-0.833008 -29 -1.5 -45s-1.5 -32.5 -2.5 -49.5s-2.16699 -33.167 -3.5 -48.5l133 6v-156h-537v133c28.667 0 51.167 4.33301 67.5 13s28.5 21 36.5 37s13 35.167 15 57.5s3 47.166 3 74.499v340c0 24.667 0.5 53 1.5 85
s3.16699 63.333 6.5 94l-144 -6v155c47.333 0 89.166 2 125.499 6s67.333 9 93 15s46.334 12.5 62.001 19.5s27.167 13.833 34.5 20.5h111v-715zM84 1374c-16 15.333 -28.9971 33.5039 -38.9971 54.5039s-15 42.167 -15 63.5c0 13.333 2.66699 26.666 8 39.999
s12.666 25.166 21.999 35.499s20.666 18.666 33.999 24.999s27.666 9.5 42.999 9.5c23.333 0 46 -6.83301 68 -20.5s40 -31.834 54 -54.501l168 -286l-94 -83z" />
    <glyph glyph-name="iacute" unicode="&#xed;" horiz-adv-x="670" 
d="M495 329c0 -10 -0.166992 -21.999 -0.5 -35.999s-0.833008 -29 -1.5 -45s-1.5 -32.5 -2.5 -49.5s-2.16699 -33.167 -3.5 -48.5l133 6v-156h-537v133c28.667 0 51.167 4.33301 67.5 13s28.5 21 36.5 37s13 35.167 15 57.5s3 47.166 3 74.499v340c0 24.667 0.5 53 1.5 85
s3.16699 63.333 6.5 94l-144 -6v155c47.333 0 89.166 2 125.499 6s67.333 9 93 15s46.334 12.5 62.001 19.5s27.167 13.833 34.5 20.5h111v-715zM312 1158l-94 82.9961l168 286c14 22.667 31.833 40.834 53.5 54.501s44.167 20.5 67.5 20.5c16 0 30.5 -3.16699 43.5 -9.5
s24.333 -14.666 34 -24.999s17.167 -22.166 22.5 -35.499s8 -26.666 8 -39.999c0 -21.333 -5 -42.5 -15 -63.5s-23 -39.167 -39 -54.5z" />
    <glyph glyph-name="icircumflex" unicode="&#xee;" horiz-adv-x="669" 
d="M338 1603h21l298 -347l-88 -105l-231 214h-2l-232 -199l-86 98zM495 329c0 -10 -0.166992 -21.999 -0.5 -35.999s-0.833008 -29 -1.5 -45s-1.5 -32.5 -2.5 -49.5s-2.16699 -33.167 -3.5 -48.5l133 6v-156h-537v133c28.667 0 51.167 4.33301 67.5 13s28.5 21 36.5 37
s13 35.167 15 57.5s3 47.166 3 74.499v340c0 24.667 0.5 53 1.5 85s3.16699 63.333 6.5 94l-144 -6v155c47.333 0 89.166 2 125.499 6s67.333 9 93 15s46.334 12.5 62.001 19.5s27.167 13.833 34.5 20.5h111v-715z" />
    <glyph glyph-name="idieresis" unicode="&#xef;" horiz-adv-x="670" 
d="M495 329c0 -10 -0.166992 -21.999 -0.5 -35.999s-0.833008 -29 -1.5 -45s-1.5 -32.5 -2.5 -49.5s-2.16699 -33.167 -3.5 -48.5l133 6v-156h-537v133c28.667 0 51.167 4.33301 67.5 13s28.5 21 36.5 37s13 35.167 15 57.5s3 47.166 3 74.499v340c0 24.667 0.5 53 1.5 85
s3.16699 63.333 6.5 94l-144 -6v155c47.333 0 89.166 2 125.499 6s67.333 9 93 15s46.334 12.5 62.001 19.5s27.167 13.833 34.5 20.5h111v-715zM301 1382c0 -21.333 -3.33203 -41.333 -9.99902 -60s-15.667 -35 -27 -49s-25 -25 -41 -33s-33 -12 -51 -12
c-18.667 0 -35.834 4 -51.501 12s-29.334 19 -41.001 33s-20.667 30.333 -27 49s-9.5 38.667 -9.5 60s3.33301 41.5 10 60.5s15.834 35.5 27.501 49.5s25.5 25.167 41.5 33.5s33 12.5 51 12.5c19.333 0 37 -4.16699 53 -12.5s29.5 -19.5 40.5 -33.5s19.5 -30.5 25.5 -49.5
s9 -39.167 9 -60.5zM637.001 1382c0 -21.333 -3.33203 -41.333 -9.99902 -60s-15.667 -35 -27 -49s-25 -25 -41 -33s-33 -12 -51 -12c-18.667 0 -35.834 4 -51.501 12s-29.334 19 -41.001 33s-20.667 30.333 -27 49s-9.5 38.667 -9.5 60s3.33301 41.5 10 60.5
s15.834 35.5 27.501 49.5s25.5 25.167 41.5 33.5s33 12.5 51 12.5c19.333 0 37 -4.16699 53 -12.5s29.5 -19.5 40.5 -33.5s19.5 -30.5 25.5 -49.5s9 -39.167 9 -60.5z" />
    <glyph glyph-name="eth" unicode="&#xf0;" horiz-adv-x="1110" 
d="M241 1224l100.002 116.995c-25.333 14.667 -53.833 27.334 -85.5 38.001s-65.834 19.667 -102.501 27l30 150c60.667 -5.33301 113.667 -15.333 159 -30s84 -29.667 116 -45l105 137l119 -106l-87 -103c62.667 -42 119.667 -92.5 171 -151.5s95.5 -125.167 132.5 -198.5
s65.667 -152.5 86 -237.5s30.5 -174.5 30.5 -268.5c0 -80 -9.83301 -155.5 -29.5 -226.5s-49.334 -133.167 -89.001 -186.5s-89.334 -95.5 -149.001 -126.5s-129.834 -46.5 -210.501 -46.5c-67.333 0 -129.666 11.167 -186.999 33.5s-107 54.833 -149 97.5
s-74.833 95.334 -98.5 158.001s-35.5 134.334 -35.5 215.001c0 66 9.5 131.5 28.5 196.5s47.833 123.167 86.5 174.5s87.334 93 146.001 125s127.667 48 207 48c12 0 25.333 -0.833008 40 -2.5s30 -4.5 46 -8.5s32 -9.83301 48 -17.5s31.333 -17.5 46 -29.5h2
c-7.33301 26.667 -19.5 54.834 -36.5 84.501s-36.5 58.334 -58.5 86.001s-45.167 53.167 -69.5 76.5s-47.5 42 -69.5 56l-118 -145zM751.002 489.995c0 40 -3.33008 81.501 -9.99707 124.501s-17.834 82.333 -33.501 118s-36.334 65 -62.001 88s-57.5 34.5 -95.5 34.5
c-31.333 0 -59.333 -9.66699 -84 -29s-45.5 -45.166 -62.5 -77.499s-30 -69.5 -39 -111.5s-13.5 -86 -13.5 -132c0 -57.333 5.16699 -108.5 15.5 -153.5s24.5 -83 42.5 -114s39.167 -54.667 63.5 -71s50.5 -24.5 78.5 -24.5c27.333 0 53.166 7.33301 77.499 22
s45.5 36.667 63.5 66s32.333 65.666 43 108.999s16 93.666 16 150.999z" />
    <glyph glyph-name="ntilde" unicode="&#xf1;" horiz-adv-x="1303" 
d="M1139 329c0 -10 -0.168945 -21.9961 -0.501953 -35.9961s-0.833008 -29 -1.5 -45s-1.5 -32.5 -2.5 -49.5s-2.16699 -33.167 -3.5 -48.5l133 6v-156h-537v133c28.667 0 51.167 4.33301 67.5 13s28.5 21 36.5 37s13 35.167 15 57.5s3 47.166 3 74.499l-1 292
c-0.666992 90 -14.334 156 -41.001 198s-68.334 63 -125.001 63c-35.333 0 -69.5 -7.33301 -102.5 -22s-61.167 -32.334 -84.5 -53.001v-464c0 -10 -0.166992 -22 -0.5 -36s-0.833008 -29 -1.5 -45s-1.5 -32.5 -2.5 -49.5s-2.16699 -33.167 -3.5 -48.5l133 6v-156h-537v133
c28.667 0 51.167 4.33301 67.5 13s28.5 21 36.5 37s13 35.167 15 57.5s3 47.166 3 74.499v345c0 24.667 0.5 52.167 1.5 82.5s3.16699 60.833 6.5 91.5l-144 -6v155c47.333 0 89.166 2 125.499 6s67.333 9 93 15s46.334 12.5 62.001 19.5s27.167 13.833 34.5 20.5h101
l9 -101h3c20 15.333 42.833 30 68.5 44s52 26.167 79 36.5s53.333 18.5 79 24.5s48.834 9 69.501 9c62.667 0 115.834 -8.83301 159.501 -26.5s79.334 -44.834 107.001 -81.501s47.834 -83.667 60.501 -141s19 -125.333 19 -204v-275zM525.998 1322
c-8 0 -17.168 -1.33301 -27.501 -4s-21.166 -7.16699 -32.499 -13.5s-22.833 -14.833 -34.5 -25.5s-22.834 -24 -33.501 -40l-114 68c10.667 30.667 25 59 43 85s37.667 48.167 59 66.5s43.833 32.666 67.5 42.999s46.834 15.5 69.501 15.5c32 0 58.333 -4 79 -12
s39.667 -17 57 -27s34.5 -19 51.5 -27s37.833 -12 62.5 -12c24 0 46.833 9.16699 68.5 27.5s41.167 43.5 58.5 75.5l116 -59c-14 -42.667 -30.667 -79.167 -50 -109.5s-40 -55.166 -62 -74.499s-44.333 -33.5 -67 -42.5s-44 -13.5 -64 -13.5
c-27.333 0 -51.833 4.16699 -73.5 12.5s-42 17.333 -61 27s-37.5 18.667 -55.5 27s-37 12.5 -57 12.5z" />
    <glyph glyph-name="ograve" unicode="&#xf2;" horiz-adv-x="1159" 
d="M575 913c-40 -1.33301 -73.332 -12.8291 -99.999 -34.4961s-48.334 -49.834 -65.001 -84.501s-28.5 -73.834 -35.5 -117.501s-10.5 -87.834 -10.5 -132.501c0 -52.667 4.16699 -104.834 12.5 -156.501s21.666 -97.834 39.999 -138.501s42 -73.667 71 -99
s64.167 -38 105.5 -38c40.667 0.666992 73.834 12 99.501 34s46 50.5 61 85.5s25.333 74.167 31 117.5s8.5 87 8.5 131c0 50.667 -3.5 101.834 -10.5 153.501s-19 98.167 -36 139.5s-39.333 75 -67 101s-62.5 39 -104.5 39zM579.001 1057c73.333 0 141.503 -12 204.503 -36
s117.5 -58.667 163.5 -104s82.167 -100.5 108.5 -165.5s39.5 -138.5 39.5 -220.5c0 -86 -12.5 -163.833 -37.5 -233.5s-60 -129 -105 -178s-98.833 -86.667 -161.5 -113s-131.334 -39.5 -206.001 -39.5c-74 0 -142.833 12.167 -206.5 36.5s-118.834 59 -165.501 104
s-83.334 99.667 -110.001 164s-40 136.833 -40 217.5c0 84.667 13.667 162 41 232s64.5 129.833 111.5 179.5s101.833 88.167 164.5 115.5s129 41 199 41zM340.004 1374c-16 15.333 -28.9971 33.5039 -38.9971 54.5039s-15 42.167 -15 63.5
c0 13.333 2.66699 26.666 8 39.999s12.666 25.166 21.999 35.499s20.666 18.666 33.999 24.999s27.666 9.5 42.999 9.5c23.333 0 46 -6.83301 68 -20.5s40 -31.834 54 -54.501l168 -286l-94 -83z" />
    <glyph glyph-name="oacute" unicode="&#xf3;" horiz-adv-x="1159" 
d="M575 913c-40 -1.33301 -73.332 -12.8291 -99.999 -34.4961s-48.334 -49.834 -65.001 -84.501s-28.5 -73.834 -35.5 -117.501s-10.5 -87.834 -10.5 -132.501c0 -52.667 4.16699 -104.834 12.5 -156.501s21.666 -97.834 39.999 -138.501s42 -73.667 71 -99
s64.167 -38 105.5 -38c40.667 0.666992 73.834 12 99.501 34s46 50.5 61 85.5s25.333 74.167 31 117.5s8.5 87 8.5 131c0 50.667 -3.5 101.834 -10.5 153.501s-19 98.167 -36 139.5s-39.333 75 -67 101s-62.5 39 -104.5 39zM579.001 1057c73.333 0 141.503 -12 204.503 -36
s117.5 -58.667 163.5 -104s82.167 -100.5 108.5 -165.5s39.5 -138.5 39.5 -220.5c0 -86 -12.5 -163.833 -37.5 -233.5s-60 -129 -105 -178s-98.833 -86.667 -161.5 -113s-131.334 -39.5 -206.001 -39.5c-74 0 -142.833 12.167 -206.5 36.5s-118.834 59 -165.501 104
s-83.334 99.667 -110.001 164s-40 136.833 -40 217.5c0 84.667 13.667 162 41 232s64.5 129.833 111.5 179.5s101.833 88.167 164.5 115.5s129 41 199 41zM534.004 1158l-94 82.9961l168 286c14 22.667 31.833 40.834 53.5 54.501s44.167 20.5 67.5 20.5
c16 0 30.5 -3.16699 43.5 -9.5s24.333 -14.666 34 -24.999s17.167 -22.166 22.5 -35.499s8 -26.666 8 -39.999c0 -21.333 -5 -42.5 -15 -63.5s-23 -39.167 -39 -54.5z" />
    <glyph glyph-name="ocircumflex" unicode="&#xf4;" horiz-adv-x="1159" 
d="M575 913c-40 -1.33301 -73.332 -12.8291 -99.999 -34.4961s-48.334 -49.834 -65.001 -84.501s-28.5 -73.834 -35.5 -117.501s-10.5 -87.834 -10.5 -132.501c0 -52.667 4.16699 -104.834 12.5 -156.501s21.666 -97.834 39.999 -138.501s42 -73.667 71 -99
s64.167 -38 105.5 -38c40.667 0.666992 73.834 12 99.501 34s46 50.5 61 85.5s25.333 74.167 31 117.5s8.5 87 8.5 131c0 50.667 -3.5 101.834 -10.5 153.501s-19 98.167 -36 139.5s-39.333 75 -67 101s-62.5 39 -104.5 39zM579.001 1057c73.333 0 141.503 -12 204.503 -36
s117.5 -58.667 163.5 -104s82.167 -100.5 108.5 -165.5s39.5 -138.5 39.5 -220.5c0 -86 -12.5 -163.833 -37.5 -233.5s-60 -129 -105 -178s-98.833 -86.667 -161.5 -113s-131.334 -39.5 -206.001 -39.5c-74 0 -142.833 12.167 -206.5 36.5s-118.834 59 -165.501 104
s-83.334 99.667 -110.001 164s-40 136.833 -40 217.5c0 84.667 13.667 162 41 232s64.5 129.833 111.5 179.5s101.833 88.167 164.5 115.5s129 41 199 41zM587.004 1603h21l328 -347l-88 -105l-261 214h-2l-262 -199l-86 98z" />
    <glyph glyph-name="otilde" unicode="&#xf5;" horiz-adv-x="1159" 
d="M575 913c-40 -1.33301 -73.332 -12.8291 -99.999 -34.4961s-48.334 -49.834 -65.001 -84.501s-28.5 -73.834 -35.5 -117.501s-10.5 -87.834 -10.5 -132.501c0 -52.667 4.16699 -104.834 12.5 -156.501s21.666 -97.834 39.999 -138.501s42 -73.667 71 -99
s64.167 -38 105.5 -38c40.667 0.666992 73.834 12 99.501 34s46 50.5 61 85.5s25.333 74.167 31 117.5s8.5 87 8.5 131c0 50.667 -3.5 101.834 -10.5 153.501s-19 98.167 -36 139.5s-39.333 75 -67 101s-62.5 39 -104.5 39zM579.001 1057c73.333 0 141.503 -12 204.503 -36
s117.5 -58.667 163.5 -104s82.167 -100.5 108.5 -165.5s39.5 -138.5 39.5 -220.5c0 -86 -12.5 -163.833 -37.5 -233.5s-60 -129 -105 -178s-98.833 -86.667 -161.5 -113s-131.334 -39.5 -206.001 -39.5c-74 0 -142.833 12.167 -206.5 36.5s-118.834 59 -165.501 104
s-83.334 99.667 -110.001 164s-40 136.833 -40 217.5c0 84.667 13.667 162 41 232s64.5 129.833 111.5 179.5s101.833 88.167 164.5 115.5s129 41 199 41zM448.004 1322c-8 0 -17.168 -1.33301 -27.501 -4s-21.166 -7.16699 -32.499 -13.5s-22.833 -14.833 -34.5 -25.5
s-22.834 -24 -33.501 -40l-114 68c10.667 30.667 25 59 43 85s37.667 48.167 59 66.5s43.833 32.666 67.5 42.999s46.834 15.5 69.501 15.5c32 0 58.333 -4 79 -12s39.667 -17 57 -27s34.5 -19 51.5 -27s37.833 -12 62.5 -12c24 0 46.833 9.16699 68.5 27.5
s41.167 43.5 58.5 75.5l116 -59c-14 -42.667 -30.667 -79.167 -50 -109.5s-40 -55.166 -62 -74.499s-44.333 -33.5 -67 -42.5s-44 -13.5 -64 -13.5c-27.333 0 -51.833 4.16699 -73.5 12.5s-42 17.333 -61 27s-37.5 18.667 -55.5 27s-37 12.5 -57 12.5z" />
    <glyph glyph-name="odieresis" unicode="&#xf6;" horiz-adv-x="1159" 
d="M575 913c-40 -1.33301 -73.332 -12.8291 -99.999 -34.4961s-48.334 -49.834 -65.001 -84.501s-28.5 -73.834 -35.5 -117.501s-10.5 -87.834 -10.5 -132.501c0 -52.667 4.16699 -104.834 12.5 -156.501s21.666 -97.834 39.999 -138.501s42 -73.667 71 -99
s64.167 -38 105.5 -38c40.667 0.666992 73.834 12 99.501 34s46 50.5 61 85.5s25.333 74.167 31 117.5s8.5 87 8.5 131c0 50.667 -3.5 101.834 -10.5 153.501s-19 98.167 -36 139.5s-39.333 75 -67 101s-62.5 39 -104.5 39zM579.001 1057c73.333 0 141.503 -12 204.503 -36
s117.5 -58.667 163.5 -104s82.167 -100.5 108.5 -165.5s39.5 -138.5 39.5 -220.5c0 -86 -12.5 -163.833 -37.5 -233.5s-60 -129 -105 -178s-98.833 -86.667 -161.5 -113s-131.334 -39.5 -206.001 -39.5c-74 0 -142.833 12.167 -206.5 36.5s-118.834 59 -165.501 104
s-83.334 99.667 -110.001 164s-40 136.833 -40 217.5c0 84.667 13.667 162 41 232s64.5 129.833 111.5 179.5s101.833 88.167 164.5 115.5s129 41 199 41zM540.004 1382c0 -21.333 -3.6709 -41.333 -11.0039 -60s-17.166 -35 -29.499 -49s-26.833 -25 -43.5 -33
s-34 -12 -52 -12c-18.667 0 -36.167 4 -52.5 12s-30.666 19 -42.999 33s-22.166 30.333 -29.499 49s-11 38.667 -11 60s3.66699 41.5 11 60.5s17.333 35.5 30 49.5s27.334 25.167 44.001 33.5s34 12.5 52 12.5c19.333 0 37.333 -4.16699 54 -12.5s31 -19.5 43 -33.5
s21.333 -30.5 28 -49.5s10 -39.167 10 -60.5zM896 1382c0 -21.333 -3.6709 -41.333 -11.0039 -60s-17.166 -35 -29.499 -49s-26.833 -25 -43.5 -33s-34 -12 -52 -12c-18.667 0 -36.167 4 -52.5 12s-30.666 19 -42.999 33s-22.166 30.333 -29.499 49s-11 38.667 -11 60
s3.66699 41.5 11 60.5s17.333 35.5 30 49.5s27.334 25.167 44.001 33.5s34 12.5 52 12.5c19.333 0 37.333 -4.16699 54 -12.5s31 -19.5 43 -33.5s21.333 -30.5 28 -49.5s10 -39.167 10 -60.5z" />
    <glyph glyph-name="divide" unicode="&#xf7;" horiz-adv-x="575" 
d="M436 249c0 -22 -3.49902 -42.667 -10.499 -62s-16.667 -36.166 -29 -50.499s-27.5 -25.666 -45.5 -33.999s-38 -12.5 -60 -12.5c-22.667 0 -43.334 4.16699 -62.001 12.5s-34.667 19.666 -48 33.999s-23.666 31.166 -30.999 50.499s-11 40 -11 62s4 42.833 12 62.5
s18.833 36.834 32.5 51.501s29.5 26.167 47.5 34.5s37 12.5 57 12.5c21.333 0 41 -4.16699 59 -12.5s33.667 -19.833 47 -34.5s23.666 -31.834 30.999 -51.501s11 -40.5 11 -62.5zM436.001 951c0 -22 -3.49902 -42.667 -10.499 -62s-16.667 -36.166 -29 -50.499
s-27.5 -25.666 -45.5 -33.999s-38 -12.5 -60 -12.5c-22.667 0 -43.334 4.16699 -62.001 12.5s-34.667 19.666 -48 33.999s-23.666 31.166 -30.999 50.499s-11 40 -11 62s4 42.833 12 62.5s18.833 36.834 32.5 51.501s29.5 26.167 47.5 34.5s37 12.5 57 12.5
c21.333 0 41 -4.16699 59 -12.5s33.667 -19.833 47 -34.5s23.666 -31.834 30.999 -51.501s11 -40.5 11 -62.5z" />
    </font>
</defs>
</svg>
