<?xml version="1.0" standalone="no"?>
<!DOCTYPE svg PUBLIC "-//W3C//DTD SVG 1.1//EN" "http://www.w3.org/Graphics/SVG/1.1/DTD/svg11.dtd" >
<svg version="1.1" xmlns="http://www.w3.org/2000/svg">
<metadata>
Created by FontForge 20120731 at Fri Aug  1 16:50:39 2014

Copyright (c) 2009-2011 by Accademia di Belle Arti di Urbino and students of MA course of Visual design. Some rights reserved.
</metadata>
<defs>
<font id="titillium" horiz-adv-x="560" >
  <font-face 
    font-family="Titillium"
    font-weight="300"
    font-style="italic"
    font-stretch="normal"
    units-per-em="1000"
    panose-1="0 0 4 0 0 0 0 0 0 0"
    ascent="750"
    descent="-250"
    x-height="500"
    cap-height="695"
    bbox="-154 -276 1124 1072"
    underline-thickness="30"
    underline-position="-70"
    slope="-13"
    stemh="54"
    stemv="61"
    unicode-range="U+0020-F6C3"
  />
<missing-glyph horiz-adv-x="223" 
 />
    <glyph glyph-name=".notdef" horiz-adv-x="223" 
 />
    <glyph glyph-name="space" unicode=" " horiz-adv-x="220" 
 />
    <glyph glyph-name="exclam" unicode="!" horiz-adv-x="196" 
d="M120 223l109 477h60l-116 -477h-53zM70 0l23 100h61l-23 -100h-61z" />
    <glyph glyph-name="quotedbl" unicode="&#x22;" horiz-adv-x="314" 
d="M323 474h-54l51 221h57zM261 474h-54l51 221h57z" />
    <glyph glyph-name="numbersign" unicode="#" 
d="M573 184h-114l-45 -184h-56l45 184h-167l-45 -184h-56l45 184h-114l13 52h114l48 196h-114l13 52h114l47 183h56l-47 -183h167l47 183h56l-47 -183h114l-13 -52h-114l-48 -196h114zM416 236l48 196h-167l-48 -196h167z" />
    <glyph glyph-name="dollar" unicode="$" 
d="M605 647l-11 -45s-53 9 -107 14l-96 -253c89 -31 129 -59 129 -144c0 -142 -91 -229 -234 -229c-13 0 -25 1 -38 2l-42 -112h-44l43 115c-60 6 -109 17 -109 17l11 48s59 -9 118 -14l105 277c-85 29 -131 58 -131 140c0 134 94 209 234 209c9 0 19 -1 29 -1l43 114h47
l-45 -119c54 -7 98 -19 98 -19zM460 215c0 54 -22 71 -90 95l-102 -267h22c107 0 170 65 170 172zM259 467c0 -50 26 -68 91 -91l92 243h-13c-103 0 -170 -50 -170 -152z" />
    <glyph glyph-name="percent" unicode="%" 
d="M297 658c42 0 49 -31 33 -93c-15 -63 -38 -96 -80 -96c-41 0 -48 34 -33 97c16 61 39 92 80 92zM166 6l344 700l44 -12l-344 -699zM167 566c-24 -97 7 -141 72 -141s118 44 142 140s-8 137 -73 137s-117 -41 -141 -136zM342 141c24 95 75 136 141 136
c65 0 98 -41 74 -137s-78 -140 -142 -140c-65 0 -97 44 -73 141zM393 141c-16 -64 -9 -97 32 -97c42 0 65 33 81 96c15 62 8 93 -34 93c-41 0 -64 -31 -79 -92z" />
    <glyph glyph-name="ampersand" unicode="&#x26;" horiz-adv-x="633" 
d="M446 705c82 0 134 -34 134 -116c0 -107 -70 -175 -201 -224l119 -165c21 34 46 87 62 138h59c-20 -67 -56 -137 -86 -181l98 -125l-42 -38l-93 119c-64 -81 -138 -123 -234 -123c-129 0 -184 52 -184 157c0 136 61 208 208 263c-17 35 -26 58 -26 97
c0 123 70 198 186 198zM269 44c75 0 145 40 194 111l-152 213c-128 -47 -170 -112 -170 -217c0 -77 49 -107 128 -107zM322 506c0 -38 11 -71 32 -102c118 47 164 100 164 182c0 47 -28 67 -75 67c-81 0 -121 -64 -121 -147z" />
    <glyph glyph-name="quotesingle" unicode="'" horiz-adv-x="168" 
d="M219 474h-54l51 221h57z" />
    <glyph glyph-name="parenleft" unicode="(" horiz-adv-x="226" 
d="M312 748h58s-220 -334 -220 -639c0 -142 14 -233 14 -233h-56s-20 84 -20 233c0 326 224 639 224 639z" />
    <glyph glyph-name="parenright" unicode=")" horiz-adv-x="225" 
d="M58 -118h-58s220 334 220 639c0 142 -14 233 -14 233h56s20 -84 20 -233c0 -326 -224 -639 -224 -639z" />
    <glyph glyph-name="asterisk" unicode="*" horiz-adv-x="411" 
d="M488 514h-134l41 -127l-42 -13l-42 128l-108 -79l-26 35l109 79l-108 79l27 36l108 -79l41 127l43 -14l-41 -128h132v-44z" />
    <glyph glyph-name="plus" unicode="+" 
d="M114 223v56h194v201h57v-201h196v-56h-196v-203h-57v203h-194z" />
    <glyph glyph-name="comma" unicode="," horiz-adv-x="185" 
d="M47 -129h-49l94 229h66z" />
    <glyph glyph-name="hyphen" unicode="-" horiz-adv-x="354" 
d="M109 240l14 56h246l-14 -56h-246z" />
    <glyph glyph-name="period" unicode="." horiz-adv-x="172" 
d="M56 0l23 100h61l-23 -100h-61z" />
    <glyph glyph-name="slash" unicode="/" horiz-adv-x="406" 
d="M99 -7l-56 21l426 690l57 -21z" />
    <glyph glyph-name="zero" unicode="0" 
d="M412 670c130 0 197 -66 197 -191c0 -242 -115 -489 -312 -489c-125 0 -194 65 -194 187c0 228 107 493 309 493zM411 616c-167 0 -246 -263 -246 -432c0 -96 49 -140 132 -140c164 0 249 243 249 430c0 93 -45 142 -135 142z" />
    <glyph glyph-name="one" unicode="1" 
d="M240 529l236 132h54l-152 -661h-61l134 585l-195 -107z" />
    <glyph glyph-name="two" unicode="2" 
d="M490 0h-422l12 50l270 226c108 90 187 163 187 243c0 72 -47 98 -133 98c-78 0 -187 -23 -187 -23l6 49s101 28 191 28c121 0 185 -45 185 -144c0 -107 -83 -186 -185 -267l-256 -206h345z" />
    <glyph glyph-name="three" unicode="3" 
d="M217 596l6 47s97 27 195 27c120 0 174 -46 174 -134c0 -96 -61 -155 -140 -185c50 -21 83 -56 83 -134c0 -142 -117 -227 -266 -227c-95 0 -194 34 -194 34l14 47s106 -27 185 -27c108 0 199 65 199 169c0 63 -35 104 -123 105h-130l13 50l130 2c67 0 166 62 166 152
c0 66 -37 94 -121 94c-91 0 -191 -20 -191 -20z" />
    <glyph glyph-name="four" unicode="4" 
d="M368 -1l30 128h-319l11 47l324 486h68l-325 -480h253l52 225h61l-52 -225h84l-12 -53h-84l-30 -128h-61z" />
    <glyph glyph-name="five" unicode="5" 
d="M255 660h372l-12 -54h-322l-77 -239s96 46 168 46c106 0 171 -43 171 -142c0 -157 -122 -279 -277 -279c-97 0 -206 31 -206 31l16 50s110 -27 190 -27c119 0 214 97 214 217c0 62 -42 95 -123 95c-75 0 -169 -46 -169 -46l-50 9z" />
    <glyph glyph-name="six" unicode="6" 
d="M631 651l-18 -51s-81 16 -158 16c-151 0 -223 -140 -255 -250c0 0 96 45 191 45c120 0 175 -61 175 -156c0 -157 -97 -265 -265 -265c-119 0 -186 79 -186 225c0 182 108 455 355 455c78 0 161 -19 161 -19zM373 356c-87 0 -184 -43 -184 -43c-6 -18 -11 -62 -11 -99
c0 -103 39 -170 124 -170c135 0 201 89 201 197c0 77 -36 115 -130 115z" />
    <glyph glyph-name="seven" unicode="7" 
d="M221 605l13 55h394l-23 -100l-396 -571l-55 19l391 561l8 36h-332z" />
    <glyph glyph-name="eight" unicode="8" 
d="M440 671c140 0 199 -53 199 -133c0 -81 -58 -162 -166 -192c81 -30 97 -76 97 -127c0 -66 -50 -229 -300 -229c-118 0 -204 36 -204 137c0 120 85 183 173 219c-64 32 -79 62 -79 115c0 97 76 210 280 210zM284 44c163 0 222 106 222 166c0 67 -38 87 -106 106h-104
c-76 -21 -164 -72 -164 -180c0 -58 51 -92 152 -92zM426 616c-152 0 -204 -79 -204 -151c0 -42 20 -73 87 -96h104c55 13 159 61 159 151c0 65 -42 96 -146 96z" />
    <glyph glyph-name="nine" unicode="9" 
d="M78 11l21 54s76 -18 154 -18c119 0 211 76 254 243c0 0 -124 -38 -195 -38c-122 0 -184 61 -159 195c25 127 133 223 276 223c147 0 192 -118 150 -322c-47 -260 -179 -358 -341 -358c-74 0 -160 21 -160 21zM331 308c68 0 190 36 190 36c38 164 12 270 -106 270
c-95 0 -179 -62 -200 -164c-21 -99 22 -142 116 -142z" />
    <glyph glyph-name="colon" unicode=":" horiz-adv-x="174" 
d="M134 338l23 100h61l-23 -100h-61zM56 0l23 100h61l-23 -100h-61z" />
    <glyph glyph-name="semicolon" unicode=";" horiz-adv-x="207" 
d="M10 -129h49l111 229h-66zM154 338l23 100h61l-23 -100h-61z" />
    <glyph glyph-name="less" unicode="&#x3c;" 
d="M524 423l-359 -171l359 -174v-64l-420 210v54l420 208v-63z" />
    <glyph glyph-name="equal" unicode="=" 
d="M123 312v56h429v-56h-429zM123 133v56h429v-56h-429z" />
    <glyph glyph-name="greater" unicode="&#x3e;" 
d="M508 252l-359 171v63l420 -208v-54l-420 -210v64z" />
    <glyph glyph-name="question" unicode="?" horiz-adv-x="410" 
d="M499 580c0 -101 -38 -138 -167 -240c-50 -40 -75 -75 -82 -108l-8 -39h-57s2 29 7 55c9 46 42 88 103 135c106 85 140 118 140 194c0 54 -42 72 -108 72c-58 0 -144 -19 -144 -19l3 50s88 25 153 25c92 0 160 -35 160 -125zM146 1l22 103h62l-23 -103h-61z" />
    <glyph glyph-name="at" unicode="@" horiz-adv-x="927" 
d="M639 719c320 0 369 -193 314 -422c-63 -266 -133 -307 -235 -307c-53 0 -88 15 -95 59c-40 -20 -129 -59 -191 -59c-138 -1 -126 132 -111 219c34 192 115 301 254 301c38 0 124 -13 183 -24c-12 -47 -82 -339 -83 -395c-1 -39 19 -44 55 -44c66 0 115 34 168 260
c45 198 21 358 -270 358c-253 0 -388 -113 -459 -402c-54 -220 -19 -408 280 -408c37 0 136 9 136 9l-10 -54s-95 -10 -140 -10c-351 0 -377 249 -326 463c79 336 237 456 530 456zM446 46c58 -1 130 34 169 55c3 34 45 224 73 341c-26 7 -75 15 -117 15
c-108 0 -158 -95 -190 -249c-17 -78 -15 -162 65 -162z" />
    <glyph glyph-name="A" unicode="A" horiz-adv-x="555" 
d="M27 0l355 695h126l23 -695h-61l-8 191h-274l-99 -191h-62zM417 640l-202 -395h247l-13 395h-32z" />
    <glyph glyph-name="B" unicode="B" horiz-adv-x="578" 
d="M241 695h220c106 0 163 -36 163 -133c0 -106 -62 -174 -134 -202c57 -20 88 -54 88 -120c0 -145 -92 -240 -263 -240h-234zM386 328h-168l-63 -274h173c119 0 186 72 186 185c0 72 -56 89 -128 89zM450 641h-161l-59 -259h166c99 0 165 77 165 172c0 67 -35 87 -111 87z
" />
    <glyph glyph-name="C" unicode="C" horiz-adv-x="506" 
d="M476 63l-3 -51s-89 -22 -168 -22c-127 0 -190 69 -190 199c0 212 106 516 349 516c78 0 165 -22 165 -22l-14 -50s-81 16 -155 16c-186 0 -281 -262 -281 -458c0 -98 41 -145 135 -145c79 0 162 17 162 17z" />
    <glyph glyph-name="D" unicode="D" horiz-adv-x="607" 
d="M319 0h-238l160 695h225c122 0 183 -62 183 -206c0 -208 -102 -489 -330 -489zM585 489c0 105 -37 151 -131 151h-164l-134 -585h173c170 0 256 263 256 434z" />
    <glyph glyph-name="E" unicode="E" horiz-adv-x="507" 
d="M81 0l160 695h383l-13 -55h-321l-60 -258h266l-13 -55h-265l-63 -272h321l-13 -55h-382z" />
    <glyph glyph-name="F" unicode="F" horiz-adv-x="483" 
d="M81 0l160 695h374l-13 -55h-312l-67 -290h268l-13 -54h-268l-68 -296h-61z" />
    <glyph glyph-name="G" unicode="G" horiz-adv-x="573" 
d="M403 301l12 53h177l-79 -336s-93 -28 -193 -28c-131 0 -204 61 -204 192c0 242 109 523 353 523c99 0 198 -29 198 -29l-16 -48s-101 22 -190 22c-196 0 -281 -273 -281 -469c0 -95 52 -136 146 -136c62 0 136 18 136 18l56 238h-115z" />
    <glyph glyph-name="H" unicode="H" horiz-adv-x="624" 
d="M482 0l74 322h-340l-74 -322h-61l160 695h62l-74 -318h340l74 318h61l-160 -695h-62z" />
    <glyph glyph-name="I" unicode="I" horiz-adv-x="223" 
d="M81 0l160 695h62l-161 -695h-61z" />
    <glyph glyph-name="J" unicode="J" horiz-adv-x="260" 
d="M343 695l-134 -581c-35 -154 -55 -185 -202 -185l10 55c90 1 105 19 132 137l133 574h61z" />
    <glyph glyph-name="K" unicode="K" horiz-adv-x="516" 
d="M432 0l-112 315l-106 -2l-72 -313h-61l160 695h62l-76 -327l98 2l262 325h70l-283 -351l123 -344h-65z" />
    <glyph glyph-name="L" unicode="L" horiz-adv-x="436" 
d="M429 0h-348l160 695h62l-148 -640h286z" />
    <glyph glyph-name="M" unicode="M" horiz-adv-x="778" 
d="M81 0l160 695h109l54 -608l344 608h110l-161 -695h-62l149 640h-11l-347 -617h-67l-58 617h-11l-148 -640h-61z" />
    <glyph glyph-name="N" unicode="N" horiz-adv-x="625" 
d="M81 0l160 695h116l121 -634h21l146 634h60l-160 -695h-112l-124 636h-22l-147 -636h-59z" />
    <glyph glyph-name="O" unicode="O" horiz-adv-x="631" 
d="M334 45c48 0 89 15 123 42c104 82 152 265 152 408c0 107 -47 155 -154 155c-43 0 -82 -14 -115 -40c-107 -83 -160 -275 -160 -411c0 -112 42 -154 154 -154zM328 -10c-147 0 -211 57 -211 207c0 163 55 339 159 435c51 46 112 73 183 73c140 0 214 -64 214 -207
c0 -170 -54 -352 -167 -445c-48 -40 -109 -63 -178 -63z" />
    <glyph glyph-name="P" unicode="P" horiz-adv-x="547" 
d="M366 241h-168l-56 -241h-61l160 695h224c114 0 161 -53 161 -157c0 -167 -89 -297 -260 -297zM211 296h165c128 0 186 113 186 242c0 67 -29 101 -105 101h-167z" />
    <glyph glyph-name="Q" unicode="Q" horiz-adv-x="631" 
d="M328 -10c-147 0 -211 57 -211 207c0 163 55 339 159 435c51 46 112 73 183 73c140 0 214 -64 214 -207c0 -170 -54 -352 -167 -445c-15 -13 -31 -23 -48 -32l47 -145l-58 -19l-45 143c-23 -6 -48 -10 -74 -10zM334 45c48 0 89 15 123 42c104 82 152 265 152 408
c0 107 -47 155 -154 155c-43 0 -82 -14 -115 -40c-107 -83 -160 -275 -160 -411c0 -112 42 -154 154 -154z" />
    <glyph glyph-name="R" unicode="R" horiz-adv-x="566" 
d="M464 0l-77 270h-182l-63 -270h-61l160 695h216c112 0 172 -43 172 -160c0 -165 -105 -239 -184 -257l81 -278h-62zM565 533c0 80 -36 108 -116 108h-159l-73 -317h162c113 0 186 86 186 209z" />
    <glyph glyph-name="S" unicode="S" horiz-adv-x="500" 
d="M591 679l-11 -47s-104 18 -174 18c-108 0 -178 -53 -178 -160c0 -61 38 -76 132 -107c99 -33 142 -62 142 -153c0 -149 -96 -240 -246 -240c-92 0 -199 23 -199 23l11 50s117 -18 192 -18c113 0 179 68 179 181c0 62 -27 78 -116 107c-101 32 -158 61 -158 153
c0 141 99 219 246 219c87 0 180 -26 180 -26z" />
    <glyph glyph-name="T" unicode="T" horiz-adv-x="472" 
d="M157 640l13 55h450l-13 -55h-194l-148 -640h-61l147 640h-194z" />
    <glyph glyph-name="U" unicode="U" horiz-adv-x="593" 
d="M297 695l-111 -482c-6 -24 -10 -53 -10 -74c0 -67 54 -93 139 -93c115 0 164 54 188 160l113 489h62l-113 -490c-33 -142 -103 -215 -254 -215c-118 0 -196 44 -196 142c0 24 4 60 11 86l110 477h61z" />
    <glyph glyph-name="V" unicode="V" horiz-adv-x="542" 
d="M611 695h62l-335 -695h-140l-14 695h62l9 -640h48z" />
    <glyph glyph-name="W" unicode="W" horiz-adv-x="820" 
d="M190 695h61l-29 -639h30l280 629h66l-15 -629h28l272 639h62l-299 -695h-117l16 589l-261 -589h-120z" />
    <glyph glyph-name="X" unicode="X" horiz-adv-x="512" 
d="M248 695l100 -301l239 301h69l-283 -352l117 -343h-63l-101 298l-242 -298h-69l285 348l-115 347h63z" />
    <glyph glyph-name="Y" unicode="Y" horiz-adv-x="490" 
d="M635 695l-295 -397l-70 -298h-59l70 304l-108 391h62l89 -337l245 337h66z" />
    <glyph glyph-name="Z" unicode="Z" horiz-adv-x="496" 
d="M188 640l13 55h416l-22 -93l-472 -523l-6 -24h350l-13 -55h-416l21 90l471 522l7 28h-349z" />
    <glyph glyph-name="bracketleft" unicode="[" horiz-adv-x="283" 
d="M238 747h187l-12 -53h-127l-179 -763h127l-14 -53h-186z" />
    <glyph glyph-name="backslash" unicode="\" horiz-adv-x="411" 
d="M383 10l-63 -10l-131 691l63 10z" />
    <glyph glyph-name="bracketright" unicode="]" horiz-adv-x="283" 
d="M190 -121h-187l12 53h127l179 763h-127l14 53h186z" />
    <glyph glyph-name="asciicircum" unicode="^" 
d="M496 320l-153 280l-147 -280h-65l184 340h55l191 -340h-65z" />
    <glyph glyph-name="underscore" unicode="_" horiz-adv-x="602" 
d="M58 -79h449l-15 -60h-447z" />
    <glyph glyph-name="grave" unicode="`" horiz-adv-x="518" 
d="M318 734l176 -94l-28 -41l-177 88z" />
    <glyph glyph-name="a" unicode="a" horiz-adv-x="493" 
d="M216 -10c-86 0 -125 53 -125 141c0 161 86 379 251 379c61 0 194 -24 194 -24l-76 -325c-15 -63 -28 -160 -28 -160l-58 -2s15 93 19 114c0 0 -88 -123 -177 -123zM343 457c-125 0 -190 -193 -190 -326c0 -56 20 -88 80 -88c69 0 173 141 173 141l61 258s-72 15 -124 15z
" />
    <glyph glyph-name="b" unicode="b" horiz-adv-x="492" 
d="M386 510c106 0 130 -64 130 -151c0 -123 -70 -369 -253 -369c-76 0 -192 24 -192 24l164 708h60l-69 -295s79 83 160 83zM262 43c146 0 192 239 192 313c0 57 -10 100 -85 100c-68 0 -158 -94 -158 -94l-70 -305s75 -14 121 -14z" />
    <glyph glyph-name="c" unicode="c" horiz-adv-x="404" 
d="M358 510c54 0 119 -16 119 -16l-15 -48s-62 11 -106 11c-138 0 -200 -158 -200 -310c0 -67 30 -104 110 -104c39 0 113 16 113 16l-3 -48s-68 -21 -128 -21c-104 0 -153 53 -153 147c0 191 83 373 263 373z" />
    <glyph glyph-name="d" unicode="d" horiz-adv-x="493" 
d="M591 722l-168 -722h-58l22 98s-81 -108 -174 -108c-80 0 -122 46 -122 139c0 170 91 380 249 380c63 0 137 -17 137 -17l54 230h60zM404 172l62 270s-67 15 -126 15c-121 0 -187 -195 -187 -328c0 -55 25 -86 78 -86c74 0 173 129 173 129z" />
    <glyph glyph-name="e" unicode="e" horiz-adv-x="458" 
d="M256 44c74 0 164 25 164 25l-4 -49s-87 -30 -176 -30c-91 0 -147 49 -147 148c0 170 83 371 269 371c85 0 141 -33 141 -114c0 -121 -95 -159 -281 -159h-56c-7 -29 -12 -67 -12 -92c0 -65 41 -100 102 -100zM175 285h59c140 0 209 23 209 109c0 47 -30 64 -84 64
c-99 0 -153 -71 -184 -173z" />
    <glyph glyph-name="f" unicode="f" horiz-adv-x="305" 
d="M250 447l-104 -447l-60 -225h-52l156 672h-60l13 53h58l12 49c32 134 76 183 167 183c36 0 82 -12 82 -12l-12 -47s-41 7 -74 7c-57 0 -80 -41 -103 -133l-12 -47h142l-14 -53h-139z" />
    <glyph glyph-name="g" unicode="g" horiz-adv-x="464" 
d="M189 -237c-104 0 -169 51 -169 130c0 77 77 126 135 157c-9 9 -15 22 -15 41c0 44 53 98 53 98c-45 20 -69 58 -69 118c0 92 70 203 200 203c52 0 90 -16 90 -16l148 6l-12 -53h-97c11 -17 19 -39 19 -73c0 -87 -66 -201 -211 -201c-11 0 -30 2 -30 2s-35 -44 -35 -73
c0 -25 23 -31 92 -40c110 -13 153 -42 153 -117c0 -94 -94 -182 -252 -182zM277 10c-47 6 -75 12 -88 17c-51 -26 -111 -72 -111 -121c0 -52 38 -91 116 -91c99 0 188 49 188 126c0 46 -29 61 -105 69zM269 224c103 0 146 91 146 143c0 60 -25 91 -95 91
c-90 0 -138 -86 -138 -148c0 -51 22 -86 87 -86z" />
    <glyph glyph-name="h" unicode="h" horiz-adv-x="495" 
d="M129 0h-60l167 722h60l-74 -320s81 108 171 108c76 0 116 -49 116 -123c0 -43 -11 -94 -20 -133l-59 -254h-59l59 252c8 34 18 88 18 125c0 50 -23 79 -74 79c-74 0 -169 -126 -169 -126z" />
    <glyph glyph-name="i" unicode="i" horiz-adv-x="197" 
d="M68 0l116 500h60l-116 -500h-60zM210 616l19 80h60l-18 -80h-61z" />
    <glyph glyph-name="j" unicode="j" horiz-adv-x="197" 
d="M68 0l116 500h60l-116 -500c-35 -150 -49 -167 -200 -237l-20 49c124 63 134 75 160 188zM212 617l18 78h60l-18 -78h-60z" />
    <glyph glyph-name="k" unicode="k" horiz-adv-x="440" 
d="M129 0h-60l167 722h60l-98 -425l71 2l195 201h71l-221 -230l102 -270h-64l-94 247l-73 -1z" />
    <glyph glyph-name="l" unicode="l" horiz-adv-x="207" 
d="M74 0l167 722h59l-167 -722h-59z" />
    <glyph glyph-name="m" unicode="m" horiz-adv-x="774" 
d="M429 0h-60l59 252c8 34 19 91 19 125c0 50 -25 79 -74 79c-75 0 -168 -125 -168 -125l-77 -331h-60l116 500h58l-20 -97s79 107 171 107c103 0 110 -94 110 -94s84 94 169 94c77 0 117 -49 117 -123c0 -44 -12 -96 -20 -133l-59 -254h-60l59 252c8 34 19 87 19 124
c0 50 -26 80 -74 80c-68 0 -149 -98 -149 -98s-2 -43 -17 -104z" />
    <glyph glyph-name="n" unicode="n" horiz-adv-x="494" 
d="M128 0h-60l116 500h58l-21 -97s81 107 171 107c77 0 117 -49 117 -123c0 -42 -11 -93 -20 -131l-60 -256h-59l59 252c8 34 19 88 19 125c0 50 -24 79 -75 79c-75 0 -168 -125 -168 -125z" />
    <glyph glyph-name="o" unicode="o" horiz-adv-x="494" 
d="M345 509c110 0 168 -55 168 -165c0 -190 -98 -354 -255 -354c-107 0 -164 48 -164 158c0 194 104 361 251 361zM258 43c118 0 194 141 194 302c0 66 -34 112 -107 112c-114 0 -191 -148 -191 -309c0 -68 34 -105 104 -105z" />
    <glyph glyph-name="p" unicode="p" horiz-adv-x="492" 
d="M17 -225l167 725h58l-22 -99s83 109 170 109c88 0 126 -52 126 -142c0 -162 -88 -378 -249 -378c-63 0 -137 18 -137 18l-54 -233h-59zM374 456c-70 0 -170 -129 -170 -129l-63 -269s67 -15 126 -15c123 0 188 199 188 323c0 60 -24 90 -81 90z" />
    <glyph glyph-name="q" unicode="q" horiz-adv-x="491" 
d="M216 -10c-85 0 -126 53 -126 140c0 164 90 379 249 379c73 0 196 -23 196 -23l-163 -704h-59l73 316s-80 -108 -170 -108zM339 457c-119 0 -187 -191 -187 -324c0 -58 23 -90 81 -90c71 0 170 129 170 129l62 270s-65 15 -126 15z" />
    <glyph glyph-name="r" unicode="r" horiz-adv-x="311" 
d="M68 0l117 500h59l-18 -75s96 66 187 85l-15 -61c-68 -16 -183 -79 -183 -79l-86 -370h-61z" />
    <glyph glyph-name="s" unicode="s" horiz-adv-x="428" 
d="M483 491l-13 -48s-93 14 -157 14c-77 0 -126 -51 -126 -109c0 -36 20 -48 98 -67c89 -21 137 -38 137 -111c0 -121 -96 -180 -215 -180c-73 0 -155 21 -155 21l11 48s92 -16 151 -16c82 0 147 36 147 115c0 45 -29 54 -104 71c-84 20 -130 40 -130 106
c0 101 81 174 194 174c74 0 162 -18 162 -18z" />
    <glyph glyph-name="t" unicode="t" horiz-adv-x="315" 
d="M402 447h-148l-62 -264c-7 -30 -13 -65 -13 -89c0 -31 16 -51 55 -51c26 0 80 6 80 6l-4 -47s-52 -12 -94 -12c-63 0 -100 33 -100 92c0 33 9 72 17 104l61 261h-68l13 53h68l37 153h60l-38 -153h149z" />
    <glyph glyph-name="u" unicode="u" horiz-adv-x="494" 
d="M481 500h60l-116 -500h-58l21 97s-81 -107 -171 -107c-76 0 -117 49 -117 122c0 43 11 94 20 132l60 256h59l-59 -252c-8 -34 -19 -88 -19 -125c0 -50 26 -79 75 -79c75 0 168 124 168 124z" />
    <glyph glyph-name="v" unicode="v" horiz-adv-x="452" 
d="M142 500h59l14 -448h35l228 448h63l-259 -500h-123z" />
    <glyph glyph-name="w" unicode="w" horiz-adv-x="723" 
d="M146 500h60l-3 -448h17l217 438h72l10 -438h18l208 448h61l-232 -500h-111l-8 413l-202 -413h-109z" />
    <glyph glyph-name="x" unicode="x" horiz-adv-x="416" 
d="M140 500h62l74 -209l169 209h66l-211 -255l90 -245h-63l-72 204l-166 -204h-67l208 250z" />
    <glyph glyph-name="y" unicode="y" horiz-adv-x="452" 
d="M142 500h59l14 -448h34l229 448h63l-374 -724h-61l118 224h-65z" />
    <glyph glyph-name="z" unicode="z" horiz-adv-x="418" 
d="M141 447l14 53h340l-11 -52l-363 -396h271l-12 -52h-341l9 52l362 395h-269z" />
    <glyph glyph-name="braceleft" unicode="{" horiz-adv-x="319" 
d="M221 223c0 -41 -48 -162 -48 -219c0 -49 30 -74 96 -74l-15 -56c-95 3 -141 41 -141 113c0 61 48 182 48 220c0 44 -23 64 -73 81l12 50c91 24 110 54 124 122c8 39 19 110 28 138c33 104 90 148 209 153l-10 -55c-96 -5 -133 -48 -150 -127c-5 -26 -16 -94 -22 -118
c-19 -85 -50 -116 -121 -140c36 -14 63 -37 63 -88z" />
    <glyph glyph-name="bar" unicode="|" horiz-adv-x="306" 
d="M180 -225v947h60v-947h-60z" />
    <glyph glyph-name="braceright" unicode="}" horiz-adv-x="318" 
d="M241 400c0 41 48 162 48 219c0 49 -30 74 -96 74l15 56c95 -3 141 -41 141 -113c0 -61 -48 -182 -48 -220c0 -44 23 -64 73 -81l-12 -50c-91 -24 -110 -54 -124 -122c-8 -39 -19 -110 -28 -138c-33 -104 -90 -148 -209 -153l10 55c96 5 133 48 150 127c5 26 16 94 22 118
c19 85 50 116 121 140c-36 14 -63 37 -63 88z" />
    <glyph glyph-name="asciitilde" unicode="~" 
d="M543 305l11 -50s-60 -54 -113 -54c-56 0 -156 66 -198 66c-39 0 -104 -49 -104 -49l-11 51s62 54 115 54c56 0 153 -66 198 -66c37 0 102 48 102 48z" />
    <glyph glyph-name="exclamdown" unicode="&#xa1;" horiz-adv-x="182" 
d="M184 277l-109 -477h-60l116 477h53zM234 500l-23 -100h-61l23 100h61z" />
    <glyph glyph-name="cent" unicode="&#xa2;" 
d="M258 -82l29 120c-135 2 -143 106 -117 210c36 139 113 210 216 213l29 124h52l-30 -124c42 -2 98 -10 98 -10l-16 -54s-84 8 -120 8c-91 0 -145 -60 -169 -157c-21 -86 -22 -153 96 -153c43 0 128 7 128 7l-12 -53s-63 -8 -103 -8l-29 -123h-52z" />
    <glyph glyph-name="sterling" unicode="&#xa3;" 
d="M603 664l-13 -47s-71 8 -123 8c-84 0 -99 -66 -122 -161l-12 -49h203l-12 -53h-204l-69 -309h150l77 17v-52l-80 -18h-317l12 53h96l70 309h-74l13 53h74l12 56c31 129 64 208 187 208c54 0 132 -15 132 -15z" />
    <glyph glyph-name="currency" unicode="&#xa4;" 
d="M510 37l-71 71c-61 -44 -143 -44 -204 0l-70 -71l-42 43l70 69c-44 61 -44 144 0 205l-70 70l42 43l70 -71c61 43 143 43 204 0l71 71l42 -43l-71 -71c43 -61 43 -143 0 -203l71 -70zM253 167c46 -45 123 -45 169 0c45 47 45 123 0 169c-46 46 -123 46 -169 0
s-46 -122 0 -169z" />
    <glyph glyph-name="yen" unicode="&#xa5;" 
d="M142 318l12 54h139l-115 289h66l116 -291l244 291h79l-245 -289h135l-12 -54h-166l-15 -18l-18 -77h177l-13 -55h-177l-40 -168h-60l39 168h-181l13 55h180l18 79l-4 16h-172z" />
    <glyph glyph-name="brokenbar" unicode="&#xa6;" horiz-adv-x="313" 
d="M184 722h60v-375h-60v375zM184 152h60v-377h-60v377z" />
    <glyph glyph-name="section" unicode="&#xa7;" horiz-adv-x="466" 
d="M541 638l-15 -55s-99 14 -144 14c-96 0 -145 -52 -145 -126c0 -54 37 -63 111 -76c99 -18 127 -61 127 -107c0 -72 -68 -156 -76 -166c15 -20 17 -35 17 -58c0 -53 -41 -203 -219 -203c-59 0 -159 16 -159 16l17 54s102 -14 153 -14c95 0 146 75 146 130
c0 42 -21 54 -113 71c-101 17 -132 56 -132 112c0 82 76 152 85 159c-15 18 -20 39 -20 73c0 91 74 191 219 191c60 0 148 -15 148 -15zM316 341c-38 6 -77 17 -85 24c-3 -3 -60 -66 -60 -117c0 -40 22 -60 97 -73c38 -7 68 -14 91 -27c3 3 55 77 55 125c0 35 -26 55 -98 68
z" />
    <glyph glyph-name="dieresis" unicode="&#xa8;" horiz-adv-x="722" 
d="M249 625l19 82h49l-19 -82h-49zM428 625l18 82h49l-19 -82h-48z" />
    <glyph glyph-name="copyright" unicode="&#xa9;" horiz-adv-x="645" 
d="M162 434c0 151 110 270 260 270c153 0 261 -121 261 -270c0 -151 -108 -270 -261 -270c-150 0 -260 120 -260 270zM202 434c0 -127 93 -231 220 -231c128 0 222 103 222 231c0 127 -95 231 -222 231s-220 -104 -220 -231zM498 333l3 -45s-39 -10 -77 -10
c-88 0 -113 54 -113 156c0 99 24 156 114 156c41 0 76 -9 76 -9l-3 -46s-39 7 -71 7c-59 0 -67 -38 -67 -108s13 -108 67 -108c29 0 71 7 71 7z" />
    <glyph glyph-name="ordfeminine" unicode="&#xaa;" horiz-adv-x="348" 
d="M406 564l-32 -138c5 -10 16 -15 27 -18l-11 -40c-43 0 -54 8 -66 24c0 0 -64 -24 -118 -24c-48 0 -71 34 -58 87s42 79 107 83l92 6l6 22c8 35 -4 47 -37 47c-37 0 -112 -7 -112 -7l6 40s73 13 118 13c66 0 95 -24 78 -95zM338 504l-82 -5c-32 -2 -47 -15 -54 -44
s3 -42 27 -42c39 0 92 18 92 18z" />
    <glyph glyph-name="guillemotleft" unicode="&#xab;" horiz-adv-x="437" 
d="M478 402l-19 -63l-136 -92l91 -102l-17 -56l-135 145l11 31zM303 402l-19 -63l-136 -92l91 -102l-17 -56l-135 145l11 31z" />
    <glyph glyph-name="logicalnot" unicode="&#xac;" 
d="M126 338h425v-218h-57v163h-368v55z" />
    <glyph glyph-name="registered" unicode="&#xae;" horiz-adv-x="645" 
d="M162 434c0 151 110 270 260 270c153 0 261 -121 261 -270c0 -151 -108 -270 -261 -270c-150 0 -260 120 -260 270zM202 434c0 -127 94 -231 220 -231c128 0 222 103 222 231c0 127 -95 231 -222 231s-220 -104 -220 -231zM486 283l-54 111h-68v-111h-48v300h103
c74 0 114 -23 114 -93c0 -48 -14 -76 -54 -90l59 -117h-52zM363 542v-107h67c39 0 55 14 55 54c0 39 -22 53 -68 53h-54z" />
    <glyph glyph-name="macron" unicode="&#xaf;" horiz-adv-x="433" 
d="M232 642l11 47h267l-12 -47h-266z" />
    <glyph glyph-name="degree" unicode="&#xb0;" 
d="M270 565c0 83 56 140 139 140s140 -57 140 -140s-57 -138 -140 -138s-139 55 -139 138zM314 565c0 -58 38 -96 95 -96c58 0 98 38 98 96s-40 97 -98 97c-57 0 -95 -39 -95 -97z" />
    <glyph glyph-name="plusminus" unicode="&#xb1;" 
d="M103 298v56h194v130h57v-130h196v-56h-196v-133h-57v133h-194zM103 98h447v-56h-447v56z" />
    <glyph glyph-name="twosuperior" unicode="&#xb2;" horiz-adv-x="280" 
d="M347 478h-204l12 48l115 93c38 30 66 54 74 88c8 30 -12 41 -42 41c-31 0 -89 -10 -89 -10l10 49s60 12 102 12c66 0 90 -28 75 -88c-12 -47 -43 -78 -92 -116l-83 -68h134z" />
    <glyph glyph-name="threesuperior" unicode="&#xb3;" horiz-adv-x="280" 
d="M222 789c0 0 60 10 103 10c69 0 96 -25 82 -82c-13 -53 -57 -73 -62 -76c29 -10 45 -23 32 -77c-16 -66 -63 -96 -129 -96c-49 0 -107 11 -107 11l15 47s54 -8 100 -8c38 0 59 19 66 47c10 38 -9 49 -39 49h-65l11 47h65c20 0 49 22 56 51c6 25 -4 38 -41 38
c-44 0 -95 -8 -95 -8z" />
    <glyph glyph-name="acute" unicode="&#xb4;" horiz-adv-x="542" 
d="M285 601l-6 46l218 94l7 -53z" />
    <glyph glyph-name="mu" unicode="&#xb5;" 
d="M46 -225l116 500l53 225h59l-53 -225h1l-18 -75c-5 -26 -8 -55 -8 -77c0 -50 26 -79 75 -79c75 0 168 124 168 124l77 332h60l-116 -500h-58l21 97s-81 -107 -171 -107c-39 0 -68 12 -88 34l-58 -249h-60z" />
    <glyph glyph-name="paragraph" unicode="&#xb6;" horiz-adv-x="554" 
d="M384 0l154 646h-122l-155 -646h-52l82 338c-104 1 -144 67 -144 138c0 104 91 224 222 224h310l-11 -54h-78l-154 -646h-52z" />
    <glyph glyph-name="periodcentered" unicode="&#xb7;" horiz-adv-x="174" 
d="M114 254l23 105h63l-23 -105h-63z" />
    <glyph glyph-name="cedilla" unicode="&#xb8;" horiz-adv-x="791" 
d="M499 -124c-13 -58 -47 -83 -104 -83c-41 0 -78 6 -78 6l11 44s39 -4 67 -4s45 11 52 39c7 30 -12 36 -34 36h-44l22 91h37l-14 -53h5c53 0 93 -18 80 -76z" />
    <glyph glyph-name="onesuperior" unicode="&#xb9;" horiz-adv-x="280" 
d="M205 721l118 69h51l-77 -312h-54l63 253l-86 -50z" />
    <glyph glyph-name="ordmasculine" unicode="&#xba;" horiz-adv-x="340" 
d="M321 658c55 0 95 -22 98 -75c2 -27 -2 -49 -7 -73c-23 -100 -71 -144 -160 -144c-62 0 -98 33 -97 93c0 17 3 35 8 56c25 103 72 143 158 143zM264 417c50 0 76 25 94 97c4 19 5 35 5 48c0 34 -16 46 -52 46c-50 0 -77 -24 -93 -92c-5 -20 -8 -36 -8 -50
c0 -34 17 -49 54 -49z" />
    <glyph glyph-name="guillemotright" unicode="&#xbb;" horiz-adv-x="481" 
d="M292 89l19 63l136 92l-91 102l17 56l135 -145l-11 -31zM73 89l19 63l136 92l-91 102l17 56l135 -145l-11 -31z" />
    <glyph glyph-name="onequarter" unicode="&#xbc;" horiz-adv-x="584" 
d="M182 721l118 69h51l-77 -312h-54l63 253l-86 -50zM165 -7l-56 21l426 690l57 -21zM476 0l12 51h-143l12 46l130 215h59l-130 -211h84l26 87h50l-22 -87h30l-12 -50h-30l-13 -51h-53z" />
    <glyph glyph-name="onehalf" unicode="&#xbd;" horiz-adv-x="609" 
d="M182 721l118 69h51l-77 -312h-54l63 253l-86 -50zM165 -7l-56 21l426 690l57 -21zM576 0h-204l12 48l115 93c38 30 66 54 74 88c8 30 -12 41 -42 41c-31 0 -89 -10 -89 -10l10 49s60 12 102 12c66 0 90 -28 75 -88c-12 -47 -43 -78 -92 -116l-83 -68h134z" />
    <glyph glyph-name="threequarters" unicode="&#xbe;" horiz-adv-x="603" 
d="M222 789c0 0 60 10 103 10c69 0 96 -25 82 -82c-13 -53 -57 -73 -62 -76c29 -10 45 -23 32 -77c-16 -66 -63 -96 -129 -96c-49 0 -107 11 -107 11l15 47s54 -8 100 -8c38 0 59 19 66 47c10 38 -9 49 -39 49h-65l11 47h65c20 0 49 22 56 51c6 25 -4 38 -41 38
c-44 0 -95 -8 -95 -8zM186 -7l-56 21l426 690l57 -21zM497 0l12 51h-143l12 46l130 215h59l-130 -211h84l26 87h50l-22 -87h30l-12 -50h-30l-13 -51h-53z" />
    <glyph glyph-name="questiondown" unicode="&#xbf;" horiz-adv-x="401" 
d="M23 -79c0 101 38 138 167 240c50 40 75 75 82 108l8 39h57s-2 -29 -7 -55c-9 -46 -42 -88 -103 -135c-106 -85 -140 -118 -140 -194c0 -54 42 -72 108 -72c58 0 144 19 144 19l-3 -50s-88 -25 -153 -25c-92 0 -160 35 -160 125zM376 500l-22 -103h-62l23 103h61z" />
    <glyph glyph-name="Agrave" unicode="&#xc0;" horiz-adv-x="555" 
d="M358 925l175 -95l-26 -43l-178 88zM27 0l355 695h126l23 -695h-61l-8 191h-274l-99 -191h-62zM417 640l-202 -395h247l-13 395h-32z" />
    <glyph glyph-name="Aacute" unicode="&#xc1;" horiz-adv-x="555" 
d="M396 790l-8 45l219 95l9 -52zM27 0l355 695h126l23 -695h-61l-8 191h-274l-99 -191h-62zM417 640l-202 -395h247l-13 395h-32z" />
    <glyph glyph-name="Acircumflex" unicode="&#xc2;" horiz-adv-x="555" 
d="M311 797l161 134h30l97 -134h-56l-61 86l-105 -86h-66zM27 0l355 695h126l23 -695h-61l-8 191h-274l-99 -191h-62zM417 640l-202 -395h247l-13 395h-32z" />
    <glyph glyph-name="Atilde" unicode="&#xc3;" horiz-adv-x="555" 
d="M626 910l3 -42s-63 -59 -96 -59c-43 0 -108 59 -139 59c-21 0 -88 -51 -88 -51l-2 44s67 59 102 59c47 0 109 -58 139 -58c19 0 81 48 81 48zM27 0l355 695h126l23 -695h-61l-8 191h-274l-99 -191h-62zM417 640l-202 -395h247l-13 395h-32z" />
    <glyph glyph-name="Adieresis" unicode="&#xc4;" horiz-adv-x="555" 
d="M349 820l18 83h50l-20 -83h-48zM533 820l20 83h49l-20 -83h-49zM27 0l355 695h126l23 -695h-61l-8 191h-274l-99 -191h-62zM417 640l-202 -395h247l-13 395h-32z" />
    <glyph glyph-name="Aring" unicode="&#xc5;" horiz-adv-x="555" 
d="M27 0l343 671c-16 17 -20 42 -11 74c17 64 62 96 121 96c56 0 90 -29 74 -96c-8 -31 -24 -56 -46 -72l23 -673h-61l-8 191h-274l-99 -191h-62zM417 640l-202 -395h247l-13 395h-32zM400 745c-6 -24 1 -44 25 -50h38c26 6 43 23 50 50c7 33 -11 53 -44 53
c-35 0 -61 -19 -69 -53z" />
    <glyph glyph-name="AE" unicode="&#xc6;" horiz-adv-x="786" 
d="M357 0l44 191h-216l-99 -191h-59l355 697h523l-12 -57l-326 2l-63 -260h270l-12 -56h-270l-64 -269h325l-12 -57h-384zM412 640l-200 -393h202l95 393h-97z" />
    <glyph glyph-name="Ccedilla" unicode="&#xc7;" horiz-adv-x="506" 
d="M476 63l-3 -51s-89 -22 -168 -22h-3l-10 -38h5c53 0 93 -18 80 -76s-47 -83 -104 -83c-41 0 -78 6 -78 6l11 44s39 -4 67 -4s45 11 52 39c7 30 -12 36 -34 36h-44l19 79c-101 13 -151 80 -151 196c0 212 106 516 349 516c78 0 165 -22 165 -22l-14 -50s-81 16 -155 16
c-186 0 -281 -262 -281 -458c0 -98 41 -145 135 -145c79 0 162 17 162 17z" />
    <glyph glyph-name="Egrave" unicode="&#xc8;" horiz-adv-x="507" 
d="M377 925l175 -95l-26 -43l-178 88zM81 0l160 695h383l-13 -55h-321l-60 -258h266l-13 -55h-265l-63 -272h321l-13 -55h-382z" />
    <glyph glyph-name="Eacute" unicode="&#xc9;" horiz-adv-x="507" 
d="M383 790l-8 45l219 95l9 -52zM81 0l160 695h383l-13 -55h-321l-60 -258h266l-13 -55h-265l-63 -272h321l-13 -55h-382z" />
    <glyph glyph-name="Ecircumflex" unicode="&#xca;" horiz-adv-x="507" 
d="M363 794l161 134h30l97 -134h-56l-61 86l-105 -86h-66zM81 0l160 695h383l-13 -55h-321l-60 -258h266l-13 -55h-265l-63 -272h321l-13 -55h-382z" />
    <glyph glyph-name="Edieresis" unicode="&#xcb;" horiz-adv-x="507" 
d="M343 820l18 83h50l-20 -83h-48zM527 820l20 83h49l-20 -83h-49zM81 0l160 695h383l-13 -55h-321l-60 -258h266l-13 -55h-265l-63 -272h321l-13 -55h-382z" />
    <glyph glyph-name="Igrave" unicode="&#xcc;" horiz-adv-x="223" 
d="M180 925l175 -95l-26 -43l-178 88zM81 0l160 695h62l-161 -695h-61z" />
    <glyph glyph-name="Iacute" unicode="&#xcd;" horiz-adv-x="223" 
d="M241 790l-8 45l219 95l9 -52zM81 0l160 695h62l-161 -695h-61z" />
    <glyph glyph-name="Icircumflex" unicode="&#xce;" horiz-adv-x="223" 
d="M146 794l161 134h30l97 -134h-56l-61 86l-105 -86h-66zM81 0l160 695h62l-161 -695h-61z" />
    <glyph glyph-name="Idieresis" unicode="&#xcf;" horiz-adv-x="223" 
d="M177 823l18 83h50l-20 -83h-48zM361 823l20 83h49l-20 -83h-49zM81 0l160 695h62l-161 -695h-61z" />
    <glyph glyph-name="Eth" unicode="&#xd0;" horiz-adv-x="611" 
d="M322 0h-238l73 318h-70l13 62h71l73 315h225c122 0 183 -62 183 -206c0 -208 -102 -489 -330 -489zM588 489c0 105 -37 151 -131 151h-164l-60 -260h150l-15 -62h-149l-60 -263h173c170 0 256 263 256 434z" />
    <glyph glyph-name="Ntilde" unicode="&#xd1;" horiz-adv-x="625" 
d="M664 908l3 -42s-63 -59 -96 -59c-43 0 -108 59 -139 59c-21 0 -88 -51 -88 -51l-2 44s67 59 102 59c47 0 109 -58 139 -58c19 0 81 48 81 48zM81 0l160 695h116l121 -634h21l146 634h60l-160 -695h-112l-124 636h-22l-147 -636h-59z" />
    <glyph glyph-name="Ograve" unicode="&#xd2;" horiz-adv-x="631" 
d="M417 925l175 -95l-26 -43l-178 88zM334 45c48 0 89 15 123 42c104 82 152 265 152 408c0 107 -47 155 -154 155c-43 0 -82 -14 -115 -40c-107 -83 -160 -275 -160 -411c0 -112 42 -154 154 -154zM328 -10c-147 0 -211 57 -211 207c0 163 55 339 159 435
c51 46 112 73 183 73c140 0 214 -64 214 -207c0 -170 -54 -352 -167 -445c-48 -40 -109 -63 -178 -63z" />
    <glyph glyph-name="Oacute" unicode="&#xd3;" horiz-adv-x="631" 
d="M334 45c48 0 89 15 123 42c104 82 152 265 152 408c0 107 -47 155 -154 155c-43 0 -82 -14 -115 -40c-107 -83 -160 -275 -160 -411c0 -112 42 -154 154 -154zM328 -10c-147 0 -211 57 -211 207c0 163 55 339 159 435c51 46 112 73 183 73c140 0 214 -64 214 -207
c0 -170 -54 -352 -167 -445c-48 -40 -109 -63 -178 -63zM433 790l-8 45l219 95l9 -52z" />
    <glyph glyph-name="Ocircumflex" unicode="&#xd4;" horiz-adv-x="631" 
d="M334 45c48 0 89 15 123 42c104 82 152 265 152 408c0 107 -47 155 -154 155c-43 0 -82 -14 -115 -40c-107 -83 -160 -275 -160 -411c0 -112 42 -154 154 -154zM328 -10c-147 0 -211 57 -211 207c0 163 55 339 159 435c51 46 112 73 183 73c140 0 214 -64 214 -207
c0 -170 -54 -352 -167 -445c-48 -40 -109 -63 -178 -63zM356 797l161 134h30l97 -134h-56l-61 86l-105 -86h-66z" />
    <glyph glyph-name="Otilde" unicode="&#xd5;" horiz-adv-x="631" 
d="M678 908l3 -42s-63 -59 -96 -59c-43 0 -108 59 -139 59c-21 0 -88 -51 -88 -51l-2 44s67 59 102 59c47 0 109 -58 139 -58c19 0 81 48 81 48zM334 45c48 0 89 15 123 42c104 82 152 265 152 408c0 107 -47 155 -154 155c-43 0 -82 -14 -115 -40
c-107 -83 -160 -275 -160 -411c0 -112 42 -154 154 -154zM328 -10c-147 0 -211 57 -211 207c0 163 55 339 159 435c51 46 112 73 183 73c140 0 214 -64 214 -207c0 -170 -54 -352 -167 -445c-48 -40 -109 -63 -178 -63z" />
    <glyph glyph-name="Odieresis" unicode="&#xd6;" horiz-adv-x="631" 
d="M383 820l19 82h56l-19 -82h-56zM569 820l18 82h55l-19 -82h-54zM334 45c48 0 89 15 123 42c104 82 152 265 152 408c0 107 -47 155 -154 155c-43 0 -82 -14 -115 -40c-107 -83 -160 -275 -160 -411c0 -112 42 -154 154 -154zM328 -10c-147 0 -211 57 -211 207
c0 163 55 339 159 435c51 46 112 73 183 73c140 0 214 -64 214 -207c0 -170 -54 -352 -167 -445c-48 -40 -109 -63 -178 -63z" />
    <glyph glyph-name="multiply" unicode="&#xd7;" 
d="M171 456l166 -168l166 168l39 -39l-167 -166l167 -166l-39 -40l-166 168l-166 -167l-39 39l167 166l-167 165z" />
    <glyph glyph-name="Oslash" unicode="&#xd8;" horiz-adv-x="631" 
d="M109 -113l-37 22l90 133c-31 33 -45 83 -45 155c0 163 55 339 159 435c51 46 112 73 183 73c55 0 100 -10 134 -31l82 120l41 -18l-89 -130c31 -34 46 -83 46 -148c0 -170 -54 -352 -167 -445c-48 -40 -109 -63 -178 -63c-55 0 -99 8 -131 25zM200 98l173 254l186 272
c-25 18 -59 26 -104 26c-43 0 -82 -14 -115 -40c-107 -83 -160 -275 -160 -411c0 -44 6 -77 20 -101zM334 45c48 0 89 15 123 42c104 82 152 265 152 408c0 39 -7 71 -20 95l-177 -260l-180 -264c24 -15 57 -21 102 -21z" />
    <glyph glyph-name="Ugrave" unicode="&#xd9;" horiz-adv-x="593" 
d="M393 925l175 -95l-26 -43l-178 88zM297 695l-111 -482c-6 -24 -10 -53 -10 -74c0 -67 54 -93 139 -93c115 0 164 54 188 160l113 489h62l-113 -490c-33 -142 -103 -215 -254 -215c-118 0 -196 44 -196 142c0 24 4 60 11 86l110 477h61z" />
    <glyph glyph-name="Uacute" unicode="&#xda;" horiz-adv-x="593" 
d="M297 695l-111 -482c-6 -24 -10 -53 -10 -74c0 -67 54 -93 139 -93c115 0 164 54 188 160l113 489h62l-113 -490c-33 -142 -103 -215 -254 -215c-118 0 -196 44 -196 142c0 24 4 60 11 86l110 477h61zM391 790l-8 45l219 95l9 -52z" />
    <glyph glyph-name="Ucircumflex" unicode="&#xdb;" horiz-adv-x="593" 
d="M297 695l-111 -482c-6 -24 -10 -53 -10 -74c0 -67 54 -93 139 -93c115 0 164 54 188 160l113 489h62l-113 -490c-33 -142 -103 -215 -254 -215c-118 0 -196 44 -196 142c0 24 4 60 11 86l110 477h61zM329 797l161 134h30l97 -134h-56l-61 86l-105 -86h-66z" />
    <glyph glyph-name="Udieresis" unicode="&#xdc;" horiz-adv-x="593" 
d="M354 820l19 82h56l-19 -82h-56zM540 820l18 82h56l-20 -82h-54zM297 695l-111 -482c-6 -24 -10 -53 -10 -74c0 -67 54 -93 139 -93c115 0 164 54 188 160l113 489h62l-113 -490c-33 -142 -103 -215 -254 -215c-118 0 -196 44 -196 142c0 24 4 60 11 86l110 477h61z" />
    <glyph glyph-name="Yacute" unicode="&#xdd;" horiz-adv-x="490" 
d="M344 790l-8 45l219 95l9 -52zM635 695l-295 -397l-70 -298h-59l70 304l-108 391h62l89 -337l245 337h66z" />
    <glyph glyph-name="Thorn" unicode="&#xde;" horiz-adv-x="551" 
d="M356 183c102 0 155 79 181 179c21 85 8 162 -105 162l-169 1l-81 -342h174zM343 125h-175l-29 -125h-60l164 697h60l-27 -115h170c145 0 177 -100 151 -220c-30 -138 -115 -237 -254 -237z" />
    <glyph glyph-name="germandbls" unicode="&#xdf;" horiz-adv-x="532" 
d="M125 0h-57l125 531c35 149 95 201 215 201c106 0 155 -42 155 -114c0 -81 -37 -125 -97 -154c-59 -29 -81 -44 -81 -70c0 -25 9 -37 61 -69c68 -42 93 -59 93 -128c0 -125 -81 -207 -222 -207c-52 0 -118 18 -118 18l11 48s65 -13 106 -13c103 0 162 60 162 149
c0 42 -14 57 -80 97c-57 35 -74 58 -74 95c0 54 26 77 101 116c54 28 77 57 77 111c0 45 -27 69 -98 69c-92 0 -131 -45 -156 -156z" />
    <glyph glyph-name="agrave" unicode="&#xe0;" horiz-adv-x="493" 
d="M216 -10c-86 0 -125 53 -125 141c0 161 86 379 251 379c61 0 194 -24 194 -24l-76 -325c-15 -63 -28 -160 -28 -160l-58 -2s15 93 19 114c0 0 -88 -123 -177 -123zM343 457c-125 0 -190 -193 -190 -326c0 -56 20 -88 80 -88c69 0 173 141 173 141l61 258s-72 15 -124 15z
M335 734l176 -94l-28 -41l-177 88z" />
    <glyph glyph-name="aacute" unicode="&#xe1;" horiz-adv-x="493" 
d="M216 -10c-86 0 -125 53 -125 141c0 161 86 379 251 379c61 0 194 -24 194 -24l-76 -325c-15 -63 -28 -160 -28 -160l-58 -2s15 93 19 114c0 0 -88 -123 -177 -123zM343 457c-125 0 -190 -193 -190 -326c0 -56 20 -88 80 -88c69 0 173 141 173 141l61 258s-72 15 -124 15z
M341 601l-6 46l218 94l7 -53z" />
    <glyph glyph-name="acircumflex" unicode="&#xe2;" horiz-adv-x="493" 
d="M248 590l151 145h42l87 -145h-62l-54 92l-97 -92h-67zM216 -10c-86 0 -125 53 -125 141c0 161 86 379 251 379c61 0 194 -24 194 -24l-76 -325c-15 -63 -28 -160 -28 -160l-58 -2s15 93 19 114c0 0 -88 -123 -177 -123zM343 457c-125 0 -190 -193 -190 -326
c0 -56 20 -88 80 -88c69 0 173 141 173 141l61 258s-72 15 -124 15z" />
    <glyph glyph-name="atilde" unicode="&#xe3;" horiz-adv-x="493" 
d="M216 -10c-86 0 -125 53 -125 141c0 161 86 379 251 379c61 0 194 -24 194 -24l-76 -325c-15 -63 -28 -160 -28 -160l-58 -2s15 93 19 114c0 0 -88 -123 -177 -123zM343 457c-125 0 -190 -193 -190 -326c0 -56 20 -88 80 -88c69 0 173 141 173 141l61 258s-72 15 -124 15z
M567 714l4 -46s-54 -48 -88 -48c-37 0 -99 49 -128 49c-21 0 -78 -44 -78 -44l-2 47s60 50 94 50c40 0 99 -49 125 -49c19 0 73 41 73 41z" />
    <glyph glyph-name="adieresis" unicode="&#xe4;" horiz-adv-x="493" 
d="M272 625l19 82h56l-20 -82h-55zM458 625l17 82h56l-19 -82h-54zM216 -10c-86 0 -125 53 -125 141c0 161 86 379 251 379c61 0 194 -24 194 -24l-76 -325c-15 -63 -28 -160 -28 -160l-58 -2s15 93 19 114c0 0 -88 -123 -177 -123zM343 457c-125 0 -190 -193 -190 -326
c0 -56 20 -88 80 -88c69 0 173 141 173 141l61 258s-72 15 -124 15z" />
    <glyph glyph-name="aring" unicode="&#xe5;" horiz-adv-x="493" 
d="M216 -10c-86 0 -125 53 -125 141c0 161 86 379 251 379c61 0 194 -24 194 -24l-76 -325c-15 -63 -28 -160 -28 -160l-58 -2s15 93 19 114c0 0 -88 -123 -177 -123zM343 457c-125 0 -190 -193 -190 -326c0 -56 20 -88 80 -88c69 0 173 141 173 141l61 258s-72 15 -124 15z
M337 664c10 50 53 95 113 95c48 0 71 -31 67 -79c-4 -65 -54 -111 -114 -111c-59 0 -76 41 -66 95zM376 664c-6 -26 8 -54 38 -54s56 24 63 54c7 26 -8 52 -37 52c-30 0 -57 -23 -64 -52z" />
    <glyph glyph-name="ae" unicode="&#xe6;" horiz-adv-x="757" 
d="M533 47c68 0 174 9 174 9l-11 -52s-104 -14 -179 -14c-64 0 -105 20 -125 56c-57 -24 -163 -56 -227 -56c-88 0 -112 74 -96 152c19 98 87 132 179 146c53 8 105 13 155 16c16 48 44 146 -51 146c-69 0 -179 -11 -179 -11l9 57s112 13 185 13c58 0 102 -28 109 -81
c43 56 104 81 173 81c91 0 140 -42 142 -135c0 -33 -4 -67 -14 -103l-13 -48l-314 2c-8 -33 -13 -63 -12 -88c1 -57 25 -90 95 -90zM183 46c54 0 144 26 195 44c-11 53 3 106 15 162c-60 -6 -110 -11 -152 -17c-57 -9 -95 -35 -109 -92c-11 -42 -5 -97 51 -97zM461 276
l258 -2c9 36 14 66 13 91c-1 62 -33 89 -96 89c-87 0 -145 -52 -175 -178z" />
    <glyph glyph-name="ccedilla" unicode="&#xe7;" horiz-adv-x="405" 
d="M358 510c54 0 119 -16 119 -16l-15 -48s-62 11 -106 11c-138 0 -200 -158 -200 -310c0 -67 30 -104 110 -104c39 0 113 16 113 16l-3 -48s-68 -21 -128 -21h-3l-10 -38h5c53 0 93 -18 80 -76s-47 -83 -104 -83c-41 0 -78 6 -78 6l11 44s39 -4 67 -4s45 11 52 39
c7 30 -12 36 -34 36h-44l19 79c-78 12 -114 62 -114 144c0 191 83 373 263 373z" />
    <glyph glyph-name="egrave" unicode="&#xe8;" horiz-adv-x="458" 
d="M256 44c74 0 164 25 164 25l-4 -49s-87 -30 -176 -30c-91 0 -147 49 -147 148c0 170 83 371 269 371c85 0 141 -33 141 -114c0 -121 -95 -159 -281 -159h-56c-7 -29 -12 -67 -12 -92c0 -65 41 -100 102 -100zM175 285h59c140 0 209 23 209 109c0 47 -30 64 -84 64
c-99 0 -153 -71 -184 -173zM257 734l176 -94l-28 -41l-177 88z" />
    <glyph glyph-name="eacute" unicode="&#xe9;" horiz-adv-x="458" 
d="M256 44c74 0 164 25 164 25l-4 -49s-87 -30 -176 -30c-91 0 -147 49 -147 148c0 170 83 371 269 371c85 0 141 -33 141 -114c0 -121 -95 -159 -281 -159h-56c-7 -29 -12 -67 -12 -92c0 -65 41 -100 102 -100zM175 285h59c140 0 209 23 209 109c0 47 -30 64 -84 64
c-99 0 -153 -71 -184 -173zM305 601l-6 46l218 94l7 -53z" />
    <glyph glyph-name="ecircumflex" unicode="&#xea;" horiz-adv-x="458" 
d="M228 590l152 145h41l87 -145h-61l-54 92l-97 -92h-68zM256 44c74 0 164 25 164 25l-4 -49s-87 -30 -176 -30c-91 0 -147 49 -147 148c0 170 83 371 269 371c85 0 141 -33 141 -114c0 -121 -95 -159 -281 -159h-56c-7 -29 -12 -67 -12 -92c0 -65 41 -100 102 -100z
M175 285h59c140 0 209 23 209 109c0 47 -30 64 -84 64c-99 0 -153 -71 -184 -173z" />
    <glyph glyph-name="edieresis" unicode="&#xeb;" horiz-adv-x="458" 
d="M263 625l19 82h56l-19 -82h-56zM449 625l18 82h56l-20 -82h-54zM256 44c74 0 164 25 164 25l-4 -49s-87 -30 -176 -30c-91 0 -147 49 -147 148c0 170 83 371 269 371c85 0 141 -33 141 -114c0 -121 -95 -159 -281 -159h-56c-7 -29 -12 -67 -12 -92
c0 -65 41 -100 102 -100zM175 285h59c140 0 209 23 209 109c0 47 -30 64 -84 64c-99 0 -153 -71 -184 -173z" />
    <glyph glyph-name="igrave" unicode="&#xec;" horiz-adv-x="197" 
d="M68 0l116 500h60l-116 -500h-60zM107 734l176 -94l-28 -41l-177 88z" />
    <glyph glyph-name="iacute" unicode="&#xed;" horiz-adv-x="197" 
d="M68 0l116 500h60l-116 -500h-60zM196 601l-6 46l218 94l7 -53z" />
    <glyph glyph-name="icircumflex" unicode="&#xee;" horiz-adv-x="197" 
d="M88 590l151 145h42l86 -145h-61l-54 92l-97 -92h-67zM68 0l116 500h60l-116 -500h-60z" />
    <glyph glyph-name="idieresis" unicode="&#xef;" horiz-adv-x="197" 
d="M107 625l19 82h56l-20 -82h-55zM293 625l17 82h56l-19 -82h-54zM68 0l116 500h60l-116 -500h-60z" />
    <glyph glyph-name="eth" unicode="&#xf0;" horiz-adv-x="514" 
d="M399 607l-119 -74l-24 39l98 61c-31 16 -65 28 -99 39l25 54c53 -13 99 -31 137 -53l108 68l23 -40l-89 -56c86 -67 117 -164 88 -287c-62 -261 -157 -367 -300 -367c-127 0 -173 79 -165 165c9 167 124 273 256 273c72 0 155 -39 155 -39c17 103 -26 171 -94 217z
M329 370c-100 0 -179 -91 -182 -210c-5 -64 28 -109 114 -109c111 0 177 114 219 280c-4 3 -85 39 -151 39z" />
    <glyph glyph-name="ntilde" unicode="&#xf1;" horiz-adv-x="494" 
d="M68 0h60l77 331s93 125 168 125c51 0 75 -29 75 -79c0 -37 -11 -91 -19 -125l-59 -252h59l60 256c9 38 20 89 20 131c0 74 -40 123 -117 123c-90 0 -171 -107 -171 -107l21 97h-58zM547 714l4 -46s-54 -48 -88 -48c-37 0 -99 49 -128 49c-21 0 -78 -44 -78 -44l-2 47
s60 50 94 50c40 0 99 -49 125 -49c19 0 73 41 73 41z" />
    <glyph glyph-name="ograve" unicode="&#xf2;" horiz-adv-x="494" 
d="M345 509c110 0 168 -55 168 -165c0 -190 -98 -354 -255 -354c-107 0 -164 48 -164 158c0 194 104 361 251 361zM258 43c118 0 194 141 194 302c0 66 -34 112 -107 112c-114 0 -191 -148 -191 -309c0 -68 34 -105 104 -105zM284 734l176 -94l-28 -41l-177 88z" />
    <glyph glyph-name="oacute" unicode="&#xf3;" horiz-adv-x="494" 
d="M345 509c110 0 168 -55 168 -165c0 -190 -98 -354 -255 -354c-107 0 -164 48 -164 158c0 194 104 361 251 361zM258 43c118 0 194 141 194 302c0 66 -34 112 -107 112c-114 0 -191 -148 -191 -309c0 -68 34 -105 104 -105zM306 601l-6 46l218 94l7 -53z" />
    <glyph glyph-name="ocircumflex" unicode="&#xf4;" horiz-adv-x="494" 
d="M244 590l152 145h41l87 -145h-62l-54 92l-97 -92h-67zM345 509c110 0 168 -55 168 -165c0 -190 -98 -354 -255 -354c-107 0 -164 48 -164 158c0 194 104 361 251 361zM258 43c118 0 194 141 194 302c0 66 -34 112 -107 112c-114 0 -191 -148 -191 -309
c0 -68 34 -105 104 -105z" />
    <glyph glyph-name="otilde" unicode="&#xf5;" horiz-adv-x="494" 
d="M345 509c110 0 168 -55 168 -165c0 -190 -98 -354 -255 -354c-107 0 -164 48 -164 158c0 194 104 361 251 361zM258 43c118 0 194 141 194 302c0 66 -34 112 -107 112c-114 0 -191 -148 -191 -309c0 -68 34 -105 104 -105zM534 714l4 -46s-54 -48 -88 -48
c-37 0 -99 49 -128 49c-21 0 -78 -44 -78 -44l-2 47s60 50 94 50c40 0 99 -49 125 -49c19 0 73 41 73 41z" />
    <glyph glyph-name="odieresis" unicode="&#xf6;" horiz-adv-x="494" 
d="M345 509c110 0 168 -55 168 -165c0 -190 -98 -354 -255 -354c-107 0 -164 48 -164 158c0 194 104 361 251 361zM258 43c118 0 194 141 194 302c0 66 -34 112 -107 112c-114 0 -191 -148 -191 -309c0 -68 34 -105 104 -105zM271 625l19 82h49l-19 -82h-49zM450 625l18 82
h49l-19 -82h-48z" />
    <glyph glyph-name="divide" unicode="&#xf7;" 
d="M155 263v59h366v-59h-366zM266 335v90h144v-90h-144zM307 33v93h61v-93h-61z" />
    <glyph glyph-name="oslash" unicode="&#xf8;" horiz-adv-x="493" 
d="M346 511c33 0 62 -6 86 -16l67 109l38 -16l-72 -113c32 -28 49 -71 49 -129c0 -190 -98 -354 -255 -354c-34 0 -63 5 -87 15l-73 -119l-38 16l78 123c-29 26 -44 66 -44 123c0 194 104 361 251 361zM259 45c118 0 194 141 194 302c0 29 -7 55 -21 74l-115 -181l-114 -184
c15 -8 34 -11 56 -11zM173 81l112 177l117 189c-15 8 -34 12 -56 12c-114 0 -191 -148 -191 -309c0 -29 6 -52 18 -69z" />
    <glyph glyph-name="ugrave" unicode="&#xf9;" horiz-adv-x="494" 
d="M286 734l176 -94l-28 -41l-177 88zM481 500h60l-116 -500h-58l21 97s-81 -107 -171 -107c-76 0 -117 49 -117 122c0 43 11 94 20 132l60 256h59l-59 -252c-8 -34 -19 -88 -19 -125c0 -50 26 -79 75 -79c75 0 168 124 168 124z" />
    <glyph glyph-name="uacute" unicode="&#xfa;" horiz-adv-x="494" 
d="M481 500h60l-116 -500h-58l21 97s-81 -107 -171 -107c-76 0 -117 49 -117 122c0 43 11 94 20 132l60 256h59l-59 -252c-8 -34 -19 -88 -19 -125c0 -50 26 -79 75 -79c75 0 168 124 168 124zM319 601l-6 46l218 94l7 -53z" />
    <glyph glyph-name="ucircumflex" unicode="&#xfb;" horiz-adv-x="494" 
d="M225 590l152 145h41l87 -145h-61l-54 92l-97 -92h-68zM481 500h60l-116 -500h-58l21 97s-81 -107 -171 -107c-76 0 -117 49 -117 122c0 43 11 94 20 132l60 256h59l-59 -252c-8 -34 -19 -88 -19 -125c0 -50 26 -79 75 -79c75 0 168 124 168 124z" />
    <glyph glyph-name="udieresis" unicode="&#xfc;" horiz-adv-x="494" 
d="M256 625l19 82h56l-19 -82h-56zM442 625l18 82h56l-20 -82h-54zM481 500h60l-116 -500h-58l21 97s-81 -107 -171 -107c-76 0 -117 49 -117 122c0 43 11 94 20 132l60 256h59l-59 -252c-8 -34 -19 -88 -19 -125c0 -50 26 -79 75 -79c75 0 168 124 168 124z" />
    <glyph glyph-name="yacute" unicode="&#xfd;" horiz-adv-x="452" 
d="M142 500h59l14 -448h34l229 448h63l-374 -724h-61l118 224h-65zM293 601l-6 46l218 94l7 -53z" />
    <glyph glyph-name="thorn" unicode="&#xfe;" horiz-adv-x="480" 
d="M382 509c138 0 138 -150 110 -250c-49 -183 -122 -269 -264 -269c-50 0 -104 8 -104 10l-53 -223h-56l223 943h57l-66 -274c11 8 83 63 153 63zM214 384l-77 -327l101 -10c107 0 157 71 196 212c20 71 23 193 -69 193c-71 0 -151 -70 -151 -68z" />
    <glyph glyph-name="ydieresis" unicode="&#xff;" horiz-adv-x="452" 
d="M235 625l19 82h56l-19 -82h-56zM421 625l18 82h56l-20 -82h-54zM142 500h59l14 -448h34l229 448h63l-374 -724h-61l118 224h-65z" />
    <glyph glyph-name="Amacron" unicode="&#x100;" horiz-adv-x="555" 
d="M322 835l10 46h286l-12 -46h-284zM27 0l355 695h126l23 -695h-61l-8 191h-274l-99 -191h-62zM417 640l-202 -395h247l-13 395h-32z" />
    <glyph glyph-name="amacron" unicode="&#x101;" horiz-adv-x="493" 
d="M216 -10c-86 0 -125 53 -125 141c0 161 86 379 251 379c61 0 194 -24 194 -24l-76 -325c-15 -63 -28 -160 -28 -160l-58 -2s15 93 19 114c0 0 -88 -123 -177 -123zM343 457c-125 0 -190 -193 -190 -326c0 -56 20 -88 80 -88c69 0 173 141 173 141l61 258s-72 15 -124 15z
M287 642l11 47h267l-12 -47h-266z" />
    <glyph glyph-name="Abreve" unicode="&#x102;" horiz-adv-x="555" 
d="M353 921h53c-10 -58 17 -75 64 -75c45 0 88 30 100 75h53c-22 -78 -81 -123 -164 -123c-80 0 -121 40 -106 123zM27 0l355 695h126l23 -695h-61l-8 191h-274l-99 -191h-62zM417 640l-202 -395h247l-13 395h-32z" />
    <glyph glyph-name="abreve" unicode="&#x103;" horiz-adv-x="493" 
d="M216 -10c-86 0 -125 53 -125 141c0 161 86 379 251 379c61 0 194 -24 194 -24l-76 -325c-15 -63 -28 -160 -28 -160l-58 -2s15 93 19 114c0 0 -88 -123 -177 -123zM343 457c-125 0 -190 -193 -190 -326c0 -56 20 -88 80 -88c69 0 173 141 173 141l61 258s-72 15 -124 15z
M307 727h51c-12 -48 8 -84 66 -84c60 0 93 36 106 84h52c-23 -80 -73 -133 -173 -133c-84 0 -119 56 -102 133z" />
    <glyph glyph-name="Aogonek" unicode="&#x104;" horiz-adv-x="555" 
d="M27 0l355 695h126l23 -692h1l-1 -1v-2h-3c-32 -25 -94 -88 -94 -126c0 -14 10 -22 28 -22c16 0 51 6 51 6l-6 -51s-42 -9 -71 -9c-45 0 -68 23 -68 60c0 49 65 114 102 145l-8 188h-274l-99 -191h-62zM417 640l-202 -395h247l-13 395h-32z" />
    <glyph glyph-name="aogonek" unicode="&#x105;" horiz-adv-x="493" 
d="M411 -142l-6 -51s-42 -9 -71 -9c-45 0 -68 23 -68 60c0 53 74 124 109 151c4 22 14 86 18 104c0 0 -88 -123 -177 -123c-86 0 -125 53 -125 141c0 161 86 379 251 379c61 0 194 -24 194 -24l-76 -325c-15 -63 -28 -160 -28 -160h-5c-31 -24 -95 -89 -95 -127
c0 -14 10 -22 28 -22c16 0 51 6 51 6zM343 457c-125 0 -190 -193 -190 -326c0 -56 20 -88 80 -88c69 0 173 141 173 141l61 258s-72 15 -124 15z" />
    <glyph glyph-name="Cacute" unicode="&#x106;" horiz-adv-x="506" 
d="M476 63l-3 -51s-89 -22 -168 -22c-127 0 -190 69 -190 199c0 212 106 516 349 516c78 0 165 -22 165 -22l-14 -50s-81 16 -155 16c-186 0 -281 -262 -281 -458c0 -98 41 -145 135 -145c79 0 162 17 162 17zM417 790l-8 45l219 95l9 -52z" />
    <glyph glyph-name="cacute" unicode="&#x107;" horiz-adv-x="404" 
d="M358 510c54 0 119 -16 119 -16l-15 -48s-62 11 -106 11c-138 0 -200 -158 -200 -310c0 -67 30 -104 110 -104c39 0 113 16 113 16l-3 -48s-68 -21 -128 -21c-104 0 -153 53 -153 147c0 191 83 373 263 373zM300 601l-6 46l218 94l7 -53z" />
    <glyph glyph-name="Ccircumflex" unicode="&#x108;" horiz-adv-x="506" 
d="M476 63l-3 -51s-89 -22 -168 -22c-127 0 -190 69 -190 199c0 212 106 516 349 516c78 0 165 -22 165 -22l-14 -50s-81 16 -155 16c-186 0 -281 -262 -281 -458c0 -98 41 -145 135 -145c79 0 162 17 162 17zM346 797l161 134h30l97 -134h-56l-61 86l-105 -86h-66z" />
    <glyph glyph-name="ccircumflex" unicode="&#x109;" horiz-adv-x="404" 
d="M358 510c54 0 119 -16 119 -16l-15 -48s-62 11 -106 11c-138 0 -200 -158 -200 -310c0 -67 30 -104 110 -104c39 0 113 16 113 16l-3 -48s-68 -21 -128 -21c-104 0 -153 53 -153 147c0 191 83 373 263 373zM234 590l151 145h31l87 -145h-56l-54 92l-97 -92h-62z" />
    <glyph glyph-name="Cdotaccent" unicode="&#x10a;" horiz-adv-x="506" 
d="M476 63l-3 -51s-89 -22 -168 -22c-127 0 -190 69 -190 199c0 212 106 516 349 516c78 0 165 -22 165 -22l-14 -50s-81 16 -155 16c-186 0 -281 -262 -281 -458c0 -98 41 -145 135 -145c79 0 162 17 162 17zM461 798l17 78h50l-17 -78h-50z" />
    <glyph glyph-name="cdotaccent" unicode="&#x10b;" horiz-adv-x="404" 
d="M358 510c54 0 119 -16 119 -16l-15 -48s-62 11 -106 11c-138 0 -200 -158 -200 -310c0 -67 30 -104 110 -104c39 0 113 16 113 16l-3 -48s-68 -21 -128 -21c-104 0 -153 53 -153 147c0 191 83 373 263 373zM341 610l19 78h51l-18 -78h-52z" />
    <glyph glyph-name="Ccaron" unicode="&#x10c;" horiz-adv-x="506" 
d="M476 63l-3 -51s-89 -22 -168 -22c-127 0 -190 69 -190 199c0 212 106 516 349 516c78 0 165 -22 165 -22l-14 -50s-81 16 -155 16c-186 0 -281 -262 -281 -458c0 -98 41 -145 135 -145c79 0 162 17 162 17zM663 930l-156 -134h-36l-98 134h59l65 -89l103 89h63z" />
    <glyph glyph-name="ccaron" unicode="&#x10d;" horiz-adv-x="404" 
d="M387 590h-32l-85 145h55l57 -95l99 95h62zM358 510c54 0 119 -16 119 -16l-15 -48s-62 11 -106 11c-138 0 -200 -158 -200 -310c0 -67 30 -104 110 -104c39 0 113 16 113 16l-3 -48s-68 -21 -128 -21c-104 0 -153 53 -153 147c0 191 83 373 263 373z" />
    <glyph glyph-name="Dcaron" unicode="&#x10e;" horiz-adv-x="607" 
d="M81 0h238c228 0 330 281 330 489c0 144 -61 206 -183 206h-225zM585 489c0 -171 -86 -434 -256 -434h-173l134 585h164c94 0 131 -46 131 -151zM621 930l-156 -134h-36l-98 134h59l65 -89l103 89h63z" />
    <glyph glyph-name="dcaron" unicode="&#x10f;" horiz-adv-x="530" 
d="M700 695l-53 -228h-55l54 228h54zM591 722l-168 -722h-58l22 98s-81 -108 -174 -108c-80 0 -122 46 -122 139c0 170 91 380 249 380c63 0 137 -17 137 -17l54 230h60zM404 172l62 270s-67 15 -126 15c-121 0 -187 -195 -187 -328c0 -55 25 -86 78 -86
c74 0 173 129 173 129z" />
    <glyph glyph-name="Dcroat" unicode="&#x110;" horiz-adv-x="611" 
d="M322 0h-238l73 318h-70l13 62h71l73 315h225c122 0 183 -62 183 -206c0 -208 -102 -489 -330 -489zM588 489c0 105 -37 151 -131 151h-164l-60 -260h149l-14 -62h-149l-60 -263h173c170 0 256 263 256 434z" />
    <glyph glyph-name="dcroat" unicode="&#x111;" horiz-adv-x="493" 
d="M591 722l-16 -66h56l-13 -57h-56l-139 -599h-58l22 98s-81 -108 -174 -108c-80 0 -122 46 -122 139c0 170 91 380 249 380c63 0 137 -17 137 -17l25 107h-150l12 57h151l16 66h60zM404 172l62 270s-67 15 -126 15c-121 0 -187 -195 -187 -328c0 -55 25 -86 78 -86
c74 0 173 129 173 129z" />
    <glyph glyph-name="Emacron" unicode="&#x112;" horiz-adv-x="507" 
d="M313 828l10 46h286l-12 -46h-284zM81 0l160 695h383l-13 -55h-321l-60 -258h266l-13 -55h-265l-63 -272h321l-13 -55h-382z" />
    <glyph glyph-name="emacron" unicode="&#x113;" horiz-adv-x="458" 
d="M256 44c74 0 164 25 164 25l-4 -49s-87 -30 -176 -30c-91 0 -147 49 -147 148c0 170 83 371 269 371c85 0 141 -33 141 -114c0 -121 -95 -159 -281 -159h-56c-7 -29 -12 -67 -12 -92c0 -65 41 -100 102 -100zM175 285h59c140 0 209 23 209 109c0 47 -30 64 -84 64
c-99 0 -153 -71 -184 -173zM264 642l11 47h267l-12 -47h-266z" />
    <glyph glyph-name="Ebreve" unicode="&#x114;" horiz-adv-x="507" 
d="M340 922h53c-10 -58 17 -75 64 -75c45 0 88 30 100 75h53c-22 -78 -81 -123 -164 -123c-80 0 -121 40 -106 123zM81 0l160 695h383l-13 -55h-321l-60 -258h266l-13 -55h-265l-63 -272h321l-13 -55h-382z" />
    <glyph glyph-name="ebreve" unicode="&#x115;" horiz-adv-x="458" 
d="M256 44c74 0 164 25 164 25l-4 -49s-87 -30 -176 -30c-91 0 -147 49 -147 148c0 170 83 371 269 371c85 0 141 -33 141 -114c0 -121 -95 -159 -281 -159h-56c-7 -29 -12 -67 -12 -92c0 -65 41 -100 102 -100zM175 285h59c140 0 209 23 209 109c0 47 -30 64 -84 64
c-99 0 -153 -71 -184 -173zM277 727h51c-12 -48 8 -84 66 -84c60 0 93 36 106 84h52c-23 -80 -73 -133 -173 -133c-84 0 -119 56 -102 133z" />
    <glyph glyph-name="Edotaccent" unicode="&#x116;" horiz-adv-x="507" 
d="M430 844l17 78h50l-17 -78h-50zM81 0l160 695h383l-13 -55h-321l-60 -258h266l-13 -55h-265l-63 -272h321l-13 -55h-382z" />
    <glyph glyph-name="edotaccent" unicode="&#x117;" horiz-adv-x="458" 
d="M256 44c74 0 164 25 164 25l-4 -49s-87 -30 -176 -30c-91 0 -147 49 -147 148c0 170 83 371 269 371c85 0 141 -33 141 -114c0 -121 -95 -159 -281 -159h-56c-7 -29 -12 -67 -12 -92c0 -65 41 -100 102 -100zM175 285h59c140 0 209 23 209 109c0 47 -30 64 -84 64
c-99 0 -153 -71 -184 -173zM346 610l19 78h51l-18 -78h-52z" />
    <glyph glyph-name="Eogonek" unicode="&#x118;" horiz-adv-x="507" 
d="M81 0l160 695h383l-13 -55h-321l-60 -258h266l-13 -55h-265l-63 -272h321l-13 -55h-22c-32 -25 -94 -88 -94 -126c0 -14 10 -22 28 -22c16 0 51 6 51 6l-6 -51s-42 -9 -71 -9c-45 0 -68 23 -68 60c0 48 60 110 98 142h-298z" />
    <glyph glyph-name="eogonek" unicode="&#x119;" horiz-adv-x="458" 
d="M394 -122l-6 -51s-42 -9 -71 -9c-45 0 -68 23 -68 60c0 38 38 86 73 120c-26 -5 -53 -8 -82 -8c-91 0 -147 49 -147 148c0 170 83 371 269 371c85 0 141 -33 141 -114c0 -121 -95 -159 -281 -159h-56c-7 -29 -12 -67 -12 -92c0 -65 41 -100 102 -100c74 0 164 25 164 25
l-4 -49s-5 -2 -12 -4c-32 -27 -89 -86 -89 -122c0 -14 10 -22 28 -22c16 0 51 6 51 6zM175 285h59c140 0 209 23 209 109c0 47 -30 64 -84 64c-99 0 -153 -71 -184 -173z" />
    <glyph glyph-name="Ecaron" unicode="&#x11a;" horiz-adv-x="507" 
d="M617 934l-156 -134h-36l-98 134h59l65 -89l103 89h63zM81 0l160 695h383l-13 -55h-321l-60 -258h266l-13 -55h-265l-63 -272h321l-13 -55h-382z" />
    <glyph glyph-name="ecaron" unicode="&#x11b;" horiz-adv-x="458" 
d="M256 44c74 0 164 25 164 25l-4 -49s-87 -30 -176 -30c-91 0 -147 49 -147 148c0 170 83 371 269 371c85 0 141 -33 141 -114c0 -121 -95 -159 -281 -159h-56c-7 -29 -12 -67 -12 -92c0 -65 41 -100 102 -100zM175 285h59c140 0 209 23 209 109c0 47 -30 64 -84 64
c-99 0 -153 -71 -184 -173zM399 590h-32l-85 145h55l57 -95l99 95h62z" />
    <glyph glyph-name="Gcircumflex" unicode="&#x11c;" horiz-adv-x="573" 
d="M349 785l151 145h42l86 -145h-61l-54 92l-97 -92h-67zM403 301l12 53h177l-79 -336s-93 -28 -193 -28c-131 0 -204 61 -204 192c0 242 109 523 353 523c99 0 198 -29 198 -29l-16 -48s-101 22 -190 22c-196 0 -281 -273 -281 -469c0 -95 52 -136 146 -136
c62 0 136 18 136 18l56 238h-115z" />
    <glyph glyph-name="gcircumflex" unicode="&#x11d;" horiz-adv-x="464" 
d="M189 -237c-104 0 -169 51 -169 130c0 77 77 126 135 157c-9 9 -15 22 -15 41c0 44 53 98 53 98c-45 20 -69 58 -69 118c0 92 70 203 200 203c52 0 90 -16 90 -16l148 6l-12 -53h-97c11 -17 19 -39 19 -73c0 -87 -66 -201 -211 -201c-11 0 -30 2 -30 2s-35 -44 -35 -73
c0 -25 23 -31 92 -40c110 -13 153 -42 153 -117c0 -94 -94 -182 -252 -182zM277 10c-47 6 -75 12 -88 17c-51 -26 -111 -72 -111 -121c0 -52 38 -91 116 -91c99 0 188 49 188 126c0 46 -29 61 -105 69zM269 224c103 0 146 91 146 143c0 60 -25 91 -95 91
c-90 0 -138 -86 -138 -148c0 -51 22 -86 87 -86zM218 590l151 145h31l87 -145h-56l-54 92l-97 -92h-62z" />
    <glyph glyph-name="Gbreve" unicode="&#x11e;" horiz-adv-x="573" 
d="M384 922h58c-2 -7 -2 -15 -2 -22c0 -34 22 -60 68 -60c55 0 93 34 106 82h57c-22 -80 -88 -140 -181 -140c-71 0 -108 47 -109 104c0 12 1 24 3 36zM403 301l12 53h177l-79 -336s-93 -28 -193 -28c-131 0 -204 61 -204 192c0 242 109 523 353 523c99 0 198 -29 198 -29
l-16 -48s-101 22 -190 22c-196 0 -281 -273 -281 -469c0 -95 52 -136 146 -136c62 0 136 18 136 18l56 238h-115z" />
    <glyph glyph-name="gbreve" unicode="&#x11f;" horiz-adv-x="464" 
d="M189 -237c-104 0 -169 51 -169 130c0 77 77 126 135 157c-9 9 -15 22 -15 41c0 44 53 98 53 98c-45 20 -69 58 -69 118c0 92 70 203 200 203c52 0 90 -16 90 -16l148 6l-12 -53h-97c11 -17 19 -39 19 -73c0 -87 -66 -201 -211 -201c-11 0 -30 2 -30 2s-35 -44 -35 -73
c0 -25 23 -31 92 -40c110 -13 153 -42 153 -117c0 -94 -94 -182 -252 -182zM277 10c-47 6 -75 12 -88 17c-51 -26 -111 -72 -111 -121c0 -52 38 -91 116 -91c99 0 188 49 188 126c0 46 -29 61 -105 69zM269 224c103 0 146 91 146 143c0 60 -25 91 -95 91
c-90 0 -138 -86 -138 -148c0 -51 22 -86 87 -86zM276 727h51c-12 -48 8 -84 66 -84c60 0 93 36 106 84h52c-23 -80 -73 -133 -173 -133c-84 0 -119 56 -102 133z" />
    <glyph glyph-name="Gdotaccent" unicode="&#x120;" horiz-adv-x="573" 
d="M476 813l18 78h57l-18 -78h-57zM403 301l12 53h177l-79 -336s-93 -28 -193 -28c-131 0 -204 61 -204 192c0 242 109 523 353 523c99 0 198 -29 198 -29l-16 -48s-101 22 -190 22c-196 0 -281 -273 -281 -469c0 -95 52 -136 146 -136c62 0 136 18 136 18l56 238h-115z" />
    <glyph glyph-name="gdotaccent" unicode="&#x121;" horiz-adv-x="464" 
d="M189 -237c-104 0 -169 51 -169 130c0 77 77 126 135 157c-9 9 -15 22 -15 41c0 44 53 98 53 98c-45 20 -69 58 -69 118c0 92 70 203 200 203c52 0 90 -16 90 -16l148 6l-12 -53h-97c11 -17 19 -39 19 -73c0 -87 -66 -201 -211 -201c-11 0 -30 2 -30 2s-35 -44 -35 -73
c0 -25 23 -31 92 -40c110 -13 153 -42 153 -117c0 -94 -94 -182 -252 -182zM277 10c-47 6 -75 12 -88 17c-51 -26 -111 -72 -111 -121c0 -52 38 -91 116 -91c99 0 188 49 188 126c0 46 -29 61 -105 69zM269 224c103 0 146 91 146 143c0 60 -25 91 -95 91
c-90 0 -138 -86 -138 -148c0 -51 22 -86 87 -86zM331 610l19 78h51l-18 -78h-52z" />
    <glyph glyph-name="Gcommaaccent" unicode="&#x122;" horiz-adv-x="573" 
d="M403 301l12 53h177l-79 -336s-93 -28 -193 -28c-131 0 -204 61 -204 192c0 242 109 523 353 523c99 0 198 -29 198 -29l-16 -48s-101 22 -190 22c-196 0 -281 -273 -281 -469c0 -95 52 -136 146 -136c62 0 136 18 136 18l56 238h-115zM264 -73l-85 -203h48l93 203h-56z
" />
    <glyph glyph-name="gcommaaccent" unicode="&#x123;" horiz-adv-x="464" 
d="M412 788h49l-85 -203h-56zM189 -237c-104 0 -169 51 -169 130c0 77 77 126 135 157c-9 9 -15 22 -15 41c0 44 53 98 53 98c-45 20 -69 58 -69 118c0 92 70 203 200 203c52 0 90 -16 90 -16l148 6l-12 -53h-97c11 -17 19 -39 19 -73c0 -87 -66 -201 -211 -201
c-11 0 -30 2 -30 2s-35 -44 -35 -73c0 -25 23 -31 92 -40c110 -13 153 -42 153 -117c0 -94 -94 -182 -252 -182zM277 10c-47 6 -75 12 -88 17c-51 -26 -111 -72 -111 -121c0 -52 38 -91 116 -91c99 0 188 49 188 126c0 46 -29 61 -105 69zM269 224c103 0 146 91 146 143
c0 60 -25 91 -95 91c-90 0 -138 -86 -138 -148c0 -51 22 -86 87 -86z" />
    <glyph glyph-name="Hcircumflex" unicode="&#x124;" horiz-adv-x="624" 
d="M482 0l74 322h-340l-74 -322h-61l160 695h62l-74 -318h340l74 318h61l-160 -695h-62zM342 797l161 134h30l97 -134h-56l-61 86l-105 -86h-66z" />
    <glyph glyph-name="hcircumflex" unicode="&#x125;" horiz-adv-x="495" 
d="M129 0h-60l167 722h60l-74 -320s81 108 171 108c76 0 116 -49 116 -123c0 -43 -11 -94 -20 -133l-59 -254h-59l59 252c8 34 18 88 18 125c0 50 -23 79 -74 79c-74 0 -169 -126 -169 -126zM295 767l161 134h30l97 -134h-56l-61 86l-105 -86h-66z" />
    <glyph glyph-name="Hbar" unicode="&#x126;" horiz-adv-x="641" 
d="M123 508v1l12 56h84l30 130h59l-30 -130h346l30 130h58l-30 -130h83l-15 -57h-81l-117 -508h-58l73 320h-346l-73 -320h-59l117 508h-83zM235 379h346l30 129h-346z" />
    <glyph glyph-name="hbar" unicode="&#x127;" horiz-adv-x="495" 
d="M150 591l12 53h56l18 78h60l-18 -78h151l-13 -53h-151l-43 -189s81 108 171 108c76 0 116 -49 116 -123c0 -43 -11 -94 -20 -133l-59 -254h-59l59 252c8 34 18 88 18 125c0 50 -23 79 -74 79c-74 0 -169 -126 -169 -126l-76 -330h-60l136 591h-55z" />
    <glyph glyph-name="Itilde" unicode="&#x128;" horiz-adv-x="223" 
d="M463 906l3 -42s-63 -59 -96 -59c-43 0 -108 59 -139 59c-21 0 -88 -51 -88 -51l-2 44s67 59 102 59c47 0 109 -58 139 -58c19 0 81 48 81 48zM81 0l160 695h62l-161 -695h-61z" />
    <glyph glyph-name="itilde" unicode="&#x129;" horiz-adv-x="197" 
d="M68 0l116 500h60l-116 -500h-60zM385 714l4 -46s-54 -48 -88 -48c-37 0 -99 49 -128 49c-21 0 -78 -44 -78 -44l-2 47s60 50 94 50c40 0 99 -49 125 -49c19 0 73 41 73 41z" />
    <glyph glyph-name="Imacron" unicode="&#x12a;" horiz-adv-x="223" 
d="M154 838l10 46h286l-12 -46h-284zM81 0l160 695h62l-161 -695h-61z" />
    <glyph glyph-name="imacron" unicode="&#x12b;" horiz-adv-x="197" 
d="M68 0l116 500h60l-116 -500h-60zM105 642l11 47h267l-12 -47h-266z" />
    <glyph glyph-name="Ibreve" unicode="&#x12c;" horiz-adv-x="223" 
d="M187 921h53c-10 -58 17 -75 64 -75c45 0 88 30 100 75h53c-22 -78 -81 -123 -164 -123c-80 0 -121 40 -106 123zM81 0l160 695h62l-161 -695h-61z" />
    <glyph glyph-name="ibreve" unicode="&#x12d;" horiz-adv-x="197" 
d="M68 0l116 500h60l-116 -500h-60zM125 727h51c-12 -48 8 -84 66 -84c60 0 93 36 106 84h52c-23 -80 -73 -133 -173 -133c-84 0 -119 56 -102 133z" />
    <glyph glyph-name="Iogonek" unicode="&#x12e;" horiz-adv-x="223" 
d="M121 -142l-6 -51s-42 -9 -71 -9c-45 0 -68 23 -68 60c0 51 70 119 106 148l159 689h62l-161 -695c-34 -24 -100 -87 -100 -126c0 -14 10 -22 28 -22c16 0 51 6 51 6z" />
    <glyph glyph-name="iogonek" unicode="&#x12f;" horiz-adv-x="198" 
d="M109 -142l-6 -51s-42 -9 -71 -9c-45 0 -68 23 -68 60c0 52 70 120 106 149l115 493h60l-116 -500c-32 -25 -99 -87 -99 -126c0 -14 10 -22 28 -22c16 0 51 6 51 6zM211 616l18 80h61l-18 -80h-61z" />
    <glyph glyph-name="Idotaccent" unicode="&#x130;" horiz-adv-x="223" 
d="M274 844l17 78h50l-17 -78h-50zM81 0l160 695h62l-161 -695h-61z" />
    <glyph glyph-name="dotlessi" unicode="&#x131;" horiz-adv-x="197" 
d="M68 0l116 500h60l-116 -500h-60z" />
    <glyph glyph-name="Jcircumflex" unicode="&#x134;" horiz-adv-x="260" 
d="M343 695l-134 -581c-35 -154 -55 -185 -202 -185l10 55c90 1 105 19 132 137l133 574h61zM181 797l161 134h30l97 -134h-56l-61 86l-105 -86h-66z" />
    <glyph glyph-name="jcircumflex" unicode="&#x135;" horiz-adv-x="197" 
d="M68 0l116 500h60l-116 -500c-35 -150 -49 -167 -200 -237l-20 49c124 63 134 75 160 188zM91 590l151 145h31l87 -145h-56l-54 92l-97 -92h-62z" />
    <glyph glyph-name="Kcommaaccent" unicode="&#x136;" horiz-adv-x="516" 
d="M233 -73l-85 -203h48l93 203h-56zM432 0l-112 315l-106 -2l-72 -313h-61l160 695h62l-76 -327l98 2l262 325h70l-283 -351l123 -344h-65z" />
    <glyph glyph-name="kcommaaccent" unicode="&#x137;" horiz-adv-x="440" 
d="M95 -276l85 203h56l-93 -203h-48zM129 0h-60l167 722h60l-98 -425l71 2l195 201h71l-221 -230l102 -270h-64l-94 247l-73 -1z" />
    <glyph glyph-name="Lacute" unicode="&#x139;" horiz-adv-x="436" 
d="M319 790l-8 45l219 95l9 -52zM429 0h-348l160 695h62l-148 -640h286z" />
    <glyph glyph-name="lacute" unicode="&#x13a;" horiz-adv-x="207" 
d="M74 0l167 722h59l-167 -722h-59zM252 790l-8 45l219 95l9 -52z" />
    <glyph glyph-name="Lcommaaccent" unicode="&#x13b;" horiz-adv-x="436" 
d="M218 -73l-85 -203h48l93 203h-56zM429 0h-348l160 695h62l-148 -640h286z" />
    <glyph glyph-name="lcommaaccent" unicode="&#x13c;" horiz-adv-x="207" 
d="M60 -73l-85 -203h48l93 203h-56zM74 0l167 722h59l-167 -722h-59z" />
    <glyph glyph-name="Lcaron" unicode="&#x13d;" horiz-adv-x="450" 
d="M545 695l-53 -228h-55l53 228h55zM429 0h-348l160 695h62l-148 -640h286z" />
    <glyph glyph-name="lcaron" unicode="&#x13e;" horiz-adv-x="239" 
d="M410 695l-54 -228h-54l53 228h55zM74 0l167 722h59l-167 -722h-59z" />
    <glyph glyph-name="Lslash" unicode="&#x141;" horiz-adv-x="437" 
d="M431 0h-348l65 283l-60 -38v1l-20 45l95 60l80 344h62l-70 -299l161 100l19 -45l-195 -123l-63 -273h286z" />
    <glyph glyph-name="lslash" unicode="&#x142;" horiz-adv-x="265" 
d="M100 0l68 293l-74 -45l-21 43l110 68l84 363h59l-74 -320l76 48l20 -45l-112 -69l-77 -336h-59z" />
    <glyph glyph-name="Nacute" unicode="&#x143;" horiz-adv-x="625" 
d="M405 790l-8 45l219 95l9 -52zM81 0l160 695h116l121 -634h21l146 634h60l-160 -695h-112l-124 636h-22l-147 -636h-59z" />
    <glyph glyph-name="nacute" unicode="&#x144;" horiz-adv-x="494" 
d="M68 0h60l77 331s93 125 168 125c51 0 75 -29 75 -79c0 -37 -11 -91 -19 -125l-59 -252h59l60 256c9 38 20 89 20 131c0 74 -40 123 -117 123c-90 0 -171 -107 -171 -107l21 97h-58zM302 601l-6 46l218 94l7 -53z" />
    <glyph glyph-name="Ncommaaccent" unicode="&#x145;" horiz-adv-x="625" 
d="M281 -73l-85 -203h48l93 203h-56zM81 0l160 695h116l121 -634h21l146 634h60l-160 -695h-112l-124 636h-22l-147 -636h-59z" />
    <glyph glyph-name="ncommaaccent" unicode="&#x146;" horiz-adv-x="494" 
d="M128 0h-60l116 500h58l-21 -97s81 107 171 107c77 0 117 -49 117 -123c0 -42 -11 -93 -20 -131l-60 -256h-59l59 252c8 34 19 88 19 125c0 50 -24 79 -75 79c-75 0 -168 -125 -168 -125zM132 -276l85 203h56l-93 -203h-48z" />
    <glyph glyph-name="Ncaron" unicode="&#x147;" horiz-adv-x="625" 
d="M663 926l-156 -134h-36l-98 134h59l65 -89l103 89h63zM81 0l160 695h116l121 -634h21l146 634h60l-160 -695h-112l-124 636h-22l-147 -636h-59z" />
    <glyph glyph-name="ncaron" unicode="&#x148;" horiz-adv-x="494" 
d="M128 0h-60l116 500h58l-21 -97s81 107 171 107c77 0 117 -49 117 -123c0 -42 -11 -93 -20 -131l-60 -256h-59l59 252c8 34 19 88 19 125c0 50 -24 79 -75 79c-75 0 -168 -125 -168 -125zM397 590h-32l-85 145h55l57 -95l99 95h62z" />
    <glyph glyph-name="Eng" unicode="&#x14a;" horiz-adv-x="625" 
d="M81 0l160 695h117l121 -634h21l146 634h59l-145 -630l-14 -61c-35 -155 -54 -185 -200 -185l10 55c87 0 104 18 129 126h-53l-124 636h-21l-148 -636h-58z" />
    <glyph glyph-name="eng" unicode="&#x14b;" horiz-adv-x="489" 
d="M124 0h-56l117 500h57l-18 -70c32 30 100 79 164 79c81 0 115 -29 118 -108c2 -39 -10 -95 -21 -142l-61 -261c-29 -121 -69 -164 -202 -231l-12 55c110 59 137 88 162 193l57 244c12 50 20 93 19 124c-1 48 -23 68 -80 68c-71 0 -156 -77 -156 -77z" />
    <glyph glyph-name="Omacron" unicode="&#x14c;" horiz-adv-x="631" 
d="M334 45c48 0 89 15 123 42c104 82 152 265 152 408c0 107 -47 155 -154 155c-43 0 -82 -14 -115 -40c-107 -83 -160 -275 -160 -411c0 -112 42 -154 154 -154zM328 -10c-147 0 -211 57 -211 207c0 163 55 339 159 435c51 46 112 73 183 73c140 0 214 -64 214 -207
c0 -170 -54 -352 -167 -445c-48 -40 -109 -63 -178 -63zM360 828l10 46h286l-12 -46h-284z" />
    <glyph glyph-name="omacron" unicode="&#x14d;" horiz-adv-x="494" 
d="M345 509c110 0 168 -55 168 -165c0 -190 -98 -354 -255 -354c-107 0 -164 48 -164 158c0 194 104 361 251 361zM258 43c118 0 194 141 194 302c0 66 -34 112 -107 112c-114 0 -191 -148 -191 -309c0 -68 34 -105 104 -105zM250 642l11 47h267l-12 -47h-266z" />
    <glyph glyph-name="Obreve" unicode="&#x14e;" horiz-adv-x="631" 
d="M385 922h53c-10 -58 17 -75 64 -75c45 0 88 30 100 75h53c-22 -78 -81 -123 -164 -123c-80 0 -121 40 -106 123zM334 45c48 0 89 15 123 42c104 82 152 265 152 408c0 107 -47 155 -154 155c-43 0 -82 -14 -115 -40c-107 -83 -160 -275 -160 -411
c0 -112 42 -154 154 -154zM328 -10c-147 0 -211 57 -211 207c0 163 55 339 159 435c51 46 112 73 183 73c140 0 214 -64 214 -207c0 -170 -54 -352 -167 -445c-48 -40 -109 -63 -178 -63z" />
    <glyph glyph-name="obreve" unicode="&#x14f;" horiz-adv-x="494" 
d="M345 509c110 0 168 -55 168 -165c0 -190 -98 -354 -255 -354c-107 0 -164 48 -164 158c0 194 104 361 251 361zM258 43c118 0 194 141 194 302c0 66 -34 112 -107 112c-114 0 -191 -148 -191 -309c0 -68 34 -105 104 -105zM274 727h51c-12 -48 8 -84 66 -84
c60 0 93 36 106 84h52c-23 -80 -73 -133 -173 -133c-84 0 -119 56 -102 133z" />
    <glyph glyph-name="Ohungarumlaut" unicode="&#x150;" horiz-adv-x="631" 
d="M566 779l-28 28l177 114l33 -29zM381 780l-30 27l180 115l31 -30zM334 45c48 0 89 15 123 42c104 82 152 265 152 408c0 107 -47 155 -154 155c-43 0 -82 -14 -115 -40c-107 -83 -160 -275 -160 -411c0 -112 42 -154 154 -154zM328 -10c-147 0 -211 57 -211 207
c0 163 55 339 159 435c51 46 112 73 183 73c140 0 214 -64 214 -207c0 -170 -54 -352 -167 -445c-48 -40 -109 -63 -178 -63z" />
    <glyph glyph-name="ohungarumlaut" unicode="&#x151;" horiz-adv-x="494" 
d="M345 509c110 0 168 -55 168 -165c0 -190 -98 -354 -255 -354c-107 0 -164 48 -164 158c0 194 104 361 251 361zM258 43c118 0 194 141 194 302c0 66 -34 112 -107 112c-114 0 -191 -148 -191 -309c0 -68 34 -105 104 -105zM440 586l-28 35l172 126l32 -36zM261 586
l-28 35l172 126l31 -36z" />
    <glyph glyph-name="OE" unicode="&#x152;" horiz-adv-x="865" 
d="M819 -1h-378c-46 -4 -109 -9 -143 -9c-132 0 -186 62 -188 176c-1 50 8 109 24 179c56 235 149 362 333 362c17 0 113 -7 137 -10h380l-13 -61h-323l-61 -251h266l-13 -60l-265 2l-63 -266h322zM317 52c21 0 96 4 135 8l138 579c-24 3 -88 7 -132 7
c-151 0 -216 -102 -262 -300c-16 -63 -24 -115 -24 -159c0 -90 39 -135 145 -135z" />
    <glyph glyph-name="oe" unicode="&#x153;" horiz-adv-x="809" 
d="M584 47c66 0 173 9 173 9l-9 -52s-104 -14 -181 -14c-81 0 -122 34 -134 93c-40 -64 -95 -93 -187 -93c-105 0 -152 37 -155 121c-2 46 5 94 18 147c40 169 105 251 259 251c84 0 131 -32 142 -103c43 73 109 103 189 103c91 0 142 -42 144 -133c1 -29 -3 -64 -13 -104
l-14 -49l-318 2c-8 -34 -14 -64 -13 -89c1 -59 30 -89 99 -89zM258 47c126 0 155 87 187 211c9 40 19 84 10 127c-10 47 -41 68 -99 68c-105 0 -154 -56 -186 -195c-13 -54 -21 -96 -20 -130c2 -56 31 -81 108 -81zM510 276l261 -2c9 37 13 67 13 92c-1 62 -34 86 -97 86
c-86 0 -147 -50 -177 -176z" />
    <glyph glyph-name="Racute" unicode="&#x154;" horiz-adv-x="566" 
d="M387 270l77 -270h62l-81 278c79 18 184 92 184 257c0 117 -60 160 -172 160h-216l-160 -695h61l63 270h182zM565 533c0 -123 -73 -209 -186 -209h-162l73 317h159c80 0 116 -28 116 -108zM363 790l-8 45l219 95l9 -52z" />
    <glyph glyph-name="racute" unicode="&#x155;" horiz-adv-x="311" 
d="M68 0l117 500h59l-18 -75s96 66 187 85l-15 -61c-68 -16 -183 -79 -183 -79l-86 -370h-61zM205 601l-6 46l218 94l7 -53z" />
    <glyph glyph-name="Rcommaaccent" unicode="&#x156;" horiz-adv-x="566" 
d="M172 -276l85 203h56l-93 -203h-48zM464 0l-77 270h-182l-63 -270h-61l160 695h216c112 0 172 -43 172 -160c0 -165 -105 -239 -184 -257l81 -278h-62zM565 533c0 80 -36 108 -116 108h-159l-73 -317h162c113 0 186 86 186 209z" />
    <glyph glyph-name="rcommaaccent" unicode="&#x157;" horiz-adv-x="311" 
d="M68 0l117 500h59l-18 -75s96 66 187 85l-15 -61c-68 -16 -183 -79 -183 -79l-86 -370h-61zM60 -73l-85 -203h48l93 203h-56z" />
    <glyph glyph-name="Rcaron" unicode="&#x158;" horiz-adv-x="566" 
d="M609 926l-156 -134h-36l-98 134h59l65 -89l103 89h63zM387 270l77 -270h62l-81 278c79 18 184 92 184 257c0 117 -60 160 -172 160h-216l-160 -695h61l63 270h182zM565 533c0 -123 -73 -209 -186 -209h-162l73 317h159c80 0 116 -28 116 -108z" />
    <glyph glyph-name="rcaron" unicode="&#x159;" horiz-adv-x="311" 
d="M68 0l117 500h59l-18 -75s96 66 187 85l-15 -61c-68 -16 -183 -79 -183 -79l-86 -370h-61zM311 590h-32l-85 145h55l57 -95l99 95h62z" />
    <glyph glyph-name="Sacute" unicode="&#x15a;" horiz-adv-x="500" 
d="M591 679l-11 -47s-104 18 -174 18c-108 0 -178 -53 -178 -160c0 -61 38 -76 132 -107c99 -33 142 -62 142 -153c0 -149 -96 -240 -246 -240c-92 0 -199 23 -199 23l11 50s117 -18 192 -18c113 0 179 68 179 181c0 62 -27 78 -116 107c-101 32 -158 61 -158 153
c0 141 99 219 246 219c87 0 180 -26 180 -26zM354 790l-8 45l219 95l9 -52z" />
    <glyph glyph-name="sacute" unicode="&#x15b;" horiz-adv-x="428" 
d="M483 491l-13 -48s-93 14 -157 14c-77 0 -126 -51 -126 -109c0 -36 20 -48 98 -67c89 -21 137 -38 137 -111c0 -121 -96 -180 -215 -180c-73 0 -155 21 -155 21l11 48s92 -16 151 -16c82 0 147 36 147 115c0 45 -29 54 -104 71c-84 20 -130 40 -130 106
c0 101 81 174 194 174c74 0 162 -18 162 -18zM282 601l-6 46l218 94l7 -53z" />
    <glyph glyph-name="Scircumflex" unicode="&#x15c;" horiz-adv-x="500" 
d="M591 679l-11 -47s-104 18 -174 18c-108 0 -178 -53 -178 -160c0 -61 38 -76 132 -107c99 -33 142 -62 142 -153c0 -149 -96 -240 -246 -240c-92 0 -199 23 -199 23l11 50s117 -18 192 -18c113 0 179 68 179 181c0 62 -27 78 -116 107c-101 32 -158 61 -158 153
c0 141 99 219 246 219c87 0 180 -26 180 -26zM288 797l161 134h30l97 -134h-56l-61 86l-105 -86h-66z" />
    <glyph glyph-name="scircumflex" unicode="&#x15d;" horiz-adv-x="428" 
d="M483 491l-13 -48s-93 14 -157 14c-77 0 -126 -51 -126 -109c0 -36 20 -48 98 -67c89 -21 137 -38 137 -111c0 -121 -96 -180 -215 -180c-73 0 -155 21 -155 21l11 48s92 -16 151 -16c82 0 147 36 147 115c0 45 -29 54 -104 71c-84 20 -130 40 -130 106
c0 101 81 174 194 174c74 0 162 -18 162 -18zM221 590l151 145h31l87 -145h-56l-54 92l-97 -92h-62z" />
    <glyph glyph-name="Scedilla" unicode="&#x15e;" horiz-adv-x="500" 
d="M591 679l-11 -47s-104 18 -174 18c-108 0 -178 -53 -178 -160c0 -61 38 -76 132 -107c99 -33 142 -62 142 -153c0 -146 -92 -236 -237 -240l-10 -38h5c53 0 93 -18 80 -76s-47 -83 -104 -83c-41 0 -78 6 -78 6l11 44s39 -4 67 -4s45 11 52 39c7 30 -12 36 -34 36h-44
l18 77c-84 3 -171 22 -171 22l11 50s117 -18 192 -18c113 0 179 68 179 181c0 62 -27 78 -116 107c-101 32 -158 61 -158 153c0 141 99 219 246 219c87 0 180 -26 180 -26z" />
    <glyph glyph-name="scedilla" unicode="&#x15f;" horiz-adv-x="428" 
d="M293 -124c-13 -58 -47 -83 -104 -83c-41 0 -78 6 -78 6l11 44s39 -4 67 -4s45 11 52 39c7 30 -12 36 -34 36h-44l18 77c-65 3 -130 20 -130 20l11 48s92 -16 151 -16c82 0 147 36 147 115c0 45 -29 54 -104 71c-84 20 -130 40 -130 106c0 101 81 174 194 174
c74 0 162 -18 162 -18l-13 -48s-93 14 -157 14c-77 0 -126 -51 -126 -109c0 -36 20 -48 98 -67c89 -21 137 -38 137 -111c0 -117 -90 -176 -203 -180l-10 -38h5c53 0 93 -18 80 -76z" />
    <glyph glyph-name="Scaron" unicode="&#x160;" horiz-adv-x="500" 
d="M616 930l-156 -134h-36l-98 134h59l65 -89l103 89h63zM591 679l-11 -47s-104 18 -174 18c-108 0 -178 -53 -178 -160c0 -61 38 -76 132 -107c99 -33 142 -62 142 -153c0 -149 -96 -240 -246 -240c-92 0 -199 23 -199 23l11 50s117 -18 192 -18c113 0 179 68 179 181
c0 62 -27 78 -116 107c-101 32 -158 61 -158 153c0 141 99 219 246 219c87 0 180 -26 180 -26z" />
    <glyph glyph-name="scaron" unicode="&#x161;" horiz-adv-x="428" 
d="M483 491l-13 -48s-93 14 -157 14c-77 0 -126 -51 -126 -109c0 -36 20 -48 98 -67c89 -21 137 -38 137 -111c0 -121 -96 -180 -215 -180c-73 0 -155 21 -155 21l11 48s92 -16 151 -16c82 0 147 36 147 115c0 45 -29 54 -104 71c-84 20 -130 40 -130 106
c0 101 81 174 194 174c74 0 162 -18 162 -18zM370 590h-32l-85 145h55l57 -95l99 95h62z" />
    <glyph glyph-name="Tcedilla" unicode="&#x162;" horiz-adv-x="472" 
d="M326 -124c-13 -58 -47 -83 -104 -83c-41 0 -78 6 -78 6l11 44s39 -4 67 -4s45 11 52 39c7 30 -12 36 -34 36h-44l21 86h-13l147 640h-194l13 55h450l-13 -55h-194l-148 -640h-12l-12 -48h5c53 0 93 -18 80 -76z" />
    <glyph glyph-name="tcedilla" unicode="&#x163;" horiz-adv-x="315" 
d="M290 -124c-13 -58 -47 -83 -104 -83c-41 0 -78 6 -78 6l11 44s39 -4 67 -4s45 11 52 39c7 30 -12 36 -34 36h-44l19 81c-40 10 -63 40 -63 87c0 33 9 72 17 104l61 261h-68l13 53h68l37 153h60l-38 -153h149l-13 -53h-148l-62 -264c-7 -30 -13 -65 -13 -89
c0 -31 16 -51 55 -51c26 0 80 6 80 6l-4 -47s-52 -12 -94 -12h-1l-10 -38h5c53 0 93 -18 80 -76z" />
    <glyph glyph-name="Tcaron" unicode="&#x164;" horiz-adv-x="472" 
d="M580 926l-156 -134h-36l-98 134h59l65 -89l103 89h63zM157 640l13 55h450l-13 -55h-194l-148 -640h-61l147 640h-194z" />
    <glyph glyph-name="tcaron" unicode="&#x165;" horiz-adv-x="387" 
d="M553 695l-53 -228h-55l53 228h55zM402 447h-148l-62 -264c-7 -30 -13 -65 -13 -89c0 -31 16 -51 55 -51c26 0 80 6 80 6l-4 -47s-52 -12 -94 -12c-63 0 -100 33 -100 92c0 33 9 72 17 104l61 261h-68l13 53h68l37 153h60l-38 -153h149z" />
    <glyph glyph-name="Tbar" unicode="&#x166;" horiz-adv-x="477" 
d="M159 640l13 55h450l-13 -55h-194l-64 -276h162l-15 -57h-160l-71 -307h-61l70 307h-158l13 57h158l64 276h-194z" />
    <glyph glyph-name="tbar" unicode="&#x167;" horiz-adv-x="320" 
d="M405 447h-148l-30 -126h144l-13 -53h-143l-20 -85c-7 -30 -13 -65 -13 -89c0 -31 16 -51 55 -51c26 0 80 6 80 6l-4 -47s-52 -12 -94 -12c-63 0 -100 33 -100 92c0 33 9 72 17 104l19 82h-55l12 53h55l30 126h-68l13 53h68l37 153h60l-38 -153h149z" />
    <glyph glyph-name="Utilde" unicode="&#x168;" horiz-adv-x="593" 
d="M646 909l3 -42s-63 -59 -96 -59c-43 0 -108 59 -139 59c-21 0 -88 -51 -88 -51l-2 44s67 59 102 59c47 0 109 -58 139 -58c19 0 81 48 81 48zM297 695l-111 -482c-6 -24 -10 -53 -10 -74c0 -67 54 -93 139 -93c115 0 164 54 188 160l113 489h62l-113 -490
c-33 -142 -103 -215 -254 -215c-118 0 -196 44 -196 142c0 24 4 60 11 86l110 477h61z" />
    <glyph glyph-name="utilde" unicode="&#x169;" horiz-adv-x="494" 
d="M537 714l4 -46s-54 -48 -88 -48c-37 0 -99 49 -128 49c-21 0 -78 -44 -78 -44l-2 47s60 50 94 50c40 0 99 -49 125 -49c19 0 73 41 73 41zM481 500h60l-116 -500h-58l21 97s-81 -107 -171 -107c-76 0 -117 49 -117 122c0 43 11 94 20 132l60 256h59l-59 -252
c-8 -34 -19 -88 -19 -125c0 -50 26 -79 75 -79c75 0 168 124 168 124z" />
    <glyph glyph-name="Umacron" unicode="&#x16a;" horiz-adv-x="593" 
d="M297 695l-111 -482c-6 -24 -10 -53 -10 -74c0 -67 54 -93 139 -93c115 0 164 54 188 160l113 489h62l-113 -490c-33 -142 -103 -215 -254 -215c-118 0 -196 44 -196 142c0 24 4 60 11 86l110 477h61zM338 828l10 46h286l-12 -46h-284z" />
    <glyph glyph-name="umacron" unicode="&#x16b;" horiz-adv-x="494" 
d="M481 500h60l-116 -500h-58l21 97s-81 -107 -171 -107c-76 0 -117 49 -117 122c0 43 11 94 20 132l60 256h59l-59 -252c-8 -34 -19 -88 -19 -125c0 -50 26 -79 75 -79c75 0 168 124 168 124zM248 642l11 47h267l-12 -47h-266z" />
    <glyph glyph-name="Ubreve" unicode="&#x16c;" horiz-adv-x="593" 
d="M361 922h53c-10 -58 17 -75 64 -75c45 0 88 30 100 75h53c-22 -78 -81 -123 -164 -123c-80 0 -121 40 -106 123zM297 695l-111 -482c-6 -24 -10 -53 -10 -74c0 -67 54 -93 139 -93c115 0 164 54 188 160l113 489h62l-113 -490c-33 -142 -103 -215 -254 -215
c-118 0 -196 44 -196 142c0 24 4 60 11 86l110 477h61z" />
    <glyph glyph-name="ubreve" unicode="&#x16d;" horiz-adv-x="494" 
d="M481 500h60l-116 -500h-58l21 97s-81 -107 -171 -107c-76 0 -117 49 -117 122c0 43 11 94 20 132l60 256h59l-59 -252c-8 -34 -19 -88 -19 -125c0 -50 26 -79 75 -79c75 0 168 124 168 124zM268 727h51c-12 -48 8 -84 66 -84c60 0 93 36 106 84h52
c-23 -80 -73 -133 -173 -133c-84 0 -119 56 -102 133z" />
    <glyph glyph-name="Uring" unicode="&#x16e;" horiz-adv-x="593" 
d="M590 842c-15 -59 -57 -95 -121 -95c-60 0 -91 35 -74 95c17 64 62 96 121 96c56 0 90 -29 74 -96zM436 842c-7 -29 5 -52 43 -52c36 0 62 19 70 52c7 33 -11 53 -44 53c-35 0 -61 -19 -69 -53zM297 695l-111 -482c-6 -24 -10 -53 -10 -74c0 -67 54 -93 139 -93
c115 0 164 54 188 160l113 489h62l-113 -490c-33 -142 -103 -215 -254 -215c-118 0 -196 44 -196 142c0 24 4 60 11 86l110 477h61z" />
    <glyph glyph-name="uring" unicode="&#x16f;" horiz-adv-x="494" 
d="M296 644c10 50 53 95 113 95c48 0 71 -31 67 -79c-4 -65 -54 -111 -114 -111c-59 0 -76 41 -66 95zM335 644c-6 -26 8 -54 38 -54s56 24 63 54c7 26 -8 52 -37 52c-30 0 -57 -23 -64 -52zM481 500h60l-116 -500h-58l21 97s-81 -107 -171 -107c-76 0 -117 49 -117 122
c0 43 11 94 20 132l60 256h59l-59 -252c-8 -34 -19 -88 -19 -125c0 -50 26 -79 75 -79c75 0 168 124 168 124z" />
    <glyph glyph-name="Uhungarumlaut" unicode="&#x170;" horiz-adv-x="593" 
d="M532 759l-28 28l177 114l33 -29zM347 760l-30 27l180 115l31 -30zM297 695l-111 -482c-6 -24 -10 -53 -10 -74c0 -67 54 -93 139 -93c115 0 164 54 188 160l113 489h62l-113 -490c-33 -142 -103 -215 -254 -215c-118 0 -196 44 -196 142c0 24 4 60 11 86l110 477h61z" />
    <glyph glyph-name="uhungarumlaut" unicode="&#x171;" horiz-adv-x="494" 
d="M461 586l-28 35l172 126l32 -36zM282 586l-28 35l172 126l31 -36zM481 500h60l-116 -500h-58l21 97s-81 -107 -171 -107c-76 0 -117 49 -117 122c0 43 11 94 20 132l60 256h59l-59 -252c-8 -34 -19 -88 -19 -125c0 -50 26 -79 75 -79c75 0 168 124 168 124z" />
    <glyph glyph-name="Uogonek" unicode="&#x172;" horiz-adv-x="594" 
d="M297 695l-111 -482c-6 -24 -10 -53 -10 -74c0 -67 54 -93 139 -93c115 0 164 54 188 160l113 489h62l-113 -490c-29 -123 -85 -193 -196 -210c-33 -28 -87 -86 -87 -121c0 -14 10 -22 28 -22c16 0 51 6 51 6l-6 -51s-42 -9 -71 -9c-45 0 -68 23 -68 60c0 43 49 98 87 132
c-114 2 -188 46 -188 142c0 24 4 60 11 86l110 477h61z" />
    <glyph glyph-name="uogonek" unicode="&#x173;" horiz-adv-x="494" 
d="M481 500h60l-116 -500c-32 -24 -98 -87 -98 -126c0 -14 10 -22 28 -22c16 0 51 6 51 6l-6 -51s-42 -9 -71 -9c-45 0 -68 23 -68 60c0 52 71 120 107 149l20 90s-81 -107 -171 -107c-76 0 -117 49 -117 122c0 43 11 94 20 132l60 256h59l-59 -252c-8 -34 -19 -88 -19 -125
c0 -50 26 -79 75 -79c75 0 168 124 168 124z" />
    <glyph glyph-name="Wcircumflex" unicode="&#x174;" horiz-adv-x="820" 
d="M438 793l161 134h30l97 -134h-56l-61 86l-105 -86h-66zM190 695h61l-29 -639h30l280 629h66l-15 -629h28l272 639h62l-299 -695h-117l16 589l-261 -589h-120z" />
    <glyph glyph-name="wcircumflex" unicode="&#x175;" horiz-adv-x="723" 
d="M146 500h60l-3 -448h17l217 438h72l10 -438h18l208 448h61l-232 -500h-111l-8 413l-202 -413h-109zM348 590l151 145h31l87 -145h-56l-54 92l-97 -92h-62z" />
    <glyph glyph-name="Ycircumflex" unicode="&#x176;" horiz-adv-x="490" 
d="M278 793l161 134h30l97 -134h-56l-61 86l-105 -86h-66zM635 695l-295 -397l-70 -298h-59l70 304l-108 391h62l89 -337l245 337h66z" />
    <glyph glyph-name="ycircumflex" unicode="&#x177;" horiz-adv-x="452" 
d="M142 500h59l14 -448h34l229 448h63l-374 -724h-61l118 224h-65zM224 590l151 145h31l87 -145h-56l-54 92l-97 -92h-62z" />
    <glyph glyph-name="Ydieresis" unicode="&#x178;" horiz-adv-x="490" 
d="M304 819l18 83h50l-20 -83h-48zM488 819l20 83h49l-20 -83h-49zM635 695l-295 -397l-70 -298h-59l70 304l-108 391h62l89 -337l245 337h66z" />
    <glyph glyph-name="Zacute" unicode="&#x179;" horiz-adv-x="496" 
d="M340 790l-8 45l219 95l9 -52zM188 640l13 55h416l-22 -93l-472 -523l-6 -24h350l-13 -55h-416l21 90l471 522l7 28h-349z" />
    <glyph glyph-name="zacute" unicode="&#x17a;" horiz-adv-x="418" 
d="M155 500l-14 -53h269l-362 -395l-9 -52h341l12 52h-271l363 396l11 52h-340zM263 601l-6 46l218 94l7 -53z" />
    <glyph glyph-name="Zdotaccent" unicode="&#x17b;" horiz-adv-x="496" 
d="M400 844l17 78h50l-17 -78h-50zM188 640l13 55h416l-22 -93l-472 -523l-6 -24h350l-13 -55h-416l21 90l471 522l7 28h-349z" />
    <glyph glyph-name="zdotaccent" unicode="&#x17c;" horiz-adv-x="418" 
d="M155 500l-14 -53h269l-362 -395l-9 -52h341l12 52h-271l363 396l11 52h-340zM313 610l19 78h51l-18 -78h-52z" />
    <glyph glyph-name="Zcaron" unicode="&#x17d;" horiz-adv-x="496" 
d="M600 925l-156 -134h-36l-98 134h59l65 -89l103 89h63zM188 640l13 55h416l-22 -93l-472 -523l-6 -24h350l-13 -55h-416l21 90l471 522l7 28h-349z" />
    <glyph glyph-name="zcaron" unicode="&#x17e;" horiz-adv-x="418" 
d="M350 590h-32l-85 145h55l57 -95l99 95h62zM141 447l14 53h340l-11 -52l-363 -396h271l-12 -52h-341l9 52l362 395h-269z" />
    <glyph glyph-name="florin" unicode="&#x192;" 
d="M364 355l-101 -423c-31 -131 -86 -175 -170 -175c-32 0 -65 7 -65 7l13 53s35 -3 61 -3c48 0 80 31 103 123l100 418h-107l12 58h108l14 59c41 160 88 209 176 209c41 0 101 -7 109 -9l-14 -54s-71 4 -99 4c-65 0 -89 -52 -117 -166l-10 -43h163l-14 -58h-162z" />
    <glyph glyph-name="Aringacute" unicode="&#x1fa;" horiz-adv-x="555" 
d="M27 0l343 671c-16 17 -20 42 -11 74c17 64 62 96 121 96c56 0 90 -29 74 -96c-8 -31 -24 -56 -46 -72l23 -673h-61l-8 191h-274l-99 -191h-62zM417 640l-202 -395h247l-13 395h-32zM395 881l-6 46l218 94l7 -53zM400 745c-6 -24 1 -44 25 -50h38c26 6 43 23 50 50
c7 33 -11 53 -44 53c-35 0 -61 -19 -69 -53z" />
    <glyph glyph-name="aringacute" unicode="&#x1fb;" horiz-adv-x="493" 
d="M340 771l-7 51l218 94l8 -58zM216 -10c-86 0 -125 53 -125 141c0 161 86 379 251 379c61 0 194 -24 194 -24l-76 -325c-15 -63 -28 -160 -28 -160l-58 -2s15 93 19 114c0 0 -88 -123 -177 -123zM343 457c-125 0 -190 -193 -190 -326c0 -56 20 -88 80 -88
c69 0 173 141 173 141l61 258s-72 15 -124 15zM306 644c10 50 53 95 113 95c48 0 71 -31 67 -79c-4 -65 -54 -111 -114 -111c-59 0 -76 41 -66 95zM345 644c-6 -26 8 -54 38 -54s56 24 63 54c7 26 -8 52 -37 52c-30 0 -57 -23 -64 -52z" />
    <glyph glyph-name="AEacute" unicode="&#x1fc;" horiz-adv-x="786" 
d="M357 0l44 191h-216l-99 -191h-59l355 697h523l-12 -57l-326 2l-63 -260h270l-12 -56h-270l-64 -269h325l-12 -57h-384zM412 640l-200 -393h202l95 393h-97zM560 790l-8 45l219 95l9 -52z" />
    <glyph glyph-name="aeacute" unicode="&#x1fd;" horiz-adv-x="757" 
d="M533 47c68 0 174 9 174 9l-11 -52s-104 -14 -179 -14c-64 0 -105 20 -125 56c-57 -24 -163 -56 -227 -56c-88 0 -112 74 -96 152c19 98 87 132 179 146c53 8 105 13 155 16c16 48 44 146 -51 146c-69 0 -179 -11 -179 -11l9 57s112 13 185 13c58 0 102 -28 109 -81
c43 56 104 81 173 81c91 0 140 -42 142 -135c0 -33 -4 -67 -14 -103l-13 -48l-314 2c-8 -33 -13 -63 -12 -88c1 -57 25 -90 95 -90zM183 46c54 0 144 26 195 44c-11 53 3 106 15 162c-60 -6 -110 -11 -152 -17c-57 -9 -95 -35 -109 -92c-11 -42 -5 -97 51 -97zM461 276
l258 -2c9 36 14 66 13 91c-1 62 -33 89 -96 89c-87 0 -145 -52 -175 -178zM441 601l-6 46l218 94l7 -53z" />
    <glyph glyph-name="Oslashacute" unicode="&#x1fe;" horiz-adv-x="633" 
d="M110 -113l-37 22l90 133c-31 33 -45 83 -45 155c0 163 55 339 159 435c51 46 112 73 183 73c55 0 100 -10 134 -31l82 120l41 -18l-89 -130c31 -34 46 -83 46 -148c0 -170 -54 -352 -167 -445c-48 -40 -109 -63 -178 -63c-55 0 -99 8 -131 25zM201 98l173 254l186 272
c-25 18 -59 26 -104 26c-43 0 -82 -14 -115 -40c-107 -83 -160 -275 -160 -411c0 -44 6 -77 20 -101zM335 45c48 0 89 15 123 42c104 82 152 265 152 408c0 39 -7 71 -20 95l-177 -260l-180 -264c24 -15 57 -21 102 -21zM428 783l-9 52l219 95l10 -58z" />
    <glyph glyph-name="oslashacute" unicode="&#x1ff;" horiz-adv-x="494" 
d="M345 509c35 0 64 -6 89 -17l69 112l38 -16l-74 -117c30 -28 46 -70 46 -127c0 -190 -98 -354 -255 -354c-33 0 -61 4 -84 13l-71 -115l-38 16l75 119c-31 26 -46 67 -46 125c0 194 104 361 251 361zM174 76l115 182l115 185c-16 9 -36 14 -59 14
c-114 0 -191 -148 -191 -309c0 -30 6 -54 20 -72zM258 43c118 0 194 141 194 302c0 28 -6 53 -19 72l-112 -177l-116 -187c14 -7 32 -10 53 -10zM298 601l-6 46l218 94l7 -53z" />
    <glyph glyph-name="Scommaaccent" unicode="&#x218;" horiz-adv-x="500" 
d="M219 -73l-85 -203h48l93 203h-56zM591 679l-11 -47s-104 18 -174 18c-108 0 -178 -53 -178 -160c0 -61 38 -76 132 -107c99 -33 142 -62 142 -153c0 -149 -96 -240 -246 -240c-92 0 -199 23 -199 23l11 50s117 -18 192 -18c113 0 179 68 179 181c0 62 -27 78 -116 107
c-101 32 -158 61 -158 153c0 141 99 219 246 219c87 0 180 -26 180 -26z" />
    <glyph glyph-name="scommaaccent" unicode="&#x219;" horiz-adv-x="427" 
d="M482 491l-13 -48s-93 14 -157 14c-77 0 -126 -51 -126 -109c0 -36 20 -48 98 -67c89 -21 137 -38 137 -111c0 -121 -96 -180 -215 -180c-73 0 -155 21 -155 21l11 48s92 -16 151 -16c82 0 147 36 147 115c0 45 -29 54 -104 71c-84 20 -130 40 -130 106
c0 101 81 174 194 174c74 0 162 -18 162 -18zM176 -73l-85 -203h48l93 203h-56z" />
    <glyph glyph-name="Tcommaaccent" unicode="&#x21a;" horiz-adv-x="472" 
d="M194 -73l-85 -203h48l93 203h-56zM157 640l13 55h450l-13 -55h-194l-148 -640h-61l147 640h-194z" />
    <glyph glyph-name="tcommaaccent" unicode="&#x21b;" horiz-adv-x="315" 
d="M402 447h-148l-62 -264c-7 -30 -13 -65 -13 -89c0 -31 16 -51 55 -51c26 0 80 6 80 6l-4 -47s-52 -12 -94 -12c-63 0 -100 33 -100 92c0 33 9 72 17 104l61 261h-68l13 53h68l37 153h60l-38 -153h149zM148 -73l-85 -203h48l93 203h-56z" />
    <glyph glyph-name="circumflex" unicode="&#x2c6;" horiz-adv-x="791" 
d="M392 590l151 145h31l87 -145h-56l-54 92l-97 -92h-62z" />
    <glyph glyph-name="caron" unicode="&#x2c7;" horiz-adv-x="791" 
d="M541 590h-32l-85 145h55l57 -95l99 95h62z" />
    <glyph glyph-name="breve" unicode="&#x2d8;" horiz-adv-x="433" 
d="M244 727h51c-12 -48 8 -84 66 -84c60 0 93 36 106 84h52c-23 -80 -73 -133 -173 -133c-84 0 -119 56 -102 133z" />
    <glyph glyph-name="dotaccent" unicode="&#x2d9;" horiz-adv-x="217" 
d="M225 610l19 78h51l-18 -78h-52z" />
    <glyph glyph-name="ring" unicode="&#x2da;" horiz-adv-x="791" 
d="M315 644c10 50 53 95 113 95c48 0 71 -31 67 -79c-4 -65 -54 -111 -114 -111c-59 0 -76 41 -66 95zM354 644c-6 -26 8 -54 38 -54s56 24 63 54c7 26 -8 52 -37 52c-30 0 -57 -23 -64 -52z" />
    <glyph glyph-name="ogonek" unicode="&#x2db;" horiz-adv-x="421" 
d="M282 -142l-6 -51s-42 -9 -71 -9c-45 0 -68 23 -68 60c0 54 78 127 112 153l52 -8c-30 -23 -98 -90 -98 -129c0 -14 10 -22 28 -22c16 0 51 6 51 6z" />
    <glyph glyph-name="tilde" unicode="&#x2dc;" horiz-adv-x="422" 
d="M517 714l4 -46s-54 -48 -88 -48c-37 0 -99 49 -128 49c-21 0 -78 -44 -78 -44l-2 47s60 50 94 50c40 0 99 -49 125 -49c19 0 73 41 73 41z" />
    <glyph glyph-name="hungarumlaut" unicode="&#x2dd;" horiz-adv-x="660" 
d="M490 586l-28 35l172 126l32 -36zM311 586l-28 35l172 126l31 -36z" />
    <glyph glyph-name="pi" unicode="&#x3c0;" 
d="M433 154v293h-175l-28 -447h-61l31 447c-73 -1 -113 -13 -113 -13v52s58 14 140 14h231c77 0 136 15 136 15v-52s-29 -12 -102 -14v-295c0 -86 20 -104 92 -104v-53c-121 0 -151 30 -151 157z" />
    <glyph glyph-name="Wgrave" unicode="&#x1e80;" horiz-adv-x="820" 
d="M506 925l175 -95l-26 -43l-178 88zM190 695h61l-29 -639h30l280 629h66l-15 -629h28l272 639h62l-299 -695h-117l16 589l-261 -589h-120z" />
    <glyph glyph-name="wgrave" unicode="&#x1e81;" horiz-adv-x="723" 
d="M381 734l176 -94l-28 -41l-177 88zM146 500h60l-3 -448h17l217 438h72l10 -438h18l208 448h61l-232 -500h-111l-8 413l-202 -413h-109z" />
    <glyph glyph-name="Wacute" unicode="&#x1e82;" horiz-adv-x="820" 
d="M505 790l-8 45l219 95l9 -52zM190 695h61l-29 -639h30l280 629h66l-15 -629h28l272 639h62l-299 -695h-117l16 589l-261 -589h-120z" />
    <glyph glyph-name="wacute" unicode="&#x1e83;" horiz-adv-x="723" 
d="M146 500h60l-3 -448h17l217 438h72l10 -438h18l208 448h61l-232 -500h-111l-8 413l-202 -413h-109zM407 601l-6 46l218 94l7 -53z" />
    <glyph glyph-name="Wdieresis" unicode="&#x1e84;" horiz-adv-x="820" 
d="M472 820l18 83h50l-20 -83h-48zM656 820l20 83h49l-20 -83h-49zM190 695h61l-29 -639h30l280 629h66l-15 -629h28l272 639h62l-299 -695h-117l16 589l-261 -589h-120z" />
    <glyph glyph-name="wdieresis" unicode="&#x1e85;" horiz-adv-x="723" 
d="M146 500h60l-3 -448h17l217 438h72l10 -438h18l208 448h61l-232 -500h-111l-8 413l-202 -413h-109zM377 625l19 82h49l-19 -82h-49zM556 625l18 82h49l-19 -82h-48z" />
    <glyph glyph-name="uni1EAB" unicode="&#x1eab;" horiz-adv-x="493" 
d="M216 -10c-86 0 -125 53 -125 141c0 161 86 379 251 379c61 0 194 -24 194 -24l-76 -325c-15 -63 -28 -160 -28 -160l-58 -2s15 93 19 114c0 0 -88 -123 -177 -123zM343 457c-125 0 -190 -193 -190 -326c0 -56 20 -88 80 -88c69 0 173 141 173 141l61 258s-72 15 -124 15z
M586 829l4 -46s-54 -48 -88 -48c-37 0 -99 49 -128 49c-21 0 -78 -44 -78 -44l-2 47s60 50 94 50c40 0 99 -49 125 -49c19 0 73 41 73 41zM256 560l151 145h31l87 -145h-56l-54 92l-97 -92h-62z" />
    <glyph glyph-name="uni1EB0" unicode="&#x1eb0;" horiz-adv-x="555" 
d="M441 1072l176 -94l-28 -41l-177 88zM27 0l355 695h126l23 -695h-61l-8 191h-274l-99 -191h-62zM417 640l-202 -395h247l-13 395h-32zM352 882h53c-10 -58 17 -75 64 -75c45 0 88 30 100 75h53c-22 -78 -81 -123 -164 -123c-80 0 -121 40 -106 123z" />
    <glyph glyph-name="uni1EC5" unicode="&#x1ec5;" horiz-adv-x="458" 
d="M568 829l4 -46s-54 -48 -88 -48c-37 0 -99 49 -128 49c-21 0 -78 -44 -78 -44l-2 47s60 50 94 50c40 0 99 -49 125 -49c19 0 73 41 73 41zM256 44c74 0 164 25 164 25l-4 -49s-87 -30 -176 -30c-91 0 -147 49 -147 148c0 170 83 371 269 371c85 0 141 -33 141 -114
c0 -121 -95 -159 -281 -159h-56c-7 -29 -12 -67 -12 -92c0 -65 41 -100 102 -100zM175 285h59c140 0 209 23 209 109c0 47 -30 64 -84 64c-99 0 -153 -71 -184 -173zM241 560l151 145h31l87 -145h-56l-54 92l-97 -92h-62z" />
    <glyph glyph-name="uni1ED7" unicode="&#x1ed7;" horiz-adv-x="494" 
d="M345 509c110 0 168 -55 168 -165c0 -190 -98 -354 -255 -354c-107 0 -164 48 -164 158c0 194 104 361 251 361zM258 43c118 0 194 141 194 302c0 66 -34 112 -107 112c-114 0 -191 -148 -191 -309c0 -68 34 -105 104 -105zM575 829l4 -46s-54 -48 -88 -48
c-37 0 -99 49 -128 49c-21 0 -78 -44 -78 -44l-2 47s60 50 94 50c40 0 99 -49 125 -49c19 0 73 41 73 41zM240 560l151 145h31l87 -145h-56l-54 92l-97 -92h-62z" />
    <glyph glyph-name="Ygrave" unicode="&#x1ef2;" horiz-adv-x="490" 
d="M342 925l175 -95l-26 -43l-178 88zM635 695l-295 -397l-70 -298h-59l70 304l-108 391h62l89 -337l245 337h66z" />
    <glyph glyph-name="ygrave" unicode="&#x1ef3;" horiz-adv-x="452" 
d="M251 734l176 -94l-28 -41l-177 88zM142 500h59l14 -448h34l229 448h63l-374 -724h-61l118 224h-65z" />
    <glyph glyph-name="uni1EF8" unicode="&#x1ef8;" horiz-adv-x="490" 
d="M584 912l4 -46s-54 -48 -88 -48c-37 0 -99 49 -128 49c-21 0 -78 -44 -78 -44l-2 47s60 50 94 50c40 0 99 -49 125 -49c19 0 73 41 73 41zM635 695l-295 -397l-70 -298h-59l70 304l-108 391h62l89 -337l245 337h66z" />
    <glyph glyph-name="uni1EF9" unicode="&#x1ef9;" horiz-adv-x="452" 
d="M524 714l4 -46s-54 -48 -88 -48c-37 0 -99 49 -128 49c-21 0 -78 -44 -78 -44l-2 47s60 50 94 50c40 0 99 -49 125 -49c19 0 73 41 73 41zM142 500h59l14 -448h34l229 448h63l-374 -724h-61l118 224h-65z" />
    <glyph glyph-name="endash" unicode="&#x2013;" horiz-adv-x="611" 
d="M118 295h500v-54h-500v54z" />
    <glyph glyph-name="emdash" unicode="&#x2014;" horiz-adv-x="1111" 
d="M118 295h1000v-54h-1000v54z" />
    <glyph glyph-name="quoteleft" unicode="&#x2018;" horiz-adv-x="182" 
d="M256 694h46l-88 -215h-62z" />
    <glyph glyph-name="quoteright" unicode="&#x2019;" horiz-adv-x="182" 
d="M200 480h-46l88 215h62z" />
    <glyph glyph-name="quotesinglbase" unicode="&#x201a;" horiz-adv-x="178" 
d="M44 -127h-46l88 215h62z" />
    <glyph glyph-name="quotedblleft" unicode="&#x201c;" horiz-adv-x="332" 
d="M255 695h46l-88 -215h-62zM406 695h46l-88 -215h-62z" />
    <glyph glyph-name="quotedblright" unicode="&#x201d;" horiz-adv-x="332" 
d="M200 480h-46l88 215h62zM350 480h-46l88 215h62z" />
    <glyph glyph-name="quotedblbase" unicode="&#x201e;" horiz-adv-x="319" 
d="M243 88h46l-88 -215h-62zM91 88h46l-88 -215h-62z" />
    <glyph glyph-name="dagger" unicode="&#x2020;" horiz-adv-x="442" 
d="M129 435l14 63l163 -2l46 194h56l-44 -192h163l-14 -63l-165 2l-121 -513h-55l119 511h-162z" />
    <glyph glyph-name="daggerdbl" unicode="&#x2021;" horiz-adv-x="483" 
d="M194 -76l45 192h-164l14 61l164 -1l61 259h-162l14 63l163 -2l46 194h56l-45 -192h164l-15 -63l-164 2l-61 -260h164l-15 -61l-164 2l-45 -194h-56z" />
    <glyph glyph-name="bullet" unicode="&#x2022;" horiz-adv-x="492" 
d="M179 107v288h250v-288h-250z" />
    <glyph glyph-name="ellipsis" unicode="&#x2026;" horiz-adv-x="647" 
d="M57 0l23 100h61l-23 -100h-61zM295 0l23 100h61l-23 -100h-61zM530 0l23 100h61l-23 -100h-61z" />
    <glyph glyph-name="perthousand" unicode="&#x2030;" horiz-adv-x="812" 
d="M294 657c42 0 49 -30 34 -93c-16 -62 -39 -96 -81 -96c-41 0 -48 34 -32 97c15 62 38 92 79 92zM159 5l361 701l43 -12l-361 -699zM164 565c-24 -97 7 -141 72 -141c64 0 118 44 142 140s-8 137 -73 137c-66 0 -117 -41 -141 -136zM340 141c24 95 76 136 141 136
s98 -41 74 -137s-78 -140 -142 -140c-65 0 -97 44 -73 141zM391 141c-16 -64 -9 -97 32 -97c42 0 65 33 81 96c16 62 8 93 -34 93c-41 0 -63 -31 -79 -92zM598 141c24 95 75 136 141 136c65 0 98 -41 74 -137s-78 -140 -142 -140c-65 0 -97 44 -73 141zM649 141
c-16 -64 -9 -97 32 -97c42 0 65 33 81 96c15 62 8 93 -34 93c-41 0 -64 -31 -79 -92z" />
    <glyph glyph-name="guilsinglleft" unicode="&#x2039;" horiz-adv-x="262" 
d="M303 402l-19 -63l-136 -92l91 -102l-17 -56l-135 145l11 31z" />
    <glyph glyph-name="guilsinglright" unicode="&#x203a;" horiz-adv-x="262" 
d="M73 89l19 63l136 92l-91 102l17 56l135 -145l-11 -31z" />
    <glyph glyph-name="fraction" unicode="&#x2044;" horiz-adv-x="8" 
d="M-97 -24l-57 21l427 690l56 -21z" />
    <glyph glyph-name="zerosuperior" unicode="&#x2070;" horiz-adv-x="280" 
d="M326 799c71 0 107 -41 76 -165c-18 -71 -42 -117 -74 -141c-25 -19 -53 -25 -84 -25c-71 0 -106 43 -75 167c18 71 43 116 75 140c23 19 52 24 82 24zM314 750c-42 0 -68 -30 -90 -116c-23 -90 -6 -116 33 -116s67 26 90 117c21 83 10 115 -33 115z" />
    <glyph glyph-name="foursuperior" unicode="&#x2074;" horiz-adv-x="280" 
d="M279 478l12 51h-143l12 46l130 215h59l-130 -211h84l26 87h50l-22 -87h30l-12 -50h-30l-13 -51h-53z" />
    <glyph glyph-name="fivesuperior" unicode="&#x2075;" horiz-adv-x="280" 
d="M239 790h182l-11 -49h-136l-27 -83s28 18 64 18c53 0 88 -27 71 -99c-21 -80 -69 -108 -133 -108c-47 0 -101 13 -101 13l17 47s51 -11 92 -11c31 0 58 19 67 58c11 40 -5 52 -33 52c-32 0 -63 -18 -63 -18l-42 5z" />
    <glyph glyph-name="sixsuperior" unicode="&#x2076;" horiz-adv-x="280" 
d="M424 790l-14 -46s-45 7 -81 7c-44 0 -72 -24 -88 -85c18 7 46 16 68 16c70 0 93 -39 77 -102c-18 -73 -63 -112 -136 -112c-74 0 -102 52 -74 164c31 122 82 167 165 167c37 0 83 -9 83 -9zM292 635c-31 0 -64 -18 -64 -19c-15 -62 -9 -99 33 -99c41 0 61 27 70 62
c10 41 1 56 -39 56z" />
    <glyph glyph-name="sevensuperior" unicode="&#x2077;" horiz-adv-x="280" 
d="M203 738l13 52h202l-18 -71l-169 -250l-60 14l167 233l5 22h-140z" />
    <glyph glyph-name="eightsuperior" unicode="&#x2078;" horiz-adv-x="280" 
d="M327 799c74 0 105 -28 91 -84c-10 -43 -32 -65 -67 -74c28 -9 47 -27 35 -76c-20 -77 -71 -97 -142 -97c-68 0 -110 25 -93 93c13 51 42 70 74 81c-26 10 -41 29 -31 74c15 59 59 83 133 83zM256 515c40 0 65 14 74 50c7 31 -4 43 -33 52h-30c-33 -9 -52 -21 -60 -55
c-8 -33 12 -47 49 -47zM315 753c-41 0 -60 -14 -67 -41c-6 -28 3 -39 30 -49h30c34 10 48 21 54 48c7 28 -5 42 -47 42z" />
    <glyph glyph-name="ninesuperior" unicode="&#x2079;" horiz-adv-x="280" 
d="M148 479l15 45s42 -6 79 -6c50 0 77 28 92 83c0 0 -41 -14 -72 -14c-63 0 -91 40 -74 105c16 69 68 107 136 107c77 0 101 -55 73 -167c-30 -122 -75 -164 -164 -164c-40 0 -85 11 -85 11zM280 633c27 0 67 17 67 17c15 64 9 101 -34 101c-34 0 -60 -20 -70 -59
c-8 -34 4 -59 37 -59z" />
    <glyph glyph-name="zeroinferior" unicode="&#x2080;" horiz-adv-x="280" 
d="M217 321c71 0 107 -41 76 -165c-18 -71 -42 -117 -74 -141c-25 -19 -53 -25 -84 -25c-71 0 -106 43 -75 167c18 71 43 116 75 140c23 19 52 24 82 24zM205 272c-42 0 -68 -30 -90 -116c-23 -90 -6 -116 33 -116s67 26 90 117c21 83 10 115 -33 115z" />
    <glyph glyph-name="oneinferior" unicode="&#x2081;" horiz-adv-x="280" 
d="M86 143l118 69h51l-77 -312h-54l63 253l-86 -50z" />
    <glyph glyph-name="twoinferior" unicode="&#x2082;" horiz-adv-x="280" 
d="M216 -100h-204l12 48l115 93c38 30 66 54 74 88c8 30 -12 41 -42 41c-31 0 -89 -10 -89 -10l10 49s60 12 102 12c66 0 90 -28 75 -88c-12 -47 -43 -78 -92 -116l-83 -68h134z" />
    <glyph glyph-name="threeinferior" unicode="&#x2083;" horiz-adv-x="280" 
d="M86 211c0 0 60 10 103 10c69 0 96 -25 82 -82c-13 -53 -57 -73 -62 -76c29 -10 45 -23 32 -77c-16 -66 -63 -96 -129 -96c-49 0 -107 11 -107 11l15 47s54 -8 100 -8c38 0 59 19 66 47c10 38 -9 49 -39 49h-65l11 47h65c20 0 49 22 56 51c6 25 -4 38 -41 38
c-44 0 -95 -8 -95 -8z" />
    <glyph glyph-name="fourinferior" unicode="&#x2084;" horiz-adv-x="280" 
d="M153 -100l12 51h-143l12 46l130 215h59l-130 -211h84l26 87h50l-22 -87h30l-12 -50h-30l-13 -51h-53z" />
    <glyph glyph-name="fiveinferior" unicode="&#x2085;" horiz-adv-x="280" 
d="M99 212h182l-11 -49h-136l-27 -83s28 18 64 18c53 0 88 -27 71 -99c-21 -80 -69 -108 -133 -108c-47 0 -101 13 -101 13l17 47s51 -11 92 -11c31 0 58 19 67 58c11 40 -5 52 -33 52c-32 0 -63 -18 -63 -18l-42 5z" />
    <glyph glyph-name="sixinferior" unicode="&#x2086;" horiz-adv-x="280" 
d="M289 212l-14 -46s-45 7 -81 7c-44 0 -72 -24 -88 -85c18 7 46 16 68 16c70 0 93 -39 77 -102c-18 -73 -63 -112 -136 -112c-74 0 -102 52 -74 164c31 122 82 167 165 167c37 0 83 -9 83 -9zM157 57c-31 0 -64 -18 -64 -19c-15 -62 -9 -99 33 -99c41 0 61 27 70 62
c10 41 1 56 -39 56z" />
    <glyph glyph-name="seveninferior" unicode="&#x2087;" horiz-adv-x="280" 
d="M75 160l13 52h202l-18 -71l-169 -250l-60 14l167 233l5 22h-140z" />
    <glyph glyph-name="eightinferior" unicode="&#x2088;" horiz-adv-x="280" 
d="M194 221c74 0 105 -28 91 -84c-10 -43 -32 -65 -67 -74c28 -9 47 -27 35 -76c-20 -77 -71 -97 -142 -97c-68 0 -110 25 -93 93c13 51 42 70 74 81c-26 10 -41 29 -31 74c15 59 59 83 133 83zM123 -63c40 0 65 14 74 50c7 31 -4 43 -33 52h-30c-33 -9 -52 -21 -60 -55
c-8 -33 12 -47 49 -47zM182 175c-41 0 -60 -14 -67 -41c-6 -28 3 -39 30 -49h30c34 10 48 21 54 48c7 28 -5 42 -47 42z" />
    <glyph glyph-name="nineinferior" unicode="&#x2089;" horiz-adv-x="280" 
d="M13 -99l15 45s42 -6 79 -6c50 0 77 28 92 83c0 0 -41 -14 -72 -14c-63 0 -91 40 -74 105c16 69 68 107 136 107c77 0 101 -55 73 -167c-30 -122 -75 -164 -164 -164c-40 0 -85 11 -85 11zM145 55c27 0 67 17 67 17c15 64 9 101 -34 101c-34 0 -60 -20 -70 -59
c-8 -34 4 -59 37 -59z" />
    <glyph glyph-name="Euro" unicode="&#x20ac;" 
d="M495 60l-3 -49s-85 -21 -160 -21c-121 0 -181 66 -181 190c0 11 0 24 1 36h-50l12 50h43c5 38 12 77 24 115h-41l12 50h46c50 131 143 240 285 240c75 0 157 -21 157 -21l-13 -48s-77 16 -147 16c-102 0 -175 -82 -219 -187h283l-11 -50h-290c-12 -38 -21 -77 -26 -115
h290l-11 -50h-283c-1 -12 -1 -23 -1 -34c0 -94 39 -138 129 -138c75 0 154 16 154 16z" />
    <glyph glyph-name="trademark" unicode="&#x2122;" horiz-adv-x="702" 
d="M220 584v43h200v-43h-73v-252h-46v252h-81zM452 331v296h64l73 -221l76 221h63v-296h-44v237l-75 -224h-40l-72 224v-237h-45z" />
    <glyph glyph-name="Omega" unicode="&#x2126;" 
d="M95 45h131s-112 196 -112 329c0 195 44 296 217 296s217 -101 217 -296c0 -133 -113 -329 -113 -329h132v-54h-194v46s111 213 111 320c0 172 -20 258 -153 258c-135 0 -153 -86 -153 -258c0 -107 110 -320 110 -320v-46h-193v54z" />
    <glyph glyph-name="partialdiff" unicode="&#x2202;" 
d="M181 631l-4 49s85 52 173 52c155 0 229 -105 229 -367c0 -252 -66 -374 -225 -374c-145 0 -220 71 -220 223c0 130 78 214 207 214c83 0 174 -31 174 -31c-4 196 -51 281 -176 281c-72 0 -158 -47 -158 -47zM347 374c-97 0 -150 -66 -150 -160c0 -108 54 -169 157 -169
c114 0 160 99 162 297c0 0 -90 32 -169 32z" />
    <glyph glyph-name="Delta" unicode="&#x2206;" 
d="M86 45l167 615h113l168 -615v-45h-448v45zM322 606h-25l-148 -552h321z" />
    <glyph glyph-name="product" unicode="&#x220f;" 
d="M498 -158v855h-229v-855h-62v855h-73v55h500v-55h-75v-855h-61z" />
    <glyph glyph-name="summation" unicode="&#x2211;" 
d="M390 310l-274 352v90h463v-56h-399v-24l267 -340v-46l-267 -361v-28h399v-55h-463v91z" />
    <glyph glyph-name="minus" unicode="&#x2212;" 
d="M125 223v56h425v-56h-425z" />
    <glyph glyph-name="radical" unicode="&#x221a;" 
d="M117 392v55h112l137 -532h9l242 859h62l-261 -912h-98l-142 530h-61z" />
    <glyph glyph-name="infinity" unicode="&#x221e;" 
d="M219 121c-82 0 -121 63 -121 171c0 107 39 171 119 171c67 0 101 -42 130 -114c28 72 62 114 129 114c81 0 120 -64 120 -171c0 -108 -39 -171 -122 -171c-65 0 -99 41 -127 112c-32 -86 -61 -112 -128 -112zM324 292c-24 56 -40 116 -101 116c-49 0 -66 -42 -66 -116
c0 -67 18 -116 66 -116c61 0 69 34 101 116zM369 292c25 -55 41 -116 101 -116c48 0 67 42 67 116s-18 116 -67 116c-60 0 -76 -60 -101 -116z" />
    <glyph glyph-name="integral" unicode="&#x222b;" 
d="M378 -4c0 -136 -44 -180 -133 -180c-36 0 -86 7 -86 7l3 52s42 -4 73 -4c60 0 82 31 82 126v574c0 158 45 208 132 208c44 0 89 -8 89 -8l-3 -51s-38 5 -76 5c-53 0 -81 -37 -81 -154v-575z" />
    <glyph glyph-name="approxequal" unicode="&#x2248;" 
d="M539 375l11 -50s-60 -54 -113 -54c-57 0 -157 66 -199 66c-40 0 -105 -49 -105 -49l-11 51s62 54 116 54c56 0 153 -66 199 -66c37 0 102 48 102 48zM539 199l11 -50s-60 -54 -113 -54c-57 0 -157 66 -199 66c-40 0 -105 -49 -105 -49l-11 51s62 54 116 54
c56 0 153 -66 199 -66c37 0 102 48 102 48z" />
    <glyph glyph-name="notequal" unicode="&#x2260;" 
d="M122 312v56h228l69 156l50 -20l-60 -136h142v-56h-166l-54 -123h220v-56h-245l-67 -154l-50 20l58 134h-125v56h150l54 123h-204z" />
    <glyph glyph-name="lessequal" unicode="&#x2264;" 
d="M534 431l-351 -115l351 -125v-61l-423 156v56l423 151v-62zM111 23v55h423v-55h-423z" />
    <glyph glyph-name="greaterequal" unicode="&#x2265;" 
d="M477 316l-351 115v62l423 -151v-56l-423 -156v61zM549 78v-55h-423v55h423z" />
    <glyph glyph-name="lozenge" unicode="&#x25ca;" 
d="M514 330l-145 165h36l174 -165l-174 -165h-36zM131 330l174 165h34l-143 -165l143 -165h-34zM367 162h-25l-3 3h30zM339 495l3 3h25l2 -3h-30z" />
    <glyph glyph-name="dotlessj" unicode="&#xf6be;" horiz-adv-x="197" 
d="M68 0l116 500h60l-116 -500c-35 -150 -49 -167 -200 -237l-20 49c124 63 134 75 160 188z" />
    <glyph glyph-name="commaaccent" unicode="&#xf6c3;" horiz-adv-x="161" 
d="M-37 -276l85 203h56l-93 -203h-48z" />
    <glyph glyph-name=".null" horiz-adv-x="0" 
 />
    <glyph glyph-name="CR" horiz-adv-x="223" 
 />
    <glyph glyph-name="DLE" horiz-adv-x="0" 
 />
    <glyph glyph-name="zero.pnum" horiz-adv-x="517" 
d="M378 509c123 0 166 -60 166 -164c0 -89 -34 -217 -119 -292c-44 -39 -103 -62 -176 -62c-116 0 -160 59 -160 163c0 122 51 247 142 311c42 29 91 44 147 44zM366 453c-129 0 -213 -144 -213 -291c0 -79 32 -115 111 -115c174 0 215 229 215 285c0 84 -28 121 -113 121z
" />
    <glyph glyph-name="one.pnum" horiz-adv-x="319" 
d="M111 386l205 114h61l-124 -500h-63l106 427l-168 -93z" />
    <glyph glyph-name="two.pnum" horiz-adv-x="444" 
d="M409 0h-372l13 55l210 149c77 53 156 119 156 184c0 37 -17 64 -101 64c-61 0 -165 -18 -166 -19l9 54s107 22 183 22c102 0 143 -45 143 -103c0 -101 -71 -162 -144 -213l-195 -137h272z" />
    <glyph glyph-name="three.pnum" horiz-adv-x="458" 
d="M169 489c0 0 104 20 181 20c109 0 147 -38 147 -89c0 -117 -90 -152 -126 -155c46 -8 81 -41 81 -85c0 -93 -59 -189 -219 -189c-85 0 -191 19 -191 19l21 53s99 -16 176 -16c109 0 151 61 151 123c0 57 -62 65 -100 65h-121l14 54h122c59 0 129 38 129 110
c0 43 -26 54 -97 54c-76 0 -175 -17 -175 -17z" />
    <glyph glyph-name="four.pnum" horiz-adv-x="457" 
d="M305 0l26 104h-277l12 49l254 347h72l-251 -342h204l32 131h61l-33 -131h61l-13 -54h-61l-26 -104h-61z" />
    <glyph glyph-name="five.pnum" horiz-adv-x="459" 
d="M192 501h321l-14 -57h-265l-54 -161s79 32 135 32c93 0 145 -39 145 -115c0 -119 -79 -209 -227 -209c-72 0 -184 22 -184 22l20 54s108 -22 174 -22c94 0 153 65 153 145c0 45 -21 72 -98 72c-57 0 -147 -37 -147 -37l-42 10z" />
    <glyph glyph-name="six.pnum" horiz-adv-x="475" 
d="M527 491l-18 -50s-72 14 -140 14c-92 0 -166 -52 -199 -180c27 14 107 39 161 39c117 0 147 -42 147 -110c0 -96 -57 -214 -242 -214c-105 0 -147 59 -147 145c0 194 93 374 289 374c66 0 149 -18 149 -18zM314 263c-68 0 -156 -39 -156 -39c-4 -20 -9 -57 -9 -81
c0 -57 20 -103 101 -103c153 0 167 125 167 157c0 37 -15 66 -103 66z" />
    <glyph glyph-name="seven.pnum" horiz-adv-x="394" 
d="M129 446l14 55h339l-20 -82l-321 -433l-49 29l306 409l6 22h-275z" />
    <glyph glyph-name="eight.pnum" horiz-adv-x="492" 
d="M367 509c112 0 167 -41 167 -99c0 -84 -58 -128 -130 -147c56 -20 78 -52 78 -91c0 -102 -63 -182 -244 -182c-112 0 -169 41 -169 102c0 100 67 146 137 171c-52 24 -66 55 -66 88c0 80 70 158 227 158zM252 46c120 0 166 51 166 128c0 29 -25 47 -77 60h-89
c-63 -13 -117 -52 -117 -129c0 -39 37 -59 117 -59zM349 456c-131 0 -145 -74 -145 -106c0 -28 10 -46 62 -62h88c65 18 114 43 114 110c0 37 -34 58 -119 58z" />
    <glyph glyph-name="nine.pnum" horiz-adv-x="475" 
d="M62 8l18 50s72 -14 140 -14c96 0 177 66 203 187c-40 -18 -106 -40 -164 -40c-117 0 -146 51 -146 111c0 89 56 207 240 207c105 0 147 -59 147 -146c0 -198 -93 -373 -289 -373c-66 0 -149 18 -149 18zM277 243c68 0 157 38 157 38c4 20 7 51 7 75
c0 58 -21 103 -102 103c-153 0 -166 -119 -166 -151c0 -30 15 -65 104 -65z" />
    <glyph glyph-name="questiondown.cap" horiz-adv-x="396" 
d="M65 120c0 101 38 138 167 240c50 40 75 75 82 108l8 39h57s-2 -29 -7 -55c-9 -46 -42 -88 -103 -135c-106 -85 -140 -118 -140 -194c0 -54 42 -72 108 -72c58 0 144 19 144 19l-3 -50s-88 -25 -153 -25c-92 0 -160 35 -160 125zM418 699l-22 -103h-62l23 103h61z" />
    <glyph glyph-name="endash.cap" horiz-adv-x="611" 
d="M124 325h500v-54h-500v54z" />
    <glyph glyph-name="emdash.cap" horiz-adv-x="1111" 
d="M124 325h1000v-54h-1000v54z" />
    <glyph glyph-name="periodcentered.cap" horiz-adv-x="174" 
d="M122 287l23 104h62l-23 -104h-62z" />
    <glyph glyph-name="exclamdown.cap" horiz-adv-x="195" 
d="M236 472l-109 -477h-60l116 477h53zM286 695l-23 -100h-61l23 100h61z" />
    <glyph glyph-name="parenleft.cap" horiz-adv-x="224" 
d="M319 778h58s-220 -334 -220 -639c0 -142 14 -233 14 -233h-56s-20 84 -20 233c0 326 224 639 224 639z" />
    <glyph glyph-name="parenright.cap" horiz-adv-x="226" 
d="M66 -88h-58s220 334 220 639c0 142 -14 233 -14 233h56s20 -84 20 -233c0 -326 -224 -639 -224 -639z" />
    <glyph glyph-name="bracketleft.cap" horiz-adv-x="284" 
d="M245 777h187l-12 -53h-127l-179 -763h127l-14 -53h-186z" />
    <glyph glyph-name="bracketright.cap" horiz-adv-x="282" 
d="M196 -91h-187l12 53h127l179 763h-127l14 53h186z" />
    <glyph glyph-name="braceleft.cap" horiz-adv-x="319" 
d="M228 253c0 -41 -48 -162 -48 -219c0 -49 30 -74 96 -74l-15 -56c-95 3 -141 41 -141 113c0 61 48 182 48 220c0 44 -23 64 -73 81l12 50c91 24 110 54 124 122c8 39 19 110 28 138c33 104 90 148 209 153l-10 -55c-96 -5 -133 -48 -150 -127c-5 -26 -16 -94 -22 -118
c-19 -85 -50 -116 -121 -140c36 -14 63 -37 63 -88z" />
    <glyph glyph-name="braceright.cap" horiz-adv-x="320" 
d="M249 430c0 41 48 162 48 219c0 49 -30 74 -96 74l15 56c95 -3 141 -41 141 -113c0 -61 -48 -182 -48 -220c0 -44 23 -64 73 -81l-12 -50c-91 -24 -110 -54 -124 -122c-8 -39 -19 -110 -28 -138c-33 -104 -90 -148 -209 -153l10 55c96 5 133 48 150 127c5 26 16 94 22 118
c19 85 50 116 121 140c-36 14 -63 37 -63 88z" />
    <glyph glyph-name="grave.cap" horiz-adv-x="484" 
d="M364 925l175 -95l-26 -43l-178 88z" />
    <glyph glyph-name="caron.cap" horiz-adv-x="433" 
d="M571 930l-156 -134h-36l-98 134h59l65 -89l103 89h63z" />
    <glyph glyph-name="tilde.cap" horiz-adv-x="427" 
d="M586 917l3 -42s-63 -59 -96 -59c-43 0 -108 59 -139 59c-21 0 -88 -51 -88 -51l-2 44s67 59 102 59c47 0 109 -58 139 -58c19 0 81 48 81 48z" />
    <glyph glyph-name="dieresis.cap" horiz-adv-x="381" 
d="M292 820l18 83h50l-20 -83h-48zM476 820l20 83h49l-20 -83h-49z" />
    <glyph glyph-name="macron.cap" horiz-adv-x="433" 
d="M267 828l10 46h286l-12 -46h-284z" />
    <glyph glyph-name="breve.cap" horiz-adv-x="433" 
d="M292 922h53c-10 -58 17 -75 64 -75c45 0 88 30 100 75h53c-22 -78 -81 -123 -164 -123c-80 0 -121 40 -106 123z" />
    <glyph glyph-name="ring.cap" horiz-adv-x="309" 
d="M434 792c-15 -59 -57 -95 -121 -95c-60 0 -91 35 -74 95c17 64 62 96 121 96c56 0 90 -29 74 -96zM280 792c-7 -29 5 -52 43 -52c36 0 62 19 70 52c7 33 -11 53 -44 53c-35 0 -61 -19 -69 -53z" />
    <glyph glyph-name="hungarumlaut.cap" horiz-adv-x="660" 
d="M529 759l-28 28l177 114l33 -29zM344 760l-30 27l180 115l31 -30z" />
    <glyph glyph-name="dotaccent.cap" horiz-adv-x="217" 
d="M266 798l17 78h50l-17 -78h-50z" />
    <glyph glyph-name="zero.numr" horiz-adv-x="280" 
d="M302 699c71 0 107 -41 76 -165c-18 -71 -42 -117 -74 -141c-25 -19 -53 -25 -84 -25c-71 0 -106 43 -75 167c18 71 43 116 75 140c23 19 52 24 82 24zM290 650c-42 0 -68 -30 -90 -116c-23 -90 -6 -116 33 -116s67 26 90 117c21 83 10 115 -33 115z" />
    <glyph glyph-name="one.numr" horiz-adv-x="280" 
d="M187 621l118 69h51l-77 -312h-54l63 253l-86 -50z" />
    <glyph glyph-name="two.numr" horiz-adv-x="280" 
d="M325 378h-204l12 48l115 93c38 30 66 54 74 88c8 30 -12 41 -42 41c-31 0 -89 -10 -89 -10l10 49s60 12 102 12c66 0 90 -28 75 -88c-12 -47 -43 -78 -92 -116l-83 -68h134z" />
    <glyph glyph-name="three.numr" horiz-adv-x="280" 
d="M200 689c0 0 60 10 103 10c69 0 96 -25 82 -82c-13 -53 -57 -73 -62 -76c29 -10 45 -23 32 -77c-16 -66 -63 -96 -129 -96c-49 0 -107 11 -107 11l15 47s54 -8 100 -8c38 0 59 19 66 47c10 38 -9 49 -39 49h-65l11 47h65c20 0 49 22 56 51c6 25 -4 38 -41 38
c-44 0 -95 -8 -95 -8z" />
    <glyph glyph-name="four.numr" horiz-adv-x="280" 
d="M256 378l12 51h-143l12 46l130 215h59l-130 -211h84l26 87h50l-22 -87h30l-12 -50h-30l-13 -51h-53z" />
    <glyph glyph-name="five.numr" horiz-adv-x="280" 
d="M214 690h182l-11 -49h-136l-27 -83s28 18 64 18c53 0 88 -27 71 -99c-21 -80 -69 -108 -133 -108c-47 0 -101 13 -101 13l17 47s51 -11 92 -11c31 0 58 19 67 58c11 40 -5 52 -33 52c-32 0 -63 -18 -63 -18l-42 5z" />
    <glyph glyph-name="six.numr" horiz-adv-x="280" 
d="M398 690l-14 -46s-45 7 -81 7c-44 0 -72 -24 -88 -85c18 7 46 16 68 16c70 0 93 -39 77 -102c-18 -73 -63 -112 -136 -112c-74 0 -102 52 -74 164c31 122 82 167 165 167c37 0 83 -9 83 -9zM266 535c-31 0 -64 -18 -64 -19c-15 -62 -9 -99 33 -99c41 0 61 27 70 62
c10 41 1 56 -39 56z" />
    <glyph glyph-name="seven.numr" horiz-adv-x="280" 
d="M186 638l13 52h202l-18 -71l-169 -250l-60 14l167 233l5 22h-140z" />
    <glyph glyph-name="eight.numr" horiz-adv-x="280" 
d="M303 699c74 0 105 -28 91 -84c-10 -43 -32 -65 -67 -74c28 -9 47 -27 35 -76c-20 -77 -71 -97 -142 -97c-68 0 -110 25 -93 93c13 51 42 70 74 81c-26 10 -41 29 -31 74c15 59 59 83 133 83zM232 415c40 0 65 14 74 50c7 31 -4 43 -33 52h-30c-33 -9 -52 -21 -60 -55
c-8 -33 12 -47 49 -47zM291 653c-41 0 -60 -14 -67 -41c-6 -28 3 -39 30 -49h30c34 10 48 21 54 48c7 28 -5 42 -47 42z" />
    <glyph glyph-name="nine.numr" horiz-adv-x="280" 
d="M126 379l15 45s42 -6 79 -6c50 0 77 28 92 83c0 0 -41 -14 -72 -14c-63 0 -91 40 -74 105c16 69 68 107 136 107c77 0 101 -55 73 -167c-30 -122 -75 -164 -164 -164c-40 0 -85 11 -85 11zM258 533c27 0 67 17 67 17c15 64 9 101 -34 101c-34 0 -60 -20 -70 -59
c-8 -34 4 -59 37 -59z" />
    <glyph glyph-name="zero.slash" 
d="M415 670c41 0 76 -7 104 -21l97 149l44 -17l-103 -159c35 -33 54 -84 54 -151c0 -228 -102 -481 -318 -481c-50 0 -92 13 -124 37l-93 -144l-42 16l103 160c-24 32 -36 75 -36 128c0 230 109 483 314 483zM546 465c0 41 -10 75 -27 99l-314 -483c22 -23 54 -34 92 -34
c168 0 249 232 249 418zM411 613c-172 0 -245 -240 -245 -421c0 -27 4 -51 12 -70l307 473c-20 12 -45 18 -74 18z" />
    <glyph glyph-name="at.cap" horiz-adv-x="911" 
d="M652 814c320 0 369 -193 314 -422c-63 -266 -133 -307 -235 -307c-53 0 -88 15 -95 59c-40 -20 -129 -59 -191 -59c-138 -1 -126 132 -111 219c34 192 115 301 254 301c38 0 124 -13 183 -24c-12 -47 -82 -339 -83 -395c-1 -39 19 -44 55 -44c66 0 115 34 168 260
c45 198 21 358 -270 358c-253 0 -388 -113 -459 -402c-54 -220 -19 -408 280 -408c37 0 136 9 136 9l-10 -54s-95 -10 -140 -10c-351 0 -377 249 -326 463c79 336 237 456 530 456zM459 141c58 -1 130 34 169 55c3 34 45 224 73 341c-26 7 -75 15 -117 15
c-108 0 -158 -95 -190 -249c-17 -78 -15 -162 65 -162z" />
    <glyph glyph-name="zero.dnom" horiz-adv-x="280" 
d="M195 221c71 0 107 -41 76 -165c-18 -71 -42 -117 -74 -141c-25 -19 -53 -25 -84 -25c-71 0 -106 43 -75 167c18 71 43 116 75 140c23 19 52 24 82 24zM183 172c-42 0 -68 -30 -90 -116c-23 -90 -6 -116 33 -116s67 26 90 117c21 83 10 115 -33 115z" />
    <glyph glyph-name="one.dnom" horiz-adv-x="280" 
d="M84 143l118 69h51l-77 -312h-54l63 253l-86 -50z" />
    <glyph glyph-name="two.dnom" horiz-adv-x="280" 
d="M218 -100h-204l12 48l115 93c38 30 66 54 74 88c8 30 -12 41 -42 41c-31 0 -89 -10 -89 -10l10 49s60 12 102 12c66 0 90 -28 75 -88c-12 -47 -43 -78 -92 -116l-83 -68h134z" />
    <glyph glyph-name="three.dnom" horiz-adv-x="280" 
d="M87 211c0 0 60 10 103 10c69 0 96 -25 82 -82c-13 -53 -57 -73 -62 -76c29 -10 45 -23 32 -77c-16 -66 -63 -96 -129 -96c-49 0 -107 11 -107 11l15 47s54 -8 100 -8c38 0 59 19 66 47c10 38 -9 49 -39 49h-65l11 47h65c20 0 49 22 56 51c6 25 -4 38 -41 38
c-44 0 -95 -8 -95 -8z" />
    <glyph glyph-name="four.dnom" horiz-adv-x="280" 
d="M154 -100l12 51h-143l12 46l130 215h59l-130 -211h84l26 87h50l-22 -87h30l-12 -50h-30l-13 -51h-53z" />
    <glyph glyph-name="five.dnom" horiz-adv-x="280" 
d="M99 212h182l-11 -49h-136l-27 -83s28 18 64 18c53 0 88 -27 71 -99c-21 -80 -69 -108 -133 -108c-47 0 -101 13 -101 13l17 47s51 -11 92 -11c31 0 58 19 67 58c11 40 -5 52 -33 52c-32 0 -63 -18 -63 -18l-42 5z" />
    <glyph glyph-name="six.dnom" horiz-adv-x="280" 
d="M288 212l-14 -46s-45 7 -81 7c-44 0 -72 -24 -88 -85c18 7 46 16 68 16c70 0 93 -39 77 -102c-18 -73 -63 -112 -136 -112c-74 0 -102 52 -74 164c31 122 82 167 165 167c37 0 83 -9 83 -9zM156 57c-31 0 -64 -18 -64 -19c-15 -62 -9 -99 33 -99c41 0 61 27 70 62
c10 41 1 56 -39 56z" />
    <glyph glyph-name="seven.dnom" horiz-adv-x="280" 
d="M75 160l13 52h202l-18 -71l-169 -250l-60 14l167 233l5 22h-140z" />
    <glyph glyph-name="eight.dnom" horiz-adv-x="280" 
d="M195 221c74 0 105 -28 91 -84c-10 -43 -32 -65 -67 -74c28 -9 47 -27 35 -76c-20 -77 -71 -97 -142 -97c-68 0 -110 25 -93 93c13 51 42 70 74 81c-26 10 -41 29 -31 74c15 59 59 83 133 83zM124 -63c40 0 65 14 74 50c7 31 -4 43 -33 52h-30c-33 -9 -52 -21 -60 -55
c-8 -33 12 -47 49 -47zM183 175c-41 0 -60 -14 -67 -41c-6 -28 3 -39 30 -49h30c34 10 48 21 54 48c7 28 -5 42 -47 42z" />
    <glyph glyph-name="nine.dnom" horiz-adv-x="280" 
d="M14 -99l15 45s42 -6 79 -6c50 0 77 28 92 83c0 0 -41 -14 -72 -14c-63 0 -91 40 -74 105c16 69 68 107 136 107c77 0 101 -55 73 -167c-30 -122 -75 -164 -164 -164c-40 0 -85 11 -85 11zM146 55c27 0 67 17 67 17c15 64 9 101 -34 101c-34 0 -60 -20 -70 -59
c-8 -34 4 -59 37 -59z" />
    <glyph glyph-name="hyphen.cap" horiz-adv-x="353" 
d="M115 270l14 56h246l-14 -56h-246z" />
    <glyph glyph-name="acute.cap.001" horiz-adv-x="499" 
d="M331 790l-8 45l219 95l9 -52z" />
    <glyph glyph-name="circumflex.cap.001" horiz-adv-x="433" 
d="M252 797l161 134h30l97 -134h-56l-61 86l-105 -86h-66z" />
    </font>
</defs>
</svg>
