<?xml version="1.0" standalone="no"?>
<!DOCTYPE svg PUBLIC "-//W3C//DTD SVG 1.1//EN" "http://www.w3.org/Graphics/SVG/1.1/DTD/svg11.dtd" >
<svg version="1.1" xmlns="http://www.w3.org/2000/svg">
<metadata>
Created by FontForge 20120731 at Fri Aug  1 16:50:39 2014
 By Alfred Xing
Copyright (c) 2008-2011 by Accademia di Belle Arti di Urbino and others. All rights reserved.
</metadata>
<defs>
<font id="Titillium-Regular" horiz-adv-x="560" >
  <font-face 
    font-family="Titillium"
    font-weight="400"
    font-stretch="normal"
    units-per-em="1000"
    panose-1="0 0 5 0 0 0 0 0 0 0"
    ascent="750"
    descent="-250"
    x-height="500"
    cap-height="692"
    bbox="-224 -285 1067 1082"
    underline-thickness="30"
    underline-position="-80"
    stemh="67"
    stemv="77"
    unicode-range="U+0020-F6C3"
  />
<missing-glyph horiz-adv-x="235" 
 />
    <glyph glyph-name=".notdef" horiz-adv-x="235" 
 />
    <glyph glyph-name="space" unicode=" " horiz-adv-x="220" 
 />
    <glyph glyph-name="exclam" unicode="!" horiz-adv-x="247" 
d="M83 0v112h82v-112h-82zM89 228l-5 464h79l-5 -464h-69z" />
    <glyph glyph-name="quotedbl" unicode="&#x22;" horiz-adv-x="373" 
d="M303 470h-67l-4 222h75zM137 470h-67l-4 222h75z" />
    <glyph glyph-name="numbersign" unicode="#" 
d="M536 174h-111v-174h-68v174h-154v-174h-68v174h-111v64h111v186h-111v64h111v178h68v-178h154v178h68v-178h111v-64h-111v-186h111v-64zM357 238v186h-154v-186h154z" />
    <glyph glyph-name="dollar" unicode="$" 
d="M480 651l-6 -62s-69 8 -127 13l-30 -233c122 -29 177 -63 177 -175c0 -145 -80 -203 -211 -203h-15l-14 -115s-51 3 -51 7l14 111c-70 6 -143 18 -143 18l8 61s77 -11 143 -15l33 250c-126 29 -189 64 -189 185c0 127 84 177 212 177c7 0 15 0 23 -1l17 129h51l-17 -132
c63 -6 125 -15 125 -15zM143 497c0 -75 36 -96 124 -117l29 225h-10c-93 0 -143 -33 -143 -108zM420 189c0 65 -31 90 -112 109l-31 -242h2c94 0 141 41 141 133z" />
    <glyph glyph-name="percent" unicode="%" 
d="M155 -4l205 685l48 -16l-205 -683zM138 670c68 0 110 -42 110 -138c0 -97 -43 -141 -110 -141s-110 44 -110 141c0 96 42 138 110 138zM89 532c0 -59 13 -90 49 -90c37 0 50 31 50 90s-13 87 -50 87c-36 0 -49 -28 -49 -87zM422 269c68 0 110 -42 110 -138
s-43 -141 -110 -141s-109 45 -109 142c0 95 41 137 109 137zM373 132c0 -60 13 -91 49 -91c38 0 50 31 50 90s-12 87 -50 87c-36 0 -49 -28 -49 -86z" />
    <glyph glyph-name="ampersand" unicode="&#x26;" horiz-adv-x="688" 
d="M314 701c117 0 173 -59 173 -152c0 -95 -46 -139 -154 -189l152 -150c11 32 25 114 28 162l73 -1c-7 -70 -27 -161 -46 -208l129 -122l-45 -50l-121 113c-46 -76 -120 -114 -215 -114c-187 0 -246 81 -246 213c0 119 50 168 155 202c-50 57 -57 91 -57 149
c0 88 63 147 174 147zM282 58c75 0 137 28 169 90l-211 210c-87 -27 -122 -65 -122 -150c0 -98 46 -150 164 -150zM215 542c0 -37 10 -72 45 -109l29 -28c88 38 123 68 123 139c0 60 -29 92 -98 92c-63 0 -99 -30 -99 -94z" />
    <glyph glyph-name="quotesingle" unicode="'" horiz-adv-x="208" 
d="M70 470l-3 222h75l-5 -222h-67z" />
    <glyph glyph-name="parenleft" unicode="(" horiz-adv-x="264" 
d="M155 750h72s-95 -256 -95 -449c0 -191 95 -426 95 -426h-72s-104 210 -104 426s104 449 104 449z" />
    <glyph glyph-name="parenright" unicode=")" horiz-adv-x="264" 
d="M37 750h72s104 -233 104 -449s-104 -426 -104 -426h-72s95 235 95 426c0 193 -95 449 -95 449z" />
    <glyph glyph-name="asterisk" unicode="*" horiz-adv-x="420" 
d="M373 511h-132l41 -125l-49 -15l-41 126l-107 -79l-31 40l108 79l-106 77l31 42l106 -78l41 126l49 -16l-40 -127h130v-50z" />
    <glyph glyph-name="plus" unicode="+" 
d="M55 217v68h189v195h70v-195h191v-68h-191v-197h-70v197h-189z" />
    <glyph glyph-name="comma" unicode="," horiz-adv-x="223" 
d="M34 -123l46 230h83l-67 -230h-62z" />
    <glyph glyph-name="hyphen" unicode="-" horiz-adv-x="438" 
d="M68 240v70h303v-70h-303z" />
    <glyph glyph-name="period" unicode="." horiz-adv-x="216" 
d="M67 0v114h82v-114h-82z" />
    <glyph glyph-name="slash" unicode="/" horiz-adv-x="412" 
d="M32 10l282 698l67 -25l-282 -697z" />
    <glyph glyph-name="zero" unicode="0" 
d="M279 671c156 0 241 -79 241 -351c0 -253 -89 -330 -240 -330s-241 75 -241 329c0 272 88 352 240 352zM280 602c-108 0 -161 -58 -161 -283c0 -207 57 -261 161 -261s161 55 161 262c0 222 -51 282 -161 282z" />
    <glyph glyph-name="one" unicode="1" 
d="M107 520l210 140h72v-660h-77v574l-170 -112z" />
    <glyph glyph-name="two" unicode="2" 
d="M491 0h-422v65l193 203c82 85 133 139 133 217c0 88 -49 116 -144 116c-73 0 -171 -22 -171 -22l-6 64s95 27 191 27c139 0 209 -53 209 -177c0 -99 -45 -157 -138 -247l-176 -179h331v-67z" />
    <glyph glyph-name="three" unicode="3" 
d="M79 582l-7 61s94 28 194 28c156 0 211 -55 211 -172c0 -103 -79 -138 -98 -150c67 -24 114 -53 114 -160c0 -133 -65 -199 -214 -199c-104 0 -217 27 -217 27l7 63s108 -22 202 -22c98 1 143 43 143 128c0 91 -61 121 -136 124h-133v66h133c50 0 120 44 120 120
c0 75 -37 106 -135 106c-91 0 -184 -20 -184 -20z" />
    <glyph glyph-name="four" unicode="4" 
d="M360 0v129h-320v60l188 471h84l-191 -463h239v206h77v-206h84v-68h-84v-129h-77z" />
    <glyph glyph-name="five" unicode="5" 
d="M92 660h385v-70h-321l-18 -215s77 41 155 41c129 0 210 -54 210 -195c0 -152 -83 -230 -221 -230c-101 0 -219 29 -219 29l9 61s115 -22 203 -22c91 0 149 54 149 156c0 100 -56 132 -140 132c-82 0 -157 -40 -157 -40l-53 10z" />
    <glyph glyph-name="six" unicode="6" 
d="M489 653l-7 -63s-90 12 -174 12c-115 0 -178 -82 -178 -228c0 -1 93 39 165 39c146 0 222 -66 222 -205c0 -140 -84 -218 -231 -218c-164 0 -236 129 -236 343c0 239 101 337 258 337c84 0 181 -17 181 -17zM290 344c-77 0 -161 -38 -161 -38c1 -141 43 -248 157 -248
c98 0 151 53 151 150c0 92 -55 136 -147 136z" />
    <glyph glyph-name="seven" unicode="7" 
d="M77 590v70h410v-101l-254 -569l-73 23l249 551v26h-332z" />
    <glyph glyph-name="eight" unicode="8" 
d="M278 671c142 0 239 -56 239 -172c0 -85 -33 -120 -110 -154c71 -32 120 -71 120 -166c0 -145 -112 -189 -249 -189c-133 0 -246 41 -246 178c0 103 46 140 114 177c-69 34 -103 73 -103 155c0 114 91 171 235 171zM278 60c98 0 167 30 167 127c0 77 -51 102 -117 121
h-105c-69 -19 -109 -53 -109 -127c0 -91 70 -121 164 -121zM279 601c-96 0 -154 -31 -154 -110c0 -61 33 -93 98 -116h105c68 22 107 54 107 115c0 79 -59 111 -156 111z" />
    <glyph glyph-name="nine" unicode="9" 
d="M66 8l7 62s90 -12 174 -12c121 0 181 74 182 230c0 0 -100 -38 -172 -38c-138 0 -216 62 -216 201c0 135 90 219 229 219c166 0 239 -132 239 -342c0 -256 -99 -338 -262 -338c-84 0 -181 18 -181 18zM263 318c69 0 167 36 167 36c-2 144 -44 248 -160 248
c-93 0 -149 -58 -149 -151s50 -133 142 -133z" />
    <glyph glyph-name="colon" unicode=":" horiz-adv-x="217" 
d="M67 322v114h82v-114h-82zM67 0v114h82v-114h-82z" />
    <glyph glyph-name="semicolon" unicode=";" horiz-adv-x="248" 
d="M93 107l-45 -230h62l67 230h-84zM88 322v114h81v-114h-81z" />
    <glyph glyph-name="less" unicode="&#x3c;" 
d="M477 409l-339 -157l339 -160v-79l-416 205v66l416 203v-78z" />
    <glyph glyph-name="equal" unicode="=" 
d="M64 309v69h432v-69h-432zM64 124v69h432v-69h-432z" />
    <glyph glyph-name="greater" unicode="&#x3e;" 
d="M421 252l-339 157v78l416 -203v-66l-416 -205v79z" />
    <glyph glyph-name="question" unicode="?" horiz-adv-x="447" 
d="M406 542c0 -86 -15 -116 -93 -181c-59 -49 -89 -80 -89 -125v-35h-63s-13 27 -13 61c0 49 40 88 93 133c72 62 89 85 89 141c0 71 -43 98 -133 98c-56 0 -155 -23 -155 -23l-5 61s101 30 167 30c134 0 202 -44 202 -160zM150 1v112h82v-112h-82z" />
    <glyph glyph-name="at" unicode="@" horiz-adv-x="977" 
d="M933 305v-13c0 -257 -68 -298 -175 -298c-100 0 -118 60 -118 60s-98 -59 -174 -59c-86 0 -176 32 -176 251c0 168 47 259 203 259c49 0 115 -26 115 -26v16h75v-191c0 -224 5 -247 77 -247c59 0 97 20 97 235v14c0 244 -99 351 -353 351c-253 0 -377 -117 -377 -396
c0 -296 114 -398 377 -398c44 0 143 10 143 10l3 -67s-94 -9 -146 -9c-296 0 -453 103 -453 464c0 330 165 462 453 462c301 0 429 -138 429 -418zM471 61c53 0 137 42 146 46c-2 12 -9 96 -9 173v139s-60 20 -103 20c-114 0 -139 -67 -139 -195c0 -155 54 -183 105 -183z
" />
    <glyph glyph-name="A" unicode="A" horiz-adv-x="596" 
d="M24 0l190 692h168l190 -692h-76l-50 178h-296l-50 -178h-76zM272 626l-105 -379h262l-105 379h-52z" />
    <glyph glyph-name="B" unicode="B" horiz-adv-x="616" 
d="M85 692h251c135 0 206 -53 206 -176c0 -90 -33 -133 -89 -159c61 -21 110 -63 110 -163c0 -146 -84 -194 -214 -194h-264v692zM341 318h-179v-250h184c84 0 139 27 139 129c0 107 -91 121 -144 121zM333 624h-171v-239h178c87 0 123 41 123 124c0 81 -42 115 -130 115z
" />
    <glyph glyph-name="C" unicode="C" horiz-adv-x="544" 
d="M500 77l3 -66c-49 -10 -125 -21 -191 -21c-207 0 -253 126 -253 354c0 234 45 358 253 358c71 0 147 -13 191 -22l-3 -65c-45 8 -126 18 -180 18c-154 0 -181 -92 -181 -289c0 -193 25 -285 183 -285c56 0 130 9 178 18z" />
    <glyph glyph-name="D" unicode="D" horiz-adv-x="645" 
d="M332 0h-247v692h247c201 0 256 -140 256 -336c0 -198 -52 -356 -256 -356zM509 356c0 150 -33 268 -177 268h-170v-556h170c144 0 177 138 177 288z" />
    <glyph glyph-name="E" unicode="E" horiz-adv-x="553" 
d="M85 0v692h421v-68h-344v-239h284v-67h-284v-250h344v-68h-421z" />
    <glyph glyph-name="F" unicode="F" horiz-adv-x="526" 
d="M85 0v692h414v-68h-337v-270h285v-68h-285v-286h-77z" />
    <glyph glyph-name="G" unicode="G" horiz-adv-x="616" 
d="M359 285v69h191v-340c-21 -4 -149 -24 -225 -24c-212 0 -268 130 -268 354c0 230 58 358 266 358c105 0 227 -26 227 -26l-3 -64s-124 21 -215 21c-160 0 -195 -93 -195 -289c0 -192 34 -286 194 -286c50 0 117 9 143 14v213h-115z" />
    <glyph glyph-name="H" unicode="H" horiz-adv-x="675" 
d="M514 0v313h-352v-313h-77v692h77v-310h352v310h76v-692h-76z" />
    <glyph glyph-name="I" unicode="I" horiz-adv-x="246" 
d="M85 0v692h77v-692h-77z" />
    <glyph glyph-name="J" unicode="J" horiz-adv-x="289" 
d="M207 692l1 -597c0 -150 -58 -167 -190 -167v69c91 0 113 6 113 109v586h76z" />
    <glyph glyph-name="K" unicode="K" horiz-adv-x="569" 
d="M461 0l-184 306l-115 -4v-302h-77v692h77v-322l114 4l177 318h88l-198 -348l209 -344h-91z" />
    <glyph glyph-name="L" unicode="L" horiz-adv-x="479" 
d="M466 0h-381v692h77v-623h304v-69z" />
    <glyph glyph-name="M" unicode="M" horiz-adv-x="840" 
d="M85 0v692h139l196 -585l196 585h139v-692h-77v610h-14l-201 -585h-86l-201 585h-14v-610h-77z" />
    <glyph glyph-name="N" unicode="N" horiz-adv-x="676" 
d="M85 0v692h144l265 -624h21v624h76v-692h-141l-269 624h-19v-624h-77z" />
    <glyph glyph-name="O" unicode="O" horiz-adv-x="660" 
d="M330 58c161 0 194 90 194 285c0 187 -36 291 -194 291c-159 0 -194 -103 -194 -291c0 -189 34 -285 194 -285zM330 -10c-215 0 -273 121 -273 353c0 228 59 359 273 359s274 -129 274 -359c0 -238 -59 -353 -274 -353z" />
    <glyph glyph-name="P" unicode="P" horiz-adv-x="593" 
d="M338 233h-176v-233h-77v692h253c151 0 221 -73 221 -223c0 -151 -70 -236 -221 -236zM162 301h175c101 0 143 61 143 168c0 106 -42 155 -143 155h-175v-323z" />
    <glyph glyph-name="Q" unicode="Q" horiz-adv-x="660" 
d="M502 -145l-88 144c-22 -6 -52 -9 -84 -9c-215 0 -273 121 -273 353c0 228 59 359 273 359s274 -129 274 -359c0 -163 -28 -266 -115 -317l85 -137zM330 58c161 0 194 89 194 285c0 187 -36 291 -194 291c-159 0 -194 -103 -194 -291c0 -190 34 -285 194 -285z" />
    <glyph glyph-name="R" unicode="R" horiz-adv-x="616" 
d="M358 265h-196v-265h-77v692h256c145 0 221 -64 221 -210c0 -102 -40 -173 -127 -201l133 -281h-85zM483 482c0 95 -45 142 -142 142h-179v-291h180c104 0 141 62 141 149z" />
    <glyph glyph-name="S" unicode="S" horiz-adv-x="542" 
d="M480 683l-7 -65s-139 17 -197 17c-98 0 -150 -35 -150 -113c0 -90 48 -105 169 -132c138 -31 199 -65 199 -186c0 -153 -84 -213 -221 -213c-82 0 -219 22 -219 22l8 64s136 -18 207 -18c98 0 148 43 148 139c0 78 -41 100 -154 122c-143 31 -215 65 -215 197
c0 134 88 186 223 186c82 0 209 -20 209 -20z" />
    <glyph glyph-name="T" unicode="T" horiz-adv-x="526" 
d="M13 623v69h500v-69h-211v-623h-76v623h-213z" />
    <glyph glyph-name="U" unicode="U" horiz-adv-x="644" 
d="M157 208c0 -108 60 -150 162 -150c108 0 169 42 169 150v484h76v-482c0 -158 -87 -220 -245 -220c-152 0 -239 61 -239 220v482h77v-484z" />
    <glyph glyph-name="V" unicode="V" horiz-adv-x="582" 
d="M478 692h80l-181 -692h-172l-181 692h80l159 -624h56z" />
    <glyph glyph-name="W" unicode="W" horiz-adv-x="886" 
d="M30 692h80l118 -624h29l141 618h90l141 -618h29l118 624h79l-140 -692h-141l-131 591l-131 -591h-141z" />
    <glyph glyph-name="X" unicode="X" horiz-adv-x="558" 
d="M106 692l175 -296l176 296h83l-213 -351l213 -341h-87l-174 287l-177 -287h-83l214 339l-214 353h87z" />
    <glyph glyph-name="Y" unicode="Y" horiz-adv-x="538" 
d="M308 291v-291h-77v291l-221 401h87l172 -324l172 324h87z" />
    <glyph glyph-name="Z" unicode="Z" horiz-adv-x="536" 
d="M43 624v68h450v-90l-362 -514v-20h362v-69h-450v89l361 514v22h-361z" />
    <glyph glyph-name="bracketleft" unicode="[" horiz-adv-x="329" 
d="M289 749v-67h-134v-738h134v-67h-210v872h210z" />
    <glyph glyph-name="backslash" unicode="\" horiz-adv-x="436" 
d="M405 14l-67 -28l-308 692l67 29z" />
    <glyph glyph-name="bracketright" unicode="]" horiz-adv-x="329" 
d="M40 682v67h210v-872h-210v67h134v738h-134z" />
    <glyph glyph-name="asciicircum" unicode="^" 
d="M421 319l-143 267l-140 -267h-80l185 341h67l191 -341h-80z" />
    <glyph glyph-name="underscore" unicode="_" horiz-adv-x="632" 
d="M102 -92h428v-66h-428v66z" />
    <glyph glyph-name="grave" unicode="`" horiz-adv-x="236" 
d="M25 740l216 -98l-21 -51l-221 85z" />
    <glyph glyph-name="a" unicode="a" horiz-adv-x="501" 
d="M425 349v-256c2 -29 26 -40 58 -44l-3 -59c-53 0 -89 10 -119 40c0 0 -90 -40 -180 -40c-91 0 -141 52 -141 153c0 96 50 138 153 148l157 15v43c0 70 -30 95 -90 95c-70 0 -189 -13 -189 -13l-3 57s110 22 196 22c113 0 161 -52 161 -161zM350 249l-148 -14
c-61 -6 -85 -35 -85 -90c0 -58 25 -92 76 -92c74 0 157 31 157 31v165z" />
    <glyph glyph-name="b" unicode="b" horiz-adv-x="526" 
d="M293 510c136 0 182 -72 182 -252c0 -199 -54 -268 -236 -268c-60 0 -167 11 -167 11v717h74v-243s76 35 147 35zM238 57c137 0 161 61 161 201c0 129 -26 185 -114 185c-69 0 -139 -29 -139 -29v-352s65 -5 92 -5z" />
    <glyph glyph-name="c" unicode="c" horiz-adv-x="436" 
d="M259 510c46 0 136 -15 136 -15l-3 -61s-80 9 -118 9c-115 0 -146 -50 -146 -184c0 -148 23 -202 147 -202c38 0 118 9 118 9l3 -62s-93 -14 -139 -14c-159 0 -206 73 -206 269c0 181 59 251 208 251z" />
    <glyph glyph-name="d" unicode="d" horiz-adv-x="529" 
d="M456 718v-718h-74v34s-77 -44 -152 -44c-98 0 -180 40 -180 256c0 176 57 264 209 264c43 0 108 -10 123 -13v221h74zM239 57c71 0 143 37 143 37v339c-16 3 -78 12 -119 12c-105 0 -136 -69 -136 -199c0 -162 53 -189 112 -189z" />
    <glyph glyph-name="e" unicode="e" horiz-adv-x="505" 
d="M257 56c75 0 184 9 184 9l2 -59s-114 -16 -195 -16c-149 0 -198 87 -198 257c0 190 82 263 209 263c133 0 201 -70 201 -234l-4 -57h-330c0 -107 33 -163 131 -163zM125 279h260c0 124 -38 168 -126 168c-85 0 -133 -47 -134 -168z" />
    <glyph glyph-name="f" unicode="f" horiz-adv-x="331" 
d="M168 435v-435h-75v435h-63v65h63v45c0 144 37 183 135 183c34 0 101 -7 101 -7l-1 -62s-56 2 -86 2c-56 0 -74 -24 -74 -117v-44h145v-65h-145z" />
    <glyph glyph-name="g" unicode="g" horiz-adv-x="514" 
d="M265 -235c-158 0 -215 35 -215 151c0 58 27 85 79 124c-18 12 -28 38 -28 69c0 19 34 79 34 79c-42 19 -79 59 -79 151c0 123 76 171 187 171c50 0 104 -13 104 -13l148 4v-64l-95 2c19 -19 33 -47 33 -100c0 -130 -65 -169 -193 -169c-10 0 -38 2 -49 4
c0 0 -18 -44 -18 -57c0 -40 8 -46 121 -46c142 0 193 -28 193 -147c0 -113 -81 -159 -222 -159zM288 5c-35 0 -108 5 -108 5c-42 -31 -56 -49 -56 -88c0 -69 29 -94 142 -94c100 0 145 27 145 93c0 76 -32 84 -123 84zM243 230c84 0 115 30 115 109s-31 110 -115 110
c-78 0 -112 -31 -112 -110s34 -109 112 -109z" />
    <glyph glyph-name="h" unicode="h" horiz-adv-x="537" 
d="M147 0h-75v718h75v-246s80 38 154 38c137 0 169 -68 169 -246v-264h-75v262c0 132 -15 181 -107 181c-71 0 -141 -30 -141 -30v-413z" />
    <glyph glyph-name="i" unicode="i" horiz-adv-x="219" 
d="M72 0v500h75v-500h-75zM72 613v87h75v-87h-75z" />
    <glyph glyph-name="j" unicode="j" horiz-adv-x="219" 
d="M73 13v487h74v-488c0 -123 -33 -167 -166 -235l-30 58c101 59 122 82 122 178zM73 613v87h74v-87h-74z" />
    <glyph glyph-name="k" unicode="k" horiz-adv-x="479" 
d="M147 0h-75v718h75v-424l78 4l143 202h85l-163 -230l170 -270h-85l-149 232l-79 -3v-229z" />
    <glyph glyph-name="l" unicode="l" horiz-adv-x="231" 
d="M78 0v718h75v-718h-75z" />
    <glyph glyph-name="m" unicode="m" horiz-adv-x="836" 
d="M147 0h-75v500h74v-35s75 45 146 45c67 0 104 -15 130 -51c0 0 89 51 178 51c136 0 169 -65 169 -246v-264h-75v262c0 132 -15 181 -105 181c-74 0 -141 -37 -141 -37c9 -23 13 -86 13 -146v-260h-75v258c0 138 -14 185 -105 185c-71 0 -134 -37 -134 -37v-406z" />
    <glyph glyph-name="n" unicode="n" horiz-adv-x="537" 
d="M147 0h-75v500h74v-35s81 45 155 45c138 0 169 -68 169 -246v-264h-74v262c0 132 -15 181 -108 181c-72 0 -141 -37 -141 -37v-406z" />
    <glyph glyph-name="o" unicode="o" horiz-adv-x="528" 
d="M264 510c159 0 214 -82 214 -254c0 -182 -45 -266 -214 -266c-168 0 -214 84 -214 266c0 172 56 254 214 254zM264 55c119 0 137 59 137 201c0 139 -30 189 -137 189c-106 0 -137 -50 -137 -189c0 -142 19 -201 137 -201z" />
    <glyph glyph-name="p" unicode="p" horiz-adv-x="527" 
d="M72 -222v722h74v-36s76 46 150 46c126 0 181 -77 181 -254c0 -196 -64 -266 -218 -266c-47 0 -98 8 -112 11v-223h-75zM285 443c-68 0 -138 -40 -138 -40v-337c13 -2 65 -11 108 -11c110 0 146 57 146 201c0 137 -43 187 -116 187z" />
    <glyph glyph-name="q" unicode="q" horiz-adv-x="526" 
d="M238 -10c-136 0 -188 75 -188 252c0 197 60 268 236 268c52 0 167 -10 167 -10v-722h-74v245s-70 -33 -141 -33zM287 445c-131 0 -161 -65 -161 -203c0 -125 32 -185 120 -185c69 0 133 29 133 29v353s-62 6 -92 6z" />
    <glyph glyph-name="r" unicode="r" horiz-adv-x="346" 
d="M72 0v500h74v-68s87 60 183 79v-76c-94 -19 -182 -68 -182 -68v-367h-75z" />
    <glyph glyph-name="s" unicode="s" horiz-adv-x="465" 
d="M406 491l-2 -64s-111 16 -175 16c-62 0 -109 -17 -109 -76c0 -47 24 -60 130 -78c125 -21 172 -46 172 -143c0 -117 -74 -156 -194 -156c-64 0 -176 19 -176 19l4 65s114 -17 165 -17c82 0 126 18 126 86c0 52 -26 65 -135 82c-113 18 -167 39 -167 139
c0 110 89 146 180 146c75 0 181 -19 181 -19z" />
    <glyph glyph-name="t" unicode="t" horiz-adv-x="351" 
d="M331 435h-159v-239c0 -109 7 -140 72 -140c28 0 89 6 89 6l5 -62s-67 -11 -102 -11c-103 0 -138 39 -138 183v263h-71v65h71v153h74v-153h159v-65z" />
    <glyph glyph-name="u" unicode="u" horiz-adv-x="531" 
d="M384 500h75v-500h-75v35s-75 -45 -148 -45c-140 0 -169 65 -169 249v261h75v-260c0 -138 12 -183 105 -183c74 0 137 37 137 37v406z" />
    <glyph glyph-name="v" unicode="v" horiz-adv-x="481" 
d="M25 500h80l117 -435h37l121 435h77l-141 -500h-150z" />
    <glyph glyph-name="w" unicode="w" horiz-adv-x="762" 
d="M31 500h75l101 -435h16l119 425h78l119 -425h17l100 435h75l-119 -500h-125l-106 391l-106 -391h-125z" />
    <glyph glyph-name="x" unicode="x" horiz-adv-x="452" 
d="M22 500h82l122 -196l122 196h82l-159 -248l158 -252h-82l-121 195l-122 -195h-82l157 250z" />
    <glyph glyph-name="y" unicode="y" horiz-adv-x="483" 
d="M25 500h75l125 -435h33l126 435h75l-208 -722h-75l65 222h-74z" />
    <glyph glyph-name="z" unicode="z" horiz-adv-x="455" 
d="M42 433v67h371v-67l-280 -366h280v-67h-371v67l280 366h-280z" />
    <glyph glyph-name="braceleft" unicode="{" horiz-adv-x="352" 
d="M204 170c-1 -35 -7 -80 -7 -116c0 -69 22 -112 115 -117l-2 -65c-136 5 -186 56 -186 175c0 39 7 97 7 122c0 57 -31 91 -107 112v61c77 18 107 52 107 109c0 28 -7 91 -7 128c0 123 51 171 187 176l1 -65c-92 -5 -115 -45 -115 -115c0 -33 7 -94 7 -123
c0 -85 -22 -116 -105 -140c83 -24 105 -59 105 -142z" />
    <glyph glyph-name="bar" unicode="|" horiz-adv-x="230" 
d="M78 -222v940h74v-940h-74z" />
    <glyph glyph-name="braceright" unicode="}" horiz-adv-x="352" 
d="M148 170c0 83 22 118 105 142c-83 24 -105 55 -105 140c0 29 7 90 7 123c0 70 -23 110 -115 115l1 65c136 -5 187 -53 187 -176c0 -37 -7 -100 -7 -128c0 -57 30 -91 107 -109v-61c-76 -21 -107 -55 -107 -112c0 -25 7 -83 7 -122c0 -119 -50 -170 -186 -175l-2 65
c93 5 115 48 115 117c0 36 -6 81 -7 116z" />
    <glyph glyph-name="asciitilde" unicode="~" 
d="M485 310l10 -61s-59 -54 -113 -54c-56 0 -158 62 -200 62c-40 0 -104 -47 -104 -47l-11 62s62 53 116 53c56 0 154 -61 200 -61c37 0 102 46 102 46z" />
    <glyph glyph-name="exclamdown" unicode="&#xa1;" horiz-adv-x="228" 
d="M154 500v-112h-82v112h82zM148 272l5 -464h-79l5 464h69z" />
    <glyph glyph-name="cent" unicode="&#xa2;" 
d="M278 -81v117c-119 6 -177 56 -177 212c0 148 59 211 177 217v118h65v-121c43 -1 101 -12 101 -12l-3 -60s-79 7 -129 7c-99 0 -133 -41 -133 -149c0 -109 31 -145 139 -145c50 0 124 7 124 7l3 -61s-60 -9 -102 -11v-119h-65z" />
    <glyph glyph-name="sterling" unicode="&#xa3;" 
d="M446 653l-1 -61s-80 11 -125 11c-63 0 -82 -29 -82 -136v-50h171v-65h-171v-286h154l77 16l13 -64l-82 -18h-320v66h85v286h-67v65h67v55c0 162 45 198 148 198c53 0 133 -17 133 -17z" />
    <glyph glyph-name="currency" unicode="&#xa4;" 
d="M449 30l-70 71c-29 -19 -63 -30 -99 -30c-37 0 -71 11 -99 30l-70 -71l-53 53l70 70c-18 28 -29 62 -29 99c0 36 11 70 29 99l-70 70l53 53l70 -71c28 19 62 30 99 30c36 0 70 -11 99 -30l70 71l53 -53l-71 -70c19 -29 30 -63 30 -99c0 -37 -11 -71 -30 -99l71 -70z
M280 137c63 0 115 52 115 115s-52 115 -115 115s-115 -52 -115 -115s52 -115 115 -115z" />
    <glyph glyph-name="yen" unicode="&#xa5;" 
d="M57 315v65h140l-174 280h86l172 -270l170 270h86l-171 -280h136v-65h-174l-8 -19v-68h183v-65h-183v-163h-77v163h-185v65h185v68l-8 19h-178z" />
    <glyph glyph-name="brokenbar" unicode="&#xa6;" horiz-adv-x="234" 
d="M80 718h74v-374h-74v374zM80 156h74v-378h-74v378z" />
    <glyph glyph-name="section" unicode="&#xa7;" horiz-adv-x="499" 
d="M422 634l-4 -63s-109 15 -157 15c-85 0 -122 -28 -122 -92c0 -69 45 -82 143 -100c108 -21 161 -46 161 -145c0 -57 -33 -115 -44 -131c24 -21 37 -46 37 -100c0 -114 -64 -168 -191 -168c-64 0 -175 17 -175 17l7 63s109 -15 164 -15c80 0 123 31 123 99
c0 65 -44 73 -144 92c-112 21 -168 51 -168 149c0 60 46 116 58 126c-29 21 -44 52 -44 111c0 108 70 159 192 159c66 0 164 -17 164 -17zM252 332c-35 6 -67 12 -92 22c-3 -5 -33 -49 -33 -88c0 -61 34 -79 113 -93c42 -8 77 -16 102 -27c4 5 25 51 25 94
c0 63 -38 77 -115 92z" />
    <glyph glyph-name="dieresis" unicode="&#xa8;" horiz-adv-x="236" 
d="M-12 621v90h72v-90h-72zM188 621v90h73v-90h-73z" />
    <glyph glyph-name="copyright" unicode="&#xa9;" horiz-adv-x="645" 
d="M59 434c0 154 111 273 264 273c155 0 263 -123 263 -273c0 -153 -108 -273 -264 -273c-151 0 -263 121 -263 273zM103 434c0 -126 93 -229 219 -229c127 0 220 102 220 229c0 126 -94 230 -220 230s-219 -104 -219 -230zM400 340l4 -52s-37 -12 -78 -12
c-88 0 -117 50 -117 159c0 104 28 156 118 156c42 0 77 -10 77 -10l-4 -53s-38 6 -70 6c-53 0 -60 -33 -60 -99s11 -102 60 -102c29 0 70 7 70 7z" />
    <glyph glyph-name="ordfeminine" unicode="&#xaa;" horiz-adv-x="386" 
d="M302 560v-137c7 -9 19 -14 30 -17l-2 -49c-55 0 -68 9 -83 26c0 0 -55 -26 -107 -26c-54 0 -86 36 -86 92c0 55 31 82 96 86l88 6v22c0 30 -16 40 -49 40c-38 0 -115 -7 -115 -7l-2 48s69 15 120 15c72 0 110 -23 110 -99zM238 495l-77 -5c-29 -2 -41 -13 -41 -40
s13 -39 36 -39c35 0 82 17 82 17v67z" />
    <glyph glyph-name="guillemotleft" unicode="&#xab;" horiz-adv-x="539" 
d="M234 344l-124 -94l124 -105v-78l-189 151v60l189 143v-77zM472 344l-125 -94l125 -105v-78l-190 151v60l190 143v-77z" />
    <glyph glyph-name="logicalnot" unicode="&#xac;" 
d="M65 342h428v-225h-70v157h-358v68z" />
    <glyph glyph-name="registered" unicode="&#xae;" horiz-adv-x="645" 
d="M59 434c0 154 111 273 263 273c156 0 264 -123 264 -273c0 -153 -108 -273 -264 -273c-151 0 -263 121 -263 273zM103 434c0 -126 94 -229 219 -229c127 0 220 102 220 229c0 126 -94 230 -220 230s-219 -104 -219 -230zM380 282l-50 107h-59v-107h-58v303h110
c72 0 114 -24 114 -95c0 -49 -13 -76 -51 -93l55 -115h-61zM270 538v-102h59c36 0 51 15 51 51s-20 51 -62 51h-48z" />
    <glyph glyph-name="macron" unicode="&#xaf;" horiz-adv-x="236" 
d="M-14 624v59h275v-59h-275z" />
    <glyph glyph-name="degree" unicode="&#xb0;" 
d="M138 561c0 84 58 141 142 141s142 -57 142 -141c0 -85 -58 -141 -142 -141s-142 56 -142 141zM189 561c0 -56 36 -93 91 -93s93 37 93 93c0 55 -38 93 -93 93s-91 -38 -91 -93z" />
    <glyph glyph-name="plusminus" unicode="&#xb1;" 
d="M55 293v68h189v126h70v-126h191v-68h-191v-127h-70v127h-189zM55 106h450v-68h-450v68z" />
    <glyph glyph-name="twosuperior" unicode="&#xb2;" horiz-adv-x="280" 
d="M239 478h-209v55l88 87c31 30 51 53 51 83c0 26 -20 37 -49 37s-85 -9 -85 -9l-2 57s59 12 103 12c69 0 99 -29 99 -91c0 -46 -19 -74 -61 -112l-63 -61h128v-58z" />
    <glyph glyph-name="threesuperior" unicode="&#xb3;" horiz-adv-x="280" 
d="M34 790c0 0 59 10 102 10c71 0 105 -26 105 -84c0 -49 -32 -69 -39 -73c30 -10 47 -26 47 -78c0 -66 -39 -97 -106 -97c-49 0 -113 10 -113 10l4 56s57 -8 100 -8c35 0 50 17 50 42c0 32 -19 43 -47 43h-65v53h65c18 0 38 19 38 44c0 23 -13 34 -45 34
c-43 0 -92 -7 -92 -7z" />
    <glyph glyph-name="acute" unicode="&#xb4;" horiz-adv-x="268" 
d="M26 642l216 98l26 -64l-221 -85z" />
    <glyph glyph-name="mu" unicode="&#xb5;" 
d="M401 500h75v-500h-75v35s-75 -45 -148 -45c-40 0 -71 6 -94 17v-229h-75v722h75v-260c0 -138 12 -183 105 -183c74 0 137 37 137 37v406z" />
    <glyph glyph-name="paragraph" unicode="&#xb6;" horiz-adv-x="593" 
d="M411 0v627h-116v-627h-67v324h-7c-107 0 -186 74 -186 183s80 185 187 185h329v-65h-72v-627h-68z" />
    <glyph glyph-name="periodcentered" unicode="&#xb7;" horiz-adv-x="217" 
d="M68 229v114h82v-114h-82z" />
    <glyph glyph-name="cedilla" unicode="&#xb8;" horiz-adv-x="263" 
d="M221 -127c0 -63 -37 -90 -93 -90c-44 0 -86 7 -86 7l3 48s39 -3 66 -3c28 0 44 10 44 38c0 25 -16 34 -44 34h-42v94h41v-50c74 0 111 -14 111 -78z" />
    <glyph glyph-name="onesuperior" unicode="&#xb9;" horiz-adv-x="280" 
d="M32 720l101 70h60v-312h-64v242l-68 -47z" />
    <glyph glyph-name="ordmasculine" unicode="&#xba;" horiz-adv-x="380" 
d="M191 659c90 0 135 -45 135 -149s-45 -153 -135 -153c-91 0 -138 49 -138 153s47 149 138 149zM191 418c50 0 66 28 66 92s-16 88 -66 88c-51 0 -69 -24 -69 -88s18 -92 69 -92z" />
    <glyph glyph-name="guillemotright" unicode="&#xbb;" horiz-adv-x="539" 
d="M429 250l-125 94v77l190 -143v-60l-190 -151v78zM192 250l-125 94v77l189 -143v-60l-189 -151v78z" />
    <glyph glyph-name="onequarter" unicode="&#xbc;" horiz-adv-x="534" 
d="M37 720l101 70h60v-312h-64v242l-68 -47zM35 28l392 632l40 -26l-393 -631zM412 -100v48h-141v54l69 210h70l-73 -206h75l5 89h58v-89h27v-58h-27v-48h-63z" />
    <glyph glyph-name="onehalf" unicode="&#xbd;" horiz-adv-x="529" 
d="M41 720l101 70h60v-312h-64v242l-68 -47zM33 28l392 632l40 -26l-393 -631zM486 -100h-209v55l88 87c31 30 51 53 51 83c0 26 -20 37 -49 37s-85 -9 -85 -9l-2 57s59 12 103 12c69 0 99 -29 99 -91c0 -46 -19 -74 -61 -112l-63 -61h128v-58z" />
    <glyph glyph-name="threequarters" unicode="&#xbe;" horiz-adv-x="550" 
d="M53 790c0 0 59 10 102 10c71 0 105 -26 105 -84c0 -49 -32 -69 -39 -73c30 -10 47 -26 47 -78c0 -66 -39 -97 -106 -97c-49 0 -113 10 -113 10l4 56s57 -8 100 -8c35 0 50 17 50 42c0 32 -19 43 -47 43h-65v53h65c18 0 38 19 38 44c0 23 -13 34 -45 34
c-43 0 -92 -7 -92 -7zM52 28l392 632l40 -26l-393 -631zM429 -100v48h-141v54l69 210h70l-73 -206h75l5 89h58v-89h27v-58h-27v-48h-63z" />
    <glyph glyph-name="questiondown" unicode="&#xbf;" horiz-adv-x="441" 
d="M38 -41c0 86 15 116 93 181c59 49 89 80 89 125v35h63s13 -27 13 -61c0 -49 -40 -88 -93 -133c-72 -62 -89 -85 -89 -141c0 -71 43 -98 133 -98c56 0 155 23 155 23l5 -61s-101 -30 -167 -30c-134 0 -202 44 -202 160zM294 500v-112h-82v112h82z" />
    <glyph glyph-name="Agrave" unicode="&#xc0;" horiz-adv-x="596" 
d="M24 0l190 692h168l190 -692h-76l-50 178h-296l-50 -178h-76zM272 626l-105 -379h262l-105 379h-52zM189 931l216 -100l-23 -53l-219 87z" />
    <glyph glyph-name="Aacute" unicode="&#xc1;" horiz-adv-x="596" 
d="M24 0l190 692h168l190 -692h-76l-50 178h-296l-50 -178h-76zM272 626l-105 -379h262l-105 379h-52zM186 831l216 100l26 -66l-219 -87z" />
    <glyph glyph-name="Acircumflex" unicode="&#xc2;" horiz-adv-x="596" 
d="M24 0l190 692h168l190 -692h-76l-50 178h-296l-50 -178h-76zM272 626l-105 -379h262l-105 379h-52zM130 791l134 135h65l134 -135h-84l-82 80l-83 -80h-84z" />
    <glyph glyph-name="Atilde" unicode="&#xc3;" horiz-adv-x="596" 
d="M24 0l190 692h168l190 -692h-76l-50 178h-296l-50 -178h-76zM272 626l-105 -379h262l-105 379h-52zM444 915l18 -56s-44 -56 -84 -56c-47 0 -131 54 -163 54c-24 0 -73 -48 -73 -48l-17 56s48 58 89 58c50 0 132 -54 162 -54c21 0 68 46 68 46z" />
    <glyph glyph-name="Adieresis" unicode="&#xc4;" horiz-adv-x="596" 
d="M24 0l190 692h168l190 -692h-76l-50 178h-296l-50 -178h-76zM272 626l-105 -379h262l-105 379h-52zM159 808v90h73v-90h-73zM363 808v90h72v-90h-72z" />
    <glyph glyph-name="Aring" unicode="&#xc5;" horiz-adv-x="596" 
d="M415 744c0 -31 -11 -55 -28 -73l185 -671h-76l-50 178h-296l-50 -178h-76l184 669c-19 18 -30 43 -30 75c0 67 51 105 119 105c67 0 118 -38 118 -105zM272 626l-105 -379h262l-105 379h-52zM235 744c0 -28 15 -47 43 -52h37c27 5 44 24 44 52c0 34 -24 53 -62 53
c-39 0 -62 -19 -62 -53z" />
    <glyph glyph-name="AE" unicode="&#xc6;" horiz-adv-x="876" 
d="M408 0v175h-251l-58 -175h-79l224 696h585v-73h-345v-230h285v-73h-285v-247h345v-73h-421zM300 623l-122 -374h230l1 374h-109z" />
    <glyph glyph-name="Ccedilla" unicode="&#xc7;" horiz-adv-x="544" 
d="M433 -127c0 -63 -37 -90 -93 -90c-44 0 -86 7 -86 7l3 48s39 -3 66 -3c28 0 44 10 44 38c0 25 -16 34 -44 34h-42v84c-181 12 -222 137 -222 353c0 234 45 358 253 358c71 0 147 -13 191 -22l-3 -65c-45 8 -126 18 -180 18c-154 0 -181 -92 -181 -289
c0 -193 25 -285 183 -285c56 0 130 9 178 18l3 -66c-47 -10 -118 -20 -181 -21v-39c74 0 111 -14 111 -78z" />
    <glyph glyph-name="Egrave" unicode="&#xc8;" horiz-adv-x="553" 
d="M85 0v692h421v-68h-344v-239h284v-67h-284v-250h344v-68h-421zM195 931l216 -100l-23 -53l-219 87z" />
    <glyph glyph-name="Eacute" unicode="&#xc9;" horiz-adv-x="553" 
d="M85 0v692h421v-68h-344v-239h284v-67h-284v-250h344v-68h-421zM176 831l216 100l26 -66l-219 -87z" />
    <glyph glyph-name="Ecircumflex" unicode="&#xca;" horiz-adv-x="553" 
d="M85 0v692h421v-68h-344v-239h284v-67h-284v-250h344v-68h-421zM127 791l134 135h65l134 -135h-84l-82 80l-83 -80h-84z" />
    <glyph glyph-name="Edieresis" unicode="&#xcb;" horiz-adv-x="553" 
d="M85 0v692h421v-68h-344v-239h284v-67h-284v-250h344v-68h-421zM157 808v90h73v-90h-73zM361 808v90h72v-90h-72z" />
    <glyph glyph-name="Igrave" unicode="&#xcc;" horiz-adv-x="246" 
d="M85 0v692h77v-692h-77zM6 931l216 -100l-23 -53l-219 87z" />
    <glyph glyph-name="Iacute" unicode="&#xcd;" horiz-adv-x="246" 
d="M85 0v692h77v-692h-77zM13 831l216 100l26 -66l-219 -87z" />
    <glyph glyph-name="Icircumflex" unicode="&#xce;" horiz-adv-x="246" 
d="M85 0v692h77v-692h-77zM-47 791l134 135h65l134 -135h-84l-82 80l-83 -80h-84z" />
    <glyph glyph-name="Idieresis" unicode="&#xcf;" horiz-adv-x="246" 
d="M85 0v692h77v-692h-77zM-15 808v90h73v-90h-73zM189 808v90h72v-90h-72z" />
    <glyph glyph-name="Eth" unicode="&#xd0;" horiz-adv-x="647" 
d="M20 311v73h68v312h247c200 0 256 -140 256 -337c0 -199 -53 -359 -256 -359h-247v311h-68zM511 359c0 146 -33 264 -176 264h-171v-239h158v-73h-158v-238h171c143 0 176 139 176 286z" />
    <glyph glyph-name="Ntilde" unicode="&#xd1;" horiz-adv-x="676" 
d="M85 0v692h144l265 -624h21v624h76v-692h-141l-269 624h-19v-624h-77zM486 915l18 -56s-44 -56 -84 -56c-47 0 -131 54 -163 54c-24 0 -73 -48 -73 -48l-17 56s48 58 89 58c50 0 132 -54 162 -54c21 0 68 46 68 46z" />
    <glyph glyph-name="Ograve" unicode="&#xd2;" horiz-adv-x="660" 
d="M330 58c161 0 194 90 194 285c0 187 -36 291 -194 291c-159 0 -194 -103 -194 -291c0 -189 34 -285 194 -285zM330 -10c-215 0 -273 121 -273 353c0 228 59 359 273 359s274 -129 274 -359c0 -238 -59 -353 -274 -353zM227 931l216 -100l-23 -53l-219 87z" />
    <glyph glyph-name="Oacute" unicode="&#xd3;" horiz-adv-x="660" 
d="M330 58c161 0 194 90 194 285c0 187 -36 291 -194 291c-159 0 -194 -103 -194 -291c0 -189 34 -285 194 -285zM330 -10c-215 0 -273 121 -273 353c0 228 59 359 273 359s274 -129 274 -359c0 -238 -59 -353 -274 -353zM198 831l216 100l26 -66l-219 -87z" />
    <glyph glyph-name="Ocircumflex" unicode="&#xd4;" horiz-adv-x="660" 
d="M330 58c161 0 194 90 194 285c0 187 -36 291 -194 291c-159 0 -194 -103 -194 -291c0 -189 34 -285 194 -285zM330 -10c-215 0 -273 121 -273 353c0 228 59 359 273 359s274 -129 274 -359c0 -238 -59 -353 -274 -353zM164 791l134 135h65l134 -135h-84l-82 80l-83 -80
h-84z" />
    <glyph glyph-name="Otilde" unicode="&#xd5;" horiz-adv-x="660" 
d="M330 58c161 0 194 90 194 285c0 187 -36 291 -194 291c-159 0 -194 -103 -194 -291c0 -189 34 -285 194 -285zM330 -10c-215 0 -273 121 -273 353c0 228 59 359 273 359s274 -129 274 -359c0 -238 -59 -353 -274 -353zM478 915l18 -56s-44 -56 -84 -56
c-47 0 -131 54 -163 54c-24 0 -73 -48 -73 -48l-17 56s48 58 89 58c50 0 132 -54 162 -54c21 0 68 46 68 46z" />
    <glyph glyph-name="Odieresis" unicode="&#xd6;" horiz-adv-x="660" 
d="M330 58c161 0 194 90 194 285c0 187 -36 291 -194 291c-159 0 -194 -103 -194 -291c0 -189 34 -285 194 -285zM330 -10c-215 0 -273 121 -273 353c0 228 59 359 273 359s274 -129 274 -359c0 -238 -59 -353 -274 -353zM192 808v90h73v-90h-73zM396 808v90h72v-90h-72z
" />
    <glyph glyph-name="multiply" unicode="&#xd7;" 
d="M120 459l160 -162l161 163l48 -48l-163 -161l163 -161l-48 -48l-161 162l-161 -162l-48 48l162 161l-162 160z" />
    <glyph glyph-name="Oslash" unicode="&#xd8;" horiz-adv-x="660" 
d="M330 -10c-47 0 -87 6 -120 17l-57 -123l-57 26l59 126c-74 55 -98 158 -98 307c0 228 59 359 273 359c50 0 92 -7 126 -21l56 118l58 -24l-59 -127c69 -58 93 -162 93 -305c0 -238 -59 -353 -274 -353zM136 343c0 -110 11 -189 52 -235l238 507c-26 13 -57 19 -96 19
c-159 0 -194 -103 -194 -291zM330 58c161 0 194 90 194 285c0 103 -11 182 -48 231l-235 -502c24 -10 53 -14 89 -14z" />
    <glyph glyph-name="Ugrave" unicode="&#xd9;" horiz-adv-x="644" 
d="M157 208c0 -108 60 -150 162 -150c108 0 169 42 169 150v484h76v-482c0 -158 -87 -220 -245 -220c-152 0 -239 61 -239 220v482h77v-484zM222 931l216 -100l-23 -53l-219 87z" />
    <glyph glyph-name="Uacute" unicode="&#xda;" horiz-adv-x="644" 
d="M157 208c0 -108 60 -150 162 -150c108 0 169 42 169 150v484h76v-482c0 -158 -87 -220 -245 -220c-152 0 -239 61 -239 220v482h77v-484zM199 831l216 100l26 -66l-219 -87z" />
    <glyph glyph-name="Ucircumflex" unicode="&#xdb;" horiz-adv-x="644" 
d="M157 208c0 -108 60 -150 162 -150c108 0 169 42 169 150v484h76v-482c0 -158 -87 -220 -245 -220c-152 0 -239 61 -239 220v482h77v-484zM155 791l134 135h65l134 -135h-84l-82 80l-83 -80h-84z" />
    <glyph glyph-name="Udieresis" unicode="&#xdc;" horiz-adv-x="644" 
d="M157 208c0 -108 60 -150 162 -150c108 0 169 42 169 150v484h76v-482c0 -158 -87 -220 -245 -220c-152 0 -239 61 -239 220v482h77v-484zM184 808v90h73v-90h-73zM388 808v90h72v-90h-72z" />
    <glyph glyph-name="Yacute" unicode="&#xdd;" horiz-adv-x="538" 
d="M308 291v-291h-77v291l-221 401h87l172 -324l172 324h87zM167 831l216 100l26 -66l-219 -87z" />
    <glyph glyph-name="Thorn" unicode="&#xde;" horiz-adv-x="599" 
d="M337 195c101 0 144 64 144 166c0 103 -43 149 -144 149h-175v-315h175zM338 121h-176v-121h-77v696h77v-112h176c151 0 222 -72 222 -223s-71 -240 -222 -240z" />
    <glyph glyph-name="germandbls" unicode="&#xdf;" horiz-adv-x="574" 
d="M147 0h-75v545c0 137 58 183 196 183c137 0 194 -42 194 -144c0 -72 -25 -104 -82 -129c-47 -21 -59 -29 -59 -49c0 -21 15 -33 88 -69c94 -47 130 -78 130 -160c0 -136 -55 -187 -201 -187c-50 0 -131 15 -131 15l3 63s85 -11 122 -11c100 0 129 38 129 109
c0 56 -21 75 -109 117c-83 39 -109 65 -109 117c0 50 27 73 77 95c52 22 64 44 64 85c0 59 -28 81 -116 81s-121 -25 -121 -125v-536z" />
    <glyph glyph-name="agrave" unicode="&#xe0;" horiz-adv-x="501" 
d="M425 349v-256c2 -29 26 -40 58 -44l-3 -59c-53 0 -89 10 -119 40c0 0 -90 -40 -180 -40c-91 0 -141 52 -141 153c0 96 50 138 153 148l157 15v43c0 70 -30 95 -90 95c-70 0 -189 -13 -189 -13l-3 57s110 22 196 22c113 0 161 -52 161 -161zM350 249l-148 -14
c-61 -6 -85 -35 -85 -90c0 -58 25 -92 76 -92c74 0 157 31 157 31v165zM147 740l216 -98l-21 -51l-221 85z" />
    <glyph glyph-name="aacute" unicode="&#xe1;" horiz-adv-x="501" 
d="M425 349v-256c2 -29 26 -40 58 -44l-3 -59c-53 0 -89 10 -119 40c0 0 -90 -40 -180 -40c-91 0 -141 52 -141 153c0 96 50 138 153 148l157 15v43c0 70 -30 95 -90 95c-70 0 -189 -13 -189 -13l-3 57s110 22 196 22c113 0 161 -52 161 -161zM350 249l-148 -14
c-61 -6 -85 -35 -85 -90c0 -58 25 -92 76 -92c74 0 157 31 157 31v165zM118 642l216 98l26 -64l-221 -85z" />
    <glyph glyph-name="acircumflex" unicode="&#xe2;" horiz-adv-x="501" 
d="M425 349v-256c2 -29 26 -40 58 -44l-3 -59c-53 0 -89 10 -119 40c0 0 -90 -40 -180 -40c-91 0 -141 52 -141 153c0 96 50 138 153 148l157 15v43c0 70 -30 95 -90 95c-70 0 -189 -13 -189 -13l-3 57s110 22 196 22c113 0 161 -52 161 -161zM350 249l-148 -14
c-61 -6 -85 -35 -85 -90c0 -58 25 -92 76 -92c74 0 157 31 157 31v165zM95 592l123 140h51l124 -140h-75l-73 87l-75 -87h-75z" />
    <glyph glyph-name="atilde" unicode="&#xe3;" horiz-adv-x="501" 
d="M425 349v-256c2 -29 26 -40 58 -44l-3 -59c-53 0 -89 10 -119 40c0 0 -90 -40 -180 -40c-91 0 -141 52 -141 153c0 96 50 138 153 148l157 15v43c0 70 -30 95 -90 95c-70 0 -189 -13 -189 -13l-3 57s110 22 196 22c113 0 161 -52 161 -161zM350 249l-148 -14
c-61 -6 -85 -35 -85 -90c0 -58 25 -92 76 -92c74 0 157 31 157 31v165zM376 711l17 -48s-46 -51 -86 -51s-107 47 -139 47c-24 0 -73 -40 -73 -40l-18 48s50 52 91 52c40 0 109 -46 139 -46c21 0 69 38 69 38z" />
    <glyph glyph-name="adieresis" unicode="&#xe4;" horiz-adv-x="501" 
d="M425 349v-256c2 -29 26 -40 58 -44l-3 -59c-53 0 -89 10 -119 40c0 0 -90 -40 -180 -40c-91 0 -141 52 -141 153c0 96 50 138 153 148l157 15v43c0 70 -30 95 -90 95c-70 0 -189 -13 -189 -13l-3 57s110 22 196 22c113 0 161 -52 161 -161zM350 249l-148 -14
c-61 -6 -85 -35 -85 -90c0 -58 25 -92 76 -92c74 0 157 31 157 31v165zM105 621v90h72v-90h-72zM305 621v90h73v-90h-73z" />
    <glyph glyph-name="aring" unicode="&#xe5;" horiz-adv-x="501" 
d="M425 349v-256c2 -29 26 -40 58 -44l-3 -59c-53 0 -89 10 -119 40c0 0 -90 -40 -180 -40c-91 0 -141 52 -141 153c0 96 50 138 153 148l157 15v43c0 70 -30 95 -90 95c-70 0 -189 -13 -189 -13l-3 57s110 22 196 22c113 0 161 -52 161 -161zM350 249l-148 -14
c-61 -6 -85 -35 -85 -90c0 -58 25 -92 76 -92c74 0 157 31 157 31v165zM151 645c0 58 45 104 104 104c58 0 103 -46 103 -104c0 -59 -45 -104 -103 -104c-59 0 -104 45 -104 104zM200 645c0 -32 24 -57 55 -57s55 25 55 57c0 31 -24 56 -55 56s-55 -25 -55 -56z" />
    <glyph glyph-name="ae" unicode="&#xe6;" horiz-adv-x="804" 
d="M556 58c75 0 183 9 183 9l2 -61s-113 -16 -194 -16c-68 0 -116 19 -147 54l-32 -14c-13 -6 -95 -40 -192 -40c-89 0 -136 54 -136 153c0 112 58 138 181 151l129 12v41c0 64 -32 91 -87 91c-74 0 -190 -10 -190 -10l-3 67s119 15 197 15c68 0 113 -24 135 -73
c35 53 90 73 156 73c133 0 201 -70 201 -234l-4 -58h-330c0 -105 33 -160 131 -160zM188 55c72 0 169 32 179 37c-15 40 -19 92 -19 153l-146 -12c-58 -5 -85 -31 -85 -88c0 -59 26 -90 71 -90zM425 279h259c0 120 -38 164 -126 164c-86 0 -133 -47 -133 -164z" />
    <glyph glyph-name="ccedilla" unicode="&#xe7;" horiz-adv-x="436" 
d="M360 -127c0 -63 -37 -90 -93 -90c-44 0 -86 7 -86 7l3 48s39 -3 66 -3c28 0 44 10 44 38c0 25 -16 34 -44 34h-42v86c-120 14 -157 92 -157 266c0 181 59 251 208 251c46 0 136 -15 136 -15l-3 -61s-80 9 -118 9c-115 0 -146 -50 -146 -184c0 -148 23 -202 147 -202
c38 0 118 9 118 9l3 -62s-93 -14 -139 -14h-8v-39c74 0 111 -14 111 -78z" />
    <glyph glyph-name="egrave" unicode="&#xe8;" horiz-adv-x="505" 
d="M257 56c75 0 184 9 184 9l2 -59s-114 -16 -195 -16c-149 0 -198 87 -198 257c0 190 82 263 209 263c133 0 201 -70 201 -234l-4 -57h-330c0 -107 33 -163 131 -163zM125 279h260c0 124 -38 168 -126 168c-85 0 -133 -47 -134 -168zM147 741l216 -98l-21 -51l-221 85z" />
    <glyph glyph-name="eacute" unicode="&#xe9;" horiz-adv-x="505" 
d="M257 56c75 0 184 9 184 9l2 -59s-114 -16 -195 -16c-149 0 -198 87 -198 257c0 190 82 263 209 263c133 0 201 -70 201 -234l-4 -57h-330c0 -107 33 -163 131 -163zM125 279h260c0 124 -38 168 -126 168c-85 0 -133 -47 -134 -168zM145 642l216 98l26 -64l-221 -85z" />
    <glyph glyph-name="ecircumflex" unicode="&#xea;" horiz-adv-x="505" 
d="M257 56c75 0 184 9 184 9l2 -59s-114 -16 -195 -16c-149 0 -198 87 -198 257c0 190 82 263 209 263c133 0 201 -70 201 -234l-4 -57h-330c0 -107 33 -163 131 -163zM125 279h260c0 124 -38 168 -126 168c-85 0 -133 -47 -134 -168zM112 592l123 140h51l124 -140h-75
l-73 87l-75 -87h-75z" />
    <glyph glyph-name="edieresis" unicode="&#xeb;" horiz-adv-x="505" 
d="M257 56c75 0 184 9 184 9l2 -59s-114 -16 -195 -16c-149 0 -198 87 -198 257c0 190 82 263 209 263c133 0 201 -70 201 -234l-4 -57h-330c0 -107 33 -163 131 -163zM125 279h260c0 124 -38 168 -126 168c-85 0 -133 -47 -134 -168zM120 621v90h72v-90h-72zM320 621v90h73
v-90h-73z" />
    <glyph glyph-name="igrave" unicode="&#xec;" horiz-adv-x="219" 
d="M72 0v500h75v-500h-75zM-34 740l216 -98l-21 -51l-221 85z" />
    <glyph glyph-name="iacute" unicode="&#xed;" horiz-adv-x="219" 
d="M38 642l216 98l26 -64l-221 -85zM72 500v-500h75v500h-75z" />
    <glyph glyph-name="icircumflex" unicode="&#xee;" horiz-adv-x="219" 
d="M72 500v-500h75v500h-75zM-42 592l123 140h51l124 -140h-75l-73 87l-75 -87h-75z" />
    <glyph glyph-name="idieresis" unicode="&#xef;" horiz-adv-x="219" 
d="M72 500v-500h75v500h-75zM-31 621v90h72v-90h-72zM169 621v90h73v-90h-73z" />
    <glyph glyph-name="eth" unicode="&#xf0;" horiz-adv-x="548" 
d="M158 520l-33 47l95 64c-35 15 -77 29 -124 41l15 56c66 -13 124 -31 173 -54l101 68l34 -47l-77 -52c101 -64 154 -158 154 -291c0 -259 -67 -361 -231 -361c-141 0 -223 77 -223 224c0 129 75 215 210 215c74 0 165 -36 165 -36c-4 80 -42 151 -137 207zM256 363
c-88 0 -135 -65 -135 -148c0 -99 48 -156 144 -156c107 0 152 65 153 268c0 0 -90 36 -162 36z" />
    <glyph glyph-name="ntilde" unicode="&#xf1;" horiz-adv-x="537" 
d="M72 0h75v406s69 37 141 37c93 0 108 -49 108 -181v-262h74v264c0 178 -31 246 -169 246c-74 0 -155 -45 -155 -45v35h-74v-500zM418 711l17 -48s-46 -51 -86 -51s-107 47 -139 47c-24 0 -73 -40 -73 -40l-18 48s50 52 91 52c40 0 109 -46 139 -46c21 0 69 38 69 38z" />
    <glyph glyph-name="ograve" unicode="&#xf2;" horiz-adv-x="528" 
d="M264 510c159 0 214 -82 214 -254c0 -182 -45 -266 -214 -266c-168 0 -214 84 -214 266c0 172 56 254 214 254zM264 55c119 0 137 59 137 201c0 139 -30 189 -137 189c-106 0 -137 -50 -137 -189c0 -142 19 -201 137 -201zM167 740l216 -98l-21 -51l-221 85z" />
    <glyph glyph-name="oacute" unicode="&#xf3;" horiz-adv-x="528" 
d="M264 510c-158 0 -214 -82 -214 -254c0 -182 46 -266 214 -266c169 0 214 84 214 266c0 172 -55 254 -214 254zM264 55c-118 0 -137 59 -137 201c0 139 31 189 137 189c107 0 137 -50 137 -189c0 -142 -18 -201 -137 -201zM154 642l216 98l26 -64l-221 -85z" />
    <glyph glyph-name="ocircumflex" unicode="&#xf4;" horiz-adv-x="528" 
d="M264 510c-158 0 -214 -82 -214 -254c0 -182 46 -266 214 -266c169 0 214 84 214 266c0 172 -55 254 -214 254zM264 55c-118 0 -137 59 -137 201c0 139 31 189 137 189c107 0 137 -50 137 -189c0 -142 -18 -201 -137 -201zM113 592l123 140h51l124 -140h-75l-73 87
l-75 -87h-75z" />
    <glyph glyph-name="otilde" unicode="&#xf5;" horiz-adv-x="528" 
d="M264 510c-158 0 -214 -82 -214 -254c0 -182 46 -266 214 -266c169 0 214 84 214 266c0 172 -55 254 -214 254zM264 55c-118 0 -137 59 -137 201c0 139 31 189 137 189c107 0 137 -50 137 -189c0 -142 -18 -201 -137 -201zM404 711l17 -48s-46 -51 -86 -51
s-107 47 -139 47c-24 0 -73 -40 -73 -40l-18 48s50 52 91 52c40 0 109 -46 139 -46c21 0 69 38 69 38z" />
    <glyph glyph-name="odieresis" unicode="&#xf6;" horiz-adv-x="528" 
d="M264 510c-158 0 -214 -82 -214 -254c0 -182 46 -266 214 -266c169 0 214 84 214 266c0 172 -55 254 -214 254zM264 55c-118 0 -137 59 -137 201c0 139 31 189 137 189c107 0 137 -50 137 -189c0 -142 -18 -201 -137 -201zM125 621v90h72v-90h-72zM325 621v90h73v-90h-73z
" />
    <glyph glyph-name="divide" unicode="&#xf7;" 
d="M120 281v73h57v48h206v-48h56v-73h-319zM242 30v101h75v-101h-75z" />
    <glyph glyph-name="oslash" unicode="&#xf8;" horiz-adv-x="528" 
d="M264 510c28 0 52 -3 74 -8l43 104l50 -19l-43 -104c65 -36 90 -111 90 -227c0 -182 -45 -266 -214 -266c-29 0 -54 3 -76 8l-43 -110l-50 18l44 109c-68 37 -89 116 -89 241c0 172 56 254 214 254zM264 445c-106 0 -137 -50 -137 -189c0 -89 7 -146 42 -176l145 359
c-14 4 -31 6 -50 6zM264 55c119 0 137 59 137 201c0 82 -11 133 -42 161l-146 -357c14 -4 31 -5 51 -5z" />
    <glyph glyph-name="ugrave" unicode="&#xf9;" horiz-adv-x="531" 
d="M384 500h75v-500h-75v35s-75 -45 -148 -45c-140 0 -169 65 -169 249v261h75v-260c0 -138 12 -183 105 -183c74 0 137 37 137 37v406zM140 740l216 -98l-21 -51l-221 85z" />
    <glyph glyph-name="uacute" unicode="&#xfa;" horiz-adv-x="531" 
d="M459 500h-75v-406s-63 -37 -137 -37c-93 0 -105 45 -105 183v260h-75v-261c0 -184 29 -249 169 -249c73 0 148 45 148 45v-35h75v500zM155 642l216 98l26 -64l-221 -85z" />
    <glyph glyph-name="ucircumflex" unicode="&#xfb;" horiz-adv-x="531" 
d="M459 500h-75v-406s-63 -37 -137 -37c-93 0 -105 45 -105 183v260h-75v-261c0 -184 29 -249 169 -249c73 0 148 45 148 45v-35h75v500zM105 592l123 140h51l124 -140h-75l-73 87l-75 -87h-75z" />
    <glyph glyph-name="udieresis" unicode="&#xfc;" horiz-adv-x="531" 
d="M459 500h-75v-406s-63 -37 -137 -37c-93 0 -105 45 -105 183v260h-75v-261c0 -184 29 -249 169 -249c73 0 148 45 148 45v-35h75v500zM132 621v90h72v-90h-72zM332 621v90h73v-90h-73z" />
    <glyph glyph-name="yacute" unicode="&#xfd;" horiz-adv-x="483" 
d="M25 500h75l125 -435h33l126 435h75l-208 -722h-75l65 222h-74zM154 642l216 98l26 -64l-221 -85z" />
    <glyph glyph-name="thorn" unicode="&#xfe;" horiz-adv-x="527" 
d="M244 55c132 0 155 64 155 202c0 130 -26 186 -113 186c-69 0 -139 -29 -139 -29v-353s65 -6 97 -6zM293 510c136 0 183 -71 183 -251c0 -198 -55 -269 -228 -269c-39 0 -101 7 -101 7v-219h-75v940h75v-243s75 35 146 35z" />
    <glyph glyph-name="ydieresis" unicode="&#xff;" horiz-adv-x="483" 
d="M25 500h75l125 -435h33l126 435h75l-208 -722h-75l65 222h-74zM104 621v90h72v-90h-72zM304 621v90h73v-90h-73z" />
    <glyph glyph-name="Amacron" unicode="&#x100;" horiz-adv-x="596" 
d="M24 0l190 692h168l190 -692h-76l-50 178h-296l-50 -178h-76zM272 626l-105 -379h262l-105 379h-52zM141 812v58h311v-58h-311z" />
    <glyph glyph-name="amacron" unicode="&#x101;" horiz-adv-x="501" 
d="M425 349v-256c2 -29 26 -40 58 -44l-3 -59c-53 0 -89 10 -119 40c0 0 -90 -40 -180 -40c-91 0 -141 52 -141 153c0 96 50 138 153 148l157 15v43c0 70 -30 95 -90 95c-70 0 -189 -13 -189 -13l-3 57s110 22 196 22c113 0 161 -52 161 -161zM350 249l-148 -14
c-61 -6 -85 -35 -85 -90c0 -58 25 -92 76 -92c74 0 157 31 157 31v165zM112 624v59h275v-59h-275z" />
    <glyph glyph-name="Abreve" unicode="&#x102;" horiz-adv-x="596" 
d="M24 0l190 692h168l190 -692h-76l-50 178h-296l-50 -178h-76zM272 626l-105 -379h262l-105 379h-52zM139 918h69c2 -45 40 -75 88 -75c49 0 87 30 88 75h70c-4 -78 -65 -131 -158 -131s-153 53 -157 131z" />
    <glyph glyph-name="abreve" unicode="&#x103;" horiz-adv-x="503" 
d="M425 101v246c0 113 -53 163 -158 163c-78 0 -198 -20 -198 -20l3 -65s118 13 191 13c56 0 87 -28 87 -91v-41l-157 -15c-104 -9 -153 -52 -153 -148c0 -98 50 -153 136 -153c96 0 185 38 185 38c26 -27 58 -38 119 -38l2 65c-31 4 -56 14 -57 46zM202 233l148 12v-160
s-87 -30 -162 -30c-45 0 -71 32 -71 90c0 51 24 82 85 88zM92 733h77c2 -45 32 -75 83 -75c53 0 83 30 84 75h77c-4 -82 -61 -142 -161 -142c-99 0 -156 60 -160 142z" />
    <glyph glyph-name="Aogonek" unicode="&#x104;" horiz-adv-x="596" 
d="M24 0l190 692h168l190 -692h-8c-3 -3 -70 -70 -70 -102c0 -25 17 -43 41 -43c14 0 50 6 50 6l7 -58s-45 -9 -79 -9c-52 0 -92 33 -92 87c0 48 54 102 75 120l-50 177h-296l-50 -178h-76zM272 626l-105 -379h262l-105 379h-52z" />
    <glyph glyph-name="aogonek" unicode="&#x105;" horiz-adv-x="500" 
d="M425 349v-256c2 -29 26 -40 58 -44l-3 -59c-12 0 -23 1 -34 2c-18 -19 -61 -67 -61 -94c0 -25 17 -43 41 -43c14 0 50 6 50 6l7 -58s-45 -9 -79 -9c-52 0 -92 33 -92 87s69 116 81 125c-12 6 -22 14 -32 24c0 0 -90 -40 -180 -40c-91 0 -141 52 -141 153
c0 96 50 138 153 148l157 15v43c0 70 -30 95 -90 95c-70 0 -189 -13 -189 -13l-3 57s110 22 196 22c113 0 161 -52 161 -161zM350 249l-148 -14c-61 -6 -85 -35 -85 -90c0 -58 25 -92 76 -92c74 0 157 31 157 31v165z" />
    <glyph glyph-name="Cacute" unicode="&#x106;" horiz-adv-x="544" 
d="M500 77l3 -66c-49 -10 -125 -21 -191 -21c-207 0 -253 126 -253 354c0 234 45 358 253 358c71 0 147 -13 191 -22l-3 -65c-45 8 -126 18 -180 18c-154 0 -181 -92 -181 -289c0 -193 25 -285 183 -285c56 0 130 9 178 18zM181 831l216 100l26 -66l-219 -87z" />
    <glyph glyph-name="cacute" unicode="&#x107;" horiz-adv-x="436" 
d="M259 510c46 0 136 -15 136 -15l-3 -61s-80 9 -118 9c-115 0 -146 -50 -146 -184c0 -148 23 -202 147 -202c38 0 118 9 118 9l3 -62s-93 -14 -139 -14c-159 0 -206 73 -206 269c0 181 59 251 208 251zM126 642l216 98l26 -64l-221 -85z" />
    <glyph glyph-name="Ccircumflex" unicode="&#x108;" horiz-adv-x="544" 
d="M500 77l3 -66c-49 -10 -125 -21 -191 -21c-207 0 -253 126 -253 354c0 234 45 358 253 358c71 0 147 -13 191 -22l-3 -65c-45 8 -126 18 -180 18c-154 0 -181 -92 -181 -289c0 -193 25 -285 183 -285c56 0 130 9 178 18zM144 791l134 135h65l134 -135h-84l-82 80l-83 -80
h-84z" />
    <glyph glyph-name="ccircumflex" unicode="&#x109;" horiz-adv-x="436" 
d="M259 510c46 0 136 -15 136 -15l-3 -61s-80 9 -118 9c-115 0 -146 -50 -146 -184c0 -148 23 -202 147 -202c38 0 118 9 118 9l3 -62s-93 -14 -139 -14c-159 0 -206 73 -206 269c0 181 59 251 208 251zM83 592l123 140h51l124 -140h-75l-73 87l-75 -87h-75z" />
    <glyph glyph-name="Cdotaccent" unicode="&#x10a;" horiz-adv-x="544" 
d="M500 77l3 -66c-49 -10 -125 -21 -191 -21c-207 0 -253 126 -253 354c0 234 45 358 253 358c71 0 147 -13 191 -22l-3 -65c-45 8 -126 18 -180 18c-154 0 -181 -92 -181 -289c0 -193 25 -285 183 -285c56 0 130 9 178 18zM255 798v87h74v-87h-74z" />
    <glyph glyph-name="cdotaccent" unicode="&#x10b;" horiz-adv-x="436" 
d="M259 510c46 0 136 -15 136 -15l-3 -61s-80 9 -118 9c-115 0 -146 -50 -146 -184c0 -148 23 -202 147 -202c38 0 118 9 118 9l3 -62s-93 -14 -139 -14c-159 0 -206 73 -206 269c0 181 59 251 208 251zM214 609v87h74v-87h-74z" />
    <glyph glyph-name="Ccaron" unicode="&#x10c;" horiz-adv-x="544" 
d="M500 77l3 -66c-49 -10 -125 -21 -191 -21c-207 0 -253 126 -253 354c0 234 45 358 253 358c71 0 147 -13 191 -22l-3 -65c-45 8 -126 18 -180 18c-154 0 -181 -92 -181 -289c0 -193 25 -285 183 -285c56 0 130 9 178 18zM271 791l-134 135h84l83 -80l82 80h84l-134 -135
h-65z" />
    <glyph glyph-name="ccaron" unicode="&#x10d;" horiz-adv-x="436" 
d="M259 510c46 0 136 -15 136 -15l-3 -61s-80 9 -118 9c-115 0 -146 -50 -146 -184c0 -148 23 -202 147 -202c38 0 118 9 118 9l3 -62s-93 -14 -139 -14c-159 0 -206 73 -206 269c0 181 59 251 208 251zM214 592l-123 140h74l75 -87l74 87h75l-125 -140h-50z" />
    <glyph glyph-name="Dcaron" unicode="&#x10e;" horiz-adv-x="645" 
d="M332 0h-247v692h247c201 0 256 -140 256 -336c0 -198 -52 -356 -256 -356zM509 356c0 150 -33 268 -177 268h-170v-556h170c144 0 177 138 177 288zM262 791l-134 135h84l83 -80l82 80h84l-134 -135h-65z" />
    <glyph glyph-name="dcaron" unicode="&#x10f;" horiz-adv-x="575" 
d="M558 683l-40 -207h65l49 207h-74zM456 718v-718h-74v34s-77 -44 -152 -44c-98 0 -180 40 -180 256c0 176 57 264 209 264c43 0 108 -10 123 -13v221h74zM239 57c71 0 143 37 143 37v339c-16 3 -78 12 -119 12c-105 0 -136 -69 -136 -199c0 -162 53 -189 112 -189z" />
    <glyph glyph-name="Dcroat" unicode="&#x110;" horiz-adv-x="647" 
d="M20 311v73h68v312h247c200 0 256 -140 256 -337c0 -199 -53 -359 -256 -359h-247v311h-68zM511 359c0 146 -33 264 -176 264h-171v-239h158v-73h-158v-238h171c143 0 176 139 176 286z" />
    <glyph glyph-name="dcroat" unicode="&#x111;" horiz-adv-x="529" 
d="M456 718v-30h23v-66h-23v-622h-74v34s-77 -44 -152 -44c-98 0 -180 40 -180 256c0 176 57 264 209 264c43 0 108 -10 123 -13v125h-194v66h194v30h74zM239 57c71 0 143 37 143 37v339c-16 3 -78 12 -119 12c-105 0 -136 -69 -136 -199c0 -162 53 -189 112 -189z" />
    <glyph glyph-name="Emacron" unicode="&#x112;" horiz-adv-x="553" 
d="M85 0v692h421v-68h-344v-239h284v-67h-284v-250h344v-68h-421zM138 812v58h311v-58h-311z" />
    <glyph glyph-name="emacron" unicode="&#x113;" horiz-adv-x="505" 
d="M257 56c75 0 184 9 184 9l2 -59s-114 -16 -195 -16c-149 0 -198 87 -198 257c0 190 82 263 209 263c133 0 201 -70 201 -234l-4 -57h-330c0 -107 33 -163 131 -163zM125 279h260c0 124 -38 168 -126 168c-85 0 -133 -47 -134 -168zM123 624v59h275v-59h-275z" />
    <glyph glyph-name="Ebreve" unicode="&#x114;" horiz-adv-x="553" 
d="M85 0v692h421v-68h-344v-239h284v-67h-284v-250h344v-68h-421zM147 918h69c2 -45 40 -75 88 -75c49 0 87 30 88 75h70c-4 -78 -65 -131 -158 -131s-153 53 -157 131z" />
    <glyph glyph-name="ebreve" unicode="&#x115;" horiz-adv-x="505" 
d="M257 56c75 0 184 9 184 9l2 -59s-114 -16 -195 -16c-149 0 -198 87 -198 257c0 190 82 263 209 263c133 0 201 -70 201 -234l-4 -57h-330c0 -107 33 -163 131 -163zM125 279h260c0 124 -38 168 -126 168c-85 0 -133 -47 -134 -168zM108 726h61c2 -49 34 -84 87 -84
c55 0 86 35 87 84h62c-4 -77 -58 -140 -149 -140c-90 0 -144 63 -148 140z" />
    <glyph glyph-name="Edotaccent" unicode="&#x116;" horiz-adv-x="553" 
d="M85 0v692h421v-68h-344v-239h284v-67h-284v-250h344v-68h-421zM260 801v87h74v-87h-74z" />
    <glyph glyph-name="edotaccent" unicode="&#x117;" horiz-adv-x="505" 
d="M257 56c75 0 184 9 184 9l2 -59s-114 -16 -195 -16c-149 0 -198 87 -198 257c0 190 82 263 209 263c133 0 201 -70 201 -234l-4 -57h-330c0 -107 33 -163 131 -163zM125 279h260c0 124 -38 168 -126 168c-85 0 -133 -47 -134 -168zM217 609v87h74v-87h-74z" />
    <glyph glyph-name="Eogonek" unicode="&#x118;" horiz-adv-x="553" 
d="M85 0v692h421v-68h-344v-239h284v-67h-284v-250h344v-68h-29c-3 -3 -70 -70 -70 -102c0 -25 17 -43 41 -43c14 0 50 6 50 6l7 -58s-45 -9 -79 -9c-52 0 -92 33 -92 87c0 47 52 100 74 119h-323z" />
    <glyph glyph-name="eogonek" unicode="&#x119;" horiz-adv-x="506" 
d="M414 1c0 0 -71 -70 -71 -103c0 -25 17 -43 41 -43c14 0 50 6 50 6l7 -58s-45 -9 -79 -9c-52 0 -92 33 -92 87c0 43 44 91 68 114c-31 -3 -61 -5 -90 -5c-149 0 -198 87 -198 257c0 190 82 263 209 263c133 0 201 -70 201 -234l-4 -57h-330c0 -107 33 -163 131 -163
c75 0 184 9 184 9l2 -59s-16 -2 -35 -5h6zM125 279h260c0 124 -38 168 -126 168c-85 0 -133 -47 -134 -168z" />
    <glyph glyph-name="Ecaron" unicode="&#x11a;" horiz-adv-x="553" 
d="M85 0v692h421v-68h-344v-239h284v-67h-284v-250h344v-68h-421zM258 791l-134 135h84l83 -80l82 80h84l-134 -135h-65z" />
    <glyph glyph-name="ecaron" unicode="&#x11b;" horiz-adv-x="505" 
d="M257 56c75 0 184 9 184 9l2 -59s-114 -16 -195 -16c-149 0 -198 87 -198 257c0 190 82 263 209 263c133 0 201 -70 201 -234l-4 -57h-330c0 -107 33 -163 131 -163zM125 279h260c0 124 -38 168 -126 168c-85 0 -133 -47 -134 -168zM227 592l-123 140h74l75 -87l74 87h75
l-125 -140h-50z" />
    <glyph glyph-name="Gcircumflex" unicode="&#x11c;" horiz-adv-x="616" 
d="M359 287v69h191v-340c-21 -4 -149 -24 -225 -24c-212 0 -268 130 -268 354c0 230 58 358 266 358c105 0 227 -26 227 -26l-3 -64s-124 21 -215 21c-160 0 -195 -93 -195 -289c0 -192 34 -286 194 -286c50 0 117 9 143 14v213h-115zM156 788l134 135h65l134 -135h-84
l-82 80l-83 -80h-84z" />
    <glyph glyph-name="gcircumflex" unicode="&#x11d;" horiz-adv-x="514" 
d="M265 -235c-158 0 -215 35 -215 151c0 58 27 85 79 124c-18 12 -28 38 -28 69c0 19 34 79 34 79c-42 19 -79 59 -79 151c0 123 76 171 187 171c50 0 104 -13 104 -13l148 4v-64l-95 2c19 -19 33 -47 33 -100c0 -130 -65 -169 -193 -169c-10 0 -38 2 -49 4
c0 0 -18 -44 -18 -57c0 -40 8 -46 121 -46c142 0 193 -28 193 -147c0 -113 -81 -159 -222 -159zM288 5c-35 0 -108 5 -108 5c-42 -31 -56 -49 -56 -88c0 -69 29 -94 142 -94c100 0 145 27 145 93c0 76 -32 84 -123 84zM243 230c84 0 115 30 115 109s-31 110 -115 110
c-78 0 -112 -31 -112 -110s34 -109 112 -109zM113 592l123 140h51l124 -140h-75l-73 87l-75 -87h-75z" />
    <glyph glyph-name="Gbreve" unicode="&#x11e;" horiz-adv-x="616" 
d="M359 285v69h191v-340c-21 -4 -149 -24 -225 -24c-212 0 -268 130 -268 354c0 230 58 358 266 358c105 0 227 -26 227 -26l-3 -64s-124 21 -215 21c-160 0 -195 -93 -195 -289c0 -192 34 -286 194 -286c50 0 117 9 143 14v213h-115zM171 918h69c2 -45 40 -75 88 -75
c49 0 87 30 88 75h70c-4 -78 -65 -131 -158 -131s-153 53 -157 131z" />
    <glyph glyph-name="gbreve" unicode="&#x11f;" horiz-adv-x="514" 
d="M265 -235c-158 0 -215 35 -215 151c0 58 27 85 79 124c-18 12 -28 38 -28 69c0 19 34 79 34 79c-42 19 -79 59 -79 151c0 123 76 171 187 171c50 0 104 -13 104 -13l148 4v-64l-95 2c19 -19 33 -47 33 -100c0 -130 -65 -169 -193 -169c-10 0 -38 2 -49 4
c0 0 -18 -44 -18 -57c0 -40 8 -46 121 -46c142 0 193 -28 193 -147c0 -113 -81 -159 -222 -159zM288 5c-35 0 -108 5 -108 5c-42 -31 -56 -49 -56 -88c0 -69 29 -94 142 -94c100 0 145 27 145 93c0 76 -32 84 -123 84zM243 230c84 0 115 30 115 109s-31 110 -115 110
c-78 0 -112 -31 -112 -110s34 -109 112 -109zM113 726h61c2 -49 34 -84 87 -84c55 0 86 35 87 84h62c-4 -77 -58 -140 -149 -140c-90 0 -144 63 -148 140z" />
    <glyph glyph-name="Gdotaccent" unicode="&#x120;" horiz-adv-x="616" 
d="M359 285v69h191v-340c-21 -4 -149 -24 -225 -24c-212 0 -268 130 -268 354c0 230 58 358 266 358c105 0 227 -26 227 -26l-3 -64s-124 21 -215 21c-160 0 -195 -93 -195 -289c0 -192 34 -286 194 -286c50 0 117 9 143 14v213h-115zM276 801v87h74v-87h-74z" />
    <glyph glyph-name="gdotaccent" unicode="&#x121;" horiz-adv-x="514" 
d="M265 -235c-158 0 -215 35 -215 151c0 58 27 85 79 124c-18 12 -28 38 -28 69c0 19 34 79 34 79c-42 19 -79 59 -79 151c0 123 76 171 187 171c50 0 104 -13 104 -13l148 4v-64l-95 2c19 -19 33 -47 33 -100c0 -130 -65 -169 -193 -169c-10 0 -38 2 -49 4
c0 0 -18 -44 -18 -57c0 -40 8 -46 121 -46c142 0 193 -28 193 -147c0 -113 -81 -159 -222 -159zM288 5c-35 0 -108 5 -108 5c-42 -31 -56 -49 -56 -88c0 -69 29 -94 142 -94c100 0 145 27 145 93c0 76 -32 84 -123 84zM243 230c84 0 115 30 115 109s-31 110 -115 110
c-78 0 -112 -31 -112 -110s34 -109 112 -109zM224 609v87h74v-87h-74z" />
    <glyph glyph-name="Gcommaaccent" unicode="&#x122;" horiz-adv-x="616" 
d="M359 285v69h191v-340c-21 -4 -149 -24 -225 -24c-212 0 -268 130 -268 354c0 230 58 358 266 358c105 0 227 -26 227 -26l-3 -64s-124 21 -215 21c-160 0 -195 -93 -195 -289c0 -192 34 -286 194 -286c50 0 117 9 143 14v213h-115zM301 -78l-41 -207h65l50 207h-74z" />
    <glyph glyph-name="gcommaaccent" unicode="&#x123;" horiz-adv-x="514" 
d="M307 796l-41 -207h-74l50 207h65zM265 -235c-158 0 -215 35 -215 151c0 58 27 85 79 124c-18 12 -28 38 -28 69c0 19 34 79 34 79c-42 19 -79 59 -79 151c0 123 76 171 187 171c50 0 104 -13 104 -13l148 4v-64l-95 2c19 -19 33 -47 33 -100c0 -130 -65 -169 -193 -169
c-10 0 -38 2 -49 4c0 0 -18 -44 -18 -57c0 -40 8 -46 121 -46c142 0 193 -28 193 -147c0 -113 -81 -159 -222 -159zM288 5c-35 0 -108 5 -108 5c-42 -31 -56 -49 -56 -88c0 -69 29 -94 142 -94c100 0 145 27 145 93c0 76 -32 84 -123 84zM243 230c84 0 115 30 115 109
s-31 110 -115 110c-78 0 -112 -31 -112 -110s34 -109 112 -109z" />
    <glyph glyph-name="Hcircumflex" unicode="&#x124;" horiz-adv-x="675" 
d="M514 0v313h-352v-313h-77v692h77v-310h352v310h76v-692h-76zM172 791l134 135h65l134 -135h-84l-82 80l-83 -80h-84z" />
    <glyph glyph-name="hcircumflex" unicode="&#x125;" horiz-adv-x="537" 
d="M147 0h-75v718h75v-246s80 38 154 38c137 0 169 -68 169 -246v-264h-75v262c0 132 -15 181 -107 181c-71 0 -141 -30 -141 -30v-413zM118 774l123 140h51l124 -140h-75l-73 87l-75 -87h-75z" />
    <glyph glyph-name="Hbar" unicode="&#x126;" horiz-adv-x="686" 
d="M15 508v65h74v119h77v-119h352v119h76v-119h83v-65h-83v-508h-76v313h-352v-313h-77v508h-74zM166 382h352v126h-352v-126z" />
    <glyph glyph-name="hbar" unicode="&#x127;" horiz-adv-x="537" 
d="M10 580v66h62v72h75v-72h154v-66h-154v-108s80 38 154 38c137 0 169 -68 169 -246v-264h-75v262c0 132 -15 181 -107 181c-71 0 -141 -30 -141 -30v-413h-75v580h-62z" />
    <glyph glyph-name="Itilde" unicode="&#x128;" horiz-adv-x="246" 
d="M85 0v692h77v-692h-77zM269 915l18 -56s-44 -56 -84 -56c-47 0 -131 54 -163 54c-24 0 -73 -48 -73 -48l-17 56s48 58 89 58c50 0 132 -54 162 -54c21 0 68 46 68 46z" />
    <glyph glyph-name="itilde" unicode="&#x129;" horiz-adv-x="219" 
d="M72 500v-500h75v500h-75zM252 711l17 -48s-46 -51 -86 -51s-107 47 -139 47c-24 0 -73 -40 -73 -40l-18 48s50 52 91 52c40 0 109 -46 139 -46c21 0 69 38 69 38z" />
    <glyph glyph-name="Imacron" unicode="&#x12a;" horiz-adv-x="246" 
d="M85 0v692h77v-692h-77zM-30 812v58h311v-58h-311z" />
    <glyph glyph-name="imacron" unicode="&#x12b;" horiz-adv-x="219" 
d="M72 500v-500h75v500h-75zM-28 624v59h275v-59h-275z" />
    <glyph glyph-name="Ibreve" unicode="&#x12c;" horiz-adv-x="246" 
d="M85 0v692h77v-692h-77zM-26 918h69c2 -45 40 -75 88 -75c49 0 87 30 88 75h70c-4 -78 -65 -131 -158 -131s-153 53 -157 131z" />
    <glyph glyph-name="ibreve" unicode="&#x12d;" horiz-adv-x="219" 
d="M72 500v-500h75v500h-75zM-39 726h61c2 -49 34 -84 87 -84c55 0 86 35 87 84h62c-4 -77 -58 -140 -149 -140c-90 0 -144 63 -148 140z" />
    <glyph glyph-name="Iogonek" unicode="&#x12e;" horiz-adv-x="246" 
d="M85 0v692h77v-692s-76 -69 -76 -102c0 -25 17 -43 41 -43c14 0 51 6 51 6l7 -58s-45 -9 -79 -9c-53 0 -92 33 -92 87c0 47 52 100 74 119h-3z" />
    <glyph glyph-name="iogonek" unicode="&#x12f;" horiz-adv-x="219" 
d="M72 0v500h75v-500s-76 -68 -76 -102c0 -25 17 -43 41 -43c15 0 51 6 51 6l7 -58s-45 -9 -79 -9c-53 0 -92 33 -92 87c0 47 55 100 77 119h-4zM72 613v87h75v-87h-75z" />
    <glyph glyph-name="Idotaccent" unicode="&#x130;" horiz-adv-x="246" 
d="M85 0v692h77v-692h-77zM86 801v87h74v-87h-74z" />
    <glyph glyph-name="dotlessi" unicode="&#x131;" horiz-adv-x="219" 
d="M72 0v500h75v-500h-75z" />
    <glyph glyph-name="Jcircumflex" unicode="&#x134;" horiz-adv-x="289" 
d="M207 692l1 -597c0 -150 -58 -167 -190 -167v69c91 0 113 6 113 109v586h76zM2 788l134 135h65l134 -135h-84l-82 80l-83 -80h-84z" />
    <glyph glyph-name="jcircumflex" unicode="&#x135;" horiz-adv-x="219" 
d="M73 13v487h74v-488c0 -123 -33 -167 -166 -235l-30 58c101 59 122 85 122 178zM-41 592l123 140h51l124 -140h-75l-73 87l-75 -87h-75z" />
    <glyph glyph-name="Kcommaaccent" unicode="&#x136;" horiz-adv-x="568" 
d="M461 0l-184 306l-115 -4v-302h-77v696h77v-321l113 4l177 317h89l-198 -348l209 -348h-91zM264 -78l-40 -207h65l49 207h-74z" />
    <glyph glyph-name="kcommaaccent" unicode="&#x137;" horiz-adv-x="479" 
d="M100 -285l40 207h75l-50 -207h-65zM147 0h-75v718h75v-424l78 4l143 202h85l-163 -230l170 -270h-85l-149 232l-79 -3v-229z" />
    <glyph glyph-name="Lacute" unicode="&#x139;" horiz-adv-x="479" 
d="M466 0h-381v696h77v-622h304v-74zM134 831l216 100l26 -66l-219 -87z" />
    <glyph glyph-name="lacute" unicode="&#x13a;" horiz-adv-x="231" 
d="M78 0v718h75v-718h-75zM52 846l216 98l26 -64l-221 -85z" />
    <glyph glyph-name="Lcommaaccent" unicode="&#x13b;" horiz-adv-x="479" 
d="M241 -78l-41 -207h65l50 207h-74zM466 0h-381v692h77v-623h304v-69z" />
    <glyph glyph-name="lcommaaccent" unicode="&#x13c;" horiz-adv-x="231" 
d="M78 0v718h75v-718h-75zM74 -78l-41 -207h65l50 207h-74z" />
    <glyph glyph-name="Lcaron" unicode="&#x13d;" horiz-adv-x="494" 
d="M439 696v-234h-73v234h73zM466 0h-381v692h77v-623h304v-69z" />
    <glyph glyph-name="lcaron" unicode="&#x13e;" horiz-adv-x="270" 
d="M255 683l-41 -207h66l49 207h-74zM78 0v718h75v-718h-75z" />
    <glyph glyph-name="Lslash" unicode="&#x141;" horiz-adv-x="483" 
d="M471 0h-381v272l-57 -40l-37 52l94 66v342h77v-288l142 99l37 -51l-179 -126v-257h304v-69z" />
    <glyph glyph-name="lslash" unicode="&#x142;" horiz-adv-x="310" 
d="M114 0v279l-67 -47l-37 52l104 73v361h75v-309l74 52l37 -52l-111 -78v-331h-75z" />
    <glyph glyph-name="Nacute" unicode="&#x143;" horiz-adv-x="676" 
d="M85 0v692h144l265 -624h21v624h76v-692h-141l-269 624h-19v-624h-77zM220 831l216 100l26 -66l-219 -87z" />
    <glyph glyph-name="nacute" unicode="&#x144;" horiz-adv-x="537" 
d="M72 0h75v406s69 37 141 37c93 0 108 -49 108 -181v-262h74v264c0 178 -31 246 -169 246c-74 0 -155 -45 -155 -45v35h-74v-500zM160 642l216 98l26 -64l-221 -85z" />
    <glyph glyph-name="Ncommaaccent" unicode="&#x145;" horiz-adv-x="676" 
d="M324 -78l-41 -207h65l50 207h-74zM85 0v692h144l265 -624h21v624h76v-692h-141l-269 624h-19v-624h-77z" />
    <glyph glyph-name="ncommaaccent" unicode="&#x146;" horiz-adv-x="537" 
d="M127 -285l41 207h74l-49 -207h-66zM147 0h-75v500h74v-35s81 45 155 45c138 0 169 -68 169 -246v-264h-74v262c0 132 -15 181 -108 181c-72 0 -141 -37 -141 -37v-406z" />
    <glyph glyph-name="Ncaron" unicode="&#x147;" horiz-adv-x="676" 
d="M85 0v692h144l265 -624h21v624h76v-692h-141l-269 624h-19v-624h-77zM306 788l-134 135h84l83 -80l82 80h84l-134 -135h-65z" />
    <glyph glyph-name="ncaron" unicode="&#x148;" horiz-adv-x="537" 
d="M147 0h-75v500h74v-35s81 45 155 45c138 0 169 -68 169 -246v-264h-74v262c0 132 -15 181 -108 181c-72 0 -141 -37 -141 -37v-406zM242 592l-123 140h74l75 -87l74 87h75l-125 -140h-50z" />
    <glyph glyph-name="Eng" unicode="&#x14a;" horiz-adv-x="676" 
d="M85 0v692h144l265 -624h21v624h76v-117l1 -597c0 -150 -58 -167 -190 -167v69c91 0 113 6 113 109v11h-65l-269 624h-19v-624h-77z" />
    <glyph glyph-name="eng" unicode="&#x14b;" horiz-adv-x="538" 
d="M146 0h-74v500h74v-33s87 43 158 43c133 0 167 -78 167 -250v-262c0 -125 -30 -166 -161 -235l-32 63c99 57 118 83 118 170v263c0 123 -15 183 -104 183c-66 0 -146 -37 -146 -37v-405z" />
    <glyph glyph-name="Omacron" unicode="&#x14c;" horiz-adv-x="660" 
d="M330 58c161 0 194 90 194 285c0 187 -36 291 -194 291c-159 0 -194 -103 -194 -291c0 -189 34 -285 194 -285zM330 -10c-215 0 -273 121 -273 353c0 228 59 359 273 359s274 -129 274 -359c0 -238 -59 -353 -274 -353zM174 812v58h311v-58h-311z" />
    <glyph glyph-name="omacron" unicode="&#x14d;" horiz-adv-x="528" 
d="M264 510c-158 0 -214 -82 -214 -254c0 -182 46 -266 214 -266c169 0 214 84 214 266c0 172 -55 254 -214 254zM264 55c-118 0 -137 59 -137 201c0 139 31 189 137 189c107 0 137 -50 137 -189c0 -142 -18 -201 -137 -201zM128 636v59h275v-59h-275z" />
    <glyph glyph-name="Obreve" unicode="&#x14e;" horiz-adv-x="660" 
d="M330 58c161 0 194 90 194 285c0 187 -36 291 -194 291c-159 0 -194 -103 -194 -291c0 -189 34 -285 194 -285zM330 -10c-215 0 -273 121 -273 353c0 228 59 359 273 359s274 -129 274 -359c0 -238 -59 -353 -274 -353zM174 918h69c2 -45 40 -75 88 -75c49 0 87 30 88 75
h70c-4 -78 -65 -131 -158 -131s-153 53 -157 131z" />
    <glyph glyph-name="obreve" unicode="&#x14f;" horiz-adv-x="528" 
d="M264 510c-158 0 -214 -82 -214 -254c0 -182 46 -266 214 -266c169 0 214 84 214 266c0 172 -55 254 -214 254zM264 55c-118 0 -137 59 -137 201c0 139 31 189 137 189c107 0 137 -50 137 -189c0 -142 -18 -201 -137 -201zM118 726h61c2 -49 34 -84 87 -84
c55 0 86 35 87 84h62c-4 -77 -58 -140 -149 -140c-90 0 -144 63 -148 140z" />
    <glyph glyph-name="Ohungarumlaut" unicode="&#x150;" horiz-adv-x="660" 
d="M330 58c161 0 194 90 194 285c0 187 -36 291 -194 291c-159 0 -194 -103 -194 -291c0 -189 34 -285 194 -285zM330 -10c-215 0 -273 121 -273 353c0 228 59 359 273 359s274 -129 274 -359c0 -238 -59 -353 -274 -353zM348 785l142 131l55 -35l-146 -129zM151 785
l142 132l54 -35l-145 -129z" />
    <glyph glyph-name="ohungarumlaut" unicode="&#x151;" horiz-adv-x="528" 
d="M264 510c-158 0 -214 -82 -214 -254c0 -182 46 -266 214 -266c169 0 214 84 214 266c0 172 -55 254 -214 254zM264 55c-118 0 -137 59 -137 201c0 139 31 189 137 189c107 0 137 -50 137 -189c0 -142 -18 -201 -137 -201zM286 624l145 139l54 -43l-148 -138zM93 624
l145 138l54 -42l-147 -138z" />
    <glyph glyph-name="OE" unicode="&#x152;" horiz-adv-x="925" 
d="M878 -1h-413c-41 -4 -106 -9 -143 -9c-213 0 -265 121 -265 355c0 242 60 361 265 361c37 0 104 -4 141 -10h415v-74h-339v-229h279v-74h-279v-245h339v-75zM332 65c22 0 97 4 131 7v550c-35 3 -108 9 -133 9c-156 0 -193 -87 -193 -285c0 -194 32 -281 195 -281z" />
    <glyph glyph-name="oe" unicode="&#x153;" horiz-adv-x="857" 
d="M609 58c75 0 183 9 183 9l2 -61s-113 -16 -194 -16c-83 0 -133 29 -162 91c-29 -65 -81 -91 -173 -91c-169 0 -215 84 -215 267c0 172 57 253 215 253c88 0 145 -29 176 -105c34 79 95 105 170 105c133 0 201 -70 201 -234l-4 -58h-330c0 -105 33 -160 131 -160zM265 57
c118 0 136 66 136 198c0 133 -39 187 -136 187c-106 0 -138 -48 -138 -185c0 -140 21 -200 138 -200zM477 279h260c0 120 -38 164 -126 164c-86 0 -134 -48 -134 -164z" />
    <glyph glyph-name="Racute" unicode="&#x154;" horiz-adv-x="616" 
d="M162 265h196l125 -265h85l-133 281c87 28 127 99 127 201c0 146 -76 210 -221 210h-256v-692h77v265zM483 482c0 -87 -37 -149 -141 -149h-180v291h179c97 0 142 -47 142 -142zM187 831l216 100l26 -66l-219 -87z" />
    <glyph glyph-name="racute" unicode="&#x155;" horiz-adv-x="346" 
d="M72 0v500h74v-68s87 60 183 79v-76c-94 -19 -182 -68 -182 -68v-367h-75zM67 642l216 98l26 -64l-221 -85z" />
    <glyph glyph-name="Rcommaaccent" unicode="&#x156;" horiz-adv-x="616" 
d="M245 -285l41 207h74l-50 -207h-65zM358 265h-196v-265h-77v692h256c145 0 221 -64 221 -210c0 -102 -40 -173 -127 -201l133 -281h-85zM483 482c0 95 -45 142 -142 142h-179v-291h180c104 0 141 62 141 149z" />
    <glyph glyph-name="rcommaaccent" unicode="&#x157;" horiz-adv-x="346" 
d="M72 -78l-40 -207h65l49 207h-74zM72 0v500h74v-68s87 60 183 79v-76c-94 -19 -182 -68 -182 -68v-367h-75z" />
    <glyph glyph-name="Rcaron" unicode="&#x158;" horiz-adv-x="616" 
d="M358 265h-196v-265h-77v692h256c145 0 221 -64 221 -210c0 -102 -40 -173 -127 -201l133 -281h-85zM483 482c0 95 -45 142 -142 142h-179v-291h180c104 0 141 62 141 149zM268 791l-134 135h84l83 -80l82 80h84l-134 -135h-65z" />
    <glyph glyph-name="rcaron" unicode="&#x159;" horiz-adv-x="346" 
d="M72 0v500h74v-68s87 60 183 79v-76c-94 -19 -182 -68 -182 -68v-367h-75zM149 592l-123 140h74l75 -87l74 87h75l-125 -140h-50z" />
    <glyph glyph-name="Sacute" unicode="&#x15a;" horiz-adv-x="542" 
d="M480 683l-7 -65s-139 17 -197 17c-98 0 -150 -35 -150 -113c0 -90 48 -105 169 -132c138 -31 199 -65 199 -186c0 -153 -84 -213 -221 -213c-82 0 -219 22 -219 22l8 64s136 -18 207 -18c98 0 148 43 148 139c0 78 -41 100 -154 122c-143 31 -215 65 -215 197
c0 134 88 186 223 186c82 0 209 -20 209 -20zM163 831l216 100l26 -66l-219 -87z" />
    <glyph glyph-name="sacute" unicode="&#x15b;" horiz-adv-x="465" 
d="M406 491l-2 -64s-111 16 -175 16c-62 0 -109 -17 -109 -76c0 -47 24 -60 130 -78c125 -21 172 -46 172 -143c0 -117 -74 -156 -194 -156c-64 0 -176 19 -176 19l4 65s114 -17 165 -17c82 0 126 18 126 86c0 52 -26 65 -135 82c-113 18 -167 39 -167 139
c0 110 89 146 180 146c75 0 181 -19 181 -19zM114 642l216 98l26 -64l-221 -85z" />
    <glyph glyph-name="Scircumflex" unicode="&#x15c;" horiz-adv-x="542" 
d="M480 683l-7 -65s-139 17 -197 17c-98 0 -150 -35 -150 -113c0 -90 48 -105 169 -132c138 -31 199 -65 199 -186c0 -153 -84 -213 -221 -213c-82 0 -219 22 -219 22l8 64s136 -18 207 -18c98 0 148 43 148 139c0 78 -41 100 -154 122c-143 31 -215 65 -215 197
c0 134 88 186 223 186c82 0 209 -20 209 -20zM108 788l134 135h65l134 -135h-84l-82 80l-83 -80h-84z" />
    <glyph glyph-name="scircumflex" unicode="&#x15d;" horiz-adv-x="465" 
d="M406 491l-2 -64s-111 16 -175 16c-62 0 -109 -17 -109 -76c0 -47 24 -60 130 -78c125 -21 172 -46 172 -143c0 -117 -74 -156 -194 -156c-64 0 -176 19 -176 19l4 65s114 -17 165 -17c82 0 126 18 126 86c0 52 -26 65 -135 82c-113 18 -167 39 -167 139
c0 110 89 146 180 146c75 0 181 -19 181 -19zM85 592l123 140h51l124 -140h-75l-73 87l-75 -87h-75z" />
    <glyph glyph-name="Scedilla" unicode="&#x15e;" horiz-adv-x="542" 
d="M410 -127c0 -63 -37 -90 -93 -90c-44 0 -86 7 -86 7l3 48s39 -3 66 -3c28 0 44 10 44 38c0 25 -16 34 -44 34h-42v84c-83 3 -204 22 -204 22l8 64s136 -18 207 -18c98 0 148 43 148 139c0 78 -41 100 -154 122c-143 31 -215 65 -215 197c0 134 88 186 223 186
c82 0 209 -20 209 -20l-7 -65s-139 17 -197 17c-98 0 -150 -35 -150 -113c0 -90 48 -105 169 -132c138 -31 199 -65 199 -186c0 -143 -74 -204 -195 -212v-41c74 0 111 -14 111 -78z" />
    <glyph glyph-name="scedilla" unicode="&#x15f;" horiz-adv-x="465" 
d="M356 -127c0 -63 -37 -90 -93 -90c-44 0 -86 7 -86 7l3 48s39 -3 66 -3c28 0 44 10 44 38c0 25 -16 34 -44 34h-42v84c-65 3 -152 18 -152 18l4 65s114 -17 165 -17c82 0 126 18 126 86c0 52 -26 65 -135 82c-113 18 -167 39 -167 139c0 110 89 146 180 146
c75 0 181 -19 181 -19l-2 -64s-111 16 -175 16c-62 0 -109 -17 -109 -76c0 -47 24 -60 130 -78c125 -21 172 -46 172 -143c0 -112 -67 -152 -177 -156v-39c74 0 111 -14 111 -78z" />
    <glyph glyph-name="Scaron" unicode="&#x160;" horiz-adv-x="542" 
d="M480 683l-7 -65s-139 17 -197 17c-98 0 -150 -35 -150 -113c0 -90 48 -105 169 -132c138 -31 199 -65 199 -186c0 -153 -84 -213 -221 -213c-82 0 -219 22 -219 22l8 64s136 -18 207 -18c98 0 148 43 148 139c0 78 -41 100 -154 122c-143 31 -215 65 -215 197
c0 134 88 186 223 186c82 0 209 -20 209 -20zM250 791l-134 135h84l83 -80l82 80h84l-134 -135h-65z" />
    <glyph glyph-name="scaron" unicode="&#x161;" horiz-adv-x="465" 
d="M406 491l-2 -64s-111 16 -175 16c-62 0 -109 -17 -109 -76c0 -47 24 -60 130 -78c125 -21 172 -46 172 -143c0 -117 -74 -156 -194 -156c-64 0 -176 19 -176 19l4 65s114 -17 165 -17c82 0 126 18 126 86c0 52 -26 65 -135 82c-113 18 -167 39 -167 139
c0 110 89 146 180 146c75 0 181 -19 181 -19zM216 592l-123 140h74l75 -87l74 87h75l-125 -140h-50z" />
    <glyph glyph-name="Tcedilla" unicode="&#x162;" horiz-adv-x="0" 
 />
    <glyph glyph-name="tcedilla" unicode="&#x163;" horiz-adv-x="351" 
d="M331 435h-159v-239c0 -109 7 -140 72 -140c28 0 89 6 89 6l5 -62s-67 -11 -102 -11c-103 0 -138 39 -138 183v263h-71v65h71v153h74v-153h159v-65zM264 -127c0 -63 -37 -90 -93 -90c-44 0 -86 7 -86 7l3 48s39 -3 66 -3c28 0 44 10 44 38c0 25 -16 34 -44 34h-42v94h41
v-50c74 0 111 -14 111 -78z" />
    <glyph glyph-name="Tcaron" unicode="&#x164;" horiz-adv-x="526" 
d="M13 623v69h500v-69h-211v-623h-76v623h-213zM231 791l-134 135h84l83 -80l82 80h84l-134 -135h-65z" />
    <glyph glyph-name="tcaron" unicode="&#x165;" horiz-adv-x="432" 
d="M331 432h-158v-233c0 -109 6 -139 72 -139c28 0 89 5 89 5l4 -65s-66 -11 -101 -11c-103 0 -139 39 -139 183v260h-71v68h71v153h75v-153h158v-68zM442 696v-234h-72v234h72z" />
    <glyph glyph-name="Tbar" unicode="&#x166;" horiz-adv-x="529" 
d="M15 623v69h500v-69h-211v-257h164v-66h-164v-300h-76v300h-163v66h163v257h-213z" />
    <glyph glyph-name="tbar" unicode="&#x167;" horiz-adv-x="354" 
d="M333 432h-158v-120h134v-59h-134v-54c0 -109 6 -139 72 -139c28 0 89 5 89 5l4 -65s-66 -11 -101 -11c-103 0 -139 39 -139 183v81h-55v59h55v120h-71v68h71v153h75v-153h158v-68z" />
    <glyph glyph-name="Utilde" unicode="&#x168;" horiz-adv-x="644" 
d="M157 208c0 -108 60 -150 162 -150c108 0 169 42 169 150v484h76v-482c0 -158 -87 -220 -245 -220c-152 0 -239 61 -239 220v482h77v-484zM472 915l18 -56s-44 -56 -84 -56c-47 0 -131 54 -163 54c-24 0 -73 -48 -73 -48l-17 56s48 58 89 58c50 0 132 -54 162 -54
c21 0 68 46 68 46z" />
    <glyph glyph-name="utilde" unicode="&#x169;" horiz-adv-x="531" 
d="M459 500h-75v-406s-63 -37 -137 -37c-93 0 -105 45 -105 183v260h-75v-261c0 -184 29 -249 169 -249c73 0 148 45 148 45v-35h75v500zM404 711l17 -48s-46 -51 -86 -51s-107 47 -139 47c-24 0 -73 -40 -73 -40l-18 48s50 52 91 52c40 0 109 -46 139 -46c21 0 69 38 69 38
z" />
    <glyph glyph-name="Umacron" unicode="&#x16a;" horiz-adv-x="644" 
d="M157 208c0 -108 60 -150 162 -150c108 0 169 42 169 150v484h76v-482c0 -158 -87 -220 -245 -220c-152 0 -239 61 -239 220v482h77v-484zM168 812v58h311v-58h-311z" />
    <glyph glyph-name="umacron" unicode="&#x16b;" horiz-adv-x="531" 
d="M459 500h-75v-406s-63 -37 -137 -37c-93 0 -105 45 -105 183v260h-75v-261c0 -184 29 -249 169 -249c73 0 148 45 148 45v-35h75v500zM126 624v59h275v-59h-275z" />
    <glyph glyph-name="Ubreve" unicode="&#x16c;" horiz-adv-x="644" 
d="M157 208c0 -108 60 -150 162 -150c108 0 169 42 169 150v484h76v-482c0 -158 -87 -220 -245 -220c-152 0 -239 61 -239 220v482h77v-484zM167 918h69c2 -45 40 -75 88 -75c49 0 87 30 88 75h70c-4 -78 -65 -131 -158 -131s-153 53 -157 131z" />
    <glyph glyph-name="ubreve" unicode="&#x16d;" horiz-adv-x="531" 
d="M459 500h-75v-406s-63 -37 -137 -37c-93 0 -105 45 -105 183v260h-75v-261c0 -184 29 -249 169 -249c73 0 148 45 148 45v-35h75v500zM111 726h61c2 -49 34 -84 87 -84c55 0 86 35 87 84h62c-4 -77 -58 -140 -149 -140c-90 0 -144 63 -148 140z" />
    <glyph glyph-name="Uring" unicode="&#x16e;" horiz-adv-x="644" 
d="M157 208c0 -108 60 -150 162 -150c108 0 169 42 169 150v484h76v-482c0 -158 -87 -220 -245 -220c-152 0 -239 61 -239 220v482h77v-484zM442 846c0 -68 -51 -106 -118 -106c-68 0 -119 38 -119 106c0 67 51 105 119 105c67 0 118 -38 118 -105zM262 846
c0 -34 23 -54 62 -54c38 0 62 20 62 54s-24 53 -62 53c-39 0 -62 -19 -62 -53z" />
    <glyph glyph-name="uring" unicode="&#x16f;" horiz-adv-x="531" 
d="M459 500h-75v-406s-63 -37 -137 -37c-93 0 -105 45 -105 183v260h-75v-261c0 -184 29 -249 169 -249c73 0 148 45 148 45v-35h75v500zM161 645c0 58 45 104 104 104c58 0 103 -46 103 -104c0 -59 -45 -104 -103 -104c-59 0 -104 45 -104 104zM210 645
c0 -32 24 -57 55 -57s55 25 55 57c0 31 -24 56 -55 56s-55 -25 -55 -56z" />
    <glyph glyph-name="Uhungarumlaut" unicode="&#x170;" horiz-adv-x="644" 
d="M157 208c0 -108 60 -150 162 -150c108 0 169 42 169 150v484h76v-482c0 -158 -87 -220 -245 -220c-152 0 -239 61 -239 220v482h77v-484zM352 785l142 131l55 -35l-146 -129zM155 785l142 132l54 -35l-145 -129z" />
    <glyph glyph-name="uhungarumlaut" unicode="&#x171;" horiz-adv-x="531" 
d="M459 500h-75v-406s-63 -37 -137 -37c-93 0 -105 45 -105 183v260h-75v-261c0 -184 29 -249 169 -249c73 0 148 45 148 45v-35h75v500zM301 624l145 139l54 -43l-148 -138zM108 624l145 138l54 -42l-147 -138z" />
    <glyph glyph-name="Uogonek" unicode="&#x172;" horiz-adv-x="645" 
d="M157 208c0 -108 60 -150 162 -150c108 0 169 42 169 150v484h76v-482c0 -123 -53 -188 -151 -210c-4 -5 -69 -70 -69 -102c0 -25 17 -43 41 -43c14 0 50 6 50 6l7 -58s-45 -9 -79 -9c-52 0 -92 33 -92 87c0 41 39 85 63 109h-15c-152 0 -239 61 -239 220v482h77v-484z
" />
    <glyph glyph-name="uogonek" unicode="&#x173;" horiz-adv-x="531" 
d="M384 500h75v-500s-77 -65 -77 -102c0 -25 17 -43 41 -43c14 0 51 6 51 6l7 -58s-45 -9 -79 -9c-53 0 -92 33 -92 87c0 47 55 100 78 119h-4v32s-78 -42 -148 -42c-140 0 -169 64 -169 249v261h75v-260c0 -138 12 -183 105 -183c67 0 137 37 137 37v406z" />
    <glyph glyph-name="Wcircumflex" unicode="&#x174;" horiz-adv-x="886" 
d="M30 692h80l118 -624h29l141 618h90l141 -618h29l118 624h79l-140 -692h-141l-131 591l-131 -591h-141zM277 788l134 135h65l134 -135h-84l-82 80l-83 -80h-84z" />
    <glyph glyph-name="wcircumflex" unicode="&#x175;" horiz-adv-x="762" 
d="M31 500h75l101 -435h16l119 425h78l119 -425h17l100 435h75l-119 -500h-125l-106 391l-106 -391h-125zM233 592l123 140h51l124 -140h-75l-73 87l-75 -87h-75z" />
    <glyph glyph-name="Ycircumflex" unicode="&#x176;" horiz-adv-x="538" 
d="M308 291v-291h-77v291l-221 401h87l172 -324l172 324h87zM104 791l134 135h65l134 -135h-84l-82 80l-83 -80h-84z" />
    <glyph glyph-name="ycircumflex" unicode="&#x177;" horiz-adv-x="483" 
d="M25 500h75l125 -435h33l126 435h75l-208 -722h-75l65 222h-74zM95 592l123 140h51l124 -140h-75l-73 87l-75 -87h-75z" />
    <glyph glyph-name="Ydieresis" unicode="&#x178;" horiz-adv-x="538" 
d="M308 291v-291h-77v291l-221 401h87l172 -324l172 324h87zM130 808v90h73v-90h-73zM334 808v90h72v-90h-72z" />
    <glyph glyph-name="Zacute" unicode="&#x179;" horiz-adv-x="536" 
d="M43 624v68h450v-90l-362 -514v-20h362v-69h-450v89l361 514v22h-361zM153 831l216 100l26 -66l-219 -87z" />
    <glyph glyph-name="zacute" unicode="&#x17a;" horiz-adv-x="455" 
d="M42 500v-67h280l-280 -366v-67h371v67h-280l280 366v67h-371zM113 642l216 98l26 -64l-221 -85z" />
    <glyph glyph-name="Zdotaccent" unicode="&#x17b;" horiz-adv-x="536" 
d="M43 624v68h450v-90l-362 -514v-20h362v-69h-450v89l361 514v22h-361zM230 801v87h74v-87h-74z" />
    <glyph glyph-name="zdotaccent" unicode="&#x17c;" horiz-adv-x="455" 
d="M42 500v-67h280l-280 -366v-67h371v67h-280l280 366v67h-371zM190 609v87h74v-87h-74z" />
    <glyph glyph-name="Zcaron" unicode="&#x17d;" horiz-adv-x="536" 
d="M43 624v68h450v-90l-362 -514v-20h362v-69h-450v89l361 514v22h-361zM243 791l-134 135h84l83 -80l82 80h84l-134 -135h-65z" />
    <glyph glyph-name="zcaron" unicode="&#x17e;" horiz-adv-x="455" 
d="M42 433v67h371v-67l-280 -366h280v-67h-371v67l280 366h-280zM205 592l-123 140h74l75 -87l74 87h75l-125 -140h-50z" />
    <glyph glyph-name="florin" unicode="&#x192;" 
d="M281 -55c0 -137 -43 -180 -144 -180c-42 0 -98 8 -98 8l1 64s60 -5 91 -5c51 0 75 28 75 114v420h-63v64h63v54c0 112 18 205 135 205c40 0 100 -9 100 -9l-1 -63s-45 4 -85 4c-49 0 -74 -35 -74 -115v-76h145v-64h-145v-421z" />
    <glyph glyph-name="Aringacute" unicode="&#x1fa;" horiz-adv-x="596" 
d="M416 746c0 -31 -11 -56 -29 -74l185 -672h-76l-50 178h-296l-50 -178h-76l184 671c-18 18 -29 43 -29 75c0 67 51 105 119 105c67 0 118 -38 118 -105zM272 626l-105 -379h262l-105 379h-52zM170 924l216 100l26 -66l-219 -87zM236 746c0 -34 23 -54 62 -54
c38 0 62 20 62 54s-24 53 -62 53c-39 0 -62 -19 -62 -53z" />
    <glyph glyph-name="aringacute" unicode="&#x1fb;" horiz-adv-x="501" 
d="M425 349v-256c2 -29 26 -40 58 -44l-3 -59c-53 0 -89 10 -119 40c0 0 -90 -40 -180 -40c-91 0 -141 52 -141 153c0 96 50 138 153 148l157 15v43c0 70 -30 95 -90 95c-70 0 -189 -13 -189 -13l-3 57s110 22 196 22c113 0 161 -52 161 -161zM350 249l-148 -14
c-61 -6 -85 -35 -85 -90c0 -58 25 -92 76 -92c74 0 157 31 157 31v165zM142 645c0 58 45 104 104 104c58 0 103 -46 103 -104c0 -59 -45 -104 -103 -104c-59 0 -104 45 -104 104zM191 645c0 -32 24 -57 55 -57s55 25 55 57c0 31 -24 56 -55 56s-55 -25 -55 -56zM132 824
l216 98l26 -64l-221 -85z" />
    <glyph glyph-name="AEacute" unicode="&#x1fc;" horiz-adv-x="876" 
d="M408 0v175h-251l-58 -175h-79l224 696h585v-73h-345v-230h285v-73h-285v-247h345v-73h-421zM300 623l-122 -374h230l1 374h-109zM413 831l216 100l26 -66l-219 -87z" />
    <glyph glyph-name="aeacute" unicode="&#x1fd;" horiz-adv-x="804" 
d="M556 58c75 0 183 9 183 9l2 -61s-113 -16 -194 -16c-68 0 -116 19 -147 54l-32 -14c-13 -6 -95 -40 -192 -40c-89 0 -136 54 -136 153c0 112 58 138 181 151l129 12v41c0 64 -32 91 -87 91c-74 0 -190 -10 -190 -10l-3 67s119 15 197 15c68 0 113 -24 135 -73
c35 53 90 73 156 73c133 0 201 -70 201 -234l-4 -58h-330c0 -105 33 -160 131 -160zM188 55c72 0 169 32 179 37c-15 40 -19 92 -19 153l-146 -12c-58 -5 -85 -31 -85 -88c0 -59 26 -90 71 -90zM425 279h259c0 120 -38 164 -126 164c-86 0 -133 -47 -133 -164zM290 642
l216 98l26 -64l-221 -85z" />
    <glyph glyph-name="Oslashacute" unicode="&#x1fe;" horiz-adv-x="662" 
d="M331 -10c-47 0 -87 6 -120 17l-57 -123l-57 26l59 126c-74 55 -98 158 -98 307c0 228 59 359 273 359c50 0 92 -7 126 -21l56 118l58 -24l-59 -127c69 -58 93 -162 93 -305c0 -238 -59 -353 -274 -353zM137 343c0 -110 11 -189 52 -235l238 507c-26 13 -57 19 -96 19
c-159 0 -194 -103 -194 -291zM331 58c161 0 194 90 194 285c0 103 -11 182 -48 231l-235 -502c24 -10 53 -14 89 -14zM209 831l216 100l26 -66l-219 -87z" />
    <glyph glyph-name="oslashacute" unicode="&#x1ff;" horiz-adv-x="528" 
d="M264 510c-158 0 -214 -82 -214 -254c0 -125 21 -204 89 -241l-44 -109l50 -18l43 110c22 -5 47 -8 76 -8c169 0 214 84 214 266c0 116 -25 191 -90 227l43 104l-50 19l-43 -104c-22 5 -46 8 -74 8zM264 445c19 0 36 -2 50 -6l-145 -359c-35 30 -42 87 -42 176
c0 139 31 189 137 189zM264 55c-20 0 -37 1 -51 5l146 357c31 -28 42 -79 42 -161c0 -142 -18 -201 -137 -201zM144 642l216 98l26 -64l-221 -85z" />
    <glyph glyph-name="Scommaaccent" unicode="&#x218;" horiz-adv-x="542" 
d="M249 -78l-40 -207h65l49 207h-74zM480 683l-7 -65s-139 17 -197 17c-98 0 -150 -35 -150 -113c0 -90 48 -105 169 -132c138 -31 199 -65 199 -186c0 -153 -84 -213 -221 -213c-82 0 -219 22 -219 22l8 64s136 -18 207 -18c98 0 148 43 148 139c0 78 -41 100 -154 122
c-143 31 -215 65 -215 197c0 134 88 186 223 186c82 0 209 -20 209 -20z" />
    <glyph glyph-name="scommaaccent" unicode="&#x219;" horiz-adv-x="465" 
d="M151 -78l-40 -207h65l50 207h-75zM406 491l-2 -64s-111 16 -175 16c-62 0 -109 -17 -109 -76c0 -47 24 -60 130 -78c125 -21 172 -46 172 -143c0 -117 -74 -156 -194 -156c-64 0 -176 19 -176 19l4 65s114 -17 165 -17c82 0 126 18 126 86c0 52 -26 65 -135 82
c-113 18 -167 39 -167 139c0 110 89 146 180 146c75 0 181 -19 181 -19z" />
    <glyph glyph-name="Tcommaaccent" unicode="&#x21a;" horiz-adv-x="526" 
d="M246 -78l-40 -207h65l50 207h-75zM13 623v69h500v-69h-211v-623h-76v623h-213z" />
    <glyph glyph-name="tcommaaccent" unicode="&#x21b;" horiz-adv-x="351" 
d="M141 -78l-40 -207h65l50 207h-75zM331 435h-159v-239c0 -109 7 -140 72 -140c28 0 89 6 89 6l5 -62s-67 -11 -102 -11c-103 0 -138 39 -138 183v263h-71v65h71v153h74v-153h159v-65z" />
    <glyph glyph-name="circumflex" unicode="&#x2c6;" horiz-adv-x="236" 
d="M-19 592l123 140h51l124 -140h-75l-73 87l-75 -87h-75z" />
    <glyph glyph-name="caron" unicode="&#x2c7;" horiz-adv-x="236" 
d="M106 592l-123 140h74l75 -87l74 87h75l-125 -140h-50z" />
    <glyph glyph-name="breve" unicode="&#x2d8;" horiz-adv-x="236" 
d="M-17 726h61c2 -49 34 -84 87 -84c55 0 86 35 87 84h62c-4 -77 -58 -140 -149 -140c-90 0 -144 63 -148 140z" />
    <glyph glyph-name="dotaccent" unicode="&#x2d9;" horiz-adv-x="236" 
d="M81 609v87h74v-87h-74z" />
    <glyph glyph-name="ring" unicode="&#x2da;" horiz-adv-x="236" 
d="M18 645c0 58 45 104 104 104c58 0 103 -46 103 -104c0 -59 -45 -104 -103 -104c-59 0 -104 45 -104 104zM67 645c0 -32 24 -57 55 -57s55 25 55 57c0 31 -24 56 -55 56s-55 -25 -55 -56z" />
    <glyph glyph-name="ogonek" unicode="&#x2db;" horiz-adv-x="450" 
d="M332 1c0 0 -71 -70 -71 -103c0 -25 17 -43 41 -43c14 0 50 6 50 6l7 -58s-45 -9 -79 -9c-52 0 -92 33 -92 87c0 59 83 127 83 127z" />
    <glyph glyph-name="tilde" unicode="&#x2dc;" horiz-adv-x="236" 
d="M269 711l17 -48s-46 -51 -86 -51s-107 47 -139 47c-24 0 -73 -40 -73 -40l-18 48s50 52 91 52c40 0 109 -46 139 -46c21 0 69 38 69 38z" />
    <glyph glyph-name="hungarumlaut" unicode="&#x2dd;" horiz-adv-x="236" 
d="M142 624l145 139l54 -43l-148 -138zM-51 624l145 138l54 -42l-147 -138z" />
    <glyph glyph-name="pi" unicode="&#x3c0;" 
d="M359 154v281h-156l-28 -435h-76l31 435c-65 -1 -108 -13 -108 -13v63s59 15 142 15h235c73 0 131 14 131 14v-63s-28 -12 -96 -14v-283c0 -75 17 -93 87 -93v-65c-133 0 -162 30 -162 158z" />
    <glyph glyph-name="Wgrave" unicode="&#x1e80;" horiz-adv-x="886" 
d="M30 692h80l118 -624h29l141 618h90l141 -618h29l118 624h79l-140 -692h-141l-131 591l-131 -591h-141zM346 931l216 -100l-23 -53l-219 87z" />
    <glyph glyph-name="wgrave" unicode="&#x1e81;" horiz-adv-x="762" 
d="M31 500h75l101 -435h16l119 425h78l119 -425h17l100 435h75l-119 -500h-125l-106 391l-106 -391h-125zM265 740l216 -98l-21 -51l-221 85z" />
    <glyph glyph-name="Wacute" unicode="&#x1e82;" horiz-adv-x="886" 
d="M30 692h80l118 -624h29l141 618h90l141 -618h29l118 624h79l-140 -692h-141l-131 591l-131 -591h-141zM332 831l216 100l26 -66l-219 -87z" />
    <glyph glyph-name="wacute" unicode="&#x1e83;" horiz-adv-x="762" 
d="M31 500h75l101 -435h16l119 425h78l119 -425h17l100 435h75l-119 -500h-125l-106 391l-106 -391h-125zM277 642l216 98l26 -64l-221 -85z" />
    <glyph glyph-name="Wdieresis" unicode="&#x1e84;" horiz-adv-x="886" 
d="M30 692h80l118 -624h29l141 618h90l141 -618h29l118 624h79l-140 -692h-141l-131 591l-131 -591h-141zM304 808v90h73v-90h-73zM508 808v90h72v-90h-72z" />
    <glyph glyph-name="wdieresis" unicode="&#x1e85;" horiz-adv-x="762" 
d="M31 500h75l101 -435h16l119 425h78l119 -425h17l100 435h75l-119 -500h-125l-106 391l-106 -391h-125zM246 621v90h72v-90h-72zM446 621v90h73v-90h-73z" />
    <glyph glyph-name="uni1EAB" unicode="&#x1eab;" horiz-adv-x="501" 
d="M425 349v-256c2 -29 26 -40 58 -44l-3 -59c-53 0 -89 10 -119 40c0 0 -90 -40 -180 -40c-91 0 -141 52 -141 153c0 96 50 138 153 148l157 15v43c0 70 -30 95 -90 95c-70 0 -189 -13 -189 -13l-3 57s110 22 196 22c113 0 161 -52 161 -161zM350 249l-148 -14
c-61 -6 -85 -35 -85 -90c0 -58 25 -92 76 -92c74 0 157 31 157 31v165zM87 562l123 140h51l124 -140h-75l-73 87l-75 -87h-75zM368 835l17 -48s-46 -51 -86 -51s-107 47 -139 47c-24 0 -73 -40 -73 -40l-18 48s50 52 91 52c40 0 109 -46 139 -46c21 0 69 38 69 38z" />
    <glyph glyph-name="uni1EB0" unicode="&#x1eb0;" horiz-adv-x="594" 
d="M24 0l190 696h168l188 -695h-77l-52 174h-290l-51 -175h-76zM272 625l-103 -376h255l-102 376h-50zM139 884h69c2 -45 40 -75 88 -75c49 0 87 30 88 75h70c-4 -78 -65 -131 -158 -131s-153 53 -157 131zM146 1082l216 -98l-21 -51l-221 85z" />
    <glyph glyph-name="uni1EC5" unicode="&#x1ec5;" horiz-adv-x="506" 
d="M257 58c75 0 184 9 184 9l2 -61s-114 -16 -195 -16c-149 0 -198 87 -198 257c0 190 82 263 209 263c133 0 201 -70 201 -234l-4 -58h-330c0 -105 33 -160 131 -160zM125 279h260c0 120 -38 164 -126 164c-85 0 -133 -47 -134 -164zM108 562l123 140h51l124 -140h-75
l-73 87l-75 -87h-75zM392 835l17 -48s-46 -51 -86 -51s-107 47 -139 47c-24 0 -73 -40 -73 -40l-18 48s50 52 91 52c40 0 109 -46 139 -46c21 0 69 38 69 38z" />
    <glyph glyph-name="uni1ED7" unicode="&#x1ed7;" horiz-adv-x="528" 
d="M264 510c-158 0 -214 -82 -214 -254c0 -182 46 -266 214 -266c169 0 214 84 214 266c0 172 -55 254 -214 254zM264 55c-118 0 -137 59 -137 201c0 139 31 189 137 189c107 0 137 -50 137 -189c0 -142 -18 -201 -137 -201zM110 562l123 140h51l124 -140h-75l-73 87
l-75 -87h-75zM387 835l17 -48s-46 -51 -86 -51s-107 47 -139 47c-24 0 -73 -40 -73 -40l-18 48s50 52 91 52c40 0 109 -46 139 -46c21 0 69 38 69 38z" />
    <glyph glyph-name="Ygrave" unicode="&#x1ef2;" horiz-adv-x="538" 
d="M308 291v-291h-77v291l-221 401h87l172 -324l172 324h87zM166 931l216 -100l-23 -53l-219 87z" />
    <glyph glyph-name="ygrave" unicode="&#x1ef3;" horiz-adv-x="483" 
d="M25 500h75l125 -435h33l126 435h75l-208 -722h-75l65 222h-74zM130 740l216 -98l-21 -51l-221 85z" />
    <glyph glyph-name="uni1EF8" unicode="&#x1ef8;" horiz-adv-x="531" 
d="M305 298v-298h-77v299l-220 397h86l172 -312l170 312h87zM402 907l17 -48s-46 -51 -86 -51s-107 47 -139 47c-24 0 -73 -40 -73 -40l-18 48s50 52 91 52c40 0 109 -46 139 -46c21 0 69 38 69 38z" />
    <glyph glyph-name="uni1EF9" unicode="&#x1ef9;" horiz-adv-x="483" 
d="M25 500h75l125 -428h33l126 428h75l-208 -722h-75l64 222h-73zM377 711l17 -48s-46 -51 -86 -51s-107 47 -139 47c-24 0 -73 -40 -73 -40l-18 48s50 52 91 52c40 0 109 -46 139 -46c21 0 69 38 69 38z" />
    <glyph glyph-name="endash" unicode="&#x2013;" horiz-adv-x="631" 
d="M66 301h500v-66h-500v66z" />
    <glyph glyph-name="emdash" unicode="&#x2014;" horiz-adv-x="1131" 
d="M66 301h1000v-66h-1000v66z" />
    <glyph glyph-name="quoteleft" unicode="&#x2018;" horiz-adv-x="219" 
d="M174 708l-44 -219h-79l64 219h59z" />
    <glyph glyph-name="quoteright" unicode="&#x2019;" horiz-adv-x="216" 
d="M53 489l44 219h79l-64 -219h-59z" />
    <glyph glyph-name="quotesinglbase" unicode="&#x201a;" horiz-adv-x="218" 
d="M93 22l-9 -43h-16l13 43h12z" />
    <glyph glyph-name="quotedblleft" unicode="&#x201c;" horiz-adv-x="373" 
d="M327 708l-44 -219h-79l64 219h59zM174 708l-44 -219h-79l64 219h59z" />
    <glyph glyph-name="quotedblright" unicode="&#x201d;" horiz-adv-x="377" 
d="M53 490l44 219h79l-64 -219h-59zM213 490l44 219h79l-64 -219h-59z" />
    <glyph glyph-name="quotedblbase" unicode="&#x201e;" horiz-adv-x="359" 
d="M145 112l-44 -219h-79l64 219h59zM297 112l-44 -219h-79l64 219h59z" />
    <glyph glyph-name="dagger" unicode="&#x2020;" horiz-adv-x="478" 
d="M34 434v66h168v192h74v-192h168v-66h-168l-4 -510h-66l-4 510h-168z" />
    <glyph glyph-name="daggerdbl" unicode="&#x2021;" horiz-adv-x="521" 
d="M223 -76v192h-168v65h168v253h-168v66h168v192h75v-192h167v-66h-167v-253h168v-65h-168v-192h-75z" />
    <glyph glyph-name="bullet" unicode="&#x2022;" horiz-adv-x="473" 
d="M111 106v286h250v-286h-250z" />
    <glyph glyph-name="ellipsis" unicode="&#x2026;" horiz-adv-x="725" 
d="M67 0v114h82v-114h-82zM322 0v114h81v-114h-81zM576 0v114h82v-114h-82z" />
    <glyph glyph-name="perthousand" unicode="&#x2030;" horiz-adv-x="835" 
d="M148 619c37 0 49 -28 49 -87s-12 -90 -49 -90s-50 31 -50 90s13 87 50 87zM165 -4l205 685l48 -16l-206 -683zM38 532c0 -97 42 -141 110 -141c67 0 110 44 110 141c0 96 -43 138 -110 138c-68 0 -110 -42 -110 -138zM322 132c0 95 42 137 110 137c67 0 110 -42 110 -138
s-43 -141 -110 -141s-110 45 -110 142zM382 132c0 -60 13 -91 50 -91s50 31 50 90s-13 87 -50 87s-50 -28 -50 -86zM580 132c0 95 42 137 110 137c67 0 109 -42 109 -138s-43 -141 -109 -141c-68 0 -110 45 -110 142zM640 132c0 -60 13 -91 50 -91s49 31 49 90
s-12 87 -49 87s-50 -28 -50 -86z" />
    <glyph glyph-name="guilsinglleft" unicode="&#x2039;" horiz-adv-x="301" 
d="M234 344l-124 -94l124 -105v-78l-189 151v60l189 143v-77z" />
    <glyph glyph-name="guilsinglright" unicode="&#x203a;" horiz-adv-x="301" 
d="M191 254l-124 94v77l189 -143v-60l-189 -151v78z" />
    <glyph glyph-name="fraction" unicode="&#x2044;" horiz-adv-x="-21" 
d="M-224 28l392 632l40 -26l-393 -631z" />
    <glyph glyph-name="zerosuperior" unicode="&#x2070;" horiz-adv-x="280" 
d="M139 800c76 0 119 -41 119 -166c0 -126 -44 -166 -118 -166s-119 40 -119 166c0 125 44 166 118 166zM139 742c-35 0 -53 -27 -53 -108c0 -86 20 -108 54 -108s53 22 53 108c0 80 -16 108 -54 108z" />
    <glyph glyph-name="foursuperior" unicode="&#x2074;" horiz-adv-x="280" 
d="M165 478v48h-141v54l69 210h70l-73 -206h75l5 89h58v-89h27v-58h-27v-48h-63z" />
    <glyph glyph-name="fivesuperior" unicode="&#x2075;" horiz-adv-x="280" 
d="M54 790h187v-56h-136l-5 -73s30 15 58 15c55 0 93 -24 93 -98c0 -72 -36 -108 -106 -108c-47 0 -107 13 -107 13l5 52s55 -9 96 -9c32 0 47 17 47 50c0 34 -18 45 -40 45c-28 0 -52 -15 -52 -15l-50 6z" />
    <glyph glyph-name="sixsuperior" unicode="&#x2076;" horiz-adv-x="280" 
d="M242 790l-4 -54s-50 7 -84 7c-41 0 -60 -23 -61 -74c0 -1 34 14 60 14c71 0 102 -37 102 -103c0 -70 -43 -112 -110 -112c-79 0 -116 56 -116 161c0 118 37 171 123 171c37 0 90 -10 90 -10zM145 629c-27 0 -52 -16 -52 -17c2 -55 15 -87 50 -87s48 24 48 54
c0 36 -14 50 -46 50z" />
    <glyph glyph-name="sevensuperior" unicode="&#x2077;" horiz-adv-x="280" 
d="M30 728v62h206v-77l-105 -244l-69 13l102 225v21h-134z" />
    <glyph glyph-name="eightsuperior" unicode="&#x2078;" horiz-adv-x="280" 
d="M140 800c75 0 113 -27 113 -85c0 -44 -17 -65 -43 -73c24 -7 48 -27 48 -75c0 -72 -45 -99 -118 -99c-71 0 -118 24 -118 95c0 50 25 70 48 80c-22 8 -43 26 -43 72c0 57 37 85 113 85zM140 522c35 0 53 14 53 45c0 26 -13 41 -39 49h-28c-25 -8 -39 -22 -39 -51
s20 -43 53 -43zM140 746c-35 0 -50 -13 -50 -37s12 -35 36 -44h28c26 9 36 20 36 43c0 25 -15 38 -50 38z" />
    <glyph glyph-name="ninesuperior" unicode="&#x2079;" horiz-adv-x="280" 
d="M38 480l4 53s45 -7 82 -7c45 0 63 27 64 72c0 1 -33 -12 -61 -12c-65 0 -101 38 -101 104c0 71 45 110 110 110c81 0 118 -55 118 -167c0 -113 -37 -165 -124 -165c-41 0 -92 12 -92 12zM136 638c23 0 54 14 54 14c-1 61 -15 91 -52 91c-30 0 -48 -18 -48 -52
c0 -30 17 -53 46 -53z" />
    <glyph glyph-name="zeroinferior" unicode="&#x2080;" horiz-adv-x="280" 
d="M139 222c76 0 119 -41 119 -166c0 -126 -44 -166 -118 -166s-119 40 -119 166c0 125 44 166 118 166zM139 164c-35 0 -53 -27 -53 -108c0 -86 20 -108 54 -108s53 22 53 108c0 80 -16 108 -54 108z" />
    <glyph glyph-name="oneinferior" unicode="&#x2081;" horiz-adv-x="280" 
d="M46 142l101 70h60v-312h-64v242l-68 -47z" />
    <glyph glyph-name="twoinferior" unicode="&#x2082;" horiz-adv-x="280" 
d="M248 -100h-209v55l88 87c31 30 51 53 51 83c0 26 -20 37 -49 37s-85 -9 -85 -9l-2 57s59 12 103 12c69 0 99 -29 99 -91c0 -46 -19 -74 -61 -112l-63 -61h128v-58z" />
    <glyph glyph-name="threeinferior" unicode="&#x2083;" horiz-adv-x="280" 
d="M34 212c0 0 59 10 102 10c71 0 105 -26 105 -84c0 -49 -32 -69 -39 -73c30 -10 47 -26 47 -78c0 -66 -39 -97 -106 -97c-49 0 -113 10 -113 10l4 56s57 -8 100 -8c35 0 50 17 50 42c0 32 -19 43 -47 43h-65v53h65c18 0 38 19 38 44c0 23 -13 34 -45 34
c-43 0 -92 -7 -92 -7z" />
    <glyph glyph-name="fourinferior" unicode="&#x2084;" horiz-adv-x="280" 
d="M172 -100v48h-141v54l69 210h70l-73 -206h75l5 89h58v-89h27v-58h-27v-48h-63z" />
    <glyph glyph-name="fiveinferior" unicode="&#x2085;" horiz-adv-x="280" 
d="M46 212h187v-56h-136l-5 -73s30 15 58 15c55 0 93 -24 93 -98c0 -72 -36 -108 -106 -108c-47 0 -107 13 -107 13l5 52s55 -9 96 -9c32 0 47 17 47 50c0 34 -18 45 -40 45c-28 0 -52 -15 -52 -15l-50 6z" />
    <glyph glyph-name="sixinferior" unicode="&#x2086;" horiz-adv-x="280" 
d="M239 212l-4 -54s-50 7 -84 7c-41 0 -60 -23 -61 -74c0 -1 34 14 60 14c71 0 102 -37 102 -103c0 -70 -43 -112 -110 -112c-79 0 -116 56 -116 161c0 118 37 171 123 171c37 0 90 -10 90 -10zM142 51c-27 0 -52 -16 -52 -17c2 -55 15 -87 50 -87s48 24 48 54
c0 36 -14 50 -46 50z" />
    <glyph glyph-name="seveninferior" unicode="&#x2087;" horiz-adv-x="280" 
d="M38 150v62h206v-77l-105 -244l-69 13l102 225v21h-134z" />
    <glyph glyph-name="eightinferior" unicode="&#x2088;" horiz-adv-x="280" 
d="M139 222c75 0 113 -27 113 -85c0 -44 -17 -65 -43 -73c24 -7 48 -27 48 -75c0 -72 -45 -99 -118 -99c-71 0 -118 24 -118 95c0 50 25 70 48 80c-22 8 -43 26 -43 72c0 57 37 85 113 85zM139 -56c35 0 53 14 53 45c0 26 -13 41 -39 49h-28c-25 -8 -39 -22 -39 -51
s20 -43 53 -43zM139 168c-35 0 -50 -13 -50 -37s12 -35 36 -44h28c26 9 36 20 36 43c0 25 -15 38 -50 38z" />
    <glyph glyph-name="nineinferior" unicode="&#x2089;" horiz-adv-x="280" 
d="M36 -98l4 53s45 -7 82 -7c45 0 63 27 64 72c0 1 -33 -12 -61 -12c-65 0 -101 38 -101 104c0 71 45 110 110 110c81 0 118 -55 118 -167c0 -113 -37 -165 -124 -165c-41 0 -92 12 -92 12zM134 60c23 0 54 14 54 14c-1 61 -15 91 -52 91c-30 0 -48 -18 -48 -52
c0 -30 17 -53 46 -53z" />
    <glyph glyph-name="Euro" unicode="&#x20ac;" 
d="M30 378v61h64c15 152 74 231 237 231c68 0 140 -12 182 -21l-3 -62c-43 8 -120 17 -171 17c-115 0 -156 -53 -168 -165h286v-61h-290c-1 -16 -1 -33 -1 -50v-45h291v-61h-287c12 -112 52 -166 170 -166c54 0 125 9 170 18l3 -63c-47 -10 -119 -21 -182 -21
c-163 0 -222 82 -238 232h-63v61h60c-1 14 -1 29 -1 45c0 17 0 34 1 50h-60z" />
    <glyph glyph-name="trademark" unicode="&#x2122;" horiz-adv-x="677" 
d="M91 580v50h200v-50h-66v-248h-55v248h-79zM322 331v299h72l66 -208l71 208h70v-299h-52v224l-66 -209h-43l-66 209v-224h-52z" />
    <glyph glyph-name="Omega" unicode="&#x2126;" 
d="M45 57h123s-109 173 -109 319c0 196 48 295 221 295s221 -99 221 -295c0 -146 -110 -319 -110 -319h124v-66h-197v57s104 193 104 308c0 166 -19 246 -142 246c-125 0 -142 -80 -142 -246c0 -115 104 -308 104 -308v-57h-197v66z" />
    <glyph glyph-name="partialdiff" unicode="&#x2202;" 
d="M95 617l-4 61s85 50 175 50c160 0 234 -108 234 -367c0 -249 -67 -370 -231 -370c-141 0 -223 77 -223 224c0 132 78 215 210 215c80 0 164 -30 164 -30c-5 185 -47 262 -167 262c-73 0 -158 -45 -158 -45zM264 364c-92 0 -139 -62 -139 -149c0 -101 48 -158 144 -158
c106 0 151 90 152 277c0 0 -80 30 -157 30z" />
    <glyph glyph-name="Delta" unicode="&#x2206;" 
d="M53 57l159 603h135l159 -604v-56h-453v57zM292 595h-26l-136 -529h298z" />
    <glyph glyph-name="product" unicode="&#x220f;" 
d="M382 -163v849h-206v-849h-76v849h-70v68h500v-68h-71v-849h-77z" />
    <glyph glyph-name="summation" unicode="&#x2211;" 
d="M311 308l-267 346v99h470v-68h-390v-22l257 -329v-55l-257 -348v-25h390v-69h-470v101z" />
    <glyph glyph-name="minus" unicode="&#x2212;" 
d="M66 217v68h428v-68h-428z" />
    <glyph glyph-name="radical" unicode="&#x221a;" 
d="M4 378v68h122l128 -517h10l227 848h76l-248 -913h-122l-134 514h-59z" />
    <glyph glyph-name="infinity" unicode="&#x221e;" 
d="M155 121c-84 0 -125 62 -125 171s41 171 123 171c62 0 98 -37 127 -106c29 69 64 106 127 106c82 0 123 -62 123 -171s-41 -171 -125 -171c-61 0 -96 36 -125 104c-31 -80 -62 -104 -125 -104zM253 292c-23 51 -39 104 -91 104c-45 0 -60 -38 -60 -104
c0 -60 16 -104 60 -104c52 0 64 37 91 104zM307 292c23 -51 39 -104 91 -104c44 0 60 38 60 104s-15 104 -60 104c-52 0 -68 -53 -91 -104z" />
    <glyph glyph-name="integral" unicode="&#x222b;" 
d="M316 -6c0 -138 -48 -181 -136 -181c-36 0 -88 8 -88 8l3 64s39 -4 69 -4c56 0 76 28 76 114v581c0 155 44 204 136 204c42 0 92 -9 92 -9l-3 -64s-38 5 -74 5c-50 0 -75 -33 -75 -137v-581z" />
    <glyph glyph-name="approxequal" unicode="&#x2248;" 
d="M485 385l10 -61s-59 -54 -113 -54c-57 0 -159 62 -202 62c-40 0 -104 -47 -104 -47l-12 62s63 53 117 53c57 0 155 -61 202 -61c37 0 102 46 102 46zM485 200l10 -61s-59 -54 -113 -54c-57 0 -159 62 -202 62c-40 0 -104 -47 -104 -47l-12 62s63 53 117 53
c57 0 155 -61 202 -61c37 0 102 46 102 46z" />
    <glyph glyph-name="notequal" unicode="&#x2260;" 
d="M64 309v69h240l68 155l60 -24l-58 -131h122v-69h-152l-50 -116h202v-69h-232l-66 -152l-61 24l56 128h-129v69h159l51 116h-210z" />
    <glyph glyph-name="lessequal" unicode="&#x2264;" 
d="M488 422l-335 -102l335 -110v-76l-423 150v68l423 145v-75zM65 22v68h423v-68h-423z" />
    <glyph glyph-name="greaterequal" unicode="&#x2265;" 
d="M406 320l-335 102v75l423 -145v-68l-423 -150v76zM494 90v-68h-423v68h423z" />
    <glyph glyph-name="lozenge" unicode="&#x25ca;" 
d="M428 329l-100 67h10l168 -67l-168 -65h-9zM54 329l168 67h9l-99 -67l98 -65h-8zM291 239h-23l-38 25h99zM231 396l37 25h23l37 -25h-97z" />
    <glyph glyph-name="dotlessj" unicode="&#xf6be;" horiz-adv-x="219" 
d="M73 13v487h74v-488c0 -123 -33 -167 -166 -235l-30 58c101 59 122 85 122 178z" />
    <glyph glyph-name="commaaccent" unicode="&#xf6c3;" horiz-adv-x="170" 
d="M23 -285l41 207h74l-50 -207h-65z" />
    <glyph glyph-name=".null" horiz-adv-x="0" 
 />
    <glyph glyph-name="CR" horiz-adv-x="235" 
 />
    <glyph glyph-name="DLE" horiz-adv-x="0" 
 />
    <glyph glyph-name="zero.pnum" horiz-adv-x="532" 
d="M265 509c132 0 213 -58 213 -267c0 -197 -86 -251 -212 -251c-122 0 -213 54 -213 252c0 202 86 266 212 266zM266 444c-85 0 -142 -36 -142 -200c0 -151 57 -188 142 -188c89 0 141 37 141 186c0 166 -52 202 -141 202z" />
    <glyph glyph-name="one.pnum" horiz-adv-x="354" 
d="M26 386l189 114h63v-500h-71v419l-152 -90z" />
    <glyph glyph-name="two.pnum" horiz-adv-x="473" 
d="M423 0h-371v63l172 141c78 62 112 99 112 154c0 63 -35 84 -122 84c-47 0 -157 -17 -157 -18l-5 64s107 21 181 21c110 0 178 -40 178 -143c0 -83 -42 -126 -112 -180l-150 -121h274v-65z" />
    <glyph glyph-name="three.pnum" horiz-adv-x="483" 
d="M57 492c0 0 104 18 180 18c112 0 179 -32 179 -125c0 -86 -71 -111 -84 -118c47 -15 99 -43 99 -126c0 -103 -75 -150 -187 -150c-83 0 -194 20 -194 20l9 64s104 -15 185 -15c78 1 116 27 116 85c0 67 -57 81 -114 84h-126v63h125c48 2 100 21 100 79
c0 55 -39 72 -107 72c-81 0 -174 -15 -174 -15z" />
    <glyph glyph-name="four.pnum" horiz-adv-x="473" 
d="M314 -20v113h-278v55l156 352h74l-152 -339h200v133h71v-133h53v-68h-53v-113h-71z" />
    <glyph glyph-name="five.pnum" horiz-adv-x="490" 
d="M79 502h344v-72h-279l-14 -144s68 31 130 31c113 0 183 -46 183 -153c0 -112 -70 -173 -188 -173c-81 0 -201 24 -201 24l9 64s119 -20 190 -20c69 0 113 30 113 101c0 67 -44 91 -113 91c-58 0 -138 -35 -138 -35l-54 12z" />
    <glyph glyph-name="six.pnum" horiz-adv-x="493" 
d="M420 494l-5 -60s-88 12 -152 12c-83 0 -140 -39 -140 -166c39 18 100 37 146 37c115 0 179 -50 179 -160c0 -108 -76 -167 -201 -167s-194 79 -194 264c0 190 88 255 210 255c76 0 157 -15 157 -15zM259 251c-58 0 -136 -31 -136 -31c2 -111 44 -167 128 -167
c78 0 126 31 126 104c0 67 -37 94 -118 94z" />
    <glyph glyph-name="seven.pnum" horiz-adv-x="411" 
d="M35 437v64h343v-85l-213 -425l-62 18l207 408v20h-275z" />
    <glyph glyph-name="eight.pnum" horiz-adv-x="508" 
d="M253 509c117 0 193 -38 193 -132c0 -64 -35 -95 -89 -115c54 -21 98 -47 98 -128c0 -109 -84 -144 -202 -144c-116 0 -200 37 -200 140c0 81 42 108 94 132c-49 20 -84 51 -84 116c0 94 72 131 190 131zM253 52c79 0 131 17 131 87c0 62 -38 77 -92 91h-83
c-54 -14 -85 -37 -85 -95c0 -65 53 -83 129 -83zM253 447c-79 0 -119 -21 -119 -74c0 -50 25 -70 75 -85h83c53 13 83 34 83 84c0 54 -43 75 -122 75z" />
    <glyph glyph-name="nine.pnum" horiz-adv-x="486" 
d="M66 9l6 60s81 -14 151 -14c84 0 137 45 137 167c0 0 -69 -34 -136 -34c-119 0 -178 57 -178 155c0 106 74 167 189 167c128 0 198 -82 198 -259c0 -193 -86 -260 -210 -260c-78 0 -157 18 -157 18zM229 251c64 0 130 33 130 33c-3 108 -40 163 -126 163
c-77 0 -116 -32 -116 -103c0 -59 36 -93 112 -93z" />
    <glyph glyph-name="questiondown.cap" horiz-adv-x="438" 
d="M36 151c0 86 15 116 93 181c59 49 89 80 89 125v35h63s13 -27 13 -61c0 -49 -40 -88 -93 -133c-72 -62 -89 -85 -89 -141c0 -71 43 -98 133 -98c56 0 155 23 155 23l5 -61s-101 -30 -167 -30c-134 0 -202 44 -202 160zM292 692v-112h-82v112h82z" />
    <glyph glyph-name="endash.cap" horiz-adv-x="633" 
d="M67 331h500v-66h-500v66z" />
    <glyph glyph-name="emdash.cap" horiz-adv-x="1133" 
d="M67 331h1000v-66h-1000v66z" />
    <glyph glyph-name="periodcentered.cap" horiz-adv-x="216" 
d="M67 278v114h82v-114h-82z" />
    <glyph glyph-name="exclamdown.cap" horiz-adv-x="247" 
d="M164 692v-112h-82v112h82zM158 464l5 -464h-79l5 464h69z" />
    <glyph glyph-name="parenleft.cap" horiz-adv-x="264" 
d="M155 780h72s-95 -256 -95 -449c0 -191 95 -426 95 -426h-72s-104 210 -104 426s104 449 104 449z" />
    <glyph glyph-name="parenright.cap" horiz-adv-x="264" 
d="M109 -90h-72s95 256 95 449c0 191 -95 426 -95 426h72s104 -210 104 -426s-104 -449 -104 -449z" />
    <glyph glyph-name="bracketleft.cap" horiz-adv-x="329" 
d="M289 779v-67h-134v-738h134v-67h-210v872h210z" />
    <glyph glyph-name="bracketright.cap" horiz-adv-x="329" 
d="M40 712v67h210v-872h-210v67h134v738h-134z" />
    <glyph glyph-name="braceleft.cap" horiz-adv-x="352" 
d="M205 200c-1 -35 -7 -80 -7 -116c0 -69 22 -112 115 -117l-2 -65c-136 5 -186 56 -186 175c0 39 7 97 7 122c0 57 -31 91 -107 112v61c77 18 107 52 107 109c0 28 -7 91 -7 128c0 123 51 171 187 176l1 -65c-92 -5 -115 -45 -115 -115c0 -33 7 -94 7 -123
c0 -85 -22 -116 -105 -140c83 -24 105 -59 105 -142z" />
    <glyph glyph-name="braceright.cap" horiz-adv-x="352" 
d="M147 485c1 35 7 80 7 116c0 69 -22 112 -115 117l2 65c136 -5 186 -56 186 -175c0 -39 -7 -97 -7 -122c0 -57 31 -91 107 -112v-61c-77 -18 -107 -52 -107 -109c0 -28 7 -91 7 -128c0 -123 -51 -171 -187 -176l-1 65c92 5 115 45 115 115c0 33 -7 94 -7 123
c0 85 22 116 105 140c-83 24 -105 59 -105 142z" />
    <glyph glyph-name="grave.cap" horiz-adv-x="236" 
d="M36 931l216 -100l-23 -53l-219 87z" />
    <glyph glyph-name="acute.cap" horiz-adv-x="236" 
d="M12 831l216 100l26 -66l-219 -87z" />
    <glyph glyph-name="circumflex.cap" horiz-adv-x="462" 
d="M54 791l134 135h65l134 -135h-84l-82 80l-83 -80h-84z" />
    <glyph glyph-name="caron.cap" horiz-adv-x="236" 
d="M99 791l-134 135h84l83 -80l82 80h84l-134 -135h-65z" />
    <glyph glyph-name="tilde.cap" horiz-adv-x="236" 
d="M290 915l18 -56s-44 -56 -84 -56c-47 0 -131 54 -163 54c-24 0 -73 -48 -73 -48l-17 56s48 58 89 58c50 0 132 -54 162 -54c21 0 68 46 68 46z" />
    <glyph glyph-name="dieresis.cap" horiz-adv-x="236" 
d="M-22 808v90h73v-90h-73zM182 808v90h72v-90h-72z" />
    <glyph glyph-name="macron.cap" horiz-adv-x="236" 
d="M-22 812v58h311v-58h-311z" />
    <glyph glyph-name="breve.cap" horiz-adv-x="236" 
d="M-21 918h69c2 -45 40 -75 88 -75c49 0 87 30 88 75h70c-4 -78 -65 -131 -158 -131s-153 53 -157 131z" />
    <glyph glyph-name="ring.cap" horiz-adv-x="236" 
d="M250 782c0 -68 -51 -106 -118 -106c-68 0 -119 38 -119 106c0 67 51 105 119 105c67 0 118 -38 118 -105zM70 782c0 -34 23 -54 62 -54c38 0 62 20 62 54s-24 53 -62 53c-39 0 -62 -19 -62 -53z" />
    <glyph glyph-name="hungarumlaut.cap" horiz-adv-x="236" 
d="M157 785l142 131l55 -35l-146 -129zM-40 785l142 132l54 -35l-145 -129z" />
    <glyph glyph-name="dotaccent.cap" horiz-adv-x="236" 
d="M81 801v87h74v-87h-74z" />
    <glyph glyph-name="zero.numr" horiz-adv-x="280" 
d="M139 700c76 0 119 -41 119 -166c0 -126 -44 -166 -118 -166s-119 40 -119 166c0 125 44 166 118 166zM139 642c-35 0 -53 -27 -53 -108c0 -86 20 -108 54 -108s53 22 53 108c0 80 -16 108 -54 108z" />
    <glyph glyph-name="one.numr" horiz-adv-x="280" 
d="M41 620l101 70h60v-312h-64v242l-68 -47z" />
    <glyph glyph-name="two.numr" horiz-adv-x="280" 
d="M243 378h-209v55l88 87c31 30 51 53 51 83c0 26 -20 37 -49 37s-85 -9 -85 -9l-2 57s59 12 103 12c69 0 99 -29 99 -91c0 -46 -19 -74 -61 -112l-63 -61h128v-58z" />
    <glyph glyph-name="three.numr" horiz-adv-x="280" 
d="M37 690c0 0 59 10 102 10c71 0 105 -26 105 -84c0 -49 -32 -69 -39 -73c30 -10 47 -26 47 -78c0 -66 -39 -97 -106 -97c-49 0 -113 10 -113 10l4 56s57 -8 100 -8c35 0 50 17 50 42c0 32 -19 43 -47 43h-65v53h65c18 0 38 19 38 44c0 23 -13 34 -45 34
c-43 0 -92 -7 -92 -7z" />
    <glyph glyph-name="four.numr" horiz-adv-x="280" 
d="M165 378v48h-141v54l69 210h70l-73 -206h75l5 89h58v-89h27v-58h-27v-48h-63z" />
    <glyph glyph-name="five.numr" horiz-adv-x="280" 
d="M53 690h187v-56h-136l-5 -73s30 15 58 15c55 0 93 -24 93 -98c0 -72 -36 -108 -106 -108c-47 0 -107 13 -107 13l5 52s55 -9 96 -9c32 0 47 17 47 50c0 34 -18 45 -40 45c-28 0 -52 -15 -52 -15l-50 6z" />
    <glyph glyph-name="six.numr" horiz-adv-x="280" 
d="M241 690l-4 -54s-50 7 -84 7c-41 0 -60 -23 -61 -74c0 -1 34 14 60 14c71 0 102 -37 102 -103c0 -70 -43 -112 -110 -112c-79 0 -116 56 -116 161c0 118 37 171 123 171c37 0 90 -10 90 -10zM144 529c-27 0 -52 -16 -52 -17c2 -55 15 -87 50 -87s48 24 48 54
c0 36 -14 50 -46 50z" />
    <glyph glyph-name="seven.numr" horiz-adv-x="280" 
d="M40 628v62h206v-77l-105 -244l-69 13l102 225v21h-134z" />
    <glyph glyph-name="eight.numr" horiz-adv-x="280" 
d="M140 700c75 0 113 -27 113 -85c0 -44 -17 -65 -43 -73c24 -7 48 -27 48 -75c0 -72 -45 -99 -118 -99c-71 0 -118 24 -118 95c0 50 25 70 48 80c-22 8 -43 26 -43 72c0 57 37 85 113 85zM140 422c35 0 53 14 53 45c0 26 -13 41 -39 49h-28c-25 -8 -39 -22 -39 -51
s20 -43 53 -43zM140 646c-35 0 -50 -13 -50 -37s12 -35 36 -44h28c26 9 36 20 36 43c0 25 -15 38 -50 38z" />
    <glyph glyph-name="nine.numr" horiz-adv-x="280" 
d="M40 380l4 53s45 -7 82 -7c45 0 63 27 64 72c0 1 -33 -12 -61 -12c-65 0 -101 38 -101 104c0 71 45 110 110 110c81 0 118 -55 118 -167c0 -113 -37 -165 -124 -165c-41 0 -92 12 -92 12zM138 538c23 0 54 14 54 14c-1 61 -15 91 -52 91c-30 0 -48 -18 -48 -52
c0 -30 17 -53 46 -53z" />
    <glyph glyph-name="zero.slash" 
d="M253 280v96h62v-96h-62zM279 671c156 0 241 -79 241 -351c0 -253 -89 -330 -240 -330s-241 75 -241 329c0 272 88 352 240 352zM280 602c-108 0 -161 -58 -161 -283c0 -207 57 -261 161 -261s161 55 161 262c0 222 -51 282 -161 282z" />
    <glyph glyph-name="at.cap" horiz-adv-x="972" 
d="M931 360v-13c0 -257 -68 -298 -175 -298c-100 0 -118 60 -118 60s-98 -59 -174 -59c-86 0 -176 32 -176 251c0 168 47 259 203 259c49 0 115 -26 115 -26v16h75v-191c0 -224 5 -247 77 -247c59 0 97 20 97 235v14c0 244 -99 351 -353 351c-253 0 -377 -117 -377 -396
c0 -296 114 -398 377 -398c44 0 143 10 143 10l3 -67s-94 -9 -146 -9c-296 0 -453 103 -453 464c0 330 165 462 453 462c301 0 429 -138 429 -418zM469 116c53 0 137 42 146 46c-2 12 -9 96 -9 173v139s-60 20 -103 20c-114 0 -139 -67 -139 -195c0 -155 54 -183 105 -183z
" />
    <glyph glyph-name="zero.dnom" horiz-adv-x="280" 
d="M139 322c76 0 119 -41 119 -166c0 -126 -44 -166 -118 -166s-119 40 -119 166c0 125 44 166 118 166zM139 264c-35 0 -53 -27 -53 -108c0 -86 20 -108 54 -108s53 22 53 108c0 80 -16 108 -54 108z" />
    <glyph glyph-name="one.dnom" horiz-adv-x="280" 
d="M43 242l101 70h60v-312h-64v242l-68 -47z" />
    <glyph glyph-name="two.dnom" horiz-adv-x="280" 
d="M247 0h-209v55l88 87c31 30 51 53 51 83c0 26 -20 37 -49 37s-85 -9 -85 -9l-2 57s59 12 103 12c69 0 99 -29 99 -91c0 -46 -19 -74 -61 -112l-63 -61h128v-58z" />
    <glyph glyph-name="three.dnom" horiz-adv-x="280" 
d="M37 312c0 0 59 10 102 10c71 0 105 -26 105 -84c0 -49 -32 -69 -39 -73c30 -10 47 -26 47 -78c0 -66 -39 -97 -106 -97c-49 0 -113 10 -113 10l4 56s57 -8 100 -8c35 0 50 17 50 42c0 32 -19 43 -47 43h-65v53h65c18 0 38 19 38 44c0 23 -13 34 -45 34
c-43 0 -92 -7 -92 -7z" />
    <glyph glyph-name="four.dnom" horiz-adv-x="280" 
d="M166 0v48h-141v54l69 210h70l-73 -206h75l5 89h58v-89h27v-58h-27v-48h-63z" />
    <glyph glyph-name="five.dnom" horiz-adv-x="280" 
d="M49 312h187v-56h-136l-5 -73s30 15 58 15c55 0 93 -24 93 -98c0 -72 -36 -108 -106 -108c-47 0 -107 13 -107 13l5 52s55 -9 96 -9c32 0 47 17 47 50c0 34 -18 45 -40 45c-28 0 -52 -15 -52 -15l-50 6z" />
    <glyph glyph-name="six.dnom" horiz-adv-x="280" 
d="M237 312l-4 -54s-50 7 -84 7c-41 0 -60 -23 -61 -74c0 -1 34 14 60 14c71 0 102 -37 102 -103c0 -70 -43 -112 -110 -112c-79 0 -116 56 -116 161c0 118 37 171 123 171c37 0 90 -10 90 -10zM140 151c-27 0 -52 -16 -52 -17c2 -55 15 -87 50 -87s48 24 48 54
c0 36 -14 50 -46 50z" />
    <glyph glyph-name="seven.dnom" horiz-adv-x="280" 
d="M40 250v62h206v-77l-105 -244l-69 13l102 225v21h-134z" />
    <glyph glyph-name="eight.dnom" horiz-adv-x="280" 
d="M140 322c75 0 113 -27 113 -85c0 -44 -17 -65 -43 -73c24 -7 48 -27 48 -75c0 -72 -45 -99 -118 -99c-71 0 -118 24 -118 95c0 50 25 70 48 80c-22 8 -43 26 -43 72c0 57 37 85 113 85zM140 44c35 0 53 14 53 45c0 26 -13 41 -39 49h-28c-25 -8 -39 -22 -39 -51
s20 -43 53 -43zM140 268c-35 0 -50 -13 -50 -37s12 -35 36 -44h28c26 9 36 20 36 43c0 25 -15 38 -50 38z" />
    <glyph glyph-name="nine.dnom" horiz-adv-x="280" 
d="M37 2l4 53s45 -7 82 -7c45 0 63 27 64 72c0 1 -33 -12 -61 -12c-65 0 -101 38 -101 104c0 71 45 110 110 110c81 0 118 -55 118 -167c0 -113 -37 -165 -124 -165c-41 0 -92 12 -92 12zM135 160c23 0 54 14 54 14c-1 61 -15 91 -52 91c-30 0 -48 -18 -48 -52
c0 -30 17 -53 46 -53z" />
    <glyph glyph-name="hyphen.cap" horiz-adv-x="438" 
d="M68 270v70h303v-70h-303z" />
    </font>
</defs>
</svg>
