<?xml version="1.0" standalone="no"?>
<!DOCTYPE svg PUBLIC "-//W3C//DTD SVG 1.1//EN" "http://www.w3.org/Graphics/SVG/1.1/DTD/svg11.dtd" >
<svg version="1.1" xmlns="http://www.w3.org/2000/svg">
<metadata>
Created by FontForge 20120731 at Fri Aug  1 16:50:39 2014

Copyright (c) 2009-2011 by Accademia di Belle Arti di Urbino and students of MA course of Visual design. Some rights reserved.
</metadata>
<defs>
<font id="titillium" horiz-adv-x="560" >
  <font-face 
    font-family="Titillium"
    font-weight="400"
    font-style="italic"
    font-stretch="normal"
    units-per-em="1000"
    panose-1="0 0 5 0 0 0 0 0 0 0"
    ascent="750"
    descent="-250"
    x-height="500"
    cap-height="692"
    bbox="-154 -283 1115 1083"
    underline-thickness="30"
    underline-position="-70"
    slope="-13"
    stemh="67"
    stemv="77"
    unicode-range="U+0020-F6C3"
  />
<missing-glyph horiz-adv-x="223" 
 />
    <glyph glyph-name=".notdef" horiz-adv-x="223" 
 />
    <glyph glyph-name="space" unicode=" " horiz-adv-x="220" 
 />
    <glyph glyph-name="exclam" unicode="!" horiz-adv-x="189" 
d="M112 230l106 470h77l-116 -470h-67zM59 0l25 111h76l-25 -111h-76z" />
    <glyph glyph-name="quotedbl" unicode="&#x22;" horiz-adv-x="313" 
d="M303 466h-82l52 228h87z" />
    <glyph glyph-name="numbersign" unicode="#" 
d="M574 180h-110l-44 -180h-68l44 180h-155l-44 -180h-68l44 180h-110l16 64h110l44 178h-110l16 64h110l46 180h68l-46 -180h155l45 180h68l-45 -180h110l-16 -64h-110l-44 -178h110zM412 244l44 178h-155l-44 -178h155z" />
    <glyph glyph-name="dollar" unicode="$" 
d="M605 645l-12 -55s-51 8 -103 13l-93 -237c91 -33 127 -64 127 -147c0 -143 -94 -229 -237 -229c-13 0 -26 1 -38 2l-44 -112h-53l45 116c-57 7 -102 19 -102 19l12 58s57 -9 115 -15l102 259c-83 30 -128 62 -128 145c0 132 92 210 231 210c12 0 24 0 36 -1l44 111h54
l-47 -117c52 -8 91 -20 91 -20zM448 212c0 47 -18 65 -77 88l-97 -245h16c100 0 158 57 158 157zM270 468c0 -45 22 -62 80 -85l88 224h-14c-94 0 -154 -47 -154 -139z" />
    <glyph glyph-name="percent" unicode="%" 
d="M295 650c38 0 43 -28 28 -87s-34 -90 -72 -90c-36 0 -42 32 -27 91c15 58 35 86 71 86zM155 6l360 703l50 -15l-359 -703zM164 564c-24 -97 7 -142 75 -142c66 0 120 45 144 141c24 97 -7 139 -75 139s-120 -42 -144 -138zM340 142c24 96 76 138 144 138
c67 0 100 -42 76 -139c-24 -96 -78 -141 -145 -141s-99 45 -75 142zM400 142c-15 -60 -10 -91 27 -91s57 31 72 90s9 87 -28 87c-36 0 -56 -28 -71 -86z" />
    <glyph glyph-name="ampersand" unicode="&#x26;" horiz-adv-x="635" 
d="M443 702c88 0 143 -36 143 -123c0 -103 -64 -167 -197 -218l111 -152c20 32 45 87 59 135h72c-19 -66 -58 -143 -89 -187l93 -118l-52 -46l-88 113c-63 -75 -136 -116 -231 -116c-137 0 -189 58 -189 160c0 133 63 205 206 259c-18 34 -27 59 -27 99
c0 124 74 194 189 194zM275 56c68 0 136 38 181 100l-146 204c-119 -46 -157 -108 -157 -203c0 -73 47 -101 122 -101zM331 506c0 -39 10 -71 29 -99c110 46 149 92 149 168c0 44 -25 63 -69 63c-74 0 -109 -57 -109 -132z" />
    <glyph glyph-name="quotesingle" unicode="'" horiz-adv-x="162" 
d="M220 466h-66l52 228h71z" />
    <glyph glyph-name="parenleft" unicode="(" horiz-adv-x="227" 
d="M307 748h71s-220 -333 -220 -635c0 -141 15 -237 15 -237h-71s-21 87 -21 237c0 325 226 635 226 635z" />
    <glyph glyph-name="parenright" unicode=")" horiz-adv-x="227" 
d="M65 -118h-71s220 333 220 635c0 141 -15 237 -15 237h71s21 -87 21 -237c0 -325 -226 -635 -226 -635z" />
    <glyph glyph-name="asterisk" unicode="*" horiz-adv-x="413" 
d="M492 511h-131l40 -125l-48 -15l-42 126l-107 -79l-30 40l108 79l-106 77l30 42l107 -78l40 126l50 -16l-41 -127h130v-50z" />
    <glyph glyph-name="plus" unicode="+" 
d="M113 217v68h189v195h69v-195h191v-68h-191v-197h-69v197h-189z" />
    <glyph glyph-name="comma" unicode="," horiz-adv-x="183" 
d="M49 -129h-61l98 240h83z" />
    <glyph glyph-name="hyphen" unicode="-" horiz-adv-x="337" 
d="M98 233l17 69h247l-17 -69h-247z" />
    <glyph glyph-name="period" unicode="." horiz-adv-x="168" 
d="M46 0l26 111h76l-26 -111h-76z" />
    <glyph glyph-name="slash" unicode="/" horiz-adv-x="419" 
d="M112 -10l-70 25l427 692l70 -26z" />
    <glyph glyph-name="zero" unicode="0" 
d="M410 671c135 0 200 -69 200 -196c0 -251 -118 -485 -310 -485c-131 0 -198 67 -198 192c0 240 111 489 308 489zM409 604c-155 0 -229 -250 -229 -413c0 -92 42 -134 120 -134c152 0 232 233 232 410c0 90 -39 137 -123 137z" />
    <glyph glyph-name="one" unicode="1" 
d="M231 526l240 135h66l-151 -661h-76l130 568l-189 -104z" />
    <glyph glyph-name="two" unicode="2" 
d="M490 0h-423l15 63l256 215c110 92 184 161 184 234c0 68 -42 92 -126 92c-76 0 -181 -21 -181 -21l8 59s100 29 189 29c124 0 188 -45 188 -145c0 -110 -80 -186 -182 -267l-241 -192h329z" />
    <glyph glyph-name="three" unicode="3" 
d="M214 585l7 56s96 30 194 30c123 0 178 -46 178 -136c0 -96 -54 -151 -135 -184c49 -23 79 -56 79 -133c0 -142 -117 -228 -270 -228c-96 0 -195 34 -195 34l17 57s108 -24 184 -24c101 0 186 59 186 157c0 58 -32 94 -116 95h-129l15 61l130 2c64 1 156 60 156 144
c0 61 -35 88 -115 88c-88 0 -186 -19 -186 -19z" />
    <glyph glyph-name="four" unicode="4" 
d="M359 -2l29 126h-311l14 57l314 479h85l-317 -471h230l50 216h76l-50 -216h80l-16 -65h-79l-29 -126h-76z" />
    <glyph glyph-name="five" unicode="5" 
d="M253 660h377l-15 -67h-314l-74 -222s91 43 158 43c106 0 171 -44 171 -146c0 -157 -120 -277 -274 -277c-101 0 -212 34 -212 34l19 61s112 -28 190 -28c111 0 199 89 199 198c0 60 -38 91 -115 91c-70 0 -155 -42 -155 -42l-60 12z" />
    <glyph glyph-name="six" unicode="6" 
d="M633 651l-23 -63s-80 16 -158 16c-138 0 -206 -125 -238 -233c0 0 92 43 179 43c122 0 176 -62 176 -160c0 -156 -96 -264 -266 -264c-120 0 -191 77 -191 227c0 185 113 454 358 454c78 0 163 -20 163 -20zM371 347c-83 0 -170 -40 -170 -40c-5 -18 -10 -57 -10 -92
c0 -92 35 -158 115 -158c123 0 185 80 185 183c0 73 -36 107 -120 107z" />
    <glyph glyph-name="seven" unicode="7" 
d="M216 592l16 68h398l-27 -114l-387 -559l-70 23l383 546l8 36h-321z" />
    <glyph glyph-name="eight" unicode="8" 
d="M440 671c138 0 199 -54 199 -133c0 -85 -55 -160 -156 -193c74 -31 88 -77 88 -126c0 -80 -68 -230 -301 -230c-124 0 -204 41 -204 143c0 114 84 178 164 213c-60 34 -72 64 -72 112c0 101 83 214 282 214zM287 56c146 0 204 96 204 154c0 61 -32 79 -94 98h-100
c-70 -20 -148 -67 -148 -163c0 -58 45 -89 138 -89zM423 604c-135 0 -187 -74 -187 -141c0 -40 18 -67 77 -90h100c52 15 143 62 143 140c0 60 -39 91 -133 91z" />
    <glyph glyph-name="nine" unicode="9" 
d="M78 11l26 67s72 -17 150 -17c113 0 201 72 240 224c0 0 -119 -36 -185 -36c-121 0 -182 60 -162 192c21 123 124 230 280 230c143 0 191 -115 158 -309c-38 -264 -180 -372 -349 -372c-74 0 -158 21 -158 21zM333 318c65 0 179 32 179 32c34 151 8 250 -102 250
c-90 0 -170 -58 -186 -155c-17 -90 22 -127 109 -127z" />
    <glyph glyph-name="colon" unicode=":" horiz-adv-x="171" 
d="M123 330l26 111h76l-26 -111h-76zM47 0l26 111h76l-26 -111h-76z" />
    <glyph glyph-name="semicolon" unicode=";" horiz-adv-x="201" 
d="M-2 -129h61l120 240h-83zM142 330l26 111h76l-26 -111h-76z" />
    <glyph glyph-name="less" unicode="&#x3c;" 
d="M523 409l-339 -157l339 -160v-79l-417 205v66l417 203v-78z" />
    <glyph glyph-name="equal" unicode="=" 
d="M122 309v69h432v-69h-432zM122 124v69h432v-69h-432z" />
    <glyph glyph-name="greater" unicode="&#x3e;" 
d="M490 252l-339 157v78l417 -203v-66l-417 -205v79z" />
    <glyph glyph-name="question" unicode="?" horiz-adv-x="414" 
d="M504 571c0 -99 -39 -138 -164 -235c-48 -37 -72 -70 -78 -101l-8 -39h-71s1 33 7 62c8 44 41 84 101 130c99 78 133 110 133 178c0 52 -39 68 -101 68c-60 0 -144 -18 -144 -18l6 61s88 25 154 25c96 0 165 -36 165 -131zM141 1l25 116h77l-26 -116h-76z" />
    <glyph glyph-name="at" unicode="@" horiz-adv-x="933" 
d="M639 721c326 0 379 -194 324 -424c-62 -256 -131 -307 -239 -307c-54 0 -89 15 -98 56c-40 -20 -130 -56 -191 -56c-138 -1 -132 134 -116 226c34 185 114 294 254 294c39 0 126 -13 195 -25c-11 -45 -79 -331 -81 -382c-1 -36 19 -42 53 -42c60 0 105 38 154 246
c45 192 23 348 -268 348c-250 0 -381 -116 -448 -390c-51 -214 -12 -400 281 -400c37 0 136 9 136 9l-13 -66s-96 -9 -141 -9c-344 0 -388 246 -336 466c79 334 241 456 534 456zM453 57c54 0 122 31 160 52c3 34 42 212 69 322c-26 6 -74 14 -112 14
c-100 0 -146 -91 -176 -230c-17 -79 -13 -157 59 -158z" />
    <glyph glyph-name="A" unicode="A" horiz-adv-x="554" 
d="M24 0l345 692h149l14 -692h-76l-6 177h-259l-89 -177h-78zM414 624l-191 -380h228l-7 380h-30z" />
    <glyph glyph-name="B" unicode="B" horiz-adv-x="577" 
d="M237 692h223c108 0 166 -38 166 -136c0 -103 -58 -167 -129 -198c56 -22 84 -57 84 -119c0 -142 -92 -239 -265 -239h-238zM386 320h-158l-58 -253h162c107 0 169 67 169 170c0 65 -49 83 -115 83zM447 625h-149l-55 -239h154c90 0 151 70 151 159c0 60 -31 80 -101 80z
" />
    <glyph glyph-name="C" unicode="C" horiz-adv-x="504" 
d="M478 75l-5 -63s-89 -22 -168 -22c-130 0 -193 69 -193 198c0 212 103 514 349 514c79 0 166 -23 166 -23l-17 -60s-77 15 -153 15c-174 0 -265 -247 -265 -442c0 -89 37 -134 123 -134c80 0 163 17 163 17z" />
    <glyph glyph-name="D" unicode="D" horiz-adv-x="607" 
d="M317 0h-239l160 692h222c122 0 192 -58 192 -206c0 -211 -104 -486 -335 -486zM572 486c0 98 -38 138 -127 138h-147l-127 -556h157c165 0 244 256 244 418z" />
    <glyph glyph-name="E" unicode="E" horiz-adv-x="505" 
d="M78 0l159 692h386l-16 -68h-309l-55 -238h254l-16 -68h-253l-58 -250h309l-15 -68h-386z" />
    <glyph glyph-name="F" unicode="F" horiz-adv-x="482" 
d="M78 0l160 692h377l-16 -68h-301l-62 -273h256l-16 -67h-256l-66 -284h-76z" />
    <glyph glyph-name="G" unicode="G" horiz-adv-x="572" 
d="M398 293l15 66h182l-80 -342s-88 -27 -193 -27c-135 0 -209 63 -209 196c0 245 110 516 356 516c101 0 199 -31 199 -31l-19 -58s-100 21 -190 21c-186 0 -266 -261 -266 -449c0 -89 50 -127 137 -127c56 0 121 15 121 15l52 220h-105z" />
    <glyph glyph-name="H" unicode="H" horiz-adv-x="624" 
d="M469 0l73 316h-315l-73 -316h-76l160 692h76l-71 -309h315l71 309h77l-160 -692h-77z" />
    <glyph glyph-name="I" unicode="I" horiz-adv-x="232" 
d="M78 0l160 692h76l-160 -692h-76z" />
    <glyph glyph-name="J" unicode="J" horiz-adv-x="265" 
d="M350 692l-132 -574c-37 -160 -59 -188 -211 -188l12 68c83 0 98 16 123 126l132 568h76z" />
    <glyph glyph-name="K" unicode="K" horiz-adv-x="521" 
d="M422 0l-98 307l-100 -3l-70 -304h-76l160 692h76l-74 -320l91 3l245 317h86l-269 -349l110 -343h-81z" />
    <glyph glyph-name="L" unicode="L" horiz-adv-x="433" 
d="M427 0h-349l160 692h76l-144 -624h272z" />
    <glyph glyph-name="M" unicode="M" horiz-adv-x="780" 
d="M78 0l160 692h129l44 -586l320 586h131l-160 -692h-76l145 624h-11l-326 -599h-80l-46 599h-10l-144 -624h-76z" />
    <glyph glyph-name="N" unicode="N" horiz-adv-x="631" 
d="M78 0l160 692h136l104 -613h19l141 613h75l-160 -692h-131l-108 617h-20l-143 -617h-73z" />
    <glyph glyph-name="O" unicode="O" horiz-adv-x="628" 
d="M335 58c45 0 84 14 116 40c96 79 141 255 141 392c0 100 -42 144 -141 144c-41 0 -78 -12 -109 -37c-99 -81 -149 -267 -149 -395c0 -105 38 -144 142 -144zM326 -10c-145 0 -212 58 -212 207c0 164 54 338 159 433c50 46 112 72 184 72c139 0 215 -63 215 -207
c0 -170 -53 -351 -166 -444c-48 -39 -111 -61 -180 -61z" />
    <glyph glyph-name="P" unicode="P" horiz-adv-x="547" 
d="M359 232h-151l-54 -232h-76l160 692h218c120 0 171 -54 171 -164c0 -173 -95 -296 -268 -296zM224 300h147c119 0 176 103 176 227c0 64 -27 97 -100 97h-149z" />
    <glyph glyph-name="Q" unicode="Q" horiz-adv-x="628" 
d="M326 -10c-145 0 -212 58 -212 207c0 164 54 338 159 433c50 46 112 72 184 72c139 0 215 -63 215 -207c0 -170 -53 -351 -166 -444c-14 -12 -30 -22 -46 -30l48 -142l-73 -24l-45 142c-20 -4 -42 -7 -64 -7zM335 58c45 0 84 14 116 40c96 79 141 255 141 392
c0 100 -42 144 -141 144c-41 0 -78 -12 -109 -37c-99 -81 -149 -267 -149 -395c0 -105 38 -144 142 -144z" />
    <glyph glyph-name="R" unicode="R" horiz-adv-x="564" 
d="M450 0l-71 259h-164l-61 -259h-76l160 692h211c118 0 180 -45 180 -167c0 -158 -98 -234 -178 -256l76 -269h-77zM549 523c0 75 -32 102 -108 102h-142l-69 -299h147c105 0 172 83 172 197z" />
    <glyph glyph-name="S" unicode="S" horiz-adv-x="499" 
d="M590 674l-13 -57s-106 18 -176 18c-99 0 -161 -50 -161 -146c0 -56 32 -70 124 -103c101 -36 141 -67 141 -157c0 -150 -98 -239 -248 -239c-95 0 -201 26 -201 26l13 60s116 -18 191 -18c105 0 166 59 166 164c0 57 -24 73 -113 104c-98 34 -151 65 -151 157
c0 138 96 219 242 219c92 0 186 -28 186 -28z" />
    <glyph glyph-name="T" unicode="T" horiz-adv-x="469" 
d="M154 624l16 68h447l-16 -68h-186l-144 -624h-76l144 624h-185z" />
    <glyph glyph-name="U" unicode="U" horiz-adv-x="594" 
d="M309 692l-110 -475c-6 -24 -10 -51 -10 -73c0 -63 49 -86 128 -86c109 0 153 52 176 153l111 481h77l-111 -481c-34 -148 -107 -221 -259 -221c-120 0 -198 45 -198 144c0 27 4 64 11 91l108 467h77z" />
    <glyph glyph-name="V" unicode="V" horiz-adv-x="545" 
d="M601 692h77l-330 -692h-158l-9 692h77l3 -624h45z" />
    <glyph glyph-name="W" unicode="W" horiz-adv-x="829" 
d="M187 692h76l-31 -621h26l269 611h84l-19 -611h26l262 621h77l-298 -692h-133l19 570l-248 -570h-137z" />
    <glyph glyph-name="X" unicode="X" horiz-adv-x="513" 
d="M261 692l90 -288l224 288h84l-276 -349l112 -343h-79l-92 287l-227 -287h-85l280 347l-111 345h80z" />
    <glyph glyph-name="Y" unicode="Y" horiz-adv-x="493" 
d="M641 692l-293 -396l-69 -296h-73l70 302l-106 390h78l81 -323l229 323h83z" />
    <glyph glyph-name="Z" unicode="Z" horiz-adv-x="495" 
d="M184 624l16 68h416l-24 -102l-448 -498l-6 -24h332l-16 -68h-416l22 99l448 498l6 27h-330z" />
    <glyph glyph-name="bracketleft" unicode="[" horiz-adv-x="276" 
d="M228 747h195l-15 -65h-119l-173 -739h119l-17 -65h-193z" />
    <glyph glyph-name="backslash" unicode="\" horiz-adv-x="426" 
d="M398 8l-78 -8l-132 693l79 8z" />
    <glyph glyph-name="bracketright" unicode="]" horiz-adv-x="276" 
d="M193 -121h-195l15 65h119l173 739h-119l17 65h193z" />
    <glyph glyph-name="asciicircum" unicode="^" 
d="M480 319l-144 267l-140 -267h-80l186 341h67l191 -341h-80z" />
    <glyph glyph-name="underscore" unicode="_" horiz-adv-x="577" 
d="M46 -79h448l-17 -73h-447z" />
    <glyph glyph-name="grave" unicode="`" horiz-adv-x="518" 
d="M316 741l185 -93l-33 -52l-188 86z" />
    <glyph glyph-name="a" unicode="a" horiz-adv-x="500" 
d="M217 -10c-89 0 -128 57 -128 149c0 156 83 371 252 371c63 0 205 -25 205 -25l-76 -325c-15 -63 -28 -158 -28 -158l-73 -3s14 86 18 107c0 0 -83 -116 -170 -116zM342 445c-116 0 -176 -182 -176 -306c0 -53 18 -84 74 -84c63 0 162 131 162 131l57 245s-70 14 -117 14z
" />
    <glyph glyph-name="b" unicode="b" horiz-adv-x="499" 
d="M392 510c108 0 133 -67 133 -153c0 -139 -75 -367 -254 -367c-82 0 -202 25 -202 25l162 703h74l-65 -284s74 76 152 76zM269 55c136 0 179 223 179 297c0 52 -9 93 -78 93c-64 0 -147 -86 -147 -86l-68 -291s70 -13 114 -13z" />
    <glyph glyph-name="c" unicode="c" horiz-adv-x="405" 
d="M355 510c57 0 125 -19 125 -19l-19 -58s-65 12 -108 12c-127 0 -184 -149 -184 -289c0 -65 28 -101 103 -101c39 0 112 15 112 15l-5 -59s-69 -21 -132 -21c-102 0 -155 55 -155 152c0 192 84 368 263 368z" />
    <glyph glyph-name="d" unicode="d" horiz-adv-x="500" 
d="M600 718l-167 -718h-72l19 89s-76 -99 -165 -99c-83 0 -126 49 -126 146c0 169 90 374 250 374c58 0 133 -18 133 -18l53 226h75zM399 173l60 257s-66 15 -120 15c-113 0 -173 -184 -173 -308c0 -52 22 -82 72 -82c67 0 161 118 161 118z" />
    <glyph glyph-name="e" unicode="e" horiz-adv-x="462" 
d="M262 56c74 0 165 22 165 22l-6 -59s-89 -29 -179 -29c-96 0 -151 50 -151 152c0 172 82 368 269 368c90 0 148 -36 148 -122c0 -123 -93 -160 -280 -160h-51c-7 -25 -11 -58 -11 -81c0 -60 39 -91 96 -91zM187 287h55c131 0 192 22 192 100c0 44 -28 60 -77 60
c-91 0 -142 -64 -170 -160z" />
    <glyph glyph-name="f" unicode="f" horiz-adv-x="309" 
d="M260 435l-101 -435l-61 -222h-65l152 656h-57l16 66h55l11 43c31 134 74 185 170 185c38 0 84 -14 84 -14l-14 -58s-40 7 -72 7c-53 0 -73 -40 -94 -121l-10 -42h134l-16 -65h-132z" />
    <glyph glyph-name="g" unicode="g" horiz-adv-x="468" 
d="M197 -235c-110 0 -179 47 -179 131c0 76 74 123 132 153c-10 10 -16 23 -16 43c0 44 55 97 55 97c-45 21 -69 59 -69 120c0 96 72 201 201 201c52 0 96 -16 96 -16l148 6l-15 -64h-89c9 -15 17 -37 17 -69c0 -89 -71 -197 -211 -197c-14 0 -33 3 -33 3s-31 -40 -31 -66
c0 -23 24 -29 93 -38c101 -13 151 -42 151 -119c0 -99 -94 -185 -250 -185zM276 7c-45 5 -73 11 -87 16c-45 -23 -100 -66 -100 -111c0 -47 35 -83 111 -83c90 0 174 41 174 115c0 42 -29 54 -98 63zM274 232c92 0 133 80 133 131c0 55 -25 84 -90 84
c-82 0 -126 -76 -126 -135c0 -47 22 -80 83 -80z" />
    <glyph glyph-name="h" unicode="h" horiz-adv-x="499" 
d="M141 0h-75l166 718h75l-71 -306s77 98 162 98c80 0 118 -51 118 -126c0 -41 -12 -95 -21 -132l-58 -252h-74l58 249c7 32 18 86 18 120c0 47 -19 75 -67 75c-66 0 -155 -113 -155 -113z" />
    <glyph glyph-name="i" unicode="i" horiz-adv-x="206" 
d="M66 0l115 500h75l-116 -500h-74zM204 604l22 90h75l-21 -90h-76z" />
    <glyph glyph-name="j" unicode="j" horiz-adv-x="206" 
d="M66 0l115 500h75l-116 -500c-34 -148 -48 -164 -203 -235l-24 60c119 61 129 73 153 175zM205 602l21 90h75l-20 -90h-76z" />
    <glyph glyph-name="k" unicode="k" horiz-adv-x="445" 
d="M141 0h-75l166 718h75l-97 -418l64 3l181 197h87l-212 -232l95 -268h-79l-84 239l-67 -2z" />
    <glyph glyph-name="l" unicode="l" horiz-adv-x="215" 
d="M70 0l166 718h74l-165 -718h-75z" />
    <glyph glyph-name="m" unicode="m" horiz-adv-x="775" 
d="M436 0h-75l58 249c8 32 19 88 19 120c0 47 -22 75 -68 75c-66 0 -153 -112 -153 -112l-77 -332h-74l115 500h73l-18 -87s75 97 163 97c99 0 109 -89 109 -89s83 89 167 89c79 0 117 -51 117 -126c0 -42 -12 -96 -20 -132l-58 -252h-75l58 249c8 32 19 85 19 119
c0 48 -22 76 -66 76c-62 0 -139 -90 -139 -90s-3 -47 -17 -102z" />
    <glyph glyph-name="n" unicode="n" horiz-adv-x="498" 
d="M140 0h-74l115 500h73l-18 -87s76 97 161 97c80 0 118 -51 118 -126c0 -41 -11 -94 -20 -130l-59 -254h-74l58 249c8 32 19 86 19 120c0 47 -20 75 -68 75c-67 0 -154 -112 -154 -112z" />
    <glyph glyph-name="o" unicode="o" horiz-adv-x="494" 
d="M343 510c112 0 173 -55 173 -170c0 -183 -95 -350 -254 -350c-111 0 -171 49 -171 164c0 186 102 356 252 356zM262 55c110 0 179 136 179 286c0 62 -31 104 -98 104c-107 0 -177 -142 -177 -292c0 -63 32 -98 96 -98z" />
    <glyph glyph-name="p" unicode="p" horiz-adv-x="499" 
d="M15 -222l166 722h73l-19 -89s78 99 161 99c90 0 130 -55 130 -147c0 -164 -88 -373 -250 -373c-60 0 -134 19 -134 19l-53 -231h-74zM375 445c-64 0 -159 -118 -159 -118l-60 -257s65 -15 120 -15c114 0 173 187 173 305c0 55 -22 85 -74 85z" />
    <glyph glyph-name="q" unicode="q" horiz-adv-x="498" 
d="M217 -10c-86 0 -129 55 -129 147c0 165 90 373 250 373c75 0 207 -25 207 -25l-162 -701h-74l70 305s-75 -99 -162 -99zM338 445c-109 0 -173 -179 -173 -305c0 -54 22 -85 75 -85c64 0 159 117 159 117l59 258s-64 15 -120 15z" />
    <glyph glyph-name="r" unicode="r" horiz-adv-x="316" 
d="M66 0l116 500h74l-18 -74s93 67 181 85l-20 -77c-64 -16 -175 -75 -175 -75l-83 -359h-75z" />
    <glyph glyph-name="s" unicode="s" horiz-adv-x="429" 
d="M485 489l-15 -58s-95 14 -159 14c-70 0 -113 -45 -113 -97c0 -33 19 -44 92 -63c89 -22 137 -40 137 -113c0 -123 -97 -182 -218 -182c-77 0 -158 23 -158 23l14 58s92 -16 153 -16c76 0 132 33 132 102c0 40 -27 48 -95 64c-84 21 -132 42 -132 109
c0 108 85 180 197 180c80 0 165 -21 165 -21z" />
    <glyph glyph-name="t" unicode="t" horiz-adv-x="318" 
d="M401 435h-140l-58 -251c-7 -28 -12 -61 -12 -83c0 -28 14 -46 50 -46c26 0 77 6 77 6l-5 -57s-52 -14 -97 -14c-66 0 -103 36 -103 95c0 32 8 71 16 103l58 247h-66l17 65h65l35 148h75l-36 -148h140z" />
    <glyph glyph-name="u" unicode="u" horiz-adv-x="498" 
d="M473 500h74l-115 -500h-73l18 87s-76 -97 -161 -97c-79 0 -118 51 -118 126c0 41 11 94 20 130l59 254h74l-58 -249c-8 -32 -19 -86 -19 -120c0 -47 22 -75 68 -75c67 0 154 112 154 112z" />
    <glyph glyph-name="v" unicode="v" horiz-adv-x="454" 
d="M139 500h74l8 -436h31l217 436h77l-254 -500h-140z" />
    <glyph glyph-name="w" unicode="w" horiz-adv-x="731" 
d="M144 500h75l-9 -435h19l205 425h88l4 -425h19l196 435h76l-227 -500h-133l-3 393l-187 -393h-130z" />
    <glyph glyph-name="x" unicode="x" horiz-adv-x="419" 
d="M137 500h77l67 -197l156 197h80l-209 -256l89 -244h-78l-65 193l-154 -193h-81l206 250z" />
    <glyph glyph-name="y" unicode="y" horiz-adv-x="454" 
d="M139 500h74l8 -436h30l218 436h77l-365 -721h-76l115 221h-68z" />
    <glyph glyph-name="z" unicode="z" horiz-adv-x="418" 
d="M138 435l16 65h341l-14 -64l-341 -371h255l-15 -65h-342l12 64l340 371h-252z" />
    <glyph glyph-name="braceleft" unicode="{" horiz-adv-x="313" 
d="M230 222c0 -40 -48 -160 -48 -212c0 -46 29 -69 89 -69l-19 -68c-94 2 -144 41 -144 115c0 57 47 177 47 216c0 41 -22 63 -72 81l14 59c91 24 108 53 121 115c8 36 21 118 29 140c33 106 92 149 213 154l-12 -68c-89 -5 -122 -45 -138 -115c-4 -21 -18 -101 -22 -120
c-19 -84 -50 -115 -121 -138c37 -17 63 -40 63 -90z" />
    <glyph glyph-name="bar" unicode="|" horiz-adv-x="312" 
d="M176 -222v940h74v-940h-74z" />
    <glyph glyph-name="braceright" unicode="}" horiz-adv-x="312" 
d="M226 401c0 40 48 160 48 212c0 46 -29 69 -89 69l19 68c94 -2 144 -41 144 -115c0 -57 -47 -177 -47 -216c0 -41 22 -63 72 -81l-14 -59c-91 -24 -108 -53 -121 -115c-8 -36 -21 -118 -29 -140c-33 -106 -92 -149 -213 -154l12 68c89 5 122 45 138 115
c4 21 18 101 22 120c19 84 50 115 121 138c-37 17 -63 40 -63 90z" />
    <glyph glyph-name="asciitilde" unicode="~" 
d="M544 310l10 -61s-58 -54 -112 -54c-56 0 -158 62 -200 62c-41 0 -105 -47 -105 -47l-10 62s62 53 116 53c56 0 154 -61 199 -61c38 0 102 46 102 46z" />
    <glyph glyph-name="exclamdown" unicode="&#xa1;" horiz-adv-x="178" 
d="M187 270l-106 -470h-77l116 470h67zM240 500l-25 -111h-76l25 111h76z" />
    <glyph glyph-name="cent" unicode="&#xa2;" 
d="M257 -80l27 116c-132 3 -143 109 -117 212c36 140 114 211 218 215l28 119h63l-29 -120c40 -3 92 -10 92 -10l-20 -66s-81 7 -117 7c-89 0 -138 -53 -161 -145c-20 -82 -18 -141 94 -141c41 0 124 6 124 6l-14 -65s-57 -7 -97 -8l-28 -120h-63z" />
    <glyph glyph-name="sterling" unicode="&#xa3;" 
d="M607 662l-16 -58s-70 8 -119 8c-77 0 -92 -60 -114 -148l-10 -43h194l-15 -66h-194l-66 -290h138l76 17l-1 -64l-78 -18h-322l15 65h96l65 290h-75l16 66h75l12 51c31 133 67 207 189 207c53 0 134 -17 134 -17z" />
    <glyph glyph-name="currency" unicode="&#xa4;" 
d="M507 30l-70 71c-60 -40 -138 -40 -199 0l-70 -71l-52 53l70 70c-39 60 -39 138 0 198l-70 70l52 53l70 -71c61 39 139 39 199 0l70 71l53 -53l-71 -71c39 -60 39 -137 0 -197l71 -70zM260 174c42 -42 113 -42 156 0c42 43 42 113 0 156c-43 42 -114 42 -156 0
c-43 -43 -43 -113 0 -156z" />
    <glyph glyph-name="yen" unicode="&#xa5;" 
d="M141 310l16 67h125l-114 284h82l113 -279l231 279h99l-239 -284h122l-15 -67h-160l-14 -17l-15 -66h170l-16 -67h-170l-37 -160h-76l37 160h-174l16 67h173l16 67l-4 16h-166z" />
    <glyph glyph-name="brokenbar" unicode="&#xa6;" horiz-adv-x="318" 
d="M179 718h74v-374h-74v374zM179 156h74v-378h-74v378z" />
    <glyph glyph-name="section" unicode="&#xa7;" horiz-adv-x="470" 
d="M546 633l-18 -66s-99 14 -144 14c-91 0 -138 -46 -138 -113c0 -52 42 -60 112 -73c99 -19 125 -67 125 -112c0 -70 -65 -148 -79 -164c16 -21 17 -37 17 -59c0 -54 -38 -208 -226 -208c-61 0 -162 16 -162 16l22 66s101 -14 152 -14c89 0 138 65 138 116
c0 42 -21 50 -113 70c-98 19 -129 57 -129 114c0 83 73 150 87 160c-16 19 -20 44 -20 76c0 88 75 194 226 194c62 0 150 -17 150 -17zM315 329c-35 7 -72 17 -80 23c-4 -5 -55 -64 -55 -110c0 -37 21 -54 87 -66c36 -8 65 -15 87 -27c6 5 52 73 52 117c0 32 -24 51 -91 63z
" />
    <glyph glyph-name="dieresis" unicode="&#xa8;" horiz-adv-x="680" 
d="M242 620l21 93h62l-22 -93h-61zM425 620l20 93h62l-22 -93h-60z" />
    <glyph glyph-name="copyright" unicode="&#xa9;" horiz-adv-x="644" 
d="M159 434c0 154 111 273 263 273c156 0 264 -123 264 -273c0 -153 -108 -273 -265 -273c-151 0 -262 121 -262 273zM203 434c0 -126 92 -229 218 -229c128 0 221 102 221 229c0 126 -94 230 -220 230s-219 -104 -219 -230zM500 340l3 -52s-37 -12 -78 -12
c-88 0 -116 50 -116 159c0 104 27 156 118 156c42 0 76 -10 76 -10l-3 -53s-39 6 -71 6c-52 0 -60 -33 -60 -99s12 -102 60 -102c30 0 71 7 71 7z" />
    <glyph glyph-name="ordfeminine" unicode="&#xaa;" horiz-adv-x="344" 
d="M412 560l-32 -138c4 -9 14 -14 25 -16l-13 -49c-55 0 -66 9 -77 26c0 0 -61 -26 -114 -26c-52 0 -76 36 -63 92c14 55 46 82 115 86l87 6l6 22c7 30 -5 40 -38 40c-38 0 -116 -7 -116 -7l8 48s74 15 124 15c72 0 105 -23 88 -99zM330 495l-75 -5c-30 -2 -45 -13 -51 -40
s4 -39 27 -39c35 0 83 17 83 17z" />
    <glyph glyph-name="guillemotleft" unicode="&#xab;" horiz-adv-x="446" 
d="M497 409l-22 -77l-131 -87l88 -96l-20 -69l-142 149l14 38zM307 409l-22 -77l-131 -87l88 -96l-20 -69l-142 149l14 38z" />
    <glyph glyph-name="logicalnot" unicode="&#xac;" 
d="M123 342h428v-225h-70v157h-358v68z" />
    <glyph glyph-name="registered" unicode="&#xae;" horiz-adv-x="644" 
d="M159 434c0 154 111 273 263 273c156 0 264 -123 264 -273c0 -153 -108 -273 -264 -273c-152 0 -263 121 -263 273zM203 434c0 -126 94 -229 219 -229c127 0 220 102 220 229c0 126 -94 230 -220 230s-219 -104 -219 -230zM479 282l-49 107h-60v-107h-57v303h110
c71 0 113 -24 113 -95c0 -49 -12 -76 -50 -93l55 -115h-62zM370 538v-102h59c35 0 51 15 51 51s-20 51 -62 51h-48z" />
    <glyph glyph-name="macron" unicode="&#xaf;" horiz-adv-x="439" 
d="M229 639l14 59h275l-15 -59h-274z" />
    <glyph glyph-name="degree" unicode="&#xb0;" 
d="M267 561c0 84 57 141 142 141c84 0 141 -57 141 -141c0 -85 -57 -141 -141 -141c-85 0 -142 56 -142 141zM317 561c0 -56 36 -93 92 -93c55 0 93 37 93 93c0 55 -38 93 -93 93c-56 0 -92 -38 -92 -93z" />
    <glyph glyph-name="plusminus" unicode="&#xb1;" 
d="M103 293v68h188v126h70v-126h191v-68h-191v-127h-70v127h-188zM103 106h449v-68h-449v68z" />
    <glyph glyph-name="twosuperior" unicode="&#xb2;" horiz-adv-x="280" 
d="M351 478h-210l14 56l110 86c38 30 63 53 71 83c7 26 -11 36 -40 36s-87 -10 -87 -10l12 59s63 12 106 12c69 0 93 -29 77 -91c-12 -46 -41 -77 -90 -113l-76 -60h127z" />
    <glyph glyph-name="threesuperior" unicode="&#xb3;" horiz-adv-x="280" 
d="M220 790c0 0 62 10 105 10c71 0 99 -26 85 -84c-12 -49 -51 -70 -59 -75c27 -10 42 -24 29 -76c-17 -66 -65 -97 -132 -97c-49 0 -110 10 -110 10l18 56s56 -7 99 -7c35 0 53 16 59 41c9 32 -8 42 -35 42h-66l13 54h65c18 0 43 19 50 44c5 23 -5 33 -38 33
c-42 0 -93 -7 -93 -7z" />
    <glyph glyph-name="acute" unicode="&#xb4;" horiz-adv-x="546" 
d="M279 596l-7 58l228 94l7 -66z" />
    <glyph glyph-name="mu" unicode="&#xb5;" 
d="M43 -222l115 500l52 222h74l-52 -222h1l-18 -78c-5 -24 -8 -50 -8 -69c0 -47 22 -75 68 -75c67 0 154 112 154 112l77 332h74l-115 -500h-73l18 87s-76 -97 -161 -97c-33 0 -58 9 -77 24l-55 -236h-74z" />
    <glyph glyph-name="paragraph" unicode="&#xb6;" horiz-adv-x="557" 
d="M382 0l151 636h-109l-152 -636h-64l81 332c-105 1 -144 68 -144 141c0 107 92 227 224 227h310l-14 -64h-69l-151 -636h-63z" />
    <glyph glyph-name="periodcentered" unicode="&#xb7;" horiz-adv-x="170" 
d="M103 245l26 117h77l-26 -117h-77z" />
    <glyph glyph-name="cedilla" unicode="&#xb8;" horiz-adv-x="791" 
d="M500 -124c-13 -60 -50 -87 -108 -87c-42 0 -80 7 -80 7l13 51s37 -3 62 -3c28 0 44 10 51 36c7 28 -12 33 -34 33h-39l21 92h40l-13 -50h5c55 0 96 -18 82 -79z" />
    <glyph glyph-name="onesuperior" unicode="&#xb9;" horiz-adv-x="280" 
d="M202 720l119 70h60l-77 -312h-64l60 242l-80 -47z" />
    <glyph glyph-name="ordmasculine" unicode="&#xba;" horiz-adv-x="341" 
d="M321 659c55 0 101 -22 105 -75c4 -28 0 -52 -6 -77c-24 -107 -76 -152 -170 -152c-68 0 -106 36 -104 101c0 16 3 35 8 55c26 107 77 148 167 148zM264 415c47 0 72 24 90 95c4 17 6 32 6 45c0 33 -16 45 -51 45c-47 0 -72 -22 -88 -88c-5 -19 -8 -35 -8 -49
c0 -33 15 -48 51 -48z" />
    <glyph glyph-name="guillemotright" unicode="&#xbb;" horiz-adv-x="480" 
d="M286 80l22 77l131 87l-88 96l20 69l142 -149l-14 -38zM63 80l22 77l131 87l-88 96l20 69l142 -149l-14 -38z" />
    <glyph glyph-name="onequarter" unicode="&#xbc;" horiz-adv-x="594" 
d="M178 720l119 70h60l-77 -312h-64l60 242l-80 -47zM178 -10l-70 25l427 692l70 -26zM484 0l11 48h-141l13 55l122 209h72l-124 -205h73l28 88h58l-23 -88h27l-14 -59h-27l-12 -48h-63z" />
    <glyph glyph-name="onehalf" unicode="&#xbd;" horiz-adv-x="617" 
d="M178 720l119 70h60l-77 -312h-64l60 242l-80 -47zM178 -10l-70 25l427 692l70 -26zM590 0h-210l14 56l110 86c38 30 63 53 71 83c7 26 -11 36 -40 36s-87 -10 -87 -10l12 59s63 12 106 12c69 0 93 -29 77 -91c-12 -46 -41 -77 -90 -113l-76 -60h127z" />
    <glyph glyph-name="threequarters" unicode="&#xbe;" horiz-adv-x="609" 
d="M216 790c0 0 62 10 105 10c71 0 99 -26 85 -84c-12 -49 -51 -70 -59 -75c27 -10 42 -24 29 -76c-17 -66 -65 -97 -132 -97c-49 0 -110 10 -110 10l18 56s56 -7 99 -7c35 0 53 16 59 41c9 32 -8 42 -35 42h-66l13 54h65c18 0 43 19 50 44c5 23 -5 33 -38 33
c-42 0 -93 -7 -93 -7zM194 -10l-70 25l427 692l70 -26zM501 0l11 48h-141l13 55l122 209h72l-124 -205h73l28 88h58l-23 -88h27l-14 -59h-27l-12 -48h-63z" />
    <glyph glyph-name="questiondown" unicode="&#xbf;" horiz-adv-x="407" 
d="M23 -70c0 99 39 138 164 235c48 37 72 70 78 101l8 39h71s-1 -33 -7 -62c-8 -44 -41 -84 -101 -130c-99 -78 -133 -110 -133 -178c0 -52 39 -68 101 -68c60 0 144 18 144 18l-6 -61s-88 -25 -154 -25c-96 0 -165 36 -165 131zM386 500l-25 -116h-77l26 116h76z" />
    <glyph glyph-name="Agrave" unicode="&#xc0;" horiz-adv-x="554" 
d="M363 930l185 -94l-34 -56l-188 86zM24 0l345 692h149l14 -692h-76l-6 177h-259l-89 -177h-78zM414 624l-191 -380h228l-7 380h-30z" />
    <glyph glyph-name="Aacute" unicode="&#xc1;" horiz-adv-x="554" 
d="M388 785l-9 57l228 94l9 -65zM24 0l345 692h149l14 -692h-76l-6 177h-259l-89 -177h-78zM414 624l-191 -380h228l-7 380h-30z" />
    <glyph glyph-name="Acircumflex" unicode="&#xc2;" horiz-adv-x="554" 
d="M303 793l164 138h41l96 -138h-69l-54 81l-96 -81h-82zM24 0l345 692h149l14 -692h-76l-6 177h-259l-89 -177h-78zM414 624l-191 -380h228l-7 380h-30z" />
    <glyph glyph-name="Atilde" unicode="&#xc3;" horiz-adv-x="554" 
d="M627 916l3 -53s-63 -59 -100 -59c-44 0 -109 56 -141 56c-22 0 -87 -49 -87 -49l-2 54s67 60 105 60c49 0 111 -55 140 -55c20 0 82 46 82 46zM24 0l345 692h149l14 -692h-76l-6 177h-259l-89 -177h-78zM414 624l-191 -380h228l-7 380h-30z" />
    <glyph glyph-name="Adieresis" unicode="&#xc4;" horiz-adv-x="554" 
d="M341 814l21 93h62l-23 -93h-60zM528 814l22 93h62l-23 -93h-61zM24 0l345 692h149l14 -692h-76l-6 177h-259l-89 -177h-78zM414 624l-191 -380h228l-7 380h-30z" />
    <glyph glyph-name="Aring" unicode="&#xc5;" horiz-adv-x="554" 
d="M24 0l334 669c-13 17 -16 41 -8 71c18 68 67 100 129 100c59 0 97 -30 80 -100c-8 -29 -21 -53 -41 -70l14 -670h-76l-6 177h-259l-89 -177h-78zM414 624l-191 -380h228l-7 380h-30zM400 740c-6 -26 6 -46 37 -48h10c32 1 54 19 61 48c7 32 -12 48 -42 48
c-34 0 -58 -17 -66 -48z" />
    <glyph glyph-name="AE" unicode="&#xc6;" horiz-adv-x="780" 
d="M348 0l41 177h-201l-90 -177h-73l345 696h530l-15 -72l-317 2l-57 -240h260l-15 -69h-261l-58 -245h315l-15 -72h-389zM408 624l-187 -377h185l90 377h-88z" />
    <glyph glyph-name="Ccedilla" unicode="&#xc7;" horiz-adv-x="504" 
d="M478 75l-5 -63s-89 -22 -168 -22h-5l-9 -35h5c55 0 96 -18 82 -79c-13 -60 -50 -87 -108 -87c-42 0 -80 7 -80 7l13 51s37 -3 62 -3c28 0 44 10 51 36c7 28 -12 33 -34 33h-39l18 80c-100 14 -149 81 -149 195c0 212 103 514 349 514c79 0 166 -23 166 -23l-17 -60
s-77 15 -153 15c-174 0 -265 -247 -265 -442c0 -89 37 -134 123 -134c80 0 163 17 163 17z" />
    <glyph glyph-name="Egrave" unicode="&#xc8;" horiz-adv-x="505" 
d="M369 930l185 -94l-34 -56l-188 86zM78 0l159 692h386l-16 -68h-309l-55 -238h254l-16 -68h-253l-58 -250h309l-15 -68h-386z" />
    <glyph glyph-name="Eacute" unicode="&#xc9;" horiz-adv-x="505" 
d="M377 785l-9 57l228 94l9 -65zM78 0l159 692h386l-16 -68h-309l-55 -238h254l-16 -68h-253l-58 -250h309l-15 -68h-386z" />
    <glyph glyph-name="Ecircumflex" unicode="&#xca;" horiz-adv-x="505" 
d="M342 791l164 138h41l96 -138h-69l-54 81l-96 -81h-82zM78 0l159 692h386l-16 -68h-309l-55 -238h254l-16 -68h-253l-58 -250h309l-15 -68h-386z" />
    <glyph glyph-name="Edieresis" unicode="&#xcb;" horiz-adv-x="505" 
d="M332 814l21 93h62l-23 -93h-60zM519 814l22 93h62l-23 -93h-61zM78 0l159 692h386l-16 -68h-309l-55 -238h254l-16 -68h-253l-58 -250h309l-15 -68h-386z" />
    <glyph glyph-name="Igrave" unicode="&#xcc;" horiz-adv-x="232" 
d="M186 930l185 -94l-34 -56l-188 86zM78 0l160 692h76l-160 -692h-76z" />
    <glyph glyph-name="Iacute" unicode="&#xcd;" horiz-adv-x="232" 
d="M239 785l-9 57l228 94l9 -65zM78 0l160 692h76l-160 -692h-76z" />
    <glyph glyph-name="Icircumflex" unicode="&#xce;" horiz-adv-x="232" 
d="M143 791l164 138h41l96 -138h-69l-54 81l-96 -81h-82zM78 0l160 692h76l-160 -692h-76z" />
    <glyph glyph-name="Idieresis" unicode="&#xcf;" horiz-adv-x="232" 
d="M173 819l21 93h62l-23 -93h-60zM360 819l22 93h62l-23 -93h-61zM78 0l160 692h76l-160 -692h-76z" />
    <glyph glyph-name="Eth" unicode="&#xd0;" horiz-adv-x="611" 
d="M321 0h-239l71 309h-66l15 77h69l71 306h222c122 0 192 -58 192 -206c0 -211 -104 -486 -335 -486zM576 486c0 98 -38 138 -127 138h-147l-55 -238h142l-17 -77h-142l-55 -241h157c165 0 244 256 244 418z" />
    <glyph glyph-name="Ntilde" unicode="&#xd1;" horiz-adv-x="631" 
d="M666 914l3 -53s-63 -59 -100 -59c-44 0 -109 56 -141 56c-22 0 -87 -49 -87 -49l-2 54s67 60 105 60c49 0 111 -55 140 -55c20 0 82 46 82 46zM78 0l160 692h136l104 -613h19l141 613h75l-160 -692h-131l-108 617h-20l-143 -617h-73z" />
    <glyph glyph-name="Ograve" unicode="&#xd2;" horiz-adv-x="628" 
d="M413 930l185 -94l-34 -56l-188 86zM335 58c45 0 84 14 116 40c96 79 141 255 141 392c0 100 -42 144 -141 144c-41 0 -78 -12 -109 -37c-99 -81 -149 -267 -149 -395c0 -105 38 -144 142 -144zM326 -10c-145 0 -212 58 -212 207c0 164 54 338 159 433
c50 46 112 72 184 72c139 0 215 -63 215 -207c0 -170 -53 -351 -166 -444c-48 -39 -111 -61 -180 -61z" />
    <glyph glyph-name="Oacute" unicode="&#xd3;" horiz-adv-x="628" 
d="M335 58c45 0 84 14 116 40c96 79 141 255 141 392c0 100 -42 144 -141 144c-41 0 -78 -12 -109 -37c-99 -81 -149 -267 -149 -395c0 -105 38 -144 142 -144zM326 -10c-145 0 -212 58 -212 207c0 164 54 338 159 433c50 46 112 72 184 72c139 0 215 -63 215 -207
c0 -170 -53 -351 -166 -444c-48 -39 -111 -61 -180 -61zM425 785l-9 57l228 94l9 -65z" />
    <glyph glyph-name="Ocircumflex" unicode="&#xd4;" horiz-adv-x="628" 
d="M335 58c45 0 84 14 116 40c96 79 141 255 141 392c0 100 -42 144 -141 144c-41 0 -78 -12 -109 -37c-99 -81 -149 -267 -149 -395c0 -105 38 -144 142 -144zM326 -10c-145 0 -212 58 -212 207c0 164 54 338 159 433c50 46 112 72 184 72c139 0 215 -63 215 -207
c0 -170 -53 -351 -166 -444c-48 -39 -111 -61 -180 -61zM347 793l164 138h41l96 -138h-69l-54 81l-96 -81h-82z" />
    <glyph glyph-name="Otilde" unicode="&#xd5;" horiz-adv-x="628" 
d="M678 914l3 -53s-63 -59 -100 -59c-44 0 -109 56 -141 56c-22 0 -87 -49 -87 -49l-2 54s67 60 105 60c49 0 111 -55 140 -55c20 0 82 46 82 46zM335 58c45 0 84 14 116 40c96 79 141 255 141 392c0 100 -42 144 -141 144c-41 0 -78 -12 -109 -37
c-99 -81 -149 -267 -149 -395c0 -105 38 -144 142 -144zM326 -10c-145 0 -212 58 -212 207c0 164 54 338 159 433c50 46 112 72 184 72c139 0 215 -63 215 -207c0 -170 -53 -351 -166 -444c-48 -39 -111 -61 -180 -61z" />
    <glyph glyph-name="Odieresis" unicode="&#xd6;" horiz-adv-x="628" 
d="M371 812l21 93h69l-22 -93h-68zM560 812l21 93h68l-21 -93h-68zM335 58c45 0 84 14 116 40c96 79 141 255 141 392c0 100 -42 144 -141 144c-41 0 -78 -12 -109 -37c-99 -81 -149 -267 -149 -395c0 -105 38 -144 142 -144zM326 -10c-145 0 -212 58 -212 207
c0 164 54 338 159 433c50 46 112 72 184 72c139 0 215 -63 215 -207c0 -170 -53 -351 -166 -444c-48 -39 -111 -61 -180 -61z" />
    <glyph glyph-name="multiply" unicode="&#xd7;" 
d="M177 459l160 -162l161 163l48 -48l-162 -161l162 -161l-48 -48l-161 162l-160 -162l-49 48l163 161l-162 160z" />
    <glyph glyph-name="Oslash" unicode="&#xd8;" horiz-adv-x="628" 
d="M111 -114l-42 25l90 133c-31 33 -45 83 -45 153c0 164 54 338 159 433c50 46 112 72 184 72c52 0 96 -9 130 -28l84 123l47 -21l-91 -134c29 -34 45 -82 45 -147c0 -170 -53 -351 -166 -444c-48 -39 -111 -61 -180 -61c-53 0 -95 8 -127 24zM207 116l162 238l175 257
c-22 16 -53 23 -93 23c-41 0 -78 -12 -109 -37c-99 -81 -149 -267 -149 -395c0 -36 4 -65 14 -86zM335 58c45 0 84 14 116 40c96 79 141 255 141 392c0 32 -4 59 -14 80l-163 -241l-173 -252c22 -13 53 -19 93 -19z" />
    <glyph glyph-name="Ugrave" unicode="&#xd9;" horiz-adv-x="594" 
d="M393 930l185 -94l-34 -56l-188 86zM309 692l-110 -475c-6 -24 -10 -51 -10 -73c0 -63 49 -86 128 -86c109 0 153 52 176 153l111 481h77l-111 -481c-34 -148 -107 -221 -259 -221c-120 0 -198 45 -198 144c0 27 4 64 11 91l108 467h77z" />
    <glyph glyph-name="Uacute" unicode="&#xda;" horiz-adv-x="594" 
d="M309 692l-110 -475c-6 -24 -10 -51 -10 -73c0 -63 49 -86 128 -86c109 0 153 52 176 153l111 481h77l-111 -481c-34 -148 -107 -221 -259 -221c-120 0 -198 45 -198 144c0 27 4 64 11 91l108 467h77zM386 785l-9 57l228 94l9 -65z" />
    <glyph glyph-name="Ucircumflex" unicode="&#xdb;" horiz-adv-x="594" 
d="M309 692l-110 -475c-6 -24 -10 -51 -10 -73c0 -63 49 -86 128 -86c109 0 153 52 176 153l111 481h77l-111 -481c-34 -148 -107 -221 -259 -221c-120 0 -198 45 -198 144c0 27 4 64 11 91l108 467h77zM322 793l164 138h41l96 -138h-69l-54 81l-96 -81h-82z" />
    <glyph glyph-name="Udieresis" unicode="&#xdc;" horiz-adv-x="594" 
d="M345 812l21 93h69l-22 -93h-68zM534 812l20 93h69l-22 -93h-67zM309 692l-110 -475c-6 -24 -10 -51 -10 -73c0 -63 49 -86 128 -86c109 0 153 52 176 153l111 481h77l-111 -481c-34 -148 -107 -221 -259 -221c-120 0 -198 45 -198 144c0 27 4 64 11 91l108 467h77z" />
    <glyph glyph-name="Yacute" unicode="&#xdd;" horiz-adv-x="493" 
d="M345 785l-9 57l228 94l9 -65zM641 692l-293 -396l-69 -296h-73l70 302l-106 390h78l81 -323l229 323h83z" />
    <glyph glyph-name="Thorn" unicode="&#xde;" horiz-adv-x="549" 
d="M354 194c94 0 145 71 169 165c20 80 6 151 -98 152l-155 1l-75 -318h159zM337 120h-159l-28 -120h-74l164 696h74l-27 -111h155c144 0 182 -103 156 -226c-31 -141 -121 -240 -261 -239z" />
    <glyph glyph-name="germandbls" unicode="&#xdf;" horiz-adv-x="539" 
d="M136 0h-71l125 529c35 149 98 199 221 199c111 0 164 -44 164 -120c0 -78 -34 -122 -96 -152c-60 -28 -83 -42 -83 -68c0 -25 10 -36 62 -68c65 -40 90 -58 90 -126c0 -124 -80 -204 -219 -204c-57 0 -126 19 -126 19l14 59s66 -13 108 -13c95 0 147 54 147 131
c0 38 -13 52 -76 90c-58 35 -75 59 -75 99c0 59 28 85 101 122c56 29 77 54 77 102c0 42 -26 64 -94 64c-86 0 -123 -40 -147 -143z" />
    <glyph glyph-name="agrave" unicode="&#xe0;" horiz-adv-x="500" 
d="M217 -10c-89 0 -128 57 -128 149c0 156 83 371 252 371c63 0 205 -25 205 -25l-76 -325c-15 -63 -28 -158 -28 -158l-73 -3s14 86 18 107c0 0 -83 -116 -170 -116zM342 445c-116 0 -176 -182 -176 -306c0 -53 18 -84 74 -84c63 0 162 131 162 131l57 245s-70 14 -117 14z
M338 741l185 -93l-33 -52l-188 86z" />
    <glyph glyph-name="aacute" unicode="&#xe1;" horiz-adv-x="500" 
d="M217 -10c-89 0 -128 57 -128 149c0 156 83 371 252 371c63 0 205 -25 205 -25l-76 -325c-15 -63 -28 -158 -28 -158l-73 -3s14 86 18 107c0 0 -83 -116 -170 -116zM342 445c-116 0 -176 -182 -176 -306c0 -53 18 -84 74 -84c63 0 162 131 162 131l57 245s-70 14 -117 14z
M340 596l-7 58l228 94l7 -66z" />
    <glyph glyph-name="acircumflex" unicode="&#xe2;" horiz-adv-x="500" 
d="M241 587l155 151h53l86 -151h-75l-48 86l-89 -86h-82zM217 -10c-89 0 -128 57 -128 149c0 156 83 371 252 371c63 0 205 -25 205 -25l-76 -325c-15 -63 -28 -158 -28 -158l-73 -3s14 86 18 107c0 0 -83 -116 -170 -116zM342 445c-116 0 -176 -182 -176 -306
c0 -53 18 -84 74 -84c63 0 162 131 162 131l57 245s-70 14 -117 14z" />
    <glyph glyph-name="atilde" unicode="&#xe3;" horiz-adv-x="500" 
d="M217 -10c-89 0 -128 57 -128 149c0 156 83 371 252 371c63 0 205 -25 205 -25l-76 -325c-15 -63 -28 -158 -28 -158l-73 -3s14 86 18 107c0 0 -83 -116 -170 -116zM342 445c-116 0 -176 -182 -176 -306c0 -53 18 -84 74 -84c63 0 162 131 162 131l57 245s-70 14 -117 14z
M575 721l5 -56s-57 -51 -94 -51c-40 0 -99 48 -128 48c-23 0 -80 -43 -80 -43l-3 56s62 53 99 53c43 0 100 -48 126 -48c20 0 75 41 75 41z" />
    <glyph glyph-name="adieresis" unicode="&#xe4;" horiz-adv-x="500" 
d="M266 620l21 93h69l-22 -93h-68zM456 620l20 93h69l-22 -93h-67zM217 -10c-89 0 -128 57 -128 149c0 156 83 371 252 371c63 0 205 -25 205 -25l-76 -325c-15 -63 -28 -158 -28 -158l-73 -3s14 86 18 107c0 0 -83 -116 -170 -116zM342 445c-116 0 -176 -182 -176 -306
c0 -53 18 -84 74 -84c63 0 162 131 162 131l57 245s-70 14 -117 14z" />
    <glyph glyph-name="aring" unicode="&#xe5;" horiz-adv-x="500" 
d="M217 -10c-89 0 -128 57 -128 149c0 156 83 371 252 371c63 0 205 -25 205 -25l-76 -325c-15 -63 -28 -158 -28 -158l-73 -3s14 86 18 107c0 0 -83 -116 -170 -116zM342 445c-116 0 -176 -182 -176 -306c0 -53 18 -84 74 -84c63 0 162 131 162 131l57 245s-70 14 -117 14z
M337 663c11 52 55 97 116 97c51 0 74 -34 68 -85c-6 -66 -57 -111 -117 -111s-79 43 -67 99zM382 663c-6 -24 8 -50 35 -50s51 22 58 49c6 24 -8 47 -34 47c-28 0 -52 -20 -59 -46z" />
    <glyph glyph-name="ae" unicode="&#xe6;" horiz-adv-x="749" 
d="M531 60c68 0 173 9 173 9l-13 -63s-101 -16 -180 -16c-65 0 -107 19 -129 54c-51 -22 -156 -54 -216 -54c-88 0 -116 76 -99 154c19 98 86 133 174 147c51 8 102 12 151 14c15 44 38 132 -45 132c-70 0 -180 -11 -180 -11l12 69s114 15 187 15c56 0 99 -25 109 -74
c42 51 100 74 166 74c93 0 142 -45 144 -135c0 -33 -4 -67 -14 -103l-15 -55l-305 2c-7 -29 -11 -56 -10 -79c2 -50 25 -80 90 -80zM190 57c48 0 128 22 176 38c-10 49 2 98 14 149c-52 -4 -99 -9 -138 -14c-51 -8 -87 -33 -100 -84c-9 -38 -3 -89 48 -89zM464 280l237 -2
c9 34 12 62 11 86c-2 54 -31 78 -88 78c-82 0 -133 -49 -160 -162z" />
    <glyph glyph-name="ccedilla" unicode="&#xe7;" horiz-adv-x="406" 
d="M355 510c57 0 125 -19 125 -19l-19 -58s-65 12 -108 12c-127 0 -184 -149 -184 -289c0 -65 28 -101 103 -101c39 0 112 15 112 15l-5 -59s-69 -21 -131 -21l-9 -35h5c55 0 96 -18 82 -79c-13 -60 -50 -87 -108 -87c-42 0 -80 7 -80 7l13 51s37 -3 62 -3c28 0 44 10 51 36
c7 28 -12 33 -34 33h-39l18 80c-77 12 -117 65 -117 149c0 192 84 368 263 368z" />
    <glyph glyph-name="egrave" unicode="&#xe8;" horiz-adv-x="462" 
d="M262 56c74 0 165 22 165 22l-6 -59s-89 -29 -179 -29c-96 0 -151 50 -151 152c0 172 82 368 269 368c90 0 148 -36 148 -122c0 -123 -93 -160 -280 -160h-51c-7 -25 -11 -58 -11 -81c0 -60 39 -91 96 -91zM187 287h55c131 0 192 22 192 100c0 44 -28 60 -77 60
c-91 0 -142 -64 -170 -160zM258 741l185 -93l-33 -52l-188 86z" />
    <glyph glyph-name="eacute" unicode="&#xe9;" horiz-adv-x="462" 
d="M262 56c74 0 165 22 165 22l-6 -59s-89 -29 -179 -29c-96 0 -151 50 -151 152c0 172 82 368 269 368c90 0 148 -36 148 -122c0 -123 -93 -160 -280 -160h-51c-7 -25 -11 -58 -11 -81c0 -60 39 -91 96 -91zM187 287h55c131 0 192 22 192 100c0 44 -28 60 -77 60
c-91 0 -142 -64 -170 -160zM300 596l-7 58l228 94l7 -66z" />
    <glyph glyph-name="ecircumflex" unicode="&#xea;" horiz-adv-x="462" 
d="M220 587l155 151h53l86 -151h-75l-48 86l-89 -86h-82zM262 56c74 0 165 22 165 22l-6 -59s-89 -29 -179 -29c-96 0 -151 50 -151 152c0 172 82 368 269 368c90 0 148 -36 148 -122c0 -123 -93 -160 -280 -160h-51c-7 -25 -11 -58 -11 -81c0 -60 39 -91 96 -91zM187 287
h55c131 0 192 22 192 100c0 44 -28 60 -77 60c-91 0 -142 -64 -170 -160z" />
    <glyph glyph-name="edieresis" unicode="&#xeb;" horiz-adv-x="462" 
d="M253 620l21 93h69l-22 -93h-68zM443 620l20 93h69l-22 -93h-67zM262 56c74 0 165 22 165 22l-6 -59s-89 -29 -179 -29c-96 0 -151 50 -151 152c0 172 82 368 269 368c90 0 148 -36 148 -122c0 -123 -93 -160 -280 -160h-51c-7 -25 -11 -58 -11 -81c0 -60 39 -91 96 -91z
M187 287h55c131 0 192 22 192 100c0 44 -28 60 -77 60c-91 0 -142 -64 -170 -160z" />
    <glyph glyph-name="igrave" unicode="&#xec;" horiz-adv-x="206" 
d="M66 0l115 500h75l-116 -500h-74zM112 741l185 -93l-33 -52l-188 86z" />
    <glyph glyph-name="iacute" unicode="&#xed;" horiz-adv-x="206" 
d="M66 0l115 500h75l-116 -500h-74zM194 596l-7 58l228 94l7 -66z" />
    <glyph glyph-name="icircumflex" unicode="&#xee;" horiz-adv-x="206" 
d="M84 587l155 151h53l87 -151h-76l-48 86l-89 -86h-82zM66 0l115 500h75l-116 -500h-74z" />
    <glyph glyph-name="idieresis" unicode="&#xef;" horiz-adv-x="206" 
d="M103 620l22 93h69l-22 -93h-69zM293 620l20 93h69l-22 -93h-67zM66 0l115 500h75l-116 -500h-74z" />
    <glyph glyph-name="eth" unicode="&#xf0;" horiz-adv-x="517" 
d="M393 594l-114 -74l-28 46l87 56c-30 12 -61 23 -92 32l29 67c55 -12 103 -27 143 -48l105 68l27 -46l-82 -53c85 -65 114 -161 85 -285c-62 -257 -154 -366 -305 -366c-131 0 -179 86 -166 178c13 159 124 262 256 262c71 0 147 -35 147 -35c16 96 -27 157 -92 198z
M327 360c-90 0 -160 -81 -166 -188c-7 -63 21 -107 104 -107c102 0 165 102 205 259c-4 2 -77 36 -143 36z" />
    <glyph glyph-name="ntilde" unicode="&#xf1;" horiz-adv-x="498" 
d="M66 0h74l77 332s87 112 154 112c48 0 68 -28 68 -75c0 -34 -11 -88 -19 -120l-58 -249h74l59 254c9 36 20 89 20 130c0 75 -38 126 -118 126c-85 0 -161 -97 -161 -97l18 87h-73zM553 721l5 -56s-57 -51 -94 -51c-40 0 -99 48 -128 48c-23 0 -80 -43 -80 -43l-3 56
s62 53 99 53c43 0 100 -48 126 -48c20 0 75 41 75 41z" />
    <glyph glyph-name="ograve" unicode="&#xf2;" horiz-adv-x="494" 
d="M343 510c112 0 173 -55 173 -170c0 -183 -95 -350 -254 -350c-111 0 -171 49 -171 164c0 186 102 356 252 356zM262 55c110 0 179 136 179 286c0 62 -31 104 -98 104c-107 0 -177 -142 -177 -292c0 -63 32 -98 96 -98zM286 741l185 -93l-33 -52l-188 86z" />
    <glyph glyph-name="oacute" unicode="&#xf3;" horiz-adv-x="494" 
d="M343 510c112 0 173 -55 173 -170c0 -183 -95 -350 -254 -350c-111 0 -171 49 -171 164c0 186 102 356 252 356zM262 55c110 0 179 136 179 286c0 62 -31 104 -98 104c-107 0 -177 -142 -177 -292c0 -63 32 -98 96 -98zM302 596l-7 58l228 94l7 -66z" />
    <glyph glyph-name="ocircumflex" unicode="&#xf4;" horiz-adv-x="494" 
d="M235 587l155 151h53l87 -151h-76l-48 86l-89 -86h-82zM343 510c112 0 173 -55 173 -170c0 -183 -95 -350 -254 -350c-111 0 -171 49 -171 164c0 186 102 356 252 356zM262 55c110 0 179 136 179 286c0 62 -31 104 -98 104c-107 0 -177 -142 -177 -292
c0 -63 32 -98 96 -98z" />
    <glyph glyph-name="otilde" unicode="&#xf5;" horiz-adv-x="494" 
d="M343 510c112 0 173 -55 173 -170c0 -183 -95 -350 -254 -350c-111 0 -171 49 -171 164c0 186 102 356 252 356zM262 55c110 0 179 136 179 286c0 62 -31 104 -98 104c-107 0 -177 -142 -177 -292c0 -63 32 -98 96 -98zM538 721l5 -56s-57 -51 -94 -51
c-40 0 -99 48 -128 48c-23 0 -80 -43 -80 -43l-3 56s62 53 99 53c43 0 100 -48 126 -48c20 0 75 41 75 41z" />
    <glyph glyph-name="odieresis" unicode="&#xf6;" horiz-adv-x="494" 
d="M343 510c112 0 173 -55 173 -170c0 -183 -95 -350 -254 -350c-111 0 -171 49 -171 164c0 186 102 356 252 356zM262 55c110 0 179 136 179 286c0 62 -31 104 -98 104c-107 0 -177 -142 -177 -292c0 -63 32 -98 96 -98zM262 620l21 93h62l-22 -93h-61zM445 620l20 93h62
l-22 -93h-60z" />
    <glyph glyph-name="divide" unicode="&#xf7;" 
d="M178 281v73h57v48h206v-48h56v-73h-319zM300 30v101h75v-101h-75z" />
    <glyph glyph-name="oslash" unicode="&#xf8;" horiz-adv-x="494" 
d="M344 512c33 0 61 -5 85 -15l67 108l45 -20l-72 -113c31 -28 48 -71 48 -130c0 -183 -95 -350 -254 -350c-34 0 -63 5 -87 14l-72 -117l-44 19l77 122c-29 26 -45 67 -45 126c0 186 102 356 252 356zM263 57c110 0 179 136 179 286c0 24 -5 46 -15 63l-106 -167l-107 -173
c13 -6 30 -9 49 -9zM180 97l103 162l109 178c-13 7 -29 10 -48 10c-107 0 -177 -142 -177 -292c0 -24 4 -43 13 -58z" />
    <glyph glyph-name="ugrave" unicode="&#xf9;" horiz-adv-x="498" 
d="M288 741l185 -93l-33 -52l-188 86zM473 500h74l-115 -500h-73l18 87s-76 -97 -161 -97c-79 0 -118 51 -118 126c0 41 11 94 20 130l59 254h74l-58 -249c-8 -32 -19 -86 -19 -120c0 -47 22 -75 68 -75c67 0 154 112 154 112z" />
    <glyph glyph-name="uacute" unicode="&#xfa;" horiz-adv-x="498" 
d="M473 500h74l-115 -500h-73l18 87s-76 -97 -161 -97c-79 0 -118 51 -118 126c0 41 11 94 20 130l59 254h74l-58 -249c-8 -32 -19 -86 -19 -120c0 -47 22 -75 68 -75c67 0 154 112 154 112zM313 596l-7 58l228 94l7 -66z" />
    <glyph glyph-name="ucircumflex" unicode="&#xfb;" horiz-adv-x="498" 
d="M220 587l155 151h53l86 -151h-75l-48 86l-89 -86h-82zM473 500h74l-115 -500h-73l18 87s-76 -97 -161 -97c-79 0 -118 51 -118 126c0 41 11 94 20 130l59 254h74l-58 -249c-8 -32 -19 -86 -19 -120c0 -47 22 -75 68 -75c67 0 154 112 154 112z" />
    <glyph glyph-name="udieresis" unicode="&#xfc;" horiz-adv-x="498" 
d="M248 620l22 93h69l-22 -93h-69zM438 620l20 93h69l-22 -93h-67zM473 500h74l-115 -500h-73l18 87s-76 -97 -161 -97c-79 0 -118 51 -118 126c0 41 11 94 20 130l59 254h74l-58 -249c-8 -32 -19 -86 -19 -120c0 -47 22 -75 68 -75c67 0 154 112 154 112z" />
    <glyph glyph-name="yacute" unicode="&#xfd;" horiz-adv-x="454" 
d="M139 500h74l8 -436h30l218 436h77l-365 -721h-76l115 221h-68zM289 596l-7 58l228 94l7 -66z" />
    <glyph glyph-name="thorn" unicode="&#xfe;" horiz-adv-x="483" 
d="M384 510c142 0 143 -150 114 -252c-50 -187 -124 -268 -266 -268c-47 0 -97 7 -97 9l-52 -219h-70l221 936h71l-63 -266c9 7 76 60 142 60zM224 377l-73 -308l94 -10c98 0 145 69 181 200c19 66 23 180 -64 180c-63 0 -138 -64 -138 -62z" />
    <glyph glyph-name="ydieresis" unicode="&#xff;" horiz-adv-x="454" 
d="M228 620l21 93h69l-22 -93h-68zM418 620l20 93h69l-22 -93h-67zM139 500h74l8 -436h30l218 436h77l-365 -721h-76l115 221h-68z" />
    <glyph glyph-name="Amacron" unicode="&#x100;" horiz-adv-x="554" 
d="M315 829l13 60h294l-14 -60h-293zM24 0l345 692h149l14 -692h-76l-6 177h-259l-89 -177h-78zM414 624l-191 -380h228l-7 380h-30z" />
    <glyph glyph-name="amacron" unicode="&#x101;" horiz-adv-x="500" 
d="M217 -10c-89 0 -128 57 -128 149c0 156 83 371 252 371c63 0 205 -25 205 -25l-76 -325c-15 -63 -28 -158 -28 -158l-73 -3s14 86 18 107c0 0 -83 -116 -170 -116zM342 445c-116 0 -176 -182 -176 -306c0 -53 18 -84 74 -84c63 0 162 131 162 131l57 245s-70 14 -117 14z
M285 639l14 59h275l-15 -59h-274z" />
    <glyph glyph-name="Abreve" unicode="&#x102;" horiz-adv-x="554" 
d="M347 922h66c-8 -52 16 -67 59 -67c41 0 79 26 91 67h66c-23 -80 -80 -127 -170 -127c-84 0 -126 42 -112 127zM24 0l345 692h149l14 -692h-76l-6 177h-259l-89 -177h-78zM414 624l-191 -380h228l-7 380h-30z" />
    <glyph glyph-name="abreve" unicode="&#x103;" horiz-adv-x="500" 
d="M217 -10c-89 0 -128 57 -128 149c0 156 83 371 252 371c63 0 205 -25 205 -25l-76 -325c-15 -63 -28 -158 -28 -158l-73 -3s14 86 18 107c0 0 -83 -116 -170 -116zM342 445c-116 0 -176 -182 -176 -306c0 -53 18 -84 74 -84c63 0 162 131 162 131l57 245s-70 14 -117 14z
M303 731h65c-10 -43 8 -76 61 -76c55 0 85 32 98 76h65c-24 -83 -77 -138 -181 -138c-88 0 -124 55 -108 138z" />
    <glyph glyph-name="Aogonek" unicode="&#x104;" horiz-adv-x="554" 
d="M24 0l345 692h149l14 -688v-4h-5c-30 -25 -87 -83 -87 -117c0 -13 8 -20 24 -20c14 0 48 5 48 5l-7 -63s-45 -9 -77 -9c-46 0 -70 23 -70 63c0 49 60 111 98 142l-6 176h-259l-89 -177h-78zM414 624l-191 -380h228l-7 380h-30z" />
    <glyph glyph-name="aogonek" unicode="&#x105;" horiz-adv-x="500" 
d="M419 -132l-7 -63s-45 -9 -77 -9c-46 0 -70 23 -70 63c0 52 69 120 105 149c4 21 13 80 17 98c0 0 -83 -116 -170 -116c-89 0 -128 57 -128 149c0 156 83 371 252 371c63 0 205 -25 205 -25l-76 -325c-15 -63 -28 -158 -28 -158h-6c-30 -24 -89 -84 -89 -119
c0 -13 8 -20 24 -20c14 0 48 5 48 5zM342 445c-116 0 -176 -182 -176 -306c0 -53 18 -84 74 -84c63 0 162 131 162 131l57 245s-70 14 -117 14z" />
    <glyph glyph-name="Cacute" unicode="&#x106;" horiz-adv-x="504" 
d="M478 75l-5 -63s-89 -22 -168 -22c-130 0 -193 69 -193 198c0 212 103 514 349 514c79 0 166 -23 166 -23l-17 -60s-77 15 -153 15c-174 0 -265 -247 -265 -442c0 -89 37 -134 123 -134c80 0 163 17 163 17zM411 785l-9 57l228 94l9 -65z" />
    <glyph glyph-name="cacute" unicode="&#x107;" horiz-adv-x="405" 
d="M355 510c57 0 125 -19 125 -19l-19 -58s-65 12 -108 12c-127 0 -184 -149 -184 -289c0 -65 28 -101 103 -101c39 0 112 15 112 15l-5 -59s-69 -21 -132 -21c-102 0 -155 55 -155 152c0 192 84 368 263 368zM294 596l-7 58l228 94l7 -66z" />
    <glyph glyph-name="Ccircumflex" unicode="&#x108;" horiz-adv-x="504" 
d="M478 75l-5 -63s-89 -22 -168 -22c-130 0 -193 69 -193 198c0 212 103 514 349 514c79 0 166 -23 166 -23l-17 -60s-77 15 -153 15c-174 0 -265 -247 -265 -442c0 -89 37 -134 123 -134c80 0 163 17 163 17zM335 793l164 138h41l96 -138h-69l-54 81l-96 -81h-82z" />
    <glyph glyph-name="ccircumflex" unicode="&#x109;" horiz-adv-x="405" 
d="M355 510c57 0 125 -19 125 -19l-19 -58s-65 12 -108 12c-127 0 -184 -149 -184 -289c0 -65 28 -101 103 -101c39 0 112 15 112 15l-5 -59s-69 -21 -132 -21c-102 0 -155 55 -155 152c0 192 84 368 263 368zM226 587l155 151h40l87 -151h-69l-48 86l-89 -86h-76z" />
    <glyph glyph-name="Cdotaccent" unicode="&#x10a;" horiz-adv-x="504" 
d="M478 75l-5 -63s-89 -22 -168 -22c-130 0 -193 69 -193 198c0 212 103 514 349 514c79 0 166 -23 166 -23l-17 -60s-77 15 -153 15c-174 0 -265 -247 -265 -442c0 -89 37 -134 123 -134c80 0 163 17 163 17zM450 793l20 90h64l-21 -90h-63z" />
    <glyph glyph-name="cdotaccent" unicode="&#x10b;" horiz-adv-x="405" 
d="M355 510c57 0 125 -19 125 -19l-19 -58s-65 12 -108 12c-127 0 -184 -149 -184 -289c0 -65 28 -101 103 -101c39 0 112 15 112 15l-5 -59s-69 -21 -132 -21c-102 0 -155 55 -155 152c0 192 84 368 263 368zM334 605l21 89h64l-21 -89h-64z" />
    <glyph glyph-name="Ccaron" unicode="&#x10c;" horiz-adv-x="504" 
d="M478 75l-5 -63s-89 -22 -168 -22c-130 0 -193 69 -193 198c0 212 103 514 349 514c79 0 166 -23 166 -23l-17 -60s-77 15 -153 15c-174 0 -265 -247 -265 -442c0 -89 37 -134 123 -134c80 0 163 17 163 17zM666 929l-157 -137h-47l-98 137h74l58 -82l93 82h77z" />
    <glyph glyph-name="ccaron" unicode="&#x10d;" horiz-adv-x="405" 
d="M392 587h-42l-85 151h69l51 -89l90 89h75zM355 510c57 0 125 -19 125 -19l-19 -58s-65 12 -108 12c-127 0 -184 -149 -184 -289c0 -65 28 -101 103 -101c39 0 112 15 112 15l-5 -59s-69 -21 -132 -21c-102 0 -155 55 -155 152c0 192 84 368 263 368z" />
    <glyph glyph-name="Dcaron" unicode="&#x10e;" horiz-adv-x="607" 
d="M78 0h239c231 0 335 275 335 486c0 148 -70 206 -192 206h-222zM572 486c0 -162 -79 -418 -244 -418h-157l127 556h147c89 0 127 -40 127 -138zM627 929l-157 -137h-47l-98 137h74l58 -82l93 82h77z" />
    <glyph glyph-name="dcaron" unicode="&#x10f;" horiz-adv-x="551" 
d="M721 692l-54 -232h-69l55 232h68zM600 718l-167 -718h-72l19 89s-76 -99 -165 -99c-83 0 -126 49 -126 146c0 169 90 374 250 374c58 0 133 -18 133 -18l53 226h75zM399 173l60 257s-66 15 -120 15c-113 0 -173 -184 -173 -308c0 -52 22 -82 72 -82c67 0 161 118 161 118
z" />
    <glyph glyph-name="Dcroat" unicode="&#x110;" horiz-adv-x="611" 
d="M321 0h-239l71 309h-67l16 77h69l71 306h222c122 0 192 -58 192 -206c0 -211 -104 -486 -335 -486zM576 486c0 98 -38 138 -127 138h-147l-55 -238h142l-18 -77h-141l-55 -241h157c165 0 244 256 244 418z" />
    <glyph glyph-name="dcroat" unicode="&#x111;" horiz-adv-x="500" 
d="M600 718l-14 -60h55l-16 -69h-55l-137 -589h-72l19 89s-76 -99 -165 -99c-83 0 -126 49 -126 146c0 169 90 374 250 374c58 0 133 -18 133 -18l22 97h-144l16 69h145l14 60h75zM399 173l60 257s-66 15 -120 15c-113 0 -173 -184 -173 -308c0 -52 22 -82 72 -82
c67 0 161 118 161 118z" />
    <glyph glyph-name="Emacron" unicode="&#x112;" horiz-adv-x="505" 
d="M305 823l13 60h294l-14 -60h-293zM78 0l159 692h386l-16 -68h-309l-55 -238h254l-16 -68h-253l-58 -250h309l-15 -68h-386z" />
    <glyph glyph-name="emacron" unicode="&#x113;" horiz-adv-x="462" 
d="M262 56c74 0 165 22 165 22l-6 -59s-89 -29 -179 -29c-96 0 -151 50 -151 152c0 172 82 368 269 368c90 0 148 -36 148 -122c0 -123 -93 -160 -280 -160h-51c-7 -25 -11 -58 -11 -81c0 -60 39 -91 96 -91zM187 287h55c131 0 192 22 192 100c0 44 -28 60 -77 60
c-91 0 -142 -64 -170 -160zM255 639l14 59h275l-15 -59h-274z" />
    <glyph glyph-name="Ebreve" unicode="&#x114;" horiz-adv-x="505" 
d="M332 923h66c-8 -52 16 -67 59 -67c41 0 79 26 91 67h66c-23 -80 -80 -127 -170 -127c-84 0 -126 42 -112 127zM78 0l159 692h386l-16 -68h-309l-55 -238h254l-16 -68h-253l-58 -250h309l-15 -68h-386z" />
    <glyph glyph-name="ebreve" unicode="&#x115;" horiz-adv-x="462" 
d="M262 56c74 0 165 22 165 22l-6 -59s-89 -29 -179 -29c-96 0 -151 50 -151 152c0 172 82 368 269 368c90 0 148 -36 148 -122c0 -123 -93 -160 -280 -160h-51c-7 -25 -11 -58 -11 -81c0 -60 39 -91 96 -91zM187 287h55c131 0 192 22 192 100c0 44 -28 60 -77 60
c-91 0 -142 -64 -170 -160zM270 731h65c-10 -43 8 -76 61 -76c55 0 85 32 98 76h65c-24 -83 -77 -138 -181 -138c-88 0 -124 55 -108 138z" />
    <glyph glyph-name="Edotaccent" unicode="&#x116;" horiz-adv-x="505" 
d="M418 830l20 90h64l-21 -90h-63zM78 0l159 692h386l-16 -68h-309l-55 -238h254l-16 -68h-253l-58 -250h309l-15 -68h-386z" />
    <glyph glyph-name="edotaccent" unicode="&#x117;" horiz-adv-x="462" 
d="M262 56c74 0 165 22 165 22l-6 -59s-89 -29 -179 -29c-96 0 -151 50 -151 152c0 172 82 368 269 368c90 0 148 -36 148 -122c0 -123 -93 -160 -280 -160h-51c-7 -25 -11 -58 -11 -81c0 -60 39 -91 96 -91zM187 287h55c131 0 192 22 192 100c0 44 -28 60 -77 60
c-91 0 -142 -64 -170 -160zM338 605l21 89h64l-21 -89h-64z" />
    <glyph glyph-name="Eogonek" unicode="&#x118;" horiz-adv-x="505" 
d="M78 0l159 692h386l-16 -68h-309l-55 -238h254l-16 -68h-253l-58 -250h309l-15 -68h-21c-30 -25 -87 -83 -87 -117c0 -13 8 -20 24 -20c14 0 48 5 48 5l-7 -63s-45 -9 -77 -9c-46 0 -70 23 -70 63c0 48 58 109 96 141h-292z" />
    <glyph glyph-name="eogonek" unicode="&#x119;" horiz-adv-x="462" 
d="M398 -112l-7 -63s-45 -9 -77 -9c-46 0 -70 23 -70 63c0 38 35 83 69 116c-23 -3 -46 -5 -71 -5c-96 0 -151 50 -151 152c0 172 82 368 269 368c90 0 148 -36 148 -122c0 -123 -93 -160 -280 -160h-51c-7 -25 -11 -58 -11 -81c0 -60 39 -91 96 -91c74 0 165 22 165 22
l-6 -59s-7 -3 -15 -5c-31 -26 -80 -79 -80 -111c0 -13 8 -20 24 -20c14 0 48 5 48 5zM187 287h55c131 0 192 22 192 100c0 44 -28 60 -77 60c-91 0 -142 -64 -170 -160z" />
    <glyph glyph-name="Ecaron" unicode="&#x11a;" horiz-adv-x="505" 
d="M622 936l-157 -137h-47l-98 137h74l58 -82l93 82h77zM78 0l159 692h386l-16 -68h-309l-55 -238h254l-16 -68h-253l-58 -250h309l-15 -68h-386z" />
    <glyph glyph-name="ecaron" unicode="&#x11b;" horiz-adv-x="462" 
d="M262 56c74 0 165 22 165 22l-6 -59s-89 -29 -179 -29c-96 0 -151 50 -151 152c0 172 82 368 269 368c90 0 148 -36 148 -122c0 -123 -93 -160 -280 -160h-51c-7 -25 -11 -58 -11 -81c0 -60 39 -91 96 -91zM187 287h55c131 0 192 22 192 100c0 44 -28 60 -77 60
c-91 0 -142 -64 -170 -160zM401 587h-42l-85 151h69l51 -89l90 89h75z" />
    <glyph glyph-name="Gcircumflex" unicode="&#x11c;" horiz-adv-x="572" 
d="M339 779l155 151h53l87 -151h-76l-48 86l-89 -86h-82zM398 293l15 66h182l-80 -342s-88 -27 -193 -27c-135 0 -209 63 -209 196c0 245 110 516 356 516c101 0 199 -31 199 -31l-19 -58s-100 21 -190 21c-186 0 -266 -261 -266 -449c0 -89 50 -127 137 -127
c56 0 121 15 121 15l52 220h-105z" />
    <glyph glyph-name="gcircumflex" unicode="&#x11d;" horiz-adv-x="468" 
d="M197 -235c-110 0 -179 47 -179 131c0 76 74 123 132 153c-10 10 -16 23 -16 43c0 44 55 97 55 97c-45 21 -69 59 -69 120c0 96 72 201 201 201c52 0 96 -16 96 -16l148 6l-15 -64h-89c9 -15 17 -37 17 -69c0 -89 -71 -197 -211 -197c-14 0 -33 3 -33 3s-31 -40 -31 -66
c0 -23 24 -29 93 -38c101 -13 151 -42 151 -119c0 -99 -94 -185 -250 -185zM276 7c-45 5 -73 11 -87 16c-45 -23 -100 -66 -100 -111c0 -47 35 -83 111 -83c90 0 174 41 174 115c0 42 -29 54 -98 63zM274 232c92 0 133 80 133 131c0 55 -25 84 -90 84
c-82 0 -126 -76 -126 -135c0 -47 22 -80 83 -80zM211 587l155 151h40l87 -151h-69l-48 86l-89 -86h-76z" />
    <glyph glyph-name="Gbreve" unicode="&#x11e;" horiz-adv-x="572" 
d="M375 923h72c-1 -7 -1 -14 -1 -20c0 -32 20 -55 63 -55c50 0 85 31 97 75h72c-24 -83 -92 -145 -190 -145c-77 0 -114 48 -116 108c0 12 1 24 3 37zM398 293l15 66h182l-80 -342s-88 -27 -193 -27c-135 0 -209 63 -209 196c0 245 110 516 356 516c101 0 199 -31 199 -31
l-19 -58s-100 21 -190 21c-186 0 -266 -261 -266 -449c0 -89 50 -127 137 -127c56 0 121 15 121 15l52 220h-105z" />
    <glyph glyph-name="gbreve" unicode="&#x11f;" horiz-adv-x="468" 
d="M197 -235c-110 0 -179 47 -179 131c0 76 74 123 132 153c-10 10 -16 23 -16 43c0 44 55 97 55 97c-45 21 -69 59 -69 120c0 96 72 201 201 201c52 0 96 -16 96 -16l148 6l-15 -64h-89c9 -15 17 -37 17 -69c0 -89 -71 -197 -211 -197c-14 0 -33 3 -33 3s-31 -40 -31 -66
c0 -23 24 -29 93 -38c101 -13 151 -42 151 -119c0 -99 -94 -185 -250 -185zM276 7c-45 5 -73 11 -87 16c-45 -23 -100 -66 -100 -111c0 -47 35 -83 111 -83c90 0 174 41 174 115c0 42 -29 54 -98 63zM274 232c92 0 133 80 133 131c0 55 -25 84 -90 84
c-82 0 -126 -76 -126 -135c0 -47 22 -80 83 -80zM266 731h65c-10 -43 8 -76 61 -76c55 0 85 32 98 76h65c-24 -83 -77 -138 -181 -138c-88 0 -124 55 -108 138z" />
    <glyph glyph-name="Gdotaccent" unicode="&#x120;" horiz-adv-x="572" 
d="M465 797l21 89h70l-21 -89h-70zM398 293l15 66h182l-80 -342s-88 -27 -193 -27c-135 0 -209 63 -209 196c0 245 110 516 356 516c101 0 199 -31 199 -31l-19 -58s-100 21 -190 21c-186 0 -266 -261 -266 -449c0 -89 50 -127 137 -127c56 0 121 15 121 15l52 220h-105z
" />
    <glyph glyph-name="gdotaccent" unicode="&#x121;" horiz-adv-x="468" 
d="M197 -235c-110 0 -179 47 -179 131c0 76 74 123 132 153c-10 10 -16 23 -16 43c0 44 55 97 55 97c-45 21 -69 59 -69 120c0 96 72 201 201 201c52 0 96 -16 96 -16l148 6l-15 -64h-89c9 -15 17 -37 17 -69c0 -89 -71 -197 -211 -197c-14 0 -33 3 -33 3s-31 -40 -31 -66
c0 -23 24 -29 93 -38c101 -13 151 -42 151 -119c0 -99 -94 -185 -250 -185zM276 7c-45 5 -73 11 -87 16c-45 -23 -100 -66 -100 -111c0 -47 35 -83 111 -83c90 0 174 41 174 115c0 42 -29 54 -98 63zM274 232c92 0 133 80 133 131c0 55 -25 84 -90 84
c-82 0 -126 -76 -126 -135c0 -47 22 -80 83 -80zM324 605l21 89h64l-21 -89h-64z" />
    <glyph glyph-name="Gcommaaccent" unicode="&#x122;" horiz-adv-x="572" 
d="M398 293l15 66h182l-80 -342s-88 -27 -193 -27c-135 0 -209 63 -209 196c0 245 110 516 356 516c101 0 199 -31 199 -31l-19 -58s-100 21 -190 21c-186 0 -266 -261 -266 -449c0 -89 50 -127 137 -127c56 0 121 15 121 15l52 220h-105zM257 -73l-87 -210h61l96 210h-70z
" />
    <glyph glyph-name="gcommaaccent" unicode="&#x123;" horiz-adv-x="468" 
d="M409 794h61l-87 -210h-70zM197 -235c-110 0 -179 47 -179 131c0 76 74 123 132 153c-10 10 -16 23 -16 43c0 44 55 97 55 97c-45 21 -69 59 -69 120c0 96 72 201 201 201c52 0 96 -16 96 -16l148 6l-15 -64h-89c9 -15 17 -37 17 -69c0 -89 -71 -197 -211 -197
c-14 0 -33 3 -33 3s-31 -40 -31 -66c0 -23 24 -29 93 -38c101 -13 151 -42 151 -119c0 -99 -94 -185 -250 -185zM276 7c-45 5 -73 11 -87 16c-45 -23 -100 -66 -100 -111c0 -47 35 -83 111 -83c90 0 174 41 174 115c0 42 -29 54 -98 63zM274 232c92 0 133 80 133 131
c0 55 -25 84 -90 84c-82 0 -126 -76 -126 -135c0 -47 22 -80 83 -80z" />
    <glyph glyph-name="Hcircumflex" unicode="&#x124;" horiz-adv-x="624" 
d="M469 0l73 316h-315l-73 -316h-76l160 692h76l-71 -309h315l71 309h77l-160 -692h-77zM335 793l164 138h41l96 -138h-69l-54 81l-96 -81h-82z" />
    <glyph glyph-name="hcircumflex" unicode="&#x125;" horiz-adv-x="499" 
d="M141 0h-75l166 718h75l-71 -306s77 98 162 98c80 0 118 -51 118 -126c0 -41 -12 -95 -21 -132l-58 -252h-74l58 249c7 32 18 86 18 120c0 47 -19 75 -67 75c-66 0 -155 -113 -155 -113zM290 763l164 138h41l96 -138h-69l-54 81l-96 -81h-82z" />
    <glyph glyph-name="Hbar" unicode="&#x126;" horiz-adv-x="638" 
d="M122 503v1l15 68h80l28 120h73l-28 -120h322l28 120h73l-28 -120h79l-18 -69h-77l-115 -503h-74l72 312h-322l-72 -312h-73l116 503h-79zM247 385h322l27 118h-322z" />
    <glyph glyph-name="hbar" unicode="&#x127;" horiz-adv-x="499" 
d="M145 579l15 65h55l17 74h75l-18 -74h146l-16 -65h-145l-38 -167s77 98 162 98c80 0 118 -51 118 -126c0 -41 -12 -95 -21 -132l-58 -252h-74l58 249c7 32 18 86 18 120c0 47 -19 75 -67 75c-66 0 -155 -113 -155 -113l-76 -331h-75l134 579h-55z" />
    <glyph glyph-name="Itilde" unicode="&#x128;" horiz-adv-x="232" 
d="M471 910l3 -53s-63 -59 -100 -59c-44 0 -109 56 -141 56c-22 0 -87 -49 -87 -49l-2 54s67 60 105 60c49 0 111 -55 140 -55c20 0 82 46 82 46zM78 0l160 692h76l-160 -692h-76z" />
    <glyph glyph-name="itilde" unicode="&#x129;" horiz-adv-x="206" 
d="M66 0l115 500h75l-116 -500h-74zM393 721l5 -56s-57 -51 -94 -51c-40 0 -99 48 -128 48c-23 0 -80 -43 -80 -43l-3 56s62 53 99 53c43 0 100 -48 126 -48c20 0 75 41 75 41z" />
    <glyph glyph-name="Imacron" unicode="&#x12a;" horiz-adv-x="232" 
d="M153 833l13 60h294l-14 -60h-293zM78 0l160 692h76l-160 -692h-76z" />
    <glyph glyph-name="imacron" unicode="&#x12b;" horiz-adv-x="206" 
d="M66 0l115 500h75l-116 -500h-74zM105 639l14 59h275l-15 -59h-274z" />
    <glyph glyph-name="Ibreve" unicode="&#x12c;" horiz-adv-x="232" 
d="M186 922h66c-8 -52 16 -67 59 -67c41 0 79 26 91 67h66c-23 -80 -80 -127 -170 -127c-84 0 -126 42 -112 127zM78 0l160 692h76l-160 -692h-76z" />
    <glyph glyph-name="ibreve" unicode="&#x12d;" horiz-adv-x="206" 
d="M66 0l115 500h75l-116 -500h-74zM122 731h65c-10 -43 8 -76 61 -76c55 0 85 32 98 76h65c-24 -83 -77 -138 -181 -138c-88 0 -124 55 -108 138z" />
    <glyph glyph-name="Iogonek" unicode="&#x12e;" horiz-adv-x="232" 
d="M132 -132l-8 -63s-44 -9 -76 -9c-46 0 -71 23 -71 63c0 50 64 113 101 144l160 689h76l-160 -692c-33 -22 -95 -81 -95 -117c0 -13 8 -20 24 -20c15 0 49 5 49 5z" />
    <glyph glyph-name="iogonek" unicode="&#x12f;" horiz-adv-x="207" 
d="M119 -132l-8 -63s-44 -9 -76 -9c-47 0 -71 23 -71 63c0 51 67 117 103 147l115 494h75l-116 -500c-32 -23 -95 -81 -95 -117c0 -13 8 -20 24 -20c14 0 49 5 49 5zM205 604l21 90h76l-21 -90h-76z" />
    <glyph glyph-name="Idotaccent" unicode="&#x130;" horiz-adv-x="232" 
d="M270 830l20 90h64l-21 -90h-63zM78 0l160 692h76l-160 -692h-76z" />
    <glyph glyph-name="dotlessi" unicode="&#x131;" horiz-adv-x="207" 
d="M66 0l115 500h75l-116 -500h-74z" />
    <glyph glyph-name="Jcircumflex" unicode="&#x134;" horiz-adv-x="265" 
d="M350 692l-132 -574c-37 -160 -59 -188 -211 -188l12 68c83 0 98 16 123 126l132 568h76zM174 793l164 138h41l96 -138h-69l-54 81l-96 -81h-82z" />
    <glyph glyph-name="jcircumflex" unicode="&#x135;" horiz-adv-x="206" 
d="M66 0l115 500h75l-116 -500c-34 -148 -48 -164 -203 -235l-24 60c119 61 129 73 153 175zM89 587l155 151h40l87 -151h-69l-48 86l-89 -86h-76z" />
    <glyph glyph-name="Kcommaaccent" unicode="&#x136;" horiz-adv-x="521" 
d="M229 -73l-87 -210h61l96 210h-70zM422 0l-98 307l-100 -3l-70 -304h-76l160 692h76l-74 -320l91 3l245 317h86l-269 -349l110 -343h-81z" />
    <glyph glyph-name="kcommaaccent" unicode="&#x137;" horiz-adv-x="445" 
d="M91 -283l87 210h70l-96 -210h-61zM141 0h-75l166 718h75l-97 -418l64 3l181 197h87l-212 -232l95 -268h-79l-84 239l-67 -2z" />
    <glyph glyph-name="Lacute" unicode="&#x139;" horiz-adv-x="433" 
d="M316 785l-9 57l228 94l9 -65zM427 0h-349l160 692h76l-144 -624h272z" />
    <glyph glyph-name="lacute" unicode="&#x13a;" horiz-adv-x="215" 
d="M70 0l166 718h74l-165 -718h-75zM249 785l-9 57l228 94l9 -65z" />
    <glyph glyph-name="Lcommaaccent" unicode="&#x13b;" horiz-adv-x="433" 
d="M207 -73l-87 -210h61l96 210h-70zM427 0h-349l160 692h76l-144 -624h272z" />
    <glyph glyph-name="lcommaaccent" unicode="&#x13c;" horiz-adv-x="215" 
d="M57 -73l-87 -210h61l96 210h-70zM70 0l166 718h74l-165 -718h-75z" />
    <glyph glyph-name="Lcaron" unicode="&#x13d;" horiz-adv-x="453" 
d="M554 692l-55 -232h-68l55 232h68zM427 0h-349l160 692h76l-144 -624h272z" />
    <glyph glyph-name="lcaron" unicode="&#x13e;" horiz-adv-x="262" 
d="M432 692l-55 -232h-68l55 232h68zM70 0l166 718h74l-165 -718h-75z" />
    <glyph glyph-name="Lslash" unicode="&#x141;" horiz-adv-x="434" 
d="M429 0h-349l62 268l-54 -34v1l-25 54l98 61l79 342h76l-66 -287l148 93l23 -55l-190 -119l-59 -256h272z" />
    <glyph glyph-name="lslash" unicode="&#x142;" horiz-adv-x="270" 
d="M95 0l64 278l-65 -40l-26 53l110 68l83 359h74l-70 -305l69 43l24 -54l-112 -70l-76 -332h-75z" />
    <glyph glyph-name="Nacute" unicode="&#x143;" horiz-adv-x="631" 
d="M402 785l-9 57l228 94l9 -65zM78 0l160 692h136l104 -613h19l141 613h75l-160 -692h-131l-108 617h-20l-143 -617h-73z" />
    <glyph glyph-name="nacute" unicode="&#x144;" horiz-adv-x="498" 
d="M66 0h74l77 332s87 112 154 112c48 0 68 -28 68 -75c0 -34 -11 -88 -19 -120l-58 -249h74l59 254c9 36 20 89 20 130c0 75 -38 126 -118 126c-85 0 -161 -97 -161 -97l18 87h-73zM300 596l-7 58l228 94l7 -66z" />
    <glyph glyph-name="Ncommaaccent" unicode="&#x145;" horiz-adv-x="631" 
d="M280 -73l-87 -210h61l96 210h-70zM78 0l160 692h136l104 -613h19l141 613h75l-160 -692h-131l-108 617h-20l-143 -617h-73z" />
    <glyph glyph-name="ncommaaccent" unicode="&#x146;" horiz-adv-x="498" 
d="M140 0h-74l115 500h73l-18 -87s76 97 161 97c80 0 118 -51 118 -126c0 -41 -11 -94 -20 -130l-59 -254h-74l58 249c8 32 19 86 19 120c0 47 -20 75 -68 75c-67 0 -154 -112 -154 -112zM125 -283l87 210h70l-96 -210h-61z" />
    <glyph glyph-name="Ncaron" unicode="&#x147;" horiz-adv-x="631" 
d="M669 926l-157 -137h-47l-98 137h74l58 -82l93 82h77zM78 0l160 692h136l104 -613h19l141 613h75l-160 -692h-131l-108 617h-20l-143 -617h-73z" />
    <glyph glyph-name="ncaron" unicode="&#x148;" horiz-adv-x="498" 
d="M140 0h-74l115 500h73l-18 -87s76 97 161 97c80 0 118 -51 118 -126c0 -41 -11 -94 -20 -130l-59 -254h-74l58 249c8 32 19 86 19 120c0 47 -20 75 -68 75c-67 0 -154 -112 -154 -112zM403 587h-42l-85 151h69l51 -89l90 89h75z" />
    <glyph glyph-name="Eng" unicode="&#x14a;" horiz-adv-x="631" 
d="M78 0l160 692h137l104 -613h18l49 210l93 403h74l-27 -116l-132 -574c-37 -160 -57 -189 -208 -189l12 68c81 1 97 16 121 119h-58l-107 617h-20l-143 -617h-73z" />
    <glyph glyph-name="eng" unicode="&#x14b;" horiz-adv-x="492" 
d="M135 0h-70l117 500h71l-17 -65c32 28 95 75 156 75c80 0 114 -30 118 -105c4 -42 -8 -97 -19 -146l-61 -259c-29 -123 -70 -169 -207 -235l-16 66c108 58 132 84 156 182l58 246c11 47 18 88 17 117c-1 43 -22 62 -72 62c-64 0 -145 -70 -145 -70z" />
    <glyph glyph-name="Omacron" unicode="&#x14c;" horiz-adv-x="628" 
d="M335 58c45 0 84 14 116 40c96 79 141 255 141 392c0 100 -42 144 -141 144c-41 0 -78 -12 -109 -37c-99 -81 -149 -267 -149 -395c0 -105 38 -144 142 -144zM326 -10c-145 0 -212 58 -212 207c0 164 54 338 159 433c50 46 112 72 184 72c139 0 215 -63 215 -207
c0 -170 -53 -351 -166 -444c-48 -39 -111 -61 -180 -61zM351 823l13 60h294l-14 -60h-293z" />
    <glyph glyph-name="omacron" unicode="&#x14d;" horiz-adv-x="494" 
d="M343 510c112 0 173 -55 173 -170c0 -183 -95 -350 -254 -350c-111 0 -171 49 -171 164c0 186 102 356 252 356zM262 55c110 0 179 136 179 286c0 62 -31 104 -98 104c-107 0 -177 -142 -177 -292c0 -63 32 -98 96 -98zM245 639l14 59h275l-15 -59h-274z" />
    <glyph glyph-name="Obreve" unicode="&#x14e;" horiz-adv-x="628" 
d="M377 923h66c-8 -52 16 -67 59 -67c41 0 79 26 91 67h66c-23 -80 -80 -127 -170 -127c-84 0 -126 42 -112 127zM335 58c45 0 84 14 116 40c96 79 141 255 141 392c0 100 -42 144 -141 144c-41 0 -78 -12 -109 -37c-99 -81 -149 -267 -149 -395c0 -105 38 -144 142 -144z
M326 -10c-145 0 -212 58 -212 207c0 164 54 338 159 433c50 46 112 72 184 72c139 0 215 -63 215 -207c0 -170 -53 -351 -166 -444c-48 -39 -111 -61 -180 -61z" />
    <glyph glyph-name="obreve" unicode="&#x14f;" horiz-adv-x="494" 
d="M343 510c112 0 173 -55 173 -170c0 -183 -95 -350 -254 -350c-111 0 -171 49 -171 164c0 186 102 356 252 356zM262 55c110 0 179 136 179 286c0 62 -31 104 -98 104c-107 0 -177 -142 -177 -292c0 -63 32 -98 96 -98zM264 731h65c-10 -43 8 -76 61 -76c55 0 85 32 98 76
h65c-24 -83 -77 -138 -181 -138c-88 0 -124 55 -108 138z" />
    <glyph glyph-name="Ohungarumlaut" unicode="&#x150;" horiz-adv-x="628" 
d="M577 771l-42 30l164 131l49 -32zM388 772l-43 29l166 132l46 -32zM335 58c45 0 84 14 116 40c96 79 141 255 141 392c0 100 -42 144 -141 144c-41 0 -78 -12 -109 -37c-99 -81 -149 -267 -149 -395c0 -105 38 -144 142 -144zM326 -10c-145 0 -212 58 -212 207
c0 164 54 338 159 433c50 46 112 72 184 72c139 0 215 -63 215 -207c0 -170 -53 -351 -166 -444c-48 -39 -111 -61 -180 -61z" />
    <glyph glyph-name="ohungarumlaut" unicode="&#x151;" horiz-adv-x="494" 
d="M343 510c112 0 173 -55 173 -170c0 -183 -95 -350 -254 -350c-111 0 -171 49 -171 164c0 186 102 356 252 356zM262 55c110 0 179 136 179 286c0 62 -31 104 -98 104c-107 0 -177 -142 -177 -292c0 -63 32 -98 96 -98zM446 582l-39 41l169 139l43 -43zM264 582l-39 41
l168 138l43 -42z" />
    <glyph glyph-name="OE" unicode="&#x152;" horiz-adv-x="858" 
d="M815 -1h-383c-45 -4 -103 -9 -137 -9c-131 0 -185 60 -188 173c-1 51 7 110 24 182c56 238 152 361 332 361c20 0 106 -6 131 -10h385l-16 -75h-314l-57 -233h257l-16 -73l-256 2l-57 -242h313zM319 65c21 0 89 5 127 8l131 551c-22 3 -82 7 -124 7
c-138 0 -201 -93 -246 -285c-15 -62 -23 -111 -23 -153c0 -86 37 -128 135 -128z" />
    <glyph glyph-name="oe" unicode="&#x153;" horiz-adv-x="799" 
d="M581 60c67 0 173 9 173 9l-12 -63s-101 -16 -182 -16c-78 0 -120 30 -134 84c-41 -57 -95 -84 -181 -84c-104 0 -152 39 -156 120c-3 46 3 94 16 147c39 163 103 253 262 253c81 0 126 -30 141 -94c43 66 105 94 181 94c93 0 144 -43 147 -131c1 -29 -2 -65 -13 -105
l-17 -57l-308 2c-7 -31 -12 -58 -11 -80c3 -52 30 -79 94 -79zM260 59c117 0 145 87 173 199c9 36 17 76 10 116c-8 46 -36 67 -92 67c-97 0 -142 -57 -172 -184c-12 -52 -20 -93 -17 -125c2 -50 29 -73 98 -73zM512 280l239 -2c9 35 13 64 12 87c-1 53 -30 74 -88 74
c-82 0 -136 -46 -163 -159z" />
    <glyph glyph-name="Racute" unicode="&#x154;" horiz-adv-x="564" 
d="M379 259l71 -259h77l-76 269c80 22 178 98 178 256c0 122 -62 167 -180 167h-211l-160 -692h76l61 259h164zM549 523c0 -114 -67 -197 -172 -197h-147l69 299h142c76 0 108 -27 108 -102zM357 785l-9 57l228 94l9 -65z" />
    <glyph glyph-name="racute" unicode="&#x155;" horiz-adv-x="316" 
d="M66 0l116 500h74l-18 -74s93 67 181 85l-20 -77c-64 -16 -175 -75 -175 -75l-83 -359h-75zM202 596l-7 58l228 94l7 -66z" />
    <glyph glyph-name="Rcommaaccent" unicode="&#x156;" horiz-adv-x="564" 
d="M164 -283l87 210h70l-96 -210h-61zM450 0l-71 259h-164l-61 -259h-76l160 692h211c118 0 180 -45 180 -167c0 -158 -98 -234 -178 -256l76 -269h-77zM549 523c0 75 -32 102 -108 102h-142l-69 -299h147c105 0 172 83 172 197z" />
    <glyph glyph-name="rcommaaccent" unicode="&#x157;" horiz-adv-x="316" 
d="M66 0l116 500h74l-18 -74s93 67 181 85l-20 -77c-64 -16 -175 -75 -175 -75l-83 -359h-75zM58 -73l-87 -210h61l96 210h-70z" />
    <glyph glyph-name="Rcaron" unicode="&#x158;" horiz-adv-x="564" 
d="M614 926l-157 -137h-47l-98 137h74l58 -82l93 82h77zM379 259l71 -259h77l-76 269c80 22 178 98 178 256c0 122 -62 167 -180 167h-211l-160 -692h76l61 259h164zM549 523c0 -114 -67 -197 -172 -197h-147l69 299h142c76 0 108 -27 108 -102z" />
    <glyph glyph-name="rcaron" unicode="&#x159;" horiz-adv-x="316" 
d="M66 0l116 500h74l-18 -74s93 67 181 85l-20 -77c-64 -16 -175 -75 -175 -75l-83 -359h-75zM316 587h-42l-85 151h69l51 -89l90 89h75z" />
    <glyph glyph-name="Sacute" unicode="&#x15a;" horiz-adv-x="499" 
d="M590 674l-13 -57s-106 18 -176 18c-99 0 -161 -50 -161 -146c0 -56 32 -70 124 -103c101 -36 141 -67 141 -157c0 -150 -98 -239 -248 -239c-95 0 -201 26 -201 26l13 60s116 -18 191 -18c105 0 166 59 166 164c0 57 -24 73 -113 104c-98 34 -151 65 -151 157
c0 138 96 219 242 219c92 0 186 -28 186 -28zM352 785l-9 57l228 94l9 -65z" />
    <glyph glyph-name="sacute" unicode="&#x15b;" horiz-adv-x="429" 
d="M485 489l-15 -58s-95 14 -159 14c-70 0 -113 -45 -113 -97c0 -33 19 -44 92 -63c89 -22 137 -40 137 -113c0 -123 -97 -182 -218 -182c-77 0 -158 23 -158 23l14 58s92 -16 153 -16c76 0 132 33 132 102c0 40 -27 48 -95 64c-84 21 -132 42 -132 109
c0 108 85 180 197 180c80 0 165 -21 165 -21zM277 596l-7 58l228 94l7 -66z" />
    <glyph glyph-name="Scircumflex" unicode="&#x15c;" horiz-adv-x="499" 
d="M590 674l-13 -57s-106 18 -176 18c-99 0 -161 -50 -161 -146c0 -56 32 -70 124 -103c101 -36 141 -67 141 -157c0 -150 -98 -239 -248 -239c-95 0 -201 26 -201 26l13 60s116 -18 191 -18c105 0 166 59 166 164c0 57 -24 73 -113 104c-98 34 -151 65 -151 157
c0 138 96 219 242 219c92 0 186 -28 186 -28zM279 793l164 138h41l96 -138h-69l-54 81l-96 -81h-82z" />
    <glyph glyph-name="scircumflex" unicode="&#x15d;" horiz-adv-x="429" 
d="M485 489l-15 -58s-95 14 -159 14c-70 0 -113 -45 -113 -97c0 -33 19 -44 92 -63c89 -22 137 -40 137 -113c0 -123 -97 -182 -218 -182c-77 0 -158 23 -158 23l14 58s92 -16 153 -16c76 0 132 33 132 102c0 40 -27 48 -95 64c-84 21 -132 42 -132 109
c0 108 85 180 197 180c80 0 165 -21 165 -21zM213 587l155 151h40l87 -151h-69l-48 86l-89 -86h-76z" />
    <glyph glyph-name="Scedilla" unicode="&#x15e;" horiz-adv-x="499" 
d="M590 674l-13 -57s-106 18 -176 18c-99 0 -161 -50 -161 -146c0 -56 32 -70 124 -103c101 -36 141 -67 141 -157c0 -148 -95 -236 -240 -239l-9 -35h5c55 0 96 -18 82 -79c-13 -60 -50 -87 -108 -87c-42 0 -80 7 -80 7l13 51s37 -3 62 -3c28 0 44 10 51 36
c7 28 -12 33 -34 33h-39l17 78c-85 4 -169 25 -169 25l13 60s116 -18 191 -18c105 0 166 59 166 164c0 57 -24 73 -113 104c-98 34 -151 65 -151 157c0 138 96 219 242 219c92 0 186 -28 186 -28z" />
    <glyph glyph-name="scedilla" unicode="&#x15f;" horiz-adv-x="429" 
d="M298 -124c-13 -60 -50 -87 -108 -87c-42 0 -80 7 -80 7l13 51s37 -3 62 -3c28 0 44 10 51 36c7 28 -12 33 -34 33h-39l18 78c-68 5 -130 22 -130 22l14 58s92 -16 153 -16c76 0 132 33 132 102c0 40 -27 48 -95 64c-84 21 -132 42 -132 109c0 108 85 180 197 180
c80 0 165 -21 165 -21l-15 -58s-95 14 -159 14c-70 0 -113 -45 -113 -97c0 -33 19 -44 92 -63c89 -22 137 -40 137 -113c0 -119 -91 -178 -207 -182l-9 -35h5c55 0 96 -18 82 -79z" />
    <glyph glyph-name="Scaron" unicode="&#x160;" horiz-adv-x="499" 
d="M621 929l-157 -137h-47l-98 137h74l58 -82l93 82h77zM590 674l-13 -57s-106 18 -176 18c-99 0 -161 -50 -161 -146c0 -56 32 -70 124 -103c101 -36 141 -67 141 -157c0 -150 -98 -239 -248 -239c-95 0 -201 26 -201 26l13 60s116 -18 191 -18c105 0 166 59 166 164
c0 57 -24 73 -113 104c-98 34 -151 65 -151 157c0 138 96 219 242 219c92 0 186 -28 186 -28z" />
    <glyph glyph-name="scaron" unicode="&#x161;" horiz-adv-x="429" 
d="M485 489l-15 -58s-95 14 -159 14c-70 0 -113 -45 -113 -97c0 -33 19 -44 92 -63c89 -22 137 -40 137 -113c0 -123 -97 -182 -218 -182c-77 0 -158 23 -158 23l14 58s92 -16 153 -16c76 0 132 33 132 102c0 40 -27 48 -95 64c-84 21 -132 42 -132 109
c0 108 85 180 197 180c80 0 165 -21 165 -21zM373 587h-42l-85 151h69l51 -89l90 89h75z" />
    <glyph glyph-name="Tcedilla" unicode="&#x162;" horiz-adv-x="469" 
d="M329 -124c-13 -60 -50 -87 -108 -87c-42 0 -80 7 -80 7l13 51s37 -3 62 -3c28 0 44 10 51 36c7 28 -12 33 -34 33h-39l20 87h-19l144 624h-185l16 68h447l-16 -68h-186l-144 -624h-18l-11 -45h5c55 0 96 -18 82 -79z" />
    <glyph glyph-name="tcedilla" unicode="&#x163;" horiz-adv-x="318" 
d="M292 -124c-13 -60 -50 -87 -108 -87c-42 0 -80 7 -80 7l13 51s37 -3 62 -3c28 0 44 10 51 36c7 28 -12 33 -34 33h-39l19 83c-41 11 -63 43 -63 89c0 32 8 71 16 103l58 247h-66l17 65h65l35 148h75l-36 -148h140l-16 -65h-140l-58 -251c-7 -28 -12 -61 -12 -83
c0 -28 14 -46 50 -46c26 0 77 6 77 6l-5 -57s-52 -14 -97 -14h-2l-9 -35h5c55 0 96 -18 82 -79z" />
    <glyph glyph-name="Tcaron" unicode="&#x164;" horiz-adv-x="469" 
d="M584 926l-157 -137h-47l-98 137h74l58 -82l93 82h77zM154 624l16 68h447l-16 -68h-186l-144 -624h-76l144 624h-185z" />
    <glyph glyph-name="tcaron" unicode="&#x165;" horiz-adv-x="403" 
d="M569 692l-55 -232h-68l55 232h68zM401 435h-140l-58 -251c-7 -28 -12 -61 -12 -83c0 -28 14 -46 50 -46c26 0 77 6 77 6l-5 -57s-52 -14 -97 -14c-66 0 -103 36 -103 95c0 32 8 71 16 103l58 247h-66l17 65h65l35 148h75l-36 -148h140z" />
    <glyph glyph-name="Tbar" unicode="&#x166;" horiz-adv-x="474" 
d="M156 624l16 68h447l-16 -68h-186l-60 -259h156l-18 -70h-154l-68 -295h-76l68 295h-151l16 70h151l60 259h-185z" />
    <glyph glyph-name="tbar" unicode="&#x167;" horiz-adv-x="322" 
d="M404 435h-140l-27 -115h134l-16 -65h-133l-16 -71c-7 -28 -12 -61 -12 -83c0 -28 14 -46 50 -46c26 0 77 6 77 6l-5 -57s-52 -14 -97 -14c-66 0 -103 36 -103 95c0 32 8 71 16 103l15 67h-54l15 65h55l27 115h-66l17 65h65l35 148h75l-36 -148h140z" />
    <glyph glyph-name="Utilde" unicode="&#x168;" horiz-adv-x="594" 
d="M647 914l3 -53s-63 -59 -100 -59c-44 0 -109 56 -141 56c-22 0 -87 -49 -87 -49l-2 54s67 60 105 60c49 0 111 -55 140 -55c20 0 82 46 82 46zM309 692l-110 -475c-6 -24 -10 -51 -10 -73c0 -63 49 -86 128 -86c109 0 153 52 176 153l111 481h77l-111 -481
c-34 -148 -107 -221 -259 -221c-120 0 -198 45 -198 144c0 27 4 64 11 91l108 467h77z" />
    <glyph glyph-name="utilde" unicode="&#x169;" horiz-adv-x="498" 
d="M542 721l5 -56s-57 -51 -94 -51c-40 0 -99 48 -128 48c-23 0 -80 -43 -80 -43l-3 56s62 53 99 53c43 0 100 -48 126 -48c20 0 75 41 75 41zM473 500h74l-115 -500h-73l18 87s-76 -97 -161 -97c-79 0 -118 51 -118 126c0 41 11 94 20 130l59 254h74l-58 -249
c-8 -32 -19 -86 -19 -120c0 -47 22 -75 68 -75c67 0 154 112 154 112z" />
    <glyph glyph-name="Umacron" unicode="&#x16a;" horiz-adv-x="594" 
d="M309 692l-110 -475c-6 -24 -10 -51 -10 -73c0 -63 49 -86 128 -86c109 0 153 52 176 153l111 481h77l-111 -481c-34 -148 -107 -221 -259 -221c-120 0 -198 45 -198 144c0 27 4 64 11 91l108 467h77zM331 823l13 60h294l-14 -60h-293z" />
    <glyph glyph-name="umacron" unicode="&#x16b;" horiz-adv-x="498" 
d="M473 500h74l-115 -500h-73l18 87s-76 -97 -161 -97c-79 0 -118 51 -118 126c0 41 11 94 20 130l59 254h74l-58 -249c-8 -32 -19 -86 -19 -120c0 -47 22 -75 68 -75c67 0 154 112 154 112zM244 639l14 59h275l-15 -59h-274z" />
    <glyph glyph-name="Ubreve" unicode="&#x16c;" horiz-adv-x="594" 
d="M354 923h66c-8 -52 16 -67 59 -67c41 0 79 26 91 67h66c-23 -80 -80 -127 -170 -127c-84 0 -126 42 -112 127zM309 692l-110 -475c-6 -24 -10 -51 -10 -73c0 -63 49 -86 128 -86c109 0 153 52 176 153l111 481h77l-111 -481c-34 -148 -107 -221 -259 -221
c-120 0 -198 45 -198 144c0 27 4 64 11 91l108 467h77z" />
    <glyph glyph-name="ubreve" unicode="&#x16d;" horiz-adv-x="498" 
d="M473 500h74l-115 -500h-73l18 87s-76 -97 -161 -97c-79 0 -118 51 -118 126c0 41 11 94 20 130l59 254h74l-58 -249c-8 -32 -19 -86 -19 -120c0 -47 22 -75 68 -75c67 0 154 112 154 112zM263 731h65c-10 -43 8 -76 61 -76c55 0 85 32 98 76h65
c-24 -83 -77 -138 -181 -138c-88 0 -124 55 -108 138z" />
    <glyph glyph-name="Uring" unicode="&#x16e;" horiz-adv-x="594" 
d="M597 841c-16 -62 -62 -100 -129 -100c-62 0 -97 37 -80 100c18 68 67 100 129 100c59 0 97 -30 80 -100zM438 841c-6 -27 7 -48 42 -48s59 18 66 48c7 32 -12 48 -42 48c-34 0 -58 -17 -66 -48zM309 692l-110 -475c-6 -24 -10 -51 -10 -73c0 -63 49 -86 128 -86
c109 0 153 52 176 153l111 481h77l-111 -481c-34 -148 -107 -221 -259 -221c-120 0 -198 45 -198 144c0 27 4 64 11 91l108 467h77z" />
    <glyph glyph-name="uring" unicode="&#x16f;" horiz-adv-x="498" 
d="M297 643c11 52 55 97 116 97c51 0 74 -34 68 -85c-6 -66 -57 -111 -117 -111s-79 43 -67 99zM342 643c-6 -24 8 -50 35 -50s51 22 58 49c6 24 -8 47 -34 47c-28 0 -52 -20 -59 -46zM473 500h74l-115 -500h-73l18 87s-76 -97 -161 -97c-79 0 -118 51 -118 126
c0 41 11 94 20 130l59 254h74l-58 -249c-8 -32 -19 -86 -19 -120c0 -47 22 -75 68 -75c67 0 154 112 154 112z" />
    <glyph glyph-name="Uhungarumlaut" unicode="&#x170;" horiz-adv-x="594" 
d="M546 755l-42 30l164 131l49 -32zM357 756l-43 29l166 132l46 -32zM309 692l-110 -475c-6 -24 -10 -51 -10 -73c0 -63 49 -86 128 -86c109 0 153 52 176 153l111 481h77l-111 -481c-34 -148 -107 -221 -259 -221c-120 0 -198 45 -198 144c0 27 4 64 11 91l108 467h77z" />
    <glyph glyph-name="uhungarumlaut" unicode="&#x171;" horiz-adv-x="498" 
d="M468 582l-39 41l169 139l43 -43zM286 582l-39 41l168 138l43 -42zM473 500h74l-115 -500h-73l18 87s-76 -97 -161 -97c-79 0 -118 51 -118 126c0 41 11 94 20 130l59 254h74l-58 -249c-8 -32 -19 -86 -19 -120c0 -47 22 -75 68 -75c67 0 154 112 154 112z" />
    <glyph glyph-name="Uogonek" unicode="&#x172;" horiz-adv-x="595" 
d="M310 692l-110 -475c-6 -24 -10 -51 -10 -73c0 -63 49 -86 128 -86c109 0 153 52 176 153l111 481h77l-111 -481c-34 -148 -107 -221 -259 -221c-7 0 -13 1 -19 1c10 9 19 15 26 21l63 -8c-28 -22 -92 -85 -92 -121c0 -13 8 -20 24 -20c14 0 48 5 48 5l-7 -63
s-45 -9 -77 -9c-46 0 -70 23 -70 63c0 44 48 98 85 132c-109 4 -179 49 -179 143c0 27 4 64 11 91l108 467h77z" />
    <glyph glyph-name="uogonek" unicode="&#x173;" horiz-adv-x="498" 
d="M473 500h74l-115 -500c-31 -22 -93 -81 -93 -117c0 -13 8 -20 24 -20c14 0 48 5 48 5l-7 -63s-45 -9 -77 -9c-46 0 -70 23 -70 63c0 51 66 116 103 146l17 82s-76 -97 -161 -97c-79 0 -118 51 -118 126c0 41 11 94 20 130l59 254h74l-58 -249c-8 -32 -19 -86 -19 -120
c0 -47 22 -75 68 -75c67 0 154 112 154 112z" />
    <glyph glyph-name="Wcircumflex" unicode="&#x174;" horiz-adv-x="829" 
d="M436 790l164 138h41l96 -138h-69l-54 81l-96 -81h-82zM187 692h76l-31 -621h26l269 611h84l-19 -611h26l262 621h77l-298 -692h-133l19 570l-248 -570h-137z" />
    <glyph glyph-name="wcircumflex" unicode="&#x175;" horiz-adv-x="731" 
d="M144 500h75l-9 -435h19l205 425h88l4 -425h19l196 435h76l-227 -500h-133l-3 393l-187 -393h-130zM346 587l155 151h40l87 -151h-69l-48 86l-89 -86h-76z" />
    <glyph glyph-name="Ycircumflex" unicode="&#x176;" horiz-adv-x="493" 
d="M272 790l164 138h41l96 -138h-69l-54 81l-96 -81h-82zM641 692l-293 -396l-69 -296h-73l70 302l-106 390h78l81 -323l229 323h83z" />
    <glyph glyph-name="ycircumflex" unicode="&#x177;" horiz-adv-x="454" 
d="M139 500h74l8 -436h30l218 436h77l-365 -721h-76l115 221h-68zM216 587l155 151h40l87 -151h-69l-48 86l-89 -86h-76z" />
    <glyph glyph-name="Ydieresis" unicode="&#x178;" horiz-adv-x="493" 
d="M298 813l21 93h62l-23 -93h-60zM485 813l22 93h62l-23 -93h-61zM641 692l-293 -396l-69 -296h-73l70 302l-106 390h78l81 -323l229 323h83z" />
    <glyph glyph-name="Zacute" unicode="&#x179;" horiz-adv-x="495" 
d="M336 785l-9 57l228 94l9 -65zM184 624l16 68h416l-24 -102l-448 -498l-6 -24h332l-16 -68h-416l22 99l448 498l6 27h-330z" />
    <glyph glyph-name="zacute" unicode="&#x17a;" horiz-adv-x="418" 
d="M154 500l-16 -65h252l-340 -371l-12 -64h342l15 65h-255l341 371l14 64h-341zM258 596l-7 58l228 94l7 -66z" />
    <glyph glyph-name="Zdotaccent" unicode="&#x17b;" horiz-adv-x="495" 
d="M394 830l20 90h64l-21 -90h-63zM184 624l16 68h416l-24 -102l-448 -498l-6 -24h332l-16 -68h-416l22 99l448 498l6 27h-330z" />
    <glyph glyph-name="zdotaccent" unicode="&#x17c;" horiz-adv-x="418" 
d="M154 500l-16 -65h252l-340 -371l-12 -64h342l15 65h-255l341 371l14 64h-341zM306 605l21 89h64l-21 -89h-64z" />
    <glyph glyph-name="Zcaron" unicode="&#x17d;" horiz-adv-x="495" 
d="M606 925l-157 -137h-47l-98 137h74l58 -82l93 82h77zM184 624l16 68h416l-24 -102l-448 -498l-6 -24h332l-16 -68h-416l22 99l448 498l6 27h-330z" />
    <glyph glyph-name="zcaron" unicode="&#x17e;" horiz-adv-x="418" 
d="M355 587h-42l-85 151h69l51 -89l90 89h75zM138 435l16 65h341l-14 -64l-341 -371h255l-15 -65h-342l12 64l340 371h-252z" />
    <glyph glyph-name="florin" unicode="&#x192;" 
d="M374 359l-102 -426c-32 -134 -87 -176 -175 -176c-32 0 -71 8 -71 8l15 64s38 -3 64 -3c44 0 74 28 94 111l101 422h-103l16 72h104l12 51c41 156 87 204 178 204c40 0 98 -6 111 -9l-16 -66s-69 4 -97 4c-60 0 -83 -49 -106 -148l-9 -36h157l-17 -72h-156z" />
    <glyph glyph-name="Aringacute" unicode="&#x1fa;" horiz-adv-x="554" 
d="M24 0l334 669c-13 17 -16 41 -8 71c18 68 67 100 129 100c59 0 97 -30 80 -100c-8 -29 -21 -53 -41 -70l14 -670h-76l-6 177h-259l-89 -177h-78zM414 624l-191 -380h228l-7 380h-30zM387 876l-7 58l228 94l7 -66zM400 740c-6 -27 7 -48 42 -48h5c32 1 54 19 61 48
c7 32 -12 48 -42 48c-34 0 -58 -17 -66 -48z" />
    <glyph glyph-name="aringacute" unicode="&#x1fb;" horiz-adv-x="500" 
d="M345 768l-8 65l228 93l8 -73zM217 -10c-89 0 -128 57 -128 149c0 156 83 371 252 371c63 0 205 -25 205 -25l-76 -325c-15 -63 -28 -158 -28 -158l-73 -3s14 86 18 107c0 0 -83 -116 -170 -116zM342 445c-116 0 -176 -182 -176 -306c0 -53 18 -84 74 -84
c63 0 162 131 162 131l57 245s-70 14 -117 14zM311 643c11 52 55 97 116 97c51 0 74 -34 68 -85c-6 -66 -57 -111 -117 -111s-79 43 -67 99zM356 643c-6 -24 8 -50 35 -50s51 22 58 49c6 24 -8 47 -34 47c-28 0 -52 -20 -59 -46z" />
    <glyph glyph-name="AEacute" unicode="&#x1fc;" horiz-adv-x="780" 
d="M348 0l41 177h-201l-90 -177h-73l345 696h530l-15 -72l-317 2l-57 -240h260l-15 -69h-261l-58 -245h315l-15 -72h-389zM408 624l-187 -377h185l90 377h-88zM547 785l-9 57l228 94l9 -65z" />
    <glyph glyph-name="aeacute" unicode="&#x1fd;" horiz-adv-x="749" 
d="M531 60c68 0 173 9 173 9l-13 -63s-101 -16 -180 -16c-65 0 -107 19 -129 54c-51 -22 -156 -54 -216 -54c-88 0 -116 76 -99 154c19 98 86 133 174 147c51 8 102 12 151 14c15 44 38 132 -45 132c-70 0 -180 -11 -180 -11l12 69s114 15 187 15c56 0 99 -25 109 -74
c42 51 100 74 166 74c93 0 142 -45 144 -135c0 -33 -4 -67 -14 -103l-15 -55l-305 2c-7 -29 -11 -56 -10 -79c2 -50 25 -80 90 -80zM190 57c48 0 128 22 176 38c-10 49 2 98 14 149c-52 -4 -99 -9 -138 -14c-51 -8 -87 -33 -100 -84c-9 -38 -3 -89 48 -89zM464 280l237 -2
c9 34 12 62 11 86c-2 54 -31 78 -88 78c-82 0 -133 -49 -160 -162zM431 596l-7 58l228 94l7 -66z" />
    <glyph glyph-name="Oslashacute" unicode="&#x1fe;" horiz-adv-x="630" 
d="M112 -114l-42 25l90 133c-31 33 -45 83 -45 153c0 164 54 338 159 433c50 46 112 72 184 72c52 0 96 -9 130 -28l84 123l47 -21l-91 -134c29 -34 45 -82 45 -147c0 -170 -53 -351 -166 -444c-48 -39 -111 -61 -180 -61c-53 0 -95 8 -127 24zM208 116l162 238l175 257
c-22 16 -53 23 -93 23c-41 0 -78 -12 -109 -37c-99 -81 -149 -267 -149 -395c0 -36 4 -65 14 -86zM336 58c45 0 84 14 116 40c96 79 141 255 141 392c0 32 -4 59 -14 80l-163 -241l-173 -252c22 -13 53 -19 93 -19zM420 778l-9 64l228 94l10 -72z" />
    <glyph glyph-name="oslashacute" unicode="&#x1ff;" horiz-adv-x="494" 
d="M343 510c34 0 63 -5 88 -16l68 111l45 -20l-74 -116c30 -28 46 -71 46 -129c0 -183 -95 -350 -254 -350c-33 0 -61 4 -85 13l-70 -114l-44 19l75 118c-31 26 -47 68 -47 128c0 186 102 356 252 356zM180 93l106 166l108 175c-14 7 -31 11 -51 11
c-107 0 -177 -142 -177 -292c0 -25 5 -45 14 -60zM262 55c110 0 179 136 179 286c0 23 -5 44 -14 60l-103 -162l-109 -176c13 -5 28 -8 47 -8zM294 596l-7 58l228 94l7 -66z" />
    <glyph glyph-name="Scommaaccent" unicode="&#x218;" horiz-adv-x="499" 
d="M211 -73l-87 -210h61l96 210h-70zM590 674l-13 -57s-106 18 -176 18c-99 0 -161 -50 -161 -146c0 -56 32 -70 124 -103c101 -36 141 -67 141 -157c0 -150 -98 -239 -248 -239c-95 0 -201 26 -201 26l13 60s116 -18 191 -18c105 0 166 59 166 164c0 57 -24 73 -113 104
c-98 34 -151 65 -151 157c0 138 96 219 242 219c92 0 186 -28 186 -28z" />
    <glyph glyph-name="scommaaccent" unicode="&#x219;" horiz-adv-x="428" 
d="M484 489l-15 -58s-95 14 -159 14c-70 0 -113 -45 -113 -97c0 -33 19 -44 92 -63c89 -22 137 -40 137 -113c0 -123 -97 -182 -218 -182c-77 0 -158 23 -158 23l14 58s92 -16 153 -16c76 0 132 33 132 102c0 40 -27 48 -95 64c-84 21 -132 42 -132 109
c0 108 85 180 197 180c80 0 165 -21 165 -21zM172 -73l-87 -210h61l96 210h-70z" />
    <glyph glyph-name="Tcommaaccent" unicode="&#x21a;" horiz-adv-x="469" 
d="M186 -73l-87 -210h61l96 210h-70zM154 624l16 68h447l-16 -68h-186l-144 -624h-76l144 624h-185z" />
    <glyph glyph-name="tcommaaccent" unicode="&#x21b;" horiz-adv-x="318" 
d="M401 435h-140l-58 -251c-7 -28 -12 -61 -12 -83c0 -28 14 -46 50 -46c26 0 77 6 77 6l-5 -57s-52 -14 -97 -14c-66 0 -103 36 -103 95c0 32 8 71 16 103l58 247h-66l17 65h65l35 148h75l-36 -148h140zM141 -73l-87 -210h61l96 210h-70z" />
    <glyph glyph-name="circumflex" unicode="&#x2c6;" horiz-adv-x="791" 
d="M384 587l155 151h40l87 -151h-69l-48 86l-89 -86h-76z" />
    <glyph glyph-name="caron" unicode="&#x2c7;" horiz-adv-x="791" 
d="M545 587h-42l-85 151h69l51 -89l90 89h75z" />
    <glyph glyph-name="breve" unicode="&#x2d8;" horiz-adv-x="439" 
d="M237 731h65c-10 -43 8 -76 61 -76c55 0 85 32 98 76h65c-24 -83 -77 -138 -181 -138c-88 0 -124 55 -108 138z" />
    <glyph glyph-name="dotaccent" unicode="&#x2d9;" horiz-adv-x="224" 
d="M222 605l21 89h64l-21 -89h-64z" />
    <glyph glyph-name="ring" unicode="&#x2da;" horiz-adv-x="791" 
d="M313 643c11 52 55 97 116 97c51 0 74 -34 68 -85c-6 -66 -57 -111 -117 -111s-79 43 -67 99zM358 643c-6 -24 8 -50 35 -50s51 22 58 49c6 24 -8 47 -34 47c-28 0 -52 -20 -59 -46z" />
    <glyph glyph-name="ogonek" unicode="&#x2db;" horiz-adv-x="427" 
d="M299 -132l-7 -63s-45 -9 -77 -9c-46 0 -70 23 -70 63c0 55 77 127 111 153l63 -8c-28 -22 -92 -85 -92 -121c0 -13 8 -20 24 -20c14 0 48 5 48 5z" />
    <glyph glyph-name="tilde" unicode="&#x2dc;" horiz-adv-x="427" 
d="M519 721l5 -56s-57 -51 -94 -51c-40 0 -99 48 -128 48c-23 0 -80 -43 -80 -43l-3 56s62 53 99 53c43 0 100 -48 126 -48c20 0 75 41 75 41z" />
    <glyph glyph-name="hungarumlaut" unicode="&#x2dd;" horiz-adv-x="666" 
d="M502 582l-39 41l169 139l43 -43zM320 582l-39 41l168 138l43 -42z" />
    <glyph glyph-name="pi" unicode="&#x3c0;" 
d="M423 154v281h-156l-28 -435h-76l31 435c-65 -1 -108 -13 -108 -13v63s59 15 142 15h235c73 0 131 14 131 14v-63s-28 -12 -96 -14v-283c0 -75 17 -93 87 -93v-65c-133 0 -162 30 -162 158z" />
    <glyph glyph-name="Wgrave" unicode="&#x1e80;" horiz-adv-x="829" 
d="M508 930l185 -94l-34 -56l-188 86zM187 692h76l-31 -621h26l269 611h84l-19 -611h26l262 621h77l-298 -692h-133l19 570l-248 -570h-137z" />
    <glyph glyph-name="wgrave" unicode="&#x1e81;" horiz-adv-x="731" 
d="M386 741l185 -93l-33 -52l-188 86zM144 500h75l-9 -435h19l205 425h88l4 -425h19l196 435h76l-227 -500h-133l-3 393l-187 -393h-130z" />
    <glyph glyph-name="Wacute" unicode="&#x1e82;" horiz-adv-x="829" 
d="M505 785l-9 57l228 94l9 -65zM187 692h76l-31 -621h26l269 611h84l-19 -611h26l262 621h77l-298 -692h-133l19 570l-248 -570h-137z" />
    <glyph glyph-name="wacute" unicode="&#x1e83;" horiz-adv-x="731" 
d="M144 500h75l-9 -435h19l205 425h88l4 -425h19l196 435h76l-227 -500h-133l-3 393l-187 -393h-130zM406 596l-7 58l228 94l7 -66z" />
    <glyph glyph-name="Wdieresis" unicode="&#x1e84;" horiz-adv-x="829" 
d="M468 814l21 93h62l-23 -93h-60zM655 814l22 93h62l-23 -93h-61zM187 692h76l-31 -621h26l269 611h84l-19 -611h26l262 621h77l-298 -692h-133l19 570l-248 -570h-137z" />
    <glyph glyph-name="wdieresis" unicode="&#x1e85;" horiz-adv-x="731" 
d="M144 500h75l-9 -435h19l205 425h88l4 -425h19l196 435h76l-227 -500h-133l-3 393l-187 -393h-130zM373 620l21 93h62l-22 -93h-61zM556 620l20 93h62l-22 -93h-60z" />
    <glyph glyph-name="uni1EAB" unicode="&#x1eab;" horiz-adv-x="500" 
d="M217 -10c-89 0 -128 57 -128 149c0 156 83 371 252 371c63 0 205 -25 205 -25l-76 -325c-15 -63 -28 -158 -28 -158l-73 -3s14 86 18 107c0 0 -83 -116 -170 -116zM342 445c-116 0 -176 -182 -176 -306c0 -53 18 -84 74 -84c63 0 162 131 162 131l57 245s-70 14 -117 14z
M594 845l5 -56s-57 -51 -94 -51c-40 0 -99 48 -128 48c-23 0 -80 -43 -80 -43l-3 56s62 53 99 53c43 0 100 -48 126 -48c20 0 75 41 75 41zM252 557l155 151h40l87 -151h-69l-48 86l-89 -86h-76z" />
    <glyph glyph-name="uni1EB0" unicode="&#x1eb0;" horiz-adv-x="554" 
d="M441 1083l185 -93l-33 -52l-188 86zM24 0l345 692h149l14 -692h-76l-6 177h-259l-89 -177h-78zM414 624l-191 -380h228l-7 380h-30zM345 883h66c-8 -52 16 -67 59 -67c41 0 79 26 91 67h66c-23 -80 -80 -127 -170 -127c-84 0 -126 42 -112 127z" />
    <glyph glyph-name="uni1EC5" unicode="&#x1ec5;" horiz-adv-x="462" 
d="M575 845l5 -56s-57 -51 -94 -51c-40 0 -99 48 -128 48c-23 0 -80 -43 -80 -43l-3 56s62 53 99 53c43 0 100 -48 126 -48c20 0 75 41 75 41zM262 56c74 0 165 22 165 22l-6 -59s-89 -29 -179 -29c-96 0 -151 50 -151 152c0 172 82 368 269 368c90 0 148 -36 148 -122
c0 -123 -93 -160 -280 -160h-51c-7 -25 -11 -58 -11 -81c0 -60 39 -91 96 -91zM187 287h55c131 0 192 22 192 100c0 44 -28 60 -77 60c-91 0 -142 -64 -170 -160zM233 557l155 151h40l87 -151h-69l-48 86l-89 -86h-76z" />
    <glyph glyph-name="uni1ED7" unicode="&#x1ed7;" horiz-adv-x="494" 
d="M343 510c112 0 173 -55 173 -170c0 -183 -95 -350 -254 -350c-111 0 -171 49 -171 164c0 186 102 356 252 356zM262 55c110 0 179 136 179 286c0 62 -31 104 -98 104c-107 0 -177 -142 -177 -292c0 -63 32 -98 96 -98zM580 845l5 -56s-57 -51 -94 -51
c-40 0 -99 48 -128 48c-23 0 -80 -43 -80 -43l-3 56s62 53 99 53c43 0 100 -48 126 -48c20 0 75 41 75 41zM232 557l155 151h40l87 -151h-69l-48 86l-89 -86h-76z" />
    <glyph glyph-name="Ygrave" unicode="&#x1ef2;" horiz-adv-x="493" 
d="M341 930l185 -94l-34 -56l-188 86zM641 692l-293 -396l-69 -296h-73l70 302l-106 390h78l81 -323l229 323h83z" />
    <glyph glyph-name="ygrave" unicode="&#x1ef3;" horiz-adv-x="454" 
d="M252 741l185 -93l-33 -52l-188 86zM139 500h74l8 -436h30l218 436h77l-365 -721h-76l115 221h-68z" />
    <glyph glyph-name="uni1EF8" unicode="&#x1ef8;" horiz-adv-x="493" 
d="M590 917l5 -56s-57 -51 -94 -51c-40 0 -99 48 -128 48c-23 0 -80 -43 -80 -43l-3 56s62 53 99 53c43 0 100 -48 126 -48c20 0 75 41 75 41zM641 692l-293 -396l-69 -296h-73l70 302l-106 390h78l81 -323l229 323h83z" />
    <glyph glyph-name="uni1EF9" unicode="&#x1ef9;" horiz-adv-x="454" 
d="M529 721l5 -56s-57 -51 -94 -51c-40 0 -99 48 -128 48c-23 0 -80 -43 -80 -43l-3 56s62 53 99 53c43 0 100 -48 126 -48c20 0 75 41 75 41zM139 500h74l8 -436h30l218 436h77l-365 -721h-76l115 221h-68z" />
    <glyph glyph-name="endash" unicode="&#x2013;" horiz-adv-x="594" 
d="M109 301h500v-66h-500v66z" />
    <glyph glyph-name="emdash" unicode="&#x2014;" horiz-adv-x="1094" 
d="M109 301h1000v-66h-1000v66z" />
    <glyph glyph-name="quoteleft" unicode="&#x2018;" horiz-adv-x="181" 
d="M252 691h56l-91 -223h-76z" />
    <glyph glyph-name="quoteright" unicode="&#x2019;" horiz-adv-x="181" 
d="M199 469h-56l91 223h76z" />
    <glyph glyph-name="quotesinglbase" unicode="&#x201a;" horiz-adv-x="172" 
d="M42 -134h-56l91 223h76z" />
    <glyph glyph-name="quotedblleft" unicode="&#x201c;" horiz-adv-x="338" 
d="M251 692h56l-91 -223h-76zM409 692h56l-91 -223h-76z" />
    <glyph glyph-name="quotedblright" unicode="&#x201d;" horiz-adv-x="339" 
d="M199 469h-56l91 223h76zM357 469h-56l91 223h76z" />
    <glyph glyph-name="quotedblbase" unicode="&#x201e;" horiz-adv-x="325" 
d="M248 88h56l-91 -223h-76zM82 88h56l-91 -223h-76z" />
    <glyph glyph-name="dagger" unicode="&#x2020;" horiz-adv-x="444" 
d="M126 421l17 77l158 -2l45 190h70l-44 -188h158l-17 -77l-159 1l-118 -497h-69l116 496h-157z" />
    <glyph glyph-name="daggerdbl" unicode="&#x2021;" horiz-adv-x="481" 
d="M187 -75l44 188h-159l17 76l159 -1l55 233h-157l17 77l158 -2l45 190h70l-44 -188h158l-18 -77l-158 1l-55 -233h158l-18 -76l-158 1l-45 -189h-69z" />
    <glyph glyph-name="bullet" unicode="&#x2022;" horiz-adv-x="485" 
d="M175 106v286h250v-286h-250z" />
    <glyph glyph-name="ellipsis" unicode="&#x2026;" horiz-adv-x="640" 
d="M47 0l26 111h76l-26 -111h-76zM283 0l26 111h76l-26 -111h-76zM518 0l26 111h76l-26 -111h-76z" />
    <glyph glyph-name="perthousand" unicode="&#x2030;" horiz-adv-x="816" 
d="M293 650c38 0 44 -28 29 -87c-15 -60 -35 -90 -73 -90c-36 0 -41 31 -27 90c15 59 35 87 71 87zM156 4l363 705l51 -14l-363 -704zM162 563c-24 -97 7 -142 75 -142c66 0 121 45 145 142c24 96 -8 138 -76 138s-120 -42 -144 -138zM341 142c24 96 76 138 144 138
s100 -42 76 -139c-24 -96 -78 -141 -145 -141s-99 45 -75 142zM402 142c-15 -60 -10 -91 26 -91c37 0 58 31 73 90c14 59 9 87 -28 87s-57 -28 -71 -86zM599 142c24 96 76 138 144 138c67 0 100 -42 76 -139c-24 -96 -78 -141 -145 -141s-99 45 -75 142zM659 142
c-15 -60 -10 -91 27 -91s57 31 72 90s9 87 -28 87c-36 0 -56 -28 -71 -86z" />
    <glyph glyph-name="guilsinglleft" unicode="&#x2039;" horiz-adv-x="256" 
d="M307 409l-22 -77l-131 -87l88 -96l-20 -69l-142 149l14 38z" />
    <glyph glyph-name="guilsinglright" unicode="&#x203a;" horiz-adv-x="257" 
d="M63 80l22 77l131 87l-88 96l20 69l142 -149l-14 -38z" />
    <glyph glyph-name="fraction" unicode="&#x2044;" horiz-adv-x="21" 
d="M-84 -25l-70 25l427 692l70 -26z" />
    <glyph glyph-name="zerosuperior" unicode="&#x2070;" horiz-adv-x="280" 
d="M327 800c73 0 109 -41 78 -166c-18 -72 -42 -117 -75 -142c-24 -19 -53 -24 -86 -24c-74 0 -108 41 -77 166c18 72 43 117 75 142c24 18 53 24 85 24zM312 741c-36 0 -59 -26 -79 -107c-22 -86 -8 -107 26 -107c35 0 58 21 80 107c20 80 11 107 -27 107z" />
    <glyph glyph-name="foursuperior" unicode="&#x2074;" horiz-adv-x="280" 
d="M275 478l11 48h-141l13 55l122 209h72l-124 -205h73l28 88h58l-23 -88h27l-14 -59h-27l-12 -48h-63z" />
    <glyph glyph-name="fivesuperior" unicode="&#x2075;" horiz-adv-x="280" 
d="M237 790h187l-14 -57h-133l-24 -71s29 15 61 15c54 0 88 -28 70 -99c-21 -80 -68 -108 -135 -108c-48 0 -104 13 -104 13l19 55s52 -11 92 -11c28 0 52 16 60 49c9 34 -4 45 -29 45c-27 0 -56 -15 -56 -15l-48 6z" />
    <glyph glyph-name="sixsuperior" unicode="&#x2076;" horiz-adv-x="280" 
d="M428 790l-17 -54s-49 6 -83 6c-41 0 -65 -21 -79 -73c17 6 43 14 63 14c70 0 93 -39 77 -103c-19 -74 -65 -112 -139 -112c-77 0 -104 53 -77 162c30 120 81 170 168 170c37 0 87 -10 87 -10zM290 628c-27 0 -56 -16 -56 -16c-12 -54 -7 -87 29 -87c34 0 52 24 60 54
c9 36 1 49 -33 49z" />
    <glyph glyph-name="sevensuperior" unicode="&#x2077;" horiz-adv-x="280" 
d="M199 728l15 62h208l-19 -77l-166 -244l-72 15l161 223l5 21h-132z" />
    <glyph glyph-name="eightsuperior" unicode="&#x2078;" horiz-adv-x="280" 
d="M328 800c75 0 107 -29 93 -85c-11 -44 -35 -67 -63 -74c23 -8 43 -26 31 -74c-20 -78 -71 -99 -144 -99c-72 0 -113 25 -96 95c13 50 44 70 70 79c-21 8 -38 27 -27 73c15 59 59 85 136 85zM259 523c34 0 55 13 64 44c6 26 -4 38 -28 46h-27c-28 -8 -44 -20 -51 -49
c-8 -28 9 -41 42 -41zM314 745c-35 0 -52 -12 -58 -36s2 -35 24 -44h28c28 9 40 20 46 43c6 25 -5 37 -40 37z" />
    <glyph glyph-name="ninesuperior" unicode="&#x2079;" horiz-adv-x="280" 
d="M145 480l17 53s44 -6 81 -6c45 0 69 25 81 71c1 0 -36 -12 -65 -12c-64 0 -91 39 -74 104c17 71 69 110 139 110c79 0 103 -56 76 -167c-30 -120 -75 -165 -166 -165c-41 0 -89 12 -89 12zM282 639c23 0 58 15 58 15c13 56 7 88 -29 88c-30 0 -52 -17 -61 -51
c-7 -30 4 -52 32 -52z" />
    <glyph glyph-name="zeroinferior" unicode="&#x2080;" horiz-adv-x="280" 
d="M218 322c73 0 109 -41 78 -166c-18 -72 -42 -117 -75 -142c-24 -19 -53 -24 -86 -24c-74 0 -108 41 -77 166c18 72 43 117 75 142c24 18 53 24 85 24zM203 263c-36 0 -59 -26 -79 -107c-22 -86 -8 -107 26 -107c35 0 58 21 80 107c20 80 11 107 -27 107z" />
    <glyph glyph-name="oneinferior" unicode="&#x2081;" horiz-adv-x="280" 
d="M82 142l119 70h60l-77 -312h-64l60 242l-80 -47z" />
    <glyph glyph-name="twoinferior" unicode="&#x2082;" horiz-adv-x="280" 
d="M219 -100h-210l14 56l110 86c38 30 63 53 71 83c7 26 -11 36 -40 36s-87 -10 -87 -10l12 59s63 12 106 12c69 0 93 -29 77 -91c-12 -46 -41 -77 -90 -113l-76 -60h127z" />
    <glyph glyph-name="threeinferior" unicode="&#x2083;" horiz-adv-x="280" 
d="M84 212c0 0 62 10 105 10c71 0 99 -26 85 -84c-12 -49 -51 -70 -59 -75c27 -10 42 -24 29 -76c-17 -66 -65 -97 -132 -97c-49 0 -110 10 -110 10l18 56s56 -7 99 -7c35 0 53 16 59 41c9 32 -8 42 -35 42h-66l13 54h65c18 0 43 19 50 44c5 23 -5 33 -38 33
c-42 0 -93 -7 -93 -7z" />
    <glyph glyph-name="fourinferior" unicode="&#x2084;" horiz-adv-x="280" 
d="M148 -100l11 48h-141l13 55l122 209h72l-124 -205h73l28 88h58l-23 -88h27l-14 -59h-27l-12 -48h-63z" />
    <glyph glyph-name="fiveinferior" unicode="&#x2085;" horiz-adv-x="280" 
d="M97 212h187l-14 -57h-133l-24 -71s29 15 61 15c54 0 88 -28 70 -99c-21 -80 -68 -108 -135 -108c-48 0 -104 13 -104 13l19 55s52 -11 92 -11c28 0 52 16 60 49c9 34 -4 45 -29 45c-27 0 -56 -15 -56 -15l-48 6z" />
    <glyph glyph-name="sixinferior" unicode="&#x2086;" horiz-adv-x="280" 
d="M293 212l-17 -54s-49 6 -83 6c-41 0 -65 -21 -79 -73c17 6 43 14 63 14c70 0 93 -39 77 -103c-19 -74 -65 -112 -139 -112c-77 0 -104 53 -77 162c30 120 81 170 168 170c37 0 87 -10 87 -10zM155 50c-27 0 -56 -16 -56 -16c-12 -54 -7 -87 29 -87c34 0 52 24 60 54
c9 36 1 49 -33 49z" />
    <glyph glyph-name="seveninferior" unicode="&#x2087;" horiz-adv-x="280" 
d="M70 150l15 62h208l-19 -77l-166 -244l-72 15l161 223l5 21h-132z" />
    <glyph glyph-name="eightinferior" unicode="&#x2088;" horiz-adv-x="280" 
d="M195 222c75 0 107 -29 93 -85c-11 -44 -35 -67 -63 -74c23 -8 43 -26 31 -74c-20 -78 -71 -99 -144 -99c-72 0 -113 25 -96 95c13 50 44 70 70 79c-21 8 -38 27 -27 73c15 59 59 85 136 85zM126 -55c34 0 55 13 64 44c6 26 -4 38 -28 46h-27c-28 -8 -44 -20 -51 -49
c-8 -28 9 -41 42 -41zM181 167c-35 0 -52 -12 -58 -36s2 -35 24 -44h28c28 9 40 20 46 43c6 25 -5 37 -40 37z" />
    <glyph glyph-name="nineinferior" unicode="&#x2089;" horiz-adv-x="280" 
d="M11 -98l17 53s44 -6 81 -6c45 0 69 25 81 71c1 0 -36 -12 -65 -12c-64 0 -91 39 -74 104c17 71 69 110 139 110c79 0 103 -56 76 -167c-30 -120 -75 -165 -166 -165c-41 0 -89 12 -89 12zM148 61c23 0 58 15 58 15c13 56 7 88 -29 88c-30 0 -52 -17 -61 -51
c-7 -30 4 -52 32 -52z" />
    <glyph glyph-name="Euro" unicode="&#x20ac;" 
d="M502 72l-5 -61s-85 -21 -161 -21c-124 0 -184 66 -184 190v29h-52l14 62h44c4 34 12 70 22 105h-42l15 61h47c51 128 143 234 285 234c76 0 159 -22 159 -22l-16 -58s-74 15 -146 15c-93 0 -161 -73 -203 -169h268l-14 -61h-276c-11 -34 -18 -70 -23 -105h275l-14 -62
h-267v-26c0 -85 36 -128 118 -128c76 0 156 17 156 17z" />
    <glyph glyph-name="trademark" unicode="&#x2122;" horiz-adv-x="699" 
d="M219 580v50h200v-50h-66v-248h-55v248h-79zM450 331v299h71l67 -208l70 208h71v-299h-52v224l-67 -209h-43l-65 209v-224h-52z" />
    <glyph glyph-name="Omega" unicode="&#x2126;" 
d="M99 57h121s-108 178 -108 319c0 196 48 295 221 295s222 -99 222 -295c0 -141 -109 -319 -109 -319h122v-66h-197v57s104 197 104 308c0 166 -18 246 -142 246s-141 -80 -141 -246c0 -111 103 -308 103 -308v-57h-196v66z" />
    <glyph glyph-name="partialdiff" unicode="&#x2202;" 
d="M178 617l-4 61s85 50 174 50c161 0 235 -108 235 -367c0 -249 -67 -370 -231 -370c-147 0 -223 72 -223 224c0 132 78 215 210 215c80 0 164 -30 164 -30c-5 185 -48 262 -167 262c-73 0 -158 -45 -158 -45zM347 364c-92 0 -139 -62 -139 -149c0 -101 48 -158 144 -158
c106 0 150 90 152 277c0 0 -80 30 -157 30z" />
    <glyph glyph-name="Delta" unicode="&#x2206;" 
d="M85 57l159 603h135l159 -604v-56h-453v57zM324 595h-26l-136 -529h298z" />
    <glyph glyph-name="product" unicode="&#x220f;" 
d="M484 -163v849h-206v-849h-77v849h-69v68h500v-68h-71v-849h-77z" />
    <glyph glyph-name="summation" unicode="&#x2211;" 
d="M379 308l-267 346v99h470v-68h-389v-22l256 -329v-55l-256 -348v-25h389v-69h-470v101z" />
    <glyph glyph-name="minus" unicode="&#x2212;" 
d="M124 217v68h427v-68h-427z" />
    <glyph glyph-name="radical" unicode="&#x221a;" 
d="M114 378v68h122l128 -517h10l227 848h77l-249 -913h-122l-134 514h-59z" />
    <glyph glyph-name="infinity" unicode="&#x221e;" 
d="M222 121c-84 0 -125 62 -125 171s41 171 123 171c62 0 98 -37 127 -106c29 69 64 106 127 106c82 0 123 -62 123 -171s-41 -171 -125 -171c-61 0 -96 36 -125 104c-31 -80 -62 -104 -125 -104zM320 292c-23 51 -39 104 -91 104c-45 0 -60 -38 -60 -104
c0 -60 16 -104 60 -104c52 0 61 32 91 104zM374 292c23 -51 39 -104 91 -104c44 0 60 38 60 104s-15 104 -60 104c-52 0 -68 -53 -91 -104z" />
    <glyph glyph-name="integral" unicode="&#x222b;" 
d="M385 -6c0 -138 -48 -181 -135 -181c-37 0 -88 8 -88 8l2 64s39 -4 70 -4c55 0 75 28 75 114v581c0 155 44 204 136 204c42 0 92 -9 92 -9l-3 -64s-37 5 -74 5c-50 0 -75 -33 -75 -137v-581z" />
    <glyph glyph-name="approxequal" unicode="&#x2248;" 
d="M541 385l10 -61s-59 -54 -113 -54c-56 0 -159 62 -201 62s-106 -47 -106 -47l-10 62s62 53 117 53c56 0 155 -61 200 -61c38 0 103 46 103 46zM541 200l10 -61s-59 -54 -113 -54c-56 0 -159 62 -201 62s-106 -47 -106 -47l-10 62s62 53 117 53c56 0 155 -61 200 -61
c38 0 103 46 103 46z" />
    <glyph glyph-name="notequal" unicode="&#x2260;" 
d="M121 309v69h228l68 155l61 -24l-58 -131h133v-69h-163l-51 -116h214v-69h-244l-66 -152l-60 24l56 128h-118v69h148l50 116h-198z" />
    <glyph glyph-name="lessequal" unicode="&#x2264;" 
d="M535 422l-335 -102l335 -110v-76l-422 150v68l422 145v-75zM113 22v68h422v-68h-422z" />
    <glyph glyph-name="greaterequal" unicode="&#x2265;" 
d="M462 320l-335 102v75l422 -145v-68l-422 -150v76zM549 90v-68h-422v68h422z" />
    <glyph glyph-name="lozenge" unicode="&#x25ca;" 
d="M503 329l-100 67h10l168 -67l-168 -65h-9zM129 329l168 67h9l-99 -67l98 -65h-8zM366 239h-23l-38 25h99zM306 396l37 25h23l37 -25h-97z" />
    <glyph glyph-name="dotlessj" unicode="&#xf6be;" horiz-adv-x="207" 
d="M66 0l115 500h75l-116 -500c-34 -148 -48 -164 -203 -235l-24 60c119 61 129 73 153 175z" />
    <glyph glyph-name="commaaccent" unicode="&#xf6c3;" horiz-adv-x="161" 
d="M-45 -283l87 210h70l-96 -210h-61z" />
    <glyph glyph-name=".null" horiz-adv-x="0" 
 />
    <glyph glyph-name="CR" horiz-adv-x="223" 
 />
    <glyph glyph-name="DLE" horiz-adv-x="0" 
 />
    <glyph glyph-name="zero.pnum" horiz-adv-x="515" 
d="M377 509c124 0 172 -58 172 -167c0 -92 -36 -217 -122 -290c-45 -38 -105 -61 -180 -61c-115 0 -166 58 -166 163c0 122 51 247 145 311c42 29 93 44 151 44zM361 439c-122 0 -198 -136 -198 -272c0 -71 30 -106 103 -106c166 0 201 217 201 265c0 78 -29 113 -106 113z
" />
    <glyph glyph-name="one.pnum" horiz-adv-x="324" 
d="M105 383l211 117h76l-124 -500h-80l101 408l-163 -89z" />
    <glyph glyph-name="two.pnum" horiz-adv-x="439" 
d="M411 0h-380l16 68l189 134c76 52 162 121 162 179c0 33 -17 56 -95 56c-62 0 -163 -17 -164 -18l12 67s107 23 187 23c106 0 147 -48 147 -107c0 -98 -67 -157 -141 -208l-176 -123h256z" />
    <glyph glyph-name="three.pnum" horiz-adv-x="452" 
d="M161 489c0 0 106 20 184 20c117 0 154 -43 154 -93c0 -113 -85 -147 -122 -152c46 -9 77 -42 77 -83c0 -93 -60 -190 -226 -190c-87 0 -194 20 -194 20l25 66s102 -15 177 -15c99 0 142 50 142 107c0 49 -56 57 -97 57h-122l17 67h124c57 0 120 33 120 97
c0 38 -25 49 -93 49c-76 0 -175 -16 -175 -16z" />
    <glyph glyph-name="four.pnum" horiz-adv-x="460" 
d="M297 0l24 100h-273l15 60l248 340h89l-244 -332h183l31 126h76l-31 -126h61l-17 -68h-61l-25 -100h-76z" />
    <glyph glyph-name="five.pnum" horiz-adv-x="460" 
d="M186 501h335l-18 -72h-266l-49 -141s73 28 127 28c95 0 153 -37 153 -119c0 -119 -82 -206 -234 -206c-75 0 -194 24 -194 24l24 68s114 -24 181 -24c87 0 143 55 143 126c0 41 -21 66 -95 66c-54 0 -139 -34 -139 -34l-54 13z" />
    <glyph glyph-name="six.pnum" horiz-adv-x="473" 
d="M532 489l-22 -61s-73 14 -144 14c-91 0 -157 -47 -187 -163c28 14 100 36 152 36c119 0 151 -42 151 -113c0 -101 -60 -212 -246 -212c-110 0 -154 62 -154 151c0 194 99 369 294 369c68 0 156 -21 156 -21zM309 252c-66 0 -145 -36 -145 -36c-3 -16 -8 -47 -8 -67
c0 -52 18 -97 97 -97c137 0 154 107 154 140c0 35 -16 60 -98 60z" />
    <glyph glyph-name="seven.pnum" horiz-adv-x="398" 
d="M121 432l18 69h351l-24 -99l-316 -418l-62 35l297 389l7 24h-271z" />
    <glyph glyph-name="eight.pnum" horiz-adv-x="489" 
d="M366 509c116 0 172 -44 172 -102c0 -78 -52 -123 -124 -143c54 -23 74 -56 74 -93c0 -98 -63 -181 -251 -181c-115 0 -176 43 -176 105c0 95 64 142 134 169c-52 26 -63 57 -63 86c0 80 73 159 234 159zM254 60c114 0 154 47 154 113c0 27 -23 43 -69 55h-89
c-59 -12 -105 -49 -105 -114c0 -34 33 -54 109 -54zM346 443c-122 0 -134 -66 -134 -94c0 -24 9 -40 55 -55h88c59 17 101 40 101 97c0 33 -31 52 -110 52z" />
    <glyph glyph-name="nine.pnum" horiz-adv-x="472" 
d="M55 11l22 61s73 -14 143 -14c94 0 166 58 191 168c-39 -16 -100 -36 -155 -36c-118 0 -150 49 -150 113c0 90 61 207 245 207c109 0 153 -63 153 -152c0 -198 -98 -368 -293 -368c-68 0 -156 21 -156 21zM278 253c66 0 147 35 147 35c4 17 6 43 6 63c0 52 -19 97 -98 97
c-137 0 -152 -102 -152 -135c0 -30 16 -60 97 -60z" />
    <glyph glyph-name="questiondown.cap" horiz-adv-x="392" 
d="M60 129c0 99 39 138 164 235c48 37 72 70 78 101l8 39h71s-1 -33 -7 -62c-8 -44 -41 -84 -101 -130c-99 -78 -133 -110 -133 -178c0 -52 39 -68 101 -68c60 0 144 18 144 18l-6 -61s-88 -25 -154 -25c-96 0 -165 36 -165 131zM423 699l-25 -116h-77l26 116h76z" />
    <glyph glyph-name="endash.cap" horiz-adv-x="594" 
d="M115 331h500v-66h-500v66z" />
    <glyph glyph-name="emdash.cap" horiz-adv-x="1094" 
d="M115 331h1000v-66h-1000v66z" />
    <glyph glyph-name="periodcentered.cap" horiz-adv-x="170" 
d="M111 279l26 117h77l-26 -117h-77z" />
    <glyph glyph-name="exclamdown.cap" horiz-adv-x="189" 
d="M237 462l-106 -470h-77l116 470h67zM290 692l-25 -111h-76l25 111h76z" />
    <glyph glyph-name="parenleft.cap" horiz-adv-x="226" 
d="M314 778h71s-220 -333 -220 -635c0 -141 15 -237 15 -237h-71s-21 87 -21 237c0 325 226 635 226 635z" />
    <glyph glyph-name="parenright.cap" horiz-adv-x="228" 
d="M73 -88h-71s220 333 220 635c0 141 -15 237 -15 237h71s21 -87 21 -237c0 -325 -226 -635 -226 -635z" />
    <glyph glyph-name="bracketleft.cap" horiz-adv-x="276" 
d="M235 777h195l-15 -65h-119l-173 -739h119l-17 -65h-193z" />
    <glyph glyph-name="bracketright.cap" horiz-adv-x="275" 
d="M199 -91h-195l15 65h119l173 739h-119l17 65h193z" />
    <glyph glyph-name="braceleft.cap" horiz-adv-x="313" 
d="M237 252c0 -40 -48 -160 -48 -212c0 -46 29 -69 89 -69l-19 -68c-94 2 -144 41 -144 115c0 57 47 177 47 216c0 41 -22 63 -72 81l14 59c91 24 108 53 121 115c8 36 21 118 29 140c33 106 92 149 213 154l-12 -68c-89 -5 -122 -45 -138 -115c-4 -21 -18 -101 -22 -120
c-19 -84 -50 -115 -121 -138c37 -17 63 -40 63 -90z" />
    <glyph glyph-name="braceright.cap" horiz-adv-x="313" 
d="M234 431c0 40 48 160 48 212c0 46 -29 69 -89 69l19 68c94 -2 144 -41 144 -115c0 -57 -47 -177 -47 -216c0 -41 22 -63 72 -81l-14 -59c-91 -24 -108 -53 -121 -115c-8 -36 -21 -118 -29 -140c-33 -106 -92 -149 -213 -154l12 68c89 5 122 45 138 115
c4 21 18 101 22 120c19 84 50 115 121 138c-37 17 -63 40 -63 90z" />
    <glyph glyph-name="grave.cap" horiz-adv-x="490" 
d="M361 930l185 -94l-34 -56l-188 86z" />
    <glyph glyph-name="caron.cap" horiz-adv-x="439" 
d="M576 929l-157 -137h-47l-98 137h74l58 -82l93 82h77z" />
    <glyph glyph-name="tilde.cap" horiz-adv-x="433" 
d="M587 921l3 -53s-63 -59 -100 -59c-44 0 -109 56 -141 56c-22 0 -87 -49 -87 -49l-2 54s67 60 105 60c49 0 111 -55 140 -55c20 0 82 46 82 46z" />
    <glyph glyph-name="dieresis.cap" horiz-adv-x="387" 
d="M285 814l21 93h62l-23 -93h-60zM472 814l22 93h62l-23 -93h-61z" />
    <glyph glyph-name="macron.cap" horiz-adv-x="439" 
d="M263 823l13 60h294l-14 -60h-293z" />
    <glyph glyph-name="breve.cap" horiz-adv-x="439" 
d="M286 923h66c-8 -52 16 -67 59 -67c41 0 79 26 91 67h66c-23 -80 -80 -127 -170 -127c-84 0 -126 42 -112 127z" />
    <glyph glyph-name="ring.cap" horiz-adv-x="315" 
d="M438 777c-16 -62 -62 -100 -129 -100c-62 0 -97 37 -80 100c18 68 67 100 129 100c59 0 97 -30 80 -100zM279 777c-6 -27 7 -48 42 -48s59 18 66 48c7 32 -12 48 -42 48c-34 0 -58 -17 -66 -48z" />
    <glyph glyph-name="hungarumlaut.cap" horiz-adv-x="666" 
d="M546 755l-42 30l164 131l49 -32zM357 756l-43 29l166 132l46 -32z" />
    <glyph glyph-name="dotaccent.cap" horiz-adv-x="224" 
d="M263 793l20 90h64l-21 -90h-63z" />
    <glyph glyph-name="zero.numr" horiz-adv-x="280" 
d="M303 700c73 0 109 -41 78 -166c-18 -72 -42 -117 -75 -142c-24 -19 -53 -24 -86 -24c-74 0 -108 41 -77 166c18 72 43 117 75 142c24 18 53 24 85 24zM288 641c-36 0 -59 -26 -79 -107c-22 -86 -8 -107 26 -107c35 0 58 21 80 107c20 80 11 107 -27 107z" />
    <glyph glyph-name="one.numr" horiz-adv-x="280" 
d="M182 620l119 70h60l-77 -312h-64l60 242l-80 -47z" />
    <glyph glyph-name="two.numr" horiz-adv-x="280" 
d="M328 378h-210l14 56l110 86c38 30 63 53 71 83c7 26 -11 36 -40 36s-87 -10 -87 -10l12 59s63 12 106 12c69 0 93 -29 77 -91c-12 -46 -41 -77 -90 -113l-76 -60h127z" />
    <glyph glyph-name="three.numr" horiz-adv-x="280" 
d="M198 690c0 0 62 10 105 10c71 0 99 -26 85 -84c-12 -49 -51 -70 -59 -75c27 -10 42 -24 29 -76c-17 -66 -65 -97 -132 -97c-49 0 -110 10 -110 10l18 56s56 -7 99 -7c35 0 53 16 59 41c9 32 -8 42 -35 42h-66l13 54h65c18 0 43 19 50 44c5 23 -5 33 -38 33
c-42 0 -93 -7 -93 -7z" />
    <glyph glyph-name="four.numr" horiz-adv-x="280" 
d="M252 378l11 48h-141l13 55l122 209h72l-124 -205h73l28 88h58l-23 -88h27l-14 -59h-27l-12 -48h-63z" />
    <glyph glyph-name="five.numr" horiz-adv-x="280" 
d="M213 690h187l-14 -57h-133l-24 -71s29 15 61 15c54 0 88 -28 70 -99c-21 -80 -68 -108 -135 -108c-48 0 -104 13 -104 13l19 55s52 -11 92 -11c28 0 52 16 60 49c9 34 -4 45 -29 45c-27 0 -56 -15 -56 -15l-48 6z" />
    <glyph glyph-name="six.numr" horiz-adv-x="280" 
d="M402 690l-17 -54s-49 6 -83 6c-41 0 -65 -21 -79 -73c17 6 43 14 63 14c70 0 93 -39 77 -103c-19 -74 -65 -112 -139 -112c-77 0 -104 53 -77 162c30 120 81 170 168 170c37 0 87 -10 87 -10zM264 528c-27 0 -56 -16 -56 -16c-12 -54 -7 -87 29 -87c34 0 52 24 60 54
c9 36 1 49 -33 49z" />
    <glyph glyph-name="seven.numr" horiz-adv-x="280" 
d="M182 628l15 62h208l-19 -77l-166 -244l-72 15l161 223l5 21h-132z" />
    <glyph glyph-name="eight.numr" horiz-adv-x="280" 
d="M304 700c75 0 107 -29 93 -85c-11 -44 -35 -67 -63 -74c23 -8 43 -26 31 -74c-20 -78 -71 -99 -144 -99c-72 0 -113 25 -96 95c13 50 44 70 70 79c-21 8 -38 27 -27 73c15 59 59 85 136 85zM235 423c34 0 55 13 64 44c6 26 -4 38 -28 46h-27c-28 -8 -44 -20 -51 -49
c-8 -28 9 -41 42 -41zM290 645c-35 0 -52 -12 -58 -36s2 -35 24 -44h28c28 9 40 20 46 43c6 25 -5 37 -40 37z" />
    <glyph glyph-name="nine.numr" horiz-adv-x="280" 
d="M124 380l17 53s44 -6 81 -6c45 0 69 25 81 71c1 0 -36 -12 -65 -12c-64 0 -91 39 -74 104c17 71 69 110 139 110c79 0 103 -56 76 -167c-30 -120 -75 -165 -166 -165c-41 0 -89 12 -89 12zM261 539c23 0 58 15 58 15c13 56 7 88 -29 88c-30 0 -52 -17 -61 -51
c-7 -30 4 -52 32 -52z" />
    <glyph glyph-name="zero.slash" 
d="M414 671c41 0 76 -7 105 -21l96 148l52 -20l-104 -159c33 -34 51 -85 51 -151c0 -228 -99 -478 -320 -478c-47 0 -88 11 -119 33l-92 -141l-50 18l104 160c-25 33 -39 77 -39 131c0 244 117 480 316 480zM532 460c0 34 -6 62 -18 84l-296 -454c21 -19 49 -29 82 -29
c157 0 232 222 232 399zM408 600c-159 0 -228 -226 -228 -402c0 -22 3 -42 8 -59l288 445c-18 10 -41 16 -68 16z" />
    <glyph glyph-name="at.cap" horiz-adv-x="910" 
d="M647 813c326 0 379 -194 324 -424c-62 -256 -131 -307 -239 -307c-54 0 -89 15 -98 56c-40 -20 -130 -56 -191 -56c-138 -1 -132 134 -116 226c34 185 114 294 254 294c39 0 126 -13 195 -25c-11 -45 -79 -331 -81 -382c-1 -36 19 -42 53 -42c60 0 105 38 154 246
c45 192 23 348 -268 348c-250 0 -381 -116 -448 -390c-51 -214 -12 -400 281 -400c37 0 136 9 136 9l-13 -66s-96 -9 -141 -9c-344 0 -388 246 -336 466c79 334 241 456 534 456zM461 149c54 0 122 31 160 52c3 34 42 212 69 322c-26 6 -74 14 -112 14
c-100 0 -146 -91 -176 -230c-17 -79 -13 -157 59 -158z" />
    <glyph glyph-name="zero.dnom" horiz-adv-x="280" 
d="M196 222c73 0 109 -41 78 -166c-18 -72 -42 -117 -75 -142c-24 -19 -53 -24 -86 -24c-74 0 -108 41 -77 166c18 72 43 117 75 142c24 18 53 24 85 24zM181 163c-36 0 -59 -26 -79 -107c-22 -86 -8 -107 26 -107c35 0 58 21 80 107c20 80 11 107 -27 107z" />
    <glyph glyph-name="one.dnom" horiz-adv-x="280" 
d="M79 142l119 70h60l-77 -312h-64l60 242l-80 -47z" />
    <glyph glyph-name="two.dnom" horiz-adv-x="280" 
d="M221 -100h-210l14 56l110 86c38 30 63 53 71 83c7 26 -11 36 -40 36s-87 -10 -87 -10l12 59s63 12 106 12c69 0 93 -29 77 -91c-12 -46 -41 -77 -90 -113l-76 -60h127z" />
    <glyph glyph-name="three.dnom" horiz-adv-x="280" 
d="M85 212c0 0 62 10 105 10c71 0 99 -26 85 -84c-12 -49 -51 -70 -59 -75c27 -10 42 -24 29 -76c-17 -66 -65 -97 -132 -97c-49 0 -110 10 -110 10l18 56s56 -7 99 -7c35 0 53 16 59 41c9 32 -8 42 -35 42h-66l13 54h65c18 0 43 19 50 44c5 23 -5 33 -38 33
c-42 0 -93 -7 -93 -7z" />
    <glyph glyph-name="four.dnom" horiz-adv-x="280" 
d="M149 -100l11 48h-141l13 55l122 209h72l-124 -205h73l28 88h58l-23 -88h27l-14 -59h-27l-12 -48h-63z" />
    <glyph glyph-name="five.dnom" horiz-adv-x="280" 
d="M97 212h187l-14 -57h-133l-24 -71s29 15 61 15c54 0 88 -28 70 -99c-21 -80 -68 -108 -135 -108c-48 0 -104 13 -104 13l19 55s52 -11 92 -11c28 0 52 16 60 49c9 34 -4 45 -29 45c-27 0 -56 -15 -56 -15l-48 6z" />
    <glyph glyph-name="six.dnom" horiz-adv-x="280" 
d="M292 212l-17 -54s-49 6 -83 6c-41 0 -65 -21 -79 -73c17 6 43 14 63 14c70 0 93 -39 77 -103c-19 -74 -65 -112 -139 -112c-77 0 -104 53 -77 162c30 120 81 170 168 170c37 0 87 -10 87 -10zM154 50c-27 0 -56 -16 -56 -16c-12 -54 -7 -87 29 -87c34 0 52 24 60 54
c9 36 1 49 -33 49z" />
    <glyph glyph-name="seven.dnom" horiz-adv-x="280" 
d="M70 150l15 62h208l-19 -77l-166 -244l-72 15l161 223l5 21h-132z" />
    <glyph glyph-name="eight.dnom" horiz-adv-x="280" 
d="M196 222c75 0 107 -29 93 -85c-11 -44 -35 -67 -63 -74c23 -8 43 -26 31 -74c-20 -78 -71 -99 -144 -99c-72 0 -113 25 -96 95c13 50 44 70 70 79c-21 8 -38 27 -27 73c15 59 59 85 136 85zM127 -55c34 0 55 13 64 44c6 26 -4 38 -28 46h-27c-28 -8 -44 -20 -51 -49
c-8 -28 9 -41 42 -41zM182 167c-35 0 -52 -12 -58 -36s2 -35 24 -44h28c28 9 40 20 46 43c6 25 -5 37 -40 37z" />
    <glyph glyph-name="nine.dnom" horiz-adv-x="280" 
d="M12 -98l17 53s44 -6 81 -6c45 0 69 25 81 71c1 0 -36 -12 -65 -12c-64 0 -91 39 -74 104c17 71 69 110 139 110c79 0 103 -56 76 -167c-30 -120 -75 -165 -166 -165c-41 0 -89 12 -89 12zM149 61c23 0 58 15 58 15c13 56 7 88 -29 88c-30 0 -52 -17 -61 -51
c-7 -30 4 -52 32 -52z" />
    <glyph glyph-name="hyphen.cap" horiz-adv-x="336" 
d="M104 263l17 69h247l-17 -69h-247z" />
    <glyph glyph-name="acute.cap.001" horiz-adv-x="505" 
d="M325 785l-9 57l228 94l9 -65z" />
    <glyph glyph-name="circumflex.cap.001" horiz-adv-x="439" 
d="M244 793l164 138h41l96 -138h-69l-54 81l-96 -81h-82z" />
    </font>
</defs>
</svg>
