<?xml version="1.0" standalone="no"?>
<!DOCTYPE svg PUBLIC "-//W3C//DTD SVG 1.1//EN" "http://www.w3.org/Graphics/SVG/1.1/DTD/svg11.dtd" >
<svg version="1.1" xmlns="http://www.w3.org/2000/svg">
<metadata>
Created by FontForge 20120731 at Fri Aug  1 16:50:39 2014

Copyright (c) 2008-2011 by Accademia di Belle Arti di Urbino and others. All rights reserved.
</metadata>
<defs>
<font id="titillium" horiz-adv-x="560" >
  <font-face 
    font-family="Titillium"
    font-weight="600"
    font-stretch="normal"
    units-per-em="1000"
    panose-1="0 0 7 0 0 0 0 0 0 0"
    ascent="750"
    descent="-250"
    x-height="500"
    cap-height="685"
    bbox="-224 -300 1062 1101"
    underline-thickness="30"
    underline-position="-80"
    stemh="97"
    stemv="111"
    unicode-range="U+0020-F6C3"
  />
<missing-glyph horiz-adv-x="235" 
 />
    <glyph glyph-name=".notdef" horiz-adv-x="235" 
 />
    <glyph glyph-name="space" unicode=" " horiz-adv-x="220" 
 />
    <glyph glyph-name="exclam" unicode="!" horiz-adv-x="266" 
d="M74 0v140h117v-140h-117zM85 241l-10 444h116l-10 -444h-96z" />
    <glyph glyph-name="quotedbl" unicode="&#x22;" horiz-adv-x="395" 
d="M329 453h-95l-4 232h105zM160 453h-96l-4 232h106z" />
    <glyph glyph-name="numbersign" unicode="#" 
d="M540 160h-102v-160h-95v160h-126v-160h-95v160h-102v91h102v152h-102v91h102v169h95v-169h126v169h95v-169h102v-91h-102v-152h102v-91zM343 251v152h-126v-152h126z" />
    <glyph glyph-name="dollar" unicode="$" 
d="M488 648l-9 -86s-71 8 -130 12l-25 -193c130 -37 179 -75 179 -185c0 -144 -91 -207 -221 -207h-8l-14 -116s-64 3 -64 7l14 113c-72 7 -144 22 -144 22l11 86s79 -11 145 -15l27 207c-133 36 -190 80 -190 191c0 132 88 187 220 187h18l17 134h64l-18 -139
c66 -7 128 -18 128 -18zM166 491c0 -51 24 -70 96 -93l23 179c-79 -1 -119 -30 -119 -86zM395 190c0 46 -21 67 -84 86l-25 -192c74 3 109 39 109 106z" />
    <glyph glyph-name="percent" unicode="%" 
d="M138 -6l222 697l62 -21l-222 -696zM136 671c73 0 115 -45 115 -142s-43 -144 -115 -144c-73 0 -116 47 -116 144s43 142 116 142zM102 529c0 -51 8 -76 34 -76s34 24 34 76s-8 75 -34 75s-34 -23 -34 -75zM424 275c73 0 116 -46 116 -142c0 -97 -43 -144 -116 -144
c-72 0 -115 47 -115 144c0 96 42 142 115 142zM390 133c0 -52 8 -77 34 -77c27 0 34 25 34 77c0 51 -7 74 -34 74c-26 0 -34 -23 -34 -74z" />
    <glyph glyph-name="ampersand" unicode="&#x26;" horiz-adv-x="696" 
d="M315 707c125 0 191 -57 191 -157c0 -93 -42 -136 -145 -196l122 -121c9 26 21 102 23 143l105 -2c-8 -71 -29 -158 -49 -205l119 -109l-62 -71l-113 98c-44 -60 -120 -98 -209 -98c-197 0 -259 79 -259 210c0 114 48 166 148 203c-53 62 -63 93 -63 156
c0 92 74 149 192 149zM285 86c62 0 121 22 147 62l-189 189c-65 -25 -95 -61 -95 -129c0 -80 41 -122 137 -122zM233 536c0 -34 13 -63 45 -97l22 -23c68 38 96 66 96 123c0 52 -26 76 -81 76c-51 0 -82 -25 -82 -79z" />
    <glyph glyph-name="quotesingle" unicode="'" horiz-adv-x="225" 
d="M64 453l-3 232h106l-7 -232h-96z" />
    <glyph glyph-name="parenleft" unicode="(" horiz-adv-x="289" 
d="M155 750h103s-95 -253 -95 -449s95 -426 95 -426h-103s-112 197 -112 426s112 449 112 449z" />
    <glyph glyph-name="parenright" unicode=")" horiz-adv-x="289" 
d="M31 750h103s112 -220 112 -449s-112 -426 -112 -426h-103s95 230 95 426s-95 449 -95 449z" />
    <glyph glyph-name="asterisk" unicode="*" horiz-adv-x="423" 
d="M382 504h-127l39 -122l-62 -19l-41 123l-105 -79l-40 51l107 79l-104 74l39 54l103 -75l40 123l64 -21l-39 -124h126v-64z" />
    <glyph glyph-name="plus" unicode="+" 
d="M52 202v98h178v179h98v-179h180v-98h-180v-181h-98v181h-178z" />
    <glyph glyph-name="comma" unicode="," horiz-adv-x="246" 
d="M26 -123l48 247h120l-80 -247h-88z" />
    <glyph glyph-name="hyphen" unicode="-" horiz-adv-x="421" 
d="M61 220v99h299v-99h-299z" />
    <glyph glyph-name="period" unicode="." horiz-adv-x="239" 
d="M61 0v144h117v-144h-117z" />
    <glyph glyph-name="slash" unicode="/" horiz-adv-x="443" 
d="M32 9l285 705l96 -35l-286 -704z" />
    <glyph glyph-name="zero" unicode="0" 
d="M280 671c160 0 249 -88 249 -348c0 -251 -91 -334 -249 -334s-250 82 -250 334c0 259 91 348 250 348zM280 574c-92 0 -135 -56 -135 -251c0 -181 45 -237 136 -237c90 0 133 56 133 237c0 194 -41 251 -134 251z" />
    <glyph glyph-name="one" unicode="1" 
d="M88 517l215 143h102v-660h-111v534l-155 -100z" />
    <glyph glyph-name="two" unicode="2" 
d="M492 0h-425v95l163 168c85 87 134 140 134 210c0 75 -39 99 -124 99c-70 0 -162 -18 -162 -18l-7 88s97 29 195 29c146 0 213 -60 213 -184c0 -100 -42 -158 -144 -253l-141 -137h298v-97z" />
    <glyph glyph-name="three" unicode="3" 
d="M75 555l-9 84s93 32 193 32c166 0 223 -57 223 -177c0 -86 -51 -125 -87 -149c60 -28 100 -54 100 -150c0 -137 -64 -206 -220 -206c-101 0 -216 31 -216 31l7 86s110 -20 194 -20c81 1 120 34 120 106c0 67 -48 98 -113 99h-133v93h133c47 0 100 45 100 103
c0 60 -34 87 -115 87c-83 0 -177 -19 -177 -19z" />
    <glyph glyph-name="four" unicode="4" 
d="M337 0v118h-297v85l174 457h123l-184 -445h184v194h112v-194h72v-97h-72v-118h-112z" />
    <glyph glyph-name="five" unicode="5" 
d="M89 660h395v-98h-306l-17 -174s68 31 134 31c132 0 212 -57 212 -198c0 -150 -82 -232 -224 -232c-102 0 -227 34 -227 34l12 84s118 -20 202 -20c77 0 122 44 122 123c0 82 -41 111 -112 111c-76 0 -139 -27 -139 -27l-70 15z" />
    <glyph glyph-name="six" unicode="6" 
d="M500 647l-10 -87s-97 14 -181 14c-101 0 -152 -71 -153 -186c0 -1 85 31 144 31c147 0 224 -66 224 -210c0 -146 -89 -220 -237 -220c-171 0 -246 129 -246 341c0 246 104 341 268 341c84 0 191 -24 191 -24zM290 321c-63 0 -135 -29 -135 -29c1 -116 35 -206 132 -206
c79 0 122 44 122 123c0 75 -44 112 -119 112z" />
    <glyph glyph-name="seven" unicode="7" 
d="M73 560v100h416v-132l-243 -539l-104 30l235 511v30h-304z" />
    <glyph glyph-name="eight" unicode="8" 
d="M278 671c142 0 241 -60 241 -176c0 -82 -23 -112 -88 -153c61 -39 98 -75 98 -163c0 -142 -113 -190 -251 -190c-136 0 -248 41 -248 179c0 96 37 133 96 174c-62 41 -85 78 -85 154c0 114 93 175 237 175zM278 89c81 0 132 29 132 105c0 52 -33 79 -84 95h-96
c-53 -17 -81 -47 -81 -97c0 -74 50 -103 129 -103zM279 571c-75 0 -119 -29 -119 -92c0 -45 24 -72 70 -95h96c47 22 74 50 74 95c0 62 -44 92 -121 92z" />
    <glyph glyph-name="nine" unicode="9" 
d="M57 13l10 87s97 -14 181 -14c103 0 153 67 154 192c0 1 -88 -34 -146 -34c-141 0 -222 66 -222 207c0 137 91 220 236 220c171 0 247 -130 247 -340c0 -259 -103 -342 -269 -342c-84 0 -191 24 -191 24zM265 342c61 0 138 29 138 29c-1 115 -35 203 -133 203
c-76 0 -121 -47 -121 -123c0 -75 42 -109 116 -109z" />
    <glyph glyph-name="colon" unicode=":" horiz-adv-x="239" 
d="M61 303v144h117v-144h-117zM61 0v144h117v-144h-117z" />
    <glyph glyph-name="semicolon" unicode=";" horiz-adv-x="266" 
d="M84 124l-48 -247h88l80 247h-120zM77 303v144h117v-144h-117z" />
    <glyph glyph-name="less" unicode="&#x3c;" 
d="M474 377l-294 -124l294 -130v-112l-410 195v90l410 192v-111z" />
    <glyph glyph-name="equal" unicode="=" 
d="M61 301v98h438v-98h-438zM61 103v98h438v-98h-438z" />
    <glyph glyph-name="greater" unicode="&#x3e;" 
d="M380 253l-294 124v111l410 -192v-90l-410 -195v112z" />
    <glyph glyph-name="question" unicode="?" horiz-adv-x="441" 
d="M406 534c0 -89 -15 -122 -87 -180c-66 -51 -81 -76 -81 -111v-33h-88s-24 31 -24 78c0 36 29 67 81 111c74 60 87 79 87 124c0 50 -29 76 -106 76c-62 0 -149 -19 -149 -19l-6 83s93 33 169 33c139 0 204 -47 204 -162zM133 0v140h116v-140h-116z" />
    <glyph glyph-name="at" unicode="@" horiz-adv-x="975" 
d="M939 305v-10c0 -230 -68 -298 -185 -298c-102 0 -126 58 -126 58s-88 -57 -160 -57c-106 0 -182 52 -182 251c0 165 47 253 196 253c42 0 102 -25 102 -25v14h108v-184c0 -201 5 -219 62 -219c48 0 76 29 76 207v11c0 227 -97 325 -327 325c-232 0 -351 -125 -351 -370
c0 -265 100 -372 351 -372c48 0 143 9 143 9l5 -95s-92 -9 -148 -9c-296 0 -459 106 -459 467c0 323 178 465 459 465c298 0 436 -144 436 -421zM477 93c40 0 97 26 114 34c-4 23 -7 80 -7 135v130s-50 15 -80 15c-90 0 -108 -51 -108 -159c0 -117 34 -155 81 -155z" />
    <glyph glyph-name="A" unicode="A" horiz-adv-x="599" 
d="M20 0l169 685h221l170 -685h-112l-37 147h-263l-37 -147h-111zM275 592l-85 -347h219l-84 347h-50z" />
    <glyph glyph-name="B" unicode="B" horiz-adv-x="612" 
d="M79 685h260c136 0 209 -51 209 -178c0 -83 -26 -124 -81 -154c59 -23 98 -65 98 -159c0 -140 -85 -194 -218 -194h-268v685zM339 299h-149v-203h151c69 0 110 22 110 104c0 78 -58 99 -112 99zM333 589h-143v-196h147c68 0 98 34 98 101c0 66 -34 95 -102 95z" />
    <glyph glyph-name="C" unicode="C" horiz-adv-x="544" 
d="M501 103l3 -92c-47 -10 -131 -22 -195 -22c-209 0 -257 119 -257 353c0 247 52 354 257 354c71 0 153 -15 196 -25l-4 -90c-45 8 -128 16 -177 16c-126 0 -157 -61 -157 -255c0 -188 25 -254 160 -254c51 0 131 8 174 15z" />
    <glyph glyph-name="D" unicode="D" horiz-adv-x="641" 
d="M316 0h-237v685h237c221 0 274 -118 274 -331c0 -217 -48 -354 -274 -354zM475 354c0 150 -21 234 -159 234h-126v-490h126c138 0 159 106 159 256z" />
    <glyph glyph-name="E" unicode="E" horiz-adv-x="553" 
d="M79 0v685h432v-97h-321v-194h261v-96h-261v-200h321v-98h-432z" />
    <glyph glyph-name="F" unicode="F" horiz-adv-x="529" 
d="M79 0v685h425v-97h-314v-231h261v-97h-261v-260h-111z" />
    <glyph glyph-name="G" unicode="G" horiz-adv-x="613" 
d="M358 262v98h195v-348c-9 -2 -146 -23 -229 -23c-218 0 -274 126 -274 353c0 240 66 354 270 354c105 0 233 -27 233 -27l-4 -88s-121 16 -212 16c-137 0 -172 -62 -172 -255c0 -186 29 -256 169 -256c45 0 97 6 109 9v167h-85z" />
    <glyph glyph-name="H" unicode="H" horiz-adv-x="676" 
d="M486 0v296h-296v-296h-111v685h111v-292h296v292h112v-685h-112z" />
    <glyph glyph-name="I" unicode="I" horiz-adv-x="269" 
d="M79 0v685h111v-685h-111z" />
    <glyph glyph-name="J" unicode="J" horiz-adv-x="296" 
d="M221 685l1 -579c0 -150 -61 -177 -203 -177v98c67 0 92 11 92 87v571h110z" />
    <glyph glyph-name="K" unicode="K" horiz-adv-x="583" 
d="M437 0l-145 286l-102 -7v-279h-111v685h111v-309l102 8l140 301h127l-169 -344l176 -341h-129z" />
    <glyph glyph-name="L" unicode="L" horiz-adv-x="475" 
d="M463 0h-384v685h111v-586h273v-99z" />
    <glyph glyph-name="M" unicode="M" horiz-adv-x="850" 
d="M79 0v685h193l153 -535l153 535h194v-685h-112v562h-15l-162 -534h-116l-162 534h-15v-562h-111z" />
    <glyph glyph-name="N" unicode="N" horiz-adv-x="686" 
d="M79 0v685h194l208 -587h15v587h111v-685h-190l-213 588h-14v-588h-111z" />
    <glyph glyph-name="O" unicode="O" horiz-adv-x="656" 
d="M328 86c133 0 163 79 163 253c0 170 -31 260 -163 260s-164 -90 -164 -260c0 -171 31 -253 164 -253zM328 -11c-215 0 -279 119 -279 350c0 229 65 357 279 357s278 -127 278 -357c0 -233 -64 -350 -278 -350z" />
    <glyph glyph-name="P" unicode="P" horiz-adv-x="591" 
d="M330 213h-140v-213h-111v685h251c156 0 233 -76 233 -230c0 -155 -77 -242 -233 -242zM190 309h139c83 0 120 51 120 146c0 94 -37 134 -120 134h-139v-280z" />
    <glyph glyph-name="Q" unicode="Q" horiz-adv-x="656" 
d="M478 -151l-89 146c-13 -4 -39 -6 -61 -6c-215 0 -279 118 -279 350c0 229 65 357 279 357s278 -127 278 -357c0 -155 -29 -254 -109 -307l84 -135zM328 86c133 0 163 78 163 253c0 170 -31 260 -163 260s-164 -90 -164 -260c0 -172 31 -253 164 -253z" />
    <glyph glyph-name="R" unicode="R" horiz-adv-x="618" 
d="M351 244h-161v-244h-111v685h260c151 0 232 -66 232 -218c0 -97 -39 -164 -112 -198l113 -269h-122zM457 466c0 78 -38 123 -118 123h-149v-249h151c84 0 116 55 116 126z" />
    <glyph glyph-name="S" unicode="S" horiz-adv-x="543" 
d="M487 673l-9 -90s-140 16 -198 16c-84 0 -127 -30 -127 -89c0 -64 36 -79 153 -111c144 -40 196 -78 196 -195c0 -150 -94 -215 -229 -215c-89 0 -224 27 -224 27l11 89s135 -18 206 -18c85 0 124 38 124 110c0 58 -31 78 -136 103c-148 38 -212 83 -212 202
c0 138 91 195 228 195c87 0 217 -24 217 -24z" />
    <glyph glyph-name="T" unicode="T" horiz-adv-x="526" 
d="M13 586v99h500v-99h-193v-586h-112v586h-195z" />
    <glyph glyph-name="U" unicode="U" horiz-adv-x="650" 
d="M185 219c0 -93 48 -133 139 -133c92 0 141 41 141 133v466h112v-464c0 -165 -89 -232 -253 -232c-163 0 -251 67 -251 232v464h112v-466z" />
    <glyph glyph-name="V" unicode="V" horiz-adv-x="594" 
d="M458 685h116l-168 -685h-218l-168 685h116l136 -587h50z" />
    <glyph glyph-name="W" unicode="W" horiz-adv-x="911" 
d="M24 685h117l98 -589h21l130 587h130l130 -587h22l98 589h117l-135 -685h-179l-118 549l-117 -549h-180z" />
    <glyph glyph-name="X" unicode="X" horiz-adv-x="564" 
d="M138 685l147 -270l149 270h117l-203 -348l203 -337h-124l-147 258l-150 -258h-117l204 331l-204 354h125z" />
    <glyph glyph-name="Y" unicode="Y" horiz-adv-x="549" 
d="M331 282v-282h-112v282l-215 403h125l145 -294l146 294h124z" />
    <glyph glyph-name="Z" unicode="Z" horiz-adv-x="534" 
d="M42 588v97h450v-107l-318 -462v-19h318v-97h-450v106l317 462v20h-317z" />
    <glyph glyph-name="bracketleft" unicode="[" horiz-adv-x="344" 
d="M306 749v-97h-123v-678h123v-97h-233v872h233z" />
    <glyph glyph-name="backslash" unicode="\" horiz-adv-x="471" 
d="M440 13l-95 -40l-314 697l94 42z" />
    <glyph glyph-name="bracketright" unicode="]" horiz-adv-x="344" 
d="M38 652v97h233v-872h-233v97h123v678h-123z" />
    <glyph glyph-name="asciicircum" unicode="^" 
d="M400 316l-124 238l-125 -238h-114l190 344h94l193 -344h-114z" />
    <glyph glyph-name="underscore" unicode="_" horiz-adv-x="625" 
d="M99 -81h428v-93h-428v93z" />
    <glyph glyph-name="grave" unicode="`" horiz-adv-x="254" 
d="M24 748l236 -101l-26 -71l-244 78z" />
    <glyph glyph-name="a" unicode="a" horiz-adv-x="507" 
d="M436 346v-228c2 -30 15 -42 44 -46l-3 -83c-61 0 -96 8 -133 37c0 0 -80 -37 -161 -37c-99 0 -149 55 -149 159c0 106 58 142 165 151l129 11v36c0 55 -24 72 -73 72c-67 0 -188 -10 -188 -10l-4 77s109 26 201 26c122 0 172 -51 172 -165zM328 233l-116 -11
c-46 -4 -69 -26 -69 -71s19 -73 61 -73c57 0 124 22 124 22v133z" />
    <glyph glyph-name="b" unicode="b" horiz-adv-x="536" 
d="M299 511c136 0 194 -67 194 -254c0 -207 -65 -268 -244 -268c-53 0 -183 12 -183 12v707h108v-227s69 30 125 30zM249 86c111 0 133 49 133 171c0 113 -29 157 -96 157c-53 0 -112 -20 -112 -20v-304s55 -4 75 -4z" />
    <glyph glyph-name="c" unicode="c" horiz-adv-x="442" 
d="M253 511c53 0 150 -19 150 -19l-4 -86s-79 8 -117 8c-104 0 -128 -42 -128 -157c0 -128 21 -171 129 -171c38 0 117 8 117 8l3 -87s-101 -18 -152 -18c-154 0 -207 76 -207 268c0 179 60 254 209 254z" />
    <glyph glyph-name="d" unicode="d" horiz-adv-x="540" 
d="M474 708v-708h-108v26s-73 -37 -134 -37c-128 0 -189 67 -189 260c0 181 65 262 208 262c40 0 108 -12 114 -13v210h109zM249 86c57 0 116 25 116 25v296c-6 1 -64 10 -106 10c-74 0 -106 -54 -106 -168c0 -128 35 -163 96 -163z" />
    <glyph glyph-name="e" unicode="e" horiz-adv-x="508" 
d="M266 84c79 0 184 9 184 9l2 -81s-114 -23 -202 -23c-150 0 -208 80 -208 256c0 183 79 266 217 266c140 0 210 -73 210 -229l-7 -78h-310c1 -80 31 -120 114 -120zM151 288h211c0 100 -30 133 -103 133c-74 0 -107 -37 -108 -133z" />
    <glyph glyph-name="f" unicode="f" horiz-adv-x="346" 
d="M197 407v-407h-108v407h-58v93h58v32c0 144 37 187 141 187c34 0 108 -10 108 -10l-1 -89s-49 2 -80 2c-46 0 -60 -22 -60 -91v-31h132v-93h-132z" />
    <glyph glyph-name="g" unicode="g" horiz-adv-x="525" 
d="M272 -232c-151 0 -230 30 -230 144c0 51 25 82 76 121c-21 14 -33 42 -33 73c0 23 36 80 36 80c-37 22 -72 60 -72 150c0 126 85 174 200 174c46 0 102 -13 102 -13l155 4v-88l-83 5c13 -17 27 -43 27 -82c0 -136 -71 -173 -204 -173c-10 0 -35 2 -44 4
c0 0 -14 -34 -14 -47c0 -32 11 -38 108 -39c158 -1 207 -34 207 -149c0 -118 -97 -164 -231 -164zM287 -13c-31 0 -98 6 -98 6c-28 -23 -40 -40 -40 -71c0 -46 33 -65 124 -65c81 0 121 20 121 69c0 54 -26 60 -107 61zM249 247c67 0 93 28 93 89c0 60 -26 89 -93 89
c-64 0 -92 -29 -92 -89c0 -61 28 -89 92 -89z" />
    <glyph glyph-name="h" unicode="h" horiz-adv-x="546" 
d="M175 0h-109v708h109v-234s74 37 137 37c139 0 173 -79 173 -243v-268h-109v265c0 100 -12 149 -89 149c-55 0 -112 -22 -112 -22v-392z" />
    <glyph glyph-name="i" unicode="i" horiz-adv-x="241" 
d="M66 0v500h109v-500h-109zM66 585v115h109v-115h-109z" />
    <glyph glyph-name="j" unicode="j" horiz-adv-x="242" 
d="M67 19v481h108v-482c0 -132 -36 -176 -173 -245l-43 81c91 57 108 75 108 165zM67 585v115h108v-115h-108z" />
    <glyph glyph-name="k" unicode="k" horiz-adv-x="499" 
d="M175 0h-109v708h109v-409l62 6l118 195h122l-144 -234l152 -266h-123l-122 211l-65 -7v-204z" />
    <glyph glyph-name="l" unicode="l" horiz-adv-x="253" 
d="M72 0v708h109v-708h-109z" />
    <glyph glyph-name="m" unicode="m" horiz-adv-x="838" 
d="M175 0h-109v500h108v-31s71 42 130 42c61 0 99 -15 127 -49c0 0 91 49 172 49c136 0 173 -73 173 -243v-268h-108v265c0 100 -12 149 -85 149c-55 0 -114 -27 -114 -27c4 -10 8 -79 8 -128v-259h-108v257c0 111 -11 157 -86 157c-56 0 -108 -26 -108 -26v-388z" />
    <glyph glyph-name="n" unicode="n" horiz-adv-x="546" 
d="M175 0h-109v500h108v-31s73 42 138 42c139 0 173 -79 173 -243v-268h-108v265c0 100 -13 149 -89 149c-58 0 -113 -26 -113 -26v-388z" />
    <glyph glyph-name="o" unicode="o" horiz-adv-x="530" 
d="M265 511c167 0 223 -96 223 -258c0 -166 -51 -264 -223 -264c-171 0 -223 98 -223 264c0 162 56 258 223 258zM265 81c93 0 113 56 113 172s-25 166 -113 166s-113 -50 -113 -166s20 -172 113 -172z" />
    <glyph glyph-name="p" unicode="p" horiz-adv-x="537" 
d="M66 -215v715h108v-31s69 42 129 42c130 0 191 -74 191 -256c0 -206 -70 -266 -224 -266c-41 0 -89 8 -95 9v-213h-109zM284 414c-53 0 -109 -28 -109 -28v-295c5 -1 53 -8 88 -8c93 0 120 49 120 172c0 117 -37 159 -99 159z" />
    <glyph glyph-name="q" unicode="q" horiz-adv-x="535" 
d="M239 -11c-136 0 -196 68 -196 254c0 207 67 268 243 268c55 0 183 -12 183 -12v-714h-108v234s-67 -30 -122 -30zM286 417c-109 0 -134 -53 -134 -174c0 -112 33 -157 100 -157c53 0 109 20 109 20v307s-48 4 -75 4z" />
    <glyph glyph-name="r" unicode="r" horiz-adv-x="361" 
d="M66 0v500h108v-60s85 55 170 71v-109c-91 -18 -169 -53 -169 -53v-349h-109z" />
    <glyph glyph-name="s" unicode="s" horiz-adv-x="469" 
d="M415 488l-2 -91s-118 16 -178 16s-87 -14 -87 -55c0 -33 21 -42 119 -59c120 -21 163 -51 163 -151c0 -117 -74 -159 -198 -159c-69 0 -185 22 -185 22l4 91s120 -16 171 -16c72 0 100 15 100 59c0 35 -17 46 -116 62c-110 18 -166 42 -166 148c0 113 88 155 187 155
c73 0 188 -22 188 -22z" />
    <glyph glyph-name="t" unicode="t" horiz-adv-x="358" 
d="M335 407h-138v-220c0 -75 3 -101 55 -101c28 0 82 3 82 3l5 -87s-67 -13 -102 -13c-113 0 -148 42 -148 186v232h-64v93h64v145h108v-145h138v-93z" />
    <glyph glyph-name="u" unicode="u" horiz-adv-x="543" 
d="M369 500h108v-500h-108v31s-73 -42 -135 -42c-143 0 -173 74 -173 250v261h109v-262c0 -111 7 -152 85 -152c60 0 114 26 114 26v388z" />
    <glyph glyph-name="v" unicode="v" horiz-adv-x="491" 
d="M19 500h114l96 -407h32l100 407h111l-130 -500h-194z" />
    <glyph glyph-name="w" unicode="w" horiz-adv-x="768" 
d="M27 500h107l79 -407h20l95 397h112l95 -397h20l78 407h108l-106 -500h-173l-78 343l-78 -343h-173z" />
    <glyph glyph-name="x" unicode="x" horiz-adv-x="464" 
d="M18 500h116l98 -173l99 173h116l-149 -246l149 -254h-116l-99 171l-98 -171h-116l145 251z" />
    <glyph glyph-name="y" unicode="y" horiz-adv-x="492" 
d="M20 500h107l106 -407h27l106 407h108l-190 -715h-107l60 215h-86z" />
    <glyph glyph-name="z" unicode="z" horiz-adv-x="454" 
d="M41 403v97h371v-97l-240 -306h240v-97h-371v97l241 306h-241z" />
    <glyph glyph-name="braceleft" unicode="{" horiz-adv-x="357" 
d="M235 171c0 -31 -7 -82 -7 -117c0 -52 15 -88 90 -93v-92c-143 5 -196 54 -196 173c0 39 7 96 7 121c0 51 -34 86 -110 107v85c77 18 110 50 110 101c0 28 -7 90 -7 127c0 126 54 170 197 175l1 -92c-75 -5 -92 -38 -92 -91c0 -33 7 -96 7 -125c0 -82 -18 -113 -109 -137
c91 -24 109 -61 109 -142z" />
    <glyph glyph-name="bar" unicode="|" horiz-adv-x="252" 
d="M72 -215v923h108v-923h-108z" />
    <glyph glyph-name="braceright" unicode="}" horiz-adv-x="357" 
d="M122 171c0 81 18 118 109 142c-91 24 -109 55 -109 137c0 29 7 92 7 125c0 53 -17 86 -92 91l1 92c143 -5 197 -49 197 -175c0 -37 -7 -99 -7 -127c0 -51 33 -83 110 -101v-85c-76 -21 -110 -56 -110 -107c0 -25 7 -82 7 -121c0 -119 -53 -168 -196 -173v92
c75 5 90 41 90 93c0 35 -7 86 -7 117z" />
    <glyph glyph-name="asciitilde" unicode="~" 
d="M487 320l9 -87s-55 -52 -113 -52c-55 0 -162 51 -202 51c-45 0 -107 -42 -107 -42l-10 88s62 52 120 52c55 0 154 -51 201 -51c38 0 102 41 102 41z" />
    <glyph glyph-name="exclamdown" unicode="&#xa1;" horiz-adv-x="248" 
d="M183 500v-140h-117v140h117zM172 259l10 -444h-116l10 444h96z" />
    <glyph glyph-name="cent" unicode="&#xa2;" 
d="M274 -78v110c-117 7 -181 66 -181 217c0 147 66 211 180 219v108h91v-112c42 -3 88 -12 88 -12l-3 -83s-79 5 -122 5c-91 0 -123 -36 -123 -125c0 -90 30 -123 126 -123c43 0 120 5 120 5l3 -83s-48 -10 -89 -12v-114h-90z" />
    <glyph glyph-name="sterling" unicode="&#xa3;" 
d="M459 650l-3 -86s-73 9 -128 9c-48 0 -65 -23 -65 -95v-52h160v-93h-160v-240h137l72 16l17 -91l-81 -18h-331v93h79v240h-66v93h66v57c0 153 53 187 158 187c66 0 145 -20 145 -20z" />
    <glyph glyph-name="currency" unicode="&#xa4;" 
d="M443 14l-72 72c-27 -15 -58 -24 -91 -24s-65 9 -92 24l-71 -72l-75 75l72 71c-16 27 -24 59 -24 92s9 64 24 91l-72 72l75 75l71 -72c27 15 59 24 92 24s64 -9 91 -24l72 72l75 -75l-72 -72c15 -27 24 -58 24 -91s-9 -65 -24 -92l72 -71zM280 154c54 0 98 44 98 98
s-44 98 -98 98s-98 -44 -98 -98s44 -98 98 -98z" />
    <glyph glyph-name="yen" unicode="&#xa5;" 
d="M58 301v92h112l-157 267h124l144 -236l143 236h124l-156 -267h110v-92h-161l-4 -18v-45h165v-92h-165v-146h-111v146h-168v92h168v45l-3 18h-165z" />
    <glyph glyph-name="brokenbar" unicode="&#xa6;" horiz-adv-x="256" 
d="M74 708h108v-373h-108v373zM74 164h108v-379h-108v379z" />
    <glyph glyph-name="section" unicode="&#xa7;" horiz-adv-x="509" 
d="M438 623l-5 -89s-111 16 -159 16c-82 0 -108 -22 -108 -77c0 -47 41 -59 139 -80c112 -25 156 -50 156 -148c0 -51 -26 -107 -47 -136c24 -21 37 -45 37 -105c0 -123 -65 -177 -205 -177c-68 0 -182 21 -182 21l11 88s108 -15 163 -15c74 0 109 23 109 75
c0 51 -36 58 -142 82c-112 25 -162 55 -162 153c0 53 39 112 62 131c-29 21 -44 50 -44 109c0 118 74 173 206 173c69 0 171 -21 171 -21zM255 305c-28 7 -57 12 -78 20c-6 -9 -25 -46 -25 -75c0 -49 22 -61 83 -75c39 -9 71 -18 95 -27c7 9 21 49 21 82c0 46 -25 59 -96 75
z" />
    <glyph glyph-name="dieresis" unicode="&#xa8;" horiz-adv-x="254" 
d="M-22 607v114h104v-114h-104zM187 607v114h104v-114h-104z" />
    <glyph glyph-name="copyright" unicode="&#xa9;" horiz-adv-x="644" 
d="M52 434c0 160 114 279 270 279c163 0 270 -127 270 -279c0 -157 -107 -279 -271 -279c-155 0 -269 122 -269 279zM106 434c0 -124 91 -226 215 -226c126 0 217 101 217 226c0 124 -93 227 -216 227c-124 0 -216 -103 -216 -227zM404 357l6 -69s-32 -16 -82 -16
c-88 0 -123 41 -123 165c0 114 35 158 126 158c46 0 79 -13 79 -13l-6 -72s-36 7 -68 7c-38 0 -46 -23 -46 -80c0 -59 10 -86 46 -86c31 0 68 6 68 6z" />
    <glyph glyph-name="ordfeminine" unicode="&#xaa;" horiz-adv-x="403" 
d="M330 551v-139c5 -6 16 -11 23 -12l-2 -68c-80 0 -94 11 -108 30c0 0 -48 -29 -97 -29c-64 0 -99 40 -99 102c0 61 38 90 114 94l76 4v23c0 18 -16 26 -46 26c-42 0 -124 -7 -124 -7l-3 63s70 21 132 21c84 0 134 -22 134 -108zM237 474l-60 -4c-25 -2 -36 -11 -36 -33
s11 -31 33 -31c27 0 63 16 63 16v52z" />
    <glyph glyph-name="guillemotleft" unicode="&#xab;" horiz-adv-x="574" 
d="M251 330l-116 -83l116 -94v-111l-209 162v81l209 155v-110zM514 330l-116 -83l116 -94v-111l-209 162v81l209 155v-110z" />
    <glyph glyph-name="logicalnot" unicode="&#xac;" 
d="M61 351h432v-241h-98v144h-334v97z" />
    <glyph glyph-name="registered" unicode="&#xae;" horiz-adv-x="644" 
d="M52 434c0 160 114 279 270 279c163 0 270 -127 270 -279c0 -157 -107 -279 -270 -279c-156 0 -270 122 -270 279zM106 434c0 -124 94 -226 216 -226c125 0 216 101 216 226c0 124 -93 227 -216 227c-124 0 -216 -103 -216 -227zM365 279l-37 99h-42v-99h-80v309h125
c68 0 114 -27 114 -100c0 -51 -11 -76 -44 -97l48 -112h-84zM285 527v-89h41c28 0 42 16 42 44c0 30 -15 45 -47 45h-36z" />
    <glyph glyph-name="macron" unicode="&#xaf;" horiz-adv-x="254" 
d="M-9 609v82h282v-82h-282z" />
    <glyph glyph-name="degree" unicode="&#xb0;" 
d="M134 550c0 87 59 146 146 146s146 -59 146 -146s-59 -145 -146 -145s-146 58 -146 145zM198 550c0 -49 33 -83 82 -83s84 34 84 83s-35 84 -84 84s-82 -35 -82 -84z" />
    <glyph glyph-name="plusminus" unicode="&#xb1;" 
d="M52 280v98h178v115h98v-115h180v-98h-180v-112h-98v112h-178zM52 125h456v-98h-456v98z" />
    <glyph glyph-name="twosuperior" unicode="&#xb2;" horiz-adv-x="280" 
d="M246 478h-221v75l79 71c33 28 48 47 48 68c0 18 -15 25 -42 25c-25 0 -79 -7 -79 -7l-4 80s67 10 112 10c77 0 105 -28 105 -96c0 -45 -17 -72 -58 -105l-49 -42h109v-79z" />
    <glyph glyph-name="threesuperior" unicode="&#xb3;" horiz-adv-x="280" 
d="M28 791c0 0 65 9 106 9c76 0 114 -26 114 -86c0 -41 -20 -64 -34 -72c26 -10 41 -28 41 -75c0 -68 -43 -99 -113 -99c-49 0 -118 8 -118 8l6 77s59 -7 96 -7c27 0 38 10 38 28c0 20 -13 26 -35 26h-66v72h65c15 0 28 10 28 26c0 17 -12 24 -35 24c-40 0 -87 -6 -87 -6z
" />
    <glyph glyph-name="acute" unicode="&#xb4;" horiz-adv-x="268" 
d="M14 647l236 101l34 -94l-244 -78z" />
    <glyph glyph-name="mu" unicode="&#xb5;" 
d="M380 500h108v-500h-108v31s-73 -42 -135 -42c-25 0 -46 2 -64 7v-211h-109v715h109v-286c1 -93 13 -128 85 -128c60 0 114 26 114 26v388z" />
    <glyph glyph-name="paragraph" unicode="&#xb6;" horiz-adv-x="596" 
d="M403 0v592h-85v-592h-94v303h-7c-110 0 -186 78 -186 190s77 192 188 192h330v-93h-52v-592h-94z" />
    <glyph glyph-name="periodcentered" unicode="&#xb7;" horiz-adv-x="239" 
d="M61 194v144h117v-144h-117z" />
    <glyph glyph-name="cedilla" unicode="&#xb8;" horiz-adv-x="264" 
d="M229 -127c0 -72 -41 -104 -104 -104c-43 0 -90 10 -90 10l4 65s34 -2 55 -2c28 0 41 9 41 31c0 21 -13 27 -41 27h-31v101h47v-43c77 -1 119 -15 119 -85z" />
    <glyph glyph-name="onesuperior" unicode="&#xb9;" horiz-adv-x="280" 
d="M19 717l105 73h80v-312h-88v215l-56 -38z" />
    <glyph glyph-name="ordmasculine" unicode="&#xba;" horiz-adv-x="403" 
d="M202 659c102 0 155 -49 155 -161s-53 -165 -155 -165s-156 53 -156 165s54 161 156 161zM202 419c45 0 56 25 56 78c0 54 -11 77 -56 77c-44 0 -59 -23 -59 -77c0 -53 15 -78 59 -78z" />
    <glyph glyph-name="guillemotright" unicode="&#xbb;" horiz-adv-x="575" 
d="M439 247l-116 83v110l209 -155v-81l-209 -162v111zM176 247l-116 83v110l209 -155v-81l-209 -162v111z" />
    <glyph glyph-name="onequarter" unicode="&#xbc;" horiz-adv-x="542" 
d="M26 717l105 73h80v-312h-88v215l-56 -38zM32 29l393 631l47 -30l-393 -633zM410 -100v41h-136v73l52 198h98l-61 -192h47l10 89h77v-89h18v-79h-18v-41h-87z" />
    <glyph glyph-name="onehalf" unicode="&#xbd;" horiz-adv-x="536" 
d="M28 717l105 73h80v-312h-88v215l-56 -38zM31 29l393 631l47 -30l-393 -633zM501 -100h-221v75l79 71c33 28 48 47 48 68c0 18 -15 25 -42 25c-25 0 -79 -7 -79 -7l-4 80s67 10 112 10c77 0 105 -28 105 -96c0 -45 -17 -72 -58 -105l-49 -42h109v-79z" />
    <glyph glyph-name="threequarters" unicode="&#xbe;" horiz-adv-x="556" 
d="M45 791c0 0 65 9 106 9c76 0 114 -26 114 -86c0 -41 -20 -64 -34 -72c26 -10 41 -28 41 -75c0 -68 -43 -99 -113 -99c-49 0 -118 8 -118 8l6 77s59 -7 96 -7c27 0 38 10 38 28c0 20 -13 26 -35 26h-66v72h65c15 0 28 10 28 26c0 17 -12 24 -35 24c-40 0 -87 -6 -87 -6z
M47 29l393 631l47 -30l-393 -633zM426 -100v41h-136v73l52 198h98l-61 -192h47l10 89h77v-89h18v-79h-18v-41h-87z" />
    <glyph glyph-name="questiondown" unicode="&#xbf;" horiz-adv-x="437" 
d="M32 -34c0 89 15 122 87 180c66 51 81 76 81 111v33h88s24 -31 24 -78c0 -36 -29 -67 -81 -111c-74 -60 -87 -79 -87 -124c0 -50 29 -76 106 -76c62 0 149 19 149 19l6 -83s-93 -33 -169 -33c-139 0 -204 47 -204 162zM305 500v-140h-116v140h116z" />
    <glyph glyph-name="Agrave" unicode="&#xc0;" horiz-adv-x="599" 
d="M20 0l169 685h221l170 -685h-112l-37 147h-263l-37 -147h-111zM275 592l-85 -347h219l-84 347h-50zM186 939l236 -103l-28 -76l-243 82z" />
    <glyph glyph-name="Aacute" unicode="&#xc1;" horiz-adv-x="599" 
d="M20 0l169 685h221l170 -685h-112l-37 147h-263l-37 -147h-111zM275 592l-85 -347h219l-84 347h-50zM172 836l236 103l35 -97l-243 -82z" />
    <glyph glyph-name="Acircumflex" unicode="&#xc2;" horiz-adv-x="599" 
d="M20 0l169 685h221l170 -685h-112l-37 147h-263l-37 -147h-111zM275 592l-85 -347h219l-84 347h-50zM117 776l134 143h94l134 -143h-116l-64 67l-65 -67h-117z" />
    <glyph glyph-name="Atilde" unicode="&#xc3;" horiz-adv-x="599" 
d="M20 0l169 685h221l170 -685h-112l-37 147h-263l-37 -147h-111zM275 592l-85 -347h219l-84 347h-50zM452 917l24 -79s-49 -61 -97 -61c-50 0 -134 50 -167 50c-26 0 -76 -44 -76 -44l-24 78s51 62 99 62c56 0 136 -50 165 -50c24 0 76 44 76 44z" />
    <glyph glyph-name="Adieresis" unicode="&#xc4;" horiz-adv-x="599" 
d="M20 0l169 685h221l170 -685h-112l-37 147h-263l-37 -147h-111zM275 592l-85 -347h219l-84 347h-50zM142 783v114h104v-114h-104zM351 783v114h104v-114h-104z" />
    <glyph glyph-name="Aring" unicode="&#xc5;" horiz-adv-x="599" 
d="M436 731c0 -27 -8 -49 -21 -67l165 -664h-112l-37 147h-263l-37 -147h-111l164 664c-13 18 -21 40 -21 67c0 75 61 117 136 117s137 -42 137 -117zM275 592l-85 -347h219l-84 347h-50zM239 731c0 -29 23 -46 60 -46s61 17 61 46s-24 47 -61 47s-60 -18 -60 -47z" />
    <glyph glyph-name="AE" unicode="&#xc6;" horiz-adv-x="873" 
d="M399 0v142h-229l-42 -142h-113l202 693h612v-107h-320v-181h260v-105h-260v-193h320v-107h-430zM296 586l-98 -337h201l1 337h-104z" />
    <glyph glyph-name="Ccedilla" unicode="&#xc7;" horiz-adv-x="544" 
d="M437 -127c0 -72 -41 -104 -104 -104c-43 0 -90 10 -90 10l4 65s34 -2 55 -2c28 0 41 9 41 31c0 21 -13 27 -41 27h-31v91c-177 13 -219 132 -219 351c0 247 52 354 257 354c71 0 153 -15 196 -25l-4 -90c-45 8 -128 16 -177 16c-126 0 -157 -61 -157 -255
c0 -188 25 -254 160 -254c51 0 131 8 174 15l3 -92c-45 -10 -124 -21 -186 -22v-31c77 -1 119 -15 119 -85z" />
    <glyph glyph-name="Egrave" unicode="&#xc8;" horiz-adv-x="553" 
d="M79 0v685h432v-97h-321v-194h261v-96h-261v-200h321v-98h-432zM187 939l236 -103l-28 -76l-243 82z" />
    <glyph glyph-name="Eacute" unicode="&#xc9;" horiz-adv-x="553" 
d="M79 0v685h432v-97h-321v-194h261v-96h-261v-200h321v-98h-432zM164 836l236 103l35 -97l-243 -82z" />
    <glyph glyph-name="Ecircumflex" unicode="&#xca;" horiz-adv-x="553" 
d="M79 0v685h432v-97h-321v-194h261v-96h-261v-200h321v-98h-432zM115 776l134 143h94l134 -143h-116l-64 67l-65 -67h-117z" />
    <glyph glyph-name="Edieresis" unicode="&#xcb;" horiz-adv-x="553" 
d="M79 0v685h432v-97h-321v-194h261v-96h-261v-200h321v-98h-432zM138 783v114h104v-114h-104zM347 783v114h104v-114h-104z" />
    <glyph glyph-name="Igrave" unicode="&#xcc;" horiz-adv-x="269" 
d="M79 0v685h111v-685h-111zM12 939l236 -103l-28 -76l-243 82z" />
    <glyph glyph-name="Iacute" unicode="&#xcd;" horiz-adv-x="269" 
d="M79 0v685h111v-685h-111zM10 836l236 103l35 -97l-243 -82z" />
    <glyph glyph-name="Icircumflex" unicode="&#xce;" horiz-adv-x="269" 
d="M79 0v685h111v-685h-111zM-49 776l134 143h94l134 -143h-116l-64 67l-65 -67h-117z" />
    <glyph glyph-name="Idieresis" unicode="&#xcf;" horiz-adv-x="269" 
d="M79 0v685h111v-685h-111zM-22 783v114h104v-114h-104zM187 783v114h104v-114h-104z" />
    <glyph glyph-name="Eth" unicode="&#xd0;" horiz-adv-x="644" 
d="M23 292v106h60v295h235c222 0 275 -120 275 -334c0 -219 -48 -359 -275 -359h-235v292h-60zM478 359c0 142 -21 228 -160 228h-125v-189h142v-106h-142v-186h125c139 0 160 108 160 253z" />
    <glyph glyph-name="Ntilde" unicode="&#xd1;" horiz-adv-x="686" 
d="M79 0v685h194l208 -587h15v587h111v-685h-190l-213 588h-14v-588h-111zM497 917l24 -79s-49 -61 -97 -61c-50 0 -134 50 -167 50c-26 0 -76 -44 -76 -44l-24 78s51 62 99 62c56 0 136 -50 165 -50c24 0 76 44 76 44z" />
    <glyph glyph-name="Ograve" unicode="&#xd2;" horiz-adv-x="656" 
d="M328 86c133 0 163 79 163 253c0 170 -31 260 -163 260s-164 -90 -164 -260c0 -171 31 -253 164 -253zM328 -11c-215 0 -279 119 -279 350c0 229 65 357 279 357s278 -127 278 -357c0 -233 -64 -350 -278 -350zM214 939l236 -103l-28 -76l-243 82z" />
    <glyph glyph-name="Oacute" unicode="&#xd3;" horiz-adv-x="656" 
d="M328 86c133 0 163 79 163 253c0 170 -31 260 -163 260s-164 -90 -164 -260c0 -171 31 -253 164 -253zM328 -11c-215 0 -279 119 -279 350c0 229 65 357 279 357s278 -127 278 -357c0 -233 -64 -350 -278 -350zM181 836l236 103l35 -97l-243 -82z" />
    <glyph glyph-name="Ocircumflex" unicode="&#xd4;" horiz-adv-x="656" 
d="M328 86c133 0 163 79 163 253c0 170 -31 260 -163 260s-164 -90 -164 -260c0 -171 31 -253 164 -253zM328 -11c-215 0 -279 119 -279 350c0 229 65 357 279 357s278 -127 278 -357c0 -233 -64 -350 -278 -350zM148 776l134 143h94l134 -143h-116l-64 67l-65 -67h-117z
" />
    <glyph glyph-name="Otilde" unicode="&#xd5;" horiz-adv-x="656" 
d="M328 86c133 0 163 79 163 253c0 170 -31 260 -163 260s-164 -90 -164 -260c0 -171 31 -253 164 -253zM328 -11c-215 0 -279 119 -279 350c0 229 65 357 279 357s278 -127 278 -357c0 -233 -64 -350 -278 -350zM484 917l24 -79s-49 -61 -97 -61c-50 0 -134 50 -167 50
c-26 0 -76 -44 -76 -44l-24 78s51 62 99 62c56 0 136 -50 165 -50c24 0 76 44 76 44z" />
    <glyph glyph-name="Odieresis" unicode="&#xd6;" horiz-adv-x="656" 
d="M328 86c133 0 163 79 163 253c0 170 -31 260 -163 260s-164 -90 -164 -260c0 -171 31 -253 164 -253zM328 -11c-215 0 -279 119 -279 350c0 229 65 357 279 357s278 -127 278 -357c0 -233 -64 -350 -278 -350zM172 783v114h104v-114h-104zM381 783v114h104v-114h-104z
" />
    <glyph glyph-name="multiply" unicode="&#xd7;" 
d="M132 467l148 -150l149 151l68 -69l-151 -149l151 -148l-69 -69l-148 151l-148 -151l-70 69l151 148l-150 148z" />
    <glyph glyph-name="Oslash" unicode="&#xd8;" horiz-adv-x="656" 
d="M328 -11c-41 0 -76 4 -107 12l-57 -123l-80 39l58 124c-69 56 -93 156 -93 298c0 229 65 357 279 357c43 0 80 -6 112 -16l58 125l82 -35l-62 -133c65 -59 88 -160 88 -298c0 -233 -64 -350 -278 -350zM164 339c0 -83 7 -145 30 -187l203 436c-19 7 -42 11 -69 11
c-132 0 -164 -90 -164 -260zM328 86c133 0 163 79 163 253c0 78 -7 139 -27 183l-199 -428c18 -5 38 -8 63 -8z" />
    <glyph glyph-name="Ugrave" unicode="&#xd9;" horiz-adv-x="650" 
d="M185 219c0 -93 48 -133 139 -133c92 0 141 41 141 133v466h112v-464c0 -165 -89 -232 -253 -232c-163 0 -251 67 -251 232v464h112v-466zM219 939l236 -103l-28 -76l-243 82z" />
    <glyph glyph-name="Uacute" unicode="&#xda;" horiz-adv-x="650" 
d="M185 219c0 -93 48 -133 139 -133c92 0 141 41 141 133v466h112v-464c0 -165 -89 -232 -253 -232c-163 0 -251 67 -251 232v464h112v-466zM185 836l236 103l35 -97l-243 -82z" />
    <glyph glyph-name="Ucircumflex" unicode="&#xdb;" horiz-adv-x="650" 
d="M185 219c0 -93 48 -133 139 -133c92 0 141 41 141 133v466h112v-464c0 -165 -89 -232 -253 -232c-163 0 -251 67 -251 232v464h112v-466zM144 776l134 143h94l134 -143h-116l-64 67l-65 -67h-117z" />
    <glyph glyph-name="Udieresis" unicode="&#xdc;" horiz-adv-x="650" 
d="M185 219c0 -93 48 -133 139 -133c92 0 141 41 141 133v466h112v-464c0 -165 -89 -232 -253 -232c-163 0 -251 67 -251 232v464h112v-466zM169 783v114h104v-114h-104zM378 783v114h104v-114h-104z" />
    <glyph glyph-name="Yacute" unicode="&#xdd;" horiz-adv-x="549" 
d="M331 282v-282h-112v282l-215 403h125l145 -294l146 294h124zM148 836l236 103l35 -97l-243 -82z" />
    <glyph glyph-name="Thorn" unicode="&#xde;" horiz-adv-x="597" 
d="M329 216c83 0 122 54 122 141c0 86 -39 125 -122 125h-139v-266h139zM330 108h-140v-108h-111v693h111v-105h140c156 0 234 -75 234 -231s-78 -249 -234 -249z" />
    <glyph glyph-name="germandbls" unicode="&#xdf;" horiz-adv-x="595" 
d="M175 0h-109v532c0 137 63 187 216 187c145 0 214 -43 214 -152c0 -74 -29 -101 -88 -127c-49 -22 -59 -30 -59 -48c0 -20 12 -30 91 -68c91 -43 127 -73 127 -154c0 -137 -57 -181 -202 -181c-59 0 -144 19 -144 19l4 88s92 -11 128 -11c81 0 102 26 102 69
c0 41 -15 53 -99 92c-89 39 -119 72 -119 136c0 59 24 88 77 110c58 24 70 39 70 68c0 45 -24 63 -102 63c-81 0 -107 -24 -107 -96v-527z" />
    <glyph glyph-name="agrave" unicode="&#xe0;" horiz-adv-x="507" 
d="M436 346v-228c2 -30 15 -42 44 -46l-3 -83c-61 0 -96 8 -133 37c0 0 -80 -37 -161 -37c-99 0 -149 55 -149 159c0 106 58 142 165 151l129 11v36c0 55 -24 72 -73 72c-67 0 -188 -10 -188 -10l-4 77s109 26 201 26c122 0 172 -51 172 -165zM328 233l-116 -11
c-46 -4 -69 -26 -69 -71s19 -73 61 -73c57 0 124 22 124 22v133zM145 748l236 -101l-26 -71l-244 78z" />
    <glyph glyph-name="aacute" unicode="&#xe1;" horiz-adv-x="507" 
d="M436 346v-228c2 -30 15 -42 44 -46l-3 -83c-61 0 -96 8 -133 37c0 0 -80 -37 -161 -37c-99 0 -149 55 -149 159c0 106 58 142 165 151l129 11v36c0 55 -24 72 -73 72c-67 0 -188 -10 -188 -10l-4 77s109 26 201 26c122 0 172 -51 172 -165zM328 233l-116 -11
c-46 -4 -69 -26 -69 -71s19 -73 61 -73c57 0 124 22 124 22v133zM105 647l236 101l34 -94l-244 -78z" />
    <glyph glyph-name="acircumflex" unicode="&#xe2;" horiz-adv-x="507" 
d="M436 346v-228c2 -30 15 -42 44 -46l-3 -83c-61 0 -96 8 -133 37c0 0 -80 -37 -161 -37c-99 0 -149 55 -149 159c0 106 58 142 165 151l129 11v36c0 55 -24 72 -73 72c-67 0 -188 -10 -188 -10l-4 77s109 26 201 26c122 0 172 -51 172 -165zM328 233l-116 -11
c-46 -4 -69 -26 -69 -71s19 -73 61 -73c57 0 124 22 124 22v133zM88 585l125 146h69l127 -146h-102l-58 76l-58 -76h-103z" />
    <glyph glyph-name="atilde" unicode="&#xe3;" horiz-adv-x="507" 
d="M436 346v-228c2 -30 15 -42 44 -46l-3 -83c-61 0 -96 8 -133 37c0 0 -80 -37 -161 -37c-99 0 -149 55 -149 159c0 106 58 142 165 151l129 11v36c0 55 -24 72 -73 72c-67 0 -188 -10 -188 -10l-4 77s109 26 201 26c122 0 172 -51 172 -165zM328 233l-116 -11
c-46 -4 -69 -26 -69 -71s19 -73 61 -73c57 0 124 22 124 22v133zM369 718l24 -64s-50 -57 -96 -57c-42 0 -101 40 -134 40c-26 0 -75 -34 -75 -34l-24 63s51 56 98 56c41 0 103 -40 132 -40c24 0 75 36 75 36z" />
    <glyph glyph-name="adieresis" unicode="&#xe4;" horiz-adv-x="507" 
d="M436 346v-228c2 -30 15 -42 44 -46l-3 -83c-61 0 -96 8 -133 37c0 0 -80 -37 -161 -37c-99 0 -149 55 -149 159c0 106 58 142 165 151l129 11v36c0 55 -24 72 -73 72c-67 0 -188 -10 -188 -10l-4 77s109 26 201 26c122 0 172 -51 172 -165zM328 233l-116 -11
c-46 -4 -69 -26 -69 -71s19 -73 61 -73c57 0 124 22 124 22v133zM83 607v114h104v-114h-104zM292 607v114h104v-114h-104z" />
    <glyph glyph-name="aring" unicode="&#xe5;" horiz-adv-x="507" 
d="M436 346v-228c2 -30 15 -42 44 -46l-3 -83c-61 0 -96 8 -133 37c0 0 -80 -37 -161 -37c-99 0 -149 55 -149 159c0 106 58 142 165 151l129 11v36c0 55 -24 72 -73 72c-67 0 -188 -10 -188 -10l-4 77s109 26 201 26c122 0 172 -51 172 -165zM328 233l-116 -11
c-46 -4 -69 -26 -69 -71s19 -73 61 -73c57 0 124 22 124 22v133zM149 641c0 62 48 111 111 111c62 0 112 -49 112 -111c0 -64 -50 -111 -112 -111c-63 0 -111 47 -111 111zM211 641c0 -29 21 -51 50 -51c28 0 49 22 49 51c0 28 -21 50 -49 50c-29 0 -50 -22 -50 -50z" />
    <glyph glyph-name="ae" unicode="&#xe6;" horiz-adv-x="793" 
d="M550 88c79 0 185 9 185 9l2 -85s-115 -23 -202 -23c-69 0 -118 17 -151 50l-27 -12c-25 -11 -96 -38 -180 -38c-94 0 -143 60 -143 159c0 112 62 144 177 153l117 9v32c0 43 -26 65 -66 65c-74 0 -192 -11 -192 -11l-4 96s127 18 202 18c61 0 105 -16 132 -52
c34 36 83 52 143 52c140 0 210 -72 210 -228l-7 -79h-310c1 -78 31 -115 114 -115zM197 82c55 0 134 23 138 25c-6 35 -8 75 -8 119l-115 -8c-45 -3 -69 -22 -69 -67s19 -69 54 -69zM436 288h210c0 92 -30 126 -103 126c-74 0 -107 -38 -107 -126z" />
    <glyph glyph-name="ccedilla" unicode="&#xe7;" horiz-adv-x="442" 
d="M371 -127c0 -72 -41 -104 -104 -104c-43 0 -90 10 -90 10l4 65s34 -2 55 -2c28 0 41 9 41 31c0 21 -13 27 -41 27h-31v92c-119 15 -161 93 -161 265c0 179 60 254 209 254c53 0 150 -19 150 -19l-4 -86s-79 8 -117 8c-104 0 -128 -42 -128 -157c0 -128 21 -171 129 -171
c38 0 117 8 117 8l3 -87s-100 -18 -151 -18v-31c77 -1 119 -15 119 -85z" />
    <glyph glyph-name="egrave" unicode="&#xe8;" horiz-adv-x="508" 
d="M266 84c79 0 184 9 184 9l2 -81s-114 -23 -202 -23c-150 0 -208 80 -208 256c0 183 79 266 217 266c140 0 210 -73 210 -229l-7 -78h-310c1 -80 31 -120 114 -120zM151 288h211c0 100 -30 133 -103 133c-74 0 -107 -37 -108 -133zM149 748l236 -101l-26 -71l-244 78z" />
    <glyph glyph-name="eacute" unicode="&#xe9;" horiz-adv-x="508" 
d="M266 84c79 0 184 9 184 9l2 -81s-114 -23 -202 -23c-150 0 -208 80 -208 256c0 183 79 266 217 266c140 0 210 -73 210 -229l-7 -78h-310c1 -80 31 -120 114 -120zM151 288h211c0 100 -30 133 -103 133c-74 0 -107 -37 -108 -133zM122 647l236 101l34 -94l-244 -78z" />
    <glyph glyph-name="ecircumflex" unicode="&#xea;" horiz-adv-x="508" 
d="M266 84c79 0 184 9 184 9l2 -81s-114 -23 -202 -23c-150 0 -208 80 -208 256c0 183 79 266 217 266c140 0 210 -73 210 -229l-7 -78h-310c1 -80 31 -120 114 -120zM151 288h211c0 100 -30 133 -103 133c-74 0 -107 -37 -108 -133zM99 585l125 146h69l127 -146h-102
l-58 76l-58 -76h-103z" />
    <glyph glyph-name="edieresis" unicode="&#xeb;" horiz-adv-x="508" 
d="M266 84c79 0 184 9 184 9l2 -81s-114 -23 -202 -23c-150 0 -208 80 -208 256c0 183 79 266 217 266c140 0 210 -73 210 -229l-7 -78h-310c1 -80 31 -120 114 -120zM151 288h211c0 100 -30 133 -103 133c-74 0 -107 -37 -108 -133zM100 607v114h104v-114h-104zM309 607
v114h104v-114h-104z" />
    <glyph glyph-name="igrave" unicode="&#xec;" horiz-adv-x="241" 
d="M66 0v500h109v-500h-109zM-25 748l236 -101l-26 -71l-244 78z" />
    <glyph glyph-name="iacute" unicode="&#xed;" horiz-adv-x="241" 
d="M34 647l236 101l34 -94l-244 -78zM66 500v-500h109v500h-109z" />
    <glyph glyph-name="icircumflex" unicode="&#xee;" horiz-adv-x="241" 
d="M66 500v-500h109v500h-109zM-44 585l125 146h69l127 -146h-102l-58 76l-58 -76h-103z" />
    <glyph glyph-name="idieresis" unicode="&#xef;" horiz-adv-x="241" 
d="M66 500v-500h109v500h-109zM-40 607v114h104v-114h-104zM169 607v114h104v-114h-104z" />
    <glyph glyph-name="eth" unicode="&#xf0;" horiz-adv-x="559" 
d="M164 490l-45 63l85 57c-33 11 -72 21 -116 31l17 78c74 -10 138 -25 193 -46l98 66l46 -63l-65 -43c90 -60 137 -151 137 -284c0 -249 -70 -358 -244 -358c-148 0 -230 75 -230 224c0 132 71 220 214 220c72 0 146 -30 146 -30c-6 69 -34 124 -112 168zM261 338
c-72 0 -107 -57 -107 -123c0 -79 36 -126 116 -126c87 0 129 57 130 221c0 0 -67 28 -139 28z" />
    <glyph glyph-name="ntilde" unicode="&#xf1;" horiz-adv-x="546" 
d="M66 0h109v388s55 26 113 26c76 0 89 -49 89 -149v-265h108v268c0 164 -34 243 -173 243c-65 0 -138 -42 -138 -42v31h-108v-500zM420 718l24 -64s-50 -57 -96 -57c-42 0 -101 40 -134 40c-26 0 -75 -34 -75 -34l-24 63s51 56 98 56c41 0 103 -40 132 -40
c24 0 75 36 75 36z" />
    <glyph glyph-name="ograve" unicode="&#xf2;" horiz-adv-x="530" 
d="M265 511c167 0 223 -96 223 -258c0 -166 -51 -264 -223 -264c-171 0 -223 98 -223 264c0 162 56 258 223 258zM265 81c93 0 113 56 113 172s-25 166 -113 166s-113 -50 -113 -166s20 -172 113 -172zM165 748l236 -101l-26 -71l-244 78z" />
    <glyph glyph-name="oacute" unicode="&#xf3;" horiz-adv-x="530" 
d="M265 511c-167 0 -223 -96 -223 -258c0 -166 52 -264 223 -264c172 0 223 98 223 264c0 162 -56 258 -223 258zM265 81c-93 0 -113 56 -113 172s25 166 113 166s113 -50 113 -166s-20 -172 -113 -172zM132 647l236 101l34 -94l-244 -78z" />
    <glyph glyph-name="ocircumflex" unicode="&#xf4;" horiz-adv-x="530" 
d="M265 511c-167 0 -223 -96 -223 -258c0 -166 52 -264 223 -264c172 0 223 98 223 264c0 162 -56 258 -223 258zM265 81c-93 0 -113 56 -113 172s25 166 113 166s113 -50 113 -166s-20 -172 -113 -172zM100 585l125 146h69l127 -146h-102l-58 76l-58 -76h-103z" />
    <glyph glyph-name="otilde" unicode="&#xf5;" horiz-adv-x="530" 
d="M265 511c-167 0 -223 -96 -223 -258c0 -166 52 -264 223 -264c172 0 223 98 223 264c0 162 -56 258 -223 258zM265 81c-93 0 -113 56 -113 172s25 166 113 166s113 -50 113 -166s-20 -172 -113 -172zM402 718l24 -64s-50 -57 -96 -57c-42 0 -101 40 -134 40
c-26 0 -75 -34 -75 -34l-24 63s51 56 98 56c41 0 103 -40 132 -40c24 0 75 36 75 36z" />
    <glyph glyph-name="odieresis" unicode="&#xf6;" horiz-adv-x="530" 
d="M265 511c-167 0 -223 -96 -223 -258c0 -166 52 -264 223 -264c172 0 223 98 223 264c0 162 -56 258 -223 258zM265 81c-93 0 -113 56 -113 172s25 166 113 166s113 -50 113 -166s-20 -172 -113 -172zM107 607v114h104v-114h-104zM316 607v114h104v-114h-104z" />
    <glyph glyph-name="divide" unicode="&#xf7;" 
d="M105 241v110h68v77h213v-77h69v-110h-350zM225 23v118h108v-118h-108z" />
    <glyph glyph-name="oslash" unicode="&#xf8;" horiz-adv-x="530" 
d="M265 511c23 0 45 -3 64 -6l41 101l68 -25l-42 -101c67 -40 92 -119 92 -227c0 -166 -51 -264 -223 -264c-25 0 -48 2 -68 6l-43 -105l-67 25l44 105c-66 42 -89 122 -89 233c0 162 56 258 223 258zM265 81c93 0 113 56 113 172c0 60 -7 102 -26 129l-121 -298
c10 -2 21 -3 34 -3zM265 419c-88 0 -113 -50 -113 -166c0 -62 5 -106 24 -134l119 297c-9 2 -19 3 -30 3z" />
    <glyph glyph-name="ugrave" unicode="&#xf9;" horiz-adv-x="543" 
d="M369 500h108v-500h-108v31s-73 -42 -135 -42c-143 0 -173 74 -173 250v261h109v-262c0 -111 7 -152 85 -152c60 0 114 26 114 26v388zM139 748l236 -101l-26 -71l-244 78z" />
    <glyph glyph-name="uacute" unicode="&#xfa;" horiz-adv-x="543" 
d="M477 500h-108v-388s-54 -26 -114 -26c-78 0 -85 41 -85 152v262h-109v-261c0 -176 30 -250 173 -250c62 0 135 42 135 42v-31h108v500zM141 647l236 101l34 -94l-244 -78z" />
    <glyph glyph-name="ucircumflex" unicode="&#xfb;" horiz-adv-x="543" 
d="M477 500h-108v-388s-54 -26 -114 -26c-78 0 -85 41 -85 152v262h-109v-261c0 -176 30 -250 173 -250c62 0 135 42 135 42v-31h108v500zM92 585l125 146h69l127 -146h-102l-58 76l-58 -76h-103z" />
    <glyph glyph-name="udieresis" unicode="&#xfc;" horiz-adv-x="543" 
d="M477 500h-108v-388s-54 -26 -114 -26c-78 0 -85 41 -85 152v262h-109v-261c0 -176 30 -250 173 -250c62 0 135 42 135 42v-31h108v500zM117 607v114h104v-114h-104zM326 607v114h104v-114h-104z" />
    <glyph glyph-name="yacute" unicode="&#xfd;" horiz-adv-x="492" 
d="M20 500h107l106 -407h27l106 407h108l-190 -715h-107l60 215h-86zM136 647l236 101l34 -94l-244 -78z" />
    <glyph glyph-name="thorn" unicode="&#xfe;" horiz-adv-x="536" 
d="M258 83c103 0 125 53 125 173c0 113 -30 158 -97 158c-53 0 -111 -20 -111 -20v-305s53 -6 83 -6zM299 511c136 0 194 -66 194 -254c0 -207 -66 -268 -227 -268c-38 0 -91 7 -91 7v-211h-109v923h109v-227s69 30 124 30z" />
    <glyph glyph-name="ydieresis" unicode="&#xff;" horiz-adv-x="492" 
d="M20 500h107l106 -407h27l106 407h108l-190 -715h-107l60 215h-86zM90 607v114h104v-114h-104zM299 607v114h104v-114h-104z" />
    <glyph glyph-name="Amacron" unicode="&#x100;" horiz-adv-x="599" 
d="M20 0l169 685h221l170 -685h-112l-37 147h-263l-37 -147h-111zM275 592l-85 -347h219l-84 347h-50zM131 795v81h332v-81h-332z" />
    <glyph glyph-name="amacron" unicode="&#x101;" horiz-adv-x="507" 
d="M436 346v-228c2 -30 15 -42 44 -46l-3 -83c-61 0 -96 8 -133 37c0 0 -80 -37 -161 -37c-99 0 -149 55 -149 159c0 106 58 142 165 151l129 11v36c0 55 -24 72 -73 72c-67 0 -188 -10 -188 -10l-4 77s109 26 201 26c122 0 172 -51 172 -165zM328 233l-116 -11
c-46 -4 -69 -26 -69 -71s19 -73 61 -73c57 0 124 22 124 22v133zM109 609v82h282v-82h-282z" />
    <glyph glyph-name="Abreve" unicode="&#x102;" horiz-adv-x="599" 
d="M20 0l169 685h221l170 -685h-112l-37 147h-263l-37 -147h-111zM275 592l-85 -347h219l-84 347h-50zM123 914h99c3 -38 33 -65 74 -65c44 0 73 27 76 65h99c-8 -83 -66 -143 -175 -143c-108 0 -166 60 -173 143z" />
    <glyph glyph-name="abreve" unicode="&#x103;" horiz-adv-x="508" 
d="M436 131v212c0 121 -59 167 -168 167c-75 0 -202 -20 -202 -20l3 -93s119 10 193 10c40 0 66 -23 66 -65v-32l-129 -11c-108 -8 -165 -45 -165 -151c0 -99 50 -159 143 -159c81 0 167 36 167 36c29 -24 56 -36 132 -36l3 93c-29 4 -42 14 -43 49zM212 218l116 8v-122
s-74 -22 -131 -22c-35 0 -54 24 -54 69c0 43 23 64 69 67zM73 741h112c4 -36 27 -57 68 -57c42 0 64 21 67 57h112c-7 -89 -66 -153 -179 -153s-172 64 -180 153z" />
    <glyph glyph-name="Aogonek" unicode="&#x104;" horiz-adv-x="599" 
d="M20 0l169 685h221l170 -685h-14c-6 -5 -62 -58 -62 -90c0 -23 15 -38 36 -38c10 0 45 5 45 5l10 -79s-53 -10 -92 -10c-58 0 -101 35 -101 93c0 54 46 100 68 119h-2l-37 147h-263l-37 -147h-111zM275 592l-85 -347h219l-84 347h-50z" />
    <glyph glyph-name="aogonek" unicode="&#x105;" horiz-adv-x="506" 
d="M436 346v-228c2 -30 15 -42 44 -46l-3 -83c-13 0 -25 0 -36 1c-18 -18 -52 -54 -52 -80c0 -23 15 -38 36 -38c10 0 45 5 45 5l10 -79s-53 -10 -92 -10c-58 0 -101 35 -101 93c0 71 81 129 81 129c-8 4 -16 9 -24 16c0 0 -80 -37 -161 -37c-99 0 -149 55 -149 159
c0 106 58 142 165 151l129 11v36c0 55 -24 72 -73 72c-67 0 -188 -10 -188 -10l-4 77s109 26 201 26c122 0 172 -51 172 -165zM328 233l-116 -11c-46 -4 -69 -26 -69 -71s19 -73 61 -73c57 0 124 22 124 22v133z" />
    <glyph glyph-name="Cacute" unicode="&#x106;" horiz-adv-x="544" 
d="M501 103l3 -92c-47 -10 -131 -22 -195 -22c-209 0 -257 119 -257 353c0 247 52 354 257 354c71 0 153 -15 196 -25l-4 -90c-45 8 -128 16 -177 16c-126 0 -157 -61 -157 -255c0 -188 25 -254 160 -254c51 0 131 8 174 15zM162 836l236 103l35 -97l-243 -82z" />
    <glyph glyph-name="cacute" unicode="&#x107;" horiz-adv-x="442" 
d="M253 511c53 0 150 -19 150 -19l-4 -86s-79 8 -117 8c-104 0 -128 -42 -128 -157c0 -128 21 -171 129 -171c38 0 117 8 117 8l3 -87s-101 -18 -152 -18c-154 0 -207 76 -207 268c0 179 60 254 209 254zM110 647l236 101l34 -94l-244 -78z" />
    <glyph glyph-name="Ccircumflex" unicode="&#x108;" horiz-adv-x="544" 
d="M501 103l3 -92c-47 -10 -131 -22 -195 -22c-209 0 -257 119 -257 353c0 247 52 354 257 354c71 0 153 -15 196 -25l-4 -90c-45 8 -128 16 -177 16c-126 0 -157 -61 -157 -255c0 -188 25 -254 160 -254c51 0 131 8 174 15zM123 776l134 143h94l134 -143h-116l-64 67
l-65 -67h-117z" />
    <glyph glyph-name="ccircumflex" unicode="&#x109;" horiz-adv-x="442" 
d="M253 511c53 0 150 -19 150 -19l-4 -86s-79 8 -117 8c-104 0 -128 -42 -128 -157c0 -128 21 -171 129 -171c38 0 117 8 117 8l3 -87s-101 -18 -152 -18c-154 0 -207 76 -207 268c0 179 60 254 209 254zM66 585l125 146h69l127 -146h-102l-58 76l-58 -76h-103z" />
    <glyph glyph-name="Cdotaccent" unicode="&#x10a;" horiz-adv-x="544" 
d="M501 103l3 -92c-47 -10 -131 -22 -195 -22c-209 0 -257 119 -257 353c0 247 52 354 257 354c71 0 153 -15 196 -25l-4 -90c-45 8 -128 16 -177 16c-126 0 -157 -61 -157 -255c0 -188 25 -254 160 -254c51 0 131 8 174 15zM235 777v114h108v-114h-108z" />
    <glyph glyph-name="cdotaccent" unicode="&#x10b;" horiz-adv-x="442" 
d="M253 511c53 0 150 -19 150 -19l-4 -86s-79 8 -117 8c-104 0 -128 -42 -128 -157c0 -128 21 -171 129 -171c38 0 117 8 117 8l3 -87s-101 -18 -152 -18c-154 0 -207 76 -207 268c0 179 60 254 209 254zM200 579v114h108v-114h-108z" />
    <glyph glyph-name="Ccaron" unicode="&#x10c;" horiz-adv-x="544" 
d="M501 103l3 -92c-47 -10 -131 -22 -195 -22c-209 0 -257 119 -257 353c0 247 52 354 257 354c71 0 153 -15 196 -25l-4 -90c-45 8 -128 16 -177 16c-126 0 -157 -61 -157 -255c0 -188 25 -254 160 -254c51 0 131 8 174 15zM259 776l-134 143h117l65 -66l63 66h117
l-134 -143h-94z" />
    <glyph glyph-name="ccaron" unicode="&#x10d;" horiz-adv-x="442" 
d="M253 511c53 0 150 -19 150 -19l-4 -86s-79 8 -117 8c-104 0 -128 -42 -128 -157c0 -128 21 -171 129 -171c38 0 117 8 117 8l3 -87s-101 -18 -152 -18c-154 0 -207 76 -207 268c0 179 60 254 209 254zM205 585l-125 146h102l59 -75l58 75h102l-127 -146h-69z" />
    <glyph glyph-name="Dcaron" unicode="&#x10e;" horiz-adv-x="641" 
d="M316 0h-237v685h237c221 0 274 -118 274 -331c0 -217 -48 -354 -274 -354zM475 354c0 150 -21 234 -159 234h-126v-490h126c138 0 159 106 159 256zM253 776l-134 143h117l65 -66l63 66h117l-134 -143h-94z" />
    <glyph glyph-name="dcaron" unicode="&#x10f;" horiz-adv-x="625" 
d="M576 680l-43 -222h96l53 222h-106zM474 708v-708h-108v26s-73 -37 -134 -37c-128 0 -189 67 -189 260c0 181 65 262 208 262c40 0 108 -12 114 -13v210h109zM249 86c57 0 116 25 116 25v296c-6 1 -64 10 -106 10c-74 0 -106 -54 -106 -168c0 -128 35 -163 96 -163z" />
    <glyph glyph-name="Dcroat" unicode="&#x110;" horiz-adv-x="644" 
d="M23 292v106h60v295h235c222 0 275 -120 275 -334c0 -219 -48 -359 -275 -359h-235v292h-60zM478 359c0 142 -21 228 -160 228h-125v-189h142v-106h-142v-186h125c139 0 160 108 160 253z" />
    <glyph glyph-name="dcroat" unicode="&#x111;" horiz-adv-x="540" 
d="M155 622v94h311v-8h8v-708h-108v26s-73 -37 -134 -37c-128 0 -189 67 -189 260c0 181 65 262 208 262c40 0 108 -12 114 -13v124h-210zM249 86c57 0 116 25 116 25v296c-6 1 -64 10 -106 10c-74 0 -106 -54 -106 -168c0 -128 35 -163 96 -163z" />
    <glyph glyph-name="Emacron" unicode="&#x112;" horiz-adv-x="553" 
d="M79 0v685h432v-97h-321v-194h261v-96h-261v-200h321v-98h-432zM125 795v81h332v-81h-332z" />
    <glyph glyph-name="emacron" unicode="&#x113;" horiz-adv-x="508" 
d="M266 84c79 0 184 9 184 9l2 -81s-114 -23 -202 -23c-150 0 -208 80 -208 256c0 183 79 266 217 266c140 0 210 -73 210 -229l-7 -78h-310c1 -80 31 -120 114 -120zM151 288h211c0 100 -30 133 -103 133c-74 0 -107 -37 -108 -133zM117 609v82h282v-82h-282z" />
    <glyph glyph-name="Ebreve" unicode="&#x114;" horiz-adv-x="553" 
d="M79 0v685h432v-97h-321v-194h261v-96h-261v-200h321v-98h-432zM128 914h99c3 -38 33 -65 74 -65c44 0 73 27 76 65h99c-8 -83 -66 -143 -175 -143c-108 0 -166 60 -173 143z" />
    <glyph glyph-name="ebreve" unicode="&#x115;" horiz-adv-x="508" 
d="M266 84c79 0 184 9 184 9l2 -81s-114 -23 -202 -23c-150 0 -208 80 -208 256c0 183 79 266 217 266c140 0 210 -73 210 -229l-7 -78h-310c1 -80 31 -120 114 -120zM151 288h211c0 100 -30 133 -103 133c-74 0 -107 -37 -108 -133zM100 728h84c4 -44 30 -74 74 -74
c45 0 70 31 73 74h84c-8 -78 -62 -149 -157 -149c-96 0 -150 71 -158 149z" />
    <glyph glyph-name="Edotaccent" unicode="&#x116;" horiz-adv-x="553" 
d="M79 0v685h432v-97h-321v-194h261v-96h-261v-200h321v-98h-432zM244 782v114h108v-114h-108z" />
    <glyph glyph-name="edotaccent" unicode="&#x117;" horiz-adv-x="508" 
d="M266 84c79 0 184 9 184 9l2 -81s-114 -23 -202 -23c-150 0 -208 80 -208 256c0 183 79 266 217 266c140 0 210 -73 210 -229l-7 -78h-310c1 -80 31 -120 114 -120zM151 288h211c0 100 -30 133 -103 133c-74 0 -107 -37 -108 -133zM201 579v114h108v-114h-108z" />
    <glyph glyph-name="Eogonek" unicode="&#x118;" horiz-adv-x="553" 
d="M79 0v685h432v-97h-321v-194h261v-96h-261v-200h321v-98h-29c-6 -5 -62 -58 -62 -90c0 -23 15 -38 36 -38c10 0 45 5 45 5l10 -79s-53 -10 -92 -10c-58 0 -101 35 -101 93c0 54 46 100 68 119h-307z" />
    <glyph glyph-name="eogonek" unicode="&#x119;" horiz-adv-x="509" 
d="M410 1c0 0 -64 -57 -64 -91c0 -23 15 -38 36 -38c10 0 45 5 45 5l10 -79s-53 -10 -92 -10c-58 0 -101 35 -101 93c0 47 35 88 59 111c-19 -2 -36 -3 -53 -3c-150 0 -208 80 -208 256c0 183 79 266 217 266c140 0 210 -73 210 -229l-7 -78h-310c1 -80 31 -120 114 -120
c79 0 184 9 184 9l2 -81s-24 -5 -55 -10zM151 288h211c0 100 -30 133 -103 133c-74 0 -107 -37 -108 -133z" />
    <glyph glyph-name="Ecaron" unicode="&#x11a;" horiz-adv-x="553" 
d="M79 0v685h432v-97h-321v-194h261v-96h-261v-200h321v-98h-432zM237 776l-134 143h117l65 -66l63 66h117l-134 -143h-94z" />
    <glyph glyph-name="ecaron" unicode="&#x11b;" horiz-adv-x="508" 
d="M266 84c79 0 184 9 184 9l2 -81s-114 -23 -202 -23c-150 0 -208 80 -208 256c0 183 79 266 217 266c140 0 210 -73 210 -229l-7 -78h-310c1 -80 31 -120 114 -120zM151 288h211c0 100 -30 133 -103 133c-74 0 -107 -37 -108 -133zM218 585l-125 146h102l59 -75l58 75h102
l-127 -146h-69z" />
    <glyph glyph-name="Gcircumflex" unicode="&#x11c;" horiz-adv-x="613" 
d="M358 263v98h195v-348c-9 -2 -146 -23 -229 -23c-218 0 -274 126 -274 353c0 240 66 354 270 354c105 0 233 -27 233 -27l-4 -88s-121 16 -212 16c-137 0 -172 -62 -172 -255c0 -186 29 -256 169 -256c45 0 97 6 109 9v167h-85zM145 775l134 143h94l134 -143h-116l-64 67
l-65 -67h-117z" />
    <glyph glyph-name="gcircumflex" unicode="&#x11d;" horiz-adv-x="525" 
d="M272 -232c-151 0 -230 30 -230 144c0 51 25 82 76 121c-21 14 -33 42 -33 73c0 23 36 80 36 80c-37 22 -72 60 -72 150c0 126 85 174 200 174c46 0 102 -13 102 -13l155 4v-88l-83 5c13 -17 27 -43 27 -82c0 -136 -71 -173 -204 -173c-10 0 -35 2 -44 4
c0 0 -14 -34 -14 -47c0 -32 11 -38 108 -39c158 -1 207 -34 207 -149c0 -118 -97 -164 -231 -164zM287 -13c-31 0 -98 6 -98 6c-28 -23 -40 -40 -40 -71c0 -46 33 -65 124 -65c81 0 121 20 121 69c0 54 -26 60 -107 61zM249 247c67 0 93 28 93 89c0 60 -26 89 -93 89
c-64 0 -92 -29 -92 -89c0 -61 28 -89 92 -89zM107 585l125 146h69l127 -146h-102l-58 76l-58 -76h-103z" />
    <glyph glyph-name="Gbreve" unicode="&#x11e;" horiz-adv-x="613" 
d="M358 262v98h195v-348c-9 -2 -146 -23 -229 -23c-218 0 -274 126 -274 353c0 240 66 354 270 354c105 0 233 -27 233 -27l-4 -88s-121 16 -212 16c-137 0 -172 -62 -172 -255c0 -186 29 -256 169 -256c45 0 97 6 109 9v167h-85zM151 914h99c3 -38 33 -65 74 -65
c44 0 73 27 76 65h99c-8 -83 -66 -143 -175 -143c-108 0 -166 60 -173 143z" />
    <glyph glyph-name="gbreve" unicode="&#x11f;" horiz-adv-x="525" 
d="M272 -232c-151 0 -230 30 -230 144c0 51 25 82 76 121c-21 14 -33 42 -33 73c0 23 36 80 36 80c-37 22 -72 60 -72 150c0 126 85 174 200 174c46 0 102 -13 102 -13l155 4v-88l-83 5c13 -17 27 -43 27 -82c0 -136 -71 -173 -204 -173c-10 0 -35 2 -44 4
c0 0 -14 -34 -14 -47c0 -32 11 -38 108 -39c158 -1 207 -34 207 -149c0 -118 -97 -164 -231 -164zM287 -13c-31 0 -98 6 -98 6c-28 -23 -40 -40 -40 -71c0 -46 33 -65 124 -65c81 0 121 20 121 69c0 54 -26 60 -107 61zM249 247c67 0 93 28 93 89c0 60 -26 89 -93 89
c-64 0 -92 -29 -92 -89c0 -61 28 -89 92 -89zM109 728h84c4 -44 30 -74 74 -74c45 0 70 31 73 74h84c-8 -78 -62 -149 -157 -149c-96 0 -150 71 -158 149z" />
    <glyph glyph-name="Gdotaccent" unicode="&#x120;" horiz-adv-x="613" 
d="M358 262v98h195v-348c-9 -2 -146 -23 -229 -23c-218 0 -274 126 -274 353c0 240 66 354 270 354c105 0 233 -27 233 -27l-4 -88s-121 16 -212 16c-137 0 -172 -62 -172 -255c0 -186 29 -256 169 -256c45 0 97 6 109 9v167h-85zM258 782v114h108v-114h-108z" />
    <glyph glyph-name="gdotaccent" unicode="&#x121;" horiz-adv-x="525" 
d="M272 -232c-151 0 -230 30 -230 144c0 51 25 82 76 121c-21 14 -33 42 -33 73c0 23 36 80 36 80c-37 22 -72 60 -72 150c0 126 85 174 200 174c46 0 102 -13 102 -13l155 4v-88l-83 5c13 -17 27 -43 27 -82c0 -136 -71 -173 -204 -173c-10 0 -35 2 -44 4
c0 0 -14 -34 -14 -47c0 -32 11 -38 108 -39c158 -1 207 -34 207 -149c0 -118 -97 -164 -231 -164zM287 -13c-31 0 -98 6 -98 6c-28 -23 -40 -40 -40 -71c0 -46 33 -65 124 -65c81 0 121 20 121 69c0 54 -26 60 -107 61zM249 247c67 0 93 28 93 89c0 60 -26 89 -93 89
c-64 0 -92 -29 -92 -89c0 -61 28 -89 92 -89zM212 579v114h108v-114h-108z" />
    <glyph glyph-name="Gcommaaccent" unicode="&#x122;" horiz-adv-x="613" 
d="M358 262v98h195v-348c-9 -2 -146 -23 -229 -23c-218 0 -274 126 -274 353c0 240 66 354 270 354c105 0 233 -27 233 -27l-4 -88s-121 16 -212 16c-137 0 -172 -62 -172 -255c0 -186 29 -256 169 -256c45 0 97 6 109 9v167h-85zM281 -77l-44 -223h97l53 223h-106z" />
    <glyph glyph-name="gcommaaccent" unicode="&#x123;" horiz-adv-x="525" 
d="M329 808l-44 -222h-105l52 222h97zM272 -232c-151 0 -230 30 -230 144c0 51 25 82 76 121c-21 14 -33 42 -33 73c0 23 36 80 36 80c-37 22 -72 60 -72 150c0 126 85 174 200 174c46 0 102 -13 102 -13l155 4v-88l-83 5c13 -17 27 -43 27 -82c0 -136 -71 -173 -204 -173
c-10 0 -35 2 -44 4c0 0 -14 -34 -14 -47c0 -32 11 -38 108 -39c158 -1 207 -34 207 -149c0 -118 -97 -164 -231 -164zM287 -13c-31 0 -98 6 -98 6c-28 -23 -40 -40 -40 -71c0 -46 33 -65 124 -65c81 0 121 20 121 69c0 54 -26 60 -107 61zM249 247c67 0 93 28 93 89
c0 60 -26 89 -93 89c-64 0 -92 -29 -92 -89c0 -61 28 -89 92 -89z" />
    <glyph glyph-name="Hcircumflex" unicode="&#x124;" horiz-adv-x="676" 
d="M486 0v296h-296v-296h-111v685h111v-292h296v292h112v-685h-112zM157 776l134 143h94l134 -143h-116l-64 67l-65 -67h-117z" />
    <glyph glyph-name="hcircumflex" unicode="&#x125;" horiz-adv-x="546" 
d="M175 0h-109v708h109v-234s74 37 137 37c139 0 173 -79 173 -243v-268h-109v265c0 100 -12 149 -89 149c-55 0 -112 -22 -112 -22v-392zM112 760l125 146h69l127 -146h-102l-58 76l-58 -76h-103z" />
    <glyph glyph-name="Hbar" unicode="&#x126;" horiz-adv-x="685" 
d="M17 495v95h66v95h111v-95h296v95h112v-95h73v-95h-73v-495h-112v296h-296v-296h-111v495h-66zM194 393h296v102h-296v-102z" />
    <glyph glyph-name="hbar" unicode="&#x127;" horiz-adv-x="546" 
d="M11 553v94h55v61h109v-61h147v-94h-147v-79s74 37 137 37c139 0 173 -79 173 -243v-268h-109v265c0 100 -12 149 -89 149c-55 0 -112 -22 -112 -22v-392h-109v553h-55z" />
    <glyph glyph-name="Itilde" unicode="&#x128;" horiz-adv-x="269" 
d="M79 0v685h111v-685h-111zM290 917l24 -79s-49 -61 -97 -61c-50 0 -134 50 -167 50c-26 0 -76 -44 -76 -44l-24 78s51 62 99 62c56 0 136 -50 165 -50c24 0 76 44 76 44z" />
    <glyph glyph-name="itilde" unicode="&#x129;" horiz-adv-x="241" 
d="M66 500v-500h109v500h-109zM263 718l24 -64s-50 -57 -96 -57c-42 0 -101 40 -134 40c-26 0 -75 -34 -75 -34l-24 63s51 56 98 56c41 0 103 -40 132 -40c24 0 75 36 75 36z" />
    <glyph glyph-name="Imacron" unicode="&#x12a;" horiz-adv-x="269" 
d="M79 0v685h111v-685h-111zM-29 795v81h332v-81h-332z" />
    <glyph glyph-name="imacron" unicode="&#x12b;" horiz-adv-x="241" 
d="M66 500v-500h109v500h-109zM-20 609v82h282v-82h-282z" />
    <glyph glyph-name="Ibreve" unicode="&#x12c;" horiz-adv-x="269" 
d="M79 0v685h111v-685h-111zM-26 914h99c3 -38 33 -65 74 -65c44 0 73 27 76 65h99c-8 -83 -66 -143 -175 -143c-108 0 -166 60 -173 143z" />
    <glyph glyph-name="ibreve" unicode="&#x12d;" horiz-adv-x="241" 
d="M66 500v-500h109v500h-109zM-37 728h84c4 -44 30 -74 74 -74c45 0 70 31 73 74h84c-8 -78 -62 -149 -157 -149c-96 0 -150 71 -158 149z" />
    <glyph glyph-name="Iogonek" unicode="&#x12e;" horiz-adv-x="269" 
d="M79 0v685h111v-685s-70 -56 -70 -90c0 -23 15 -38 35 -38c11 0 46 5 46 5l10 -79s-53 -10 -92 -10c-58 0 -102 35 -102 93c0 54 47 100 71 119h-9z" />
    <glyph glyph-name="iogonek" unicode="&#x12f;" horiz-adv-x="241" 
d="M66 0v500h109v-500s-71 -54 -71 -90c0 -23 15 -38 36 -38c10 0 46 5 46 5l9 -79s-53 -10 -92 -10c-57 0 -101 35 -101 93c0 53 49 100 73 119h-9zM66 585v115h109v-115h-109z" />
    <glyph glyph-name="Idotaccent" unicode="&#x130;" horiz-adv-x="269" 
d="M79 0v685h111v-685h-111zM80 782v114h108v-114h-108z" />
    <glyph glyph-name="dotlessi" unicode="&#x131;" horiz-adv-x="241" 
d="M66 0v500h109v-500h-109z" />
    <glyph glyph-name="Jcircumflex" unicode="&#x134;" horiz-adv-x="296" 
d="M221 685l1 -579c0 -150 -61 -177 -203 -177v98c67 0 92 11 92 87v571h110zM-15 775l134 143h94l134 -143h-116l-64 67l-65 -67h-117z" />
    <glyph glyph-name="jcircumflex" unicode="&#x135;" horiz-adv-x="242" 
d="M67 19v481h108v-482c0 -132 -36 -176 -173 -245l-43 81c91 57 108 77 108 165zM-39 585l125 146h69l127 -146h-102l-58 76l-58 -76h-103z" />
    <glyph glyph-name="Kcommaaccent" unicode="&#x136;" horiz-adv-x="581" 
d="M437 0l-145 286l-102 -7v-279h-111v693h111v-307l100 7l140 300h129l-169 -346l176 -347h-129zM253 -77l-43 -223h96l53 223h-106z" />
    <glyph glyph-name="kcommaaccent" unicode="&#x137;" horiz-adv-x="499" 
d="M38 -300l43 223h106l-53 -223h-96zM175 0h-109v708h109v-409l62 6l118 195h122l-144 -234l152 -266h-123l-122 211l-65 -7v-204z" />
    <glyph glyph-name="Lacute" unicode="&#x139;" horiz-adv-x="476" 
d="M463 0h-384v693h111v-586h273v-107zM120 836l236 103l35 -97l-243 -82z" />
    <glyph glyph-name="lacute" unicode="&#x13a;" horiz-adv-x="253" 
d="M72 0v708h109v-708h-109zM46 854l236 101l34 -94l-244 -78z" />
    <glyph glyph-name="Lcommaaccent" unicode="&#x13b;" horiz-adv-x="475" 
d="M220 -77l-44 -223h97l53 223h-106zM463 0h-384v685h111v-586h273v-99z" />
    <glyph glyph-name="lcommaaccent" unicode="&#x13c;" horiz-adv-x="253" 
d="M72 0v708h109v-708h-109zM69 -77l-44 -223h97l53 223h-106z" />
    <glyph glyph-name="Lcaron" unicode="&#x13d;" horiz-adv-x="496" 
d="M451 693v-249h-105v249h105zM463 0h-384v685h111v-586h273v-99z" />
    <glyph glyph-name="lcaron" unicode="&#x13e;" horiz-adv-x="331" 
d="M282 680l-43 -222h96l53 222h-106zM72 0v708h109v-708h-109z" />
    <glyph glyph-name="Lslash" unicode="&#x141;" horiz-adv-x="482" 
d="M470 0h-384v240l-48 -33l-53 74l101 70v334h111v-256l118 83l53 -73l-171 -121v-219h273v-99z" />
    <glyph glyph-name="lslash" unicode="&#x142;" horiz-adv-x="350" 
d="M117 0v244l-58 -40l-53 74l111 77v353h108v-277l68 48l53 -74l-121 -85v-320h-108z" />
    <glyph glyph-name="Nacute" unicode="&#x143;" horiz-adv-x="686" 
d="M79 0v685h194l208 -587h15v587h111v-685h-190l-213 588h-14v-588h-111zM210 836l236 103l35 -97l-243 -82z" />
    <glyph glyph-name="nacute" unicode="&#x144;" horiz-adv-x="546" 
d="M66 0h109v388s55 26 113 26c76 0 89 -49 89 -149v-265h108v268c0 164 -34 243 -173 243c-65 0 -138 -42 -138 -42v31h-108v-500zM152 647l236 101l34 -94l-244 -78z" />
    <glyph glyph-name="Ncommaaccent" unicode="&#x145;" horiz-adv-x="686" 
d="M310 -77l-44 -223h97l52 223h-105zM79 0v685h194l208 -587h15v587h111v-685h-190l-213 588h-14v-588h-111z" />
    <glyph glyph-name="ncommaaccent" unicode="&#x146;" horiz-adv-x="546" 
d="M50 -300l43 223h106l-53 -223h-96zM175 0h-109v500h108v-31s73 42 138 42c139 0 173 -79 173 -243v-268h-108v265c0 100 -13 149 -89 149c-58 0 -113 -26 -113 -26v-388z" />
    <glyph glyph-name="Ncaron" unicode="&#x147;" horiz-adv-x="686" 
d="M79 0v685h194l208 -587h15v587h111v-685h-190l-213 588h-14v-588h-111zM297 775l-134 143h117l65 -66l63 66h117l-134 -143h-94z" />
    <glyph glyph-name="ncaron" unicode="&#x148;" horiz-adv-x="546" 
d="M175 0h-109v500h108v-31s73 42 138 42c139 0 173 -79 173 -243v-268h-108v265c0 100 -13 149 -89 149c-58 0 -113 -26 -113 -26v-388zM236 585l-125 146h102l59 -75l58 75h102l-127 -146h-69z" />
    <glyph glyph-name="Eng" unicode="&#x14a;" horiz-adv-x="686" 
d="M79 0v685h194l208 -587h15v587h111v-710c0 -150 -61 -177 -203 -177v98c67 0 92 11 92 87v17h-79l-213 588h-14v-588h-111z" />
    <glyph glyph-name="eng" unicode="&#x14b;" horiz-adv-x="546" 
d="M174 0h-108v499h108v-26s84 38 141 38c132 0 170 -90 170 -250v-259c0 -133 -29 -176 -170 -245l-48 90c94 53 110 73 110 151v262c0 91 -13 152 -83 152c-47 0 -120 -26 -120 -26v-386z" />
    <glyph glyph-name="Omacron" unicode="&#x14c;" horiz-adv-x="656" 
d="M328 86c133 0 163 79 163 253c0 170 -31 260 -163 260s-164 -90 -164 -260c0 -171 31 -253 164 -253zM328 -11c-215 0 -279 119 -279 350c0 229 65 357 279 357s278 -127 278 -357c0 -233 -64 -350 -278 -350zM159 795v81h332v-81h-332z" />
    <glyph glyph-name="omacron" unicode="&#x14d;" horiz-adv-x="530" 
d="M265 511c-167 0 -223 -96 -223 -258c0 -166 52 -264 223 -264c172 0 223 98 223 264c0 162 -56 258 -223 258zM265 81c-93 0 -113 56 -113 172s25 166 113 166s113 -50 113 -166s-20 -172 -113 -172zM127 614v82h282v-82h-282z" />
    <glyph glyph-name="Obreve" unicode="&#x14e;" horiz-adv-x="656" 
d="M328 86c133 0 163 79 163 253c0 170 -31 260 -163 260s-164 -90 -164 -260c0 -171 31 -253 164 -253zM328 -11c-215 0 -279 119 -279 350c0 229 65 357 279 357s278 -127 278 -357c0 -233 -64 -350 -278 -350zM155 914h99c3 -38 33 -65 74 -65c44 0 73 27 76 65h99
c-8 -83 -66 -143 -175 -143c-108 0 -166 60 -173 143z" />
    <glyph glyph-name="obreve" unicode="&#x14f;" horiz-adv-x="530" 
d="M265 511c-167 0 -223 -96 -223 -258c0 -166 52 -264 223 -264c172 0 223 98 223 264c0 162 -56 258 -223 258zM265 81c-93 0 -113 56 -113 172s25 166 113 166s113 -50 113 -166s-20 -172 -113 -172zM110 728h84c4 -44 30 -74 74 -74c45 0 70 31 73 74h84
c-8 -78 -62 -149 -157 -149c-96 0 -150 71 -158 149z" />
    <glyph glyph-name="Ohungarumlaut" unicode="&#x150;" horiz-adv-x="656" 
d="M328 86c133 0 163 79 163 253c0 170 -31 260 -163 260s-164 -90 -164 -260c0 -171 31 -253 164 -253zM328 -11c-215 0 -279 119 -279 350c0 229 65 357 279 357s278 -127 278 -357c0 -233 -64 -350 -278 -350zM358 779l99 169l90 -39l-108 -164zM154 780l100 169l89 -39
l-107 -164z" />
    <glyph glyph-name="ohungarumlaut" unicode="&#x151;" horiz-adv-x="530" 
d="M265 511c-167 0 -223 -96 -223 -258c0 -166 52 -264 223 -264c172 0 223 98 223 264c0 162 -56 258 -223 258zM265 81c-93 0 -113 56 -113 172s25 166 113 166s113 -50 113 -166s-20 -172 -113 -172zM270 626l129 168l85 -57l-135 -166zM71 626l129 167l85 -56l-135 -166
z" />
    <glyph glyph-name="OE" unicode="&#x152;" horiz-adv-x="912" 
d="M868 0h-426c-39 -6 -92 -11 -129 -11c-212 0 -262 119 -262 356c0 252 64 359 262 359c37 0 90 -5 127 -11h428v-107h-318v-181h258v-106h-258v-192h318v-107zM331 98c22 0 75 4 109 7v482c-35 3 -87 7 -112 7c-127 0 -162 -60 -162 -248c0 -182 27 -248 165 -248z" />
    <glyph glyph-name="oe" unicode="&#x153;" horiz-adv-x="844" 
d="M602 88c79 0 184 9 184 9l2 -85s-114 -23 -202 -23c-75 0 -125 21 -157 78c-33 -57 -84 -78 -163 -78c-172 0 -224 98 -224 264c0 162 56 257 224 257c79 0 134 -23 167 -91c36 70 92 91 161 91c141 0 211 -72 211 -228l-8 -79h-310c1 -78 31 -115 115 -115zM266 87
c93 0 112 56 112 165c0 110 -29 161 -112 161c-88 0 -114 -48 -114 -160c0 -113 21 -166 114 -166zM487 288h210c0 92 -29 126 -103 126c-73 0 -107 -39 -107 -126z" />
    <glyph glyph-name="Racute" unicode="&#x154;" horiz-adv-x="618" 
d="M190 244h161l99 -244h122l-113 269c73 34 112 101 112 198c0 152 -81 218 -232 218h-260v-685h111v244zM457 466c0 -71 -32 -126 -116 -126h-151v249h149c80 0 118 -45 118 -123zM178 836l236 103l35 -97l-243 -82z" />
    <glyph glyph-name="racute" unicode="&#x155;" horiz-adv-x="361" 
d="M66 0v500h108v-60s85 55 170 71v-109c-91 -18 -169 -53 -169 -53v-349h-109zM56 647l236 101l34 -94l-244 -78z" />
    <glyph glyph-name="Rcommaaccent" unicode="&#x156;" horiz-adv-x="618" 
d="M226 -300l43 223h106l-52 -223h-97zM351 244h-161v-244h-111v685h260c151 0 232 -66 232 -218c0 -97 -39 -164 -112 -198l113 -269h-122zM457 466c0 78 -38 123 -118 123h-149v-249h151c84 0 116 55 116 126z" />
    <glyph glyph-name="rcommaaccent" unicode="&#x157;" horiz-adv-x="361" 
d="M66 -77l-43 -223h97l52 223h-106zM66 0v500h108v-60s85 55 170 71v-109c-91 -18 -169 -53 -169 -53v-349h-109z" />
    <glyph glyph-name="Rcaron" unicode="&#x158;" horiz-adv-x="618" 
d="M351 244h-161v-244h-111v685h260c151 0 232 -66 232 -218c0 -97 -39 -164 -112 -198l113 -269h-122zM457 466c0 78 -38 123 -118 123h-149v-249h151c84 0 116 55 116 126zM253 776l-134 143h117l65 -66l63 66h117l-134 -143h-94z" />
    <glyph glyph-name="rcaron" unicode="&#x159;" horiz-adv-x="361" 
d="M66 0v500h108v-60s85 55 170 71v-109c-91 -18 -169 -53 -169 -53v-349h-109zM139 585l-125 146h102l59 -75l58 75h102l-127 -146h-69z" />
    <glyph glyph-name="Sacute" unicode="&#x15a;" horiz-adv-x="543" 
d="M487 673l-9 -90s-140 16 -198 16c-84 0 -127 -30 -127 -89c0 -64 36 -79 153 -111c144 -40 196 -78 196 -195c0 -150 -94 -215 -229 -215c-89 0 -224 27 -224 27l11 89s135 -18 206 -18c85 0 124 38 124 110c0 58 -31 78 -136 103c-148 38 -212 83 -212 202
c0 138 91 195 228 195c87 0 217 -24 217 -24zM153 836l236 103l35 -97l-243 -82z" />
    <glyph glyph-name="sacute" unicode="&#x15b;" horiz-adv-x="469" 
d="M415 488l-2 -91s-118 16 -178 16s-87 -14 -87 -55c0 -33 21 -42 119 -59c120 -21 163 -51 163 -151c0 -117 -74 -159 -198 -159c-69 0 -185 22 -185 22l4 91s120 -16 171 -16c72 0 100 15 100 59c0 35 -17 46 -116 62c-110 18 -166 42 -166 148c0 113 88 155 187 155
c73 0 188 -22 188 -22zM101 647l236 101l34 -94l-244 -78z" />
    <glyph glyph-name="Scircumflex" unicode="&#x15c;" horiz-adv-x="543" 
d="M487 673l-9 -90s-140 16 -198 16c-84 0 -127 -30 -127 -89c0 -64 36 -79 153 -111c144 -40 196 -78 196 -195c0 -150 -94 -215 -229 -215c-89 0 -224 27 -224 27l11 89s135 -18 206 -18c85 0 124 38 124 110c0 58 -31 78 -136 103c-148 38 -212 83 -212 202
c0 138 91 195 228 195c87 0 217 -24 217 -24zM94 775l134 143h94l134 -143h-116l-64 67l-65 -67h-117z" />
    <glyph glyph-name="scircumflex" unicode="&#x15d;" horiz-adv-x="469" 
d="M415 488l-2 -91s-118 16 -178 16s-87 -14 -87 -55c0 -33 21 -42 119 -59c120 -21 163 -51 163 -151c0 -117 -74 -159 -198 -159c-69 0 -185 22 -185 22l4 91s120 -16 171 -16c72 0 100 15 100 59c0 35 -17 46 -116 62c-110 18 -166 42 -166 148c0 113 88 155 187 155
c73 0 188 -22 188 -22zM75 585l125 146h69l127 -146h-102l-58 76l-58 -76h-103z" />
    <glyph glyph-name="Scedilla" unicode="&#x15e;" horiz-adv-x="543" 
d="M424 -127c0 -72 -41 -104 -104 -104c-43 0 -90 10 -90 10l4 65s34 -2 55 -2c28 0 41 9 41 31c0 21 -13 27 -41 27h-31v89c-89 3 -209 27 -209 27l11 89s135 -18 206 -18c85 0 124 38 124 110c0 58 -31 78 -136 103c-148 38 -212 83 -212 202c0 138 91 195 228 195
c87 0 217 -24 217 -24l-9 -90s-140 16 -198 16c-84 0 -127 -30 -127 -89c0 -64 36 -79 153 -111c144 -40 196 -78 196 -195c0 -138 -80 -204 -197 -213v-33c77 -1 119 -15 119 -85z" />
    <glyph glyph-name="scedilla" unicode="&#x15f;" horiz-adv-x="469" 
d="M370 -127c0 -72 -41 -104 -104 -104c-43 0 -90 10 -90 10l4 65s34 -2 55 -2c28 0 41 9 41 31c0 21 -13 27 -41 27h-31v90c-69 4 -157 21 -157 21l4 91s120 -16 171 -16c72 0 100 15 100 59c0 35 -17 46 -116 62c-110 18 -166 42 -166 148c0 113 88 155 187 155
c73 0 188 -22 188 -22l-2 -91s-118 16 -178 16s-87 -14 -87 -55c0 -33 21 -42 119 -59c120 -21 163 -51 163 -151c0 -111 -67 -154 -179 -158v-32c77 -1 119 -15 119 -85z" />
    <glyph glyph-name="Scaron" unicode="&#x160;" horiz-adv-x="543" 
d="M487 673l-9 -90s-140 16 -198 16c-84 0 -127 -30 -127 -89c0 -64 36 -79 153 -111c144 -40 196 -78 196 -195c0 -150 -94 -215 -229 -215c-89 0 -224 27 -224 27l11 89s135 -18 206 -18c85 0 124 38 124 110c0 58 -31 78 -136 103c-148 38 -212 83 -212 202
c0 138 91 195 228 195c87 0 217 -24 217 -24zM242 776l-134 143h117l65 -66l63 66h117l-134 -143h-94z" />
    <glyph glyph-name="scaron" unicode="&#x161;" horiz-adv-x="469" 
d="M415 488l-2 -91s-118 16 -178 16s-87 -14 -87 -55c0 -33 21 -42 119 -59c120 -21 163 -51 163 -151c0 -117 -74 -159 -198 -159c-69 0 -185 22 -185 22l4 91s120 -16 171 -16c72 0 100 15 100 59c0 35 -17 46 -116 62c-110 18 -166 42 -166 148c0 113 88 155 187 155
c73 0 188 -22 188 -22zM209 585l-125 146h102l59 -75l58 75h102l-127 -146h-69z" />
    <glyph glyph-name="Tcedilla" unicode="&#x162;" horiz-adv-x="0" 
 />
    <glyph glyph-name="tcedilla" unicode="&#x163;" horiz-adv-x="358" 
d="M335 407h-138v-220c0 -75 3 -101 55 -101c28 0 82 3 82 3l5 -87s-67 -13 -102 -13c-113 0 -148 42 -148 186v232h-64v93h64v145h108v-145h138v-93zM276 -127c0 -72 -41 -104 -104 -104c-43 0 -90 10 -90 10l4 65s34 -2 55 -2c28 0 41 9 41 31c0 21 -13 27 -41 27h-31v101
h47v-43c77 -1 119 -15 119 -85z" />
    <glyph glyph-name="Tcaron" unicode="&#x164;" horiz-adv-x="526" 
d="M13 586v99h500v-99h-193v-586h-112v586h-195zM217 776l-134 143h117l65 -66l63 66h117l-134 -143h-94z" />
    <glyph glyph-name="tcaron" unicode="&#x165;" horiz-adv-x="463" 
d="M336 401h-138v-208c0 -75 3 -101 55 -101c28 0 81 3 81 3l6 -93s-67 -13 -102 -13c-113 0 -149 42 -149 186v226h-64v98h64v146h109v-146h138v-98zM478 693v-249h-105v249h105z" />
    <glyph glyph-name="Tbar" unicode="&#x166;" horiz-adv-x="529" 
d="M14 586v99h500v-99h-193v-218h150v-94h-150v-274h-112v274h-145v94h145v218h-195z" />
    <glyph glyph-name="tbar" unicode="&#x167;" horiz-adv-x="360" 
d="M336 401h-138v-91h112v-82h-112v-35c0 -75 3 -101 55 -101c28 0 82 3 82 3l5 -93s-67 -13 -102 -13c-113 0 -148 42 -148 186v53h-41v82h41v91h-64v98h64v146h108v-146h138v-98z" />
    <glyph glyph-name="Utilde" unicode="&#x168;" horiz-adv-x="650" 
d="M185 219c0 -93 48 -133 139 -133c92 0 141 41 141 133v466h112v-464c0 -165 -89 -232 -253 -232c-163 0 -251 67 -251 232v464h112v-466zM479 917l24 -79s-49 -61 -97 -61c-50 0 -134 50 -167 50c-26 0 -76 -44 -76 -44l-24 78s51 62 99 62c56 0 136 -50 165 -50
c24 0 76 44 76 44z" />
    <glyph glyph-name="utilde" unicode="&#x169;" horiz-adv-x="543" 
d="M477 500h-108v-388s-54 -26 -114 -26c-78 0 -85 41 -85 152v262h-109v-261c0 -176 30 -250 173 -250c62 0 135 42 135 42v-31h108v500zM407 718l24 -64s-50 -57 -96 -57c-42 0 -101 40 -134 40c-26 0 -75 -34 -75 -34l-24 63s51 56 98 56c41 0 103 -40 132 -40
c24 0 75 36 75 36z" />
    <glyph glyph-name="Umacron" unicode="&#x16a;" horiz-adv-x="650" 
d="M185 219c0 -93 48 -133 139 -133c92 0 141 41 141 133v466h112v-464c0 -165 -89 -232 -253 -232c-163 0 -251 67 -251 232v464h112v-466zM162 795v81h332v-81h-332z" />
    <glyph glyph-name="umacron" unicode="&#x16b;" horiz-adv-x="543" 
d="M477 500h-108v-388s-54 -26 -114 -26c-78 0 -85 41 -85 152v262h-109v-261c0 -176 30 -250 173 -250c62 0 135 42 135 42v-31h108v500zM130 609v82h282v-82h-282z" />
    <glyph glyph-name="Ubreve" unicode="&#x16c;" horiz-adv-x="650" 
d="M185 219c0 -93 48 -133 139 -133c92 0 141 41 141 133v466h112v-464c0 -165 -89 -232 -253 -232c-163 0 -251 67 -251 232v464h112v-466zM154 914h99c3 -38 33 -65 74 -65c44 0 73 27 76 65h99c-8 -83 -66 -143 -175 -143c-108 0 -166 60 -173 143z" />
    <glyph glyph-name="ubreve" unicode="&#x16d;" horiz-adv-x="543" 
d="M477 500h-108v-388s-54 -26 -114 -26c-78 0 -85 41 -85 152v262h-109v-261c0 -176 30 -250 173 -250c62 0 135 42 135 42v-31h108v500zM111 728h84c4 -44 30 -74 74 -74c45 0 70 31 73 74h84c-8 -78 -62 -149 -157 -149c-96 0 -150 71 -158 149z" />
    <glyph glyph-name="Uring" unicode="&#x16e;" horiz-adv-x="650" 
d="M185 219c0 -93 48 -133 139 -133c92 0 141 41 141 133v466h112v-464c0 -165 -89 -232 -253 -232c-163 0 -251 67 -251 232v464h112v-466zM464 842c0 -75 -62 -117 -137 -117s-136 42 -136 117s61 117 136 117s137 -42 137 -117zM267 842c0 -29 23 -46 60 -46s61 17 61 46
s-24 47 -61 47s-60 -18 -60 -47z" />
    <glyph glyph-name="uring" unicode="&#x16f;" horiz-adv-x="543" 
d="M477 500h-108v-388s-54 -26 -114 -26c-78 0 -85 41 -85 152v262h-109v-261c0 -176 30 -250 173 -250c62 0 135 42 135 42v-31h108v500zM160 641c0 62 48 111 111 111c62 0 112 -49 112 -111c0 -64 -50 -111 -112 -111c-63 0 -111 47 -111 111zM222 641
c0 -29 21 -51 50 -51c28 0 49 22 49 51c0 28 -21 50 -49 50c-29 0 -50 -22 -50 -50z" />
    <glyph glyph-name="Uhungarumlaut" unicode="&#x170;" horiz-adv-x="650" 
d="M185 219c0 -93 48 -133 139 -133c92 0 141 41 141 133v466h112v-464c0 -165 -89 -232 -253 -232c-163 0 -251 67 -251 232v464h112v-466zM357 779l99 169l90 -39l-108 -164zM153 780l100 169l89 -39l-107 -164z" />
    <glyph glyph-name="uhungarumlaut" unicode="&#x171;" horiz-adv-x="543" 
d="M477 500h-108v-388s-54 -26 -114 -26c-78 0 -85 41 -85 152v262h-109v-261c0 -176 30 -250 173 -250c62 0 135 42 135 42v-31h108v500zM301 626l129 168l85 -57l-135 -166zM102 626l129 167l85 -56l-135 -166z" />
    <glyph glyph-name="Uogonek" unicode="&#x172;" horiz-adv-x="651" 
d="M185 219c0 -93 48 -133 139 -133c92 0 141 41 141 133v466h112v-464c0 -130 -56 -199 -159 -222c-11 -10 -61 -58 -61 -89c0 -23 15 -38 36 -38c10 0 45 5 45 5l10 -79s-53 -10 -92 -10c-58 0 -101 35 -101 93c0 45 32 85 56 108c-155 4 -238 71 -238 232v464h112v-466z
" />
    <glyph glyph-name="uogonek" unicode="&#x173;" horiz-adv-x="543" 
d="M369 499h108v-499s-73 -48 -73 -90c0 -23 15 -38 36 -38c10 0 45 5 45 5l10 -79s-53 -10 -92 -10c-58 0 -102 35 -102 93c0 54 51 100 76 119h-8v26s-78 -37 -135 -37c-143 0 -173 73 -173 250v260h109v-260c0 -111 7 -152 85 -152c48 0 114 25 114 25v387z" />
    <glyph glyph-name="Wcircumflex" unicode="&#x174;" horiz-adv-x="911" 
d="M24 685h117l98 -589h21l130 587h130l130 -587h22l98 589h117l-135 -685h-179l-118 549l-117 -549h-180zM275 775l134 143h94l134 -143h-116l-64 67l-65 -67h-117z" />
    <glyph glyph-name="wcircumflex" unicode="&#x175;" horiz-adv-x="768" 
d="M27 500h107l79 -407h20l95 397h112l95 -397h20l78 407h108l-106 -500h-173l-78 343l-78 -343h-173zM225 585l125 146h69l127 -146h-102l-58 76l-58 -76h-103z" />
    <glyph glyph-name="Ycircumflex" unicode="&#x176;" horiz-adv-x="549" 
d="M331 282v-282h-112v282l-215 403h125l145 -294l146 294h124zM95 776l134 143h94l134 -143h-116l-64 67l-65 -67h-117z" />
    <glyph glyph-name="ycircumflex" unicode="&#x177;" horiz-adv-x="492" 
d="M20 500h107l106 -407h27l106 407h108l-190 -715h-107l60 215h-86zM88 585l125 146h69l127 -146h-102l-58 76l-58 -76h-103z" />
    <glyph glyph-name="Ydieresis" unicode="&#x178;" horiz-adv-x="549" 
d="M331 282v-282h-112v282l-215 403h125l145 -294l146 294h124zM116 783v114h104v-114h-104zM325 783v114h104v-114h-104z" />
    <glyph glyph-name="Zacute" unicode="&#x179;" horiz-adv-x="534" 
d="M42 588v97h450v-107l-318 -462v-19h318v-97h-450v106l317 462v20h-317zM135 836l236 103l35 -97l-243 -82z" />
    <glyph glyph-name="zacute" unicode="&#x17a;" horiz-adv-x="454" 
d="M41 500v-97h241l-241 -306v-97h371v97h-240l240 306v97h-371zM95 647l236 101l34 -94l-244 -78z" />
    <glyph glyph-name="Zdotaccent" unicode="&#x17b;" horiz-adv-x="534" 
d="M42 588v97h450v-107l-318 -462v-19h318v-97h-450v106l317 462v20h-317zM213 782v114h108v-114h-108z" />
    <glyph glyph-name="zdotaccent" unicode="&#x17c;" horiz-adv-x="454" 
d="M41 500v-97h241l-241 -306v-97h371v97h-240l240 306v97h-371zM172 579v114h108v-114h-108z" />
    <glyph glyph-name="Zcaron" unicode="&#x17d;" horiz-adv-x="534" 
d="M42 588v97h450v-107l-318 -462v-19h318v-97h-450v106l317 462v20h-317zM225 776l-134 143h117l65 -66l63 66h117l-134 -143h-94z" />
    <glyph glyph-name="zcaron" unicode="&#x17e;" horiz-adv-x="454" 
d="M41 403v97h371v-97l-240 -306h240v-97h-371v97l241 306h-241zM199 585l-125 146h102l59 -75l58 75h102l-127 -146h-69z" />
    <glyph glyph-name="florin" unicode="&#x192;" 
d="M304 -50c0 -140 -50 -182 -158 -182c-48 0 -104 11 -104 11v90s63 -4 92 -4c38 0 61 21 61 87v425h-58v93h58v37c0 129 28 195 141 195c37 0 107 -11 107 -11v-89s-45 2 -80 2c-43 0 -59 -26 -59 -89v-45h131v-93h-131v-427z" />
    <glyph glyph-name="Aringacute" unicode="&#x1fa;" horiz-adv-x="599" 
d="M435 731c0 -26 -7 -48 -20 -66l165 -665h-112l-37 147h-263l-37 -147h-111l163 663c-13 18 -21 41 -21 68c0 75 61 117 136 117s137 -42 137 -117zM275 592l-85 -347h219l-84 347h-50zM155 933l236 103l35 -97l-243 -82zM238 731c0 -29 23 -46 60 -46h5c34 1 56 18 56 46
c0 29 -24 47 -61 47s-60 -18 -60 -47z" />
    <glyph glyph-name="aringacute" unicode="&#x1fb;" horiz-adv-x="507" 
d="M436 346v-228c2 -30 15 -42 44 -46l-3 -83c-61 0 -96 8 -133 37c0 0 -80 -37 -161 -37c-99 0 -149 55 -149 159c0 106 58 142 165 151l129 11v36c0 55 -24 72 -73 72c-67 0 -188 -10 -188 -10l-4 77s109 26 201 26c122 0 172 -51 172 -165zM328 233l-116 -11
c-46 -4 -69 -26 -69 -71s19 -73 61 -73c57 0 124 22 124 22v133zM138 641c0 62 48 111 111 111c62 0 112 -49 112 -111c0 -64 -50 -111 -112 -111c-63 0 -111 47 -111 111zM200 641c0 -29 21 -51 50 -51c28 0 49 22 49 51c0 28 -21 50 -49 50c-29 0 -50 -22 -50 -50z
M118 840l236 101l34 -94l-244 -78z" />
    <glyph glyph-name="AEacute" unicode="&#x1fc;" horiz-adv-x="874" 
d="M400 0v142h-229l-42 -142h-113l202 693h612v-107h-320v-181h260v-105h-260v-193h320v-107h-430zM297 586l-98 -337h201l1 337h-104zM386 836l236 103l35 -97l-243 -82z" />
    <glyph glyph-name="aeacute" unicode="&#x1fd;" horiz-adv-x="793" 
d="M550 88c79 0 185 9 185 9l2 -85s-115 -23 -202 -23c-69 0 -118 17 -151 50l-27 -12c-25 -11 -96 -38 -180 -38c-94 0 -143 60 -143 159c0 112 62 144 177 153l117 9v32c0 43 -26 65 -66 65c-74 0 -192 -11 -192 -11l-4 96s127 18 202 18c61 0 105 -16 132 -52
c34 36 83 52 143 52c140 0 210 -72 210 -228l-7 -79h-310c1 -78 31 -115 114 -115zM197 82c55 0 134 23 138 25c-6 35 -8 75 -8 119l-115 -8c-45 -3 -69 -22 -69 -67s19 -69 54 -69zM436 288h210c0 92 -30 126 -103 126c-74 0 -107 -38 -107 -126zM271 647l236 101l34 -94
l-244 -78z" />
    <glyph glyph-name="Oslashacute" unicode="&#x1fe;" horiz-adv-x="658" 
d="M329 -11c-41 0 -76 4 -107 12l-57 -123l-80 39l58 124c-69 56 -93 156 -93 298c0 229 65 357 279 357c43 0 80 -6 112 -16l58 125l82 -35l-62 -133c65 -59 88 -160 88 -298c0 -233 -64 -350 -278 -350zM165 339c0 -83 7 -145 30 -187l203 436c-19 7 -42 11 -69 11
c-132 0 -164 -90 -164 -260zM329 86c133 0 163 79 163 253c0 78 -7 139 -27 183l-199 -428c18 -5 38 -8 63 -8zM187 836l236 103l35 -97l-243 -82z" />
    <glyph glyph-name="oslashacute" unicode="&#x1ff;" horiz-adv-x="530" 
d="M265 511c-167 0 -223 -96 -223 -258c0 -111 23 -191 89 -233l-44 -105l67 -25l43 105c20 -4 43 -6 68 -6c172 0 223 98 223 264c0 108 -25 187 -92 227l42 101l-68 25l-41 -101c-19 3 -41 6 -64 6zM265 81c-13 0 -24 1 -34 3l121 298c19 -27 26 -69 26 -129
c0 -116 -20 -172 -113 -172zM131 647l236 101l34 -94l-244 -78zM265 419c11 0 21 -1 30 -3l-119 -297c-19 28 -24 72 -24 134c0 116 25 166 113 166z" />
    <glyph glyph-name="Scommaaccent" unicode="&#x218;" horiz-adv-x="543" 
d="M230 -77l-44 -223h97l53 223h-106zM487 673l-9 -90s-140 16 -198 16c-84 0 -127 -30 -127 -89c0 -64 36 -79 153 -111c144 -40 196 -78 196 -195c0 -150 -94 -215 -229 -215c-89 0 -224 27 -224 27l11 89s135 -18 206 -18c85 0 124 38 124 110c0 58 -31 78 -136 103
c-148 38 -212 83 -212 202c0 138 91 195 228 195c87 0 217 -24 217 -24z" />
    <glyph glyph-name="scommaaccent" unicode="&#x219;" horiz-adv-x="469" 
d="M82 -77l-44 -223h97l53 223h-106zM415 488l-2 -91s-118 16 -178 16s-87 -14 -87 -55c0 -33 21 -42 119 -59c120 -21 163 -51 163 -151c0 -117 -74 -159 -198 -159c-69 0 -185 22 -185 22l4 91s120 -16 171 -16c72 0 100 15 100 59c0 35 -17 46 -116 62
c-110 18 -166 42 -166 148c0 113 88 155 187 155c73 0 188 -22 188 -22z" />
    <glyph glyph-name="Tcommaaccent" unicode="&#x21a;" horiz-adv-x="526" 
d="M233 -77l-44 -223h97l53 223h-106zM13 586v99h500v-99h-193v-586h-112v586h-195z" />
    <glyph glyph-name="tcommaaccent" unicode="&#x21b;" horiz-adv-x="358" 
d="M89 -77l-44 -223h97l53 223h-106zM335 407h-138v-220c0 -75 3 -101 55 -101c28 0 82 3 82 3l5 -87s-67 -13 -102 -13c-113 0 -148 42 -148 186v232h-64v93h64v145h108v-145h138v-93z" />
    <glyph glyph-name="circumflex" unicode="&#x2c6;" horiz-adv-x="254" 
d="M-22 585l125 146h69l127 -146h-102l-58 76l-58 -76h-103z" />
    <glyph glyph-name="caron" unicode="&#x2c7;" horiz-adv-x="254" 
d="M106 585l-125 146h102l59 -75l58 75h102l-127 -146h-69z" />
    <glyph glyph-name="breve" unicode="&#x2d8;" horiz-adv-x="254" 
d="M-19 728h84c4 -44 30 -74 74 -74c45 0 70 31 73 74h84c-8 -78 -62 -149 -157 -149c-96 0 -150 71 -158 149z" />
    <glyph glyph-name="dotaccent" unicode="&#x2d9;" horiz-adv-x="254" 
d="M73 579v114h108v-114h-108z" />
    <glyph glyph-name="ring" unicode="&#x2da;" horiz-adv-x="254" 
d="M19 641c0 62 48 111 111 111c62 0 112 -49 112 -111c0 -64 -50 -111 -112 -111c-63 0 -111 47 -111 111zM81 641c0 -29 21 -51 50 -51c28 0 49 22 49 51c0 28 -21 50 -49 50c-29 0 -50 -22 -50 -50z" />
    <glyph glyph-name="ogonek" unicode="&#x2db;" horiz-adv-x="464" 
d="M372 1c0 0 -64 -57 -64 -91c0 -23 15 -38 36 -38c10 0 45 5 45 5l10 -79s-53 -10 -92 -10c-58 0 -101 35 -101 93c0 71 81 129 81 129z" />
    <glyph glyph-name="tilde" unicode="&#x2dc;" horiz-adv-x="254" 
d="M280 718l24 -64s-50 -57 -96 -57c-42 0 -101 40 -134 40c-26 0 -75 -34 -75 -34l-24 63s51 56 98 56c41 0 103 -40 132 -40c24 0 75 36 75 36z" />
    <glyph glyph-name="hungarumlaut" unicode="&#x2dd;" horiz-adv-x="254" 
d="M149 626l129 168l85 -57l-135 -166zM-50 626l129 167l85 -56l-135 -166z" />
    <glyph glyph-name="pi" unicode="&#x3c0;" 
d="M337 154v253h-116l-27 -407h-109l31 407c-45 0 -96 -13 -96 -13v89s62 17 146 17h244c64 0 119 13 119 13v-90s-26 -11 -84 -14v-255c0 -51 14 -69 77 -69v-92c-160 0 -185 30 -185 161z" />
    <glyph glyph-name="Wgrave" unicode="&#x1e80;" horiz-adv-x="911" 
d="M24 685h117l98 -589h21l130 587h130l130 -587h22l98 589h117l-135 -685h-179l-118 549l-117 -549h-180zM358 939l236 -103l-28 -76l-243 82z" />
    <glyph glyph-name="wgrave" unicode="&#x1e81;" horiz-adv-x="768" 
d="M27 500h107l79 -407h20l95 397h112l95 -397h20l78 407h108l-106 -500h-173l-78 343l-78 -343h-173zM265 748l236 -101l-26 -71l-244 78z" />
    <glyph glyph-name="Wacute" unicode="&#x1e82;" horiz-adv-x="911" 
d="M24 685h117l98 -589h21l130 587h130l130 -587h22l98 589h117l-135 -685h-179l-118 549l-117 -549h-180zM330 836l236 103l35 -97l-243 -82z" />
    <glyph glyph-name="wacute" unicode="&#x1e83;" horiz-adv-x="768" 
d="M27 500h107l79 -407h20l95 397h112l95 -397h20l78 407h108l-106 -500h-173l-78 343l-78 -343h-173zM262 647l236 101l34 -94l-244 -78z" />
    <glyph glyph-name="Wdieresis" unicode="&#x1e84;" horiz-adv-x="911" 
d="M24 685h117l98 -589h21l130 587h130l130 -587h22l98 589h117l-135 -685h-179l-118 549l-117 -549h-180zM298 783v114h104v-114h-104zM507 783v114h104v-114h-104z" />
    <glyph glyph-name="wdieresis" unicode="&#x1e85;" horiz-adv-x="768" 
d="M27 500h107l79 -407h20l95 397h112l95 -397h20l78 407h108l-106 -500h-173l-78 343l-78 -343h-173zM229 607v114h104v-114h-104zM438 607v114h104v-114h-104z" />
    <glyph glyph-name="uni1EAB" unicode="&#x1eab;" horiz-adv-x="507" 
d="M436 346v-228c2 -30 15 -42 44 -46l-3 -83c-61 0 -96 8 -133 37c0 0 -80 -37 -161 -37c-99 0 -149 55 -149 159c0 106 58 142 165 151l129 11v36c0 55 -24 72 -73 72c-67 0 -188 -10 -188 -10l-4 77s109 26 201 26c122 0 172 -51 172 -165zM328 233l-116 -11
c-46 -4 -69 -26 -69 -71s19 -73 61 -73c57 0 124 22 124 22v133zM75 555l125 146h69l127 -146h-102l-58 76l-58 -76h-103zM370 862l24 -64s-50 -57 -96 -57c-42 0 -101 40 -134 40c-26 0 -75 -34 -75 -34l-24 63s51 56 98 56c41 0 103 -40 132 -40c24 0 75 36 75 36z" />
    <glyph glyph-name="uni1EB0" unicode="&#x1eb0;" horiz-adv-x="597" 
d="M20 0l169 693h221l167 -692h-112l-40 141h-257l-37 -142h-111zM275 590l-83 -341h211l-81 341h-47zM127 877h99c3 -38 33 -65 74 -65c44 0 73 27 76 65h99c-8 -83 -66 -143 -175 -143c-108 0 -166 60 -173 143zM144 1101l236 -101l-26 -71l-244 78z" />
    <glyph glyph-name="uni1EC5" unicode="&#x1ec5;" horiz-adv-x="509" 
d="M266 88c79 0 184 9 184 9l2 -85s-114 -23 -202 -23c-150 0 -208 80 -208 256c0 183 79 265 217 265c140 0 210 -72 210 -228l-7 -79h-310c1 -78 31 -115 114 -115zM151 288h211c0 92 -30 126 -103 126c-74 0 -107 -38 -108 -126zM101 555l125 146h69l127 -146h-102
l-58 76l-58 -76h-103zM393 862l24 -64s-50 -57 -96 -57c-42 0 -101 40 -134 40c-26 0 -75 -34 -75 -34l-24 63s51 56 98 56c41 0 103 -40 132 -40c24 0 75 36 75 36z" />
    <glyph glyph-name="uni1ED7" unicode="&#x1ed7;" horiz-adv-x="530" 
d="M265 511c-167 0 -223 -96 -223 -258c0 -166 52 -264 223 -264c172 0 223 98 223 264c0 162 -56 258 -223 258zM265 81c-93 0 -113 56 -113 172s25 166 113 166s113 -50 113 -166s-20 -172 -113 -172zM103 555l125 146h69l127 -146h-102l-58 76l-58 -76h-103zM390 862
l24 -64s-50 -57 -96 -57c-42 0 -101 40 -134 40c-26 0 -75 -34 -75 -34l-24 63s51 56 98 56c41 0 103 -40 132 -40c24 0 75 36 75 36z" />
    <glyph glyph-name="Ygrave" unicode="&#x1ef2;" horiz-adv-x="549" 
d="M331 282v-282h-112v282l-215 403h125l145 -294l146 294h124zM175 939l236 -103l-28 -76l-243 82z" />
    <glyph glyph-name="ygrave" unicode="&#x1ef3;" horiz-adv-x="492" 
d="M20 500h107l106 -407h27l106 407h108l-190 -715h-107l60 215h-86zM125 748l236 -101l-26 -71l-244 78z" />
    <glyph glyph-name="uni1EF8" unicode="&#x1ef8;" horiz-adv-x="537" 
d="M325 296v-296h-111v297l-213 396h124l144 -272l143 272h124zM405 911l24 -64s-50 -57 -96 -57c-42 0 -101 40 -134 40c-26 0 -75 -34 -75 -34l-24 63s51 56 98 56c41 0 103 -40 132 -40c24 0 75 36 75 36z" />
    <glyph glyph-name="uni1EF9" unicode="&#x1ef9;" horiz-adv-x="492" 
d="M20 499h107l106 -394h27l106 394h108l-190 -714h-107l57 215h-83zM384 718l24 -64s-50 -57 -96 -57c-42 0 -101 40 -134 40c-26 0 -75 -34 -75 -34l-24 63s51 56 98 56c41 0 103 -40 132 -40c24 0 75 36 75 36z" />
    <glyph glyph-name="endash" unicode="&#x2013;" horiz-adv-x="622" 
d="M61 313h500v-93h-500v93z" />
    <glyph glyph-name="emdash" unicode="&#x2014;" horiz-adv-x="1122" 
d="M61 313h1000v-93h-1000v93z" />
    <glyph glyph-name="quoteleft" unicode="&#x2018;" horiz-adv-x="242" 
d="M201 691l-45 -235h-114l76 235h83z" />
    <glyph glyph-name="quoteright" unicode="&#x2019;" horiz-adv-x="238" 
d="M47 457l45 235h114l-76 -235h-83z" />
    <glyph glyph-name="quotesinglbase" unicode="&#x201a;" horiz-adv-x="239" 
d="M57 -57l22 113h54l-36 -113h-40z" />
    <glyph glyph-name="quotedblleft" unicode="&#x201c;" horiz-adv-x="413" 
d="M372 691l-45 -235h-114l76 235h83zM201 691l-45 -235h-114l76 235h83z" />
    <glyph glyph-name="quotedblright" unicode="&#x201d;" horiz-adv-x="412" 
d="M47 458l45 235h114l-76 -235h-83zM220 458l45 235h114l-76 -235h-83z" />
    <glyph glyph-name="quotedblbase" unicode="&#x201e;" horiz-adv-x="394" 
d="M165 115l-45 -235h-114l76 235h83zM339 115l-45 -235h-114l76 235h83z" />
    <glyph glyph-name="dagger" unicode="&#x2020;" horiz-adv-x="479" 
d="M31 407v93h154v185h109v-185h155v-93h-155l-8 -480h-93l-8 480h-154z" />
    <glyph glyph-name="daggerdbl" unicode="&#x2021;" horiz-adv-x="516" 
d="M204 -73v185h-155v93h155v202h-155v93h155v185h108v-185h154v-93h-154v-202h155v-93h-155v-185h-108z" />
    <glyph glyph-name="bullet" unicode="&#x2022;" horiz-adv-x="460" 
d="M105 103v282h250v-282h-250z" />
    <glyph glyph-name="ellipsis" unicode="&#x2026;" horiz-adv-x="748" 
d="M61 0v144h117v-144h-117zM316 0v144h117v-144h-117zM570 0v144h117v-144h-117z" />
    <glyph glyph-name="perthousand" unicode="&#x2030;" horiz-adv-x="841" 
d="M148 604c27 0 34 -23 34 -75s-7 -76 -34 -76c-26 0 -33 25 -33 76c0 52 7 75 33 75zM151 -6l222 697l62 -21l-222 -696zM33 529c0 -97 43 -144 115 -144c73 0 116 47 116 144s-43 142 -116 142s-115 -45 -115 -142zM322 133c0 96 42 142 115 142s116 -46 116 -142
c0 -97 -43 -144 -116 -144s-115 47 -115 144zM403 133c0 -52 8 -77 34 -77s34 25 34 77c0 51 -8 74 -34 74s-34 -23 -34 -74zM579 133c0 96 42 142 115 142s116 -46 116 -142c0 -97 -43 -144 -116 -144c-72 0 -115 47 -115 144zM660 133c0 -52 8 -77 34 -77
c27 0 34 25 34 77c0 51 -7 74 -34 74c-26 0 -34 -23 -34 -74z" />
    <glyph glyph-name="guilsinglleft" unicode="&#x2039;" horiz-adv-x="311" 
d="M251 330l-116 -83l116 -94v-111l-209 162v81l209 155v-110z" />
    <glyph glyph-name="guilsinglright" unicode="&#x203a;" horiz-adv-x="311" 
d="M175 254l-116 83v110l209 -155v-80l-209 -163v111z" />
    <glyph glyph-name="fraction" unicode="&#x2044;" horiz-adv-x="-4" 
d="M-224 29l393 631l47 -30l-393 -633z" />
    <glyph glyph-name="zerosuperior" unicode="&#x2070;" horiz-adv-x="280" 
d="M140 800c81 0 124 -41 124 -167c0 -127 -44 -165 -124 -165s-125 38 -125 165s44 167 125 167zM140 722c-23 0 -34 -16 -34 -89c0 -74 12 -87 34 -87c23 0 34 13 34 87c0 72 -10 89 -34 89z" />
    <glyph glyph-name="foursuperior" unicode="&#x2074;" horiz-adv-x="280" 
d="M154 478v41h-136v73l52 198h98l-61 -192h47l10 89h77v-89h18v-79h-18v-41h-87z" />
    <glyph glyph-name="fivesuperior" unicode="&#x2075;" horiz-adv-x="280" 
d="M48 790h199v-75h-129l-4 -46s28 10 50 10c57 0 93 -26 93 -99s-39 -110 -113 -110c-50 0 -113 14 -113 14l6 71s56 -9 94 -9c24 0 35 10 35 30c0 21 -10 28 -25 28c-17 0 -38 -8 -38 -8l-65 8z" />
    <glyph glyph-name="sixsuperior" unicode="&#x2076;" horiz-adv-x="280" 
d="M250 789l-4 -72s-60 6 -90 6c-33 0 -45 -17 -45 -47c0 -1 27 9 47 9c73 0 103 -36 103 -104c0 -72 -48 -113 -115 -113c-86 0 -125 57 -125 157c0 115 34 175 132 175c36 0 97 -11 97 -11zM144 613c-19 0 -34 -11 -34 -12c1 -34 11 -57 33 -57c20 0 30 15 30 36
c0 23 -10 33 -29 33z" />
    <glyph glyph-name="sevensuperior" unicode="&#x2077;" horiz-adv-x="280" 
d="M28 703v87h217v-91l-99 -230l-98 16l96 202v16h-116z" />
    <glyph glyph-name="eightsuperior" unicode="&#x2078;" horiz-adv-x="280" 
d="M140 800c80 0 119 -29 119 -87c0 -45 -23 -69 -34 -72c11 -3 39 -22 39 -71c0 -76 -46 -102 -124 -102s-124 24 -124 100c0 47 29 70 39 74c-9 3 -34 22 -34 71c0 57 38 87 119 87zM140 539c22 0 34 11 34 32c0 16 -9 28 -24 36h-20c-14 -8 -24 -20 -24 -37
c0 -20 12 -31 34 -31zM140 729c-21 0 -32 -9 -32 -27c0 -15 9 -26 22 -33h20c14 7 22 18 22 33c0 17 -10 27 -32 27z" />
    <glyph glyph-name="ninesuperior" unicode="&#x2079;" horiz-adv-x="280" 
d="M31 480l5 73s48 -7 85 -7c35 0 46 19 47 45c0 0 -25 -8 -47 -8c-66 0 -101 37 -101 104c0 73 46 113 115 113c88 0 125 -56 125 -165c0 -113 -35 -167 -128 -167c-45 0 -101 12 -101 12zM137 652c14 0 34 9 34 9c0 42 -10 62 -33 62c-19 0 -30 -13 -30 -35
c0 -21 12 -36 29 -36z" />
    <glyph glyph-name="zeroinferior" unicode="&#x2080;" horiz-adv-x="280" 
d="M140 222c81 0 124 -41 124 -167c0 -127 -44 -165 -124 -165s-125 38 -125 165s44 167 125 167zM140 144c-23 0 -34 -16 -34 -89c0 -74 12 -87 34 -87c23 0 34 13 34 87c0 72 -10 89 -34 89z" />
    <glyph glyph-name="oneinferior" unicode="&#x2081;" horiz-adv-x="280" 
d="M34 139l105 73h80v-312h-88v215l-56 -38z" />
    <glyph glyph-name="twoinferior" unicode="&#x2082;" horiz-adv-x="280" 
d="M253 -100h-221v75l79 71c33 28 48 47 48 68c0 18 -15 25 -42 25c-25 0 -79 -7 -79 -7l-4 80s67 10 112 10c77 0 105 -28 105 -96c0 -45 -17 -72 -58 -105l-49 -42h109v-79z" />
    <glyph glyph-name="threeinferior" unicode="&#x2083;" horiz-adv-x="280" 
d="M28 213c0 0 65 9 106 9c76 0 114 -26 114 -86c0 -41 -20 -64 -34 -72c26 -10 41 -28 41 -75c0 -68 -43 -99 -113 -99c-49 0 -118 8 -118 8l6 77s59 -7 96 -7c27 0 38 10 38 28c0 20 -13 26 -35 26h-66v72h65c15 0 28 10 28 26c0 17 -12 24 -35 24c-40 0 -87 -6 -87 -6z
" />
    <glyph glyph-name="fourinferior" unicode="&#x2084;" horiz-adv-x="280" 
d="M159 -100v41h-136v73l52 198h98l-61 -192h47l10 89h77v-89h18v-79h-18v-41h-87z" />
    <glyph glyph-name="fiveinferior" unicode="&#x2085;" horiz-adv-x="280" 
d="M40 212h199v-75h-129l-4 -46s28 10 50 10c57 0 93 -26 93 -99s-39 -110 -113 -110c-50 0 -113 14 -113 14l6 71s56 -9 94 -9c24 0 35 10 35 30c0 21 -10 28 -25 28c-17 0 -38 -8 -38 -8l-65 8z" />
    <glyph glyph-name="sixinferior" unicode="&#x2086;" horiz-adv-x="280" 
d="M246 211l-4 -72s-60 6 -90 6c-33 0 -45 -17 -45 -47c0 -1 27 9 47 9c73 0 103 -36 103 -104c0 -72 -48 -113 -115 -113c-86 0 -125 57 -125 157c0 115 34 175 132 175c36 0 97 -11 97 -11zM140 35c-19 0 -34 -11 -34 -12c1 -34 11 -57 33 -57c20 0 30 15 30 36
c0 23 -10 33 -29 33z" />
    <glyph glyph-name="seveninferior" unicode="&#x2087;" horiz-adv-x="280" 
d="M31 125v87h217v-91l-99 -230l-98 16l96 202v16h-116z" />
    <glyph glyph-name="eightinferior" unicode="&#x2088;" horiz-adv-x="280" 
d="M139 222c80 0 119 -29 119 -87c0 -45 -23 -69 -34 -72c11 -3 39 -22 39 -71c0 -76 -46 -102 -124 -102s-124 24 -124 100c0 47 29 70 39 74c-9 3 -34 22 -34 71c0 57 38 87 119 87zM139 -39c22 0 34 11 34 32c0 16 -9 28 -24 36h-20c-14 -8 -24 -20 -24 -37
c0 -20 12 -31 34 -31zM139 151c-21 0 -32 -9 -32 -27c0 -15 9 -26 22 -33h20c14 7 22 18 22 33c0 17 -10 27 -32 27z" />
    <glyph glyph-name="nineinferior" unicode="&#x2089;" horiz-adv-x="280" 
d="M30 -98l5 73s48 -7 85 -7c35 0 46 19 47 45c0 0 -25 -8 -47 -8c-66 0 -101 37 -101 104c0 73 46 113 115 113c88 0 125 -56 125 -165c0 -113 -35 -167 -128 -167c-45 0 -101 12 -101 12zM136 74c14 0 34 9 34 9c0 42 -10 62 -33 62c-19 0 -30 -13 -30 -35
c0 -21 12 -36 29 -36z" />
    <glyph glyph-name="Euro" unicode="&#x20ac;" 
d="M28 365v84h62c18 153 81 222 242 222c68 0 147 -15 189 -24l-4 -87c-43 8 -123 15 -171 15c-90 0 -130 -33 -144 -126h258v-84h-265v-35v-44h265v-84h-258c15 -85 54 -117 147 -117c49 0 127 8 168 14l3 -88c-45 -10 -126 -22 -188 -22c-160 0 -222 72 -241 213h-63v84
h57c-1 14 -1 29 -1 44v35h-56z" />
    <glyph glyph-name="trademark" unicode="&#x2122;" horiz-adv-x="668" 
d="M85 571v67h200v-67h-52v-239h-74v239h-74zM313 331v307h89l52 -180l56 180h88v-307h-69v196l-48 -178h-50l-49 178v-196h-69z" />
    <glyph glyph-name="Omega" unicode="&#x2126;" 
d="M49 84h99s-100 137 -100 297c0 198 59 290 232 290s232 -92 232 -290c0 -160 -100 -297 -100 -297h99v-93h-203v81s89 160 89 281c0 154 -15 221 -117 221s-117 -67 -117 -221c0 -121 89 -281 89 -281v-81h-203v93z" />
    <glyph glyph-name="partialdiff" unicode="&#x2202;" 
d="M89 587l-4 85s85 47 179 47c173 0 246 -114 246 -366c0 -244 -70 -362 -244 -362c-148 0 -230 75 -230 224c0 138 79 220 215 220c73 0 143 -27 143 -27c-7 157 -40 218 -149 218c-73 0 -156 -39 -156 -39zM264 341c-79 0 -112 -53 -112 -126c0 -82 34 -131 114 -131
c86 0 128 71 128 232c0 0 -56 25 -130 25z" />
    <glyph glyph-name="Delta" unicode="&#x2206;" 
d="M48 84l139 576h186l139 -578v-82h-464v84zM293 568h-26l-110 -475h245z" />
    <glyph glyph-name="product" unicode="&#x220f;" 
d="M356 -172v832h-154v-832h-111v832h-60v97h499v-97h-63v-832h-111z" />
    <glyph glyph-name="summation" unicode="&#x2211;" 
d="M286 302l-250 333v122h487v-98h-369v-18l233 -301v-77l-233 -318v-20h369v-97h-487v122z" />
    <glyph glyph-name="minus" unicode="&#x2212;" 
d="M64 202v98h432v-98h-432z" />
    <glyph glyph-name="radical" unicode="&#x221a;" 
d="M2 345v98h147l108 -483h12l190 825h110l-221 -918h-174l-115 478h-57z" />
    <glyph glyph-name="infinity" unicode="&#x221e;" 
d="M161 121c-87 0 -133 59 -133 170c0 113 46 172 131 172c55 0 91 -26 121 -90c30 64 66 90 121 90c85 0 131 -59 131 -171s-46 -171 -133 -171c-53 0 -89 25 -119 89c-31 -68 -65 -89 -119 -89zM243 292c-20 42 -35 77 -68 77c-35 0 -47 -30 -47 -78c0 -44 13 -76 47 -76
c33 0 47 30 68 77zM317 292c20 -40 35 -77 68 -77c34 0 47 30 47 76c0 48 -12 78 -47 78c-33 0 -48 -35 -68 -77z" />
    <glyph glyph-name="integral" unicode="&#x222b;" 
d="M333 -12c0 -140 -59 -182 -144 -182c-38 0 -93 11 -93 11l4 90s31 -3 60 -3c45 0 61 21 61 86v595c0 149 41 195 144 195c39 0 99 -11 99 -11l-4 -90s-34 4 -68 4c-43 0 -59 -25 -59 -98v-597z" />
    <glyph glyph-name="approxequal" unicode="&#x2248;" 
d="M488 406l9 -87s-55 -52 -114 -52c-55 0 -163 51 -203 51c-46 0 -108 -42 -108 -42l-10 88s62 52 121 52c55 0 155 -51 202 -51c39 0 103 41 103 41zM488 201l9 -87s-55 -52 -114 -52c-55 0 -163 51 -203 51c-46 0 -108 -42 -108 -42l-10 88s62 52 121 52
c55 0 155 -51 202 -51c39 0 103 41 103 41z" />
    <glyph glyph-name="notequal" unicode="&#x2260;" 
d="M60 301v98h233l68 155l85 -34l-53 -121h105v-98h-148l-44 -100h192v-98h-235l-64 -147l-85 34l49 113h-103v98h146l44 100h-190z" />
    <glyph glyph-name="lessequal" unicode="&#x2264;" 
d="M488 402l-300 -72l300 -79v-106l-422 133v95l422 135v-106zM66 20v98h422v-98h-422z" />
    <glyph glyph-name="greaterequal" unicode="&#x2265;" 
d="M372 330l-300 72v106l422 -135v-95l-422 -133v106zM494 118v-98h-422v98h422z" />
    <glyph glyph-name="lozenge" unicode="&#x25ca;" 
d="M206 172l-158 154l158 162h149l157 -162l-157 -154h-149zM290 247l112 79l-112 87h-20l-113 -87l113 -79h20z" />
    <glyph glyph-name="dotlessj" unicode="&#xf6be;" horiz-adv-x="242" 
d="M67 19v481h108v-482c0 -132 -36 -176 -173 -245l-43 81c91 57 108 77 108 165z" />
    <glyph glyph-name="commaaccent" unicode="&#xf6c3;" horiz-adv-x="170" 
d="M7 -300l44 223h106l-53 -223h-97z" />
    <glyph glyph-name=".null" horiz-adv-x="0" 
 />
    <glyph glyph-name="CR" horiz-adv-x="235" 
 />
    <glyph glyph-name="DLE" horiz-adv-x="0" 
 />
    <glyph glyph-name="zero.pnum" horiz-adv-x="534" 
d="M267 509c134 0 221 -63 221 -267c0 -198 -89 -251 -221 -251c-131 0 -221 53 -221 252c0 201 89 266 221 266zM267 416c-74 0 -119 -31 -119 -173c0 -128 45 -159 119 -159c76 0 119 31 119 159c0 142 -43 173 -119 173z" />
    <glyph glyph-name="one.pnum" horiz-adv-x="378" 
d="M19 382l202 118h87v-500h-101v383l-150 -83z" />
    <glyph glyph-name="two.pnum" horiz-adv-x="481" 
d="M436 0h-388v89l146 113c90 67 124 100 124 147c0 49 -33 63 -113 63c-39 0 -151 -15 -151 -16l-6 93s114 20 191 20c108 0 188 -37 188 -146c0 -86 -43 -126 -123 -184l-112 -86h244v-93z" />
    <glyph glyph-name="three.pnum" horiz-adv-x="482" 
d="M50 491c0 0 110 19 186 19c115 0 186 -32 186 -125c0 -77 -50 -105 -73 -118c38 -15 88 -46 88 -123c0 -106 -82 -153 -194 -153c-83 0 -201 21 -201 21l12 93s108 -13 189 -13c68 0 92 20 92 61c0 46 -45 57 -94 58h-129v89h128c40 1 80 15 80 59c0 41 -34 54 -83 54
c-84 0 -177 -13 -177 -13z" />
    <glyph glyph-name="four.pnum" horiz-adv-x="479" 
d="M299 -9v96h-267v75l139 338h108l-136 -316h156v123h102v-123h46v-97h-46v-96h-102z" />
    <glyph glyph-name="five.pnum" horiz-adv-x="499" 
d="M76 503h362v-106h-269l-13 -100s55 23 108 23c123 0 194 -51 194 -157c0 -107 -71 -172 -202 -172c-85 0 -211 28 -211 28l12 93s123 -22 196 -22c57 0 93 18 93 67c0 50 -35 68 -95 68c-48 0 -116 -27 -116 -27l-79 16z" />
    <glyph glyph-name="six.pnum" horiz-adv-x="503" 
d="M437 494l-7 -85s-100 10 -164 10c-69 0 -118 -29 -118 -129c33 14 87 31 130 31c115 0 187 -47 187 -164c0 -108 -87 -167 -215 -167c-131 0 -204 76 -204 264c0 190 98 255 220 255c87 0 171 -15 171 -15zM262 226c-47 0 -114 -20 -114 -20c2 -84 39 -127 110 -127
c57 0 105 21 105 78c0 51 -37 69 -101 69z" />
    <glyph glyph-name="seven.pnum" horiz-adv-x="417" 
d="M31 411v89h356v-112l-204 -397l-88 24l195 374v22h-259z" />
    <glyph glyph-name="eight.pnum" horiz-adv-x="505" 
d="M252 509c117 0 196 -40 196 -137c0 -61 -33 -90 -75 -110c46 -24 86 -47 86 -127c0 -106 -90 -145 -207 -145c-116 0 -206 40 -206 143c0 75 38 105 83 129c-39 20 -72 49 -72 110c0 98 77 137 195 137zM252 78c64 0 105 16 105 66c0 45 -28 60 -71 73h-70
c-44 -14 -69 -32 -69 -75c0 -48 42 -64 105 -64zM252 421c-66 0 -94 -22 -94 -57c0 -40 21 -56 58 -68h70c38 11 61 28 61 68c0 35 -30 57 -95 57z" />
    <glyph glyph-name="nine.pnum" horiz-adv-x="486" 
d="M60 11l9 85s79 -14 155 -14c70 0 113 42 113 130c0 0 -50 -25 -116 -25c-124 0 -181 57 -181 155c0 107 79 168 196 168c128 0 205 -79 205 -259c0 -193 -93 -260 -217 -260c-92 0 -164 20 -164 20zM230 275c59 0 103 24 103 24c-2 79 -34 121 -101 121
c-61 0 -90 -23 -90 -77c0 -41 29 -68 88 -68z" />
    <glyph glyph-name="questiondown.cap" horiz-adv-x="431" 
d="M30 151c0 89 15 122 87 180c66 51 81 76 81 111v33h88s24 -31 24 -78c0 -36 -29 -67 -81 -111c-74 -60 -87 -79 -87 -124c0 -50 29 -76 106 -76c62 0 149 19 149 19l6 -83s-93 -33 -169 -33c-139 0 -204 47 -204 162zM303 685v-140h-116v140h116z" />
    <glyph glyph-name="endash.cap" horiz-adv-x="624" 
d="M62 343h500v-93h-500v93z" />
    <glyph glyph-name="emdash.cap" horiz-adv-x="1124" 
d="M62 343h1000v-93h-1000v93z" />
    <glyph glyph-name="periodcentered.cap" horiz-adv-x="239" 
d="M61 259v144h117v-144h-117z" />
    <glyph glyph-name="exclamdown.cap" horiz-adv-x="266" 
d="M192 686v-140h-117v140h117zM181 445l10 -444h-116l10 444h96z" />
    <glyph glyph-name="parenleft.cap" horiz-adv-x="289" 
d="M155 780h103s-95 -253 -95 -449s95 -426 95 -426h-103s-112 197 -112 426s112 449 112 449z" />
    <glyph glyph-name="parenright.cap" horiz-adv-x="289" 
d="M134 -90h-103s95 253 95 449s-95 426 -95 426h103s112 -197 112 -426s-112 -449 -112 -449z" />
    <glyph glyph-name="bracketleft.cap" horiz-adv-x="344" 
d="M306 779v-97h-123v-678h123v-97h-233v872h233z" />
    <glyph glyph-name="bracketright.cap" horiz-adv-x="344" 
d="M38 682v97h233v-872h-233v97h123v678h-123z" />
    <glyph glyph-name="braceleft.cap" horiz-adv-x="357" 
d="M235 201c0 -31 -7 -82 -7 -117c0 -52 15 -88 90 -93v-92c-143 5 -196 54 -196 173c0 39 7 96 7 121c0 51 -34 86 -110 107v85c77 18 110 50 110 101c0 28 -7 90 -7 127c0 126 54 170 197 175l1 -92c-75 -5 -92 -38 -92 -91c0 -33 7 -96 7 -125c0 -82 -18 -113 -109 -137
c91 -24 109 -61 109 -142z" />
    <glyph glyph-name="braceright.cap" horiz-adv-x="358" 
d="M122 483c0 31 7 82 7 117c0 52 -15 88 -90 93v92c143 -5 196 -54 196 -173c0 -39 -7 -96 -7 -121c0 -51 34 -86 110 -107v-85c-77 -18 -110 -50 -110 -101c0 -28 7 -90 7 -127c0 -126 -54 -170 -197 -175l-1 92c75 5 92 38 92 91c0 33 -7 96 -7 125c0 82 18 113 109 137
c-91 24 -109 61 -109 142z" />
    <glyph glyph-name="grave.cap" horiz-adv-x="254" 
d="M44 939l236 -103l-28 -76l-243 82z" />
    <glyph glyph-name="acute.cap" horiz-adv-x="254" 
d="M6 836l236 103l35 -97l-243 -82z" />
    <glyph glyph-name="circumflex.cap" horiz-adv-x="476" 
d="M37 776l134 143h94l134 -143h-116l-64 67l-65 -67h-117z" />
    <glyph glyph-name="caron.cap" horiz-adv-x="254" 
d="M93 776l-134 143h117l65 -66l63 66h117l-134 -143h-94z" />
    <glyph glyph-name="tilde.cap" horiz-adv-x="254" 
d="M305 917l24 -79s-49 -61 -97 -61c-50 0 -134 50 -167 50c-26 0 -76 -44 -76 -44l-24 78s51 62 99 62c56 0 136 -50 165 -50c24 0 76 44 76 44z" />
    <glyph glyph-name="dieresis.cap" horiz-adv-x="254" 
d="M-33 783v114h104v-114h-104zM176 783v114h104v-114h-104z" />
    <glyph glyph-name="macron.cap" horiz-adv-x="254" 
d="M-24 795v81h332v-81h-332z" />
    <glyph glyph-name="breve.cap" horiz-adv-x="254" 
d="M-26 914h99c3 -38 33 -65 74 -65c44 0 73 27 76 65h99c-8 -83 -66 -143 -175 -143c-108 0 -166 60 -173 143z" />
    <glyph glyph-name="ring.cap" horiz-adv-x="254" 
d="M278 747c0 -75 -62 -117 -137 -117s-136 42 -136 117s61 117 136 117s137 -42 137 -117zM81 747c0 -29 23 -46 60 -46s61 17 61 46s-24 47 -61 47s-60 -18 -60 -47z" />
    <glyph glyph-name="hungarumlaut.cap" horiz-adv-x="254" 
d="M173 779l99 169l90 -39l-108 -164zM-31 780l100 169l89 -39l-107 -164z" />
    <glyph glyph-name="dotaccent.cap" horiz-adv-x="254" 
d="M73 782v114h108v-114h-108z" />
    <glyph glyph-name="zero.numr" horiz-adv-x="280" 
d="M140 700c81 0 124 -41 124 -167c0 -127 -44 -165 -124 -165s-125 38 -125 165s44 167 125 167zM140 622c-23 0 -34 -16 -34 -89c0 -74 12 -87 34 -87c23 0 34 13 34 87c0 72 -10 89 -34 89z" />
    <glyph glyph-name="one.numr" horiz-adv-x="280" 
d="M28 617l105 73h80v-312h-88v215l-56 -38z" />
    <glyph glyph-name="two.numr" horiz-adv-x="280" 
d="M250 378h-221v75l79 71c33 28 48 47 48 68c0 18 -15 25 -42 25c-25 0 -79 -7 -79 -7l-4 80s67 10 112 10c77 0 105 -28 105 -96c0 -45 -17 -72 -58 -105l-49 -42h109v-79z" />
    <glyph glyph-name="three.numr" horiz-adv-x="280" 
d="M31 691c0 0 65 9 106 9c76 0 114 -26 114 -86c0 -41 -20 -64 -34 -72c26 -10 41 -28 41 -75c0 -68 -43 -99 -113 -99c-49 0 -118 8 -118 8l6 77s59 -7 96 -7c27 0 38 10 38 28c0 20 -13 26 -35 26h-66v72h65c15 0 28 10 28 26c0 17 -12 24 -35 24c-40 0 -87 -6 -87 -6z
" />
    <glyph glyph-name="four.numr" horiz-adv-x="280" 
d="M155 378v41h-136v73l52 198h98l-61 -192h47l10 89h77v-89h18v-79h-18v-41h-87z" />
    <glyph glyph-name="five.numr" horiz-adv-x="280" 
d="M47 690h199v-75h-129l-4 -46s28 10 50 10c57 0 93 -26 93 -99s-39 -110 -113 -110c-50 0 -113 14 -113 14l6 71s56 -9 94 -9c24 0 35 10 35 30c0 21 -10 28 -25 28c-17 0 -38 -8 -38 -8l-65 8z" />
    <glyph glyph-name="six.numr" horiz-adv-x="280" 
d="M248 689l-4 -72s-60 6 -90 6c-33 0 -45 -17 -45 -47c0 -1 27 9 47 9c73 0 103 -36 103 -104c0 -72 -48 -113 -115 -113c-86 0 -125 57 -125 157c0 115 34 175 132 175c36 0 97 -11 97 -11zM142 513c-19 0 -34 -11 -34 -12c1 -34 11 -57 33 -57c20 0 30 15 30 36
c0 23 -10 33 -29 33z" />
    <glyph glyph-name="seven.numr" horiz-adv-x="280" 
d="M35 603v87h217v-91l-99 -230l-98 16l96 202v16h-116z" />
    <glyph glyph-name="eight.numr" horiz-adv-x="280" 
d="M139 700c80 0 119 -29 119 -87c0 -45 -23 -69 -34 -72c11 -3 39 -22 39 -71c0 -76 -46 -102 -124 -102s-124 24 -124 100c0 47 29 70 39 74c-9 3 -34 22 -34 71c0 57 38 87 119 87zM139 439c22 0 34 11 34 32c0 16 -9 28 -24 36h-20c-14 -8 -24 -20 -24 -37
c0 -20 12 -31 34 -31zM139 629c-21 0 -32 -9 -32 -27c0 -15 9 -26 22 -33h20c14 7 22 18 22 33c0 17 -10 27 -32 27z" />
    <glyph glyph-name="nine.numr" horiz-adv-x="280" 
d="M33 380l5 73s48 -7 85 -7c35 0 46 19 47 45c0 0 -25 -8 -47 -8c-66 0 -101 37 -101 104c0 73 46 113 115 113c88 0 125 -56 125 -165c0 -113 -35 -167 -128 -167c-45 0 -101 12 -101 12zM139 552c14 0 34 9 34 9c0 42 -10 62 -33 62c-19 0 -30 -13 -30 -35
c0 -21 12 -36 29 -36z" />
    <glyph glyph-name="zero.slash" 
d="M251 277v101h65v-101h-65zM280 671c160 0 249 -88 249 -348c0 -251 -91 -334 -249 -334s-250 82 -250 334c0 259 91 348 250 348zM280 574c-92 0 -135 -56 -135 -251c0 -181 45 -237 136 -237c90 0 133 56 133 237c0 194 -41 251 -134 251z" />
    <glyph glyph-name="at.cap" horiz-adv-x="970" 
d="M937 329v-10c0 -230 -68 -298 -185 -298c-102 0 -126 58 -126 58s-88 -57 -160 -57c-106 0 -182 52 -182 251c0 165 47 253 196 253c42 0 102 -25 102 -25v14h108v-184c0 -201 5 -219 62 -219c48 0 76 29 76 207v11c0 227 -97 325 -327 325c-232 0 -351 -125 -351 -370
c0 -265 100 -372 351 -372c48 0 143 9 143 9l5 -95s-92 -9 -148 -9c-296 0 -459 106 -459 467c0 323 178 465 459 465c298 0 436 -144 436 -421zM475 117c40 0 97 26 114 34c-4 23 -7 80 -7 135v130s-50 15 -80 15c-90 0 -108 -51 -108 -159c0 -117 34 -155 81 -155z" />
    <glyph glyph-name="zero.dnom" horiz-adv-x="280" 
d="M140 322c81 0 124 -41 124 -167c0 -127 -44 -165 -124 -165s-125 38 -125 165s44 167 125 167zM140 244c-23 0 -34 -16 -34 -89c0 -74 12 -87 34 -87c23 0 34 13 34 87c0 72 -10 89 -34 89z" />
    <glyph glyph-name="one.dnom" horiz-adv-x="280" 
d="M30 239l105 73h80v-312h-88v215l-56 -38z" />
    <glyph glyph-name="two.dnom" horiz-adv-x="280" 
d="M252 0h-221v75l79 71c33 28 48 47 48 68c0 18 -15 25 -42 25c-25 0 -79 -7 -79 -7l-4 80s67 10 112 10c77 0 105 -28 105 -96c0 -45 -17 -72 -58 -105l-49 -42h109v-79z" />
    <glyph glyph-name="three.dnom" horiz-adv-x="280" 
d="M31 313c0 0 65 9 106 9c76 0 114 -26 114 -86c0 -41 -20 -64 -34 -72c26 -10 41 -28 41 -75c0 -68 -43 -99 -113 -99c-49 0 -118 8 -118 8l6 77s59 -7 96 -7c27 0 38 10 38 28c0 20 -13 26 -35 26h-66v72h65c15 0 28 10 28 26c0 17 -12 24 -35 24c-40 0 -87 -6 -87 -6z
" />
    <glyph glyph-name="four.dnom" horiz-adv-x="280" 
d="M156 0v41h-136v73l52 198h98l-61 -192h47l10 89h77v-89h18v-79h-18v-41h-87z" />
    <glyph glyph-name="five.dnom" horiz-adv-x="280" 
d="M43 312h199v-75h-129l-4 -46s28 10 50 10c57 0 93 -26 93 -99s-39 -110 -113 -110c-50 0 -113 14 -113 14l6 71s56 -9 94 -9c24 0 35 10 35 30c0 21 -10 28 -25 28c-17 0 -38 -8 -38 -8l-65 8z" />
    <glyph glyph-name="six.dnom" horiz-adv-x="280" 
d="M246 311l-4 -72s-60 6 -90 6c-33 0 -45 -17 -45 -47c0 -1 27 9 47 9c73 0 103 -36 103 -104c0 -72 -48 -113 -115 -113c-86 0 -125 57 -125 157c0 115 34 175 132 175c36 0 97 -11 97 -11zM140 135c-19 0 -34 -11 -34 -12c1 -34 11 -57 33 -57c20 0 30 15 30 36
c0 23 -10 33 -29 33z" />
    <glyph glyph-name="seven.dnom" horiz-adv-x="280" 
d="M34 225v87h217v-91l-99 -230l-98 16l96 202v16h-116z" />
    <glyph glyph-name="eight.dnom" horiz-adv-x="280" 
d="M140 322c80 0 119 -29 119 -87c0 -45 -23 -69 -34 -72c11 -3 39 -22 39 -71c0 -76 -46 -102 -124 -102s-124 24 -124 100c0 47 29 70 39 74c-9 3 -34 22 -34 71c0 57 38 87 119 87zM140 61c22 0 34 11 34 32c0 16 -9 28 -24 36h-20c-14 -8 -24 -20 -24 -37
c0 -20 12 -31 34 -31zM140 251c-21 0 -32 -9 -32 -27c0 -15 9 -26 22 -33h20c14 7 22 18 22 33c0 17 -10 27 -32 27z" />
    <glyph glyph-name="nine.dnom" horiz-adv-x="280" 
d="M31 2l5 73s48 -7 85 -7c35 0 46 19 47 45c0 0 -25 -8 -47 -8c-66 0 -101 37 -101 104c0 73 46 113 115 113c88 0 125 -56 125 -165c0 -113 -35 -167 -128 -167c-45 0 -101 12 -101 12zM137 174c14 0 34 9 34 9c0 42 -10 62 -33 62c-19 0 -30 -13 -30 -35
c0 -21 12 -36 29 -36z" />
    <glyph glyph-name="hyphen.cap" horiz-adv-x="421" 
d="M61 250v99h299v-99h-299z" />
    </font>
</defs>
</svg>
