<?xml version="1.0" standalone="no"?>
<!DOCTYPE svg PUBLIC "-//W3C//DTD SVG 1.1//EN" "http://www.w3.org/Graphics/SVG/1.1/DTD/svg11.dtd" >
<svg version="1.1" xmlns="http://www.w3.org/2000/svg">
<metadata>
Created by FontForge 20120731 at Fri Aug  1 16:50:39 2014
 By Alfred Xing
Copyright (c) 2009-2011 by Accademia di Belle Arti di Urbino and students of MA course of Visual design. Some rights reserved.
</metadata>
<defs>
<font id="Titillium-BoldItalic" horiz-adv-x="560" >
  <font-face 
    font-family="Titillium"
    font-weight="700"
    font-style="italic"
    font-stretch="normal"
    units-per-em="1000"
    panose-1="0 0 8 0 0 0 0 0 0 0"
    ascent="750"
    descent="-250"
    x-height="500"
    cap-height="680"
    bbox="-158 -309 1082 1133"
    underline-thickness="30"
    underline-position="-70"
    slope="-13"
    stemh="120"
    stemv="138"
    unicode-range="U+0020-F6C3"
  />
<missing-glyph horiz-adv-x="223" 
 />
    <glyph glyph-name=".notdef" horiz-adv-x="223" 
 />
    <glyph glyph-name="space" unicode=" " horiz-adv-x="220" 
 />
    <glyph glyph-name="exclam" unicode="!" horiz-adv-x="163" 
d="M77 258l95 442h143l-112 -442h-126zM14 0l35 153h136l-35 -153h-136z" />
    <glyph glyph-name="quotedbl" unicode="&#x22;" horiz-adv-x="306" 
d="M224 437h-115l58 251h125zM392 437h-115l58 251h125z" />
    <glyph glyph-name="numbersign" unicode="#" 
d="M579 165h-96l-41 -165h-116l41 165h-104l-41 -165h-116l41 165h-96l28 112h96l26 106h-96l28 112h96l41 165h116l-41 -165h104l41 165h116l-41 -165h96l-28 -112h-96l-26 -106h96zM395 277l26 106h-104l-26 -106h104z" />
    <glyph glyph-name="dollar" unicode="$" 
d="M609 636l-25 -95s-39 6 -83 11l-78 -172c95 -44 117 -81 117 -163c0 -150 -101 -229 -250 -229c-14 0 -29 1 -42 2l-49 -109h-85l55 122c-48 12 -81 25 -81 25l22 97s52 -10 106 -16l82 183c-82 39 -117 79 -117 164c0 123 85 217 224 217c21 0 42 -2 62 -4l46 102h86
l-52 -117c37 -9 62 -18 62 -18zM404 201c0 25 -6 38 -36 56l-69 -152c66 2 105 27 105 96zM317 472c0 -26 5 -39 36 -58l65 145h-9c-58 0 -92 -36 -92 -87z" />
    <glyph glyph-name="percent" unicode="%" 
d="M287 621c18 0 18 -19 6 -65c-11 -46 -20 -66 -38 -66s-17 20 -6 66c12 46 20 65 38 65zM108 6l424 714l79 -30l-424 -714zM151 556c-24 -97 7 -146 84 -146s132 49 156 146s-7 145 -84 145s-132 -48 -156 -145zM331 146c24 97 79 145 156 145s108 -48 84 -145
s-79 -146 -156 -146s-108 49 -84 146zM429 146c-12 -46 -13 -66 5 -66s27 20 39 66c11 46 12 65 -6 65s-27 -19 -38 -65z" />
    <glyph glyph-name="ampersand" unicode="&#x26;" horiz-adv-x="641" 
d="M430 692c114 0 176 -46 176 -151c0 -93 -37 -139 -176 -194l76 -102c16 23 43 88 49 121h123c-15 -61 -67 -163 -104 -207l80 -93l-93 -80l-72 92c-55 -53 -129 -90 -220 -90c-167 0 -206 82 -206 174c0 119 68 189 196 240c-19 33 -30 64 -30 107c0 130 88 183 201 183z
M297 102c44 0 102 29 128 56l-118 167c-84 -39 -105 -90 -105 -146c0 -55 35 -77 95 -77zM363 505c0 -45 9 -69 20 -86c76 40 89 63 89 110c0 31 -14 51 -44 51c-43 0 -65 -31 -65 -75z" />
    <glyph glyph-name="quotesingle" unicode="'" horiz-adv-x="138" 
d="M224 437h-115l58 251h125z" />
    <glyph glyph-name="parenleft" unicode="(" horiz-adv-x="234" 
d="M287 748h125s-220 -329 -220 -616c0 -140 16 -255 16 -255h-128s-29 97 -29 255c0 317 236 616 236 616z" />
    <glyph glyph-name="parenright" unicode=")" horiz-adv-x="235" 
d="M93 -118h-125s220 329 220 616c0 140 -16 255 -16 255h128s29 -97 29 -255c0 -317 -236 -616 -236 -616z" />
    <glyph glyph-name="asterisk" unicode="*" horiz-adv-x="423" 
d="M511 499h-123l38 -120l-73 -22l-41 121l-103 -79l-47 59l105 78l-102 73l46 63l101 -73l39 121l75 -25l-38 -122h123v-74z" />
    <glyph glyph-name="plus" unicode="+" 
d="M107 191v120h169v168h120v-168h171v-120h-171v-170h-120v170h-169z" />
    <glyph glyph-name="comma" unicode="," horiz-adv-x="175" 
d="M58 -130h-111l117 283h147z" />
    <glyph glyph-name="hyphen" unicode="-" horiz-adv-x="267" 
d="M53 205l30 120h253l-30 -120h-253z" />
    <glyph glyph-name="period" unicode="." horiz-adv-x="152" 
d="M8 0l35 153h136l-35 -153h-136z" />
    <glyph glyph-name="slash" unicode="/" horiz-adv-x="468" 
d="M163 -24l-126 44l431 698l126 -44z" />
    <glyph glyph-name="zero" unicode="0" 
d="M401 672c154 0 216 -78 216 -212c0 -287 -132 -472 -306 -472c-154 0 -216 78 -216 212c0 287 132 472 306 472zM398 554c-101 0 -162 -197 -162 -336c0 -74 16 -112 77 -112c102 0 163 197 163 334c0 76 -16 114 -78 114z" />
    <glyph glyph-name="one" unicode="1" 
d="M194 516l255 144h119l-152 -660h-137l115 498l-163 -90z" />
    <glyph glyph-name="two" unicode="2" 
d="M488 0h-425l27 112l199 173c117 101 172 154 172 200c0 51 -21 69 -98 69c-68 0 -158 -15 -158 -15l18 100s96 33 181 33c136 0 198 -47 198 -153c0 -119 -65 -183 -170 -263l-182 -138h267z" />
    <glyph glyph-name="three" unicode="3" 
d="M198 541l14 90s89 41 189 41c136 0 199 -43 199 -143c0 -92 -32 -137 -120 -182c46 -27 63 -53 63 -124c0 -140 -113 -235 -284 -235c-98 0 -200 36 -200 36l29 94s114 -12 183 -12s131 38 131 111c0 38 -20 54 -86 55l-126 2l25 102l129 6c49 2 115 51 115 110
c0 40 -27 62 -90 62c-78 0 -171 -13 -171 -13z" />
    <glyph glyph-name="four" unicode="4" 
d="M322 -5l27 117h-279l23 100l276 448h150l-279 -434h135l41 178h136l-41 -178h61l-27 -114h-60l-27 -117h-136z" />
    <glyph glyph-name="five" unicode="5" 
d="M248 661h393l-27 -118h-284l-59 -156s71 31 115 31c107 0 174 -46 174 -160c0 -159 -113 -270 -263 -270c-118 0 -235 43 -235 43l31 104s116 -29 191 -29c78 0 135 57 135 122c0 50 -21 72 -78 72c-50 0 -104 -21 -104 -21l-100 23z" />
    <glyph glyph-name="six" unicode="6" 
d="M640 650l-43 -111s-78 15 -157 15c-86 0 -137 -63 -173 -164c0 0 80 35 135 35c129 0 181 -65 181 -174c0 -154 -94 -263 -271 -263c-128 0 -213 72 -213 235c0 197 134 449 373 449c74 0 168 -22 168 -22zM361 307c-64 0 -112 -24 -112 -24c-4 -17 -9 -40 -9 -64
c0 -52 20 -113 81 -113c79 0 121 46 121 132c0 54 -34 69 -81 69z" />
    <glyph glyph-name="seven" unicode="7" 
d="M197 542l27 118h412l-40 -173l-354 -505l-125 36l347 483l8 41h-275z" />
    <glyph glyph-name="eight" unicode="8" 
d="M441 673c132 0 197 -63 197 -133c0 -106 -46 -154 -115 -200c45 -34 52 -81 52 -123c0 -137 -141 -231 -306 -231c-149 0 -204 59 -204 168c0 85 79 152 130 186c-45 46 -42 71 -42 99c0 117 105 234 288 234zM300 104c75 0 130 55 130 107c0 32 -8 49 -43 64h-88
c-45 -16 -85 -50 -85 -95c0 -55 23 -76 86 -76zM411 555c-65 0 -117 -52 -117 -100c0 -33 7 -44 33 -66h88c38 22 75 64 75 97c0 38 -23 69 -79 69z" />
    <glyph glyph-name="nine" unicode="9" 
d="M79 10l42 119s58 -15 137 -15c86 0 163 59 186 151c0 1 -100 -26 -148 -26c-113 0 -171 51 -171 177c0 109 88 256 293 256c130 0 187 -99 187 -252c0 -282 -179 -432 -378 -432c-74 0 -148 22 -148 22zM339 361c54 0 133 15 133 15c19 96 -2 171 -84 171
c-66 0 -129 -46 -129 -119c0 -54 24 -67 80 -67z" />
    <glyph glyph-name="colon" unicode=":" horiz-adv-x="158" 
d="M80 296l35 153h136l-35 -153h-136zM10 0l35 153h136l-35 -153h-136z" />
    <glyph glyph-name="semicolon" unicode=";" horiz-adv-x="175" 
d="M-54 -130h111l153 283h-147zM95 296l35 153h136l-35 -153h-136z" />
    <glyph glyph-name="less" unicode="&#x3c;" 
d="M520 353l-261 -99l261 -108v-136l-406 186v110l406 183v-136z" />
    <glyph glyph-name="equal" unicode="=" 
d="M116 295v121h444v-121h-444zM116 87v121h444v-121h-444z" />
    <glyph glyph-name="greater" unicode="&#x3e;" 
d="M416 254l-261 99v136l406 -183v-110l-406 -186v136z" />
    <glyph glyph-name="question" unicode="?" horiz-adv-x="431" 
d="M522 536c0 -95 -41 -139 -151 -215c-36 -25 -57 -51 -62 -73l-9 -40h-126s0 49 8 90c6 34 38 70 94 110c71 50 104 77 104 114c0 45 -28 50 -73 50c-70 0 -143 -12 -143 -12l14 105s90 27 160 27c113 0 184 -44 184 -156zM120 0l38 168h136l-38 -168h-136z" />
    <glyph glyph-name="at" unicode="@" horiz-adv-x="959" 
d="M635 727c350 0 426 -199 365 -432c-57 -217 -124 -305 -253 -305c-56 0 -93 14 -113 44c-40 -20 -130 -46 -189 -46c-137 0 -155 142 -133 254c32 160 109 270 252 270c44 0 131 -14 244 -33c-8 -35 -67 -297 -71 -329c-3 -24 13 -33 40 -33c39 0 66 50 102 190
c42 167 30 308 -264 308c-232 0 -349 -129 -400 -344c-44 -187 14 -366 282 -366c38 0 137 9 137 9l-26 -111s-97 -10 -142 -10c-319 0 -433 235 -375 478c79 330 254 456 544 456zM480 102c40 -1 91 19 122 38c3 34 33 164 52 244c-23 5 -69 14 -91 14
c-67 0 -98 -76 -116 -156s-6 -138 33 -140z" />
    <glyph glyph-name="A" unicode="A" horiz-adv-x="551" 
d="M13 0l306 680h238l-21 -680h-138l4 118h-198l-53 -118h-138zM400 560l-144 -322h151l14 322h-21z" />
    <glyph glyph-name="B" unicode="B" horiz-adv-x="573" 
d="M222 680h236c111 0 178 -46 178 -147c0 -92 -43 -141 -112 -183c55 -33 65 -68 65 -118c0 -125 -87 -232 -268 -232h-256zM382 285h-113l-39 -167h118c60 0 99 46 99 111c0 39 -20 56 -65 56zM436 562h-103l-38 -162h103c54 0 97 42 97 105c0 37 -18 57 -59 57z" />
    <glyph glyph-name="C" unicode="C" horiz-adv-x="494" 
d="M484 121l-11 -107s-93 -26 -169 -26c-139 0 -205 71 -205 197c0 211 91 507 350 507c82 0 171 -30 171 -30l-32 -102s-62 12 -144 12c-129 0 -203 -187 -203 -377c0 -55 24 -87 81 -87c78 0 162 13 162 13z" />
    <glyph glyph-name="D" unicode="D" horiz-adv-x="605" 
d="M309 0h-244l157 680h214c118 0 224 -44 224 -207c0 -226 -107 -473 -351 -473zM518 473c0 68 -42 87 -110 87h-76l-101 -440h90c144 0 197 229 197 353z" />
    <glyph glyph-name="E" unicode="E" horiz-adv-x="497" 
d="M65 0l156 680h399l-28 -120h-260l-37 -160h206l-28 -120h-205l-37 -160h261l-27 -120h-400z" />
    <glyph glyph-name="F" unicode="F" horiz-adv-x="477" 
d="M65 0l157 680h392l-28 -120h-254l-47 -205h210l-29 -120h-209l-54 -235h-138z" />
    <glyph glyph-name="G" unicode="G" horiz-adv-x="568" 
d="M378 264l27 114h201l-85 -364s-68 -26 -194 -26c-147 0 -225 71 -225 214c0 254 113 490 363 490c110 0 208 -40 208 -40l-32 -100s-99 20 -187 20c-152 0 -210 -217 -210 -371c0 -67 40 -93 100 -93c34 0 63 5 63 5l35 151h-64z" />
    <glyph glyph-name="H" unicode="H" horiz-adv-x="620" 
d="M417 0l66 288h-214l-66 -288h-138l157 680h138l-63 -272h214l63 272h138l-157 -680h-138z" />
    <glyph glyph-name="I" unicode="I" horiz-adv-x="268" 
d="M65 0l157 680h138l-157 -680h-138z" />
    <glyph glyph-name="J" unicode="J" horiz-adv-x="283" 
d="M378 680l-126 -545c-42 -182 -71 -204 -246 -204l23 120c53 2 67 6 85 84l126 545h138z" />
    <glyph glyph-name="K" unicode="K" horiz-adv-x="540" 
d="M384 0l-44 273l-76 -7l-61 -266h-138l157 680h138l-68 -294l64 8l176 286h151l-217 -341l63 -339h-145z" />
    <glyph glyph-name="L" unicode="L" horiz-adv-x="422" 
d="M419 0h-354l157 680h138l-129 -560h215z" />
    <glyph glyph-name="M" unicode="M" horiz-adv-x="789" 
d="M65 0l157 680h214l1 -495l226 495h218l-157 -680h-138l130 560h-6l-243 -530h-130l-1 530h-5l-128 -560h-138z" />
    <glyph glyph-name="N" unicode="N" horiz-adv-x="651" 
d="M65 0l157 680h219l36 -533h12l121 533h133l-157 -680h-208l-44 543h-12l-127 -543h-130z" />
    <glyph glyph-name="O" unicode="O" horiz-adv-x="615" 
d="M339 108c31 0 61 11 84 34c66 66 104 214 104 328c0 73 -24 102 -95 102c-30 0 -59 -8 -81 -30c-71 -70 -108 -232 -108 -332c0 -73 24 -102 96 -102zM315 -12c-132 0 -214 64 -214 208c0 166 50 337 156 429c51 44 116 67 191 67c135 0 221 -61 221 -208
c0 -172 -50 -349 -164 -438c-49 -38 -119 -58 -190 -58z" />
    <glyph glyph-name="P" unicode="P" horiz-adv-x="547" 
d="M333 196h-85l-45 -196h-138l157 680h196c148 0 210 -58 210 -192c0 -195 -116 -292 -295 -292zM276 316h75c84 0 135 61 135 170c0 50 -21 74 -78 74h-76z" />
    <glyph glyph-name="Q" unicode="Q" horiz-adv-x="615" 
d="M315 -12c-132 0 -214 64 -214 208c0 166 50 337 156 429c51 44 116 67 191 67c135 0 221 -61 221 -208c0 -172 -50 -349 -164 -438c-11 -8 -22 -16 -34 -22l48 -135l-131 -43l-43 144c-10 -1 -20 -2 -30 -2zM339 108c31 0 61 11 84 34c66 66 104 214 104 328
c0 73 -24 102 -95 102c-30 0 -59 -8 -81 -30c-71 -70 -108 -232 -108 -332c0 -73 24 -102 96 -102z" />
    <glyph glyph-name="R" unicode="R" horiz-adv-x="559" 
d="M393 0l-45 216h-95l-50 -216h-138l157 680h196c141 0 210 -55 210 -194c0 -130 -69 -218 -152 -251l55 -235h-138zM486 480c0 57 -19 82 -76 82h-77l-53 -228h89c75 0 117 71 117 146z" />
    <glyph glyph-name="S" unicode="S" horiz-adv-x="495" 
d="M586 654l-25 -98s-110 18 -180 18c-60 0 -95 -36 -95 -89c0 -37 11 -49 93 -86c112 -50 136 -87 136 -176c0 -154 -103 -235 -257 -235c-106 0 -208 41 -208 41l23 99s113 -20 183 -20c75 0 119 24 119 99c0 38 -13 50 -101 90c-90 41 -128 82 -128 172
c0 126 88 223 231 223c109 0 209 -38 209 -38z" />
    <glyph glyph-name="T" unicode="T" horiz-adv-x="456" 
d="M138 560l28 120h438l-28 -120h-151l-129 -560h-138l129 560h-149z" />
    <glyph glyph-name="U" unicode="U" horiz-adv-x="595" 
d="M353 680l-104 -449c-5 -21 -9 -42 -9 -66c0 -47 32 -57 82 -57c87 0 110 39 129 123l104 449h138l-104 -449c-39 -170 -119 -243 -279 -243c-124 0 -207 48 -207 154c0 36 6 79 13 111l99 427h138z" />
    <glyph glyph-name="V" unicode="V" horiz-adv-x="555" 
d="M561 680h138l-308 -680h-235l14 680h138l-24 -560h33z" />
    <glyph glyph-name="W" unicode="W" horiz-adv-x="865" 
d="M174 680h138l-42 -553h14l226 543h152l-33 -543h14l224 553h138l-291 -680h-200l33 494l-198 -494h-206z" />
    <glyph glyph-name="X" unicode="X" horiz-adv-x="520" 
d="M313 680l49 -239l164 239h145l-250 -338l94 -342h-145l-55 243l-169 -243h-145l256 343l-90 337h146z" />
    <glyph glyph-name="Y" unicode="Y" horiz-adv-x="504" 
d="M661 680l-280 -392l-68 -288h-128l68 294l-95 386h140l48 -265l169 265h146z" />
    <glyph glyph-name="Z" unicode="Z" horiz-adv-x="490" 
d="M165 560l28 120h418l-32 -139l-353 -397l-6 -24h262l-28 -120h-418l31 137l351 399l5 24h-258z" />
    <glyph glyph-name="bracketleft" unicode="[" horiz-adv-x="246" 
d="M187 747h229l-28 -114h-88l-149 -641h88l-28 -114h-226z" />
    <glyph glyph-name="backslash" unicode="\" horiz-adv-x="484" 
d="M458 0h-139l-133 702h140z" />
    <glyph glyph-name="bracketright" unicode="]" horiz-adv-x="245" 
d="M203 -122h-229l28 114h88l149 641h-88l28 114h226z" />
    <glyph glyph-name="asciicircum" unicode="^" 
d="M417 313l-109 217l-113 -217h-140l194 347h114l194 -347h-140z" />
    <glyph glyph-name="underscore" unicode="_" horiz-adv-x="478" 
d="M-4 -80h448l-28 -125h-448z" />
    <glyph glyph-name="grave" unicode="`" horiz-adv-x="518" 
d="M308 772l221 -90l-56 -99l-229 79z" />
    <glyph glyph-name="a" unicode="a" horiz-adv-x="528" 
d="M221 -12c-102 0 -141 78 -141 182c0 136 72 342 254 342c73 0 250 -33 250 -33l-75 -323c-14 -62 -27 -153 -27 -153l-133 -5s9 61 13 78c0 0 -64 -88 -141 -88zM338 398c-81 0 -122 -137 -122 -228c0 -43 10 -68 51 -68s117 89 117 89l46 193s-66 14 -92 14z" />
    <glyph glyph-name="b" unicode="b" horiz-adv-x="527" 
d="M412 512c117 0 150 -82 150 -163c0 -204 -96 -360 -260 -360c-108 0 -244 33 -244 33l156 678h134l-55 -239s59 51 119 51zM300 103c92 0 125 156 125 232c0 29 -8 63 -53 63c-44 0 -105 -50 -105 -50l-54 -235s44 -10 87 -10z" />
    <glyph glyph-name="c" unicode="c" horiz-adv-x="409" 
d="M343 512c70 0 149 -31 149 -31l-34 -98s-77 13 -121 13c-82 0 -119 -111 -119 -205c0 -56 21 -87 76 -87c43 0 107 8 107 8l-11 -99s-73 -25 -145 -25c-96 0 -163 62 -163 174c0 194 86 350 261 350z" />
    <glyph glyph-name="d" unicode="d" horiz-adv-x="528" 
d="M635 700l-162 -700h-130l9 52s-56 -64 -128 -64c-96 0 -144 65 -144 177c0 162 86 346 252 346c42 0 120 -21 120 -21l49 210h134zM380 174l48 209s-58 14 -96 14c-75 0 -116 -140 -116 -231c0 -36 15 -64 51 -64c37 0 113 72 113 72z" />
    <glyph glyph-name="e" unicode="e" horiz-adv-x="476" 
d="M288 102c68 0 166 13 166 13l-15 -99s-93 -28 -189 -28c-115 0 -169 53 -169 170c0 181 79 353 274 353c107 0 175 -42 175 -149c0 -131 -86 -167 -277 -167h-35c-2 -8 -3 -22 -3 -34c0 -40 33 -59 73 -59zM233 294h41c94 0 124 19 124 66c0 32 -18 43 -50 43
c-59 0 -98 -37 -115 -109z" />
    <glyph glyph-name="f" unicode="f" horiz-adv-x="328" 
d="M300 386l-90 -386l-63 -211h-121l140 595h-46l28 116h43l5 20c31 135 71 192 182 192c46 0 95 -23 95 -23l-24 -98s-35 7 -65 7c-34 0 -44 -38 -54 -79l-5 -19h105l-28 -114h-102z" />
    <glyph glyph-name="g" unicode="g" horiz-adv-x="484" 
d="M226 -230c-129 0 -217 37 -217 137c0 70 66 108 122 135c-16 16 -20 29 -20 53c0 45 60 96 60 96c-41 24 -68 58 -68 125c0 112 81 196 207 196c49 0 121 -18 121 -18l146 6l-25 -108h-58c2 -11 4 -30 4 -51c0 -101 -87 -184 -209 -184c-25 0 -43 5 -43 5
s-15 -20 -15 -36c0 -17 26 -22 94 -32c67 -10 142 -36 142 -126c0 -117 -90 -198 -241 -198zM273 -9c-35 6 -68 11 -85 15c-22 -12 -57 -41 -57 -68c0 -29 24 -56 92 -56c54 0 118 11 118 70c0 27 -27 32 -68 39zM296 266c47 0 79 36 79 81c0 35 -22 56 -70 56
s-79 -36 -79 -81c0 -35 22 -56 70 -56z" />
    <glyph glyph-name="h" unicode="h" horiz-adv-x="513" 
d="M189 0h-134l161 700h134l-56 -247s59 59 125 59c91 0 122 -63 122 -141c0 -35 -14 -96 -21 -126l-56 -245h-134l54 235c6 25 18 80 18 103c0 37 -5 58 -40 58c-31 0 -96 -60 -96 -60z" />
    <glyph glyph-name="i" unicode="i" horiz-adv-x="243" 
d="M55 0l115 500h134l-115 -500h-134zM181 552l32 137h135l-31 -137h-136z" />
    <glyph glyph-name="j" unicode="j" horiz-adv-x="243" 
d="M55 0l115 500h134l-115 -500c-32 -138 -42 -153 -217 -230l-42 107c104 54 111 62 125 123zM179 543l32 137h135l-31 -137h-136z" />
    <glyph glyph-name="k" unicode="k" horiz-adv-x="467" 
d="M189 0h-134l161 700h134l-90 -389l34 7l127 181h147l-174 -240l66 -259h-137l-48 207l-40 -6z" />
    <glyph glyph-name="l" unicode="l" horiz-adv-x="244" 
d="M55 0l161 700h134l-161 -700h-134z" />
    <glyph glyph-name="m" unicode="m" horiz-adv-x="776" 
d="M463 0h-134l54 235c6 25 18 80 18 103c0 37 -7 58 -41 58c-32 0 -94 -60 -94 -60l-77 -336h-134l115 500h128l-5 -48s57 60 130 60c85 0 104 -71 104 -71s79 71 156 71c91 0 120 -63 120 -141c0 -36 -12 -96 -19 -126l-56 -245h-134l56 235c6 25 18 78 18 99
c0 40 -7 62 -37 62c-37 0 -97 -58 -97 -58s-7 -60 -15 -93z" />
    <glyph glyph-name="n" unicode="n" horiz-adv-x="513" 
d="M189 0h-134l115 500h128l-6 -49s61 61 127 61c91 0 122 -63 122 -141c0 -33 -14 -96 -21 -126l-56 -245h-134l54 235c6 25 18 80 18 103c0 37 -4 58 -41 58c-32 0 -95 -60 -95 -60z" />
    <glyph glyph-name="o" unicode="o" horiz-adv-x="496" 
d="M333 511c124 0 197 -55 197 -189c0 -154 -85 -334 -253 -334c-124 0 -197 55 -197 189c0 154 93 334 253 334zM277 102c76 0 120 118 120 222c0 46 -22 73 -64 73c-76 0 -120 -118 -120 -222c0 -46 22 -73 64 -73z" />
    <glyph glyph-name="p" unicode="p" horiz-adv-x="527" 
d="M7 -210l163 710h131l-10 -52s61 64 127 64c101 0 145 -73 145 -170c0 -169 -86 -353 -252 -353c-47 0 -121 21 -121 21l-51 -220h-132zM376 398c-37 0 -113 -72 -113 -72l-48 -209s58 -14 96 -14c75 0 116 140 116 231c0 36 -15 64 -51 64z" />
    <glyph glyph-name="q" unicode="q" horiz-adv-x="526" 
d="M224 -12c-95 0 -144 66 -144 174c0 172 90 349 252 349c85 0 251 -33 251 -33l-158 -688h-134l61 263s-56 -65 -128 -65zM331 397c-70 0 -115 -132 -115 -231c0 -36 15 -64 51 -64c37 0 113 72 113 72l48 209s-59 14 -97 14z" />
    <glyph glyph-name="r" unicode="r" horiz-adv-x="334" 
d="M55 0l115 500h133l-18 -72s82 74 157 84l-39 -140c-49 -15 -141 -57 -141 -57l-73 -315h-134z" />
    <glyph glyph-name="s" unicode="s" horiz-adv-x="432" 
d="M494 480l-24 -99s-103 16 -168 16c-41 0 -62 -22 -62 -49c0 -22 17 -30 71 -47c85 -27 133 -46 133 -123c0 -130 -95 -190 -225 -190c-97 0 -173 34 -173 34l25 98s96 -18 163 -18c55 0 73 21 73 49c0 18 -20 26 -62 38c-85 24 -139 52 -139 124c0 130 100 198 208 198
c106 0 180 -31 180 -31z" />
    <glyph glyph-name="t" unicode="t" horiz-adv-x="329" 
d="M396 386h-104l-46 -200c-4 -17 -8 -42 -8 -56c0 -19 8 -28 29 -28c26 0 68 5 68 5l-11 -96s-53 -23 -112 -23c-75 0 -113 49 -113 108c0 31 7 69 15 102l44 188h-54l30 114h51l29 128h134l-29 -128h105z" />
    <glyph glyph-name="u" unicode="u" horiz-adv-x="513" 
d="M439 500h134l-115 -500h-128l6 49s-61 -61 -127 -61c-91 0 -122 63 -122 141c0 33 14 97 21 126l56 245h134l-54 -235c-6 -25 -18 -80 -18 -103c0 -37 7 -58 41 -58c32 0 95 60 95 60z" />
    <glyph glyph-name="v" unicode="v" horiz-adv-x="463" 
d="M126 500h131l-14 -389h18l171 389h135l-235 -500h-210z" />
    <glyph glyph-name="w" unicode="w" horiz-adv-x="762" 
d="M135 500h135l-32 -386h23l159 376h152l-20 -376h23l149 386h135l-204 -500h-223l19 311l-126 -311h-219z" />
    <glyph glyph-name="x" unicode="x" horiz-adv-x="430" 
d="M124 500h136l39 -153l104 153h136l-197 -260l80 -240h-136l-39 147l-102 -147h-139l196 250z" />
    <glyph glyph-name="y" unicode="y" horiz-adv-x="464" 
d="M126 500h131l-14 -389h15l174 389h135l-332 -710h-133l103 210h-83z" />
    <glyph glyph-name="z" unicode="z" horiz-adv-x="414" 
d="M122 386l29 114h345l-28 -111l-252 -275h192l-29 -114h-345l25 112l251 274h-188z" />
    <glyph glyph-name="braceleft" unicode="{" horiz-adv-x="288" 
d="M265 219c0 -38 -45 -153 -45 -189c0 -30 20 -48 58 -48l-31 -115c-96 0 -159 45 -159 125c0 41 42 158 42 198c0 30 -16 58 -67 85l24 95c88 23 98 45 109 87c7 24 29 146 29 146c34 114 100 151 233 156l-22 -115c-58 -5 -79 -33 -89 -72l-24 -126
c-19 -78 -51 -109 -119 -133c41 -23 61 -46 61 -94z" />
    <glyph glyph-name="bar" unicode="|" horiz-adv-x="335" 
d="M157 -210v910h134v-910h-134z" />
    <glyph glyph-name="braceright" unicode="}" horiz-adv-x="287" 
d="M166 404c0 38 45 153 45 189c0 30 -20 48 -58 48l31 115c96 0 159 -45 159 -125c0 -41 -42 -158 -42 -198c0 -30 16 -58 67 -85l-24 -95c-88 -23 -98 -45 -109 -87c-7 -24 -29 -146 -29 -146c-34 -114 -100 -151 -233 -156l22 115c58 5 79 33 89 72l24 126
c19 78 51 109 119 133c-41 23 -61 46 -61 94z" />
    <glyph glyph-name="asciitilde" unicode="~" 
d="M548 328l8 -107s-53 -51 -113 -51c-54 0 -166 44 -204 44c-48 0 -109 -39 -109 -39l-10 107s63 52 123 52c54 0 155 -44 203 -44c39 0 102 38 102 38z" />
    <glyph glyph-name="exclamdown" unicode="&#xa1;" horiz-adv-x="161" 
d="M201 242l-95 -442h-143l112 442h126zM264 500l-35 -153h-136l35 153h136z" />
    <glyph glyph-name="cent" unicode="&#xa2;" 
d="M251 -74l23 103c-123 8 -143 120 -119 221c35 141 118 211 224 218l23 102h108l-26 -105c37 -4 70 -10 70 -10l-34 -112s-71 3 -107 3c-80 0 -112 -26 -130 -96c-16 -67 -1 -97 87 -97c35 0 108 4 108 4l-21 -112s-37 -6 -75 -9l-25 -110h-106z" />
    <glyph glyph-name="sterling" unicode="&#xa3;" 
d="M624 654l-31 -101s-63 8 -103 8c-51 0 -62 -38 -77 -98l-5 -20h157l-27 -114h-156l-50 -215h92l68 18l-3 -115l-74 -17h-340l26 114h95l49 215h-80l27 114h79l9 36c36 144 84 200 201 200c50 0 143 -25 143 -25z" />
    <glyph glyph-name="currency" unicode="&#xa4;" 
d="M497 2l-73 73c-54 -26 -117 -26 -170 0l-73 -73l-92 92l73 73c-26 53 -26 116 0 170l-73 73l92 92l73 -73c53 25 116 25 170 0l73 73l92 -92l-73 -73c25 -54 25 -117 0 -170l73 -73zM286 199c29 -29 77 -29 106 0s29 77 0 106s-77 29 -106 0s-29 -77 0 -106z" />
    <glyph glyph-name="yen" unicode="&#xa5;" 
d="M139 276l26 118h70l-108 266h149l98 -231l178 231h178l-214 -266h71l-28 -118h-132l-9 -11l-6 -22h140l-27 -118h-140l-29 -125h-137l30 125h-146l28 118h145l5 22l-3 11h-139z" />
    <glyph glyph-name="brokenbar" unicode="&#xa6;" horiz-adv-x="335" 
d="M157 700h134v-372h-134v372zM157 170h134v-380h-134v380z" />
    <glyph glyph-name="section" unicode="&#xa7;" horiz-adv-x="487" 
d="M568 613l-30 -111s-104 16 -148 16c-69 0 -107 -24 -107 -63c0 -41 59 -49 113 -62c100 -24 116 -87 116 -127c0 -64 -52 -123 -87 -163c15 -24 17 -40 17 -57c0 -61 -25 -234 -256 -234c-66 0 -170 22 -170 22l38 111s99 -14 150 -14c64 0 107 23 107 60
c0 40 -24 37 -116 66c-86 27 -117 65 -117 125c0 84 61 138 96 164c-20 18 -20 63 -20 82c0 80 81 209 255 209c66 0 159 -24 159 -24zM310 283c-24 6 -54 14 -61 18c-10 -12 -34 -57 -34 -85c0 -21 20 -26 46 -36c31 -12 56 -20 76 -29c14 14 36 59 36 85
c0 24 -19 35 -63 47z" />
    <glyph glyph-name="dieresis" unicode="&#xa8;" horiz-adv-x="514" 
d="M215 601l31 135h111l-32 -135h-110zM409 601l31 135h111l-32 -135h-110z" />
    <glyph glyph-name="copyright" unicode="&#xa9;" horiz-adv-x="641" 
d="M145 434c0 164 116 284 276 284c168 0 275 -130 275 -284c0 -161 -107 -284 -277 -284c-157 0 -274 124 -274 284zM207 434c0 -122 90 -224 212 -224c125 0 215 101 215 224c0 122 -92 224 -214 224s-213 -102 -213 -224zM506 369l7 -82s-28 -18 -84 -18
c-88 0 -128 34 -128 170c0 122 40 159 132 159c48 0 80 -15 80 -15l-7 -86s-35 6 -67 6c-26 0 -35 -15 -35 -64c0 -53 10 -75 35 -75c32 0 67 5 67 5z" />
    <glyph glyph-name="ordfeminine" unicode="&#xaa;" horiz-adv-x="329" 
d="M434 544l-32 -141c3 -3 11 -7 16 -8l-21 -82c-99 0 -110 12 -119 33c0 0 -50 -32 -97 -32c-69 0 -97 43 -81 110c15 66 56 97 148 101l64 3l6 22c1 10 -10 15 -39 15c-44 0 -133 -7 -133 -7l14 75s77 26 148 26c94 0 147 -21 126 -115zM296 458l-44 -3
c-22 -2 -35 -9 -39 -27c-3 -19 5 -26 26 -26c20 0 49 16 49 16z" />
    <glyph glyph-name="guillemotleft" unicode="&#xab;" horiz-adv-x="482" 
d="M576 436l-37 -131l-113 -65l80 -77l-33 -120l-170 169l23 61zM326 436l-37 -131l-113 -65l80 -77l-33 -120l-170 169l23 61z" />
    <glyph glyph-name="logicalnot" unicode="&#xac;" 
d="M113 358h436v-254h-120v134h-316v120z" />
    <glyph glyph-name="registered" unicode="&#xae;" horiz-adv-x="641" 
d="M145 434c0 164 116 284 275 284c169 0 276 -130 276 -284c0 -161 -107 -284 -276 -284c-158 0 -275 124 -275 284zM207 434c0 -122 94 -224 213 -224c124 0 214 101 214 224c0 122 -92 224 -214 224c-121 0 -213 -102 -213 -224zM453 276l-28 93h-29v-93h-96v315h136
c65 0 114 -29 114 -105c0 -52 -9 -76 -38 -100l41 -110h-100zM395 519v-79h28c22 0 34 16 34 39c0 24 -11 40 -35 40h-27z" />
    <glyph glyph-name="macron" unicode="&#xaf;" horiz-adv-x="462" 
d="M217 627l25 109h309l-26 -109h-308z" />
    <glyph glyph-name="degree" unicode="&#xb0;" 
d="M255 542c0 89 61 150 150 150s150 -61 150 -150s-61 -149 -150 -149s-150 60 -150 149zM330 542c0 -45 30 -76 75 -76s77 31 77 76s-32 77 -77 77s-75 -32 -75 -77z" />
    <glyph glyph-name="plusminus" unicode="&#xb1;" 
d="M99 270v120h169v108h120v-108h171v-120h-171v-100h-120v100h-169zM99 139h460v-120h-460v120z" />
    <glyph glyph-name="twosuperior" unicode="&#xb2;" horiz-adv-x="280" 
d="M364 478h-231l22 90l88 59c41 27 56 42 60 57c3 12 -8 15 -33 15c-22 0 -78 -6 -78 -6l21 99s75 9 120 9c83 0 104 -29 86 -100c-11 -45 -33 -71 -81 -100l-45 -28h94z" />
    <glyph glyph-name="threesuperior" unicode="&#xb3;" horiz-adv-x="280" 
d="M211 792c0 0 70 9 110 9c80 0 114 -28 99 -89c-8 -34 -25 -59 -46 -70c20 -10 27 -30 16 -73c-17 -69 -70 -102 -143 -102c-49 0 -119 8 -119 8l29 93s60 -6 93 -6c21 0 30 4 33 16s-5 14 -23 14h-66l21 85h64c13 0 21 4 24 14c3 12 -7 15 -23 15c-37 0 -86 -5 -86 -5z
" />
    <glyph glyph-name="acute" unicode="&#xb4;" horiz-adv-x="559" 
d="M254 576l-10 107l264 91l10 -120z" />
    <glyph glyph-name="mu" unicode="&#xb5;" 
d="M27 -210l101 442l3 10c0 3 1 6 2 9l9 39l48 210h134l-49 -210h1l-15 -66c-5 -24 -9 -49 -9 -62c0 -37 7 -58 41 -58c32 0 95 60 95 60l77 336h134l-115 -500h-128l6 49s-61 -61 -127 -61c-10 0 -20 1 -28 3l-46 -201h-134z" />
    <glyph glyph-name="paragraph" unicode="&#xb6;" horiz-adv-x="565" 
d="M372 0l141 594h-57l-142 -594h-108l73 306c-106 2 -139 74 -139 154c0 119 90 240 227 240h313l-25 -106h-34l-142 -594h-107z" />
    <glyph glyph-name="periodcentered" unicode="&#xb7;" horiz-adv-x="151" 
d="M56 207l38 169h135l-38 -169h-135z" />
    <glyph glyph-name="cedilla" unicode="&#xb8;" horiz-adv-x="791" 
d="M505 -124c-16 -68 -60 -105 -129 -105c-41 0 -84 11 -84 11l20 81s30 -1 46 -1c26 0 38 8 42 24c5 18 -9 20 -31 20h-22l22 99h52l-11 -38h6c61 0 106 -18 89 -91z" />
    <glyph glyph-name="onesuperior" unicode="&#xb9;" horiz-adv-x="280" 
d="M189 715l124 75h96l-77 -312h-106l48 195l-55 -32z" />
    <glyph glyph-name="ordmasculine" unicode="&#xba;" horiz-adv-x="343" 
d="M321 660c56 0 124 -19 136 -69c8 -34 4 -68 -3 -97c-33 -137 -96 -180 -215 -180c-86 0 -136 48 -131 126c1 17 4 35 9 55c30 122 96 165 204 165zM263 410c38 0 58 18 76 82c3 12 5 23 5 36c0 28 -14 40 -43 40c-37 0 -56 -18 -69 -70c-5 -19 -8 -34 -8 -49
c0 -27 9 -39 39 -39z" />
    <glyph glyph-name="guillemotright" unicode="&#xbb;" horiz-adv-x="474" 
d="M259 43l37 131l113 65l-80 77l33 120l170 -169l-23 -61zM19 43l37 131l113 65l-80 77l33 120l170 -169l-23 -61z" />
    <glyph glyph-name="onequarter" unicode="&#xbc;" horiz-adv-x="634" 
d="M158 715l124 75h96l-77 -312h-106l48 195l-55 -32zM228 -24l-126 44l431 698l126 -44zM516 0l8 35h-135l22 88l89 189h118l-97 -182h27l37 90h91l-23 -90h11l-24 -95h-11l-8 -35h-105z" />
    <glyph glyph-name="onehalf" unicode="&#xbd;" horiz-adv-x="647" 
d="M158 715l124 75h96l-77 -312h-106l48 195l-55 -32zM228 -24l-126 44l431 698l126 -44zM642 0h-231l22 90l88 59c41 27 56 42 60 57c3 12 -8 15 -33 15c-22 0 -78 -6 -78 -6l21 99s75 9 120 9c83 0 104 -29 86 -100c-11 -45 -33 -71 -81 -100l-45 -28h94z" />
    <glyph glyph-name="threequarters" unicode="&#xbe;" horiz-adv-x="631" 
d="M191 792c0 0 70 9 110 9c80 0 114 -28 99 -89c-8 -34 -25 -59 -46 -70c20 -10 27 -30 16 -73c-17 -69 -70 -102 -143 -102c-49 0 -119 8 -119 8l29 93s60 -6 93 -6c21 0 30 4 33 16s-5 14 -23 14h-66l21 85h64c13 0 21 4 24 14c3 12 -7 15 -23 15c-37 0 -86 -5 -86 -5z
M225 -24l-126 44l431 698l126 -44zM513 0l8 35h-135l22 88l89 189h118l-97 -182h27l37 90h91l-23 -90h11l-24 -95h-11l-8 -35h-105z" />
    <glyph glyph-name="questiondown" unicode="&#xbf;" horiz-adv-x="432" 
d="M26 -36c0 95 41 139 151 215c36 25 57 51 62 73l9 40h126s0 -49 -8 -90c-6 -34 -38 -70 -94 -110c-71 -50 -104 -77 -104 -114c0 -45 28 -50 73 -50c70 0 143 12 143 12l-14 -105s-90 -27 -160 -27c-113 0 -184 44 -184 156zM428 500l-38 -168h-136l38 168h136z" />
    <glyph glyph-name="Agrave" unicode="&#xc0;" horiz-adv-x="551" 
d="M383 950l222 -91l-61 -105l-227 77zM13 0l306 680h238l-21 -680h-138l4 118h-198l-53 -118h-138zM400 560l-144 -322h151l14 322h-21z" />
    <glyph glyph-name="Aacute" unicode="&#xc1;" horiz-adv-x="551" 
d="M354 765l-10 106l264 91l10 -120zM13 0l306 680h238l-21 -680h-138l4 118h-198l-53 -118h-138zM400 560l-144 -322h151l14 322h-21z" />
    <glyph glyph-name="Acircumflex" unicode="&#xc2;" horiz-adv-x="551" 
d="M273 779l176 152h80l96 -152h-122l-26 55l-62 -55h-142zM13 0l306 680h238l-21 -680h-138l4 118h-198l-53 -118h-138zM400 560l-144 -322h151l14 322h-21z" />
    <glyph glyph-name="Atilde" unicode="&#xc3;" horiz-adv-x="551" 
d="M631 936l2 -94s-64 -63 -114 -63s-113 43 -150 43c-25 0 -84 -39 -84 -39l-4 93s68 64 116 64c60 0 122 -42 147 -42s87 38 87 38zM13 0l306 680h238l-21 -680h-138l4 118h-198l-53 -118h-138zM400 560l-144 -322h151l14 322h-21z" />
    <glyph glyph-name="Adieresis" unicode="&#xc4;" horiz-adv-x="551" 
d="M308 788l31 135h111l-32 -135h-110zM507 788l31 135h111l-33 -135h-109zM13 0l306 680h238l-21 -680h-138l4 118h-198l-53 -118h-138zM400 560l-144 -322h151l14 322h-21z" />
    <glyph glyph-name="Aring" unicode="&#xc5;" horiz-adv-x="551" 
d="M13 0l300 666c-3 15 -2 31 3 51c20 81 84 117 160 117c71 0 122 -34 102 -117c-5 -19 -12 -36 -22 -50l-20 -667h-138l4 118h-198l-53 -118h-138zM400 560l-144 -322h151l14 322h-21zM402 717c-4 -19 11 -31 37 -31c27 0 48 12 52 31c6 25 -21 31 -37 31
c-27 0 -47 -12 -52 -31z" />
    <glyph glyph-name="AE" unicode="&#xc6;" horiz-adv-x="754" 
d="M313 0l28 119h-143l-53 -119h-131l308 690h559l-30 -131l-276 2l-38 -159h220l-29 -125h-221l-35 -147h276l-29 -130h-406zM393 560l-137 -313h116l73 313h-52z" />
    <glyph glyph-name="Ccedilla" unicode="&#xc7;" horiz-adv-x="494" 
d="M484 121l-11 -107s-93 -26 -169 -26h-10l-6 -21h6c61 0 106 -18 89 -91c-16 -68 -60 -105 -129 -105c-41 0 -84 11 -84 11l20 81s30 -1 46 -1c26 0 38 8 42 24c5 18 -9 20 -31 20h-22l19 87c-98 18 -145 85 -145 192c0 211 91 507 350 507c82 0 171 -30 171 -30l-32 -102
s-62 12 -144 12c-129 0 -203 -187 -203 -377c0 -55 24 -87 81 -87c78 0 162 13 162 13z" />
    <glyph glyph-name="Egrave" unicode="&#xc8;" horiz-adv-x="497" 
d="M336 950l222 -91l-61 -105l-227 77zM65 0l156 680h399l-28 -120h-260l-37 -160h206l-28 -120h-205l-37 -160h261l-27 -120h-400z" />
    <glyph glyph-name="Eacute" unicode="&#xc9;" horiz-adv-x="497" 
d="M349 765l-10 106l264 91l10 -120zM65 0l156 680h399l-28 -120h-260l-37 -160h206l-28 -120h-205l-37 -160h261l-27 -120h-400z" />
    <glyph glyph-name="Ecircumflex" unicode="&#xca;" horiz-adv-x="497" 
d="M260 782l176 152h80l96 -152h-122l-26 55l-62 -55h-142zM65 0l156 680h399l-28 -120h-260l-37 -160h206l-28 -120h-205l-37 -160h261l-27 -120h-400z" />
    <glyph glyph-name="Edieresis" unicode="&#xcb;" horiz-adv-x="497" 
d="M287 788l31 135h111l-32 -135h-110zM486 788l31 135h111l-33 -135h-109zM65 0l156 680h399l-28 -120h-260l-37 -160h206l-28 -120h-205l-37 -160h261l-27 -120h-400z" />
    <glyph glyph-name="Igrave" unicode="&#xcc;" horiz-adv-x="268" 
d="M210 950l222 -91l-61 -105l-227 77zM65 0l157 680h138l-157 -680h-138z" />
    <glyph glyph-name="Iacute" unicode="&#xcd;" horiz-adv-x="268" 
d="M229 765l-10 106l264 91l10 -120zM65 0l157 680h138l-157 -680h-138z" />
    <glyph glyph-name="Icircumflex" unicode="&#xce;" horiz-adv-x="268" 
d="M132 782l176 152h80l96 -152h-122l-26 55l-62 -55h-142zM65 0l157 680h138l-157 -680h-138z" />
    <glyph glyph-name="Idieresis" unicode="&#xcf;" horiz-adv-x="268" 
d="M158 800l31 135h111l-32 -135h-110zM357 800l31 135h111l-33 -135h-109zM65 0l157 680h138l-157 -680h-138z" />
    <glyph glyph-name="Eth" unicode="&#xd0;" horiz-adv-x="613" 
d="M317 0h-244l63 275h-53l29 136h56l62 269h214c118 0 224 -44 224 -207c0 -226 -107 -473 -351 -473zM526 473c0 68 -42 87 -110 87h-76l-34 -149h109l-30 -136h-111l-35 -155h90c144 0 197 229 197 353z" />
    <glyph glyph-name="Ntilde" unicode="&#xd1;" horiz-adv-x="651" 
d="M675 935l2 -94s-64 -63 -114 -63s-113 43 -150 43c-25 0 -84 -39 -84 -39l-4 93s68 64 116 64c60 0 122 -42 147 -42s87 38 87 38zM65 0l157 680h219l36 -533h12l121 533h133l-157 -680h-208l-44 543h-12l-127 -543h-130z" />
    <glyph glyph-name="Ograve" unicode="&#xd2;" horiz-adv-x="615" 
d="M396 950l222 -91l-61 -105l-227 77zM339 108c31 0 61 11 84 34c66 66 104 214 104 328c0 73 -24 102 -95 102c-30 0 -59 -8 -81 -30c-71 -70 -108 -232 -108 -332c0 -73 24 -102 96 -102zM315 -12c-132 0 -214 64 -214 208c0 166 50 337 156 429c51 44 116 67 191 67
c135 0 221 -61 221 -208c0 -172 -50 -349 -164 -438c-49 -38 -119 -58 -190 -58z" />
    <glyph glyph-name="Oacute" unicode="&#xd3;" horiz-adv-x="615" 
d="M339 108c31 0 61 11 84 34c66 66 104 214 104 328c0 73 -24 102 -95 102c-30 0 -59 -8 -81 -30c-71 -70 -108 -232 -108 -332c0 -73 24 -102 96 -102zM315 -12c-132 0 -214 64 -214 208c0 166 50 337 156 429c51 44 116 67 191 67c135 0 221 -61 221 -208
c0 -172 -50 -349 -164 -438c-49 -38 -119 -58 -190 -58zM388 765l-10 106l264 91l10 -120z" />
    <glyph glyph-name="Ocircumflex" unicode="&#xd4;" horiz-adv-x="615" 
d="M339 108c31 0 61 11 84 34c66 66 104 214 104 328c0 73 -24 102 -95 102c-30 0 -59 -8 -81 -30c-71 -70 -108 -232 -108 -332c0 -73 24 -102 96 -102zM315 -12c-132 0 -214 64 -214 208c0 166 50 337 156 429c51 44 116 67 191 67c135 0 221 -61 221 -208
c0 -172 -50 -349 -164 -438c-49 -38 -119 -58 -190 -58zM309 779l176 152h80l96 -152h-122l-26 55l-62 -55h-142z" />
    <glyph glyph-name="Otilde" unicode="&#xd5;" horiz-adv-x="615" 
d="M678 935l2 -94s-64 -63 -114 -63s-113 43 -150 43c-25 0 -84 -39 -84 -39l-4 93s68 64 116 64c60 0 122 -42 147 -42s87 38 87 38zM339 108c31 0 61 11 84 34c66 66 104 214 104 328c0 73 -24 102 -95 102c-30 0 -59 -8 -81 -30c-71 -70 -108 -232 -108 -332
c0 -73 24 -102 96 -102zM315 -12c-132 0 -214 64 -214 208c0 166 50 337 156 429c51 44 116 67 191 67c135 0 221 -61 221 -208c0 -172 -50 -349 -164 -438c-49 -38 -119 -58 -190 -58z" />
    <glyph glyph-name="Odieresis" unicode="&#xd6;" horiz-adv-x="615" 
d="M321 781l31 135h121l-32 -135h-120zM525 781l31 135h121l-32 -135h-120zM339 108c31 0 61 11 84 34c66 66 104 214 104 328c0 73 -24 102 -95 102c-30 0 -59 -8 -81 -30c-71 -70 -108 -232 -108 -332c0 -73 24 -102 96 -102zM315 -12c-132 0 -214 64 -214 208
c0 166 50 337 156 429c51 44 116 67 191 67c135 0 221 -61 221 -208c0 -172 -50 -349 -164 -438c-49 -38 -119 -58 -190 -58z" />
    <glyph glyph-name="multiply" unicode="&#xd7;" 
d="M200 473l138 -141l140 143l84 -85l-143 -140l143 -139l-85 -85l-139 142l-139 -141l-85 84l142 139l-141 138z" />
    <glyph glyph-name="Oslash" unicode="&#xd8;" horiz-adv-x="615" 
d="M119 -121l-66 40l91 134c-28 34 -43 81 -43 143c0 166 50 337 156 429c51 44 116 67 191 67c44 0 83 -6 115 -20l91 133l74 -31l-102 -150c27 -33 43 -79 43 -140c0 -172 -50 -349 -164 -438c-49 -38 -119 -58 -190 -58c-42 0 -78 7 -109 19zM339 108c31 0 61 11 84 34
c66 66 104 214 104 328v8l-104 -153l-141 -207c14 -7 33 -10 57 -10zM243 200l110 163l135 199c-14 7 -32 10 -56 10c-30 0 -59 -8 -81 -30c-71 -70 -108 -232 -108 -332v-10z" />
    <glyph glyph-name="Ugrave" unicode="&#xd9;" horiz-adv-x="595" 
d="M389 950l222 -91l-61 -105l-227 77zM353 680l-104 -449c-5 -21 -9 -42 -9 -66c0 -47 32 -57 82 -57c87 0 110 39 129 123l104 449h138l-104 -449c-39 -170 -119 -243 -279 -243c-124 0 -207 48 -207 154c0 36 6 79 13 111l99 427h138z" />
    <glyph glyph-name="Uacute" unicode="&#xda;" horiz-adv-x="595" 
d="M353 680l-104 -449c-5 -21 -9 -42 -9 -66c0 -47 32 -57 82 -57c87 0 110 39 129 123l104 449h138l-104 -449c-39 -170 -119 -243 -279 -243c-124 0 -207 48 -207 154c0 36 6 79 13 111l99 427h138zM361 765l-10 106l264 91l10 -120z" />
    <glyph glyph-name="Ucircumflex" unicode="&#xdb;" horiz-adv-x="595" 
d="M353 680l-104 -449c-5 -21 -9 -42 -9 -66c0 -47 32 -57 82 -57c87 0 110 39 129 123l104 449h138l-104 -449c-39 -170 -119 -243 -279 -243c-124 0 -207 48 -207 154c0 36 6 79 13 111l99 427h138zM295 779l176 152h80l96 -152h-122l-26 55l-62 -55h-142z" />
    <glyph glyph-name="Udieresis" unicode="&#xdc;" horiz-adv-x="595" 
d="M305 781l31 135h121l-32 -135h-120zM509 781l31 135h121l-32 -135h-120zM353 680l-104 -449c-5 -21 -9 -42 -9 -66c0 -47 32 -57 82 -57c87 0 110 39 129 123l104 449h138l-104 -449c-39 -170 -119 -243 -279 -243c-124 0 -207 48 -207 154c0 36 6 79 13 111l99 427h138z
" />
    <glyph glyph-name="Yacute" unicode="&#xdd;" horiz-adv-x="504" 
d="M345 765l-10 106l264 91l10 -120zM661 680l-280 -392l-68 -288h-128l68 294l-95 386h140l48 -265l169 265h146z" />
    <glyph glyph-name="Thorn" unicode="&#xde;" horiz-adv-x="538" 
d="M343 236c65 0 106 41 124 112c14 56 -1 107 -70 109l-96 2l-53 -223h95zM312 99l-96 1l-23 -100h-130l163 690h131l-25 -97h96c136 0 200 -110 171 -245c-34 -155 -141 -251 -287 -249z" />
    <glyph glyph-name="germandbls" unicode="&#xdf;" horiz-adv-x="564" 
d="M180 0h-126l123 520c36 150 111 192 247 192c130 0 198 -53 198 -145c0 -65 -19 -112 -91 -140c-66 -26 -90 -38 -90 -65c0 -21 12 -30 66 -65c51 -33 76 -50 76 -117c0 -118 -78 -192 -206 -192c-74 0 -161 28 -161 28l29 98s70 -12 116 -12c62 0 86 30 86 59
c0 24 -8 31 -60 62c-62 37 -82 62 -82 114c0 82 39 118 106 149c64 30 75 39 75 67c0 26 -24 45 -76 45c-63 0 -96 -27 -112 -96z" />
    <glyph glyph-name="agrave" unicode="&#xe0;" horiz-adv-x="528" 
d="M221 -12c-102 0 -141 78 -141 182c0 136 72 342 254 342c73 0 250 -33 250 -33l-75 -323c-14 -62 -27 -153 -27 -153l-133 -5s9 61 13 78c0 0 -64 -88 -141 -88zM338 398c-81 0 -122 -137 -122 -228c0 -43 10 -68 51 -68s117 89 117 89l46 193s-66 14 -92 14zM352 772
l221 -90l-56 -99l-229 79z" />
    <glyph glyph-name="aacute" unicode="&#xe1;" horiz-adv-x="528" 
d="M221 -12c-102 0 -141 78 -141 182c0 136 72 342 254 342c73 0 250 -33 250 -33l-75 -323c-14 -62 -27 -153 -27 -153l-133 -5s9 61 13 78c0 0 -64 -88 -141 -88zM338 398c-81 0 -122 -137 -122 -228c0 -43 10 -68 51 -68s117 89 117 89l46 193s-66 14 -92 14zM336 576
l-10 107l264 91l10 -120z" />
    <glyph glyph-name="acircumflex" unicode="&#xe2;" horiz-adv-x="528" 
d="M212 575l168 175h100l86 -175h-132l-24 64l-58 -64h-140zM221 -12c-102 0 -141 78 -141 182c0 136 72 342 254 342c73 0 250 -33 250 -33l-75 -323c-14 -62 -27 -153 -27 -153l-133 -5s9 61 13 78c0 0 -64 -88 -141 -88zM338 398c-81 0 -122 -137 -122 -228
c0 -43 10 -68 51 -68s117 89 117 89l46 193s-66 14 -92 14z" />
    <glyph glyph-name="atilde" unicode="&#xe3;" horiz-adv-x="528" 
d="M221 -12c-102 0 -141 78 -141 182c0 136 72 342 254 342c73 0 250 -33 250 -33l-75 -323c-14 -62 -27 -153 -27 -153l-133 -5s9 61 13 78c0 0 -64 -88 -141 -88zM338 398c-81 0 -122 -137 -122 -228c0 -43 10 -68 51 -68s117 89 117 89l46 193s-66 14 -92 14zM606 747
l4 -93s-67 -64 -116 -64c-48 0 -99 44 -130 44c-27 0 -86 -40 -86 -40l-3 92s67 65 115 65c55 0 105 -43 130 -43c24 0 86 39 86 39z" />
    <glyph glyph-name="adieresis" unicode="&#xe4;" horiz-adv-x="528" 
d="M242 601l31 135h121l-32 -135h-120zM446 601l31 135h121l-32 -135h-120zM221 -12c-102 0 -141 78 -141 182c0 136 72 342 254 342c73 0 250 -33 250 -33l-75 -323c-14 -62 -27 -153 -27 -153l-133 -5s9 61 13 78c0 0 -64 -88 -141 -88zM338 398
c-81 0 -122 -137 -122 -228c0 -43 10 -68 51 -68s117 89 117 89l46 193s-66 14 -92 14z" />
    <glyph glyph-name="aring" unicode="&#xe5;" horiz-adv-x="528" 
d="M221 -12c-102 0 -141 78 -141 182c0 136 72 342 254 342c73 0 250 -33 250 -33l-75 -323c-14 -62 -27 -153 -27 -153l-133 -5s9 61 13 78c0 0 -64 -88 -141 -88zM338 398c-81 0 -122 -137 -122 -228c0 -43 10 -68 51 -68s117 89 117 89l46 193s-66 14 -92 14zM331 656
c15 61 64 107 128 107c66 0 87 -48 73 -108c-16 -68 -67 -108 -129 -108c-65 0 -88 48 -72 109zM403 656c-5 -15 5 -30 22 -30s31 13 36 29c5 17 -8 28 -22 28c-17 0 -31 -11 -36 -27z" />
    <glyph glyph-name="ae" unicode="&#xe6;" horiz-adv-x="714" 
d="M521 109c69 0 172 9 172 9l-23 -102s-91 -28 -187 -28c-63 0 -113 15 -139 49c-30 -16 -128 -49 -176 -49c-86 0 -131 84 -111 165c22 96 82 136 153 149c45 8 92 11 139 10c9 25 13 74 -25 74c-70 0 -182 -14 -182 -14l21 117s127 22 196 22c50 0 92 -11 114 -41
c37 27 82 41 133 41c100 0 149 -51 154 -133c2 -32 -4 -69 -13 -101l-23 -85l-269 2c-3 -14 -4 -29 -2 -41c5 -26 24 -44 68 -44zM215 103c26 0 68 5 101 13c-4 30 1 63 10 96c-18 0 -52 -2 -79 -4c-29 -2 -55 -21 -62 -51c-5 -22 1 -54 30 -54zM478 296l150 -2
c6 24 8 47 5 64c-5 23 -22 38 -57 38c-60 0 -83 -41 -98 -100z" />
    <glyph glyph-name="ccedilla" unicode="&#xe7;" horiz-adv-x="410" 
d="M344 512c70 0 149 -31 149 -31l-34 -98s-77 13 -121 13c-82 0 -119 -111 -119 -205c0 -56 21 -87 76 -87c43 0 107 8 107 8l-11 -99s-63 -22 -129 -25l-6 -21h6c61 0 106 -18 89 -91c-16 -68 -60 -105 -129 -105c-41 0 -84 11 -84 11l20 81s30 -1 46 -1c26 0 38 8 42 24
c5 18 -9 20 -31 20h-22l19 85c-78 13 -129 73 -129 171c0 194 86 350 261 350z" />
    <glyph glyph-name="egrave" unicode="&#xe8;" horiz-adv-x="476" 
d="M288 102c68 0 166 13 166 13l-15 -99s-93 -28 -189 -28c-115 0 -169 53 -169 170c0 181 79 353 274 353c107 0 175 -42 175 -149c0 -131 -86 -167 -277 -167h-35c-2 -8 -3 -22 -3 -34c0 -40 33 -59 73 -59zM233 294h41c94 0 124 19 124 66c0 32 -18 43 -50 43
c-59 0 -98 -37 -115 -109zM261 772l221 -90l-56 -99l-229 79z" />
    <glyph glyph-name="eacute" unicode="&#xe9;" horiz-adv-x="476" 
d="M288 102c68 0 166 13 166 13l-15 -99s-93 -28 -189 -28c-115 0 -169 53 -169 170c0 181 79 353 274 353c107 0 175 -42 175 -149c0 -131 -86 -167 -277 -167h-35c-2 -8 -3 -22 -3 -34c0 -40 33 -59 73 -59zM233 294h41c94 0 124 19 124 66c0 32 -18 43 -50 43
c-59 0 -98 -37 -115 -109zM282 576l-10 107l264 91l10 -120z" />
    <glyph glyph-name="ecircumflex" unicode="&#xea;" horiz-adv-x="476" 
d="M185 575l168 175h100l86 -175h-132l-24 64l-58 -64h-140zM288 102c68 0 166 13 166 13l-15 -99s-93 -28 -189 -28c-115 0 -169 53 -169 170c0 181 79 353 274 353c107 0 175 -42 175 -149c0 -131 -86 -167 -277 -167h-35c-2 -8 -3 -22 -3 -34c0 -40 33 -59 73 -59z
M233 294h41c94 0 124 19 124 66c0 32 -18 43 -50 43c-59 0 -98 -37 -115 -109z" />
    <glyph glyph-name="edieresis" unicode="&#xeb;" horiz-adv-x="476" 
d="M211 601l31 135h121l-32 -135h-120zM415 601l31 135h121l-32 -135h-120zM288 102c68 0 166 13 166 13l-15 -99s-93 -28 -189 -28c-115 0 -169 53 -169 170c0 181 79 353 274 353c107 0 175 -42 175 -149c0 -131 -86 -167 -277 -167h-35c-2 -8 -3 -22 -3 -34
c0 -40 33 -59 73 -59zM233 294h41c94 0 124 19 124 66c0 32 -18 43 -50 43c-59 0 -98 -37 -115 -109z" />
    <glyph glyph-name="igrave" unicode="&#xec;" horiz-adv-x="243" 
d="M55 0l115 500h134l-115 -500h-134zM135 772l221 -90l-56 -99l-229 79z" />
    <glyph glyph-name="iacute" unicode="&#xed;" horiz-adv-x="243" 
d="M55 0l115 500h134l-115 -500h-134zM182 576l-10 107l264 91l10 -120z" />
    <glyph glyph-name="icircumflex" unicode="&#xee;" horiz-adv-x="243" 
d="M69 575l168 175h100l86 -175h-132l-24 64l-58 -64h-140zM55 0l115 500h134l-115 -500h-134z" />
    <glyph glyph-name="idieresis" unicode="&#xef;" horiz-adv-x="243" 
d="M89 601l31 135h121l-32 -135h-120zM293 601l31 135h121l-32 -135h-120zM55 0l115 500h134l-115 -500h-134z" />
    <glyph glyph-name="eth" unicode="&#xf0;" horiz-adv-x="527" 
d="M381 544l-107 -74l-46 72l45 31l-64 9l44 116c64 -3 118 -11 164 -26l98 67l43 -72l-54 -38c78 -57 102 -150 71 -276c-59 -241 -142 -362 -326 -362c-144 0 -200 111 -168 230c33 124 125 217 258 217c65 0 114 -22 114 -22c12 68 -22 106 -72 128zM320 318
c-49 0 -87 -41 -102 -96c-17 -62 -10 -104 61 -104c67 0 117 55 148 178c-2 1 -42 22 -107 22z" />
    <glyph glyph-name="ntilde" unicode="&#xf1;" horiz-adv-x="513" 
d="M55 0h134l77 336s63 60 95 60c37 0 41 -21 41 -58c0 -23 -12 -78 -18 -103l-54 -235h134l56 245c7 30 21 93 21 126c0 78 -31 141 -122 141c-66 0 -127 -61 -127 -61l6 49h-128zM578 747l4 -93s-67 -64 -116 -64c-48 0 -99 44 -130 44c-27 0 -86 -40 -86 -40l-3 92
s67 65 115 65c55 0 105 -43 130 -43c24 0 86 39 86 39z" />
    <glyph glyph-name="ograve" unicode="&#xf2;" horiz-adv-x="496" 
d="M333 511c124 0 197 -55 197 -189c0 -154 -85 -334 -253 -334c-124 0 -197 55 -197 189c0 154 93 334 253 334zM277 102c76 0 120 118 120 222c0 46 -22 73 -64 73c-76 0 -120 -118 -120 -222c0 -46 22 -73 64 -73zM291 772l221 -90l-56 -99l-229 79z" />
    <glyph glyph-name="oacute" unicode="&#xf3;" horiz-adv-x="496" 
d="M333 511c124 0 197 -55 197 -189c0 -154 -85 -334 -253 -334c-124 0 -197 55 -197 189c0 154 93 334 253 334zM277 102c76 0 120 118 120 222c0 46 -22 73 -64 73c-76 0 -120 -118 -120 -222c0 -46 22 -73 64 -73zM283 576l-10 107l264 91l10 -120z" />
    <glyph glyph-name="ocircumflex" unicode="&#xf4;" horiz-adv-x="496" 
d="M200 575l168 175h100l86 -175h-132l-24 64l-58 -64h-140zM333 511c124 0 197 -55 197 -189c0 -154 -85 -334 -253 -334c-124 0 -197 55 -197 189c0 154 93 334 253 334zM277 102c76 0 120 118 120 222c0 46 -22 73 -64 73c-76 0 -120 -118 -120 -222c0 -46 22 -73 64 -73
z" />
    <glyph glyph-name="otilde" unicode="&#xf5;" horiz-adv-x="496" 
d="M333 511c124 0 197 -55 197 -189c0 -154 -85 -334 -253 -334c-124 0 -197 55 -197 189c0 154 93 334 253 334zM277 102c76 0 120 118 120 222c0 46 -22 73 -64 73c-76 0 -120 -118 -120 -222c0 -46 22 -73 64 -73zM553 747l4 -93s-67 -64 -116 -64c-48 0 -99 44 -130 44
c-27 0 -86 -40 -86 -40l-3 92s67 65 115 65c55 0 105 -43 130 -43c24 0 86 39 86 39z" />
    <glyph glyph-name="odieresis" unicode="&#xf6;" horiz-adv-x="496" 
d="M333 511c124 0 197 -55 197 -189c0 -154 -85 -334 -253 -334c-124 0 -197 55 -197 189c0 154 93 334 253 334zM277 102c76 0 120 118 120 222c0 46 -22 73 -64 73c-76 0 -120 -118 -120 -222c0 -46 22 -73 64 -73zM228 601l31 135h111l-32 -135h-110zM422 601l31 135h111
l-32 -135h-110z" />
    <glyph glyph-name="divide" unicode="&#xf7;" 
d="M271 352v132h132v-132h-132zM108 191v120h460v-120h-460zM271 17v132h132v-132h-132z" />
    <glyph glyph-name="oslash" unicode="&#xf8;" horiz-adv-x="496" 
d="M334 513c32 0 60 -4 85 -12l64 105l71 -31l-71 -111c31 -30 48 -76 48 -140c0 -154 -85 -334 -253 -334c-32 0 -61 4 -86 11l-66 -108l-70 31l73 114c-31 30 -48 76 -48 141c0 154 93 334 253 334zM214 169l62 97l79 130c-6 2 -13 3 -21 3c-76 0 -120 -118 -120 -222v-8z
M278 104c76 0 120 118 120 222v5l-62 -96l-79 -129c6 -1 13 -2 21 -2z" />
    <glyph glyph-name="ugrave" unicode="&#xf9;" horiz-adv-x="513" 
d="M295 772l221 -90l-56 -99l-229 79zM439 500h134l-115 -500h-128l6 49s-61 -61 -127 -61c-91 0 -122 63 -122 141c0 33 14 97 21 126l56 245h134l-54 -235c-6 -25 -18 -80 -18 -103c0 -37 7 -58 41 -58c32 0 95 60 95 60z" />
    <glyph glyph-name="uacute" unicode="&#xfa;" horiz-adv-x="513" 
d="M439 500h134l-115 -500h-128l6 49s-61 -61 -127 -61c-91 0 -122 63 -122 141c0 33 14 97 21 126l56 245h134l-54 -235c-6 -25 -18 -80 -18 -103c0 -37 7 -58 41 -58c32 0 95 60 95 60zM287 576l-10 107l264 91l10 -120z" />
    <glyph glyph-name="ucircumflex" unicode="&#xfb;" horiz-adv-x="513" 
d="M197 575l168 175h100l86 -175h-132l-24 64l-58 -64h-140zM439 500h134l-115 -500h-128l6 49s-61 -61 -127 -61c-91 0 -122 63 -122 141c0 33 14 97 21 126l56 245h134l-54 -235c-6 -25 -18 -80 -18 -103c0 -37 7 -58 41 -58c32 0 95 60 95 60z" />
    <glyph glyph-name="udieresis" unicode="&#xfc;" horiz-adv-x="513" 
d="M216 601l31 135h121l-32 -135h-120zM420 601l31 135h121l-32 -135h-120zM439 500h134l-115 -500h-128l6 49s-61 -61 -127 -61c-91 0 -122 63 -122 141c0 33 14 97 21 126l56 245h134l-54 -235c-6 -25 -18 -80 -18 -103c0 -37 7 -58 41 -58c32 0 95 60 95 60z" />
    <glyph glyph-name="yacute" unicode="&#xfd;" horiz-adv-x="464" 
d="M126 500h131l-14 -389h15l174 389h135l-332 -710h-133l103 210h-83zM273 576l-10 107l264 91l10 -120z" />
    <glyph glyph-name="thorn" unicode="&#xfe;" horiz-adv-x="495" 
d="M394 511c155 0 159 -147 129 -256c-56 -205 -134 -267 -275 -267c-35 0 -71 3 -71 5l-47 -201h-126l214 906h126l-53 -229c3 1 52 42 103 42zM262 350l-56 -237l67 -6c62 0 98 59 121 148c13 50 22 133 -45 133c-32 0 -87 -40 -87 -38z" />
    <glyph glyph-name="ydieresis" unicode="&#xff;" horiz-adv-x="464" 
d="M198 601l31 135h121l-32 -135h-120zM402 601l31 135h121l-32 -135h-120zM126 500h131l-14 -389h15l174 389h135l-332 -710h-133l103 210h-83z" />
    <glyph glyph-name="Amacron" unicode="&#x100;" horiz-adv-x="551" 
d="M288 806l25 109h327l-25 -109h-327zM13 0l306 680h238l-21 -680h-138l4 118h-198l-53 -118h-138zM400 560l-144 -322h151l14 322h-21z" />
    <glyph glyph-name="amacron" unicode="&#x101;" horiz-adv-x="528" 
d="M221 -12c-102 0 -141 78 -141 182c0 136 72 342 254 342c73 0 250 -33 250 -33l-75 -323c-14 -62 -27 -153 -27 -153l-133 -5s9 61 13 78c0 0 -64 -88 -141 -88zM338 398c-81 0 -122 -137 -122 -228c0 -43 10 -68 51 -68s117 89 117 89l46 193s-66 14 -92 14zM277 627
l25 109h309l-26 -109h-308z" />
    <glyph glyph-name="Abreve" unicode="&#x102;" horiz-adv-x="551" 
d="M323 927h122c-4 -28 9 -39 35 -39s44 16 53 39h122c-30 -87 -80 -144 -197 -144c-99 0 -147 52 -135 144zM13 0l306 680h238l-21 -680h-138l4 118h-198l-53 -118h-138zM400 560l-144 -322h151l14 322h-21z" />
    <glyph glyph-name="abreve" unicode="&#x103;" horiz-adv-x="528" 
d="M221 -12c-102 0 -141 78 -141 182c0 136 72 342 254 342c73 0 250 -33 250 -33l-75 -323c-14 -62 -27 -153 -27 -153l-133 -5s9 61 13 78c0 0 -64 -88 -141 -88zM338 398c-81 0 -122 -137 -122 -228c0 -43 10 -68 51 -68s117 89 117 89l46 193s-66 14 -92 14zM287 746
h121c-2 -23 5 -44 42 -44c32 0 52 14 63 44h121c-32 -96 -96 -156 -218 -156c-102 0 -143 53 -129 156z" />
    <glyph glyph-name="Aogonek" unicode="&#x104;" horiz-adv-x="551" 
d="M13 0l306 680h238l-21 -675v-5h-8c-25 -18 -66 -60 -66 -82c0 -7 3 -14 13 -14c7 0 37 3 37 3l-13 -110s-57 -11 -98 -11c-51 0 -83 26 -83 77s52 106 90 137h-10l4 118h-198l-53 -118h-138zM400 560l-144 -322h151l14 322h-21z" />
    <glyph glyph-name="aogonek" unicode="&#x105;" horiz-adv-x="528" 
d="M452 -93l-13 -110s-57 -11 -98 -11c-51 0 -83 26 -83 77c0 52 54 108 91 138c2 10 9 60 13 75c0 0 -64 -88 -141 -88c-102 0 -141 78 -141 182c0 136 72 342 254 342c73 0 250 -33 250 -33l-75 -323c-14 -62 -27 -153 -27 -153l-10 -1c-25 -16 -70 -61 -70 -84
c0 -7 3 -14 13 -14c7 0 37 3 37 3zM338 398c-81 0 -122 -137 -122 -228c0 -43 10 -68 51 -68s117 89 117 89l46 193s-66 14 -92 14z" />
    <glyph glyph-name="Cacute" unicode="&#x106;" horiz-adv-x="494" 
d="M484 121l-11 -107s-93 -26 -169 -26c-139 0 -205 71 -205 197c0 211 91 507 350 507c82 0 171 -30 171 -30l-32 -102s-62 12 -144 12c-129 0 -203 -187 -203 -377c0 -55 24 -87 81 -87c78 0 162 13 162 13zM384 765l-10 106l264 91l10 -120z" />
    <glyph glyph-name="cacute" unicode="&#x107;" horiz-adv-x="409" 
d="M343 512c70 0 149 -31 149 -31l-34 -98s-77 13 -121 13c-82 0 -119 -111 -119 -205c0 -56 21 -87 76 -87c43 0 107 8 107 8l-11 -99s-73 -25 -145 -25c-96 0 -163 62 -163 174c0 194 86 350 261 350zM268 576l-10 107l264 91l10 -120z" />
    <glyph glyph-name="Ccircumflex" unicode="&#x108;" horiz-adv-x="494" 
d="M484 121l-11 -107s-93 -26 -169 -26c-139 0 -205 71 -205 197c0 211 91 507 350 507c82 0 171 -30 171 -30l-32 -102s-62 12 -144 12c-129 0 -203 -187 -203 -377c0 -55 24 -87 81 -87c78 0 162 13 162 13zM292 779l176 152h80l96 -152h-122l-26 55l-62 -55h-142z" />
    <glyph glyph-name="ccircumflex" unicode="&#x109;" horiz-adv-x="409" 
d="M343 512c70 0 149 -31 149 -31l-34 -98s-77 13 -121 13c-82 0 -119 -111 -119 -205c0 -56 21 -87 76 -87c43 0 107 8 107 8l-11 -99s-73 -25 -145 -25c-96 0 -163 62 -163 174c0 194 86 350 261 350zM194 575l168 175h80l86 -175h-122l-24 64l-58 -64h-130z" />
    <glyph glyph-name="Cdotaccent" unicode="&#x10a;" horiz-adv-x="494" 
d="M484 121l-11 -107s-93 -26 -169 -26c-139 0 -205 71 -205 197c0 211 91 507 350 507c82 0 171 -30 171 -30l-32 -102s-62 12 -144 12c-129 0 -203 -187 -203 -377c0 -55 24 -87 81 -87c78 0 162 13 162 13zM405 771l32 138h118l-34 -138h-116z" />
    <glyph glyph-name="cdotaccent" unicode="&#x10b;" horiz-adv-x="409" 
d="M343 512c70 0 149 -31 149 -31l-34 -98s-77 13 -121 13c-82 0 -119 -111 -119 -205c0 -56 21 -87 76 -87c43 0 107 8 107 8l-11 -99s-73 -25 -145 -25c-96 0 -163 62 -163 174c0 194 86 350 261 350zM300 582l32 137h116l-32 -137h-116z" />
    <glyph glyph-name="Ccaron" unicode="&#x10c;" horiz-adv-x="494" 
d="M484 121l-11 -107s-93 -26 -169 -26c-139 0 -205 71 -205 197c0 211 91 507 350 507c82 0 171 -30 171 -30l-32 -102s-62 12 -144 12c-129 0 -203 -187 -203 -377c0 -55 24 -87 81 -87c78 0 162 13 162 13zM678 927l-160 -151h-92l-93 151h132l29 -57l53 57h131z" />
    <glyph glyph-name="ccaron" unicode="&#x10d;" horiz-adv-x="409" 
d="M412 575h-85l-82 175h123l29 -66l53 66h129zM343 512c70 0 149 -31 149 -31l-34 -98s-77 13 -121 13c-82 0 -119 -111 -119 -205c0 -56 21 -87 76 -87c43 0 107 8 107 8l-11 -99s-73 -25 -145 -25c-96 0 -163 62 -163 174c0 194 86 350 261 350z" />
    <glyph glyph-name="Dcaron" unicode="&#x10e;" horiz-adv-x="605" 
d="M65 0h244c244 0 351 247 351 473c0 163 -106 207 -224 207h-214zM518 473c0 -124 -53 -353 -197 -353h-90l101 440h76c68 0 110 -19 110 -87zM647 927l-160 -151h-92l-93 151h132l29 -57l53 57h131z" />
    <glyph glyph-name="dcaron" unicode="&#x10f;" horiz-adv-x="637" 
d="M804 680l-60 -251h-123l61 251h122zM635 700l-162 -700h-130l9 52s-56 -64 -128 -64c-96 0 -144 65 -144 177c0 162 86 346 252 346c42 0 120 -21 120 -21l49 210h134zM380 174l48 209s-58 14 -96 14c-75 0 -116 -140 -116 -231c0 -36 15 -64 51 -64c37 0 113 72 113 72z
" />
    <glyph glyph-name="Dcroat" unicode="&#x110;" horiz-adv-x="613" 
d="M317 0h-244l63 275h-54l29 136h57l62 269h214c118 0 224 -44 224 -207c0 -226 -107 -473 -351 -473zM526 473c0 68 -42 87 -110 87h-76l-34 -149h108l-30 -136h-110l-35 -155h90c144 0 197 229 197 353z" />
    <glyph glyph-name="dcroat" unicode="&#x111;" horiz-adv-x="528" 
d="M635 700l-8 -34h54l-28 -119h-54l-126 -547h-130l9 52s-56 -64 -128 -64c-96 0 -144 65 -144 177c0 162 86 346 252 346c42 0 120 -21 120 -21l13 57h-120l27 119h121l8 34h134zM380 174l48 209s-58 14 -96 14c-75 0 -116 -140 -116 -231c0 -36 15 -64 51 -64
c37 0 113 72 113 72z" />
    <glyph glyph-name="Emacron" unicode="&#x112;" horiz-adv-x="497" 
d="M277 806l25 109h327l-25 -109h-327zM65 0l156 680h399l-28 -120h-260l-37 -160h206l-28 -120h-205l-37 -160h261l-27 -120h-400z" />
    <glyph glyph-name="emacron" unicode="&#x113;" horiz-adv-x="476" 
d="M288 102c68 0 166 13 166 13l-15 -99s-93 -28 -189 -28c-115 0 -169 53 -169 170c0 181 79 353 274 353c107 0 175 -42 175 -149c0 -131 -86 -167 -277 -167h-35c-2 -8 -3 -22 -3 -34c0 -40 33 -59 73 -59zM233 294h41c94 0 124 19 124 66c0 32 -18 43 -50 43
c-59 0 -98 -37 -115 -109zM218 627l25 109h309l-26 -109h-308z" />
    <glyph glyph-name="Ebreve" unicode="&#x114;" horiz-adv-x="497" 
d="M297 927h122c-4 -28 9 -39 35 -39s44 16 53 39h122c-30 -87 -80 -144 -197 -144c-99 0 -147 52 -135 144zM65 0l156 680h399l-28 -120h-260l-37 -160h206l-28 -120h-205l-37 -160h261l-27 -120h-400z" />
    <glyph glyph-name="ebreve" unicode="&#x115;" horiz-adv-x="476" 
d="M288 102c68 0 166 13 166 13l-15 -99s-93 -28 -189 -28c-115 0 -169 53 -169 170c0 181 79 353 274 353c107 0 175 -42 175 -149c0 -131 -86 -167 -277 -167h-35c-2 -8 -3 -22 -3 -34c0 -40 33 -59 73 -59zM233 294h41c94 0 124 19 124 66c0 32 -18 43 -50 43
c-59 0 -98 -37 -115 -109zM244 746h121c-2 -23 5 -44 42 -44c32 0 52 14 63 44h121c-32 -96 -96 -156 -218 -156c-102 0 -143 53 -129 156z" />
    <glyph glyph-name="Edotaccent" unicode="&#x116;" horiz-adv-x="497" 
d="M368 771l32 138h118l-34 -138h-116zM65 0l156 680h399l-28 -120h-260l-37 -160h206l-28 -120h-205l-37 -160h261l-27 -120h-400z" />
    <glyph glyph-name="edotaccent" unicode="&#x117;" horiz-adv-x="476" 
d="M288 102c68 0 166 13 166 13l-15 -99s-93 -28 -189 -28c-115 0 -169 53 -169 170c0 181 79 353 274 353c107 0 175 -42 175 -149c0 -131 -86 -167 -277 -167h-35c-2 -8 -3 -22 -3 -34c0 -40 33 -59 73 -59zM233 294h41c94 0 124 19 124 66c0 32 -18 43 -50 43
c-59 0 -98 -37 -115 -109zM305 582l32 137h116l-32 -137h-116z" />
    <glyph glyph-name="Eogonek" unicode="&#x118;" horiz-adv-x="497" 
d="M65 0l156 680h399l-28 -120h-260l-37 -160h206l-28 -120h-205l-37 -160h261l-27 -120h-12c-25 -18 -66 -60 -66 -82c0 -7 3 -14 13 -14c7 0 37 3 37 3l-13 -110s-57 -11 -98 -11c-51 0 -83 26 -83 77s52 106 90 137h-268z" />
    <glyph glyph-name="eogonek" unicode="&#x119;" horiz-adv-x="476" 
d="M415 -73l-13 -110s-57 -11 -98 -11c-51 0 -83 26 -83 77c0 37 27 75 56 106c-9 -1 -18 -1 -27 -1c-115 0 -169 53 -169 170c0 181 79 353 274 353c107 0 175 -42 175 -149c0 -131 -86 -167 -277 -167h-35c-2 -8 -3 -22 -3 -34c0 -40 33 -59 73 -59c68 0 166 13 166 13
l-15 -99s-9 -3 -20 -6c-24 -20 -54 -53 -54 -72c0 -7 3 -14 13 -14c7 0 37 3 37 3zM233 294h41c94 0 124 19 124 66c0 32 -18 43 -50 43c-59 0 -98 -37 -115 -109z" />
    <glyph glyph-name="Ecaron" unicode="&#x11a;" horiz-adv-x="497" 
d="M639 945l-160 -151h-92l-93 151h132l29 -57l53 57h131zM65 0l156 680h399l-28 -120h-260l-37 -160h206l-28 -120h-205l-37 -160h261l-27 -120h-400z" />
    <glyph glyph-name="ecaron" unicode="&#x11b;" horiz-adv-x="476" 
d="M288 102c68 0 166 13 166 13l-15 -99s-93 -28 -189 -28c-115 0 -169 53 -169 170c0 181 79 353 274 353c107 0 175 -42 175 -149c0 -131 -86 -167 -277 -167h-35c-2 -8 -3 -22 -3 -34c0 -40 33 -59 73 -59zM233 294h41c94 0 124 19 124 66c0 32 -18 43 -50 43
c-59 0 -98 -37 -115 -109zM408 575h-85l-82 175h123l29 -66l53 66h129z" />
    <glyph glyph-name="Gcircumflex" unicode="&#x11c;" horiz-adv-x="568" 
d="M300 755l168 175h100l86 -175h-132l-24 64l-58 -64h-140zM378 264l27 114h201l-85 -364s-68 -26 -194 -26c-147 0 -225 71 -225 214c0 254 113 490 363 490c110 0 208 -40 208 -40l-32 -100s-99 20 -187 20c-152 0 -210 -217 -210 -371c0 -67 40 -93 100 -93
c34 0 63 5 63 5l35 151h-64z" />
    <glyph glyph-name="gcircumflex" unicode="&#x11d;" horiz-adv-x="484" 
d="M226 -230c-129 0 -217 37 -217 137c0 70 66 108 122 135c-16 16 -20 29 -20 53c0 45 60 96 60 96c-41 24 -68 58 -68 125c0 112 81 196 207 196c49 0 121 -18 121 -18l146 6l-25 -108h-58c2 -11 4 -30 4 -51c0 -101 -87 -184 -209 -184c-25 0 -43 5 -43 5
s-15 -20 -15 -36c0 -17 26 -22 94 -32c67 -10 142 -36 142 -126c0 -117 -90 -198 -241 -198zM273 -9c-35 6 -68 11 -85 15c-22 -12 -57 -41 -57 -68c0 -29 24 -56 92 -56c54 0 118 11 118 70c0 27 -27 32 -68 39zM296 266c47 0 79 36 79 81c0 35 -22 56 -70 56
s-79 -36 -79 -81c0 -35 22 -56 70 -56zM181 575l168 175h80l86 -175h-122l-24 64l-58 -64h-130z" />
    <glyph glyph-name="Gbreve" unicode="&#x11e;" horiz-adv-x="568" 
d="M338 926h131c-1 -5 0 -9 0 -13c2 -20 16 -31 42 -31c32 0 52 14 63 44h131c-32 -96 -106 -166 -228 -166c-95 0 -137 53 -141 122c-1 14 0 29 2 44zM378 264l27 114h201l-85 -364s-68 -26 -194 -26c-147 0 -225 71 -225 214c0 254 113 490 363 490c110 0 208 -40 208 -40
l-32 -100s-99 20 -187 20c-152 0 -210 -217 -210 -371c0 -67 40 -93 100 -93c34 0 63 5 63 5l35 151h-64z" />
    <glyph glyph-name="gbreve" unicode="&#x11f;" horiz-adv-x="484" 
d="M226 -230c-129 0 -217 37 -217 137c0 70 66 108 122 135c-16 16 -20 29 -20 53c0 45 60 96 60 96c-41 24 -68 58 -68 125c0 112 81 196 207 196c49 0 121 -18 121 -18l146 6l-25 -108h-58c2 -11 4 -30 4 -51c0 -101 -87 -184 -209 -184c-25 0 -43 5 -43 5
s-15 -20 -15 -36c0 -17 26 -22 94 -32c67 -10 142 -36 142 -126c0 -117 -90 -198 -241 -198zM273 -9c-35 6 -68 11 -85 15c-22 -12 -57 -41 -57 -68c0 -29 24 -56 92 -56c54 0 118 11 118 70c0 27 -27 32 -68 39zM296 266c47 0 79 36 79 81c0 35 -22 56 -70 56
s-79 -36 -79 -81c0 -35 22 -56 70 -56zM223 746h121c-2 -23 5 -44 42 -44c32 0 52 14 63 44h121c-32 -96 -96 -156 -218 -156c-102 0 -143 53 -129 156z" />
    <glyph glyph-name="Gdotaccent" unicode="&#x120;" horiz-adv-x="568" 
d="M419 732l32 137h126l-32 -137h-126zM378 264l27 114h201l-85 -364s-68 -26 -194 -26c-147 0 -225 71 -225 214c0 254 113 490 363 490c110 0 208 -40 208 -40l-32 -100s-99 20 -187 20c-152 0 -210 -217 -210 -371c0 -67 40 -93 100 -93c34 0 63 5 63 5l35 151h-64z" />
    <glyph glyph-name="gdotaccent" unicode="&#x121;" horiz-adv-x="484" 
d="M226 -230c-129 0 -217 37 -217 137c0 70 66 108 122 135c-16 16 -20 29 -20 53c0 45 60 96 60 96c-41 24 -68 58 -68 125c0 112 81 196 207 196c49 0 121 -18 121 -18l146 6l-25 -108h-58c2 -11 4 -30 4 -51c0 -101 -87 -184 -209 -184c-25 0 -43 5 -43 5
s-15 -20 -15 -36c0 -17 26 -22 94 -32c67 -10 142 -36 142 -126c0 -117 -90 -198 -241 -198zM273 -9c-35 6 -68 11 -85 15c-22 -12 -57 -41 -57 -68c0 -29 24 -56 92 -56c54 0 118 11 118 70c0 27 -27 32 -68 39zM296 266c47 0 79 36 79 81c0 35 -22 56 -70 56
s-79 -36 -79 -81c0 -35 22 -56 70 -56zM294 582l32 137h116l-32 -137h-116z" />
    <glyph glyph-name="Gcommaaccent" unicode="&#x122;" horiz-adv-x="568" 
d="M378 264l27 114h201l-85 -364s-68 -26 -194 -26c-147 0 -225 71 -225 214c0 254 113 490 363 490c110 0 208 -40 208 -40l-32 -100s-99 20 -187 20c-152 0 -210 -217 -210 -371c0 -67 40 -93 100 -93c34 0 63 5 63 5l35 151h-64zM233 -72l-97 -237h113l107 237h-123z" />
    <glyph glyph-name="gcommaaccent" unicode="&#x123;" horiz-adv-x="484" 
d="M393 814h114l-98 -236h-123zM226 -230c-129 0 -217 37 -217 137c0 70 66 108 122 135c-16 16 -20 29 -20 53c0 45 60 96 60 96c-41 24 -68 58 -68 125c0 112 81 196 207 196c49 0 121 -18 121 -18l146 6l-25 -108h-58c2 -11 4 -30 4 -51c0 -101 -87 -184 -209 -184
c-25 0 -43 5 -43 5s-15 -20 -15 -36c0 -17 26 -22 94 -32c67 -10 142 -36 142 -126c0 -117 -90 -198 -241 -198zM273 -9c-35 6 -68 11 -85 15c-22 -12 -57 -41 -57 -68c0 -29 24 -56 92 -56c54 0 118 11 118 70c0 27 -27 32 -68 39zM296 266c47 0 79 36 79 81
c0 35 -22 56 -70 56s-79 -36 -79 -81c0 -35 22 -56 70 -56z" />
    <glyph glyph-name="Hcircumflex" unicode="&#x124;" horiz-adv-x="620" 
d="M417 0l66 288h-214l-66 -288h-138l157 680h138l-63 -272h214l63 272h138l-157 -680h-138zM308 779l176 152h80l96 -152h-122l-26 55l-62 -55h-142z" />
    <glyph glyph-name="hcircumflex" unicode="&#x125;" horiz-adv-x="513" 
d="M189 0h-134l161 700h134l-56 -247s59 59 125 59c91 0 122 -63 122 -141c0 -35 -14 -96 -21 -126l-56 -245h-134l54 235c6 25 18 80 18 103c0 37 -5 58 -40 58c-31 0 -96 -60 -96 -60zM273 749l176 152h80l96 -152h-122l-26 55l-62 -55h-142z" />
    <glyph glyph-name="Hbar" unicode="&#x126;" horiz-adv-x="628" 
d="M115 481v3l28 116h64l19 80h132l-19 -80h226l19 80h132l-19 -80h64l-30 -119h-61l-111 -481h-132l64 278h-226l-64 -278h-132l111 481h-65zM295 407h226l17 74h-226z" />
    <glyph glyph-name="hbar" unicode="&#x127;" horiz-adv-x="513" 
d="M125 530l27 116h51l13 54h134l-12 -54h123l-28 -116h-122l-17 -77s59 59 125 59c91 0 122 -63 122 -141c0 -35 -14 -96 -21 -126l-56 -245h-134l54 235c6 25 18 80 18 103c0 37 -5 58 -40 58c-31 0 -96 -60 -96 -60l-77 -336h-134l122 530h-52z" />
    <glyph glyph-name="Itilde" unicode="&#x128;" horiz-adv-x="268" 
d="M503 926l2 -94s-64 -63 -114 -63s-113 43 -150 43c-25 0 -84 -39 -84 -39l-4 93s68 64 116 64c60 0 122 -42 147 -42s87 38 87 38zM65 0l157 680h138l-157 -680h-138z" />
    <glyph glyph-name="itilde" unicode="&#x129;" horiz-adv-x="243" 
d="M55 0l115 500h134l-115 -500h-134zM424 747l4 -93s-67 -64 -116 -64c-48 0 -99 44 -130 44c-27 0 -86 -40 -86 -40l-3 92s67 65 115 65c55 0 105 -43 130 -43c24 0 86 39 86 39z" />
    <glyph glyph-name="Imacron" unicode="&#x12a;" horiz-adv-x="268" 
d="M150 817l25 109h327l-25 -109h-327zM65 0l157 680h138l-157 -680h-138z" />
    <glyph glyph-name="imacron" unicode="&#x12b;" horiz-adv-x="243" 
d="M55 0l115 500h134l-115 -500h-134zM101 627l25 109h309l-26 -109h-308z" />
    <glyph glyph-name="Ibreve" unicode="&#x12c;" horiz-adv-x="268" 
d="M182 927h122c-4 -28 9 -39 35 -39s44 16 53 39h122c-30 -87 -80 -144 -197 -144c-99 0 -147 52 -135 144zM65 0l157 680h138l-157 -680h-138z" />
    <glyph glyph-name="ibreve" unicode="&#x12d;" horiz-adv-x="243" 
d="M55 0l115 500h134l-115 -500h-134zM112 746h121c-2 -23 5 -44 42 -44c32 0 52 14 63 44h121c-32 -96 -96 -156 -218 -156c-102 0 -143 53 -129 156z" />
    <glyph glyph-name="Iogonek" unicode="&#x12e;" horiz-adv-x="268" 
d="M65 0l157 680h138l-157 -680c-33 -14 -78 -58 -78 -82c0 -7 3 -14 13 -14c7 0 37 3 37 3l-13 -110s-57 -11 -98 -11c-51 0 -83 26 -83 77s52 106 90 137h-6z" />
    <glyph glyph-name="iogonek" unicode="&#x12f;" horiz-adv-x="243" 
d="M157 -93l-13 -110s-57 -11 -98 -11c-51 0 -83 26 -83 77c0 52 54 109 92 139l115 498h134l-115 -500c-33 -17 -82 -58 -82 -82c0 -7 3 -14 13 -14c7 0 37 3 37 3zM181 552l32 137h135l-31 -137h-136z" />
    <glyph glyph-name="Idotaccent" unicode="&#x130;" horiz-adv-x="268" 
d="M251 771l32 138h118l-34 -138h-116zM65 0l157 680h138l-157 -680h-138z" />
    <glyph glyph-name="dotlessi" unicode="&#x131;" horiz-adv-x="244" 
d="M55 0l115 500h134l-115 -500h-134z" />
    <glyph glyph-name="Jcircumflex" unicode="&#x134;" horiz-adv-x="283" 
d="M378 680l-126 -545c-42 -182 -71 -204 -246 -204l23 120c53 2 67 6 85 84l126 545h138zM144 779l176 152h80l96 -152h-122l-26 55l-62 -55h-142z" />
    <glyph glyph-name="jcircumflex" unicode="&#x135;" horiz-adv-x="243" 
d="M55 0l115 500h134l-115 -500c-32 -138 -42 -153 -217 -230l-42 107c104 54 111 62 125 123zM80 575l168 175h80l86 -175h-122l-24 64l-58 -64h-130z" />
    <glyph glyph-name="Kcommaaccent" unicode="&#x136;" horiz-adv-x="540" 
d="M215 -72l-97 -237h113l107 237h-123zM384 0l-44 273l-76 -7l-61 -266h-138l157 680h138l-68 -294l64 8l176 286h151l-217 -341l63 -339h-145z" />
    <glyph glyph-name="kcommaaccent" unicode="&#x137;" horiz-adv-x="467" 
d="M74 -309l97 237h123l-107 -237h-113zM189 0h-134l161 700h134l-90 -389l34 7l127 181h147l-174 -240l66 -259h-137l-48 207l-40 -6z" />
    <glyph glyph-name="Lacute" unicode="&#x139;" horiz-adv-x="422" 
d="M300 765l-10 106l264 91l10 -120zM419 0h-354l157 680h138l-129 -560h215z" />
    <glyph glyph-name="lacute" unicode="&#x13a;" horiz-adv-x="244" 
d="M55 0l161 700h134l-161 -700h-134zM235 765l-10 106l264 91l10 -120z" />
    <glyph glyph-name="Lcommaaccent" unicode="&#x13b;" horiz-adv-x="422" 
d="M165 -72l-97 -237h113l107 237h-123zM419 0h-354l157 680h138l-129 -560h215z" />
    <glyph glyph-name="lcommaaccent" unicode="&#x13c;" horiz-adv-x="244" 
d="M46 -72l-97 -237h113l107 237h-123zM55 0l161 700h134l-161 -700h-134z" />
    <glyph glyph-name="Lcaron" unicode="&#x13d;" horiz-adv-x="464" 
d="M590 680l-60 -251h-123l61 251h122zM419 0h-354l157 680h138l-129 -560h215z" />
    <glyph glyph-name="lcaron" unicode="&#x13e;" horiz-adv-x="353" 
d="M520 680l-60 -251h-123l61 251h122zM55 0l161 700h134l-161 -700h-134z" />
    <glyph glyph-name="Lslash" unicode="&#x141;" horiz-adv-x="423" 
d="M421 0h-354l48 208l-28 -17l-41 93l101 62l77 334h138l-54 -234l96 60l41 -92l-169 -105l-43 -189h215z" />
    <glyph glyph-name="lslash" unicode="&#x142;" horiz-adv-x="292" 
d="M77 0l50 220l-37 -23l-41 93l110 69l79 341h134l-56 -244l40 25l41 -92l-113 -71l-73 -318h-134z" />
    <glyph glyph-name="Nacute" unicode="&#x143;" horiz-adv-x="651" 
d="M389 765l-10 106l264 91l10 -120zM65 0l157 680h219l36 -533h12l121 533h133l-157 -680h-208l-44 543h-12l-127 -543h-130z" />
    <glyph glyph-name="nacute" unicode="&#x144;" horiz-adv-x="513" 
d="M55 0h134l77 336s63 60 95 60c37 0 41 -21 41 -58c0 -23 -12 -78 -18 -103l-54 -235h134l56 245c7 30 21 93 21 126c0 78 -31 141 -122 141c-66 0 -127 -61 -127 -61l6 49h-128zM288 576l-10 107l264 91l10 -120z" />
    <glyph glyph-name="Ncommaaccent" unicode="&#x145;" horiz-adv-x="651" 
d="M280 -72l-97 -237h113l107 237h-123zM65 0l157 680h219l36 -533h12l121 533h133l-157 -680h-208l-44 543h-12l-127 -543h-130z" />
    <glyph glyph-name="ncommaaccent" unicode="&#x146;" horiz-adv-x="513" 
d="M189 0h-134l115 500h128l-6 -49s61 61 127 61c91 0 122 -63 122 -141c0 -33 -14 -96 -21 -126l-56 -245h-134l54 235c6 25 18 80 18 103c0 37 -4 58 -41 58c-32 0 -95 -60 -95 -60zM96 -309l97 237h123l-107 -237h-113z" />
    <glyph glyph-name="Ncaron" unicode="&#x147;" horiz-adv-x="651" 
d="M690 926l-160 -151h-92l-93 151h132l29 -57l53 57h131zM65 0l157 680h219l36 -533h12l121 533h133l-157 -680h-208l-44 543h-12l-127 -543h-130z" />
    <glyph glyph-name="ncaron" unicode="&#x148;" horiz-adv-x="513" 
d="M189 0h-134l115 500h128l-6 -49s61 61 127 61c91 0 122 -63 122 -141c0 -33 -14 -96 -21 -126l-56 -245h-134l54 235c6 25 18 80 18 103c0 37 -4 58 -41 58c-32 0 -95 -60 -95 -60zM429 575h-85l-82 175h123l29 -66l53 66h129z" />
    <glyph glyph-name="Eng" unicode="&#x14a;" horiz-adv-x="651" 
d="M711 539l-126 -545c-42 -182 -69 -204 -240 -204l23 120c53 2 67 6 85 84l1 6h-76l-44 543h-12l-127 -543h-130l157 680h219l36 -533h11l30 130l92 403h133l-33 -141h1z" />
    <glyph glyph-name="eng" unicode="&#x14b;" horiz-adv-x="502" 
d="M179 0h-127l118 499h127l-12 -47c30 23 77 59 126 59c69 0 106 -33 116 -89s-1 -109 -13 -161l-61 -254c-32 -132 -75 -187 -227 -253l-32 114c101 51 116 66 132 134l62 259c8 32 12 64 9 88c-3 22 -15 37 -42 37c-31 0 -96 -44 -96 -44z" />
    <glyph glyph-name="Omacron" unicode="&#x14c;" horiz-adv-x="615" 
d="M339 108c31 0 61 11 84 34c66 66 104 214 104 328c0 73 -24 102 -95 102c-30 0 -59 -8 -81 -30c-71 -70 -108 -232 -108 -332c0 -73 24 -102 96 -102zM315 -12c-132 0 -214 64 -214 208c0 166 50 337 156 429c51 44 116 67 191 67c135 0 221 -61 221 -208
c0 -172 -50 -349 -164 -438c-49 -38 -119 -58 -190 -58zM317 806l25 109h327l-25 -109h-327z" />
    <glyph glyph-name="omacron" unicode="&#x14d;" horiz-adv-x="496" 
d="M333 511c124 0 197 -55 197 -189c0 -154 -85 -334 -253 -334c-124 0 -197 55 -197 189c0 154 93 334 253 334zM277 102c76 0 120 118 120 222c0 46 -22 73 -64 73c-76 0 -120 -118 -120 -222c0 -46 22 -73 64 -73zM224 627l25 109h309l-26 -109h-308z" />
    <glyph glyph-name="Obreve" unicode="&#x14e;" horiz-adv-x="615" 
d="M343 927h122c-4 -28 9 -39 35 -39s44 16 53 39h122c-30 -87 -80 -144 -197 -144c-99 0 -147 52 -135 144zM339 108c31 0 61 11 84 34c66 66 104 214 104 328c0 73 -24 102 -95 102c-30 0 -59 -8 -81 -30c-71 -70 -108 -232 -108 -332c0 -73 24 -102 96 -102zM315 -12
c-132 0 -214 64 -214 208c0 166 50 337 156 429c51 44 116 67 191 67c135 0 221 -61 221 -208c0 -172 -50 -349 -164 -438c-49 -38 -119 -58 -190 -58z" />
    <glyph glyph-name="obreve" unicode="&#x14f;" horiz-adv-x="496" 
d="M333 511c124 0 197 -55 197 -189c0 -154 -85 -334 -253 -334c-124 0 -197 55 -197 189c0 154 93 334 253 334zM277 102c76 0 120 118 120 222c0 46 -22 73 -64 73c-76 0 -120 -118 -120 -222c0 -46 22 -73 64 -73zM224 746h121c-2 -23 5 -44 42 -44c32 0 52 14 63 44h121
c-32 -96 -96 -156 -218 -156c-102 0 -143 53 -129 156z" />
    <glyph glyph-name="Ohungarumlaut" unicode="&#x150;" horiz-adv-x="615" 
d="M623 740l-99 40l111 198l109 -45zM419 741l-100 39l112 199l109 -45zM339 108c31 0 61 11 84 34c66 66 104 214 104 328c0 73 -24 102 -95 102c-30 0 -59 -8 -81 -30c-71 -70 -108 -232 -108 -332c0 -73 24 -102 96 -102zM315 -12c-132 0 -214 64 -214 208
c0 166 50 337 156 429c51 44 116 67 191 67c135 0 221 -61 221 -208c0 -172 -50 -349 -164 -438c-49 -38 -119 -58 -190 -58z" />
    <glyph glyph-name="ohungarumlaut" unicode="&#x151;" horiz-adv-x="496" 
d="M333 511c124 0 197 -55 197 -189c0 -154 -85 -334 -253 -334c-124 0 -197 55 -197 189c0 154 93 334 253 334zM277 102c76 0 120 118 120 222c0 46 -22 73 -64 73c-76 0 -120 -118 -120 -222c0 -46 22 -73 64 -73zM468 563l-81 65l156 190l89 -67zM274 563l-80 65
l155 189l89 -66z" />
    <glyph glyph-name="OE" unicode="&#x152;" horiz-adv-x="831" 
d="M796 0h-401c-37 -6 -82 -12 -116 -12c-120 0 -177 57 -184 163c-3 53 4 117 22 194c59 250 168 357 330 357c33 0 75 -6 108 -12h404l-30 -131h-276l-39 -157h220l-29 -125l-219 2l-35 -148h275zM328 120c21 0 60 3 93 6l105 438c-17 2 -61 6 -93 6
c-88 0 -141 -56 -181 -225c-13 -54 -20 -96 -20 -130c0 -67 28 -95 96 -95z" />
    <glyph glyph-name="oe" unicode="&#x153;" horiz-adv-x="759" 
d="M568 109c69 0 173 9 173 9l-23 -102s-91 -28 -188 -28c-63 0 -110 16 -135 49c-42 -31 -90 -49 -156 -49c-102 0 -148 47 -159 117c-8 47 -4 96 8 145c35 139 97 261 274 261c68 0 109 -20 136 -54c42 36 90 54 152 54c97 0 148 -46 156 -121c3 -29 3 -66 -10 -106
l-29 -92l-268 2c-4 -17 -5 -32 -2 -45c6 -25 28 -40 71 -40zM266 107c82 0 104 86 121 150c6 22 10 46 10 72c0 41 -16 63 -63 63c-70 0 -98 -62 -117 -142c-10 -41 -15 -77 -9 -103c6 -25 22 -40 58 -40zM522 296l152 -2c7 27 10 49 7 64c-4 22 -19 31 -55 31
c-62 0 -90 -33 -104 -93z" />
    <glyph glyph-name="Racute" unicode="&#x154;" horiz-adv-x="559" 
d="M348 216l45 -216h138l-55 235c83 33 152 121 152 251c0 139 -69 194 -210 194h-196l-157 -680h138l50 216h95zM486 480c0 -75 -42 -146 -117 -146h-89l53 228h77c57 0 76 -25 76 -82zM331 765l-10 106l264 91l10 -120z" />
    <glyph glyph-name="racute" unicode="&#x155;" horiz-adv-x="334" 
d="M55 0l115 500h133l-18 -72s82 74 157 84l-39 -140c-49 -15 -141 -57 -141 -57l-73 -315h-134zM187 576l-10 107l264 91l10 -120z" />
    <glyph glyph-name="Rcommaaccent" unicode="&#x156;" horiz-adv-x="559" 
d="M132 -309l97 237h123l-107 -237h-113zM393 0l-45 216h-95l-50 -216h-138l157 680h196c141 0 210 -55 210 -194c0 -130 -69 -218 -152 -251l55 -235h-138zM486 480c0 57 -19 82 -76 82h-77l-53 -228h89c75 0 117 71 117 146z" />
    <glyph glyph-name="rcommaaccent" unicode="&#x157;" horiz-adv-x="334" 
d="M55 0l115 500h133l-18 -72s82 74 157 84l-39 -140c-49 -15 -141 -57 -141 -57l-73 -315h-134zM53 -72l-97 -237h113l107 237h-123z" />
    <glyph glyph-name="Rcaron" unicode="&#x158;" horiz-adv-x="559" 
d="M627 927l-160 -151h-92l-93 151h132l29 -57l53 57h131zM348 216l45 -216h138l-55 235c83 33 152 121 152 251c0 139 -69 194 -210 194h-196l-157 -680h138l50 216h95zM486 480c0 -75 -42 -146 -117 -146h-89l53 228h77c57 0 76 -25 76 -82z" />
    <glyph glyph-name="rcaron" unicode="&#x159;" horiz-adv-x="334" 
d="M55 0l115 500h133l-18 -72s82 74 157 84l-39 -140c-49 -15 -141 -57 -141 -57l-73 -315h-134zM336 575h-85l-82 175h123l29 -66l53 66h129z" />
    <glyph glyph-name="Sacute" unicode="&#x15a;" horiz-adv-x="495" 
d="M586 654l-25 -98s-110 18 -180 18c-60 0 -95 -36 -95 -89c0 -37 11 -49 93 -86c112 -50 136 -87 136 -176c0 -154 -103 -235 -257 -235c-106 0 -208 41 -208 41l23 99s113 -20 183 -20c75 0 119 24 119 99c0 38 -13 50 -101 90c-90 41 -128 82 -128 172
c0 126 88 223 231 223c109 0 209 -38 209 -38zM339 765l-10 106l264 91l10 -120z" />
    <glyph glyph-name="sacute" unicode="&#x15b;" horiz-adv-x="432" 
d="M494 480l-24 -99s-103 16 -168 16c-41 0 -62 -22 -62 -49c0 -22 17 -30 71 -47c85 -27 133 -46 133 -123c0 -130 -95 -190 -225 -190c-97 0 -173 34 -173 34l25 98s96 -18 163 -18c55 0 73 21 73 49c0 18 -20 26 -62 38c-85 24 -139 52 -139 124c0 130 100 198 208 198
c106 0 180 -31 180 -31zM256 576l-10 107l264 91l10 -120z" />
    <glyph glyph-name="Scircumflex" unicode="&#x15c;" horiz-adv-x="495" 
d="M586 654l-25 -98s-110 18 -180 18c-60 0 -95 -36 -95 -89c0 -37 11 -49 93 -86c112 -50 136 -87 136 -176c0 -154 -103 -235 -257 -235c-106 0 -208 41 -208 41l23 99s113 -20 183 -20c75 0 119 24 119 99c0 38 -13 50 -101 90c-90 41 -128 82 -128 172
c0 126 88 223 231 223c109 0 209 -38 209 -38zM244 779l176 152h80l96 -152h-122l-26 55l-62 -55h-142z" />
    <glyph glyph-name="scircumflex" unicode="&#x15d;" horiz-adv-x="432" 
d="M494 480l-24 -99s-103 16 -168 16c-41 0 -62 -22 -62 -49c0 -22 17 -30 71 -47c85 -27 133 -46 133 -123c0 -130 -95 -190 -225 -190c-97 0 -173 34 -173 34l25 98s96 -18 163 -18c55 0 73 21 73 49c0 18 -20 26 -62 38c-85 24 -139 52 -139 124c0 130 100 198 208 198
c106 0 180 -31 180 -31zM178 575l168 175h80l86 -175h-122l-24 64l-58 -64h-130z" />
    <glyph glyph-name="Scedilla" unicode="&#x15e;" horiz-adv-x="495" 
d="M586 654l-25 -98s-110 18 -180 18c-60 0 -95 -36 -95 -89c0 -37 11 -49 93 -86c112 -50 136 -87 136 -176c0 -152 -100 -232 -249 -235l-6 -21h6c61 0 106 -18 89 -91c-16 -68 -60 -105 -129 -105c-41 0 -84 11 -84 11l20 81s30 -1 46 -1c26 0 38 8 42 24
c5 18 -9 20 -31 20h-22l18 84c-89 9 -165 39 -165 39l23 99s113 -20 183 -20c75 0 119 24 119 99c0 38 -13 50 -101 90c-90 41 -128 82 -128 172c0 126 88 223 231 223c109 0 209 -38 209 -38z" />
    <glyph glyph-name="scedilla" unicode="&#x15f;" horiz-adv-x="434" 
d="M316 -124c-16 -68 -60 -105 -129 -105c-41 0 -84 11 -84 11l20 81s30 -1 46 -1c26 0 38 8 42 24c5 18 -9 20 -31 20h-22l18 84c-75 8 -129 32 -129 32l25 98s96 -18 163 -18c55 0 73 21 73 49c0 18 -20 26 -62 38c-85 24 -139 52 -139 124c0 130 100 198 208 198
c106 0 180 -31 180 -31l-24 -99s-103 16 -168 16c-41 0 -62 -22 -62 -49c0 -22 17 -30 71 -47c85 -27 133 -46 133 -123c0 -128 -92 -188 -218 -190l-6 -21h6c61 0 106 -18 89 -91z" />
    <glyph glyph-name="Scaron" unicode="&#x160;" horiz-adv-x="495" 
d="M637 927l-160 -151h-92l-93 151h132l29 -57l53 57h131zM586 654l-25 -98s-110 18 -180 18c-60 0 -95 -36 -95 -89c0 -37 11 -49 93 -86c112 -50 136 -87 136 -176c0 -154 -103 -235 -257 -235c-106 0 -208 41 -208 41l23 99s113 -20 183 -20c75 0 119 24 119 99
c0 38 -13 50 -101 90c-90 41 -128 82 -128 172c0 126 88 223 231 223c109 0 209 -38 209 -38z" />
    <glyph glyph-name="scaron" unicode="&#x161;" horiz-adv-x="432" 
d="M494 480l-24 -99s-103 16 -168 16c-41 0 -62 -22 -62 -49c0 -22 17 -30 71 -47c85 -27 133 -46 133 -123c0 -130 -95 -190 -225 -190c-97 0 -173 34 -173 34l25 98s96 -18 163 -18c55 0 73 21 73 49c0 18 -20 26 -62 38c-85 24 -139 52 -139 124c0 130 100 198 208 198
c106 0 180 -31 180 -31zM387 575h-85l-82 175h123l29 -66l53 66h129z" />
    <glyph glyph-name="Tcedilla" unicode="&#x162;" horiz-adv-x="456" 
d="M341 -124c-16 -68 -60 -105 -129 -105c-41 0 -84 11 -84 11l20 81s30 -1 46 -1c26 0 38 8 42 24c5 18 -9 20 -31 20h-22l21 94h-46l129 560h-149l28 120h438l-28 -120h-151l-129 -560h-41l-9 -33h6c61 0 106 -18 89 -91z" />
    <glyph glyph-name="tcedilla" unicode="&#x163;" horiz-adv-x="329" 
d="M304 -124c-16 -68 -60 -105 -129 -105c-41 0 -84 11 -84 11l20 81s30 -1 46 -1c26 0 38 8 42 24c5 18 -9 20 -31 20h-22l20 90c-45 15 -67 54 -67 100c0 31 7 69 15 102l44 188h-54l30 114h51l29 128h134l-29 -128h105l-28 -114h-104l-46 -200c-4 -17 -8 -42 -8 -56
c0 -19 8 -28 29 -28c26 0 68 5 68 5l-11 -96s-51 -22 -109 -23l-6 -21h6c61 0 106 -18 89 -91z" />
    <glyph glyph-name="Tcaron" unicode="&#x164;" horiz-adv-x="456" 
d="M595 927l-160 -151h-92l-93 151h132l29 -57l53 57h131zM138 560l28 120h438l-28 -120h-151l-129 -560h-138l129 560h-149z" />
    <glyph glyph-name="tcaron" unicode="&#x165;" horiz-adv-x="464" 
d="M631 680l-60 -251h-123l61 251h122zM396 386h-104l-46 -200c-4 -17 -8 -42 -8 -56c0 -19 8 -28 29 -28c26 0 68 5 68 5l-11 -96s-53 -23 -112 -23c-75 0 -113 49 -113 108c0 31 7 69 15 102l44 188h-54l30 114h51l29 128h134l-29 -128h105z" />
    <glyph glyph-name="Tbar" unicode="&#x166;" horiz-adv-x="461" 
d="M141 560l28 120h438l-28 -120h-151l-45 -193h128l-29 -119h-126l-57 -248h-138l57 248h-121l27 119h121l45 193h-149z" />
    <glyph glyph-name="tbar" unicode="&#x167;" horiz-adv-x="332" 
d="M398 386h-104l-16 -70h91l-25 -116h-93l-3 -14c-4 -17 -8 -42 -8 -56c0 -19 8 -28 29 -28c26 0 68 5 68 5l-11 -96s-53 -23 -112 -23c-75 0 -113 49 -113 108c0 31 7 69 15 102v2h-50l25 116h52l17 70h-54l30 114h51l29 128h134l-29 -128h105z" />
    <glyph glyph-name="Utilde" unicode="&#x168;" horiz-adv-x="595" 
d="M650 936l2 -94s-64 -63 -114 -63s-113 43 -150 43c-25 0 -84 -39 -84 -39l-4 93s68 64 116 64c60 0 122 -42 147 -42s87 38 87 38zM353 680l-104 -449c-5 -21 -9 -42 -9 -66c0 -47 32 -57 82 -57c87 0 110 39 129 123l104 449h138l-104 -449
c-39 -170 -119 -243 -279 -243c-124 0 -207 48 -207 154c0 36 6 79 13 111l99 427h138z" />
    <glyph glyph-name="utilde" unicode="&#x169;" horiz-adv-x="513" 
d="M559 747l4 -93s-67 -64 -116 -64c-48 0 -99 44 -130 44c-27 0 -86 -40 -86 -40l-3 92s67 65 115 65c55 0 105 -43 130 -43c24 0 86 39 86 39zM439 500h134l-115 -500h-128l6 49s-61 -61 -127 -61c-91 0 -122 63 -122 141c0 33 14 97 21 126l56 245h134l-54 -235
c-6 -25 -18 -80 -18 -103c0 -37 7 -58 41 -58c32 0 95 60 95 60z" />
    <glyph glyph-name="Umacron" unicode="&#x16a;" horiz-adv-x="595" 
d="M353 680l-104 -449c-5 -21 -9 -42 -9 -66c0 -47 32 -57 82 -57c87 0 110 39 129 123l104 449h138l-104 -449c-39 -170 -119 -243 -279 -243c-124 0 -207 48 -207 154c0 36 6 79 13 111l99 427h138zM305 806l25 109h327l-25 -109h-327z" />
    <glyph glyph-name="umacron" unicode="&#x16b;" horiz-adv-x="513" 
d="M439 500h134l-115 -500h-128l6 49s-61 -61 -127 -61c-91 0 -122 63 -122 141c0 33 14 97 21 126l56 245h134l-54 -235c-6 -25 -18 -80 -18 -103c0 -37 7 -58 41 -58c32 0 95 60 95 60zM230 627l25 109h309l-26 -109h-308z" />
    <glyph glyph-name="Ubreve" unicode="&#x16c;" horiz-adv-x="595" 
d="M323 927h122c-4 -28 9 -39 35 -39s44 16 53 39h122c-30 -87 -80 -144 -197 -144c-99 0 -147 52 -135 144zM353 680l-104 -449c-5 -21 -9 -42 -9 -66c0 -47 32 -57 82 -57c87 0 110 39 129 123l104 449h138l-104 -449c-39 -170 -119 -243 -279 -243
c-124 0 -207 48 -207 154c0 36 6 79 13 111l99 427h138z" />
    <glyph glyph-name="ubreve" unicode="&#x16d;" horiz-adv-x="513" 
d="M439 500h134l-115 -500h-128l6 49s-61 -61 -127 -61c-91 0 -122 63 -122 141c0 33 14 97 21 126l56 245h134l-54 -235c-6 -25 -18 -80 -18 -103c0 -37 7 -58 41 -58c32 0 95 60 95 60zM241 746h121c-2 -23 5 -44 42 -44c32 0 52 14 63 44h121c-32 -96 -96 -156 -218 -156
c-102 0 -143 53 -129 156z" />
    <glyph glyph-name="Uring" unicode="&#x16e;" horiz-adv-x="595" 
d="M619 835c-19 -78 -82 -117 -160 -117c-73 0 -122 38 -102 117c20 81 84 117 160 117c71 0 122 -34 102 -117zM443 835c-4 -19 11 -31 37 -31c27 0 48 12 52 31c6 25 -21 31 -37 31c-27 0 -47 -12 -52 -31zM353 680l-104 -449c-5 -21 -9 -42 -9 -66c0 -47 32 -57 82 -57
c87 0 110 39 129 123l104 449h138l-104 -449c-39 -170 -119 -243 -279 -243c-124 0 -207 48 -207 154c0 36 6 79 13 111l99 427h138z" />
    <glyph glyph-name="uring" unicode="&#x16f;" horiz-adv-x="513" 
d="M299 636c15 61 64 107 128 107c66 0 87 -48 73 -108c-16 -68 -67 -108 -129 -108c-65 0 -88 48 -72 109zM371 636c-5 -15 5 -30 22 -30s31 13 36 29c5 17 -8 28 -22 28c-17 0 -31 -11 -36 -27zM439 500h134l-115 -500h-128l6 49s-61 -61 -127 -61c-91 0 -122 63 -122 141
c0 33 14 97 21 126l56 245h134l-54 -235c-6 -25 -18 -80 -18 -103c0 -37 7 -58 41 -58c32 0 95 60 95 60z" />
    <glyph glyph-name="Uhungarumlaut" unicode="&#x170;" horiz-adv-x="595" 
d="M600 740l-99 40l111 198l109 -45zM396 741l-100 39l112 199l109 -45zM353 680l-104 -449c-5 -21 -9 -42 -9 -66c0 -47 32 -57 82 -57c87 0 110 39 129 123l104 449h138l-104 -449c-39 -170 -119 -243 -279 -243c-124 0 -207 48 -207 154c0 36 6 79 13 111l99 427h138z
" />
    <glyph glyph-name="uhungarumlaut" unicode="&#x171;" horiz-adv-x="513" 
d="M492 563l-81 65l156 190l89 -67zM298 563l-80 65l155 189l89 -66zM439 500h134l-115 -500h-128l6 49s-61 -61 -127 -61c-91 0 -122 63 -122 141c0 33 14 97 21 126l56 245h134l-54 -235c-6 -25 -18 -80 -18 -103c0 -37 7 -58 41 -58c32 0 95 60 95 60z" />
    <glyph glyph-name="Uogonek" unicode="&#x172;" horiz-adv-x="598" 
d="M355 680l-104 -449c-5 -21 -9 -42 -9 -66c0 -47 32 -57 82 -57c87 0 110 39 129 123l104 449h138l-104 -449c-33 -145 -97 -219 -214 -238c-25 -20 -57 -56 -57 -75c0 -7 3 -14 13 -14c7 0 37 3 37 3l-13 -110s-57 -11 -98 -11c-51 0 -83 26 -83 77c0 47 44 98 80 129
c-92 13 -151 60 -151 150c0 36 6 79 13 111l99 427h138z" />
    <glyph glyph-name="uogonek" unicode="&#x173;" horiz-adv-x="513" 
d="M439 500h134l-115 -500c-26 -14 -75 -58 -75 -82c0 -7 3 -14 13 -14c7 0 37 3 37 3l-13 -110s-57 -11 -98 -11c-51 0 -83 26 -83 77c0 52 53 108 91 138l6 48s-61 -61 -127 -61c-91 0 -122 63 -122 141c0 33 14 97 21 126l56 245h134l-54 -235c-6 -25 -18 -80 -18 -103
c0 -37 7 -58 41 -58c32 0 95 60 95 60z" />
    <glyph glyph-name="Wcircumflex" unicode="&#x174;" horiz-adv-x="865" 
d="M428 779l176 152h80l96 -152h-122l-26 55l-62 -55h-142zM174 680h138l-42 -553h14l226 543h152l-33 -543h14l224 553h138l-291 -680h-200l33 494l-198 -494h-206z" />
    <glyph glyph-name="wcircumflex" unicode="&#x175;" horiz-adv-x="762" 
d="M135 500h135l-32 -386h23l159 376h152l-20 -376h23l149 386h135l-204 -500h-223l19 311l-126 -311h-219zM339 575l168 175h80l86 -175h-122l-24 64l-58 -64h-130z" />
    <glyph glyph-name="Ycircumflex" unicode="&#x176;" horiz-adv-x="504" 
d="M251 779l176 152h80l96 -152h-122l-26 55l-62 -55h-142zM661 680l-280 -392l-68 -288h-128l68 294l-95 386h140l48 -265l169 265h146z" />
    <glyph glyph-name="ycircumflex" unicode="&#x177;" horiz-adv-x="464" 
d="M126 500h131l-14 -389h15l174 389h135l-332 -710h-133l103 210h-83zM184 575l168 175h80l86 -175h-122l-24 64l-58 -64h-130z" />
    <glyph glyph-name="Ydieresis" unicode="&#x178;" horiz-adv-x="504" 
d="M273 788l31 135h111l-32 -135h-110zM472 788l31 135h111l-33 -135h-109zM661 680l-280 -392l-68 -288h-128l68 294l-95 386h140l48 -265l169 265h146z" />
    <glyph glyph-name="Zacute" unicode="&#x179;" horiz-adv-x="490" 
d="M316 765l-10 106l264 91l10 -120zM165 560l28 120h418l-32 -139l-353 -397l-6 -24h262l-28 -120h-418l31 137l351 399l5 24h-258z" />
    <glyph glyph-name="zacute" unicode="&#x17a;" horiz-adv-x="414" 
d="M151 500l-29 -114h188l-251 -274l-25 -112h345l29 114h-192l252 275l28 111h-345zM238 576l-10 107l264 91l10 -120z" />
    <glyph glyph-name="Zdotaccent" unicode="&#x17b;" horiz-adv-x="490" 
d="M367 771l32 138h118l-34 -138h-116zM165 560l28 120h418l-32 -139l-353 -397l-6 -24h262l-28 -120h-418l31 137l351 399l5 24h-258z" />
    <glyph glyph-name="zdotaccent" unicode="&#x17c;" horiz-adv-x="414" 
d="M151 500l-29 -114h188l-251 -274l-25 -112h345l29 114h-192l252 275l28 111h-345zM276 582l32 137h116l-32 -137h-116z" />
    <glyph glyph-name="Zcaron" unicode="&#x17d;" horiz-adv-x="490" 
d="M630 927l-160 -151h-92l-93 151h132l29 -57l53 57h131zM165 560l28 120h418l-32 -139l-353 -397l-6 -24h262l-28 -120h-418l31 137l351 399l5 24h-258z" />
    <glyph glyph-name="zcaron" unicode="&#x17e;" horiz-adv-x="414" 
d="M377 575h-85l-82 175h123l29 -66l53 66h129zM122 386l29 114h345l-28 -111l-252 -275h192l-29 -114h-345l25 112l251 274h-188z" />
    <glyph glyph-name="florin" unicode="&#x192;" 
d="M412 375l-105 -438c-34 -143 -91 -180 -197 -180c-32 0 -93 13 -93 13l24 106s50 -3 77 -3s48 16 59 64l104 438h-88l28 124h89l6 21c41 143 83 188 185 188c36 0 89 -6 122 -13l-27 -112s-59 2 -89 2c-40 0 -58 -37 -64 -73l-2 -13h133l-29 -124h-133z" />
    <glyph glyph-name="Aringacute" unicode="&#x1fa;" horiz-adv-x="551" 
d="M13 0l300 666c-3 15 -2 31 3 51c20 81 84 117 160 117c71 0 122 -34 102 -117c-5 -19 -12 -36 -22 -50l-20 -667h-138l4 118h-198l-53 -118h-138zM355 856l-10 107l264 91l10 -120zM400 560l-144 -322h151l14 322h-21zM402 717c-4 -19 11 -31 37 -31c27 0 48 12 52 31
c6 25 -21 31 -37 31c-27 0 -47 -12 -52 -31z" />
    <glyph glyph-name="aringacute" unicode="&#x1fb;" horiz-adv-x="528" 
d="M365 758l-11 117l264 91l11 -130zM221 -12c-102 0 -141 78 -141 182c0 136 72 342 254 342c73 0 250 -33 250 -33l-75 -323c-14 -62 -27 -153 -27 -153l-133 -5s9 61 13 78c0 0 -64 -88 -141 -88zM338 398c-81 0 -122 -137 -122 -228c0 -43 10 -68 51 -68s117 89 117 89
l46 193s-66 14 -92 14zM325 636c15 61 64 107 128 107c66 0 87 -48 73 -108c-16 -68 -67 -108 -129 -108c-65 0 -88 48 -72 109zM397 636c-5 -15 5 -30 22 -30s31 13 36 29c5 17 -8 28 -22 28c-17 0 -31 -11 -36 -27z" />
    <glyph glyph-name="AEacute" unicode="&#x1fc;" horiz-adv-x="754" 
d="M313 0l28 119h-143l-53 -119h-131l308 690h559l-30 -131l-276 2l-38 -159h220l-29 -125h-221l-35 -147h276l-29 -130h-406zM393 560l-137 -313h116l73 313h-52zM494 765l-10 106l264 91l10 -120z" />
    <glyph glyph-name="aeacute" unicode="&#x1fd;" horiz-adv-x="714" 
d="M521 109c69 0 172 9 172 9l-23 -102s-91 -28 -187 -28c-63 0 -113 15 -139 49c-30 -16 -128 -49 -176 -49c-86 0 -131 84 -111 165c22 96 82 136 153 149c45 8 92 11 139 10c9 25 13 74 -25 74c-70 0 -182 -14 -182 -14l21 117s127 22 196 22c50 0 92 -11 114 -41
c37 27 82 41 133 41c100 0 149 -51 154 -133c2 -32 -4 -69 -13 -101l-23 -85l-269 2c-3 -14 -4 -29 -2 -41c5 -26 24 -44 68 -44zM215 103c26 0 68 5 101 13c-4 30 1 63 10 96c-18 0 -52 -2 -79 -4c-29 -2 -55 -21 -62 -51c-5 -22 1 -54 30 -54zM478 296l150 -2
c6 24 8 47 5 64c-5 23 -22 38 -57 38c-60 0 -83 -41 -98 -100zM387 576l-10 107l264 91l10 -120z" />
    <glyph glyph-name="Oslashacute" unicode="&#x1fe;" horiz-adv-x="617" 
d="M120 -121l-66 40l91 134c-28 34 -43 81 -43 143c0 166 50 337 156 429c51 44 116 67 191 67c44 0 83 -6 115 -20l91 133l74 -31l-102 -150c27 -33 43 -79 43 -140c0 -172 -50 -349 -164 -438c-49 -38 -119 -58 -190 -58c-42 0 -78 7 -109 19zM388 755l-11 116l264 91
l11 -130zM340 108c31 0 61 11 84 34c66 66 104 214 104 328v8l-104 -153l-141 -207c14 -7 33 -10 57 -10zM244 200l110 163l135 199c-14 7 -32 10 -56 10c-30 0 -59 -8 -81 -30c-71 -70 -108 -232 -108 -332v-10z" />
    <glyph glyph-name="oslashacute" unicode="&#x1ff;" horiz-adv-x="496" 
d="M333 511c32 0 60 -4 85 -11l65 106l71 -31l-72 -112c31 -31 48 -77 48 -141c0 -154 -85 -334 -253 -334c-32 0 -61 4 -86 12l-65 -107l-70 31l72 112c-31 30 -48 76 -48 141c0 154 93 334 253 334zM278 576l-10 107l264 91l10 -120zM213 168l63 98l78 128
c-7 2 -14 3 -21 3c-76 0 -120 -118 -120 -222v-7zM277 102c76 0 120 118 120 222v6l-61 -95l-80 -131c6 -1 13 -2 21 -2z" />
    <glyph glyph-name="Scommaaccent" unicode="&#x218;" horiz-adv-x="495" 
d="M180 -72l-97 -237h113l107 237h-123zM586 654l-25 -98s-110 18 -180 18c-60 0 -95 -36 -95 -89c0 -37 11 -49 93 -86c112 -50 136 -87 136 -176c0 -154 -103 -235 -257 -235c-106 0 -208 41 -208 41l23 99s113 -20 183 -20c75 0 119 24 119 99c0 38 -13 50 -101 90
c-90 41 -128 82 -128 172c0 126 88 223 231 223c109 0 209 -38 209 -38z" />
    <glyph glyph-name="scommaaccent" unicode="&#x219;" horiz-adv-x="432" 
d="M494 480l-24 -99s-103 16 -168 16c-41 0 -62 -22 -62 -49c0 -22 17 -30 71 -47c85 -27 133 -46 133 -123c0 -130 -95 -190 -225 -190c-97 0 -173 34 -173 34l25 98s96 -18 163 -18c55 0 73 21 73 49c0 18 -20 26 -62 38c-85 24 -139 52 -139 124c0 130 100 198 208 198
c106 0 180 -31 180 -31zM155 -72l-97 -237h113l107 237h-123z" />
    <glyph glyph-name="Tcommaaccent" unicode="&#x21a;" horiz-adv-x="456" 
d="M155 -72l-97 -237h113l107 237h-123zM138 560l28 120h438l-28 -120h-151l-129 -560h-138l129 560h-149z" />
    <glyph glyph-name="tcommaaccent" unicode="&#x21b;" horiz-adv-x="329" 
d="M396 386h-104l-46 -200c-4 -17 -8 -42 -8 -56c0 -19 8 -28 29 -28c26 0 68 5 68 5l-11 -96s-53 -23 -112 -23c-75 0 -113 49 -113 108c0 31 7 69 15 102l44 188h-54l30 114h51l29 128h134l-29 -128h105zM112 -72l-97 -237h113l107 237h-123z" />
    <glyph glyph-name="circumflex" unicode="&#x2c6;" horiz-adv-x="791" 
d="M353 575l168 175h80l86 -175h-122l-24 64l-58 -64h-130z" />
    <glyph glyph-name="caron" unicode="&#x2c7;" horiz-adv-x="791" 
d="M562 575h-85l-82 175h123l29 -66l53 66h129z" />
    <glyph glyph-name="breve" unicode="&#x2d8;" horiz-adv-x="462" 
d="M210 746h121c-2 -23 5 -44 42 -44c32 0 52 14 63 44h121c-32 -96 -96 -156 -218 -156c-102 0 -143 53 -129 156z" />
    <glyph glyph-name="dotaccent" unicode="&#x2d9;" horiz-adv-x="255" 
d="M206 582l32 137h116l-32 -137h-116z" />
    <glyph glyph-name="ring" unicode="&#x2da;" horiz-adv-x="791" 
d="M302 636c15 61 64 107 128 107c66 0 87 -48 73 -108c-16 -68 -67 -108 -129 -108c-65 0 -88 48 -72 109zM374 636c-5 -15 5 -30 22 -30s31 13 36 29c5 17 -8 28 -22 28c-17 0 -31 -11 -36 -27z" />
    <glyph glyph-name="ogonek" unicode="&#x2db;" horiz-adv-x="450" 
d="M369 -93l-13 -110s-57 -11 -98 -11c-51 0 -83 26 -83 77c0 61 75 128 110 152l108 -10c-23 -14 -74 -63 -74 -87c0 -7 3 -14 13 -14c7 0 37 3 37 3z" />
    <glyph glyph-name="tilde" unicode="&#x2dc;" horiz-adv-x="446" 
d="M528 747l4 -93s-67 -64 -116 -64c-48 0 -99 44 -130 44c-27 0 -86 -40 -86 -40l-3 92s67 65 115 65c55 0 105 -43 130 -43c24 0 86 39 86 39z" />
    <glyph glyph-name="hungarumlaut" unicode="&#x2dd;" horiz-adv-x="689" 
d="M546 563l-81 65l156 190l89 -67zM352 563l-80 65l155 189l89 -66z" />
    <glyph glyph-name="pi" unicode="&#x3c0;" 
d="M384 154v232h-85l-26 -386h-135l32 386c-31 0 -88 -13 -88 -13v109s64 18 150 18h251c57 0 109 12 109 12v-110s-24 -11 -74 -14v-234c0 -33 11 -50 69 -50v-114c-181 0 -203 30 -203 164z" />
    <glyph glyph-name="Wgrave" unicode="&#x1e80;" horiz-adv-x="865" 
d="M517 950l222 -91l-61 -105l-227 77zM174 680h138l-42 -553h14l226 543h152l-33 -543h14l224 553h138l-291 -680h-200l33 494l-198 -494h-206z" />
    <glyph glyph-name="wgrave" unicode="&#x1e81;" horiz-adv-x="762" 
d="M404 772l221 -90l-56 -99l-229 79zM135 500h135l-32 -386h23l159 376h152l-20 -376h23l149 386h135l-204 -500h-223l19 311l-126 -311h-219z" />
    <glyph glyph-name="Wacute" unicode="&#x1e82;" horiz-adv-x="865" 
d="M502 765l-10 106l264 91l10 -120zM174 680h138l-42 -553h14l226 543h152l-33 -543h14l224 553h138l-291 -680h-200l33 494l-198 -494h-206z" />
    <glyph glyph-name="wacute" unicode="&#x1e83;" horiz-adv-x="762" 
d="M135 500h135l-32 -386h23l159 376h152l-20 -376h23l149 386h135l-204 -500h-223l19 311l-126 -311h-219zM400 576l-10 107l264 91l10 -120z" />
    <glyph glyph-name="Wdieresis" unicode="&#x1e84;" horiz-adv-x="865" 
d="M449 788l31 135h111l-32 -135h-110zM648 788l31 135h111l-33 -135h-109zM174 680h138l-42 -553h14l226 543h152l-33 -543h14l224 553h138l-291 -680h-200l33 494l-198 -494h-206z" />
    <glyph glyph-name="wdieresis" unicode="&#x1e85;" horiz-adv-x="762" 
d="M135 500h135l-32 -386h23l159 376h152l-20 -376h23l149 386h135l-204 -500h-223l19 311l-126 -311h-219zM356 601l31 135h111l-32 -135h-110zM550 601l31 135h111l-32 -135h-110z" />
    <glyph glyph-name="uni1EAB" unicode="&#x1eab;" horiz-adv-x="528" 
d="M221 -12c-102 0 -141 78 -141 182c0 136 72 342 254 342c73 0 250 -33 250 -33l-75 -323c-14 -62 -27 -153 -27 -153l-133 -5s9 61 13 78c0 0 -64 -88 -141 -88zM338 398c-81 0 -122 -137 -122 -228c0 -43 10 -68 51 -68s117 89 117 89l46 193s-66 14 -92 14zM628 907
l4 -93s-67 -64 -116 -64c-48 0 -99 44 -130 44c-27 0 -86 -40 -86 -40l-3 92s67 65 115 65c55 0 105 -43 130 -43c24 0 86 39 86 39zM236 545l168 175h80l86 -175h-122l-24 64l-58 -64h-130z" />
    <glyph glyph-name="uni1EB0" unicode="&#x1eb0;" horiz-adv-x="551" 
d="M442 1133l221 -90l-56 -99l-229 79zM13 0l306 680h238l-21 -680h-138l4 118h-198l-53 -118h-138zM400 560l-144 -322h151l14 322h-21zM316 887h122c-4 -28 9 -39 35 -39s44 16 53 39h122c-30 -87 -80 -144 -197 -144c-99 0 -147 52 -135 144z" />
    <glyph glyph-name="uni1EC5" unicode="&#x1ec5;" horiz-adv-x="476" 
d="M603 907l4 -93s-67 -64 -116 -64c-48 0 -99 44 -130 44c-27 0 -86 -40 -86 -40l-3 92s67 65 115 65c55 0 105 -43 130 -43c24 0 86 39 86 39zM288 102c68 0 166 13 166 13l-15 -99s-93 -28 -189 -28c-115 0 -169 53 -169 170c0 181 79 353 274 353
c107 0 175 -42 175 -149c0 -131 -86 -167 -277 -167h-35c-2 -8 -3 -22 -3 -34c0 -40 33 -59 73 -59zM233 294h41c94 0 124 19 124 66c0 32 -18 43 -50 43c-59 0 -98 -37 -115 -109zM204 545l168 175h80l86 -175h-122l-24 64l-58 -64h-130z" />
    <glyph glyph-name="uni1ED7" unicode="&#x1ed7;" horiz-adv-x="496" 
d="M333 511c124 0 197 -55 197 -189c0 -154 -85 -334 -253 -334c-124 0 -197 55 -197 189c0 154 93 334 253 334zM277 102c76 0 120 118 120 222c0 46 -22 73 -64 73c-76 0 -120 -118 -120 -222c0 -46 22 -73 64 -73zM597 907l4 -93s-67 -64 -116 -64c-48 0 -99 44 -130 44
c-27 0 -86 -40 -86 -40l-3 92s67 65 115 65c55 0 105 -43 130 -43c24 0 86 39 86 39zM202 545l168 175h80l86 -175h-122l-24 64l-58 -64h-130z" />
    <glyph glyph-name="Ygrave" unicode="&#x1ef2;" horiz-adv-x="504" 
d="M339 950l222 -91l-61 -105l-227 77zM661 680l-280 -392l-68 -288h-128l68 294l-95 386h140l48 -265l169 265h146z" />
    <glyph glyph-name="ygrave" unicode="&#x1ef3;" horiz-adv-x="464" 
d="M256 772l221 -90l-56 -99l-229 79zM126 500h131l-14 -389h15l174 389h135l-332 -710h-133l103 210h-83z" />
    <glyph glyph-name="uni1EF8" unicode="&#x1ef8;" horiz-adv-x="504" 
d="M612 938l4 -93s-67 -64 -116 -64c-48 0 -99 44 -130 44c-27 0 -86 -40 -86 -40l-3 92s67 65 115 65c55 0 105 -43 130 -43c24 0 86 39 86 39zM661 680l-280 -392l-68 -288h-128l68 294l-95 386h140l48 -265l169 265h146z" />
    <glyph glyph-name="uni1EF9" unicode="&#x1ef9;" horiz-adv-x="464" 
d="M548 747l4 -93s-67 -64 -116 -64c-48 0 -99 44 -130 44c-27 0 -86 -40 -86 -40l-3 92s67 65 115 65c55 0 105 -43 130 -43c24 0 86 39 86 39zM126 500h131l-14 -389h15l174 389h135l-332 -710h-133l103 210h-83z" />
    <glyph glyph-name="endash" unicode="&#x2013;" horiz-adv-x="526" 
d="M75 323h500v-114h-500v114z" />
    <glyph glyph-name="emdash" unicode="&#x2014;" horiz-adv-x="1026" 
d="M75 323h1000v-114h-1000v114z" />
    <glyph glyph-name="quoteleft" unicode="&#x2018;" horiz-adv-x="174" 
d="M233 679h100l-105 -255h-132z" />
    <glyph glyph-name="quoteright" unicode="&#x2019;" horiz-adv-x="174" 
d="M196 425h-100l105 255h132z" />
    <glyph glyph-name="quotesinglbase" unicode="&#x201a;" horiz-adv-x="150" 
d="M34 -165h-100l105 255h132z" />
    <glyph glyph-name="quotedblleft" unicode="&#x201c;" horiz-adv-x="363" 
d="M231 680h100l-105 -255h-132zM421 680h100l-105 -255h-132z" />
    <glyph glyph-name="quotedblright" unicode="&#x201d;" horiz-adv-x="364" 
d="M196 425h-100l105 255h132zM386 425h-100l105 255h132z" />
    <glyph glyph-name="quotedblbase" unicode="&#x201e;" horiz-adv-x="347" 
d="M266 85h100l-105 -255h-132zM46 85h100l-105 -255h-132z" />
    <glyph glyph-name="dagger" unicode="&#x2020;" horiz-adv-x="454" 
d="M112 362l30 135h138l40 171h125l-40 -171h136l-29 -135h-138l-103 -432h-124l101 432h-136z" />
    <glyph glyph-name="daggerdbl" unicode="&#x2021;" horiz-adv-x="473" 
d="M157 -70l39 170h-137l31 135h138l30 127h-136l30 135l138 -1l40 172h125l-40 -171h135l-29 -135h-137l-31 -127h138l-32 -135h-138l-40 -170h-124z" />
    <glyph glyph-name="bullet" unicode="&#x2022;" horiz-adv-x="458" 
d="M160 100v280h250v-280h-250z" />
    <glyph glyph-name="ellipsis" unicode="&#x2026;" horiz-adv-x="614" 
d="M8 0l35 153h136l-35 -153h-136zM238 0l35 153h136l-35 -153h-136zM470 0l35 153h136l-35 -153h-136z" />
    <glyph glyph-name="perthousand" unicode="&#x2030;" horiz-adv-x="833" 
d="M291 621c18 0 18 -19 6 -65c-11 -46 -20 -66 -38 -66s-17 20 -6 66c12 46 20 65 38 65zM144 -2l372 722l80 -23l-371 -721zM155 556c-24 -97 7 -146 84 -146s132 49 156 146s-7 145 -84 145s-132 -48 -156 -145zM345 146c24 97 79 145 156 145s108 -48 84 -145
s-79 -146 -156 -146s-108 49 -84 146zM443 146c-12 -46 -13 -66 5 -66s27 20 39 66c11 46 12 65 -6 65s-27 -19 -38 -65zM602 146c24 97 79 145 156 145s108 -48 84 -145s-79 -146 -156 -146s-108 49 -84 146zM700 146c-12 -46 -13 -66 5 -66s27 20 39 66c11 46 12 65 -6 65
s-27 -19 -38 -65z" />
    <glyph glyph-name="guilsinglleft" unicode="&#x2039;" horiz-adv-x="232" 
d="M326 436l-37 -131l-113 -65l80 -77l-33 -120l-170 169l23 61z" />
    <glyph glyph-name="guilsinglright" unicode="&#x203a;" horiz-adv-x="234" 
d="M19 43l37 131l113 65l-80 77l33 120l170 -169l-23 -61z" />
    <glyph glyph-name="fraction" unicode="&#x2044;" horiz-adv-x="73" 
d="M-32 -32l-126 44l431 698l126 -44z" />
    <glyph glyph-name="zerosuperior" unicode="&#x2070;" horiz-adv-x="280" 
d="M328 801c82 0 119 -41 87 -169c-18 -73 -41 -119 -75 -143c-26 -18 -58 -22 -95 -22c-85 0 -120 37 -88 165c18 73 43 120 77 145c26 19 58 24 94 24zM305 706c-13 0 -21 -8 -38 -74c-16 -65 -11 -70 2 -70c14 0 20 5 36 70c17 66 14 74 0 74z" />
    <glyph glyph-name="foursuperior" unicode="&#x2074;" horiz-adv-x="280" 
d="M258 478l8 35h-135l22 88l89 189h118l-97 -182h27l37 90h91l-23 -90h11l-24 -95h-11l-8 -35h-105z" />
    <glyph glyph-name="fivesuperior" unicode="&#x2075;" horiz-adv-x="280" 
d="M227 790h207l-22 -90h-124l-9 -25s29 6 45 6c57 0 86 -30 69 -99c-21 -80 -66 -111 -146 -111c-52 0 -115 14 -115 14l30 85s53 -9 90 -9c17 0 27 5 29 15c3 11 0 16 -10 16c-9 0 -27 -4 -27 -4l-75 11z" />
    <glyph glyph-name="sixsuperior" unicode="&#x2076;" horiz-adv-x="280" 
d="M442 789l-27 -87s-65 6 -93 6c-26 0 -36 -13 -39 -26c14 3 29 5 39 5c71 0 95 -36 78 -105c-21 -80 -73 -115 -148 -115c-92 0 -117 58 -92 155c28 112 75 179 181 179c36 0 101 -12 101 -12zM281 601c-12 0 -21 -8 -21 -8c-4 -19 -1 -34 10 -34c10 0 19 8 22 21
c4 14 -1 21 -11 21z" />
    <glyph glyph-name="sevensuperior" unicode="&#x2077;" horiz-adv-x="280" 
d="M183 685l26 105h227l-25 -101l-150 -221l-121 21l139 183l3 13h-99z" />
    <glyph glyph-name="eightsuperior" unicode="&#x2078;" horiz-adv-x="280" 
d="M329 801c84 0 116 -32 102 -90c-11 -45 -45 -71 -45 -71s27 -18 14 -68c-20 -79 -72 -105 -154 -105c-83 0 -122 26 -102 105c11 45 49 69 49 69s-22 20 -9 71c14 57 60 89 145 89zM267 552c13 0 21 9 25 22c2 8 -2 19 -6 25h-14c-8 -6 -16 -17 -18 -25
c-4 -13 0 -22 13 -22zM308 716c-11 0 -19 -6 -23 -19c-2 -8 2 -19 5 -25h14c7 6 15 17 17 25c3 12 -1 19 -13 19z" />
    <glyph glyph-name="ninesuperior" unicode="&#x2079;" horiz-adv-x="280" 
d="M132 481l28 87s48 -6 86 -6c27 0 36 13 38 23c1 1 -19 -4 -36 -4c-68 0 -93 35 -76 104c19 74 73 116 148 116c93 0 117 -58 90 -165c-29 -115 -72 -169 -173 -169c-48 0 -105 14 -105 14zM290 663c8 0 20 6 20 6c7 27 3 39 -9 39c-10 0 -18 -9 -22 -23
c-3 -14 3 -22 11 -22z" />
    <glyph glyph-name="zeroinferior" unicode="&#x2080;" horiz-adv-x="280" 
d="M218 323c82 0 119 -41 87 -169c-18 -73 -41 -119 -75 -143c-26 -18 -58 -22 -95 -22c-85 0 -120 37 -88 165c18 73 43 120 77 145c26 19 58 24 94 24zM195 228c-13 0 -21 -8 -38 -74c-16 -65 -11 -70 2 -70c14 0 20 5 36 70c17 66 14 74 0 74z" />
    <glyph glyph-name="oneinferior" unicode="&#x2081;" horiz-adv-x="280" 
d="M65 137l124 75h96l-77 -312h-106l48 195l-55 -32z" />
    <glyph glyph-name="twoinferior" unicode="&#x2082;" horiz-adv-x="280" 
d="M227 -100h-231l22 90l88 59c41 27 56 42 60 57c3 12 -8 15 -33 15c-22 0 -78 -6 -78 -6l21 99s75 9 120 9c83 0 104 -29 86 -100c-11 -45 -33 -71 -81 -100l-45 -28h94z" />
    <glyph glyph-name="threeinferior" unicode="&#x2083;" horiz-adv-x="280" 
d="M74 214c0 0 70 9 110 9c80 0 114 -28 99 -89c-8 -34 -25 -59 -46 -70c20 -10 27 -30 16 -73c-17 -69 -70 -102 -143 -102c-49 0 -119 8 -119 8l29 93s60 -6 93 -6c21 0 30 4 33 16s-5 14 -23 14h-66l21 85h64c13 0 21 4 24 14c3 12 -7 15 -23 15c-37 0 -86 -5 -86 -5z
" />
    <glyph glyph-name="fourinferior" unicode="&#x2084;" horiz-adv-x="280" 
d="M125 -100l8 35h-135l22 88l89 189h118l-97 -182h27l37 90h91l-23 -90h11l-24 -95h-11l-8 -35h-105z" />
    <glyph glyph-name="fiveinferior" unicode="&#x2085;" horiz-adv-x="280" 
d="M89 212h207l-22 -90h-124l-9 -25s29 6 45 6c57 0 86 -30 69 -99c-21 -80 -66 -111 -146 -111c-52 0 -115 14 -115 14l30 85s53 -9 90 -9c17 0 27 5 29 15c3 11 0 16 -10 16c-9 0 -27 -4 -27 -4l-75 11z" />
    <glyph glyph-name="sixinferior" unicode="&#x2086;" horiz-adv-x="280" 
d="M308 211l-27 -87s-65 6 -93 6c-26 0 -36 -13 -39 -26c14 3 29 5 39 5c71 0 95 -36 78 -105c-21 -80 -73 -115 -148 -115c-92 0 -117 58 -92 155c28 112 75 179 181 179c36 0 101 -12 101 -12zM147 23c-12 0 -21 -8 -21 -8c-4 -19 -1 -34 10 -34c10 0 19 8 22 21
c4 14 -1 21 -11 21z" />
    <glyph glyph-name="seveninferior" unicode="&#x2087;" horiz-adv-x="280" 
d="M50 107l26 105h227l-25 -101l-150 -221l-121 21l139 183l3 13h-99z" />
    <glyph glyph-name="eightinferior" unicode="&#x2088;" horiz-adv-x="280" 
d="M194 223c84 0 116 -32 102 -90c-11 -45 -45 -71 -45 -71s27 -18 14 -68c-20 -79 -72 -105 -154 -105c-83 0 -122 26 -102 105c11 45 49 69 49 69s-22 20 -9 71c14 57 60 89 145 89zM132 -26c13 0 21 9 25 22c2 8 -2 19 -6 25h-14c-8 -6 -16 -17 -18 -25
c-4 -13 0 -22 13 -22zM173 138c-11 0 -19 -6 -23 -19c-2 -8 2 -19 5 -25h14c7 6 15 17 17 25c3 12 -1 19 -13 19z" />
    <glyph glyph-name="nineinferior" unicode="&#x2089;" horiz-adv-x="280" 
d="M-1 -97l28 87s48 -6 86 -6c27 0 36 13 38 23c1 1 -19 -4 -36 -4c-68 0 -93 35 -76 104c19 74 73 116 148 116c93 0 117 -58 90 -165c-29 -115 -72 -169 -173 -169c-48 0 -105 14 -105 14zM157 85c8 0 20 6 20 6c7 27 3 39 -9 39c-10 0 -18 -9 -22 -23
c-3 -14 3 -22 11 -22z" />
    <glyph glyph-name="Euro" unicode="&#x20ac;" 
d="M523 117l-11 -103s-90 -26 -164 -26c-135 0 -199 69 -199 192v3h-58l24 105h41c4 23 8 46 14 69h-40l25 105h49c52 117 142 210 285 210c80 0 166 -29 166 -29l-31 -99s-60 11 -140 11c-56 0 -102 -37 -135 -93h206l-24 -105h-223c-6 -22 -11 -45 -14 -69h222l-24 -105
h-205c1 -50 25 -78 79 -78c75 0 157 12 157 12z" />
    <glyph glyph-name="trademark" unicode="&#x2122;" horiz-adv-x="689" 
d="M214 565v79h200v-79h-41v-233h-88v233h-71zM439 331v313h103l41 -158l45 158h102v-313h-82v174l-34 -153h-55l-38 153v-174h-82z" />
    <glyph glyph-name="Omega" unicode="&#x2126;" 
d="M115 105h80s-92 108 -92 280c0 199 67 287 240 287s240 -88 240 -287c0 -172 -92 -280 -92 -280h80v-114h-208v99s78 135 78 260c0 146 -13 202 -98 202s-98 -56 -98 -202c0 -125 78 -260 78 -260v-99h-208v114z" />
    <glyph glyph-name="partialdiff" unicode="&#x2202;" 
d="M166 564l-4 103s85 45 181 45c183 0 256 -119 256 -365c0 -241 -73 -356 -255 -356c-153 0 -235 73 -235 225c0 142 79 222 219 222c68 0 127 -24 127 -24c-8 136 -35 184 -135 184c-73 0 -154 -34 -154 -34zM345 324c-69 0 -92 -46 -92 -108c0 -68 24 -111 91 -111
c72 0 111 55 111 197c0 0 -38 22 -110 22z" />
    <glyph glyph-name="Delta" unicode="&#x2206;" 
d="M82 104l124 556h225l123 -558v-102h-472v104zM332 548h-27l-90 -434h206z" />
    <glyph glyph-name="product" unicode="&#x220f;" 
d="M429 -180v820h-113v-820h-138v820h-53v120h499v-120h-57v-820h-138z" />
    <glyph glyph-name="summation" unicode="&#x2211;" 
d="M334 298l-238 322v140h500v-120h-354v-15l215 -281v-93l-215 -296v-15h354v-120h-500v139z" />
    <glyph glyph-name="minus" unicode="&#x2212;" 
d="M119 191v120h436v-120h-436z" />
    <glyph glyph-name="radical" unicode="&#x221a;" 
d="M101 320v120h166l92 -456h13l163 807h136l-200 -921h-214l-102 450h-54z" />
    <glyph glyph-name="infinity" unicode="&#x221e;" 
d="M233 121c-90 0 -139 56 -139 170c0 116 49 172 137 172c48 0 85 -19 116 -78c31 59 67 78 116 78c88 0 137 -56 137 -171s-49 -171 -139 -171c-47 0 -84 18 -114 77c-31 -59 -67 -77 -114 -77zM302 292c-17 34 -31 56 -50 56c-28 0 -36 -23 -36 -57c0 -32 9 -55 36 -55
c19 0 33 24 50 56zM392 292c17 -32 31 -56 50 -56c27 0 36 23 36 55c0 34 -8 57 -36 57c-19 0 -33 -22 -50 -56z" />
    <glyph glyph-name="integral" unicode="&#x222b;" 
d="M416 -16c0 -142 -67 -183 -149 -183c-39 0 -97 13 -97 13l4 110s25 -3 53 -3c38 0 51 16 51 66v606c0 143 39 188 149 188c38 0 105 -14 105 -14l-4 -110s-32 4 -64 4c-38 0 -48 -19 -48 -69v-608z" />
    <glyph glyph-name="approxequal" unicode="&#x2248;" 
d="M546 423l9 -107s-54 -51 -115 -51c-54 0 -167 44 -206 44c-48 0 -110 -39 -110 -39l-10 107s64 52 124 52c55 0 157 -44 205 -44c40 0 103 38 103 38zM546 203l9 -107s-54 -51 -115 -51c-54 0 -167 44 -206 44c-48 0 -110 -39 -110 -39l-10 107s64 52 124 52
c55 0 157 -44 205 -44c40 0 103 38 103 38z" />
    <glyph glyph-name="notequal" unicode="&#x2260;" 
d="M116 295v121h228l68 154l104 -41l-50 -113h94v-121h-147l-38 -87h185v-121h-238l-63 -143l-104 41l45 102h-84v121h137l38 87h-175z" />
    <glyph glyph-name="lessequal" unicode="&#x2264;" 
d="M539 386l-272 -49l272 -54v-130l-421 121v116l421 126v-130zM118 19v120h421v-120h-421z" />
    <glyph glyph-name="greaterequal" unicode="&#x2265;" 
d="M402 337l-272 49v130l421 -126v-116l-421 -121v130zM551 139v-120h-421v120h421z" />
    <glyph glyph-name="lozenge" unicode="&#x25ca;" 
d="M268 0l-149 324l149 336h175l148 -336l-148 -324h-175zM364 114l94 210l-94 222h-17l-95 -222l95 -210h17z" />
    <glyph glyph-name="dotlessj" unicode="&#xf6be;" horiz-adv-x="244" 
d="M55 0l115 500h134l-115 -500c-32 -138 -42 -153 -217 -230l-42 107c104 54 111 62 125 123z" />
    <glyph glyph-name="commaaccent" unicode="&#xf6c3;" horiz-adv-x="161" 
d="M-77 -309l97 237h123l-107 -237h-113z" />
    <glyph glyph-name=".null" horiz-adv-x="0" 
 />
    <glyph glyph-name="CR" horiz-adv-x="223" 
 />
    <glyph glyph-name="DLE" horiz-adv-x="0" 
 />
    <glyph glyph-name="zero.pnum" horiz-adv-x="504" 
d="M371 509c130 0 197 -53 197 -181c0 -100 -41 -216 -136 -282c-49 -34 -114 -54 -193 -54c-112 0 -190 52 -190 164c0 119 52 244 154 309c46 29 103 44 168 44zM342 382c-95 0 -142 -107 -142 -195c0 -41 27 -69 72 -69c135 0 143 170 143 183c0 57 -28 81 -73 81z" />
    <glyph glyph-name="one.pnum" horiz-adv-x="344" 
d="M80 372l232 128h138l-124 -500h-148l83 334l-143 -77z" />
    <glyph glyph-name="two.pnum" horiz-adv-x="422" 
d="M417 0h-414l30 123l106 71c74 49 186 129 186 159c0 16 -15 25 -70 25c-68 0 -154 -14 -154 -15l22 120s106 26 199 26c125 0 167 -62 167 -122c0 -90 -50 -135 -129 -189l-100 -69h189z" />
    <glyph glyph-name="three.pnum" horiz-adv-x="427" 
d="M127 485c0 0 115 25 195 25c151 0 183 -61 183 -109c0 -96 -63 -131 -108 -141c46 -13 66 -43 66 -75c0 -92 -66 -194 -258 -194c-93 0 -203 23 -203 23l42 117s112 -11 178 -11c58 0 104 8 104 44c0 18 -26 26 -79 26h-128l30 120h128c52 0 84 11 84 43
c0 20 -16 28 -72 28c-76 0 -178 -12 -178 -12z" />
    <glyph glyph-name="four.pnum" horiz-adv-x="468" 
d="M262 0l21 84h-263l27 103l227 313h159l-218 -295h99l27 110h138l-27 -110h61l-29 -121h-63l-21 -84h-138z" />
    <glyph glyph-name="five.pnum" horiz-adv-x="461" 
d="M160 500h395l-33 -132h-271l-30 -62s45 15 93 15c104 0 183 -28 183 -138c0 -117 -89 -192 -260 -192c-89 0 -232 33 -232 33l42 121s132 -32 206 -32c58 0 100 14 100 53c0 26 -21 39 -80 39c-41 0 -107 -19 -107 -19l-100 23z" />
    <glyph glyph-name="six.pnum" horiz-adv-x="462" 
d="M551 482l-39 -107s-76 15 -156 15c-86 0 -123 -27 -142 -98c31 15 72 26 118 26c123 0 167 -44 167 -124c0 -119 -74 -204 -264 -204c-129 0 -183 74 -183 173c0 197 122 348 316 348c74 0 183 -29 183 -29zM292 208c-59 0 -105 -23 -105 -23c-1 -4 -2 -10 -2 -16
c0 -27 7 -70 79 -70c74 0 100 32 100 72c0 25 -20 37 -72 37z" />
    <glyph glyph-name="seven.pnum" horiz-adv-x="411" 
d="M88 377l32 124h404l-41 -167l-298 -359l-112 63l261 306l9 33h-255z" />
    <glyph glyph-name="eight.pnum" horiz-adv-x="478" 
d="M361 509c132 0 196 -55 196 -115c0 -55 -33 -101 -100 -129c44 -34 54 -70 54 -96c0 -85 -63 -179 -279 -179c-129 0 -202 52 -202 119c0 70 48 124 118 156c-48 36 -49 70 -49 81c0 82 86 163 262 163zM264 117c86 0 101 30 101 52c0 18 -12 27 -36 31h-88
c-42 -6 -56 -31 -56 -49s16 -34 79 -34zM332 392c-86 0 -87 -34 -87 -47c0 -10 4 -19 26 -28h88c35 12 45 29 45 46c0 16 -16 29 -72 29z" />
    <glyph glyph-name="nine.pnum" horiz-adv-x="459" 
d="M24 19l39 107s76 -15 156 -15c86 0 123 27 142 98c-32 -13 -72 -26 -118 -26c-123 0 -167 44 -167 124c0 95 80 204 264 204c129 0 183 -74 183 -173c0 -197 -122 -348 -316 -348c-74 0 -183 29 -183 29zM283 293c59 0 105 23 105 23c1 4 2 10 2 16c0 27 -7 70 -79 70
c-74 0 -100 -32 -100 -72c0 -25 20 -37 72 -37z" />
    <glyph glyph-name="questiondown.cap" horiz-adv-x="378" 
d="M44 164c0 95 41 139 151 215c36 25 57 51 62 73l9 40h126s0 -49 -8 -90c-6 -34 -38 -70 -94 -110c-71 -50 -104 -77 -104 -114c0 -45 28 -50 73 -50c70 0 143 12 143 12l-14 -105s-90 -27 -160 -27c-113 0 -184 44 -184 156zM446 700l-38 -168h-136l38 168h136z" />
    <glyph glyph-name="endash.cap" horiz-adv-x="527" 
d="M82 353h500v-114h-500v114z" />
    <glyph glyph-name="emdash.cap" horiz-adv-x="1027" 
d="M82 353h1000v-114h-1000v114z" />
    <glyph glyph-name="periodcentered.cap" horiz-adv-x="152" 
d="M66 247l38 169h135l-38 -169h-135z" />
    <glyph glyph-name="exclamdown.cap" horiz-adv-x="163" 
d="M243 422l-95 -442h-143l112 442h126zM306 680l-35 -153h-136l35 153h136z" />
    <glyph glyph-name="parenleft.cap" horiz-adv-x="234" 
d="M294 778h125s-220 -329 -220 -616c0 -140 16 -255 16 -255h-128s-29 97 -29 255c0 317 236 616 236 616z" />
    <glyph glyph-name="parenright.cap" horiz-adv-x="236" 
d="M101 -88h-125s220 329 220 616c0 140 -16 255 -16 255h128s29 -97 29 -255c0 -317 -236 -616 -236 -616z" />
    <glyph glyph-name="bracketleft.cap" horiz-adv-x="245" 
d="M193 777h229l-28 -114h-88l-149 -641h88l-28 -114h-226z" />
    <glyph glyph-name="bracketright.cap" horiz-adv-x="245" 
d="M210 -92h-229l28 114h88l149 641h-88l28 114h226z" />
    <glyph glyph-name="braceleft.cap" horiz-adv-x="288" 
d="M272 249c0 -38 -45 -153 -45 -189c0 -30 20 -48 58 -48l-31 -115c-96 0 -159 45 -159 125c0 41 42 158 42 198c0 30 -16 58 -67 85l24 95c88 23 98 45 109 87c7 24 29 146 29 146c34 114 100 151 233 156l-22 -115c-58 -5 -79 -33 -89 -72l-24 -126
c-19 -78 -51 -109 -119 -133c41 -23 61 -46 61 -94z" />
    <glyph glyph-name="braceright.cap" horiz-adv-x="287" 
d="M173 434c0 38 45 153 45 189c0 30 -20 48 -58 48l31 115c96 0 159 -45 159 -125c0 -41 -42 -158 -42 -198c0 -30 16 -58 67 -85l-24 -95c-88 -23 -98 -45 -109 -87c-7 -24 -29 -146 -29 -146c-34 -114 -100 -151 -233 -156l22 115c58 5 79 33 89 72l24 126
c19 78 51 109 119 133c-41 23 -61 46 -61 94z" />
    <glyph glyph-name="grave.cap" horiz-adv-x="513" 
d="M349 950l222 -91l-61 -105l-227 77z" />
    <glyph glyph-name="caron.cap" horiz-adv-x="462" 
d="M593 927l-160 -151h-92l-93 151h132l29 -57l53 57h131z" />
    <glyph glyph-name="tilde.cap" horiz-adv-x="456" 
d="M592 936l2 -94s-64 -63 -114 -63s-113 43 -150 43c-25 0 -84 -39 -84 -39l-4 93s68 64 116 64c60 0 122 -42 147 -42s87 38 87 38z" />
    <glyph glyph-name="dieresis.cap" horiz-adv-x="410" 
d="M256 788l31 135h111l-32 -135h-110zM455 788l31 135h111l-33 -135h-109z" />
    <glyph glyph-name="macron.cap" horiz-adv-x="462" 
d="M249 806l25 109h327l-25 -109h-327z" />
    <glyph glyph-name="breve.cap" horiz-adv-x="462" 
d="M261 927h122c-4 -28 9 -39 35 -39s44 16 53 39h122c-30 -87 -80 -144 -197 -144c-99 0 -147 52 -135 144z" />
    <glyph glyph-name="ring.cap" horiz-adv-x="338" 
d="M452 717c-19 -78 -82 -117 -160 -117c-73 0 -122 38 -102 117c20 81 84 117 160 117c71 0 122 -34 102 -117zM276 717c-4 -19 11 -31 37 -31c27 0 48 12 52 31c6 25 -21 31 -37 31c-27 0 -47 -12 -52 -31z" />
    <glyph glyph-name="hungarumlaut.cap" horiz-adv-x="689" 
d="M616 740l-99 40l111 198l109 -45zM412 741l-100 39l112 199l109 -45z" />
    <glyph glyph-name="dotaccent.cap" horiz-adv-x="255" 
d="M250 771l32 138h118l-34 -138h-116z" />
    <glyph glyph-name="zero.numr" horiz-adv-x="280" 
d="M303 701c82 0 119 -41 87 -169c-18 -73 -41 -119 -75 -143c-26 -18 -58 -22 -95 -22c-85 0 -120 37 -88 165c18 73 43 120 77 145c26 19 58 24 94 24zM280 606c-13 0 -21 -8 -38 -74c-16 -65 -11 -70 2 -70c14 0 20 5 36 70c17 66 14 74 0 74z" />
    <glyph glyph-name="one.numr" horiz-adv-x="280" 
d="M161 615l124 75h96l-77 -312h-106l48 195l-55 -32z" />
    <glyph glyph-name="two.numr" horiz-adv-x="280" 
d="M339 378h-231l22 90l88 59c41 27 56 42 60 57c3 12 -8 15 -33 15c-22 0 -78 -6 -78 -6l21 99s75 9 120 9c83 0 104 -29 86 -100c-11 -45 -33 -71 -81 -100l-45 -28h94z" />
    <glyph glyph-name="three.numr" horiz-adv-x="280" 
d="M189 692c0 0 70 9 110 9c80 0 114 -28 99 -89c-8 -34 -25 -59 -46 -70c20 -10 27 -30 16 -73c-17 -69 -70 -102 -143 -102c-49 0 -119 8 -119 8l29 93s60 -6 93 -6c21 0 30 4 33 16s-5 14 -23 14h-66l21 85h64c13 0 21 4 24 14c3 12 -7 15 -23 15c-37 0 -86 -5 -86 -5z
" />
    <glyph glyph-name="four.numr" horiz-adv-x="280" 
d="M235 378l8 35h-135l22 88l89 189h118l-97 -182h27l37 90h91l-23 -90h11l-24 -95h-11l-8 -35h-105z" />
    <glyph glyph-name="five.numr" horiz-adv-x="280" 
d="M204 690h207l-22 -90h-124l-9 -25s29 6 45 6c57 0 86 -30 69 -99c-21 -80 -66 -111 -146 -111c-52 0 -115 14 -115 14l30 85s53 -9 90 -9c17 0 27 5 29 15c3 11 0 16 -10 16c-9 0 -27 -4 -27 -4l-75 11z" />
    <glyph glyph-name="six.numr" horiz-adv-x="280" 
d="M416 689l-27 -87s-65 6 -93 6c-26 0 -36 -13 -39 -26c14 3 29 5 39 5c71 0 95 -36 78 -105c-21 -80 -73 -115 -148 -115c-92 0 -117 58 -92 155c28 112 75 179 181 179c36 0 101 -12 101 -12zM255 501c-12 0 -21 -8 -21 -8c-4 -19 -1 -34 10 -34c10 0 19 8 22 21
c4 14 -1 21 -11 21z" />
    <glyph glyph-name="seven.numr" horiz-adv-x="280" 
d="M166 585l26 105h227l-25 -101l-150 -221l-121 21l139 183l3 13h-99z" />
    <glyph glyph-name="eight.numr" horiz-adv-x="280" 
d="M303 701c84 0 116 -32 102 -90c-11 -45 -45 -71 -45 -71s27 -18 14 -68c-20 -79 -72 -105 -154 -105c-83 0 -122 26 -102 105c11 45 49 69 49 69s-22 20 -9 71c14 57 60 89 145 89zM241 452c13 0 21 9 25 22c2 8 -2 19 -6 25h-14c-8 -6 -16 -17 -18 -25
c-4 -13 0 -22 13 -22zM282 616c-11 0 -19 -6 -23 -19c-2 -8 2 -19 5 -25h14c7 6 15 17 17 25c3 12 -1 19 -13 19z" />
    <glyph glyph-name="nine.numr" horiz-adv-x="280" 
d="M112 381l28 87s48 -6 86 -6c27 0 36 13 38 23c1 1 -19 -4 -36 -4c-68 0 -93 35 -76 104c19 74 73 116 148 116c93 0 117 -58 90 -165c-29 -115 -72 -169 -173 -169c-48 0 -105 14 -105 14zM270 563c8 0 20 6 20 6c7 27 3 39 -9 39c-10 0 -18 -9 -22 -23
c-3 -14 3 -22 11 -22z" />
    <glyph glyph-name="zero.slash" 
d="M411 672c40 0 75 -7 105 -19l95 146l84 -32l-110 -167c27 -34 41 -81 41 -142c0 -230 -89 -470 -328 -470c-37 0 -71 8 -100 22l-87 -133l-81 30l102 157c-29 37 -45 86 -45 144c0 297 150 464 324 464zM397 545c-110 0 -161 -167 -161 -322l203 312c-11 7 -26 10 -42 10
zM313 115c111 0 162 182 163 318l-202 -307c11 -7 24 -11 39 -11z" />
    <glyph glyph-name="at.cap" horiz-adv-x="906" 
d="M626 807c350 0 426 -199 365 -432c-57 -217 -124 -305 -253 -305c-56 0 -93 14 -113 44c-40 -20 -130 -46 -189 -46c-137 0 -155 142 -133 254c32 160 109 270 252 270c44 0 131 -14 244 -33c-8 -35 -67 -297 -71 -329c-3 -24 13 -33 40 -33c39 0 66 50 102 190
c42 167 30 308 -264 308c-232 0 -349 -129 -400 -344c-44 -187 14 -366 282 -366c38 0 137 9 137 9l-26 -111s-97 -10 -142 -10c-319 0 -433 235 -375 478c79 330 254 456 544 456zM471 182c40 -1 91 19 122 38c3 34 33 164 52 244c-23 5 -69 14 -91 14
c-67 0 -98 -76 -116 -156s-6 -138 33 -140z" />
    <glyph glyph-name="zero.dnom" horiz-adv-x="280" 
d="M196 223c82 0 119 -41 87 -169c-18 -73 -41 -119 -75 -143c-26 -18 -58 -22 -95 -22c-85 0 -120 37 -88 165c18 73 43 120 77 145c26 19 58 24 94 24zM173 128c-13 0 -21 -8 -38 -74c-16 -65 -11 -70 2 -70c14 0 20 5 36 70c17 66 14 74 0 74z" />
    <glyph glyph-name="one.dnom" horiz-adv-x="280" 
d="M56 137l124 75h96l-77 -312h-106l48 195l-55 -32z" />
    <glyph glyph-name="two.dnom" horiz-adv-x="280" 
d="M232 -100h-231l22 90l88 59c41 27 56 42 60 57c3 12 -8 15 -33 15c-22 0 -78 -6 -78 -6l21 99s75 9 120 9c83 0 104 -29 86 -100c-11 -45 -33 -71 -81 -100l-45 -28h94z" />
    <glyph glyph-name="three.dnom" horiz-adv-x="280" 
d="M75 214c0 0 70 9 110 9c80 0 114 -28 99 -89c-8 -34 -25 -59 -46 -70c20 -10 27 -30 16 -73c-17 -69 -70 -102 -143 -102c-49 0 -119 8 -119 8l29 93s60 -6 93 -6c21 0 30 4 33 16s-5 14 -23 14h-66l21 85h64c13 0 21 4 24 14c3 12 -7 15 -23 15c-37 0 -86 -5 -86 -5z
" />
    <glyph glyph-name="four.dnom" horiz-adv-x="280" 
d="M128 -100l8 35h-135l22 88l89 189h118l-97 -182h27l37 90h91l-23 -90h11l-24 -95h-11l-8 -35h-105z" />
    <glyph glyph-name="five.dnom" horiz-adv-x="280" 
d="M89 212h207l-22 -90h-124l-9 -25s29 6 45 6c57 0 86 -30 69 -99c-21 -80 -66 -111 -146 -111c-52 0 -115 14 -115 14l30 85s53 -9 90 -9c17 0 27 5 29 15c3 11 0 16 -10 16c-9 0 -27 -4 -27 -4l-75 11z" />
    <glyph glyph-name="six.dnom" horiz-adv-x="280" 
d="M305 211l-27 -87s-65 6 -93 6c-26 0 -36 -13 -39 -26c14 3 29 5 39 5c71 0 95 -36 78 -105c-21 -80 -73 -115 -148 -115c-92 0 -117 58 -92 155c28 112 75 179 181 179c36 0 101 -12 101 -12zM144 23c-12 0 -21 -8 -21 -8c-4 -19 -1 -34 10 -34c10 0 19 8 22 21
c4 14 -1 21 -11 21z" />
    <glyph glyph-name="seven.dnom" horiz-adv-x="280" 
d="M49 107l26 105h227l-25 -101l-150 -221l-121 21l139 183l3 13h-99z" />
    <glyph glyph-name="eight.dnom" horiz-adv-x="280" 
d="M195 223c84 0 116 -32 102 -90c-11 -45 -45 -71 -45 -71s27 -18 14 -68c-20 -79 -72 -105 -154 -105c-83 0 -122 26 -102 105c11 45 49 69 49 69s-22 20 -9 71c14 57 60 89 145 89zM133 -26c13 0 21 9 25 22c2 8 -2 19 -6 25h-14c-8 -6 -16 -17 -18 -25
c-4 -13 0 -22 13 -22zM174 138c-11 0 -19 -6 -23 -19c-2 -8 2 -19 5 -25h14c7 6 15 17 17 25c3 12 -1 19 -13 19z" />
    <glyph glyph-name="nine.dnom" horiz-adv-x="280" 
d="M0 -97l28 87s48 -6 86 -6c27 0 36 13 38 23c1 1 -19 -4 -36 -4c-68 0 -93 35 -76 104c19 74 73 116 148 116c93 0 117 -58 90 -165c-29 -115 -72 -169 -173 -169c-48 0 -105 14 -105 14zM158 85c8 0 20 6 20 6c7 27 3 39 -9 39c-10 0 -18 -9 -22 -23c-3 -14 3 -22 11 -22
z" />
    <glyph glyph-name="hyphen.cap" horiz-adv-x="267" 
d="M60 235l30 120h253l-30 -120h-253z" />
    <glyph glyph-name="acute.cap.001" horiz-adv-x="528" 
d="M299 765l-10 106l264 91l10 -120z" />
    <glyph glyph-name="circumflex.cap.001" horiz-adv-x="462" 
d="M213 779l176 152h80l96 -152h-122l-26 55l-62 -55h-142z" />
    </font>
</defs>
</svg>
