<?xml version="1.0" encoding="utf-8"?>
<!-- Generator: Adobe Illustrator 15.0.2, SVG Export Plug-In . SVG Version: 6.00 Build 0)  -->
<svg version="1.2" baseProfile="tiny" id="Layer_1" xmlns="http://www.w3.org/2000/svg" xmlns:xlink="http://www.w3.org/1999/xlink"
	 x="0px" y="0px" width="335px" height="203.031px" viewBox="0 0 335 203.031" xml:space="preserve">
<g>
	<g>
		<path fill="#EE6650" d="M75.695,93.289c41.486,0.02,82.96,1.263,124.446,1.283c1.935,0.001,1.935-2.999,0-3
			c-41.486-0.02-82.96-1.263-124.446-1.283C73.761,90.288,73.761,93.288,75.695,93.289L75.695,93.289z"/>
	</g>
	<g>
		<path fill="#EE6650" d="M235.422,18.429c-3.765-17.802-31.111-23.967-44.053-12.781c-7.74,6.69-11.613,19.248-14.82,28.563
			c-4.659,13.533-7.443,27.679-10.115,41.711c-5.5,28.885-8.72,58.29-17.694,86.407c-4.751,14.889-16.191,46.438-37.388,35.313
			c-1.711-0.898-3.228,1.69-1.514,2.59c26.205,13.753,38.95-26.712,44.052-44.588c8.621-30.207,11.695-61.72,18.116-92.414
			c2.108-10.076,4.628-20.067,7.98-29.805c2.822-8.198,6.333-17.453,12.029-24.158c10.435-12.281,37.183-5.792,40.514,9.959
			C232.93,21.119,235.821,20.316,235.422,18.429L235.422,18.429z"/>
	</g>
	<g>
		<path fill="#EE6650" d="M178.821,34.289c-3.773-16.155-24.341-26.907-39.873-21.831c-9.866,3.225-14.75,14.122-18.028,23.105
			c-4.604,12.617-5.278,26.357-7.273,39.526c-1.773,11.702-4.541,23.575-7.222,35.107c-3.331,14.324-7.56,28.713-14.546,41.72
			c-4.362,8.122-10.226,16.013-18.662,20.191c-9.564,4.737-20.208,1.404-28.839-3.714c-1.668-0.989-3.176,1.604-1.514,2.59
			c60.71,36.003,71.281-86.87,77.322-120.572c2.617-14.596,8.663-35.675,26.48-36.265c12.287-0.407,26.398,8.685,29.261,20.939
			C176.369,36.97,179.261,36.171,178.821,34.289L178.821,34.289z"/>
	</g>
	<g>
		<path fill="#EE6650" d="M235.35,8.922c-3.917,13.192-8.323,26.386-10.921,39.924c-3.851,20.064-7.986,39.969-12.365,59.933
			c-2.431,11.08-5.34,22.2-6.787,33.462c-1.176,9.154-2.072,19.929,1.904,28.6c6.069,13.23,20.568,12.144,32.58,8.871
			c1.865-0.508,1.072-3.402-0.797-2.893c-6.175,1.682-12.706,3.019-19.059,1.546c-7.666-1.777-10.776-8.977-11.987-16.041
			c-1.92-11.206,0.607-23.102,2.944-34.035c2.412-11.283,4.914-22.552,7.513-33.793c3.596-15.549,6.195-31.208,9.335-46.834
			c2.581-12.845,6.809-25.402,10.532-37.942C238.794,7.86,235.898,7.072,235.35,8.922L235.35,8.922z"/>
	</g>
</g>
</svg>
