<?xml version="1.0" encoding="utf-8"?>
<!-- Generator: Adobe Illustrator 15.0.2, SVG Export Plug-In . SVG Version: 6.00 Build 0)  -->
<svg version="1.2" baseProfile="tiny" id="Layer_1" xmlns="http://www.w3.org/2000/svg" xmlns:xlink="http://www.w3.org/1999/xlink"
	 x="0px" y="0px" width="198.681px" height="203.031px" viewBox="0 0 198.681 203.031" xml:space="preserve">
<g>
	<g>
		<path fill="#222222" d="M33.552,93.289c41.486,0.02,82.96,1.263,124.446,1.283c1.935,0.001,1.935-2.999,0-3
			c-41.486-0.02-82.96-1.263-124.446-1.283C31.617,90.288,31.617,93.288,33.552,93.289L33.552,93.289z"/>
	</g>
	<g>
		<path fill="#222222" d="M191.519,17.904C187.562-0.87,158.95-6.035,147.057,7.964c-7.15,8.415-10.985,20.726-14.203,31.068
			c-4.252,13.669-6.867,27.817-9.5,41.867c-5.284,28.198-8.481,56.837-17.66,84.163c-4.894,14.571-16.231,43.209-36.485,32.58
			c-1.711-0.898-3.228,1.69-1.514,2.59c26.205,13.753,38.95-26.712,44.052-44.588c8.621-30.207,11.695-61.72,18.116-92.414
			c3.672-17.555,8.164-36.542,18.229-51.678c9.502-14.291,36.925-9.974,40.534,7.149C189.024,20.594,191.916,19.791,191.519,17.904
			L191.519,17.904z"/>
	</g>
	<g>
		<path fill="#222222" d="M135.068,32.015C131.17,15.361,110.101,5.938,94.866,13.01c-9.932,4.61-14.694,17.443-17.551,27.179
			c-3.773,12.861-4.237,26.468-6.611,39.603c-4.528,25.048-9.408,52.1-22.223,74.357c-4.312,7.487-10.061,14.556-18.046,18.256
			c-9.407,4.358-19.809,0.966-28.199-4.01c-1.668-0.989-3.176,1.604-1.514,2.59c60.71,36.003,71.281-86.87,77.322-120.572
			c2.513-14.016,8.107-33.695,24.261-36.645c12.41-2.266,26.991,6.746,29.87,19.045C132.616,34.696,135.508,33.897,135.068,32.015
			L135.068,32.015z"/>
	</g>
	<g>
		<path fill="#222222" d="M193.206,8.922c-3.917,13.192-8.323,26.386-10.921,39.924c-3.851,20.064-7.986,39.969-12.365,59.933
			c-2.431,11.08-5.34,22.2-6.787,33.462c-1.176,9.154-2.072,19.929,1.904,28.6c6.069,13.23,20.568,12.144,32.58,8.871
			c1.865-0.508,1.072-3.402-0.797-2.893c-6.175,1.682-12.706,3.019-19.059,1.546c-7.666-1.777-10.776-8.977-11.987-16.041
			c-1.92-11.206,0.607-23.102,2.944-34.035c2.412-11.283,4.914-22.552,7.513-33.793c3.596-15.549,6.195-31.208,9.335-46.834
			c2.581-12.845,6.809-25.402,10.532-37.942C196.65,7.86,193.755,7.072,193.206,8.922L193.206,8.922z"/>
	</g>
</g>
</svg>
