<?xml version="1.0" encoding="utf-8"?>
<!-- Generator: Adobe Illustrator 15.0.2, SVG Export Plug-In . SVG Version: 6.00 Build 0)  -->
<svg version="1.2" baseProfile="tiny" id="Layer_1" xmlns="http://www.w3.org/2000/svg" xmlns:xlink="http://www.w3.org/1999/xlink"
	 x="0px" y="0px" width="337.065px" height="203.025px" viewBox="0 0 337.065 203.025" xml:space="preserve">
<g>
	<g>
		<g>
			<path fill="#222222" d="M167.596,2.79c0.063,32.313,3.144,64.527,3.327,96.837c0.19,33.548-1.463,67.081,0.172,100.616
				c0.041,0.84,0.652,1.469,1.5,1.5c26.642,0.995,52.946-4.971,79.606-4.151c26.747,0.822,53.077,6.493,79.927,5.259
				c0.848-0.039,1.459-0.654,1.5-1.5c0.779-16.085-0.26-32.156-0.756-48.232c-0.503-16.307-0.188-32.655-0.188-48.967
				c0-7.096,0.727-13.62,2.23-20.558c1.053-4.86,2.779-10.665,1.823-15.682c-1.693-8.891-10.132-15.959-16.264-21.952
				c-3.698-3.614-7.436-7.188-10.827-11.097c-4.383-5.05-6.684-11.348-9.493-17.323c-4.698-9.994-11.166-15.999-22.26-16.799
				c-30.473-2.2-61.029,1.151-91.495,1.727c-5.421,0.103-10.843,0.075-16.263-0.065c-1.936-0.05-1.931,2.95,0,3
				c30.494,0.787,60.905-2.698,91.399-2.27c6.246,0.088,12.576,0.214,18.798,0.813c6.902,0.664,11.244,4.935,14.817,10.585
				c3.559,5.629,5.461,12.146,8.906,17.85c2.488,4.117,6.108,7.609,9.48,10.984c6.896,6.902,16.643,14.075,19.913,23.624
				c1.806,5.274-0.633,12.137-1.762,17.349c-1.449,6.686-2.004,12.975-2.004,19.814c0,16.316-0.262,32.657,0.188,48.967
				c0.443,16.082,1.535,32.141,0.756,48.232c0.5-0.5,1-1,1.5-1.5c-26.195,1.204-51.97-3.955-78.054-5.186
				c-27.293-1.287-54.209,5.097-81.479,4.078c0.5,0.5,1,1,1.5,1.5c-1.603-32.866-0.197-65.761-0.168-98.643
				c0.029-32.971-3.266-65.84-3.331-98.81C170.592,0.855,167.592,0.855,167.596,2.79L167.596,2.79z"/>
		</g>
		<g>
			<path fill="#222222" d="M286.386,3.902c-0.051,18.852-3.666,37.517-11.945,54.526c-0.533,1.096,0.135,2.123,1.295,2.257
				c20.01,2.328,39.832,6.08,59.893,7.998c1.926,0.184,1.908-2.817,0-3c-20.06-1.918-39.883-5.67-59.893-7.998
				c0.432,0.752,0.863,1.505,1.295,2.257c8.514-17.49,12.303-36.649,12.355-56.041C289.391,1.967,286.391,1.968,286.386,3.902
				L286.386,3.902z"/>
		</g>
		<g>
			<g>
				<path fill="#222222" d="M220.276,142.4c0.145-3.976,2.048-7.027,4.11-10.289c2.11-3.339,3.645-6.955,5.235-10.561
					c3.035-6.877,5.834-13.869,8.429-20.923c4.162-11.314,7.734-25.015,16.595-33.688c-0.836-0.221-1.671-0.441-2.507-0.662
					c3.437,13.939,10.143,26.584,16.343,39.433c6.001,12.437,8.375,26.405,15.611,38.28c1.005,1.649,3.6,0.143,2.59-1.514
					c-6.684-10.97-9.156-23.765-14.311-35.419c-6.109-13.812-13.693-26.783-17.341-41.578c-0.274-1.113-1.72-1.433-2.507-0.662
					c-8.94,8.75-12.787,22.412-16.943,33.854c-3.04,8.368-6.408,16.62-10.053,24.742c-2.821,6.29-7.992,11.856-8.252,18.986
					C217.206,144.336,220.206,144.329,220.276,142.4L220.276,142.4z"/>
			</g>
			<g>
				<path fill="#222222" d="M230.831,113.871c12.333-4.316,25.979-1.712,38.736-1.612c1.936,0.016,1.934-2.984,0-3
					c-13.043-0.102-26.918-2.696-39.533,1.719C228.221,111.613,229,114.512,230.831,113.871L230.831,113.871z"/>
			</g>
			<g>
				<path fill="#222222" d="M208.909,144.403c5.987-2.041,12.571-0.587,18.746-0.503c1.936,0.026,1.933-2.974,0-3
					c-6.467-0.088-13.267-1.529-19.543,0.61C206.292,142.131,207.073,145.029,208.909,144.403L208.909,144.403z"/>
			</g>
			<g>
				<path fill="#222222" d="M274.563,146.398c6.661,0,13.323,0,19.984,0c1.935,0,1.935-3,0-3c-6.661,0-13.323,0-19.984,0
					C272.629,143.398,272.629,146.398,274.563,146.398L274.563,146.398z"/>
			</g>
		</g>
	</g>
	<g>
		<g>
			<path fill="#222222" d="M41.419,33.156c33.307,0,66.613,0,99.919,0c1.935,0,1.935-3,0-3c-33.307,0-66.613,0-99.919,0
				C39.484,30.156,39.484,33.156,41.419,33.156L41.419,33.156z"/>
		</g>
		<g>
			<path fill="#222222" d="M1.451,79.786c42.188,0,84.376,0,126.564,0c1.935,0,1.935-3,0-3c-42.188,0-84.376,0-126.564,0
				C-0.483,76.786-0.483,79.786,1.451,79.786L1.451,79.786z"/>
		</g>
		<g>
			<path fill="#222222" d="M59.181,127.523c25.922-0.175,51.792-2.175,77.717-2.217c1.935-0.003,1.935-3.003,0-3
				c-25.924,0.042-51.795,2.042-77.717,2.217C57.247,124.536,57.246,127.536,59.181,127.523L59.181,127.523z"/>
		</g>
		<g>
			<path fill="#222222" d="M28.096,173.044c31.086,0,62.172,0,93.258,0c1.935,0,1.935-3,0-3c-31.086,0-62.172,0-93.258,0
				C26.161,170.044,26.161,173.044,28.096,173.044L28.096,173.044z"/>
		</g>
	</g>
</g>
</svg>
