<?xml version="1.0" encoding="utf-8"?>
<!-- Generator: Adobe Illustrator 15.0.2, SVG Export Plug-In . SVG Version: 6.00 Build 0)  -->
<svg version="1.2" baseProfile="tiny" id="Layer_1" xmlns="http://www.w3.org/2000/svg" xmlns:xlink="http://www.w3.org/1999/xlink"
	 x="0px" y="0px" width="102.567px" height="202.688px" viewBox="0 0 102.567 202.688" xml:space="preserve">
<g>
	<g>
		<path d="M37.133,15.66c-8.144-7.281-20.676-5.904-29.268-0.131c-9.92,6.666-9.959,18.249-2.901,27.071
			c6.916,8.646,20.206,8.763,28.515,2.163c4.413-3.505,7.272-8.25,8.051-13.852C42.233,25.848,41.228,19.058,37.133,15.66
			c-1.477-1.226-3.611,0.884-2.121,2.121c3.792,3.147,4.178,9.801,3.287,14.354c-0.871,4.451-3.808,8.227-7.416,10.834
			c-7.541,5.45-17.646,4.391-23.798-2.49C-8.235,23.345,20.933,5.195,35.012,17.781C36.449,19.066,38.578,16.952,37.133,15.66
			L37.133,15.66z"/>
	</g>
	<g>
		<path d="M19.244,51.082c-0.021,37.908-1.214,75.805-1.235,113.713c-0.001,1.935,2.999,1.935,3,0
			c0.021-37.908,1.214-75.805,1.235-113.713C22.245,49.147,19.245,49.147,19.244,51.082L19.244,51.082z"/>
	</g>
	<g>
		<path d="M38.26,178.983c-2.579-9.802-12.882-15.494-22.695-14.089C3.18,166.669-1.095,177.983,1.493,189.22
			c2.434,10.57,12.521,15.565,22.597,12.644C34.128,198.953,40.165,189.168,38.26,178.983c-0.355-1.9-3.246-1.094-2.893,0.797
			c3.409,18.234-24.445,28.724-30.703,9.649c-3.126-9.531,0.517-19.582,10.887-21.525c8.427-1.58,17.612,3.502,19.815,11.876
			C35.859,181.65,38.753,180.856,38.26,178.983L38.26,178.983z"/>
	</g>
	<g>
		<path d="M21.626,135.13c0.536-6.14,1.553-12.967,6.381-17.299c3.603-3.232,9.235-3.333,13.779-3.43
			c10.433-0.224,20.936,0.144,30.154-5.596c19.837-12.352,13.215-44.164,13.588-63.409c0.037-1.936-2.963-1.932-3,0
			c-0.422,21.755,6.917,57.097-21.026,64.569c-9.654,2.582-19.837,0.035-29.458,2.541c-10.17,2.648-12.621,13.48-13.419,22.624
			C18.458,137.058,21.459,137.042,21.626,135.13L21.626,135.13z"/>
	</g>
	<g>
		<path d="M99.674,7.996C91.801-0.991,79.932-2.71,70.175,4.413c-8.807,6.429-11.932,18.002-7.024,27.755
			c5.595,11.115,18.79,15.244,28.994,7.992c9.943-7.068,13.3-21.125,7.764-31.86c-0.887-1.72-3.476-0.203-2.59,1.514
			c4.702,9.119,1.877,19.774-5.373,26.654c-8.865,8.413-20.659,3.856-26.204-5.814c-4.889-8.526-0.669-18.82,6.736-24.226
			c8.412-6.141,18.512-3.801,25.075,3.689C98.83,11.575,100.943,9.444,99.674,7.996L99.674,7.996z"/>
	</g>
</g>
</svg>
