<?xml version="1.0" standalone="no"?>
<!DOCTYPE svg PUBLIC "-//W3C//DTD SVG 1.1//EN" "http://www.w3.org/Graphics/SVG/1.1/DTD/svg11.dtd" >
<svg version="1.1" xmlns="http://www.w3.org/2000/svg">
<metadata>
Created by FontForge 20120731 at Fri Aug  1 16:50:38 2014
 By Alfred Xing
Copyright 2010, 2012 Adobe Systems Incorporated. All Rights Reserved.
</metadata>
<defs>
<font id="SourceCodePro-ExtraLight" horiz-adv-x="600" >
  <font-face 
    font-family="Source Code Pro"
    font-weight="200"
    font-stretch="normal"
    units-per-em="1000"
    panose-1="2 11 3 9 3 4 3 2 2 4"
    ascent="750"
    descent="-250"
    x-height="478"
    cap-height="660"
    bbox="-22 -400 706 1000"
    underline-thickness="50"
    underline-position="-50"
    stemh="28"
    stemv="34"
    unicode-range="U+0020-FB02"
  />
<missing-glyph 
d="M84 0v660h432v-660h-432zM122 74l154 266l-154 270v-536zM324 340l152 -266v536zM132 32h332l-100 176l-62 106h-4l-64 -106zM298 366h4l54 92l94 168h-302l94 -168z" />
    <glyph glyph-name=".notdef" 
d="M84 0v660h432v-660h-432zM122 74l154 266l-154 270v-536zM324 340l152 -266v536zM132 32h332l-100 176l-62 106h-4l-64 -106zM298 366h4l54 92l94 168h-302l94 -168z" />
    <glyph glyph-name="space" unicode=" " 
 />
    <glyph glyph-name="exclam" unicode="!" 
d="M288 214l-2 394v62h28v-62l-2 -394h-24zM248 46c0 38 26 58 52 58s52 -20 52 -58s-26 -58 -52 -58s-52 20 -52 58z" />
    <glyph glyph-name="quotedbl" unicode="&#x22;" 
d="M186 392l-18 215l1 81h62l1 -81l-18 -215h-28zM386 392l-18 215l1 81h62l1 -81l-18 -215h-28z" />
    <glyph glyph-name="numbersign" unicode="#" 
d="M158 0l26 218h-84v28h88l22 178h-90v28h92l26 198h28l-26 -198h156l26 198h28l-26 -198h82v-28h-84l-22 -178h86v-28h-90l-26 -218h-28l26 218h-156l-26 -218h-28zM216 246h156l22 178h-156z" />
    <glyph glyph-name="dollar" unicode="$" 
d="M480 548l-20 -20c-44 38 -78 62 -154 62c-85 0 -142 -44 -142 -112c0 -142 338 -110 338 -294c0 -90 -81 -146 -179 -150v-144h-30v145c-83 4 -149 42 -191 77l18 22c40 -34 106 -72 191 -72c103 0 159 50 159 120c0 156 -338 128 -338 294c0 83 70 136 161 142v132h30
v-132c76 -4 118 -34 157 -70z" />
    <glyph glyph-name="percent" unicode="%" 
d="M160 328c-78 0 -132 59 -132 164c0 104 54 160 132 160s132 -56 132 -160c0 -105 -54 -164 -132 -164zM160 354c58 0 102 51 102 138c0 89 -44 134 -102 134s-102 -45 -102 -134c0 -87 44 -138 102 -138zM64 36l-26 22l180 200l18 -16zM536 624l26 -22l-180 -200l-18 16z
M440 -12c-78 0 -132 59 -132 164c0 104 54 160 132 160s132 -56 132 -160c0 -105 -54 -164 -132 -164zM440 14c58 0 102 51 102 138c0 89 -44 134 -102 134s-102 -45 -102 -134c0 -87 44 -138 102 -138z" />
    <glyph glyph-name="ampersand" unicode="&#x26;" 
d="M245 16c58 0 111 32 154 77c-72 67 -145 155 -193 246c-63 -49 -117 -100 -117 -171c0 -92 72 -152 156 -152zM179 530c0 -47 15 -98 39 -150c69 52 135 102 135 174c0 44 -20 90 -76 90c-62 0 -98 -52 -98 -114zM569 16l-12 -28c-40 15 -86 43 -137 86
c-48 -51 -104 -86 -177 -86c-100 0 -186 68 -186 178c0 85 67 143 137 196c-28 57 -45 114 -45 166c0 84 54 144 130 144c68 0 104 -50 104 -116c0 -84 -78 -141 -154 -199c47 -90 119 -178 189 -242c50 62 85 139 109 227h30c-26 -92 -65 -178 -118 -245
c47 -39 91 -66 130 -81z" />
    <glyph glyph-name="quotesingle" unicode="'" 
d="M286 392l-18 215l1 81h62l1 -81l-18 -215h-28z" />
    <glyph glyph-name="parenleft" unicode="(" 
d="M465 -173c-146 102 -235 254 -235 451s89 349 235 451l17 -23c-147 -110 -218 -252 -218 -428s71 -318 218 -428z" />
    <glyph glyph-name="parenright" unicode=")" 
d="M135 -173l-17 23c147 110 218 252 218 428s-71 318 -218 428l17 23c146 -102 235 -254 235 -451s-89 -349 -235 -451z" />
    <glyph glyph-name="asterisk" unicode="*" 
d="M176 128l-24 17l118 173l-169 72l9 24l172 -64l5 198h26l5 -198l172 64l9 -24l-169 -72l118 -173l-24 -17l-124 172z" />
    <glyph glyph-name="plus" unicode="+" 
d="M284 112v204h-186v28h186v204h32v-204h186v-28h-186v-204h-32z" />
    <glyph glyph-name="comma" unicode="," 
d="M221 -210l-13 25c79 41 120 96 123 188c-8 -3 -16 -4 -24 -4c-32 0 -54 16 -54 53c0 38 26 54 53 54c41 0 63 -37 63 -93c0 -109 -61 -183 -148 -223z" />
    <glyph glyph-name="hyphen" unicode="-" 
d="M98 316v28h404v-28h-404z" />
    <glyph glyph-name="period" unicode="." 
d="M248 46c0 38 26 58 52 58s52 -20 52 -58s-26 -58 -52 -58s-52 20 -52 58z" />
    <glyph glyph-name="slash" unicode="/" 
d="M480 710l-326 -870h-34l326 870h34z" />
    <glyph glyph-name="zero" unicode="0" 
d="M300 -12c-138 0 -216 124 -216 334c0 212 78 330 216 330s216 -118 216 -330c0 -210 -78 -334 -216 -334zM300 624c-110 0 -184 -104 -184 -302s74 -306 184 -306s184 108 184 306s-74 302 -184 302zM300 274c-26 0 -52 20 -52 58s26 58 52 58s52 -20 52 -58
s-26 -58 -52 -58z" />
    <glyph glyph-name="one" unicode="1" 
d="M336 28h184v-28h-408v28h194v552h-140v22c63 8 112 22 147 38h23v-612z" />
    <glyph glyph-name="two" unicode="2" 
d="M85 0v20c244 222 359 338 359 456c0 82 -49 148 -165 148c-68 0 -129 -36 -174 -86l-22 20c51 52 113 94 197 94c124 0 195 -70 195 -176c0 -130 -129 -253 -343 -452c41 2 80 4 121 4h258v-28h-426z" />
    <glyph glyph-name="three" unicode="3" 
d="M70 78l20 22c42 -42 104 -84 206 -84s180 60 180 150c0 92 -81 156 -264 156v30c173 0 240 66 240 146c0 76 -66 126 -160 126c-68 0 -134 -32 -174 -72l-20 22c46 42 112 78 194 78c106 0 192 -56 192 -152c0 -86 -66 -137 -148 -160v-4c90 -16 172 -76 172 -168
c0 -110 -94 -180 -214 -180c-112 0 -180 48 -224 90z" />
    <glyph glyph-name="four" unicode="4" 
d="M92 225h298v271c2 30 3 61 5 91h-6c-20 -27 -41 -54 -61 -81zM535 225v-29h-115v-196h-30v196h-347v17l362 428h15v-416h115z" />
    <glyph glyph-name="five" unicode="5" 
d="M64 74l20 22c44 -40 99 -80 206 -80c103 0 192 74 192 182s-72 174 -190 174c-62 0 -101 -18 -148 -44l-26 16l24 296h338v-28h-310l-22 -246c43 21 84 36 146 36c126 0 220 -62 220 -202c0 -136 -111 -212 -226 -212c-117 0 -178 46 -224 86z" />
    <glyph glyph-name="six" unicode="6" 
d="M326 16c96 0 166 76 166 170c0 106 -56 170 -170 170c-59 0 -132 -29 -199 -102c9 -139 71 -238 203 -238zM510 592l-20 -22c-38 36 -86 54 -140 54c-120 0 -227 -85 -228 -332c57 56 124 92 202 92c124 0 200 -70 200 -198c0 -114 -93 -198 -200 -198
c-146 0 -234 110 -234 300c0 272 125 364 262 364c68 0 117 -24 158 -60z" />
    <glyph glyph-name="seven" unicode="7" 
d="M252 0c10 266 76 424 232 612h-408v28h450v-18c-176 -206 -230 -370 -238 -622h-36z" />
    <glyph glyph-name="eight" unicode="8" 
d="M106 164c0 -82 74 -148 199 -148c123 0 187 62 187 138c0 114 -110 139 -238 180c-84 -40 -148 -86 -148 -170zM359 330c69 46 105 98 105 156c0 74 -55 138 -159 138c-90 0 -149 -54 -149 -126c0 -96 92 -134 203 -168zM74 164c0 96 80 150 151 182v4
c-53 30 -101 80 -101 148c0 90 78 154 181 154c124 0 191 -72 191 -166c0 -62 -46 -122 -103 -164v-4c73 -36 131 -70 131 -164c0 -92 -80 -166 -219 -166c-142 0 -231 76 -231 176z" />
    <glyph glyph-name="nine" unicode="9" 
d="M280 284c59 0 132 29 199 102c-9 139 -71 238 -203 238c-96 0 -166 -76 -166 -170c0 -106 56 -170 170 -170zM92 48l20 22c38 -36 86 -54 140 -54c120 0 227 85 228 332c-57 -56 -124 -92 -202 -92c-124 0 -200 70 -200 198c0 114 93 198 200 198
c146 0 234 -110 234 -300c0 -272 -125 -364 -262 -364c-68 0 -117 24 -158 60z" />
    <glyph glyph-name="colon" unicode=":" 
d="M248 432c0 38 26 58 52 58s52 -20 52 -58s-26 -58 -52 -58s-52 20 -52 58zM248 46c0 38 26 58 52 58s52 -20 52 -58s-26 -58 -52 -58s-52 20 -52 58z" />
    <glyph glyph-name="semicolon" unicode=";" 
d="M300 374c-26 0 -52 20 -52 58s26 58 52 58s52 -20 52 -58s-26 -58 -52 -58zM221 -210l-13 25c79 41 120 96 123 188c-8 -3 -16 -4 -24 -4c-32 0 -54 16 -54 53c0 38 26 54 53 54c41 0 63 -37 63 -93c0 -109 -61 -183 -148 -223z" />
    <glyph glyph-name="less" unicode="&#x3c;" 
d="M124 316v32l362 254v-36l-330 -232v-4l330 -232v-36z" />
    <glyph glyph-name="equal" unicode="=" 
d="M98 416v28h404v-28h-404zM98 216v28h404v-28h-404z" />
    <glyph glyph-name="greater" unicode="&#x3e;" 
d="M476 348v-32l-362 -254v36l330 232v4l-330 232v36z" />
    <glyph glyph-name="question" unicode="?" 
d="M262 214c-26 150 170 192 170 316c0 66 -42 124 -140 124c-58 0 -112 -24 -152 -66l-22 20c42 42 100 74 176 74c108 0 170 -68 170 -150c0 -132 -196 -177 -174 -318h-28zM234 46c0 38 26 58 52 58s52 -20 52 -58s-26 -58 -52 -58s-52 20 -52 58z" />
    <glyph glyph-name="at" unicode="@" 
d="M542 396v-296h-26l-4 64h-4c-32 -38 -92 -76 -142 -76c-69 0 -130 40 -130 124c0 96 92 148 276 170v13c0 113 -46 205 -163 205c-143 0 -253 -133 -253 -354c0 -220 100 -360 246 -360c60 0 108 17 148 50l16 -22c-48 -38 -101 -56 -164 -56c-155 0 -278 144 -278 390
c0 241 122 380 288 380c128 0 190 -100 190 -232zM268 212c0 -61 40 -96 102 -96c42 0 94 28 142 86v154c-173 -24 -244 -69 -244 -144z" />
    <glyph glyph-name="A" unicode="A" 
d="M175 264h249l-46 132c-28 80 -52 148 -76 230h-4c-24 -82 -48 -150 -76 -230zM516 0l-82 236h-269l-83 -236h-32l236 660h28l236 -660h-34z" />
    <glyph glyph-name="B" unicode="B" 
d="M119 0v660h160c132 0 214 -52 214 -160c0 -70 -40 -124 -118 -144v-4c98 -14 160 -68 160 -160c0 -126 -94 -192 -244 -192h-172zM151 366h108c144 0 202 46 202 138c0 90 -68 128 -196 128h-114v-266zM151 28h128c138 0 224 50 224 162c0 100 -82 148 -224 148h-128
v-310z" />
    <glyph glyph-name="C" unicode="C" 
d="M74 332c0 208 111 340 279 340c76 0 134 -38 168 -78l-20 -22c-36 42 -86 70 -148 70c-152 0 -245 -120 -245 -310s93 -314 241 -314c70 0 122 28 172 84l20 -20c-50 -58 -108 -94 -194 -94c-162 0 -273 136 -273 344z" />
    <glyph glyph-name="D" unicode="D" 
d="M100 0v660h148c204 0 296 -132 296 -328s-92 -332 -296 -332h-148zM132 28h112c188 0 266 130 266 304s-78 300 -266 300h-112v-604z" />
    <glyph glyph-name="E" unicode="E" 
d="M132 0v660h384v-28h-352v-266h296v-28h-296v-310h362v-28h-394z" />
    <glyph glyph-name="F" unicode="F" 
d="M156 0v660h378v-28h-347v-278h292v-28h-292v-326h-31z" />
    <glyph glyph-name="G" unicode="G" 
d="M61 332c0 208 112 340 282 340c86 0 139 -42 173 -78l-20 -22c-34 38 -81 70 -153 70c-154 0 -248 -120 -248 -310s90 -314 240 -314c63 0 121 20 154 54v218h-160v28h193v-256c-40 -44 -104 -74 -189 -74c-164 0 -272 136 -272 344z" />
    <glyph glyph-name="H" unicode="H" 
d="M92 0v660h32v-294h352v294h32v-660h-32v338h-352v-338h-32z" />
    <glyph glyph-name="I" unicode="I" 
d="M112 0v28h172v604h-172v28h376v-28h-172v-604h172v-28h-376z" />
    <glyph glyph-name="J" unicode="J" 
d="M98 98l30 17c38 -67 94 -98 151 -98c115 0 164 63 164 187v430h-291v27h323v-460c0 -118 -48 -213 -197 -213c-75 0 -144 37 -180 110z" />
    <glyph glyph-name="K" unicode="K" 
d="M122 0v660h32v-380h2l344 380h39l-216 -242l245 -418h-38l-231 394l-145 -160v-234h-32z" />
    <glyph glyph-name="L" unicode="L" 
d="M156 0v660h30v-632h352v-28h-382z" />
    <glyph glyph-name="M" unicode="M" 
d="M95 0v660h46l116 -318l42 -120h4l40 120l116 318h46v-660h-32v495c0 41 2 87 3 128h-3l-36 -110l-123 -332h-27l-124 332l-39 110h-2c1 -41 4 -87 4 -128v-495h-31z" />
    <glyph glyph-name="N" unicode="N" 
d="M96 0v660h33l274 -486l73 -128h2c-1 63 -4 123 -4 185v429h30v-660h-33l-274 486l-73 128h-2c1 -63 4 -119 4 -181v-433h-30z" />
    <glyph glyph-name="O" unicode="O" 
d="M300 -12c-142 0 -244 136 -244 344s102 340 244 340s244 -132 244 -340s-102 -344 -244 -344zM300 18c125 0 210 124 210 314s-85 310 -210 310s-210 -120 -210 -310s85 -314 210 -314z" />
    <glyph glyph-name="P" unicode="P" 
d="M124 0v660h172c148 0 232 -48 232 -180c0 -126 -84 -188 -232 -188h-140v-292h-32zM156 320h128c142 0 210 46 210 160c0 116 -68 152 -210 152h-128v-312z" />
    <glyph glyph-name="Q" unicode="Q" 
d="M92 332c0 -189 81 -316 208 -316s208 127 208 316c0 190 -81 313 -208 313s-208 -123 -208 -313zM525 -110l7 -32c-21 -5 -38 -8 -57 -8c-106 0 -167 61 -194 139c-132 11 -221 145 -221 343c0 208 97 341 240 341s240 -133 240 -341c0 -199 -89 -333 -223 -343
c22 -66 75 -106 162 -106c20 0 35 3 46 7z" />
    <glyph glyph-name="R" unicode="R" 
d="M156 340h138c122 0 190 48 190 150c0 104 -68 142 -190 142h-138v-292zM528 0h-38l-186 312h-148v-312h-32v660h182c130 0 212 -48 212 -170c0 -105 -68 -166 -178 -176z" />
    <glyph glyph-name="S" unicode="S" 
d="M80 88l22 22c50 -56 124 -92 208 -92c112 0 184 58 184 142c0 88 -61 116 -132 146l-102 46c-60 25 -144 64 -144 162c0 94 84 158 196 158c84 0 150 -37 190 -78l-20 -22c-40 42 -98 70 -170 70c-98 0 -164 -50 -164 -126c0 -82 75 -113 126 -134l102 -46
c78 -33 150 -72 150 -174c0 -100 -86 -174 -216 -174c-102 0 -178 42 -230 100z" />
    <glyph glyph-name="T" unicode="T" 
d="M284 0v632h-234v28h500v-28h-234v-632h-32z" />
    <glyph glyph-name="U" unicode="U" 
d="M92 246v414h32v-406c0 -182 84 -236 176 -236c94 0 178 54 178 236v406h30v-414c0 -204 -104 -258 -208 -258s-208 54 -208 258z" />
    <glyph glyph-name="V" unicode="V" 
d="M285 0l-220 660h34l128 -396c26 -82 44 -142 72 -223h4c28 81 46 141 72 223l128 396h32l-218 -660h-32z" />
    <glyph glyph-name="W" unicode="W" 
d="M127 0l-112 661h29l78 -465c6 -53 16 -105 23 -158h2c17 53 33 105 48 158l88 292h35l90 -292c14 -53 30 -106 46 -158h4c7 52 16 105 23 158l75 465h28l-109 -661h-42l-101 331c-11 38 -19 75 -30 114h-3c-11 -39 -20 -76 -32 -114l-98 -331h-42z" />
    <glyph glyph-name="X" unicode="X" 
d="M83 0l200 342l-186 318h34l116 -204c18 -30 32 -52 54 -88h4c20 36 32 58 50 88l116 204h32l-186 -320l200 -340h-34l-122 212c-18 32 -38 64 -62 104h-4c-22 -40 -40 -72 -58 -104l-122 -212h-32z" />
    <glyph glyph-name="Y" unicode="Y" 
d="M284 0v245l-228 415h32l124 -226c31 -51 57 -103 88 -156h4c32 53 61 105 90 157l120 225h30l-228 -415v-245h-32z" />
    <glyph glyph-name="Z" unicode="Z" 
d="M72 0v19l416 615h-381v27h419v-19l-417 -614h424v-28h-461z" />
    <glyph glyph-name="bracketleft" unicode="[" 
d="M246 -152v860h260v-23h-232v-814h232v-23h-260z" />
    <glyph glyph-name="backslash" unicode="\" 
d="M446 -160l-326 870h34l326 -870h-34z" />
    <glyph glyph-name="bracketright" unicode="]" 
d="M94 -129h232v814h-232v23h260v-860h-260v23z" />
    <glyph glyph-name="asciicircum" unicode="^" 
d="M132 292l150 378h36l150 -378h-32l-82 214l-52 132h-4l-52 -132l-82 -214h-32z" />
    <glyph glyph-name="underscore" unicode="_" 
d="M60 -82h480v-38h-480v38z" />
    <glyph glyph-name="grave" unicode="`" 
d="M324 572l-104 134h40l92 -134h-28z" />
    <glyph glyph-name="a" unicode="a" 
d="M96 117c0 107 110 157 374 181c0 84 -32 164 -148 164c-76 0 -149 -40 -186 -68l-16 24c34 26 118 72 204 72c127 0 176 -84 176 -180v-310h-26l-4 74h-2c-56 -45 -132 -86 -204 -86c-84 0 -168 38 -168 129zM128 118c0 -74 70 -102 138 -102c64 0 132 31 204 92v164
c-258 -24 -342 -72 -342 -154z" />
    <glyph glyph-name="b" unicode="b" 
d="M110 0v722h30v-214l-2 -106c53 52 124 88 188 88c137 0 204 -96 204 -244c0 -162 -105 -258 -224 -258c-49 0 -115 26 -164 66h-2l-4 -54h-26zM140 92c60 -55 127 -76 168 -76c110 0 190 96 190 230c0 122 -49 216 -174 216c-53 0 -120 -30 -184 -94v-276z" />
    <glyph glyph-name="c" unicode="c" 
d="M90 238c0 160 116 252 258 252c81 0 132 -36 171 -74l-20 -22c-41 40 -89 68 -151 68c-134 0 -226 -92 -226 -224s90 -222 226 -222c67 0 122 30 166 72l18 -22c-48 -46 -108 -78 -184 -78c-148 0 -258 92 -258 250z" />
    <glyph glyph-name="d" unicode="d" 
d="M70 238c0 154 107 252 228 252c62 0 111 -26 164 -70l-2 100v202h30v-722h-26l-4 74h-2c-43 -45 -106 -86 -176 -86c-126 0 -212 88 -212 250zM102 238c0 -132 68 -222 182 -222c59 0 119 34 176 94v276c-58 55 -111 76 -164 76c-108 0 -194 -100 -194 -224z" />
    <glyph glyph-name="e" unicode="e" 
d="M80 238c0 156 117 252 238 252c128 0 212 -82 212 -220c0 -10 0 -20 -2 -32h-416c0 -128 88 -222 220 -222c66 0 119 22 164 54l14 -26c-42 -27 -93 -56 -180 -56c-136 0 -250 94 -250 250zM112 266h388c0 130 -74 196 -182 196c-101 0 -192 -76 -206 -196z" />
    <glyph glyph-name="f" unicode="f" 
d="M572 704l-12 -24c-46 22 -74 26 -120 26c-106 0 -146 -66 -146 -160v-68h230v-28h-230v-450h-28v450h-146v24l146 4v64c0 122 58 192 174 192c41 0 82 -6 132 -30z" />
    <glyph glyph-name="g" unicode="g" 
d="M120 -97c0 -61 60 -109 186 -109c139 0 222 68 222 132c0 57 -43 76 -131 76h-121c-22 0 -50 2 -73 9c-62 -33 -83 -71 -83 -108zM88 -93c0 37 30 82 82 115v4c-24 11 -50 36 -50 76c0 30 20 64 58 90v4c-30 26 -56 66 -56 124c0 96 78 170 174 170c26 0 46 -4 64 -12
h200v-28h-152c32 -30 62 -75 62 -130c0 -96 -78 -168 -174 -168c-30 0 -64 8 -94 24c-30 -18 -50 -44 -50 -71c0 -49 46 -71 114 -71h123c121 0 171 -30 171 -106c0 -80 -96 -162 -248 -162s-224 58 -224 141zM296 180c78 0 142 58 142 140s-64 142 -142 142
s-142 -60 -142 -142s64 -140 142 -140z" />
    <glyph glyph-name="h" unicode="h" 
d="M110 0v722h30v-214l-2 -130c63 66 120 112 198 112c117 0 174 -61 174 -192v-298h-30v294c0 113 -43 168 -144 168c-72 0 -122 -38 -196 -116v-346h-30z" />
    <glyph glyph-name="i" unicode="i" 
d="M100 450v28h276v-478h-30v450h-246zM350 600c-22 0 -40 16 -40 42s18 42 40 42s40 -16 40 -42s-18 -42 -40 -42z" />
    <glyph glyph-name="j" unicode="j" 
d="M100 450v28h276v-524c0 -118 -44 -188 -182 -188c-43 0 -93 14 -128 32l14 26c31 -16 76 -30 119 -30c117 0 147 63 147 154v502h-246zM350 600c-22 0 -40 16 -40 42s18 42 40 42s40 -16 40 -42s-18 -42 -40 -42z" />
    <glyph glyph-name="k" unicode="k" 
d="M130 0v722h30v-546h4l326 302h40l-198 -184l232 -294h-36l-220 276l-148 -138v-138h-30z" />
    <glyph glyph-name="l" unicode="l" 
d="M97 694v28h213v-590c0 -78 35 -116 107 -116c32 0 63 8 103 27l12 -25c-38 -15 -71 -30 -117 -30c-86 0 -135 43 -135 150v556h-183z" />
    <glyph glyph-name="m" unicode="m" 
d="M80 0v478h26l4 -66h2c29 48 58 78 111 78c54 0 84 -28 97 -86c37 56 66 86 119 86c66 0 103 -46 103 -142v-348h-30v344c0 78 -25 118 -75 118c-47 0 -77 -32 -111 -96v-366h-30v344c0 78 -25 118 -75 118c-47 0 -77 -32 -111 -96v-366h-30z" />
    <glyph glyph-name="n" unicode="n" 
d="M110 0v478h26l4 -96h4c57 62 114 108 192 108c117 0 174 -61 174 -192v-298h-30v294c0 113 -43 168 -144 168c-72 0 -122 -38 -196 -116v-346h-30z" />
    <glyph glyph-name="o" unicode="o" 
d="M70 238c0 160 105 252 230 252s230 -92 230 -252c0 -158 -105 -250 -230 -250s-230 92 -230 250zM102 238c0 -132 84 -222 198 -222s198 90 198 222s-84 224 -198 224s-198 -92 -198 -224z" />
    <glyph glyph-name="p" unicode="p" 
d="M140 58v-100v-180h-30v700h26l4 -72h2c49 48 120 84 184 84c137 0 204 -96 204 -244c0 -162 -105 -258 -226 -258c-47 0 -113 26 -164 70zM140 92c60 -55 127 -76 166 -76c112 0 192 96 192 230c0 122 -49 216 -174 216c-53 0 -120 -30 -184 -94v-276z" />
    <glyph glyph-name="q" unicode="q" 
d="M70 238c0 154 107 252 228 252c62 0 111 -26 160 -68h2l4 56h26v-700h-30v200l2 98c-48 -48 -110 -88 -180 -88c-126 0 -212 88 -212 250zM102 238c0 -132 68 -222 182 -222c59 0 119 34 176 94v276c-58 55 -111 76 -164 76c-108 0 -194 -100 -194 -224z" />
    <glyph glyph-name="r" unicode="r" 
d="M170 0v478h26l4 -120h2c52 76 131 132 229 132c31 0 66 -4 97 -20l-10 -28c-36 13 -53 18 -91 18c-83 0 -157 -42 -227 -154v-306h-30z" />
    <glyph glyph-name="s" unicode="s" 
d="M87 64l19 24c52 -44 114 -72 218 -72s158 48 158 102c0 46 -28 81 -178 116c-111 26 -190 70 -190 132c0 66 55 124 182 124c61 0 135 -24 180 -58l-18 -24c-42 32 -97 54 -164 54c-113 0 -148 -46 -148 -94s64 -80 166 -105c158 -39 202 -77 202 -143
c0 -70 -70 -132 -192 -132c-100 0 -179 35 -235 76z" />
    <glyph glyph-name="t" unicode="t" 
d="M232 176v274h-148v24l148 4l4 140h26v-140h262v-28h-262v-278c0 -96 26 -156 137 -156c53 0 94 10 133 26l10 -24c-43 -18 -101 -30 -145 -30c-127 0 -165 76 -165 188z" />
    <glyph glyph-name="u" unicode="u" 
d="M490 478v-478h-26l-4 96h-4c-53 -62 -114 -108 -192 -108c-117 0 -174 61 -174 192v298h30v-294c0 -113 43 -168 144 -168c72 0 126 37 196 116v346h30z" />
    <glyph glyph-name="v" unicode="v" 
d="M286 0l-220 478h32l140 -310c22 -48 43 -94 62 -136h4c19 42 38 88 60 136l140 310h30l-218 -478h-30z" />
    <glyph glyph-name="w" unicode="w" 
d="M142 0l-130 478h34l83 -322c11 -44 22 -84 31 -126h4c11 42 22 82 33 126l83 322h42l83 -322c11 -44 22 -84 33 -126h4c11 42 22 82 32 126l82 322h32l-128 -478h-42l-82 312c-12 46 -21 90 -34 136h-4c-11 -46 -20 -92 -34 -138l-80 -310h-42z" />
    <glyph glyph-name="x" unicode="x" 
d="M86 0l195 248l-179 230h36l98 -128c20 -26 40 -54 62 -80h4c22 26 46 56 66 82l96 126h34l-181 -230l197 -248h-36l-108 137c-22 27 -46 61 -70 89h-4c-24 -30 -46 -58 -70 -90l-106 -136h-34z" />
    <glyph glyph-name="y" unicode="y" 
d="M77 -184c12 -4 30 -8 48 -8c77 0 126 58 157 136l18 44l-236 490h32l148 -314c19 -40 44 -92 68 -134h4c20 42 41 94 58 134l132 314h30l-230 -546c-26 -74 -86 -154 -184 -154c-18 0 -42 4 -55 10z" />
    <glyph glyph-name="z" unicode="z" 
d="M72 0v16l392 434h-350v28h398v-16l-392 -434h404v-28h-452z" />
    <glyph glyph-name="braceleft" unicode="{" 
d="M274 -26c0 74 9 140 9 211c0 41 -25 81 -151 81v24c126 0 151 40 151 81c0 64 -9 143 -9 211c0 99 61 126 184 126h48v-23h-60c-117 0 -142 -34 -142 -107c0 -61 7 -131 7 -196c0 -55 -17 -90 -83 -102v-4c66 -12 83 -47 83 -102c0 -74 -7 -129 -7 -196
c0 -73 25 -107 142 -107h60v-23h-48c-123 0 -184 27 -184 126z" />
    <glyph glyph-name="bar" unicode="|" 
d="M286 -250v1000h28v-1000h-28z" />
    <glyph glyph-name="braceright" unicode="}" 
d="M94 -129h60c117 0 144 34 144 107c0 67 -8 122 -8 196c0 55 15 90 82 102v4c-67 12 -82 47 -82 102c0 65 8 135 8 196c0 73 -27 107 -144 107h-60v23h48c123 0 183 -27 183 -126c0 -68 -8 -147 -8 -211c0 -41 25 -81 150 -81v-24c-125 0 -150 -40 -150 -81
c0 -71 8 -137 8 -211c0 -99 -60 -126 -183 -126h-48v23z" />
    <glyph glyph-name="asciitilde" unicode="~" 
d="M120 272l-24 8c28 86 72 110 114 110c76 0 124 -92 182 -92c34 0 62 8 88 90l24 -10c-28 -84 -72 -108 -114 -108c-76 0 -124 92 -182 92c-34 0 -62 -10 -88 -90z" />
    <glyph glyph-name="uni00A0" unicode="&#xa0;" 
 />
    <glyph glyph-name="exclamdown" unicode="&#xa1;" 
d="M312 264l2 -394v-62h-28v62l2 394h24zM352 432c0 -38 -26 -58 -52 -58s-52 20 -52 58s26 58 52 58s52 -20 52 -58z" />
    <glyph glyph-name="cent" unicode="&#xa2;" 
d="M316 113v397c-90 -11 -158 -88 -158 -198c0 -111 62 -188 158 -199zM474 168l18 -20c-39 -35 -88 -63 -148 -64v-110h-28v111c-110 10 -190 91 -190 227c0 138 86 216 190 227v113h28v-112c64 -1 105 -31 136 -60l-18 -20c-31 29 -70 51 -118 52v-400c52 1 97 26 130 56z
" />
    <glyph glyph-name="sterling" unicode="&#xa3;" 
d="M153 28h363v-28h-429v18c94 44 129 122 129 200c0 27 -5 53 -13 78h-121v26l112 2c-18 54 -42 106 -42 162c0 102 73 166 195 166c82 0 134 -34 167 -70l-22 -20c-34 34 -79 62 -149 62c-107 0 -162 -62 -162 -136c0 -57 25 -108 44 -164h205v-28h-197
c7 -24 11 -50 11 -78c0 -88 -32 -140 -91 -186v-4z" />
    <glyph glyph-name="currency" unicode="&#xa4;" 
d="M96 98l-20 22l86 88c-24 32 -38 73 -38 120c0 49 14 91 38 123l-86 89l20 22l86 -89c31 30 73 47 118 47c44 0 86 -17 118 -47l86 89l20 -22l-87 -89c24 -32 39 -74 39 -123c0 -47 -15 -88 -38 -120l86 -88l-20 -22l-86 88c-31 -31 -74 -48 -118 -48
c-45 0 -87 17 -119 48zM156 328c0 -96 66 -162 144 -162s144 66 144 162s-66 164 -144 164s-144 -68 -144 -164z" />
    <glyph glyph-name="yen" unicode="&#xa5;" 
d="M70 640h32l117 -202c26 -44 51 -88 79 -138h4c28 50 53 94 81 138l117 202h30l-205 -342h183v-28h-194v-74h194v-28h-194v-168h-30v168h-192v28h192v74h-192v28h181z" />
    <glyph glyph-name="brokenbar" unicode="&#xa6;" 
d="M286 274v476h28v-476h-28zM286 222h28v-472h-28v472z" />
    <glyph glyph-name="section" unicode="&#xa7;" 
d="M372 176c58 24 92 48 92 106c0 116 -149 129 -234 187c-55 -28 -94 -56 -94 -111c0 -112 149 -125 236 -182zM446 628l-18 -22c-35 26 -70 46 -126 46c-72 0 -100 -42 -100 -82c0 -139 292 -100 292 -286c0 -69 -41 -101 -97 -129c21 -20 35 -47 35 -83
c0 -70 -66 -120 -136 -120c-72 0 -126 26 -166 60l22 22c37 -32 75 -54 144 -54c64 0 106 42 106 90c0 144 -296 104 -296 286c0 67 45 104 100 132c-21 20 -34 45 -34 80c0 52 40 112 130 112c56 0 105 -22 144 -52z" />
    <glyph glyph-name="dieresis" unicode="&#xa8;" 
d="M214 602c-20 0 -34 16 -34 36s14 36 34 36s34 -16 34 -36s-14 -36 -34 -36zM386 602c-20 0 -34 16 -34 36s14 36 34 36s34 -16 34 -36s-14 -36 -34 -36z" />
    <glyph glyph-name="copyright" unicode="&#xa9;" 
d="M40 322c0 201 106 330 260 330s260 -129 260 -330c0 -202 -106 -334 -260 -334s-260 132 -260 334zM70 322c0 -184 92 -308 230 -308s230 124 230 308c0 183 -92 304 -230 304s-230 -121 -230 -304zM152 322c0 116 74 186 158 186c44 0 72 -18 98 -44l-18 -22
c-26 23 -48 36 -82 36c-70 0 -122 -62 -122 -156c0 -104 48 -168 120 -168c42 0 72 19 98 42l16 -22c-30 -28 -60 -50 -116 -50c-82 0 -152 72 -152 198z" />
    <glyph glyph-name="ordfeminine" unicode="&#xaa;" 
d="M178 339c0 71 73 104 224 120c0 51 -16 99 -83 99c-46 0 -86 -21 -111 -37l-15 23c25 16 75 41 129 41c82 0 112 -54 112 -123v-202h-27l-3 41h-1c-35 -26 -78 -49 -123 -49c-54 0 -102 28 -102 87zM210 341c0 -44 36 -62 76 -62c38 0 75 18 116 50v106
c-139 -15 -192 -44 -192 -94z" />
    <glyph glyph-name="guillemotleft" unicode="&#xab;" 
d="M253 74l-138 164v28l138 164l20 -18l-126 -160l126 -162zM453 74l-138 164v28l138 164l20 -18l-126 -160l126 -162z" />
    <glyph glyph-name="logicalnot" unicode="&#xac;" 
d="M98 316v28h404v-232h-32v204h-372z" />
    <glyph glyph-name="uni00AD" unicode="&#xad;" 
d="M98 316v28h404v-28h-404z" />
    <glyph glyph-name="registered" unicode="&#xae;" 
d="M300 326c-98 0 -180 76 -180 192s82 194 180 194s180 -78 180 -194s-82 -192 -180 -192zM300 352c84 0 152 70 152 166s-68 168 -152 168s-152 -72 -152 -168s68 -166 152 -166zM234 418v208h66c38 0 76 -14 76 -64c0 -26 -18 -50 -40 -56l50 -88h-34l-40 78h-50v-78h-28
zM262 522h30c32 0 54 10 54 38c0 24 -12 40 -50 40h-34v-78z" />
    <glyph glyph-name="macron" unicode="&#xaf;" 
d="M190 608v28h220v-28h-220z" />
    <glyph glyph-name="degree" unicode="&#xb0;" 
d="M300 454c-56 0 -110 42 -110 114c0 74 54 116 110 116s110 -42 110 -116c0 -72 -54 -114 -110 -114zM300 480c48 0 82 38 82 88c0 52 -34 90 -82 90s-82 -38 -82 -90c0 -50 34 -88 82 -88z" />
    <glyph glyph-name="plusminus" unicode="&#xb1;" 
d="M284 102v210h-186v28h186v208h32v-208h186v-28h-186v-210h-32zM98 0v28h404v-28h-404z" />
    <glyph glyph-name="two.sups" unicode="&#xb2;" 
d="M193 440v20c121 100 173 141 173 194c0 45 -27 72 -74 72c-34 0 -64 -20 -84 -48l-22 16c24 32 63 58 106 58c66 0 104 -35 104 -99c0 -61 -66 -111 -153 -187h171v-26h-221z" />
    <glyph glyph-name="three.sups" unicode="&#xb3;" 
d="M178 492l24 18c20 -32 56 -56 98 -56c46 0 78 18 78 62c0 43 -38 64 -114 64v24c69 0 98 30 98 66c0 34 -20 56 -68 56c-25 0 -60 -14 -80 -40l-20 18c22 29 62 48 102 48c58 0 96 -28 96 -80c0 -40 -20 -64 -58 -78c40 -8 74 -34 74 -78c0 -60 -46 -88 -110 -88
c-50 0 -98 31 -120 64z" />
    <glyph glyph-name="acute" unicode="&#xb4;" 
d="M380 706l-104 -134h-28l92 134h40z" />
    <glyph glyph-name="uni00B5" unicode="&#xb5;" 
d="M90 -180v658h30v-294c0 -104 41 -168 142 -168c61 0 125 15 198 138v324h30c-1 -144 -2 -288 -2 -432c0 -20 10 -30 22 -30c4 0 8 0 18 2l6 -26c-8 -2 -15 -4 -26 -4c-40 0 -48 35 -48 124h-2c-53 -86 -120 -124 -192 -124c-64 0 -116 14 -150 76c0 -119 0 -158 4 -244
h-30z" />
    <glyph glyph-name="paragraph" unicode="&#xb6;" 
d="M424 -80v740h28v-740h-28zM368 660v-410h-26c-150 0 -250 56 -250 204s94 206 232 206h44z" />
    <glyph glyph-name="periodcentered" unicode="&#xb7;" 
d="M248 342c0 38 26 58 52 58s52 -20 52 -58s-26 -58 -52 -58s-52 20 -52 58z" />
    <glyph glyph-name="cedilla" unicode="&#xb8;" 
d="M266 -74l40 76h28l-30 -58c32 -10 60 -28 60 -68c0 -50 -58 -74 -118 -82l-6 26c56 8 94 24 94 52c0 32 -30 44 -68 54z" />
    <glyph glyph-name="one.sups" unicode="&#xb9;" 
d="M300 440v245h-82v24c38 7 62 17 86 31h24v-300h-28z" />
    <glyph glyph-name="ordmasculine" unicode="&#xba;" 
d="M150 418c0 106 69 167 150 167c82 0 150 -61 150 -167c0 -105 -68 -166 -150 -166c-81 0 -150 61 -150 166zM183 418c0 -82 49 -138 117 -138s117 56 117 138s-49 140 -117 140s-117 -58 -117 -140z" />
    <glyph glyph-name="guillemotright" unicode="&#xbb;" 
d="M127 90l126 162l-126 160l20 18l138 -164v-28l-138 -164zM327 90l126 162l-126 160l20 18l138 -164v-28l-138 -164z" />
    <glyph glyph-name="onequarter" unicode="&#xbc;" 
d="M562 602l-180 -200l-18 16l172 206zM160 340v245h-82v24c38 7 62 17 86 31h24v-300h-28zM38 58l180 200l18 -16l-172 -206zM360 107h124v83l4 68h-4l-53 -66zM512 300v-193h49v-24h-49v-83h-28v83h-164v15l172 202h20z" />
    <glyph glyph-name="onehalf" unicode="&#xbd;" 
d="M160 340v245h-82v24c38 7 62 17 86 31h24v-300h-28zM64 36l-26 22l180 200l18 -16zM536 624l26 -22l-180 -200l-18 16zM333 0v20c121 100 173 141 173 194c0 45 -27 72 -74 72c-34 0 -64 -20 -84 -48l-22 16c24 32 63 58 106 58c66 0 104 -35 104 -99
c0 -61 -66 -111 -153 -187h171v-26h-221z" />
    <glyph glyph-name="threequarters" unicode="&#xbe;" 
d="M602 602l-180 -200l-18 16l172 206zM74 586l-20 18c22 29 62 48 102 48c58 0 96 -28 96 -80c0 -40 -20 -64 -58 -78c40 -8 74 -34 74 -78c0 -60 -46 -88 -110 -88c-50 0 -98 31 -120 64l24 18c20 -32 56 -56 98 -56c46 0 78 18 78 62c0 43 -38 64 -114 64v24
c69 0 98 30 98 66c0 34 -20 56 -68 56c-25 0 -60 -14 -80 -40zM78 58l180 200l18 -16l-172 -206zM360 107h124v83l4 68h-4l-53 -66zM512 300v-193h49v-24h-49v-83h-28v83h-164v15l172 202h20z" />
    <glyph glyph-name="questiondown" unicode="&#xbf;" 
d="M340 264c26 -150 -170 -192 -170 -316c0 -66 42 -124 140 -124c58 0 112 24 152 66l22 -20c-42 -42 -100 -74 -176 -74c-108 0 -170 68 -170 150c0 132 196 177 174 318h28zM368 432c0 -38 -26 -58 -52 -58s-52 20 -52 58s26 58 52 58s52 -20 52 -58z" />
    <glyph glyph-name="Agrave" unicode="&#xc0;" 
d="M332 710h-30l-108 104h44zM175 264h249l-46 132c-28 80 -52 148 -76 230h-4c-24 -82 -48 -150 -76 -230zM516 0l-82 236h-269l-83 -236h-32l236 660h28l236 -660h-34z" />
    <glyph glyph-name="Aacute" unicode="&#xc1;" 
d="M406 814l-108 -104h-30l94 104h44zM175 264h249l-46 132c-28 80 -52 148 -76 230h-4c-24 -82 -48 -150 -76 -230zM516 0l-82 236h-269l-83 -236h-32l236 660h28l236 -660h-34z" />
    <glyph glyph-name="Acircumflex" unicode="&#xc2;" 
d="M298 784l-78 -74h-30l96 104h28l96 -104h-30l-78 74h-4zM175 264h249l-46 132c-28 80 -52 148 -76 230h-4c-24 -82 -48 -150 -76 -230zM516 0l-82 236h-269l-83 -236h-32l236 660h28l236 -660h-34z" />
    <glyph glyph-name="Atilde" unicode="&#xc3;" 
d="M402 804h22c-2 -38 -22 -86 -66 -86c-52 0 -76 58 -118 58c-22 0 -38 -24 -42 -58h-22c2 38 22 86 66 86c52 0 76 -58 118 -58c22 0 38 24 42 58zM175 264h249l-46 132c-28 80 -52 148 -76 230h-4c-24 -82 -48 -150 -76 -230zM516 0l-82 236h-269l-83 -236h-32l236 660
h28l236 -660h-34z" />
    <glyph glyph-name="Adieresis" unicode="&#xc4;" 
d="M376 728c-18 0 -32 12 -32 32s14 32 32 32s32 -12 32 -32s-14 -32 -32 -32zM224 728c-18 0 -32 12 -32 32s14 32 32 32s32 -12 32 -32s-14 -32 -32 -32zM175 264h249l-46 132c-28 80 -52 148 -76 230h-4c-24 -82 -48 -150 -76 -230zM516 0l-82 236h-269l-83 -236h-32
l236 660h28l236 -660h-34z" />
    <glyph glyph-name="Aring" unicode="&#xc5;" 
d="M300 838c-30 0 -54 -22 -54 -58c0 -38 24 -58 54 -58c28 0 52 20 52 58c0 36 -24 58 -52 58zM300 700c-44 0 -78 32 -78 80s34 80 78 80c42 0 78 -32 78 -80s-36 -80 -78 -80zM175 264h249l-46 132c-28 80 -52 148 -76 230h-4c-24 -82 -48 -150 -76 -230zM516 0l-82 236
h-269l-83 -236h-32l236 660h28l236 -660h-34z" />
    <glyph glyph-name="AE" unicode="&#xc6;" 
d="M149 254h173v376h-4c-34 -78 -70 -154 -106 -236zM354 28h234v-28h-266v226h-185l-101 -226h-36l302 660h276v-28h-224v-266h170v-28h-170v-310z" />
    <glyph glyph-name="Ccedilla" unicode="&#xc7;" 
d="M521 102l20 -20c-48 -56 -104 -92 -186 -94l-23 -44c32 -10 60 -28 60 -68c0 -50 -58 -74 -118 -82l-6 26c56 8 94 24 94 52c0 32 -30 44 -68 54l33 63c-151 10 -253 144 -253 343c0 208 111 340 279 340c76 0 134 -38 168 -78l-20 -22c-36 42 -86 70 -148 70
c-152 0 -245 -120 -245 -310s93 -314 241 -314c70 0 122 28 172 84z" />
    <glyph glyph-name="Egrave" unicode="&#xc8;" 
d="M132 0v660h384v-28h-352v-266h296v-28h-296v-310h362v-28h-394zM340 710l-108 104h44l94 -104h-30z" />
    <glyph glyph-name="Eacute" unicode="&#xc9;" 
d="M132 0v660h384v-28h-352v-266h296v-28h-296v-310h362v-28h-394zM444 814l-108 -104h-30l94 104h44z" />
    <glyph glyph-name="Ecircumflex" unicode="&#xca;" 
d="M132 0v660h384v-28h-352v-266h296v-28h-296v-310h362v-28h-394zM258 710h-30l96 104h28l96 -104h-30l-78 74h-4z" />
    <glyph glyph-name="Edieresis" unicode="&#xcb;" 
d="M132 0v660h384v-28h-352v-266h296v-28h-296v-310h362v-28h-394zM262 728c-18 0 -32 12 -32 32s14 32 32 32s32 -12 32 -32s-14 -32 -32 -32zM414 728c-18 0 -32 12 -32 32s14 32 32 32s32 -12 32 -32s-14 -32 -32 -32z" />
    <glyph glyph-name="Igrave" unicode="&#xcc;" 
d="M112 0v28h172v604h-172v28h376v-28h-172v-604h172v-28h-376zM302 710l-108 104h44l94 -104h-30z" />
    <glyph glyph-name="Iacute" unicode="&#xcd;" 
d="M112 0v28h172v604h-172v28h376v-28h-172v-604h172v-28h-376zM406 814l-108 -104h-30l94 104h44z" />
    <glyph glyph-name="Icircumflex" unicode="&#xce;" 
d="M112 0v28h172v604h-172v28h376v-28h-172v-604h172v-28h-376zM220 710h-30l96 104h28l96 -104h-30l-78 74h-4z" />
    <glyph glyph-name="Idieresis" unicode="&#xcf;" 
d="M112 0v28h172v604h-172v28h376v-28h-172v-604h172v-28h-376zM224 728c-18 0 -32 12 -32 32s14 32 32 32s32 -12 32 -32s-14 -32 -32 -32zM376 728c-18 0 -32 12 -32 32s14 32 32 32s32 -12 32 -32s-14 -32 -32 -32z" />
    <glyph glyph-name="Eth" unicode="&#xd0;" 
d="M106 0v336h-78v24l78 4v296h148c204 0 296 -132 296 -328s-92 -332 -296 -332h-148zM138 28h112c188 0 266 130 266 304s-78 300 -266 300h-112v-268h172v-28h-172v-308z" />
    <glyph glyph-name="Ntilde" unicode="&#xd1;" 
d="M96 0v660h33l274 -486l73 -128h2c-1 63 -4 123 -4 185v429h30v-660h-33l-274 486l-73 128h-2c1 -63 4 -119 4 -181v-433h-30zM364 718c-52 0 -76 58 -118 58c-22 0 -38 -24 -42 -58h-22c2 38 22 86 66 86c52 0 76 -58 118 -58c22 0 38 24 42 58h22
c-2 -38 -22 -86 -66 -86z" />
    <glyph glyph-name="Ograve" unicode="&#xd2;" 
d="M300 -12c-142 0 -244 136 -244 344s102 340 244 340s244 -132 244 -340s-102 -344 -244 -344zM300 18c125 0 210 124 210 314s-85 310 -210 310s-210 -120 -210 -310s85 -314 210 -314zM302 710l-108 104h44l94 -104h-30z" />
    <glyph glyph-name="Oacute" unicode="&#xd3;" 
d="M300 -12c-142 0 -244 136 -244 344s102 340 244 340s244 -132 244 -340s-102 -344 -244 -344zM300 18c125 0 210 124 210 314s-85 310 -210 310s-210 -120 -210 -310s85 -314 210 -314zM406 814l-108 -104h-30l94 104h44z" />
    <glyph glyph-name="Ocircumflex" unicode="&#xd4;" 
d="M300 -12c-142 0 -244 136 -244 344s102 340 244 340s244 -132 244 -340s-102 -344 -244 -344zM300 18c125 0 210 124 210 314s-85 310 -210 310s-210 -120 -210 -310s85 -314 210 -314zM220 710h-30l96 104h28l96 -104h-30l-78 74h-4z" />
    <glyph glyph-name="Otilde" unicode="&#xd5;" 
d="M300 -12c-142 0 -244 136 -244 344s102 340 244 340s244 -132 244 -340s-102 -344 -244 -344zM300 18c125 0 210 124 210 314s-85 310 -210 310s-210 -120 -210 -310s85 -314 210 -314zM358 718c-52 0 -76 58 -118 58c-22 0 -38 -24 -42 -58h-22c2 38 22 86 66 86
c52 0 76 -58 118 -58c22 0 38 24 42 58h22c-2 -38 -22 -86 -66 -86z" />
    <glyph glyph-name="Odieresis" unicode="&#xd6;" 
d="M300 -12c-142 0 -244 136 -244 344s102 340 244 340s244 -132 244 -340s-102 -344 -244 -344zM300 18c125 0 210 124 210 314s-85 310 -210 310s-210 -120 -210 -310s85 -314 210 -314zM224 728c-18 0 -32 12 -32 32s14 32 32 32s32 -12 32 -32s-14 -32 -32 -32zM376 728
c-18 0 -32 12 -32 32s14 32 32 32s32 -12 32 -32s-14 -32 -32 -32z" />
    <glyph glyph-name="multiply" unicode="&#xd7;" 
d="M136 138l-20 22l164 170l-164 170l20 22l164 -172l164 172l20 -22l-164 -170l164 -170l-20 -22l-164 172z" />
    <glyph glyph-name="Oslash" unicode="&#xd8;" 
d="M459 547l-303 -454c36 -48 86 -75 144 -75c125 0 210 124 210 314c0 88 -18 162 -51 215zM139 118l304 453c-36 46 -85 71 -143 71c-125 0 -210 -120 -210 -310c0 -87 18 -161 49 -214zM538 664l-59 -89c41 -58 65 -142 65 -243c0 -208 -102 -344 -244 -344
c-64 0 -120 28 -163 78l-57 -86l-22 16l62 93c-40 59 -64 143 -64 243c0 208 102 340 244 340c64 0 119 -26 161 -74l55 82z" />
    <glyph glyph-name="Ugrave" unicode="&#xd9;" 
d="M92 246v414h32v-406c0 -182 84 -236 176 -236c94 0 178 54 178 236v406h30v-414c0 -204 -104 -258 -208 -258s-208 54 -208 258zM302 710l-108 104h44l94 -104h-30z" />
    <glyph glyph-name="Uacute" unicode="&#xda;" 
d="M92 246v414h32v-406c0 -182 84 -236 176 -236c94 0 178 54 178 236v406h30v-414c0 -204 -104 -258 -208 -258s-208 54 -208 258zM406 814l-108 -104h-30l94 104h44z" />
    <glyph glyph-name="Ucircumflex" unicode="&#xdb;" 
d="M92 246v414h32v-406c0 -182 84 -236 176 -236c94 0 178 54 178 236v406h30v-414c0 -204 -104 -258 -208 -258s-208 54 -208 258zM220 710h-30l96 104h28l96 -104h-30l-78 74h-4z" />
    <glyph glyph-name="Udieresis" unicode="&#xdc;" 
d="M92 246v414h32v-406c0 -182 84 -236 176 -236c94 0 178 54 178 236v406h30v-414c0 -204 -104 -258 -208 -258s-208 54 -208 258zM224 728c-18 0 -32 12 -32 32s14 32 32 32s32 -12 32 -32s-14 -32 -32 -32zM376 728c-18 0 -32 12 -32 32s14 32 32 32s32 -12 32 -32
s-14 -32 -32 -32z" />
    <glyph glyph-name="Yacute" unicode="&#xdd;" 
d="M284 0v245l-228 415h32l124 -226c31 -51 57 -103 88 -156h4c32 53 61 105 90 157l120 225h30l-228 -415v-245h-32zM406 814l-108 -104h-30l94 104h44z" />
    <glyph glyph-name="Thorn" unicode="&#xde;" 
d="M124 0v660h32v-120h140c148 0 232 -48 232 -180c0 -126 -84 -188 -232 -188h-140v-172h-32zM156 200h128c142 0 210 46 210 160c0 116 -68 152 -210 152h-128v-312z" />
    <glyph glyph-name="germandbls" unicode="&#xdf;" 
d="M110 0v538c0 122 77 196 180 196c87 0 144 -58 144 -132c0 -104 -114 -140 -114 -224c0 -122 238 -84 238 -254c0 -78 -67 -136 -154 -136c-57 0 -108 20 -147 52l19 24c42 -32 80 -48 129 -48c81 0 121 52 121 106c0 148 -238 108 -238 254c0 100 114 132 114 224
c0 60 -40 106 -114 106c-87 0 -148 -58 -148 -182v-524h-30z" />
    <glyph glyph-name="agrave" unicode="&#xe0;" 
d="M96 117c0 107 110 157 374 181c0 84 -32 164 -148 164c-76 0 -149 -40 -186 -68l-16 24c34 26 118 72 204 72c127 0 176 -84 176 -180v-310h-26l-4 74h-2c-56 -45 -132 -86 -204 -86c-84 0 -168 38 -168 129zM128 118c0 -74 70 -102 138 -102c64 0 132 31 204 92v164
c-258 -24 -342 -72 -342 -154zM342 572l-104 134h40l92 -134h-28z" />
    <glyph glyph-name="aacute" unicode="&#xe1;" 
d="M96 117c0 107 110 157 374 181c0 84 -32 164 -148 164c-76 0 -149 -40 -186 -68l-16 24c34 26 118 72 204 72c127 0 176 -84 176 -180v-310h-26l-4 74h-2c-56 -45 -132 -86 -204 -86c-84 0 -168 38 -168 129zM128 118c0 -74 70 -102 138 -102c64 0 132 31 204 92v164
c-258 -24 -342 -72 -342 -154zM398 706l-104 -134h-28l92 134h40z" />
    <glyph glyph-name="acircumflex" unicode="&#xe2;" 
d="M96 117c0 107 110 157 374 181c0 84 -32 164 -148 164c-76 0 -149 -40 -186 -68l-16 24c34 26 118 72 204 72c127 0 176 -84 176 -180v-310h-26l-4 74h-2c-56 -45 -132 -86 -204 -86c-84 0 -168 38 -168 129zM128 118c0 -74 70 -102 138 -102c64 0 132 31 204 92v164
c-258 -24 -342 -72 -342 -154zM210 572l94 134h28l94 -134h-28l-78 102h-4l-78 -102h-28z" />
    <glyph glyph-name="atilde" unicode="&#xe3;" 
d="M96 117c0 107 110 157 374 181c0 84 -32 164 -148 164c-76 0 -149 -40 -186 -68l-16 24c34 26 118 72 204 72c127 0 176 -84 176 -180v-310h-26l-4 74h-2c-56 -45 -132 -86 -204 -86c-84 0 -168 38 -168 129zM128 118c0 -74 70 -102 138 -102c64 0 132 31 204 92v164
c-258 -24 -342 -72 -342 -154zM200 582c2 36 17 82 64 82c48 0 75 -56 110 -56c22 0 34 22 38 56h24c-2 -35 -17 -82 -64 -82c-48 0 -73 56 -110 56c-22 0 -34 -21 -38 -56h-24z" />
    <glyph glyph-name="adieresis" unicode="&#xe4;" 
d="M96 117c0 107 110 157 374 181c0 84 -32 164 -148 164c-76 0 -149 -40 -186 -68l-16 24c34 26 118 72 204 72c127 0 176 -84 176 -180v-310h-26l-4 74h-2c-56 -45 -132 -86 -204 -86c-84 0 -168 38 -168 129zM128 118c0 -74 70 -102 138 -102c64 0 132 31 204 92v164
c-258 -24 -342 -72 -342 -154zM232 602c-20 0 -34 16 -34 36s14 36 34 36s34 -16 34 -36s-14 -36 -34 -36zM404 602c-20 0 -34 16 -34 36s14 36 34 36s34 -16 34 -36s-14 -36 -34 -36z" />
    <glyph glyph-name="aring" unicode="&#xe5;" 
d="M96 117c0 107 110 157 374 181c0 84 -32 164 -148 164c-76 0 -149 -40 -186 -68l-16 24c34 26 118 72 204 72c127 0 176 -84 176 -180v-310h-26l-4 74h-2c-56 -45 -132 -86 -204 -86c-84 0 -168 38 -168 129zM128 118c0 -74 70 -102 138 -102c64 0 132 31 204 92v164
c-258 -24 -342 -72 -342 -154zM318 538c-44 0 -78 34 -78 84s34 84 78 84s78 -34 78 -84s-34 -84 -78 -84zM318 560c30 0 54 24 54 62s-24 62 -54 62s-54 -24 -54 -62s24 -62 54 -62z" />
    <glyph glyph-name="ae" unicode="&#xe6;" 
d="M17 122c0 92 92 154 267 176c1 94 -27 165 -110 165c-42 0 -96 -25 -124 -46l-14 23c29 20 84 50 147 50c68 0 111 -52 125 -118c30 72 83 118 152 118c96 0 140 -98 140 -208c0 -12 0 -24 -2 -44h-283c-1 -127 45 -223 147 -223c46 0 83 18 111 35l13 -22
c-29 -18 -68 -40 -125 -40c-69 0 -117 38 -147 102c-56 -63 -117 -102 -172 -102c-71 0 -125 43 -125 134zM316 264h254c0 106 -26 198 -112 198c-85 0 -138 -78 -142 -198zM49 120c0 -69 38 -105 96 -105c46 0 109 36 157 101c-11 36 -18 80 -18 128v28
c-168 -25 -235 -71 -235 -152z" />
    <glyph glyph-name="ccedilla" unicode="&#xe7;" 
d="M360 -12l-23 -44c32 -10 60 -28 60 -68c0 -50 -58 -74 -118 -82l-6 26c56 8 94 24 94 52c0 32 -30 44 -68 54l33 62c-140 7 -242 98 -242 250c0 160 116 252 258 252c81 0 132 -36 171 -74l-20 -22c-41 40 -89 68 -151 68c-134 0 -226 -92 -226 -224s90 -222 226 -222
c67 0 122 30 166 72l18 -22c-45 -44 -102 -75 -172 -78z" />
    <glyph glyph-name="egrave" unicode="&#xe8;" 
d="M80 238c0 156 117 252 238 252c128 0 212 -82 212 -220c0 -10 0 -20 -2 -32h-416c0 -128 88 -222 220 -222c66 0 119 22 164 54l14 -26c-42 -27 -93 -56 -180 -56c-136 0 -250 94 -250 250zM112 266h388c0 130 -74 196 -182 196c-101 0 -192 -76 -206 -196zM340 572
l-104 134h40l92 -134h-28z" />
    <glyph glyph-name="eacute" unicode="&#xe9;" 
d="M80 238c0 156 117 252 238 252c128 0 212 -82 212 -220c0 -10 0 -20 -2 -32h-416c0 -128 88 -222 220 -222c66 0 119 22 164 54l14 -26c-42 -27 -93 -56 -180 -56c-136 0 -250 94 -250 250zM112 266h388c0 130 -74 196 -182 196c-101 0 -192 -76 -206 -196zM396 706
l-104 -134h-28l92 134h40z" />
    <glyph glyph-name="ecircumflex" unicode="&#xea;" 
d="M80 238c0 156 117 252 238 252c128 0 212 -82 212 -220c0 -10 0 -20 -2 -32h-416c0 -128 88 -222 220 -222c66 0 119 22 164 54l14 -26c-42 -27 -93 -56 -180 -56c-136 0 -250 94 -250 250zM112 266h388c0 130 -74 196 -182 196c-101 0 -192 -76 -206 -196zM208 572
l94 134h28l94 -134h-28l-78 102h-4l-78 -102h-28z" />
    <glyph glyph-name="edieresis" unicode="&#xeb;" 
d="M80 238c0 156 117 252 238 252c128 0 212 -82 212 -220c0 -10 0 -20 -2 -32h-416c0 -128 88 -222 220 -222c66 0 119 22 164 54l14 -26c-42 -27 -93 -56 -180 -56c-136 0 -250 94 -250 250zM112 266h388c0 130 -74 196 -182 196c-101 0 -192 -76 -206 -196zM231 602
c-20 0 -34 16 -34 36s14 36 34 36s34 -16 34 -36s-14 -36 -34 -36zM403 602c-20 0 -34 16 -34 36s14 36 34 36s34 -16 34 -36s-14 -36 -34 -36z" />
    <glyph glyph-name="igrave" unicode="&#xec;" 
d="M100 450v28h276v-478h-30v450h-246zM374 572l-104 134h40l92 -134h-28z" />
    <glyph glyph-name="iacute" unicode="&#xed;" 
d="M100 450v28h276v-478h-30v450h-246zM430 706l-104 -134h-28l92 134h40z" />
    <glyph glyph-name="icircumflex" unicode="&#xee;" 
d="M100 450v28h276v-478h-30v450h-246zM242 572l94 134h28l94 -134h-28l-78 102h-4l-78 -102h-28z" />
    <glyph glyph-name="idieresis" unicode="&#xef;" 
d="M100 450v28h276v-478h-30v450h-246zM264 602c-20 0 -34 16 -34 36s14 36 34 36s34 -16 34 -36s-14 -36 -34 -36zM436 602c-20 0 -34 16 -34 36s14 36 34 36s34 -16 34 -36s-14 -36 -34 -36z" />
    <glyph glyph-name="eth" unicode="&#xf0;" 
d="M300 16c137 0 192 106 192 234c0 19 -1 37 -2 54c-55 79 -127 108 -188 108c-136 0 -200 -92 -200 -194c0 -118 89 -202 198 -202zM502 678l-125 -65c89 -82 147 -195 147 -363c0 -160 -90 -262 -224 -262c-119 0 -230 86 -230 230c0 130 90 222 234 222
c71 0 138 -40 181 -92c-17 114 -66 191 -135 251l-150 -79l-12 22l141 74c-41 32 -88 59 -139 84l16 22c55 -26 106 -55 151 -92l133 70z" />
    <glyph glyph-name="ntilde" unicode="&#xf1;" 
d="M110 0v478h26l4 -96h4c57 62 114 108 192 108c117 0 174 -61 174 -192v-298h-30v294c0 113 -43 168 -144 168c-72 0 -122 -38 -196 -116v-346h-30zM202 582c2 36 17 82 64 82c48 0 75 -56 110 -56c22 0 34 22 38 56h24c-2 -35 -17 -82 -64 -82c-48 0 -73 56 -110 56
c-22 0 -34 -21 -38 -56h-24z" />
    <glyph glyph-name="ograve" unicode="&#xf2;" 
d="M70 238c0 160 105 252 230 252s230 -92 230 -252c0 -158 -105 -250 -230 -250s-230 92 -230 250zM102 238c0 -132 84 -222 198 -222s198 90 198 222s-84 224 -198 224s-198 -92 -198 -224zM324 572l-104 134h40l92 -134h-28z" />
    <glyph glyph-name="oacute" unicode="&#xf3;" 
d="M70 238c0 160 105 252 230 252s230 -92 230 -252c0 -158 -105 -250 -230 -250s-230 92 -230 250zM102 238c0 -132 84 -222 198 -222s198 90 198 222s-84 224 -198 224s-198 -92 -198 -224zM380 706l-104 -134h-28l92 134h40z" />
    <glyph glyph-name="ocircumflex" unicode="&#xf4;" 
d="M70 238c0 160 105 252 230 252s230 -92 230 -252c0 -158 -105 -250 -230 -250s-230 92 -230 250zM102 238c0 -132 84 -222 198 -222s198 90 198 222s-84 224 -198 224s-198 -92 -198 -224zM192 572l94 134h28l94 -134h-28l-78 102h-4l-78 -102h-28z" />
    <glyph glyph-name="otilde" unicode="&#xf5;" 
d="M70 238c0 160 105 252 230 252s230 -92 230 -252c0 -158 -105 -250 -230 -250s-230 92 -230 250zM102 238c0 -132 84 -222 198 -222s198 90 198 222s-84 224 -198 224s-198 -92 -198 -224zM182 582c2 36 17 82 64 82c48 0 75 -56 110 -56c22 0 34 22 38 56h24
c-2 -35 -17 -82 -64 -82c-48 0 -73 56 -110 56c-22 0 -34 -21 -38 -56h-24z" />
    <glyph glyph-name="odieresis" unicode="&#xf6;" 
d="M70 238c0 160 105 252 230 252s230 -92 230 -252c0 -158 -105 -250 -230 -250s-230 92 -230 250zM102 238c0 -132 84 -222 198 -222s198 90 198 222s-84 224 -198 224s-198 -92 -198 -224zM214 602c-20 0 -34 16 -34 36s14 36 34 36s34 -16 34 -36s-14 -36 -34 -36z
M386 602c-20 0 -34 16 -34 36s14 36 34 36s34 -16 34 -36s-14 -36 -34 -36z" />
    <glyph glyph-name="divide" unicode="&#xf7;" 
d="M300 474c-18 0 -32 14 -32 36c0 20 14 34 32 34s32 -14 32 -34c0 -22 -14 -36 -32 -36zM268 150c0 20 14 34 32 34s32 -14 32 -34c0 -22 -14 -36 -32 -36s-32 14 -32 36zM98 316v28h404v-28h-404z" />
    <glyph glyph-name="oslash" unicode="&#xf8;" 
d="M451 389l-282 -323c34 -32 80 -50 131 -50c114 0 198 90 198 222c0 60 -18 112 -47 151zM150 87l281 323c-34 33 -79 52 -131 52c-114 0 -198 -92 -198 -224c0 -61 18 -112 48 -151zM530 480l-58 -67c36 -42 58 -101 58 -175c0 -158 -105 -250 -230 -250
c-57 0 -110 19 -151 55l-57 -65l-22 18l59 68c-37 42 -59 101 -59 174c0 160 105 252 230 252c58 0 111 -20 152 -56l56 64z" />
    <glyph glyph-name="ugrave" unicode="&#xf9;" 
d="M490 478v-478h-26l-4 96h-4c-53 -62 -114 -108 -192 -108c-117 0 -174 61 -174 192v298h30v-294c0 -113 43 -168 144 -168c72 0 126 37 196 116v346h30zM318 572l-104 134h40l92 -134h-28z" />
    <glyph glyph-name="uacute" unicode="&#xfa;" 
d="M490 478v-478h-26l-4 96h-4c-53 -62 -114 -108 -192 -108c-117 0 -174 61 -174 192v298h30v-294c0 -113 43 -168 144 -168c72 0 126 37 196 116v346h30zM374 706l-104 -134h-28l92 134h40z" />
    <glyph glyph-name="ucircumflex" unicode="&#xfb;" 
d="M490 478v-478h-26l-4 96h-4c-53 -62 -114 -108 -192 -108c-117 0 -174 61 -174 192v298h30v-294c0 -113 43 -168 144 -168c72 0 126 37 196 116v346h30zM186 572l94 134h28l94 -134h-28l-78 102h-4l-78 -102h-28z" />
    <glyph glyph-name="udieresis" unicode="&#xfc;" 
d="M490 478v-478h-26l-4 96h-4c-53 -62 -114 -108 -192 -108c-117 0 -174 61 -174 192v298h30v-294c0 -113 43 -168 144 -168c72 0 126 37 196 116v346h30zM208 602c-20 0 -34 16 -34 36s14 36 34 36s34 -16 34 -36s-14 -36 -34 -36zM380 602c-20 0 -34 16 -34 36
s14 36 34 36s34 -16 34 -36s-14 -36 -34 -36z" />
    <glyph glyph-name="yacute" unicode="&#xfd;" 
d="M77 -184c12 -4 30 -8 48 -8c77 0 126 58 157 136l18 44l-236 490h32l148 -314c19 -40 44 -92 68 -134h4c20 42 41 94 58 134l132 314h30l-230 -546c-26 -74 -86 -154 -184 -154c-18 0 -42 4 -55 10zM382 706l-104 -134h-28l92 134h40z" />
    <glyph glyph-name="thorn" unicode="&#xfe;" 
d="M140 -42v-180h-30v944h30v-224l-2 -96c54 52 122 88 186 88c137 0 206 -96 206 -244c0 -162 -107 -258 -226 -258c-49 0 -112 26 -164 70v-100zM140 92c60 -55 125 -76 166 -76c110 0 192 96 192 230c0 122 -51 216 -176 216c-53 0 -118 -30 -182 -94v-276z" />
    <glyph glyph-name="ydieresis" unicode="&#xff;" 
d="M77 -184c12 -4 30 -8 48 -8c77 0 126 58 157 136l18 44l-236 490h32l148 -314c19 -40 44 -92 68 -134h4c20 42 41 94 58 134l132 314h30l-230 -546c-26 -74 -86 -154 -184 -154c-18 0 -42 4 -55 10zM216 602c-20 0 -34 16 -34 36s14 36 34 36s34 -16 34 -36
s-14 -36 -34 -36zM388 602c-20 0 -34 16 -34 36s14 36 34 36s34 -16 34 -36s-14 -36 -34 -36z" />
    <glyph glyph-name="Amacron" unicode="&#x100;" 
d="M410 764v-28h-220v28h220zM175 264h249l-46 132c-28 80 -52 148 -76 230h-4c-24 -82 -48 -150 -76 -230zM516 0l-82 236h-269l-83 -236h-32l236 660h28l236 -660h-34z" />
    <glyph glyph-name="amacron" unicode="&#x101;" 
d="M96 117c0 107 110 157 374 181c0 84 -32 164 -148 164c-76 0 -149 -40 -186 -68l-16 24c34 26 118 72 204 72c127 0 176 -84 176 -180v-310h-26l-4 74h-2c-56 -45 -132 -86 -204 -86c-84 0 -168 38 -168 129zM128 118c0 -74 70 -102 138 -102c64 0 132 31 204 92v164
c-258 -24 -342 -72 -342 -154zM208 608v28h220v-28h-220z" />
    <glyph glyph-name="Abreve" unicode="&#x102;" 
d="M386 814h26c-6 -42 -38 -102 -112 -102s-106 60 -112 102h26c6 -36 32 -76 86 -76s80 40 86 76zM175 264h249l-46 132c-28 80 -52 148 -76 230h-4c-24 -82 -48 -150 -76 -230zM516 0l-82 236h-269l-83 -236h-32l236 660h28l236 -660h-34z" />
    <glyph glyph-name="abreve" unicode="&#x103;" 
d="M96 117c0 107 110 157 374 181c0 84 -32 164 -148 164c-76 0 -149 -40 -186 -68l-16 24c34 26 118 72 204 72c127 0 176 -84 176 -180v-310h-26l-4 74h-2c-56 -45 -132 -86 -204 -86c-84 0 -168 38 -168 129zM128 118c0 -74 70 -102 138 -102c64 0 132 31 204 92v164
c-258 -24 -342 -72 -342 -154zM318 576c-80 0 -110 68 -116 116h26c6 -44 34 -90 90 -90s84 46 90 90h26c-6 -48 -36 -116 -116 -116z" />
    <glyph glyph-name="Aogonek" unicode="&#x104;" 
d="M175 264h249l-46 132c-28 80 -52 148 -76 230h-4c-24 -82 -48 -150 -76 -230zM574 -160l14 -20c-14 -12 -40 -22 -60 -22c-44 0 -80 26 -80 80c0 48 34 96 70 122h-2l-82 236h-269l-83 -236h-32l236 660h28l236 -660c-40 -30 -72 -78 -72 -120c0 -36 26 -54 52 -54
c18 0 30 4 44 14z" />
    <glyph glyph-name="aogonek" unicode="&#x105;" 
d="M96 117c0 107 110 157 374 181c0 84 -32 164 -148 164c-76 0 -149 -40 -186 -68l-16 24c34 26 118 72 204 72c127 0 176 -84 176 -180v-310c-48 -26 -86 -76 -86 -120c0 -36 24 -54 50 -54c18 0 30 4 44 14l14 -20c-14 -12 -40 -22 -60 -22c-44 0 -78 26 -78 80
c0 50 40 100 90 130l-4 66h-2c-56 -45 -132 -86 -204 -86c-84 0 -168 38 -168 129zM128 118c0 -74 70 -102 138 -102c64 0 132 31 204 92v164c-258 -24 -342 -72 -342 -154z" />
    <glyph glyph-name="Cacute" unicode="&#x106;" 
d="M74 332c0 208 111 340 279 340c76 0 134 -38 168 -78l-20 -22c-36 42 -86 70 -148 70c-152 0 -245 -120 -245 -310s93 -314 241 -314c70 0 122 28 172 84l20 -20c-50 -58 -108 -94 -194 -94c-162 0 -273 136 -273 344zM448 814l-108 -104h-30l94 104h44z" />
    <glyph glyph-name="cacute" unicode="&#x107;" 
d="M90 238c0 160 116 252 258 252c81 0 132 -36 171 -74l-20 -22c-41 40 -89 68 -151 68c-134 0 -226 -92 -226 -224s90 -222 226 -222c67 0 122 30 166 72l18 -22c-48 -46 -108 -78 -184 -78c-148 0 -258 92 -258 250zM425 706l-104 -134h-28l92 134h40z" />
    <glyph glyph-name="Ccircumflex" unicode="&#x108;" 
d="M74 332c0 208 111 340 279 340c76 0 134 -38 168 -78l-20 -22c-36 42 -86 70 -148 70c-152 0 -245 -120 -245 -310s93 -314 241 -314c70 0 122 28 172 84l20 -20c-50 -58 -108 -94 -194 -94c-162 0 -273 136 -273 344zM262 710h-30l96 104h28l96 -104h-30l-78 74h-4z" />
    <glyph glyph-name="ccircumflex" unicode="&#x109;" 
d="M90 238c0 160 116 252 258 252c81 0 132 -36 171 -74l-20 -22c-41 40 -89 68 -151 68c-134 0 -226 -92 -226 -224s90 -222 226 -222c67 0 122 30 166 72l18 -22c-48 -46 -108 -78 -184 -78c-148 0 -258 92 -258 250zM237 572l94 134h28l94 -134h-28l-78 102h-4l-78 -102
h-28z" />
    <glyph glyph-name="Cdotaccent" unicode="&#x10a;" 
d="M74 332c0 208 111 340 279 340c76 0 134 -38 168 -78l-20 -22c-36 42 -86 70 -148 70c-152 0 -245 -120 -245 -310s93 -314 241 -314c70 0 122 28 172 84l20 -20c-50 -58 -108 -94 -194 -94c-162 0 -273 136 -273 344zM342 724c-18 0 -34 14 -34 36c0 20 16 34 34 34
s34 -14 34 -34c0 -22 -16 -36 -34 -36z" />
    <glyph glyph-name="cdotaccent" unicode="&#x10b;" 
d="M90 238c0 160 116 252 258 252c81 0 132 -36 171 -74l-20 -22c-41 40 -89 68 -151 68c-134 0 -226 -92 -226 -224s90 -222 226 -222c67 0 122 30 166 72l18 -22c-48 -46 -108 -78 -184 -78c-148 0 -258 92 -258 250zM345 600c-22 0 -40 16 -40 42s18 42 40 42
s40 -16 40 -42s-18 -42 -40 -42z" />
    <glyph glyph-name="Ccaron" unicode="&#x10c;" 
d="M74 332c0 208 111 340 279 340c76 0 134 -38 168 -78l-20 -22c-36 42 -86 70 -148 70c-152 0 -245 -120 -245 -310s93 -314 241 -314c70 0 122 28 172 84l20 -20c-50 -58 -108 -94 -194 -94c-162 0 -273 136 -273 344zM422 814h30l-96 -104h-28l-96 104h30l78 -74h4z" />
    <glyph glyph-name="ccaron" unicode="&#x10d;" 
d="M90 238c0 160 116 252 258 252c81 0 132 -36 171 -74l-20 -22c-41 40 -89 68 -151 68c-134 0 -226 -92 -226 -224s90 -222 226 -222c67 0 122 30 166 72l18 -22c-48 -46 -108 -78 -184 -78c-148 0 -258 92 -258 250zM331 572l-94 134h28l78 -102h4l78 102h28l-94 -134
h-28z" />
    <glyph glyph-name="Dcaron" unicode="&#x10e;" 
d="M100 0v660h148c204 0 296 -132 296 -328s-92 -332 -296 -332h-148zM132 28h112c188 0 266 130 266 304s-78 300 -266 300h-112v-604zM380 814h30l-96 -104h-28l-96 104h30l78 -74h4z" />
    <glyph glyph-name="dcaron" unicode="&#x10f;" 
d="M70 238c0 154 107 252 228 252c62 0 111 -26 164 -70l-2 100v202h30v-722h-26l-4 74h-2c-43 -45 -106 -86 -176 -86c-126 0 -212 88 -212 250zM102 238c0 -132 68 -222 182 -222c59 0 119 34 176 94v276c-58 55 -111 76 -164 76c-108 0 -194 -100 -194 -224zM561 548h-22
l-2 204h30v-48z" />
    <glyph glyph-name="Dcroat" unicode="&#x110;" 
d="M106 0v336h-78v24l78 4v296h148c204 0 296 -132 296 -328s-92 -332 -296 -332h-148zM138 28h112c188 0 266 130 266 304s-78 300 -266 300h-112v-268h172v-28h-172v-308z" />
    <glyph glyph-name="dcroat" unicode="&#x111;" 
d="M460 110v256c-58 55 -111 76 -164 76c-108 0 -194 -97 -194 -214c0 -126 68 -212 182 -212c59 0 119 34 176 94zM490 612h76v-24l-76 -4v-584h-26l-4 74h-2c-43 -45 -106 -86 -176 -86c-126 0 -212 84 -212 240c0 148 107 242 228 242c62 0 111 -26 164 -70l-2 100v84
h-188v28h188v110h30v-110z" />
    <glyph glyph-name="Emacron" unicode="&#x112;" 
d="M132 0v660h384v-28h-352v-266h296v-28h-296v-310h362v-28h-394zM228 736v28h220v-28h-220z" />
    <glyph glyph-name="emacron" unicode="&#x113;" 
d="M80 238c0 156 117 252 238 252c128 0 212 -82 212 -220c0 -10 0 -20 -2 -32h-416c0 -128 88 -222 220 -222c66 0 119 22 164 54l14 -26c-42 -27 -93 -56 -180 -56c-136 0 -250 94 -250 250zM112 266h388c0 130 -74 196 -182 196c-101 0 -192 -76 -206 -196zM206 608v28
h220v-28h-220z" />
    <glyph glyph-name="Ebreve" unicode="&#x114;" 
d="M132 0v660h384v-28h-352v-266h296v-28h-296v-310h362v-28h-394zM338 712c-74 0 -106 60 -112 102h26c6 -36 32 -76 86 -76s80 40 86 76h26c-6 -42 -38 -102 -112 -102z" />
    <glyph glyph-name="ebreve" unicode="&#x115;" 
d="M80 238c0 156 117 252 238 252c128 0 212 -82 212 -220c0 -10 0 -20 -2 -32h-416c0 -128 88 -222 220 -222c66 0 119 22 164 54l14 -26c-42 -27 -93 -56 -180 -56c-136 0 -250 94 -250 250zM112 266h388c0 130 -74 196 -182 196c-101 0 -192 -76 -206 -196zM316 576
c-80 0 -110 68 -116 116h26c6 -44 34 -90 90 -90s84 46 90 90h26c-6 -48 -36 -116 -116 -116z" />
    <glyph glyph-name="Edotaccent" unicode="&#x116;" 
d="M132 0v660h384v-28h-352v-266h296v-28h-296v-310h362v-28h-394zM338 724c-18 0 -34 14 -34 36c0 20 16 34 34 34s34 -14 34 -34c0 -22 -16 -36 -34 -36z" />
    <glyph glyph-name="edotaccent" unicode="&#x117;" 
d="M80 238c0 156 117 252 238 252c128 0 212 -82 212 -220c0 -10 0 -20 -2 -32h-416c0 -128 88 -222 220 -222c66 0 119 22 164 54l14 -26c-42 -27 -93 -56 -180 -56c-136 0 -250 94 -250 250zM112 266h388c0 130 -74 196 -182 196c-101 0 -192 -76 -206 -196zM316 600
c-22 0 -40 16 -40 42s18 42 40 42s40 -16 40 -42s-18 -42 -40 -42z" />
    <glyph glyph-name="Eogonek" unicode="&#x118;" 
d="M132 0v660h384v-28h-352v-266h296v-28h-296v-310h362v-28h-2c-45 -10 -96 -60 -96 -120c0 -36 26 -54 52 -54c18 0 30 4 44 14l14 -20c-14 -12 -40 -22 -60 -22c-44 0 -80 26 -80 80c0 50 32 96 72 122h-338z" />
    <glyph glyph-name="eogonek" unicode="&#x119;" 
d="M496 70l14 -26c-94 -68 -124 -117 -124 -164c0 -36 24 -54 50 -54c18 0 30 4 44 14l14 -20c-14 -12 -40 -22 -60 -22c-44 0 -78 26 -78 80s42 102 74 128c-36 -16 -66 -18 -100 -18c-136 0 -250 94 -250 250s117 252 238 252c128 0 212 -82 212 -220c0 -10 0 -20 -2 -32
h-416c0 -128 88 -222 220 -222c66 0 119 22 164 54zM112 266h388c0 130 -74 196 -182 196c-101 0 -192 -76 -206 -196z" />
    <glyph glyph-name="Ecaron" unicode="&#x11a;" 
d="M132 0v660h384v-28h-352v-266h296v-28h-296v-310h362v-28h-394zM418 814h30l-96 -104h-28l-96 104h30l78 -74h4z" />
    <glyph glyph-name="ecaron" unicode="&#x11b;" 
d="M80 238c0 156 117 252 238 252c128 0 212 -82 212 -220c0 -10 0 -20 -2 -32h-416c0 -128 88 -222 220 -222c66 0 119 22 164 54l14 -26c-42 -27 -93 -56 -180 -56c-136 0 -250 94 -250 250zM112 266h388c0 130 -74 196 -182 196c-101 0 -192 -76 -206 -196zM302 572
l-94 134h28l78 -102h4l78 102h28l-94 -134h-28z" />
    <glyph glyph-name="Gcircumflex" unicode="&#x11c;" 
d="M61 332c0 208 112 340 282 340c86 0 139 -42 173 -78l-20 -22c-34 38 -81 70 -153 70c-154 0 -248 -120 -248 -310s90 -314 240 -314c63 0 121 20 154 54v218h-160v28h193v-256c-40 -44 -104 -74 -189 -74c-164 0 -272 136 -272 344zM252 710h-30l96 104h28l96 -104h-30
l-78 74h-4z" />
    <glyph glyph-name="gcircumflex" unicode="&#x11d;" 
d="M120 -97c0 -61 60 -109 186 -109c139 0 222 68 222 132c0 57 -43 76 -131 76h-121c-22 0 -50 2 -73 9c-62 -33 -83 -71 -83 -108zM88 -93c0 37 30 82 82 115v4c-24 11 -50 36 -50 76c0 30 20 64 58 90v4c-30 26 -56 66 -56 124c0 96 78 170 174 170c26 0 46 -4 64 -12
h200v-28h-152c32 -30 62 -75 62 -130c0 -96 -78 -168 -174 -168c-30 0 -64 8 -94 24c-30 -18 -50 -44 -50 -71c0 -49 46 -71 114 -71h123c121 0 171 -30 171 -106c0 -80 -96 -162 -248 -162s-224 58 -224 141zM296 180c78 0 142 58 142 140s-64 142 -142 142
s-142 -60 -142 -142s64 -140 142 -140zM202 572l94 134h28l94 -134h-28l-78 102h-4l-78 -102h-28z" />
    <glyph glyph-name="Gbreve" unicode="&#x11e;" 
d="M61 332c0 208 112 340 282 340c86 0 139 -42 173 -78l-20 -22c-34 38 -81 70 -153 70c-154 0 -248 -120 -248 -310s90 -314 240 -314c63 0 121 20 154 54v218h-160v28h193v-256c-40 -44 -104 -74 -189 -74c-164 0 -272 136 -272 344zM332 712c-74 0 -106 60 -112 102h26
c6 -36 32 -76 86 -76s80 40 86 76h26c-6 -42 -38 -102 -112 -102z" />
    <glyph glyph-name="gbreve" unicode="&#x11f;" 
d="M120 -97c0 -61 60 -109 186 -109c139 0 222 68 222 132c0 57 -43 76 -131 76h-121c-22 0 -50 2 -73 9c-62 -33 -83 -71 -83 -108zM88 -93c0 37 30 82 82 115v4c-24 11 -50 36 -50 76c0 30 20 64 58 90v4c-30 26 -56 66 -56 124c0 96 78 170 174 170c26 0 46 -4 64 -12
h200v-28h-152c32 -30 62 -75 62 -130c0 -96 -78 -168 -174 -168c-30 0 -64 8 -94 24c-30 -18 -50 -44 -50 -71c0 -49 46 -71 114 -71h123c121 0 171 -30 171 -106c0 -80 -96 -162 -248 -162s-224 58 -224 141zM296 180c78 0 142 58 142 140s-64 142 -142 142
s-142 -60 -142 -142s64 -140 142 -140zM310 576c-80 0 -110 68 -116 116h26c6 -44 34 -90 90 -90s84 46 90 90h26c-6 -48 -36 -116 -116 -116z" />
    <glyph glyph-name="Gdotaccent" unicode="&#x120;" 
d="M61 332c0 208 112 340 282 340c86 0 139 -42 173 -78l-20 -22c-34 38 -81 70 -153 70c-154 0 -248 -120 -248 -310s90 -314 240 -314c63 0 121 20 154 54v218h-160v28h193v-256c-40 -44 -104 -74 -189 -74c-164 0 -272 136 -272 344zM332 724c-18 0 -34 14 -34 36
c0 20 16 34 34 34s34 -14 34 -34c0 -22 -16 -36 -34 -36z" />
    <glyph glyph-name="gdotaccent" unicode="&#x121;" 
d="M120 -97c0 -61 60 -109 186 -109c139 0 222 68 222 132c0 57 -43 76 -131 76h-121c-22 0 -50 2 -73 9c-62 -33 -83 -71 -83 -108zM88 -93c0 37 30 82 82 115v4c-24 11 -50 36 -50 76c0 30 20 64 58 90v4c-30 26 -56 66 -56 124c0 96 78 170 174 170c26 0 46 -4 64 -12
h200v-28h-152c32 -30 62 -75 62 -130c0 -96 -78 -168 -174 -168c-30 0 -64 8 -94 24c-30 -18 -50 -44 -50 -71c0 -49 46 -71 114 -71h123c121 0 171 -30 171 -106c0 -80 -96 -162 -248 -162s-224 58 -224 141zM296 180c78 0 142 58 142 140s-64 142 -142 142
s-142 -60 -142 -142s64 -140 142 -140zM310 600c-22 0 -40 16 -40 42s18 42 40 42s40 -16 40 -42s-18 -42 -40 -42z" />
    <glyph glyph-name="uni0122" unicode="&#x122;" 
d="M61 332c0 208 112 340 282 340c86 0 139 -42 173 -78l-20 -22c-34 38 -81 70 -153 70c-154 0 -248 -120 -248 -310s90 -314 240 -314c63 0 121 20 154 54v218h-160v28h193v-256c-40 -44 -104 -74 -189 -74c-164 0 -272 136 -272 344zM312 -52c50 -12 78 -32 78 -72
c0 -50 -58 -74 -118 -82l-6 26c56 8 94 24 94 52c0 32 -30 44 -58 50z" />
    <glyph glyph-name="uni0123" unicode="&#x123;" 
d="M120 -97c0 -61 60 -109 186 -109c139 0 222 68 222 132c0 57 -43 76 -131 76h-121c-22 0 -50 2 -73 9c-62 -33 -83 -71 -83 -108zM88 -93c0 37 30 82 82 115v4c-24 11 -50 36 -50 76c0 30 20 64 58 90v4c-30 26 -56 66 -56 124c0 96 78 170 174 170c26 0 46 -4 64 -12
h200v-28h-152c32 -30 62 -75 62 -130c0 -96 -78 -168 -174 -168c-30 0 -64 8 -94 24c-30 -18 -50 -44 -50 -71c0 -49 46 -71 114 -71h123c121 0 171 -30 171 -106c0 -80 -96 -162 -248 -162s-224 58 -224 141zM296 180c78 0 142 58 142 140s-64 142 -142 142
s-142 -60 -142 -142s64 -140 142 -140zM332 538c-50 12 -78 32 -78 72c0 50 58 74 118 82l6 -26c-56 -8 -94 -24 -94 -52c0 -32 30 -44 58 -50z" />
    <glyph glyph-name="Hcircumflex" unicode="&#x124;" 
d="M92 0v660h32v-294h352v294h32v-660h-32v338h-352v-338h-32zM220 710h-30l96 104h28l96 -104h-30l-78 74h-4z" />
    <glyph glyph-name="hcircumflex" unicode="&#x125;" 
d="M110 0v722h30v-214l-2 -130c63 66 120 112 198 112c117 0 174 -61 174 -192v-298h-30v294c0 113 -43 168 -144 168c-72 0 -122 -38 -196 -116v-346h-30zM62 748h-30l96 104h28l96 -104h-30l-78 74h-4z" />
    <glyph glyph-name="Hbar" unicode="&#x126;" 
d="M476 366v130h-352v-130h352zM584 524v-28h-76v-496h-32v338h-352v-338h-32v496h-76v24l76 4v136h32v-136h352v136h32v-136h76z" />
    <glyph glyph-name="hbar" unicode="&#x127;" 
d="M140 488l-2 -130c63 66 120 112 198 112c117 0 174 -61 174 -192v-278h-30v274c0 113 -43 168 -144 168c-72 0 -122 -38 -196 -116v-326h-30v584h-78v24l78 4v110h30v-110h236v-28h-236v-96z" />
    <glyph glyph-name="Itilde" unicode="&#x128;" 
d="M112 0v28h172v604h-172v28h376v-28h-172v-604h172v-28h-376zM358 718c-52 0 -76 58 -118 58c-22 0 -38 -24 -42 -58h-22c2 38 22 86 66 86c52 0 76 -58 118 -58c22 0 38 24 42 58h22c-2 -38 -22 -86 -66 -86z" />
    <glyph glyph-name="itilde" unicode="&#x129;" 
d="M100 450v28h276v-478h-30v450h-246zM232 582c2 36 17 82 64 82c48 0 75 -56 110 -56c22 0 34 22 38 56h24c-2 -35 -17 -82 -64 -82c-48 0 -73 56 -110 56c-22 0 -34 -21 -38 -56h-24z" />
    <glyph glyph-name="Imacron" unicode="&#x12a;" 
d="M112 0v28h172v604h-172v28h376v-28h-172v-604h172v-28h-376zM190 736v28h220v-28h-220z" />
    <glyph glyph-name="imacron" unicode="&#x12b;" 
d="M100 450v28h276v-478h-30v450h-246zM240 608v28h220v-28h-220z" />
    <glyph glyph-name="uni012C" unicode="&#x12c;" 
d="M112 0v28h172v604h-172v28h376v-28h-172v-604h172v-28h-376zM300 712c-74 0 -106 60 -112 102h26c6 -36 32 -76 86 -76s80 40 86 76h26c-6 -42 -38 -102 -112 -102z" />
    <glyph glyph-name="uni012D" unicode="&#x12d;" 
d="M100 450v28h276v-478h-30v450h-246zM350 576c-80 0 -110 68 -116 116h26c6 -44 34 -90 90 -90s84 46 90 90h26c-6 -48 -36 -116 -116 -116z" />
    <glyph glyph-name="Iogonek" unicode="&#x12e;" 
d="M112 0v28h172v604h-172v28h376v-28h-172v-604h172v-28h-172c-32 -40 -58 -74 -58 -120c0 -36 26 -54 52 -54c18 0 30 4 44 14l14 -20c-14 -12 -40 -22 -60 -22c-44 0 -80 26 -80 80c0 52 26 86 60 122h-176z" />
    <glyph glyph-name="iogonek" unicode="&#x12f;" 
d="M346 0v450h-246v28h276v-478c-30 -36 -60 -76 -60 -120c0 -36 24 -54 50 -54c18 0 30 4 44 14l14 -20c-14 -12 -40 -22 -60 -22c-44 0 -78 26 -78 80c0 50 32 88 62 122h-2zM350 600c-22 0 -40 16 -40 42s18 42 40 42s40 -16 40 -42s-18 -42 -40 -42z" />
    <glyph glyph-name="Idotaccent" unicode="&#x130;" 
d="M112 0v28h172v604h-172v28h376v-28h-172v-604h172v-28h-376zM300 724c-18 0 -34 14 -34 36c0 20 16 34 34 34s34 -14 34 -34c0 -22 -16 -36 -34 -36z" />
    <glyph glyph-name="dotlessi" unicode="&#x131;" 
d="M100 450v28h276v-478h-30v450h-246z" />
    <glyph glyph-name="Jcircumflex" unicode="&#x134;" 
d="M98 98l30 17c38 -67 94 -98 151 -98c115 0 164 63 164 187v430h-291v27h323v-460c0 -118 -48 -213 -197 -213c-75 0 -144 37 -180 110zM240 710h-30l96 104h28l96 -104h-30l-78 74h-4z" />
    <glyph glyph-name="jcircumflex" unicode="&#x135;" 
d="M100 450v28h276v-524c0 -118 -44 -188 -182 -188c-43 0 -93 14 -128 32l14 26c31 -16 76 -30 119 -30c117 0 147 63 147 154v502h-246zM242 572l94 134h28l94 -134h-28l-78 102h-4l-78 -102h-28z" />
    <glyph glyph-name="uni0136" unicode="&#x136;" 
d="M122 0v660h32v-380h2l344 380h39l-216 -242l245 -418h-38l-231 394l-145 -160v-234h-32zM325 -52c50 -12 78 -32 78 -72c0 -50 -58 -74 -118 -82l-6 26c56 8 94 24 94 52c0 32 -30 44 -58 50z" />
    <glyph glyph-name="uni0137" unicode="&#x137;" 
d="M130 0v722h30v-546h4l326 302h40l-198 -184l232 -294h-36l-220 276l-148 -138v-138h-30zM320 -52c50 -12 78 -32 78 -72c0 -50 -58 -74 -118 -82l-6 26c56 8 94 24 94 52c0 32 -30 44 -58 50z" />
    <glyph glyph-name="kgreenlandic" unicode="&#x138;" 
d="M130 0v478h30v-304l2 2l328 302h40l-198 -184l232 -294h-36l-220 276l-148 -140v-136h-30z" />
    <glyph glyph-name="Lacute" unicode="&#x139;" 
d="M156 0v660h30v-632h352v-28h-382zM292 814l-108 -104h-30l94 104h44z" />
    <glyph glyph-name="lacute" unicode="&#x13a;" 
d="M97 694v28h213v-590c0 -78 35 -116 107 -116c32 0 63 8 103 27l12 -25c-38 -15 -71 -30 -117 -30c-86 0 -135 43 -135 150v556h-183zM392 864l-108 -104h-30l94 104h44z" />
    <glyph glyph-name="uni013B" unicode="&#x13b;" 
d="M156 0v660h30v-632h352v-28h-382zM334 -52c50 -12 78 -32 78 -72c0 -50 -58 -74 -118 -82l-6 26c56 8 94 24 94 52c0 32 -30 44 -58 50z" />
    <glyph glyph-name="uni013C" unicode="&#x13c;" 
d="M97 694v28h213v-590c0 -78 35 -116 107 -116c32 0 63 8 103 27l12 -25c-38 -15 -71 -30 -117 -30c-86 0 -135 43 -135 150v556h-183zM354 -52c50 -12 78 -32 78 -72c0 -50 -58 -74 -118 -82l-6 26c56 8 94 24 94 52c0 32 -30 44 -58 50z" />
    <glyph glyph-name="Lcaron" unicode="&#x13d;" 
d="M156 0v660h30v-632h352v-28h-382zM414 518h-22l-2 204h30v-48z" />
    <glyph glyph-name="lcaron" unicode="&#x13e;" 
d="M97 694v28h213v-590c0 -78 35 -116 107 -116c32 0 63 8 103 27l12 -25c-38 -15 -71 -30 -117 -30c-86 0 -135 43 -135 150v556h-183zM414 548h-22l-2 204h30v-48z" />
    <glyph glyph-name="Ldot" unicode="&#x13f;" 
d="M156 0v660h30v-632h352v-28h-382zM412 300c-22 0 -40 16 -40 42s18 42 40 42s40 -16 40 -42s-18 -42 -40 -42z" />
    <glyph glyph-name="ldot" unicode="&#x140;" 
d="M67 694v28h213v-590c0 -78 35 -116 107 -116c32 0 63 8 103 27l12 -25c-38 -15 -71 -30 -117 -30c-86 0 -135 43 -135 150v556h-183zM410 300c-22 0 -40 16 -40 42s18 42 40 42s40 -16 40 -42s-18 -42 -40 -42z" />
    <glyph glyph-name="Lslash" unicode="&#x141;" 
d="M186 28h352v-28h-382v251l-87 -45v30l87 45v379h30v-365l241 125v-30l-241 -125v-237z" />
    <glyph glyph-name="lslash" unicode="&#x142;" 
d="M520 43l12 -25c-38 -15 -71 -30 -117 -30c-86 0 -135 43 -135 150v239l-132 -77v32l132 77v285h-183v28h213v-295l174 99v-32l-174 -99v-263c0 -78 35 -116 107 -116c32 0 63 8 103 27z" />
    <glyph glyph-name="Nacute" unicode="&#x143;" 
d="M96 0v660h33l274 -486l73 -128h2c-1 63 -4 123 -4 185v429h30v-660h-33l-274 486l-73 128h-2c1 -63 4 -119 4 -181v-433h-30zM412 814l-108 -104h-30l94 104h44z" />
    <glyph glyph-name="nacute" unicode="&#x144;" 
d="M110 0v478h26l4 -96h4c57 62 114 108 192 108c117 0 174 -61 174 -192v-298h-30v294c0 113 -43 168 -144 168c-72 0 -122 -38 -196 -116v-346h-30zM400 706l-104 -134h-28l92 134h40z" />
    <glyph glyph-name="uni0145" unicode="&#x145;" 
d="M96 0v660h33l274 -486l73 -128h2c-1 63 -4 123 -4 185v429h30v-660h-33l-274 486l-73 128h-2c1 -63 4 -119 4 -181v-433h-30zM276 -52c50 -12 78 -32 78 -72c0 -50 -58 -74 -118 -82l-6 26c56 8 94 24 94 52c0 32 -30 44 -58 50z" />
    <glyph glyph-name="uni0146" unicode="&#x146;" 
d="M110 0v478h26l4 -96h4c57 62 114 108 192 108c117 0 174 -61 174 -192v-298h-30v294c0 113 -43 168 -144 168c-72 0 -122 -38 -196 -116v-346h-30zM294 -52c50 -12 78 -32 78 -72c0 -50 -58 -74 -118 -82l-6 26c56 8 94 24 94 52c0 32 -30 44 -58 50z" />
    <glyph glyph-name="Ncaron" unicode="&#x147;" 
d="M96 0v660h33l274 -486l73 -128h2c-1 63 -4 123 -4 185v429h30v-660h-33l-274 486l-73 128h-2c1 -63 4 -119 4 -181v-433h-30zM386 814h30l-96 -104h-28l-96 104h30l78 -74h4z" />
    <glyph glyph-name="ncaron" unicode="&#x148;" 
d="M110 0v478h26l4 -96h4c57 62 114 108 192 108c117 0 174 -61 174 -192v-298h-30v294c0 113 -43 168 -144 168c-72 0 -122 -38 -196 -116v-346h-30zM306 572l-94 134h28l78 -102h4l78 102h28l-94 -134h-28z" />
    <glyph glyph-name="napostrophe" unicode="&#x149;" 
d="M16 398l-18 24c57 40 94 101 98 176c-10 -7 -21 -12 -32 -12c-32 0 -54 24 -54 56c0 33 23 58 56 58c35 0 68 -33 68 -89c0 -93 -50 -173 -118 -213zM210 392h4c54 56 108 98 182 98c110 0 164 -58 164 -182v-308h-30v304c0 106 -40 158 -134 158
c-68 0 -116 -35 -186 -106v-356h-30v478h26z" />
    <glyph glyph-name="Omacron" unicode="&#x14c;" 
d="M300 -12c-142 0 -244 136 -244 344s102 340 244 340s244 -132 244 -340s-102 -344 -244 -344zM300 18c125 0 210 124 210 314s-85 310 -210 310s-210 -120 -210 -310s85 -314 210 -314zM190 736v28h220v-28h-220z" />
    <glyph glyph-name="omacron" unicode="&#x14d;" 
d="M70 238c0 160 105 252 230 252s230 -92 230 -252c0 -158 -105 -250 -230 -250s-230 92 -230 250zM102 238c0 -132 84 -222 198 -222s198 90 198 222s-84 224 -198 224s-198 -92 -198 -224zM190 608v28h220v-28h-220z" />
    <glyph glyph-name="uni014E" unicode="&#x14e;" 
d="M300 -12c-142 0 -244 136 -244 344s102 340 244 340s244 -132 244 -340s-102 -344 -244 -344zM300 18c125 0 210 124 210 314s-85 310 -210 310s-210 -120 -210 -310s85 -314 210 -314zM300 712c-74 0 -106 60 -112 102h26c6 -36 32 -76 86 -76s80 40 86 76h26
c-6 -42 -38 -102 -112 -102z" />
    <glyph glyph-name="uni014F" unicode="&#x14f;" 
d="M70 238c0 160 105 252 230 252s230 -92 230 -252c0 -158 -105 -250 -230 -250s-230 92 -230 250zM102 238c0 -132 84 -222 198 -222s198 90 198 222s-84 224 -198 224s-198 -92 -198 -224zM300 576c-80 0 -110 68 -116 116h26c6 -44 34 -90 90 -90s84 46 90 90h26
c-6 -48 -36 -116 -116 -116z" />
    <glyph glyph-name="Ohungarumlaut" unicode="&#x150;" 
d="M300 -12c-142 0 -244 136 -244 344s102 340 244 340s244 -132 244 -340s-102 -344 -244 -344zM300 18c125 0 210 124 210 314s-85 310 -210 310s-210 -120 -210 -310s85 -314 210 -314zM242 710h-28l68 104h38zM354 710l68 104h38l-78 -104h-28z" />
    <glyph glyph-name="ohungarumlaut" unicode="&#x151;" 
d="M70 238c0 160 105 252 230 252s230 -92 230 -252c0 -158 -105 -250 -230 -250s-230 92 -230 250zM102 238c0 -132 84 -222 198 -222s198 90 198 222s-84 224 -198 224s-198 -92 -198 -224zM224 570l72 136h36l-82 -136h-26zM352 570l72 136h36l-82 -136h-26z" />
    <glyph glyph-name="OE" unicode="&#x152;" 
d="M44 332c0 197 86 329 258 329h276v-27h-222v-268h170v-28h-170v-310h232v-28h-285c-172 0 -259 136 -259 332zM77 332c0 -174 67 -304 221 -304h25v605h-25c-154 0 -221 -126 -221 -301z" />
    <glyph glyph-name="oe" unicode="&#x153;" 
d="M42 239c0 -132 49 -225 136 -225c80 0 134 93 134 225s-54 224 -134 224c-87 0 -136 -92 -136 -224zM10 239c0 159 71 251 169 251c66 0 119 -51 147 -142c28 88 70 142 144 142c87 0 130 -96 130 -208c0 -12 0 -24 -2 -44h-255c0 -127 43 -223 137 -223
c39 0 66 17 94 35l12 -22c-27 -18 -57 -40 -107 -40c-72 0 -125 49 -153 140c-28 -91 -81 -140 -146 -140c-99 0 -170 92 -170 251zM343 264h227c0 104 -25 198 -102 198c-79 0 -117 -81 -125 -198z" />
    <glyph glyph-name="Racute" unicode="&#x154;" 
d="M412 814l-108 -104h-30l94 104h44zM156 340h138c122 0 190 48 190 150c0 104 -68 142 -190 142h-138v-292zM528 0h-38l-186 312h-148v-312h-32v660h182c130 0 212 -48 212 -170c0 -105 -68 -166 -178 -176z" />
    <glyph glyph-name="racute" unicode="&#x155;" 
d="M170 0v478h26l4 -120h2c52 76 131 132 229 132c31 0 66 -4 97 -20l-10 -28c-36 13 -53 18 -91 18c-83 0 -157 -42 -227 -154v-306h-30zM424 706l-104 -134h-28l92 134h40z" />
    <glyph glyph-name="uni0156" unicode="&#x156;" 
d="M286 -78l10 26c50 -12 78 -32 78 -72c0 -50 -58 -74 -118 -82l-6 26c56 8 94 24 94 52c0 32 -30 44 -58 50zM156 340h138c122 0 190 48 190 150c0 104 -68 142 -190 142h-138v-292zM340 314l188 -314h-38l-186 312h-148v-312h-32v660h182c130 0 212 -48 212 -170
c0 -105 -68 -166 -178 -176z" />
    <glyph glyph-name="uni0157" unicode="&#x157;" 
d="M170 0v478h26l4 -120h2c52 76 131 132 229 132c31 0 66 -4 97 -20l-10 -28c-36 13 -53 18 -91 18c-83 0 -157 -42 -227 -154v-306h-30zM174 -52c50 -12 78 -32 78 -72c0 -50 -58 -74 -118 -82l-6 26c56 8 94 24 94 52c0 32 -30 44 -58 50z" />
    <glyph glyph-name="Rcaron" unicode="&#x158;" 
d="M320 710h-28l-96 104h30l78 -74h4l78 74h30zM156 340h138c122 0 190 48 190 150c0 104 -68 142 -190 142h-138v-292zM528 0h-38l-186 312h-148v-312h-32v660h182c130 0 212 -48 212 -170c0 -105 -68 -166 -178 -176z" />
    <glyph glyph-name="rcaron" unicode="&#x159;" 
d="M170 0v478h26l4 -120h2c52 76 131 132 229 132c31 0 66 -4 97 -20l-10 -28c-36 13 -53 18 -91 18c-83 0 -157 -42 -227 -154v-306h-30zM330 572l-94 134h28l78 -102h4l78 102h28l-94 -134h-28z" />
    <glyph glyph-name="Sacute" unicode="&#x15a;" 
d="M80 88l22 22c50 -56 124 -92 208 -92c112 0 184 58 184 142c0 88 -61 116 -132 146l-102 46c-60 25 -144 64 -144 162c0 94 84 158 196 158c84 0 150 -37 190 -78l-20 -22c-40 42 -98 70 -170 70c-98 0 -164 -50 -164 -126c0 -82 75 -113 126 -134l102 -46
c78 -33 150 -72 150 -174c0 -100 -86 -174 -216 -174c-102 0 -178 42 -230 100zM420 814l-108 -104h-30l94 104h44z" />
    <glyph glyph-name="sacute" unicode="&#x15b;" 
d="M87 64l19 24c52 -44 114 -72 218 -72s158 48 158 102c0 46 -28 81 -178 116c-111 26 -190 70 -190 132c0 66 55 124 182 124c61 0 135 -24 180 -58l-18 -24c-42 32 -97 54 -164 54c-113 0 -148 -46 -148 -94s64 -80 166 -105c158 -39 202 -77 202 -143
c0 -70 -70 -132 -192 -132c-100 0 -179 35 -235 76zM376 706l-104 -134h-28l92 134h40z" />
    <glyph glyph-name="Scircumflex" unicode="&#x15c;" 
d="M80 88l22 22c50 -56 124 -92 208 -92c112 0 184 58 184 142c0 88 -61 116 -132 146l-102 46c-60 25 -144 64 -144 162c0 94 84 158 196 158c84 0 150 -37 190 -78l-20 -22c-40 42 -98 70 -170 70c-98 0 -164 -50 -164 -126c0 -82 75 -113 126 -134l102 -46
c78 -33 150 -72 150 -174c0 -100 -86 -174 -216 -174c-102 0 -178 42 -230 100zM234 710h-30l96 104h28l96 -104h-30l-78 74h-4z" />
    <glyph glyph-name="scircumflex" unicode="&#x15d;" 
d="M87 64l19 24c52 -44 114 -72 218 -72s158 48 158 102c0 46 -28 81 -178 116c-111 26 -190 70 -190 132c0 66 55 124 182 124c61 0 135 -24 180 -58l-18 -24c-42 32 -97 54 -164 54c-113 0 -148 -46 -148 -94s64 -80 166 -105c158 -39 202 -77 202 -143
c0 -70 -70 -132 -192 -132c-100 0 -179 35 -235 76zM188 572l94 134h28l94 -134h-28l-78 102h-4l-78 -102h-28z" />
    <glyph glyph-name="uni015E" unicode="&#x15e;" 
d="M274 382l102 -46c78 -33 150 -72 150 -174c0 -95 -78 -167 -197 -173l-23 -45c32 -10 60 -28 60 -68c0 -50 -58 -74 -118 -82l-6 26c56 8 94 24 94 52c0 32 -30 44 -68 54l33 62c-98 3 -171 44 -221 100l22 22c50 -56 124 -92 208 -92c112 0 184 58 184 142
c0 88 -61 116 -132 146l-102 46c-60 25 -144 64 -144 162c0 94 84 158 196 158c84 0 150 -37 190 -78l-20 -22c-40 42 -98 70 -170 70c-98 0 -164 -50 -164 -126c0 -82 75 -113 126 -134z" />
    <glyph glyph-name="uni015F" unicode="&#x15f;" 
d="M476 432l-18 -24c-42 32 -97 54 -164 54c-113 0 -148 -46 -148 -94s64 -80 166 -105c158 -39 202 -77 202 -143c0 -68 -66 -128 -181 -132l-23 -44c32 -10 60 -28 60 -68c0 -50 -58 -74 -118 -82l-6 26c56 8 94 24 94 52c0 32 -30 44 -68 54l33 62c-92 4 -165 37 -218 76
l19 24c52 -44 114 -72 218 -72s158 48 158 102c0 46 -28 81 -178 116c-111 26 -190 70 -190 132c0 66 55 124 182 124c61 0 135 -24 180 -58z" />
    <glyph glyph-name="Scaron" unicode="&#x160;" 
d="M80 88l22 22c50 -56 124 -92 208 -92c112 0 184 58 184 142c0 88 -61 116 -132 146l-102 46c-60 25 -144 64 -144 162c0 94 84 158 196 158c84 0 150 -37 190 -78l-20 -22c-40 42 -98 70 -170 70c-98 0 -164 -50 -164 -126c0 -82 75 -113 126 -134l102 -46
c78 -33 150 -72 150 -174c0 -100 -86 -174 -216 -174c-102 0 -178 42 -230 100zM394 814h30l-96 -104h-28l-96 104h30l78 -74h4z" />
    <glyph glyph-name="scaron" unicode="&#x161;" 
d="M87 64l19 24c52 -44 114 -72 218 -72s158 48 158 102c0 46 -28 81 -178 116c-111 26 -190 70 -190 132c0 66 55 124 182 124c61 0 135 -24 180 -58l-18 -24c-42 32 -97 54 -164 54c-113 0 -148 -46 -148 -94s64 -80 166 -105c158 -39 202 -77 202 -143
c0 -70 -70 -132 -192 -132c-100 0 -179 35 -235 76zM282 572l-94 134h28l78 -102h4l78 102h28l-94 -134h-28z" />
    <glyph glyph-name="uni0162" unicode="&#x162;" 
d="M316 0h-1l-29 -56c32 -10 60 -28 60 -68c0 -50 -58 -74 -118 -82l-6 26c56 8 94 24 94 52c0 32 -30 44 -68 54l39 74h-3v632h-234v28h500v-28h-234v-632z" />
    <glyph glyph-name="uni0163" unicode="&#x163;" 
d="M395 -12l-23 -44c32 -10 60 -28 60 -68c0 -50 -58 -74 -118 -82l-6 26c56 8 94 24 94 52c0 32 -30 44 -68 54l33 64c-103 11 -135 83 -135 186v274h-148v24l148 4l4 140h26v-140h262v-28h-262v-278c0 -96 26 -156 137 -156c53 0 94 10 133 26l10 -24
c-43 -18 -101 -30 -145 -30h-2z" />
    <glyph glyph-name="Tcaron" unicode="&#x164;" 
d="M284 0v632h-234v28h500v-28h-234v-632h-32zM379 814h30l-96 -104h-28l-96 104h30l78 -74h4z" />
    <glyph glyph-name="tcaron" unicode="&#x165;" 
d="M232 176v274h-148v24l148 4l4 140h26v-140h262v-28h-262v-278c0 -96 26 -156 137 -156c53 0 94 10 133 26l10 -24c-43 -18 -101 -30 -145 -30c-127 0 -165 76 -165 188zM422 548h-22l-2 204h30v-48z" />
    <glyph glyph-name="Utilde" unicode="&#x168;" 
d="M92 246v414h32v-406c0 -182 84 -236 176 -236c94 0 178 54 178 236v406h30v-414c0 -204 -104 -258 -208 -258s-208 54 -208 258zM358 718c-52 0 -76 58 -118 58c-22 0 -38 -24 -42 -58h-22c2 38 22 86 66 86c52 0 76 -58 118 -58c22 0 38 24 42 58h22
c-2 -38 -22 -86 -66 -86z" />
    <glyph glyph-name="utilde" unicode="&#x169;" 
d="M490 478v-478h-26l-4 96h-4c-53 -62 -114 -108 -192 -108c-117 0 -174 61 -174 192v298h30v-294c0 -113 43 -168 144 -168c72 0 126 37 196 116v346h30zM176 582c2 36 17 82 64 82c48 0 75 -56 110 -56c22 0 34 22 38 56h24c-2 -35 -17 -82 -64 -82c-48 0 -73 56 -110 56
c-22 0 -34 -21 -38 -56h-24z" />
    <glyph glyph-name="Umacron" unicode="&#x16a;" 
d="M92 246v414h32v-406c0 -182 84 -236 176 -236c94 0 178 54 178 236v406h30v-414c0 -204 -104 -258 -208 -258s-208 54 -208 258zM190 736v28h220v-28h-220z" />
    <glyph glyph-name="umacron" unicode="&#x16b;" 
d="M490 478v-478h-26l-4 96h-4c-53 -62 -114 -108 -192 -108c-117 0 -174 61 -174 192v298h30v-294c0 -113 43 -168 144 -168c72 0 126 37 196 116v346h30zM184 608v28h220v-28h-220z" />
    <glyph glyph-name="Ubreve" unicode="&#x16c;" 
d="M92 246v414h32v-406c0 -182 84 -236 176 -236c94 0 178 54 178 236v406h30v-414c0 -204 -104 -258 -208 -258s-208 54 -208 258zM300 712c-74 0 -106 60 -112 102h26c6 -36 32 -76 86 -76s80 40 86 76h26c-6 -42 -38 -102 -112 -102z" />
    <glyph glyph-name="ubreve" unicode="&#x16d;" 
d="M490 478v-478h-26l-4 96h-4c-53 -62 -114 -108 -192 -108c-117 0 -174 61 -174 192v298h30v-294c0 -113 43 -168 144 -168c72 0 126 37 196 116v346h30zM294 576c-80 0 -110 68 -116 116h26c6 -44 34 -90 90 -90s84 46 90 90h26c-6 -48 -36 -116 -116 -116z" />
    <glyph glyph-name="Uring" unicode="&#x16e;" 
d="M92 246v414h32v-406c0 -182 84 -236 176 -236c94 0 178 54 178 236v406h30v-414c0 -204 -104 -258 -208 -258s-208 54 -208 258zM300 700c-44 0 -78 32 -78 80s34 80 78 80c42 0 78 -32 78 -80s-36 -80 -78 -80zM300 722c28 0 52 20 52 58c0 36 -24 58 -52 58
c-30 0 -54 -22 -54 -58c0 -38 24 -58 54 -58z" />
    <glyph glyph-name="uring" unicode="&#x16f;" 
d="M490 478v-478h-26l-4 96h-4c-53 -62 -114 -108 -192 -108c-117 0 -174 61 -174 192v298h30v-294c0 -113 43 -168 144 -168c72 0 126 37 196 116v346h30zM294 538c-44 0 -78 34 -78 84s34 84 78 84s78 -34 78 -84s-34 -84 -78 -84zM294 560c30 0 54 24 54 62
s-24 62 -54 62s-54 -24 -54 -62s24 -62 54 -62z" />
    <glyph glyph-name="Uhungarumlaut" unicode="&#x170;" 
d="M92 246v414h32v-406c0 -182 84 -236 176 -236c94 0 178 54 178 236v406h30v-414c0 -204 -104 -258 -208 -258s-208 54 -208 258zM242 710h-28l68 104h38zM354 710l68 104h38l-78 -104h-28z" />
    <glyph glyph-name="uhungarumlaut" unicode="&#x171;" 
d="M490 478v-478h-26l-4 96h-4c-53 -62 -114 -108 -192 -108c-117 0 -174 61 -174 192v298h30v-294c0 -113 43 -168 144 -168c72 0 126 37 196 116v346h30zM218 570l72 136h36l-82 -136h-26zM346 570l72 136h36l-82 -136h-26z" />
    <glyph glyph-name="Uogonek" unicode="&#x172;" 
d="M92 246v414h32v-406c0 -182 82 -236 175 -236s179 54 179 236v406h30v-414c0 -147 -56 -214 -124 -244c-64 -28 -106 -80 -106 -122c0 -36 26 -54 52 -54c18 0 30 4 44 14l14 -20c-14 -12 -40 -22 -60 -22c-44 0 -80 26 -80 80c0 50 34 79 66 111
c-150 -5 -222 85 -222 257z" />
    <glyph glyph-name="uogonek" unicode="&#x173;" 
d="M490 478v-478c-54 -36 -86 -76 -86 -120c0 -36 24 -54 50 -54c18 0 30 4 44 14l14 -20c-14 -12 -40 -22 -60 -22c-44 0 -78 26 -78 80c0 50 34 90 90 130l-4 88h-4c-53 -62 -114 -108 -192 -108c-117 0 -174 61 -174 192v298h30v-294c0 -113 43 -168 144 -168
c72 0 126 37 196 116v346h30z" />
    <glyph glyph-name="Wcircumflex" unicode="&#x174;" 
d="M127 0l-112 661h29l78 -465c6 -53 16 -105 23 -158h2c17 53 33 105 48 158l88 292h35l90 -292c14 -53 30 -106 46 -158h4c7 52 16 105 23 158l75 465h28l-109 -661h-42l-101 331c-11 38 -19 75 -30 114h-3c-11 -39 -20 -76 -32 -114l-98 -331h-42zM220 710h-30l96 104h28
l96 -104h-30l-78 74h-4z" />
    <glyph glyph-name="wcircumflex" unicode="&#x175;" 
d="M142 0l-130 478h34l83 -322c11 -44 22 -84 31 -126h4c11 42 22 82 33 126l83 322h42l83 -322c11 -44 22 -84 33 -126h4c11 42 22 82 32 126l82 322h32l-128 -478h-42l-82 312c-12 46 -21 90 -34 136h-4c-11 -46 -20 -92 -34 -138l-80 -310h-42zM192 572l94 134h28
l94 -134h-28l-78 102h-4l-78 -102h-28z" />
    <glyph glyph-name="Ycircumflex" unicode="&#x176;" 
d="M284 0v245l-228 415h32l124 -226c31 -51 57 -103 88 -156h4c32 53 61 105 90 157l120 225h30l-228 -415v-245h-32zM220 710h-30l96 104h28l96 -104h-30l-78 74h-4z" />
    <glyph glyph-name="ycircumflex" unicode="&#x177;" 
d="M77 -184c12 -4 30 -8 48 -8c77 0 126 58 157 136l18 44l-236 490h32l148 -314c19 -40 44 -92 68 -134h4c20 42 41 94 58 134l132 314h30l-230 -546c-26 -74 -86 -154 -184 -154c-18 0 -42 4 -55 10zM194 572l94 134h28l94 -134h-28l-78 102h-4l-78 -102h-28z" />
    <glyph glyph-name="Ydieresis" unicode="&#x178;" 
d="M284 0v245l-228 415h32l124 -226c31 -51 57 -103 88 -156h4c32 53 61 105 90 157l120 225h30l-228 -415v-245h-32zM224 728c-18 0 -32 12 -32 32s14 32 32 32s32 -12 32 -32s-14 -32 -32 -32zM376 728c-18 0 -32 12 -32 32s14 32 32 32s32 -12 32 -32s-14 -32 -32 -32z
" />
    <glyph glyph-name="Zacute" unicode="&#x179;" 
d="M72 0v19l416 615h-381v27h419v-19l-417 -614h424v-28h-461zM422 814l-108 -104h-30l94 104h44z" />
    <glyph glyph-name="zacute" unicode="&#x17a;" 
d="M72 0v16l392 434h-350v28h398v-16l-392 -434h404v-28h-452zM398 706l-104 -134h-28l92 134h40z" />
    <glyph glyph-name="Zdotaccent" unicode="&#x17b;" 
d="M72 0v19l416 615h-381v27h419v-19l-417 -614h424v-28h-461zM316 724c-18 0 -34 14 -34 36c0 20 16 34 34 34s34 -14 34 -34c0 -22 -16 -36 -34 -36z" />
    <glyph glyph-name="zdotaccent" unicode="&#x17c;" 
d="M72 0v16l392 434h-350v28h398v-16l-392 -434h404v-28h-452zM318 600c-22 0 -40 16 -40 42s18 42 40 42s40 -16 40 -42s-18 -42 -40 -42z" />
    <glyph glyph-name="Zcaron" unicode="&#x17d;" 
d="M72 0v19l416 615h-381v27h419v-19l-417 -614h424v-28h-461zM396 814h30l-96 -104h-28l-96 104h30l78 -74h4z" />
    <glyph glyph-name="zcaron" unicode="&#x17e;" 
d="M72 0v16l392 434h-350v28h398v-16l-392 -434h404v-28h-452zM304 572l-94 134h28l78 -102h4l78 102h28l-94 -134h-28z" />
    <glyph glyph-name="uni0180" unicode="&#x180;" 
d="M140 348v-256c60 -55 127 -76 168 -76c110 0 190 92 190 220c0 116 -49 206 -174 206c-53 0 -120 -30 -184 -94zM140 488l-2 -106c53 52 124 88 188 88c137 0 204 -92 204 -234c0 -156 -105 -248 -224 -248c-49 0 -115 26 -164 66h-2l-4 -54h-26v584h-78v24l78 4v110h30
v-110h236v-28h-236v-96z" />
    <glyph glyph-name="uni018F" unicode="&#x18f;" 
d="M98 300v-2c10 -172 84 -282 200 -282c122 0 202 114 211 284h-411zM154 576l-18 22c38 42 94 74 166 74c154 0 240 -132 240 -340s-98 -344 -244 -344s-232 144 -232 338v2h444v4c0 188 -72 312 -206 312c-60 0 -112 -26 -150 -68z" />
    <glyph glyph-name="uni0192" unicode="&#x192;" 
d="M524 650l-14 -24c-20 12 -42 18 -74 18c-79 0 -109 -86 -116 -172l-7 -68h163v-28h-166l-30 -276c-15 -124 -58 -198 -156 -198c-28 0 -51 10 -72 20l12 24c19 -8 40 -16 64 -16c81 0 111 76 122 168l30 278h-118v24l66 4h55l7 66c13 122 56 202 148 202
c39 0 65 -10 86 -22z" />
    <glyph glyph-name="Ohorn" unicode="&#x1a0;" 
d="M300 18c125 0 210 124 210 314s-85 310 -210 310s-210 -120 -210 -310s85 -314 210 -314zM492 748l26 16c12 -18 18 -34 18 -52c0 -52 -38 -80 -96 -93c64 -57 104 -157 104 -287c0 -208 -102 -344 -244 -344s-244 136 -244 344s102 340 244 340c41 0 79 -11 111 -32
c66 9 95 31 95 70c0 12 -4 24 -14 38z" />
    <glyph glyph-name="ohorn" unicode="&#x1a1;" 
d="M300 16c114 0 198 90 198 222s-84 224 -198 224s-198 -92 -198 -224s84 -222 198 -222zM488 576l26 16c12 -18 18 -34 18 -52c0 -52 -39 -80 -96 -93c56 -42 94 -113 94 -209c0 -158 -105 -250 -230 -250s-230 92 -230 250c0 160 105 252 230 252c36 0 71 -8 102 -23
c73 9 100 33 100 71c0 12 -4 24 -14 38z" />
    <glyph glyph-name="Uhorn" unicode="&#x1af;" 
d="M562 768l26 16c12 -18 18 -34 18 -52c0 -60 -48 -82 -98 -94v-392c0 -204 -104 -258 -208 -258s-208 54 -208 258v414h32v-406c0 -182 84 -236 176 -236c94 0 178 54 178 236v406h6c64 10 92 30 92 70c0 12 -4 24 -14 38z" />
    <glyph glyph-name="uhorn" unicode="&#x1b0;" 
d="M534 586l26 16c12 -18 18 -34 18 -52c0 -60 -50 -82 -88 -92v-458h-26l-4 96h-4c-53 -62 -114 -108 -192 -108c-117 0 -174 61 -174 192v298h30v-294c0 -113 43 -168 144 -168c72 0 126 37 196 116v346h2c54 8 86 30 86 70c0 12 -4 24 -14 38z" />
    <glyph glyph-name="uni01CD" unicode="&#x1cd;" 
d="M314 710h-28l-96 104h30l78 -74h4l78 74h30zM175 264h249l-46 132c-28 80 -52 148 -76 230h-4c-24 -82 -48 -150 -76 -230zM516 0l-82 236h-269l-83 -236h-32l236 660h28l236 -660h-34z" />
    <glyph glyph-name="uni01CE" unicode="&#x1ce;" 
d="M96 117c0 107 110 157 374 181c0 84 -32 164 -148 164c-76 0 -149 -40 -186 -68l-16 24c34 26 118 72 204 72c127 0 176 -84 176 -180v-310h-26l-4 74h-2c-56 -45 -132 -86 -204 -86c-84 0 -168 38 -168 129zM128 118c0 -74 70 -102 138 -102c64 0 132 31 204 92v164
c-258 -24 -342 -72 -342 -154zM304 572l-94 134h28l78 -102h4l78 102h28l-94 -134h-28z" />
    <glyph glyph-name="uni01CF" unicode="&#x1cf;" 
d="M112 0v28h172v604h-172v28h376v-28h-172v-604h172v-28h-376zM380 814h30l-96 -104h-28l-96 104h30l78 -74h4z" />
    <glyph glyph-name="uni01D0" unicode="&#x1d0;" 
d="M100 450v28h276v-478h-30v450h-246zM336 572l-94 134h28l78 -102h4l78 102h28l-94 -134h-28z" />
    <glyph glyph-name="uni01D1" unicode="&#x1d1;" 
d="M300 -12c-142 0 -244 136 -244 344s102 340 244 340s244 -132 244 -340s-102 -344 -244 -344zM300 18c125 0 210 124 210 314s-85 310 -210 310s-210 -120 -210 -310s85 -314 210 -314zM380 814h30l-96 -104h-28l-96 104h30l78 -74h4z" />
    <glyph glyph-name="uni01D2" unicode="&#x1d2;" 
d="M70 238c0 160 105 252 230 252s230 -92 230 -252c0 -158 -105 -250 -230 -250s-230 92 -230 250zM102 238c0 -132 84 -222 198 -222s198 90 198 222s-84 224 -198 224s-198 -92 -198 -224zM286 572l-94 134h28l78 -102h4l78 102h28l-94 -134h-28z" />
    <glyph glyph-name="uni01D3" unicode="&#x1d3;" 
d="M92 246v414h32v-406c0 -182 84 -236 176 -236c94 0 178 54 178 236v406h30v-414c0 -204 -104 -258 -208 -258s-208 54 -208 258zM380 814h30l-96 -104h-28l-96 104h30l78 -74h4z" />
    <glyph glyph-name="uni01D4" unicode="&#x1d4;" 
d="M490 478v-478h-26l-4 96h-4c-53 -62 -114 -108 -192 -108c-117 0 -174 61 -174 192v298h30v-294c0 -113 43 -168 144 -168c72 0 126 37 196 116v346h30zM280 572l-94 134h28l78 -102h4l78 102h28l-94 -134h-28z" />
    <glyph glyph-name="uni01D5" unicode="&#x1d5;" 
d="M92 246v414h32v-406c0 -182 84 -236 176 -236c94 0 178 54 178 236v406h30v-414c0 -204 -104 -258 -208 -258s-208 54 -208 258zM190 852v28h220v-28h-220zM224 728c-18 0 -32 12 -32 32s14 32 32 32s32 -12 32 -32s-14 -32 -32 -32zM376 728c-18 0 -32 12 -32 32
s14 32 32 32s32 -12 32 -32s-14 -32 -32 -32z" />
    <glyph glyph-name="uni01D6" unicode="&#x1d6;" 
d="M490 478v-478h-26l-4 96h-4c-53 -62 -114 -108 -192 -108c-117 0 -174 61 -174 192v298h30v-294c0 -113 43 -168 144 -168c72 0 126 37 196 116v346h30zM218 602c-18 0 -32 14 -32 32s14 32 32 32s32 -14 32 -32s-14 -32 -32 -32zM370 602c-18 0 -32 14 -32 32
s14 32 32 32s32 -14 32 -32s-14 -32 -32 -32zM182 746v28h222v-28h-222z" />
    <glyph glyph-name="uni01D7" unicode="&#x1d7;" 
d="M92 246v414h32v-406c0 -182 84 -236 176 -236c94 0 178 54 178 236v406h30v-414c0 -204 -104 -258 -208 -258s-208 54 -208 258zM268 826l96 104h40l-108 -104h-28zM224 728c-18 0 -32 12 -32 32s14 32 32 32s32 -12 32 -32s-14 -32 -32 -32zM376 728
c-18 0 -32 12 -32 32s14 32 32 32s32 -12 32 -32s-14 -32 -32 -32z" />
    <glyph glyph-name="uni01D8" unicode="&#x1d8;" 
d="M490 478v-478h-26l-4 96h-4c-53 -62 -114 -108 -192 -108c-117 0 -174 61 -174 192v298h30v-294c0 -113 43 -168 144 -168c72 0 126 37 196 116v346h30zM254 706l80 96h42l-94 -96h-28zM218 602c-18 0 -32 14 -32 32s14 32 32 32s32 -14 32 -32s-14 -32 -32 -32zM370 602
c-18 0 -32 14 -32 32s14 32 32 32s32 -14 32 -32s-14 -32 -32 -32z" />
    <glyph glyph-name="uni01D9" unicode="&#x1d9;" 
d="M92 246v414h32v-406c0 -182 84 -236 176 -236c94 0 178 54 178 236v406h30v-414c0 -204 -104 -258 -208 -258s-208 54 -208 258zM224 728c-18 0 -32 12 -32 32s14 32 32 32s32 -12 32 -32s-14 -32 -32 -32zM376 728c-18 0 -32 12 -32 32s14 32 32 32s32 -12 32 -32
s-14 -32 -32 -32zM380 930h30l-96 -104h-28l-96 104h30l78 -74h4z" />
    <glyph glyph-name="uni01DA" unicode="&#x1da;" 
d="M490 478v-478h-26l-4 96h-4c-53 -62 -114 -108 -192 -108c-117 0 -174 61 -174 192v298h30v-294c0 -113 43 -168 144 -168c72 0 126 37 196 116v346h30zM280 706l-94 96h30l76 -68h4l76 68h30l-94 -96h-28zM218 602c-18 0 -32 14 -32 32s14 32 32 32s32 -14 32 -32
s-14 -32 -32 -32zM370 602c-18 0 -32 14 -32 32s14 32 32 32s32 -14 32 -32s-14 -32 -32 -32z" />
    <glyph glyph-name="uni01DB" unicode="&#x1db;" 
d="M92 246v414h32v-406c0 -182 84 -236 176 -236c94 0 178 54 178 236v406h30v-414c0 -204 -104 -258 -208 -258s-208 54 -208 258zM236 930l96 -104h-28l-108 104h40zM376 728c-18 0 -32 12 -32 32s14 32 32 32s32 -12 32 -32s-14 -32 -32 -32zM224 728
c-18 0 -32 12 -32 32s14 32 32 32s32 -12 32 -32s-14 -32 -32 -32z" />
    <glyph glyph-name="uni01DC" unicode="&#x1dc;" 
d="M490 478v-478h-26l-4 96h-4c-53 -62 -114 -108 -192 -108c-117 0 -174 61 -174 192v298h30v-294c0 -113 43 -168 144 -168c72 0 126 37 196 116v346h30zM254 802l80 -96h-28l-94 96h42zM370 602c-18 0 -32 14 -32 32s14 32 32 32s32 -14 32 -32s-14 -32 -32 -32zM218 602
c-18 0 -32 14 -32 32s14 32 32 32s32 -14 32 -32s-14 -32 -32 -32z" />
    <glyph glyph-name="Gcaron" unicode="&#x1e6;" 
d="M61 332c0 208 112 340 282 340c86 0 139 -42 173 -78l-20 -22c-34 38 -81 70 -153 70c-154 0 -248 -120 -248 -310s90 -314 240 -314c63 0 121 20 154 54v218h-160v28h193v-256c-40 -44 -104 -74 -189 -74c-164 0 -272 136 -272 344zM412 814h30l-96 -104h-28l-96 104h30
l78 -74h4z" />
    <glyph glyph-name="gcaron" unicode="&#x1e7;" 
d="M120 -97c0 -61 60 -109 186 -109c139 0 222 68 222 132c0 57 -43 76 -131 76h-121c-22 0 -50 2 -73 9c-62 -33 -83 -71 -83 -108zM88 -93c0 37 30 82 82 115v4c-24 11 -50 36 -50 76c0 30 20 64 58 90v4c-30 26 -56 66 -56 124c0 96 78 170 174 170c26 0 46 -4 64 -12
h200v-28h-152c32 -30 62 -75 62 -130c0 -96 -78 -168 -174 -168c-30 0 -64 8 -94 24c-30 -18 -50 -44 -50 -71c0 -49 46 -71 114 -71h123c121 0 171 -30 171 -106c0 -80 -96 -162 -248 -162s-224 58 -224 141zM296 180c78 0 142 58 142 140s-64 142 -142 142
s-142 -60 -142 -142s64 -140 142 -140zM296 572l-94 134h28l78 -102h4l78 102h28l-94 -134h-28z" />
    <glyph glyph-name="uni01EA" unicode="&#x1ea;" 
d="M379 -160l14 -20c-14 -12 -40 -22 -60 -22c-44 0 -80 26 -80 80c0 38 21 78 60 110c-179 -4 -257 170 -257 344c0 208 102 340 244 340s244 -132 244 -340c0 -176 -68 -288 -176 -334c-56 -24 -85 -78 -85 -118c0 -36 26 -54 52 -54c18 0 30 4 44 14zM300 18
c125 0 210 124 210 314s-85 310 -210 310s-210 -120 -210 -310s85 -314 210 -314z" />
    <glyph glyph-name="uni01EB" unicode="&#x1eb;" 
d="M250 -122c0 50 34 92 56 110c-132 -2 -236 92 -236 250c0 160 105 252 230 252s230 -92 230 -252c0 -138 -68 -204 -174 -246c-44 -20 -76 -68 -76 -112c0 -36 24 -54 50 -54c18 0 30 4 44 14l14 -20c-14 -12 -40 -22 -60 -22c-44 0 -78 26 -78 80zM102 238
c0 -132 84 -222 198 -222s198 90 198 222s-84 224 -198 224s-198 -92 -198 -224z" />
    <glyph glyph-name="uni0218" unicode="&#x218;" 
d="M80 88l22 22c50 -56 124 -92 208 -92c112 0 184 58 184 142c0 88 -61 116 -132 146l-102 46c-60 25 -144 64 -144 162c0 94 84 158 196 158c84 0 150 -37 190 -78l-20 -22c-40 42 -98 70 -170 70c-98 0 -164 -50 -164 -126c0 -82 75 -113 126 -134l102 -46
c78 -33 150 -72 150 -174c0 -100 -86 -174 -216 -174c-102 0 -178 42 -230 100zM286 -52c50 -12 78 -32 78 -72c0 -50 -58 -74 -118 -82l-6 26c56 8 94 24 94 52c0 32 -30 44 -58 50z" />
    <glyph glyph-name="uni0219" unicode="&#x219;" 
d="M87 64l19 24c52 -44 114 -72 218 -72s158 48 158 102c0 46 -28 81 -178 116c-111 26 -190 70 -190 132c0 66 55 124 182 124c61 0 135 -24 180 -58l-18 -24c-42 32 -97 54 -164 54c-113 0 -148 -46 -148 -94s64 -80 166 -105c158 -39 202 -77 202 -143
c0 -70 -70 -132 -192 -132c-100 0 -179 35 -235 76zM288 -52c50 -12 78 -32 78 -72c0 -50 -58 -74 -118 -82l-6 26c56 8 94 24 94 52c0 32 -30 44 -58 50z" />
    <glyph glyph-name="uni021A" unicode="&#x21a;" 
d="M284 0v632h-234v28h500v-28h-234v-632h-32zM277 -52c50 -12 78 -32 78 -72c0 -50 -58 -74 -118 -82l-6 26c56 8 94 24 94 52c0 32 -30 44 -58 50z" />
    <glyph glyph-name="uni021B" unicode="&#x21b;" 
d="M232 176v274h-148v24l148 4l4 140h26v-140h262v-28h-262v-278c0 -96 26 -156 137 -156c53 0 94 10 133 26l10 -24c-43 -18 -101 -30 -145 -30c-127 0 -165 76 -165 188zM364 -52c50 -12 78 -32 78 -72c0 -50 -58 -74 -118 -82l-6 26c56 8 94 24 94 52c0 32 -30 44 -58 50
z" />
    <glyph glyph-name="uni0237" unicode="&#x237;" 
d="M100 450v28h276v-524c0 -118 -44 -188 -182 -188c-43 0 -93 14 -128 32l14 26c31 -16 76 -30 119 -30c117 0 147 63 147 154v502h-246z" />
    <glyph glyph-name="uni0243" unicode="&#x243;" 
d="M152 28h140c138 0 224 50 224 162c0 100 -82 148 -224 148h-140v-132h172v-28h-172v-150zM152 632v-266h120c144 0 202 46 202 138c0 90 -68 128 -196 128h-126zM388 356v-4c98 -14 160 -68 160 -160c0 -126 -94 -192 -244 -192h-184v178h-78v24l78 4v454h172
c132 0 214 -52 214 -160c0 -70 -40 -124 -118 -144z" />
    <glyph glyph-name="uni0250" unicode="&#x250;" 
d="M516 361c0 -107 -110 -157 -374 -181c0 -84 32 -164 148 -164c76 0 149 40 186 68l16 -24c-34 -26 -118 -72 -204 -72c-127 0 -176 84 -176 180v310h26l4 -74h2c56 45 132 86 204 86c84 0 168 -38 168 -129zM484 360c0 74 -70 102 -138 102c-64 0 -132 -31 -204 -92v-164
c258 24 342 72 342 154z" />
    <glyph glyph-name="uni0251" unicode="&#x251;" 
d="M102 238c0 -132 68 -222 182 -222c59 0 119 34 176 94v276c-58 55 -111 76 -164 76c-108 0 -194 -100 -194 -224zM70 238c0 154 107 252 228 252c62 0 111 -26 160 -68h2l4 56h26v-478h-26l-4 74h-2c-43 -45 -106 -86 -176 -86c-126 0 -212 88 -212 250z" />
    <glyph glyph-name="uni0252" unicode="&#x252;" 
d="M498 246c0 122 -49 216 -174 216c-59 0 -127 -34 -184 -94v-276c62 -56 126 -76 168 -76c110 0 190 96 190 230zM530 246c0 -162 -104 -258 -224 -258c-50 0 -114 26 -164 66h-2l-4 -54h-26v478h26l4 -74h2c43 45 114 86 184 86c137 0 204 -96 204 -244z" />
    <glyph glyph-name="uni0254" unicode="&#x254;" 
d="M510 238c0 -158 -108 -250 -250 -250c-78 0 -144 32 -192 78l18 22c44 -42 104 -72 174 -72c130 0 218 90 218 222s-86 224 -212 224c-72 0 -125 -28 -166 -68l-20 22c39 38 95 74 186 74c134 0 244 -92 244 -252z" />
    <glyph glyph-name="uni0258" unicode="&#x258;" 
d="M520 238c0 -156 -114 -250 -250 -250c-87 0 -138 29 -180 56l14 26c45 -32 98 -54 164 -54c132 0 220 94 220 222h-416c-2 12 -2 22 -2 32c0 138 104 220 222 220c132 0 228 -96 228 -252zM100 266h388c-14 120 -84 196 -196 196c-98 0 -192 -66 -192 -196z" />
    <glyph glyph-name="uni0259" unicode="&#x259;" 
d="M80 218c0 10 0 22 2 34h416c0 118 -69 210 -210 210c-66 0 -119 -20 -164 -48l-14 26c42 26 98 50 180 50c146 0 240 -90 240 -250c0 -156 -90 -252 -234 -252c-120 0 -216 78 -216 230zM110 224c0 -144 82 -208 186 -208c126 0 194 80 202 208h-388z" />
    <glyph glyph-name="uni0261" unicode="&#x261;" 
d="M124 -156c51 -36 109 -51 164 -51c109 0 172 63 172 167v126c-42 -46 -108 -88 -178 -88c-126 0 -212 86 -212 246c0 152 107 246 228 246c62 0 114 -28 160 -68h2l4 56h26v-526c0 -112 -78 -186 -202 -186c-70 0 -131 20 -180 52zM284 26c59 0 119 34 176 94v266
c-58 55 -111 76 -164 76c-108 0 -194 -96 -194 -218c0 -130 68 -218 182 -218z" />
    <glyph glyph-name="uni0265" unicode="&#x265;" 
d="M490 478v-700h-30v192l2 130c-63 -66 -120 -112 -198 -112c-117 0 -174 61 -174 192v298h30v-294c0 -113 43 -168 144 -168c72 0 122 38 196 116v346h30z" />
    <glyph glyph-name="uni026F" unicode="&#x26f;" 
d="M520 478v-478h-26l-4 66h-2c-29 -48 -58 -78 -111 -78c-54 0 -84 28 -97 86c-37 -56 -66 -86 -119 -86c-66 0 -103 46 -103 142v348h30v-344c0 -78 25 -118 75 -118c47 0 77 32 111 96v366h30v-344c0 -78 25 -118 75 -118c47 0 77 32 111 96v366h30z" />
    <glyph glyph-name="uni0279" unicode="&#x279;" 
d="M430 478v-478h-26l-4 120h-2c-52 -76 -131 -132 -229 -132c-31 0 -66 4 -97 20l10 28c36 -13 53 -18 91 -18c83 0 157 42 227 154v306h30z" />
    <glyph glyph-name="uni0287" unicode="&#x287;" 
d="M368 302v-274h148v-28h-148l-4 -140h-26v140h-262v28h262v278c0 96 -26 156 -137 156c-53 0 -94 -10 -133 -26l-10 24c43 18 101 30 145 30c127 0 165 -76 165 -188z" />
    <glyph glyph-name="uni028C" unicode="&#x28c;" 
d="M314 478l220 -478h-32l-140 310c-22 48 -43 94 -62 136h-4c-19 -42 -38 -88 -60 -136l-140 -310h-30l218 478h30z" />
    <glyph glyph-name="uni028D" unicode="&#x28d;" 
d="M458 478l130 -478h-34l-83 322c-11 44 -22 84 -31 126h-4c-11 -42 -22 -82 -33 -126l-83 -322h-42l-83 322c-11 44 -22 84 -33 126h-4c-11 -42 -22 -82 -32 -126l-82 -322h-32l128 478h42l82 -312c12 -46 21 -90 34 -136h4c11 46 20 92 34 138l80 310h42z" />
    <glyph glyph-name="uni028E" unicode="&#x28e;" 
d="M528 696c-12 4 -28 8 -47 8c-71 0 -118 -58 -147 -136l-34 -78l236 -490h-32l-148 314c-19 40 -44 92 -68 134h-4c-20 -42 -41 -94 -58 -134l-132 -314h-30l246 580c25 74 82 154 174 154c18 0 40 -4 54 -10z" />
    <glyph glyph-name="uni029E" unicode="&#x29e;" 
d="M470 478v-700h-30v524h-4l-326 -302h-40l198 184l-232 294h36l220 -276l148 140v136h30z" />
    <glyph glyph-name="h.sups" unicode="&#x2b0;" 
d="M190 260v474h32v-137l-2 -76c38 37 74 64 123 64c74 0 110 -40 110 -122v-203h-32v199c0 66 -25 98 -84 98c-42 0 -72 -21 -115 -64v-233h-32z" />
    <glyph glyph-name="j.sups" unicode="&#x2b2;" 
d="M169 550v27h185v-340c0 -78 -30 -128 -126 -128c-29 0 -60 10 -82 22l12 25c20 -11 47 -19 71 -19c74 0 94 38 94 96v317h-154zM338 653c-19 0 -33 12 -33 32s14 33 33 33c18 0 32 -13 32 -33s-14 -32 -32 -32z" />
    <glyph glyph-name="r.sups" unicode="&#x2b3;" 
d="M267 260v317h27l3 -78h2c30 51 77 86 133 86c22 0 44 -3 64 -13l-7 -28c-24 8 -36 11 -61 11c-46 0 -92 -27 -129 -100v-195h-32z" />
    <glyph glyph-name="w.sups" unicode="&#x2b7;" 
d="M165 260l-84 317h34l51 -203c7 -29 13 -57 19 -85h3c7 28 14 56 21 85l50 197h34l51 -197c7 -29 14 -57 21 -85h3c7 28 13 56 20 85l50 203h32l-81 -317h-41l-50 191c-7 30 -13 59 -21 91h-3c-7 -30 -13 -60 -22 -92l-49 -190h-38z" />
    <glyph glyph-name="y.sups" unicode="&#x2b8;" 
d="M163 150c8 -2 19 -5 29 -5c44 0 74 35 92 82l10 28l-146 322h33l87 -197c12 -26 26 -60 39 -89h3c12 28 23 62 33 89l77 197h32l-141 -355c-19 -54 -56 -106 -119 -106c-13 0 -27 3 -37 7z" />
    <glyph glyph-name="uni02BB" unicode="&#x2bb;" 
d="M348 700l18 -24c-57 -40 -94 -101 -98 -176c10 7 21 12 32 12c32 0 54 -24 54 -56c0 -33 -23 -58 -56 -58c-35 0 -68 33 -68 89c0 93 50 173 118 213z" />
    <glyph glyph-name="uni02BC" unicode="&#x2bc;" 
d="M248 398l-18 24c57 40 94 101 98 176c-10 -7 -21 -12 -32 -12c-32 0 -54 24 -54 56c0 33 23 58 56 58c35 0 68 -33 68 -89c0 -93 -50 -173 -118 -213z" />
    <glyph glyph-name="uni02BE" unicode="&#x2be;" 
d="M255 498v20c69 0 100 34 100 84s-31 84 -100 84v20c76 2 126 -38 126 -104s-50 -106 -126 -104z" />
    <glyph glyph-name="uni02BF" unicode="&#x2bf;" 
d="M353 706v-20c-69 0 -100 -34 -100 -84s31 -84 100 -84v-20c-76 -2 -126 38 -126 104s50 106 126 104z" />
    <glyph glyph-name="circumflex" unicode="&#x2c6;" 
d="M192 572l94 134h28l94 -134h-28l-78 102h-4l-78 -102h-28z" />
    <glyph glyph-name="caron" unicode="&#x2c7;" 
d="M286 572l-94 134h28l78 -102h4l78 102h28l-94 -134h-28z" />
    <glyph glyph-name="uni02C8" unicode="&#x2c8;" 
d="M286 412l-17 284h62l-17 -284h-28z" />
    <glyph glyph-name="uni02C9" unicode="&#x2c9;" 
d="M190 608v28h220v-28h-220z" />
    <glyph glyph-name="uni02CA" unicode="&#x2ca;" 
d="M378 706l-104 -134h-28l92 134h40z" />
    <glyph glyph-name="uni02CB" unicode="&#x2cb;" 
d="M322 572l-104 134h40l92 -134h-28z" />
    <glyph glyph-name="uni02CC" unicode="&#x2cc;" 
d="M314 40l17 -284h-62l17 284h28z" />
    <glyph glyph-name="breve" unicode="&#x2d8;" 
d="M300 576c-80 0 -110 68 -116 116h26c6 -44 34 -90 90 -90s84 46 90 90h26c-6 -48 -36 -116 -116 -116z" />
    <glyph glyph-name="dotaccent" unicode="&#x2d9;" 
d="M300 600c-22 0 -40 16 -40 42s18 42 40 42s40 -16 40 -42s-18 -42 -40 -42z" />
    <glyph glyph-name="ring" unicode="&#x2da;" 
d="M300 538c-44 0 -78 34 -78 84s34 84 78 84s78 -34 78 -84s-34 -84 -78 -84zM300 560c30 0 54 24 54 62s-24 62 -54 62s-54 -24 -54 -62s24 -62 54 -62z" />
    <glyph glyph-name="ogonek" unicode="&#x2db;" 
d="M250 -122c0 50 34 96 72 126h38c-48 -34 -80 -80 -80 -124c0 -36 24 -54 50 -54c18 0 30 4 44 14l14 -20c-14 -12 -40 -22 -60 -22c-44 0 -78 26 -78 80z" />
    <glyph glyph-name="tilde" unicode="&#x2dc;" 
d="M182 582c2 36 17 82 64 82c48 0 75 -56 110 -56c22 0 34 22 38 56h24c-2 -35 -17 -82 -64 -82c-48 0 -73 56 -110 56c-22 0 -34 -21 -38 -56h-24z" />
    <glyph glyph-name="hungarumlaut" unicode="&#x2dd;" 
d="M224 570l72 136h36l-82 -136h-26zM352 570l72 136h36l-82 -136h-26z" />
    <glyph glyph-name="l.sups" unicode="&#x2e1;" 
d="M207 707v27h124v-387c0 -46 19 -67 57 -67c17 0 31 3 55 11l8 -26c-22 -6 -41 -13 -68 -13c-55 0 -84 31 -84 99v356h-92z" />
    <glyph glyph-name="s.sups" unicode="&#x2e2;" 
d="M175 296l17 23c32 -25 68 -40 125 -40c63 0 96 28 96 61c0 39 -51 56 -96 69c-59 18 -125 37 -125 91c0 46 43 85 123 85c40 0 80 -14 109 -33l-17 -22c-26 17 -54 29 -93 29c-63 0 -91 -28 -91 -57c0 -34 46 -49 92 -63c61 -19 129 -35 129 -97c0 -48 -46 -90 -129 -90
c-58 0 -106 20 -140 44z" />
    <glyph glyph-name="x.sups" unicode="&#x2e3;" 
d="M188 260l110 166l-101 151h35l52 -79c10 -18 22 -35 34 -52h3c11 17 22 34 34 52l49 79h34l-101 -154l110 -163h-35l-57 85c-12 20 -25 40 -39 58h-2c-13 -18 -25 -38 -38 -58l-55 -85h-33z" />
    <glyph glyph-name="uni0300" unicode="&#x300;" 
d="M324 572l-104 134h40l92 -134h-28z" />
    <glyph glyph-name="uni0301" unicode="&#x301;" 
d="M380 706l-104 -134h-28l92 134h40z" />
    <glyph glyph-name="uni0302" unicode="&#x302;" 
d="M192 572l94 134h28l94 -134h-28l-78 102h-4l-78 -102h-28z" />
    <glyph glyph-name="uni0303" unicode="&#x303;" 
d="M182 582c2 36 17 82 64 82c48 0 75 -56 110 -56c22 0 34 22 38 56h24c-2 -35 -17 -82 -64 -82c-48 0 -73 56 -110 56c-22 0 -34 -21 -38 -56h-24z" />
    <glyph glyph-name="uni0304" unicode="&#x304;" 
d="M190 608v28h220v-28h-220z" />
    <glyph glyph-name="uni0306" unicode="&#x306;" 
d="M300 576c-80 0 -110 68 -116 116h26c6 -44 34 -90 90 -90s84 46 90 90h26c-6 -48 -36 -116 -116 -116z" />
    <glyph glyph-name="uni0307" unicode="&#x307;" 
d="M300 600c-22 0 -40 16 -40 42s18 42 40 42s40 -16 40 -42s-18 -42 -40 -42z" />
    <glyph glyph-name="uni0308" unicode="&#x308;" 
d="M214 602c-20 0 -34 16 -34 36s14 36 34 36s34 -16 34 -36s-14 -36 -34 -36zM386 602c-20 0 -34 16 -34 36s14 36 34 36s34 -16 34 -36s-14 -36 -34 -36z" />
    <glyph glyph-name="uni0309" unicode="&#x309;" 
d="M278 550l-8 22c38 12 66 28 66 58c0 32 -32 48 -86 50l2 26c58 -2 114 -22 114 -72s-44 -70 -88 -84z" />
    <glyph glyph-name="uni030A" unicode="&#x30a;" 
d="M300 538c-44 0 -78 34 -78 84s34 84 78 84s78 -34 78 -84s-34 -84 -78 -84zM300 560c30 0 54 24 54 62s-24 62 -54 62s-54 -24 -54 -62s24 -62 54 -62z" />
    <glyph glyph-name="uni030B" unicode="&#x30b;" 
d="M224 570l72 136h36l-82 -136h-26zM352 570l72 136h36l-82 -136h-26z" />
    <glyph glyph-name="uni030C" unicode="&#x30c;" 
d="M286 572l-94 134h28l78 -102h4l78 102h28l-94 -134h-28z" />
    <glyph glyph-name="uni030F" unicode="&#x30f;" 
d="M304 706l72 -136h-26l-82 136h36zM176 706l72 -136h-26l-82 136h36z" />
    <glyph glyph-name="uni0312" unicode="&#x312;" 
d="M326 712l14 -22c-38 -22 -52 -49 -52 -81c2 1 5 1 8 1c14 0 32 -8 32 -30c0 -24 -14 -34 -30 -34c-24 0 -38 20 -38 58c0 40 18 82 66 108z" />
    <glyph glyph-name="uni0313" unicode="&#x313;" 
d="M274 546l-14 22c38 22 52 49 52 81c-2 -1 -5 -1 -8 -1c-14 0 -32 8 -32 30c0 24 14 34 30 34c24 0 38 -20 38 -58c0 -40 -18 -82 -66 -108z" />
    <glyph glyph-name="uni031B" unicode="&#x31b;" 
d="M298 442l-6 26c68 8 98 30 98 70c0 12 -4 24 -14 38l26 16c12 -18 18 -34 18 -52c0 -60 -50 -88 -122 -98z" />
    <glyph glyph-name="uni0323" unicode="&#x323;" 
d="M300 -204c-22 0 -40 16 -40 42s18 42 40 42s40 -16 40 -42s-18 -42 -40 -42z" />
    <glyph glyph-name="uni0324" unicode="&#x324;" 
d="M224 -188c-18 0 -32 14 -32 32s14 32 32 32s32 -14 32 -32s-14 -32 -32 -32zM376 -188c-18 0 -32 14 -32 32s14 32 32 32s32 -14 32 -32s-14 -32 -32 -32z" />
    <glyph glyph-name="uni0326" unicode="&#x326;" 
d="M276 -52c50 -12 78 -32 78 -72c0 -50 -58 -74 -118 -82l-6 26c56 8 94 24 94 52c0 32 -30 44 -58 50z" />
    <glyph glyph-name="uni0327" unicode="&#x327;" 
d="M256 -74l40 76h28l-30 -58c32 -10 60 -28 60 -68c0 -50 -58 -74 -118 -82l-6 26c56 8 94 24 94 52c0 32 -30 44 -68 54z" />
    <glyph glyph-name="uni0328" unicode="&#x328;" 
d="M250 -122c0 50 34 96 72 126h38c-48 -34 -80 -80 -80 -124c0 -36 24 -54 50 -54c18 0 30 4 44 14l14 -20c-14 -12 -40 -22 -60 -22c-44 0 -78 26 -78 80z" />
    <glyph glyph-name="uni032E" unicode="&#x32e;" 
d="M300 -202c-80 0 -110 68 -116 116h26c6 -44 34 -90 90 -90s84 46 90 90h26c-6 -48 -36 -116 -116 -116z" />
    <glyph glyph-name="uni0331" unicode="&#x331;" 
d="M410 -128v-28h-222v28h222z" />
    <glyph glyph-name="pi" unicode="&#x3c0;" 
d="M414 72c0 66 4 251 6 376h-238c0 -150 -4 -300 -14 -450l-30 2c14 150 16 300 16 448h-94v26l66 4h414v-30h-90c-6 -129 -8 -316 -8 -382c0 -34 14 -50 46 -50c6 0 14 2 30 6l6 -26c-12 -4 -21 -8 -38 -8c-49 0 -72 24 -72 84z" />
    <glyph glyph-name="a.sups" unicode="&#x1d43;" 
d="M178 339c0 71 73 104 224 120c0 51 -16 99 -83 99c-46 0 -86 -21 -111 -37l-15 23c25 16 75 41 129 41c82 0 112 -54 112 -123v-202h-27l-3 41h-1c-35 -26 -78 -49 -123 -49c-54 0 -102 28 -102 87zM210 341c0 -44 36 -62 76 -62c38 0 75 18 116 50v106
c-139 -15 -192 -44 -192 -94z" />
    <glyph glyph-name="b.sups" unicode="&#x1d47;" 
d="M186 260v474h32v-137l-2 -61c34 27 75 49 116 49c91 0 136 -63 136 -162c0 -107 -70 -171 -148 -171c-33 0 -71 15 -103 38h-1l-4 -30h-26zM218 320c37 -29 73 -40 99 -40c69 0 117 58 117 143c0 77 -29 134 -107 134c-33 0 -70 -18 -109 -51v-186z" />
    <glyph glyph-name="d.sups" unicode="&#x1d48;" 
d="M144 418c0 103 69 167 149 167c41 0 69 -14 103 -39l-2 58v130h32v-474h-27l-4 41h-1c-28 -26 -66 -49 -111 -49c-84 0 -139 59 -139 166zM177 418c0 -83 40 -138 111 -138c37 0 71 18 106 51v186c-36 29 -66 40 -99 40c-67 0 -118 -60 -118 -139z" />
    <glyph glyph-name="e.sups" unicode="&#x1d49;" 
d="M170 418c0 104 73 167 149 167c81 0 132 -54 132 -147c0 -8 -1 -16 -2 -24h-247c2 -79 53 -135 129 -135c37 0 67 11 93 28l13 -24c-27 -15 -60 -31 -110 -31c-86 0 -157 62 -157 166zM202 438h219c0 79 -40 120 -102 120c-57 0 -109 -45 -117 -120z" />
    <glyph glyph-name="g.sups" unicode="&#x1d4d;" 
d="M192 200c0 -38 37 -67 116 -67c88 0 141 41 141 80c0 35 -28 46 -84 46h-75c-16 0 -32 1 -47 6c-38 -20 -51 -43 -51 -65zM162 200c0 24 20 53 54 74v2c-16 8 -33 25 -33 51c0 21 14 43 39 60v3c-21 17 -39 44 -39 82c0 66 53 113 119 113c17 0 32 -2 44 -8h134v-26h-96
c19 -19 35 -46 35 -79c0 -66 -51 -111 -117 -111c-20 0 -39 5 -59 14c-18 -11 -30 -26 -30 -43c0 -30 26 -43 71 -43h79c82 0 118 -21 118 -72c0 -56 -66 -109 -171 -109c-100 0 -148 36 -148 92zM302 386c48 0 86 35 86 86s-38 88 -86 88c-49 0 -87 -37 -87 -88
s38 -86 87 -86z" />
    <glyph glyph-name="k.sups" unicode="&#x1d4f;" 
d="M212 260v474h32v-345h1l196 188h38l-124 -123l145 -194h-37l-129 173l-90 -85v-88h-32z" />
    <glyph glyph-name="m.sups" unicode="&#x1d50;" 
d="M143 260v317h26l3 -43h2c18 31 38 51 74 51c35 0 55 -18 64 -56c22 36 43 56 79 56c44 0 69 -32 69 -95v-230h-31v226c0 47 -14 71 -45 71c-28 0 -48 -20 -68 -59v-238h-29v226c0 47 -14 71 -45 71c-28 0 -47 -20 -68 -59v-238h-31z" />
    <glyph glyph-name="o.sups" unicode="&#x1d52;" 
d="M150 418c0 106 69 167 150 167c82 0 150 -61 150 -167c0 -105 -68 -166 -150 -166c-81 0 -150 61 -150 166zM183 418c0 -82 49 -138 117 -138s117 56 117 138s-49 140 -117 140s-117 -58 -117 -140z" />
    <glyph glyph-name="p.sups" unicode="&#x1d56;" 
d="M217 291l1 -58v-116h-32v460h27l3 -39h2c33 25 73 47 115 47c90 0 135 -63 135 -162c0 -107 -70 -171 -148 -171c-33 0 -67 14 -103 39zM218 320c38 -29 73 -40 99 -40c69 0 117 58 117 143c0 77 -29 134 -107 134c-33 0 -68 -18 -109 -51v-186z" />
    <glyph glyph-name="t.sups" unicode="&#x1d57;" 
d="M258 379v171h-83v25l84 2l4 92h27v-92h157v-27h-157v-173c0 -61 18 -98 88 -98c29 0 51 7 73 17l8 -24c-25 -12 -58 -20 -86 -20c-88 0 -115 51 -115 127z" />
    <glyph glyph-name="u.sups" unicode="&#x1d58;" 
d="M432 577v-317h-26l-4 55h-2c-33 -36 -71 -63 -121 -63c-73 0 -109 40 -109 122v203h32v-199c0 -66 24 -97 83 -97c43 0 75 20 116 64v232h31z" />
    <glyph glyph-name="v.sups" unicode="&#x1d5b;" 
d="M293 260l-122 317h34l73 -197c12 -31 22 -62 33 -91h2c11 29 20 60 32 91l73 197h32l-120 -317h-37z" />
    <glyph glyph-name="c.sups" unicode="&#x1d9c;" 
d="M189 418c0 106 74 167 158 167c47 0 78 -19 102 -39l-19 -22c-22 19 -49 34 -82 34c-72 0 -127 -58 -127 -140s50 -138 126 -138c38 0 70 16 94 36l16 -22c-30 -24 -67 -42 -111 -42c-90 0 -157 61 -157 166z" />
    <glyph glyph-name="f.sups" unicode="&#x1da0;" 
d="M499 726l-9 -25c-27 11 -46 14 -74 14c-67 0 -92 -40 -92 -98v-40h142v-27h-142v-290h-31v290h-83v25l83 2v37c0 80 40 128 121 128c28 0 54 -4 85 -16z" />
    <glyph glyph-name="z.sups" unicode="&#x1dbb;" 
d="M142 260v17l249 273h-222v27h270v-17l-249 -273h257v-27h-305z" />
    <glyph glyph-name="uni1E0C" unicode="&#x1e0c;" 
d="M100 0v660h148c204 0 296 -132 296 -328s-92 -332 -296 -332h-148zM132 28h112c188 0 266 130 266 304s-78 300 -266 300h-112v-604zM290 -204c-22 0 -40 16 -40 42s18 42 40 42s40 -16 40 -42s-18 -42 -40 -42z" />
    <glyph glyph-name="uni1E0D" unicode="&#x1e0d;" 
d="M70 238c0 154 107 252 228 252c62 0 111 -26 164 -70l-2 100v202h30v-722h-26l-4 74h-2c-43 -45 -106 -86 -176 -86c-126 0 -212 88 -212 250zM102 238c0 -132 68 -222 182 -222c59 0 119 34 176 94v276c-58 55 -111 76 -164 76c-108 0 -194 -100 -194 -224zM304 -204
c-22 0 -40 16 -40 42s18 42 40 42s40 -16 40 -42s-18 -42 -40 -42z" />
    <glyph glyph-name="uni1E0E" unicode="&#x1e0e;" 
d="M100 0v660h148c204 0 296 -132 296 -328s-92 -332 -296 -332h-148zM132 28h112c188 0 266 130 266 304s-78 300 -266 300h-112v-604zM400 -128v-28h-222v28h222z" />
    <glyph glyph-name="uni1E0F" unicode="&#x1e0f;" 
d="M70 238c0 154 107 252 228 252c62 0 111 -26 164 -70l-2 100v202h30v-722h-26l-4 74h-2c-43 -45 -106 -86 -176 -86c-126 0 -212 88 -212 250zM102 238c0 -132 68 -222 182 -222c59 0 119 34 176 94v276c-58 55 -111 76 -164 76c-108 0 -194 -100 -194 -224zM414 -128
v-28h-222v28h222z" />
    <glyph glyph-name="uni1E20" unicode="&#x1e20;" 
d="M61 332c0 208 112 340 282 340c86 0 139 -42 173 -78l-20 -22c-34 38 -81 70 -153 70c-154 0 -248 -120 -248 -310s90 -314 240 -314c63 0 121 20 154 54v218h-160v28h193v-256c-40 -44 -104 -74 -189 -74c-164 0 -272 136 -272 344zM222 736v28h220v-28h-220z" />
    <glyph glyph-name="uni1E21" unicode="&#x1e21;" 
d="M120 -97c0 -61 60 -109 186 -109c139 0 222 68 222 132c0 57 -43 76 -131 76h-121c-22 0 -50 2 -73 9c-62 -33 -83 -71 -83 -108zM88 -93c0 37 30 82 82 115v4c-24 11 -50 36 -50 76c0 30 20 64 58 90v4c-30 26 -56 66 -56 124c0 96 78 170 174 170c26 0 46 -4 64 -12
h200v-28h-152c32 -30 62 -75 62 -130c0 -96 -78 -168 -174 -168c-30 0 -64 8 -94 24c-30 -18 -50 -44 -50 -71c0 -49 46 -71 114 -71h123c121 0 171 -30 171 -106c0 -80 -96 -162 -248 -162s-224 58 -224 141zM296 180c78 0 142 58 142 140s-64 142 -142 142
s-142 -60 -142 -142s64 -140 142 -140zM200 608v28h220v-28h-220z" />
    <glyph glyph-name="uni1E24" unicode="&#x1e24;" 
d="M92 0v660h32v-294h352v294h32v-660h-32v338h-352v-338h-32zM300 -204c-22 0 -40 16 -40 42s18 42 40 42s40 -16 40 -42s-18 -42 -40 -42z" />
    <glyph glyph-name="uni1E25" unicode="&#x1e25;" 
d="M110 0v722h30v-214l-2 -130c63 66 120 112 198 112c117 0 174 -61 174 -192v-298h-30v294c0 113 -43 168 -144 168c-72 0 -122 -38 -196 -116v-346h-30zM319 -204c-22 0 -40 16 -40 42s18 42 40 42s40 -16 40 -42s-18 -42 -40 -42z" />
    <glyph glyph-name="uni1E2A" unicode="&#x1e2a;" 
d="M92 0v660h32v-294h352v294h32v-660h-32v338h-352v-338h-32zM300 -202c-80 0 -110 68 -116 116h26c6 -44 34 -90 90 -90s84 46 90 90h26c-6 -48 -36 -116 -116 -116z" />
    <glyph glyph-name="uni1E2B" unicode="&#x1e2b;" 
d="M110 0v722h30v-214l-2 -130c63 66 120 112 198 112c117 0 174 -61 174 -192v-298h-30v294c0 113 -43 168 -144 168c-72 0 -122 -38 -196 -116v-346h-30zM318 -202c-80 0 -110 68 -116 116h26c6 -44 34 -90 90 -90s84 46 90 90h26c-6 -48 -36 -116 -116 -116z" />
    <glyph glyph-name="uni1E36" unicode="&#x1e36;" 
d="M156 0v660h30v-632h352v-28h-382zM358 -204c-22 0 -40 16 -40 42s18 42 40 42s40 -16 40 -42s-18 -42 -40 -42z" />
    <glyph glyph-name="uni1E37" unicode="&#x1e37;" 
d="M97 694v28h213v-590c0 -78 35 -116 107 -116c32 0 63 8 103 27l12 -25c-38 -15 -71 -30 -117 -30c-86 0 -135 43 -135 150v556h-183zM378 -204c-22 0 -40 16 -40 42s18 42 40 42s40 -16 40 -42s-18 -42 -40 -42z" />
    <glyph glyph-name="uni1E38" unicode="&#x1e38;" 
d="M156 0v660h30v-632h352v-28h-382zM76 736v28h220v-28h-220zM358 -204c-22 0 -40 16 -40 42s18 42 40 42s40 -16 40 -42s-18 -42 -40 -42z" />
    <glyph glyph-name="uni1E39" unicode="&#x1e39;" 
d="M97 694v28h213v-590c0 -78 35 -116 107 -116c32 0 63 8 103 27l12 -25c-38 -15 -71 -30 -117 -30c-86 0 -135 43 -135 150v556h-183zM184 838v28h220v-28h-220zM378 -204c-22 0 -40 16 -40 42s18 42 40 42s40 -16 40 -42s-18 -42 -40 -42z" />
    <glyph glyph-name="uni1E3A" unicode="&#x1e3a;" 
d="M156 0v660h30v-632h352v-28h-382zM468 -128v-28h-222v28h222z" />
    <glyph glyph-name="uni1E3B" unicode="&#x1e3b;" 
d="M97 694v28h213v-590c0 -78 35 -116 107 -116c32 0 63 8 103 27l12 -25c-38 -15 -71 -30 -117 -30c-86 0 -135 43 -135 150v556h-183zM488 -128v-28h-222v28h222z" />
    <glyph glyph-name="uni1E42" unicode="&#x1e42;" 
d="M95 0v660h46l116 -318l42 -120h4l40 120l116 318h46v-660h-32v495c0 41 2 87 3 128h-3l-36 -110l-123 -332h-27l-124 332l-39 110h-2c1 -41 4 -87 4 -128v-495h-31zM300 -204c-22 0 -40 16 -40 42s18 42 40 42s40 -16 40 -42s-18 -42 -40 -42z" />
    <glyph glyph-name="uni1E43" unicode="&#x1e43;" 
d="M80 0v478h26l4 -66h2c29 48 58 78 111 78c54 0 84 -28 97 -86c37 56 66 86 119 86c66 0 103 -46 103 -142v-348h-30v344c0 78 -25 118 -75 118c-47 0 -77 -32 -111 -96v-366h-30v344c0 78 -25 118 -75 118c-47 0 -77 -32 -111 -96v-366h-30zM307 -204
c-22 0 -40 16 -40 42s18 42 40 42s40 -16 40 -42s-18 -42 -40 -42z" />
    <glyph glyph-name="uni1E44" unicode="&#x1e44;" 
d="M96 0v660h33l274 -486l73 -128h2c-1 63 -4 123 -4 185v429h30v-660h-33l-274 486l-73 128h-2c1 -63 4 -119 4 -181v-433h-30zM306 724c-18 0 -34 14 -34 36c0 20 16 34 34 34s34 -14 34 -34c0 -22 -16 -36 -34 -36z" />
    <glyph glyph-name="uni1E45" unicode="&#x1e45;" 
d="M110 0v478h26l4 -96h4c57 62 114 108 192 108c117 0 174 -61 174 -192v-298h-30v294c0 113 -43 168 -144 168c-72 0 -122 -38 -196 -116v-346h-30zM320 600c-22 0 -40 16 -40 42s18 42 40 42s40 -16 40 -42s-18 -42 -40 -42z" />
    <glyph glyph-name="uni1E46" unicode="&#x1e46;" 
d="M96 0v660h33l274 -486l73 -128h2c-1 63 -4 123 -4 185v429h30v-660h-33l-274 486l-73 128h-2c1 -63 4 -119 4 -181v-433h-30zM300 -204c-22 0 -40 16 -40 42s18 42 40 42s40 -16 40 -42s-18 -42 -40 -42z" />
    <glyph glyph-name="uni1E47" unicode="&#x1e47;" 
d="M110 0v478h26l4 -96h4c57 62 114 108 192 108c117 0 174 -61 174 -192v-298h-30v294c0 113 -43 168 -144 168c-72 0 -122 -38 -196 -116v-346h-30zM318 -204c-22 0 -40 16 -40 42s18 42 40 42s40 -16 40 -42s-18 -42 -40 -42z" />
    <glyph glyph-name="uni1E48" unicode="&#x1e48;" 
d="M96 0v660h33l274 -486l73 -128h2c-1 63 -4 123 -4 185v429h30v-660h-33l-274 486l-73 128h-2c1 -63 4 -119 4 -181v-433h-30zM410 -128v-28h-222v28h222z" />
    <glyph glyph-name="uni1E49" unicode="&#x1e49;" 
d="M110 0v478h26l4 -96h4c57 62 114 108 192 108c117 0 174 -61 174 -192v-298h-30v294c0 113 -43 168 -144 168c-72 0 -122 -38 -196 -116v-346h-30zM428 -128v-28h-222v28h222z" />
    <glyph glyph-name="uni1E5A" unicode="&#x1e5a;" 
d="M320 -120c22 0 40 -16 40 -42s-18 -42 -40 -42s-40 16 -40 42s18 42 40 42zM156 340h138c122 0 190 48 190 150c0 104 -68 142 -190 142h-138v-292zM340 314l188 -314h-38l-186 312h-148v-312h-32v660h182c130 0 212 -48 212 -170c0 -105 -68 -166 -178 -176z" />
    <glyph glyph-name="uni1E5B" unicode="&#x1e5b;" 
d="M170 0v478h26l4 -120h2c52 76 131 132 229 132c31 0 66 -4 97 -20l-10 -28c-36 13 -53 18 -91 18c-83 0 -157 -42 -227 -154v-306h-30zM198 -204c-22 0 -40 16 -40 42s18 42 40 42s40 -16 40 -42s-18 -42 -40 -42z" />
    <glyph glyph-name="uni1E5C" unicode="&#x1e5c;" 
d="M416 764v-28h-220v28h220zM320 -120c22 0 40 -16 40 -42s-18 -42 -40 -42s-40 16 -40 42s18 42 40 42zM156 340h138c122 0 190 48 190 150c0 104 -68 142 -190 142h-138v-292zM340 314l188 -314h-38l-186 312h-148v-312h-32v660h182c130 0 212 -48 212 -170
c0 -105 -68 -166 -178 -176z" />
    <glyph glyph-name="uni1E5D" unicode="&#x1e5d;" 
d="M170 0v478h26l4 -120h2c52 76 131 132 229 132c31 0 66 -4 97 -20l-10 -28c-36 13 -53 18 -91 18c-83 0 -157 -42 -227 -154v-306h-30zM234 608v28h220v-28h-220zM198 -204c-22 0 -40 16 -40 42s18 42 40 42s40 -16 40 -42s-18 -42 -40 -42z" />
    <glyph glyph-name="uni1E5E" unicode="&#x1e5e;" 
d="M208 -156v28h222v-28h-222zM156 340h138c122 0 190 48 190 150c0 104 -68 142 -190 142h-138v-292zM340 314l188 -314h-38l-186 312h-148v-312h-32v660h182c130 0 212 -48 212 -170c0 -105 -68 -166 -178 -176z" />
    <glyph glyph-name="uni1E5F" unicode="&#x1e5f;" 
d="M170 0v478h26l4 -120h2c52 76 131 132 229 132c31 0 66 -4 97 -20l-10 -28c-36 13 -53 18 -91 18c-83 0 -157 -42 -227 -154v-306h-30zM308 -128v-28h-222v28h222z" />
    <glyph glyph-name="uni1E60" unicode="&#x1e60;" 
d="M80 88l22 22c50 -56 124 -92 208 -92c112 0 184 58 184 142c0 88 -61 116 -132 146l-102 46c-60 25 -144 64 -144 162c0 94 84 158 196 158c84 0 150 -37 190 -78l-20 -22c-40 42 -98 70 -170 70c-98 0 -164 -50 -164 -126c0 -82 75 -113 126 -134l102 -46
c78 -33 150 -72 150 -174c0 -100 -86 -174 -216 -174c-102 0 -178 42 -230 100zM314 724c-18 0 -34 14 -34 36c0 20 16 34 34 34s34 -14 34 -34c0 -22 -16 -36 -34 -36z" />
    <glyph glyph-name="uni1E61" unicode="&#x1e61;" 
d="M87 64l19 24c52 -44 114 -72 218 -72s158 48 158 102c0 46 -28 81 -178 116c-111 26 -190 70 -190 132c0 66 55 124 182 124c61 0 135 -24 180 -58l-18 -24c-42 32 -97 54 -164 54c-113 0 -148 -46 -148 -94s64 -80 166 -105c158 -39 202 -77 202 -143
c0 -70 -70 -132 -192 -132c-100 0 -179 35 -235 76zM296 600c-22 0 -40 16 -40 42s18 42 40 42s40 -16 40 -42s-18 -42 -40 -42z" />
    <glyph glyph-name="uni1E62" unicode="&#x1e62;" 
d="M80 88l22 22c50 -56 124 -92 208 -92c112 0 184 58 184 142c0 88 -61 116 -132 146l-102 46c-60 25 -144 64 -144 162c0 94 84 158 196 158c84 0 150 -37 190 -78l-20 -22c-40 42 -98 70 -170 70c-98 0 -164 -50 -164 -126c0 -82 75 -113 126 -134l102 -46
c78 -33 150 -72 150 -174c0 -100 -86 -174 -216 -174c-102 0 -178 42 -230 100zM310 -204c-22 0 -40 16 -40 42s18 42 40 42s40 -16 40 -42s-18 -42 -40 -42z" />
    <glyph glyph-name="uni1E63" unicode="&#x1e63;" 
d="M87 64l19 24c52 -44 114 -72 218 -72s158 48 158 102c0 46 -28 81 -178 116c-111 26 -190 70 -190 132c0 66 55 124 182 124c61 0 135 -24 180 -58l-18 -24c-42 32 -97 54 -164 54c-113 0 -148 -46 -148 -94s64 -80 166 -105c158 -39 202 -77 202 -143
c0 -70 -70 -132 -192 -132c-100 0 -179 35 -235 76zM312 -204c-22 0 -40 16 -40 42s18 42 40 42s40 -16 40 -42s-18 -42 -40 -42z" />
    <glyph glyph-name="uni1E6C" unicode="&#x1e6c;" 
d="M284 0v632h-234v28h500v-28h-234v-632h-32zM301 -204c-22 0 -40 16 -40 42s18 42 40 42s40 -16 40 -42s-18 -42 -40 -42z" />
    <glyph glyph-name="uni1E6D" unicode="&#x1e6d;" 
d="M232 176v274h-148v24l148 4l4 140h26v-140h262v-28h-262v-278c0 -96 26 -156 137 -156c53 0 94 10 133 26l10 -24c-43 -18 -101 -30 -145 -30c-127 0 -165 76 -165 188zM388 -204c-22 0 -40 16 -40 42s18 42 40 42s40 -16 40 -42s-18 -42 -40 -42z" />
    <glyph glyph-name="uni1E6E" unicode="&#x1e6e;" 
d="M284 0v632h-234v28h500v-28h-234v-632h-32zM411 -128v-28h-222v28h222z" />
    <glyph glyph-name="uni1E6F" unicode="&#x1e6f;" 
d="M232 176v274h-148v24l148 4l4 140h26v-140h262v-28h-262v-278c0 -96 26 -156 137 -156c53 0 94 10 133 26l10 -24c-43 -18 -101 -30 -145 -30c-127 0 -165 76 -165 188zM498 -128v-28h-222v28h222z" />
    <glyph glyph-name="Wgrave" unicode="&#x1e80;" 
d="M127 0l-112 661h29l78 -465c6 -53 16 -105 23 -158h2c17 53 33 105 48 158l88 292h35l90 -292c14 -53 30 -106 46 -158h4c7 52 16 105 23 158l75 465h28l-109 -661h-42l-101 331c-11 38 -19 75 -30 114h-3c-11 -39 -20 -76 -32 -114l-98 -331h-42zM302 710l-108 104h44
l94 -104h-30z" />
    <glyph glyph-name="wgrave" unicode="&#x1e81;" 
d="M142 0l-130 478h34l83 -322c11 -44 22 -84 31 -126h4c11 42 22 82 33 126l83 322h42l83 -322c11 -44 22 -84 33 -126h4c11 42 22 82 32 126l82 322h32l-128 -478h-42l-82 312c-12 46 -21 90 -34 136h-4c-11 -46 -20 -92 -34 -138l-80 -310h-42zM324 572l-104 134h40
l92 -134h-28z" />
    <glyph glyph-name="Wacute" unicode="&#x1e82;" 
d="M127 0l-112 661h29l78 -465c6 -53 16 -105 23 -158h2c17 53 33 105 48 158l88 292h35l90 -292c14 -53 30 -106 46 -158h4c7 52 16 105 23 158l75 465h28l-109 -661h-42l-101 331c-11 38 -19 75 -30 114h-3c-11 -39 -20 -76 -32 -114l-98 -331h-42zM406 814l-108 -104h-30
l94 104h44z" />
    <glyph glyph-name="wacute" unicode="&#x1e83;" 
d="M142 0l-130 478h34l83 -322c11 -44 22 -84 31 -126h4c11 42 22 82 33 126l83 322h42l83 -322c11 -44 22 -84 33 -126h4c11 42 22 82 32 126l82 322h32l-128 -478h-42l-82 312c-12 46 -21 90 -34 136h-4c-11 -46 -20 -92 -34 -138l-80 -310h-42zM380 706l-104 -134h-28
l92 134h40z" />
    <glyph glyph-name="Wdieresis" unicode="&#x1e84;" 
d="M127 0l-112 661h29l78 -465c6 -53 16 -105 23 -158h2c17 53 33 105 48 158l88 292h35l90 -292c14 -53 30 -106 46 -158h4c7 52 16 105 23 158l75 465h28l-109 -661h-42l-101 331c-11 38 -19 75 -30 114h-3c-11 -39 -20 -76 -32 -114l-98 -331h-42zM224 728
c-18 0 -32 12 -32 32s14 32 32 32s32 -12 32 -32s-14 -32 -32 -32zM376 728c-18 0 -32 12 -32 32s14 32 32 32s32 -12 32 -32s-14 -32 -32 -32z" />
    <glyph glyph-name="wdieresis" unicode="&#x1e85;" 
d="M142 0l-130 478h34l83 -322c11 -44 22 -84 31 -126h4c11 42 22 82 33 126l83 322h42l83 -322c11 -44 22 -84 33 -126h4c11 42 22 82 32 126l82 322h32l-128 -478h-42l-82 312c-12 46 -21 90 -34 136h-4c-11 -46 -20 -92 -34 -138l-80 -310h-42zM214 602
c-20 0 -34 16 -34 36s14 36 34 36s34 -16 34 -36s-14 -36 -34 -36zM386 602c-20 0 -34 16 -34 36s14 36 34 36s34 -16 34 -36s-14 -36 -34 -36z" />
    <glyph glyph-name="uni1E8E" unicode="&#x1e8e;" 
d="M284 0v245l-228 415h32l124 -226c31 -51 57 -103 88 -156h4c32 53 61 105 90 157l120 225h30l-228 -415v-245h-32zM300 724c-18 0 -34 14 -34 36c0 20 16 34 34 34s34 -14 34 -34c0 -22 -16 -36 -34 -36z" />
    <glyph glyph-name="uni1E8F" unicode="&#x1e8f;" 
d="M77 -184c12 -4 30 -8 48 -8c77 0 126 58 157 136l18 44l-236 490h32l148 -314c19 -40 44 -92 68 -134h4c20 42 41 94 58 134l132 314h30l-230 -546c-26 -74 -86 -154 -184 -154c-18 0 -42 4 -55 10zM302 600c-22 0 -40 16 -40 42s18 42 40 42s40 -16 40 -42
s-18 -42 -40 -42z" />
    <glyph glyph-name="uni1E92" unicode="&#x1e92;" 
d="M72 0v19l416 615h-381v27h419v-19l-417 -614h424v-28h-461zM312 -204c-22 0 -40 16 -40 42s18 42 40 42s40 -16 40 -42s-18 -42 -40 -42z" />
    <glyph glyph-name="uni1E93" unicode="&#x1e93;" 
d="M72 0v16l392 434h-350v28h398v-16l-392 -434h404v-28h-452zM316 -204c-22 0 -40 16 -40 42s18 42 40 42s40 -16 40 -42s-18 -42 -40 -42z" />
    <glyph glyph-name="uni1E97" unicode="&#x1e97;" 
d="M232 176v274h-148v24l148 4l4 140h26v-140h262v-28h-262v-278c0 -96 26 -156 137 -156c53 0 94 10 133 26l10 -24c-43 -18 -101 -30 -145 -30c-127 0 -165 76 -165 188zM176 732c-20 0 -34 16 -34 36s14 36 34 36s34 -16 34 -36s-14 -36 -34 -36zM348 732
c-20 0 -34 16 -34 36s14 36 34 36s34 -16 34 -36s-14 -36 -34 -36z" />
    <glyph glyph-name="uni1E9E" unicode="&#x1e9e;" 
d="M90 0v424c0 142 79 248 227 248c93 0 147 -52 185 -132l-154 -176c163 -26 213 -106 213 -198c0 -102 -74 -178 -173 -178c-65 0 -127 28 -168 80l24 24c41 -50 85 -74 146 -74c87 0 136 62 136 146c0 80 -36 144 -215 174l-2 28l153 176c-25 56 -73 100 -147 100
c-116 0 -192 -70 -192 -230v-412h-33z" />
    <glyph glyph-name="uni1EA0" unicode="&#x1ea0;" 
d="M300 -120c22 0 40 -16 40 -42s-18 -42 -40 -42s-40 16 -40 42s18 42 40 42zM175 264h249l-46 132c-28 80 -52 148 -76 230h-4c-24 -82 -48 -150 -76 -230zM550 0h-34l-82 236h-269l-83 -236h-32l236 660h28z" />
    <glyph glyph-name="uni1EA1" unicode="&#x1ea1;" 
d="M96 117c0 107 110 157 374 181c0 84 -32 164 -148 164c-76 0 -149 -40 -186 -68l-16 24c34 26 118 72 204 72c127 0 176 -84 176 -180v-310h-26l-4 74h-2c-56 -45 -132 -86 -204 -86c-84 0 -168 38 -168 129zM128 118c0 -74 70 -102 138 -102c64 0 132 31 204 92v164
c-258 -24 -342 -72 -342 -154zM298 -204c-22 0 -40 16 -40 42s18 42 40 42s40 -16 40 -42s-18 -42 -40 -42z" />
    <glyph glyph-name="uni1EA2" unicode="&#x1ea2;" 
d="M278 704l-8 22c38 12 66 28 66 58c0 32 -32 48 -86 50l2 26c58 -2 114 -22 114 -72s-44 -70 -88 -84zM175 264h249l-46 132c-28 80 -52 148 -76 230h-4c-24 -82 -48 -150 -76 -230zM516 0l-82 236h-269l-83 -236h-32l236 660h28l236 -660h-34z" />
    <glyph glyph-name="uni1EA3" unicode="&#x1ea3;" 
d="M96 117c0 107 110 157 374 181c0 84 -32 164 -148 164c-76 0 -149 -40 -186 -68l-16 24c34 26 118 72 204 72c127 0 176 -84 176 -180v-310h-26l-4 74h-2c-56 -45 -132 -86 -204 -86c-84 0 -168 38 -168 129zM128 118c0 -74 70 -102 138 -102c64 0 132 31 204 92v164
c-258 -24 -342 -72 -342 -154zM296 550l-8 22c38 12 66 28 66 58c0 32 -32 48 -86 50l2 26c58 -2 114 -22 114 -72s-44 -70 -88 -84z" />
    <glyph glyph-name="uni1EA4" unicode="&#x1ea4;" 
d="M484 874l-84 -104h-26l72 104h38zM298 778l-72 -68h-30l90 98h28l90 -98h-30l-72 68h-4zM175 264h249l-46 132c-28 80 -52 148 -76 230h-4c-24 -82 -48 -150 -76 -230zM516 0l-82 236h-269l-83 -236h-32l236 660h28l236 -660h-34z" />
    <glyph glyph-name="uni1EA5" unicode="&#x1ea5;" 
d="M96 117c0 107 110 157 374 181c0 84 -32 164 -148 164c-76 0 -149 -40 -186 -68l-16 24c34 26 118 72 204 72c127 0 176 -84 176 -180v-310h-26l-4 74h-2c-56 -45 -132 -86 -204 -86c-84 0 -168 38 -168 129zM128 118c0 -74 70 -102 138 -102c64 0 132 31 204 92v164
c-258 -24 -342 -72 -342 -154zM220 572l84 112h28l84 -112h-28l-68 80h-4l-68 -80h-28zM392 636l78 110h38l-90 -110h-26z" />
    <glyph glyph-name="uni1EA6" unicode="&#x1ea6;" 
d="M440 770h-26l-84 104h38zM298 778l-72 -68h-30l90 98h28l90 -98h-30l-72 68h-4zM175 264h249l-46 132c-28 80 -52 148 -76 230h-4c-24 -82 -48 -150 -76 -230zM516 0l-82 236h-269l-83 -236h-32l236 660h28l236 -660h-34z" />
    <glyph glyph-name="uni1EA7" unicode="&#x1ea7;" 
d="M96 117c0 107 110 157 374 181c0 84 -32 164 -148 164c-76 0 -149 -40 -186 -68l-16 24c34 26 118 72 204 72c127 0 176 -84 176 -180v-310h-26l-4 74h-2c-56 -45 -132 -86 -204 -86c-84 0 -168 38 -168 129zM128 118c0 -74 70 -102 138 -102c64 0 132 31 204 92v164
c-258 -24 -342 -72 -342 -154zM220 572l84 112h28l84 -112h-28l-68 80h-4l-68 -80h-28zM402 746l78 -110h-26l-90 110h38z" />
    <glyph glyph-name="uni1EA8" unicode="&#x1ea8;" 
d="M397 758l-10 24c30 8 54 20 54 44c0 32 -26 42 -74 44l4 26c52 -2 100 -18 100 -66c0 -44 -40 -62 -74 -72zM298 778l-72 -68h-30l90 98h28l90 -98h-30l-72 68h-4zM175 264h249l-46 132c-28 80 -52 148 -76 230h-4c-24 -82 -48 -150 -76 -230zM516 0l-82 236h-269
l-83 -236h-32l236 660h28l236 -660h-34z" />
    <glyph glyph-name="uni1EA9" unicode="&#x1ea9;" 
d="M96 117c0 107 110 157 374 181c0 84 -32 164 -148 164c-76 0 -149 -40 -186 -68l-16 24c34 26 118 72 204 72c127 0 176 -84 176 -180v-310h-26l-4 74h-2c-56 -45 -132 -86 -204 -86c-84 0 -168 38 -168 129zM128 118c0 -74 70 -102 138 -102c64 0 132 31 204 92v164
c-258 -24 -342 -72 -342 -154zM220 572l84 112h28l84 -112h-28l-68 80h-4l-68 -80h-28zM416 628l-8 22c30 10 52 24 52 48c0 32 -24 46 -72 48l2 24c52 -2 100 -20 100 -68c0 -44 -40 -62 -74 -74z" />
    <glyph glyph-name="uni1EAA" unicode="&#x1eaa;" 
d="M394 916h24c-2 -32 -21 -72 -68 -72c-48 0 -66 46 -102 46c-22 0 -38 -16 -42 -46h-24c2 32 21 72 68 72c48 0 66 -46 102 -46c22 0 38 16 42 46zM286 808h28l90 -98h-30l-72 68h-4l-72 -68h-30zM175 264h249l-46 132c-28 80 -52 148 -76 230h-4
c-24 -82 -48 -150 -76 -230zM516 0l-82 236h-269l-83 -236h-32l236 660h28l236 -660h-34z" />
    <glyph glyph-name="uni1EAB" unicode="&#x1eab;" 
d="M96 117c0 107 110 157 374 181c0 84 -32 164 -148 164c-76 0 -149 -40 -186 -68l-16 24c34 26 118 72 204 72c127 0 176 -84 176 -180v-310h-26l-4 74h-2c-56 -45 -132 -86 -204 -86c-84 0 -168 38 -168 129zM128 118c0 -74 70 -102 138 -102c64 0 132 31 204 92v164
c-258 -24 -342 -72 -342 -154zM212 570l92 98h28l92 -98h-28l-76 70h-4l-76 -70h-28zM224 704h-24c2 32 21 72 68 72c48 0 66 -46 102 -46c22 0 38 16 42 46h24c-2 -32 -21 -72 -68 -72c-48 0 -66 46 -102 46c-22 0 -38 -16 -42 -46z" />
    <glyph glyph-name="uni1EAC" unicode="&#x1eac;" 
d="M298 784l-78 -74h-30l96 104h28l96 -104h-30l-78 74h-4zM300 -120c22 0 40 -16 40 -42s-18 -42 -40 -42s-40 16 -40 42s18 42 40 42zM175 264h249l-46 132c-28 80 -52 148 -76 230h-4c-24 -82 -48 -150 -76 -230zM550 0h-34l-82 236h-269l-83 -236h-32l236 660h28z" />
    <glyph glyph-name="uni1EAD" unicode="&#x1ead;" 
d="M96 117c0 107 110 157 374 181c0 84 -32 164 -148 164c-76 0 -149 -40 -186 -68l-16 24c34 26 118 72 204 72c127 0 176 -84 176 -180v-310h-26l-4 74h-2c-56 -45 -132 -86 -204 -86c-84 0 -168 38 -168 129zM128 118c0 -74 70 -102 138 -102c64 0 132 31 204 92v164
c-258 -24 -342 -72 -342 -154zM210 572l94 134h28l94 -134h-28l-78 102h-4l-78 -102h-28zM298 -204c-22 0 -40 16 -40 42s18 42 40 42s40 -16 40 -42s-18 -42 -40 -42z" />
    <glyph glyph-name="uni1EAE" unicode="&#x1eae;" 
d="M388 892l-94 -94h-28l82 94h40zM384 810h26c-6 -42 -40 -98 -110 -98s-104 56 -110 98h26c8 -36 32 -72 84 -72s76 36 84 72zM175 264h249l-46 132c-28 80 -52 148 -76 230h-4c-24 -82 -48 -150 -76 -230zM516 0l-82 236h-269l-83 -236h-32l236 660h28l236 -660h-34z" />
    <glyph glyph-name="uni1EAF" unicode="&#x1eaf;" 
d="M96 117c0 107 110 157 374 181c0 84 -32 164 -148 164c-76 0 -149 -40 -186 -68l-16 24c34 26 118 72 204 72c127 0 176 -84 176 -180v-310h-26l-4 74h-2c-56 -45 -132 -86 -204 -86c-84 0 -168 38 -168 129zM128 118c0 -74 70 -102 138 -102c64 0 132 31 204 92v164
c-258 -24 -342 -72 -342 -154zM288 664l76 108h38l-86 -108h-28zM318 576c-80 0 -110 68 -116 116h26c6 -44 34 -90 90 -90s84 46 90 90h26c-6 -48 -36 -116 -116 -116z" />
    <glyph glyph-name="uni1EB0" unicode="&#x1eb0;" 
d="M334 798h-28l-94 94h40zM384 810h26c-6 -42 -40 -98 -110 -98s-104 56 -110 98h26c8 -36 32 -72 84 -72s76 36 84 72zM175 264h249l-46 132c-28 80 -52 148 -76 230h-4c-24 -82 -48 -150 -76 -230zM516 0l-82 236h-269l-83 -236h-32l236 660h28l236 -660h-34z" />
    <glyph glyph-name="uni1EB1" unicode="&#x1eb1;" 
d="M96 117c0 107 110 157 374 181c0 84 -32 164 -148 164c-76 0 -149 -40 -186 -68l-16 24c34 26 118 72 204 72c127 0 176 -84 176 -180v-310h-26l-4 74h-2c-56 -45 -132 -86 -204 -86c-84 0 -168 38 -168 129zM128 118c0 -74 70 -102 138 -102c64 0 132 31 204 92v164
c-258 -24 -342 -72 -342 -154zM272 772l76 -108h-28l-86 108h38zM318 576c-80 0 -110 68 -116 116h26c6 -44 34 -90 90 -90s84 46 90 90h26c-6 -48 -36 -116 -116 -116z" />
    <glyph glyph-name="uni1EB2" unicode="&#x1eb2;" 
d="M285 796l-10 24c30 8 54 20 54 44c0 32 -26 42 -74 44l4 26c52 -2 100 -18 100 -66c0 -44 -40 -62 -74 -72zM384 810h26c-6 -42 -40 -98 -110 -98s-104 56 -110 98h26c8 -36 32 -72 84 -72s76 36 84 72zM175 264h249l-46 132c-28 80 -52 148 -76 230h-4
c-24 -82 -48 -150 -76 -230zM516 0l-82 236h-269l-83 -236h-32l236 660h28l236 -660h-34z" />
    <glyph glyph-name="uni1EB3" unicode="&#x1eb3;" 
d="M96 117c0 107 110 157 374 181c0 84 -32 164 -148 164c-76 0 -149 -40 -186 -68l-16 24c34 26 118 72 204 72c127 0 176 -84 176 -180v-310h-26l-4 74h-2c-56 -45 -132 -86 -204 -86c-84 0 -168 38 -168 129zM128 118c0 -74 70 -102 138 -102c64 0 132 31 204 92v164
c-258 -24 -342 -72 -342 -154zM318 576c-80 0 -110 68 -116 116h26c6 -44 34 -90 90 -90s84 46 90 90h26c-6 -48 -36 -116 -116 -116zM298 672l-8 22c30 10 52 24 52 48c0 32 -24 46 -72 48l2 24c52 -2 100 -20 100 -68c0 -44 -40 -62 -74 -74z" />
    <glyph glyph-name="uni1EB4" unicode="&#x1eb4;" 
d="M394 918h24c-2 -32 -21 -76 -68 -76c-48 0 -66 50 -102 50c-22 0 -38 -20 -42 -50h-24c2 32 21 76 68 76c48 0 66 -50 102 -50c22 0 38 20 42 50zM190 810h26c8 -36 32 -72 84 -72s76 36 84 72h26c-6 -42 -40 -98 -110 -98s-104 56 -110 98zM175 264h249l-46 132
c-28 80 -52 148 -76 230h-4c-24 -82 -48 -150 -76 -230zM516 0l-82 236h-269l-83 -236h-32l236 660h28l236 -660h-34z" />
    <glyph glyph-name="uni1EB5" unicode="&#x1eb5;" 
d="M96 117c0 107 110 157 374 181c0 84 -32 164 -148 164c-76 0 -149 -40 -186 -68l-16 24c34 26 118 72 204 72c127 0 176 -84 176 -180v-310h-26l-4 74h-2c-56 -45 -132 -86 -204 -86c-84 0 -168 38 -168 129zM128 118c0 -74 70 -102 138 -102c64 0 132 31 204 92v164
c-258 -24 -342 -72 -342 -154zM318 576c-80 0 -108 52 -114 96h26c6 -36 34 -70 88 -70s82 34 88 70h26c-6 -44 -34 -96 -114 -96zM200 704c2 32 21 72 68 72c48 0 66 -46 102 -46c22 0 38 16 42 46h24c-2 -32 -21 -72 -68 -72c-48 0 -66 46 -102 46c-22 0 -38 -16 -42 -46
h-24z" />
    <glyph glyph-name="uni1EB6" unicode="&#x1eb6;" 
d="M386 814h26c-6 -42 -38 -102 -112 -102s-106 60 -112 102h26c6 -36 32 -76 86 -76s80 40 86 76zM300 -120c22 0 40 -16 40 -42s-18 -42 -40 -42s-40 16 -40 42s18 42 40 42zM175 264h249l-46 132c-28 80 -52 148 -76 230h-4c-24 -82 -48 -150 -76 -230zM550 0h-34
l-82 236h-269l-83 -236h-32l236 660h28z" />
    <glyph glyph-name="uni1EB7" unicode="&#x1eb7;" 
d="M96 117c0 107 110 157 374 181c0 84 -32 164 -148 164c-76 0 -149 -40 -186 -68l-16 24c34 26 118 72 204 72c127 0 176 -84 176 -180v-310h-26l-4 74h-2c-56 -45 -132 -86 -204 -86c-84 0 -168 38 -168 129zM128 118c0 -74 70 -102 138 -102c64 0 132 31 204 92v164
c-258 -24 -342 -72 -342 -154zM318 576c-80 0 -110 68 -116 116h26c6 -44 34 -90 90 -90s84 46 90 90h26c-6 -48 -36 -116 -116 -116zM298 -204c-22 0 -40 16 -40 42s18 42 40 42s40 -16 40 -42s-18 -42 -40 -42z" />
    <glyph glyph-name="uni1EB8" unicode="&#x1eb8;" 
d="M132 0v660h384v-28h-352v-266h296v-28h-296v-310h362v-28h-394zM342 -204c-22 0 -40 16 -40 42s18 42 40 42s40 -16 40 -42s-18 -42 -40 -42z" />
    <glyph glyph-name="uni1EB9" unicode="&#x1eb9;" 
d="M80 238c0 156 117 252 238 252c128 0 212 -82 212 -220c0 -10 0 -20 -2 -32h-416c0 -128 88 -222 220 -222c66 0 119 22 164 54l14 -26c-42 -27 -93 -56 -180 -56c-136 0 -250 94 -250 250zM112 266h388c0 130 -74 196 -182 196c-101 0 -192 -76 -206 -196zM316 -204
c-22 0 -40 16 -40 42s18 42 40 42s40 -16 40 -42s-18 -42 -40 -42z" />
    <glyph glyph-name="uni1EBA" unicode="&#x1eba;" 
d="M132 0v660h384v-28h-352v-266h296v-28h-296v-310h362v-28h-394zM316 704l-8 22c38 12 66 28 66 58c0 32 -32 48 -86 50l2 26c58 -2 114 -22 114 -72s-44 -70 -88 -84z" />
    <glyph glyph-name="uni1EBB" unicode="&#x1ebb;" 
d="M80 238c0 156 117 252 238 252c128 0 212 -82 212 -220c0 -10 0 -20 -2 -32h-416c0 -128 88 -222 220 -222c66 0 119 22 164 54l14 -26c-42 -27 -93 -56 -180 -56c-136 0 -250 94 -250 250zM112 266h388c0 130 -74 196 -182 196c-101 0 -192 -76 -206 -196zM294 550
l-8 22c38 12 66 28 66 58c0 32 -32 48 -86 50l2 26c58 -2 114 -22 114 -72s-44 -70 -88 -84z" />
    <glyph glyph-name="uni1EBC" unicode="&#x1ebc;" 
d="M132 0v660h384v-28h-352v-266h296v-28h-296v-310h362v-28h-394zM396 718c-52 0 -76 58 -118 58c-22 0 -38 -24 -42 -58h-22c2 38 22 86 66 86c52 0 76 -58 118 -58c22 0 38 24 42 58h22c-2 -38 -22 -86 -66 -86z" />
    <glyph glyph-name="uni1EBD" unicode="&#x1ebd;" 
d="M80 238c0 156 117 252 238 252c128 0 212 -82 212 -220c0 -10 0 -20 -2 -32h-416c0 -128 88 -222 220 -222c66 0 119 22 164 54l14 -26c-42 -27 -93 -56 -180 -56c-136 0 -250 94 -250 250zM112 266h388c0 130 -74 196 -182 196c-101 0 -192 -76 -206 -196zM198 582
c2 36 17 82 64 82c48 0 75 -56 110 -56c22 0 34 22 38 56h24c-2 -35 -17 -82 -64 -82c-48 0 -73 56 -110 56c-22 0 -34 -21 -38 -56h-24z" />
    <glyph glyph-name="uni1EBE" unicode="&#x1ebe;" 
d="M132 0v660h384v-28h-352v-266h296v-28h-296v-310h362v-28h-394zM412 770l72 104h38l-84 -104h-26zM234 710l90 98h28l90 -98h-30l-72 68h-4l-72 -68h-30z" />
    <glyph glyph-name="uni1EBF" unicode="&#x1ebf;" 
d="M80 238c0 156 117 252 238 252c128 0 212 -82 212 -220c0 -10 0 -20 -2 -32h-416c0 -128 88 -222 220 -222c66 0 119 22 164 54l14 -26c-42 -27 -93 -56 -180 -56c-136 0 -250 94 -250 250zM112 266h388c0 130 -74 196 -182 196c-101 0 -192 -76 -206 -196zM218 572
l84 112h28l84 -112h-28l-68 80h-4l-68 -80h-28zM390 636l78 110h38l-90 -110h-26z" />
    <glyph glyph-name="uni1EC0" unicode="&#x1ec0;" 
d="M132 0v660h384v-28h-352v-266h296v-28h-296v-310h362v-28h-394zM406 874l72 -104h-26l-84 104h38zM234 710l90 98h28l90 -98h-30l-72 68h-4l-72 -68h-30z" />
    <glyph glyph-name="uni1EC1" unicode="&#x1ec1;" 
d="M80 238c0 156 117 252 238 252c128 0 212 -82 212 -220c0 -10 0 -20 -2 -32h-416c0 -128 88 -222 220 -222c66 0 119 22 164 54l14 -26c-42 -27 -93 -56 -180 -56c-136 0 -250 94 -250 250zM112 266h388c0 130 -74 196 -182 196c-101 0 -192 -76 -206 -196zM218 572
l84 112h28l84 -112h-28l-68 80h-4l-68 -80h-28zM400 746l78 -110h-26l-90 110h38z" />
    <glyph glyph-name="uni1EC2" unicode="&#x1ec2;" 
d="M132 0v660h384v-28h-352v-266h296v-28h-296v-310h362v-28h-394zM435 758l-10 24c30 8 54 20 54 44c0 32 -26 42 -74 44l4 26c52 -2 100 -18 100 -66c0 -44 -40 -62 -74 -72zM234 710l90 98h28l90 -98h-30l-72 68h-4l-72 -68h-30z" />
    <glyph glyph-name="uni1EC3" unicode="&#x1ec3;" 
d="M80 238c0 156 117 252 238 252c128 0 212 -82 212 -220c0 -10 0 -20 -2 -32h-416c0 -128 88 -222 220 -222c66 0 119 22 164 54l14 -26c-42 -27 -93 -56 -180 -56c-136 0 -250 94 -250 250zM112 266h388c0 130 -74 196 -182 196c-101 0 -192 -76 -206 -196zM218 572
l84 112h28l84 -112h-28l-68 80h-4l-68 -80h-28zM414 628l-8 22c30 10 52 24 52 48c0 32 -24 46 -72 48l2 24c52 -2 100 -20 100 -68c0 -44 -40 -62 -74 -74z" />
    <glyph glyph-name="uni1EC4" unicode="&#x1ec4;" 
d="M132 0v660h384v-28h-352v-266h296v-28h-296v-310h362v-28h-394zM234 710l90 98h28l90 -98h-30l-72 68h-4l-72 -68h-30zM244 844h-24c2 32 21 72 68 72c48 0 66 -46 102 -46c22 0 38 16 42 46h24c-2 -32 -21 -72 -68 -72c-48 0 -66 46 -102 46c-22 0 -38 -16 -42 -46z" />
    <glyph glyph-name="uni1EC5" unicode="&#x1ec5;" 
d="M80 238c0 156 117 252 238 252c128 0 212 -82 212 -220c0 -10 0 -20 -2 -32h-416c0 -128 88 -222 220 -222c66 0 119 22 164 54l14 -26c-42 -27 -93 -56 -180 -56c-136 0 -250 94 -250 250zM112 266h388c0 130 -74 196 -182 196c-101 0 -192 -76 -206 -196zM210 570
l92 98h28l92 -98h-28l-76 70h-4l-76 -70h-28zM222 704h-24c2 32 21 72 68 72c48 0 66 -46 102 -46c22 0 38 16 42 46h24c-2 -32 -21 -72 -68 -72c-48 0 -66 46 -102 46c-22 0 -38 -16 -42 -46z" />
    <glyph glyph-name="uni1EC6" unicode="&#x1ec6;" 
d="M132 0v660h384v-28h-352v-266h296v-28h-296v-310h362v-28h-394zM258 710h-30l96 104h28l96 -104h-30l-78 74h-4zM342 -204c-22 0 -40 16 -40 42s18 42 40 42s40 -16 40 -42s-18 -42 -40 -42z" />
    <glyph glyph-name="uni1EC7" unicode="&#x1ec7;" 
d="M80 238c0 156 117 252 238 252c128 0 212 -82 212 -220c0 -10 0 -20 -2 -32h-416c0 -128 88 -222 220 -222c66 0 119 22 164 54l14 -26c-42 -27 -93 -56 -180 -56c-136 0 -250 94 -250 250zM112 266h388c0 130 -74 196 -182 196c-101 0 -192 -76 -206 -196zM208 572
l94 134h28l94 -134h-28l-78 102h-4l-78 -102h-28zM316 -204c-22 0 -40 16 -40 42s18 42 40 42s40 -16 40 -42s-18 -42 -40 -42z" />
    <glyph glyph-name="uni1EC8" unicode="&#x1ec8;" 
d="M112 0v28h172v604h-172v28h376v-28h-172v-604h172v-28h-376zM278 704l-8 22c38 12 66 28 66 58c0 32 -32 48 -86 50l2 26c58 -2 114 -22 114 -72s-44 -70 -88 -84z" />
    <glyph glyph-name="uni1EC9" unicode="&#x1ec9;" 
d="M100 450v28h276v-478h-30v450h-246zM328 550l-8 22c38 12 66 28 66 58c0 32 -32 48 -86 50l2 26c58 -2 114 -22 114 -72s-44 -70 -88 -84z" />
    <glyph glyph-name="uni1ECA" unicode="&#x1eca;" 
d="M112 0v28h172v604h-172v28h376v-28h-172v-604h172v-28h-376zM301 -204c-22 0 -40 16 -40 42s18 42 40 42s40 -16 40 -42s-18 -42 -40 -42z" />
    <glyph glyph-name="uni1ECB" unicode="&#x1ecb;" 
d="M100 450v28h276v-478h-30v450h-246zM350 600c-22 0 -40 16 -40 42s18 42 40 42s40 -16 40 -42s-18 -42 -40 -42zM350 -204c-22 0 -40 16 -40 42s18 42 40 42s40 -16 40 -42s-18 -42 -40 -42z" />
    <glyph glyph-name="uni1ECC" unicode="&#x1ecc;" 
d="M300 -12c-142 0 -244 136 -244 344s102 340 244 340s244 -132 244 -340s-102 -344 -244 -344zM300 18c125 0 210 124 210 314s-85 310 -210 310s-210 -120 -210 -310s85 -314 210 -314zM300 -204c-22 0 -40 16 -40 42s18 42 40 42s40 -16 40 -42s-18 -42 -40 -42z" />
    <glyph glyph-name="uni1ECD" unicode="&#x1ecd;" 
d="M70 238c0 160 105 252 230 252s230 -92 230 -252c0 -158 -105 -250 -230 -250s-230 92 -230 250zM102 238c0 -132 84 -222 198 -222s198 90 198 222s-84 224 -198 224s-198 -92 -198 -224zM301 -204c-22 0 -40 16 -40 42s18 42 40 42s40 -16 40 -42s-18 -42 -40 -42z" />
    <glyph glyph-name="uni1ECE" unicode="&#x1ece;" 
d="M300 -12c-142 0 -244 136 -244 344s102 340 244 340s244 -132 244 -340s-102 -344 -244 -344zM300 18c125 0 210 124 210 314s-85 310 -210 310s-210 -120 -210 -310s85 -314 210 -314zM278 704l-8 22c38 12 66 28 66 58c0 32 -32 48 -86 50l2 26c58 -2 114 -22 114 -72
s-44 -70 -88 -84z" />
    <glyph glyph-name="uni1ECF" unicode="&#x1ecf;" 
d="M70 238c0 160 105 252 230 252s230 -92 230 -252c0 -158 -105 -250 -230 -250s-230 92 -230 250zM102 238c0 -132 84 -222 198 -222s198 90 198 222s-84 224 -198 224s-198 -92 -198 -224zM278 550l-8 22c38 12 66 28 66 58c0 32 -32 48 -86 50l2 26
c58 -2 114 -22 114 -72s-44 -70 -88 -84z" />
    <glyph glyph-name="uni1ED0" unicode="&#x1ed0;" 
d="M300 -12c-142 0 -244 136 -244 344s102 340 244 340s244 -132 244 -340s-102 -344 -244 -344zM300 18c125 0 210 124 210 314s-85 310 -210 310s-210 -120 -210 -310s85 -314 210 -314zM374 770l72 104h38l-84 -104h-26zM196 710l90 98h28l90 -98h-30l-72 68h-4l-72 -68
h-30z" />
    <glyph glyph-name="uni1ED1" unicode="&#x1ed1;" 
d="M70 238c0 160 105 252 230 252s230 -92 230 -252c0 -158 -105 -250 -230 -250s-230 92 -230 250zM102 238c0 -132 84 -222 198 -222s198 90 198 222s-84 224 -198 224s-198 -92 -198 -224zM202 572l84 112h28l84 -112h-28l-68 80h-4l-68 -80h-28zM374 636l78 110h38
l-90 -110h-26z" />
    <glyph glyph-name="uni1ED2" unicode="&#x1ed2;" 
d="M300 -12c-142 0 -244 136 -244 344s102 340 244 340s244 -132 244 -340s-102 -344 -244 -344zM300 18c125 0 210 124 210 314s-85 310 -210 310s-210 -120 -210 -310s85 -314 210 -314zM368 874l72 -104h-26l-84 104h38zM196 710l90 98h28l90 -98h-30l-72 68h-4l-72 -68
h-30z" />
    <glyph glyph-name="uni1ED3" unicode="&#x1ed3;" 
d="M70 238c0 160 105 252 230 252s230 -92 230 -252c0 -158 -105 -250 -230 -250s-230 92 -230 250zM102 238c0 -132 84 -222 198 -222s198 90 198 222s-84 224 -198 224s-198 -92 -198 -224zM202 572l84 112h28l84 -112h-28l-68 80h-4l-68 -80h-28zM384 746l78 -110h-26
l-90 110h38z" />
    <glyph glyph-name="uni1ED4" unicode="&#x1ed4;" 
d="M300 -12c-142 0 -244 136 -244 344s102 340 244 340s244 -132 244 -340s-102 -344 -244 -344zM300 18c125 0 210 124 210 314s-85 310 -210 310s-210 -120 -210 -310s85 -314 210 -314zM397 758l-10 24c30 8 54 20 54 44c0 32 -26 42 -74 44l4 26c52 -2 100 -18 100 -66
c0 -44 -40 -62 -74 -72zM196 710l90 98h28l90 -98h-30l-72 68h-4l-72 -68h-30z" />
    <glyph glyph-name="uni1ED5" unicode="&#x1ed5;" 
d="M70 238c0 160 105 252 230 252s230 -92 230 -252c0 -158 -105 -250 -230 -250s-230 92 -230 250zM102 238c0 -132 84 -222 198 -222s198 90 198 222s-84 224 -198 224s-198 -92 -198 -224zM202 572l84 112h28l84 -112h-28l-68 80h-4l-68 -80h-28zM398 628l-8 22
c30 10 52 24 52 48c0 32 -24 46 -72 48l2 24c52 -2 100 -20 100 -68c0 -44 -40 -62 -74 -74z" />
    <glyph glyph-name="uni1ED6" unicode="&#x1ed6;" 
d="M300 -12c-142 0 -244 136 -244 344s102 340 244 340s244 -132 244 -340s-102 -344 -244 -344zM300 18c125 0 210 124 210 314s-85 310 -210 310s-210 -120 -210 -310s85 -314 210 -314zM196 710l90 98h28l90 -98h-30l-72 68h-4l-72 -68h-30zM206 844h-24
c2 32 21 72 68 72c48 0 66 -46 102 -46c22 0 38 16 42 46h24c-2 -32 -21 -72 -68 -72c-48 0 -66 46 -102 46c-22 0 -38 -16 -42 -46z" />
    <glyph glyph-name="uni1ED7" unicode="&#x1ed7;" 
d="M70 238c0 160 105 252 230 252s230 -92 230 -252c0 -158 -105 -250 -230 -250s-230 92 -230 250zM102 238c0 -132 84 -222 198 -222s198 90 198 222s-84 224 -198 224s-198 -92 -198 -224zM194 570l92 98h28l92 -98h-28l-76 70h-4l-76 -70h-28zM206 704h-24
c2 32 21 72 68 72c48 0 66 -46 102 -46c22 0 38 16 42 46h24c-2 -32 -21 -72 -68 -72c-48 0 -66 46 -102 46c-22 0 -38 -16 -42 -46z" />
    <glyph glyph-name="uni1ED8" unicode="&#x1ed8;" 
d="M300 -12c-142 0 -244 136 -244 344s102 340 244 340s244 -132 244 -340s-102 -344 -244 -344zM300 18c125 0 210 124 210 314s-85 310 -210 310s-210 -120 -210 -310s85 -314 210 -314zM220 710h-30l96 104h28l96 -104h-30l-78 74h-4zM300 -204c-22 0 -40 16 -40 42
s18 42 40 42s40 -16 40 -42s-18 -42 -40 -42z" />
    <glyph glyph-name="uni1ED9" unicode="&#x1ed9;" 
d="M70 238c0 160 105 252 230 252s230 -92 230 -252c0 -158 -105 -250 -230 -250s-230 92 -230 250zM102 238c0 -132 84 -222 198 -222s198 90 198 222s-84 224 -198 224s-198 -92 -198 -224zM192 572l94 134h28l94 -134h-28l-78 102h-4l-78 -102h-28zM300 -204
c-22 0 -40 16 -40 42s18 42 40 42s40 -16 40 -42s-18 -42 -40 -42z" />
    <glyph glyph-name="uni1EDA" unicode="&#x1eda;" 
d="M406 814l-108 -104h-30l94 104h44zM300 18c125 0 210 124 210 314s-85 310 -210 310s-210 -120 -210 -310s85 -314 210 -314zM492 748l26 16c12 -18 18 -34 18 -52c0 -52 -38 -80 -96 -93c64 -57 104 -157 104 -287c0 -208 -102 -344 -244 -344s-244 136 -244 344
s102 340 244 340c41 0 79 -11 111 -32c66 9 95 31 95 70c0 12 -4 24 -14 38z" />
    <glyph glyph-name="uni1EDB" unicode="&#x1edb;" 
d="M380 706l-104 -134h-28l92 134h40zM300 16c114 0 198 90 198 222s-84 224 -198 224s-198 -92 -198 -224s84 -222 198 -222zM488 576l26 16c12 -18 18 -34 18 -52c0 -52 -39 -80 -96 -93c56 -42 94 -113 94 -209c0 -158 -105 -250 -230 -250s-230 92 -230 250
c0 160 105 252 230 252c36 0 71 -8 102 -23c73 9 100 33 100 71c0 12 -4 24 -14 38z" />
    <glyph glyph-name="uni1EDC" unicode="&#x1edc;" 
d="M332 710h-30l-108 104h44zM300 18c125 0 210 124 210 314s-85 310 -210 310s-210 -120 -210 -310s85 -314 210 -314zM492 748l26 16c12 -18 18 -34 18 -52c0 -52 -38 -80 -96 -93c64 -57 104 -157 104 -287c0 -208 -102 -344 -244 -344s-244 136 -244 344
s102 340 244 340c41 0 79 -11 111 -32c66 9 95 31 95 70c0 12 -4 24 -14 38z" />
    <glyph glyph-name="uni1EDD" unicode="&#x1edd;" 
d="M352 572h-28l-104 134h40zM300 16c114 0 198 90 198 222s-84 224 -198 224s-198 -92 -198 -224s84 -222 198 -222zM488 576l26 16c12 -18 18 -34 18 -52c0 -52 -39 -80 -96 -93c56 -42 94 -113 94 -209c0 -158 -105 -250 -230 -250s-230 92 -230 250
c0 160 105 252 230 252c36 0 71 -8 102 -23c73 9 100 33 100 71c0 12 -4 24 -14 38z" />
    <glyph glyph-name="uni1EDE" unicode="&#x1ede;" 
d="M278 704l-8 22c38 12 66 28 66 58c0 32 -32 48 -86 50l2 26c58 -2 114 -22 114 -72s-44 -70 -88 -84zM300 18c125 0 210 124 210 314s-85 310 -210 310s-210 -120 -210 -310s85 -314 210 -314zM492 748l26 16c12 -18 18 -34 18 -52c0 -52 -38 -80 -96 -93
c64 -57 104 -157 104 -287c0 -208 -102 -344 -244 -344s-244 136 -244 344s102 340 244 340c41 0 79 -11 111 -32c66 9 95 31 95 70c0 12 -4 24 -14 38z" />
    <glyph glyph-name="uni1EDF" unicode="&#x1edf;" 
d="M278 550l-8 22c38 12 66 28 66 58c0 32 -32 48 -86 50l2 26c58 -2 114 -22 114 -72s-44 -70 -88 -84zM300 16c114 0 198 90 198 222s-84 224 -198 224s-198 -92 -198 -224s84 -222 198 -222zM488 576l26 16c12 -18 18 -34 18 -52c0 -52 -39 -80 -96 -93
c56 -42 94 -113 94 -209c0 -158 -105 -250 -230 -250s-230 92 -230 250c0 160 105 252 230 252c36 0 71 -8 102 -23c73 9 100 33 100 71c0 12 -4 24 -14 38z" />
    <glyph glyph-name="uni1EE0" unicode="&#x1ee0;" 
d="M402 804h22c-2 -38 -22 -86 -66 -86c-52 0 -76 58 -118 58c-22 0 -38 -24 -42 -58h-22c2 38 22 86 66 86c52 0 76 -58 118 -58c22 0 38 24 42 58zM300 18c125 0 210 124 210 314s-85 310 -210 310s-210 -120 -210 -310s85 -314 210 -314zM492 748l26 16
c12 -18 18 -34 18 -52c0 -52 -38 -80 -96 -93c64 -57 104 -157 104 -287c0 -208 -102 -344 -244 -344s-244 136 -244 344s102 340 244 340c41 0 79 -11 111 -32c66 9 95 31 95 70c0 12 -4 24 -14 38z" />
    <glyph glyph-name="uni1EE1" unicode="&#x1ee1;" 
d="M394 664h24c-2 -35 -17 -82 -64 -82c-48 0 -73 56 -110 56c-22 0 -34 -21 -38 -56h-24c2 36 17 82 64 82c48 0 75 -56 110 -56c22 0 34 22 38 56zM300 16c114 0 198 90 198 222s-84 224 -198 224s-198 -92 -198 -224s84 -222 198 -222zM488 576l26 16
c12 -18 18 -34 18 -52c0 -52 -39 -80 -96 -93c56 -42 94 -113 94 -209c0 -158 -105 -250 -230 -250s-230 92 -230 250c0 160 105 252 230 252c36 0 71 -8 102 -23c73 9 100 33 100 71c0 12 -4 24 -14 38z" />
    <glyph glyph-name="uni1EE2" unicode="&#x1ee2;" 
d="M300 -120c22 0 40 -16 40 -42s-18 -42 -40 -42s-40 16 -40 42s18 42 40 42zM300 18c125 0 210 124 210 314s-85 310 -210 310s-210 -120 -210 -310s85 -314 210 -314zM492 748l26 16c12 -18 18 -34 18 -52c0 -52 -38 -80 -96 -93c64 -57 104 -157 104 -287
c0 -208 -102 -344 -244 -344s-244 136 -244 344s102 340 244 340c41 0 79 -11 111 -32c66 9 95 31 95 70c0 12 -4 24 -14 38z" />
    <glyph glyph-name="uni1EE3" unicode="&#x1ee3;" 
d="M301 -120c22 0 40 -16 40 -42s-18 -42 -40 -42s-40 16 -40 42s18 42 40 42zM300 16c114 0 198 90 198 222s-84 224 -198 224s-198 -92 -198 -224s84 -222 198 -222zM488 576l26 16c12 -18 18 -34 18 -52c0 -52 -39 -80 -96 -93c56 -42 94 -113 94 -209
c0 -158 -105 -250 -230 -250s-230 92 -230 250c0 160 105 252 230 252c36 0 71 -8 102 -23c73 9 100 33 100 71c0 12 -4 24 -14 38z" />
    <glyph glyph-name="uni1EE4" unicode="&#x1ee4;" 
d="M92 246v414h32v-406c0 -182 84 -236 176 -236c94 0 178 54 178 236v406h30v-414c0 -204 -104 -258 -208 -258s-208 54 -208 258zM300 -204c-22 0 -40 16 -40 42s18 42 40 42s40 -16 40 -42s-18 -42 -40 -42z" />
    <glyph glyph-name="uni1EE5" unicode="&#x1ee5;" 
d="M490 478v-478h-26l-4 96h-4c-53 -62 -114 -108 -192 -108c-117 0 -174 61 -174 192v298h30v-294c0 -113 43 -168 144 -168c72 0 126 37 196 116v346h30zM322 -204c-22 0 -40 16 -40 42s18 42 40 42s40 -16 40 -42s-18 -42 -40 -42z" />
    <glyph glyph-name="uni1EE6" unicode="&#x1ee6;" 
d="M92 246v414h32v-406c0 -182 84 -236 176 -236c94 0 178 54 178 236v406h30v-414c0 -204 -104 -258 -208 -258s-208 54 -208 258zM278 704l-8 22c38 12 66 28 66 58c0 32 -32 48 -86 50l2 26c58 -2 114 -22 114 -72s-44 -70 -88 -84z" />
    <glyph glyph-name="uni1EE7" unicode="&#x1ee7;" 
d="M490 478v-478h-26l-4 96h-4c-53 -62 -114 -108 -192 -108c-117 0 -174 61 -174 192v298h30v-294c0 -113 43 -168 144 -168c72 0 126 37 196 116v346h30zM272 550l-8 22c38 12 66 28 66 58c0 32 -32 48 -86 50l2 26c58 -2 114 -22 114 -72s-44 -70 -88 -84z" />
    <glyph glyph-name="uni1EE8" unicode="&#x1ee8;" 
d="M406 814l-108 -104h-30l94 104h44zM562 768l26 16c12 -18 18 -34 18 -52c0 -60 -48 -82 -98 -94v-392c0 -204 -104 -258 -208 -258s-208 54 -208 258v414h32v-406c0 -182 84 -236 176 -236c94 0 178 54 178 236v406h6c64 10 92 30 92 70c0 12 -4 24 -14 38z" />
    <glyph glyph-name="uni1EE9" unicode="&#x1ee9;" 
d="M374 706l-104 -134h-28l92 134h40zM534 586l26 16c12 -18 18 -34 18 -52c0 -60 -50 -82 -88 -92v-458h-26l-4 96h-4c-53 -62 -114 -108 -192 -108c-117 0 -174 61 -174 192v298h30v-294c0 -113 43 -168 144 -168c72 0 126 37 196 116v346h2c54 8 86 30 86 70
c0 12 -4 24 -14 38z" />
    <glyph glyph-name="uni1EEA" unicode="&#x1eea;" 
d="M332 710h-30l-108 104h44zM562 768l26 16c12 -18 18 -34 18 -52c0 -60 -48 -82 -98 -94v-392c0 -204 -104 -258 -208 -258s-208 54 -208 258v414h32v-406c0 -182 84 -236 176 -236c94 0 178 54 178 236v406h6c64 10 92 30 92 70c0 12 -4 24 -14 38z" />
    <glyph glyph-name="uni1EEB" unicode="&#x1eeb;" 
d="M346 572h-28l-104 134h40zM534 586l26 16c12 -18 18 -34 18 -52c0 -60 -50 -82 -88 -92v-458h-26l-4 96h-4c-53 -62 -114 -108 -192 -108c-117 0 -174 61 -174 192v298h30v-294c0 -113 43 -168 144 -168c72 0 126 37 196 116v346h2c54 8 86 30 86 70c0 12 -4 24 -14 38z
" />
    <glyph glyph-name="uni1EEC" unicode="&#x1eec;" 
d="M278 704l-8 22c38 12 66 28 66 58c0 32 -32 48 -86 50l2 26c58 -2 114 -22 114 -72s-44 -70 -88 -84zM562 768l26 16c12 -18 18 -34 18 -52c0 -60 -48 -82 -98 -94v-392c0 -204 -104 -258 -208 -258s-208 54 -208 258v414h32v-406c0 -182 84 -236 176 -236
c94 0 178 54 178 236v406h6c64 10 92 30 92 70c0 12 -4 24 -14 38z" />
    <glyph glyph-name="uni1EED" unicode="&#x1eed;" 
d="M272 550l-8 22c38 12 66 28 66 58c0 32 -32 48 -86 50l2 26c58 -2 114 -22 114 -72s-44 -70 -88 -84zM534 586l26 16c12 -18 18 -34 18 -52c0 -60 -50 -82 -88 -92v-458h-26l-4 96h-4c-53 -62 -114 -108 -192 -108c-117 0 -174 61 -174 192v298h30v-294
c0 -113 43 -168 144 -168c72 0 126 37 196 116v346h2c54 8 86 30 86 70c0 12 -4 24 -14 38z" />
    <glyph glyph-name="uni1EEE" unicode="&#x1eee;" 
d="M402 804h22c-2 -38 -22 -86 -66 -86c-52 0 -76 58 -118 58c-22 0 -38 -24 -42 -58h-22c2 38 22 86 66 86c52 0 76 -58 118 -58c22 0 38 24 42 58zM562 768l26 16c12 -18 18 -34 18 -52c0 -60 -48 -82 -98 -94v-392c0 -204 -104 -258 -208 -258s-208 54 -208 258v414h32
v-406c0 -182 84 -236 176 -236c94 0 178 54 178 236v406h6c64 10 92 30 92 70c0 12 -4 24 -14 38z" />
    <glyph glyph-name="uni1EEF" unicode="&#x1eef;" 
d="M388 664h24c-2 -35 -17 -82 -64 -82c-48 0 -73 56 -110 56c-22 0 -34 -21 -38 -56h-24c2 36 17 82 64 82c48 0 75 -56 110 -56c22 0 34 22 38 56zM534 586l26 16c12 -18 18 -34 18 -52c0 -60 -50 -82 -88 -92v-458h-26l-4 96h-4c-53 -62 -114 -108 -192 -108
c-117 0 -174 61 -174 192v298h30v-294c0 -113 43 -168 144 -168c72 0 126 37 196 116v346h2c54 8 86 30 86 70c0 12 -4 24 -14 38z" />
    <glyph glyph-name="uni1EF0" unicode="&#x1ef0;" 
d="M300 -120c22 0 40 -16 40 -42s-18 -42 -40 -42s-40 16 -40 42s18 42 40 42zM562 768l26 16c12 -18 18 -34 18 -52c0 -60 -48 -82 -98 -94v-392c0 -204 -104 -258 -208 -258s-208 54 -208 258v414h32v-406c0 -182 84 -236 176 -236c94 0 178 54 178 236v406h6
c64 10 92 30 92 70c0 12 -4 24 -14 38z" />
    <glyph glyph-name="uni1EF1" unicode="&#x1ef1;" 
d="M308 -120c22 0 40 -16 40 -42s-18 -42 -40 -42s-40 16 -40 42s18 42 40 42zM534 586l26 16c12 -18 18 -34 18 -52c0 -60 -50 -82 -88 -92v-458h-26l-4 96h-4c-53 -62 -114 -108 -192 -108c-117 0 -174 61 -174 192v298h30v-294c0 -113 43 -168 144 -168
c72 0 126 37 196 116v346h2c54 8 86 30 86 70c0 12 -4 24 -14 38z" />
    <glyph glyph-name="Ygrave" unicode="&#x1ef2;" 
d="M284 0v245l-228 415h32l124 -226c31 -51 57 -103 88 -156h4c32 53 61 105 90 157l120 225h30l-228 -415v-245h-32zM302 710l-108 104h44l94 -104h-30z" />
    <glyph glyph-name="ygrave" unicode="&#x1ef3;" 
d="M77 -184c12 -4 30 -8 48 -8c77 0 126 58 157 136l18 44l-236 490h32l148 -314c19 -40 44 -92 68 -134h4c20 42 41 94 58 134l132 314h30l-230 -546c-26 -74 -86 -154 -184 -154c-18 0 -42 4 -55 10zM326 572l-104 134h40l92 -134h-28z" />
    <glyph glyph-name="uni1EF4" unicode="&#x1ef4;" 
d="M284 0v245l-228 415h32l124 -226c31 -51 57 -103 88 -156h4c32 53 61 105 90 157l120 225h30l-228 -415v-245h-32zM300 -204c-22 0 -40 16 -40 42s18 42 40 42s40 -16 40 -42s-18 -42 -40 -42z" />
    <glyph glyph-name="uni1EF5" unicode="&#x1ef5;" 
d="M77 -184c12 -4 30 -8 48 -8c77 0 126 58 157 136l18 44l-236 490h32l148 -314c19 -40 44 -92 68 -134h4c20 42 41 94 58 134l132 314h30l-230 -546c-26 -74 -86 -154 -184 -154c-18 0 -42 4 -55 10zM436 -204c-22 0 -40 16 -40 42s18 42 40 42s40 -16 40 -42
s-18 -42 -40 -42z" />
    <glyph glyph-name="uni1EF6" unicode="&#x1ef6;" 
d="M284 0v245l-228 415h32l124 -226c31 -51 57 -103 88 -156h4c32 53 61 105 90 157l120 225h30l-228 -415v-245h-32zM278 704l-8 22c38 12 66 28 66 58c0 32 -32 48 -86 50l2 26c58 -2 114 -22 114 -72s-44 -70 -88 -84z" />
    <glyph glyph-name="uni1EF7" unicode="&#x1ef7;" 
d="M77 -184c12 -4 30 -8 48 -8c77 0 126 58 157 136l18 44l-236 490h32l148 -314c19 -40 44 -92 68 -134h4c20 42 41 94 58 134l132 314h30l-230 -546c-26 -74 -86 -154 -184 -154c-18 0 -42 4 -55 10zM290 550l-8 22c38 12 66 28 66 58c0 32 -32 48 -86 50l2 26
c58 -2 114 -22 114 -72s-44 -70 -88 -84z" />
    <glyph glyph-name="uni1EF8" unicode="&#x1ef8;" 
d="M284 0v245l-228 415h32l124 -226c31 -51 57 -103 88 -156h4c32 53 61 105 90 157l120 225h30l-228 -415v-245h-32zM358 718c-52 0 -76 58 -118 58c-22 0 -38 -24 -42 -58h-22c2 38 22 86 66 86c52 0 76 -58 118 -58c22 0 38 24 42 58h22c-2 -38 -22 -86 -66 -86z" />
    <glyph glyph-name="uni1EF9" unicode="&#x1ef9;" 
d="M77 -184c12 -4 30 -8 48 -8c77 0 126 58 157 136l18 44l-236 490h32l148 -314c19 -40 44 -92 68 -134h4c20 42 41 94 58 134l132 314h30l-230 -546c-26 -74 -86 -154 -184 -154c-18 0 -42 4 -55 10zM184 582c2 36 17 82 64 82c48 0 75 -56 110 -56c22 0 34 22 38 56h24
c-2 -35 -17 -82 -64 -82c-48 0 -73 56 -110 56c-22 0 -34 -21 -38 -56h-24z" />
    <glyph glyph-name="uni2007" unicode="&#x2007;" 
 />
    <glyph glyph-name="figuredash" unicode="&#x2012;" 
d="M80 230v40h440v-40h-440z" />
    <glyph glyph-name="endash" unicode="&#x2013;" 
d="M80 230v40h440v-40h-440z" />
    <glyph glyph-name="emdash" unicode="&#x2014;" 
d="M20 230v40h560v-40h-560z" />
    <glyph glyph-name="uni2015" unicode="&#x2015;" 
d="M20 230v40h560v-40h-560z" />
    <glyph glyph-name="quoteleft" unicode="&#x2018;" 
d="M348 700l18 -24c-57 -40 -94 -101 -98 -176c10 7 21 12 32 12c32 0 54 -24 54 -56c0 -33 -23 -58 -56 -58c-35 0 -68 33 -68 89c0 93 50 173 118 213z" />
    <glyph glyph-name="quoteright" unicode="&#x2019;" 
d="M248 398l-18 24c57 40 94 101 98 176c-10 -7 -21 -12 -32 -12c-32 0 -54 24 -54 56c0 33 23 58 56 58c35 0 68 -33 68 -89c0 -93 -50 -173 -118 -213z" />
    <glyph glyph-name="quotesinglbase" unicode="&#x201a;" 
d="M248 -222l-18 24c57 40 94 101 98 176c-10 -7 -21 -12 -32 -12c-32 0 -54 24 -54 56c0 33 23 58 56 58c35 0 68 -33 68 -89c0 -93 -50 -173 -118 -213z" />
    <glyph glyph-name="quotedblleft" unicode="&#x201c;" 
d="M248 700l18 -24c-57 -40 -94 -101 -98 -176c10 7 21 12 32 12c32 0 54 -24 54 -56c0 -33 -23 -58 -56 -58c-35 0 -68 33 -68 89c0 93 50 173 118 213zM448 700l18 -24c-57 -40 -94 -101 -98 -176c10 7 21 12 32 12c32 0 54 -24 54 -56c0 -33 -23 -58 -56 -58
c-35 0 -68 33 -68 89c0 93 50 173 118 213z" />
    <glyph glyph-name="quotedblright" unicode="&#x201d;" 
d="M148 398l-18 24c57 40 94 101 98 176c-10 -7 -21 -12 -32 -12c-32 0 -54 24 -54 56c0 33 23 58 56 58c35 0 68 -33 68 -89c0 -93 -50 -173 -118 -213zM348 398l-18 24c57 40 94 101 98 176c-10 -7 -21 -12 -32 -12c-32 0 -54 24 -54 56c0 33 23 58 56 58
c35 0 68 -33 68 -89c0 -93 -50 -173 -118 -213z" />
    <glyph glyph-name="quotedblbase" unicode="&#x201e;" 
d="M148 -222l-18 24c57 40 94 101 98 176c-10 -7 -21 -12 -32 -12c-32 0 -54 24 -54 56c0 33 23 58 56 58c35 0 68 -33 68 -89c0 -93 -50 -173 -118 -213zM348 -222l-18 24c57 40 94 101 98 176c-10 -7 -21 -12 -32 -12c-32 0 -54 24 -54 56c0 33 23 58 56 58
c35 0 68 -33 68 -89c0 -93 -50 -173 -118 -213z" />
    <glyph glyph-name="dagger" unicode="&#x2020;" 
d="M284 -80l2 614l-128 -2v32l128 -2l-2 150h32l-2 -150l128 2v-32l-128 2l2 -614h-32z" />
    <glyph glyph-name="daggerdbl" unicode="&#x2021;" 
d="M158 68v32l128 -2l-2 218l2 218l-128 -2v32l128 -2l-2 150h32l-2 -150l128 2v-32l-128 2l2 -218l-2 -218l128 2v-32l-128 2l2 -150h-32l2 150z" />
    <glyph glyph-name="bullet" unicode="&#x2022;" 
d="M300 126c-68 0 -136 52 -136 136s68 136 136 136s136 -52 136 -136s-68 -136 -136 -136z" />
    <glyph glyph-name="ellipsis" unicode="&#x2026;" 
d="M58 46c0 38 27 59 52 59s52 -21 52 -59c0 -36 -27 -58 -52 -58s-52 22 -52 58zM248 46c0 38 27 59 52 59s52 -21 52 -59c0 -36 -27 -58 -52 -58s-52 22 -52 58zM438 46c0 38 27 59 52 59s52 -21 52 -59c0 -36 -27 -58 -52 -58s-52 22 -52 58z" />
    <glyph glyph-name="perthousand" unicode="&#x2030;" 
d="M170 390c-66 0 -108 46 -108 132c0 82 42 130 108 130s108 -48 108 -130c0 -86 -42 -132 -108 -132zM170 416c46 0 78 36 78 106c0 66 -32 104 -78 104s-78 -38 -78 -104c0 -70 32 -106 78 -106zM556 508l14 -30l-446 -194l-9 19zM170 -12c-66 0 -108 46 -108 132
c0 82 42 130 108 130s108 -48 108 -130c0 -86 -42 -132 -108 -132zM170 14c46 0 78 36 78 106c0 66 -32 104 -78 104s-78 -38 -78 -104c0 -70 32 -106 78 -106zM430 -12c-66 0 -108 46 -108 132c0 82 42 130 108 130s108 -48 108 -130c0 -86 -42 -132 -108 -132zM430 14
c46 0 78 36 78 106c0 66 -32 104 -78 104s-78 -38 -78 -104c0 -70 32 -106 78 -106z" />
    <glyph glyph-name="uni2032" unicode="&#x2032;" 
d="M278 498l24 196h28l-8 -64l-24 -132h-20z" />
    <glyph glyph-name="uni2033" unicode="&#x2033;" 
d="M214 498l24 196h28l-8 -64l-24 -132h-20zM342 498l24 196h28l-8 -64l-24 -132h-20z" />
    <glyph glyph-name="guilsinglleft" unicode="&#x2039;" 
d="M353 74l-138 164v28l138 164l20 -18l-126 -160l126 -162z" />
    <glyph glyph-name="guilsinglright" unicode="&#x203a;" 
d="M227 90l126 162l-126 160l20 18l138 -164v-28l-138 -164z" />
    <glyph glyph-name="fraction" unicode="&#x2044;" 
d="M64 36l-26 22l180 200l18 -16zM536 624l26 -22l-180 -200l-18 16z" />
    <glyph glyph-name="zero.sups" unicode="&#x2070;" 
d="M300 428c-78 0 -132 59 -132 164c0 104 54 160 132 160s132 -56 132 -160c0 -105 -54 -164 -132 -164zM300 454c58 0 102 51 102 138c0 89 -44 134 -102 134s-102 -45 -102 -134c0 -87 44 -138 102 -138z" />
    <glyph glyph-name="i.sups" unicode="&#x2071;" 
d="M180 550v27h185v-317h-31v290h-154zM349 653c-19 0 -33 12 -33 32s14 33 33 33c18 0 32 -13 32 -33s-14 -32 -32 -32z" />
    <glyph glyph-name="four.sups" unicode="&#x2074;" 
d="M220 547h124v83l4 68h-4l-53 -66zM421 547v-24h-49v-83h-28v83h-164v15l172 202h20v-193h49z" />
    <glyph glyph-name="five.sups" unicode="&#x2075;" 
d="M178 492l24 18c24 -32 51 -56 100 -56c50 0 84 30 84 76c0 48 -32 76 -86 76c-30 0 -52 -12 -74 -30l-20 14l18 150h170v-28h-144l-14 -98c20 12 42 18 66 18c66 0 114 -36 114 -102c0 -64 -50 -102 -116 -102c-63 0 -96 31 -122 64z" />
    <glyph glyph-name="six.sups" unicode="&#x2076;" 
d="M314 454c48 0 76 30 76 72c0 40 -21 70 -76 70c-34 0 -63 -11 -99 -46c7 -63 50 -96 99 -96zM412 726l-14 -24c-18 13 -40 24 -68 24c-58 0 -112 -39 -116 -144c30 24 64 40 102 40c73 0 104 -44 104 -96c0 -54 -44 -98 -108 -98s-126 50 -126 140c0 134 68 184 146 184
c36 0 58 -12 80 -26z" />
    <glyph glyph-name="seven.sups" unicode="&#x2077;" 
d="M268 440c7 114 36 188 108 274h-189v26h226v-20c-91 -100 -111 -174 -117 -280h-28z" />
    <glyph glyph-name="eight.sups" unicode="&#x2078;" 
d="M212 514c0 -33 39 -60 88 -60c44 0 88 24 88 59c0 49 -57 60 -112 77c-43 -19 -64 -46 -64 -76zM326 604c36 21 50 43 50 69c0 30 -26 53 -76 53c-46 0 -74 -23 -74 -53c0 -37 48 -55 100 -69zM182 514c0 41 32 67 68 84v4c-29 17 -54 38 -54 71c0 45 48 79 104 79
c62 0 106 -35 106 -79c0 -40 -31 -63 -53 -77v-4c35 -14 65 -37 65 -78c0 -50 -53 -86 -118 -86c-72 0 -118 41 -118 86z" />
    <glyph glyph-name="nine.sups" unicode="&#x2079;" 
d="M210 654c0 -40 21 -70 76 -70c34 0 62 11 97 44c-6 64 -47 98 -97 98c-48 0 -76 -30 -76 -72zM188 454l14 24c18 -13 40 -24 68 -24c58 0 110 39 114 143c-30 -24 -63 -39 -100 -39c-73 0 -104 44 -104 96c0 54 44 98 108 98s126 -50 126 -140c0 -134 -68 -184 -146 -184
c-36 0 -58 12 -80 26z" />
    <glyph glyph-name="parenleft.sups" unicode="&#x207d;" 
d="M254 594c0 95 38 162 103 220l19 -20c-64 -58 -87 -119 -87 -200s23 -142 87 -200l-19 -20c-65 58 -103 125 -103 220z" />
    <glyph glyph-name="parenright.sups" unicode="&#x207e;" 
d="M346 594c0 -95 -38 -162 -103 -220l-19 20c64 58 87 119 87 200s-23 142 -87 200l19 20c65 -58 103 -125 103 -220z" />
    <glyph glyph-name="n.sups" unicode="&#x207f;" 
d="M190 260v317h27l3 -54h3c35 35 71 62 120 62c74 0 110 -40 110 -122v-203h-32v199c0 66 -25 98 -84 98c-42 0 -72 -21 -115 -64v-233h-32z" />
    <glyph glyph-name="zero.subs" unicode="&#x2080;" 
d="M300 -182c-78 0 -132 59 -132 164c0 104 54 160 132 160s132 -56 132 -160c0 -105 -54 -164 -132 -164zM300 -156c58 0 102 51 102 138c0 89 -44 134 -102 134s-102 -45 -102 -134c0 -87 44 -138 102 -138z" />
    <glyph glyph-name="one.subs" unicode="&#x2081;" 
d="M300 -170v245h-82v24c38 7 62 17 86 31h24v-300h-28z" />
    <glyph glyph-name="two.subs" unicode="&#x2082;" 
d="M193 -170v20c121 100 173 141 173 194c0 45 -27 72 -74 72c-34 0 -64 -20 -84 -48l-22 16c24 32 63 58 106 58c66 0 104 -35 104 -99c0 -61 -66 -111 -153 -187h171v-26h-221z" />
    <glyph glyph-name="three.subs" unicode="&#x2083;" 
d="M178 -118l24 18c20 -32 56 -56 98 -56c46 0 78 18 78 62c0 43 -38 64 -114 64v24c69 0 98 30 98 66c0 34 -20 56 -68 56c-25 0 -60 -14 -80 -40l-20 18c22 29 62 48 102 48c58 0 96 -28 96 -80c0 -40 -20 -64 -58 -78c40 -8 74 -34 74 -78c0 -60 -46 -88 -110 -88
c-50 0 -98 31 -120 64z" />
    <glyph glyph-name="four.subs" unicode="&#x2084;" 
d="M220 -63h124v83l4 68h-4l-53 -66zM421 -63v-24h-49v-83h-28v83h-164v15l172 202h20v-193h49z" />
    <glyph glyph-name="five.subs" unicode="&#x2085;" 
d="M178 -118l24 18c24 -32 51 -56 100 -56c50 0 84 30 84 76c0 48 -32 76 -86 76c-30 0 -52 -12 -74 -30l-20 14l18 150h170v-28h-144l-14 -98c20 12 42 18 66 18c66 0 114 -36 114 -102c0 -64 -50 -102 -116 -102c-63 0 -96 31 -122 64z" />
    <glyph glyph-name="six.subs" unicode="&#x2086;" 
d="M314 -156c48 0 76 30 76 72c0 40 -21 70 -76 70c-34 0 -63 -11 -99 -46c7 -63 50 -96 99 -96zM412 116l-14 -24c-18 13 -40 24 -68 24c-58 0 -112 -39 -116 -144c30 24 64 40 102 40c73 0 104 -44 104 -96c0 -54 -44 -98 -108 -98s-126 50 -126 140c0 134 68 184 146 184
c36 0 58 -12 80 -26z" />
    <glyph glyph-name="seven.subs" unicode="&#x2087;" 
d="M268 -170c7 114 36 188 108 274h-189v26h226v-20c-91 -100 -111 -174 -117 -280h-28z" />
    <glyph glyph-name="eight.subs" unicode="&#x2088;" 
d="M212 -96c0 -33 39 -60 88 -60c44 0 88 24 88 59c0 49 -57 60 -112 77c-43 -19 -64 -46 -64 -76zM326 -6c36 21 50 43 50 69c0 30 -26 53 -76 53c-46 0 -74 -23 -74 -53c0 -37 48 -55 100 -69zM182 -96c0 41 32 67 68 84v4c-29 17 -54 38 -54 71c0 45 48 79 104 79
c62 0 106 -35 106 -79c0 -40 -31 -63 -53 -77v-4c35 -14 65 -37 65 -78c0 -50 -53 -86 -118 -86c-72 0 -118 41 -118 86z" />
    <glyph glyph-name="nine.subs" unicode="&#x2089;" 
d="M210 44c0 -40 21 -70 76 -70c34 0 62 11 97 44c-6 64 -47 98 -97 98c-48 0 -76 -30 -76 -72zM188 -156l14 24c18 -13 40 -24 68 -24c58 0 110 39 114 143c-30 -24 -63 -39 -100 -39c-73 0 -104 44 -104 96c0 54 44 98 108 98s126 -50 126 -140c0 -134 -68 -184 -146 -184
c-36 0 -58 12 -80 26z" />
    <glyph glyph-name="parenleft.subs" unicode="&#x208d;" 
d="M254 -16c0 95 38 162 103 220l19 -20c-64 -58 -87 -119 -87 -200s23 -142 87 -200l-19 -20c-65 58 -103 125 -103 220z" />
    <glyph glyph-name="parenright.subs" unicode="&#x208e;" 
d="M346 -16c0 -95 -38 -162 -103 -220l-19 20c64 58 87 119 87 200s-23 142 -87 200l19 20c65 -58 103 -125 103 -220z" />
    <glyph glyph-name="uni0259.sups" unicode="&#x2094;" 
d="M160 405c0 8 0 16 2 24h246c-1 75 -42 129 -118 129c-39 0 -69 -12 -97 -30l-13 24c28 18 63 33 113 33c88 0 147 -60 147 -166c0 -103 -58 -167 -143 -167c-79 0 -137 54 -137 153zM190 405c0 -86 45 -126 107 -126c67 0 105 48 111 126h-218z" />
    <glyph glyph-name="colonmonetary" unicode="&#x20a1;" 
d="M341 623l-70 -589c21 -11 44 -17 70 -18l71 601c-15 4 -31 7 -48 7c-8 0 -16 0 -23 -1zM245 50l67 568c-107 -26 -168 -136 -168 -296c0 -127 36 -224 101 -272zM510 100l22 -18c-44 -54 -92 -89 -166 -93l-12 -99h-28l12 98c-25 1 -49 7 -71 16l-13 -114h-28l15 127
c-82 49 -131 159 -131 305c0 180 78 302 206 326l12 102h28l-12 -99c7 1 13 1 20 1c18 0 35 -3 52 -7l12 105h28l-14 -115c34 -15 61 -38 80 -61l-22 -20c-18 21 -38 39 -61 51l-70 -588c56 5 99 33 141 83z" />
    <glyph glyph-name="lira" unicode="&#x20a4;" 
d="M153 28h363v-28h-429v18c94 44 129 122 129 200c0 11 -1 21 -2 32h-130v24l94 4h30c-5 23 -13 46 -22 68h-102v26l92 2c-13 37 -24 73 -24 112c0 102 73 166 195 166c82 0 134 -34 167 -70l-22 -20c-34 34 -79 62 -149 62c-107 0 -162 -62 -162 -136
c0 -40 12 -76 26 -114h223v-28h-213c8 -22 15 -44 20 -68h193v-28h-188c1 -10 2 -21 2 -32c0 -88 -32 -140 -91 -186v-4z" />
    <glyph glyph-name="uni20A6" unicode="&#x20a6;" 
d="M428 274v70h-122l30 -70h92zM434 46l-5 198h-81l8 -18l74 -180h4zM172 274h131l-29 70h-102v-70zM166 594l6 -222h90l-18 44l-74 178h-4zM534 344h-74v-70h74v-30h-74v-244h-42l-102 244h-144v-244h-32v244h-78v26l78 4v70h-78v24l78 4v268h42l113 -268h133v268h32v-268
h74v-28z" />
    <glyph glyph-name="peseta" unicode="&#x20a7;" 
d="M172 298h78c118 0 185 47 192 148h-270v-148zM250 612h-78v-138h270c-5 103 -73 138 -192 138zM540 474v-28h-66c-7 -119 -91 -176 -212 -176h-90v-270h-30v446h-82v24l82 4v166h120c122 0 206 -47 212 -166h66z" />
    <glyph glyph-name="dong" unicode="&#x20ab;" 
d="M134 0v28h346v-28h-346zM420 200v190c-46 38 -76 54 -126 54c-78 0 -138 -68 -138 -148c0 -98 48 -162 134 -162c43 0 87 20 130 66zM450 594h82v-24l-82 -4v-450h-24l-4 48h-4c-33 -32 -74 -58 -130 -58c-100 0 -164 66 -164 188c0 108 81 178 172 178
c56 0 89 -20 128 -52l-4 96v50h-156v28h156v82h30v-82z" />
    <glyph glyph-name="Euro" unicode="&#x20ac;" 
d="M530 100l22 -18c-47 -58 -100 -94 -184 -94c-126 0 -214 101 -234 262h-66v24l64 4c-1 14 -2 29 -2 44c0 12 0 24 1 36h-63v24l66 4c18 165 111 266 250 266c68 0 126 -38 158 -78l-22 -20c-36 42 -80 70 -136 70c-123 0 -200 -91 -216 -238h326v-28h-329
c-1 -12 -1 -24 -1 -36c0 -15 1 -30 2 -44h288v-28h-286c18 -143 90 -234 202 -234c66 0 113 28 160 84z" />
    <glyph glyph-name="uni20B1" unicode="&#x20b1;" 
d="M172 430h268c1 10 2 21 2 32c0 14 -1 26 -3 38h-267v-70zM172 298h78c99 0 163 33 184 104h-262v-104zM172 612v-84h259c-23 61 -86 84 -181 84h-78zM540 528v-28h-69c2 -12 3 -24 3 -38c0 -11 -1 -22 -2 -32h68v-28h-73c-23 -89 -100 -132 -205 -132h-90v-270h-30v402
h-82v24l82 4v70h-82v24l82 4v112h120c102 0 177 -32 203 -112h75z" />
    <glyph glyph-name="uni20B2" unicode="&#x20b2;" 
d="M516 306v-246c-44 -44 -98 -68 -162 -71v-99h-30v98c-137 7 -226 138 -226 334c0 190 86 314 226 329v99h30v-98c67 -1 124 -38 156 -78l-22 -20c-36 42 -80 70 -136 70c-140 0 -220 -118 -220 -302s76 -306 206 -306c62 0 121 26 148 56v206h-148v28h178z" />
    <glyph glyph-name="uni20B5" unicode="&#x20b5;" 
d="M336 16v606c-123 -15 -192 -129 -192 -300c0 -177 71 -297 192 -306zM510 100l22 -18c-44 -54 -92 -89 -166 -93v-99h-30v98c-137 7 -226 138 -226 334c0 190 86 314 226 329v101h30v-100c67 -1 124 -38 156 -78l-22 -20c-36 41 -79 69 -134 70v-607c58 4 101 32 144 83z
" />
    <glyph glyph-name="uni20B9" unicode="&#x20b9;" 
d="M525 640v-28h-164c51 -17 84 -58 93 -108h71v-28h-69c-1 -114 -81 -175 -203 -183l227 -293h-37l-226 292h-94v28h84c136 0 217 48 217 156h-301v24l72 4h227c-15 77 -93 108 -215 108h-84v28h402z" />
    <glyph glyph-name="uni20BA" unicode="&#x20ba;" 
d="M224 18c113 0 272 60 272 192c0 16 0 32 -7 54l27 10c6 -26 9 -40 9 -62c0 -158 -168 -226 -333 -224v306l-120 -54v30l120 54v86l-120 -54v30l120 54v200h32v-184l201 94v-30l-201 -94v-86l201 94v-30l-201 -94v-292z" />
    <glyph glyph-name="uni2113" unicode="&#x2113;" 
d="M256 534v-284c88 93 156 213 156 326c0 86 -32 116 -74 116c-44 0 -82 -52 -82 -158zM446 60l16 -20c-24 -24 -60 -52 -108 -52c-70 0 -128 60 -128 174v22c-20 -18 -40 -34 -60 -48l-16 22c26 18 51 39 76 62v304c0 144 50 196 112 196c60 0 106 -48 106 -142
c0 -127 -87 -266 -188 -366v-40c0 -114 46 -156 100 -156c42 0 66 20 90 44z" />
    <glyph glyph-name="uni2117" unicode="&#x2117;" 
d="M207 136v360h102c68 0 120 -36 120 -106c0 -78 -52 -120 -120 -120h-70v-134h-32zM239 298h58c60 0 98 28 98 92c0 54 -38 78 -98 78h-58v-170zM40 322c0 201 106 330 260 330s260 -129 260 -330c0 -202 -106 -334 -260 -334s-260 132 -260 334zM70 322
c0 -184 92 -308 230 -308s230 124 230 308c0 183 -92 304 -230 304s-230 -121 -230 -304z" />
    <glyph glyph-name="uni2120" unicode="&#x2120;" 
d="M140 358c-44 0 -82 18 -106 46l20 20c26 -26 50 -40 88 -40c40 0 64 22 64 54c0 34 -14 40 -48 58l-50 26c-27 14 -58 36 -58 80c0 50 40 78 94 78c32 0 64 -16 84 -36l-18 -22c-20 18 -44 32 -68 32c-40 0 -62 -24 -62 -52c0 -24 18 -40 46 -54l50 -26
c38 -18 60 -40 60 -84c0 -42 -36 -80 -96 -80zM306 370v306h44l54 -130l32 -88h4l32 88l52 130h44v-306h-30v170l4 96h-4l-86 -218h-30l-86 218h-4l4 -96v-170h-30z" />
    <glyph glyph-name="trademark" unicode="&#x2122;" 
d="M306 370v306h44l54 -130l32 -88h4l32 88l52 130h44v-306h-30v170l4 96h-4l-86 -218h-30l-86 218h-4l4 -96v-170h-30zM112 370v278h-110v28h250v-28h-110v-278h-30z" />
    <glyph glyph-name="uni2126" unicode="&#x2126;" 
d="M42 0v28h136v4c-63 64 -124 162 -124 314c0 186 94 326 246 326s246 -140 246 -326c0 -152 -61 -250 -124 -314v-4h136v-28h-184v24c72 56 138 158 138 324s-76 294 -212 294s-212 -128 -212 -294s66 -268 138 -324v-24h-184z" />
    <glyph glyph-name="estimated" unicode="&#x212e;" 
d="M164 68c34 -38 84 -60 138 -60c70 0 136 44 182 112h38c-54 -80 -132 -132 -222 -132c-151 0 -274 150 -274 336s123 336 274 336s274 -150 274 -336v-8h-414c-2 0 -4 -2 -4 -4v-224c0 -8 4 -14 8 -20zM160 334h280c4 0 6 2 6 6v224c0 8 -4 16 -10 22
c-34 34 -84 54 -134 54c-54 0 -104 -22 -138 -58c-4 -6 -8 -15 -8 -22v-220c0 -4 2 -6 4 -6z" />
    <glyph glyph-name="onethird" unicode="&#x2153;" 
d="M160 340v245h-82v24c38 7 62 17 86 31h24v-300h-28zM64 36l-26 22l180 200l18 -16zM536 624l26 -22l-180 -200l-18 16zM318 52l24 18c20 -32 56 -56 98 -56c46 0 78 18 78 62c0 43 -38 64 -114 64v24c69 0 98 30 98 66c0 34 -20 56 -68 56c-25 0 -60 -14 -80 -40l-20 18
c22 29 62 48 102 48c58 0 96 -28 96 -80c0 -40 -20 -64 -58 -78c40 -8 74 -34 74 -78c0 -60 -46 -88 -110 -88c-50 0 -98 31 -120 64z" />
    <glyph glyph-name="twothirds" unicode="&#x2154;" 
d="M53 340v20c121 100 173 141 173 194c0 45 -27 72 -74 72c-34 0 -64 -20 -84 -48l-22 16c24 32 63 58 106 58c66 0 104 -35 104 -99c0 -61 -66 -111 -153 -187h171v-26h-221zM64 36l-26 22l180 200l18 -16zM536 624l26 -22l-180 -200l-18 16zM318 52l24 18
c20 -32 56 -56 98 -56c46 0 78 18 78 62c0 43 -38 64 -114 64v24c69 0 98 30 98 66c0 34 -20 56 -68 56c-25 0 -60 -14 -80 -40l-20 18c22 29 62 48 102 48c58 0 96 -28 96 -80c0 -40 -20 -64 -58 -78c40 -8 74 -34 74 -78c0 -60 -46 -88 -110 -88c-50 0 -98 31 -120 64z
" />
    <glyph glyph-name="oneeighth" unicode="&#x215b;" 
d="M160 340v245h-82v24c38 7 62 17 86 31h24v-300h-28zM64 36l-26 22l180 200l18 -16zM536 624l26 -22l-180 -200l-18 16zM352 74c0 -33 39 -60 88 -60c44 0 88 24 88 59c0 49 -57 60 -112 77c-43 -19 -64 -46 -64 -76zM466 164c36 21 50 43 50 69c0 30 -26 53 -76 53
c-46 0 -74 -23 -74 -53c0 -37 48 -55 100 -69zM322 74c0 41 32 67 68 84v4c-29 17 -54 38 -54 71c0 45 48 79 104 79c62 0 106 -35 106 -79c0 -40 -31 -63 -53 -77v-4c35 -14 65 -37 65 -78c0 -50 -53 -86 -118 -86c-72 0 -118 41 -118 86z" />
    <glyph glyph-name="threeeighths" unicode="&#x215c;" 
d="M38 392l24 18c20 -32 56 -56 98 -56c46 0 78 18 78 62c0 43 -38 64 -114 64v24c69 0 98 30 98 66c0 34 -20 56 -68 56c-25 0 -60 -14 -80 -40l-20 18c22 29 62 48 102 48c58 0 96 -28 96 -80c0 -40 -20 -64 -58 -78c40 -8 74 -34 74 -78c0 -60 -46 -88 -110 -88
c-50 0 -98 31 -120 64zM64 36l-26 22l180 200l18 -16zM536 624l26 -22l-180 -200l-18 16zM352 74c0 -33 39 -60 88 -60c44 0 88 24 88 59c0 49 -57 60 -112 77c-43 -19 -64 -46 -64 -76zM466 164c36 21 50 43 50 69c0 30 -26 53 -76 53c-46 0 -74 -23 -74 -53
c0 -37 48 -55 100 -69zM322 74c0 41 32 67 68 84v4c-29 17 -54 38 -54 71c0 45 48 79 104 79c62 0 106 -35 106 -79c0 -40 -31 -63 -53 -77v-4c35 -14 65 -37 65 -78c0 -50 -53 -86 -118 -86c-72 0 -118 41 -118 86z" />
    <glyph glyph-name="fiveeighths" unicode="&#x215d;" 
d="M38 392l24 18c24 -32 51 -56 100 -56c50 0 84 30 84 76c0 48 -32 76 -86 76c-30 0 -52 -12 -74 -30l-20 14l18 150h170v-28h-144l-14 -98c20 12 42 18 66 18c66 0 114 -36 114 -102c0 -64 -50 -102 -116 -102c-63 0 -96 31 -122 64zM64 36l-26 22l180 200l18 -16z
M536 624l26 -22l-180 -200l-18 16zM352 74c0 -33 39 -60 88 -60c44 0 88 24 88 59c0 49 -57 60 -112 77c-43 -19 -64 -46 -64 -76zM466 164c36 21 50 43 50 69c0 30 -26 53 -76 53c-46 0 -74 -23 -74 -53c0 -37 48 -55 100 -69zM322 74c0 41 32 67 68 84v4
c-29 17 -54 38 -54 71c0 45 48 79 104 79c62 0 106 -35 106 -79c0 -40 -31 -63 -53 -77v-4c35 -14 65 -37 65 -78c0 -50 -53 -86 -118 -86c-72 0 -118 41 -118 86z" />
    <glyph glyph-name="seveneighths" unicode="&#x215e;" 
d="M128 340c7 114 36 188 108 274h-189v26h226v-20c-91 -100 -111 -174 -117 -280h-28zM64 36l-26 22l180 200l18 -16zM536 624l26 -22l-180 -200l-18 16zM352 74c0 -33 39 -60 88 -60c44 0 88 24 88 59c0 49 -57 60 -112 77c-43 -19 -64 -46 -64 -76zM466 164
c36 21 50 43 50 69c0 30 -26 53 -76 53c-46 0 -74 -23 -74 -53c0 -37 48 -55 100 -69zM322 74c0 41 32 67 68 84v4c-29 17 -54 38 -54 71c0 45 48 79 104 79c62 0 106 -35 106 -79c0 -40 -31 -63 -53 -77v-4c35 -14 65 -37 65 -78c0 -50 -53 -86 -118 -86
c-72 0 -118 41 -118 86z" />
    <glyph glyph-name="uni2190" unicode="&#x2190;" 
d="M20 250v4l268 264l20 -20l-242 -232h504v-28h-504l242 -232l-20 -20z" />
    <glyph glyph-name="arrowup" unicode="&#x2191;" 
d="M298 526h4l264 -268l-20 -20l-232 242v-504h-28v504l-232 -242l-20 20z" />
    <glyph glyph-name="uni2192" unicode="&#x2192;" 
d="M578 254v-4l-268 -264l-20 20l242 232h-504v28h504l-242 232l20 20z" />
    <glyph glyph-name="arrowdown" unicode="&#x2193;" 
d="M302 -24h-4l-264 268l20 20l232 -242v504h28v-504l232 242l20 -20z" />
    <glyph glyph-name="partialdiff" unicode="&#x2202;" 
d="M262 16c118 0 190 115 209 265c-57 64 -114 87 -165 87c-132 0 -184 -92 -184 -190c0 -96 64 -162 140 -162zM192 590l-18 20c34 38 84 62 140 62c108 0 194 -84 194 -310c0 -222 -98 -374 -248 -374c-88 0 -170 70 -170 188c0 128 76 220 218 220c60 0 121 -30 167 -78
c1 14 1 29 1 44c0 212 -72 282 -164 282c-44 0 -88 -20 -120 -54z" />
    <glyph glyph-name="uni2206" unicode="&#x2206;" 
d="M54 0v18l232 642h30l232 -642v-18h-494zM90 28h422l-130 364l-78 224h-4l-80 -224z" />
    <glyph glyph-name="product" unicode="&#x220f;" 
d="M74 -120v760h452v-760h-34v732h-386v-732h-32z" />
    <glyph glyph-name="summation" unicode="&#x2211;" 
d="M78 -94l264 354l-252 354v26h420v-28h-378v-4l248 -346l-260 -350v-4h422v-28h-464v26z" />
    <glyph glyph-name="minus" unicode="&#x2212;" 
d="M98 316v28h404v-28h-404z" />
    <glyph glyph-name="uni2215" unicode="&#x2215;" 
d="M64 36l-26 22l180 200l18 -16zM536 624l26 -22l-180 -200l-18 16z" />
    <glyph glyph-name="uni2219" unicode="&#x2219;" 
d="M242 342c0 38 26 58 52 58s52 -20 52 -58s-26 -58 -52 -58s-52 20 -52 58z" />
    <glyph glyph-name="radical" unicode="&#x221a;" 
d="M186 376l130 -388c6 -16 10 -32 14 -48h4c4 16 6 32 10 48l194 832h30l-218 -928h-32l-150 442l-68 -32l-14 26z" />
    <glyph glyph-name="infinity" unicode="&#x221e;" 
d="M130 188c-67 0 -126 60 -126 142c0 86 61 142 132 142c69 0 114 -58 144 -114h4c38 70 91 130 166 130c88 0 146 -64 146 -156c0 -88 -56 -158 -142 -158c-74 0 -120 46 -170 126h-4c-28 -46 -75 -112 -150 -112zM300 332c56 -98 101 -126 156 -126c70 0 110 56 110 124
c0 73 -43 130 -118 130c-56 0 -101 -38 -148 -128zM134 216c54 0 97 42 130 112c-43 78 -82 112 -130 112c-57 0 -100 -38 -100 -108s47 -116 100 -116z" />
    <glyph glyph-name="integral" unicode="&#x222b;" 
d="M223 -126c8 -2 20 -4 34 -4c60 0 70 72 70 182c0 140 -46 388 -46 522c0 120 18 214 100 214c16 0 32 -2 38 -6l-6 -26c-8 2 -20 4 -34 4c-58 0 -68 -74 -68 -184c0 -140 44 -386 44 -520c0 -122 -18 -214 -98 -214c-18 0 -32 2 -40 6z" />
    <glyph glyph-name="approxequal" unicode="&#x2248;" 
d="M120 372l-24 8c28 86 72 110 114 110c76 0 124 -92 182 -92c34 0 62 8 88 90l24 -10c-28 -84 -72 -108 -114 -108c-76 0 -124 92 -182 92c-34 0 -62 -10 -88 -90zM120 172l-24 8c28 86 72 110 114 110c76 0 124 -92 182 -92c34 0 62 8 88 90l24 -10
c-28 -84 -72 -108 -114 -108c-76 0 -124 92 -182 92c-34 0 -62 -10 -88 -90z" />
    <glyph glyph-name="notequal" unicode="&#x2260;" 
d="M132 86l80 130h-114v28h132l106 172h-238v28h256l80 130h34l-80 -130h114v-28h-132l-106 -172h238v-28h-256l-80 -130h-34z" />
    <glyph glyph-name="lessequal" unicode="&#x2264;" 
d="M98 0v28h404v-28h-404zM98 314v36l404 162v-32l-240 -94l-132 -52v-4l132 -52l240 -94v-32z" />
    <glyph glyph-name="greaterequal" unicode="&#x2265;" 
d="M98 0v28h404v-28h-404zM502 350v-36l-404 -162v32l240 94l132 52v4l-132 52l-240 94v32z" />
    <glyph glyph-name="uni2500" unicode="&#x2500;" 
d="M-15 285v30h630v-30h-630z" />
    <glyph glyph-name="uni2501" unicode="&#x2501;" 
d="M-15 270v60h630v-60h-630z" />
    <glyph glyph-name="uni2502" unicode="&#x2502;" 
d="M285 -400v1400h30v-1400h-30z" />
    <glyph glyph-name="uni2503" unicode="&#x2503;" 
d="M270 -400v1400h60v-1400h-60z" />
    <glyph glyph-name="uni2504" unicode="&#x2504;" 
d="M33 285v30h134v-30h-134zM233 285v30h134v-30h-134zM433 285v30h134v-30h-134z" />
    <glyph glyph-name="uni2505" unicode="&#x2505;" 
d="M33 270v60h134v-60h-134zM233 270v60h134v-60h-134zM433 270v60h134v-60h-134z" />
    <glyph glyph-name="uni2506" unicode="&#x2506;" 
d="M285 -145v222h30v-222h-30zM285 188v222h30v-222h-30zM285 521v222h30v-222h-30z" />
    <glyph glyph-name="uni2507" unicode="&#x2507;" 
d="M270 -145v222h60v-222h-60zM270 188v222h60v-222h-60zM270 521v222h60v-222h-60z" />
    <glyph glyph-name="uni2508" unicode="&#x2508;" 
d="M18 285v30h113v-30h-113zM168 285v30h113v-30h-113zM318 285v30h113v-30h-113zM468 285v30h113v-30h-113z" />
    <glyph glyph-name="uni2509" unicode="&#x2509;" 
d="M18 270v60h113v-60h-113zM168 270v60h113v-60h-113zM318 270v60h113v-60h-113zM468 270v60h113v-60h-113z" />
    <glyph glyph-name="uni250A" unicode="&#x250a;" 
d="M285 -169v188h30v-188h-30zM285 81v188h30v-188h-30zM285 331v188h30v-188h-30zM285 581v188h30v-188h-30z" />
    <glyph glyph-name="uni250B" unicode="&#x250b;" 
d="M270 -169v188h60v-188h-60zM270 81v188h60v-188h-60zM270 331v188h60v-188h-60zM270 581v188h60v-188h-60z" />
    <glyph glyph-name="uni250C" unicode="&#x250c;" 
d="M285 -400v715h330v-30h-300v-685h-30z" />
    <glyph glyph-name="uni250D" unicode="&#x250d;" 
d="M285 -400v730h330v-60h-300v-670h-30z" />
    <glyph glyph-name="uni250E" unicode="&#x250e;" 
d="M270 -400v715h345v-30h-285v-685h-60z" />
    <glyph glyph-name="uni250F" unicode="&#x250f;" 
d="M270 -400v730h345v-60h-285v-670h-60z" />
    <glyph glyph-name="uni2510" unicode="&#x2510;" 
d="M-15 285v30h330v-715h-30v685h-300z" />
    <glyph glyph-name="uni2511" unicode="&#x2511;" 
d="M-15 270v60h330v-730h-30v670h-300z" />
    <glyph glyph-name="uni2512" unicode="&#x2512;" 
d="M-15 285v30h345v-715h-60v685h-285z" />
    <glyph glyph-name="uni2513" unicode="&#x2513;" 
d="M-15 270v60h345v-730h-60v670h-285z" />
    <glyph glyph-name="uni2514" unicode="&#x2514;" 
d="M285 285v715h30v-685h300v-30h-330z" />
    <glyph glyph-name="uni2515" unicode="&#x2515;" 
d="M285 270v730h30v-670h300v-60h-330z" />
    <glyph glyph-name="uni2516" unicode="&#x2516;" 
d="M270 285v715h60v-685h285v-30h-345z" />
    <glyph glyph-name="uni2517" unicode="&#x2517;" 
d="M270 270v730h60v-670h285v-60h-345z" />
    <glyph glyph-name="uni2518" unicode="&#x2518;" 
d="M-15 285v30h300v685h30v-715h-330z" />
    <glyph glyph-name="uni2519" unicode="&#x2519;" 
d="M-15 270v60h300v670h30v-730h-330z" />
    <glyph glyph-name="uni251A" unicode="&#x251a;" 
d="M-15 285v30h285v685h60v-715h-345z" />
    <glyph glyph-name="uni251B" unicode="&#x251b;" 
d="M-15 270v60h285v670h60v-730h-345z" />
    <glyph glyph-name="uni251C" unicode="&#x251c;" 
d="M285 -400v1400h30v-685h300v-30h-300v-685h-30z" />
    <glyph glyph-name="uni251D" unicode="&#x251d;" 
d="M285 -400v1400h30v-670h300v-60h-300v-670h-30z" />
    <glyph glyph-name="uni251E" unicode="&#x251e;" 
d="M270 285v715h60v-685h285v-30h-300v-685h-30v685h-15z" />
    <glyph glyph-name="uni251F" unicode="&#x251f;" 
d="M270 -400v715h15v685h30v-685h300v-30h-285v-685h-60z" />
    <glyph glyph-name="uni2520" unicode="&#x2520;" 
d="M270 -400v1400h60v-685h285v-30h-285v-685h-60z" />
    <glyph glyph-name="uni2521" unicode="&#x2521;" 
d="M270 270v730h60v-670h285v-60h-300v-670h-30v670h-15z" />
    <glyph glyph-name="uni2522" unicode="&#x2522;" 
d="M270 -400v730h15v670h30v-670h300v-60h-285v-670h-60z" />
    <glyph glyph-name="uni2523" unicode="&#x2523;" 
d="M270 -400v1400h60v-670h285v-60h-285v-670h-60z" />
    <glyph glyph-name="uni2524" unicode="&#x2524;" 
d="M-15 285v30h300v685h30v-1400h-30v685h-300z" />
    <glyph glyph-name="uni2525" unicode="&#x2525;" 
d="M-15 270v60h300v670h30v-1400h-30v670h-300z" />
    <glyph glyph-name="uni2526" unicode="&#x2526;" 
d="M-15 285v30h285v685h60v-715h-15v-685h-30v685h-300z" />
    <glyph glyph-name="uni2527" unicode="&#x2527;" 
d="M-15 285v30h300v685h30v-685h15v-715h-60v685h-285z" />
    <glyph glyph-name="uni2528" unicode="&#x2528;" 
d="M-15 285v30h285v685h60v-1400h-60v685h-285z" />
    <glyph glyph-name="uni2529" unicode="&#x2529;" 
d="M-15 270v60h285v670h60v-730h-15v-670h-30v670h-300z" />
    <glyph glyph-name="uni252A" unicode="&#x252a;" 
d="M-15 270v60h300v670h30v-670h15v-730h-60v670h-285z" />
    <glyph glyph-name="uni252B" unicode="&#x252b;" 
d="M-15 270v60h285v670h60v-1400h-60v670h-285z" />
    <glyph glyph-name="uni252C" unicode="&#x252c;" 
d="M-15 285v30h630v-30h-300v-685h-30v685h-300z" />
    <glyph glyph-name="uni252D" unicode="&#x252d;" 
d="M-15 270v60h330v-15h300v-30h-300v-685h-30v670h-300z" />
    <glyph glyph-name="uni252E" unicode="&#x252e;" 
d="M-15 285v30h300v15h330v-60h-300v-670h-30v685h-300z" />
    <glyph glyph-name="uni252F" unicode="&#x252f;" 
d="M-15 270v60h630v-60h-300v-670h-30v670h-300z" />
    <glyph glyph-name="uni2530" unicode="&#x2530;" 
d="M-15 285v30h630v-30h-285v-685h-60v685h-285z" />
    <glyph glyph-name="uni2531" unicode="&#x2531;" 
d="M-15 270v60h345v-15h285v-30h-285v-685h-60v670h-285z" />
    <glyph glyph-name="uni2532" unicode="&#x2532;" 
d="M-15 285v30h285v15h345v-60h-285v-670h-60v685h-285z" />
    <glyph glyph-name="uni2533" unicode="&#x2533;" 
d="M-15 270v60h630v-60h-285v-670h-60v670h-285z" />
    <glyph glyph-name="uni2534" unicode="&#x2534;" 
d="M-15 285v30h300v685h30v-685h300v-30h-630z" />
    <glyph glyph-name="uni2535" unicode="&#x2535;" 
d="M-15 270v60h300v670h30v-685h300v-30h-300v-15h-330z" />
    <glyph glyph-name="uni2536" unicode="&#x2536;" 
d="M-15 285v30h300v685h30v-670h300v-60h-330v15h-300z" />
    <glyph glyph-name="uni2537" unicode="&#x2537;" 
d="M-15 270v60h300v670h30v-670h300v-60h-630z" />
    <glyph glyph-name="uni2538" unicode="&#x2538;" 
d="M-15 285v30h285v685h60v-685h285v-30h-630z" />
    <glyph glyph-name="uni2539" unicode="&#x2539;" 
d="M-15 270v60h285v670h60v-685h285v-30h-285v-15h-345z" />
    <glyph glyph-name="uni253A" unicode="&#x253a;" 
d="M-15 285v30h285v685h60v-670h285v-60h-345v15h-285z" />
    <glyph glyph-name="uni253B" unicode="&#x253b;" 
d="M-15 270v60h285v670h60v-670h285v-60h-630z" />
    <glyph glyph-name="uni253C" unicode="&#x253c;" 
d="M-15 285v30h300v685h30v-685h300v-30h-300v-685h-30v685h-300z" />
    <glyph glyph-name="uni253D" unicode="&#x253d;" 
d="M-15 270v60h300v670h30v-685h300v-30h-300v-685h-30v670h-300z" />
    <glyph glyph-name="uni253E" unicode="&#x253e;" 
d="M-15 285v30h300v685h30v-670h300v-60h-300v-670h-30v685h-300z" />
    <glyph glyph-name="uni253F" unicode="&#x253f;" 
d="M-15 270v60h300v670h30v-670h300v-60h-300v-670h-30v670h-300z" />
    <glyph glyph-name="uni2540" unicode="&#x2540;" 
d="M-15 285v30h285v685h60v-685h285v-30h-300v-685h-30v685h-300z" />
    <glyph glyph-name="uni2541" unicode="&#x2541;" 
d="M-15 285v30h300v685h30v-685h300v-30h-285v-685h-60v685h-285z" />
    <glyph glyph-name="uni2542" unicode="&#x2542;" 
d="M-15 285v30h285v685h60v-685h285v-30h-285v-685h-60v685h-285z" />
    <glyph glyph-name="uni2543" unicode="&#x2543;" 
d="M-15 270v60h285v670h60v-685h285v-30h-285v-15h-15v-670h-30v670h-300z" />
    <glyph glyph-name="uni2544" unicode="&#x2544;" 
d="M-15 285v30h285v685h60v-670h285v-60h-300v-670h-30v670h-15v15h-285z" />
    <glyph glyph-name="uni2545" unicode="&#x2545;" 
d="M-15 270v60h300v670h30v-670h15v-15h285v-30h-285v-685h-60v670h-285z" />
    <glyph glyph-name="uni2546" unicode="&#x2546;" 
d="M-15 285v30h285v15h15v670h30v-670h300v-60h-285v-670h-60v685h-285z" />
    <glyph glyph-name="uni2547" unicode="&#x2547;" 
d="M-15 270v60h285v670h60v-670h285v-60h-300v-670h-30v670h-300z" />
    <glyph glyph-name="uni2548" unicode="&#x2548;" 
d="M-15 270v60h300v670h30v-670h300v-60h-285v-670h-60v670h-285z" />
    <glyph glyph-name="uni2549" unicode="&#x2549;" 
d="M-15 270v60h285v670h60v-685h285v-30h-285v-685h-60v670h-285z" />
    <glyph glyph-name="uni254A" unicode="&#x254a;" 
d="M-15 285v30h285v685h60v-670h285v-60h-285v-670h-60v685h-285z" />
    <glyph glyph-name="uni254B" unicode="&#x254b;" 
d="M-15 270v60h285v670h60v-670h285v-60h-285v-670h-60v670h-285z" />
    <glyph glyph-name="uni254C" unicode="&#x254c;" 
d="M75 285v30h150v-30h-150zM375 285v30h150v-30h-150z" />
    <glyph glyph-name="uni254D" unicode="&#x254d;" 
d="M75 270v60h150v-60h-150zM375 270v60h150v-60h-150z" />
    <glyph glyph-name="uni254E" unicode="&#x254e;" 
d="M285 -75v250h30v-250h-30zM285 425v250h30v-250h-30z" />
    <glyph glyph-name="uni254F" unicode="&#x254f;" 
d="M270 -75v250h60v-250h-60zM270 425v250h60v-250h-60z" />
    <glyph glyph-name="uni2550" unicode="&#x2550;" 
d="M-15 315v30h630v-30h-630zM-15 255v30h630v-30h-630z" />
    <glyph glyph-name="uni2551" unicode="&#x2551;" 
d="M255 -400v1400h30v-1400h-30zM315 -400v1400h30v-1400h-30z" />
    <glyph glyph-name="uni2552" unicode="&#x2552;" 
d="M285 -400v745h330v-30h-300v-30h300v-30h-300v-655h-30z" />
    <glyph glyph-name="uni2553" unicode="&#x2553;" 
d="M255 -400v715h30h330v-30h-270v-685h-30v685h-30v-685h-30z" />
    <glyph glyph-name="uni2554" unicode="&#x2554;" 
d="M255 -400v745h360v-30h-330v-715h-30zM315 -400v685h300v-30h-270v-655h-30z" />
    <glyph glyph-name="uni2555" unicode="&#x2555;" 
d="M-15 315v30h330v-745h-30v655h-300v30h300v30h-300z" />
    <glyph glyph-name="uni2556" unicode="&#x2556;" 
d="M315 -400v685h-30v-685h-30v685h-270v30h360v-715h-30z" />
    <glyph glyph-name="uni2557" unicode="&#x2557;" 
d="M-15 315v30h360v-745h-30v715h-330zM-15 255v30h300v-685h-30v655h-270z" />
    <glyph glyph-name="uni2558" unicode="&#x2558;" 
d="M285 255v745h30v-655h300v-30h-300v-30h300v-30h-330z" />
    <glyph glyph-name="uni2559" unicode="&#x2559;" 
d="M255 285v715h30v-685h30v685h30v-685h270v-30h-360z" />
    <glyph glyph-name="uni255A" unicode="&#x255a;" 
d="M255 255v745h30v-715h330v-30h-360zM315 315v685h30v-655h270v-30h-300z" />
    <glyph glyph-name="uni255B" unicode="&#x255b;" 
d="M-15 315v30h300v655h30v-745h-330v30h300v30h-300z" />
    <glyph glyph-name="uni255C" unicode="&#x255c;" 
d="M-15 285v30h270v685h30v-685h30v685h30v-715h-360z" />
    <glyph glyph-name="uni255D" unicode="&#x255d;" 
d="M-15 255v30h330v715h30v-745h-360zM-15 315v30h270v655h30v-685h-300z" />
    <glyph glyph-name="uni255E" unicode="&#x255e;" 
d="M285 -400v1400h30v-655h300v-30h-300v-30h300v-30h-300v-655h-30z" />
    <glyph glyph-name="uni255F" unicode="&#x255f;" 
d="M315 -400v1400h30v-685h270v-30h-270v-685h-30zM255 -400v1400h30v-1400h-30z" />
    <glyph glyph-name="uni2560" unicode="&#x2560;" 
d="M255 -400v1400h30v-1400h-30zM315 315v685h30v-655h270v-30h-300zM315 -400v685h300v-30h-270v-655h-30z" />
    <glyph glyph-name="uni2561" unicode="&#x2561;" 
d="M-15 315v30h300v655h30v-1400h-30v655h-300v30h300v30h-300z" />
    <glyph glyph-name="uni2562" unicode="&#x2562;" 
d="M-15 285v30h270v685h30v-1400h-30v685h-270zM315 -400v1400h30v-1400h-30z" />
    <glyph glyph-name="uni2563" unicode="&#x2563;" 
d="M315 -400v1400h30v-1400h-30zM-15 255v30h300v-685h-30v655h-270zM-15 315v30h270v655h30v-685h-300z" />
    <glyph glyph-name="uni2564" unicode="&#x2564;" 
d="M-15 255v30h630v-30h-300v-655h-30v655h-300zM-15 315v30h630v-30h-630z" />
    <glyph glyph-name="uni2565" unicode="&#x2565;" 
d="M-15 285v30h630v-30h-270v-685h-30v685h-30v-685h-30v685h-270z" />
    <glyph glyph-name="uni2566" unicode="&#x2566;" 
d="M-15 255v30h300v-685h-30v655h-270zM315 -400v685h300v-30h-270v-655h-30zM-15 315v30h630v-30h-630z" />
    <glyph glyph-name="uni2567" unicode="&#x2567;" 
d="M-15 315v30h300v655h30v-655h300v-30h-630zM-15 255v30h630v-30h-630z" />
    <glyph glyph-name="uni2568" unicode="&#x2568;" 
d="M-15 285v30h270v685h30v-685h30v685h30v-685h270v-30h-630z" />
    <glyph glyph-name="uni2569" unicode="&#x2569;" 
d="M-15 315v30h270v655h30v-685h-300zM315 315v685h30v-655h270v-30h-300zM-15 255v30h630v-30h-630z" />
    <glyph glyph-name="uni256A" unicode="&#x256a;" 
d="M-15 315v30h300v655h30v-655h300v-30h-300v-30h300v-30h-300v-655h-30v655h-300v30h300v30h-300z" />
    <glyph glyph-name="uni256B" unicode="&#x256b;" 
d="M-15 285v30h270v685h30v-685h30v685h30v-685h270v-30h-270v-685h-30v685h-30v-685h-30v685h-270z" />
    <glyph glyph-name="uni256C" unicode="&#x256c;" 
d="M-15 315v30h270v655h30v-685h-300zM-15 255v30h300v-685h-30v655h-270zM315 315v685h30v-655h270v-30h-300zM315 -400v685h300v-30h-270v-655h-30z" />
    <glyph glyph-name="uni256D" unicode="&#x256d;" 
d="M285 -400v400c0 174 141 315 315 315h15v-30h-15c-157 0 -285 -128 -285 -285v-400h-30z" />
    <glyph glyph-name="uni256E" unicode="&#x256e;" 
d="M315 0v-400h-30v400c0 157 -128 285 -285 285h-15v30h15c174 0 315 -141 315 -315z" />
    <glyph glyph-name="uni256F" unicode="&#x256f;" 
d="M315 1000v-400c0 -174 -141 -315 -315 -315h-15v30h15c157 0 285 128 285 285v400h30z" />
    <glyph glyph-name="uni2570" unicode="&#x2570;" 
d="M285 600v400h30v-400c0 -157 128 -285 285 -285h15v-30h-15c-174 0 -315 141 -315 315z" />
    <glyph glyph-name="uni2571" unicode="&#x2571;" 
d="M-15 -185l600 1000h30v-30l-600 -1000h-30v30z" />
    <glyph glyph-name="uni2572" unicode="&#x2572;" 
d="M15 815l600 -1000v-30h-30l-600 1000v30h30z" />
    <glyph glyph-name="uni2573" unicode="&#x2573;" 
d="M15 815l285 -475l285 475h30v-30l-291 -485l291 -485v-30h-30l-285 475l-285 -475h-30v30l291 485l-291 485v30h30z" />
    <glyph glyph-name="uni2574" unicode="&#x2574;" 
d="M-15 285v30h330v-30h-330z" />
    <glyph glyph-name="uni2575" unicode="&#x2575;" 
d="M285 285v715h30v-715h-30z" />
    <glyph glyph-name="uni2576" unicode="&#x2576;" 
d="M285 285v30h330v-30h-330z" />
    <glyph glyph-name="uni2577" unicode="&#x2577;" 
d="M285 -400v715h30v-715h-30z" />
    <glyph glyph-name="uni2578" unicode="&#x2578;" 
d="M-15 270v60h330v-60h-330z" />
    <glyph glyph-name="uni2579" unicode="&#x2579;" 
d="M270 285v715h60v-715h-60z" />
    <glyph glyph-name="uni257A" unicode="&#x257a;" 
d="M285 270v60h330v-60h-330z" />
    <glyph glyph-name="uni257B" unicode="&#x257b;" 
d="M270 -400v715h60v-715h-60z" />
    <glyph glyph-name="uni257C" unicode="&#x257c;" 
d="M-15 285v30h300v15h330v-60h-330v15h-300z" />
    <glyph glyph-name="uni257D" unicode="&#x257d;" 
d="M270 -400v715h15v685h30v-685h15v-715h-60z" />
    <glyph glyph-name="uni257E" unicode="&#x257e;" 
d="M-15 270v60h330v-15h300v-30h-300v-15h-330z" />
    <glyph glyph-name="uni257F" unicode="&#x257f;" 
d="M270 285v715h60v-715h-15v-685h-30v685h-15z" />
    <glyph glyph-name="uni2580" unicode="&#x2580;" 
d="M0 300v500h600v-500h-600z" />
    <glyph glyph-name="uni2581" unicode="&#x2581;" 
d="M0 -200v125h600v-125h-600z" />
    <glyph glyph-name="uni2582" unicode="&#x2582;" 
d="M0 -200v250h600v-250h-600z" />
    <glyph glyph-name="uni2583" unicode="&#x2583;" 
d="M0 -200v375h600v-375h-600z" />
    <glyph glyph-name="uni2584" unicode="&#x2584;" 
d="M0 -200v500h600v-500h-600z" />
    <glyph glyph-name="uni2585" unicode="&#x2585;" 
d="M0 -200v625h600v-625h-600z" />
    <glyph glyph-name="uni2586" unicode="&#x2586;" 
d="M0 -200v750h600v-750h-600z" />
    <glyph glyph-name="uni2587" unicode="&#x2587;" 
d="M0 -200v875h600v-875h-600z" />
    <glyph glyph-name="uni2588" unicode="&#x2588;" 
d="M0 -200v1000h600v-1000h-600z" />
    <glyph glyph-name="uni2589" unicode="&#x2589;" 
d="M0 -200v1000h525v-1000h-525z" />
    <glyph glyph-name="uni258A" unicode="&#x258a;" 
d="M0 -200v1000h450v-1000h-450z" />
    <glyph glyph-name="uni258B" unicode="&#x258b;" 
d="M0 -200v1000h375v-1000h-375z" />
    <glyph glyph-name="uni258C" unicode="&#x258c;" 
d="M0 -200v1000h300v-1000h-300z" />
    <glyph glyph-name="uni258D" unicode="&#x258d;" 
d="M0 -200v1000h225v-1000h-225z" />
    <glyph glyph-name="uni258E" unicode="&#x258e;" 
d="M0 -200v1000h150v-1000h-150z" />
    <glyph glyph-name="uni258F" unicode="&#x258f;" 
d="M0 -200v1000h75v-1000h-75z" />
    <glyph glyph-name="uni2590" unicode="&#x2590;" 
d="M300 -200v1000h300v-1000h-300z" />
    <glyph glyph-name="uni2591" unicode="&#x2591;" 
d="M0 -200v50l30 -50h-30zM300 -200l-300 500v50l330 -550h-30zM600 -200l-600 1000h30l570 -950v-50zM600 300l-300 500h30l270 -450v-50z" />
    <glyph glyph-name="uni2592" unicode="&#x2592;" 
d="M0 -200v50l30 -50h-30zM150 -200l-150 250v50l180 -300h-30zM300 -200l-300 500v50l330 -550h-30zM450 -200l-450 750v50l480 -800h-30zM600 -200l-600 1000h30l570 -950v-50zM600 50l-450 750h30l420 -700v-50zM600 300l-300 500h30l270 -450v-50zM600 550l-150 250h30
l120 -200v-50z" />
    <glyph glyph-name="uni2593" unicode="&#x2593;" 
d="M0 -200v50l30 -50h-30zM75 -200l-75 125v50l105 -175h-30zM150 -200l-150 250v50l180 -300h-30zM225 -200l-225 375v50l255 -425h-30zM300 -200l-300 500v50l330 -550h-30zM375 -200l-375 625v50l405 -675h-30zM450 -200l-450 750v50l480 -800h-30zM525 -200l-525 875v50
l555 -925h-30zM600 -200l-600 1000h30l570 -950v-50zM600 -75l-525 875h30l495 -825v-50zM600 50l-450 750h30l420 -700v-50zM600 175l-375 625h30l345 -575v-50zM600 300l-300 500h30l270 -450v-50zM600 425l-225 375h30l195 -325v-50zM600 550l-150 250h30l120 -200v-50z
M600 675l-75 125h30l45 -75v-50z" />
    <glyph glyph-name="uni2594" unicode="&#x2594;" 
d="M0 675v125h600v-125h-600z" />
    <glyph glyph-name="uni2595" unicode="&#x2595;" 
d="M525 -200v1000h75v-1000h-75z" />
    <glyph glyph-name="uni2596" unicode="&#x2596;" 
d="M0 -200v500h300v-500h-300z" />
    <glyph glyph-name="uni2597" unicode="&#x2597;" 
d="M300 -200v500h300v-500h-300z" />
    <glyph glyph-name="uni2598" unicode="&#x2598;" 
d="M0 300v500h300v-500h-300z" />
    <glyph glyph-name="uni2599" unicode="&#x2599;" 
d="M0 -200v1000h300v-500h300v-500h-600z" />
    <glyph glyph-name="uni259A" unicode="&#x259a;" 
d="M0 800h300v-500h-300v500zM300 300h300v-500h-300v500z" />
    <glyph glyph-name="uni259B" unicode="&#x259b;" 
d="M0 -200v1000h600v-500h-300v-500h-300z" />
    <glyph glyph-name="uni259C" unicode="&#x259c;" 
d="M0 300v500h600v-1000h-300v500h-300z" />
    <glyph glyph-name="uni259D" unicode="&#x259d;" 
d="M300 300v500h300v-500h-300z" />
    <glyph glyph-name="uni259E" unicode="&#x259e;" 
d="M0 -200v500h300v-500h-300zM300 300v500h300v-500h-300z" />
    <glyph glyph-name="uni259F" unicode="&#x259f;" 
d="M0 -200v500h300v500h300v-1000h-600z" />
    <glyph glyph-name="uni25A0" unicode="&#x25a0;" 
d="M217 178v172h166v-172h-166z" />
    <glyph glyph-name="triagup" unicode="&#x25b2;" 
d="M49 52v2l250 470h4l248 -470v-2h-502z" />
    <glyph glyph-name="uni25B3" unicode="&#x25b3;" 
d="M103 80h396l-198 386zM49 52v2l250 470h4l248 -470v-2h-502z" />
    <glyph glyph-name="uni25B6" unicode="&#x25b6;" 
d="M83 30v502h2l470 -248v-4l-470 -250h-2z" />
    <glyph glyph-name="uni25B7" unicode="&#x25b7;" 
d="M113 84l380 198l-380 198v-396zM83 30v502h2l470 -248v-4l-470 -250h-2z" />
    <glyph glyph-name="triagdn" unicode="&#x25bc;" 
d="M299 40l-250 468v2h502v-2l-248 -468h-4z" />
    <glyph glyph-name="uni25BD" unicode="&#x25bd;" 
d="M499 482h-396l198 -386zM49 508v2h502v-2l-248 -470h-4z" />
    <glyph glyph-name="uni25C0" unicode="&#x25c0;" 
d="M45 280v4l470 248h2v-502h-2z" />
    <glyph glyph-name="uni25C1" unicode="&#x25c1;" 
d="M107 282l380 -198v396zM517 532v-502h-2l-470 250v4l470 248h2z" />
    <glyph glyph-name="uni25C6" unicode="&#x25c6;" 
d="M301 144l-122 120l122 120l120 -120z" />
    <glyph glyph-name="uni25C9" unicode="&#x25c9;" 
d="M300 210c-26 0 -50 20 -50 54c0 32 24 52 50 52s50 -20 50 -52c0 -34 -24 -54 -50 -54zM300 96c-86 0 -164 60 -164 168c0 106 78 168 164 168s164 -62 164 -168c0 -108 -78 -168 -164 -168zM300 124c66 0 132 48 132 140s-66 140 -132 140s-132 -48 -132 -140
s66 -140 132 -140z" />
    <glyph glyph-name="lozenge" unicode="&#x25ca;" 
d="M280 -10l-166 340l166 340h40l166 -340l-166 -340h-40zM298 16h4l70 142l80 172l-80 170l-70 144h-4l-70 -144l-80 -170l80 -172z" />
    <glyph glyph-name="uni2610" unicode="&#x2610;" 
d="M8 20h550v586h-550v-586zM-22 -10v638l50 40h594v-628l-42 -50h-602z" />
    <glyph glyph-name="uni2611" unicode="&#x2611;" 
d="M558 20v569c-107 -141 -195 -311 -244 -483l-44 -6c-36 103 -86 201 -140 282l26 19c52 -80 102 -176 130 -267h4c46 157 135 328 241 472h-523v-586h550zM682 780l24 -26c-29 -27 -57 -56 -84 -87v-627l-42 -50h-602v638l50 40h551c33 41 68 78 103 112z" />
    <glyph glyph-name="uni266A" unicode="&#x266a;" 
d="M97 48c0 52 56 104 148 104c26 0 52 -6 62 -12v554h26c10 -30 20 -40 70 -76c86 -64 104 -120 104 -192c0 -48 -10 -90 -18 -118l-24 8c10 34 12 56 12 92c0 66 -48 130 -136 156v-444c0 -94 -82 -140 -152 -140c-52 0 -92 26 -92 68z" />
    <glyph glyph-name="uni2713" unicode="&#x2713;" 
d="M192 -14l-44 -6c-38 107 -88 208 -146 292l26 19c56 -83 108 -183 138 -277h4c70 236 231 500 404 666l24 -26c-176 -164 -334 -414 -406 -668z" />
    <glyph glyph-name="uni2752" unicode="&#x2752;" 
d="M210 164h144v152h-144v-152zM182 138v200l52 42h184v-190l-42 -52h-194z" />
    <glyph glyph-name="fi" unicode="&#xfb01;" 
d="M154 478v118c0 94 42 138 110 138c20 0 44 -6 66 -16l-10 -26c-20 10 -40 14 -58 14c-54 0 -78 -42 -78 -114v-114h114v-28h-114v-450h-30v450h-66v24zM420 0v478h30v-478h-30zM435 683c21 0 40 -16 40 -42c0 -25 -19 -41 -40 -41s-40 16 -40 41c0 26 19 42 40 42z" />
    <glyph glyph-name="fl" unicode="&#xfb02;" 
d="M159 478v118c0 94 42 138 110 138c20 0 44 -6 66 -16l-10 -26c-20 10 -40 14 -58 14c-54 0 -78 -42 -78 -114v-114h114v-28h-114v-450h-30v450h-66v24zM475 18l6 -26c-8 -2 -14 -4 -26 -4c-30 0 -48 18 -48 64v670h30v-676c0 -20 8 -30 20 -30c4 0 8 0 18 2z" />
    <glyph glyph-name="uni00470303" 
d="M61 332c0 208 112 340 282 340c86 0 139 -42 173 -78l-20 -22c-34 38 -81 70 -153 70c-154 0 -248 -120 -248 -310s90 -314 240 -314c63 0 121 20 154 54v218h-160v28h193v-256c-40 -44 -104 -74 -189 -74c-164 0 -272 136 -272 344zM390 718c-52 0 -76 58 -118 58
c-22 0 -38 -24 -42 -58h-22c2 38 22 86 66 86c52 0 76 -58 118 -58c22 0 38 24 42 58h22c-2 -38 -22 -86 -66 -86z" />
    <glyph glyph-name="uni00670303" 
d="M120 -97c0 -61 60 -109 186 -109c139 0 222 68 222 132c0 57 -43 76 -131 76h-121c-22 0 -50 2 -73 9c-62 -33 -83 -71 -83 -108zM88 -93c0 37 30 82 82 115v4c-24 11 -50 36 -50 76c0 30 20 64 58 90v4c-30 26 -56 66 -56 124c0 96 78 170 174 170c26 0 46 -4 64 -12
h200v-28h-152c32 -30 62 -75 62 -130c0 -96 -78 -168 -174 -168c-30 0 -64 8 -94 24c-30 -18 -50 -44 -50 -71c0 -49 46 -71 114 -71h123c121 0 171 -30 171 -106c0 -80 -96 -162 -248 -162s-224 58 -224 141zM296 180c78 0 142 58 142 140s-64 142 -142 142
s-142 -60 -142 -142s64 -140 142 -140zM192 582c2 36 17 82 64 82c48 0 75 -56 110 -56c22 0 34 22 38 56h24c-2 -35 -17 -82 -64 -82c-48 0 -73 56 -110 56c-22 0 -34 -21 -38 -56h-24z" />
    <glyph glyph-name="iogonek.d" 
d="M346 0v450h-246v28h276v-478c-30 -36 -60 -76 -60 -120c0 -36 24 -54 50 -54c18 0 30 4 44 14l14 -20c-14 -12 -40 -22 -60 -22c-44 0 -78 26 -78 80c0 50 32 88 62 122h-2z" />
    <glyph glyph-name="a.a" 
d="M102 238c0 -132 68 -222 182 -222c59 0 119 34 176 94v276c-58 55 -111 76 -164 76c-108 0 -194 -100 -194 -224zM70 238c0 154 107 252 228 252c62 0 111 -26 160 -68h2l4 56h26v-478h-26l-4 74h-2c-43 -45 -106 -86 -176 -86c-126 0 -212 88 -212 250z" />
    <glyph glyph-name="agrave.a" 
d="M102 238c0 -132 68 -222 182 -222c59 0 119 34 176 94v276c-58 55 -111 76 -164 76c-108 0 -194 -100 -194 -224zM70 238c0 154 107 252 228 252c62 0 111 -26 160 -68h2l4 56h26v-478h-26l-4 74h-2c-43 -45 -106 -86 -176 -86c-126 0 -212 88 -212 250zM326 572
l-104 134h40l92 -134h-28z" />
    </font>
</defs>
</svg>
