<?xml version="1.0" standalone="no"?>
<!DOCTYPE svg PUBLIC "-//W3C//DTD SVG 1.1//EN" "http://www.w3.org/Graphics/SVG/1.1/DTD/svg11.dtd" >
<svg version="1.1" xmlns="http://www.w3.org/2000/svg">
<metadata>
Created by FontForge 20120731 at Fri Aug  1 16:50:38 2014
 By Alfred Xing
Copyright 2010, 2012 Adobe Systems Incorporated. All Rights Reserved.
</metadata>
<defs>
<font id="sourcecodepro" horiz-adv-x="600" >
  <font-face 
    font-family="Source Code Pro"
    font-weight="400"
    font-stretch="normal"
    units-per-em="1000"
    panose-1="2 11 5 9 3 4 3 2 2 4"
    ascent="750"
    descent="-250"
    x-height="486"
    cap-height="656"
    bbox="-39 -400 706 1000"
    underline-thickness="50"
    underline-position="-50"
    stemh="68"
    stemv="86"
    unicode-range="U+0020-FB02"
  />
<missing-glyph 
d="M62 0v660h476v-660h-476zM127 110l128 230l-128 232v-462zM345 340l127 -230v462zM170 58h257l-73 132l-52 103h-4l-54 -103zM298 387h4l49 94l66 119h-235l66 -119z" />
    <glyph glyph-name=".notdef" 
d="M62 0v660h476v-660h-476zM127 110l128 230l-128 232v-462zM345 340l127 -230v462zM170 58h257l-73 132l-52 103h-4l-54 -103zM298 387h4l49 94l66 119h-235l66 -119z" />
    <glyph glyph-name="space" unicode=" " 
 />
    <glyph glyph-name="exclam" unicode="!" 
d="M272 232l-10 344l-2 94h80l-2 -94l-10 -344h-56zM227 66c0 47 33 76 73 76s73 -29 73 -76c0 -48 -33 -78 -73 -78s-73 30 -73 78z" />
    <glyph glyph-name="quotedbl" unicode="&#x22;" 
d="M157 352l-25 225l-2 110h110l-1 -110l-26 -225h-56zM387 352l-26 225l-1 110h110l-2 -110l-25 -225h-56z" />
    <glyph glyph-name="numbersign" unicode="#" 
d="M142 0l24 204h-79v57h86l19 148h-85v58h91l24 183h53l-23 -183h132l24 183h53l-23 -183h81v-58h-87l-19 -148h86v-57h-93l-24 -204h-54l25 204h-133l-24 -204h-54zM227 261h132l19 148h-133z" />
    <glyph glyph-name="dollar" unicode="$" 
d="M495 541l-44 -48c-45 35 -80 57 -147 57s-110 -32 -110 -83c0 -110 318 -89 318 -272c0 -86 -71 -148 -176 -159v-146h-60v145c-74 6 -145 39 -191 78l39 57c50 -36 111 -68 186 -68c79 0 121 36 121 87c0 124 -317 102 -317 276c0 84 65 141 162 151v132h60v-131
c73 -6 119 -37 159 -76z" />
    <glyph glyph-name="percent" unicode="%" 
d="M166 321c-81 0 -140 62 -140 166s59 163 140 163c80 0 139 -59 139 -163s-59 -166 -139 -166zM166 370c43 0 77 39 77 117c0 80 -34 113 -77 113c-44 0 -78 -33 -78 -113c0 -78 34 -117 78 -117zM77 32l-48 45l183 188l32 -30zM524 624l48 -45l-183 -188l-33 30zM434 -12
c-80 0 -139 62 -139 167c0 103 59 162 139 162c81 0 140 -59 140 -162c0 -105 -59 -167 -140 -167zM434 38c44 0 78 38 78 117s-34 113 -78 113c-43 0 -77 -34 -77 -113s34 -117 77 -117z" />
    <glyph glyph-name="ampersand" unicode="&#x26;" 
d="M122 175c0 -73 56 -121 126 -121c41 0 81 20 115 52c-63 56 -122 125 -167 196c-42 -37 -74 -76 -74 -127zM192 514c0 -36 11 -75 30 -115c56 40 103 80 103 138c0 38 -16 72 -60 72c-46 0 -73 -41 -73 -95zM577 56l-23 -68c-43 13 -89 38 -137 75
c-48 -46 -105 -75 -179 -75c-116 0 -196 76 -196 182c0 86 59 141 123 188c-28 54 -44 108 -44 155c0 87 57 155 144 155c81 0 127 -53 127 -130c0 -84 -72 -139 -141 -192c42 -67 100 -132 160 -184c37 53 64 117 83 192h76c-24 -86 -58 -166 -106 -235
c40 -31 78 -52 113 -63z" />
    <glyph glyph-name="quotesingle" unicode="'" 
d="M272 352l-25 225l-2 110h110l-2 -110l-25 -225h-56z" />
    <glyph glyph-name="parenleft" unicode="(" 
d="M433 -176c-139 108 -225 261 -225 454s86 346 225 454l45 -42c-134 -113 -196 -244 -196 -412s62 -299 196 -412z" />
    <glyph glyph-name="parenright" unicode=")" 
d="M167 -176l-45 42c134 113 196 244 196 412s-62 299 -196 412l45 42c139 -108 225 -261 225 -454s-86 -346 -225 -454z" />
    <glyph glyph-name="asterisk" unicode="*" 
d="M180 111l-42 30l108 165l-162 70l16 46l167 -55l9 189h48l9 -189l167 55l16 -46l-162 -70l108 -165l-42 -30l-120 159z" />
    <glyph glyph-name="plus" unicode="+" 
d="M267 104v195h-182v62h182v195h66v-195h182v-62h-182v-195h-66z" />
    <glyph glyph-name="comma" unicode="," 
d="M220 -213l-23 52c82 37 123 88 126 167c-6 -1 -13 -2 -19 -2c-43 0 -78 25 -78 75c0 49 37 76 80 76c59 0 90 -50 90 -128c0 -117 -66 -199 -176 -240z" />
    <glyph glyph-name="hyphen" unicode="-" 
d="M85 299v62h430v-62h-430z" />
    <glyph glyph-name="period" unicode="." 
d="M219 72c0 51 36 85 81 85s81 -34 81 -85c0 -50 -36 -84 -81 -84s-81 34 -81 84z" />
    <glyph glyph-name="slash" unicode="/" 
d="M501 710l-328 -870h-74l328 870h74z" />
    <glyph glyph-name="zero" unicode="0" 
d="M300 -12c-142 0 -229 121 -229 333c0 214 87 329 229 329s229 -115 229 -329c0 -212 -87 -333 -229 -333zM300 584c-89 0 -152 -79 -152 -263c0 -183 63 -267 152 -267s152 84 152 267c0 184 -63 263 -152 263zM300 261c-33 0 -62 25 -62 67c0 41 29 66 62 66
s62 -25 62 -66c0 -42 -29 -67 -62 -67z" />
    <glyph glyph-name="one" unicode="1" 
d="M361 68h167v-68h-430v68h181v470h-136v53c68 10 117 26 157 47h61v-570z" />
    <glyph glyph-name="two" unicode="2" 
d="M73 0v49c216 191 335 303 335 409c0 73 -45 125 -139 125c-60 0 -112 -34 -153 -77l-47 47c57 58 120 97 210 97c128 0 208 -75 208 -188c0 -120 -120 -239 -294 -397c39 3 81 6 119 6h210v-71h-449z" />
    <glyph glyph-name="three" unicode="3" 
d="M57 78l42 54c42 -40 101 -76 183 -76c87 0 153 46 153 117c0 76 -64 127 -232 127v63c151 0 209 52 209 119c0 62 -52 101 -130 101c-60 0 -115 -27 -157 -65l-44 52c53 46 122 80 204 80c120 0 211 -59 211 -162c0 -77 -57 -126 -136 -152v-4c85 -18 158 -74 158 -162
c0 -113 -104 -182 -231 -182c-110 0 -183 43 -230 90z" />
    <glyph glyph-name="four" unicode="4" 
d="M130 242h238v198c1 35 3 78 5 113h-5c-20 -31 -44 -62 -65 -93zM545 242v-66h-99v-176h-78v176h-329v55l319 407h88v-396h99z" />
    <glyph glyph-name="five" unicode="5" 
d="M56 75l41 54c42 -38 94 -73 180 -73c90 0 162 57 162 146c0 88 -62 140 -157 140c-53 0 -85 -14 -130 -39l-44 28l21 307h361v-71h-288l-17 -189c37 16 69 26 118 26c122 0 219 -62 219 -200s-114 -216 -236 -216c-114 0 -181 43 -230 87z" />
    <glyph glyph-name="six" unicode="6" 
d="M321 53c76 0 135 56 135 140c0 87 -48 135 -136 135c-50 0 -109 -24 -163 -86c12 -123 71 -189 164 -189zM522 582l-46 -51c-33 31 -79 50 -127 50c-102 0 -192 -69 -195 -274c51 51 117 83 181 83c118 0 199 -66 199 -197c0 -122 -99 -205 -213 -205
c-139 0 -244 102 -244 307c0 256 128 355 267 355c78 0 136 -29 178 -68z" />
    <glyph glyph-name="seven" unicode="7" 
d="M226 0c11 242 66 388 212 567h-368v71h462v-51c-169 -193 -211 -337 -220 -587h-86z" />
    <glyph glyph-name="eight" unicode="8" 
d="M143 171c0 -71 63 -122 161 -122c95 0 148 46 148 112c0 89 -88 111 -200 149c-62 -34 -109 -75 -109 -139zM352 348c52 38 80 81 80 128c0 63 -45 113 -129 113c-71 0 -120 -41 -120 -103c0 -76 74 -108 169 -138zM68 163c0 88 69 138 137 170v4c-53 33 -97 82 -97 149
c0 98 83 164 197 164c125 0 198 -71 198 -170c0 -60 -44 -115 -97 -152v-4c70 -35 125 -75 125 -166c0 -95 -83 -170 -229 -170c-144 0 -234 74 -234 175z" />
    <glyph glyph-name="nine" unicode="9" 
d="M281 310c49 0 108 24 163 85c-13 124 -70 190 -164 190c-76 0 -135 -56 -135 -140c0 -87 47 -135 136 -135zM79 55l46 52c32 -31 78 -51 127 -51c101 0 190 70 194 274c-52 -51 -116 -82 -181 -82c-118 0 -198 66 -198 197c0 122 99 205 212 205c139 0 245 -102 245 -307
c0 -256 -129 -355 -267 -355c-78 0 -136 29 -178 67z" />
    <glyph glyph-name="colon" unicode=":" 
d="M219 431c0 50 36 84 81 84s81 -34 81 -84c0 -51 -36 -85 -81 -85s-81 34 -81 85zM219 72c0 51 36 85 81 85s81 -34 81 -85c0 -50 -36 -84 -81 -84s-81 34 -81 84z" />
    <glyph glyph-name="semicolon" unicode=";" 
d="M300 346c-45 0 -81 34 -81 85c0 50 36 84 81 84s81 -34 81 -84c0 -51 -36 -85 -81 -85zM220 -213l-23 52c82 37 123 88 126 167c-6 -1 -13 -2 -19 -2c-43 0 -78 25 -78 75c0 49 37 76 80 76c59 0 90 -50 90 -128c0 -117 -66 -199 -176 -240z" />
    <glyph glyph-name="less" unicode="&#x3c;" 
d="M120 301v62l373 253v-79l-301 -203v-4l301 -203v-79z" />
    <glyph glyph-name="equal" unicode="=" 
d="M85 406v62h430v-62h-430zM85 192v62h430v-62h-430z" />
    <glyph glyph-name="greater" unicode="&#x3e;" 
d="M480 363v-62l-373 -253v79l301 203v4l-301 203v79z" />
    <glyph glyph-name="question" unicode="?" 
d="M242 232c-24 143 156 183 156 285c0 55 -37 97 -110 97c-51 0 -94 -22 -130 -58l-49 45c45 47 107 81 184 81c111 0 186 -61 186 -156c0 -131 -182 -164 -164 -294h-73zM213 66c0 47 33 76 73 76s73 -29 73 -76c0 -48 -33 -78 -73 -78s-73 30 -73 78z" />
    <glyph glyph-name="at" unicode="@" 
d="M546 397v-297h-50l-7 58h-4c-29 -37 -80 -70 -132 -70c-71 0 -129 50 -129 131c0 102 94 150 264 171v14c0 96 -44 176 -149 176c-120 0 -227 -112 -227 -333c0 -214 101 -336 231 -336c60 0 102 16 141 45l28 -45c-52 -36 -105 -55 -171 -55c-158 0 -292 137 -292 394
c0 255 129 385 294 385c138 0 203 -103 203 -238zM290 221c0 -47 31 -75 80 -75c36 0 75 22 112 64v126c-138 -19 -192 -54 -192 -115z" />
    <glyph glyph-name="A" unicode="A" 
d="M201 267h196l-31 100c-23 73 -44 145 -65 221h-4c-21 -76 -42 -148 -65 -221zM480 0l-62 200h-238l-63 -200h-85l221 656h94l221 -656h-88z" />
    <glyph glyph-name="B" unicode="B" 
d="M103 0v656h180c134 0 225 -45 225 -160c0 -65 -38 -123 -115 -143v-4c96 -15 152 -67 152 -157c0 -129 -101 -192 -247 -192h-195zM187 376h82c112 0 157 40 157 113c0 71 -52 101 -153 101h-86v-214zM187 66h99c112 0 177 41 177 130c0 81 -62 118 -177 118h-99v-248z
" />
    <glyph glyph-name="C" unicode="C" 
d="M66 328c0 211 122 340 293 340c79 0 141 -38 179 -80l-47 -53c-34 36 -77 60 -132 60c-126 0 -207 -102 -207 -265c0 -165 81 -269 207 -269c60 0 105 26 147 73l48 -51c-52 -60 -116 -95 -200 -95c-165 0 -288 126 -288 340z" />
    <glyph glyph-name="D" unicode="D" 
d="M85 0v656h160c198 0 304 -117 304 -325c0 -209 -106 -331 -300 -331h-164zM168 68h72c149 0 223 97 223 263c0 165 -74 257 -223 257h-72v-520z" />
    <glyph glyph-name="E" unicode="E" 
d="M115 0v656h405v-70h-321v-206h271v-71h-271v-238h331v-71h-415z" />
    <glyph glyph-name="F" unicode="F" 
d="M135 0v656h401v-70h-318v-222h269v-70h-269v-294h-83z" />
    <glyph glyph-name="G" unicode="G" 
d="M53 328c0 212 121 340 291 340c87 0 144 -41 181 -80l-47 -53c-32 34 -71 60 -134 60c-123 0 -204 -102 -204 -265c0 -165 73 -269 202 -269c46 0 89 15 114 39v171h-131v69h208v-276c-42 -42 -111 -76 -196 -76c-165 0 -284 126 -284 340z" />
    <glyph glyph-name="H" unicode="H" 
d="M79 0v656h84v-275h274v275h84v-656h-84v309h-274v-309h-84z" />
    <glyph glyph-name="I" unicode="I" 
d="M95 0v71h163v515h-163v70h410v-70h-163v-515h163v-71h-410z" />
    <glyph glyph-name="J" unicode="J" 
d="M81 97l54 50c38 -58 88 -86 139 -86c94 0 136 48 136 156v370h-275v70h358v-447c0 -122 -54 -222 -217 -222c-74 0 -150 33 -195 109z" />
    <glyph glyph-name="K" unicode="K" 
d="M98 0v656h84v-329h3l276 329h94l-207 -250l231 -406h-93l-190 341l-114 -133v-208h-84z" />
    <glyph glyph-name="L" unicode="L" 
d="M134 0v656h82v-585h325v-71h-407z" />
    <glyph glyph-name="M" unicode="M" 
d="M81 0v656h92l93 -279l33 -106h4l32 106l92 279h92v-656h-71v369c0 54 6 149 10 202h-3l-43 -140l-90 -253h-45l-90 253l-44 140h-3c4 -53 11 -148 11 -202v-369h-70z" />
    <glyph glyph-name="N" unicode="N" 
d="M83 0v656h85l213 -414l66 -134h2c-3 65 -11 139 -11 208v340h79v-656h-85l-213 414l-66 134h-2c3 -67 11 -137 11 -205v-343h-79z" />
    <glyph glyph-name="O" unicode="O" 
d="M300 -12c-148 0 -252 132 -252 343c0 210 104 337 252 337s252 -128 252 -337c0 -211 -104 -343 -252 -343zM300 61c100 0 166 106 166 270c0 163 -66 264 -166 264s-166 -101 -166 -264c0 -164 66 -270 166 -270z" />
    <glyph glyph-name="P" unicode="P" 
d="M102 0v656h201c145 0 242 -49 242 -193c0 -138 -98 -203 -242 -203h-118v-260h-83zM185 328h107c115 0 170 42 170 135c0 95 -56 126 -170 126h-107v-261z" />
    <glyph glyph-name="Q" unicode="Q" 
d="M134 331c0 -163 64 -271 165 -271c100 0 164 108 164 271s-64 266 -164 266c-101 0 -165 -103 -165 -266zM538 -82l15 -67c-21 -8 -45 -14 -74 -14c-116 0 -188 66 -221 155c-126 22 -209 149 -209 339c0 210 101 338 250 338c148 0 249 -129 249 -338
c0 -187 -80 -313 -201 -338c22 -56 74 -85 142 -85c20 0 37 5 49 10z" />
    <glyph glyph-name="R" unicode="R" 
d="M183 589v-244h109c102 0 158 42 158 127c0 86 -56 117 -158 117h-109zM553 0h-95l-158 277h-117v-277h-83v656h204c133 0 229 -48 229 -184c0 -102 -58 -163 -147 -186z" />
    <glyph glyph-name="S" unicode="S" 
d="M67 85l50 58c49 -49 117 -82 189 -82c93 0 146 43 146 107c0 67 -51 88 -118 116l-94 41c-66 26 -142 73 -142 169c0 100 90 174 215 174c82 0 154 -33 202 -81l-44 -54c-43 38 -93 62 -158 62c-79 0 -130 -37 -130 -96c0 -63 61 -86 117 -109l92 -40
c81 -33 145 -78 145 -175c0 -104 -88 -187 -232 -187c-96 0 -179 38 -238 97z" />
    <glyph glyph-name="T" unicode="T" 
d="M258 0v586h-216v70h516v-70h-216v-586h-84z" />
    <glyph glyph-name="U" unicode="U" 
d="M79 248v408h84v-410c0 -136 59 -185 138 -185s139 49 139 185v410h81v-408c0 -188 -92 -260 -220 -260c-129 0 -222 72 -222 260z" />
    <glyph glyph-name="V" unicode="V" 
d="M252 0l-209 656h88l106 -354c23 -78 39 -140 63 -217h4c24 77 41 139 63 217l105 354h85l-208 -656h-97z" />
    <glyph glyph-name="W" unicode="W" 
d="M111 0l-101 657h83l53 -412c3 -55 10 -108 14 -162h3c14 54 29 108 42 162l69 242h59l69 -242c12 -53 27 -108 41 -162h4c4 54 10 108 14 162l50 412h79l-97 -657h-92l-75 275c-9 39 -17 79 -24 118h-3c-8 -39 -16 -79 -26 -118l-72 -275h-90z" />
    <glyph glyph-name="X" unicode="X" 
d="M54 0l196 339l-183 317h92l92 -168c17 -30 32 -57 53 -95h4c18 38 31 65 47 95l90 168h88l-183 -321l196 -335h-92l-99 177c-18 32 -36 65 -58 105h-4c-19 -40 -36 -73 -53 -105l-98 -177h-88z" />
    <glyph glyph-name="Y" unicode="Y" 
d="M258 0v234l-220 422h88l99 -195c25 -50 48 -100 75 -153h4c26 53 52 103 77 154l95 194h86l-220 -422v-234h-84z" />
    <glyph glyph-name="Z" unicode="Z" 
d="M65 0v50l367 537h-335v70h437v-50l-368 -536h373v-71h-474z" />
    <glyph glyph-name="bracketleft" unicode="[" 
d="M226 -152v860h276v-48h-211v-764h211v-48h-276z" />
    <glyph glyph-name="backslash" unicode="\" 
d="M427 -160l-328 870h74l328 -870h-74z" />
    <glyph glyph-name="bracketright" unicode="]" 
d="M99 -104h210v764h-210v48h276v-860h-276v48z" />
    <glyph glyph-name="asciicircum" unicode="^" 
d="M111 284l153 386h72l153 -386h-72l-66 176l-49 133h-4l-49 -133l-66 -176h-72z" />
    <glyph glyph-name="underscore" unicode="_" 
d="M60 -69h480v-71h-480v71z" />
    <glyph glyph-name="grave" unicode="`" 
d="M302 573l-117 148h90l90 -148h-63z" />
    <glyph glyph-name="a" unicode="a" 
d="M81 126c0 109 101 162 352 182c-2 66 -35 122 -129 122c-63 0 -125 -30 -170 -58l-32 56c49 32 131 70 216 70c133 0 197 -79 197 -200v-298h-67l-7 66h-3c-54 -42 -123 -78 -192 -78c-91 0 -165 51 -165 138zM161 132c0 -55 51 -78 107 -78c55 0 110 26 165 72v128
c-208 -17 -272 -58 -272 -122z" />
    <glyph glyph-name="b" unicode="b" 
d="M93 0v712h82v-194l-2 -94c46 45 108 74 165 74c131 0 202 -97 202 -247c0 -166 -104 -263 -220 -263c-47 0 -105 25 -151 66h-3l-7 -54h-66zM175 114c46 -41 97 -57 132 -57c85 0 148 73 148 193c0 107 -40 179 -137 179c-43 0 -93 -23 -143 -73v-242z" />
    <glyph glyph-name="c" unicode="c" 
d="M80 242c0 163 124 256 271 256c79 0 137 -32 177 -71l-41 -53c-40 35 -82 56 -133 56c-112 0 -189 -76 -189 -188c0 -111 75 -186 187 -186c60 0 110 27 151 61l36 -53c-53 -48 -121 -76 -193 -76c-152 0 -266 93 -266 254z" />
    <glyph glyph-name="d" unicode="d" 
d="M60 242c0 158 106 256 221 256c59 0 102 -24 147 -63l-3 90v187h82v-712h-68l-7 64h-3c-40 -41 -98 -76 -158 -76c-127 0 -211 92 -211 254zM145 243c0 -116 53 -186 143 -186c48 0 94 25 137 73v242c-44 41 -86 57 -128 57c-84 0 -152 -75 -152 -186z" />
    <glyph glyph-name="e" unicode="e" 
d="M69 242c0 159 121 256 247 256c139 0 221 -91 221 -228c0 -17 -1 -35 -3 -47h-380c4 -103 80 -169 186 -169c57 0 103 17 148 45l29 -54c-48 -31 -109 -57 -187 -57c-144 0 -261 95 -261 254zM153 282h308c0 97 -54 151 -144 151c-79 0 -151 -56 -164 -151z" />
    <glyph glyph-name="f" unicode="f" 
d="M578 696l-19 -62c-40 18 -71 23 -113 23c-87 0 -123 -48 -123 -127v-44h204v-67h-204v-419h-81v419h-139v62l139 5v41c0 119 62 197 196 197c48 0 94 -9 140 -28z" />
    <glyph glyph-name="g" unicode="g" 
d="M143 -81c0 -51 55 -86 159 -86c113 0 183 50 183 100c0 46 -37 59 -111 59h-95c-28 0 -53 2 -74 8c-46 -25 -62 -53 -62 -81zM72 -89c0 39 28 78 80 108v4c-26 14 -50 39 -50 80c0 31 21 66 58 91v4c-33 25 -60 68 -60 126c0 106 88 174 191 174c28 0 51 -4 72 -12h201
v-63h-130c23 -24 45 -59 45 -102c0 -104 -83 -167 -188 -167c-25 0 -55 6 -82 18c-24 -15 -38 -33 -38 -56c0 -39 37 -56 101 -56h109c125 0 185 -32 185 -114c0 -91 -105 -170 -270 -170c-142 0 -224 49 -224 135zM291 209c62 0 112 45 112 115c0 68 -50 114 -112 114
c-61 0 -112 -46 -112 -114c0 -70 51 -115 112 -115z" />
    <glyph glyph-name="h" unicode="h" 
d="M93 0v712h82v-194l-4 -115c52 54 108 95 184 95c115 0 168 -68 168 -196v-302h-82v291c0 92 -32 136 -112 136c-58 0 -97 -29 -154 -88v-339h-82z" />
    <glyph glyph-name="i" unicode="i" 
d="M90 419v67h308v-486h-82v419h-226zM348 586c-38 0 -66 25 -66 63c0 39 28 64 66 64c37 0 66 -25 66 -64c0 -38 -29 -63 -66 -63z" />
    <glyph glyph-name="j" unicode="j" 
d="M90 419v67h308v-498c0 -120 -47 -205 -204 -205c-51 0 -100 14 -139 33l27 61c35 -17 74 -27 111 -27c97 0 123 49 123 132v437h-226zM348 586c-38 0 -66 25 -66 63c0 39 28 64 66 64c37 0 66 -25 66 -64c0 -38 -29 -63 -66 -63z" />
    <glyph glyph-name="k" unicode="k" 
d="M106 0v712h82v-482h4l262 256h94l-194 -193l220 -293h-92l-179 243l-115 -111v-132h-82z" />
    <glyph glyph-name="l" unicode="l" 
d="M81 645v67h248v-555c0 -71 37 -101 95 -101c28 0 56 7 92 23l21 -62c-44 -16 -78 -29 -131 -29c-103 0 -159 60 -159 175v482h-166z" />
    <glyph glyph-name="m" unicode="m" 
d="M60 0v486h64l7 -64h3c24 45 54 76 109 76c49 0 80 -28 92 -84c29 51 61 84 115 84c67 0 106 -53 106 -150v-348h-79v341c0 57 -17 86 -53 86c-35 0 -58 -25 -83 -75v-352h-66v341c0 57 -19 86 -55 86c-34 0 -56 -25 -81 -75v-352h-79z" />
    <glyph glyph-name="n" unicode="n" 
d="M93 0v486h68l7 -83h4c51 54 107 95 183 95c115 0 168 -68 168 -196v-302h-82v291c0 92 -32 136 -112 136c-58 0 -97 -29 -154 -88v-339h-82z" />
    <glyph glyph-name="o" unicode="o" 
d="M60 242c0 163 112 256 240 256s240 -93 240 -256c0 -161 -112 -254 -240 -254s-240 93 -240 254zM145 242c0 -111 62 -186 155 -186s155 75 155 186c0 112 -62 188 -155 188s-155 -76 -155 -188z" />
    <glyph glyph-name="p" unicode="p" 
d="M173 51l2 -92v-164h-82v691h68l7 -62h3c45 43 108 74 168 74c131 0 201 -97 201 -248c0 -165 -104 -262 -221 -262c-45 0 -102 23 -146 63zM175 114c46 -41 97 -57 130 -57c87 0 150 73 150 193c0 107 -40 179 -137 179c-43 0 -93 -23 -143 -73v-242z" />
    <glyph glyph-name="q" unicode="q" 
d="M60 242c0 158 106 256 221 256c59 0 104 -23 150 -66h3l7 54h66v-691h-82v179l4 88c-43 -41 -99 -74 -158 -74c-127 0 -211 92 -211 254zM145 243c0 -116 53 -186 143 -186c48 0 94 25 137 73v242c-44 41 -86 57 -128 57c-84 0 -152 -75 -152 -186z" />
    <glyph glyph-name="r" unicode="r" 
d="M146 0v486h68l7 -115h3c51 78 127 127 217 127c36 0 66 -5 96 -20l-19 -71c-34 12 -52 17 -90 17c-73 0 -142 -38 -200 -139v-285h-82z" />
    <glyph glyph-name="s" unicode="s" 
d="M72 64l40 54c54 -40 114 -66 201 -66s130 34 130 76c0 38 -39 65 -158 94c-100 25 -185 69 -185 138c0 78 70 138 204 138c73 0 147 -29 195 -62l-40 -53c-43 30 -95 51 -155 51c-91 0 -120 -32 -120 -70c0 -40 60 -64 148 -86c131 -33 194 -71 194 -145
c0 -79 -77 -145 -216 -145c-95 0 -179 35 -238 76z" />
    <glyph glyph-name="t" unicode="t" 
d="M206 189v230h-137v62l140 5l11 136h68v-136h239v-67h-239v-231c0 -87 29 -133 123 -133c46 0 83 9 117 22l18 -60c-44 -16 -100 -29 -153 -29c-141 0 -187 81 -187 201z" />
    <glyph glyph-name="u" unicode="u" 
d="M505 486v-486h-67l-7 85h-4c-49 -57 -106 -97 -181 -97c-116 0 -169 68 -169 196v302h83v-291c0 -92 31 -136 112 -136c56 0 97 27 151 90v337h82z" />
    <glyph glyph-name="v" unicode="v" 
d="M256 0l-205 486h83l112 -276c20 -49 38 -97 55 -143h4c17 46 33 94 53 143l112 276h79l-201 -486h-92z" />
    <glyph glyph-name="w" unicode="w" 
d="M117 0l-109 486h84l59 -281c9 -46 17 -90 24 -135h4c9 45 18 90 29 135l59 252h70l60 -252c11 -46 20 -90 30 -135h4c9 45 16 89 24 135l59 281h78l-106 -486h-99l-58 246c-9 46 -17 92 -27 141h-4c-8 -42 -15 -86 -27 -142l-56 -245h-98z" />
    <glyph glyph-name="x" unicode="x" 
d="M64 0l185 252l-171 234h91l77 -107c17 -26 37 -55 57 -82h4c18 27 38 57 55 84l73 105h87l-173 -241l186 -245h-90l-85 112c-20 28 -43 60 -64 88h-4c-20 -29 -40 -57 -60 -88l-80 -112h-88z" />
    <glyph glyph-name="y" unicode="y" 
d="M84 -134c13 -4 29 -7 44 -7c68 0 109 44 133 104l15 36l-227 487h83l119 -269c19 -43 40 -94 60 -141h4c17 46 36 97 52 141l106 269h78l-214 -526c-36 -96 -96 -169 -206 -169c-23 0 -47 4 -64 10z" />
    <glyph glyph-name="z" unicode="z" 
d="M71 0v44l333 375h-296v67h414v-44l-334 -375h344v-67h-461z" />
    <glyph glyph-name="braceleft" unicode="{" 
d="M256 -19c0 73 9 126 9 193c0 39 -27 77 -145 78v52c118 1 145 39 145 78c0 63 -9 124 -9 193c0 103 59 133 185 133h61v-48h-52c-102 0 -124 -25 -124 -90c0 -57 6 -119 6 -181c0 -65 -22 -97 -91 -109v-4c69 -12 91 -44 91 -109c0 -68 -6 -120 -6 -181
c0 -65 22 -90 124 -90h52v-48h-61c-126 0 -185 30 -185 133z" />
    <glyph glyph-name="bar" unicode="|" 
d="M263 -250v1000h74v-1000h-74z" />
    <glyph glyph-name="braceright" unicode="}" 
d="M99 -104h51c102 0 125 25 125 90c0 61 -6 113 -6 181c0 65 21 97 90 109v4c-69 12 -90 44 -90 109c0 62 6 124 6 181c0 65 -23 90 -125 90h-51v48h61c125 0 184 -30 184 -133c0 -69 -9 -130 -9 -193c0 -39 27 -77 145 -78v-52c-118 -1 -145 -39 -145 -78
c0 -67 9 -120 9 -193c0 -103 -59 -133 -184 -133h-61v48z" />
    <glyph glyph-name="asciitilde" unicode="~" 
d="M129 255l-53 23c35 94 85 125 136 125c79 0 121 -84 178 -84c31 0 58 16 81 86l53 -24c-35 -93 -85 -124 -136 -124c-79 0 -121 84 -178 84c-31 0 -58 -17 -81 -86z" />
    <glyph glyph-name="uni00A0" unicode="&#xa0;" 
 />
    <glyph glyph-name="exclamdown" unicode="&#xa1;" 
d="M328 254l10 -344l2 -94h-80l2 94l10 344h56zM373 421c0 -48 -33 -77 -73 -77s-73 29 -73 77c0 47 33 77 73 77s73 -30 73 -77z" />
    <glyph glyph-name="cent" unicode="&#xa2;" 
d="M314 142v335c-74 -17 -120 -79 -120 -167c0 -89 45 -151 120 -168zM470 185l36 -52c-40 -35 -89 -59 -141 -63v-103h-51v104c-119 13 -201 98 -201 239c0 138 88 222 201 237v106h51v-103c58 -3 100 -29 131 -58l-40 -52c-26 24 -56 40 -91 42v-344c42 3 77 23 105 47z
" />
    <glyph glyph-name="sterling" unicode="&#xa3;" 
d="M200 71h331v-71h-453v50c83 37 124 105 124 180c0 19 -3 37 -8 55h-117v52l99 4c-15 42 -32 83 -32 125c0 113 83 184 210 184c82 0 137 -32 176 -75l-48 -47c-31 31 -68 53 -124 53c-87 0 -135 -48 -135 -117c0 -42 15 -81 30 -123h189v-56h-173c4 -18 6 -36 6 -56
c0 -70 -25 -113 -75 -154v-4z" />
    <glyph glyph-name="currency" unicode="&#xa4;" 
d="M102 83l-44 45l84 85c-23 31 -36 70 -36 116s13 86 35 117l-83 86l44 45l87 -90c31 24 70 37 111 37c40 0 79 -13 111 -37l87 90l44 -45l-84 -86c23 -31 36 -71 36 -117s-14 -85 -36 -116l84 -85l-44 -45l-88 89c-31 -25 -70 -38 -110 -38c-41 0 -79 13 -111 38zM182 329
c0 -80 53 -134 118 -134s118 54 118 134s-53 134 -118 134s-118 -54 -118 -134z" />
    <glyph glyph-name="yen" unicode="&#xa5;" 
d="M53 638h85l92 -171c23 -44 44 -88 69 -135h4c24 47 46 91 70 135l92 171h82l-186 -320h162v-47h-183v-65h183v-48h-183v-158h-82v158h-181v48h181v65h-181v47h161z" />
    <glyph glyph-name="brokenbar" unicode="&#xa6;" 
d="M263 291v459h74v-459h-74zM263 214h74v-464h-74v464z" />
    <glyph glyph-name="section" unicode="&#xa7;" 
d="M371 192c43 19 67 41 67 86c0 90 -123 109 -208 158c-41 -21 -68 -47 -68 -88c0 -88 124 -106 209 -156zM463 627l-40 -53c-34 26 -71 46 -117 46c-56 0 -80 -29 -80 -63c0 -108 283 -89 283 -273c0 -64 -36 -101 -90 -130c18 -21 29 -47 29 -81
c0 -79 -66 -137 -161 -137c-73 0 -137 27 -179 71l50 45c35 -32 73 -52 129 -52c54 0 86 31 86 69c0 114 -282 89 -282 274c0 59 38 102 91 130c-19 21 -31 47 -31 81c0 69 51 130 151 130c66 0 121 -26 161 -57z" />
    <glyph glyph-name="dieresis" unicode="&#xa8;" 
d="M204 588c-32 0 -54 24 -54 55s22 55 54 55c31 0 54 -24 54 -55s-23 -55 -54 -55zM396 588c-31 0 -54 24 -54 55s23 55 54 55c32 0 54 -24 54 -55s-22 -55 -54 -55z" />
    <glyph glyph-name="copyright" unicode="&#xa9;" 
d="M30 323c0 204 117 330 270 330s270 -126 270 -330s-117 -334 -270 -334s-270 130 -270 334zM76 323c0 -175 90 -292 224 -292s224 117 224 292s-90 289 -224 289s-224 -114 -224 -289zM146 323c0 116 78 189 165 189c47 0 78 -20 104 -47l-34 -39c-21 19 -40 31 -67 31
c-61 0 -102 -56 -102 -134c0 -88 39 -143 98 -143c35 0 58 15 81 34l30 -42c-30 -27 -63 -47 -113 -47c-90 0 -162 74 -162 198z" />
    <glyph glyph-name="ordfeminine" unicode="&#xaa;" 
d="M167 345c0 70 67 105 211 120c-1 40 -18 74 -70 74c-38 0 -74 -17 -103 -34l-25 43c34 20 85 42 138 42c84 0 124 -51 124 -135v-195h-52l-5 37h-2c-32 -25 -71 -45 -113 -45c-57 0 -103 36 -103 93zM230 349c0 -32 26 -47 59 -47c30 0 59 15 89 40v82
c-108 -12 -148 -37 -148 -75z" />
    <glyph glyph-name="guillemotleft" unicode="&#xab;" 
d="M235 52l-153 160v80l153 160l39 -35l-127 -165l127 -166zM464 52l-152 160v80l152 160l40 -35l-127 -165l127 -166z" />
    <glyph glyph-name="logicalnot" unicode="&#xac;" 
d="M85 299v62h430v-257h-66v195h-364z" />
    <glyph glyph-name="uni00AD" unicode="&#xad;" 
d="M85 299v62h430v-62h-430z" />
    <glyph glyph-name="registered" unicode="&#xae;" 
d="M300 319c-104 0 -188 80 -188 197s84 197 188 197c103 0 188 -80 188 -197s-85 -197 -188 -197zM300 356c84 0 148 65 148 160c0 94 -64 161 -148 161s-149 -67 -149 -161c0 -95 65 -160 149 -160zM227 417v203h76c42 0 79 -17 79 -65c0 -24 -16 -47 -38 -55l46 -83h-46
l-35 70h-41v-70h-41zM268 519h26c27 0 44 12 44 34c0 20 -12 33 -42 33h-28v-67z" />
    <glyph glyph-name="macron" unicode="&#xaf;" 
d="M177 601v57h246v-57h-246z" />
    <glyph glyph-name="degree" unicode="&#xb0;" 
d="M300 429c-67 0 -125 50 -125 127c0 79 58 129 125 129s126 -50 126 -129c0 -77 -59 -127 -126 -127zM300 475c45 0 76 34 76 81c0 49 -31 83 -76 83c-44 0 -75 -34 -75 -83c0 -47 31 -81 75 -81z" />
    <glyph glyph-name="plusminus" unicode="&#xb1;" 
d="M267 127v177h-182v62h182v190h66v-190h182v-62h-182v-177h-66zM85 0v62h430v-62h-430z" />
    <glyph glyph-name="two.sups" unicode="&#xb2;" 
d="M184 440v36c104 79 161 126 161 170c0 36 -22 59 -61 59c-27 0 -52 -17 -71 -42l-40 33c30 35 71 61 119 61c72 0 115 -37 115 -103c0 -54 -54 -101 -121 -161h136v-53h-238z" />
    <glyph glyph-name="three.sups" unicode="&#xb3;" 
d="M172 482l32 39c20 -24 55 -43 91 -43s62 14 62 47c0 34 -31 51 -96 51v38c55 0 81 20 81 51c0 26 -17 43 -55 43c-24 0 -53 -14 -73 -34l-30 38c25 27 69 45 115 45c62 0 106 -31 106 -84c0 -38 -17 -61 -56 -75c43 -10 71 -36 71 -77c0 -59 -53 -93 -121 -93
c-46 0 -94 20 -127 54z" />
    <glyph glyph-name="acute" unicode="&#xb4;" 
d="M415 721l-117 -148h-63l90 148h90z" />
    <glyph glyph-name="uni00B5" unicode="&#xb5;" 
d="M77 -187v673h83v-291c0 -89 33 -136 109 -136c51 0 100 18 154 111v316h83c-3 -131 -5 -278 -5 -394c0 -26 12 -36 27 -36c5 0 9 0 18 2l12 -62c-12 -5 -27 -8 -48 -8c-51 0 -72 34 -79 111h-3c-42 -74 -98 -109 -160 -109c-47 0 -88 10 -114 53c0 -101 1 -150 6 -230
h-83z" />
    <glyph glyph-name="paragraph" unicode="&#xb6;" 
d="M404 -80v736h81v-736h-81zM350 656v-430h-32c-141 0 -246 66 -246 217c0 157 101 213 235 213h43z" />
    <glyph glyph-name="periodcentered" unicode="&#xb7;" 
d="M219 347c0 50 36 85 81 85s81 -35 81 -85s-36 -84 -81 -84s-81 34 -81 84z" />
    <glyph glyph-name="cedilla" unicode="&#xb8;" 
d="M247 -75l40 78h54l-26 -53c33 -11 59 -30 59 -71c0 -58 -69 -85 -144 -92l-8 41c52 7 88 21 88 48c0 26 -22 39 -63 49z" />
    <glyph glyph-name="one.sups" unicode="&#xb9;" 
d="M290 440v230h-82v42c44 7 67 17 95 33h50v-305h-63z" />
    <glyph glyph-name="ordmasculine" unicode="&#xba;" 
d="M142 421c0 107 74 169 158 169c85 0 158 -62 158 -169s-73 -169 -158 -169c-84 0 -158 62 -158 169zM208 421c0 -70 35 -117 92 -117s92 47 92 117c0 69 -35 117 -92 117s-92 -48 -92 -117z" />
    <glyph glyph-name="guillemotright" unicode="&#xbb;" 
d="M96 86l127 166l-127 165l40 35l152 -160v-80l-152 -160zM326 86l127 166l-127 165l39 35l153 -160v-80l-153 -160z" />
    <glyph glyph-name="onequarter" unicode="&#xbc;" 
d="M572 579l-183 -188l-33 30l167 203zM156 333v230h-82v42c44 7 67 16 94 33h51v-305h-63zM28 77l183 188l33 -30l-167 -203zM370 116h98v56l5 82h-4l-45 -65zM575 116v-43h-50v-73h-57v73h-162v31l148 201h71v-189h50z" />
    <glyph glyph-name="onehalf" unicode="&#xbd;" 
d="M156 333v230h-82v42c44 7 67 16 94 33h51v-305h-63zM77 32l-49 45l183 188l33 -30zM523 624l49 -45l-183 -188l-33 30zM318 0v36c104 79 161 126 161 170c0 36 -22 59 -61 59c-27 0 -52 -17 -71 -42l-39 33c29 35 70 61 118 61c72 0 116 -37 116 -103
c0 -54 -55 -101 -121 -161h136v-53h-239z" />
    <glyph glyph-name="threequarters" unicode="&#xbe;" 
d="M597 579l-183 -188l-33 30l168 203zM54 77l183 188l32 -30l-167 -203zM79 567l-30 38c26 27 69 45 116 45c61 0 106 -32 106 -84c0 -38 -17 -61 -56 -75c43 -10 70 -36 70 -77c0 -59 -52 -93 -120 -93c-46 0 -94 20 -127 54l31 39c21 -24 56 -44 91 -44c36 0 62 15 62 47
c0 35 -31 52 -95 52v38c55 0 81 20 81 50c0 26 -17 43 -55 43c-24 0 -54 -13 -74 -33zM371 116h97v56l5 82h-4l-44 -65zM526 305v-189h50v-43h-50v-73h-58v73h-162v31l149 201h71z" />
    <glyph glyph-name="questiondown" unicode="&#xbf;" 
d="M359 254c24 -143 -156 -183 -156 -285c0 -55 38 -96 111 -96c50 0 94 21 130 57l48 -45c-44 -47 -107 -81 -184 -81c-111 0 -185 61 -185 156c0 131 181 164 163 294h73zM389 421c0 -48 -34 -77 -74 -77s-73 29 -73 77c0 47 33 77 73 77s74 -30 74 -77z" />
    <glyph glyph-name="Agrave" unicode="&#xc0;" 
d="M351 706h-69l-113 112h94zM201 267h196l-31 100c-23 73 -44 145 -65 221h-4c-21 -76 -42 -148 -65 -221zM480 0l-62 200h-238l-63 -200h-85l221 656h94l221 -656h-88z" />
    <glyph glyph-name="Aacute" unicode="&#xc1;" 
d="M431 818l-113 -112h-69l88 112h94zM201 267h196l-31 100c-23 73 -44 145 -65 221h-4c-21 -76 -42 -148 -65 -221zM480 0l-62 200h-238l-63 -200h-85l221 656h94l221 -656h-88z" />
    <glyph glyph-name="Acircumflex" unicode="&#xc2;" 
d="M298 774l-67 -68h-67l96 112h80l96 -112h-67l-67 68h-4zM201 267h196l-31 100c-23 73 -44 145 -65 221h-4c-21 -76 -42 -148 -65 -221zM480 0l-62 200h-238l-63 -200h-85l221 656h94l221 -656h-88z" />
    <glyph glyph-name="Atilde" unicode="&#xc3;" 
d="M399 819h46c-6 -61 -37 -108 -85 -108c-53 0 -82 52 -119 52c-19 0 -35 -18 -40 -52h-46c6 62 37 108 85 108c53 0 82 -52 119 -52c19 0 35 19 40 52zM201 267h196l-31 100c-23 73 -44 145 -65 221h-4c-21 -76 -42 -148 -65 -221zM480 0l-62 200h-238l-63 -200h-85
l221 656h94l221 -656h-88z" />
    <glyph glyph-name="Adieresis" unicode="&#xc4;" 
d="M386 715c-28 0 -49 21 -49 49c0 29 21 49 49 49c29 0 49 -20 49 -49c0 -28 -20 -49 -49 -49zM214 715c-29 0 -49 21 -49 49c0 29 20 49 49 49c28 0 49 -20 49 -49c0 -28 -21 -49 -49 -49zM201 267h196l-31 100c-23 73 -44 145 -65 221h-4c-21 -76 -42 -148 -65 -221z
M480 0l-62 200h-238l-63 -200h-85l221 656h94l221 -656h-88z" />
    <glyph glyph-name="Aring" unicode="&#xc5;" 
d="M300 838c-27 0 -48 -20 -48 -51c0 -33 21 -52 48 -52c25 0 47 19 47 52c0 31 -22 51 -47 51zM300 699c-54 0 -93 34 -93 88c0 53 39 88 93 88c53 0 93 -35 93 -88c0 -54 -40 -88 -93 -88zM201 267h196l-31 100c-23 73 -44 145 -65 221h-4c-21 -76 -42 -148 -65 -221z
M480 0l-62 200h-238l-63 -200h-85l221 656h94l221 -656h-88z" />
    <glyph glyph-name="AE" unicode="&#xc6;" 
d="M185 258h132v332h-3c-27 -72 -56 -142 -83 -213zM393 71h198v-71h-274v191h-158l-73 -191h-87l260 656h323v-70h-189v-205h147v-71h-147v-239z" />
    <glyph glyph-name="Ccedilla" unicode="&#xc7;" 
d="M506 134l48 -51c-49 -56 -108 -91 -185 -95l-19 -38c33 -11 60 -30 60 -71c0 -58 -69 -85 -145 -92l-8 41c52 7 89 21 89 48c0 26 -23 39 -64 49l34 65c-146 19 -250 141 -250 338c0 211 122 340 293 340c79 0 141 -38 179 -80l-47 -53c-34 36 -77 60 -132 60
c-126 0 -207 -102 -207 -265c0 -165 81 -269 207 -269c60 0 105 26 147 73z" />
    <glyph glyph-name="Egrave" unicode="&#xc8;" 
d="M115 0v656h405v-70h-321v-206h271v-71h-271v-238h331v-71h-415zM313 706l-113 112h94l88 -112h-69z" />
    <glyph glyph-name="Eacute" unicode="&#xc9;" 
d="M115 0v656h405v-70h-321v-206h271v-71h-271v-238h331v-71h-415zM462 818l-113 -112h-69l88 112h94z" />
    <glyph glyph-name="Ecircumflex" unicode="&#xca;" 
d="M115 0v656h405v-70h-321v-206h271v-71h-271v-238h331v-71h-415zM262 706h-67l96 112h79l96 -112h-66l-67 68h-4z" />
    <glyph glyph-name="Edieresis" unicode="&#xcb;" 
d="M115 0v656h405v-70h-321v-206h271v-71h-271v-238h331v-71h-415zM244 715c-28 0 -49 21 -49 49c0 29 21 49 49 49c29 0 49 -20 49 -49c0 -28 -20 -49 -49 -49zM417 715c-28 0 -49 21 -49 49c0 29 21 49 49 49s49 -20 49 -49c0 -28 -21 -49 -49 -49z" />
    <glyph glyph-name="Igrave" unicode="&#xcc;" 
d="M95 0v71h163v515h-163v70h410v-70h-163v-515h163v-71h-410zM282 706l-113 112h94l88 -112h-69z" />
    <glyph glyph-name="Iacute" unicode="&#xcd;" 
d="M95 0v71h163v515h-163v70h410v-70h-163v-515h163v-71h-410zM431 818l-113 -112h-69l88 112h94z" />
    <glyph glyph-name="Icircumflex" unicode="&#xce;" 
d="M95 0v71h163v515h-163v70h410v-70h-163v-515h163v-71h-410zM231 706h-67l96 112h80l96 -112h-67l-67 68h-4z" />
    <glyph glyph-name="Idieresis" unicode="&#xcf;" 
d="M95 0v71h163v515h-163v70h410v-70h-163v-515h163v-71h-410zM214 715c-29 0 -49 21 -49 49c0 29 20 49 49 49c28 0 49 -20 49 -49c0 -28 -21 -49 -49 -49zM386 715c-28 0 -49 21 -49 49c0 29 21 49 49 49c29 0 49 -20 49 -49c0 -28 -20 -49 -49 -49z" />
    <glyph glyph-name="Eth" unicode="&#xd0;" 
d="M91 0v321h-75v42l75 5v288h161c196 0 303 -117 303 -325c0 -209 -107 -331 -300 -331h-164zM174 68h72c149 0 223 97 223 263c0 165 -74 257 -223 257h-72v-220h143v-47h-143v-253z" />
    <glyph glyph-name="Ntilde" unicode="&#xd1;" 
d="M83 0v656h85l213 -414l66 -134h2c-3 65 -11 139 -11 208v340h79v-656h-85l-213 414l-66 134h-2c3 -67 11 -137 11 -205v-343h-79zM366 711c-53 0 -82 52 -119 52c-19 0 -35 -18 -40 -52h-46c6 62 37 108 85 108c53 0 82 -52 119 -52c19 0 35 19 40 52h46
c-6 -61 -37 -108 -85 -108z" />
    <glyph glyph-name="Ograve" unicode="&#xd2;" 
d="M300 -12c-148 0 -252 132 -252 343c0 210 104 337 252 337s252 -128 252 -337c0 -211 -104 -343 -252 -343zM300 61c100 0 166 106 166 270c0 163 -66 264 -166 264s-166 -101 -166 -264c0 -164 66 -270 166 -270zM282 706l-113 112h94l88 -112h-69z" />
    <glyph glyph-name="Oacute" unicode="&#xd3;" 
d="M300 -12c-148 0 -252 132 -252 343c0 210 104 337 252 337s252 -128 252 -337c0 -211 -104 -343 -252 -343zM300 61c100 0 166 106 166 270c0 163 -66 264 -166 264s-166 -101 -166 -264c0 -164 66 -270 166 -270zM431 818l-113 -112h-69l88 112h94z" />
    <glyph glyph-name="Ocircumflex" unicode="&#xd4;" 
d="M300 -12c-148 0 -252 132 -252 343c0 210 104 337 252 337s252 -128 252 -337c0 -211 -104 -343 -252 -343zM300 61c100 0 166 106 166 270c0 163 -66 264 -166 264s-166 -101 -166 -264c0 -164 66 -270 166 -270zM231 706h-67l96 112h80l96 -112h-67l-67 68h-4z" />
    <glyph glyph-name="Otilde" unicode="&#xd5;" 
d="M300 -12c-148 0 -252 132 -252 343c0 210 104 337 252 337s252 -128 252 -337c0 -211 -104 -343 -252 -343zM300 61c100 0 166 106 166 270c0 163 -66 264 -166 264s-166 -101 -166 -264c0 -164 66 -270 166 -270zM360 711c-53 0 -82 52 -119 52c-19 0 -35 -18 -40 -52
h-46c6 62 37 108 85 108c53 0 82 -52 119 -52c19 0 35 19 40 52h46c-6 -61 -37 -108 -85 -108z" />
    <glyph glyph-name="Odieresis" unicode="&#xd6;" 
d="M300 -12c-148 0 -252 132 -252 343c0 210 104 337 252 337s252 -128 252 -337c0 -211 -104 -343 -252 -343zM300 61c100 0 166 106 166 270c0 163 -66 264 -166 264s-166 -101 -166 -264c0 -164 66 -270 166 -270zM214 715c-29 0 -49 21 -49 49c0 29 20 49 49 49
c28 0 49 -20 49 -49c0 -28 -21 -49 -49 -49zM386 715c-28 0 -49 21 -49 49c0 29 21 49 49 49c29 0 49 -20 49 -49c0 -28 -20 -49 -49 -49z" />
    <glyph glyph-name="multiply" unicode="&#xd7;" 
d="M146 126l-44 45l154 159l-154 158l44 45l154 -159l154 159l44 -45l-154 -158l154 -159l-44 -45l-154 160z" />
    <glyph glyph-name="Oslash" unicode="&#xd8;" 
d="M441 484l-249 -368c28 -35 65 -55 108 -55c100 0 166 106 166 270c0 60 -9 112 -25 153zM161 172l249 368c-28 35 -66 55 -110 55c-100 0 -166 -101 -166 -264c0 -62 9 -116 27 -159zM556 654l-63 -93c38 -57 59 -135 59 -230c0 -211 -104 -343 -252 -343
c-60 0 -112 21 -154 61l-53 -79l-48 32l63 93c-38 59 -60 139 -60 236c0 210 104 337 252 337c61 0 114 -21 155 -61l54 79z" />
    <glyph glyph-name="Ugrave" unicode="&#xd9;" 
d="M79 248v408h84v-410c0 -136 59 -185 138 -185s139 49 139 185v410h81v-408c0 -188 -92 -260 -220 -260c-129 0 -222 72 -222 260zM282 706l-113 112h94l88 -112h-69z" />
    <glyph glyph-name="Uacute" unicode="&#xda;" 
d="M79 248v408h84v-410c0 -136 59 -185 138 -185s139 49 139 185v410h81v-408c0 -188 -92 -260 -220 -260c-129 0 -222 72 -222 260zM431 818l-113 -112h-69l88 112h94z" />
    <glyph glyph-name="Ucircumflex" unicode="&#xdb;" 
d="M79 248v408h84v-410c0 -136 59 -185 138 -185s139 49 139 185v410h81v-408c0 -188 -92 -260 -220 -260c-129 0 -222 72 -222 260zM231 706h-67l96 112h80l96 -112h-67l-67 68h-4z" />
    <glyph glyph-name="Udieresis" unicode="&#xdc;" 
d="M79 248v408h84v-410c0 -136 59 -185 138 -185s139 49 139 185v410h81v-408c0 -188 -92 -260 -220 -260c-129 0 -222 72 -222 260zM214 715c-29 0 -49 21 -49 49c0 29 20 49 49 49c28 0 49 -20 49 -49c0 -28 -21 -49 -49 -49zM386 715c-28 0 -49 21 -49 49
c0 29 21 49 49 49c29 0 49 -20 49 -49c0 -28 -20 -49 -49 -49z" />
    <glyph glyph-name="Yacute" unicode="&#xdd;" 
d="M258 0v234l-220 422h88l99 -195c25 -50 48 -100 75 -153h4c26 53 52 103 77 154l95 194h86l-220 -422v-234h-84zM431 818l-113 -112h-69l88 112h94z" />
    <glyph glyph-name="Thorn" unicode="&#xde;" 
d="M101 0v656h84v-110h118c145 0 242 -50 242 -193c0 -139 -99 -203 -242 -203h-118v-150h-84zM185 218h107c115 0 170 41 170 135s-57 125 -170 125h-107v-260z" />
    <glyph glyph-name="germandbls" unicode="&#xdf;" 
d="M88 0v519c0 123 76 205 201 205c106 0 164 -69 164 -148c0 -100 -90 -133 -90 -202c0 -97 201 -79 201 -237c0 -84 -64 -149 -163 -149c-56 0 -102 17 -144 45l33 58c37 -26 70 -39 109 -39c56 0 87 37 87 78c0 116 -202 95 -202 234c0 91 90 122 90 207
c0 49 -31 86 -86 86c-73 0 -118 -51 -118 -150v-507h-82z" />
    <glyph glyph-name="agrave" unicode="&#xe0;" 
d="M81 126c0 109 101 162 352 182c-2 66 -35 122 -129 122c-63 0 -125 -30 -170 -58l-32 56c49 32 131 70 216 70c133 0 197 -79 197 -200v-298h-67l-7 66h-3c-54 -42 -123 -78 -192 -78c-91 0 -165 51 -165 138zM161 132c0 -55 51 -78 107 -78c55 0 110 26 165 72v128
c-208 -17 -272 -58 -272 -122zM316 573l-117 148h89l91 -148h-63z" />
    <glyph glyph-name="aacute" unicode="&#xe1;" 
d="M81 126c0 109 101 162 352 182c-2 66 -35 122 -129 122c-63 0 -125 -30 -170 -58l-32 56c49 32 131 70 216 70c133 0 197 -79 197 -200v-298h-67l-7 66h-3c-54 -42 -123 -78 -192 -78c-91 0 -165 51 -165 138zM161 132c0 -55 51 -78 107 -78c55 0 110 26 165 72v128
c-208 -17 -272 -58 -272 -122zM428 721l-116 -148h-64l91 148h89z" />
    <glyph glyph-name="acircumflex" unicode="&#xe2;" 
d="M81 126c0 109 101 162 352 182c-2 66 -35 122 -129 122c-63 0 -125 -30 -170 -58l-32 56c49 32 131 70 216 70c133 0 197 -79 197 -200v-298h-67l-7 66h-3c-54 -42 -123 -78 -192 -78c-91 0 -165 51 -165 138zM161 132c0 -55 51 -78 107 -78c55 0 110 26 165 72v128
c-208 -17 -272 -58 -272 -122zM181 573l97 148h71l97 -148h-63l-67 99h-4l-67 -99h-64z" />
    <glyph glyph-name="atilde" unicode="&#xe3;" 
d="M81 126c0 109 101 162 352 182c-2 66 -35 122 -129 122c-63 0 -125 -30 -170 -58l-32 56c49 32 131 70 216 70c133 0 197 -79 197 -200v-298h-67l-7 66h-3c-54 -42 -123 -78 -192 -78c-91 0 -165 51 -165 138zM161 132c0 -55 51 -78 107 -78c55 0 110 26 165 72v128
c-208 -17 -272 -58 -272 -122zM172 579c6 63 34 109 88 109c48 0 76 -54 108 -54c22 0 34 18 40 54h47c-6 -62 -34 -109 -87 -109c-49 0 -76 55 -109 55c-22 0 -34 -18 -40 -55h-47z" />
    <glyph glyph-name="adieresis" unicode="&#xe4;" 
d="M81 126c0 109 101 162 352 182c-2 66 -35 122 -129 122c-63 0 -125 -30 -170 -58l-32 56c49 32 131 70 216 70c133 0 197 -79 197 -200v-298h-67l-7 66h-3c-54 -42 -123 -78 -192 -78c-91 0 -165 51 -165 138zM161 132c0 -55 51 -78 107 -78c55 0 110 26 165 72v128
c-208 -17 -272 -58 -272 -122zM217 588c-31 0 -54 24 -54 55s23 55 54 55c32 0 54 -24 54 -55s-22 -55 -54 -55zM410 588c-32 0 -54 24 -54 55s22 55 54 55s54 -24 54 -55s-22 -55 -54 -55z" />
    <glyph glyph-name="aring" unicode="&#xe5;" 
d="M81 126c0 109 101 162 352 182c-2 66 -35 122 -129 122c-63 0 -125 -30 -170 -58l-32 56c49 32 131 70 216 70c133 0 197 -79 197 -200v-298h-67l-7 66h-3c-54 -42 -123 -78 -192 -78c-91 0 -165 51 -165 138zM161 132c0 -55 51 -78 107 -78c55 0 110 26 165 72v128
c-208 -17 -272 -58 -272 -122zM314 542c-55 0 -94 37 -94 93c0 55 39 92 94 92c54 0 93 -37 93 -92c0 -56 -39 -93 -93 -93zM314 579c26 0 48 22 48 56c0 33 -22 55 -48 55c-27 0 -49 -22 -49 -55c0 -34 22 -56 49 -56z" />
    <glyph glyph-name="ae" unicode="&#xe6;" 
d="M17 129c0 97 84 154 248 179c-1 72 -24 123 -87 123c-35 0 -83 -20 -114 -41l-31 56c40 26 95 52 155 52c63 0 103 -42 121 -98c32 62 77 98 141 98c99 0 147 -103 147 -222c0 -19 -2 -36 -4 -53h-258c4 -101 44 -169 122 -169c37 0 68 14 96 31l29 -54
c-33 -23 -78 -43 -128 -43c-70 0 -117 34 -149 91c-54 -59 -107 -91 -158 -91c-79 0 -130 54 -130 141zM334 278h194c0 83 -20 155 -85 155c-62 0 -103 -58 -109 -155zM93 133c0 -52 29 -79 74 -79c34 0 79 25 114 71c-10 29 -15 66 -16 104l-1 25
c-122 -21 -171 -59 -171 -121z" />
    <glyph glyph-name="ccedilla" unicode="&#xe7;" 
d="M369 -11l-18 -39c32 -11 59 -30 59 -71c0 -58 -69 -85 -145 -92l-8 41c52 7 89 21 89 48c0 26 -23 39 -64 49l33 64c-136 12 -235 103 -235 253c0 163 124 256 271 256c79 0 137 -32 177 -71l-41 -53c-40 35 -82 56 -133 56c-112 0 -189 -76 -189 -188
c0 -111 75 -186 187 -186c60 0 110 27 151 61l36 -53c-47 -43 -106 -70 -170 -75z" />
    <glyph glyph-name="egrave" unicode="&#xe8;" 
d="M69 242c0 159 121 256 247 256c139 0 221 -91 221 -228c0 -17 -1 -35 -3 -47h-380c4 -103 80 -169 186 -169c57 0 103 17 148 45l29 -54c-48 -31 -109 -57 -187 -57c-144 0 -261 95 -261 254zM153 282h308c0 97 -54 151 -144 151c-79 0 -151 -56 -164 -151zM316 573
l-116 148h89l91 -148h-64z" />
    <glyph glyph-name="eacute" unicode="&#xe9;" 
d="M69 242c0 159 121 256 247 256c139 0 221 -91 221 -228c0 -17 -1 -35 -3 -47h-380c4 -103 80 -169 186 -169c57 0 103 17 148 45l29 -54c-48 -31 -109 -57 -187 -57c-144 0 -261 95 -261 254zM153 282h308c0 97 -54 151 -144 151c-79 0 -151 -56 -164 -151zM429 721
l-116 -148h-64l91 148h89z" />
    <glyph glyph-name="ecircumflex" unicode="&#xea;" 
d="M69 242c0 159 121 256 247 256c139 0 221 -91 221 -228c0 -17 -1 -35 -3 -47h-380c4 -103 80 -169 186 -169c57 0 103 17 148 45l29 -54c-48 -31 -109 -57 -187 -57c-144 0 -261 95 -261 254zM153 282h308c0 97 -54 151 -144 151c-79 0 -151 -56 -164 -151zM182 573
l97 148h71l97 -148h-64l-66 99h-4l-67 -99h-64z" />
    <glyph glyph-name="edieresis" unicode="&#xeb;" 
d="M69 242c0 159 121 256 247 256c139 0 221 -91 221 -228c0 -17 -1 -35 -3 -47h-380c4 -103 80 -169 186 -169c57 0 103 17 148 45l29 -54c-48 -31 -109 -57 -187 -57c-144 0 -261 95 -261 254zM153 282h308c0 97 -54 151 -144 151c-79 0 -151 -56 -164 -151zM218 588
c-31 0 -53 24 -53 55s22 55 53 55c32 0 54 -24 54 -55s-22 -55 -54 -55zM411 588c-32 0 -54 24 -54 55s22 55 54 55s54 -24 54 -55s-22 -55 -54 -55z" />
    <glyph glyph-name="igrave" unicode="&#xec;" 
d="M90 419v67h308v-486h-82v419h-226zM350 573l-117 148h90l90 -148h-63z" />
    <glyph glyph-name="iacute" unicode="&#xed;" 
d="M90 419v67h308v-486h-82v419h-226zM462 721l-116 -148h-63l90 148h89z" />
    <glyph glyph-name="icircumflex" unicode="&#xee;" 
d="M90 419v67h308v-486h-82v419h-226zM216 573l96 148h71l97 -148h-63l-67 99h-4l-67 -99h-63z" />
    <glyph glyph-name="idieresis" unicode="&#xef;" 
d="M90 419v67h308v-486h-82v419h-226zM251 588c-31 0 -53 24 -53 55s22 55 53 55c32 0 54 -24 54 -55s-22 -55 -54 -55zM444 588c-32 0 -54 24 -54 55s22 55 54 55s54 -24 54 -55s-22 -55 -54 -55z" />
    <glyph glyph-name="eth" unicode="&#xf0;" 
d="M300 56c106 0 157 82 157 198c0 15 0 30 -1 44c-47 62 -104 85 -156 85c-107 0 -163 -69 -163 -161c0 -100 74 -166 163 -166zM509 671l-119 -61c88 -81 146 -192 146 -353c0 -160 -92 -269 -238 -269c-126 0 -238 89 -238 234c0 136 96 225 228 225
c62 0 122 -30 159 -80c-18 91 -60 157 -121 210l-150 -77l-23 41l132 68c-35 25 -75 47 -120 69l38 52c53 -25 103 -53 148 -87l135 69z" />
    <glyph glyph-name="ntilde" unicode="&#xf1;" 
d="M93 0v486h68l7 -83h4c51 54 107 95 183 95c115 0 168 -68 168 -196v-302h-82v291c0 92 -32 136 -112 136c-58 0 -97 -29 -154 -88v-339h-82zM176 579c7 63 35 109 88 109c48 0 77 -54 108 -54c22 0 34 18 41 54h46c-6 -62 -34 -109 -87 -109c-49 0 -76 55 -109 55
c-21 0 -34 -18 -40 -55h-47z" />
    <glyph glyph-name="ograve" unicode="&#xf2;" 
d="M60 242c0 163 112 256 240 256s240 -93 240 -256c0 -161 -112 -254 -240 -254s-240 93 -240 254zM145 242c0 -111 62 -186 155 -186s155 75 155 186c0 112 -62 188 -155 188s-155 -76 -155 -188zM302 573l-117 148h90l90 -148h-63z" />
    <glyph glyph-name="oacute" unicode="&#xf3;" 
d="M60 242c0 163 112 256 240 256s240 -93 240 -256c0 -161 -112 -254 -240 -254s-240 93 -240 254zM145 242c0 -111 62 -186 155 -186s155 75 155 186c0 112 -62 188 -155 188s-155 -76 -155 -188zM415 721l-117 -148h-63l90 148h90z" />
    <glyph glyph-name="ocircumflex" unicode="&#xf4;" 
d="M60 242c0 163 112 256 240 256s240 -93 240 -256c0 -161 -112 -254 -240 -254s-240 93 -240 254zM145 242c0 -111 62 -186 155 -186s155 75 155 186c0 112 -62 188 -155 188s-155 -76 -155 -188zM168 573l97 148h70l97 -148h-63l-67 99h-4l-67 -99h-63z" />
    <glyph glyph-name="otilde" unicode="&#xf5;" 
d="M60 242c0 163 112 256 240 256s240 -93 240 -256c0 -161 -112 -254 -240 -254s-240 93 -240 254zM145 242c0 -111 62 -186 155 -186s155 75 155 186c0 112 -62 188 -155 188s-155 -76 -155 -188zM158 579c7 63 35 109 88 109c48 0 77 -54 109 -54c21 0 34 18 40 54h47
c-7 -62 -35 -109 -88 -109c-49 0 -76 55 -109 55c-21 0 -34 -18 -40 -55h-47z" />
    <glyph glyph-name="odieresis" unicode="&#xf6;" 
d="M60 242c0 163 112 256 240 256s240 -93 240 -256c0 -161 -112 -254 -240 -254s-240 93 -240 254zM145 242c0 -111 62 -186 155 -186s155 75 155 186c0 112 -62 188 -155 188s-155 -76 -155 -188zM204 588c-32 0 -54 24 -54 55s22 55 54 55c31 0 54 -24 54 -55
s-23 -55 -54 -55zM396 588c-31 0 -54 24 -54 55s23 55 54 55c32 0 54 -24 54 -55s-22 -55 -54 -55z" />
    <glyph glyph-name="divide" unicode="&#xf7;" 
d="M300 456c-31 0 -54 22 -54 54c0 31 23 53 54 53s54 -22 54 -53c0 -32 -23 -54 -54 -54zM246 150c0 31 23 53 54 53s54 -22 54 -53c0 -32 -23 -54 -54 -54s-54 22 -54 54zM85 299v62h430v-62h-430z" />
    <glyph glyph-name="oslash" unicode="&#xf8;" 
d="M428 356l-227 -264c26 -24 60 -38 99 -38c93 0 155 77 155 188c0 44 -10 83 -27 114zM172 130l226 264c-25 24 -59 38 -98 38c-93 0 -155 -78 -155 -190c0 -44 10 -82 27 -112zM534 480l-53 -62c36 -43 59 -103 59 -176c0 -161 -112 -254 -240 -254
c-54 0 -105 17 -146 48l-51 -59l-37 29l53 62c-36 43 -59 102 -59 174c0 163 112 256 240 256c54 0 105 -17 146 -48l51 59z" />
    <glyph glyph-name="ugrave" unicode="&#xf9;" 
d="M505 486v-486h-67l-7 85h-4c-49 -57 -106 -97 -181 -97c-116 0 -169 68 -169 196v302h83v-291c0 -92 31 -136 112 -136c56 0 97 27 151 90v337h82zM297 573l-117 148h89l91 -148h-63z" />
    <glyph glyph-name="uacute" unicode="&#xfa;" 
d="M505 486v-486h-67l-7 85h-4c-49 -57 -106 -97 -181 -97c-116 0 -169 68 -169 196v302h83v-291c0 -92 31 -136 112 -136c56 0 97 27 151 90v337h82zM409 721l-116 -148h-64l91 148h89z" />
    <glyph glyph-name="ucircumflex" unicode="&#xfb;" 
d="M505 486v-486h-67l-7 85h-4c-49 -57 -106 -97 -181 -97c-116 0 -169 68 -169 196v302h83v-291c0 -92 31 -136 112 -136c56 0 97 27 151 90v337h82zM162 573l97 148h71l97 -148h-63l-67 99h-4l-67 -99h-64z" />
    <glyph glyph-name="udieresis" unicode="&#xfc;" 
d="M505 486v-486h-67l-7 85h-4c-49 -57 -106 -97 -181 -97c-116 0 -169 68 -169 196v302h83v-291c0 -92 31 -136 112 -136c56 0 97 27 151 90v337h82zM198 588c-31 0 -53 24 -53 55s22 55 53 55c32 0 54 -24 54 -55s-22 -55 -54 -55zM391 588c-32 0 -54 24 -54 55
s22 55 54 55s54 -24 54 -55s-22 -55 -54 -55z" />
    <glyph glyph-name="yacute" unicode="&#xfd;" 
d="M84 -134c13 -4 29 -7 44 -7c68 0 109 44 133 104l15 36l-227 487h83l119 -269c19 -43 40 -94 60 -141h4c17 46 36 97 52 141l106 269h78l-214 -526c-36 -96 -96 -169 -206 -169c-23 0 -47 4 -64 10zM419 721l-117 -148h-63l90 148h90z" />
    <glyph glyph-name="thorn" unicode="&#xfe;" 
d="M175 -41v-164h-82v917h82v-201l-2 -87c47 45 107 74 164 74c131 0 203 -97 203 -248c0 -165 -106 -262 -221 -262c-48 0 -101 25 -145 63zM175 114c46 -41 96 -57 130 -57c85 0 150 73 150 193c0 107 -41 179 -138 179c-43 0 -92 -23 -142 -73v-242z" />
    <glyph glyph-name="ydieresis" unicode="&#xff;" 
d="M84 -134c13 -4 29 -7 44 -7c68 0 109 44 133 104l15 36l-227 487h83l119 -269c19 -43 40 -94 60 -141h4c17 46 36 97 52 141l106 269h78l-214 -526c-36 -96 -96 -169 -206 -169c-23 0 -47 4 -64 10zM208 588c-32 0 -54 24 -54 55s22 55 54 55s54 -24 54 -55
s-22 -55 -54 -55zM401 588c-32 0 -54 24 -54 55s22 55 54 55c31 0 53 -24 53 -55s-22 -55 -53 -55z" />
    <glyph glyph-name="Amacron" unicode="&#x100;" 
d="M424 786v-57h-248v57h248zM201 267h196l-31 100c-23 73 -44 145 -65 221h-4c-21 -76 -42 -148 -65 -221zM480 0l-62 200h-238l-63 -200h-85l221 656h94l221 -656h-88z" />
    <glyph glyph-name="amacron" unicode="&#x101;" 
d="M81 126c0 109 101 162 352 182c-2 66 -35 122 -129 122c-63 0 -125 -30 -170 -58l-32 56c49 32 131 70 216 70c133 0 197 -79 197 -200v-298h-67l-7 66h-3c-54 -42 -123 -78 -192 -78c-91 0 -165 51 -165 138zM161 132c0 -55 51 -78 107 -78c55 0 110 26 165 72v128
c-208 -17 -272 -58 -272 -122zM191 601v57h245v-57h-245z" />
    <glyph glyph-name="Abreve" unicode="&#x102;" 
d="M373 818h50c-7 -56 -43 -110 -123 -110s-116 54 -123 110h50c6 -32 28 -63 73 -63s67 31 73 63zM201 267h196l-31 100c-23 73 -44 145 -65 221h-4c-21 -76 -42 -148 -65 -221zM480 0l-62 200h-238l-63 -200h-85l221 656h94l221 -656h-88z" />
    <glyph glyph-name="abreve" unicode="&#x103;" 
d="M81 126c0 109 101 162 352 182c-2 66 -35 122 -129 122c-63 0 -125 -30 -170 -58l-32 56c49 32 131 70 216 70c133 0 197 -79 197 -200v-298h-67l-7 66h-3c-54 -42 -123 -78 -192 -78c-91 0 -165 51 -165 138zM161 132c0 -55 51 -78 107 -78c55 0 110 26 165 72v128
c-208 -17 -272 -58 -272 -122zM314 575c-89 0 -126 71 -130 134h51c5 -43 30 -83 79 -83s73 40 79 83h51c-5 -63 -42 -134 -130 -134z" />
    <glyph glyph-name="Aogonek" unicode="&#x104;" 
d="M201 267h196l-31 100c-23 73 -44 145 -65 221h-4c-21 -76 -42 -148 -65 -221zM576 -139l23 -45c-19 -15 -53 -28 -80 -28c-53 0 -95 30 -95 87c0 54 40 102 75 125h-19l-62 200h-238l-63 -200h-85l221 656h94l221 -656c-46 -19 -80 -65 -80 -107c0 -31 23 -46 46 -46
c17 0 30 5 42 14z" />
    <glyph glyph-name="aogonek" unicode="&#x105;" 
d="M81 126c0 109 101 162 352 182c-2 66 -35 122 -129 122c-63 0 -125 -30 -170 -58l-32 56c49 32 131 70 216 70c133 0 197 -79 197 -200v-298c-55 -22 -86 -66 -86 -105c0 -31 22 -46 46 -46c16 0 29 5 40 13l22 -41c-19 -15 -54 -27 -79 -27c-50 0 -90 29 -90 85
c0 54 41 100 80 125l-7 62h-3c-54 -42 -123 -78 -192 -78c-91 0 -165 51 -165 138zM161 132c0 -55 51 -78 107 -78c55 0 110 26 165 72v128c-208 -17 -272 -58 -272 -122z" />
    <glyph glyph-name="Cacute" unicode="&#x106;" 
d="M66 328c0 211 122 340 293 340c79 0 141 -38 179 -80l-47 -53c-34 36 -77 60 -132 60c-126 0 -207 -102 -207 -265c0 -165 81 -269 207 -269c60 0 105 26 147 73l48 -51c-52 -60 -116 -95 -200 -95c-165 0 -288 126 -288 340zM478 818l-113 -112h-69l88 112h94z" />
    <glyph glyph-name="cacute" unicode="&#x107;" 
d="M80 242c0 163 124 256 271 256c79 0 137 -32 177 -71l-41 -53c-40 35 -82 56 -133 56c-112 0 -189 -76 -189 -188c0 -111 75 -186 187 -186c60 0 110 27 151 61l36 -53c-53 -48 -121 -76 -193 -76c-152 0 -266 93 -266 254zM458 721l-117 -148h-63l90 148h90z" />
    <glyph glyph-name="Ccircumflex" unicode="&#x108;" 
d="M66 328c0 211 122 340 293 340c79 0 141 -38 179 -80l-47 -53c-34 36 -77 60 -132 60c-126 0 -207 -102 -207 -265c0 -165 81 -269 207 -269c60 0 105 26 147 73l48 -51c-52 -60 -116 -95 -200 -95c-165 0 -288 126 -288 340zM278 706h-67l96 112h80l96 -112h-67l-67 68
h-4z" />
    <glyph glyph-name="ccircumflex" unicode="&#x109;" 
d="M80 242c0 163 124 256 271 256c79 0 137 -32 177 -71l-41 -53c-40 35 -82 56 -133 56c-112 0 -189 -76 -189 -188c0 -111 75 -186 187 -186c60 0 110 27 151 61l36 -53c-53 -48 -121 -76 -193 -76c-152 0 -266 93 -266 254zM211 573l97 148h71l96 -148h-63l-67 99h-4
l-67 -99h-63z" />
    <glyph glyph-name="Cdotaccent" unicode="&#x10a;" 
d="M66 328c0 211 122 340 293 340c79 0 141 -38 179 -80l-47 -53c-34 36 -77 60 -132 60c-126 0 -207 -102 -207 -265c0 -165 81 -269 207 -269c60 0 105 26 147 73l48 -51c-52 -60 -116 -95 -200 -95c-165 0 -288 126 -288 340zM347 714c-32 0 -57 22 -57 54
c0 31 25 53 57 53s57 -22 57 -53c0 -32 -25 -54 -57 -54z" />
    <glyph glyph-name="cdotaccent" unicode="&#x10b;" 
d="M80 242c0 163 124 256 271 256c79 0 137 -32 177 -71l-41 -53c-40 35 -82 56 -133 56c-112 0 -189 -76 -189 -188c0 -111 75 -186 187 -186c60 0 110 27 151 61l36 -53c-53 -48 -121 -76 -193 -76c-152 0 -266 93 -266 254zM343 586c-37 0 -66 25 -66 63
c0 39 29 64 66 64c38 0 66 -25 66 -64c0 -38 -28 -63 -66 -63z" />
    <glyph glyph-name="Ccaron" unicode="&#x10c;" 
d="M66 328c0 211 122 340 293 340c79 0 141 -38 179 -80l-47 -53c-34 36 -77 60 -132 60c-126 0 -207 -102 -207 -265c0 -165 81 -269 207 -269c60 0 105 26 147 73l48 -51c-52 -60 -116 -95 -200 -95c-165 0 -288 126 -288 340zM416 818h67l-96 -112h-80l-96 112h67l67 -68
h4z" />
    <glyph glyph-name="ccaron" unicode="&#x10d;" 
d="M80 242c0 163 124 256 271 256c79 0 137 -32 177 -71l-41 -53c-40 35 -82 56 -133 56c-112 0 -189 -76 -189 -188c0 -111 75 -186 187 -186c60 0 110 27 151 61l36 -53c-53 -48 -121 -76 -193 -76c-152 0 -266 93 -266 254zM308 573l-97 148h63l67 -99h4l67 99h63
l-96 -148h-71z" />
    <glyph glyph-name="Dcaron" unicode="&#x10e;" 
d="M85 0v656h160c198 0 304 -117 304 -325c0 -209 -106 -331 -300 -331h-164zM168 68h72c149 0 223 97 223 263c0 165 -74 257 -223 257h-72v-520zM367 818h67l-96 -112h-79l-96 112h67l67 -68h4z" />
    <glyph glyph-name="dcaron" unicode="&#x10f;" 
d="M50 242c0 158 106 256 221 256c59 0 102 -24 147 -63l-3 90v187h82v-712h-68l-7 64h-3c-40 -41 -98 -76 -158 -76c-127 0 -211 92 -211 254zM135 243c0 -116 53 -186 143 -186c48 0 94 25 137 73v242c-44 41 -86 57 -128 57c-84 0 -152 -75 -152 -186zM581 548h-40
l-4 212h59l-1 -57z" />
    <glyph glyph-name="Dcroat" unicode="&#x110;" 
d="M91 0v321h-75v42l75 5v288h161c196 0 303 -117 303 -325c0 -209 -107 -331 -300 -331h-164zM174 68h72c149 0 223 97 223 263c0 165 -74 257 -223 257h-72v-220h143v-47h-143v-253z" />
    <glyph glyph-name="dcroat" unicode="&#x111;" 
d="M425 130v222c-44 41 -86 57 -127 57c-85 0 -153 -72 -153 -176c0 -110 53 -176 143 -176c48 0 94 25 137 73zM579 619v-43l-72 -5v-571h-68l-7 64h-3c-40 -41 -98 -76 -158 -76c-127 0 -211 88 -211 244c0 152 106 246 221 246c59 0 102 -24 147 -63l-3 90v66h-174v48
h174v93h82v-93h72z" />
    <glyph glyph-name="Emacron" unicode="&#x112;" 
d="M115 0v656h405v-70h-321v-206h271v-71h-271v-238h331v-71h-415zM207 729v57h248v-57h-248z" />
    <glyph glyph-name="emacron" unicode="&#x113;" 
d="M69 242c0 159 121 256 247 256c139 0 221 -91 221 -228c0 -17 -1 -35 -3 -47h-380c4 -103 80 -169 186 -169c57 0 103 17 148 45l29 -54c-48 -31 -109 -57 -187 -57c-144 0 -261 95 -261 254zM153 282h308c0 97 -54 151 -144 151c-79 0 -151 -56 -164 -151zM192 601v57
h245v-57h-245z" />
    <glyph glyph-name="Ebreve" unicode="&#x114;" 
d="M115 0v656h405v-70h-321v-206h271v-71h-271v-238h331v-71h-415zM331 708c-80 0 -117 54 -123 110h50c6 -32 27 -63 73 -63c45 0 66 31 72 63h51c-7 -56 -43 -110 -123 -110z" />
    <glyph glyph-name="ebreve" unicode="&#x115;" 
d="M69 242c0 159 121 256 247 256c139 0 221 -91 221 -228c0 -17 -1 -35 -3 -47h-380c4 -103 80 -169 186 -169c57 0 103 17 148 45l29 -54c-48 -31 -109 -57 -187 -57c-144 0 -261 95 -261 254zM153 282h308c0 97 -54 151 -144 151c-79 0 -151 -56 -164 -151zM315 575
c-89 0 -126 71 -130 134h51c5 -43 30 -83 79 -83s73 40 78 83h52c-5 -63 -42 -134 -130 -134z" />
    <glyph glyph-name="Edotaccent" unicode="&#x116;" 
d="M115 0v656h405v-70h-321v-206h271v-71h-271v-238h331v-71h-415zM331 714c-32 0 -57 22 -57 54c0 31 25 53 57 53s56 -22 56 -53c0 -32 -24 -54 -56 -54z" />
    <glyph glyph-name="edotaccent" unicode="&#x117;" 
d="M69 242c0 159 121 256 247 256c139 0 221 -91 221 -228c0 -17 -1 -35 -3 -47h-380c4 -103 80 -169 186 -169c57 0 103 17 148 45l29 -54c-48 -31 -109 -57 -187 -57c-144 0 -261 95 -261 254zM153 282h308c0 97 -54 151 -144 151c-79 0 -151 -56 -164 -151zM315 586
c-38 0 -66 25 -66 63c0 39 28 64 66 64c37 0 65 -25 65 -64c0 -38 -28 -63 -65 -63z" />
    <glyph glyph-name="Eogonek" unicode="&#x118;" 
d="M115 0v656h405v-70h-321v-206h271v-71h-271v-238h331v-71h-4c-45 -6 -91 -54 -91 -107c0 -31 23 -46 47 -46c16 0 28 5 41 14l22 -45c-19 -15 -53 -28 -80 -28c-52 0 -95 30 -95 87c0 55 38 101 75 125h-330z" />
    <glyph glyph-name="eogonek" unicode="&#x119;" 
d="M488 99l29 -54c-91 -65 -117 -106 -117 -150c0 -31 22 -46 47 -46c15 0 27 5 40 13l21 -41c-19 -15 -53 -27 -78 -27c-51 0 -90 29 -90 85c0 52 37 97 66 121c-29 -11 -50 -12 -76 -12c-144 0 -261 95 -261 254s121 256 247 256c139 0 221 -91 221 -228
c0 -17 -1 -35 -3 -47h-380c4 -103 80 -169 186 -169c57 0 103 17 148 45zM153 282h308c0 97 -54 151 -144 151c-79 0 -151 -56 -164 -151z" />
    <glyph glyph-name="Ecaron" unicode="&#x11a;" 
d="M115 0v656h405v-70h-321v-206h271v-71h-271v-238h331v-71h-415zM400 818h66l-96 -112h-79l-96 112h67l67 -68h4z" />
    <glyph glyph-name="ecaron" unicode="&#x11b;" 
d="M69 242c0 159 121 256 247 256c139 0 221 -91 221 -228c0 -17 -1 -35 -3 -47h-380c4 -103 80 -169 186 -169c57 0 103 17 148 45l29 -54c-48 -31 -109 -57 -187 -57c-144 0 -261 95 -261 254zM153 282h308c0 97 -54 151 -144 151c-79 0 -151 -56 -164 -151zM279 573
l-97 148h64l67 -99h4l66 99h64l-97 -148h-71z" />
    <glyph glyph-name="Gcircumflex" unicode="&#x11c;" 
d="M53 328c0 212 121 340 291 340c87 0 144 -41 181 -80l-47 -53c-32 34 -71 60 -134 60c-123 0 -204 -102 -204 -265c0 -165 73 -269 202 -269c46 0 89 15 114 39v171h-131v69h208v-276c-42 -42 -111 -76 -196 -76c-165 0 -284 126 -284 340zM262 706h-66l96 112h79
l96 -112h-67l-67 68h-4z" />
    <glyph glyph-name="gcircumflex" unicode="&#x11d;" 
d="M143 -81c0 -51 55 -86 159 -86c113 0 183 50 183 100c0 46 -37 59 -111 59h-95c-28 0 -53 2 -74 8c-46 -25 -62 -53 -62 -81zM72 -89c0 39 28 78 80 108v4c-26 14 -50 39 -50 80c0 31 21 66 58 91v4c-33 25 -60 68 -60 126c0 106 88 174 191 174c28 0 51 -4 72 -12h201
v-63h-130c23 -24 45 -59 45 -102c0 -104 -83 -167 -188 -167c-25 0 -55 6 -82 18c-24 -15 -38 -33 -38 -56c0 -39 37 -56 101 -56h109c125 0 185 -32 185 -114c0 -91 -105 -170 -270 -170c-142 0 -224 49 -224 135zM291 209c62 0 112 45 112 115c0 68 -50 114 -112 114
c-61 0 -112 -46 -112 -114c0 -70 51 -115 112 -115zM175 573l97 148h71l97 -148h-64l-67 99h-4l-67 -99h-63z" />
    <glyph glyph-name="Gbreve" unicode="&#x11e;" 
d="M53 328c0 212 121 340 291 340c87 0 144 -41 181 -80l-47 -53c-32 34 -71 60 -134 60c-123 0 -204 -102 -204 -265c0 -165 73 -269 202 -269c46 0 89 15 114 39v171h-131v69h208v-276c-42 -42 -111 -76 -196 -76c-165 0 -284 126 -284 340zM331 708
c-80 0 -116 54 -123 110h51c6 -32 27 -63 72 -63s67 31 73 63h50c-6 -56 -43 -110 -123 -110z" />
    <glyph glyph-name="gbreve" unicode="&#x11f;" 
d="M143 -81c0 -51 55 -86 159 -86c113 0 183 50 183 100c0 46 -37 59 -111 59h-95c-28 0 -53 2 -74 8c-46 -25 -62 -53 -62 -81zM72 -89c0 39 28 78 80 108v4c-26 14 -50 39 -50 80c0 31 21 66 58 91v4c-33 25 -60 68 -60 126c0 106 88 174 191 174c28 0 51 -4 72 -12h201
v-63h-130c23 -24 45 -59 45 -102c0 -104 -83 -167 -188 -167c-25 0 -55 6 -82 18c-24 -15 -38 -33 -38 -56c0 -39 37 -56 101 -56h109c125 0 185 -32 185 -114c0 -91 -105 -170 -270 -170c-142 0 -224 49 -224 135zM291 209c62 0 112 45 112 115c0 68 -50 114 -112 114
c-61 0 -112 -46 -112 -114c0 -70 51 -115 112 -115zM307 575c-88 0 -125 71 -130 134h51c6 -43 30 -83 79 -83s74 40 79 83h51c-4 -63 -41 -134 -130 -134z" />
    <glyph glyph-name="Gdotaccent" unicode="&#x120;" 
d="M53 328c0 212 121 340 291 340c87 0 144 -41 181 -80l-47 -53c-32 34 -71 60 -134 60c-123 0 -204 -102 -204 -265c0 -165 73 -269 202 -269c46 0 89 15 114 39v171h-131v69h208v-276c-42 -42 -111 -76 -196 -76c-165 0 -284 126 -284 340zM331 714c-32 0 -57 22 -57 54
c0 31 25 53 57 53s57 -22 57 -53c0 -32 -25 -54 -57 -54z" />
    <glyph glyph-name="gdotaccent" unicode="&#x121;" 
d="M143 -81c0 -51 55 -86 159 -86c113 0 183 50 183 100c0 46 -37 59 -111 59h-95c-28 0 -53 2 -74 8c-46 -25 -62 -53 -62 -81zM72 -89c0 39 28 78 80 108v4c-26 14 -50 39 -50 80c0 31 21 66 58 91v4c-33 25 -60 68 -60 126c0 106 88 174 191 174c28 0 51 -4 72 -12h201
v-63h-130c23 -24 45 -59 45 -102c0 -104 -83 -167 -188 -167c-25 0 -55 6 -82 18c-24 -15 -38 -33 -38 -56c0 -39 37 -56 101 -56h109c125 0 185 -32 185 -114c0 -91 -105 -170 -270 -170c-142 0 -224 49 -224 135zM291 209c62 0 112 45 112 115c0 68 -50 114 -112 114
c-61 0 -112 -46 -112 -114c0 -70 51 -115 112 -115zM307 586c-37 0 -65 25 -65 63c0 39 28 64 65 64c38 0 66 -25 66 -64c0 -38 -28 -63 -66 -63z" />
    <glyph glyph-name="uni0122" unicode="&#x122;" 
d="M53 328c0 212 121 340 291 340c87 0 144 -41 181 -80l-47 -53c-32 34 -71 60 -134 60c-123 0 -204 -102 -204 -265c0 -165 73 -269 202 -269c46 0 89 15 114 39v171h-131v69h208v-276c-42 -42 -111 -76 -196 -76c-165 0 -284 126 -284 340zM306 -48c68 -10 97 -32 97 -77
c0 -58 -69 -85 -144 -91l-8 40c52 7 88 20 88 46s-22 37 -51 44z" />
    <glyph glyph-name="uni0123" unicode="&#x123;" 
d="M143 -81c0 -51 55 -86 159 -86c113 0 183 50 183 100c0 46 -37 59 -111 59h-95c-28 0 -53 2 -74 8c-46 -25 -62 -53 -62 -81zM72 -89c0 39 28 78 80 108v4c-26 14 -50 39 -50 80c0 31 21 66 58 91v4c-33 25 -60 68 -60 126c0 106 88 174 191 174c28 0 51 -4 72 -12h201
v-63h-130c23 -24 45 -59 45 -102c0 -104 -83 -167 -188 -167c-25 0 -55 6 -82 18c-24 -15 -38 -33 -38 -56c0 -39 37 -56 101 -56h109c125 0 185 -32 185 -114c0 -91 -105 -170 -270 -170c-142 0 -224 49 -224 135zM291 209c62 0 112 45 112 115c0 68 -50 114 -112 114
c-61 0 -112 -46 -112 -114c0 -70 51 -115 112 -115zM335 541c-67 10 -97 33 -97 77c0 58 69 85 145 92l8 -41c-52 -7 -89 -20 -89 -45c0 -27 23 -38 51 -45z" />
    <glyph glyph-name="Hcircumflex" unicode="&#x124;" 
d="M79 0v656h84v-275h274v275h84v-656h-84v309h-274v-309h-84zM231 706h-67l96 112h79l96 -112h-66l-67 68h-4z" />
    <glyph glyph-name="hcircumflex" unicode="&#x125;" 
d="M93 0v712h82v-194l-4 -115c52 54 108 95 184 95c115 0 168 -68 168 -196v-302h-82v291c0 92 -32 136 -112 136c-58 0 -97 -29 -154 -88v-339h-82zM76 749h-66l96 111h79l96 -111h-67l-67 68h-4z" />
    <glyph glyph-name="Hbar" unicode="&#x126;" 
d="M437 381v111h-274v-111h274zM590 539v-47h-69v-492h-84v309h-274v-309h-84v492h-69v42l69 5v117h84v-117h274v117h84v-117h69z" />
    <glyph glyph-name="hbar" unicode="&#x127;" 
d="M175 498l-4 -115c52 54 108 95 184 95c115 0 168 -68 168 -196v-282h-82v271c0 92 -32 136 -112 136c-58 0 -97 -29 -154 -88v-319h-82v571h-73v43l73 5v93h82v-93h212v-48h-212v-73z" />
    <glyph glyph-name="Itilde" unicode="&#x128;" 
d="M95 0v71h163v515h-163v70h410v-70h-163v-515h163v-71h-410zM360 711c-53 0 -82 52 -119 52c-19 0 -35 -18 -40 -52h-46c6 62 37 108 85 108c53 0 82 -52 119 -52c19 0 35 19 40 52h46c-6 -61 -37 -108 -85 -108z" />
    <glyph glyph-name="itilde" unicode="&#x129;" 
d="M90 419v67h308v-486h-82v419h-226zM206 579c7 63 35 109 88 109c48 0 77 -54 108 -54c22 0 34 18 41 54h46c-6 -62 -34 -109 -87 -109c-49 0 -76 55 -109 55c-21 0 -34 -18 -40 -55h-47z" />
    <glyph glyph-name="Imacron" unicode="&#x12a;" 
d="M95 0v71h163v515h-163v70h410v-70h-163v-515h163v-71h-410zM176 729v57h248v-57h-248z" />
    <glyph glyph-name="imacron" unicode="&#x12b;" 
d="M90 419v67h308v-486h-82v419h-226zM225 601v57h245v-57h-245z" />
    <glyph glyph-name="uni012C" unicode="&#x12c;" 
d="M95 0v71h163v515h-163v70h410v-70h-163v-515h163v-71h-410zM300 708c-80 0 -116 54 -123 110h50c6 -32 28 -63 73 -63s67 31 73 63h50c-7 -56 -43 -110 -123 -110z" />
    <glyph glyph-name="uni012D" unicode="&#x12d;" 
d="M90 419v67h308v-486h-82v419h-226zM348 575c-89 0 -126 71 -130 134h51c5 -43 30 -83 79 -83s73 40 79 83h51c-5 -63 -42 -134 -130 -134z" />
    <glyph glyph-name="Iogonek" unicode="&#x12e;" 
d="M95 0v71h163v515h-163v70h410v-70h-163v-515h163v-71h-163c-42 -32 -66 -66 -66 -107c0 -31 24 -46 48 -46c16 0 29 5 40 14l23 -45c-19 -15 -53 -28 -80 -28c-53 0 -95 30 -95 87s34 96 66 125h-183z" />
    <glyph glyph-name="iogonek" unicode="&#x12f;" 
d="M316 0v419h-226v67h308v-486c-40 -29 -65 -66 -65 -105c0 -31 22 -46 47 -46c15 0 27 5 40 13l21 -41c-19 -15 -53 -27 -78 -27c-51 0 -91 29 -91 85c0 54 36 93 63 121h-19zM348 586c-38 0 -66 25 -66 63c0 39 28 64 66 64c37 0 66 -25 66 -64c0 -38 -29 -63 -66 -63z
" />
    <glyph glyph-name="Idotaccent" unicode="&#x130;" 
d="M95 0v71h163v515h-163v70h410v-70h-163v-515h163v-71h-410zM300 714c-32 0 -57 22 -57 54c0 31 25 53 57 53s57 -22 57 -53c0 -32 -25 -54 -57 -54z" />
    <glyph glyph-name="dotlessi" unicode="&#x131;" 
d="M90 419v67h308v-486h-82v419h-226z" />
    <glyph glyph-name="Jcircumflex" unicode="&#x134;" 
d="M81 97l54 50c38 -58 88 -86 139 -86c94 0 136 48 136 156v370h-275v70h358v-447c0 -122 -54 -222 -217 -222c-74 0 -150 33 -195 109zM252 706h-67l96 112h79l96 -112h-66l-67 68h-4z" />
    <glyph glyph-name="jcircumflex" unicode="&#x135;" 
d="M90 419v67h308v-498c0 -120 -47 -205 -204 -205c-51 0 -100 14 -139 33l27 61c35 -17 74 -27 111 -27c97 0 123 49 123 132v437h-226zM216 573l96 148h71l97 -148h-63l-67 99h-4l-67 -99h-63z" />
    <glyph glyph-name="uni0136" unicode="&#x136;" 
d="M98 0v656h84v-329h3l276 329h94l-207 -250l231 -406h-93l-190 341l-114 -133v-208h-84zM308 -48c68 -10 98 -32 98 -77c0 -58 -69 -85 -145 -91l-8 40c52 7 89 20 89 46s-23 37 -52 44z" />
    <glyph glyph-name="uni0137" unicode="&#x137;" 
d="M106 0v712h82v-482h4l262 256h94l-194 -193l220 -293h-92l-179 243l-115 -111v-132h-82zM306 -48c68 -10 97 -32 97 -77c0 -58 -69 -85 -144 -91l-9 40c53 7 89 20 89 46s-22 37 -51 44z" />
    <glyph glyph-name="kgreenlandic" unicode="&#x138;" 
d="M106 0v486h82v-256l3 1l263 255h94l-194 -193l220 -293h-92l-179 240l-115 -110v-130h-82z" />
    <glyph glyph-name="Lacute" unicode="&#x139;" 
d="M134 0v656h82v-585h325v-71h-407zM321 818l-113 -112h-69l88 112h94z" />
    <glyph glyph-name="lacute" unicode="&#x13a;" 
d="M81 645v67h248v-555c0 -71 37 -101 95 -101c28 0 56 7 92 23l21 -62c-44 -16 -78 -29 -131 -29c-103 0 -159 60 -159 175v482h-166zM407 870l-113 -111h-69l88 111h94z" />
    <glyph glyph-name="uni013B" unicode="&#x13b;" 
d="M134 0v656h82v-585h325v-71h-407zM317 -48c68 -10 97 -32 97 -77c0 -58 -69 -85 -144 -91l-8 40c52 7 88 20 88 46s-22 37 -51 44z" />
    <glyph glyph-name="uni013C" unicode="&#x13c;" 
d="M81 645v67h248v-555c0 -71 37 -101 95 -101c28 0 56 7 92 23l21 -62c-44 -16 -78 -29 -131 -29c-103 0 -159 60 -159 175v482h-166zM341 -48c68 -10 98 -32 98 -77c0 -58 -69 -85 -145 -91l-8 40c52 7 89 20 89 46s-23 37 -52 44z" />
    <glyph glyph-name="Lcaron" unicode="&#x13d;" 
d="M134 0v656h82v-585h325v-71h-407zM430 514h-41l-3 212h59l-1 -57z" />
    <glyph glyph-name="lcaron" unicode="&#x13e;" 
d="M81 645v67h248v-555c0 -71 37 -101 95 -101c28 0 56 7 92 23l21 -62c-44 -16 -78 -29 -131 -29c-103 0 -159 60 -159 175v482h-166zM442 548h-40l-4 212h59l-1 -57z" />
    <glyph glyph-name="Ldot" unicode="&#x13f;" 
d="M134 0v656h82v-585h325v-71h-407zM430 284c-37 0 -65 25 -65 63c0 39 28 64 65 64c38 0 66 -25 66 -64c0 -38 -28 -63 -66 -63z" />
    <glyph glyph-name="ldot" unicode="&#x140;" 
d="M42 645v67h248v-555c0 -71 37 -101 96 -101c27 0 55 7 91 23l21 -62c-44 -16 -78 -29 -131 -29c-103 0 -159 60 -159 175v482h-166zM437 283c-37 0 -66 25 -66 63c0 39 29 64 66 64c38 0 66 -25 66 -64c0 -38 -28 -63 -66 -63z" />
    <glyph glyph-name="Lslash" unicode="&#x141;" 
d="M216 71h325v-71h-407v227l-81 -43v67l81 44v361h82v-321l226 120v-68l-226 -120v-196z" />
    <glyph glyph-name="lslash" unicode="&#x142;" 
d="M516 79l21 -62c-44 -16 -78 -29 -131 -29c-103 0 -159 60 -159 175v169l-124 -71v70l124 71v243h-166v67h248v-267l163 91v-71l-163 -91v-217c0 -71 37 -101 95 -101c28 0 56 7 92 23z" />
    <glyph glyph-name="Nacute" unicode="&#x143;" 
d="M83 0v656h85l213 -414l66 -134h2c-3 65 -11 139 -11 208v340h79v-656h-85l-213 414l-66 134h-2c3 -67 11 -137 11 -205v-343h-79zM437 818l-113 -112h-69l88 112h94z" />
    <glyph glyph-name="nacute" unicode="&#x144;" 
d="M93 0v486h68l7 -83h4c51 54 107 95 183 95c115 0 168 -68 168 -196v-302h-82v291c0 92 -32 136 -112 136c-58 0 -97 -29 -154 -88v-339h-82zM432 721l-116 -148h-63l90 148h89z" />
    <glyph glyph-name="uni0145" unicode="&#x145;" 
d="M83 0v656h85l213 -414l66 -134h2c-3 65 -11 139 -11 208v340h79v-656h-85l-213 414l-66 134h-2c3 -67 11 -137 11 -205v-343h-79zM271 -48c68 -10 97 -32 97 -77c0 -58 -69 -85 -145 -91l-8 40c53 7 89 20 89 46s-23 37 -51 44z" />
    <glyph glyph-name="uni0146" unicode="&#x146;" 
d="M93 0v486h68l7 -83h4c51 54 107 95 183 95c115 0 168 -68 168 -196v-302h-82v291c0 92 -32 136 -112 136c-58 0 -97 -29 -154 -88v-339h-82zM284 -48c67 -10 97 -32 97 -77c0 -58 -69 -85 -145 -91l-8 40c52 7 89 20 89 46s-23 37 -51 44z" />
    <glyph glyph-name="Ncaron" unicode="&#x147;" 
d="M83 0v656h85l213 -414l66 -134h2c-3 65 -11 139 -11 208v340h79v-656h-85l-213 414l-66 134h-2c3 -67 11 -137 11 -205v-343h-79zM375 818h67l-96 -112h-80l-96 112h67l67 -68h4z" />
    <glyph glyph-name="ncaron" unicode="&#x148;" 
d="M93 0v486h68l7 -83h4c51 54 107 95 183 95c115 0 168 -68 168 -196v-302h-82v291c0 92 -32 136 -112 136c-58 0 -97 -29 -154 -88v-339h-82zM282 573l-96 148h63l67 -99h4l67 99h63l-97 -148h-71z" />
    <glyph glyph-name="napostrophe" unicode="&#x149;" 
d="M6 350l-28 48c63 35 100 88 104 158c-8 -4 -17 -6 -26 -6c-42 0 -71 29 -71 71c0 46 31 78 74 78c53 0 90 -45 90 -121c0 -100 -54 -182 -143 -228zM271 410h4c47 49 97 88 168 88c105 0 155 -66 155 -190v-308h-83v297c0 88 -29 130 -98 130c-52 0 -87 -28 -139 -81
v-346h-82v486h68z" />
    <glyph glyph-name="Omacron" unicode="&#x14c;" 
d="M300 -12c-148 0 -252 132 -252 343c0 210 104 337 252 337s252 -128 252 -337c0 -211 -104 -343 -252 -343zM300 61c100 0 166 106 166 270c0 163 -66 264 -166 264s-166 -101 -166 -264c0 -164 66 -270 166 -270zM176 729v57h248v-57h-248z" />
    <glyph glyph-name="omacron" unicode="&#x14d;" 
d="M60 242c0 163 112 256 240 256s240 -93 240 -256c0 -161 -112 -254 -240 -254s-240 93 -240 254zM145 242c0 -111 62 -186 155 -186s155 75 155 186c0 112 -62 188 -155 188s-155 -76 -155 -188zM177 601v57h246v-57h-246z" />
    <glyph glyph-name="uni014E" unicode="&#x14e;" 
d="M300 -12c-148 0 -252 132 -252 343c0 210 104 337 252 337s252 -128 252 -337c0 -211 -104 -343 -252 -343zM300 61c100 0 166 106 166 270c0 163 -66 264 -166 264s-166 -101 -166 -264c0 -164 66 -270 166 -270zM300 708c-80 0 -116 54 -123 110h50
c6 -32 28 -63 73 -63s67 31 73 63h50c-7 -56 -43 -110 -123 -110z" />
    <glyph glyph-name="uni014F" unicode="&#x14f;" 
d="M60 242c0 163 112 256 240 256s240 -93 240 -256c0 -161 -112 -254 -240 -254s-240 93 -240 254zM145 242c0 -111 62 -186 155 -186s155 75 155 186c0 112 -62 188 -155 188s-155 -76 -155 -188zM300 575c-88 0 -125 71 -130 134h51c6 -43 30 -83 79 -83s73 40 79 83h51
c-5 -63 -42 -134 -130 -134z" />
    <glyph glyph-name="Ohungarumlaut" unicode="&#x150;" 
d="M300 -12c-148 0 -252 132 -252 343c0 210 104 337 252 337s252 -128 252 -337c0 -211 -104 -343 -252 -343zM300 61c100 0 166 106 166 270c0 163 -66 264 -166 264s-166 -101 -166 -264c0 -164 66 -270 166 -270zM251 706h-60l66 112h77zM349 706l66 112h77l-84 -112
h-59z" />
    <glyph glyph-name="ohungarumlaut" unicode="&#x151;" 
d="M60 242c0 163 112 256 240 256s240 -93 240 -256c0 -161 -112 -254 -240 -254s-240 93 -240 254zM145 242c0 -111 62 -186 155 -186s155 75 155 186c0 112 -62 188 -155 188s-155 -76 -155 -188zM202 571l70 143h73l-88 -143h-55zM349 571l71 143h72l-88 -143h-55z" />
    <glyph glyph-name="OE" unicode="&#x152;" 
d="M33 331c0 209 100 326 266 326h282v-70h-194v-207h148v-71h-148v-238h204v-71h-295c-164 0 -263 122 -263 331zM119 331c0 -167 56 -263 170 -263h21v520h-21c-114 0 -170 -90 -170 -257z" />
    <glyph glyph-name="oe" unicode="&#x153;" 
d="M88 243c0 -111 35 -188 103 -188c60 0 99 77 99 188s-39 187 -99 187c-68 0 -103 -76 -103 -187zM11 243c0 162 77 255 176 255c62 0 110 -43 136 -117c27 73 70 117 133 117c92 0 140 -102 140 -222c0 -19 0 -32 -3 -53h-241c5 -101 44 -169 116 -169c34 0 58 13 85 31
l29 -54c-31 -23 -71 -43 -117 -43c-63 0 -113 39 -142 112c-28 -73 -74 -112 -136 -112c-100 0 -176 93 -176 255zM351 278h177c0 82 -19 155 -78 155s-91 -60 -99 -155z" />
    <glyph glyph-name="Racute" unicode="&#x154;" 
d="M436 818l-114 -112h-69l89 112h94zM183 589v-244h109c102 0 158 42 158 127c0 86 -56 117 -158 117h-109zM553 0h-95l-158 277h-117v-277h-83v656h204c133 0 229 -48 229 -184c0 -102 -58 -163 -147 -186z" />
    <glyph glyph-name="racute" unicode="&#x155;" 
d="M146 0v486h68l7 -115h3c51 78 127 127 217 127c36 0 66 -5 96 -20l-19 -71c-34 12 -52 17 -90 17c-73 0 -142 -38 -200 -139v-285h-82zM456 721l-116 -148h-63l90 148h89z" />
    <glyph glyph-name="uni0156" unicode="&#x156;" 
d="M273 -86l18 38c68 -10 97 -32 97 -77c0 -58 -69 -85 -145 -91l-8 40c53 7 89 20 89 46s-23 37 -51 44zM183 589v-244h109c102 0 158 42 158 127c0 86 -56 117 -158 117h-109zM386 286l167 -286h-95l-158 277h-117v-277h-83v656h204c133 0 229 -48 229 -184
c0 -102 -58 -163 -147 -186z" />
    <glyph glyph-name="uni0157" unicode="&#x157;" 
d="M146 0v486h68l7 -115h3c51 78 127 127 217 127c36 0 66 -5 96 -20l-19 -71c-34 12 -52 17 -90 17c-73 0 -142 -38 -200 -139v-285h-82zM171 -48c68 -10 97 -32 97 -77c0 -58 -69 -85 -144 -91l-9 40c53 7 89 20 89 46s-22 37 -51 44z" />
    <glyph glyph-name="Rcaron" unicode="&#x158;" 
d="M344 706h-79l-96 112h67l67 -68h4l66 68h67zM183 589v-244h109c102 0 158 42 158 127c0 86 -56 117 -158 117h-109zM553 0h-95l-158 277h-117v-277h-83v656h204c133 0 229 -48 229 -184c0 -102 -58 -163 -147 -186z" />
    <glyph glyph-name="rcaron" unicode="&#x159;" 
d="M146 0v486h68l7 -115h3c51 78 127 127 217 127c36 0 66 -5 96 -20l-19 -71c-34 12 -52 17 -90 17c-73 0 -142 -38 -200 -139v-285h-82zM306 573l-96 148h63l67 -99h4l67 99h63l-97 -148h-71z" />
    <glyph glyph-name="Sacute" unicode="&#x15a;" 
d="M67 85l50 58c49 -49 117 -82 189 -82c93 0 146 43 146 107c0 67 -51 88 -118 116l-94 41c-66 26 -142 73 -142 169c0 100 90 174 215 174c82 0 154 -33 202 -81l-44 -54c-43 38 -93 62 -158 62c-79 0 -130 -37 -130 -96c0 -63 61 -86 117 -109l92 -40
c81 -33 145 -78 145 -175c0 -104 -88 -187 -232 -187c-96 0 -179 38 -238 97zM442 818l-113 -112h-69l88 112h94z" />
    <glyph glyph-name="sacute" unicode="&#x15b;" 
d="M72 64l40 54c54 -40 114 -66 201 -66s130 34 130 76c0 38 -39 65 -158 94c-100 25 -185 69 -185 138c0 78 70 138 204 138c73 0 147 -29 195 -62l-40 -53c-43 30 -95 51 -155 51c-91 0 -120 -32 -120 -70c0 -40 60 -64 148 -86c131 -33 194 -71 194 -145
c0 -79 -77 -145 -216 -145c-95 0 -179 35 -238 76zM418 721l-117 -148h-63l91 148h89z" />
    <glyph glyph-name="Scircumflex" unicode="&#x15c;" 
d="M67 85l50 58c49 -49 117 -82 189 -82c93 0 146 43 146 107c0 67 -51 88 -118 116l-94 41c-66 26 -142 73 -142 169c0 100 90 174 215 174c82 0 154 -33 202 -81l-44 -54c-43 38 -93 62 -158 62c-79 0 -130 -37 -130 -96c0 -63 61 -86 117 -109l92 -40
c81 -33 145 -78 145 -175c0 -104 -88 -187 -232 -187c-96 0 -179 38 -238 97zM242 706h-67l96 112h80l96 -112h-67l-67 68h-4z" />
    <glyph glyph-name="scircumflex" unicode="&#x15d;" 
d="M72 64l40 54c54 -40 114 -66 201 -66s130 34 130 76c0 38 -39 65 -158 94c-100 25 -185 69 -185 138c0 78 70 138 204 138c73 0 147 -29 195 -62l-40 -53c-43 30 -95 51 -155 51c-91 0 -120 -32 -120 -70c0 -40 60 -64 148 -86c131 -33 194 -71 194 -145
c0 -79 -77 -145 -216 -145c-95 0 -179 35 -238 76zM171 573l97 148h71l97 -148h-64l-67 99h-4l-67 -99h-63z" />
    <glyph glyph-name="uni015E" unicode="&#x15e;" 
d="M300 390l92 -40c81 -33 145 -78 145 -175s-76 -175 -202 -186l-19 -39c33 -11 60 -30 60 -71c0 -58 -69 -85 -145 -92l-8 41c52 7 89 21 89 48c0 26 -23 39 -64 49l33 64c-86 6 -160 42 -214 96l50 58c49 -49 117 -82 189 -82c93 0 146 43 146 107c0 67 -51 88 -118 116
l-94 41c-66 26 -142 73 -142 169c0 100 90 174 215 174c82 0 154 -33 202 -81l-44 -54c-43 38 -93 62 -158 62c-79 0 -130 -37 -130 -96c0 -63 61 -86 117 -109z" />
    <glyph glyph-name="uni015F" unicode="&#x15f;" 
d="M499 436l-40 -53c-43 30 -95 51 -155 51c-91 0 -120 -32 -120 -70c0 -40 60 -64 148 -86c131 -33 194 -71 194 -145c0 -73 -65 -135 -185 -144l-18 -39c32 -11 59 -30 59 -71c0 -58 -69 -85 -145 -92l-8 41c52 7 89 21 89 48c0 26 -23 39 -64 49l33 64
c-86 5 -161 37 -215 75l40 54c54 -40 114 -66 201 -66s130 34 130 76c0 38 -39 65 -158 94c-100 25 -185 69 -185 138c0 78 70 138 204 138c73 0 147 -29 195 -62z" />
    <glyph glyph-name="Scaron" unicode="&#x160;" 
d="M67 85l50 58c49 -49 117 -82 189 -82c93 0 146 43 146 107c0 67 -51 88 -118 116l-94 41c-66 26 -142 73 -142 169c0 100 90 174 215 174c82 0 154 -33 202 -81l-44 -54c-43 38 -93 62 -158 62c-79 0 -130 -37 -130 -96c0 -63 61 -86 117 -109l92 -40
c81 -33 145 -78 145 -175c0 -104 -88 -187 -232 -187c-96 0 -179 38 -238 97zM380 818h67l-96 -112h-80l-96 112h67l67 -68h4z" />
    <glyph glyph-name="scaron" unicode="&#x161;" 
d="M72 64l40 54c54 -40 114 -66 201 -66s130 34 130 76c0 38 -39 65 -158 94c-100 25 -185 69 -185 138c0 78 70 138 204 138c73 0 147 -29 195 -62l-40 -53c-43 30 -95 51 -155 51c-91 0 -120 -32 -120 -70c0 -40 60 -64 148 -86c131 -33 194 -71 194 -145
c0 -79 -77 -145 -216 -145c-95 0 -179 35 -238 76zM268 573l-97 148h63l67 -99h4l67 99h64l-97 -148h-71z" />
    <glyph glyph-name="uni0162" unicode="&#x162;" 
d="M342 0h-14l-24 -50c32 -11 59 -30 59 -71c0 -58 -69 -85 -145 -92l-8 41c53 7 89 21 89 48c0 26 -23 39 -64 49l38 75h-15v586h-216v70h516v-70h-216v-586z" />
    <glyph glyph-name="uni0163" unicode="&#x163;" 
d="M403 -12l-18 -38c32 -11 59 -30 59 -71c0 -58 -69 -85 -145 -92l-8 41c52 7 89 21 89 48c0 26 -23 39 -64 49l34 66c-108 15 -144 91 -144 198v230h-137v62l140 5l11 136h68v-136h239v-67h-239v-231c0 -87 29 -133 123 -133c46 0 83 9 117 22l18 -60
c-41 -15 -93 -27 -143 -29z" />
    <glyph glyph-name="Tcaron" unicode="&#x164;" 
d="M258 0v586h-216v70h516v-70h-216v-586h-84zM368 818h67l-96 -112h-79l-96 112h66l67 -68h4z" />
    <glyph glyph-name="tcaron" unicode="&#x165;" 
d="M206 189v230h-137v62l140 5l11 136h68v-136h239v-67h-239v-231c0 -87 29 -133 123 -133c46 0 83 9 117 22l18 -60c-44 -16 -100 -29 -153 -29c-141 0 -187 81 -187 201zM436 548h-40l-4 212h59l-1 -57z" />
    <glyph glyph-name="Utilde" unicode="&#x168;" 
d="M79 248v408h84v-410c0 -136 59 -185 138 -185s139 49 139 185v410h81v-408c0 -188 -92 -260 -220 -260c-129 0 -222 72 -222 260zM360 711c-53 0 -82 52 -119 52c-19 0 -35 -18 -40 -52h-46c6 62 37 108 85 108c53 0 82 -52 119 -52c19 0 35 19 40 52h46
c-6 -61 -37 -108 -85 -108z" />
    <glyph glyph-name="utilde" unicode="&#x169;" 
d="M505 486v-486h-67l-7 85h-4c-49 -57 -106 -97 -181 -97c-116 0 -169 68 -169 196v302h83v-291c0 -92 31 -136 112 -136c56 0 97 27 151 90v337h82zM153 579c7 63 34 109 88 109c48 0 77 -54 108 -54c22 0 34 18 40 54h47c-6 -62 -34 -109 -87 -109c-49 0 -76 55 -109 55
c-21 0 -34 -18 -40 -55h-47z" />
    <glyph glyph-name="Umacron" unicode="&#x16a;" 
d="M79 248v408h84v-410c0 -136 59 -185 138 -185s139 49 139 185v410h81v-408c0 -188 -92 -260 -220 -260c-129 0 -222 72 -222 260zM176 729v57h248v-57h-248z" />
    <glyph glyph-name="umacron" unicode="&#x16b;" 
d="M505 486v-486h-67l-7 85h-4c-49 -57 -106 -97 -181 -97c-116 0 -169 68 -169 196v302h83v-291c0 -92 31 -136 112 -136c56 0 97 27 151 90v337h82zM172 601v57h245v-57h-245z" />
    <glyph glyph-name="Ubreve" unicode="&#x16c;" 
d="M79 248v408h84v-410c0 -136 59 -185 138 -185s139 49 139 185v410h81v-408c0 -188 -92 -260 -220 -260c-129 0 -222 72 -222 260zM300 708c-80 0 -116 54 -123 110h50c6 -32 28 -63 73 -63s67 31 73 63h50c-7 -56 -43 -110 -123 -110z" />
    <glyph glyph-name="ubreve" unicode="&#x16d;" 
d="M505 486v-486h-67l-7 85h-4c-49 -57 -106 -97 -181 -97c-116 0 -169 68 -169 196v302h83v-291c0 -92 31 -136 112 -136c56 0 97 27 151 90v337h82zM295 575c-89 0 -126 71 -130 134h51c5 -43 30 -83 79 -83s73 40 79 83h51c-5 -63 -42 -134 -130 -134z" />
    <glyph glyph-name="Uring" unicode="&#x16e;" 
d="M79 248v408h84v-410c0 -136 59 -185 138 -185s139 49 139 185v410h81v-408c0 -188 -92 -260 -220 -260c-129 0 -222 72 -222 260zM300 699c-54 0 -93 34 -93 88c0 53 39 88 93 88c53 0 93 -35 93 -88c0 -54 -40 -88 -93 -88zM300 735c25 0 47 19 47 52
c0 31 -22 51 -47 51c-27 0 -48 -20 -48 -51c0 -33 21 -52 48 -52z" />
    <glyph glyph-name="uring" unicode="&#x16f;" 
d="M505 486v-486h-67l-7 85h-4c-49 -57 -106 -97 -181 -97c-116 0 -169 68 -169 196v302h83v-291c0 -92 31 -136 112 -136c56 0 97 27 151 90v337h82zM295 542c-55 0 -94 37 -94 93c0 55 39 92 94 92c54 0 93 -37 93 -92c0 -56 -39 -93 -93 -93zM295 579c26 0 48 22 48 56
c0 33 -22 55 -48 55c-27 0 -48 -22 -48 -55c0 -34 21 -56 48 -56z" />
    <glyph glyph-name="Uhungarumlaut" unicode="&#x170;" 
d="M79 248v408h84v-410c0 -136 59 -185 138 -185s139 49 139 185v410h81v-408c0 -188 -92 -260 -220 -260c-129 0 -222 72 -222 260zM251 706h-60l66 112h77zM349 706l66 112h77l-84 -112h-59z" />
    <glyph glyph-name="uhungarumlaut" unicode="&#x171;" 
d="M505 486v-486h-67l-7 85h-4c-49 -57 -106 -97 -181 -97c-116 0 -169 68 -169 196v302h83v-291c0 -92 31 -136 112 -136c56 0 97 27 151 90v337h82zM197 571l70 143h72l-88 -143h-54zM344 571l70 143h72l-88 -143h-54z" />
    <glyph glyph-name="Uogonek" unicode="&#x172;" 
d="M79 248v408h84v-410c0 -136 58 -185 137 -185s140 49 140 185v410h81v-408c0 -136 -50 -209 -124 -243c-70 -32 -101 -76 -101 -112c0 -31 23 -46 47 -46c16 0 28 5 41 14l22 -45c-19 -15 -53 -28 -79 -28c-53 0 -96 30 -96 87c0 55 40 89 65 114
c-146 2 -217 94 -217 259z" />
    <glyph glyph-name="uogonek" unicode="&#x173;" 
d="M505 486v-486c-59 -29 -86 -66 -86 -105c0 -31 22 -46 46 -46c16 0 29 5 40 13l22 -41c-19 -15 -54 -27 -79 -27c-50 0 -90 29 -90 85c0 54 37 94 80 125l-7 81h-4c-49 -57 -106 -97 -181 -97c-116 0 -169 68 -169 196v302h83v-291c0 -92 31 -136 112 -136
c56 0 97 27 151 90v337h82z" />
    <glyph glyph-name="Wcircumflex" unicode="&#x174;" 
d="M111 0l-101 657h83l53 -412c3 -55 10 -108 14 -162h3c14 54 29 108 42 162l69 242h59l69 -242c12 -53 27 -108 41 -162h4c4 54 10 108 14 162l50 412h79l-97 -657h-92l-75 275c-9 39 -17 79 -24 118h-3c-8 -39 -16 -79 -26 -118l-72 -275h-90zM231 706h-67l96 112h80
l96 -112h-67l-67 68h-4z" />
    <glyph glyph-name="wcircumflex" unicode="&#x175;" 
d="M117 0l-109 486h84l59 -281c9 -46 17 -90 24 -135h4c9 45 18 90 29 135l59 252h70l60 -252c11 -46 20 -90 30 -135h4c9 45 16 89 24 135l59 281h78l-106 -486h-99l-58 246c-9 46 -17 92 -27 141h-4c-8 -42 -15 -86 -27 -142l-56 -245h-98zM168 573l97 148h71l97 -148h-64
l-67 99h-4l-67 -99h-63z" />
    <glyph glyph-name="Ycircumflex" unicode="&#x176;" 
d="M258 0v234l-220 422h88l99 -195c25 -50 48 -100 75 -153h4c26 53 52 103 77 154l95 194h86l-220 -422v-234h-84zM231 706h-67l96 112h80l96 -112h-67l-67 68h-4z" />
    <glyph glyph-name="ycircumflex" unicode="&#x177;" 
d="M84 -134c13 -4 29 -7 44 -7c68 0 109 44 133 104l15 36l-227 487h83l119 -269c19 -43 40 -94 60 -141h4c17 46 36 97 52 141l106 269h78l-214 -526c-36 -96 -96 -169 -206 -169c-23 0 -47 4 -64 10zM172 573l97 148h71l96 -148h-63l-67 99h-4l-67 -99h-63z" />
    <glyph glyph-name="Ydieresis" unicode="&#x178;" 
d="M258 0v234l-220 422h88l99 -195c25 -50 48 -100 75 -153h4c26 53 52 103 77 154l95 194h86l-220 -422v-234h-84zM214 715c-29 0 -49 21 -49 49c0 29 20 49 49 49c28 0 49 -20 49 -49c0 -28 -21 -49 -49 -49zM386 715c-28 0 -49 21 -49 49c0 29 21 49 49 49
c29 0 49 -20 49 -49c0 -28 -20 -49 -49 -49z" />
    <glyph glyph-name="Zacute" unicode="&#x179;" 
d="M65 0v50l367 537h-335v70h437v-50l-368 -536h373v-71h-474zM446 818l-113 -112h-69l88 112h94z" />
    <glyph glyph-name="zacute" unicode="&#x17a;" 
d="M71 0v44l333 375h-296v67h414v-44l-334 -375h344v-67h-461zM435 721l-117 -148h-63l90 148h90z" />
    <glyph glyph-name="Zdotaccent" unicode="&#x17b;" 
d="M65 0v50l367 537h-335v70h437v-50l-368 -536h373v-71h-474zM315 714c-32 0 -57 22 -57 54c0 31 25 53 57 53s57 -22 57 -53c0 -32 -25 -54 -57 -54z" />
    <glyph glyph-name="zdotaccent" unicode="&#x17c;" 
d="M71 0v44l333 375h-296v67h414v-44l-334 -375h344v-67h-461zM320 586c-37 0 -66 25 -66 63c0 39 29 64 66 64c38 0 66 -25 66 -64c0 -38 -28 -63 -66 -63z" />
    <glyph glyph-name="Zcaron" unicode="&#x17d;" 
d="M65 0v50l367 537h-335v70h437v-50l-368 -536h373v-71h-474zM384 818h67l-96 -112h-79l-96 112h66l67 -68h4z" />
    <glyph glyph-name="zcaron" unicode="&#x17e;" 
d="M71 0v44l333 375h-296v67h414v-44l-334 -375h344v-67h-461zM285 573l-97 148h63l67 -99h4l67 99h63l-96 -148h-71z" />
    <glyph glyph-name="uni0180" unicode="&#x180;" 
d="M175 336v-222c46 -41 97 -57 132 -57c85 0 148 69 148 183c0 101 -40 169 -137 169c-43 0 -93 -23 -143 -73zM175 498l-2 -94c46 45 108 74 165 74c131 0 202 -93 202 -237c0 -160 -104 -253 -220 -253c-47 0 -105 25 -151 66h-3l-7 -54h-66v571h-73v43l73 5v93h82v-93
h212v-48h-212v-73z" />
    <glyph glyph-name="uni018F" unicode="&#x18f;" 
d="M465 284l-318 -1c9 -140 67 -224 155 -224c90 0 152 86 163 225zM169 538l-38 57c41 42 98 73 175 73c151 0 244 -128 244 -338s-100 -342 -248 -342c-147 0 -240 135 -240 337c0 7 1 15 2 22h403c-4 156 -61 250 -167 250c-54 0 -98 -25 -131 -59z" />
    <glyph glyph-name="uni0192" unicode="&#x192;" 
d="M536 648l-20 -62c-18 9 -38 15 -67 15c-66 0 -93 -62 -101 -130l-7 -63h142v-63h-149l-27 -237c-15 -122 -57 -205 -175 -205c-35 0 -63 9 -83 18l16 62c18 -7 38 -13 59 -13c69 0 94 54 107 156l24 219h-104v59l70 4h41l6 56c17 133 65 204 177 204c34 0 69 -9 91 -20z
" />
    <glyph glyph-name="Ohorn" unicode="&#x1a0;" 
d="M300 61c100 0 166 106 166 270c0 163 -66 264 -166 264s-166 -101 -166 -264c0 -164 66 -270 166 -270zM480 744l59 29c14 -18 23 -40 23 -65c0 -59 -42 -92 -102 -106c58 -57 92 -151 92 -271c0 -211 -104 -343 -252 -343s-252 132 -252 343c0 210 104 337 252 337
c43 0 82 -11 116 -31c52 8 79 26 79 66c0 15 -6 28 -15 41z" />
    <glyph glyph-name="ohorn" unicode="&#x1a1;" 
d="M300 56c93 0 155 75 155 186c0 112 -62 188 -155 188s-155 -76 -155 -188c0 -111 62 -186 155 -186zM473 584l59 29c14 -18 24 -40 24 -65c0 -58 -42 -91 -100 -105c51 -44 84 -112 84 -201c0 -161 -112 -254 -240 -254s-240 93 -240 254c0 163 112 256 240 256
c36 0 72 -8 103 -22c58 8 85 28 85 66c0 15 -6 29 -15 42z" />
    <glyph glyph-name="Uhorn" unicode="&#x1af;" 
d="M548 764l59 29c14 -18 23 -40 23 -65c0 -66 -51 -95 -109 -108v-372c0 -188 -92 -260 -220 -260c-129 0 -222 72 -222 260v408h84v-410c0 -136 59 -185 138 -185s139 49 139 185v410h35c53 7 88 21 88 67c0 15 -6 28 -15 41z" />
    <glyph glyph-name="uhorn" unicode="&#x1b0;" 
d="M516 594l59 29c13 -18 23 -40 23 -65c0 -62 -47 -91 -93 -104v-454h-67l-7 85h-4c-49 -57 -106 -97 -181 -97c-116 0 -169 68 -169 196v302h83v-291c0 -92 31 -136 112 -136c56 0 97 27 151 90v337h24c46 5 83 21 83 66c0 15 -6 29 -14 42z" />
    <glyph glyph-name="uni01CD" unicode="&#x1cd;" 
d="M340 706h-80l-96 112h67l67 -68h4l67 68h67zM201 267h196l-31 100c-23 73 -44 145 -65 221h-4c-21 -76 -42 -148 -65 -221zM480 0l-62 200h-238l-63 -200h-85l221 656h94l221 -656h-88z" />
    <glyph glyph-name="uni01CE" unicode="&#x1ce;" 
d="M81 126c0 109 101 162 352 182c-2 66 -35 122 -129 122c-63 0 -125 -30 -170 -58l-32 56c49 32 131 70 216 70c133 0 197 -79 197 -200v-298h-67l-7 66h-3c-54 -42 -123 -78 -192 -78c-91 0 -165 51 -165 138zM161 132c0 -55 51 -78 107 -78c55 0 110 26 165 72v128
c-208 -17 -272 -58 -272 -122zM278 573l-97 148h64l67 -99h4l67 99h63l-97 -148h-71z" />
    <glyph glyph-name="uni01CF" unicode="&#x1cf;" 
d="M95 0v71h163v515h-163v70h410v-70h-163v-515h163v-71h-410zM369 818h67l-96 -112h-80l-96 112h67l67 -68h4z" />
    <glyph glyph-name="uni01D0" unicode="&#x1d0;" 
d="M90 419v67h308v-486h-82v419h-226zM312 573l-96 148h63l67 -99h4l67 99h63l-97 -148h-71z" />
    <glyph glyph-name="uni01D1" unicode="&#x1d1;" 
d="M300 -12c-148 0 -252 132 -252 343c0 210 104 337 252 337s252 -128 252 -337c0 -211 -104 -343 -252 -343zM300 61c100 0 166 106 166 270c0 163 -66 264 -166 264s-166 -101 -166 -264c0 -164 66 -270 166 -270zM369 818h67l-96 -112h-80l-96 112h67l67 -68h4z" />
    <glyph glyph-name="uni01D2" unicode="&#x1d2;" 
d="M60 242c0 163 112 256 240 256s240 -93 240 -256c0 -161 -112 -254 -240 -254s-240 93 -240 254zM145 242c0 -111 62 -186 155 -186s155 75 155 186c0 112 -62 188 -155 188s-155 -76 -155 -188zM265 573l-97 148h63l67 -99h4l67 99h63l-97 -148h-70z" />
    <glyph glyph-name="uni01D3" unicode="&#x1d3;" 
d="M79 248v408h84v-410c0 -136 59 -185 138 -185s139 49 139 185v410h81v-408c0 -188 -92 -260 -220 -260c-129 0 -222 72 -222 260zM369 818h67l-96 -112h-80l-96 112h67l67 -68h4z" />
    <glyph glyph-name="uni01D4" unicode="&#x1d4;" 
d="M505 486v-486h-67l-7 85h-4c-49 -57 -106 -97 -181 -97c-116 0 -169 68 -169 196v302h83v-291c0 -92 31 -136 112 -136c56 0 97 27 151 90v337h82zM259 573l-97 148h64l67 -99h4l67 99h63l-97 -148h-71z" />
    <glyph glyph-name="uni01D5" unicode="&#x1d5;" 
d="M79 248v408h84v-410c0 -136 59 -185 138 -185s139 49 139 185v410h81v-408c0 -188 -92 -260 -220 -260c-129 0 -222 72 -222 260zM176 861v46h248v-46h-248zM214 715c-26 0 -46 19 -46 46c0 26 20 45 46 45s45 -19 45 -45c0 -27 -19 -46 -45 -46zM386 715
c-26 0 -45 19 -45 46c0 26 19 45 45 45s46 -19 46 -45c0 -27 -20 -46 -46 -46z" />
    <glyph glyph-name="uni01D6" unicode="&#x1d6;" 
d="M505 486v-486h-67l-7 85h-4c-49 -57 -106 -97 -181 -97c-116 0 -169 68 -169 196v302h83v-291c0 -92 31 -136 112 -136c56 0 97 27 151 90v337h82zM208 588c-26 0 -45 20 -45 45c0 26 19 46 45 46c27 0 46 -20 46 -46c0 -25 -19 -45 -46 -45zM381 588
c-26 0 -45 20 -45 45c0 26 19 46 45 46s45 -20 45 -46c0 -25 -19 -45 -45 -45zM171 750v47h246v-47h-246z" />
    <glyph glyph-name="uni01D7" unicode="&#x1d7;" 
d="M79 248v408h84v-410c0 -136 59 -185 138 -185s139 49 139 185v410h81v-408c0 -188 -92 -260 -220 -260c-129 0 -222 72 -222 260zM249 839l89 111h91l-112 -111h-68zM214 715c-26 0 -46 19 -46 46c0 26 20 45 46 45s45 -19 45 -45c0 -27 -19 -46 -45 -46zM386 715
c-26 0 -45 19 -45 46c0 26 19 45 45 45s46 -19 46 -45c0 -27 -20 -46 -46 -46z" />
    <glyph glyph-name="uni01D8" unicode="&#x1d8;" 
d="M505 486v-486h-67l-7 85h-4c-49 -57 -106 -97 -181 -97c-116 0 -169 68 -169 196v302h83v-291c0 -92 31 -136 112 -136c56 0 97 27 151 90v337h82zM242 720l82 103h79l-103 -103h-58zM208 588c-26 0 -45 20 -45 45c0 26 19 46 45 46c27 0 46 -20 46 -46
c0 -25 -19 -45 -46 -45zM381 588c-26 0 -45 20 -45 45c0 26 19 46 45 46s45 -20 45 -46c0 -25 -19 -45 -45 -45z" />
    <glyph glyph-name="uni01D9" unicode="&#x1d9;" 
d="M79 248v408h84v-410c0 -136 59 -185 138 -185s139 49 139 185v410h81v-408c0 -188 -92 -260 -220 -260c-129 0 -222 72 -222 260zM214 715c-26 0 -46 19 -46 46c0 26 20 45 46 45s45 -19 45 -45c0 -27 -19 -46 -45 -46zM386 715c-26 0 -45 19 -45 46c0 26 19 45 45 45
s46 -19 46 -45c0 -27 -20 -46 -46 -46zM369 950h67l-96 -111h-80l-96 111h67l67 -68h4z" />
    <glyph glyph-name="uni01DA" unicode="&#x1da;" 
d="M505 486v-486h-67l-7 85h-4c-49 -57 -106 -97 -181 -97c-116 0 -169 68 -169 196v302h83v-291c0 -92 31 -136 112 -136c56 0 97 27 151 90v337h82zM259 720l-90 103h61l63 -64h4l62 64h61l-90 -103h-71zM208 588c-26 0 -45 20 -45 45c0 26 19 46 45 46
c27 0 46 -20 46 -46c0 -25 -19 -45 -46 -45zM381 588c-26 0 -45 20 -45 45c0 26 19 46 45 46s45 -20 45 -46c0 -25 -19 -45 -45 -45z" />
    <glyph glyph-name="uni01DB" unicode="&#x1db;" 
d="M79 248v408h84v-410c0 -136 59 -185 138 -185s139 49 139 185v410h81v-408c0 -188 -92 -260 -220 -260c-129 0 -222 72 -222 260zM262 950l89 -111h-68l-112 111h91zM386 715c-26 0 -45 19 -45 46c0 26 19 45 45 45s46 -19 46 -45c0 -27 -20 -46 -46 -46zM214 715
c-26 0 -46 19 -46 46c0 26 20 45 46 45s45 -19 45 -45c0 -27 -19 -46 -45 -46z" />
    <glyph glyph-name="uni01DC" unicode="&#x1dc;" 
d="M505 486v-486h-67l-7 85h-4c-49 -57 -106 -97 -181 -97c-116 0 -169 68 -169 196v302h83v-291c0 -92 31 -136 112 -136c56 0 97 27 151 90v337h82zM266 823l81 -103h-57l-104 103h80zM381 588c-26 0 -45 20 -45 45c0 26 19 46 45 46s45 -20 45 -46c0 -25 -19 -45 -45 -45
zM208 588c-26 0 -45 20 -45 45c0 26 19 46 45 46c27 0 46 -20 46 -46c0 -25 -19 -45 -46 -45z" />
    <glyph glyph-name="Gcaron" unicode="&#x1e6;" 
d="M53 328c0 212 121 340 291 340c87 0 144 -41 181 -80l-47 -53c-32 34 -71 60 -134 60c-123 0 -204 -102 -204 -265c0 -165 73 -269 202 -269c46 0 89 15 114 39v171h-131v69h208v-276c-42 -42 -111 -76 -196 -76c-165 0 -284 126 -284 340zM400 818h67l-96 -112h-79
l-96 112h66l67 -68h4z" />
    <glyph glyph-name="gcaron" unicode="&#x1e7;" 
d="M143 -81c0 -51 55 -86 159 -86c113 0 183 50 183 100c0 46 -37 59 -111 59h-95c-28 0 -53 2 -74 8c-46 -25 -62 -53 -62 -81zM72 -89c0 39 28 78 80 108v4c-26 14 -50 39 -50 80c0 31 21 66 58 91v4c-33 25 -60 68 -60 126c0 106 88 174 191 174c28 0 51 -4 72 -12h201
v-63h-130c23 -24 45 -59 45 -102c0 -104 -83 -167 -188 -167c-25 0 -55 6 -82 18c-24 -15 -38 -33 -38 -56c0 -39 37 -56 101 -56h109c125 0 185 -32 185 -114c0 -91 -105 -170 -270 -170c-142 0 -224 49 -224 135zM291 209c62 0 112 45 112 115c0 68 -50 114 -112 114
c-61 0 -112 -46 -112 -114c0 -70 51 -115 112 -115zM272 573l-97 148h63l67 -99h4l67 99h64l-97 -148h-71z" />
    <glyph glyph-name="uni01EA" unicode="&#x1ea;" 
d="M387 -139l23 -45c-20 -15 -54 -28 -80 -28c-53 0 -96 30 -96 87c0 44 27 85 62 114c-172 5 -248 168 -248 342c0 210 104 337 252 337s252 -128 252 -337c0 -177 -69 -285 -175 -331c-54 -23 -78 -71 -78 -107c0 -31 24 -46 47 -46c16 0 29 5 41 14zM300 61
c100 0 166 106 166 270c0 163 -66 264 -166 264s-166 -101 -166 -264c0 -164 66 -270 166 -270z" />
    <glyph glyph-name="uni01EB" unicode="&#x1eb;" 
d="M234 -121c0 50 33 91 55 110c-126 5 -229 99 -229 253c0 163 112 256 240 256s240 -93 240 -256c0 -135 -68 -203 -174 -246c-46 -21 -71 -63 -71 -101c0 -31 22 -46 46 -46c16 0 28 5 40 13l22 -41c-19 -15 -54 -27 -79 -27c-50 0 -90 29 -90 85zM145 242
c0 -111 62 -186 155 -186s155 75 155 186c0 112 -62 188 -155 188s-155 -76 -155 -188z" />
    <glyph glyph-name="uni0218" unicode="&#x218;" 
d="M67 85l50 58c49 -49 117 -82 189 -82c93 0 146 43 146 107c0 67 -51 88 -118 116l-94 41c-66 26 -142 73 -142 169c0 100 90 174 215 174c82 0 154 -33 202 -81l-44 -54c-43 38 -93 62 -158 62c-79 0 -130 -37 -130 -96c0 -63 61 -86 117 -109l92 -40
c81 -33 145 -78 145 -175c0 -104 -88 -187 -232 -187c-96 0 -179 38 -238 97zM281 -48c68 -10 97 -32 97 -77c0 -58 -69 -85 -145 -91l-8 40c53 7 89 20 89 46s-23 37 -51 44z" />
    <glyph glyph-name="uni0219" unicode="&#x219;" 
d="M72 64l40 54c54 -40 114 -66 201 -66s130 34 130 76c0 38 -39 65 -158 94c-100 25 -185 69 -185 138c0 78 70 138 204 138c73 0 147 -29 195 -62l-40 -53c-43 30 -95 51 -155 51c-91 0 -120 -32 -120 -70c0 -40 60 -64 148 -86c131 -33 194 -71 194 -145
c0 -79 -77 -145 -216 -145c-95 0 -179 35 -238 76zM281 -48c67 -10 97 -32 97 -77c0 -58 -69 -85 -145 -91l-8 40c52 7 89 20 89 46s-23 37 -51 44z" />
    <glyph glyph-name="uni021A" unicode="&#x21a;" 
d="M258 0v586h-216v70h516v-70h-216v-586h-84zM271 -48c68 -10 98 -32 98 -77c0 -58 -69 -85 -145 -91l-8 40c52 7 89 20 89 46s-23 37 -52 44z" />
    <glyph glyph-name="uni021B" unicode="&#x21b;" 
d="M206 189v230h-137v62l140 5l11 136h68v-136h239v-67h-239v-231c0 -87 29 -133 123 -133c46 0 83 9 117 22l18 -60c-44 -16 -100 -29 -153 -29c-141 0 -187 81 -187 201zM350 -48c68 -10 97 -32 97 -77c0 -58 -69 -85 -144 -91l-9 40c53 7 89 20 89 46s-22 37 -51 44z" />
    <glyph glyph-name="uni0237" unicode="&#x237;" 
d="M90 419v67h308v-498c0 -120 -47 -205 -204 -205c-51 0 -100 14 -139 33l27 61c35 -17 74 -27 111 -27c97 0 123 49 123 132v437h-226z" />
    <glyph glyph-name="uni0243" unicode="&#x243;" 
d="M187 63h107c112 0 179 44 179 137c0 86 -64 125 -179 125h-107v-101h143v-47h-143v-114zM187 594v-214h90c111 0 158 38 158 112c0 72 -53 102 -154 102h-94zM401 360v-4c96 -15 152 -68 152 -160c0 -132 -100 -196 -247 -196h-202v177h-77v42l77 5v432h187
c134 0 225 -46 225 -158c0 -64 -37 -118 -115 -138z" />
    <glyph glyph-name="uni0250" unicode="&#x250;" 
d="M529 360c0 -109 -102 -162 -352 -181c2 -67 35 -123 128 -123c64 0 126 30 171 58l32 -56c-49 -32 -131 -70 -216 -70c-133 0 -198 79 -198 200v298h68l7 -66h3c53 42 123 78 191 78c92 0 166 -50 166 -138zM449 354c0 55 -51 78 -107 78s-110 -26 -165 -72v-128
c208 17 272 58 272 122z" />
    <glyph glyph-name="uni0251" unicode="&#x251;" 
d="M145 243c0 -116 53 -186 143 -186c48 0 94 25 137 73v242c-44 41 -86 57 -128 57c-84 0 -152 -75 -152 -186zM60 242c0 158 105 256 222 256c57 0 104 -23 149 -66h3l7 54h66v-486h-68l-7 64h-3c-39 -41 -98 -76 -159 -76c-125 0 -210 92 -210 254z" />
    <glyph glyph-name="uni0252" unicode="&#x252;" 
d="M455 247c0 110 -41 182 -138 182c-48 0 -99 -25 -142 -73v-242c47 -42 95 -57 131 -57c85 0 149 73 149 190zM540 251c0 -166 -104 -263 -220 -263c-48 0 -105 25 -151 66h-3l-7 -54h-66v486h68l7 -64h3c39 41 103 76 168 76c130 0 201 -97 201 -247z" />
    <glyph glyph-name="uni0254" unicode="&#x254;" 
d="M520 242c0 -161 -115 -254 -263 -254c-75 0 -144 28 -196 76l37 53c39 -34 91 -61 151 -61c110 0 186 75 186 186c0 112 -72 188 -177 188c-58 0 -104 -21 -145 -56l-42 53c41 39 104 71 192 71c141 0 257 -93 257 -256z" />
    <glyph glyph-name="uni0258" unicode="&#x258;" 
d="M531 242c0 -159 -117 -254 -261 -254c-78 0 -139 26 -187 57l29 54c45 -28 91 -45 148 -45c106 0 179 65 186 169h-380c-2 12 -3 30 -3 47c0 137 96 228 232 228c130 0 236 -97 236 -256zM139 282h308c-13 95 -69 151 -156 151c-83 0 -152 -54 -152 -151z" />
    <glyph glyph-name="uni0259" unicode="&#x259;" 
d="M69 222c0 18 2 36 4 48h379c-6 98 -63 163 -174 163c-56 0 -105 -17 -149 -43l-29 56c48 30 112 52 187 52c151 0 250 -94 250 -254c0 -159 -102 -256 -243 -256c-136 0 -225 89 -225 234zM145 211c0 -105 60 -157 147 -157c96 0 152 57 161 157h-308z" />
    <glyph glyph-name="uni0261" unicode="&#x261;" 
d="M125 -106c50 -32 106 -45 155 -45c93 0 145 51 147 129l1 98c-38 -39 -98 -71 -158 -71c-125 0 -210 92 -210 245c0 152 104 248 222 248c57 0 106 -25 149 -66h3l7 54h66v-505c0 -122 -83 -198 -227 -198c-63 0 -132 18 -185 52zM288 73c47 0 93 25 137 73v226
c-44 41 -86 57 -129 57c-82 0 -152 -74 -152 -178c0 -109 55 -178 144 -178z" />
    <glyph glyph-name="uni0265" unicode="&#x265;" 
d="M507 486v-691h-82v174l4 114c-52 -53 -108 -95 -184 -95c-115 0 -168 68 -168 196v302h82v-291c0 -92 32 -136 112 -136c58 0 97 30 154 88v339h82z" />
    <glyph glyph-name="uni026F" unicode="&#x26f;" 
d="M542 486v-486h-64l-7 64h-3c-24 -45 -53 -76 -109 -76c-49 0 -80 28 -92 84c-28 -51 -60 -84 -114 -84c-68 0 -107 53 -107 150v348h79v-341c0 -57 17 -86 53 -86c35 0 58 25 83 75v352h67v-341c0 -57 18 -86 54 -86c34 0 57 25 82 75v352h78z" />
    <glyph glyph-name="uni0279" unicode="&#x279;" 
d="M454 486v-486h-68l-7 115h-3c-51 -78 -127 -127 -217 -127c-36 0 -66 5 -96 20l19 71c34 -12 52 -17 90 -17c73 0 142 38 200 139v285h82z" />
    <glyph glyph-name="uni0287" unicode="&#x287;" 
d="M394 297v-230h137v-67h-140l-11 -136h-68v136h-239v67h239v231c0 87 -29 133 -123 133c-46 0 -83 -9 -117 -22l-18 61c44 15 100 28 153 28c141 0 187 -81 187 -201z" />
    <glyph glyph-name="uni028C" unicode="&#x28c;" 
d="M344 486l205 -486h-83l-112 276c-20 49 -38 97 -55 144h-4c-17 -47 -33 -95 -53 -144l-112 -276h-79l201 486h92z" />
    <glyph glyph-name="uni028D" unicode="&#x28d;" 
d="M483 486l109 -486h-84l-59 281c-9 46 -17 90 -24 135h-4c-9 -45 -18 -90 -29 -135l-59 -252h-70l-60 252c-11 46 -20 90 -30 135h-4c-9 -45 -16 -89 -24 -135l-59 -281h-78l106 486h99l58 -246c9 -46 17 -92 27 -141h4c8 42 15 86 27 142l56 245h98z" />
    <glyph glyph-name="uni028E" unicode="&#x28e;" 
d="M519 649c-12 4 -26 7 -42 7c-64 0 -103 -45 -126 -106l-27 -63l227 -487h-83l-119 269c-19 43 -40 94 -60 141h-4c-17 -46 -36 -97 -52 -141l-106 -269h-78l226 554c36 96 93 170 198 170c23 0 46 -4 64 -10z" />
    <glyph glyph-name="uni029E" unicode="&#x29e;" 
d="M494 486v-691h-82v460h-4l-262 -255h-94l194 193l-220 293h92l179 -240l115 110v130h82z" />
    <glyph glyph-name="h.sups" unicode="&#x2b0;" 
d="M175 260v468h64v-125l-4 -69c32 31 68 56 116 56c75 0 109 -45 109 -127v-203h-64v195c0 55 -19 81 -67 81c-34 0 -57 -17 -90 -49v-227h-64z" />
    <glyph glyph-name="j.sups" unicode="&#x2b2;" 
d="M164 531v51h204v-324c0 -79 -31 -139 -139 -139c-34 0 -65 10 -89 23l20 46c22 -11 46 -17 66 -17c62 0 79 30 79 83v277h-141zM336 645c-28 0 -49 17 -49 45c0 27 21 46 49 46c27 0 48 -19 48 -46c0 -28 -21 -45 -48 -45z" />
    <glyph glyph-name="r.sups" unicode="&#x2b3;" 
d="M243 260v322h54l5 -75h2c30 52 76 83 128 83c25 0 44 -4 64 -13l-13 -54c-23 7 -36 10 -60 10c-41 0 -84 -24 -116 -90v-183h-64z" />
    <glyph glyph-name="w.sups" unicode="&#x2b7;" 
d="M152 260l-70 322h64l37 -178c6 -31 10 -61 15 -91h3c5 30 11 61 18 91l36 154h51l37 -154c7 -31 12 -61 18 -91h3c6 30 10 60 16 91l36 178h60l-67 -322h-77l-35 151c-6 30 -11 60 -17 93h-3c-5 -27 -9 -55 -17 -93l-34 -151h-74z" />
    <glyph glyph-name="y.sups" unicode="&#x2b8;" 
d="M168 180c7 -1 17 -4 26 -4c39 0 63 26 77 63l7 23l-138 320h64l69 -170c11 -27 22 -60 34 -90h2c10 29 20 62 29 90l60 170h62l-130 -343c-25 -68 -62 -115 -132 -115c-17 0 -31 3 -43 7z" />
    <glyph glyph-name="uni02BB" unicode="&#x2bb;" 
d="M353 699l27 -48c-62 -36 -99 -89 -103 -158c8 4 17 6 26 6c41 0 70 -30 70 -72c0 -46 -31 -77 -74 -77c-52 0 -90 45 -90 120c0 100 54 183 144 229z" />
    <glyph glyph-name="uni02BC" unicode="&#x2bc;" 
d="M245 350l-28 48c63 35 100 88 104 158c-8 -4 -17 -6 -26 -6c-42 0 -71 29 -71 71c0 46 31 78 74 78c53 0 90 -45 90 -121c0 -100 -54 -182 -143 -228z" />
    <glyph glyph-name="uni02BE" unicode="&#x2be;" 
d="M245 502v36c68 0 95 31 95 77c0 45 -27 76 -95 76v36c91 2 141 -43 141 -112c0 -70 -50 -115 -141 -113z" />
    <glyph glyph-name="uni02BF" unicode="&#x2bf;" 
d="M360 727v-36c-68 0 -94 -31 -94 -76c0 -46 26 -77 94 -77v-36c-91 -2 -141 43 -141 113c0 69 50 114 141 112z" />
    <glyph glyph-name="circumflex" unicode="&#x2c6;" 
d="M168 573l97 148h70l97 -148h-63l-67 99h-4l-67 -99h-63z" />
    <glyph glyph-name="caron" unicode="&#x2c7;" 
d="M265 573l-97 148h63l67 -99h4l67 99h63l-97 -148h-70z" />
    <glyph glyph-name="uni02C8" unicode="&#x2c8;" 
d="M272 397l-23 319h102l-23 -319h-56z" />
    <glyph glyph-name="uni02C9" unicode="&#x2c9;" 
d="M177 601v57h246v-57h-246z" />
    <glyph glyph-name="uni02CA" unicode="&#x2ca;" 
d="M413 721l-116 -148h-64l91 148h89z" />
    <glyph glyph-name="uni02CB" unicode="&#x2cb;" 
d="M301 573l-117 148h89l91 -148h-63z" />
    <glyph glyph-name="uni02CC" unicode="&#x2cc;" 
d="M328 66l23 -320h-102l23 320h56z" />
    <glyph glyph-name="breve" unicode="&#x2d8;" 
d="M300 575c-88 0 -125 71 -130 134h51c6 -43 30 -83 79 -83s73 40 79 83h51c-5 -63 -42 -134 -130 -134z" />
    <glyph glyph-name="dotaccent" unicode="&#x2d9;" 
d="M300 586c-37 0 -66 25 -66 63c0 39 29 64 66 64s66 -25 66 -64c0 -38 -29 -63 -66 -63z" />
    <glyph glyph-name="ring" unicode="&#x2da;" 
d="M300 542c-54 0 -93 37 -93 93c0 55 39 92 93 92s93 -37 93 -92c0 -56 -39 -93 -93 -93zM300 579c27 0 48 22 48 56c0 33 -21 55 -48 55s-48 -22 -48 -55c0 -34 21 -56 48 -56z" />
    <glyph glyph-name="ogonek" unicode="&#x2db;" 
d="M234 -121c0 54 38 99 71 124h58c-43 -32 -68 -69 -68 -108c0 -31 22 -46 46 -46c16 0 29 5 40 13l22 -41c-19 -15 -54 -27 -79 -27c-50 0 -90 29 -90 85z" />
    <glyph glyph-name="tilde" unicode="&#x2dc;" 
d="M158 579c7 63 35 109 88 109c48 0 77 -54 109 -54c21 0 34 18 40 54h47c-7 -62 -35 -109 -88 -109c-49 0 -76 55 -109 55c-21 0 -34 -18 -40 -55h-47z" />
    <glyph glyph-name="hungarumlaut" unicode="&#x2dd;" 
d="M202 571l70 143h73l-88 -143h-55zM349 571l71 143h72l-88 -143h-55z" />
    <glyph glyph-name="l.sups" unicode="&#x2e1;" 
d="M196 678v50h145v-364c0 -43 20 -60 55 -60c15 0 29 4 50 11l12 -50c-26 -7 -46 -13 -77 -13c-71 0 -104 42 -104 116v310h-81z" />
    <glyph glyph-name="s.sups" unicode="&#x2e2;" 
d="M162 297l30 42c34 -24 69 -38 118 -38c53 0 78 20 78 45c0 30 -45 44 -88 57c-56 17 -120 39 -120 94c0 53 50 93 135 93c48 0 91 -17 122 -37l-30 -40c-27 17 -56 29 -92 29c-50 0 -71 -19 -71 -42c0 -28 41 -40 84 -53c58 -17 123 -36 123 -97c0 -54 -50 -98 -143 -98
c-57 0 -110 20 -146 45z" />
    <glyph glyph-name="x.sups" unicode="&#x2e3;" 
d="M159 260l111 168l-102 154h68l43 -66c10 -18 22 -36 33 -54h3c10 18 20 36 31 54l38 66h68l-104 -161l111 -161h-69l-47 70c-11 20 -25 39 -38 58h-2c-11 -19 -22 -38 -34 -58l-43 -70h-67z" />
    <glyph glyph-name="uni0300" unicode="&#x300;" 
d="M302 573l-117 148h90l90 -148h-63z" />
    <glyph glyph-name="uni0301" unicode="&#x301;" 
d="M415 721l-117 -148h-63l90 148h90z" />
    <glyph glyph-name="uni0302" unicode="&#x302;" 
d="M168 573l97 148h70l97 -148h-63l-67 99h-4l-67 -99h-63z" />
    <glyph glyph-name="uni0303" unicode="&#x303;" 
d="M158 579c7 63 35 109 88 109c48 0 77 -54 109 -54c21 0 34 18 40 54h47c-7 -62 -35 -109 -88 -109c-49 0 -76 55 -109 55c-21 0 -34 -18 -40 -55h-47z" />
    <glyph glyph-name="uni0304" unicode="&#x304;" 
d="M177 601v57h246v-57h-246z" />
    <glyph glyph-name="uni0306" unicode="&#x306;" 
d="M300 575c-88 0 -125 71 -130 134h51c6 -43 30 -83 79 -83s73 40 79 83h51c-5 -63 -42 -134 -130 -134z" />
    <glyph glyph-name="uni0307" unicode="&#x307;" 
d="M300 586c-37 0 -66 25 -66 63c0 39 29 64 66 64s66 -25 66 -64c0 -38 -29 -63 -66 -63z" />
    <glyph glyph-name="uni0308" unicode="&#x308;" 
d="M204 588c-32 0 -54 24 -54 55s22 55 54 55c31 0 54 -24 54 -55s-23 -55 -54 -55zM396 588c-31 0 -54 24 -54 55s23 55 54 55c32 0 54 -24 54 -55s-22 -55 -54 -55z" />
    <glyph glyph-name="uni0309" unicode="&#x309;" 
d="M272 553l-9 38c32 9 56 21 56 46c0 26 -28 40 -83 42l9 48c87 -3 138 -30 138 -81c0 -58 -53 -83 -111 -93z" />
    <glyph glyph-name="uni030A" unicode="&#x30a;" 
d="M300 542c-54 0 -93 37 -93 93c0 55 39 92 93 92s93 -37 93 -92c0 -56 -39 -93 -93 -93zM300 579c27 0 48 22 48 56c0 33 -21 55 -48 55s-48 -22 -48 -55c0 -34 21 -56 48 -56z" />
    <glyph glyph-name="uni030B" unicode="&#x30b;" 
d="M202 571l70 143h73l-88 -143h-55zM349 571l71 143h72l-88 -143h-55z" />
    <glyph glyph-name="uni030C" unicode="&#x30c;" 
d="M265 573l-97 148h63l67 -99h4l67 99h63l-97 -148h-70z" />
    <glyph glyph-name="uni030F" unicode="&#x30f;" 
d="M328 714l70 -143h-55l-88 143h73zM180 714l71 -143h-55l-88 143h72z" />
    <glyph glyph-name="uni0312" unicode="&#x312;" 
d="M328 732l18 -32c-38 -18 -55 -42 -57 -72c3 1 5 1 8 1c20 0 41 -13 41 -39c0 -30 -18 -45 -40 -45c-33 0 -51 24 -51 69c0 47 24 92 81 118z" />
    <glyph glyph-name="uni0313" unicode="&#x313;" 
d="M270 544l-17 32c37 18 55 42 57 72c-3 -1 -6 -1 -9 -1c-20 0 -41 13 -41 39c0 29 19 44 41 44c32 0 50 -24 50 -69c0 -47 -24 -91 -81 -117z" />
    <glyph glyph-name="uni031B" unicode="&#x31b;" 
d="M299 435l-8 41c56 8 84 26 84 66c0 15 -6 29 -14 42l59 29c13 -18 23 -40 23 -65c0 -72 -62 -105 -144 -113z" />
    <glyph glyph-name="uni0323" unicode="&#x323;" 
d="M300 -226c-37 0 -66 25 -66 63c0 39 29 64 66 64s66 -25 66 -64c0 -38 -29 -63 -66 -63z" />
    <glyph glyph-name="uni0324" unicode="&#x324;" 
d="M214 -201c-29 0 -49 22 -49 49c0 28 20 49 49 49c28 0 49 -21 49 -49c0 -27 -21 -49 -49 -49zM386 -201c-28 0 -49 22 -49 49c0 28 21 49 49 49c29 0 49 -21 49 -49c0 -27 -20 -49 -49 -49z" />
    <glyph glyph-name="uni0326" unicode="&#x326;" 
d="M271 -48c68 -10 97 -32 97 -77c0 -58 -69 -85 -145 -91l-8 40c53 7 89 20 89 46s-23 37 -51 44z" />
    <glyph glyph-name="uni0327" unicode="&#x327;" 
d="M241 -75l40 78h53l-25 -53c32 -11 59 -30 59 -71c0 -58 -69 -85 -145 -92l-8 41c53 7 89 21 89 48c0 26 -23 39 -63 49z" />
    <glyph glyph-name="uni0328" unicode="&#x328;" 
d="M234 -121c0 54 38 99 71 124h58c-43 -32 -68 -69 -68 -108c0 -31 22 -46 46 -46c16 0 29 5 40 13l22 -41c-19 -15 -54 -27 -79 -27c-50 0 -90 29 -90 85z" />
    <glyph glyph-name="uni032E" unicode="&#x32e;" 
d="M300 -206c-86 0 -122 68 -126 127h51c5 -39 28 -76 75 -76s70 37 75 76h51c-4 -59 -40 -127 -126 -127z" />
    <glyph glyph-name="uni0331" unicode="&#x331;" 
d="M423 -113v-58h-247v58h247z" />
    <glyph glyph-name="pi" unicode="&#x3c0;" 
d="M390 110c0 50 4 202 6 308h-185c0 -136 -5 -281 -14 -423l-83 5c16 143 20 287 20 418h-95v63l70 5h452v-68h-86c-6 -110 -7 -267 -7 -314c0 -34 14 -48 45 -48c6 0 14 2 27 6l11 -63c-14 -6 -30 -11 -55 -11c-76 0 -106 43 -106 122z" />
    <glyph glyph-name="a.sups" unicode="&#x1d43;" 
d="M167 345c0 70 67 105 211 120c-1 40 -18 74 -70 74c-38 0 -74 -17 -103 -34l-25 43c34 20 85 42 138 42c84 0 124 -51 124 -135v-195h-52l-5 37h-2c-32 -25 -71 -45 -113 -45c-57 0 -103 36 -103 93zM230 349c0 -32 26 -47 59 -47c30 0 59 15 89 40v82
c-108 -12 -148 -37 -148 -75z" />
    <glyph glyph-name="b.sups" unicode="&#x1d47;" 
d="M172 260v468h64v-125l-2 -56c30 25 67 43 104 43c87 0 134 -64 134 -164c0 -110 -69 -174 -145 -174c-32 0 -67 15 -97 40h-1l-7 -32h-50zM236 335c28 -22 56 -30 78 -30c53 0 92 44 92 120c0 68 -24 112 -85 112c-27 0 -55 -13 -85 -40v-162z" />
    <glyph glyph-name="d.sups" unicode="&#x1d48;" 
d="M137 421c0 105 69 169 146 169c39 0 65 -14 93 -37l-2 54v121h64v-468h-53l-5 37h-2c-26 -25 -63 -45 -102 -45c-84 0 -139 62 -139 169zM203 421c0 -73 32 -116 88 -116c30 0 56 13 83 40v161c-28 23 -53 31 -79 31c-52 0 -92 -45 -92 -116z" />
    <glyph glyph-name="e.sups" unicode="&#x1d49;" 
d="M160 421c0 105 77 169 157 169c90 0 140 -61 140 -152c0 -12 -1 -24 -3 -32h-231c5 -65 50 -104 112 -104c32 0 60 9 86 25l23 -41c-32 -19 -72 -34 -118 -34c-92 0 -166 62 -166 169zM222 447h179c0 59 -30 93 -83 93c-46 0 -88 -33 -96 -93z" />
    <glyph glyph-name="g.sups" unicode="&#x1d4d;" 
d="M203 210c0 -32 35 -53 101 -53c71 0 117 30 117 60c0 28 -25 36 -72 36h-59c-20 0 -35 1 -49 5c-28 -15 -38 -32 -38 -48zM149 202c0 25 19 51 53 70v3c-17 9 -33 26 -33 53c0 21 15 44 39 60v3c-22 17 -41 45 -41 83c0 72 59 116 130 116c18 0 35 -2 49 -8h134v-48h-82
c14 -14 25 -36 25 -61c0 -71 -55 -111 -126 -111c-17 0 -34 4 -53 11c-14 -9 -22 -20 -22 -34c0 -24 21 -34 63 -34h71c85 0 126 -23 126 -77c0 -63 -71 -114 -184 -114c-93 0 -149 31 -149 88zM297 404c38 0 69 27 69 70s-31 72 -69 72c-39 0 -69 -29 -69 -72
s30 -70 69 -70z" />
    <glyph glyph-name="k.sups" unicode="&#x1d4f;" 
d="M189 260v468h64v-306h2l159 160h71l-124 -128l140 -194h-71l-107 152l-70 -67v-85h-64z" />
    <glyph glyph-name="m.sups" unicode="&#x1d50;" 
d="M130 260v322h50l5 -42h2c16 29 36 50 73 50c32 0 53 -18 61 -55c17 33 40 55 76 55c45 0 71 -36 71 -100v-230h-61v225c0 34 -9 51 -31 51c-21 0 -36 -16 -50 -46v-230h-53v225c0 34 -10 51 -32 51c-20 0 -34 -16 -50 -46v-230h-61z" />
    <glyph glyph-name="o.sups" unicode="&#x1d52;" 
d="M142 421c0 107 74 169 158 169c85 0 158 -62 158 -169s-73 -169 -158 -169c-84 0 -158 62 -158 169zM208 421c0 -70 35 -117 92 -117s92 47 92 117c0 69 -35 117 -92 117s-92 -48 -92 -117z" />
    <glyph glyph-name="p.sups" unicode="&#x1d56;" 
d="M234 289l2 -55v-107h-64v455h52l5 -36h3c30 24 67 44 107 44c86 0 133 -64 133 -164c0 -110 -69 -174 -145 -174c-32 0 -63 13 -93 37zM236 335c28 -22 56 -30 78 -30c53 0 92 44 92 120c0 68 -24 112 -85 112c-27 0 -54 -13 -85 -40v-162z" />
    <glyph glyph-name="t.sups" unicode="&#x1d57;" 
d="M241 387v144h-77v48l80 3l8 90h53v-90h145v-51h-145v-144c0 -56 20 -84 79 -84c26 0 46 6 66 14l13 -46c-26 -11 -60 -19 -94 -19c-96 0 -128 54 -128 135z" />
    <glyph glyph-name="u.sups" unicode="&#x1d58;" 
d="M443 582v-322h-52l-6 51h-2c-31 -35 -68 -59 -117 -59c-73 0 -107 45 -107 127v203h64v-195c0 -55 18 -80 65 -80c34 0 59 14 91 51v224h64z" />
    <glyph glyph-name="v.sups" unicode="&#x1d5b;" 
d="M269 260l-122 322h66l61 -176c12 -32 21 -64 31 -96h2c11 32 20 64 31 96l62 176h61l-118 -322h-74z" />
    <glyph glyph-name="c.sups" unicode="&#x1d9c;" 
d="M181 421c0 107 80 169 170 169c46 0 79 -17 103 -38l-32 -41c-20 17 -42 27 -68 27c-63 0 -108 -48 -108 -117c0 -70 43 -117 106 -117c33 0 60 14 82 31l27 -41c-32 -26 -73 -42 -115 -42c-94 0 -165 62 -165 169z" />
    <glyph glyph-name="f.sups" unicode="&#x1da0;" 
d="M503 720l-14 -48c-23 9 -45 14 -71 14c-55 0 -78 -31 -78 -77v-27h128v-51h-128v-271h-63v271h-79v48l79 3v25c0 77 42 129 134 129c33 0 63 -6 92 -16z" />
    <glyph glyph-name="z.sups" unicode="&#x1dbb;" 
d="M146 260v34l213 237h-189v51h279v-34l-212 -237h219v-51h-310z" />
    <glyph glyph-name="uni1E0C" unicode="&#x1e0c;" 
d="M85 0v656h160c198 0 304 -117 304 -325c0 -209 -106 -331 -300 -331h-164zM168 68h72c149 0 223 97 223 263c0 165 -74 257 -223 257h-72v-520zM290 -226c-37 0 -66 25 -66 63c0 39 29 64 66 64s66 -25 66 -64c0 -38 -29 -63 -66 -63z" />
    <glyph glyph-name="uni1E0D" unicode="&#x1e0d;" 
d="M60 242c0 158 106 256 221 256c59 0 102 -24 147 -63l-3 90v187h82v-712h-68l-7 64h-3c-40 -41 -98 -76 -158 -76c-127 0 -211 92 -211 254zM145 243c0 -116 53 -186 143 -186c48 0 94 25 137 73v242c-44 41 -86 57 -128 57c-84 0 -152 -75 -152 -186zM306 -226
c-37 0 -66 25 -66 63c0 39 29 64 66 64c38 0 66 -25 66 -64c0 -38 -28 -63 -66 -63z" />
    <glyph glyph-name="uni1E0E" unicode="&#x1e0e;" 
d="M85 0v656h160c198 0 304 -117 304 -325c0 -209 -106 -331 -300 -331h-164zM168 68h72c149 0 223 97 223 263c0 165 -74 257 -223 257h-72v-520zM413 -113v-58h-247v58h247z" />
    <glyph glyph-name="uni1E0F" unicode="&#x1e0f;" 
d="M60 242c0 158 106 256 221 256c59 0 102 -24 147 -63l-3 90v187h82v-712h-68l-7 64h-3c-40 -41 -98 -76 -158 -76c-127 0 -211 92 -211 254zM145 243c0 -116 53 -186 143 -186c48 0 94 25 137 73v242c-44 41 -86 57 -128 57c-84 0 -152 -75 -152 -186zM429 -113v-58h-247
v58h247z" />
    <glyph glyph-name="uni1E20" unicode="&#x1e20;" 
d="M53 328c0 212 121 340 291 340c87 0 144 -41 181 -80l-47 -53c-32 34 -71 60 -134 60c-123 0 -204 -102 -204 -265c0 -165 73 -269 202 -269c46 0 89 15 114 39v171h-131v69h208v-276c-42 -42 -111 -76 -196 -76c-165 0 -284 126 -284 340zM207 729v57h248v-57h-248z" />
    <glyph glyph-name="uni1E21" unicode="&#x1e21;" 
d="M143 -81c0 -51 55 -86 159 -86c113 0 183 50 183 100c0 46 -37 59 -111 59h-95c-28 0 -53 2 -74 8c-46 -25 -62 -53 -62 -81zM72 -89c0 39 28 78 80 108v4c-26 14 -50 39 -50 80c0 31 21 66 58 91v4c-33 25 -60 68 -60 126c0 106 88 174 191 174c28 0 51 -4 72 -12h201
v-63h-130c23 -24 45 -59 45 -102c0 -104 -83 -167 -188 -167c-25 0 -55 6 -82 18c-24 -15 -38 -33 -38 -56c0 -39 37 -56 101 -56h109c125 0 185 -32 185 -114c0 -91 -105 -170 -270 -170c-142 0 -224 49 -224 135zM291 209c62 0 112 45 112 115c0 68 -50 114 -112 114
c-61 0 -112 -46 -112 -114c0 -70 51 -115 112 -115zM185 601v57h245v-57h-245z" />
    <glyph glyph-name="uni1E24" unicode="&#x1e24;" 
d="M79 0v656h84v-275h274v275h84v-656h-84v309h-274v-309h-84zM300 -226c-38 0 -66 25 -66 63c0 39 28 64 66 64c37 0 65 -25 65 -64c0 -38 -28 -63 -65 -63z" />
    <glyph glyph-name="uni1E25" unicode="&#x1e25;" 
d="M93 0v712h82v-194l-4 -115c52 54 108 95 184 95c115 0 168 -68 168 -196v-302h-82v291c0 92 -32 136 -112 136c-58 0 -97 -29 -154 -88v-339h-82zM314 -226c-38 0 -66 25 -66 63c0 39 28 64 66 64c37 0 66 -25 66 -64c0 -38 -29 -63 -66 -63z" />
    <glyph glyph-name="uni1E2A" unicode="&#x1e2a;" 
d="M79 0v656h84v-275h274v275h84v-656h-84v309h-274v-309h-84zM300 -206c-86 0 -122 68 -127 127h51c6 -39 29 -76 76 -76c46 0 70 37 75 76h51c-5 -59 -40 -127 -126 -127z" />
    <glyph glyph-name="uni1E2B" unicode="&#x1e2b;" 
d="M93 0v712h82v-194l-4 -115c52 54 108 95 184 95c115 0 168 -68 168 -196v-302h-82v291c0 92 -32 136 -112 136c-58 0 -97 -29 -154 -88v-339h-82zM313 -206c-86 0 -122 68 -126 127h51c5 -39 28 -76 75 -76s70 37 75 76h52c-5 -59 -41 -127 -127 -127z" />
    <glyph glyph-name="uni1E36" unicode="&#x1e36;" 
d="M134 0v656h82v-585h325v-71h-407zM346 -226c-37 0 -66 25 -66 63c0 39 29 64 66 64c38 0 66 -25 66 -64c0 -38 -28 -63 -66 -63z" />
    <glyph glyph-name="uni1E37" unicode="&#x1e37;" 
d="M81 645v67h248v-555c0 -71 37 -101 95 -101c28 0 56 7 92 23l21 -62c-44 -16 -78 -29 -131 -29c-103 0 -159 60 -159 175v482h-166zM371 -226c-38 0 -66 25 -66 63c0 39 28 64 66 64c37 0 65 -25 65 -64c0 -38 -28 -63 -65 -63z" />
    <glyph glyph-name="uni1E38" unicode="&#x1e38;" 
d="M134 0v656h82v-585h325v-71h-407zM66 729v57h248v-57h-248zM346 -226c-37 0 -66 25 -66 63c0 39 29 64 66 64c38 0 66 -25 66 -64c0 -38 -28 -63 -66 -63z" />
    <glyph glyph-name="uni1E39" unicode="&#x1e39;" 
d="M81 645v67h248v-555c0 -71 37 -101 95 -101c28 0 56 7 92 23l21 -62c-44 -16 -78 -29 -131 -29c-103 0 -159 60 -159 175v482h-166zM161 823v57h245v-57h-245zM371 -226c-38 0 -66 25 -66 63c0 39 28 64 66 64c37 0 65 -25 65 -64c0 -38 -28 -63 -65 -63z" />
    <glyph glyph-name="uni1E3A" unicode="&#x1e3a;" 
d="M134 0v656h82v-585h325v-71h-407zM469 -113v-58h-247v58h247z" />
    <glyph glyph-name="uni1E3B" unicode="&#x1e3b;" 
d="M81 645v67h248v-555c0 -71 37 -101 95 -101c28 0 56 7 92 23l21 -62c-44 -16 -78 -29 -131 -29c-103 0 -159 60 -159 175v482h-166zM493 -113v-58h-246v58h246z" />
    <glyph glyph-name="uni1E42" unicode="&#x1e42;" 
d="M81 0v656h92l93 -279l33 -106h4l32 106l92 279h92v-656h-71v369c0 54 6 149 10 202h-3l-43 -140l-90 -253h-45l-90 253l-44 140h-3c4 -53 11 -148 11 -202v-369h-70zM300 -226c-37 0 -66 25 -66 63c0 39 29 64 66 64s66 -25 66 -64c0 -38 -29 -63 -66 -63z" />
    <glyph glyph-name="uni1E43" unicode="&#x1e43;" 
d="M60 0v486h64l7 -64h3c24 45 54 76 109 76c49 0 80 -28 92 -84c29 51 61 84 115 84c67 0 106 -53 106 -150v-348h-79v341c0 57 -17 86 -53 86c-35 0 -58 -25 -83 -75v-352h-66v341c0 57 -19 86 -55 86c-34 0 -56 -25 -81 -75v-352h-79zM305 -226c-37 0 -66 25 -66 63
c0 39 29 64 66 64c38 0 66 -25 66 -64c0 -38 -28 -63 -66 -63z" />
    <glyph glyph-name="uni1E44" unicode="&#x1e44;" 
d="M83 0v656h85l213 -414l66 -134h2c-3 65 -11 139 -11 208v340h79v-656h-85l-213 414l-66 134h-2c3 -67 11 -137 11 -205v-343h-79zM306 714c-32 0 -57 22 -57 54c0 31 25 53 57 53s57 -22 57 -53c0 -32 -25 -54 -57 -54z" />
    <glyph glyph-name="uni1E45" unicode="&#x1e45;" 
d="M93 0v486h68l7 -83h4c51 54 107 95 183 95c115 0 168 -68 168 -196v-302h-82v291c0 92 -32 136 -112 136c-58 0 -97 -29 -154 -88v-339h-82zM318 586c-38 0 -66 25 -66 63c0 39 28 64 66 64c37 0 66 -25 66 -64c0 -38 -29 -63 -66 -63z" />
    <glyph glyph-name="uni1E46" unicode="&#x1e46;" 
d="M83 0v656h85l213 -414l66 -134h2c-3 65 -11 139 -11 208v340h79v-656h-85l-213 414l-66 134h-2c3 -67 11 -137 11 -205v-343h-79zM300 -226c-37 0 -66 25 -66 63c0 39 29 64 66 64s66 -25 66 -64c0 -38 -29 -63 -66 -63z" />
    <glyph glyph-name="uni1E47" unicode="&#x1e47;" 
d="M93 0v486h68l7 -83h4c51 54 107 95 183 95c115 0 168 -68 168 -196v-302h-82v291c0 92 -32 136 -112 136c-58 0 -97 -29 -154 -88v-339h-82zM313 -226c-38 0 -66 25 -66 63c0 39 28 64 66 64c37 0 66 -25 66 -64c0 -38 -29 -63 -66 -63z" />
    <glyph glyph-name="uni1E48" unicode="&#x1e48;" 
d="M83 0v656h85l213 -414l66 -134h2c-3 65 -11 139 -11 208v340h79v-656h-85l-213 414l-66 134h-2c3 -67 11 -137 11 -205v-343h-79zM423 -113v-58h-247v58h247z" />
    <glyph glyph-name="uni1E49" unicode="&#x1e49;" 
d="M93 0v486h68l7 -83h4c51 54 107 95 183 95c115 0 168 -68 168 -196v-302h-82v291c0 92 -32 136 -112 136c-58 0 -97 -29 -154 -88v-339h-82zM435 -113v-58h-246v58h246z" />
    <glyph glyph-name="uni1E5A" unicode="&#x1e5a;" 
d="M320 -99c37 0 66 -25 66 -64c0 -38 -29 -63 -66 -63s-66 25 -66 63c0 39 29 64 66 64zM183 589v-244h109c102 0 158 42 158 127c0 86 -56 117 -158 117h-109zM386 286l167 -286h-95l-158 277h-117v-277h-83v656h204c133 0 229 -48 229 -184c0 -102 -58 -163 -147 -186z
" />
    <glyph glyph-name="uni1E5B" unicode="&#x1e5b;" 
d="M146 0v486h68l7 -115h3c51 78 127 127 217 127c36 0 66 -5 96 -20l-19 -71c-34 12 -52 17 -90 17c-73 0 -142 -38 -200 -139v-285h-82zM200 -226c-37 0 -66 25 -66 63c0 39 29 64 66 64c38 0 66 -25 66 -64c0 -38 -28 -63 -66 -63z" />
    <glyph glyph-name="uni1E5C" unicode="&#x1e5c;" 
d="M429 786v-57h-248v57h248zM320 -99c37 0 66 -25 66 -64c0 -38 -29 -63 -66 -63s-66 25 -66 63c0 39 29 64 66 64zM183 589v-244h109c102 0 158 42 158 127c0 86 -56 117 -158 117h-109zM386 286l167 -286h-95l-158 277h-117v-277h-83v656h204c133 0 229 -48 229 -184
c0 -102 -58 -163 -147 -186z" />
    <glyph glyph-name="uni1E5D" unicode="&#x1e5d;" 
d="M146 0v486h68l7 -115h3c51 78 127 127 217 127c36 0 66 -5 96 -20l-19 -71c-34 12 -52 17 -90 17c-73 0 -142 -38 -200 -139v-285h-82zM219 601v57h245v-57h-245zM200 -226c-37 0 -66 25 -66 63c0 39 29 64 66 64c38 0 66 -25 66 -64c0 -38 -28 -63 -66 -63z" />
    <glyph glyph-name="uni1E5E" unicode="&#x1e5e;" 
d="M196 -171v58h247v-58h-247zM183 589v-244h109c102 0 158 42 158 127c0 86 -56 117 -158 117h-109zM386 286l167 -286h-95l-158 277h-117v-277h-83v656h204c133 0 229 -48 229 -184c0 -102 -58 -163 -147 -186z" />
    <glyph glyph-name="uni1E5F" unicode="&#x1e5f;" 
d="M146 0v486h68l7 -115h3c51 78 127 127 217 127c36 0 66 -5 96 -20l-19 -71c-34 12 -52 17 -90 17c-73 0 -142 -38 -200 -139v-285h-82zM323 -113v-58h-247v58h247z" />
    <glyph glyph-name="uni1E60" unicode="&#x1e60;" 
d="M67 85l50 58c49 -49 117 -82 189 -82c93 0 146 43 146 107c0 67 -51 88 -118 116l-94 41c-66 26 -142 73 -142 169c0 100 90 174 215 174c82 0 154 -33 202 -81l-44 -54c-43 38 -93 62 -158 62c-79 0 -130 -37 -130 -96c0 -63 61 -86 117 -109l92 -40
c81 -33 145 -78 145 -175c0 -104 -88 -187 -232 -187c-96 0 -179 38 -238 97zM311 714c-32 0 -57 22 -57 54c0 31 25 53 57 53s57 -22 57 -53c0 -32 -25 -54 -57 -54z" />
    <glyph glyph-name="uni1E61" unicode="&#x1e61;" 
d="M72 64l40 54c54 -40 114 -66 201 -66s130 34 130 76c0 38 -39 65 -158 94c-100 25 -185 69 -185 138c0 78 70 138 204 138c73 0 147 -29 195 -62l-40 -53c-43 30 -95 51 -155 51c-91 0 -120 -32 -120 -70c0 -40 60 -64 148 -86c131 -33 194 -71 194 -145
c0 -79 -77 -145 -216 -145c-95 0 -179 35 -238 76zM303 586c-37 0 -65 25 -65 63c0 39 28 64 65 64c38 0 66 -25 66 -64c0 -38 -28 -63 -66 -63z" />
    <glyph glyph-name="uni1E62" unicode="&#x1e62;" 
d="M67 85l50 58c49 -49 117 -82 189 -82c93 0 146 43 146 107c0 67 -51 88 -118 116l-94 41c-66 26 -142 73 -142 169c0 100 90 174 215 174c82 0 154 -33 202 -81l-44 -54c-43 38 -93 62 -158 62c-79 0 -130 -37 -130 -96c0 -63 61 -86 117 -109l92 -40
c81 -33 145 -78 145 -175c0 -104 -88 -187 -232 -187c-96 0 -179 38 -238 97zM310 -226c-37 0 -66 25 -66 63c0 39 29 64 66 64s66 -25 66 -64c0 -38 -29 -63 -66 -63z" />
    <glyph glyph-name="uni1E63" unicode="&#x1e63;" 
d="M72 64l40 54c54 -40 114 -66 201 -66s130 34 130 76c0 38 -39 65 -158 94c-100 25 -185 69 -185 138c0 78 70 138 204 138c73 0 147 -29 195 -62l-40 -53c-43 30 -95 51 -155 51c-91 0 -120 -32 -120 -70c0 -40 60 -64 148 -86c131 -33 194 -71 194 -145
c0 -79 -77 -145 -216 -145c-95 0 -179 35 -238 76zM310 -226c-38 0 -66 25 -66 63c0 39 28 64 66 64c37 0 66 -25 66 -64c0 -38 -29 -63 -66 -63z" />
    <glyph glyph-name="uni1E6C" unicode="&#x1e6c;" 
d="M258 0v586h-216v70h516v-70h-216v-586h-84zM301 -226c-38 0 -66 25 -66 63c0 39 28 64 66 64c37 0 65 -25 65 -64c0 -38 -28 -63 -65 -63z" />
    <glyph glyph-name="uni1E6D" unicode="&#x1e6d;" 
d="M206 189v230h-137v62l140 5l11 136h68v-136h239v-67h-239v-231c0 -87 29 -133 123 -133c46 0 83 9 117 22l18 -60c-44 -16 -100 -29 -153 -29c-141 0 -187 81 -187 201zM379 -226c-37 0 -66 25 -66 63c0 39 29 64 66 64c38 0 66 -25 66 -64c0 -38 -28 -63 -66 -63z" />
    <glyph glyph-name="uni1E6E" unicode="&#x1e6e;" 
d="M258 0v586h-216v70h516v-70h-216v-586h-84zM423 -113v-58h-246v58h246z" />
    <glyph glyph-name="uni1E6F" unicode="&#x1e6f;" 
d="M206 189v230h-137v62l140 5l11 136h68v-136h239v-67h-239v-231c0 -87 29 -133 123 -133c46 0 83 9 117 22l18 -60c-44 -16 -100 -29 -153 -29c-141 0 -187 81 -187 201zM502 -113v-58h-247v58h247z" />
    <glyph glyph-name="Wgrave" unicode="&#x1e80;" 
d="M111 0l-101 657h83l53 -412c3 -55 10 -108 14 -162h3c14 54 29 108 42 162l69 242h59l69 -242c12 -53 27 -108 41 -162h4c4 54 10 108 14 162l50 412h79l-97 -657h-92l-75 275c-9 39 -17 79 -24 118h-3c-8 -39 -16 -79 -26 -118l-72 -275h-90zM282 706l-113 112h94
l88 -112h-69z" />
    <glyph glyph-name="wgrave" unicode="&#x1e81;" 
d="M117 0l-109 486h84l59 -281c9 -46 17 -90 24 -135h4c9 45 18 90 29 135l59 252h70l60 -252c11 -46 20 -90 30 -135h4c9 45 16 89 24 135l59 281h78l-106 -486h-99l-58 246c-9 46 -17 92 -27 141h-4c-8 -42 -15 -86 -27 -142l-56 -245h-98zM302 573l-116 148h89l91 -148
h-64z" />
    <glyph glyph-name="Wacute" unicode="&#x1e82;" 
d="M111 0l-101 657h83l53 -412c3 -55 10 -108 14 -162h3c14 54 29 108 42 162l69 242h59l69 -242c12 -53 27 -108 41 -162h4c4 54 10 108 14 162l50 412h79l-97 -657h-92l-75 275c-9 39 -17 79 -24 118h-3c-8 -39 -16 -79 -26 -118l-72 -275h-90zM431 818l-113 -112h-69
l88 112h94z" />
    <glyph glyph-name="wacute" unicode="&#x1e83;" 
d="M117 0l-109 486h84l59 -281c9 -46 17 -90 24 -135h4c9 45 18 90 29 135l59 252h70l60 -252c11 -46 20 -90 30 -135h4c9 45 16 89 24 135l59 281h78l-106 -486h-99l-58 246c-9 46 -17 92 -27 141h-4c-8 -42 -15 -86 -27 -142l-56 -245h-98zM415 721l-117 -148h-63l91 148
h89z" />
    <glyph glyph-name="Wdieresis" unicode="&#x1e84;" 
d="M111 0l-101 657h83l53 -412c3 -55 10 -108 14 -162h3c14 54 29 108 42 162l69 242h59l69 -242c12 -53 27 -108 41 -162h4c4 54 10 108 14 162l50 412h79l-97 -657h-92l-75 275c-9 39 -17 79 -24 118h-3c-8 -39 -16 -79 -26 -118l-72 -275h-90zM214 715
c-29 0 -49 21 -49 49c0 29 20 49 49 49c28 0 49 -20 49 -49c0 -28 -21 -49 -49 -49zM386 715c-28 0 -49 21 -49 49c0 29 21 49 49 49c29 0 49 -20 49 -49c0 -28 -20 -49 -49 -49z" />
    <glyph glyph-name="wdieresis" unicode="&#x1e85;" 
d="M117 0l-109 486h84l59 -281c9 -46 17 -90 24 -135h4c9 45 18 90 29 135l59 252h70l60 -252c11 -46 20 -90 30 -135h4c9 45 16 89 24 135l59 281h78l-106 -486h-99l-58 246c-9 46 -17 92 -27 141h-4c-8 -42 -15 -86 -27 -142l-56 -245h-98zM204 588c-32 0 -54 24 -54 55
s22 55 54 55s54 -24 54 -55s-22 -55 -54 -55zM397 588c-32 0 -54 24 -54 55s22 55 54 55c31 0 54 -24 54 -55s-23 -55 -54 -55z" />
    <glyph glyph-name="uni1E8E" unicode="&#x1e8e;" 
d="M258 0v234l-220 422h88l99 -195c25 -50 48 -100 75 -153h4c26 53 52 103 77 154l95 194h86l-220 -422v-234h-84zM300 714c-32 0 -57 22 -57 54c0 31 25 53 57 53s57 -22 57 -53c0 -32 -25 -54 -57 -54z" />
    <glyph glyph-name="uni1E8F" unicode="&#x1e8f;" 
d="M84 -134c13 -4 29 -7 44 -7c68 0 109 44 133 104l15 36l-227 487h83l119 -269c19 -43 40 -94 60 -141h4c17 46 36 97 52 141l106 269h78l-214 -526c-36 -96 -96 -169 -206 -169c-23 0 -47 4 -64 10zM304 586c-37 0 -66 25 -66 63c0 39 29 64 66 64c38 0 66 -25 66 -64
c0 -38 -28 -63 -66 -63z" />
    <glyph glyph-name="uni1E92" unicode="&#x1e92;" 
d="M65 0v50l367 537h-335v70h437v-50l-368 -536h373v-71h-474zM311 -226c-37 0 -65 25 -65 63c0 39 28 64 65 64c38 0 66 -25 66 -64c0 -38 -28 -63 -66 -63z" />
    <glyph glyph-name="uni1E93" unicode="&#x1e93;" 
d="M71 0v44l333 375h-296v67h414v-44l-334 -375h344v-67h-461zM317 -226c-38 0 -66 25 -66 63c0 39 28 64 66 64c37 0 65 -25 65 -64c0 -38 -28 -63 -65 -63z" />
    <glyph glyph-name="uni1E97" unicode="&#x1e97;" 
d="M206 189v230h-137v62l140 5l11 136h68v-136h239v-67h-239v-231c0 -87 29 -133 123 -133c46 0 83 9 117 22l18 -60c-44 -16 -100 -29 -153 -29c-141 0 -187 81 -187 201zM167 722c-32 0 -54 25 -54 56s22 55 54 55s54 -24 54 -55s-22 -56 -54 -56zM360 722
c-32 0 -54 25 -54 56s22 55 54 55s54 -24 54 -55s-22 -56 -54 -56z" />
    <glyph glyph-name="uni1E9E" unicode="&#x1e9e;" 
d="M79 0v432c0 134 74 236 232 236c103 0 168 -61 199 -154l-117 -152c116 -28 170 -96 170 -191c0 -104 -66 -183 -172 -183c-69 0 -126 29 -162 73l48 53c33 -39 66 -56 106 -56c58 0 92 47 92 113c0 62 -35 113 -165 139l-5 54l118 153c-19 45 -57 82 -115 82
c-90 0 -144 -58 -144 -183v-416h-85z" />
    <glyph glyph-name="uni1EA0" unicode="&#x1ea0;" 
d="M300 -99c37 0 66 -25 66 -64c0 -38 -29 -63 -66 -63s-66 25 -66 63c0 39 29 64 66 64zM201 267h196l-31 100c-23 73 -44 145 -65 221h-4c-21 -76 -42 -148 -65 -221zM568 0h-88l-62 200h-238l-63 -200h-85l221 656h94z" />
    <glyph glyph-name="uni1EA1" unicode="&#x1ea1;" 
d="M81 126c0 109 101 162 352 182c-2 66 -35 122 -129 122c-63 0 -125 -30 -170 -58l-32 56c49 32 131 70 216 70c133 0 197 -79 197 -200v-298h-67l-7 66h-3c-54 -42 -123 -78 -192 -78c-91 0 -165 51 -165 138zM161 132c0 -55 51 -78 107 -78c55 0 110 26 165 72v128
c-208 -17 -272 -58 -272 -122zM303 -226c-37 0 -66 25 -66 63c0 39 29 64 66 64c38 0 66 -25 66 -64c0 -38 -28 -63 -66 -63z" />
    <glyph glyph-name="uni1EA2" unicode="&#x1ea2;" 
d="M272 698l-9 38c32 9 56 21 56 46c0 26 -28 40 -83 42l9 48c87 -3 138 -30 138 -81c0 -58 -53 -83 -111 -93zM201 267h196l-31 100c-23 73 -44 145 -65 221h-4c-21 -76 -42 -148 -65 -221zM480 0l-62 200h-238l-63 -200h-85l221 656h94l221 -656h-88z" />
    <glyph glyph-name="uni1EA3" unicode="&#x1ea3;" 
d="M81 126c0 109 101 162 352 182c-2 66 -35 122 -129 122c-63 0 -125 -30 -170 -58l-32 56c49 32 131 70 216 70c133 0 197 -79 197 -200v-298h-67l-7 66h-3c-54 -42 -123 -78 -192 -78c-91 0 -165 51 -165 138zM161 132c0 -55 51 -78 107 -78c55 0 110 26 165 72v128
c-208 -17 -272 -58 -272 -122zM286 553l-10 38c32 9 57 21 57 46c0 26 -28 40 -83 42l8 48c88 -3 139 -30 139 -81c0 -58 -53 -83 -111 -93z" />
    <glyph glyph-name="uni1EA4" unicode="&#x1ea4;" 
d="M534 881l-91 -111h-52l71 111h72zM298 768l-63 -62h-63l92 106h72l92 -106h-63l-63 62h-4zM201 267h196l-31 100c-23 73 -44 145 -65 221h-4c-21 -76 -42 -148 -65 -221zM480 0l-62 200h-238l-63 -200h-85l221 656h94l221 -656h-88z" />
    <glyph glyph-name="uni1EA5" unicode="&#x1ea5;" 
d="M81 126c0 109 101 162 352 182c-2 66 -35 122 -129 122c-63 0 -125 -30 -170 -58l-32 56c49 32 131 70 216 70c133 0 197 -79 197 -200v-298h-67l-7 66h-3c-54 -42 -123 -78 -192 -78c-91 0 -165 51 -165 138zM161 132c0 -55 51 -78 107 -78c55 0 110 26 165 72v128
c-208 -17 -272 -58 -272 -122zM197 573l83 119h67l83 -119h-56l-58 73h-4l-59 -73h-56zM402 640l74 114h70l-93 -114h-51z" />
    <glyph glyph-name="uni1EA6" unicode="&#x1ea6;" 
d="M484 770h-52l-91 111h72zM298 768l-63 -62h-63l92 106h72l92 -106h-63l-63 62h-4zM201 267h196l-31 100c-23 73 -44 145 -65 221h-4c-21 -76 -42 -148 -65 -221zM480 0l-62 200h-238l-63 -200h-85l221 656h94l221 -656h-88z" />
    <glyph glyph-name="uni1EA7" unicode="&#x1ea7;" 
d="M81 126c0 109 101 162 352 182c-2 66 -35 122 -129 122c-63 0 -125 -30 -170 -58l-32 56c49 32 131 70 216 70c133 0 197 -79 197 -200v-298h-67l-7 66h-3c-54 -42 -123 -78 -192 -78c-91 0 -165 51 -165 138zM161 132c0 -55 51 -78 107 -78c55 0 110 26 165 72v128
c-208 -17 -272 -58 -272 -122zM197 573l83 119h67l83 -119h-56l-58 73h-4l-59 -73h-56zM441 754l74 -114h-51l-93 114h70z" />
    <glyph glyph-name="uni1EA8" unicode="&#x1ea8;" 
d="M415 754l-11 35c25 6 45 15 45 36c0 26 -21 36 -71 39l9 42c78 -3 120 -27 120 -73c0 -51 -44 -71 -92 -79zM298 768l-63 -62h-63l92 106h72l92 -106h-63l-63 62h-4zM201 267h196l-31 100c-23 73 -44 145 -65 221h-4c-21 -76 -42 -148 -65 -221zM480 0l-62 200h-238
l-63 -200h-85l221 656h94l221 -656h-88z" />
    <glyph glyph-name="uni1EA9" unicode="&#x1ea9;" 
d="M81 126c0 109 101 162 352 182c-2 66 -35 122 -129 122c-63 0 -125 -30 -170 -58l-32 56c49 32 131 70 216 70c133 0 197 -79 197 -200v-298h-67l-7 66h-3c-54 -42 -123 -78 -192 -78c-91 0 -165 51 -165 138zM161 132c0 -55 51 -78 107 -78c55 0 110 26 165 72v128
c-208 -17 -272 -58 -272 -122zM197 573l83 119h67l83 -119h-56l-58 73h-4l-59 -73h-56zM429 628l-8 35c24 7 42 18 42 39c0 26 -20 38 -69 41l7 41c78 -3 121 -26 121 -73c0 -54 -46 -72 -93 -83z" />
    <glyph glyph-name="uni1EAA" unicode="&#x1eaa;" 
d="M390 938h42c-5 -53 -32 -90 -78 -90c-51 0 -73 42 -105 42c-20 0 -35 -14 -39 -42h-42c5 52 32 90 78 90c51 0 73 -42 105 -42c20 0 35 14 39 42zM264 812h72l92 -106h-63l-63 62h-4l-63 -62h-63zM201 267h196l-31 100c-23 73 -44 145 -65 221h-4
c-21 -76 -42 -148 -65 -221zM480 0l-62 200h-238l-63 -200h-85l221 656h94l221 -656h-88z" />
    <glyph glyph-name="uni1EAB" unicode="&#x1eab;" 
d="M81 126c0 109 101 162 352 182c-2 66 -35 122 -129 122c-63 0 -125 -30 -170 -58l-32 56c49 32 131 70 216 70c133 0 197 -79 197 -200v-298h-67l-7 66h-3c-54 -42 -123 -78 -192 -78c-91 0 -165 51 -165 138zM161 132c0 -55 51 -78 107 -78c55 0 110 26 165 72v128
c-208 -17 -272 -58 -272 -122zM189 571l87 104h75l87 -104h-58l-64 65h-4l-65 -65h-58zM225 711h-42c5 53 32 91 78 91c51 0 70 -43 102 -43c20 0 35 14 39 43h42c-5 -53 -32 -91 -78 -91c-50 0 -70 43 -102 43c-20 0 -35 -14 -39 -43z" />
    <glyph glyph-name="uni1EAC" unicode="&#x1eac;" 
d="M298 774l-67 -68h-67l96 112h80l96 -112h-67l-67 68h-4zM300 -99c37 0 66 -25 66 -64c0 -38 -29 -63 -66 -63s-66 25 -66 63c0 39 29 64 66 64zM201 267h196l-31 100c-23 73 -44 145 -65 221h-4c-21 -76 -42 -148 -65 -221zM568 0h-88l-62 200h-238l-63 -200h-85l221 656
h94z" />
    <glyph glyph-name="uni1EAD" unicode="&#x1ead;" 
d="M81 126c0 109 101 162 352 182c-2 66 -35 122 -129 122c-63 0 -125 -30 -170 -58l-32 56c49 32 131 70 216 70c133 0 197 -79 197 -200v-298h-67l-7 66h-3c-54 -42 -123 -78 -192 -78c-91 0 -165 51 -165 138zM161 132c0 -55 51 -78 107 -78c55 0 110 26 165 72v128
c-208 -17 -272 -58 -272 -122zM181 573l97 148h71l97 -148h-63l-67 99h-4l-67 -99h-64zM303 -226c-37 0 -66 25 -66 63c0 39 29 64 66 64c38 0 66 -25 66 -64c0 -38 -28 -63 -66 -63z" />
    <glyph glyph-name="uni1EAE" unicode="&#x1eae;" 
d="M407 907l-97 -105h-49l74 105h72zM377 815h45c-7 -55 -45 -107 -122 -107s-115 52 -122 107h45c8 -34 29 -64 77 -64s69 30 77 64zM201 267h196l-31 100c-23 73 -44 145 -65 221h-4c-21 -76 -42 -148 -65 -221zM480 0l-62 200h-238l-63 -200h-85l221 656h94l221 -656h-88
z" />
    <glyph glyph-name="uni1EAF" unicode="&#x1eaf;" 
d="M81 126c0 109 101 162 352 182c-2 66 -35 122 -129 122c-63 0 -125 -30 -170 -58l-32 56c49 32 131 70 216 70c133 0 197 -79 197 -200v-298h-67l-7 66h-3c-54 -42 -123 -78 -192 -78c-91 0 -165 51 -165 138zM161 132c0 -55 51 -78 107 -78c55 0 110 26 165 72v128
c-208 -17 -272 -58 -272 -122zM276 677l68 112h68l-87 -112h-49zM314 575c-86 0 -122 68 -127 127h44c6 -41 31 -80 83 -80c51 0 76 39 82 80h44c-5 -59 -41 -127 -126 -127z" />
    <glyph glyph-name="uni1EB0" unicode="&#x1eb0;" 
d="M339 802h-49l-97 105h72zM377 815h45c-7 -55 -45 -107 -122 -107s-115 52 -122 107h45c8 -34 29 -64 77 -64s69 30 77 64zM201 267h196l-31 100c-23 73 -44 145 -65 221h-4c-21 -76 -42 -148 -65 -221zM480 0l-62 200h-238l-63 -200h-85l221 656h94l221 -656h-88z" />
    <glyph glyph-name="uni1EB1" unicode="&#x1eb1;" 
d="M81 126c0 109 101 162 352 182c-2 66 -35 122 -129 122c-63 0 -125 -30 -170 -58l-32 56c49 32 131 70 216 70c133 0 197 -79 197 -200v-298h-67l-7 66h-3c-54 -42 -123 -78 -192 -78c-91 0 -165 51 -165 138zM161 132c0 -55 51 -78 107 -78c55 0 110 26 165 72v128
c-208 -17 -272 -58 -272 -122zM283 789l68 -112h-49l-87 112h68zM314 575c-86 0 -122 68 -127 127h44c6 -41 31 -80 83 -80c51 0 76 39 82 80h44c-5 -59 -41 -127 -126 -127z" />
    <glyph glyph-name="uni1EB2" unicode="&#x1eb2;" 
d="M277 800l-10 35c24 6 44 15 44 36c0 26 -21 36 -70 39l8 42c78 -3 121 -26 121 -73c0 -51 -45 -71 -93 -79zM377 815h45c-7 -55 -45 -107 -122 -107s-115 52 -122 107h45c8 -34 29 -64 77 -64s69 30 77 64zM201 267h196l-31 100c-23 73 -44 145 -65 221h-4
c-21 -76 -42 -148 -65 -221zM480 0l-62 200h-238l-63 -200h-85l221 656h94l221 -656h-88z" />
    <glyph glyph-name="uni1EB3" unicode="&#x1eb3;" 
d="M81 126c0 109 101 162 352 182c-2 66 -35 122 -129 122c-63 0 -125 -30 -170 -58l-32 56c49 32 131 70 216 70c133 0 197 -79 197 -200v-298h-67l-7 66h-3c-54 -42 -123 -78 -192 -78c-91 0 -165 51 -165 138zM161 132c0 -55 51 -78 107 -78c55 0 110 26 165 72v128
c-208 -17 -272 -58 -272 -122zM314 575c-86 0 -122 68 -127 127h44c6 -41 31 -80 83 -80c51 0 76 39 82 80h44c-5 -59 -41 -127 -126 -127zM287 683l-9 35c25 7 43 18 43 39c0 26 -20 39 -69 41l7 41c78 -2 121 -25 121 -73c0 -53 -46 -72 -93 -83z" />
    <glyph glyph-name="uni1EB4" unicode="&#x1eb4;" 
d="M389 939h42c-5 -52 -33 -93 -79 -93c-47 0 -71 45 -103 45c-20 0 -36 -17 -40 -45h-42c4 53 33 93 79 93s71 -45 103 -45c20 0 35 17 40 45zM178 815h45c8 -34 29 -64 77 -64s69 30 77 64h45c-7 -55 -45 -107 -122 -107s-115 52 -122 107zM201 267h196l-31 100
c-23 73 -44 145 -65 221h-4c-21 -76 -42 -148 -65 -221zM480 0l-62 200h-238l-63 -200h-85l221 656h94l221 -656h-88z" />
    <glyph glyph-name="uni1EB5" unicode="&#x1eb5;" 
d="M81 126c0 109 101 162 352 182c-2 66 -35 122 -129 122c-63 0 -125 -30 -170 -58l-32 56c49 32 131 70 216 70c133 0 197 -79 197 -200v-298h-67l-7 66h-3c-54 -42 -123 -78 -192 -78c-91 0 -165 51 -165 138zM161 132c0 -55 51 -78 107 -78c55 0 110 26 165 72v128
c-208 -17 -272 -58 -272 -122zM314 575c-86 0 -121 54 -125 107h45c6 -32 30 -62 80 -62s73 30 79 62h46c-5 -53 -40 -107 -125 -107zM183 711c5 53 32 91 78 91c51 0 70 -43 102 -43c20 0 35 14 39 43h42c-5 -53 -32 -91 -78 -91c-50 0 -70 43 -102 43
c-20 0 -35 -14 -39 -43h-42z" />
    <glyph glyph-name="uni1EB6" unicode="&#x1eb6;" 
d="M373 818h50c-7 -56 -43 -110 -123 -110s-116 54 -123 110h50c6 -32 28 -63 73 -63s67 31 73 63zM300 -99c37 0 66 -25 66 -64c0 -38 -29 -63 -66 -63s-66 25 -66 63c0 39 29 64 66 64zM201 267h196l-31 100c-23 73 -44 145 -65 221h-4c-21 -76 -42 -148 -65 -221zM568 0
h-88l-62 200h-238l-63 -200h-85l221 656h94z" />
    <glyph glyph-name="uni1EB7" unicode="&#x1eb7;" 
d="M81 126c0 109 101 162 352 182c-2 66 -35 122 -129 122c-63 0 -125 -30 -170 -58l-32 56c49 32 131 70 216 70c133 0 197 -79 197 -200v-298h-67l-7 66h-3c-54 -42 -123 -78 -192 -78c-91 0 -165 51 -165 138zM161 132c0 -55 51 -78 107 -78c55 0 110 26 165 72v128
c-208 -17 -272 -58 -272 -122zM314 575c-89 0 -126 71 -130 134h51c5 -43 30 -83 79 -83s73 40 79 83h51c-5 -63 -42 -134 -130 -134zM303 -226c-37 0 -66 25 -66 63c0 39 29 64 66 64c38 0 66 -25 66 -64c0 -38 -28 -63 -66 -63z" />
    <glyph glyph-name="uni1EB8" unicode="&#x1eb8;" 
d="M115 0v656h405v-70h-321v-206h271v-71h-271v-238h331v-71h-415zM332 -226c-37 0 -65 25 -65 63c0 39 28 64 65 64c38 0 66 -25 66 -64c0 -38 -28 -63 -66 -63z" />
    <glyph glyph-name="uni1EB9" unicode="&#x1eb9;" 
d="M69 242c0 159 121 256 247 256c139 0 221 -91 221 -228c0 -17 -1 -35 -3 -47h-380c4 -103 80 -169 186 -169c57 0 103 17 148 45l29 -54c-48 -31 -109 -57 -187 -57c-144 0 -261 95 -261 254zM153 282h308c0 97 -54 151 -144 151c-79 0 -151 -56 -164 -151zM315 -226
c-38 0 -66 25 -66 63c0 39 28 64 66 64c37 0 65 -25 65 -64c0 -38 -28 -63 -65 -63z" />
    <glyph glyph-name="uni1EBA" unicode="&#x1eba;" 
d="M115 0v656h405v-70h-321v-206h271v-71h-271v-238h331v-71h-415zM303 698l-10 38c32 9 57 21 57 46c0 26 -28 40 -83 42l8 48c88 -3 139 -30 139 -81c0 -58 -53 -83 -111 -93z" />
    <glyph glyph-name="uni1EBB" unicode="&#x1ebb;" 
d="M69 242c0 159 121 256 247 256c139 0 221 -91 221 -228c0 -17 -1 -35 -3 -47h-380c4 -103 80 -169 186 -169c57 0 103 17 148 45l29 -54c-48 -31 -109 -57 -187 -57c-144 0 -261 95 -261 254zM153 282h308c0 97 -54 151 -144 151c-79 0 -151 -56 -164 -151zM287 553
l-10 38c32 9 57 21 57 46c0 26 -28 40 -83 42l8 48c88 -3 138 -30 138 -81c0 -58 -52 -83 -110 -93z" />
    <glyph glyph-name="uni1EBC" unicode="&#x1ebc;" 
d="M115 0v656h405v-70h-321v-206h271v-71h-271v-238h331v-71h-415zM391 711c-53 0 -82 52 -119 52c-20 0 -35 -18 -40 -52h-46c6 62 37 108 84 108c53 0 82 -52 119 -52c20 0 35 19 41 52h45c-5 -61 -36 -108 -84 -108z" />
    <glyph glyph-name="uni1EBD" unicode="&#x1ebd;" 
d="M69 242c0 159 121 256 247 256c139 0 221 -91 221 -228c0 -17 -1 -35 -3 -47h-380c4 -103 80 -169 186 -169c57 0 103 17 148 45l29 -54c-48 -31 -109 -57 -187 -57c-144 0 -261 95 -261 254zM153 282h308c0 97 -54 151 -144 151c-79 0 -151 -56 -164 -151zM173 579
c6 63 34 109 88 109c48 0 76 -54 108 -54c22 0 34 18 40 54h47c-6 -62 -34 -109 -87 -109c-49 0 -76 55 -109 55c-22 0 -34 -18 -40 -55h-47z" />
    <glyph glyph-name="uni1EBE" unicode="&#x1ebe;" 
d="M115 0v656h405v-70h-321v-206h271v-71h-271v-238h331v-71h-415zM422 770l70 111h72l-90 -111h-52zM202 706l93 106h72l92 -106h-63l-63 62h-4l-64 -62h-63z" />
    <glyph glyph-name="uni1EBF" unicode="&#x1ebf;" 
d="M69 242c0 159 121 256 247 256c139 0 221 -91 221 -228c0 -17 -1 -35 -3 -47h-380c4 -103 80 -169 186 -169c57 0 103 17 148 45l29 -54c-48 -31 -109 -57 -187 -57c-144 0 -261 95 -261 254zM153 282h308c0 97 -54 151 -144 151c-79 0 -151 -56 -164 -151zM198 573
l83 119h67l83 -119h-56l-58 73h-4l-59 -73h-56zM403 640l74 114h69l-92 -114h-51z" />
    <glyph glyph-name="uni1EC0" unicode="&#x1ec0;" 
d="M115 0v656h405v-70h-321v-206h271v-71h-271v-238h331v-71h-415zM444 881l70 -111h-51l-91 111h72zM202 706l93 106h72l92 -106h-63l-63 62h-4l-64 -62h-63z" />
    <glyph glyph-name="uni1EC1" unicode="&#x1ec1;" 
d="M69 242c0 159 121 256 247 256c139 0 221 -91 221 -228c0 -17 -1 -35 -3 -47h-380c4 -103 80 -169 186 -169c57 0 103 17 148 45l29 -54c-48 -31 -109 -57 -187 -57c-144 0 -261 95 -261 254zM153 282h308c0 97 -54 151 -144 151c-79 0 -151 -56 -164 -151zM198 573
l83 119h67l83 -119h-56l-58 73h-4l-59 -73h-56zM442 754l74 -114h-51l-93 114h70z" />
    <glyph glyph-name="uni1EC2" unicode="&#x1ec2;" 
d="M115 0v656h405v-70h-321v-206h271v-71h-271v-238h331v-71h-415zM446 754l-11 35c25 6 44 15 44 36c0 26 -21 36 -70 39l8 42c78 -3 121 -27 121 -73c0 -51 -45 -71 -92 -79zM202 706l93 106h72l92 -106h-63l-63 62h-4l-64 -62h-63z" />
    <glyph glyph-name="uni1EC3" unicode="&#x1ec3;" 
d="M69 242c0 159 121 256 247 256c139 0 221 -91 221 -228c0 -17 -1 -35 -3 -47h-380c4 -103 80 -169 186 -169c57 0 103 17 148 45l29 -54c-48 -31 -109 -57 -187 -57c-144 0 -261 95 -261 254zM153 282h308c0 97 -54 151 -144 151c-79 0 -151 -56 -164 -151zM198 573
l83 119h67l83 -119h-56l-58 73h-4l-59 -73h-56zM430 628l-9 35c25 7 43 18 43 39c0 26 -20 38 -69 41l7 41c78 -3 121 -26 121 -73c0 -54 -46 -72 -93 -83z" />
    <glyph glyph-name="uni1EC4" unicode="&#x1ec4;" 
d="M115 0v656h405v-70h-321v-206h271v-71h-271v-238h331v-71h-415zM202 706l93 106h72l92 -106h-63l-63 62h-4l-64 -62h-63zM240 848h-41c5 52 32 90 78 90c50 0 73 -42 105 -42c20 0 34 14 39 42h42c-5 -53 -33 -90 -79 -90c-50 0 -72 42 -105 42c-19 0 -34 -14 -39 -42z
" />
    <glyph glyph-name="uni1EC5" unicode="&#x1ec5;" 
d="M69 242c0 159 121 256 247 256c139 0 221 -91 221 -228c0 -17 -1 -35 -3 -47h-380c4 -103 80 -169 186 -169c57 0 103 17 148 45l29 -54c-48 -31 -109 -57 -187 -57c-144 0 -261 95 -261 254zM153 282h308c0 97 -54 151 -144 151c-79 0 -151 -56 -164 -151zM190 571
l87 104h75l87 -104h-58l-64 65h-4l-65 -65h-58zM226 711h-42c5 53 32 91 78 91c51 0 70 -43 102 -43c20 0 35 14 39 43h42c-5 -53 -32 -91 -78 -91c-50 0 -70 43 -102 43c-20 0 -35 -14 -39 -43z" />
    <glyph glyph-name="uni1EC6" unicode="&#x1ec6;" 
d="M115 0v656h405v-70h-321v-206h271v-71h-271v-238h331v-71h-415zM262 706h-67l96 112h79l96 -112h-66l-67 68h-4zM332 -226c-37 0 -65 25 -65 63c0 39 28 64 65 64c38 0 66 -25 66 -64c0 -38 -28 -63 -66 -63z" />
    <glyph glyph-name="uni1EC7" unicode="&#x1ec7;" 
d="M69 242c0 159 121 256 247 256c139 0 221 -91 221 -228c0 -17 -1 -35 -3 -47h-380c4 -103 80 -169 186 -169c57 0 103 17 148 45l29 -54c-48 -31 -109 -57 -187 -57c-144 0 -261 95 -261 254zM153 282h308c0 97 -54 151 -144 151c-79 0 -151 -56 -164 -151zM182 573
l97 148h71l97 -148h-64l-66 99h-4l-67 -99h-64zM315 -226c-38 0 -66 25 -66 63c0 39 28 64 66 64c37 0 65 -25 65 -64c0 -38 -28 -63 -65 -63z" />
    <glyph glyph-name="uni1EC8" unicode="&#x1ec8;" 
d="M95 0v71h163v515h-163v70h410v-70h-163v-515h163v-71h-410zM272 698l-9 38c32 9 56 21 56 46c0 26 -28 40 -83 42l9 48c87 -3 138 -30 138 -81c0 -58 -53 -83 -111 -93z" />
    <glyph glyph-name="uni1EC9" unicode="&#x1ec9;" 
d="M90 419v67h308v-486h-82v419h-226zM320 553l-10 38c33 9 57 21 57 46c0 26 -28 40 -83 42l8 48c88 -3 139 -30 139 -81c0 -58 -53 -83 -111 -93z" />
    <glyph glyph-name="uni1ECA" unicode="&#x1eca;" 
d="M95 0v71h163v515h-163v70h410v-70h-163v-515h163v-71h-410zM301 -226c-38 0 -66 25 -66 63c0 39 28 64 66 64c37 0 65 -25 65 -64c0 -38 -28 -63 -65 -63z" />
    <glyph glyph-name="uni1ECB" unicode="&#x1ecb;" 
d="M90 419v67h308v-486h-82v419h-226zM348 586c-38 0 -66 25 -66 63c0 39 28 64 66 64c37 0 66 -25 66 -64c0 -38 -29 -63 -66 -63zM348 -226c-38 0 -66 25 -66 63c0 39 28 64 66 64c37 0 66 -25 66 -64c0 -38 -29 -63 -66 -63z" />
    <glyph glyph-name="uni1ECC" unicode="&#x1ecc;" 
d="M300 -12c-148 0 -252 132 -252 343c0 210 104 337 252 337s252 -128 252 -337c0 -211 -104 -343 -252 -343zM300 61c100 0 166 106 166 270c0 163 -66 264 -166 264s-166 -101 -166 -264c0 -164 66 -270 166 -270zM300 -226c-37 0 -66 25 -66 63c0 39 29 64 66 64
s66 -25 66 -64c0 -38 -29 -63 -66 -63z" />
    <glyph glyph-name="uni1ECD" unicode="&#x1ecd;" 
d="M60 242c0 163 112 256 240 256s240 -93 240 -256c0 -161 -112 -254 -240 -254s-240 93 -240 254zM145 242c0 -111 62 -186 155 -186s155 75 155 186c0 112 -62 188 -155 188s-155 -76 -155 -188zM301 -226c-38 0 -66 25 -66 63c0 39 28 64 66 64c37 0 65 -25 65 -64
c0 -38 -28 -63 -65 -63z" />
    <glyph glyph-name="uni1ECE" unicode="&#x1ece;" 
d="M300 -12c-148 0 -252 132 -252 343c0 210 104 337 252 337s252 -128 252 -337c0 -211 -104 -343 -252 -343zM300 61c100 0 166 106 166 270c0 163 -66 264 -166 264s-166 -101 -166 -264c0 -164 66 -270 166 -270zM272 698l-9 38c32 9 56 21 56 46c0 26 -28 40 -83 42
l9 48c87 -3 138 -30 138 -81c0 -58 -53 -83 -111 -93z" />
    <glyph glyph-name="uni1ECF" unicode="&#x1ecf;" 
d="M60 242c0 163 112 256 240 256s240 -93 240 -256c0 -161 -112 -254 -240 -254s-240 93 -240 254zM145 242c0 -111 62 -186 155 -186s155 75 155 186c0 112 -62 188 -155 188s-155 -76 -155 -188zM272 553l-9 38c32 9 56 21 56 46c0 26 -28 40 -83 42l9 48
c87 -3 138 -30 138 -81c0 -58 -53 -83 -111 -93z" />
    <glyph glyph-name="uni1ED0" unicode="&#x1ed0;" 
d="M300 -12c-148 0 -252 132 -252 343c0 210 104 337 252 337s252 -128 252 -337c0 -211 -104 -343 -252 -343zM300 61c100 0 166 106 166 270c0 163 -66 264 -166 264s-166 -101 -166 -264c0 -164 66 -270 166 -270zM391 770l71 111h72l-91 -111h-52zM172 706l92 106h72
l92 -106h-63l-63 62h-4l-63 -62h-63z" />
    <glyph glyph-name="uni1ED1" unicode="&#x1ed1;" 
d="M60 242c0 163 112 256 240 256s240 -93 240 -256c0 -161 -112 -254 -240 -254s-240 93 -240 254zM145 242c0 -111 62 -186 155 -186s155 75 155 186c0 112 -62 188 -155 188s-155 -76 -155 -188zM184 573l82 119h68l82 -119h-56l-58 73h-4l-58 -73h-56zM389 640l73 114
h70l-92 -114h-51z" />
    <glyph glyph-name="uni1ED2" unicode="&#x1ed2;" 
d="M300 -12c-148 0 -252 132 -252 343c0 210 104 337 252 337s252 -128 252 -337c0 -211 -104 -343 -252 -343zM300 61c100 0 166 106 166 270c0 163 -66 264 -166 264s-166 -101 -166 -264c0 -164 66 -270 166 -270zM413 881l71 -111h-52l-91 111h72zM172 706l92 106h72
l92 -106h-63l-63 62h-4l-63 -62h-63z" />
    <glyph glyph-name="uni1ED3" unicode="&#x1ed3;" 
d="M60 242c0 163 112 256 240 256s240 -93 240 -256c0 -161 -112 -254 -240 -254s-240 93 -240 254zM145 242c0 -111 62 -186 155 -186s155 75 155 186c0 112 -62 188 -155 188s-155 -76 -155 -188zM184 573l82 119h68l82 -119h-56l-58 73h-4l-58 -73h-56zM427 754l74 -114
h-51l-92 114h69z" />
    <glyph glyph-name="uni1ED4" unicode="&#x1ed4;" 
d="M300 -12c-148 0 -252 132 -252 343c0 210 104 337 252 337s252 -128 252 -337c0 -211 -104 -343 -252 -343zM300 61c100 0 166 106 166 270c0 163 -66 264 -166 264s-166 -101 -166 -264c0 -164 66 -270 166 -270zM415 754l-11 35c25 6 45 15 45 36c0 26 -21 36 -71 39
l9 42c78 -3 120 -27 120 -73c0 -51 -44 -71 -92 -79zM172 706l92 106h72l92 -106h-63l-63 62h-4l-63 -62h-63z" />
    <glyph glyph-name="uni1ED5" unicode="&#x1ed5;" 
d="M60 242c0 163 112 256 240 256s240 -93 240 -256c0 -161 -112 -254 -240 -254s-240 93 -240 254zM145 242c0 -111 62 -186 155 -186s155 75 155 186c0 112 -62 188 -155 188s-155 -76 -155 -188zM184 573l82 119h68l82 -119h-56l-58 73h-4l-58 -73h-56zM416 628l-9 35
c25 7 42 18 42 39c0 26 -20 38 -69 41l7 41c78 -3 122 -26 122 -73c0 -54 -46 -72 -93 -83z" />
    <glyph glyph-name="uni1ED6" unicode="&#x1ed6;" 
d="M300 -12c-148 0 -252 132 -252 343c0 210 104 337 252 337s252 -128 252 -337c0 -211 -104 -343 -252 -343zM300 61c100 0 166 106 166 270c0 163 -66 264 -166 264s-166 -101 -166 -264c0 -164 66 -270 166 -270zM172 706l92 106h72l92 -106h-63l-63 62h-4l-63 -62h-63z
M210 848h-42c5 52 32 90 78 90c51 0 73 -42 105 -42c20 0 35 14 39 42h42c-5 -53 -32 -90 -78 -90c-51 0 -73 42 -105 42c-20 0 -35 -14 -39 -42z" />
    <glyph glyph-name="uni1ED7" unicode="&#x1ed7;" 
d="M60 242c0 163 112 256 240 256s240 -93 240 -256c0 -161 -112 -254 -240 -254s-240 93 -240 254zM145 242c0 -111 62 -186 155 -186s155 75 155 186c0 112 -62 188 -155 188s-155 -76 -155 -188zM176 571l86 104h76l86 -104h-58l-64 65h-4l-64 -65h-58zM211 711h-42
c5 53 33 91 79 91c50 0 69 -43 102 -43c20 0 34 14 39 43h42c-5 -53 -33 -91 -79 -91c-50 0 -69 43 -102 43c-20 0 -34 -14 -39 -43z" />
    <glyph glyph-name="uni1ED8" unicode="&#x1ed8;" 
d="M300 -12c-148 0 -252 132 -252 343c0 210 104 337 252 337s252 -128 252 -337c0 -211 -104 -343 -252 -343zM300 61c100 0 166 106 166 270c0 163 -66 264 -166 264s-166 -101 -166 -264c0 -164 66 -270 166 -270zM231 706h-67l96 112h80l96 -112h-67l-67 68h-4z
M300 -226c-37 0 -66 25 -66 63c0 39 29 64 66 64s66 -25 66 -64c0 -38 -29 -63 -66 -63z" />
    <glyph glyph-name="uni1ED9" unicode="&#x1ed9;" 
d="M60 242c0 163 112 256 240 256s240 -93 240 -256c0 -161 -112 -254 -240 -254s-240 93 -240 254zM145 242c0 -111 62 -186 155 -186s155 75 155 186c0 112 -62 188 -155 188s-155 -76 -155 -188zM168 573l97 148h70l97 -148h-63l-67 99h-4l-67 -99h-63zM300 -226
c-37 0 -66 25 -66 63c0 39 29 64 66 64s66 -25 66 -64c0 -38 -29 -63 -66 -63z" />
    <glyph glyph-name="uni1EDA" unicode="&#x1eda;" 
d="M431 818l-113 -112h-69l88 112h94zM300 61c100 0 166 106 166 270c0 163 -66 264 -166 264s-166 -101 -166 -264c0 -164 66 -270 166 -270zM480 744l59 29c14 -18 23 -40 23 -65c0 -59 -42 -92 -102 -106c58 -57 92 -151 92 -271c0 -211 -104 -343 -252 -343
s-252 132 -252 343c0 210 104 337 252 337c43 0 82 -11 116 -31c52 8 79 26 79 66c0 15 -6 28 -15 41z" />
    <glyph glyph-name="uni1EDB" unicode="&#x1edb;" 
d="M415 721l-117 -148h-63l90 148h90zM300 56c93 0 155 75 155 186c0 112 -62 188 -155 188s-155 -76 -155 -188c0 -111 62 -186 155 -186zM473 584l59 29c14 -18 24 -40 24 -65c0 -58 -42 -91 -100 -105c51 -44 84 -112 84 -201c0 -161 -112 -254 -240 -254
s-240 93 -240 254c0 163 112 256 240 256c36 0 72 -8 103 -22c58 8 85 28 85 66c0 15 -6 29 -15 42z" />
    <glyph glyph-name="uni1EDC" unicode="&#x1edc;" 
d="M351 706h-69l-113 112h94zM300 61c100 0 166 106 166 270c0 163 -66 264 -166 264s-166 -101 -166 -264c0 -164 66 -270 166 -270zM480 744l59 29c14 -18 23 -40 23 -65c0 -59 -42 -92 -102 -106c58 -57 92 -151 92 -271c0 -211 -104 -343 -252 -343s-252 132 -252 343
c0 210 104 337 252 337c43 0 82 -11 116 -31c52 8 79 26 79 66c0 15 -6 28 -15 41z" />
    <glyph glyph-name="uni1EDD" unicode="&#x1edd;" 
d="M365 573h-63l-117 148h90zM300 56c93 0 155 75 155 186c0 112 -62 188 -155 188s-155 -76 -155 -188c0 -111 62 -186 155 -186zM473 584l59 29c14 -18 24 -40 24 -65c0 -58 -42 -91 -100 -105c51 -44 84 -112 84 -201c0 -161 -112 -254 -240 -254s-240 93 -240 254
c0 163 112 256 240 256c36 0 72 -8 103 -22c58 8 85 28 85 66c0 15 -6 29 -15 42z" />
    <glyph glyph-name="uni1EDE" unicode="&#x1ede;" 
d="M272 698l-9 38c32 9 56 21 56 46c0 26 -28 40 -83 42l9 48c87 -3 138 -30 138 -81c0 -58 -53 -83 -111 -93zM300 61c100 0 166 106 166 270c0 163 -66 264 -166 264s-166 -101 -166 -264c0 -164 66 -270 166 -270zM480 744l59 29c14 -18 23 -40 23 -65
c0 -59 -42 -92 -102 -106c58 -57 92 -151 92 -271c0 -211 -104 -343 -252 -343s-252 132 -252 343c0 210 104 337 252 337c43 0 82 -11 116 -31c52 8 79 26 79 66c0 15 -6 28 -15 41z" />
    <glyph glyph-name="uni1EDF" unicode="&#x1edf;" 
d="M272 553l-9 38c32 9 56 21 56 46c0 26 -28 40 -83 42l9 48c87 -3 138 -30 138 -81c0 -58 -53 -83 -111 -93zM300 56c93 0 155 75 155 186c0 112 -62 188 -155 188s-155 -76 -155 -188c0 -111 62 -186 155 -186zM473 584l59 29c14 -18 24 -40 24 -65
c0 -58 -42 -91 -100 -105c51 -44 84 -112 84 -201c0 -161 -112 -254 -240 -254s-240 93 -240 254c0 163 112 256 240 256c36 0 72 -8 103 -22c58 8 85 28 85 66c0 15 -6 29 -15 42z" />
    <glyph glyph-name="uni1EE0" unicode="&#x1ee0;" 
d="M399 819h46c-6 -61 -37 -108 -85 -108c-53 0 -82 52 -119 52c-19 0 -35 -18 -40 -52h-46c6 62 37 108 85 108c53 0 82 -52 119 -52c19 0 35 19 40 52zM300 61c100 0 166 106 166 270c0 163 -66 264 -166 264s-166 -101 -166 -264c0 -164 66 -270 166 -270zM480 744l59 29
c14 -18 23 -40 23 -65c0 -59 -42 -92 -102 -106c58 -57 92 -151 92 -271c0 -211 -104 -343 -252 -343s-252 132 -252 343c0 210 104 337 252 337c43 0 82 -11 116 -31c52 8 79 26 79 66c0 15 -6 28 -15 41z" />
    <glyph glyph-name="uni1EE1" unicode="&#x1ee1;" 
d="M395 688h47c-7 -62 -35 -109 -88 -109c-49 0 -76 55 -109 55c-21 0 -34 -18 -40 -55h-47c7 63 35 109 88 109c48 0 77 -54 109 -54c21 0 34 18 40 54zM300 56c93 0 155 75 155 186c0 112 -62 188 -155 188s-155 -76 -155 -188c0 -111 62 -186 155 -186zM473 584l59 29
c14 -18 24 -40 24 -65c0 -58 -42 -91 -100 -105c51 -44 84 -112 84 -201c0 -161 -112 -254 -240 -254s-240 93 -240 254c0 163 112 256 240 256c36 0 72 -8 103 -22c58 8 85 28 85 66c0 15 -6 29 -15 42z" />
    <glyph glyph-name="uni1EE2" unicode="&#x1ee2;" 
d="M300 -99c37 0 66 -25 66 -64c0 -38 -29 -63 -66 -63s-66 25 -66 63c0 39 29 64 66 64zM300 61c100 0 166 106 166 270c0 163 -66 264 -166 264s-166 -101 -166 -264c0 -164 66 -270 166 -270zM480 744l59 29c14 -18 23 -40 23 -65c0 -59 -42 -92 -102 -106
c58 -57 92 -151 92 -271c0 -211 -104 -343 -252 -343s-252 132 -252 343c0 210 104 337 252 337c43 0 82 -11 116 -31c52 8 79 26 79 66c0 15 -6 28 -15 41z" />
    <glyph glyph-name="uni1EE3" unicode="&#x1ee3;" 
d="M301 -99c37 0 66 -25 66 -64c0 -38 -29 -63 -66 -63s-66 25 -66 63c0 39 29 64 66 64zM300 56c93 0 155 75 155 186c0 112 -62 188 -155 188s-155 -76 -155 -188c0 -111 62 -186 155 -186zM473 584l59 29c14 -18 24 -40 24 -65c0 -58 -42 -91 -100 -105
c51 -44 84 -112 84 -201c0 -161 -112 -254 -240 -254s-240 93 -240 254c0 163 112 256 240 256c36 0 72 -8 103 -22c58 8 85 28 85 66c0 15 -6 29 -15 42z" />
    <glyph glyph-name="uni1EE4" unicode="&#x1ee4;" 
d="M79 248v408h84v-410c0 -136 59 -185 138 -185s139 49 139 185v410h81v-408c0 -188 -92 -260 -220 -260c-129 0 -222 72 -222 260zM300 -226c-37 0 -66 25 -66 63c0 39 29 64 66 64s66 -25 66 -64c0 -38 -29 -63 -66 -63z" />
    <glyph glyph-name="uni1EE5" unicode="&#x1ee5;" 
d="M505 486v-486h-67l-7 85h-4c-49 -57 -106 -97 -181 -97c-116 0 -169 68 -169 196v302h83v-291c0 -92 31 -136 112 -136c56 0 97 27 151 90v337h82zM321 -226c-38 0 -66 25 -66 63c0 39 28 64 66 64c37 0 65 -25 65 -64c0 -38 -28 -63 -65 -63z" />
    <glyph glyph-name="uni1EE6" unicode="&#x1ee6;" 
d="M79 248v408h84v-410c0 -136 59 -185 138 -185s139 49 139 185v410h81v-408c0 -188 -92 -260 -220 -260c-129 0 -222 72 -222 260zM272 698l-9 38c32 9 56 21 56 46c0 26 -28 40 -83 42l9 48c87 -3 138 -30 138 -81c0 -58 -53 -83 -111 -93z" />
    <glyph glyph-name="uni1EE7" unicode="&#x1ee7;" 
d="M505 486v-486h-67l-7 85h-4c-49 -57 -106 -97 -181 -97c-116 0 -169 68 -169 196v302h83v-291c0 -92 31 -136 112 -136c56 0 97 27 151 90v337h82zM267 553l-10 38c32 9 57 21 57 46c0 26 -28 40 -83 42l8 48c88 -3 139 -30 139 -81c0 -58 -53 -83 -111 -93z" />
    <glyph glyph-name="uni1EE8" unicode="&#x1ee8;" 
d="M431 818l-113 -112h-69l88 112h94zM548 764l59 29c14 -18 23 -40 23 -65c0 -66 -51 -95 -109 -108v-372c0 -188 -92 -260 -220 -260c-129 0 -222 72 -222 260v408h84v-410c0 -136 59 -185 138 -185s139 49 139 185v410h35c53 7 88 21 88 67c0 15 -6 28 -15 41z" />
    <glyph glyph-name="uni1EE9" unicode="&#x1ee9;" 
d="M409 721l-117 -148h-63l90 148h90zM516 594l59 29c13 -18 23 -40 23 -65c0 -62 -47 -91 -93 -104v-454h-67l-7 85h-4c-49 -57 -106 -97 -181 -97c-116 0 -169 68 -169 196v302h83v-291c0 -92 31 -136 112 -136c56 0 97 27 151 90v337h24c46 5 83 21 83 66
c0 15 -6 29 -14 42z" />
    <glyph glyph-name="uni1EEA" unicode="&#x1eea;" 
d="M351 706h-69l-113 112h94zM548 764l59 29c14 -18 23 -40 23 -65c0 -66 -51 -95 -109 -108v-372c0 -188 -92 -260 -220 -260c-129 0 -222 72 -222 260v408h84v-410c0 -136 59 -185 138 -185s139 49 139 185v410h35c53 7 88 21 88 67c0 15 -6 28 -15 41z" />
    <glyph glyph-name="uni1EEB" unicode="&#x1eeb;" 
d="M359 573h-63l-117 148h90zM516 594l59 29c13 -18 23 -40 23 -65c0 -62 -47 -91 -93 -104v-454h-67l-7 85h-4c-49 -57 -106 -97 -181 -97c-116 0 -169 68 -169 196v302h83v-291c0 -92 31 -136 112 -136c56 0 97 27 151 90v337h24c46 5 83 21 83 66c0 15 -6 29 -14 42z" />
    <glyph glyph-name="uni1EEC" unicode="&#x1eec;" 
d="M272 698l-9 38c32 9 56 21 56 46c0 26 -28 40 -83 42l9 48c87 -3 138 -30 138 -81c0 -58 -53 -83 -111 -93zM548 764l59 29c14 -18 23 -40 23 -65c0 -66 -51 -95 -109 -108v-372c0 -188 -92 -260 -220 -260c-129 0 -222 72 -222 260v408h84v-410c0 -136 59 -185 138 -185
s139 49 139 185v410h35c53 7 88 21 88 67c0 15 -6 28 -15 41z" />
    <glyph glyph-name="uni1EED" unicode="&#x1eed;" 
d="M266 553l-9 38c32 9 56 21 56 46c0 26 -28 40 -83 42l9 48c87 -3 138 -30 138 -81c0 -58 -53 -83 -111 -93zM516 594l59 29c13 -18 23 -40 23 -65c0 -62 -47 -91 -93 -104v-454h-67l-7 85h-4c-49 -57 -106 -97 -181 -97c-116 0 -169 68 -169 196v302h83v-291
c0 -92 31 -136 112 -136c56 0 97 27 151 90v337h24c46 5 83 21 83 66c0 15 -6 29 -14 42z" />
    <glyph glyph-name="uni1EEE" unicode="&#x1eee;" 
d="M399 819h46c-6 -61 -37 -108 -85 -108c-53 0 -82 52 -119 52c-19 0 -35 -18 -40 -52h-46c6 62 37 108 85 108c53 0 82 -52 119 -52c19 0 35 19 40 52zM548 764l59 29c14 -18 23 -40 23 -65c0 -66 -51 -95 -109 -108v-372c0 -188 -92 -260 -220 -260
c-129 0 -222 72 -222 260v408h84v-410c0 -136 59 -185 138 -185s139 49 139 185v410h35c53 7 88 21 88 67c0 15 -6 28 -15 41z" />
    <glyph glyph-name="uni1EEF" unicode="&#x1eef;" 
d="M389 688h47c-7 -62 -35 -109 -88 -109c-49 0 -76 55 -109 55c-21 0 -34 -18 -40 -55h-47c7 63 35 109 88 109c48 0 77 -54 109 -54c21 0 34 18 40 54zM516 594l59 29c13 -18 23 -40 23 -65c0 -62 -47 -91 -93 -104v-454h-67l-7 85h-4c-49 -57 -106 -97 -181 -97
c-116 0 -169 68 -169 196v302h83v-291c0 -92 31 -136 112 -136c56 0 97 27 151 90v337h24c46 5 83 21 83 66c0 15 -6 29 -14 42z" />
    <glyph glyph-name="uni1EF0" unicode="&#x1ef0;" 
d="M300 -99c37 0 66 -25 66 -64c0 -38 -29 -63 -66 -63s-66 25 -66 63c0 39 29 64 66 64zM548 764l59 29c14 -18 23 -40 23 -65c0 -66 -51 -95 -109 -108v-372c0 -188 -92 -260 -220 -260c-129 0 -222 72 -222 260v408h84v-410c0 -136 59 -185 138 -185s139 49 139 185v410
h35c53 7 88 21 88 67c0 15 -6 28 -15 41z" />
    <glyph glyph-name="uni1EF1" unicode="&#x1ef1;" 
d="M308 -99c37 0 66 -25 66 -64c0 -38 -29 -63 -66 -63s-66 25 -66 63c0 39 29 64 66 64zM516 594l59 29c13 -18 23 -40 23 -65c0 -62 -47 -91 -93 -104v-454h-67l-7 85h-4c-49 -57 -106 -97 -181 -97c-116 0 -169 68 -169 196v302h83v-291c0 -92 31 -136 112 -136
c56 0 97 27 151 90v337h24c46 5 83 21 83 66c0 15 -6 29 -14 42z" />
    <glyph glyph-name="Ygrave" unicode="&#x1ef2;" 
d="M258 0v234l-220 422h88l99 -195c25 -50 48 -100 75 -153h4c26 53 52 103 77 154l95 194h86l-220 -422v-234h-84zM282 706l-113 112h94l88 -112h-69z" />
    <glyph glyph-name="ygrave" unicode="&#x1ef3;" 
d="M84 -134c13 -4 29 -7 44 -7c68 0 109 44 133 104l15 36l-227 487h83l119 -269c19 -43 40 -94 60 -141h4c17 46 36 97 52 141l106 269h78l-214 -526c-36 -96 -96 -169 -206 -169c-23 0 -47 4 -64 10zM306 573l-116 148h89l90 -148h-63z" />
    <glyph glyph-name="uni1EF4" unicode="&#x1ef4;" 
d="M258 0v234l-220 422h88l99 -195c25 -50 48 -100 75 -153h4c26 53 52 103 77 154l95 194h86l-220 -422v-234h-84zM300 -226c-37 0 -66 25 -66 63c0 39 29 64 66 64s66 -25 66 -64c0 -38 -29 -63 -66 -63z" />
    <glyph glyph-name="uni1EF5" unicode="&#x1ef5;" 
d="M84 -134c13 -4 29 -7 44 -7c68 0 109 44 133 104l15 36l-227 487h83l119 -269c19 -43 40 -94 60 -141h4c17 46 36 97 52 141l106 269h78l-214 -526c-36 -96 -96 -169 -206 -169c-23 0 -47 4 -64 10zM458 -222c-37 0 -65 24 -65 63c0 38 28 64 65 64c38 0 66 -26 66 -64
c0 -39 -28 -63 -66 -63z" />
    <glyph glyph-name="uni1EF6" unicode="&#x1ef6;" 
d="M258 0v234l-220 422h88l99 -195c25 -50 48 -100 75 -153h4c26 53 52 103 77 154l95 194h86l-220 -422v-234h-84zM272 698l-9 38c32 9 56 21 56 46c0 26 -28 40 -83 42l9 48c87 -3 138 -30 138 -81c0 -58 -53 -83 -111 -93z" />
    <glyph glyph-name="uni1EF7" unicode="&#x1ef7;" 
d="M84 -134c13 -4 29 -7 44 -7c68 0 109 44 133 104l15 36l-227 487h83l119 -269c19 -43 40 -94 60 -141h4c17 46 36 97 52 141l106 269h78l-214 -526c-36 -96 -96 -169 -206 -169c-23 0 -47 4 -64 10zM282 553l-10 38c32 9 56 21 56 46c0 26 -27 40 -83 42l9 48
c88 -3 138 -30 138 -81c0 -58 -52 -83 -110 -93z" />
    <glyph glyph-name="uni1EF8" unicode="&#x1ef8;" 
d="M258 0v234l-220 422h88l99 -195c25 -50 48 -100 75 -153h4c26 53 52 103 77 154l95 194h86l-220 -422v-234h-84zM360 711c-53 0 -82 52 -119 52c-19 0 -35 -18 -40 -52h-46c6 62 37 108 85 108c53 0 82 -52 119 -52c19 0 35 19 40 52h46c-6 -61 -37 -108 -85 -108z" />
    <glyph glyph-name="uni1EF9" unicode="&#x1ef9;" 
d="M84 -134c13 -4 29 -7 44 -7c68 0 109 44 133 104l15 36l-227 487h83l119 -269c19 -43 40 -94 60 -141h4c17 46 36 97 52 141l106 269h78l-214 -526c-36 -96 -96 -169 -206 -169c-23 0 -47 4 -64 10zM163 579c6 63 34 109 87 109c49 0 77 -54 109 -54c21 0 34 18 40 54h47
c-7 -62 -35 -109 -88 -109c-49 0 -75 55 -108 55c-22 0 -34 -18 -41 -55h-46z" />
    <glyph glyph-name="uni2007" unicode="&#x2007;" 
 />
    <glyph glyph-name="figuredash" unicode="&#x2012;" 
d="M80 216v72h440v-72h-440z" />
    <glyph glyph-name="endash" unicode="&#x2013;" 
d="M80 216v72h440v-72h-440z" />
    <glyph glyph-name="emdash" unicode="&#x2014;" 
d="M20 216v72h560v-72h-560z" />
    <glyph glyph-name="uni2015" unicode="&#x2015;" 
d="M20 216v72h560v-72h-560z" />
    <glyph glyph-name="quoteleft" unicode="&#x2018;" 
d="M353 699l27 -48c-62 -36 -99 -89 -103 -158c8 4 17 6 26 6c41 0 70 -30 70 -72c0 -46 -31 -77 -74 -77c-52 0 -90 45 -90 120c0 100 54 183 144 229z" />
    <glyph glyph-name="quoteright" unicode="&#x2019;" 
d="M245 350l-28 48c63 35 100 88 104 158c-8 -4 -17 -6 -26 -6c-42 0 -71 29 -71 71c0 46 31 78 74 78c53 0 90 -45 90 -121c0 -100 -54 -182 -143 -228z" />
    <glyph glyph-name="quotesinglbase" unicode="&#x201a;" 
d="M245 -226l-28 48c63 35 100 88 104 158c-8 -4 -17 -6 -26 -6c-42 0 -71 29 -71 72c0 45 31 77 74 77c53 0 90 -45 90 -121c0 -100 -54 -182 -143 -228z" />
    <glyph glyph-name="quotedblleft" unicode="&#x201c;" 
d="M238 699l27 -48c-62 -36 -99 -89 -104 -158c9 4 18 6 27 6c41 0 70 -30 70 -72c0 -46 -30 -77 -73 -77c-53 0 -90 45 -90 120c0 100 53 183 143 229zM468 699l27 -48c-63 -36 -100 -89 -105 -158c9 4 18 6 27 6c42 0 71 -30 71 -72c0 -46 -31 -77 -74 -77
c-52 0 -90 45 -90 120c0 100 54 183 144 229z" />
    <glyph glyph-name="quotedblright" unicode="&#x201d;" 
d="M130 350l-27 48c62 35 99 88 103 158c-8 -4 -17 -6 -26 -6c-41 0 -70 29 -70 71c0 46 30 78 73 78c53 0 90 -45 90 -121c0 -100 -53 -182 -143 -228zM359 350l-27 48c61 35 99 88 103 157c-8 -3 -17 -5 -25 -5c-42 0 -71 29 -71 71c0 46 31 78 74 78c52 0 90 -45 90 -121
c0 -100 -54 -182 -144 -228z" />
    <glyph glyph-name="quotedblbase" unicode="&#x201e;" 
d="M130 -226l-27 48c62 35 99 88 103 158c-8 -4 -17 -6 -26 -6c-41 0 -70 29 -70 72c0 45 30 77 73 77c53 0 90 -45 90 -121c0 -100 -53 -182 -143 -228zM359 -226l-27 48c61 35 99 88 103 157c-8 -3 -17 -5 -25 -5c-42 0 -71 29 -71 72c0 45 31 77 74 77
c52 0 90 -45 90 -121c0 -100 -54 -182 -144 -228z" />
    <glyph glyph-name="dagger" unicode="&#x2020;" 
d="M265 -80l5 571l-143 -5v71l143 -5l-5 160h70l-5 -160l143 5v-71l-143 5l5 -571h-70z" />
    <glyph glyph-name="daggerdbl" unicode="&#x2021;" 
d="M127 75v71l143 -7l-5 177l5 177l-143 -7v71l143 -5l-5 160h70l-5 -160l143 5v-71l-143 7l5 -177l-5 -177l143 7v-71l-143 5l5 -160h-70l5 160z" />
    <glyph glyph-name="bullet" unicode="&#x2022;" 
d="M300 115c-79 0 -149 59 -149 147s70 147 149 147s149 -59 149 -147s-70 -147 -149 -147z" />
    <glyph glyph-name="ellipsis" unicode="&#x2026;" 
d="M32 63c0 45 31 75 70 75c38 0 69 -30 69 -75c0 -44 -31 -75 -69 -75c-39 0 -70 31 -70 75zM230 63c0 45 31 75 70 75s70 -30 70 -75c0 -44 -31 -75 -70 -75s-70 31 -70 75zM429 63c0 45 31 75 69 75c39 0 70 -30 70 -75c0 -44 -31 -75 -70 -75c-38 0 -69 31 -69 75z" />
    <glyph glyph-name="perthousand" unicode="&#x2030;" 
d="M165 389c-69 0 -117 49 -117 132c0 81 48 129 117 129s117 -48 117 -129c0 -83 -48 -132 -117 -132zM165 431c36 0 62 28 62 90c0 60 -26 87 -62 87s-63 -27 -63 -87c0 -62 27 -90 63 -90zM551 510l24 -58l-456 -174l-14 31zM165 -12c-69 0 -117 49 -117 132
c0 81 48 129 117 129s117 -48 117 -129c0 -83 -48 -132 -117 -132zM165 30c36 0 62 28 62 90c0 60 -26 86 -62 86s-63 -27 -63 -86c0 -62 27 -90 63 -90zM436 -12c-69 0 -117 49 -117 132c0 81 48 129 117 129s117 -48 117 -129c0 -83 -48 -132 -117 -132zM436 30
c36 0 62 28 62 90c0 60 -26 86 -62 86s-63 -27 -63 -86c0 -62 27 -90 63 -90z" />
    <glyph glyph-name="uni2032" unicode="&#x2032;" 
d="M256 434l23 256h81l-16 -100l-34 -156h-54z" />
    <glyph glyph-name="uni2033" unicode="&#x2033;" 
d="M168 434l23 256h81l-16 -100l-34 -156h-54zM345 434l22 256h81l-15 -100l-35 -156h-53z" />
    <glyph glyph-name="guilsinglleft" unicode="&#x2039;" 
d="M350 52l-153 160v80l153 160l39 -35l-127 -165l127 -166z" />
    <glyph glyph-name="guilsinglright" unicode="&#x203a;" 
d="M211 86l127 166l-127 165l39 35l153 -160v-80l-153 -160z" />
    <glyph glyph-name="fraction" unicode="&#x2044;" 
d="M77 32l-49 45l183 188l33 -30zM523 624l49 -45l-183 -188l-33 30z" />
    <glyph glyph-name="zero.sups" unicode="&#x2070;" 
d="M300 428c-81 0 -139 62 -139 167c0 103 58 162 139 162s139 -59 139 -162c0 -105 -58 -167 -139 -167zM300 478c43 0 78 38 78 117s-35 113 -78 113s-78 -34 -78 -113s35 -117 78 -117z" />
    <glyph glyph-name="i.sups" unicode="&#x2071;" 
d="M175 531v51h205v-322h-64v271h-141zM347 645c-28 0 -48 17 -48 45c0 27 20 46 48 46s48 -19 48 -46c0 -28 -20 -45 -48 -45z" />
    <glyph glyph-name="four.sups" unicode="&#x2074;" 
d="M236 556h98v56l4 82h-3l-45 -65zM441 556v-43h-50v-73h-57v73h-162v31l148 201h71v-189h50z" />
    <glyph glyph-name="five.sups" unicode="&#x2075;" 
d="M172 482l32 39c23 -24 52 -43 92 -43c38 0 66 21 66 57c0 38 -26 58 -67 58c-26 0 -44 -9 -64 -23l-31 20l17 155h189v-54h-139l-10 -70c16 8 36 12 56 12c66 0 112 -36 112 -99s-53 -106 -124 -106c-55 0 -93 20 -129 54z" />
    <glyph glyph-name="six.sups" unicode="&#x2076;" 
d="M311 478c36 0 58 21 58 54c0 31 -18 53 -59 53c-26 0 -49 -10 -75 -34c7 -52 41 -73 76 -73zM422 725l-26 -41c-18 14 -38 24 -65 24c-56 0 -92 -39 -97 -115c25 21 56 34 91 34c68 0 102 -39 102 -95c0 -57 -48 -104 -115 -104c-78 0 -137 58 -137 152
c0 114 63 177 154 177c39 0 68 -14 93 -32z" />
    <glyph glyph-name="seven.sups" unicode="&#x2077;" 
d="M253 440c6 103 34 169 99 252h-169v53h243v-36c-85 -93 -103 -163 -108 -269h-65z" />
    <glyph glyph-name="eight.sups" unicode="&#x2078;" 
d="M233 520c0 -27 30 -47 67 -47c34 0 67 19 67 45c0 37 -42 48 -87 61c-30 -14 -47 -36 -47 -59zM320 617c26 16 36 33 36 53c0 24 -20 42 -56 42c-33 0 -55 -17 -55 -40c0 -29 34 -43 75 -55zM175 516c0 42 31 65 65 81v4c-30 18 -54 36 -54 72c0 49 52 84 114 84
c66 0 115 -35 115 -84c0 -37 -27 -58 -53 -72v-4c35 -15 63 -37 63 -81c0 -49 -54 -88 -125 -88c-75 0 -125 41 -125 88z" />
    <glyph glyph-name="nine.sups" unicode="&#x2079;" 
d="M231 653c0 -31 18 -52 59 -52c26 0 49 9 74 33c-7 51 -40 74 -75 74c-36 0 -58 -22 -58 -55zM178 461l26 40c18 -14 38 -23 65 -23c56 0 91 39 96 114c-25 -21 -55 -34 -90 -34c-68 0 -102 39 -102 95c0 58 48 104 115 104c78 0 137 -58 137 -152
c0 -114 -63 -177 -154 -177c-39 0 -68 14 -93 33z" />
    <glyph glyph-name="parenleft.sups" unicode="&#x207d;" 
d="M236 599c0 100 39 170 105 236l46 -33c-60 -60 -85 -125 -85 -203s25 -143 85 -203l-46 -32c-66 65 -105 135 -105 235z" />
    <glyph glyph-name="parenright.sups" unicode="&#x207e;" 
d="M364 599c0 -100 -39 -170 -105 -235l-46 32c60 60 85 125 85 203s-25 143 -85 203l46 33c66 -66 105 -136 105 -236z" />
    <glyph glyph-name="n.sups" unicode="&#x207f;" 
d="M175 260v322h53l5 -48h3c31 31 66 56 115 56c74 0 109 -45 109 -127v-203h-64v195c0 55 -19 81 -67 81c-34 0 -57 -17 -90 -49v-227h-64z" />
    <glyph glyph-name="zero.subs" unicode="&#x2080;" 
d="M300 -182c-81 0 -139 62 -139 167c0 103 58 162 139 162s139 -59 139 -162c0 -105 -58 -167 -139 -167zM300 -132c43 0 78 38 78 117s-35 113 -78 113s-78 -34 -78 -113s35 -117 78 -117z" />
    <glyph glyph-name="one.subs" unicode="&#x2081;" 
d="M290 -170v230h-82v42c44 7 67 17 95 33h50v-305h-63z" />
    <glyph glyph-name="two.subs" unicode="&#x2082;" 
d="M184 -170v36c104 79 161 126 161 170c0 36 -22 59 -61 59c-27 0 -52 -17 -71 -42l-40 33c30 35 71 61 119 61c72 0 115 -37 115 -103c0 -54 -54 -101 -121 -161h136v-53h-238z" />
    <glyph glyph-name="three.subs" unicode="&#x2083;" 
d="M172 -128l32 39c20 -24 55 -43 91 -43s62 14 62 47c0 34 -31 51 -96 51v38c55 0 81 20 81 51c0 26 -17 43 -55 43c-24 0 -53 -14 -73 -34l-30 38c25 27 69 45 115 45c62 0 106 -31 106 -84c0 -38 -17 -61 -56 -75c43 -10 71 -36 71 -77c0 -59 -53 -93 -121 -93
c-46 0 -94 20 -127 54z" />
    <glyph glyph-name="four.subs" unicode="&#x2084;" 
d="M236 -54h98v56l4 82h-3l-45 -65zM441 -54v-43h-50v-73h-57v73h-162v31l148 201h71v-189h50z" />
    <glyph glyph-name="five.subs" unicode="&#x2085;" 
d="M172 -128l32 39c23 -24 52 -43 92 -43c38 0 66 21 66 57c0 38 -26 58 -67 58c-26 0 -44 -9 -64 -23l-31 20l17 155h189v-54h-139l-10 -70c16 8 36 12 56 12c66 0 112 -36 112 -99s-53 -106 -124 -106c-55 0 -93 20 -129 54z" />
    <glyph glyph-name="six.subs" unicode="&#x2086;" 
d="M311 -132c36 0 58 21 58 54c0 31 -18 53 -59 53c-26 0 -49 -10 -75 -34c7 -52 41 -73 76 -73zM422 115l-26 -41c-18 14 -38 24 -65 24c-56 0 -92 -39 -97 -115c25 21 56 34 91 34c68 0 102 -39 102 -95c0 -57 -48 -104 -115 -104c-78 0 -137 58 -137 152
c0 114 63 177 154 177c39 0 68 -14 93 -32z" />
    <glyph glyph-name="seven.subs" unicode="&#x2087;" 
d="M253 -170c6 103 34 169 99 252h-169v53h243v-36c-85 -93 -103 -163 -108 -269h-65z" />
    <glyph glyph-name="eight.subs" unicode="&#x2088;" 
d="M233 -90c0 -27 30 -47 67 -47c34 0 67 19 67 45c0 37 -42 48 -87 61c-30 -14 -47 -36 -47 -59zM320 7c26 16 36 33 36 53c0 24 -20 42 -56 42c-33 0 -55 -17 -55 -40c0 -29 34 -43 75 -55zM175 -94c0 42 31 65 65 81v4c-30 18 -54 36 -54 72c0 49 52 84 114 84
c66 0 115 -35 115 -84c0 -37 -27 -58 -53 -72v-4c35 -15 63 -37 63 -81c0 -49 -54 -88 -125 -88c-75 0 -125 41 -125 88z" />
    <glyph glyph-name="nine.subs" unicode="&#x2089;" 
d="M231 43c0 -31 18 -52 59 -52c26 0 49 9 74 33c-7 51 -40 74 -75 74c-36 0 -58 -22 -58 -55zM178 -149l26 40c18 -14 38 -23 65 -23c56 0 91 39 96 114c-25 -21 -55 -34 -90 -34c-68 0 -102 39 -102 95c0 58 48 104 115 104c78 0 137 -58 137 -152
c0 -114 -63 -177 -154 -177c-39 0 -68 14 -93 33z" />
    <glyph glyph-name="parenleft.subs" unicode="&#x208d;" 
d="M236 -11c0 100 39 170 105 236l46 -33c-60 -60 -85 -125 -85 -203s25 -143 85 -203l-46 -32c-66 65 -105 135 -105 235z" />
    <glyph glyph-name="parenright.subs" unicode="&#x208e;" 
d="M364 -11c0 -100 -39 -170 -105 -235l-46 32c60 60 85 125 85 203s-25 143 -85 203l46 33c66 -66 105 -136 105 -236z" />
    <glyph glyph-name="uni0259.sups" unicode="&#x2094;" 
d="M154 408c0 12 2 24 4 32h229c-4 62 -39 100 -101 100c-34 0 -61 -10 -89 -26l-22 41c32 21 72 35 118 35c94 0 157 -62 157 -169c0 -104 -67 -169 -152 -169c-89 0 -144 61 -144 156zM211 398c0 -63 32 -96 86 -96c52 0 85 34 91 96h-177z" />
    <glyph glyph-name="colonmonetary" unicode="&#x20a1;" 
d="M347 583l-60 -512c16 -9 35 -14 56 -16l62 524c-13 3 -26 5 -40 5c-6 0 -12 0 -18 -1zM252 97l56 478c-82 -28 -127 -121 -127 -254c0 -101 25 -180 71 -224zM497 125l49 -44c-46 -53 -101 -87 -173 -92l-12 -99h-38l12 99c-20 1 -39 5 -57 10l-13 -109h-38l15 124
c-90 47 -146 154 -146 304c0 183 85 303 221 327l12 103h38l-12 -98h15c15 0 29 -2 43 -5l12 103h38l-14 -114c35 -14 65 -37 88 -62l-49 -47c-15 15 -30 28 -47 38l-60 -508c46 6 81 30 116 70z" />
    <glyph glyph-name="lira" unicode="&#x20a4;" 
d="M200 71h331v-71h-453v50c83 37 124 105 124 180v5h-124v44l87 5h30c-5 20 -13 39 -20 59h-97v45l80 4c-8 24 -14 49 -14 74c0 113 83 184 210 184c82 0 137 -32 176 -75l-48 -47c-31 31 -68 53 -124 53c-87 0 -135 -48 -135 -117c0 -25 5 -48 13 -72h206v-49h-190
c6 -19 13 -39 17 -59h173v-49h-167v-6c0 -70 -25 -113 -75 -154v-4z" />
    <glyph glyph-name="uni20A6" unicode="&#x20a6;" 
d="M416 283l-2 34v26h-90l19 -46l5 -14h68zM430 74l-11 166h-55l62 -166h4zM186 283h95l-24 59v1h-72l1 -22v-38zM170 563l12 -178h59l-67 178h-4zM551 343h-72v-60h72v-43h-72v-240h-84l-97 240h-112v-240h-65v240h-74v38l74 5v60h-74v37l74 5v253h84l102 -253h107v253h65
v-253h72v-42z" />
    <glyph glyph-name="peseta" unicode="&#x20a7;" 
d="M197 302h59c91 0 145 39 155 115h-214v-115zM256 581h-59v-108h214c-10 78 -64 108 -155 108zM554 473v-56h-64c-12 -117 -105 -172 -224 -172h-69v-245h-79v417h-75v51l75 5v165h148c121 0 211 -45 224 -165h64z" />
    <glyph glyph-name="dong" unicode="&#x20ab;" 
d="M121 0v49h378v-49h-378zM397 222v155c-36 29 -62 41 -102 41c-62 0 -113 -51 -113 -118c0 -82 40 -131 109 -131c37 0 71 16 106 53zM468 598h78v-44l-78 -5v-429h-58l-6 43h-4c-31 -30 -72 -53 -124 -53c-101 0 -167 67 -167 189c0 110 85 179 174 179
c52 0 83 -17 118 -46l-4 83v34h-155v49h155v67h71v-67z" />
    <glyph glyph-name="Euro" unicode="&#x20ac;" 
d="M517 125l49 -44c-50 -58 -110 -93 -192 -93c-130 0 -227 91 -252 247h-64v43l59 4c-1 12 -1 24 -1 36c0 11 0 22 1 32h-59v44l64 5c25 157 125 251 266 251c68 0 129 -34 169 -78l-49 -47c-34 35 -72 59 -123 59c-98 0 -160 -70 -178 -185h294v-49h-299
c-1 -9 -1 -19 -1 -29c0 -13 0 -26 1 -38h259v-48h-253c19 -113 79 -181 171 -181c57 0 98 25 138 71z" />
    <glyph glyph-name="uni20B1" unicode="&#x20b1;" 
d="M197 418h214c1 8 2 17 2 26c0 12 -1 23 -2 33h-214v-59zM197 302h59c73 0 123 25 145 75h-204v-75zM256 581h-59v-63h201c-23 45 -71 63 -142 63zM554 518v-41h-65c1 -10 2 -21 2 -33c0 -9 0 -18 -1 -26h64v-41h-72c-27 -90 -111 -132 -216 -132h-69v-245h-79v377h-75v36
l75 5v59h-75v37l75 4v120h148c104 0 186 -33 214 -120h74z" />
    <glyph glyph-name="uni20B2" unicode="&#x20b2;" 
d="M526 331v-270c-44 -41 -96 -65 -155 -71v-100h-60v100c-134 15 -227 136 -227 328c0 188 89 309 227 329v101h60v-99c61 -5 116 -38 152 -79l-49 -46c-34 36 -73 60 -123 60c-116 0 -182 -102 -182 -263c0 -164 65 -265 176 -265c43 0 85 17 106 37v169h-116v69h191z" />
    <glyph glyph-name="uni20B5" unicode="&#x20b5;" 
d="M330 56v525c-96 -19 -149 -116 -149 -260c0 -149 54 -248 149 -265zM497 125l49 -44c-44 -51 -96 -84 -163 -91v-100h-53v99c-139 13 -234 134 -234 329c0 190 92 311 234 330v97h53v-96c62 -4 117 -36 154 -77l-49 -47c-30 31 -63 53 -105 58v-527c45 6 80 30 114 69z
" />
    <glyph glyph-name="uni20B9" unicode="&#x20b9;" 
d="M524 638v-49h-157c44 -20 74 -57 84 -103h73v-49h-71c-6 -101 -74 -159 -171 -178l208 -259h-94l-199 252h-89v67h79c110 0 177 38 184 118h-263v44l76 5h184c-16 61 -80 84 -181 84h-79v68h416z" />
    <glyph glyph-name="uni20BA" unicode="&#x20ba;" 
d="M244 66c99 3 221 59 221 164c0 11 0 24 -6 43l69 18c6 -23 8 -40 8 -57c0 -169 -165 -250 -376 -246v273l-104 -48v53l104 48v72l-104 -48v52l104 49v199h84v-158l182 86v-53l-182 -86v-72l182 86v-52l-182 -87v-236z" />
    <glyph glyph-name="uni2113" unicode="&#x2113;" 
d="M283 517v-210c78 78 125 164 125 258c0 66 -25 92 -58 92c-36 0 -67 -43 -67 -140zM464 102l33 -51c-33 -31 -78 -63 -136 -63c-82 0 -153 58 -159 170c-16 -12 -34 -23 -52 -35l-33 52c30 19 58 40 85 60v268c0 155 63 217 146 217c76 0 130 -55 130 -155
c0 -125 -73 -241 -195 -345v-34c0 -93 41 -128 90 -128c40 0 67 21 91 44z" />
    <glyph glyph-name="uni2117" unicode="&#x2117;" 
d="M193 137v363h114c76 0 136 -36 136 -117c0 -88 -61 -131 -136 -131h-49v-115h-65zM258 302h39c52 0 81 24 81 79c0 48 -30 68 -81 68h-39v-147zM30 323c0 204 117 330 270 330s270 -126 270 -330s-117 -334 -270 -334s-270 130 -270 334zM76 323c0 -175 90 -292 224 -292
s224 117 224 292s-90 289 -224 289s-224 -114 -224 -289z" />
    <glyph glyph-name="uni2120" unicode="&#x2120;" 
d="M125 354c-44 0 -80 18 -110 48l33 37c25 -23 48 -38 81 -38c31 0 49 15 49 39c0 26 -12 31 -42 46l-46 24c-29 15 -59 38 -59 85c0 52 41 88 104 88c37 0 72 -17 95 -38l-30 -39c-20 16 -44 30 -67 30c-31 0 -47 -18 -47 -38s15 -31 41 -43l46 -23c39 -18 61 -41 61 -87
c0 -47 -41 -91 -109 -91zM292 366v310h71l45 -114l27 -80h4l26 80l44 114h71v-310h-55v137l7 105h-4l-71 -187h-42l-72 187h-4l7 -105v-137h-54z" />
    <glyph glyph-name="trademark" unicode="&#x2122;" 
d="M292 366v310h71l45 -114l27 -80h4l26 80l44 114h71v-310h-55v137l7 105h-4l-71 -187h-42l-72 187h-4l7 -105v-137h-54zM91 366v256h-96v54h252v-54h-96v-256h-60z" />
    <glyph glyph-name="uni2126" unicode="&#x2126;" 
d="M29 0v68h123v4c-54 56 -110 147 -110 279c0 184 100 317 258 317s258 -133 258 -317c0 -132 -56 -223 -110 -279v-4h123v-68h-210v61c64 59 111 147 111 285c0 142 -62 249 -172 249s-172 -107 -172 -249c0 -138 47 -226 111 -285v-61h-210z" />
    <glyph glyph-name="estimated" unicode="&#x212e;" 
d="M164 68c34 -38 84 -60 138 -60c70 0 136 44 182 112h38c-54 -80 -132 -132 -222 -132c-151 0 -274 150 -274 336s123 336 274 336s274 -150 274 -336v-8h-414c-2 0 -4 -2 -4 -4v-224c0 -8 4 -14 8 -20zM160 334h280c4 0 6 2 6 6v224c0 8 -4 16 -10 22
c-34 34 -84 54 -134 54c-54 0 -104 -22 -138 -58c-4 -6 -8 -15 -8 -22v-220c0 -4 2 -6 4 -6z" />
    <glyph glyph-name="onethird" unicode="&#x2153;" 
d="M156 333v230h-82v42c44 7 67 16 94 33h51v-305h-63zM77 32l-49 45l183 188l33 -30zM523 624l49 -45l-183 -188l-33 30zM307 42l32 39c20 -24 55 -43 91 -43c35 0 62 14 62 47c0 34 -32 51 -96 51v38c55 0 81 20 81 51c0 26 -17 43 -55 43c-24 0 -54 -14 -74 -34l-29 38
c25 27 69 45 115 45c61 0 106 -31 106 -84c0 -38 -17 -61 -56 -75c43 -10 71 -36 71 -77c0 -59 -53 -93 -121 -93c-46 0 -94 20 -127 54z" />
    <glyph glyph-name="twothirds" unicode="&#x2154;" 
d="M49 333v35c104 80 161 126 161 171c0 36 -22 58 -61 58c-27 0 -52 -16 -71 -42l-39 34c30 35 70 61 118 61c72 0 116 -38 116 -103c0 -55 -55 -102 -121 -161h136v-53h-239zM77 32l-49 45l183 188l33 -30zM523 624l49 -45l-183 -188l-33 30zM307 42l32 39
c20 -24 55 -43 91 -43c35 0 62 14 62 47c0 34 -32 51 -96 51v38c55 0 81 20 81 51c0 26 -17 43 -55 43c-24 0 -54 -14 -74 -34l-29 38c25 27 69 45 115 45c61 0 106 -31 106 -84c0 -38 -17 -61 -56 -75c43 -10 71 -36 71 -77c0 -59 -53 -93 -121 -93c-46 0 -94 20 -127 54z
" />
    <glyph glyph-name="oneeighth" unicode="&#x215b;" 
d="M156 333v230h-82v42c44 7 67 16 94 33h51v-305h-63zM77 32l-49 45l183 188l33 -30zM523 624l49 -45l-183 -188l-33 30zM368 80c0 -27 30 -47 67 -47c34 0 67 19 67 45c0 37 -42 48 -87 61c-31 -14 -47 -36 -47 -59zM455 177c26 16 36 33 36 53c0 24 -20 42 -57 42
c-33 0 -54 -17 -54 -40c0 -29 34 -43 75 -55zM309 76c0 42 32 65 66 81v4c-30 18 -54 36 -54 72c0 49 52 84 114 84c66 0 115 -35 115 -84c0 -37 -28 -58 -53 -72v-4c35 -15 63 -37 63 -81c0 -49 -54 -88 -125 -88c-75 0 -126 41 -126 88z" />
    <glyph glyph-name="threeeighths" unicode="&#x215c;" 
d="M38 375l32 39c20 -24 55 -44 91 -44c35 0 62 15 62 47c0 35 -31 52 -96 52v38c55 0 81 20 81 50c0 26 -17 43 -55 43c-24 0 -53 -13 -73 -33l-30 38c25 27 69 45 115 45c62 0 106 -32 106 -84c0 -38 -17 -61 -56 -75c43 -10 71 -36 71 -77c0 -59 -53 -93 -121 -93
c-46 0 -94 20 -127 54zM77 32l-49 45l183 188l33 -30zM523 624l49 -45l-183 -188l-33 30zM368 80c0 -27 30 -47 67 -47c34 0 67 19 67 45c0 37 -42 48 -87 61c-31 -14 -47 -36 -47 -59zM455 177c26 16 36 33 36 53c0 24 -20 42 -57 42c-33 0 -54 -17 -54 -40
c0 -29 34 -43 75 -55zM309 76c0 42 32 65 66 81v4c-30 18 -54 36 -54 72c0 49 52 84 114 84c66 0 115 -35 115 -84c0 -37 -28 -58 -53 -72v-4c35 -15 63 -37 63 -81c0 -49 -54 -88 -125 -88c-75 0 -126 41 -126 88z" />
    <glyph glyph-name="fiveeighths" unicode="&#x215d;" 
d="M38 375l32 39c23 -24 51 -44 92 -44c38 0 66 22 66 58c0 37 -27 58 -67 58c-26 0 -44 -9 -64 -24l-31 21l17 155h189v-55h-139l-10 -70c16 9 36 13 56 13c66 0 112 -36 112 -100c0 -63 -53 -105 -124 -105c-55 0 -93 20 -129 54zM77 32l-49 45l183 188l33 -30zM523 624
l49 -45l-183 -188l-33 30zM368 80c0 -27 30 -47 67 -47c34 0 67 19 67 45c0 37 -42 48 -87 61c-31 -14 -47 -36 -47 -59zM455 177c26 16 36 33 36 53c0 24 -20 42 -57 42c-33 0 -54 -17 -54 -40c0 -29 34 -43 75 -55zM309 76c0 42 32 65 66 81v4c-30 18 -54 36 -54 72
c0 49 52 84 114 84c66 0 115 -35 115 -84c0 -37 -28 -58 -53 -72v-4c35 -15 63 -37 63 -81c0 -49 -54 -88 -125 -88c-75 0 -126 41 -126 88z" />
    <glyph glyph-name="seveneighths" unicode="&#x215e;" 
d="M118 333c7 103 35 169 100 252h-170v53h243v-36c-84 -94 -102 -164 -107 -269h-66zM77 32l-49 45l183 188l33 -30zM523 624l49 -45l-183 -188l-33 30zM368 80c0 -27 30 -47 67 -47c34 0 67 19 67 45c0 37 -42 48 -87 61c-31 -14 -47 -36 -47 -59zM455 177
c26 16 36 33 36 53c0 24 -20 42 -57 42c-33 0 -54 -17 -54 -40c0 -29 34 -43 75 -55zM309 76c0 42 32 65 66 81v4c-30 18 -54 36 -54 72c0 49 52 84 114 84c66 0 115 -35 115 -84c0 -37 -28 -58 -53 -72v-4c35 -15 63 -37 63 -81c0 -49 -54 -88 -125 -88
c-75 0 -126 41 -126 88z" />
    <glyph glyph-name="uni2190" unicode="&#x2190;" 
d="M17 250v4l272 265l43 -46l-201 -187h438v-68h-438l201 -187l-43 -46z" />
    <glyph glyph-name="arrowup" unicode="&#x2191;" 
d="M298 527h4l265 -272l-46 -42l-187 201v-439h-68v439l-187 -201l-46 42z" />
    <glyph glyph-name="uni2192" unicode="&#x2192;" 
d="M582 254v-4l-273 -265l-42 46l201 187h-439v68h439l-201 187l42 46z" />
    <glyph glyph-name="arrowdown" unicode="&#x2193;" 
d="M302 -25h-4l-265 273l46 42l187 -201v438h68v-438l187 201l46 -42z" />
    <glyph glyph-name="partialdiff" unicode="&#x2202;" 
d="M266 56c86 0 149 76 170 208c-44 56 -92 76 -136 76c-98 0 -146 -67 -146 -155c0 -79 52 -129 112 -129zM191 553l-38 52c42 42 96 67 158 67c129 0 212 -101 212 -307c0 -225 -107 -377 -265 -377c-96 0 -182 73 -182 192c0 132 82 226 217 226c54 0 110 -27 149 -72
c1 11 1 22 1 33c0 167 -54 237 -140 237c-42 0 -80 -19 -112 -51z" />
    <glyph glyph-name="uni2206" unicode="&#x2206;" 
d="M36 0v50l217 606h95l217 -606v-50h-529zM127 71h346l-103 300l-68 210h-4l-69 -210z" />
    <glyph glyph-name="product" unicode="&#x220f;" 
d="M52 -120v758h496v-758h-85v685h-328v-685h-83z" />
    <glyph glyph-name="summation" unicode="&#x2211;" 
d="M70 -67l238 326l-227 326v53h440v-71h-337v-4l212 -303l-222 -305v-4h375v-71h-479v53z" />
    <glyph glyph-name="minus" unicode="&#x2212;" 
d="M85 299v62h430v-62h-430z" />
    <glyph glyph-name="uni2215" unicode="&#x2215;" 
d="M77 32l-49 45l183 188l33 -30zM523 624l49 -45l-183 -188l-33 30z" />
    <glyph glyph-name="uni2219" unicode="&#x2219;" 
d="M216 347c0 50 35 85 80 85s81 -35 81 -85s-36 -84 -81 -84s-80 34 -80 84z" />
    <glyph glyph-name="radical" unicode="&#x221a;" 
d="M196 405l116 -346c6 -21 12 -43 17 -64h4c4 21 7 43 12 64l178 761h60l-218 -915h-62l-150 428l-71 -32l-20 45z" />
    <glyph glyph-name="infinity" unicode="&#x221e;" 
d="M130 170c-73 0 -134 68 -134 154c0 104 64 167 146 167c66 0 110 -46 140 -101h4c41 70 92 117 164 117c89 0 154 -71 154 -171c0 -112 -65 -186 -155 -186c-73 0 -121 37 -172 119h-4c-29 -48 -74 -99 -143 -99zM313 340c44 -82 82 -111 133 -111c59 0 93 47 93 104
c0 64 -37 111 -100 111c-47 0 -86 -31 -126 -104zM142 233c43 0 78 31 104 88c-33 65 -67 92 -106 92c-48 0 -79 -32 -79 -86s36 -94 81 -94z" />
    <glyph glyph-name="integral" unicode="&#x222b;" 
d="M195 -89c9 -3 21 -4 35 -4c56 0 67 56 67 160c0 146 -42 346 -42 494c0 129 24 228 139 228c20 0 39 -3 47 -6l-10 -62c-9 2 -21 4 -35 4c-55 0 -65 -59 -65 -162c0 -145 41 -344 41 -492c0 -131 -24 -229 -139 -229c-20 0 -38 3 -47 7z" />
    <glyph glyph-name="approxequal" unicode="&#x2248;" 
d="M129 362l-53 23c35 94 85 126 136 126c79 0 121 -85 178 -85c31 0 58 16 81 86l53 -24c-35 -93 -85 -124 -136 -124c-79 0 -121 85 -178 85c-31 0 -58 -18 -81 -87zM129 148l-53 22c35 95 85 126 136 126c79 0 121 -85 178 -85c31 0 58 16 81 87l53 -24
c-35 -93 -85 -125 -136 -125c-79 0 -121 85 -178 85c-31 0 -58 -17 -81 -86z" />
    <glyph glyph-name="notequal" unicode="&#x2260;" 
d="M112 65l76 127h-103v62h139l91 152h-230v62h266l76 127h61l-76 -127h103v-62h-139l-91 -152h230v-62h-266l-76 -127h-61z" />
    <glyph glyph-name="lessequal" unicode="&#x2264;" 
d="M85 0v62h430v-62h-430zM85 306v74l430 153v-71l-210 -73l-135 -44v-4l135 -44l210 -73v-71z" />
    <glyph glyph-name="greaterequal" unicode="&#x2265;" 
d="M85 0v62h430v-62h-430zM515 380v-74l-430 -153v71l210 73l135 44v4l-135 44l-210 73v71z" />
    <glyph glyph-name="uni2500" unicode="&#x2500;" 
d="M-39 261v78h678v-78h-678z" />
    <glyph glyph-name="uni2501" unicode="&#x2501;" 
d="M-39 222v156h678v-156h-678z" />
    <glyph glyph-name="uni2502" unicode="&#x2502;" 
d="M261 -400v1400h78v-1400h-78z" />
    <glyph glyph-name="uni2503" unicode="&#x2503;" 
d="M222 -400v1400h156v-1400h-156z" />
    <glyph glyph-name="uni2504" unicode="&#x2504;" 
d="M33 261v78h134v-78h-134zM233 261v78h134v-78h-134zM433 261v78h134v-78h-134z" />
    <glyph glyph-name="uni2505" unicode="&#x2505;" 
d="M33 222v156h134v-156h-134zM233 222v156h134v-156h-134zM433 222v156h134v-156h-134z" />
    <glyph glyph-name="uni2506" unicode="&#x2506;" 
d="M261 -145v222h78v-222h-78zM261 188v222h78v-222h-78zM261 521v222h78v-222h-78z" />
    <glyph glyph-name="uni2507" unicode="&#x2507;" 
d="M222 -145v222h156v-222h-156zM222 188v222h156v-222h-156zM222 521v222h156v-222h-156z" />
    <glyph glyph-name="uni2508" unicode="&#x2508;" 
d="M18 261v78h113v-78h-113zM168 261v78h113v-78h-113zM318 261v78h113v-78h-113zM468 261v78h113v-78h-113z" />
    <glyph glyph-name="uni2509" unicode="&#x2509;" 
d="M18 222v156h113v-156h-113zM168 222v156h113v-156h-113zM318 222v156h113v-156h-113zM468 222v156h113v-156h-113z" />
    <glyph glyph-name="uni250A" unicode="&#x250a;" 
d="M261 -169v188h78v-188h-78zM261 81v188h78v-188h-78zM261 331v188h78v-188h-78zM261 581v188h78v-188h-78z" />
    <glyph glyph-name="uni250B" unicode="&#x250b;" 
d="M222 -169v188h156v-188h-156zM222 81v188h156v-188h-156zM222 331v188h156v-188h-156zM222 581v188h156v-188h-156z" />
    <glyph glyph-name="uni250C" unicode="&#x250c;" 
d="M261 -400v739h378v-78h-300v-661h-78z" />
    <glyph glyph-name="uni250D" unicode="&#x250d;" 
d="M261 -400v778h378v-156h-300v-622h-78z" />
    <glyph glyph-name="uni250E" unicode="&#x250e;" 
d="M222 -400v739h417v-78h-261v-661h-156z" />
    <glyph glyph-name="uni250F" unicode="&#x250f;" 
d="M222 -400v778h417v-156h-261v-622h-156z" />
    <glyph glyph-name="uni2510" unicode="&#x2510;" 
d="M-39 261v78h378v-739h-78v661h-300z" />
    <glyph glyph-name="uni2511" unicode="&#x2511;" 
d="M-39 222v156h378v-778h-78v622h-300z" />
    <glyph glyph-name="uni2512" unicode="&#x2512;" 
d="M-39 261v78h417v-739h-156v661h-261z" />
    <glyph glyph-name="uni2513" unicode="&#x2513;" 
d="M-39 222v156h417v-778h-156v622h-261z" />
    <glyph glyph-name="uni2514" unicode="&#x2514;" 
d="M261 261v739h78v-661h300v-78h-378z" />
    <glyph glyph-name="uni2515" unicode="&#x2515;" 
d="M261 222v778h78v-622h300v-156h-378z" />
    <glyph glyph-name="uni2516" unicode="&#x2516;" 
d="M222 261v739h156v-661h261v-78h-417z" />
    <glyph glyph-name="uni2517" unicode="&#x2517;" 
d="M222 222v778h156v-622h261v-156h-417z" />
    <glyph glyph-name="uni2518" unicode="&#x2518;" 
d="M-39 261v78h300v661h78v-739h-378z" />
    <glyph glyph-name="uni2519" unicode="&#x2519;" 
d="M-39 222v156h300v622h78v-778h-378z" />
    <glyph glyph-name="uni251A" unicode="&#x251a;" 
d="M-39 261v78h261v661h156v-739h-417z" />
    <glyph glyph-name="uni251B" unicode="&#x251b;" 
d="M-39 222v156h261v622h156v-778h-417z" />
    <glyph glyph-name="uni251C" unicode="&#x251c;" 
d="M261 -400v1400h78v-661h300v-78h-300v-661h-78z" />
    <glyph glyph-name="uni251D" unicode="&#x251d;" 
d="M261 -400v1400h78v-622h300v-156h-300v-622h-78z" />
    <glyph glyph-name="uni251E" unicode="&#x251e;" 
d="M222 261v739h156v-661h261v-78h-300v-661h-78v661h-39z" />
    <glyph glyph-name="uni251F" unicode="&#x251f;" 
d="M222 -400v739h39v661h78v-661h300v-78h-261v-661h-156z" />
    <glyph glyph-name="uni2520" unicode="&#x2520;" 
d="M222 -400v1400h156v-661h261v-78h-261v-661h-156z" />
    <glyph glyph-name="uni2521" unicode="&#x2521;" 
d="M222 222v778h156v-622h261v-156h-300v-622h-78v622h-39z" />
    <glyph glyph-name="uni2522" unicode="&#x2522;" 
d="M222 -400v778h39v622h78v-622h300v-156h-261v-622h-156z" />
    <glyph glyph-name="uni2523" unicode="&#x2523;" 
d="M222 -400v1400h156v-622h261v-156h-261v-622h-156z" />
    <glyph glyph-name="uni2524" unicode="&#x2524;" 
d="M-39 261v78h300v661h78v-1400h-78v661h-300z" />
    <glyph glyph-name="uni2525" unicode="&#x2525;" 
d="M-39 222v156h300v622h78v-1400h-78v622h-300z" />
    <glyph glyph-name="uni2526" unicode="&#x2526;" 
d="M-39 261v78h261v661h156v-739h-39v-661h-78v661h-300z" />
    <glyph glyph-name="uni2527" unicode="&#x2527;" 
d="M-39 261v78h300v661h78v-661h39v-739h-156v661h-261z" />
    <glyph glyph-name="uni2528" unicode="&#x2528;" 
d="M-39 261v78h261v661h156v-1400h-156v661h-261z" />
    <glyph glyph-name="uni2529" unicode="&#x2529;" 
d="M-39 222v156h261v622h156v-778h-39v-622h-78v622h-300z" />
    <glyph glyph-name="uni252A" unicode="&#x252a;" 
d="M-39 222v156h300v622h78v-622h39v-778h-156v622h-261z" />
    <glyph glyph-name="uni252B" unicode="&#x252b;" 
d="M-39 222v156h261v622h156v-1400h-156v622h-261z" />
    <glyph glyph-name="uni252C" unicode="&#x252c;" 
d="M-39 261v78h678v-78h-300v-661h-78v661h-300z" />
    <glyph glyph-name="uni252D" unicode="&#x252d;" 
d="M-39 222v156h378v-39h300v-78h-300v-661h-78v622h-300z" />
    <glyph glyph-name="uni252E" unicode="&#x252e;" 
d="M-39 261v78h300v39h378v-156h-300v-622h-78v661h-300z" />
    <glyph glyph-name="uni252F" unicode="&#x252f;" 
d="M-39 222v156h678v-156h-300v-622h-78v622h-300z" />
    <glyph glyph-name="uni2530" unicode="&#x2530;" 
d="M-39 261v78h678v-78h-261v-661h-156v661h-261z" />
    <glyph glyph-name="uni2531" unicode="&#x2531;" 
d="M-39 222v156h417v-39h261v-78h-261v-661h-156v622h-261z" />
    <glyph glyph-name="uni2532" unicode="&#x2532;" 
d="M-39 261v78h261v39h417v-156h-261v-622h-156v661h-261z" />
    <glyph glyph-name="uni2533" unicode="&#x2533;" 
d="M-39 222v156h678v-156h-261v-622h-156v622h-261z" />
    <glyph glyph-name="uni2534" unicode="&#x2534;" 
d="M-39 261v78h300v661h78v-661h300v-78h-678z" />
    <glyph glyph-name="uni2535" unicode="&#x2535;" 
d="M-39 222v156h300v622h78v-661h300v-78h-300v-39h-378z" />
    <glyph glyph-name="uni2536" unicode="&#x2536;" 
d="M-39 261v78h300v661h78v-622h300v-156h-378v39h-300z" />
    <glyph glyph-name="uni2537" unicode="&#x2537;" 
d="M-39 222v156h300v622h78v-622h300v-156h-678z" />
    <glyph glyph-name="uni2538" unicode="&#x2538;" 
d="M-39 261v78h261v661h156v-661h261v-78h-678z" />
    <glyph glyph-name="uni2539" unicode="&#x2539;" 
d="M-39 222v156h261v622h156v-661h261v-78h-261v-39h-417z" />
    <glyph glyph-name="uni253A" unicode="&#x253a;" 
d="M-39 261v78h261v661h156v-622h261v-156h-417v39h-261z" />
    <glyph glyph-name="uni253B" unicode="&#x253b;" 
d="M-39 222v156h261v622h156v-622h261v-156h-678z" />
    <glyph glyph-name="uni253C" unicode="&#x253c;" 
d="M-39 261v78h300v661h78v-661h300v-78h-300v-661h-78v661h-300z" />
    <glyph glyph-name="uni253D" unicode="&#x253d;" 
d="M-39 222v156h300v622h78v-661h300v-78h-300v-661h-78v622h-300z" />
    <glyph glyph-name="uni253E" unicode="&#x253e;" 
d="M-39 261v78h300v661h78v-622h300v-156h-300v-622h-78v661h-300z" />
    <glyph glyph-name="uni253F" unicode="&#x253f;" 
d="M-39 222v156h300v622h78v-622h300v-156h-300v-622h-78v622h-300z" />
    <glyph glyph-name="uni2540" unicode="&#x2540;" 
d="M-39 261v78h261v661h156v-661h261v-78h-300v-661h-78v661h-300z" />
    <glyph glyph-name="uni2541" unicode="&#x2541;" 
d="M-39 261v78h300v661h78v-661h300v-78h-261v-661h-156v661h-261z" />
    <glyph glyph-name="uni2542" unicode="&#x2542;" 
d="M-39 261v78h261v661h156v-661h261v-78h-261v-661h-156v661h-261z" />
    <glyph glyph-name="uni2543" unicode="&#x2543;" 
d="M-39 222v156h261v622h156v-661h261v-78h-261v-39h-39v-622h-78v622h-300z" />
    <glyph glyph-name="uni2544" unicode="&#x2544;" 
d="M-39 261v78h261v661h156v-622h261v-156h-300v-622h-78v622h-39v39h-261z" />
    <glyph glyph-name="uni2545" unicode="&#x2545;" 
d="M-39 222v156h300v622h78v-622h39v-39h261v-78h-261v-661h-156v622h-261z" />
    <glyph glyph-name="uni2546" unicode="&#x2546;" 
d="M-39 261v78h261v39h39v622h78v-622h300v-156h-261v-622h-156v661h-261z" />
    <glyph glyph-name="uni2547" unicode="&#x2547;" 
d="M-39 222v156h261v622h156v-622h261v-156h-300v-622h-78v622h-300z" />
    <glyph glyph-name="uni2548" unicode="&#x2548;" 
d="M-39 222v156h300v622h78v-622h300v-156h-261v-622h-156v622h-261z" />
    <glyph glyph-name="uni2549" unicode="&#x2549;" 
d="M-39 222v156h261v622h156v-661h261v-78h-261v-661h-156v622h-261z" />
    <glyph glyph-name="uni254A" unicode="&#x254a;" 
d="M-39 261v78h261v661h156v-622h261v-156h-261v-622h-156v661h-261z" />
    <glyph glyph-name="uni254B" unicode="&#x254b;" 
d="M-39 222v156h261v622h156v-622h261v-156h-261v-622h-156v622h-261z" />
    <glyph glyph-name="uni254C" unicode="&#x254c;" 
d="M75 261v78h150v-78h-150zM375 261v78h150v-78h-150z" />
    <glyph glyph-name="uni254D" unicode="&#x254d;" 
d="M75 222v156h150v-156h-150zM375 222v156h150v-156h-150z" />
    <glyph glyph-name="uni254E" unicode="&#x254e;" 
d="M261 -75v250h78v-250h-78zM261 425v250h78v-250h-78z" />
    <glyph glyph-name="uni254F" unicode="&#x254f;" 
d="M222 -75v250h156v-250h-156zM222 425v250h156v-250h-156z" />
    <glyph glyph-name="uni2550" unicode="&#x2550;" 
d="M-39 339v78h678v-78h-678zM-39 183v78h678v-78h-678z" />
    <glyph glyph-name="uni2551" unicode="&#x2551;" 
d="M183 -400v1400h78v-1400h-78zM339 -400v1400h78v-1400h-78z" />
    <glyph glyph-name="uni2552" unicode="&#x2552;" 
d="M261 -400v817h378v-78h-300v-78h300v-78h-300v-583h-78z" />
    <glyph glyph-name="uni2553" unicode="&#x2553;" 
d="M183 -400v739h78h378v-78h-222v-661h-78v661h-78v-661h-78z" />
    <glyph glyph-name="uni2554" unicode="&#x2554;" 
d="M183 -400v817h456v-78h-378v-739h-78zM339 -400v661h300v-78h-222v-583h-78z" />
    <glyph glyph-name="uni2555" unicode="&#x2555;" 
d="M-39 339v78h378v-817h-78v583h-300v78h300v78h-300z" />
    <glyph glyph-name="uni2556" unicode="&#x2556;" 
d="M339 -400v661h-78v-661h-78v661h-222v78h456v-739h-78z" />
    <glyph glyph-name="uni2557" unicode="&#x2557;" 
d="M-39 339v78h456v-817h-78v739h-378zM-39 183v78h300v-661h-78v583h-222z" />
    <glyph glyph-name="uni2558" unicode="&#x2558;" 
d="M261 183v817h78v-583h300v-78h-300v-78h300v-78h-378z" />
    <glyph glyph-name="uni2559" unicode="&#x2559;" 
d="M183 261v739h78v-661h78v661h78v-661h222v-78h-456z" />
    <glyph glyph-name="uni255A" unicode="&#x255a;" 
d="M183 183v817h78v-739h378v-78h-456zM339 339v661h78v-583h222v-78h-300z" />
    <glyph glyph-name="uni255B" unicode="&#x255b;" 
d="M-39 339v78h300v583h78v-817h-378v78h300v78h-300z" />
    <glyph glyph-name="uni255C" unicode="&#x255c;" 
d="M-39 261v78h222v661h78v-661h78v661h78v-739h-456z" />
    <glyph glyph-name="uni255D" unicode="&#x255d;" 
d="M-39 183v78h378v739h78v-817h-456zM-39 339v78h222v583h78v-661h-300z" />
    <glyph glyph-name="uni255E" unicode="&#x255e;" 
d="M261 -400v1400h78v-583h300v-78h-300v-78h300v-78h-300v-583h-78z" />
    <glyph glyph-name="uni255F" unicode="&#x255f;" 
d="M339 -400v1400h78v-661h222v-78h-222v-661h-78zM183 -400v1400h78v-1400h-78z" />
    <glyph glyph-name="uni2560" unicode="&#x2560;" 
d="M183 -400v1400h78v-1400h-78zM339 339v661h78v-583h222v-78h-300zM339 -400v661h300v-78h-222v-583h-78z" />
    <glyph glyph-name="uni2561" unicode="&#x2561;" 
d="M-39 339v78h300v583h78v-1400h-78v583h-300v78h300v78h-300z" />
    <glyph glyph-name="uni2562" unicode="&#x2562;" 
d="M-39 261v78h222v661h78v-1400h-78v661h-222zM339 -400v1400h78v-1400h-78z" />
    <glyph glyph-name="uni2563" unicode="&#x2563;" 
d="M339 -400v1400h78v-1400h-78zM-39 183v78h300v-661h-78v583h-222zM-39 339v78h222v583h78v-661h-300z" />
    <glyph glyph-name="uni2564" unicode="&#x2564;" 
d="M-39 183v78h678v-78h-300v-583h-78v583h-300zM-39 339v78h678v-78h-678z" />
    <glyph glyph-name="uni2565" unicode="&#x2565;" 
d="M-39 261v78h678v-78h-222v-661h-78v661h-78v-661h-78v661h-222z" />
    <glyph glyph-name="uni2566" unicode="&#x2566;" 
d="M-39 183v78h300v-661h-78v583h-222zM339 -400v661h300v-78h-222v-583h-78zM-39 339v78h678v-78h-678z" />
    <glyph glyph-name="uni2567" unicode="&#x2567;" 
d="M-39 339v78h300v583h78v-583h300v-78h-678zM-39 183v78h678v-78h-678z" />
    <glyph glyph-name="uni2568" unicode="&#x2568;" 
d="M-39 261v78h222v661h78v-661h78v661h78v-661h222v-78h-678z" />
    <glyph glyph-name="uni2569" unicode="&#x2569;" 
d="M-39 339v78h222v583h78v-661h-300zM339 339v661h78v-583h222v-78h-300zM-39 183v78h678v-78h-678z" />
    <glyph glyph-name="uni256A" unicode="&#x256a;" 
d="M-39 339v78h300v583h78v-583h300v-78h-300v-78h300v-78h-300v-583h-78v583h-300v78h300v78h-300z" />
    <glyph glyph-name="uni256B" unicode="&#x256b;" 
d="M-39 261v78h222v661h78v-661h78v661h78v-661h222v-78h-222v-661h-78v661h-78v-661h-78v661h-222z" />
    <glyph glyph-name="uni256C" unicode="&#x256c;" 
d="M-39 339v78h222v583h78v-661h-300zM-39 183v78h300v-661h-78v583h-222zM339 339v661h78v-583h222v-78h-300zM339 -400v661h300v-78h-222v-583h-78z" />
    <glyph glyph-name="uni256D" unicode="&#x256d;" 
d="M261 -400v400c0 187 152 339 339 339h39v-78h-39c-144 0 -261 -117 -261 -261v-400h-78z" />
    <glyph glyph-name="uni256E" unicode="&#x256e;" 
d="M339 0v-400h-78v400c0 144 -117 261 -261 261h-39v78h39c187 0 339 -152 339 -339z" />
    <glyph glyph-name="uni256F" unicode="&#x256f;" 
d="M339 1000v-400c0 -187 -152 -339 -339 -339h-39v78h39c144 0 261 117 261 261v400h78z" />
    <glyph glyph-name="uni2570" unicode="&#x2570;" 
d="M261 600v400h78v-400c0 -144 117 -261 261 -261h39v-78h-39c-187 0 -339 152 -339 339z" />
    <glyph glyph-name="uni2571" unicode="&#x2571;" 
d="M-39 -161l600 1000h78v-78l-600 -1000h-78v78z" />
    <glyph glyph-name="uni2572" unicode="&#x2572;" 
d="M39 839l600 -1000v-78h-78l-600 1000v78h78z" />
    <glyph glyph-name="uni2573" unicode="&#x2573;" 
d="M39 839l261 -435l261 435h78v-78l-277 -461l277 -461v-78h-78l-261 435l-261 -435h-78v78l277 461l-277 461v78h78z" />
    <glyph glyph-name="uni2574" unicode="&#x2574;" 
d="M-39 261v78h378v-78h-378z" />
    <glyph glyph-name="uni2575" unicode="&#x2575;" 
d="M261 261v739h78v-739h-78z" />
    <glyph glyph-name="uni2576" unicode="&#x2576;" 
d="M261 261v78h378v-78h-378z" />
    <glyph glyph-name="uni2577" unicode="&#x2577;" 
d="M261 -400v739h78v-739h-78z" />
    <glyph glyph-name="uni2578" unicode="&#x2578;" 
d="M-39 222v156h378v-156h-378z" />
    <glyph glyph-name="uni2579" unicode="&#x2579;" 
d="M222 261v739h156v-739h-156z" />
    <glyph glyph-name="uni257A" unicode="&#x257a;" 
d="M261 222v156h378v-156h-378z" />
    <glyph glyph-name="uni257B" unicode="&#x257b;" 
d="M222 -400v739h156v-739h-156z" />
    <glyph glyph-name="uni257C" unicode="&#x257c;" 
d="M-39 261v78h300v39h378v-156h-378v39h-300z" />
    <glyph glyph-name="uni257D" unicode="&#x257d;" 
d="M222 -400v739h39v661h78v-661h39v-739h-156z" />
    <glyph glyph-name="uni257E" unicode="&#x257e;" 
d="M-39 222v156h378v-39h300v-78h-300v-39h-378z" />
    <glyph glyph-name="uni257F" unicode="&#x257f;" 
d="M222 261v739h156v-739h-39v-661h-78v661h-39z" />
    <glyph glyph-name="uni2580" unicode="&#x2580;" 
d="M0 300v500h600v-500h-600z" />
    <glyph glyph-name="uni2581" unicode="&#x2581;" 
d="M0 -200v125h600v-125h-600z" />
    <glyph glyph-name="uni2582" unicode="&#x2582;" 
d="M0 -200v250h600v-250h-600z" />
    <glyph glyph-name="uni2583" unicode="&#x2583;" 
d="M0 -200v375h600v-375h-600z" />
    <glyph glyph-name="uni2584" unicode="&#x2584;" 
d="M0 -200v500h600v-500h-600z" />
    <glyph glyph-name="uni2585" unicode="&#x2585;" 
d="M0 -200v625h600v-625h-600z" />
    <glyph glyph-name="uni2586" unicode="&#x2586;" 
d="M0 -200v750h600v-750h-600z" />
    <glyph glyph-name="uni2587" unicode="&#x2587;" 
d="M0 -200v875h600v-875h-600z" />
    <glyph glyph-name="uni2588" unicode="&#x2588;" 
d="M0 -200v1000h600v-1000h-600z" />
    <glyph glyph-name="uni2589" unicode="&#x2589;" 
d="M0 -200v1000h525v-1000h-525z" />
    <glyph glyph-name="uni258A" unicode="&#x258a;" 
d="M0 -200v1000h450v-1000h-450z" />
    <glyph glyph-name="uni258B" unicode="&#x258b;" 
d="M0 -200v1000h375v-1000h-375z" />
    <glyph glyph-name="uni258C" unicode="&#x258c;" 
d="M0 -200v1000h300v-1000h-300z" />
    <glyph glyph-name="uni258D" unicode="&#x258d;" 
d="M0 -200v1000h225v-1000h-225z" />
    <glyph glyph-name="uni258E" unicode="&#x258e;" 
d="M0 -200v1000h150v-1000h-150z" />
    <glyph glyph-name="uni258F" unicode="&#x258f;" 
d="M0 -200v1000h75v-1000h-75z" />
    <glyph glyph-name="uni2590" unicode="&#x2590;" 
d="M300 -200v1000h300v-1000h-300z" />
    <glyph glyph-name="uni2591" unicode="&#x2591;" 
d="M0 -200v50l30 -50h-30zM300 -200l-300 500v50l330 -550h-30zM600 -200l-600 1000h30l570 -950v-50zM600 300l-300 500h30l270 -450v-50z" />
    <glyph glyph-name="uni2592" unicode="&#x2592;" 
d="M0 -200v50l30 -50h-30zM150 -200l-150 250v50l180 -300h-30zM300 -200l-300 500v50l330 -550h-30zM450 -200l-450 750v50l480 -800h-30zM600 -200l-600 1000h30l570 -950v-50zM600 50l-450 750h30l420 -700v-50zM600 300l-300 500h30l270 -450v-50zM600 550l-150 250h30
l120 -200v-50z" />
    <glyph glyph-name="uni2593" unicode="&#x2593;" 
d="M0 -200v50l30 -50h-30zM75 -200l-75 125v50l105 -175h-30zM150 -200l-150 250v50l180 -300h-30zM225 -200l-225 375v50l255 -425h-30zM300 -200l-300 500v50l330 -550h-30zM375 -200l-375 625v50l405 -675h-30zM450 -200l-450 750v50l480 -800h-30zM525 -200l-525 875v50
l555 -925h-30zM600 -200l-600 1000h30l570 -950v-50zM600 -75l-525 875h30l495 -825v-50zM600 50l-450 750h30l420 -700v-50zM600 175l-375 625h30l345 -575v-50zM600 300l-300 500h30l270 -450v-50zM600 425l-225 375h30l195 -325v-50zM600 550l-150 250h30l120 -200v-50z
M600 675l-75 125h30l45 -75v-50z" />
    <glyph glyph-name="uni2594" unicode="&#x2594;" 
d="M0 675v125h600v-125h-600z" />
    <glyph glyph-name="uni2595" unicode="&#x2595;" 
d="M525 -200v1000h75v-1000h-75z" />
    <glyph glyph-name="uni2596" unicode="&#x2596;" 
d="M0 -200v500h300v-500h-300z" />
    <glyph glyph-name="uni2597" unicode="&#x2597;" 
d="M300 -200v500h300v-500h-300z" />
    <glyph glyph-name="uni2598" unicode="&#x2598;" 
d="M0 300v500h300v-500h-300z" />
    <glyph glyph-name="uni2599" unicode="&#x2599;" 
d="M0 -200v1000h300v-500h300v-500h-600z" />
    <glyph glyph-name="uni259A" unicode="&#x259a;" 
d="M0 800h300v-500h-300v500zM300 300h300v-500h-300v500z" />
    <glyph glyph-name="uni259B" unicode="&#x259b;" 
d="M0 -200v1000h600v-500h-300v-500h-300z" />
    <glyph glyph-name="uni259C" unicode="&#x259c;" 
d="M0 300v500h600v-1000h-300v500h-300z" />
    <glyph glyph-name="uni259D" unicode="&#x259d;" 
d="M300 300v500h300v-500h-300z" />
    <glyph glyph-name="uni259E" unicode="&#x259e;" 
d="M0 -200v500h300v-500h-300zM300 300v500h300v-500h-300z" />
    <glyph glyph-name="uni259F" unicode="&#x259f;" 
d="M0 -200v500h300v500h300v-1000h-600z" />
    <glyph glyph-name="uni25A0" unicode="&#x25a0;" 
d="M201 162v203h198v-203h-198z" />
    <glyph glyph-name="triagup" unicode="&#x25b2;" 
d="M38 38v2l261 494h4l259 -494v-2h-524z" />
    <glyph glyph-name="uni25B3" unicode="&#x25b3;" 
d="M141 96h319l-159 313zM38 38v2l261 494h4l259 -494v-2h-524z" />
    <glyph glyph-name="uni25B6" unicode="&#x25b6;" 
d="M72 19v525h2l493 -260v-4l-493 -261h-2z" />
    <glyph glyph-name="uni25B7" unicode="&#x25b7;" 
d="M131 122l309 160l-309 159v-319zM72 19v525h2l493 -260v-4l-493 -261h-2z" />
    <glyph glyph-name="triagdn" unicode="&#x25bc;" 
d="M299 30l-261 493v2h524v-2l-259 -493h-4z" />
    <glyph glyph-name="uni25BD" unicode="&#x25bd;" 
d="M460 467h-319l160 -314zM38 523v2h524v-2l-259 -494h-4z" />
    <glyph glyph-name="uni25C0" unicode="&#x25c0;" 
d="M33 280v4l493 260h2v-525h-2z" />
    <glyph glyph-name="uni25C1" unicode="&#x25c1;" 
d="M160 282l309 -160v319zM528 544v-525h-2l-493 261v4l493 260h2z" />
    <glyph glyph-name="uni25C6" unicode="&#x25c6;" 
d="M301 123l-142 140l142 140l140 -140z" />
    <glyph glyph-name="uni25C9" unicode="&#x25c9;" 
d="M300 202c-31 0 -57 25 -57 61s26 60 57 60s57 -24 57 -60s-26 -61 -57 -61zM300 79c-99 0 -181 71 -181 184s82 184 181 184s181 -71 181 -184s-82 -184 -181 -184zM300 128c67 0 128 50 128 135c0 86 -61 136 -128 136s-128 -50 -128 -136c0 -85 61 -135 128 -135z" />
    <glyph glyph-name="lozenge" unicode="&#x25ca;" 
d="M262 -10l-164 340l164 340h76l164 -340l-164 -340h-76zM298 59h4l63 133l64 138l-64 137l-63 134h-4l-63 -134l-64 -137l64 -138z" />
    <glyph glyph-name="uni2610" unicode="&#x2610;" 
d="M17 33h533v564h-533v-564zM-25 -10v630l61 51h589v-620l-52 -61h-598z" />
    <glyph glyph-name="uni2611" unicode="&#x2611;" 
d="M550 33v532c-90 -126 -167 -280 -214 -451l-86 -10c-37 102 -83 192 -140 277l56 38c49 -77 91 -163 118 -247h4c43 146 116 296 203 425h-474v-564h533zM652 795l54 -50c-27 -26 -55 -54 -81 -84v-610l-52 -61h-598v630l61 51h508c35 46 71 87 108 124z" />
    <glyph glyph-name="uni266A" unicode="&#x266a;" 
d="M77 52c0 61 65 117 158 117c26 0 51 -6 61 -12v537h49c11 -27 21 -36 71 -72c90 -64 113 -120 113 -196c0 -52 -16 -100 -32 -131l-35 13c10 32 13 56 13 92c0 63 -44 125 -124 150v-407c0 -110 -81 -167 -173 -167c-53 0 -101 26 -101 76z" />
    <glyph glyph-name="uni2713" unicode="&#x2713;" 
d="M231 -10l-86 -10c-40 110 -88 204 -151 295l56 38c55 -83 101 -176 132 -265h4c71 237 214 482 370 636l54 -50c-158 -147 -303 -374 -379 -644z" />
    <glyph glyph-name="uni2752" unicode="&#x2752;" 
d="M204 158h158v165h-158v-165zM166 122v224l59 49h209v-215l-49 -58h-219z" />
    <glyph glyph-name="fi" unicode="&#xfb01;" 
d="M118 486v77c0 99 45 161 142 161c30 0 59 -7 81 -16l-17 -63c-19 8 -38 12 -55 12c-46 0 -69 -32 -69 -94v-77h103v-67h-103v-419h-82v419h-66v62zM414 0v486h82v-486h-82zM455 714c38 0 67 -26 67 -64s-29 -64 -67 -64s-68 26 -68 64s30 64 68 64z" />
    </font>
</defs>
</svg>
