<?xml version="1.0" standalone="no"?>
<!DOCTYPE svg PUBLIC "-//W3C//DTD SVG 1.1//EN" "http://www.w3.org/Graphics/SVG/1.1/DTD/svg11.dtd" >
<svg>
<metadata>
Created by FontForge 20120731 at Fri Aug  1 16:50:38 2014
 By Alfred Xing
Copyright 2010, 2012 Adobe Systems Incorporated. All Rights Reserved.
</metadata>
<defs>
<font id="SourceCodePro-Bold" horiz-adv-x="600" >
  <font-face 
    font-family="Source Code Pro"
    font-weight="700"
    font-stretch="normal"
    units-per-em="1000"
    panose-1="2 11 7 9 3 4 3 2 2 4"
    ascent="750"
    descent="-250"
    x-height="496"
    cap-height="652"
    bbox="-69 -400 705 1000"
    underline-thickness="50"
    underline-position="-50"
    stemh="115"
    stemv="150"
    unicode-range="U+0020-FB02"
  />
<missing-glyph 
d="M35 0v660h530v-660h-530zM134 155l94 185l-94 186v-371zM372 340l94 -185v371zM218 91h164l-39 77l-41 98h-4l-41 -98zM298 414h4l42 95l32 59h-152l31 -59z" />
    <glyph glyph-name=".notdef" 
d="M35 0v660h530v-660h-530zM134 155l94 185l-94 186v-371zM372 340l94 -185v371zM218 91h164l-39 77l-41 98h-4l-41 -98zM298 414h4l42 95l32 59h-152l31 -59z" />
    <glyph glyph-name="space" unicode=" " 
 />
    <glyph glyph-name="exclam" unicode="!" 
d="M252 255l-20 282l-5 133h146l-5 -133l-20 -282h-96zM200 90c0 59 43 100 100 100s100 -41 100 -100c0 -60 -43 -102 -100 -102s-100 42 -100 102z" />
    <glyph glyph-name="quotedbl" unicode="&#x22;" 
d="M122 303l-35 237l-5 145h170l-5 -145l-35 -237h-90zM388 303l-35 237l-5 145h170l-5 -145l-35 -237h-90z" />
    <glyph glyph-name="numbersign" unicode="#" 
d="M122 0l22 187h-74v94h85l14 110h-79v94h91l21 165h84l-20 -165h104l21 165h84l-20 -165h79v-94h-91l-13 -110h84v-94h-95l-23 -187h-85l22 187h-103l-23 -187h-85zM241 281h103l14 110h-104z" />
    <glyph glyph-name="dollar" unicode="$" 
d="M513 533l-73 -84c-47 33 -84 50 -139 50c-45 0 -69 -16 -69 -46c0 -71 291 -62 291 -244c0 -84 -59 -151 -170 -170v-149h-98v146c-65 7 -141 35 -191 79l64 100c63 -39 118 -62 181 -62c48 0 74 17 74 45c0 84 -292 69 -292 253c0 86 63 147 164 163v131h98v-130
c69 -9 119 -40 160 -82z" />
    <glyph glyph-name="percent" unicode="%" 
d="M172 312c-84 0 -148 66 -148 169s64 166 148 166c85 0 149 -63 149 -166s-64 -169 -149 -169zM172 390c25 0 48 23 48 91c0 69 -23 87 -48 87s-47 -18 -47 -87c0 -68 22 -91 47 -91zM93 28l-76 73l187 173l51 -47zM509 624l75 -73l-186 -174l-51 48zM428 -12
c-85 0 -149 66 -149 170c0 103 64 166 149 166c84 0 148 -63 148 -166c0 -104 -64 -170 -148 -170zM428 67c25 0 47 23 47 91s-22 87 -47 87s-48 -19 -48 -87s23 -91 48 -91z" />
    <glyph glyph-name="ampersand" unicode="&#x26;" 
d="M162 183c0 -49 36 -83 89 -83c22 0 43 8 64 23c-46 40 -89 85 -124 133c-18 -22 -29 -46 -29 -73zM207 494c0 -24 7 -49 19 -75c37 27 65 56 65 97c0 31 -11 51 -41 51c-25 0 -43 -28 -43 -73zM452 368h134c-20 -79 -49 -152 -91 -220c33 -21 63 -35 91 -41l-35 -119
c-45 11 -91 32 -138 63c-49 -39 -108 -63 -181 -63c-136 0 -209 86 -209 186c0 86 49 138 105 179c-27 51 -42 99 -42 140c0 93 62 171 161 171c98 0 157 -58 157 -148c0 -83 -63 -134 -124 -182c32 -41 74 -81 117 -116c24 42 43 92 55 150z" />
    <glyph glyph-name="quotesingle" unicode="'" 
d="M255 303l-35 237l-5 145h170l-5 -145l-35 -237h-90z" />
    <glyph glyph-name="parenleft" unicode="(" 
d="M392 -179c-130 115 -211 269 -211 457s81 342 211 457l82 -65c-119 -116 -170 -234 -170 -392s51 -276 170 -392z" />
    <glyph glyph-name="parenright" unicode=")" 
d="M208 -179l-82 65c119 116 170 234 170 392s-51 276 -170 392l82 65c130 -115 211 -269 211 -457s-81 -342 -211 -457z" />
    <glyph glyph-name="asterisk" unicode="*" 
d="M184 91l-64 44l97 157l-153 68l23 71l162 -43l12 178h78l12 -178l162 43l23 -71l-153 -68l97 -157l-64 -44l-116 142z" />
    <glyph glyph-name="plus" unicode="+" 
d="M246 94v184h-176v104h176v184h108v-184h176v-104h-176v-184h-108z" />
    <glyph glyph-name="comma" unicode="," 
d="M219 -217l-37 86c87 30 130 79 130 142c-4 -1 -7 -1 -11 -1c-56 0 -108 36 -108 102c0 62 50 103 112 103c82 0 124 -64 124 -172c0 -127 -72 -218 -210 -260z" />
    <glyph glyph-name="hyphen" unicode="-" 
d="M70 278v104h460v-104h-460z" />
    <glyph glyph-name="period" unicode="." 
d="M184 105c0 66 47 118 116 118s116 -52 116 -118s-47 -117 -116 -117s-116 51 -116 117z" />
    <glyph glyph-name="slash" unicode="/" 
d="M526 710l-329 -870h-123l329 870h123z" />
    <glyph glyph-name="zero" unicode="0" 
d="M300 -12c-147 0 -244 117 -244 332c0 216 97 327 244 327s244 -111 244 -327c0 -215 -97 -332 -244 -332zM300 533c-63 0 -113 -48 -113 -213s50 -218 113 -218s113 53 113 218s-50 213 -113 213zM300 246c-42 0 -75 30 -75 76s33 76 75 76s75 -30 75 -76
s-33 -76 -75 -76z" />
    <glyph glyph-name="one" unicode="1" 
d="M393 119h144v-119h-455v119h164v367h-131v91c74 13 123 31 170 58h108v-516z" />
    <glyph glyph-name="two" unicode="2" 
d="M58 0v84c182 153 304 261 304 352c0 62 -38 96 -104 96c-51 0 -92 -31 -128 -65l-79 79c66 67 129 101 227 101c133 0 224 -80 224 -202c0 -107 -110 -221 -233 -329c36 4 82 8 115 8h151v-124h-477z" />
    <glyph glyph-name="three" unicode="3" 
d="M42 78l68 93c42 -37 97 -64 155 -64c69 0 119 27 119 75c0 56 -43 91 -192 91v104c125 0 171 34 171 85c0 44 -36 70 -94 70c-50 0 -91 -21 -135 -56l-74 90c62 50 134 81 216 81c138 0 234 -63 234 -174c0 -66 -45 -112 -121 -141v-4c80 -21 142 -73 142 -155
c0 -118 -118 -185 -252 -185c-109 0 -188 36 -237 90z" />
    <glyph glyph-name="four" unicode="4" 
d="M177 264h164v107c0 40 3 99 5 139h-4c-21 -36 -47 -72 -69 -108zM558 264v-112h-80v-152h-137v152h-306v101l265 382h178v-371h80z" />
    <glyph glyph-name="five" unicode="5" 
d="M46 77l66 93c42 -35 90 -63 150 -63c72 0 123 34 123 99c0 64 -49 98 -116 98c-42 0 -64 -8 -107 -32l-65 42l17 321h389v-124h-262l-11 -119c29 11 52 15 84 15c117 0 218 -62 218 -197c0 -141 -118 -222 -249 -222c-110 0 -185 39 -237 89z" />
    <glyph glyph-name="six" unicode="6" 
d="M314 98c51 0 97 31 97 103c0 65 -38 92 -94 92c-37 0 -78 -17 -117 -62c15 -101 64 -133 114 -133zM536 571l-77 -88c-27 24 -70 45 -112 45c-78 0 -145 -51 -151 -200c45 44 105 69 153 69c111 0 196 -62 196 -196c0 -132 -106 -213 -228 -213c-130 0 -257 92 -257 315
c0 237 134 344 274 344c90 0 159 -35 202 -76z" />
    <glyph glyph-name="seven" unicode="7" 
d="M193 0c12 212 55 344 188 511h-319v124h477v-90c-161 -178 -186 -297 -198 -545h-148z" />
    <glyph glyph-name="eight" unicode="8" 
d="M188 179c0 -56 50 -89 115 -89c59 0 100 26 100 79c0 58 -62 77 -153 111c-36 -26 -62 -60 -62 -101zM343 370c32 29 48 60 48 93c0 49 -32 82 -90 82c-47 0 -84 -24 -84 -73c0 -52 52 -77 126 -102zM61 162c0 78 54 124 120 156v4c-53 37 -93 83 -93 150
c0 108 90 175 216 175c127 0 208 -69 208 -174c0 -59 -41 -107 -91 -139v-4c67 -33 119 -80 119 -166c0 -100 -86 -176 -241 -176c-147 0 -238 71 -238 174z" />
    <glyph glyph-name="nine" unicode="9" 
d="M282 342c37 0 78 17 117 63c-16 100 -65 132 -115 132s-97 -31 -97 -103c0 -65 38 -92 95 -92zM62 64l78 88c26 -24 70 -45 112 -45c77 0 145 51 151 201c-46 -44 -106 -70 -153 -70c-111 0 -197 62 -197 196c0 132 106 213 228 213c131 0 257 -92 257 -315
c0 -237 -133 -344 -273 -344c-90 0 -159 36 -203 76z" />
    <glyph glyph-name="colon" unicode=":" 
d="M184 429c0 65 47 117 116 117s116 -52 116 -117c0 -66 -47 -118 -116 -118s-116 52 -116 118zM184 105c0 66 47 118 116 118s116 -52 116 -118s-47 -117 -116 -117s-116 51 -116 117z" />
    <glyph glyph-name="semicolon" unicode=";" 
d="M300 311c-69 0 -116 52 -116 118c0 65 47 117 116 117s116 -52 116 -117c0 -66 -47 -118 -116 -118zM219 -217l-37 86c87 30 130 79 130 142c-4 -1 -7 -1 -11 -1c-56 0 -108 36 -108 102c0 62 50 103 112 103c82 0 124 -64 124 -172c0 -127 -72 -218 -210 -260z" />
    <glyph glyph-name="less" unicode="&#x3c;" 
d="M116 281v102l386 250v-133l-265 -166v-4l265 -166v-133z" />
    <glyph glyph-name="equal" unicode="=" 
d="M70 395v103h460v-103h-460zM70 162v103h460v-103h-460z" />
    <glyph glyph-name="greater" unicode="&#x3e;" 
d="M484 383v-102l-386 -250v133l265 166v4l-265 166v133z" />
    <glyph glyph-name="question" unicode="?" 
d="M218 255c-22 134 138 171 138 245c0 42 -32 63 -74 63c-41 0 -72 -19 -102 -46l-82 75c48 53 115 90 194 90c115 0 205 -53 205 -163c0 -131 -163 -148 -151 -264h-128zM186 90c0 59 43 100 100 100s100 -41 100 -100c0 -60 -43 -102 -100 -102s-100 42 -100 102z" />
    <glyph glyph-name="at" unicode="@" 
d="M550 399v-299h-78l-11 51h-4c-25 -37 -66 -63 -120 -63c-73 0 -127 62 -127 140c0 108 97 153 249 172v16c0 74 -42 140 -131 140c-94 0 -196 -87 -196 -307c0 -208 103 -307 212 -307c60 0 94 15 133 38l42 -73c-56 -33 -109 -54 -180 -54c-160 0 -308 128 -308 400
c0 271 137 391 300 391c152 0 219 -107 219 -245zM317 232c0 -30 20 -48 53 -48c29 0 52 14 74 36v92c-93 -15 -127 -36 -127 -80z" />
    <glyph glyph-name="A" unicode="A" 
d="M229 270h137l-15 60c-17 65 -35 142 -52 210h-4c-16 -69 -34 -145 -51 -210zM435 0l-39 155h-197l-40 -155h-150l203 652h176l203 -652h-156z" />
    <glyph glyph-name="B" unicode="B" 
d="M84 0v652h204c135 0 239 -37 239 -162c0 -58 -35 -121 -112 -141v-4c93 -17 142 -66 142 -153c0 -133 -109 -192 -250 -192h-223zM231 389h50c72 0 102 31 102 80s-32 69 -101 69h-51v-149zM231 114h64c80 0 118 30 118 89c0 57 -37 82 -118 82h-64v-171z" />
    <glyph glyph-name="C" unicode="C" 
d="M55 322c0 216 137 342 311 342c83 0 149 -40 193 -83l-81 -91c-31 28 -65 47 -112 47c-92 0 -160 -79 -160 -210c0 -134 68 -212 166 -212c47 0 84 23 116 58l81 -89c-54 -63 -124 -96 -206 -96c-168 0 -308 115 -308 334z" />
    <glyph glyph-name="D" unicode="D" 
d="M65 0v652h177c189 0 314 -99 314 -323s-125 -329 -306 -329h-185zM213 119h21c102 0 171 54 171 210s-69 204 -171 204h-21v-414z" />
    <glyph glyph-name="E" unicode="E" 
d="M94 0v652h430v-124h-283v-131h240v-123h-240v-150h293v-124h-440z" />
    <glyph glyph-name="F" unicode="F" 
d="M108 0v652h430v-124h-283v-151h241v-124h-241v-253h-147z" />
    <glyph glyph-name="G" unicode="G" 
d="M44 322c0 218 132 342 301 342c88 0 149 -41 191 -83l-81 -91c-28 28 -58 47 -110 47c-85 0 -149 -79 -149 -210c0 -134 52 -212 155 -212c25 0 50 7 64 20v112h-95v120h227v-300c-44 -41 -121 -79 -204 -79c-167 0 -299 115 -299 334z" />
    <glyph glyph-name="H" unicode="H" 
d="M64 0v652h147v-251h178v251h147v-652h-147v272h-178v-272h-147z" />
    <glyph glyph-name="I" unicode="I" 
d="M74 0v124h152v404h-152v124h452v-124h-152v-404h152v-124h-452z" />
    <glyph glyph-name="J" unicode="J" 
d="M59 96l85 91c38 -47 81 -72 124 -72c67 0 101 29 101 119v295h-255v123h402v-430c0 -128 -63 -234 -243 -234c-72 0 -157 28 -214 108z" />
    <glyph glyph-name="K" unicode="K" 
d="M68 0v652h149v-267h3l193 267h162l-195 -260l214 -392h-163l-138 275l-76 -100v-175h-149z" />
    <glyph glyph-name="L" unicode="L" 
d="M107 0v652h147v-528h290v-124h-437z" />
    <glyph glyph-name="M" unicode="M" 
d="M65 0v652h147l66 -231l22 -90h3l22 90l63 231h147v-652h-119v213c0 71 12 225 19 295h-3l-51 -179l-50 -155h-65l-50 155l-49 179h-4c7 -70 19 -224 19 -295v-213h-117z" />
    <glyph glyph-name="N" unicode="N" 
d="M66 0v652h150l138 -325l56 -143h4c-7 69 -21 161 -21 237v231h141v-652h-150l-138 325l-56 142h-4c7 -72 21 -159 21 -236v-231h-141z" />
    <glyph glyph-name="O" unicode="O" 
d="M300 -12c-155 0 -262 128 -262 341s107 335 262 335s262 -123 262 -335c0 -213 -107 -341 -262 -341zM300 115c68 0 111 83 111 214c0 130 -43 208 -111 208s-111 -78 -111 -208c0 -131 43 -214 111 -214z" />
    <glyph glyph-name="P" unicode="P" 
d="M74 0v652h238c141 0 255 -52 255 -210c0 -153 -117 -221 -255 -221h-91v-221h-147zM221 338h82c81 0 119 36 119 104s-41 93 -119 93h-82v-197z" />
    <glyph glyph-name="Q" unicode="Q" 
d="M297 537c-69 0 -110 -78 -110 -208c0 -131 41 -214 110 -214c68 0 110 83 110 214c0 130 -42 208 -110 208zM554 -47l26 -110c-22 -12 -55 -21 -96 -21c-127 0 -215 73 -256 175c-117 33 -192 152 -192 332c0 213 105 335 261 335c155 0 260 -123 260 -335
c0 -171 -68 -288 -175 -327c23 -47 72 -62 119 -62c20 0 39 6 53 13z" />
    <glyph glyph-name="R" unicode="R" 
d="M217 535v-183h72c78 0 119 33 119 97s-41 86 -119 86h-72zM584 0h-165l-125 235h-77v-235h-147v652h231c138 0 252 -48 252 -203c0 -96 -47 -157 -116 -188z" />
    <glyph glyph-name="S" unicode="S" 
d="M50 82l85 101c49 -40 110 -68 167 -68c68 0 98 24 98 63c0 41 -38 54 -101 78l-84 36c-73 27 -139 83 -139 178c0 108 98 194 239 194c79 0 158 -30 217 -86l-75 -93c-45 33 -86 52 -142 52c-57 0 -90 -22 -90 -59c0 -40 44 -54 107 -77l79 -34c86 -32 140 -85 140 -177
c0 -108 -91 -202 -253 -202c-88 0 -178 32 -248 94z" />
    <glyph glyph-name="T" unicode="T" 
d="M226 0v528h-195v124h538v-124h-195v-528h-148z" />
    <glyph glyph-name="U" unicode="U" 
d="M64 251v401h147v-416c0 -78 29 -121 91 -121s92 43 92 121v416h142v-401c0 -169 -76 -263 -234 -263c-159 0 -238 94 -238 263z" />
    <glyph glyph-name="V" unicode="V" 
d="M212 0l-197 652h156l78 -304c20 -71 33 -137 52 -209h4c20 72 34 138 53 209l77 304h150l-196 -652h-177z" />
    <glyph glyph-name="W" unicode="W" 
d="M91 0l-87 652h150l21 -347c1 -56 3 -111 4 -166h3c10 55 24 111 35 166l45 181h89l43 -181c10 -53 24 -110 34 -166h4c2 56 3 112 5 166l19 347h140l-81 -652h-154l-41 205c-8 41 -15 86 -18 125h-3c-4 -39 -10 -84 -18 -125l-39 -205h-151z" />
    <glyph glyph-name="X" unicode="X" 
d="M18 0l190 335l-179 317h165l63 -123c15 -30 30 -64 50 -105h4c16 41 30 75 44 105l58 123h158l-179 -324l190 -328h-164l-71 133c-18 34 -34 67 -52 107h-4c-16 -40 -32 -73 -48 -107l-68 -133h-157z" />
    <glyph glyph-name="Y" unicode="Y" 
d="M226 0v220l-210 432h158l66 -157c19 -50 39 -97 59 -149h4c21 52 41 99 61 149l66 157h154l-210 -432v-220h-148z" />
    <glyph glyph-name="Z" unicode="Z" 
d="M56 0v89l306 440h-277v123h458v-89l-305 -439h309v-124h-491z" />
    <glyph glyph-name="bracketleft" unicode="[" 
d="M201 -152v860h295v-78h-183v-704h183v-78h-295z" />
    <glyph glyph-name="backslash" unicode="\" 
d="M403 -160l-329 870h123l329 -870h-123z" />
    <glyph glyph-name="bracketright" unicode="]" 
d="M105 -74h182v704h-182v78h295v-860h-295v78z" />
    <glyph glyph-name="asciicircum" unicode="^" 
d="M86 274l155 396h118l155 -396h-121l-46 128l-45 135h-4l-45 -135l-46 -128h-121z" />
    <glyph glyph-name="underscore" unicode="_" 
d="M60 -54h480v-110h-480v110z" />
    <glyph glyph-name="grave" unicode="`" 
d="M275 574l-132 167h150l89 -167h-107z" />
    <glyph glyph-name="a" unicode="a" 
d="M61 138c0 111 92 167 327 181c-5 45 -39 72 -106 72c-48 0 -95 -18 -151 -46l-52 96c68 39 147 67 232 67c139 0 224 -72 224 -224v-284h-120l-11 56h-4c-50 -38 -112 -68 -176 -68c-100 0 -163 66 -163 150zM202 149c0 -32 27 -47 69 -47c44 0 82 20 117 47v82
c-146 -8 -186 -39 -186 -82z" />
    <glyph glyph-name="b" unicode="b" 
d="M72 0v701h147v-172l-4 -78c39 36 90 57 138 57c124 0 200 -99 200 -251c0 -171 -104 -269 -215 -269c-46 0 -94 23 -135 66h-4l-12 -54h-115zM219 141c28 -24 60 -33 86 -33c54 0 97 44 97 146c0 89 -29 134 -91 134c-32 0 -61 -14 -92 -46v-201z" />
    <glyph glyph-name="c" unicode="c" 
d="M67 248c0 165 134 260 287 260c78 0 144 -28 186 -67l-68 -91c-38 27 -73 39 -110 39c-85 0 -144 -55 -144 -141s57 -141 139 -141c52 0 96 22 131 47l60 -93c-60 -50 -137 -73 -205 -73c-156 0 -276 95 -276 260z" />
    <glyph glyph-name="d" unicode="d" 
d="M47 248c0 162 104 260 212 260c57 0 92 -21 127 -53l-5 77v169h147v-701h-120l-11 51h-3c-37 -36 -88 -63 -138 -63c-126 0 -209 98 -209 260zM198 250c0 -98 35 -142 96 -142c33 0 61 13 87 46v201c-27 24 -54 33 -83 33c-54 0 -100 -44 -100 -138z" />
    <glyph glyph-name="e" unicode="e" 
d="M55 248c0 162 126 260 258 260c153 0 233 -103 233 -238c0 -26 -4 -53 -6 -65h-334c10 -74 71 -105 144 -105c45 0 84 12 128 34l48 -88c-56 -36 -130 -58 -196 -58c-154 0 -275 96 -275 260zM204 302h209c0 56 -30 94 -97 94c-53 0 -99 -30 -112 -94z" />
    <glyph glyph-name="f" unicode="f" 
d="M585 686l-28 -108c-31 12 -66 19 -104 19c-63 0 -93 -27 -93 -87v-14h171v-115h-171v-381h-147v381h-131v109l131 6v13c0 114 67 204 222 204c57 0 108 -13 150 -27z" />
    <glyph glyph-name="g" unicode="g" 
d="M172 -62c0 -37 48 -57 126 -57c79 0 134 27 134 61c0 32 -30 39 -87 39h-62c-36 0 -58 2 -76 6c-25 -16 -35 -31 -35 -49zM52 -84c0 40 26 74 77 99v4c-27 17 -50 43 -50 85c0 33 24 69 59 93v4c-36 24 -65 69 -65 127c0 119 100 180 212 180c30 0 58 -4 82 -12h201v-107
h-101c12 -15 23 -40 23 -66c0 -114 -90 -166 -205 -166c-20 0 -43 3 -68 10c-15 -11 -22 -20 -22 -36c0 -27 26 -38 84 -38h92c130 0 201 -36 201 -125c0 -104 -115 -179 -295 -179c-129 0 -225 38 -225 127zM285 246c41 0 76 28 76 82c0 53 -35 81 -76 81s-74 -28 -74 -81
c0 -54 33 -82 74 -82z" />
    <glyph glyph-name="h" unicode="h" 
d="M72 0v701h147v-172l-8 -95c39 38 93 74 168 74c111 0 161 -77 161 -202v-306h-147v287c0 66 -19 96 -73 96c-40 0 -66 -18 -101 -52v-331h-147z" />
    <glyph glyph-name="i" unicode="i" 
d="M79 381v115h346v-496h-147v381h-199zM345 569c-57 0 -98 35 -98 89s41 92 98 92s98 -38 98 -92s-41 -89 -98 -89z" />
    <glyph glyph-name="j" unicode="j" 
d="M79 381v115h346v-466c0 -121 -50 -226 -230 -226c-61 0 -110 14 -153 34l43 105c40 -18 72 -24 101 -24c71 0 92 33 92 105v357h-199zM345 569c-57 0 -98 35 -98 89s41 92 98 92s98 -38 98 -92s-41 -89 -98 -89z" />
    <glyph glyph-name="k" unicode="k" 
d="M76 0v701h147v-405h4l182 200h161l-188 -204l203 -292h-159l-130 202l-73 -77v-125h-147z" />
    <glyph glyph-name="l" unicode="l" 
d="M62 585v116h291v-513c0 -61 39 -81 80 -81c23 0 47 4 78 16l33 -108c-52 -16 -87 -27 -149 -27c-125 0 -189 80 -189 206v391h-144z" />
    <glyph glyph-name="m" unicode="m" 
d="M36 0v496h110l11 -62h4c19 41 49 74 106 74c44 0 75 -28 87 -81c18 45 53 81 109 81c69 0 110 -61 110 -160v-348h-138v337c0 31 -8 46 -28 46c-19 0 -33 -16 -46 -48v-335h-113v337c0 31 -10 46 -29 46s-31 -16 -45 -48v-335h-138z" />
    <glyph glyph-name="n" unicode="n" 
d="M72 0v496h120l11 -66h4c43 42 97 78 171 78c112 0 162 -77 162 -202v-306h-147v287c0 66 -19 96 -73 96c-40 0 -66 -18 -101 -52v-331h-147z" />
    <glyph glyph-name="o" unicode="o" 
d="M47 248c0 165 122 260 253 260s253 -95 253 -260s-122 -260 -253 -260s-253 95 -253 260zM198 248c0 -86 34 -141 102 -141s102 55 102 141s-34 141 -102 141s-102 -55 -102 -141z" />
    <glyph glyph-name="p" unicode="p" 
d="M214 42l5 -81v-145h-147v680h120l11 -50h3c40 36 95 62 148 62c124 0 199 -99 199 -252c0 -170 -104 -268 -215 -268c-44 0 -88 19 -124 54zM219 141c28 -24 60 -33 85 -33c55 0 98 44 98 146c0 89 -29 134 -91 134c-32 0 -61 -14 -92 -46v-201z" />
    <glyph glyph-name="q" unicode="q" 
d="M47 248c0 162 104 260 212 260c56 0 97 -19 138 -63h4l12 51h115v-680h-147v153l6 76c-35 -33 -84 -57 -131 -57c-126 0 -209 98 -209 260zM198 250c0 -98 35 -142 96 -142c33 0 61 13 87 46v201c-27 24 -54 33 -83 33c-54 0 -100 -44 -100 -138z" />
    <glyph glyph-name="r" unicode="r" 
d="M116 0v496h120l12 -108h3c49 81 122 120 201 120c44 0 67 -7 96 -20l-30 -123c-31 9 -51 14 -88 14c-61 0 -125 -32 -167 -121v-258h-147z" />
    <glyph glyph-name="s" unicode="s" 
d="M53 64l66 92c57 -36 114 -59 180 -59c67 0 95 16 95 42c0 30 -53 47 -133 69c-87 24 -177 66 -177 145c0 92 87 155 229 155c88 0 162 -35 214 -68l-66 -88c-45 27 -93 47 -145 47c-62 0 -86 -14 -86 -39c0 -30 57 -45 127 -63c98 -26 183 -63 183 -149
c0 -90 -85 -160 -244 -160c-89 0 -180 34 -243 76z" />
    <glyph glyph-name="t" unicode="t" 
d="M174 206v175h-125v109l132 6l19 132h121v-132h210v-115h-210v-174c0 -75 32 -104 104 -104c38 0 70 8 99 18l26 -106c-44 -13 -98 -27 -162 -27c-158 0 -214 88 -214 218z" />
    <glyph glyph-name="u" unicode="u" 
d="M525 496v-496h-120l-11 71h-4c-44 -50 -96 -83 -167 -83c-113 0 -161 77 -161 202v306h147v-287c0 -66 17 -96 72 -96c37 0 63 13 97 57v326h147z" />
    <glyph glyph-name="v" unicode="v" 
d="M218 0l-187 496h148l78 -234c16 -50 30 -101 45 -153h4c15 52 28 103 44 153l78 234h141l-182 -496h-169z" />
    <glyph glyph-name="w" unicode="w" 
d="M86 0l-82 496h144l30 -230c7 -49 10 -97 17 -147h3c6 50 13 100 23 147l31 164h103l33 -164c9 -49 17 -97 24 -147h4c7 50 9 98 16 147l30 230h134l-77 -496h-170l-28 165c-7 46 -13 93 -19 146h-4c-4 -36 -8 -78 -18 -146l-27 -165h-167z" />
    <glyph glyph-name="x" unicode="x" 
d="M37 0l172 258l-161 238h158l51 -80c15 -28 35 -57 52 -85h4c13 28 28 58 41 85l44 80h154l-162 -255l172 -241h-158l-57 82c-18 28 -39 58 -57 86h-4c-15 -28 -31 -57 -46 -86l-49 -82h-154z" />
    <glyph glyph-name="y" unicode="y" 
d="M93 -72c13 -4 26 -6 39 -6c57 0 88 26 104 65l10 26l-215 483h146l83 -213c18 -47 34 -97 50 -149h4c13 49 30 100 45 149l73 213h139l-196 -501c-48 -125 -107 -189 -232 -189c-29 0 -55 4 -76 10z" />
    <glyph glyph-name="z" unicode="z" 
d="M70 0v79l260 302h-228v115h431v-78l-260 -303h268v-115h-471z" />
    <glyph glyph-name="braceleft" unicode="{" 
d="M233 -10c0 71 10 108 10 171c0 35 -29 72 -137 74v86c108 2 137 39 137 74c0 62 -10 101 -10 171c0 108 58 142 186 142h77v-78h-41c-83 0 -102 -14 -102 -70c0 -53 5 -104 5 -163c0 -76 -29 -105 -100 -117v-4c71 -12 100 -41 100 -117c0 -61 -5 -109 -5 -163
c0 -56 19 -70 102 -70h41v-78h-77c-128 0 -186 34 -186 142z" />
    <glyph glyph-name="bar" unicode="|" 
d="M235 -250v1000h130v-1000h-130z" />
    <glyph glyph-name="braceright" unicode="}" 
d="M105 -74h41c82 0 101 14 101 70c0 54 -4 102 -4 163c0 76 28 105 100 117v4c-72 12 -100 41 -100 117c0 59 4 110 4 163c0 56 -19 70 -101 70h-41v78h77c128 0 186 -34 186 -142c0 -70 -11 -109 -11 -171c0 -35 29 -72 138 -74v-86c-109 -2 -138 -39 -138 -74
c0 -63 11 -100 11 -171c0 -108 -58 -142 -186 -142h-77v78z" />
    <glyph glyph-name="asciitilde" unicode="~" 
d="M140 234l-88 41c42 104 101 145 163 145c83 0 117 -76 172 -76c28 0 54 26 73 82l88 -41c-42 -104 -101 -145 -163 -145c-83 0 -117 76 -172 76c-27 0 -54 -27 -73 -82z" />
    <glyph glyph-name="uni00A0" unicode="&#xa0;" 
 />
    <glyph glyph-name="exclamdown" unicode="&#xa1;" 
d="M348 241l20 -282l5 -133h-146l5 133l20 282h96zM400 406c0 -59 -43 -100 -100 -100s-100 41 -100 100c0 60 43 102 100 102s100 -42 100 -102z" />
    <glyph glyph-name="cent" unicode="&#xa2;" 
d="M311 182v250c-48 -21 -72 -65 -72 -125s25 -105 72 -125zM464 206l59 -93c-38 -33 -86 -53 -131 -59v-95h-81v95c-130 17 -215 108 -215 253c0 141 91 230 215 251v97h81v-93c52 -5 95 -26 124 -56l-67 -90c-20 16 -38 25 -57 27v-272c28 5 52 19 72 35z" />
    <glyph glyph-name="sterling" unicode="&#xa3;" 
d="M258 124h292v-124h-483v91c69 27 118 82 118 153c0 9 -1 18 -3 27h-112v86l84 5c-10 27 -19 54 -19 80c0 126 95 205 228 205c82 0 139 -29 186 -81l-79 -80c-27 28 -55 42 -93 42c-64 0 -103 -30 -103 -94c0 -24 6 -48 13 -72h169v-91h-146c1 -9 2 -19 2 -28
c0 -48 -16 -79 -54 -115v-4z" />
    <glyph glyph-name="currency" unicode="&#xa4;" 
d="M109 63l-73 74l81 82c-22 30 -34 67 -34 111c0 43 12 80 33 109l-80 82l73 74l89 -90c31 16 67 25 102 25s70 -9 102 -25l89 90l73 -74l-81 -82c22 -29 34 -66 34 -109c0 -44 -13 -81 -35 -111l82 -82l-73 -74l-90 91c-31 -16 -67 -24 -101 -24c-35 0 -70 8 -101 24z
M214 330c0 -60 38 -98 86 -98s86 38 86 98c0 59 -38 98 -86 98s-86 -39 -86 -98z" />
    <glyph glyph-name="yen" unicode="&#xa5;" 
d="M31 635h151l61 -133c19 -44 37 -88 57 -131h4c19 44 38 88 57 131l61 133h147l-163 -293h137v-70h-170v-55h170v-70h-170v-147h-147v147h-169v70h169v55h-169v70h137z" />
    <glyph glyph-name="brokenbar" unicode="&#xa6;" 
d="M235 312v438h130v-438h-130zM235 204h130v-454h-130v454z" />
    <glyph glyph-name="section" unicode="&#xa7;" 
d="M195 337c0 -63 96 -83 174 -125c24 15 36 33 36 60c0 63 -94 84 -173 123c-24 -14 -37 -34 -37 -58zM484 625l-68 -92c-31 27 -70 48 -106 48s-54 -14 -54 -39c0 -71 273 -77 273 -258c0 -58 -30 -101 -84 -133c14 -21 23 -46 23 -77c0 -90 -67 -158 -192 -158
c-73 0 -150 27 -195 84l84 75c33 -33 71 -51 111 -51c41 0 60 18 60 43c0 78 -265 71 -265 259c0 50 32 98 82 128c-18 22 -29 49 -29 83c0 90 66 153 178 153c77 0 140 -33 182 -65z" />
    <glyph glyph-name="dieresis" unicode="&#xa8;" 
d="M191 571c-46 0 -79 34 -79 79c0 44 33 78 79 78s78 -34 78 -78c0 -45 -32 -79 -78 -79zM409 571c-46 0 -78 34 -78 79c0 44 32 78 78 78s79 -34 79 -78c0 -45 -33 -79 -79 -79z" />
    <glyph glyph-name="copyright" unicode="&#xa9;" 
d="M19 325c0 207 129 330 281 330s281 -123 281 -330s-129 -334 -281 -334s-281 127 -281 334zM83 325c0 -164 87 -273 217 -273s217 109 217 273s-87 270 -217 270s-217 -106 -217 -270zM139 324c0 117 82 192 173 192c52 0 85 -22 112 -49l-55 -61c-15 15 -29 24 -48 24
c-49 0 -76 -47 -76 -106c0 -68 27 -111 71 -111c25 0 41 10 60 24l47 -68c-31 -25 -67 -42 -111 -42c-100 0 -173 76 -173 197z" />
    <glyph glyph-name="ordfeminine" unicode="&#xaa;" 
d="M154 351c0 70 58 108 195 121c-2 27 -21 43 -56 43c-27 0 -58 -11 -91 -29l-37 67c44 26 96 44 149 44c86 0 139 -48 139 -151v-186h-85l-7 33h-2c-29 -24 -64 -41 -100 -41c-63 0 -105 45 -105 99zM254 360c0 -19 15 -29 38 -29c21 0 41 10 57 26v53
c-71 -9 -95 -27 -95 -50z" />
    <glyph glyph-name="guillemotleft" unicode="&#xab;" 
d="M213 25l-171 154v146l171 154l62 -55l-127 -172l127 -172zM479 25l-171 154v146l171 154l62 -55l-127 -172l127 -172z" />
    <glyph glyph-name="logicalnot" unicode="&#xac;" 
d="M70 278v104h460v-288h-108v184h-352z" />
    <glyph glyph-name="uni00AD" unicode="&#xad;" 
d="M70 278v104h460v-104h-460z" />
    <glyph glyph-name="registered" unicode="&#xae;" 
d="M299 311c-109 0 -198 84 -198 202s89 202 198 202c110 0 198 -84 198 -202s-88 -202 -198 -202zM299 360c84 0 144 60 144 153s-60 153 -144 153s-144 -60 -144 -153s60 -153 144 -153zM218 416v197h89c47 0 81 -21 81 -66c0 -23 -11 -43 -35 -54l42 -77h-60l-30 60h-29
v-60h-58zM276 516h20c21 0 31 13 31 28c0 14 -10 26 -30 26h-21v-54z" />
    <glyph glyph-name="macron" unicode="&#xaf;" 
d="M162 592v93h276v-93h-276z" />
    <glyph glyph-name="degree" unicode="&#xb0;" 
d="M301 398c-81 0 -145 60 -145 144s64 144 145 144s144 -60 144 -144s-63 -144 -144 -144zM301 468c40 0 67 30 67 74c0 43 -27 73 -67 73s-67 -30 -67 -73c0 -44 27 -74 67 -74z" />
    <glyph glyph-name="plusminus" unicode="&#xb1;" 
d="M246 158v136h-176v104h176v168h108v-168h176v-104h-176v-136h-108zM70 0v104h460v-104h-460z" />
    <glyph glyph-name="two.sups" unicode="&#xb2;" 
d="M172 440v55c83 54 147 108 147 142c0 25 -15 41 -44 41c-19 0 -39 -12 -55 -35l-62 56c37 39 79 65 133 65c79 0 131 -41 131 -109c0 -46 -40 -89 -82 -128h93v-87h-261z" />
    <glyph glyph-name="three.sups" unicode="&#xb3;" 
d="M165 470l41 66c21 -15 54 -29 82 -29c23 0 42 9 42 29c0 23 -22 35 -73 35v55c38 0 61 8 61 32c0 16 -14 27 -39 27c-22 0 -46 -13 -66 -25l-42 62c30 24 78 42 132 42c66 0 119 -36 119 -89c0 -36 -14 -57 -54 -71c47 -13 66 -39 66 -76c0 -59 -60 -100 -133 -100
c-41 0 -89 7 -136 42z" />
    <glyph glyph-name="acute" unicode="&#xb4;" 
d="M457 741l-132 -167h-107l89 167h150z" />
    <glyph glyph-name="uni00B5" unicode="&#xb5;" 
d="M62 -196v692h147v-287c0 -71 24 -96 69 -96c39 0 69 20 100 77v306h148c-5 -116 -10 -265 -10 -348c0 -31 15 -41 35 -41c6 0 10 0 18 2l18 -109c-17 -7 -42 -12 -74 -12c-65 0 -102 33 -119 94h-4c-27 -58 -70 -89 -119 -89c-26 0 -53 4 -71 25c2 -80 3 -140 11 -214
h-149z" />
    <glyph glyph-name="paragraph" unicode="&#xb6;" 
d="M380 -80v732h146v-732h-146zM328 652v-455h-40c-131 0 -240 79 -240 232c0 168 108 223 238 223h42z" />
    <glyph glyph-name="periodcentered" unicode="&#xb7;" 
d="M184 354c0 65 47 117 116 117s116 -52 116 -117c0 -66 -47 -118 -116 -118s-116 52 -116 118z" />
    <glyph glyph-name="cedilla" unicode="&#xb8;" 
d="M223 -76l40 80h86l-20 -47c33 -11 58 -33 58 -74c0 -69 -83 -99 -177 -104l-11 59c48 5 82 18 82 44c0 17 -13 31 -58 42z" />
    <glyph glyph-name="one.sups" unicode="&#xb9;" 
d="M277 440v212h-81v64c51 7 72 16 105 36h83v-312h-107z" />
    <glyph glyph-name="ordmasculine" unicode="&#xba;" 
d="M133 424c0 109 79 173 167 173s167 -64 167 -173s-79 -172 -167 -172s-167 63 -167 172zM239 424c0 -54 19 -90 61 -90c43 0 61 36 61 90c0 55 -18 90 -61 90c-42 0 -61 -35 -61 -90z" />
    <glyph glyph-name="guillemotright" unicode="&#xbb;" 
d="M59 80l127 172l-127 172l62 55l171 -154v-146l-171 -154zM325 80l127 172l-127 172l62 55l171 -154v-146l-171 -154z" />
    <glyph glyph-name="onequarter" unicode="&#xbc;" 
d="M583 551l-186 -174l-51 48l162 199zM17 101l186 173l51 -47l-162 -199zM69 536v64c51 6 73 15 105 35h83v-311h-107v212h-81zM383 127h65v22l5 99h-3l-34 -62zM593 127v-66h-51v-61h-94v61h-160v51l120 200h134v-185h51z" />
    <glyph glyph-name="onehalf" unicode="&#xbd;" 
d="M150 324v212h-81v64c51 6 73 15 105 35h83v-311h-107zM92 28l-75 73l186 173l51 -47zM508 624l75 -73l-186 -174l-51 48zM299 0v55c82 54 147 108 147 142c0 25 -16 41 -44 41c-19 0 -39 -12 -56 -35l-61 56c37 39 79 65 133 65c79 0 130 -41 130 -109
c0 -46 -39 -89 -81 -128h93v-87h-261z" />
    <glyph glyph-name="threequarters" unicode="&#xbe;" 
d="M590 551l-186 -174l-51 48l162 199zM24 101l186 173l51 -47l-162 -199zM86 543l-43 63c31 24 78 41 133 41c65 0 118 -35 118 -88c0 -37 -13 -58 -54 -72c48 -13 67 -39 67 -76c0 -58 -61 -99 -133 -99c-42 0 -90 7 -137 41l41 66c21 -15 55 -29 83 -29c23 0 42 10 42 29
c0 24 -23 35 -73 35v56c37 0 60 8 60 32c0 16 -14 26 -38 26c-23 0 -46 -12 -66 -25zM384 127h65v22l5 99h-3l-34 -62zM594 127v-66h-52v-61h-93v61h-160v51l120 200h133v-185h52z" />
    <glyph glyph-name="questiondown" unicode="&#xbf;" 
d="M383 241c21 -134 -139 -171 -139 -245c0 -41 32 -63 74 -63s72 19 103 46l81 -74c-48 -54 -115 -91 -194 -91c-115 0 -205 53 -205 163c0 131 163 148 151 264h129zM414 406c0 -59 -42 -100 -100 -100c-57 0 -99 41 -99 100c0 60 42 102 99 102c58 0 100 -42 100 -102z
" />
    <glyph glyph-name="Agrave" unicode="&#xc0;" 
d="M375 702h-117l-120 120h156zM229 270h137l-15 60c-17 65 -35 142 -52 210h-4c-16 -69 -34 -145 -51 -210zM435 0l-39 155h-197l-40 -155h-150l203 652h176l203 -652h-156z" />
    <glyph glyph-name="Aacute" unicode="&#xc1;" 
d="M462 822l-120 -120h-117l81 120h156zM229 270h137l-15 60c-17 65 -35 142 -52 210h-4c-16 -69 -34 -145 -51 -210zM435 0l-39 155h-197l-40 -155h-150l203 652h176l203 -652h-156z" />
    <glyph glyph-name="Acircumflex" unicode="&#xc2;" 
d="M298 763l-53 -61h-113l96 120h144l96 -120h-113l-53 61h-4zM229 270h137l-15 60c-17 65 -35 142 -52 210h-4c-16 -69 -34 -145 -51 -210zM435 0l-39 155h-197l-40 -155h-150l203 652h176l203 -652h-156z" />
    <glyph glyph-name="Atilde" unicode="&#xc3;" 
d="M395 839h75c-10 -91 -55 -136 -107 -136c-54 0 -89 45 -120 45c-17 0 -31 -12 -38 -45h-75c10 91 55 136 107 136c54 0 89 -45 120 -45c17 0 31 12 38 45zM229 270h137l-15 60c-17 65 -35 142 -52 210h-4c-16 -69 -34 -145 -51 -210zM435 0l-39 155h-197l-40 -155h-150
l203 652h176l203 -652h-156z" />
    <glyph glyph-name="Adieresis" unicode="&#xc4;" 
d="M399 700c-41 0 -70 30 -70 70s29 70 70 70s70 -30 70 -70s-29 -70 -70 -70zM201 700c-41 0 -70 30 -70 70s29 70 70 70s70 -30 70 -70s-29 -70 -70 -70zM229 270h137l-15 60c-17 65 -35 142 -52 210h-4c-16 -69 -34 -145 -51 -210zM435 0l-39 155h-197l-40 -155h-150
l203 652h176l203 -652h-156z" />
    <glyph glyph-name="Aring" unicode="&#xc5;" 
d="M300 838c-23 0 -41 -17 -41 -43c0 -27 18 -43 41 -43c22 0 40 16 40 43c0 26 -18 43 -40 43zM300 697c-67 0 -113 38 -113 98c0 59 46 98 113 98s113 -39 113 -98c0 -60 -46 -98 -113 -98zM229 270h137l-15 60c-17 65 -35 142 -52 210h-4c-16 -69 -34 -145 -51 -210z
M435 0l-39 155h-197l-40 -155h-150l203 652h176l203 -652h-156z" />
    <glyph glyph-name="AE" unicode="&#xc6;" 
d="M227 263h84v278h-3c-17 -65 -37 -128 -53 -185zM441 124h154v-124h-284v149h-118l-45 -149h-151l209 652h380v-124h-145v-129h118v-124h-118v-151z" />
    <glyph glyph-name="Ccedilla" unicode="&#xc7;" 
d="M488 173l81 -89c-49 -57 -111 -89 -182 -95l-14 -32c34 -11 59 -33 59 -74c0 -69 -83 -99 -178 -104l-11 59c48 5 83 18 83 44c0 17 -14 31 -58 42l35 69c-140 25 -248 137 -248 329c0 216 137 342 311 342c83 0 149 -40 193 -83l-81 -91c-31 28 -65 47 -112 47
c-92 0 -160 -79 -160 -210c0 -134 68 -212 166 -212c47 0 84 23 116 58z" />
    <glyph glyph-name="Egrave" unicode="&#xc8;" 
d="M94 0v652h430v-124h-283v-131h240v-123h-240v-150h293v-124h-440zM279 702l-120 120h157l80 -120h-117z" />
    <glyph glyph-name="Eacute" unicode="&#xc9;" 
d="M94 0v652h430v-124h-283v-131h240v-123h-240v-150h293v-124h-440zM484 822l-120 -120h-117l80 120h157z" />
    <glyph glyph-name="Ecircumflex" unicode="&#xca;" 
d="M94 0v652h430v-124h-283v-131h240v-123h-240v-150h293v-124h-440zM266 702h-112l96 120h143l96 -120h-112l-53 61h-4z" />
    <glyph glyph-name="Edieresis" unicode="&#xcb;" 
d="M94 0v652h430v-124h-283v-131h240v-123h-240v-150h293v-124h-440zM222 700c-41 0 -69 30 -69 70s28 70 69 70c42 0 70 -30 70 -70s-28 -70 -70 -70zM421 700c-41 0 -70 30 -70 70s29 70 70 70s69 -30 69 -70s-28 -70 -69 -70z" />
    <glyph glyph-name="Igrave" unicode="&#xcc;" 
d="M74 0v124h152v404h-152v124h452v-124h-152v-404h152v-124h-452zM258 702l-120 120h156l81 -120h-117z" />
    <glyph glyph-name="Iacute" unicode="&#xcd;" 
d="M74 0v124h152v404h-152v124h452v-124h-152v-404h152v-124h-452zM462 822l-120 -120h-117l81 120h156z" />
    <glyph glyph-name="Icircumflex" unicode="&#xce;" 
d="M74 0v124h152v404h-152v124h452v-124h-152v-404h152v-124h-452zM245 702h-113l96 120h144l96 -120h-113l-53 61h-4z" />
    <glyph glyph-name="Idieresis" unicode="&#xcf;" 
d="M74 0v124h152v404h-152v124h452v-124h-152v-404h152v-124h-452zM201 700c-41 0 -70 30 -70 70s29 70 70 70s70 -30 70 -70s-29 -70 -70 -70zM399 700c-41 0 -70 30 -70 70s29 70 70 70s70 -30 70 -70s-29 -70 -70 -70z" />
    <glyph glyph-name="Eth" unicode="&#xd0;" 
d="M71 0v301h-69v66l69 5v280h178c188 0 313 -99 313 -323s-125 -329 -305 -329h-186zM219 119h21c101 0 171 54 171 210s-70 204 -171 204h-21v-161h107v-71h-107v-182z" />
    <glyph glyph-name="Ntilde" unicode="&#xd1;" 
d="M66 0v652h150l138 -325l56 -143h4c-7 69 -21 161 -21 237v231h141v-652h-150l-138 325l-56 142h-4c7 -72 21 -159 21 -236v-231h-141zM369 703c-54 0 -89 45 -120 45c-17 0 -31 -12 -38 -45h-75c10 91 55 136 107 136c54 0 89 -45 120 -45c17 0 31 12 38 45h75
c-10 -91 -55 -136 -107 -136z" />
    <glyph glyph-name="Ograve" unicode="&#xd2;" 
d="M300 -12c-155 0 -262 128 -262 341s107 335 262 335s262 -123 262 -335c0 -213 -107 -341 -262 -341zM300 115c68 0 111 83 111 214c0 130 -43 208 -111 208s-111 -78 -111 -208c0 -131 43 -214 111 -214zM258 702l-120 120h156l81 -120h-117z" />
    <glyph glyph-name="Oacute" unicode="&#xd3;" 
d="M300 -12c-155 0 -262 128 -262 341s107 335 262 335s262 -123 262 -335c0 -213 -107 -341 -262 -341zM300 115c68 0 111 83 111 214c0 130 -43 208 -111 208s-111 -78 -111 -208c0 -131 43 -214 111 -214zM462 822l-120 -120h-117l81 120h156z" />
    <glyph glyph-name="Ocircumflex" unicode="&#xd4;" 
d="M300 -12c-155 0 -262 128 -262 341s107 335 262 335s262 -123 262 -335c0 -213 -107 -341 -262 -341zM300 115c68 0 111 83 111 214c0 130 -43 208 -111 208s-111 -78 -111 -208c0 -131 43 -214 111 -214zM245 702h-113l96 120h144l96 -120h-113l-53 61h-4z" />
    <glyph glyph-name="Otilde" unicode="&#xd5;" 
d="M300 -12c-155 0 -262 128 -262 341s107 335 262 335s262 -123 262 -335c0 -213 -107 -341 -262 -341zM300 115c68 0 111 83 111 214c0 130 -43 208 -111 208s-111 -78 -111 -208c0 -131 43 -214 111 -214zM363 703c-54 0 -89 45 -120 45c-17 0 -31 -12 -38 -45h-75
c10 91 55 136 107 136c54 0 89 -45 120 -45c17 0 31 12 38 45h75c-10 -91 -55 -136 -107 -136z" />
    <glyph glyph-name="Odieresis" unicode="&#xd6;" 
d="M300 -12c-155 0 -262 128 -262 341s107 335 262 335s262 -123 262 -335c0 -213 -107 -341 -262 -341zM300 115c68 0 111 83 111 214c0 130 -43 208 -111 208s-111 -78 -111 -208c0 -131 43 -214 111 -214zM201 700c-41 0 -70 30 -70 70s29 70 70 70s70 -30 70 -70
s-29 -70 -70 -70zM399 700c-41 0 -70 30 -70 70s29 70 70 70s70 -30 70 -70s-29 -70 -70 -70z" />
    <glyph glyph-name="multiply" unicode="&#xd7;" 
d="M157 112l-73 74l142 143l-142 144l73 74l143 -144l143 144l73 -74l-142 -144l142 -143l-73 -74l-143 144z" />
    <glyph glyph-name="Oslash" unicode="&#xd8;" 
d="M407 393l-170 -247c17 -20 38 -31 63 -31c68 0 111 83 111 214c0 23 -1 45 -4 64zM195 249l174 252c-18 23 -42 36 -69 36c-68 0 -111 -78 -111 -208c0 -29 2 -56 6 -80zM579 643l-68 -99c33 -55 51 -127 51 -215c0 -213 -107 -341 -262 -341c-54 0 -102 15 -141 44
l-51 -73l-78 50l64 93c-36 57 -56 134 -56 227c0 213 107 335 262 335c57 0 107 -17 148 -48l53 77z" />
    <glyph glyph-name="Ugrave" unicode="&#xd9;" 
d="M64 251v401h147v-416c0 -78 29 -121 91 -121s92 43 92 121v416h142v-401c0 -169 -76 -263 -234 -263c-159 0 -238 94 -238 263zM258 702l-120 120h156l81 -120h-117z" />
    <glyph glyph-name="Uacute" unicode="&#xda;" 
d="M64 251v401h147v-416c0 -78 29 -121 91 -121s92 43 92 121v416h142v-401c0 -169 -76 -263 -234 -263c-159 0 -238 94 -238 263zM462 822l-120 -120h-117l81 120h156z" />
    <glyph glyph-name="Ucircumflex" unicode="&#xdb;" 
d="M64 251v401h147v-416c0 -78 29 -121 91 -121s92 43 92 121v416h142v-401c0 -169 -76 -263 -234 -263c-159 0 -238 94 -238 263zM245 702h-113l96 120h144l96 -120h-113l-53 61h-4z" />
    <glyph glyph-name="Udieresis" unicode="&#xdc;" 
d="M64 251v401h147v-416c0 -78 29 -121 91 -121s92 43 92 121v416h142v-401c0 -169 -76 -263 -234 -263c-159 0 -238 94 -238 263zM201 700c-41 0 -70 30 -70 70s29 70 70 70s70 -30 70 -70s-29 -70 -70 -70zM399 700c-41 0 -70 30 -70 70s29 70 70 70s70 -30 70 -70
s-29 -70 -70 -70z" />
    <glyph glyph-name="Yacute" unicode="&#xdd;" 
d="M226 0v220l-210 432h158l66 -157c19 -50 39 -97 59 -149h4c21 52 41 99 61 149l66 157h154l-210 -432v-220h-148zM462 822l-120 -120h-117l81 120h156z" />
    <glyph glyph-name="Thorn" unicode="&#xde;" 
d="M73 0v652h147v-99h91c141 0 255 -51 255 -209c0 -154 -117 -221 -255 -221h-91v-123h-147zM220 240h82c81 0 119 36 119 104s-41 92 -119 92h-82v-196z" />
    <glyph glyph-name="germandbls" unicode="&#xdf;" 
d="M61 0v495c0 124 74 218 227 218c129 0 189 -83 189 -169c0 -95 -61 -125 -61 -176c0 -66 155 -71 155 -216c0 -91 -60 -164 -174 -164c-55 0 -94 13 -139 37l49 100c31 -20 58 -28 85 -28c26 0 43 17 43 43c0 76 -155 78 -155 210c0 80 60 109 60 186c0 34 -20 61 -53 61
c-54 0 -79 -43 -79 -111v-486h-147z" />
    <glyph glyph-name="agrave" unicode="&#xe0;" 
d="M61 138c0 111 92 167 327 181c-5 45 -39 72 -106 72c-48 0 -95 -18 -151 -46l-52 96c68 39 147 67 232 67c139 0 224 -72 224 -224v-284h-120l-11 56h-4c-50 -38 -112 -68 -176 -68c-100 0 -163 66 -163 150zM202 149c0 -32 27 -47 69 -47c44 0 82 20 117 47v82
c-146 -8 -186 -39 -186 -82zM283 574l-132 167h150l89 -167h-107z" />
    <glyph glyph-name="aacute" unicode="&#xe1;" 
d="M61 138c0 111 92 167 327 181c-5 45 -39 72 -106 72c-48 0 -95 -18 -151 -46l-52 96c68 39 147 67 232 67c139 0 224 -72 224 -224v-284h-120l-11 56h-4c-50 -38 -112 -68 -176 -68c-100 0 -163 66 -163 150zM202 149c0 -32 27 -47 69 -47c44 0 82 20 117 47v82
c-146 -8 -186 -39 -186 -82zM466 741l-132 -167h-108l89 167h151z" />
    <glyph glyph-name="acircumflex" unicode="&#xe2;" 
d="M61 138c0 111 92 167 327 181c-5 45 -39 72 -106 72c-48 0 -95 -18 -151 -46l-52 96c68 39 147 67 232 67c139 0 224 -72 224 -224v-284h-120l-11 56h-4c-50 -38 -112 -68 -176 -68c-100 0 -163 66 -163 150zM202 149c0 -32 27 -47 69 -47c44 0 82 20 117 47v82
c-146 -8 -186 -39 -186 -82zM146 574l100 167h124l100 -167h-107l-53 95h-4l-53 -95h-107z" />
    <glyph glyph-name="atilde" unicode="&#xe3;" 
d="M61 138c0 111 92 167 327 181c-5 45 -39 72 -106 72c-48 0 -95 -18 -151 -46l-52 96c68 39 147 67 232 67c139 0 224 -72 224 -224v-284h-120l-11 56h-4c-50 -38 -112 -68 -176 -68c-100 0 -163 66 -163 150zM202 149c0 -32 27 -47 69 -47c44 0 82 20 117 47v82
c-146 -8 -186 -39 -186 -82zM137 575c12 97 56 143 117 143c49 0 79 -52 107 -52c21 0 34 13 43 52h75c-12 -96 -56 -143 -117 -143c-50 0 -79 53 -107 53c-21 0 -34 -13 -43 -53h-75z" />
    <glyph glyph-name="adieresis" unicode="&#xe4;" 
d="M61 138c0 111 92 167 327 181c-5 45 -39 72 -106 72c-48 0 -95 -18 -151 -46l-52 96c68 39 147 67 232 67c139 0 224 -72 224 -224v-284h-120l-11 56h-4c-50 -38 -112 -68 -176 -68c-100 0 -163 66 -163 150zM202 149c0 -32 27 -47 69 -47c44 0 82 20 117 47v82
c-146 -8 -186 -39 -186 -82zM199 571c-46 0 -78 34 -78 79c0 44 32 78 78 78s79 -34 79 -78c0 -45 -33 -79 -79 -79zM417 571c-46 0 -78 34 -78 79c0 44 32 78 78 78c47 0 79 -34 79 -78c0 -45 -32 -79 -79 -79z" />
    <glyph glyph-name="aring" unicode="&#xe5;" 
d="M61 138c0 111 92 167 327 181c-5 45 -39 72 -106 72c-48 0 -95 -18 -151 -46l-52 96c68 39 147 67 232 67c139 0 224 -72 224 -224v-284h-120l-11 56h-4c-50 -38 -112 -68 -176 -68c-100 0 -163 66 -163 150zM202 149c0 -32 27 -47 69 -47c44 0 82 20 117 47v82
c-146 -8 -186 -39 -186 -82zM308 548c-67 0 -112 40 -112 102s45 102 112 102s113 -40 113 -102s-46 -102 -113 -102zM308 603c23 0 41 19 41 47s-18 47 -41 47c-22 0 -41 -19 -41 -47s19 -47 41 -47z" />
    <glyph glyph-name="ae" unicode="&#xe6;" 
d="M16 138c0 102 74 153 225 182c-4 46 -19 71 -57 71c-27 0 -68 -13 -103 -34l-52 96c55 33 108 55 165 55c58 0 93 -29 116 -73c34 49 70 73 128 73c102 0 155 -109 155 -239c0 -27 -4 -51 -7 -64h-227c11 -68 44 -102 91 -102c28 0 51 8 78 26l50 -94
c-38 -30 -91 -47 -133 -47c-71 0 -117 30 -151 77c-52 -54 -95 -77 -140 -77c-90 0 -138 67 -138 150zM357 295h119c0 55 -12 101 -52 101c-33 0 -60 -32 -67 -101zM148 150c0 -31 17 -48 46 -48c19 0 43 12 61 34c-8 21 -12 49 -14 74l-1 21c-65 -14 -92 -43 -92 -81z" />
    <glyph glyph-name="ccedilla" unicode="&#xe7;" 
d="M382 -10l-15 -33c34 -11 59 -33 59 -74c0 -69 -83 -99 -177 -104l-11 59c47 5 82 18 82 44c0 17 -13 31 -58 42l34 67c-133 18 -229 109 -229 257c0 165 134 260 287 260c78 0 144 -28 186 -67l-68 -91c-38 27 -73 39 -110 39c-85 0 -144 -55 -144 -141s57 -141 139 -141
c52 0 96 22 131 47l60 -93c-49 -41 -109 -63 -166 -71z" />
    <glyph glyph-name="egrave" unicode="&#xe8;" 
d="M55 248c0 162 126 260 258 260c153 0 233 -103 233 -238c0 -26 -4 -53 -6 -65h-334c10 -74 71 -105 144 -105c45 0 84 12 128 34l48 -88c-56 -36 -130 -58 -196 -58c-154 0 -275 96 -275 260zM204 302h209c0 56 -30 94 -97 94c-53 0 -99 -30 -112 -94zM287 574l-132 167
h151l88 -167h-107z" />
    <glyph glyph-name="eacute" unicode="&#xe9;" 
d="M55 248c0 162 126 260 258 260c153 0 233 -103 233 -238c0 -26 -4 -53 -6 -65h-334c10 -74 71 -105 144 -105c45 0 84 12 128 34l48 -88c-56 -36 -130 -58 -196 -58c-154 0 -275 96 -275 260zM204 302h209c0 56 -30 94 -97 94c-53 0 -99 -30 -112 -94zM470 741l-132 -167
h-107l89 167h150z" />
    <glyph glyph-name="ecircumflex" unicode="&#xea;" 
d="M55 248c0 162 126 260 258 260c153 0 233 -103 233 -238c0 -26 -4 -53 -6 -65h-334c10 -74 71 -105 144 -105c45 0 84 12 128 34l48 -88c-56 -36 -130 -58 -196 -58c-154 0 -275 96 -275 260zM204 302h209c0 56 -30 94 -97 94c-53 0 -99 -30 -112 -94zM150 574l101 167
h123l101 -167h-107l-53 95h-4l-54 -95h-107z" />
    <glyph glyph-name="edieresis" unicode="&#xeb;" 
d="M55 248c0 162 126 260 258 260c153 0 233 -103 233 -238c0 -26 -4 -53 -6 -65h-334c10 -74 71 -105 144 -105c45 0 84 12 128 34l48 -88c-56 -36 -130 -58 -196 -58c-154 0 -275 96 -275 260zM204 302h209c0 56 -30 94 -97 94c-53 0 -99 -30 -112 -94zM203 571
c-46 0 -79 34 -79 79c0 44 33 78 79 78s78 -34 78 -78c0 -45 -32 -79 -78 -79zM421 571c-46 0 -78 34 -78 79c0 44 32 78 78 78s79 -34 79 -78c0 -45 -33 -79 -79 -79z" />
    <glyph glyph-name="igrave" unicode="&#xec;" 
d="M79 381v115h346v-496h-147v381h-199zM320 574l-132 167h150l89 -167h-107z" />
    <glyph glyph-name="iacute" unicode="&#xed;" 
d="M79 381v115h346v-496h-147v381h-199zM503 741l-133 -167h-107l89 167h151z" />
    <glyph glyph-name="icircumflex" unicode="&#xee;" 
d="M79 381v115h346v-496h-147v381h-199zM183 574l100 167h124l100 -167h-107l-53 95h-4l-53 -95h-107z" />
    <glyph glyph-name="idieresis" unicode="&#xef;" 
d="M79 381v115h346v-496h-147v381h-199zM236 571c-46 0 -79 34 -79 79c0 44 33 78 79 78s78 -34 78 -78c0 -45 -32 -79 -78 -79zM454 571c-46 0 -78 34 -78 79c0 44 32 78 78 78s79 -34 79 -78c0 -45 -33 -79 -79 -79z" />
    <glyph glyph-name="eth" unicode="&#xf0;" 
d="M300 107c69 0 113 51 113 151c0 12 0 23 -1 34c-34 39 -71 54 -114 54c-72 0 -117 -38 -117 -118c0 -79 54 -121 119 -121zM518 662l-111 -56c86 -80 143 -188 143 -340c0 -161 -95 -278 -255 -278c-135 0 -248 93 -248 240c0 143 105 227 221 227c48 0 94 -16 126 -55
c-19 60 -51 108 -98 150l-149 -75l-38 65l120 60c-28 18 -59 35 -94 51l64 89c51 -23 100 -50 145 -82l136 69z" />
    <glyph glyph-name="ntilde" unicode="&#xf1;" 
d="M72 0v496h120l11 -66h4c43 42 97 78 171 78c112 0 162 -77 162 -202v-306h-147v287c0 66 -19 96 -73 96c-40 0 -66 -18 -101 -52v-331h-147zM144 575c12 97 56 143 117 143c49 0 79 -52 107 -52c21 0 34 13 43 52h75c-12 -96 -56 -143 -117 -143c-50 0 -79 53 -107 53
c-21 0 -34 -13 -43 -53h-75z" />
    <glyph glyph-name="ograve" unicode="&#xf2;" 
d="M47 248c0 165 122 260 253 260s253 -95 253 -260s-122 -260 -253 -260s-253 95 -253 260zM198 248c0 -86 34 -141 102 -141s102 55 102 141s-34 141 -102 141s-102 -55 -102 -141zM275 574l-132 167h150l89 -167h-107z" />
    <glyph glyph-name="oacute" unicode="&#xf3;" 
d="M47 248c0 165 122 260 253 260s253 -95 253 -260s-122 -260 -253 -260s-253 95 -253 260zM198 248c0 -86 34 -141 102 -141s102 55 102 141s-34 141 -102 141s-102 -55 -102 -141zM457 741l-132 -167h-107l89 167h150z" />
    <glyph glyph-name="ocircumflex" unicode="&#xf4;" 
d="M47 248c0 165 122 260 253 260s253 -95 253 -260s-122 -260 -253 -260s-253 95 -253 260zM198 248c0 -86 34 -141 102 -141s102 55 102 141s-34 141 -102 141s-102 -55 -102 -141zM138 574l100 167h124l100 -167h-107l-53 95h-4l-53 -95h-107z" />
    <glyph glyph-name="otilde" unicode="&#xf5;" 
d="M47 248c0 165 122 260 253 260s253 -95 253 -260s-122 -260 -253 -260s-253 95 -253 260zM198 248c0 -86 34 -141 102 -141s102 55 102 141s-34 141 -102 141s-102 -55 -102 -141zM129 575c12 97 56 143 117 143c49 0 79 -52 107 -52c21 0 34 13 43 52h75
c-12 -96 -56 -143 -117 -143c-50 0 -79 53 -107 53c-21 0 -34 -13 -43 -53h-75z" />
    <glyph glyph-name="odieresis" unicode="&#xf6;" 
d="M47 248c0 165 122 260 253 260s253 -95 253 -260s-122 -260 -253 -260s-253 95 -253 260zM198 248c0 -86 34 -141 102 -141s102 55 102 141s-34 141 -102 141s-102 -55 -102 -141zM191 571c-46 0 -79 34 -79 79c0 44 33 78 79 78s78 -34 78 -78c0 -45 -32 -79 -78 -79z
M409 571c-46 0 -78 34 -78 79c0 44 32 78 78 78s79 -34 79 -78c0 -45 -33 -79 -79 -79z" />
    <glyph glyph-name="divide" unicode="&#xf7;" 
d="M300 433c-46 0 -81 32 -81 77s35 77 81 77s81 -32 81 -77s-35 -77 -81 -77zM219 150c0 45 35 77 81 77s81 -32 81 -77s-35 -77 -81 -77s-81 32 -81 77zM70 278v104h460v-104h-460z" />
    <glyph glyph-name="oslash" unicode="&#xf8;" 
d="M395 309l-155 -186c16 -13 36 -21 60 -21c68 0 102 60 102 146c0 22 -2 43 -7 61zM205 188l154 186c-16 13 -35 20 -59 20c-68 0 -102 -60 -102 -146c0 -22 2 -42 7 -60zM538 480l-47 -56c38 -44 62 -103 62 -176c0 -165 -122 -260 -253 -260c-50 0 -98 14 -139 40
l-44 -53l-55 42l46 56c-37 43 -61 102 -61 175c0 165 122 260 253 260c49 0 97 -13 138 -39l45 54z" />
    <glyph glyph-name="ugrave" unicode="&#xf9;" 
d="M525 496v-496h-120l-11 71h-4c-44 -50 -96 -83 -167 -83c-113 0 -161 77 -161 202v306h147v-287c0 -66 17 -96 72 -96c37 0 63 13 97 57v326h147zM270 574l-132 167h151l88 -167h-107z" />
    <glyph glyph-name="uacute" unicode="&#xfa;" 
d="M525 496v-496h-120l-11 71h-4c-44 -50 -96 -83 -167 -83c-113 0 -161 77 -161 202v306h147v-287c0 -66 17 -96 72 -96c37 0 63 13 97 57v326h147zM453 741l-132 -167h-107l89 167h150z" />
    <glyph glyph-name="ucircumflex" unicode="&#xfb;" 
d="M525 496v-496h-120l-11 71h-4c-44 -50 -96 -83 -167 -83c-113 0 -161 77 -161 202v306h147v-287c0 -66 17 -96 72 -96c37 0 63 13 97 57v326h147zM133 574l101 167h123l101 -167h-107l-53 95h-4l-54 -95h-107z" />
    <glyph glyph-name="udieresis" unicode="&#xfc;" 
d="M525 496v-496h-120l-11 71h-4c-44 -50 -96 -83 -167 -83c-113 0 -161 77 -161 202v306h147v-287c0 -66 17 -96 72 -96c37 0 63 13 97 57v326h147zM187 571c-47 0 -79 34 -79 79c0 44 32 78 79 78c46 0 78 -34 78 -78c0 -45 -32 -79 -78 -79zM405 571c-47 0 -79 34 -79 79
c0 44 32 78 79 78c46 0 78 -34 78 -78c0 -45 -32 -79 -78 -79z" />
    <glyph glyph-name="yacute" unicode="&#xfd;" 
d="M93 -72c13 -4 26 -6 39 -6c57 0 88 26 104 65l10 26l-215 483h146l83 -213c18 -47 34 -97 50 -149h4c13 49 30 100 45 149l73 213h139l-196 -501c-48 -125 -107 -189 -232 -189c-29 0 -55 4 -76 10zM464 741l-132 -167h-107l89 167h150z" />
    <glyph glyph-name="thorn" unicode="&#xfe;" 
d="M219 -39v-145h-147v885h147v-174l-4 -76c40 36 89 57 139 57c123 0 199 -99 199 -252c0 -170 -106 -268 -214 -268c-49 0 -89 23 -123 54zM219 141c27 -24 60 -33 85 -33c53 0 98 44 98 146c0 89 -28 134 -92 134c-30 0 -60 -14 -91 -46v-201z" />
    <glyph glyph-name="ydieresis" unicode="&#xff;" 
d="M93 -72c13 -4 26 -6 39 -6c57 0 88 26 104 65l10 26l-215 483h146l83 -213c18 -47 34 -97 50 -149h4c13 49 30 100 45 149l73 213h139l-196 -501c-48 -125 -107 -189 -232 -189c-29 0 -55 4 -76 10zM198 571c-46 0 -79 34 -79 79c0 44 33 78 79 78s78 -34 78 -78
c0 -45 -32 -79 -78 -79zM416 571c-46 0 -78 34 -78 79c0 44 32 78 78 78s79 -34 79 -78c0 -45 -33 -79 -79 -79z" />
    <glyph glyph-name="Amacron" unicode="&#x100;" 
d="M441 813v-93h-282v93h282zM229 270h137l-15 60c-17 65 -35 142 -52 210h-4c-16 -69 -34 -145 -51 -210zM435 0l-39 155h-197l-40 -155h-150l203 652h176l203 -652h-156z" />
    <glyph glyph-name="amacron" unicode="&#x101;" 
d="M61 138c0 111 92 167 327 181c-5 45 -39 72 -106 72c-48 0 -95 -18 -151 -46l-52 96c68 39 147 67 232 67c139 0 224 -72 224 -224v-284h-120l-11 56h-4c-50 -38 -112 -68 -176 -68c-100 0 -163 66 -163 150zM202 149c0 -32 27 -47 69 -47c44 0 82 20 117 47v82
c-146 -8 -186 -39 -186 -82zM170 592v93h276v-93h-276z" />
    <glyph glyph-name="Abreve" unicode="&#x102;" 
d="M356 822h81c-8 -71 -50 -120 -137 -120s-129 49 -137 120h81c6 -26 22 -46 56 -46s50 20 56 46zM229 270h137l-15 60c-17 65 -35 142 -52 210h-4c-16 -69 -34 -145 -51 -210zM435 0l-39 155h-197l-40 -155h-150l203 652h176l203 -652h-156z" />
    <glyph glyph-name="abreve" unicode="&#x103;" 
d="M61 138c0 111 92 167 327 181c-5 45 -39 72 -106 72c-48 0 -95 -18 -151 -46l-52 96c68 39 147 67 232 67c139 0 224 -72 224 -224v-284h-120l-11 56h-4c-50 -38 -112 -68 -176 -68c-100 0 -163 66 -163 150zM202 149c0 -32 27 -47 69 -47c44 0 82 20 117 47v82
c-146 -8 -186 -39 -186 -82zM308 574c-99 0 -144 75 -147 156h82c5 -42 25 -75 65 -75s60 33 65 75h82c-2 -81 -48 -156 -147 -156z" />
    <glyph glyph-name="Aogonek" unicode="&#x104;" 
d="M229 270h137l-15 60c-17 65 -35 142 -52 210h-4c-16 -69 -33 -145 -51 -210zM579 -114l34 -74c-26 -20 -70 -35 -105 -35c-64 0 -114 34 -114 94c0 62 48 110 81 129h-40l-39 155h-197l-40 -155h-150l203 652h176l203 -652c-55 -5 -90 -50 -90 -90c0 -25 18 -38 39 -38
c15 0 29 7 39 14z" />
    <glyph glyph-name="aogonek" unicode="&#x105;" 
d="M61 138c0 111 92 167 327 181c-5 45 -39 72 -106 72c-48 0 -95 -18 -151 -46l-52 96c68 39 147 67 232 67c139 0 224 -72 224 -224v-284c-65 -18 -88 -55 -88 -85c0 -27 21 -38 42 -38c13 0 26 6 35 12l31 -66c-26 -20 -70 -33 -101 -33c-59 0 -106 31 -106 91
c0 59 43 100 68 117l-12 58h-4c-50 -38 -112 -68 -176 -68c-100 0 -163 66 -163 150zM202 149c0 -32 27 -47 69 -47c44 0 82 20 117 47v82c-146 -8 -186 -39 -186 -82z" />
    <glyph glyph-name="Cacute" unicode="&#x106;" 
d="M55 322c0 216 137 342 311 342c83 0 149 -40 193 -83l-81 -91c-31 28 -65 47 -112 47c-92 0 -160 -79 -160 -210c0 -134 68 -212 166 -212c47 0 84 23 116 58l81 -89c-54 -63 -124 -96 -206 -96c-168 0 -308 115 -308 334zM516 822l-120 -120h-117l81 120h156z" />
    <glyph glyph-name="cacute" unicode="&#x107;" 
d="M67 248c0 165 134 260 287 260c78 0 144 -28 186 -67l-68 -91c-38 27 -73 39 -110 39c-85 0 -144 -55 -144 -141s57 -141 139 -141c52 0 96 22 131 47l60 -93c-60 -50 -137 -73 -205 -73c-156 0 -276 95 -276 260zM498 741l-132 -167h-107l89 167h150z" />
    <glyph glyph-name="Ccircumflex" unicode="&#x108;" 
d="M55 322c0 216 137 342 311 342c83 0 149 -40 193 -83l-81 -91c-31 28 -65 47 -112 47c-92 0 -160 -79 -160 -210c0 -134 68 -212 166 -212c47 0 84 23 116 58l81 -89c-54 -63 -124 -96 -206 -96c-168 0 -308 115 -308 334zM298 702h-112l96 120h143l96 -120h-112l-53 61
h-4z" />
    <glyph glyph-name="ccircumflex" unicode="&#x109;" 
d="M67 248c0 165 134 260 287 260c78 0 144 -28 186 -67l-68 -91c-38 27 -73 39 -110 39c-85 0 -144 -55 -144 -141s57 -141 139 -141c52 0 96 22 131 47l60 -93c-60 -50 -137 -73 -205 -73c-156 0 -276 95 -276 260zM178 574l101 167h124l100 -167h-107l-53 95h-4l-53 -95
h-108z" />
    <glyph glyph-name="Cdotaccent" unicode="&#x10a;" 
d="M55 322c0 216 137 342 311 342c83 0 149 -40 193 -83l-81 -91c-31 28 -65 47 -112 47c-92 0 -160 -79 -160 -210c0 -134 68 -212 166 -212c47 0 84 23 116 58l81 -89c-54 -63 -124 -96 -206 -96c-168 0 -308 115 -308 334zM354 701c-50 0 -86 32 -86 77s36 77 86 77
c49 0 85 -32 85 -77s-36 -77 -85 -77z" />
    <glyph glyph-name="cdotaccent" unicode="&#x10b;" 
d="M67 248c0 165 134 260 287 260c78 0 144 -28 186 -67l-68 -91c-38 27 -73 39 -110 39c-85 0 -144 -55 -144 -141s57 -141 139 -141c52 0 96 22 131 47l60 -93c-60 -50 -137 -73 -205 -73c-156 0 -276 95 -276 260zM341 569c-57 0 -98 35 -98 89s41 92 98 92
c56 0 98 -38 98 -92s-42 -89 -98 -89z" />
    <glyph glyph-name="Ccaron" unicode="&#x10c;" 
d="M55 322c0 216 137 342 311 342c83 0 149 -40 193 -83l-81 -91c-31 28 -65 47 -112 47c-92 0 -160 -79 -160 -210c0 -134 68 -212 166 -212c47 0 84 23 116 58l81 -89c-54 -63 -124 -96 -206 -96c-168 0 -308 115 -308 334zM409 822h112l-96 -120h-143l-96 120h112l54 -61
h4z" />
    <glyph glyph-name="ccaron" unicode="&#x10d;" 
d="M67 248c0 165 134 260 287 260c78 0 144 -28 186 -67l-68 -91c-38 27 -73 39 -110 39c-85 0 -144 -55 -144 -141s57 -141 139 -141c52 0 96 22 131 47l60 -93c-60 -50 -137 -73 -205 -73c-156 0 -276 95 -276 260zM279 574l-101 167h108l53 -96h4l53 96h107l-100 -167
h-124z" />
    <glyph glyph-name="Dcaron" unicode="&#x10e;" 
d="M65 0v652h177c189 0 314 -99 314 -323s-125 -329 -306 -329h-185zM213 119h21c102 0 171 54 171 210s-69 204 -171 204h-21v-414zM352 822h112l-96 -120h-143l-96 120h112l54 -61h4z" />
    <glyph glyph-name="dcaron" unicode="&#x10f;" 
d="M25 248c0 162 104 260 212 260c56 0 92 -21 127 -53l-5 77v169h147v-701h-120l-11 51h-4c-36 -36 -87 -63 -137 -63c-127 0 -209 98 -209 260zM175 250c0 -98 36 -142 97 -142c33 0 61 13 87 46v201c-27 24 -54 33 -84 33c-53 0 -100 -44 -100 -138zM606 548h-63l-5 222
h94l-2 -69z" />
    <glyph glyph-name="Dcroat" unicode="&#x110;" 
d="M71 0v301h-69v66l69 5v280h178c188 0 313 -99 313 -323s-125 -329 -305 -329h-186zM219 119h21c101 0 171 54 171 210s-70 204 -171 204h-21v-161h107v-71h-107v-182z" />
    <glyph glyph-name="dcroat" unicode="&#x111;" 
d="M381 154v181c-27 23 -54 33 -81 33c-56 0 -102 -41 -102 -128c0 -91 35 -132 96 -132c33 0 61 13 87 46zM594 627v-65l-66 -5v-557h-120l-11 51h-3c-37 -36 -88 -63 -138 -63c-126 0 -209 94 -209 250s104 250 212 250c57 0 92 -21 127 -53l-5 77v44h-155v71h155v74h147
v-74h66z" />
    <glyph glyph-name="Emacron" unicode="&#x112;" 
d="M94 0v652h430v-124h-283v-131h240v-123h-240v-150h293v-124h-440zM180 720v93h283v-93h-283z" />
    <glyph glyph-name="emacron" unicode="&#x113;" 
d="M55 248c0 162 126 260 258 260c153 0 233 -103 233 -238c0 -26 -4 -53 -6 -65h-334c10 -74 71 -105 144 -105c45 0 84 12 128 34l48 -88c-56 -36 -130 -58 -196 -58c-154 0 -275 96 -275 260zM204 302h209c0 56 -30 94 -97 94c-53 0 -99 -30 -112 -94zM175 592v93h276
v-93h-276z" />
    <glyph glyph-name="Ebreve" unicode="&#x114;" 
d="M94 0v652h430v-124h-283v-131h240v-123h-240v-150h293v-124h-440zM322 702c-88 0 -130 49 -137 120h80c6 -26 22 -46 57 -46c34 0 50 20 56 46h80c-7 -71 -49 -120 -136 -120z" />
    <glyph glyph-name="ebreve" unicode="&#x115;" 
d="M55 248c0 162 126 260 258 260c153 0 233 -103 233 -238c0 -26 -4 -53 -6 -65h-334c10 -74 71 -105 144 -105c45 0 84 12 128 34l48 -88c-56 -36 -130 -58 -196 -58c-154 0 -275 96 -275 260zM204 302h209c0 56 -30 94 -97 94c-53 0 -99 -30 -112 -94zM313 574
c-99 0 -145 75 -148 156h82c6 -42 25 -75 66 -75c40 0 60 33 65 75h82c-3 -81 -48 -156 -147 -156z" />
    <glyph glyph-name="Edotaccent" unicode="&#x116;" 
d="M94 0v652h430v-124h-283v-131h240v-123h-240v-150h293v-124h-440zM322 701c-50 0 -86 32 -86 77s36 77 86 77c49 0 85 -32 85 -77s-36 -77 -85 -77z" />
    <glyph glyph-name="edotaccent" unicode="&#x117;" 
d="M55 248c0 162 126 260 258 260c153 0 233 -103 233 -238c0 -26 -4 -53 -6 -65h-334c10 -74 71 -105 144 -105c45 0 84 12 128 34l48 -88c-56 -36 -130 -58 -196 -58c-154 0 -275 96 -275 260zM204 302h209c0 56 -30 94 -97 94c-53 0 -99 -30 -112 -94zM313 569
c-57 0 -98 35 -98 89s41 92 98 92c56 0 97 -38 97 -92s-41 -89 -97 -89z" />
    <glyph glyph-name="Eogonek" unicode="&#x118;" 
d="M94 0v652h430v-124h-283v-131h240v-123h-240v-150h293v-124h-5c-46 -2 -86 -46 -86 -90c0 -26 21 -38 42 -38c13 0 26 7 36 14l33 -74c-25 -20 -69 -35 -104 -35c-64 0 -115 34 -115 94c0 61 45 108 79 129h-320z" />
    <glyph glyph-name="eogonek" unicode="&#x119;" 
d="M478 134l48 -88c-89 -62 -109 -92 -109 -131c0 -26 19 -38 43 -38c13 0 25 6 35 12l30 -66c-25 -20 -69 -33 -101 -33c-59 0 -104 31 -104 91c0 49 31 89 57 112c-22 -5 -32 -5 -47 -5c-154 0 -275 96 -275 260c0 162 126 260 258 260c153 0 233 -103 233 -238
c0 -26 -4 -53 -6 -65h-334c10 -74 71 -105 144 -105c45 0 84 12 128 34zM204 302h209c0 56 -30 94 -97 94c-53 0 -99 -30 -112 -94z" />
    <glyph glyph-name="Ecaron" unicode="&#x11a;" 
d="M94 0v652h430v-124h-283v-131h240v-123h-240v-150h293v-124h-440zM377 822h112l-96 -120h-143l-96 120h112l54 -61h4z" />
    <glyph glyph-name="ecaron" unicode="&#x11b;" 
d="M55 248c0 162 126 260 258 260c153 0 233 -103 233 -238c0 -26 -4 -53 -6 -65h-334c10 -74 71 -105 144 -105c45 0 84 12 128 34l48 -88c-56 -36 -130 -58 -196 -58c-154 0 -275 96 -275 260zM204 302h209c0 56 -30 94 -97 94c-53 0 -99 -30 -112 -94zM251 574l-101 167
h107l54 -96h4l53 96h107l-101 -167h-123z" />
    <glyph glyph-name="Gcircumflex" unicode="&#x11c;" 
d="M44 322c0 218 132 342 301 342c88 0 149 -41 191 -83l-81 -91c-28 28 -58 47 -110 47c-85 0 -149 -79 -149 -210c0 -134 52 -212 155 -212c25 0 50 7 64 20v112h-95v120h227v-300c-44 -41 -121 -79 -204 -79c-167 0 -299 115 -299 334zM275 702h-112l96 120h143l96 -120
h-112l-54 61h-4z" />
    <glyph glyph-name="gcircumflex" unicode="&#x11d;" 
d="M172 -62c0 -37 48 -57 126 -57c79 0 134 27 134 61c0 32 -30 39 -87 39h-62c-36 0 -58 2 -76 6c-25 -16 -35 -31 -35 -49zM52 -84c0 40 26 74 77 99v4c-27 17 -50 43 -50 85c0 33 24 69 59 93v4c-36 24 -65 69 -65 127c0 119 100 180 212 180c30 0 58 -4 82 -12h201v-107
h-101c12 -15 23 -40 23 -66c0 -114 -90 -166 -205 -166c-20 0 -43 3 -68 10c-15 -11 -22 -20 -22 -36c0 -27 26 -38 84 -38h92c130 0 201 -36 201 -125c0 -104 -115 -179 -295 -179c-129 0 -225 38 -225 127zM285 246c41 0 76 28 76 82c0 53 -35 81 -76 81s-74 -28 -74 -81
c0 -54 33 -82 74 -82zM142 574l100 167h124l101 -167h-107l-54 95h-4l-53 -95h-107z" />
    <glyph glyph-name="Gbreve" unicode="&#x11e;" 
d="M44 322c0 218 132 342 301 342c88 0 149 -41 191 -83l-81 -91c-28 28 -58 47 -110 47c-85 0 -149 -79 -149 -210c0 -134 52 -212 155 -212c25 0 50 7 64 20v112h-95v120h227v-300c-44 -41 -121 -79 -204 -79c-167 0 -299 115 -299 334zM330 702c-87 0 -129 49 -136 120
h80c6 -26 22 -46 56 -46c35 0 51 20 57 46h80c-8 -71 -49 -120 -137 -120z" />
    <glyph glyph-name="gbreve" unicode="&#x11f;" 
d="M172 -62c0 -37 48 -57 126 -57c79 0 134 27 134 61c0 32 -30 39 -87 39h-62c-36 0 -58 2 -76 6c-25 -16 -35 -31 -35 -49zM52 -84c0 40 26 74 77 99v4c-27 17 -50 43 -50 85c0 33 24 69 59 93v4c-36 24 -65 69 -65 127c0 119 100 180 212 180c30 0 58 -4 82 -12h201v-107
h-101c12 -15 23 -40 23 -66c0 -114 -90 -166 -205 -166c-20 0 -43 3 -68 10c-15 -11 -22 -20 -22 -36c0 -27 26 -38 84 -38h92c130 0 201 -36 201 -125c0 -104 -115 -179 -295 -179c-129 0 -225 38 -225 127zM285 246c41 0 76 28 76 82c0 53 -35 81 -76 81s-74 -28 -74 -81
c0 -54 33 -82 74 -82zM304 574c-99 0 -144 75 -147 156h82c5 -42 25 -75 65 -75c41 0 60 33 66 75h82c-3 -81 -49 -156 -148 -156z" />
    <glyph glyph-name="Gdotaccent" unicode="&#x120;" 
d="M44 322c0 218 132 342 301 342c88 0 149 -41 191 -83l-81 -91c-28 28 -58 47 -110 47c-85 0 -149 -79 -149 -210c0 -134 52 -212 155 -212c25 0 50 7 64 20v112h-95v120h227v-300c-44 -41 -121 -79 -204 -79c-167 0 -299 115 -299 334zM330 701c-49 0 -85 32 -85 77
s36 77 85 77c50 0 85 -32 85 -77s-35 -77 -85 -77z" />
    <glyph glyph-name="gdotaccent" unicode="&#x121;" 
d="M172 -62c0 -37 48 -57 126 -57c79 0 134 27 134 61c0 32 -30 39 -87 39h-62c-36 0 -58 2 -76 6c-25 -16 -35 -31 -35 -49zM52 -84c0 40 26 74 77 99v4c-27 17 -50 43 -50 85c0 33 24 69 59 93v4c-36 24 -65 69 -65 127c0 119 100 180 212 180c30 0 58 -4 82 -12h201v-107
h-101c12 -15 23 -40 23 -66c0 -114 -90 -166 -205 -166c-20 0 -43 3 -68 10c-15 -11 -22 -20 -22 -36c0 -27 26 -38 84 -38h92c130 0 201 -36 201 -125c0 -104 -115 -179 -295 -179c-129 0 -225 38 -225 127zM285 246c41 0 76 28 76 82c0 53 -35 81 -76 81s-74 -28 -74 -81
c0 -54 33 -82 74 -82zM304 569c-56 0 -97 35 -97 89s41 92 97 92c57 0 98 -38 98 -92s-41 -89 -98 -89z" />
    <glyph glyph-name="uni0122" unicode="&#x122;" 
d="M44 322c0 218 132 342 301 342c88 0 149 -41 191 -83l-81 -91c-28 28 -58 47 -110 47c-85 0 -149 -79 -149 -210c0 -134 52 -212 155 -212c25 0 50 7 64 20v112h-95v120h227v-300c-44 -41 -121 -79 -204 -79c-167 0 -299 115 -299 334zM299 -42c89 -9 121 -34 121 -84
c0 -68 -83 -98 -178 -103l-11 59c48 5 83 14 83 37c0 19 -14 29 -43 37z" />
    <glyph glyph-name="uni0123" unicode="&#x123;" 
d="M172 -62c0 -37 48 -57 126 -57c79 0 134 27 134 61c0 32 -30 39 -87 39h-62c-36 0 -58 2 -76 6c-25 -16 -35 -31 -35 -49zM52 -84c0 40 26 74 77 99v4c-27 17 -50 43 -50 85c0 33 24 69 59 93v4c-36 24 -65 69 -65 127c0 119 100 180 212 180c30 0 58 -4 82 -12h201v-107
h-101c12 -15 23 -40 23 -66c0 -114 -90 -166 -205 -166c-20 0 -43 3 -68 10c-15 -11 -22 -20 -22 -36c0 -27 26 -38 84 -38h92c130 0 201 -36 201 -125c0 -104 -115 -179 -295 -179c-129 0 -225 38 -225 127zM285 246c41 0 76 28 76 82c0 53 -35 81 -76 81s-74 -28 -74 -81
c0 -54 33 -82 74 -82zM339 545c-89 8 -120 33 -120 83c0 68 82 99 177 104l11 -59c-48 -5 -83 -15 -83 -38c0 -18 14 -29 44 -36z" />
    <glyph glyph-name="Hcircumflex" unicode="&#x124;" 
d="M64 0v652h147v-251h178v251h147v-652h-147v272h-178v-272h-147zM244 702h-113l96 120h144l96 -120h-113l-53 61h-4z" />
    <glyph glyph-name="hcircumflex" unicode="&#x125;" 
d="M72 0v701h147v-172l-8 -95c39 38 93 74 168 74c111 0 161 -77 161 -202v-306h-147v287c0 66 -19 96 -73 96c-40 0 -66 -18 -101 -52v-331h-147zM94 750h-112l96 120h143l96 -120h-112l-54 60h-4z" />
    <glyph glyph-name="Hbar" unicode="&#x126;" 
d="M389 401v85h-178v-85h178zM597 557v-71h-61v-486h-147v272h-178v-272h-147v486h-61v65l61 5v96h147v-95h178v95h147v-95h61z" />
    <glyph glyph-name="hbar" unicode="&#x127;" 
d="M219 509l-8 -95c39 38 93 74 168 74c111 0 161 -77 161 -202v-286h-147v267c0 66 -19 96 -73 96c-40 0 -66 -18 -101 -52v-311h-147v556h-66v65l66 5v75h147v-74h182v-71h-182v-47z" />
    <glyph glyph-name="Itilde" unicode="&#x128;" 
d="M74 0v124h152v404h-152v124h452v-124h-152v-404h152v-124h-452zM363 703c-54 0 -89 45 -120 45c-17 0 -31 -12 -38 -45h-75c10 91 55 136 107 136c54 0 89 -45 120 -45c17 0 31 12 38 45h75c-10 -91 -55 -136 -107 -136z" />
    <glyph glyph-name="itilde" unicode="&#x129;" 
d="M79 381v115h346v-496h-147v381h-199zM174 575c12 97 56 143 117 143c49 0 79 -52 107 -52c21 0 34 13 43 52h75c-12 -96 -56 -143 -117 -143c-50 0 -79 53 -107 53c-21 0 -34 -13 -43 -53h-75z" />
    <glyph glyph-name="Imacron" unicode="&#x12a;" 
d="M74 0v124h152v404h-152v124h452v-124h-152v-404h152v-124h-452zM159 720v93h282v-93h-282z" />
    <glyph glyph-name="imacron" unicode="&#x12b;" 
d="M79 381v115h346v-496h-147v381h-199zM207 592v93h276v-93h-276z" />
    <glyph glyph-name="uni012C" unicode="&#x12c;" 
d="M74 0v124h152v404h-152v124h452v-124h-152v-404h152v-124h-452zM300 702c-87 0 -129 49 -137 120h81c6 -26 22 -46 56 -46s50 20 56 46h81c-8 -71 -50 -120 -137 -120z" />
    <glyph glyph-name="uni012D" unicode="&#x12d;" 
d="M79 381v115h346v-496h-147v381h-199zM345 574c-99 0 -145 75 -147 156h82c5 -42 25 -75 65 -75s60 33 65 75h82c-2 -81 -48 -156 -147 -156z" />
    <glyph glyph-name="Iogonek" unicode="&#x12e;" 
d="M74 0v124h152v404h-152v124h452v-124h-152v-404h152v-124h-152c-54 -22 -75 -56 -75 -90c0 -26 21 -38 41 -38c14 0 28 7 37 14l34 -74c-26 -20 -70 -35 -105 -35c-63 0 -114 34 -114 94c0 64 45 108 74 129h-192z" />
    <glyph glyph-name="iogonek" unicode="&#x12f;" 
d="M278 0v381h-199v115h346v-496c-53 -20 -71 -55 -71 -85c0 -26 20 -38 42 -38c13 0 24 6 35 12l31 -66c-26 -20 -70 -33 -101 -33c-59 0 -106 31 -106 91c0 58 40 99 65 119h-42zM345 569c-57 0 -98 35 -98 89s41 92 98 92s98 -38 98 -92s-41 -89 -98 -89z" />
    <glyph glyph-name="Idotaccent" unicode="&#x130;" 
d="M74 0v124h152v404h-152v124h452v-124h-152v-404h152v-124h-452zM300 701c-49 0 -85 32 -85 77s36 77 85 77s85 -32 85 -77s-36 -77 -85 -77z" />
    <glyph glyph-name="dotlessi" unicode="&#x131;" 
d="M79 381v115h346v-496h-147v381h-199z" />
    <glyph glyph-name="Jcircumflex" unicode="&#x134;" 
d="M59 96l85 91c38 -47 81 -72 124 -72c67 0 101 29 101 119v295h-255v123h402v-430c0 -128 -63 -234 -243 -234c-72 0 -157 28 -214 108zM266 702h-112l96 120h143l96 -120h-112l-53 61h-4z" />
    <glyph glyph-name="jcircumflex" unicode="&#x135;" 
d="M79 381v115h346v-466c0 -121 -50 -226 -230 -226c-61 0 -110 14 -153 34l43 105c40 -18 72 -24 101 -24c71 0 92 33 92 105v357h-199zM183 574l100 167h124l100 -167h-107l-53 95h-4l-53 -95h-107z" />
    <glyph glyph-name="uni0136" unicode="&#x136;" 
d="M68 0v652h149v-267h3l193 267h162l-195 -260l214 -392h-163l-138 275l-76 -100v-175h-149zM288 -42c89 -9 121 -34 121 -84c0 -68 -83 -98 -178 -103l-11 59c48 5 83 14 83 37c0 19 -14 29 -43 37z" />
    <glyph glyph-name="uni0137" unicode="&#x137;" 
d="M76 0v701h147v-405h4l182 200h161l-188 -204l203 -292h-159l-130 202l-73 -77v-125h-147zM289 -42c89 -9 121 -34 121 -84c0 -68 -83 -98 -178 -103l-11 59c48 5 83 14 83 37c0 19 -14 29 -43 37z" />
    <glyph glyph-name="kgreenlandic" unicode="&#x138;" 
d="M76 0v496h147v-197l3 1l183 196h161l-188 -204l203 -292h-159l-129 195l-74 -72v-123h-147z" />
    <glyph glyph-name="Lacute" unicode="&#x139;" 
d="M107 0v652h147v-528h290v-124h-437zM357 822l-119 -120h-118l81 120h156z" />
    <glyph glyph-name="lacute" unicode="&#x13a;" 
d="M62 585v116h291v-513c0 -61 39 -81 80 -81c23 0 47 4 78 16l33 -108c-52 -16 -87 -27 -149 -27c-125 0 -189 80 -189 206v391h-144zM427 877l-120 -120h-117l81 120h156z" />
    <glyph glyph-name="uni013B" unicode="&#x13b;" 
d="M107 0v652h147v-528h290v-124h-437zM296 -42c90 -9 121 -34 121 -84c0 -68 -83 -98 -177 -103l-11 59c47 5 82 14 82 37c0 19 -13 29 -43 37z" />
    <glyph glyph-name="uni013C" unicode="&#x13c;" 
d="M62 585v116h291v-513c0 -61 39 -81 80 -81c23 0 47 4 78 16l33 -108c-52 -16 -87 -27 -149 -27c-125 0 -189 80 -189 206v391h-144zM326 -42c90 -9 121 -34 121 -84c0 -68 -83 -98 -177 -103l-11 59c47 5 82 14 82 37c0 19 -13 29 -43 37z" />
    <glyph glyph-name="Lcaron" unicode="&#x13d;" 
d="M107 0v652h147v-528h290v-124h-437zM449 510h-63l-5 222h94l-1 -70z" />
    <glyph glyph-name="lcaron" unicode="&#x13e;" 
d="M62 585v116h291v-513c0 -61 39 -81 80 -81c23 0 47 4 78 16l33 -108c-52 -16 -87 -27 -149 -27c-125 0 -189 80 -189 206v391h-144zM477 548h-63l-5 222h94l-1 -69z" />
    <glyph glyph-name="Ldot" unicode="&#x13f;" 
d="M107 0v652h147v-528h290v-124h-437zM453 264c-56 0 -97 36 -97 90s41 91 97 91c57 0 98 -37 98 -91s-41 -90 -98 -90z" />
    <glyph glyph-name="ldot" unicode="&#x140;" 
d="M12 585v116h291v-513c0 -61 39 -81 81 -81c23 0 46 4 77 16l33 -108c-51 -16 -87 -27 -149 -27c-124 0 -189 80 -189 206v391h-144zM471 262c-57 0 -98 36 -98 90s41 91 98 91s98 -37 98 -91s-41 -90 -98 -90z" />
    <glyph glyph-name="Lslash" unicode="&#x141;" 
d="M254 124h290v-124h-437v198l-74 -41v114l74 41v340h147v-268l206 113v-114l-206 -113v-146z" />
    <glyph glyph-name="lslash" unicode="&#x142;" 
d="M511 123l33 -108c-52 -16 -87 -27 -149 -27c-125 0 -189 80 -189 206v82l-113 -63v117l113 64v191h-144v116h291v-234l148 80v-117l-148 -81v-161c0 -61 39 -81 80 -81c23 0 47 4 78 16z" />
    <glyph glyph-name="Nacute" unicode="&#x143;" 
d="M66 0v652h150l138 -325l56 -143h4c-7 69 -21 161 -21 237v231h141v-652h-150l-138 325l-56 142h-4c7 -72 21 -159 21 -236v-231h-141zM468 822l-120 -120h-117l81 120h156z" />
    <glyph glyph-name="nacute" unicode="&#x144;" 
d="M72 0v496h120l11 -66h4c43 42 97 78 171 78c112 0 162 -77 162 -202v-306h-147v287c0 66 -19 96 -73 96c-40 0 -66 -18 -101 -52v-331h-147zM473 741l-133 -167h-107l89 167h151z" />
    <glyph glyph-name="uni0145" unicode="&#x145;" 
d="M66 0v652h150l138 -325l56 -143h4c-7 69 -21 161 -21 237v231h141v-652h-150l-138 325l-56 142h-4c7 -72 21 -159 21 -236v-231h-141zM264 -42c90 -9 121 -34 121 -84c0 -68 -82 -98 -177 -103l-11 59c48 5 83 14 83 37c0 19 -14 29 -44 37z" />
    <glyph glyph-name="uni0146" unicode="&#x146;" 
d="M72 0v496h120l11 -66h4c43 42 97 78 171 78c112 0 162 -77 162 -202v-306h-147v287c0 66 -19 96 -73 96c-40 0 -66 -18 -101 -52v-331h-147zM271 -42c89 -9 121 -34 121 -84c0 -68 -83 -98 -178 -103l-10 59c47 5 82 14 82 37c0 19 -14 29 -43 37z" />
    <glyph glyph-name="Ncaron" unicode="&#x147;" 
d="M66 0v652h150l138 -325l56 -143h4c-7 69 -21 161 -21 237v231h141v-652h-150l-138 325l-56 142h-4c7 -72 21 -159 21 -236v-231h-141zM361 822h113l-96 -120h-144l-96 120h113l53 -61h4z" />
    <glyph glyph-name="ncaron" unicode="&#x148;" 
d="M72 0v496h120l11 -66h4c43 42 97 78 171 78c112 0 162 -77 162 -202v-306h-147v287c0 66 -19 96 -73 96c-40 0 -66 -18 -101 -52v-331h-147zM253 574l-100 167h107l53 -96h4l53 96h107l-100 -167h-124z" />
    <glyph glyph-name="napostrophe" unicode="&#x149;" 
d="M-7 290l-39 78c69 31 107 76 112 138c-7 -1 -14 -2 -20 -2c-54 0 -91 37 -91 92c0 61 40 101 95 101c75 0 118 -60 118 -160c0 -109 -58 -194 -175 -247zM347 432h4c39 41 84 76 150 76c99 0 143 -76 143 -200v-308h-147v289c0 65 -15 94 -55 94c-32 0 -50 -18 -79 -50
v-333h-147v496h120z" />
    <glyph glyph-name="Omacron" unicode="&#x14c;" 
d="M300 -12c-155 0 -262 128 -262 341s107 335 262 335s262 -123 262 -335c0 -213 -107 -341 -262 -341zM300 115c68 0 111 83 111 214c0 130 -43 208 -111 208s-111 -78 -111 -208c0 -131 43 -214 111 -214zM159 720v93h282v-93h-282z" />
    <glyph glyph-name="omacron" unicode="&#x14d;" 
d="M47 248c0 165 122 260 253 260s253 -95 253 -260s-122 -260 -253 -260s-253 95 -253 260zM198 248c0 -86 34 -141 102 -141s102 55 102 141s-34 141 -102 141s-102 -55 -102 -141zM162 592v93h276v-93h-276z" />
    <glyph glyph-name="uni014E" unicode="&#x14e;" 
d="M300 -12c-155 0 -262 128 -262 341s107 335 262 335s262 -123 262 -335c0 -213 -107 -341 -262 -341zM300 115c68 0 111 83 111 214c0 130 -43 208 -111 208s-111 -78 -111 -208c0 -131 43 -214 111 -214zM300 702c-87 0 -129 49 -137 120h81c6 -26 22 -46 56 -46
s50 20 56 46h81c-8 -71 -50 -120 -137 -120z" />
    <glyph glyph-name="uni014F" unicode="&#x14f;" 
d="M47 248c0 165 122 260 253 260s253 -95 253 -260s-122 -260 -253 -260s-253 95 -253 260zM198 248c0 -86 34 -141 102 -141s102 55 102 141s-34 141 -102 141s-102 -55 -102 -141zM300 574c-99 0 -145 75 -147 156h82c5 -42 25 -75 65 -75s60 33 65 75h82
c-2 -81 -48 -156 -147 -156z" />
    <glyph glyph-name="Ohungarumlaut" unicode="&#x150;" 
d="M300 -12c-155 0 -262 128 -262 341s107 335 262 335s262 -123 262 -335c0 -213 -107 -341 -262 -341zM300 115c68 0 111 83 111 214c0 130 -43 208 -111 208s-111 -78 -111 -208c0 -131 43 -214 111 -214zM262 702h-99l63 120h125zM342 702l64 120h125l-90 -120h-99z" />
    <glyph glyph-name="ohungarumlaut" unicode="&#x151;" 
d="M47 248c0 165 122 260 253 260s253 -95 253 -260s-122 -260 -253 -260s-253 95 -253 260zM198 248c0 -86 34 -141 102 -141s102 55 102 141s-34 141 -102 141s-102 -55 -102 -141zM175 573l68 151h117l-95 -151h-90zM345 573l69 151h117l-95 -151h-91z" />
    <glyph glyph-name="OE" unicode="&#x152;" 
d="M19 329c0 224 118 323 276 323h290v-123h-160v-132h121v-123h-121v-150h170v-124h-308c-154 0 -268 105 -268 329zM170 329c0 -158 42 -210 108 -210h16v414h-16c-66 0 -108 -47 -108 -204z" />
    <glyph glyph-name="oe" unicode="&#x153;" 
d="M144 248c0 -86 20 -142 62 -142c36 0 56 56 56 142s-20 142 -56 142c-42 0 -62 -56 -62 -142zM12 248c0 165 84 260 186 260c57 0 97 -34 121 -86c27 55 70 86 119 86c99 0 154 -109 154 -239c0 -27 -2 -42 -6 -64h-222c11 -68 43 -102 90 -102c26 0 48 8 74 26l50 -94
c-38 -30 -89 -47 -130 -47c-52 0 -99 28 -128 77c-29 -50 -66 -77 -125 -77c-102 0 -183 95 -183 260zM362 295h114c0 55 -11 101 -49 101c-34 0 -59 -32 -65 -101z" />
    <glyph glyph-name="Racute" unicode="&#x154;" 
d="M465 822l-120 -120h-117l81 120h156zM217 535v-183h72c78 0 119 33 119 97s-41 86 -119 86h-72zM584 0h-165l-125 235h-77v-235h-147v652h231c138 0 252 -48 252 -203c0 -96 -47 -157 -116 -188z" />
    <glyph glyph-name="racute" unicode="&#x155;" 
d="M116 0v496h120l12 -108h3c49 81 122 120 201 120c44 0 67 -7 96 -20l-30 -123c-31 9 -51 14 -88 14c-61 0 -125 -32 -167 -121v-258h-147zM497 741l-133 -167h-107l89 167h151z" />
    <glyph glyph-name="uni0156" unicode="&#x156;" 
d="M256 -96l28 54c90 -9 121 -34 121 -84c0 -68 -82 -98 -177 -103l-11 59c48 5 83 14 83 37c0 19 -14 29 -44 37zM217 535v-183h72c78 0 119 33 119 97s-41 86 -119 86h-72zM437 261l147 -261h-165l-125 235h-77v-235h-147v652h231c138 0 252 -48 252 -203
c0 -96 -47 -157 -116 -188z" />
    <glyph glyph-name="uni0157" unicode="&#x157;" 
d="M116 0v496h120l12 -108h3c49 81 122 120 201 120c44 0 67 -7 96 -20l-30 -123c-31 9 -51 14 -88 14c-61 0 -125 -32 -167 -121v-258h-147zM167 -42c90 -9 121 -34 121 -84c0 -68 -82 -98 -177 -103l-11 59c48 5 82 14 82 37c0 19 -13 29 -43 37z" />
    <glyph glyph-name="Rcaron" unicode="&#x158;" 
d="M374 702h-143l-96 120h112l54 -61h4l53 61h112zM217 535v-183h72c78 0 119 33 119 97s-41 86 -119 86h-72zM584 0h-165l-125 235h-77v-235h-147v652h231c138 0 252 -48 252 -203c0 -96 -47 -157 -116 -188z" />
    <glyph glyph-name="rcaron" unicode="&#x159;" 
d="M116 0v496h120l12 -108h3c49 81 122 120 201 120c44 0 67 -7 96 -20l-30 -123c-31 9 -51 14 -88 14c-61 0 -125 -32 -167 -121v-258h-147zM277 574l-100 167h107l53 -96h4l53 96h107l-100 -167h-124z" />
    <glyph glyph-name="Sacute" unicode="&#x15a;" 
d="M50 82l85 101c49 -40 110 -68 167 -68c68 0 98 24 98 63c0 41 -38 54 -101 78l-84 36c-73 27 -139 83 -139 178c0 108 98 194 239 194c79 0 158 -30 217 -86l-75 -93c-45 33 -86 52 -142 52c-57 0 -90 -22 -90 -59c0 -40 44 -54 107 -77l79 -34c86 -32 140 -85 140 -177
c0 -108 -91 -202 -253 -202c-88 0 -178 32 -248 94zM469 822l-119 -120h-117l80 120h156z" />
    <glyph glyph-name="sacute" unicode="&#x15b;" 
d="M53 64l66 92c57 -36 114 -59 180 -59c67 0 95 16 95 42c0 30 -53 47 -133 69c-87 24 -177 66 -177 145c0 92 87 155 229 155c88 0 162 -35 214 -68l-66 -88c-45 27 -93 47 -145 47c-62 0 -86 -14 -86 -39c0 -30 57 -45 127 -63c98 -26 183 -63 183 -149
c0 -90 -85 -160 -244 -160c-89 0 -180 34 -243 76zM470 741l-132 -167h-107l89 167h150z" />
    <glyph glyph-name="Scircumflex" unicode="&#x15c;" 
d="M50 82l85 101c49 -40 110 -68 167 -68c68 0 98 24 98 63c0 41 -38 54 -101 78l-84 36c-73 27 -139 83 -139 178c0 108 98 194 239 194c79 0 158 -30 217 -86l-75 -93c-45 33 -86 52 -142 52c-57 0 -90 -22 -90 -59c0 -40 44 -54 107 -77l79 -34c86 -32 140 -85 140 -177
c0 -108 -91 -202 -253 -202c-88 0 -178 32 -248 94zM252 702h-112l96 120h143l96 -120h-112l-54 61h-4z" />
    <glyph glyph-name="scircumflex" unicode="&#x15d;" 
d="M53 64l66 92c57 -36 114 -59 180 -59c67 0 95 16 95 42c0 30 -53 47 -133 69c-87 24 -177 66 -177 145c0 92 87 155 229 155c88 0 162 -35 214 -68l-66 -88c-45 27 -93 47 -145 47c-62 0 -86 -14 -86 -39c0 -30 57 -45 127 -63c98 -26 183 -63 183 -149
c0 -90 -85 -160 -244 -160c-89 0 -180 34 -243 76zM150 574l101 167h123l101 -167h-107l-54 95h-4l-53 -95h-107z" />
    <glyph glyph-name="uni015E" unicode="&#x15e;" 
d="M332 401l79 -34c86 -32 140 -85 140 -177c0 -97 -74 -184 -208 -199l-14 -34c34 -11 58 -33 58 -74c0 -69 -82 -99 -177 -104l-11 59c48 5 83 18 83 44c0 17 -14 31 -58 42l33 66c-74 9 -148 40 -207 92l85 101c49 -40 110 -68 167 -68c68 0 98 24 98 63
c0 41 -38 54 -101 78l-84 36c-73 27 -139 83 -139 178c0 108 98 194 239 194c79 0 158 -30 217 -86l-75 -93c-45 33 -86 52 -142 52c-57 0 -90 -22 -90 -59c0 -40 44 -54 107 -77z" />
    <glyph glyph-name="uni015F" unicode="&#x15f;" 
d="M527 440l-66 -88c-45 27 -93 47 -145 47c-62 0 -86 -14 -86 -39c0 -30 57 -45 127 -63c98 -26 183 -63 183 -149c0 -79 -65 -142 -187 -157l-15 -34c34 -11 58 -33 58 -74c0 -69 -82 -99 -177 -104l-11 59c48 5 83 18 83 44c0 17 -14 31 -59 42l33 65
c-79 7 -156 38 -212 75l66 92c57 -36 114 -59 180 -59c67 0 95 16 95 42c0 30 -53 47 -133 69c-87 24 -177 66 -177 145c0 92 87 155 229 155c88 0 162 -35 214 -68z" />
    <glyph glyph-name="Scaron" unicode="&#x160;" 
d="M50 82l85 101c49 -40 110 -68 167 -68c68 0 98 24 98 63c0 41 -38 54 -101 78l-84 36c-73 27 -139 83 -139 178c0 108 98 194 239 194c79 0 158 -30 217 -86l-75 -93c-45 33 -86 52 -142 52c-57 0 -90 -22 -90 -59c0 -40 44 -54 107 -77l79 -34c86 -32 140 -85 140 -177
c0 -108 -91 -202 -253 -202c-88 0 -178 32 -248 94zM363 822h112l-96 -120h-143l-96 120h112l53 -61h4z" />
    <glyph glyph-name="scaron" unicode="&#x161;" 
d="M53 64l66 92c57 -36 114 -59 180 -59c67 0 95 16 95 42c0 30 -53 47 -133 69c-87 24 -177 66 -177 145c0 92 87 155 229 155c88 0 162 -35 214 -68l-66 -88c-45 27 -93 47 -145 47c-62 0 -86 -14 -86 -39c0 -30 57 -45 127 -63c98 -26 183 -63 183 -149
c0 -90 -85 -160 -244 -160c-89 0 -180 34 -243 76zM251 574l-101 167h107l53 -96h4l54 96h107l-101 -167h-123z" />
    <glyph glyph-name="uni0162" unicode="&#x162;" 
d="M374 0h-30l-18 -43c33 -11 58 -33 58 -74c0 -69 -83 -99 -177 -104l-11 59c47 5 82 18 82 44c0 17 -13 31 -58 42l38 76h-32v528h-195v124h538v-124h-195v-528z" />
    <glyph glyph-name="uni0163" unicode="&#x163;" 
d="M414 -11l-14 -32c34 -11 58 -33 58 -74c0 -69 -82 -99 -177 -104l-11 59c48 5 83 18 83 44c0 17 -14 31 -59 42l34 69c-112 20 -154 101 -154 213v175h-125v109l132 6l19 132h121v-132h210v-115h-210v-174c0 -75 32 -104 104 -104c38 0 70 8 99 18l26 -106
c-38 -11 -84 -23 -136 -26z" />
    <glyph glyph-name="Tcaron" unicode="&#x164;" 
d="M226 0v528h-195v124h538v-124h-195v-528h-148zM355 822h113l-96 -120h-144l-96 120h113l53 -61h4z" />
    <glyph glyph-name="tcaron" unicode="&#x165;" 
d="M174 206v175h-125v109l132 6l19 132h121v-132h210v-115h-210v-174c0 -75 32 -104 104 -104c38 0 70 8 99 18l26 -106c-44 -13 -98 -27 -162 -27c-158 0 -214 88 -214 218zM453 548h-63l-5 222h94l-2 -69z" />
    <glyph glyph-name="Utilde" unicode="&#x168;" 
d="M64 251v401h147v-416c0 -78 29 -121 91 -121s92 43 92 121v416h142v-401c0 -169 -76 -263 -234 -263c-159 0 -238 94 -238 263zM363 703c-54 0 -89 45 -120 45c-17 0 -31 -12 -38 -45h-75c10 91 55 136 107 136c54 0 89 -45 120 -45c17 0 31 12 38 45h75
c-10 -91 -55 -136 -107 -136z" />
    <glyph glyph-name="utilde" unicode="&#x169;" 
d="M525 496v-496h-120l-11 71h-4c-44 -50 -96 -83 -167 -83c-113 0 -161 77 -161 202v306h147v-287c0 -66 17 -96 72 -96c37 0 63 13 97 57v326h147zM125 575c12 97 56 143 117 143c48 0 79 -52 106 -52c22 0 34 13 43 52h75c-12 -96 -55 -143 -116 -143
c-50 0 -79 53 -107 53c-21 0 -34 -13 -43 -53h-75z" />
    <glyph glyph-name="Umacron" unicode="&#x16a;" 
d="M64 251v401h147v-416c0 -78 29 -121 91 -121s92 43 92 121v416h142v-401c0 -169 -76 -263 -234 -263c-159 0 -238 94 -238 263zM159 720v93h282v-93h-282z" />
    <glyph glyph-name="umacron" unicode="&#x16b;" 
d="M525 496v-496h-120l-11 71h-4c-44 -50 -96 -83 -167 -83c-113 0 -161 77 -161 202v306h147v-287c0 -66 17 -96 72 -96c37 0 63 13 97 57v326h147zM158 592v93h276v-93h-276z" />
    <glyph glyph-name="Ubreve" unicode="&#x16c;" 
d="M64 251v401h147v-416c0 -78 29 -121 91 -121s92 43 92 121v416h142v-401c0 -169 -76 -263 -234 -263c-159 0 -238 94 -238 263zM300 702c-87 0 -129 49 -137 120h81c6 -26 22 -46 56 -46s50 20 56 46h81c-8 -71 -50 -120 -137 -120z" />
    <glyph glyph-name="ubreve" unicode="&#x16d;" 
d="M525 496v-496h-120l-11 71h-4c-44 -50 -96 -83 -167 -83c-113 0 -161 77 -161 202v306h147v-287c0 -66 17 -96 72 -96c37 0 63 13 97 57v326h147zM296 574c-99 0 -145 75 -148 156h82c6 -42 25 -75 66 -75c40 0 60 33 65 75h82c-3 -81 -48 -156 -147 -156z" />
    <glyph glyph-name="Uring" unicode="&#x16e;" 
d="M64 251v401h147v-416c0 -78 29 -121 91 -121s92 43 92 121v416h142v-401c0 -169 -76 -263 -234 -263c-159 0 -238 94 -238 263zM300 697c-67 0 -113 38 -113 98c0 59 46 98 113 98s113 -39 113 -98c0 -60 -46 -98 -113 -98zM300 752c22 0 40 16 40 43c0 26 -18 43 -40 43
c-23 0 -41 -17 -41 -43c0 -27 18 -43 41 -43z" />
    <glyph glyph-name="uring" unicode="&#x16f;" 
d="M525 496v-496h-120l-11 71h-4c-44 -50 -96 -83 -167 -83c-113 0 -161 77 -161 202v306h147v-287c0 -66 17 -96 72 -96c37 0 63 13 97 57v326h147zM296 548c-67 0 -113 40 -113 102s46 102 113 102s112 -40 112 -102s-45 -102 -112 -102zM296 603c22 0 40 19 40 47
s-18 47 -40 47c-23 0 -41 -19 -41 -47s18 -47 41 -47z" />
    <glyph glyph-name="Uhungarumlaut" unicode="&#x170;" 
d="M64 251v401h147v-416c0 -78 29 -121 91 -121s92 43 92 121v416h142v-401c0 -169 -76 -263 -234 -263c-159 0 -238 94 -238 263zM262 702h-99l63 120h125zM342 702l64 120h125l-90 -120h-99z" />
    <glyph glyph-name="uhungarumlaut" unicode="&#x171;" 
d="M525 496v-496h-120l-11 71h-4c-44 -50 -96 -83 -167 -83c-113 0 -161 77 -161 202v306h147v-287c0 -66 17 -96 72 -96c37 0 63 13 97 57v326h147zM170 573l69 151h117l-96 -151h-90zM341 573l69 151h117l-96 -151h-90z" />
    <glyph glyph-name="Uogonek" unicode="&#x172;" 
d="M64 251v401h147v-416c0 -78 29 -121 90 -121c62 0 93 43 93 121v416h142v-401c0 -124 -42 -203 -124 -242c-77 -37 -94 -71 -94 -99c0 -26 21 -38 42 -38c13 0 26 7 35 14l34 -74c-25 -20 -69 -35 -104 -35c-64 0 -115 34 -115 94c0 62 47 102 64 119
c-141 9 -210 104 -210 261z" />
    <glyph glyph-name="uogonek" unicode="&#x173;" 
d="M525 496v-496c-66 -20 -88 -55 -88 -85c0 -26 21 -38 42 -38c13 0 26 6 35 12l31 -66c-26 -20 -70 -33 -101 -33c-59 0 -106 31 -106 91c0 59 42 99 68 117l-12 73h-4c-44 -50 -96 -83 -167 -83c-113 0 -161 77 -161 202v306h147v-287c0 -66 17 -96 72 -96
c37 0 63 13 97 57v326h147z" />
    <glyph glyph-name="Wcircumflex" unicode="&#x174;" 
d="M91 0l-87 652h150l21 -347c1 -56 3 -111 4 -166h3c10 55 24 111 35 166l45 181h89l43 -181c10 -53 24 -110 34 -166h4c2 56 3 112 5 166l19 347h140l-81 -652h-154l-41 205c-8 41 -15 86 -18 125h-3c-4 -39 -10 -84 -18 -125l-39 -205h-151zM245 702h-113l96 120h144
l96 -120h-113l-53 61h-4z" />
    <glyph glyph-name="wcircumflex" unicode="&#x175;" 
d="M86 0l-82 496h144l30 -230c7 -49 10 -97 17 -147h3c6 50 13 100 23 147l31 164h103l33 -164c9 -49 17 -97 24 -147h4c7 50 9 98 16 147l30 230h134l-77 -496h-170l-28 165c-7 46 -13 93 -19 146h-4c-4 -36 -8 -78 -18 -146l-27 -165h-167zM138 574l101 167h124l100 -167
h-107l-53 95h-4l-53 -95h-108z" />
    <glyph glyph-name="Ycircumflex" unicode="&#x176;" 
d="M226 0v220l-210 432h158l66 -157c19 -50 39 -97 59 -149h4c21 52 41 99 61 149l66 157h154l-210 -432v-220h-148zM245 702h-113l96 120h144l96 -120h-113l-53 61h-4z" />
    <glyph glyph-name="ycircumflex" unicode="&#x177;" 
d="M93 -72c13 -4 26 -6 39 -6c57 0 88 26 104 65l10 26l-215 483h146l83 -213c18 -47 34 -97 50 -149h4c13 49 30 100 45 149l73 213h139l-196 -501c-48 -125 -107 -189 -232 -189c-29 0 -55 4 -76 10zM145 574l100 167h124l100 -167h-107l-53 95h-4l-53 -95h-107z" />
    <glyph glyph-name="Ydieresis" unicode="&#x178;" 
d="M226 0v220l-210 432h158l66 -157c19 -50 39 -97 59 -149h4c21 52 41 99 61 149l66 157h154l-210 -432v-220h-148zM201 700c-41 0 -70 30 -70 70s29 70 70 70s70 -30 70 -70s-29 -70 -70 -70zM399 700c-41 0 -70 30 -70 70s29 70 70 70s70 -30 70 -70s-29 -70 -70 -70z
" />
    <glyph glyph-name="Zacute" unicode="&#x179;" 
d="M56 0v89l306 440h-277v123h458v-89l-305 -439h309v-124h-491zM476 822l-119 -120h-117l80 120h156z" />
    <glyph glyph-name="zacute" unicode="&#x17a;" 
d="M70 0v79l260 302h-228v115h431v-78l-260 -303h268v-115h-471zM480 741l-132 -167h-107l89 167h150z" />
    <glyph glyph-name="Zdotaccent" unicode="&#x17b;" 
d="M56 0v89l306 440h-277v123h458v-89l-305 -439h309v-124h-491zM314 701c-49 0 -85 32 -85 77s36 77 85 77c50 0 85 -32 85 -77s-35 -77 -85 -77z" />
    <glyph glyph-name="zdotaccent" unicode="&#x17c;" 
d="M70 0v79l260 302h-228v115h431v-78l-260 -303h268v-115h-471zM323 569c-57 0 -98 35 -98 89s41 92 98 92s98 -38 98 -92s-41 -89 -98 -89z" />
    <glyph glyph-name="Zcaron" unicode="&#x17d;" 
d="M56 0v89l306 440h-277v123h458v-89l-305 -439h309v-124h-491zM370 822h112l-96 -120h-143l-96 120h112l53 -61h4z" />
    <glyph glyph-name="zcaron" unicode="&#x17e;" 
d="M70 0v79l260 302h-228v115h431v-78l-260 -303h268v-115h-471zM261 574l-100 167h107l53 -96h4l53 96h107l-100 -167h-124z" />
    <glyph glyph-name="uni0180" unicode="&#x180;" 
d="M219 322v-181c28 -24 60 -33 86 -33c54 0 97 40 97 136c0 82 -29 124 -91 124c-32 0 -61 -14 -92 -46zM219 509l-4 -78c39 36 90 57 138 57c124 0 200 -95 200 -241c0 -165 -104 -259 -215 -259c-46 0 -94 23 -135 66h-4l-12 -54h-115v556h-66v65l66 5v75h147v-74h182
v-71h-182v-47z" />
    <glyph glyph-name="uni018F" unicode="&#x18f;" 
d="M411 264l-203 -1c7 -99 45 -150 100 -150c52 0 91 52 103 151zM189 490l-65 101c45 42 104 73 188 73c147 0 248 -124 248 -337s-103 -339 -252 -339s-250 124 -250 335c0 15 1 31 3 48h352c-8 110 -47 168 -119 168c-46 0 -79 -23 -105 -49z" />
    <glyph glyph-name="uni0192" unicode="&#x192;" 
d="M550 645l-28 -110c-15 6 -33 12 -56 12c-51 0 -75 -32 -83 -78l-7 -55h115v-107h-127l-23 -189c-15 -119 -56 -214 -199 -214c-44 0 -79 7 -96 16l20 108c17 -5 36 -8 54 -9c54 2 71 28 87 142l17 146h-87v101l75 6h24l5 43c22 146 75 207 213 207c28 0 75 -9 96 -19z
" />
    <glyph glyph-name="Ohorn" unicode="&#x1a0;" 
d="M300 115c68 0 111 83 111 214c0 130 -43 208 -111 208s-111 -78 -111 -208c0 -131 43 -214 111 -214zM466 740l100 44c15 -18 29 -47 29 -80c0 -68 -46 -107 -110 -123c48 -57 77 -143 77 -252c0 -213 -107 -341 -262 -341s-262 128 -262 341s107 335 262 335
c45 0 86 -11 122 -31c36 8 59 22 59 61c0 18 -8 34 -15 46z" />
    <glyph glyph-name="ohorn" unicode="&#x1a1;" 
d="M300 107c68 0 102 55 102 141s-34 141 -102 141s-102 -55 -102 -141s34 -141 102 -141zM455 594l100 44c15 -18 30 -47 30 -80c0 -67 -45 -105 -106 -121c45 -44 74 -108 74 -189c0 -165 -122 -260 -253 -260s-253 95 -253 260s122 260 253 260c36 0 72 -7 105 -22
c40 8 66 21 66 62c0 18 -8 35 -16 46z" />
    <glyph glyph-name="Uhorn" unicode="&#x1af;" 
d="M531 760l100 44c15 -18 29 -47 29 -80c0 -75 -54 -113 -124 -126v-347c0 -169 -76 -263 -234 -263c-159 0 -238 94 -238 263v401h147v-416c0 -78 29 -121 91 -121s92 43 92 121v416h70c40 2 82 10 82 62c0 18 -8 34 -15 46z" />
    <glyph glyph-name="uhorn" unicode="&#x1b0;" 
d="M493 604l100 44c15 -18 29 -47 29 -80c0 -65 -43 -102 -97 -118v-450h-120l-11 71h-4c-44 -50 -96 -83 -167 -83c-113 0 -161 77 -161 202v306h147v-287c0 -66 17 -96 72 -96c37 0 63 13 97 57v326h49c38 2 81 10 81 62c0 18 -8 35 -15 46z" />
    <glyph glyph-name="uni01CD" unicode="&#x1cd;" 
d="M372 702h-144l-96 120h113l53 -61h4l53 61h113zM229 270h137l-15 60c-17 65 -35 142 -52 210h-4c-16 -69 -34 -145 -51 -210zM435 0l-39 155h-197l-40 -155h-150l203 652h176l203 -652h-156z" />
    <glyph glyph-name="uni01CE" unicode="&#x1ce;" 
d="M61 138c0 111 92 167 327 181c-5 45 -39 72 -106 72c-48 0 -95 -18 -151 -46l-52 96c68 39 147 67 232 67c139 0 224 -72 224 -224v-284h-120l-11 56h-4c-50 -38 -112 -68 -176 -68c-100 0 -163 66 -163 150zM202 149c0 -32 27 -47 69 -47c44 0 82 20 117 47v82
c-146 -8 -186 -39 -186 -82zM246 574l-100 167h107l53 -96h4l53 96h107l-100 -167h-124z" />
    <glyph glyph-name="uni01CF" unicode="&#x1cf;" 
d="M74 0v124h152v404h-152v124h452v-124h-152v-404h152v-124h-452zM355 822h113l-96 -120h-144l-96 120h113l53 -61h4z" />
    <glyph glyph-name="uni01D0" unicode="&#x1d0;" 
d="M79 381v115h346v-496h-147v381h-199zM283 574l-100 167h107l53 -96h4l53 96h107l-100 -167h-124z" />
    <glyph glyph-name="uni01D1" unicode="&#x1d1;" 
d="M300 -12c-155 0 -262 128 -262 341s107 335 262 335s262 -123 262 -335c0 -213 -107 -341 -262 -341zM300 115c68 0 111 83 111 214c0 130 -43 208 -111 208s-111 -78 -111 -208c0 -131 43 -214 111 -214zM355 822h113l-96 -120h-144l-96 120h113l53 -61h4z" />
    <glyph glyph-name="uni01D2" unicode="&#x1d2;" 
d="M47 248c0 165 122 260 253 260s253 -95 253 -260s-122 -260 -253 -260s-253 95 -253 260zM198 248c0 -86 34 -141 102 -141s102 55 102 141s-34 141 -102 141s-102 -55 -102 -141zM238 574l-100 167h107l53 -96h4l53 96h107l-100 -167h-124z" />
    <glyph glyph-name="uni01D3" unicode="&#x1d3;" 
d="M64 251v401h147v-416c0 -78 29 -121 91 -121s92 43 92 121v416h142v-401c0 -169 -76 -263 -234 -263c-159 0 -238 94 -238 263zM355 822h113l-96 -120h-144l-96 120h113l53 -61h4z" />
    <glyph glyph-name="uni01D4" unicode="&#x1d4;" 
d="M525 496v-496h-120l-11 71h-4c-44 -50 -96 -83 -167 -83c-113 0 -161 77 -161 202v306h147v-287c0 -66 17 -96 72 -96c37 0 63 13 97 57v326h147zM234 574l-101 167h107l54 -96h4l53 96h107l-101 -167h-123z" />
    <glyph glyph-name="uni01D5" unicode="&#x1d5;" 
d="M64 251v401h147v-416c0 -78 29 -121 91 -121s92 43 92 121v416h142v-401c0 -169 -76 -263 -234 -263c-159 0 -238 94 -238 263zM159 872v69h282v-69h-282zM201 700c-36 0 -62 27 -62 62c0 34 26 61 62 61s62 -27 62 -61c0 -35 -26 -62 -62 -62zM399 700
c-36 0 -62 27 -62 62c0 34 26 61 62 61s62 -27 62 -61c0 -35 -26 -62 -62 -62z" />
    <glyph glyph-name="uni01D6" unicode="&#x1d6;" 
d="M525 496v-496h-120l-11 71h-4c-44 -50 -96 -83 -167 -83c-113 0 -161 77 -161 202v306h147v-287c0 -66 17 -96 72 -96c37 0 63 13 97 57v326h147zM197 571c-37 0 -62 27 -62 61c0 35 25 62 62 62c36 0 61 -27 61 -62c0 -34 -25 -61 -61 -61zM395 571c-36 0 -62 27 -62 61
c0 35 26 62 62 62s61 -27 61 -62c0 -34 -25 -61 -61 -61zM157 756v69h277v-69h-277z" />
    <glyph glyph-name="uni01D7" unicode="&#x1d7;" 
d="M64 251v401h147v-416c0 -78 29 -121 91 -121s92 43 92 121v416h142v-401c0 -169 -76 -263 -234 -263c-159 0 -238 94 -238 263zM225 854l81 120h154l-118 -120h-117zM201 700c-36 0 -62 27 -62 62c0 34 26 61 62 61s62 -27 62 -61c0 -35 -26 -62 -62 -62zM399 700
c-36 0 -62 27 -62 62c0 34 26 61 62 61s62 -27 62 -61c0 -35 -26 -62 -62 -62z" />
    <glyph glyph-name="uni01D8" unicode="&#x1d8;" 
d="M525 496v-496h-120l-11 71h-4c-44 -50 -96 -83 -167 -83c-113 0 -161 77 -161 202v306h147v-287c0 -66 17 -96 72 -96c37 0 63 13 97 57v326h147zM228 737l83 111h126l-115 -111h-94zM197 571c-37 0 -62 27 -62 61c0 35 25 62 62 62c36 0 61 -27 61 -62
c0 -34 -25 -61 -61 -61zM395 571c-36 0 -62 27 -62 61c0 35 26 62 62 62s61 -27 61 -62c0 -34 -25 -61 -61 -61z" />
    <glyph glyph-name="uni01D9" unicode="&#x1d9;" 
d="M64 251v401h147v-416c0 -78 29 -121 91 -121s92 43 92 121v416h142v-401c0 -169 -76 -263 -234 -263c-159 0 -238 94 -238 263zM201 700c-36 0 -62 27 -62 62c0 34 26 61 62 61s62 -27 62 -61c0 -35 -26 -62 -62 -62zM399 700c-36 0 -62 27 -62 62c0 34 26 61 62 61
s62 -27 62 -61c0 -35 -26 -62 -62 -62zM355 974h113l-96 -120h-144l-96 120h113l53 -60h4z" />
    <glyph glyph-name="uni01DA" unicode="&#x1da;" 
d="M525 496v-496h-120l-11 71h-4c-44 -50 -96 -83 -167 -83c-113 0 -161 77 -161 202v306h147v-287c0 -66 17 -96 72 -96c37 0 63 13 97 57v326h147zM234 737l-86 111h99l47 -58h4l46 58h99l-86 -111h-123zM197 571c-37 0 -62 27 -62 61c0 35 25 62 62 62
c36 0 61 -27 61 -62c0 -34 -25 -61 -61 -61zM395 571c-36 0 -62 27 -62 61c0 35 26 62 62 62s61 -27 61 -62c0 -34 -25 -61 -61 -61z" />
    <glyph glyph-name="uni01DB" unicode="&#x1db;" 
d="M64 251v401h147v-416c0 -78 29 -121 91 -121s92 43 92 121v416h142v-401c0 -169 -76 -263 -234 -263c-159 0 -238 94 -238 263zM294 974l81 -120h-117l-118 120h154zM399 700c-36 0 -62 27 -62 62c0 34 26 61 62 61s62 -27 62 -61c0 -35 -26 -62 -62 -62zM201 700
c-36 0 -62 27 -62 62c0 34 26 61 62 61s62 -27 62 -61c0 -35 -26 -62 -62 -62z" />
    <glyph glyph-name="uni01DC" unicode="&#x1dc;" 
d="M525 496v-496h-120l-11 71h-4c-44 -50 -96 -83 -167 -83c-113 0 -161 77 -161 202v306h147v-287c0 -66 17 -96 72 -96c37 0 63 13 97 57v326h147zM280 848l84 -111h-94l-116 111h126zM395 571c-36 0 -62 27 -62 61c0 35 26 62 62 62s61 -27 61 -62c0 -34 -25 -61 -61 -61
zM197 571c-37 0 -62 27 -62 61c0 35 25 62 62 62c36 0 61 -27 61 -62c0 -34 -25 -61 -61 -61z" />
    <glyph glyph-name="Gcaron" unicode="&#x1e6;" 
d="M44 322c0 218 132 342 301 342c88 0 149 -41 191 -83l-81 -91c-28 28 -58 47 -110 47c-85 0 -149 -79 -149 -210c0 -134 52 -212 155 -212c25 0 50 7 64 20v112h-95v120h227v-300c-44 -41 -121 -79 -204 -79c-167 0 -299 115 -299 334zM386 822h112l-96 -120h-143
l-96 120h112l53 -61h4z" />
    <glyph glyph-name="gcaron" unicode="&#x1e7;" 
d="M172 -62c0 -37 48 -57 126 -57c79 0 134 27 134 61c0 32 -30 39 -87 39h-62c-36 0 -58 2 -76 6c-25 -16 -35 -31 -35 -49zM52 -84c0 40 26 74 77 99v4c-27 17 -50 43 -50 85c0 33 24 69 59 93v4c-36 24 -65 69 -65 127c0 119 100 180 212 180c30 0 58 -4 82 -12h201v-107
h-101c12 -15 23 -40 23 -66c0 -114 -90 -166 -205 -166c-20 0 -43 3 -68 10c-15 -11 -22 -20 -22 -36c0 -27 26 -38 84 -38h92c130 0 201 -36 201 -125c0 -104 -115 -179 -295 -179c-129 0 -225 38 -225 127zM285 246c41 0 76 28 76 82c0 53 -35 81 -76 81s-74 -28 -74 -81
c0 -54 33 -82 74 -82zM242 574l-100 167h107l53 -96h4l54 96h107l-101 -167h-124z" />
    <glyph glyph-name="uni01EA" unicode="&#x1ea;" 
d="M396 -114l34 -74c-25 -20 -70 -35 -104 -35c-64 0 -115 34 -115 94c0 52 33 93 63 119c-161 17 -236 166 -236 339c0 213 107 335 262 335s262 -123 262 -335c0 -178 -70 -280 -174 -326c-51 -22 -70 -62 -70 -93c0 -26 21 -38 43 -38c13 0 25 7 35 14zM300 115
c68 0 111 83 111 214c0 130 -43 208 -111 208s-111 -78 -111 -208c0 -131 43 -214 111 -214z" />
    <glyph glyph-name="uni01EB" unicode="&#x1eb;" 
d="M214 -119c0 50 31 89 55 109c-120 14 -222 107 -222 258c0 165 121 260 253 260s253 -95 253 -260c0 -132 -70 -202 -174 -248c-48 -22 -66 -56 -66 -85c0 -27 21 -38 42 -38c13 0 26 6 35 12l31 -66c-26 -20 -70 -33 -101 -33c-59 0 -106 31 -106 91zM198 248
c0 -86 34 -141 102 -141s102 55 102 141s-34 141 -102 141s-102 -55 -102 -141z" />
    <glyph glyph-name="uni0218" unicode="&#x218;" 
d="M50 82l85 101c49 -40 110 -68 167 -68c68 0 98 24 98 63c0 41 -38 54 -101 78l-84 36c-73 27 -139 83 -139 178c0 108 98 194 239 194c79 0 158 -30 217 -86l-75 -93c-45 33 -86 52 -142 52c-57 0 -90 -22 -90 -59c0 -40 44 -54 107 -77l79 -34c86 -32 140 -85 140 -177
c0 -108 -91 -202 -253 -202c-88 0 -178 32 -248 94zM274 -42c90 -9 121 -34 121 -84c0 -68 -82 -98 -177 -103l-11 59c48 5 83 14 83 37c0 19 -14 29 -44 37z" />
    <glyph glyph-name="uni0219" unicode="&#x219;" 
d="M53 64l66 92c57 -36 114 -59 180 -59c67 0 95 16 95 42c0 30 -53 47 -133 69c-87 24 -177 66 -177 145c0 92 87 155 229 155c88 0 162 -35 214 -68l-66 -88c-45 27 -93 47 -145 47c-62 0 -86 -14 -86 -39c0 -30 57 -45 127 -63c98 -26 183 -63 183 -149
c0 -90 -85 -160 -244 -160c-89 0 -180 34 -243 76zM272 -42c89 -9 120 -34 120 -84c0 -68 -82 -98 -177 -103l-11 59c48 5 83 14 83 37c0 19 -14 29 -44 37z" />
    <glyph glyph-name="uni021A" unicode="&#x21a;" 
d="M226 0v528h-195v124h538v-124h-195v-528h-148zM265 -42c89 -9 120 -34 120 -84c0 -68 -82 -98 -177 -103l-11 59c48 5 83 14 83 37c0 19 -14 29 -43 37z" />
    <glyph glyph-name="uni021B" unicode="&#x21b;" 
d="M174 206v175h-125v109l132 6l19 132h121v-132h210v-115h-210v-174c0 -75 32 -104 104 -104c38 0 70 8 99 18l26 -106c-44 -13 -98 -27 -162 -27c-158 0 -214 88 -214 218zM333 -42c89 -9 121 -34 121 -84c0 -68 -83 -98 -178 -103l-11 59c48 5 83 14 83 37
c0 19 -14 29 -43 37z" />
    <glyph glyph-name="uni0237" unicode="&#x237;" 
d="M79 381v115h346v-466c0 -121 -50 -226 -230 -226c-61 0 -110 14 -153 34l43 105c40 -18 72 -24 101 -24c71 0 92 33 92 105v357h-199z" />
    <glyph glyph-name="uni0243" unicode="&#x243;" 
d="M231 105h66c79 0 122 37 122 106s-41 99 -122 99h-66v-64h106v-71h-106v-70zM231 546v-149h53c70 0 103 28 103 81c0 48 -34 68 -102 68h-54zM418 366v-4c93 -18 142 -70 142 -162c0 -138 -109 -200 -251 -200h-225v175h-75v65l75 6v406h206c136 0 237 -39 237 -157
c0 -55 -33 -110 -109 -129z" />
    <glyph glyph-name="uni0250" unicode="&#x250;" 
d="M546 359c0 -112 -92 -168 -327 -182c5 -45 39 -72 106 -72c48 0 95 19 151 47l52 -97c-68 -39 -147 -67 -232 -67c-139 0 -224 72 -224 224v284h120l11 -56h4c50 38 112 68 176 68c100 0 163 -66 163 -149zM405 347c0 32 -27 47 -69 47c-44 0 -82 -20 -117 -47v-82
c146 8 186 39 186 82z" />
    <glyph glyph-name="uni0251" unicode="&#x251;" 
d="M198 250c0 -98 35 -142 96 -142c33 0 61 13 87 46v201c-27 24 -54 33 -83 33c-54 0 -100 -44 -100 -138zM47 248c0 162 103 260 215 260c50 0 95 -19 135 -63h4l12 51h115v-496h-120l-11 51h-3c-36 -36 -90 -63 -138 -63c-125 0 -209 98 -209 260z" />
    <glyph glyph-name="uni0252" unicode="&#x252;" 
d="M402 248c0 95 -32 140 -94 140c-34 0 -63 -13 -89 -46v-201c27 -24 57 -33 84 -33c54 0 99 44 99 140zM553 258c0 -172 -104 -270 -216 -270c-45 0 -94 23 -134 66h-4l-12 -54h-115v496h120l11 -51h3c36 36 91 63 148 63c123 0 199 -99 199 -250z" />
    <glyph glyph-name="uni0254" unicode="&#x254;" 
d="M533 248c0 -165 -124 -260 -280 -260c-70 0 -144 23 -201 73l60 93c34 -25 75 -47 124 -47c86 0 146 55 146 141s-54 141 -133 141c-42 0 -80 -12 -121 -39l-68 91c43 39 116 67 199 67c151 0 274 -95 274 -260z" />
    <glyph glyph-name="uni0258" unicode="&#x258;" 
d="M545 248c0 -164 -121 -260 -275 -260c-66 0 -140 22 -196 58l48 88c44 -22 83 -34 128 -34c73 0 129 30 144 105h-334c-2 12 -6 39 -6 65c0 135 87 238 244 238c129 0 247 -98 247 -260zM187 302h209c-12 64 -51 94 -106 94c-66 0 -103 -38 -103 -94z" />
    <glyph glyph-name="uni0259" unicode="&#x259;" 
d="M55 228c0 26 4 53 6 65h335c-13 72 -58 103 -129 103c-45 0 -90 -13 -131 -35l-49 92c57 36 130 55 196 55c158 0 263 -98 263 -260c0 -161 -118 -260 -255 -260c-155 0 -236 103 -236 240zM189 196c0 -57 33 -96 99 -96c57 0 100 29 109 96h-208z" />
    <glyph glyph-name="uni0261" unicode="&#x261;" 
d="M127 -44c47 -26 102 -37 143 -37c73 0 111 35 116 82l3 64c-33 -32 -86 -52 -133 -52c-125 0 -209 101 -209 244c0 152 101 251 215 251c52 0 97 -21 135 -63h4l12 51h115v-480c0 -134 -89 -212 -258 -212c-55 0 -134 15 -192 52zM294 131c32 0 60 13 87 48v176
c-27 24 -54 33 -85 33c-50 0 -100 -46 -100 -129c0 -82 40 -128 98 -128z" />
    <glyph glyph-name="uni0265" unicode="&#x265;" 
d="M528 496v-680h-147v151l8 95c-39 -38 -93 -74 -168 -74c-111 0 -161 77 -161 202v306h147v-287c0 -66 19 -96 73 -96c40 0 66 18 101 52v331h147z" />
    <glyph glyph-name="uni026F" unicode="&#x26f;" 
d="M569 496v-496h-110l-11 62h-4c-19 -41 -49 -74 -107 -74c-43 0 -74 28 -86 81c-18 -44 -53 -81 -109 -81c-69 0 -110 61 -110 160v348h138v-337c0 -31 8 -46 28 -46c19 0 33 16 46 48v335h113v-337c0 -31 10 -46 29 -46s31 16 45 48v335h138z" />
    <glyph glyph-name="uni0279" unicode="&#x279;" 
d="M484 496v-496h-120l-12 108h-3c-49 -80 -122 -120 -201 -120c-44 0 -67 7 -96 20l30 124c31 -10 51 -15 88 -15c61 0 125 32 167 121v258h147z" />
    <glyph glyph-name="uni0287" unicode="&#x287;" 
d="M426 290v-175h125v-115h-132l-19 -132h-121v132h-210v115h210v174c0 75 -32 104 -104 104c-38 0 -70 -8 -99 -18l-26 106c44 13 98 27 162 27c158 0 214 -87 214 -218z" />
    <glyph glyph-name="uni028C" unicode="&#x28c;" 
d="M382 496l187 -496h-148l-78 234c-16 50 -30 101 -45 153h-4c-15 -52 -28 -103 -44 -153l-78 -234h-141l182 496h169z" />
    <glyph glyph-name="uni028D" unicode="&#x28d;" 
d="M514 496l82 -496h-144l-30 230c-7 49 -10 97 -17 147h-3c-6 -50 -13 -100 -23 -147l-31 -164h-103l-33 164c-9 49 -17 97 -24 147h-4c-7 -50 -9 -98 -16 -147l-30 -230h-134l77 496h170l28 -165c7 -46 13 -93 19 -146h4c4 36 8 78 18 146l27 165h167z" />
    <glyph glyph-name="uni028E" unicode="&#x28e;" 
d="M508 591c-13 4 -24 6 -37 6c-54 0 -83 -30 -99 -69l-18 -45l215 -483h-146l-83 213c-18 47 -34 97 -50 149h-4c-13 -49 -30 -100 -45 -149l-73 -213h-139l204 521c48 124 105 192 227 192c29 0 53 -4 75 -10z" />
    <glyph glyph-name="uni029E" unicode="&#x29e;" 
d="M524 496v-680h-147v381h-4l-182 -197h-161l188 204l-203 292h159l129 -195l74 72v123h147z" />
    <glyph glyph-name="h.sups" unicode="&#x2b0;" 
d="M156 260v462h104v-112l-5 -60c24 23 59 47 107 47c75 0 107 -52 107 -134v-203h-104v190c0 41 -12 59 -45 59c-24 0 -39 -11 -60 -30v-219h-104z" />
    <glyph glyph-name="j.sups" unicode="&#x2b2;" 
d="M157 508v81h229v-306c0 -80 -34 -151 -156 -151c-39 0 -70 10 -97 23l30 73c25 -12 44 -15 60 -15c45 0 60 20 60 66v229h-126zM333 634c-40 0 -68 24 -68 62c0 36 28 62 68 62c39 0 68 -26 68 -62c0 -38 -29 -62 -68 -62z" />
    <glyph glyph-name="r.sups" unicode="&#x2b3;" 
d="M214 260v329h86l8 -72h3c29 54 74 80 121 80c29 0 45 -6 63 -14l-20 -86c-21 6 -34 9 -59 9c-34 0 -73 -20 -98 -78v-168h-104z" />
    <glyph glyph-name="w.sups" unicode="&#x2b7;" 
d="M136 260l-53 329h102l19 -148c4 -33 5 -65 10 -98h2c4 33 8 67 15 98l19 100h71l21 -100c6 -33 10 -65 15 -98h3c4 33 5 65 10 98l18 148h94l-49 -329h-120l-17 102c-4 30 -9 61 -12 96h-3c-2 -23 -5 -50 -11 -96l-15 -102h-119z" />
    <glyph glyph-name="y.sups" unicode="&#x2b8;" 
d="M174 218c6 -2 15 -5 22 -5c33 0 49 17 58 40l5 17l-130 319h104l47 -136c10 -31 17 -61 26 -94h2c8 31 15 62 23 94l40 136h99l-116 -329c-33 -85 -69 -127 -150 -127c-21 0 -34 3 -48 7z" />
    <glyph glyph-name="uni02BB" unicode="&#x2bb;" 
d="M359 697l38 -78c-70 -32 -107 -76 -112 -140c7 2 14 3 21 3c53 0 91 -36 91 -91c0 -61 -40 -101 -96 -101c-74 0 -117 59 -117 160c0 109 58 194 175 247z" />
    <glyph glyph-name="uni02BC" unicode="&#x2bc;" 
d="M241 290l-39 78c69 31 107 76 112 139c-7 -2 -14 -3 -20 -3c-54 0 -92 37 -92 92c0 61 41 101 96 101c75 0 117 -60 117 -160c0 -109 -58 -194 -174 -247z" />
    <glyph glyph-name="uni02BE" unicode="&#x2be;" 
d="M234 508v54c66 0 86 28 86 68s-20 68 -86 68v54c108 4 159 -48 159 -122s-51 -126 -159 -122z" />
    <glyph glyph-name="uni02BF" unicode="&#x2bf;" 
d="M368 752v-54c-67 0 -87 -28 -87 -68s20 -68 87 -68v-54c-108 -4 -159 48 -159 122s51 126 159 122z" />
    <glyph glyph-name="circumflex" unicode="&#x2c6;" 
d="M138 574l100 167h124l100 -167h-107l-53 95h-4l-53 -95h-107z" />
    <glyph glyph-name="caron" unicode="&#x2c7;" 
d="M238 574l-100 167h107l53 -96h4l53 96h107l-100 -167h-124z" />
    <glyph glyph-name="uni02C8" unicode="&#x2c8;" 
d="M255 377l-31 363h152l-31 -363h-90z" />
    <glyph glyph-name="uni02C9" unicode="&#x2c9;" 
d="M162 592v93h276v-93h-276z" />
    <glyph glyph-name="uni02CA" unicode="&#x2ca;" 
d="M457 741l-132 -167h-107l89 167h150z" />
    <glyph glyph-name="uni02CB" unicode="&#x2cb;" 
d="M274 574l-132 167h151l88 -167h-107z" />
    <glyph glyph-name="uni02CC" unicode="&#x2cc;" 
d="M345 98l31 -363h-152l31 363h90z" />
    <glyph glyph-name="breve" unicode="&#x2d8;" 
d="M300 574c-99 0 -145 75 -147 156h82c5 -42 25 -75 65 -75s60 33 65 75h82c-2 -81 -48 -156 -147 -156z" />
    <glyph glyph-name="dotaccent" unicode="&#x2d9;" 
d="M300 569c-57 0 -98 35 -98 89s41 92 98 92s98 -38 98 -92s-41 -89 -98 -89z" />
    <glyph glyph-name="ring" unicode="&#x2da;" 
d="M300 548c-67 0 -113 40 -113 102s46 102 113 102s113 -40 113 -102s-46 -102 -113 -102zM300 603c23 0 41 19 41 47s-18 47 -41 47s-41 -19 -41 -47s18 -47 41 -47z" />
    <glyph glyph-name="ogonek" unicode="&#x2db;" 
d="M214 -119c0 59 44 103 70 121h83c-37 -29 -54 -57 -54 -87c0 -27 21 -38 42 -38c13 0 26 6 35 12l31 -66c-26 -20 -70 -33 -101 -33c-59 0 -106 31 -106 91z" />
    <glyph glyph-name="tilde" unicode="&#x2dc;" 
d="M129 575c12 97 56 143 117 143c49 0 79 -52 107 -52c21 0 34 13 43 52h75c-12 -96 -56 -143 -117 -143c-50 0 -79 53 -107 53c-21 0 -34 -13 -43 -53h-75z" />
    <glyph glyph-name="hungarumlaut" unicode="&#x2dd;" 
d="M175 573l68 151h117l-95 -151h-90zM345 573l69 151h117l-95 -151h-91z" />
    <glyph glyph-name="l.sups" unicode="&#x2e1;" 
d="M182 641v81h172v-336c0 -40 20 -52 51 -52c13 0 26 4 44 11l17 -80c-30 -8 -51 -13 -88 -13c-90 0 -128 55 -128 138v251h-68z" />
    <glyph glyph-name="s.sups" unicode="&#x2e2;" 
d="M145 299l47 64c36 -23 70 -35 110 -35c39 0 55 9 55 25c0 20 -38 30 -79 42c-52 16 -112 43 -112 98c0 61 57 104 150 104c57 0 103 -22 137 -43l-47 -61c-28 17 -57 27 -89 27c-34 0 -48 -8 -48 -23c0 -19 35 -28 76 -39c54 -16 115 -39 115 -99s-56 -107 -160 -107
c-55 0 -115 20 -155 47z" />
    <glyph glyph-name="x.sups" unicode="&#x2e3;" 
d="M124 260l111 171l-104 158h111l31 -51c9 -18 22 -38 33 -57h3c7 19 17 39 25 57l26 51h108l-105 -170l111 -159h-111l-34 51c-12 19 -25 39 -37 57h-2c-10 -18 -20 -38 -29 -57l-29 -51h-108z" />
    <glyph glyph-name="uni0300" unicode="&#x300;" 
d="M275 574l-132 167h150l89 -167h-107z" />
    <glyph glyph-name="uni0301" unicode="&#x301;" 
d="M457 741l-132 -167h-107l89 167h150z" />
    <glyph glyph-name="uni0302" unicode="&#x302;" 
d="M138 574l100 167h124l100 -167h-107l-53 95h-4l-53 -95h-107z" />
    <glyph glyph-name="uni0303" unicode="&#x303;" 
d="M129 575c12 97 56 143 117 143c49 0 79 -52 107 -52c21 0 34 13 43 52h75c-12 -96 -56 -143 -117 -143c-50 0 -79 53 -107 53c-21 0 -34 -13 -43 -53h-75z" />
    <glyph glyph-name="uni0304" unicode="&#x304;" 
d="M162 592v93h276v-93h-276z" />
    <glyph glyph-name="uni0306" unicode="&#x306;" 
d="M300 574c-99 0 -145 75 -147 156h82c5 -42 25 -75 65 -75s60 33 65 75h82c-2 -81 -48 -156 -147 -156z" />
    <glyph glyph-name="uni0307" unicode="&#x307;" 
d="M300 569c-57 0 -98 35 -98 89s41 92 98 92s98 -38 98 -92s-41 -89 -98 -89z" />
    <glyph glyph-name="uni0308" unicode="&#x308;" 
d="M191 571c-46 0 -79 34 -79 79c0 44 33 78 79 78s78 -34 78 -78c0 -45 -32 -79 -78 -79zM409 571c-46 0 -78 34 -78 79c0 44 32 78 78 78s79 -34 79 -78c0 -45 -33 -79 -79 -79z" />
    <glyph glyph-name="uni0309" unicode="&#x309;" 
d="M265 557l-11 58c24 4 44 11 44 30s-22 30 -79 33l17 74c123 -4 168 -38 168 -92c0 -68 -64 -98 -139 -103z" />
    <glyph glyph-name="uni030A" unicode="&#x30a;" 
d="M300 548c-67 0 -113 40 -113 102s46 102 113 102s113 -40 113 -102s-46 -102 -113 -102zM300 603c23 0 41 19 41 47s-18 47 -41 47s-41 -19 -41 -47s18 -47 41 -47z" />
    <glyph glyph-name="uni030B" unicode="&#x30b;" 
d="M175 573l68 151h117l-95 -151h-90zM345 573l69 151h117l-95 -151h-91z" />
    <glyph glyph-name="uni030C" unicode="&#x30c;" 
d="M238 574l-100 167h107l53 -96h4l53 96h107l-100 -167h-124z" />
    <glyph glyph-name="uni030F" unicode="&#x30f;" 
d="M357 724l68 -151h-90l-95 151h117zM186 724l69 -151h-91l-95 151h117z" />
    <glyph glyph-name="uni0312" unicode="&#x312;" 
d="M331 756l22 -45c-37 -13 -58 -32 -62 -59c2 1 5 1 7 1c28 0 53 -20 53 -52c0 -35 -24 -57 -53 -57c-44 0 -66 29 -66 83c0 56 31 103 99 129z" />
    <glyph glyph-name="uni0313" unicode="&#x313;" 
d="M266 541l-22 45c37 14 58 33 62 60c-2 -1 -5 -1 -8 -1c-28 0 -52 19 -52 51c0 36 24 57 53 57c43 0 66 -29 66 -83c0 -55 -31 -103 -99 -129z" />
    <glyph glyph-name="uni031B" unicode="&#x31b;" 
d="M301 427l-11 59c40 7 67 20 67 62c0 18 -8 35 -16 46l101 44c15 -18 29 -47 29 -80c0 -88 -77 -126 -170 -131z" />
    <glyph glyph-name="uni0323" unicode="&#x323;" 
d="M300 -253c-57 0 -98 35 -98 89s41 92 98 92s98 -38 98 -92s-41 -89 -98 -89z" />
    <glyph glyph-name="uni0324" unicode="&#x324;" 
d="M201 -216c-41 0 -70 30 -70 70c0 39 29 70 70 70s70 -31 70 -70c0 -40 -29 -70 -70 -70zM399 -216c-41 0 -70 30 -70 70c0 39 29 70 70 70s70 -31 70 -70c0 -40 -29 -70 -70 -70z" />
    <glyph glyph-name="uni0326" unicode="&#x326;" 
d="M264 -42c90 -9 121 -34 121 -84c0 -68 -82 -98 -177 -103l-11 59c48 5 83 14 83 37c0 19 -14 29 -44 37z" />
    <glyph glyph-name="uni0327" unicode="&#x327;" 
d="M221 -76l40 80h86l-20 -47c34 -11 58 -33 58 -74c0 -69 -82 -99 -177 -104l-11 59c48 5 83 18 83 44c0 17 -14 31 -59 42z" />
    <glyph glyph-name="uni0328" unicode="&#x328;" 
d="M214 -119c0 59 44 103 70 121h83c-37 -29 -54 -57 -54 -87c0 -27 21 -38 42 -38c13 0 26 6 35 12l31 -66c-26 -20 -70 -33 -101 -33c-59 0 -106 31 -106 91z" />
    <glyph glyph-name="uni032E" unicode="&#x32e;" 
d="M300 -210c-93 0 -136 66 -139 139h82c4 -33 22 -59 57 -59s53 26 57 59h82c-3 -73 -46 -139 -139 -139z" />
    <glyph glyph-name="uni0331" unicode="&#x331;" 
d="M438 -95v-94h-276v94h276z" />
    <glyph glyph-name="pi" unicode="&#x3c0;" 
d="M361 158c0 29 4 139 5 222h-119c0 -118 -6 -257 -15 -389l-147 9c18 135 25 270 25 380h-96v110l74 6h498v-116h-80c-6 -87 -6 -205 -6 -228c0 -34 15 -45 44 -45c7 0 13 2 23 4l18 -108c-17 -8 -42 -15 -76 -15c-111 0 -148 67 -148 170z" />
    <glyph glyph-name="a.sups" unicode="&#x1d43;" 
d="M154 351c0 70 58 108 195 121c-2 27 -21 43 -56 43c-27 0 -58 -11 -91 -29l-37 67c44 26 96 44 149 44c86 0 139 -48 139 -151v-186h-85l-7 33h-2c-29 -24 -64 -41 -100 -41c-63 0 -105 45 -105 99zM254 360c0 -19 15 -29 38 -29c21 0 41 10 57 26v53
c-71 -9 -95 -27 -95 -50z" />
    <glyph glyph-name="b.sups" unicode="&#x1d47;" 
d="M154 260v462h104v-112l-2 -49c24 22 57 36 88 36c83 0 134 -67 134 -167c0 -113 -69 -178 -143 -178c-31 0 -62 15 -89 43h-2l-9 -35h-81zM258 355c17 -15 35 -19 52 -19c34 0 61 26 61 92c0 57 -18 85 -56 85c-21 0 -38 -9 -57 -28v-130z" />
    <glyph glyph-name="d.sups" unicode="&#x1d48;" 
d="M128 424c0 108 70 173 142 173c37 0 60 -14 82 -35l-3 49v111h103v-462h-84l-8 32h-2c-24 -23 -58 -40 -90 -40c-85 0 -140 65 -140 172zM235 425c0 -62 22 -89 60 -89c21 0 38 6 54 27v130c-17 14 -37 20 -55 20c-31 0 -59 -27 -59 -88z" />
    <glyph glyph-name="e.sups" unicode="&#x1d49;" 
d="M148 424c0 106 82 173 166 173c101 0 151 -70 151 -159c0 -18 -3 -34 -4 -42h-213c10 -47 47 -66 92 -66c26 0 51 7 77 21l35 -61c-37 -24 -86 -38 -127 -38c-100 0 -177 63 -177 172zM247 459h130c0 34 -17 59 -60 59c-34 0 -63 -17 -70 -59z" />
    <glyph glyph-name="g.sups" unicode="&#x1d4d;" 
d="M218 221c0 -24 32 -35 81 -35c51 0 87 16 87 37c0 19 -21 23 -57 23h-40c-24 0 -38 2 -50 4c-15 -9 -21 -18 -21 -29zM133 205c0 26 18 48 52 65v3c-19 11 -34 28 -34 56c0 21 16 45 41 61v2c-26 17 -45 47 -45 85c0 80 68 120 143 120c20 0 40 -3 56 -8h135v-75h-65
c7 -9 13 -25 13 -40c0 -77 -60 -111 -139 -111c-13 0 -27 3 -44 7c-9 -7 -13 -12 -13 -22c0 -17 16 -24 54 -24h60c88 0 137 -24 137 -83c0 -70 -78 -119 -200 -119c-86 0 -151 24 -151 83zM290 426c26 0 48 16 48 51c0 33 -22 51 -48 51c-25 0 -46 -18 -46 -51
c0 -35 21 -51 46 -51z" />
    <glyph glyph-name="k.sups" unicode="&#x1d4f;" 
d="M160 260v462h104v-258h2l114 125h113l-124 -136l133 -193h-112l-81 125l-45 -44v-81h-104z" />
    <glyph glyph-name="m.sups" unicode="&#x1d50;" 
d="M115 260v329h78l8 -41h2c13 26 33 49 71 49c29 0 50 -19 58 -54c11 29 35 54 73 54c46 0 74 -42 74 -107v-230h-99v223c0 18 -4 26 -15 26s-20 -10 -28 -30v-219h-80v223c0 18 -5 26 -17 26c-11 0 -19 -10 -27 -30v-219h-98z" />
    <glyph glyph-name="o.sups" unicode="&#x1d52;" 
d="M133 424c0 109 79 173 167 173s167 -64 167 -173s-79 -172 -167 -172s-167 63 -167 172zM239 424c0 -54 19 -90 61 -90c43 0 61 36 61 90c0 55 -18 90 -61 90c-42 0 -61 -35 -61 -90z" />
    <glyph glyph-name="p.sups" unicode="&#x1d56;" 
d="M254 286l4 -51v-95h-104v449h85l7 -32h2c27 22 62 40 97 40c83 0 133 -67 133 -167c0 -113 -69 -178 -143 -178c-30 0 -56 12 -81 34zM258 355c17 -15 35 -19 52 -19c34 0 61 26 61 92c0 57 -18 85 -56 85c-21 0 -38 -9 -57 -28v-130z" />
    <glyph glyph-name="t.sups" unicode="&#x1d57;" 
d="M219 397v111h-69v77l74 4l13 86h87v-86h129v-81h-129v-110c0 -48 21 -65 67 -65c22 0 41 4 58 11l18 -74c-26 -9 -61 -18 -102 -18c-107 0 -146 58 -146 145z" />
    <glyph glyph-name="u.sups" unicode="&#x1d58;" 
d="M456 589v-329h-85l-8 45h-2c-29 -32 -63 -53 -110 -53c-75 0 -107 52 -107 133v204h104v-191c0 -41 11 -58 44 -58c24 0 39 6 60 33v216h104z" />
    <glyph glyph-name="v.sups" unicode="&#x1d5b;" 
d="M239 260l-121 329h104l48 -151c10 -34 18 -67 29 -102h2c10 35 18 68 28 102l48 151h99l-117 -329h-120z" />
    <glyph glyph-name="c.sups" unicode="&#x1d9c;" 
d="M170 424c0 109 88 173 186 173c45 0 81 -16 105 -38l-48 -64c-17 13 -34 19 -51 19c-52 0 -86 -35 -86 -90c0 -54 35 -90 83 -90c26 0 47 12 66 24l41 -65c-35 -28 -80 -41 -119 -41c-100 0 -177 63 -177 172z" />
    <glyph glyph-name="f.sups" unicode="&#x1da0;" 
d="M508 712l-20 -75c-19 7 -43 12 -68 12c-40 0 -60 -18 -60 -51v-9h111v-81h-111v-248h-103v248h-74v77l74 4v9c0 75 45 132 150 132c39 0 73 -9 101 -18z" />
    <glyph glyph-name="z.sups" unicode="&#x1dbb;" 
d="M151 260v55l167 193h-147v81h291v-55l-167 -193h173v-81h-317z" />
    <glyph glyph-name="uni1E0C" unicode="&#x1e0c;" 
d="M65 0v652h177c189 0 314 -99 314 -323s-125 -329 -306 -329h-185zM213 119h21c102 0 171 54 171 210s-69 204 -171 204h-21v-414zM290 -253c-57 0 -98 35 -98 89s41 92 98 92s98 -38 98 -92s-41 -89 -98 -89z" />
    <glyph glyph-name="uni1E0D" unicode="&#x1e0d;" 
d="M47 248c0 162 104 260 212 260c57 0 92 -21 127 -53l-5 77v169h147v-701h-120l-11 51h-3c-37 -36 -88 -63 -138 -63c-126 0 -209 98 -209 260zM198 250c0 -98 35 -142 96 -142c33 0 61 13 87 46v201c-27 24 -54 33 -83 33c-54 0 -100 -44 -100 -138zM309 -253
c-57 0 -98 35 -98 89s41 92 98 92s98 -38 98 -92s-41 -89 -98 -89z" />
    <glyph glyph-name="uni1E0E" unicode="&#x1e0e;" 
d="M65 0v652h177c189 0 314 -99 314 -323s-125 -329 -306 -329h-185zM213 119h21c102 0 171 54 171 210s-69 204 -171 204h-21v-414zM428 -95v-94h-276v94h276z" />
    <glyph glyph-name="uni1E0F" unicode="&#x1e0f;" 
d="M47 248c0 162 104 260 212 260c57 0 92 -21 127 -53l-5 77v169h147v-701h-120l-11 51h-3c-37 -36 -88 -63 -138 -63c-126 0 -209 98 -209 260zM198 250c0 -98 35 -142 96 -142c33 0 61 13 87 46v201c-27 24 -54 33 -83 33c-54 0 -100 -44 -100 -138zM447 -95v-94h-276v94
h276z" />
    <glyph glyph-name="uni1E20" unicode="&#x1e20;" 
d="M44 322c0 218 132 342 301 342c88 0 149 -41 191 -83l-81 -91c-28 28 -58 47 -110 47c-85 0 -149 -79 -149 -210c0 -134 52 -212 155 -212c25 0 50 7 64 20v112h-95v120h227v-300c-44 -41 -121 -79 -204 -79c-167 0 -299 115 -299 334zM189 720v93h283v-93h-283z" />
    <glyph glyph-name="uni1E21" unicode="&#x1e21;" 
d="M172 -62c0 -37 48 -57 126 -57c79 0 134 27 134 61c0 32 -30 39 -87 39h-62c-36 0 -58 2 -76 6c-25 -16 -35 -31 -35 -49zM52 -84c0 40 26 74 77 99v4c-27 17 -50 43 -50 85c0 33 24 69 59 93v4c-36 24 -65 69 -65 127c0 119 100 180 212 180c30 0 58 -4 82 -12h201v-107
h-101c12 -15 23 -40 23 -66c0 -114 -90 -166 -205 -166c-20 0 -43 3 -68 10c-15 -11 -22 -20 -22 -36c0 -27 26 -38 84 -38h92c130 0 201 -36 201 -125c0 -104 -115 -179 -295 -179c-129 0 -225 38 -225 127zM285 246c41 0 76 28 76 82c0 53 -35 81 -76 81s-74 -28 -74 -81
c0 -54 33 -82 74 -82zM166 592v93h276v-93h-276z" />
    <glyph glyph-name="uni1E24" unicode="&#x1e24;" 
d="M64 0v652h147v-251h178v251h147v-652h-147v272h-178v-272h-147zM299 -253c-56 0 -98 35 -98 89s42 92 98 92c57 0 98 -38 98 -92s-41 -89 -98 -89z" />
    <glyph glyph-name="uni1E25" unicode="&#x1e25;" 
d="M72 0v701h147v-172l-8 -95c39 38 93 74 168 74c111 0 161 -77 161 -202v-306h-147v287c0 66 -19 96 -73 96c-40 0 -66 -18 -101 -52v-331h-147zM307 -253c-56 0 -97 35 -97 89s41 92 97 92c57 0 98 -38 98 -92s-41 -89 -98 -89z" />
    <glyph glyph-name="uni1E2A" unicode="&#x1e2a;" 
d="M64 0v652h147v-251h178v251h147v-652h-147v272h-178v-272h-147zM299 -210c-93 0 -136 66 -139 139h82c4 -33 22 -59 57 -59c36 0 53 26 57 59h82c-2 -73 -46 -139 -139 -139z" />
    <glyph glyph-name="uni1E2B" unicode="&#x1e2b;" 
d="M72 0v701h147v-172l-8 -95c39 38 93 74 168 74c111 0 161 -77 161 -202v-306h-147v287c0 66 -19 96 -73 96c-40 0 -66 -18 -101 -52v-331h-147zM307 -210c-93 0 -136 66 -139 139h82c5 -33 22 -59 57 -59c36 0 53 26 57 59h82c-2 -73 -46 -139 -139 -139z" />
    <glyph glyph-name="uni1E36" unicode="&#x1e36;" 
d="M107 0v652h147v-528h290v-124h-437zM332 -253c-57 0 -98 35 -98 89s41 92 98 92c56 0 97 -38 97 -92s-41 -89 -97 -89z" />
    <glyph glyph-name="uni1E37" unicode="&#x1e37;" 
d="M62 585v116h291v-513c0 -61 39 -81 80 -81c23 0 47 4 78 16l33 -108c-52 -16 -87 -27 -149 -27c-125 0 -189 80 -189 206v391h-144zM362 -253c-57 0 -98 35 -98 89s41 92 98 92c56 0 97 -38 97 -92s-41 -89 -97 -89z" />
    <glyph glyph-name="uni1E38" unicode="&#x1e38;" 
d="M107 0v652h147v-528h290v-124h-437zM54 720v93h282v-93h-282zM332 -253c-57 0 -98 35 -98 89s41 92 98 92c56 0 97 -38 97 -92s-41 -89 -97 -89z" />
    <glyph glyph-name="uni1E39" unicode="&#x1e39;" 
d="M62 585v116h291v-513c0 -61 39 -81 80 -81c23 0 47 4 78 16l33 -108c-52 -16 -87 -27 -149 -27c-125 0 -189 80 -189 206v391h-144zM133 803v94h276v-94h-276zM362 -253c-57 0 -98 35 -98 89s41 92 98 92c56 0 97 -38 97 -92s-41 -89 -97 -89z" />
    <glyph glyph-name="uni1E3A" unicode="&#x1e3a;" 
d="M107 0v652h147v-528h290v-124h-437zM470 -95v-94h-277v94h277z" />
    <glyph glyph-name="uni1E3B" unicode="&#x1e3b;" 
d="M62 585v116h291v-513c0 -61 39 -81 80 -81c23 0 47 4 78 16l33 -108c-52 -16 -87 -27 -149 -27c-125 0 -189 80 -189 206v391h-144zM500 -95v-94h-277v94h277z" />
    <glyph glyph-name="uni1E42" unicode="&#x1e42;" 
d="M65 0v652h147l66 -231l22 -90h3l22 90l63 231h147v-652h-119v213c0 71 12 225 19 295h-3l-51 -179l-50 -155h-65l-50 155l-49 179h-4c7 -70 19 -224 19 -295v-213h-117zM300 -253c-57 0 -98 35 -98 89s41 92 98 92s98 -38 98 -92s-41 -89 -98 -89z" />
    <glyph glyph-name="uni1E43" unicode="&#x1e43;" 
d="M36 0v496h110l11 -62h4c19 41 49 74 106 74c44 0 75 -28 87 -81c18 45 53 81 109 81c69 0 110 -61 110 -160v-348h-138v337c0 31 -8 46 -28 46c-19 0 -33 -16 -46 -48v-335h-113v337c0 31 -10 46 -29 46s-31 -16 -45 -48v-335h-138zM303 -253c-57 0 -98 35 -98 89
s41 92 98 92c56 0 98 -38 98 -92s-42 -89 -98 -89z" />
    <glyph glyph-name="uni1E44" unicode="&#x1e44;" 
d="M66 0v652h150l138 -325l56 -143h4c-7 69 -21 161 -21 237v231h141v-652h-150l-138 325l-56 142h-4c7 -72 21 -159 21 -236v-231h-141zM306 701c-49 0 -85 32 -85 77s36 77 85 77s85 -32 85 -77s-36 -77 -85 -77z" />
    <glyph glyph-name="uni1E45" unicode="&#x1e45;" 
d="M72 0v496h120l11 -66h4c43 42 97 78 171 78c112 0 162 -77 162 -202v-306h-147v287c0 66 -19 96 -73 96c-40 0 -66 -18 -101 -52v-331h-147zM315 569c-57 0 -98 35 -98 89s41 92 98 92s98 -38 98 -92s-41 -89 -98 -89z" />
    <glyph glyph-name="uni1E46" unicode="&#x1e46;" 
d="M66 0v652h150l138 -325l56 -143h4c-7 69 -21 161 -21 237v231h141v-652h-150l-138 325l-56 142h-4c7 -72 21 -159 21 -236v-231h-141zM300 -253c-57 0 -98 35 -98 89s41 92 98 92s98 -38 98 -92s-41 -89 -98 -89z" />
    <glyph glyph-name="uni1E47" unicode="&#x1e47;" 
d="M72 0v496h120l11 -66h4c43 42 97 78 171 78c112 0 162 -77 162 -202v-306h-147v287c0 66 -19 96 -73 96c-40 0 -66 -18 -101 -52v-331h-147zM306 -253c-56 0 -97 35 -97 89s41 92 97 92c57 0 98 -38 98 -92s-41 -89 -98 -89z" />
    <glyph glyph-name="uni1E48" unicode="&#x1e48;" 
d="M66 0v652h150l138 -325l56 -143h4c-7 69 -21 161 -21 237v231h141v-652h-150l-138 325l-56 142h-4c7 -72 21 -159 21 -236v-231h-141zM438 -95v-94h-276v94h276z" />
    <glyph glyph-name="uni1E49" unicode="&#x1e49;" 
d="M72 0v496h120l11 -66h4c43 42 97 78 171 78c112 0 162 -77 162 -202v-306h-147v287c0 66 -19 96 -73 96c-40 0 -66 -18 -101 -52v-331h-147zM444 -95v-94h-276v94h276z" />
    <glyph glyph-name="uni1E5A" unicode="&#x1e5a;" 
d="M320 -72c57 0 98 -38 98 -92s-41 -89 -98 -89s-98 35 -98 89s41 92 98 92zM217 535v-183h72c78 0 119 33 119 97s-41 86 -119 86h-72zM437 261l147 -261h-165l-125 235h-77v-235h-147v652h231c138 0 252 -48 252 -203c0 -96 -47 -157 -116 -188z" />
    <glyph glyph-name="uni1E5B" unicode="&#x1e5b;" 
d="M116 0v496h120l12 -108h3c49 81 122 120 201 120c44 0 67 -7 96 -20l-30 -123c-31 9 -51 14 -88 14c-61 0 -125 -32 -167 -121v-258h-147zM203 -253c-57 0 -98 35 -98 89s41 92 98 92s98 -38 98 -92s-41 -89 -98 -89z" />
    <glyph glyph-name="uni1E5C" unicode="&#x1e5c;" 
d="M444 813v-93h-283v93h283zM320 -72c57 0 98 -38 98 -92s-41 -89 -98 -89s-98 35 -98 89s41 92 98 92zM217 535v-183h72c78 0 119 33 119 97s-41 86 -119 86h-72zM437 261l147 -261h-165l-125 235h-77v-235h-147v652h231c138 0 252 -48 252 -203c0 -96 -47 -157 -116 -188
z" />
    <glyph glyph-name="uni1E5D" unicode="&#x1e5d;" 
d="M116 0v496h120l12 -108h3c49 81 122 120 201 120c44 0 67 -7 96 -20l-30 -123c-31 9 -51 14 -88 14c-61 0 -125 -32 -167 -121v-258h-147zM201 592v93h276v-93h-276zM203 -253c-57 0 -98 35 -98 89s41 92 98 92s98 -38 98 -92s-41 -89 -98 -89z" />
    <glyph glyph-name="uni1E5E" unicode="&#x1e5e;" 
d="M217 535v-183h72c78 0 119 33 119 97s-41 86 -119 86h-72zM217 235v-235h-147v652h231c138 0 252 -48 252 -203c0 -96 -47 -157 -116 -188l147 -261h-165l-125 235h-77zM182 -189v94h276v-94h-276z" />
    <glyph glyph-name="uni1E5F" unicode="&#x1e5f;" 
d="M116 0v496h120l12 -108h3c49 81 122 120 201 120c44 0 67 -7 96 -20l-30 -123c-31 9 -51 14 -88 14c-61 0 -125 -32 -167 -121v-258h-147zM341 -95v-94h-276v94h276z" />
    <glyph glyph-name="uni1E60" unicode="&#x1e60;" 
d="M50 82l85 101c49 -40 110 -68 167 -68c68 0 98 24 98 63c0 41 -38 54 -101 78l-84 36c-73 27 -139 83 -139 178c0 108 98 194 239 194c79 0 158 -30 217 -86l-75 -93c-45 33 -86 52 -142 52c-57 0 -90 -22 -90 -59c0 -40 44 -54 107 -77l79 -34c86 -32 140 -85 140 -177
c0 -108 -91 -202 -253 -202c-88 0 -178 32 -248 94zM307 701c-49 0 -85 32 -85 77s36 77 85 77c50 0 85 -32 85 -77s-35 -77 -85 -77z" />
    <glyph glyph-name="uni1E61" unicode="&#x1e61;" 
d="M53 64l66 92c57 -36 114 -59 180 -59c67 0 95 16 95 42c0 30 -53 47 -133 69c-87 24 -177 66 -177 145c0 92 87 155 229 155c88 0 162 -35 214 -68l-66 -88c-45 27 -93 47 -145 47c-62 0 -86 -14 -86 -39c0 -30 57 -45 127 -63c98 -26 183 -63 183 -149
c0 -90 -85 -160 -244 -160c-89 0 -180 34 -243 76zM312 569c-56 0 -97 35 -97 89s41 92 97 92c57 0 98 -38 98 -92s-41 -89 -98 -89z" />
    <glyph glyph-name="uni1E62" unicode="&#x1e62;" 
d="M50 82l85 101c49 -40 110 -68 167 -68c68 0 98 24 98 63c0 41 -38 54 -101 78l-84 36c-73 27 -139 83 -139 178c0 108 98 194 239 194c79 0 158 -30 217 -86l-75 -93c-45 33 -86 52 -142 52c-57 0 -90 -22 -90 -59c0 -40 44 -54 107 -77l79 -34c86 -32 140 -85 140 -177
c0 -108 -91 -202 -253 -202c-88 0 -178 32 -248 94zM310 -253c-57 0 -98 35 -98 89s41 92 98 92s98 -38 98 -92s-41 -89 -98 -89z" />
    <glyph glyph-name="uni1E63" unicode="&#x1e63;" 
d="M53 64l66 92c57 -36 114 -59 180 -59c67 0 95 16 95 42c0 30 -53 47 -133 69c-87 24 -177 66 -177 145c0 92 87 155 229 155c88 0 162 -35 214 -68l-66 -88c-45 27 -93 47 -145 47c-62 0 -86 -14 -86 -39c0 -30 57 -45 127 -63c98 -26 183 -63 183 -149
c0 -90 -85 -160 -244 -160c-89 0 -180 34 -243 76zM307 -253c-57 0 -98 35 -98 89s41 92 98 92s98 -38 98 -92s-41 -89 -98 -89z" />
    <glyph glyph-name="uni1E6C" unicode="&#x1e6c;" 
d="M226 0v528h-195v124h538v-124h-195v-528h-148zM300 -253c-56 0 -98 35 -98 89s42 92 98 92c57 0 98 -38 98 -92s-41 -89 -98 -89z" />
    <glyph glyph-name="uni1E6D" unicode="&#x1e6d;" 
d="M174 206v175h-125v109l132 6l19 132h121v-132h210v-115h-210v-174c0 -75 32 -104 104 -104c38 0 70 8 99 18l26 -106c-44 -13 -98 -27 -162 -27c-158 0 -214 88 -214 218zM368 -253c-56 0 -97 35 -97 89s41 92 97 92c57 0 98 -38 98 -92s-41 -89 -98 -89z" />
    <glyph glyph-name="uni1E6E" unicode="&#x1e6e;" 
d="M226 0v528h-195v124h538v-124h-195v-528h-148zM438 -95v-94h-276v94h276z" />
    <glyph glyph-name="uni1E6F" unicode="&#x1e6f;" 
d="M174 206v175h-125v109l132 6l19 132h121v-132h210v-115h-210v-174c0 -75 32 -104 104 -104c38 0 70 8 99 18l26 -106c-44 -13 -98 -27 -162 -27c-158 0 -214 88 -214 218zM506 -95v-94h-276v94h276z" />
    <glyph glyph-name="Wgrave" unicode="&#x1e80;" 
d="M91 0l-87 652h150l21 -347c1 -56 3 -111 4 -166h3c10 55 24 111 35 166l45 181h89l43 -181c10 -53 24 -110 34 -166h4c2 56 3 112 5 166l19 347h140l-81 -652h-154l-41 205c-8 41 -15 86 -18 125h-3c-4 -39 -10 -84 -18 -125l-39 -205h-151zM258 702l-120 120h156
l81 -120h-117z" />
    <glyph glyph-name="wgrave" unicode="&#x1e81;" 
d="M86 0l-82 496h144l30 -230c7 -49 10 -97 17 -147h3c6 50 13 100 23 147l31 164h103l33 -164c9 -49 17 -97 24 -147h4c7 50 9 98 16 147l30 230h134l-77 -496h-170l-28 165c-7 46 -13 93 -19 146h-4c-4 -36 -8 -78 -18 -146l-27 -165h-167zM275 574l-132 167h151l88 -167
h-107z" />
    <glyph glyph-name="Wacute" unicode="&#x1e82;" 
d="M91 0l-87 652h150l21 -347c1 -56 3 -111 4 -166h3c10 55 24 111 35 166l45 181h89l43 -181c10 -53 24 -110 34 -166h4c2 56 3 112 5 166l19 347h140l-81 -652h-154l-41 205c-8 41 -15 86 -18 125h-3c-4 -39 -10 -84 -18 -125l-39 -205h-151zM462 822l-120 -120h-117
l81 120h156z" />
    <glyph glyph-name="wacute" unicode="&#x1e83;" 
d="M86 0l-82 496h144l30 -230c7 -49 10 -97 17 -147h3c6 50 13 100 23 147l31 164h103l33 -164c9 -49 17 -97 24 -147h4c7 50 9 98 16 147l30 230h134l-77 -496h-170l-28 165c-7 46 -13 93 -19 146h-4c-4 -36 -8 -78 -18 -146l-27 -165h-167zM458 741l-132 -167h-107l89 167
h150z" />
    <glyph glyph-name="Wdieresis" unicode="&#x1e84;" 
d="M91 0l-87 652h150l21 -347c1 -56 3 -111 4 -166h3c10 55 24 111 35 166l45 181h89l43 -181c10 -53 24 -110 34 -166h4c2 56 3 112 5 166l19 347h140l-81 -652h-154l-41 205c-8 41 -15 86 -18 125h-3c-4 -39 -10 -84 -18 -125l-39 -205h-151zM201 700c-41 0 -70 30 -70 70
s29 70 70 70s70 -30 70 -70s-29 -70 -70 -70zM399 700c-41 0 -70 30 -70 70s29 70 70 70s70 -30 70 -70s-29 -70 -70 -70z" />
    <glyph glyph-name="wdieresis" unicode="&#x1e85;" 
d="M86 0l-82 496h144l30 -230c7 -49 10 -97 17 -147h3c6 50 13 100 23 147l31 164h103l33 -164c9 -49 17 -97 24 -147h4c7 50 9 98 16 147l30 230h134l-77 -496h-170l-28 165c-7 46 -13 93 -19 146h-4c-4 -36 -8 -78 -18 -146l-27 -165h-167zM192 571c-47 0 -79 34 -79 79
c0 44 32 78 79 78c46 0 78 -34 78 -78c0 -45 -32 -79 -78 -79zM410 571c-46 0 -79 34 -79 79c0 44 33 78 79 78s78 -34 78 -78c0 -45 -32 -79 -78 -79z" />
    <glyph glyph-name="uni1E8E" unicode="&#x1e8e;" 
d="M226 0v220l-210 432h158l66 -157c19 -50 39 -97 59 -149h4c21 52 41 99 61 149l66 157h154l-210 -432v-220h-148zM300 701c-49 0 -85 32 -85 77s36 77 85 77s85 -32 85 -77s-36 -77 -85 -77z" />
    <glyph glyph-name="uni1E8F" unicode="&#x1e8f;" 
d="M93 -72c13 -4 26 -6 39 -6c57 0 88 26 104 65l10 26l-215 483h146l83 -213c18 -47 34 -97 50 -149h4c13 49 30 100 45 149l73 213h139l-196 -501c-48 -125 -107 -189 -232 -189c-29 0 -55 4 -76 10zM307 569c-57 0 -98 35 -98 89s41 92 98 92s98 -38 98 -92
s-41 -89 -98 -89z" />
    <glyph glyph-name="uni1E92" unicode="&#x1e92;" 
d="M56 0v89l306 440h-277v123h458v-89l-305 -439h309v-124h-491zM310 -253c-56 0 -97 35 -97 89s41 92 97 92c57 0 98 -38 98 -92s-41 -89 -98 -89z" />
    <glyph glyph-name="uni1E93" unicode="&#x1e93;" 
d="M70 0v79l260 302h-228v115h431v-78l-260 -303h268v-115h-471zM318 -253c-57 0 -98 35 -98 89s41 92 98 92c56 0 97 -38 97 -92s-41 -89 -97 -89z" />
    <glyph glyph-name="uni1E97" unicode="&#x1e97;" 
d="M174 206v175h-125v109l132 6l19 132h121v-132h210v-115h-210v-174c0 -75 32 -104 104 -104c38 0 70 8 99 18l26 -106c-44 -13 -98 -27 -162 -27c-158 0 -214 88 -214 218zM156 711c-46 0 -78 34 -78 78c0 45 32 79 78 79c47 0 79 -34 79 -79c0 -44 -32 -78 -79 -78z
M374 711c-46 0 -78 34 -78 78c0 45 32 79 78 79c47 0 79 -34 79 -79c0 -44 -32 -78 -79 -78z" />
    <glyph glyph-name="uni1E9E" unicode="&#x1e9e;" 
d="M64 0v442c0 123 69 222 240 222c115 0 195 -74 216 -183l-72 -122c59 -31 117 -83 117 -181c0 -107 -56 -190 -171 -190c-74 0 -125 30 -153 64l76 89c23 -25 42 -34 57 -34c21 0 37 29 37 72c0 40 -34 76 -102 96l-10 86l75 125c-11 31 -36 59 -74 59
c-59 0 -85 -41 -85 -123v-422h-151z" />
    <glyph glyph-name="uni1EA0" unicode="&#x1ea0;" 
d="M300 -72c57 0 98 -38 98 -92s-41 -89 -98 -89s-98 35 -98 89s41 92 98 92zM229 270h137l-15 60c-17 65 -35 142 -52 210h-4c-16 -69 -34 -145 -51 -210zM388 652l203 -652h-156l-39 155h-197l-40 -155h-150l203 652h176z" />
    <glyph glyph-name="uni1EA1" unicode="&#x1ea1;" 
d="M61 138c0 111 92 167 327 181c-5 45 -39 72 -106 72c-48 0 -95 -18 -151 -46l-52 96c68 39 147 67 232 67c139 0 224 -72 224 -224v-284h-120l-11 56h-4c-50 -38 -112 -68 -176 -68c-100 0 -163 66 -163 150zM202 149c0 -32 27 -47 69 -47c44 0 82 20 117 47v82
c-146 -8 -186 -39 -186 -82zM310 -253c-57 0 -98 35 -98 89s41 92 98 92c56 0 97 -38 97 -92s-41 -89 -97 -89z" />
    <glyph glyph-name="uni1EA2" unicode="&#x1ea2;" 
d="M265 691l-11 58c24 5 44 12 44 30c0 19 -22 30 -79 34l17 73c123 -3 168 -38 168 -91c0 -69 -64 -98 -139 -104zM229 270h137l-15 60c-17 65 -35 142 -52 210h-4c-16 -69 -34 -145 -51 -210zM435 0l-39 155h-197l-40 -155h-150l203 652h176l203 -652h-156z" />
    <glyph glyph-name="uni1EA3" unicode="&#x1ea3;" 
d="M61 138c0 111 92 167 327 181c-5 45 -39 72 -106 72c-48 0 -95 -18 -151 -46l-52 96c68 39 147 67 232 67c139 0 224 -72 224 -224v-284h-120l-11 56h-4c-50 -38 -112 -68 -176 -68c-100 0 -163 66 -163 150zM202 149c0 -32 27 -47 69 -47c44 0 82 20 117 47v82
c-146 -8 -186 -39 -186 -82zM273 557l-11 58c24 4 44 11 44 30s-22 30 -79 33l17 74c124 -4 168 -38 168 -92c0 -68 -64 -98 -139 -103z" />
    <glyph glyph-name="uni1EA4" unicode="&#x1ea4;" 
d="M595 890l-99 -120h-83l68 120h114zM298 757l-52 -55h-104l95 114h126l95 -114h-104l-52 55h-4zM229 270h137l-15 60c-17 65 -35 142 -52 210h-4c-16 -69 -34 -145 -51 -210zM212 652h176l203 -652h-156l-39 155h-197l-40 -155h-150z" />
    <glyph glyph-name="uni1EA5" unicode="&#x1ea5;" 
d="M61 138c0 111 92 167 327 181c-5 45 -39 72 -106 72c-48 0 -95 -18 -151 -46l-52 96c68 39 147 67 232 67c139 0 224 -72 224 -224v-284h-120l-11 56h-4c-50 -38 -112 -68 -176 -68c-100 0 -163 66 -163 150zM202 149c0 -32 27 -47 69 -47c44 0 82 20 117 47v82
c-146 -8 -186 -39 -186 -82zM169 574l81 128h117l80 -128h-90l-47 65h-4l-46 -65h-91zM415 646l68 118h109l-95 -118h-82z" />
    <glyph glyph-name="uni1EA6" unicode="&#x1ea6;" 
d="M538 770h-84l-98 120h113zM298 757l-52 -55h-104l95 114h126l95 -114h-104l-52 55h-4zM229 270h137l-15 60c-17 65 -35 142 -52 210h-4c-16 -69 -34 -145 -51 -210zM435 0l-39 155h-197l-40 -155h-150l203 652h176l203 -652h-156z" />
    <glyph glyph-name="uni1EA7" unicode="&#x1ea7;" 
d="M61 138c0 111 92 167 327 181c-5 45 -39 72 -106 72c-48 0 -95 -18 -151 -46l-52 96c68 39 147 67 232 67c139 0 224 -72 224 -224v-284h-120l-11 56h-4c-50 -38 -112 -68 -176 -68c-100 0 -163 66 -163 150zM202 149c0 -32 27 -47 69 -47c44 0 82 20 117 47v82
c-146 -8 -186 -39 -186 -82zM169 574l81 128h117l80 -128h-90l-47 65h-4l-46 -65h-91zM489 764l68 -118h-82l-95 118h109z" />
    <glyph glyph-name="uni1EA8" unicode="&#x1ea8;" 
d="M437 750l-11 47c18 4 32 10 32 27c0 19 -15 29 -65 33l13 60c110 -3 147 -36 147 -80c0 -59 -51 -82 -116 -87zM298 757l-52 -55h-104l95 114h126l95 -114h-104l-52 55h-4zM229 270h137l-15 60c-17 65 -35 142 -52 210h-4c-16 -69 -34 -145 -51 -210zM435 0l-39 155h-197
l-40 -155h-150l203 652h176l203 -652h-156z" />
    <glyph glyph-name="uni1EA9" unicode="&#x1ea9;" 
d="M61 138c0 111 92 167 327 181c-5 45 -39 72 -106 72c-48 0 -95 -18 -151 -46l-52 96c68 39 147 67 232 67c139 0 224 -72 224 -224v-284h-120l-11 56h-4c-50 -38 -112 -68 -176 -68c-100 0 -163 66 -163 150zM202 149c0 -32 27 -47 69 -47c44 0 82 20 117 47v82
c-146 -8 -186 -39 -186 -82zM169 574l81 128h117l80 -128h-90l-47 65h-4l-46 -65h-91zM446 628l-10 50c18 4 31 11 31 28c0 19 -15 30 -66 33l14 62c109 -3 148 -33 148 -79c0 -66 -54 -85 -117 -94z" />
    <glyph glyph-name="uni1EAA" unicode="&#x1eaa;" 
d="M386 965h63c-8 -78 -46 -113 -91 -113c-53 0 -81 38 -108 38c-17 0 -30 -11 -36 -38h-63c8 78 46 113 91 113c53 0 81 -37 108 -37c17 0 30 11 36 37zM298 757l-52 -55h-104l95 114h126l95 -114h-104l-52 55h-4zM229 270h137l-15 60c-17 65 -35 142 -52 210h-4
c-16 -69 -34 -145 -51 -210zM435 0l-39 155h-197l-40 -155h-150l203 652h176l203 -652h-156z" />
    <glyph glyph-name="uni1EAB" unicode="&#x1eab;" 
d="M61 138c0 111 92 167 327 181c-5 45 -39 72 -106 72c-48 0 -95 -18 -151 -46l-52 96c68 39 147 67 232 67c139 0 224 -72 224 -224v-284h-120l-11 56h-4c-50 -38 -112 -68 -176 -68c-100 0 -163 66 -163 150zM202 149c0 -32 27 -47 69 -47c44 0 82 20 117 47v82
c-146 -8 -186 -39 -186 -82zM161 573l80 111h134l80 -111h-95l-50 59h-4l-50 -59h-95zM226 720h-64c9 79 47 114 91 114c53 0 74 -38 102 -38c17 0 30 11 36 38h63c-8 -78 -46 -114 -91 -114c-53 0 -74 38 -102 38c-17 0 -30 -11 -35 -38z" />
    <glyph glyph-name="uni1EAC" unicode="&#x1eac;" 
d="M298 763l-53 -61h-113l96 120h144l96 -120h-113l-53 61h-4zM300 -72c57 0 98 -38 98 -92s-41 -89 -98 -89s-98 35 -98 89s41 92 98 92zM229 270h137l-15 60c-17 65 -35 142 -52 210h-4c-16 -69 -34 -145 -51 -210zM388 652l203 -652h-156l-39 155h-197l-40 -155h-150
l203 652h176z" />
    <glyph glyph-name="uni1EAD" unicode="&#x1ead;" 
d="M61 138c0 111 92 167 327 181c-5 45 -39 72 -106 72c-48 0 -95 -18 -151 -46l-52 96c68 39 147 67 232 67c139 0 224 -72 224 -224v-284h-120l-11 56h-4c-50 -38 -112 -68 -176 -68c-100 0 -163 66 -163 150zM202 149c0 -32 27 -47 69 -47c44 0 82 20 117 47v82
c-146 -8 -186 -39 -186 -82zM146 574l100 167h124l100 -167h-107l-53 95h-4l-53 -95h-107zM310 -253c-57 0 -98 35 -98 89s41 92 98 92c56 0 97 -38 97 -92s-41 -89 -97 -89z" />
    <glyph glyph-name="uni1EAE" unicode="&#x1eae;" 
d="M430 927l-101 -119h-74l64 119h111zM369 822h67c-7 -72 -50 -120 -136 -120s-129 48 -136 120h67c8 -32 25 -54 69 -54s61 22 69 54zM229 270h137l-15 60c-17 65 -35 142 -52 210h-4c-16 -69 -34 -145 -51 -210zM435 0l-39 155h-197l-40 -155h-150l203 652h176l203 -652
h-156z" />
    <glyph glyph-name="uni1EAF" unicode="&#x1eaf;" 
d="M61 138c0 111 92 167 327 181c-5 45 -39 72 -106 72c-48 0 -95 -18 -151 -46l-52 96c68 39 147 67 232 67c139 0 224 -72 224 -224v-284h-120l-11 56h-4c-50 -38 -112 -68 -176 -68c-100 0 -163 66 -163 150zM202 149c0 -32 27 -47 69 -47c44 0 82 20 117 47v82
c-146 -8 -186 -39 -186 -82zM262 692l58 118h105l-89 -118h-74zM308 574c-93 0 -136 67 -139 139h66c6 -37 28 -67 73 -67s68 30 74 67h65c-3 -72 -46 -139 -139 -139z" />
    <glyph glyph-name="uni1EB0" unicode="&#x1eb0;" 
d="M345 808h-74l-101 119h111zM369 822h67c-7 -72 -50 -120 -136 -120s-129 48 -136 120h67c8 -32 25 -54 69 -54s61 22 69 54zM229 270h137l-15 60c-17 65 -35 142 -52 210h-4c-16 -69 -34 -145 -51 -210zM435 0l-39 155h-197l-40 -155h-150l203 652h176l203 -652h-156z
" />
    <glyph glyph-name="uni1EB1" unicode="&#x1eb1;" 
d="M61 138c0 111 92 167 327 181c-5 45 -39 72 -106 72c-48 0 -95 -18 -151 -46l-52 96c68 39 147 67 232 67c139 0 224 -72 224 -224v-284h-120l-11 56h-4c-50 -38 -112 -68 -176 -68c-100 0 -163 66 -163 150zM202 149c0 -32 27 -47 69 -47c44 0 82 20 117 47v82
c-146 -8 -186 -39 -186 -82zM297 810l58 -118h-75l-89 118h106zM308 574c-93 0 -136 67 -139 139h66c6 -37 28 -67 73 -67s68 30 74 67h65c-3 -72 -46 -139 -139 -139z" />
    <glyph glyph-name="uni1EB2" unicode="&#x1eb2;" 
d="M268 806l-12 47c19 4 33 10 33 27c0 19 -16 29 -66 33l14 61c109 -4 146 -37 146 -81c0 -59 -51 -82 -115 -87zM369 822h67c-7 -72 -50 -120 -136 -120s-129 48 -136 120h67c8 -32 25 -54 69 -54s61 22 69 54zM229 270h137l-15 60c-17 65 -35 142 -52 210h-4
c-16 -69 -34 -145 -51 -210zM435 0l-39 155h-197l-40 -155h-150l203 652h176l203 -652h-156z" />
    <glyph glyph-name="uni1EB3" unicode="&#x1eb3;" 
d="M61 138c0 111 92 167 327 181c-5 45 -39 72 -106 72c-48 0 -95 -18 -151 -46l-52 96c68 39 147 67 232 67c139 0 224 -72 224 -224v-284h-120l-11 56h-4c-50 -38 -112 -68 -176 -68c-100 0 -163 66 -163 150zM202 149c0 -32 27 -47 69 -47c44 0 82 20 117 47v82
c-146 -8 -186 -39 -186 -82zM308 574c-93 0 -136 67 -139 139h66c6 -37 28 -67 73 -67s68 30 74 67h65c-3 -72 -46 -139 -139 -139zM273 698l-9 50c18 4 30 10 30 28c0 19 -15 29 -65 33l13 62c110 -4 148 -33 148 -80c0 -65 -53 -85 -117 -93z" />
    <glyph glyph-name="uni1EB4" unicode="&#x1eb4;" 
d="M382 966h66c-9 -78 -49 -114 -93 -114c-46 0 -78 38 -105 38c-17 0 -33 -13 -37 -38h-66c9 78 49 114 93 114c45 0 78 -39 105 -39c17 0 32 12 37 39zM164 822h67c8 -32 25 -54 69 -54s61 22 69 54h67c-7 -72 -50 -120 -136 -120s-129 48 -136 120zM229 270h137l-15 60
c-17 65 -35 142 -52 210h-4c-16 -69 -34 -145 -51 -210zM435 0l-39 155h-197l-40 -155h-150l203 652h176l203 -652h-156z" />
    <glyph glyph-name="uni1EB5" unicode="&#x1eb5;" 
d="M61 138c0 111 92 167 327 181c-5 45 -39 72 -106 72c-48 0 -95 -18 -151 -46l-52 96c68 39 147 67 232 67c139 0 224 -72 224 -224v-284h-120l-11 56h-4c-50 -38 -112 -68 -176 -68c-100 0 -163 66 -163 150zM202 149c0 -32 27 -47 69 -47c44 0 82 20 117 47v82
c-146 -8 -186 -39 -186 -82zM308 574c-93 0 -136 56 -139 119h69c6 -26 25 -50 70 -50s64 24 70 50h69c-3 -63 -46 -119 -139 -119zM162 720c9 79 47 114 91 114c53 0 74 -38 102 -38c17 0 30 11 36 38h63c-8 -78 -46 -114 -91 -114c-53 0 -74 38 -102 38
c-17 0 -30 -11 -35 -38h-64z" />
    <glyph glyph-name="uni1EB6" unicode="&#x1eb6;" 
d="M356 822h81c-8 -71 -50 -120 -137 -120s-129 49 -137 120h81c6 -26 22 -46 56 -46s50 20 56 46zM300 -72c57 0 98 -38 98 -92s-41 -89 -98 -89s-98 35 -98 89s41 92 98 92zM229 270h137l-15 60c-17 65 -35 142 -52 210h-4c-16 -69 -34 -145 -51 -210zM388 652l203 -652
h-156l-39 155h-197l-40 -155h-150l203 652h176z" />
    <glyph glyph-name="uni1EB7" unicode="&#x1eb7;" 
d="M61 138c0 111 92 167 327 181c-5 45 -39 72 -106 72c-48 0 -95 -18 -151 -46l-52 96c68 39 147 67 232 67c139 0 224 -72 224 -224v-284h-120l-11 56h-4c-50 -38 -112 -68 -176 -68c-100 0 -163 66 -163 150zM202 149c0 -32 27 -47 69 -47c44 0 82 20 117 47v82
c-146 -8 -186 -39 -186 -82zM308 574c-99 0 -144 75 -147 156h82c5 -42 25 -75 65 -75s60 33 65 75h82c-2 -81 -48 -156 -147 -156zM310 -253c-57 0 -98 35 -98 89s41 92 98 92c56 0 97 -38 97 -92s-41 -89 -97 -89z" />
    <glyph glyph-name="uni1EB8" unicode="&#x1eb8;" 
d="M94 0v652h430v-124h-283v-131h240v-123h-240v-150h293v-124h-440zM321 -253c-57 0 -98 35 -98 89s41 92 98 92c56 0 97 -38 97 -92s-41 -89 -97 -89z" />
    <glyph glyph-name="uni1EB9" unicode="&#x1eb9;" 
d="M55 248c0 162 126 260 258 260c153 0 233 -103 233 -238c0 -26 -4 -53 -6 -65h-334c10 -74 71 -105 144 -105c45 0 84 12 128 34l48 -88c-56 -36 -130 -58 -196 -58c-154 0 -275 96 -275 260zM204 302h209c0 56 -30 94 -97 94c-53 0 -99 -30 -112 -94zM313 -253
c-57 0 -98 35 -98 89s41 92 98 92c56 0 97 -38 97 -92s-41 -89 -97 -89z" />
    <glyph glyph-name="uni1EBA" unicode="&#x1eba;" 
d="M94 0v652h430v-124h-283v-131h240v-123h-240v-150h293v-124h-440zM286 691l-11 58c25 5 45 12 45 30c0 19 -22 30 -80 34l17 73c124 -3 168 -38 168 -91c0 -69 -63 -98 -139 -104z" />
    <glyph glyph-name="uni1EBB" unicode="&#x1ebb;" 
d="M55 248c0 162 126 260 258 260c153 0 233 -103 233 -238c0 -26 -4 -53 -6 -65h-334c10 -74 71 -105 144 -105c45 0 84 12 128 34l48 -88c-56 -36 -130 -58 -196 -58c-154 0 -275 96 -275 260zM204 302h209c0 56 -30 94 -97 94c-53 0 -99 -30 -112 -94zM278 557l-12 58
c25 4 45 11 45 30s-22 30 -80 33l17 74c124 -4 169 -38 169 -92c0 -68 -64 -98 -139 -103z" />
    <glyph glyph-name="uni1EBC" unicode="&#x1ebc;" 
d="M94 0v652h430v-124h-283v-131h240v-123h-240v-150h293v-124h-440zM384 703c-53 0 -89 45 -119 45c-17 0 -32 -12 -39 -45h-75c11 91 55 136 108 136s89 -45 119 -45c17 0 32 12 39 45h75c-11 -91 -55 -136 -108 -136z" />
    <glyph glyph-name="uni1EBD" unicode="&#x1ebd;" 
d="M55 248c0 162 126 260 258 260c153 0 233 -103 233 -238c0 -26 -4 -53 -6 -65h-334c10 -74 71 -105 144 -105c45 0 84 12 128 34l48 -88c-56 -36 -130 -58 -196 -58c-154 0 -275 96 -275 260zM204 302h209c0 56 -30 94 -97 94c-53 0 -99 -30 -112 -94zM142 575
c12 97 56 143 117 143c49 0 79 -52 106 -52c22 0 34 13 43 52h75c-11 -96 -55 -143 -116 -143c-50 0 -79 53 -107 53c-21 0 -34 -13 -43 -53h-75z" />
    <glyph glyph-name="uni1EBE" unicode="&#x1ebe;" 
d="M94 0v652h430v-124h-283v-131h240v-123h-240v-150h293v-124h-440zM434 770l69 120h114l-99 -120h-84zM163 702l95 114h127l95 -114h-104l-52 55h-4l-53 -55h-104z" />
    <glyph glyph-name="uni1EBF" unicode="&#x1ebf;" 
d="M55 248c0 162 126 260 258 260c153 0 233 -103 233 -238c0 -26 -4 -53 -6 -65h-334c10 -74 71 -105 144 -105c45 0 84 12 128 34l48 -88c-56 -36 -130 -58 -196 -58c-154 0 -275 96 -275 260zM204 302h209c0 56 -30 94 -97 94c-53 0 -99 -30 -112 -94zM174 574l80 128
h117l81 -128h-91l-46 65h-4l-47 -65h-90zM420 646l68 118h109l-95 -118h-82z" />
    <glyph glyph-name="uni1EC0" unicode="&#x1ec0;" 
d="M94 0v652h430v-124h-283v-131h240v-123h-240v-150h293v-124h-440zM491 890l69 -120h-84l-99 120h114zM163 702l95 114h127l95 -114h-104l-52 55h-4l-53 -55h-104z" />
    <glyph glyph-name="uni1EC1" unicode="&#x1ec1;" 
d="M55 248c0 162 126 260 258 260c153 0 233 -103 233 -238c0 -26 -4 -53 -6 -65h-334c10 -74 71 -105 144 -105c45 0 84 12 128 34l48 -88c-56 -36 -130 -58 -196 -58c-154 0 -275 96 -275 260zM204 302h209c0 56 -30 94 -97 94c-53 0 -99 -30 -112 -94zM174 574l80 128
h117l81 -128h-91l-46 65h-4l-47 -65h-90zM494 764l68 -118h-82l-95 118h109z" />
    <glyph glyph-name="uni1EC2" unicode="&#x1ec2;" 
d="M94 0v652h430v-124h-283v-131h240v-123h-240v-150h293v-124h-440zM459 750l-12 47c19 4 33 10 33 27c0 19 -15 29 -66 33l14 60c110 -3 146 -36 146 -80c0 -59 -51 -82 -115 -87zM163 702l95 114h127l95 -114h-104l-52 55h-4l-53 -55h-104z" />
    <glyph glyph-name="uni1EC3" unicode="&#x1ec3;" 
d="M55 248c0 162 126 260 258 260c153 0 233 -103 233 -238c0 -26 -4 -53 -6 -65h-334c10 -74 71 -105 144 -105c45 0 84 12 128 34l48 -88c-56 -36 -130 -58 -196 -58c-154 0 -275 96 -275 260zM204 302h209c0 56 -30 94 -97 94c-53 0 -99 -30 -112 -94zM174 574l80 128
h117l81 -128h-91l-46 65h-4l-47 -65h-90zM450 628l-9 50c18 4 30 11 30 28c0 19 -15 30 -65 33l13 62c110 -3 148 -33 148 -79c0 -66 -53 -85 -117 -94z" />
    <glyph glyph-name="uni1EC4" unicode="&#x1ec4;" 
d="M94 0v652h430v-124h-283v-131h240v-123h-240v-150h293v-124h-440zM163 702l95 114h127l95 -114h-104l-52 55h-4l-53 -55h-104zM236 852h-64c9 78 47 113 91 113c53 0 81 -37 109 -37c17 0 30 11 35 37h64c-9 -78 -47 -113 -91 -113c-53 0 -81 38 -109 38
c-17 0 -30 -11 -35 -38z" />
    <glyph glyph-name="uni1EC5" unicode="&#x1ec5;" 
d="M55 248c0 162 126 260 258 260c153 0 233 -103 233 -238c0 -26 -4 -53 -6 -65h-334c10 -74 71 -105 144 -105c45 0 84 12 128 34l48 -88c-56 -36 -130 -58 -196 -58c-154 0 -275 96 -275 260zM204 302h209c0 56 -30 94 -97 94c-53 0 -99 -30 -112 -94zM166 573l80 111
h133l81 -111h-96l-49 59h-4l-50 -59h-95zM230 720h-63c8 79 46 114 91 114c53 0 74 -38 102 -38c17 0 30 11 35 38h64c-9 -78 -47 -114 -91 -114c-53 0 -75 38 -102 38c-17 0 -30 -11 -36 -38z" />
    <glyph glyph-name="uni1EC6" unicode="&#x1ec6;" 
d="M94 0v652h430v-124h-283v-131h240v-123h-240v-150h293v-124h-440zM266 702h-112l96 120h143l96 -120h-112l-53 61h-4zM321 -253c-57 0 -98 35 -98 89s41 92 98 92c56 0 97 -38 97 -92s-41 -89 -97 -89z" />
    <glyph glyph-name="uni1EC7" unicode="&#x1ec7;" 
d="M55 248c0 162 126 260 258 260c153 0 233 -103 233 -238c0 -26 -4 -53 -6 -65h-334c10 -74 71 -105 144 -105c45 0 84 12 128 34l48 -88c-56 -36 -130 -58 -196 -58c-154 0 -275 96 -275 260zM204 302h209c0 56 -30 94 -97 94c-53 0 -99 -30 -112 -94zM150 574l101 167
h123l101 -167h-107l-53 95h-4l-54 -95h-107zM313 -253c-57 0 -98 35 -98 89s41 92 98 92c56 0 97 -38 97 -92s-41 -89 -97 -89z" />
    <glyph glyph-name="uni1EC8" unicode="&#x1ec8;" 
d="M74 0v124h152v404h-152v124h452v-124h-152v-404h152v-124h-452zM265 691l-11 58c24 5 44 12 44 30c0 19 -22 30 -79 34l17 73c123 -3 168 -38 168 -91c0 -69 -64 -98 -139 -104z" />
    <glyph glyph-name="uni1EC9" unicode="&#x1ec9;" 
d="M79 381v115h346v-496h-147v381h-199zM310 557l-11 58c24 4 44 11 44 30s-22 30 -79 33l17 74c123 -4 168 -38 168 -92c0 -68 -64 -98 -139 -103z" />
    <glyph glyph-name="uni1ECA" unicode="&#x1eca;" 
d="M74 0v124h152v404h-152v124h452v-124h-152v-404h152v-124h-452zM300 -253c-56 0 -98 35 -98 89s42 92 98 92c57 0 98 -38 98 -92s-41 -89 -98 -89z" />
    <glyph glyph-name="uni1ECB" unicode="&#x1ecb;" 
d="M79 381v115h346v-496h-147v381h-199zM345 569c-57 0 -98 35 -98 89s41 92 98 92s98 -38 98 -92s-41 -89 -98 -89zM345 -253c-57 0 -98 35 -98 89s41 92 98 92s98 -38 98 -92s-41 -89 -98 -89z" />
    <glyph glyph-name="uni1ECC" unicode="&#x1ecc;" 
d="M300 -12c-155 0 -262 128 -262 341s107 335 262 335s262 -123 262 -335c0 -213 -107 -341 -262 -341zM300 115c68 0 111 83 111 214c0 130 -43 208 -111 208s-111 -78 -111 -208c0 -131 43 -214 111 -214zM300 -253c-57 0 -98 35 -98 89s41 92 98 92s98 -38 98 -92
s-41 -89 -98 -89z" />
    <glyph glyph-name="uni1ECD" unicode="&#x1ecd;" 
d="M47 248c0 165 122 260 253 260s253 -95 253 -260s-122 -260 -253 -260s-253 95 -253 260zM198 248c0 -86 34 -141 102 -141s102 55 102 141s-34 141 -102 141s-102 -55 -102 -141zM300 -253c-56 0 -98 35 -98 89s42 92 98 92c57 0 98 -38 98 -92s-41 -89 -98 -89z" />
    <glyph glyph-name="uni1ECE" unicode="&#x1ece;" 
d="M300 -12c-155 0 -262 128 -262 341s107 335 262 335s262 -123 262 -335c0 -213 -107 -341 -262 -341zM300 115c68 0 111 83 111 214c0 130 -43 208 -111 208s-111 -78 -111 -208c0 -131 43 -214 111 -214zM265 691l-11 58c24 5 44 12 44 30c0 19 -22 30 -79 34l17 73
c123 -3 168 -38 168 -91c0 -69 -64 -98 -139 -104z" />
    <glyph glyph-name="uni1ECF" unicode="&#x1ecf;" 
d="M47 248c0 165 122 260 253 260s253 -95 253 -260s-122 -260 -253 -260s-253 95 -253 260zM198 248c0 -86 34 -141 102 -141s102 55 102 141s-34 141 -102 141s-102 -55 -102 -141zM265 557l-11 58c24 4 44 11 44 30s-22 30 -79 33l17 74c123 -4 168 -38 168 -92
c0 -68 -64 -98 -139 -103z" />
    <glyph glyph-name="uni1ED0" unicode="&#x1ed0;" 
d="M300 -12c-155 0 -262 128 -262 341s107 335 262 335s262 -123 262 -335c0 -213 -107 -341 -262 -341zM300 115c68 0 111 83 111 214c0 130 -43 208 -111 208s-111 -78 -111 -208c0 -131 43 -214 111 -214zM413 770l68 120h114l-99 -120h-83zM142 702l95 114h126l95 -114
h-104l-52 55h-4l-52 -55h-104z" />
    <glyph glyph-name="uni1ED1" unicode="&#x1ed1;" 
d="M47 248c0 165 122 260 253 260s253 -95 253 -260s-122 -260 -253 -260s-253 95 -253 260zM198 248c0 -86 34 -141 102 -141s102 55 102 141s-34 141 -102 141s-102 -55 -102 -141zM161 574l81 128h116l81 -128h-90l-47 65h-4l-47 -65h-90zM407 646l68 118h109l-95 -118
h-82z" />
    <glyph glyph-name="uni1ED2" unicode="&#x1ed2;" 
d="M300 -12c-155 0 -262 128 -262 341s107 335 262 335s262 -123 262 -335c0 -213 -107 -341 -262 -341zM300 115c68 0 111 83 111 214c0 130 -43 208 -111 208s-111 -78 -111 -208c0 -131 43 -214 111 -214zM469 890l69 -120h-84l-98 120h113zM142 702l95 114h126l95 -114
h-104l-52 55h-4l-52 -55h-104z" />
    <glyph glyph-name="uni1ED3" unicode="&#x1ed3;" 
d="M47 248c0 165 122 260 253 260s253 -95 253 -260s-122 -260 -253 -260s-253 95 -253 260zM198 248c0 -86 34 -141 102 -141s102 55 102 141s-34 141 -102 141s-102 -55 -102 -141zM161 574l81 128h116l81 -128h-90l-47 65h-4l-47 -65h-90zM481 764l68 -118h-82l-95 118
h109z" />
    <glyph glyph-name="uni1ED4" unicode="&#x1ed4;" 
d="M300 -12c-155 0 -262 128 -262 341s107 335 262 335s262 -123 262 -335c0 -213 -107 -341 -262 -341zM300 115c68 0 111 83 111 214c0 130 -43 208 -111 208s-111 -78 -111 -208c0 -131 43 -214 111 -214zM437 750l-11 47c18 4 32 10 32 27c0 19 -15 29 -65 33l13 60
c110 -3 147 -36 147 -80c0 -59 -51 -82 -116 -87zM142 702l95 114h126l95 -114h-104l-52 55h-4l-52 -55h-104z" />
    <glyph glyph-name="uni1ED5" unicode="&#x1ed5;" 
d="M47 248c0 165 122 260 253 260s253 -95 253 -260s-122 -260 -253 -260s-253 95 -253 260zM198 248c0 -86 34 -141 102 -141s102 55 102 141s-34 141 -102 141s-102 -55 -102 -141zM161 574l81 128h116l81 -128h-90l-47 65h-4l-47 -65h-90zM438 628l-10 50
c18 4 30 11 30 28c0 19 -14 30 -65 33l14 62c109 -3 147 -33 147 -79c0 -66 -53 -85 -116 -94z" />
    <glyph glyph-name="uni1ED6" unicode="&#x1ed6;" 
d="M300 -12c-155 0 -262 128 -262 341s107 335 262 335s262 -123 262 -335c0 -213 -107 -341 -262 -341zM300 115c68 0 111 83 111 214c0 130 -43 208 -111 208s-111 -78 -111 -208c0 -131 43 -214 111 -214zM142 702l95 114h126l95 -114h-104l-52 55h-4l-52 -55h-104z
M214 852h-63c8 78 46 113 91 113c53 0 81 -37 108 -37c17 0 30 11 36 37h63c-8 -78 -46 -113 -91 -113c-53 0 -81 38 -108 38c-17 0 -30 -11 -36 -38z" />
    <glyph glyph-name="uni1ED7" unicode="&#x1ed7;" 
d="M47 248c0 165 122 260 253 260s253 -95 253 -260s-122 -260 -253 -260s-253 95 -253 260zM198 248c0 -86 34 -141 102 -141s102 55 102 141s-34 141 -102 141s-102 -55 -102 -141zM153 573l80 111h134l80 -111h-95l-50 59h-4l-50 -59h-95zM218 720h-64
c9 79 47 114 91 114c53 0 74 -38 102 -38c17 0 30 11 35 38h64c-9 -78 -47 -114 -91 -114c-53 0 -74 38 -102 38c-17 0 -30 -11 -35 -38z" />
    <glyph glyph-name="uni1ED8" unicode="&#x1ed8;" 
d="M300 -12c-155 0 -262 128 -262 341s107 335 262 335s262 -123 262 -335c0 -213 -107 -341 -262 -341zM300 115c68 0 111 83 111 214c0 130 -43 208 -111 208s-111 -78 -111 -208c0 -131 43 -214 111 -214zM245 702h-113l96 120h144l96 -120h-113l-53 61h-4zM300 -253
c-57 0 -98 35 -98 89s41 92 98 92s98 -38 98 -92s-41 -89 -98 -89z" />
    <glyph glyph-name="uni1ED9" unicode="&#x1ed9;" 
d="M47 248c0 165 122 260 253 260s253 -95 253 -260s-122 -260 -253 -260s-253 95 -253 260zM198 248c0 -86 34 -141 102 -141s102 55 102 141s-34 141 -102 141s-102 -55 -102 -141zM138 574l100 167h124l100 -167h-107l-53 95h-4l-53 -95h-107zM300 -253
c-57 0 -98 35 -98 89s41 92 98 92s98 -38 98 -92s-41 -89 -98 -89z" />
    <glyph glyph-name="uni1EDA" unicode="&#x1eda;" 
d="M462 822l-120 -120h-117l81 120h156zM300 115c68 0 111 83 111 214c0 130 -43 208 -111 208s-111 -78 -111 -208c0 -131 43 -214 111 -214zM466 740l100 44c15 -18 29 -47 29 -80c0 -68 -46 -107 -110 -123c48 -57 77 -143 77 -252c0 -213 -107 -341 -262 -341
s-262 128 -262 341s107 335 262 335c45 0 86 -11 122 -31c36 8 59 22 59 61c0 18 -8 34 -15 46z" />
    <glyph glyph-name="uni1EDB" unicode="&#x1edb;" 
d="M457 741l-132 -167h-107l89 167h150zM300 107c68 0 102 55 102 141s-34 141 -102 141s-102 -55 -102 -141s34 -141 102 -141zM455 594l100 44c15 -18 30 -47 30 -80c0 -67 -45 -105 -106 -121c45 -44 74 -108 74 -189c0 -165 -122 -260 -253 -260s-253 95 -253 260
s122 260 253 260c36 0 72 -7 105 -22c40 8 66 21 66 62c0 18 -8 35 -16 46z" />
    <glyph glyph-name="uni1EDC" unicode="&#x1edc;" 
d="M375 702h-117l-120 120h156zM300 115c68 0 111 83 111 214c0 130 -43 208 -111 208s-111 -78 -111 -208c0 -131 43 -214 111 -214zM466 740l100 44c15 -18 29 -47 29 -80c0 -68 -46 -107 -110 -123c48 -57 77 -143 77 -252c0 -213 -107 -341 -262 -341s-262 128 -262 341
s107 335 262 335c45 0 86 -11 122 -31c36 8 59 22 59 61c0 18 -8 34 -15 46z" />
    <glyph glyph-name="uni1EDD" unicode="&#x1edd;" 
d="M382 574h-107l-132 167h150zM300 107c68 0 102 55 102 141s-34 141 -102 141s-102 -55 -102 -141s34 -141 102 -141zM455 594l100 44c15 -18 30 -47 30 -80c0 -67 -45 -105 -106 -121c45 -44 74 -108 74 -189c0 -165 -122 -260 -253 -260s-253 95 -253 260
s122 260 253 260c36 0 72 -7 105 -22c40 8 66 21 66 62c0 18 -8 35 -16 46z" />
    <glyph glyph-name="uni1EDE" unicode="&#x1ede;" 
d="M265 691l-11 58c24 5 44 12 44 30c0 19 -22 30 -79 34l17 73c123 -3 168 -38 168 -91c0 -69 -64 -98 -139 -104zM300 115c68 0 111 83 111 214c0 130 -43 208 -111 208s-111 -78 -111 -208c0 -131 43 -214 111 -214zM466 740l100 44c15 -18 29 -47 29 -80
c0 -68 -46 -107 -110 -123c48 -57 77 -143 77 -252c0 -213 -107 -341 -262 -341s-262 128 -262 341s107 335 262 335c45 0 86 -11 122 -31c36 8 59 22 59 61c0 18 -8 34 -15 46z" />
    <glyph glyph-name="uni1EDF" unicode="&#x1edf;" 
d="M265 557l-11 58c24 4 44 11 44 30s-22 30 -79 33l17 74c123 -4 168 -38 168 -92c0 -68 -64 -98 -139 -103zM300 107c68 0 102 55 102 141s-34 141 -102 141s-102 -55 -102 -141s34 -141 102 -141zM455 594l100 44c15 -18 30 -47 30 -80c0 -67 -45 -105 -106 -121
c45 -44 74 -108 74 -189c0 -165 -122 -260 -253 -260s-253 95 -253 260s122 260 253 260c36 0 72 -7 105 -22c40 8 66 21 66 62c0 18 -8 35 -16 46z" />
    <glyph glyph-name="uni1EE0" unicode="&#x1ee0;" 
d="M395 839h75c-10 -91 -55 -136 -107 -136c-54 0 -89 45 -120 45c-17 0 -31 -12 -38 -45h-75c10 91 55 136 107 136c54 0 89 -45 120 -45c17 0 31 12 38 45zM300 115c68 0 111 83 111 214c0 130 -43 208 -111 208s-111 -78 -111 -208c0 -131 43 -214 111 -214zM466 740
l100 44c15 -18 29 -47 29 -80c0 -68 -46 -107 -110 -123c48 -57 77 -143 77 -252c0 -213 -107 -341 -262 -341s-262 128 -262 341s107 335 262 335c45 0 86 -11 122 -31c36 8 59 22 59 61c0 18 -8 34 -15 46z" />
    <glyph glyph-name="uni1EE1" unicode="&#x1ee1;" 
d="M396 718h75c-12 -96 -56 -143 -117 -143c-50 0 -79 53 -107 53c-21 0 -34 -13 -43 -53h-75c12 97 56 143 117 143c49 0 79 -52 107 -52c21 0 34 13 43 52zM300 107c68 0 102 55 102 141s-34 141 -102 141s-102 -55 -102 -141s34 -141 102 -141zM455 594l100 44
c15 -18 30 -47 30 -80c0 -67 -45 -105 -106 -121c45 -44 74 -108 74 -189c0 -165 -122 -260 -253 -260s-253 95 -253 260s122 260 253 260c36 0 72 -7 105 -22c40 8 66 21 66 62c0 18 -8 35 -16 46z" />
    <glyph glyph-name="uni1EE2" unicode="&#x1ee2;" 
d="M300 -72c57 0 98 -38 98 -92s-41 -89 -98 -89s-98 35 -98 89s41 92 98 92zM300 115c68 0 111 83 111 214c0 130 -43 208 -111 208s-111 -78 -111 -208c0 -131 43 -214 111 -214zM466 740l100 44c15 -18 29 -47 29 -80c0 -68 -46 -107 -110 -123c48 -57 77 -143 77 -252
c0 -213 -107 -341 -262 -341s-262 128 -262 341s107 335 262 335c45 0 86 -11 122 -31c36 8 59 22 59 61c0 18 -8 34 -15 46z" />
    <glyph glyph-name="uni1EE3" unicode="&#x1ee3;" 
d="M301 -72c57 0 98 -38 98 -92s-41 -89 -98 -89s-98 35 -98 89s41 92 98 92zM300 107c68 0 102 55 102 141s-34 141 -102 141s-102 -55 -102 -141s34 -141 102 -141zM455 594l100 44c15 -18 30 -47 30 -80c0 -67 -45 -105 -106 -121c45 -44 74 -108 74 -189
c0 -165 -122 -260 -253 -260s-253 95 -253 260s122 260 253 260c36 0 72 -7 105 -22c40 8 66 21 66 62c0 18 -8 35 -16 46z" />
    <glyph glyph-name="uni1EE4" unicode="&#x1ee4;" 
d="M64 251v401h147v-416c0 -78 29 -121 91 -121s92 43 92 121v416h142v-401c0 -169 -76 -263 -234 -263c-159 0 -238 94 -238 263zM300 -253c-57 0 -98 35 -98 89s41 92 98 92s98 -38 98 -92s-41 -89 -98 -89z" />
    <glyph glyph-name="uni1EE5" unicode="&#x1ee5;" 
d="M525 496v-496h-120l-11 71h-4c-44 -50 -96 -83 -167 -83c-113 0 -161 77 -161 202v306h147v-287c0 -66 17 -96 72 -96c37 0 63 13 97 57v326h147zM319 -253c-57 0 -98 35 -98 89s41 92 98 92c56 0 97 -38 97 -92s-41 -89 -97 -89z" />
    <glyph glyph-name="uni1EE6" unicode="&#x1ee6;" 
d="M64 251v401h147v-416c0 -78 29 -121 91 -121s92 43 92 121v416h142v-401c0 -169 -76 -263 -234 -263c-159 0 -238 94 -238 263zM265 691l-11 58c24 5 44 12 44 30c0 19 -22 30 -79 34l17 73c123 -3 168 -38 168 -91c0 -69 -64 -98 -139 -104z" />
    <glyph glyph-name="uni1EE7" unicode="&#x1ee7;" 
d="M525 496v-496h-120l-11 71h-4c-44 -50 -96 -83 -167 -83c-113 0 -161 77 -161 202v306h147v-287c0 -66 17 -96 72 -96c37 0 63 13 97 57v326h147zM260 557l-11 58c25 4 45 11 45 30s-22 30 -80 33l17 74c124 -4 169 -38 169 -92c0 -68 -64 -98 -140 -103z" />
    <glyph glyph-name="uni1EE8" unicode="&#x1ee8;" 
d="M462 822l-120 -120h-117l81 120h156zM531 760l100 44c15 -18 29 -47 29 -80c0 -75 -54 -113 -124 -126v-347c0 -169 -76 -263 -234 -263c-159 0 -238 94 -238 263v401h147v-416c0 -78 29 -121 91 -121s92 43 92 121v416h70c40 2 82 10 82 62c0 18 -8 34 -15 46z" />
    <glyph glyph-name="uni1EE9" unicode="&#x1ee9;" 
d="M451 741l-132 -167h-107l89 167h150zM493 604l100 44c15 -18 29 -47 29 -80c0 -65 -43 -102 -97 -118v-450h-120l-11 71h-4c-44 -50 -96 -83 -167 -83c-113 0 -161 77 -161 202v306h147v-287c0 -66 17 -96 72 -96c37 0 63 13 97 57v326h49c38 2 81 10 81 62
c0 18 -8 35 -15 46z" />
    <glyph glyph-name="uni1EEA" unicode="&#x1eea;" 
d="M375 702h-117l-120 120h156zM531 760l100 44c15 -18 29 -47 29 -80c0 -75 -54 -113 -124 -126v-347c0 -169 -76 -263 -234 -263c-159 0 -238 94 -238 263v401h147v-416c0 -78 29 -121 91 -121s92 43 92 121v416h70c40 2 82 10 82 62c0 18 -8 34 -15 46z" />
    <glyph glyph-name="uni1EEB" unicode="&#x1eeb;" 
d="M376 574h-107l-132 167h150zM493 604l100 44c15 -18 29 -47 29 -80c0 -65 -43 -102 -97 -118v-450h-120l-11 71h-4c-44 -50 -96 -83 -167 -83c-113 0 -161 77 -161 202v306h147v-287c0 -66 17 -96 72 -96c37 0 63 13 97 57v326h49c38 2 81 10 81 62c0 18 -8 35 -15 46z
" />
    <glyph glyph-name="uni1EEC" unicode="&#x1eec;" 
d="M265 691l-11 58c24 5 44 12 44 30c0 19 -22 30 -79 34l17 73c123 -3 168 -38 168 -91c0 -69 -64 -98 -139 -104zM531 760l100 44c15 -18 29 -47 29 -80c0 -75 -54 -113 -124 -126v-347c0 -169 -76 -263 -234 -263c-159 0 -238 94 -238 263v401h147v-416
c0 -78 29 -121 91 -121s92 43 92 121v416h70c40 2 82 10 82 62c0 18 -8 34 -15 46z" />
    <glyph glyph-name="uni1EED" unicode="&#x1eed;" 
d="M259 557l-11 58c24 4 44 11 44 30s-22 30 -79 33l17 74c123 -4 168 -38 168 -92c0 -68 -64 -98 -139 -103zM493 604l100 44c15 -18 29 -47 29 -80c0 -65 -43 -102 -97 -118v-450h-120l-11 71h-4c-44 -50 -96 -83 -167 -83c-113 0 -161 77 -161 202v306h147v-287
c0 -66 17 -96 72 -96c37 0 63 13 97 57v326h49c38 2 81 10 81 62c0 18 -8 35 -15 46z" />
    <glyph glyph-name="uni1EEE" unicode="&#x1eee;" 
d="M395 839h75c-10 -91 -55 -136 -107 -136c-54 0 -89 45 -120 45c-17 0 -31 -12 -38 -45h-75c10 91 55 136 107 136c54 0 89 -45 120 -45c17 0 31 12 38 45zM531 760l100 44c15 -18 29 -47 29 -80c0 -75 -54 -113 -124 -126v-347c0 -169 -76 -263 -234 -263
c-159 0 -238 94 -238 263v401h147v-416c0 -78 29 -121 91 -121s92 43 92 121v416h70c40 2 82 10 82 62c0 18 -8 34 -15 46z" />
    <glyph glyph-name="uni1EEF" unicode="&#x1eef;" 
d="M390 718h75c-12 -96 -56 -143 -117 -143c-50 0 -79 53 -107 53c-21 0 -34 -13 -43 -53h-75c12 97 56 143 117 143c49 0 79 -52 107 -52c21 0 34 13 43 52zM493 604l100 44c15 -18 29 -47 29 -80c0 -65 -43 -102 -97 -118v-450h-120l-11 71h-4c-44 -50 -96 -83 -167 -83
c-113 0 -161 77 -161 202v306h147v-287c0 -66 17 -96 72 -96c37 0 63 13 97 57v326h49c38 2 81 10 81 62c0 18 -8 35 -15 46z" />
    <glyph glyph-name="uni1EF0" unicode="&#x1ef0;" 
d="M300 -72c57 0 98 -38 98 -92s-41 -89 -98 -89s-98 35 -98 89s41 92 98 92zM531 760l100 44c15 -18 29 -47 29 -80c0 -75 -54 -113 -124 -126v-347c0 -169 -76 -263 -234 -263c-159 0 -238 94 -238 263v401h147v-416c0 -78 29 -121 91 -121s92 43 92 121v416h70
c40 2 82 10 82 62c0 18 -8 34 -15 46z" />
    <glyph glyph-name="uni1EF1" unicode="&#x1ef1;" 
d="M308 -72c57 0 98 -38 98 -92s-41 -89 -98 -89s-98 35 -98 89s41 92 98 92zM493 604l100 44c15 -18 29 -47 29 -80c0 -65 -43 -102 -97 -118v-450h-120l-11 71h-4c-44 -50 -96 -83 -167 -83c-113 0 -161 77 -161 202v306h147v-287c0 -66 17 -96 72 -96c37 0 63 13 97 57
v326h49c38 2 81 10 81 62c0 18 -8 35 -15 46z" />
    <glyph glyph-name="Ygrave" unicode="&#x1ef2;" 
d="M226 0v220l-210 432h158l66 -157c19 -50 39 -97 59 -149h4c21 52 41 99 61 149l66 157h154l-210 -432v-220h-148zM258 702l-120 120h156l81 -120h-117z" />
    <glyph glyph-name="ygrave" unicode="&#x1ef3;" 
d="M93 -72c13 -4 26 -6 39 -6c57 0 88 26 104 65l10 26l-215 483h146l83 -213c18 -47 34 -97 50 -149h4c13 49 30 100 45 149l73 213h139l-196 -501c-48 -125 -107 -189 -232 -189c-29 0 -55 4 -76 10zM282 574l-133 167h151l89 -167h-107z" />
    <glyph glyph-name="uni1EF4" unicode="&#x1ef4;" 
d="M226 0v220l-210 432h158l66 -157c19 -50 39 -97 59 -149h4c21 52 41 99 61 149l66 157h154l-210 -432v-220h-148zM300 -253c-57 0 -98 35 -98 89s41 92 98 92s98 -38 98 -92s-41 -89 -98 -89z" />
    <glyph glyph-name="uni1EF5" unicode="&#x1ef5;" 
d="M93 -72c13 -4 26 -6 39 -6c57 0 88 26 104 65l10 26l-215 483h146l83 -213c18 -47 34 -97 50 -149h4c13 49 30 100 45 149l73 213h139l-196 -501c-48 -125 -107 -189 -232 -189c-29 0 -55 4 -76 10zM486 -245c-56 0 -97 36 -97 90s41 91 97 91c57 0 98 -37 98 -91
s-41 -90 -98 -90z" />
    <glyph glyph-name="uni1EF6" unicode="&#x1ef6;" 
d="M226 0v220l-210 432h158l66 -157c19 -50 39 -97 59 -149h4c21 52 41 99 61 149l66 157h154l-210 -432v-220h-148zM265 691l-11 58c24 5 44 12 44 30c0 19 -22 30 -79 34l17 73c123 -3 168 -38 168 -91c0 -69 -64 -98 -139 -104z" />
    <glyph glyph-name="uni1EF7" unicode="&#x1ef7;" 
d="M93 -72c13 -4 26 -6 39 -6c57 0 88 26 104 65l10 26l-215 483h146l83 -213c18 -47 34 -97 50 -149h4c13 49 30 100 45 149l73 213h139l-196 -501c-48 -125 -107 -189 -232 -189c-29 0 -55 4 -76 10zM271 557l-11 58c25 4 44 11 44 30s-22 30 -79 33l17 74
c124 -4 168 -38 168 -92c0 -68 -64 -98 -139 -103z" />
    <glyph glyph-name="uni1EF8" unicode="&#x1ef8;" 
d="M226 0v220l-210 432h158l66 -157c19 -50 39 -97 59 -149h4c21 52 41 99 61 149l66 157h154l-210 -432v-220h-148zM363 703c-54 0 -89 45 -120 45c-17 0 -31 -12 -38 -45h-75c10 91 55 136 107 136c54 0 89 -45 120 -45c17 0 31 12 38 45h75c-10 -91 -55 -136 -107 -136z
" />
    <glyph glyph-name="uni1EF9" unicode="&#x1ef9;" 
d="M93 -72c13 -4 26 -6 39 -6c57 0 88 26 104 65l10 26l-215 483h146l83 -213c18 -47 34 -97 50 -149h4c13 49 30 100 45 149l73 213h139l-196 -501c-48 -125 -107 -189 -232 -189c-29 0 -55 4 -76 10zM136 575c12 97 56 143 117 143c49 0 79 -52 107 -52c21 0 34 13 43 52
h75c-12 -96 -56 -143 -117 -143c-50 0 -79 53 -107 53c-21 0 -34 -13 -43 -53h-75z" />
    <glyph glyph-name="uni2007" unicode="&#x2007;" 
 />
    <glyph glyph-name="figuredash" unicode="&#x2012;" 
d="M80 199v111h440v-111h-440z" />
    <glyph glyph-name="endash" unicode="&#x2013;" 
d="M80 199v111h440v-111h-440z" />
    <glyph glyph-name="emdash" unicode="&#x2014;" 
d="M20 199v111h560v-111h-560z" />
    <glyph glyph-name="uni2015" unicode="&#x2015;" 
d="M20 199v111h560v-111h-560z" />
    <glyph glyph-name="quoteleft" unicode="&#x2018;" 
d="M359 697l38 -78c-70 -32 -107 -76 -112 -140c7 2 14 3 21 3c53 0 91 -36 91 -91c0 -61 -40 -101 -96 -101c-74 0 -117 59 -117 160c0 109 58 194 175 247z" />
    <glyph glyph-name="quoteright" unicode="&#x2019;" 
d="M241 290l-39 78c69 31 107 76 112 139c-7 -2 -14 -3 -20 -3c-54 0 -92 37 -92 92c0 61 41 101 96 101c75 0 117 -60 117 -160c0 -109 -58 -194 -174 -247z" />
    <glyph glyph-name="quotesinglbase" unicode="&#x201a;" 
d="M241 -231l-39 77c69 32 107 77 112 139c-7 -1 -14 -2 -20 -2c-54 0 -92 37 -92 92c0 61 41 101 96 101c75 0 117 -60 117 -160c0 -109 -58 -194 -174 -247z" />
    <glyph glyph-name="quotedblleft" unicode="&#x201c;" 
d="M226 697l38 -78c-70 -32 -107 -76 -112 -140c7 2 14 3 21 3c53 0 91 -36 91 -91c0 -61 -40 -101 -96 -101c-74 0 -117 59 -117 160c0 109 58 194 175 247zM492 697l38 -78c-70 -32 -107 -76 -112 -140c7 2 14 3 21 3c53 0 91 -36 91 -91c0 -61 -40 -101 -96 -101
c-74 0 -117 59 -117 160c0 109 58 194 175 247z" />
    <glyph glyph-name="quotedblright" unicode="&#x201d;" 
d="M108 290l-39 78c69 31 107 76 112 138c-7 -1 -14 -2 -20 -2c-54 0 -92 37 -92 92c0 61 41 101 96 101c75 0 117 -60 117 -160c0 -109 -58 -194 -174 -247zM374 290l-39 78c69 31 107 76 112 139c-8 -2 -14 -3 -21 -3c-53 0 -91 37 -91 92c0 61 41 101 96 101
c75 0 117 -60 117 -160c0 -109 -58 -194 -174 -247z" />
    <glyph glyph-name="quotedblbase" unicode="&#x201e;" 
d="M108 -231l-39 77c69 32 107 77 111 139c-6 -1 -13 -2 -19 -2c-54 0 -92 37 -92 92c0 61 41 101 96 101c75 0 117 -60 117 -160c0 -109 -58 -194 -174 -247zM374 -231l-39 77c69 32 107 77 112 140c-8 -2 -14 -3 -21 -3c-53 0 -91 37 -91 92c0 61 41 101 96 101
c75 0 117 -60 117 -160c0 -109 -58 -194 -174 -247z" />
    <glyph glyph-name="dagger" unicode="&#x2020;" 
d="M241 -80l9 518l-161 -8v118l161 -9l-9 173h118l-9 -173l161 9v-118l-161 8l9 -518h-118z" />
    <glyph glyph-name="daggerdbl" unicode="&#x2021;" 
d="M89 84v118l161 -12l-9 126l9 126l-161 -12v118l161 -9l-9 173h118l-9 -173l161 9v-118l-161 12l9 -126l-9 -126l161 12v-118l-161 9l9 -173h-118l9 173z" />
    <glyph glyph-name="bullet" unicode="&#x2022;" 
d="M300 101c-93 0 -164 69 -164 161s71 161 164 161s164 -69 164 -161s-71 -161 -164 -161z" />
    <glyph glyph-name="ellipsis" unicode="&#x2026;" 
d="M-1 84c0 54 37 96 92 96c56 0 92 -42 92 -96s-36 -96 -92 -96c-55 0 -92 42 -92 96zM208 84c0 54 37 96 92 96s92 -42 92 -96s-37 -96 -92 -96s-92 42 -92 96zM417 84c0 54 36 96 92 96c55 0 92 -42 92 -96s-37 -96 -92 -96c-56 0 -92 42 -92 96z" />
    <glyph glyph-name="perthousand" unicode="&#x2030;" 
d="M158 388c-72 0 -127 52 -127 132s55 127 127 127c73 0 128 -47 128 -127s-55 -132 -128 -132zM158 451c23 0 44 17 44 69s-21 65 -44 65c-22 0 -43 -13 -43 -65s21 -69 43 -69zM544 513l38 -94l-470 -148l-19 44zM158 -12c-72 0 -127 52 -127 132s55 127 127 127
c73 0 128 -47 128 -127s-55 -132 -128 -132zM158 50c23 0 44 18 44 70s-21 64 -44 64c-22 0 -43 -13 -43 -64c0 -52 21 -70 43 -70zM443 -12c-72 0 -128 52 -128 132s56 127 128 127c73 0 128 -47 128 -127s-55 -132 -128 -132zM443 50c23 0 44 18 44 70s-21 64 -44 64
s-43 -13 -43 -64c0 -52 20 -70 43 -70z" />
    <glyph glyph-name="uni2032" unicode="&#x2032;" 
d="M229 355l22 331h147l-26 -145l-47 -186h-96z" />
    <glyph glyph-name="uni2033" unicode="&#x2033;" 
d="M111 355l22 331h146l-25 -145l-47 -186h-96zM348 355l21 331h147l-25 -145l-47 -186h-96z" />
    <glyph glyph-name="guilsinglleft" unicode="&#x2039;" 
d="M346 25l-171 154v146l171 154l62 -55l-127 -172l127 -172z" />
    <glyph glyph-name="guilsinglright" unicode="&#x203a;" 
d="M192 80l127 172l-127 172l62 55l171 -154v-146l-171 -154z" />
    <glyph glyph-name="fraction" unicode="&#x2044;" 
d="M92 28l-75 73l186 173l51 -47zM508 624l75 -73l-186 -174l-51 48z" />
    <glyph glyph-name="zero.sups" unicode="&#x2070;" 
d="M300 428c-85 0 -148 66 -148 170c0 103 63 166 148 166s148 -63 148 -166c0 -104 -63 -170 -148 -170zM300 507c25 0 48 23 48 91s-23 87 -48 87s-48 -19 -48 -87s23 -91 48 -91z" />
    <glyph glyph-name="i.sups" unicode="&#x2071;" 
d="M169 508v81h229v-329h-104v248h-125zM345 634c-40 0 -68 24 -68 62c0 36 28 62 68 62c39 0 68 -26 68 -62c0 -38 -29 -62 -68 -62z" />
    <glyph glyph-name="four.sups" unicode="&#x2074;" 
d="M256 567h65v22l6 99h-4l-34 -62zM466 567v-66h-51v-61h-94v61h-160v51l120 200h134v-185h51z" />
    <glyph glyph-name="five.sups" unicode="&#x2075;" 
d="M165 470l41 66c22 -15 53 -29 82 -29c24 0 44 12 44 35c0 24 -19 36 -44 36c-20 0 -33 -5 -51 -16l-43 29l14 161h213v-88h-133l-4 -35c10 4 29 6 43 6c66 0 109 -36 109 -97s-57 -110 -134 -110c-45 0 -90 7 -137 42z" />
    <glyph glyph-name="six.sups" unicode="&#x2076;" 
d="M307 507c22 0 35 12 35 32s-13 31 -37 31c-15 0 -31 -6 -46 -18c8 -35 30 -45 48 -45zM434 723l-41 -61c-17 14 -36 23 -60 23c-51 0 -70 -35 -75 -79c21 18 47 28 79 28c60 0 99 -33 99 -94c0 -62 -53 -112 -125 -112c-94 0 -150 69 -150 167c0 90 57 169 164 169
c44 0 80 -17 109 -41z" />
    <glyph glyph-name="seven.sups" unicode="&#x2077;" 
d="M233 440c6 90 34 146 90 225h-146v87h264v-56c-76 -86 -91 -151 -96 -256h-112z" />
    <glyph glyph-name="eight.sups" unicode="&#x2078;" 
d="M260 527c0 -19 17 -31 40 -31s40 12 40 29c0 21 -23 32 -54 41c-16 -8 -26 -24 -26 -39zM313 634c13 8 19 20 19 32c0 16 -13 28 -33 28c-17 0 -30 -10 -30 -24c0 -18 17 -27 44 -36zM166 519c0 42 31 61 61 77v4c-30 20 -52 33 -52 73c0 55 57 91 125 91
c71 0 126 -36 126 -91c0 -34 -23 -51 -53 -65v-4c35 -18 61 -37 61 -85c0 -49 -55 -91 -134 -91s-134 41 -134 91z" />
    <glyph glyph-name="nine.sups" unicode="&#x2079;" 
d="M258 652c0 -20 13 -31 37 -31c15 0 31 7 46 18c-8 36 -30 46 -48 46c-22 0 -35 -12 -35 -33zM166 469l41 60c17 -14 36 -22 60 -22c51 0 70 34 75 78c-21 -17 -47 -27 -79 -27c-60 0 -99 32 -99 94s53 112 125 112c94 0 150 -69 150 -168c0 -89 -57 -168 -164 -168
c-44 0 -80 16 -109 41z" />
    <glyph glyph-name="parenleft.sups" unicode="&#x207d;" 
d="M214 606c0 105 40 180 108 254l79 -48c-54 -63 -83 -133 -83 -206c0 -74 29 -144 83 -207l-79 -48c-68 74 -108 149 -108 255z" />
    <glyph glyph-name="parenright.sups" unicode="&#x207e;" 
d="M386 606c0 -106 -40 -181 -108 -255l-79 48c54 63 83 133 83 207c0 73 -29 143 -83 206l79 48c68 -74 108 -149 108 -254z" />
    <glyph glyph-name="n.sups" unicode="&#x207f;" 
d="M156 260v329h85l7 -42h3c28 26 62 50 111 50c74 0 107 -52 107 -134v-203h-104v190c0 41 -12 59 -45 59c-24 0 -39 -11 -60 -30v-219h-104z" />
    <glyph glyph-name="zero.subs" unicode="&#x2080;" 
d="M300 -182c-85 0 -148 66 -148 170c0 103 63 166 148 166s148 -63 148 -166c0 -104 -63 -170 -148 -170zM300 -103c25 0 48 23 48 91s-23 87 -48 87s-48 -19 -48 -87s23 -91 48 -91z" />
    <glyph glyph-name="one.subs" unicode="&#x2081;" 
d="M277 -170v212h-81v64c51 7 72 16 105 36h83v-312h-107z" />
    <glyph glyph-name="two.subs" unicode="&#x2082;" 
d="M172 -170v55c83 54 147 108 147 142c0 25 -15 41 -44 41c-19 0 -39 -12 -55 -35l-62 56c37 39 79 65 133 65c79 0 131 -41 131 -109c0 -46 -40 -89 -82 -128h93v-87h-261z" />
    <glyph glyph-name="three.subs" unicode="&#x2083;" 
d="M165 -140l41 66c21 -15 54 -29 82 -29c23 0 42 9 42 29c0 23 -22 35 -73 35v55c38 0 61 8 61 32c0 16 -14 27 -39 27c-22 0 -46 -13 -66 -25l-42 62c30 24 78 42 132 42c66 0 119 -36 119 -89c0 -36 -14 -57 -54 -71c47 -13 66 -39 66 -76c0 -59 -60 -100 -133 -100
c-41 0 -89 7 -136 42z" />
    <glyph glyph-name="four.subs" unicode="&#x2084;" 
d="M256 -43h65v22l6 99h-4l-34 -62zM466 -43v-66h-51v-61h-94v61h-160v51l120 200h134v-185h51z" />
    <glyph glyph-name="five.subs" unicode="&#x2085;" 
d="M165 -140l41 66c22 -15 53 -29 82 -29c24 0 44 12 44 35c0 24 -19 36 -44 36c-20 0 -33 -5 -51 -16l-43 29l14 161h213v-88h-133l-4 -35c10 4 29 6 43 6c66 0 109 -36 109 -97s-57 -110 -134 -110c-45 0 -90 7 -137 42z" />
    <glyph glyph-name="six.subs" unicode="&#x2086;" 
d="M307 -103c22 0 35 12 35 32s-13 31 -37 31c-15 0 -31 -6 -46 -18c8 -35 30 -45 48 -45zM434 113l-41 -61c-17 14 -36 23 -60 23c-51 0 -70 -35 -75 -79c21 18 47 28 79 28c60 0 99 -33 99 -94c0 -62 -53 -112 -125 -112c-94 0 -150 69 -150 167c0 90 57 169 164 169
c44 0 80 -17 109 -41z" />
    <glyph glyph-name="seven.subs" unicode="&#x2087;" 
d="M233 -170c6 90 34 146 90 225h-146v87h264v-56c-76 -86 -91 -151 -96 -256h-112z" />
    <glyph glyph-name="eight.subs" unicode="&#x2088;" 
d="M260 -83c0 -19 17 -31 40 -31s40 12 40 29c0 21 -23 32 -54 41c-16 -8 -26 -24 -26 -39zM313 24c13 8 19 20 19 32c0 16 -13 28 -33 28c-17 0 -30 -10 -30 -24c0 -18 17 -27 44 -36zM166 -91c0 42 31 61 61 77v4c-30 20 -52 33 -52 73c0 55 57 91 125 91
c71 0 126 -36 126 -91c0 -34 -23 -51 -53 -65v-4c35 -18 61 -37 61 -85c0 -49 -55 -91 -134 -91s-134 41 -134 91z" />
    <glyph glyph-name="nine.subs" unicode="&#x2089;" 
d="M258 42c0 -20 13 -31 37 -31c15 0 31 7 46 18c-8 36 -30 46 -48 46c-22 0 -35 -12 -35 -33zM166 -141l41 60c17 -14 36 -22 60 -22c51 0 70 34 75 78c-21 -17 -47 -27 -79 -27c-60 0 -99 32 -99 94s53 112 125 112c94 0 150 -69 150 -168c0 -89 -57 -168 -164 -168
c-44 0 -80 16 -109 41z" />
    <glyph glyph-name="parenleft.subs" unicode="&#x208d;" 
d="M214 -4c0 105 40 180 108 254l79 -48c-54 -63 -83 -133 -83 -206c0 -74 29 -144 83 -207l-79 -48c-68 74 -108 149 -108 255z" />
    <glyph glyph-name="parenright.subs" unicode="&#x208e;" 
d="M386 -4c0 -106 -40 -181 -108 -255l-79 48c54 63 83 133 83 207c0 73 -29 143 -83 206l79 48c68 -74 108 -149 108 -254z" />
    <glyph glyph-name="uni0259.sups" unicode="&#x2094;" 
d="M148 411c0 18 2 34 4 42h210c-9 47 -37 65 -81 65c-27 0 -52 -8 -78 -22l-35 63c38 25 83 38 125 38c101 0 169 -66 169 -173c0 -106 -77 -172 -163 -172c-102 0 -151 69 -151 159zM236 390c0 -36 18 -60 60 -60c34 0 61 17 68 60h-128z" />
    <glyph glyph-name="colonmonetary" unicode="&#x20a1;" 
d="M356 533l-50 -415c12 -7 25 -11 39 -14l50 426c-9 2 -18 3 -28 3h-11zM262 162l42 355c-51 -29 -78 -99 -78 -198c0 -67 12 -120 36 -157zM482 156l81 -76c-50 -54 -110 -86 -182 -91l-12 -99h-50l12 99c-14 2 -27 4 -39 6l-13 -105h-50l14 121c-99 43 -164 146 -164 303
c0 186 94 304 240 328l12 103h50l-12 -98h8c11 0 21 -1 32 -2l12 100h50l-13 -113c35 -13 69 -34 97 -63l-81 -79c-10 8 -20 15 -31 22l-48 -408c34 6 62 23 87 52z" />
    <glyph glyph-name="lira" unicode="&#x20a4;" 
d="M258 124h292v-124h-483v91c60 23 105 68 116 126h-112v69l79 5h28c-4 16 -10 32 -16 48h-91v69l67 5c-2 10 -3 20 -3 29c0 126 95 205 228 205c82 0 139 -29 186 -81l-79 -80c-27 28 -55 42 -93 42c-64 0 -103 -30 -103 -94c0 -7 0 -13 1 -20h181v-75h-162
c4 -16 9 -32 13 -48h149v-74h-146c-5 -34 -21 -60 -52 -89v-4z" />
    <glyph glyph-name="uni20A6" unicode="&#x20a6;" 
d="M405 294l-4 48h-59l16 -48h47zM424 109l-13 127h-33l42 -127h4zM195 342l4 -48h59l-16 48h-47zM176 526l13 -126h33l-42 126h-4zM572 342h-69v-48h69v-58h-69v-236h-136l-89 236h-75v-236h-106v236h-70v52l70 6v48h-70v52l70 6v235h136l89 -235h75v235h106v-235h69v-58z
" />
    <glyph glyph-name="peseta" unicode="&#x20a7;" 
d="M228 307h34c58 0 95 27 109 73h-143v-73zM262 543h-34v-72h142c-13 50 -50 72 -108 72zM571 471v-91h-61c-20 -114 -121 -165 -238 -165h-44v-215h-139v380h-68v85l68 5v165h183c118 0 217 -43 237 -164h62z" />
    <glyph glyph-name="dong" unicode="&#x20ab;" 
d="M104 0v74h419v-74h-419zM369 249v111c-24 19 -45 26 -73 26c-41 0 -81 -30 -81 -81c0 -63 30 -92 77 -92c30 0 52 10 77 36zM490 602h72v-68l-72 -6v-402h-100l-9 36h-3c-29 -28 -70 -46 -116 -46c-104 0 -171 68 -171 190c0 112 89 179 175 179c49 0 76 -13 107 -39
l-4 67v15h-154v74h154v49h121v-49z" />
    <glyph glyph-name="Euro" unicode="&#x20ac;" 
d="M502 156l81 -76c-54 -59 -121 -92 -202 -92c-135 0 -240 78 -272 227h-64v69l55 4c-1 9 -1 17 -1 26s0 17 1 26h-55v68l64 5c33 149 140 234 283 234c68 0 134 -28 183 -78l-81 -79c-31 25 -64 43 -107 43c-68 0 -112 -43 -131 -119h253v-74h-263v-21c0 -10 0 -20 1 -29
h222v-75h-210c21 -73 66 -113 131 -113c46 0 81 19 112 54z" />
    <glyph glyph-name="uni20B1" unicode="&#x20b1;" 
d="M228 404h147c1 6 1 12 1 18c0 10 -1 19 -2 27h-146v-45zM228 307h34c42 0 73 14 92 39h-126v-39zM262 543h-34v-36h125c-19 25 -50 36 -91 36zM571 507v-58h-59c1 -9 1 -18 1 -27c0 -6 0 -12 -1 -18h59v-58h-70c-33 -90 -125 -131 -229 -131h-44v-215h-139v346h-67v52
l67 5v46h-67v52l67 5v129h183c106 0 195 -35 228 -128h71z" />
    <glyph glyph-name="uni20B2" unicode="&#x20b2;" 
d="M331 242v120h206v-300c-41 -36 -91 -61 -145 -70v-102h-98v102c-132 22 -227 132 -227 322c0 183 92 300 227 327v104h98v-101c55 -9 107 -37 146 -78l-81 -80c-31 29 -64 47 -107 47c-87 0 -136 -80 -136 -214c0 -138 53 -212 139 -212c21 0 42 5 54 13v122h-76z" />
    <glyph glyph-name="uni20B5" unicode="&#x20b5;" 
d="M323 110v416c-64 -22 -97 -96 -97 -207c0 -112 35 -185 97 -209zM482 156l81 -76c-44 -48 -97 -79 -159 -89v-101h-81v100c-142 17 -244 128 -244 324c0 189 98 308 244 329v93h81v-91c56 -7 110 -34 151 -76l-81 -79c-21 17 -44 31 -70 38v-422c30 7 55 24 78 50z" />
    <glyph glyph-name="uni20B9" unicode="&#x20b9;" 
d="M523 635v-74h-149c37 -23 63 -57 73 -98h76v-74h-74c-11 -85 -63 -138 -135 -165l187 -224h-163l-164 201h-86v117h74c76 0 124 24 140 71h-214v68l81 6h131c-17 41 -64 55 -138 55h-74v117h435z" />
    <glyph glyph-name="uni20BA" unicode="&#x20ba;" 
d="M268 125c83 8 158 58 158 129c0 6 0 15 -4 30l121 28c5 -20 8 -40 8 -51c0 -182 -162 -280 -430 -273v232l-85 -41v81l85 41v55l-85 -41v81l85 41v198h147v-126l160 77v-81l-160 -77v-55l160 77v-81l-160 -77v-167z" />
    <glyph glyph-name="uni2113" unicode="&#x2113;" 
d="M316 497v-131c58 56 87 112 87 184c0 42 -16 63 -38 63c-26 0 -49 -31 -49 -116zM486 154l54 -89c-44 -39 -100 -77 -170 -77c-91 0 -171 49 -193 147c-15 -10 -31 -19 -47 -29l-55 90c35 21 67 41 97 61v220c0 168 80 243 188 243c97 0 161 -64 161 -170
c0 -125 -61 -216 -205 -323v-25c0 -66 35 -92 77 -92c39 0 69 23 93 44z" />
    <glyph glyph-name="uni2117" unicode="&#x2117;" 
d="M177 139v365h128c86 0 154 -34 154 -130c0 -99 -71 -144 -154 -144h-24v-91h-104zM281 306h17c41 0 60 20 60 64c0 39 -21 55 -60 55h-17v-119zM19 325c0 207 129 330 281 330s281 -123 281 -330s-129 -334 -281 -334s-281 127 -281 334zM83 325c0 -164 87 -273 217 -273
s217 109 217 273s-87 270 -217 270s-217 -106 -217 -270z" />
    <glyph glyph-name="uni2120" unicode="&#x2120;" 
d="M107 350c-44 0 -79 16 -116 49l50 60c23 -21 45 -37 73 -37c19 0 29 7 29 21c0 16 -10 20 -34 32l-42 21c-31 15 -60 40 -60 91c0 54 43 100 117 100c42 0 81 -18 109 -40l-44 -61c-22 14 -44 28 -67 28c-20 0 -29 -10 -29 -22c0 -13 11 -18 35 -29l41 -20
c40 -18 62 -41 62 -90c0 -53 -47 -103 -124 -103zM275 362v314h103l34 -94l21 -71h4l20 71l34 94h103v-314h-84v96l11 115h-4l-53 -148h-58l-54 148h-4l11 -115v-96h-84z" />
    <glyph glyph-name="trademark" unicode="&#x2122;" 
d="M275 362v314h103l34 -94l21 -71h4l20 71l34 94h103v-314h-84v96l11 115h-4l-53 -148h-58l-54 148h-4l11 -115v-96h-84zM66 362v227h-79v87h253v-87h-78v-227h-96z" />
    <glyph glyph-name="uni2126" unicode="&#x2126;" 
d="M12 0v119h108v4c-42 44 -92 127 -92 235c0 181 107 306 272 306s272 -125 272 -306c0 -108 -50 -191 -92 -235v-4h108v-119h-244v106c54 63 77 135 77 237c0 113 -43 194 -121 194s-121 -81 -121 -194c0 -102 23 -174 77 -237v-106h-244z" />
    <glyph glyph-name="estimated" unicode="&#x212e;" 
d="M164 68c34 -38 84 -60 138 -60c70 0 136 44 182 112h38c-54 -80 -132 -132 -222 -132c-151 0 -274 150 -274 336s123 336 274 336s274 -150 274 -336v-8h-414c-2 0 -4 -2 -4 -4v-224c0 -8 4 -14 8 -20zM160 334h280c4 0 6 2 6 6v224c0 8 -4 16 -10 22
c-34 34 -84 54 -134 54c-54 0 -104 -22 -138 -58c-4 -6 -8 -15 -8 -22v-220c0 -4 2 -6 4 -6z" />
    <glyph glyph-name="onethird" unicode="&#x2153;" 
d="M150 324v212h-81v64c51 6 73 15 105 35h83v-311h-107zM92 28l-75 73l186 173l51 -47zM508 624l75 -73l-186 -174l-51 48zM293 30l42 66c20 -15 54 -29 82 -29c23 0 42 9 42 29c0 23 -23 35 -73 35v55c38 0 60 8 60 32c0 16 -13 27 -38 27c-23 0 -46 -13 -66 -25l-43 62
c31 24 78 42 133 42c65 0 118 -36 118 -89c0 -36 -13 -57 -54 -71c48 -13 67 -39 67 -76c0 -59 -61 -100 -133 -100c-42 0 -90 7 -137 42z" />
    <glyph glyph-name="twothirds" unicode="&#x2154;" 
d="M44 324v55c82 54 147 107 147 141c0 25 -16 42 -45 42c-18 0 -38 -13 -55 -35l-61 55c37 39 79 65 133 65c79 0 130 -41 130 -108c0 -46 -40 -90 -81 -129h92v-86h-260zM92 28l-75 73l186 173l51 -47zM508 624l75 -73l-186 -174l-51 48zM293 30l42 66
c20 -15 54 -29 82 -29c23 0 42 9 42 29c0 23 -23 35 -73 35v55c38 0 60 8 60 32c0 16 -13 27 -38 27c-23 0 -46 -13 -66 -25l-43 62c31 24 78 42 133 42c65 0 118 -36 118 -89c0 -36 -13 -57 -54 -71c48 -13 67 -39 67 -76c0 -59 -61 -100 -133 -100c-42 0 -90 7 -137 42z
" />
    <glyph glyph-name="oneeighth" unicode="&#x215b;" 
d="M150 324v212h-81v64c51 6 73 15 105 35h83v-311h-107zM92 28l-75 73l186 173l51 -47zM508 624l75 -73l-186 -174l-51 48zM388 87c0 -19 18 -31 40 -31c23 0 41 12 41 29c0 21 -24 32 -55 41c-15 -8 -26 -24 -26 -39zM441 194c13 8 19 20 19 32c0 16 -13 28 -32 28
c-18 0 -31 -10 -31 -24c0 -18 17 -27 44 -36zM294 79c0 42 31 61 61 77v4c-29 20 -52 33 -52 73c0 55 57 91 125 91c72 0 126 -36 126 -91c0 -34 -23 -51 -53 -65v-4c35 -18 62 -37 62 -85c0 -49 -56 -91 -135 -91s-134 41 -134 91z" />
    <glyph glyph-name="threeeighths" unicode="&#x215c;" 
d="M38 353l41 66c21 -15 55 -29 83 -29c23 0 41 10 41 29c0 24 -22 35 -72 35v56c37 0 60 8 60 32c0 16 -14 26 -39 26c-22 0 -46 -12 -66 -25l-42 63c30 24 78 41 133 41c65 0 118 -35 118 -88c0 -37 -14 -58 -54 -72c47 -13 67 -39 67 -76c0 -58 -61 -99 -134 -99
c-41 0 -89 7 -136 41zM92 28l-75 73l186 173l51 -47zM508 624l75 -73l-186 -174l-51 48zM388 87c0 -19 18 -31 40 -31c23 0 41 12 41 29c0 21 -24 32 -55 41c-15 -8 -26 -24 -26 -39zM441 194c13 8 19 20 19 32c0 16 -13 28 -32 28c-18 0 -31 -10 -31 -24
c0 -18 17 -27 44 -36zM294 79c0 42 31 61 61 77v4c-29 20 -52 33 -52 73c0 55 57 91 125 91c72 0 126 -36 126 -91c0 -34 -23 -51 -53 -65v-4c35 -18 62 -37 62 -85c0 -49 -56 -91 -135 -91s-134 41 -134 91z" />
    <glyph glyph-name="fiveeighths" unicode="&#x215d;" 
d="M38 353l41 66c22 -15 53 -29 82 -29c25 0 44 12 44 35c0 25 -19 37 -43 37c-20 0 -34 -6 -52 -16l-43 28l14 161h213v-87h-133l-4 -36c10 4 29 7 43 7c66 0 109 -36 109 -97c0 -62 -57 -110 -134 -110c-45 0 -90 7 -137 41zM92 28l-75 73l186 173l51 -47zM508 624l75 -73
l-186 -174l-51 48zM388 87c0 -19 18 -31 40 -31c23 0 41 12 41 29c0 21 -24 32 -55 41c-15 -8 -26 -24 -26 -39zM441 194c13 8 19 20 19 32c0 16 -13 28 -32 28c-18 0 -31 -10 -31 -24c0 -18 17 -27 44 -36zM294 79c0 42 31 61 61 77v4c-29 20 -52 33 -52 73
c0 55 57 91 125 91c72 0 126 -36 126 -91c0 -34 -23 -51 -53 -65v-4c35 -18 62 -37 62 -85c0 -49 -56 -91 -135 -91s-134 41 -134 91z" />
    <glyph glyph-name="seveneighths" unicode="&#x215e;" 
d="M107 324c5 90 33 145 89 224h-146v87h264v-55c-76 -86 -91 -151 -96 -256h-111zM92 28l-75 73l186 173l51 -47zM508 624l75 -73l-186 -174l-51 48zM388 87c0 -19 18 -31 40 -31c23 0 41 12 41 29c0 21 -24 32 -55 41c-15 -8 -26 -24 -26 -39zM441 194c13 8 19 20 19 32
c0 16 -13 28 -32 28c-18 0 -31 -10 -31 -24c0 -18 17 -27 44 -36zM294 79c0 42 31 61 61 77v4c-29 20 -52 33 -52 73c0 55 57 91 125 91c72 0 126 -36 126 -91c0 -34 -23 -51 -53 -65v-4c35 -18 62 -37 62 -85c0 -49 -56 -91 -135 -91s-134 41 -134 91z" />
    <glyph glyph-name="uni2190" unicode="&#x2190;" 
d="M13 250v4l278 267l70 -79l-150 -132h357v-116h-357l150 -132l-70 -79z" />
    <glyph glyph-name="arrowup" unicode="&#x2191;" 
d="M298 529h4l267 -278l-79 -69l-132 150v-358h-116v358l-132 -150l-79 69z" />
    <glyph glyph-name="uni2192" unicode="&#x2192;" 
d="M586 254v-4l-278 -267l-69 79l150 132h-358v116h358l-150 132l69 79z" />
    <glyph glyph-name="arrowdown" unicode="&#x2193;" 
d="M302 -26h-4l-267 278l79 70l132 -150v357h116v-357l132 150l79 -70z" />
    <glyph glyph-name="partialdiff" unicode="&#x2202;" 
d="M272 107c50 0 98 36 119 138c-28 44 -63 60 -99 60c-56 0 -97 -36 -97 -111c0 -58 36 -87 77 -87zM190 508l-64 90c54 47 112 74 182 74c155 0 233 -121 233 -303c0 -229 -118 -381 -285 -381c-107 0 -196 76 -196 197c0 137 89 232 214 232c47 0 95 -22 128 -61v17
c0 112 -31 180 -110 180c-39 0 -71 -16 -102 -45z" />
    <glyph glyph-name="uni2206" unicode="&#x2206;" 
d="M14 0v89l198 563h177l197 -563v-89h-572zM172 124h253l-69 220l-57 195h-4l-55 -195z" />
    <glyph glyph-name="product" unicode="&#x220f;" 
d="M25 -120v755h550v-755h-147v627h-256v-627h-147z" />
    <glyph glyph-name="summation" unicode="&#x2211;" 
d="M59 -33l206 290l-196 291v87h465v-124h-286v-4l167 -250l-174 -249v-4h317v-124h-499v87z" />
    <glyph glyph-name="minus" unicode="&#x2212;" 
d="M70 278v104h460v-104h-460z" />
    <glyph glyph-name="uni2215" unicode="&#x2215;" 
d="M92 28l-75 73l186 173l51 -47zM508 624l75 -73l-186 -174l-51 48z" />
    <glyph glyph-name="uni2219" unicode="&#x2219;" 
d="M183 354c0 65 47 117 116 117s116 -52 116 -117c0 -66 -47 -118 -116 -118s-116 52 -116 118z" />
    <glyph glyph-name="radical" unicode="&#x221a;" 
d="M207 440l99 -294c8 -27 15 -55 21 -82h4c4 27 9 55 15 82l157 674h98l-216 -900h-102l-150 411l-74 -31l-26 69z" />
    <glyph glyph-name="infinity" unicode="&#x221e;" 
d="M130 147c-80 0 -143 80 -143 170c0 125 66 198 163 198c62 0 104 -31 134 -84h4c46 70 94 100 162 100c90 0 163 -81 163 -191c0 -140 -75 -219 -171 -219c-71 0 -120 25 -174 110h-4c-30 -50 -73 -84 -134 -84zM329 350c30 -62 60 -93 105 -93s72 37 72 80
c0 54 -31 87 -79 87c-35 0 -68 -23 -98 -74zM151 254c30 0 54 17 73 58c-22 49 -49 67 -78 67c-34 0 -52 -25 -52 -59s23 -66 57 -66z" />
    <glyph glyph-name="integral" unicode="&#x222b;" 
d="M161 -44c10 -2 22 -4 36 -4c52 0 63 38 63 133c0 153 -38 294 -38 459c0 141 32 247 189 247c23 0 46 -4 57 -7l-15 -107c-9 3 -21 4 -35 4c-52 0 -63 -39 -63 -133c0 -153 37 -294 37 -459c0 -141 -31 -247 -188 -247c-24 0 -46 4 -57 8z" />
    <glyph glyph-name="approxequal" unicode="&#x2248;" 
d="M140 351l-88 41c42 104 101 144 163 144c83 0 117 -75 172 -75c28 0 54 26 73 81l88 -41c-42 -104 -101 -144 -163 -144c-83 0 -117 75 -172 75c-27 0 -54 -26 -73 -81zM140 118l-88 41c42 104 101 144 163 144c83 0 117 -75 172 -75c28 0 54 26 73 81l88 -41
c-42 -104 -101 -144 -163 -144c-83 0 -117 75 -172 75c-27 0 -54 -26 -73 -81z" />
    <glyph glyph-name="notequal" unicode="&#x2260;" 
d="M88 40l71 122h-89v103h147l73 130h-220v103h277l72 122h93l-71 -122h89v-103h-147l-73 -130h220v-103h-277l-72 -122h-93z" />
    <glyph glyph-name="lessequal" unicode="&#x2264;" 
d="M70 0v104h460v-104h-460zM70 296v122l460 142v-121l-172 -46l-139 -34v-4l139 -34l172 -46v-121z" />
    <glyph glyph-name="greaterequal" unicode="&#x2265;" 
d="M70 0v104h460v-104h-460zM530 418v-122l-460 -142v121l172 46l139 34v4l-139 34l-172 46v121z" />
    <glyph glyph-name="uni2500" unicode="&#x2500;" 
d="M-69 231v138h738v-138h-738z" />
    <glyph glyph-name="uni2501" unicode="&#x2501;" 
d="M-69 163v274h738v-274h-738z" />
    <glyph glyph-name="uni2502" unicode="&#x2502;" 
d="M231 -400v1400h138v-1400h-138z" />
    <glyph glyph-name="uni2503" unicode="&#x2503;" 
d="M163 -400v1400h274v-1400h-274z" />
    <glyph glyph-name="uni2504" unicode="&#x2504;" 
d="M33 231v138h134v-138h-134zM233 231v138h134v-138h-134zM433 231v138h134v-138h-134z" />
    <glyph glyph-name="uni2505" unicode="&#x2505;" 
d="M33 163v274h134v-274h-134zM233 163v274h134v-274h-134zM433 163v274h134v-274h-134z" />
    <glyph glyph-name="uni2506" unicode="&#x2506;" 
d="M231 -145v222h138v-222h-138zM231 188v222h138v-222h-138zM231 521v222h138v-222h-138z" />
    <glyph glyph-name="uni2507" unicode="&#x2507;" 
d="M163 -145v222h274v-222h-274zM163 188v222h274v-222h-274zM163 521v222h274v-222h-274z" />
    <glyph glyph-name="uni2508" unicode="&#x2508;" 
d="M18 231v138h113v-138h-113zM168 231v138h113v-138h-113zM318 231v138h113v-138h-113zM468 231v138h113v-138h-113z" />
    <glyph glyph-name="uni2509" unicode="&#x2509;" 
d="M18 163v274h113v-274h-113zM168 163v274h113v-274h-113zM318 163v274h113v-274h-113zM468 163v274h113v-274h-113z" />
    <glyph glyph-name="uni250A" unicode="&#x250a;" 
d="M231 -169v188h138v-188h-138zM231 81v188h138v-188h-138zM231 331v188h138v-188h-138zM231 581v188h138v-188h-138z" />
    <glyph glyph-name="uni250B" unicode="&#x250b;" 
d="M163 -169v188h274v-188h-274zM163 81v188h274v-188h-274zM163 331v188h274v-188h-274zM163 581v188h274v-188h-274z" />
    <glyph glyph-name="uni250C" unicode="&#x250c;" 
d="M231 -400v769h438v-138h-300v-631h-138z" />
    <glyph glyph-name="uni250D" unicode="&#x250d;" 
d="M231 -400v837h438v-274h-300v-563h-138z" />
    <glyph glyph-name="uni250E" unicode="&#x250e;" 
d="M163 -400v769h506v-138h-232v-631h-274z" />
    <glyph glyph-name="uni250F" unicode="&#x250f;" 
d="M163 -400v837h506v-274h-232v-563h-274z" />
    <glyph glyph-name="uni2510" unicode="&#x2510;" 
d="M-69 231v138h438v-769h-138v631h-300z" />
    <glyph glyph-name="uni2511" unicode="&#x2511;" 
d="M-69 163v274h438v-837h-138v563h-300z" />
    <glyph glyph-name="uni2512" unicode="&#x2512;" 
d="M-69 231v138h506v-769h-274v631h-232z" />
    <glyph glyph-name="uni2513" unicode="&#x2513;" 
d="M-69 163v274h506v-837h-274v563h-232z" />
    <glyph glyph-name="uni2514" unicode="&#x2514;" 
d="M231 231v769h138v-631h300v-138h-438z" />
    <glyph glyph-name="uni2515" unicode="&#x2515;" 
d="M231 163v837h138v-563h300v-274h-438z" />
    <glyph glyph-name="uni2516" unicode="&#x2516;" 
d="M163 231v769h274v-631h232v-138h-506z" />
    <glyph glyph-name="uni2517" unicode="&#x2517;" 
d="M163 163v837h274v-563h232v-274h-506z" />
    <glyph glyph-name="uni2518" unicode="&#x2518;" 
d="M-69 231v138h300v631h138v-769h-438z" />
    <glyph glyph-name="uni2519" unicode="&#x2519;" 
d="M-69 163v274h300v563h138v-837h-438z" />
    <glyph glyph-name="uni251A" unicode="&#x251a;" 
d="M-69 231v138h232v631h274v-769h-506z" />
    <glyph glyph-name="uni251B" unicode="&#x251b;" 
d="M-69 163v274h232v563h274v-837h-506z" />
    <glyph glyph-name="uni251C" unicode="&#x251c;" 
d="M231 -400v1400h138v-631h300v-138h-300v-631h-138z" />
    <glyph glyph-name="uni251D" unicode="&#x251d;" 
d="M231 -400v1400h138v-563h300v-274h-300v-563h-138z" />
    <glyph glyph-name="uni251E" unicode="&#x251e;" 
d="M163 231v769h274v-631h232v-138h-300v-631h-138v631h-68z" />
    <glyph glyph-name="uni251F" unicode="&#x251f;" 
d="M163 -400v769h68v631h138v-631h300v-138h-232v-631h-274z" />
    <glyph glyph-name="uni2520" unicode="&#x2520;" 
d="M163 -400v1400h274v-631h232v-138h-232v-631h-274z" />
    <glyph glyph-name="uni2521" unicode="&#x2521;" 
d="M163 163v837h274v-563h232v-274h-300v-563h-138v563h-68z" />
    <glyph glyph-name="uni2522" unicode="&#x2522;" 
d="M163 -400v837h68v563h138v-563h300v-274h-232v-563h-274z" />
    <glyph glyph-name="uni2523" unicode="&#x2523;" 
d="M163 -400v1400h274v-563h232v-274h-232v-563h-274z" />
    <glyph glyph-name="uni2524" unicode="&#x2524;" 
d="M-69 231v138h300v631h138v-1400h-138v631h-300z" />
    <glyph glyph-name="uni2525" unicode="&#x2525;" 
d="M-69 163v274h300v563h138v-1400h-138v563h-300z" />
    <glyph glyph-name="uni2526" unicode="&#x2526;" 
d="M-69 231v138h232v631h274v-769h-68v-631h-138v631h-300z" />
    <glyph glyph-name="uni2527" unicode="&#x2527;" 
d="M-69 231v138h300v631h138v-631h68v-769h-274v631h-232z" />
    <glyph glyph-name="uni2528" unicode="&#x2528;" 
d="M-69 231v138h232v631h274v-1400h-274v631h-232z" />
    <glyph glyph-name="uni2529" unicode="&#x2529;" 
d="M-69 163v274h232v563h274v-837h-68v-563h-138v563h-300z" />
    <glyph glyph-name="uni252A" unicode="&#x252a;" 
d="M-69 163v274h300v563h138v-563h68v-837h-274v563h-232z" />
    <glyph glyph-name="uni252B" unicode="&#x252b;" 
d="M-69 163v274h232v563h274v-1400h-274v563h-232z" />
    <glyph glyph-name="uni252C" unicode="&#x252c;" 
d="M-69 231v138h738v-138h-300v-631h-138v631h-300z" />
    <glyph glyph-name="uni252D" unicode="&#x252d;" 
d="M-69 163v274h438v-68h300v-138h-300v-631h-138v563h-300z" />
    <glyph glyph-name="uni252E" unicode="&#x252e;" 
d="M-69 231v138h300v68h438v-274h-300v-563h-138v631h-300z" />
    <glyph glyph-name="uni252F" unicode="&#x252f;" 
d="M-69 163v274h738v-274h-300v-563h-138v563h-300z" />
    <glyph glyph-name="uni2530" unicode="&#x2530;" 
d="M-69 231v138h738v-138h-232v-631h-274v631h-232z" />
    <glyph glyph-name="uni2531" unicode="&#x2531;" 
d="M-69 163v274h506v-68h232v-138h-232v-631h-274v563h-232z" />
    <glyph glyph-name="uni2532" unicode="&#x2532;" 
d="M-69 231v138h232v68h506v-274h-232v-563h-274v631h-232z" />
    <glyph glyph-name="uni2533" unicode="&#x2533;" 
d="M-69 163v274h738v-274h-232v-563h-274v563h-232z" />
    <glyph glyph-name="uni2534" unicode="&#x2534;" 
d="M-69 231v138h300v631h138v-631h300v-138h-738z" />
    <glyph glyph-name="uni2535" unicode="&#x2535;" 
d="M-69 163v274h300v563h138v-631h300v-138h-300v-68h-438z" />
    <glyph glyph-name="uni2536" unicode="&#x2536;" 
d="M-69 231v138h300v631h138v-563h300v-274h-438v68h-300z" />
    <glyph glyph-name="uni2537" unicode="&#x2537;" 
d="M-69 163v274h300v563h138v-563h300v-274h-738z" />
    <glyph glyph-name="uni2538" unicode="&#x2538;" 
d="M-69 231v138h232v631h274v-631h232v-138h-738z" />
    <glyph glyph-name="uni2539" unicode="&#x2539;" 
d="M-69 163v274h232v563h274v-631h232v-138h-232v-68h-506z" />
    <glyph glyph-name="uni253A" unicode="&#x253a;" 
d="M-69 231v138h232v631h274v-563h232v-274h-506v68h-232z" />
    <glyph glyph-name="uni253B" unicode="&#x253b;" 
d="M-69 163v274h232v563h274v-563h232v-274h-738z" />
    <glyph glyph-name="uni253C" unicode="&#x253c;" 
d="M-69 231v138h300v631h138v-631h300v-138h-300v-631h-138v631h-300z" />
    <glyph glyph-name="uni253D" unicode="&#x253d;" 
d="M-69 163v274h300v563h138v-631h300v-138h-300v-631h-138v563h-300z" />
    <glyph glyph-name="uni253E" unicode="&#x253e;" 
d="M-69 231v138h300v631h138v-563h300v-274h-300v-563h-138v631h-300z" />
    <glyph glyph-name="uni253F" unicode="&#x253f;" 
d="M-69 163v274h300v563h138v-563h300v-274h-300v-563h-138v563h-300z" />
    <glyph glyph-name="uni2540" unicode="&#x2540;" 
d="M-69 231v138h232v631h274v-631h232v-138h-300v-631h-138v631h-300z" />
    <glyph glyph-name="uni2541" unicode="&#x2541;" 
d="M-69 231v138h300v631h138v-631h300v-138h-232v-631h-274v631h-232z" />
    <glyph glyph-name="uni2542" unicode="&#x2542;" 
d="M-69 231v138h232v631h274v-631h232v-138h-232v-631h-274v631h-232z" />
    <glyph glyph-name="uni2543" unicode="&#x2543;" 
d="M-69 163v274h232v563h274v-631h232v-138h-232v-68h-68v-563h-138v563h-300z" />
    <glyph glyph-name="uni2544" unicode="&#x2544;" 
d="M-69 231v138h232v631h274v-563h232v-274h-300v-563h-138v563h-68v68h-232z" />
    <glyph glyph-name="uni2545" unicode="&#x2545;" 
d="M-69 163v274h300v563h138v-563h68v-68h232v-138h-232v-631h-274v563h-232z" />
    <glyph glyph-name="uni2546" unicode="&#x2546;" 
d="M-69 231v138h232v68h68v563h138v-563h300v-274h-232v-563h-274v631h-232z" />
    <glyph glyph-name="uni2547" unicode="&#x2547;" 
d="M-69 163v274h232v563h274v-563h232v-274h-300v-563h-138v563h-300z" />
    <glyph glyph-name="uni2548" unicode="&#x2548;" 
d="M-69 163v274h300v563h138v-563h300v-274h-232v-563h-274v563h-232z" />
    <glyph glyph-name="uni2549" unicode="&#x2549;" 
d="M-69 163v274h232v563h274v-631h232v-138h-232v-631h-274v563h-232z" />
    <glyph glyph-name="uni254A" unicode="&#x254a;" 
d="M-69 231v138h232v631h274v-563h232v-274h-232v-563h-274v631h-232z" />
    <glyph glyph-name="uni254B" unicode="&#x254b;" 
d="M-69 163v274h232v563h274v-563h232v-274h-232v-563h-274v563h-232z" />
    <glyph glyph-name="uni254C" unicode="&#x254c;" 
d="M75 231v138h150v-138h-150zM375 231v138h150v-138h-150z" />
    <glyph glyph-name="uni254D" unicode="&#x254d;" 
d="M75 163v274h150v-274h-150zM375 163v274h150v-274h-150z" />
    <glyph glyph-name="uni254E" unicode="&#x254e;" 
d="M231 -75v250h138v-250h-138zM231 425v250h138v-250h-138z" />
    <glyph glyph-name="uni254F" unicode="&#x254f;" 
d="M163 -75v250h274v-250h-274zM163 425v250h274v-250h-274z" />
    <glyph glyph-name="uni2550" unicode="&#x2550;" 
d="M-69 369v137h738v-137h-738zM-69 94v137h738v-137h-738z" />
    <glyph glyph-name="uni2551" unicode="&#x2551;" 
d="M94 -400v1400h137v-1400h-137zM369 -400v1400h137v-1400h-137z" />
    <glyph glyph-name="uni2552" unicode="&#x2552;" 
d="M231 -400v906h438v-137h-300v-138h300v-137h-300v-494h-138z" />
    <glyph glyph-name="uni2553" unicode="&#x2553;" 
d="M94 -400v769h137h438v-138h-163v-631h-137v631h-138v-631h-137z" />
    <glyph glyph-name="uni2554" unicode="&#x2554;" 
d="M94 -400v906h575v-137h-438v-769h-137zM369 -400v631h300v-137h-163v-494h-137z" />
    <glyph glyph-name="uni2555" unicode="&#x2555;" 
d="M-69 369v137h438v-906h-138v494h-300v137h300v138h-300z" />
    <glyph glyph-name="uni2556" unicode="&#x2556;" 
d="M369 -400v631h-138v-631h-137v631h-163v138h575v-769h-137z" />
    <glyph glyph-name="uni2557" unicode="&#x2557;" 
d="M-69 369v137h575v-906h-137v769h-438zM-69 94v137h300v-631h-137v494h-163z" />
    <glyph glyph-name="uni2558" unicode="&#x2558;" 
d="M231 94v906h138v-494h300v-137h-300v-138h300v-137h-438z" />
    <glyph glyph-name="uni2559" unicode="&#x2559;" 
d="M94 231v769h137v-631h138v631h137v-631h163v-138h-575z" />
    <glyph glyph-name="uni255A" unicode="&#x255a;" 
d="M94 94v906h137v-769h438v-137h-575zM369 369v631h137v-494h163v-137h-300z" />
    <glyph glyph-name="uni255B" unicode="&#x255b;" 
d="M-69 369v137h300v494h138v-906h-438v137h300v138h-300z" />
    <glyph glyph-name="uni255C" unicode="&#x255c;" 
d="M-69 231v138h163v631h137v-631h138v631h137v-769h-575z" />
    <glyph glyph-name="uni255D" unicode="&#x255d;" 
d="M-69 94v137h438v769h137v-906h-575zM-69 369v137h163v494h137v-631h-300z" />
    <glyph glyph-name="uni255E" unicode="&#x255e;" 
d="M231 -400v1400h138v-494h300v-137h-300v-138h300v-137h-300v-494h-138z" />
    <glyph glyph-name="uni255F" unicode="&#x255f;" 
d="M369 -400v1400h137v-631h163v-138h-163v-631h-137zM94 -400v1400h137v-1400h-137z" />
    <glyph glyph-name="uni2560" unicode="&#x2560;" 
d="M94 -400v1400h137v-1400h-137zM369 369v631h137v-494h163v-137h-300zM369 -400v631h300v-137h-163v-494h-137z" />
    <glyph glyph-name="uni2561" unicode="&#x2561;" 
d="M-69 369v137h300v494h138v-1400h-138v494h-300v137h300v138h-300z" />
    <glyph glyph-name="uni2562" unicode="&#x2562;" 
d="M-69 231v138h163v631h137v-1400h-137v631h-163zM369 -400v1400h137v-1400h-137z" />
    <glyph glyph-name="uni2563" unicode="&#x2563;" 
d="M369 -400v1400h137v-1400h-137zM-69 94v137h300v-631h-137v494h-163zM-69 369v137h163v494h137v-631h-300z" />
    <glyph glyph-name="uni2564" unicode="&#x2564;" 
d="M-69 94v137h738v-137h-300v-494h-138v494h-300zM-69 369v137h738v-137h-738z" />
    <glyph glyph-name="uni2565" unicode="&#x2565;" 
d="M-69 231v138h738v-138h-163v-631h-137v631h-138v-631h-137v631h-163z" />
    <glyph glyph-name="uni2566" unicode="&#x2566;" 
d="M-69 94v137h300v-631h-137v494h-163zM369 -400v631h300v-137h-163v-494h-137zM-69 369v137h738v-137h-738z" />
    <glyph glyph-name="uni2567" unicode="&#x2567;" 
d="M-69 369v137h300v494h138v-494h300v-137h-738zM-69 94v137h738v-137h-738z" />
    <glyph glyph-name="uni2568" unicode="&#x2568;" 
d="M-69 231v138h163v631h137v-631h138v631h137v-631h163v-138h-738z" />
    <glyph glyph-name="uni2569" unicode="&#x2569;" 
d="M-69 369v137h163v494h137v-631h-300zM369 369v631h137v-494h163v-137h-300zM-69 94v137h738v-137h-738z" />
    <glyph glyph-name="uni256A" unicode="&#x256a;" 
d="M-69 369v137h300v494h138v-494h300v-137h-300v-138h300v-137h-300v-494h-138v494h-300v137h300v138h-300z" />
    <glyph glyph-name="uni256B" unicode="&#x256b;" 
d="M-69 231v138h163v631h137v-631h138v631h137v-631h163v-138h-163v-631h-137v631h-138v-631h-137v631h-163z" />
    <glyph glyph-name="uni256C" unicode="&#x256c;" 
d="M-69 369v137h163v494h137v-631h-300zM-69 94v137h300v-631h-137v494h-163zM369 369v631h137v-494h163v-137h-300zM369 -400v631h300v-137h-163v-494h-137z" />
    <glyph glyph-name="uni256D" unicode="&#x256d;" 
d="M231 -400v400c0 204 165 369 369 369h69v-138h-69c-128 0 -231 -103 -231 -231v-400h-138z" />
    <glyph glyph-name="uni256E" unicode="&#x256e;" 
d="M369 0v-400h-138v400c0 128 -103 231 -231 231h-69v138h69c204 0 369 -165 369 -369z" />
    <glyph glyph-name="uni256F" unicode="&#x256f;" 
d="M369 1000v-400c0 -204 -165 -369 -369 -369h-69v138h69c128 0 231 103 231 231v400h138z" />
    <glyph glyph-name="uni2570" unicode="&#x2570;" 
d="M231 600v400h138v-400c0 -128 103 -231 231 -231h69v-138h-69c-204 0 -369 165 -369 369z" />
    <glyph glyph-name="uni2571" unicode="&#x2571;" 
d="M-69 -131l600 1000h138v-138l-600 -1000h-138v138z" />
    <glyph glyph-name="uni2572" unicode="&#x2572;" 
d="M69 869l600 -1000v-138h-138l-600 1000v138h138z" />
    <glyph glyph-name="uni2573" unicode="&#x2573;" 
d="M69 869l231 -386l231 386h138v-138l-259 -431l259 -431v-138h-138l-231 386l-231 -386h-138v138l259 431l-259 431v138h138z" />
    <glyph glyph-name="uni2574" unicode="&#x2574;" 
d="M-69 231v138h438v-138h-438z" />
    <glyph glyph-name="uni2575" unicode="&#x2575;" 
d="M231 231v769h138v-769h-138z" />
    <glyph glyph-name="uni2576" unicode="&#x2576;" 
d="M231 231v138h438v-138h-438z" />
    <glyph glyph-name="uni2577" unicode="&#x2577;" 
d="M231 -400v769h138v-769h-138z" />
    <glyph glyph-name="uni2578" unicode="&#x2578;" 
d="M-69 163v274h438v-274h-438z" />
    <glyph glyph-name="uni2579" unicode="&#x2579;" 
d="M163 231v769h274v-769h-274z" />
    <glyph glyph-name="uni257A" unicode="&#x257a;" 
d="M231 163v274h438v-274h-438z" />
    <glyph glyph-name="uni257B" unicode="&#x257b;" 
d="M163 -400v769h274v-769h-274z" />
    <glyph glyph-name="uni257C" unicode="&#x257c;" 
d="M-69 231v138h300v68h438v-274h-438v68h-300z" />
    <glyph glyph-name="uni257D" unicode="&#x257d;" 
d="M163 -400v769h68v631h138v-631h68v-769h-274z" />
    <glyph glyph-name="uni257E" unicode="&#x257e;" 
d="M-69 163v274h438v-68h300v-138h-300v-68h-438z" />
    <glyph glyph-name="uni257F" unicode="&#x257f;" 
d="M163 231v769h274v-769h-68v-631h-138v631h-68z" />
    <glyph glyph-name="uni2580" unicode="&#x2580;" 
d="M0 300v500h600v-500h-600z" />
    <glyph glyph-name="uni2581" unicode="&#x2581;" 
d="M0 -200v125h600v-125h-600z" />
    <glyph glyph-name="uni2582" unicode="&#x2582;" 
d="M0 -200v250h600v-250h-600z" />
    <glyph glyph-name="uni2583" unicode="&#x2583;" 
d="M0 -200v375h600v-375h-600z" />
    <glyph glyph-name="uni2584" unicode="&#x2584;" 
d="M0 -200v500h600v-500h-600z" />
    <glyph glyph-name="uni2585" unicode="&#x2585;" 
d="M0 -200v625h600v-625h-600z" />
    <glyph glyph-name="uni2586" unicode="&#x2586;" 
d="M0 -200v750h600v-750h-600z" />
    <glyph glyph-name="uni2587" unicode="&#x2587;" 
d="M0 -200v875h600v-875h-600z" />
    <glyph glyph-name="uni2588" unicode="&#x2588;" 
d="M0 -200v1000h600v-1000h-600z" />
    <glyph glyph-name="uni2589" unicode="&#x2589;" 
d="M0 -200v1000h525v-1000h-525z" />
    <glyph glyph-name="uni258A" unicode="&#x258a;" 
d="M0 -200v1000h450v-1000h-450z" />
    <glyph glyph-name="uni258B" unicode="&#x258b;" 
d="M0 -200v1000h375v-1000h-375z" />
    <glyph glyph-name="uni258C" unicode="&#x258c;" 
d="M0 -200v1000h300v-1000h-300z" />
    <glyph glyph-name="uni258D" unicode="&#x258d;" 
d="M0 -200v1000h225v-1000h-225z" />
    <glyph glyph-name="uni258E" unicode="&#x258e;" 
d="M0 -200v1000h150v-1000h-150z" />
    <glyph glyph-name="uni258F" unicode="&#x258f;" 
d="M0 -200v1000h75v-1000h-75z" />
    <glyph glyph-name="uni2590" unicode="&#x2590;" 
d="M300 -200v1000h300v-1000h-300z" />
    <glyph glyph-name="uni2591" unicode="&#x2591;" 
d="M0 -200v50l30 -50h-30zM300 -200l-300 500v50l330 -550h-30zM600 -200l-600 1000h30l570 -950v-50zM600 300l-300 500h30l270 -450v-50z" />
    <glyph glyph-name="uni2592" unicode="&#x2592;" 
d="M0 -200v50l30 -50h-30zM150 -200l-150 250v50l180 -300h-30zM300 -200l-300 500v50l330 -550h-30zM450 -200l-450 750v50l480 -800h-30zM600 -200l-600 1000h30l570 -950v-50zM600 50l-450 750h30l420 -700v-50zM600 300l-300 500h30l270 -450v-50zM600 550l-150 250h30
l120 -200v-50z" />
    <glyph glyph-name="uni2593" unicode="&#x2593;" 
d="M0 -200v50l30 -50h-30zM75 -200l-75 125v50l105 -175h-30zM150 -200l-150 250v50l180 -300h-30zM225 -200l-225 375v50l255 -425h-30zM300 -200l-300 500v50l330 -550h-30zM375 -200l-375 625v50l405 -675h-30zM450 -200l-450 750v50l480 -800h-30zM525 -200l-525 875v50
l555 -925h-30zM600 -200l-600 1000h30l570 -950v-50zM600 -75l-525 875h30l495 -825v-50zM600 50l-450 750h30l420 -700v-50zM600 175l-375 625h30l345 -575v-50zM600 300l-300 500h30l270 -450v-50zM600 425l-225 375h30l195 -325v-50zM600 550l-150 250h30l120 -200v-50z
M600 675l-75 125h30l45 -75v-50z" />
    <glyph glyph-name="uni2594" unicode="&#x2594;" 
d="M0 675v125h600v-125h-600z" />
    <glyph glyph-name="uni2595" unicode="&#x2595;" 
d="M525 -200v1000h75v-1000h-75z" />
    <glyph glyph-name="uni2596" unicode="&#x2596;" 
d="M0 -200v500h300v-500h-300z" />
    <glyph glyph-name="uni2597" unicode="&#x2597;" 
d="M300 -200v500h300v-500h-300z" />
    <glyph glyph-name="uni2598" unicode="&#x2598;" 
d="M0 300v500h300v-500h-300z" />
    <glyph glyph-name="uni2599" unicode="&#x2599;" 
d="M0 -200v1000h300v-500h300v-500h-600z" />
    <glyph glyph-name="uni259A" unicode="&#x259a;" 
d="M0 800h300v-500h-300v500zM300 300h300v-500h-300v500z" />
    <glyph glyph-name="uni259B" unicode="&#x259b;" 
d="M0 -200v1000h600v-500h-300v-500h-300z" />
    <glyph glyph-name="uni259C" unicode="&#x259c;" 
d="M0 300v500h600v-1000h-300v500h-300z" />
    <glyph glyph-name="uni259D" unicode="&#x259d;" 
d="M300 300v500h300v-500h-300z" />
    <glyph glyph-name="uni259E" unicode="&#x259e;" 
d="M0 -200v500h300v-500h-300zM300 300v500h300v-500h-300z" />
    <glyph glyph-name="uni259F" unicode="&#x259f;" 
d="M0 -200v500h300v500h300v-1000h-600z" />
    <glyph glyph-name="uni25A0" unicode="&#x25a0;" 
d="M182 142v241h236v-241h-236z" />
    <glyph glyph-name="triagup" unicode="&#x25b2;" 
d="M23 21v2l275 522h4l275 -522v-2h-554z" />
    <glyph glyph-name="uni25B3" unicode="&#x25b3;" 
d="M189 116h223l-112 223zM23 21v2l275 522h4l275 -522v-2h-554z" />
    <glyph glyph-name="uni25B6" unicode="&#x25b6;" 
d="M57 5v553h2l523 -274v-4l-523 -275h-2z" />
    <glyph glyph-name="uni25B7" unicode="&#x25b7;" 
d="M153 170l222 112l-222 111v-223zM57 5v553h2l523 -274v-4l-523 -275h-2z" />
    <glyph glyph-name="triagdn" unicode="&#x25bc;" 
d="M298 19l-275 522v2h554v-2l-275 -522h-4z" />
    <glyph glyph-name="uni25BD" unicode="&#x25bd;" 
d="M412 447h-223l111 -222zM23 541v2h554v-2l-275 -523h-4z" />
    <glyph glyph-name="uni25C0" unicode="&#x25c0;" 
d="M18 280v4l523 274h2v-553h-2z" />
    <glyph glyph-name="uni25C1" unicode="&#x25c1;" 
d="M225 282l222 -112v223zM543 558v-553h-2l-523 275v4l523 274h2z" />
    <glyph glyph-name="uni25C6" unicode="&#x25c6;" 
d="M300 98l-165 164l165 165l165 -165z" />
    <glyph glyph-name="uni25C9" unicode="&#x25c9;" 
d="M300 193c-38 0 -66 30 -66 69c0 40 28 70 66 70s66 -30 66 -70c0 -39 -28 -69 -66 -69zM300 58c-114 0 -202 84 -202 204s88 205 202 205s202 -85 202 -205s-88 -204 -202 -204zM300 132c69 0 124 53 124 130c0 78 -55 130 -124 130s-124 -52 -124 -130
c0 -77 55 -130 124 -130z" />
    <glyph glyph-name="lozenge" unicode="&#x25ca;" 
d="M240 -10l-162 340l162 340h120l162 -340l-162 -340h-120zM298 113h4l54 121l45 96l-45 96l-54 121h-4l-54 -121l-45 -96l45 -96z" />
    <glyph glyph-name="uni2610" unicode="&#x2610;" 
d="M29 48h512v538h-512v-538zM-29 -10v620l74 65h584v-610l-65 -75h-593z" />
    <glyph glyph-name="uni2611" unicode="&#x2611;" 
d="M541 48v485c-70 -109 -133 -245 -178 -409l-138 -16c-37 102 -79 181 -140 272l93 61c46 -73 77 -148 104 -223h4c38 132 95 258 160 368h-417v-538h512zM615 813l90 -79c-25 -24 -51 -51 -76 -81v-588l-65 -75h-593v620l74 65h458c36 52 74 98 112 138z" />
    <glyph glyph-name="uni266A" unicode="&#x266a;" 
d="M53 58c0 72 75 132 170 132c26 0 50 -6 58 -12v516h79c12 -23 22 -32 72 -66c94 -64 125 -122 125 -202c0 -56 -25 -113 -49 -148l-49 20c10 31 14 56 14 92c0 59 -40 119 -110 142v-361c0 -130 -78 -199 -198 -199c-55 0 -112 26 -112 86z" />
    <glyph glyph-name="uni2713" unicode="&#x2713;" 
d="M279 -4l-138 -16c-42 113 -87 200 -157 299l93 61c53 -82 93 -167 125 -250h4c72 239 193 460 328 598l90 -78c-134 -127 -264 -326 -345 -614z" />
    <glyph glyph-name="uni2752" unicode="&#x2752;" 
d="M196 151h177v181h-177v-181zM147 102v254l66 57h240v-244l-56 -67h-250z" />
    <glyph glyph-name="fi" unicode="&#xfb01;" 
d="M73 495v27c0 105 49 191 183 191c41 0 77 -10 99 -18l-27 -108c-16 6 -35 10 -51 10c-36 0 -57 -20 -57 -71v-30h90v-115h-90v-381h-147v381h-66v109zM407 0v496h147v-496h-147zM479 753c59 0 102 -38 102 -92s-43 -92 -102 -92c-58 0 -101 38 -101 92s43 92 101 92z" />
    <glyph glyph-name="fl" unicode="&#xfb02;" 
d="M77 495v27c0 105 49 191 183 191c41 0 77 -10 99 -18l-27 -108c-16 6 -35 10 -51 10c-36 0 -57 -20 -57 -71v-30h90v-115h-90v-381h-147v381h-66v109zM585 109l17 -109c-16 -7 -40 -12 -74 -12c-101 0 -135 66 -135 166v547h147v-553c0 -31 15 -41 27 -41c5 0 9 0 18 2z
" />
    <glyph glyph-name="uni00470303" 
d="M44 322c0 218 132 342 301 342c88 0 149 -41 191 -83l-81 -91c-28 28 -58 47 -110 47c-85 0 -149 -79 -149 -210c0 -134 52 -212 155 -212c25 0 50 7 64 20v112h-95v120h227v-300c-44 -41 -121 -79 -204 -79c-167 0 -299 115 -299 334zM393 703c-53 0 -89 45 -119 45
c-17 0 -32 -12 -39 -45h-75c10 91 55 136 107 136c54 0 90 -45 120 -45c17 0 31 12 39 45h74c-10 -91 -54 -136 -107 -136z" />
    </font>
</defs>
</svg>
