<?xml version="1.0" standalone="no"?>
<!DOCTYPE svg PUBLIC "-//W3C//DTD SVG 1.1//EN" "http://www.w3.org/Graphics/SVG/1.1/DTD/svg11.dtd" >
<svg version="1.1" xmlns="http://www.w3.org/2000/svg">
<metadata>
Created by FontForge 20120731 at Fri Aug  1 16:50:15 2014
 By Alfred Xing
Copyright \(c\) 2011, Juan Pablo del Peral \(juan@huertatipografica.com.ar\), with Reserved Font Names "Alegreya" "Alegreya SC"
</metadata>
<defs>
<font id="Alegreya-Bold" horiz-adv-x="398" >
  <font-face 
    font-family="Alegreya"
    font-weight="700"
    font-stretch="normal"
    units-per-em="1000"
    panose-1="2 0 5 3 5 0 0 2 0 4"
    ascent="800"
    descent="-200"
    x-height="466"
    cap-height="649"
    bbox="-205 -318 1042 977"
    underline-thickness="56"
    underline-position="-59"
    stemh="91"
    stemv="122"
    unicode-range="U+0020-FB02"
  />
<missing-glyph horiz-adv-x="174" 
 />
    <glyph glyph-name="fi" unicode="fi" horiz-adv-x="623" 
d="M216 496l-1 -44c202 0 239 2 338 22l8 -17c-13 -29 -23 -174 -23 -351c0 -32 8 -44 30 -44c11 0 29 2 29 2l3 -4l-10 -63s-70 3 -111 3c-49 0 -121 -11 -121 -11l7 64c43 8 55 25 55 81v195c0 47 -9 56 -59 56h-147c0 -90 -2 -182 -2 -272c0 -31 13 -46 40 -46
c32 0 62 1 62 1l3 -4l-9 -67s-101 3 -145 3c-55 0 -132 -6 -132 -6l7 62c43 5 55 21 55 74v215c-2 31 -14 39 -65 41l-4 6l8 52l61 10c0 176 99 288 271 288c45 0 85 -8 132 -29l5 -15s-19 -45 -38 -99l-12 -4s-52 56 -123 56c-81 0 -112 -43 -112 -155z" />
    <glyph glyph-name="fl" unicode="fl" horiz-adv-x="607" 
d="M214 383l-2 -270c0 -32 13 -46 41 -46c30 0 61 2 61 2l3 -5l-9 -67s-101 3 -145 3c-56 0 -132 -6 -132 -6l7 62c39 5 55 22 55 57v233c-2 30 -13 38 -65 40l-4 6l8 52l61 10v8c1 171 98 280 250 280c35 0 74 -7 104 -18c60 9 109 18 109 18l7 -19
c-18 -22 -31 -286 -31 -617c0 -33 8 -45 29 -45c9 0 34 2 34 2l2 -6l-10 -60s-75 3 -115 3c-50 0 -115 -9 -115 -9l8 63c36 8 49 23 49 59v484l-1 18c-29 22 -70 36 -103 36c-67 0 -94 -43 -94 -155l-1 -46c72 0 128 3 128 3l4 -5l-11 -68s-51 2 -122 3z" />
    <glyph glyph-name="fj" unicode="fj" horiz-adv-x="612" 
d="M559 457c-17 -34 -21 -265 -21 -471c0 -93 -60 -179 -162 -230l-31 30l2 12c55 55 73 107 73 238v293c0 53 -12 56 -67 56h-139c0 -90 -2 -182 -2 -272c0 -30 12 -46 40 -46c32 0 62 1 62 1l3 -4l-9 -67s-101 3 -145 3c-56 0 -132 -6 -132 -6l7 62c37 5 55 21 55 57v232
c-2 33 -17 39 -65 41l-4 6l8 52l61 10c0 172 97 277 245 286c20 1 38 1 56 -1c62 -3 102 -26 102 -26l5 -15s-19 -45 -38 -99l-12 -4s-52 56 -123 56c-99 0 -113 -64 -113 -199c188 0 235 2 335 22z" />
    <glyph glyph-name=".notdef" horiz-adv-x="174" 
 />
    <glyph glyph-name="space" unicode=" " horiz-adv-x="174" 
 />
    <glyph glyph-name="exclam" unicode="!" horiz-adv-x="285" 
d="M124 -11c-49 0 -74 31 -74 76c0 48 31 82 81 82c48 0 74 -30 74 -75c0 -49 -31 -83 -81 -83zM93 236l-21 430l12 17l134 22l16 -18l-62 -453l-64 -11z" />
    <glyph glyph-name="quotedbl" unicode="&#x22;" horiz-adv-x="321" 
d="M143 654l8 -10s-15 -110 -38 -216l-48 -20l-15 4c3 115 -7 228 -7 228zM288 654l8 -10s-15 -110 -38 -216l-48 -20l-15 4c3 115 -7 228 -7 228z" />
    <glyph glyph-name="numbersign" unicode="#" horiz-adv-x="526" 
d="M49 351l-6 11l15 70l99 -1l27 139l73 7l11 -6l-31 -140h47l47 -1l27 140l73 7l11 -6l-31 -140l97 2l5 -12l-14 -70h-104l-5 -28l-13 -65l97 1l5 -12l-14 -69h-102l-26 -134l-71 -11l-10 8l28 137l-56 1l-38 -1l-26 -134l-71 -11l-10 8l28 137l-96 -1l-6 12l15 69l101 -1
l10 52l9 42h-95zM216 323l-13 -66h44l52 -1l10 53l8 43h-58h-37z" />
    <glyph glyph-name="dollar" unicode="$" horiz-adv-x="466" 
d="M169 39h74l-21 -190l-68 -8l-6 7zM291 474h-75l19 175l69 9l6 -9zM191 -9c-89 0 -149 30 -149 30l-8 12s13 71 15 131l77 6c0 -76 23 -99 86 -99c48 0 78 20 78 51c0 40 -59 60 -120 87c-65 30 -130 66 -130 142c0 94 94 159 229 159c84 0 145 -21 145 -21l7 -12
s-15 -64 -21 -134l-70 -6l-8 6s1 11 1 22c0 43 -23 61 -75 61c-43 0 -73 -20 -73 -49c0 -37 52 -58 108 -82c68 -29 145 -65 145 -146c0 -96 -92 -158 -237 -158z" />
    <glyph glyph-name="percent" unicode="%" horiz-adv-x="713" 
d="M172 408c44 0 82 14 82 66c0 46 -32 77 -93 77c-53 0 -80 -24 -80 -65c0 -55 41 -78 91 -78zM160 309c-90 0 -142 64 -142 165c0 108 62 180 158 180c95 0 141 -69 141 -162c0 -106 -57 -183 -157 -183zM562 88c43 0 81 14 81 65c0 46 -32 78 -93 78
c-52 0 -80 -25 -80 -66c0 -55 41 -77 92 -77zM550 -12c-91 0 -142 65 -142 166c0 107 62 179 158 179c94 0 141 -69 141 -162c0 -106 -58 -183 -157 -183zM607 653l7 -19s-176 -267 -266 -407c-90 -144 -202 -320 -202 -320l-65 27l-5 14s121 180 207 316l262 414z" />
    <glyph glyph-name="ampersand" unicode="&#x26;" horiz-adv-x="720" 
d="M336 318l147 -126c8 23 13 48 13 75c0 64 -23 93 -73 93c-27 0 -53 -7 -53 -7l-20 67s26 15 69 17l205 12c59 5 81 9 82 11l14 -23l-18 -50c-9 -22 -24 -28 -69 -28h-83l-3 -7c19 -21 30 -51 30 -82c0 -43 -18 -86 -42 -122l137 -116v-16s-64 -50 -94 -50
c-8 0 -50 33 -122 98c-59 -48 -129 -76 -190 -76c-140 0 -225 66 -225 175c0 116 124 162 124 162v9c-57 59 -79 102 -79 150c0 101 91 170 223 170c84 0 140 -23 140 -23l2 -17l-48 -91l-18 -1c-38 34 -67 46 -105 46c-47 0 -76 -25 -76 -66c0 -55 31 -98 132 -184z
M409 106l-197 181c-34 -22 -56 -60 -56 -99c0 -68 57 -114 141 -114c42 0 80 11 112 32z" />
    <glyph glyph-name="quotesingle" unicode="'" horiz-adv-x="176" 
d="M143 654l8 -10s-15 -110 -38 -216l-48 -20l-15 4c3 115 -7 228 -7 228z" />
    <glyph glyph-name="parenleft" unicode="(" horiz-adv-x="309" 
d="M70 163v173c0 245 178 313 178 313h11l31 -46l-1 -6s-109 -54 -109 -246v-173c0 -209 114 -274 114 -274v-8l-41 -42h-8s-175 67 -175 309z" />
    <glyph glyph-name="parenright" unicode=")" horiz-adv-x="309" 
d="M239 340v-173c0 -245 -178 -313 -178 -313h-11l-31 46l1 6s109 54 109 246v173c0 209 -114 274 -114 274v8l41 42h8s175 -67 175 -309z" />
    <glyph glyph-name="asterisk" unicode="*" horiz-adv-x="412" 
d="M62 673c0 0 50 -26 103 -66l-8 -41l-7 -6c-53 17 -109 30 -109 30s0 45 12 80zM62 469c0 0 40 39 95 77l36 -20l3 -8c-32 -45 -61 -95 -61 -95s-43 14 -73 36v10zM256 406c0 0 -25 50 -44 114l30 29h10c32 -44 70 -88 70 -88s-26 -37 -56 -58zM376 571
c0 0 -56 -8 -122 -7l-18 37l3 10c52 17 105 40 105 40s27 -37 38 -72zM257 736c0 0 -11 -55 -32 -118l-42 -5l-7 4c-1 56 -6 113 -6 113s44 14 80 14z" />
    <glyph glyph-name="plus" unicode="+" horiz-adv-x="506" 
d="M292 497l13 -7s-5 -106 -6 -184c78 1 183 6 183 6l7 -12l-10 -92l-180 -1c0 -80 1 -168 1 -168l-88 -15l-11 8s0 93 1 175c-83 0 -178 -1 -178 -1l-7 11l14 90s90 -1 171 -1l1 180z" />
    <glyph glyph-name="comma" unicode="," horiz-adv-x="238" 
d="M45 94l3 14c24 18 54 34 79 34c39 0 67 -33 67 -89c0 -73 -72 -147 -153 -193l-37 30v17c42 29 72 74 72 114c0 27 -14 55 -31 73z" />
    <glyph glyph-name="hyphen" unicode="-" horiz-adv-x="324" 
d="M280 313l9 -13l-8 -80l-237 -26l-9 12l7 78l164 19c55 6 74 10 74 10z" />
    <glyph glyph-name="period" unicode="." horiz-adv-x="238" 
d="M116 -11c-50 0 -75 31 -75 76c0 48 31 82 81 82c48 0 75 -30 75 -75c0 -49 -31 -83 -81 -83z" />
    <glyph glyph-name="slash" unicode="/" horiz-adv-x="329" 
d="M306 675l13 -15s-79 -283 -122 -445c-42 -165 -83 -325 -83 -325h-85l-9 11s51 173 90 325l115 449h81z" />
    <glyph glyph-name="zero" unicode="0" horiz-adv-x="501" 
d="M239 -12c-132 0 -213 95 -213 249c0 164 96 273 238 273c130 0 211 -94 211 -247c0 -165 -94 -275 -236 -275zM255 119c88 0 139 46 139 121c0 82 -57 134 -150 134c-86 0 -137 -46 -137 -123c0 -80 57 -132 148 -132z" />
    <glyph glyph-name="one" unicode="1" horiz-adv-x="365" 
d="M256 402c-7 -79 -10 -179 -10 -270c0 -49 11 -67 44 -67c24 0 49 3 49 3l2 -5l-11 -67s-93 4 -143 4c-63 0 -156 -12 -156 -11l8 63c68 6 89 26 89 92v215c0 48 -15 57 -51 57c-19 0 -50 -5 -50 -5l-6 7l6 57c22 2 74 8 121 15c97 13 134 20 136 20l10 -30
c-23 -19 -33 -37 -38 -78z" />
    <glyph glyph-name="two" unicode="2" horiz-adv-x="484" 
d="M23 -9l-8 33l75 83c108 124 148 189 148 236c0 39 -22 61 -62 61c-39 0 -82 -29 -112 -77h-14l-17 74c51 67 123 109 195 109c93 0 156 -52 156 -129c0 -63 -41 -122 -187 -280l4 -8h96c63 0 83 20 96 91l76 7s-21 -107 -28 -188l-14 -12s-246 9 -340 9z" />
    <glyph glyph-name="three" unicode="3" horiz-adv-x="431" 
d="M11 2l14 14c26 -9 54 -13 85 -13c84 0 146 40 146 95s-46 80 -148 80l-9 10l-7 62l65 14c45 20 75 58 75 96c0 32 -26 54 -61 54c-34 0 -75 -19 -110 -49c-4 0 -8 -1 -12 -1l-21 71c28 22 118 75 186 75c89 0 148 -46 148 -117c0 -55 -43 -108 -110 -136v-8
c91 -24 139 -70 139 -132c0 -105 -154 -217 -299 -217c-56 0 -76 28 -81 102z" />
    <glyph glyph-name="four" unicode="4" horiz-adv-x="468" 
d="M2 73c1 22 2 45 3 67l265 368c2 0 5 2 6 2l84 -11v-342h82l8 -11l-9 -83s-32 1 -80 3c1 -73 6 -145 6 -145l-8 -9l-115 -12l-8 10s4 87 6 159c-79 2 -168 4 -240 4zM232 335l-125 -178h135v178h-10z" />
    <glyph glyph-name="five" unicode="5" horiz-adv-x="427" 
d="M383 130c0 -119 -160 -230 -302 -230c-52 0 -75 24 -80 102l13 14c27 -9 57 -13 86 -13c86 0 151 39 151 96c0 52 -48 79 -189 99l-9 11c13 131 20 270 20 270l8 8l193 7c38 2 52 10 63 40l55 4l-26 -147l-13 -13s-91 8 -199 8l-8 -89c151 -30 237 -74 237 -167z" />
    <glyph glyph-name="six" unicode="6" horiz-adv-x="464" 
d="M405 538c0 0 -164 -58 -225 -208l5 -6c9 3 61 33 85 37c108 0 169 -79 169 -170c0 -118 -85 -203 -217 -203c-119 0 -194 89 -194 216c0 302 347 394 347 394l10 -5zM232 273c-35 0 -66 -18 -80 -28c-1 -14 -2 -28 -2 -42c0 -84 33 -134 90 -134c51 0 80 34 80 97
c0 61 -34 107 -88 107z" />
    <glyph glyph-name="seven" unicode="7" horiz-adv-x="427" 
d="M201 -100h-17l-91 27l-11 25l224 442l-134 -8c-64 -5 -75 -20 -87 -88l-60 -6s14 114 19 205l6 5s60 -4 122 -4h217l39 -48c-98 -203 -147 -318 -196 -437z" />
    <glyph glyph-name="eight" unicode="8" horiz-adv-x="479" 
d="M38 130c0 84 67 128 112 148c-53 33 -99 77 -99 151c0 91 85 169 201 169c91 0 173 -54 173 -140c0 -71 -50 -114 -90 -135c55 -32 104 -74 104 -149c0 -105 -92 -186 -215 -186c-103 0 -186 55 -186 142zM241 62c47 0 83 32 83 78c0 51 -58 76 -120 107
c-23 -14 -57 -40 -57 -91s39 -94 94 -94zM168 453c0 -48 50 -72 107 -100c18 15 39 40 39 82c0 54 -32 84 -76 84c-43 0 -70 -30 -70 -66z" />
    <glyph glyph-name="nine" unicode="9" horiz-adv-x="464" 
d="M59 -40c0 0 163 57 224 207l-4 7c-9 -3 -61 -34 -86 -37c-108 0 -169 78 -169 170c0 118 86 203 217 203c119 0 195 -89 195 -216c0 -302 -347 -395 -347 -395l-10 6zM231 225c35 0 66 18 80 27c2 14 3 28 3 43c0 83 -34 134 -90 134c-51 0 -80 -34 -80 -97
s33 -107 87 -107z" />
    <glyph glyph-name="colon" unicode=":" horiz-adv-x="238" 
d="M114 -11c-50 0 -75 31 -75 76c0 48 31 82 81 82c48 0 75 -30 75 -75c0 -49 -31 -83 -81 -83zM114 262c-50 0 -75 31 -75 76c0 48 31 82 81 82c48 0 75 -30 75 -75c0 -49 -31 -83 -81 -83z" />
    <glyph glyph-name="semicolon" unicode=";" horiz-adv-x="238" 
d="M45 94l3 14c24 18 54 34 79 34c39 0 67 -33 67 -89c0 -73 -72 -147 -153 -193l-37 30v17c42 29 72 74 72 114c0 27 -14 55 -31 73zM114 262c-50 0 -75 31 -75 76c0 48 31 82 81 82c48 0 75 -30 75 -75c0 -49 -31 -83 -81 -83z" />
    <glyph glyph-name="less" unicode="&#x3c;" horiz-adv-x="470" 
d="M36 213l-8 13l1 97l191 82c84 36 177 76 177 76l13 -8l20 -76s-102 -38 -180 -71l-123 -50v-7l136 -60c77 -34 164 -72 164 -72l4 -15l-42 -65s-87 39 -164 74c-70 31 -189 82 -189 82z" />
    <glyph glyph-name="equal" unicode="=" horiz-adv-x="506" 
d="M482 224l7 -12l-10 -92l-227 -1c-90 0 -228 -1 -228 -1l-7 11l14 90s145 -1 234 -1c80 0 217 6 217 6zM482 402l7 -12l-10 -92l-227 -1c-90 0 -228 -1 -228 -1l-7 11l14 90s145 -1 234 -1c80 0 217 6 217 6z" />
    <glyph glyph-name="greater" unicode="&#x3e;" horiz-adv-x="470" 
d="M434 325l8 -13l-1 -98l-191 -82c-84 -36 -177 -75 -177 -75l-13 7l-20 77s102 37 180 70l123 50v7l-136 60c-77 34 -164 72 -164 72l-4 16l42 65s87 -40 164 -75z" />
    <glyph glyph-name="question" unicode="?" horiz-adv-x="370" 
d="M101 221l-24 126l3 14l108 63c31 19 52 42 52 72c0 64 -70 98 -183 104l-8 14l37 84l15 7c146 -4 259 -78 259 -174c0 -91 -62 -127 -165 -197l-3 -7l15 -83l-6 -11l-88 -18zM152 -11c-49 0 -75 31 -75 76c0 48 32 82 82 82c47 0 74 -30 74 -75c0 -49 -31 -83 -81 -83z
" />
    <glyph glyph-name="at" unicode="@" horiz-adv-x="863" 
d="M493 -12c-28 0 -44 16 -44 41c0 16 23 121 34 164l-8 1c-61 -111 -110 -170 -161 -206c-74 0 -115 57 -115 146c0 164 127 332 241 332l87 -18l7 22l12 7l80 -14l8 -17s-53 -204 -77 -362l6 -6c120 0 189 90 189 216c0 169 -116 268 -299 268c-202 0 -340 -160 -340 -357
c0 -210 124 -356 380 -363c0 -5 -1 -11 -1 -16l-31 -50c-279 6 -437 172 -437 403c0 242 197 463 457 463c217 0 358 -130 358 -316c0 -190 -126 -338 -346 -338zM346 105c28 0 99 114 152 253c-7 4 -49 29 -88 29c-42 0 -86 -98 -86 -198c0 -46 9 -84 22 -84z" />
    <glyph glyph-name="A" unicode="A" horiz-adv-x="625" 
d="M552 132c14 -47 33 -65 78 -69l4 -7l-7 -59s-79 3 -123 3c-86 0 -169 -8 -169 -8l-6 8l5 60c65 6 77 12 77 37c0 8 -2 19 -5 33l-20 76c-26 1 -68 1 -91 1c-32 0 -71 -4 -95 -7l-25 -75c-4 -14 -6 -24 -6 -31c0 -23 12 -30 46 -30h43l4 -7l-7 -63s-82 6 -146 6
c-54 0 -121 -3 -121 -3l8 67c31 5 49 22 65 66l178 507l159 16l11 -5s90 -347 143 -516zM296 510l-72 -224h70c22 0 53 2 74 4l-58 220h-14z" />
    <glyph glyph-name="B" unicode="B" horiz-adv-x="629" 
d="M183 0c-57 0 -147 -10 -147 -10l8 68c57 10 73 27 73 79l1 390c0 37 -8 50 -33 50c-12 0 -34 -2 -34 -2l-6 8l9 61s104 -2 139 -2s153 5 153 5c138 0 212 -54 212 -155c0 -70 -44 -120 -107 -153c80 -21 141 -68 141 -149c0 -121 -103 -200 -261 -200
c-37 1 -109 10 -148 10zM343 281l-92 -1l-4 -145c0 -42 26 -59 94 -59c65 0 103 37 103 100c0 53 -35 90 -101 105zM253 369c0 0 76 -9 95 -9c0 0 69 24 69 106c0 67 -44 98 -138 98c-13 0 -17 -4 -18 -18c-4 -55 -7 -134 -8 -177z" />
    <glyph glyph-name="C" unicode="C" horiz-adv-x="617" 
d="M325 -12c-184 0 -297 120 -297 316c0 213 136 350 350 350c84 0 191 -25 191 -25l6 -13s-20 -83 -26 -189l-99 -7s2 27 2 53c0 58 -34 84 -109 84c-103 0 -159 -73 -159 -219c0 -163 62 -256 166 -256c72 0 110 41 126 138l99 7s-17 -104 -20 -187l-10 -12
s-96 -40 -220 -40z" />
    <glyph glyph-name="D" unicode="D" horiz-adv-x="693" 
d="M318 -12c0 0 -94 12 -151 12c-53 0 -129 -10 -129 -10l7 68c57 11 72 29 72 85l1 379c0 43 -7 54 -32 54c-13 0 -33 -2 -33 -2l-6 9l8 62s89 -3 128 -3c46 0 159 5 159 5c202 0 323 -112 323 -300c0 -211 -143 -359 -347 -359zM289 560c-22 0 -28 -5 -29 -24
c-8 -168 -13 -301 -13 -390c0 -57 17 -71 83 -71c116 0 178 81 178 241c0 170 -71 244 -219 244z" />
    <glyph glyph-name="E" unicode="E" horiz-adv-x="597" 
d="M247 139c0 -53 7 -60 64 -60c124 0 142 14 156 114l85 7l7 -10s-18 -90 -28 -186l-9 -11s-188 7 -312 7c-89 0 -174 -10 -174 -10l8 68c55 8 72 28 72 86l1 379c0 43 -6 54 -33 54c-11 0 -30 -2 -30 -2l-7 9l8 61s110 -3 185 -3c142 0 243 4 304 12l8 -11
s-18 -89 -23 -182l-92 -6s2 26 2 40c0 55 -14 63 -126 63c-47 0 -52 -3 -53 -33l-7 -155c21 0 64 -1 93 -1c33 0 116 8 116 8l8 -9l-14 -86s-80 3 -130 3c-30 0 -59 -4 -76 -6c-2 -73 -3 -113 -3 -140z" />
    <glyph glyph-name="F" unicode="F" horiz-adv-x="532" 
d="M247 142c0 -51 9 -64 43 -64c25 0 65 5 65 5l9 -10l-11 -77s-105 4 -156 4c-75 0 -161 -11 -161 -11l8 68c56 10 72 29 72 87l1 379c0 43 -6 54 -33 54c-11 0 -30 -2 -30 -2l-7 9l8 61s110 -3 185 -3c125 0 223 4 281 12l7 -11s-15 -91 -20 -183l-91 -6s2 28 2 41
c0 54 -14 63 -106 63c-47 0 -52 -3 -53 -33l-7 -172l93 -1c30 0 105 8 105 8l8 -9l-14 -86s-74 3 -119 3c-30 0 -59 -4 -76 -7z" />
    <glyph glyph-name="G" unicode="G" horiz-adv-x="654" 
d="M598 332l7 -39c-35 -23 -41 -51 -41 -165c0 -38 2 -68 7 -87l-9 -13s-92 -40 -236 -40c-184 0 -298 120 -298 316c0 217 134 350 356 350c88 0 198 -25 198 -25l7 -13s-20 -80 -26 -184l-99 -6s3 25 3 54c0 56 -30 77 -107 77c-119 0 -177 -70 -177 -219
c0 -165 61 -256 168 -256c59 0 96 26 96 26v93c0 39 -8 48 -44 48h-51l-6 8l11 72c24 0 84 -2 139 -2c50 0 102 4 102 5z" />
    <glyph glyph-name="H" unicode="H" horiz-adv-x="747" 
d="M641 528c-6 -115 -12 -290 -12 -395c0 -52 10 -67 42 -67c17 0 36 3 36 3l5 -8l-9 -64s-83 3 -146 3c-40 0 -139 -2 -139 -2l8 66c56 1 72 20 72 92v127s-72 1 -108 1c-27 0 -140 -10 -140 -10l-2 -141c0 -55 7 -68 38 -68c19 0 36 3 36 3l5 -7l-9 -64s-84 3 -122 3
c-60 0 -158 -6 -159 -9l7 65c58 12 72 28 72 84l1 385c0 42 -7 52 -36 52c-12 0 -31 -1 -31 -1l-5 8l8 59s79 -1 119 -1c51 0 151 7 151 7l-5 -67c-51 -8 -57 -18 -60 -71l-6 -143l128 -2c48 0 78 2 118 7v152c0 41 -7 52 -36 52c-11 0 -31 -1 -31 -1l-5 8l8 59
s85 -1 128 -1c45 0 147 7 147 7l-6 -66c-49 -7 -60 -17 -62 -55z" />
    <glyph glyph-name="I" unicode="I" horiz-adv-x="365" 
d="M260 528c-7 -121 -12 -289 -12 -395c0 -55 7 -68 38 -68c22 0 43 3 43 3l5 -7l-9 -64s-104 3 -149 3c-56 0 -140 -9 -140 -9l7 65c59 12 73 29 73 84l1 385c0 41 -7 52 -36 52c-14 0 -35 -1 -35 -1l-5 8l7 59c26 0 92 -1 140 -1c44 0 142 7 142 7l-6 -67
c-51 -7 -62 -17 -64 -54z" />
    <glyph glyph-name="J" unicode="J" horiz-adv-x="333" 
d="M107 123v402c0 42 -6 52 -35 52c-13 0 -41 -3 -41 -3l-6 8l8 60h124c69 1 151 8 151 8l-6 -68c-43 -8 -49 -15 -52 -54c-5 -91 -12 -318 -12 -427c-1 -132 -61 -210 -200 -255l-28 41l2 11c75 55 95 100 95 225z" />
    <glyph glyph-name="K" unicode="K" horiz-adv-x="659" 
d="M116 140l1 385c0 42 -7 52 -36 52c-12 0 -31 -1 -31 -1l-5 8l8 60s106 -2 135 -2c43 0 138 7 138 7l-6 -67c-49 -10 -62 -21 -63 -58l-9 -391c-2 -55 7 -68 38 -68c20 0 39 3 39 3l4 -7l-9 -64s-101 3 -144 3c-56 0 -139 -3 -139 -3l9 64c58 9 70 23 70 79zM267 316l3 22
l147 160c17 17 26 35 26 49c0 20 -15 29 -53 31l-3 7l8 62s84 -5 125 -5c38 0 117 4 117 4l7 -11l-8 -57c-42 -17 -74 -46 -131 -114l-103 -116l132 -202c39 -60 69 -84 114 -87l6 -9l-8 -53s-99 -12 -117 -12c-42 0 -75 26 -111 84z" />
    <glyph glyph-name="L" unicode="L" horiz-adv-x="531" 
d="M213 0c-89 0 -171 -10 -171 -10l7 68c51 8 67 28 67 86v381c0 42 -7 52 -36 52c-11 0 -30 -1 -30 -1l-5 8l7 59c26 0 90 -1 136 -1c45 0 155 7 155 7l-8 -71c-68 -8 -73 -21 -76 -73c-8 -108 -11 -245 -11 -366c0 -50 10 -60 62 -60c94 0 114 23 128 152l85 9l7 -10
s-17 -109 -27 -227l-9 -11s-163 8 -281 8z" />
    <glyph glyph-name="M" unicode="M" horiz-adv-x="841" 
d="M441 -7l-73 -9c-61 196 -119 367 -153 461h-8s-20 -323 -20 -347c0 -22 10 -33 32 -33c8 0 33 2 33 2l6 -6l-11 -65s-86 4 -119 4c-40 0 -101 -8 -101 -8l7 67c39 5 56 22 60 72c5 38 40 372 40 400c0 36 -14 44 -75 50l-5 6l9 60s90 -5 127 -5c41 0 109 4 109 4
c61 -223 124 -411 124 -411h8s64 189 131 408c29 0 83 -3 123 -1c38 1 101 6 101 6l4 -4l-6 -62c-57 -4 -73 -16 -73 -53c0 -44 14 -255 24 -372c7 -72 17 -91 48 -91c14 0 29 2 29 2l4 -6l-9 -65s-61 3 -102 3c-31 0 -140 -6 -146 -8l8 68c39 4 55 18 55 49
c0 39 -20 336 -20 336h-9c-33 -92 -94 -266 -152 -452z" />
    <glyph glyph-name="N" unicode="N" horiz-adv-x="729" 
d="M520 235h10l-2 299c-1 31 -10 43 -33 43c-14 0 -30 -1 -34 -1l-4 8l7 62s85 -4 129 -4c49 0 118 5 118 5l-5 -67c-44 -6 -62 -23 -63 -63l-13 -531l-106 -13c-155 248 -291 444 -291 444h-10l-1 -308c0 -33 9 -45 34 -45c11 0 43 3 43 3l6 -7l-10 -64s-86 4 -129 4
c-54 0 -123 -8 -123 -8l8 67c40 5 58 23 59 63l13 395c0 43 -16 55 -81 62l-8 10l7 58s67 -5 116 -5c43 0 96 4 96 4c130 -212 267 -411 267 -411z" />
    <glyph glyph-name="O" unicode="O" horiz-adv-x="674" 
d="M340 75c94 0 150 77 150 213c0 177 -59 269 -162 269c-91 0 -145 -76 -145 -213c0 -176 58 -269 157 -269zM315 -12c-178 0 -287 121 -287 316c0 211 130 350 328 350c182 0 290 -118 290 -313c0 -212 -132 -353 -331 -353z" />
    <glyph glyph-name="P" unicode="P" horiz-adv-x="577" 
d="M45 583l8 60c23 0 83 -1 126 -1c36 0 152 5 152 5c187 0 242 -95 242 -193c0 -120 -113 -227 -239 -227h-85l-1 -74c0 -74 6 -88 46 -88c18 0 44 3 44 3l4 -6l-10 -65s-88 3 -126 3c-50 0 -165 -7 -167 -8l8 68c54 9 69 27 69 83l1 380c0 42 -7 54 -32 54
c-14 0 -35 -2 -35 -2zM251 316l88 -12c61 13 91 58 91 136c0 84 -45 121 -147 121c-19 0 -21 -1 -22 -18c-5 -70 -8 -152 -10 -227z" />
    <glyph glyph-name="Q" unicode="Q" horiz-adv-x="679" 
d="M315 -12c-178 0 -287 121 -287 316c0 211 130 350 328 350c182 0 290 -118 290 -313c0 -154 -81 -277 -202 -326v-9c109 -76 195 -112 268 -112c46 0 85 10 85 10l8 -7l11 -42s-106 -83 -134 -83c-89 0 -145 32 -367 216zM340 75c94 0 150 77 150 213
c0 177 -59 269 -162 269c-91 0 -145 -76 -145 -213c0 -176 58 -269 157 -269z" />
    <glyph glyph-name="R" unicode="R" horiz-adv-x="643" 
d="M319 251h-70l-1 -110c0 -67 7 -75 71 -77l4 -6l-10 -62c0 1 -89 3 -134 3c-61 1 -143 -5 -143 -5l9 67c56 8 71 25 71 82l1 385c0 38 -7 49 -32 49c-14 0 -35 -2 -35 -2l-5 8l8 61s87 -2 126 -2c41 0 153 5 153 5c153 0 237 -61 237 -172c0 -79 -48 -146 -134 -191
l87 -140c37 -60 69 -87 111 -87l7 -9l-7 -53l-119 -11c-44 0 -80 31 -109 93zM252 341l90 -10c21 9 85 36 85 125c0 73 -48 108 -149 108c-14 0 -17 -4 -18 -22c-5 -80 -7 -140 -8 -201z" />
    <glyph glyph-name="S" unicode="S" horiz-adv-x="540" 
d="M220 -12c-105 0 -176 38 -176 38l-8 14s15 88 16 170l84 7c0 -110 26 -140 110 -140c63 0 104 30 104 77c0 55 -73 83 -148 120c-78 38 -158 85 -158 180c0 117 111 200 267 200c100 0 172 -27 172 -27l7 -13s-17 -81 -24 -172l-76 -6l-9 7s1 16 1 35c0 58 -27 81 -97 81
c-55 0 -95 -29 -95 -71c0 -51 62 -80 131 -112c84 -40 178 -86 178 -186c0 -122 -110 -202 -279 -202z" />
    <glyph glyph-name="T" unicode="T" horiz-adv-x="569" 
d="M216 165v398c-108 -3 -114 -16 -127 -130l-84 -6s9 117 11 215l11 11l101 -11h311l103 11l11 -11c2 -100 10 -209 10 -209l-84 -6c-15 122 -20 133 -121 136c-6 -89 -11 -280 -11 -428c0 -50 15 -68 55 -68c30 0 53 3 53 3l4 -5l-9 -69s-122 4 -174 4
c-56 0 -168 -6 -168 -6l8 66c88 8 100 20 100 105z" />
    <glyph glyph-name="U" unicode="U" horiz-adv-x="655" 
d="M219 236c0 -100 44 -157 124 -157c81 0 122 43 122 130c0 66 -4 314 -4 314c-1 44 -7 54 -32 54c-11 0 -33 -2 -33 -2l-2 4l8 66s79 -3 117 -3c51 0 119 6 119 6l-6 -67c-50 -11 -58 -18 -58 -50v-311c0 -150 -91 -232 -258 -232c-154 0 -232 72 -232 216v319
c0 44 -6 54 -32 54c-11 0 -32 -2 -32 -2l-2 4l9 66s86 -3 143 -3c41 0 119 6 119 6l-7 -68c-42 -5 -54 -18 -56 -53z" />
    <glyph glyph-name="V" unicode="V" horiz-adv-x="625" 
d="M72 515c-12 42 -34 60 -75 62l-4 7l7 60s83 -2 126 -2c74 0 170 8 170 8l6 -8l-5 -61c-67 -6 -77 -11 -77 -38c0 -36 91 -412 91 -412h15c27 70 126 385 126 416c0 23 -13 31 -51 31h-39l-5 7l7 62s84 -5 148 -5c52 0 116 2 116 2l-7 -66c-32 -5 -41 -14 -54 -52
l-184 -521l-165 -20s-89 343 -146 530z" />
    <glyph glyph-name="W" unicode="W" horiz-adv-x="964" 
d="M731 5l-159 -20c-8 46 -44 198 -86 357h-10l-104 -337l-161 -20s-85 343 -141 530c-12 42 -33 60 -72 62c-1 2 -3 5 -4 7l7 60s80 -2 122 -2c81 0 164 8 164 8l5 -8l-5 -61c-64 -6 -75 -11 -75 -37c0 -40 89 -413 89 -413h13c25 67 79 251 110 360c-2 16 -5 30 -8 42
c-7 33 -26 43 -73 44l-5 7l8 60s91 -2 137 -2c75 0 163 8 163 8l5 -8l-5 -61c-65 -6 -75 -10 -75 -38c0 -36 89 -412 89 -412h13c26 70 123 388 123 419c0 21 -13 28 -50 28h-38l-5 7l8 62s82 -5 143 -5c51 0 112 2 112 2l-7 -66c-30 -5 -39 -13 -52 -52z" />
    <glyph glyph-name="X" unicode="X" horiz-adv-x="682" 
d="M158 200l99 131l-107 160c-38 56 -73 74 -128 84l-4 5l8 64s84 -2 159 -2c62 0 153 7 153 7l5 -9l-5 -58c-42 -2 -60 -11 -60 -30c0 -21 37 -75 89 -152c36 53 98 134 98 157c0 16 -13 23 -49 25l-2 5l6 58c25 0 88 -3 132 -3c48 0 112 3 112 3l4 -7l-5 -61
c-62 -21 -87 -45 -132 -107l-108 -149l117 -169c39 -55 76 -81 132 -84l3 -4l-8 -66s-88 3 -130 3c-51 0 -180 -8 -180 -8l-5 7l6 61c37 2 54 10 54 28c0 10 -5 21 -15 36l-86 127l-66 -93c-25 -35 -35 -52 -35 -66c0 -19 15 -28 49 -30l4 -7l-6 -62s-95 7 -130 7
c-39 0 -116 -5 -116 -5l-4 10l6 60c45 16 96 70 145 134z" />
    <glyph glyph-name="Y" unicode="Y" horiz-adv-x="598" 
d="M227 552c0 -23 75 -182 85 -206h10l79 165c9 18 14 35 14 48c0 14 -15 21 -51 23l-2 5l7 58c25 0 89 -4 133 -4c46 0 102 4 102 4l4 -7l-7 -61c-56 -18 -79 -52 -121 -128l-96 -179c-18 -36 -17 -65 -18 -138c-1 -49 10 -65 47 -65c22 0 50 3 50 3l3 -5l-9 -69
s-115 4 -165 4c-57 0 -156 -11 -156 -11l7 69c78 10 90 27 90 94v30c0 34 -6 58 -29 102l-98 191c-30 60 -51 87 -113 100l-3 5l8 64s89 -3 129 -3c51 0 160 8 160 8l5 -9l-5 -58c-45 -2 -60 -10 -60 -30z" />
    <glyph glyph-name="Z" unicode="Z" horiz-adv-x="580" 
d="M531 16l-17 -19l-395 6l-75 -8l-25 45l351 529l-127 -8c-85 -10 -108 -34 -115 -127l-85 -6s14 124 17 216l10 10l178 -11l293 -3l18 -41c-170 -226 -312 -450 -361 -526l156 11c67 6 101 51 117 154l85 7s-21 -131 -25 -229z" />
    <glyph glyph-name="bracketleft" unicode="[" horiz-adv-x="317" 
d="M296 -132l-215 11s11 276 11 376s-11 379 -11 379l218 11l4 -8l-7 -57l-104 -20v-607l107 -21l4 -9z" />
    <glyph glyph-name="backslash" unicode="\" horiz-adv-x="329" 
d="M12 660l12 15h81l115 -449c39 -152 91 -325 91 -325l-9 -11h-85s-42 160 -84 325c-43 162 -121 445 -121 445z" />
    <glyph glyph-name="bracketright" unicode="]" horiz-adv-x="317" 
d="M21 645l215 -11s-11 -276 -11 -376s11 -379 11 -379l-218 -11l-4 8l7 56l104 21v607l-107 20l-4 9z" />
    <glyph glyph-name="asciicircum" unicode="^" horiz-adv-x="489" 
d="M286 482l13 -8s51 -121 82 -192c35 -77 76 -164 76 -164l-65 -42l-16 5s-39 87 -73 163l-60 137h-7l-50 -124c-33 -77 -70 -180 -70 -180l-77 20l-7 13s39 93 75 177l82 191z" />
    <glyph glyph-name="underscore" unicode="_" horiz-adv-x="453" 
d="M455 -87l8 -14l-11 -77c-155 0 -361 -2 -452 -2l-9 14l11 76c39 0 156 -1 241 -1c41 0 87 1 130 2c53 0 82 2 82 2z" />
    <glyph glyph-name="grave" unicode="`" 
d="M66 651l-1 14l54 70l13 1s86 -90 168 -170l-30 -39l-15 -4c-93 69 -189 128 -189 128z" />
    <glyph glyph-name="a" unicode="a" horiz-adv-x="479" 
d="M277 266l1 23c0 57 -31 90 -85 90c-59 0 -117 -47 -117 -47l-9 5l-18 60s137 77 185 77c118 0 167 -60 167 -137c0 -34 -20 -161 -20 -205c0 -24 14 -40 36 -40c24 0 47 17 47 17l16 -21s-49 -86 -97 -100c-60 0 -95 27 -101 77l-8 3c-40 -40 -85 -76 -110 -76
c-78 0 -137 63 -137 146c0 41 23 75 58 83zM273 117l2 94l-105 -29c-16 -5 -23 -15 -23 -32c0 -35 22 -61 55 -61c20 0 49 12 71 28z" />
    <glyph glyph-name="b" unicode="b" horiz-adv-x="514" 
d="M67 597c0 42 -10 56 -42 56c-10 0 -20 -1 -23 -1l-4 4l5 54c93 12 206 32 206 32l8 -19c-13 -15 -22 -133 -27 -317c53 39 96 65 108 65c117 0 190 -85 190 -221c0 -152 -104 -260 -252 -260c-80 0 -159 16 -159 16l-10 10v581zM185 88c13 -6 45 -15 73 -15
c63 0 100 50 100 139c0 100 -39 163 -97 163c-24 0 -54 -14 -73 -32z" />
    <glyph glyph-name="c" unicode="c" horiz-adv-x="432" 
d="M373 118l8 -3l16 -52s-91 -75 -151 -75c-137 0 -221 88 -221 231c0 149 101 255 244 255c75 0 127 -21 127 -21l4 -9s-17 -71 -22 -155l-65 -4v33c0 46 -22 71 -62 71c-61 0 -93 -46 -93 -132c0 -109 39 -168 109 -168c55 0 106 29 106 29z" />
    <glyph glyph-name="d" unicode="d" horiz-adv-x="537" 
d="M331 62c-63 -46 -103 -70 -115 -70c-117 0 -191 84 -191 219c0 151 106 260 253 260c16 0 32 0 50 -2v126c0 42 -10 56 -42 56c-9 0 -24 -3 -24 -3l6 61c96 12 200 33 200 33l9 -17c-17 -26 -31 -295 -31 -592c0 -25 12 -41 32 -41c24 0 45 17 45 17l16 -21
s-45 -81 -101 -100c-59 0 -93 24 -100 72zM328 119v251s-29 17 -72 17c-64 0 -100 -50 -100 -139c0 -99 39 -162 97 -162c37 0 75 33 75 33z" />
    <glyph glyph-name="e" unicode="e" horiz-adv-x="463" 
d="M155 290l134 7c15 2 19 6 19 23c0 49 -22 74 -63 74c-51 0 -84 -36 -90 -104zM412 234h-257v-9c4 -89 51 -139 125 -139c63 0 120 30 120 30l8 -3l16 -51s-99 -74 -172 -74c-141 0 -227 88 -227 231c0 145 101 255 238 255c112 0 168 -58 168 -172c0 -29 -7 -57 -7 -57z
" />
    <glyph glyph-name="f" unicode="f" horiz-adv-x="342" 
d="M28 386l-4 6l8 52l61 10v8c1 172 99 280 252 280c69 0 115 -21 115 -21l5 -16s-18 -40 -35 -89l-13 -3s-44 38 -105 38c-69 0 -95 -43 -96 -155l-1 -46c72 0 128 3 128 3l4 -5l-11 -68s-51 2 -122 3l-2 -270c0 -32 13 -46 41 -46c30 0 61 2 61 2l3 -5l-9 -67
s-101 3 -145 3c-56 0 -132 -6 -132 -6l7 62c39 5 55 22 55 57v233c-2 31 -14 38 -65 40z" />
    <glyph glyph-name="g" unicode="g" horiz-adv-x="512" 
d="M238 127c-21 0 -41 3 -62 7c-17 -11 -26 -24 -26 -34c0 -24 31 -36 97 -38c179 -5 241 -35 241 -117c0 -96 -129 -187 -265 -187c-109 0 -179 55 -179 141c28 32 100 73 100 73v6c-63 10 -105 50 -105 102c30 32 84 68 84 68v7c-48 27 -75 76 -75 137
c0 104 88 183 208 183c42 0 72 -10 102 -10c50 4 141 33 141 33l6 -5l-13 -77s-36 -5 -73 -6l-4 -6c26 -28 39 -61 39 -98c0 -104 -91 -179 -216 -179zM256 195c47 0 74 33 74 97c0 68 -32 107 -86 107c-45 0 -71 -35 -71 -98c0 -67 31 -106 83 -106zM259 -167
c62 0 114 34 114 73c0 31 -20 39 -167 60c0 0 -37 -33 -37 -68c0 -39 35 -65 90 -65z" />
    <glyph glyph-name="h" unicode="h" horiz-adv-x="544" 
d="M17 -3l8 62c36 4 47 17 47 54v484c0 41 -10 55 -42 55h-23l-5 5l6 53c93 12 206 32 206 32l7 -19c-13 -16 -23 -144 -28 -336c29 27 103 87 133 87c97 0 151 -46 151 -130c0 -39 -19 -186 -19 -235c0 -34 8 -47 31 -47c11 0 30 1 30 1l2 -4l-9 -62s-70 3 -109 3
s-112 -8 -112 -8l6 63c32 8 45 23 46 56l4 171c0 59 -21 87 -64 87c-36 0 -76 -30 -91 -41c-1 -69 -2 -144 -2 -221c0 -33 8 -45 30 -45c9 0 25 2 25 2l2 -6l-10 -61s-68 3 -109 3c-49 0 -111 -3 -111 -3z" />
    <glyph glyph-name="i" unicode="i" horiz-adv-x="293" 
d="M148 574c-44 0 -70 27 -70 72c0 48 32 80 79 80c43 0 71 -27 71 -72c0 -48 -33 -80 -80 -80zM26 -11l8 64c40 7 57 26 57 62v214c0 42 -11 56 -43 56c-8 0 -23 -3 -23 -3l6 59c92 12 192 33 192 33l9 -17c-14 -29 -24 -173 -24 -351c0 -32 9 -44 31 -44c10 0 29 2 29 2
l2 -4l-10 -63s-69 3 -111 3c-50 0 -123 -11 -123 -11z" />
    <glyph glyph-name="j" unicode="j" horiz-adv-x="274" 
d="M39 -244l-32 30l2 12c57 56 73 109 73 238v293c0 43 -9 56 -36 56c-14 0 -30 -3 -30 -3l6 58c81 12 191 34 191 34l9 -17c-14 -30 -22 -191 -22 -471c0 -94 -61 -180 -161 -230zM141 574c-45 0 -71 27 -71 72c0 48 32 80 80 80c43 0 70 -27 70 -72c0 -48 -32 -80 -79 -80
z" />
    <glyph glyph-name="k" unicode="k" horiz-adv-x="519" 
d="M17 -6l7 63c44 6 48 25 48 77v463c0 34 -8 50 -28 54c-11 2 -29 0 -39 0c-1 4 -1 9 -2 13l5 46c93 12 206 32 206 32l7 -19c-18 -22 -31 -283 -31 -617c0 -33 8 -45 30 -45c8 0 26 2 26 2l2 -6l-11 -61s-69 4 -109 4c-49 0 -111 -6 -111 -6zM305 68l-100 168l3 22l96 96
c16 16 21 24 21 34c0 15 -14 20 -52 20l-3 5l9 51s70 -2 120 -2c46 0 108 4 108 4l3 -5l-9 -57c-63 -24 -123 -90 -177 -143l84 -130c33 -48 63 -71 102 -74l4 -8l-7 -50s-49 -11 -73 -12c-18 -1 -35 1 -44 3c-35 8 -56 28 -85 78z" />
    <glyph glyph-name="l" unicode="l" horiz-adv-x="265" 
d="M15 -9l8 63c46 10 49 30 49 80v463c0 34 -8 50 -28 54c-11 2 -29 0 -39 0c-1 4 -1 9 -2 13l5 46c93 12 206 32 206 32l7 -19c-18 -22 -31 -284 -31 -617c0 -33 8 -45 29 -45c9 0 34 2 34 2l2 -6l-10 -60s-75 3 -115 3c-50 0 -115 -9 -115 -9z" />
    <glyph glyph-name="m" unicode="m" horiz-adv-x="839" 
d="M312 -8l6 63c32 8 45 23 46 56l3 171c0 59 -21 87 -64 87c-33 0 -69 -25 -86 -38c-4 -72 -10 -195 -10 -223c0 -34 8 -45 30 -45c8 0 26 2 26 2l3 -5l-11 -63s-66 3 -106 3c-52 0 -119 -3 -119 -3l8 63c39 3 52 16 52 53v210c0 46 -11 60 -49 60h-13l-4 5l6 53
c91 14 186 33 186 33l8 -10s-9 -35 -11 -69l3 -3c34 28 105 82 130 82c76 0 125 -29 142 -84c29 26 106 84 132 84c96 0 151 -48 151 -130c0 -39 -18 -186 -18 -235c0 -35 9 -47 32 -47c11 0 30 1 30 1l2 -4l-10 -62s-71 3 -110 3s-108 -5 -108 -5l6 64c31 4 42 17 43 52
l3 171c0 59 -20 87 -64 87c-32 0 -67 -23 -84 -36l-13 -224c0 -34 8 -47 30 -47c11 0 28 1 28 1l2 -4l-10 -62s-68 3 -106 3c-39 0 -112 -8 -112 -8z" />
    <glyph glyph-name="n" unicode="n" horiz-adv-x="570" 
d="M312 -8l6 63c32 8 45 23 46 56l3 171c0 59 -21 87 -64 87c-33 0 -69 -25 -86 -37c-4 -73 -10 -196 -10 -224c0 -34 8 -45 30 -45c8 0 26 2 26 2l3 -5l-11 -63s-66 3 -106 3c-52 0 -119 -6 -119 -6l8 64c38 4 52 18 52 55v210c0 46 -11 60 -49 60h-13l-4 5l6 53
c91 14 186 33 186 33l8 -10s-9 -35 -11 -69l4 -4c32 28 102 83 129 83c95 0 151 -48 151 -130c0 -39 -18 -186 -18 -235c0 -34 8 -47 31 -47c11 0 30 1 30 1l2 -4l-9 -62s-71 3 -109 3c-39 0 -112 -8 -112 -8z" />
    <glyph glyph-name="o" unicode="o" horiz-adv-x="503" 
d="M237 -12c-128 0 -212 91 -212 229c0 153 98 257 242 257c130 0 211 -88 211 -229c0 -153 -97 -257 -241 -257zM257 65c56 0 86 44 86 134c0 127 -36 189 -99 189c-56 0 -86 -45 -86 -134c0 -127 36 -189 99 -189z" />
    <glyph glyph-name="p" unicode="p" horiz-adv-x="538" 
d="M37 -174c38 4 46 15 46 62c1 39 4 109 5 153v282c0 46 -11 60 -49 60h-13l-4 5l5 53c92 14 185 33 185 33l9 -10s-8 -34 -11 -63l4 -5c52 48 87 74 99 74c120 0 199 -88 199 -220c0 -157 -110 -260 -266 -260c-15 0 -41 3 -41 3v-92c0 -51 4 -69 36 -69c14 0 35 2 40 2
l3 -4l-11 -62c-17 0 -84 2 -122 2c-56 0 -122 -6 -122 -6zM208 87c13 -5 45 -14 74 -14c63 0 100 50 100 139c0 98 -39 158 -98 158c-19 0 -46 -11 -70 -29c-4 -78 -6 -181 -6 -254z" />
    <glyph glyph-name="q" unicode="q" horiz-adv-x="517" 
d="M246 -234l6 62c59 3 71 12 72 61l4 170c-61 -44 -101 -69 -112 -69c-117 0 -191 85 -191 221c0 151 106 260 253 260c30 0 69 -3 111 -10c37 14 66 27 66 27l11 -12c-13 -28 -21 -257 -21 -577c0 -55 5 -65 31 -65c14 0 26 1 26 1l3 -3l-7 -62h-128
c-49 0 -124 -4 -124 -4zM328 119v251s-29 17 -72 17c-64 0 -100 -50 -100 -139c0 -100 39 -163 97 -163c37 0 75 34 75 34z" />
    <glyph glyph-name="r" unicode="r" horiz-adv-x="413" 
d="M43 58c40 3 51 17 51 68v198c0 46 -10 59 -43 59c-8 0 -19 -1 -19 -1l-5 7l6 52c87 13 183 33 183 33l10 -9s-10 -50 -11 -93l6 -4c42 62 95 99 141 99c19 0 34 -4 34 -4l4 -8s-16 -101 -20 -183l-65 -4c0 64 -6 79 -29 79c-21 0 -46 -16 -66 -43c0 0 -9 -174 -9 -192
c0 -34 9 -46 38 -46c19 0 51 4 51 4l3 -6l-11 -68s-83 4 -131 4c-61 0 -126 -4 -126 -4z" />
    <glyph glyph-name="s" unicode="s" horiz-adv-x="409" 
d="M169 -12c-81 0 -134 27 -134 27l-6 11c4 27 11 93 13 131l57 6c0 -67 30 -101 88 -101c37 0 66 19 66 44c0 26 -19 42 -99 80c-80 37 -115 77 -115 134c0 91 86 154 208 154c65 0 112 -18 112 -18l6 -11s-13 -63 -19 -130l-58 -3s2 12 2 17c-1 47 -23 68 -70 68
c-34 0 -60 -18 -60 -43s19 -45 67 -68c117 -55 148 -88 148 -148c0 -84 -90 -150 -206 -150z" />
    <glyph glyph-name="t" unicode="t" horiz-adv-x="332" 
d="M68 111v222c0 42 -11 53 -54 54l-10 7l7 50c87 41 170 108 170 108l28 -15s-6 -32 -11 -87l117 3l4 -5l-10 -68l-117 3c-3 -58 -6 -129 -6 -216c0 -56 19 -80 64 -80c27 0 59 14 59 14l12 -33s-84 -80 -115 -80c-95 0 -138 38 -138 123z" />
    <glyph glyph-name="u" unicode="u" horiz-adv-x="547" 
d="M67 115l7 221c0 34 -10 49 -33 49c-12 0 -26 -3 -26 -3l6 59c85 12 183 33 183 33l10 -17c-15 -33 -27 -164 -27 -282c0 -55 20 -81 62 -81c29 0 59 20 85 37v204c0 39 -9 48 -43 49c-5 0 -16 -1 -17 -1l8 58c87 12 187 31 187 31l10 -17c-15 -31 -27 -172 -27 -322
c0 -25 13 -41 35 -41c24 0 47 17 47 17l16 -21s-56 -88 -105 -100c-61 0 -95 26 -102 77l-8 4c-51 -48 -96 -80 -111 -80c-102 0 -157 44 -157 126z" />
    <glyph glyph-name="v" unicode="v" horiz-adv-x="468" 
d="M333 380c0 16 -8 20 -33 20h-27l-4 7l8 56s63 -1 108 -1c40 0 91 1 91 1l-7 -62c-30 -4 -38 -13 -55 -58l-126 -343l-131 -15s-80 291 -104 366c-11 33 -31 49 -62 50l-2 5l7 57s62 -1 95 -1c66 0 136 7 136 7l2 -5l-8 -59c-41 -4 -49 -8 -49 -26c0 -27 61 -267 61 -267
h11c52 144 89 248 89 268z" />
    <glyph glyph-name="w" unicode="w" horiz-adv-x="740" 
d="M602 380c0 16 -7 21 -31 21h-27l-4 6l8 57s61 -2 106 -2c39 0 91 1 91 1l-8 -62c-29 -4 -37 -13 -53 -58l-124 -343l-126 -15c-5 32 -38 154 -62 248h-11l-75 -233l-129 -15s-79 291 -102 366c-11 33 -30 49 -61 50l-2 5l7 57s61 -1 93 -1c66 0 135 7 135 7l2 -5l-8 -59
c-40 -4 -47 -8 -47 -26c0 -28 59 -267 59 -267h10c27 67 72 215 81 247c-7 29 -18 41 -54 41l-3 6l8 57s60 -1 92 -1c66 0 133 6 133 6l2 -5l-9 -59c-41 -4 -47 -7 -47 -25c0 -27 59 -267 59 -267h11c51 144 86 248 86 268z" />
    <glyph glyph-name="x" unicode="x" horiz-adv-x="497" 
d="M391 0c-39 0 -142 -6 -142 -6l-3 5l7 50c28 1 39 6 39 18c0 7 -3 15 -13 29l-59 81c-28 -35 -72 -89 -72 -106c0 -14 9 -19 36 -20l3 -6l-7 -49s-74 4 -98 4c-33 0 -78 -3 -78 -3l-3 7l7 48c27 13 44 34 89 88l80 95l-67 93c-38 53 -60 67 -103 75l-2 4l6 56
s59 -1 117 -1c62 0 124 4 124 4l3 -6l-6 -52c-27 0 -38 -5 -38 -19c0 -15 9 -28 22 -45l41 -58l46 62c14 19 25 31 25 44c0 10 -8 14 -36 14l-2 4l5 52h90c36 0 85 3 85 3l3 -6l-6 -54c-29 -15 -59 -41 -86 -74l-79 -103l77 -104c33 -45 59 -66 97 -69l3 -4l-9 -53
s-66 2 -96 2z" />
    <glyph glyph-name="y" unicode="y" horiz-adv-x="465" 
d="M237 132h11c40 103 90 231 90 249c0 16 -7 21 -29 21h-32l-3 5l8 58s61 -3 106 -3h93l-8 -61c-29 -7 -39 -16 -51 -49l-128 -309c-85 -203 -152 -286 -241 -284c-19 0 -76 60 -76 81l8 13c86 7 157 57 201 138c-35 99 -105 290 -138 366c-16 31 -32 42 -60 43l-2 5l7 57
h78c68 0 153 6 153 7l2 -5l-9 -59c-38 -2 -48 -8 -48 -24c0 -32 68 -249 68 -249z" />
    <glyph glyph-name="z" unicode="z" horiz-adv-x="458" 
d="M37 -4l-17 33l252 368l-90 -6c-70 -6 -88 -23 -93 -88l-51 -5s9 100 11 166l7 7l130 -8l232 -3l13 -30c-120 -159 -223 -311 -260 -367l106 9c57 7 83 39 95 118l53 5s-17 -110 -17 -184l-16 -16l-299 7z" />
    <glyph glyph-name="braceleft" unicode="{" horiz-adv-x="321" 
d="M44 241l4 48c45 13 81 38 81 74c0 44 -47 118 -47 175c0 65 57 116 149 116c34 0 73 -9 73 -9l7 -10l-13 -56s-25 5 -41 5c-38 0 -56 -26 -56 -60c0 -38 27 -111 27 -154c0 -52 -33 -82 -73 -93v-6c43 -14 73 -45 73 -97c0 -48 -27 -124 -27 -166c0 -36 19 -63 59 -63
c18 0 41 6 41 6l8 -10l-11 -54s-30 -15 -80 -15c-82 0 -136 52 -136 116c0 58 47 132 47 172c0 44 -35 69 -85 81z" />
    <glyph glyph-name="bar" unicode="|" horiz-adv-x="334" 
d="M204 807l16 -11s-6 -339 -6 -505c0 -172 1 -549 1 -549l-87 -11l-12 11s0 355 1 534l1 520z" />
    <glyph glyph-name="braceright" unicode="}" horiz-adv-x="321" 
d="M278 289l-4 -47c-45 -12 -81 -38 -81 -75c0 -44 47 -118 47 -174c0 -69 -57 -121 -150 -121c-33 0 -73 9 -73 9l-6 10l13 55s24 -5 40 -5c39 0 56 26 56 60c0 40 -27 115 -27 160c0 51 33 80 73 92v6c-43 15 -73 45 -73 98c0 46 27 120 27 160c0 36 -19 63 -58 63
c-19 0 -41 -5 -41 -5l-8 9l11 55s30 15 80 15c81 0 136 -53 136 -116c0 -57 -47 -129 -47 -168c0 -44 35 -71 85 -81z" />
    <glyph glyph-name="asciitilde" unicode="~" horiz-adv-x="506" 
d="M73 178h-11l-35 37v11l91 101l19 4c50 0 179 -39 222 -39c28 0 75 57 75 57h11l35 -38v-10l-91 -102l-19 -4c-50 0 -179 39 -222 39c-27 0 -75 -56 -75 -56z" />
    <glyph glyph-name="nbspace" unicode="&#xa0;" horiz-adv-x="174" 
 />
    <glyph glyph-name="exclamdown" unicode="&#xa1;" horiz-adv-x="285" 
d="M160 474c49 0 75 -31 75 -76c0 -48 -32 -82 -82 -82c-47 0 -74 31 -74 75c0 49 31 83 81 83zM192 227l20 -430l-12 -17l-133 -22l-17 18l62 453l64 11z" />
    <glyph glyph-name="cent" unicode="&#xa2;" horiz-adv-x="432" 
d="M187 49h75l-22 -200l-69 -8l-6 7zM305 440h-76l23 209l70 9l6 -9zM373 118l8 -3l16 -52s-91 -75 -151 -75c-137 0 -221 88 -221 231c0 149 101 255 244 255c75 0 127 -21 127 -21l4 -9s-17 -71 -22 -155l-65 -4v33c0 46 -22 71 -62 71c-61 0 -93 -46 -93 -132
c0 -109 39 -168 109 -168c55 0 106 29 106 29z" />
    <glyph glyph-name="sterling" unicode="&#xa3;" horiz-adv-x="518" 
d="M443 178l25 -2c12 -21 21 -54 21 -83c0 -61 -41 -105 -97 -105c-67 0 -154 49 -225 49c-37 0 -70 -11 -109 -36l-11 5l-20 61c62 38 92 82 92 136v41c-2 31 -14 37 -64 40l-4 6l7 52l61 10v21c0 124 106 225 229 225c42 0 89 -6 112 -15l5 -11l-32 -96l-19 -3
c-48 27 -81 38 -109 38c-47 0 -69 -29 -70 -95l-3 -68c78 0 151 3 151 3l4 -5l-11 -68s-68 3 -146 3l-2 -60c-1 -43 -19 -87 -47 -111l57 12c41 0 101 -19 140 -19s63 26 65 75z" />
    <glyph glyph-name="currency" unicode="&#xa4;" horiz-adv-x="444" 
d="M68 351c0 28 7 53 20 75c-38 36 -75 71 -75 71l3 17l70 50c11 -12 38 -42 67 -72c21 11 47 18 73 18c27 0 52 -7 74 -18c34 38 68 77 68 77l18 -4l51 -71l-72 -67c13 -22 21 -48 21 -76c0 -27 -7 -52 -19 -73c37 -34 74 -67 74 -67l-4 -17l-71 -52l-65 70
c-22 -13 -48 -20 -75 -20c-28 0 -54 8 -77 21c-34 -38 -68 -73 -68 -73l-17 4l-49 71c13 10 41 36 71 63c-12 22 -18 47 -18 73zM140 351c0 -48 38 -87 86 -87s88 39 88 87s-40 87 -88 87s-86 -39 -86 -87z" />
    <glyph glyph-name="yen" unicode="&#xa5;" horiz-adv-x="568" 
d="M229 429c0 -9 6 -24 16 -46c3 -7 6 -14 9 -23l47 -81l65 129c5 9 8 17 8 24c0 17 -20 5 -43 18c1 6 1 13 1 20l5 35c24 0 76 -3 116 -3c39 0 88 3 88 3l4 -6l-6 -55c-48 -15 -60 -31 -87 -73l-24 -40c40 1 76 2 95 2l7 -9l-4 -57h-136l-26 -45c-4 -7 -8 -18 -10 -27
c69 1 136 3 168 4l7 -10l-5 -57h-181c0 -13 0 -26 1 -38c2 -24 8 -33 27 -34c5 -1 12 -1 19 -1l34 2l3 -6l-8 -58s-99 3 -142 3c-47 0 -137 -9 -137 -9l6 60c65 8 72 22 75 81c-72 0 -141 -1 -172 -1l-7 8l8 56h163c-5 12 -9 23 -17 37l-19 35c-55 0 -104 -1 -127 -1l-7 7
l8 56h88c-32 56 -70 102 -118 115c-1 8 0 16 0 24c2 12 4 25 6 37c0 0 65 -3 104 -3c19 0 140 6 145 7l5 -10l-5 -51c-41 -3 -47 -8 -47 -19z" />
    <glyph glyph-name="brokenbar" unicode="&#xa6;" horiz-adv-x="334" 
d="M117 158l87 15l10 -10c0 -191 1 -421 1 -421l-87 -11l-12 11c0 74 0 254 1 416zM214 375l-88 -12l-9 7c0 142 1 284 1 426l86 11l16 -11s-5 -246 -6 -421z" />
    <glyph glyph-name="section" unicode="&#xa7;" horiz-adv-x="500" 
d="M388 54c1 -76 -82 -154 -192 -154c-73 0 -136 36 -136 78c0 38 11 83 27 105l21 -1c10 -59 54 -101 105 -101c32 0 56 20 56 49c0 96 -241 123 -241 278c0 66 56 122 121 156l35 -37c-35 -21 -52 -44 -52 -77c0 -113 256 -151 256 -296zM317 130c31 20 48 45 48 78
c0 110 -250 154 -250 295c0 84 76 151 174 151c64 0 122 -24 122 -50c0 -31 -17 -91 -30 -103h-19c-16 40 -51 68 -84 68c-25 0 -44 -19 -44 -44c0 -92 239 -132 239 -277c0 -64 -50 -125 -119 -158z" />
    <glyph glyph-name="dieresis" unicode="&#xa8;" 
d="M284 563c-39 0 -60 25 -60 60c0 40 27 68 68 68c38 0 59 -25 59 -61c0 -39 -27 -67 -67 -67zM105 563c-38 0 -59 25 -59 60c0 40 27 68 67 68c38 0 60 -25 60 -61c0 -39 -27 -67 -68 -67z" />
    <glyph glyph-name="copyright" unicode="&#xa9;" horiz-adv-x="696" 
d="M337 129c-101 0 -154 66 -154 160c0 107 66 175 181 175c46 0 106 -13 106 -13l3 -7s-11 -43 -14 -101l-61 -3s1 13 1 26c0 26 -12 41 -49 41c-46 0 -69 -29 -69 -101c0 -77 22 -120 72 -120c35 0 52 19 58 65l59 5s-8 -56 -8 -100l-6 -8s-53 -19 -119 -19zM43 293
c0 168 136 305 304 305c169 0 305 -137 305 -305s-136 -305 -305 -305c-168 0 -304 137 -304 305zM94 293c0 -141 113 -256 253 -256c141 0 255 115 255 256s-114 256 -255 256c-140 0 -253 -115 -253 -256z" />
    <glyph glyph-name="ordfeminine" unicode="&#xaa;" horiz-adv-x="341" 
d="M192 517v9c0 34 -21 54 -55 54c-38 0 -78 -29 -78 -29l-6 3l-14 44s96 52 128 52c88 0 120 -42 120 -91c0 -22 -13 -101 -13 -125c0 -15 8 -25 21 -25c14 0 29 9 29 9l10 -16s-36 -62 -67 -71c-42 0 -67 17 -70 50l-7 2c-24 -24 -55 -49 -74 -49c-52 0 -93 45 -93 102
c0 27 16 49 40 55zM189 418l2 59l-61 -15c-10 -3 -14 -8 -14 -19c0 -21 13 -37 32 -37c12 0 29 5 41 12z" />
    <glyph glyph-name="guillemotleft" unicode="&#xab;" horiz-adv-x="451" 
d="M365 411l41 -25l4 -16c-32 -48 -63 -101 -89 -141c26 -42 57 -94 89 -144l-4 -16l-41 -25c-73 81 -165 171 -165 171v21s92 92 165 175zM180 411l41 -25l4 -16c-32 -48 -63 -101 -89 -141c26 -42 57 -94 89 -144l-4 -16l-41 -25c-73 81 -165 171 -165 171v21
s92 92 165 175z" />
    <glyph glyph-name="logicalnot" unicode="&#xac;" horiz-adv-x="506" 
d="M452 327l7 -13s-9 -70 -10 -143c0 -70 1 -136 1 -136l-91 -14l-11 7s1 102 1 194h-97c-90 0 -228 -1 -228 -1l-7 10l14 91s145 -1 234 -1c74 0 187 6 187 6z" />
    <glyph glyph-name="registered" unicode="&#xae;" horiz-adv-x="468" 
d="M30 507c0 113 91 204 204 204s204 -91 204 -204s-91 -204 -204 -204s-204 91 -204 204zM68 507c0 -91 75 -166 166 -166s166 75 166 166s-75 166 -166 166s-166 -75 -166 -166zM137 412l3 24c19 3 22 10 22 33v107c0 15 -2 18 -10 18h-11l-2 3l3 21c6 0 29 -1 43 -1h11
c11 1 31 2 35 2c55 0 86 -18 86 -56c0 -30 -18 -48 -42 -61l24 -38c11 -17 24 -29 36 -30l2 -3c-1 -18 -1 -20 -39 -22c-20 0 -30 6 -41 30l-25 51h-21v-27c0 -22 1 -25 23 -25c1 -1 1 -2 2 -3l-3 -22s-25 2 -39 2h-12c-18 -1 -45 -3 -45 -3zM215 580c-1 -20 -3 -39 -3 -58
c6 0 18 -2 27 -2c11 4 25 13 25 36s-16 32 -44 32c-4 0 -5 -1 -5 -8z" />
    <glyph glyph-name="macron" unicode="&#xaf;" 
d="M345 672l8 -14l-12 -76l-141 -1c-59 0 -139 -1 -139 -1l-11 11l14 76s95 -1 154 -1c50 0 127 6 127 6z" />
    <glyph glyph-name="degree" unicode="&#xb0;" horiz-adv-x="302" 
d="M21 523c0 73 58 131 130 131s130 -58 130 -131c0 -72 -58 -130 -130 -130s-130 58 -130 130zM79 523c0 -41 31 -72 72 -72s72 31 72 72s-31 73 -72 73s-72 -32 -72 -73z" />
    <glyph glyph-name="plusminus" unicode="&#xb1;" horiz-adv-x="506" 
d="M292 509l13 -7s-5 -101 -6 -178c78 1 183 6 183 6l7 -13l-10 -92c-60 0 -121 -1 -180 -1c0 -78 1 -163 1 -163l-88 -14l-11 7s0 89 1 170c-83 0 -178 -1 -178 -1l-7 11l14 91s90 -1 171 -1c0 58 1 116 1 174zM473 -5l8 -15l-11 -77c-150 0 -350 -2 -437 -2l-9 14l11 76
h232c38 0 84 0 125 1c53 1 81 2 81 3z" />
    <glyph glyph-name="two.sups" unicode="&#xb2;" horiz-adv-x="352" 
d="M28 334l-6 48l81 87c53 62 77 104 76 135c0 25 -15 37 -42 37c-30 0 -60 -19 -86 -54h-10l-13 63c32 46 88 78 139 78c72 0 120 -37 120 -93s-34 -112 -133 -219l3 -6h57c39 0 52 14 59 59l61 5s-14 -77 -18 -132l-11 -9s-157 6 -222 6z" />
    <glyph glyph-name="three.sups" unicode="&#xb3;" horiz-adv-x="310" 
d="M22 407l12 12c17 -7 37 -11 58 -11c48 0 81 21 81 50c0 31 -27 45 -89 45l-7 8l-6 48l44 9c27 12 45 33 45 56c0 19 -14 32 -36 32c-21 0 -47 -10 -72 -28h-8l-17 55c26 18 86 45 129 45c62 0 104 -31 104 -78c0 -38 -28 -72 -73 -88v-7c63 -20 92 -49 92 -94
c0 -64 -98 -130 -198 -130c-40 0 -55 21 -59 76z" />
    <glyph glyph-name="acute" unicode="&#xb4;" 
d="M350 666l-1 -14s-96 -60 -189 -129l-15 4l-30 39c82 80 167 171 167 171l14 -1z" />
    <glyph glyph-name="mu" unicode="&#xb5;" horiz-adv-x="532" 
d="M59 450c63 9 118 20 133 24l9 -17c-13 -31 -27 -156 -27 -282c0 -53 19 -81 64 -81c35 0 75 33 81 37v204c0 47 -10 97 -10 97l7 17c60 9 123 20 138 23l10 -17c-15 -31 -27 -171 -27 -322c0 -25 13 -41 35 -41c24 0 47 17 47 17l15 -21s-56 -88 -104 -100
c-60 0 -97 25 -102 75l-8 4c-27 -29 -75 -73 -104 -78c-22 0 -41 7 -54 17l-5 -3l-1 -59v-35c0 -51 7 -122 7 -122l-7 -9l-109 -20l-11 13s13 141 18 302l7 254c1 54 -9 106 -9 106z" />
    <glyph glyph-name="mu" unicode="&#x3bc;" horiz-adv-x="532" 
d="M59 450c63 9 118 20 133 24l9 -17c-13 -31 -27 -156 -27 -282c0 -53 19 -81 64 -81c35 0 75 33 81 37v204c0 47 -10 97 -10 97l7 17c60 9 123 20 138 23l10 -17c-15 -31 -27 -171 -27 -322c0 -25 13 -41 35 -41c24 0 47 17 47 17l15 -21s-56 -88 -104 -100
c-60 0 -97 25 -102 75l-8 4c-27 -29 -75 -73 -104 -78c-22 0 -41 7 -54 17l-5 -3l-1 -59v-35c0 -51 7 -122 7 -122l-7 -9l-109 -20l-11 13s13 141 18 302l7 254c1 54 -9 106 -9 106z" />
    <glyph glyph-name="paragraph" unicode="&#xb6;" horiz-adv-x="567" 
d="M330 121v441c0 13 -2 15 -27 15c-53 0 -79 -56 -79 -144c0 -89 19 -142 64 -204v-24c-150 6 -264 85 -264 229c0 120 91 212 227 212c51 0 109 -4 144 -4s144 3 144 3l-6 -62l-2 -4c-50 -4 -60 -12 -63 -46c-7 -51 -12 -278 -12 -362c0 -156 -79 -271 -231 -271
c-73 0 -140 38 -140 97c0 31 19 80 42 108h16c4 -83 43 -129 97 -129c71 0 90 39 90 145z" />
    <glyph glyph-name="periodcentered" unicode="&#xb7;" horiz-adv-x="238" 
d="M116 161c-50 0 -75 31 -75 76c0 48 31 82 81 82c48 0 75 -31 75 -76c0 -48 -31 -82 -81 -82z" />
    <glyph glyph-name="cedilla" unicode="&#xb8;" 
d="M141 -86l32 115h52l-21 -73c38 -22 96 -56 96 -97c0 -53 -65 -96 -133 -96c-34 0 -78 16 -78 43c0 15 22 45 37 63h9c1 -37 22 -56 52 -56c23 0 40 12 40 30c0 23 -46 50 -86 71z" />
    <glyph glyph-name="one.sups" unicode="&#xb9;" horiz-adv-x="265" 
d="M190 656c-5 -39 -8 -139 -8 -225c0 -31 8 -43 29 -43c15 0 30 1 30 1l3 -3l-9 -49s-64 2 -98 2c-45 0 -112 -7 -112 -7l5 47c41 3 59 15 59 47v197c0 31 -8 37 -32 37c-13 0 -33 -2 -33 -2l-4 4l4 43c21 2 53 6 83 10c63 7 99 13 100 13l9 -23c-15 -12 -22 -24 -26 -49z
" />
    <glyph glyph-name="ordmasculine" unicode="&#xba;" horiz-adv-x="354" 
d="M169 331c-89 0 -146 59 -146 152c0 101 64 167 163 167c92 0 145 -56 145 -151c0 -101 -63 -168 -162 -168zM180 390c31 0 46 23 46 76c0 85 -17 119 -53 119c-31 0 -46 -23 -46 -76c0 -85 17 -119 53 -119z" />
    <glyph glyph-name="guillemotright" unicode="&#xbb;" horiz-adv-x="451" 
d="M271 44l-41 25l-4 16c31 48 63 100 88 141c-25 41 -57 94 -88 143l4 16l41 26c72 -81 164 -172 164 -172v-20s-92 -92 -164 -175zM86 44l-41 25l-4 16c31 48 63 100 88 141c-25 41 -57 94 -88 143l4 16l41 26c72 -81 164 -172 164 -172v-20s-92 -92 -164 -175z" />
    <glyph glyph-name="onequarter" unicode="&#xbc;" horiz-adv-x="762" 
d="M190 577c-5 -39 -8 -138 -8 -225c0 -30 8 -43 29 -43c15 0 30 2 30 2l3 -4l-9 -49s-64 3 -98 3c-45 0 -112 -7 -112 -7l5 46c41 3 59 16 59 47v197c0 31 -8 37 -32 37c-13 0 -33 -2 -33 -2l-4 5l4 42c21 2 53 6 83 10c63 7 99 13 100 13l9 -23c-15 -11 -22 -24 -26 -49z
M626 653l7 -19s-176 -267 -266 -407c-90 -144 -202 -320 -202 -320l-65 27l-5 14s121 180 207 316l262 414zM434 96l2 53l170 238l5 2l71 -8v-221h50l7 -8l-7 -62l-49 1c1 -43 4 -84 4 -84l-7 -7l-90 -7l-5 6s3 50 4 95zM582 264l-71 -104h78v104h-7z" />
    <glyph glyph-name="onehalf" unicode="&#xbd;" horiz-adv-x="792" 
d="M190 577c-5 -39 -8 -138 -8 -225c0 -30 8 -43 29 -43c15 0 30 2 30 2l3 -4l-9 -49s-64 3 -98 3c-45 0 -112 -7 -112 -7l5 46c41 3 59 16 59 47v197c0 31 -8 37 -32 37c-13 0 -33 -2 -33 -2l-4 5l4 42c21 2 53 6 83 10c63 7 99 13 100 13l9 -23c-15 -11 -22 -24 -26 -49z
M626 653l7 -19s-176 -267 -266 -407c-90 -144 -202 -320 -202 -320l-65 27l-5 14s121 180 207 316l262 414zM468 -6l-6 48l81 87c53 62 77 104 76 136c0 24 -15 36 -42 36c-30 0 -60 -18 -86 -53h-10l-13 62c32 46 88 79 139 79c72 0 120 -38 120 -94
c0 -55 -34 -112 -133 -219l3 -5h57c39 0 52 13 59 59l61 5s-14 -77 -18 -132l-11 -9s-157 6 -222 6z" />
    <glyph glyph-name="threequarters" unicode="&#xbe;" horiz-adv-x="762" 
d="M22 328l12 12c17 -7 37 -11 58 -11c48 0 81 21 81 50c0 31 -27 45 -89 45l-7 8l-6 48l44 9c27 12 45 33 45 56c0 19 -14 32 -36 32c-21 0 -47 -10 -72 -27h-8l-17 54c26 18 86 45 129 45c62 0 104 -31 104 -78c0 -37 -28 -71 -73 -88v-7c63 -19 92 -49 92 -94
c0 -64 -98 -129 -198 -129c-40 0 -55 20 -59 75zM626 653l7 -19s-176 -267 -266 -407c-90 -144 -202 -320 -202 -320l-65 27l-5 14s121 180 207 316l262 414zM434 96l2 53l170 238l5 2l71 -8v-221h50l7 -8l-7 -62l-49 1c1 -43 4 -84 4 -84l-7 -7l-90 -7l-5 6s3 50 4 95z
M582 264l-71 -104h78v104h-7z" />
    <glyph glyph-name="questiondown" unicode="&#xbf;" horiz-adv-x="370" 
d="M269 242l24 -126l-3 -14l-108 -63c-31 -19 -52 -42 -52 -72c0 -64 71 -98 183 -104l8 -14l-37 -84l-15 -7c-146 4 -259 78 -259 174c0 91 62 126 165 197l3 7l-15 83l6 11l88 18zM218 474c49 0 75 -31 75 -76c0 -48 -32 -82 -82 -82c-47 0 -74 31 -74 75
c0 49 31 83 81 83z" />
    <glyph glyph-name="Agrave" unicode="&#xc0;" horiz-adv-x="625" 
d="M552 132c14 -47 33 -65 78 -69l4 -7l-7 -59s-79 3 -123 3c-86 0 -169 -8 -169 -8l-6 8l5 60c65 6 77 12 77 37c0 8 -2 19 -5 33l-20 76c-26 1 -68 1 -91 1c-32 0 -71 -4 -95 -7l-25 -75c-4 -14 -6 -24 -6 -31c0 -23 12 -30 46 -30h43l4 -7l-7 -63s-82 6 -146 6
c-54 0 -121 -3 -121 -3l8 67c31 5 49 22 65 66l178 507l159 16l11 -5s90 -347 143 -516zM296 510l-72 -224h70c22 0 53 2 74 4l-58 220h-14zM169 762l-5 13l26 77l12 5s115 -57 223 -104l-13 -47l-14 -9c-114 36 -229 65 -229 65z" />
    <glyph glyph-name="Aacute" unicode="&#xc1;" horiz-adv-x="625" 
d="M552 132c14 -47 33 -65 78 -69l4 -7l-7 -59s-79 3 -123 3c-86 0 -169 -8 -169 -8l-6 8l5 60c65 6 77 12 77 37c0 8 -2 19 -5 33l-20 76c-26 1 -68 1 -91 1c-32 0 -71 -4 -95 -7l-25 -75c-4 -14 -6 -24 -6 -31c0 -23 12 -30 46 -30h43l4 -7l-7 -63s-82 6 -146 6
c-54 0 -121 -3 -121 -3l8 67c31 5 49 22 65 66l178 507l159 16l11 -5s90 -347 143 -516zM296 510l-72 -224h70c22 0 53 2 74 4l-58 220h-14zM491 775l-6 -13s-115 -29 -229 -65l-13 9l-13 47c108 47 223 104 223 104l12 -5z" />
    <glyph glyph-name="Acircumflex" unicode="&#xc2;" horiz-adv-x="625" 
d="M552 132c14 -47 33 -65 78 -69l4 -7l-7 -59s-79 3 -123 3c-86 0 -169 -8 -169 -8l-6 8l5 60c65 6 77 12 77 37c0 8 -2 19 -5 33l-20 76c-26 1 -68 1 -91 1c-32 0 -71 -4 -95 -7l-25 -75c-4 -14 -6 -24 -6 -31c0 -23 12 -30 46 -30h43l4 -7l-7 -63s-82 6 -146 6
c-54 0 -121 -3 -121 -3l8 67c31 5 49 22 65 66l178 507l159 16l11 -5s90 -347 143 -516zM296 510l-72 -224h70c22 0 53 2 74 4l-58 220h-14zM176 711l-25 41c75 55 157 124 157 124h20c0 3 83 -68 157 -124l-24 -41l-16 -4c-46 23 -99 46 -127 58c-29 -12 -79 -35 -126 -58z
" />
    <glyph glyph-name="Atilde" unicode="&#xc3;" horiz-adv-x="625" 
d="M552 132c14 -47 33 -65 78 -69l4 -7l-7 -59s-79 3 -123 3c-86 0 -169 -8 -169 -8l-6 8l5 60c65 6 77 12 77 37c0 8 -2 19 -5 33l-20 76c-26 1 -68 1 -91 1c-32 0 -71 -4 -95 -7l-25 -75c-4 -14 -6 -24 -6 -31c0 -23 12 -30 46 -30h43l4 -7l-7 -63s-82 6 -146 6
c-54 0 -121 -3 -121 -3l8 67c31 5 49 22 65 66l178 507l159 16l11 -5s90 -347 143 -516zM296 510l-72 -224h70c22 0 53 2 74 4l-58 220h-14zM189 687h-11l-39 37v11l78 96l17 4c33 0 120 -34 149 -34c24 0 65 52 65 52h11l40 -37v-10l-79 -97l-16 -4c-34 0 -121 34 -150 34
c-24 0 -65 -52 -65 -52z" />
    <glyph glyph-name="Adieresis" unicode="&#xc4;" horiz-adv-x="625" 
d="M552 132c14 -47 33 -65 78 -69l4 -7l-7 -59s-79 3 -123 3c-86 0 -169 -8 -169 -8l-6 8l5 60c65 6 77 12 77 37c0 8 -2 19 -5 33l-20 76c-26 1 -68 1 -91 1c-32 0 -71 -4 -95 -7l-25 -75c-4 -14 -6 -24 -6 -31c0 -23 12 -30 46 -30h43l4 -7l-7 -63s-82 6 -146 6
c-54 0 -121 -3 -121 -3l8 67c31 5 49 22 65 66l178 507l159 16l11 -5s90 -347 143 -516zM296 510l-72 -224h70c22 0 53 2 74 4l-58 220h-14zM403 706c-39 0 -60 25 -60 61c0 39 27 67 68 67c38 0 59 -25 59 -60c0 -40 -27 -68 -67 -68zM224 706c-38 0 -59 25 -59 61
c0 39 27 67 67 67c38 0 60 -25 60 -60c0 -40 -27 -68 -68 -68z" />
    <glyph glyph-name="Aring" unicode="&#xc5;" horiz-adv-x="625" 
d="M552 132c14 -47 33 -65 78 -69l4 -7l-7 -59s-79 3 -123 3c-86 0 -169 -8 -169 -8l-6 8l5 60c65 6 77 12 77 37c0 8 -2 19 -5 33l-20 76c-26 1 -68 1 -91 1c-32 0 -71 -4 -95 -7l-25 -75c-4 -14 -6 -24 -6 -31c0 -23 12 -30 46 -30h43l4 -7l-7 -63s-82 6 -146 6
c-54 0 -121 -3 -121 -3l8 67c31 5 49 22 65 66l178 507l159 16l11 -5s90 -347 143 -516zM296 510l-72 -224h70c22 0 53 2 74 4l-58 220h-14zM320 731c15 0 40 5 40 36c0 25 -16 42 -46 42c-26 0 -39 -14 -39 -36c0 -31 26 -42 45 -42zM313 678c-57 0 -88 37 -88 91
s38 95 96 95c65 0 89 -43 89 -87c0 -51 -35 -99 -97 -99z" />
    <glyph glyph-name="AE" unicode="&#xc6;" horiz-adv-x="871" 
d="M319 60c68 6 83 15 83 48c0 16 -2 31 -4 49l-12 92l-87 -11l-84 -16l-45 -97c-8 -18 -11 -29 -11 -37c0 -19 13 -24 55 -24l33 -5l-6 -65c-1 1 -110 6 -166 6c-32 0 -74 -3 -74 -3l-5 60c12 3 38 30 60 73l208 425c-3 17 -11 22 -25 22c-12 0 -31 -2 -31 -2l-6 9l8 61
s111 -3 242 -3c152 0 271 5 320 12l8 -11s-18 -89 -23 -182l-91 -6s2 26 2 40c0 55 -16 63 -129 63c-45 0 -52 -4 -53 -27l26 -182l96 12l96 19l11 -10l-13 -84l-91 -7l-88 -10l20 -123c8 -48 28 -68 70 -68c113 0 130 15 143 115l85 7l7 -10s-18 -90 -28 -186l-9 -11
c0 -1 -167 7 -294 7h-38c-81 0 -159 -8 -159 -8l-5 8zM252 317l65 4l62 8l-23 181h-15z" />
    <glyph glyph-name="Ccedilla" unicode="&#xc7;" horiz-adv-x="617" 
d="M325 -12c-184 0 -297 120 -297 316c0 213 136 350 350 350c84 0 191 -25 191 -25l6 -13s-20 -83 -26 -189l-99 -7s2 27 2 53c0 58 -34 84 -109 84c-103 0 -159 -73 -159 -219c0 -163 62 -256 166 -256c72 0 110 41 126 138l99 7s-17 -104 -20 -187l-10 -12
s-96 -40 -220 -40zM280 -86l32 115h52l-21 -73c38 -22 96 -56 96 -97c0 -53 -65 -96 -133 -96c-34 0 -78 16 -78 43c0 15 22 45 37 63h9c1 -37 22 -56 52 -56c23 0 40 12 40 30c0 23 -46 50 -86 71z" />
    <glyph glyph-name="Egrave" unicode="&#xc8;" horiz-adv-x="597" 
d="M247 139c0 -53 7 -60 64 -60c124 0 142 14 156 114l85 7l7 -10s-18 -90 -28 -186l-9 -11s-188 7 -312 7c-89 0 -174 -10 -174 -10l8 68c55 8 72 28 72 86l1 379c0 43 -6 54 -33 54c-11 0 -30 -2 -30 -2l-7 9l8 61s110 -3 185 -3c142 0 243 4 304 12l8 -11
s-18 -89 -23 -182l-92 -6s2 26 2 40c0 55 -14 63 -126 63c-47 0 -52 -3 -53 -33l-7 -155c21 0 64 -1 93 -1c33 0 116 8 116 8l8 -9l-14 -86s-80 3 -130 3c-30 0 -59 -4 -76 -6c-2 -73 -3 -113 -3 -140zM155 762l-5 13l26 77l12 5s115 -57 223 -104l-13 -47l-14 -9
c-114 36 -229 65 -229 65z" />
    <glyph glyph-name="Eacute" unicode="&#xc9;" horiz-adv-x="597" 
d="M247 139c0 -53 7 -60 64 -60c124 0 142 14 156 114l85 7l7 -10s-18 -90 -28 -186l-9 -11s-188 7 -312 7c-89 0 -174 -10 -174 -10l8 68c55 8 72 28 72 86l1 379c0 43 -6 54 -33 54c-11 0 -30 -2 -30 -2l-7 9l8 61s110 -3 185 -3c142 0 243 4 304 12l8 -11
s-18 -89 -23 -182l-92 -6s2 26 2 40c0 55 -14 63 -126 63c-47 0 -52 -3 -53 -33l-7 -155c21 0 64 -1 93 -1c33 0 116 8 116 8l8 -9l-14 -86s-80 3 -130 3c-30 0 -59 -4 -76 -6c-2 -73 -3 -113 -3 -140zM492 775l-6 -13s-115 -29 -229 -65l-13 9l-13 47
c108 47 223 104 223 104l12 -5z" />
    <glyph glyph-name="Ecircumflex" unicode="&#xca;" horiz-adv-x="597" 
d="M247 139c0 -53 7 -60 64 -60c124 0 142 14 156 114l85 7l7 -10s-18 -90 -28 -186l-9 -11s-188 7 -312 7c-89 0 -174 -10 -174 -10l8 68c55 8 72 28 72 86l1 379c0 43 -6 54 -33 54c-11 0 -30 -2 -30 -2l-7 9l8 61s110 -3 185 -3c142 0 243 4 304 12l8 -11
s-18 -89 -23 -182l-92 -6s2 26 2 40c0 55 -14 63 -126 63c-47 0 -52 -3 -53 -33l-7 -155c21 0 64 -1 93 -1c33 0 116 8 116 8l8 -9l-14 -86s-80 3 -130 3c-30 0 -59 -4 -76 -6c-2 -73 -3 -113 -3 -140zM177 711l-25 41c75 55 157 124 157 124h20c0 3 83 -68 157 -124
l-24 -41l-16 -4c-46 23 -99 46 -127 58c-29 -12 -79 -35 -126 -58z" />
    <glyph glyph-name="Edieresis" unicode="&#xcb;" horiz-adv-x="597" 
d="M247 139c0 -53 7 -60 64 -60c124 0 142 14 156 114l85 7l7 -10s-18 -90 -28 -186l-9 -11s-188 7 -312 7c-89 0 -174 -10 -174 -10l8 68c55 8 72 28 72 86l1 379c0 43 -6 54 -33 54c-11 0 -30 -2 -30 -2l-7 9l8 61s110 -3 185 -3c142 0 243 4 304 12l8 -11
s-18 -89 -23 -182l-92 -6s2 26 2 40c0 55 -14 63 -126 63c-47 0 -52 -3 -53 -33l-7 -155c21 0 64 -1 93 -1c33 0 116 8 116 8l8 -9l-14 -86s-80 3 -130 3c-30 0 -59 -4 -76 -6c-2 -73 -3 -113 -3 -140zM403 706c-39 0 -60 25 -60 61c0 39 27 67 68 67c38 0 59 -25 59 -60
c0 -40 -27 -68 -67 -68zM224 706c-38 0 -59 25 -59 61c0 39 27 67 67 67c38 0 60 -25 60 -60c0 -40 -27 -68 -68 -68z" />
    <glyph glyph-name="Igrave" unicode="&#xcc;" horiz-adv-x="365" 
d="M260 528c-7 -121 -12 -289 -12 -395c0 -55 7 -68 38 -68c22 0 43 3 43 3l5 -7l-9 -64s-104 3 -149 3c-56 0 -140 -9 -140 -9l7 65c59 12 73 29 73 84l1 385c0 41 -7 52 -36 52c-14 0 -35 -1 -35 -1l-5 8l7 59c26 0 92 -1 140 -1c44 0 142 7 142 7l-6 -67
c-51 -7 -62 -17 -64 -54zM23 762l-5 13l26 77l12 5s115 -57 223 -104l-13 -47l-14 -9c-114 36 -229 65 -229 65z" />
    <glyph glyph-name="Iacute" unicode="&#xcd;" horiz-adv-x="365" 
d="M260 528c-7 -121 -12 -289 -12 -395c0 -55 7 -68 38 -68c22 0 43 3 43 3l5 -7l-9 -64s-104 3 -149 3c-56 0 -140 -9 -140 -9l7 65c59 12 73 29 73 84l1 385c0 41 -7 52 -36 52c-14 0 -35 -1 -35 -1l-5 8l7 59c26 0 92 -1 140 -1c44 0 142 7 142 7l-6 -67
c-51 -7 -62 -17 -64 -54zM360 775l-6 -13s-115 -29 -229 -65l-13 9l-13 47c108 47 223 104 223 104l12 -5z" />
    <glyph glyph-name="Icircumflex" unicode="&#xce;" horiz-adv-x="365" 
d="M260 528c-7 -121 -12 -289 -12 -395c0 -55 7 -68 38 -68c22 0 43 3 43 3l5 -7l-9 -64s-104 3 -149 3c-56 0 -140 -9 -140 -9l7 65c59 12 73 29 73 84l1 385c0 41 -7 52 -36 52c-14 0 -35 -1 -35 -1l-5 8l7 59c26 0 92 -1 140 -1c44 0 142 7 142 7l-6 -67
c-51 -7 -62 -17 -64 -54zM44 711l-25 41c75 55 157 124 157 124h20c0 3 83 -68 157 -124l-24 -41l-16 -4c-46 23 -99 46 -127 58c-29 -12 -79 -35 -126 -58z" />
    <glyph glyph-name="Idieresis" unicode="&#xcf;" horiz-adv-x="365" 
d="M260 528c-7 -121 -12 -289 -12 -395c0 -55 7 -68 38 -68c22 0 43 3 43 3l5 -7l-9 -64s-104 3 -149 3c-56 0 -140 -9 -140 -9l7 65c59 12 73 29 73 84l1 385c0 41 -7 52 -36 52c-14 0 -35 -1 -35 -1l-5 8l7 59c26 0 92 -1 140 -1c44 0 142 7 142 7l-6 -67
c-51 -7 -62 -17 -64 -54zM271 706c-39 0 -60 25 -60 61c0 39 27 67 68 67c38 0 59 -25 59 -60c0 -40 -27 -68 -67 -68zM92 706c-38 0 -59 25 -59 61c0 39 27 67 67 67c38 0 60 -25 60 -60c0 -40 -27 -68 -68 -68z" />
    <glyph glyph-name="Eth" unicode="&#xd0;" horiz-adv-x="709" 
d="M333 -12c0 0 -95 12 -152 12c-52 0 -128 -10 -128 -10l7 68c60 11 72 27 72 104v124h-116l-8 7l10 60h114v169c0 43 -6 54 -31 54c-13 0 -33 -2 -33 -2l-6 9l8 62s88 -3 128 -3s158 5 158 5c201 0 324 -114 324 -300c0 -211 -144 -359 -347 -359zM274 536l-8 -183l125 2
l6 -9l-6 -60h-127l-2 -140c0 -57 17 -71 83 -71c116 0 177 81 177 241c0 170 -71 244 -219 244c-22 0 -28 -5 -29 -24z" />
    <glyph glyph-name="Ntilde" unicode="&#xd1;" horiz-adv-x="729" 
d="M520 235h10l-2 299c-1 31 -10 43 -33 43c-14 0 -30 -1 -34 -1l-4 8l7 62s85 -4 129 -4c49 0 118 5 118 5l-5 -67c-44 -6 -62 -23 -63 -63l-13 -531l-106 -13c-155 248 -291 444 -291 444h-10l-1 -308c0 -33 9 -45 34 -45c11 0 43 3 43 3l6 -7l-10 -64s-86 4 -129 4
c-54 0 -123 -8 -123 -8l8 67c40 5 58 23 59 63l13 395c0 43 -16 55 -81 62l-8 10l7 58s67 -5 116 -5c43 0 96 4 96 4c130 -212 267 -411 267 -411zM249 687h-11l-39 37v11l78 96l17 4c33 0 120 -34 149 -34c24 0 65 52 65 52h11l40 -37v-10l-79 -97l-16 -4
c-34 0 -121 34 -150 34c-24 0 -65 -52 -65 -52z" />
    <glyph glyph-name="Ograve" unicode="&#xd2;" horiz-adv-x="674" 
d="M340 75c94 0 150 77 150 213c0 177 -59 269 -162 269c-91 0 -145 -76 -145 -213c0 -176 58 -269 157 -269zM315 -12c-178 0 -287 121 -287 316c0 211 130 350 328 350c182 0 290 -118 290 -313c0 -212 -132 -353 -331 -353zM171 762l-5 13l26 77l12 5s115 -57 223 -104
l-13 -47l-14 -9c-114 36 -229 65 -229 65z" />
    <glyph glyph-name="Oacute" unicode="&#xd3;" horiz-adv-x="674" 
d="M340 75c94 0 150 77 150 213c0 177 -59 269 -162 269c-91 0 -145 -76 -145 -213c0 -176 58 -269 157 -269zM315 -12c-178 0 -287 121 -287 316c0 211 130 350 328 350c182 0 290 -118 290 -313c0 -212 -132 -353 -331 -353zM508 775l-6 -13s-115 -29 -229 -65l-13 9
l-13 47c108 47 223 104 223 104l12 -5z" />
    <glyph glyph-name="Ocircumflex" unicode="&#xd4;" horiz-adv-x="674" 
d="M340 75c94 0 150 77 150 213c0 177 -59 269 -162 269c-91 0 -145 -76 -145 -213c0 -176 58 -269 157 -269zM315 -12c-178 0 -287 121 -287 316c0 211 130 350 328 350c182 0 290 -118 290 -313c0 -212 -132 -353 -331 -353zM192 711l-25 41c75 55 157 124 157 124h20
c0 3 83 -68 157 -124l-24 -41l-16 -4c-46 23 -99 46 -127 58c-29 -12 -79 -35 -126 -58z" />
    <glyph glyph-name="Otilde" unicode="&#xd5;" horiz-adv-x="674" 
d="M340 75c94 0 150 77 150 213c0 177 -59 269 -162 269c-91 0 -145 -76 -145 -213c0 -176 58 -269 157 -269zM315 -12c-178 0 -287 121 -287 316c0 211 130 350 328 350c182 0 290 -118 290 -313c0 -212 -132 -353 -331 -353zM205 687h-11l-39 37v11l78 96l17 4
c33 0 120 -34 149 -34c24 0 65 52 65 52h11l40 -37v-10l-79 -97l-16 -4c-34 0 -121 34 -150 34c-24 0 -65 -52 -65 -52z" />
    <glyph glyph-name="Odieresis" unicode="&#xd6;" horiz-adv-x="674" 
d="M340 75c94 0 150 77 150 213c0 177 -59 269 -162 269c-91 0 -145 -76 -145 -213c0 -176 58 -269 157 -269zM315 -12c-178 0 -287 121 -287 316c0 211 130 350 328 350c182 0 290 -118 290 -313c0 -212 -132 -353 -331 -353zM419 706c-39 0 -60 25 -60 61
c0 39 27 67 68 67c38 0 59 -25 59 -60c0 -40 -27 -68 -67 -68zM240 706c-38 0 -59 25 -59 61c0 39 27 67 67 67c38 0 60 -25 60 -60c0 -40 -27 -68 -68 -68z" />
    <glyph glyph-name="multiply" unicode="&#xd7;" horiz-adv-x="506" 
d="M379 452l12 -5l57 -70l-127 -128c56 -55 131 -122 131 -122l-5 -13l-72 -58l-124 123c-58 -58 -123 -125 -123 -125l-14 3l-51 72s63 62 119 118c-59 59 -130 129 -130 129l3 14l74 53s66 -68 124 -125c54 56 126 134 126 134z" />
    <glyph glyph-name="Oslash" unicode="&#xd8;" horiz-adv-x="674" 
d="M599 687l-97 -155l-63 41l95 156l62 -29zM502 532l-262 -449l-61 41l260 449zM63 -68l116 192l61 -41l-114 -190l-60 29zM340 75c94 0 150 77 150 213c0 177 -59 269 -162 269c-91 0 -145 -76 -145 -213c0 -176 58 -269 157 -269zM315 -12c-178 0 -287 121 -287 316
c0 211 130 350 328 350c182 0 290 -118 290 -313c0 -212 -132 -353 -331 -353z" />
    <glyph glyph-name="Ugrave" unicode="&#xd9;" horiz-adv-x="655" 
d="M219 236c0 -100 44 -157 124 -157c81 0 122 43 122 130c0 66 -4 314 -4 314c-1 44 -7 54 -32 54c-11 0 -33 -2 -33 -2l-2 4l8 66s79 -3 117 -3c51 0 119 6 119 6l-6 -67c-50 -11 -58 -18 -58 -50v-311c0 -150 -91 -232 -258 -232c-154 0 -232 72 -232 216v319
c0 44 -6 54 -32 54c-11 0 -32 -2 -32 -2l-2 4l9 66s86 -3 143 -3c41 0 119 6 119 6l-7 -68c-42 -5 -54 -18 -56 -53zM177 762l-5 13l26 77l12 5s115 -57 223 -104l-13 -47l-14 -9c-114 36 -229 65 -229 65z" />
    <glyph glyph-name="Uacute" unicode="&#xda;" horiz-adv-x="655" 
d="M219 236c0 -100 44 -157 124 -157c81 0 122 43 122 130c0 66 -4 314 -4 314c-1 44 -7 54 -32 54c-11 0 -33 -2 -33 -2l-2 4l8 66s79 -3 117 -3c51 0 119 6 119 6l-6 -67c-50 -11 -58 -18 -58 -50v-311c0 -150 -91 -232 -258 -232c-154 0 -232 72 -232 216v319
c0 44 -6 54 -32 54c-11 0 -32 -2 -32 -2l-2 4l9 66s86 -3 143 -3c41 0 119 6 119 6l-7 -68c-42 -5 -54 -18 -56 -53zM514 775l-6 -13s-115 -29 -229 -65l-13 9l-13 47c108 47 223 104 223 104l12 -5z" />
    <glyph glyph-name="Ucircumflex" unicode="&#xdb;" horiz-adv-x="655" 
d="M219 236c0 -100 44 -157 124 -157c81 0 122 43 122 130c0 66 -4 314 -4 314c-1 44 -7 54 -32 54c-11 0 -33 -2 -33 -2l-2 4l8 66s79 -3 117 -3c51 0 119 6 119 6l-6 -67c-50 -11 -58 -18 -58 -50v-311c0 -150 -91 -232 -258 -232c-154 0 -232 72 -232 216v319
c0 44 -6 54 -32 54c-11 0 -32 -2 -32 -2l-2 4l9 66s86 -3 143 -3c41 0 119 6 119 6l-7 -68c-42 -5 -54 -18 -56 -53zM199 711l-25 41c75 55 157 124 157 124h20c0 3 83 -68 157 -124l-24 -41l-16 -4c-46 23 -99 46 -127 58c-29 -12 -79 -35 -126 -58z" />
    <glyph glyph-name="Udieresis" unicode="&#xdc;" horiz-adv-x="655" 
d="M219 236c0 -100 44 -157 124 -157c81 0 122 43 122 130c0 66 -4 314 -4 314c-1 44 -7 54 -32 54c-11 0 -33 -2 -33 -2l-2 4l8 66s79 -3 117 -3c51 0 119 6 119 6l-6 -67c-50 -11 -58 -18 -58 -50v-311c0 -150 -91 -232 -258 -232c-154 0 -232 72 -232 216v319
c0 44 -6 54 -32 54c-11 0 -32 -2 -32 -2l-2 4l9 66s86 -3 143 -3c41 0 119 6 119 6l-7 -68c-42 -5 -54 -18 -56 -53zM425 706c-39 0 -60 25 -60 61c0 39 27 67 68 67c38 0 59 -25 59 -60c0 -40 -27 -68 -67 -68zM246 706c-38 0 -59 25 -59 61c0 39 27 67 67 67
c38 0 60 -25 60 -60c0 -40 -27 -68 -68 -68z" />
    <glyph glyph-name="Yacute" unicode="&#xdd;" horiz-adv-x="598" 
d="M227 552c0 -23 75 -182 85 -206h10l79 165c9 18 14 35 14 48c0 14 -15 21 -51 23l-2 5l7 58c25 0 89 -4 133 -4c46 0 102 4 102 4l4 -7l-7 -61c-56 -18 -79 -52 -121 -128l-96 -179c-18 -36 -17 -65 -18 -138c-1 -49 10 -65 47 -65c22 0 50 3 50 3l3 -5l-9 -69
s-115 4 -165 4c-57 0 -156 -11 -156 -11l7 69c78 10 90 27 90 94v30c0 34 -6 58 -29 102l-98 191c-30 60 -51 87 -113 100l-3 5l8 64s89 -3 129 -3c51 0 160 8 160 8l5 -9l-5 -58c-45 -2 -60 -10 -60 -30zM497 775l-6 -13s-115 -29 -229 -65l-13 9l-13 47
c108 47 223 104 223 104l12 -5z" />
    <glyph glyph-name="Thorn" unicode="&#xde;" horiz-adv-x="573" 
d="M260 536c-1 -12 -2 -18 -2 -24h76c151 0 227 -59 227 -176c0 -109 -106 -192 -242 -192h-71v-30c0 -40 7 -49 38 -49c26 0 48 3 48 3l4 -7l-9 -64s-107 3 -153 3c-56 0 -140 -9 -140 -9l7 65c58 12 73 28 73 84l1 385c0 41 -7 52 -36 52c-14 0 -35 -1 -35 -1l-5 8l7 59
c26 0 92 -1 140 -1c44 0 142 7 142 7l-6 -67c-52 -8 -62 -16 -64 -46zM254 417c-3 -73 -5 -143 -5 -185c25 -7 63 -14 83 -14c58 9 87 46 87 108c0 73 -44 105 -142 105c-18 0 -22 -3 -23 -14z" />
    <glyph glyph-name="germandbls" unicode="&#xdf;" horiz-adv-x="639" 
d="M302 47c1 29 24 85 43 110l20 -1c3 -53 36 -88 85 -88c33 0 59 27 59 61c0 91 -210 96 -210 239c0 91 114 129 114 200c0 50 -40 83 -101 83c-69 0 -96 -42 -96 -155l-4 -383c-1 -30 11 -46 33 -46c23 0 37 1 37 1l3 -4l-9 -67s-77 3 -113 3c-47 0 -132 -5 -132 -6l7 62
c43 5 55 21 55 64v226c-2 30 -14 38 -65 40l-4 6l8 52l61 10c0 181 94 288 252 288c109 0 188 -59 188 -141c0 -100 -112 -135 -112 -203c0 -83 214 -91 214 -242c0 -94 -87 -168 -200 -168c-68 0 -125 25 -133 59z" />
    <glyph glyph-name="agrave" unicode="&#xe0;" horiz-adv-x="479" 
d="M277 266l1 23c0 57 -31 90 -85 90c-59 0 -117 -47 -117 -47l-9 5l-18 60s137 77 185 77c118 0 167 -60 167 -137c0 -34 -20 -161 -20 -205c0 -24 14 -40 36 -40c24 0 47 17 47 17l16 -21s-49 -86 -97 -100c-60 0 -95 27 -101 77l-8 3c-40 -40 -85 -76 -110 -76
c-78 0 -137 63 -137 146c0 41 23 75 58 83zM273 117l2 94l-105 -29c-16 -5 -23 -15 -23 -32c0 -35 22 -61 55 -61c20 0 49 12 71 28zM93 652l-1 14l54 70l13 1s86 -90 168 -170l-30 -39l-15 -4c-93 69 -189 128 -189 128z" />
    <glyph glyph-name="aacute" unicode="&#xe1;" horiz-adv-x="479" 
d="M277 266l1 23c0 57 -31 90 -85 90c-59 0 -117 -47 -117 -47l-9 5l-18 60s137 77 185 77c118 0 167 -60 167 -137c0 -34 -20 -161 -20 -205c0 -24 14 -40 36 -40c24 0 47 17 47 17l16 -21s-49 -86 -97 -100c-60 0 -95 27 -101 77l-8 3c-40 -40 -85 -76 -110 -76
c-78 0 -137 63 -137 146c0 41 23 75 58 83zM273 117l2 94l-105 -29c-16 -5 -23 -15 -23 -32c0 -35 22 -61 55 -61c20 0 49 12 71 28zM379 667l-1 -14s-96 -60 -189 -129l-15 4l-30 39c82 80 167 171 167 171l14 -1z" />
    <glyph glyph-name="acircumflex" unicode="&#xe2;" horiz-adv-x="479" 
d="M277 266l1 23c0 57 -31 90 -85 90c-59 0 -117 -47 -117 -47l-9 5l-18 60s137 77 185 77c118 0 167 -60 167 -137c0 -34 -20 -161 -20 -205c0 -24 14 -40 36 -40c24 0 47 17 47 17l16 -21s-49 -86 -97 -100c-60 0 -95 27 -101 77l-8 3c-40 -40 -85 -76 -110 -76
c-78 0 -137 63 -137 146c0 41 23 75 58 83zM273 117l2 94l-105 -29c-16 -5 -23 -15 -23 -32c0 -35 22 -61 55 -61c20 0 49 12 71 28zM96 535l-29 41c71 68 152 154 152 154h20s80 -86 151 -154l-29 -41l-15 -4c-43 34 -91 65 -117 83c-28 -18 -74 -48 -117 -83z" />
    <glyph glyph-name="atilde" unicode="&#xe3;" horiz-adv-x="479" 
d="M277 266l1 23c0 57 -31 90 -85 90c-59 0 -117 -47 -117 -47l-9 5l-18 60s137 77 185 77c118 0 167 -60 167 -137c0 -34 -20 -161 -20 -205c0 -24 14 -40 36 -40c24 0 47 17 47 17l16 -21s-49 -86 -97 -100c-60 0 -95 27 -101 77l-8 3c-40 -40 -85 -76 -110 -76
c-78 0 -137 63 -137 146c0 41 23 75 58 83zM273 117l2 94l-105 -29c-16 -5 -23 -15 -23 -32c0 -35 22 -61 55 -61c20 0 49 12 71 28zM96 540h-11l-40 36v11l79 101l16 4c34 0 121 -33 150 -33c23 0 65 56 65 56h11l39 -37v-10l-78 -102l-17 -4c-33 0 -120 34 -149 34
c-25 0 -65 -56 -65 -56z" />
    <glyph glyph-name="adieresis" unicode="&#xe4;" horiz-adv-x="479" 
d="M277 266l1 23c0 57 -31 90 -85 90c-59 0 -117 -47 -117 -47l-9 5l-18 60s137 77 185 77c118 0 167 -60 167 -137c0 -34 -20 -161 -20 -205c0 -24 14 -40 36 -40c24 0 47 17 47 17l16 -21s-49 -86 -97 -100c-60 0 -95 27 -101 77l-8 3c-40 -40 -85 -76 -110 -76
c-78 0 -137 63 -137 146c0 41 23 75 58 83zM273 117l2 94l-105 -29c-16 -5 -23 -15 -23 -32c0 -35 22 -61 55 -61c20 0 49 12 71 28zM312 564c-39 0 -60 25 -60 60c0 40 27 68 68 68c38 0 59 -25 59 -61c0 -39 -27 -67 -67 -67zM133 564c-38 0 -59 25 -59 60
c0 40 27 68 67 68c38 0 60 -25 60 -61c0 -39 -27 -67 -68 -67z" />
    <glyph glyph-name="aring" unicode="&#xe5;" horiz-adv-x="479" 
d="M277 266l1 23c0 57 -31 90 -85 90c-59 0 -117 -47 -117 -47l-9 5l-18 60s137 77 185 77c118 0 167 -60 167 -137c0 -34 -20 -161 -20 -205c0 -24 14 -40 36 -40c24 0 47 17 47 17l16 -21s-49 -86 -97 -100c-60 0 -95 27 -101 77l-8 3c-40 -40 -85 -76 -110 -76
c-78 0 -137 63 -137 146c0 41 23 75 58 83zM273 117l2 94l-105 -29c-16 -5 -23 -15 -23 -32c0 -35 22 -61 55 -61c20 0 49 12 71 28zM231 597c15 0 40 5 40 37c0 25 -16 41 -46 41c-26 0 -39 -14 -39 -35c0 -32 26 -43 45 -43zM224 544c-57 0 -88 37 -88 91s38 95 96 95
c65 0 89 -43 89 -86c0 -52 -35 -100 -97 -100z" />
    <glyph glyph-name="ae" unicode="&#xe6;" horiz-adv-x="670" 
d="M637 113l16 -51s-97 -74 -166 -74c-88 0 -156 35 -191 98c-57 -54 -109 -89 -140 -94c-78 0 -138 62 -138 144c0 44 26 79 65 87l181 38l1 31c0 56 -31 88 -84 88c-59 0 -119 -48 -119 -48l-9 5l-18 60s138 77 185 77c55 0 98 -23 124 -65c38 42 90 65 150 65
c96 0 154 -63 154 -168c0 -16 -2 -29 -2 -29l-10 -12l-256 -44c9 -88 54 -137 129 -137c62 0 120 32 120 32zM264 208l-98 -26c-21 -4 -29 -16 -29 -35c0 -34 23 -60 54 -60c22 0 54 15 86 41c-8 23 -13 50 -13 80zM377 292v-18l128 32c11 3 17 7 17 15c0 41 -23 69 -57 69
c-54 0 -87 -38 -88 -98z" />
    <glyph glyph-name="ccedilla" unicode="&#xe7;" horiz-adv-x="432" 
d="M373 118l8 -3l16 -52s-91 -75 -151 -75c-137 0 -221 88 -221 231c0 149 101 255 244 255c75 0 127 -21 127 -21l4 -9s-17 -71 -22 -155l-65 -4v33c0 46 -22 71 -62 71c-61 0 -93 -46 -93 -132c0 -109 39 -168 109 -168c55 0 106 29 106 29zM192 -86l32 115h52l-21 -73
c38 -22 96 -56 96 -97c0 -53 -65 -96 -133 -96c-34 0 -78 16 -78 43c0 15 22 45 37 63h9c1 -37 22 -56 52 -56c23 0 40 12 40 30c0 23 -46 50 -86 71z" />
    <glyph glyph-name="egrave" unicode="&#xe8;" horiz-adv-x="463" 
d="M155 290l134 7c15 2 19 6 19 23c0 49 -22 74 -63 74c-51 0 -84 -36 -90 -104zM412 234h-257v-9c4 -89 51 -139 125 -139c63 0 120 30 120 30l8 -3l16 -51s-99 -74 -172 -74c-141 0 -227 88 -227 231c0 145 101 255 238 255c112 0 168 -58 168 -172c0 -29 -7 -57 -7 -57z
M115 651l-1 14l54 70l13 1s86 -90 168 -170l-30 -39l-15 -4c-93 69 -189 128 -189 128z" />
    <glyph glyph-name="eacute" unicode="&#xe9;" horiz-adv-x="463" 
d="M155 290l134 7c15 2 19 6 19 23c0 49 -22 74 -63 74c-51 0 -84 -36 -90 -104zM412 234h-257v-9c4 -89 51 -139 125 -139c63 0 120 30 120 30l8 -3l16 -51s-99 -74 -172 -74c-141 0 -227 88 -227 231c0 145 101 255 238 255c112 0 168 -58 168 -172c0 -29 -7 -57 -7 -57z
M401 666l-1 -14s-96 -60 -189 -129l-15 4l-30 39c82 80 167 171 167 171l14 -1z" />
    <glyph glyph-name="ecircumflex" unicode="&#xea;" horiz-adv-x="463" 
d="M155 290l134 7c15 2 19 6 19 23c0 49 -22 74 -63 74c-51 0 -84 -36 -90 -104zM412 234h-257v-9c4 -89 51 -139 125 -139c63 0 120 30 120 30l8 -3l16 -51s-99 -74 -172 -74c-141 0 -227 88 -227 231c0 145 101 255 238 255c112 0 168 -58 168 -172c0 -29 -7 -57 -7 -57z
M118 535l-29 41c71 68 152 154 152 154h20s80 -86 151 -154l-29 -41l-15 -4c-43 34 -91 65 -117 83c-28 -18 -74 -48 -117 -83z" />
    <glyph glyph-name="edieresis" unicode="&#xeb;" horiz-adv-x="463" 
d="M155 290l134 7c15 2 19 6 19 23c0 49 -22 74 -63 74c-51 0 -84 -36 -90 -104zM412 234h-257v-9c4 -89 51 -139 125 -139c63 0 120 30 120 30l8 -3l16 -51s-99 -74 -172 -74c-141 0 -227 88 -227 231c0 145 101 255 238 255c112 0 168 -58 168 -172c0 -29 -7 -57 -7 -57z
M334 563c-39 0 -60 25 -60 60c0 40 27 68 68 68c38 0 59 -25 59 -61c0 -39 -27 -67 -67 -67zM155 563c-38 0 -59 25 -59 60c0 40 27 68 67 68c38 0 60 -25 60 -61c0 -39 -27 -67 -68 -67z" />
    <glyph glyph-name="igrave" unicode="&#xec;" horiz-adv-x="293" 
d="M26 -11l8 64c40 7 57 26 57 62v214c0 42 -11 56 -43 56c-8 0 -23 -3 -23 -3l6 59c92 12 192 33 192 33l9 -17c-14 -29 -24 -173 -24 -351c0 -32 9 -44 31 -44c10 0 29 2 29 2l2 -4l-10 -63s-69 3 -111 3c-50 0 -123 -11 -123 -11zM12 651l-1 14l54 70l13 1
s86 -90 168 -170l-30 -39l-15 -4c-93 69 -189 128 -189 128z" />
    <glyph glyph-name="iacute" unicode="&#xed;" horiz-adv-x="293" 
d="M26 -11l8 64c40 7 57 26 57 62v214c0 42 -11 56 -43 56c-8 0 -23 -3 -23 -3l6 59c92 12 192 33 192 33l9 -17c-14 -29 -24 -173 -24 -351c0 -32 9 -44 31 -44c10 0 29 2 29 2l2 -4l-10 -63s-69 3 -111 3c-50 0 -123 -11 -123 -11zM302 666l-1 -14s-96 -60 -189 -129
l-15 4l-30 39c82 80 167 171 167 171l14 -1z" />
    <glyph glyph-name="icircumflex" unicode="&#xee;" horiz-adv-x="293" 
d="M26 -11l8 64c40 7 57 26 57 62v214c0 42 -11 56 -43 56c-8 0 -23 -3 -23 -3l6 59c92 12 192 33 192 33l9 -17c-14 -29 -24 -173 -24 -351c0 -32 9 -44 31 -44c10 0 29 2 29 2l2 -4l-10 -63s-69 3 -111 3c-50 0 -123 -11 -123 -11zM21 534l-29 41c71 68 152 154 152 154
h20s80 -86 151 -154l-29 -41l-15 -4c-43 34 -91 65 -117 83c-28 -18 -74 -48 -117 -83z" />
    <glyph glyph-name="idieresis" unicode="&#xef;" horiz-adv-x="293" 
d="M26 -11l8 64c40 7 57 26 57 62v214c0 42 -11 56 -43 56c-8 0 -23 -3 -23 -3l6 59c92 12 192 33 192 33l9 -17c-14 -29 -24 -173 -24 -351c0 -32 9 -44 31 -44c10 0 29 2 29 2l2 -4l-10 -63s-69 3 -111 3c-50 0 -123 -11 -123 -11zM236 563c-39 0 -60 25 -60 60
c0 40 27 68 68 68c38 0 59 -25 59 -61c0 -39 -27 -67 -67 -67zM57 563c-38 0 -59 25 -59 60c0 40 27 68 67 68c38 0 60 -25 60 -61c0 -39 -27 -67 -68 -67z" />
    <glyph glyph-name="eth" unicode="&#xf0;" horiz-adv-x="508" 
d="M392 716l9 -5l17 -59l-107 -53c108 -99 168 -220 168 -349c0 -156 -95 -262 -235 -262c-132 0 -215 86 -215 222c0 143 89 253 203 253c23 -4 52 -21 58 -24l3 5c-19 38 -44 74 -77 106l-129 -64l-9 3l-17 61l99 49c-35 29 -76 56 -123 81l32 56l13 5
c63 -27 120 -59 169 -95zM344 204c0 54 -5 101 -15 145c-13 11 -37 26 -78 26c-61 0 -89 -38 -89 -142c0 -111 38 -168 104 -168c50 0 78 47 78 139z" />
    <glyph glyph-name="ntilde" unicode="&#xf1;" horiz-adv-x="570" 
d="M312 -8l6 63c32 8 45 23 46 56l3 171c0 59 -21 87 -64 87c-33 0 -69 -25 -86 -37c-4 -73 -10 -196 -10 -224c0 -34 8 -45 30 -45c8 0 26 2 26 2l3 -5l-11 -63s-66 3 -106 3c-52 0 -119 -6 -119 -6l8 64c38 4 52 18 52 55v210c0 46 -11 60 -49 60h-13l-4 5l6 53
c91 14 186 33 186 33l8 -10s-9 -35 -11 -69l4 -4c32 28 102 83 129 83c95 0 151 -48 151 -130c0 -39 -18 -186 -18 -235c0 -34 8 -47 31 -47c11 0 30 1 30 1l2 -4l-9 -62s-71 3 -109 3c-39 0 -112 -8 -112 -8zM168 539h-11l-40 36v11l79 101l16 4c34 0 121 -33 150 -33
c23 0 65 56 65 56h11l39 -37v-10l-78 -102l-17 -4c-33 0 -120 34 -149 34c-25 0 -65 -56 -65 -56z" />
    <glyph glyph-name="ograve" unicode="&#xf2;" horiz-adv-x="503" 
d="M237 -12c-128 0 -212 91 -212 229c0 153 98 257 242 257c130 0 211 -88 211 -229c0 -153 -97 -257 -241 -257zM257 65c56 0 86 44 86 134c0 127 -36 189 -99 189c-56 0 -86 -45 -86 -134c0 -127 36 -189 99 -189zM123 651l-1 14l54 70l13 1s86 -90 168 -170l-30 -39
l-15 -4c-93 69 -189 128 -189 128z" />
    <glyph glyph-name="oacute" unicode="&#xf3;" horiz-adv-x="503" 
d="M237 -12c-128 0 -212 91 -212 229c0 153 98 257 242 257c130 0 211 -88 211 -229c0 -153 -97 -257 -241 -257zM257 65c56 0 86 44 86 134c0 127 -36 189 -99 189c-56 0 -86 -45 -86 -134c0 -127 36 -189 99 -189zM410 666l-1 -14s-96 -60 -189 -129l-15 4l-30 39
c82 80 167 171 167 171l14 -1z" />
    <glyph glyph-name="ocircumflex" unicode="&#xf4;" horiz-adv-x="503" 
d="M237 -12c-128 0 -212 91 -212 229c0 153 98 257 242 257c130 0 211 -88 211 -229c0 -153 -97 -257 -241 -257zM257 65c56 0 86 44 86 134c0 127 -36 189 -99 189c-56 0 -86 -45 -86 -134c0 -127 36 -189 99 -189zM127 535l-29 41c71 68 152 154 152 154h20
s80 -86 151 -154l-29 -41l-15 -4c-43 34 -91 65 -117 83c-28 -18 -74 -48 -117 -83z" />
    <glyph glyph-name="otilde" unicode="&#xf5;" horiz-adv-x="503" 
d="M237 -12c-128 0 -212 91 -212 229c0 153 98 257 242 257c130 0 211 -88 211 -229c0 -153 -97 -257 -241 -257zM257 65c56 0 86 44 86 134c0 127 -36 189 -99 189c-56 0 -86 -45 -86 -134c0 -127 36 -189 99 -189zM127 539h-11l-40 36v11l79 101l16 4
c34 0 121 -33 150 -33c23 0 65 56 65 56h11l39 -37v-10l-78 -102l-17 -4c-33 0 -120 34 -149 34c-25 0 -65 -56 -65 -56z" />
    <glyph glyph-name="odieresis" unicode="&#xf6;" horiz-adv-x="503" 
d="M237 -12c-128 0 -212 91 -212 229c0 153 98 257 242 257c130 0 211 -88 211 -229c0 -153 -97 -257 -241 -257zM257 65c56 0 86 44 86 134c0 127 -36 189 -99 189c-56 0 -86 -45 -86 -134c0 -127 36 -189 99 -189zM343 563c-39 0 -60 25 -60 60c0 40 27 68 68 68
c38 0 59 -25 59 -61c0 -39 -27 -67 -67 -67zM164 563c-38 0 -59 25 -59 60c0 40 27 68 67 68c38 0 60 -25 60 -61c0 -39 -27 -67 -68 -67z" />
    <glyph glyph-name="divide" unicode="&#xf7;" horiz-adv-x="506" 
d="M482 312l7 -12l-10 -92l-227 -1c-90 0 -228 -1 -228 -1l-7 11l14 90s145 -1 234 -1c80 0 217 6 217 6zM245 7c-45 0 -68 29 -68 68c0 45 29 76 75 76c43 0 68 -28 68 -69c0 -44 -29 -75 -75 -75zM245 362c-45 0 -68 29 -68 68c0 45 29 76 75 76c43 0 68 -28 68 -69
c0 -44 -29 -75 -75 -75z" />
    <glyph glyph-name="oslash" unicode="&#xf8;" horiz-adv-x="503" 
d="M474 530l-95 -156l-63 42l94 156l61 -30zM379 374l-184 -313l-62 41l183 314zM24 -78l109 180l62 -41l-109 -178l-59 29zM237 -12c-128 0 -212 91 -212 229c0 153 98 257 242 257c130 0 211 -88 211 -229c0 -153 -97 -257 -241 -257zM257 65c56 0 86 44 86 134
c0 127 -36 189 -99 189c-56 0 -86 -45 -86 -134c0 -127 36 -189 99 -189z" />
    <glyph glyph-name="ugrave" unicode="&#xf9;" horiz-adv-x="547" 
d="M67 115l7 221c0 34 -10 49 -33 49c-12 0 -26 -3 -26 -3l6 59c85 12 183 33 183 33l10 -17c-15 -33 -27 -164 -27 -282c0 -55 20 -81 62 -81c29 0 59 20 85 37v204c0 39 -9 48 -43 49c-5 0 -16 -1 -17 -1l8 58c87 12 187 31 187 31l10 -17c-15 -31 -27 -172 -27 -322
c0 -25 13 -41 35 -41c24 0 47 17 47 17l16 -21s-56 -88 -105 -100c-61 0 -95 26 -102 77l-8 4c-51 -48 -96 -80 -111 -80c-102 0 -157 44 -157 126zM130 651l-1 14l54 70l13 1s86 -90 168 -170l-30 -39l-15 -4c-93 69 -189 128 -189 128z" />
    <glyph glyph-name="uacute" unicode="&#xfa;" horiz-adv-x="547" 
d="M67 115l7 221c0 34 -10 49 -33 49c-12 0 -26 -3 -26 -3l6 59c85 12 183 33 183 33l10 -17c-15 -33 -27 -164 -27 -282c0 -55 20 -81 62 -81c29 0 59 20 85 37v204c0 39 -9 48 -43 49c-5 0 -16 -1 -17 -1l8 58c87 12 187 31 187 31l10 -17c-15 -31 -27 -172 -27 -322
c0 -25 13 -41 35 -41c24 0 47 17 47 17l16 -21s-56 -88 -105 -100c-61 0 -95 26 -102 77l-8 4c-51 -48 -96 -80 -111 -80c-102 0 -157 44 -157 126zM416 666l-1 -14s-96 -60 -189 -129l-15 4l-30 39c82 80 167 171 167 171l14 -1z" />
    <glyph glyph-name="ucircumflex" unicode="&#xfb;" horiz-adv-x="547" 
d="M67 115l7 221c0 34 -10 49 -33 49c-12 0 -26 -3 -26 -3l6 59c85 12 183 33 183 33l10 -17c-15 -33 -27 -164 -27 -282c0 -55 20 -81 62 -81c29 0 59 20 85 37v204c0 39 -9 48 -43 49c-5 0 -16 -1 -17 -1l8 58c87 12 187 31 187 31l10 -17c-15 -31 -27 -172 -27 -322
c0 -25 13 -41 35 -41c24 0 47 17 47 17l16 -21s-56 -88 -105 -100c-61 0 -95 26 -102 77l-8 4c-51 -48 -96 -80 -111 -80c-102 0 -157 44 -157 126zM133 535l-29 41c71 68 152 154 152 154h20s80 -86 151 -154l-29 -41l-15 -4c-43 34 -91 65 -117 83
c-28 -18 -74 -48 -117 -83z" />
    <glyph glyph-name="udieresis" unicode="&#xfc;" horiz-adv-x="547" 
d="M67 115l7 221c0 34 -10 49 -33 49c-12 0 -26 -3 -26 -3l6 59c85 12 183 33 183 33l10 -17c-15 -33 -27 -164 -27 -282c0 -55 20 -81 62 -81c29 0 59 20 85 37v204c0 39 -9 48 -43 49c-5 0 -16 -1 -17 -1l8 58c87 12 187 31 187 31l10 -17c-15 -31 -27 -172 -27 -322
c0 -25 13 -41 35 -41c24 0 47 17 47 17l16 -21s-56 -88 -105 -100c-61 0 -95 26 -102 77l-8 4c-51 -48 -96 -80 -111 -80c-102 0 -157 44 -157 126zM349 563c-39 0 -60 25 -60 60c0 40 27 68 68 68c38 0 59 -25 59 -61c0 -39 -27 -67 -67 -67zM170 563c-38 0 -59 25 -59 60
c0 40 27 68 67 68c38 0 60 -25 60 -61c0 -39 -27 -67 -68 -67z" />
    <glyph glyph-name="yacute" unicode="&#xfd;" horiz-adv-x="465" 
d="M237 132h11c40 103 90 231 90 249c0 16 -7 21 -29 21h-32l-3 5l8 58s61 -3 106 -3h93l-8 -61c-29 -7 -39 -16 -51 -49l-128 -309c-85 -203 -152 -286 -241 -284c-19 0 -76 60 -76 81l8 13c86 7 157 57 201 138c-35 99 -105 290 -138 366c-16 31 -32 42 -60 43l-2 5l7 57
h78c68 0 153 6 153 7l2 -5l-9 -59c-38 -2 -48 -8 -48 -24c0 -32 68 -249 68 -249zM401 666l-1 -14s-96 -60 -189 -129l-15 4l-30 39c82 80 167 171 167 171l14 -1z" />
    <glyph glyph-name="thorn" unicode="&#xfe;" horiz-adv-x="513" 
d="M68 75v522c0 42 -10 56 -42 56c-10 0 -21 -2 -25 -2c-1 4 -1 9 -1 13l4 46c93 12 206 32 206 32l7 -19c-12 -15 -21 -132 -26 -317c51 37 86 58 100 62c12 2 21 3 29 1c105 -9 169 -91 169 -219c0 -151 -105 -260 -252 -260c-20 0 -38 1 -52 3c0 -93 -9 -161 37 -161
c17 0 44 2 44 2l3 -4l-11 -62c-11 0 -77 2 -110 2c-62 0 -144 -5 -144 -6l9 62c47 5 50 21 51 77zM188 342l-2 -254c13 -6 45 -15 73 -15c63 0 100 50 100 139c0 100 -39 163 -97 163c-21 0 -52 -13 -74 -33z" />
    <glyph glyph-name="ydieresis" unicode="&#xff;" horiz-adv-x="465" 
d="M237 132h11c40 103 90 231 90 249c0 16 -7 21 -29 21h-32l-3 5l8 58s61 -3 106 -3h93l-8 -61c-29 -7 -39 -16 -51 -49l-128 -309c-85 -203 -152 -286 -241 -284c-19 0 -76 60 -76 81l8 13c86 7 157 57 201 138c-35 99 -105 290 -138 366c-16 31 -32 42 -60 43l-2 5l7 57
h78c68 0 153 6 153 7l2 -5l-9 -59c-38 -2 -48 -8 -48 -24c0 -32 68 -249 68 -249zM334 563c-39 0 -60 25 -60 60c0 40 27 68 68 68c38 0 59 -25 59 -61c0 -39 -27 -67 -67 -67zM155 563c-38 0 -59 25 -59 60c0 40 27 68 67 68c38 0 60 -25 60 -61c0 -39 -27 -67 -68 -67z
" />
    <glyph glyph-name="Amacron" unicode="&#x100;" horiz-adv-x="625" 
d="M552 132c14 -47 33 -65 78 -69l4 -7l-7 -59s-79 3 -123 3c-86 0 -169 -8 -169 -8l-6 8l5 60c65 6 77 12 77 37c0 8 -2 19 -5 33l-20 76c-26 1 -68 1 -91 1c-32 0 -71 -4 -95 -7l-25 -75c-4 -14 -6 -24 -6 -31c0 -23 12 -30 46 -30h43l4 -7l-7 -63s-82 6 -146 6
c-54 0 -121 -3 -121 -3l8 67c31 5 49 22 65 66l178 507l159 16l11 -5s90 -347 143 -516zM296 510l-72 -224h70c22 0 53 2 74 4l-58 220h-14zM463 800l8 -14l-12 -77l-141 -1c-59 0 -139 -1 -139 -1l-11 12l14 76s95 -1 154 -1c50 0 127 6 127 6z" />
    <glyph glyph-name="amacron" unicode="&#x101;" horiz-adv-x="479" 
d="M277 266l1 23c0 57 -31 90 -85 90c-59 0 -117 -47 -117 -47l-9 5l-18 60s137 77 185 77c118 0 167 -60 167 -137c0 -34 -20 -161 -20 -205c0 -24 14 -40 36 -40c24 0 47 17 47 17l16 -21s-49 -86 -97 -100c-60 0 -95 27 -101 77l-8 3c-40 -40 -85 -76 -110 -76
c-78 0 -137 63 -137 146c0 41 23 75 58 83zM273 117l2 94l-105 -29c-16 -5 -23 -15 -23 -32c0 -35 22 -61 55 -61c20 0 49 12 71 28zM372 673l8 -14l-12 -76l-141 -1c-59 0 -139 -1 -139 -1l-11 11l14 76s95 -1 154 -1c50 0 127 6 127 6z" />
    <glyph glyph-name="Abreve" unicode="&#x102;" horiz-adv-x="625" 
d="M552 132c14 -47 33 -65 78 -69l4 -7l-7 -59s-79 3 -123 3c-86 0 -169 -8 -169 -8l-6 8l5 60c65 6 77 12 77 37c0 8 -2 19 -5 33l-20 76c-26 1 -68 1 -91 1c-32 0 -71 -4 -95 -7l-25 -75c-4 -14 -6 -24 -6 -31c0 -23 12 -30 46 -30h43l4 -7l-7 -63s-82 6 -146 6
c-54 0 -121 -3 -121 -3l8 67c31 5 49 22 65 66l178 507l159 16l11 -5s90 -347 143 -516zM296 510l-72 -224h70c22 0 53 2 74 4l-58 220h-14zM317 788c45 0 85 20 103 60l17 -4l28 -35c-18 -58 -63 -116 -148 -116s-130 58 -148 116l28 35l17 4c18 -40 58 -60 103 -60z" />
    <glyph glyph-name="abreve" unicode="&#x103;" horiz-adv-x="479" 
d="M277 266l1 23c0 57 -31 90 -85 90c-59 0 -117 -47 -117 -47l-9 5l-18 60s137 77 185 77c118 0 167 -60 167 -137c0 -34 -20 -161 -20 -205c0 -24 14 -40 36 -40c24 0 47 17 47 17l16 -21s-49 -86 -97 -100c-60 0 -95 27 -101 77l-8 3c-40 -40 -85 -76 -110 -76
c-78 0 -137 63 -137 146c0 41 23 75 58 83zM273 117l2 94l-105 -29c-16 -5 -23 -15 -23 -32c0 -35 22 -61 55 -61c20 0 49 12 71 28zM228 643c45 0 85 22 103 68l17 -4l28 -34c-18 -63 -63 -125 -148 -125s-130 62 -148 125l28 34l17 4c18 -46 58 -68 103 -68z" />
    <glyph glyph-name="Aogonek" unicode="&#x104;" horiz-adv-x="625" 
d="M552 132c14 -47 33 -65 78 -69l4 -7l-7 -59s-79 3 -123 3c-86 0 -169 -8 -169 -8l-6 8l5 60c65 6 77 12 77 37c0 8 -2 19 -5 33l-20 76c-26 1 -68 1 -91 1c-32 0 -71 -4 -95 -7l-25 -75c-4 -14 -6 -24 -6 -31c0 -23 12 -30 46 -30h43l4 -7l-7 -63s-82 6 -146 6
c-54 0 -121 -3 -121 -3l8 67c31 5 49 22 65 66l178 507l159 16l11 -5s90 -347 143 -516zM296 510l-72 -224h70c22 0 53 2 74 4l-58 220h-14zM615 -146l18 -29s-52 -49 -102 -66c-72 0 -119 34 -119 91c0 54 48 108 133 192h54c-79 -91 -106 -125 -106 -164
c0 -28 20 -48 50 -48c35 0 72 24 72 24z" />
    <glyph glyph-name="aogonek" unicode="&#x105;" horiz-adv-x="479" 
d="M466 -146l19 -28s-53 -50 -102 -67c-74 0 -120 35 -120 92c0 38 22 77 83 141c-38 8 -60 34 -64 73c-2 1 -5 2 -8 3c-47 -47 -89 -76 -110 -76c-78 0 -137 63 -137 146c0 41 23 75 58 83l192 45l1 23c0 57 -31 90 -85 90c-59 0 -117 -47 -117 -47l-9 5l-18 60
s118 66 171 74c12 2 22 2 32 1c82 -6 133 -45 145 -110c3 -13 4 -26 2 -52c-8 -102 -18 -150 -18 -178c0 -24 14 -40 36 -40c24 0 47 17 47 17l18 -25c-102 -117 -138 -172 -138 -206c0 -28 20 -48 50 -48c35 0 72 24 72 24zM273 117l2 94l-105 -29c-16 -5 -23 -15 -23 -32
c0 -36 23 -61 55 -61c21 0 49 11 71 28z" />
    <glyph glyph-name="Cacute" unicode="&#x106;" horiz-adv-x="617" 
d="M325 -12c-184 0 -297 120 -297 316c0 213 136 350 350 350c84 0 191 -25 191 -25l6 -13s-20 -83 -26 -189l-99 -7s2 27 2 53c0 58 -34 84 -109 84c-103 0 -159 -73 -159 -219c0 -163 62 -256 166 -256c72 0 110 41 126 138l99 7s-17 -104 -20 -187l-10 -12
s-96 -40 -220 -40zM522 775l-6 -13s-115 -29 -229 -65l-13 9l-13 47c108 47 223 104 223 104l12 -5z" />
    <glyph glyph-name="cacute" unicode="&#x107;" horiz-adv-x="432" 
d="M373 118l8 -3l16 -52s-91 -75 -151 -75c-137 0 -221 88 -221 231c0 149 101 255 244 255c75 0 127 -21 127 -21l4 -9s-17 -71 -22 -155l-65 -4v33c0 46 -22 71 -62 71c-61 0 -93 -46 -93 -132c0 -109 39 -168 109 -168c55 0 106 29 106 29zM405 666l-1 -14
s-96 -60 -189 -129l-15 4l-30 39c82 80 167 171 167 171l14 -1z" />
    <glyph glyph-name="Ccircumflex" unicode="&#x108;" horiz-adv-x="617" 
d="M325 -12c-184 0 -297 120 -297 316c0 213 136 350 350 350c84 0 191 -25 191 -25l6 -13s-20 -83 -26 -189l-99 -7s2 27 2 53c0 58 -34 84 -109 84c-103 0 -159 -73 -159 -219c0 -163 62 -256 166 -256c72 0 110 41 126 138l99 7s-17 -104 -20 -187l-10 -12
s-96 -40 -220 -40zM208 709l-29 41c71 68 152 154 152 154h20s80 -86 151 -154l-29 -41l-15 -4c-43 34 -91 65 -117 83c-28 -18 -74 -48 -117 -83z" />
    <glyph glyph-name="ccircumflex" unicode="&#x109;" horiz-adv-x="432" 
d="M373 118l8 -3l16 -52s-91 -75 -151 -75c-137 0 -221 88 -221 231c0 149 101 255 244 255c75 0 127 -21 127 -21l4 -9s-17 -71 -22 -155l-65 -4v33c0 46 -22 71 -62 71c-61 0 -93 -46 -93 -132c0 -109 39 -168 109 -168c55 0 106 29 106 29zM133 534l-29 41
c71 68 152 154 152 154h20s80 -86 151 -154l-29 -41l-15 -4c-43 34 -91 65 -117 83c-28 -18 -74 -48 -117 -83z" />
    <glyph glyph-name="Cdotaccent" unicode="&#x10a;" horiz-adv-x="617" 
d="M325 -12c-184 0 -297 120 -297 316c0 213 136 350 350 350c84 0 191 -25 191 -25l6 -13s-20 -83 -26 -189l-99 -7s2 27 2 53c0 58 -34 84 -109 84c-103 0 -159 -73 -159 -219c0 -163 62 -256 166 -256c72 0 110 41 126 138l99 7s-17 -104 -20 -187l-10 -12
s-96 -40 -220 -40zM344 702c-46 0 -70 30 -70 72c0 47 32 80 80 80c44 0 70 -29 70 -72c0 -47 -32 -80 -80 -80z" />
    <glyph glyph-name="cdotaccent" unicode="&#x10b;" horiz-adv-x="432" 
d="M373 118l8 -3l16 -52s-91 -75 -151 -75c-137 0 -221 88 -221 231c0 149 101 255 244 255c75 0 127 -21 127 -21l4 -9s-17 -71 -22 -155l-65 -4v33c0 46 -22 71 -62 71c-61 0 -93 -46 -93 -132c0 -109 39 -168 109 -168c55 0 106 29 106 29zM248 574c-46 0 -70 30 -70 72
c0 47 32 80 80 80c44 0 70 -29 70 -72c0 -47 -32 -80 -80 -80z" />
    <glyph glyph-name="Ccaron" unicode="&#x10c;" horiz-adv-x="617" 
d="M325 -12c-184 0 -297 120 -297 316c0 213 136 350 350 350c84 0 191 -25 191 -25l6 -13s-20 -83 -26 -189l-99 -7s2 27 2 53c0 58 -34 84 -109 84c-103 0 -159 -73 -159 -219c0 -163 62 -256 166 -256c72 0 110 41 126 138l99 7s-17 -104 -20 -187l-10 -12
s-96 -40 -220 -40zM489 861l25 -41c-75 -54 -157 -124 -157 -124h-20s-83 70 -157 124l24 41l16 4c46 -23 99 -46 127 -58c29 12 79 35 126 58z" />
    <glyph glyph-name="ccaron" unicode="&#x10d;" horiz-adv-x="432" 
d="M373 118l8 -3l16 -52s-91 -75 -151 -75c-137 0 -221 88 -221 231c0 149 101 255 244 255c75 0 127 -21 127 -21l4 -9s-17 -71 -22 -155l-65 -4v33c0 46 -22 71 -62 71c-61 0 -93 -46 -93 -132c0 -109 39 -168 109 -168c55 0 106 29 106 29zM88 679l30 42l15 3
c45 -35 93 -67 121 -85c27 18 75 50 119 85l16 -3l30 -42c-74 -70 -156 -158 -156 -158h-20s-82 88 -155 158z" />
    <glyph glyph-name="Dcaron" unicode="&#x10e;" horiz-adv-x="693" 
d="M318 -12c0 0 -94 12 -151 12c-53 0 -129 -10 -129 -10l7 68c57 11 72 29 72 85l1 379c0 43 -7 54 -32 54c-13 0 -33 -2 -33 -2l-6 9l8 62s89 -3 128 -3c46 0 159 5 159 5c202 0 323 -112 323 -300c0 -211 -143 -359 -347 -359zM289 560c-22 0 -28 -5 -29 -24
c-8 -168 -13 -301 -13 -390c0 -57 17 -71 83 -71c116 0 178 81 178 241c0 170 -71 244 -219 244zM481 861l25 -41c-75 -54 -157 -124 -157 -124h-20s-83 70 -157 124l24 41l16 4c46 -23 99 -46 127 -58c29 12 79 35 126 58z" />
    <glyph glyph-name="dcaron" unicode="&#x10f;" horiz-adv-x="606" 
d="M616 701l8 -10s-15 -109 -38 -216l-48 -19l-15 4c3 115 -8 227 -8 227zM331 62c-63 -46 -103 -70 -115 -70c-117 0 -191 84 -191 219c0 151 106 260 253 260c16 0 32 0 50 -2v126c0 42 -10 56 -42 56c-9 0 -24 -3 -24 -3l6 61c96 12 200 33 200 33l9 -17
c-17 -26 -31 -295 -31 -592c0 -25 12 -41 32 -41c24 0 45 17 45 17l16 -21s-45 -81 -101 -100c-59 0 -93 24 -100 72zM328 119v251s-29 17 -72 17c-64 0 -100 -50 -100 -139c0 -99 39 -162 97 -162c37 0 75 33 75 33z" />
    <glyph glyph-name="Dcroat" unicode="&#x110;" horiz-adv-x="709" 
d="M333 -12c0 0 -95 12 -152 12c-52 0 -128 -10 -128 -10l7 68c60 11 72 27 72 104v124h-116l-8 7l10 60h114v169c0 43 -6 54 -31 54c-13 0 -33 -2 -33 -2l-6 9l8 62s88 -3 128 -3s158 5 158 5c201 0 324 -114 324 -300c0 -211 -144 -359 -347 -359zM274 536l-8 -183l125 2
l6 -9l-6 -60h-127l-2 -140c0 -57 17 -71 83 -71c116 0 177 81 177 241c0 170 -71 244 -219 244c-22 0 -28 -5 -29 -24z" />
    <glyph glyph-name="dcroat" unicode="&#x111;" horiz-adv-x="537" 
d="M403 579l124 5l14 -14l-5 -46l-157 -1l-156 -1l-10 10l8 48zM331 62c-63 -46 -103 -70 -115 -70c-117 0 -191 84 -191 219c0 151 106 260 253 260c16 0 32 0 50 -2v126c0 42 -10 56 -42 56c-9 0 -24 -3 -24 -3l6 61c96 12 200 33 200 33l9 -17c-17 -26 -31 -295 -31 -592
c0 -25 12 -41 32 -41c24 0 45 17 45 17l16 -21s-45 -81 -101 -100c-59 0 -93 24 -100 72zM328 119v251s-29 17 -72 17c-64 0 -100 -50 -100 -139c0 -99 39 -162 97 -162c37 0 75 33 75 33z" />
    <glyph glyph-name="Emacron" unicode="&#x112;" horiz-adv-x="597" 
d="M247 139c0 -53 7 -60 64 -60c124 0 142 14 156 114l85 7l7 -10s-18 -90 -28 -186l-9 -11s-188 7 -312 7c-89 0 -174 -10 -174 -10l8 68c55 8 72 28 72 86l1 379c0 43 -6 54 -33 54c-11 0 -30 -2 -30 -2l-7 9l8 61s110 -3 185 -3c142 0 243 4 304 12l8 -11
s-18 -89 -23 -182l-92 -6s2 26 2 40c0 55 -14 63 -126 63c-47 0 -52 -3 -53 -33l-7 -155c21 0 64 -1 93 -1c33 0 116 8 116 8l8 -9l-14 -86s-80 3 -130 3c-30 0 -59 -4 -76 -6c-2 -73 -3 -113 -3 -140zM463 800l8 -14l-12 -77l-141 -1c-59 0 -139 -1 -139 -1l-11 12l14 76
s95 -1 154 -1c50 0 127 6 127 6z" />
    <glyph glyph-name="emacron" unicode="&#x113;" horiz-adv-x="463" 
d="M155 290l134 7c15 2 19 6 19 23c0 49 -22 74 -63 74c-51 0 -84 -36 -90 -104zM412 234h-257v-9c4 -89 51 -139 125 -139c63 0 120 30 120 30l8 -3l16 -51s-99 -74 -172 -74c-141 0 -227 88 -227 231c0 145 101 255 238 255c112 0 168 -58 168 -172c0 -29 -7 -57 -7 -57z
M394 672l8 -14l-12 -76l-141 -1c-59 0 -139 -1 -139 -1l-11 11l14 76s95 -1 154 -1c50 0 127 6 127 6z" />
    <glyph glyph-name="Ebreve" unicode="&#x114;" horiz-adv-x="597" 
d="M247 139c0 -53 7 -60 64 -60c124 0 142 14 156 114l85 7l7 -10s-18 -90 -28 -186l-9 -11s-188 7 -312 7c-89 0 -174 -10 -174 -10l8 68c55 8 72 28 72 86l1 379c0 43 -6 54 -33 54c-11 0 -30 -2 -30 -2l-7 9l8 61s110 -3 185 -3c142 0 243 4 304 12l8 -11
s-18 -89 -23 -182l-92 -6s2 26 2 40c0 55 -14 63 -126 63c-47 0 -52 -3 -53 -33l-7 -155c21 0 64 -1 93 -1c33 0 116 8 116 8l8 -9l-14 -86s-80 3 -130 3c-30 0 -59 -4 -76 -6c-2 -73 -3 -113 -3 -140zM327 812c45 0 85 22 103 68l17 -4l28 -34c-18 -63 -63 -125 -148 -125
s-130 62 -148 125l28 34l17 4c18 -46 58 -68 103 -68z" />
    <glyph glyph-name="ebreve" unicode="&#x115;" horiz-adv-x="463" 
d="M155 290l134 7c15 2 19 6 19 23c0 49 -22 74 -63 74c-51 0 -84 -36 -90 -104zM412 234h-257v-9c4 -89 51 -139 125 -139c63 0 120 30 120 30l8 -3l16 -51s-99 -74 -172 -74c-141 0 -227 88 -227 231c0 145 101 255 238 255c112 0 168 -58 168 -172c0 -29 -7 -57 -7 -57z
M256 642c45 0 85 22 103 68l17 -4l28 -34c-18 -63 -63 -125 -148 -125s-130 62 -148 125l28 34l17 4c18 -46 58 -68 103 -68z" />
    <glyph glyph-name="Edotaccent" unicode="&#x116;" horiz-adv-x="597" 
d="M247 139c0 -53 7 -60 64 -60c124 0 142 14 156 114l85 7l7 -10s-18 -90 -28 -186l-9 -11s-188 7 -312 7c-89 0 -174 -10 -174 -10l8 68c55 8 72 28 72 86l1 379c0 43 -6 54 -33 54c-11 0 -30 -2 -30 -2l-7 9l8 61s110 -3 185 -3c142 0 243 4 304 12l8 -11
s-18 -89 -23 -182l-92 -6s2 26 2 40c0 55 -14 63 -126 63c-47 0 -52 -3 -53 -33l-7 -155c21 0 64 -1 93 -1c33 0 116 8 116 8l8 -9l-14 -86s-80 3 -130 3c-30 0 -59 -4 -76 -6c-2 -73 -3 -113 -3 -140zM314 702c-46 0 -70 30 -70 72c0 47 32 80 80 80c44 0 70 -29 70 -72
c0 -47 -32 -80 -80 -80z" />
    <glyph glyph-name="edotaccent" unicode="&#x117;" horiz-adv-x="463" 
d="M155 290l134 7c15 2 19 6 19 23c0 49 -22 74 -63 74c-51 0 -84 -36 -90 -104zM412 234h-257v-9c4 -89 51 -139 125 -139c63 0 120 30 120 30l8 -3l16 -51s-99 -74 -172 -74c-141 0 -227 88 -227 231c0 145 101 255 238 255c112 0 168 -58 168 -172c0 -29 -7 -57 -7 -57z
M244 574c-46 0 -70 30 -70 72c0 47 32 80 80 80c44 0 70 -29 70 -72c0 -47 -32 -80 -80 -80z" />
    <glyph glyph-name="Eogonek" unicode="&#x118;" horiz-adv-x="597" 
d="M247 139c0 -53 7 -60 64 -60c124 0 142 14 156 114l85 7l7 -10s-18 -90 -28 -186l-9 -11s-188 7 -312 7c-89 0 -174 -10 -174 -10l8 68c55 8 72 28 72 86l1 379c0 43 -6 54 -33 54c-11 0 -30 -2 -30 -2l-7 9l8 61s110 -3 185 -3c142 0 243 4 304 12l8 -11
s-18 -89 -23 -182l-92 -6s2 26 2 40c0 55 -14 63 -126 63c-47 0 -52 -3 -53 -33l-7 -155c21 0 64 -1 93 -1c33 0 116 8 116 8l8 -9l-14 -86s-80 3 -130 3c-30 0 -59 -4 -76 -6c-2 -73 -3 -113 -3 -140zM538 -146l18 -29s-52 -49 -102 -66c-72 0 -119 34 -119 91
c0 54 48 108 133 192h54c-79 -91 -106 -125 -106 -164c0 -28 20 -48 50 -48c35 0 72 24 72 24z" />
    <glyph glyph-name="eogonek" unicode="&#x119;" horiz-adv-x="463" 
d="M155 290l134 7c15 2 19 6 19 23c0 49 -22 74 -63 74c-51 0 -84 -36 -90 -104zM412 234h-257v-9c4 -89 51 -139 125 -139c63 0 120 30 120 30l8 -3l16 -51s-99 -74 -172 -74c-141 0 -227 88 -227 231c0 145 101 255 238 255c112 0 168 -58 168 -172c0 -29 -7 -57 -7 -57z
M422 -146l19 -28s-52 -50 -102 -67c-72 0 -120 34 -120 92c0 59 59 117 151 211h54c-90 -101 -123 -140 -123 -184c0 -28 19 -48 49 -48c35 0 72 24 72 24z" />
    <glyph glyph-name="Ecaron" unicode="&#x11a;" horiz-adv-x="597" 
d="M247 139c0 -53 7 -60 64 -60c124 0 142 14 156 114l85 7l7 -10s-18 -90 -28 -186l-9 -11s-188 7 -312 7c-89 0 -174 -10 -174 -10l8 68c55 8 72 28 72 86l1 379c0 43 -6 54 -33 54c-11 0 -30 -2 -30 -2l-7 9l8 61s110 -3 185 -3c142 0 243 4 304 12l8 -11
s-18 -89 -23 -182l-92 -6s2 26 2 40c0 55 -14 63 -126 63c-47 0 -52 -3 -53 -33l-7 -155c21 0 64 -1 93 -1c33 0 116 8 116 8l8 -9l-14 -86s-80 3 -130 3c-30 0 -59 -4 -76 -6c-2 -73 -3 -113 -3 -140zM460 861l25 -41c-75 -54 -157 -124 -157 -124h-20s-83 70 -157 124
l24 41l16 4c46 -23 99 -46 127 -58c29 12 79 35 126 58z" />
    <glyph glyph-name="ecaron" unicode="&#x11b;" horiz-adv-x="463" 
d="M155 290l134 7c15 2 19 6 19 23c0 49 -22 74 -63 74c-51 0 -84 -36 -90 -104zM412 234h-257v-9c4 -89 51 -139 125 -139c63 0 120 30 120 30l8 -3l16 -51s-99 -74 -172 -74c-141 0 -227 88 -227 231c0 145 101 255 238 255c112 0 168 -58 168 -172c0 -29 -7 -57 -7 -57z
M84 679l30 42l15 3c45 -35 93 -67 121 -85c27 18 75 50 119 85l16 -3l30 -42c-74 -70 -156 -158 -156 -158h-20s-82 88 -155 158z" />
    <glyph glyph-name="Gcircumflex" unicode="&#x11c;" horiz-adv-x="654" 
d="M598 332l7 -39c-35 -23 -41 -51 -41 -165c0 -38 2 -68 7 -87l-9 -13s-92 -40 -236 -40c-184 0 -298 120 -298 316c0 217 134 350 356 350c88 0 198 -25 198 -25l7 -13s-20 -80 -26 -184l-99 -6s3 25 3 54c0 56 -30 77 -107 77c-119 0 -177 -70 -177 -219
c0 -165 61 -256 168 -256c59 0 96 26 96 26v93c0 39 -8 48 -44 48h-51l-6 8l11 72c24 0 84 -2 139 -2c50 0 102 4 102 5zM215 709l-29 41c71 68 152 154 152 154h20s80 -86 151 -154l-29 -41l-15 -4c-43 34 -91 65 -117 83c-28 -18 -74 -48 -117 -83z" />
    <glyph glyph-name="gcircumflex" unicode="&#x11d;" horiz-adv-x="512" 
d="M238 127c-21 0 -41 3 -62 7c-17 -11 -26 -24 -26 -34c0 -24 31 -36 97 -38c179 -5 241 -35 241 -117c0 -96 -129 -187 -265 -187c-109 0 -179 55 -179 141c28 32 100 73 100 73v6c-63 10 -105 50 -105 102c30 32 84 68 84 68v7c-48 27 -75 76 -75 137
c0 104 88 183 208 183c42 0 72 -10 102 -10c50 4 141 33 141 33l6 -5l-13 -77s-36 -5 -73 -6l-4 -6c26 -28 39 -61 39 -98c0 -104 -91 -179 -216 -179zM256 195c47 0 74 33 74 97c0 68 -32 107 -86 107c-45 0 -71 -35 -71 -98c0 -67 31 -106 83 -106zM259 -167
c62 0 114 34 114 73c0 31 -20 39 -167 60c0 0 -37 -33 -37 -68c0 -39 35 -65 90 -65zM137 534l-29 41c71 68 152 154 152 154h20s80 -86 151 -154l-29 -41l-15 -4c-43 34 -91 65 -117 83c-28 -18 -74 -48 -117 -83z" />
    <glyph glyph-name="Gbreve" unicode="&#x11e;" horiz-adv-x="654" 
d="M598 332l7 -39c-35 -23 -41 -51 -41 -165c0 -38 2 -68 7 -87l-9 -13s-92 -40 -236 -40c-184 0 -298 120 -298 316c0 217 134 350 356 350c88 0 198 -25 198 -25l7 -13s-20 -80 -26 -184l-99 -6s3 25 3 54c0 56 -30 77 -107 77c-119 0 -177 -70 -177 -219
c0 -165 61 -256 168 -256c59 0 96 26 96 26v93c0 39 -8 48 -44 48h-51l-6 8l11 72c24 0 84 -2 139 -2c50 0 102 4 102 5zM354 802c45 0 85 20 103 60l17 -4l28 -35c-18 -58 -63 -116 -148 -116s-130 58 -148 116l28 35l17 4c18 -40 58 -60 103 -60z" />
    <glyph glyph-name="gbreve" unicode="&#x11f;" horiz-adv-x="512" 
d="M238 127c-21 0 -41 3 -62 7c-17 -11 -26 -24 -26 -34c0 -24 31 -36 97 -38c179 -5 241 -35 241 -117c0 -96 -129 -187 -265 -187c-109 0 -179 55 -179 141c28 32 100 73 100 73v6c-63 10 -105 50 -105 102c30 32 84 68 84 68v7c-48 27 -75 76 -75 137
c0 104 88 183 208 183c42 0 72 -10 102 -10c50 4 141 33 141 33l6 -5l-13 -77s-36 -5 -73 -6l-4 -6c26 -28 39 -61 39 -98c0 -104 -91 -179 -216 -179zM256 195c47 0 74 33 74 97c0 68 -32 107 -86 107c-45 0 -71 -35 -71 -98c0 -67 31 -106 83 -106zM259 -167
c62 0 114 34 114 73c0 31 -20 39 -167 60c0 0 -37 -33 -37 -68c0 -39 35 -65 90 -65zM256 642c45 0 85 22 103 68l17 -4l28 -34c-18 -63 -63 -125 -148 -125s-130 62 -148 125l28 34l17 4c18 -46 58 -68 103 -68z" />
    <glyph glyph-name="Gdotaccent" unicode="&#x120;" horiz-adv-x="654" 
d="M598 332l7 -39c-35 -23 -41 -51 -41 -165c0 -38 2 -68 7 -87l-9 -13s-92 -40 -236 -40c-184 0 -298 120 -298 316c0 217 134 350 356 350c88 0 198 -25 198 -25l7 -13s-20 -80 -26 -184l-99 -6s3 25 3 54c0 56 -30 77 -107 77c-119 0 -177 -70 -177 -219
c0 -165 61 -256 168 -256c59 0 96 26 96 26v93c0 39 -8 48 -44 48h-51l-6 8l11 72c24 0 84 -2 139 -2c50 0 102 4 102 5zM351 702c-46 0 -70 30 -70 72c0 47 32 80 80 80c44 0 70 -29 70 -72c0 -47 -32 -80 -80 -80z" />
    <glyph glyph-name="gdotaccent" unicode="&#x121;" horiz-adv-x="512" 
d="M238 127c-21 0 -41 3 -62 7c-17 -11 -26 -24 -26 -34c0 -24 31 -36 97 -38c179 -5 241 -35 241 -117c0 -96 -129 -187 -265 -187c-109 0 -179 55 -179 141c28 32 100 73 100 73v6c-63 10 -105 50 -105 102c30 32 84 68 84 68v7c-48 27 -75 76 -75 137
c0 104 88 183 208 183c42 0 72 -10 102 -10c50 4 141 33 141 33l6 -5l-13 -77s-36 -5 -73 -6l-4 -6c26 -28 39 -61 39 -98c0 -104 -91 -179 -216 -179zM256 195c47 0 74 33 74 97c0 68 -32 107 -86 107c-45 0 -71 -35 -71 -98c0 -67 31 -106 83 -106zM259 -167
c62 0 114 34 114 73c0 31 -20 39 -167 60c0 0 -37 -33 -37 -68c0 -39 35 -65 90 -65zM251 574c-46 0 -70 30 -70 72c0 47 32 80 80 80c44 0 70 -29 70 -72c0 -47 -32 -80 -80 -80z" />
    <glyph glyph-name="Gcommaaccent" unicode="&#x122;" horiz-adv-x="654" 
d="M598 332l7 -39c-35 -23 -41 -51 -41 -165c0 -38 2 -68 7 -87l-9 -13s-92 -40 -236 -40c-184 0 -298 120 -298 316c0 217 134 350 356 350c88 0 198 -25 198 -25l7 -13s-20 -80 -26 -184l-99 -6s3 25 3 54c0 56 -30 77 -107 77c-119 0 -177 -70 -177 -219
c0 -165 61 -256 168 -256c59 0 96 26 96 26v93c0 39 -8 48 -44 48h-51l-6 8l11 72c24 0 84 -2 139 -2c50 0 102 4 102 5zM261 -100l3 14c24 19 54 35 79 35c40 0 69 -33 69 -86c0 -71 -69 -138 -147 -181l-37 30v17c39 27 68 68 68 102c0 27 -15 53 -35 69z" />
    <glyph glyph-name="gcommaaccent" unicode="&#x123;" horiz-adv-x="512" 
d="M238 127c-21 0 -41 3 -62 7c-17 -11 -26 -24 -26 -34c0 -24 31 -36 97 -38c179 -5 241 -35 241 -117c0 -96 -129 -187 -265 -187c-109 0 -179 55 -179 141c28 32 100 73 100 73v6c-63 10 -105 50 -105 102c30 32 84 68 84 68v7c-48 27 -75 76 -75 137
c0 104 88 183 208 183c42 0 72 -10 102 -10c50 4 141 33 141 33l6 -5l-13 -77s-36 -5 -73 -6l-4 -6c26 -28 39 -61 39 -98c0 -104 -91 -179 -216 -179zM256 195c47 0 74 33 74 97c0 68 -32 107 -86 107c-45 0 -71 -35 -71 -98c0 -67 31 -106 83 -106zM259 -167
c62 0 114 34 114 73c0 31 -20 39 -167 60c0 0 -37 -33 -37 -68c0 -39 35 -65 90 -65zM331 566l-2 -14c-24 -19 -54 -35 -79 -35c-40 0 -69 33 -69 85c0 71 69 138 147 182l37 -30v-17c-40 -27 -68 -68 -68 -103c0 -27 15 -52 34 -68z" />
    <glyph glyph-name="Hcircumflex" unicode="&#x124;" horiz-adv-x="747" 
d="M641 528c-6 -115 -12 -290 -12 -395c0 -52 10 -67 42 -67c17 0 36 3 36 3l5 -8l-9 -64s-83 3 -146 3c-40 0 -139 -2 -139 -2l8 66c56 1 72 20 72 92v127s-72 1 -108 1c-27 0 -140 -10 -140 -10l-2 -141c0 -55 7 -68 38 -68c19 0 36 3 36 3l5 -7l-9 -64s-84 3 -122 3
c-60 0 -158 -6 -159 -9l7 65c58 12 72 28 72 84l1 385c0 42 -7 52 -36 52c-12 0 -31 -1 -31 -1l-5 8l8 59s79 -1 119 -1c51 0 151 7 151 7l-5 -67c-51 -8 -57 -18 -60 -71l-6 -143l128 -2c48 0 78 2 118 7v152c0 41 -7 52 -36 52c-11 0 -31 -1 -31 -1l-5 8l8 59
s85 -1 128 -1c45 0 147 7 147 7l-6 -66c-49 -7 -60 -17 -62 -55zM241 735l-29 41c71 68 152 154 152 154h20s80 -86 151 -154l-29 -41l-15 -4c-43 34 -91 65 -117 83c-28 -18 -74 -48 -117 -83z" />
    <glyph glyph-name="hcircumflex" unicode="&#x125;" horiz-adv-x="544" 
d="M17 -3l8 62c36 4 47 17 47 54v484c0 41 -10 55 -42 55h-23l-5 5l6 53c93 12 206 32 206 32l7 -19c-13 -16 -23 -144 -28 -336c29 27 103 87 133 87c97 0 151 -46 151 -130c0 -39 -19 -186 -19 -235c0 -34 8 -47 31 -47c11 0 30 1 30 1l2 -4l-9 -62s-70 3 -109 3
s-112 -8 -112 -8l6 63c32 8 45 23 46 56l4 171c0 59 -21 87 -64 87c-36 0 -76 -30 -91 -41c-1 -69 -2 -144 -2 -221c0 -33 8 -45 30 -45c9 0 25 2 25 2l2 -6l-10 -61s-68 3 -109 3c-49 0 -111 -3 -111 -3zM1 772l-29 41c71 68 152 154 152 154h20s80 -86 151 -154l-29 -41
l-15 -4c-43 34 -91 65 -117 83c-28 -18 -74 -48 -117 -83z" />
    <glyph glyph-name="Hbar" unicode="&#x126;" horiz-adv-x="745" 
d="M399 499c130 0 314 5 314 5l14 -14l-5 -46l-347 -1c-153 0 -346 -1 -346 -1l-10 10l8 48s220 -1 372 -1zM640 528c-6 -115 -12 -290 -12 -395c0 -52 10 -67 42 -67c17 0 36 3 36 3l5 -8l-9 -64s-83 3 -146 3c-40 0 -139 -2 -139 -2l8 66c56 1 72 20 72 92v127
s-72 1 -108 1c-27 0 -140 -10 -140 -10l-2 -141c0 -55 7 -68 38 -68c19 0 36 3 36 3l5 -7l-9 -64s-84 3 -122 3c-60 0 -158 -6 -159 -9l7 65c58 12 72 28 72 84l1 385c0 42 -7 52 -36 52c-12 0 -31 -1 -31 -1l-5 8l8 59s79 -1 119 -1c51 0 151 7 151 7l-5 -67
c-51 -8 -57 -18 -60 -71l-6 -143l128 -2c48 0 78 2 118 7v152c0 41 -7 52 -36 52c-11 0 -31 -1 -31 -1l-5 8l8 59s85 -1 128 -1c45 0 147 7 147 7l-6 -66c-49 -7 -60 -17 -62 -55z" />
    <glyph glyph-name="hbar" unicode="&#x127;" horiz-adv-x="547" 
d="M166 571c50 0 119 5 119 5l14 -14l-4 -46h-153c-62 0 -145 -1 -145 -1l-10 9l8 48s103 -1 171 -1zM20 -3l8 62c36 4 47 17 47 54v484c0 41 -10 55 -42 55h-23l-5 5l6 53c93 12 206 32 206 32l7 -19c-13 -16 -23 -144 -28 -336c29 27 103 87 133 87c97 0 151 -46 151 -130
c0 -39 -19 -186 -19 -235c0 -34 8 -47 31 -47c11 0 30 1 30 1l2 -4l-9 -62s-70 3 -109 3s-112 -8 -112 -8l6 63c32 8 45 23 46 56l4 171c0 59 -21 87 -64 87c-36 0 -76 -30 -91 -41c-1 -69 -2 -144 -2 -221c0 -33 8 -45 30 -45c9 0 25 2 25 2l2 -6l-10 -61s-68 3 -109 3
c-49 0 -111 -3 -111 -3z" />
    <glyph glyph-name="Itilde" unicode="&#x128;" horiz-adv-x="365" 
d="M260 528c-7 -121 -12 -289 -12 -395c0 -55 7 -68 38 -68c22 0 43 3 43 3l5 -7l-9 -64s-104 3 -149 3c-56 0 -140 -9 -140 -9l7 65c59 12 73 29 73 84l1 385c0 41 -7 52 -36 52c-14 0 -35 -1 -35 -1l-5 8l7 59c26 0 92 -1 140 -1c44 0 142 7 142 7l-6 -67
c-51 -7 -62 -17 -64 -54zM57 714h-11l-40 36v11l79 101l16 4c34 0 121 -33 150 -33c23 0 65 56 65 56h11l39 -37v-10l-78 -102l-17 -4c-33 0 -120 34 -149 34c-25 0 -65 -56 -65 -56z" />
    <glyph glyph-name="itilde" unicode="&#x129;" horiz-adv-x="293" 
d="M26 -11l8 64c40 7 57 26 57 62v214c0 42 -11 56 -43 56c-8 0 -23 -3 -23 -3l6 59c92 12 192 33 192 33l9 -17c-14 -29 -24 -173 -24 -351c0 -32 9 -44 31 -44c10 0 29 2 29 2l2 -4l-10 -63s-69 3 -111 3c-50 0 -123 -11 -123 -11zM18 539h-11l-40 36v11l79 101l16 4
c34 0 121 -33 150 -33c23 0 65 56 65 56h11l39 -37v-10l-78 -102l-17 -4c-33 0 -120 34 -149 34c-25 0 -65 -56 -65 -56z" />
    <glyph glyph-name="Imacron" unicode="&#x12a;" horiz-adv-x="365" 
d="M260 528c-7 -121 -12 -289 -12 -395c0 -55 7 -68 38 -68c22 0 43 3 43 3l5 -7l-9 -64s-104 3 -149 3c-56 0 -140 -9 -140 -9l7 65c59 12 73 29 73 84l1 385c0 41 -7 52 -36 52c-14 0 -35 -1 -35 -1l-5 8l7 59c26 0 92 -1 140 -1c44 0 142 7 142 7l-6 -67
c-51 -7 -62 -17 -64 -54zM331 800l8 -14l-12 -77l-141 -1c-59 0 -139 -1 -139 -1l-11 12l14 76s95 -1 154 -1c50 0 127 6 127 6z" />
    <glyph glyph-name="imacron" unicode="&#x12b;" horiz-adv-x="293" 
d="M26 -11l8 64c40 7 57 26 57 62v214c0 42 -11 56 -43 56c-8 0 -23 -3 -23 -3l6 59c92 12 192 33 192 33l9 -17c-14 -29 -24 -173 -24 -351c0 -32 9 -44 31 -44c10 0 29 2 29 2l2 -4l-10 -63s-69 3 -111 3c-50 0 -123 -11 -123 -11zM288 672l8 -14l-12 -76l-133 -1
c-56 0 -132 -1 -132 -1l-11 11l14 76s90 -1 146 -1c47 0 120 6 120 6z" />
    <glyph glyph-name="Ibreve" unicode="&#x12c;" horiz-adv-x="365" 
d="M260 528c-7 -121 -12 -289 -12 -395c0 -55 7 -68 38 -68c22 0 43 3 43 3l5 -7l-9 -64s-104 3 -149 3c-56 0 -140 -9 -140 -9l7 65c59 12 73 29 73 84l1 385c0 41 -7 52 -36 52c-14 0 -35 -1 -35 -1l-5 8l7 59c26 0 92 -1 140 -1c44 0 142 7 142 7l-6 -67
c-51 -7 -62 -17 -64 -54zM188 812c45 0 85 22 103 68l17 -4l28 -34c-18 -63 -63 -125 -148 -125s-130 62 -148 125l28 34l17 4c18 -46 58 -68 103 -68z" />
    <glyph glyph-name="ibreve" unicode="&#x12d;" horiz-adv-x="293" 
d="M26 -11l8 64c40 7 57 26 57 62v214c0 42 -11 56 -43 56c-8 0 -23 -3 -23 -3l6 59c92 12 192 33 192 33l9 -17c-14 -29 -24 -173 -24 -351c0 -32 9 -44 31 -44c10 0 29 2 29 2l2 -4l-10 -63s-69 3 -111 3c-50 0 -123 -11 -123 -11zM149 642c45 0 85 22 103 68l17 -4
l28 -34c-18 -63 -63 -125 -148 -125s-130 62 -148 125l28 34l17 4c18 -46 58 -68 103 -68z" />
    <glyph glyph-name="Iogonek" unicode="&#x12e;" horiz-adv-x="365" 
d="M260 528c-7 -121 -12 -289 -12 -395c0 -55 7 -68 38 -68c22 0 43 3 43 3l5 -7l-9 -64s-104 3 -149 3c-56 0 -140 -9 -140 -9l7 65c59 12 73 29 73 84l1 385c0 41 -7 52 -36 52c-14 0 -35 -1 -35 -1l-5 8l7 59c26 0 92 -1 140 -1c44 0 142 7 142 7l-6 -67
c-51 -7 -62 -17 -64 -54zM327 -146l18 -29s-52 -49 -102 -66c-72 0 -119 34 -119 91c0 54 48 108 133 192h54c-79 -91 -106 -125 -106 -164c0 -28 20 -48 50 -48c35 0 72 24 72 24z" />
    <glyph glyph-name="iogonek" unicode="&#x12f;" horiz-adv-x="293" 
d="M264 -142l18 -29s-52 -49 -102 -66c-72 0 -119 34 -119 91c0 54 48 108 133 192h54c-79 -91 -106 -125 -106 -164c0 -28 20 -48 50 -48c35 0 72 24 72 24zM148 574c-44 0 -70 27 -70 72c0 48 32 80 79 80c43 0 71 -27 71 -72c0 -48 -33 -80 -80 -80zM26 -11l8 64
c40 7 57 26 57 62v214c0 42 -11 56 -43 56c-8 0 -23 -3 -23 -3l6 59c92 12 192 33 192 33l9 -17c-14 -29 -24 -173 -24 -351c0 -32 9 -44 31 -44c10 0 29 2 29 2l2 -4l-10 -63s-69 3 -111 3c-50 0 -123 -11 -123 -11z" />
    <glyph glyph-name="Idotaccent" unicode="&#x130;" horiz-adv-x="365" 
d="M260 528c-7 -121 -12 -289 -12 -395c0 -55 7 -68 38 -68c22 0 43 3 43 3l5 -7l-9 -64s-104 3 -149 3c-56 0 -140 -9 -140 -9l7 65c59 12 73 29 73 84l1 385c0 41 -7 52 -36 52c-14 0 -35 -1 -35 -1l-5 8l7 59c26 0 92 -1 140 -1c44 0 142 7 142 7l-6 -67
c-51 -7 -62 -17 -64 -54zM182 702c-46 0 -70 30 -70 72c0 47 32 80 80 80c44 0 70 -29 70 -72c0 -47 -32 -80 -80 -80z" />
    <glyph glyph-name="dotlessi" unicode="&#x131;" horiz-adv-x="293" 
d="M26 -11l8 64c40 7 57 26 57 62v214c0 42 -11 56 -43 56c-8 0 -23 -3 -23 -3l6 59c92 12 192 33 192 33l9 -17c-14 -29 -24 -173 -24 -351c0 -32 9 -44 31 -44c10 0 29 2 29 2l2 -4l-10 -63s-69 3 -111 3c-50 0 -123 -11 -123 -11z" />
    <glyph glyph-name="IJ" unicode="&#x132;" horiz-adv-x="698" 
d="M260 528c-7 -121 -12 -289 -12 -395c0 -55 7 -68 38 -68c22 0 43 3 43 3l5 -7l-9 -64s-104 3 -149 3c-56 0 -140 -9 -140 -9l7 65c59 12 73 29 73 84l1 385c0 41 -7 52 -36 52c-14 0 -35 -1 -35 -1l-5 8l7 59c26 0 92 -1 140 -1c44 0 142 7 142 7l-6 -67
c-51 -7 -62 -17 -64 -54zM472 123v402c0 42 -6 52 -35 52c-13 0 -41 -3 -41 -3l-6 8l8 60h124c69 1 151 8 151 8l-6 -68c-43 -8 -49 -15 -52 -54c-5 -91 -12 -318 -12 -427c-1 -132 -61 -210 -200 -255l-28 41l2 11c75 55 95 100 95 225z" />
    <glyph glyph-name="ij" unicode="&#x133;" horiz-adv-x="568" 
d="M148 574c-44 0 -70 27 -70 72c0 48 32 80 79 80c43 0 71 -27 71 -72c0 -48 -33 -80 -80 -80zM26 -11l8 64c40 7 57 26 57 62v214c0 42 -11 56 -43 56c-8 0 -23 -3 -23 -3l6 59c92 12 192 33 192 33l9 -17c-14 -29 -24 -173 -24 -351c0 -32 9 -44 31 -44c10 0 29 2 29 2
l2 -4l-10 -63s-69 3 -111 3c-50 0 -123 -11 -123 -11zM332 -244l-32 30l2 12c57 56 73 109 73 238v293c0 43 -9 56 -36 56c-14 0 -30 -3 -30 -3l6 58c81 12 191 34 191 34l9 -17c-14 -30 -22 -191 -22 -471c0 -94 -61 -180 -161 -230zM434 574c-45 0 -71 27 -71 72
c0 48 32 80 80 80c43 0 70 -27 70 -72c0 -48 -32 -80 -79 -80z" />
    <glyph glyph-name="Jcircumflex" unicode="&#x134;" horiz-adv-x="333" 
d="M107 123v402c0 42 -6 52 -35 52c-13 0 -41 -3 -41 -3l-6 8l8 60h124c69 1 151 8 151 8l-6 -68c-43 -8 -49 -15 -52 -54c-5 -91 -12 -318 -12 -427c-1 -132 -61 -210 -200 -255l-28 41l2 11c75 55 95 100 95 225zM41 709l-29 41c71 68 152 154 152 154h20s80 -86 151 -154
l-29 -41l-15 -4c-43 34 -91 65 -117 83c-28 -18 -74 -48 -117 -83z" />
    <glyph glyph-name="jcircumflex" unicode="&#x135;" horiz-adv-x="274" 
d="M39 -244l-32 30l2 12c57 56 73 109 73 238v293c0 43 -9 56 -36 56c-14 0 -30 -3 -30 -3l6 58c81 12 191 34 191 34l9 -17c-14 -30 -22 -191 -22 -471c0 -94 -61 -180 -161 -230zM5 535l-29 41c71 68 152 154 152 154h20s80 -86 151 -154l-29 -41l-15 -4
c-43 34 -91 65 -117 83c-28 -18 -74 -48 -117 -83z" />
    <glyph glyph-name="Kcommaaccent" unicode="&#x136;" horiz-adv-x="659" 
d="M116 140l1 385c0 42 -7 52 -36 52c-12 0 -31 -1 -31 -1l-5 8l8 60s106 -2 135 -2c43 0 138 7 138 7l-6 -67c-49 -10 -62 -21 -63 -58l-9 -391c-2 -55 7 -68 38 -68c20 0 39 3 39 3l4 -7l-9 -64s-101 3 -144 3c-56 0 -139 -3 -139 -3l9 64c58 9 70 23 70 79zM267 316l3 22
l147 160c17 17 26 35 26 49c0 20 -15 29 -53 31l-3 7l8 62s84 -5 125 -5c38 0 117 4 117 4l7 -11l-8 -57c-42 -17 -74 -46 -131 -114l-103 -116l132 -202c39 -60 69 -84 114 -87l6 -9l-8 -53s-99 -12 -117 -12c-42 0 -75 26 -111 84zM273 -100l3 14c24 19 54 35 79 35
c40 0 69 -33 69 -86c0 -71 -69 -138 -147 -181l-37 30v17c39 27 68 68 68 102c0 27 -15 53 -35 69z" />
    <glyph glyph-name="kcommaaccent" unicode="&#x137;" horiz-adv-x="519" 
d="M17 -6l7 63c44 6 48 25 48 77v463c0 34 -8 50 -28 54c-11 2 -29 0 -39 0c-1 4 -1 9 -2 13l5 46c93 12 206 32 206 32l7 -19c-18 -22 -31 -283 -31 -617c0 -33 8 -45 30 -45c8 0 26 2 26 2l2 -6l-11 -61s-69 4 -109 4c-49 0 -111 -6 -111 -6zM305 68l-100 168l3 22l96 96
c16 16 21 24 21 34c0 15 -14 20 -52 20l-3 5l9 51s70 -2 120 -2c46 0 108 4 108 4l3 -5l-9 -57c-63 -24 -123 -90 -177 -143l84 -130c33 -48 63 -71 102 -74l4 -8l-7 -50s-49 -11 -73 -12c-18 -1 -35 1 -44 3c-35 8 -56 28 -85 78zM195 -100l3 14c24 19 54 35 79 35
c40 0 69 -33 69 -86c0 -71 -69 -138 -147 -181l-37 30v17c39 27 68 68 68 102c0 27 -15 53 -35 69z" />
    <glyph glyph-name="kgreenlandic" unicode="&#x138;" horiz-adv-x="537" 
d="M30 -6l8 63c44 6 52 25 52 77v204c0 41 -9 54 -61 54l-5 6l6 54c84 7 183 22 183 22l9 -13c-6 -24 -14 -101 -14 -355c0 -33 8 -45 30 -45c8 0 26 2 26 2l3 -6l-11 -61s-70 4 -109 4c-50 0 -117 -6 -117 -6zM324 68l-100 168l2 22l97 96c15 16 20 24 20 34
c0 15 -14 20 -52 20l-3 5l9 51s70 -2 120 -2c47 0 108 4 108 4l3 -5l-9 -57c-63 -24 -123 -90 -177 -143l85 -130c32 -48 63 -71 101 -74l5 -8l-8 -50s-48 -11 -73 -12c-18 -1 -35 1 -44 3c-34 8 -56 28 -84 78z" />
    <glyph glyph-name="Lacute" unicode="&#x139;" horiz-adv-x="531" 
d="M213 0c-89 0 -171 -10 -171 -10l7 68c51 8 67 28 67 86v381c0 42 -7 52 -36 52c-11 0 -30 -1 -30 -1l-5 8l7 59c26 0 90 -1 136 -1c45 0 155 7 155 7l-8 -71c-68 -8 -73 -21 -76 -73c-8 -108 -11 -245 -11 -366c0 -50 10 -60 62 -60c94 0 114 23 128 152l85 9l7 -10
s-17 -109 -27 -227l-9 -11s-163 8 -281 8zM364 775l-6 -13s-115 -29 -229 -65l-13 9l-13 47c108 47 223 104 223 104l12 -5z" />
    <glyph glyph-name="lacute" unicode="&#x13a;" horiz-adv-x="265" 
d="M15 -9l8 63c46 10 49 30 49 80v463c0 34 -8 50 -28 54c-11 2 -29 0 -39 0c-1 4 -1 9 -2 13l5 46c93 12 206 32 206 32l7 -19c-18 -22 -31 -284 -31 -617c0 -33 8 -45 29 -45c9 0 34 2 34 2l2 -6l-10 -60s-75 3 -115 3c-50 0 -115 -9 -115 -9zM288 905l-1 -14
s-96 -60 -189 -129l-15 4l-30 39c82 80 167 171 167 171l14 -1z" />
    <glyph glyph-name="Lcommaaccent" unicode="&#x13b;" horiz-adv-x="531" 
d="M213 0c-89 0 -171 -10 -171 -10l7 68c51 8 67 28 67 86v381c0 42 -7 52 -36 52c-11 0 -30 -1 -30 -1l-5 8l7 59c26 0 90 -1 136 -1c45 0 155 7 155 7l-8 -71c-68 -8 -73 -21 -76 -73c-8 -108 -11 -245 -11 -366c0 -50 10 -60 62 -60c94 0 114 23 128 152l85 9l7 -10
s-17 -109 -27 -227l-9 -11s-163 8 -281 8zM217 -100l3 14c24 19 54 35 79 35c40 0 69 -33 69 -86c0 -71 -69 -138 -147 -181l-37 30v17c39 27 68 68 68 102c0 27 -15 53 -35 69z" />
    <glyph glyph-name="lcommaaccent" unicode="&#x13c;" horiz-adv-x="265" 
d="M15 -9l8 63c46 10 49 30 49 80v463c0 34 -8 50 -28 54c-11 2 -29 0 -39 0c-1 4 -1 9 -2 13l5 46c93 12 206 32 206 32l7 -19c-18 -22 -31 -284 -31 -617c0 -33 8 -45 29 -45c9 0 34 2 34 2l2 -6l-10 -60s-75 3 -115 3c-50 0 -115 -9 -115 -9zM55 -100l3 14
c24 19 54 35 79 35c40 0 69 -33 69 -86c0 -71 -69 -138 -147 -181l-37 30v17c39 27 68 68 68 102c0 27 -15 53 -35 69z" />
    <glyph glyph-name="Lcaron" unicode="&#x13d;" horiz-adv-x="537" 
d="M521 640l8 -10s-15 -110 -39 -217l-48 -19l-14 4c3 115 -8 228 -8 228zM213 0c-89 0 -171 -10 -171 -10l7 68c51 8 67 28 67 86v381c0 42 -7 52 -36 52c-11 0 -30 -1 -30 -1l-5 8l7 59c26 0 90 -1 136 -1c45 0 155 7 155 7l-8 -71c-68 -8 -73 -21 -76 -73
c-8 -108 -11 -245 -11 -366c0 -50 10 -60 62 -60c94 0 114 23 128 152l85 9l7 -10s-17 -109 -27 -227l-9 -11s-163 8 -281 8z" />
    <glyph glyph-name="lcaron" unicode="&#x13e;" horiz-adv-x="364" 
d="M356 692l8 -10s-15 -109 -39 -216l-48 -19l-15 4c3 114 -7 227 -7 227zM15 -9l8 63c46 10 49 30 49 80v463c0 34 -8 50 -28 54c-11 2 -29 0 -39 0c-1 4 -1 9 -2 13l5 46c93 12 206 32 206 32l7 -19c-18 -22 -31 -284 -31 -617c0 -33 8 -45 29 -45c9 0 34 2 34 2l2 -6
l-10 -60s-75 3 -115 3c-50 0 -115 -9 -115 -9z" />
    <glyph glyph-name="Ldot" unicode="&#x13f;" horiz-adv-x="554" 
d="M213 0c-89 0 -171 -10 -171 -10l7 68c51 8 67 28 67 86v381c0 42 -7 52 -36 52c-11 0 -30 -1 -30 -1l-5 8l7 59c26 0 90 -1 136 -1c45 0 155 7 155 7l-8 -71c-68 -8 -73 -21 -76 -73c-8 -108 -11 -245 -11 -366c0 -50 10 -60 62 -60c94 0 114 23 128 152l85 9l7 -10
s-17 -109 -27 -227l-9 -11s-163 8 -281 8zM453 380c-50 0 -75 31 -75 76c0 48 31 82 81 82c48 0 75 -31 75 -76c0 -48 -31 -82 -81 -82z" />
    <glyph glyph-name="ldot" unicode="&#x140;" horiz-adv-x="394" 
d="M15 -9l8 63c46 10 49 30 49 80v463c0 34 -8 50 -28 54c-11 2 -29 0 -39 0c-1 4 -1 9 -2 13l5 46c93 12 206 32 206 32l7 -19c-18 -22 -31 -284 -31 -617c0 -33 8 -45 29 -45c9 0 34 2 34 2l2 -6l-10 -60s-75 3 -115 3c-50 0 -115 -9 -115 -9zM311 212
c-50 0 -75 31 -75 76c0 48 31 82 81 82c48 0 75 -31 75 -76c0 -48 -31 -82 -81 -82z" />
    <glyph glyph-name="Lslash" unicode="&#x141;" horiz-adv-x="566" 
d="M203 289v14l-137 -68l-10 2l-17 62l164 82v-14l195 97l8 -4l17 -61zM225 0c-89 0 -171 -10 -171 -10l7 68c51 8 67 28 67 86v381c0 42 -7 52 -36 52c-11 0 -30 -1 -30 -1l-5 8l7 59c26 0 90 -1 136 -1c45 0 155 7 155 7l-8 -71c-68 -8 -73 -21 -76 -73
c-8 -108 -11 -245 -11 -366c0 -50 10 -60 62 -60c94 0 114 23 128 152l85 9l7 -10s-17 -109 -27 -227l-9 -11s-163 8 -281 8z" />
    <glyph glyph-name="lslash" unicode="&#x142;" horiz-adv-x="296" 
d="M157 332v12l-131 -68l-9 2l-18 62l158 83v-13l112 59l8 -4l18 -61zM29 -9l8 63c46 10 49 30 49 80v463c0 34 -8 50 -28 54c-11 2 -29 0 -39 0c-1 4 -1 9 -2 13l5 46c93 12 206 32 206 32l7 -19c-18 -22 -31 -284 -31 -617c0 -33 8 -45 29 -45c9 0 34 2 34 2l2 -6l-10 -60
s-75 3 -115 3c-50 0 -115 -9 -115 -9z" />
    <glyph glyph-name="Nacute" unicode="&#x143;" horiz-adv-x="729" 
d="M520 235h10l-2 299c-1 31 -10 43 -33 43c-14 0 -30 -1 -34 -1l-4 8l7 62s85 -4 129 -4c49 0 118 5 118 5l-5 -67c-44 -6 -62 -23 -63 -63l-13 -531l-106 -13c-155 248 -291 444 -291 444h-10l-1 -308c0 -33 9 -45 34 -45c11 0 43 3 43 3l6 -7l-10 -64s-86 4 -129 4
c-54 0 -123 -8 -123 -8l8 67c40 5 58 23 59 63l13 395c0 43 -16 55 -81 62l-8 10l7 58s67 -5 116 -5c43 0 96 4 96 4c130 -212 267 -411 267 -411zM552 775l-6 -13s-115 -29 -229 -65l-13 9l-13 47c108 47 223 104 223 104l12 -5z" />
    <glyph glyph-name="nacute" unicode="&#x144;" horiz-adv-x="570" 
d="M312 -8l6 63c32 8 45 23 46 56l3 171c0 59 -21 87 -64 87c-33 0 -69 -25 -86 -37c-4 -73 -10 -196 -10 -224c0 -34 8 -45 30 -45c8 0 26 2 26 2l3 -5l-11 -63s-66 3 -106 3c-52 0 -119 -6 -119 -6l8 64c38 4 52 18 52 55v210c0 46 -11 60 -49 60h-13l-4 5l6 53
c91 14 186 33 186 33l8 -10s-9 -35 -11 -69l4 -4c32 28 102 83 129 83c95 0 151 -48 151 -130c0 -39 -18 -186 -18 -235c0 -34 8 -47 31 -47c11 0 30 1 30 1l2 -4l-9 -62s-71 3 -109 3c-39 0 -112 -8 -112 -8zM451 666l-1 -14s-96 -60 -189 -129l-15 4l-30 39
c82 80 167 171 167 171l14 -1z" />
    <glyph glyph-name="Ncommaaccent" unicode="&#x145;" horiz-adv-x="729" 
d="M520 235h10l-2 299c-1 31 -10 43 -33 43c-14 0 -30 -1 -34 -1l-4 8l7 62s85 -4 129 -4c49 0 118 5 118 5l-5 -67c-44 -6 -62 -23 -63 -63l-13 -531l-106 -13c-155 248 -291 444 -291 444h-10l-1 -308c0 -33 9 -45 34 -45c11 0 43 3 43 3l6 -7l-10 -64s-86 4 -129 4
c-54 0 -123 -8 -123 -8l8 67c40 5 58 23 59 63l13 395c0 43 -16 55 -81 62l-8 10l7 58s67 -5 116 -5c43 0 96 4 96 4c130 -212 267 -411 267 -411zM297 -100l3 14c24 19 54 35 79 35c40 0 69 -33 69 -86c0 -71 -69 -138 -147 -181l-37 30v17c39 27 68 68 68 102
c0 27 -15 53 -35 69z" />
    <glyph glyph-name="ncommaaccent" unicode="&#x146;" horiz-adv-x="570" 
d="M312 -8l6 63c32 8 45 23 46 56l3 171c0 59 -21 87 -64 87c-33 0 -69 -25 -86 -37c-4 -73 -10 -196 -10 -224c0 -34 8 -45 30 -45c8 0 26 2 26 2l3 -5l-11 -63s-66 3 -106 3c-52 0 -119 -6 -119 -6l8 64c38 4 52 18 52 55v210c0 46 -11 60 -49 60h-13l-4 5l6 53
c91 14 186 33 186 33l8 -10s-9 -35 -11 -69l4 -4c32 28 102 83 129 83c95 0 151 -48 151 -130c0 -39 -18 -186 -18 -235c0 -34 8 -47 31 -47c11 0 30 1 30 1l2 -4l-9 -62s-71 3 -109 3c-39 0 -112 -8 -112 -8zM208 -100l3 14c24 19 54 35 79 35c40 0 69 -33 69 -86
c0 -71 -69 -138 -147 -181l-37 30v17c39 27 68 68 68 102c0 27 -15 53 -35 69z" />
    <glyph glyph-name="Ncaron" unicode="&#x147;" horiz-adv-x="729" 
d="M520 235h10l-2 299c-1 31 -10 43 -33 43c-14 0 -30 -1 -34 -1l-4 8l7 62s85 -4 129 -4c49 0 118 5 118 5l-5 -67c-44 -6 -62 -23 -63 -63l-13 -531l-106 -13c-155 248 -291 444 -291 444h-10l-1 -308c0 -33 9 -45 34 -45c11 0 43 3 43 3l6 -7l-10 -64s-86 4 -129 4
c-54 0 -123 -8 -123 -8l8 67c40 5 58 23 59 63l13 395c0 43 -16 55 -81 62l-8 10l7 58s67 -5 116 -5c43 0 96 4 96 4c130 -212 267 -411 267 -411zM519 861l25 -41c-75 -54 -157 -124 -157 -124h-20s-83 70 -157 124l24 41l16 4c46 -23 99 -46 127 -58c29 12 79 35 126 58z
" />
    <glyph glyph-name="ncaron" unicode="&#x148;" horiz-adv-x="570" 
d="M312 -8l6 63c32 8 45 23 46 56l3 171c0 59 -21 87 -64 87c-33 0 -69 -25 -86 -37c-4 -73 -10 -196 -10 -224c0 -34 8 -45 30 -45c8 0 26 2 26 2l3 -5l-11 -63s-66 3 -106 3c-52 0 -119 -6 -119 -6l8 64c38 4 52 18 52 55v210c0 46 -11 60 -49 60h-13l-4 5l6 53
c91 14 186 33 186 33l8 -10s-9 -35 -11 -69l4 -4c32 28 102 83 129 83c95 0 151 -48 151 -130c0 -39 -18 -186 -18 -235c0 -34 8 -47 31 -47c11 0 30 1 30 1l2 -4l-9 -62s-71 3 -109 3c-39 0 -112 -8 -112 -8zM134 679l30 42l15 3c45 -35 93 -67 121 -85c27 18 75 50 119 85
l16 -3l30 -42c-74 -70 -156 -158 -156 -158h-20s-82 88 -155 158z" />
    <glyph glyph-name="Eng" unicode="&#x14a;" horiz-adv-x="727" 
d="M155 642c32 0 96 4 96 4c118 -196 272 -418 272 -418h9l-1 308c0 31 -10 43 -33 43c-13 0 -35 -1 -35 -1l-4 6l8 62s96 -4 128 -4c44 0 115 6 115 6l-5 -66c-46 -6 -63 -23 -64 -63l-10 -433c-4 -132 -60 -205 -197 -249l-27 40l3 11c57 34 85 67 98 116
c-150 237 -278 421 -278 421h-9l-2 -317c1 -34 9 -45 35 -45c11 0 43 2 43 2l5 -6l-9 -63s-83 4 -145 4c-40 0 -103 -8 -103 -8l8 65c42 5 58 23 60 76l12 386c0 41 -14 54 -82 62l-7 10l7 56s75 -5 112 -5z" />
    <glyph glyph-name="eng" unicode="&#x14b;" horiz-adv-x="548" 
d="M346 474c95 0 151 -48 151 -130l-16 -251c-11 -139 -61 -205 -198 -247l-28 41l2 11c87 54 107 95 109 213l1 171c0 59 -21 87 -64 87c-31 0 -67 -23 -86 -37c-5 -105 -10 -199 -10 -224c0 -34 8 -45 30 -45c8 0 26 2 26 2l3 -5l-11 -63s-66 3 -106 3
c-52 0 -119 -6 -119 -6l8 64c38 4 52 18 52 55v210c0 46 -11 60 -49 60h-13l-4 5l6 53c91 14 186 33 186 33l8 -10s-9 -35 -11 -69l4 -4c38 36 104 83 129 83z" />
    <glyph glyph-name="Omacron" unicode="&#x14c;" horiz-adv-x="674" 
d="M340 75c94 0 150 77 150 213c0 177 -59 269 -162 269c-91 0 -145 -76 -145 -213c0 -176 58 -269 157 -269zM315 -12c-178 0 -287 121 -287 316c0 211 130 350 328 350c182 0 290 -118 290 -313c0 -212 -132 -353 -331 -353zM479 800l8 -14l-12 -77l-141 -1
c-59 0 -139 -1 -139 -1l-11 12l14 76s95 -1 154 -1c50 0 127 6 127 6z" />
    <glyph glyph-name="omacron" unicode="&#x14d;" horiz-adv-x="503" 
d="M237 -12c-128 0 -212 91 -212 229c0 153 98 257 242 257c130 0 211 -88 211 -229c0 -153 -97 -257 -241 -257zM257 65c56 0 86 44 86 134c0 127 -36 189 -99 189c-56 0 -86 -45 -86 -134c0 -127 36 -189 99 -189zM402 672l8 -14l-12 -76l-141 -1c-59 0 -139 -1 -139 -1
l-11 11l14 76s95 -1 154 -1c50 0 127 6 127 6z" />
    <glyph glyph-name="Obreve" unicode="&#x14e;" horiz-adv-x="674" 
d="M340 75c94 0 150 77 150 213c0 177 -59 269 -162 269c-91 0 -145 -76 -145 -213c0 -176 58 -269 157 -269zM315 -12c-178 0 -287 121 -287 316c0 211 130 350 328 350c182 0 290 -118 290 -313c0 -212 -132 -353 -331 -353zM325 812c45 0 85 22 103 68l17 -4l28 -34
c-18 -63 -63 -125 -148 -125s-130 62 -148 125l28 34l17 4c18 -46 58 -68 103 -68z" />
    <glyph glyph-name="obreve" unicode="&#x14f;" horiz-adv-x="503" 
d="M237 -12c-128 0 -212 91 -212 229c0 153 98 257 242 257c130 0 211 -88 211 -229c0 -153 -97 -257 -241 -257zM257 65c56 0 86 44 86 134c0 127 -36 189 -99 189c-56 0 -86 -45 -86 -134c0 -127 36 -189 99 -189zM264 642c45 0 85 22 103 68l17 -4l28 -34
c-18 -63 -63 -125 -148 -125s-130 62 -148 125l28 34l17 4c18 -46 58 -68 103 -68z" />
    <glyph glyph-name="Ohungarumlaut" unicode="&#x150;" horiz-adv-x="674" 
d="M340 75c94 0 150 77 150 213c0 177 -59 269 -162 269c-91 0 -145 -76 -145 -213c0 -176 58 -269 157 -269zM315 -12c-178 0 -287 121 -287 316c0 211 130 350 328 350c182 0 290 -118 290 -313c0 -212 -132 -353 -331 -353zM402 794l-1 -12s-84 -46 -168 -98l-14 5
l-23 34c74 64 151 134 151 134l12 -1zM570 790l-1 -12s-85 -46 -169 -98l-12 4l-24 34c74 64 151 134 151 134l12 -2z" />
    <glyph glyph-name="ohungarumlaut" unicode="&#x151;" horiz-adv-x="503" 
d="M237 -12c-128 0 -212 91 -212 229c0 153 98 257 242 257c130 0 211 -88 211 -229c0 -153 -97 -257 -241 -257zM257 65c56 0 86 44 86 134c0 127 -36 189 -99 189c-56 0 -86 -45 -86 -134c0 -127 36 -189 99 -189zM320 677v-11s-74 -64 -148 -135l-14 1l-31 28
c60 78 124 166 124 166l12 1zM465 677v-11s-74 -64 -148 -135l-14 1l-32 28c61 78 125 166 125 166l11 1z" />
    <glyph glyph-name="OE" unicode="&#x152;" horiz-adv-x="940" 
d="M589 139c0 -53 7 -60 64 -60c124 0 143 14 156 114l85 7l7 -10s-18 -90 -27 -186l-10 -11s-191 9 -314 9c-90 0 -172 -13 -236 -13c-175 0 -285 120 -285 315c0 211 126 345 322 345c66 0 137 -13 223 -13c135 0 248 9 312 18l8 -11s-18 -89 -23 -182l-91 -6s2 26 2 40
c0 55 -15 63 -128 63c-47 0 -51 -3 -52 -33l-7 -155l93 -1c33 0 116 8 116 8l8 -9l-14 -86s-80 3 -130 3l-77 -6zM337 73c89 0 126 36 127 129l1 252c0 83 -35 107 -134 107c-93 0 -149 -77 -149 -216c0 -179 56 -272 155 -272z" />
    <glyph glyph-name="oe" unicode="&#x153;" horiz-adv-x="771" 
d="M588 86c63 0 120 30 120 30l8 -3l16 -51s-99 -74 -172 -74c-76 0 -141 42 -164 76c-21 -28 -88 -76 -162 -76c-126 0 -209 91 -209 229c0 153 97 257 239 257c72 0 132 -47 149 -76c25 32 93 76 158 76c119 0 169 -67 169 -166c0 -35 -9 -63 -9 -63l-12 -11h-256v-10
c6 -88 51 -138 125 -138zM254 65c55 0 83 44 83 134c0 127 -35 189 -96 189c-54 0 -83 -45 -83 -134c0 -127 35 -189 96 -189zM553 394c-52 0 -84 -36 -90 -105l134 8c15 1 19 6 19 23c0 49 -22 74 -63 74z" />
    <glyph glyph-name="Racute" unicode="&#x154;" horiz-adv-x="643" 
d="M319 251h-70l-1 -110c0 -67 7 -75 71 -77l4 -6l-10 -62c0 1 -89 3 -134 3c-61 1 -143 -5 -143 -5l9 67c56 8 71 25 71 82l1 385c0 38 -7 49 -32 49c-14 0 -35 -2 -35 -2l-5 8l8 61s87 -2 126 -2c41 0 153 5 153 5c153 0 237 -61 237 -172c0 -79 -48 -146 -134 -191
l87 -140c37 -60 69 -87 111 -87l7 -9l-7 -53l-119 -11c-44 0 -80 31 -109 93zM252 341l90 -10c21 9 85 36 85 125c0 73 -48 108 -149 108c-14 0 -17 -4 -18 -22c-5 -80 -7 -140 -8 -201zM497 775l-6 -13s-115 -29 -229 -65l-13 9l-13 47c108 47 223 104 223 104l12 -5z" />
    <glyph glyph-name="racute" unicode="&#x155;" horiz-adv-x="413" 
d="M43 58c40 3 51 17 51 68v198c0 46 -10 59 -43 59c-8 0 -19 -1 -19 -1l-5 7l6 52c87 13 183 33 183 33l10 -9s-10 -50 -11 -93l6 -4c42 62 95 99 141 99c19 0 34 -4 34 -4l4 -8s-16 -101 -20 -183l-65 -4c0 64 -6 79 -29 79c-21 0 -46 -16 -66 -43c0 0 -9 -174 -9 -192
c0 -34 9 -46 38 -46c19 0 51 4 51 4l3 -6l-11 -68s-83 4 -131 4c-61 0 -126 -4 -126 -4zM305 666l-1 -14s-96 -60 -189 -129l-15 4l-30 39c82 80 167 171 167 171l14 -1z" />
    <glyph glyph-name="Rcommaaccent" unicode="&#x156;" horiz-adv-x="643" 
d="M319 251h-70l-1 -110c0 -67 7 -75 71 -77l4 -6l-10 -62c0 1 -89 3 -134 3c-61 1 -143 -5 -143 -5l9 67c56 8 71 25 71 82l1 385c0 38 -7 49 -32 49c-14 0 -35 -2 -35 -2l-5 8l8 61s87 -2 126 -2c41 0 153 5 153 5c153 0 237 -61 237 -172c0 -79 -48 -146 -134 -191
l87 -140c37 -60 69 -87 111 -87l7 -9l-7 -53l-119 -11c-44 0 -80 31 -109 93zM252 341l90 -10c21 9 85 36 85 125c0 73 -48 108 -149 108c-14 0 -17 -4 -18 -22c-5 -80 -7 -140 -8 -201zM257 -100l3 14c24 19 54 35 79 35c40 0 69 -33 69 -86c0 -71 -69 -138 -147 -181
l-37 30v17c39 27 68 68 68 102c0 27 -15 53 -35 69z" />
    <glyph glyph-name="rcommaaccent" unicode="&#x157;" horiz-adv-x="413" 
d="M43 58c40 3 51 17 51 68v198c0 46 -10 59 -43 59c-8 0 -19 -1 -19 -1l-5 7l6 52c87 13 183 33 183 33l10 -9s-10 -50 -11 -93l6 -4c42 62 95 99 141 99c19 0 34 -4 34 -4l4 -8s-16 -101 -20 -183l-65 -4c0 64 -6 79 -29 79c-21 0 -46 -16 -66 -43c0 0 -9 -174 -9 -192
c0 -34 9 -46 38 -46c19 0 51 4 51 4l3 -6l-11 -68s-83 4 -131 4c-61 0 -126 -4 -126 -4zM84 -100l3 14c24 19 54 35 79 35c40 0 69 -33 69 -86c0 -71 -69 -138 -147 -181l-37 30v17c39 27 68 68 68 102c0 27 -15 53 -35 69z" />
    <glyph glyph-name="Rcaron" unicode="&#x158;" horiz-adv-x="643" 
d="M319 251h-70l-1 -110c0 -67 7 -75 71 -77l4 -6l-10 -62c0 1 -89 3 -134 3c-61 1 -143 -5 -143 -5l9 67c56 8 71 25 71 82l1 385c0 38 -7 49 -32 49c-14 0 -35 -2 -35 -2l-5 8l8 61s87 -2 126 -2c41 0 153 5 153 5c153 0 237 -61 237 -172c0 -79 -48 -146 -134 -191
l87 -140c37 -60 69 -87 111 -87l7 -9l-7 -53l-119 -11c-44 0 -80 31 -109 93zM252 341l90 -10c21 9 85 36 85 125c0 73 -48 108 -149 108c-14 0 -17 -4 -18 -22c-5 -80 -7 -140 -8 -201zM465 861l25 -41c-75 -54 -157 -124 -157 -124h-20s-83 70 -157 124l24 41l16 4
c46 -23 99 -46 127 -58c29 12 79 35 126 58z" />
    <glyph glyph-name="rcaron" unicode="&#x159;" horiz-adv-x="413" 
d="M43 58c40 3 51 17 51 68v198c0 46 -10 59 -43 59c-8 0 -19 -1 -19 -1l-5 7l6 52c87 13 183 33 183 33l10 -9s-10 -50 -11 -93l6 -4c42 62 95 99 141 99c19 0 34 -4 34 -4l4 -8s-16 -101 -20 -183l-65 -4c0 64 -6 79 -29 79c-21 0 -46 -16 -66 -43c0 0 -9 -174 -9 -192
c0 -34 9 -46 38 -46c19 0 51 4 51 4l3 -6l-11 -68s-83 4 -131 4c-61 0 -126 -4 -126 -4zM-12 679l30 42l15 3c45 -35 93 -67 121 -85c27 18 75 50 119 85l16 -3l30 -42c-74 -70 -156 -158 -156 -158h-20s-82 88 -155 158z" />
    <glyph glyph-name="Sacute" unicode="&#x15a;" horiz-adv-x="540" 
d="M252 -12c-105 0 -176 38 -176 38l-8 14s15 88 16 170l84 7c0 -110 26 -140 110 -140c63 0 104 30 104 77c0 55 -73 83 -148 120c-78 38 -158 85 -158 180c0 117 111 200 267 200c100 0 172 -27 172 -27l7 -13s-17 -81 -24 -172l-76 -6l-9 7s1 16 1 35c0 58 -27 81 -97 81
c-55 0 -95 -29 -95 -71c0 -51 62 -80 131 -112c84 -40 178 -86 178 -186c0 -122 -110 -202 -279 -202zM448 775l-6 -13s-115 -29 -229 -65l-13 9l-13 47c108 47 223 104 223 104l12 -5z" />
    <glyph glyph-name="sacute" unicode="&#x15b;" horiz-adv-x="409" 
d="M169 -12c-81 0 -134 27 -134 27l-6 11c4 27 11 93 13 131l57 6c0 -67 30 -101 88 -101c37 0 66 19 66 44c0 26 -19 42 -99 80c-80 37 -115 77 -115 134c0 91 86 154 208 154c65 0 112 -18 112 -18l6 -11s-13 -63 -19 -130l-58 -3s2 12 2 17c-1 47 -23 68 -70 68
c-34 0 -60 -18 -60 -43s19 -45 67 -68c117 -55 148 -88 148 -148c0 -84 -90 -150 -206 -150zM368 666l-1 -14s-96 -60 -189 -129l-15 4l-30 39c82 80 167 171 167 171l14 -1z" />
    <glyph glyph-name="Scircumflex" unicode="&#x15c;" horiz-adv-x="540" 
d="M160 709l-29 41c71 68 152 154 152 154h20s80 -86 151 -154l-29 -41l-15 -4c-43 34 -91 65 -117 83c-28 -18 -74 -48 -117 -83zM220 -12c-105 0 -176 38 -176 38l-8 14s15 88 16 170l84 7c0 -110 26 -140 110 -140c63 0 104 30 104 77c0 55 -73 83 -148 120
c-78 38 -158 85 -158 180c0 117 111 200 267 200c100 0 172 -27 172 -27l7 -13s-17 -81 -24 -172l-76 -6l-9 7s1 16 1 35c0 58 -27 81 -97 81c-55 0 -95 -29 -95 -71c0 -51 62 -80 131 -112c84 -40 178 -86 178 -186c0 -122 -110 -202 -279 -202z" />
    <glyph glyph-name="scircumflex" unicode="&#x15d;" horiz-adv-x="409" 
d="M169 -12c-81 0 -134 27 -134 27l-6 11c4 27 11 93 13 131l57 6c0 -67 30 -101 88 -101c37 0 66 19 66 44c0 26 -19 42 -99 80c-80 37 -115 77 -115 134c0 91 86 154 208 154c65 0 112 -18 112 -18l6 -11s-13 -63 -19 -130l-58 -3s2 12 2 17c-1 47 -23 68 -70 68
c-34 0 -60 -18 -60 -43s19 -45 67 -68c117 -55 148 -88 148 -148c0 -84 -90 -150 -206 -150zM77 535l-29 41c71 68 152 154 152 154h20s80 -86 151 -154l-29 -41l-15 -4c-43 34 -91 65 -117 83c-28 -18 -74 -48 -117 -83z" />
    <glyph glyph-name="Scedilla" unicode="&#x15e;" horiz-adv-x="540" 
d="M252 -12c-105 0 -176 38 -176 38l-8 14s15 88 16 170l84 7c0 -110 26 -140 110 -140c63 0 104 30 104 77c0 55 -73 83 -148 120c-78 38 -158 85 -158 180c0 117 111 200 267 200c100 0 172 -27 172 -27l7 -13s-17 -81 -24 -172l-76 -6l-9 7s1 16 1 35c0 58 -27 81 -97 81
c-55 0 -95 -29 -95 -71c0 -51 62 -80 131 -112c84 -40 178 -86 178 -186c0 -122 -110 -202 -279 -202zM202 -86l32 115h52l-21 -73c38 -22 96 -56 96 -97c0 -53 -65 -96 -133 -96c-34 0 -78 16 -78 43c0 15 22 45 37 63h9c1 -37 22 -56 52 -56c23 0 40 12 40 30
c0 23 -46 50 -86 71z" />
    <glyph glyph-name="scedilla" unicode="&#x15f;" horiz-adv-x="409" 
d="M169 -12c-81 0 -134 27 -134 27l-6 11c4 27 11 93 13 131l57 6c0 -67 30 -101 88 -101c37 0 66 19 66 44c0 26 -19 42 -99 80c-80 37 -115 77 -115 134c0 91 86 154 208 154c65 0 112 -18 112 -18l6 -11s-13 -63 -19 -130l-58 -3s2 12 2 17c-1 47 -23 68 -70 68
c-34 0 -60 -18 -60 -43s19 -45 67 -68c117 -55 148 -88 148 -148c0 -84 -90 -150 -206 -150zM138 -86l32 115h52l-21 -73c38 -22 96 -56 96 -97c0 -53 -65 -96 -133 -96c-34 0 -78 16 -78 43c0 15 22 45 37 63h9c1 -37 22 -56 52 -56c23 0 40 12 40 30c0 23 -46 50 -86 71z
" />
    <glyph glyph-name="Scaron" unicode="&#x160;" horiz-adv-x="540" 
d="M252 -12c-105 0 -176 38 -176 38l-8 14s15 88 16 170l84 7c0 -110 26 -140 110 -140c63 0 104 30 104 77c0 55 -73 83 -148 120c-78 38 -158 85 -158 180c0 117 111 200 267 200c100 0 172 -27 172 -27l7 -13s-17 -81 -24 -172l-76 -6l-9 7s1 16 1 35c0 58 -27 81 -97 81
c-55 0 -95 -29 -95 -71c0 -51 62 -80 131 -112c84 -40 178 -86 178 -186c0 -122 -110 -202 -279 -202zM416 861l25 -41c-75 -54 -157 -124 -157 -124h-20s-83 70 -157 124l24 41l16 4c46 -23 99 -46 127 -58c29 12 79 35 126 58z" />
    <glyph glyph-name="scaron" unicode="&#x161;" horiz-adv-x="409" 
d="M169 -12c-81 0 -134 27 -134 27l-6 11c4 27 11 93 13 131l57 6c0 -67 30 -101 88 -101c37 0 66 19 66 44c0 26 -19 42 -99 80c-80 37 -115 77 -115 134c0 91 86 154 208 154c65 0 112 -18 112 -18l6 -11s-13 -63 -19 -130l-58 -3s2 12 2 17c-1 47 -23 68 -70 68
c-34 0 -60 -18 -60 -43s19 -45 67 -68c117 -55 148 -88 148 -148c0 -84 -90 -150 -206 -150zM51 679l30 42l15 3c45 -35 93 -67 121 -85c27 18 75 50 119 85l16 -3l30 -42c-74 -70 -156 -158 -156 -158h-20s-82 88 -155 158z" />
    <glyph glyph-name="Tcedilla" unicode="&#x162;" horiz-adv-x="569" 
d="M216 165v398c-108 -3 -114 -16 -127 -130l-84 -6s9 117 11 215l11 11l101 -11h311l103 11l11 -11c2 -100 10 -209 10 -209l-84 -6c-15 122 -20 133 -121 136c-6 -89 -11 -280 -11 -428c0 -50 15 -68 55 -68c30 0 53 3 53 3l4 -5l-9 -69s-122 4 -174 4
c-56 0 -168 -6 -168 -6l8 66c88 8 100 20 100 105zM232 -86l32 115h52l-21 -73c38 -22 96 -56 96 -97c0 -53 -65 -96 -133 -96c-34 0 -78 16 -78 43c0 15 22 45 37 63h9c1 -37 22 -56 52 -56c23 0 40 12 40 30c0 23 -46 50 -86 71z" />
    <glyph glyph-name="tcedilla" unicode="&#x163;" horiz-adv-x="332" 
d="M68 111v222c0 42 -11 53 -54 54l-10 7l7 50c87 41 170 108 170 108l28 -15s-6 -32 -11 -87l117 3l4 -5l-10 -68l-117 3c-3 -58 -6 -129 -6 -216c0 -56 19 -80 64 -80c27 0 59 14 59 14l12 -33s-84 -80 -115 -80c-95 0 -138 38 -138 123zM135 -86l32 115h52l-21 -73
c38 -22 96 -56 96 -97c0 -53 -65 -96 -133 -96c-34 0 -78 16 -78 43c0 15 22 45 37 63h9c1 -37 22 -56 52 -56c23 0 40 12 40 30c0 23 -46 50 -86 71z" />
    <glyph glyph-name="Tcaron" unicode="&#x164;" horiz-adv-x="569" 
d="M216 165v398c-108 -3 -114 -16 -127 -130l-84 -6s9 117 11 215l11 11l101 -11h311l103 11l11 -11c2 -100 10 -209 10 -209l-84 -6c-15 122 -20 133 -121 136c-6 -89 -11 -280 -11 -428c0 -50 15 -68 55 -68c30 0 53 3 53 3l4 -5l-9 -69s-122 4 -174 4
c-56 0 -168 -6 -168 -6l8 66c88 8 100 20 100 105zM430 861l25 -41c-75 -54 -157 -124 -157 -124h-20s-83 70 -157 124l24 41l16 4c46 -23 99 -46 127 -58c29 12 79 35 126 58z" />
    <glyph glyph-name="tcaron" unicode="&#x165;" horiz-adv-x="438" 
d="M438 535l8 -10s-15 -109 -38 -216l-48 -19l-15 3c3 115 -8 228 -8 228zM68 111v222c0 42 -11 53 -54 54l-10 7l7 50c87 41 170 108 170 108l28 -15s-6 -32 -11 -87l106 3l4 -5l-10 -68l-106 3c-3 -58 -6 -129 -6 -216c0 -56 19 -80 64 -80c27 0 59 14 59 14l12 -33
s-84 -80 -115 -80c-95 0 -138 38 -138 123z" />
    <glyph glyph-name="Tbar" unicode="&#x166;" horiz-adv-x="569" 
d="M299 332c50 0 124 5 124 5l14 -14l-4 -46l-157 -1c-63 0 -146 -1 -146 -1l-10 10l8 48s103 -1 171 -1zM216 165v398c-108 -3 -114 -16 -127 -130l-84 -6s9 117 11 215l11 11l101 -11h311l103 11l11 -11c2 -100 10 -209 10 -209l-84 -6c-15 122 -20 133 -121 136
c-6 -89 -11 -280 -11 -428c0 -50 15 -68 55 -68c30 0 53 3 53 3l4 -5l-9 -69s-122 4 -174 4c-56 0 -168 -6 -168 -6l8 66c88 8 100 20 100 105z" />
    <glyph glyph-name="tbar" unicode="&#x167;" horiz-adv-x="347" 
d="M180 282c49 0 119 4 119 4l14 -14l-5 -45l-152 -1c-63 0 -140 -1 -140 -1l-10 10l7 48s98 -1 167 -1zM75 111v222c0 42 -11 53 -54 54l-10 7l7 50c87 41 170 108 170 108l28 -15s-6 -32 -11 -87l117 3l4 -5l-10 -68l-117 3c-3 -58 -6 -129 -6 -216c0 -56 19 -80 64 -80
c27 0 59 14 59 14l12 -33s-84 -80 -115 -80c-95 0 -138 38 -138 123z" />
    <glyph glyph-name="Utilde" unicode="&#x168;" horiz-adv-x="655" 
d="M219 236c0 -100 44 -157 124 -157c81 0 122 43 122 130c0 66 -4 314 -4 314c-1 44 -7 54 -32 54c-11 0 -33 -2 -33 -2l-2 4l8 66s79 -3 117 -3c51 0 119 6 119 6l-6 -67c-50 -11 -58 -18 -58 -50v-311c0 -150 -91 -232 -258 -232c-154 0 -232 72 -232 216v319
c0 44 -6 54 -32 54c-11 0 -32 -2 -32 -2l-2 4l9 66s86 -3 143 -3c41 0 119 6 119 6l-7 -68c-42 -5 -54 -18 -56 -53zM202 714h-11l-40 36v11l79 101l16 4c34 0 121 -33 150 -33c23 0 65 56 65 56h11l39 -37v-10l-78 -102l-17 -4c-33 0 -120 34 -149 34
c-25 0 -65 -56 -65 -56z" />
    <glyph glyph-name="utilde" unicode="&#x169;" horiz-adv-x="547" 
d="M67 115l7 221c0 34 -10 49 -33 49c-12 0 -26 -3 -26 -3l6 59c85 12 183 33 183 33l10 -17c-15 -33 -27 -164 -27 -282c0 -55 20 -81 62 -81c29 0 59 20 85 37v204c0 39 -9 48 -43 49c-5 0 -16 -1 -17 -1l8 58c87 12 187 31 187 31l10 -17c-15 -31 -27 -172 -27 -322
c0 -25 13 -41 35 -41c24 0 47 17 47 17l16 -21s-56 -88 -105 -100c-61 0 -95 26 -102 77l-8 4c-51 -48 -96 -80 -111 -80c-102 0 -157 44 -157 126zM141 539h-11l-40 36v11l79 101l16 4c34 0 121 -33 150 -33c23 0 65 56 65 56h11l39 -37v-10l-78 -102l-17 -4
c-33 0 -120 34 -149 34c-25 0 -65 -56 -65 -56z" />
    <glyph glyph-name="Umacron" unicode="&#x16a;" horiz-adv-x="655" 
d="M219 236c0 -100 44 -157 124 -157c81 0 122 43 122 130c0 66 -4 314 -4 314c-1 44 -7 54 -32 54c-11 0 -33 -2 -33 -2l-2 4l8 66s79 -3 117 -3c51 0 119 6 119 6l-6 -67c-50 -11 -58 -18 -58 -50v-311c0 -150 -91 -232 -258 -232c-154 0 -232 72 -232 216v319
c0 44 -6 54 -32 54c-11 0 -32 -2 -32 -2l-2 4l9 66s86 -3 143 -3c41 0 119 6 119 6l-7 -68c-42 -5 -54 -18 -56 -53zM485 800l8 -14l-12 -77l-141 -1c-59 0 -139 -1 -139 -1l-11 12l14 76s95 -1 154 -1c50 0 127 6 127 6z" />
    <glyph glyph-name="umacron" unicode="&#x16b;" horiz-adv-x="547" 
d="M67 115l7 221c0 34 -10 49 -33 49c-12 0 -26 -3 -26 -3l6 59c85 12 183 33 183 33l10 -17c-15 -33 -27 -164 -27 -282c0 -55 20 -81 62 -81c29 0 59 20 85 37v204c0 39 -9 48 -43 49c-5 0 -16 -1 -17 -1l8 58c87 12 187 31 187 31l10 -17c-15 -31 -27 -172 -27 -322
c0 -25 13 -41 35 -41c24 0 47 17 47 17l16 -21s-56 -88 -105 -100c-61 0 -95 26 -102 77l-8 4c-51 -48 -96 -80 -111 -80c-102 0 -157 44 -157 126zM409 672l8 -14l-12 -76l-141 -1c-59 0 -139 -1 -139 -1l-11 11l14 76s95 -1 154 -1c50 0 127 6 127 6z" />
    <glyph glyph-name="Ubreve" unicode="&#x16c;" horiz-adv-x="655" 
d="M219 236c0 -100 44 -157 124 -157c81 0 122 43 122 130c0 66 -4 314 -4 314c-1 44 -7 54 -32 54c-11 0 -33 -2 -33 -2l-2 4l8 66s79 -3 117 -3c51 0 119 6 119 6l-6 -67c-50 -11 -58 -18 -58 -50v-311c0 -150 -91 -232 -258 -232c-154 0 -232 72 -232 216v319
c0 44 -6 54 -32 54c-11 0 -32 -2 -32 -2l-2 4l9 66s86 -3 143 -3c41 0 119 6 119 6l-7 -68c-42 -5 -54 -18 -56 -53zM333 817c45 0 85 22 103 68l17 -4l28 -34c-18 -63 -63 -125 -148 -125s-130 62 -148 125l28 34l17 4c18 -46 58 -68 103 -68z" />
    <glyph glyph-name="ubreve" unicode="&#x16d;" horiz-adv-x="547" 
d="M67 115l7 221c0 34 -10 49 -33 49c-12 0 -26 -3 -26 -3l6 59c85 12 183 33 183 33l10 -17c-15 -33 -27 -164 -27 -282c0 -55 20 -81 62 -81c29 0 59 20 85 37v204c0 39 -9 48 -43 49c-5 0 -16 -1 -17 -1l8 58c87 12 187 31 187 31l10 -17c-15 -31 -27 -172 -27 -322
c0 -25 13 -41 35 -41c24 0 47 17 47 17l16 -21s-56 -88 -105 -100c-61 0 -95 26 -102 77l-8 4c-51 -48 -96 -80 -111 -80c-102 0 -157 44 -157 126zM272 642c45 0 85 22 103 68l17 -4l28 -34c-18 -63 -63 -125 -148 -125s-130 62 -148 125l28 34l17 4c18 -46 58 -68 103 -68
z" />
    <glyph glyph-name="Uring" unicode="&#x16e;" horiz-adv-x="655" 
d="M219 236c0 -100 44 -157 124 -157c81 0 122 43 122 130c0 66 -4 314 -4 314c-1 44 -7 54 -32 54c-11 0 -33 -2 -33 -2l-2 4l8 66s79 -3 117 -3c51 0 119 6 119 6l-6 -67c-50 -11 -58 -18 -58 -50v-311c0 -150 -91 -232 -258 -232c-154 0 -232 72 -232 216v319
c0 44 -6 54 -32 54c-11 0 -32 -2 -32 -2l-2 4l9 66s86 -3 143 -3c41 0 119 6 119 6l-7 -68c-42 -5 -54 -18 -56 -53zM342 731c15 0 40 5 40 36c0 25 -16 42 -46 42c-26 0 -39 -14 -39 -36c0 -31 26 -42 45 -42zM335 678c-57 0 -88 37 -88 91s38 95 96 95c65 0 89 -43 89 -87
c0 -51 -35 -99 -97 -99z" />
    <glyph glyph-name="uring" unicode="&#x16f;" horiz-adv-x="547" 
d="M67 115l7 221c0 34 -10 49 -33 49c-12 0 -26 -3 -26 -3l6 59c85 12 183 33 183 33l10 -17c-15 -33 -27 -164 -27 -282c0 -55 20 -81 62 -81c29 0 59 20 85 37v204c0 39 -9 48 -43 49c-5 0 -16 -1 -17 -1l8 58c87 12 187 31 187 31l10 -17c-15 -31 -27 -172 -27 -322
c0 -25 13 -41 35 -41c24 0 47 17 47 17l16 -21s-56 -88 -105 -100c-61 0 -95 26 -102 77l-8 4c-51 -48 -96 -80 -111 -80c-102 0 -157 44 -157 126zM268 596c15 0 40 5 40 37c0 25 -16 41 -46 41c-26 0 -39 -14 -39 -35c0 -32 26 -43 45 -43zM261 543c-57 0 -88 37 -88 91
s38 95 96 95c65 0 89 -43 89 -86c0 -52 -35 -100 -97 -100z" />
    <glyph glyph-name="Uhungarumlaut" unicode="&#x170;" horiz-adv-x="655" 
d="M219 236c0 -100 44 -157 124 -157c81 0 122 43 122 130c0 66 -4 314 -4 314c-1 44 -7 54 -32 54c-11 0 -33 -2 -33 -2l-2 4l8 66s79 -3 117 -3c51 0 119 6 119 6l-6 -67c-50 -11 -58 -18 -58 -50v-311c0 -150 -91 -232 -258 -232c-154 0 -232 72 -232 216v319
c0 44 -6 54 -32 54c-11 0 -32 -2 -32 -2l-2 4l9 66s86 -3 143 -3c41 0 119 6 119 6l-7 -68c-42 -5 -54 -18 -56 -53zM409 794l-1 -12s-84 -46 -168 -98l-14 5l-23 34c74 64 151 134 151 134l12 -1zM577 790l-1 -12s-85 -46 -169 -98l-12 4l-24 34c74 64 151 134 151 134
l12 -2z" />
    <glyph glyph-name="uhungarumlaut" unicode="&#x171;" horiz-adv-x="547" 
d="M67 115l7 221c0 34 -10 49 -33 49c-12 0 -26 -3 -26 -3l6 59c85 12 183 33 183 33l10 -17c-15 -33 -27 -164 -27 -282c0 -55 20 -81 62 -81c29 0 59 20 85 37v204c0 39 -9 48 -43 49c-5 0 -16 -1 -17 -1l8 58c87 12 187 31 187 31l10 -17c-15 -31 -27 -172 -27 -322
c0 -25 13 -41 35 -41c24 0 47 17 47 17l16 -21s-56 -88 -105 -100c-61 0 -95 26 -102 77l-8 4c-51 -48 -96 -80 -111 -80c-102 0 -157 44 -157 126zM326 677v-11s-74 -64 -148 -135l-14 1l-31 28c60 78 124 166 124 166l12 1zM471 677v-11s-74 -64 -148 -135l-14 1l-32 28
c61 78 125 166 125 166l11 1z" />
    <glyph glyph-name="Uogonek" unicode="&#x172;" horiz-adv-x="655" 
d="M519 -146l19 -29s-52 -49 -102 -66c-74 0 -120 35 -120 91c0 40 24 80 88 148c-26 -7 -55 -10 -88 -10c-154 0 -232 72 -232 216v319c0 44 -6 54 -32 54c-11 0 -32 -2 -32 -2l-2 4l9 66s86 -3 143 -3c41 0 119 6 119 6l-7 -68c-42 -5 -54 -18 -56 -53l-7 -291
c0 -101 45 -157 124 -157c81 0 122 43 122 130c0 66 -4 314 -4 314c-1 44 -7 54 -32 54c-11 0 -33 -2 -33 -2l-2 4l8 66s79 -3 117 -3c51 0 119 6 119 6l-6 -67c-50 -11 -58 -18 -58 -50v-311c0 -69 -21 -123 -64 -172c-95 -108 -112 -134 -112 -170c0 -29 20 -48 50 -48
c34 0 71 24 71 24z" />
    <glyph glyph-name="uogonek" unicode="&#x173;" horiz-adv-x="547" 
d="M67 115l7 221c0 35 -10 49 -33 49c-12 0 -26 -3 -26 -3l6 59c85 12 183 33 183 33l10 -17c-15 -34 -27 -166 -27 -282c0 -55 20 -81 62 -81c21 0 45 10 85 37v204c0 38 -8 47 -43 49c-5 0 -16 -1 -17 -1l8 58c87 12 187 31 187 31l10 -17c-15 -31 -27 -172 -27 -322
c0 -25 13 -41 35 -41c24 0 47 17 47 17l19 -24l-108 -97c-61 0 -95 26 -102 77l-8 4c-54 -50 -96 -80 -111 -80c-102 0 -157 44 -157 126zM541 -146l19 -28s-53 -50 -102 -67c-74 0 -120 35 -120 92c0 51 28 90 155 231l60 3c-107 -123 -134 -161 -134 -203
c0 -30 21 -52 50 -52c35 0 72 24 72 24z" />
    <glyph glyph-name="Wcircumflex" unicode="&#x174;" horiz-adv-x="964" 
d="M731 5l-159 -20c-8 46 -44 198 -86 357h-10l-104 -337l-161 -20s-85 343 -141 530c-12 42 -33 60 -72 62c-1 2 -3 5 -4 7l7 60s80 -2 122 -2c81 0 164 8 164 8l5 -8l-5 -61c-64 -6 -75 -11 -75 -37c0 -40 89 -413 89 -413h13c25 67 79 251 110 360c-2 16 -5 30 -8 42
c-7 33 -26 43 -73 44l-5 7l8 60s91 -2 137 -2c75 0 163 8 163 8l5 -8l-5 -61c-65 -6 -75 -10 -75 -38c0 -36 89 -412 89 -412h13c26 70 123 388 123 419c0 21 -13 28 -50 28h-38l-5 7l8 62s82 -5 143 -5c51 0 112 2 112 2l-7 -66c-30 -5 -39 -13 -52 -52zM350 711l-25 41
c75 55 157 124 157 124h20c0 3 83 -68 157 -124l-24 -41l-16 -4c-46 23 -99 46 -127 58c-29 -12 -79 -35 -126 -58z" />
    <glyph glyph-name="wcircumflex" unicode="&#x175;" horiz-adv-x="740" 
d="M602 380c0 16 -7 21 -31 21h-27l-4 6l8 57s61 -2 106 -2c39 0 91 1 91 1l-8 -62c-29 -4 -37 -13 -53 -58l-124 -343l-126 -15c-5 32 -38 154 -62 248h-11l-75 -233l-129 -15s-79 291 -102 366c-11 33 -30 49 -61 50l-2 5l7 57s61 -1 93 -1c66 0 135 7 135 7l2 -5l-8 -59
c-40 -4 -47 -8 -47 -26c0 -28 59 -267 59 -267h10c27 67 72 215 81 247c-7 29 -18 41 -54 41l-3 6l8 57s60 -1 92 -1c66 0 133 6 133 6l2 -5l-9 -59c-41 -4 -47 -7 -47 -25c0 -27 59 -267 59 -267h11c51 144 86 248 86 268zM243 535l-29 41c71 68 152 154 152 154h20
s80 -86 151 -154l-29 -41l-15 -4c-43 34 -91 65 -117 83c-28 -18 -74 -48 -117 -83z" />
    <glyph glyph-name="Ycircumflex" unicode="&#x176;" horiz-adv-x="598" 
d="M227 552c0 -23 75 -182 85 -206h10l79 165c9 18 14 35 14 48c0 14 -15 21 -51 23l-2 5l7 58c25 0 89 -4 133 -4c46 0 102 4 102 4l4 -7l-7 -61c-56 -18 -79 -52 -121 -128l-96 -179c-18 -36 -17 -65 -18 -138c-1 -49 10 -65 47 -65c22 0 50 3 50 3l3 -5l-9 -69
s-115 4 -165 4c-57 0 -156 -11 -156 -11l7 69c78 10 90 27 90 94v30c0 34 -6 58 -29 102l-98 191c-30 60 -51 87 -113 100l-3 5l8 64s89 -3 129 -3c51 0 160 8 160 8l5 -9l-5 -58c-45 -2 -60 -10 -60 -30zM182 711l-25 41c75 55 157 124 157 124h20c0 3 83 -68 157 -124
l-24 -41l-16 -4c-46 23 -99 46 -127 58c-29 -12 -79 -35 -126 -58z" />
    <glyph glyph-name="ycircumflex" unicode="&#x177;" horiz-adv-x="465" 
d="M237 132h11c40 103 90 231 90 249c0 16 -7 21 -29 21h-32l-3 5l8 58s61 -3 106 -3h93l-8 -61c-29 -7 -39 -16 -51 -49l-128 -309c-85 -203 -152 -286 -241 -284c-19 0 -76 60 -76 81l8 13c86 7 157 57 201 138c-35 99 -105 290 -138 366c-16 31 -32 42 -60 43l-2 5l7 57
h78c68 0 153 6 153 7l2 -5l-9 -59c-38 -2 -48 -8 -48 -24c0 -32 68 -249 68 -249zM118 535l-29 41c71 68 152 154 152 154h20s80 -86 151 -154l-29 -41l-15 -4c-43 34 -91 65 -117 83c-28 -18 -74 -48 -117 -83z" />
    <glyph glyph-name="Ydieresis" unicode="&#x178;" horiz-adv-x="598" 
d="M227 552c0 -23 75 -182 85 -206h10l79 165c9 18 14 35 14 48c0 14 -15 21 -51 23l-2 5l7 58c25 0 89 -4 133 -4c46 0 102 4 102 4l4 -7l-7 -61c-56 -18 -79 -52 -121 -128l-96 -179c-18 -36 -17 -65 -18 -138c-1 -49 10 -65 47 -65c22 0 50 3 50 3l3 -5l-9 -69
s-115 4 -165 4c-57 0 -156 -11 -156 -11l7 69c78 10 90 27 90 94v30c0 34 -6 58 -29 102l-98 191c-30 60 -51 87 -113 100l-3 5l8 64s89 -3 129 -3c51 0 160 8 160 8l5 -9l-5 -58c-45 -2 -60 -10 -60 -30zM408 706c-39 0 -60 25 -60 61c0 39 27 67 68 67c38 0 59 -25 59 -60
c0 -40 -27 -68 -67 -68zM229 706c-38 0 -59 25 -59 61c0 39 27 67 67 67c38 0 60 -25 60 -60c0 -40 -27 -68 -68 -68z" />
    <glyph glyph-name="Zacute" unicode="&#x179;" horiz-adv-x="580" 
d="M531 16l-17 -19l-395 6l-75 -8l-25 45l351 529l-127 -8c-85 -10 -108 -34 -115 -127l-85 -6s14 124 17 216l10 10l178 -11l293 -3l18 -41c-170 -226 -312 -450 -361 -526l156 11c67 6 101 51 117 154l85 7s-21 -131 -25 -229zM485 775l-6 -13s-115 -29 -229 -65l-13 9
l-13 47c108 47 223 104 223 104l12 -5z" />
    <glyph glyph-name="zacute" unicode="&#x17a;" horiz-adv-x="458" 
d="M37 -4l-17 33l252 368l-90 -6c-70 -6 -88 -23 -93 -88l-51 -5s9 100 11 166l7 7l130 -8l232 -3l13 -30c-120 -159 -223 -311 -260 -367l106 9c57 7 83 39 95 118l53 5s-17 -110 -17 -184l-16 -16l-299 7zM393 666l-1 -14s-96 -60 -189 -129l-15 4l-30 39
c82 80 167 171 167 171l14 -1z" />
    <glyph glyph-name="Zdotaccent" unicode="&#x17b;" horiz-adv-x="580" 
d="M531 16l-17 -19l-395 6l-75 -8l-25 45l351 529l-127 -8c-85 -10 -108 -34 -115 -127l-85 -6s14 124 17 216l10 10l178 -11l293 -3l18 -41c-170 -226 -312 -450 -361 -526l156 11c67 6 101 51 117 154l85 7s-21 -131 -25 -229zM307 702c-46 0 -70 30 -70 72
c0 47 32 80 80 80c44 0 70 -29 70 -72c0 -47 -32 -80 -80 -80z" />
    <glyph glyph-name="zdotaccent" unicode="&#x17c;" horiz-adv-x="458" 
d="M37 -4l-17 33l252 368l-90 -6c-70 -6 -88 -23 -93 -88l-51 -5s9 100 11 166l7 7l130 -8l232 -3l13 -30c-120 -159 -223 -311 -260 -367l106 9c57 7 83 39 95 118l53 5s-17 -110 -17 -184l-16 -16l-299 7zM236 574c-46 0 -70 30 -70 72c0 47 32 80 80 80
c44 0 70 -29 70 -72c0 -47 -32 -80 -80 -80z" />
    <glyph glyph-name="Zcaron" unicode="&#x17d;" horiz-adv-x="580" 
d="M531 16l-17 -19l-395 6l-75 -8l-25 45l351 529l-127 -8c-85 -10 -108 -34 -115 -127l-85 -6s14 124 17 216l10 10l178 -11l293 -3l18 -41c-170 -226 -312 -450 -361 -526l156 11c67 6 101 51 117 154l85 7s-21 -131 -25 -229zM453 861l25 -41
c-75 -54 -157 -124 -157 -124h-20s-83 70 -157 124l24 41l16 4c46 -23 99 -46 127 -58c29 12 79 35 126 58z" />
    <glyph glyph-name="zcaron" unicode="&#x17e;" horiz-adv-x="458" 
d="M37 -4l-17 33l252 368l-90 -6c-70 -6 -88 -23 -93 -88l-51 -5s9 100 11 166l7 7l130 -8l232 -3l13 -30c-120 -159 -223 -311 -260 -367l106 9c57 7 83 39 95 118l53 5s-17 -110 -17 -184l-16 -16l-299 7zM76 679l30 42l15 3c45 -35 93 -67 121 -85c27 18 75 50 119 85
l16 -3l30 -42c-74 -70 -156 -158 -156 -158h-20s-82 88 -155 158z" />
    <glyph glyph-name="florin" unicode="&#x192;" horiz-adv-x="416" 
d="M129 0c6 87 11 176 17 264c-1 32 -12 37 -75 37l-4 6l8 46l76 12l2 23c1 25 7 50 17 74c27 78 108 136 192 136c48 0 96 -13 96 -30c0 -20 -17 -81 -29 -97l-15 -1c-25 32 -54 54 -86 54c-47 0 -55 -45 -59 -105l-5 -56c53 0 104 1 122 1l4 -5l-10 -61
c-18 0 -68 1 -121 2l-14 -195c-4 -49 -12 -95 -26 -138c-24 -77 -96 -128 -170 -128c-41 0 -88 20 -88 41c0 23 17 78 30 94h15c9 -35 38 -63 71 -63c31 0 50 24 52 89z" />
    <glyph glyph-name="Aringacute" unicode="&#x1fa;" horiz-adv-x="625" 
d="M552 132c14 -47 33 -65 78 -69l4 -7l-7 -59s-79 3 -123 3c-86 0 -169 -8 -169 -8l-6 8l5 60c65 6 77 12 77 37c0 8 -2 19 -5 33l-20 76c-26 1 -68 1 -91 1c-32 0 -71 -4 -95 -7l-25 -75c-4 -14 -6 -24 -6 -31c0 -23 12 -30 46 -30h43l4 -7l-7 -63s-82 6 -146 6
c-54 0 -121 -3 -121 -3l8 67c31 5 49 22 65 66l178 507l159 16l11 -5s90 -347 143 -516zM296 510l-72 -224h70c22 0 53 2 74 4l-58 220h-14zM328 721c13 0 36 4 36 32c0 23 -14 38 -41 38c-24 0 -36 -12 -36 -32c0 -28 24 -38 41 -38zM322 673c-52 0 -80 33 -80 82
s35 86 87 86c58 0 80 -39 80 -79c0 -46 -32 -89 -87 -89zM449 903l-5 -11s-104 -26 -206 -59l-12 8l-12 43c97 42 201 93 201 93l11 -4z" />
    <glyph glyph-name="aringacute" unicode="&#x1fb;" horiz-adv-x="479" 
d="M277 266l1 23c0 57 -31 90 -85 90c-59 0 -117 -47 -117 -47l-9 5l-18 60s137 77 185 77c118 0 167 -60 167 -137c0 -34 -20 -161 -20 -205c0 -24 14 -40 36 -40c24 0 47 17 47 17l16 -21s-49 -86 -97 -100c-60 0 -95 27 -101 77l-8 3c-40 -40 -85 -76 -110 -76
c-78 0 -137 63 -137 146c0 41 23 75 58 83zM273 117l2 94l-105 -29c-16 -5 -23 -15 -23 -32c0 -35 22 -61 55 -61c20 0 49 12 71 28zM246 539c13 0 36 4 36 32c0 23 -14 38 -41 38c-24 0 -36 -12 -36 -32c0 -28 24 -38 41 -38zM240 491c-52 0 -80 33 -80 82s35 86 87 86
c58 0 80 -39 80 -79c0 -46 -32 -89 -87 -89zM365 721l-5 -11s-104 -26 -206 -59l-12 8l-12 43c97 42 201 93 201 93l11 -4z" />
    <glyph glyph-name="AEacute" unicode="&#x1fc;" horiz-adv-x="871" 
d="M319 60c68 6 83 15 83 48c0 16 -2 31 -4 49l-12 92l-87 -11l-84 -16l-45 -97c-8 -18 -11 -29 -11 -37c0 -19 13 -24 55 -24l33 -5l-6 -65c-1 1 -110 6 -166 6c-32 0 -74 -3 -74 -3l-5 60c12 3 38 30 60 73l208 425c-3 17 -11 22 -25 22c-12 0 -31 -2 -31 -2l-6 9l8 61
s111 -3 242 -3c152 0 271 5 320 12l8 -11s-18 -89 -23 -182l-91 -6s2 26 2 40c0 55 -16 63 -129 63c-45 0 -52 -4 -53 -27l26 -182l96 12l96 19l11 -10l-13 -84l-91 -7l-88 -10l20 -123c8 -48 28 -68 70 -68c113 0 130 15 143 115l85 7l7 -10s-18 -90 -28 -186l-9 -11
c0 -1 -167 7 -294 7h-38c-81 0 -159 -8 -159 -8l-5 8zM252 317l65 4l62 8l-23 181h-15zM653 841l-1 -14s-96 -60 -189 -129l-15 4l-30 39c82 80 167 171 167 171l14 -1z" />
    <glyph glyph-name="aeacute" unicode="&#x1fd;" horiz-adv-x="670" 
d="M637 113l16 -51s-97 -74 -166 -74c-88 0 -156 35 -191 98c-57 -54 -109 -89 -140 -94c-78 0 -138 62 -138 144c0 44 26 79 65 87l181 38l1 31c0 56 -31 88 -84 88c-59 0 -119 -48 -119 -48l-9 5l-18 60s138 77 185 77c55 0 98 -23 124 -65c38 42 90 65 150 65
c96 0 154 -63 154 -168c0 -16 -2 -29 -2 -29l-10 -12l-256 -44c9 -88 54 -137 129 -137c62 0 120 32 120 32zM264 208l-98 -26c-21 -4 -29 -16 -29 -35c0 -34 23 -60 54 -60c22 0 54 15 86 41c-8 23 -13 50 -13 80zM377 292v-18l128 32c11 3 17 7 17 15c0 41 -23 69 -57 69
c-54 0 -87 -38 -88 -98zM504 666l-1 -14s-96 -60 -189 -129l-15 4l-30 39c82 80 167 171 167 171l14 -1z" />
    <glyph glyph-name="Oslashacute" unicode="&#x1fe;" horiz-adv-x="674" 
d="M599 687l-97 -155l-63 41l95 156l62 -29zM502 532l-262 -449l-61 41l260 449zM63 -68l116 192l61 -41l-114 -190l-60 29zM340 75c94 0 150 77 150 213c0 177 -59 269 -162 269c-91 0 -145 -76 -145 -213c0 -176 58 -269 157 -269zM315 -12c-178 0 -287 121 -287 316
c0 211 130 350 328 350c182 0 290 -118 290 -313c0 -212 -132 -353 -331 -353zM488 781l-6 -13s-115 -29 -229 -65l-13 9l-13 47c108 47 223 104 223 104l12 -5z" />
    <glyph glyph-name="oslashacute" unicode="&#x1ff;" horiz-adv-x="503" 
d="M474 530l-95 -156l-63 42l94 156l61 -30zM379 374l-184 -313l-62 41l183 314zM24 -78l109 180l62 -41l-109 -178l-59 29zM237 -12c-128 0 -212 91 -212 229c0 153 98 257 242 257c130 0 211 -88 211 -229c0 -153 -97 -257 -241 -257zM257 65c56 0 86 44 86 134
c0 127 -36 189 -99 189c-56 0 -86 -45 -86 -134c0 -127 36 -189 99 -189zM410 666l-1 -14s-96 -60 -189 -129l-15 4l-30 39c82 80 167 171 167 171l14 -1z" />
    <glyph glyph-name="Scommaaccent" unicode="&#x218;" horiz-adv-x="540" 
d="M252 -12c-105 0 -176 38 -176 38l-8 14s15 88 16 170l84 7c0 -110 26 -140 110 -140c63 0 104 30 104 77c0 55 -73 83 -148 120c-78 38 -158 85 -158 180c0 117 111 200 267 200c100 0 172 -27 172 -27l7 -13s-17 -81 -24 -172l-76 -6l-9 7s1 16 1 35c0 58 -27 81 -97 81
c-55 0 -95 -29 -95 -71c0 -51 62 -80 131 -112c84 -40 178 -86 178 -186c0 -122 -110 -202 -279 -202zM176 -100l3 14c24 19 54 35 79 35c40 0 69 -33 69 -86c0 -71 -69 -138 -147 -181l-37 30v17c39 27 68 68 68 102c0 27 -15 53 -35 69z" />
    <glyph glyph-name="scommaaccent" unicode="&#x219;" horiz-adv-x="409" 
d="M169 -12c-81 0 -134 27 -134 27l-6 11c4 27 11 93 13 131l57 6c0 -67 30 -101 88 -101c37 0 66 19 66 44c0 26 -19 42 -99 80c-80 37 -115 77 -115 134c0 91 86 154 208 154c65 0 112 -18 112 -18l6 -11s-13 -63 -19 -130l-58 -3s2 12 2 17c-1 47 -23 68 -70 68
c-34 0 -60 -18 -60 -43s19 -45 67 -68c117 -55 148 -88 148 -148c0 -84 -90 -150 -206 -150zM128 -100l3 14c24 19 54 35 79 35c40 0 69 -33 69 -86c0 -71 -69 -138 -147 -181l-37 30v17c39 27 68 68 68 102c0 27 -15 53 -35 69z" />
    <glyph glyph-name="uni021A" unicode="&#x21a;" horiz-adv-x="569" 
d="M216 165v398c-108 -3 -114 -16 -127 -130l-84 -6s9 117 11 215l11 11l101 -11h311l103 11l11 -11c2 -100 10 -209 10 -209l-84 -6c-15 122 -20 133 -121 136c-6 -89 -11 -280 -11 -428c0 -50 15 -68 55 -68c30 0 53 3 53 3l4 -5l-9 -69s-122 4 -174 4
c-56 0 -168 -6 -168 -6l8 66c88 8 100 20 100 105zM206 -100l3 14c24 19 54 35 79 35c40 0 69 -33 69 -86c0 -71 -69 -138 -147 -181l-37 30v17c39 27 68 68 68 102c0 27 -15 53 -35 69z" />
    <glyph glyph-name="uni021B" unicode="&#x21b;" horiz-adv-x="332" 
d="M68 111v222c0 42 -11 53 -54 54l-10 7l7 50c87 41 170 108 170 108l28 -15s-6 -32 -11 -87l117 3l4 -5l-10 -68l-117 3c-3 -58 -6 -129 -6 -216c0 -56 19 -80 64 -80c27 0 59 14 59 14l12 -33s-84 -80 -115 -80c-95 0 -138 38 -138 123zM109 -100l3 14c24 19 54 35 79 35
c40 0 69 -33 69 -86c0 -71 -69 -138 -147 -181l-37 30v17c39 27 68 68 68 102c0 27 -15 53 -35 69z" />
    <glyph glyph-name="dotlessj" unicode="&#x237;" horiz-adv-x="274" 
d="M39 -244l-32 30l2 12c57 56 73 109 73 238v293c0 43 -9 56 -36 56c-14 0 -30 -3 -30 -3l6 58c81 12 191 34 191 34l9 -17c-14 -30 -22 -191 -22 -471c0 -94 -61 -180 -161 -230z" />
    <glyph glyph-name="circumflex" unicode="&#x2c6;" 
d="M66 535l-29 41c71 68 152 154 152 154h20s80 -86 151 -154l-29 -41l-15 -4c-43 34 -91 65 -117 83c-28 -18 -74 -48 -117 -83z" />
    <glyph glyph-name="caron" unicode="&#x2c7;" 
d="M33 679l30 42l15 3c45 -35 93 -67 121 -85c27 18 75 50 119 85l16 -3l30 -42c-74 -70 -156 -158 -156 -158h-20s-82 88 -155 158z" />
    <glyph glyph-name="breve" unicode="&#x2d8;" 
d="M199 642c45 0 85 22 103 68l17 -4l28 -34c-18 -63 -63 -125 -148 -125s-130 62 -148 125l28 34l17 4c18 -46 58 -68 103 -68z" />
    <glyph glyph-name="dotaccent" unicode="&#x2d9;" 
d="M194 574c-46 0 -70 30 -70 72c0 47 32 80 80 80c44 0 70 -29 70 -72c0 -47 -32 -80 -80 -80z" />
    <glyph glyph-name="ring" unicode="&#x2da;" 
d="M201 596c15 0 40 5 40 37c0 25 -16 41 -46 41c-26 0 -39 -14 -39 -35c0 -32 26 -43 45 -43zM194 543c-57 0 -88 37 -88 91s38 95 96 95c65 0 89 -43 89 -86c0 -52 -35 -100 -97 -100z" />
    <glyph glyph-name="ogonek" unicode="&#x2db;" 
d="M288 -146l18 -29s-52 -49 -102 -66c-72 0 -119 34 -119 91c0 54 48 108 133 192h54c-79 -91 -106 -125 -106 -164c0 -28 20 -48 50 -48c35 0 72 24 72 24z" />
    <glyph glyph-name="tilde" unicode="&#x2dc;" 
d="M70 539h-11l-40 36v11l79 101l16 4c34 0 121 -33 150 -33c23 0 65 56 65 56h11l39 -37v-10l-78 -102l-17 -4c-33 0 -120 34 -149 34c-25 0 -65 -56 -65 -56z" />
    <glyph glyph-name="hungarumlaut" unicode="&#x2dd;" 
d="M242 677v-11s-74 -64 -148 -135l-14 1l-31 28c60 78 124 166 124 166l12 1zM387 677v-11s-74 -64 -148 -135l-14 1l-32 28c61 78 125 166 125 166l11 1z" />
    <glyph glyph-name="dotbelowcomb" unicode="&#x323;" horiz-adv-x="321" 
d="M157 -211c-49 0 -74 31 -74 75c0 48 31 82 81 82c48 0 74 -30 74 -75c0 -48 -31 -82 -81 -82z" />
    <glyph glyph-name="Delta" unicode="&#x394;" horiz-adv-x="604" 
d="M20 0l-10 13l219 624l160 17h9s98 -389 183 -647l-8 -7h-553zM301 519h-15l-134 -424h256z" />
    <glyph glyph-name="Delta" unicode="&#x2206;" horiz-adv-x="604" 
d="M20 0l-10 13l219 624l160 17h9s98 -389 183 -647l-8 -7h-553zM301 519h-15l-134 -424h256z" />
    <glyph glyph-name="Omega" unicode="&#x3a9;" horiz-adv-x="857" 
d="M819 14l-19 -19l-271 11l-56 -8l-17 49c93 81 124 149 124 286c0 145 -53 224 -149 224c-97 0 -158 -68 -158 -192c0 -149 41 -250 121 -317l-16 -51l-56 9l-268 -11l-18 19c-1 82 -12 192 -12 192l70 7c11 -94 33 -127 91 -130l73 -4c-89 77 -140 175 -140 281
c0 168 137 294 319 294c178 0 300 -110 300 -272c0 -121 -54 -227 -151 -304l83 5c55 3 78 34 90 123l72 7s-12 -117 -12 -199z" />
    <glyph glyph-name="Omega" unicode="&#x2126;" horiz-adv-x="857" 
d="M819 14l-19 -19l-271 11l-56 -8l-17 49c93 81 124 149 124 286c0 145 -53 224 -149 224c-97 0 -158 -68 -158 -192c0 -149 41 -250 121 -317l-16 -51l-56 9l-268 -11l-18 19c-1 82 -12 192 -12 192l70 7c11 -94 33 -127 91 -130l73 -4c-89 77 -140 175 -140 281
c0 168 137 294 319 294c178 0 300 -110 300 -272c0 -121 -54 -227 -151 -304l83 5c55 3 78 34 90 123l72 7s-12 -117 -12 -199z" />
    <glyph glyph-name="pi" unicode="&#x3c0;" horiz-adv-x="621" 
d="M473 178c0 -65 20 -86 84 -86l9 -15c0 -17 -66 -89 -81 -89c-88 0 -127 41 -127 131l3 250c0 43 -5 49 -60 49c-47 0 -52 -4 -54 -44c-3 -75 -8 -268 -8 -341c0 -48 3 -99 3 -99l-7 -10l-118 -22l-7 14c6 16 15 277 15 445c0 40 -7 51 -32 51c-29 0 -66 -50 -66 -50
l-8 -1l-31 42l1 8l74 87l15 7c114 0 285 -10 344 -10c71 0 174 10 174 10l6 -7l-13 -70l-7 -7c-78 0 -93 -9 -98 -55c-6 -72 -11 -150 -11 -188z" />
    <glyph glyph-name="Wgrave" unicode="&#x1e80;" horiz-adv-x="964" 
d="M731 5l-159 -20c-8 46 -44 198 -86 357h-10l-104 -337l-161 -20s-85 343 -141 530c-12 42 -33 60 -72 62c-1 2 -3 5 -4 7l7 60s80 -2 122 -2c81 0 164 8 164 8l5 -8l-5 -61c-64 -6 -75 -11 -75 -37c0 -40 89 -413 89 -413h13c25 67 79 251 110 360c-2 16 -5 30 -8 42
c-7 33 -26 43 -73 44l-5 7l8 60s91 -2 137 -2c75 0 163 8 163 8l5 -8l-5 -61c-65 -6 -75 -10 -75 -38c0 -36 89 -412 89 -412h13c26 70 123 388 123 419c0 21 -13 28 -50 28h-38l-5 7l8 62s82 -5 143 -5c51 0 112 2 112 2l-7 -66c-30 -5 -39 -13 -52 -52zM329 762l-5 13
l26 77l12 5s115 -57 223 -104l-13 -47l-14 -9c-114 36 -229 65 -229 65z" />
    <glyph glyph-name="wgrave" unicode="&#x1e81;" horiz-adv-x="740" 
d="M602 380c0 16 -7 21 -31 21h-27l-4 6l8 57s61 -2 106 -2c39 0 91 1 91 1l-8 -62c-29 -4 -37 -13 -53 -58l-124 -343l-126 -15c-5 32 -38 154 -62 248h-11l-75 -233l-129 -15s-79 291 -102 366c-11 33 -30 49 -61 50l-2 5l7 57s61 -1 93 -1c66 0 135 7 135 7l2 -5l-8 -59
c-40 -4 -47 -8 -47 -26c0 -28 59 -267 59 -267h10c27 67 72 215 81 247c-7 29 -18 41 -54 41l-3 6l8 57s60 -1 92 -1c66 0 133 6 133 6l2 -5l-9 -59c-41 -4 -47 -7 -47 -25c0 -27 59 -267 59 -267h11c51 144 86 248 86 268zM240 651l-1 14l54 70l13 1s86 -90 168 -170
l-30 -39l-15 -4c-93 69 -189 128 -189 128z" />
    <glyph glyph-name="Wacute" unicode="&#x1e82;" horiz-adv-x="964" 
d="M731 5l-159 -20c-8 46 -44 198 -86 357h-10l-104 -337l-161 -20s-85 343 -141 530c-12 42 -33 60 -72 62c-1 2 -3 5 -4 7l7 60s80 -2 122 -2c81 0 164 8 164 8l5 -8l-5 -61c-64 -6 -75 -11 -75 -37c0 -40 89 -413 89 -413h13c25 67 79 251 110 360c-2 16 -5 30 -8 42
c-7 33 -26 43 -73 44l-5 7l8 60s91 -2 137 -2c75 0 163 8 163 8l5 -8l-5 -61c-65 -6 -75 -10 -75 -38c0 -36 89 -412 89 -412h13c26 70 123 388 123 419c0 21 -13 28 -50 28h-38l-5 7l8 62s82 -5 143 -5c51 0 112 2 112 2l-7 -66c-30 -5 -39 -13 -52 -52zM665 775l-6 -13
s-115 -29 -229 -65l-13 9l-13 47c108 47 223 104 223 104l12 -5z" />
    <glyph glyph-name="wacute" unicode="&#x1e83;" horiz-adv-x="740" 
d="M602 380c0 16 -7 21 -31 21h-27l-4 6l8 57s61 -2 106 -2c39 0 91 1 91 1l-8 -62c-29 -4 -37 -13 -53 -58l-124 -343l-126 -15c-5 32 -38 154 -62 248h-11l-75 -233l-129 -15s-79 291 -102 366c-11 33 -30 49 -61 50l-2 5l7 57s61 -1 93 -1c66 0 135 7 135 7l2 -5l-8 -59
c-40 -4 -47 -8 -47 -26c0 -28 59 -267 59 -267h10c27 67 72 215 81 247c-7 29 -18 41 -54 41l-3 6l8 57s60 -1 92 -1c66 0 133 6 133 6l2 -5l-9 -59c-41 -4 -47 -7 -47 -25c0 -27 59 -267 59 -267h11c51 144 86 248 86 268zM526 666l-1 -14s-96 -60 -189 -129l-15 4l-30 39
c82 80 167 171 167 171l14 -1z" />
    <glyph glyph-name="Wdieresis" unicode="&#x1e84;" horiz-adv-x="964" 
d="M731 5l-159 -20c-8 46 -44 198 -86 357h-10l-104 -337l-161 -20s-85 343 -141 530c-12 42 -33 60 -72 62c-1 2 -3 5 -4 7l7 60s80 -2 122 -2c81 0 164 8 164 8l5 -8l-5 -61c-64 -6 -75 -11 -75 -37c0 -40 89 -413 89 -413h13c25 67 79 251 110 360c-2 16 -5 30 -8 42
c-7 33 -26 43 -73 44l-5 7l8 60s91 -2 137 -2c75 0 163 8 163 8l5 -8l-5 -61c-65 -6 -75 -10 -75 -38c0 -36 89 -412 89 -412h13c26 70 123 388 123 419c0 21 -13 28 -50 28h-38l-5 7l8 62s82 -5 143 -5c51 0 112 2 112 2l-7 -66c-30 -5 -39 -13 -52 -52zM576 706
c-39 0 -60 25 -60 61c0 39 27 67 68 67c38 0 59 -25 59 -60c0 -40 -27 -68 -67 -68zM397 706c-38 0 -59 25 -59 61c0 39 27 67 67 67c38 0 60 -25 60 -60c0 -40 -27 -68 -68 -68z" />
    <glyph glyph-name="wdieresis" unicode="&#x1e85;" horiz-adv-x="740" 
d="M602 380c0 16 -7 21 -31 21h-27l-4 6l8 57s61 -2 106 -2c39 0 91 1 91 1l-8 -62c-29 -4 -37 -13 -53 -58l-124 -343l-126 -15c-5 32 -38 154 -62 248h-11l-75 -233l-129 -15s-79 291 -102 366c-11 33 -30 49 -61 50l-2 5l7 57s61 -1 93 -1c66 0 135 7 135 7l2 -5l-8 -59
c-40 -4 -47 -8 -47 -26c0 -28 59 -267 59 -267h10c27 67 72 215 81 247c-7 29 -18 41 -54 41l-3 6l8 57s60 -1 92 -1c66 0 133 6 133 6l2 -5l-9 -59c-41 -4 -47 -7 -47 -25c0 -27 59 -267 59 -267h11c51 144 86 248 86 268zM459 563c-39 0 -60 25 -60 60c0 40 27 68 68 68
c38 0 59 -25 59 -61c0 -39 -27 -67 -67 -67zM280 563c-38 0 -59 25 -59 60c0 40 27 68 67 68c38 0 60 -25 60 -61c0 -39 -27 -67 -68 -67z" />
    <glyph glyph-name="Ygrave" unicode="&#x1ef2;" horiz-adv-x="598" 
d="M227 552c0 -23 75 -182 85 -206h10l79 165c9 18 14 35 14 48c0 14 -15 21 -51 23l-2 5l7 58c25 0 89 -4 133 -4c46 0 102 4 102 4l4 -7l-7 -61c-56 -18 -79 -52 -121 -128l-96 -179c-18 -36 -17 -65 -18 -138c-1 -49 10 -65 47 -65c22 0 50 3 50 3l3 -5l-9 -69
s-115 4 -165 4c-57 0 -156 -11 -156 -11l7 69c78 10 90 27 90 94v30c0 34 -6 58 -29 102l-98 191c-30 60 -51 87 -113 100l-3 5l8 64s89 -3 129 -3c51 0 160 8 160 8l5 -9l-5 -58c-45 -2 -60 -10 -60 -30zM161 762l-5 13l26 77l12 5s115 -57 223 -104l-13 -47l-14 -9
c-114 36 -229 65 -229 65z" />
    <glyph glyph-name="ygrave" unicode="&#x1ef3;" horiz-adv-x="465" 
d="M237 132h11c40 103 90 231 90 249c0 16 -7 21 -29 21h-32l-3 5l8 58s61 -3 106 -3h93l-8 -61c-29 -7 -39 -16 -51 -49l-128 -309c-85 -203 -152 -286 -241 -284c-19 0 -76 60 -76 81l8 13c86 7 157 57 201 138c-35 99 -105 290 -138 366c-16 31 -32 42 -60 43l-2 5l7 57
h78c68 0 153 6 153 7l2 -5l-9 -59c-38 -2 -48 -8 -48 -24c0 -32 68 -249 68 -249zM114 651l-1 14l54 70l13 1s86 -90 168 -170l-30 -39l-15 -4c-93 69 -189 128 -189 128z" />
    <glyph glyph-name="endash" unicode="&#x2013;" horiz-adv-x="453" 
d="M455 305l8 -15l-11 -77c-155 0 -361 -1 -452 -1l-9 13l11 76h241c41 0 87 0 130 1c53 1 82 2 82 3z" />
    <glyph glyph-name="emdash" unicode="&#x2014;" horiz-adv-x="876" 
d="M877 305l8 -15l-11 -77c-301 0 -699 -1 -874 -1l-9 13l11 76h439c147 0 414 2 436 4z" />
    <glyph glyph-name="quoteleft" unicode="&#x2018;" horiz-adv-x="218" 
d="M178 436l-2 -14c-24 -19 -54 -35 -79 -35c-40 0 -69 33 -69 85c0 71 69 138 147 182l37 -30v-17c-40 -27 -68 -68 -68 -103c0 -27 15 -52 34 -68z" />
    <glyph glyph-name="quoteright" unicode="&#x2019;" horiz-adv-x="218" 
d="M39 605l3 14c23 18 54 35 79 35c40 0 69 -33 69 -86c0 -71 -69 -138 -147 -181l-37 30v17c39 26 68 67 68 102c0 27 -15 53 -35 69z" />
    <glyph glyph-name="quotesinglbase" unicode="&#x201a;" horiz-adv-x="238" 
d="M45 94l3 14c24 18 54 34 79 34c39 0 67 -33 67 -89c0 -73 -72 -147 -153 -193l-37 30v17c42 29 72 74 72 114c0 27 -14 55 -31 73z" />
    <glyph glyph-name="quotedblleft" unicode="&#x201c;" horiz-adv-x="402" 
d="M362 436l-2 -14c-24 -19 -54 -35 -79 -35c-40 0 -69 33 -69 85c0 71 69 138 147 182l37 -30v-17c-40 -27 -68 -68 -68 -103c0 -27 15 -52 34 -68zM178 436l-2 -14c-24 -19 -54 -35 -79 -35c-40 0 -69 33 -69 85c0 71 69 138 147 182l37 -30v-17c-40 -27 -68 -68 -68 -103
c0 -27 15 -52 34 -68z" />
    <glyph glyph-name="quotedblright" unicode="&#x201d;" horiz-adv-x="402" 
d="M223 605l3 14c23 18 54 35 79 35c40 0 69 -33 69 -86c0 -71 -69 -138 -147 -181l-37 30v17c39 26 68 67 68 102c0 27 -15 53 -35 69zM39 605l3 14c23 18 54 35 79 35c40 0 69 -33 69 -86c0 -71 -69 -138 -147 -181l-37 30v17c39 26 68 67 68 102c0 27 -15 53 -35 69z" />
    <glyph glyph-name="quotedblbase" unicode="&#x201e;" horiz-adv-x="421" 
d="M46 94l2 14c24 18 54 34 79 34c40 0 69 -33 69 -85c0 -71 -68 -138 -147 -182l-37 30v17c40 27 68 68 68 103c0 27 -15 53 -34 69zM227 94l2 14c24 18 54 34 79 34c40 0 69 -33 69 -85c0 -71 -69 -138 -147 -182l-37 30v17c40 27 68 68 68 103c0 27 -15 53 -34 69z" />
    <glyph glyph-name="dagger" unicode="&#x2020;" horiz-adv-x="512" 
d="M297 592l8 -8l-1 -178l158 2l10 -11l-7 -80h-162v-402l-88 -6l-9 9v399h-158l-8 11l7 78h159v179z" />
    <glyph glyph-name="daggerdbl" unicode="&#x2021;" horiz-adv-x="512" 
d="M297 592l8 -8l-1 -159l159 1l9 -10l-7 -80h-162v-158l160 1l9 -10l-7 -80h-162v-174l-88 -6l-9 9v171h-158l-8 10l7 78l159 1v158h-158l-8 11l7 78h159v160z" />
    <glyph glyph-name="bullet" unicode="&#x2022;" horiz-adv-x="340" 
d="M167 113c-75 0 -117 48 -117 117c0 73 49 125 123 125c73 0 117 -48 117 -117c0 -73 -49 -125 -123 -125z" />
    <glyph glyph-name="onedotenleader" unicode="&#x2024;" horiz-adv-x="238" 
d="M116 -11c-50 0 -75 31 -75 76c0 48 31 82 81 82c48 0 75 -30 75 -75c0 -49 -31 -83 -81 -83z" />
    <glyph glyph-name="twodotenleader" unicode="&#x2025;" horiz-adv-x="458" 
d="M116 -11c-50 0 -75 31 -75 76c0 48 31 82 81 82c48 0 75 -30 75 -75c0 -49 -31 -83 -81 -83zM336 -11c-50 0 -75 31 -75 76c0 48 31 82 81 82c48 0 75 -30 75 -75c0 -49 -31 -83 -81 -83z" />
    <glyph glyph-name="ellipsis" unicode="&#x2026;" horiz-adv-x="677" 
d="M336 -11c-50 0 -75 31 -75 76c0 48 31 82 81 82c48 0 75 -30 75 -75c0 -49 -31 -83 -81 -83zM555 -11c-50 0 -75 31 -75 76c0 48 31 82 81 82c48 0 75 -30 75 -75c0 -49 -31 -83 -81 -83zM116 -11c-50 0 -75 31 -75 76c0 48 31 82 81 82c48 0 75 -30 75 -75
c0 -49 -31 -83 -81 -83z" />
    <glyph glyph-name="perthousand" unicode="&#x2030;" horiz-adv-x="1048" 
d="M172 408c44 0 82 14 82 66c0 46 -32 77 -93 77c-53 0 -80 -24 -80 -65c0 -55 41 -78 91 -78zM160 309c-87 0 -142 61 -142 165c0 111 65 180 158 180c92 0 141 -67 141 -162c0 -109 -60 -183 -157 -183zM562 88c44 0 81 14 81 65c0 46 -32 78 -93 78
c-52 0 -80 -25 -80 -66c0 -55 41 -77 92 -77zM550 -12c-88 0 -142 61 -142 166c0 110 64 179 158 179c92 0 141 -66 141 -162c0 -109 -60 -183 -157 -183zM897 88c44 0 82 14 82 65c0 46 -33 78 -93 78c-53 0 -80 -25 -80 -66c0 -55 40 -77 91 -77zM885 -12
c-88 0 -142 61 -142 166c0 110 65 179 158 179c92 0 141 -66 141 -162c0 -109 -60 -183 -157 -183zM607 653l7 -19s-176 -267 -266 -407c-90 -144 -202 -320 -202 -320l-65 27l-5 14s121 180 207 316l262 414z" />
    <glyph glyph-name="guilsinglleft" unicode="&#x2039;" horiz-adv-x="265" 
d="M180 411l41 -25l4 -16c-32 -48 -63 -101 -89 -141c26 -42 57 -94 89 -144l-4 -16l-41 -25c-73 81 -165 171 -165 171v21s92 92 165 175z" />
    <glyph glyph-name="guilsinglright" unicode="&#x203a;" horiz-adv-x="265" 
d="M86 44l-41 25l-4 16c31 48 63 100 88 141c-25 41 -57 94 -88 143l4 16l41 26c72 -81 164 -172 164 -172v-20s-92 -92 -164 -175z" />
    <glyph glyph-name="fraction" unicode="&#x2044;" horiz-adv-x="155" 
d="M326 653l7 -19s-176 -267 -266 -407c-90 -144 -202 -320 -202 -320l-65 27l-5 14s121 180 207 316l262 414z" />
    <glyph glyph-name="zero.sups" unicode="&#x2070;" horiz-adv-x="353" 
d="M169 331c-89 0 -140 70 -140 190c0 128 60 207 156 207c89 0 140 -69 140 -190c0 -127 -59 -207 -156 -207zM180 431c52 0 79 32 79 93c0 65 -31 101 -87 101c-51 0 -77 -32 -77 -95c0 -64 31 -99 85 -99z" />
    <glyph glyph-name="four.sups" unicode="&#x2074;" horiz-adv-x="337" 
d="M9 436l2 52l170 239l5 1l71 -7v-221h50l7 -9l-7 -62l-49 2c1 -44 4 -85 4 -85l-7 -7l-90 -7l-5 7s3 49 4 94zM157 604l-71 -104h78v104h-7z" />
    <glyph glyph-name="five.sups" unicode="&#x2075;" horiz-adv-x="305" 
d="M272 469c0 -68 -97 -138 -196 -138c-39 0 -54 21 -59 76l12 12c17 -7 37 -11 59 -11c48 0 80 21 80 51c0 32 -35 48 -119 54l-6 7c8 91 12 187 12 187l5 5l135 4c25 0 35 6 42 26l43 3l-18 -105l-10 -9s-62 5 -132 5l-4 -53c111 -16 156 -49 156 -114z" />
    <glyph glyph-name="six.sups" unicode="&#x2076;" horiz-adv-x="329" 
d="M283 682c0 0 -97 -34 -139 -117l3 -6c14 7 35 17 49 20c70 0 111 -48 111 -112c0 -82 -58 -136 -149 -136c-81 0 -134 58 -134 143c0 197 235 254 235 254l8 -4zM166 513c-21 0 -38 -9 -47 -15c0 -9 -1 -18 -1 -27c0 -49 18 -76 50 -76c31 0 47 18 47 55
c0 38 -18 63 -49 63z" />
    <glyph glyph-name="seven.sups" unicode="&#x2077;" horiz-adv-x="304" 
d="M152 332h-14l-69 21l-7 17l140 272l-78 -5c-41 -4 -48 -12 -56 -56l-46 -4s10 80 13 143l4 3s40 -3 81 -3h146l30 -37c-60 -123 -86 -183 -122 -269z" />
    <glyph glyph-name="eight.sups" unicode="&#x2078;" horiz-adv-x="336" 
d="M30 426c0 51 40 78 69 91c-34 22 -62 51 -62 99c0 62 60 112 139 112c65 0 120 -38 120 -93c0 -44 -31 -71 -57 -85c34 -19 65 -47 65 -95c0 -70 -63 -124 -147 -124c-72 0 -127 39 -127 95zM166 389c28 0 47 16 47 42c0 28 -35 43 -73 62c-12 -10 -27 -24 -27 -50
c0 -31 22 -54 53 -54zM127 630c0 -26 31 -41 65 -57c9 10 20 24 20 47c0 30 -18 46 -44 46c-25 0 -41 -15 -41 -36z" />
    <glyph glyph-name="nine.sups" unicode="&#x2079;" horiz-adv-x="329" 
d="M47 378c0 0 95 33 139 117l-4 6c-14 -8 -34 -17 -49 -20c-69 0 -111 48 -111 111c0 82 58 136 150 136c81 0 133 -57 133 -142c0 -197 -235 -254 -235 -254l-7 3zM163 547c20 0 38 9 47 14c1 9 2 18 2 28c0 49 -19 76 -51 76c-31 0 -46 -18 -46 -56s17 -62 48 -62z" />
    <glyph glyph-name="n.sups" unicode="&#x207f;" horiz-adv-x="400" 
d="M214 336l4 47c19 4 28 13 28 33l2 103c0 36 -11 52 -37 52c-17 0 -36 -12 -46 -20c-3 -48 -7 -124 -7 -139c0 -19 4 -25 18 -25h15l1 -3l-7 -47s-48 2 -74 2c-39 0 -86 -3 -86 -3l6 47c26 2 35 11 35 35v127c0 30 -7 38 -32 38h-10l-3 4l5 41c67 9 136 22 136 22l7 -7
s-6 -24 -8 -46l4 -2c23 21 64 55 80 55c66 0 104 -31 104 -85c0 -26 -13 -122 -13 -152c0 -20 6 -28 20 -28c7 0 18 1 18 1l2 -3l-7 -46s-52 2 -78 2c-25 0 -77 -3 -77 -3z" />
    <glyph glyph-name="zero.sinf" unicode="&#x2080;" horiz-adv-x="353" 
d="M169 -128c-89 0 -140 69 -140 190c0 127 60 207 156 207c89 0 140 -70 140 -190c0 -128 -59 -207 -156 -207zM180 -29c52 0 79 32 79 94c0 65 -31 101 -87 101c-51 0 -77 -33 -77 -96s31 -99 85 -99z" />
    <glyph glyph-name="one.sinf" unicode="&#x2081;" horiz-adv-x="265" 
d="M190 196c-5 -39 -8 -138 -8 -225c0 -30 8 -43 29 -43c15 0 30 2 30 2l3 -4l-9 -49s-64 3 -98 3c-45 0 -112 -7 -112 -7l5 46c41 4 59 16 59 48v197c0 31 -8 36 -32 36c-13 0 -33 -2 -33 -2l-4 5l4 42c21 2 53 6 83 10c63 8 99 14 100 14l9 -24c-15 -11 -22 -24 -26 -49z
" />
    <glyph glyph-name="two.sinf" unicode="&#x2082;" horiz-adv-x="352" 
d="M28 -126l-6 48l81 87c53 62 77 104 76 136c0 24 -15 36 -42 36c-30 0 -60 -18 -86 -53h-10l-13 62c32 46 88 79 139 79c72 0 120 -38 120 -94c0 -55 -34 -112 -133 -219l3 -5h57c39 0 52 13 59 59l61 5s-14 -77 -18 -132l-11 -9s-157 6 -222 6z" />
    <glyph glyph-name="three.sinf" unicode="&#x2083;" horiz-adv-x="310" 
d="M22 -53l12 12c17 -6 37 -10 58 -10c48 0 81 20 81 50c0 31 -27 44 -89 44l-7 8l-6 49l44 8c27 12 45 33 45 56c0 20 -14 32 -36 32c-21 0 -47 -10 -72 -27h-8l-17 55c26 18 86 45 129 45c62 0 104 -32 104 -79c0 -37 -28 -71 -73 -88v-6c63 -20 92 -50 92 -95
c0 -64 -98 -129 -198 -129c-40 0 -55 20 -59 75z" />
    <glyph glyph-name="four.sinf" unicode="&#x2084;" horiz-adv-x="337" 
d="M9 -24l2 53l170 238l5 2l71 -8v-221h50l7 -8l-7 -62l-49 1c1 -43 4 -84 4 -84l-7 -7l-90 -7l-5 6s3 50 4 95zM157 144l-71 -104h78v104h-7z" />
    <glyph glyph-name="five.sinf" unicode="&#x2085;" horiz-adv-x="305" 
d="M272 10c0 -69 -97 -138 -196 -138c-39 0 -54 20 -59 75l12 12c17 -6 37 -10 59 -10c48 0 80 21 80 51c0 31 -35 47 -119 53l-6 8c8 90 12 186 12 186l5 5l135 4c25 1 35 7 42 26l43 3l-18 -104l-10 -10s-62 5 -132 5l-4 -52c111 -17 156 -50 156 -114z" />
    <glyph glyph-name="six.sinf" unicode="&#x2086;" horiz-adv-x="329" 
d="M283 222c0 0 -97 -33 -139 -117l3 -6c14 8 35 17 49 20c70 0 111 -48 111 -112c0 -81 -58 -135 -149 -135c-81 0 -134 57 -134 143c0 196 235 254 235 254l8 -4zM166 53c-21 0 -38 -9 -47 -15c0 -8 -1 -18 -1 -27c0 -49 18 -76 50 -76c31 0 47 18 47 56s-18 62 -49 62z
" />
    <glyph glyph-name="seven.sinf" unicode="&#x2087;" horiz-adv-x="304" 
d="M152 -127h-14l-69 20l-7 17l140 273l-78 -6c-41 -3 -48 -12 -56 -55l-46 -4s10 79 13 143l4 3s40 -3 81 -3h146l30 -37c-60 -123 -86 -183 -122 -269z" />
    <glyph glyph-name="eight.sinf" unicode="&#x2088;" horiz-adv-x="336" 
d="M30 -34c0 51 40 79 69 91c-34 22 -62 51 -62 100c0 61 60 112 139 112c65 0 120 -38 120 -93c0 -45 -31 -71 -57 -85c34 -20 65 -47 65 -95c0 -71 -63 -124 -147 -124c-72 0 -127 38 -127 94zM166 -70c28 0 47 16 47 41c0 29 -35 44 -73 62c-12 -9 -27 -23 -27 -49
c0 -31 22 -54 53 -54zM127 171c0 -27 31 -42 65 -57c9 10 20 24 20 46c0 30 -18 47 -44 47c-25 0 -41 -16 -41 -36z" />
    <glyph glyph-name="nine.sinf" unicode="&#x2089;" horiz-adv-x="329" 
d="M47 -81c0 0 95 32 139 117l-4 5c-14 -7 -34 -16 -49 -20c-69 0 -111 48 -111 112c0 81 58 136 150 136c81 0 133 -57 133 -143c0 -196 -235 -254 -235 -254l-7 4zM163 87c20 0 38 10 47 15c1 9 2 18 2 27c0 49 -19 77 -51 77c-31 0 -46 -18 -46 -56c0 -39 17 -63 48 -63z
" />
    <glyph glyph-name="franc" unicode="&#x20a3;" horiz-adv-x="472" 
d="M232 107c0 -33 8 -42 33 -42c21 0 49 4 49 4l9 -12l-10 -59c0 -1 -71 1 -108 1c-21 0 -41 1 -57 1c-50 -1 -103 -9 -103 -9l6 60c52 7 57 21 59 76h-62l-7 6l7 44h63l1 229c0 32 -5 40 -24 40c-9 0 -28 -1 -28 -1l-6 10l8 50s72 -2 133 -2h53c74 0 159 5 210 10l9 -10
s-13 -72 -17 -142l-86 -5s2 23 2 33c0 33 -11 41 -84 41c-9 0 -14 -1 -19 -1c-22 -3 -21 -35 -22 -59l-3 -73c22 -1 51 -1 73 -1c23 0 89 7 89 7l9 -10l-12 -70s-51 3 -88 3c-26 0 -51 -3 -74 -5l-2 -44c42 0 84 1 100 1l5 -7l-4 -44h-92z" />
    <glyph glyph-name="Euro" unicode="&#x20ac;" horiz-adv-x="573" 
d="M325 -9c-152 0 -245 93 -245 246c0 168 113 272 289 272c70 0 158 -19 158 -19l6 -11s-17 -65 -23 -149l-83 -5s1 20 1 41c0 45 -28 64 -88 64c-84 0 -128 -54 -128 -166c0 -126 49 -196 134 -196c58 0 89 31 102 106l84 6s-14 -82 -17 -149l-8 -9s-79 -31 -182 -31z
M370 337l7 -9l-4 -48l-361 -1l-7 7l7 47h206zM370 223l7 -9l-4 -48l-361 -1l-7 7l7 47h206z" />
    <glyph glyph-name="trademark" unicode="&#x2122;" horiz-adv-x="568" 
d="M82 465v138c-29 -1 -33 -8 -38 -50l-43 -3s3 51 4 92l4 4l45 -4h125l46 4l5 -4c0 -41 3 -89 3 -89l-44 -3c-5 47 -8 52 -36 53c-1 -36 -3 -93 -3 -143c0 -19 6 -26 21 -26c12 0 21 1 21 1l2 -2l-4 -32s-54 2 -76 2c-24 0 -75 -3 -75 -3l3 31c34 3 40 9 40 34zM414 402
l-41 -4c-23 77 -45 138 -50 150h-5s-4 -94 -4 -102c0 -9 4 -13 12 -13c4 0 12 1 12 1l3 -3l-4 -29s-40 1 -53 1c-16 0 -45 -3 -45 -3l3 31c15 1 22 8 23 25c2 5 16 130 16 140c0 13 -3 14 -27 17l-4 3l4 28s40 -2 56 -2c20 0 55 2 55 2c16 -65 37 -130 37 -130h5
s22 66 41 128c19 0 42 -1 64 1c17 0 39 1 39 1l2 -1l-3 -29c-22 -1 -28 -5 -28 -19c0 -21 5 -91 9 -129c3 -25 7 -32 20 -32h11l2 -2l-3 -30s-25 1 -42 1c-11 0 -66 -1 -70 -3l4 31c15 2 21 7 21 18c0 17 -4 99 -4 99h-5c-5 -12 -28 -74 -51 -146z" />
    <glyph glyph-name="estimated" unicode="&#x212e;" horiz-adv-x="797" 
d="M180 311c-3 0 -5 -1 -5 -4v-181c0 -8 4 -15 9 -21c56 -60 137 -97 226 -97c95 0 180 42 237 109h54c-67 -78 -174 -129 -292 -129c-203 0 -369 148 -369 331c0 184 166 332 369 332s368 -148 368 -332v-8h-597zM643 516c0 9 -4 16 -10 22c-57 57 -136 93 -223 93
c-89 0 -168 -37 -225 -96c-6 -6 -10 -14 -10 -23v-178c0 -3 2 -5 5 -5h458c3 0 5 2 5 5v182z" />
    <glyph glyph-name="partialdiff" unicode="&#x2202;" horiz-adv-x="509" 
d="M291 438l3 5c-48 97 -135 169 -257 236l32 56l13 6c231 -97 398 -272 398 -492c0 -154 -93 -262 -236 -262c-141 0 -215 96 -215 222c0 144 87 253 201 253c23 -4 61 -24 61 -24zM344 203c0 53 -5 100 -14 142c-10 9 -33 29 -79 29c-61 0 -89 -36 -89 -142
c0 -107 35 -168 105 -168c49 0 77 45 77 139z" />
    <glyph glyph-name="product" unicode="&#x220f;" horiz-adv-x="713" 
d="M607 525c-7 -130 -12 -293 -12 -392c0 -54 8 -68 38 -68c23 0 43 3 43 3l5 -7l-9 -64s-104 3 -148 3c-55 0 -136 -9 -136 -9l7 65c54 12 69 27 69 84v375c0 53 -18 52 -113 52c-73 0 -89 -9 -91 -49c-7 -140 -12 -294 -12 -385c0 -45 4 -61 22 -65c8 -2 15 -3 23 -3
c15 1 31 3 31 3l5 -7l-9 -64c0 -1 -81 3 -123 3c-57 0 -160 -6 -161 -9l7 65c57 12 73 27 73 84c0 127 1 255 1 382c0 42 -7 52 -36 52c-14 0 -35 -1 -35 -1l-5 8l8 65s98 -4 139 -4h327c40 0 161 5 162 7l-5 -70c-51 -7 -62 -17 -65 -54z" />
    <glyph glyph-name="summation" unicode="&#x2211;" horiz-adv-x="566" 
d="M499 16l-18 -19l-389 6l-66 -9l-27 39l218 273l-200 296l16 38c1 0 1 -1 1 -1c8 0 15 1 22 1c85 1 169 2 253 3c74 3 150 9 178 11l11 -10c2 -89 11 -201 11 -201l-80 -13c-6 86 -30 123 -114 130l-133 10l156 -231v-29l-187 -238l171 15c69 4 99 51 114 143l85 7
s-21 -127 -22 -221z" />
    <glyph glyph-name="minus" unicode="&#x2212;" horiz-adv-x="506" 
d="M482 312l7 -12l-10 -92l-227 -1c-90 0 -228 -1 -228 -1l-7 11l14 90s145 -1 234 -1c80 0 217 6 217 6z" />
    <glyph glyph-name="radical" unicode="&#x221a;" horiz-adv-x="505" 
d="M71 344c-13 39 -36 48 -73 47l-2 4l7 59s62 4 98 7l65 7l7 -8c7 -62 83 -345 83 -345h12l170 611l21 16h79l-219 -738l-136 -16s-86 278 -112 356z" />
    <glyph glyph-name="infinity" unicode="&#x221e;" horiz-adv-x="515" 
d="M150 411c59 0 96 -35 123 -79c18 35 51 82 114 82c71 0 115 -69 115 -150c0 -99 -66 -170 -145 -170c-61 0 -94 37 -119 82c-18 -35 -51 -79 -112 -79c-70 0 -114 69 -114 146c0 97 64 168 138 168zM145 189c34 0 55 21 68 37c-23 47 -44 88 -83 88
c-29 0 -52 -22 -52 -60c0 -39 24 -65 67 -65zM367 323c-34 0 -55 -21 -68 -38c25 -50 48 -94 86 -94c31 0 54 23 54 62c0 40 -27 70 -72 70z" />
    <glyph glyph-name="integral" unicode="&#x222b;" horiz-adv-x="425" 
d="M148 0l17 426c2 86 104 173 205 173c45 0 91 -14 91 -30c0 -20 -18 -82 -29 -97l-15 -2c-24 33 -51 54 -81 54c-33 0 -53 -21 -56 -68l-24 -417c-6 -115 -95 -200 -189 -200c-41 0 -88 21 -88 42c0 23 17 78 31 93h14c10 -35 38 -63 71 -63c31 0 51 25 53 89z" />
    <glyph glyph-name="approxequal" unicode="&#x2248;" horiz-adv-x="506" 
d="M74 259h-11l-35 37v11l91 101l19 4c50 0 178 -39 220 -39c27 0 75 57 75 57h11l35 -38v-10l-91 -102l-19 -4c-50 0 -177 39 -220 39c-27 0 -75 -56 -75 -56zM74 78h-11l-35 38v10l91 102l19 4c50 0 178 -39 220 -39c27 0 75 57 75 57h11l35 -38v-10l-91 -102l-19 -4
c-50 0 -177 39 -220 39c-27 0 -75 -57 -75 -57z" />
    <glyph glyph-name="notequal" unicode="&#x2260;" horiz-adv-x="506" 
d="M481 402l7 -12l-11 -92c-62 0 -123 -1 -185 -1l-18 -79c76 0 207 6 207 6l7 -12l-11 -92c-65 0 -130 -1 -195 -1h-26l-26 -121l-70 -6l-5 9l25 118c-78 0 -157 -1 -157 -1l-8 11l14 90s88 -1 169 -1l17 79c-85 0 -192 -1 -192 -1l-8 11l14 90s117 -1 204 -1l28 130l69 4
l7 -9l-26 -125c76 1 170 6 170 6z" />
    <glyph glyph-name="lessequal" unicode="&#x2264;" horiz-adv-x="489" 
d="M45 213l-8 13l1 97l191 82c85 36 177 76 177 76l14 -8l20 -76s-103 -38 -181 -71l-123 -50v-7l136 -60c77 -34 164 -72 164 -72c1 -5 3 -10 5 -15l-43 -65c0 -1 -70 32 -142 65l-36 15c-62 27 -151 65 -175 76zM455 -5l8 -15l-11 -77c-144 0 -338 -2 -419 -2l-8 14l11 76
h230c93 0 191 3 189 4z" />
    <glyph glyph-name="greaterequal" unicode="&#x2265;" horiz-adv-x="489" 
d="M443 325l8 -13l-1 -98l-191 -82c-84 -36 -177 -75 -177 -75l-13 7l-20 77s103 37 180 70l124 50v7l-137 60c-77 34 -164 72 -164 72c-1 5 -3 10 -4 16l42 65s70 -33 142 -65l37 -16c61 -27 150 -65 174 -75zM453 -5l8 -15l-11 -77c-143 0 -337 -2 -418 -2l-9 14l11 76
h231c93 0 190 3 188 4z" />
    <glyph glyph-name="lozenge" unicode="&#x25ca;" horiz-adv-x="523" 
d="M51 257l-1 35l76 170l83 185l98 4l11 -7l82 -182l77 -161l1 -38l-73 -164l-85 -188l-97 -5l-13 7l-80 178zM200 422l-59 -148l59 -128l65 -140h7l54 128l62 146l-60 131l-65 141h-7z" />
    <glyph glyph-name="acute.cap" 
d="M359 775l-6 -13s-115 -29 -229 -65l-13 9l-13 47c108 47 223 104 223 104l12 -5z" />
    <glyph glyph-name="breve.cap" 
d="M199 788c45 0 85 20 103 60l17 -4l28 -35c-18 -58 -63 -116 -148 -116s-130 58 -148 116l28 35l17 4c18 -40 58 -60 103 -60z" />
    <glyph glyph-name="circumflex.cap" 
d="M57 711l-25 41c75 55 157 124 157 124h20c0 3 83 -68 157 -124l-24 -41l-16 -4c-46 23 -99 46 -127 58c-29 -12 -79 -35 -126 -58z" />
    <glyph glyph-name="dieresis.cap" 
d="M284 706c-39 0 -60 25 -60 61c0 39 27 67 68 67c38 0 59 -25 59 -60c0 -40 -27 -68 -67 -68zM105 706c-38 0 -59 25 -59 61c0 39 27 67 67 67c38 0 60 -25 60 -60c0 -40 -27 -68 -68 -68z" />
    <glyph glyph-name="grave.cap" 
d="M44 762l-5 13l26 77l12 5s115 -57 223 -104l-13 -47l-14 -9c-114 36 -229 65 -229 65z" />
    <glyph glyph-name="macron.cap" 
d="M345 800l8 -14l-12 -77l-141 -1c-59 0 -139 -1 -139 -1l-11 12l14 76s95 -1 154 -1c50 0 127 6 127 6z" />
    <glyph glyph-name="ring.cap" 
d="M201 731c15 0 40 5 40 36c0 25 -16 42 -46 42c-26 0 -39 -14 -39 -36c0 -31 26 -42 45 -42zM194 678c-57 0 -88 37 -88 91s38 95 96 95c65 0 89 -43 89 -87c0 -51 -35 -99 -97 -99z" />
    <glyph glyph-name="tilde.cap" 
d="M70 687h-11l-39 37v11l78 96l17 4c33 0 120 -34 149 -34c24 0 65 52 65 52h11l40 -37v-10l-79 -97l-16 -4c-34 0 -121 34 -150 34c-24 0 -65 -52 -65 -52z" />
    <glyph glyph-name="caron.cap" 
d="M341 861l25 -41c-75 -54 -157 -124 -157 -124h-20s-83 70 -157 124l24 41l16 4c46 -23 99 -46 127 -58c29 12 79 35 126 58z" />
    <glyph glyph-name="dotaccent.cap" 
d="M194 702c-46 0 -70 30 -70 72c0 47 32 80 80 80c44 0 70 -29 70 -72c0 -47 -32 -80 -80 -80z" />
    <glyph glyph-name="commaaccent" 
d="M118 -100l3 14c24 19 54 35 79 35c40 0 69 -33 69 -86c0 -71 -69 -138 -147 -181l-37 30v17c39 27 68 68 68 102c0 27 -15 53 -35 69z" />
    <glyph glyph-name="hungarumlaut.cap" 
d="M261 794l-1 -12s-84 -46 -168 -98l-14 5l-23 34c74 64 151 134 151 134l12 -1zM429 790l-1 -12s-85 -46 -169 -98l-12 4l-24 34c74 64 151 134 151 134l12 -2z" />
    <glyph glyph-name="f.f" horiz-adv-x="326" 
d="M216 496c0 -15 -1 -31 -1 -46h164l73 1l5 -8l-10 -61l-48 1h-185c0 -90 -2 -180 -2 -270c0 -29 11 -46 38 -46c33 0 64 2 64 2l4 -5l-10 -68c0 -1 -77 3 -123 3c-12 0 -26 1 -40 1c-56 -1 -114 -5 -114 -5l7 62c49 4 55 25 55 73v215c-2 33 -17 39 -65 41l-4 6l8 52
l61 10c0 173 110 272 264 272c96 0 163 -46 163 -46l5 -16s-23 -39 -45 -85l-13 -4s-58 60 -138 60c-82 0 -112 -46 -113 -139z" />
    <glyph glyph-name="f.l" horiz-adv-x="342" 
d="M216 496c0 -15 -1 -31 -1 -46c71 0 127 3 127 3l4 -5l-11 -68s-50 2 -121 3c0 -90 -2 -180 -2 -270c0 -29 12 -46 40 -46c32 0 62 1 62 1l3 -4l-9 -67c0 -1 -82 3 -126 3c-60 0 -151 -5 -151 -6l7 62c46 6 55 25 55 74v215c-2 33 -17 39 -65 41l-4 6l8 52l61 10
c0 184 105 288 258 288c82 0 138 -34 138 -34l4 -15s-14 -42 -32 -93l-12 -4s-57 55 -130 55c-78 0 -102 -50 -103 -155z" />
    <glyph glyph-name="f.t" horiz-adv-x="337" 
d="M28 386l-4 6l8 52l61 10c0 184 101 288 252 288c69 0 115 -21 115 -21l5 -16s-18 -40 -35 -89l-13 -3s-44 38 -105 38c-86 0 -97 -64 -97 -201h158l74 1l5 -8l-10 -61l-48 1h-180c0 -90 -2 -180 -2 -270c0 -29 10 -46 41 -46c26 0 56 2 56 2l3 -5l-9 -67
c0 -1 -80 3 -123 3c-60 0 -149 -5 -149 -6l7 62c45 6 55 25 55 73v216c-2 33 -17 39 -65 41z" />
    <glyph glyph-name="zero.lf" horiz-adv-x="513" 
d="M244 -12c-132 0 -212 110 -212 293c0 192 95 317 238 317c131 0 211 -110 211 -290c0 -194 -93 -320 -237 -320zM261 115c85 0 133 62 133 169c0 113 -54 181 -144 181c-84 0 -131 -62 -131 -170c0 -112 53 -180 142 -180z" />
    <glyph glyph-name="one.lf" horiz-adv-x="366" 
d="M257 490c-6 -75 -11 -251 -11 -358c0 -49 11 -67 44 -67c24 0 49 3 49 3l3 -5l-11 -67s-93 4 -144 4c-62 0 -155 -11 -155 -11l7 63c69 6 89 26 89 94v301c0 49 -14 57 -50 57c-20 0 -51 -5 -51 -5l-5 7l6 58c21 1 73 7 120 14c97 13 135 20 136 20l11 -29
c-24 -20 -33 -38 -38 -79z" />
    <glyph glyph-name="two.lf" horiz-adv-x="494" 
d="M31 -10l-11 57l115 127c90 109 134 189 133 247c0 42 -26 64 -72 64c-51 0 -98 -32 -136 -90h-14l-17 80c44 71 129 123 204 123c104 0 174 -55 174 -139c0 -83 -54 -175 -212 -357l4 -8h107c63 0 82 19 96 91l76 7s-22 -108 -29 -189l-14 -12s-236 9 -331 9z" />
    <glyph glyph-name="three.lf" horiz-adv-x="435" 
d="M27 90l13 14c27 -8 56 -13 86 -13c78 0 135 38 135 89c0 58 -45 83 -148 83l-9 10l-7 61l65 15c45 20 75 58 75 96c0 35 -24 57 -61 57c-33 0 -76 -16 -110 -43h-12l-21 71c28 19 118 68 186 68c87 0 148 -49 148 -119c0 -56 -43 -110 -110 -138v-9
c94 -28 138 -74 138 -143c0 -99 -146 -201 -288 -201c-56 0 -76 28 -80 102z" />
    <glyph glyph-name="four.lf" horiz-adv-x="469" 
d="M0 159c1 22 2 45 3 67l263 371c1 0 5 2 6 2l84 -11v-344h81l9 -12l-10 -82s-32 1 -80 2c2 -71 7 -143 7 -143l-8 -8l-116 -12l-8 10s5 85 6 156c-77 2 -165 4 -237 4zM228 424l-124 -180h134v180h-10z" />
    <glyph glyph-name="five.lf" horiz-adv-x="428" 
d="M385 202c0 -105 -145 -214 -287 -214c-54 0 -75 27 -80 102l13 14c27 -8 55 -13 86 -13c81 0 135 39 135 94c0 58 -57 87 -188 95l-9 11c11 134 18 276 18 276l8 8l198 7c39 2 52 10 63 40l55 4l-26 -147l-13 -12s-96 8 -204 8l-7 -103c167 -20 238 -71 238 -170z" />
    <glyph glyph-name="six.lf" horiz-adv-x="464" 
d="M405 538c0 0 -164 -58 -225 -208l5 -6c9 3 61 33 85 37c108 0 169 -79 169 -170c0 -118 -85 -203 -217 -203c-119 0 -194 89 -194 216c0 302 347 394 347 394l10 -5zM232 273c-35 0 -66 -18 -80 -28c-1 -14 -2 -28 -2 -42c0 -84 33 -134 90 -134c51 0 80 34 80 97
c0 61 -34 107 -88 107z" />
    <glyph glyph-name="seven.lf" horiz-adv-x="426" 
d="M201 -12h-17l-91 28l-11 25l224 441l-134 -7c-64 -5 -75 -20 -87 -88l-60 -6s14 114 19 204l6 5s60 -4 122 -4h217l39 -48c-98 -202 -147 -317 -196 -436z" />
    <glyph glyph-name="eight.lf" horiz-adv-x="479" 
d="M38 130c0 84 67 128 112 148c-53 33 -99 77 -99 151c0 91 85 169 201 169c91 0 173 -54 173 -140c0 -71 -50 -114 -90 -135c55 -32 104 -74 104 -149c0 -105 -92 -186 -215 -186c-103 0 -186 55 -186 142zM241 62c47 0 83 32 83 78c0 51 -58 76 -120 107
c-23 -14 -57 -40 -57 -91s39 -94 94 -94zM168 453c0 -48 50 -72 107 -100c18 15 39 40 39 82c0 54 -32 84 -76 84c-43 0 -70 -30 -70 -66z" />
    <glyph glyph-name="nine.lf" horiz-adv-x="464" 
d="M59 48c0 0 163 58 224 208l-4 7c-9 -4 -61 -34 -86 -37c-108 0 -169 78 -169 169c0 119 86 204 217 204c119 0 195 -90 195 -216c0 -303 -347 -395 -347 -395l-10 6zM231 314c35 0 66 18 80 27c2 13 3 28 3 43c0 83 -34 133 -90 133c-51 0 -80 -33 -80 -97
c0 -62 33 -106 87 -106z" />
    <glyph glyph-name="zero.tf" horiz-adv-x="455" 
d="M216 -12c-124 0 -197 110 -197 293c0 192 87 317 221 317c123 0 196 -110 196 -290c0 -194 -85 -320 -220 -320zM231 115c77 0 119 62 119 169c0 113 -47 181 -129 181c-76 0 -116 -62 -116 -170c0 -112 47 -180 126 -180z" />
    <glyph glyph-name="one.tf" horiz-adv-x="455" 
d="M301 490c-6 -75 -10 -251 -10 -358c0 -49 12 -67 52 -67c27 0 57 3 57 3l3 -5l-12 -67s-103 4 -160 4c-67 0 -168 -11 -168 -11l8 63c82 6 103 26 103 94v301c0 49 -19 57 -59 57c-23 0 -59 -5 -59 -5l-6 7l7 58c16 1 79 7 133 14c112 13 143 20 144 20l11 -29
c-28 -20 -38 -38 -44 -79z" />
    <glyph glyph-name="two.tf" horiz-adv-x="455" 
d="M21 -10l-10 57l111 127c83 109 121 189 120 247c0 42 -23 64 -65 64c-46 0 -91 -32 -127 -90h-13l-18 80c44 71 124 123 195 123c100 0 168 -55 168 -139c0 -83 -51 -175 -198 -357l4 -8h95c58 0 76 19 88 91l77 7s-21 -108 -27 -189l-14 -12s-223 9 -313 9z" />
    <glyph glyph-name="three.tf" horiz-adv-x="455" 
d="M33 90l13 14c27 -8 57 -13 87 -13c83 0 142 38 142 89c0 58 -46 83 -154 83l-9 10l-8 61l67 15c48 20 79 58 79 96c0 35 -25 57 -64 57c-34 0 -79 -16 -114 -43h-12l-21 71c26 19 119 68 190 68c89 0 151 -49 151 -119c0 -56 -44 -110 -113 -138v-9
c96 -28 143 -74 143 -143c0 -99 -151 -201 -295 -201c-58 0 -78 28 -82 102z" />
    <glyph glyph-name="four.tf" horiz-adv-x="455" 
d="M-3 159c1 22 2 45 3 67l257 371c1 0 5 2 6 2l85 -11v-344h79l8 -12l-9 -82s-31 1 -78 2c2 -71 7 -143 7 -143l-8 -8l-116 -12l-8 10s5 85 6 156c-76 2 -161 4 -232 4zM220 424l-119 -180h129v180h-10z" />
    <glyph glyph-name="five.tf" horiz-adv-x="455" 
d="M404 202c0 -105 -152 -214 -297 -214c-55 0 -77 27 -82 102l13 14c28 -8 57 -13 90 -13c85 0 143 39 143 94c0 58 -60 87 -198 95l-10 11c12 134 19 276 19 276l8 8l206 7c40 2 54 10 65 40l55 4l-27 -147l-12 -12s-101 8 -215 8l-7 -103c174 -20 249 -71 249 -170z" />
    <glyph glyph-name="six.tf" horiz-adv-x="455" 
d="M399 538c0 0 -161 -58 -221 -208l5 -6c9 3 59 33 84 37c105 0 165 -79 165 -170c0 -118 -84 -203 -214 -203c-118 0 -192 89 -192 216c0 302 343 394 343 394l9 -5zM228 273c-34 0 -65 -18 -79 -28c-1 -14 -2 -28 -2 -42c0 -84 32 -134 88 -134c50 0 78 34 78 97
c0 61 -33 107 -85 107z" />
    <glyph glyph-name="seven.tf" horiz-adv-x="455" 
d="M211 -12h-16l-91 28l-11 25l235 441l-144 -7c-66 -5 -78 -20 -91 -88l-60 -6s15 114 20 204l7 5s62 -4 126 -4h226l38 -48c-103 -202 -156 -317 -207 -436z" />
    <glyph glyph-name="eight.tf" horiz-adv-x="455" 
d="M32 130c0 84 63 128 106 148c-51 33 -94 77 -94 151c0 91 83 169 195 169c90 0 169 -54 169 -140c0 -71 -48 -114 -86 -135c53 -32 99 -74 99 -149c0 -105 -89 -186 -209 -186c-101 0 -180 55 -180 142zM228 62c45 0 78 32 78 78c0 51 -55 76 -114 107
c-21 -14 -52 -40 -52 -91s37 -94 88 -94zM160 453c0 -48 48 -72 101 -100c18 15 37 40 37 82c0 54 -30 84 -71 84c-42 0 -67 -30 -67 -66z" />
    <glyph glyph-name="nine.tf" horiz-adv-x="455" 
d="M56 48c0 0 160 58 220 208l-4 7c-9 -4 -60 -34 -84 -37c-106 0 -165 78 -165 169c0 119 83 204 213 204c119 0 193 -90 193 -216c0 -303 -343 -395 -343 -395l-9 6zM227 314c33 0 64 18 78 27c2 13 3 28 3 43c0 83 -33 133 -88 133c-50 0 -78 -33 -78 -97
c0 -62 31 -106 85 -106z" />
    <glyph glyph-name="zero.tosf" horiz-adv-x="445" 
d="M211 -12c-123 0 -198 95 -198 249c0 164 89 273 222 273c122 0 197 -94 197 -247c0 -165 -87 -275 -221 -275zM226 119c80 0 125 46 125 121c0 82 -50 134 -135 134c-78 0 -123 -46 -123 -123c0 -80 51 -132 133 -132z" />
    <glyph glyph-name="one.tosf" horiz-adv-x="445" 
d="M295 402c-7 -79 -10 -179 -10 -270c0 -49 12 -67 51 -67c27 0 57 3 57 3l3 -5l-12 -67s-102 4 -159 4c-66 0 -166 -12 -166 -11l8 63c79 6 101 26 101 92v215c0 48 -19 57 -58 57c-23 0 -58 -5 -58 -5l-6 7l7 57c17 2 78 8 132 15c111 13 141 20 142 20l11 -30
c-27 -19 -38 -37 -43 -78z" />
    <glyph glyph-name="two.tosf" horiz-adv-x="445" 
d="M13 -9l-7 33l70 83c101 124 138 189 138 236c0 39 -20 61 -57 61s-76 -29 -105 -77h-12l-18 74c50 67 119 109 188 109c89 0 149 -52 149 -129c0 -63 -36 -122 -173 -280l4 -8h84c58 0 77 20 88 91l77 7s-20 -107 -26 -188l-14 -12s-235 9 -324 9z" />
    <glyph glyph-name="three.tosf" horiz-adv-x="445" 
d="M15 2l13 14c26 -9 55 -13 87 -13c87 0 151 40 151 95s-48 80 -153 80l-8 10l-8 62l66 14c47 20 77 58 77 96c0 32 -26 54 -63 54c-34 0 -77 -19 -112 -49c-4 0 -8 -1 -12 -1l-21 71c27 22 119 75 189 75c90 0 150 -46 150 -117c0 -55 -44 -108 -113 -136v-8
c93 -24 142 -70 142 -132c0 -105 -156 -217 -304 -217c-57 0 -77 28 -81 102z" />
    <glyph glyph-name="four.tosf" horiz-adv-x="445" 
d="M-3 73c1 22 2 45 3 67l255 368c2 0 5 2 7 2l85 -11v-342h78l9 -11l-10 -83s-31 1 -76 3c1 -73 6 -145 6 -145l-8 -9l-115 -12l-8 10s4 87 6 159c-76 2 -162 4 -232 4zM219 335l-118 -178h128v178h-10z" />
    <glyph glyph-name="five.tosf" horiz-adv-x="445" 
d="M395 130c0 -119 -165 -230 -309 -230c-52 0 -76 24 -80 102l12 14c28 -9 58 -13 88 -13c89 0 157 39 157 96c0 52 -49 79 -195 99l-9 11c12 131 19 270 19 270l9 8l198 7c40 2 54 10 65 40l55 4l-27 -147l-12 -13s-95 8 -207 8l-7 -89c154 -30 243 -74 243 -167z" />
    <glyph glyph-name="six.tosf" horiz-adv-x="445" 
d="M391 538c0 0 -156 -58 -216 -208l5 -6c9 3 58 33 82 37c104 0 163 -79 163 -170c0 -118 -83 -203 -212 -203c-116 0 -190 89 -190 216c0 302 338 394 338 394l10 -5zM223 273c-33 0 -63 -18 -77 -28c-1 -14 -2 -28 -2 -42c0 -84 31 -134 86 -134c49 0 76 34 76 97
c0 61 -32 107 -83 107z" />
    <glyph glyph-name="seven.tosf" horiz-adv-x="445" 
d="M208 -100h-17l-91 27l-12 25l232 442l-140 -8c-66 -5 -78 -20 -90 -88l-60 -6s15 114 20 205l6 5s61 -4 125 -4h222l39 -48c-101 -203 -153 -318 -203 -437z" />
    <glyph glyph-name="eight.tosf" horiz-adv-x="445" 
d="M29 130c0 84 62 128 104 148c-50 33 -92 77 -92 151c0 91 82 169 193 169c89 0 167 -54 167 -140c0 -71 -47 -114 -84 -135c52 -32 97 -74 97 -149c0 -105 -88 -186 -207 -186c-100 0 -178 55 -178 142zM223 62c43 0 76 32 76 78c0 51 -54 76 -112 107
c-21 -14 -50 -40 -50 -91s36 -94 86 -94zM156 453c0 -48 47 -72 100 -100c17 15 36 40 36 82c0 54 -29 84 -70 84c-40 0 -66 -30 -66 -66z" />
    <glyph glyph-name="nine.tosf" horiz-adv-x="445" 
d="M54 -40c0 0 155 57 215 207l-4 7c-9 -3 -58 -34 -82 -37c-104 0 -163 78 -163 170c0 118 83 203 211 203c117 0 191 -89 191 -216c0 -302 -338 -395 -338 -395l-10 6zM222 225c32 0 62 18 76 27c2 14 3 28 3 43c0 83 -32 134 -86 134c-49 0 -76 -34 -76 -97
s31 -107 83 -107z" />
    <glyph glyph-name="caron.alt" 
d="M246 733l8 -10s-15 -109 -38 -216l-48 -20l-15 4c3 115 -7 228 -7 228z" />
    <glyph glyph-name="zero.numr" horiz-adv-x="353" 
d="M169 253c-89 0 -140 69 -140 190c0 127 60 206 156 206c89 0 140 -69 140 -189c0 -128 -59 -207 -156 -207zM180 352c52 0 79 32 79 93c0 66 -31 102 -87 102c-51 0 -77 -33 -77 -96c0 -64 31 -99 85 -99z" />
    <glyph glyph-name="one.numr" horiz-adv-x="265" 
d="M190 577c-5 -39 -8 -138 -8 -225c0 -30 8 -43 29 -43c15 0 30 2 30 2l3 -4l-9 -49s-64 3 -98 3c-45 0 -112 -7 -112 -7l5 46c41 3 59 16 59 47v197c0 31 -8 37 -32 37c-13 0 -33 -2 -33 -2l-4 5l4 42c21 2 53 6 83 10c63 7 99 13 100 13l9 -23c-15 -11 -22 -24 -26 -49z
" />
    <glyph glyph-name="two.numr" horiz-adv-x="352" 
d="M28 255l-6 48l81 87c53 62 77 104 76 136c0 24 -15 36 -42 36c-30 0 -60 -19 -86 -53h-10l-13 62c32 46 88 78 139 78c72 0 120 -37 120 -93s-34 -112 -133 -219l3 -6h57c39 0 52 14 59 59l61 5s-14 -77 -18 -131l-11 -10s-157 7 -222 7z" />
    <glyph glyph-name="three.numr" horiz-adv-x="310" 
d="M22 328l12 12c17 -7 37 -11 58 -11c48 0 81 21 81 50c0 31 -27 45 -89 45l-7 8l-6 48l44 9c27 12 45 33 45 56c0 19 -14 32 -36 32c-21 0 -47 -10 -72 -27h-8l-17 54c26 18 86 45 129 45c62 0 104 -31 104 -78c0 -37 -28 -71 -73 -88v-7c63 -19 92 -49 92 -94
c0 -64 -98 -129 -198 -129c-40 0 -55 20 -59 75z" />
    <glyph glyph-name="four.numr" horiz-adv-x="337" 
d="M9 357l2 52l170 239l5 1l71 -7v-221h50l7 -9l-7 -61l-49 1c1 -43 4 -84 4 -84l-7 -7l-90 -8l-5 7s3 50 4 95zM157 525l-71 -104h78v104h-7z" />
    <glyph glyph-name="five.numr" horiz-adv-x="305" 
d="M272 391c0 -69 -97 -138 -196 -138c-39 0 -54 20 -59 75l12 12c17 -7 37 -11 59 -11c48 0 80 22 80 52c0 31 -35 47 -119 53l-6 8c8 90 12 186 12 186l5 5l135 4c25 0 35 6 42 26l43 3l-18 -104l-10 -10s-62 5 -132 5l-4 -53c111 -16 156 -49 156 -113z" />
    <glyph glyph-name="six.numr" horiz-adv-x="329" 
d="M283 603c0 0 -97 -33 -139 -117l3 -6c14 7 35 17 49 20c70 0 111 -48 111 -112c0 -81 -58 -135 -149 -135c-81 0 -134 57 -134 142c0 197 235 254 235 254l8 -4zM166 434c-21 0 -38 -9 -47 -15c0 -8 -1 -18 -1 -27c0 -49 18 -76 50 -76c31 0 47 18 47 55
c0 38 -18 63 -49 63z" />
    <glyph glyph-name="seven.numr" horiz-adv-x="304" 
d="M152 254h-14l-69 20l-7 17l140 273l-78 -6c-41 -4 -48 -12 -56 -55l-46 -4s10 79 13 142l4 3s40 -3 81 -3h146l30 -37c-60 -122 -86 -182 -122 -268z" />
    <glyph glyph-name="eight.numr" horiz-adv-x="336" 
d="M30 347c0 51 40 78 69 91c-34 22 -62 51 -62 100c0 61 60 111 139 111c65 0 120 -37 120 -92c0 -45 -31 -72 -57 -86c34 -19 65 -47 65 -95c0 -70 -63 -123 -147 -123c-72 0 -127 38 -127 94zM166 310c28 0 47 17 47 42c0 28 -35 44 -73 62c-12 -9 -27 -24 -27 -50
c0 -30 22 -54 53 -54zM127 552c0 -27 31 -42 65 -57c9 10 20 24 20 46c0 30 -18 47 -44 47c-25 0 -41 -16 -41 -36z" />
    <glyph glyph-name="nine.numr" horiz-adv-x="329" 
d="M47 300c0 0 95 32 139 116l-4 6c-14 -7 -34 -17 -49 -20c-69 0 -111 48 -111 112c0 81 58 135 150 135c81 0 133 -57 133 -142c0 -197 -235 -254 -235 -254l-7 4zM163 468c20 0 38 9 47 14c1 9 2 18 2 28c0 49 -19 77 -51 77c-31 0 -46 -19 -46 -56c0 -39 17 -63 48 -63z
" />
    <glyph glyph-name="zero.dnom" horiz-adv-x="353" 
d="M169 -8c-89 0 -140 69 -140 190c0 127 60 207 156 207c89 0 140 -70 140 -190c0 -128 -59 -207 -156 -207zM180 91c52 0 79 32 79 94c0 65 -31 101 -87 101c-51 0 -77 -33 -77 -96s31 -99 85 -99z" />
    <glyph glyph-name="one.dnom" horiz-adv-x="265" 
d="M190 316c-5 -39 -8 -138 -8 -225c0 -30 8 -43 29 -43c15 0 30 2 30 2l3 -4l-9 -49s-64 3 -98 3c-45 0 -112 -7 -112 -7l5 46c41 4 59 16 59 48v197c0 31 -8 36 -32 36c-13 0 -33 -2 -33 -2l-4 5l4 42c21 2 53 6 83 10c63 8 99 14 100 14l9 -24c-15 -11 -22 -24 -26 -49z
" />
    <glyph glyph-name="two.dnom" horiz-adv-x="352" 
d="M28 -6l-6 48l81 87c53 62 77 104 76 136c0 24 -15 36 -42 36c-30 0 -60 -18 -86 -53h-10l-13 62c32 46 88 79 139 79c72 0 120 -38 120 -94c0 -55 -34 -112 -133 -219l3 -5h57c39 0 52 13 59 59l61 5s-14 -77 -18 -132l-11 -9s-157 6 -222 6z" />
    <glyph glyph-name="three.dnom" horiz-adv-x="310" 
d="M22 67l12 12c17 -6 37 -10 58 -10c48 0 81 20 81 50c0 31 -27 44 -89 44l-7 8l-6 49l44 8c27 12 45 33 45 56c0 20 -14 32 -36 32c-21 0 -47 -10 -72 -27h-8l-17 55c26 18 86 45 129 45c62 0 104 -32 104 -79c0 -37 -28 -71 -73 -88v-6c63 -20 92 -50 92 -95
c0 -64 -98 -129 -198 -129c-40 0 -55 20 -59 75z" />
    <glyph glyph-name="four.dnom" horiz-adv-x="337" 
d="M9 96l2 53l170 238l5 2l71 -8v-221h50l7 -8l-7 -62l-49 1c1 -43 4 -84 4 -84l-7 -7l-90 -7l-5 6s3 50 4 95zM157 264l-71 -104h78v104h-7z" />
    <glyph glyph-name="five.dnom" horiz-adv-x="305" 
d="M272 130c0 -69 -97 -138 -196 -138c-39 0 -54 20 -59 75l12 12c17 -6 37 -10 59 -10c48 0 80 21 80 51c0 31 -35 47 -119 53l-6 8c8 90 12 186 12 186l5 5l135 4c25 1 35 7 42 26l43 3l-18 -104l-10 -10s-62 5 -132 5l-4 -52c111 -17 156 -50 156 -114z" />
    <glyph glyph-name="six.dnom" horiz-adv-x="329" 
d="M283 342c0 0 -97 -33 -139 -117l3 -6c14 8 35 17 49 20c70 0 111 -48 111 -112c0 -81 -58 -135 -149 -135c-81 0 -134 57 -134 143c0 196 235 254 235 254l8 -4zM166 173c-21 0 -38 -9 -47 -15c0 -8 -1 -18 -1 -27c0 -49 18 -76 50 -76c31 0 47 18 47 56s-18 62 -49 62z
" />
    <glyph glyph-name="seven.dnom" horiz-adv-x="304" 
d="M152 -7h-14l-69 20l-7 17l140 273l-78 -6c-41 -3 -48 -12 -56 -55l-46 -4s10 79 13 143l4 3s40 -3 81 -3h146l30 -37c-60 -123 -86 -183 -122 -269z" />
    <glyph glyph-name="eight.dnom" horiz-adv-x="336" 
d="M30 86c0 51 40 79 69 91c-34 22 -62 51 -62 100c0 61 60 112 139 112c65 0 120 -38 120 -93c0 -45 -31 -71 -57 -85c34 -20 65 -47 65 -95c0 -71 -63 -124 -147 -124c-72 0 -127 38 -127 94zM166 50c28 0 47 16 47 41c0 29 -35 44 -73 62c-12 -9 -27 -23 -27 -49
c0 -31 22 -54 53 -54zM127 291c0 -27 31 -42 65 -57c9 10 20 24 20 46c0 30 -18 47 -44 47c-25 0 -41 -16 -41 -36z" />
    <glyph glyph-name="nine.dnom" horiz-adv-x="329" 
d="M47 39c0 0 95 32 139 117l-4 5c-14 -7 -34 -16 -49 -20c-69 0 -111 48 -111 112c0 81 58 136 150 136c81 0 133 -57 133 -143c0 -196 -235 -254 -235 -254l-7 4zM163 207c20 0 38 10 47 15c1 9 2 18 2 27c0 49 -19 77 -51 77c-31 0 -46 -18 -46 -56c0 -39 17 -63 48 -63z
" />
    <glyph glyph-name="a.sups" horiz-adv-x="341" 
d="M192 517v9c0 34 -21 54 -55 54c-38 0 -78 -29 -78 -29l-6 3l-14 44s96 52 128 52c88 0 120 -42 120 -91c0 -22 -13 -101 -13 -125c0 -15 8 -25 21 -25c14 0 29 9 29 9l10 -16s-36 -62 -67 -71c-42 0 -67 17 -70 50l-7 2c-24 -24 -55 -49 -74 -49c-52 0 -93 45 -93 102
c0 27 16 49 40 55zM189 418l2 59l-61 -15c-10 -3 -14 -8 -14 -19c0 -21 13 -37 32 -37c12 0 29 5 41 12z" />
    <glyph glyph-name="b.sups" horiz-adv-x="362" 
d="M49 718c0 29 -7 38 -29 38c-7 0 -13 -1 -17 -1l-2 4l4 40c68 9 153 22 153 22l5 -14c-9 -10 -15 -82 -18 -200c33 23 60 40 68 40c78 0 126 -54 126 -145c0 -100 -68 -168 -169 -168c-57 0 -115 11 -115 11l-6 7v366zM142 404c5 -2 23 -8 41 -8c34 0 54 28 54 80
c0 65 -21 101 -55 101c-15 0 -30 -7 -38 -14z" />
    <glyph glyph-name="c.sups" horiz-adv-x="308" 
d="M259 425l6 -2l13 -41s-61 -51 -105 -51c-94 0 -150 59 -150 154c0 98 68 165 166 165c53 0 87 -14 87 -14l3 -7s-11 -49 -14 -105l-51 -3v22c0 29 -12 43 -35 43c-35 0 -52 -26 -52 -75c0 -69 22 -104 65 -104c36 0 67 18 67 18z" />
    <glyph glyph-name="d.sups" horiz-adv-x="375" 
d="M223 380c-41 -30 -67 -46 -74 -46c-78 0 -126 55 -126 146c0 100 68 167 169 167c10 0 19 0 27 -1v70c0 29 -6 38 -29 38c-5 0 -16 -2 -16 -2l5 47c72 7 149 22 149 22l7 -12c-13 -18 -23 -181 -23 -375c0 -15 8 -25 20 -25s25 9 25 9l11 -16s-31 -57 -71 -71
c-41 0 -65 17 -70 48zM219 419v157s-17 9 -40 9c-34 0 -54 -28 -54 -81c0 -63 21 -100 55 -100c22 0 39 15 39 15z" />
    <glyph glyph-name="e.sups" horiz-adv-x="331" 
d="M124 526l75 4c9 1 11 3 11 14c0 30 -13 45 -35 45c-32 0 -49 -20 -51 -63zM291 484h-166v-4c5 -50 31 -76 76 -76c42 0 80 20 80 20l5 -3l12 -39s-67 -51 -119 -51c-98 0 -156 57 -156 154s67 165 163 165c78 0 117 -40 117 -119c0 -20 -4 -40 -4 -40z" />
    <glyph glyph-name="f.sups" horiz-adv-x="249" 
d="M23 585l-3 4l6 38l41 6v8c0 110 68 180 173 180c47 0 77 -14 77 -14l4 -12s-12 -30 -24 -65l-9 -3s-28 26 -67 26c-44 0 -58 -23 -59 -92v-29c48 0 83 2 83 2l3 -4l-8 -49s-32 2 -79 2l-1 -166c0 -19 8 -27 25 -27c19 0 41 1 41 1l2 -3l-6 -51s-73 2 -102 2
c-38 0 -95 -4 -95 -4l5 47c27 3 37 13 37 36v141c-1 20 -10 24 -44 26z" />
    <glyph glyph-name="g.sups" horiz-adv-x="361" 
d="M170 421c-14 0 -29 2 -42 4c-7 -5 -13 -12 -13 -19c0 -48 226 19 226 -100c0 -63 -88 -123 -181 -123c-77 0 -127 36 -127 93c18 18 67 43 67 43v4c-42 6 -68 32 -68 67c19 21 56 45 56 45v6c-33 18 -51 50 -51 90c0 71 59 120 145 120c28 0 48 -6 69 -6
c33 2 95 23 95 23l4 -4l-9 -57s-22 -2 -45 -3l-3 -4c18 -18 27 -39 27 -63c0 -68 -61 -116 -150 -116zM181 472c27 0 41 19 41 60s-17 62 -48 62c-25 0 -39 -20 -39 -60s16 -62 46 -62zM184 239c36 0 67 18 67 40c0 18 -11 21 -103 34c0 0 -17 -18 -17 -37
c0 -22 21 -37 53 -37z" />
    <glyph glyph-name="h.sups" horiz-adv-x="383" 
d="M17 337l6 47c23 2 30 11 30 34v300c0 29 -6 37 -30 37h-15l-3 4l4 40c68 9 153 22 153 22l6 -14c-10 -10 -17 -89 -20 -215c22 21 65 58 83 58c67 0 104 -30 104 -85c0 -26 -13 -122 -13 -152c0 -20 5 -28 19 -28c7 0 19 1 19 1l1 -3l-6 -46s-52 2 -78 2
c-25 0 -78 -3 -78 -3l5 47c20 4 27 13 28 33l2 103c0 36 -11 52 -37 52c-19 0 -41 -16 -50 -23c-1 -42 -1 -88 -1 -137c0 -18 4 -25 18 -25c5 0 13 1 13 1l2 -4l-6 -46s-50 2 -78 2c-35 0 -78 -2 -78 -2z" />
    <glyph glyph-name="i.sups" horiz-adv-x="216" 
d="M112 703c-33 0 -52 20 -52 54c0 35 22 59 58 59c33 0 53 -21 53 -54c0 -35 -23 -59 -59 -59zM22 332l6 49c26 3 38 15 38 39v128c0 29 -7 37 -30 37c-5 0 -15 -2 -15 -2l4 44c69 8 142 23 142 23l7 -13c-10 -19 -15 -104 -15 -227c0 -17 4 -24 18 -24c7 0 18 1 18 1l2 -3
l-7 -47s-52 2 -81 2c-35 0 -87 -7 -87 -7z" />
    <glyph glyph-name="j.sups" horiz-adv-x="208" 
d="M37 180l-25 23l1 8c38 37 49 70 49 151v186c0 28 -6 37 -23 37c-10 0 -21 -2 -21 -2l5 44c60 8 140 23 140 23l7 -13c-10 -22 -15 -126 -15 -307c0 -60 -46 -117 -118 -150zM108 703c-34 0 -53 20 -53 54c0 35 24 59 59 59c33 0 53 -21 53 -54c0 -35 -23 -59 -59 -59z
" />
    <glyph glyph-name="k.sups" horiz-adv-x="370" 
d="M17 336l6 47c26 3 30 14 30 43v292c0 22 -4 32 -16 35c-7 3 -21 2 -30 2c-1 2 -1 4 -2 6l4 38c68 9 153 22 153 22l6 -14c-14 -14 -22 -169 -22 -397c0 -18 4 -25 18 -25h15l1 -3l-7 -45s-51 2 -78 2c-35 0 -78 -3 -78 -3zM214 383l-61 109l3 17l56 58c9 9 13 14 13 21
c0 10 -10 13 -34 13l-2 3l6 39s48 -1 86 -1c33 0 75 2 75 2l2 -3l-6 -44c-39 -17 -74 -54 -107 -86l50 -82c18 -29 37 -43 62 -46l3 -6l-5 -39s-29 -6 -48 -7c-14 -1 -26 0 -32 0c-27 4 -42 17 -61 52z" />
    <glyph glyph-name="l.sups" horiz-adv-x="201" 
d="M16 335l6 47c27 5 31 16 31 44v292c0 22 -4 32 -16 35c-7 3 -21 2 -30 2c-1 2 -1 4 -2 6l4 38c68 9 153 22 153 22l6 -14c-14 -14 -22 -169 -22 -397c0 -18 4 -25 18 -25h22l1 -3l-7 -45s-56 2 -85 2c-35 0 -79 -4 -79 -4z" />
    </font>
</defs>
</svg>
