<?xml version="1.0" standalone="no"?>
<!DOCTYPE svg PUBLIC "-//W3C//DTD SVG 1.1//EN" "http://www.w3.org/Graphics/SVG/1.1/DTD/svg11.dtd" >
<svg version="1.1" xmlns="http://www.w3.org/2000/svg">
<metadata>
Created by FontForge 20120731 at Fri Aug  1 16:50:15 2014
 By Alfred Xing
Copyright \(c\) 2011, Juan Pablo del Peral \(juan@huertatipografica.com.ar\), with Reserved Font Names "Alegreya" "Alegreya SC"
</metadata>
<defs>
<font id="Alegreya-BoldItalic" horiz-adv-x="384" >
  <font-face 
    font-family="Alegreya"
    font-weight="700"
    font-style="italic"
    font-stretch="normal"
    units-per-em="1000"
    panose-1="2 0 5 3 5 0 0 2 0 4"
    ascent="800"
    descent="-200"
    x-height="465"
    cap-height="649"
    bbox="-233 -318 1005 977"
    underline-thickness="56"
    underline-position="-59"
    stemh="91"
    stemv="122"
    unicode-range="U+0020-FB02"
  />
<missing-glyph horiz-adv-x="166" 
 />
    <glyph glyph-name="fi" unicode="fi" horiz-adv-x="573" 
d="M459 109l4 -4c8 0 16 6 66 50l17 -2l17 -35c-80 -87 -125 -122 -165 -128c-11 -1 -19 -1 -27 1c-21 5 -29 21 -29 47c0 0 48 286 48 318c0 27 -11 39 -38 39h-125l-9 -6l-43 -393c-14 -132 -91 -238 -201 -238c-52 0 -100 23 -111 54c9 30 35 83 52 107h16
c2 -54 26 -81 71 -81c37 0 66 30 69 80c3 35 4 70 5 99l28 367l-9 7l-71 2l-3 5l5 46l84 13l5 50c16 146 149 235 262 235c46 0 103 -10 136 -25l4 -11l-45 -96l-19 -3c-52 35 -88 48 -120 48c-64 0 -89 -37 -98 -115l-10 -85h105c53 0 179 4 188 7l12 -16
s-47 -168 -71 -337z" />
    <glyph glyph-name="fl" unicode="fl" horiz-adv-x="560" 
d="M24 393l-3 5l5 46l84 13l7 64c13 119 132 221 250 221c43 0 96 -8 126 -20l4 -11l-40 -91l-19 -3c-50 27 -86 38 -119 38c-48 0 -73 -30 -82 -99l-12 -101h124l5 -5l-10 -56l-117 1l-9 -6l-47 -431c-12 -109 -103 -200 -197 -200c-52 0 -100 23 -111 54
c9 30 35 83 52 107h16c2 -54 26 -81 71 -81c37 0 66 30 69 80c4 43 4 82 6 115l27 351l-9 7zM447 109l3 -4c9 0 16 6 67 50l17 -2l16 -35c-87 -94 -135 -130 -173 -130c-32 0 -48 16 -48 47c0 0 91 562 91 598c0 25 -11 36 -38 36h-35l9 59c76 0 193 9 193 9l12 -16
s-86 -406 -114 -612z" />
    <glyph glyph-name="fj" unicode="fj" horiz-adv-x="562" 
d="M24 393l-3 5l5 46l84 13l7 64c14 119 137 221 260 221c40 0 88 -8 116 -20l4 -11l-44 -96l-20 -3c-43 31 -75 43 -104 43c-54 0 -83 -30 -92 -99l-12 -101h236l5 -5l-10 -56h-229l-9 -5l-47 -431c-12 -109 -103 -200 -197 -200c-52 0 -100 23 -111 54c9 30 35 83 52 107
h16c2 -54 26 -81 71 -81c37 0 66 30 69 80c4 43 4 82 6 115l27 351l-9 7zM454 18c-16 -122 -89 -209 -199 -262l-28 30l3 12c75 55 103 107 119 238c0 0 50 288 50 320c0 27 -12 38 -39 38h-34l9 59c75 0 190 9 190 9l13 -16s-52 -206 -84 -428z" />
    <glyph glyph-name=".notdef" horiz-adv-x="166" 
 />
    <glyph glyph-name="space" unicode=" " horiz-adv-x="166" 
 />
    <glyph glyph-name="exclam" unicode="!" horiz-adv-x="274" 
d="M91 -11c-43 0 -65 27 -65 65c0 54 37 93 91 93c42 0 65 -26 65 -65c0 -53 -36 -93 -91 -93zM89 236l32 430l15 17l135 22l15 -18l-117 -453l-66 -11z" />
    <glyph glyph-name="quotedbl" unicode="&#x22;" horiz-adv-x="311" 
d="M192 654l6 -10s-28 -110 -63 -216l-51 -20l-14 4c17 115 21 228 21 228zM334 654l6 -10s-28 -110 -63 -216l-51 -20l-14 4c16 115 20 228 20 228z" />
    <glyph glyph-name="numbersign" unicode="#" horiz-adv-x="510" 
d="M62 351l-4 11l22 70l95 -1l43 139l74 7l10 -6l-46 -140h44l44 -1l43 140l74 7l10 -6l-46 -140l93 2l4 -12l-22 -70h-100l-9 -28l-20 -65l92 1l4 -12l-21 -69h-98l-41 -134l-72 -11l-10 8l44 137l-53 1l-37 -1l-41 -134l-73 -11l-9 8l43 137l-91 -1l-4 12l22 69l97 -1
l16 52l13 42h-90zM222 323l-20 -66h42l48 -1l17 53l13 43h-55h-36z" />
    <glyph glyph-name="dollar" unicode="$" horiz-adv-x="436" 
d="M140 37h76l-43 -188l-70 -8l-6 7zM314 462h-76l43 187l71 9l5 -9zM169 -9c-87 0 -149 30 -149 30l-6 12s22 70 31 131l76 6c-9 -75 8 -102 70 -102c49 0 82 23 82 57c0 33 -39 53 -85 75c-59 30 -127 64 -127 138c0 101 96 172 234 172c81 0 146 -21 146 -21l5 -12
s-22 -63 -36 -134l-70 -5l-7 5s5 24 5 36c0 35 -21 49 -66 49c-43 0 -77 -23 -77 -55c0 -26 25 -43 59 -61c63 -33 157 -65 157 -150c0 -103 -94 -171 -242 -171z" />
    <glyph glyph-name="percent" unicode="%" horiz-adv-x="692" 
d="M188 408c47 0 86 16 86 76c0 41 -27 67 -80 67c-56 0 -85 -28 -85 -76c0 -47 34 -67 79 -67zM168 309c-76 0 -124 51 -124 138c0 126 73 207 174 207c79 0 122 -56 122 -136c0 -121 -67 -209 -172 -209zM529 88c46 0 86 16 86 75c0 41 -27 68 -80 68
c-56 0 -86 -29 -86 -76c0 -48 34 -67 80 -67zM508 -12c-75 0 -123 52 -123 138c0 126 73 207 174 207c79 0 122 -56 122 -136c0 -121 -68 -209 -173 -209zM602 653l7 -19s-176 -267 -266 -407c-90 -144 -202 -320 -202 -320l-65 27l-5 14s121 180 207 316l262 414z" />
    <glyph glyph-name="ampersand" unicode="&#x26;" horiz-adv-x="571" 
d="M198 468c0 -59 42 -101 103 -101l248 19c44 3 72 17 116 55l22 -16l-41 -81c-19 -37 -39 -49 -83 -49h-71l-5 -7c14 -15 23 -42 23 -68c0 -121 -131 -232 -272 -232c-125 0 -207 62 -207 160c0 74 59 141 150 171c-60 29 -92 80 -92 142c0 104 111 193 236 193
c45 0 109 -10 160 -25l6 -10c-17 -46 -37 -118 -42 -154l-80 -5s7 33 7 46c0 37 -25 59 -70 59c-66 0 -108 -37 -108 -97zM411 213c0 48 -21 82 -52 82h-110c-71 -34 -98 -69 -98 -120c0 -60 44 -102 109 -102c88 0 151 57 151 140z" />
    <glyph glyph-name="quotesingle" unicode="'" horiz-adv-x="170" 
d="M192 654l6 -10s-28 -110 -63 -216l-51 -20l-14 4c17 115 21 228 21 228z" />
    <glyph glyph-name="parenleft" unicode="(" horiz-adv-x="298" 
d="M58 163l21 173c30 245 210 313 210 313h11l27 -46l-2 -6s-111 -54 -134 -246l-21 -173c-26 -209 74 -274 74 -274l-1 -8l-46 -42h-8s-161 67 -131 309z" />
    <glyph glyph-name="parenright" unicode=")" horiz-adv-x="302" 
d="M246 340l-22 -173c-30 -245 -209 -313 -209 -313h-11l-26 46l1 6s110 54 134 246l21 173c26 209 -74 274 -74 274l1 8l46 42h8s160 -67 131 -309z" />
    <glyph glyph-name="asterisk" unicode="*" horiz-adv-x="393" 
d="M101 673c0 0 50 -26 102 -66l-7 -41l-8 -6c-52 17 -108 30 -108 30s0 45 11 80zM101 469c0 0 40 39 94 77l37 -20l3 -8c-32 -45 -61 -95 -61 -95s-44 14 -73 36v10zM294 406c0 0 -24 50 -44 114l31 29h9c32 -44 70 -88 70 -88s-26 -37 -56 -58zM414 571
c0 0 -55 -8 -121 -7l-18 37l2 10c53 17 106 40 106 40s27 -37 37 -72zM295 736c0 0 -11 -55 -31 -118l-42 -5l-7 4c-1 56 -7 113 -7 113s44 14 80 14z" />
    <glyph glyph-name="plus" unicode="+" horiz-adv-x="488" 
d="M317 497l11 -7s-18 -106 -28 -184c75 1 176 6 176 6l5 -12l-22 -92l-172 -1c-10 -80 -19 -168 -19 -168l-91 -15l-9 8s12 93 22 175c-79 0 -169 -1 -169 -1l-6 11l25 90s86 -1 163 -1l22 180z" />
    <glyph glyph-name="comma" unicode="," horiz-adv-x="229" 
d="M18 94l2 14c24 18 54 34 79 34c39 0 68 -33 68 -89c0 -73 -73 -147 -153 -193l-38 30v17c43 29 72 74 72 114c0 27 -13 55 -30 73z" />
    <glyph glyph-name="hyphen" unicode="-" horiz-adv-x="312" 
d="M280 313l8 -13l-18 -80l-231 -26l-8 12l17 78l159 19c55 6 73 10 73 10z" />
    <glyph glyph-name="period" unicode="." horiz-adv-x="230" 
d="M82 -11c-44 0 -65 27 -65 65c0 54 37 93 91 93c42 0 65 -26 65 -65c0 -53 -37 -93 -91 -93z" />
    <glyph glyph-name="slash" unicode="/" horiz-adv-x="317" 
d="M352 675l11 -15s-111 -283 -172 -445c-61 -165 -121 -325 -121 -325h-85l-7 11s71 173 127 325l166 449h81z" />
    <glyph glyph-name="zero" unicode="0" horiz-adv-x="481" 
d="M200 -12c-113 0 -178 79 -178 208c0 184 112 314 266 314c112 0 176 -79 176 -206c0 -185 -110 -316 -264 -316zM231 119c92 0 148 54 148 139c0 71 -47 116 -127 116c-91 0 -146 -55 -146 -140c0 -70 46 -115 125 -115z" />
    <glyph glyph-name="one" unicode="1" horiz-adv-x="353" 
d="M271 402c-19 -91 -45 -213 -45 -291c0 -33 11 -46 36 -46c23 0 47 3 47 3l2 -5l-19 -67s-90 4 -139 4c-61 0 -154 -12 -153 -11l14 63c66 6 90 26 97 92l27 215c6 48 -7 57 -42 57c-18 0 -48 -5 -48 -5l-5 7l13 57c23 2 73 8 119 15c95 13 135 20 136 20l7 -30
c-25 -19 -36 -37 -47 -78z" />
    <glyph glyph-name="two" unicode="2" horiz-adv-x="467" 
d="M-8 -9l-4 33l82 83c122 126 170 195 171 244c2 34 -16 53 -52 53c-37 0 -81 -29 -116 -77h-13l-9 74c59 67 135 109 204 109c84 0 138 -46 138 -115c0 -65 -27 -110 -214 -294l4 -8h87c59 0 81 20 102 91l78 7s-34 -107 -50 -188l-16 -12s-237 9 -329 9z" />
    <glyph glyph-name="three" unicode="3" horiz-adv-x="418" 
d="M-17 2l15 14c23 -9 50 -13 81 -13c85 0 151 44 151 105c0 48 -42 70 -131 70l-8 10l1 62l64 14c49 22 83 62 83 102c0 29 -21 48 -52 48c-32 0 -73 -19 -111 -49c-3 0 -8 -1 -12 -1l-12 71c32 22 125 75 190 75c81 0 132 -41 132 -104c0 -61 -50 -119 -125 -149l-1 -8
c78 -22 119 -64 119 -120c0 -110 -170 -229 -318 -229c-55 0 -71 28 -66 102z" />
    <glyph glyph-name="four" unicode="4" horiz-adv-x="454" 
d="M-17 73c3 22 8 45 11 67l300 368c2 0 5 2 6 2l84 -11l-42 -342h78l7 -11l-19 -83s-31 1 -76 3c-8 -73 -12 -145 -12 -145l-9 -9l-117 -12l-6 10s14 87 25 159c-75 2 -161 4 -230 4zM237 335l-140 -178h127l23 178h-10z" />
    <glyph glyph-name="five" unicode="5" horiz-adv-x="412" 
d="M361 145c0 -125 -177 -245 -323 -245c-51 0 -72 24 -66 102l15 14c24 -9 51 -13 82 -13c86 0 154 43 154 104c0 47 -45 72 -169 91l-7 11c29 131 53 270 53 270l8 8l188 7c37 2 51 10 66 40l55 4l-43 -147l-14 -13s-86 8 -190 8l-18 -92c133 -24 209 -66 209 -149z" />
    <glyph glyph-name="six" unicode="6" horiz-adv-x="448" 
d="M430 538c0 0 -161 -58 -239 -208l3 -6c10 3 62 33 85 37c94 0 144 -68 144 -149c0 -127 -98 -224 -238 -224c-104 0 -164 76 -164 185c0 325 387 425 387 425l9 -5zM230 273c-33 0 -64 -18 -79 -28c-5 -26 -10 -46 -10 -72c0 -64 25 -104 71 -104c58 0 88 45 88 115
c0 51 -25 89 -70 89z" />
    <glyph glyph-name="seven" unicode="7" horiz-adv-x="413" 
d="M156 -100h-17l-86 27l-8 25l267 442l-126 -8c-62 -5 -75 -20 -95 -88l-60 -6s27 114 43 205l7 5s57 -4 117 -4h210l33 -48c-118 -203 -177 -318 -240 -437z" />
    <glyph glyph-name="eight" unicode="8" horiz-adv-x="462" 
d="M22 117c0 91 77 139 126 161c-42 30 -77 70 -77 133c0 101 98 187 218 187c83 0 152 -48 152 -126c0 -79 -59 -126 -104 -149c44 -29 82 -68 82 -132c0 -112 -105 -203 -232 -203c-94 0 -165 50 -165 129zM211 62c48 0 88 36 88 85c0 46 -49 71 -101 100
c-26 -17 -64 -47 -64 -102c0 -45 30 -83 77 -83zM191 446c0 -43 42 -67 89 -93c22 18 48 47 48 95c0 46 -25 71 -62 71c-44 0 -75 -34 -75 -73z" />
    <glyph glyph-name="nine" unicode="9" horiz-adv-x="448" 
d="M23 -40c0 0 161 57 239 207l-4 7c-9 -3 -61 -34 -84 -37c-94 0 -143 68 -143 149c0 127 97 224 237 224c104 0 165 -76 165 -185c0 -325 -387 -426 -387 -426l-9 6zM223 225c32 0 64 18 78 27c7 27 10 51 10 72c0 65 -24 105 -69 105c-59 0 -89 -45 -89 -116
c0 -51 25 -88 70 -88z" />
    <glyph glyph-name="colon" unicode=":" horiz-adv-x="229" 
d="M82 -11c-44 0 -65 27 -65 65c0 54 37 93 91 93c42 0 65 -26 65 -65c0 -53 -37 -93 -91 -93zM115 262c-44 0 -65 27 -65 65c0 54 37 93 91 93c42 0 65 -26 65 -65c0 -53 -37 -93 -91 -93z" />
    <glyph glyph-name="semicolon" unicode=";" horiz-adv-x="229" 
d="M17 94l2 14c24 18 54 34 79 34c39 0 68 -33 68 -89c0 -73 -73 -147 -153 -193l-38 30v17c43 29 72 74 72 114c0 27 -13 55 -30 73zM115 262c-44 0 -65 27 -65 65c0 54 37 93 91 93c42 0 65 -26 65 -65c0 -53 -37 -93 -91 -93z" />
    <glyph glyph-name="less" unicode="&#x3c;" horiz-adv-x="450" 
d="M33 213l-7 13l14 97l193 82c85 36 178 76 178 76l12 -8l11 -76s-103 -38 -182 -71l-122 -50l-1 -7l121 -60c70 -34 148 -72 148 -72l3 -15l-50 -65s-77 39 -147 74c-63 31 -171 82 -171 82z" />
    <glyph glyph-name="equal" unicode="=" horiz-adv-x="488" 
d="M465 224l5 -12l-22 -92l-219 -1c-86 0 -219 -1 -219 -1l-6 11l25 90s140 -1 225 -1c78 0 211 6 211 6zM487 402l5 -12l-21 -92l-220 -1c-87 0 -219 -1 -219 -1l-6 11l25 90s139 -1 225 -1c77 0 211 6 211 6z" />
    <glyph glyph-name="greater" unicode="&#x3e;" horiz-adv-x="450" 
d="M428 325l6 -13l-13 -98l-193 -82c-85 -36 -179 -75 -179 -75l-11 7l-12 77s103 37 182 70l122 50l1 7l-121 60c-70 34 -148 72 -148 72l-3 16l50 65s77 -40 147 -75c63 -30 172 -81 172 -81z" />
    <glyph glyph-name="question" unicode="?" horiz-adv-x="358" 
d="M96 221l-8 126l5 14l111 63c35 20 59 46 59 80c0 59 -61 90 -163 96l-6 14l46 84l16 7c134 -4 232 -72 232 -161c0 -97 -70 -137 -184 -210l-3 -7l3 -83l-7 -11l-90 -18zM118 -11c-43 0 -65 27 -65 65c0 54 36 93 91 93c42 0 65 -26 65 -65c0 -53 -37 -93 -91 -93z" />
    <glyph glyph-name="at" unicode="@" horiz-adv-x="836" 
d="M485 -12c-28 0 -44 16 -44 41c0 16 23 121 34 164l-8 1c-61 -111 -110 -170 -161 -206c-74 0 -115 57 -115 146c0 164 127 332 241 332l87 -18l7 22l12 7l80 -14l8 -17s-53 -204 -77 -362l6 -6c120 0 189 90 189 216c0 169 -117 268 -299 268c-202 0 -340 -160 -340 -357
c0 -210 124 -356 379 -363v-16l-31 -50c-280 6 -437 172 -437 403c0 242 197 463 457 463c217 0 358 -130 358 -316c0 -190 -126 -338 -346 -338zM337 105c29 0 100 114 153 253c-7 4 -49 29 -88 29c-42 0 -86 -98 -86 -198c0 -46 9 -84 21 -84z" />
    <glyph glyph-name="A" unicode="A" horiz-adv-x="604" 
d="M522 131c8 -48 24 -64 66 -69l4 -7l-14 -58s-77 3 -119 3c-83 0 -165 -8 -165 -8l-4 8l12 59c65 5 79 13 79 42c0 7 -1 18 -2 29l-9 77c-13 1 -69 2 -87 2c-29 0 -80 -5 -93 -7l-32 -77c-7 -17 -10 -27 -10 -37c0 -18 12 -26 39 -26h42l3 -6l-14 -62s-79 6 -140 6
c-53 0 -117 -3 -117 -3l15 66c30 5 50 22 71 67l230 506l157 17l11 -5s46 -345 77 -517zM321 512l-96 -227h67c21 0 49 2 71 4l-28 223h-14z" />
    <glyph glyph-name="B" unicode="B" horiz-adv-x="607" 
d="M149 0c-56 0 -144 -10 -144 -10l15 66c57 11 75 28 81 80l49 392c4 37 -2 50 -25 50c-11 0 -33 -2 -33 -2l-6 8l17 60s100 -3 134 -3c33 0 140 6 140 6c123 0 197 -49 197 -136c0 -72 -43 -130 -124 -172c76 -24 119 -73 119 -136c0 -127 -109 -213 -272 -213
c-34 1 -109 10 -148 10zM338 282l-88 -1l-23 -148c-6 -42 18 -59 84 -59c68 0 111 44 111 113c0 48 -28 82 -84 95zM262 368c0 0 73 -9 90 -9c0 0 80 28 80 122c0 58 -38 85 -120 85c-14 0 -17 -4 -20 -18c-11 -56 -23 -134 -30 -180z" />
    <glyph glyph-name="C" unicode="C" horiz-adv-x="594" 
d="M294 -12c-162 0 -262 101 -262 268c0 242 145 397 370 397c81 0 197 -24 197 -24l4 -13s-30 -83 -49 -188l-97 -6s9 47 9 66c0 47 -33 71 -99 71c-112 0 -179 -99 -179 -284c0 -126 46 -195 131 -195c69 0 109 38 138 138l97 7s-29 -103 -42 -185l-10 -12
s-88 -40 -208 -40z" />
    <glyph glyph-name="D" unicode="D" horiz-adv-x="668" 
d="M283 -12c0 0 -95 12 -150 12c-51 0 -126 -10 -126 -10l15 67c55 10 72 28 80 84l47 382c5 43 0 54 -23 54c-13 0 -33 -2 -33 -2l-4 9l15 60s85 -3 123 -3c45 0 145 5 145 5c175 0 287 -96 287 -258c0 -229 -160 -400 -376 -400zM320 562c-21 0 -27 -5 -30 -24
c-26 -159 -63 -389 -63 -413c0 -41 18 -53 72 -53c127 0 205 116 205 304c0 125 -61 186 -184 186z" />
    <glyph glyph-name="E" unicode="E" horiz-adv-x="576" 
d="M225 114c0 -33 13 -37 57 -37c118 0 137 13 164 114l83 7l6 -10s-29 -89 -50 -185l-11 -10s-179 7 -299 7c-86 0 -170 -10 -170 -10l16 67c54 8 72 27 79 85l48 382c5 43 1 54 -24 54c-11 0 -30 -2 -30 -2l-5 9l15 59s106 -3 178 -3c138 0 236 4 296 12l6 -10
s-28 -88 -44 -181l-90 -6s8 35 8 57c0 41 -23 47 -115 47c-45 0 -50 -3 -55 -33l-26 -158c20 0 62 -1 90 -1c31 0 113 8 113 8l6 -8l-24 -85s-77 3 -125 3c-28 0 -57 -4 -74 -6c-11 -75 -23 -138 -23 -166z" />
    <glyph glyph-name="F" unicode="F" horiz-adv-x="514" 
d="M246 262l-18 -122c-6 -47 1 -64 34 -64c25 0 63 5 63 5l7 -10l-19 -75s-102 4 -150 4c-74 0 -158 -11 -158 -11l15 66c56 11 73 30 80 87l48 382c5 43 1 54 -24 54c-11 0 -30 -2 -30 -2l-5 9l15 59s106 -3 178 -3c121 0 217 4 273 12l6 -10s-26 -90 -42 -182l-89 -6
s8 36 8 59c0 39 -21 46 -95 46c-45 0 -50 -3 -55 -33l-28 -175l90 -1c29 0 102 8 102 8l6 -8l-23 -85s-71 3 -115 3c-29 0 -57 -4 -74 -7z" />
    <glyph glyph-name="G" unicode="G" horiz-adv-x="629" 
d="M294 -12c-162 0 -262 101 -262 268c0 242 145 397 370 397c81 0 197 -24 197 -24l4 -13s-30 -76 -49 -181l-97 -7s9 43 9 62c0 46 -33 69 -99 69c-112 0 -179 -99 -179 -284c0 -126 46 -195 131 -195c57 0 97 26 97 26l11 95c4 39 -2 48 -36 48h-50l-4 8l19 70
c-1 0 81 -2 135 -2c40 0 95 4 95 5l2 -38c-24 -15 -38 -40 -44 -82c-8 -41 -17 -117 -17 -136c0 -14 1 -33 1 -33l-10 -12s-85 -41 -224 -41z" />
    <glyph glyph-name="H" unicode="H" horiz-adv-x="720" 
d="M656 529c-24 -134 -62 -382 -62 -421c0 -33 9 -44 33 -44c17 0 36 3 36 3c1 -2 3 -4 4 -7l-16 -63s-67 3 -119 3h-40c-40 0 -118 -2 -118 -2l16 65c53 1 71 20 80 92l16 129s-68 1 -103 1c-25 0 -136 -10 -136 -10l-14 -110c-4 -27 -9 -57 -7 -73c1 -22 9 -28 30 -28
c19 0 35 3 35 3c1 -2 3 -5 4 -7l-16 -63s-82 3 -118 3c-58 0 -154 -6 -155 -9l15 64c63 13 74 31 82 101l45 370c5 42 0 52 -28 52c-11 0 -29 -1 -29 -1l-4 8l14 58s76 -2 116 -2c48 0 147 8 147 8l-13 -66c-50 -8 -58 -18 -66 -72l-24 -144c41 0 82 -1 122 -2
c47 0 75 2 113 7l20 154c6 41 -1 52 -28 52c-12 0 -30 -1 -30 -1l-4 8l15 58c-1 0 105 -2 136 -2c49 1 130 8 130 8l-12 -65c-48 -7 -60 -17 -67 -55z" />
    <glyph glyph-name="I" unicode="I" horiz-adv-x="352" 
d="M288 529c-24 -139 -63 -384 -63 -425c0 -31 9 -40 31 -40s42 3 42 3l3 -7l-16 -63s-100 3 -143 3c-55 0 -137 -9 -137 -9l15 64c58 12 74 29 81 84l47 387c5 41 0 52 -28 52c-12 0 -33 -1 -33 -1c-2 3 -3 5 -4 8l14 58c26 0 89 -2 135 -2c43 0 139 8 139 8l-14 -66
c-50 -7 -62 -17 -69 -54z" />
    <glyph glyph-name="J" unicode="J" horiz-adv-x="321" 
d="M89 123l50 403c5 42 0 52 -26 52c-14 0 -42 -3 -42 -3l-3 8l14 58l120 1c67 0 148 8 148 8l-14 -67c-42 -8 -50 -15 -57 -54c-16 -91 -51 -320 -64 -427c-18 -133 -89 -210 -234 -255l-23 40l4 11c85 55 111 100 127 225z" />
    <glyph glyph-name="K" unicode="K" horiz-adv-x="637" 
d="M101 139l47 387c5 42 0 52 -28 52c-11 0 -29 -1 -29 -1l-4 8l15 59s103 -3 130 -3c41 0 135 8 135 8l-13 -66c-50 -10 -64 -22 -69 -58l-58 -393c-7 -54 -1 -68 29 -68c20 0 38 3 38 3l4 -7l-17 -63s-97 3 -139 3c-54 0 -136 -3 -136 -3l17 63c57 9 71 23 78 79zM269 316
l5 21l157 158c23 23 35 43 35 57c0 17 -13 25 -46 27l-3 7l15 61s81 -6 121 -6c36 0 114 5 114 5l5 -11l-14 -56c-46 -18 -75 -42 -132 -103l-122 -129l102 -202c31 -61 57 -85 98 -88l6 -8l-14 -52s-98 -12 -115 -12c-41 0 -70 27 -97 84z" />
    <glyph glyph-name="L" unicode="L" horiz-adv-x="513" 
d="M178 0c-86 0 -168 -10 -168 -10l16 67c50 8 67 27 74 85l48 384c5 42 -2 52 -29 52c-10 0 -29 -1 -29 -1c-1 3 -3 5 -4 8l15 58c25 0 87 -2 131 -2s151 8 151 8l-15 -69c-62 -8 -73 -15 -84 -75c-19 -101 -57 -351 -57 -387c0 -32 11 -41 53 -41c91 0 113 23 142 151
l84 8l6 -9s-29 -108 -54 -225l-11 -10s-155 8 -269 8z" />
    <glyph glyph-name="M" unicode="M" horiz-adv-x="811" 
d="M397 -8l-73 -8c-35 195 -64 342 -89 465h-8s-63 -343 -63 -359c0 -18 8 -26 27 -26c9 0 33 1 33 1l5 -5l-19 -64s-83 4 -115 4c-38 0 -98 -8 -98 -8l15 66c38 5 55 23 66 72c12 55 85 388 85 413c0 24 -15 35 -67 39l-5 6l16 58s87 -5 122 -5c41 0 107 4 107 4
c31 -227 71 -415 71 -415h8s84 189 172 413c30 1 81 -3 120 -1c38 1 98 5 98 5l4 -4l-14 -60c-55 -4 -71 -16 -75 -53c-5 -43 -16 -255 -19 -374c-3 -73 5 -92 35 -92c13 0 28 2 28 2c1 -2 2 -3 3 -5l-16 -64s-58 3 -99 3c-30 0 -136 -6 -143 -8l16 66c38 5 55 19 59 50
c5 39 24 341 24 341h-9c-46 -101 -123 -271 -202 -457z" />
    <glyph glyph-name="N" unicode="N" horiz-adv-x="703" 
d="M501 230h10l35 305c3 31 -5 43 -26 43c-14 0 -29 -1 -33 -1l-3 8l14 60s82 -4 125 -4c47 0 115 6 115 6l-13 -66c-43 -6 -62 -23 -68 -63l-78 -533l-106 -13c-118 251 -224 451 -224 451h-9l-40 -315c-4 -34 3 -45 28 -45c11 0 41 2 41 2l5 -6l-17 -63s-83 4 -125 4
c-52 0 -120 -8 -120 -8l16 66c39 5 59 22 65 63l61 397c5 43 -9 55 -71 62c-2 4 -4 6 -6 10l13 56s64 -5 113 -5c42 0 93 4 93 4c99 -214 205 -415 205 -415z" />
    <glyph glyph-name="O" unicode="O" horiz-adv-x="650" 
d="M311 73c106 0 174 108 174 298c0 118 -49 188 -129 188c-104 0 -171 -110 -171 -298c0 -118 47 -188 126 -188zM285 -12c-153 0 -253 102 -253 267c0 236 141 398 353 398c157 0 256 -99 256 -263c0 -237 -145 -402 -356 -402z" />
    <glyph glyph-name="P" unicode="P" horiz-adv-x="558" 
d="M86 584l16 59c22 0 80 -2 121 -2c35 0 139 5 139 5c160 0 221 -78 221 -165c0 -133 -124 -253 -255 -253h-87l-15 -103c-7 -46 2 -61 39 -61c16 0 42 3 42 3l3 -6l-17 -64s-86 3 -122 3c-49 0 -161 -7 -162 -8l15 66c54 10 70 27 77 83l47 383c5 42 0 54 -23 54
c-13 0 -34 -2 -34 -2zM254 315l82 -12c71 16 107 73 107 158c0 71 -41 102 -129 102c-19 0 -20 -2 -22 -17c-13 -69 -27 -151 -38 -231z" />
    <glyph glyph-name="Q" unicode="Q" horiz-adv-x="654" 
d="M280 -12l129 34l-1 -16c94 -78 172 -114 243 -114c44 0 83 10 83 10l7 -6l6 -41s-113 -82 -140 -82c-85 0 -136 32 -327 215zM311 73c106 0 174 108 174 298c0 118 -49 188 -129 188c-104 0 -171 -110 -171 -298c0 -118 47 -188 126 -188zM285 -12
c-153 0 -253 102 -253 267c0 236 141 398 353 398c157 0 256 -99 256 -263c0 -237 -145 -402 -356 -402z" />
    <glyph glyph-name="R" unicode="R" horiz-adv-x="621" 
d="M317 253h-73l-15 -113c-9 -67 -3 -76 59 -77l3 -6l-17 -61s-86 3 -129 3c-60 1 -140 -5 -140 -5l17 66c55 8 72 24 79 81l48 388c4 38 -1 49 -24 49c-13 0 -34 -2 -34 -2l-5 8l16 60s83 -3 121 -3c40 0 140 5 140 5c136 0 219 -54 219 -150c0 -88 -49 -162 -148 -211
l65 -143c29 -60 56 -86 97 -86l6 -9l-13 -52l-117 -11c-43 0 -74 32 -95 93zM257 340l86 -10c22 9 98 43 98 143c0 62 -43 93 -131 93c-13 0 -16 -4 -20 -22c-19 -100 -25 -149 -33 -204z" />
    <glyph glyph-name="S" unicode="S" horiz-adv-x="521" 
d="M193 -12c-102 0 -176 38 -176 38l-7 14s27 86 38 169l83 7c-13 -107 7 -141 88 -141c64 0 109 34 109 85c0 44 -48 72 -104 102c-72 39 -155 82 -155 176c0 124 113 215 274 215c96 0 172 -26 172 -26l6 -13s-27 -80 -44 -171l-75 -6l-8 6s7 34 7 52c0 48 -26 67 -84 67
s-101 -34 -101 -80c0 -35 30 -60 70 -84c78 -45 193 -86 193 -193c0 -129 -112 -217 -286 -217z" />
    <glyph glyph-name="T" unicode="T" horiz-adv-x="549" 
d="M200 165l49 401c-104 -4 -111 -17 -137 -131l-83 -6s23 116 37 213l13 11l94 -11h302l101 11l9 -11c-11 -99 -16 -207 -16 -207l-83 -6c1 122 -1 133 -98 137c-18 -97 -65 -413 -65 -450c0 -36 13 -51 45 -51c30 0 53 3 53 3l3 -5l-17 -67s-118 4 -169 4
c-54 0 -163 -6 -163 -6l16 65c85 8 98 20 109 106z" />
    <glyph glyph-name="U" unicode="U" horiz-adv-x="631" 
d="M256 528l-43 -291c-1 -14 -2 -29 -2 -40c-1 -78 34 -120 101 -120c77 0 121 43 132 132c9 66 36 315 36 315c4 44 0 54 -24 54c-10 0 -32 -2 -32 -2l-2 4l16 64s76 -3 112 -3c50 0 117 7 117 7l-14 -66c-50 -10 -58 -17 -62 -50l-39 -313c-19 -151 -113 -231 -272 -231
c-137 0 -205 61 -205 177c0 13 1 26 3 40l40 319c5 44 1 54 -26 54c-11 0 -30 -2 -30 -2l-2 4l17 64s82 -3 138 -3c40 0 116 7 116 7l-15 -67c-41 -5 -55 -18 -60 -53z" />
    <glyph glyph-name="V" unicode="V" horiz-adv-x="603" 
d="M104 516c-6 42 -25 60 -64 62l-3 7l15 59s79 -3 121 -3c71 0 166 9 166 9l3 -8l-12 -60c-67 -6 -79 -16 -79 -47c0 -65 37 -406 37 -406h15c45 100 172 391 172 422c0 19 -13 28 -45 28h-38l-4 7l14 61s82 -6 143 -6c51 0 113 3 113 3l-15 -65c-32 -5 -41 -13 -59 -52
l-235 -522l-165 -20s-47 340 -80 531z" />
    <glyph glyph-name="W" unicode="W" horiz-adv-x="930" 
d="M681 5l-159 -20l-38 361h-10l-140 -341l-160 -20s-41 340 -71 531c-8 43 -25 59 -61 62l-4 7l15 59s76 -3 116 -3c79 0 160 9 160 9l4 -8l-12 -60c-64 -6 -78 -16 -78 -47c0 -71 35 -406 35 -406h14c46 111 108 263 150 362c3 33 0 34 -3 42c-3 33 -20 44 -65 45l-4 7
l16 59s87 -3 131 -3c73 0 159 9 159 9l4 -8l-12 -60c-66 -6 -79 -15 -79 -47c0 -66 36 -406 36 -406h14c54 126 168 400 168 426c0 18 -12 24 -44 24h-36l-4 7l15 61s79 -6 138 -6c48 0 107 3 107 3l-14 -65c-30 -5 -40 -14 -57 -52z" />
    <glyph glyph-name="X" unicode="X" horiz-adv-x="659" 
d="M148 199l112 131l-83 163c-29 56 -62 74 -114 83l-2 5l15 63s81 -3 153 -3c60 0 150 8 150 8l3 -9l-12 -57c-42 -2 -61 -12 -61 -32c0 -22 28 -77 66 -153c41 55 114 139 114 163c0 14 -13 20 -44 22c0 1 -1 3 -1 5l12 57c25 0 85 -4 128 -4c47 0 109 4 109 4l3 -7
l-13 -60c-62 -20 -89 -45 -140 -106l-122 -150l92 -172c30 -55 62 -80 116 -84l-14 -68s-84 3 -124 3c-50 0 -175 -8 -175 -8l-4 7l12 59c38 3 56 12 56 32c0 9 -4 20 -11 33l-65 130l-76 -95c-32 -39 -41 -55 -41 -71c0 -17 13 -25 43 -27l3 -6l-13 -61s-92 7 -126 7
c-37 0 -111 -5 -111 -5l-3 10l12 59c45 16 101 69 156 134z" />
    <glyph glyph-name="Y" unicode="Y" horiz-adv-x="578" 
d="M261 551c0 -28 49 -185 56 -207h8l97 168c12 20 19 38 19 50c0 13 -13 19 -46 21l-2 5l15 57c25 0 85 -4 128 -4c44 0 100 4 100 4l3 -7l-15 -60c-56 -18 -83 -51 -132 -128l-114 -179c-23 -36 -25 -65 -35 -140c-7 -49 1 -66 37 -66c22 0 48 3 48 3l3 -5l-17 -67
s-111 4 -159 4c-56 0 -154 -11 -154 -11l15 67c77 11 92 28 99 95l4 31c4 35 2 59 -15 103l-71 190c-22 62 -38 89 -96 101l-3 5l16 63s86 -3 124 -3c50 0 156 8 156 8l4 -9l-13 -57c-48 -3 -60 -11 -60 -32z" />
    <glyph glyph-name="Z" unicode="Z" horiz-adv-x="560" 
d="M487 16l-19 -19l-380 6l-75 -8l-18 44l403 531l-123 -8c-82 -6 -106 -33 -125 -127l-84 -6s29 123 42 215l12 10l171 -11l283 -4l12 -40c-192 -228 -356 -452 -412 -528l151 11c64 5 102 50 130 155l84 7s-37 -131 -52 -228z" />
    <glyph glyph-name="bracketleft" unicode="[" horiz-adv-x="307" 
d="M243 -132l-209 11s45 276 57 376s36 379 36 379l214 11l3 -8l-14 -57l-101 -20l-75 -607l100 -21l3 -9z" />
    <glyph glyph-name="backslash" unicode="\" horiz-adv-x="317" 
d="M63 660l14 15h81l55 -449c19 -152 48 -325 48 -325l-10 -11h-86s-20 160 -41 325c-21 162 -61 445 -61 445z" />
    <glyph glyph-name="bracketright" unicode="]" horiz-adv-x="307" 
d="M71 645l209 -11s-44 -276 -57 -376c-12 -100 -36 -379 -36 -379l-215 -11l-3 8l15 56l101 21l74 607l-99 20l-3 9z" />
    <glyph glyph-name="asciicircum" unicode="^" horiz-adv-x="470" 
d="M308 482l12 -8s35 -121 56 -192c24 -77 52 -164 52 -164l-69 -42l-16 5s-27 87 -50 163l-40 137h-7l-62 -124c-42 -77 -90 -180 -90 -180l-74 20l-6 13s49 93 94 177l102 191z" />
    <glyph glyph-name="underscore" unicode="_" horiz-adv-x="437" 
d="M400 -87l6 -14l-21 -77c-148 0 -342 -2 -436 -2l-7 14l21 76c41 0 150 -1 233 -1c39 0 83 1 124 2c52 0 80 2 80 2z" />
    <glyph glyph-name="grave" unicode="`" 
d="M75 651l-2 14l55 70l13 1s85 -90 168 -170l-30 -39l-16 -4c-93 69 -188 128 -188 128z" />
    <glyph glyph-name="a" unicode="a" horiz-adv-x="493" 
d="M384 109l4 -4c8 0 18 8 66 50l17 -2l16 -35c-94 -99 -136 -130 -174 -130c-29 0 -43 13 -43 38c0 19 24 127 34 167l-8 1c-60 -108 -108 -169 -161 -206c-72 0 -114 54 -114 146c0 161 124 332 241 332l87 -18l7 22l11 7l81 -14l8 -17s-48 -179 -72 -337zM167 105
c30 0 102 120 152 253c-30 18 -63 29 -88 29c-42 0 -86 -100 -86 -197c0 -49 10 -85 22 -85z" />
    <glyph glyph-name="b" unicode="b" horiz-adv-x="488" 
d="M37 54c0 0 89 543 89 579c0 25 -11 36 -38 36h-34l8 59c76 0 193 9 193 9l12 -16s-56 -254 -91 -471l6 -1c60 119 102 179 153 219c80 0 130 -63 130 -161c0 -166 -118 -317 -249 -317c-100 0 -167 41 -167 41zM312 358c-27 0 -89 -113 -144 -257c17 -6 59 -24 86 -24
c46 0 88 86 88 185c0 52 -13 96 -30 96z" />
    <glyph glyph-name="c" unicode="c" horiz-adv-x="368" 
d="M241 385c-51 0 -97 -89 -97 -191c0 -68 23 -108 59 -108c34 0 70 31 93 81l17 -2l33 -41c-35 -77 -115 -136 -184 -136c-85 0 -138 66 -138 172c0 165 119 313 252 313c37 0 74 -8 97 -22l4 -15l-42 -96l-28 -2c-19 32 -40 47 -66 47z" />
    <glyph glyph-name="d" unicode="d" horiz-adv-x="495" 
d="M384 109l4 -4c7 0 8 1 66 50l17 -2l16 -35c-96 -100 -136 -130 -174 -130c-29 0 -43 13 -43 38c0 17 24 125 34 167l-8 1c-59 -107 -108 -168 -161 -206c-72 0 -114 54 -114 146c0 161 124 332 241 332l70 -16l24 176c4 31 -7 43 -37 43h-35l9 59c75 0 193 9 193 9
l12 -16s-82 -406 -114 -612zM167 105c30 0 100 118 151 253c-17 10 -56 29 -87 29c-42 0 -86 -100 -86 -197c0 -49 10 -85 22 -85z" />
    <glyph glyph-name="e" unicode="e" horiz-adv-x="393" 
d="M385 379c0 -89 -68 -141 -243 -196c0 -60 23 -98 63 -98c37 0 73 29 101 79l17 -2l33 -40c-36 -77 -118 -134 -193 -134c-85 0 -139 68 -139 175c0 161 122 310 254 310c67 0 107 -35 107 -94zM243 385c-44 0 -85 -58 -98 -141c91 30 131 63 131 106c0 23 -12 35 -33 35z
" />
    <glyph glyph-name="f" unicode="f" horiz-adv-x="290" 
d="M24 393l-3 5l5 46l84 13l7 64c13 119 132 221 250 221c36 0 80 -6 106 -15l4 -11l-45 -96l-19 -3c-39 27 -69 38 -94 38c-48 0 -73 -30 -82 -99l-12 -101h136l5 -5l-10 -56l-129 1l-9 -6l-47 -431c-12 -109 -103 -200 -197 -200c-52 0 -100 23 -111 54c9 30 35 83 52 107
h16c2 -54 26 -81 71 -81c37 0 66 30 69 80c4 43 4 82 6 115l27 351l-9 7z" />
    <glyph glyph-name="g" unicode="g" horiz-adv-x="471" 
d="M188 114c26 0 85 105 142 245c-21 11 -58 28 -88 28c-41 0 -82 -94 -82 -185c0 -49 12 -88 28 -88zM160 0c-49 -34 -119 -77 -119 -90c0 -30 51 -61 103 -61c77 0 132 53 144 145l23 191l-9 3c-73 -123 -101 -159 -142 -188zM393 17c-14 -114 -178 -258 -293 -258
c-103 -1 -184 62 -177 136l3 8c33 24 105 64 172 101l1 8c-39 20 -62 69 -62 135c0 153 122 319 235 319l88 -18l8 23l12 6l80 -13l11 -18c-33 -66 -55 -138 -60 -187c-6 -50 -12 -190 -18 -242z" />
    <glyph glyph-name="h" unicode="h" horiz-adv-x="506" 
d="M387 110l3 -3c8 0 15 5 66 50l18 -3l16 -35c-89 -95 -136 -130 -174 -130c-32 0 -48 14 -48 44c0 52 69 224 69 278c0 22 -10 35 -26 35c-33 0 -94 -101 -151 -245l-9 -72c-3 -17 -59 -37 -104 -37l-13 16s89 561 95 620c2 30 -8 41 -37 41h-35l9 59c75 0 193 9 193 9
l12 -16s-58 -254 -91 -471l6 -1c56 117 112 195 162 225c67 0 113 -42 113 -102c0 -55 -61 -198 -74 -262z" />
    <glyph glyph-name="i" unicode="i" horiz-adv-x="283" 
d="M180 570c-39 0 -59 26 -59 61c0 52 36 90 89 90c37 0 57 -23 57 -59c0 -53 -36 -92 -87 -92zM169 109l4 -4c8 0 16 6 66 50l17 -2l17 -35c-87 -94 -136 -130 -174 -130c-33 0 -47 17 -47 50c0 0 48 286 48 318c0 27 -11 38 -38 38h-35l10 59c74 0 191 9 191 9l12 -16
s-47 -168 -71 -337z" />
    <glyph glyph-name="j" unicode="j" horiz-adv-x="271" 
d="M164 18c-16 -122 -89 -209 -200 -262l-27 30l3 12c75 55 103 107 119 238c0 0 50 288 50 320c0 27 -12 38 -39 38h-35l10 59c75 0 190 9 190 9l13 -16s-52 -206 -84 -428zM187 570c-37 0 -59 24 -59 61c0 53 37 90 89 90c37 0 58 -22 58 -59c0 -54 -37 -92 -88 -92z" />
    <glyph glyph-name="k" unicode="k" horiz-adv-x="460" 
d="M309 -12l-81 200l7 17c48 24 107 60 107 111c0 19 -10 30 -26 30c-34 0 -98 -102 -156 -246l-9 -71c-3 -17 -59 -37 -104 -37l-13 16s96 588 96 625c0 25 -11 36 -38 36h-35l9 59c75 0 193 9 193 9l12 -16s-58 -254 -91 -471l6 -1c55 116 112 195 162 225
c69 0 115 -41 115 -101c0 -62 -46 -125 -133 -182c46 -82 102 -166 102 -166l-1 -17l-109 -27z" />
    <glyph glyph-name="l" unicode="l" horiz-adv-x="270" 
d="M157 109l3 -4c8 0 16 6 66 50l18 -2l16 -35c-87 -94 -135 -130 -174 -130c-31 0 -47 16 -47 47c0 26 91 564 91 598c0 25 -11 36 -38 36h-35l9 59c76 0 193 9 193 9l12 -16s-86 -406 -114 -612z" />
    <glyph glyph-name="m" unicode="m" horiz-adv-x="764" 
d="M645 110l3 -3c7 0 15 6 66 50l18 -3l16 -35c-91 -95 -138 -130 -175 -130c-32 0 -48 14 -48 44c0 51 72 225 72 278c0 22 -10 35 -26 35c-34 0 -102 -108 -164 -260l-9 -57c-2 -17 -58 -37 -103 -37l-13 16s65 268 65 306c0 20 -9 32 -26 32c-32 0 -92 -100 -148 -245
l-9 -72c-3 -17 -59 -37 -104 -37l-13 16s49 300 54 345c2 30 -9 41 -38 41h-35l10 59c74 0 191 9 191 9l11 -16s-32 -100 -47 -196l5 -1c55 116 110 195 160 225c65 0 110 -41 110 -99c0 -30 -28 -125 -28 -125l5 -1c54 113 113 194 164 225c67 0 110 -40 110 -100
c0 -56 -60 -200 -74 -264z" />
    <glyph glyph-name="n" unicode="n" horiz-adv-x="519" 
d="M400 110l3 -3c8 0 15 5 66 50l18 -3l16 -35c-87 -93 -135 -130 -174 -130c-32 0 -48 14 -48 44c0 52 69 224 69 278c0 22 -10 35 -26 35c-33 0 -94 -101 -151 -246l-9 -71c-3 -17 -59 -37 -104 -37l-13 16s49 300 54 345c2 30 -9 41 -38 41h-35l10 59c74 0 191 9 191 9
l11 -16s-32 -100 -47 -196l6 -1c56 117 112 195 162 225c67 0 111 -41 111 -101c0 -56 -59 -199 -72 -263z" />
    <glyph glyph-name="o" unicode="o" horiz-adv-x="444" 
d="M210 68c52 0 84 72 84 195c0 81 -21 122 -61 122c-49 0 -83 -76 -83 -186c0 -82 23 -131 60 -131zM171 -12c-89 0 -144 67 -144 179c0 173 106 307 247 307c93 0 146 -61 146 -169c0 -180 -106 -317 -249 -317z" />
    <glyph glyph-name="p" unicode="p" horiz-adv-x="501" 
d="M-41 -236l11 58c34 4 45 17 57 66c18 74 72 430 72 469c0 26 -11 37 -38 37h-35l10 59c74 0 191 9 191 9l12 -15c-21 -63 -36 -123 -48 -190l6 -1c60 119 104 179 152 218c80 0 130 -62 130 -158c0 -157 -123 -320 -232 -320l-96 16l-19 -131c-5 -38 4 -49 42 -49h44
l1 -6l-11 -55c-121 0 -249 -7 -249 -7zM326 365c-24 0 -87 -103 -143 -254c20 -9 64 -28 96 -28c39 0 77 102 77 188c0 51 -14 94 -30 94z" />
    <glyph glyph-name="q" unicode="q" horiz-adv-x="473" 
d="M247 -111l29 160l28 144l-8 1c-59 -106 -104 -168 -153 -206c-74 0 -121 60 -121 154c0 157 124 324 240 324l85 -18l18 50l13 7l80 -13l7 -17c-17 -31 -114 -500 -114 -607c0 -26 7 -35 27 -35h34l2 -5l-10 -56c-147 0 -247 -12 -247 -12l11 59c58 5 69 15 79 70z
M172 105c27 0 88 107 146 253c-18 11 -56 29 -87 29c-42 0 -86 -97 -86 -191c0 -51 12 -91 27 -91z" />
    <glyph glyph-name="r" unicode="r" horiz-adv-x="380" 
d="M47 8c0 0 54 310 54 347c0 28 -10 39 -38 39h-35l10 59c74 0 191 9 191 9l11 -16s-27 -89 -41 -170h5c43 105 114 196 153 196c30 -23 44 -55 44 -98c0 -15 -3 -31 -10 -53l-14 -6s-15 12 -40 12c-53 0 -112 -74 -162 -206l-11 -92c-3 -17 -59 -37 -104 -37z" />
    <glyph glyph-name="s" unicode="s" horiz-adv-x="369" 
d="M48 158l20 -1c2 -54 37 -88 89 -88c33 0 56 19 56 45c0 28 -30 48 -64 71c-44 30 -95 64 -95 128c0 90 84 161 189 161c51 0 99 -16 126 -41c-15 -39 -34 -77 -48 -102h-20c-14 36 -42 59 -74 59c-25 0 -46 -18 -46 -42c0 -18 12 -32 30 -46c46 -37 127 -71 127 -150
c0 -90 -90 -164 -200 -164c-70 0 -126 24 -138 60c7 34 30 86 48 110z" />
    <glyph glyph-name="t" unicode="t" horiz-adv-x="307" 
d="M266 161l17 -3l16 -36c-61 -77 -123 -134 -154 -134c-66 0 -101 38 -94 100l50 297l-7 6l-62 2l-3 5l6 46l76 12c8 54 15 116 15 116l128 35l10 -12s-20 -67 -36 -140h109l5 -5l-9 -56l-107 1l-12 -7l-48 -252c-3 -22 3 -33 20 -33c16 0 37 15 80 58z" />
    <glyph glyph-name="u" unicode="u" horiz-adv-x="508" 
d="M320 201l-9 1c-51 -107 -101 -177 -150 -213c-74 0 -118 37 -118 95c0 55 66 230 66 276c0 24 -11 34 -38 34h-34l10 59c74 0 191 9 191 9l12 -16s-86 -260 -86 -307c0 -20 7 -29 23 -29c31 0 96 105 158 255l14 92l15 8l82 -6l13 -15s-47 -177 -71 -335l4 -4
c8 0 12 4 66 50l17 -2l16 -35c-97 -101 -136 -130 -174 -130c-29 0 -43 13 -43 38c0 22 27 137 36 175z" />
    <glyph glyph-name="v" unicode="v" horiz-adv-x="450" 
d="M246 -6l-113 -5l-17 15c-5 110 -22 262 -38 353c-5 27 -13 35 -34 35c-12 0 -42 -3 -42 -3l4 58c72 8 177 20 177 20l11 -9c11 -101 18 -226 17 -358h13c65 115 100 198 100 243c0 43 -34 69 -50 74l7 32l133 25c19 -17 31 -50 31 -87c0 -73 -66 -203 -199 -393z" />
    <glyph glyph-name="w" unicode="w" horiz-adv-x="682" 
d="M211 100h13c47 88 78 153 94 203l-20 132l9 14l102 25c19 -17 31 -49 31 -85c0 -20 -3 -36 -15 -70l20 -219h13c63 115 98 199 98 244c0 42 -34 68 -50 73l7 32l133 25c19 -18 31 -52 31 -89c0 -71 -65 -199 -197 -391l-99 -5l-16 15l-17 168h-9
c-24 -49 -58 -113 -98 -178l-108 -5l-17 15c-5 112 -22 264 -38 353c-5 26 -13 35 -34 35c-12 0 -42 -3 -42 -3l4 58c72 8 177 20 177 20l11 -9c11 -102 18 -227 17 -358z" />
    <glyph glyph-name="x" unicode="x" horiz-adv-x="481" 
d="M424 474c31 0 56 -12 77 -35c-17 -42 -34 -80 -50 -112h-20c-9 38 -22 55 -42 55c-28 0 -53 -34 -93 -127c35 -132 48 -166 68 -166c11 0 29 12 70 48l11 -1l19 -40c-79 -81 -120 -108 -163 -108c-39 0 -58 34 -94 158c-51 -111 -96 -158 -154 -158c-35 0 -61 13 -75 37
c11 36 31 82 50 116h20c2 -42 14 -65 37 -65c29 0 60 45 98 137c-39 136 -50 160 -68 160c-11 0 -28 -13 -64 -48h-12l-18 40c72 78 119 109 162 109c38 0 56 -31 90 -151c49 105 95 151 151 151z" />
    <glyph glyph-name="y" unicode="y" horiz-adv-x="462" 
d="M286 417l7 32l132 25c20 -17 32 -50 32 -87c0 -71 -63 -195 -189 -376c-128 -181 -212 -254 -296 -254c-48 0 -92 23 -100 51c4 25 23 75 41 109l20 -1c8 -36 37 -61 71 -61c42 0 78 25 134 96c-15 164 -34 313 -49 406c-5 26 -14 35 -36 35c-11 0 -40 -3 -40 -3l4 58
l177 20l11 -9c10 -97 15 -219 15 -369h12c65 113 104 208 104 254c0 31 -19 58 -50 74z" />
    <glyph glyph-name="z" unicode="z" horiz-adv-x="425" 
d="M100 292l-56 -5s27 95 40 176l27 11s123 -29 200 -29c25 0 35 4 48 19l21 25l55 -35l5 -19c-105 -112 -213 -235 -286 -321l26 5c32 0 84 -15 119 -15s61 28 69 75l24 -1c7 -17 13 -43 13 -67c0 -68 -49 -123 -111 -123c-61 0 -113 45 -178 45c-32 0 -71 -13 -106 -34
l-19 30l276 329l-73 1c-55 0 -78 -16 -94 -67z" />
    <glyph glyph-name="braceleft" unicode="{" horiz-adv-x="311" 
d="M43 241l11 48c48 14 86 41 86 82c0 40 -26 105 -26 154c0 72 65 129 162 129c33 0 71 -9 71 -9l5 -10l-20 -56s-23 5 -38 5c-42 0 -62 -32 -62 -74c0 -33 9 -88 9 -123c0 -64 -38 -98 -83 -110l-1 -6c37 -13 60 -40 60 -84c0 -54 -48 -143 -48 -189c0 -30 16 -53 49 -53
c17 0 40 6 40 6l6 -10l-17 -54s-32 -15 -81 -15c-73 0 -119 46 -119 104c0 65 69 147 69 193c0 38 -29 61 -73 72z" />
    <glyph glyph-name="bar" unicode="|" horiz-adv-x="319" 
d="M267 807l15 -11s-48 -339 -68 -505c-21 -172 -66 -549 -66 -549l-88 -11l-10 11s43 355 66 534l65 520z" />
    <glyph glyph-name="braceright" unicode="}" horiz-adv-x="311" 
d="M277 289l-10 -47c-47 -13 -86 -41 -86 -83c0 -40 25 -104 25 -153c0 -75 -65 -134 -162 -134c-33 0 -71 9 -71 9l-5 10l20 55s23 -5 38 -5c41 0 62 32 62 75c0 34 -9 90 -9 127c0 64 39 97 83 110l1 6c-36 13 -60 40 -60 85c0 52 48 138 48 183c0 31 -16 53 -49 53
c-18 0 -40 -5 -40 -5l-6 9l17 55s31 15 81 15c73 0 119 -47 119 -105c0 -63 -68 -142 -68 -188c0 -39 29 -63 72 -72z" />
    <glyph glyph-name="asciitilde" unicode="~" horiz-adv-x="488" 
d="M64 178h-11l-30 37l1 11l102 101l19 4c48 0 166 -39 208 -39c26 0 81 57 81 57h10l30 -38l-1 -10l-101 -102l-19 -4c-48 0 -167 39 -208 39c-27 0 -81 -56 -81 -56z" />
    <glyph glyph-name="nbspace" unicode="&#xa0;" horiz-adv-x="166" 
 />
    <glyph glyph-name="exclamdown" unicode="&#xa1;" horiz-adv-x="274" 
d="M184 474c43 0 65 -27 65 -65c0 -54 -37 -93 -91 -93c-42 0 -65 26 -65 65c0 53 37 93 91 93zM186 227l-32 -430l-14 -17l-136 -22l-14 18l116 453l66 11z" />
    <glyph glyph-name="cent" unicode="&#xa2;" horiz-adv-x="368" 
d="M139 57h75l-48 -208l-70 -8l-5 7zM300 430h-76l50 219l72 9l4 -9zM241 385c-51 0 -97 -89 -97 -191c0 -68 23 -108 59 -108c34 0 70 31 93 81l17 -2l33 -41c-35 -77 -115 -136 -184 -136c-85 0 -138 66 -138 172c0 165 119 313 252 313c37 0 74 -8 97 -22l4 -15l-42 -96
l-28 -2c-19 32 -40 47 -66 47z" />
    <glyph glyph-name="sterling" unicode="&#xa3;" horiz-adv-x="500" 
d="M422 178l23 -2c9 -15 13 -43 13 -67c0 -70 -49 -121 -109 -121c-65 0 -141 49 -209 49c-37 0 -71 -11 -112 -36l-11 5l-12 61c64 38 98 82 105 136l5 41c2 31 -9 37 -58 40l-3 6l14 52l60 10l3 21c15 124 132 225 251 225c41 0 86 -6 107 -15l4 -11l-44 -96l-19 -3
c-43 27 -73 38 -101 38c-44 0 -67 -29 -77 -95l-11 -68c75 0 145 3 145 3l3 -5l-19 -68s-64 3 -139 3l-9 -60c-7 -43 -29 -87 -58 -111l57 12c38 0 92 -19 130 -19c36 0 63 26 71 75z" />
    <glyph glyph-name="currency" unicode="&#xa4;" horiz-adv-x="428" 
d="M79 333c0 34 10 65 29 93c-32 36 -64 71 -64 71l5 17l77 50c9 -12 32 -42 55 -72c22 11 47 18 73 18c25 0 48 -7 67 -18c38 38 76 77 76 77l17 -4l43 -71l-78 -67c7 -16 11 -39 11 -59c0 -34 -11 -63 -28 -90c32 -34 63 -67 63 -67l-5 -17l-78 -52l-54 70
c-22 -13 -48 -20 -73 -20c-27 0 -51 8 -71 21c-38 -38 -75 -73 -75 -73l-17 4l-41 71c15 10 45 36 77 63c-6 16 -9 36 -9 55zM151 342c0 -43 30 -78 73 -78c49 0 94 44 94 96c0 44 -31 78 -73 78c-49 0 -94 -44 -94 -96z" />
    <glyph glyph-name="yen" unicode="&#xa5;" horiz-adv-x="550" 
d="M248 426c0 -8 5 -23 11 -43l6 -23l33 -81l76 129c6 10 11 19 11 27c0 9 -12 15 -35 15l-2 8l10 47c26 0 75 -3 114 -3c38 0 85 3 85 3l4 -6l-13 -55c-47 -15 -63 -30 -91 -73l-28 -40l91 2l6 -9l-12 -57h-130l-30 -45c-5 -7 -9 -18 -12 -27c67 1 131 3 160 4l6 -10
l-12 -57h-174c-1 -3 -5 -40 -5 -45c0 -20 10 -28 35 -28c17 0 40 2 40 2l2 -6l-14 -58s-98 3 -140 3c-46 0 -136 -9 -136 -9l13 60c63 8 73 22 82 81c-70 0 -135 -1 -164 -1l-7 8l15 56h156c-3 12 -5 23 -11 37l-14 35c-54 0 -100 -1 -121 -1l-7 7l15 56h83
c-23 56 -57 102 -99 115c2 8 3 16 4 24c3 12 7 25 10 37c0 0 63 -3 101 -3c16 0 137 6 143 7l3 -10l-11 -51c-40 -3 -47 -10 -47 -22z" />
    <glyph glyph-name="brokenbar" unicode="&#xa6;" horiz-adv-x="319" 
d="M101 158l88 15l9 -10c-24 -191 -51 -421 -51 -421l-88 -11l-10 11c10 74 31 254 52 416zM224 375l-89 -12l-8 7l54 426l86 11l15 -11s-35 -246 -58 -421z" />
    <glyph glyph-name="section" unicode="&#xa7;" horiz-adv-x="480" 
d="M355 54c-8 -76 -99 -154 -206 -154c-68 0 -124 33 -124 74c0 29 18 82 41 109l20 -1c3 -59 39 -101 89 -101c32 0 57 23 57 55c0 88 -196 119 -196 257c0 75 65 134 137 171l31 -37c-40 -24 -59 -49 -59 -85c0 -106 227 -147 210 -288zM291 130c35 23 55 50 55 85
c0 101 -206 149 -206 276c0 88 88 163 191 163c61 0 114 -23 114 -48s-28 -92 -43 -105h-19c-10 40 -40 68 -72 68c-25 0 -47 -21 -47 -50c0 -85 195 -127 195 -258c0 -70 -59 -135 -133 -171z" />
    <glyph glyph-name="dieresis" unicode="&#xa8;" 
d="M316 563c-35 0 -53 21 -53 52c0 43 32 76 76 76c34 0 52 -21 52 -52c0 -44 -31 -76 -75 -76zM142 563c-34 0 -52 21 -52 52c0 43 32 76 76 76c34 0 51 -21 51 -52c0 -44 -31 -76 -75 -76z" />
    <glyph glyph-name="copyright" unicode="&#xa9;" horiz-adv-x="671" 
d="M47 261c0 183 158 337 334 337c149 0 259 -121 259 -273c0 -183 -159 -337 -334 -337c-150 0 -259 121 -259 273zM98 266c0 -128 90 -229 214 -229c146 0 278 129 278 283c0 128 -91 229 -215 229c-146 0 -277 -129 -277 -283zM337 129c-87 0 -140 50 -140 136
c0 124 74 199 195 199c44 0 107 -12 107 -12l3 -8s-15 -43 -26 -98l-58 -4s5 26 5 35c0 21 -17 33 -49 33c-55 0 -85 -45 -85 -134c0 -63 21 -95 62 -95c35 0 54 18 68 67l57 4s-14 -54 -20 -97l-6 -7s-48 -19 -113 -19z" />
    <glyph glyph-name="ordfeminine" unicode="&#xaa;" horiz-adv-x="356" 
d="M280 423l2 -2c5 0 12 6 40 30l13 -1l12 -27c-67 -71 -95 -92 -126 -92c-20 0 -31 10 -31 29c0 10 11 59 20 95l-6 1c-38 -67 -66 -102 -98 -125c-54 0 -87 37 -87 99c0 104 84 213 163 213l54 -11l4 14l10 5l68 -8l5 -13s-29 -112 -43 -207zM130 418c18 0 60 73 87 149
c-19 12 -40 18 -55 18c-22 0 -44 -60 -44 -116c0 -30 5 -51 12 -51z" />
    <glyph glyph-name="guillemotleft" unicode="&#xab;" horiz-adv-x="436" 
d="M396 411l39 -25l2 -16c-15 -22 -93 -127 -102 -141c5 -15 57 -121 67 -144l-6 -16l-44 -25c-27 40 -137 171 -137 171l2 21s143 135 179 175zM216 411l39 -25l2 -16c-15 -22 -93 -127 -102 -141c5 -15 57 -121 67 -144l-6 -16l-44 -25c-27 40 -137 171 -137 171l2 21
s143 135 179 175z" />
    <glyph glyph-name="logicalnot" unicode="&#xac;" horiz-adv-x="488" 
d="M449 327l5 -13s-19 -70 -28 -143c-9 -70 -16 -136 -16 -136l-93 -14l-9 7s13 102 25 194h-91c-87 0 -219 -1 -219 -1l-7 10l26 91s139 -1 225 -1c71 0 182 6 182 6z" />
    <glyph glyph-name="registered" unicode="&#xae;" horiz-adv-x="451" 
d="M62 485c0 124 106 226 223 226c100 0 173 -81 173 -182c0 -124 -106 -226 -223 -226c-100 0 -173 81 -173 182zM99 489c0 -82 60 -148 140 -148c95 0 182 84 182 184c0 82 -59 148 -140 148c-95 0 -182 -84 -182 -184zM155 412l5 24c18 3 23 10 26 33l13 107
c2 15 0 18 -7 18h-11l-2 3l5 21c7 0 29 -1 42 -1h10c11 1 31 2 35 2c50 0 77 -16 77 -49c0 -34 -20 -54 -48 -68l18 -38c8 -17 20 -29 30 -30l3 -3c-3 -18 -3 -20 -41 -22c-20 0 -29 6 -37 30l-16 51h-20c-2 -10 -6 -32 -6 -38c0 -12 5 -14 21 -14c1 -1 1 -2 1 -3l-5 -22
s-25 2 -38 2h-11c-18 -1 -44 -3 -44 -3zM251 580c-3 -20 -7 -39 -10 -58c6 0 17 -2 25 -2c13 4 29 15 29 41c0 19 -14 27 -38 27c-4 0 -5 -1 -6 -8z" />
    <glyph glyph-name="macron" unicode="&#xaf;" 
d="M388 672l6 -14l-22 -76l-136 -1c-57 0 -134 -1 -134 -1l-9 11l23 76s92 -1 149 -1c48 0 123 6 123 6z" />
    <glyph glyph-name="degree" unicode="&#xb0;" horiz-adv-x="291" 
d="M55 510c0 79 68 144 143 144c65 0 111 -52 111 -117c0 -79 -68 -144 -143 -144c-64 0 -111 52 -111 117zM113 515c0 -36 26 -64 62 -64c42 0 76 36 76 81c0 36 -26 64 -63 64c-42 0 -75 -36 -75 -81z" />
    <glyph glyph-name="plusminus" unicode="&#xb1;" horiz-adv-x="488" 
d="M318 509l12 -7s-18 -101 -28 -178c75 1 176 6 176 6l5 -13l-22 -92c-57 0 -114 -1 -171 -1c-10 -78 -19 -163 -19 -163l-91 -14l-10 7s12 89 22 170c-79 0 -169 -1 -169 -1l-6 11l25 91s85 -1 163 -1c7 58 15 116 22 174zM427 -5l6 -15l-20 -77c-144 0 -332 -2 -421 -2
l-6 14l19 76h223c37 0 81 0 119 1c53 1 80 2 80 3z" />
    <glyph glyph-name="two.sups" unicode="&#xb2;" horiz-adv-x="342" 
d="M7 334l-1 48l90 87c59 62 90 111 90 140c0 22 -12 32 -36 32c-28 0 -59 -18 -88 -54h-11l-6 63c39 46 95 78 144 78c64 0 108 -33 108 -84c0 -56 -37 -112 -155 -228l3 -6h52c36 0 50 14 63 59l62 5s-24 -77 -34 -132l-11 -9s-152 6 -215 6z" />
    <glyph glyph-name="three.sups" unicode="&#xb3;" horiz-adv-x="302" 
d="M10 407l13 12c16 -7 34 -11 56 -11c47 0 82 22 82 55c0 28 -25 40 -78 40l-7 8v48l43 9c30 13 50 36 50 60c0 17 -12 28 -30 28c-19 0 -46 -10 -72 -28h-9l-10 55c29 18 89 45 130 45c57 0 94 -28 94 -70c0 -41 -33 -79 -82 -96l-1 -7c55 -18 80 -45 80 -84
c0 -70 -109 -140 -211 -140c-40 0 -51 21 -48 76z" />
    <glyph glyph-name="acute" unicode="&#xb4;" 
d="M356 666l-1 -14s-96 -60 -189 -129l-15 4l-30 39c83 80 168 171 168 171l13 -1z" />
    <glyph glyph-name="mu" unicode="&#xb5;" horiz-adv-x="515" 
d="M83 450l135 24l7 -17c-24 -44 -62 -275 -62 -300c0 -41 16 -63 52 -63c32 0 73 33 80 37l24 204c6 47 2 97 2 97l10 17l140 23l8 -17c-19 -31 -67 -291 -67 -329c0 -21 10 -34 29 -34c22 0 46 17 46 17l13 -21s-65 -88 -115 -100c-58 0 -91 25 -90 75l-8 4
c-29 -29 -80 -73 -107 -78c-21 0 -37 7 -48 17l-5 -3l-13 -94c-8 -51 -8 -122 -8 -122l-8 -9l-111 -20l-9 13s29 141 53 302l39 254c7 54 4 106 4 106z" />
    <glyph glyph-name="mu" unicode="&#x3bc;" horiz-adv-x="515" 
d="M83 450l135 24l7 -17c-24 -44 -62 -275 -62 -300c0 -41 16 -63 52 -63c32 0 73 33 80 37l24 204c6 47 2 97 2 97l10 17l140 23l8 -17c-19 -31 -67 -291 -67 -329c0 -21 10 -34 29 -34c22 0 46 17 46 17l13 -21s-65 -88 -115 -100c-58 0 -91 25 -90 75l-8 4
c-29 -29 -80 -73 -107 -78c-21 0 -37 7 -48 17l-5 -3l-13 -94c-8 -51 -8 -122 -8 -122l-8 -9l-111 -20l-9 13s29 141 53 302l39 254c7 54 4 106 4 106z" />
    <glyph glyph-name="paragraph" unicode="&#xb6;" horiz-adv-x="548" 
d="M304 121l55 441c1 13 -1 15 -25 15c-63 0 -96 -81 -96 -192c0 -61 13 -109 41 -156l-3 -24c-135 5 -231 76 -231 203c0 134 106 238 248 238c49 0 105 -4 141 -4c33 0 140 3 140 3l-13 -62l-3 -4c-47 -4 -57 -12 -64 -46c-14 -51 -46 -278 -57 -362
c-19 -156 -113 -271 -261 -271c-66 0 -124 35 -124 89c0 33 27 85 55 116h16c-6 -83 26 -129 78 -129c67 0 91 39 103 145z" />
    <glyph glyph-name="periodcentered" unicode="&#xb7;" horiz-adv-x="230" 
d="M103 161c-44 0 -64 27 -64 65c0 53 36 93 90 93c42 0 65 -26 65 -65c0 -54 -37 -93 -91 -93z" />
    <glyph glyph-name="cedilla" unicode="&#xb8;" horiz-adv-x="387" 
d="M97 -86l45 115h52l-29 -73c33 -20 84 -54 84 -92c0 -55 -73 -102 -144 -102c-32 0 -72 16 -72 42c0 15 28 47 46 66h8c-3 -37 15 -56 43 -56c24 0 42 13 42 32c0 21 -41 48 -75 68z" />
    <glyph glyph-name="one.sups" unicode="&#xb9;" horiz-adv-x="257" 
d="M205 656c-10 -42 -35 -210 -35 -238c0 -21 6 -30 22 -30c15 0 30 1 30 1l2 -3l-15 -49s-61 2 -95 2c-44 0 -111 -7 -111 -7l11 47c40 3 59 15 63 47l24 197c4 31 -3 37 -26 37c-13 0 -32 -2 -32 -2l-4 4l9 43c21 2 53 6 82 10c62 7 101 13 101 13l6 -23
c-15 -12 -24 -24 -32 -49z" />
    <glyph glyph-name="ordmasculine" unicode="&#xba;" horiz-adv-x="325" 
d="M155 391c30 0 47 41 47 118c0 52 -11 75 -34 75c-28 0 -47 -47 -47 -115c0 -51 12 -78 34 -78zM130 331c-66 0 -106 45 -106 122c0 114 71 197 170 197c68 0 106 -41 106 -116c0 -118 -70 -203 -170 -203z" />
    <glyph glyph-name="guillemotright" unicode="&#xbb;" horiz-adv-x="436" 
d="M265 44l-39 25l-1 16c15 22 92 126 100 141c-4 14 -56 121 -66 143l6 16l44 26c28 -41 138 -172 138 -172l-3 -20s-142 -135 -179 -175zM85 44l-39 25l-1 16c15 22 92 126 100 141c-4 14 -56 121 -66 143l6 16l44 26c28 -41 138 -172 138 -172l-3 -20
s-142 -135 -179 -175z" />
    <glyph glyph-name="onequarter" unicode="&#xbc;" horiz-adv-x="762" 
d="M598 653l7 -19s-176 -267 -266 -407c-90 -144 -202 -320 -202 -320l-65 27l-5 14s121 180 207 316l262 414zM205 577c-10 -41 -35 -210 -35 -237c0 -22 6 -31 22 -31c15 0 30 2 30 2l2 -4l-15 -49s-61 3 -95 3c-44 0 -111 -7 -111 -7l11 46c40 3 59 16 63 47l24 197
c4 31 -3 37 -26 37c-13 0 -32 -2 -32 -2l-4 5l9 42c21 2 53 6 82 10c62 7 101 13 101 13l6 -23c-15 -11 -24 -24 -32 -49zM426 96l8 53l193 238l5 2l71 -8l-26 -221h48l5 -8l-14 -62l-47 1c-5 -43 -7 -84 -7 -84l-6 -7l-91 -7l-6 6s10 50 16 95zM589 264l-79 -104h74l12 104
h-7z" />
    <glyph glyph-name="onehalf" unicode="&#xbd;" horiz-adv-x="792" 
d="M598 653l7 -19s-176 -267 -266 -407c-90 -144 -202 -320 -202 -320l-65 27l-5 14s121 180 207 316l262 414zM205 577c-10 -41 -35 -210 -35 -237c0 -22 6 -31 22 -31c15 0 30 2 30 2l2 -4l-15 -49s-61 3 -95 3c-44 0 -111 -7 -111 -7l11 46c40 3 59 16 63 47l24 197
c4 31 -3 37 -26 37c-13 0 -32 -2 -32 -2l-4 5l9 42c21 2 53 6 82 10c62 7 101 13 101 13l6 -23c-15 -11 -24 -24 -32 -49zM447 -6l-1 48l90 87c59 62 90 112 90 140c0 22 -12 32 -36 32c-28 0 -59 -18 -88 -53h-11l-6 62c39 47 95 79 144 79c64 0 108 -34 108 -85
c0 -56 -37 -111 -155 -228l3 -5h52c36 0 50 13 63 59l62 5s-24 -77 -34 -132l-11 -9s-152 6 -215 6z" />
    <glyph glyph-name="threequarters" unicode="&#xbe;" horiz-adv-x="762" 
d="M598 653l7 -19s-176 -267 -266 -407c-90 -144 -202 -320 -202 -320l-65 27l-5 14s121 180 207 316l262 414zM426 96l8 53l193 238l5 2l71 -8l-26 -221h48l5 -8l-14 -62l-47 1c-5 -43 -7 -84 -7 -84l-6 -7l-91 -7l-6 6s10 50 16 95zM589 264l-79 -104h74l12 104h-7z
M10 328l13 12c16 -7 34 -11 56 -11c47 0 82 23 82 56c0 27 -25 39 -78 39l-7 8v48l43 9c30 13 50 36 50 60c0 17 -12 28 -30 28c-19 0 -46 -10 -72 -27h-9l-10 54c29 18 89 45 130 45c57 0 94 -28 94 -70c0 -41 -33 -78 -82 -96l-1 -7c55 -18 80 -45 80 -84
c0 -70 -109 -139 -211 -139c-40 0 -51 20 -48 75z" />
    <glyph glyph-name="questiondown" unicode="&#xbf;" horiz-adv-x="358" 
d="M263 242l8 -126l-5 -14l-111 -63c-35 -20 -60 -46 -60 -81c0 -58 62 -89 164 -95l6 -14l-46 -84l-16 -7c-134 4 -232 72 -232 161c0 96 70 137 184 210l3 7l-3 83l7 11l90 18zM241 474c43 0 65 -27 65 -65c0 -54 -37 -93 -91 -93c-42 0 -65 26 -65 65c0 53 37 93 91 93z
" />
    <glyph glyph-name="Agrave" unicode="&#xc0;" horiz-adv-x="607" 
d="M522 131c8 -48 24 -64 66 -69l4 -7l-14 -58s-77 3 -119 3c-83 0 -165 -8 -165 -8l-4 8l12 59c65 5 79 13 79 42c0 7 -1 18 -2 29l-9 77c-13 1 -69 2 -87 2c-29 0 -80 -5 -93 -7l-32 -77c-7 -17 -10 -27 -10 -37c0 -18 12 -26 39 -26h42l3 -6l-14 -62s-79 6 -140 6
c-53 0 -117 -3 -117 -3l15 66c30 5 50 22 71 67l230 506l157 17l11 -5s46 -345 77 -517zM321 512l-96 -227h67c21 0 49 2 71 4l-28 223h-14zM229 762l-5 13l25 77l13 5s115 -57 223 -104l-13 -47l-14 -9c-114 36 -229 65 -229 65z" />
    <glyph glyph-name="Aacute" unicode="&#xc1;" horiz-adv-x="607" 
d="M522 131c8 -48 24 -64 66 -69l4 -7l-14 -58s-77 3 -119 3c-83 0 -165 -8 -165 -8l-4 8l12 59c65 5 79 13 79 42c0 7 -1 18 -2 29l-9 77c-13 1 -69 2 -87 2c-29 0 -80 -5 -93 -7l-32 -77c-7 -17 -10 -27 -10 -37c0 -18 12 -26 39 -26h42l3 -6l-14 -62s-79 6 -140 6
c-53 0 -117 -3 -117 -3l15 66c30 5 50 22 71 67l230 506l157 17l11 -5s46 -345 77 -517zM321 512l-96 -227h67c21 0 49 2 71 4l-28 223h-14zM530 775l-5 -13s-115 -29 -229 -65l-13 9l-14 47c108 47 223 104 223 104l13 -5z" />
    <glyph glyph-name="Acircumflex" unicode="&#xc2;" horiz-adv-x="607" 
d="M522 131c8 -48 24 -64 66 -69l4 -7l-14 -58s-77 3 -119 3c-83 0 -165 -8 -165 -8l-4 8l12 59c65 5 79 13 79 42c0 7 -1 18 -2 29l-9 77c-13 1 -69 2 -87 2c-29 0 -80 -5 -93 -7l-32 -77c-7 -17 -10 -27 -10 -37c0 -18 12 -26 39 -26h42l3 -6l-14 -62s-79 6 -140 6
c-53 0 -117 -3 -117 -3l15 66c30 5 50 22 71 67l230 506l157 17l11 -5s46 -345 77 -517zM321 512l-96 -227h67c21 0 49 2 71 4l-28 223h-14zM231 711l-19 41c43 29 168 124 168 124h20c0 3 102 -94 137 -124l-29 -41l-17 -4c-19 9 -102 53 -115 58c-15 -5 -107 -49 -130 -58
z" />
    <glyph glyph-name="Atilde" unicode="&#xc3;" horiz-adv-x="607" 
d="M522 131c8 -48 24 -64 66 -69l4 -7l-14 -58s-77 3 -119 3c-83 0 -165 -8 -165 -8l-4 8l12 59c65 5 79 13 79 42c0 7 -1 18 -2 29l-9 77c-13 1 -69 2 -87 2c-29 0 -80 -5 -93 -7l-32 -77c-7 -17 -10 -27 -10 -37c0 -18 12 -26 39 -26h42l3 -6l-14 -62s-79 6 -140 6
c-53 0 -117 -3 -117 -3l15 66c30 5 50 22 71 67l230 506l157 17l11 -5s46 -345 77 -517zM321 512l-96 -227h67c21 0 49 2 71 4l-28 223h-14zM244 687h-11l-35 37l1 11l88 96l16 4c33 0 113 -34 141 -34c23 0 69 52 69 52h11l35 -37l-1 -10l-88 -97l-17 -4
c-32 0 -112 34 -140 34c-24 0 -69 -52 -69 -52z" />
    <glyph glyph-name="Adieresis" unicode="&#xc4;" horiz-adv-x="607" 
d="M522 131c8 -48 24 -64 66 -69l4 -7l-14 -58s-77 3 -119 3c-83 0 -165 -8 -165 -8l-4 8l12 59c65 5 79 13 79 42c0 7 -1 18 -2 29l-9 77c-13 1 -69 2 -87 2c-29 0 -80 -5 -93 -7l-32 -77c-7 -17 -10 -27 -10 -37c0 -18 12 -26 39 -26h42l3 -6l-14 -62s-79 6 -140 6
c-53 0 -117 -3 -117 -3l15 66c30 5 50 22 71 67l230 506l157 17l11 -5s46 -345 77 -517zM321 512l-96 -227h67c21 0 49 2 71 4l-28 223h-14zM452 711c-34 0 -52 21 -52 52c0 44 32 76 75 76c34 0 52 -21 52 -52c0 -43 -31 -76 -75 -76zM279 711c-35 0 -52 21 -52 52
c0 44 31 76 75 76c34 0 52 -21 52 -52c0 -43 -31 -76 -75 -76z" />
    <glyph glyph-name="Aring" unicode="&#xc5;" horiz-adv-x="607" 
d="M522 131c8 -48 24 -64 66 -69l4 -7l-14 -58s-77 3 -119 3c-83 0 -165 -8 -165 -8l-4 8l12 59c65 5 79 13 79 42c0 7 -1 18 -2 29l-9 77c-13 1 -69 2 -87 2c-29 0 -80 -5 -93 -7l-32 -77c-7 -17 -10 -27 -10 -37c0 -18 12 -26 39 -26h42l3 -6l-14 -62s-79 6 -140 6
c-53 0 -117 -3 -117 -3l15 66c30 5 50 22 71 67l230 506l157 17l11 -5s46 -345 77 -517zM321 512l-96 -227h67c21 0 49 2 71 4l-28 223h-14zM375 731c15 0 44 6 44 42c0 22 -14 36 -40 36c-27 0 -42 -17 -42 -41c0 -27 22 -37 38 -37zM362 678c-50 0 -76 32 -76 78
c0 61 45 108 107 108c56 0 77 -36 77 -75c0 -56 -41 -111 -108 -111z" />
    <glyph glyph-name="AE" unicode="&#xc6;" horiz-adv-x="844" 
d="M288 60c59 5 85 25 86 63c1 10 2 22 2 34v92l-85 -10l-83 -16l-53 -98c-11 -21 -15 -31 -15 -41c0 -17 12 -21 50 -21l30 -5l-14 -64c-1 1 -108 6 -162 6c-31 0 -72 -3 -72 -3l3 59c13 3 41 30 67 74l248 426c-2 16 -8 22 -22 22c-12 0 -30 -2 -30 -2l-6 9l16 60
c0 -1 121 -3 238 -3c149 0 266 5 312 12l7 -11s-28 -88 -45 -181l-91 -7s8 35 8 57c0 39 -21 47 -117 47c-42 0 -52 -8 -52 -28l4 -182l94 12l95 19l9 -11l-22 -83l-89 -6l-86 -11l4 -124c1 -47 18 -67 59 -67c106 0 124 14 150 114l85 7l7 -9s-29 -90 -50 -186l-11 -11
c1 1 -177 7 -321 7c-79 0 -155 -8 -155 -8l-4 8zM257 317l60 4l61 8l1 181h-15z" />
    <glyph glyph-name="Ccedilla" unicode="&#xc7;" horiz-adv-x="594" 
d="M294 -12c-162 0 -262 101 -262 268c0 242 145 397 370 397c81 0 197 -24 197 -24l4 -13s-30 -83 -49 -188l-97 -6s9 47 9 66c0 47 -33 71 -99 71c-112 0 -179 -99 -179 -284c0 -126 46 -195 131 -195c69 0 109 38 138 138l97 7s-29 -103 -42 -185l-10 -12
s-88 -40 -208 -40zM236 -86l45 115h52l-29 -73c33 -20 84 -54 84 -92c0 -55 -73 -102 -144 -102c-32 0 -72 16 -72 42c0 15 28 47 46 66h8c-3 -37 15 -56 43 -56c24 0 42 13 42 32c0 21 -41 48 -75 68z" />
    <glyph glyph-name="Egrave" unicode="&#xc8;" horiz-adv-x="577" 
d="M225 114c0 -33 13 -37 57 -37c118 0 137 13 164 114l83 7l6 -10s-29 -89 -50 -185l-11 -10s-179 7 -299 7c-86 0 -170 -10 -170 -10l16 67c54 8 72 27 79 85l48 382c5 43 1 54 -24 54c-11 0 -30 -2 -30 -2l-5 9l15 59s106 -3 178 -3c138 0 236 4 296 12l6 -10
s-28 -88 -44 -181l-90 -6s8 35 8 57c0 41 -23 47 -115 47c-45 0 -50 -3 -55 -33l-26 -158c20 0 62 -1 90 -1c31 0 113 8 113 8l6 -8l-24 -85s-77 3 -125 3c-28 0 -57 -4 -74 -6c-11 -75 -23 -138 -23 -166zM222 762l-5 13l25 77l13 5s115 -57 223 -104l-13 -47l-14 -9
c-114 36 -229 65 -229 65z" />
    <glyph glyph-name="Eacute" unicode="&#xc9;" horiz-adv-x="577" 
d="M225 114c0 -33 13 -37 57 -37c118 0 137 13 164 114l83 7l6 -10s-29 -89 -50 -185l-11 -10s-179 7 -299 7c-86 0 -170 -10 -170 -10l16 67c54 8 72 27 79 85l48 382c5 43 1 54 -24 54c-11 0 -30 -2 -30 -2l-5 9l15 59s106 -3 178 -3c138 0 236 4 296 12l6 -10
s-28 -88 -44 -181l-90 -6s8 35 8 57c0 41 -23 47 -115 47c-45 0 -50 -3 -55 -33l-26 -158c20 0 62 -1 90 -1c31 0 113 8 113 8l6 -8l-24 -85s-77 3 -125 3c-28 0 -57 -4 -74 -6c-11 -75 -23 -138 -23 -166zM500 775l-5 -13s-115 -29 -229 -65l-13 9l-14 47
c108 47 223 104 223 104l13 -5z" />
    <glyph glyph-name="Ecircumflex" unicode="&#xca;" horiz-adv-x="577" 
d="M225 114c0 -33 13 -37 57 -37c118 0 137 13 164 114l83 7l6 -10s-29 -89 -50 -185l-11 -10s-179 7 -299 7c-86 0 -170 -10 -170 -10l16 67c54 8 72 27 79 85l48 382c5 43 1 54 -24 54c-11 0 -30 -2 -30 -2l-5 9l15 59s106 -3 178 -3c138 0 236 4 296 12l6 -10
s-28 -88 -44 -181l-90 -6s8 35 8 57c0 41 -23 47 -115 47c-45 0 -50 -3 -55 -33l-26 -158c20 0 62 -1 90 -1c31 0 113 8 113 8l6 -8l-24 -85s-77 3 -125 3c-28 0 -57 -4 -74 -6c-11 -75 -23 -138 -23 -166zM232 711l-19 41c43 29 168 124 168 124h20c0 3 102 -94 137 -124
l-29 -41l-17 -4c-19 9 -102 53 -115 58c-15 -5 -107 -49 -130 -58z" />
    <glyph glyph-name="Edieresis" unicode="&#xcb;" horiz-adv-x="577" 
d="M225 114c0 -33 13 -37 57 -37c118 0 137 13 164 114l83 7l6 -10s-29 -89 -50 -185l-11 -10s-179 7 -299 7c-86 0 -170 -10 -170 -10l16 67c54 8 72 27 79 85l48 382c5 43 1 54 -24 54c-11 0 -30 -2 -30 -2l-5 9l15 59s106 -3 178 -3c138 0 236 4 296 12l6 -10
s-28 -88 -44 -181l-90 -6s8 35 8 57c0 41 -23 47 -115 47c-45 0 -50 -3 -55 -33l-26 -158c20 0 62 -1 90 -1c31 0 113 8 113 8l6 -8l-24 -85s-77 3 -125 3c-28 0 -57 -4 -74 -6c-11 -75 -23 -138 -23 -166zM452 711c-34 0 -52 21 -52 52c0 44 32 76 75 76
c34 0 52 -21 52 -52c0 -43 -31 -76 -75 -76zM279 711c-35 0 -52 21 -52 52c0 44 31 76 75 76c34 0 52 -21 52 -52c0 -43 -31 -76 -75 -76z" />
    <glyph glyph-name="Igrave" unicode="&#xcc;" horiz-adv-x="353" 
d="M288 529c-24 -139 -63 -384 -63 -425c0 -31 9 -40 31 -40s42 3 42 3l3 -7l-16 -63s-100 3 -143 3c-55 0 -137 -9 -137 -9l15 64c58 12 74 29 81 84l47 387c5 41 0 52 -28 52c-12 0 -33 -1 -33 -1c-2 3 -3 5 -4 8l14 58c26 0 89 -2 135 -2c43 0 139 8 139 8l-14 -66
c-50 -7 -62 -17 -69 -54zM93 762l-5 13l25 77l13 5s115 -57 223 -104l-13 -47l-14 -9c-114 36 -229 65 -229 65z" />
    <glyph glyph-name="Iacute" unicode="&#xcd;" horiz-adv-x="353" 
d="M288 529c-24 -139 -63 -384 -63 -425c0 -31 9 -40 31 -40s42 3 42 3l3 -7l-16 -63s-100 3 -143 3c-55 0 -137 -9 -137 -9l15 64c58 12 74 29 81 84l47 387c5 41 0 52 -28 52c-12 0 -33 -1 -33 -1c-2 3 -3 5 -4 8l14 58c26 0 89 -2 135 -2c43 0 139 8 139 8l-14 -66
c-50 -7 -62 -17 -69 -54zM394 775l-5 -13s-115 -29 -229 -65l-13 9l-14 47c108 47 223 104 223 104l13 -5z" />
    <glyph glyph-name="Icircumflex" unicode="&#xce;" horiz-adv-x="353" 
d="M288 529c-24 -139 -63 -384 -63 -425c0 -31 9 -40 31 -40s42 3 42 3l3 -7l-16 -63s-100 3 -143 3c-55 0 -137 -9 -137 -9l15 64c58 12 74 29 81 84l47 387c5 41 0 52 -28 52c-12 0 -33 -1 -33 -1c-2 3 -3 5 -4 8l14 58c26 0 89 -2 135 -2c43 0 139 8 139 8l-14 -66
c-50 -7 -62 -17 -69 -54zM99 711l-19 41c43 29 168 124 168 124h20c0 3 102 -94 137 -124l-29 -41l-17 -4c-19 9 -102 53 -115 58c-15 -5 -107 -49 -130 -58z" />
    <glyph glyph-name="Idieresis" unicode="&#xcf;" horiz-adv-x="353" 
d="M288 529c-24 -139 -63 -384 -63 -425c0 -31 9 -40 31 -40s42 3 42 3l3 -7l-16 -63s-100 3 -143 3c-55 0 -137 -9 -137 -9l15 64c58 12 74 29 81 84l47 387c5 41 0 52 -28 52c-12 0 -33 -1 -33 -1c-2 3 -3 5 -4 8l14 58c26 0 89 -2 135 -2c43 0 139 8 139 8l-14 -66
c-50 -7 -62 -17 -69 -54zM320 711c-34 0 -52 21 -52 52c0 44 32 76 75 76c34 0 52 -21 52 -52c0 -43 -31 -76 -75 -76zM147 711c-35 0 -52 21 -52 52c0 44 31 76 75 76c34 0 52 -21 52 -52c0 -43 -31 -76 -75 -76z" />
    <glyph glyph-name="Eth" unicode="&#xd0;" horiz-adv-x="682" 
d="M165 353l-8 -67h-134l-7 7l17 60h132zM250 286l10 67l132 2l6 -9l-14 -60h-134zM298 -12c0 0 -95 12 -150 12c-51 0 -126 -10 -126 -10l15 67c55 10 72 28 80 84l47 382c5 43 0 54 -23 54c-13 0 -33 -2 -33 -2l-4 9l15 60s85 -3 123 -3c45 0 145 5 145 5
c175 0 287 -96 287 -258c0 -229 -160 -400 -376 -400zM335 562c-21 0 -27 -5 -30 -24c-26 -159 -63 -389 -63 -413c0 -41 18 -53 72 -53c127 0 205 116 205 304c0 125 -61 186 -184 186z" />
    <glyph glyph-name="Ntilde" unicode="&#xd1;" horiz-adv-x="704" 
d="M501 230h10l35 305c3 31 -5 43 -26 43c-14 0 -29 -1 -33 -1l-3 8l14 60s82 -4 125 -4c47 0 115 6 115 6l-13 -66c-43 -6 -62 -23 -68 -63l-78 -533l-106 -13c-118 251 -224 451 -224 451h-9l-40 -315c-4 -34 3 -45 28 -45c11 0 41 2 41 2l5 -6l-17 -63s-83 4 -125 4
c-52 0 -120 -8 -120 -8l16 66c39 5 59 22 65 63l61 397c5 43 -9 55 -71 62c-2 4 -4 6 -6 10l13 56s64 -5 113 -5c42 0 93 4 93 4c99 -214 205 -415 205 -415zM294 687h-11l-35 37l1 11l88 96l16 4c33 0 113 -34 141 -34c23 0 69 52 69 52h11l35 -37l-1 -10l-88 -97l-17 -4
c-32 0 -112 34 -140 34c-24 0 -69 -52 -69 -52z" />
    <glyph glyph-name="Ograve" unicode="&#xd2;" horiz-adv-x="649" 
d="M311 73c106 0 174 108 174 298c0 118 -49 188 -129 188c-104 0 -171 -110 -171 -298c0 -118 47 -188 126 -188zM285 -12c-153 0 -253 102 -253 267c0 236 141 398 353 398c157 0 256 -99 256 -263c0 -237 -145 -402 -356 -402zM246 762l-5 13l25 77l13 5
s115 -57 223 -104l-13 -47l-14 -9c-114 36 -229 65 -229 65z" />
    <glyph glyph-name="Oacute" unicode="&#xd3;" horiz-adv-x="649" 
d="M311 73c106 0 174 108 174 298c0 118 -49 188 -129 188c-104 0 -171 -110 -171 -298c0 -118 47 -188 126 -188zM285 -12c-153 0 -253 102 -253 267c0 236 141 398 353 398c157 0 256 -99 256 -263c0 -237 -145 -402 -356 -402zM528 775l-5 -13s-115 -29 -229 -65l-13 9
l-14 47c108 47 223 104 223 104l13 -5z" />
    <glyph glyph-name="Ocircumflex" unicode="&#xd4;" horiz-adv-x="649" 
d="M311 73c106 0 174 108 174 298c0 118 -49 188 -129 188c-104 0 -171 -110 -171 -298c0 -118 47 -188 126 -188zM285 -12c-153 0 -253 102 -253 267c0 236 141 398 353 398c157 0 256 -99 256 -263c0 -237 -145 -402 -356 -402zM242 711l-19 41c43 29 168 124 168 124h20
c0 3 102 -94 137 -124l-29 -41l-17 -4c-19 9 -102 53 -115 58c-15 -5 -107 -49 -130 -58z" />
    <glyph glyph-name="Otilde" unicode="&#xd5;" horiz-adv-x="649" 
d="M311 73c106 0 174 108 174 298c0 118 -49 188 -129 188c-104 0 -171 -110 -171 -298c0 -118 47 -188 126 -188zM285 -12c-153 0 -253 102 -253 267c0 236 141 398 353 398c157 0 256 -99 256 -263c0 -237 -145 -402 -356 -402zM260 687h-11l-35 37l1 11l88 96l16 4
c33 0 113 -34 141 -34c23 0 69 52 69 52h11l35 -37l-1 -10l-88 -97l-17 -4c-32 0 -112 34 -140 34c-24 0 -69 -52 -69 -52z" />
    <glyph glyph-name="Odieresis" unicode="&#xd6;" horiz-adv-x="649" 
d="M311 73c106 0 174 108 174 298c0 118 -49 188 -129 188c-104 0 -171 -110 -171 -298c0 -118 47 -188 126 -188zM285 -12c-153 0 -253 102 -253 267c0 236 141 398 353 398c157 0 256 -99 256 -263c0 -237 -145 -402 -356 -402zM463 711c-34 0 -52 21 -52 52
c0 44 32 76 75 76c34 0 52 -21 52 -52c0 -43 -31 -76 -75 -76zM290 711c-35 0 -52 21 -52 52c0 44 31 76 75 76c34 0 52 -21 52 -52c0 -43 -31 -76 -75 -76z" />
    <glyph glyph-name="multiply" unicode="&#xd7;" horiz-adv-x="488" 
d="M392 452l12 -5l48 -70l-137 -128c47 -55 110 -122 110 -122l-7 -13l-78 -58l-104 123c-63 -58 -133 -125 -133 -125l-12 3l-43 72s67 62 128 118c-50 59 -109 129 -109 129l4 14l81 53s55 -68 103 -125c59 56 137 134 137 134z" />
    <glyph glyph-name="Oslash" unicode="&#xd8;" horiz-adv-x="649" 
d="M596 687l-95 -155l-63 41l94 156l61 -29zM501 532l-271 -464l-61 41l269 464zM60 -68l109 177l61 -41l-107 -175l-60 29zM311 73c106 0 174 108 174 298c0 118 -49 188 -129 188c-104 0 -171 -110 -171 -298c0 -118 47 -188 126 -188zM285 -12c-153 0 -253 102 -253 267
c0 236 141 398 353 398c157 0 256 -99 256 -263c0 -237 -145 -402 -356 -402z" />
    <glyph glyph-name="Ugrave" unicode="&#xd9;" horiz-adv-x="629" 
d="M256 528l-43 -291c-1 -14 -2 -29 -2 -40c-1 -78 34 -120 101 -120c77 0 121 43 132 132c9 66 36 315 36 315c4 44 0 54 -24 54c-10 0 -32 -2 -32 -2l-2 4l16 64s76 -3 112 -3c50 0 117 7 117 7l-14 -66c-50 -10 -58 -17 -62 -50l-39 -313c-19 -151 -113 -231 -272 -231
c-137 0 -205 61 -205 177c0 13 1 26 3 40l40 319c5 44 1 54 -26 54c-11 0 -30 -2 -30 -2l-2 4l17 64s82 -3 138 -3c40 0 116 7 116 7l-15 -67c-41 -5 -55 -18 -60 -53zM244 762l-5 13l25 77l13 5s115 -57 223 -104l-13 -47l-14 -9c-114 36 -229 65 -229 65z" />
    <glyph glyph-name="Uacute" unicode="&#xda;" horiz-adv-x="629" 
d="M256 528l-43 -291c-1 -14 -2 -29 -2 -40c-1 -78 34 -120 101 -120c77 0 121 43 132 132c9 66 36 315 36 315c4 44 0 54 -24 54c-10 0 -32 -2 -32 -2l-2 4l16 64s76 -3 112 -3c50 0 117 7 117 7l-14 -66c-50 -10 -58 -17 -62 -50l-39 -313c-19 -151 -113 -231 -272 -231
c-137 0 -205 61 -205 177c0 13 1 26 3 40l40 319c5 44 1 54 -26 54c-11 0 -30 -2 -30 -2l-2 4l17 64s82 -3 138 -3c40 0 116 7 116 7l-15 -67c-41 -5 -55 -18 -60 -53zM544 775l-5 -13s-115 -29 -229 -65l-13 9l-14 47c108 47 223 104 223 104l13 -5z" />
    <glyph glyph-name="Ucircumflex" unicode="&#xdb;" horiz-adv-x="629" 
d="M256 528l-43 -291c-1 -14 -2 -29 -2 -40c-1 -78 34 -120 101 -120c77 0 121 43 132 132c9 66 36 315 36 315c4 44 0 54 -24 54c-10 0 -32 -2 -32 -2l-2 4l16 64s76 -3 112 -3c50 0 117 7 117 7l-14 -66c-50 -10 -58 -17 -62 -50l-39 -313c-19 -151 -113 -231 -272 -231
c-137 0 -205 61 -205 177c0 13 1 26 3 40l40 319c5 44 1 54 -26 54c-11 0 -30 -2 -30 -2l-2 4l17 64s82 -3 138 -3c40 0 116 7 116 7l-15 -67c-41 -5 -55 -18 -60 -53zM254 711l-19 41c43 29 168 124 168 124h20c0 3 102 -94 137 -124l-29 -41l-17 -4c-19 9 -102 53 -115 58
c-15 -5 -107 -49 -130 -58z" />
    <glyph glyph-name="Udieresis" unicode="&#xdc;" horiz-adv-x="629" 
d="M256 528l-43 -291c-1 -14 -2 -29 -2 -40c-1 -78 34 -120 101 -120c77 0 121 43 132 132c9 66 36 315 36 315c4 44 0 54 -24 54c-10 0 -32 -2 -32 -2l-2 4l16 64s76 -3 112 -3c50 0 117 7 117 7l-14 -66c-50 -10 -58 -17 -62 -50l-39 -313c-19 -151 -113 -231 -272 -231
c-137 0 -205 61 -205 177c0 13 1 26 3 40l40 319c5 44 1 54 -26 54c-11 0 -30 -2 -30 -2l-2 4l17 64s82 -3 138 -3c40 0 116 7 116 7l-15 -67c-41 -5 -55 -18 -60 -53zM474 711c-34 0 -52 21 -52 52c0 44 32 76 75 76c34 0 52 -21 52 -52c0 -43 -31 -76 -75 -76zM301 711
c-35 0 -52 21 -52 52c0 44 31 76 75 76c34 0 52 -21 52 -52c0 -43 -31 -76 -75 -76z" />
    <glyph glyph-name="Yacute" unicode="&#xdd;" horiz-adv-x="582" 
d="M261 551c0 -28 49 -185 56 -207h8l97 168c12 20 19 38 19 50c0 13 -13 19 -46 21l-2 5l15 57c25 0 85 -4 128 -4c44 0 100 4 100 4l3 -7l-15 -60c-56 -18 -83 -51 -132 -128l-114 -179c-23 -36 -25 -65 -35 -140c-7 -49 1 -66 37 -66c22 0 48 3 48 3l3 -5l-17 -67
s-111 4 -159 4c-56 0 -154 -11 -154 -11l15 67c77 11 92 28 99 95l4 31c4 35 2 59 -15 103l-71 190c-22 62 -38 89 -96 101l-3 5l16 63s86 -3 124 -3c50 0 156 8 156 8l4 -9l-13 -57c-48 -3 -60 -11 -60 -32zM527 775l-5 -13s-115 -29 -229 -65l-13 9l-14 47
c108 47 223 104 223 104l13 -5z" />
    <glyph glyph-name="Thorn" unicode="&#xde;" horiz-adv-x="555" 
d="M291 536l-4 -24h72c134 0 201 -52 201 -152c0 -124 -118 -216 -260 -216h-68l-4 -30c-5 -40 1 -49 30 -49c26 0 46 3 46 3l4 -7l-16 -64s-105 3 -150 3c-54 0 -138 -9 -138 -9l15 65c57 12 73 28 80 84l48 385c5 41 -1 52 -29 52c-12 0 -32 -1 -32 -1l-5 8l15 59
c27 0 90 -1 136 -1c43 0 140 7 140 7l-13 -67c-52 -8 -63 -16 -68 -46zM271 417c-11 -73 -22 -143 -28 -185c24 -7 59 -14 78 -14c64 11 95 56 95 124c0 62 -38 89 -121 89c-17 0 -22 -3 -24 -14z" />
    <glyph glyph-name="germandbls" unicode="&#xdf;" horiz-adv-x="610" 
d="M24 393l-3 5l5 46l84 13l7 64c14 120 131 221 253 221c103 0 179 -52 179 -128c0 -114 -129 -146 -129 -221s179 -89 179 -222c0 -102 -95 -183 -212 -183c-66 0 -124 26 -128 59c5 29 34 85 56 110l20 -1c-4 -53 23 -88 70 -88c34 0 64 32 64 67c0 81 -175 94 -175 219
c0 106 131 141 131 223c0 44 -32 78 -93 78c-53 0 -85 -30 -95 -99l-66 -598c-12 -109 -103 -200 -197 -200c-52 0 -100 23 -111 54c9 30 35 83 52 107h16c2 -54 26 -81 71 -81c37 0 66 30 69 80c-3 -9 -10 -91 6 115l27 351l-9 7z" />
    <glyph glyph-name="agrave" unicode="&#xe0;" horiz-adv-x="493" 
d="M384 109l4 -4c8 0 18 8 66 50l17 -2l16 -35c-94 -99 -136 -130 -174 -130c-29 0 -43 13 -43 38c0 19 24 127 34 167l-8 1c-60 -108 -108 -169 -161 -206c-72 0 -114 54 -114 146c0 161 124 332 241 332l87 -18l7 22l11 7l81 -14l8 -17s-48 -179 -72 -337zM167 105
c30 0 102 120 152 253c-30 18 -63 29 -88 29c-42 0 -86 -100 -86 -197c0 -49 10 -85 22 -85zM160 652l-2 14l55 70l13 1s85 -90 168 -170l-30 -39l-16 -4c-93 69 -188 128 -188 128z" />
    <glyph glyph-name="aacute" unicode="&#xe1;" horiz-adv-x="493" 
d="M384 109l4 -4c8 0 18 8 66 50l17 -2l16 -35c-94 -99 -136 -130 -174 -130c-29 0 -43 13 -43 38c0 19 24 127 34 167l-8 1c-60 -108 -108 -169 -161 -206c-72 0 -114 54 -114 146c0 161 124 332 241 332l87 -18l7 22l11 7l81 -14l8 -17s-48 -179 -72 -337zM167 105
c30 0 102 120 152 253c-30 18 -63 29 -88 29c-42 0 -86 -100 -86 -197c0 -49 10 -85 22 -85zM432 666l-1 -14s-96 -60 -189 -129l-15 4l-30 39c83 80 168 171 168 171l13 -1z" />
    <glyph glyph-name="acircumflex" unicode="&#xe2;" horiz-adv-x="493" 
d="M384 109l4 -4c8 0 18 8 66 50l17 -2l16 -35c-94 -99 -136 -130 -174 -130c-29 0 -43 13 -43 38c0 19 24 127 34 167l-8 1c-60 -108 -108 -169 -161 -206c-72 0 -114 54 -114 146c0 161 124 332 241 332l87 -18l7 22l11 7l81 -14l8 -17s-48 -179 -72 -337zM167 105
c30 0 102 120 152 253c-30 18 -63 29 -88 29c-42 0 -86 -100 -86 -197c0 -49 10 -85 22 -85zM161 535l-24 41c41 33 166 154 166 154h20s97 -121 129 -154l-34 -41l-16 -4c-17 13 -92 76 -103 83c-13 -7 -103 -70 -122 -83z" />
    <glyph glyph-name="atilde" unicode="&#xe3;" horiz-adv-x="493" 
d="M384 109l4 -4c8 0 18 8 66 50l17 -2l16 -35c-94 -99 -136 -130 -174 -130c-29 0 -43 13 -43 38c0 19 24 127 34 167l-8 1c-60 -108 -108 -169 -161 -206c-72 0 -114 54 -114 146c0 161 124 332 241 332l87 -18l7 22l11 7l81 -14l8 -17s-48 -179 -72 -337zM167 105
c30 0 102 120 152 253c-30 18 -63 29 -88 29c-42 0 -86 -100 -86 -197c0 -49 10 -85 22 -85zM162 540h-11l-35 36l1 11l88 101l16 4c33 0 114 -33 142 -33c22 0 69 56 69 56h11l36 -37l-2 -10l-88 -102l-16 -4c-33 0 -113 34 -141 34c-24 0 -70 -56 -70 -56z" />
    <glyph glyph-name="adieresis" unicode="&#xe4;" horiz-adv-x="493" 
d="M384 109l4 -4c8 0 18 8 66 50l17 -2l16 -35c-94 -99 -136 -130 -174 -130c-29 0 -43 13 -43 38c0 19 24 127 34 167l-8 1c-60 -108 -108 -169 -161 -206c-72 0 -114 54 -114 146c0 161 124 332 241 332l87 -18l7 22l11 7l81 -14l8 -17s-48 -179 -72 -337zM167 105
c30 0 102 120 152 253c-30 18 -63 29 -88 29c-42 0 -86 -100 -86 -197c0 -49 10 -85 22 -85zM384 564c-35 0 -53 21 -53 52c0 43 32 76 76 76c34 0 52 -21 52 -52c0 -44 -31 -76 -75 -76zM210 564c-34 0 -52 21 -52 52c0 43 32 76 76 76c34 0 51 -21 51 -52
c0 -44 -31 -76 -75 -76z" />
    <glyph glyph-name="aring" unicode="&#xe5;" horiz-adv-x="493" 
d="M384 109l4 -4c8 0 18 8 66 50l17 -2l16 -35c-94 -99 -136 -130 -174 -130c-29 0 -43 13 -43 38c0 19 24 127 34 167l-8 1c-60 -108 -108 -169 -161 -206c-72 0 -114 54 -114 146c0 161 124 332 241 332l87 -18l7 22l11 7l81 -14l8 -17s-48 -179 -72 -337zM167 105
c30 0 102 120 152 253c-30 18 -63 29 -88 29c-42 0 -86 -100 -86 -197c0 -49 10 -85 22 -85zM279 596c15 0 43 6 43 42c0 22 -13 36 -39 36c-28 0 -42 -17 -42 -41c0 -27 22 -37 38 -37zM266 543c-50 0 -76 32 -76 78c0 61 45 108 107 108c56 0 77 -36 77 -75
c0 -56 -42 -111 -108 -111z" />
    <glyph glyph-name="ae" unicode="&#xe6;" horiz-adv-x="635" 
d="M439 439l-129 -211l-14 -34c-60 -108 -108 -169 -161 -206c-72 0 -114 54 -114 146c0 161 124 332 241 332zM167 105c30 0 102 125 152 263c-30 12 -63 19 -88 19c-42 0 -86 -100 -86 -197c0 -49 10 -85 22 -85zM627 379c0 -89 -68 -141 -243 -196c0 -60 23 -98 63 -98
c37 0 73 29 100 79l18 -2l33 -40c-36 -77 -118 -134 -193 -134c-85 0 -139 68 -139 175c0 161 122 310 254 310c67 0 107 -35 107 -94zM485 385c-44 0 -85 -58 -98 -141c91 30 131 63 131 106c0 23 -12 35 -33 35z" />
    <glyph glyph-name="ccedilla" unicode="&#xe7;" horiz-adv-x="368" 
d="M241 385c-51 0 -97 -89 -97 -191c0 -68 23 -108 59 -108c34 0 70 31 93 81l17 -2l33 -41c-35 -77 -115 -136 -184 -136c-85 0 -138 66 -138 172c0 165 119 313 252 313c37 0 74 -8 97 -22l4 -15l-42 -96l-28 -2c-19 32 -40 47 -66 47zM118 -86l45 115h52l-29 -73
c33 -20 84 -54 84 -92c0 -55 -73 -102 -144 -102c-32 0 -72 16 -72 42c0 15 28 47 46 66h8c-3 -37 15 -56 43 -56c24 0 42 13 42 32c0 21 -41 48 -75 68z" />
    <glyph glyph-name="egrave" unicode="&#xe8;" horiz-adv-x="393" 
d="M385 379c0 -89 -68 -141 -243 -196c0 -60 23 -98 63 -98c37 0 73 29 101 79l17 -2l33 -40c-36 -77 -118 -134 -193 -134c-85 0 -139 68 -139 175c0 161 122 310 254 310c67 0 107 -35 107 -94zM243 385c-44 0 -85 -58 -98 -141c91 30 131 63 131 106c0 23 -12 35 -33 35z
M132 651l-2 14l55 70l13 1s85 -90 168 -170l-30 -39l-16 -4c-93 69 -188 128 -188 128z" />
    <glyph glyph-name="eacute" unicode="&#xe9;" horiz-adv-x="393" 
d="M385 379c0 -89 -68 -141 -243 -196c0 -60 23 -98 63 -98c37 0 73 29 101 79l17 -2l33 -40c-36 -77 -118 -134 -193 -134c-85 0 -139 68 -139 175c0 161 122 310 254 310c67 0 107 -35 107 -94zM243 385c-44 0 -85 -58 -98 -141c91 30 131 63 131 106c0 23 -12 35 -33 35z
M384 667l-1 -14s-96 -60 -189 -129l-15 4l-30 39c83 80 168 171 168 171l13 -1z" />
    <glyph glyph-name="ecircumflex" unicode="&#xea;" horiz-adv-x="393" 
d="M385 379c0 -89 -68 -141 -243 -196c0 -60 23 -98 63 -98c37 0 73 29 101 79l17 -2l33 -40c-36 -77 -118 -134 -193 -134c-85 0 -139 68 -139 175c0 161 122 310 254 310c67 0 107 -35 107 -94zM243 385c-44 0 -85 -58 -98 -141c91 30 131 63 131 106c0 23 -12 35 -33 35z
M138 535l-24 41c41 33 166 154 166 154h20s97 -121 129 -154l-34 -41l-16 -4c-17 13 -92 76 -103 83c-13 -7 -103 -70 -122 -83z" />
    <glyph glyph-name="edieresis" unicode="&#xeb;" horiz-adv-x="393" 
d="M385 379c0 -89 -68 -141 -243 -196c0 -60 23 -98 63 -98c37 0 73 29 101 79l17 -2l33 -40c-36 -77 -118 -134 -193 -134c-85 0 -139 68 -139 175c0 161 122 310 254 310c67 0 107 -35 107 -94zM243 385c-44 0 -85 -58 -98 -141c91 30 131 63 131 106c0 23 -12 35 -33 35z
M349 563c-35 0 -53 21 -53 52c0 43 32 76 76 76c34 0 52 -21 52 -52c0 -44 -31 -76 -75 -76zM175 563c-34 0 -52 21 -52 52c0 43 32 76 76 76c34 0 51 -21 51 -52c0 -44 -31 -76 -75 -76z" />
    <glyph glyph-name="igrave" unicode="&#xec;" horiz-adv-x="293" 
d="M45 651l-2 14l55 70l13 1s85 -90 168 -170l-30 -39l-16 -4c-93 69 -188 128 -188 128zM169 109l4 -4c8 0 16 6 66 50l17 -2l17 -35c-87 -94 -136 -130 -174 -130c-33 0 -47 17 -47 50c0 0 48 286 48 318c0 27 -11 38 -38 38h-35l10 59c74 0 191 9 191 9l12 -16
s-47 -168 -71 -337z" />
    <glyph glyph-name="iacute" unicode="&#xed;" horiz-adv-x="293" 
d="M308 666l-1 -14s-96 -60 -189 -129l-15 4l-30 39c83 80 168 171 168 171l13 -1zM169 109l4 -4c8 0 16 6 66 50l17 -2l17 -35c-87 -94 -136 -130 -174 -130c-33 0 -47 17 -47 50c0 0 48 286 48 318c0 27 -11 38 -38 38h-35l10 59c74 0 191 9 191 9l12 -16
s-47 -168 -71 -337z" />
    <glyph glyph-name="icircumflex" unicode="&#xee;" horiz-adv-x="293" 
d="M169 109l4 -4c8 0 16 6 66 50l17 -2l17 -35c-87 -94 -136 -130 -174 -130c-33 0 -47 17 -47 50c0 0 48 286 48 318c0 27 -11 38 -38 38h-35l10 59c74 0 191 9 191 9l12 -16s-47 -168 -71 -337zM51 534l-24 41c41 33 166 154 166 154h20s97 -121 129 -154l-34 -41l-16 -4
c-17 13 -92 76 -103 83c-13 -7 -103 -70 -122 -83z" />
    <glyph glyph-name="idieresis" unicode="&#xef;" horiz-adv-x="293" 
d="M263 563c-35 0 -53 21 -53 52c0 43 32 76 76 76c34 0 52 -21 52 -52c0 -44 -31 -76 -75 -76zM89 563c-34 0 -52 21 -52 52c0 43 32 76 76 76c34 0 51 -21 51 -52c0 -44 -31 -76 -75 -76zM169 109l4 -4c8 0 16 6 66 50l17 -2l17 -35c-87 -94 -136 -130 -174 -130
c-33 0 -47 17 -47 50c0 0 48 286 48 318c0 27 -11 38 -38 38h-35l10 59c74 0 191 9 191 9l12 -16s-47 -168 -71 -337z" />
    <glyph glyph-name="eth" unicode="&#xf0;" horiz-adv-x="490" 
d="M437 716l8 -5l10 -59l-108 -53c80 -85 123 -195 123 -307c0 -179 -112 -304 -264 -304c-116 0 -184 74 -184 190c0 156 107 285 228 285c20 -4 45 -21 51 -24l4 5c-13 38 -33 74 -59 106l-133 -64l-8 3l-10 61l99 49c-28 29 -63 56 -105 81l40 56l13 5
c58 -27 108 -59 150 -95zM331 280c0 21 0 52 -2 69c-11 11 -31 26 -68 26c-64 0 -105 -76 -105 -189c0 -77 29 -121 80 -121c53 0 95 95 95 215z" />
    <glyph glyph-name="ntilde" unicode="&#xf1;" horiz-adv-x="519" 
d="M400 110l3 -3c8 0 15 5 66 50l18 -3l16 -35c-87 -93 -135 -130 -174 -130c-32 0 -48 14 -48 44c0 52 69 224 69 278c0 22 -10 35 -26 35c-33 0 -94 -101 -151 -246l-9 -71c-3 -17 -59 -37 -104 -37l-13 16s49 300 54 345c2 30 -9 41 -38 41h-35l10 59c74 0 191 9 191 9
l11 -16s-32 -100 -47 -196l6 -1c56 117 112 195 162 225c67 0 111 -41 111 -101c0 -56 -59 -199 -72 -263zM184 539h-11l-35 36l1 11l88 101l16 4c33 0 114 -33 142 -33c22 0 69 56 69 56h11l36 -37l-2 -10l-88 -102l-16 -4c-33 0 -113 34 -141 34c-24 0 -70 -56 -70 -56z
" />
    <glyph glyph-name="ograve" unicode="&#xf2;" horiz-adv-x="444" 
d="M210 68c52 0 84 72 84 195c0 81 -21 122 -61 122c-49 0 -83 -76 -83 -186c0 -82 23 -131 60 -131zM171 -12c-89 0 -144 67 -144 179c0 173 106 307 247 307c93 0 146 -61 146 -169c0 -180 -106 -317 -249 -317zM126 651l-2 14l55 70l13 1s85 -90 168 -170l-30 -39l-16 -4
c-93 69 -188 128 -188 128z" />
    <glyph glyph-name="oacute" unicode="&#xf3;" horiz-adv-x="444" 
d="M210 68c52 0 84 72 84 195c0 81 -21 122 -61 122c-49 0 -83 -76 -83 -186c0 -82 23 -131 60 -131zM171 -12c-89 0 -144 67 -144 179c0 173 106 307 247 307c93 0 146 -61 146 -169c0 -180 -106 -317 -249 -317zM410 666l-1 -14s-96 -60 -189 -129l-15 4l-30 39
c83 80 168 171 168 171l13 -1z" />
    <glyph glyph-name="ocircumflex" unicode="&#xf4;" horiz-adv-x="444" 
d="M210 68c52 0 84 72 84 195c0 81 -21 122 -61 122c-49 0 -83 -76 -83 -186c0 -82 23 -131 60 -131zM171 -12c-89 0 -144 67 -144 179c0 173 106 307 247 307c93 0 146 -61 146 -169c0 -180 -106 -317 -249 -317zM137 535l-24 41c41 33 166 154 166 154h20
s97 -121 129 -154l-34 -41l-16 -4c-17 13 -92 76 -103 83c-13 -7 -103 -70 -122 -83z" />
    <glyph glyph-name="otilde" unicode="&#xf5;" horiz-adv-x="444" 
d="M210 68c52 0 84 72 84 195c0 81 -21 122 -61 122c-49 0 -83 -76 -83 -186c0 -82 23 -131 60 -131zM171 -12c-89 0 -144 67 -144 179c0 173 106 307 247 307c93 0 146 -61 146 -169c0 -180 -106 -317 -249 -317zM143 539h-11l-35 36l1 11l88 101l16 4
c33 0 114 -33 142 -33c22 0 69 56 69 56h11l36 -37l-2 -10l-88 -102l-16 -4c-33 0 -113 34 -141 34c-24 0 -70 -56 -70 -56z" />
    <glyph glyph-name="odieresis" unicode="&#xf6;" horiz-adv-x="444" 
d="M210 68c52 0 84 72 84 195c0 81 -21 122 -61 122c-49 0 -83 -76 -83 -186c0 -82 23 -131 60 -131zM171 -12c-89 0 -144 67 -144 179c0 173 106 307 247 307c93 0 146 -61 146 -169c0 -180 -106 -317 -249 -317zM351 563c-35 0 -53 21 -53 52c0 43 32 76 76 76
c34 0 52 -21 52 -52c0 -44 -31 -76 -75 -76zM177 563c-34 0 -52 21 -52 52c0 43 32 76 76 76c34 0 51 -21 51 -52c0 -44 -31 -76 -75 -76z" />
    <glyph glyph-name="divide" unicode="&#xf7;" horiz-adv-x="488" 
d="M476 312l5 -12l-22 -92l-219 -1c-87 0 -219 -1 -219 -1l-6 11l25 90s139 -1 225 -1c78 0 211 6 211 6zM210 7c-40 0 -59 25 -59 59c0 49 33 85 82 85c39 0 59 -24 59 -59c0 -49 -33 -85 -82 -85zM253 362c-40 0 -58 25 -58 59c0 49 32 85 82 85c39 0 59 -24 59 -59
c0 -49 -33 -85 -83 -85z" />
    <glyph glyph-name="oslash" unicode="&#xf8;" horiz-adv-x="444" 
d="M448 530l-95 -156l-63 42l93 156l62 -30zM353 374l-183 -312l-61 41l181 313zM-2 -78l111 181l61 -41l-110 -179l-60 29zM210 68c52 0 84 72 84 195c0 81 -21 122 -61 122c-49 0 -83 -76 -83 -186c0 -82 23 -131 60 -131zM171 -12c-89 0 -144 67 -144 179
c0 173 106 307 247 307c93 0 146 -61 146 -169c0 -180 -106 -317 -249 -317z" />
    <glyph glyph-name="ugrave" unicode="&#xf9;" horiz-adv-x="508" 
d="M320 201l-9 1c-51 -107 -101 -177 -150 -213c-74 0 -118 37 -118 95c0 55 66 230 66 276c0 24 -11 34 -38 34h-34l10 59c74 0 191 9 191 9l12 -16s-86 -260 -86 -307c0 -20 7 -29 23 -29c31 0 96 105 158 255l14 92l15 8l82 -6l13 -15s-47 -177 -71 -335l4 -4
c8 0 12 4 66 50l17 -2l16 -35c-97 -101 -136 -130 -174 -130c-29 0 -43 13 -43 38c0 22 27 137 36 175zM163 651l-2 14l55 70l13 1s85 -90 168 -170l-30 -39l-16 -4c-93 69 -188 128 -188 128z" />
    <glyph glyph-name="uacute" unicode="&#xfa;" horiz-adv-x="508" 
d="M320 201l-9 1c-51 -107 -101 -177 -150 -213c-74 0 -118 37 -118 95c0 55 66 230 66 276c0 24 -11 34 -38 34h-34l10 59c74 0 191 9 191 9l12 -16s-86 -260 -86 -307c0 -20 7 -29 23 -29c31 0 96 105 158 255l14 92l15 8l82 -6l13 -15s-47 -177 -71 -335l4 -4
c8 0 12 4 66 50l17 -2l16 -35c-97 -101 -136 -130 -174 -130c-29 0 -43 13 -43 38c0 22 27 137 36 175zM441 666l-1 -14s-96 -60 -189 -129l-15 4l-30 39c83 80 168 171 168 171l13 -1z" />
    <glyph glyph-name="ucircumflex" unicode="&#xfb;" horiz-adv-x="508" 
d="M320 201l-9 1c-51 -107 -101 -177 -150 -213c-74 0 -118 37 -118 95c0 55 66 230 66 276c0 24 -11 34 -38 34h-34l10 59c74 0 191 9 191 9l12 -16s-86 -260 -86 -307c0 -20 7 -29 23 -29c31 0 96 105 158 255l14 92l15 8l82 -6l13 -15s-47 -177 -71 -335l4 -4
c8 0 12 4 66 50l17 -2l16 -35c-97 -101 -136 -130 -174 -130c-29 0 -43 13 -43 38c0 22 27 137 36 175zM168 535l-24 41c41 33 166 154 166 154h20s97 -121 129 -154l-34 -41l-16 -4c-17 13 -92 76 -103 83c-13 -7 -103 -70 -122 -83z" />
    <glyph glyph-name="udieresis" unicode="&#xfc;" horiz-adv-x="508" 
d="M320 201l-9 1c-51 -107 -101 -177 -150 -213c-74 0 -118 37 -118 95c0 55 66 230 66 276c0 24 -11 34 -38 34h-34l10 59c74 0 191 9 191 9l12 -16s-86 -260 -86 -307c0 -20 7 -29 23 -29c31 0 96 105 158 255l14 92l15 8l82 -6l13 -15s-47 -177 -71 -335l4 -4
c8 0 12 4 66 50l17 -2l16 -35c-97 -101 -136 -130 -174 -130c-29 0 -43 13 -43 38c0 22 27 137 36 175zM381 563c-35 0 -53 21 -53 52c0 43 32 76 76 76c34 0 52 -21 52 -52c0 -44 -31 -76 -75 -76zM207 563c-34 0 -52 21 -52 52c0 43 32 76 76 76c34 0 51 -21 51 -52
c0 -44 -31 -76 -75 -76z" />
    <glyph glyph-name="yacute" unicode="&#xfd;" horiz-adv-x="462" 
d="M286 417l7 32l132 25c20 -17 32 -50 32 -87c0 -71 -63 -195 -189 -376c-128 -181 -212 -254 -296 -254c-48 0 -92 23 -100 51c4 25 23 75 41 109l20 -1c8 -36 37 -61 71 -61c42 0 78 25 134 96c-15 164 -34 313 -49 406c-5 26 -14 35 -36 35c-11 0 -40 -3 -40 -3l4 58
l177 20l11 -9c10 -97 15 -219 15 -369h12c65 113 104 208 104 254c0 31 -19 58 -50 74zM416 666l-1 -14s-96 -60 -189 -129l-15 4l-30 39c83 80 168 171 168 171l13 -1z" />
    <glyph glyph-name="thorn" unicode="&#xfe;" horiz-adv-x="488" 
d="M12 -112c0 0 114 717 114 745c0 25 -11 36 -38 36h-34l8 59c76 0 193 9 193 9l12 -16s-56 -254 -91 -471l6 -1c60 119 102 179 153 219c80 0 130 -63 130 -161c0 -166 -118 -317 -249 -317c-31 0 -60 4 -83 9l-16 -118c-5 -38 4 -49 42 -49h43c0 -2 1 -4 1 -6l-10 -55
c-121 0 -249 -7 -249 -7l10 58c34 4 50 16 58 66zM312 358c-27 0 -89 -113 -144 -257c17 -6 59 -24 86 -24c46 0 88 86 88 185c0 51 -13 96 -30 96z" />
    <glyph glyph-name="ydieresis" unicode="&#xff;" horiz-adv-x="462" 
d="M286 417l7 32l132 25c20 -17 32 -50 32 -87c0 -71 -63 -195 -189 -376c-128 -181 -212 -254 -296 -254c-48 0 -92 23 -100 51c4 25 23 75 41 109l20 -1c8 -36 37 -61 71 -61c42 0 78 25 134 96c-15 164 -34 313 -49 406c-5 26 -14 35 -36 35c-11 0 -40 -3 -40 -3l4 58
l177 20l11 -9c10 -97 15 -219 15 -369h12c65 113 104 208 104 254c0 31 -19 58 -50 74zM351 563c-35 0 -53 21 -53 52c0 43 32 76 76 76c34 0 52 -21 52 -52c0 -44 -31 -76 -75 -76zM177 563c-34 0 -52 21 -52 52c0 43 32 76 76 76c34 0 51 -21 51 -52
c0 -44 -31 -76 -75 -76z" />
    <glyph glyph-name="Amacron" unicode="&#x100;" horiz-adv-x="607" 
d="M522 131c8 -48 24 -64 66 -69l4 -7l-14 -58s-77 3 -119 3c-83 0 -165 -8 -165 -8l-4 8l12 59c65 5 79 13 79 42c0 7 -1 18 -2 29l-9 77c-13 1 -69 2 -87 2c-29 0 -80 -5 -93 -7l-32 -77c-7 -17 -10 -27 -10 -37c0 -18 12 -26 39 -26h42l3 -6l-14 -62s-79 6 -140 6
c-53 0 -117 -3 -117 -3l15 66c30 5 50 22 71 67l230 506l157 17l11 -5s46 -345 77 -517zM321 512l-96 -227h67c21 0 49 2 71 4l-28 223h-14zM521 805l7 -14l-22 -77l-136 -1c-57 0 -134 -1 -134 -1l-9 12l23 76s92 -1 148 -1c49 0 123 6 123 6z" />
    <glyph glyph-name="amacron" unicode="&#x101;" horiz-adv-x="493" 
d="M384 109l4 -4c8 0 18 8 66 50l17 -2l16 -35c-94 -99 -136 -130 -174 -130c-29 0 -43 13 -43 38c0 19 24 127 34 167l-8 1c-60 -108 -108 -169 -161 -206c-72 0 -114 54 -114 146c0 161 124 332 241 332l87 -18l7 22l11 7l81 -14l8 -17s-48 -179 -72 -337zM167 105
c30 0 102 120 152 253c-30 18 -63 29 -88 29c-42 0 -86 -100 -86 -197c0 -49 10 -85 22 -85zM439 673l6 -14l-22 -76l-136 -1c-57 0 -134 -1 -134 -1l-9 11l23 76s92 -1 149 -1c48 0 123 6 123 6z" />
    <glyph glyph-name="Abreve" unicode="&#x102;" horiz-adv-x="607" 
d="M522 131c8 -48 24 -64 66 -69l4 -7l-14 -58s-77 3 -119 3c-83 0 -165 -8 -165 -8l-4 8l12 59c65 5 79 13 79 42c0 7 -1 18 -2 29l-9 77c-13 1 -69 2 -87 2c-29 0 -80 -5 -93 -7l-32 -77c-7 -17 -10 -27 -10 -37c0 -18 12 -26 39 -26h42l3 -6l-14 -62s-79 6 -140 6
c-53 0 -117 -3 -117 -3l15 66c30 5 50 22 71 67l230 506l157 17l11 -5s46 -345 77 -517zM321 512l-96 -227h67c21 0 49 2 71 4l-28 223h-14zM378 798c45 0 86 19 109 59l16 -3l23 -35c-24 -58 -76 -116 -159 -116s-121 58 -131 116l33 35l17 3c13 -40 49 -59 92 -59z" />
    <glyph glyph-name="abreve" unicode="&#x103;" horiz-adv-x="493" 
d="M384 109l4 -4c8 0 18 8 66 50l17 -2l16 -35c-94 -99 -136 -130 -174 -130c-29 0 -43 13 -43 38c0 19 24 127 34 167l-8 1c-60 -108 -108 -169 -161 -206c-72 0 -114 54 -114 146c0 161 124 332 241 332l87 -18l7 22l11 7l81 -14l8 -17s-48 -179 -72 -337zM167 105
c30 0 102 120 152 253c-30 18 -63 29 -88 29c-42 0 -86 -100 -86 -197c0 -49 10 -85 22 -85zM301 638c44 0 85 22 108 68l18 -4l22 -34c-24 -63 -77 -125 -159 -125c-84 0 -121 62 -130 125l31 34l18 4c12 -46 48 -68 92 -68z" />
    <glyph glyph-name="Aogonek" unicode="&#x104;" horiz-adv-x="607" 
d="M522 131c8 -48 24 -64 66 -69l4 -7l-14 -58s-77 3 -119 3c-83 0 -165 -8 -165 -8l-4 8l12 59c65 5 79 13 79 42c0 7 -1 18 -2 29l-9 77c-13 1 -69 2 -87 2c-29 0 -80 -5 -93 -7l-32 -77c-7 -17 -10 -27 -10 -37c0 -18 12 -26 39 -26h42l3 -6l-14 -62s-79 6 -140 6
c-53 0 -117 -3 -117 -3l15 66c30 5 50 22 71 67l230 506l157 17l11 -5s46 -345 77 -517zM321 512l-96 -227h67c21 0 49 2 71 4l-28 223h-14zM563 -146l15 -29s-57 -50 -107 -67c-65 0 -106 30 -106 81c0 57 49 108 152 202h54c-96 -101 -121 -130 -121 -170
c0 -24 16 -41 41 -41c33 0 72 24 72 24z" />
    <glyph glyph-name="aogonek" unicode="&#x105;" horiz-adv-x="493" 
d="M384 109l4 -4c8 0 18 9 66 50l17 -2l18 -38l-176 -127c-29 0 -43 13 -43 38c0 19 24 127 34 167l-8 1c-60 -108 -108 -169 -161 -206c-72 0 -114 54 -114 146c0 161 124 332 241 332l87 -18l7 22l11 7l81 -14l8 -17s-48 -179 -72 -337zM167 105c30 0 102 120 152 253
c-30 18 -63 29 -88 29c-42 0 -86 -100 -86 -197c0 -48 10 -85 22 -85zM407 -145l15 -29s-57 -50 -107 -67c-65 0 -106 30 -106 82c0 56 51 108 147 201l133 73c-147 -137 -195 -191 -195 -242c0 -24 16 -42 41 -42c33 0 72 24 72 24z" />
    <glyph glyph-name="Cacute" unicode="&#x106;" horiz-adv-x="594" 
d="M294 -12c-162 0 -262 101 -262 268c0 242 145 397 370 397c81 0 197 -24 197 -24l4 -13s-30 -83 -49 -188l-97 -6s9 47 9 66c0 47 -33 71 -99 71c-112 0 -179 -99 -179 -284c0 -126 46 -195 131 -195c69 0 109 38 138 138l97 7s-29 -103 -42 -185l-10 -12
s-88 -40 -208 -40zM536 775l-5 -13s-115 -29 -229 -65l-13 9l-14 47c108 47 223 104 223 104l13 -5z" />
    <glyph glyph-name="cacute" unicode="&#x107;" horiz-adv-x="368" 
d="M241 385c-51 0 -97 -89 -97 -191c0 -68 23 -108 59 -108c34 0 70 31 93 81l17 -2l33 -41c-35 -77 -115 -136 -184 -136c-85 0 -138 66 -138 172c0 165 119 313 252 313c37 0 74 -8 97 -22l4 -15l-42 -96l-28 -2c-19 32 -40 47 -66 47zM410 666l-1 -14s-96 -60 -189 -129
l-15 4l-30 39c83 80 168 171 168 171l13 -1z" />
    <glyph glyph-name="Ccircumflex" unicode="&#x108;" horiz-adv-x="594" 
d="M294 -12c-162 0 -262 101 -262 268c0 242 145 397 370 397c81 0 197 -24 197 -24l4 -13s-30 -83 -49 -188l-97 -6s9 47 9 66c0 47 -33 71 -99 71c-112 0 -179 -99 -179 -284c0 -126 46 -195 131 -195c69 0 109 38 138 138l97 7s-29 -103 -42 -185l-10 -12
s-88 -40 -208 -40zM253 709l-24 41c41 33 166 154 166 154h20s97 -121 129 -154l-34 -41l-16 -4c-17 13 -92 76 -103 83c-13 -7 -103 -70 -122 -83z" />
    <glyph glyph-name="ccircumflex" unicode="&#x109;" horiz-adv-x="368" 
d="M241 385c-51 0 -97 -89 -97 -191c0 -68 23 -108 59 -108c34 0 70 31 93 81l17 -2l33 -41c-35 -77 -115 -136 -184 -136c-85 0 -138 66 -138 172c0 165 119 313 252 313c37 0 74 -8 97 -22l4 -15l-42 -96l-28 -2c-19 32 -40 47 -66 47zM138 534l-24 41
c41 33 166 154 166 154h20s97 -121 129 -154l-34 -41l-16 -4c-17 13 -92 76 -103 83c-13 -7 -103 -70 -122 -83z" />
    <glyph glyph-name="Cdotaccent" unicode="&#x10a;" horiz-adv-x="594" 
d="M294 -12c-162 0 -262 101 -262 268c0 242 145 397 370 397c81 0 197 -24 197 -24l4 -13s-30 -83 -49 -188l-97 -6s9 47 9 66c0 47 -33 71 -99 71c-112 0 -179 -99 -179 -284c0 -126 46 -195 131 -195c69 0 109 38 138 138l97 7s-29 -103 -42 -185l-10 -12
s-88 -40 -208 -40zM396 702c-42 0 -63 25 -63 62c0 52 38 90 90 90c40 0 61 -25 61 -62c0 -52 -37 -90 -88 -90z" />
    <glyph glyph-name="cdotaccent" unicode="&#x10b;" horiz-adv-x="368" 
d="M241 385c-51 0 -97 -89 -97 -191c0 -68 23 -108 59 -108c34 0 70 31 93 81l17 -2l33 -41c-35 -77 -115 -136 -184 -136c-85 0 -138 66 -138 172c0 165 119 313 252 313c37 0 74 -8 97 -22l4 -15l-42 -96l-28 -2c-19 32 -40 47 -66 47zM258 574c-41 0 -62 25 -62 61
c0 53 38 91 89 91c41 0 62 -25 62 -62c0 -52 -38 -90 -89 -90z" />
    <glyph glyph-name="Ccaron" unicode="&#x10c;" horiz-adv-x="594" 
d="M294 -12c-162 0 -262 101 -262 268c0 242 145 397 370 397c81 0 197 -24 197 -24l4 -13s-30 -83 -49 -188l-97 -6s9 47 9 66c0 47 -33 71 -99 71c-112 0 -179 -99 -179 -284c0 -126 46 -195 131 -195c69 0 109 38 138 138l97 7s-29 -103 -42 -185l-10 -12
s-88 -40 -208 -40zM551 861l20 -41c-43 -29 -169 -124 -169 -124h-19s-102 95 -137 124l28 41l17 4c20 -9 102 -53 115 -58c15 5 107 49 130 58z" />
    <glyph glyph-name="ccaron" unicode="&#x10d;" horiz-adv-x="368" 
d="M241 385c-51 0 -97 -89 -97 -191c0 -68 23 -108 59 -108c34 0 70 31 93 81l17 -2l33 -41c-35 -77 -115 -136 -184 -136c-85 0 -138 66 -138 172c0 165 119 313 252 313c37 0 74 -8 97 -22l4 -15l-42 -96l-28 -2c-19 32 -40 47 -66 47zM121 679l35 42l16 3
c39 -35 81 -67 105 -85c28 18 79 50 126 85l14 -3l25 -42c-79 -70 -170 -158 -170 -158h-20s-69 88 -131 158z" />
    <glyph glyph-name="Dcaron" unicode="&#x10e;" horiz-adv-x="667" 
d="M283 -12c0 0 -95 12 -150 12c-51 0 -126 -10 -126 -10l15 67c55 10 72 28 80 84l47 382c5 43 0 54 -23 54c-13 0 -33 -2 -33 -2l-4 9l15 60s85 -3 123 -3c45 0 145 5 145 5c175 0 287 -96 287 -258c0 -229 -160 -400 -376 -400zM320 562c-21 0 -27 -5 -30 -24
c-26 -159 -63 -389 -63 -413c0 -41 18 -53 72 -53c127 0 205 116 205 304c0 125 -61 186 -184 186zM537 861l20 -41c-43 -29 -169 -124 -169 -124h-19s-102 95 -137 124l28 41l17 4c20 -9 102 -53 115 -58c15 5 107 49 130 58z" />
    <glyph glyph-name="dcaron" unicode="&#x10f;" horiz-adv-x="607" 
d="M384 109l4 -4c7 0 8 1 66 50l17 -2l16 -35c-96 -100 -136 -130 -174 -130c-29 0 -43 13 -43 38c0 17 24 125 34 167l-8 1c-59 -107 -108 -168 -161 -206c-72 0 -114 54 -114 146c0 161 124 332 241 332l70 -16l24 176c4 31 -7 43 -37 43h-35l9 59c75 0 193 9 193 9
l12 -16s-82 -406 -114 -612zM167 105c30 0 100 118 151 253c-17 10 -56 29 -87 29c-42 0 -86 -100 -86 -197c0 -49 10 -85 22 -85zM656 699l6 -10s-28 -109 -63 -216l-51 -20l-14 4c17 115 21 228 21 228z" />
    <glyph glyph-name="Dcroat" unicode="&#x110;" horiz-adv-x="682" 
d="M165 353l-8 -67h-134l-7 7l17 60h132zM250 286l10 67l132 2l6 -9l-14 -60h-134zM298 -12c0 0 -95 12 -150 12c-51 0 -126 -10 -126 -10l15 67c55 10 72 28 80 84l47 382c5 43 0 54 -23 54c-13 0 -33 -2 -33 -2l-4 9l15 60s85 -3 123 -3c45 0 145 5 145 5
c175 0 287 -96 287 -258c0 -229 -160 -400 -376 -400zM335 562c-21 0 -27 -5 -30 -24c-26 -159 -63 -389 -63 -413c0 -41 18 -53 72 -53c127 0 205 116 205 304c0 125 -61 186 -184 186z" />
    <glyph glyph-name="dcroat" unicode="&#x111;" horiz-adv-x="495" 
d="M418 585l124 5l14 -14l-5 -46l-157 -1l-156 -1l-10 10l8 48zM384 109l4 -4c7 0 8 1 66 50l17 -2l16 -35c-96 -100 -136 -130 -174 -130c-29 0 -43 13 -43 38c0 17 24 125 34 167l-8 1c-59 -107 -108 -168 -161 -206c-72 0 -114 54 -114 146c0 161 124 332 241 332l70 -16
l24 176c4 31 -7 43 -37 43h-35l9 59c75 0 193 9 193 9l12 -16s-82 -406 -114 -612zM167 105c30 0 100 118 151 253c-17 10 -56 29 -87 29c-42 0 -86 -100 -86 -197c0 -49 10 -85 22 -85z" />
    <glyph glyph-name="Emacron" unicode="&#x112;" horiz-adv-x="577" 
d="M225 114c0 -33 13 -37 57 -37c118 0 137 13 164 114l83 7l6 -10s-29 -89 -50 -185l-11 -10s-179 7 -299 7c-86 0 -170 -10 -170 -10l16 67c54 8 72 27 79 85l48 382c5 43 1 54 -24 54c-11 0 -30 -2 -30 -2l-5 9l15 59s106 -3 178 -3c138 0 236 4 296 12l6 -10
s-28 -88 -44 -181l-90 -6s8 35 8 57c0 41 -23 47 -115 47c-45 0 -50 -3 -55 -33l-26 -158c20 0 62 -1 90 -1c31 0 113 8 113 8l6 -8l-24 -85s-77 3 -125 3c-28 0 -57 -4 -74 -6c-11 -75 -23 -138 -23 -166zM521 805l7 -14l-22 -77l-136 -1c-57 0 -134 -1 -134 -1l-9 12
l23 76s92 -1 148 -1c49 0 123 6 123 6z" />
    <glyph glyph-name="emacron" unicode="&#x113;" horiz-adv-x="393" 
d="M385 379c0 -89 -68 -141 -243 -196c0 -60 23 -98 63 -98c37 0 73 29 101 79l17 -2l33 -40c-36 -77 -118 -134 -193 -134c-85 0 -139 68 -139 175c0 161 122 310 254 310c67 0 107 -35 107 -94zM243 385c-44 0 -85 -58 -98 -141c91 30 131 63 131 106c0 23 -12 35 -33 35z
M421 672l6 -14l-22 -76l-136 -1c-57 0 -134 -1 -134 -1l-9 11l23 76s92 -1 149 -1c48 0 123 6 123 6z" />
    <glyph glyph-name="Ebreve" unicode="&#x114;" horiz-adv-x="577" 
d="M225 114c0 -33 13 -37 57 -37c118 0 137 13 164 114l83 7l6 -10s-29 -89 -50 -185l-11 -10s-179 7 -299 7c-86 0 -170 -10 -170 -10l16 67c54 8 72 27 79 85l48 382c5 43 1 54 -24 54c-11 0 -30 -2 -30 -2l-5 9l15 59s106 -3 178 -3c138 0 236 4 296 12l6 -10
s-28 -88 -44 -181l-90 -6s8 35 8 57c0 41 -23 47 -115 47c-45 0 -50 -3 -55 -33l-26 -158c20 0 62 -1 90 -1c31 0 113 8 113 8l6 -8l-24 -85s-77 3 -125 3c-28 0 -57 -4 -74 -6c-11 -75 -23 -138 -23 -166zM371 802c44 0 85 22 108 68l18 -4l22 -34
c-24 -63 -77 -125 -159 -125c-84 0 -121 62 -130 125l31 34l18 4c12 -46 48 -68 92 -68z" />
    <glyph glyph-name="ebreve" unicode="&#x115;" horiz-adv-x="393" 
d="M385 379c0 -89 -68 -141 -243 -196c0 -60 23 -98 63 -98c37 0 73 29 101 79l17 -2l33 -40c-36 -77 -118 -134 -193 -134c-85 0 -139 68 -139 175c0 161 122 310 254 310c67 0 107 -35 107 -94zM243 385c-44 0 -85 -58 -98 -141c91 30 131 63 131 106c0 23 -12 35 -33 35z
M279 637c44 0 85 22 108 68l18 -4l22 -34c-24 -63 -77 -125 -159 -125c-84 0 -121 62 -130 125l31 34l18 4c12 -46 48 -68 92 -68z" />
    <glyph glyph-name="Edotaccent" unicode="&#x116;" horiz-adv-x="577" 
d="M225 114c0 -33 13 -37 57 -37c118 0 137 13 164 114l83 7l6 -10s-29 -89 -50 -185l-11 -10s-179 7 -299 7c-86 0 -170 -10 -170 -10l16 67c54 8 72 27 79 85l48 382c5 43 1 54 -24 54c-11 0 -30 -2 -30 -2l-5 9l15 59s106 -3 178 -3c138 0 236 4 296 12l6 -10
s-28 -88 -44 -181l-90 -6s8 35 8 57c0 41 -23 47 -115 47c-45 0 -50 -3 -55 -33l-26 -158c20 0 62 -1 90 -1c31 0 113 8 113 8l6 -8l-24 -85s-77 3 -125 3c-28 0 -57 -4 -74 -6c-11 -75 -23 -138 -23 -166zM366 702c-42 0 -63 25 -63 62c0 52 38 90 90 90
c40 0 61 -25 61 -62c0 -52 -37 -90 -88 -90z" />
    <glyph glyph-name="edotaccent" unicode="&#x117;" horiz-adv-x="393" 
d="M385 379c0 -89 -68 -141 -243 -196c0 -60 23 -98 63 -98c37 0 73 29 101 79l17 -2l33 -40c-36 -77 -118 -134 -193 -134c-85 0 -139 68 -139 175c0 161 122 310 254 310c67 0 107 -35 107 -94zM243 385c-44 0 -85 -58 -98 -141c91 30 131 63 131 106c0 23 -12 35 -33 35z
M265 574c-41 0 -62 25 -62 61c0 53 38 91 89 91c41 0 62 -25 62 -62c0 -52 -38 -90 -89 -90z" />
    <glyph glyph-name="Eogonek" unicode="&#x118;" horiz-adv-x="577" 
d="M225 114c0 -33 13 -37 57 -37c118 0 137 13 164 114l83 7l6 -10s-29 -89 -50 -185l-11 -10s-179 7 -299 7c-86 0 -170 -10 -170 -10l16 67c54 8 72 27 79 85l48 382c5 43 1 54 -24 54c-11 0 -30 -2 -30 -2l-5 9l15 59s106 -3 178 -3c138 0 236 4 296 12l6 -10
s-28 -88 -44 -181l-90 -6s8 35 8 57c0 41 -23 47 -115 47c-45 0 -50 -3 -55 -33l-26 -158c20 0 62 -1 90 -1c31 0 113 8 113 8l6 -8l-24 -85s-77 3 -125 3c-28 0 -57 -4 -74 -6c-11 -75 -23 -138 -23 -166zM472 -145l15 -29s-57 -50 -107 -67c-65 0 -106 30 -106 81
c0 57 49 108 152 202h54c-96 -101 -121 -130 -121 -170c0 -24 16 -41 41 -41c33 0 72 24 72 24z" />
    <glyph glyph-name="eogonek" unicode="&#x119;" horiz-adv-x="393" 
d="M385 379c0 -87 -65 -140 -243 -196c0 -60 23 -98 63 -98c37 0 73 29 101 79l17 -2l33 -40c-118 -100 -144 -134 -193 -134c-85 0 -139 68 -139 175c0 161 122 310 254 310c67 0 107 -35 107 -94zM243 385c-44 0 -85 -58 -98 -141c90 30 131 63 131 106
c0 23 -12 35 -33 35zM298 -145l15 -29s-57 -50 -107 -67c-65 0 -106 30 -106 82c0 59 53 111 152 201l104 80c-86 -138 -171 -188 -171 -249c0 -24 16 -42 41 -42c33 0 72 24 72 24z" />
    <glyph glyph-name="Ecaron" unicode="&#x11a;" horiz-adv-x="577" 
d="M225 114c0 -33 13 -37 57 -37c118 0 137 13 164 114l83 7l6 -10s-29 -89 -50 -185l-11 -10s-179 7 -299 7c-86 0 -170 -10 -170 -10l16 67c54 8 72 27 79 85l48 382c5 43 1 54 -24 54c-11 0 -30 -2 -30 -2l-5 9l15 59s106 -3 178 -3c138 0 236 4 296 12l6 -10
s-28 -88 -44 -181l-90 -6s8 35 8 57c0 41 -23 47 -115 47c-45 0 -50 -3 -55 -33l-26 -158c20 0 62 -1 90 -1c31 0 113 8 113 8l6 -8l-24 -85s-77 3 -125 3c-28 0 -57 -4 -74 -6c-11 -75 -23 -138 -23 -166zM526 861l20 -41c-43 -29 -169 -124 -169 -124h-19
s-102 95 -137 124l28 41l17 4c20 -9 102 -53 115 -58c15 5 107 49 130 58z" />
    <glyph glyph-name="ecaron" unicode="&#x11b;" horiz-adv-x="393" 
d="M385 379c0 -89 -68 -141 -243 -196c0 -60 23 -98 63 -98c37 0 73 29 101 79l17 -2l33 -40c-36 -77 -118 -134 -193 -134c-85 0 -139 68 -139 175c0 161 122 310 254 310c67 0 107 -35 107 -94zM243 385c-44 0 -85 -58 -98 -141c91 30 131 63 131 106c0 23 -12 35 -33 35z
M122 679l35 42l16 3c39 -35 81 -67 105 -85c28 18 79 50 126 85l14 -3l25 -42c-79 -70 -170 -158 -170 -158h-20s-69 88 -131 158z" />
    <glyph glyph-name="Gcircumflex" unicode="&#x11c;" horiz-adv-x="629" 
d="M294 -12c-162 0 -262 101 -262 268c0 242 145 397 370 397c81 0 197 -24 197 -24l4 -13s-30 -76 -49 -181l-97 -7s9 43 9 62c0 46 -33 69 -99 69c-112 0 -179 -99 -179 -284c0 -126 46 -195 131 -195c57 0 97 26 97 26l11 95c4 39 -2 48 -36 48h-50l-4 8l19 70
c-1 0 81 -2 135 -2c40 0 95 4 95 5l2 -38c-24 -15 -38 -40 -44 -82c-8 -41 -17 -117 -17 -136c0 -14 1 -33 1 -33l-10 -12s-85 -41 -224 -41zM250 709l-24 41c41 33 166 154 166 154h20s97 -121 129 -154l-34 -41l-16 -4c-17 13 -92 76 -103 83c-13 -7 -103 -70 -122 -83z
" />
    <glyph glyph-name="gcircumflex" unicode="&#x11d;" horiz-adv-x="471" 
d="M188 114c26 0 85 105 142 245c-21 11 -58 28 -88 28c-41 0 -82 -94 -82 -185c0 -49 12 -88 28 -88zM160 0c-49 -34 -119 -77 -119 -90c0 -30 51 -61 103 -61c77 0 132 53 144 145l23 191l-9 3c-73 -123 -101 -159 -142 -188zM393 17c-14 -114 -178 -258 -293 -258
c-103 -1 -184 62 -177 136l3 8c33 24 105 64 172 101l1 8c-39 20 -62 69 -62 135c0 153 122 319 235 319l88 -18l8 23l12 6l80 -13l11 -18c-33 -66 -55 -138 -60 -187c-6 -50 -12 -190 -18 -242zM187 534l-24 41c41 33 166 154 166 154h20s97 -121 129 -154l-34 -41l-16 -4
c-17 13 -92 76 -103 83c-13 -7 -103 -70 -122 -83z" />
    <glyph glyph-name="Gbreve" unicode="&#x11e;" horiz-adv-x="629" 
d="M294 -12c-162 0 -262 101 -262 268c0 242 145 397 370 397c81 0 197 -24 197 -24l4 -13s-30 -76 -49 -181l-97 -7s9 43 9 62c0 46 -33 69 -99 69c-112 0 -179 -99 -179 -284c0 -126 46 -195 131 -195c57 0 97 26 97 26l11 95c4 39 -2 48 -36 48h-50l-4 8l19 70
c-1 0 81 -2 135 -2c40 0 95 4 95 5l2 -38c-24 -15 -38 -40 -44 -82c-8 -41 -17 -117 -17 -136c0 -14 1 -33 1 -33l-10 -12s-85 -41 -224 -41zM398 809c45 0 86 19 109 59l16 -3l23 -35c-24 -58 -76 -116 -159 -116s-121 58 -131 116l33 35l17 3c13 -40 49 -59 92 -59z" />
    <glyph glyph-name="gbreve" unicode="&#x11f;" horiz-adv-x="471" 
d="M188 114c26 0 85 105 142 245c-21 11 -58 28 -88 28c-41 0 -82 -94 -82 -185c0 -49 12 -88 28 -88zM160 0c-49 -34 -119 -77 -119 -90c0 -30 51 -61 103 -61c77 0 132 53 144 145l23 191l-9 3c-73 -123 -101 -159 -142 -188zM393 17c-14 -114 -178 -258 -293 -258
c-103 -1 -184 62 -177 136l3 8c33 24 105 64 172 101l1 8c-39 20 -62 69 -62 135c0 153 122 319 235 319l88 -18l8 23l12 6l80 -13l11 -18c-33 -66 -55 -138 -60 -187c-6 -50 -12 -190 -18 -242zM321 637c44 0 85 22 108 68l18 -4l22 -34c-24 -63 -77 -125 -159 -125
c-84 0 -121 62 -130 125l31 34l18 4c12 -46 48 -68 92 -68z" />
    <glyph glyph-name="Gdotaccent" unicode="&#x120;" horiz-adv-x="629" 
d="M294 -12c-162 0 -262 101 -262 268c0 242 145 397 370 397c81 0 197 -24 197 -24l4 -13s-30 -76 -49 -181l-97 -7s9 43 9 62c0 46 -33 69 -99 69c-112 0 -179 -99 -179 -284c0 -126 46 -195 131 -195c57 0 97 26 97 26l11 95c4 39 -2 48 -36 48h-50l-4 8l19 70
c-1 0 81 -2 135 -2c40 0 95 4 95 5l2 -38c-24 -15 -38 -40 -44 -82c-8 -41 -17 -117 -17 -136c0 -14 1 -33 1 -33l-10 -12s-85 -41 -224 -41zM393 702c-42 0 -63 25 -63 62c0 52 38 90 90 90c40 0 61 -25 61 -62c0 -52 -37 -90 -88 -90z" />
    <glyph glyph-name="gdotaccent" unicode="&#x121;" horiz-adv-x="471" 
d="M188 114c26 0 85 105 142 245c-21 11 -58 28 -88 28c-41 0 -82 -94 -82 -185c0 -49 12 -88 28 -88zM160 0c-49 -34 -119 -77 -119 -90c0 -30 51 -61 103 -61c77 0 132 53 144 145l23 191l-9 3c-73 -123 -101 -159 -142 -188zM393 17c-14 -114 -178 -258 -293 -258
c-103 -1 -184 62 -177 136l3 8c33 24 105 64 172 101l1 8c-39 20 -62 69 -62 135c0 153 122 319 235 319l88 -18l8 23l12 6l80 -13l11 -18c-33 -66 -55 -138 -60 -187c-6 -50 -12 -190 -18 -242zM302 574c-41 0 -62 25 -62 61c0 53 38 91 89 91c41 0 62 -25 62 -62
c0 -52 -38 -90 -89 -90z" />
    <glyph glyph-name="Gcommaaccent" unicode="&#x122;" horiz-adv-x="629" 
d="M294 -12c-162 0 -262 101 -262 268c0 242 145 397 370 397c81 0 197 -24 197 -24l4 -13s-30 -76 -49 -181l-97 -7s9 43 9 62c0 46 -33 69 -99 69c-112 0 -179 -99 -179 -284c0 -126 46 -195 131 -195c57 0 97 26 97 26l11 95c4 39 -2 48 -36 48h-50l-4 8l19 70
c-1 0 81 -2 135 -2c40 0 95 4 95 5l2 -38c-24 -15 -38 -40 -44 -82c-8 -41 -17 -117 -17 -136c0 -14 1 -33 1 -33l-10 -12s-85 -41 -224 -41zM206 -100l3 14c24 19 54 35 79 35c40 0 69 -33 69 -86c0 -71 -69 -138 -147 -181l-37 30v17c39 27 68 68 68 102
c0 27 -15 53 -35 69z" />
    <glyph glyph-name="gcommaaccent" unicode="&#x123;" horiz-adv-x="471" 
d="M188 114c26 0 85 105 142 245c-21 11 -58 28 -88 28c-41 0 -82 -94 -82 -185c0 -49 12 -88 28 -88zM160 0c-49 -34 -119 -77 -119 -90c0 -30 51 -61 103 -61c77 0 132 53 144 145l23 191l-9 3c-73 -123 -101 -159 -142 -188zM393 17c-14 -114 -178 -258 -293 -258
c-103 -1 -184 62 -177 136l3 8c33 24 105 64 172 101l1 8c-39 20 -62 69 -62 135c0 153 122 319 235 319l88 -18l8 23l12 6l80 -13l11 -18c-33 -66 -55 -138 -60 -187c-6 -50 -12 -190 -18 -242zM383 569l-3 -14c-24 -19 -54 -35 -79 -35c-40 0 -69 33 -69 85
c0 71 69 138 147 182l37 -30v-17c-40 -27 -68 -68 -68 -103c0 -27 15 -52 35 -68z" />
    <glyph glyph-name="Hcircumflex" unicode="&#x124;" horiz-adv-x="720" 
d="M656 529c-24 -134 -62 -382 -62 -421c0 -33 9 -44 33 -44c17 0 36 3 36 3c1 -2 3 -4 4 -7l-16 -63s-67 3 -119 3h-40c-40 0 -118 -2 -118 -2l16 65c53 1 71 20 80 92l16 129s-68 1 -103 1c-25 0 -136 -10 -136 -10l-14 -110c-4 -27 -9 -57 -7 -73c1 -22 9 -28 30 -28
c19 0 35 3 35 3c1 -2 3 -5 4 -7l-16 -63s-82 3 -118 3c-58 0 -154 -6 -155 -9l15 64c63 13 74 31 82 101l45 370c5 42 0 52 -28 52c-11 0 -29 -1 -29 -1l-4 8l14 58s76 -2 116 -2c48 0 147 8 147 8l-13 -66c-50 -8 -58 -18 -66 -72l-24 -144c41 0 82 -1 122 -2
c47 0 75 2 113 7l20 154c6 41 -1 52 -28 52c-12 0 -30 -1 -30 -1l-4 8l15 58c-1 0 105 -2 136 -2c49 1 130 8 130 8l-12 -65c-48 -7 -60 -17 -67 -55zM293 735l-24 41c41 33 166 154 166 154h20s97 -121 129 -154l-34 -41l-16 -4c-17 13 -92 76 -103 83
c-13 -7 -103 -70 -122 -83z" />
    <glyph glyph-name="hcircumflex" unicode="&#x125;" horiz-adv-x="506" 
d="M387 110l3 -3c8 0 15 5 66 50l18 -3l16 -35c-89 -95 -136 -130 -174 -130c-32 0 -48 14 -48 44c0 52 69 224 69 278c0 22 -10 35 -26 35c-33 0 -94 -101 -151 -245l-9 -72c-3 -17 -59 -37 -104 -37l-13 16s89 561 95 620c2 30 -8 41 -37 41h-35l9 59c75 0 193 9 193 9
l12 -16s-58 -254 -91 -471l6 -1c56 117 112 195 162 225c67 0 113 -42 113 -102c0 -55 -61 -198 -74 -262zM62 772l-24 41c41 33 166 154 166 154h20s97 -121 129 -154l-34 -41l-16 -4c-17 13 -92 76 -103 83c-13 -7 -103 -70 -122 -83z" />
    <glyph glyph-name="Hbar" unicode="&#x126;" horiz-adv-x="720" 
d="M418 499c130 0 314 5 314 5l14 -14l-5 -46l-347 -1c-153 0 -346 -1 -346 -1l-10 10l8 48s220 -1 372 -1zM656 529c-24 -134 -62 -382 -62 -421c0 -33 9 -44 33 -44c17 0 36 3 36 3c1 -2 3 -4 4 -7l-16 -63s-67 3 -119 3h-40c-40 0 -118 -2 -118 -2l16 65
c53 1 71 20 80 92l16 129s-68 1 -103 1c-25 0 -136 -10 -136 -10l-14 -110c-4 -27 -9 -57 -7 -73c1 -22 9 -28 30 -28c19 0 35 3 35 3c1 -2 3 -5 4 -7l-16 -63s-82 3 -118 3c-58 0 -154 -6 -155 -9l15 64c63 13 74 31 82 101l45 370c5 42 0 52 -28 52c-11 0 -29 -1 -29 -1
l-4 8l14 58s76 -2 116 -2c48 0 147 8 147 8l-13 -66c-50 -8 -58 -18 -66 -72l-24 -144c41 0 82 -1 122 -2c47 0 75 2 113 7l20 154c6 41 -1 52 -28 52c-12 0 -30 -1 -30 -1l-4 8l15 58c-1 0 105 -2 136 -2c49 1 130 8 130 8l-12 -65c-48 -7 -60 -17 -67 -55z" />
    <glyph glyph-name="hbar" unicode="&#x127;" horiz-adv-x="506" 
d="M198 571l119 5l14 -14l-4 -46h-153l-145 -1l-10 9l8 48zM387 110l3 -3c8 0 15 5 66 50l18 -3l16 -35c-89 -95 -136 -130 -174 -130c-32 0 -48 14 -48 44c0 52 69 224 69 278c0 22 -10 35 -26 35c-33 0 -94 -101 -151 -245l-9 -72c-3 -17 -59 -37 -104 -37l-13 16
s89 561 95 620c2 30 -8 41 -37 41h-35l9 59c75 0 193 9 193 9l12 -16s-58 -254 -91 -471l6 -1c56 117 112 195 162 225c67 0 113 -42 113 -102c0 -55 -61 -198 -74 -262z" />
    <glyph glyph-name="Itilde" unicode="&#x128;" horiz-adv-x="353" 
d="M288 529c-24 -139 -63 -384 -63 -425c0 -31 9 -40 31 -40s42 3 42 3l3 -7l-16 -63s-100 3 -143 3c-55 0 -137 -9 -137 -9l15 64c58 12 74 29 81 84l47 387c5 41 0 52 -28 52c-12 0 -33 -1 -33 -1c-2 3 -3 5 -4 8l14 58c26 0 89 -2 135 -2c43 0 139 8 139 8l-14 -66
c-50 -7 -62 -17 -69 -54zM110 714h-11l-35 36l1 11l88 101l16 4c33 0 114 -33 142 -33c22 0 69 56 69 56h11l36 -37l-2 -10l-88 -102l-16 -4c-33 0 -113 34 -141 34c-24 0 -70 -56 -70 -56z" />
    <glyph glyph-name="itilde" unicode="&#x129;" horiz-adv-x="293" 
d="M49 539h-11l-35 36l1 11l88 101l16 4c33 0 114 -33 142 -33c22 0 69 56 69 56h11l36 -37l-2 -10l-88 -102l-16 -4c-33 0 -113 34 -141 34c-24 0 -70 -56 -70 -56zM169 109l4 -4c8 0 16 6 66 50l17 -2l17 -35c-87 -94 -136 -130 -174 -130c-33 0 -47 17 -47 50
c0 0 48 286 48 318c0 27 -11 38 -38 38h-35l10 59c74 0 191 9 191 9l12 -16s-47 -168 -71 -337z" />
    <glyph glyph-name="Imacron" unicode="&#x12a;" horiz-adv-x="353" 
d="M288 529c-24 -139 -63 -384 -63 -425c0 -31 9 -40 31 -40s42 3 42 3l3 -7l-16 -63s-100 3 -143 3c-55 0 -137 -9 -137 -9l15 64c58 12 74 29 81 84l47 387c5 41 0 52 -28 52c-12 0 -33 -1 -33 -1c-2 3 -3 5 -4 8l14 58c26 0 89 -2 135 -2c43 0 139 8 139 8l-14 -66
c-50 -7 -62 -17 -69 -54zM389 805l7 -14l-22 -77l-136 -1c-57 0 -134 -1 -134 -1l-9 12l23 76s92 -1 148 -1c49 0 123 6 123 6z" />
    <glyph glyph-name="imacron" unicode="&#x12b;" horiz-adv-x="293" 
d="M324 672l6 -14l-21 -76l-129 -1c-54 0 -127 -1 -127 -1l-9 11l22 76s87 -1 141 -1c46 0 117 6 117 6zM169 109l4 -4c8 0 16 6 66 50l17 -2l17 -35c-87 -94 -136 -130 -174 -130c-33 0 -47 17 -47 50c0 0 48 286 48 318c0 27 -11 38 -38 38h-35l10 59c74 0 191 9 191 9
l12 -16s-47 -168 -71 -337z" />
    <glyph glyph-name="Ibreve" unicode="&#x12c;" horiz-adv-x="353" 
d="M288 529c-24 -139 -63 -384 -63 -425c0 -31 9 -40 31 -40s42 3 42 3l3 -7l-16 -63s-100 3 -143 3c-55 0 -137 -9 -137 -9l15 64c58 12 74 29 81 84l47 387c5 41 0 52 -28 52c-12 0 -33 -1 -33 -1c-2 3 -3 5 -4 8l14 58c26 0 89 -2 135 -2c43 0 139 8 139 8l-14 -66
c-50 -7 -62 -17 -69 -54zM245 803c45 0 86 19 109 59l16 -3l23 -35c-24 -58 -76 -116 -159 -116s-121 58 -131 116l33 35l17 3c13 -40 49 -59 92 -59z" />
    <glyph glyph-name="ibreve" unicode="&#x12d;" horiz-adv-x="293" 
d="M188 637c44 0 85 22 108 68l18 -4l22 -34c-24 -63 -77 -125 -159 -125c-84 0 -121 62 -130 125l31 34l18 4c12 -46 48 -68 92 -68zM169 109l4 -4c8 0 16 6 66 50l17 -2l17 -35c-87 -94 -136 -130 -174 -130c-33 0 -47 17 -47 50c0 0 48 286 48 318c0 27 -11 38 -38 38
h-35l10 59c74 0 191 9 191 9l12 -16s-47 -168 -71 -337z" />
    <glyph glyph-name="Iogonek" unicode="&#x12e;" horiz-adv-x="353" 
d="M288 529c-24 -139 -63 -384 -63 -425c0 -31 9 -40 31 -40s42 3 42 3l3 -7l-16 -63s-100 3 -143 3c-55 0 -137 -9 -137 -9l15 64c58 12 74 29 81 84l47 387c5 41 0 52 -28 52c-12 0 -33 -1 -33 -1c-2 3 -3 5 -4 8l14 58c26 0 89 -2 135 -2c43 0 139 8 139 8l-14 -66
c-50 -7 -62 -17 -69 -54zM274 -146l15 -29s-57 -50 -107 -67c-65 0 -106 30 -106 81c0 57 49 108 152 202h54c-96 -101 -121 -130 -121 -170c0 -24 16 -41 41 -41c33 0 72 24 72 24z" />
    <glyph glyph-name="iogonek" unicode="&#x12f;" horiz-adv-x="293" 
d="M180 570c-39 0 -59 26 -59 61c0 52 36 90 89 90c37 0 57 -23 57 -59c0 -53 -36 -92 -87 -92zM169 109l4 -4c8 0 16 6 66 50l17 -2l17 -35c-110 -99 -146 -130 -174 -130c-33 0 -47 17 -47 50c0 0 48 286 48 318c0 27 -11 38 -38 38h-35l10 59c74 0 191 9 191 9l12 -16
s-47 -168 -71 -337zM204 -141l16 -29s-58 -50 -107 -67c-66 0 -107 30 -107 81c0 58 49 109 153 202l114 72c-125 -135 -182 -187 -182 -241c0 -25 16 -42 42 -42c32 0 71 24 71 24z" />
    <glyph glyph-name="Idotaccent" unicode="&#x130;" horiz-adv-x="353" 
d="M288 529c-24 -139 -63 -384 -63 -425c0 -31 9 -40 31 -40s42 3 42 3l3 -7l-16 -63s-100 3 -143 3c-55 0 -137 -9 -137 -9l15 64c58 12 74 29 81 84l47 387c5 41 0 52 -28 52c-12 0 -33 -1 -33 -1c-2 3 -3 5 -4 8l14 58c26 0 89 -2 135 -2c43 0 139 8 139 8l-14 -66
c-50 -7 -62 -17 -69 -54zM234 702c-42 0 -63 25 -63 62c0 52 38 90 90 90c40 0 61 -25 61 -62c0 -52 -37 -90 -88 -90z" />
    <glyph glyph-name="dotlessi" unicode="&#x131;" horiz-adv-x="283" 
d="M169 109l4 -4c8 0 16 6 66 50l17 -2l17 -35c-87 -94 -136 -130 -174 -130c-33 0 -47 17 -47 50c0 0 48 286 48 318c0 27 -11 38 -38 38h-35l10 59c74 0 191 9 191 9l12 -16s-47 -168 -71 -337z" />
    <glyph glyph-name="IJ" unicode="&#x132;" horiz-adv-x="673" 
d="M288 529c-24 -139 -63 -384 -63 -425c0 -31 9 -40 31 -40s42 3 42 3l3 -7l-16 -63s-100 3 -143 3c-55 0 -137 -9 -137 -9l15 64c58 12 74 29 81 84l47 387c5 41 0 52 -28 52c-12 0 -33 -1 -33 -1c-2 3 -3 5 -4 8l14 58c26 0 89 -2 135 -2c43 0 139 8 139 8l-14 -66
c-50 -7 -62 -17 -69 -54zM442 123l50 403c5 42 0 52 -26 52c-14 0 -42 -3 -42 -3l-3 8l14 58l120 1c67 0 148 8 148 8l-14 -67c-42 -8 -50 -15 -57 -54c-16 -91 -51 -320 -64 -427c-18 -133 -89 -210 -234 -255l-23 40l4 11c85 55 111 100 127 225z" />
    <glyph glyph-name="ij" unicode="&#x133;" horiz-adv-x="555" 
d="M180 570c-39 0 -59 26 -59 61c0 52 36 90 89 90c37 0 57 -23 57 -59c0 -53 -36 -92 -87 -92zM169 109l4 -4c8 0 16 6 66 50l17 -2l17 -35c-87 -94 -136 -130 -174 -130c-33 0 -47 17 -47 50c0 0 48 286 48 318c0 27 -11 38 -38 38h-35l10 59c74 0 191 9 191 9l12 -16
s-47 -168 -71 -337zM447 18c-16 -122 -89 -209 -200 -262l-27 30l3 12c75 55 103 107 119 238c0 0 50 288 50 320c0 27 -12 38 -39 38h-35l10 59c75 0 190 9 190 9l13 -16s-52 -206 -84 -428zM470 570c-37 0 -59 24 -59 61c0 53 37 90 89 90c37 0 58 -22 58 -59
c0 -54 -37 -92 -88 -92z" />
    <glyph glyph-name="Jcircumflex" unicode="&#x134;" horiz-adv-x="321" 
d="M89 123l50 403c5 42 0 52 -26 52c-14 0 -42 -3 -42 -3l-3 8l14 58l120 1c67 0 148 8 148 8l-14 -67c-42 -8 -50 -15 -57 -54c-16 -91 -51 -320 -64 -427c-18 -133 -89 -210 -234 -255l-23 40l4 11c85 55 111 100 127 225zM103 709l-24 41c41 33 166 154 166 154h20
s97 -121 129 -154l-34 -41l-16 -4c-17 13 -92 76 -103 83c-13 -7 -103 -70 -122 -83z" />
    <glyph glyph-name="jcircumflex" unicode="&#x135;" horiz-adv-x="274" 
d="M164 18c-16 -122 -89 -209 -200 -262l-27 30l3 12c75 55 103 107 119 238c0 0 50 288 50 320c0 27 -12 38 -39 38h-35l10 59c75 0 190 9 190 9l13 -16s-52 -206 -84 -428zM40 535l-24 41c41 33 166 154 166 154h20s97 -121 129 -154l-34 -41l-16 -4
c-17 13 -92 76 -103 83c-13 -7 -103 -70 -122 -83z" />
    <glyph glyph-name="Kcommaaccent" unicode="&#x136;" horiz-adv-x="639" 
d="M101 139l47 387c5 42 0 52 -28 52c-11 0 -29 -1 -29 -1l-4 8l15 59s103 -3 130 -3c41 0 135 8 135 8l-13 -66c-50 -10 -64 -22 -69 -58l-58 -393c-7 -54 -1 -68 29 -68c20 0 38 3 38 3l4 -7l-17 -63s-97 3 -139 3c-54 0 -136 -3 -136 -3l17 63c57 9 71 23 78 79zM269 316
l5 21l157 158c23 23 35 43 35 57c0 17 -13 25 -46 27l-3 7l15 61s81 -6 121 -6c36 0 114 5 114 5l5 -11l-14 -56c-46 -18 -75 -42 -132 -103l-122 -129l102 -202c31 -61 57 -85 98 -88l6 -8l-14 -52s-98 -12 -115 -12c-41 0 -70 27 -97 84zM218 -100l3 14c24 19 54 35 79 35
c40 0 69 -33 69 -86c0 -71 -69 -138 -147 -181l-37 30v17c39 27 68 68 68 102c0 27 -15 53 -35 69z" />
    <glyph glyph-name="kcommaaccent" unicode="&#x137;" horiz-adv-x="460" 
d="M309 -12l-81 200l7 17c48 24 107 60 107 111c0 19 -10 30 -26 30c-34 0 -98 -102 -156 -246l-9 -71c-3 -17 -59 -37 -104 -37l-13 16s96 588 96 625c0 25 -11 36 -38 36h-35l9 59c75 0 193 9 193 9l12 -16s-58 -254 -91 -471l6 -1c55 116 112 195 162 225
c69 0 115 -41 115 -101c0 -62 -46 -125 -133 -182c46 -82 102 -166 102 -166l-1 -17l-109 -27zM140 -100l3 14c24 19 54 35 79 35c40 0 69 -33 69 -86c0 -71 -69 -138 -147 -181l-37 30v17c39 27 68 68 68 102c0 27 -15 53 -35 69z" />
    <glyph glyph-name="kgreenlandic" unicode="&#x138;" horiz-adv-x="520" 
d="M-1 -6l16 63c38 6 52 19 60 77l25 204c5 44 -5 56 -53 56l-5 6l13 54c84 7 184 20 184 20l7 -13c-14 -36 -58 -317 -58 -369c0 -22 7 -31 24 -31c8 0 24 2 24 2l2 -6l-18 -61s-68 4 -106 4c-48 0 -115 -6 -115 -6zM294 68l-75 168l6 22l102 96c20 18 24 25 24 36
c0 13 -14 18 -48 18l-2 5l15 51s68 -2 117 -2c46 0 106 4 106 4l2 -5l-15 -57c-50 -20 -92 -57 -185 -143l64 -130c24 -48 50 -71 86 -74l4 -8l-13 -50s-47 -11 -72 -12c-17 -1 -33 0 -43 3c-34 7 -52 27 -73 78z" />
    <glyph glyph-name="Lacute" unicode="&#x139;" horiz-adv-x="514" 
d="M178 0c-86 0 -168 -10 -168 -10l16 67c50 8 67 27 74 85l48 384c5 42 -2 52 -29 52c-10 0 -29 -1 -29 -1c-1 3 -3 5 -4 8l15 58c25 0 87 -2 131 -2s151 8 151 8l-15 -69c-62 -8 -73 -15 -84 -75c-19 -101 -57 -351 -57 -387c0 -32 11 -41 53 -41c91 0 113 23 142 151
l84 8l6 -9s-29 -108 -54 -225l-11 -10s-155 8 -269 8zM404 775l-5 -13s-115 -29 -229 -65l-13 9l-14 47c108 47 223 104 223 104l13 -5z" />
    <glyph glyph-name="lacute" unicode="&#x13a;" horiz-adv-x="270" 
d="M157 109l3 -4c8 0 16 6 66 50l18 -2l16 -35c-87 -94 -135 -130 -174 -130c-31 0 -47 16 -47 47c0 26 91 564 91 598c0 25 -11 36 -38 36h-35l9 59c76 0 193 9 193 9l12 -16s-86 -406 -114 -612zM318 905l-1 -14s-96 -60 -189 -129l-15 4l-30 39c83 80 168 171 168 171
l13 -1z" />
    <glyph glyph-name="Lcommaaccent" unicode="&#x13b;" horiz-adv-x="514" 
d="M178 0c-86 0 -168 -10 -168 -10l16 67c50 8 67 27 74 85l48 384c5 42 -2 52 -29 52c-10 0 -29 -1 -29 -1c-1 3 -3 5 -4 8l15 58c25 0 87 -2 131 -2s151 8 151 8l-15 -69c-62 -8 -73 -15 -84 -75c-19 -101 -57 -351 -57 -387c0 -32 11 -41 53 -41c91 0 113 23 142 151
l84 8l6 -9s-29 -108 -54 -225l-11 -10s-155 8 -269 8zM162 -100l3 14c24 19 54 35 79 35c40 0 69 -33 69 -86c0 -71 -69 -138 -147 -181l-37 30v17c39 27 68 68 68 102c0 27 -15 53 -35 69z" />
    <glyph glyph-name="lcommaaccent" unicode="&#x13c;" horiz-adv-x="270" 
d="M157 109l3 -4c8 0 16 6 66 50l18 -2l16 -35c-87 -94 -135 -130 -174 -130c-31 0 -47 16 -47 47c0 26 91 564 91 598c0 25 -11 36 -38 36h-35l9 59c76 0 193 9 193 9l12 -16s-86 -406 -114 -612zM10 -100l3 14c24 19 54 35 79 35c40 0 69 -33 69 -86
c0 -71 -69 -138 -147 -181l-37 30v17c39 27 68 68 68 102c0 27 -15 53 -35 69z" />
    <glyph glyph-name="Lcaron" unicode="&#x13d;" horiz-adv-x="533" 
d="M547 640l8 -10s-15 -109 -38 -216l-48 -19l-15 4c3 114 -7 227 -7 227zM178 0c-86 0 -168 -10 -168 -10l16 67c50 8 67 27 74 85l48 384c5 42 -2 52 -29 52c-10 0 -29 -1 -29 -1c-1 3 -3 5 -4 8l15 58c25 0 87 -2 131 -2s151 8 151 8l-15 -69c-62 -8 -73 -15 -84 -75
c-19 -101 -57 -351 -57 -387c0 -32 11 -41 53 -41c91 0 113 23 142 151l84 8l6 -9s-29 -108 -54 -225l-11 -10s-155 8 -269 8z" />
    <glyph glyph-name="lcaron" unicode="&#x13e;" horiz-adv-x="373" 
d="M157 109l3 -4c8 0 16 6 66 50l18 -2l16 -35c-87 -94 -135 -130 -174 -130c-31 0 -47 16 -47 47c0 26 91 564 91 598c0 25 -11 36 -38 36h-35l9 59c76 0 193 9 193 9l12 -16s-86 -406 -114 -612zM416 696l6 -10s-28 -109 -63 -216l-51 -20l-14 4c17 115 21 228 21 228z
" />
    <glyph glyph-name="Ldot" unicode="&#x13f;" horiz-adv-x="543" 
d="M178 0c-86 0 -168 -10 -168 -10l16 67c50 8 67 27 74 85l48 384c5 42 -2 52 -29 52c-10 0 -29 -1 -29 -1c-1 3 -3 5 -4 8l15 58c25 0 87 -2 131 -2s151 8 151 8l-15 -69c-62 -8 -73 -15 -84 -75c-19 -101 -57 -351 -57 -387c0 -32 11 -41 53 -41c91 0 113 23 142 151
l84 8l6 -9s-29 -108 -54 -225l-11 -10s-155 8 -269 8zM465 396c-44 0 -64 27 -64 65c0 53 36 93 90 93c42 0 65 -26 65 -65c0 -54 -37 -93 -91 -93z" />
    <glyph glyph-name="ldot" unicode="&#x140;" horiz-adv-x="377" 
d="M157 109l3 -4c8 0 16 6 66 50l18 -2l16 -35c-87 -94 -135 -130 -174 -130c-31 0 -47 16 -47 47c0 26 91 564 91 598c0 25 -11 36 -38 36h-35l9 59c76 0 193 9 193 9l12 -16s-86 -406 -114 -612zM299 212c-44 0 -64 27 -64 65c0 53 36 93 90 93c42 0 65 -26 65 -65
c0 -54 -37 -93 -91 -93z" />
    <glyph glyph-name="Lslash" unicode="&#x141;" horiz-adv-x="514" 
d="M183 289v14l-137 -68l-9 2l-18 62l164 82v-14l195 97l8 -4l18 -61zM178 0c-86 0 -168 -10 -168 -10l16 67c50 8 67 27 74 85l48 384c5 42 -2 52 -29 52c-10 0 -29 -1 -29 -1c-1 3 -3 5 -4 8l15 58c25 0 87 -2 131 -2s151 8 151 8l-15 -69c-62 -8 -73 -15 -84 -75
c-19 -101 -57 -351 -57 -387c0 -32 11 -41 53 -41c91 0 113 23 142 151l84 8l6 -9s-29 -108 -54 -225l-11 -10s-155 8 -269 8z" />
    <glyph glyph-name="lslash" unicode="&#x142;" horiz-adv-x="270" 
d="M157 332v12l-131 -68l-9 2l-18 62l158 83v-13l112 59l8 -4l18 -61zM157 109l3 -4c8 0 16 6 66 50l18 -2l16 -35c-87 -94 -135 -130 -174 -130c-31 0 -47 16 -47 47c0 26 91 564 91 598c0 25 -11 36 -38 36h-35l9 59c76 0 193 9 193 9l12 -16s-86 -406 -114 -612z" />
    <glyph glyph-name="Nacute" unicode="&#x143;" horiz-adv-x="704" 
d="M501 230h10l35 305c3 31 -5 43 -26 43c-14 0 -29 -1 -33 -1l-3 8l14 60s82 -4 125 -4c47 0 115 6 115 6l-13 -66c-43 -6 -62 -23 -68 -63l-78 -533l-106 -13c-118 251 -224 451 -224 451h-9l-40 -315c-4 -34 3 -45 28 -45c11 0 41 2 41 2l5 -6l-17 -63s-83 4 -125 4
c-52 0 -120 -8 -120 -8l16 66c39 5 59 22 65 63l61 397c5 43 -9 55 -71 62c-2 4 -4 6 -6 10l13 56s64 -5 113 -5c42 0 93 4 93 4c99 -214 205 -415 205 -415zM566 775l-5 -13s-115 -29 -229 -65l-13 9l-14 47c108 47 223 104 223 104l13 -5z" />
    <glyph glyph-name="nacute" unicode="&#x144;" horiz-adv-x="519" 
d="M400 110l3 -3c8 0 15 5 66 50l18 -3l16 -35c-87 -93 -135 -130 -174 -130c-32 0 -48 14 -48 44c0 52 69 224 69 278c0 22 -10 35 -26 35c-33 0 -94 -101 -151 -246l-9 -71c-3 -17 -59 -37 -104 -37l-13 16s49 300 54 345c2 30 -9 41 -38 41h-35l10 59c74 0 191 9 191 9
l11 -16s-32 -100 -47 -196l6 -1c56 117 112 195 162 225c67 0 111 -41 111 -101c0 -56 -59 -199 -72 -263zM451 666l-1 -14s-96 -60 -189 -129l-15 4l-30 39c83 80 168 171 168 171l13 -1z" />
    <glyph glyph-name="Ncommaaccent" unicode="&#x145;" horiz-adv-x="704" 
d="M501 230h10l35 305c3 31 -5 43 -26 43c-14 0 -29 -1 -33 -1l-3 8l14 60s82 -4 125 -4c47 0 115 6 115 6l-13 -66c-43 -6 -62 -23 -68 -63l-78 -533l-106 -13c-118 251 -224 451 -224 451h-9l-40 -315c-4 -34 3 -45 28 -45c11 0 41 2 41 2l5 -6l-17 -63s-83 4 -125 4
c-52 0 -120 -8 -120 -8l16 66c39 5 59 22 65 63l61 397c5 43 -9 55 -71 62c-2 4 -4 6 -6 10l13 56s64 -5 113 -5c42 0 93 4 93 4c99 -214 205 -415 205 -415zM242 -100l3 14c24 19 54 35 79 35c40 0 69 -33 69 -86c0 -71 -69 -138 -147 -181l-37 30v17c39 27 68 68 68 102
c0 27 -15 53 -35 69z" />
    <glyph glyph-name="ncommaaccent" unicode="&#x146;" horiz-adv-x="519" 
d="M400 110l3 -3c8 0 15 5 66 50l18 -3l16 -35c-87 -93 -135 -130 -174 -130c-32 0 -48 14 -48 44c0 52 69 224 69 278c0 22 -10 35 -26 35c-33 0 -94 -101 -151 -246l-9 -71c-3 -17 -59 -37 -104 -37l-13 16s49 300 54 345c2 30 -9 41 -38 41h-35l10 59c74 0 191 9 191 9
l11 -16s-32 -100 -47 -196l6 -1c56 117 112 195 162 225c67 0 111 -41 111 -101c0 -56 -59 -199 -72 -263zM153 -100l3 14c24 19 54 35 79 35c40 0 69 -33 69 -86c0 -71 -69 -138 -147 -181l-37 30v17c39 27 68 68 68 102c0 27 -15 53 -35 69z" />
    <glyph glyph-name="Ncaron" unicode="&#x147;" horiz-adv-x="704" 
d="M501 230h10l35 305c3 31 -5 43 -26 43c-14 0 -29 -1 -33 -1l-3 8l14 60s82 -4 125 -4c47 0 115 6 115 6l-13 -66c-43 -6 -62 -23 -68 -63l-78 -533l-106 -13c-118 251 -224 451 -224 451h-9l-40 -315c-4 -34 3 -45 28 -45c11 0 41 2 41 2l5 -6l-17 -63s-83 4 -125 4
c-52 0 -120 -8 -120 -8l16 66c39 5 59 22 65 63l61 397c5 43 -9 55 -71 62c-2 4 -4 6 -6 10l13 56s64 -5 113 -5c42 0 93 4 93 4c99 -214 205 -415 205 -415zM575 861l20 -41c-43 -29 -169 -124 -169 -124h-19s-102 95 -137 124l28 41l17 4c20 -9 102 -53 115 -58
c15 5 107 49 130 58z" />
    <glyph glyph-name="ncaron" unicode="&#x148;" horiz-adv-x="519" 
d="M400 110l3 -3c8 0 15 5 66 50l18 -3l16 -35c-87 -93 -135 -130 -174 -130c-32 0 -48 14 -48 44c0 52 69 224 69 278c0 22 -10 35 -26 35c-33 0 -94 -101 -151 -246l-9 -71c-3 -17 -59 -37 -104 -37l-13 16s49 300 54 345c2 30 -9 41 -38 41h-35l10 59c74 0 191 9 191 9
l11 -16s-32 -100 -47 -196l6 -1c56 117 112 195 162 225c67 0 111 -41 111 -101c0 -56 -59 -199 -72 -263zM167 679l35 42l16 3c39 -35 81 -67 105 -85c28 18 79 50 126 85l14 -3l25 -42c-79 -70 -170 -158 -170 -158h-20s-69 88 -131 158z" />
    <glyph glyph-name="Eng" unicode="&#x14a;" horiz-adv-x="703" 
d="M201 642c33 0 95 4 95 4c88 -196 206 -418 206 -418h9l37 308c3 31 -4 43 -27 43c-12 0 -34 -1 -34 -1l-2 6l14 62s96 -4 126 -4c43 0 113 6 113 6l-12 -66c-45 -6 -63 -23 -69 -63l-63 -433c-21 -133 -90 -206 -234 -249l-24 41l4 11c62 28 98 64 120 115
c-113 237 -211 421 -211 421h-9l-40 -317c-4 -34 3 -45 28 -45c10 0 41 2 41 2l5 -6l-17 -63s-81 4 -142 4c-39 0 -102 -8 -102 -8l16 65c41 5 58 23 67 76l58 386c5 42 -8 54 -70 62l-6 10l13 56s74 -5 110 -5z" />
    <glyph glyph-name="eng" unicode="&#x14b;" horiz-adv-x="514" 
d="M289 35c16 62 61 222 61 276c0 22 -10 35 -26 35c-33 0 -94 -101 -151 -246l-9 -71c-3 -17 -59 -37 -104 -37l-13 16s49 300 54 345c2 30 -9 41 -38 41h-35l10 59c74 0 191 9 191 9l11 -16s-32 -100 -47 -196l6 -1c56 117 112 195 162 225c67 0 111 -41 111 -101
c0 -56 -63 -291 -80 -354c-33 -129 -96 -210 -213 -263l-28 30l4 12c81 55 100 109 134 237z" />
    <glyph glyph-name="Omacron" unicode="&#x14c;" horiz-adv-x="649" 
d="M311 73c106 0 174 108 174 298c0 118 -49 188 -129 188c-104 0 -171 -110 -171 -298c0 -118 47 -188 126 -188zM285 -12c-153 0 -253 102 -253 267c0 236 141 398 353 398c157 0 256 -99 256 -263c0 -237 -145 -402 -356 -402zM537 805l7 -14l-22 -77l-136 -1
c-57 0 -134 -1 -134 -1l-9 12l23 76s92 -1 148 -1c49 0 123 6 123 6z" />
    <glyph glyph-name="omacron" unicode="&#x14d;" horiz-adv-x="444" 
d="M210 68c52 0 84 72 84 195c0 81 -21 122 -61 122c-49 0 -83 -76 -83 -186c0 -82 23 -131 60 -131zM171 -12c-89 0 -144 67 -144 179c0 173 106 307 247 307c93 0 146 -61 146 -169c0 -180 -106 -317 -249 -317zM421 672l6 -14l-22 -76l-136 -1c-57 0 -134 -1 -134 -1
l-9 11l23 76s92 -1 149 -1c48 0 123 6 123 6z" />
    <glyph glyph-name="Obreve" unicode="&#x14e;" horiz-adv-x="649" 
d="M311 73c106 0 174 108 174 298c0 118 -49 188 -129 188c-104 0 -171 -110 -171 -298c0 -118 47 -188 126 -188zM285 -12c-153 0 -253 102 -253 267c0 236 141 398 353 398c157 0 256 -99 256 -263c0 -237 -145 -402 -356 -402zM379 807c44 0 85 22 108 68l18 -4l22 -34
c-24 -63 -77 -125 -159 -125c-84 0 -121 62 -130 125l31 34l18 4c12 -46 48 -68 92 -68z" />
    <glyph glyph-name="obreve" unicode="&#x14f;" horiz-adv-x="444" 
d="M210 68c52 0 84 72 84 195c0 81 -21 122 -61 122c-49 0 -83 -76 -83 -186c0 -82 23 -131 60 -131zM171 -12c-89 0 -144 67 -144 179c0 173 106 307 247 307c93 0 146 -61 146 -169c0 -180 -106 -317 -249 -317zM277 637c44 0 85 22 108 68l18 -4l22 -34
c-24 -63 -77 -125 -159 -125c-84 0 -121 62 -130 125l31 34l18 4c12 -46 48 -68 92 -68z" />
    <glyph glyph-name="Ohungarumlaut" unicode="&#x150;" horiz-adv-x="649" 
d="M311 73c106 0 174 108 174 298c0 118 -49 188 -129 188c-104 0 -171 -110 -171 -298c0 -118 47 -188 126 -188zM285 -12c-153 0 -253 102 -253 267c0 236 141 398 353 398c157 0 256 -99 256 -263c0 -237 -145 -402 -356 -402zM420 794l-1 -12s-85 -46 -169 -98l-13 5
l-23 34c74 64 151 134 151 134l12 -1zM588 790l-2 -12s-84 -46 -168 -98l-13 4l-23 34c74 64 151 134 151 134l12 -2z" />
    <glyph glyph-name="ohungarumlaut" unicode="&#x151;" horiz-adv-x="444" 
d="M210 68c52 0 84 72 84 195c0 81 -21 122 -61 122c-49 0 -83 -76 -83 -186c0 -82 23 -131 60 -131zM171 -12c-89 0 -144 67 -144 179c0 173 106 307 247 307c93 0 146 -61 146 -169c0 -180 -106 -317 -249 -317zM320 677l1 -11s-75 -64 -148 -135l-14 1l-32 28
c61 78 125 166 125 166l11 1zM465 677l1 -11s-75 -64 -149 -135l-13 1l-32 28c60 78 124 166 124 166l12 1z" />
    <glyph glyph-name="OE" unicode="&#x152;" horiz-adv-x="905" 
d="M558 139c-7 -53 -1 -60 54 -60c115 0 135 14 161 114l85 7l6 -10s-28 -90 -49 -186l-11 -11s-181 9 -302 9c-86 0 -157 -13 -218 -13c-153 0 -252 102 -252 267c0 236 136 393 346 393c65 0 142 -13 226 -13c112 0 222 7 303 18l7 -11s-28 -89 -45 -182l-92 -6s8 35 8 56
c0 40 -22 47 -114 47c-45 0 -49 -3 -53 -33l-26 -155l88 -1c33 0 114 8 114 8l7 -9l-25 -86s-77 3 -124 3l-75 -6zM307 73c83 0 121 37 133 129l32 252c9 79 -19 107 -114 107c-100 0 -170 -115 -170 -303c0 -118 42 -185 119 -185z" />
    <glyph glyph-name="oe" unicode="&#x153;" horiz-adv-x="683" 
d="M210 68c52 0 84 72 84 195c0 81 -21 122 -61 122c-49 0 -83 -76 -83 -186c0 -82 23 -131 60 -131zM171 -12c-89 0 -144 67 -144 179c0 173 106 307 247 307c89 0 131 -63 131 -173c0 -178 -94 -313 -234 -313zM675 379c0 -89 -68 -141 -243 -196c0 -60 23 -98 63 -98
c37 0 73 29 101 79l18 -2l32 -40c-36 -77 -118 -134 -192 -134c-82 0 -126 70 -126 179c0 160 111 306 240 306c67 0 107 -35 107 -94zM534 385c-44 0 -85 -58 -98 -141c91 30 131 63 131 106c0 23 -12 35 -33 35z" />
    <glyph glyph-name="Racute" unicode="&#x154;" horiz-adv-x="624" 
d="M317 253h-73l-15 -113c-9 -67 -3 -76 59 -77l3 -6l-17 -61s-86 3 -129 3c-60 1 -140 -5 -140 -5l17 66c55 8 72 24 79 81l48 388c4 38 -1 49 -24 49c-13 0 -34 -2 -34 -2l-5 8l16 60s83 -3 121 -3c40 0 140 5 140 5c136 0 219 -54 219 -150c0 -88 -49 -162 -148 -211
l65 -143c29 -60 56 -86 97 -86l6 -9l-13 -52l-117 -11c-43 0 -74 32 -95 93zM257 340l86 -10c22 9 98 43 98 143c0 62 -43 93 -131 93c-13 0 -16 -4 -20 -22c-19 -100 -25 -149 -33 -204zM512 775l-5 -13s-115 -29 -229 -65l-13 9l-14 47c108 47 223 104 223 104l13 -5z" />
    <glyph glyph-name="racute" unicode="&#x155;" horiz-adv-x="380" 
d="M47 8c0 0 54 310 54 347c0 28 -10 39 -38 39h-35l10 59c74 0 191 9 191 9l11 -16s-27 -89 -41 -170h5c43 105 114 196 153 196c30 -23 44 -55 44 -98c0 -15 -3 -31 -10 -53l-14 -6s-15 12 -40 12c-53 0 -112 -74 -162 -206l-11 -92c-3 -17 -59 -37 -104 -37zM330 666
l-1 -14s-96 -60 -189 -129l-15 4l-30 39c83 80 168 171 168 171l13 -1z" />
    <glyph glyph-name="Rcommaaccent" unicode="&#x156;" horiz-adv-x="624" 
d="M317 253h-73l-15 -113c-9 -67 -3 -76 59 -77l3 -6l-17 -61s-86 3 -129 3c-60 1 -140 -5 -140 -5l17 66c55 8 72 24 79 81l48 388c4 38 -1 49 -24 49c-13 0 -34 -2 -34 -2l-5 8l16 60s83 -3 121 -3c40 0 140 5 140 5c136 0 219 -54 219 -150c0 -88 -49 -162 -148 -211
l65 -143c29 -60 56 -86 97 -86l6 -9l-13 -52l-117 -11c-43 0 -74 32 -95 93zM257 340l86 -10c22 9 98 43 98 143c0 62 -43 93 -131 93c-13 0 -16 -4 -20 -22c-19 -100 -25 -149 -33 -204zM202 -100l3 14c24 19 54 35 79 35c40 0 69 -33 69 -86c0 -71 -69 -138 -147 -181
l-37 30v17c39 27 68 68 68 102c0 27 -15 53 -35 69z" />
    <glyph glyph-name="rcommaaccent" unicode="&#x157;" horiz-adv-x="380" 
d="M47 8c0 0 54 310 54 347c0 28 -10 39 -38 39h-35l10 59c74 0 191 9 191 9l11 -16s-27 -89 -41 -170h5c43 105 114 196 153 196c30 -23 44 -55 44 -98c0 -15 -3 -31 -10 -53l-14 -6s-15 12 -40 12c-53 0 -112 -74 -162 -206l-11 -92c-3 -17 -59 -37 -104 -37zM29 -100
l3 14c24 19 54 35 79 35c40 0 69 -33 69 -86c0 -71 -69 -138 -147 -181l-37 30v17c39 27 68 68 68 102c0 27 -15 53 -35 69z" />
    <glyph glyph-name="Rcaron" unicode="&#x158;" horiz-adv-x="624" 
d="M317 253h-73l-15 -113c-9 -67 -3 -76 59 -77l3 -6l-17 -61s-86 3 -129 3c-60 1 -140 -5 -140 -5l17 66c55 8 72 24 79 81l48 388c4 38 -1 49 -24 49c-13 0 -34 -2 -34 -2l-5 8l16 60s83 -3 121 -3c40 0 140 5 140 5c136 0 219 -54 219 -150c0 -88 -49 -162 -148 -211
l65 -143c29 -60 56 -86 97 -86l6 -9l-13 -52l-117 -11c-43 0 -74 32 -95 93zM257 340l86 -10c22 9 98 43 98 143c0 62 -43 93 -131 93c-13 0 -16 -4 -20 -22c-19 -100 -25 -149 -33 -204zM521 861l20 -41c-43 -29 -169 -124 -169 -124h-19s-102 95 -137 124l28 41l17 4
c20 -9 102 -53 115 -58c15 5 107 49 130 58z" />
    <glyph glyph-name="rcaron" unicode="&#x159;" horiz-adv-x="380" 
d="M47 8c0 0 54 310 54 347c0 28 -10 39 -38 39h-35l10 59c74 0 191 9 191 9l11 -16s-27 -89 -41 -170h5c43 105 114 196 153 196c30 -23 44 -55 44 -98c0 -15 -3 -31 -10 -53l-14 -6s-15 12 -40 12c-53 0 -112 -74 -162 -206l-11 -92c-3 -17 -59 -37 -104 -37zM41 679
l35 42l16 3c39 -35 81 -67 105 -85c28 18 79 50 126 85l14 -3l25 -42c-79 -70 -170 -158 -170 -158h-20s-69 88 -131 158z" />
    <glyph glyph-name="Sacute" unicode="&#x15a;" horiz-adv-x="522" 
d="M193 -12c-102 0 -176 38 -176 38l-7 14s27 86 38 169l83 7c-13 -107 7 -141 88 -141c64 0 109 34 109 85c0 44 -48 72 -104 102c-72 39 -155 82 -155 176c0 124 113 215 274 215c96 0 172 -26 172 -26l6 -13s-27 -80 -44 -171l-75 -6l-8 6s7 34 7 52c0 48 -26 67 -84 67
s-101 -34 -101 -80c0 -35 30 -60 70 -84c78 -45 193 -86 193 -193c0 -129 -112 -217 -286 -217zM483 775l-5 -13s-115 -29 -229 -65l-13 9l-14 47c108 47 223 104 223 104l13 -5z" />
    <glyph glyph-name="sacute" unicode="&#x15b;" horiz-adv-x="369" 
d="M48 158l20 -1c2 -54 37 -88 89 -88c33 0 56 19 56 45c0 28 -30 48 -64 71c-44 30 -95 64 -95 128c0 90 84 161 189 161c51 0 99 -16 126 -41c-15 -39 -34 -77 -48 -102h-20c-14 36 -42 59 -74 59c-25 0 -46 -18 -46 -42c0 -18 12 -32 30 -46c46 -37 127 -71 127 -150
c0 -90 -90 -164 -200 -164c-70 0 -126 24 -138 60c7 34 30 86 48 110zM393 666l-1 -14s-96 -60 -189 -129l-15 4l-30 39c83 80 168 171 168 171l13 -1z" />
    <glyph glyph-name="Scircumflex" unicode="&#x15c;" horiz-adv-x="522" 
d="M193 -12c-102 0 -176 38 -176 38l-7 14s27 86 38 169l83 7c-13 -107 7 -141 88 -141c64 0 109 34 109 85c0 44 -48 72 -104 102c-72 39 -155 82 -155 176c0 124 113 215 274 215c96 0 172 -26 172 -26l6 -13s-27 -80 -44 -171l-75 -6l-8 6s7 34 7 52c0 48 -26 67 -84 67
s-101 -34 -101 -80c0 -35 30 -60 70 -84c78 -45 193 -86 193 -193c0 -129 -112 -217 -286 -217zM200 709l-24 41c41 33 166 154 166 154h20s97 -121 129 -154l-34 -41l-16 -4c-17 13 -92 76 -103 83c-13 -7 -103 -70 -122 -83z" />
    <glyph glyph-name="scircumflex" unicode="&#x15d;" horiz-adv-x="369" 
d="M48 158l20 -1c2 -54 37 -88 89 -88c33 0 56 19 56 45c0 28 -30 48 -64 71c-44 30 -95 64 -95 128c0 90 84 161 189 161c51 0 99 -16 126 -41c-15 -39 -34 -77 -48 -102h-20c-14 36 -42 59 -74 59c-25 0 -46 -18 -46 -42c0 -18 12 -32 30 -46c46 -37 127 -71 127 -150
c0 -90 -90 -164 -200 -164c-70 0 -126 24 -138 60c7 34 30 86 48 110zM112 535l-24 41c41 33 166 154 166 154h20s97 -121 129 -154l-34 -41l-16 -4c-17 13 -92 76 -103 83c-13 -7 -103 -70 -122 -83z" />
    <glyph glyph-name="Scedilla" unicode="&#x15e;" horiz-adv-x="522" 
d="M193 -12c-102 0 -176 38 -176 38l-7 14s27 86 38 169l83 7c-13 -107 7 -141 88 -141c64 0 109 34 109 85c0 44 -48 72 -104 102c-72 39 -155 82 -155 176c0 124 113 215 274 215c96 0 172 -26 172 -26l6 -13s-27 -80 -44 -171l-75 -6l-8 6s7 34 7 52c0 48 -26 67 -84 67
s-101 -34 -101 -80c0 -35 30 -60 70 -84c78 -45 193 -86 193 -193c0 -129 -112 -217 -286 -217zM158 -86l45 115h52l-29 -73c33 -20 84 -54 84 -92c0 -55 -73 -102 -144 -102c-32 0 -72 16 -72 42c0 15 28 47 46 66h8c-3 -37 15 -56 43 -56c24 0 42 13 42 32
c0 21 -41 48 -75 68z" />
    <glyph glyph-name="scedilla" unicode="&#x15f;" horiz-adv-x="369" 
d="M48 158l20 -1c2 -54 37 -88 89 -88c33 0 56 19 56 45c0 28 -30 48 -64 71c-44 30 -95 64 -95 128c0 90 84 161 189 161c51 0 99 -16 126 -41c-15 -39 -34 -77 -48 -102h-20c-14 36 -42 59 -74 59c-25 0 -46 -18 -46 -42c0 -18 12 -32 30 -46c46 -37 127 -71 127 -150
c0 -90 -90 -164 -200 -164c-70 0 -126 24 -138 60c7 34 30 86 48 110zM88 -86l45 115h52l-29 -73c33 -20 84 -54 84 -92c0 -55 -73 -102 -144 -102c-32 0 -72 16 -72 42c0 15 28 47 46 66h8c-3 -37 15 -56 43 -56c24 0 42 13 42 32c0 21 -41 48 -75 68z" />
    <glyph glyph-name="Scaron" unicode="&#x160;" horiz-adv-x="522" 
d="M193 -12c-102 0 -176 38 -176 38l-7 14s27 86 38 169l83 7c-13 -107 7 -141 88 -141c64 0 109 34 109 85c0 44 -48 72 -104 102c-72 39 -155 82 -155 176c0 124 113 215 274 215c96 0 172 -26 172 -26l6 -13s-27 -80 -44 -171l-75 -6l-8 6s7 34 7 52c0 48 -26 67 -84 67
s-101 -34 -101 -80c0 -35 30 -60 70 -84c78 -45 193 -86 193 -193c0 -129 -112 -217 -286 -217zM492 861l20 -41c-43 -29 -169 -124 -169 -124h-19s-102 95 -137 124l28 41l17 4c20 -9 102 -53 115 -58c15 5 107 49 130 58z" />
    <glyph glyph-name="scaron" unicode="&#x161;" horiz-adv-x="369" 
d="M48 158l20 -1c2 -54 37 -88 89 -88c33 0 56 19 56 45c0 28 -30 48 -64 71c-44 30 -95 64 -95 128c0 90 84 161 189 161c51 0 99 -16 126 -41c-15 -39 -34 -77 -48 -102h-20c-14 36 -42 59 -74 59c-25 0 -46 -18 -46 -42c0 -18 12 -32 30 -46c46 -37 127 -71 127 -150
c0 -90 -90 -164 -200 -164c-70 0 -126 24 -138 60c7 34 30 86 48 110zM99 679l35 42l16 3c39 -35 81 -67 105 -85c28 18 79 50 126 85l14 -3l25 -42c-79 -70 -170 -158 -170 -158h-20s-69 88 -131 158z" />
    <glyph glyph-name="Tcedilla" unicode="&#x162;" horiz-adv-x="551" 
d="M200 165l49 401c-104 -4 -111 -17 -137 -131l-83 -6s23 116 37 213l13 11l94 -11h302l101 11l9 -11c-11 -99 -16 -207 -16 -207l-83 -6c1 122 -1 133 -98 137c-18 -97 -65 -413 -65 -450c0 -36 13 -51 45 -51c30 0 53 3 53 3l3 -5l-17 -67s-118 4 -169 4
c-54 0 -163 -6 -163 -6l16 65c85 8 98 20 109 106zM188 -86l45 115h52l-29 -73c33 -20 84 -54 84 -92c0 -55 -73 -102 -144 -102c-32 0 -72 16 -72 42c0 15 28 47 46 66h8c-3 -37 15 -56 43 -56c24 0 42 13 42 32c0 21 -41 48 -75 68z" />
    <glyph glyph-name="tcedilla" unicode="&#x163;" horiz-adv-x="307" 
d="M266 161l17 -3l16 -36c-61 -77 -123 -134 -154 -134c-66 0 -101 38 -94 100l50 297l-7 6l-62 2l-3 5l6 46l76 12c8 54 15 116 15 116l128 35l10 -12s-20 -67 -36 -140h109l5 -5l-9 -56l-107 1l-12 -7l-48 -252c-3 -22 3 -33 20 -33c16 0 37 15 80 58zM91 -86l45 115h52
l-29 -73c33 -20 84 -54 84 -92c0 -55 -73 -102 -144 -102c-32 0 -72 16 -72 42c0 15 28 47 46 66h8c-3 -37 15 -56 43 -56c24 0 42 13 42 32c0 21 -41 48 -75 68z" />
    <glyph glyph-name="Tcaron" unicode="&#x164;" horiz-adv-x="551" 
d="M200 165l49 401c-104 -4 -111 -17 -137 -131l-83 -6s23 116 37 213l13 11l94 -11h302l101 11l9 -11c-11 -99 -16 -207 -16 -207l-83 -6c1 122 -1 133 -98 137c-18 -97 -65 -413 -65 -450c0 -36 13 -51 45 -51c30 0 53 3 53 3l3 -5l-17 -67s-118 4 -169 4
c-54 0 -163 -6 -163 -6l16 65c85 8 98 20 109 106zM496 861l20 -41c-43 -29 -169 -124 -169 -124h-19s-102 95 -137 124l28 41l17 4c20 -9 102 -53 115 -58c15 5 107 49 130 58z" />
    <glyph glyph-name="tcaron" unicode="&#x165;" horiz-adv-x="428" 
d="M266 161l17 -3l16 -36c-61 -77 -123 -134 -154 -134c-66 0 -101 38 -94 100l50 297l-7 6l-62 2l-3 5l6 46l76 12c8 54 15 116 15 116l128 35l10 -12s-20 -67 -36 -140h82l6 -5l-10 -56l-80 1l-12 -7l-48 -252c-3 -22 3 -33 20 -33c16 0 37 15 80 58zM456 535l6 -10
s-28 -109 -63 -216l-51 -20l-14 4c17 115 21 228 21 228z" />
    <glyph glyph-name="Tbar" unicode="&#x166;" horiz-adv-x="551" 
d="M299 332l128 5l14 -14l-4 -46h-162l-145 -1l-10 9l7 48zM200 165l49 401c-104 -4 -111 -17 -137 -131l-83 -6s23 116 37 213l13 11l94 -11h302l101 11l9 -11c-11 -99 -16 -207 -16 -207l-83 -6c1 122 -1 133 -98 137c-18 -97 -65 -413 -65 -450c0 -36 13 -51 45 -51
c30 0 53 3 53 3l3 -5l-17 -67s-118 4 -169 4c-54 0 -163 -6 -163 -6l16 65c85 8 98 20 109 106z" />
    <glyph glyph-name="tbar" unicode="&#x167;" horiz-adv-x="307" 
d="M169 290l119 5l14 -14l-4 -46h-153l-140 -1l-10 9l7 48zM266 161l17 -3l16 -36c-61 -77 -123 -134 -154 -134c-66 0 -101 38 -94 100l50 297l-7 6l-62 2l-3 5l6 46l76 12c8 54 15 116 15 116l128 35l10 -12s-20 -67 -36 -140h109l5 -5l-9 -56l-107 1l-12 -7l-48 -252
c-3 -22 3 -33 20 -33c16 0 37 15 80 58z" />
    <glyph glyph-name="Utilde" unicode="&#x168;" horiz-adv-x="629" 
d="M256 528l-43 -291c-1 -14 -2 -29 -2 -40c-1 -78 34 -120 101 -120c77 0 121 43 132 132c9 66 36 315 36 315c4 44 0 54 -24 54c-10 0 -32 -2 -32 -2l-2 4l16 64s76 -3 112 -3c50 0 117 7 117 7l-14 -66c-50 -10 -58 -17 -62 -50l-39 -313c-19 -151 -113 -231 -272 -231
c-137 0 -205 61 -205 177c0 13 1 26 3 40l40 319c5 44 1 54 -26 54c-11 0 -30 -2 -30 -2l-2 4l17 64s82 -3 138 -3c40 0 116 7 116 7l-15 -67c-41 -5 -55 -18 -60 -53zM258 714h-11l-35 36l1 11l88 101l16 4c33 0 114 -33 142 -33c22 0 69 56 69 56h11l36 -37l-2 -10
l-88 -102l-16 -4c-33 0 -113 34 -141 34c-24 0 -70 -56 -70 -56z" />
    <glyph glyph-name="utilde" unicode="&#x169;" horiz-adv-x="508" 
d="M320 201l-9 1c-51 -107 -101 -177 -150 -213c-74 0 -118 37 -118 95c0 55 66 230 66 276c0 24 -11 34 -38 34h-34l10 59c74 0 191 9 191 9l12 -16s-86 -260 -86 -307c0 -20 7 -29 23 -29c31 0 96 105 158 255l14 92l15 8l82 -6l13 -15s-47 -177 -71 -335l4 -4
c8 0 12 4 66 50l17 -2l16 -35c-97 -101 -136 -130 -174 -130c-29 0 -43 13 -43 38c0 22 27 137 36 175zM182 539h-11l-35 36l1 11l88 101l16 4c33 0 114 -33 142 -33c22 0 69 56 69 56h11l36 -37l-2 -10l-88 -102l-16 -4c-33 0 -113 34 -141 34c-24 0 -70 -56 -70 -56z" />
    <glyph glyph-name="Umacron" unicode="&#x16a;" horiz-adv-x="629" 
d="M256 528l-43 -291c-1 -14 -2 -29 -2 -40c-1 -78 34 -120 101 -120c77 0 121 43 132 132c9 66 36 315 36 315c4 44 0 54 -24 54c-10 0 -32 -2 -32 -2l-2 4l16 64s76 -3 112 -3c50 0 117 7 117 7l-14 -66c-50 -10 -58 -17 -62 -50l-39 -313c-19 -151 -113 -231 -272 -231
c-137 0 -205 61 -205 177c0 13 1 26 3 40l40 319c5 44 1 54 -26 54c-11 0 -30 -2 -30 -2l-2 4l17 64s82 -3 138 -3c40 0 116 7 116 7l-15 -67c-41 -5 -55 -18 -60 -53zM543 805l7 -14l-22 -77l-136 -1c-57 0 -134 -1 -134 -1l-9 12l23 76s92 -1 148 -1c49 0 123 6 123 6z
" />
    <glyph glyph-name="umacron" unicode="&#x16b;" horiz-adv-x="508" 
d="M320 201l-9 1c-51 -107 -101 -177 -150 -213c-74 0 -118 37 -118 95c0 55 66 230 66 276c0 24 -11 34 -38 34h-34l10 59c74 0 191 9 191 9l12 -16s-86 -260 -86 -307c0 -20 7 -29 23 -29c31 0 96 105 158 255l14 92l15 8l82 -6l13 -15s-47 -177 -71 -335l4 -4
c8 0 12 4 66 50l17 -2l16 -35c-97 -101 -136 -130 -174 -130c-29 0 -43 13 -43 38c0 22 27 137 36 175zM452 672l6 -14l-22 -76l-136 -1c-57 0 -134 -1 -134 -1l-9 11l23 76s92 -1 149 -1c48 0 123 6 123 6z" />
    <glyph glyph-name="Ubreve" unicode="&#x16c;" horiz-adv-x="629" 
d="M256 528l-43 -291c-1 -14 -2 -29 -2 -40c-1 -78 34 -120 101 -120c77 0 121 43 132 132c9 66 36 315 36 315c4 44 0 54 -24 54c-10 0 -32 -2 -32 -2l-2 4l16 64s76 -3 112 -3c50 0 117 7 117 7l-14 -66c-50 -10 -58 -17 -62 -50l-39 -313c-19 -151 -113 -231 -272 -231
c-137 0 -205 61 -205 177c0 13 1 26 3 40l40 319c5 44 1 54 -26 54c-11 0 -30 -2 -30 -2l-2 4l17 64s82 -3 138 -3c40 0 116 7 116 7l-15 -67c-41 -5 -55 -18 -60 -53zM387 812c44 0 85 22 108 68l18 -4l22 -34c-24 -63 -77 -125 -159 -125c-84 0 -121 62 -130 125l31 34
l18 4c12 -46 48 -68 92 -68z" />
    <glyph glyph-name="ubreve" unicode="&#x16d;" horiz-adv-x="508" 
d="M320 201l-9 1c-51 -107 -101 -177 -150 -213c-74 0 -118 37 -118 95c0 55 66 230 66 276c0 24 -11 34 -38 34h-34l10 59c74 0 191 9 191 9l12 -16s-86 -260 -86 -307c0 -20 7 -29 23 -29c31 0 96 105 158 255l14 92l15 8l82 -6l13 -15s-47 -177 -71 -335l4 -4
c8 0 12 4 66 50l17 -2l16 -35c-97 -101 -136 -130 -174 -130c-29 0 -43 13 -43 38c0 22 27 137 36 175zM321 637c44 0 85 22 108 68l18 -4l22 -34c-24 -63 -77 -125 -159 -125c-84 0 -121 62 -130 125l31 34l18 4c12 -46 48 -68 92 -68z" />
    <glyph glyph-name="Uring" unicode="&#x16e;" horiz-adv-x="629" 
d="M256 528l-43 -291c-1 -14 -2 -29 -2 -40c-1 -78 34 -120 101 -120c77 0 121 43 132 132c9 66 36 315 36 315c4 44 0 54 -24 54c-10 0 -32 -2 -32 -2l-2 4l16 64s76 -3 112 -3c50 0 117 7 117 7l-14 -66c-50 -10 -58 -17 -62 -50l-39 -313c-19 -151 -113 -231 -272 -231
c-137 0 -205 61 -205 177c0 13 1 26 3 40l40 319c5 44 1 54 -26 54c-11 0 -30 -2 -30 -2l-2 4l17 64s82 -3 138 -3c40 0 116 7 116 7l-15 -67c-41 -5 -55 -18 -60 -53zM397 731c15 0 44 6 44 42c0 22 -14 36 -40 36c-27 0 -42 -17 -42 -41c0 -27 22 -37 38 -37zM384 678
c-50 0 -76 32 -76 78c0 61 45 108 107 108c56 0 77 -36 77 -75c0 -56 -41 -111 -108 -111z" />
    <glyph glyph-name="uring" unicode="&#x16f;" horiz-adv-x="508" 
d="M320 201l-9 1c-51 -107 -101 -177 -150 -213c-74 0 -118 37 -118 95c0 55 66 230 66 276c0 24 -11 34 -38 34h-34l10 59c74 0 191 9 191 9l12 -16s-86 -260 -86 -307c0 -20 7 -29 23 -29c31 0 96 105 158 255l14 92l15 8l82 -6l13 -15s-47 -177 -71 -335l4 -4
c8 0 12 4 66 50l17 -2l16 -35c-97 -101 -136 -130 -174 -130c-29 0 -43 13 -43 38c0 22 27 137 36 175zM306 596c15 0 43 6 43 42c0 22 -13 36 -39 36c-28 0 -42 -17 -42 -41c0 -27 22 -37 38 -37zM293 543c-50 0 -76 32 -76 78c0 61 45 108 107 108c56 0 77 -36 77 -75
c0 -56 -42 -111 -108 -111z" />
    <glyph glyph-name="Uhungarumlaut" unicode="&#x170;" horiz-adv-x="629" 
d="M256 528l-43 -291c-1 -14 -2 -29 -2 -40c-1 -78 34 -120 101 -120c77 0 121 43 132 132c9 66 36 315 36 315c4 44 0 54 -24 54c-10 0 -32 -2 -32 -2l-2 4l16 64s76 -3 112 -3c50 0 117 7 117 7l-14 -66c-50 -10 -58 -17 -62 -50l-39 -313c-19 -151 -113 -231 -272 -231
c-137 0 -205 61 -205 177c0 13 1 26 3 40l40 319c5 44 1 54 -26 54c-11 0 -30 -2 -30 -2l-2 4l17 64s82 -3 138 -3c40 0 116 7 116 7l-15 -67c-41 -5 -55 -18 -60 -53zM442 794l-1 -12s-85 -46 -169 -98l-13 5l-23 34c74 64 151 134 151 134l12 -1zM610 790l-2 -12
s-84 -46 -168 -98l-13 4l-23 34c74 64 151 134 151 134l12 -2z" />
    <glyph glyph-name="uhungarumlaut" unicode="&#x171;" horiz-adv-x="508" 
d="M320 201l-9 1c-51 -107 -101 -177 -150 -213c-74 0 -118 37 -118 95c0 55 66 230 66 276c0 24 -11 34 -38 34h-34l10 59c74 0 191 9 191 9l12 -16s-86 -260 -86 -307c0 -20 7 -29 23 -29c31 0 96 105 158 255l14 92l15 8l82 -6l13 -15s-47 -177 -71 -335l4 -4
c8 0 12 4 66 50l17 -2l16 -35c-97 -101 -136 -130 -174 -130c-29 0 -43 13 -43 38c0 22 27 137 36 175zM361 677l1 -11s-75 -64 -148 -135l-14 1l-32 28c61 78 125 166 125 166l11 1zM506 677l1 -11s-75 -64 -149 -135l-13 1l-32 28c60 78 124 166 124 166l12 1z" />
    <glyph glyph-name="Uogonek" unicode="&#x172;" horiz-adv-x="629" 
d="M464 -145l15 -29s-57 -50 -106 -67c-67 0 -107 31 -107 81c0 43 26 86 96 157c-24 -6 -53 -9 -82 -9c-136 0 -205 60 -205 177c0 13 1 26 3 40l40 319c5 45 0 54 -26 54c-11 0 -30 -2 -30 -2l-2 4l17 64s82 -3 138 -3c40 0 116 7 116 7l-15 -67c-41 -5 -55 -18 -60 -53
l-43 -291c-1 -15 -2 -30 -2 -40c-1 -79 34 -120 101 -120c77 0 121 42 132 132c9 66 36 315 36 315c4 45 0 54 -24 54c-10 0 -32 -2 -32 -2l-2 4l16 64s76 -3 112 -3c50 0 117 7 117 7l-14 -66c-51 -11 -59 -19 -62 -50l-39 -313c-9 -69 -38 -128 -85 -179
c-90 -96 -116 -134 -116 -168c0 -24 17 -41 41 -41c33 0 72 24 72 24z" />
    <glyph glyph-name="uogonek" unicode="&#x173;" horiz-adv-x="508" 
d="M320 201l-9 1c-51 -107 -101 -177 -150 -213c-74 0 -118 37 -118 95c0 55 66 230 66 276c0 24 -11 34 -38 34h-34l10 59c74 0 191 9 191 9l12 -16s-86 -260 -86 -307c0 -20 7 -29 23 -29c31 0 96 105 158 255l14 92l15 8l82 -6l13 -15s-47 -177 -71 -335l4 -4
c8 0 12 4 66 50l17 -2l16 -35c-68 -67 -148 -130 -174 -130c-29 0 -43 13 -43 38c0 22 27 137 36 175zM443 -145l15 -29s-57 -50 -107 -67c-66 0 -106 30 -106 82c0 57 49 108 152 201l104 76c-101 -119 -171 -188 -171 -245c0 -24 16 -42 41 -42c33 0 72 24 72 24z" />
    <glyph glyph-name="Wcircumflex" unicode="&#x174;" horiz-adv-x="933" 
d="M681 5l-159 -20l-38 361h-10l-140 -341l-160 -20s-41 340 -71 531c-8 43 -25 59 -61 62l-4 7l15 59s76 -3 116 -3c79 0 160 9 160 9l4 -8l-12 -60c-64 -6 -78 -16 -78 -47c0 -71 35 -406 35 -406h14c46 111 108 263 150 362c3 33 0 34 -3 42c-3 33 -20 44 -65 45l-4 7
l16 59s87 -3 131 -3c73 0 159 9 159 9l4 -8l-12 -60c-66 -6 -79 -15 -79 -47c0 -66 36 -406 36 -406h14c54 126 168 400 168 426c0 18 -12 24 -44 24h-36l-4 7l15 61s79 -6 138 -6c48 0 107 3 107 3l-14 -65c-30 -5 -40 -14 -57 -52zM405 711l-19 41c43 29 168 124 168 124
h20c0 3 102 -94 137 -124l-29 -41l-17 -4c-19 9 -102 53 -115 58c-15 -5 -107 -49 -130 -58z" />
    <glyph glyph-name="wcircumflex" unicode="&#x175;" horiz-adv-x="682" 
d="M211 100h13c47 88 78 153 94 203l-20 132l9 14l102 25c19 -17 31 -49 31 -85c0 -20 -3 -36 -15 -70l20 -219h13c63 115 98 199 98 244c0 42 -34 68 -50 73l7 32l133 25c19 -18 31 -52 31 -89c0 -71 -65 -199 -197 -391l-99 -5l-16 15l-17 168h-9
c-24 -49 -58 -113 -98 -178l-108 -5l-17 15c-5 112 -22 264 -38 353c-5 26 -13 35 -34 35c-12 0 -42 -3 -42 -3l4 58c72 8 177 20 177 20l11 -9c11 -102 18 -227 17 -358zM264 535l-24 41c41 33 166 154 166 154h20s97 -121 129 -154l-34 -41l-16 -4c-17 13 -92 76 -103 83
c-13 -7 -103 -70 -122 -83z" />
    <glyph glyph-name="Ycircumflex" unicode="&#x176;" horiz-adv-x="582" 
d="M261 551c0 -28 49 -185 56 -207h8l97 168c12 20 19 38 19 50c0 13 -13 19 -46 21l-2 5l15 57c25 0 85 -4 128 -4c44 0 100 4 100 4l3 -7l-15 -60c-56 -18 -83 -51 -132 -128l-114 -179c-23 -36 -25 -65 -35 -140c-7 -49 1 -66 37 -66c22 0 48 3 48 3l3 -5l-17 -67
s-111 4 -159 4c-56 0 -154 -11 -154 -11l15 67c77 11 92 28 99 95l4 31c4 35 2 59 -15 103l-71 190c-22 62 -38 89 -96 101l-3 5l16 63s86 -3 124 -3c50 0 156 8 156 8l4 -9l-13 -57c-48 -3 -60 -11 -60 -32zM232 711l-19 41c43 29 168 124 168 124h20c0 3 102 -94 137 -124
l-29 -41l-17 -4c-19 9 -102 53 -115 58c-15 -5 -107 -49 -130 -58z" />
    <glyph glyph-name="ycircumflex" unicode="&#x177;" horiz-adv-x="462" 
d="M286 417l7 32l132 25c20 -17 32 -50 32 -87c0 -71 -63 -195 -189 -376c-128 -181 -212 -254 -296 -254c-48 0 -92 23 -100 51c4 25 23 75 41 109l20 -1c8 -36 37 -61 71 -61c42 0 78 25 134 96c-15 164 -34 313 -49 406c-5 26 -14 35 -36 35c-11 0 -40 -3 -40 -3l4 58
l177 20l11 -9c10 -97 15 -219 15 -369h12c65 113 104 208 104 254c0 31 -19 58 -50 74zM143 535l-24 41c41 33 166 154 166 154h20s97 -121 129 -154l-34 -41l-16 -4c-17 13 -92 76 -103 83c-13 -7 -103 -70 -122 -83z" />
    <glyph glyph-name="Ydieresis" unicode="&#x178;" horiz-adv-x="582" 
d="M261 551c0 -28 49 -185 56 -207h8l97 168c12 20 19 38 19 50c0 13 -13 19 -46 21l-2 5l15 57c25 0 85 -4 128 -4c44 0 100 4 100 4l3 -7l-15 -60c-56 -18 -83 -51 -132 -128l-114 -179c-23 -36 -25 -65 -35 -140c-7 -49 1 -66 37 -66c22 0 48 3 48 3l3 -5l-17 -67
s-111 4 -159 4c-56 0 -154 -11 -154 -11l15 67c77 11 92 28 99 95l4 31c4 35 2 59 -15 103l-71 190c-22 62 -38 89 -96 101l-3 5l16 63s86 -3 124 -3c50 0 156 8 156 8l4 -9l-13 -57c-48 -3 -60 -11 -60 -32zM453 706c-34 0 -52 21 -52 52c0 44 32 76 75 76
c34 0 52 -21 52 -52c0 -43 -31 -76 -75 -76zM280 706c-35 0 -52 21 -52 52c0 44 31 76 75 76c34 0 52 -21 52 -52c0 -43 -31 -76 -75 -76z" />
    <glyph glyph-name="Zacute" unicode="&#x179;" horiz-adv-x="561" 
d="M487 16l-19 -19l-380 6l-75 -8l-18 44l403 531l-123 -8c-82 -6 -106 -33 -125 -127l-84 -6s29 123 42 215l12 10l171 -11l283 -4l12 -40c-192 -228 -356 -452 -412 -528l151 11c64 5 102 50 130 155l84 7s-37 -131 -52 -228zM514 775l-5 -13s-115 -29 -229 -65l-13 9
l-14 47c108 47 223 104 223 104l13 -5z" />
    <glyph glyph-name="zacute" unicode="&#x17a;" horiz-adv-x="425" 
d="M100 292l-56 -5s27 95 40 176l27 11s123 -29 200 -29c25 0 35 4 48 19l21 25l55 -35l5 -19c-105 -112 -213 -235 -286 -321l26 5c32 0 84 -15 119 -15s61 28 69 75l24 -1c7 -17 13 -43 13 -67c0 -68 -49 -123 -111 -123c-61 0 -113 45 -178 45c-32 0 -71 -13 -106 -34
l-19 30l276 329l-73 1c-55 0 -78 -16 -94 -67zM408 666l-1 -14s-96 -60 -189 -129l-15 4l-30 39c83 80 168 171 168 171l13 -1z" />
    <glyph glyph-name="Zdotaccent" unicode="&#x17b;" horiz-adv-x="561" 
d="M487 16l-19 -19l-380 6l-75 -8l-18 44l403 531l-123 -8c-82 -6 -106 -33 -125 -127l-84 -6s29 123 42 215l12 10l171 -11l283 -4l12 -40c-192 -228 -356 -452 -412 -528l151 11c64 5 102 50 130 155l84 7s-37 -131 -52 -228zM359 702c-42 0 -63 25 -63 62
c0 52 38 90 90 90c40 0 61 -25 61 -62c0 -52 -37 -90 -88 -90z" />
    <glyph glyph-name="zdotaccent" unicode="&#x17c;" horiz-adv-x="425" 
d="M100 292l-56 -5s27 95 40 176l27 11s123 -29 200 -29c25 0 35 4 48 19l21 25l55 -35l5 -19c-105 -112 -213 -235 -286 -321l26 5c32 0 84 -15 119 -15s61 28 69 75l24 -1c7 -17 13 -43 13 -67c0 -68 -49 -123 -111 -123c-61 0 -113 45 -178 45c-32 0 -71 -13 -106 -34
l-19 30l276 329l-73 1c-55 0 -78 -16 -94 -67zM272 574c-41 0 -62 25 -62 61c0 53 38 91 89 91c41 0 62 -25 62 -62c0 -52 -38 -90 -89 -90z" />
    <glyph glyph-name="Zcaron" unicode="&#x17d;" horiz-adv-x="561" 
d="M487 16l-19 -19l-380 6l-75 -8l-18 44l403 531l-123 -8c-82 -6 -106 -33 -125 -127l-84 -6s29 123 42 215l12 10l171 -11l283 -4l12 -40c-192 -228 -356 -452 -412 -528l151 11c64 5 102 50 130 155l84 7s-37 -131 -52 -228zM519 861l20 -41c-43 -29 -169 -124 -169 -124
h-19s-102 95 -137 124l28 41l17 4c20 -9 102 -53 115 -58c15 5 107 49 130 58z" />
    <glyph glyph-name="zcaron" unicode="&#x17e;" horiz-adv-x="425" 
d="M100 292l-56 -5s27 95 40 176l27 11s123 -29 200 -29c25 0 35 4 48 19l21 25l55 -35l5 -19c-105 -112 -213 -235 -286 -321l26 5c32 0 84 -15 119 -15s61 28 69 75l24 -1c7 -17 13 -43 13 -67c0 -68 -49 -123 -111 -123c-61 0 -113 45 -178 45c-32 0 -71 -13 -106 -34
l-19 30l276 329l-73 1c-55 0 -78 -16 -94 -67zM129 679l35 42l16 3c39 -35 81 -67 105 -85c28 18 79 50 126 85l14 -3l25 -42c-79 -70 -170 -158 -170 -158h-20s-69 88 -131 158z" />
    <glyph glyph-name="florin" unicode="&#x192;" horiz-adv-x="405" 
d="M124 0l16 264c-1 32 -12 37 -75 37l-3 6l7 46l77 12l5 57c4 91 103 176 206 176c47 0 95 -13 95 -30c0 -20 -17 -81 -28 -97l-15 -1c-26 32 -55 54 -86 54c-48 0 -55 -45 -60 -105l-5 -56l122 1l4 -5l-10 -61l-121 2l-20 -263c-7 -104 -87 -198 -190 -198
c-41 0 -88 20 -88 41c0 23 17 78 31 94h14c10 -35 38 -63 71 -63c32 0 50 24 53 89z" />
    <glyph glyph-name="Aringacute" unicode="&#x1fa;" horiz-adv-x="607" 
d="M522 131c8 -48 24 -64 66 -69l4 -7l-14 -58s-77 3 -119 3c-83 0 -165 -8 -165 -8l-4 8l12 59c65 5 79 13 79 42c0 7 -1 18 -2 29l-9 77c-13 1 -69 2 -87 2c-29 0 -80 -5 -93 -7l-32 -77c-7 -17 -10 -27 -10 -37c0 -18 12 -26 39 -26h42l3 -6l-14 -62s-79 6 -140 6
c-53 0 -117 -3 -117 -3l15 66c30 5 50 22 71 67l230 506l157 17l11 -5s46 -345 77 -517zM321 512l-96 -227h67c21 0 49 2 71 4l-28 223h-14zM374 713c14 0 40 5 40 38c0 20 -13 32 -36 32c-24 0 -38 -15 -38 -37c0 -24 20 -33 34 -33zM363 665c-45 0 -69 29 -69 70
c0 55 41 98 97 98c50 0 69 -33 69 -68c0 -50 -37 -100 -97 -100zM511 903l-5 -11s-103 -26 -206 -59l-12 8l-12 43c97 42 200 93 200 93l12 -4z" />
    <glyph glyph-name="aringacute" unicode="&#x1fb;" horiz-adv-x="493" 
d="M384 109l4 -4c8 0 18 8 66 50l17 -2l16 -35c-94 -99 -136 -130 -174 -130c-29 0 -43 13 -43 38c0 19 24 127 34 167l-8 1c-60 -108 -108 -169 -161 -206c-72 0 -114 54 -114 146c0 161 124 332 241 332l87 -18l7 22l11 7l81 -14l8 -17s-48 -179 -72 -337zM167 105
c30 0 102 120 152 253c-30 18 -63 29 -88 29c-42 0 -86 -100 -86 -197c0 -49 10 -85 22 -85zM300 536c14 0 40 5 40 38c0 20 -13 32 -36 32c-24 0 -38 -15 -38 -37c0 -24 20 -33 34 -33zM289 488c-45 0 -69 29 -69 70c0 55 41 98 97 98c50 0 69 -33 69 -68
c0 -50 -37 -100 -97 -100zM435 721l-5 -11s-103 -26 -206 -59l-12 8l-12 43c97 42 200 93 200 93l12 -4z" />
    <glyph glyph-name="AEacute" unicode="&#x1fc;" horiz-adv-x="846" 
d="M288 60c59 5 85 25 86 63c1 10 2 22 2 34v92l-85 -10l-83 -16l-53 -98c-11 -21 -15 -31 -15 -41c0 -17 12 -21 50 -21l30 -5l-14 -64c-1 1 -108 6 -162 6c-31 0 -72 -3 -72 -3l3 59c13 3 41 30 67 74l248 426c-2 16 -8 22 -22 22c-12 0 -30 -2 -30 -2l-6 9l16 60
c0 -1 121 -3 238 -3c149 0 266 5 312 12l7 -11s-28 -88 -45 -181l-91 -7s8 35 8 57c0 39 -21 47 -117 47c-42 0 -52 -8 -52 -28l4 -182l94 12l95 19l9 -11l-22 -83l-89 -6l-86 -11l4 -124c1 -47 18 -67 59 -67c106 0 124 14 150 114l85 7l7 -9s-29 -90 -50 -186l-11 -11
c1 1 -177 7 -321 7c-79 0 -155 -8 -155 -8l-4 8zM257 317l60 4l61 8l1 181h-15zM658 841l-1 -14s-96 -60 -189 -129l-15 4l-30 39c83 80 168 171 168 171l13 -1z" />
    <glyph glyph-name="aeacute" unicode="&#x1fd;" horiz-adv-x="635" 
d="M439 439l-129 -211l-14 -34c-60 -108 -108 -169 -161 -206c-72 0 -114 54 -114 146c0 161 124 332 241 332zM167 105c30 0 102 125 152 263c-30 12 -63 19 -88 19c-42 0 -86 -100 -86 -197c0 -49 10 -85 22 -85zM627 379c0 -89 -68 -141 -243 -196c0 -60 23 -98 63 -98
c37 0 73 29 100 79l18 -2l33 -40c-36 -77 -118 -134 -193 -134c-85 0 -139 68 -139 175c0 161 122 310 254 310c67 0 107 -35 107 -94zM485 385c-44 0 -85 -58 -98 -141c91 30 131 63 131 106c0 23 -12 35 -33 35zM538 666l-1 -14s-96 -60 -189 -129l-15 4l-30 39
c83 80 168 171 168 171l13 -1z" />
    <glyph glyph-name="Oslashacute" unicode="&#x1fe;" horiz-adv-x="649" 
d="M596 687l-95 -155l-63 41l94 156l61 -29zM501 532l-271 -464l-61 41l269 464zM60 -68l109 177l61 -41l-107 -175l-60 29zM311 73c106 0 174 108 174 298c0 118 -49 188 -129 188c-104 0 -171 -110 -171 -298c0 -118 47 -188 126 -188zM285 -12c-153 0 -253 102 -253 267
c0 236 141 398 353 398c157 0 256 -99 256 -263c0 -237 -145 -402 -356 -402zM515 780l-5 -13s-115 -29 -229 -65l-13 9l-14 47c108 47 223 104 223 104l13 -5z" />
    <glyph glyph-name="oslashacute" unicode="&#x1ff;" horiz-adv-x="444" 
d="M448 530l-95 -156l-63 42l93 156l62 -30zM353 374l-183 -312l-61 41l181 313zM-2 -78l111 181l61 -41l-110 -179l-60 29zM210 68c52 0 84 72 84 195c0 81 -21 122 -61 122c-49 0 -83 -76 -83 -186c0 -82 23 -131 60 -131zM171 -12c-89 0 -144 67 -144 179
c0 173 106 307 247 307c93 0 146 -61 146 -169c0 -180 -106 -317 -249 -317zM410 666l-1 -14s-96 -60 -189 -129l-15 4l-30 39c83 80 168 171 168 171l13 -1z" />
    <glyph glyph-name="Scommaaccent" unicode="&#x218;" horiz-adv-x="522" 
d="M193 -12c-102 0 -176 38 -176 38l-7 14s27 86 38 169l83 7c-13 -107 7 -141 88 -141c64 0 109 34 109 85c0 44 -48 72 -104 102c-72 39 -155 82 -155 176c0 124 113 215 274 215c96 0 172 -26 172 -26l6 -13s-27 -80 -44 -171l-75 -6l-8 6s7 34 7 52c0 48 -26 67 -84 67
s-101 -34 -101 -80c0 -35 30 -60 70 -84c78 -45 193 -86 193 -193c0 -129 -112 -217 -286 -217zM126 -100l3 14c24 19 54 35 79 35c40 0 69 -33 69 -86c0 -71 -69 -138 -147 -181l-37 30v17c39 27 68 68 68 102c0 27 -15 53 -35 69z" />
    <glyph glyph-name="scommaaccent" unicode="&#x219;" horiz-adv-x="369" 
d="M48 158l20 -1c2 -54 37 -88 89 -88c33 0 56 19 56 45c0 28 -30 48 -64 71c-44 30 -95 64 -95 128c0 90 84 161 189 161c51 0 99 -16 126 -41c-15 -39 -34 -77 -48 -102h-20c-14 36 -42 59 -74 59c-25 0 -46 -18 -46 -42c0 -18 12 -32 30 -46c46 -37 127 -71 127 -150
c0 -90 -90 -164 -200 -164c-70 0 -126 24 -138 60c7 34 30 86 48 110zM78 -100l3 14c24 19 54 35 79 35c40 0 69 -33 69 -86c0 -71 -69 -138 -147 -181l-37 30v17c39 27 68 68 68 102c0 27 -15 53 -35 69z" />
    <glyph glyph-name="uni021A" unicode="&#x21a;" horiz-adv-x="551" 
d="M200 165l49 401c-104 -4 -111 -17 -137 -131l-83 -6s23 116 37 213l13 11l94 -11h302l101 11l9 -11c-11 -99 -16 -207 -16 -207l-83 -6c1 122 -1 133 -98 137c-18 -97 -65 -413 -65 -450c0 -36 13 -51 45 -51c30 0 53 3 53 3l3 -5l-17 -67s-118 4 -169 4
c-54 0 -163 -6 -163 -6l16 65c85 8 98 20 109 106zM151 -100l3 14c24 19 54 35 79 35c40 0 69 -33 69 -86c0 -71 -69 -138 -147 -181l-37 30v17c39 27 68 68 68 102c0 27 -15 53 -35 69z" />
    <glyph glyph-name="uni021B" unicode="&#x21b;" horiz-adv-x="307" 
d="M266 161l17 -3l16 -36c-61 -77 -123 -134 -154 -134c-66 0 -101 38 -94 100l50 297l-7 6l-62 2l-3 5l6 46l76 12c8 54 15 116 15 116l128 35l10 -12s-20 -67 -36 -140h109l5 -5l-9 -56l-107 1l-12 -7l-48 -252c-3 -22 3 -33 20 -33c16 0 37 15 80 58zM54 -100l3 14
c24 19 54 35 79 35c40 0 69 -33 69 -86c0 -71 -69 -138 -147 -181l-37 30v17c39 27 68 68 68 102c0 27 -15 53 -35 69z" />
    <glyph glyph-name="dotlessj" unicode="&#x237;" horiz-adv-x="271" 
d="M164 18c-16 -122 -89 -209 -200 -262l-27 30l3 12c75 55 103 107 119 238c0 0 50 288 50 320c0 27 -12 38 -39 38h-35l10 59c75 0 190 9 190 9l13 -16s-52 -206 -84 -428z" />
    <glyph glyph-name="circumflex" unicode="&#x2c6;" 
d="M101 535l-24 41c41 33 166 154 166 154h20s97 -121 129 -154l-34 -41l-16 -4c-17 13 -92 76 -103 83c-13 -7 -103 -70 -122 -83z" />
    <glyph glyph-name="caron" unicode="&#x2c7;" 
d="M86 679l35 42l16 3c39 -35 81 -67 105 -85c28 18 79 50 126 85l14 -3l25 -42c-79 -70 -170 -158 -170 -158h-20s-69 88 -131 158z" />
    <glyph glyph-name="breve" unicode="&#x2d8;" 
d="M243 642c44 0 85 22 108 68l18 -4l22 -34c-24 -63 -77 -125 -159 -125c-84 0 -121 62 -130 125l31 34l18 4c12 -46 48 -68 92 -68z" />
    <glyph glyph-name="dotaccent" unicode="&#x2d9;" 
d="M230 574c-41 0 -62 25 -62 61c0 53 38 91 89 91c41 0 62 -25 62 -62c0 -52 -38 -90 -89 -90z" />
    <glyph glyph-name="ring" unicode="&#x2da;" 
d="M239 596c15 0 43 6 43 42c0 22 -13 36 -39 36c-28 0 -42 -17 -42 -41c0 -27 22 -37 38 -37zM226 543c-50 0 -76 32 -76 78c0 61 45 108 107 108c56 0 77 -36 77 -75c0 -56 -42 -111 -108 -111z" />
    <glyph glyph-name="ogonek" unicode="&#x2db;" horiz-adv-x="385" 
d="M232 -145l15 -29s-57 -50 -107 -67c-65 0 -106 30 -106 81c0 57 49 108 152 202h54c-96 -101 -121 -130 -121 -170c0 -24 16 -41 41 -41c33 0 72 24 72 24z" />
    <glyph glyph-name="tilde" unicode="&#x2dc;" 
d="M106 539h-11l-35 36l1 11l88 101l16 4c33 0 114 -33 142 -33c22 0 69 56 69 56h11l36 -37l-2 -10l-88 -102l-16 -4c-33 0 -113 34 -141 34c-24 0 -70 -56 -70 -56z" />
    <glyph glyph-name="hungarumlaut" unicode="&#x2dd;" 
d="M248 677l1 -11s-75 -64 -148 -135l-14 1l-32 28c61 78 125 166 125 166l11 1zM393 677l1 -11s-75 -64 -149 -135l-13 1l-32 28c60 78 124 166 124 166l12 1z" />
    <glyph glyph-name="dotbelowcomb" unicode="&#x323;" horiz-adv-x="304" 
d="M94 -211c-43 0 -65 26 -65 64c0 54 37 93 91 93c43 0 65 -26 65 -65c0 -53 -36 -92 -91 -92z" />
    <glyph glyph-name="Delta" unicode="&#x394;" horiz-adv-x="588" 
d="M-8 0l-9 13l283 624l165 17h9s52 -389 100 -647l-9 -7h-539zM330 519h-16l-178 -424h241z" />
    <glyph glyph-name="Delta" unicode="&#x2206;" horiz-adv-x="588" 
d="M-8 0l-9 13l283 624l165 17h9s52 -389 100 -647l-9 -7h-539zM330 519h-16l-178 -424h241z" />
    <glyph glyph-name="Omega" unicode="&#x3a9;" horiz-adv-x="828" 
d="M766 14l-19 -19l-263 11l-56 -8l-10 49c110 97 155 202 155 332c0 113 -44 178 -122 178c-105 0 -172 -95 -172 -274c0 -94 29 -182 82 -235l-23 -51l-54 9l-263 -11l-15 19c9 82 13 192 13 192l72 7c-3 -94 15 -127 70 -130l69 -4c-66 65 -102 153 -102 245
c0 187 148 330 339 330c158 0 266 -97 266 -240c0 -130 -68 -248 -183 -336l78 5c53 3 79 34 101 123l73 7s-25 -117 -36 -199z" />
    <glyph glyph-name="Omega" unicode="&#x2126;" horiz-adv-x="828" 
d="M766 14l-19 -19l-263 11l-56 -8l-10 49c110 97 155 202 155 332c0 113 -44 178 -122 178c-105 0 -172 -95 -172 -274c0 -94 29 -182 82 -235l-23 -51l-54 9l-263 -11l-15 19c9 82 13 192 13 192l72 7c-3 -94 15 -127 70 -130l69 -4c-66 65 -102 153 -102 245
c0 187 148 330 339 330c158 0 266 -97 266 -240c0 -130 -68 -248 -183 -336l78 5c53 3 79 34 101 123l73 7s-25 -117 -36 -199z" />
    <glyph glyph-name="pi" unicode="&#x3c0;" horiz-adv-x="601" 
d="M452 155c0 -47 19 -63 71 -63l8 -15c-2 -17 -77 -89 -93 -89c-85 0 -119 41 -107 131l34 250c5 43 1 49 -49 49c-45 0 -50 -4 -57 -44c-12 -75 -40 -268 -49 -341c-6 -48 -9 -99 -9 -99l-9 -10l-120 -22l-6 14c8 16 71 419 71 464c0 25 -7 32 -26 32
c-27 0 -69 -50 -69 -50l-8 -1l-25 42l1 8l84 87l16 7c109 0 273 -10 330 -10c69 0 172 10 172 10l5 -7l-22 -70l-7 -7c-74 0 -90 -9 -100 -55c-18 -86 -36 -175 -36 -211z" />
    <glyph glyph-name="Wgrave" unicode="&#x1e80;" horiz-adv-x="933" 
d="M681 5l-159 -20l-38 361h-10l-140 -341l-160 -20s-41 340 -71 531c-8 43 -25 59 -61 62l-4 7l15 59s76 -3 116 -3c79 0 160 9 160 9l4 -8l-12 -60c-64 -6 -78 -16 -78 -47c0 -71 35 -406 35 -406h14c46 111 108 263 150 362c3 33 0 34 -3 42c-3 33 -20 44 -65 45l-4 7
l16 59s87 -3 131 -3c73 0 159 9 159 9l4 -8l-12 -60c-66 -6 -79 -15 -79 -47c0 -66 36 -406 36 -406h14c54 126 168 400 168 426c0 18 -12 24 -44 24h-36l-4 7l15 61s79 -6 138 -6c48 0 107 3 107 3l-14 -65c-30 -5 -40 -14 -57 -52zM396 762l-5 13l25 77l13 5
s115 -57 223 -104l-13 -47l-14 -9c-114 36 -229 65 -229 65z" />
    <glyph glyph-name="wgrave" unicode="&#x1e81;" horiz-adv-x="682" 
d="M211 100h13c47 88 78 153 94 203l-20 132l9 14l102 25c19 -17 31 -49 31 -85c0 -20 -3 -36 -15 -70l20 -219h13c63 115 98 199 98 244c0 42 -34 68 -50 73l7 32l133 25c19 -18 31 -52 31 -89c0 -71 -65 -199 -197 -391l-99 -5l-16 15l-17 168h-9
c-24 -49 -58 -113 -98 -178l-108 -5l-17 15c-5 112 -22 264 -38 353c-5 26 -13 35 -34 35c-12 0 -42 -3 -42 -3l4 58c72 8 177 20 177 20l11 -9c11 -102 18 -227 17 -358zM254 651l-2 14l55 70l13 1s85 -90 168 -170l-30 -39l-16 -4c-93 69 -188 128 -188 128z" />
    <glyph glyph-name="Wacute" unicode="&#x1e82;" horiz-adv-x="933" 
d="M681 5l-159 -20l-38 361h-10l-140 -341l-160 -20s-41 340 -71 531c-8 43 -25 59 -61 62l-4 7l15 59s76 -3 116 -3c79 0 160 9 160 9l4 -8l-12 -60c-64 -6 -78 -16 -78 -47c0 -71 35 -406 35 -406h14c46 111 108 263 150 362c3 33 0 34 -3 42c-3 33 -20 44 -65 45l-4 7
l16 59s87 -3 131 -3c73 0 159 9 159 9l4 -8l-12 -60c-66 -6 -79 -15 -79 -47c0 -66 36 -406 36 -406h14c54 126 168 400 168 426c0 18 -12 24 -44 24h-36l-4 7l15 61s79 -6 138 -6c48 0 107 3 107 3l-14 -65c-30 -5 -40 -14 -57 -52zM699 775l-5 -13s-115 -29 -229 -65
l-13 9l-14 47c108 47 223 104 223 104l13 -5z" />
    <glyph glyph-name="wacute" unicode="&#x1e83;" horiz-adv-x="682" 
d="M211 100h13c47 88 78 153 94 203l-20 132l9 14l102 25c19 -17 31 -49 31 -85c0 -20 -3 -36 -15 -70l20 -219h13c63 115 98 199 98 244c0 42 -34 68 -50 73l7 32l133 25c19 -18 31 -52 31 -89c0 -71 -65 -199 -197 -391l-99 -5l-16 15l-17 168h-9
c-24 -49 -58 -113 -98 -178l-108 -5l-17 15c-5 112 -22 264 -38 353c-5 26 -13 35 -34 35c-12 0 -42 -3 -42 -3l4 58c72 8 177 20 177 20l11 -9c11 -102 18 -227 17 -358zM532 666l-1 -14s-96 -60 -189 -129l-15 4l-30 39c83 80 168 171 168 171l13 -1z" />
    <glyph glyph-name="Wdieresis" unicode="&#x1e84;" horiz-adv-x="933" 
d="M681 5l-159 -20l-38 361h-10l-140 -341l-160 -20s-41 340 -71 531c-8 43 -25 59 -61 62l-4 7l15 59s76 -3 116 -3c79 0 160 9 160 9l4 -8l-12 -60c-64 -6 -78 -16 -78 -47c0 -71 35 -406 35 -406h14c46 111 108 263 150 362c3 33 0 34 -3 42c-3 33 -20 44 -65 45l-4 7
l16 59s87 -3 131 -3c73 0 159 9 159 9l4 -8l-12 -60c-66 -6 -79 -15 -79 -47c0 -66 36 -406 36 -406h14c54 126 168 400 168 426c0 18 -12 24 -44 24h-36l-4 7l15 61s79 -6 138 -6c48 0 107 3 107 3l-14 -65c-30 -5 -40 -14 -57 -52zM625 706c-34 0 -52 21 -52 52
c0 44 32 76 75 76c34 0 52 -21 52 -52c0 -43 -31 -76 -75 -76zM452 706c-35 0 -52 21 -52 52c0 44 31 76 75 76c34 0 52 -21 52 -52c0 -43 -31 -76 -75 -76z" />
    <glyph glyph-name="wdieresis" unicode="&#x1e85;" horiz-adv-x="682" 
d="M211 100h13c47 88 78 153 94 203l-20 132l9 14l102 25c19 -17 31 -49 31 -85c0 -20 -3 -36 -15 -70l20 -219h13c63 115 98 199 98 244c0 42 -34 68 -50 73l7 32l133 25c19 -18 31 -52 31 -89c0 -71 -65 -199 -197 -391l-99 -5l-16 15l-17 168h-9
c-24 -49 -58 -113 -98 -178l-108 -5l-17 15c-5 112 -22 264 -38 353c-5 26 -13 35 -34 35c-12 0 -42 -3 -42 -3l4 58c72 8 177 20 177 20l11 -9c11 -102 18 -227 17 -358zM482 563c-35 0 -53 21 -53 52c0 43 32 76 76 76c34 0 52 -21 52 -52c0 -44 -31 -76 -75 -76zM308 563
c-34 0 -52 21 -52 52c0 43 32 76 76 76c34 0 51 -21 51 -52c0 -44 -31 -76 -75 -76z" />
    <glyph glyph-name="Ygrave" unicode="&#x1ef2;" horiz-adv-x="582" 
d="M261 551c0 -28 49 -185 56 -207h8l97 168c12 20 19 38 19 50c0 13 -13 19 -46 21l-2 5l15 57c25 0 85 -4 128 -4c44 0 100 4 100 4l3 -7l-15 -60c-56 -18 -83 -51 -132 -128l-114 -179c-23 -36 -25 -65 -35 -140c-7 -49 1 -66 37 -66c22 0 48 3 48 3l3 -5l-17 -67
s-111 4 -159 4c-56 0 -154 -11 -154 -11l15 67c77 11 92 28 99 95l4 31c4 35 2 59 -15 103l-71 190c-22 62 -38 89 -96 101l-3 5l16 63s86 -3 124 -3c50 0 156 8 156 8l4 -9l-13 -57c-48 -3 -60 -11 -60 -32zM218 762l-5 13l25 77l13 5s115 -57 223 -104l-13 -47l-14 -9
c-114 36 -229 65 -229 65z" />
    <glyph glyph-name="ygrave" unicode="&#x1ef3;" horiz-adv-x="462" 
d="M286 417l7 32l132 25c20 -17 32 -50 32 -87c0 -71 -63 -195 -189 -376c-128 -181 -212 -254 -296 -254c-48 0 -92 23 -100 51c4 25 23 75 41 109l20 -1c8 -36 37 -61 71 -61c42 0 78 25 134 96c-15 164 -34 313 -49 406c-5 26 -14 35 -36 35c-11 0 -40 -3 -40 -3l4 58
l177 20l11 -9c10 -97 15 -219 15 -369h12c65 113 104 208 104 254c0 31 -19 58 -50 74zM128 651l-2 14l55 70l13 1s85 -90 168 -170l-30 -39l-16 -4c-93 69 -188 128 -188 128z" />
    <glyph glyph-name="endash" unicode="&#x2013;" horiz-adv-x="437" 
d="M448 305l5 -15l-19 -77c-149 0 -344 -1 -437 -1l-6 13l20 76h232c55 0 152 0 205 4z" />
    <glyph glyph-name="emdash" unicode="&#x2014;" horiz-adv-x="842" 
d="M852 305l6 -15l-20 -77c-288 0 -663 -1 -841 -1l-6 13l20 76h421c140 0 398 2 420 4z" />
    <glyph glyph-name="quoteleft" unicode="&#x2018;" horiz-adv-x="214" 
d="M212 436l-3 -14c-24 -19 -54 -35 -79 -35c-40 0 -69 33 -69 85c0 71 69 138 147 182l37 -30v-17c-40 -27 -68 -68 -68 -103c0 -27 15 -52 35 -68z" />
    <glyph glyph-name="quoteright" unicode="&#x2019;" horiz-adv-x="214" 
d="M74 605l3 14c23 18 54 35 79 35c40 0 69 -33 69 -86c0 -71 -69 -138 -147 -181l-37 30v17c40 26 68 67 68 102c0 27 -14 53 -35 69z" />
    <glyph glyph-name="quotesinglbase" unicode="&#x201a;" horiz-adv-x="229" 
d="M17 94l2 14c24 18 54 34 79 34c39 0 68 -33 68 -89c0 -73 -73 -147 -153 -193l-38 30v17c43 29 72 74 72 114c0 27 -13 55 -30 73z" />
    <glyph glyph-name="quotedblleft" unicode="&#x201c;" horiz-adv-x="394" 
d="M451 436l-3 -14c-24 -19 -54 -35 -79 -35c-40 0 -69 33 -69 85c0 71 69 138 147 182l37 -30v-17c-40 -27 -68 -68 -68 -103c0 -27 15 -52 35 -68zM272 436l-3 -14c-24 -19 -54 -35 -79 -35c-40 0 -69 33 -69 85c0 71 69 138 147 182l37 -30v-17c-40 -27 -68 -68 -68 -103
c0 -27 15 -52 35 -68z" />
    <glyph glyph-name="quotedblright" unicode="&#x201d;" horiz-adv-x="394" 
d="M317 605l3 14c23 18 54 35 79 35c40 0 69 -33 69 -86c0 -71 -69 -138 -147 -181l-37 30v17c40 26 68 67 68 102c0 27 -14 53 -35 69zM138 605l3 14c23 18 54 35 79 35c40 0 69 -33 69 -86c0 -71 -69 -138 -147 -181l-37 30v17c40 26 68 67 68 102c0 27 -14 53 -35 69z
" />
    <glyph glyph-name="quotedblbase" unicode="&#x201e;" horiz-adv-x="408" 
d="M15 94l2 14c24 18 54 34 79 34c40 0 69 -33 69 -85c0 -71 -69 -138 -147 -182l-37 30v17c40 27 68 68 68 103c0 27 -15 53 -34 69zM196 94l2 14c24 18 54 34 79 34c40 0 69 -33 69 -85c0 -71 -69 -138 -147 -182l-37 30v17c40 27 68 68 68 103c0 27 -15 53 -34 69z" />
    <glyph glyph-name="dagger" unicode="&#x2020;" horiz-adv-x="480" 
d="M332 592l7 -8l-23 -178l153 2l8 -11l-17 -80h-156l-49 -402l-88 -6l-8 9l50 399h-153l-6 11l16 78h154l21 179z" />
    <glyph glyph-name="daggerdbl" unicode="&#x2021;" horiz-adv-x="479" 
d="M332 592l7 -8l-21 -159l153 1l8 -10l-17 -80h-156l-19 -158l155 1l7 -10l-17 -80h-156l-21 -174l-88 -6l-8 9l21 171h-152l-6 10l16 78l153 1l20 158h-152l-7 11l16 78h154l19 160z" />
    <glyph glyph-name="bullet" unicode="&#x2022;" horiz-adv-x="328" 
d="M147 113c-65 0 -100 41 -100 101c0 81 56 141 136 141c64 0 100 -42 100 -102c0 -80 -56 -140 -136 -140z" />
    <glyph glyph-name="onedotenleader" unicode="&#x2024;" horiz-adv-x="230" 
d="M82 -11c-44 0 -65 27 -65 65c0 54 37 93 91 93c42 0 65 -26 65 -65c0 -53 -37 -93 -91 -93z" />
    <glyph glyph-name="twodotenleader" unicode="&#x2025;" horiz-adv-x="443" 
d="M82 -11c-44 0 -65 27 -65 65c0 54 37 93 91 93c42 0 65 -26 65 -65c0 -53 -37 -93 -91 -93zM299 -11c-44 0 -65 27 -65 65c0 54 37 93 91 93c42 0 65 -26 65 -65c0 -53 -37 -93 -91 -93z" />
    <glyph glyph-name="ellipsis" unicode="&#x2026;" horiz-adv-x="655" 
d="M296 -11c-44 0 -65 27 -65 65c0 54 37 93 91 93c42 0 65 -26 65 -65c0 -53 -37 -93 -91 -93zM510 -11c-44 0 -65 27 -65 65c0 54 37 93 91 93c42 0 65 -26 65 -65c0 -53 -37 -93 -91 -93zM84 -11c-44 0 -65 27 -65 65c0 54 37 93 91 93c42 0 65 -26 65 -65
c0 -53 -37 -93 -91 -93z" />
    <glyph glyph-name="perthousand" unicode="&#x2030;" horiz-adv-x="1015" 
d="M188 408c47 0 86 16 86 76c0 41 -27 67 -80 67c-56 0 -85 -28 -85 -76c0 -47 34 -67 79 -67zM168 309c-76 0 -124 51 -124 138c0 126 73 207 174 207c79 0 122 -56 122 -136c0 -121 -67 -209 -172 -209zM529 88c46 0 86 16 86 75c0 41 -27 68 -80 68
c-56 0 -86 -29 -86 -76c0 -48 34 -67 80 -67zM508 -12c-75 0 -123 52 -123 138c0 126 73 207 174 207c79 0 122 -56 122 -136c0 -121 -68 -209 -173 -209zM852 88c48 0 86 16 86 75c0 41 -26 68 -79 68c-56 0 -86 -29 -86 -76c0 -48 34 -67 79 -67zM832 -12
c-75 0 -123 52 -123 138c0 126 73 207 173 207c79 0 123 -56 123 -136c0 -121 -68 -209 -173 -209zM602 653l7 -19s-176 -267 -266 -407c-90 -144 -202 -320 -202 -320l-65 27l-5 14s121 180 207 316l262 414z" />
    <glyph glyph-name="guilsinglleft" unicode="&#x2039;" horiz-adv-x="256" 
d="M194 411l39 -25l2 -16c-15 -22 -93 -127 -102 -141c5 -15 57 -121 67 -144l-6 -16l-44 -25c-27 40 -137 171 -137 171l2 21s143 135 179 175z" />
    <glyph glyph-name="guilsinglright" unicode="&#x203a;" horiz-adv-x="256" 
d="M62 44l-39 25l-1 16c15 22 92 126 100 141c-4 14 -56 121 -66 143l6 16l44 26c28 -41 138 -172 138 -172l-3 -20s-142 -135 -179 -175z" />
    <glyph glyph-name="fraction" unicode="&#x2044;" horiz-adv-x="155" 
d="M298 653l7 -19s-176 -267 -266 -407c-90 -144 -202 -320 -202 -320l-65 27l-5 14s121 180 207 316l262 414z" />
    <glyph glyph-name="zero.sups" unicode="&#x2070;" horiz-adv-x="341" 
d="M143 331c-75 0 -115 56 -115 153c0 146 73 244 180 244c73 0 114 -56 114 -152c0 -147 -72 -245 -179 -245zM165 431c56 0 87 38 87 112c0 52 -24 82 -70 82c-55 0 -86 -39 -86 -113c0 -52 24 -81 69 -81z" />
    <glyph glyph-name="four.sups" unicode="&#x2074;" horiz-adv-x="328" 
d="M1 436l8 52l193 239l5 1l71 -7l-26 -221h48l5 -9l-14 -62l-47 2c-5 -44 -7 -85 -7 -85l-6 -7l-91 -7l-6 7s10 49 16 94zM164 604l-79 -104h74l12 104h-7z" />
    <glyph glyph-name="five.sups" unicode="&#x2075;" horiz-adv-x="296" 
d="M263 482c0 -77 -108 -151 -208 -151c-40 0 -53 21 -50 76l14 12c15 -7 33 -11 55 -11c48 0 82 23 82 55c0 29 -32 44 -108 50l-4 7c19 91 34 187 34 187l7 5l130 4c25 0 35 6 44 26l44 3l-31 -105l-12 -9s-58 5 -125 5l-10 -53c97 -14 138 -45 138 -101z" />
    <glyph glyph-name="six.sups" unicode="&#x2076;" horiz-adv-x="320" 
d="M297 682c0 0 -94 -34 -146 -117l2 -6c14 7 34 17 49 20c60 0 94 -42 94 -98c0 -87 -65 -150 -162 -150c-72 0 -115 50 -115 123c0 211 261 274 261 274l7 -4zM163 513c-19 0 -37 -9 -46 -15c-3 -16 -6 -29 -6 -45c0 -37 14 -58 39 -58c36 0 51 25 51 68
c0 30 -13 50 -38 50z" />
    <glyph glyph-name="seven.sups" unicode="&#x2077;" horiz-adv-x="295" 
d="M129 332h-13l-67 21l-6 17l168 272l-73 -5c-40 -4 -48 -12 -61 -56l-46 -4s19 80 30 143l4 3s38 -3 78 -3h141l26 -37c-71 -123 -103 -183 -149 -269z" />
    <glyph glyph-name="eight.sups" unicode="&#x2078;" horiz-adv-x="325" 
d="M18 418c0 55 45 85 78 99c-26 19 -48 47 -48 86c0 70 66 125 148 125c60 0 109 -34 109 -85c0 -49 -36 -78 -66 -93c27 -17 51 -43 51 -84c0 -75 -70 -135 -157 -135c-66 0 -115 35 -115 87zM148 389c28 0 48 19 48 46c0 25 -29 40 -62 58c-14 -12 -31 -29 -31 -56
s17 -48 45 -48zM141 626c0 -24 25 -38 54 -53c12 12 24 28 24 54c0 25 -13 39 -35 39c-25 0 -43 -18 -43 -40z" />
    <glyph glyph-name="nine.sups" unicode="&#x2079;" horiz-adv-x="319" 
d="M30 378c0 0 94 33 147 117l-2 6c-15 -8 -34 -17 -49 -20c-61 0 -94 41 -94 98c0 87 64 149 162 149c70 0 115 -49 115 -122c0 -212 -261 -274 -261 -274l-7 3zM164 547c19 0 36 9 45 14c5 17 7 32 7 46c0 37 -13 58 -39 58c-36 0 -51 -25 -51 -68c0 -31 14 -50 38 -50z
" />
    <glyph glyph-name="n.sups" unicode="&#x207f;" horiz-adv-x="369" 
d="M289 425l2 -2c4 0 9 2 39 30l14 -3l12 -26c-63 -67 -95 -91 -125 -91c-26 0 -37 10 -37 33c0 31 43 139 43 170c0 13 -6 21 -16 21c-18 0 -55 -63 -89 -152l-5 -42c-2 -14 -43 -29 -81 -29l-11 13s31 184 35 217c2 20 -5 27 -24 27h-21l7 45c53 0 135 6 135 6l9 -12
s-19 -58 -27 -114h4c33 70 66 116 95 134c52 0 84 -26 84 -67c0 -32 -36 -123 -43 -158z" />
    <glyph glyph-name="zero.sinf" unicode="&#x2080;" horiz-adv-x="341" 
d="M143 -128c-75 0 -115 56 -115 152c0 147 73 245 180 245c73 0 114 -56 114 -152c0 -147 -72 -245 -179 -245zM165 -29c56 0 87 39 87 112c0 53 -24 83 -70 83c-55 0 -86 -40 -86 -113c0 -53 24 -82 69 -82z" />
    <glyph glyph-name="one.sinf" unicode="&#x2081;" horiz-adv-x="257" 
d="M205 196c-10 -41 -35 -210 -35 -237c0 -22 6 -31 22 -31c15 0 30 2 30 2l2 -4l-15 -49s-61 3 -95 3c-44 0 -111 -7 -111 -7l11 46c40 4 59 16 63 48l24 197c4 31 -3 36 -26 36c-13 0 -32 -2 -32 -2l-4 5l9 42c21 2 53 6 82 10c62 8 101 14 101 14l6 -24
c-15 -11 -24 -24 -32 -49z" />
    <glyph glyph-name="two.sinf" unicode="&#x2082;" horiz-adv-x="342" 
d="M7 -126l-1 48l90 87c59 62 90 112 90 140c0 22 -12 32 -36 32c-28 0 -59 -18 -88 -53h-11l-6 62c39 47 95 79 144 79c64 0 108 -34 108 -85c0 -56 -37 -111 -155 -228l3 -5h52c36 0 50 13 63 59l62 5s-24 -77 -34 -132l-11 -9s-152 6 -215 6z" />
    <glyph glyph-name="three.sinf" unicode="&#x2083;" horiz-adv-x="302" 
d="M10 -53l13 12c16 -6 34 -10 56 -10c47 0 82 22 82 55c0 27 -25 39 -78 39l-7 8v49l43 8c30 13 50 36 50 61c0 16 -12 27 -30 27c-19 0 -46 -10 -72 -27h-9l-10 55c29 18 89 45 130 45c57 0 94 -28 94 -71c0 -41 -33 -78 -82 -96l-1 -6c55 -19 80 -46 80 -85
c0 -70 -109 -139 -211 -139c-40 0 -51 20 -48 75z" />
    <glyph glyph-name="four.sinf" unicode="&#x2084;" horiz-adv-x="328" 
d="M1 -24l8 53l193 238l5 2l71 -8l-26 -221h48l5 -8l-14 -62l-47 1c-5 -43 -7 -84 -7 -84l-6 -7l-91 -7l-6 6s10 50 16 95zM164 144l-79 -104h74l12 104h-7z" />
    <glyph glyph-name="five.sinf" unicode="&#x2085;" horiz-adv-x="296" 
d="M263 23c0 -77 -108 -151 -208 -151c-40 0 -53 20 -50 75l14 12c15 -6 33 -10 55 -10c48 0 82 23 82 55c0 29 -32 43 -108 49l-4 8c19 90 34 186 34 186l7 5l130 4c25 1 35 7 44 26l44 3l-31 -104l-12 -10s-58 5 -125 5l-10 -52c97 -15 138 -45 138 -101z" />
    <glyph glyph-name="six.sinf" unicode="&#x2086;" horiz-adv-x="320" 
d="M297 222c0 0 -94 -33 -146 -117l2 -6c14 8 34 17 49 20c60 0 94 -41 94 -97c0 -88 -65 -150 -162 -150c-72 0 -115 49 -115 123c0 211 261 274 261 274l7 -4zM163 53c-19 0 -37 -9 -46 -15c-3 -16 -6 -29 -6 -44c0 -38 14 -59 39 -59c36 0 51 25 51 68
c0 31 -13 50 -38 50z" />
    <glyph glyph-name="seven.sinf" unicode="&#x2087;" horiz-adv-x="295" 
d="M129 -127h-13l-67 20l-6 17l168 273l-73 -6c-40 -3 -48 -12 -61 -55l-46 -4s19 79 30 143l4 3s38 -3 78 -3h141l26 -37c-71 -123 -103 -183 -149 -269z" />
    <glyph glyph-name="eight.sinf" unicode="&#x2088;" horiz-adv-x="325" 
d="M18 -42c0 55 45 85 78 99c-26 20 -48 47 -48 87c0 69 66 125 148 125c60 0 109 -35 109 -85s-36 -78 -66 -93c27 -18 51 -43 51 -84c0 -76 -70 -135 -157 -135c-66 0 -115 35 -115 86zM148 -70c28 0 48 19 48 45s-29 40 -62 58c-14 -11 -31 -28 -31 -55
c0 -28 17 -48 45 -48zM141 167c0 -24 25 -39 54 -53c12 12 24 28 24 54c0 24 -13 39 -35 39c-25 0 -43 -18 -43 -40z" />
    <glyph glyph-name="nine.sinf" unicode="&#x2089;" horiz-adv-x="319" 
d="M30 -81c0 0 94 32 147 117l-2 5c-15 -7 -34 -16 -49 -20c-61 0 -94 42 -94 98c0 87 64 150 162 150c70 0 115 -50 115 -123c0 -212 -261 -274 -261 -274l-7 4zM164 87c19 0 36 10 45 15c5 17 7 31 7 45c0 37 -13 59 -39 59c-36 0 -51 -26 -51 -69c0 -30 14 -50 38 -50z
" />
    <glyph glyph-name="franc" unicode="&#x20a3;" horiz-adv-x="457" 
d="M212 107c-4 -33 2 -42 26 -42c22 0 49 4 49 4l6 -12l-16 -59c0 -1 -72 1 -107 1c-21 0 -40 1 -56 1c-50 -1 -100 -9 -100 -9l13 60c49 7 57 21 66 76h-61l-5 6l12 44h60l29 229c4 32 1 40 -18 40c-9 0 -26 -1 -26 -1l-5 10l13 50s70 -2 130 -2h51c73 0 156 5 206 10
l8 -10s-21 -72 -34 -142l-86 -5s6 29 6 42c0 26 -15 32 -74 32c-8 0 -13 -1 -17 -1c-22 -3 -25 -35 -29 -59l-12 -73c21 -1 49 -1 70 -1c23 0 87 7 87 7l7 -10l-20 -70s-50 3 -85 3l-71 -5l-7 -44c41 0 82 1 96 1l5 -7l-10 -44h-88z" />
    <glyph glyph-name="Euro" unicode="&#x20ac;" horiz-adv-x="552" 
d="M293 -9c-134 0 -217 79 -217 211c0 188 117 308 302 308c67 0 163 -20 163 -20l4 -11s-24 -65 -40 -148l-82 -6s7 38 7 53c0 35 -27 54 -80 54c-90 0 -143 -73 -143 -213c0 -100 37 -152 107 -152c55 0 87 28 110 106l82 6s-22 -82 -33 -148l-9 -9s-72 -31 -171 -31z
M370 337l6 -9l-11 -48l-349 -1l-5 7l12 47h202zM356 223l6 -9l-11 -48l-349 -1l-5 7l12 47h202z" />
    <glyph glyph-name="trademark" unicode="&#x2122;" horiz-adv-x="550" 
d="M75 465l17 139c-28 -1 -32 -8 -42 -50l-42 -3s8 51 14 91l5 3l42 -4h122l45 4l4 -3c-4 -42 -7 -88 -7 -88l-43 -3c1 46 -1 52 -28 53c-6 -36 -21 -138 -21 -152c0 -13 5 -18 17 -18c11 0 21 1 21 1l1 -3l-7 -31s-52 2 -74 2c-24 0 -74 -3 -74 -3l7 30c33 4 39 9 43 35z
M390 401l-41 -3c-14 76 -23 122 -30 151h-4s-18 -101 -18 -106c0 -7 4 -11 11 -11c4 0 12 1 12 1c1 -1 2 -2 3 -2l-9 -29s-38 1 -51 1c-15 0 -44 -3 -44 -3l7 30c15 2 22 9 26 26c3 14 31 135 31 145c0 7 -5 10 -25 12l-2 3l7 27s39 -2 54 -2c19 0 53 2 53 2
c7 -65 20 -131 20 -131h5s29 66 55 130c19 0 41 -1 62 0c17 1 37 1 37 1c1 0 2 -1 3 -1l-6 -28c-23 -1 -27 -5 -29 -19c-3 -20 -5 -91 -6 -130c-1 -25 2 -32 14 -32c6 0 11 1 11 1c1 -2 2 -2 3 -3l-8 -29s-24 1 -40 1c-10 0 -65 -1 -68 -3l6 31c16 1 23 6 24 18
c2 16 8 100 8 100h-4c-8 -16 -37 -76 -67 -148z" />
    <glyph glyph-name="estimated" unicode="&#x212e;" horiz-adv-x="797" 
d="M180 311c-3 0 -5 -1 -5 -4v-181c0 -8 4 -15 9 -21c56 -60 137 -97 226 -97c95 0 180 42 237 109h54c-67 -78 -174 -129 -292 -129c-203 0 -369 148 -369 331c0 184 166 332 369 332s368 -148 368 -332v-8h-597zM643 516c0 9 -4 16 -10 22c-57 57 -136 93 -223 93
c-89 0 -168 -37 -225 -96c-6 -6 -10 -14 -10 -23v-178c0 -3 2 -5 5 -5h458c3 0 5 2 5 5v182z" />
    <glyph glyph-name="partialdiff" unicode="&#x2202;" horiz-adv-x="492" 
d="M302 438l3 5c-34 97 -107 169 -215 236l39 56l14 6c195 -89 327 -251 327 -448c0 -179 -110 -306 -264 -306c-123 0 -184 81 -184 191c0 156 105 284 226 284c21 -4 54 -24 54 -24zM332 279c0 20 -1 50 -2 66c-9 9 -28 29 -70 29c-63 0 -104 -73 -104 -189
c0 -74 28 -121 81 -121c51 0 95 93 95 215z" />
    <glyph glyph-name="product" unicode="&#x220f;" horiz-adv-x="688" 
d="M625 525c-25 -147 -62 -382 -62 -419c0 -32 8 -41 31 -41c21 0 41 3 41 3l3 -7l-16 -64s-101 3 -144 3c-54 0 -133 -9 -133 -9l14 65c53 12 68 27 75 84c15 125 48 317 48 389c0 39 -23 38 -102 38c-68 0 -84 -9 -91 -49c-27 -157 -62 -377 -62 -413c0 -24 5 -35 17 -37
c8 -2 14 -3 22 -3c14 1 28 3 28 3l5 -7l-17 -64c0 -1 -81 3 -121 3c-56 0 -156 -6 -157 -9l15 65c56 12 73 27 80 84c16 127 49 365 49 401c0 26 -8 33 -30 33c-12 0 -33 -1 -33 -1l-4 8l16 65s96 -4 135 -4h317c39 0 157 5 159 7l-14 -70c-50 -7 -62 -17 -69 -54z" />
    <glyph glyph-name="summation" unicode="&#x2211;" horiz-adv-x="549" 
d="M460 16l-20 -19l-377 6l-67 -9l-22 39l243 273l-155 296l20 38s0 -1 1 -1c8 0 15 1 23 1c82 1 164 2 247 3c70 3 142 9 173 11l9 -10c-9 -89 -14 -201 -14 -201l-82 -13c5 86 -14 123 -92 130l-125 10l120 -231l-3 -29l-208 -238l165 15c66 4 101 51 126 143l86 7
s-35 -127 -48 -221z" />
    <glyph glyph-name="minus" unicode="&#x2212;" horiz-adv-x="488" 
d="M476 312l5 -12l-22 -92l-219 -1c-87 0 -219 -1 -219 -1l-6 11l25 90s139 -1 225 -1c78 0 211 6 211 6z" />
    <glyph glyph-name="radical" unicode="&#x221a;" horiz-adv-x="487" 
d="M82 344c-8 39 -28 48 -64 47l-3 4l15 59s61 4 96 7l67 7l6 -8c-2 -62 35 -345 35 -345h11l238 611l23 16h80l-302 -738l-140 -16s-47 278 -62 356z" />
    <glyph glyph-name="infinity" unicode="&#x221e;" horiz-adv-x="497" 
d="M166 411c57 0 90 -35 111 -79c21 35 57 82 118 82s97 -58 97 -128c0 -110 -77 -192 -161 -192c-60 0 -90 37 -109 82c-21 -35 -55 -79 -113 -79c-60 0 -98 58 -98 126c0 106 75 188 155 188zM136 189c32 0 53 21 68 37c-15 47 -31 88 -68 88c-30 0 -55 -27 -55 -69
c0 -33 19 -56 55 -56zM366 323c-32 0 -54 -21 -68 -38c18 -50 33 -94 69 -94c33 0 59 27 59 71c0 35 -21 61 -60 61z" />
    <glyph glyph-name="integral" unicode="&#x222b;" horiz-adv-x="413" 
d="M132 0l17 426c2 86 105 173 206 173c45 0 90 -14 90 -30c0 -20 -17 -82 -28 -97l-16 -2c-24 33 -51 54 -80 54c-33 0 -53 -21 -56 -68l-25 -417c-6 -115 -94 -200 -189 -200c-41 0 -87 21 -87 42c0 23 16 78 30 93h14c10 -35 38 -63 71 -63c32 0 52 25 53 89z" />
    <glyph glyph-name="approxequal" unicode="&#x2248;" horiz-adv-x="488" 
d="M75 259h-11l-30 37l1 11l102 101l19 4c48 0 165 -39 206 -39c26 0 80 57 80 57h11l31 -38l-2 -10l-101 -102l-19 -4c-47 0 -165 39 -206 39c-27 0 -81 -56 -81 -56zM53 78h-11l-30 38l1 10l102 102l19 4c47 0 165 -39 206 -39c26 0 80 57 80 57h11l30 -38l-1 -10
l-101 -102l-20 -4c-47 0 -165 39 -206 39c-26 0 -80 -57 -80 -57z" />
    <glyph glyph-name="notequal" unicode="&#x2260;" horiz-adv-x="488" 
d="M485 402l5 -12l-21 -92c-59 0 -118 -1 -177 -1l-26 -79c73 0 198 6 198 6l4 -12l-21 -92c-62 0 -124 -1 -186 -1h-25l-40 -121l-71 -6l-4 9l37 118c-74 0 -150 -1 -150 -1l-6 11l25 90s84 -1 162 -1l26 79c-83 0 -185 -1 -185 -1l-6 11l25 90s111 -1 195 -1l42 130l71 4
l6 -9l-41 -125c74 1 163 6 163 6z" />
    <glyph glyph-name="lessequal" unicode="&#x2264;" horiz-adv-x="470" 
d="M42 213l-6 13l13 97l193 82c85 36 179 76 179 76l11 -8l12 -76s-103 -38 -182 -71l-122 -50l-1 -7l121 -60c70 -34 148 -72 148 -72c1 -5 2 -10 2 -15l-49 -65c0 -1 -63 32 -129 65l-32 15c-56 27 -134 65 -158 76zM408 -5l5 -15l-20 -77c-136 0 -318 -2 -401 -2l-6 14
l20 76h222c91 0 182 3 180 4z" />
    <glyph glyph-name="greaterequal" unicode="&#x2265;" horiz-adv-x="470" 
d="M437 325l6 -13l-12 -98l-194 -82c-85 -36 -177 -75 -177 -75l-13 7l-11 77s103 37 182 70l122 50v7l-120 60c-70 34 -148 72 -148 72c-1 5 -3 10 -3 16l50 65s63 -33 129 -65l32 -16c55 -27 133 -65 157 -75zM406 -5l6 -15l-20 -77c-137 0 -319 -2 -401 -2l-7 14l20 76
h222c91 0 182 3 180 4z" />
    <glyph glyph-name="lozenge" unicode="&#x25ca;" horiz-adv-x="507" 
d="M52 257l4 35l93 170l103 185l99 4l10 -7l57 -182l55 -161l-5 -38l-90 -164l-106 -188l-98 -5l-12 7l-54 178zM218 422l-74 -148l40 -128l45 -140h7l68 128l77 146l-41 131l-45 141h-7z" />
    <glyph glyph-name="acute.cap" 
d="M374 775l-5 -13s-115 -29 -229 -65l-13 9l-14 47c108 47 223 104 223 104l13 -5z" />
    <glyph glyph-name="breve.cap" 
d="M260 779c45 0 86 19 109 59l16 -3l23 -35c-24 -58 -76 -116 -159 -116s-121 58 -131 116l33 35l17 3c13 -40 49 -59 92 -59z" />
    <glyph glyph-name="circumflex.cap" 
d="M112 711l-19 41c43 29 168 124 168 124h20c0 3 102 -94 137 -124l-29 -41l-17 -4c-19 9 -102 53 -115 58c-15 -5 -107 -49 -130 -58z" />
    <glyph glyph-name="dieresis.cap" 
d="M333 706c-34 0 -52 21 -52 52c0 44 32 76 75 76c34 0 52 -21 52 -52c0 -43 -31 -76 -75 -76zM160 706c-35 0 -52 21 -52 52c0 44 31 76 75 76c34 0 52 -21 52 -52c0 -43 -31 -76 -75 -76z" />
    <glyph glyph-name="grave.cap" 
d="M63 762l-5 13l25 77l13 5s115 -57 223 -104l-13 -47l-14 -9c-114 36 -229 65 -229 65z" />
    <glyph glyph-name="macron.cap" 
d="M403 805l7 -14l-22 -77l-136 -1c-57 0 -134 -1 -134 -1l-9 12l23 76s92 -1 148 -1c49 0 123 6 123 6z" />
    <glyph glyph-name="ring.cap" 
d="M256 731c15 0 44 6 44 42c0 22 -14 36 -40 36c-27 0 -42 -17 -42 -41c0 -27 22 -37 38 -37zM243 678c-50 0 -76 32 -76 78c0 61 45 108 107 108c56 0 77 -36 77 -75c0 -56 -41 -111 -108 -111z" />
    <glyph glyph-name="tilde.cap" 
d="M125 687h-11l-35 37l1 11l88 96l16 4c33 0 113 -34 141 -34c23 0 69 52 69 52h11l35 -37l-1 -10l-88 -97l-17 -4c-32 0 -112 34 -140 34c-24 0 -69 -52 -69 -52z" />
    <glyph glyph-name="caron.cap" 
d="M407 861l20 -41c-43 -29 -169 -124 -169 -124h-19s-102 95 -137 124l28 41l17 4c20 -9 102 -53 115 -58c15 5 107 49 130 58z" />
    <glyph glyph-name="dotaccent.cap" 
d="M246 702c-42 0 -63 25 -63 62c0 52 38 90 90 90c40 0 61 -25 61 -62c0 -52 -37 -90 -88 -90z" />
    <glyph glyph-name="commaaccent" 
d="M63 -100l3 14c24 19 54 35 79 35c40 0 69 -33 69 -86c0 -71 -69 -138 -147 -181l-37 30v17c39 27 68 68 68 102c0 27 -15 53 -35 69z" />
    <glyph glyph-name="hungarumlaut.cap" 
d="M276 794l-1 -12s-85 -46 -169 -98l-13 5l-23 34c74 64 151 134 151 134l12 -1zM444 790l-2 -12s-84 -46 -168 -98l-13 4l-23 34c74 64 151 134 151 134l12 -2z" />
    <glyph glyph-name="zero.lf" horiz-adv-x="493" 
d="M206 -12c-111 0 -174 88 -174 236c0 221 115 374 273 374c109 0 172 -89 172 -234c0 -222 -113 -376 -271 -376zM237 115c92 0 149 75 149 202c0 92 -42 148 -116 148c-93 0 -148 -76 -148 -203c0 -91 42 -147 115 -147z" />
    <glyph glyph-name="one.lf" horiz-adv-x="353" 
d="M283 490c-18 -81 -56 -340 -56 -379c0 -33 10 -46 36 -46c23 0 47 3 47 3l2 -5l-19 -67s-90 4 -139 4c-62 0 -155 -11 -155 -11l16 63c60 5 89 24 95 77l39 318c6 49 -6 57 -41 57c-19 0 -49 -5 -49 -5l-5 7l13 58c22 1 73 7 118 14c95 13 136 20 137 20l8 -29
c-25 -20 -37 -38 -47 -79z" />
    <glyph glyph-name="two.lf" horiz-adv-x="478" 
d="M0 -10l-3 57l127 127c103 113 157 203 157 257c0 36 -21 54 -61 54c-48 0 -98 -31 -141 -90h-13l-8 80c53 72 141 123 213 123c94 0 154 -49 154 -125c0 -84 -58 -172 -248 -371l4 -8h99c59 0 79 19 102 91l77 7s-35 -108 -51 -189l-16 -12s-226 9 -318 9z" />
    <glyph glyph-name="three.lf" horiz-adv-x="420" 
d="M8 90l15 14c25 -8 52 -13 81 -13c80 0 140 41 140 99c0 50 -41 73 -130 73l-9 10v61l65 15c50 22 84 63 84 104c0 30 -20 49 -51 49s-74 -16 -111 -43h-13l-11 71c31 19 124 68 189 68c79 0 131 -43 131 -106c0 -62 -50 -120 -124 -151l-1 -9c79 -25 117 -67 117 -127
c0 -107 -161 -217 -306 -217c-55 0 -71 28 -66 102z" />
    <glyph glyph-name="four.lf" horiz-adv-x="454" 
d="M-9 159l11 67l298 371l7 2l84 -11l-42 -344h77l7 -12l-19 -82l-76 2c-8 -71 -12 -143 -12 -143l-8 -8l-117 -12l-7 10s15 85 25 156zM243 424l-139 -180h126l23 180h-10z" />
    <glyph glyph-name="five.lf" horiz-adv-x="414" 
d="M372 221c0 -117 -162 -233 -306 -233c-54 0 -71 27 -67 102l16 14c24 -8 51 -13 81 -13c82 0 140 43 140 103c0 52 -51 78 -169 86l-7 11c27 134 51 276 51 276l9 8l193 7c37 2 51 10 65 40l56 4l-44 -147l-14 -12s-91 8 -195 8l-19 -103c146 -18 210 -65 210 -151z" />
    <glyph glyph-name="six.lf" horiz-adv-x="448" 
d="M430 538c0 0 -161 -58 -239 -207l3 -7c24 13 62 33 85 37c94 0 144 -68 144 -149c0 -127 -98 -224 -238 -224c-104 0 -164 76 -164 185c0 325 387 425 387 425l9 -5zM230 273c-33 0 -64 -18 -79 -28c-5 -27 -10 -48 -10 -72c0 -64 25 -104 71 -104c58 0 88 45 88 115
c0 51 -25 89 -70 89z" />
    <glyph glyph-name="seven.lf" horiz-adv-x="412" 
d="M167 -12h-17l-87 28l-7 25l268 441l-128 -7c-61 -5 -74 -20 -94 -88l-61 -6s29 114 45 204l6 5s57 -4 117 -4h210l32 -48c-116 -202 -176 -317 -239 -436z" />
    <glyph glyph-name="eight.lf" horiz-adv-x="462" 
d="M22 117c0 91 77 139 126 161c-42 30 -77 70 -77 133c0 101 94 187 214 187c83 0 156 -48 156 -126c0 -79 -59 -126 -104 -149c44 -29 82 -68 82 -132c0 -112 -102 -203 -230 -203c-94 0 -167 50 -167 129zM211 62c48 0 88 36 88 85c0 46 -49 71 -101 100
c-26 -17 -64 -47 -64 -102c0 -45 30 -83 77 -83zM191 446c0 -43 42 -67 89 -93c22 18 48 47 48 95c0 46 -25 71 -62 71c-44 0 -75 -34 -75 -73z" />
    <glyph glyph-name="nine.lf" horiz-adv-x="448" 
d="M34 48c0 0 161 58 239 208l-3 7c-24 -14 -62 -34 -85 -37c-94 0 -143 68 -143 149c0 127 97 224 237 224c103 0 165 -77 165 -185c0 -326 -387 -426 -387 -426l-10 6zM234 314c32 0 63 18 78 27c7 27 10 51 10 72c0 65 -24 104 -69 104c-59 0 -89 -44 -89 -115
c0 -51 25 -88 70 -88z" />
    <glyph glyph-name="zero.tf" horiz-adv-x="455" 
d="M189 -12c-105 0 -164 87 -164 233c0 223 110 377 262 377c103 0 162 -88 162 -232c0 -222 -108 -378 -260 -378zM220 115c87 0 138 76 138 203c0 91 -37 147 -106 147c-87 0 -138 -77 -138 -205c0 -90 38 -145 106 -145z" />
    <glyph glyph-name="one.tf" horiz-adv-x="455" 
d="M331 490c-20 -80 -58 -336 -58 -378c0 -33 13 -47 45 -47c26 0 56 3 56 3l2 -5l-19 -67s-101 4 -158 4c-67 0 -169 -11 -169 -11l16 63c69 5 103 24 110 77l41 318c5 49 -12 57 -51 57c-23 0 -58 -5 -58 -5l-5 7l12 58c19 1 80 7 134 14c111 13 145 20 147 20l7 -29
c-28 -20 -42 -38 -52 -79z" />
    <glyph glyph-name="two.tf" horiz-adv-x="455" 
d="M-5 -10l-3 57l126 127c97 113 149 203 149 257c0 36 -20 54 -58 54c-46 0 -93 -31 -135 -90h-13l-8 80c52 72 137 123 207 123c92 0 150 -49 150 -124c0 -85 -56 -172 -239 -372l3 -8h93c56 0 76 19 98 91l78 7s-35 -108 -51 -189l-16 -12s-219 9 -308 9z" />
    <glyph glyph-name="three.tf" horiz-adv-x="455" 
d="M16 90l15 14c26 -8 55 -13 86 -13c84 0 149 41 149 99c0 50 -44 73 -141 73l-8 10v61l68 15c52 22 89 63 89 104c0 30 -21 49 -55 49s-80 -16 -117 -43h-14l-11 71c29 19 127 68 196 68c82 0 136 -43 136 -107c0 -61 -53 -119 -130 -150l-1 -9c84 -25 125 -67 125 -127
c0 -107 -169 -217 -318 -217c-57 0 -73 28 -69 102z" />
    <glyph glyph-name="four.tf" horiz-adv-x="455" 
d="M-9 159l11 67l298 371l7 2l84 -11l-42 -344h78l6 -12l-19 -82l-76 2c-7 -71 -11 -143 -11 -143l-9 -8l-117 -12l-7 10s15 85 25 156zM243 424l-138 -180h125l23 180h-10z" />
    <glyph glyph-name="five.tf" horiz-adv-x="455" 
d="M398 220c0 -116 -170 -232 -320 -232c-55 0 -73 27 -70 102l16 14c26 -8 54 -13 85 -13c89 0 153 43 153 102c0 53 -56 79 -182 87l-8 11c28 134 51 276 51 276l10 8l203 7c40 2 55 10 69 40l57 4l-45 -147l-14 -12s-98 8 -209 8l-20 -103c156 -18 224 -65 224 -152z" />
    <glyph glyph-name="six.tf" horiz-adv-x="455" 
d="M435 538c0 0 -164 -58 -242 -207l3 -7c25 13 62 33 87 37c94 0 144 -68 144 -149c0 -127 -98 -224 -238 -224c-106 0 -166 76 -166 185c0 325 390 425 390 425l8 -5zM233 273c-33 0 -65 -18 -80 -28c-6 -27 -10 -48 -10 -72c0 -64 25 -104 72 -104c59 0 90 45 90 115
c0 51 -26 89 -72 89z" />
    <glyph glyph-name="seven.tf" horiz-adv-x="455" 
d="M182 -12h-16l-89 28l-8 25l286 441l-141 -7c-66 -5 -79 -20 -100 -88l-62 -6s29 114 45 204l7 5s61 -4 125 -4h221l33 -48c-125 -202 -191 -317 -256 -436z" />
    <glyph glyph-name="eight.tf" horiz-adv-x="455" 
d="M20 117c0 91 76 139 125 161c-42 30 -76 70 -76 133c0 101 93 187 212 187c83 0 155 -48 155 -126c0 -79 -58 -126 -103 -149c43 -29 81 -68 81 -132c0 -112 -101 -203 -228 -203c-93 0 -166 50 -166 129zM208 62c47 0 86 36 86 85c0 46 -49 71 -99 100
c-26 -17 -64 -47 -64 -102c0 -45 30 -83 77 -83zM188 446c0 -43 42 -67 88 -93c22 18 47 47 47 95c0 46 -24 71 -61 71c-43 0 -74 -34 -74 -73z" />
    <glyph glyph-name="nine.tf" horiz-adv-x="455" 
d="M36 48c0 0 163 58 242 208l-3 7c-25 -14 -63 -34 -87 -37c-95 0 -145 68 -145 149c0 127 98 224 239 224c105 0 166 -77 166 -186c0 -325 -390 -425 -390 -425l-9 6zM237 314c33 0 64 18 80 27c7 27 10 51 10 72c0 65 -25 104 -71 104c-60 0 -91 -44 -91 -115
c0 -51 26 -88 72 -88z" />
    <glyph glyph-name="zero.tosf" horiz-adv-x="445" 
d="M183 -12c-108 0 -168 79 -168 206c0 185 107 316 255 316c107 0 168 -79 168 -205c0 -185 -106 -317 -255 -317zM215 119c87 0 139 54 139 140c0 70 -44 115 -119 115c-86 0 -137 -55 -137 -141c0 -69 42 -114 117 -114z" />
    <glyph glyph-name="one.tosf" horiz-adv-x="445" 
d="M314 402c-20 -90 -46 -209 -46 -285c0 -38 12 -52 43 -52c27 0 56 3 56 3l2 -5l-19 -67s-100 4 -156 4c-66 0 -167 -12 -166 -11l14 63c77 6 103 26 111 92l27 215c6 48 -11 57 -50 57c-22 0 -57 -5 -57 -5l-5 7l13 57c19 2 79 8 133 15c110 13 142 20 145 20l7 -30
c-30 -19 -40 -37 -52 -78z" />
    <glyph glyph-name="two.tosf" horiz-adv-x="445" 
d="M-13 -9l-3 33l79 83c118 126 164 195 166 244c1 34 -15 53 -49 53c-36 0 -78 -29 -112 -77h-13l-9 74c59 67 132 109 200 109c81 0 134 -46 134 -115c0 -65 -25 -110 -206 -294l3 -8h81c57 0 78 20 98 91l77 7s-33 -107 -49 -188l-15 -12s-231 9 -320 9z" />
    <glyph glyph-name="three.tosf" horiz-adv-x="445" 
d="M-12 2l15 14c25 -9 53 -13 84 -13c90 0 159 44 159 104c0 49 -44 71 -138 71l-8 10v62l67 14c51 22 88 62 88 102c0 29 -23 48 -56 48s-77 -19 -116 -49c-4 0 -8 -1 -12 -1l-12 71c30 22 126 75 196 75c82 0 135 -41 135 -105c0 -60 -52 -118 -129 -148l-1 -8
c82 -22 124 -64 124 -120c0 -110 -176 -229 -328 -229c-56 0 -72 28 -68 102z" />
    <glyph glyph-name="four.tosf" horiz-adv-x="445" 
d="M-19 73c3 22 8 45 11 67l297 368c1 0 5 2 6 2l85 -11l-42 -342h76l7 -11l-19 -83s-30 1 -75 3c-7 -73 -12 -145 -12 -145l-8 -9l-117 -12l-7 10s15 87 25 159c-74 2 -159 4 -227 4zM232 335l-137 -178h125l21 178h-9z" />
    <glyph glyph-name="five.tosf" horiz-adv-x="445" 
d="M381 144c0 -124 -184 -244 -334 -244c-52 0 -75 24 -69 102l15 14c26 -9 54 -13 86 -13c92 0 165 43 165 104c0 47 -47 72 -179 91l-8 11c29 131 53 270 53 270l9 8l197 7c38 2 53 10 68 40l56 4l-44 -147l-15 -13s-91 8 -201 8l-18 -92c138 -24 219 -66 219 -150z" />
    <glyph glyph-name="six.tosf" horiz-adv-x="445" 
d="M428 538c0 0 -160 -58 -238 -208l3 -6c10 3 61 33 85 37c93 0 142 -68 142 -149c0 -127 -97 -224 -236 -224c-104 0 -164 76 -164 185c0 325 386 425 386 425l8 -5zM228 273c-32 0 -63 -18 -78 -28c-6 -26 -10 -46 -10 -72c0 -64 25 -104 70 -104c58 0 88 45 88 115
c0 51 -25 89 -70 89z" />
    <glyph glyph-name="seven.tosf" horiz-adv-x="445" 
d="M167 -100h-16l-88 27l-9 25l281 442l-136 -8c-66 -5 -79 -20 -100 -88l-60 -6s28 114 44 205l7 5s60 -4 122 -4h219l34 -48c-124 -203 -189 -318 -253 -437z" />
    <glyph glyph-name="eight.tosf" horiz-adv-x="445" 
d="M18 116c0 92 74 140 122 162c-40 30 -74 70 -74 132c0 102 97 188 214 188c82 0 149 -48 149 -126c0 -79 -57 -126 -101 -149c42 -29 79 -68 79 -131c0 -113 -103 -204 -228 -204c-92 0 -161 50 -161 128zM203 62c46 0 84 36 84 85c0 46 -48 71 -97 100
c-25 -17 -61 -47 -61 -102c0 -45 29 -83 74 -83zM186 446c0 -43 40 -67 85 -93c22 18 46 47 46 96c0 45 -24 70 -60 70c-42 0 -71 -34 -71 -73z" />
    <glyph glyph-name="nine.tosf" horiz-adv-x="445" 
d="M22 -40c0 0 161 57 237 207l-3 7c-10 -3 -60 -34 -84 -37c-93 0 -142 68 -142 149c0 127 97 224 236 224c104 0 164 -76 164 -185c0 -325 -386 -426 -386 -426l-9 6zM221 225c33 0 64 18 78 27c7 27 10 51 10 72c0 65 -24 105 -69 105c-58 0 -89 -45 -89 -116
c0 -51 26 -88 70 -88z" />
    <glyph glyph-name="caron.alt" 
d="M301 733l6 -10s-28 -109 -63 -216l-51 -20l-14 4c17 115 21 228 21 228z" />
    <glyph glyph-name="zero.numr" horiz-adv-x="341" 
d="M143 253c-75 0 -115 55 -115 152c0 147 73 244 180 244c73 0 114 -55 114 -152c0 -147 -72 -244 -179 -244zM165 352c56 0 87 39 87 112c0 53 -24 83 -70 83c-55 0 -86 -40 -86 -114c0 -52 24 -81 69 -81z" />
    <glyph glyph-name="one.numr" horiz-adv-x="257" 
d="M205 577c-10 -41 -35 -210 -35 -237c0 -22 6 -31 22 -31c15 0 30 2 30 2l2 -4l-15 -49s-61 3 -95 3c-44 0 -111 -7 -111 -7l11 46c40 3 59 16 63 47l24 197c4 31 -3 37 -26 37c-13 0 -32 -2 -32 -2l-4 5l9 42c21 2 53 6 82 10c62 7 101 13 101 13l6 -23
c-15 -11 -24 -24 -32 -49z" />
    <glyph glyph-name="two.numr" horiz-adv-x="342" 
d="M7 255l-1 48l90 87c59 62 90 111 90 140c0 22 -12 32 -36 32c-28 0 -59 -18 -88 -53h-11l-6 62c39 47 95 78 144 78c64 0 108 -33 108 -84c0 -56 -37 -111 -155 -228l3 -6h52c36 0 50 14 63 59l62 5s-24 -77 -34 -131l-11 -10s-152 7 -215 7z" />
    <glyph glyph-name="three.numr" horiz-adv-x="302" 
d="M10 328l13 12c16 -7 34 -11 56 -11c47 0 82 23 82 56c0 27 -25 39 -78 39l-7 8v48l43 9c30 13 50 36 50 60c0 17 -12 28 -30 28c-19 0 -46 -10 -72 -27h-9l-10 54c29 18 89 45 130 45c57 0 94 -28 94 -70c0 -41 -33 -78 -82 -96l-1 -7c55 -18 80 -45 80 -84
c0 -70 -109 -139 -211 -139c-40 0 -51 20 -48 75z" />
    <glyph glyph-name="four.numr" horiz-adv-x="328" 
d="M1 357l8 52l193 239l5 1l71 -7l-26 -221h48l5 -9l-14 -61l-47 1c-5 -43 -7 -84 -7 -84l-6 -7l-91 -8l-6 7s10 50 16 95zM164 525l-79 -104h74l12 104h-7z" />
    <glyph glyph-name="five.numr" horiz-adv-x="296" 
d="M263 404c0 -78 -108 -151 -208 -151c-40 0 -53 20 -50 75l14 12c15 -7 33 -11 55 -11c48 0 82 24 82 56c0 29 -32 43 -108 49l-4 8c19 90 34 186 34 186l7 5l130 4c25 0 35 6 44 26l44 3l-31 -104l-12 -10s-58 5 -125 5l-10 -53c97 -14 138 -44 138 -100z" />
    <glyph glyph-name="six.numr" horiz-adv-x="320" 
d="M297 603c0 0 -94 -33 -146 -117l2 -6c14 7 34 17 49 20c60 0 94 -42 94 -97c0 -88 -65 -150 -162 -150c-72 0 -115 49 -115 122c0 212 261 274 261 274l7 -4zM163 434c-19 0 -37 -9 -46 -15c-3 -16 -6 -29 -6 -44c0 -38 14 -59 39 -59c36 0 51 25 51 68
c0 30 -13 50 -38 50z" />
    <glyph glyph-name="seven.numr" horiz-adv-x="295" 
d="M129 254h-13l-67 20l-6 17l168 273l-73 -6c-40 -4 -48 -12 -61 -55l-46 -4s19 79 30 142l4 3s38 -3 78 -3h141l26 -37c-71 -122 -103 -182 -149 -268z" />
    <glyph glyph-name="eight.numr" horiz-adv-x="325" 
d="M18 339c0 55 45 85 78 99c-26 20 -48 47 -48 87c0 69 66 124 148 124c60 0 109 -34 109 -84s-36 -79 -66 -94c27 -17 51 -43 51 -84c0 -75 -70 -134 -157 -134c-66 0 -115 35 -115 86zM148 310c28 0 48 19 48 46c0 25 -29 40 -62 58c-14 -11 -31 -28 -31 -56
c0 -27 17 -48 45 -48zM141 548c0 -25 25 -39 54 -53c12 12 24 28 24 54c0 24 -13 39 -35 39c-25 0 -43 -19 -43 -40z" />
    <glyph glyph-name="nine.numr" horiz-adv-x="319" 
d="M30 300c0 0 94 32 147 116l-2 6c-15 -7 -34 -17 -49 -20c-61 0 -94 42 -94 98c0 87 64 149 162 149c70 0 115 -49 115 -122c0 -212 -261 -274 -261 -274l-7 4zM164 468c19 0 36 9 45 14c5 17 7 32 7 46c0 37 -13 59 -39 59c-36 0 -51 -26 -51 -69c0 -30 14 -50 38 -50z
" />
    <glyph glyph-name="zero.dnom" horiz-adv-x="341" 
d="M143 -8c-75 0 -115 56 -115 152c0 147 73 245 180 245c73 0 114 -56 114 -152c0 -147 -72 -245 -179 -245zM165 91c56 0 87 39 87 112c0 53 -24 83 -70 83c-55 0 -86 -40 -86 -113c0 -53 24 -82 69 -82z" />
    <glyph glyph-name="one.dnom" horiz-adv-x="257" 
d="M205 316c-10 -41 -35 -210 -35 -237c0 -22 6 -31 22 -31c15 0 30 2 30 2l2 -4l-15 -49s-61 3 -95 3c-44 0 -111 -7 -111 -7l11 46c40 4 59 16 63 48l24 197c4 31 -3 36 -26 36c-13 0 -32 -2 -32 -2l-4 5l9 42c21 2 53 6 82 10c62 8 101 14 101 14l6 -24
c-15 -11 -24 -24 -32 -49z" />
    <glyph glyph-name="two.dnom" horiz-adv-x="342" 
d="M7 -6l-1 48l90 87c59 62 90 112 90 140c0 22 -12 32 -36 32c-28 0 -59 -18 -88 -53h-11l-6 62c39 47 95 79 144 79c64 0 108 -34 108 -85c0 -56 -37 -111 -155 -228l3 -5h52c36 0 50 13 63 59l62 5s-24 -77 -34 -132l-11 -9s-152 6 -215 6z" />
    <glyph glyph-name="three.dnom" horiz-adv-x="302" 
d="M10 67l13 12c16 -6 34 -10 56 -10c47 0 82 22 82 55c0 27 -25 39 -78 39l-7 8v49l43 8c30 13 50 36 50 61c0 16 -12 27 -30 27c-19 0 -46 -10 -72 -27h-9l-10 55c29 18 89 45 130 45c57 0 94 -28 94 -71c0 -41 -33 -78 -82 -96l-1 -6c55 -19 80 -46 80 -85
c0 -70 -109 -139 -211 -139c-40 0 -51 20 -48 75z" />
    <glyph glyph-name="four.dnom" horiz-adv-x="328" 
d="M1 96l8 53l193 238l5 2l71 -8l-26 -221h48l5 -8l-14 -62l-47 1c-5 -43 -7 -84 -7 -84l-6 -7l-91 -7l-6 6s10 50 16 95zM164 264l-79 -104h74l12 104h-7z" />
    <glyph glyph-name="five.dnom" horiz-adv-x="296" 
d="M263 143c0 -77 -108 -151 -208 -151c-40 0 -53 20 -50 75l14 12c15 -6 33 -10 55 -10c48 0 82 23 82 55c0 29 -32 43 -108 49l-4 8c19 90 34 186 34 186l7 5l130 4c25 1 35 7 44 26l44 3l-31 -104l-12 -10s-58 5 -125 5l-10 -52c97 -15 138 -45 138 -101z" />
    <glyph glyph-name="six.dnom" horiz-adv-x="320" 
d="M297 342c0 0 -94 -33 -146 -117l2 -6c14 8 34 17 49 20c60 0 94 -41 94 -97c0 -88 -65 -150 -162 -150c-72 0 -115 49 -115 123c0 211 261 274 261 274l7 -4zM163 173c-19 0 -37 -9 -46 -15c-3 -16 -6 -29 -6 -44c0 -38 14 -59 39 -59c36 0 51 25 51 68
c0 31 -13 50 -38 50z" />
    <glyph glyph-name="seven.dnom" horiz-adv-x="295" 
d="M129 -7h-13l-67 20l-6 17l168 273l-73 -6c-40 -3 -48 -12 -61 -55l-46 -4s19 79 30 143l4 3s38 -3 78 -3h141l26 -37c-71 -123 -103 -183 -149 -269z" />
    <glyph glyph-name="eight.dnom" horiz-adv-x="325" 
d="M18 78c0 55 45 85 78 99c-26 20 -48 47 -48 87c0 69 66 125 148 125c60 0 109 -35 109 -85s-36 -78 -66 -93c27 -18 51 -43 51 -84c0 -76 -70 -135 -157 -135c-66 0 -115 35 -115 86zM148 50c28 0 48 19 48 45s-29 40 -62 58c-14 -11 -31 -28 -31 -55
c0 -28 17 -48 45 -48zM141 287c0 -24 25 -39 54 -53c12 12 24 28 24 54c0 24 -13 39 -35 39c-25 0 -43 -18 -43 -40z" />
    <glyph glyph-name="nine.dnom" horiz-adv-x="319" 
d="M30 39c0 0 94 32 147 117l-2 5c-15 -7 -34 -16 -49 -20c-61 0 -94 42 -94 98c0 87 64 150 162 150c70 0 115 -50 115 -123c0 -212 -261 -274 -261 -274l-7 4zM164 207c19 0 36 10 45 15c5 17 7 31 7 45c0 37 -13 59 -39 59c-36 0 -51 -26 -51 -69c0 -30 14 -50 38 -50z
" />
    <glyph glyph-name="a.sups" horiz-adv-x="356" 
d="M280 423l2 -2c5 0 12 6 40 30l13 -1l12 -27c-67 -71 -95 -92 -126 -92c-20 0 -31 10 -31 29c0 10 11 59 20 95l-6 1c-38 -67 -66 -102 -98 -125c-54 0 -87 37 -87 99c0 104 84 213 163 213l54 -11l4 14l10 5l68 -8l5 -13s-29 -112 -43 -207zM130 418c18 0 60 73 87 149
c-19 12 -40 18 -55 18c-22 0 -44 -60 -44 -116c0 -30 5 -51 12 -51z" />
    <glyph glyph-name="b.sups" horiz-adv-x="353" 
d="M28 380c0 0 57 343 57 365c0 16 -7 23 -24 23h-22l7 45c54 0 137 6 137 6l10 -11s-35 -161 -57 -292h5c38 71 64 105 95 129c58 0 94 -41 94 -107c0 -109 -81 -205 -172 -205c-75 0 -121 32 -121 32zM218 566c-17 0 -56 -72 -84 -151c7 -2 31 -16 49 -16
c27 0 50 50 50 111c0 30 -7 56 -15 56z" />
    <glyph glyph-name="c.sups" horiz-adv-x="270" 
d="M171 583c-30 0 -55 -51 -55 -113c0 -40 14 -63 36 -63c20 0 42 19 57 51l12 -2l28 -31c-23 -52 -80 -94 -129 -94c-60 0 -99 45 -99 115c0 109 82 203 175 203c25 0 51 -6 68 -15l3 -10l-31 -72l-22 -1c-12 22 -26 32 -43 32z" />
    <glyph glyph-name="d.sups" horiz-adv-x="357" 
d="M280 423l2 -2c4 0 3 -1 40 30l13 -1l12 -27c-68 -71 -95 -92 -126 -92c-21 0 -31 10 -31 29c0 10 11 58 20 95l-6 1c-37 -66 -66 -101 -98 -125c-54 0 -87 37 -87 99c0 104 84 213 163 213l46 -10l15 107c2 20 -4 28 -23 28h-21l6 45c55 0 138 6 138 6l9 -11
s-52 -258 -72 -385zM130 418c18 0 59 72 87 149c-7 4 -33 18 -55 18s-44 -60 -44 -117c0 -29 5 -50 12 -50z" />
    <glyph glyph-name="e.sups" horiz-adv-x="290" 
d="M277 583c0 -58 -46 -92 -162 -127c0 -31 15 -49 39 -49s46 16 64 48l14 -1l27 -31c-24 -52 -83 -92 -137 -92c-61 0 -100 46 -100 117c0 107 82 201 176 201c49 0 79 -25 79 -66zM174 583c-28 0 -50 -32 -57 -82c52 18 77 39 77 63c0 12 -8 19 -20 19z" />
    <glyph glyph-name="f.sups" horiz-adv-x="221" 
d="M20 591l-2 3l4 35l57 8l4 38c8 76 96 146 177 146c25 0 54 -4 71 -10l3 -7l-33 -71l-13 -2c-27 18 -45 25 -61 25c-31 0 -45 -17 -50 -60l-7 -60h87l4 -3l-7 -42h-84l-6 -3l-29 -266c-8 -72 -78 -139 -142 -139c-38 0 -72 16 -81 36c7 23 27 60 39 77h13
c2 -36 16 -52 47 -52c25 0 44 19 45 52c1 21 1 43 2 58l17 230l-7 6z" />
    <glyph glyph-name="g.sups" horiz-adv-x="340" 
d="M140 421c16 0 53 68 82 147c-8 4 -33 17 -54 17s-44 -58 -44 -112c0 -30 7 -52 16 -52zM117 337c-28 -19 -68 -44 -68 -51c0 -18 31 -35 65 -35c49 0 82 31 89 86l14 120l-6 2c-51 -83 -69 -105 -94 -122zM286 356c-9 -73 -127 -173 -205 -173c-73 -1 -128 40 -122 91
l2 7c22 13 70 38 110 59l1 5c-29 13 -45 46 -45 89c0 101 83 210 161 210l53 -12l5 14l10 5l67 -8l9 -14c-17 -36 -31 -85 -35 -116c-3 -26 -7 -120 -11 -157z" />
    <glyph glyph-name="h.sups" horiz-adv-x="361" 
d="M280 425l2 -2c4 0 9 2 39 30l14 -3l12 -26c-64 -68 -95 -91 -125 -91c-26 0 -37 10 -37 33c0 31 43 139 43 170c0 13 -6 21 -15 21c-19 0 -56 -63 -90 -151l-5 -43c-2 -14 -43 -29 -81 -29l-10 13s55 349 61 394c2 20 -5 27 -23 27h-22l7 45c54 0 138 6 138 6l9 -12
s-37 -160 -57 -291h4c33 70 66 116 95 134c52 0 85 -27 85 -67c0 -33 -37 -123 -44 -158z" />
    <glyph glyph-name="i.sups" horiz-adv-x="213" 
d="M128 703c-29 0 -45 18 -45 45c0 39 27 65 66 65c28 0 44 -15 44 -43c0 -40 -26 -67 -65 -67zM133 423l2 -2c5 0 9 3 40 30l13 -1l12 -27c-62 -69 -95 -92 -124 -92c-26 0 -6 13 -6 201c0 -12 0 36 0 36c0 16 -8 23 -25 23h-21l7 45c53 0 135 6 135 6l10 -11
s-29 -103 -43 -208z" />
    <glyph glyph-name="j.sups" horiz-adv-x="207" 
d="M130 350c-10 -73 -63 -134 -141 -170l-22 23l3 8c48 36 65 69 75 151c0 0 33 185 33 206c0 16 -7 23 -25 23h-21l8 45c53 0 135 6 135 6l9 -11s-30 -117 -54 -281zM136 703c-28 0 -44 17 -44 45c0 40 26 65 66 65c27 0 44 -15 44 -43c0 -40 -28 -67 -66 -67z" />
    <glyph glyph-name="k.sups" horiz-adv-x="333" 
d="M211 333l-46 131l5 12c19 9 63 30 63 64c0 11 -5 17 -16 17c-20 0 -58 -63 -94 -152l-5 -42c-2 -14 -43 -29 -81 -29l-10 13s62 375 62 398c0 16 -7 23 -24 23h-22l7 45c54 0 138 6 138 6l9 -12s-37 -160 -57 -291h4c32 69 66 116 95 134c55 0 89 -27 89 -68
c0 -40 -29 -81 -83 -117c26 -48 63 -108 63 -108l-2 -12l-87 -16z" />
    <glyph glyph-name="l.sups" horiz-adv-x="204" 
d="M124 423l3 -2c5 0 8 3 40 30l13 -1l12 -27c-63 -69 -95 -92 -125 -92c-25 0 -37 13 -37 37c0 19 59 357 59 377c0 16 -7 23 -24 23h-22l7 45c54 0 137 6 137 6l10 -11s-57 -266 -73 -385z" />
    <glyph glyph-name="m.sups" horiz-adv-x="535" 
d="M454 425l2 -2c4 0 9 3 40 30l14 -3l11 -26c-64 -68 -96 -91 -125 -91c-26 0 -37 10 -37 33c0 30 44 139 44 170c0 13 -5 21 -15 21c-20 0 -61 -67 -99 -160l-4 -34c-2 -14 -43 -29 -81 -29l-10 13s42 166 42 191c0 13 -5 19 -16 19c-18 0 -54 -62 -88 -151l-5 -43
c-2 -14 -43 -29 -81 -29l-11 13s31 184 35 217c2 20 -5 27 -24 27h-21l7 45c53 0 135 6 135 6l9 -12s-19 -58 -27 -114h3c33 69 65 116 95 134c50 0 83 -26 83 -66c0 -18 -14 -68 -14 -68h3c32 68 66 116 96 134c52 0 84 -26 84 -66c0 -33 -37 -124 -45 -159z" />
    <glyph glyph-name="o.sups" horiz-adv-x="325" 
d="M155 391c30 0 47 41 47 118c0 52 -11 75 -34 75c-28 0 -47 -47 -47 -115c0 -51 12 -78 34 -78zM130 331c-66 0 -106 45 -106 122c0 114 71 197 170 197c68 0 106 -41 106 -116c0 -118 -70 -203 -170 -203z" />
    <glyph glyph-name="p.sups" horiz-adv-x="362" 
d="M-25 186l8 44c23 3 32 12 39 43c12 55 46 268 46 295c0 16 -7 23 -24 23h-22l8 45c52 0 135 6 135 6l9 -11c-12 -35 -21 -72 -27 -109h4c36 68 64 105 94 128c60 0 95 -40 95 -103c0 -103 -84 -209 -159 -209l-64 12l-12 -81c-3 -26 3 -32 28 -32h30v-4l-8 -42
c-83 0 -180 -5 -180 -5zM227 571c-13 0 -52 -60 -83 -149c8 -4 35 -18 58 -18c21 0 41 64 41 114c0 30 -7 53 -16 53z" />
    <glyph glyph-name="q.sups" horiz-adv-x="342" 
d="M174 271l19 99l17 85l-6 1c-37 -65 -65 -102 -95 -125c-55 0 -90 39 -90 102c0 102 84 210 163 210l53 -11l11 31l11 6l67 -8l4 -13c-7 -12 -71 -319 -71 -390c0 -16 4 -21 17 -21h20l1 -3l-8 -43c-110 0 -176 -8 -176 -8l9 45c40 3 48 9 54 43zM132 418
c16 0 55 68 85 149c-8 4 -33 18 -55 18s-44 -59 -44 -115c0 -29 6 -52 14 -52z" />
    <glyph glyph-name="r.sups" horiz-adv-x="281" 
d="M35 347c0 0 35 197 35 220c0 17 -6 24 -24 24h-21l7 45c53 0 135 6 135 6l9 -12s-16 -51 -24 -99l4 1c25 62 69 117 93 117c23 -16 34 -40 34 -72c0 -10 -3 -23 -9 -39l-10 -5s-11 10 -30 10c-35 0 -70 -44 -101 -127l-6 -53c-2 -14 -43 -29 -81 -29z" />
    <glyph glyph-name="s.sups" horiz-adv-x="273" 
d="M42 448l15 -1c2 -31 26 -52 57 -52c21 0 33 9 33 23c0 17 -20 28 -43 41c-29 17 -63 37 -63 80c0 64 59 111 135 111c36 0 70 -11 90 -27c-12 -29 -25 -55 -36 -74h-15c-9 23 -26 36 -45 36c-15 0 -27 -10 -27 -23c0 -11 8 -19 20 -27c31 -20 85 -40 85 -92
c0 -63 -63 -112 -143 -112c-49 0 -90 17 -98 41c4 23 20 59 35 76z" />
    <glyph glyph-name="t.sups" horiz-adv-x="229" 
d="M192 454l13 -3l12 -27c-42 -54 -83 -93 -104 -93c-50 0 -78 29 -72 75l31 179l-5 5l-39 1l-2 3l4 35l49 8c5 34 10 74 10 74l96 22l7 -7s-12 -43 -22 -90h68l4 -3l-6 -42h-68l-8 -4l-28 -148c-2 -14 2 -20 13 -20c10 0 22 8 47 35z" />
    <glyph glyph-name="u.sups" horiz-adv-x="362" 
d="M218 462h-5c-33 -66 -63 -109 -91 -129c-54 0 -87 25 -87 65c0 35 41 141 41 171c0 15 -7 22 -24 22h-21l7 45c53 0 136 6 136 6l9 -11s-53 -164 -53 -190c0 -12 4 -17 13 -17c19 0 57 63 93 155l9 59l11 5l62 -2l11 -12s-29 -111 -44 -206l3 -2c5 0 6 1 40 30l13 -1
l12 -27c-68 -71 -96 -92 -126 -92c-21 0 -31 10 -31 28c0 13 14 67 22 103z" />
    <glyph glyph-name="v.sups" horiz-adv-x="327" 
d="M184 337l-92 -5l-11 11c-4 73 -16 171 -26 227c-3 16 -9 21 -21 21c-8 0 -26 -1 -26 -1l4 43c51 6 125 12 125 12l8 -6c7 -61 11 -142 11 -222h9c37 72 56 119 56 144s-19 41 -35 47l7 25l102 17c13 -12 20 -35 20 -60c0 -48 -42 -129 -131 -253z" />
    <glyph glyph-name="w.sups" horiz-adv-x="483" 
d="M156 417h9c28 56 44 94 54 122l-15 83l6 10l81 18c13 -12 20 -33 20 -57c0 -13 -2 -23 -9 -44l11 -132h10c36 72 54 119 54 144s-18 41 -33 47l6 25l102 17c12 -13 20 -36 20 -62c0 -47 -42 -127 -130 -251l-78 -5l-11 11l-10 100h-7c-14 -30 -35 -70 -57 -106l-87 -5
l-11 11c-4 74 -16 172 -26 227c-3 16 -9 21 -21 21c-8 0 -26 -1 -26 -1l4 43c51 6 125 12 125 12l8 -6c7 -61 11 -142 11 -222z" />
    <glyph glyph-name="x.sups" horiz-adv-x="344" 
d="M292 650c21 0 39 -8 56 -24c-14 -32 -26 -59 -38 -83h-15c-6 25 -15 36 -28 36c-17 0 -32 -19 -54 -69c24 -84 33 -104 46 -104c8 0 20 9 41 27h8l14 -30c-53 -53 -82 -72 -113 -72c-30 0 -43 20 -66 95c-30 -66 -59 -95 -94 -95c-24 0 -43 9 -56 25c10 27 24 59 38 85
h15c3 -26 12 -40 26 -40c18 0 35 24 56 73c-26 85 -33 102 -46 102c-8 0 -21 -9 -38 -28h-8l-15 31c50 50 81 71 113 71c29 0 41 -18 64 -92c30 64 58 92 94 92z" />
    </font>
</defs>
</svg>
