<?xml version="1.0" standalone="no"?>
<!DOCTYPE svg PUBLIC "-//W3C//DTD SVG 1.1//EN" "http://www.w3.org/Graphics/SVG/1.1/DTD/svg11.dtd" >
<svg version="1.1" xmlns="http://www.w3.org/2000/svg">
<metadata>
Created by FontForge 20120731 at Tue Aug 26 09:23:21 2014

Copyright (c) 2004 by Magenta/ 2008 by George Triantafyllakos. Released under the SIL Open Font License (OFL).
</metadata>
<defs>
<font id="bpreplay" horiz-adv-x="625" >
  <font-face 
    font-family="BPreplay"
    font-weight="700"
    font-style="italic"
    font-stretch="normal"
    units-per-em="1000"
    panose-1="2 0 8 3 0 0 0 9 0 4"
    ascent="800"
    descent="-200"
    x-height="582"
    cap-height="779"
    bbox="-123 -285 1339 1071"
    underline-thickness="50"
    underline-position="-75"
    slope="-6"
    unicode-range="U+0020-2260"
  />
<missing-glyph horiz-adv-x="209" 
 />
    <glyph glyph-name=".notdef" horiz-adv-x="209" 
 />
    <glyph glyph-name="percent" unicode="%" horiz-adv-x="950" 
d="M740 418c110 0 169 -85 169 -184c0 -124 -87 -234 -212 -234c-113 0 -174 82 -174 184c0 131 95 234 217 234zM711 139c40 0 52 53 52 80c0 29 -11 58 -37 58c-30 0 -50 -34 -54 -82c0 -30 12 -56 39 -56zM222 354c-110 0 -172 88 -172 189c0 127 97 229 216 229
c111 0 172 -84 172 -184c0 -127 -96 -234 -216 -234zM236 493c41 0 55 52 55 82c0 31 -14 57 -40 57c-39 0 -51 -54 -51 -82c0 -29 11 -57 36 -57zM257 92l307 621c18 37 48 55 81 55c40 0 65 -29 65 -65c-2 -23 -7 -36 -14 -49l-315 -626c-5 -15 -34 -42 -73 -42
c-33 0 -61 25 -61 65c0 14 3 30 10 41z" />
    <glyph glyph-name="ampersand" unicode="&#x26;" horiz-adv-x="705" 
d="M296 593c0 -23 8 -46 22 -67c21 21 41 48 43 78c0 22 -14 31 -28 31c-25 0 -37 -21 -37 -42zM518 16l-47 56c-58 -57 -132 -91 -209 -91c-155 0 -243 91 -243 218c0 114 75 203 160 265c-20 32 -31 63 -31 102c0 117 95 206 202 206c80 0 153 -50 153 -155
c0 -79 -44 -135 -93 -181l86 -111l25 37c26 38 55 56 88 56c41 0 68 -26 68 -65c-2 -28 -13 -52 -28 -74l-61 -78l52 -68c10 -12 14 -26 14 -41c-5 -54 -45 -92 -86 -92c-17 0 -38 4 -50 16zM388 189l-124 155c-48 -36 -85 -78 -89 -123c0 -52 49 -88 103 -88
c41 0 75 18 110 56z" />
    <glyph glyph-name="quotesingle" unicode="'" horiz-adv-x="267" 
d="M271 656l-70 -131c-20 -34 -47 -50 -82 -50c-39 0 -73 29 -73 68c1 13 4 26 7 33l70 137c21 41 48 61 88 61c39 0 72 -31 72 -73c0 -23 -5 -34 -12 -45z" />
    <glyph glyph-name="parenleft" unicode="(" horiz-adv-x="326" 
d="M211 738c24 18 42 24 61 24c37 0 65 -29 65 -73c-2 -19 -11 -38 -27 -54c-84 -89 -130 -212 -130 -341c0 -84 20 -174 73 -237c11 -17 12 -32 12 -52c-4 -43 -39 -72 -80 -72c-20 0 -40 6 -56 25c-72 81 -100 203 -100 320c0 168 56 330 182 460z" />
    <glyph glyph-name="parenright" unicode=")" horiz-adv-x="327" 
d="M193 742c76 -92 107 -203 107 -317c0 -160 -54 -349 -184 -467c-20 -19 -41 -25 -61 -25c-38 0 -66 25 -66 72c2 15 9 35 22 52c88 81 136 213 136 345c0 85 -22 168 -69 233c-11 15 -17 31 -17 54c4 41 43 73 83 73c19 0 34 -6 49 -20z" />
    <glyph glyph-name="asterisk" unicode="*" horiz-adv-x="459" 
d="M110 547l-22 16c-15 14 -21 31 -21 48c4 44 40 78 79 78c9 0 18 -3 25 -4l24 -16v5c0 40 31 84 78 84c25 0 61 -17 61 -77v-12l11 7c15 10 29 12 42 12c32 0 62 -28 62 -64c-2 -27 -16 -51 -42 -70l-15 -7l9 -4c24 -14 34 -36 34 -58c-4 -43 -39 -77 -78 -77
c-11 0 -21 4 -48 16l-1 -11c-5 -50 -43 -75 -79 -75c-34 0 -64 22 -65 67l2 20c-31 -16 -40 -18 -50 -18c-33 0 -64 26 -64 63c0 25 16 47 35 65z" />
    <glyph glyph-name="plus" unicode="+" horiz-adv-x="624" 
d="M114 370h118l13 117c5 51 39 83 89 83c42 0 73 -31 73 -73c0 -3 -1 -7 -14 -127h118c52 0 81 -29 81 -71c0 -59 -44 -93 -98 -93h-118l-13 -124c-5 -44 -41 -82 -87 -82c-48 0 -75 28 -75 71c0 4 1 7 14 135h-118c-60 0 -76 30 -76 83c5 52 43 81 93 81z" />
    <glyph glyph-name="comma" unicode="," horiz-adv-x="256" 
d="M191 81l-83 -155c-19 -32 -43 -48 -75 -48c-38 0 -70 32 -70 71c1 15 4 23 8 32c0 1 1 2 1 3l75 145c20 37 48 56 84 56c40 0 69 -32 69 -68c-1 -15 -6 -27 -9 -36z" />
    <glyph glyph-name="hyphen" unicode="-" horiz-adv-x="433" 
d="M127 370h183c51 0 76 -23 76 -67c0 -58 -38 -90 -92 -90h-183c-50 0 -76 20 -76 63c0 55 43 94 92 94z" />
    <glyph glyph-name="period" unicode="." horiz-adv-x="241" 
d="M6 80c5 59 49 98 98 98c48 0 81 -35 81 -80c-5 -59 -48 -98 -99 -98c-46 0 -80 35 -80 80z" />
    <glyph glyph-name="slash" unicode="/" horiz-adv-x="447" 
d="M6 92l305 621c20 37 49 55 83 55c40 0 64 -30 64 -65c-2 -23 -6 -36 -13 -49l-315 -626c-5 -15 -34 -42 -73 -42c-33 0 -61 25 -61 65c0 14 3 30 10 41z" />
    <glyph glyph-name="zero" unicode="0" horiz-adv-x="604" 
d="M348 772h4c169 0 222 -169 222 -321c0 -183 -92 -462 -307 -462c-175 0 -228 167 -228 321c0 192 93 456 309 462zM284 147c94 0 127 208 127 289c0 85 -19 176 -77 176c-97 0 -131 -203 -131 -288c0 -84 20 -177 81 -177z" />
    <glyph glyph-name="one" unicode="1" horiz-adv-x="360" 
d="M166 568c-19 -7 -37 -12 -55 -12c-38 0 -69 26 -69 65c0 45 35 78 75 89l151 40c40 -3 69 -30 69 -68c0 -39 -15 -158 -61 -599c-5 -48 -40 -83 -88 -83c-45 0 -74 29 -74 72c0 3 1 7 52 496z" />
    <glyph glyph-name="two" unicode="2" horiz-adv-x="545" 
d="M55 532c15 150 141 237 259 237c108 0 209 -74 209 -189c0 -85 -46 -162 -95 -219c-74 -86 -100 -115 -176 -205h161c47 0 69 -22 69 -63c0 -55 -33 -90 -86 -93h-296c-57 0 -86 22 -86 64c0 29 13 54 29 72l277 329c22 27 36 57 39 86c0 40 -31 60 -64 60
c-36 0 -74 -24 -79 -74c-4 -35 -35 -88 -88 -88c-51 0 -73 45 -73 83z" />
    <glyph glyph-name="three" unicode="3" horiz-adv-x="539" 
d="M303 772c123 0 197 -92 197 -189c0 -78 -48 -140 -106 -176c68 -39 97 -100 97 -165c0 -146 -138 -253 -269 -253c-88 0 -153 47 -185 99c-14 23 -21 49 -21 75c0 49 34 94 84 94c28 0 59 -18 69 -50c13 -39 38 -58 69 -58c42 0 87 28 93 82c0 41 -13 90 -57 97h-33
c-52 0 -78 15 -78 56c0 57 41 78 94 78c4 0 19 0 29 2c28 8 49 54 52 86c0 38 -14 66 -56 66c-59 0 -68 -42 -70 -50c-2 -12 -19 -54 -68 -54c-52 0 -76 21 -76 60c0 118 130 200 235 200z" />
    <glyph glyph-name="four" unicode="4" horiz-adv-x="576" 
d="M295 168h-210c-55 0 -83 34 -83 75c0 27 13 53 29 72l269 371c30 42 67 64 112 64c53 0 92 -35 92 -95c0 -5 0 -10 -34 -331c45 0 67 -21 67 -63c0 -56 -32 -92 -83 -92l-8 -83c-6 -57 -37 -86 -89 -86c-44 0 -71 24 -71 71c0 5 0 10 9 97zM328 485l-109 -161h93z" />
    <glyph glyph-name="five" unicode="5" horiz-adv-x="554" 
d="M263 748h210c45 0 70 -32 70 -72c0 -54 -35 -89 -87 -89h-166c-5 -23 -9 -36 -20 -77c163 0 235 -105 235 -222c0 -165 -135 -299 -295 -299c-124 0 -212 84 -212 150c5 57 44 84 81 84c22 0 46 -12 59 -34c18 -26 58 -44 93 -44c60 0 104 52 110 105
c0 58 -27 106 -90 106c-33 0 -61 -15 -91 -15c-41 0 -73 15 -73 64c0 31 3 16 75 270c13 45 50 73 101 73z" />
    <glyph glyph-name="six" unicode="6" horiz-adv-x="556" 
d="M422 616c-50 -41 -114 -86 -150 -152c30 15 57 15 83 15c117 0 169 -91 169 -191c0 -159 -128 -299 -279 -299c-148 0 -218 113 -218 244c0 202 148 372 289 493c19 14 41 24 62 24c42 0 74 -25 74 -70v-10c-2 -20 -11 -37 -30 -54zM185 242c0 -50 26 -96 77 -98
c59 5 98 58 104 113c0 55 -23 102 -84 102c-65 0 -97 -64 -97 -117z" />
    <glyph glyph-name="seven" unicode="7" horiz-adv-x="515" 
d="M146 749h315c41 0 77 -29 77 -75c0 -19 -7 -36 -14 -52l-295 -559c-22 -42 -53 -63 -90 -63c-50 0 -68 33 -68 68c0 19 6 37 14 52l249 467h-205c-53 0 -78 23 -78 67c0 64 40 95 95 95z" />
    <glyph glyph-name="eight" unicode="8" horiz-adv-x="560" 
d="M146 412c-39 25 -62 76 -62 129c0 130 125 227 242 227c114 0 193 -75 193 -184c0 -72 -40 -133 -93 -166c48 -24 87 -97 87 -165c0 -144 -135 -264 -268 -264c-135 0 -221 90 -221 217c0 86 50 167 122 206zM281 330c-57 0 -91 -56 -91 -104c0 -44 27 -77 72 -77
c53 0 88 54 88 100s-28 81 -69 81zM294 485c32 0 57 34 61 69c0 41 -22 58 -46 58c-40 0 -65 -34 -65 -69c0 -32 17 -58 50 -58z" />
    <glyph glyph-name="nine" unicode="9" horiz-adv-x="561" 
d="M152 125c61 46 124 100 170 159c-35 -12 -66 -17 -95 -17c-128 0 -191 107 -191 211c0 164 132 293 285 293c142 0 221 -105 221 -247c0 -218 -150 -402 -305 -521c-22 -16 -39 -19 -57 -19c-40 0 -69 29 -69 66c4 42 21 60 41 75zM300 613c-69 0 -105 -73 -105 -129
c0 -61 37 -94 82 -94c71 0 110 64 110 125c0 49 -26 98 -87 98z" />
    <glyph glyph-name="colon" unicode=":" horiz-adv-x="275" 
d="M22 80c5 59 49 98 98 98c48 0 81 -35 81 -80c-5 -59 -48 -98 -99 -98c-46 0 -80 35 -80 80zM54 389c0 50 43 100 99 100c47 0 81 -33 81 -78c0 -51 -44 -99 -100 -99c-45 0 -80 33 -80 77z" />
    <glyph glyph-name="semicolon" unicode=";" horiz-adv-x="284" 
d="M65 389c0 51 43 100 99 100c46 0 80 -33 80 -78c0 -51 -43 -99 -99 -99c-46 0 -80 33 -80 77zM117 -74l83 155c3 9 8 21 9 36c0 36 -29 68 -69 68c-36 0 -64 -19 -84 -56l-75 -145c0 -1 -1 -2 -1 -3c-4 -9 -7 -17 -8 -32c0 -39 32 -71 70 -71c32 0 56 16 75 48z" />
    <glyph glyph-name="less" unicode="&#x3c;" horiz-adv-x="653" 
d="M563 423l-319 -127l286 -136c33 -15 51 -37 51 -68c0 -48 -37 -91 -85 -91c-18 0 -36 5 -54 14l-374 197c-30 16 -48 42 -48 74c4 44 27 70 65 87l427 189c1 0 2 1 3 1c14 5 31 10 46 10c39 0 64 -28 64 -65c-4 -44 -23 -67 -62 -85z" />
    <glyph glyph-name="equal" unicode="=" horiz-adv-x="684" 
d="M146 470h419c47 0 69 -22 69 -64c0 -54 -32 -90 -85 -90h-419c-46 0 -70 21 -70 63c0 57 35 91 86 91zM524 81h-419c-46 0 -70 22 -70 64c0 54 33 91 86 91h419c47 0 69 -22 69 -63c0 -55 -30 -92 -85 -92z" />
    <glyph glyph-name="greater" unicode="&#x3e;" horiz-adv-x="652" 
d="M404 290l-299 133c-31 16 -47 36 -47 66c0 46 36 84 81 84c15 0 33 -6 48 -11l385 -189c32 -16 49 -38 49 -69c0 -41 -30 -75 -65 -92l-417 -197c-20 -9 -38 -14 -55 -14c-44 0 -67 28 -67 65c4 45 30 69 68 87c117 54 196 80 319 137z" />
    <glyph glyph-name="question" unicode="?" horiz-adv-x="461" 
d="M89 80c5 59 48 98 98 98c46 0 79 -35 79 -80c-5 -59 -48 -98 -97 -98c-47 0 -80 35 -80 80zM296 546v6c0 30 -20 42 -42 42s-44 -18 -47 -41c-11 -50 -47 -77 -86 -77c-35 0 -69 24 -69 73c0 111 108 201 222 201c98 0 181 -61 181 -177c0 -123 -108 -225 -204 -316
c-17 -13 -41 -24 -59 -24c-43 0 -69 27 -69 67c0 28 17 52 39 75c77 70 129 122 134 171z" />
    <glyph glyph-name="A" unicode="A" horiz-adv-x="645" 
d="M338 501l-93 -198h142c-18 79 -24 92 -49 198zM456 51l-26 90h-255c-12 -26 -23 -51 -35 -75c-19 -44 -50 -66 -91 -66c-49 0 -69 31 -69 67c0 18 5 32 10 45l273 594c22 47 58 71 104 71s78 -24 90 -71c146 -563 157 -614 157 -626c-5 -47 -36 -80 -86 -80
c-38 0 -63 18 -72 51z" />
    <glyph glyph-name="B" unicode="B" horiz-adv-x="647" 
d="M97 687c6 60 38 90 93 90h182c91 0 223 -51 223 -186c0 -62 -53 -150 -110 -158c77 -11 129 -102 129 -179c0 -145 -137 -254 -268 -254h-221c-30 0 -52 4 -66 15c-16 12 -26 34 -26 62c0 5 0 9 64 610zM222 345l-20 -185h151c62 0 99 42 103 85c0 55 -34 100 -115 100
h-119zM235 470h117c53 0 82 34 86 70c0 43 -25 77 -79 77h-109z" />
    <glyph glyph-name="C" unicode="C" horiz-adv-x="669" 
d="M499 204c20 18 36 24 57 24c52 0 73 -32 73 -70c0 -32 -15 -61 -38 -80c-71 -58 -151 -89 -238 -89c-220 0 -322 167 -322 349c0 240 167 464 413 464c85 0 159 -27 219 -87c16 -17 24 -37 24 -60c-6 -59 -44 -91 -88 -91c-20 0 -46 9 -59 24c-27 31 -71 47 -117 47
c-148 0 -222 -152 -222 -272c0 -108 56 -202 173 -202c46 0 90 11 125 43z" />
    <glyph glyph-name="D" unicode="D" horiz-adv-x="695" 
d="M98 687c6 60 41 90 109 90h183c193 0 284 -164 284 -339c0 -222 -161 -437 -384 -438h-179c-56 0 -78 9 -78 60c0 7 0 15 65 627zM363 617h-112l-48 -457h99c138 9 206 145 206 262c0 104 -46 195 -145 195z" />
    <glyph glyph-name="E" unicode="E" horiz-adv-x="542" 
d="M98 690c6 58 38 87 93 87h282c49 0 73 -20 73 -64c0 -61 -36 -96 -90 -96h-206l-14 -135h161c49 0 73 -22 73 -67c0 -57 -36 -93 -90 -93h-161l-17 -162h213c53 0 79 -22 79 -66c0 -62 -41 -94 -95 -94h-289c-60 0 -77 12 -77 54c0 10 1 21 65 636z" />
    <glyph glyph-name="F" unicode="F" horiz-adv-x="520" 
d="M98 687c6 60 38 90 93 90h273c50 0 74 -20 74 -64c0 -61 -37 -96 -91 -96h-196l-16 -152h138c48 0 72 -22 72 -65c0 -60 -35 -96 -89 -96h-138l-24 -231c-5 -48 -34 -73 -88 -73c-48 0 -74 21 -74 62c0 4 1 7 66 625z" />
    <glyph glyph-name="G" unicode="G" horiz-adv-x="719" 
d="M361 153c91 0 151 55 171 150h-145c-53 0 -79 23 -79 66c0 63 44 95 99 95h201c77 0 94 -41 94 -92c0 -213 -146 -383 -362 -383c-213 0 -309 160 -309 338c0 241 156 479 408 479c113 0 243 -63 243 -151c0 -46 -33 -89 -80 -89c-20 0 -41 8 -58 26
c-40 40 -86 48 -125 48c-152 0 -219 -172 -219 -292c0 -103 51 -195 161 -195z" />
    <glyph glyph-name="H" unicode="H" horiz-adv-x="733" 
d="M99 698c6 55 34 81 86 81c50 0 74 -21 74 -65c0 -5 0 -11 -25 -239h290l24 223c6 55 34 81 88 81c48 0 74 -21 74 -66c0 -5 0 -10 -66 -633c-6 -53 -36 -80 -89 -80c-49 0 -73 22 -73 65c0 5 0 10 26 249h-290l-25 -234c-6 -53 -35 -80 -88 -80c-48 0 -72 21 -72 64
c0 5 0 11 66 634z" />
    <glyph glyph-name="I" unicode="I" horiz-adv-x="284" 
d="M99 698c6 55 35 81 88 81c49 0 74 -21 74 -66c0 -5 0 -10 -66 -632c-6 -55 -35 -81 -89 -81c-48 0 -73 21 -73 66c0 5 0 10 66 632z" />
    <glyph glyph-name="J" unicode="J" horiz-adv-x="455" 
d="M379 184c-13 -121 -104 -196 -222 -196c-61 0 -111 19 -150 58c-14 13 -22 31 -22 50c0 54 33 92 87 92c16 0 37 -11 62 -29c12 -9 25 -14 41 -14c24 0 39 15 42 39l54 514c6 55 33 81 88 81c49 0 75 -21 75 -66c0 -5 0 -10 -55 -529z" />
    <glyph glyph-name="K" unicode="K" horiz-adv-x="640" 
d="M100 705c5 50 34 74 86 74c49 0 75 -20 75 -62c0 -4 -1 -8 -24 -230l271 267c16 18 38 23 57 23c40 0 75 -36 75 -75c-2 -30 -10 -49 -28 -64c-72 -71 -120 -115 -193 -188l160 -317c14 -17 15 -33 15 -53c-6 -53 -68 -81 -90 -81c-34 0 -48 15 -66 37l-149 293l-77 -74
l-19 -179c-5 -50 -33 -76 -86 -76c-49 0 -75 22 -75 64c0 4 1 8 68 641z" />
    <glyph glyph-name="L" unicode="L" horiz-adv-x="557" 
d="M98 698c6 55 35 81 87 81c50 0 74 -21 74 -65c0 -5 0 -11 -58 -554h251c50 0 74 -23 74 -66c0 -58 -34 -94 -90 -94h-319c-56 0 -83 27 -83 80c0 6 0 12 64 618z" />
    <glyph glyph-name="M" unicode="M" horiz-adv-x="881" 
d="M371 686l70 -358l148 359c25 61 68 92 120 92c56 0 89 -37 92 -107l25 -584c-2 -55 -42 -87 -87 -87c-52 0 -74 25 -76 77l-13 379c-64 -122 -104 -264 -156 -385c-20 -48 -54 -72 -89 -72c-39 0 -68 23 -76 72l-65 387l-104 -380c-13 -49 -38 -78 -90 -78
c-44 0 -71 20 -71 64c0 15 2 26 4 36l152 572c19 71 59 108 116 108c51 0 88 -34 100 -95z" />
    <glyph glyph-name="N" unicode="N" horiz-adv-x="724" 
d="M98 692c6 58 36 87 88 87c35 0 63 -18 83 -53l232 -409l40 380c6 54 35 81 87 81c50 0 74 -22 74 -67c0 -4 -1 -9 -65 -624c-6 -58 -36 -87 -89 -87c-33 0 -62 16 -80 47l-235 408l-39 -373c-6 -55 -35 -82 -88 -82c-49 0 -73 22 -73 66c0 5 0 10 65 626z" />
    <glyph glyph-name="O" unicode="O" horiz-adv-x="743" 
d="M418 800c209 0 305 -169 305 -351c0 -228 -153 -458 -390 -458c-205 0 -301 167 -301 350c0 225 149 459 386 459zM401 638c-145 0 -204 -168 -204 -280c0 -110 48 -208 154 -208c146 0 207 169 207 282c0 109 -48 206 -157 206z" />
    <glyph glyph-name="P" unicode="P" horiz-adv-x="636" 
d="M98 695c6 57 37 83 92 83h209c142 0 238 -89 238 -224c0 -160 -132 -284 -285 -285h-139l-20 -188c-6 -55 -35 -81 -88 -81c-49 0 -73 21 -73 65c0 5 0 10 66 630zM369 618h-120l-19 -189h135c65 4 108 47 108 108c0 51 -37 81 -104 81z" />
    <glyph glyph-name="Q" unicode="Q" horiz-adv-x="742" 
d="M418 800c208 0 304 -169 304 -351c0 -99 -28 -195 -75 -274l37 -39c12 -14 18 -30 18 -56c-4 -41 -36 -79 -87 -79c-14 0 -35 4 -51 22l-29 35c-56 -40 -122 -67 -202 -67c-206 0 -302 168 -302 351c0 225 151 458 387 458zM402 638c-144 0 -205 -167 -205 -279
c0 -110 49 -209 154 -209c32 0 61 7 85 20l-57 63c-13 14 -20 32 -20 53c6 57 43 89 81 89c15 0 29 -5 42 -16c19 -17 50 -60 57 -66c14 45 19 94 19 139c0 109 -48 206 -156 206z" />
    <glyph glyph-name="R" unicode="R" horiz-adv-x="651" 
d="M98 695c6 57 42 83 107 83h199c154 0 238 -103 238 -210c0 -94 -64 -166 -139 -202l73 -238c4 -14 8 -29 8 -43c0 -50 -36 -86 -85 -86c-28 0 -54 9 -68 44l-96 286h-116l-25 -241c-6 -59 -35 -88 -88 -88c-49 0 -73 23 -73 71c0 5 0 11 65 624zM394 618h-145l-13 -130
h145c46 0 96 25 101 68c0 46 -47 62 -88 62z" />
    <glyph glyph-name="S" unicode="S" horiz-adv-x="553" 
d="M375 605c-22 18 -46 29 -75 29c-41 0 -68 -13 -73 -57c0 -51 56 -65 113 -94c107 -55 183 -106 183 -212c0 -171 -148 -283 -301 -283c-68 0 -128 19 -179 55c-26 18 -38 41 -38 69c6 63 34 87 86 87c20 0 40 -6 58 -17c25 -17 59 -28 91 -28c55 0 106 29 112 86
c0 36 -25 59 -97 94c-91 44 -197 98 -197 217c0 141 114 249 261 249c63 0 121 -20 167 -58c24 -19 38 -42 38 -68c0 -48 -42 -94 -89 -94c-25 0 -43 10 -60 25z" />
    <glyph glyph-name="T" unicode="T" horiz-adv-x="541" 
d="M219 618h-91c-50 0 -75 22 -75 65c0 60 38 95 92 95h343c48 0 74 -21 74 -66c0 -60 -39 -94 -91 -94h-92l-56 -533c-6 -57 -34 -85 -86 -85c-50 0 -75 23 -75 69c0 5 0 10 57 549z" />
    <glyph glyph-name="U" unicode="U" horiz-adv-x="729" 
d="M93 692c6 59 37 86 93 86c50 0 75 -22 75 -69c0 -5 0 -11 -40 -392c-1 -13 -2 -22 -2 -30c0 -100 61 -130 132 -130c77 0 139 34 152 160l39 375c6 59 37 86 93 86c51 0 76 -22 76 -70c0 -5 0 -10 -41 -398c-25 -239 -179 -321 -346 -321c-155 0 -274 70 -274 264
c0 18 1 37 43 439z" />
    <glyph glyph-name="V" unicode="V" horiz-adv-x="628" 
d="M206 721l102 -441c65 141 128 301 191 440c18 39 43 59 82 59s79 -37 79 -78c-2 -16 -6 -27 -11 -35l-265 -578c-27 -59 -62 -88 -106 -88c-41 0 -69 27 -82 80l-150 588c-1 8 -2 16 -2 32c6 53 35 80 88 80c40 0 65 -20 74 -59z" />
    <glyph glyph-name="W" unicode="W" horiz-adv-x="879" 
d="M222 706l30 -387c47 120 86 270 132 391c18 45 52 69 101 69s78 -24 85 -69l58 -385l98 380c13 49 42 76 91 76c42 0 74 -30 74 -74c0 -18 -1 -21 -4 -27c-56 -199 -115 -397 -172 -596c-14 -50 -61 -84 -111 -84c-42 0 -83 22 -92 77l-64 373l-128 -359
c-23 -64 -74 -93 -115 -93c-48 0 -89 37 -94 91l-53 609c5 51 47 81 89 81c45 0 71 -27 75 -73z" />
    <glyph glyph-name="X" unicode="X" horiz-adv-x="640" 
d="M12 129l220 293l-139 228c-8 13 -12 26 -12 40c0 3 1 7 1 10c5 46 45 78 87 78c27 0 50 -11 65 -35l109 -178c44 60 88 116 131 174c19 26 42 39 72 39c38 0 71 -30 71 -71c-2 -26 -9 -42 -20 -56l-171 -218l166 -303c9 -17 14 -33 14 -50v-9c-5 -49 -32 -72 -80 -72
c-30 0 -51 13 -69 40l-143 246l-181 -244c-21 -29 -48 -42 -80 -42c-43 0 -65 20 -65 60c0 4 1 9 1 13c2 20 10 39 23 57z" />
    <glyph glyph-name="Y" unicode="Y" horiz-adv-x="552" 
d="M191 317c-45 99 -90 238 -134 336c-6 12 -10 24 -10 38c0 52 36 88 86 88c31 0 54 -14 64 -43l94 -273c45 64 102 210 147 273c20 28 45 43 77 43c47 0 70 -21 70 -61c0 -24 -7 -43 -17 -59l-215 -344l-24 -229c-6 -59 -35 -86 -90 -86c-48 0 -73 22 -73 68
c0 6 0 12 25 249z" />
    <glyph glyph-name="Z" unicode="Z" horiz-adv-x="611" 
d="M17 146l362 472h-236c-49 0 -73 22 -73 64c0 5 0 10 1 15c6 55 35 81 89 81h372c61 0 86 -28 86 -65c0 -4 -1 -7 -1 -11c-2 -24 -16 -49 -33 -71l-363 -471h269c49 0 75 -23 75 -66c0 -4 -1 -8 -1 -12c-6 -55 -36 -82 -90 -82h-411c-46 0 -71 23 -71 69c0 5 0 10 1 16
c3 23 11 44 24 61z" />
    <glyph glyph-name="bracketleft" unicode="[" horiz-adv-x="306" 
d="M88 675c7 60 37 88 91 88h65c44 0 67 -21 67 -63c0 -48 -28 -83 -75 -84l-55 -526c40 -2 60 -22 60 -59c0 -52 -33 -87 -83 -87h-65c-49 0 -73 24 -73 72c0 5 0 11 68 659z" />
    <glyph glyph-name="backslash" unicode="\" horiz-adv-x="451" 
d="M217 699c179 -615 180 -623 180 -629v-4c-4 -40 -38 -72 -81 -72c-32 0 -61 14 -73 57l-177 608c-2 8 -3 14 -3 30c5 48 44 73 86 73c46 0 56 -23 68 -63z" />
    <glyph glyph-name="bracketright" unicode="]" horiz-adv-x="306" 
d="M71 90l55 519c-39 1 -59 21 -59 59c0 55 32 88 82 88h66c49 0 73 -22 73 -70c0 -5 0 -11 -68 -653c-6 -59 -36 -89 -90 -89h-66c-44 0 -66 21 -66 62c0 50 27 84 73 84z" />
    <glyph glyph-name="asciicircum" unicode="^" horiz-adv-x="626" 
d="M432 710l154 -351c5 -13 8 -24 8 -37c0 -51 -37 -85 -86 -85c-38 0 -57 19 -74 59l-99 231l-152 -232c-26 -40 -42 -58 -86 -58c-38 0 -71 22 -71 66c2 25 7 41 19 57l235 352c20 29 47 44 81 44c32 0 57 -15 71 -46z" />
    <glyph glyph-name="underscore" unicode="_" horiz-adv-x="601" 
d="M469 -153h-444c-48 0 -70 20 -70 60c0 54 34 87 86 87h444c48 0 72 -21 72 -62c0 -55 -36 -85 -88 -85z" />
    <glyph glyph-name="grave" unicode="`" horiz-adv-x="255" 
d="M168 653l-129 80c-11 7 -22 16 -29 28s-10 23 -10 34c0 24 15 46 41 61c14 8 28 12 42 12c18 0 37 -6 52 -16l134 -83c12 -7 24 -19 32 -32c6 -10 9 -20 9 -31c0 -24 -15 -48 -43 -64c-13 -8 -26 -10 -38 -10c-23 0 -43 10 -61 21z" />
    <glyph glyph-name="a" unicode="a" horiz-adv-x="628" 
d="M481 589c46 0 70 -24 70 -67c0 -4 -1 -8 -39 -365c0 -10 6 -15 16 -15c50 0 77 -22 77 -64c0 -55 -41 -86 -92 -86c-92 0 -135 33 -150 91c-46 -58 -109 -94 -163 -94c-97 0 -182 100 -182 253c0 146 80 348 247 348c48 0 103 -24 129 -76c7 49 38 75 87 75zM255 138
c84 0 120 116 120 180c0 80 -40 127 -85 127c-82 0 -115 -126 -115 -187c0 -65 25 -120 80 -120z" />
    <glyph glyph-name="b" unicode="b" horiz-adv-x="584" 
d="M92 739c6 52 32 79 84 79c48 0 71 -22 71 -64c0 -5 0 -10 -25 -246c49 60 100 81 158 81c90 0 176 -84 176 -245c0 -145 -105 -354 -264 -354c-52 0 -109 31 -129 94l-3 -32c-5 -44 -50 -61 -71 -61c-45 0 -68 21 -68 64c0 5 0 10 71 684zM290 141c82 0 107 120 107 180
c0 61 -19 125 -75 125c-89 0 -121 -115 -121 -180s26 -125 89 -125z" />
    <glyph glyph-name="c" unicode="c" horiz-adv-x="504" 
d="M313 435c-89 0 -140 -90 -140 -165c0 -72 48 -127 112 -127c24 0 52 6 77 22c12 8 27 11 37 11c32 0 64 -28 64 -65c-3 -38 -22 -59 -49 -76c-49 -32 -100 -44 -146 -44c-147 0 -252 112 -252 265c0 175 138 331 312 331c38 0 82 -4 122 -23c29 -14 49 -39 49 -67
c-5 -51 -37 -79 -81 -79c-30 0 -67 17 -105 17z" />
    <glyph glyph-name="d" unicode="d" horiz-adv-x="630" 
d="M394 514l23 225c6 52 37 80 88 80c46 0 69 -23 69 -65c0 -5 0 -10 -62 -595c0 -11 5 -17 16 -17c50 0 77 -22 77 -64c0 -55 -41 -86 -92 -86c-92 0 -135 33 -150 91c-46 -60 -111 -94 -164 -94c-97 0 -182 100 -182 253c0 146 90 348 247 348c48 0 104 -24 130 -76z
M254 138c84 0 120 116 120 180c0 80 -40 127 -85 127c-82 0 -115 -126 -115 -187c0 -65 25 -120 80 -120z" />
    <glyph glyph-name="e" unicode="e" horiz-adv-x="559" 
d="M311 600c146 0 223 -93 223 -226c0 -13 0 -27 -2 -41c-8 -77 -55 -77 -132 -77h-229c0 -4 -1 -9 -1 -13c0 -80 80 -108 121 -108c77 0 115 62 168 62c42 0 50 -34 50 -66c-2 -18 -7 -32 -22 -46c-56 -62 -134 -96 -226 -96c-161 0 -244 117 -244 263
c0 169 117 348 294 348zM190 360h185c1 5 1 10 1 14c0 55 -38 81 -79 81c-46 0 -100 -33 -107 -95z" />
    <glyph glyph-name="f" unicode="f" horiz-adv-x="350" 
d="M258 435l-50 -475c-17 -110 -120 -170 -210 -170c-50 0 -76 23 -76 65c0 41 31 75 71 75c33 0 63 30 66 62l46 444c-47 1 -73 14 -73 55c0 56 38 81 89 81l7 68c11 111 121 170 211 170c51 0 77 -23 77 -65s-31 -75 -72 -75c-33 0 -60 -30 -63 -62l-3 -36c3 0 3 1 7 1
c50 0 76 -14 76 -56c0 -58 -39 -82 -91 -82h-12z" />
    <glyph glyph-name="g" unicode="g" horiz-adv-x="582" 
d="M394 514l-1 -5c5 52 36 80 87 80c46 0 70 -24 70 -67c0 -4 -1 -8 -46 -445c-22 -209 -157 -322 -301 -322c-55 0 -112 17 -164 52c-22 15 -31 38 -31 62c5 48 37 87 86 87c24 0 38 -11 53 -19c26 -15 55 -22 83 -22c89 0 117 70 128 176c-47 -71 -104 -92 -158 -92
c-97 0 -183 93 -183 244c0 145 91 347 247 347c48 0 104 -24 130 -76zM254 138c84 0 120 116 120 180c0 80 -40 127 -85 127c-82 0 -115 -126 -115 -187c0 -65 25 -120 80 -120z" />
    <glyph glyph-name="h" unicode="h" horiz-adv-x="558" 
d="M91 729c6 52 34 80 84 80c47 0 70 -22 70 -64c0 -5 0 -10 -24 -235c39 40 87 72 147 72c71 0 150 -44 150 -166c0 -10 -1 -21 -34 -339c-5 -51 -34 -77 -86 -77c-45 0 -70 21 -70 63c0 5 0 9 1 14c29 284 30 288 30 292c0 51 -33 76 -66 76c-40 0 -82 -30 -88 -89
l-29 -279c-5 -51 -33 -77 -86 -77c-45 0 -68 21 -68 62c0 5 0 10 69 667z" />
    <glyph glyph-name="i" unicode="i" horiz-adv-x="300" 
d="M63 497c5 52 35 77 85 77c47 0 72 -20 72 -64c0 -4 -1 -8 -35 -337v-7c0 -11 2 -24 16 -24c50 0 77 -22 77 -64c0 -55 -41 -86 -92 -86c-111 0 -161 51 -161 133c0 8 0 15 38 372zM72 714c6 59 50 98 99 98c47 0 81 -33 81 -78c0 -51 -44 -100 -100 -100
c-46 0 -80 35 -80 80z" />
    <glyph glyph-name="j" unicode="j" horiz-adv-x="258" 
d="M83 714c6 59 49 98 99 98c52 0 80 -40 80 -89c-5 -50 -49 -89 -99 -89c-47 0 -80 35 -80 80zM167 -40c59 548 59 553 59 558c0 41 -23 62 -70 62c-52 0 -78 -26 -89 -77l-53 -511c-3 -32 -29 -62 -62 -62c-41 0 -72 -33 -72 -75s26 -65 77 -65c89 0 193 60 210 170z" />
    <glyph glyph-name="k" unicode="k" horiz-adv-x="558" 
d="M90 730c6 52 32 78 84 78c47 0 70 -21 70 -63c0 -5 0 -20 -35 -348l211 162c18 13 35 19 54 19c39 0 71 -34 71 -73c-3 -33 -13 -47 -38 -64l-113 -89c39 -89 108 -222 108 -286c-5 -46 -37 -69 -72 -69c-27 0 -55 14 -71 41l-93 230c-6 -4 -72 -57 -78 -63l-13 -128
c-5 -51 -32 -77 -85 -77c-46 0 -69 21 -69 62c0 5 0 10 69 668z" />
    <glyph glyph-name="l" unicode="l" horiz-adv-x="302" 
d="M186 170c0 -18 3 -28 16 -28c50 0 77 -22 77 -64c0 -55 -41 -86 -92 -86c-116 0 -159 52 -159 141c0 95 31 250 61 598c5 51 35 79 86 79c46 0 70 -22 70 -64c0 -5 0 -10 -59 -576z" />
    <glyph glyph-name="m" unicode="m" horiz-adv-x="863" 
d="M65 499c4 42 33 80 83 80s71 -33 71 -63v-6c39 40 87 72 147 72c52 0 119 -24 140 -85c37 52 104 83 167 83c78 0 150 -48 150 -164c0 -10 -1 -21 -34 -339c-5 -51 -34 -77 -86 -77c-45 0 -70 21 -70 63c0 5 0 9 1 14c29 284 30 288 30 292c0 51 -33 76 -66 76
c-36 0 -74 -24 -85 -72l-31 -296c-5 -51 -34 -77 -86 -77c-45 0 -70 21 -70 63c0 5 0 9 1 14c29 284 30 288 30 292c0 51 -33 76 -66 76c-40 0 -82 -30 -88 -89l-29 -279c-5 -51 -33 -77 -86 -77c-45 0 -68 21 -68 62c0 5 0 10 45 437z" />
    <glyph glyph-name="n" unicode="n" horiz-adv-x="556" 
d="M65 499c4 42 33 80 83 80s71 -33 71 -63v-6c39 40 87 72 147 72c71 0 150 -44 150 -166c0 -10 -1 -21 -34 -339c-5 -51 -34 -77 -86 -77c-45 0 -70 21 -70 63c0 5 0 9 1 14c29 284 30 288 30 292c0 51 -33 76 -66 76c-40 0 -82 -30 -88 -89l-29 -279
c-5 -51 -33 -77 -86 -77c-45 0 -68 21 -68 62c0 5 0 10 45 437z" />
    <glyph glyph-name="o" unicode="o" horiz-adv-x="568" 
d="M310 598c155 0 230 -129 230 -268c0 -175 -108 -339 -293 -339c-155 0 -230 122 -230 261c0 176 117 346 293 346zM295 456c-86 0 -119 -120 -119 -183c0 -66 23 -142 85 -142c87 0 120 113 120 178c0 67 -23 147 -86 147z" />
    <glyph glyph-name="p" unicode="p" horiz-adv-x="583" 
d="M68 509c5 52 32 79 84 79c48 0 71 -22 71 -65c0 -4 -1 -9 -1 -14c49 59 100 80 158 80c90 0 176 -84 176 -245c0 -145 -105 -354 -264 -354c-52 0 -109 30 -130 83l-23 -216c-5 -44 -50 -61 -71 -61c-45 0 -68 22 -68 66c0 4 1 9 68 647zM290 141c82 0 107 120 107 180
c0 61 -19 125 -75 125c-89 0 -121 -115 -121 -180s26 -125 89 -125z" />
    <glyph glyph-name="q" unicode="q" horiz-adv-x="582" 
d="M394 514l-1 -5c5 52 36 80 87 80c46 0 70 -24 70 -67c0 -4 -1 -8 -68 -651c-5 -48 -34 -74 -85 -74c-25 0 -63 7 -63 58c0 4 0 8 22 216c-46 -61 -103 -82 -157 -82c-97 0 -182 100 -182 253c0 146 90 348 247 348c48 0 104 -24 130 -76zM254 138c84 0 120 116 120 180
c0 80 -40 127 -85 127c-82 0 -115 -126 -115 -187c0 -65 25 -120 80 -120z" />
    <glyph glyph-name="r" unicode="r" horiz-adv-x="420" 
d="M65 500c6 54 34 80 85 80c30 0 58 -17 58 -61v-5c20 33 89 74 131 74c74 0 102 -37 102 -75c0 -48 -42 -88 -88 -88c-23 0 -41 6 -59 6c-38 0 -85 -31 -90 -75l-29 -279c-5 -51 -32 -77 -85 -77c-46 0 -70 21 -70 62c0 5 0 10 45 438z" />
    <glyph glyph-name="s" unicode="s" horiz-adv-x="491" 
d="M238 124c28 0 50 10 53 36c-15 60 -253 101 -253 249c13 123 122 188 240 188c52 0 107 -10 156 -37c24 -14 34 -36 34 -58c-4 -39 -31 -70 -76 -70c-52 0 -88 30 -148 30c-26 0 -47 -9 -50 -36c0 -68 260 -98 260 -248c0 -134 -136 -187 -247 -187
c-76 0 -133 24 -185 59c-18 12 -25 34 -25 55c5 53 43 74 79 74c60 0 84 -55 162 -55z" />
    <glyph glyph-name="t" unicode="t" horiz-adv-x="364" 
d="M102 571l4 39c5 50 34 76 85 76c47 0 71 -21 71 -63c0 -4 -1 -9 -5 -52h43c49 0 74 -11 74 -53c0 -56 -36 -76 -86 -76h-45c-26 -252 -27 -264 -27 -273c0 -18 3 -27 16 -27c50 0 77 -22 77 -64c0 -55 -41 -86 -92 -86c-121 0 -157 57 -157 154c0 18 1 38 28 298
c-36 4 -64 16 -64 53c0 48 36 69 78 74z" />
    <glyph glyph-name="u" unicode="u" horiz-adv-x="563" 
d="M191 253c-1 -11 -2 -21 -2 -29c0 -67 29 -81 59 -81c47 0 100 52 110 148l23 222c5 50 27 79 83 79c46 0 69 -21 69 -63c0 -5 0 -10 -48 -468c-5 -48 -33 -74 -85 -74c-25 0 -52 16 -52 55v8l3 30c-48 -56 -108 -86 -163 -86c-84 0 -156 71 -156 198c0 12 1 26 31 318
c6 53 33 77 84 77c47 0 70 -19 70 -61c0 -5 0 -10 -26 -273z" />
    <glyph glyph-name="v" unicode="v" horiz-adv-x="479" 
d="M188 513l43 -270l98 273c22 46 51 68 89 68c41 0 68 -22 68 -65c0 -15 -3 -31 -10 -42l-189 -421c-17 -37 -45 -56 -86 -56c-39 0 -63 19 -72 56l-97 423c-1 7 -2 15 -2 22c5 54 42 83 85 83s66 -26 73 -71z" />
    <glyph glyph-name="w" unicode="w" horiz-adv-x="792" 
d="M189 525l46 -293l100 289c14 41 54 61 89 61c32 0 75 -22 81 -64l41 -281l97 288c14 41 46 59 86 59c50 0 67 -20 67 -61c0 -23 -5 -39 -12 -54c-5 -11 -34 -83 -177 -405c-19 -43 -52 -63 -87 -63c-38 0 -63 22 -73 66c-26 111 -21 134 -48 249l-103 -251
c-18 -42 -50 -65 -91 -65c-42 0 -70 24 -80 67c-83 356 -96 419 -96 434c0 52 39 82 86 82c40 0 62 -19 74 -58z" />
    <glyph glyph-name="x" unicode="x" horiz-adv-x="529" 
d="M21 139l154 161l-102 153c-8 12 -13 28 -13 43c0 47 42 86 87 86c31 0 53 -13 68 -39l58 -123l87 125c18 26 45 38 74 38c41 0 71 -29 71 -69c-2 -26 -10 -44 -26 -61l-134 -148l120 -162c13 -17 18 -37 18 -56c0 -53 -32 -87 -80 -87c-32 0 -61 15 -77 46l-83 137
c-37 -45 -74 -93 -111 -139c-23 -28 -50 -42 -79 -42c-42 0 -64 19 -64 58c0 31 14 57 32 79z" />
    <glyph glyph-name="y" unicode="y" horiz-adv-x="495" 
d="M130 42c-32 140 -61 288 -92 427c-3 9 -4 17 -4 24c0 55 34 89 84 89c40 0 66 -23 74 -62l41 -311c35 78 79 237 114 316c17 39 46 58 86 58c50 0 69 -30 69 -66c0 -15 -3 -31 -9 -47l-245 -525c-48 -101 -121 -155 -206 -155c-50 0 -76 23 -76 65c0 4 1 7 1 11
c6 49 46 64 70 64c52 0 83 65 93 112z" />
    <glyph glyph-name="z" unicode="z" horiz-adv-x="496" 
d="M133 582h272c51 0 77 -20 77 -61c0 -31 -13 -51 -34 -73l-240 -304h173c47 0 71 -21 71 -63c0 -55 -34 -81 -87 -81h-286c-59 0 -89 21 -89 64c0 32 13 49 32 69l232 303h-138c-47 0 -70 21 -70 63c0 59 34 83 87 83z" />
    <glyph glyph-name="braceleft" unicode="{" horiz-adv-x="367" 
d="M16 357c5 48 41 61 76 72c41 0 34 150 41 171c12 131 84 156 178 156c38 0 66 -33 66 -65c-4 -52 -34 -75 -90 -75c-4 0 -6 -10 -7 -23c-10 -85 -7 -168 -68 -234c25 -29 31 -67 31 -108c0 -50 -13 -96 -13 -142c0 -11 3 -19 12 -19c44 -3 67 -19 67 -56
c0 -4 -1 -8 -1 -12c-5 -46 -33 -70 -82 -70c-124 0 -153 55 -153 117c0 59 18 113 18 169c0 25 -3 41 -9 47c-53 11 -66 24 -66 72z" />
    <glyph glyph-name="bar" unicode="|" horiz-adv-x="261" 
d="M95 733c6 57 33 83 86 83c45 0 69 -21 69 -67c0 -5 0 -10 -72 -688c-6 -53 -33 -77 -85 -77c-46 0 -70 20 -70 62c0 5 0 10 72 687z" />
    <glyph glyph-name="braceright" unicode="}" horiz-adv-x="368" 
d="M271 285c-32 -36 -25 -143 -30 -188c-8 -73 -39 -145 -184 -145c-50 0 -65 29 -65 70c5 45 32 65 79 68c12 0 17 14 19 30c10 86 5 174 68 239c-23 30 -32 68 -32 118c0 14 0 30 2 46c3 28 14 54 14 81c0 7 -2 12 -5 12c-52 0 -76 20 -76 69c4 34 42 71 81 71
c86 0 151 -21 151 -126c0 -52 -16 -100 -16 -149c0 -29 5 -47 16 -52l5 -2c29 -9 57 -21 57 -60c0 -53 -38 -74 -84 -82z" />
    <glyph glyph-name="asciitilde" unicode="~" horiz-adv-x="611" 
d="M99 166c-44 0 -67 23 -67 67c0 76 114 162 183 162c49 0 93 -23 127 -43c20 -12 42 -24 54 -24c1 0 7 8 14 15c20 24 43 51 87 51c46 0 68 -24 68 -67c0 -79 -125 -161 -192 -161c-48 0 -81 20 -113 40c-23 12 -43 26 -60 26c-4 0 -8 -3 -18 -14c-28 -35 -57 -52 -83 -52
z" />
    <glyph glyph-name="quotesinglbase" unicode="&#x201a;" horiz-adv-x="256" 
d="M187 79l-81 -153c-17 -28 -41 -44 -72 -44c-39 0 -72 28 -72 67c1 18 5 28 10 37l74 143c16 31 50 56 85 56c33 0 69 -28 69 -66c-1 -17 -5 -29 -13 -40z" />
    <glyph glyph-name="quotedblbase" unicode="&#x201e;" horiz-adv-x="468" 
d="M187 79l-82 -153c-16 -28 -40 -44 -72 -44c-38 0 -72 28 -72 66c1 19 6 29 11 38l74 143c15 30 50 57 85 57c33 0 68 -31 68 -68c-1 -16 -5 -28 -12 -39zM399 79l-81 -153c-16 -28 -40 -44 -73 -44c-38 0 -71 28 -71 66c1 19 5 29 11 38l73 143c16 31 52 56 86 56
c33 0 68 -29 68 -66c-1 -17 -5 -29 -13 -40z" />
    <glyph glyph-name="ellipsis" unicode="&#x2026;" horiz-adv-x="703" 
d="M237 80c5 59 48 98 98 98c46 0 80 -35 80 -80c-5 -59 -49 -98 -98 -98c-47 0 -80 35 -80 80zM470 80c5 59 48 98 97 98c47 0 80 -35 80 -80c-5 -59 -48 -98 -98 -98c-46 0 -79 35 -79 80zM6 80c5 59 48 98 98 98c46 0 80 -35 80 -80c-5 -59 -49 -98 -98 -98
c-47 0 -80 35 -80 80z" />
    <glyph glyph-name="dagger" unicode="&#x2020;" horiz-adv-x="538" 
d="M442 429h-88l-36 -341c-6 -60 -35 -88 -85 -88c-38 0 -71 28 -71 76c0 4 1 8 37 353h-86c-47 0 -70 22 -70 63c0 57 35 91 86 91h86l9 86c5 54 47 88 88 88c45 0 68 -24 68 -71c0 -5 0 -11 -10 -103h88c48 0 71 -23 71 -65c0 -54 -35 -89 -87 -89z" />
    <glyph glyph-name="daggerdbl" unicode="&#x2021;" horiz-adv-x="550" 
d="M351 334h88c47 0 70 -21 70 -63c0 -58 -35 -91 -87 -91h-88l-10 -95c-6 -60 -35 -88 -85 -88c-38 0 -71 27 -71 76c0 4 1 8 11 107h-86c-46 0 -69 21 -69 62c0 58 34 92 86 92h86l10 95h-86c-47 0 -70 22 -70 63c0 57 34 92 86 92h86l9 85c6 57 47 88 88 88
c45 0 68 -22 68 -70c0 -6 0 -12 -10 -103h88c48 0 71 -21 71 -65c0 -54 -34 -90 -87 -90h-88z" />
    <glyph glyph-name="perthousand" unicode="&#x2030;" horiz-adv-x="1385" 
d="M759 405c110 0 168 -86 168 -185c0 -127 -92 -232 -212 -232c-113 0 -173 83 -173 185c0 130 95 232 217 232zM730 127c39 0 51 52 51 80c0 30 -12 59 -37 59c-38 0 -54 -52 -54 -80c0 -30 12 -59 40 -59zM221 345c-111 0 -172 88 -172 190c0 127 97 228 216 228
c110 0 171 -81 171 -182c0 -128 -94 -236 -215 -236zM235 485c41 0 54 52 54 82s-12 57 -39 57c-39 0 -51 -56 -51 -82c0 -29 11 -57 36 -57zM267 90l307 623c19 37 47 55 82 55c42 0 63 -20 63 -59c0 -21 -4 -38 -10 -52c-22 -46 -294 -596 -320 -635
c-18 -27 -42 -41 -70 -41c-42 0 -65 20 -65 61c0 18 6 34 13 48zM1170 405c111 0 169 -86 169 -185c0 -128 -93 -232 -213 -232c-112 0 -173 82 -173 185c0 130 96 232 217 232zM1141 127c38 0 52 51 52 79c0 30 -13 60 -38 60c-30 0 -53 -35 -53 -79c0 -31 12 -60 39 -60z
" />
    <glyph glyph-name="guilsinglleft" unicode="&#x2039;" horiz-adv-x="642" 
d="M558 422l-327 -130l291 -141c33 -16 50 -39 50 -70c0 -50 -34 -81 -82 -81c-18 0 -35 3 -52 12l-376 197c-31 16 -47 42 -47 72c0 43 29 74 65 90l427 189c18 8 33 11 47 11c11 0 21 -2 31 -6c24 -11 37 -29 37 -56c-4 -44 -24 -68 -64 -87z" />
    <glyph glyph-name="quoteleft" unicode="&#x2018;" horiz-adv-x="262" 
d="M203 716l49 -151c5 -9 7 -16 7 -23c0 -44 -45 -86 -87 -86c-38 0 -62 30 -71 58l-45 145c-2 7 -3 14 -3 22c4 49 46 80 87 80c31 0 53 -16 63 -45z" />
    <glyph glyph-name="quoteright" unicode="&#x2019;" horiz-adv-x="265" 
d="M57 564l80 152c15 29 39 45 72 45c39 0 72 -27 72 -67c-1 -18 -4 -27 -11 -38l-72 -142c-15 -28 -48 -58 -85 -58c-32 0 -71 33 -71 70c1 15 7 27 15 38z" />
    <glyph glyph-name="quotedblleft" unicode="&#x201c;" horiz-adv-x="483" 
d="M203 716l49 -151c5 -9 6 -17 6 -34c-4 -39 -53 -75 -87 -75c-36 0 -62 30 -70 58l-44 145c-2 7 -4 14 -4 28c4 43 45 74 86 74c33 0 54 -16 64 -45zM425 716l49 -151c4 -9 5 -17 5 -34c-4 -39 -53 -75 -87 -75c-36 0 -61 30 -69 58l-45 145c-2 6 -3 12 -3 28
c4 43 44 74 85 74c33 0 55 -16 65 -45z" />
    <glyph glyph-name="quotedblright" unicode="&#x201d;" horiz-adv-x="486" 
d="M277 564l80 152c17 29 40 45 72 45c39 0 73 -27 73 -67c-1 -18 -5 -27 -11 -38l2 3l-75 -145c-14 -28 -47 -58 -85 -58c-31 0 -69 33 -69 70c1 15 6 27 13 38zM56 564l80 152c17 29 40 45 72 45c39 0 73 -27 73 -67c-1 -18 -5 -27 -11 -38l2 3l-75 -145
c-15 -28 -47 -58 -85 -58c-31 0 -70 33 -70 70c1 15 7 27 14 38z" />
    <glyph glyph-name="bullet" unicode="&#x2022;" horiz-adv-x="506" 
d="M276 550c107 0 177 -72 177 -174c0 -127 -102 -224 -219 -224c-109 0 -179 73 -179 176c0 128 105 222 221 222z" />
    <glyph glyph-name="endash" unicode="&#x2013;" horiz-adv-x="700" 
d="M127 370h450c51 0 76 -23 76 -67c0 -58 -38 -90 -92 -90h-450c-51 0 -76 19 -76 62c0 56 43 95 92 95z" />
    <glyph glyph-name="emdash" unicode="&#x2014;" horiz-adv-x="876" 
d="M127 370h626c52 0 76 -23 76 -67c0 -58 -37 -90 -92 -90h-626c-51 0 -76 19 -76 62c0 56 43 95 92 95z" />
    <glyph glyph-name="trademark" unicode="&#x2122;" horiz-adv-x="802" 
d="M144 639h-22c-36 0 -55 16 -55 50c0 42 26 71 67 71h165c38 0 57 -18 57 -51c0 -43 -27 -70 -69 -70h-21l-25 -238c-5 -45 -28 -66 -68 -66c-37 0 -55 17 -55 52c0 4 0 9 26 252zM541 710l16 -140l48 141c15 37 44 55 80 55c37 0 63 -24 65 -66l14 -297
c-5 -43 -29 -64 -67 -64c-36 0 -54 20 -56 55v168c-8 -33 -32 -144 -45 -175c-14 -34 -34 -50 -64 -50c-28 0 -47 16 -56 51l-9 168l-29 -161c-9 -37 -32 -57 -68 -57c-35 0 -53 17 -53 49c0 3 1 7 78 313c11 42 38 66 78 66c38 0 61 -18 68 -56z" />
    <glyph glyph-name="guilsinglright" unicode="&#x203a;" horiz-adv-x="644" 
d="M65 151l334 135l-298 139c-33 18 -45 41 -45 69c5 57 33 81 84 81c13 0 25 -3 35 -7l387 -201c37 -20 56 -43 56 -73c-4 -43 -30 -71 -82 -95l-417 -191c-10 -4 -25 -7 -37 -7c-47 0 -70 20 -70 61c0 46 17 72 53 89z" />
    <glyph glyph-name="uni00A0" unicode="&#xa0;" horiz-adv-x="210" 
 />
    <glyph glyph-name="sterling" unicode="&#xa3;" horiz-adv-x="644" 
d="M172 310h-66c-48 0 -70 22 -70 62c0 56 32 91 86 92h15c-12 29 -17 56 -17 81c0 135 143 214 257 214c119 0 240 -70 240 -200c-4 -53 -42 -91 -85 -91c-34 0 -58 19 -72 61c-2 50 -49 76 -96 76c-49 0 -78 -28 -78 -73c0 -22 4 -46 14 -68h94c45 0 69 -20 69 -63
c0 -56 -34 -91 -85 -91h-46c0 -11 -1 -21 -2 -31c-5 -44 -20 -84 -48 -123h234c47 0 70 -22 70 -64c0 -54 -33 -90 -86 -90h-390c-48 0 -74 20 -74 62c0 40 27 70 51 93c43 41 79 80 85 130v23z" />
    <glyph glyph-name="currency" unicode="&#xa4;" horiz-adv-x="717" 
d="M64 156l79 53c-2 15 -4 30 -4 46c0 30 9 59 22 89l-72 55c-24 23 -34 45 -34 78c5 48 47 69 81 69c23 0 39 -9 58 -26l70 -65c41 22 82 34 111 34s60 -4 102 -32l79 63c23 18 42 26 66 26c32 0 68 -19 68 -61c-4 -40 -26 -69 -52 -86l-80 -59c11 -13 14 -31 14 -50
c0 -30 -5 -60 -20 -88l60 -45c19 -17 36 -42 36 -71c-5 -55 -48 -76 -82 -76c-22 0 -41 8 -60 26l-52 50c-49 -32 -88 -43 -127 -43c-38 0 -74 10 -115 46c-19 -14 -49 -40 -66 -51c-24 -19 -44 -28 -66 -28c-32 0 -67 19 -67 61c3 41 26 67 51 85zM362 355
c-51 0 -83 -48 -83 -101c0 -51 31 -76 66 -76c53 0 87 53 87 104c0 47 -34 73 -70 73z" />
    <glyph glyph-name="section" unicode="&#xa7;" horiz-adv-x="531" 
d="M242 465c-77 27 -163 66 -163 156c0 135 129 208 245 208c54 0 109 -13 155 -40c23 -13 34 -36 34 -61c0 -3 -1 -7 -1 -10c-5 -48 -45 -77 -85 -77c-45 0 -63 29 -123 29c-29 0 -58 -6 -60 -25c0 -41 257 -89 257 -221c0 -53 -38 -105 -92 -105c-86 0 -30 90 -167 146z
M298 313c79 -30 164 -60 164 -153c0 -138 -126 -211 -244 -211c-53 0 -108 13 -155 39c-23 13 -33 37 -33 61c0 47 39 87 85 87s64 -28 123 -28c30 0 58 5 60 24c0 42 -257 95 -257 222c0 53 39 104 93 104c84 0 46 -100 164 -145z" />
    <glyph glyph-name="dieresis" unicode="&#xa8;" horiz-adv-x="487" 
d="M32 614c5 59 48 98 99 98c46 0 80 -35 80 -80c-5 -59 -49 -98 -98 -98c-48 0 -81 35 -81 80zM281 614c5 59 48 98 97 98c48 0 80 -34 80 -79c-5 -60 -47 -99 -98 -99c-46 0 -79 35 -79 80z" />
    <glyph glyph-name="copyright" unicode="&#xa9;" horiz-adv-x="833" 
d="M460 749c209 0 342 -140 342 -336c0 -239 -193 -425 -424 -425c-207 0 -341 138 -341 334c0 243 196 427 423 427zM393 80c185 0 311 158 311 322c0 148 -97 258 -253 258c-187 0 -311 -162 -311 -327c0 -148 98 -253 253 -253zM434 470c-62 0 -95 -65 -95 -116
c0 -45 27 -85 68 -85c30 0 54 17 81 17c43 0 61 -18 61 -54c0 -29 -16 -53 -37 -70c-28 -20 -71 -31 -112 -31c-127 0 -199 95 -199 211c0 143 116 268 251 268c30 0 61 -9 93 -24c25 -11 41 -35 41 -58c-4 -43 -36 -76 -74 -76c-22 0 -50 18 -78 18z" />
    <glyph glyph-name="guillemotleft" unicode="&#xab;" horiz-adv-x="551" 
d="M503 400l-84 -112l64 -136c3 -6 5 -11 5 -26c-4 -34 -51 -69 -89 -69c-27 0 -46 10 -55 32l-75 146c-9 22 -10 36 -10 53c1 16 9 33 21 52l106 147c16 19 37 30 63 30c50 0 73 -19 73 -59c0 -22 -7 -41 -19 -58zM263 402l-83 -114l64 -138c4 -9 4 -16 4 -24
c-4 -34 -51 -69 -89 -69c-27 0 -45 10 -56 32l-71 146c-8 16 -12 31 -12 53c1 15 10 33 24 53l100 144c17 21 38 33 63 33c37 0 72 -33 72 -71c-2 -19 -7 -32 -16 -45z" />
    <glyph glyph-name="logicalnot" unicode="&#xac;" horiz-adv-x="668" 
d="M439 141l7 72h-338c-50 0 -75 19 -75 62c0 56 42 95 91 95h412c49 0 74 -24 74 -71c0 -5 0 -10 -15 -148c-6 -55 -34 -83 -84 -83c-39 0 -72 28 -72 73z" />
    <glyph glyph-name="registered" unicode="&#xae;" horiz-adv-x="830" 
d="M459 756c207 0 341 -139 341 -334c0 -246 -191 -426 -421 -426c-206 0 -342 139 -342 335c0 242 196 425 422 425zM351 607h123c43 0 82 -15 109 -44c24 -24 37 -56 37 -91c0 -59 -37 -106 -86 -131l20 -34c25 -44 35 -76 35 -92c-5 -47 -38 -69 -82 -69
c-35 0 -54 20 -66 51l-56 121l-11 -103c-5 -47 -31 -69 -78 -69c-42 0 -62 17 -62 55c0 4 0 9 34 331c3 30 15 54 41 66c11 5 25 9 42 9zM455 488h-53l-7 -68h53c29 0 46 18 47 35v4c0 16 -12 29 -40 29zM394 85c188 0 309 159 309 325c0 147 -97 255 -254 255
c-185 0 -313 -158 -313 -323c0 -148 100 -257 258 -257z" />
    <glyph glyph-name="degree" unicode="&#xb0;" horiz-adv-x="316" 
d="M205 802c74 0 121 -51 121 -118c0 -84 -72 -150 -149 -150c-72 0 -120 50 -120 119c0 86 70 149 148 149zM198 735c-43 0 -70 -32 -73 -75c0 -34 24 -59 59 -59c38 0 70 29 74 75c0 33 -23 59 -60 59z" />
    <glyph glyph-name="plusminus" unicode="&#xb1;" horiz-adv-x="647" 
d="M138 495h118l4 47c4 52 37 80 88 80c43 0 74 -24 74 -67c0 -3 -1 -7 -6 -60h118c52 0 81 -31 81 -71c0 -60 -43 -88 -98 -88h-118l-6 -56c-5 -48 -44 -78 -90 -78c-47 0 -71 21 -71 63c0 5 0 10 7 71h-118c-48 0 -74 20 -74 65c0 61 37 94 91 94zM106 156h398
c51 0 76 -21 76 -64c0 -58 -37 -91 -92 -91h-398c-49 0 -76 20 -76 63c0 56 44 92 92 92z" />
    <glyph glyph-name="paragraph" unicode="&#xb6;" horiz-adv-x="644" 
d="M213 357c-98 15 -164 79 -164 167c0 163 140 236 296 236h234c38 -3 65 -32 65 -74c-5 -40 -40 -73 -80 -74l-58 -548c-4 -42 -37 -65 -68 -65c-27 0 -55 18 -55 57c0 3 1 7 59 558h-77l-57 -545c-5 -47 -38 -71 -69 -71c-30 0 -57 22 -57 66c0 4 1 7 31 293z" />
    <glyph glyph-name="guillemotright" unicode="&#xbb;" horiz-adv-x="552" 
d="M272 156l89 133c-20 39 -41 75 -62 113c-7 12 -10 25 -10 37c0 52 35 82 84 82c30 0 52 -12 62 -35l74 -145c7 -14 12 -30 12 -45c-2 -24 -10 -44 -23 -62l-105 -145c-14 -20 -38 -31 -67 -31c-49 0 -71 18 -71 54c1 19 5 33 17 44zM30 154l93 134l-66 134l1 -3
c-5 9 -8 19 -8 29c3 37 46 73 87 73c29 0 48 -12 59 -36l70 -144c9 -19 14 -35 14 -49c-2 -20 -8 -38 -24 -58l-101 -144c-14 -21 -35 -32 -65 -32c-50 0 -75 18 -75 55c2 22 8 32 15 41z" />
    <glyph glyph-name="pi" unicode="&#x3c0;" horiz-adv-x="559" 
d="M65 503c5 41 38 79 83 79h316c47 0 70 -21 70 -64c0 -5 -8 -87 -45 -441c-5 -50 -32 -77 -86 -77c-46 0 -70 21 -70 62c0 5 1 21 38 370h-157l-37 -355c-5 -50 -35 -77 -87 -77c-47 0 -70 21 -70 62c0 5 0 10 45 441z" />
    <glyph glyph-name="quotedbl" unicode="&#x22;" horiz-adv-x="434" 
d="M77 691c6 56 34 83 87 83c45 0 68 -21 68 -66c0 -5 0 -11 -14 -148c-6 -53 -34 -79 -86 -79c-47 0 -70 21 -70 65c0 4 1 9 15 145zM271 691c6 56 35 83 87 83c46 0 71 -22 71 -67c0 -5 0 -11 -14 -147c-6 -53 -37 -79 -89 -79c-48 0 -70 22 -70 65c0 5 1 9 15 145z" />
    <glyph glyph-name="exclam" unicode="!" horiz-adv-x="266" 
d="M208 326c-6 -53 -33 -78 -86 -78c-45 0 -68 20 -68 62c0 5 0 10 39 380c6 55 33 83 85 83c46 0 69 -22 69 -66c0 -5 0 -11 -39 -381zM18 80c5 59 49 98 98 98c48 0 81 -35 81 -80c-5 -59 -48 -98 -99 -98c-46 0 -80 35 -80 80z" />
    <glyph glyph-name="brokenbar" unicode="&#xa6;" horiz-adv-x="259" 
d="M93 739c6 52 42 86 86 86c41 0 70 -23 70 -67c0 -3 -1 -7 -25 -237c-5 -52 -33 -77 -85 -77c-46 0 -70 21 -70 64c0 4 1 8 24 231zM50 324c5 53 42 86 86 86c40 0 69 -21 69 -64c0 -4 0 -9 -27 -269c-5 -51 -33 -77 -85 -77c-46 0 -70 21 -70 62c0 5 0 10 27 262z" />
    <glyph glyph-name="uni00AD" unicode="&#xad;" horiz-adv-x="244" 
 />
    <glyph glyph-name="tonos" unicode="&#x384;" horiz-adv-x="344" 
d="M240 663l-74 -135c-14 -27 -30 -58 -77 -58c-50 0 -71 27 -71 63c0 17 5 34 13 47l73 136c15 28 40 52 78 52c46 0 68 -23 68 -63c0 -15 -4 -30 -10 -42z" />
    <glyph glyph-name="Alpha" unicode="&#x391;" horiz-adv-x="645" 
d="M338 501l-93 -198h142c-18 79 -24 92 -49 198zM456 51l-26 90h-255c-12 -26 -23 -51 -35 -75c-19 -44 -50 -66 -91 -66c-49 0 -69 31 -69 67c0 18 5 32 10 45l273 594c22 47 58 71 104 71s78 -24 90 -71c146 -563 157 -614 157 -626c-5 -47 -36 -80 -86 -80
c-38 0 -63 18 -72 51z" />
    <glyph glyph-name="Beta" unicode="&#x392;" horiz-adv-x="607" 
d="M97 687c6 60 38 90 93 90h142c91 0 223 -51 223 -186c0 -62 -53 -150 -110 -158c77 -11 129 -102 129 -179c0 -145 -137 -254 -268 -254h-181c-30 0 -52 4 -66 15c-16 12 -26 34 -26 62c0 5 0 9 64 610zM222 345l-20 -185h111c62 0 99 42 103 85c0 55 -34 100 -115 100
h-79zM235 470h77c53 0 82 34 86 70c0 43 -25 77 -79 77h-69z" />
    <glyph glyph-name="Gamma" unicode="&#x393;" horiz-adv-x="528" 
d="M98 688c6 60 38 90 93 90h291c49 0 75 -34 75 -73c-6 -60 -37 -87 -92 -87h-214l-56 -537c-6 -55 -35 -81 -90 -81c-47 0 -72 21 -72 66c0 5 0 10 65 622z" />
    <glyph glyph-name="Delta" unicode="&#x2206;" horiz-adv-x="710" 
d="M368 504l-157 -338h251zM547 0h-465c-56 0 -83 18 -83 58c0 17 6 33 12 47l-2 -3c94 201 191 403 286 605c22 48 57 73 102 73c46 0 80 -22 90 -72c53 -198 112 -408 166 -605c2 -10 3 -20 3 -28c-5 -52 -42 -75 -109 -75z" />
    <glyph glyph-name="Epsilon" unicode="&#x395;" horiz-adv-x="542" 
d="M98 690c6 58 38 87 93 87h282c49 0 73 -20 73 -64c0 -61 -36 -96 -90 -96h-206l-14 -135h161c49 0 73 -22 73 -67c0 -57 -36 -93 -90 -93h-161l-17 -162h213c53 0 79 -22 79 -66c0 -62 -41 -94 -95 -94h-289c-60 0 -77 12 -77 54c0 10 1 21 65 636z" />
    <glyph glyph-name="Zeta" unicode="&#x396;" horiz-adv-x="611" 
d="M17 146l362 472h-236c-49 0 -73 22 -73 64c0 5 0 10 1 15c6 55 35 81 89 81h372c61 0 86 -28 86 -65c0 -4 -1 -7 -1 -11c-2 -24 -16 -49 -33 -71l-363 -471h269c49 0 75 -23 75 -66c0 -4 -1 -8 -1 -12c-6 -55 -36 -82 -90 -82h-411c-46 0 -71 23 -71 69c0 5 0 10 1 16
c3 23 11 44 24 61z" />
    <glyph glyph-name="Eta" unicode="&#x397;" horiz-adv-x="733" 
d="M99 698c6 55 34 81 86 81c50 0 74 -21 74 -65c0 -5 0 -11 -25 -239h290l24 223c6 55 34 81 88 81c48 0 74 -21 74 -66c0 -5 0 -10 -66 -633c-6 -53 -36 -80 -89 -80c-49 0 -73 22 -73 65c0 5 0 10 26 249h-290l-25 -234c-6 -53 -35 -80 -88 -80c-48 0 -72 21 -72 64
c0 5 0 11 66 634z" />
    <glyph glyph-name="Theta" unicode="&#x398;" horiz-adv-x="743" 
d="M407 317h-66c-50 0 -74 26 -74 68c0 56 37 94 91 94h66c49 0 73 -25 73 -67c0 -60 -37 -95 -90 -95zM418 800c209 0 305 -169 305 -351c0 -228 -153 -458 -390 -458c-205 0 -301 167 -301 350c0 225 149 459 386 459zM402 638c-145 0 -204 -168 -204 -280
c0 -110 48 -208 154 -208c146 0 207 169 207 282c0 109 -48 206 -157 206z" />
    <glyph glyph-name="Iota" unicode="&#x399;" horiz-adv-x="284" 
d="M99 698c6 55 35 81 88 81c49 0 74 -21 74 -66c0 -5 0 -10 -66 -632c-6 -55 -35 -81 -89 -81c-48 0 -73 21 -73 66c0 5 0 10 66 632z" />
    <glyph glyph-name="Kappa" unicode="&#x39a;" horiz-adv-x="640" 
d="M100 705c5 50 34 74 86 74c49 0 75 -20 75 -62c0 -4 -1 -8 -24 -230l271 267c16 18 38 23 57 23c40 0 75 -36 75 -75c-2 -30 -10 -49 -28 -64c-72 -71 -120 -115 -193 -188l160 -317c14 -17 15 -33 15 -53c-6 -53 -68 -81 -90 -81c-34 0 -48 15 -66 37l-149 293l-77 -74
l-19 -179c-5 -50 -33 -76 -86 -76c-49 0 -75 22 -75 64c0 4 1 8 68 641z" />
    <glyph glyph-name="Lambda" unicode="&#x39b;" horiz-adv-x="659" 
d="M464 67l-119 436l-208 -444c-18 -39 -41 -59 -83 -59c-40 0 -75 27 -75 69c1 16 4 24 7 32l283 606c23 48 58 73 104 73s78 -24 88 -73l162 -594c2 -9 5 -19 5 -29c0 -50 -41 -84 -88 -84c-48 0 -64 22 -76 67z" />
    <glyph glyph-name="Mu" unicode="&#x39c;" horiz-adv-x="881" 
d="M371 686l70 -358l148 359c25 61 68 92 120 92c56 0 89 -37 92 -107l25 -584c-2 -55 -42 -87 -87 -87c-52 0 -74 25 -76 77l-13 379c-64 -122 -104 -264 -156 -385c-20 -48 -54 -72 -89 -72c-39 0 -68 23 -76 72l-65 387l-104 -380c-13 -49 -38 -78 -90 -78
c-44 0 -71 20 -71 64c0 15 2 26 4 36l152 572c19 71 59 108 116 108c51 0 88 -34 100 -95z" />
    <glyph glyph-name="Nu" unicode="&#x39d;" horiz-adv-x="724" 
d="M98 692c6 58 36 87 88 87c35 0 63 -18 83 -53l232 -409l40 380c6 54 35 81 87 81c50 0 74 -22 74 -67c0 -4 -1 -9 -65 -624c-6 -58 -36 -87 -89 -87c-33 0 -62 16 -80 47l-235 408l-39 -373c-6 -55 -35 -82 -88 -82c-49 0 -73 22 -73 66c0 5 0 10 65 626z" />
    <glyph glyph-name="Xi" unicode="&#x39e;" horiz-adv-x="636" 
d="M158 778h411c50 0 74 -21 74 -65c0 -61 -37 -95 -91 -95h-411c-49 0 -72 21 -72 63c0 61 34 97 89 97zM192 482h274c50 0 74 -22 74 -67c0 -58 -36 -93 -91 -93h-274c-48 0 -72 23 -72 66c0 59 36 94 89 94zM87 163h427c51 0 77 -23 77 -66c0 -62 -40 -95 -94 -95h-427
c-53 0 -80 21 -80 66c0 63 43 95 97 95z" />
    <glyph glyph-name="Omicron" unicode="&#x39f;" horiz-adv-x="743" 
d="M418 800c209 0 305 -169 305 -351c0 -228 -153 -458 -390 -458c-205 0 -301 167 -301 350c0 225 149 459 386 459zM401 638c-145 0 -204 -168 -204 -280c0 -110 48 -208 154 -208c146 0 207 169 207 282c0 109 -48 206 -157 206z" />
    <glyph glyph-name="Pi" unicode="&#x3a0;" horiz-adv-x="722" 
d="M186 780h440c40 0 73 -35 73 -75l-65 -624c-6 -55 -34 -81 -88 -81c-48 0 -72 21 -72 65c0 5 0 10 57 553h-281l-56 -537c-6 -55 -36 -81 -90 -81c-46 0 -71 21 -71 66c0 5 0 10 66 632c6 54 35 82 87 82z" />
    <glyph glyph-name="Rho" unicode="&#x3a1;" horiz-adv-x="596" 
d="M98 695c6 57 37 83 92 83h169c142 0 238 -89 238 -224c0 -160 -132 -284 -285 -285h-99l-20 -188c-6 -55 -35 -81 -88 -81c-49 0 -73 21 -73 65c0 5 0 10 66 630zM329 618h-80l-19 -189h95c65 4 108 47 108 108c0 51 -37 81 -104 81z" />
    <glyph glyph-name="Sigma" unicode="&#x3a3;" horiz-adv-x="596" 
d="M296 617l89 -161c9 -16 13 -30 13 -44c0 -18 -7 -36 -21 -51l-152 -201h252c49 0 74 -24 74 -68c0 -57 -36 -92 -90 -92h-391c-46 0 -71 23 -71 69c0 31 10 57 25 77l195 260l-124 225c-12 23 -18 43 -18 62c6 59 40 85 102 85h351c50 0 74 -22 74 -67
c0 -58 -35 -94 -91 -94h-217z" />
    <glyph glyph-name="Tau" unicode="&#x3a4;" horiz-adv-x="541" 
d="M219 618h-91c-50 0 -75 22 -75 65c0 60 38 95 92 95h343c48 0 74 -21 74 -66c0 -60 -39 -94 -91 -94h-92l-56 -533c-6 -57 -34 -85 -86 -85c-50 0 -75 23 -75 69c0 5 0 10 57 549z" />
    <glyph glyph-name="Upsilon" unicode="&#x3a5;" horiz-adv-x="552" 
d="M191 317c-45 99 -90 238 -134 336c-6 12 -10 24 -10 38c0 52 36 88 86 88c31 0 54 -14 64 -43l94 -273c45 64 102 210 147 273c20 28 45 43 77 43c47 0 70 -21 70 -61c0 -24 -7 -43 -17 -59l-215 -344l-24 -229c-6 -59 -35 -86 -90 -86c-48 0 -73 22 -73 68
c0 6 0 12 25 249z" />
    <glyph glyph-name="Phi" unicode="&#x3a6;" horiz-adv-x="748" 
d="M332 713l1 7c6 55 35 81 90 81c53 0 74 -25 74 -56c0 -8 -1 -14 -3 -32c138 -17 246 -116 246 -258c0 -173 -149 -290 -307 -316l-6 -57c-6 -55 -36 -82 -88 -82c-50 0 -74 22 -74 66c0 5 0 11 7 72c-141 17 -247 113 -247 254c0 172 150 297 307 321zM288 287l29 279
c-73 -19 -134 -82 -134 -155c0 -60 47 -109 105 -124zM478 565l-29 -279c73 19 131 79 131 152c0 61 -43 113 -102 127z" />
    <glyph glyph-name="Chi" unicode="&#x3a7;" horiz-adv-x="640" 
d="M12 129l220 293l-139 228c-8 13 -12 26 -12 40c0 3 1 7 1 10c5 46 45 78 87 78c27 0 50 -11 65 -35l109 -178c44 60 88 116 131 174c19 26 42 39 72 39c38 0 71 -30 71 -71c-2 -26 -9 -42 -20 -56l-171 -218l166 -303c9 -17 14 -33 14 -50v-9c-5 -49 -32 -72 -80 -72
c-30 0 -51 13 -69 40l-143 246l-181 -244c-21 -29 -48 -42 -80 -42c-43 0 -65 20 -65 60c0 4 1 9 1 13c2 20 10 39 23 57z" />
    <glyph glyph-name="Psi" unicode="&#x3a8;" horiz-adv-x="776" 
d="M463 299c77 15 118 84 127 175l22 205c6 55 35 81 89 81c49 0 74 -21 74 -66c0 -5 0 -10 -24 -232c-19 -179 -138 -294 -304 -312l-7 -70c-6 -53 -33 -80 -88 -80c-48 0 -72 22 -72 65c0 5 0 10 8 86c-147 19 -240 116 -240 268c0 14 0 28 25 260c6 53 36 80 90 80
c47 0 71 -23 71 -67c0 -82 -24 -163 -24 -244c0 -71 33 -130 94 -147l44 419c6 55 35 81 88 81c49 0 72 -20 72 -64c0 -5 0 -11 -45 -438z" />
    <glyph glyph-name="Omega" unicode="&#x2126;" horiz-adv-x="798" 
d="M47 396c0 205 168 404 398 404c228 0 325 -148 325 -327c0 -109 -47 -250 -147 -314c-1 -1 -3 -2 -3 -3c0 -2 2 -2 3 -2h36c37 -4 55 -28 55 -64c0 -49 -27 -90 -83 -90h-167c-44 0 -60 20 -60 55c0 42 23 70 62 93c94 55 144 178 144 287c0 108 -57 210 -182 210
c-144 0 -228 -142 -228 -285c0 -87 29 -172 90 -212c20 -13 45 -32 45 -69c-5 -53 -25 -79 -75 -79h-167c-45 0 -66 22 -66 62c0 44 23 86 72 92h36c1 0 3 0 3 2c0 1 -2 2 -3 3c-41 31 -88 137 -88 237z" />
    <glyph glyph-name="Iotadieresis" unicode="&#x3aa;" horiz-adv-x="284" 
d="M99 698c-66 -622 -66 -627 -66 -632c0 -45 25 -66 73 -66c54 0 83 26 89 81c66 622 66 627 66 632c0 45 -25 66 -74 66c-53 0 -82 -26 -88 -81zM-13 883c5 59 48 98 99 98c46 0 80 -35 80 -80c-5 -59 -49 -98 -98 -98c-48 0 -81 35 -81 80zM236 883c5 59 48 98 97 98
c48 0 80 -34 80 -79c-5 -60 -47 -99 -98 -99c-46 0 -79 35 -79 80z" />
    <glyph glyph-name="Upsilondieresis" unicode="&#x3ab;" horiz-adv-x="552" 
d="M191 317c-25 -237 -25 -243 -25 -249c0 -46 25 -68 73 -68c55 0 84 27 90 86l24 229l215 344c10 16 17 35 17 59c0 40 -23 61 -70 61c-32 0 -57 -15 -77 -43c-45 -63 -102 -209 -147 -273l-94 273c-10 29 -33 43 -64 43c-50 0 -86 -36 -86 -88c0 -14 4 -26 10 -38
c44 -98 89 -237 134 -336zM116 883c5 59 48 98 99 98c46 0 80 -35 80 -80c-5 -59 -49 -98 -98 -98c-48 0 -81 35 -81 80zM365 883c5 59 48 98 97 98c48 0 80 -34 80 -79c-5 -60 -47 -99 -98 -99c-46 0 -79 35 -79 80z" />
    <glyph glyph-name="alpha" unicode="&#x3b1;" horiz-adv-x="631" 
d="M482 589c47 0 71 -24 71 -67c0 2 -1 -3 -4 -34c-4 -40 -13 -129 -35 -331c1 -8 7 -15 15 -15c51 0 78 -22 78 -64c0 -55 -41 -86 -93 -86c-92 0 -136 32 -151 89c-46 -56 -108 -92 -162 -92c-98 0 -183 100 -183 253c0 146 80 348 248 348c48 0 102 -22 128 -73
c8 48 39 72 88 72zM256 138c83 0 119 116 119 180c0 80 -40 127 -84 127c-81 0 -114 -126 -114 -187c0 -65 25 -120 79 -120z" />
    <glyph glyph-name="beta" unicode="&#x3b2;" horiz-adv-x="569" 
d="M178 53l-18 -175c-6 -57 -34 -83 -88 -83c-47 0 -70 23 -70 66c0 5 8 83 70 672c14 133 102 237 254 237c116 0 195 -83 195 -172c0 -61 -36 -117 -93 -150c78 -30 108 -108 108 -181c0 -126 -94 -271 -242 -271c-43 0 -84 16 -116 57zM225 499l-30 -281
c2 -43 33 -72 79 -72c60 0 98 54 105 107c-1 46 -16 96 -62 118c-7 0 -14 2 -34 2c-22 0 -33 21 -33 45c0 28 14 62 48 67h22c20 9 35 35 38 60c0 41 -15 72 -49 72c-61 0 -77 -52 -84 -118z" />
    <glyph glyph-name="gamma" unicode="&#x3b3;" horiz-adv-x="509" 
d="M145 54l-114 439c-1 3 -1 11 -1 29c5 42 50 74 87 74c44 0 74 -28 76 -64l52 -297l112 297c15 32 43 64 86 64c38 0 73 -30 73 -71c-1 -15 -3 -25 -34 -90c-61 -127 -156 -328 -177 -380l-18 -176c-6 -58 -39 -86 -90 -86c-47 0 -71 23 -71 70c0 5 1 24 19 191z" />
    <glyph glyph-name="delta" unicode="&#x3b4;" horiz-adv-x="562" 
d="M284 383c-71 0 -114 -74 -114 -134c0 -58 30 -109 89 -109c77 0 115 69 115 134c0 61 -32 109 -90 109zM525 679c-4 -42 -30 -61 -67 -61c-20 0 -38 5 -56 11c-17 5 -37 11 -55 11c-35 0 -71 -11 -75 -46c0 -25 28 -50 73 -66c86 -30 186 -88 186 -232
c0 -167 -115 -305 -286 -305c-152 0 -233 109 -233 240c0 122 82 225 195 256c-56 33 -83 75 -83 133c8 79 93 153 231 153c95 0 170 -30 170 -94z" />
    <glyph glyph-name="epsilon" unicode="&#x3b5;" horiz-adv-x="475" 
d="M219 -15c-132 0 -217 79 -217 163c0 74 69 127 129 154c-53 30 -77 66 -77 104c9 96 108 181 241 181c67 0 166 -14 166 -82c-5 -49 -34 -68 -76 -68c-21 0 -32 3 -44 5c-13 3 -26 5 -54 5c-54 0 -81 -26 -84 -50v-4c0 -19 15 -34 42 -34h54c55 0 80 -16 80 -51
c-4 -47 -34 -65 -90 -65h-54c-39 -5 -63 -33 -66 -60c0 -32 21 -57 68 -57c46 0 89 20 133 20c47 0 66 -21 66 -52c-10 -97 -147 -109 -217 -109z" />
    <glyph glyph-name="zeta" unicode="&#x3b6;" horiz-adv-x="461" 
d="M316 -172c-38 0 -65 35 -65 69c3 26 7 42 11 54c2 6 4 12 4 16c0 13 -7 19 -34 29l-24 9c-69 26 -193 80 -193 234c0 172 124 282 263 358h-132c-44 0 -79 23 -79 67c6 62 48 86 95 86h290c48 0 72 -19 72 -61c0 -52 -29 -78 -72 -92c-135 -45 -279 -193 -279 -336
c0 -80 56 -108 129 -128c77 -21 133 -57 133 -130c0 -71 -40 -175 -119 -175z" />
    <glyph glyph-name="eta" unicode="&#x3b7;" horiz-adv-x="558" 
d="M64 499c4 42 33 80 84 80s72 -33 72 -63v-4c39 40 85 70 146 70c71 0 151 -44 151 -166c0 -10 -5 -59 -57 -549c-5 -50 -35 -77 -87 -77c-46 0 -70 21 -70 62c0 4 0 11 49 476c4 38 4 39 4 41c0 51 -33 76 -65 76c-38 0 -78 -33 -87 -89l-29 -279c-5 -51 -33 -77 -87 -77
c-46 0 -69 21 -69 62c0 5 0 10 45 437z" />
    <glyph glyph-name="theta" unicode="&#x3b8;" horiz-adv-x="580" 
d="M335 769c168 0 221 -177 221 -326c0 -186 -90 -450 -304 -450c-169 0 -221 167 -221 317c0 183 88 459 304 459zM283 310c-45 0 -64 21 -64 60c0 56 28 94 80 94c53 0 66 -20 66 -56c0 -66 -20 -98 -82 -98zM322 613c-100 0 -133 -208 -133 -295c0 -80 18 -172 82 -172
c98 0 125 212 125 295c0 80 -15 172 -74 172z" />
    <glyph glyph-name="iota" unicode="&#x3b9;" horiz-adv-x="302" 
d="M63 497c5 52 35 77 86 77c48 0 73 -20 73 -64c0 -2 -1 -8 -3 -30l-32 -314c0 -11 2 -24 15 -24c51 0 78 -22 78 -64c0 -55 -41 -86 -93 -86c-112 0 -162 51 -162 133c0 8 0 15 38 372z" />
    <glyph glyph-name="kappa" unicode="&#x3ba;" horiz-adv-x="559" 
d="M65 503c6 52 33 78 86 78c47 0 70 -21 70 -62c0 -4 0 -11 -1 -16l-12 -124l211 175c17 14 35 19 55 19c40 0 72 -29 72 -68c-3 -33 -15 -48 -38 -64l-115 -93c84 -194 111 -256 111 -274c0 -48 -27 -76 -75 -76c-29 0 -58 17 -71 40l-92 223c-11 -9 -72 -59 -78 -65
l-12 -119c-5 -50 -33 -77 -86 -77c-47 0 -70 21 -70 62c0 5 0 10 45 441z" />
    <glyph glyph-name="lambda" unicode="&#x3bb;" horiz-adv-x="481" 
d="M-13 105l190 395c-14 54 -31 115 -42 186c4 44 45 73 88 73c44 0 69 -34 77 -68l138 -578c3 -9 4 -19 4 -28c-5 -51 -30 -85 -84 -85c-40 0 -66 20 -76 61l-45 258c-15 -34 -31 -80 -48 -125c-17 -46 -37 -97 -53 -132c-19 -41 -47 -62 -90 -62c-49 0 -70 27 -70 62
c0 14 6 31 11 43z" />
    <glyph glyph-name="nu" unicode="&#x3bd;" horiz-adv-x="481" 
d="M190 513l42 -265c32 90 65 178 97 268c22 46 51 68 90 68c42 0 69 -22 69 -65c0 -13 -5 -31 -10 -42l-189 -421c-17 -37 -45 -56 -87 -56c-40 0 -64 19 -73 56l-97 423c-1 7 -2 15 -2 22c5 54 42 83 86 83s67 -26 74 -71z" />
    <glyph glyph-name="omicron" unicode="&#x3bf;" horiz-adv-x="570" 
d="M311 598c156 0 231 -129 231 -268c0 -175 -108 -339 -294 -339c-156 0 -231 122 -231 261c0 176 117 346 294 346zM296 456c-85 0 -118 -120 -118 -183c0 -66 23 -142 84 -142c86 0 119 113 119 178c0 67 -23 147 -85 147z" />
    <glyph glyph-name="rho" unicode="&#x3c1;" horiz-adv-x="581" 
d="M317 446c-94 0 -123 -106 -123 -178c0 -85 44 -125 89 -125c84 0 113 113 113 176s-21 127 -79 127zM-3 -89l41 384c17 170 124 303 290 303c155 0 224 -106 224 -254c0 -153 -80 -359 -255 -359c-57 0 -107 27 -128 80l-20 -192c-6 -53 -34 -78 -87 -78
c-47 0 -70 21 -70 64c0 2 0 8 5 52z" />
    <glyph glyph-name="sigma" unicode="&#x3c3;" horiz-adv-x="610" 
d="M320 593l243 -1c42 -3 76 -28 76 -70c-4 -50 -50 -87 -91 -87l-87 12c40 -55 61 -118 61 -176c0 -153 -127 -280 -277 -280c-155 0 -227 127 -227 266c0 182 117 336 302 336zM263 142c87 0 113 106 113 171c0 63 -20 130 -79 130c-85 0 -118 -104 -118 -169
c0 -64 24 -132 84 -132z" />
    <glyph glyph-name="tau" unicode="&#x3c4;" horiz-adv-x="477" 
d="M99 584h310c49 0 74 -20 74 -63c0 -55 -35 -86 -88 -86h-79l-21 -203c-5 -50 -6 -59 -6 -65c0 -17 4 -25 15 -25c52 0 79 -21 79 -63c0 -56 -41 -87 -94 -87c-121 0 -157 57 -157 153c0 66 9 138 18 205c4 29 7 57 10 84h-73c-46 0 -69 22 -69 63c0 51 29 87 81 87z" />
    <glyph glyph-name="upsilon" unicode="&#x3c5;" horiz-adv-x="552" 
d="M62 505c5 53 33 78 84 78c49 0 72 -21 72 -64c0 -2 0 -4 -3 -34c-4 -35 -12 -107 -27 -258c2 -42 24 -82 66 -82c44 0 79 36 84 82l30 278c6 53 35 78 86 78c48 0 72 -20 72 -64c0 -2 0 -8 -33 -313c-13 -126 -135 -217 -256 -217c-115 0 -208 78 -208 194
c0 7 0 15 33 322z" />
    <glyph glyph-name="phi" unicode="&#x3c6;" horiz-adv-x="706" 
d="M236 145l18 176c11 107 72 270 228 270c137 0 198 -125 198 -246c0 -172 -120 -319 -303 -349l-13 -124c-5 -52 -35 -79 -86 -79c-49 0 -72 22 -72 65c0 2 0 7 2 19l12 120c-142 21 -203 129 -203 249c0 127 67 269 189 339c12 7 26 10 40 10c25 0 45 -12 46 -40
c-1 -29 -19 -53 -43 -86c-34 -46 -76 -102 -76 -204c0 -48 18 -100 63 -120zM411 319l-19 -180c76 24 128 107 128 194c0 51 -13 111 -54 111c-18 0 -32 -9 -39 -26c-6 -14 -11 -47 -16 -99z" />
    <glyph glyph-name="chi" unicode="&#x3c7;" horiz-adv-x="483" 
d="M-37 -90l182 306c-36 88 -76 165 -105 246c-3 11 -6 22 -6 35c0 53 33 89 86 89c37 0 59 -17 70 -48l50 -188l99 189c18 30 45 45 76 45c41 0 71 -29 71 -71c-2 -23 -6 -37 -16 -54l-168 -243c20 -50 43 -103 64 -152c22 -51 44 -101 64 -152c4 -12 7 -24 7 -36
c0 -48 -39 -83 -83 -83c-34 0 -65 21 -75 55l-69 229c-17 -32 -35 -72 -54 -112c-20 -43 -39 -86 -57 -119c-19 -35 -48 -55 -88 -55c-46 0 -65 32 -65 71c2 15 7 31 17 48z" />
    <glyph glyph-name="psi" unicode="&#x3c8;" horiz-adv-x="685" 
d="M447 580c0 -5 -8 -56 -49 -443c47 20 74 88 82 155l25 204c7 58 35 86 87 86c40 0 72 -30 72 -77l-24 -207c-19 -158 -104 -285 -257 -305l-12 -110c-6 -59 -35 -91 -88 -91c-46 0 -69 25 -69 73c0 6 0 12 13 128c-134 18 -195 122 -195 254c0 17 10 91 27 248
c6 57 35 87 86 87c40 0 72 -30 72 -76c-18 -176 -26 -236 -26 -249c0 -56 15 -103 51 -119l48 426c6 54 34 80 85 80c49 0 72 -21 72 -64z" />
    <glyph glyph-name="omega" unicode="&#x3c9;" horiz-adv-x="652" 
d="M407 -8c-51 0 -96 48 -105 130c-23 -76 -79 -129 -130 -129c-84 0 -158 82 -158 207c0 137 62 282 166 368c23 19 43 19 58 19c40 0 62 -28 62 -62c-3 -33 -13 -44 -26 -58c-65 -70 -102 -162 -102 -250c0 -48 20 -72 40 -72c18 0 38 22 42 64l12 111c6 55 29 83 69 83
c34 0 50 -20 50 -60c0 -6 -2 -30 -13 -134c0 -2 -1 -5 -1 -7v-6c0 -34 15 -51 31 -51c52 0 62 103 62 137c0 89 -32 148 -61 190c-11 27 -12 34 -12 46c4 38 34 71 77 71c13 0 35 -1 53 -19c58 -56 98 -147 98 -268c0 -129 -63 -310 -212 -310z" />
    <glyph glyph-name="mu" unicode="&#xb5;" horiz-adv-x="569" 
d="M70 505c5 53 32 78 85 78c48 0 71 -21 71 -64c0 -2 0 -4 -3 -36l-29 -278c2 -31 25 -55 57 -55c52 0 93 47 98 100l27 255c6 52 34 78 87 78c47 0 71 -21 71 -65c0 -2 -1 -11 -4 -38l-42 -397c-6 -56 -36 -83 -86 -83c-28 0 -55 19 -55 58c-17 -37 -57 -61 -100 -61
c-36 0 -62 24 -69 56c-6 -63 -14 -122 -20 -185c-6 -53 -34 -78 -88 -78c-46 0 -68 21 -68 64c0 -1 2 9 68 651z" />
    <glyph glyph-name="sigma1" unicode="&#x3c2;" horiz-adv-x="512" 
d="M331 432c-95 0 -152 -90 -152 -172c0 -84 58 -99 115 -113c87 -22 156 -67 156 -147c0 -73 -50 -174 -129 -174c-38 0 -66 35 -66 68c3 23 10 41 10 59c0 15 -7 27 -30 44c-92 22 -220 55 -220 243c0 187 151 353 337 353c40 0 80 -9 119 -28c29 -13 48 -41 48 -68
c-4 -49 -40 -88 -85 -88c-15 0 -31 6 -47 11c-18 6 -37 12 -56 12z" />
    <glyph glyph-name="dieresistonos" unicode="&#x385;" horiz-adv-x="643" 
d="M37 613c5 60 47 99 98 99c46 0 79 -35 79 -80c-5 -59 -48 -98 -97 -98c-48 0 -80 34 -80 79zM453 614c5 59 48 98 99 98c46 0 80 -35 80 -80c-5 -59 -49 -98 -98 -98c-48 0 -81 35 -81 80zM468 724l-74 -134c-14 -26 -34 -58 -79 -58c-48 0 -72 28 -72 66
c1 15 6 35 13 44l-1 -3l73 140c15 28 44 52 81 52c46 0 70 -24 70 -65c0 -15 -6 -28 -11 -42z" />
    <glyph glyph-name="space" unicode=" " horiz-adv-x="209" 
 />
    <glyph glyph-name="Alphatonos" unicode="&#x386;" horiz-adv-x="725" 
d="M418 501l-93 -198h142c-18 79 -24 92 -49 198zM536 51l-26 90h-255c-12 -26 -23 -51 -35 -75c-19 -44 -50 -66 -91 -66c-49 0 -69 31 -69 67c0 18 5 32 10 45l273 594c22 47 58 71 104 71s78 -24 90 -71c146 -563 157 -614 157 -626c-5 -47 -36 -80 -86 -80
c-38 0 -63 18 -72 51zM250 663l-74 -135c-14 -27 -30 -58 -77 -58c-50 0 -71 27 -71 63c0 17 5 34 13 47l73 136c15 28 40 52 78 52c46 0 68 -23 68 -63c0 -15 -4 -30 -10 -42z" />
    <glyph glyph-name="Epsilontonos" unicode="&#x388;" horiz-adv-x="768" 
d="M325 690c6 58 38 87 93 87h282c49 0 73 -20 73 -64c0 -61 -36 -96 -90 -96h-206l-14 -135h161c49 0 73 -22 73 -67c0 -57 -36 -93 -90 -93h-161l-17 -162h213c53 0 79 -22 79 -66c0 -62 -41 -94 -95 -94h-289c-60 0 -77 12 -77 54c0 10 1 21 65 636zM237 663l-74 -135
c-14 -27 -30 -58 -77 -58c-50 0 -71 27 -71 63c0 17 5 34 13 47l73 136c15 28 40 52 78 52c46 0 68 -23 68 -63c0 -15 -4 -30 -10 -42z" />
    <glyph glyph-name="Etatonos" unicode="&#x389;" horiz-adv-x="957" 
d="M323 698c6 55 34 81 86 81c50 0 74 -21 74 -65c0 -5 0 -11 -25 -239h290l24 223c6 55 34 81 88 81c48 0 74 -21 74 -66c0 -5 0 -10 -66 -633c-6 -53 -36 -80 -89 -80c-49 0 -73 22 -73 65c0 5 0 10 26 249h-290l-25 -234c-6 -53 -35 -80 -88 -80c-48 0 -72 21 -72 64
c0 5 0 11 66 634zM237 663l-74 -135c-14 -27 -30 -58 -77 -58c-50 0 -71 27 -71 63c0 17 5 34 13 47l73 136c15 28 40 52 78 52c46 0 68 -23 68 -63c0 -15 -4 -30 -10 -42z" />
    <glyph glyph-name="Iotatonos" unicode="&#x38a;" horiz-adv-x="491" 
d="M306 698c6 55 35 81 88 81c49 0 74 -21 74 -66c0 -5 0 -10 -66 -632c-6 -55 -35 -81 -89 -81c-48 0 -73 21 -73 66c0 5 0 10 66 632zM237 663l-74 -135c-14 -27 -30 -58 -77 -58c-50 0 -71 27 -71 63c0 17 5 34 13 47l73 136c15 28 40 52 78 52c46 0 68 -23 68 -63
c0 -15 -4 -30 -10 -42z" />
    <glyph glyph-name="Omicrontonos" unicode="&#x38c;" horiz-adv-x="902" 
d="M577 800c209 0 305 -169 305 -351c0 -228 -153 -458 -390 -458c-205 0 -301 167 -301 350c0 225 149 459 386 459zM560 638c-145 0 -204 -168 -204 -280c0 -110 48 -208 154 -208c146 0 207 169 207 282c0 109 -48 206 -157 206zM237 663l-74 -135
c-14 -27 -30 -58 -77 -58c-50 0 -71 27 -71 63c0 17 5 34 13 47l73 136c15 28 40 52 78 52c46 0 68 -23 68 -63c0 -15 -4 -30 -10 -42z" />
    <glyph glyph-name="Upsilontonos" unicode="&#x38e;" horiz-adv-x="826" 
d="M465 317c-45 99 -90 238 -134 336c-6 12 -10 24 -10 38c0 52 36 88 86 88c31 0 54 -14 64 -43l94 -273c45 64 102 210 147 273c20 28 45 43 77 43c47 0 70 -21 70 -61c0 -24 -7 -43 -17 -59l-215 -344l-24 -229c-6 -59 -35 -86 -90 -86c-48 0 -73 22 -73 68
c0 6 0 12 25 249zM257 663l-74 -135c-14 -27 -30 -58 -77 -58c-50 0 -71 27 -71 63c0 17 5 34 13 47l73 136c15 28 40 52 78 52c46 0 68 -23 68 -63c0 -15 -4 -30 -10 -42z" />
    <glyph glyph-name="Omegatonos" unicode="&#x38f;" horiz-adv-x="972" 
d="M227 396c0 205 168 404 398 404c228 0 325 -148 325 -327c0 -109 -47 -250 -147 -314c-1 -1 -3 -2 -3 -3c0 -2 2 -2 3 -2h36c37 -4 55 -28 55 -64c0 -49 -27 -90 -83 -90h-167c-44 0 -60 20 -60 55c0 42 23 70 62 93c94 55 144 178 144 287c0 108 -57 210 -182 210
c-144 0 -228 -142 -228 -285c0 -87 29 -172 90 -212c20 -13 45 -32 45 -69c-5 -53 -25 -79 -75 -79h-167c-45 0 -66 22 -66 62c0 44 23 86 72 92h36c1 0 3 0 3 2c0 1 -2 2 -3 3c-41 31 -88 137 -88 237zM164 528l74 135c6 12 10 27 10 42c0 40 -22 63 -68 63
c-38 0 -63 -24 -78 -52l-73 -136c-8 -13 -13 -30 -13 -47c0 -36 21 -63 71 -63c47 0 63 31 77 58z" />
    <glyph glyph-name="periodcentered" unicode="&#xb7;" horiz-adv-x="254" 
d="M39 347c5 58 49 98 98 98c48 0 81 -35 81 -80c-5 -58 -48 -98 -99 -98c-46 0 -80 35 -80 80z" />
    <glyph glyph-name="zero.onum" horiz-adv-x="597" 
d="M328 629h4c158 0 229 -129 229 -270c0 -177 -111 -370 -299 -370c-160 0 -233 131 -233 274c0 184 117 362 299 366zM279 147c88 0 121 125 121 190c0 70 -28 133 -86 133c-91 0 -124 -122 -124 -190c0 -70 28 -133 89 -133z" />
    <glyph glyph-name="one.onum" horiz-adv-x="357" 
d="M154 445c-10 -4 -23 -7 -35 -10c-7 -1 -15 -1 -20 -1c-38 0 -69 25 -69 64c0 45 35 79 75 89c141 36 142 40 151 40c37 0 59 -23 66 -46c2 -4 3 -12 3 -24c0 -10 -1 -23 -48 -474c-5 -48 -40 -83 -88 -83c-45 0 -74 29 -74 72c0 3 1 7 39 373z" />
    <glyph glyph-name="two.onum" horiz-adv-x="550" 
d="M44 407c15 142 141 228 259 228c109 0 209 -75 209 -191c0 -129 -120 -221 -205 -288h109c47 0 69 -22 69 -63c0 -55 -33 -93 -86 -93h-296c-57 0 -86 22 -86 64c0 32 16 58 33 78c278 219 294 237 298 276c0 40 -31 60 -64 60c-36 0 -74 -25 -79 -75
c-4 -34 -35 -87 -88 -87c-51 0 -73 44 -73 91z" />
    <glyph glyph-name="three.onum" horiz-adv-x="531" 
d="M285 642c123 0 197 -92 197 -189c0 -78 -47 -140 -105 -176c66 -38 96 -99 96 -163c0 -147 -136 -255 -268 -255c-88 0 -153 47 -186 99c-14 23 -21 49 -21 75c0 49 34 94 84 94c28 0 59 -18 70 -50c12 -39 37 -58 68 -58c54 0 94 44 94 94c0 36 -17 79 -58 85h-33
c-52 0 -78 15 -78 56c0 57 41 78 94 78c4 0 19 0 30 2c34 15 53 64 53 96c0 34 -20 56 -57 56c-59 0 -69 -42 -71 -50c-2 -12 -18 -54 -67 -54c-52 0 -77 20 -77 60c0 118 130 200 235 200z" />
    <glyph glyph-name="four.onum" horiz-adv-x="578" 
d="M287 52h-210c-55 0 -83 34 -83 76c0 26 11 53 28 71l269 371c31 42 68 63 113 63c53 0 92 -35 92 -93c0 -5 0 -10 -35 -331c45 -1 68 -21 68 -64c0 -56 -32 -91 -83 -91l-9 -83c-6 -57 -37 -87 -89 -87c-44 0 -71 25 -71 72c0 5 0 10 10 96zM319 359l-109 -150h93z" />
    <glyph glyph-name="five.onum" horiz-adv-x="545" 
d="M244 608h210c46 0 70 -33 70 -74c-6 -61 -34 -87 -87 -87h-166c-5 -23 -8 -36 -20 -77c163 0 235 -105 235 -222c0 -165 -134 -299 -294 -299c-124 0 -213 84 -213 150c5 57 44 84 81 84c22 0 46 -12 60 -34c17 -26 57 -44 92 -44c65 0 111 62 111 119
c0 47 -29 92 -91 92c-33 0 -60 -15 -90 -15c-41 0 -73 14 -73 62c0 35 1 15 75 272c13 45 49 73 100 73z" />
    <glyph glyph-name="six.onum" horiz-adv-x="556" 
d="M422 616c-50 -41 -114 -86 -150 -152c30 15 57 15 83 15c117 0 169 -91 169 -191c0 -159 -128 -299 -279 -299c-148 0 -218 113 -218 244c0 202 148 372 289 493c19 14 41 24 62 24c42 0 74 -25 74 -70c-2 -30 -11 -47 -30 -64zM185 242c0 -50 26 -96 77 -98
c59 5 98 58 104 113c0 55 -23 102 -84 102c-65 0 -97 -64 -97 -117z" />
    <glyph glyph-name="seven.onum" horiz-adv-x="507" 
d="M128 622h315c41 0 76 -31 76 -78c-2 -21 -5 -34 -13 -49l-295 -559c-22 -42 -54 -63 -91 -63c-50 0 -68 33 -68 68c0 19 7 37 15 52l249 467h-205c-54 0 -79 23 -79 68c0 61 39 94 96 94z" />
    <glyph glyph-name="eight.onum" horiz-adv-x="560" 
d="M146 412c-39 25 -62 76 -62 129c0 130 125 227 242 227c114 0 193 -75 193 -184c0 -72 -40 -133 -93 -166c48 -24 87 -97 87 -165c0 -144 -135 -264 -268 -264c-135 0 -221 90 -221 217c0 86 50 167 122 206zM281 330c-57 0 -91 -56 -91 -104c0 -44 27 -77 72 -77
c53 0 88 54 88 100s-28 81 -69 81zM294 485c32 0 57 34 61 69c0 41 -22 58 -46 58c-40 0 -65 -34 -65 -69c0 -32 17 -58 50 -58z" />
    <glyph glyph-name="nine.onum" horiz-adv-x="555" 
d="M134 -19c61 46 124 100 170 159c-35 -12 -67 -17 -96 -17c-129 0 -191 108 -191 213c0 163 134 291 285 291c142 0 222 -105 222 -247c0 -215 -146 -400 -305 -521c-22 -16 -39 -19 -57 -19c-40 0 -69 29 -69 66c4 42 21 60 41 75zM281 464c-70 0 -104 -75 -104 -131
c0 -60 37 -92 82 -92c71 0 109 64 109 125c0 49 -26 98 -87 98z" />
    <glyph glyph-name="alphatonos" unicode="&#x3ac;" horiz-adv-x="631" 
d="M482 589c47 0 71 -24 71 -67c0 2 -1 -3 -4 -34c-4 -40 -13 -129 -35 -331c1 -8 7 -15 15 -15c51 0 78 -22 78 -64c0 -55 -41 -86 -93 -86c-92 0 -136 32 -151 89c-46 -56 -108 -92 -162 -92c-98 0 -183 100 -183 253c0 146 80 348 248 348c48 0 102 -22 128 -73
c8 48 39 72 88 72zM256 138c83 0 119 116 119 180c0 80 -40 127 -84 127c-81 0 -114 -126 -114 -187c0 -65 25 -120 79 -120zM495 838l-74 -135c-14 -27 -30 -58 -77 -58c-50 0 -71 27 -71 63c0 17 5 34 13 47l73 136c15 28 40 52 78 52c46 0 68 -23 68 -63
c0 -15 -4 -30 -10 -42z" />
    <glyph glyph-name="numbersign" unicode="#" horiz-adv-x="626" 
d="M160 550h34c11 50 24 100 36 149c12 46 40 73 80 73c38 0 69 -30 69 -68l-36 -154h34l37 150c12 48 38 73 81 73c38 0 65 -28 65 -67l-34 -156h12c36 0 72 -18 72 -64c-6 -58 -36 -83 -92 -83h-26c-6 -15 -9 -25 -16 -55h13c43 0 69 -20 69 -62c0 -52 -42 -88 -88 -88
h-31l-30 -117c-14 -55 -43 -81 -90 -81c-39 0 -60 19 -60 56c0 8 0 16 3 22l30 120h-36l-29 -116c-14 -56 -45 -82 -90 -82c-38 0 -60 16 -60 55c0 4 1 9 1 13c0 7 1 8 31 130h-11c-46 0 -77 19 -77 65c6 62 54 85 91 85h32c6 15 9 25 17 55h-16c-46 0 -71 20 -71 61
c0 56 36 86 86 86zM343 403h-36l-15 -55h36z" />
    <glyph glyph-name="xi" unicode="&#x3be;" horiz-adv-x="464" 
d="M306 -172c-39 0 -66 35 -66 69c3 25 17 48 17 71c0 18 -13 24 -33 29c-90 20 -218 59 -218 193c0 106 95 179 176 219c-49 12 -80 46 -80 82c5 52 42 99 95 120c-3 0 -11 1 -21 1c-17 1 -40 1 -60 3c-25 2 -39 20 -39 49c6 62 28 86 76 86h289c48 0 72 -19 72 -61
c0 -54 -28 -77 -77 -77c-130 0 -171 -43 -175 -83c0 -39 22 -60 64 -60c46 0 89 -9 89 -52c0 -56 -56 -69 -100 -69c-70 0 -129 -47 -137 -102c2 -50 41 -94 119 -115c88 -24 138 -68 138 -129c0 -68 -58 -174 -129 -174z" />
    <glyph glyph-name="iotadieresis" unicode="&#x3ca;" horiz-adv-x="302" 
d="M63 497c5 52 35 77 86 77c48 0 73 -20 73 -64c0 -2 -1 -8 -3 -30l-32 -314c0 -11 2 -24 15 -24c51 0 78 -22 78 -64c0 -55 -41 -86 -93 -86c-112 0 -162 51 -162 133c0 8 0 15 38 372zM-45 727c5 59 48 98 99 98c46 0 80 -35 80 -80c-5 -59 -49 -98 -98 -98
c-48 0 -81 35 -81 80zM204 727c5 59 48 98 97 98c48 0 80 -34 80 -79c-5 -60 -47 -99 -98 -99c-46 0 -79 35 -79 80z" />
    <glyph glyph-name="upsilondieresis" unicode="&#x3cb;" horiz-adv-x="552" 
d="M62 505c-33 -307 -33 -315 -33 -322c0 -116 93 -194 208 -194c121 0 243 91 256 217c33 305 33 311 33 313c0 44 -24 64 -72 64c-51 0 -80 -25 -86 -78l-30 -278c-5 -46 -40 -82 -84 -82c-42 0 -64 40 -66 82c15 151 23 223 27 258c3 30 3 32 3 34c0 43 -23 64 -72 64
c-51 0 -79 -25 -84 -78zM106 727c5 59 48 98 99 98c46 0 80 -35 80 -80c-5 -59 -49 -98 -98 -98c-48 0 -81 35 -81 80zM355 727c5 59 48 98 97 98c48 0 80 -34 80 -79c-5 -60 -47 -99 -98 -99c-46 0 -79 35 -79 80z" />
    <glyph glyph-name="iotadieresistonos" unicode="&#x390;" horiz-adv-x="302" 
d="M63 497c5 52 35 77 86 77c48 0 73 -20 73 -64c0 -2 -1 -8 -3 -30l-32 -314c0 -11 2 -24 15 -24c51 0 78 -22 78 -64c0 -55 -41 -86 -93 -86c-112 0 -162 51 -162 133c0 8 0 15 38 372zM-123 726c5 60 47 99 98 99c46 0 79 -35 79 -80c-5 -59 -48 -98 -97 -98
c-48 0 -80 34 -80 79zM293 727c5 59 48 98 99 98c46 0 80 -35 80 -80c-5 -59 -49 -98 -98 -98c-48 0 -81 35 -81 80zM308 837l-74 -134c-14 -26 -34 -58 -79 -58c-48 0 -72 28 -72 66c1 15 6 35 13 44l-1 -3l73 140c15 28 44 52 81 52c46 0 70 -24 70 -65
c0 -15 -6 -28 -11 -42z" />
    <glyph glyph-name="epsilontonos" unicode="&#x3ad;" horiz-adv-x="475" 
d="M219 -15c-132 0 -217 79 -217 163c0 74 69 127 129 154c-53 30 -77 66 -77 104c9 96 108 181 241 181c67 0 166 -14 166 -82c-5 -49 -34 -68 -76 -68c-21 0 -32 3 -44 5c-13 3 -26 5 -54 5c-54 0 -81 -26 -84 -50v-4c0 -19 15 -34 42 -34h54c55 0 80 -16 80 -51
c-4 -47 -34 -65 -90 -65h-54c-39 -5 -63 -33 -66 -60c0 -32 21 -57 68 -57c46 0 89 20 133 20c47 0 66 -21 66 -52c-10 -97 -147 -109 -217 -109zM448 838l-74 -135c-14 -27 -30 -58 -77 -58c-50 0 -71 27 -71 63c0 17 5 34 13 47l73 136c15 28 40 52 78 52
c46 0 68 -23 68 -63c0 -15 -4 -30 -10 -42z" />
    <glyph glyph-name="etatonos" unicode="&#x3ae;" horiz-adv-x="558" 
d="M64 499c4 42 33 80 84 80s72 -33 72 -63v-4c39 40 85 70 146 70c71 0 151 -44 151 -166c0 -10 -5 -59 -57 -549c-5 -50 -35 -77 -87 -77c-46 0 -70 21 -70 62c0 4 0 11 49 476c4 38 4 39 4 41c0 51 -33 76 -65 76c-38 0 -78 -33 -87 -89l-29 -279c-5 -51 -33 -77 -87 -77
c-46 0 -69 21 -69 62c0 5 0 10 45 437zM455 838l-74 -135c-14 -27 -30 -58 -77 -58c-50 0 -71 27 -71 63c0 17 5 34 13 47l73 136c15 28 40 52 78 52c46 0 68 -23 68 -63c0 -15 -4 -30 -10 -42z" />
    <glyph glyph-name="iotatonos" unicode="&#x3af;" horiz-adv-x="302" 
d="M63 497c5 52 35 77 86 77c48 0 73 -20 73 -64c0 -2 -1 -8 -3 -30l-32 -314c0 -11 2 -24 15 -24c51 0 78 -22 78 -64c0 -55 -41 -86 -93 -86c-112 0 -162 51 -162 133c0 8 0 15 38 372zM307 838l-74 -135c-14 -27 -30 -58 -77 -58c-50 0 -71 27 -71 63c0 17 5 34 13 47
l73 136c15 28 40 52 78 52c46 0 68 -23 68 -63c0 -15 -4 -30 -10 -42z" />
    <glyph glyph-name="upsilondieresistonos" unicode="&#x3b0;" horiz-adv-x="552" 
d="M62 505c-33 -307 -33 -315 -33 -322c0 -116 93 -194 208 -194c121 0 243 91 256 217c33 305 33 311 33 313c0 44 -24 64 -72 64c-51 0 -80 -25 -86 -78l-30 -278c-5 -46 -40 -82 -84 -82c-42 0 -64 40 -66 82c15 151 23 223 27 258c3 30 3 32 3 34c0 43 -23 64 -72 64
c-51 0 -79 -25 -84 -78zM36 726c5 60 47 99 98 99c46 0 79 -35 79 -80c-5 -59 -48 -98 -97 -98c-48 0 -80 34 -80 79zM452 727c5 59 48 98 99 98c46 0 80 -35 80 -80c-5 -59 -49 -98 -98 -98c-48 0 -81 35 -81 80zM467 837l-74 -134c-14 -26 -34 -58 -79 -58
c-48 0 -72 28 -72 66c1 15 6 35 13 44l-1 -3l73 140c15 28 44 52 81 52c46 0 70 -24 70 -65c0 -15 -6 -28 -11 -42z" />
    <glyph glyph-name="omicrontonos" unicode="&#x3cc;" horiz-adv-x="570" 
d="M311 598c156 0 231 -129 231 -268c0 -175 -108 -339 -294 -339c-156 0 -231 122 -231 261c0 176 117 346 294 346zM296 456c-85 0 -118 -120 -118 -183c0 -66 23 -142 84 -142c86 0 119 113 119 178c0 67 -23 147 -85 147zM493 838l-74 -135c-14 -27 -30 -58 -77 -58
c-50 0 -71 27 -71 63c0 17 5 34 13 47l73 136c15 28 40 52 78 52c46 0 68 -23 68 -63c0 -15 -4 -30 -10 -42z" />
    <glyph glyph-name="upsilontonos" unicode="&#x3cd;" horiz-adv-x="552" 
d="M62 505c5 53 33 78 84 78c49 0 72 -21 72 -64c0 -2 0 -4 -3 -34c-4 -35 -12 -107 -27 -258c2 -42 24 -82 66 -82c44 0 79 36 84 82l30 278c6 53 35 78 86 78c48 0 72 -20 72 -64c0 -2 0 -8 -33 -313c-13 -126 -135 -217 -256 -217c-115 0 -208 78 -208 194
c0 7 0 15 33 322zM463 838l-74 -135c-14 -27 -30 -58 -77 -58c-50 0 -71 27 -71 63c0 17 5 34 13 47l73 136c15 28 40 52 78 52c46 0 68 -23 68 -63c0 -15 -4 -30 -10 -42z" />
    <glyph glyph-name="omegatonos" unicode="&#x3ce;" horiz-adv-x="652" 
d="M407 -8c-51 0 -96 48 -105 130c-23 -76 -79 -129 -130 -129c-84 0 -158 82 -158 207c0 137 62 282 166 368c23 19 43 19 58 19c40 0 62 -28 62 -62c-3 -33 -13 -44 -26 -58c-65 -70 -102 -162 -102 -250c0 -48 20 -72 40 -72c18 0 38 22 42 64l12 111c6 55 29 83 69 83
c34 0 50 -20 50 -60c0 -6 -2 -30 -13 -134c0 -2 -1 -5 -1 -7v-6c0 -34 15 -51 31 -51c52 0 62 103 62 137c0 89 -32 148 -61 190c-11 27 -12 34 -12 46c4 38 34 71 77 71c13 0 35 -1 53 -19c58 -56 98 -147 98 -268c0 -129 -63 -310 -212 -310zM516 838l-74 -135
c-14 -27 -30 -58 -77 -58c-50 0 -71 27 -71 63c0 17 5 34 13 47l73 136c15 28 40 52 78 52c46 0 68 -23 68 -63c0 -15 -4 -30 -10 -42z" />
    <glyph glyph-name="A.smcp" horiz-adv-x="627" 
d="M314 364l-52 -90h89c-6 17 -13 45 -37 90zM441 49l-36 86h-226l-44 -75l1 3c-18 -42 -47 -63 -88 -63c-47 0 -66 30 -66 65c0 17 6 34 13 48l243 417c22 45 58 68 100 68c44 0 74 -23 86 -67c56 -138 109 -280 164 -419c3 -10 5 -19 5 -27c0 -50 -36 -85 -84 -85
c-35 0 -60 17 -68 49z" />
    <glyph glyph-name="B.smcp" horiz-adv-x="578" 
d="M73 500c6 58 36 87 90 87h162c101 0 192 -41 192 -145c0 -49 -19 -91 -49 -121c43 -29 69 -79 69 -125c0 -121 -122 -190 -229 -196h-191c-29 0 -51 4 -63 15c-16 11 -25 32 -25 58c0 5 0 10 44 427zM201 245l-9 -91h105c43 0 68 22 70 45c0 26 -22 46 -73 46h-93z
M213 354h92c39 0 58 21 60 41c0 23 -14 39 -41 39h-103z" />
    <glyph glyph-name="C.smcp" horiz-adv-x="615" 
d="M445 195c18 18 35 23 55 23c49 0 70 -29 70 -64c0 -33 -15 -61 -37 -79c-69 -55 -143 -84 -228 -84c-172 0 -282 109 -282 267c0 199 160 345 351 345c82 0 154 -28 210 -85c16 -16 25 -35 25 -56c0 -48 -39 -89 -86 -89c-18 0 -44 9 -56 24c-27 29 -68 43 -112 43
c-95 0 -167 -69 -167 -158c0 -82 57 -133 137 -133c44 0 86 17 120 46z" />
    <glyph glyph-name="D.smcp" horiz-adv-x="635" 
d="M74 500c6 58 40 87 105 87h177c135 0 245 -89 245 -254c0 -199 -141 -332 -324 -333h-173c-54 0 -75 9 -75 57c0 7 0 15 45 443zM329 434h-107l-29 -280h95c98 0 152 71 152 161c0 85 -54 119 -111 119z" />
    <glyph glyph-name="E.smcp" horiz-adv-x="522" 
d="M74 503c6 56 36 84 89 84h270c48 0 71 -19 71 -61c0 -59 -34 -92 -87 -92h-197l-7 -71h155c48 0 72 -13 72 -54c0 -56 -35 -79 -86 -79h-155l-8 -76h205c51 0 76 -21 76 -64c0 -57 -38 -90 -92 -90h-278c-58 0 -74 12 -74 53c0 8 1 18 46 450z" />
    <glyph glyph-name="F.smcp" horiz-adv-x="496" 
d="M73 500c6 58 36 87 89 87h263c47 0 71 -20 71 -62c0 -58 -35 -91 -87 -91h-189l-10 -93h132c47 0 70 -21 70 -63c0 -58 -34 -92 -86 -92h-132l-12 -115c-5 -47 -33 -71 -85 -71c-46 0 -70 20 -70 59c0 4 1 8 46 441z" />
    <glyph glyph-name="G.smcp" horiz-adv-x="642" 
d="M370 347l163 -1c64 -4 79 -30 79 -72c0 -8 -1 -17 -2 -30c-14 -137 -137 -253 -319 -253c-167 0 -270 129 -270 265c0 171 145 342 336 342c74 0 156 -30 211 -95c8 -13 11 -22 11 -38c-4 -38 -46 -74 -88 -74c-15 0 -31 4 -45 14c-38 38 -71 43 -107 43
c-87 0 -159 -82 -159 -174c0 -83 66 -137 136 -137c48 0 98 26 130 86h-91c-39 0 -55 24 -55 57c3 33 30 67 70 67z" />
    <glyph glyph-name="H.smcp" horiz-adv-x="613" 
d="M75 512c6 53 35 78 85 78c47 0 70 -20 70 -62c0 -5 0 -10 -15 -151h189l14 135c6 53 35 78 86 78c46 0 70 -20 70 -63c0 -5 0 -10 -46 -450c-5 -51 -35 -77 -86 -77c-46 0 -70 21 -70 62c0 5 0 10 16 160h-189l-15 -145c-6 -51 -34 -77 -85 -77c-47 0 -70 21 -70 62
c0 5 0 10 46 450z" />
    <glyph glyph-name="I.smcp" horiz-adv-x="269" 
d="M75 511c6 53 34 78 85 78c47 0 70 -20 70 -62c0 -5 0 -11 -46 -449c-6 -53 -33 -78 -85 -78c-46 0 -70 20 -70 63c0 5 0 10 46 448z" />
    <glyph glyph-name="J.smcp" horiz-adv-x="434" 
d="M362 177c-12 -116 -100 -189 -213 -189c-58 0 -106 19 -144 56c-14 13 -20 31 -20 50c6 60 33 87 84 87c15 0 34 -10 58 -29c13 -8 24 -12 39 -12c23 0 39 14 41 37l35 334c6 53 33 78 85 78c47 0 71 -20 71 -63c0 -5 0 -10 -36 -349z" />
    <glyph glyph-name="K.smcp" horiz-adv-x="622" 
d="M77 521c5 48 33 71 84 71c47 0 71 -19 71 -59c0 -4 -1 -8 -18 -177l259 212c18 14 37 23 53 23c40 0 72 -35 72 -74c-2 -27 -12 -47 -28 -60l-172 -133l152 -189c16 -15 21 -37 21 -54c-6 -55 -66 -82 -87 -82c-34 0 -45 13 -59 30l-154 187l-78 -62l-9 -82
c-5 -47 -32 -72 -83 -72c-48 0 -72 21 -72 60c0 4 1 8 48 461z" />
    <glyph glyph-name="L.smcp" horiz-adv-x="536" 
d="M74 512c6 53 35 78 85 78c47 0 70 -20 70 -62c0 -5 0 -10 -38 -374h240c48 0 71 -22 71 -63c0 -55 -33 -91 -87 -91h-306c-53 0 -79 27 -79 77c0 6 0 12 44 435z" />
    <glyph glyph-name="M.smcp" horiz-adv-x="778" 
d="M338 509l46 -227c31 67 66 161 96 227c26 57 64 88 114 88c55 0 87 -33 89 -100l40 -416c-1 -59 -41 -80 -85 -80c-45 0 -69 27 -72 71l-19 248c-35 -77 -74 -175 -110 -253c-21 -44 -49 -67 -85 -67c-37 0 -62 23 -71 67l-53 254c-25 -77 -51 -170 -75 -245
c-12 -50 -36 -75 -86 -75c-42 0 -70 21 -70 64c0 12 2 23 6 32l129 401c21 66 56 100 111 100c48 0 83 -33 95 -89z" />
    <glyph glyph-name="N.smcp" horiz-adv-x="641" 
d="M75 514c5 55 34 84 84 84c34 0 59 -16 78 -50c85 -119 100 -142 187 -260l24 231c5 51 33 78 83 78c48 0 71 -23 71 -65c0 -4 -1 -8 -47 -448c-6 -56 -33 -84 -85 -84c-31 0 -57 14 -75 43c-83 116 -104 143 -189 260l-23 -224c-6 -53 -34 -79 -85 -79
c-47 0 -70 20 -70 63c0 5 0 11 47 451z" />
    <glyph glyph-name="O.smcp" horiz-adv-x="665" 
d="M360 592c161 0 272 -113 272 -267c0 -185 -157 -333 -335 -333c-175 0 -275 119 -275 266c0 186 160 334 338 334zM344 438c-94 0 -164 -72 -164 -159c0 -74 51 -134 135 -134c93 0 156 80 156 162c0 73 -49 131 -127 131z" />
    <glyph glyph-name="P.smcp" horiz-adv-x="564" 
d="M75 508c6 55 35 80 89 80h180c141 0 204 -90 204 -186c0 -142 -115 -240 -243 -241h-114l-8 -83c-6 -53 -33 -78 -85 -78c-46 0 -69 20 -69 62c0 5 0 10 46 446zM316 435h-96l-12 -120h110c51 0 72 28 75 63c0 29 -19 57 -77 57z" />
    <glyph glyph-name="Q.smcp" horiz-adv-x="665" 
d="M360 592c161 0 272 -113 272 -267c0 -74 -24 -144 -66 -199c2 -4 8 -9 11 -14c10 -13 16 -28 16 -45c-4 -47 -34 -84 -82 -84c-16 0 -35 4 -50 21l-18 20c-44 -21 -93 -32 -146 -32c-175 0 -275 119 -275 266c0 186 160 334 338 334zM344 438c-94 0 -164 -72 -164 -159
c0 -74 51 -134 135 -134c6 0 12 0 18 1c-7 12 -17 34 -17 51c0 45 48 85 89 85c17 0 44 -18 58 -31c5 18 9 36 9 54c0 74 -50 133 -128 133z" />
    <glyph glyph-name="R.smcp" horiz-adv-x="572" 
d="M75 517c6 54 40 80 103 80h134c139 0 229 -55 229 -175c0 -82 -38 -152 -107 -191c19 -36 38 -68 53 -99c11 -14 19 -38 19 -51c0 -55 -38 -82 -87 -82c-27 0 -46 13 -66 42l-81 142h-78l-11 -98c-6 -57 -34 -85 -85 -85c-47 0 -70 22 -70 68c0 5 0 11 47 449zM333 443
h-112l-11 -107h112c38 0 62 29 65 56c0 28 -16 51 -54 51z" />
    <glyph glyph-name="S.smcp" horiz-adv-x="505" 
d="M246 124c28 0 50 10 53 36c-15 60 -253 101 -253 249c13 123 122 188 240 188c52 0 107 -10 156 -37c24 -14 34 -36 34 -58c-4 -39 -31 -70 -76 -70c-52 0 -88 30 -148 30c-26 0 -47 -9 -50 -36c0 -68 260 -98 260 -248c0 -134 -136 -187 -247 -187
c-76 0 -133 24 -185 59c-18 12 -25 34 -25 55c5 53 43 74 79 74c60 0 84 -55 162 -55z" />
    <glyph glyph-name="T.smcp" horiz-adv-x="515" 
d="M190 434h-86c-50 0 -73 21 -73 63c0 56 35 90 89 90h328c47 0 71 -20 71 -62c0 -58 -35 -91 -87 -91h-87l-37 -352c-6 -55 -34 -82 -85 -82c-46 0 -71 22 -71 67c0 5 0 10 38 367z" />
    <glyph glyph-name="U.smcp" horiz-adv-x="624" 
d="M67 506c6 57 35 83 89 83c49 0 73 -21 73 -67c0 -87 -24 -170 -24 -255c0 -88 40 -116 90 -116c56 0 99 33 112 155l21 200c6 57 36 83 89 83c48 0 75 -21 75 -68c0 -5 0 -10 -23 -223c-24 -230 -144 -307 -298 -307c-130 0 -229 63 -229 245c0 19 1 40 25 270z" />
    <glyph glyph-name="V.smcp" horiz-adv-x="550" 
d="M190 535l73 -300c46 89 93 212 137 302c17 34 42 54 79 54c38 0 75 -36 75 -75c-1 -17 -6 -27 -11 -36l-203 -397c-25 -49 -60 -83 -101 -83c-39 0 -65 29 -79 75l-126 408c-1 6 -2 12 -2 19c0 55 35 90 88 90c37 0 61 -19 70 -57z" />
    <glyph glyph-name="W.smcp" horiz-adv-x="795" 
d="M200 528l26 -268l105 273c16 41 48 65 95 65c48 0 75 -24 82 -65l43 -267c26 74 55 188 79 262c14 46 42 72 89 72c40 0 72 -29 72 -70c0 -3 -1 -6 -7 -31c-47 -138 -97 -280 -145 -420c-16 -46 -60 -79 -108 -79c-40 0 -84 21 -91 75c-23 118 -21 123 -45 245l-93 -234
c-25 -61 -71 -88 -112 -88c-47 0 -84 35 -91 87l-57 417v19c5 48 45 77 86 77c45 0 68 -23 72 -70z" />
    <glyph glyph-name="X.smcp" horiz-adv-x="547" 
d="M30 139l154 161l-102 153c-8 12 -13 28 -13 43c0 47 42 86 87 86c31 0 53 -13 68 -39l58 -123l87 125c18 26 45 38 74 38c41 0 71 -29 71 -69c-2 -26 -10 -44 -26 -61l-134 -148l120 -162c13 -17 18 -37 18 -56c0 -53 -32 -87 -80 -87c-32 0 -61 15 -77 46l-83 137
c-37 -45 -74 -93 -111 -139c-23 -28 -50 -42 -79 -42c-42 0 -64 19 -64 58c0 31 14 57 32 79z" />
    <glyph glyph-name="Y.smcp" horiz-adv-x="540" 
d="M174 190c-43 93 -90 190 -134 285c-5 10 -7 21 -7 33c0 52 34 87 82 87c30 0 50 -13 62 -41l94 -225c44 62 95 164 137 224c20 28 44 42 75 42c44 0 67 -21 67 -60c0 -20 -5 -38 -16 -54l-204 -294l-11 -104c-6 -57 -34 -83 -86 -83c-47 0 -71 21 -71 67c0 5 0 10 12 123
z" />
    <glyph glyph-name="Z.smcp" horiz-adv-x="555" 
d="M22 142l274 293h-170c-47 0 -72 21 -72 63c0 55 35 90 88 90h313c59 0 82 -27 82 -63c-3 -32 -16 -56 -34 -79l-273 -292h202c48 0 72 -21 72 -62c0 -56 -34 -92 -88 -92h-351c-44 0 -68 22 -68 66c0 31 10 56 25 76z" />
    <glyph glyph-name="Alpha.smcp" horiz-adv-x="627" 
d="M314 364l-52 -90h89c-6 17 -13 45 -37 90zM441 49l-36 86h-226l-44 -75l1 3c-18 -42 -47 -63 -88 -63c-47 0 -66 30 -66 65c0 17 6 34 13 48l243 417c22 45 58 68 100 68c44 0 74 -23 86 -67c56 -138 109 -280 164 -419c3 -10 5 -19 5 -27c0 -50 -36 -85 -84 -85
c-35 0 -60 17 -68 49z" />
    <glyph glyph-name="Beta.smcp" horiz-adv-x="578" 
d="M73 500c6 58 36 87 90 87h162c101 0 192 -41 192 -145c0 -49 -19 -91 -49 -121c43 -29 69 -79 69 -125c0 -121 -122 -190 -229 -196h-191c-29 0 -51 4 -63 15c-16 11 -25 32 -25 58c0 5 0 10 44 427zM201 245l-9 -91h105c43 0 68 22 70 45c0 26 -22 46 -73 46h-93z
M213 354h92c39 0 58 21 60 41c0 23 -14 39 -41 39h-103z" />
    <glyph glyph-name="Gamma.smcp" horiz-adv-x="506" 
d="M74 499c6 57 36 87 89 87h281c45 0 71 -33 71 -71c-5 -57 -35 -83 -87 -83h-207l-37 -354c-6 -53 -34 -78 -86 -78c-46 0 -69 20 -69 62c0 5 0 11 45 437z" />
    <glyph glyph-name="Delta.smcp" horiz-adv-x="612" 
d="M306 347l-103 -190h167c-20 61 -34 102 -64 190zM472 0h-412c-53 0 -80 17 -80 56c0 16 5 31 11 45l241 430c23 41 56 67 98 67c43 0 76 -24 85 -71l157 -426c3 -9 4 -17 4 -24c0 -60 -55 -77 -104 -77z" />
    <glyph glyph-name="Epsilon.smcp" horiz-adv-x="522" 
d="M74 503c6 56 36 84 89 84h270c48 0 71 -19 71 -61c0 -59 -34 -92 -87 -92h-197l-7 -71h155c48 0 72 -13 72 -54c0 -56 -35 -79 -86 -79h-155l-8 -76h205c51 0 76 -21 76 -64c0 -57 -38 -90 -92 -90h-278c-58 0 -74 12 -74 53c0 8 1 18 46 450z" />
    <glyph glyph-name="Zeta.smcp" horiz-adv-x="555" 
d="M22 142l274 293h-170c-47 0 -72 21 -72 63c0 55 35 90 88 90h313c59 0 82 -27 82 -63c-3 -32 -16 -56 -34 -79l-273 -292h202c48 0 72 -21 72 -62c0 -56 -34 -92 -88 -92h-351c-44 0 -68 22 -68 66c0 31 10 56 25 76z" />
    <glyph glyph-name="Eta.smcp" horiz-adv-x="613" 
d="M75 512c6 53 35 78 85 78c47 0 70 -20 70 -62c0 -5 0 -10 -15 -151h189l14 135c6 53 35 78 86 78c46 0 70 -20 70 -63c0 -5 0 -10 -46 -450c-5 -51 -35 -77 -86 -77c-46 0 -70 21 -70 62c0 5 0 10 16 160h-189l-15 -145c-6 -51 -34 -77 -85 -77c-47 0 -70 21 -70 62
c0 5 0 10 46 450z" />
    <glyph glyph-name="Theta.smcp" horiz-adv-x="665" 
d="M336 214h-37c-47 0 -70 24 -70 64c0 54 34 90 86 91h37c48 0 71 -24 71 -65c0 -55 -34 -89 -87 -90zM360 592c161 0 272 -113 272 -267c0 -185 -157 -333 -335 -333c-175 0 -275 119 -275 266c0 186 160 334 338 334zM344 438c-94 0 -164 -72 -164 -159
c0 -74 51 -134 135 -134c93 0 156 80 156 162c0 73 -49 131 -127 131z" />
    <glyph glyph-name="Iota.smcp" horiz-adv-x="269" 
d="M75 511c6 53 34 78 85 78c47 0 70 -20 70 -62c0 -5 0 -11 -46 -449c-6 -53 -33 -78 -85 -78c-46 0 -70 20 -70 63c0 5 0 10 46 448z" />
    <glyph glyph-name="Kappa.smcp" horiz-adv-x="622" 
d="M77 521c5 48 33 71 84 71c47 0 71 -19 71 -59c0 -4 -1 -8 -18 -177l259 212c18 14 37 23 53 23c40 0 72 -35 72 -74c-2 -27 -12 -47 -28 -60l-172 -133l152 -189c16 -15 21 -37 21 -54c-6 -55 -66 -82 -87 -82c-34 0 -45 13 -59 30l-154 187l-78 -62l-9 -82
c-5 -47 -32 -72 -83 -72c-48 0 -72 21 -72 60c0 4 1 8 48 461z" />
    <glyph glyph-name="Lambda.smcp" horiz-adv-x="627" 
d="M509 0c-35 0 -60 17 -68 49l-127 316c-59 -101 -117 -202 -178 -304c-19 -37 -50 -61 -88 -61c-47 0 -66 30 -66 65c0 17 6 34 13 48l243 417c22 45 58 68 100 68c44 0 74 -23 86 -67c56 -138 109 -280 164 -419c3 -10 5 -19 5 -27c0 -50 -36 -85 -84 -85z" />
    <glyph glyph-name="Mu.smcp" horiz-adv-x="778" 
d="M338 509l46 -227c31 67 66 161 96 227c26 57 64 88 114 88c55 0 87 -33 89 -100l40 -416c-1 -59 -41 -80 -85 -80c-45 0 -69 27 -72 71l-19 248c-35 -77 -74 -175 -110 -253c-21 -44 -49 -67 -85 -67c-37 0 -62 23 -71 67l-53 254c-25 -77 -51 -170 -75 -245
c-12 -50 -36 -75 -86 -75c-42 0 -70 21 -70 64c0 12 2 23 6 32l129 401c21 66 56 100 111 100c48 0 83 -33 95 -89z" />
    <glyph glyph-name="Nu.smcp" horiz-adv-x="641" 
d="M75 514c5 55 34 84 84 84c34 0 59 -16 78 -50c85 -119 100 -142 187 -260l24 231c5 51 33 78 83 78c48 0 71 -23 71 -65c0 -4 -1 -8 -47 -448c-6 -56 -33 -84 -85 -84c-31 0 -57 14 -75 43c-83 116 -104 143 -189 260l-23 -224c-6 -53 -34 -79 -85 -79
c-47 0 -70 20 -70 63c0 5 0 11 47 451z" />
    <glyph glyph-name="Xi.smcp" horiz-adv-x="621" 
d="M138 588h396c47 0 71 -20 71 -63c0 -58 -36 -90 -87 -90h-396c-47 0 -70 21 -70 62c0 55 32 91 86 91zM178 366h263c47 0 71 -15 71 -57c0 -54 -35 -80 -85 -80h-263c-47 0 -71 15 -71 57c0 55 35 80 85 80zM86 156h411c50 0 75 -21 75 -64c0 -57 -37 -90 -91 -90h-411
c-50 0 -75 19 -75 62c0 61 38 92 91 92z" />
    <glyph glyph-name="Omicron.smcp" horiz-adv-x="665" 
d="M360 592c161 0 272 -113 272 -267c0 -185 -157 -333 -335 -333c-175 0 -275 119 -275 266c0 186 160 334 338 334zM344 438c-94 0 -164 -72 -164 -159c0 -74 51 -134 135 -134c93 0 156 80 156 162c0 73 -49 131 -127 131z" />
    <glyph glyph-name="Pi.smcp" horiz-adv-x="612" 
d="M159 584h343c39 0 70 -34 70 -72l-45 -434c-6 -53 -34 -78 -84 -78c-48 0 -71 20 -71 62c0 5 0 11 37 366h-189l-36 -350c-6 -53 -35 -78 -87 -78c-44 0 -68 20 -68 63c0 5 0 10 46 442c6 53 34 79 84 79z" />
    <glyph glyph-name="Rho.smcp" horiz-adv-x="564" 
d="M75 508c6 55 35 80 89 80h180c141 0 204 -90 204 -186c0 -142 -115 -240 -243 -241h-114l-8 -83c-6 -53 -33 -78 -85 -78c-46 0 -69 20 -69 62c0 5 0 10 46 446zM316 435h-96l-12 -120h110c51 0 72 28 75 63c0 29 -19 57 -77 57z" />
    <glyph glyph-name="Sigma.smcp" horiz-adv-x="567" 
d="M290 444l67 -91c7 -15 19 -20 19 -44c0 -29 -14 -37 -26 -53l-110 -112h206c47 0 70 -12 70 -53c0 -57 -34 -91 -86 -91h-359c-45 0 -68 22 -68 66c0 31 10 57 26 77l169 159l-118 141c-13 25 -19 45 -19 71c5 50 38 74 97 74h322c47 0 71 -21 71 -63
c0 -58 -35 -81 -87 -81h-174z" />
    <glyph glyph-name="Tau.smcp" horiz-adv-x="515" 
d="M190 434h-86c-50 0 -73 21 -73 63c0 56 35 90 89 90h328c47 0 71 -20 71 -62c0 -58 -35 -91 -87 -91h-87l-37 -352c-6 -55 -34 -82 -85 -82c-46 0 -71 22 -71 67c0 5 0 10 38 367z" />
    <glyph glyph-name="Upsilon.smcp" horiz-adv-x="540" 
d="M174 190c-43 93 -90 190 -134 285c-5 10 -7 21 -7 33c0 52 34 87 82 87c30 0 50 -13 62 -41l94 -225c44 62 95 164 137 224c20 28 44 42 75 42c44 0 67 -21 67 -60c0 -20 -5 -38 -16 -54l-204 -294l-11 -104c-6 -57 -34 -83 -86 -83c-47 0 -71 21 -71 67c0 5 0 10 12 123
z" />
    <glyph glyph-name="Phi.smcp" horiz-adv-x="643" 
d="M262 509l1 7c5 52 34 76 86 76s71 -42 71 -61c0 0 0 -5 -2 -22c134 -9 197 -80 197 -182c0 -142 -122 -217 -241 -230l-2 -18c-6 -53 -33 -79 -85 -79c-47 0 -71 21 -71 64c0 5 0 10 3 33c-131 12 -200 81 -200 180c0 141 124 218 243 232zM234 238l13 130
c-49 0 -77 -32 -80 -71c0 -30 23 -59 67 -59zM402 368l-13 -130c48 0 77 34 81 68c0 35 -20 62 -68 62z" />
    <glyph glyph-name="Chi.smcp" horiz-adv-x="547" 
d="M30 139l154 161l-102 153c-8 12 -13 28 -13 43c0 47 42 86 87 86c31 0 53 -13 68 -39l58 -123l87 125c18 26 45 38 74 38c41 0 71 -29 71 -69c-2 -26 -10 -44 -26 -61l-134 -148l120 -162c13 -17 18 -37 18 -56c0 -53 -32 -87 -80 -87c-32 0 -61 15 -77 46l-83 137
c-37 -45 -74 -93 -111 -139c-23 -28 -50 -42 -79 -42c-42 0 -64 19 -64 58c0 31 14 57 32 79z" />
    <glyph glyph-name="Psi.smcp" horiz-adv-x="661" 
d="M399 262c54 18 74 83 83 167l5 55c5 52 33 77 86 77c46 0 70 -20 70 -62c0 -5 0 -10 -8 -81c-18 -172 -94 -283 -251 -300l-4 -41c-6 -51 -32 -77 -85 -77c-46 0 -70 21 -70 62c0 5 0 10 5 57c-135 18 -192 104 -192 241c0 18 1 38 10 124c6 50 35 77 87 77
c44 0 68 -22 68 -63c0 -40 -8 -76 -8 -113c0 -57 13 -104 50 -121l28 260c5 52 34 78 85 78c48 0 70 -21 70 -64c0 -4 -1 -9 -29 -276z" />
    <glyph glyph-name="Omega.smcp" horiz-adv-x="738" 
d="M277 148l10 -7c16 -12 36 -27 36 -62c0 -45 -25 -79 -74 -79h-174c-45 0 -67 23 -67 63c0 39 20 89 69 89h38v4c-43 32 -79 66 -79 137c0 180 160 312 352 312c199 0 313 -116 313 -261c0 -85 -52 -134 -120 -187v-4h38c36 0 53 -26 53 -62c0 -49 -26 -91 -82 -91h-187
c-33 0 -41 11 -41 37c0 48 13 84 58 108c73 34 123 89 123 177c0 79 -63 128 -171 128c-100 0 -177 -53 -177 -166c0 -62 20 -97 82 -136z" />
    <glyph glyph-name="Alphatonos.smcp" horiz-adv-x="627" 
d="M314 364l-52 -90h89c-6 17 -13 45 -37 90zM441 49l-36 86h-226l-44 -75l1 3c-18 -42 -47 -63 -88 -63c-47 0 -66 30 -66 65c0 17 6 34 13 48l243 417c22 45 58 68 100 68c44 0 74 -23 86 -67c56 -138 109 -280 164 -419c3 -10 5 -19 5 -27c0 -50 -36 -85 -84 -85
c-35 0 -60 17 -68 49z" />
    <glyph glyph-name="Epsilontonos.smcp" horiz-adv-x="522" 
d="M74 503c6 56 36 84 89 84h270c48 0 71 -19 71 -61c0 -59 -34 -92 -87 -92h-197l-7 -71h155c48 0 72 -13 72 -54c0 -56 -35 -79 -86 -79h-155l-8 -76h205c51 0 76 -21 76 -64c0 -57 -38 -90 -92 -90h-278c-58 0 -74 12 -74 53c0 8 1 18 46 450z" />
    <glyph glyph-name="Iotatonos.smcp" horiz-adv-x="269" 
d="M75 511c6 53 34 78 85 78c47 0 70 -20 70 -62c0 -5 0 -11 -46 -449c-6 -53 -33 -78 -85 -78c-46 0 -70 20 -70 63c0 5 0 10 46 448z" />
    <glyph glyph-name="Etatonos.smcp" horiz-adv-x="613" 
d="M75 512c6 53 35 78 85 78c47 0 70 -20 70 -62c0 -5 0 -10 -15 -151h189l14 135c6 53 35 78 86 78c46 0 70 -20 70 -63c0 -5 0 -10 -46 -450c-5 -51 -35 -77 -86 -77c-46 0 -70 21 -70 62c0 5 0 10 16 160h-189l-15 -145c-6 -51 -34 -77 -85 -77c-47 0 -70 21 -70 62
c0 5 0 10 46 450z" />
    <glyph glyph-name="Omicrontonos.smcp" horiz-adv-x="665" 
d="M360 592c161 0 272 -113 272 -267c0 -185 -157 -333 -335 -333c-175 0 -275 119 -275 266c0 186 160 334 338 334zM344 438c-94 0 -164 -72 -164 -159c0 -74 51 -134 135 -134c93 0 156 80 156 162c0 73 -49 131 -127 131z" />
    <glyph glyph-name="Upsilontonos.smcp" horiz-adv-x="540" 
d="M174 190c-43 93 -90 190 -134 285c-5 10 -7 21 -7 33c0 52 34 87 82 87c30 0 50 -13 62 -41l94 -225c44 62 95 164 137 224c20 28 44 42 75 42c44 0 67 -21 67 -60c0 -20 -5 -38 -16 -54l-204 -294l-11 -104c-6 -57 -34 -83 -86 -83c-47 0 -71 21 -71 67c0 5 0 10 12 123
z" />
    <glyph glyph-name="Omegatonos.smcp" horiz-adv-x="738" 
d="M277 148l10 -7c16 -12 36 -27 36 -62c0 -45 -25 -79 -74 -79h-174c-45 0 -67 23 -67 63c0 39 20 89 69 89h38v4c-43 32 -79 66 -79 137c0 180 160 312 352 312c199 0 313 -116 313 -261c0 -85 -52 -134 -120 -187v-4h38c36 0 53 -26 53 -62c0 -49 -26 -91 -82 -91h-187
c-33 0 -41 11 -41 37c0 48 13 84 58 108c73 34 123 89 123 177c0 79 -63 128 -171 128c-100 0 -177 -53 -177 -166c0 -62 20 -97 82 -136z" />
    <glyph glyph-name="Iotadieresis.smcp" horiz-adv-x="269" 
d="M75 511c6 53 34 78 85 78c47 0 70 -20 70 -62c0 -5 0 -11 -46 -449c-6 -53 -33 -78 -85 -78c-46 0 -70 20 -70 63c0 5 0 10 46 448z" />
    <glyph glyph-name="Upsilondieresis.smcp" horiz-adv-x="540" 
d="M174 190c-43 93 -90 190 -134 285c-5 10 -7 21 -7 33c0 52 34 87 82 87c30 0 50 -13 62 -41l94 -225c44 62 95 164 137 224c20 28 44 42 75 42c44 0 67 -21 67 -60c0 -20 -5 -38 -16 -54l-204 -294l-11 -104c-6 -57 -34 -83 -86 -83c-47 0 -71 21 -71 67c0 5 0 10 12 123
z" />
    <glyph glyph-name="sigma1.smcp" horiz-adv-x="567" 
d="M290 444l67 -91c7 -15 19 -20 19 -44c0 -29 -14 -37 -26 -53l-110 -112h206c47 0 70 -12 70 -53c0 -57 -34 -91 -86 -91h-359c-45 0 -68 22 -68 66c0 31 10 57 26 77l169 159l-118 141c-13 25 -19 45 -19 71c5 50 38 74 97 74h322c47 0 71 -21 71 -63
c0 -58 -35 -81 -87 -81h-174z" />
    <glyph glyph-name="iotadieresistonos.smcp" horiz-adv-x="269" 
d="M75 511c6 53 34 78 85 78c47 0 70 -20 70 -62c0 -5 0 -11 -46 -449c-6 -53 -33 -78 -85 -78c-46 0 -70 20 -70 63c0 5 0 10 46 448z" />
    <glyph glyph-name="upsilondieresistonos.smcp" horiz-adv-x="540" 
d="M174 190c-43 93 -90 190 -134 285c-5 10 -7 21 -7 33c0 52 34 87 82 87c30 0 50 -13 62 -41l94 -225c44 62 95 164 137 224c20 28 44 42 75 42c44 0 67 -21 67 -60c0 -20 -5 -38 -16 -54l-204 -294l-11 -104c-6 -57 -34 -83 -86 -83c-47 0 -71 21 -71 67c0 5 0 10 12 123
z" />
    <glyph glyph-name="florin" unicode="&#x192;" horiz-adv-x="405" 
d="M277 435l-50 -475c-17 -110 -120 -170 -210 -170c-50 0 -76 23 -76 65c0 4 1 7 1 11c6 49 46 64 70 64c33 0 63 30 66 62l46 444c-47 1 -73 14 -73 55c0 56 38 81 89 81l7 68c11 111 121 170 211 170c51 0 77 -23 77 -65s-31 -75 -72 -75c-33 0 -60 -30 -63 -62l-3 -36
c3 0 3 1 7 1c50 0 76 -14 76 -56c0 -58 -39 -82 -91 -82h-12z" />
    <glyph glyph-name="yen" unicode="&#xa5;" horiz-adv-x="653" 
d="M483 470h68c47 0 69 -22 69 -64c0 -54 -32 -90 -85 -90h-135l-4 -40h135c46 0 68 -21 68 -61c0 -58 -32 -94 -85 -94h-135l-3 -35c-5 -59 -35 -86 -90 -86c-48 0 -73 22 -73 68c0 6 0 12 4 53h-122c-46 0 -70 22 -70 64c0 55 34 91 87 91h122l4 40h-122
c-46 0 -70 21 -70 63c0 57 35 91 86 91h57c-29 61 -58 122 -86 183c-5 12 -9 24 -9 38c0 52 36 88 86 88c31 0 54 -14 64 -43l92 -266h7c44 67 98 205 142 266c20 28 45 43 77 43c47 0 70 -21 70 -61c0 -24 -6 -43 -17 -59z" />
    <glyph glyph-name="Euro" unicode="&#x20ac;" horiz-adv-x="782" 
d="M127 270h-26c-49 0 -74 4 -74 42c0 55 39 65 85 65h11l2 15c1 9 2 18 4 28h-12c-49 0 -74 4 -74 42c0 55 39 65 85 65h29c59 151 188 275 378 275c85 0 159 -27 219 -87c16 -17 24 -37 24 -60c-6 -59 -44 -91 -88 -91c-20 0 -46 9 -59 24c-27 31 -71 47 -117 47
c-82 0 -142 -45 -179 -108h217c49 0 74 -4 74 -43c0 -56 -38 -64 -85 -64h-245l-5 -43h135c48 0 74 -4 74 -42c0 -58 -40 -65 -85 -65h-107c24 -64 75 -109 157 -109c46 0 90 11 125 43c20 18 36 24 57 24c52 0 73 -32 73 -70c0 -32 -15 -61 -38 -80
c-71 -58 -151 -89 -238 -89c-193 0 -294 127 -317 281z" />
    <glyph glyph-name="dollar" unicode="$" horiz-adv-x="567" 
d="M285 797l3 26c5 44 8 63 55 63c33 0 41 -11 41 -35c0 -10 -2 -22 -3 -36l-2 -21c42 -8 80 -25 113 -52c24 -19 38 -42 38 -68c0 -48 -42 -94 -89 -94c-25 0 -43 10 -60 25l-20 14l-15 -136c107 -55 183 -106 183 -212c0 -145 -106 -249 -234 -276l-4 -42
c-4 -40 -8 -59 -54 -59c-34 0 -42 11 -42 35c0 9 1 19 2 31l3 29c-56 5 -107 23 -151 54c-26 18 -38 41 -38 69c6 63 34 87 86 87c20 0 40 -6 58 -17c17 -12 39 -22 63 -26l20 189c-85 42 -174 95 -174 205c0 128 109 227 221 247zM358 240c0 24 -8 40 -31 56l-14 -125
c24 14 41 37 45 69zM233 577v-6c0 -18 9 -31 24 -43l11 100c-20 -8 -32 -23 -35 -51z" />
    <glyph glyph-name="at" unicode="@" horiz-adv-x="788" 
d="M512 536c5 25 15 43 37 43s30 -11 30 -33c0 -85 -23 -165 -23 -245c0 -40 14 -57 34 -57c83 0 107 170 107 227c0 146 -101 234 -244 234c-218 0 -344 -197 -344 -383c0 -165 113 -269 263 -269c77 0 184 18 252 86c16 15 26 20 39 20c15 0 25 -8 25 -22
c-1 -14 -2 -25 -16 -39c-84 -84 -195 -111 -292 -111c-182 0 -343 124 -343 326c0 249 164 457 414 457c180 0 313 -102 313 -283c0 -109 -54 -310 -178 -310c-34 0 -66 17 -94 57c-43 -43 -82 -56 -122 -56c-103 0 -149 78 -149 165c0 115 77 237 198 237
c33 0 65 -13 93 -44zM481 298l18 174c-23 28 -50 40 -75 40c-86 0 -131 -90 -131 -160c0 -55 27 -105 92 -105c32 0 68 11 96 51z" />
    <glyph glyph-name="zero.tnum" 
d="M358 772h4c169 0 222 -169 222 -321c0 -183 -92 -462 -307 -462c-175 0 -228 167 -228 321c0 192 93 456 309 462zM294 147c94 0 127 208 127 289c0 85 -19 176 -77 176c-97 0 -131 -203 -131 -288c0 -84 20 -177 81 -177z" />
    <glyph glyph-name="one.tnum" 
d="M459 0h-354c-48 0 -70 20 -70 60c0 54 34 87 86 87h96c7 65 19 188 44 421c-19 -7 -37 -12 -55 -12c-38 0 -69 26 -69 65c0 45 35 78 75 89l151 40c40 -3 69 -30 69 -68c0 -37 -14 -146 -55 -535h98c48 0 72 -21 72 -62c0 -55 -36 -85 -88 -85z" />
    <glyph glyph-name="two.tnum" 
d="M95 532c15 150 141 237 259 237c108 0 209 -74 209 -189c0 -85 -46 -162 -95 -219c-74 -86 -100 -115 -176 -205h161c47 0 69 -22 69 -63c0 -55 -33 -90 -86 -93h-296c-57 0 -86 22 -86 64c0 29 13 54 29 72l277 329c22 27 36 57 39 86c0 40 -31 60 -64 60
c-36 0 -74 -24 -79 -74c-4 -35 -35 -88 -88 -88c-51 0 -73 45 -73 83z" />
    <glyph glyph-name="three.tnum" 
d="M346 772c123 0 197 -92 197 -189c0 -78 -48 -140 -106 -176c68 -39 97 -100 97 -165c0 -146 -138 -253 -269 -253c-88 0 -153 47 -185 99c-14 23 -21 49 -21 75c0 49 34 94 84 94c28 0 59 -18 69 -50c13 -39 38 -58 69 -58c42 0 87 28 93 82c0 41 -13 90 -57 97h-33
c-52 0 -78 15 -78 56c0 57 41 78 94 78c4 0 19 0 29 2c28 8 49 54 52 86c0 38 -14 66 -56 66c-59 0 -68 -42 -70 -50c-2 -12 -19 -54 -68 -54c-52 0 -76 21 -76 60c0 118 130 200 235 200z" />
    <glyph glyph-name="four.tnum" 
d="M319 168h-210c-55 0 -83 34 -83 75c0 27 13 53 29 72l269 371c30 42 67 64 112 64c53 0 92 -35 92 -95c0 -5 0 -10 -34 -331c45 0 67 -21 67 -63c0 -56 -32 -92 -83 -92l-8 -83c-6 -57 -37 -86 -89 -86c-44 0 -71 24 -71 71c0 5 0 10 9 97zM352 485l-109 -161h93z" />
    <glyph glyph-name="five.tnum" 
d="M298 748h210c45 0 70 -32 70 -72c0 -54 -35 -89 -87 -89h-166c-5 -23 -9 -36 -20 -77c163 0 235 -105 235 -222c0 -165 -135 -299 -295 -299c-124 0 -212 84 -212 150c5 57 44 84 81 84c22 0 46 -12 59 -34c18 -26 58 -44 93 -44c60 0 104 52 110 105
c0 58 -27 106 -90 106c-33 0 -61 -15 -91 -15c-41 0 -73 15 -73 64c0 31 3 16 75 270c13 45 50 73 101 73z" />
    <glyph glyph-name="six.tnum" 
d="M456 616c-50 -41 -114 -86 -150 -152c30 15 57 15 83 15c117 0 169 -91 169 -191c0 -159 -128 -299 -279 -299c-148 0 -218 113 -218 244c0 202 148 372 289 493c19 14 41 24 62 24c42 0 74 -25 74 -70v-10c-2 -20 -11 -37 -30 -54zM219 242c0 -50 26 -96 77 -98
c59 5 98 58 104 113c0 55 -23 102 -84 102c-65 0 -97 -64 -97 -117z" />
    <glyph glyph-name="seven.tnum" 
d="M201 749h315c41 0 77 -29 77 -75c0 -19 -7 -36 -14 -52l-295 -559c-22 -42 -53 -63 -90 -63c-50 0 -68 33 -68 68c0 19 6 37 14 52l249 467h-205c-53 0 -78 23 -78 67c0 64 40 95 95 95z" />
    <glyph glyph-name="eight.tnum" 
d="M178 412c-39 25 -62 76 -62 129c0 130 125 227 242 227c114 0 193 -75 193 -184c0 -72 -40 -133 -93 -166c48 -24 87 -97 87 -165c0 -144 -135 -264 -268 -264c-135 0 -221 90 -221 217c0 86 50 167 122 206zM313 330c-57 0 -91 -56 -91 -104c0 -44 27 -77 72 -77
c53 0 88 54 88 100s-28 81 -69 81zM326 485c32 0 57 34 61 69c0 41 -22 58 -46 58c-40 0 -65 -34 -65 -69c0 -32 17 -58 50 -58z" />
    <glyph glyph-name="nine.tnum" 
d="M184 125c61 46 124 100 170 159c-35 -12 -66 -17 -95 -17c-128 0 -191 107 -191 211c0 164 132 293 285 293c142 0 221 -105 221 -247c0 -218 -150 -402 -305 -521c-22 -16 -39 -19 -57 -19c-40 0 -69 29 -69 66c4 42 21 60 41 75zM332 613c-69 0 -105 -73 -105 -129
c0 -61 37 -94 82 -94c71 0 110 64 110 125c0 49 -26 98 -87 98z" />
    <glyph glyph-name="zero.onum.tnum" 
d="M342 629h4c158 0 229 -129 229 -270c0 -177 -111 -370 -299 -370c-160 0 -233 131 -233 274c0 184 117 362 299 366zM293 147c88 0 121 125 121 190c0 70 -28 133 -86 133c-91 0 -124 -122 -124 -190c0 -70 28 -133 89 -133z" />
    <glyph glyph-name="one.onum.tnum" 
d="M459 0h-354c-48 0 -70 20 -70 60c0 54 34 87 86 87h96c5 52 14 141 31 298c-10 -4 -23 -7 -35 -10c-7 -1 -15 -1 -20 -1c-38 0 -69 25 -69 64c0 45 35 79 75 89c141 36 142 40 151 40c37 0 59 -23 66 -46c2 -4 3 -12 3 -24c0 -10 -1 -23 -41 -410h97c48 0 72 -21 72 -62
c0 -55 -36 -85 -88 -85z" />
    <glyph glyph-name="two.onum.tnum" 
d="M81 407c15 142 141 228 259 228c109 0 209 -75 209 -191c0 -129 -120 -221 -205 -288h109c47 0 69 -22 69 -63c0 -55 -33 -93 -86 -93h-296c-57 0 -86 22 -86 64c0 32 16 58 33 78c278 219 294 237 298 276c0 40 -31 60 -64 60c-36 0 -74 -25 -79 -75
c-4 -34 -35 -87 -88 -87c-51 0 -73 44 -73 91z" />
    <glyph glyph-name="three.onum.tnum" 
d="M332 642c123 0 197 -92 197 -189c0 -78 -47 -140 -105 -176c66 -38 96 -99 96 -163c0 -147 -136 -255 -268 -255c-88 0 -153 47 -186 99c-14 23 -21 49 -21 75c0 49 34 94 84 94c28 0 59 -18 70 -50c12 -39 37 -58 68 -58c54 0 94 44 94 94c0 36 -17 79 -58 85h-33
c-52 0 -78 15 -78 56c0 57 41 78 94 78c4 0 19 0 30 2c34 15 53 64 53 96c0 34 -20 56 -57 56c-59 0 -69 -42 -71 -50c-2 -12 -18 -54 -67 -54c-52 0 -77 20 -77 60c0 118 130 200 235 200z" />
    <glyph glyph-name="four.onum.tnum" 
d="M310 52h-210c-55 0 -83 34 -83 76c0 26 11 53 28 71l269 371c31 42 68 63 113 63c53 0 92 -35 92 -93c0 -5 0 -10 -35 -331c45 -1 68 -21 68 -64c0 -56 -32 -91 -83 -91l-9 -83c-6 -57 -37 -87 -89 -87c-44 0 -71 25 -71 72c0 5 0 10 10 96zM342 359l-109 -150h93z" />
    <glyph glyph-name="five.onum.tnum" 
d="M284 608h210c46 0 70 -33 70 -74c-6 -61 -34 -87 -87 -87h-166c-5 -23 -8 -36 -20 -77c163 0 235 -105 235 -222c0 -165 -134 -299 -294 -299c-124 0 -213 84 -213 150c5 57 44 84 81 84c22 0 46 -12 60 -34c17 -26 57 -44 92 -44c65 0 111 62 111 119
c0 47 -29 92 -91 92c-33 0 -60 -15 -90 -15c-41 0 -73 14 -73 62c0 35 1 15 75 272c13 45 49 73 100 73z" />
    <glyph glyph-name="six.onum.tnum" 
d="M456 616c-50 -41 -114 -86 -150 -152c30 15 57 15 83 15c117 0 169 -91 169 -191c0 -159 -128 -299 -279 -299c-148 0 -218 113 -218 244c0 202 148 372 289 493c19 14 41 24 62 24c42 0 74 -25 74 -70c-2 -30 -11 -47 -30 -64zM219 242c0 -50 26 -96 77 -98
c59 5 98 58 104 113c0 55 -23 102 -84 102c-65 0 -97 -64 -97 -117z" />
    <glyph glyph-name="seven.onum.tnum" 
d="M187 622h315c41 0 76 -31 76 -78c-2 -21 -5 -34 -13 -49l-295 -559c-22 -42 -54 -63 -91 -63c-50 0 -68 33 -68 68c0 19 7 37 15 52l249 467h-205c-54 0 -79 23 -79 68c0 61 39 94 96 94z" />
    <glyph glyph-name="eight.onum.tnum" 
d="M178 412c-39 25 -62 76 -62 129c0 130 125 227 242 227c114 0 193 -75 193 -184c0 -72 -40 -133 -93 -166c48 -24 87 -97 87 -165c0 -144 -135 -264 -268 -264c-135 0 -221 90 -221 217c0 86 50 167 122 206zM313 330c-57 0 -91 -56 -91 -104c0 -44 27 -77 72 -77
c53 0 88 54 88 100s-28 81 -69 81zM326 485c32 0 57 34 61 69c0 41 -22 58 -46 58c-40 0 -65 -34 -65 -69c0 -32 17 -58 50 -58z" />
    <glyph glyph-name="nine.onum.tnum" 
d="M169 -19c61 46 124 100 170 159c-35 -12 -67 -17 -96 -17c-129 0 -191 108 -191 213c0 163 134 291 285 291c142 0 222 -105 222 -247c0 -215 -146 -400 -305 -521c-22 -16 -39 -19 -57 -19c-40 0 -69 29 -69 66c4 42 21 60 41 75zM316 464c-70 0 -104 -75 -104 -131
c0 -60 37 -92 82 -92c71 0 109 64 109 125c0 49 -26 98 -87 98z" />
    <glyph glyph-name="uni03BC" unicode="&#x3bc;" horiz-adv-x="552" 
d="M67 505c5 53 32 78 84 78c47 0 70 -21 70 -64c0 -4 -1 -9 -32 -314c0 -33 24 -55 58 -55c54 0 93 45 99 100l27 255c5 53 33 78 86 78c46 0 70 -21 70 -65c0 -4 -1 -8 -46 -435c-6 -57 -35 -83 -85 -83c-27 0 -54 19 -54 58v6c-16 -41 -57 -67 -101 -67
c-38 0 -66 30 -70 66l-20 -195c-6 -53 -34 -78 -87 -78c-45 0 -67 21 -67 64c0 5 1 9 68 651z" />
    <glyph glyph-name="uni0394" unicode="&#x394;" horiz-adv-x="663" 
d="M344 504l-157 -338h251zM523 0h-465c-56 0 -83 18 -83 58c0 17 6 33 12 47l-2 -3c94 201 191 403 286 605c22 48 57 73 102 73c46 0 80 -22 90 -72c53 -198 112 -408 166 -605c2 -10 3 -20 3 -28c-5 -52 -42 -75 -109 -75z" />
    <glyph glyph-name="uni03A9" unicode="&#x3a9;" horiz-adv-x="786" 
d="M41 396c0 205 168 404 398 404c228 0 325 -148 325 -327c0 -109 -47 -250 -147 -314c-1 -1 -3 -2 -3 -3c0 -2 2 -2 3 -2h36c37 -4 55 -28 55 -64c0 -49 -27 -90 -83 -90h-167c-44 0 -60 20 -60 55c0 42 23 70 62 93c94 55 144 178 144 287c0 108 -57 210 -182 210
c-144 0 -228 -142 -228 -285c0 -87 29 -172 90 -212c20 -13 45 -32 45 -69c-5 -53 -25 -79 -75 -79h-167c-45 0 -66 22 -66 62c0 44 23 86 72 92h36c1 0 3 0 3 2c0 1 -2 2 -3 3c-41 31 -88 137 -88 237z" />
    <glyph glyph-name="onehalf" unicode="&#xbd;" horiz-adv-x="689" 
d="M106 71l331 672c17 28 36 39 52 39c20 0 34 -17 34 -41c0 -10 -3 -23 -9 -35l-341 -680c-12 -18 -26 -25 -39 -25c-19 0 -35 17 -35 41c0 9 2 19 7 29zM129 694c-10 -4 -19 -6 -28 -6c-19 0 -34 13 -34 32c0 23 17 39 37 45l76 20c20 -2 34 -15 34 -34
c0 -20 -7 -79 -30 -300c-3 -24 -20 -41 -44 -41c-23 0 -37 14 -37 36c0 1 0 3 26 248zM409 266c8 75 71 118 130 118c54 0 104 -37 104 -94c0 -43 -23 -81 -47 -110c-37 -43 -50 -57 -88 -102h80c24 0 35 -11 35 -32c0 -27 -17 -45 -43 -46h-148c-29 0 -43 11 -43 32
c0 14 6 27 14 36l139 164c11 14 18 29 19 43c0 20 -15 30 -32 30c-18 0 -37 -12 -39 -37c-2 -17 -18 -44 -44 -44s-37 23 -37 42z" />
    <glyph glyph-name="twosuperior" unicode="&#xb2;" horiz-adv-x="316" 
d="M73 666c8 75 71 118 130 118c54 0 104 -37 104 -94c0 -43 -23 -81 -47 -110c-37 -43 -50 -57 -88 -102h80c24 0 35 -11 35 -32c0 -27 -17 -45 -43 -46h-148c-29 0 -43 11 -43 32c0 14 6 27 14 36l139 164c11 14 18 29 19 43c0 20 -15 30 -32 30c-18 0 -37 -12 -39 -37
c-2 -17 -18 -44 -44 -44s-37 23 -37 42z" />
    <glyph glyph-name="threesuperior" unicode="&#xb3;" horiz-adv-x="300" 
d="M192 786c62 0 99 -46 99 -95c0 -39 -24 -70 -53 -88c34 -19 48 -50 48 -82c0 -73 -69 -127 -134 -127c-44 0 -77 24 -93 50c-7 11 -10 24 -10 37c0 25 17 47 42 47c14 0 29 -9 34 -25c7 -19 19 -29 35 -29c21 0 43 14 46 41c0 21 -6 45 -28 49h-17c-26 0 -39 7 -39 28
c0 28 21 39 47 39c2 0 10 0 15 1c14 4 24 27 26 43c0 19 -7 33 -28 33c-30 0 -34 -21 -35 -25c-1 -6 -10 -27 -34 -27c-26 0 -38 10 -38 30c0 59 65 100 117 100z" />
    <glyph glyph-name="acute" unicode="&#xb4;" horiz-adv-x="255" 
d="M271 733l-129 -80c-18 -11 -38 -21 -61 -21c-12 0 -25 2 -38 10c-28 16 -43 40 -43 64c0 11 3 21 9 31c8 13 20 25 32 32l134 83c15 10 34 16 52 16c14 0 28 -4 42 -12c26 -15 41 -37 41 -61c0 -11 -3 -22 -10 -34s-18 -21 -29 -28z" />
    <glyph glyph-name="Agrave" unicode="&#xc0;" horiz-adv-x="645" 
d="M338 501l-93 -198h142c-18 79 -24 92 -49 198zM456 51l-26 90h-255c-12 -26 -23 -51 -35 -75c-19 -44 -50 -66 -91 -66c-49 0 -69 31 -69 67c0 18 5 32 10 45l273 594c22 47 58 71 104 71s78 -24 90 -71c146 -563 157 -614 157 -626c-5 -47 -36 -80 -86 -80
c-38 0 -63 18 -72 51zM374 848l-129 80c-11 7 -22 16 -29 28s-10 23 -10 34c0 24 15 46 41 61c14 8 28 12 42 12c18 0 37 -6 52 -16l134 -83c12 -7 24 -19 32 -32c6 -10 9 -20 9 -31c0 -24 -15 -48 -43 -64c-13 -8 -26 -10 -38 -10c-23 0 -43 10 -61 21z" />
    <glyph glyph-name="Egrave" unicode="&#xc8;" horiz-adv-x="542" 
d="M98 690c6 58 38 87 93 87h282c49 0 73 -20 73 -64c0 -61 -36 -96 -90 -96h-206l-14 -135h161c49 0 73 -22 73 -67c0 -57 -36 -93 -90 -93h-161l-17 -162h213c53 0 79 -22 79 -66c0 -62 -41 -94 -95 -94h-289c-60 0 -77 12 -77 54c0 10 1 21 65 636zM330 848l-129 80
c-11 7 -22 16 -29 28s-10 23 -10 34c0 24 15 46 41 61c14 8 28 12 42 12c18 0 37 -6 52 -16l134 -83c12 -7 24 -19 32 -32c6 -10 9 -20 9 -31c0 -24 -15 -48 -43 -64c-13 -8 -26 -10 -38 -10c-23 0 -43 10 -61 21z" />
    <glyph glyph-name="Eacute" unicode="&#xc9;" horiz-adv-x="542" 
d="M98 690c-64 -615 -65 -626 -65 -636c0 -42 17 -54 77 -54h289c54 0 95 32 95 94c0 44 -26 66 -79 66h-213l17 162h161c54 0 90 36 90 93c0 45 -24 67 -73 67h-161l14 135h206c54 0 90 35 90 96c0 44 -24 64 -73 64h-282c-55 0 -87 -29 -93 -87zM433 928l-129 -80
c-18 -11 -38 -21 -61 -21c-12 0 -25 2 -38 10c-28 16 -43 40 -43 64c0 11 3 21 9 31c8 13 20 25 32 32l134 83c15 10 34 16 52 16c14 0 28 -4 42 -12c26 -15 41 -37 41 -61c0 -11 -3 -22 -10 -34s-18 -21 -29 -28z" />
    <glyph glyph-name="Igrave" unicode="&#xcc;" horiz-adv-x="284" 
d="M99 698c6 55 35 81 88 81c49 0 74 -21 74 -66c0 -5 0 -10 -66 -632c-6 -55 -35 -81 -89 -81c-48 0 -73 21 -73 66c0 5 0 10 66 632zM205 848l-129 80c-11 7 -22 16 -29 28s-10 23 -10 34c0 24 15 46 41 61c14 8 28 12 42 12c18 0 37 -6 52 -16l134 -83
c12 -7 24 -19 32 -32c6 -10 9 -20 9 -31c0 -24 -15 -48 -43 -64c-13 -8 -26 -10 -38 -10c-23 0 -43 10 -61 21z" />
    <glyph glyph-name="Ograve" unicode="&#xd2;" horiz-adv-x="743" 
d="M418 800c209 0 305 -169 305 -351c0 -228 -153 -458 -390 -458c-205 0 -301 167 -301 350c0 225 149 459 386 459zM401 638c-145 0 -204 -168 -204 -280c0 -110 48 -208 154 -208c146 0 207 169 207 282c0 109 -48 206 -157 206zM429 848l-129 80c-11 7 -22 16 -29 28
s-10 23 -10 34c0 24 15 46 41 61c14 8 28 12 42 12c18 0 37 -6 52 -16l134 -83c12 -7 24 -19 32 -32c6 -10 9 -20 9 -31c0 -24 -15 -48 -43 -64c-13 -8 -26 -10 -38 -10c-23 0 -43 10 -61 21z" />
    <glyph glyph-name="Ugrave" unicode="&#xd9;" horiz-adv-x="729" 
d="M93 692c6 59 37 86 93 86c50 0 75 -22 75 -69c0 -5 0 -11 -40 -392c-1 -13 -2 -22 -2 -30c0 -100 61 -130 132 -130c77 0 139 34 152 160l39 375c6 59 37 86 93 86c51 0 76 -22 76 -70c0 -5 0 -10 -41 -398c-25 -239 -179 -321 -346 -321c-155 0 -274 70 -274 264
c0 18 1 37 43 439zM424 848l-129 80c-11 7 -22 16 -29 28s-10 23 -10 34c0 24 15 46 41 61c14 8 28 12 42 12c18 0 37 -6 52 -16l134 -83c12 -7 24 -19 32 -32c6 -10 9 -20 9 -31c0 -24 -15 -48 -43 -64c-13 -8 -26 -10 -38 -10c-23 0 -43 10 -61 21z" />
    <glyph glyph-name="agrave" unicode="&#xe0;" horiz-adv-x="628" 
d="M481 589c46 0 70 -24 70 -67c0 -4 -1 -8 -39 -365c0 -10 6 -15 16 -15c50 0 77 -22 77 -64c0 -55 -41 -86 -92 -86c-92 0 -135 33 -150 91c-46 -58 -109 -94 -163 -94c-97 0 -182 100 -182 253c0 146 80 348 247 348c48 0 103 -24 129 -76c7 49 38 75 87 75zM255 138
c84 0 120 116 120 180c0 80 -40 127 -85 127c-82 0 -115 -126 -115 -187c0 -65 25 -120 80 -120zM369 653l-129 80c-11 7 -22 16 -29 28s-10 23 -10 34c0 24 15 46 41 61c14 8 28 12 42 12c18 0 37 -6 52 -16l134 -83c12 -7 24 -19 32 -32c6 -10 9 -20 9 -31
c0 -24 -15 -48 -43 -64c-13 -8 -26 -10 -38 -10c-23 0 -43 10 -61 21z" />
    <glyph glyph-name="ugrave" unicode="&#xf9;" horiz-adv-x="563" 
d="M191 253c-1 -11 -2 -21 -2 -29c0 -67 29 -81 59 -81c47 0 100 52 110 148l23 222c5 50 27 79 83 79c46 0 69 -21 69 -63c0 -5 0 -10 -48 -468c-5 -48 -33 -74 -85 -74c-25 0 -52 16 -52 55v8l3 30c-48 -56 -108 -86 -163 -86c-84 0 -156 71 -156 198c0 12 1 26 31 318
c6 53 33 77 84 77c47 0 70 -19 70 -61c0 -5 0 -10 -26 -273zM341 653l-129 80c-11 7 -22 16 -29 28s-10 23 -10 34c0 24 15 46 41 61c14 8 28 12 42 12c18 0 37 -6 52 -16l134 -83c12 -7 24 -19 32 -32c6 -10 9 -20 9 -31c0 -24 -15 -48 -43 -64c-13 -8 -26 -10 -38 -10
c-23 0 -43 10 -61 21z" />
    <glyph glyph-name="ograve" unicode="&#xf2;" horiz-adv-x="568" 
d="M310 598c155 0 230 -129 230 -268c0 -175 -108 -339 -293 -339c-155 0 -230 122 -230 261c0 176 117 346 293 346zM295 456c-86 0 -119 -120 -119 -183c0 -66 23 -142 85 -142c87 0 120 113 120 178c0 67 -23 147 -86 147zM340 653l-129 80c-11 7 -22 16 -29 28
s-10 23 -10 34c0 24 15 46 41 61c14 8 28 12 42 12c18 0 37 -6 52 -16l134 -83c12 -7 24 -19 32 -32c6 -10 9 -20 9 -31c0 -24 -15 -48 -43 -64c-13 -8 -26 -10 -38 -10c-23 0 -43 10 -61 21z" />
    <glyph glyph-name="igrave" unicode="&#xec;" horiz-adv-x="300" 
d="M63 497c5 52 35 77 85 77c47 0 72 -20 72 -64c0 -4 -1 -8 -35 -337v-7c0 -11 2 -24 16 -24c50 0 77 -22 77 -64c0 -55 -41 -86 -92 -86c-111 0 -161 51 -161 133c0 8 0 15 38 372zM218 653l-129 80c-11 7 -22 16 -29 28s-10 23 -10 34c0 24 15 46 41 61c14 8 28 12 42 12
c18 0 37 -6 52 -16l134 -83c12 -7 24 -19 32 -32c6 -10 9 -20 9 -31c0 -24 -15 -48 -43 -64c-13 -8 -26 -10 -38 -10c-23 0 -43 10 -61 21z" />
    <glyph glyph-name="egrave" unicode="&#xe8;" horiz-adv-x="559" 
d="M311 600c146 0 223 -93 223 -226c0 -13 0 -27 -2 -41c-8 -77 -55 -77 -132 -77h-229c0 -4 -1 -9 -1 -13c0 -80 80 -108 121 -108c77 0 115 62 168 62c42 0 50 -34 50 -66c-2 -18 -7 -32 -22 -46c-56 -62 -134 -96 -226 -96c-161 0 -244 117 -244 263
c0 169 117 348 294 348zM190 360h185c1 5 1 10 1 14c0 55 -38 81 -79 81c-46 0 -100 -33 -107 -95zM335 653l-129 80c-11 7 -22 16 -29 28s-10 23 -10 34c0 24 15 46 41 61c14 8 28 12 42 12c18 0 37 -6 52 -16l134 -83c12 -7 24 -19 32 -32c6 -10 9 -20 9 -31
c0 -24 -15 -48 -43 -64c-13 -8 -26 -10 -38 -10c-23 0 -43 10 -61 21z" />
    <glyph glyph-name="eacute" unicode="&#xe9;" horiz-adv-x="559" 
d="M311 600c-177 0 -294 -179 -294 -348c0 -146 83 -263 244 -263c92 0 170 34 226 96c15 14 20 28 22 46c0 32 -8 66 -50 66c-53 0 -91 -62 -168 -62c-41 0 -121 28 -121 108c0 4 1 9 1 13h229c77 0 124 0 132 77c2 14 2 28 2 41c0 133 -77 226 -223 226zM375 360h-185
c7 62 61 95 107 95c41 0 79 -26 79 -81c0 -4 0 -9 -1 -14zM438 733l-129 -80c-18 -11 -38 -21 -61 -21c-12 0 -25 2 -38 10c-28 16 -43 40 -43 64c0 11 3 21 9 31c8 13 20 25 32 32l134 83c15 10 34 16 52 16c14 0 28 -4 42 -12c26 -15 41 -37 41 -61c0 -11 -3 -22 -10 -34
s-18 -21 -29 -28z" />
    <glyph glyph-name="tilde" unicode="&#x2dc;" horiz-adv-x="516" 
d="M83 590c-44 0 -66 22 -66 66c0 5 1 10 1 15c7 64 83 124 159 124c57 0 95 -27 125 -48c9 -2 13 -10 23 -10c14 0 27 12 36 24c16 26 52 37 60 37c45 0 68 -24 68 -70c0 -5 -1 -9 -1 -14c-9 -86 -77 -118 -140 -118c-38 0 -91 22 -117 39c-15 8 -22 17 -37 17
c-9 0 -26 -4 -34 -12c-31 -36 -48 -50 -77 -50z" />
    <glyph glyph-name="Ntilde" unicode="&#xd1;" horiz-adv-x="724" 
d="M252 816c-44 0 -66 22 -66 66c0 5 1 10 1 15c7 64 83 124 159 124c57 0 95 -27 125 -48c9 -2 13 -10 23 -10c14 0 27 12 36 24c16 26 52 37 60 37c45 0 68 -24 68 -70c0 -5 -1 -9 -1 -14c-9 -86 -77 -118 -140 -118c-38 0 -91 22 -117 39c-15 8 -22 17 -37 17
c-9 0 -26 -4 -34 -12c-31 -36 -48 -50 -77 -50zM98 692c6 58 36 87 88 87c35 0 63 -18 83 -53l232 -409l40 380c6 54 35 81 87 81c50 0 74 -22 74 -67c0 -4 -1 -9 -65 -624c-6 -58 -36 -87 -89 -87c-33 0 -62 16 -80 47l-235 408l-39 -373c-6 -55 -35 -82 -88 -82
c-49 0 -73 22 -73 66c0 5 0 10 65 626z" />
    <glyph glyph-name="atilde" unicode="&#xe3;" horiz-adv-x="628" 
d="M154 620c-44 0 -66 22 -66 66c0 5 1 10 1 15c7 64 83 124 159 124c57 0 95 -27 125 -48c9 -2 13 -10 23 -10c14 0 27 12 36 24c16 26 52 37 60 37c45 0 68 -24 68 -70c0 -5 -1 -9 -1 -14c-9 -86 -77 -118 -140 -118c-38 0 -91 22 -117 39c-15 8 -22 17 -37 17
c-9 0 -26 -4 -34 -12c-31 -36 -48 -50 -77 -50zM481 589c46 0 70 -24 70 -67c0 -4 -1 -8 -39 -365c0 -10 6 -15 16 -15c50 0 77 -22 77 -64c0 -55 -41 -86 -92 -86c-92 0 -135 33 -150 91c-46 -58 -109 -94 -163 -94c-97 0 -182 100 -182 253c0 146 80 348 247 348
c48 0 103 -24 129 -76c7 49 38 75 87 75zM255 138c84 0 120 116 120 180c0 80 -40 127 -85 127c-82 0 -115 -126 -115 -187c0 -65 25 -120 80 -120z" />
    <glyph glyph-name="Atilde" unicode="&#xc3;" horiz-adv-x="645" 
d="M200 796c-44 0 -66 22 -66 66c0 5 1 10 1 15c7 64 83 124 159 124c57 0 95 -27 125 -48c9 -2 13 -10 23 -10c14 0 27 12 36 24c16 26 52 37 60 37c45 0 68 -24 68 -70c0 -5 -1 -9 -1 -14c-9 -86 -77 -118 -140 -118c-38 0 -91 22 -117 39c-15 8 -22 17 -37 17
c-9 0 -26 -4 -34 -12c-31 -36 -48 -50 -77 -50zM338 501l-93 -198h142c-18 79 -24 92 -49 198zM456 51l-26 90h-255c-12 -26 -23 -51 -35 -75c-19 -44 -50 -66 -91 -66c-49 0 -69 31 -69 67c0 18 5 32 10 45l273 594c22 47 58 71 104 71s78 -24 90 -71
c146 -563 157 -614 157 -626c-5 -47 -36 -80 -86 -80c-38 0 -63 18 -72 51z" />
    <glyph glyph-name="ntilde" unicode="&#xf1;" horiz-adv-x="556" 
d="M143 640c-44 0 -66 22 -66 66c0 5 1 10 1 15c7 64 83 124 159 124c57 0 95 -27 125 -48c9 -2 13 -10 23 -10c14 0 27 12 36 24c16 26 52 37 60 37c45 0 68 -24 68 -70c0 -5 -1 -9 -1 -14c-9 -86 -77 -118 -140 -118c-38 0 -91 22 -117 39c-15 8 -22 17 -37 17
c-9 0 -26 -4 -34 -12c-31 -36 -48 -50 -77 -50zM65 499c4 42 33 80 83 80s71 -33 71 -63v-6c39 40 87 72 147 72c71 0 150 -44 150 -166c0 -10 -1 -21 -34 -339c-5 -51 -34 -77 -86 -77c-45 0 -70 21 -70 63c0 5 0 9 1 14c29 284 30 288 30 292c0 51 -33 76 -66 76
c-40 0 -82 -30 -88 -89l-29 -279c-5 -51 -33 -77 -86 -77c-45 0 -68 21 -68 62c0 5 0 10 45 437z" />
    <glyph glyph-name="Otilde" unicode="&#xd5;" horiz-adv-x="743" 
d="M253 816c-44 0 -66 22 -66 66c0 5 1 10 1 15c7 64 83 124 159 124c57 0 95 -27 125 -48c9 -2 13 -10 23 -10c14 0 27 12 36 24c16 26 52 37 60 37c45 0 68 -24 68 -70c0 -5 -1 -9 -1 -14c-9 -86 -77 -118 -140 -118c-38 0 -91 22 -117 39c-15 8 -22 17 -37 17
c-9 0 -26 -4 -34 -12c-31 -36 -48 -50 -77 -50zM418 800c209 0 305 -169 305 -351c0 -228 -153 -458 -390 -458c-205 0 -301 167 -301 350c0 225 149 459 386 459zM401 638c-145 0 -204 -168 -204 -280c0 -110 48 -208 154 -208c146 0 207 169 207 282
c0 109 -48 206 -157 206z" />
    <glyph glyph-name="otilde" unicode="&#xf5;" horiz-adv-x="568" 
d="M167 620c-44 0 -66 22 -66 66c0 5 1 10 1 15c7 64 83 124 159 124c57 0 95 -27 125 -48c9 -2 13 -10 23 -10c14 0 27 12 36 24c16 26 52 37 60 37c45 0 68 -24 68 -70c0 -5 -1 -9 -1 -14c-9 -86 -77 -118 -140 -118c-38 0 -91 22 -117 39c-15 8 -22 17 -37 17
c-9 0 -26 -4 -34 -12c-31 -36 -48 -50 -77 -50zM310 598c155 0 230 -129 230 -268c0 -175 -108 -339 -293 -339c-155 0 -230 122 -230 261c0 176 117 346 293 346zM295 456c-86 0 -119 -120 -119 -183c0 -66 23 -142 85 -142c87 0 120 113 120 178c0 67 -23 147 -86 147z
" />
    <glyph glyph-name="Adieresis" unicode="&#xc4;" horiz-adv-x="645" 
d="M338 501l-93 -198h142c-18 79 -24 92 -49 198zM456 51l-26 90h-255c-12 -26 -23 -51 -35 -75c-19 -44 -50 -66 -91 -66c-49 0 -69 31 -69 67c0 18 5 32 10 45l273 594c22 47 58 71 104 71s78 -24 90 -71c146 -563 157 -614 157 -626c-5 -47 -36 -80 -86 -80
c-38 0 -63 18 -72 51zM161 880c5 59 48 98 99 98c46 0 80 -35 80 -80c-5 -59 -49 -98 -98 -98c-48 0 -81 35 -81 80zM410 880c5 59 48 98 97 98c48 0 80 -34 80 -79c-5 -60 -47 -99 -98 -99c-46 0 -79 35 -79 80z" />
    <glyph glyph-name="Edieresis" unicode="&#xcb;" horiz-adv-x="542" 
d="M98 690c-64 -615 -65 -626 -65 -636c0 -42 17 -54 77 -54h289c54 0 95 32 95 94c0 44 -26 66 -79 66h-213l17 162h161c54 0 90 36 90 93c0 45 -24 67 -73 67h-161l14 135h206c54 0 90 35 90 96c0 44 -24 64 -73 64h-282c-55 0 -87 -29 -93 -87zM118 880c5 59 48 98 99 98
c46 0 80 -35 80 -80c-5 -59 -49 -98 -98 -98c-48 0 -81 35 -81 80zM367 880c5 59 48 98 97 98c48 0 80 -34 80 -79c-5 -60 -47 -99 -98 -99c-46 0 -79 35 -79 80z" />
    <glyph glyph-name="Idieresis" unicode="&#xcf;" horiz-adv-x="284" 
d="M99 698c6 55 35 81 88 81c49 0 74 -21 74 -66c0 -5 0 -10 -66 -632c-6 -55 -35 -81 -89 -81c-48 0 -73 21 -73 66c0 5 0 10 66 632zM-2 880c5 59 48 98 99 98c46 0 80 -35 80 -80c-5 -59 -49 -98 -98 -98c-48 0 -81 35 -81 80zM247 880c5 59 48 98 97 98
c48 0 80 -34 80 -79c-5 -60 -47 -99 -98 -99c-46 0 -79 35 -79 80z" />
    <glyph glyph-name="Odieresis" unicode="&#xd6;" horiz-adv-x="743" 
d="M418 800c-237 0 -386 -234 -386 -459c0 -183 96 -350 301 -350c237 0 390 230 390 458c0 182 -96 351 -305 351zM401 638c109 0 157 -97 157 -206c0 -113 -61 -282 -207 -282c-106 0 -154 98 -154 208c0 112 59 280 204 280zM215 900c5 59 48 98 99 98
c46 0 80 -35 80 -80c-5 -59 -49 -98 -98 -98c-48 0 -81 35 -81 80zM464 900c5 59 48 98 97 98c48 0 80 -34 80 -79c-5 -60 -47 -99 -98 -99c-46 0 -79 35 -79 80z" />
    <glyph glyph-name="Udieresis" unicode="&#xdc;" horiz-adv-x="729" 
d="M93 692c6 59 37 86 93 86c50 0 75 -22 75 -69c0 -5 0 -11 -40 -392c-1 -13 -2 -22 -2 -30c0 -100 61 -130 132 -130c77 0 139 34 152 160l39 375c6 59 37 86 93 86c51 0 76 -22 76 -70c0 -5 0 -10 -41 -398c-25 -239 -179 -321 -346 -321c-155 0 -274 70 -274 264
c0 18 1 37 43 439zM212 900c5 59 48 98 99 98c46 0 80 -35 80 -80c-5 -59 -49 -98 -98 -98c-48 0 -81 35 -81 80zM461 900c5 59 48 98 97 98c48 0 80 -34 80 -79c-5 -60 -47 -99 -98 -99c-46 0 -79 35 -79 80z" />
    <glyph glyph-name="adieresis" unicode="&#xe4;" horiz-adv-x="628" 
d="M481 589c-49 0 -80 -26 -87 -75c-26 52 -81 76 -129 76c-167 0 -247 -202 -247 -348c0 -153 85 -253 182 -253c54 0 117 36 163 94c15 -58 58 -91 150 -91c51 0 92 31 92 86c0 42 -27 64 -77 64c-10 0 -16 5 -16 15c38 357 39 361 39 365c0 43 -24 67 -70 67zM255 138
c-55 0 -80 55 -80 120c0 61 33 187 115 187c45 0 85 -47 85 -127c0 -64 -36 -180 -120 -180zM122 714c5 59 48 98 99 98c46 0 80 -35 80 -80c-5 -59 -49 -98 -98 -98c-48 0 -81 35 -81 80zM371 714c5 59 48 98 97 98c48 0 80 -34 80 -79c-5 -60 -47 -99 -98 -99
c-46 0 -79 35 -79 80z" />
    <glyph glyph-name="edieresis" unicode="&#xeb;" horiz-adv-x="559" 
d="M311 600c146 0 223 -93 223 -226c0 -13 0 -27 -2 -41c-8 -77 -55 -77 -132 -77h-229c0 -4 -1 -9 -1 -13c0 -80 80 -108 121 -108c77 0 115 62 168 62c42 0 50 -34 50 -66c-2 -18 -7 -32 -22 -46c-56 -62 -134 -96 -226 -96c-161 0 -244 117 -244 263
c0 169 117 348 294 348zM190 360h185c1 5 1 10 1 14c0 55 -38 81 -79 81c-46 0 -100 -33 -107 -95zM119 717c5 59 48 98 99 98c46 0 80 -35 80 -80c-5 -59 -49 -98 -98 -98c-48 0 -81 35 -81 80zM368 717c5 59 48 98 97 98c48 0 80 -34 80 -79c-5 -60 -47 -99 -98 -99
c-46 0 -79 35 -79 80z" />
    <glyph glyph-name="idieresis" unicode="&#xef;" horiz-adv-x="300" 
d="M63 497c5 52 35 77 85 77c47 0 72 -20 72 -64c0 -4 -1 -8 -35 -337v-7c0 -11 2 -24 16 -24c50 0 77 -22 77 -64c0 -55 -41 -86 -92 -86c-111 0 -161 51 -161 133c0 8 0 15 38 372zM-54 713c5 59 48 98 99 98c46 0 80 -35 80 -80c-5 -59 -49 -98 -98 -98
c-48 0 -81 35 -81 80zM195 713c5 59 48 98 97 98c48 0 80 -34 80 -79c-5 -60 -47 -99 -98 -99c-46 0 -79 35 -79 80z" />
    <glyph glyph-name="odieresis" unicode="&#xf6;" horiz-adv-x="568" 
d="M310 598c-176 0 -293 -170 -293 -346c0 -139 75 -261 230 -261c185 0 293 164 293 339c0 139 -75 268 -230 268zM295 456c63 0 86 -80 86 -147c0 -65 -33 -178 -120 -178c-62 0 -85 76 -85 142c0 63 33 183 119 183zM110 713c5 59 48 98 99 98c46 0 80 -35 80 -80
c-5 -59 -49 -98 -98 -98c-48 0 -81 35 -81 80zM359 713c5 59 48 98 97 98c48 0 80 -34 80 -79c-5 -60 -47 -99 -98 -99c-46 0 -79 35 -79 80z" />
    <glyph glyph-name="udieresis" unicode="&#xfc;" horiz-adv-x="563" 
d="M191 253c-1 -11 -2 -21 -2 -29c0 -67 29 -81 59 -81c47 0 100 52 110 148l23 222c5 50 27 79 83 79c46 0 69 -21 69 -63c0 -5 0 -10 -48 -468c-5 -48 -33 -74 -85 -74c-25 0 -52 16 -52 55v8l3 30c-48 -56 -108 -86 -163 -86c-84 0 -156 71 -156 198c0 12 1 26 31 318
c6 53 33 77 84 77c47 0 70 -19 70 -61c0 -5 0 -10 -26 -273zM102 714c5 59 48 98 99 98c46 0 80 -35 80 -80c-5 -59 -49 -98 -98 -98c-48 0 -81 35 -81 80zM351 714c5 59 48 98 97 98c48 0 80 -34 80 -79c-5 -60 -47 -99 -98 -99c-46 0 -79 35 -79 80z" />
    <glyph glyph-name="ydieresis" unicode="&#xff;" horiz-adv-x="495" 
d="M130 42c-10 -47 -41 -112 -93 -112c-24 0 -64 -15 -70 -64c0 -4 -1 -7 -1 -11c0 -42 26 -65 76 -65c85 0 158 54 206 155l245 525c6 16 9 32 9 47c0 36 -19 66 -69 66c-40 0 -69 -19 -86 -58c-35 -79 -79 -238 -114 -316l-41 311c-8 39 -34 62 -74 62
c-50 0 -84 -34 -84 -89c0 -7 1 -15 4 -24c31 -139 60 -287 92 -427zM75 707c5 59 48 98 99 98c46 0 80 -35 80 -80c-5 -59 -49 -98 -98 -98c-48 0 -81 35 -81 80zM324 707c5 59 48 98 97 98c48 0 80 -34 80 -79c-5 -60 -47 -99 -98 -99c-46 0 -79 35 -79 80z" />
    <glyph glyph-name="Ydieresis" unicode="&#x178;" horiz-adv-x="552" 
d="M191 317c-45 99 -90 238 -134 336c-6 12 -10 24 -10 38c0 52 36 88 86 88c31 0 54 -14 64 -43l94 -273c45 64 102 210 147 273c20 28 45 43 77 43c47 0 70 -21 70 -61c0 -24 -7 -43 -17 -59l-215 -344l-24 -229c-6 -59 -35 -86 -90 -86c-48 0 -73 22 -73 68
c0 6 0 12 25 249zM120 880c5 59 48 98 99 98c46 0 80 -35 80 -80c-5 -59 -49 -98 -98 -98c-48 0 -81 35 -81 80zM369 880c5 59 48 98 97 98c48 0 80 -34 80 -79c-5 -60 -47 -99 -98 -99c-46 0 -79 35 -79 80z" />
    <glyph glyph-name="uacute" unicode="&#xfa;" horiz-adv-x="563" 
d="M191 253c-1 -11 -2 -21 -2 -29c0 -67 29 -81 59 -81c47 0 100 52 110 148l23 222c5 50 27 79 83 79c46 0 69 -21 69 -63c0 -5 0 -10 -48 -468c-5 -48 -33 -74 -85 -74c-25 0 -52 16 -52 55v8l3 30c-48 -56 -108 -86 -163 -86c-84 0 -156 71 -156 198c0 12 1 26 31 318
c6 53 33 77 84 77c47 0 70 -19 70 -61c0 -5 0 -10 -26 -273zM460 693l-129 -80c-18 -11 -38 -21 -61 -21c-12 0 -25 2 -38 10c-28 16 -43 40 -43 64c0 11 3 21 9 31c8 13 20 25 32 32l134 83c15 10 34 16 52 16c14 0 28 -4 42 -12c26 -15 41 -37 41 -61
c0 -11 -3 -22 -10 -34s-18 -21 -29 -28z" />
    <glyph glyph-name="Uacute" unicode="&#xda;" horiz-adv-x="729" 
d="M93 692c-42 -402 -43 -421 -43 -439c0 -194 119 -264 274 -264c167 0 321 82 346 321c41 388 41 393 41 398c0 48 -25 70 -76 70c-56 0 -87 -27 -93 -86l-39 -375c-13 -126 -75 -160 -152 -160c-71 0 -132 30 -132 130c0 8 1 17 2 30c40 381 40 387 40 392
c0 47 -25 69 -75 69c-56 0 -87 -27 -93 -86zM560 919l-129 -80c-18 -11 -38 -21 -61 -21c-12 0 -25 2 -38 10c-28 16 -43 40 -43 64c0 11 3 21 9 31c8 13 20 25 32 32l134 83c15 10 34 16 52 16c14 0 28 -4 42 -12c26 -15 41 -37 41 -61c0 -11 -3 -22 -10 -34
s-18 -21 -29 -28z" />
    <glyph glyph-name="Oacute" unicode="&#xd3;" horiz-adv-x="743" 
d="M418 800c209 0 305 -169 305 -351c0 -228 -153 -458 -390 -458c-205 0 -301 167 -301 350c0 225 149 459 386 459zM401 638c-145 0 -204 -168 -204 -280c0 -110 48 -208 154 -208c146 0 207 169 207 282c0 109 -48 206 -157 206zM553 929l-129 -80
c-18 -11 -38 -21 -61 -21c-12 0 -25 2 -38 10c-28 16 -43 40 -43 64c0 11 3 21 9 31c8 13 20 25 32 32l134 83c15 10 34 16 52 16c14 0 28 -4 42 -12c26 -15 41 -37 41 -61c0 -11 -3 -22 -10 -34s-18 -21 -29 -28z" />
    <glyph glyph-name="oacute" unicode="&#xf3;" horiz-adv-x="568" 
d="M310 598c-176 0 -293 -170 -293 -346c0 -139 75 -261 230 -261c185 0 293 164 293 339c0 139 -75 268 -230 268zM295 456c63 0 86 -80 86 -147c0 -65 -33 -178 -120 -178c-62 0 -85 76 -85 142c0 63 33 183 119 183zM448 733l-129 -80c-18 -11 -38 -21 -61 -21
c-12 0 -25 2 -38 10c-28 16 -43 40 -43 64c0 11 3 21 9 31c8 13 20 25 32 32l134 83c15 10 34 16 52 16c14 0 28 -4 42 -12c26 -15 41 -37 41 -61c0 -11 -3 -22 -10 -34s-18 -21 -29 -28z" />
    <glyph glyph-name="dotlessi" unicode="&#x131;" horiz-adv-x="300" 
d="M63 497c5 52 35 77 85 77c47 0 72 -20 72 -64c0 -4 -1 -8 -35 -337v-7c0 -11 2 -24 16 -24c50 0 77 -22 77 -64c0 -55 -41 -86 -92 -86c-111 0 -161 51 -161 133c0 8 0 15 38 372z" />
    <glyph glyph-name="iacute" unicode="&#xed;" horiz-adv-x="300" 
d="M63 497c5 52 35 77 85 77c47 0 72 -20 72 -64c0 -4 -1 -8 -35 -337v-7c0 -11 2 -24 16 -24c50 0 77 -22 77 -64c0 -55 -41 -86 -92 -86c-111 0 -161 51 -161 133c0 8 0 15 38 372zM273 723l-129 -80c-18 -11 -38 -21 -61 -21c-12 0 -25 2 -38 10c-28 16 -43 40 -43 64
c0 11 3 21 9 31c8 13 20 25 32 32l134 83c15 10 34 16 52 16c14 0 28 -4 42 -12c26 -15 41 -37 41 -61c0 -11 -3 -22 -10 -34s-18 -21 -29 -28z" />
    <glyph glyph-name="Iacute" unicode="&#xcd;" horiz-adv-x="284" 
d="M99 698c-66 -622 -66 -627 -66 -632c0 -45 25 -66 73 -66c54 0 83 26 89 81c66 622 66 627 66 632c0 45 -25 66 -74 66c-53 0 -82 -26 -88 -81zM276 919l-129 -80c-18 -11 -38 -21 -61 -21c-12 0 -25 2 -38 10c-28 16 -43 40 -43 64c0 11 3 21 9 31c8 13 20 25 32 32
l134 83c15 10 34 16 52 16c14 0 28 -4 42 -12c26 -15 41 -37 41 -61c0 -11 -3 -22 -10 -34s-18 -21 -29 -28z" />
    <glyph glyph-name="Aacute" unicode="&#xc1;" horiz-adv-x="645" 
d="M338 501l-93 -198h142c-18 79 -24 92 -49 198zM456 51l-26 90h-255c-12 -26 -23 -51 -35 -75c-19 -44 -50 -66 -91 -66c-49 0 -69 31 -69 67c0 18 5 32 10 45l273 594c22 47 58 71 104 71s78 -24 90 -71c146 -563 157 -614 157 -626c-5 -47 -36 -80 -86 -80
c-38 0 -63 18 -72 51zM450 919l-129 -80c-18 -11 -38 -21 -61 -21c-12 0 -25 2 -38 10c-28 16 -43 40 -43 64c0 11 3 21 9 31c8 13 20 25 32 32l134 83c15 10 34 16 52 16c14 0 28 -4 42 -12c26 -15 41 -37 41 -61c0 -11 -3 -22 -10 -34s-18 -21 -29 -28z" />
    <glyph glyph-name="aacute" unicode="&#xe1;" horiz-adv-x="628" 
d="M481 589c-49 0 -80 -26 -87 -75c-26 52 -81 76 -129 76c-167 0 -247 -202 -247 -348c0 -153 85 -253 182 -253c54 0 117 36 163 94c15 -58 58 -91 150 -91c51 0 92 31 92 86c0 42 -27 64 -77 64c-10 0 -16 5 -16 15c38 357 39 361 39 365c0 43 -24 67 -70 67zM255 138
c-55 0 -80 55 -80 120c0 61 33 187 115 187c45 0 85 -47 85 -127c0 -64 -36 -180 -120 -180zM414 723l-129 -80c-18 -11 -38 -21 -61 -21c-12 0 -25 2 -38 10c-28 16 -43 40 -43 64c0 11 3 21 9 31c8 13 20 25 32 32l134 83c15 10 34 16 52 16c14 0 28 -4 42 -12
c26 -15 41 -37 41 -61c0 -11 -3 -22 -10 -34s-18 -21 -29 -28z" />
    <glyph glyph-name="circumflex" unicode="&#x2c6;" horiz-adv-x="509" 
d="M303 660l-86 73l-102 -74c-16 -11 -38 -24 -60 -24c-13 0 -22 3 -34 10c-20 12 -27 26 -27 46c0 5 0 10 1 15c2 24 19 48 38 60c48 34 99 67 147 101c17 11 38 18 55 18c20 0 30 -7 41 -13l4 -2l130 -105c17 -16 26 -31 26 -52v-7c-3 -29 -11 -46 -42 -62
c-11 -6 -22 -9 -35 -9c-26 0 -42 13 -56 25z" />
    <glyph glyph-name="acircumflex" unicode="&#xe2;" horiz-adv-x="628" 
d="M481 589c46 0 70 -24 70 -67c0 -4 -1 -8 -39 -365c0 -10 6 -15 16 -15c50 0 77 -22 77 -64c0 -55 -41 -86 -92 -86c-92 0 -135 33 -150 91c-46 -58 -109 -94 -163 -94c-97 0 -182 100 -182 253c0 146 80 348 247 348c48 0 103 -24 129 -76c7 49 38 75 87 75zM255 138
c84 0 120 116 120 180c0 80 -40 127 -85 127c-82 0 -115 -126 -115 -187c0 -65 25 -120 80 -120zM416 670l-86 73l-102 -74c-16 -11 -38 -24 -60 -24c-13 0 -22 3 -34 10c-20 12 -27 26 -27 46c0 5 0 10 1 15c2 24 19 48 38 60c48 34 99 67 147 101c17 11 38 18 55 18
c20 0 30 -7 41 -13l4 -2l130 -105c17 -16 26 -31 26 -52v-7c-3 -29 -11 -46 -42 -62c-11 -6 -22 -9 -35 -9c-26 0 -42 13 -56 25z" />
    <glyph glyph-name="ecircumflex" unicode="&#xea;" horiz-adv-x="559" 
d="M311 600c146 0 223 -93 223 -226c0 -13 0 -27 -2 -41c-8 -77 -55 -77 -132 -77h-229c0 -4 -1 -9 -1 -13c0 -80 80 -108 121 -108c77 0 115 62 168 62c42 0 50 -34 50 -66c-2 -18 -7 -32 -22 -46c-56 -62 -134 -96 -226 -96c-161 0 -244 117 -244 263
c0 169 117 348 294 348zM190 360h185c1 5 1 10 1 14c0 55 -38 81 -79 81c-46 0 -100 -33 -107 -95zM421 660l-86 73l-102 -74c-16 -11 -38 -24 -60 -24c-13 0 -22 3 -34 10c-20 12 -27 26 -27 46c0 5 0 10 1 15c2 24 19 48 38 60c48 34 99 67 147 101c17 11 38 18 55 18
c20 0 30 -7 41 -13l4 -2l130 -105c17 -16 26 -31 26 -52v-7c-3 -29 -11 -46 -42 -62c-11 -6 -22 -9 -35 -9c-26 0 -42 13 -56 25z" />
    <glyph glyph-name="icircumflex" unicode="&#xee;" horiz-adv-x="300" 
d="M63 497c5 52 35 77 85 77c47 0 72 -20 72 -64c0 -4 -1 -8 -35 -337v-7c0 -11 2 -24 16 -24c50 0 77 -22 77 -64c0 -55 -41 -86 -92 -86c-111 0 -161 51 -161 133c0 8 0 15 38 372zM245 660l-86 73l-102 -74c-16 -11 -38 -24 -60 -24c-13 0 -22 3 -34 10
c-20 12 -27 26 -27 46c0 5 0 10 1 15c2 24 19 48 38 60c48 34 99 67 147 101c17 11 38 18 55 18c20 0 30 -7 41 -13l4 -2l130 -105c17 -16 26 -31 26 -52v-7c-3 -29 -11 -46 -42 -62c-11 -6 -22 -9 -35 -9c-26 0 -42 13 -56 25z" />
    <glyph glyph-name="ocircumflex" unicode="&#xf4;" horiz-adv-x="568" 
d="M310 598c155 0 230 -129 230 -268c0 -175 -108 -339 -293 -339c-155 0 -230 122 -230 261c0 176 117 346 293 346zM295 456c-86 0 -119 -120 -119 -183c0 -66 23 -142 85 -142c87 0 120 113 120 178c0 67 -23 147 -86 147zM410 660l-86 73l-102 -74
c-16 -11 -38 -24 -60 -24c-13 0 -22 3 -34 10c-20 12 -27 26 -27 46c0 5 0 10 1 15c2 24 19 48 38 60c48 34 99 67 147 101c17 11 38 18 55 18c20 0 30 -7 41 -13l4 -2l130 -105c17 -16 26 -31 26 -52v-7c-3 -29 -11 -46 -42 -62c-11 -6 -22 -9 -35 -9c-26 0 -42 13 -56 25z
" />
    <glyph glyph-name="ucircumflex" unicode="&#xfb;" horiz-adv-x="563" 
d="M191 253c-1 -11 -2 -21 -2 -29c0 -67 29 -81 59 -81c47 0 100 52 110 148l23 222c5 50 27 79 83 79c46 0 69 -21 69 -63c0 -5 0 -10 -48 -468c-5 -48 -33 -74 -85 -74c-25 0 -52 16 -52 55v8l3 30c-48 -56 -108 -86 -163 -86c-84 0 -156 71 -156 198c0 12 1 26 31 318
c6 53 33 77 84 77c47 0 70 -19 70 -61c0 -5 0 -10 -26 -273zM404 660l-86 73l-102 -74c-16 -11 -38 -24 -60 -24c-13 0 -22 3 -34 10c-20 12 -27 26 -27 46c0 5 0 10 1 15c2 24 19 48 38 60c48 34 99 67 147 101c17 11 38 18 55 18c20 0 30 -7 41 -13l4 -2l130 -105
c17 -16 26 -31 26 -52v-7c-3 -29 -11 -46 -42 -62c-11 -6 -22 -9 -35 -9c-26 0 -42 13 -56 25z" />
    <glyph glyph-name="Acircumflex" unicode="&#xc2;" horiz-adv-x="645" 
d="M338 501l-93 -198h142c-18 79 -24 92 -49 198zM456 51l-26 90h-255c-12 -26 -23 -51 -35 -75c-19 -44 -50 -66 -91 -66c-49 0 -69 31 -69 67c0 18 5 32 10 45l273 594c22 47 58 71 104 71s78 -24 90 -71c146 -563 157 -614 157 -626c-5 -47 -36 -80 -86 -80
c-38 0 -63 18 -72 51zM452 846l-86 73l-102 -74c-16 -11 -38 -24 -60 -24c-13 0 -22 3 -34 10c-20 12 -27 26 -27 46c0 5 0 10 1 15c2 24 19 48 38 60c48 34 99 67 147 101c17 11 38 18 55 18c20 0 30 -7 41 -13l4 -2l130 -105c17 -16 26 -31 26 -52v-7
c-3 -29 -11 -46 -42 -62c-11 -6 -22 -9 -35 -9c-26 0 -42 13 -56 25z" />
    <glyph glyph-name="Ecircumflex" unicode="&#xca;" horiz-adv-x="542" 
d="M98 690c6 58 38 87 93 87h282c49 0 73 -20 73 -64c0 -61 -36 -96 -90 -96h-206l-14 -135h161c49 0 73 -22 73 -67c0 -57 -36 -93 -90 -93h-161l-17 -162h213c53 0 79 -22 79 -66c0 -62 -41 -94 -95 -94h-289c-60 0 -77 12 -77 54c0 10 1 21 65 636zM418 846l-86 73
l-102 -74c-16 -11 -38 -24 -60 -24c-13 0 -22 3 -34 10c-20 12 -27 26 -27 46c0 5 0 10 1 15c2 24 19 48 38 60c48 34 99 67 147 101c17 11 38 18 55 18c20 0 30 -7 41 -13l4 -2l130 -105c17 -16 26 -31 26 -52v-7c-3 -29 -11 -46 -42 -62c-11 -6 -22 -9 -35 -9
c-26 0 -42 13 -56 25z" />
    <glyph glyph-name="Ocircumflex" unicode="&#xd4;" horiz-adv-x="743" 
d="M418 800c209 0 305 -169 305 -351c0 -228 -153 -458 -390 -458c-205 0 -301 167 -301 350c0 225 149 459 386 459zM401 638c-145 0 -204 -168 -204 -280c0 -110 48 -208 154 -208c146 0 207 169 207 282c0 109 -48 206 -157 206zM504 846l-86 73l-102 -74
c-16 -11 -38 -24 -60 -24c-13 0 -22 3 -34 10c-20 12 -27 26 -27 46c0 5 0 10 1 15c2 24 19 48 38 60c48 34 99 67 147 101c17 11 38 18 55 18c20 0 30 -7 41 -13l4 -2l130 -105c17 -16 26 -31 26 -52v-7c-3 -29 -11 -46 -42 -62c-11 -6 -22 -9 -35 -9c-26 0 -42 13 -56 25z
" />
    <glyph glyph-name="Icircumflex" unicode="&#xce;" horiz-adv-x="284" 
d="M99 698c6 55 35 81 88 81c49 0 74 -21 74 -66c0 -5 0 -10 -66 -632c-6 -55 -35 -81 -89 -81c-48 0 -73 21 -73 66c0 5 0 10 66 632zM292 846l-86 73l-102 -74c-16 -11 -38 -24 -60 -24c-13 0 -22 3 -34 10c-20 12 -27 26 -27 46c0 5 0 10 1 15c2 24 19 48 38 60
c48 34 99 67 147 101c17 11 38 18 55 18c20 0 30 -7 41 -13l4 -2l130 -105c17 -16 26 -31 26 -52v-7c-3 -29 -11 -46 -42 -62c-11 -6 -22 -9 -35 -9c-26 0 -42 13 -56 25z" />
    <glyph glyph-name="Ucircumflex" unicode="&#xdb;" horiz-adv-x="729" 
d="M93 692c6 59 37 86 93 86c50 0 75 -22 75 -69c0 -5 0 -11 -40 -392c-1 -13 -2 -22 -2 -30c0 -100 61 -130 132 -130c77 0 139 34 152 160l39 375c6 59 37 86 93 86c51 0 76 -22 76 -70c0 -5 0 -10 -41 -398c-25 -239 -179 -321 -346 -321c-155 0 -274 70 -274 264
c0 18 1 37 43 439zM509 846l-86 73l-102 -74c-16 -11 -38 -24 -60 -24c-13 0 -22 3 -34 10c-20 12 -27 26 -27 46c0 5 0 10 1 15c2 24 19 48 38 60c48 34 99 67 147 101c17 11 38 18 55 18c20 0 30 -7 41 -13l4 -2l130 -105c17 -16 26 -31 26 -52v-7c-3 -29 -11 -46 -42 -62
c-11 -6 -22 -9 -35 -9c-26 0 -42 13 -56 25z" />
    <glyph glyph-name="ring" unicode="&#x2da;" horiz-adv-x="304" 
d="M155 802c75 0 121 -51 121 -119c0 -5 -1 -10 -1 -15c-8 -76 -74 -134 -149 -134c-71 0 -119 50 -119 119c0 5 0 10 1 16c7 69 61 133 147 133zM146 718c-32 0 -52 -24 -54 -50c0 -3 -1 -6 -1 -8c0 -25 19 -42 44 -42c29 0 52 21 56 50v4c0 26 -17 46 -45 46z" />
    <glyph glyph-name="aring" unicode="&#xe5;" horiz-adv-x="628" 
d="M481 589c46 0 70 -24 70 -67c0 -4 -1 -8 -39 -365c0 -10 6 -15 16 -15c50 0 77 -22 77 -64c0 -55 -41 -86 -92 -86c-92 0 -135 33 -150 91c-46 -58 -109 -94 -163 -94c-97 0 -182 100 -182 253c0 146 80 348 247 348c48 0 103 -24 129 -76c7 49 38 75 87 75zM255 138
c84 0 120 116 120 180c0 80 -40 127 -85 127c-82 0 -115 -126 -115 -187c0 -65 25 -120 80 -120zM340 892c75 0 121 -51 121 -119c0 -5 -1 -10 -1 -15c-8 -76 -74 -134 -149 -134c-71 0 -119 50 -119 119c0 5 0 10 1 16c7 69 61 133 147 133zM331 808c-32 0 -52 -24 -54 -50
c0 -3 -1 -6 -1 -8c0 -25 19 -42 44 -42c29 0 52 21 56 50v4c0 26 -17 46 -45 46z" />
    <glyph glyph-name="Oslash" unicode="&#xd8;" horiz-adv-x="743" 
d="M418 800c30 0 58 -4 84 -11c17 15 38 23 61 23c43 0 69 -32 69 -70c-1 -11 -2 -19 -4 -26c64 -67 95 -165 95 -267c0 -228 -153 -458 -390 -458c-24 0 -45 3 -66 7c-13 -14 -38 -29 -67 -29c-36 0 -66 27 -66 70c0 8 0 16 2 24c-70 66 -104 169 -104 278
c0 225 149 459 386 459zM401 638c-145 0 -204 -168 -204 -280c0 -44 7 -87 23 -121l197 400c-5 1 -11 1 -16 1zM346 150h5c146 0 207 169 207 282c0 37 -6 73 -17 104z" />
    <glyph glyph-name="ordfeminine" unicode="&#xaa;" horiz-adv-x="423" 
d="M335 761c28 0 43 -14 43 -41c0 -2 -1 -4 -24 -222c0 -6 4 -9 10 -9c30 0 47 -14 47 -39c0 -34 -25 -53 -56 -53c-56 0 -83 20 -92 56c-28 -36 -66 -58 -99 -58c-59 0 -111 61 -111 155c0 89 49 212 151 212c29 0 62 -15 78 -46c4 29 23 45 53 45zM197 486
c52 0 74 71 74 110c0 49 -25 77 -52 77c-50 0 -70 -76 -70 -114c0 -39 15 -73 48 -73z" />
    <glyph glyph-name="ordmasculine" unicode="&#xba;" horiz-adv-x="378" 
d="M231 756c96 0 143 -80 143 -166c0 -109 -67 -211 -182 -211c-96 0 -142 76 -142 162c0 109 72 215 181 215zM222 668c-53 0 -74 -75 -74 -114c0 -41 14 -88 53 -88c54 0 74 70 74 111s-14 91 -53 91z" />
    <glyph glyph-name="cedilla" unicode="&#xb8;" horiz-adv-x="516" 
d="M149 0h167c-1 -5 -4 -11 -4 -18c0 -2 -1 -4 -1 -6c0 -4 1 -8 4 -12c13 -28 46 -46 46 -94c0 -4 -1 -8 -1 -12c-11 -104 -93 -143 -165 -143c-34 0 -76 27 -76 69v7c5 53 37 64 71 70c-22 17 -50 54 -50 98c0 4 1 7 1 11c1 10 4 20 8 30z" />
    <glyph glyph-name="approxequal" unicode="&#x2248;" horiz-adv-x="630" 
d="M114 56c-44 0 -67 23 -67 67c0 76 114 162 183 162c49 0 93 -23 127 -43c20 -12 42 -24 54 -24c1 0 7 8 14 15c20 24 43 51 87 51c46 0 68 -24 68 -67c0 -79 -125 -161 -192 -161c-48 0 -81 20 -113 40c-23 12 -43 26 -60 26c-4 0 -8 -3 -18 -14c-28 -35 -57 -52 -83 -52
zM106 306c-44 0 -67 23 -67 67c0 76 114 162 183 162c49 0 93 -23 127 -43c20 -12 42 -24 54 -24c1 0 7 8 14 15c20 24 43 51 87 51c46 0 68 -24 68 -67c0 -79 -125 -161 -192 -161c-48 0 -81 20 -113 40c-23 12 -43 26 -60 26c-4 0 -8 -3 -18 -14c-28 -35 -57 -52 -83 -52z
" />
    <glyph glyph-name="notequal" unicode="&#x2260;" horiz-adv-x="695" 
d="M164 81h-53c-46 0 -70 22 -70 64c0 54 33 91 86 91h113l39 80h-143c-46 0 -70 21 -70 63c0 57 35 91 86 91h203l75 153c19 38 49 55 83 55c40 0 64 -30 64 -65c-2 -23 -6 -36 -13 -49l-48 -94h55c47 0 69 -22 69 -64c0 -54 -32 -90 -85 -90h-116l-40 -80h147
c47 0 69 -22 69 -63c0 -55 -30 -92 -85 -92h-209l-72 -143c-5 -15 -34 -42 -73 -42c-33 0 -61 25 -61 65c0 14 3 30 10 41z" />
    <glyph glyph-name="integral" unicode="&#x222b;" horiz-adv-x="364" 
d="M70 -14l67 642c14 135 92 162 192 162c36 0 64 -33 64 -65v-6c-4 -43 -34 -66 -90 -66c-13 0 -17 -17 -19 -36l-67 -642c-14 -135 -92 -162 -191 -162c-36 0 -64 33 -64 65v6c4 43 34 66 89 66c13 0 17 17 19 36z" />
    <glyph glyph-name="germandbls" unicode="&#xdf;" horiz-adv-x="610" 
d="M222 500l-44 -418c-6 -56 -33 -83 -86 -83c-47 0 -70 22 -70 66c0 5 0 10 1 16l47 458c15 147 109 256 275 256c128 0 210 -96 210 -197c0 -6 0 -13 -1 -19c-6 -51 -32 -101 -85 -139c73 -39 108 -111 108 -184c0 -9 0 -17 -1 -26c-12 -115 -106 -228 -261 -228
c-44 0 -64 30 -64 64c0 3 1 7 1 10c4 37 32 70 81 78c55 10 81 42 85 78c0 3 1 6 1 9c0 43 -32 88 -82 103l-16 6c-1 0 -2 1 -3 1c-28 11 -51 20 -51 59c0 4 1 8 1 12c5 47 39 64 77 76c17 6 46 36 49 66c0 3 1 7 1 10c0 40 -27 70 -67 70c-77 0 -97 -63 -106 -144z" />
    <glyph glyph-name="Aring" unicode="&#xc5;" horiz-adv-x="645" 
d="M383 983c75 0 121 -51 121 -119c0 -5 -1 -10 -1 -15c-5 -44 -29 -82 -63 -106c8 -10 13 -23 17 -37c146 -563 157 -614 157 -626c-5 -47 -36 -80 -86 -80c-38 0 -63 18 -72 51l-26 90h-255c-12 -26 -23 -51 -35 -75c-19 -44 -50 -66 -91 -66c-49 0 -69 31 -69 67
c0 18 5 32 10 45l273 594c5 11 12 22 19 31c-30 21 -47 55 -47 97c0 5 0 10 1 16c7 69 61 133 147 133zM338 501l-93 -198h142c-18 79 -24 92 -49 198zM374 899c-32 0 -52 -24 -54 -50c0 -3 -1 -6 -1 -8c0 -25 19 -42 44 -42c29 0 52 21 56 50v4c0 26 -17 46 -45 46z" />
    <glyph glyph-name="cent" unicode="&#xa2;" horiz-adv-x="529" 
d="M253 576l8 77c6 57 34 83 87 83c45 0 68 -21 68 -66c0 -5 0 -11 -1 -17l-8 -73c16 -4 33 -9 48 -16c29 -14 49 -39 49 -67v-6c-5 -45 -37 -73 -81 -73c-30 0 -67 17 -105 17c-70 0 -130 -58 -139 -147c-1 -6 -1 -12 -1 -18c0 -72 48 -127 112 -127c24 0 52 6 77 22
c12 8 27 11 37 11c32 0 64 -28 64 -65v-8c-3 -30 -22 -51 -48 -69c-25 -15 -50 -26 -73 -33l-8 -70c-6 -53 -33 -77 -85 -77c-46 0 -70 19 -70 63c0 4 1 9 1 14l8 72c-103 33 -172 128 -172 252c0 12 1 25 2 37c15 145 112 250 230 284z" />
    <glyph glyph-name="oslash" unicode="&#xf8;" horiz-adv-x="568" 
d="M347 595l24 48c20 37 49 55 83 55c40 0 64 -30 64 -65c-2 -23 -6 -36 -13 -49l-30 -59c44 -50 65 -121 65 -195c0 -175 -108 -339 -293 -339c-14 0 -27 1 -39 3l-18 -36c-5 -15 -34 -42 -73 -42c-33 0 -61 25 -61 65c0 14 3 30 10 41l17 36c-44 48 -66 119 -66 194
c0 176 117 346 293 346c13 0 25 -1 37 -3zM381 309c0 8 0 17 -1 26l-102 -203c74 14 103 116 103 177zM176 273c0 -9 0 -17 1 -25l101 206c-74 -14 -102 -122 -102 -181z" />
    <glyph glyph-name="questiondown" unicode="&#xbf;" horiz-adv-x="456" 
d="M361 520c-5 -59 -48 -98 -98 -98c-46 0 -79 35 -79 80c5 59 48 98 97 98c47 0 80 -35 80 -80zM154 54v-6c0 -30 20 -42 42 -42s44 18 47 41c11 50 47 77 86 77c35 0 69 -24 69 -73c0 -111 -108 -201 -222 -201c-98 0 -181 61 -181 177c0 123 108 225 204 316
c17 13 41 24 59 24c43 0 69 -27 69 -67c0 -28 -17 -52 -39 -75c-77 -70 -129 -122 -134 -171z" />
    <glyph glyph-name="exclamdown" unicode="&#xa1;" horiz-adv-x="257" 
d="M43 267c6 53 33 78 86 78c45 0 68 -20 68 -62c0 -5 0 -10 -39 -380c-6 -55 -33 -83 -85 -83c-46 0 -69 22 -69 66c0 5 0 11 39 381zM233 513c-5 -59 -49 -98 -98 -98c-48 0 -81 35 -81 80c5 59 48 98 99 98c46 0 80 -35 80 -80z" />
    <glyph glyph-name="Ccedilla" unicode="&#xc7;" horiz-adv-x="669" 
d="M443 0c-1 -5 -4 -11 -4 -18c0 -2 -1 -4 -1 -6c0 -4 1 -8 4 -12c13 -28 46 -46 46 -94c0 -4 -1 -8 -1 -12c-11 -104 -93 -143 -165 -143c-34 0 -76 27 -76 69v7c5 53 37 64 71 70c-22 17 -50 54 -50 98c0 4 1 7 1 11c1 9 3 18 6 27c-166 35 -243 182 -243 341
c0 240 167 464 413 464c85 0 159 -27 219 -87c16 -17 24 -37 24 -60c-6 -59 -44 -91 -88 -91c-20 0 -46 9 -59 24c-27 31 -71 47 -117 47c-148 0 -222 -152 -222 -272c0 -108 56 -202 173 -202c46 0 90 11 125 43c20 18 36 24 57 24c52 0 73 -32 73 -70
c0 -32 -15 -61 -38 -80c-46 -38 -97 -64 -148 -78z" />
    <glyph glyph-name="ccedilla" unicode="&#xe7;" horiz-adv-x="505" 
d="M314 435c-89 0 -140 -90 -140 -165c0 -72 48 -127 112 -127c24 0 52 6 77 22c12 8 27 11 37 11c32 0 64 -28 64 -65c-3 -38 -22 -59 -49 -76c-25 -16 -50 -27 -74 -34c-1 -2 -1 -6 -1 -9c0 -2 -1 -4 -1 -6c0 -4 1 -8 4 -12c13 -28 46 -46 46 -94c0 -4 -1 -8 -1 -12
c-11 -104 -93 -143 -165 -143c-34 0 -76 27 -76 69v7c5 53 37 64 71 70c-22 17 -50 54 -50 98c0 4 1 7 1 11c1 9 3 19 7 27c-96 37 -159 131 -159 249c0 175 138 331 312 331c38 0 82 -4 122 -23c29 -14 49 -39 49 -67c-5 -51 -37 -79 -81 -79c-30 0 -67 17 -105 17z" />
    <glyph glyph-name="AE" unicode="&#xc6;" horiz-adv-x="831" 
d="M174 141l-34 -75c-20 -44 -51 -66 -92 -66c-48 0 -68 31 -68 68c0 4 1 7 1 11c1 11 5 23 9 33l272 594c22 47 88 71 134 71h367c49 0 73 -20 73 -64c0 -5 0 -11 -1 -16c-6 -53 -34 -80 -88 -80h-206l-15 -135h161c49 0 73 -22 73 -67c0 -4 -1 -9 -1 -14
c-6 -52 -34 -79 -88 -79h-161l-18 -162h213c53 0 79 -22 79 -66c0 -5 0 -9 -1 -14c-5 -53 -36 -80 -94 -80h-289c-61 0 -77 12 -77 55c0 9 1 20 2 33l5 53h-156zM376 581l-131 -278h103l25 247c2 16 3 29 3 31z" />
    <glyph glyph-name="OE" unicode="&#x152;" horiz-adv-x="953" 
d="M417 800c45 0 84 -9 121 -23h348c48 0 72 -20 72 -64c0 -5 0 -10 -1 -16c-5 -53 -34 -80 -88 -80h-206l-14 -135h161c48 0 72 -22 72 -65c0 -5 0 -10 -1 -16c-5 -52 -34 -79 -88 -79h-161l-17 -162h213c52 0 78 -21 78 -65c0 -5 0 -10 -1 -15c-5 -53 -36 -80 -94 -80
h-289c-34 0 -55 4 -66 13c-38 -14 -79 -22 -124 -22c-205 0 -300 167 -300 350c0 19 1 37 3 56c21 201 155 403 382 403zM351 150c41 0 77 14 107 37l43 410c-26 25 -59 41 -101 41c-119 0 -188 -118 -201 -239c-1 -14 -2 -28 -2 -41c0 -110 48 -208 154 -208z" />
    <glyph glyph-name="oe" unicode="&#x153;" horiz-adv-x="936" 
d="M310 598c155 0 230 -129 230 -268c0 -175 -108 -339 -293 -339c-155 0 -230 122 -230 261c0 176 117 346 293 346zM295 456c-86 0 -119 -120 -119 -183c0 -66 23 -142 85 -142c87 0 120 113 120 178c0 67 -23 147 -86 147zM688 600c146 0 223 -93 223 -226
c0 -13 0 -27 -2 -41c-8 -77 -55 -77 -132 -77h-229c0 -4 -1 -9 -1 -13c0 -80 80 -108 121 -108c77 0 115 62 168 62c42 0 50 -34 50 -66c-2 -18 -7 -32 -22 -46c-56 -62 -134 -96 -226 -96c-161 0 -244 117 -244 263c0 169 117 348 294 348zM567 360h185c1 5 1 10 1 14
c0 55 -38 81 -79 81c-46 0 -100 -33 -107 -95z" />
    <glyph glyph-name="ae" unicode="&#xe6;" horiz-adv-x="897" 
d="M647 591c147 0 225 -86 225 -219c0 -12 -1 -26 -2 -39c-8 -77 -55 -77 -132 -77h-229c-1 -5 -1 -9 -1 -14c0 -79 79 -107 120 -107c77 0 116 62 169 62c29 0 51 -17 51 -54c0 -4 -1 -8 -1 -12c-2 -18 -8 -32 -22 -46c-57 -62 -134 -96 -226 -96c-87 0 -151 33 -192 86
l-2 -4c-109 -78 -192 -78 -248 -78c-108 0 -163 70 -163 148c0 5 1 9 1 14c10 90 95 184 223 184c54 0 105 -15 138 -41l5 49c0 3 1 6 1 9c0 54 -60 86 -113 86c-41 0 -75 -13 -111 -13c-35 0 -68 10 -68 52c0 3 1 7 1 11c3 28 25 50 58 63c46 18 95 27 141 27
c74 0 146 -21 189 -68c49 47 112 77 188 77zM528 360h185c1 5 1 10 1 14c0 55 -38 81 -79 81c-46 0 -101 -33 -107 -95zM154 175v-4c0 -30 34 -44 70 -44c45 0 95 18 99 53c0 27 -41 41 -80 41c-42 0 -85 -14 -89 -46z" />
    </font>
</defs>
</svg>
