<?xml version="1.0" standalone="no"?>
<!DOCTYPE svg PUBLIC "-//W3C//DTD SVG 1.1//EN" "http://www.w3.org/Graphics/SVG/1.1/DTD/svg11.dtd" >
<svg>
<metadata>
Created by FontForge 20120731 at Fri Aug  1 16:50:38 2014
 By Alfred Xing
Digitized data Copyright (c) 2011-2013, vernon adams.
</metadata>
<defs>
<font id="Rokkitt-ExtraLight" horiz-adv-x="575" >
  <font-face 
    font-family="Rokkitt"
    font-weight="200"
    font-stretch="normal"
    units-per-em="2048"
    panose-1="2 0 3 3 0 0 0 0 0 0"
    ascent="1638"
    descent="-410"
    x-height="804"
    cap-height="1152"
    bbox="-63 -433.009 2503 1828"
    underline-thickness="0"
    underline-position="0"
    unicode-range="U+000D-FB04"
  />
<missing-glyph horiz-adv-x="644" 
 />
    <glyph glyph-name=".notdef" horiz-adv-x="644" 
 />
    <glyph glyph-name="uni000D" unicode="&#xd;" horiz-adv-x="600" 
 />
    <glyph glyph-name="space" unicode=" " 
 />
    <glyph glyph-name="exclam" unicode="!" horiz-adv-x="256" 
d="M109 347h43l24 436v393h-93v-393zM129 -14c43 0 75 29 75 69c0 38 -32 67 -75 67c-41 0 -71 -29 -71 -67c0 -40 30 -69 71 -69z" />
    <glyph glyph-name="quotedbl" unicode="&#x22;" horiz-adv-x="602" 
d="M184 863h50l21 385h-99zM375 863h49l29 385h-99z" />
    <glyph glyph-name="numbersign" unicode="#" horiz-adv-x="1010" 
d="M188 -3h83l35 375h343l-39 -375h83l38 375h188l1 64h-180l33 339h176l2 63h-168l34 337h-82l-35 -337h-340l35 337h-84l-34 -337h-181l-1 -63h172l-32 -339h-170l-2 -64h161zM316 436l34 339h340l-33 -339h-341z" />
    <glyph glyph-name="dollar" unicode="$" horiz-adv-x="1110" 
d="M544 -182h52v1520h-52v-1520zM607 -21c303 0 389 191 389 321c0 266 -190 297 -413 324c-195 23 -350 51 -350 236c0 137 92 243 309 243c170 0 288 -74 306 -156l-1 -108h82v315h-82v-103c-54 81 -204 123 -314 123c-217 0 -388 -101 -388 -315
c0 -255 208 -292 423 -314c209 -21 336 -58 336 -243c0 -129 -79 -252 -300 -252c-212 0 -334 67 -374 192v146h-82v-389h82v136c59 -110 198 -156 377 -156z" />
    <glyph glyph-name="percent" unicode="%" horiz-adv-x="1627" 
d="M400 678c-128 0 -219 93 -219 221c0 127 91 219 219 219s220 -92 220 -219c0 -128 -92 -221 -220 -221zM400 619c169 0 290 117 290 280c0 160 -121 276 -290 276c-168 0 -289 -116 -289 -276c0 -163 121 -280 289 -280zM334 -45l1023 1237l-44 36l-1028 -1231zM1241 37
c-127 0 -218 93 -218 221c0 127 91 219 218 219c129 0 221 -92 221 -219c0 -128 -92 -221 -221 -221zM1241 -22c170 0 291 117 291 280c0 160 -121 276 -291 276c-167 0 -288 -116 -288 -276c0 -163 121 -280 288 -280z" />
    <glyph glyph-name="ampersand" unicode="&#x26;" horiz-adv-x="1171" 
d="M490 -21c140 0 259 48 337 133l87 -112h204v69h-157l-81 101c47 67 92 196 103 264h134v67h-194c-7 -74 -45 -206 -88 -272l-333 409c181 74 285 192 285 331c0 136 -103 221 -271 221c-173 0 -279 -85 -279 -224c0 -94 59 -191 150 -304c-182 -62 -275 -178 -275 -344
c0 -212 144 -339 378 -339zM500 53c-187 0 -298 102 -298 268c0 139 75 237 228 285l352 -437c-67 -77 -168 -116 -282 -116zM464 693c-82 104 -148 190 -148 275c0 98 79 155 200 155c120 0 192 -57 192 -157c0 -117 -93 -214 -244 -273z" />
    <glyph glyph-name="quotesingle" unicode="'" horiz-adv-x="311" 
d="M137 863h50l21 385h-99z" />
    <glyph glyph-name="parenleft" unicode="(" horiz-adv-x="529" 
d="M486 -117l1 57c-192 87 -288 338 -288 590c0 251 96 502 288 588l-1 56c-260 -96 -390 -372 -390 -647s130 -549 390 -644z" />
    <glyph glyph-name="parenright" unicode=")" horiz-adv-x="529" 
d="M97 -117c260 95 391 369 391 644s-131 551 -391 647l-2 -56c192 -86 290 -337 290 -588c0 -252 -98 -503 -290 -590z" />
    <glyph glyph-name="asterisk" unicode="*" horiz-adv-x="938" 
d="M249 418l220 340l220 -338l67 50l-256 313l390 120l-26 81l-375 -165l24 404h-88l25 -404l-376 165l-27 -81l391 -120l-258 -313z" />
    <glyph glyph-name="plus" unicode="+" horiz-adv-x="794" 
d="M364 138h73v401h345v74h-345v389h-73v-389h-347v-74h347v-401z" />
    <glyph glyph-name="comma" unicode="," horiz-adv-x="418" 
d="M165 -191c117 0 142 80 142 193c0 14 0 127 -2 138c-17 0 -117 0 -132 -1c0 -14 0 -125 1 -139h72c0 -111 -17 -138 -81 -148v-43z" />
    <glyph glyph-name="hyphen" unicode="-" horiz-adv-x="827" 
d="M159 413h508v69h-508v-69z" />
    <glyph glyph-name="period" unicode="." horiz-adv-x="482" 
d="M184 0h124v130h-124v-130z" />
    <glyph glyph-name="slash" unicode="/" horiz-adv-x="426" 
d="M-21 -18l71 -10l387 1213l-67 11z" />
    <glyph glyph-name="zero" unicode="0" horiz-adv-x="1093" 
d="M546 43c-212 -1 -329 184 -329 526c0 348 117 539 329 539c213 0 331 -190 331 -539c0 -340 -118 -526 -331 -526zM546 -22c274 0 420 209 420 591c0 383 -146 605 -420 605c-272 0 -418 -222 -418 -605c0 -382 146 -591 418 -591z" />
    <glyph glyph-name="one" unicode="1" horiz-adv-x="608" 
d="M125 0h417v66h-161v1087l-255 -59l10 -65l156 38v-1001h-167v-66z" />
    <glyph glyph-name="two" unicode="2" horiz-adv-x="985" 
d="M123 0h728l-1 281h-74v-210h-544l342 342c165 165 273 298 273 434c0 200 -133 327 -356 327c-221 0 -359 -130 -359 -331c0 -35 6 -79 19 -121h80c-9 46 -15 87 -15 113c0 166 107 264 276 264c172 0 264 -103 266 -252c1 -108 -89 -225 -242 -378l-393 -396v-73z" />
    <glyph glyph-name="three" unicode="3" horiz-adv-x="995" 
d="M485 -21c253 0 400 131 400 355c0 154 -103 248 -281 273c165 24 259 120 259 266c0 188 -145 301 -391 301c-184 0 -322 -86 -381 -232l71 -33c49 123 160 194 308 194c193 0 306 -86 306 -231c0 -148 -116 -232 -360 -232v-70c249 0 376 -80 378 -238
c2 -178 -112 -281 -309 -281c-147 0 -259 71 -319 199l-69 -42c58 -144 201 -229 388 -229z" />
    <glyph glyph-name="four" unicode="4" horiz-adv-x="967" 
d="M426 0h374v66h-142v293h207v66h-207v727h-92l-476 -717l12 -76h471v-293h-147v-66zM176 425l397 621v-621h-397z" />
    <glyph glyph-name="five" unicode="5" horiz-adv-x="991" 
d="M491 -22c272 0 426 137 426 377s-145 376 -403 376c-111 0 -208 -41 -269 -113l5 463h513v-187h85v258h-682l-6 -585l78 -32c72 80 183 119 272 119c202 0 315 -108 315 -301c0 -192 -120 -301 -333 -301c-137 0 -252 65 -332 177l-55 -60c92 -120 224 -191 386 -191z
" />
    <glyph glyph-name="six" unicode="6" horiz-adv-x="877" 
d="M437 -21c234 0 377 143 377 364c0 213 -147 349 -354 349c-88 0 -190 -43 -233 -88l367 587l-77 47l-361 -594c-52 -82 -94 -187 -94 -318c0 -205 157 -347 375 -347zM438 47c-174 0 -283 120 -283 281c0 190 143 297 292 297c175 0 282 -112 282 -287
c0 -176 -111 -291 -291 -291z" />
    <glyph glyph-name="seven" unicode="7" horiz-adv-x="974" 
d="M391 0h95s189 638 387 1089v63h-749v-309h86v241h562c-235 -573 -381 -1084 -381 -1084z" />
    <glyph glyph-name="eight" unicode="8" horiz-adv-x="1008" 
d="M504 -22c243 0 389 130 389 322c0 154 -85 266 -246 302c146 35 208 145 208 279c0 179 -135 294 -351 293c-215 1 -351 -115 -351 -294c0 -130 57 -218 202 -270c-165 -31 -240 -157 -240 -310c0 -191 143 -322 389 -322zM504 48c-181 0 -295 100 -295 255
c0 160 85 255 211 277c274 -22 379 -109 379 -278c0 -155 -114 -254 -295 -254zM594 629c-244 15 -350 94 -350 246c0 141 99 229 260 229c164 0 261 -90 261 -229c0 -151 -77 -217 -171 -246z" />
    <glyph glyph-name="nine" unicode="9" horiz-adv-x="877" 
d="M366 -85l361 594c53 82 94 187 94 318c0 205 -157 347 -374 347c-235 0 -378 -143 -378 -364c0 -213 150 -348 357 -348c88 0 187 42 230 87l-367 -587zM437 528c-175 0 -283 112 -283 287c0 176 112 291 291 291c174 0 284 -120 284 -281c0 -190 -144 -297 -292 -297z
" />
    <glyph glyph-name="colon" unicode=":" horiz-adv-x="485" 
d="M182 214h127v131h-127v-131zM182 697h127v132h-127v-132z" />
    <glyph glyph-name="semicolon" unicode=";" horiz-adv-x="362" 
d="M95 27c116 1 147 83 147 187v134h-136v-132h65c0 -87 -4 -120 -76 -138v-51zM111 697h127v132h-127v-132z" />
    <glyph glyph-name="less" unicode="&#x3c;" horiz-adv-x="950" 
d="M808 -40v86l-744 530l744 532v88l-840 -596v-50z" />
    <glyph glyph-name="equal" unicode="=" horiz-adv-x="863" 
d="M171 292h523v73h-523v-73zM171 571h523v72h-523v-72z" />
    <glyph glyph-name="greater" unicode="&#x3e;" horiz-adv-x="951" 
d="M145 -40l838 588v54l-838 594v-88l743 -532l-743 -530v-86z" />
    <glyph glyph-name="question" unicode="?" horiz-adv-x="696" 
d="M283 297h55c52 402 325 317 325 612c0 173 -123 283 -318 283c-176 0 -310 -68 -322 -261h73c22 141 101 195 250 195c148 0 238 -84 238 -217c0 -253 -273 -175 -301 -612zM310 -19c44 0 77 30 77 72c0 39 -33 70 -77 70c-43 0 -75 -31 -75 -70c0 -42 32 -72 75 -72z
" />
    <glyph glyph-name="at" unicode="@" horiz-adv-x="1410" 
d="M769 -37c171 0 293 40 394 114l-31 41c-96 -66 -214 -100 -363 -100c-368 0 -582 211 -582 529c0 331 240 577 568 577c330 0 487 -214 487 -439c0 -252 -163 -413 -256 -395c-50 5 -61 50 -32 184l92 422h-60l-39 -183c-2 122 -90 202 -210 202
c-215 0 -330 -205 -330 -392c0 -186 115 -283 246 -283c126 0 209 91 250 206c-44 -149 7 -196 65 -204c153 -22 331 187 331 443c0 246 -153 494 -540 494c-413 0 -645 -321 -645 -630c0 -300 209 -586 655 -586zM663 293c-125 0 -187 94 -187 229c0 175 97 335 254 335
c113 0 186 -67 186 -202c0 -182 -103 -362 -253 -362z" />
    <glyph glyph-name="A" unicode="A" horiz-adv-x="1382" 
d="M487 534l197 547h8l197 -547h-402zM78 0h395v66h-152l146 403h441l147 -403h-151v-66h401v66h-149l-378 1020h143v66h-457v-66h140l-376 -1020h-150v-66z" />
    <glyph glyph-name="B" unicode="B" horiz-adv-x="1260" 
d="M734 1152h-626v-66h170v-1020h-170v-66h703c232 0 346 141 346 319c0 133 -63 258 -241 292c108 26 174 124 174 259c0 187 -125 282 -356 282zM713 1086c189 0 284 -64 284 -219c0 -133 -65 -227 -228 -227h-395v446h339zM374 572h403c196 0 283 -108 283 -250
c0 -156 -92 -256 -262 -256h-424v506z" />
    <glyph glyph-name="C" unicode="C" horiz-adv-x="1390" 
d="M710 -22c228 1 420 78 533 296l-67 39c-99 -197 -283 -262 -461 -262c-259 0 -505 183 -505 529c0 277 186 519 505 519c228 0 355 -90 452 -288l67 12v330h-79v-210c-89 142 -215 230 -444 230c-360 0 -599 -259 -599 -593c0 -397 292 -601 598 -602z" />
    <glyph glyph-name="D" unicode="D" horiz-adv-x="1420" 
d="M776 1152h-667v-66h170v-1020h-170v-66h671c349 0 523 290 523 578c0 265 -166 574 -527 574zM375 1086h399c292 0 432 -266 432 -510c0 -257 -139 -510 -439 -510h-392v1020z" />
    <glyph glyph-name="E" unicode="E" horiz-adv-x="1211" 
d="M992 819h78v333h-962v-66h170v-1020h-170v-66h982v339h-78v-273h-638v490h401v-166h58v394h-59v-159h-400v461h618v-267z" />
    <glyph glyph-name="F" unicode="F" horiz-adv-x="1149" 
d="M995 799h76v353h-963v-66h170v-1020h-170v-66h436v66h-170v495h436v-164h57v379h-57v-147h-436v457h621v-287z" />
    <glyph glyph-name="G" unicode="G" horiz-adv-x="1397" 
d="M717 -21c245 0 554 112 555 581h-344v-69h250c-6 -337 -262 -437 -458 -439c-313 0 -509 206 -509 533c0 317 196 516 507 516c196 0 360 -98 436 -274h69v326h-82v-181c-90 129 -247 202 -426 202c-365 0 -605 -227 -605 -589c0 -372 237 -606 607 -606z" />
    <glyph glyph-name="H" unicode="H" horiz-adv-x="1473" 
d="M108 0h436v66h-170v485h724v-485h-170v-66h436v66h-170v1020h170v66h-436v-66h170v-465h-724v465h170v66h-436v-66h170v-1020h-170v-66z" />
    <glyph glyph-name="I" unicode="I" horiz-adv-x="655" 
d="M109 0h436v66h-170v1020h170v66h-436v-66h170v-1020h-170v-66z" />
    <glyph glyph-name="J" unicode="J" horiz-adv-x="601" 
d="M90 -116h125c138 0 195 54 195 244v958h133v66h-371v-66h141v-952c0 -119 -13 -175 -100 -175h-123v-75z" />
    <glyph glyph-name="K" unicode="K" horiz-adv-x="1301" 
d="M800 0h426v66h-160l-586 519l556 501h164v66h-425v-66h148l-549 -490v490h170v66h-436v-66h170v-1020h-170v-66h436v66h-170v503l573 -503h-147v-66z" />
    <glyph glyph-name="L" unicode="L" horiz-adv-x="1064" 
d="M374 66v1020h170v66h-436v-66h170v-1020h-170v-66h903v402h-79v-336h-558z" />
    <glyph glyph-name="M" unicode="M" horiz-adv-x="1641" 
d="M120 0h385v66h-153v974l460 -954h26l442 954v-974h-155v-66h402v66h-154v1020h154v66h-284l-410 -896l-434 896h-279v-66h154v-1020h-154v-66z" />
    <glyph glyph-name="N" unicode="N" horiz-adv-x="1443" 
d="M115 0h388v66h-155v968l790 -1034h96v1086h139v66h-376v-66h157v-955l-783 1021h-256v-66h153v-1020h-153v-66z" />
    <glyph glyph-name="O" unicode="O" horiz-adv-x="1454" 
d="M727 51c-345 0 -510 253 -510 521c0 261 168 529 510 529c338 0 510 -268 510 -529s-172 -521 -510 -521zM725 -22c404 0 613 294 613 594c0 299 -211 602 -611 602s-610 -302 -610 -601s207 -595 608 -595z" />
    <glyph glyph-name="P" unicode="P" horiz-adv-x="1194" 
d="M108 0h436v66h-170v1020h343c166 0 262 -90 262 -248c0 -179 -98 -282 -270 -282h-244l-1 -66h247c235 0 366 128 366 351c0 199 -132 311 -368 311h-601v-66h170v-1020h-170v-66z" />
    <glyph glyph-name="Q" unicode="Q" horiz-adv-x="1442" 
d="M1171 -210l-8 64c-43 -13 -80 -19 -113 -19c-106 0 -171 60 -262 146c365 27 550 308 550 591c0 299 -211 602 -611 602s-610 -302 -610 -601c0 -290 195 -581 580 -594c123 -127 217 -210 351 -210c37 0 77 7 123 21zM727 51c-345 0 -510 253 -510 521
c0 261 168 529 510 529c338 0 510 -268 510 -529s-172 -521 -510 -521z" />
    <glyph glyph-name="R" unicode="R" horiz-adv-x="1283" 
d="M969 0h236v66h-169l-296 476c255 14 338 154 338 305c0 168 -112 305 -350 305h-620v-66h170v-1020h-170v-66h436v66h-170v1020h358c184 0 251 -120 251 -239c0 -111 -55 -245 -299 -245h-239v-67h199z" />
    <glyph glyph-name="S" unicode="S" horiz-adv-x="1112" 
d="M625 -21c303 0 389 191 389 321c0 266 -190 297 -413 324c-195 23 -350 51 -350 236c0 137 92 243 309 243c170 0 288 -74 306 -156l-1 -108h82v315h-82v-103c-54 81 -204 123 -314 123c-217 0 -388 -101 -388 -315c0 -255 208 -292 423 -314c209 -21 336 -58 336 -243
c0 -129 -79 -252 -300 -252c-212 0 -334 67 -374 192v146h-82v-389h82v136c59 -110 198 -156 377 -156z" />
    <glyph glyph-name="T" unicode="T" horiz-adv-x="1146" 
d="M52 766h76v320h393v-1020h-170v-66h436v66h-170v1020h399v-320h79v386h-1043v-386z" />
    <glyph glyph-name="U" unicode="U" horiz-adv-x="1453" 
d="M722 -21c302 0 515 150 515 405v702h157v66h-395v-66h151v-705c0 -200 -169 -329 -426 -329c-242 0 -399 131 -399 330v704h152v66h-401v-66h152v-696c0 -241 178 -411 494 -411z" />
    <glyph glyph-name="V" unicode="V" horiz-adv-x="1269" 
d="M591 0h92l416 1086h129v66h-380v-66h153l-360 -975l-362 975h156v66h-398v-66h140z" />
    <glyph glyph-name="W" unicode="W" horiz-adv-x="1931" 
d="M563 0h92l313 947l312 -947h91l351 1086h145v66h-385v-66h153l-306 -963l-321 984h-72l-323 -984l-312 963h157v66h-394v-66h140z" />
    <glyph glyph-name="X" unicode="X" horiz-adv-x="1298" 
d="M94 0h390v64h-154l311 470l317 -470h-151v-64h401v64h-154l-357 524l337 501h150v63h-390v-63h152l-292 -442l-299 442h148v63h-397v-63h153l339 -496l-358 -529h-146v-64z" />
    <glyph glyph-name="Y" unicode="Y" horiz-adv-x="1272" 
d="M421 0h433v66h-169v408l410 612h154v66h-403v-66h156l-359 -541l-364 541h149v66h-409v-66h156l413 -612v-408h-167v-66z" />
    <glyph glyph-name="Z" unicode="Z" horiz-adv-x="1214" 
d="M136 0h947v376h-76v-310h-759l811 1021v65h-894v-359h76v293h704l-809 -1015v-71z" />
    <glyph glyph-name="bracketleft" unicode="[" horiz-adv-x="429" 
d="M162 -147h235v72h-136v1217h136v71h-235v-1360z" />
    <glyph glyph-name="backslash" unicode="\" horiz-adv-x="439" 
d="M365 -23h85l-388 1211h-81z" />
    <glyph glyph-name="bracketright" unicode="]" horiz-adv-x="427" 
d="M25 -147h234v1360h-234v-71h135v-1217h-135v-72z" />
    <glyph glyph-name="asciicircum" unicode="^" horiz-adv-x="918" 
d="M72 753h85l307 440l295 -440h83l-331 519h-93z" />
    <glyph glyph-name="underscore" unicode="_" horiz-adv-x="920" 
d="M86 -140h749v57h-749v-57z" />
    <glyph glyph-name="grave" unicode="`" horiz-adv-x="218" 
d="M138 984h54l-97 268h-98z" />
    <glyph glyph-name="a" unicode="a" horiz-adv-x="944" 
d="M390 41c-124 0 -194 82 -194 178c0 137 101 181 213 181c92 0 182 -18 270 -33v-226c-116 -70 -197 -100 -289 -100zM383 -22c99 0 192 32 301 101c0 0 12 -85 12 -79h197v66h-124v485c0 137 -82 275 -313 275c-82 0 -199 -25 -303 -74l27 -63c85 39 190 69 279 69
c131 0 220 -70 220 -223v-108c-91 16 -186 31 -274 31c-158 0 -295 -60 -295 -241c0 -140 108 -239 273 -239z" />
    <glyph glyph-name="b" unicode="b" horiz-adv-x="1051" 
d="M60 0h234v85c74 -68 173 -107 275 -107c246 0 424 163 424 435c0 259 -166 413 -404 413c-97 0 -207 -39 -295 -104v452h-228v-66h137v-1042h-143v-66zM294 155v497c86 66 190 105 277 105c198 0 330 -135 330 -356c0 -223 -138 -355 -343 -355c-92 0 -189 40 -264 109z
" />
    <glyph glyph-name="c" unicode="c" horiz-adv-x="958" 
d="M150 406c0 205 144 350 347 350c137 0 242 -82 263 -203h71v253h-80l-1 -104c-37 71 -148 124 -261 124c-251 0 -430 -174 -430 -420c0 -250 176 -427 423 -427c153 0 264 53 351 152l-27 62c-89 -94 -176 -144 -318 -144c-198 0 -338 148 -338 357z" />
    <glyph glyph-name="d" unicode="d" horiz-adv-x="1028" 
d="M764 0h225v66h-134v1108h-228v-66h137v-385c-84 62 -200 103 -305 103c-226 0 -398 -164 -398 -423c0 -257 183 -425 420 -425c97 0 205 39 283 101v-79zM764 658v-512c-76 -60 -180 -99 -269 -99c-198 0 -343 137 -343 348c0 220 134 362 320 362c97 0 209 -39 292 -99z
" />
    <glyph glyph-name="e" unicode="e" horiz-adv-x="962" 
d="M151 441c10 193 150 318 320 318c152 0 287 -105 307 -318h-627zM489 -21c132 0 266 54 359 150l-31 61c-72 -80 -200 -142 -326 -142c-168 0 -330 118 -340 334h714c-5 311 -201 444 -394 444c-215 0 -413 -150 -413 -424c0 -262 200 -423 431 -423z" />
    <glyph glyph-name="f" unicode="f" horiz-adv-x="684" 
d="M101 0h445v66h-198v672h226v66h-226v206c0 85 42 127 105 127c65 0 99 -39 108 -110l69 22c-8 107 -83 155 -180 155c-126 0 -195 -74 -195 -193v-207h-156v-66h156v-672h-154v-66z" />
    <glyph glyph-name="g" unicode="g" horiz-adv-x="1029" 
d="M479 -379c234 0 389 110 389 362v755h136v66h-226v-88c-81 65 -205 108 -311 108c-232 0 -404 -161 -404 -414c0 -252 181 -417 420 -417c102 1 215 43 295 108v-131c0 -177 -102 -277 -299 -277c-78 0 -169 15 -275 46l-17 -70c103 -29 203 -48 292 -48zM778 652v-485
c-78 -64 -187 -106 -281 -106c-197 0 -342 134 -342 341c0 216 133 355 320 355c101 0 218 -42 303 -105z" />
    <glyph glyph-name="h" unicode="h" horiz-adv-x="1008" 
d="M33 0h381v66h-142v584c108 61 217 104 310 104c110 0 180 -68 180 -182v-506h-161v-66h402v66h-152v505c0 160 -104 255 -253 255c-110 0 -213 -44 -326 -112v460h-233v-66h143v-1042h-149v-66z" />
    <glyph glyph-name="i" unicode="i" 
d="M304 1003c43 0 75 29 75 69c0 38 -32 68 -75 68c-41 0 -72 -30 -72 -68c0 -40 31 -69 72 -69zM107 0h422v66h-162v738h-257v-66h168v-672h-171v-66z" />
    <glyph glyph-name="j" unicode="j" horiz-adv-x="446" 
d="M248 1004c43 0 74 29 74 69c0 38 -31 67 -74 67c-41 0 -72 -29 -72 -67c0 -40 31 -69 72 -69zM17 -271h80c201 0 221 110 221 228c0 12 -1 251 -1 848h-252v-64h160v-792c0 -102 -13 -150 -135 -150h-73v-70z" />
    <glyph glyph-name="k" unicode="k" horiz-adv-x="993" 
d="M735 0h218v66h-174l-381 353l409 319h141v66h-399v-66h160l-410 -312v748h-234v-66h144v-1042h-150v-66h382v66h-142v345z" />
    <glyph glyph-name="l" unicode="l" horiz-adv-x="483" 
d="M56 0h382v66h-142v1108h-234v-66h144v-1042h-150v-66z" />
    <glyph glyph-name="m" unicode="m" horiz-adv-x="1589" 
d="M39 0h422v66h-162v593c113 60 221 95 291 95c113 0 183 -68 183 -182v-506h-161v-66h401v66h-151v505c0 29 -4 55 -11 79c101 66 212 104 309 104c112 0 182 -68 182 -182v-506h-160v-66h401v66h-151v505c0 160 -104 255 -252 255c-128 0 -230 -48 -349 -123
c-40 80 -119 123 -221 123c-90 0 -203 -40 -311 -103v81h-258v-66h168v-672h-170v-66z" />
    <glyph glyph-name="n" unicode="n" horiz-adv-x="1031" 
d="M39 0h422v66h-162v587c117 63 231 101 303 101c112 0 182 -68 182 -182v-506h-160v-66h401v66h-151v505c0 160 -104 255 -252 255c-93 0 -212 -43 -323 -109v87h-258v-66h168v-672h-170v-66z" />
    <glyph glyph-name="o" unicode="o" horiz-adv-x="982" 
d="M489 -22c255 0 435 177 435 429c0 245 -180 419 -434 419s-432 -174 -432 -420c0 -251 178 -428 431 -428zM489 49c-199 0 -340 148 -340 357c0 205 141 349 340 349c201 0 343 -144 343 -348c0 -210 -142 -358 -343 -358z" />
    <glyph glyph-name="p" unicode="p" horiz-adv-x="1042" 
d="M559 -22c246 0 423 163 423 435c0 259 -165 413 -403 413c-101 0 -210 -40 -296 -106l-1 84h-217v-66h131v-989h-142v-66h376v66h-144v334c69 -63 171 -105 273 -105zM286 654c86 66 194 103 275 103c198 0 330 -135 330 -356c0 -223 -138 -355 -344 -355
c-90 0 -187 40 -261 107v501z" />
    <glyph glyph-name="q" unicode="q" horiz-adv-x="1065" 
d="M629 -330h375v68h-141v1000h135v66h-220l-4 -88c-86 67 -207 110 -315 110c-227 0 -399 -164 -399 -423c0 -257 184 -425 421 -425c100 0 211 41 292 107v-347h-144v-68zM773 652v-500c-79 -64 -186 -105 -279 -105c-197 0 -342 137 -342 348c0 220 134 362 320 362
c100 0 215 -41 301 -105z" />
    <glyph glyph-name="r" unicode="r" horiz-adv-x="780" 
d="M99 0h422v66h-162l1 387c0 184 95 292 202 292c53 0 92 -14 136 -40l21 76c-49 26 -98 40 -153 40c-81 0 -161 -45 -207 -171v154h-258v-66h168v-672h-170v-66z" />
    <glyph glyph-name="s" unicode="s" horiz-adv-x="905" 
d="M488 -21c157 0 313 68 313 223c0 172 -116 203 -282 241l-124 28c-99 22 -166 56 -166 135c0 106 107 153 215 153c87 0 197 -40 240 -97l9 -123h69v267h-77v-70c-60 58 -162 90 -252 90c-157 0 -292 -72 -292 -223c0 -128 88 -179 224 -209l127 -27
c156 -33 224 -59 224 -172c0 -94 -100 -152 -236 -152c-110 0 -210 36 -270 110l-5 100h-68v-253h74v77c52 -56 160 -98 277 -98z" />
    <glyph glyph-name="t" unicode="t" horiz-adv-x="591" 
d="M431 0h107v66h-95c-119 0 -167 43 -167 165v507h228l1 66h-229v310l-89 -32v-278h-146v-66h145v-512c0 -167 96 -226 245 -226z" />
    <glyph glyph-name="u" unicode="u" horiz-adv-x="1033" 
d="M436 -21c118 0 223 48 322 121l6 -100h233v65h-151v739h-238v-66h148v-570c-94 -70 -185 -118 -306 -118c-125 0 -178 83 -178 180v574h-240v-66h150v-515c0 -105 55 -244 254 -244z" />
    <glyph glyph-name="v" unicode="v" horiz-adv-x="1053" 
d="M485 0h91l323 739h138v66h-385v-66h156l-273 -655l-279 655h157v66h-397v-66h143z" />
    <glyph glyph-name="w" unicode="w" horiz-adv-x="1527" 
d="M419 0h99l243 662l246 -662h96l256 739h127v66h-342v-66h130l-219 -659l-245 659h138v66h-371v-66h136l-240 -659l-232 659h140v66h-353v-66h123z" />
    <glyph glyph-name="x" unicode="x" horiz-adv-x="1064" 
d="M50 0h373v66h-145l252 302l259 -302h-162v-66h394v66h-142l-297 348l272 324h159v66h-391v-66h147l-232 -279l-237 279h147v66h-380v-66h142l276 -323l-295 -349h-140v-66z" />
    <glyph glyph-name="y" unicode="y" horiz-adv-x="1068" 
d="M226 -275h90c163 0 203 50 262 195l345 818h131v66h-382v-66h160l-262 -633l-280 633h136v66h-389v-66h161l309 -680h45l-56 -137c-42 -105 -71 -120 -186 -120h-84v-76z" />
    <glyph glyph-name="z" unicode="z" horiz-adv-x="930" 
d="M131 0h666v273h-74v-209h-488l549 665v76h-633v-249h75v185h461l-556 -670v-71z" />
    <glyph glyph-name="braceleft" unicode="{" horiz-adv-x="480" 
d="M368 -50h64v63c-155 0 -174 26 -174 194c0 288 -22 336 -129 366c113 25 129 79 129 378c0 158 25 182 174 182v64h-63c-188 0 -192 -115 -192 -340c0 -175 -4 -246 -145 -246v-75c135 0 145 -67 145 -231c0 -241 4 -355 191 -355z" />
    <glyph glyph-name="bar" unicode="|" horiz-adv-x="395" 
d="M164 -71h77v1265h-77v-1265z" />
    <glyph glyph-name="braceright" unicode="}" horiz-adv-x="481" 
d="M63 -50h64c187 0 191 114 191 355c0 164 10 231 145 231v75c-141 0 -145 72 -145 248c0 224 -4 338 -191 338h-64v-64c150 0 174 -24 174 -182c0 -299 16 -353 129 -378c-108 -30 -129 -79 -129 -368c0 -167 -19 -192 -174 -192v-63z" />
    <glyph glyph-name="asciitilde" unicode="~" horiz-adv-x="862" 
d="M761 658c-39 -50 -82 -78 -138 -78c-127 0 -234 119 -378 119c-67 0 -126 -36 -161 -91l14 -65c41 56 86 82 143 82c127 0 228 -121 380 -121c69 0 121 37 155 86z" />
    <glyph glyph-name="uni007F" horiz-adv-x="600" 
 />
    <glyph glyph-name="uni00A0" unicode="&#xa0;" 
 />
    <glyph glyph-name="exclamdown" unicode="&#xa1;" horiz-adv-x="256" 
d="M152 505h-42l-25 -435v-394h94v394zM132 866c-43 0 -74 -29 -74 -68s31 -68 74 -68c41 0 72 29 72 68s-31 68 -72 68z" />
    <glyph glyph-name="cent" unicode="&#xa2;" horiz-adv-x="925" 
d="M343 -261l314 1317l-44 7l-313 -1317zM150 406c0 205 144 350 347 350c137 0 242 -82 263 -203h71v253h-80l-1 -104c-37 71 -148 124 -261 124c-251 0 -430 -174 -430 -420c0 -250 176 -427 423 -427c153 0 264 53 351 152l-27 62c-89 -94 -176 -144 -318 -144
c-198 0 -338 148 -338 357z" />
    <glyph glyph-name="sterling" unicode="&#xa3;" horiz-adv-x="1048" 
d="M282 -21c109 0 191 65 234 152c80 -86 173 -140 270 -140c168 0 238 109 239 269c0 10 -1 28 -2 38h-60c-3 -137 -47 -229 -179 -229c-81 0 -172 58 -236 128c39 109 43 217 -17 364h363v64h-392c-56 107 -120 203 -120 307c0 149 112 245 268 245
c172 0 241 -100 241 -232h79c0 187 -111 303 -322 303c-200 0 -350 -124 -350 -320c0 -100 63 -212 110 -303h-224v-64h259c72 -139 68 -255 51 -323c-47 55 -134 102 -211 102c-135 0 -218 -80 -218 -188c0 -101 79 -173 217 -173zM280 37c-88 0 -146 45 -146 116
c0 76 57 124 147 124c58 0 137 -40 190 -102c-25 -88 -116 -138 -191 -138z" />
    <glyph glyph-name="currency" unicode="&#xa4;" horiz-adv-x="1090" 
d="M883 559l53 50l-105 103c61 84 93 176 93 268s-31 184 -93 265l105 103l-53 50l-97 -106c-84 47 -165 71 -246 71c-78 0 -154 -23 -231 -69l-97 103l-57 -49l101 -101c-65 -78 -98 -176 -98 -273s34 -192 98 -264l-101 -101l57 -49l97 103c79 -47 156 -69 234 -69
c82 0 162 23 243 70zM541 661c-155 0 -310 111 -310 318c0 206 155 317 311 317c155 0 315 -106 315 -317s-158 -318 -316 -318z" />
    <glyph glyph-name="yen" unicode="&#xa5;" horiz-adv-x="1428" 
d="M307 231h657v57h-657v-57zM307 402h657v58h-657v-58zM421 0h433v66h-169v408l410 612h154v66h-403v-66h156l-359 -541l-364 541h149v66h-409v-66h156l413 -612v-408h-167v-66z" />
    <glyph glyph-name="brokenbar" unicode="&#xa6;" horiz-adv-x="433" 
d="M181 -85h70v563h-70v-563zM181 709h70v563h-70v-563z" />
    <glyph glyph-name="section" unicode="&#xa7;" horiz-adv-x="934" 
d="M489 -147c198 0 292 99 292 249c0 78 -24 125 -60 163c70 46 109 124 107 212c-2 120 -91 179 -306 297c-164 90 -233 117 -233 242c0 106 70 177 203 177c142 0 191 -88 199 -201c44 0 64 23 64 61c0 92 -72 188 -261 188c-176 0 -282 -95 -282 -231
c0 -99 41 -159 108 -206c-80 -23 -144 -86 -144 -178c0 -124 63 -179 257 -277c242 -122 279 -155 279 -262c0 -114 -65 -187 -216 -187c-142 0 -225 52 -228 190c-35 0 -64 -16 -64 -65c0 -105 87 -172 285 -172zM687 296c-49 36 -122 74 -205 117
c-174 90 -233 119 -233 225c0 63 36 115 103 140c16 -11 126 -69 148 -80c196 -105 254 -159 254 -243c0 -64 -17 -117 -67 -159z" />
    <glyph glyph-name="dieresis" unicode="&#xa8;" horiz-adv-x="405" 
d="M27 942c38 0 61 23 61 59s-24 58 -61 58s-61 -22 -61 -58s24 -59 61 -59zM373 942c38 0 61 22 62 58c0 36 -24 59 -62 59c-37 0 -60 -23 -60 -59s23 -58 60 -58z" />
    <glyph glyph-name="copyright" unicode="&#xa9;" horiz-adv-x="1520" 
d="M765 191c123 0 243 51 320 140l-29 50c-78 -85 -173 -131 -288 -132c-172 -1 -316 136 -316 338c0 231 172 334 323 334c139 0 228 -72 241 -188h62v227h-61l-1 -94c-47 79 -142 113 -247 113c-185 0 -392 -124 -392 -392c0 -238 175 -396 388 -396zM759 -40
c364 0 643 268 643 625c0 356 -279 625 -643 625c-363 0 -642 -269 -642 -625c0 -357 279 -625 642 -625zM759 21c-318 0 -563 242 -563 563c0 322 245 565 563 565c319 0 565 -243 565 -565c0 -319 -246 -563 -565 -563z" />
    <glyph glyph-name="ordfeminine" unicode="&#xaa;" horiz-adv-x="794" 
d="M321 541c82 0 168 30 221 73l3 -62h179v59h-105v361c0 96 -59 202 -243 202c-83 0 -173 -19 -241 -70l30 -55c61 45 142 63 212 63c109 0 162 -49 162 -150v-77c-54 9 -117 17 -178 17c-133 0 -252 -40 -252 -180c0 -96 70 -181 212 -181zM329 599
c-94 0 -143 51 -143 125c0 100 84 125 185 125c60 0 118 -8 168 -15v-160c-56 -49 -136 -75 -210 -75z" />
    <glyph glyph-name="guillemotleft" unicode="&#xab;" horiz-adv-x="807" 
d="M331 259h63l-211 387l211 384h-63l-279 -384zM627 259h63l-212 387l212 384h-63l-279 -384z" />
    <glyph glyph-name="logicalnot" unicode="&#xac;" horiz-adv-x="916" 
d="M738 312h62v394h-726v-67h664v-327z" />
    <glyph glyph-name="uni00AD" unicode="&#xad;" horiz-adv-x="826" 
d="M159 413h508v69h-508v-69z" />
    <glyph glyph-name="registered" unicode="&#xae;" horiz-adv-x="1520" 
d="M442 244h250v45h-94v293h160l188 -338h141v46h-100l-168 298c123 10 194 75 194 177c0 122 -80 192 -216 192h-360v-44h99v-624h-94v-45zM598 630v283h199c98 0 156 -54 156 -148c0 -86 -59 -135 -157 -135h-198zM740 41c-359 0 -536 262 -536 539c0 271 180 547 536 547
c353 0 537 -276 537 -547c0 -270 -184 -539 -537 -539zM740 -22c407 0 614 295 614 603c0 306 -209 608 -614 608c-404 0 -613 -302 -613 -608s206 -604 613 -603z" />
    <glyph glyph-name="macron" unicode="&#xaf;" horiz-adv-x="338" 
d="M-25 941h395v58h-395v-58z" />
    <glyph glyph-name="degree" unicode="&#xb0;" horiz-adv-x="841" 
d="M422 781c-112 0 -188 78 -188 178c1 99 77 178 187 178c111 0 188 -80 188 -177c0 -100 -78 -179 -187 -179zM421 724c150 0 254 105 254 235s-104 235 -254 235c-149 0 -253 -105 -253 -235s103 -235 253 -235z" />
    <glyph glyph-name="plusminus" unicode="&#xb1;" horiz-adv-x="755" 
d="M344 141h70v392h353v73h-353v380h-70v-380h-353v-73h353v-392zM-11 0h776v70h-776v-70z" />
    <glyph glyph-name="uni00B2" unicode="&#xb2;" horiz-adv-x="921" 
d="M199 596v-57h527l-1 204h-60l1 -147h-381l249 238c99 96 174 177 174 291c0 143 -107 220 -257 220c-172 0 -260 -109 -260 -245c0 -27 4 -55 11 -83h64c-7 26 -10 52 -10 76c0 109 67 193 195 193c117 0 186 -62 187 -161c1 -93 -52 -150 -147 -243z" />
    <glyph glyph-name="uni00B3" unicode="&#xb3;" horiz-adv-x="968" 
d="M486 527c173 0 285 87 285 222c0 99 -68 183 -201 199c113 16 181 89 181 183c0 132 -102 214 -262 214c-121 0 -223 -57 -268 -147l54 -29c36 74 116 119 213 119c117 0 192 -63 192 -158c0 -96 -80 -155 -234 -155l2 -57c173 0 248 -61 250 -166
c1 -103 -81 -167 -212 -167c-103 0 -185 48 -220 127l-55 -34c38 -92 143 -151 275 -151z" />
    <glyph glyph-name="acute" unicode="&#xb4;" horiz-adv-x="264" 
d="M152 1252l-97 -268h54l140 268h-97z" />
    <glyph glyph-name="mu" unicode="&#xb5;" horiz-adv-x="1033" 
d="M997 0v65h-151v739h-238v-66h148v-570c-94 -70 -185 -118 -306 -118c-125 0 -178 83 -178 180v574h-240v-66h150v-1004h90v308c31 -35 82 -63 164 -63c118 0 223 48 322 121l6 -100h233z" />
    <glyph glyph-name="paragraph" unicode="&#xb6;" horiz-adv-x="1012" 
d="M493 -13h420v67h-142v1037h154v61h-484c-225 0 -324 -139 -324 -263c0 -132 104 -277 319 -276h246v-559h-189v-67zM498 689v402h184v-402h-184z" />
    <glyph glyph-name="periodcentered" unicode="&#xb7;" horiz-adv-x="489" 
d="M253 485c43 0 75 29 75 68s-32 68 -75 68c-41 0 -71 -29 -71 -68s30 -68 71 -68z" />
    <glyph glyph-name="cedilla" unicode="&#xb8;" horiz-adv-x="557" 
d="M278 -311c67 0 124 27 124 97c0 51 -37 99 -135 103l36 117h-46l-59 -157c88 -2 119 -24 119 -54c0 -36 -29 -53 -76 -53c-27 0 -59 6 -94 17v-40c41 -19 88 -30 131 -30z" />
    <glyph glyph-name="uni00B9" unicode="&#xb9;" horiz-adv-x="665" 
d="M166 544h333v54h-128v722l-200 -36l8 -54l119 21v-653h-132v-54z" />
    <glyph glyph-name="ordmasculine" unicode="&#xba;" horiz-adv-x="847" 
d="M425 534c175 0 320 113 320 321c0 206 -145 319 -320 319s-319 -113 -319 -319c0 -208 144 -321 319 -321zM425 598c-125 0 -237 83 -237 256s112 256 237 256c124 0 237 -83 237 -255c0 -174 -113 -257 -237 -257z" />
    <glyph glyph-name="guillemotright" unicode="&#xbb;" horiz-adv-x="807" 
d="M117 259h63l279 387l-279 384h-63l211 -384zM412 259h63l280 387l-280 384h-63l212 -384z" />
    <glyph glyph-name="onequarter" unicode="&#xbc;" horiz-adv-x="1604" 
d="M1212 0h288v54h-105v201h112v52h-112v501h-73l-355 -502l13 -51h349v-201h-117v-54zM148 356h310v54h-120v742l-192 -11v-53l124 4v-682h-122v-54zM410 -15h68l789 1197h-65zM1036 307l293 419v-419h-293z" />
    <glyph glyph-name="onehalf" unicode="&#xbd;" horiz-adv-x="1793" 
d="M1147 0h535l-1 203h-58l1 -149h-391l254 242c101 96 173 178 173 290c0 144 -108 221 -257 221c-177 0 -267 -112 -267 -249c0 -26 4 -53 11 -81h64c-6 25 -10 51 -10 75c0 112 67 199 203 199c118 0 187 -63 188 -164c1 -95 -50 -153 -146 -245l-299 -287v-55zM149 356
h310v54h-120v742l-193 -11l1 -53l123 4v-682h-121v-54zM418 -15h68l789 1197h-65z" />
    <glyph glyph-name="threequarters" unicode="&#xbe;" horiz-adv-x="1715" 
d="M377 356c176 0 286 88 286 226c0 105 -76 177 -198 196c109 17 178 86 178 181c0 130 -102 215 -261 215c-122 0 -224 -57 -269 -147l54 -29c36 73 116 119 212 119c118 0 193 -63 193 -159s-80 -154 -234 -154l2 -58c159 0 248 -60 250 -166c1 -102 -81 -166 -212 -166
c-103 0 -185 48 -220 126l-55 -33c38 -93 143 -151 274 -151zM1334 0h287v54h-105v201h113v52h-113v501h-72l-364 -502l13 -51h358v-201h-117v-54zM540 -15h68l789 1197h-65zM1149 307l302 419v-419h-302z" />
    <glyph glyph-name="questiondown" unicode="&#xbf;" horiz-adv-x="689" 
d="M417 556h-55c-52 -402 -325 -317 -325 -612c0 -173 123 -283 318 -283c176 0 310 68 322 261h-73c-22 -141 -101 -195 -250 -195c-148 0 -238 84 -238 217c0 253 273 175 301 612zM390 872c-44 0 -77 -30 -77 -72c0 -39 33 -70 77 -70c43 0 75 31 75 70
c0 42 -32 72 -75 72z" />
    <glyph glyph-name="Agrave" unicode="&#xc0;" horiz-adv-x="1382" 
d="M661 1332h54l-97 268h-98zM487 534l197 547h8l197 -547h-402zM78 0h395v66h-152l146 403h441l147 -403h-151v-66h401v66h-149l-378 1020h143v66h-457v-66h140l-376 -1020h-150v-66z" />
    <glyph glyph-name="Aacute" unicode="&#xc1;" horiz-adv-x="1382" 
d="M767 1600l-97 -268h54l140 268h-97zM487 534l197 547h8l197 -547h-402zM78 0h395v66h-152l146 403h441l147 -403h-151v-66h401v66h-149l-378 1020h143v66h-457v-66h140l-376 -1020h-150v-66z" />
    <glyph glyph-name="Acircumflex" unicode="&#xc2;" horiz-adv-x="1382" 
d="M543 1273l144 263l143 -263h70l-172 313h-83l-173 -313h71zM487 534l197 547h8l197 -547h-402zM78 0h395v66h-152l146 403h441l147 -403h-151v-66h401v66h-149l-378 1020h143v66h-457v-66h140l-376 -1020h-150v-66z" />
    <glyph glyph-name="Atilde" unicode="&#xc3;" horiz-adv-x="1382" 
d="M812 1290c77 -1 101 56 109 144h-39c-15 -66 -34 -78 -69 -78c-61 0 -159 82 -237 82c-67 0 -103 -50 -113 -144h40c14 61 29 78 63 78c65 0 155 -82 246 -82zM487 534l197 547h8l197 -547h-402zM78 0h395v66h-152l146 403h441l147 -403h-151v-66h401v66h-149l-378 1020
h143v66h-457v-66h140l-376 -1020h-150v-66z" />
    <glyph glyph-name="Adieresis" unicode="&#xc4;" horiz-adv-x="1382" 
d="M510 1290c38 0 61 23 61 59s-24 58 -61 58s-61 -22 -61 -58s24 -59 61 -59zM856 1290c38 0 61 22 62 58c0 36 -24 59 -62 59c-37 0 -60 -23 -60 -59s23 -58 60 -58zM487 534l197 547h8l197 -547h-402zM78 0h395v66h-152l146 403h441l147 -403h-151v-66h401v66h-149
l-378 1020h143v66h-457v-66h140l-376 -1020h-150v-66z" />
    <glyph glyph-name="Aring" unicode="&#xc5;" horiz-adv-x="1382" 
d="M693 1231c84 0 133 53 133 130c0 75 -49 126 -134 126c-84 0 -133 -51 -134 -126c1 -77 50 -130 135 -130zM693 1273c-54 0 -86 35 -86 87c0 50 32 84 86 84c53 0 85 -34 85 -84c0 -52 -32 -87 -85 -87zM487 534l197 547h8l197 -547h-402zM78 0h395v66h-152l146 403h441
l147 -403h-151v-66h401v66h-149l-378 1020h143v66h-457v-66h140l-376 -1020h-150v-66z" />
    <glyph glyph-name="AE" unicode="&#xc6;" horiz-adv-x="2133" 
d="M119 0h420v66h-145l205 364h459l46 -364h-160v-66h1020l-45 383h-77l39 -317h-679l-59 473h415l27 -176h57l-54 405h-57l22 -160h-414l-60 478h639l40 -317h77l-44 383h-1043v-66h135l-595 -1020h-169v-66zM633 493l337 593h13l72 -593h-422z" />
    <glyph glyph-name="Ccedilla" unicode="&#xc7;" horiz-adv-x="1390" 
d="M700 -311c67 0 124 27 124 97c0 51 -37 99 -135 103l36 117h-46l-59 -157c88 -2 119 -24 119 -54c0 -36 -29 -53 -76 -53c-27 0 -59 6 -94 17v-40c41 -19 88 -30 131 -30zM710 -22c228 1 420 78 533 296l-67 39c-99 -197 -283 -262 -461 -262c-259 0 -505 183 -505 529
c0 277 186 519 505 519c228 0 355 -90 452 -288l67 12v330h-79v-210c-89 142 -215 230 -444 230c-360 0 -599 -259 -599 -593c0 -397 292 -601 598 -602z" />
    <glyph glyph-name="Egrave" unicode="&#xc8;" horiz-adv-x="1211" 
d="M627 1332h54l-97 268h-98zM992 819h78v333h-962v-66h170v-1020h-170v-66h982v339h-78v-273h-638v490h401v-166h58v394h-59v-159h-400v461h618v-267z" />
    <glyph glyph-name="Eacute" unicode="&#xc9;" horiz-adv-x="1211" 
d="M992 819h78v333h-962v-66h170v-1020h-170v-66h982v339h-78v-273h-638v490h401v-166h58v394h-59v-159h-400v461h618v-267zM733 1600l-97 -268h54l140 268h-97z" />
    <glyph glyph-name="Ecircumflex" unicode="&#xca;" horiz-adv-x="1211" 
d="M992 819h78v333h-962v-66h170v-1020h-170v-66h982v339h-78v-273h-638v490h401v-166h58v394h-59v-159h-400v461h618v-267zM509 1273l144 263l143 -263h70l-172 313h-83l-173 -313h71z" />
    <glyph glyph-name="Edieresis" unicode="&#xcb;" horiz-adv-x="1211" 
d="M992 819h78v333h-962v-66h170v-1020h-170v-66h982v339h-78v-273h-638v490h401v-166h58v394h-59v-159h-400v461h618v-267zM476 1290c38 0 61 23 61 59s-24 58 -61 58s-61 -22 -61 -58s24 -59 61 -59zM822 1290c38 0 61 22 62 58c0 36 -24 59 -62 59c-37 0 -60 -23 -60 -59
s23 -58 60 -58z" />
    <glyph glyph-name="Igrave" unicode="&#xcc;" horiz-adv-x="655" 
d="M299 1332h54l-97 268h-98zM109 0h436v66h-170v1020h170v66h-436v-66h170v-1020h-170v-66z" />
    <glyph glyph-name="Iacute" unicode="&#xcd;" horiz-adv-x="655" 
d="M404 1600l-97 -268h54l140 268h-97zM109 0h436v66h-170v1020h170v66h-436v-66h170v-1020h-170v-66z" />
    <glyph glyph-name="Icircumflex" unicode="&#xce;" horiz-adv-x="655" 
d="M181 1273l144 263l143 -263h70l-172 313h-83l-173 -313h71zM109 0h436v66h-170v1020h170v66h-436v-66h170v-1020h-170v-66z" />
    <glyph glyph-name="Idieresis" unicode="&#xcf;" horiz-adv-x="655" 
d="M148 1290c38 0 61 23 61 59s-24 58 -61 58s-61 -22 -61 -58s24 -59 61 -59zM494 1290c38 0 61 22 62 58c0 36 -24 59 -62 59c-37 0 -60 -23 -60 -59s23 -58 60 -58zM109 0h436v66h-170v1020h170v66h-436v-66h170v-1020h-170v-66z" />
    <glyph glyph-name="Eth" unicode="&#xd0;" horiz-adv-x="1420" 
d="M776 1152h-667v-66h170v-1020h-170v-66h671c349 0 523 290 523 578c0 265 -166 574 -527 574zM375 1086h399c292 0 432 -266 432 -510c0 -257 -139 -510 -439 -510h-392v1020zM89 569h508v69h-508v-69z" />
    <glyph glyph-name="Ntilde" unicode="&#xd1;" horiz-adv-x="1443" 
d="M840 1290c77 -1 101 56 109 144h-39c-15 -66 -34 -78 -69 -78c-61 0 -159 82 -237 82c-67 0 -103 -50 -113 -144h40c14 61 29 78 63 78c65 0 155 -82 246 -82zM115 0h388v66h-155v968l790 -1034h96v1086h139v66h-376v-66h157v-955l-783 1021h-256v-66h153v-1020h-153v-66
z" />
    <glyph glyph-name="Ograve" unicode="&#xd2;" horiz-adv-x="1454" 
d="M694 1332h54l-97 268h-98zM727 51c-345 0 -510 253 -510 521c0 261 168 529 510 529c338 0 510 -268 510 -529s-172 -521 -510 -521zM725 -22c404 0 613 294 613 594c0 299 -211 602 -611 602s-610 -302 -610 -601s207 -595 608 -595z" />
    <glyph glyph-name="Oacute" unicode="&#xd3;" horiz-adv-x="1454" 
d="M727 51c-345 0 -510 253 -510 521c0 261 168 529 510 529c338 0 510 -268 510 -529s-172 -521 -510 -521zM725 -22c404 0 613 294 613 594c0 299 -211 602 -611 602s-610 -302 -610 -601s207 -595 608 -595zM800 1600l-97 -268h54l140 268h-97z" />
    <glyph glyph-name="Ocircumflex" unicode="&#xd4;" horiz-adv-x="1454" 
d="M727 51c-345 0 -510 253 -510 521c0 261 168 529 510 529c338 0 510 -268 510 -529s-172 -521 -510 -521zM725 -22c404 0 613 294 613 594c0 299 -211 602 -611 602s-610 -302 -610 -601s207 -595 608 -595zM576 1273l144 263l143 -263h70l-172 313h-83l-173 -313h71z
" />
    <glyph glyph-name="Otilde" unicode="&#xd5;" horiz-adv-x="1454" 
d="M845 1290c77 -1 101 56 109 144h-39c-15 -66 -34 -78 -69 -78c-61 0 -159 82 -237 82c-67 0 -103 -50 -113 -144h40c14 61 29 78 63 78c65 0 155 -82 246 -82zM727 51c-345 0 -510 253 -510 521c0 261 168 529 510 529c338 0 510 -268 510 -529s-172 -521 -510 -521z
M725 -22c404 0 613 294 613 594c0 299 -211 602 -611 602s-610 -302 -610 -601s207 -595 608 -595z" />
    <glyph glyph-name="Odieresis" unicode="&#xd6;" horiz-adv-x="1454" 
d="M727 51c-345 0 -510 253 -510 521c0 261 168 529 510 529c338 0 510 -268 510 -529s-172 -521 -510 -521zM725 -22c404 0 613 294 613 594c0 299 -211 602 -611 602s-610 -302 -610 -601s207 -595 608 -595zM544 1290c38 0 61 23 61 59s-24 58 -61 58s-61 -22 -61 -58
s24 -59 61 -59zM890 1290c38 0 61 22 62 58c0 36 -24 59 -62 59c-37 0 -60 -23 -60 -59s23 -58 60 -58z" />
    <glyph glyph-name="multiply" unicode="&#xd7;" horiz-adv-x="663" 
d="M559 313l48 47l-222 223l223 224l-46 49l-226 -225l-223 221l-48 -48l222 -222l-224 -223l47 -47l225 223z" />
    <glyph glyph-name="Oslash" unicode="&#xd8;" horiz-adv-x="1554" 
d="M277 -73l972 1255l-46 34l-975 -1254zM733 44c-345 0 -510 253 -510 521c0 261 168 529 510 529c338 0 510 -268 510 -529s-172 -521 -510 -521zM731 -29c404 0 613 294 613 594c0 299 -211 602 -611 602s-610 -302 -610 -601s207 -595 608 -595z" />
    <glyph glyph-name="Ugrave" unicode="&#xd9;" horiz-adv-x="1453" 
d="M704 1332h54l-97 268h-98zM722 -21c302 0 515 150 515 405v702h157v66h-395v-66h151v-705c0 -200 -169 -329 -426 -329c-242 0 -399 131 -399 330v704h152v66h-401v-66h152v-696c0 -241 178 -411 494 -411z" />
    <glyph glyph-name="Uacute" unicode="&#xda;" horiz-adv-x="1453" 
d="M722 -21c302 0 515 150 515 405v702h157v66h-395v-66h151v-705c0 -200 -169 -329 -426 -329c-242 0 -399 131 -399 330v704h152v66h-401v-66h152v-696c0 -241 178 -411 494 -411zM809 1600l-97 -268h54l140 268h-97z" />
    <glyph glyph-name="Ucircumflex" unicode="&#xdb;" horiz-adv-x="1453" 
d="M722 -21c302 0 515 150 515 405v702h157v66h-395v-66h151v-705c0 -200 -169 -329 -426 -329c-242 0 -399 131 -399 330v704h152v66h-401v-66h152v-696c0 -241 178 -411 494 -411zM586 1273l144 263l143 -263h70l-172 313h-83l-173 -313h71z" />
    <glyph glyph-name="Udieresis" unicode="&#xdc;" horiz-adv-x="1453" 
d="M722 -21c302 0 515 150 515 405v702h157v66h-395v-66h151v-705c0 -200 -169 -329 -426 -329c-242 0 -399 131 -399 330v704h152v66h-401v-66h152v-696c0 -241 178 -411 494 -411zM553 1290c38 0 61 23 61 59s-24 58 -61 58s-61 -22 -61 -58s24 -59 61 -59zM899 1290
c38 0 61 22 62 58c0 36 -24 59 -62 59c-37 0 -60 -23 -60 -59s23 -58 60 -58z" />
    <glyph glyph-name="Yacute" unicode="&#xdd;" horiz-adv-x="1272" 
d="M719 1600l-97 -268h54l140 268h-97zM421 0h433v66h-169v408l410 612h154v66h-403v-66h156l-359 -541l-364 541h149v66h-409v-66h156l413 -612v-408h-167v-66z" />
    <glyph glyph-name="Thorn" unicode="&#xde;" horiz-adv-x="1184" 
d="M467 336h250c216 0 340 111 340 307c0 170 -127 270 -349 270h-389v-64h389c160 0 255 -77 256 -207c1 -156 -91 -244 -247 -244h-250v-62zM109 0h436v66h-170v1020h170v66h-436v-66h170v-1020h-170v-66z" />
    <glyph glyph-name="germandbls" unicode="&#xdf;" horiz-adv-x="1182" 
d="M90 0h369v70h-120v796c0 196 87 319 267 319c173 0 258 -84 258 -218c0 -156 -94 -256 -269 -263v-59c255 -1 408 -109 408 -287c0 -185 -169 -288 -416 -288v-70c317 0 510 141 510 358c0 169 -110 299 -355 326c130 34 212 141 212 286c0 185 -128 285 -348 285
c-234 0 -362 -141 -362 -394v-791h-154v-70z" />
    <glyph glyph-name="agrave" unicode="&#xe0;" horiz-adv-x="944" 
d="M431 985h54l-97 268h-98zM390 41c-124 0 -194 82 -194 178c0 137 101 181 213 181c92 0 182 -18 270 -33v-226c-116 -70 -197 -100 -289 -100zM383 -22c99 0 192 32 301 101c0 0 12 -85 12 -79h197v66h-124v485c0 137 -82 275 -313 275c-82 0 -199 -25 -303 -74l27 -63
c85 39 190 69 279 69c131 0 220 -70 220 -223v-108c-91 16 -186 31 -274 31c-158 0 -295 -60 -295 -241c0 -140 108 -239 273 -239z" />
    <glyph glyph-name="aacute" unicode="&#xe1;" horiz-adv-x="944" 
d="M537 1253l-97 -268h54l140 268h-97zM390 41c-124 0 -194 82 -194 178c0 137 101 181 213 181c92 0 182 -18 270 -33v-226c-116 -70 -197 -100 -289 -100zM383 -22c99 0 192 32 301 101c0 0 12 -85 12 -79h197v66h-124v485c0 137 -82 275 -313 275
c-82 0 -199 -25 -303 -74l27 -63c85 39 190 69 279 69c131 0 220 -70 220 -223v-108c-91 16 -186 31 -274 31c-158 0 -295 -60 -295 -241c0 -140 108 -239 273 -239z" />
    <glyph glyph-name="acircumflex" unicode="&#xe2;" horiz-adv-x="944" 
d="M313 926l144 263l143 -263h70l-172 313h-83l-173 -313h71zM390 41c-124 0 -194 82 -194 178c0 137 101 181 213 181c92 0 182 -18 270 -33v-226c-116 -70 -197 -100 -289 -100zM383 -22c99 0 192 32 301 101c0 0 12 -85 12 -79h197v66h-124v485c0 137 -82 275 -313 275
c-82 0 -199 -25 -303 -74l27 -63c85 39 190 69 279 69c131 0 220 -70 220 -223v-108c-91 16 -186 31 -274 31c-158 0 -295 -60 -295 -241c0 -140 108 -239 273 -239z" />
    <glyph glyph-name="atilde" unicode="&#xe3;" horiz-adv-x="944" 
d="M582 942c77 -1 101 56 109 144h-39c-15 -66 -34 -78 -69 -78c-61 0 -159 82 -237 82c-67 0 -103 -50 -113 -144h40c14 61 29 78 63 78c65 0 155 -82 246 -82zM390 41c-124 0 -194 82 -194 178c0 137 101 181 213 181c92 0 182 -18 270 -33v-226
c-116 -70 -197 -100 -289 -100zM383 -22c99 0 192 32 301 101c0 0 12 -85 12 -79h197v66h-124v485c0 137 -82 275 -313 275c-82 0 -199 -25 -303 -74l27 -63c85 39 190 69 279 69c131 0 220 -70 220 -223v-108c-91 16 -186 31 -274 31c-158 0 -295 -60 -295 -241
c0 -140 108 -239 273 -239z" />
    <glyph glyph-name="adieresis" unicode="&#xe4;" horiz-adv-x="944" 
d="M281 943c38 0 61 23 61 59s-24 58 -61 58s-61 -22 -61 -58s24 -59 61 -59zM627 943c38 0 61 22 62 58c0 36 -24 59 -62 59c-37 0 -60 -23 -60 -59s23 -58 60 -58zM390 41c-124 0 -194 82 -194 178c0 137 101 181 213 181c92 0 182 -18 270 -33v-226
c-116 -70 -197 -100 -289 -100zM383 -22c99 0 192 32 301 101c0 0 12 -85 12 -79h197v66h-124v485c0 137 -82 275 -313 275c-82 0 -199 -25 -303 -74l27 -63c85 39 190 69 279 69c131 0 220 -70 220 -223v-108c-91 16 -186 31 -274 31c-158 0 -295 -60 -295 -241
c0 -140 108 -239 273 -239z" />
    <glyph glyph-name="aring" unicode="&#xe5;" horiz-adv-x="944" 
d="M463 884c84 0 133 53 133 130c0 75 -49 126 -134 126c-84 0 -133 -51 -134 -126c1 -77 50 -130 135 -130zM463 926c-54 0 -86 35 -86 87c0 50 32 84 86 84c53 0 85 -34 85 -84c0 -52 -32 -87 -85 -87zM390 41c-124 0 -194 82 -194 178c0 137 101 181 213 181
c92 0 182 -18 270 -33v-226c-116 -70 -197 -100 -289 -100zM383 -22c99 0 192 32 301 101c0 0 12 -85 12 -79h197v66h-124v485c0 137 -82 275 -313 275c-82 0 -199 -25 -303 -74l27 -63c85 39 190 69 279 69c131 0 220 -70 220 -223v-108c-91 16 -186 31 -274 31
c-158 0 -295 -60 -295 -241c0 -140 108 -239 273 -239z" />
    <glyph glyph-name="ae" unicode="&#xe6;" horiz-adv-x="1598" 
d="M415 -22c110 0 250 14 385 128c76 -90 184 -127 313 -127c172 0 263 54 369 159l-33 57c-96 -99 -214 -147 -333 -147c-213 0 -314 118 -315 337h678c0 285 -145 441 -366 441c-162 0 -297 -80 -341 -229c-17 153 -107 229 -294 229c-125 0 -244 -42 -322 -111l34 -57
c69 59 175 100 286 100c154 0 236 -60 236 -227v-95c-20 3 -182 6 -200 6c-221 0 -389 -47 -389 -226c0 -166 125 -238 292 -238zM424 40c-138 0 -216 57 -216 178c0 138 123 165 306 165c16 0 183 -3 198 -4c2 -64 19 -158 51 -221c-83 -81 -192 -118 -339 -118zM1395 443
l-593 1c10 165 111 315 311 315c174 0 278 -121 282 -316z" />
    <glyph glyph-name="ccedilla" unicode="&#xe7;" horiz-adv-x="958" 
d="M453 -311c67 0 124 27 124 97c0 51 -37 99 -135 103l36 117h-46l-59 -157c88 -2 119 -24 119 -54c0 -36 -29 -53 -76 -53c-27 0 -59 6 -94 17v-40c41 -19 88 -30 131 -30zM150 406c0 205 144 350 347 350c137 0 242 -82 263 -203h71v253h-80l-1 -104
c-37 71 -148 124 -261 124c-251 0 -430 -174 -430 -420c0 -250 176 -427 423 -427c153 0 264 53 351 152l-27 62c-89 -94 -176 -144 -318 -144c-198 0 -338 148 -338 357z" />
    <glyph glyph-name="egrave" unicode="&#xe8;" horiz-adv-x="962" 
d="M455 984h54l-97 268h-98zM151 441c10 193 150 318 320 318c152 0 287 -105 307 -318h-627zM489 -21c132 0 266 54 359 150l-31 61c-72 -80 -200 -142 -326 -142c-168 0 -330 118 -340 334h714c-5 311 -201 444 -394 444c-215 0 -413 -150 -413 -424
c0 -262 200 -423 431 -423z" />
    <glyph glyph-name="eacute" unicode="&#xe9;" horiz-adv-x="962" 
d="M151 441c10 193 150 318 320 318c152 0 287 -105 307 -318h-627zM489 -21c132 0 266 54 359 150l-31 61c-72 -80 -200 -142 -326 -142c-168 0 -330 118 -340 334h714c-5 311 -201 444 -394 444c-215 0 -413 -150 -413 -424c0 -262 200 -423 431 -423zM561 1252l-97 -268
h54l140 268h-97z" />
    <glyph glyph-name="ecircumflex" unicode="&#xea;" horiz-adv-x="962" 
d="M151 441c10 193 150 318 320 318c152 0 287 -105 307 -318h-627zM489 -21c132 0 266 54 359 150l-31 61c-72 -80 -200 -142 -326 -142c-168 0 -330 118 -340 334h714c-5 311 -201 444 -394 444c-215 0 -413 -150 -413 -424c0 -262 200 -423 431 -423zM337 925l144 263
l143 -263h70l-172 313h-83l-173 -313h71z" />
    <glyph glyph-name="edieresis" unicode="&#xeb;" horiz-adv-x="962" 
d="M151 441c10 193 150 318 320 318c152 0 287 -105 307 -318h-627zM489 -21c132 0 266 54 359 150l-31 61c-72 -80 -200 -142 -326 -142c-168 0 -330 118 -340 334h714c-5 311 -201 444 -394 444c-215 0 -413 -150 -413 -424c0 -262 200 -423 431 -423zM305 942
c38 0 61 23 61 59s-24 58 -61 58s-61 -22 -61 -58s24 -59 61 -59zM651 942c38 0 61 22 62 58c0 36 -24 59 -62 59c-37 0 -60 -23 -60 -59s23 -58 60 -58z" />
    <glyph glyph-name="igrave" unicode="&#xec;" 
d="M273 984h54l-97 268h-98zM107 0h422v66h-162v738h-257v-66h168v-672h-171v-66z" />
    <glyph glyph-name="iacute" unicode="&#xed;" 
d="M107 0h422v66h-162v738h-257v-66h168v-672h-171v-66zM379 1252l-97 -268h54l140 268h-97z" />
    <glyph glyph-name="icircumflex" unicode="&#xee;" 
d="M107 0h422v66h-162v738h-257v-66h168v-672h-171v-66zM156 925l144 263l143 -263h70l-172 313h-83l-173 -313h71z" />
    <glyph glyph-name="idieresis" unicode="&#xef;" 
d="M107 0h422v66h-162v738h-257v-66h168v-672h-171v-66zM123 942c38 0 61 23 61 59s-24 58 -61 58s-61 -22 -61 -58s24 -59 61 -59zM469 942c38 0 61 22 62 58c0 36 -24 59 -62 59c-37 0 -60 -23 -60 -59s23 -58 60 -58z" />
    <glyph glyph-name="eth" unicode="&#xf0;" horiz-adv-x="927" 
d="M459 -22c217 0 396 156 396 419c0 428 -422 752 -674 964l-48 -55c198 -160 445 -358 560 -602c-56 51 -153 96 -249 96c-209 0 -385 -170 -385 -370c0 -234 130 -452 400 -452zM460 53c-214 0 -312 181 -312 356c0 216 151 322 305 322c155 0 316 -102 316 -328
c0 -170 -87 -350 -309 -350zM193 904l570 249l-31 59l-571 -247z" />
    <glyph glyph-name="ntilde" unicode="&#xf1;" horiz-adv-x="1031" 
d="M713 942c77 -1 101 56 109 144h-39c-15 -66 -34 -78 -69 -78c-61 0 -159 82 -237 82c-67 0 -103 -50 -113 -144h40c14 61 29 78 63 78c65 0 155 -82 246 -82zM39 0h422v66h-162v587c117 63 231 101 303 101c112 0 182 -68 182 -182v-506h-160v-66h401v66h-151v505
c0 160 -104 255 -252 255c-93 0 -212 -43 -323 -109v87h-258v-66h168v-672h-170v-66z" />
    <glyph glyph-name="ograve" unicode="&#xf2;" horiz-adv-x="982" 
d="M489 -22c255 0 435 177 435 429c0 245 -180 419 -434 419s-432 -174 -432 -420c0 -251 178 -428 431 -428zM489 49c-199 0 -340 148 -340 357c0 205 141 349 340 349c201 0 343 -144 343 -348c0 -210 -142 -358 -343 -358zM456 985h54l-97 268h-98z" />
    <glyph glyph-name="oacute" unicode="&#xf3;" horiz-adv-x="982" 
d="M489 -22c255 0 435 177 435 429c0 245 -180 419 -434 419s-432 -174 -432 -420c0 -251 178 -428 431 -428zM489 49c-199 0 -340 148 -340 357c0 205 141 349 340 349c201 0 343 -144 343 -348c0 -210 -142 -358 -343 -358zM561 1253l-97 -268h54l140 268h-97z" />
    <glyph glyph-name="ocircumflex" unicode="&#xf4;" horiz-adv-x="982" 
d="M489 -22c255 0 435 177 435 429c0 245 -180 419 -434 419s-432 -174 -432 -420c0 -251 178 -428 431 -428zM489 49c-199 0 -340 148 -340 357c0 205 141 349 340 349c201 0 343 -144 343 -348c0 -210 -142 -358 -343 -358zM338 926l144 263l143 -263h70l-172 313h-83
l-173 -313h71z" />
    <glyph glyph-name="otilde" unicode="&#xf5;" horiz-adv-x="982" 
d="M606 942c77 -1 101 56 109 144h-39c-15 -66 -34 -78 -69 -78c-61 0 -159 82 -237 82c-67 0 -103 -50 -113 -144h40c14 61 29 78 63 78c65 0 155 -82 246 -82zM489 -22c255 0 435 177 435 429c0 245 -180 419 -434 419s-432 -174 -432 -420c0 -251 178 -428 431 -428z
M489 49c-199 0 -340 148 -340 357c0 205 141 349 340 349c201 0 343 -144 343 -348c0 -210 -142 -358 -343 -358z" />
    <glyph glyph-name="odieresis" unicode="&#xf6;" horiz-adv-x="982" 
d="M489 -22c255 0 435 177 435 429c0 245 -180 419 -434 419s-432 -174 -432 -420c0 -251 178 -428 431 -428zM489 49c-199 0 -340 148 -340 357c0 205 141 349 340 349c201 0 343 -144 343 -348c0 -210 -142 -358 -343 -358zM305 943c38 0 61 23 61 59s-24 58 -61 58
s-61 -22 -61 -58s24 -59 61 -59zM651 943c38 0 61 22 62 58c0 36 -24 59 -62 59c-37 0 -60 -23 -60 -59s23 -58 60 -58z" />
    <glyph glyph-name="divide" unicode="&#xf7;" horiz-adv-x="767" 
d="M338 236h93v124h-93v-124zM97 493h573v61h-573v-61zM338 675h93v125h-93v-125z" />
    <glyph glyph-name="oslash" unicode="&#xf8;" horiz-adv-x="1008" 
d="M214 -139l612 1035l-42 24l-612 -1034zM489 -22c255 0 435 177 435 429c0 245 -180 419 -434 419s-432 -174 -432 -420c0 -251 178 -428 431 -428zM489 49c-199 0 -340 148 -340 357c0 205 141 349 340 349c201 0 343 -144 343 -348c0 -210 -142 -358 -343 -358z" />
    <glyph glyph-name="ugrave" unicode="&#xf9;" horiz-adv-x="1033" 
d="M458 984h54l-97 268h-98zM436 -21c118 0 223 48 322 121l6 -100h233v65h-151v739h-238v-66h148v-570c-94 -70 -185 -118 -306 -118c-125 0 -178 83 -178 180v574h-240v-66h150v-515c0 -105 55 -244 254 -244z" />
    <glyph glyph-name="uacute" unicode="&#xfa;" horiz-adv-x="1033" 
d="M436 -21c118 0 223 48 322 121l6 -100h233v65h-151v739h-238v-66h148v-570c-94 -70 -185 -118 -306 -118c-125 0 -178 83 -178 180v574h-240v-66h150v-515c0 -105 55 -244 254 -244zM563 1252l-97 -268h54l140 268h-97z" />
    <glyph glyph-name="ucircumflex" unicode="&#xfb;" horiz-adv-x="1033" 
d="M436 -21c118 0 223 48 322 121l6 -100h233v65h-151v739h-238v-66h148v-570c-94 -70 -185 -118 -306 -118c-125 0 -178 83 -178 180v574h-240v-66h150v-515c0 -105 55 -244 254 -244zM340 925l144 263l143 -263h70l-172 313h-83l-173 -313h71z" />
    <glyph glyph-name="udieresis" unicode="&#xfc;" horiz-adv-x="1033" 
d="M436 -21c118 0 223 48 322 121l6 -100h233v65h-151v739h-238v-66h148v-570c-94 -70 -185 -118 -306 -118c-125 0 -178 83 -178 180v574h-240v-66h150v-515c0 -105 55 -244 254 -244zM307 942c38 0 61 23 61 59s-24 58 -61 58s-61 -22 -61 -58s24 -59 61 -59zM653 942
c38 0 61 22 62 58c0 36 -24 59 -62 59c-37 0 -60 -23 -60 -59s23 -58 60 -58z" />
    <glyph glyph-name="yacute" unicode="&#xfd;" horiz-adv-x="1068" 
d="M634 1252l-97 -268h54l140 268h-97zM226 -275h90c163 0 203 50 262 195l345 818h131v66h-382v-66h160l-262 -633l-280 633h136v66h-389v-66h161l309 -680h45l-56 -137c-42 -105 -71 -120 -186 -120h-84v-76z" />
    <glyph glyph-name="thorn" unicode="&#xfe;" horiz-adv-x="1060" 
d="M52 -320h368v66h-139v358c79 -76 189 -119 292 -119c246 0 422 163 422 434c0 260 -165 413 -404 413c-103 0 -218 -42 -309 -115v435h-242v-69h151v-1336h-139v-67zM562 53c-96 0 -203 44 -281 120l1 472c90 75 199 118 292 118c198 0 329 -134 329 -356
c0 -223 -136 -354 -341 -354z" />
    <glyph glyph-name="ydieresis" unicode="&#xff;" horiz-adv-x="1068" 
d="M226 -275h90c163 0 203 50 262 195l345 818h131v66h-382v-66h160l-262 -633l-280 633h136v66h-389v-66h161l309 -680h45l-56 -137c-42 -105 -71 -120 -186 -120h-84v-76zM378 942c38 0 61 23 61 59s-24 58 -61 58s-61 -22 -61 -58s24 -59 61 -59zM724 942
c38 0 61 22 62 58c0 36 -24 59 -62 59c-37 0 -60 -23 -60 -59s23 -58 60 -58z" />
    <glyph glyph-name="Amacron" unicode="&#x100;" horiz-adv-x="1382" 
d="M490 1276h395v58h-395v-58zM487 534l197 547h8l197 -547h-402zM78 0h395v66h-152l146 403h441l147 -403h-151v-66h401v66h-149l-378 1020h143v66h-457v-66h140l-376 -1020h-150v-66z" />
    <glyph glyph-name="amacron" unicode="&#x101;" horiz-adv-x="944" 
d="M260 929h395v58h-395v-58zM390 41c-124 0 -194 82 -194 178c0 137 101 181 213 181c92 0 182 -18 270 -33v-226c-116 -70 -197 -100 -289 -100zM383 -22c99 0 192 32 301 101c0 0 12 -85 12 -79h197v66h-124v485c0 137 -82 275 -313 275c-82 0 -199 -25 -303 -74l27 -63
c85 39 190 69 279 69c131 0 220 -70 220 -223v-108c-91 16 -186 31 -274 31c-158 0 -295 -60 -295 -241c0 -140 108 -239 273 -239z" />
    <glyph glyph-name="Abreve" unicode="&#x102;" horiz-adv-x="1382" 
d="M690 1276c96 0 157 57 172 160h-59c-16 -67 -55 -101 -113 -101c-60 0 -97 34 -114 101h-59c16 -103 79 -160 173 -160zM487 534l197 547h8l197 -547h-402zM78 0h395v66h-152l146 403h441l147 -403h-151v-66h401v66h-149l-378 1020h143v66h-457v-66h140l-376 -1020h-150
v-66z" />
    <glyph glyph-name="abreve" unicode="&#x103;" horiz-adv-x="944" 
d="M460 929c96 0 157 57 172 160h-59c-16 -67 -55 -101 -113 -101c-60 0 -97 34 -114 101h-59c16 -103 79 -160 173 -160zM390 41c-124 0 -194 82 -194 178c0 137 101 181 213 181c92 0 182 -18 270 -33v-226c-116 -70 -197 -100 -289 -100zM383 -22c99 0 192 32 301 101
c0 0 12 -85 12 -79h197v66h-124v485c0 137 -82 275 -313 275c-82 0 -199 -25 -303 -74l27 -63c85 39 190 69 279 69c131 0 220 -70 220 -223v-108c-91 16 -186 31 -274 31c-158 0 -295 -60 -295 -241c0 -140 108 -239 273 -239z" />
    <glyph glyph-name="Aogonek" unicode="&#x104;" horiz-adv-x="1382" 
d="M1154 -322c40 0 78 13 118 38v56c-31 -22 -62 -32 -94 -32c-55 0 -95 33 -95 98c0 48 31 108 90 165h-56c-71 -67 -106 -134 -106 -191c0 -84 65 -134 143 -134zM487 534l197 547h8l197 -547h-402zM78 0h395v66h-152l146 403h441l147 -403h-151v-66h401v66h-149
l-378 1020h143v66h-457v-66h140l-376 -1020h-150v-66z" />
    <glyph glyph-name="aogonek" unicode="&#x105;" horiz-adv-x="944" 
d="M826 -322c40 0 78 13 118 38v56c-31 -22 -62 -32 -94 -32c-55 0 -95 33 -95 98c0 48 31 108 90 165h-56c-71 -67 -106 -134 -106 -191c0 -84 65 -134 143 -134zM390 41c-124 0 -194 82 -194 178c0 137 101 181 213 181c92 0 182 -18 270 -33v-226
c-116 -70 -197 -100 -289 -100zM383 -22c99 0 192 32 301 101c0 0 12 -85 12 -79h197v66h-124v485c0 137 -82 275 -313 275c-82 0 -199 -25 -303 -74l27 -63c85 39 190 69 279 69c131 0 220 -70 220 -223v-108c-91 16 -186 31 -274 31c-158 0 -295 -60 -295 -241
c0 -140 108 -239 273 -239z" />
    <glyph glyph-name="Cacute" unicode="&#x106;" horiz-adv-x="1390" 
d="M710 -22c228 1 420 78 533 296l-67 39c-99 -197 -283 -262 -461 -262c-259 0 -505 183 -505 529c0 277 186 519 505 519c228 0 355 -90 452 -288l67 12v330h-79v-210c-89 142 -215 230 -444 230c-360 0 -599 -259 -599 -593c0 -397 292 -601 598 -602zM793 1600l-97 -268
h54l140 268h-97z" />
    <glyph glyph-name="cacute" unicode="&#x107;" horiz-adv-x="958" 
d="M150 406c0 205 144 350 347 350c137 0 242 -82 263 -203h71v253h-80l-1 -104c-37 71 -148 124 -261 124c-251 0 -430 -174 -430 -420c0 -250 176 -427 423 -427c153 0 264 53 351 152l-27 62c-89 -94 -176 -144 -318 -144c-198 0 -338 148 -338 357zM564 1253l-97 -268
h54l140 268h-97z" />
    <glyph glyph-name="Ccircumflex" unicode="&#x108;" horiz-adv-x="1390" 
d="M710 -22c228 1 420 78 533 296l-67 39c-99 -197 -283 -262 -461 -262c-259 0 -505 183 -505 529c0 277 186 519 505 519c228 0 355 -90 452 -288l67 12v330h-79v-210c-89 142 -215 230 -444 230c-360 0 -599 -259 -599 -593c0 -397 292 -601 598 -602zM570 1273l144 263
l143 -263h70l-172 313h-83l-173 -313h71z" />
    <glyph glyph-name="ccircumflex" unicode="&#x109;" horiz-adv-x="958" 
d="M150 406c0 205 144 350 347 350c137 0 242 -82 263 -203h71v253h-80l-1 -104c-37 71 -148 124 -261 124c-251 0 -430 -174 -430 -420c0 -250 176 -427 423 -427c153 0 264 53 351 152l-27 62c-89 -94 -176 -144 -318 -144c-198 0 -338 148 -338 357zM341 926l144 263
l143 -263h70l-172 313h-83l-173 -313h71z" />
    <glyph glyph-name="Cdotaccent" unicode="&#x10a;" horiz-adv-x="1390" 
d="M719 1351c43 0 74 29 74 69c0 38 -31 68 -74 68c-41 0 -72 -30 -72 -68c0 -40 31 -69 72 -69zM710 -22c228 1 420 78 533 296l-67 39c-99 -197 -283 -262 -461 -262c-259 0 -505 183 -505 529c0 277 186 519 505 519c228 0 355 -90 452 -288l67 12v330h-79v-210
c-89 142 -215 230 -444 230c-360 0 -599 -259 -599 -593c0 -397 292 -601 598 -602z" />
    <glyph glyph-name="cdotaccent" unicode="&#x10b;" horiz-adv-x="958" 
d="M490 1004c43 0 74 29 74 69c0 38 -31 68 -74 68c-41 0 -72 -30 -72 -68c0 -40 31 -69 72 -69zM150 406c0 205 144 350 347 350c137 0 242 -82 263 -203h71v253h-80l-1 -104c-37 71 -148 124 -261 124c-251 0 -430 -174 -430 -420c0 -250 176 -427 423 -427
c153 0 264 53 351 152l-27 62c-89 -94 -176 -144 -318 -144c-198 0 -338 148 -338 357z" />
    <glyph glyph-name="Ccaron" unicode="&#x10c;" horiz-adv-x="1390" 
d="M710 -22c228 1 420 78 533 296l-67 39c-99 -197 -283 -262 -461 -262c-259 0 -505 183 -505 529c0 277 186 519 505 519c228 0 355 -90 452 -288l67 12v330h-79v-210c-89 142 -215 230 -444 230c-360 0 -599 -259 -599 -593c0 -397 292 -601 598 -602zM679 1273h75
l169 307h-67l-139 -249l-142 249h-68z" />
    <glyph glyph-name="ccaron" unicode="&#x10d;" horiz-adv-x="958" 
d="M150 406c0 205 144 350 347 350c137 0 242 -82 263 -203h71v253h-80l-1 -104c-37 71 -148 124 -261 124c-251 0 -430 -174 -430 -420c0 -250 176 -427 423 -427c153 0 264 53 351 152l-27 62c-89 -94 -176 -144 -318 -144c-198 0 -338 148 -338 357zM450 926h75l169 307
h-67l-139 -249l-142 249h-68z" />
    <glyph glyph-name="Dcaron" unicode="&#x10e;" horiz-adv-x="1420" 
d="M776 1152h-667v-66h170v-1020h-170v-66h671c349 0 523 290 523 578c0 265 -166 574 -527 574zM375 1086h399c292 0 432 -266 432 -510c0 -257 -139 -510 -439 -510h-392v1020zM592 1273h75l169 307h-67l-139 -249l-142 249h-68z" />
    <glyph glyph-name="dcaron" unicode="&#x10f;" horiz-adv-x="1028" 
d="M764 0h225v66h-134v1108h-228v-66h137v-385c-84 62 -200 103 -305 103c-226 0 -398 -164 -398 -423c0 -257 183 -425 420 -425c97 0 205 39 283 101v-79zM764 658v-512c-76 -60 -180 -99 -269 -99c-198 0 -343 137 -343 348c0 220 134 362 320 362c97 0 209 -39 292 -99z
M960 862c112 -1 142 79 141 178v134h-130v-124h75c0 -82 -14 -141 -86 -148v-40z" />
    <glyph glyph-name="Dcroat" unicode="&#x110;" horiz-adv-x="1420" 
d="M776 1152h-667v-66h170v-1020h-170v-66h671c349 0 523 290 523 578c0 265 -166 574 -527 574zM375 1086h399c292 0 432 -266 432 -510c0 -257 -139 -510 -439 -510h-392v1020zM89 569h508v69h-508v-69z" />
    <glyph glyph-name="dcroat" unicode="&#x111;" horiz-adv-x="1028" 
d="M764 0h225v66h-134v1108h-228v-66h137v-385c-84 62 -200 103 -305 103c-226 0 -398 -164 -398 -423c0 -257 183 -425 420 -425c97 0 205 39 283 101v-79zM764 658v-512c-76 -60 -180 -99 -269 -99c-198 0 -343 137 -343 348c0 220 134 362 320 362c97 0 209 -39 292 -99z
M606 922h395v58h-395v-58z" />
    <glyph glyph-name="Emacron" unicode="&#x112;" horiz-adv-x="1211" 
d="M456 1276h395v58h-395v-58zM992 819h78v333h-962v-66h170v-1020h-170v-66h982v339h-78v-273h-638v490h401v-166h58v394h-59v-159h-400v461h618v-267z" />
    <glyph glyph-name="emacron" unicode="&#x113;" horiz-adv-x="962" 
d="M284 928h395v58h-395v-58zM151 441c10 193 150 318 320 318c152 0 287 -105 307 -318h-627zM489 -21c132 0 266 54 359 150l-31 61c-72 -80 -200 -142 -326 -142c-168 0 -330 118 -340 334h714c-5 311 -201 444 -394 444c-215 0 -413 -150 -413 -424
c0 -262 200 -423 431 -423z" />
    <glyph glyph-name="Ebreve" unicode="&#x114;" horiz-adv-x="1211" 
d="M656 1276c96 0 157 57 172 160h-59c-16 -67 -55 -101 -113 -101c-60 0 -97 34 -114 101h-59c16 -103 79 -160 173 -160zM992 819h78v333h-962v-66h170v-1020h-170v-66h982v339h-78v-273h-638v490h401v-166h58v394h-59v-159h-400v461h618v-267z" />
    <glyph glyph-name="ebreve" unicode="&#x115;" horiz-adv-x="962" 
d="M484 928c96 0 157 57 172 160h-59c-16 -67 -55 -101 -113 -101c-60 0 -97 34 -114 101h-59c16 -103 79 -160 173 -160zM151 441c10 193 150 318 320 318c152 0 287 -105 307 -318h-627zM489 -21c132 0 266 54 359 150l-31 61c-72 -80 -200 -142 -326 -142
c-168 0 -330 118 -340 334h714c-5 311 -201 444 -394 444c-215 0 -413 -150 -413 -424c0 -262 200 -423 431 -423z" />
    <glyph glyph-name="Edotaccent" unicode="&#x116;" horiz-adv-x="1211" 
d="M659 1351c43 0 74 29 74 69c0 38 -31 68 -74 68c-41 0 -72 -30 -72 -68c0 -40 31 -69 72 -69zM992 819h78v333h-962v-66h170v-1020h-170v-66h982v339h-78v-273h-638v490h401v-166h58v394h-59v-159h-400v461h618v-267z" />
    <glyph glyph-name="edotaccent" unicode="&#x117;" horiz-adv-x="962" 
d="M487 1003c43 0 74 29 74 69c0 38 -31 68 -74 68c-41 0 -72 -30 -72 -68c0 -40 31 -69 72 -69zM151 441c10 193 150 318 320 318c152 0 287 -105 307 -318h-627zM489 -21c132 0 266 54 359 150l-31 61c-72 -80 -200 -142 -326 -142c-168 0 -330 118 -340 334h714
c-5 311 -201 444 -394 444c-215 0 -413 -150 -413 -424c0 -262 200 -423 431 -423z" />
    <glyph glyph-name="Eogonek" unicode="&#x118;" horiz-adv-x="1211" 
d="M992 819h78v333h-962v-66h170v-1020h-170v-66h982v339h-78v-273h-638v490h401v-166h58v394h-59v-159h-400v461h618v-267zM755 -322c40 0 78 13 118 38v56c-31 -22 -62 -32 -94 -32c-55 0 -95 33 -95 98c0 48 31 108 90 165h-56c-71 -67 -106 -134 -106 -191
c0 -84 65 -134 143 -134z" />
    <glyph glyph-name="eogonek" unicode="&#x119;" horiz-adv-x="962" 
d="M151 441c10 193 150 318 320 318c152 0 287 -105 307 -318h-627zM489 -21c132 0 266 54 359 150l-31 61c-72 -80 -200 -142 -326 -142c-168 0 -330 118 -340 334h714c-5 311 -201 444 -394 444c-215 0 -413 -150 -413 -424c0 -262 200 -423 431 -423zM572 -322
c40 0 78 13 118 38v56c-31 -22 -62 -32 -94 -32c-55 0 -95 33 -95 98c0 48 31 108 90 165h-56c-71 -67 -106 -134 -106 -191c0 -84 65 -134 143 -134z" />
    <glyph glyph-name="Ecaron" unicode="&#x11a;" horiz-adv-x="1211" 
d="M992 819h78v333h-962v-66h170v-1020h-170v-66h982v339h-78v-273h-638v490h401v-166h58v394h-59v-159h-400v461h618v-267zM618 1273h75l169 307h-67l-139 -249l-142 249h-68z" />
    <glyph glyph-name="ecaron" unicode="&#x11b;" horiz-adv-x="962" 
d="M151 441c10 193 150 318 320 318c152 0 287 -105 307 -318h-627zM489 -21c132 0 266 54 359 150l-31 61c-72 -80 -200 -142 -326 -142c-168 0 -330 118 -340 334h714c-5 311 -201 444 -394 444c-215 0 -413 -150 -413 -424c0 -262 200 -423 431 -423zM446 925h75l169 307
h-67l-139 -249l-142 249h-68z" />
    <glyph glyph-name="Gcircumflex" unicode="&#x11c;" horiz-adv-x="1397" 
d="M717 -21c245 0 554 112 555 581h-344v-69h250c-6 -337 -262 -437 -458 -439c-313 0 -509 206 -509 533c0 317 196 516 507 516c196 0 360 -98 436 -274h69v326h-82v-181c-90 129 -247 202 -426 202c-365 0 -605 -227 -605 -589c0 -372 237 -606 607 -606zM563 1273
l144 263l143 -263h70l-172 313h-83l-173 -313h71z" />
    <glyph glyph-name="gcircumflex" unicode="&#x11d;" horiz-adv-x="1029" 
d="M479 -379c234 0 389 110 389 362v755h136v66h-226v-88c-81 65 -205 108 -311 108c-232 0 -404 -161 -404 -414c0 -252 181 -417 420 -417c102 1 215 43 295 108v-131c0 -177 -102 -277 -299 -277c-78 0 -169 15 -275 46l-17 -70c103 -29 203 -48 292 -48zM778 652v-485
c-78 -64 -187 -106 -281 -106c-197 0 -342 134 -342 341c0 216 133 355 320 355c101 0 218 -42 303 -105zM345 925l144 263l143 -263h70l-172 313h-83l-173 -313h71z" />
    <glyph glyph-name="Gbreve" unicode="&#x11e;" horiz-adv-x="1397" 
d="M710 1276c96 0 157 57 172 160h-59c-16 -67 -55 -101 -113 -101c-60 0 -97 34 -114 101h-59c16 -103 79 -160 173 -160zM717 -21c245 0 554 112 555 581h-344v-69h250c-6 -337 -262 -437 -458 -439c-313 0 -509 206 -509 533c0 317 196 516 507 516
c196 0 360 -98 436 -274h69v326h-82v-181c-90 129 -247 202 -426 202c-365 0 -605 -227 -605 -589c0 -372 237 -606 607 -606z" />
    <glyph glyph-name="gbreve" unicode="&#x11f;" horiz-adv-x="1029" 
d="M491 928c96 0 157 57 172 160h-59c-16 -67 -55 -101 -113 -101c-60 0 -97 34 -114 101h-59c16 -103 79 -160 173 -160zM479 -379c234 0 389 110 389 362v755h136v66h-226v-88c-81 65 -205 108 -311 108c-232 0 -404 -161 -404 -414c0 -252 181 -417 420 -417
c102 1 215 43 295 108v-131c0 -177 -102 -277 -299 -277c-78 0 -169 15 -275 46l-17 -70c103 -29 203 -48 292 -48zM778 652v-485c-78 -64 -187 -106 -281 -106c-197 0 -342 134 -342 341c0 216 133 355 320 355c101 0 218 -42 303 -105z" />
    <glyph glyph-name="Gdotaccent" unicode="&#x120;" horiz-adv-x="1397" 
d="M713 1351c43 0 74 29 74 69c0 38 -31 68 -74 68c-41 0 -72 -30 -72 -68c0 -40 31 -69 72 -69zM717 -21c245 0 554 112 555 581h-344v-69h250c-6 -337 -262 -437 -458 -439c-313 0 -509 206 -509 533c0 317 196 516 507 516c196 0 360 -98 436 -274h69v326h-82v-181
c-90 129 -247 202 -426 202c-365 0 -605 -227 -605 -589c0 -372 237 -606 607 -606z" />
    <glyph glyph-name="gdotaccent" unicode="&#x121;" horiz-adv-x="1029" 
d="M479 -379c234 0 389 110 389 362v755h136v66h-226v-88c-81 65 -205 108 -311 108c-232 0 -404 -161 -404 -414c0 -252 181 -417 420 -417c102 1 215 43 295 108v-131c0 -177 -102 -277 -299 -277c-78 0 -169 15 -275 46l-17 -70c103 -29 203 -48 292 -48zM778 652v-485
c-78 -64 -187 -106 -281 -106c-197 0 -342 134 -342 341c0 216 133 355 320 355c101 0 218 -42 303 -105zM494 1003c43 0 74 29 74 69c0 38 -31 68 -74 68c-41 0 -72 -30 -72 -68c0 -40 31 -69 72 -69z" />
    <glyph glyph-name="uni0122" unicode="&#x122;" horiz-adv-x="1397" 
d="M717 -21c245 0 554 112 555 581h-344v-69h250c-6 -337 -262 -437 -458 -439c-313 0 -509 206 -509 533c0 317 196 516 507 516c196 0 360 -98 436 -274h69v326h-82v-181c-90 129 -247 202 -426 202c-365 0 -605 -227 -605 -589c0 -372 237 -606 607 -606zM633 -433
c112 -1 142 79 141 178v134h-130v-124h75c0 -82 -13 -141 -86 -148v-40z" />
    <glyph glyph-name="uni0123" unicode="&#x123;" horiz-adv-x="1029" 
d="M479 -379c234 0 389 110 389 362v755h136v66h-226v-88c-81 65 -205 108 -311 108c-232 0 -404 -161 -404 -414c0 -252 181 -417 420 -417c102 1 215 43 295 108v-131c0 -177 -102 -277 -299 -277c-78 0 -169 15 -275 46l-17 -70c103 -29 203 -48 292 -48zM778 652v-485
c-78 -64 -187 -106 -281 -106c-197 0 -342 134 -342 341c0 216 133 355 320 355c101 0 218 -42 303 -105zM574 923v133h-76c0 102 22 126 83 136v38c-105 0 -138 -72 -138 -169l-1 -138h132z" />
    <glyph glyph-name="Hcircumflex" unicode="&#x124;" horiz-adv-x="1473" 
d="M108 0h436v66h-170v485h724v-485h-170v-66h436v66h-170v1020h170v66h-436v-66h170v-465h-724v465h170v66h-436v-66h170v-1020h-170v-66zM588 1273l144 263l143 -263h70l-172 313h-83l-173 -313h71z" />
    <glyph glyph-name="hcircumflex" unicode="&#x125;" horiz-adv-x="1008" 
d="M33 0h381v66h-142v584c108 61 217 104 310 104c110 0 180 -68 180 -182v-506h-161v-66h402v66h-152v505c0 160 -104 255 -253 255c-110 0 -213 -44 -326 -112v460h-233v-66h143v-1042h-149v-66zM401 1150l144 263l143 -263h70l-172 313h-83l-173 -313h71z" />
    <glyph glyph-name="Hbar" unicode="&#x126;" horiz-adv-x="1473" 
d="M178 852h1116v64h-1116v-64zM108 0h436v66h-170v485h724v-485h-170v-66h436v66h-170v1020h170v66h-436v-66h170v-465h-724v465h170v66h-436v-66h170v-1020h-170v-66z" />
    <glyph glyph-name="hbar" unicode="&#x127;" horiz-adv-x="1008" 
d="M36 920h395v58h-395v-58zM33 0h381v66h-142v584c108 61 217 104 310 104c110 0 180 -68 180 -182v-506h-161v-66h402v66h-152v505c0 160 -104 255 -253 255c-110 0 -213 -44 -326 -112v460h-233v-66h143v-1042h-149v-66z" />
    <glyph glyph-name="Itilde" unicode="&#x128;" horiz-adv-x="655" 
d="M449 1290c77 -1 101 56 109 144h-39c-15 -66 -34 -78 -69 -78c-61 0 -159 82 -237 82c-67 0 -103 -50 -113 -144h40c14 61 29 78 63 78c65 0 155 -82 246 -82zM109 0h436v66h-170v1020h170v66h-436v-66h170v-1020h-170v-66z" />
    <glyph glyph-name="itilde" unicode="&#x129;" 
d="M424 942c77 -1 101 56 109 144h-39c-15 -66 -34 -78 -69 -78c-61 0 -159 82 -237 82c-67 0 -103 -50 -113 -144h40c14 61 29 78 63 78c65 0 155 -82 246 -82zM107 0h422v66h-162v738h-257v-66h168v-672h-171v-66z" />
    <glyph glyph-name="Imacron" unicode="&#x12a;" horiz-adv-x="655" 
d="M128 1276h395v58h-395v-58zM109 0h436v66h-170v1020h170v66h-436v-66h170v-1020h-170v-66z" />
    <glyph glyph-name="imacron" unicode="&#x12b;" 
d="M102 928h395v58h-395v-58zM107 0h422v66h-162v738h-257v-66h168v-672h-171v-66z" />
    <glyph glyph-name="Ibreve" unicode="&#x12c;" horiz-adv-x="655" 
d="M328 1276c96 0 157 57 172 160h-59c-16 -67 -55 -101 -113 -101c-60 0 -97 34 -114 101h-59c16 -103 79 -160 173 -160zM109 0h436v66h-170v1020h170v66h-436v-66h170v-1020h-170v-66z" />
    <glyph glyph-name="ibreve" unicode="&#x12d;" 
d="M302 928c96 0 157 57 172 160h-59c-16 -67 -55 -101 -113 -101c-60 0 -97 34 -114 101h-59c16 -103 79 -160 173 -160zM107 0h422v66h-162v738h-257v-66h168v-672h-171v-66z" />
    <glyph glyph-name="Iogonek" unicode="&#x12e;" horiz-adv-x="655" 
d="M349 -322c40 0 78 13 118 38v56c-31 -22 -62 -32 -94 -32c-55 0 -95 33 -95 98c0 48 31 108 90 165h-56c-71 -67 -106 -134 -106 -191c0 -84 65 -134 143 -134zM109 0h436v66h-170v1020h170v66h-436v-66h170v-1020h-170v-66z" />
    <glyph glyph-name="iogonek" unicode="&#x12f;" 
d="M305 1003c43 0 74 29 74 69c0 38 -31 68 -74 68c-41 0 -72 -30 -72 -68c0 -40 31 -69 72 -69zM349 -322c40 0 78 13 118 38v56c-31 -22 -62 -32 -94 -32c-55 0 -95 33 -95 98c0 48 31 108 90 165h-56c-71 -67 -106 -134 -106 -191c0 -84 65 -134 143 -134zM107 0h422v66
h-162v738h-257v-66h168v-672h-171v-66z" />
    <glyph glyph-name="Idotaccent" unicode="&#x130;" horiz-adv-x="655" 
d="M330 1351c43 0 74 29 74 69c0 38 -31 68 -74 68c-41 0 -72 -30 -72 -68c0 -40 31 -69 72 -69zM109 0h436v66h-170v1020h170v66h-436v-66h170v-1020h-170v-66z" />
    <glyph glyph-name="dotlessi" unicode="&#x131;" 
d="M107 0h422v66h-162v738h-257v-66h168v-672h-171v-66z" />
    <glyph glyph-name="IJ" unicode="&#x132;" horiz-adv-x="1256" 
d="M745 -116h125c138 0 195 54 195 244v958h133v66h-371v-66h141v-952c0 -119 -13 -175 -100 -175h-123v-75zM109 0h436v66h-170v1020h170v66h-436v-66h170v-1020h-170v-66z" />
    <glyph glyph-name="ij" unicode="&#x133;" horiz-adv-x="1021" 
d="M823 1004c43 0 74 29 74 69c0 38 -31 67 -74 67c-41 0 -72 -29 -72 -67c0 -40 31 -69 72 -69zM592 -271h80c201 0 221 110 221 228c0 12 -1 251 -1 848h-252v-64h160v-792c0 -102 -13 -150 -135 -150h-73v-70zM304 1003c43 0 75 29 75 69c0 38 -32 68 -75 68
c-41 0 -72 -30 -72 -68c0 -40 31 -69 72 -69zM107 0h422v66h-162v738h-257v-66h168v-672h-171v-66z" />
    <glyph glyph-name="Jcircumflex" unicode="&#x134;" horiz-adv-x="601" 
d="M90 -116h125c138 0 195 54 195 244v958h133v66h-371v-66h141v-952c0 -119 -13 -175 -100 -175h-123v-75zM217 1273l144 263l143 -263h70l-172 313h-83l-173 -313h71z" />
    <glyph glyph-name="jcircumflex" unicode="&#x135;" horiz-adv-x="446" 
d="M17 -271h80c227 0 218 145 218 261v814h-262v-66h172v-769c0 -116 -4 -170 -135 -170h-73v-70zM99 926l144 263l143 -263h70l-172 313h-83l-173 -313h71z" />
    <glyph glyph-name="uni0136" unicode="&#x136;" horiz-adv-x="1301" 
d="M592 -433c112 -1 142 79 141 178v134h-130v-124h75c0 -82 -13 -141 -86 -148v-40zM800 0h426v66h-160l-586 519l556 501h164v66h-425v-66h148l-549 -490v490h170v66h-436v-66h170v-1020h-170v-66h436v66h-170v503l573 -503h-147v-66z" />
    <glyph glyph-name="uni0137" unicode="&#x137;" horiz-adv-x="993" 
d="M460 -433c112 -1 142 79 141 178v134h-130v-124h75c0 -82 -13 -141 -86 -148v-40zM735 0h218v66h-174l-381 353l409 319h141v66h-399v-66h160l-410 -312v748h-234v-66h144v-1042h-150v-66h382v66h-142v345z" />
    <glyph glyph-name="kgreenlandic" unicode="&#x138;" horiz-adv-x="988" 
d="M740 0h205v66h-162l-356 342l370 330h141v66h-392v-66h146l-374 -332zM75 0h363v66h-131v738h-227v-66h138v-672h-143v-66z" />
    <glyph glyph-name="Lacute" unicode="&#x139;" horiz-adv-x="1064" 
d="M374 66v1020h170v66h-436v-66h170v-1020h-170v-66h903v402h-79v-336h-558zM799 1600l-97 -268h54l140 268h-97z" />
    <glyph glyph-name="lacute" unicode="&#x13a;" horiz-adv-x="483" 
d="M56 0h382v66h-142v1108h-234v-66h144v-1042h-150v-66zM324 1600l-97 -268h54l140 268h-97z" />
    <glyph glyph-name="uni013B" unicode="&#x13b;" horiz-adv-x="1064" 
d="M374 66v1020h170v66h-436v-66h170v-1020h-170v-66h903v402h-79v-336h-558zM537 -433c112 -1 142 79 141 178v134h-130v-124h75c0 -82 -13 -141 -86 -148v-40z" />
    <glyph glyph-name="uni013C" unicode="&#x13c;" horiz-adv-x="483" 
d="M56 0h382v66h-142v1108h-234v-66h144v-1042h-150v-66zM173 -433c112 -1 142 79 141 178v134h-130v-124h75c0 -82 -13 -141 -86 -148v-40z" />
    <glyph glyph-name="Lcaron" unicode="&#x13d;" horiz-adv-x="1064" 
d="M374 66v1020h170v66h-436v-66h170v-1020h-170v-66h903v402h-79v-336h-558zM650 862c112 -1 142 79 141 178v134h-130v-124h75c0 -82 -14 -141 -86 -148v-40z" />
    <glyph glyph-name="lcaron" unicode="&#x13e;" horiz-adv-x="483" 
d="M56 0h382v66h-142v1108h-234v-66h144v-1042h-150v-66zM372 862c112 -1 142 79 141 178v134h-130v-124h75c0 -82 -14 -141 -86 -148v-40z" />
    <glyph glyph-name="Ldot" unicode="&#x13f;" horiz-adv-x="1064" 
d="M697 538c43 0 75 29 75 68s-32 68 -75 68c-41 0 -71 -29 -71 -68s30 -68 71 -68zM374 66v1020h170v66h-436v-66h170v-1020h-170v-66h903v402h-79v-336h-558z" />
    <glyph glyph-name="ldot" unicode="&#x140;" horiz-adv-x="483" 
d="M487 572c43 0 75 29 75 68s-32 68 -75 68c-41 0 -71 -29 -71 -68s30 -68 71 -68zM56 0h382v66h-142v1108h-234v-66h144v-1042h-150v-66z" />
    <glyph glyph-name="Lslash" unicode="&#x141;" horiz-adv-x="1227" 
d="M110 423l447 268v76l-447 -272v-72zM374 66v1020h170v66h-436v-66h170v-1020h-170v-66h903v402h-79v-336h-558z" />
    <glyph glyph-name="lslash" unicode="&#x142;" horiz-adv-x="477" 
d="M51 431l390 226v84l-390 -230v-80zM56 0h382v66h-142v1108h-234v-66h144v-1042h-150v-66z" />
    <glyph glyph-name="Nacute" unicode="&#x143;" horiz-adv-x="1443" 
d="M115 0h388v66h-155v968l790 -1034h96v1086h139v66h-376v-66h157v-955l-783 1021h-256v-66h153v-1020h-153v-66zM795 1600l-97 -268h54l140 268h-97z" />
    <glyph glyph-name="nacute" unicode="&#x144;" horiz-adv-x="1031" 
d="M39 0h422v66h-162v587c117 63 231 101 303 101c112 0 182 -68 182 -182v-506h-160v-66h401v66h-151v505c0 160 -104 255 -252 255c-93 0 -212 -43 -323 -109v87h-258v-66h168v-672h-170v-66zM668 1252l-97 -268h54l140 268h-97z" />
    <glyph glyph-name="uni0145" unicode="&#x145;" horiz-adv-x="1443" 
d="M115 0h388v66h-155v968l790 -1034h96v1086h139v66h-376v-66h157v-955l-783 1021h-256v-66h153v-1020h-153v-66zM636 -433c112 -1 142 79 141 178v134h-130v-124h75c0 -82 -13 -141 -86 -148v-40z" />
    <glyph glyph-name="uni0146" unicode="&#x146;" horiz-adv-x="1031" 
d="M39 0h422v66h-162v587c117 63 231 101 303 101c112 0 182 -68 182 -182v-506h-160v-66h401v66h-151v505c0 160 -104 255 -252 255c-93 0 -212 -43 -323 -109v87h-258v-66h168v-672h-170v-66zM477 -433c112 -1 142 79 141 178v134h-130v-124h75c0 -82 -13 -141 -86 -148
v-40z" />
    <glyph glyph-name="Ncaron" unicode="&#x147;" horiz-adv-x="1443" 
d="M115 0h388v66h-155v968l790 -1034h96v1086h139v66h-376v-66h157v-955l-783 1021h-256v-66h153v-1020h-153v-66zM680 1273h75l169 307h-67l-139 -249l-142 249h-68z" />
    <glyph glyph-name="ncaron" unicode="&#x148;" horiz-adv-x="1031" 
d="M39 0h422v66h-162v587c117 63 231 101 303 101c112 0 182 -68 182 -182v-506h-160v-66h401v66h-151v505c0 160 -104 255 -252 255c-93 0 -212 -43 -323 -109v87h-258v-66h168v-672h-170v-66zM553 925h75l169 307h-67l-139 -249l-142 249h-68z" />
    <glyph glyph-name="napostrophe" unicode="&#x149;" horiz-adv-x="1031" 
d="M39 0h422v66h-162v587c117 63 231 101 303 101c112 0 182 -68 182 -182v-506h-160v-66h401v66h-151v505c0 160 -104 255 -252 255c-93 0 -212 -43 -323 -109v87h-258v-66h168v-672h-170v-66zM189 916c105 0 138 73 138 170v137h-131v-133h76c0 -102 -22 -126 -83 -136
v-38z" />
    <glyph glyph-name="Eng" unicode="&#x14a;" horiz-adv-x="1443" 
d="M997 1152v-66h157v-955l-783 1021h-256v-66h153v-1020h-153v-66h388v66h-155v968l806 -1046c0 -178 -94 -285 -312 -285v-69c235 0 392 105 392 357v1095h139v66h-376z" />
    <glyph glyph-name="eng" unicode="&#x14b;" horiz-adv-x="1031" 
d="M480 -354c235 0 394 105 394 357v568c0 160 -104 255 -252 255c-92 0 -212 -43 -323 -110v88h-258v-66h168v-672h-170v-66h422v66h-162v587c117 63 231 101 303 101c112 0 183 -68 183 -182v-582c0 -177 -95 -277 -303 -277z" />
    <glyph glyph-name="Omacron" unicode="&#x14c;" horiz-adv-x="1454" 
d="M727 51c-345 0 -510 253 -510 521c0 261 168 529 510 529c338 0 510 -268 510 -529s-172 -521 -510 -521zM725 -22c404 0 613 294 613 594c0 299 -211 602 -611 602s-610 -302 -610 -601s207 -595 608 -595zM523 1276h395v58h-395v-58z" />
    <glyph glyph-name="omacron" unicode="&#x14d;" horiz-adv-x="982" 
d="M489 -22c255 0 435 177 435 429c0 245 -180 419 -434 419s-432 -174 -432 -420c0 -251 178 -428 431 -428zM489 49c-199 0 -340 148 -340 357c0 205 141 349 340 349c201 0 343 -144 343 -348c0 -210 -142 -358 -343 -358zM285 942h395v58h-395v-58z" />
    <glyph glyph-name="Obreve" unicode="&#x14e;" horiz-adv-x="1454" 
d="M723 1276c96 0 157 57 172 160h-59c-16 -67 -55 -101 -113 -101c-60 0 -97 34 -114 101h-59c16 -103 79 -160 173 -160zM727 51c-345 0 -510 253 -510 521c0 261 168 529 510 529c338 0 510 -268 510 -529s-172 -521 -510 -521zM725 -22c404 0 613 294 613 594
c0 299 -211 602 -611 602s-610 -302 -610 -601s207 -595 608 -595z" />
    <glyph glyph-name="obreve" unicode="&#x14f;" horiz-adv-x="982" 
d="M485 929c96 0 157 57 172 160h-59c-16 -67 -55 -101 -113 -101c-60 0 -97 34 -114 101h-59c16 -103 79 -160 173 -160zM489 -22c255 0 435 177 435 429c0 245 -180 419 -434 419s-432 -174 -432 -420c0 -251 178 -428 431 -428zM489 49c-199 0 -340 148 -340 357
c0 205 141 349 340 349c201 0 343 -144 343 -348c0 -210 -142 -358 -343 -358z" />
    <glyph glyph-name="Ohungarumlaut" unicode="&#x150;" horiz-adv-x="1454" 
d="M727 51c-345 0 -510 253 -510 521c0 261 168 529 510 529c338 0 510 -268 510 -529s-172 -521 -510 -521zM725 -22c404 0 613 294 613 594c0 299 -211 602 -611 602s-610 -302 -610 -601s207 -595 608 -595zM941 1635l-111 -303h54l154 303h-97zM719 1635l-111 -303h54
l154 303h-97z" />
    <glyph glyph-name="ohungarumlaut" unicode="&#x151;" horiz-adv-x="982" 
d="M489 -22c255 0 435 177 435 429c0 245 -180 419 -434 419s-432 -174 -432 -420c0 -251 178 -428 431 -428zM489 49c-199 0 -340 148 -340 357c0 205 141 349 340 349c201 0 343 -144 343 -348c0 -210 -142 -358 -343 -358zM702 1288l-111 -303h54l154 303h-97zM480 1288
l-111 -303h54l154 303h-97z" />
    <glyph glyph-name="OE" unicode="&#x152;" horiz-adv-x="1981" 
d="M788 0h1064v379h-78v-310h-656v468h435v-172h58v400h-58v-158h-434v476h634v-290h77v359h-1042c-403 0 -648 -218 -649 -578c1 -358 247 -574 649 -574zM794 69c-343 0 -554 191 -554 505c0 320 214 509 553 509h230v-1014h-229z" />
    <glyph glyph-name="oe" unicode="&#x153;" horiz-adv-x="1764" 
d="M500 -22c183 0 327 98 387 248c64 -158 218 -248 387 -248c132 0 263 49 357 150l-40 56c-68 -80 -197 -139 -315 -139c-176 0 -333 120 -343 336h717c-6 307 -188 445 -392 445c-154 0 -307 -83 -369 -245c-62 149 -205 245 -389 245c-251 0 -428 -176 -428 -421
c0 -249 175 -427 428 -427zM500 46c-202 0 -340 149 -340 359c0 206 138 351 340 351c203 0 343 -145 343 -351c0 -210 -140 -359 -343 -359zM933 439c11 195 147 320 325 320c160 0 287 -106 309 -320h-634z" />
    <glyph glyph-name="Racute" unicode="&#x154;" horiz-adv-x="1283" 
d="M969 0h236v66h-169l-296 476c255 14 338 154 338 305c0 168 -112 305 -350 305h-620v-66h170v-1020h-170v-66h436v66h-170v1020h358c184 0 251 -120 251 -239c0 -111 -55 -245 -299 -245h-239v-67h199zM707 1600l-97 -268h54l140 268h-97z" />
    <glyph glyph-name="racute" unicode="&#x155;" horiz-adv-x="780" 
d="M99 0h422v66h-162l1 387c0 184 95 292 202 292c53 0 92 -14 136 -40l21 76c-49 26 -98 40 -153 40c-81 0 -161 -45 -207 -171v154h-258v-66h168v-672h-170v-66zM560 1253l-97 -268h54l140 268h-97z" />
    <glyph glyph-name="uni0156" unicode="&#x156;" horiz-adv-x="1283" 
d="M969 0h236v66h-169l-296 476c255 14 338 154 338 305c0 168 -112 305 -350 305h-620v-66h170v-1020h-170v-66h436v66h-170v1020h358c184 0 251 -120 251 -239c0 -111 -55 -245 -299 -245h-239v-67h199zM617 -433c112 -1 142 79 141 178v134h-130v-124h75
c0 -82 -13 -141 -86 -148v-40z" />
    <glyph glyph-name="uni0157" unicode="&#x157;" horiz-adv-x="780" 
d="M99 0h422v66h-162l1 387c0 184 95 292 202 292c53 0 92 -14 136 -40l21 76c-49 26 -98 40 -153 40c-81 0 -161 -45 -207 -171v154h-258v-66h168v-672h-170v-66zM242 -433c112 -1 142 79 141 178v134h-130v-124h75c0 -82 -13 -141 -86 -148v-40z" />
    <glyph glyph-name="Rcaron" unicode="&#x158;" horiz-adv-x="1283" 
d="M969 0h236v66h-169l-296 476c255 14 338 154 338 305c0 168 -112 305 -350 305h-620v-66h170v-1020h-170v-66h436v66h-170v1020h358c184 0 251 -120 251 -239c0 -111 -55 -245 -299 -245h-239v-67h199zM592 1273h75l169 307h-67l-139 -249l-142 249h-68z" />
    <glyph glyph-name="rcaron" unicode="&#x159;" horiz-adv-x="780" 
d="M99 0h422v66h-162l1 387c0 184 95 292 202 292c53 0 92 -14 136 -40l21 76c-49 26 -98 40 -153 40c-81 0 -161 -45 -207 -171v154h-258v-66h168v-672h-170v-66zM445 926h75l169 307h-67l-139 -249l-142 249h-68z" />
    <glyph glyph-name="Sacute" unicode="&#x15a;" horiz-adv-x="1112" 
d="M625 -21c303 0 389 191 389 321c0 266 -190 297 -413 324c-195 23 -350 51 -350 236c0 137 92 243 309 243c170 0 288 -74 306 -156l-1 -108h82v315h-82v-103c-54 81 -204 123 -314 123c-217 0 -388 -101 -388 -315c0 -255 208 -292 423 -314c209 -21 336 -58 336 -243
c0 -129 -79 -252 -300 -252c-212 0 -334 67 -374 192v146h-82v-389h82v136c59 -110 198 -156 377 -156zM648 1600l-97 -268h54l140 268h-97z" />
    <glyph glyph-name="sacute" unicode="&#x15b;" horiz-adv-x="905" 
d="M488 -21c157 0 313 68 313 223c0 172 -116 203 -282 241l-124 28c-99 22 -166 56 -166 135c0 106 107 153 215 153c87 0 197 -40 240 -97l9 -123h69v267h-77v-70c-60 58 -162 90 -252 90c-157 0 -292 -72 -292 -223c0 -128 88 -179 224 -209l127 -27
c156 -33 224 -59 224 -172c0 -94 -100 -152 -236 -152c-110 0 -210 36 -270 110l-5 100h-68v-253h74v77c52 -56 160 -98 277 -98zM523 1253l-97 -268h54l140 268h-97z" />
    <glyph glyph-name="Scircumflex" unicode="&#x15c;" horiz-adv-x="1112" 
d="M625 -21c303 0 389 191 389 321c0 266 -190 297 -413 324c-195 23 -350 51 -350 236c0 137 92 243 309 243c170 0 288 -74 306 -156l-1 -108h82v315h-82v-103c-54 81 -204 123 -314 123c-217 0 -388 -101 -388 -315c0 -255 208 -292 423 -314c209 -21 336 -58 336 -243
c0 -129 -79 -252 -300 -252c-212 0 -334 67 -374 192v146h-82v-389h82v136c59 -110 198 -156 377 -156zM424 1273l144 263l143 -263h70l-172 313h-83l-173 -313h71z" />
    <glyph glyph-name="scircumflex" unicode="&#x15d;" horiz-adv-x="905" 
d="M488 -21c157 0 313 68 313 223c0 172 -116 203 -282 241l-124 28c-99 22 -166 56 -166 135c0 106 107 153 215 153c87 0 197 -40 240 -97l9 -123h69v267h-77v-70c-60 58 -162 90 -252 90c-157 0 -292 -72 -292 -223c0 -128 88 -179 224 -209l127 -27
c156 -33 224 -59 224 -172c0 -94 -100 -152 -236 -152c-110 0 -210 36 -270 110l-5 100h-68v-253h74v77c52 -56 160 -98 277 -98zM300 926l144 263l143 -263h70l-172 313h-83l-173 -313h71z" />
    <glyph glyph-name="Scedilla" unicode="&#x15e;" horiz-adv-x="1112" 
d="M621 -311c67 0 124 27 124 97c0 51 -37 99 -135 103l36 117h-46l-59 -157c88 -2 119 -24 119 -54c0 -36 -29 -53 -76 -53c-27 0 -59 6 -94 17v-40c41 -19 88 -30 131 -30zM625 -21c303 0 389 191 389 321c0 266 -190 297 -413 324c-195 23 -350 51 -350 236
c0 137 92 243 309 243c170 0 288 -74 306 -156l-1 -108h82v315h-82v-103c-54 81 -204 123 -314 123c-217 0 -388 -101 -388 -315c0 -255 208 -292 423 -314c209 -21 336 -58 336 -243c0 -129 -79 -252 -300 -252c-212 0 -334 67 -374 192v146h-82v-389h82v136
c59 -110 198 -156 377 -156z" />
    <glyph glyph-name="scedilla" unicode="&#x15f;" horiz-adv-x="905" 
d="M464 -311c67 0 124 27 124 97c0 51 -37 99 -135 103l36 117h-46l-59 -157c88 -2 119 -24 119 -54c0 -36 -29 -53 -76 -53c-27 0 -59 6 -94 17v-40c41 -19 88 -30 131 -30zM488 -21c157 0 313 68 313 223c0 172 -116 203 -282 241l-124 28c-99 22 -166 56 -166 135
c0 106 107 153 215 153c87 0 197 -40 240 -97l9 -123h69v267h-77v-70c-60 58 -162 90 -252 90c-157 0 -292 -72 -292 -223c0 -128 88 -179 224 -209l127 -27c156 -33 224 -59 224 -172c0 -94 -100 -152 -236 -152c-110 0 -210 36 -270 110l-5 100h-68v-253h74v77
c52 -56 160 -98 277 -98z" />
    <glyph glyph-name="Scaron" unicode="&#x160;" horiz-adv-x="1112" 
d="M625 -21c303 0 389 191 389 321c0 266 -190 297 -413 324c-195 23 -350 51 -350 236c0 137 92 243 309 243c170 0 288 -74 306 -156l-1 -108h82v315h-82v-103c-54 81 -204 123 -314 123c-217 0 -388 -101 -388 -315c0 -255 208 -292 423 -314c209 -21 336 -58 336 -243
c0 -129 -79 -252 -300 -252c-212 0 -334 67 -374 192v146h-82v-389h82v136c59 -110 198 -156 377 -156zM533 1273h75l169 307h-67l-139 -249l-142 249h-68z" />
    <glyph glyph-name="scaron" unicode="&#x161;" horiz-adv-x="905" 
d="M488 -21c157 0 313 68 313 223c0 172 -116 203 -282 241l-124 28c-99 22 -166 56 -166 135c0 106 107 153 215 153c87 0 197 -40 240 -97l9 -123h69v267h-77v-70c-60 58 -162 90 -252 90c-157 0 -292 -72 -292 -223c0 -128 88 -179 224 -209l127 -27
c156 -33 224 -59 224 -172c0 -94 -100 -152 -236 -152c-110 0 -210 36 -270 110l-5 100h-68v-253h74v77c52 -56 160 -98 277 -98zM409 926h75l169 307h-67l-139 -249l-142 249h-68z" />
    <glyph glyph-name="uni0162" unicode="&#x162;" horiz-adv-x="1146" 
d="M560 -311c67 0 124 27 124 97c0 51 -37 99 -135 103l36 117h-46l-59 -157c88 -2 119 -24 119 -54c0 -36 -29 -53 -76 -53c-27 0 -59 6 -94 17v-40c41 -19 88 -30 131 -30zM52 766h76v320h393v-1020h-170v-66h436v66h-170v1020h399v-320h79v386h-1043v-386z" />
    <glyph glyph-name="uni0163" unicode="&#x163;" horiz-adv-x="591" 
d="M431 0h107v66h-95c-119 0 -167 43 -167 165v507h228l1 66h-229v310l-89 -32v-278h-146v-66h145v-512c0 -167 96 -226 245 -226zM384 -304c67 0 124 27 124 97c0 51 -37 99 -135 103l36 117h-46l-59 -157c88 -2 119 -24 119 -54c0 -36 -29 -53 -76 -53c-27 0 -59 6 -94 17
v-40c41 -19 88 -30 131 -30z" />
    <glyph glyph-name="Tcaron" unicode="&#x164;" horiz-adv-x="1146" 
d="M52 766h76v320h393v-1020h-170v-66h436v66h-170v1020h399v-320h79v386h-1043v-386zM528 1273h75l169 307h-67l-139 -249l-142 249h-68z" />
    <glyph glyph-name="tcaron" unicode="&#x165;" horiz-adv-x="591" 
d="M431 0h107v66h-95c-119 0 -167 43 -167 165v507h228l1 66h-229v310l-89 -32v-278h-146v-66h145v-512c0 -167 96 -226 245 -226zM378 995c112 -1 142 79 141 178v134h-130v-124h75c0 -82 -14 -141 -86 -148v-40z" />
    <glyph glyph-name="Tbar" unicode="&#x166;" horiz-adv-x="1146" 
d="M52 766h76v320h393v-1020h-170v-66h436v66h-170v1020h399v-320h79v386h-1043v-386zM368 646h395v58h-395v-58z" />
    <glyph glyph-name="tbar" unicode="&#x167;" horiz-adv-x="591" 
d="M431 0h107v66h-95c-119 0 -167 43 -167 165v507h228l1 66h-229v310l-89 -32v-278h-146v-66h145v-512c0 -167 96 -226 245 -226zM56 469h395v58h-395v-58z" />
    <glyph glyph-name="Utilde" unicode="&#x168;" horiz-adv-x="1453" 
d="M854 1290c77 -1 101 56 109 144h-39c-15 -66 -34 -78 -69 -78c-61 0 -159 82 -237 82c-67 0 -103 -50 -113 -144h40c14 61 29 78 63 78c65 0 155 -82 246 -82zM722 -21c302 0 515 150 515 405v702h157v66h-395v-66h151v-705c0 -200 -169 -329 -426 -329
c-242 0 -399 131 -399 330v704h152v66h-401v-66h152v-696c0 -241 178 -411 494 -411z" />
    <glyph glyph-name="utilde" unicode="&#x169;" horiz-adv-x="1033" 
d="M608 942c77 -1 101 56 109 144h-39c-15 -66 -34 -78 -69 -78c-61 0 -159 82 -237 82c-67 0 -103 -50 -113 -144h40c14 61 29 78 63 78c65 0 155 -82 246 -82zM436 -21c118 0 223 48 322 121l6 -100h233v65h-151v739h-238v-66h148v-570c-94 -70 -185 -118 -306 -118
c-125 0 -178 83 -178 180v574h-240v-66h150v-515c0 -105 55 -244 254 -244z" />
    <glyph glyph-name="Umacron" unicode="&#x16a;" horiz-adv-x="1453" 
d="M533 1276h395v58h-395v-58zM722 -21c302 0 515 150 515 405v702h157v66h-395v-66h151v-705c0 -200 -169 -329 -426 -329c-242 0 -399 131 -399 330v704h152v66h-401v-66h152v-696c0 -241 178 -411 494 -411z" />
    <glyph glyph-name="umacron" unicode="&#x16b;" horiz-adv-x="1033" 
d="M436 -21c118 0 223 48 322 121l6 -100h233v65h-151v739h-238v-66h148v-570c-94 -70 -185 -118 -306 -118c-125 0 -178 83 -178 180v574h-240v-66h150v-515c0 -105 55 -244 254 -244zM287 941h395v58h-395v-58z" />
    <glyph glyph-name="Ubreve" unicode="&#x16c;" horiz-adv-x="1453" 
d="M733 1276c96 0 157 57 172 160h-59c-16 -67 -55 -101 -113 -101c-60 0 -97 34 -114 101h-59c16 -103 79 -160 173 -160zM722 -21c302 0 515 150 515 405v702h157v66h-395v-66h151v-705c0 -200 -169 -329 -426 -329c-242 0 -399 131 -399 330v704h152v66h-401v-66h152
v-696c0 -241 178 -411 494 -411z" />
    <glyph glyph-name="ubreve" unicode="&#x16d;" horiz-adv-x="1033" 
d="M487 928c96 0 157 57 172 160h-59c-16 -67 -55 -101 -113 -101c-60 0 -97 34 -114 101h-59c16 -103 79 -160 173 -160zM436 -21c118 0 223 48 322 121l6 -100h233v65h-151v739h-238v-66h148v-570c-94 -70 -185 -118 -306 -118c-125 0 -178 83 -178 180v574h-240v-66h150
v-515c0 -105 55 -244 254 -244z" />
    <glyph glyph-name="Uring" unicode="&#x16e;" horiz-adv-x="1453" 
d="M722 -21c302 0 515 150 515 405v702h157v66h-395v-66h151v-705c0 -200 -169 -329 -426 -329c-242 0 -399 131 -399 330v704h152v66h-401v-66h152v-696c0 -241 178 -411 494 -411zM736 1231c84 0 133 53 133 130c0 75 -49 126 -134 126c-84 0 -133 -51 -134 -126
c1 -77 50 -130 135 -130zM736 1273c-54 0 -86 35 -86 87c0 50 32 84 86 84c53 0 85 -34 85 -84c0 -52 -32 -87 -85 -87z" />
    <glyph glyph-name="uring" unicode="&#x16f;" horiz-adv-x="1033" 
d="M436 -21c118 0 223 48 322 121l6 -100h233v65h-151v739h-238v-66h148v-570c-94 -70 -185 -118 -306 -118c-125 0 -178 83 -178 180v574h-240v-66h150v-515c0 -105 55 -244 254 -244zM490 883c84 0 133 53 133 130c0 75 -49 126 -134 126c-84 0 -133 -51 -134 -126
c1 -77 50 -130 135 -130zM490 925c-54 0 -86 35 -86 87c0 50 32 84 86 84c53 0 85 -34 85 -84c0 -52 -32 -87 -85 -87z" />
    <glyph glyph-name="Uhungarumlaut" unicode="&#x170;" horiz-adv-x="1453" 
d="M950 1635l-111 -303h54l154 303h-97zM728 1635l-111 -303h54l154 303h-97zM722 -21c302 0 515 150 515 405v702h157v66h-395v-66h151v-705c0 -200 -169 -329 -426 -329c-242 0 -399 131 -399 330v704h152v66h-401v-66h152v-696c0 -241 178 -411 494 -411z" />
    <glyph glyph-name="uhungarumlaut" unicode="&#x171;" horiz-adv-x="1033" 
d="M704 1287l-111 -303h54l154 303h-97zM482 1287l-111 -303h54l154 303h-97zM436 -21c118 0 223 48 322 121l6 -100h233v65h-151v739h-238v-66h148v-570c-94 -70 -185 -118 -306 -118c-125 0 -178 83 -178 180v574h-240v-66h150v-515c0 -105 55 -244 254 -244z" />
    <glyph glyph-name="Uogonek" unicode="&#x172;" horiz-adv-x="1453" 
d="M722 -21c302 0 515 150 515 405v702h157v66h-395v-66h151v-705c0 -200 -169 -329 -426 -329c-242 0 -399 131 -399 330v704h152v66h-401v-66h152v-696c0 -241 178 -411 494 -411zM822 -322c40 0 78 13 118 38v56c-31 -22 -62 -32 -94 -32c-55 0 -95 33 -95 98
c0 48 31 108 90 165h-56c-71 -67 -106 -134 -106 -191c0 -84 65 -134 143 -134z" />
    <glyph glyph-name="uogonek" unicode="&#x173;" horiz-adv-x="1033" 
d="M436 -21c118 0 223 48 322 121l6 -100h233v65h-151v739h-238v-66h148v-570c-94 -70 -185 -118 -306 -118c-125 0 -178 83 -178 180v574h-240v-66h150v-515c0 -105 55 -244 254 -244zM902 -322c40 0 78 13 118 38v56c-31 -22 -62 -32 -94 -32c-55 0 -95 33 -95 98
c0 48 31 108 90 165h-56c-71 -67 -106 -134 -106 -191c0 -84 65 -134 143 -134z" />
    <glyph glyph-name="Wcircumflex" unicode="&#x174;" horiz-adv-x="1931" 
d="M563 0h92l313 947l312 -947h91l351 1086h145v66h-385v-66h153l-306 -963l-321 984h-72l-323 -984l-312 963h157v66h-394v-66h140zM825 1273l144 263l143 -263h70l-172 313h-83l-173 -313h71z" />
    <glyph glyph-name="wcircumflex" unicode="&#x175;" horiz-adv-x="1527" 
d="M419 0h99l243 662l246 -662h96l256 739h127v66h-342v-66h130l-219 -659l-245 659h138v66h-371v-66h136l-240 -659l-232 659h140v66h-353v-66h123zM616 925l144 263l143 -263h70l-172 313h-83l-173 -313h71z" />
    <glyph glyph-name="Ycircumflex" unicode="&#x176;" horiz-adv-x="1272" 
d="M495 1273l144 263l143 -263h70l-172 313h-83l-173 -313h71zM421 0h433v66h-169v408l410 612h154v66h-403v-66h156l-359 -541l-364 541h149v66h-409v-66h156l413 -612v-408h-167v-66z" />
    <glyph glyph-name="ycircumflex" unicode="&#x177;" horiz-adv-x="1068" 
d="M226 -275h90c163 0 203 50 262 195l345 818h131v66h-382v-66h160l-262 -633l-280 633h136v66h-389v-66h161l309 -680h45l-56 -137c-42 -105 -71 -120 -186 -120h-84v-76zM411 925l144 263l143 -263h70l-172 313h-83l-173 -313h71z" />
    <glyph glyph-name="Ydieresis" unicode="&#x178;" horiz-adv-x="1272" 
d="M462 1290c38 0 61 23 61 59s-24 58 -61 58s-61 -22 -61 -58s24 -59 61 -59zM808 1290c38 0 61 22 62 58c0 36 -24 59 -62 59c-37 0 -60 -23 -60 -59s23 -58 60 -58zM421 0h433v66h-169v408l410 612h154v66h-403v-66h156l-359 -541l-364 541h149v66h-409v-66h156l413 -612
v-408h-167v-66z" />
    <glyph glyph-name="Zacute" unicode="&#x179;" horiz-adv-x="1214" 
d="M136 0h947v376h-76v-310h-759l811 1021v65h-894v-359h76v293h704l-809 -1015v-71zM712 1600l-97 -268h54l140 268h-97z" />
    <glyph glyph-name="zacute" unicode="&#x17a;" horiz-adv-x="930" 
d="M131 0h666v273h-74v-209h-488l549 665v76h-633v-249h75v185h461l-556 -670v-71zM554 1252l-97 -268h54l140 268h-97z" />
    <glyph glyph-name="Zdotaccent" unicode="&#x17b;" horiz-adv-x="1214" 
d="M638 1351c43 0 74 29 74 69c0 38 -31 68 -74 68c-41 0 -72 -30 -72 -68c0 -40 31 -69 72 -69zM136 0h947v376h-76v-310h-759l811 1021v65h-894v-359h76v293h704l-809 -1015v-71z" />
    <glyph glyph-name="zdotaccent" unicode="&#x17c;" horiz-adv-x="930" 
d="M480 1003c43 0 74 29 74 69c0 38 -31 68 -74 68c-41 0 -72 -30 -72 -68c0 -40 31 -69 72 -69zM131 0h666v273h-74v-209h-488l549 665v76h-633v-249h75v185h461l-556 -670v-71z" />
    <glyph glyph-name="Zcaron" unicode="&#x17d;" horiz-adv-x="1214" 
d="M136 0h947v376h-76v-310h-759l811 1021v65h-894v-359h76v293h704l-809 -1015v-71zM598 1273h75l169 307h-67l-139 -249l-142 249h-68z" />
    <glyph glyph-name="zcaron" unicode="&#x17e;" horiz-adv-x="930" 
d="M131 0h666v273h-74v-209h-488l549 665v76h-633v-249h75v185h461l-556 -670v-71zM439 925h75l169 307h-67l-139 -249l-142 249h-68z" />
    <glyph glyph-name="longs" unicode="&#x17f;" horiz-adv-x="600" 
 />
    <glyph glyph-name="uni018F" unicode="&#x18f;" horiz-adv-x="600" 
 />
    <glyph glyph-name="florin" unicode="&#x192;" horiz-adv-x="838" 
d="M445 999l-37 -201h-171l-7 -56h170l-115 -689c-25 -167 -93 -170 -183 -160l-4 -51c120 -17 238 -3 270 211l118 689h216l7 56h-215l36 201c21 128 64 164 123 162c49 -3 71 -44 71 -111c61 0 79 33 82 63c2 55 -59 91 -137 93c-137 3 -201 -81 -224 -207z" />
    <glyph glyph-name="uni01C4" unicode="&#x1c4;" horiz-adv-x="2634" 
d="M776 1152h-667v-66h170v-1020h-170v-66h671c349 0 523 290 523 578c0 265 -166 574 -527 574zM375 1086h399c292 0 432 -266 432 -510c0 -257 -139 -510 -439 -510h-392v1020zM1556 0h947v376h-76v-310h-759l811 1021v65h-894v-359h76v293h704l-809 -1015v-71zM2018 1273
h75l169 307h-67l-139 -249l-142 249h-68z" />
    <glyph glyph-name="uni01C5" unicode="&#x1c5;" horiz-adv-x="2350" 
d="M776 1152h-667v-66h170v-1020h-170v-66h671c349 0 523 290 523 578c0 265 -166 574 -527 574zM375 1086h399c292 0 432 -266 432 -510c0 -257 -139 -510 -439 -510h-392v1020zM1551 0h666v273h-74v-209h-488l549 665v76h-633v-249h75v185h461l-556 -670v-71zM592 1273h75
l169 307h-67l-139 -249l-142 249h-68z" />
    <glyph glyph-name="uni01C6" unicode="&#x1c6;" horiz-adv-x="1957" 
d="M764 0h225v66h-134v1108h-228v-66h137v-385c-84 62 -200 103 -305 103c-226 0 -398 -164 -398 -423c0 -257 183 -425 420 -425c97 0 205 39 283 101v-79zM764 658v-512c-76 -60 -180 -99 -269 -99c-198 0 -343 137 -343 348c0 220 134 362 320 362c97 0 209 -39 292 -99z
M1159 0h666v273h-74v-209h-488l549 665v76h-633v-249h75v185h461l-556 -670v-71zM1467 925h75l169 307h-67l-139 -249l-142 249h-68z" />
    <glyph glyph-name="uni01C7" unicode="&#x1c7;" horiz-adv-x="1665" 
d="M374 66v1020h170v66h-436v-66h170v-1020h-170v-66h903v402h-79v-336h-558zM1154 -116h125c138 0 195 54 195 244v958h133v66h-371v-66h141v-952c0 -119 -13 -175 -100 -175h-123v-75z" />
    <glyph glyph-name="uni01C8" unicode="&#x1c8;" horiz-adv-x="1509" 
d="M374 66v1020h170v66h-436v-66h170v-1020h-170v-66h903v402h-79v-336h-558zM1312 1004c43 0 74 29 74 69c0 38 -31 67 -74 67c-41 0 -72 -29 -72 -67c0 -40 31 -69 72 -69zM1081 -271h80c201 0 221 110 221 228c0 12 -1 251 -1 848h-252v-64h160v-792
c0 -102 -13 -150 -135 -150h-73v-70z" />
    <glyph glyph-name="uni01C9" unicode="&#x1c9;" horiz-adv-x="928" 
d="M56 0h382v66h-142v1108h-234v-66h144v-1042h-150v-66zM731 1004c43 0 74 29 74 69c0 38 -31 67 -74 67c-41 0 -72 -29 -72 -67c0 -40 31 -69 72 -69zM500 -271h80c201 0 221 110 221 228c0 12 -1 251 -1 848h-252v-64h160v-792c0 -102 -13 -150 -135 -150h-73v-70z" />
    <glyph glyph-name="uni01CA" unicode="&#x1ca;" horiz-adv-x="2044" 
d="M115 0h388v66h-155v968l790 -1034h96v1086h139v66h-376v-66h157v-955l-783 1021h-256v-66h153v-1020h-153v-66zM1533 -116h125c138 0 195 54 195 244v958h133v66h-371v-66h141v-952c0 -119 -13 -175 -100 -175h-123v-75z" />
    <glyph glyph-name="uni01CB" unicode="&#x1cb;" horiz-adv-x="1889" 
d="M115 0h388v66h-155v968l790 -1034h96v1086h139v66h-376v-66h157v-955l-783 1021h-256v-66h153v-1020h-153v-66zM1691 1004c43 0 74 29 74 69c0 38 -31 67 -74 67c-41 0 -72 -29 -72 -67c0 -40 31 -69 72 -69zM1460 -271h80c201 0 221 110 221 228c0 12 -1 251 -1 848
h-252v-64h160v-792c0 -102 -13 -150 -135 -150h-73v-70z" />
    <glyph glyph-name="uni01CC" unicode="&#x1cc;" horiz-adv-x="1476" 
d="M39 0h422v66h-162v587c117 63 231 101 303 101c112 0 182 -68 182 -182v-506h-160v-66h401v66h-151v505c0 160 -104 255 -252 255c-93 0 -212 -43 -323 -109v87h-258v-66h168v-672h-170v-66zM1279 1004c43 0 74 29 74 69c0 38 -31 67 -74 67c-41 0 -72 -29 -72 -67
c0 -40 31 -69 72 -69zM1048 -271h80c201 0 221 110 221 228c0 12 -1 251 -1 848h-252v-64h160v-792c0 -102 -13 -150 -135 -150h-73v-70z" />
    <glyph glyph-name="uni01CD" unicode="&#x1cd;" horiz-adv-x="1382" 
d="M652 1273h75l169 307h-67l-139 -249l-142 249h-68zM487 534l197 547h8l197 -547h-402zM78 0h395v66h-152l146 403h441l147 -403h-151v-66h401v66h-149l-378 1020h143v66h-457v-66h140l-376 -1020h-150v-66z" />
    <glyph glyph-name="uni01CE" unicode="&#x1ce;" horiz-adv-x="944" 
d="M422 926h75l169 307h-67l-139 -249l-142 249h-68zM390 41c-124 0 -194 82 -194 178c0 137 101 181 213 181c92 0 182 -18 270 -33v-226c-116 -70 -197 -100 -289 -100zM383 -22c99 0 192 32 301 101c0 0 12 -85 12 -79h197v66h-124v485c0 137 -82 275 -313 275
c-82 0 -199 -25 -303 -74l27 -63c85 39 190 69 279 69c131 0 220 -70 220 -223v-108c-91 16 -186 31 -274 31c-158 0 -295 -60 -295 -241c0 -140 108 -239 273 -239z" />
    <glyph glyph-name="uni01CF" unicode="&#x1cf;" horiz-adv-x="655" 
d="M290 1273h75l169 307h-67l-139 -249l-142 249h-68zM109 0h436v66h-170v1020h170v66h-436v-66h170v-1020h-170v-66z" />
    <glyph glyph-name="uni01D0" unicode="&#x1d0;" 
d="M107 0h422v66h-162v738h-257v-66h168v-672h-171v-66zM264 925h75l169 307h-67l-139 -249l-142 249h-68z" />
    <glyph glyph-name="uni01D1" unicode="&#x1d1;" horiz-adv-x="1454" 
d="M727 51c-345 0 -510 253 -510 521c0 261 168 529 510 529c338 0 510 -268 510 -529s-172 -521 -510 -521zM725 -22c404 0 613 294 613 594c0 299 -211 602 -611 602s-610 -302 -610 -601s207 -595 608 -595zM685 1273h75l169 307h-67l-139 -249l-142 249h-68z" />
    <glyph glyph-name="uni01D2" unicode="&#x1d2;" horiz-adv-x="982" 
d="M489 -22c255 0 435 177 435 429c0 245 -180 419 -434 419s-432 -174 -432 -420c0 -251 178 -428 431 -428zM489 49c-199 0 -340 148 -340 357c0 205 141 349 340 349c201 0 343 -144 343 -348c0 -210 -142 -358 -343 -358zM447 926h75l169 307h-67l-139 -249l-142 249
h-68z" />
    <glyph glyph-name="uni01D3" unicode="&#x1d3;" horiz-adv-x="1453" 
d="M722 -21c302 0 515 150 515 405v702h157v66h-395v-66h151v-705c0 -200 -169 -329 -426 -329c-242 0 -399 131 -399 330v704h152v66h-401v-66h152v-696c0 -241 178 -411 494 -411zM695 1273h75l169 307h-67l-139 -249l-142 249h-68z" />
    <glyph glyph-name="uni01D4" unicode="&#x1d4;" horiz-adv-x="1033" 
d="M436 -21c118 0 223 48 322 121l6 -100h233v65h-151v739h-238v-66h148v-570c-94 -70 -185 -118 -306 -118c-125 0 -178 83 -178 180v574h-240v-66h150v-515c0 -105 55 -244 254 -244zM449 925h75l169 307h-67l-139 -249l-142 249h-68z" />
    <glyph glyph-name="uni01E2" unicode="&#x1e2;" horiz-adv-x="2133" 
d="M1025 1276h395v58h-395v-58zM119 0h420v66h-145l205 364h459l46 -364h-160v-66h1020l-45 383h-77l39 -317h-679l-59 473h415l27 -176h57l-54 405h-57l22 -160h-414l-60 478h639l40 -317h77l-44 383h-1043v-66h135l-595 -1020h-169v-66zM633 493l337 593h13l72 -593h-422z
" />
    <glyph glyph-name="uni01E3" unicode="&#x1e3;" horiz-adv-x="1598" 
d="M640 928h395v58h-395v-58zM415 -22c110 0 250 14 385 128c76 -90 184 -127 313 -127c172 0 263 54 369 159l-33 57c-96 -99 -214 -147 -333 -147c-213 0 -314 118 -315 337h678c0 285 -145 441 -366 441c-162 0 -297 -80 -341 -229c-17 153 -107 229 -294 229
c-125 0 -244 -42 -322 -111l34 -57c69 59 175 100 286 100c154 0 236 -60 236 -227v-95c-20 3 -182 6 -200 6c-221 0 -389 -47 -389 -226c0 -166 125 -238 292 -238zM424 40c-138 0 -216 57 -216 178c0 138 123 165 306 165c16 0 183 -3 198 -4c2 -64 19 -158 51 -221
c-83 -81 -192 -118 -339 -118zM1395 443l-593 1c10 165 111 315 311 315c174 0 278 -121 282 -316z" />
    <glyph glyph-name="Gcaron" unicode="&#x1e6;" horiz-adv-x="1397" 
d="M717 -21c245 0 554 112 555 581h-344v-69h250c-6 -337 -262 -437 -458 -439c-313 0 -509 206 -509 533c0 317 196 516 507 516c196 0 360 -98 436 -274h69v326h-82v-181c-90 129 -247 202 -426 202c-365 0 -605 -227 -605 -589c0 -372 237 -606 607 -606zM672 1273h75
l169 307h-67l-139 -249l-142 249h-68z" />
    <glyph glyph-name="gcaron" unicode="&#x1e7;" horiz-adv-x="1029" 
d="M479 -379c234 0 389 110 389 362v755h136v66h-226v-88c-81 65 -205 108 -311 108c-232 0 -404 -161 -404 -414c0 -252 181 -417 420 -417c102 1 215 43 295 108v-131c0 -177 -102 -277 -299 -277c-78 0 -169 15 -275 46l-17 -70c103 -29 203 -48 292 -48zM778 652v-485
c-78 -64 -187 -106 -281 -106c-197 0 -342 134 -342 341c0 216 133 355 320 355c101 0 218 -42 303 -105zM453 925h75l169 307h-67l-139 -249l-142 249h-68z" />
    <glyph glyph-name="uni01E8" unicode="&#x1e8;" horiz-adv-x="1301" 
d="M800 0h426v66h-160l-586 519l556 501h164v66h-425v-66h148l-549 -490v490h170v66h-436v-66h170v-1020h-170v-66h436v66h-170v503l573 -503h-147v-66zM617 1273h75l169 307h-67l-139 -249l-142 249h-68z" />
    <glyph glyph-name="uni01E9" unicode="&#x1e9;" horiz-adv-x="993" 
d="M735 0h218v66h-174l-381 353l409 319h141v66h-399v-66h160l-410 -312v748h-234v-66h144v-1042h-150v-66h382v66h-142v345zM574 1107h75l169 307h-67l-139 -249l-142 249h-68z" />
    <glyph glyph-name="uni01EA" unicode="&#x1ea;" horiz-adv-x="1454" 
d="M727 51c-345 0 -510 253 -510 521c0 261 168 529 510 529c338 0 510 -268 510 -529s-172 -521 -510 -521zM725 -22c404 0 613 294 613 594c0 299 -211 602 -611 602s-610 -302 -610 -601s207 -595 608 -595zM813 -322c40 0 78 13 118 38v56c-31 -22 -62 -32 -94 -32
c-55 0 -95 33 -95 98c0 48 31 108 90 165h-56c-71 -67 -106 -134 -106 -191c0 -84 65 -134 143 -134z" />
    <glyph glyph-name="uni01EB" unicode="&#x1eb;" horiz-adv-x="982" 
d="M489 -22c255 0 435 177 435 429c0 245 -180 419 -434 419s-432 -174 -432 -420c0 -251 178 -428 431 -428zM489 49c-199 0 -340 148 -340 357c0 205 141 349 340 349c201 0 343 -144 343 -348c0 -210 -142 -358 -343 -358zM553 -322c40 0 78 13 118 38v56
c-31 -22 -62 -32 -94 -32c-55 0 -95 33 -95 98c0 48 31 108 90 165h-56c-71 -67 -106 -134 -106 -191c0 -84 65 -134 143 -134z" />
    <glyph glyph-name="uni01F0" unicode="&#x1f0;" horiz-adv-x="446" 
d="M17 -271h80c227 0 218 145 218 261v814h-262v-66h172v-769c0 -116 -4 -170 -135 -170h-73v-70zM207 926h75l169 307h-67l-139 -249l-142 249h-68z" />
    <glyph glyph-name="uni01F1" unicode="&#x1f1;" horiz-adv-x="2634" 
d="M776 1152h-667v-66h170v-1020h-170v-66h671c349 0 523 290 523 578c0 265 -166 574 -527 574zM375 1086h399c292 0 432 -266 432 -510c0 -257 -139 -510 -439 -510h-392v1020zM1556 0h947v376h-76v-310h-759l811 1021v65h-894v-359h76v293h704l-809 -1015v-71z" />
    <glyph glyph-name="uni01F2" unicode="&#x1f2;" horiz-adv-x="2350" 
d="M776 1152h-667v-66h170v-1020h-170v-66h671c349 0 523 290 523 578c0 265 -166 574 -527 574zM375 1086h399c292 0 432 -266 432 -510c0 -257 -139 -510 -439 -510h-392v1020zM1551 0h666v273h-74v-209h-488l549 665v76h-633v-249h75v185h461l-556 -670v-71z" />
    <glyph glyph-name="uni01F3" unicode="&#x1f3;" horiz-adv-x="1957" 
d="M764 0h225v66h-134v1108h-228v-66h137v-385c-84 62 -200 103 -305 103c-226 0 -398 -164 -398 -423c0 -257 183 -425 420 -425c97 0 205 39 283 101v-79zM764 658v-512c-76 -60 -180 -99 -269 -99c-198 0 -343 137 -343 348c0 220 134 362 320 362c97 0 209 -39 292 -99z
M1159 0h666v273h-74v-209h-488l549 665v76h-633v-249h75v185h461l-556 -670v-71z" />
    <glyph glyph-name="uni01F4" unicode="&#x1f4;" horiz-adv-x="1397" 
d="M717 -21c245 0 554 112 555 581h-344v-69h250c-6 -337 -262 -437 -458 -439c-313 0 -509 206 -509 533c0 317 196 516 507 516c196 0 360 -98 436 -274h69v326h-82v-181c-90 129 -247 202 -426 202c-365 0 -605 -227 -605 -589c0 -372 237 -606 607 -606zM787 1600
l-97 -268h54l140 268h-97z" />
    <glyph glyph-name="uni01F5" unicode="&#x1f5;" horiz-adv-x="1029" 
d="M479 -379c234 0 389 110 389 362v755h136v66h-226v-88c-81 65 -205 108 -311 108c-232 0 -404 -161 -404 -414c0 -252 181 -417 420 -417c102 1 215 43 295 108v-131c0 -177 -102 -277 -299 -277c-78 0 -169 15 -275 46l-17 -70c103 -29 203 -48 292 -48zM778 652v-485
c-78 -64 -187 -106 -281 -106c-197 0 -342 134 -342 341c0 216 133 355 320 355c101 0 218 -42 303 -105zM568 1252l-97 -268h54l140 268h-97z" />
    <glyph glyph-name="uni01F8" unicode="&#x1f8;" horiz-adv-x="1443" 
d="M115 0h388v66h-155v968l790 -1034h96v1086h139v66h-376v-66h157v-955l-783 1021h-256v-66h153v-1020h-153v-66zM689 1332h54l-97 268h-98z" />
    <glyph glyph-name="uni01F9" unicode="&#x1f9;" horiz-adv-x="1031" 
d="M39 0h422v66h-162v587c117 63 231 101 303 101c112 0 182 -68 182 -182v-506h-160v-66h401v66h-151v505c0 160 -104 255 -252 255c-93 0 -212 -43 -323 -109v87h-258v-66h168v-672h-170v-66zM562 984h54l-97 268h-98z" />
    <glyph glyph-name="Aringacute" unicode="&#x1fa;" horiz-adv-x="1382" 
d="M693 1231c84 0 133 53 133 130c0 75 -49 126 -134 126c-84 0 -133 -51 -134 -126c1 -77 50 -130 135 -130zM693 1273c-54 0 -86 35 -86 87c0 50 32 84 86 84c53 0 85 -34 85 -84c0 -52 -32 -87 -85 -87zM768 1828l-97 -268h54l140 268h-97zM487 534l197 547h8l197 -547
h-402zM78 0h395v66h-152l146 403h441l147 -403h-151v-66h401v66h-149l-378 1020h143v66h-457v-66h140l-376 -1020h-150v-66z" />
    <glyph glyph-name="aringacute" unicode="&#x1fb;" horiz-adv-x="944" 
d="M463 884c84 0 133 53 133 130c0 75 -49 126 -134 126c-84 0 -133 -51 -134 -126c1 -77 50 -130 135 -130zM463 926c-54 0 -86 35 -86 87c0 50 32 84 86 84c53 0 85 -34 85 -84c0 -52 -32 -87 -85 -87zM538 1481l-97 -268h54l140 268h-97zM390 41c-124 0 -194 82 -194 178
c0 137 101 181 213 181c92 0 182 -18 270 -33v-226c-116 -70 -197 -100 -289 -100zM383 -22c99 0 192 32 301 101c0 0 12 -85 12 -79h197v66h-124v485c0 137 -82 275 -313 275c-82 0 -199 -25 -303 -74l27 -63c85 39 190 69 279 69c131 0 220 -70 220 -223v-108
c-91 16 -186 31 -274 31c-158 0 -295 -60 -295 -241c0 -140 108 -239 273 -239z" />
    <glyph glyph-name="AEacute" unicode="&#x1fc;" horiz-adv-x="2133" 
d="M119 0h420v66h-145l205 364h459l46 -364h-160v-66h1020l-45 383h-77l39 -317h-679l-59 473h415l27 -176h57l-54 405h-57l22 -160h-414l-60 478h639l40 -317h77l-44 383h-1043v-66h135l-595 -1020h-169v-66zM633 493l337 593h13l72 -593h-422zM1302 1600l-97 -268h54
l140 268h-97z" />
    <glyph glyph-name="aeacute" unicode="&#x1fd;" horiz-adv-x="1598" 
d="M415 -22c110 0 250 14 385 128c76 -90 184 -127 313 -127c172 0 263 54 369 159l-33 57c-96 -99 -214 -147 -333 -147c-213 0 -314 118 -315 337h678c0 285 -145 441 -366 441c-162 0 -297 -80 -341 -229c-17 153 -107 229 -294 229c-125 0 -244 -42 -322 -111l34 -57
c69 59 175 100 286 100c154 0 236 -60 236 -227v-95c-20 3 -182 6 -200 6c-221 0 -389 -47 -389 -226c0 -166 125 -238 292 -238zM424 40c-138 0 -216 57 -216 178c0 138 123 165 306 165c16 0 183 -3 198 -4c2 -64 19 -158 51 -221c-83 -81 -192 -118 -339 -118zM1395 443
l-593 1c10 165 111 315 311 315c174 0 278 -121 282 -316zM916 1252l-97 -268h54l140 268h-97z" />
    <glyph glyph-name="Oslashacute" unicode="&#x1fe;" horiz-adv-x="1554" 
d="M805 1593l-97 -268h54l140 268h-97zM277 -73l972 1255l-46 34l-975 -1254zM733 44c-345 0 -510 253 -510 521c0 261 168 529 510 529c338 0 510 -268 510 -529s-172 -521 -510 -521zM731 -29c404 0 613 294 613 594c0 299 -211 602 -611 602s-610 -302 -610 -601
s207 -595 608 -595z" />
    <glyph glyph-name="oslashacute" unicode="&#x1ff;" horiz-adv-x="1008" 
d="M561 1253l-97 -268h54l140 268h-97zM214 -139l612 1035l-42 24l-612 -1034zM489 -22c255 0 435 177 435 429c0 245 -180 419 -434 419s-432 -174 -432 -420c0 -251 178 -428 431 -428zM489 49c-199 0 -340 148 -340 357c0 205 141 349 340 349c201 0 343 -144 343 -348
c0 -210 -142 -358 -343 -358z" />
    <glyph glyph-name="uni0200" unicode="&#x200;" horiz-adv-x="1382" 
d="M534 1332h53l-111 303h-97zM756 1332h53l-111 303h-97zM487 534l197 547h8l197 -547h-402zM78 0h395v66h-152l146 403h441l147 -403h-151v-66h401v66h-149l-378 1020h143v66h-457v-66h140l-376 -1020h-150v-66z" />
    <glyph glyph-name="uni0201" unicode="&#x201;" horiz-adv-x="944" 
d="M305 985h53l-111 303h-97zM527 985h53l-111 303h-97zM390 41c-124 0 -194 82 -194 178c0 137 101 181 213 181c92 0 182 -18 270 -33v-226c-116 -70 -197 -100 -289 -100zM383 -22c99 0 192 32 301 101c0 0 12 -85 12 -79h197v66h-124v485c0 137 -82 275 -313 275
c-82 0 -199 -25 -303 -74l27 -63c85 39 190 69 279 69c131 0 220 -70 220 -223v-108c-91 16 -186 31 -274 31c-158 0 -295 -60 -295 -241c0 -140 108 -239 273 -239z" />
    <glyph glyph-name="uni0202" unicode="&#x202;" horiz-adv-x="1382" 
d="M511 1277h68c17 64 53 97 111 97c56 0 94 -33 110 -97h68c-15 106 -78 166 -178 165c-97 1 -162 -59 -179 -165zM487 534l197 547h8l197 -547h-402zM78 0h395v66h-152l146 403h441l147 -403h-151v-66h401v66h-149l-378 1020h143v66h-457v-66h140l-376 -1020h-150v-66z
" />
    <glyph glyph-name="uni0203" unicode="&#x203;" horiz-adv-x="944" 
d="M281 929h68c17 64 53 97 111 97c56 0 94 -33 110 -97h68c-15 106 -78 166 -178 165c-97 1 -162 -59 -179 -165zM390 41c-124 0 -194 82 -194 178c0 137 101 181 213 181c92 0 182 -18 270 -33v-226c-116 -70 -197 -100 -289 -100zM383 -22c99 0 192 32 301 101
c0 0 12 -85 12 -79h197v66h-124v485c0 137 -82 275 -313 275c-82 0 -199 -25 -303 -74l27 -63c85 39 190 69 279 69c131 0 220 -70 220 -223v-108c-91 16 -186 31 -274 31c-158 0 -295 -60 -295 -241c0 -140 108 -239 273 -239z" />
    <glyph glyph-name="uni0204" unicode="&#x204;" horiz-adv-x="1211" 
d="M992 819h78v333h-962v-66h170v-1020h-170v-66h982v339h-78v-273h-638v490h401v-166h58v394h-59v-159h-400v461h618v-267zM500 1332h53l-111 303h-97zM722 1332h53l-111 303h-97z" />
    <glyph glyph-name="uni0205" unicode="&#x205;" horiz-adv-x="962" 
d="M151 441c10 193 150 318 320 318c152 0 287 -105 307 -318h-627zM489 -21c132 0 266 54 359 150l-31 61c-72 -80 -200 -142 -326 -142c-168 0 -330 118 -340 334h714c-5 311 -201 444 -394 444c-215 0 -413 -150 -413 -424c0 -262 200 -423 431 -423zM329 984h53
l-111 303h-97zM551 984h53l-111 303h-97z" />
    <glyph glyph-name="uni0206" unicode="&#x206;" horiz-adv-x="1211" 
d="M992 819h78v333h-962v-66h170v-1020h-170v-66h982v339h-78v-273h-638v490h401v-166h58v394h-59v-159h-400v461h618v-267zM477 1277h68c17 64 53 97 111 97c56 0 94 -33 110 -97h68c-15 106 -78 166 -178 165c-97 1 -162 -59 -179 -165z" />
    <glyph glyph-name="uni0207" unicode="&#x207;" horiz-adv-x="962" 
d="M151 441c10 193 150 318 320 318c152 0 287 -105 307 -318h-627zM489 -21c132 0 266 54 359 150l-31 61c-72 -80 -200 -142 -326 -142c-168 0 -330 118 -340 334h714c-5 311 -201 444 -394 444c-215 0 -413 -150 -413 -424c0 -262 200 -423 431 -423zM306 928h68
c17 64 53 97 111 97c56 0 94 -33 110 -97h68c-15 106 -78 166 -178 165c-97 1 -162 -59 -179 -165z" />
    <glyph glyph-name="uni0208" unicode="&#x208;" horiz-adv-x="655" 
d="M172 1332h53l-111 303h-97zM394 1332h53l-111 303h-97zM109 0h436v66h-170v1020h170v66h-436v-66h170v-1020h-170v-66z" />
    <glyph glyph-name="uni0209" unicode="&#x209;" 
d="M107 0h422v66h-162v738h-257v-66h168v-672h-171v-66zM147 984h53l-111 303h-97zM369 984h53l-111 303h-97z" />
    <glyph glyph-name="uni020A" unicode="&#x20a;" horiz-adv-x="655" 
d="M149 1277h68c17 64 53 97 111 97c56 0 94 -33 110 -97h68c-15 106 -78 166 -178 165c-97 1 -162 -59 -179 -165zM109 0h436v66h-170v1020h170v66h-436v-66h170v-1020h-170v-66z" />
    <glyph glyph-name="uni020B" unicode="&#x20b;" 
d="M107 0h422v66h-162v738h-257v-66h168v-672h-171v-66zM124 928h68c17 64 53 97 111 97c56 0 94 -33 110 -97h68c-15 106 -78 166 -178 165c-97 1 -162 -59 -179 -165z" />
    <glyph glyph-name="uni020C" unicode="&#x20c;" horiz-adv-x="1454" 
d="M727 51c-345 0 -510 253 -510 521c0 261 168 529 510 529c338 0 510 -268 510 -529s-172 -521 -510 -521zM725 -22c404 0 613 294 613 594c0 299 -211 602 -611 602s-610 -302 -610 -601s207 -595 608 -595zM568 1332h53l-111 303h-97zM790 1332h53l-111 303h-97z" />
    <glyph glyph-name="uni020D" unicode="&#x20d;" horiz-adv-x="982" 
d="M489 -22c255 0 435 177 435 429c0 245 -180 419 -434 419s-432 -174 -432 -420c0 -251 178 -428 431 -428zM489 49c-199 0 -340 148 -340 357c0 205 141 349 340 349c201 0 343 -144 343 -348c0 -210 -142 -358 -343 -358zM329 985h53l-111 303h-97zM551 985h53l-111 303
h-97z" />
    <glyph glyph-name="uni020E" unicode="&#x20e;" horiz-adv-x="1454" 
d="M727 51c-345 0 -510 253 -510 521c0 261 168 529 510 529c338 0 510 -268 510 -529s-172 -521 -510 -521zM725 -22c404 0 613 294 613 594c0 299 -211 602 -611 602s-610 -302 -610 -601s207 -595 608 -595zM545 1277h68c17 64 53 97 111 97c56 0 94 -33 110 -97h68
c-15 106 -78 166 -178 165c-97 1 -162 -59 -179 -165z" />
    <glyph glyph-name="uni020F" unicode="&#x20f;" horiz-adv-x="982" 
d="M489 -22c255 0 435 177 435 429c0 245 -180 419 -434 419s-432 -174 -432 -420c0 -251 178 -428 431 -428zM489 49c-199 0 -340 148 -340 357c0 205 141 349 340 349c201 0 343 -144 343 -348c0 -210 -142 -358 -343 -358zM306 929h68c17 64 53 97 111 97
c56 0 94 -33 110 -97h68c-15 106 -78 166 -178 165c-97 1 -162 -59 -179 -165z" />
    <glyph glyph-name="uni0210" unicode="&#x210;" horiz-adv-x="1283" 
d="M969 0h236v66h-169l-296 476c255 14 338 154 338 305c0 168 -112 305 -350 305h-620v-66h170v-1020h-170v-66h436v66h-170v1020h358c184 0 251 -120 251 -239c0 -111 -55 -245 -299 -245h-239v-67h199zM475 1332h53l-111 303h-97zM697 1332h53l-111 303h-97z" />
    <glyph glyph-name="uni0211" unicode="&#x211;" horiz-adv-x="780" 
d="M99 0h422v66h-162l1 387c0 184 95 292 202 292c53 0 92 -14 136 -40l21 76c-49 26 -98 40 -153 40c-81 0 -161 -45 -207 -171v154h-258v-66h168v-672h-170v-66zM328 985h53l-111 303h-97zM550 985h53l-111 303h-97z" />
    <glyph glyph-name="uni0212" unicode="&#x212;" horiz-adv-x="1283" 
d="M969 0h236v66h-169l-296 476c255 14 338 154 338 305c0 168 -112 305 -350 305h-620v-66h170v-1020h-170v-66h436v66h-170v1020h358c184 0 251 -120 251 -239c0 -111 -55 -245 -299 -245h-239v-67h199zM452 1277h68c17 64 53 97 111 97c56 0 94 -33 110 -97h68
c-15 106 -78 166 -178 165c-97 1 -162 -59 -179 -165z" />
    <glyph glyph-name="uni0213" unicode="&#x213;" horiz-adv-x="780" 
d="M99 0h422v66h-162l1 387c0 184 95 292 202 292c53 0 92 -14 136 -40l21 76c-49 26 -98 40 -153 40c-81 0 -161 -45 -207 -171v154h-258v-66h168v-672h-170v-66zM305 929h68c17 64 53 97 111 97c56 0 94 -33 110 -97h68c-15 106 -78 166 -178 165
c-97 1 -162 -59 -179 -165z" />
    <glyph glyph-name="uni0214" unicode="&#x214;" horiz-adv-x="1453" 
d="M722 -21c302 0 515 150 515 405v702h157v66h-395v-66h151v-705c0 -200 -169 -329 -426 -329c-242 0 -399 131 -399 330v704h152v66h-401v-66h152v-696c0 -241 178 -411 494 -411zM577 1332h53l-111 303h-97zM799 1332h53l-111 303h-97z" />
    <glyph glyph-name="uni0215" unicode="&#x215;" horiz-adv-x="1033" 
d="M436 -21c118 0 223 48 322 121l6 -100h233v65h-151v739h-238v-66h148v-570c-94 -70 -185 -118 -306 -118c-125 0 -178 83 -178 180v574h-240v-66h150v-515c0 -105 55 -244 254 -244zM331 984h53l-111 303h-97zM553 984h53l-111 303h-97z" />
    <glyph glyph-name="uni0216" unicode="&#x216;" horiz-adv-x="1453" 
d="M722 -21c302 0 515 150 515 405v702h157v66h-395v-66h151v-705c0 -200 -169 -329 -426 -329c-242 0 -399 131 -399 330v704h152v66h-401v-66h152v-696c0 -241 178 -411 494 -411zM554 1277h68c17 64 53 97 111 97c56 0 94 -33 110 -97h68c-15 106 -78 166 -178 165
c-97 1 -162 -59 -179 -165z" />
    <glyph glyph-name="uni0217" unicode="&#x217;" horiz-adv-x="1033" 
d="M436 -21c118 0 223 48 322 121l6 -100h233v65h-151v739h-238v-66h148v-570c-94 -70 -185 -118 -306 -118c-125 0 -178 83 -178 180v574h-240v-66h150v-515c0 -105 55 -244 254 -244zM308 928h68c17 64 53 97 111 97c56 0 94 -33 110 -97h68c-15 106 -78 166 -178 165
c-97 1 -162 -59 -179 -165z" />
    <glyph glyph-name="uni0218" unicode="&#x218;" horiz-adv-x="1112" 
d="M550 -433c112 -1 142 79 141 178v134h-130v-124h75c0 -82 -13 -141 -86 -148v-40zM625 -21c303 0 389 191 389 321c0 266 -190 297 -413 324c-195 23 -350 51 -350 236c0 137 92 243 309 243c170 0 288 -74 306 -156l-1 -108h82v315h-82v-103c-54 81 -204 123 -314 123
c-217 0 -388 -101 -388 -315c0 -255 208 -292 423 -314c209 -21 336 -58 336 -243c0 -129 -79 -252 -300 -252c-212 0 -334 67 -374 192v146h-82v-389h82v136c59 -110 198 -156 377 -156z" />
    <glyph glyph-name="uni0219" unicode="&#x219;" horiz-adv-x="905" 
d="M394 -433c112 -1 142 79 141 178v134h-130v-124h75c0 -82 -13 -141 -86 -148v-40zM488 -21c157 0 313 68 313 223c0 172 -116 203 -282 241l-124 28c-99 22 -166 56 -166 135c0 106 107 153 215 153c87 0 197 -40 240 -97l9 -123h69v267h-77v-70c-60 58 -162 90 -252 90
c-157 0 -292 -72 -292 -223c0 -128 88 -179 224 -209l127 -27c156 -33 224 -59 224 -172c0 -94 -100 -152 -236 -152c-110 0 -210 36 -270 110l-5 100h-68v-253h74v77c52 -56 160 -98 277 -98z" />
    <glyph glyph-name="uni021A" unicode="&#x21a;" horiz-adv-x="1146" 
d="M52 766h76v320h393v-1020h-170v-66h436v66h-170v1020h399v-320h79v386h-1043v-386zM490 -433c112 -1 142 79 141 178v134h-130v-124h75c0 -82 -13 -141 -86 -148v-40z" />
    <glyph glyph-name="uni021B" unicode="&#x21b;" horiz-adv-x="591" 
d="M431 0h107v66h-95c-119 0 -167 43 -167 165v507h228l1 66h-229v310l-89 -32v-278h-146v-66h145v-512c0 -167 96 -226 245 -226zM314 -426c112 -1 142 79 141 178v134h-130v-124h75c0 -82 -13 -141 -86 -148v-40z" />
    <glyph glyph-name="uni021E" unicode="&#x21e;" horiz-adv-x="1473" 
d="M108 0h436v66h-170v485h724v-485h-170v-66h436v66h-170v1020h170v66h-436v-66h170v-465h-724v465h170v66h-436v-66h170v-1020h-170v-66zM697 1273h75l169 307h-67l-139 -249l-142 249h-68z" />
    <glyph glyph-name="uni021F" unicode="&#x21f;" horiz-adv-x="1008" 
d="M33 0h381v66h-142v584c108 61 217 104 310 104c110 0 180 -68 180 -182v-506h-161v-66h402v66h-152v505c0 160 -104 255 -253 255c-110 0 -213 -44 -326 -112v460h-233v-66h143v-1042h-149v-66zM509 1150h75l169 307h-67l-139 -249l-142 249h-68z" />
    <glyph glyph-name="uni0226" unicode="&#x226;" horiz-adv-x="1382" 
d="M693 1351c43 0 74 29 74 69c0 38 -31 68 -74 68c-41 0 -72 -30 -72 -68c0 -40 31 -69 72 -69zM487 534l197 547h8l197 -547h-402zM78 0h395v66h-152l146 403h441l147 -403h-151v-66h401v66h-149l-378 1020h143v66h-457v-66h140l-376 -1020h-150v-66z" />
    <glyph glyph-name="uni0227" unicode="&#x227;" horiz-adv-x="944" 
d="M463 1004c43 0 74 29 74 69c0 38 -31 68 -74 68c-41 0 -72 -30 -72 -68c0 -40 31 -69 72 -69zM390 41c-124 0 -194 82 -194 178c0 137 101 181 213 181c92 0 182 -18 270 -33v-226c-116 -70 -197 -100 -289 -100zM383 -22c99 0 192 32 301 101c0 0 12 -85 12 -79h197v66
h-124v485c0 137 -82 275 -313 275c-82 0 -199 -25 -303 -74l27 -63c85 39 190 69 279 69c131 0 220 -70 220 -223v-108c-91 16 -186 31 -274 31c-158 0 -295 -60 -295 -241c0 -140 108 -239 273 -239z" />
    <glyph glyph-name="uni0228" unicode="&#x228;" horiz-adv-x="1211" 
d="M634 -311c67 0 124 27 124 97c0 51 -37 99 -135 103l36 117h-46l-59 -157c88 -2 119 -24 119 -54c0 -36 -29 -53 -76 -53c-27 0 -59 6 -94 17v-40c41 -19 88 -30 131 -30zM992 819h78v333h-962v-66h170v-1020h-170v-66h982v339h-78v-273h-638v490h401v-166h58v394h-59
v-159h-400v461h618v-267z" />
    <glyph glyph-name="uni0229" unicode="&#x229;" horiz-adv-x="962" 
d="M487 -311c67 0 124 27 124 97c0 51 -37 99 -135 103l36 117h-46l-59 -157c88 -2 119 -24 119 -54c0 -36 -29 -53 -76 -53c-27 0 -59 6 -94 17v-40c41 -19 88 -30 131 -30zM151 441c10 193 150 318 320 318c152 0 287 -105 307 -318h-627zM489 -21c132 0 266 54 359 150
l-31 61c-72 -80 -200 -142 -326 -142c-168 0 -330 118 -340 334h714c-5 311 -201 444 -394 444c-215 0 -413 -150 -413 -424c0 -262 200 -423 431 -423z" />
    <glyph glyph-name="uni022E" unicode="&#x22e;" horiz-adv-x="1454" 
d="M726 1351c43 0 74 29 74 69c0 38 -31 68 -74 68c-41 0 -72 -30 -72 -68c0 -40 31 -69 72 -69zM727 51c-345 0 -510 253 -510 521c0 261 168 529 510 529c338 0 510 -268 510 -529s-172 -521 -510 -521zM725 -22c404 0 613 294 613 594c0 299 -211 602 -611 602
s-610 -302 -610 -601s207 -595 608 -595z" />
    <glyph glyph-name="uni022F" unicode="&#x22f;" horiz-adv-x="982" 
d="M489 -22c255 0 435 177 435 429c0 245 -180 419 -434 419s-432 -174 -432 -420c0 -251 178 -428 431 -428zM489 49c-199 0 -340 148 -340 357c0 205 141 349 340 349c201 0 343 -144 343 -348c0 -210 -142 -358 -343 -358zM487 1004c43 0 74 29 74 69c0 38 -31 68 -74 68
c-41 0 -72 -30 -72 -68c0 -40 31 -69 72 -69z" />
    <glyph glyph-name="uni0232" unicode="&#x232;" horiz-adv-x="1272" 
d="M442 1276h395v58h-395v-58zM421 0h433v66h-169v408l410 612h154v66h-403v-66h156l-359 -541l-364 541h149v66h-409v-66h156l413 -612v-408h-167v-66z" />
    <glyph glyph-name="uni0233" unicode="&#x233;" horiz-adv-x="1068" 
d="M358 941h395v58h-395v-58zM226 -275h90c163 0 203 50 262 195l345 818h131v66h-382v-66h160l-262 -633l-280 633h136v66h-389v-66h161l309 -680h45l-56 -137c-42 -105 -71 -120 -186 -120h-84v-76z" />
    <glyph glyph-name="uni0237" unicode="&#x237;" horiz-adv-x="446" 
d="M17 -271h80c227 0 218 145 218 261v814h-262v-66h172v-769c0 -116 -4 -170 -135 -170h-73v-70z" />
    <glyph glyph-name="uni0259" unicode="&#x259;" horiz-adv-x="600" 
 />
    <glyph glyph-name="uni02BC" unicode="&#x2bc;" horiz-adv-x="600" 
d="M57 916c105 0 138 73 138 170v137h-131v-133h76c0 -102 -22 -126 -83 -136v-38z" />
    <glyph glyph-name="circumflex" unicode="&#x2c6;" horiz-adv-x="428" 
d="M68 925l144 263l143 -263h70l-172 313h-83l-173 -313h71z" />
    <glyph glyph-name="caron" unicode="&#x2c7;" horiz-adv-x="422" 
d="M170 925h75l169 307h-67l-139 -249l-142 249h-68z" />
    <glyph glyph-name="uni02C9" unicode="&#x2c9;" horiz-adv-x="600" 
d="M103 918h395v69h-395v-69z" />
    <glyph glyph-name="breve" unicode="&#x2d8;" horiz-adv-x="336" 
d="M170 928c96 0 157 57 172 160h-59c-16 -67 -55 -101 -113 -101c-60 0 -97 34 -114 101h-59c16 -103 79 -160 173 -160z" />
    <glyph glyph-name="dotaccent" unicode="&#x2d9;" horiz-adv-x="444" 
d="M226 1003c43 0 74 29 74 69c0 38 -31 68 -74 68c-41 0 -72 -30 -72 -68c0 -40 31 -69 72 -69z" />
    <glyph glyph-name="ring" unicode="&#x2da;" horiz-adv-x="372" 
d="M184 883c84 0 133 53 133 130c0 75 -49 126 -134 126c-84 0 -133 -51 -134 -126c1 -77 50 -130 135 -130zM184 925c-54 0 -86 35 -86 87c0 50 32 84 86 84c53 0 85 -34 85 -84c0 -52 -32 -87 -85 -87z" />
    <glyph glyph-name="ogonek" unicode="&#x2db;" horiz-adv-x="419" 
d="M255 -322c40 0 78 13 118 38v56c-31 -22 -62 -32 -94 -32c-55 0 -95 33 -95 98c0 48 31 108 90 165h-56c-71 -67 -106 -134 -106 -191c0 -84 65 -134 143 -134z" />
    <glyph glyph-name="tilde" unicode="&#x2dc;" horiz-adv-x="491" 
d="M371 931c77 -1 101 56 109 144h-39c-15 -66 -34 -78 -69 -78c-61 0 -159 82 -237 82c-67 0 -103 -50 -113 -144h40c14 61 29 78 63 78c65 0 155 -82 246 -82z" />
    <glyph glyph-name="hungarumlaut" unicode="&#x2dd;" horiz-adv-x="476" 
d="M396 1287l-111 -303h54l154 303h-97zM174 1287l-111 -303h54l154 303h-97z" />
    <glyph glyph-name="uni0307" unicode="&#x307;" horiz-adv-x="400" 
d="M199 963c49 0 74 35 74 68c0 36 -26 69 -74 69c-47 0 -72 -33 -73 -69c0 -33 26 -68 73 -68z" />
    <glyph glyph-name="uni030F" unicode="&#x30f;" horiz-adv-x="653" 
d="M202 984h53l-111 303h-97zM424 984h53l-111 303h-97z" />
    <glyph glyph-name="uni0311" unicode="&#x311;" horiz-adv-x="849" 
d="M247 942h68c17 64 53 97 111 97c56 0 94 -33 110 -97h68c-15 106 -78 166 -178 165c-97 1 -162 -59 -179 -165z" />
    <glyph glyph-name="uni0312" unicode="&#x312;" horiz-adv-x="600" 
d="M330 923v133h-76c0 102 22 126 83 136v38c-105 0 -138 -72 -138 -169l-1 -138h132z" />
    <glyph glyph-name="uni0326" unicode="&#x326;" horiz-adv-x="473" 
d="M192 -433c112 -1 142 79 141 178v134h-130v-124h75c0 -82 -13 -141 -86 -148v-40z" />
    <glyph glyph-name="uni0358" unicode="&#x358;" horiz-adv-x="520" 
d="M226 1003c43 0 74 29 74 69c0 38 -31 68 -74 68c-41 0 -72 -30 -72 -68c0 -40 31 -69 72 -69z" />
    <glyph glyph-name="uni0394" unicode="&#x394;" horiz-adv-x="1167" 
d="M84 0h999v43l-469 1109h-87l-443 -1109v-43zM171 67l390 996l416 -996h-806z" />
    <glyph glyph-name="Sigma" unicode="&#x3a3;" horiz-adv-x="878" 
d="M106 0h736v72h-613l419 497l-404 513h564v70h-685v-49l410 -534l-427 -517v-52z" />
    <glyph glyph-name="uni03A9" unicode="&#x3a9;" horiz-adv-x="1426" 
d="M164 0h411v67c-222 125 -328 355 -328 562c0 248 156 471 466 471c309 0 466 -224 466 -471c0 -207 -106 -437 -328 -562v-67h411v66h-310c219 130 323 353 323 560c0 284 -197 548 -562 548c-364 0 -562 -265 -562 -548c0 -207 105 -430 324 -560h-311v-66z" />
    <glyph glyph-name="uni03BC" unicode="&#x3bc;" horiz-adv-x="1033" 
d="M182 -298h90v687h-90v-687zM436 -21c118 0 223 48 322 121l6 -100h233v65h-151v739h-238v-66h148v-570c-94 -70 -185 -118 -306 -118c-125 0 -178 83 -178 180v574h-240v-66h150v-515c0 -105 55 -244 254 -244z" />
    <glyph glyph-name="pi" unicode="&#x3c0;" horiz-adv-x="1134" 
d="M900 -12c35 0 79 10 117 27v51c-31 -9 -58 -14 -83 -14c-88 0 -136 62 -136 189c0 99 37 310 69 478h175v85h-720c-124 0 -164 -98 -164 -209h51c3 90 38 124 93 124h90l-69 -465c-22 -143 -62 -208 -192 -208v-49c212 0 260 67 277 242l50 480h352
c-44 -154 -97 -371 -97 -494c0 -158 62 -237 187 -237z" />
    <glyph glyph-name="uni1E02" unicode="&#x1e02;" horiz-adv-x="1260" 
d="M564 1351c43 0 74 29 74 69c0 38 -31 68 -74 68c-41 0 -72 -30 -72 -68c0 -40 31 -69 72 -69zM734 1152h-626v-66h170v-1020h-170v-66h703c232 0 346 141 346 319c0 133 -63 258 -241 292c108 26 174 124 174 259c0 187 -125 282 -356 282zM713 1086
c189 0 284 -64 284 -219c0 -133 -65 -227 -228 -227h-395v446h339zM374 572h403c196 0 283 -108 283 -250c0 -156 -92 -256 -262 -256h-424v506z" />
    <glyph glyph-name="uni1E03" unicode="&#x1e03;" horiz-adv-x="1051" 
d="M618 1003c43 0 74 29 74 69c0 38 -31 68 -74 68c-41 0 -72 -30 -72 -68c0 -40 31 -69 72 -69zM60 0h234v85c74 -68 173 -107 275 -107c246 0 424 163 424 435c0 259 -166 413 -404 413c-97 0 -207 -39 -295 -104v452h-228v-66h137v-1042h-143v-66zM294 155v497
c86 66 190 105 277 105c198 0 330 -135 330 -356c0 -223 -138 -355 -343 -355c-92 0 -189 40 -264 109z" />
    <glyph glyph-name="uni1E0A" unicode="&#x1e0a;" horiz-adv-x="1420" 
d="M632 1351c43 0 74 29 74 69c0 38 -31 68 -74 68c-41 0 -72 -30 -72 -68c0 -40 31 -69 72 -69zM776 1152h-667v-66h170v-1020h-170v-66h671c349 0 523 290 523 578c0 265 -166 574 -527 574zM375 1086h399c292 0 432 -266 432 -510c0 -257 -139 -510 -439 -510h-392v1020z
" />
    <glyph glyph-name="uni1E0B" unicode="&#x1e0b;" horiz-adv-x="1028" 
d="M432 1003c43 0 74 29 74 69c0 38 -31 68 -74 68c-41 0 -72 -30 -72 -68c0 -40 31 -69 72 -69zM764 0h225v66h-134v1108h-228v-66h137v-385c-84 62 -200 103 -305 103c-226 0 -398 -164 -398 -423c0 -257 183 -425 420 -425c97 0 205 39 283 101v-79zM764 658v-512
c-76 -60 -180 -99 -269 -99c-198 0 -343 137 -343 348c0 220 134 362 320 362c97 0 209 -39 292 -99z" />
    <glyph glyph-name="uni1E1E" unicode="&#x1e1e;" horiz-adv-x="1149" 
d="M995 799h76v353h-963v-66h170v-1020h-170v-66h436v66h-170v495h436v-164h57v379h-57v-147h-436v457h621v-287zM634 1351c43 0 74 29 74 69c0 38 -31 68 -74 68c-41 0 -72 -30 -72 -68c0 -40 31 -69 72 -69z" />
    <glyph glyph-name="uni1E1F" unicode="&#x1e1f;" horiz-adv-x="684" 
d="M101 0h445v66h-198v672h226v66h-226v206c0 85 42 127 105 127c65 0 99 -39 108 -110l69 22c-8 107 -83 155 -180 155c-126 0 -195 -74 -195 -193v-207h-156v-66h156v-672h-154v-66zM384 1296c43 0 74 29 74 69c0 38 -31 68 -74 68c-41 0 -72 -30 -72 -68
c0 -40 31 -69 72 -69z" />
    <glyph glyph-name="uni1E40" unicode="&#x1e40;" horiz-adv-x="1641" 
d="M814 1351c43 0 74 29 74 69c0 38 -31 68 -74 68c-41 0 -72 -30 -72 -68c0 -40 31 -69 72 -69zM120 0h385v66h-153v974l460 -954h26l442 954v-974h-155v-66h402v66h-154v1020h154v66h-284l-410 -896l-434 896h-279v-66h154v-1020h-154v-66z" />
    <glyph glyph-name="uni1E41" unicode="&#x1e41;" horiz-adv-x="1589" 
d="M825 1003c43 0 74 29 74 69c0 38 -31 68 -74 68c-41 0 -72 -30 -72 -68c0 -40 31 -69 72 -69zM39 0h422v66h-162v593c113 60 221 95 291 95c113 0 183 -68 183 -182v-506h-161v-66h401v66h-151v505c0 29 -4 55 -11 79c101 66 212 104 309 104c112 0 182 -68 182 -182
v-506h-160v-66h401v66h-151v505c0 160 -104 255 -252 255c-128 0 -230 -48 -349 -123c-40 80 -119 123 -221 123c-90 0 -203 -40 -311 -103v81h-258v-66h168v-672h-170v-66z" />
    <glyph glyph-name="uni1E56" unicode="&#x1e56;" horiz-adv-x="1194" 
d="M644 1351c43 0 74 29 74 69c0 38 -31 68 -74 68c-41 0 -72 -30 -72 -68c0 -40 31 -69 72 -69zM108 0h436v66h-170v1020h343c166 0 262 -90 262 -248c0 -179 -98 -282 -270 -282h-244l-1 -66h247c235 0 366 128 366 351c0 199 -132 311 -368 311h-601v-66h170v-1020h-170
v-66z" />
    <glyph glyph-name="uni1E57" unicode="&#x1e57;" horiz-adv-x="1042" 
d="M566 1004c43 0 74 29 74 69c0 38 -31 68 -74 68c-41 0 -72 -30 -72 -68c0 -40 31 -69 72 -69zM559 -22c246 0 423 163 423 435c0 259 -165 413 -403 413c-101 0 -210 -40 -296 -106l-1 84h-217v-66h131v-989h-142v-66h376v66h-144v334c69 -63 171 -105 273 -105zM286 654
c86 66 194 103 275 103c198 0 330 -135 330 -356c0 -223 -138 -355 -344 -355c-90 0 -187 40 -261 107v501z" />
    <glyph glyph-name="uni1E60" unicode="&#x1e60;" horiz-adv-x="1112" 
d="M574 1351c43 0 74 29 74 69c0 38 -31 68 -74 68c-41 0 -72 -30 -72 -68c0 -40 31 -69 72 -69zM625 -21c303 0 389 191 389 321c0 266 -190 297 -413 324c-195 23 -350 51 -350 236c0 137 92 243 309 243c170 0 288 -74 306 -156l-1 -108h82v315h-82v-103
c-54 81 -204 123 -314 123c-217 0 -388 -101 -388 -315c0 -255 208 -292 423 -314c209 -21 336 -58 336 -243c0 -129 -79 -252 -300 -252c-212 0 -334 67 -374 192v146h-82v-389h82v136c59 -110 198 -156 377 -156z" />
    <glyph glyph-name="uni1E61" unicode="&#x1e61;" horiz-adv-x="905" 
d="M449 1004c43 0 74 29 74 69c0 38 -31 68 -74 68c-41 0 -72 -30 -72 -68c0 -40 31 -69 72 -69zM488 -21c157 0 313 68 313 223c0 172 -116 203 -282 241l-124 28c-99 22 -166 56 -166 135c0 106 107 153 215 153c87 0 197 -40 240 -97l9 -123h69v267h-77v-70
c-60 58 -162 90 -252 90c-157 0 -292 -72 -292 -223c0 -128 88 -179 224 -209l127 -27c156 -33 224 -59 224 -172c0 -94 -100 -152 -236 -152c-110 0 -210 36 -270 110l-5 100h-68v-253h74v77c52 -56 160 -98 277 -98z" />
    <glyph glyph-name="uni1E6A" unicode="&#x1e6a;" horiz-adv-x="1146" 
d="M568 1351c43 0 74 29 74 69c0 38 -31 68 -74 68c-41 0 -72 -30 -72 -68c0 -40 31 -69 72 -69zM52 766h76v320h393v-1020h-170v-66h436v66h-170v1020h399v-320h79v386h-1043v-386z" />
    <glyph glyph-name="uni1E6B" unicode="&#x1e6b;" horiz-adv-x="591" 
d="M234 1222c43 0 74 29 74 69c0 38 -31 68 -74 68c-41 0 -72 -30 -72 -68c0 -40 31 -69 72 -69zM431 0h107v66h-95c-119 0 -167 43 -167 165v507h228l1 66h-229v310l-89 -32v-278h-146v-66h145v-512c0 -167 96 -226 245 -226z" />
    <glyph glyph-name="Wgrave" unicode="&#x1e80;" horiz-adv-x="1931" 
d="M943 1332h54l-97 268h-98zM563 0h92l313 947l312 -947h91l351 1086h145v66h-385v-66h153l-306 -963l-321 984h-72l-323 -984l-312 963h157v66h-394v-66h140z" />
    <glyph glyph-name="wgrave" unicode="&#x1e81;" horiz-adv-x="1527" 
d="M419 0h99l243 662l246 -662h96l256 739h127v66h-342v-66h130l-219 -659l-245 659h138v66h-371v-66h136l-240 -659l-232 659h140v66h-353v-66h123zM733 984h54l-97 268h-98z" />
    <glyph glyph-name="Wacute" unicode="&#x1e82;" horiz-adv-x="1931" 
d="M563 0h92l313 947l312 -947h91l351 1086h145v66h-385v-66h153l-306 -963l-321 984h-72l-323 -984l-312 963h157v66h-394v-66h140zM1049 1600l-97 -268h54l140 268h-97z" />
    <glyph glyph-name="wacute" unicode="&#x1e83;" horiz-adv-x="1527" 
d="M419 0h99l243 662l246 -662h96l256 739h127v66h-342v-66h130l-219 -659l-245 659h138v66h-371v-66h136l-240 -659l-232 659h140v66h-353v-66h123zM839 1252l-97 -268h54l140 268h-97z" />
    <glyph glyph-name="Wdieresis" unicode="&#x1e84;" horiz-adv-x="1931" 
d="M563 0h92l313 947l312 -947h91l351 1086h145v66h-385v-66h153l-306 -963l-321 984h-72l-323 -984l-312 963h157v66h-394v-66h140zM793 1290c38 0 61 23 61 59s-24 58 -61 58s-61 -22 -61 -58s24 -59 61 -59zM1139 1290c38 0 61 22 62 58c0 36 -24 59 -62 59
c-37 0 -60 -23 -60 -59s23 -58 60 -58z" />
    <glyph glyph-name="wdieresis" unicode="&#x1e85;" horiz-adv-x="1527" 
d="M419 0h99l243 662l246 -662h96l256 739h127v66h-342v-66h130l-219 -659l-245 659h138v66h-371v-66h136l-240 -659l-232 659h140v66h-353v-66h123zM583 942c38 0 61 23 61 59s-24 58 -61 58s-61 -22 -61 -58s24 -59 61 -59zM929 942c38 0 61 22 62 58c0 36 -24 59 -62 59
c-37 0 -60 -23 -60 -59s23 -58 60 -58z" />
    <glyph glyph-name="uni1EBC" unicode="&#x1ebc;" horiz-adv-x="1211" 
d="M778 1290c77 -1 101 56 109 144h-39c-15 -66 -34 -78 -69 -78c-61 0 -159 82 -237 82c-67 0 -103 -50 -113 -144h40c14 61 29 78 63 78c65 0 155 -82 246 -82zM992 819h78v333h-962v-66h170v-1020h-170v-66h982v339h-78v-273h-638v490h401v-166h58v394h-59v-159h-400v461
h618v-267z" />
    <glyph glyph-name="uni1EBD" unicode="&#x1ebd;" horiz-adv-x="962" 
d="M606 942c77 -1 101 56 109 144h-39c-15 -66 -34 -78 -69 -78c-61 0 -159 82 -237 82c-67 0 -103 -50 -113 -144h40c14 61 29 78 63 78c65 0 155 -82 246 -82zM151 441c10 193 150 318 320 318c152 0 287 -105 307 -318h-627zM489 -21c132 0 266 54 359 150l-31 61
c-72 -80 -200 -142 -326 -142c-168 0 -330 118 -340 334h714c-5 311 -201 444 -394 444c-215 0 -413 -150 -413 -424c0 -262 200 -423 431 -423z" />
    <glyph glyph-name="Ygrave" unicode="&#x1ef2;" horiz-adv-x="1272" 
d="M613 1332h54l-97 268h-98zM421 0h433v66h-169v408l410 612h154v66h-403v-66h156l-359 -541l-364 541h149v66h-409v-66h156l413 -612v-408h-167v-66z" />
    <glyph glyph-name="ygrave" unicode="&#x1ef3;" horiz-adv-x="1068" 
d="M528 984h54l-97 268h-98zM226 -275h90c163 0 203 50 262 195l345 818h131v66h-382v-66h160l-262 -633l-280 633h136v66h-389v-66h161l309 -680h45l-56 -137c-42 -105 -71 -120 -186 -120h-84v-76z" />
    <glyph glyph-name="uni1EF8" unicode="&#x1ef8;" horiz-adv-x="1272" 
d="M764 1290c77 -1 101 56 109 144h-39c-15 -66 -34 -78 -69 -78c-61 0 -159 82 -237 82c-67 0 -103 -50 -113 -144h40c14 61 29 78 63 78c65 0 155 -82 246 -82zM421 0h433v66h-169v408l410 612h154v66h-403v-66h156l-359 -541l-364 541h149v66h-409v-66h156l413 -612v-408
h-167v-66z" />
    <glyph glyph-name="uni1EF9" unicode="&#x1ef9;" horiz-adv-x="1068" 
d="M679 942c77 -1 101 56 109 144h-39c-15 -66 -34 -78 -69 -78c-61 0 -159 82 -237 82c-67 0 -103 -50 -113 -144h40c14 61 29 78 63 78c65 0 155 -82 246 -82zM226 -275h90c163 0 203 50 262 195l345 818h131v66h-382v-66h160l-262 -633l-280 633h136v66h-389v-66h161
l309 -680h45l-56 -137c-42 -105 -71 -120 -186 -120h-84v-76z" />
    <glyph glyph-name="endash" unicode="&#x2013;" horiz-adv-x="719" 
d="M0 447h719v63h-719v-63z" />
    <glyph glyph-name="emdash" unicode="&#x2014;" horiz-adv-x="1103" 
d="M0 453h1103v64h-1103v-64z" />
    <glyph glyph-name="uni2015" unicode="&#x2015;" horiz-adv-x="1116" 
d="M0 453h1116v64h-1116v-64z" />
    <glyph glyph-name="quoteleft" unicode="&#x2018;" horiz-adv-x="433" 
d="M134 973h124v124h-57c0 81 5 106 68 128v47c-103 -1 -135 -78 -135 -174v-125z" />
    <glyph glyph-name="quoteright" unicode="&#x2019;" horiz-adv-x="440" 
d="M174 951c103 2 135 80 135 175v125h-124v-123h57c-1 -81 -4 -108 -68 -128v-49z" />
    <glyph glyph-name="quotesinglbase" unicode="&#x201a;" horiz-adv-x="435" 
d="M178 -183c103 1 134 79 133 175v124h-123v-124h58c-1 -81 -6 -107 -68 -127v-48z" />
    <glyph glyph-name="quotedblleft" unicode="&#x201c;" horiz-adv-x="703" 
d="M169 973h124v124h-57c0 81 5 106 68 128v47c-103 -1 -135 -78 -135 -174v-125zM389 973h123v124h-56c0 81 5 106 68 128v47c-103 -1 -135 -78 -135 -174v-125z" />
    <glyph glyph-name="quotedblright" unicode="&#x201d;" horiz-adv-x="705" 
d="M186 951c102 2 134 80 133 175v125h-123v-123h57c-1 -81 -5 -108 -67 -128v-49zM403 951c103 2 135 80 135 175v125h-124v-123h57c-1 -81 -5 -108 -68 -128v-49z" />
    <glyph glyph-name="quotedblbase" unicode="&#x201e;" horiz-adv-x="726" 
d="M185 -183c102 1 133 79 133 175v124h-123v-124h58c-1 -81 -5 -107 -68 -127v-48zM428 -183c101 1 133 79 133 175v124h-124v-124h57c-1 -81 -4 -107 -66 -127v-48z" />
    <glyph glyph-name="dagger" unicode="&#x2020;" horiz-adv-x="505" 
d="M231 -2h42c0 236 31 391 28 540c0 91 -8 177 -28 280l216 -23v87l-216 -16l36 255h-112l34 -255l-218 16v-87l218 23c-19 -105 -27 -191 -27 -283c-3 -148 27 -299 27 -537z" />
    <glyph glyph-name="daggerdbl" unicode="&#x2021;" 
d="M228 -56h122l-37 283l238 -22v97l-235 -28c7 42 9 199 9 300c0 103 -2 265 -9 309l235 -28v98l-238 -22l37 282h-122l37 -282l-241 22v-98l238 28c-9 -43 -10 -202 -10 -304c0 -101 1 -262 10 -305l-238 28v-97l241 22z" />
    <glyph glyph-name="bullet" unicode="&#x2022;" horiz-adv-x="705" 
d="M353 441c133 0 240 103 240 231c0 130 -107 230 -240 230c-135 0 -239 -101 -239 -230c0 -127 104 -231 239 -231z" />
    <glyph glyph-name="ellipsis" unicode="&#x2026;" horiz-adv-x="1430" 
d="M817 0h124v130h-124v-130zM800 0h124v130h-124v-130zM334 0h124v130h-124v-130z" />
    <glyph glyph-name="perthousand" unicode="&#x2030;" horiz-adv-x="2333" 
d="M1952 -22c170 0 291 117 291 280c0 160 -121 276 -291 276c-167 0 -288 -116 -288 -276c0 -163 121 -280 288 -280zM1952 37c-127 0 -218 93 -218 221c0 127 91 219 218 219c129 0 221 -92 221 -219c0 -128 -92 -221 -221 -221zM400 678c-128 0 -219 93 -219 221
c0 127 91 219 219 219s220 -92 220 -219c0 -128 -92 -221 -220 -221zM400 619c169 0 290 117 290 280c0 160 -121 276 -290 276c-168 0 -289 -116 -289 -276c0 -163 121 -280 289 -280zM334 -45l1023 1237l-44 36l-1028 -1231zM1241 37c-127 0 -218 93 -218 221
c0 127 91 219 218 219c129 0 221 -92 221 -219c0 -128 -92 -221 -221 -221zM1241 -22c170 0 291 117 291 280c0 160 -121 276 -291 276c-167 0 -288 -116 -288 -276c0 -163 121 -280 288 -280z" />
    <glyph glyph-name="guilsinglleft" unicode="&#x2039;" horiz-adv-x="469" 
d="M291 259h64l-212 387l212 384h-64l-278 -384z" />
    <glyph glyph-name="guilsinglright" unicode="&#x203a;" horiz-adv-x="469" 
d="M115 259h63l279 387l-279 384h-63l211 -384z" />
    <glyph glyph-name="fraction" unicode="&#x2044;" horiz-adv-x="448" 
d="M-63 -33h77l486 1311h-72z" />
    <glyph glyph-name="uni2074" unicode="&#x2074;" horiz-adv-x="795" 
d="M334 544h300v54h-117v179h176v54h-176v498h-72l-366 -496l13 -56h360v-179h-118v-54zM153 831l299 415v-415h-299z" />
    <glyph glyph-name="Euro" unicode="&#x20ac;" horiz-adv-x="1388" 
d="M-25 430h627l30 60h-627zM-25 635h627l30 60h-627zM710 -22c228 1 420 78 533 296l-67 39c-99 -197 -283 -262 -461 -262c-259 0 -505 183 -505 529c0 277 186 519 505 519c228 0 355 -90 452 -288l67 12v330h-79v-210c-89 142 -215 230 -444 230
c-360 0 -599 -259 -599 -593c0 -397 292 -601 598 -602z" />
    <glyph glyph-name="uni2113" unicode="&#x2113;" horiz-adv-x="593" 
d="M427 -11l13 61c-157 0 -206 20 -174 229l148 936h-263l-6 -68h177l-144 -885c-34 -211 25 -275 249 -273z" />
    <glyph glyph-name="trademark" unicode="&#x2122;" horiz-adv-x="1656" 
d="M799 555h207v50h-77v427l214 -439h15l204 437v-425h-75v-50h210v50h-74v496h74v51h-140l-206 -457l-214 457h-138v-51h75v-496h-75v-50zM290 555h220v49h-79v494h179v-158h56v212h-528v-212h56v158h175v-494h-79v-49z" />
    <glyph glyph-name="Omega" unicode="&#x2126;" horiz-adv-x="1426" 
d="M164 0h411v67c-222 125 -328 355 -328 562c0 248 156 471 466 471c309 0 466 -224 466 -471c0 -207 -106 -437 -328 -562v-67h411v66h-310c219 130 323 353 323 560c0 284 -197 548 -562 548c-364 0 -562 -265 -562 -548c0 -207 105 -430 324 -560h-311v-66z" />
    <glyph glyph-name="estimated" unicode="&#x212e;" horiz-adv-x="756" 
d="M543 -16c144 0 265 61 357 148l-27 32c-82 -80 -192 -132 -316 -131c-184 2 -314 149 -324 362h665c0 256 -147 426 -376 426c-244 0 -408 -168 -408 -413c0 -256 188 -424 429 -424zM234 439c7 210 133 350 300 350c156 0 288 -140 297 -350h-597z" />
    <glyph glyph-name="partialdiff" unicode="&#x2202;" horiz-adv-x="1014" 
d="M401 -21c341 0 456 382 456 675c0 326 -120 532 -361 532c-147 0 -239 -65 -239 -155c0 -49 28 -71 79 -71c0 112 81 170 189 170c170 0 288 -194 280 -578l13 6c-19 75 -107 156 -257 156c-309 0 -430 -290 -430 -466c0 -141 68 -269 270 -269zM435 34
c-148 0 -199 97 -199 210c0 143 88 416 342 416c120 0 196 -54 219 -146c-27 -239 -156 -480 -362 -480z" />
    <glyph glyph-name="emptyset" unicode="&#x2205;" horiz-adv-x="1348" 
d="M233 -49l113 133c91 -67 205 -106 327 -106c303 0 550 245 550 547c0 155 -65 295 -169 394l120 141l-38 36l-121 -143c-94 75 -213 120 -342 120c-302 0 -548 -238 -548 -548c0 -166 70 -310 181 -409l-110 -130zM345 162c-98 88 -159 217 -159 363
c0 273 217 490 487 490c115 0 221 -40 304 -107zM673 36c-108 0 -208 34 -289 93l632 744c90 -89 146 -213 146 -348c0 -267 -218 -489 -489 -489z" />
    <glyph glyph-name="Delta" unicode="&#x2206;" horiz-adv-x="823" 
d="M66 0h707v67l-313 976h-79l-315 -978v-65zM129 72c0 0 268 852 274 876c5 -24 272 -876 272 -876h-546z" />
    <glyph glyph-name="product" unicode="&#x220f;" horiz-adv-x="1357" 
d="M117 0h395v68h-150v1018h633v-1018h-150v-68h394v68h-149v1018h149v66h-1122v-66h150v-1018h-150v-68z" />
    <glyph glyph-name="summation" unicode="&#x2211;" horiz-adv-x="1243" 
d="M122 0h965v360h-78v-294h-660l387 511v42l-366 467h621v-288h76v354h-945v-66h154l387 -498l-393 -522h-148v-66z" />
    <glyph glyph-name="minus" unicode="&#x2212;" horiz-adv-x="917" 
d="M99 528h720v75h-720v-75z" />
    <glyph glyph-name="uni2215" unicode="&#x2215;" horiz-adv-x="600" 
d="M-21 -18l71 -10l387 1213l-67 11z" />
    <glyph glyph-name="uni2219" unicode="&#x2219;" horiz-adv-x="600" 
d="M275 863c43 0 74 29 74 69c0 38 -31 68 -74 68c-41 0 -72 -30 -72 -68c0 -40 31 -69 72 -69z" />
    <glyph glyph-name="radical" unicode="&#x221a;" horiz-adv-x="1134" 
d="M491 -14h61l456 1377h-65l-414 -1252l-231 531h-258v-61h183z" />
    <glyph glyph-name="infinity" unicode="&#x221e;" horiz-adv-x="1351" 
d="M951 255c132 0 259 112 259 300c0 197 -124 301 -258 301c-117 0 -208 -70 -275 -196c-73 144 -186 200 -273 200c-163 0 -264 -139 -264 -300c0 -169 90 -300 264 -300c98 0 196 59 271 200c77 -153 175 -205 276 -205zM399 324c-120 0 -181 104 -181 235
c0 114 59 237 179 237c99 0 178 -84 243 -236c-75 -164 -152 -236 -241 -236zM952 320c-103 0 -170 69 -243 235c73 157 145 236 242 236c109 0 181 -103 181 -234c0 -141 -73 -237 -180 -237z" />
    <glyph glyph-name="integral" unicode="&#x222b;" horiz-adv-x="706" 
d="M101 -163c144 0 186 103 204 222l154 940c19 127 64 164 123 162c49 -3 71 -44 71 -111c61 0 79 33 82 63c2 55 -59 91 -137 93c-137 3 -204 -82 -224 -207l-155 -954c-17 -115 -44 -162 -102 -162c-49 0 -73 39 -72 112c-62 0 -80 -32 -82 -61c-3 -56 56 -97 138 -97z
" />
    <glyph glyph-name="approxequal" unicode="&#x2248;" horiz-adv-x="794" 
d="M711 796c-57 -39 -107 -66 -159 -66c-39 0 -77 11 -142 38c-80 32 -128 47 -185 47s-108 -19 -156 -60v-86c46 40 97 63 144 63c48 0 91 -15 159 -41c76 -32 120 -43 171 -43c60 0 113 20 168 64v84zM711 553c-57 -39 -107 -65 -159 -65c-39 0 -77 11 -142 37
c-80 32 -128 47 -185 47s-108 -18 -156 -60v-85c46 39 97 63 144 63c48 0 91 -15 159 -42c76 -31 120 -43 171 -43c60 0 113 21 168 64v84z" />
    <glyph glyph-name="notequal" unicode="&#x2260;" horiz-adv-x="899" 
d="M321 62h66l50 190h374v61h-358l60 225h288v65h-271l51 189h-63l-52 -189h-374v-65h356l-60 -225h-286v-61h269z" />
    <glyph glyph-name="lessequal" unicode="&#x2264;" horiz-adv-x="725" 
d="M697 191v77l-575 306l575 309v78l-691 -365v-42zM6 0h691v67h-691v-67z" />
    <glyph glyph-name="greaterequal" unicode="&#x2265;" horiz-adv-x="727" 
d="M38 191l691 363v42l-691 365v-78l575 -309l-575 -306v-77zM38 0h691v67h-691v-67z" />
    <glyph glyph-name="lozenge" unicode="&#x25ca;" horiz-adv-x="1004" 
d="M475 -22h55l435 639l-435 638h-55l-436 -639zM505 53l-362 564l362 560l361 -560z" />
    <glyph glyph-name="uniFB00" unicode="&#xfb00;" horiz-adv-x="1343" 
d="M1147 739v66h-221v207c0 83 48 124 97 124c53 0 100 -22 111 -109l68 22c-12 123 -99 155 -181 155c-103 0 -185 -71 -185 -196v-203l-488 -1v206c0 85 37 127 101 127c65 0 96 -39 105 -110l69 22c-8 107 -80 155 -178 155c-126 0 -190 -74 -190 -193v-207h-156v-66h156
v-672h-151v-66h427v66h-183v672l488 1v-673h-149v-66h429v66h-190v673h221z" />
    <glyph glyph-name="uniFB01" unicode="&#xfb01;" horiz-adv-x="1097" 
d="M110 0h437v66h-192v672h485v-672h-151v-66h389v66h-149v738h-574v132c0 156 114 235 291 235c69 0 163 -17 191 -63c-23 -8 -32 -30 -32 -51c0 -36 31 -62 74 -62s70 29 70 71c0 100 -129 164 -300 164c-227 0 -384 -101 -384 -295v-131h-160v-66h160v-672h-155v-66z" />
    <glyph glyph-name="uniFB02" unicode="&#xfb02;" horiz-adv-x="1230" 
d="M110 0h437v66h-192v672h203v66h-203v157c0 135 133 213 309 213c123 0 206 -28 206 -72v-1036c0 -20 17 -66 40 -66h240v66h-190v1049c0 82 -122 132 -293 132c-226 0 -402 -104 -402 -293v-150h-160v-66h160v-672h-155v-66z" />
    <glyph glyph-name="uniFB03" unicode="&#xfb03;" horiz-adv-x="1870" 
d="M169 0h432v66h-188v672h425v66h-425v195c0 98 97 156 241 156c95 0 213 -37 308 -102l57 24c-102 91 -249 141 -374 141c-187 0 -322 -83 -322 -223v-191h-158v-66h158v-672h-154v-66zM769 0h437v66h-192v672h485v-672h-151v-66h389v66h-149v738h-574v132
c0 156 114 235 291 235c69 0 163 -17 191 -63c-23 -8 -32 -30 -32 -51c0 -36 31 -62 74 -62s70 29 70 71c0 100 -129 164 -300 164c-227 0 -384 -101 -384 -295v-131h-160v-66h160v-672h-155v-66z" />
    <glyph glyph-name="uniFB04" unicode="&#xfb04;" horiz-adv-x="1839" 
d="M91 0h446v66h-199v672h436v66h-436v188c0 100 103 157 251 157c103 0 230 -41 320 -108l64 29c-107 95 -261 148 -391 148c-194 0 -334 -86 -334 -229v-185h-158v-66h158v-672h-157v-66zM729 0h437v66h-192v672h203v66h-203v157c0 135 133 213 309 213
c123 0 206 -28 206 -72v-1036c0 -20 17 -66 40 -66h240v66h-190v1049c0 82 -122 132 -293 132c-226 0 -402 -104 -402 -293v-150h-160v-66h160v-672h-155v-66z" />
    <glyph glyph-name="NULL" horiz-adv-x="-240" 
 />
    <glyph glyph-name="caron.alt" horiz-adv-x="600" 
d="M255 862c112 -1 142 79 141 178v134h-130v-124h75c0 -82 -14 -141 -86 -148v-40z" />
    <glyph glyph-name="f_j" horiz-adv-x="1112" 
d="M929 804h-574v132c0 156 114 235 291 235c69 0 163 -17 191 -63c-23 -8 -32 -30 -32 -51c0 -36 31 -62 74 -62s70 29 70 71c0 100 -129 164 -300 164c-227 0 -384 -101 -384 -295v-131h-160v-66h160v-672h-155v-66h437v66h-192v672h482v-769c0 -116 -4 -170 -135 -170
h-72v-70h79c230 0 220 145 220 261v814z" />
    <glyph glyph-name="foundryicon" horiz-adv-x="1347" 
d="M485 405v267h106l170 -149v149h106v-267h-106l-170 147v-147h-106zM280 2l389 276l397 -276l-144 459l391 294h-485l-159 460l-150 -460h-485l389 -294z" />
    <glyph glyph-name="idotaccent" 
d="M305 1003c43 0 74 29 74 69c0 38 -31 68 -74 68c-41 0 -72 -30 -72 -68c0 -40 31 -69 72 -69zM107 0h422v66h-162v738h-257v-66h168v-672h-171v-66z" />
    </font>
</defs>
</svg>
