<?xml version="1.0" standalone="no"?>
<!DOCTYPE svg PUBLIC "-//W3C//DTD SVG 1.1//EN" "http://www.w3.org/Graphics/SVG/1.1/DTD/svg11.dtd" >
<svg version="1.1" xmlns="http://www.w3.org/2000/svg">
<metadata>
Created by FontForge 20120731 at Fri Aug  1 16:50:38 2014

Digitized data Copyright (c) 2011-2013, vernon adams.
</metadata>
<defs>
<font id="rokkitt" horiz-adv-x="1038" >
  <font-face 
    font-family="Rokkitt"
    font-weight="300"
    font-stretch="normal"
    units-per-em="2048"
    panose-1="2 0 3 3 0 0 0 0 0 0"
    ascent="1638"
    descent="-410"
    x-height="804"
    cap-height="1152"
    bbox="-77 -453.009 2491 1855"
    underline-thickness="0"
    underline-position="0"
    unicode-range="U+000D-FB04"
  />
<missing-glyph horiz-adv-x="667" 
 />
    <glyph glyph-name=".notdef" horiz-adv-x="667" 
 />
    <glyph glyph-name="uni000D" unicode="&#xd;" horiz-adv-x="600" 
 />
    <glyph glyph-name="space" unicode=" " horiz-adv-x="594" 
 />
    <glyph glyph-name="exclam" unicode="!" horiz-adv-x="308" 
d="M129 361h57l29 448v377h-117v-377zM156 -14c51 0 89 35 89 82c0 46 -38 81 -89 81c-48 0 -86 -35 -86 -81c0 -47 38 -82 86 -82z" />
    <glyph glyph-name="quotedbl" unicode="&#x22;" horiz-adv-x="646" 
d="M183 841h66l25 401h-124zM404 841h64l33 401h-125z" />
    <glyph glyph-name="numbersign" unicode="#" horiz-adv-x="1056" 
d="M189 -5h97l40 370h339l-43 -370h97l42 370h205l1 78h-193l36 328h183l1 79h-170l39 338h-97l-40 -338h-336l40 338h-98l-39 -338h-198l-1 -79h185l-35 -328h-176l-2 -78h163zM339 443l37 328h337l-37 -328h-337z" />
    <glyph glyph-name="dollar" unicode="$" horiz-adv-x="1094" 
d="M523 -182h61v1526h-61v-1526zM590 -21c283 0 390 178 390 325c0 264 -186 302 -413 333c-190 25 -329 56 -329 224c0 128 87 225 286 225c154 0 263 -64 289 -144v-107h100v319h-100v-96c-57 76 -194 116 -301 116c-217 0 -385 -102 -385 -315c0 -252 202 -296 420 -322
c200 -22 315 -62 315 -233c0 -123 -77 -236 -278 -236c-192 0 -312 68 -352 179v141h-101v-389h101v127c63 -101 193 -147 358 -147z" />
    <glyph glyph-name="percent" unicode="%" horiz-adv-x="1651" 
d="M404 681c-121 1 -209 90 -209 214c0 122 88 211 209 211c123 0 212 -89 212 -211c0 -124 -89 -213 -212 -214zM404 610c172 0 296 120 296 285c0 162 -124 280 -296 280c-169 0 -293 -118 -293 -280c0 -165 124 -285 293 -285zM349 -50l1025 1236l-54 45l-1029 -1229z
M1261 49c-122 0 -210 90 -210 214c0 122 88 211 210 211c123 0 211 -89 211 -211c0 -124 -88 -214 -211 -214zM1261 -22c171 0 295 120 295 285c0 162 -124 280 -295 280c-170 0 -294 -118 -294 -280c0 -165 124 -285 294 -285z" />
    <glyph glyph-name="ampersand" unicode="&#x26;" horiz-adv-x="1212" 
d="M497 -21c139 0 259 48 344 136l89 -115h225v86h-164l-82 103c49 67 95 186 111 262h135v85h-209c-10 -80 -48 -205 -94 -273l-313 380c180 75 278 190 278 328s-109 228 -278 228c-175 0 -289 -91 -289 -233c0 -93 56 -186 143 -294c-187 -66 -285 -181 -285 -347
c0 -211 152 -346 389 -346zM512 73c-179 0 -290 101 -290 257c0 131 74 224 225 273l338 -417c-68 -76 -165 -113 -273 -113zM489 711c-79 101 -137 180 -137 258c0 93 74 148 186 148s181 -55 181 -151c0 -108 -85 -196 -230 -255z" />
    <glyph glyph-name="quotesingle" unicode="'" horiz-adv-x="347" 
d="M146 841h65l27 401h-125z" />
    <glyph glyph-name="parenleft" unicode="(" horiz-adv-x="543" 
d="M492 -119l1 74c-176 82 -265 328 -265 574c0 245 89 491 265 573l-1 72c-264 -101 -397 -375 -397 -648s133 -545 397 -645z" />
    <glyph glyph-name="parenright" unicode=")" horiz-adv-x="543" 
d="M103 -119c265 100 397 372 397 645s-132 547 -397 648l-1 -72c176 -82 265 -328 265 -573c0 -246 -89 -492 -265 -574z" />
    <glyph glyph-name="asterisk" unicode="*" horiz-adv-x="937" 
d="M258 416l210 338l210 -337l81 60l-256 303l384 108l-31 97l-367 -166l31 398h-104l32 -398l-368 166l-31 -97l384 -108l-257 -303z" />
    <glyph glyph-name="plus" unicode="+" horiz-adv-x="845" 
d="M382 129h91v403h350v90h-350v393h-91v-393h-352v-90h352v-403z" />
    <glyph glyph-name="comma" unicode="," horiz-adv-x="441" 
d="M162 -208c134 0 167 84 167 214c0 20 -1 140 -3 156c-26 0 -135 0 -157 -2c0 -21 0 -140 1 -160h84c0 -111 -21 -141 -92 -153v-55z" />
    <glyph glyph-name="hyphen" unicode="-" horiz-adv-x="784" 
d="M141 401h501v86h-501v-86z" />
    <glyph glyph-name="period" unicode="." horiz-adv-x="497" 
d="M178 0h150v153h-150v-153z" />
    <glyph glyph-name="slash" unicode="/" horiz-adv-x="491" 
d="M-14 -14l84 -16l427 1222l-80 16z" />
    <glyph glyph-name="zero" unicode="0" horiz-adv-x="1095" 
d="M547 60c-199 -2 -308 176 -308 506c0 341 109 526 308 526c200 0 309 -185 309 -526c0 -328 -109 -506 -309 -506zM547 -22c277 0 422 207 422 588c0 382 -145 608 -422 608c-276 0 -421 -227 -421 -608c0 -380 145 -588 421 -588z" />
    <glyph glyph-name="one" unicode="1" horiz-adv-x="632" 
d="M124 0h442v82h-161v1071l-282 -57l7 -81l162 34v-967h-168v-82z" />
    <glyph glyph-name="two" unicode="2" horiz-adv-x="995" 
d="M126 0h740l-1 301h-93l-1 -212h-509l318 318c157 158 281 293 281 437c0 201 -134 330 -364 330c-225 0 -366 -131 -366 -334c0 -37 7 -83 20 -127h101c-10 46 -16 87 -16 116c0 160 102 251 262 251c166 0 247 -100 249 -237c3 -105 -96 -221 -239 -366l-382 -386v-91z
" />
    <glyph glyph-name="three" unicode="3" horiz-adv-x="1011" 
d="M492 -21c257 0 409 133 409 357c0 152 -102 244 -275 272c157 26 248 122 248 264c0 186 -149 302 -395 302c-187 0 -329 -87 -389 -233l89 -42c46 117 153 186 299 186c178 0 285 -82 285 -214c0 -143 -106 -223 -348 -223v-88c247 0 367 -74 370 -226
c4 -168 -107 -265 -292 -265c-144 0 -253 69 -310 195l-88 -52c56 -145 204 -233 397 -233z" />
    <glyph glyph-name="four" unicode="4" horiz-adv-x="968" 
d="M414 0h395v82h-140v272h200v81h-200v717h-111l-480 -703l14 -95h471v-272h-149v-82zM184 435l379 582v-582h-379z" />
    <glyph glyph-name="five" unicode="5" horiz-adv-x="1005" 
d="M500 -22c272 0 428 138 428 379c0 239 -147 375 -404 375c-104 0 -198 -39 -260 -108l7 439h482v-183h106v272h-691l-9 -594l93 -39c72 78 182 115 265 115c188 0 294 -101 294 -281c0 -179 -112 -281 -310 -281c-137 0 -249 64 -326 172l-71 -75
c92 -119 225 -191 396 -191z" />
    <glyph glyph-name="six" unicode="6" horiz-adv-x="901" 
d="M452 -21c240 0 384 149 384 376c0 213 -152 352 -353 352c-100 0 -195 -52 -229 -87l363 563l-94 60l-360 -577c-64 -96 -98 -203 -98 -331c0 -211 163 -356 387 -356zM455 65c-172 0 -273 119 -273 274c0 181 136 283 281 283c166 0 267 -108 267 -275
c0 -168 -106 -282 -275 -282z" />
    <glyph glyph-name="seven" unicode="7" horiz-adv-x="979" 
d="M373 0h121s174 611 391 1074v78h-762v-314h108v228h525c-241 -553 -383 -1066 -383 -1066z" />
    <glyph glyph-name="eight" unicode="8" horiz-adv-x="1029" 
d="M515 -22c250 0 398 134 398 325c0 150 -81 260 -240 298c143 42 203 147 203 277c0 180 -140 297 -361 296c-221 1 -361 -117 -361 -297c0 -127 55 -215 198 -270c-162 -35 -236 -155 -236 -304c0 -189 144 -325 399 -325zM515 65c-171 0 -279 95 -279 243
c0 150 89 244 192 263c254 -27 365 -102 365 -264c0 -147 -108 -242 -278 -242zM603 633c-224 18 -334 90 -334 236c0 134 92 218 246 218c156 0 247 -86 247 -218c0 -141 -83 -211 -159 -236z" />
    <glyph glyph-name="nine" unicode="9" horiz-adv-x="901" 
d="M383 -90l360 577c64 97 99 203 99 331c0 211 -163 356 -388 356c-239 0 -384 -149 -384 -375c0 -214 156 -351 358 -351c100 0 190 50 224 86l-363 -563zM443 531c-166 0 -266 108 -266 275c0 169 105 282 275 282c172 0 272 -118 272 -273c0 -182 -136 -284 -281 -284z
" />
    <glyph glyph-name="colon" unicode=":" horiz-adv-x="501" 
d="M176 186h154v155h-154v-155zM176 680h154v157h-154v-157z" />
    <glyph glyph-name="semicolon" unicode=";" horiz-adv-x="395" 
d="M104 -20c134 1 170 86 170 205v158h-161v-156h79c0 -92 -8 -129 -88 -145v-62zM116 680h155v157h-155v-157z" />
    <glyph glyph-name="less" unicode="&#x3c;" horiz-adv-x="977" 
d="M833 -9v103l-740 487l740 488v105l-856 -560v-68z" />
    <glyph glyph-name="equal" unicode="=" horiz-adv-x="937" 
d="M167 283h605v89h-605v-89zM167 588h605v88h-605v-88z" />
    <glyph glyph-name="greater" unicode="&#x3e;" horiz-adv-x="978" 
d="M147 -9l854 553v72l-854 558v-105l739 -488l-739 -487v-103z" />
    <glyph glyph-name="question" unicode="?" horiz-adv-x="729" 
d="M290 306h74c44 397 327 305 327 604c0 178 -131 291 -327 291c-179 0 -323 -73 -333 -279h95c17 140 94 198 239 198c138 0 226 -82 226 -210c0 -246 -279 -162 -301 -604zM327 -18c51 0 90 37 90 85c0 46 -39 83 -90 83c-50 0 -88 -37 -88 -83c0 -48 38 -85 88 -85z" />
    <glyph glyph-name="at" unicode="@" horiz-adv-x="1425" 
d="M775 -43c174 0 300 42 405 120l-41 51c-95 -69 -215 -104 -364 -104c-365 0 -576 210 -576 525c0 330 238 573 562 573c323 0 483 -211 483 -434c0 -249 -162 -417 -254 -393c-42 6 -52 54 -25 179l95 433h-77l-36 -173c-3 112 -89 191 -207 191
c-221 0 -338 -209 -338 -400s120 -290 253 -290c124 0 204 86 245 195c-35 -136 11 -182 72 -192c160 -27 340 196 340 450c0 250 -155 503 -547 503c-419 0 -653 -325 -653 -640c0 -304 211 -594 663 -594zM668 301c-122 0 -181 93 -181 222c0 170 92 331 245 331
c110 0 181 -67 181 -196c0 -190 -102 -357 -245 -357z" />
    <glyph glyph-name="A" unicode="A" horiz-adv-x="1382" 
d="M494 541l187 525h10l186 -525h-383zM70 0h418v82h-153l135 378h431l136 -378h-152v-82h427v82h-145l-366 988h139v82h-496v-82h136l-361 -988h-149v-82z" />
    <glyph glyph-name="B" unicode="B" horiz-adv-x="1233" 
d="M703 1152h-605v-82h166v-988h-166v-82h669c260 0 371 149 371 322c0 134 -69 254 -238 290c106 30 174 125 174 257c0 187 -130 283 -371 283zM673 1070c190 0 280 -58 280 -206c0 -129 -66 -216 -232 -216h-335v422h287zM386 563h347c194 0 281 -100 281 -237
c0 -150 -88 -244 -265 -244h-363v481z" />
    <glyph glyph-name="C" unicode="C" horiz-adv-x="1380" 
d="M708 -22c230 1 428 80 536 310l-88 47c-88 -197 -266 -265 -441 -265c-258 0 -484 184 -484 510c0 272 182 501 484 501c210 0 338 -84 430 -274l84 9v337h-95v-190c-89 129 -213 210 -426 210c-362 0 -600 -256 -600 -594c0 -381 274 -600 600 -601z" />
    <glyph glyph-name="D" unicode="D" horiz-adv-x="1413" 
d="M751 1152h-652v-82h166v-988h-166v-82h655c365 0 548 274 548 581c0 272 -175 571 -551 571zM388 1070h359c293 0 430 -251 430 -491c0 -260 -135 -497 -437 -497h-352v988z" />
    <glyph glyph-name="E" unicode="E" horiz-adv-x="1204" 
d="M978 816h97v336h-977v-82h166v-988h-166v-82h993v342h-97v-260h-608v468h386v-155h67v390h-68v-149h-385v434h592v-254z" />
    <glyph glyph-name="F" unicode="F" horiz-adv-x="1134" 
d="M973 800h96v352h-971v-82h166v-988h-166v-82h455v82h-167v471h404v-152h67v378h-67v-139h-404v430h587v-270z" />
    <glyph glyph-name="G" unicode="G" horiz-adv-x="1399" 
d="M722 -21c272 0 562 128 564 589h-368v-86h247c-6 -305 -234 -409 -439 -411c-301 0 -490 199 -490 516c0 305 188 496 487 496c191 0 348 -95 424 -268h87v339h-101v-169c-90 119 -239 189 -413 189c-368 0 -614 -226 -614 -587c0 -373 242 -608 616 -608z" />
    <glyph glyph-name="H" unicode="H" horiz-adv-x="1456" 
d="M98 0h455v82h-167v463h683v-463h-166v-82h455v82h-166v988h166v82h-455v-82h166v-438h-683v438h167v82h-455v-82h166v-988h-166v-82z" />
    <glyph glyph-name="I" unicode="I" horiz-adv-x="670" 
d="M107 0h455v82h-166v988h166v82h-455v-82h166v-988h-166v-82z" />
    <glyph glyph-name="J" unicode="J" horiz-adv-x="626" 
d="M81 -154h135c156 0 218 71 218 265v959h139v82h-409v-82h147v-956c0 -112 -15 -172 -106 -172h-124v-96z" />
    <glyph glyph-name="K" unicode="K" horiz-adv-x="1300" 
d="M780 0h451v82h-158l-557 502l536 486h159v82h-445v-82h142l-522 -471v471h167v82h-455v-82h166v-988h-166v-82h455v82h-167v479l536 -479h-142v-82z" />
    <glyph glyph-name="L" unicode="L" horiz-adv-x="1068" 
d="M386 82v988h167v82h-455v-82h166v-988h-166v-82h917v425h-101v-343h-528z" />
    <glyph glyph-name="M" unicode="M" horiz-adv-x="1658" 
d="M106 0h402v82h-151v949l452 -955h36l439 955v-949h-153v-82h426v82h-154v988h154v82h-326l-392 -863l-411 863h-322v-82h155v-988h-155v-82z" />
    <glyph glyph-name="N" unicode="N" horiz-adv-x="1443" 
d="M103 0h413v82h-158v933l752 -1015h121v1070h148v82h-405v-82h159v-905l-736 987h-294v-82h157v-988h-157v-82z" />
    <glyph glyph-name="O" unicode="O" horiz-adv-x="1453" 
d="M726 70c-321 0 -485 236 -485 502c0 262 166 511 485 511c317 0 486 -249 486 -511c0 -260 -169 -502 -486 -502zM725 -22c395 0 617 286 617 594s-224 602 -616 602c-391 0 -615 -293 -615 -601s222 -595 614 -595z" />
    <glyph glyph-name="P" unicode="P" horiz-adv-x="1178" 
d="M98 0h455v82h-167v988h313c162 0 253 -85 253 -237c0 -170 -97 -266 -271 -266h-209v-82h212c254 0 395 126 395 350c0 204 -140 317 -392 317h-589v-82h166v-988h-166v-82z" />
    <glyph glyph-name="Q" unicode="Q" horiz-adv-x="1443" 
d="M1180 -228l-6 82c-44 -13 -81 -19 -114 -19c-112 0 -179 62 -262 147c353 31 544 303 544 590c0 308 -224 602 -616 602c-391 0 -615 -293 -615 -601c0 -296 203 -576 575 -593c117 -139 226 -227 373 -227c36 0 76 6 121 19zM726 70c-321 0 -485 236 -485 502
c0 262 166 511 485 511c317 0 486 -249 486 -511c0 -260 -169 -502 -486 -502z" />
    <glyph glyph-name="R" unicode="R" horiz-adv-x="1277" 
d="M954 0h255v82h-170l-284 461c239 21 323 152 323 306c0 180 -126 303 -366 303h-614v-82h166v-988h-166v-82h455v82h-167v988h329c174 0 241 -108 241 -223c0 -106 -54 -231 -281 -231h-217v-84h177z" />
    <glyph glyph-name="S" unicode="S" horiz-adv-x="1096" 
d="M617 -21c283 0 390 178 390 325c0 264 -186 302 -413 333c-190 25 -329 56 -329 224c0 128 87 225 286 225c154 0 263 -64 289 -144v-107h100v319h-100v-96c-57 76 -194 116 -301 116c-217 0 -385 -102 -385 -315c0 -252 202 -296 420 -322c200 -22 315 -62 315 -233
c0 -123 -77 -236 -278 -236c-192 0 -312 68 -352 179v141h-101v-389h101v127c63 -101 193 -147 358 -147z" />
    <glyph glyph-name="T" unicode="T" horiz-adv-x="1145" 
d="M52 761h94v309h364v-988h-166v-82h455v82h-167v988h366v-309h96v391h-1042v-391z" />
    <glyph glyph-name="U" unicode="U" horiz-adv-x="1423" 
d="M710 -21c296 0 504 146 504 412v679h156v82h-414v-82h151v-683c0 -194 -153 -316 -394 -316c-227 0 -369 124 -369 316v683h153v82h-429v-82h153v-670c0 -244 163 -421 489 -421z" />
    <glyph glyph-name="V" unicode="V" horiz-adv-x="1289" 
d="M591 0h113l413 1070h134v82h-403v-82h152l-346 -932l-348 932h154v82h-425v-82h143z" />
    <glyph glyph-name="W" unicode="W" horiz-adv-x="1915" 
d="M547 0h110l304 919l303 -919h110l339 1070h144v82h-401v-82h151l-283 -913l-313 959h-90l-313 -959l-288 913h154v82h-416v-82h141z" />
    <glyph glyph-name="X" unicode="X" horiz-adv-x="1301" 
d="M82 0h415v79h-151l293 442l299 -442h-149v-79h432v79h-156l-353 510l331 485h153v78h-412v-78h148l-275 -413l-282 413h145v78h-426v-78h155l335 -483l-351 -512h-151v-79z" />
    <glyph glyph-name="Y" unicode="Y" horiz-adv-x="1281" 
d="M413 0h459v82h-169v400l397 588h155v82h-422v-82h153l-335 -504l-341 504h148v82h-435v-82h155l403 -588v-400h-168v-82z" />
    <glyph glyph-name="Z" unicode="Z" horiz-adv-x="1201" 
d="M133 0h945v385h-93v-303h-709l782 990v80h-896v-366h94v284h655l-778 -982v-88z" />
    <glyph glyph-name="bracketleft" unicode="[" horiz-adv-x="485" 
d="M165 -158h272v89h-149v1206h149v88h-272v-1383z" />
    <glyph glyph-name="backslash" unicode="\" horiz-adv-x="511" 
d="M412 -22h103l-426 1217h-100z" />
    <glyph glyph-name="bracketright" unicode="]" horiz-adv-x="483" 
d="M42 -158h272v1383h-272v-88h148v-1206h-148v-89z" />
    <glyph glyph-name="asciicircum" unicode="^" horiz-adv-x="921" 
d="M73 718h105l287 450l276 -450h104l-325 546h-110z" />
    <glyph glyph-name="underscore" unicode="_" horiz-adv-x="1000" 
d="M105 -148h790v67h-790v-67z" />
    <glyph glyph-name="grave" unicode="`" horiz-adv-x="259" 
d="M149 981h70l-101 279h-126z" />
    <glyph glyph-name="a" unicode="a" horiz-adv-x="940" 
d="M386 56c-114 0 -179 75 -179 165c0 130 98 170 204 170c89 0 171 -16 249 -30v-209c-106 -66 -186 -96 -274 -96zM373 -22c103 0 192 32 292 98c0 0 12 -80 12 -76h220v82h-125v465c0 150 -98 279 -322 279c-88 0 -211 -26 -312 -80l35 -76c85 42 193 71 277 71
c125 0 210 -66 210 -209v-99c-86 16 -174 29 -256 29c-165 0 -306 -63 -306 -245c0 -138 109 -239 275 -239z" />
    <glyph glyph-name="b" unicode="b" horiz-adv-x="1057" 
d="M57 0h258v78c72 -64 166 -100 266 -100c237 0 421 162 421 435c0 262 -169 413 -399 413c-95 0 -201 -36 -288 -100v448h-253v-82h140v-1010h-145v-82zM315 163v477c82 63 179 99 261 99c183 0 310 -126 310 -338c0 -215 -133 -338 -322 -338c-85 0 -177 37 -249 100z
" />
    <glyph glyph-name="c" unicode="c" horiz-adv-x="958" 
d="M173 408c0 193 136 330 328 330c134 0 235 -78 257 -197h87v265h-98v-101c-35 69 -146 121 -257 121c-253 0 -433 -174 -433 -419c0 -251 178 -428 428 -428c160 0 276 60 361 160l-41 74c-83 -91 -168 -145 -310 -145c-190 0 -322 141 -322 340z" />
    <glyph glyph-name="d" unicode="d" horiz-adv-x="1036" 
d="M749 0h246v82h-132v1092h-253v-82h139v-362c-82 59 -192 96 -292 96c-222 0 -398 -159 -398 -423c0 -261 187 -425 418 -425c93 0 195 36 272 94v-72zM749 648v-494c-73 -55 -169 -90 -252 -90c-183 0 -321 126 -321 329c0 216 126 347 300 347c90 0 193 -35 273 -92z
" />
    <glyph glyph-name="e" unicode="e" horiz-adv-x="955" 
d="M174 450c11 176 141 292 299 292c142 0 266 -100 284 -292h-583zM490 -21c139 0 275 58 362 150l-40 73c-73 -77 -193 -136 -318 -136c-162 0 -311 114 -321 312h695c-4 302 -194 448 -395 448c-223 0 -418 -156 -418 -424c0 -259 198 -423 435 -423z" />
    <glyph glyph-name="f" unicode="f" horiz-adv-x="690" 
d="M95 0h472v82h-201v640h220v82h-220v192c0 90 39 132 102 132c65 0 94 -41 104 -112l87 27c-9 119 -94 167 -196 167c-141 0 -212 -83 -212 -212v-194h-156v-82h156v-640h-156v-82z" />
    <glyph glyph-name="g" unicode="g" horiz-adv-x="1037" 
d="M480 -381c235 0 398 107 398 364v739h135v82h-249v-82c-78 63 -195 102 -295 102c-231 0 -406 -156 -406 -414c0 -256 182 -417 417 -417c98 1 206 39 285 101v-123c0 -172 -101 -262 -286 -262c-79 0 -172 16 -274 46l-21 -88c102 -29 204 -48 296 -48zM764 643l1 -469
c-76 -59 -177 -96 -265 -96c-183 0 -321 123 -321 323c0 211 126 339 301 339c94 0 202 -38 284 -97z" />
    <glyph glyph-name="h" unicode="h" horiz-adv-x="1029" 
d="M36 0h401v82h-138v554c99 59 203 100 293 100c104 0 170 -66 170 -180v-474h-150v-82h412v82h-150v484c0 165 -109 260 -257 260c-109 0 -210 -45 -318 -112v460h-257v-82h144v-1010h-150v-82z" />
    <glyph glyph-name="i" unicode="i" horiz-adv-x="594" 
d="M315 995c50 0 88 35 88 82c0 46 -38 81 -88 81c-49 0 -86 -35 -86 -81c0 -47 37 -82 86 -82zM113 0h433v82h-156v722h-275v-82h163v-640h-165v-82z" />
    <glyph glyph-name="j" unicode="j" horiz-adv-x="470" 
d="M257 996c51 0 89 35 89 82c0 45 -38 81 -89 81c-48 0 -86 -36 -86 -81c0 -47 38 -82 86 -82zM14 -286h83c224 0 245 120 245 262c0 10 -1 360 -1 829h-276v-80h161v-768c0 -106 -16 -155 -134 -155h-78v-88z" />
    <glyph glyph-name="k" unicode="k" horiz-adv-x="1003" 
d="M741 0h225v82h-169l-357 337l387 303h134v82h-410v-82h156l-387 -294v746h-258v-82h145v-1010h-150v-82h401v82h-138v323z" />
    <glyph glyph-name="l" unicode="l" horiz-adv-x="501" 
d="M56 0h401v82h-138v1092h-258v-82h145v-1010h-150v-82z" />
    <glyph glyph-name="m" unicode="m" horiz-adv-x="1598" 
d="M41 0h433v82h-156v564c103 56 204 90 275 90c106 0 171 -66 171 -180v-474h-150v-82h413v82h-150v484c0 25 -3 49 -9 70c93 62 197 100 291 100c106 0 171 -66 171 -180v-474h-150v-82h412v82h-149v484c0 165 -110 260 -257 260c-126 0 -228 -50 -341 -125
c-42 82 -124 125 -225 125c-91 0 -199 -40 -302 -101v79h-275v-82h163v-640h-165v-82z" />
    <glyph glyph-name="n" unicode="n" horiz-adv-x="1041" 
d="M41 0h433v82h-156v559c106 59 212 95 284 95c106 0 172 -66 172 -180v-474h-151v-82h413v82h-150v484c0 165 -110 260 -256 260c-94 0 -206 -42 -312 -107v85h-275v-82h163v-640h-165v-82z" />
    <glyph glyph-name="o" unicode="o" horiz-adv-x="980" 
d="M488 -22c256 0 436 177 436 428c0 246 -180 420 -435 420c-254 0 -434 -174 -434 -420c0 -251 179 -428 433 -428zM488 67c-186 0 -317 140 -317 338c0 195 131 332 317 332c187 0 320 -137 320 -331c0 -198 -133 -339 -320 -339z" />
    <glyph glyph-name="p" unicode="p" horiz-adv-x="1044" 
d="M566 -22c237 0 421 162 421 435c0 262 -169 413 -399 413c-100 0 -206 -39 -288 -102l-1 80h-242v-82h135v-958h-144v-82h405v82h-149v311c64 -57 161 -97 262 -97zM304 643c81 64 184 96 257 96c183 0 309 -126 309 -338c0 -215 -132 -338 -321 -338
c-84 0 -174 36 -245 97v483z" />
    <glyph glyph-name="q" unicode="q" horiz-adv-x="1073" 
d="M614 -330h405v86h-142v966h137v82h-246l-4 -84c-85 65 -202 106 -308 106c-222 0 -397 -159 -397 -423c0 -261 186 -425 417 -425c99 0 206 39 287 103v-325h-149v-86zM763 640v-477c-77 -61 -178 -99 -267 -99c-183 0 -321 126 -321 329c0 216 126 347 301 347
c94 0 202 -39 287 -100z" />
    <glyph glyph-name="r" unicode="r" horiz-adv-x="784" 
d="M89 0h432v82h-155l1 363c0 175 92 277 198 277c51 0 93 -15 138 -43l27 99c-52 26 -103 41 -158 41c-81 0 -159 -44 -206 -167v152h-276v-82h163v-640h-164v-82z" />
    <glyph glyph-name="s" unicode="s" horiz-adv-x="897" 
d="M492 -21c157 0 311 70 311 227c0 174 -117 208 -280 246l-116 26c-103 24 -161 55 -161 128c0 94 97 137 197 137c83 0 186 -37 229 -91l11 -116h84v270h-94v-65c-58 55 -159 85 -246 85c-162 0 -294 -76 -294 -224c0 -137 90 -187 232 -220l121 -26
c146 -31 209 -55 209 -159c0 -87 -92 -139 -215 -139c-104 0 -204 36 -259 109l-7 95h-82v-262h90v74c53 -56 158 -95 270 -95z" />
    <glyph glyph-name="t" unicode="t" horiz-adv-x="601" 
d="M422 0h123v82h-105c-105 0 -146 41 -146 155v485h223l1 82h-224v319l-112 -42v-277h-141v-82h141v-492c0 -165 90 -230 240 -230z" />
    <glyph glyph-name="u" unicode="u" 
d="M432 -21c113 0 216 47 313 120l5 -99h256v81h-150v723h-260v-82h147v-537c-87 -71 -176 -117 -289 -117c-117 0 -168 77 -168 176v560h-258v-82h145v-489c0 -121 63 -254 259 -254z" />
    <glyph glyph-name="v" unicode="v" horiz-adv-x="1053" 
d="M475 0h108l319 723h135v82h-392v-82h145l-253 -612l-260 612h148v82h-410v-82h141z" />
    <glyph glyph-name="w" unicode="w" horiz-adv-x="1503" 
d="M404 0h117l230 628l231 -628h115l251 723h121v82h-349v-82h123l-203 -618l-227 618h129v82h-380v-82h128l-221 -617l-216 617h129v82h-358v-82h117z" />
    <glyph glyph-name="x" unicode="x" horiz-adv-x="1052" 
d="M50 0h379v82h-137l231 275l239 -275h-152v-82h401v82h-135l-288 333l263 307h153v82h-396v-82h137l-213 -254l-218 254h138v82h-390v-82h138l267 -309l-284 -331h-133v-82z" />
    <glyph glyph-name="y" unicode="y" horiz-adv-x="1065" 
d="M218 -294h96c180 0 217 65 282 226l328 790h131v82h-396v-82h152l-244 -600l-266 600h130v82h-401v-82h156l305 -667h52l-51 -129c-42 -112 -76 -127 -187 -127h-87v-93z" />
    <glyph glyph-name="z" unicode="z" horiz-adv-x="917" 
d="M121 0h681v278h-91v-199h-459l537 636v90h-651v-258h90v179h435l-542 -642v-84z" />
    <glyph glyph-name="braceleft" unicode="{" horiz-adv-x="517" 
d="M400 -82h68v78c-161 0 -176 26 -176 205c0 276 -24 334 -133 371c118 34 134 97 134 394c0 157 26 180 175 180v79h-68c-204 0 -207 -128 -207 -356c0 -175 -9 -252 -149 -252v-90c137 0 149 -74 149 -242c0 -241 3 -367 207 -367z" />
    <glyph glyph-name="bar" unicode="|" horiz-adv-x="419" 
d="M166 -110h95v1311h-95v-1311z" />
    <glyph glyph-name="braceright" unicode="}" horiz-adv-x="519" 
d="M72 -82h69c203 0 207 126 207 367c0 168 12 242 149 242v90c-141 0 -149 78 -149 254c0 227 -4 354 -208 354h-68v-79c150 0 176 -23 176 -180c0 -297 16 -360 133 -394c-109 -38 -132 -96 -132 -374c0 -176 -16 -202 -177 -202v-78z" />
    <glyph glyph-name="asciitilde" unicode="~" horiz-adv-x="938" 
d="M824 673c-44 -53 -92 -83 -153 -83c-129 0 -246 121 -396 121c-74 0 -138 -37 -181 -99l16 -81c48 60 97 88 159 88c132 0 244 -124 399 -124c74 0 133 39 174 95z" />
    <glyph glyph-name="uni007F" horiz-adv-x="600" 
 />
    <glyph glyph-name="uni00A0" unicode="&#xa0;" horiz-adv-x="594" 
 />
    <glyph glyph-name="exclamdown" unicode="&#xa1;" horiz-adv-x="308" 
d="M185 498h-56l-29 -449v-376h117v376zM159 872c-51 0 -89 -35 -89 -82c0 -46 38 -81 89 -81c48 0 86 35 86 81c0 47 -38 82 -86 82z" />
    <glyph glyph-name="cent" unicode="&#xa2;" horiz-adv-x="932" 
d="M352 -291l315 1376l-52 8l-314 -1376zM173 408c0 193 136 330 328 330c134 0 235 -78 257 -197h87v265h-98v-101c-35 69 -146 121 -257 121c-253 0 -433 -174 -433 -419c0 -251 178 -428 428 -428c160 0 276 60 361 160l-41 74c-83 -91 -168 -145 -310 -145
c-190 0 -322 141 -322 340z" />
    <glyph glyph-name="sterling" unicode="&#xa3;" horiz-adv-x="1048" 
d="M278 -21c103 0 180 61 225 144c81 -82 172 -134 269 -134c174 0 240 110 242 279c0 8 0 28 -1 36h-75c-3 -131 -41 -216 -167 -216c-78 0 -162 53 -226 117c42 113 43 218 -14 356h355v78h-391c-52 100 -110 191 -110 289c0 140 103 228 253 228c161 0 224 -96 224 -223
h99c0 192 -113 312 -326 312c-206 0 -354 -124 -354 -323c0 -95 53 -198 97 -283h-208v-78h250c74 -129 72 -245 59 -311c-48 54 -129 97 -202 97c-136 0 -218 -85 -218 -192c0 -99 77 -176 219 -176zM274 49c-79 0 -132 41 -132 108c0 70 51 114 131 114
c54 0 126 -36 177 -95c-25 -82 -107 -127 -176 -127z" />
    <glyph glyph-name="currency" unicode="&#xa4;" horiz-adv-x="1073" 
d="M862 536l56 54l-100 98c58 79 89 165 89 255c0 89 -30 175 -89 251l100 98l-56 54l-95 -102c-78 44 -155 68 -235 68c-77 0 -151 -23 -223 -66l-94 100l-60 -54l97 -96c-62 -73 -93 -165 -93 -258c0 -94 33 -183 93 -252l-97 -96l60 -54l95 100c73 -44 148 -65 225 -65
c80 0 156 22 232 66zM533 648c-148 0 -287 107 -287 294c0 185 139 292 288 292c148 0 290 -104 290 -292c0 -190 -140 -294 -291 -294z" />
    <glyph glyph-name="yen" unicode="&#xa5;" horiz-adv-x="1403" 
d="M307 243h668v71h-668v-71zM307 424h668v70h-668v-70zM413 0h459v82h-169v400l397 588h155v82h-422v-82h153l-335 -504l-341 504h148v82h-435v-82h155l403 -588v-400h-168v-82z" />
    <glyph glyph-name="brokenbar" unicode="&#xa6;" horiz-adv-x="440" 
d="M180 -114h81v559h-81v-559zM180 700h81v560h-81v-560z" />
    <glyph glyph-name="section" unicode="&#xa7;" horiz-adv-x="925" 
d="M481 -155c202 0 300 104 300 259c0 75 -24 126 -59 166c67 43 108 121 106 207c-2 124 -92 188 -310 304c-155 83 -225 112 -225 232c0 104 68 172 191 172c137 0 182 -95 188 -204c56 0 84 29 84 73c0 96 -78 188 -268 188c-179 0 -291 -95 -291 -238
c0 -97 40 -159 100 -204c-77 -25 -136 -88 -136 -176c0 -125 64 -187 256 -283c242 -122 280 -156 280 -260c0 -110 -65 -180 -206 -180c-139 0 -218 63 -220 203c-47 0 -82 -22 -82 -79c0 -104 84 -180 292 -180zM678 308c-47 34 -116 70 -196 111
c-174 90 -232 121 -232 224c0 55 30 102 86 125c24 -16 124 -68 157 -85c188 -99 243 -154 243 -236c0 -56 -16 -103 -58 -139z" />
    <glyph glyph-name="dieresis" unicode="&#xa8;" horiz-adv-x="460" 
d="M46 940c44 0 73 27 73 70c0 42 -29 69 -73 69s-72 -27 -72 -69c0 -43 28 -70 72 -70zM410 939c44 0 73 27 73 70c0 42 -28 70 -73 70c-44 0 -72 -28 -72 -70c0 -43 28 -70 72 -70z" />
    <glyph glyph-name="copyright" unicode="&#xa9;" horiz-adv-x="1524" 
d="M768 209c123 0 243 54 314 143l-44 53c-69 -80 -160 -125 -266 -126c-158 0 -288 126 -288 311c0 209 152 308 293 308c125 0 210 -68 224 -176h73v228h-73l-1 -87c-44 72 -134 105 -231 105c-185 0 -376 -126 -376 -378c0 -228 166 -381 375 -381zM761 -36
c367 0 644 266 644 625c0 358 -277 625 -644 625c-366 0 -642 -267 -642 -625c0 -359 276 -625 642 -625zM761 39c-311 0 -547 234 -547 548c0 317 236 553 547 553c312 0 548 -236 548 -553c0 -313 -236 -548 -548 -548z" />
    <glyph glyph-name="ordfeminine" unicode="&#xaa;" horiz-adv-x="791" 
d="M316 525c85 0 166 29 220 74l3 -61h195v70h-104v355c0 111 -75 211 -255 211c-85 0 -181 -21 -250 -73l34 -65c64 45 149 63 215 63c104 0 158 -48 158 -146v-72c-54 9 -114 17 -174 17c-138 0 -259 -45 -259 -188c0 -99 74 -185 217 -185zM327 595
c-87 0 -133 48 -133 119c0 98 81 121 175 121c62 0 117 -7 163 -15v-152c-55 -48 -133 -73 -205 -73z" />
    <glyph glyph-name="guillemotleft" unicode="&#xab;" horiz-adv-x="839" 
d="M333 234h81l-211 392l211 390h-81l-286 -390zM660 234h81l-211 392l211 390h-81l-286 -390z" />
    <glyph glyph-name="logicalnot" unicode="&#xac;" horiz-adv-x="960" 
d="M758 315h73v425h-770v-83h697v-342z" />
    <glyph glyph-name="uni00AD" unicode="&#xad;" horiz-adv-x="783" 
d="M141 401h501v86h-501v-86z" />
    <glyph glyph-name="registered" unicode="&#xae;" horiz-adv-x="1524" 
d="M453 258h256v50h-92v277h144l180 -327h147v52h-98l-159 282c115 12 182 77 182 174c0 117 -81 187 -216 187h-349v-51h97v-594h-92v-50zM617 639v263h180c90 0 145 -50 145 -137c0 -79 -55 -126 -147 -126h-178zM746 54c-343 0 -526 250 -526 531c0 276 185 538 526 538
c338 0 526 -262 526 -538c0 -275 -188 -531 -526 -531zM746 -22c401 0 621 288 621 607c0 320 -222 613 -621 613c-398 0 -620 -293 -620 -613c0 -318 219 -608 620 -607z" />
    <glyph glyph-name="macron" unicode="&#xaf;" horiz-adv-x="349" 
d="M-27 944h408v71h-408v-71z" />
    <glyph glyph-name="degree" unicode="&#xb0;" horiz-adv-x="801" 
d="M401 780c-110 0 -183 79 -183 176c1 96 73 176 183 176s183 -81 183 -175c0 -98 -74 -177 -183 -177zM401 716c154 0 256 109 256 240c0 130 -103 239 -256 239s-256 -109 -256 -239c0 -131 102 -240 256 -240z" />
    <glyph glyph-name="plusminus" unicode="&#xb1;" horiz-adv-x="803" 
d="M359 174h87v386h356v88h-356v377h-87v-377h-355v-88h355v-386zM2 0h798v86h-798v-86z" />
    <glyph glyph-name="uni00B2" unicode="&#xb2;" horiz-adv-x="933" 
d="M201 607v-69h533l-1 217h-72v-149h-356l229 222c98 96 185 181 185 297c0 144 -106 225 -262 225c-172 0 -264 -106 -264 -244c0 -29 5 -59 13 -89h77c-7 28 -11 55 -11 79c0 106 65 183 185 183c114 0 175 -62 176 -154c2 -88 -60 -150 -151 -240z" />
    <glyph glyph-name="uni00B3" unicode="&#xb3;" horiz-adv-x="969" 
d="M489 525c176 0 291 90 291 227c0 96 -60 180 -196 201c109 17 173 91 173 183c0 132 -105 214 -267 214c-125 0 -230 -59 -275 -151l66 -35c34 73 111 118 207 118c111 0 183 -60 183 -148c0 -94 -72 -150 -230 -150l1 -69c173 0 247 -55 249 -158
c2 -100 -77 -163 -201 -163c-102 0 -181 48 -215 127l-67 -39c36 -96 145 -157 281 -157z" />
    <glyph glyph-name="acute" unicode="&#xb4;" horiz-adv-x="332" 
d="M184 1260l-101 -279h69l157 279h-125z" />
    <glyph glyph-name="mu" unicode="&#xb5;" 
d="M1006 0v81h-150v723h-260v-82h147v-537c-87 -71 -176 -117 -289 -117c-117 0 -168 77 -168 176v560h-258v-82h145v-990h113v299c30 -29 76 -52 146 -52c113 0 216 47 313 120l5 -99h256z" />
    <glyph glyph-name="paragraph" unicode="&#xb6;" horiz-adv-x="1041" 
d="M496 -10h455v83h-144v1001h151v78h-499c-239 0 -340 -144 -340 -284c0 -145 110 -294 328 -293h249v-502h-200v-83zM508 665v409h188v-409h-188z" />
    <glyph glyph-name="periodcentered" unicode="&#xb7;" horiz-adv-x="507" 
d="M262 471c51 0 89 35 89 82c0 46 -38 81 -89 81c-48 0 -86 -35 -86 -81c0 -47 38 -82 86 -82z" />
    <glyph glyph-name="cedilla" unicode="&#xb8;" horiz-adv-x="535" 
d="M278 -328c72 0 132 30 132 105c0 54 -39 105 -139 110l34 119h-54l-61 -160c86 -3 119 -26 119 -58c0 -36 -30 -53 -77 -53c-29 0 -65 7 -102 18v-47c46 -21 100 -34 148 -34z" />
    <glyph glyph-name="uni00B9" unicode="&#xb9;" horiz-adv-x="731" 
d="M183 541h359v63h-133v722l-220 -36l6 -64l126 20v-642h-138v-63z" />
    <glyph glyph-name="ordmasculine" unicode="&#xba;" horiz-adv-x="867" 
d="M435 520c185 0 331 120 331 328c0 206 -146 326 -330 326c-183 0 -329 -120 -329 -326c0 -208 145 -328 328 -328zM436 598c-122 0 -228 85 -228 249s106 249 227 249c123 0 229 -85 229 -248c0 -165 -106 -250 -228 -250z" />
    <glyph glyph-name="guillemotright" unicode="&#xbb;" horiz-adv-x="839" 
d="M97 234h81l286 392l-286 390h-81l211 -390zM424 234h81l287 392l-287 390h-81l211 -390z" />
    <glyph glyph-name="onequarter" unicode="&#xbc;" horiz-adv-x="1709" 
d="M1274 0h298v64h-103v187h115v62h-115v497h-84l-355 -493l14 -66h346v-187h-116v-64zM166 352h324v63h-119v737l-209 -16l1 -63l125 6v-664h-122v-63zM445 -23h82l796 1220h-79zM1109 313l281 397v-397h-281z" />
    <glyph glyph-name="onehalf" unicode="&#xbd;" horiz-adv-x="1864" 
d="M1195 0h546l-1 215h-69l1 -151h-374l240 228c99 94 181 181 181 295c0 144 -105 226 -260 226c-180 0 -275 -112 -275 -250c0 -28 4 -57 13 -86h76c-7 27 -10 53 -10 77c0 111 65 192 196 192c115 0 177 -64 178 -159c2 -89 -59 -153 -150 -242l-292 -279v-66zM167 352
h324v63h-119v737l-209 -16v-63l125 6v-664h-121v-63zM451 -23h82l796 1220h-79z" />
    <glyph glyph-name="threequarters" unicode="&#xbe;" horiz-adv-x="1824" 
d="M402 349c179 0 291 91 291 233c0 105 -75 174 -194 195c105 19 171 87 171 181c0 130 -105 216 -267 216c-125 0 -230 -59 -275 -151l66 -35c34 73 111 118 207 118c111 0 183 -60 183 -149c0 -93 -72 -149 -230 -149l1 -69c162 0 247 -55 249 -159
c2 -99 -77 -162 -201 -162c-102 0 -181 48 -215 127l-67 -40c36 -95 145 -156 281 -156zM1386 0h297v64h-103v187h115v62h-115v497h-83l-362 -493l14 -66h352v-187h-115v-64zM569 -23h82l796 1220h-79zM1214 313l287 397v-397h-287z" />
    <glyph glyph-name="questiondown" unicode="&#xbf;" horiz-adv-x="727" 
d="M445 560h-74c-44 -397 -327 -305 -327 -604c0 -178 131 -291 327 -291c179 0 323 73 333 279h-95c-17 -140 -94 -198 -239 -198c-138 0 -226 82 -226 210c0 246 279 162 301 604zM408 884c-51 0 -90 -37 -90 -85c0 -46 39 -83 90 -83c50 0 88 37 88 83
c0 48 -38 85 -88 85z" />
    <glyph glyph-name="Agrave" unicode="&#xc0;" horiz-adv-x="1382" 
d="M654 1329h70l-101 279h-126zM494 541l187 525h10l186 -525h-383zM70 0h418v82h-153l135 378h431l136 -378h-152v-82h427v82h-145l-366 988h139v82h-496v-82h136l-361 -988h-149v-82z" />
    <glyph glyph-name="Aacute" unicode="&#xc1;" horiz-adv-x="1382" 
d="M762 1608l-101 -279h69l157 279h-125zM494 541l187 525h10l186 -525h-383zM70 0h418v82h-153l135 378h431l136 -378h-152v-82h427v82h-145l-366 988h139v82h-496v-82h136l-361 -988h-149v-82z" />
    <glyph glyph-name="Acircumflex" unicode="&#xc2;" horiz-adv-x="1382" 
d="M546 1271l141 260l141 -260h87l-172 316h-113l-170 -316h86zM494 541l187 525h10l186 -525h-383zM70 0h418v82h-153l135 378h431l136 -378h-152v-82h427v82h-145l-366 988h139v82h-496v-82h136l-361 -988h-149v-82z" />
    <glyph glyph-name="Atilde" unicode="&#xc3;" horiz-adv-x="1382" 
d="M814 1282c85 0 114 66 123 159h-48c-14 -61 -34 -75 -71 -75c-61 0 -167 79 -244 79c-73 0 -117 -52 -128 -158h49c12 57 29 74 64 74c66 0 164 -79 255 -79zM494 541l187 525h10l186 -525h-383zM70 0h418v82h-153l135 378h431l136 -378h-152v-82h427v82h-145l-366 988
h139v82h-496v-82h136l-361 -988h-149v-82z" />
    <glyph glyph-name="Adieresis" unicode="&#xc4;" horiz-adv-x="1382" 
d="M504 1288c44 0 73 27 73 70c0 42 -29 69 -73 69s-72 -27 -72 -69c0 -43 28 -70 72 -70zM868 1287c44 0 73 27 73 70c0 42 -28 70 -73 70c-44 0 -72 -28 -72 -70c0 -43 28 -70 72 -70zM494 541l187 525h10l186 -525h-383zM70 0h418v82h-153l135 378h431l136 -378h-152v-82
h427v82h-145l-366 988h139v82h-496v-82h136l-361 -988h-149v-82z" />
    <glyph glyph-name="Aring" unicode="&#xc5;" horiz-adv-x="1382" 
d="M693 1229c90 0 144 59 144 139c0 77 -53 134 -145 134c-91 0 -144 -57 -144 -134c0 -80 54 -139 145 -139zM693 1279c-56 0 -88 37 -88 88c0 49 32 85 88 85c55 0 87 -36 87 -85c0 -51 -32 -88 -87 -88zM494 541l187 525h10l186 -525h-383zM70 0h418v82h-153l135 378h431
l136 -378h-152v-82h427v82h-145l-366 988h139v82h-496v-82h136l-361 -988h-149v-82z" />
    <glyph glyph-name="AE" unicode="&#xc6;" horiz-adv-x="2078" 
d="M91 0h440v82h-144l196 344h444l36 -344h-159v-82h1024l-36 377h-96l31 -295h-641l-46 454h396l22 -162h66l-42 399h-67l17 -151h-396l-46 448h608l32 -293h96l-35 375h-1080v-82h131l-587 -988h-164v-82zM624 504l328 566h16l56 -566h-400z" />
    <glyph glyph-name="Ccedilla" unicode="&#xc7;" horiz-adv-x="1380" 
d="M697 -328c72 0 132 30 132 105c0 54 -39 105 -139 110l34 119h-54l-61 -160c86 -3 119 -26 119 -58c0 -36 -30 -53 -77 -53c-29 0 -65 7 -102 18v-47c46 -21 100 -34 148 -34zM708 -22c230 1 428 80 536 310l-88 47c-88 -197 -266 -265 -441 -265
c-258 0 -484 184 -484 510c0 272 182 501 484 501c210 0 338 -84 430 -274l84 9v337h-95v-190c-89 129 -213 210 -426 210c-362 0 -600 -256 -600 -594c0 -381 274 -600 600 -601z" />
    <glyph glyph-name="Egrave" unicode="&#xc8;" horiz-adv-x="1204" 
d="M611 1329h70l-101 279h-126zM978 816h97v336h-977v-82h166v-988h-166v-82h993v342h-97v-260h-608v468h386v-155h67v390h-68v-149h-385v434h592v-254z" />
    <glyph glyph-name="Eacute" unicode="&#xc9;" horiz-adv-x="1204" 
d="M978 816h97v336h-977v-82h166v-988h-166v-82h993v342h-97v-260h-608v468h386v-155h67v390h-68v-149h-385v434h592v-254zM719 1608l-101 -279h69l157 279h-125z" />
    <glyph glyph-name="Ecircumflex" unicode="&#xca;" horiz-adv-x="1204" 
d="M978 816h97v336h-977v-82h166v-988h-166v-82h993v342h-97v-260h-608v468h386v-155h67v390h-68v-149h-385v434h592v-254zM503 1271l141 260l141 -260h87l-172 316h-113l-170 -316h86z" />
    <glyph glyph-name="Edieresis" unicode="&#xcb;" horiz-adv-x="1204" 
d="M978 816h97v336h-977v-82h166v-988h-166v-82h993v342h-97v-260h-608v468h386v-155h67v390h-68v-149h-385v434h592v-254zM461 1288c44 0 73 27 73 70c0 42 -29 69 -73 69s-72 -27 -72 -69c0 -43 28 -70 72 -70zM825 1287c44 0 73 27 73 70c0 42 -28 70 -73 70
c-44 0 -72 -28 -72 -70c0 -43 28 -70 72 -70z" />
    <glyph glyph-name="Igrave" unicode="&#xcc;" horiz-adv-x="670" 
d="M298 1329h70l-101 279h-126zM107 0h455v82h-166v988h166v82h-455v-82h166v-988h-166v-82z" />
    <glyph glyph-name="Iacute" unicode="&#xcd;" horiz-adv-x="670" 
d="M406 1608l-101 -279h69l157 279h-125zM107 0h455v82h-166v988h166v82h-455v-82h166v-988h-166v-82z" />
    <glyph glyph-name="Icircumflex" unicode="&#xce;" horiz-adv-x="670" 
d="M191 1271l141 260l141 -260h87l-172 316h-113l-170 -316h86zM107 0h455v82h-166v988h166v82h-455v-82h166v-988h-166v-82z" />
    <glyph glyph-name="Idieresis" unicode="&#xcf;" horiz-adv-x="670" 
d="M148 1288c44 0 73 27 73 70c0 42 -29 69 -73 69s-72 -27 -72 -69c0 -43 28 -70 72 -70zM512 1287c44 0 73 27 73 70c0 42 -28 70 -73 70c-44 0 -72 -28 -72 -70c0 -43 28 -70 72 -70zM107 0h455v82h-166v988h166v82h-455v-82h166v-988h-166v-82z" />
    <glyph glyph-name="Eth" unicode="&#xd0;" horiz-adv-x="1413" 
d="M751 1152h-652v-82h166v-988h-166v-82h655c365 0 548 274 548 581c0 272 -175 571 -551 571zM388 1070h359c293 0 430 -251 430 -491c0 -260 -135 -497 -437 -497h-352v988zM92 563h501v86h-501v-86z" />
    <glyph glyph-name="Ntilde" unicode="&#xd1;" horiz-adv-x="1443" 
d="M841 1282c85 0 114 66 123 159h-48c-14 -61 -34 -75 -71 -75c-61 0 -167 79 -244 79c-73 0 -117 -52 -128 -158h49c12 57 29 74 64 74c66 0 164 -79 255 -79zM103 0h413v82h-158v933l752 -1015h121v1070h148v82h-405v-82h159v-905l-736 987h-294v-82h157v-988h-157v-82z
" />
    <glyph glyph-name="Ograve" unicode="&#xd2;" horiz-adv-x="1453" 
d="M686 1329h70l-101 279h-126zM726 70c-321 0 -485 236 -485 502c0 262 166 511 485 511c317 0 486 -249 486 -511c0 -260 -169 -502 -486 -502zM725 -22c395 0 617 286 617 594s-224 602 -616 602c-391 0 -615 -293 -615 -601s222 -595 614 -595z" />
    <glyph glyph-name="Oacute" unicode="&#xd3;" horiz-adv-x="1453" 
d="M726 70c-321 0 -485 236 -485 502c0 262 166 511 485 511c317 0 486 -249 486 -511c0 -260 -169 -502 -486 -502zM725 -22c395 0 617 286 617 594s-224 602 -616 602c-391 0 -615 -293 -615 -601s222 -595 614 -595zM794 1608l-101 -279h69l157 279h-125z" />
    <glyph glyph-name="Ocircumflex" unicode="&#xd4;" horiz-adv-x="1453" 
d="M726 70c-321 0 -485 236 -485 502c0 262 166 511 485 511c317 0 486 -249 486 -511c0 -260 -169 -502 -486 -502zM725 -22c395 0 617 286 617 594s-224 602 -616 602c-391 0 -615 -293 -615 -601s222 -595 614 -595zM578 1271l141 260l141 -260h87l-172 316h-113
l-170 -316h86z" />
    <glyph glyph-name="Otilde" unicode="&#xd5;" horiz-adv-x="1453" 
d="M846 1282c85 0 114 66 123 159h-48c-14 -61 -34 -75 -71 -75c-61 0 -167 79 -244 79c-73 0 -117 -52 -128 -158h49c12 57 29 74 64 74c66 0 164 -79 255 -79zM726 70c-321 0 -485 236 -485 502c0 262 166 511 485 511c317 0 486 -249 486 -511
c0 -260 -169 -502 -486 -502zM725 -22c395 0 617 286 617 594s-224 602 -616 602c-391 0 -615 -293 -615 -601s222 -595 614 -595z" />
    <glyph glyph-name="Odieresis" unicode="&#xd6;" horiz-adv-x="1453" 
d="M726 70c-321 0 -485 236 -485 502c0 262 166 511 485 511c317 0 486 -249 486 -511c0 -260 -169 -502 -486 -502zM725 -22c395 0 617 286 617 594s-224 602 -616 602c-391 0 -615 -293 -615 -601s222 -595 614 -595zM536 1288c44 0 73 27 73 70c0 42 -29 69 -73 69
s-72 -27 -72 -69c0 -43 28 -70 72 -70zM900 1287c44 0 73 27 73 70c0 42 -28 70 -73 70c-44 0 -72 -28 -72 -70c0 -43 28 -70 72 -70z" />
    <glyph glyph-name="multiply" unicode="&#xd7;" horiz-adv-x="734" 
d="M605 275l57 58l-233 233l236 235l-56 58l-238 -235l-234 231l-59 -58l235 -233l-237 -233l57 -57l237 234z" />
    <glyph glyph-name="Oslash" unicode="&#xd8;" horiz-adv-x="1531" 
d="M282 -74l972 1250l-57 41l-975 -1248zM730 64c-321 0 -485 236 -485 502c0 262 166 511 485 511c317 0 486 -249 486 -511c0 -260 -169 -502 -486 -502zM729 -28c395 0 617 286 617 594s-224 602 -616 602c-391 0 -615 -293 -615 -601s222 -595 614 -595z" />
    <glyph glyph-name="Ugrave" unicode="&#xd9;" horiz-adv-x="1423" 
d="M685 1329h70l-101 279h-126zM710 -21c296 0 504 146 504 412v679h156v82h-414v-82h151v-683c0 -194 -153 -316 -394 -316c-227 0 -369 124 -369 316v683h153v82h-429v-82h153v-670c0 -244 163 -421 489 -421z" />
    <glyph glyph-name="Uacute" unicode="&#xda;" horiz-adv-x="1423" 
d="M710 -21c296 0 504 146 504 412v679h156v82h-414v-82h151v-683c0 -194 -153 -316 -394 -316c-227 0 -369 124 -369 316v683h153v82h-429v-82h153v-670c0 -244 163 -421 489 -421zM793 1608l-101 -279h69l157 279h-125z" />
    <glyph glyph-name="Ucircumflex" unicode="&#xdb;" horiz-adv-x="1423" 
d="M710 -21c296 0 504 146 504 412v679h156v82h-414v-82h151v-683c0 -194 -153 -316 -394 -316c-227 0 -369 124 -369 316v683h153v82h-429v-82h153v-670c0 -244 163 -421 489 -421zM577 1271l141 260l141 -260h87l-172 316h-113l-170 -316h86z" />
    <glyph glyph-name="Udieresis" unicode="&#xdc;" horiz-adv-x="1423" 
d="M710 -21c296 0 504 146 504 412v679h156v82h-414v-82h151v-683c0 -194 -153 -316 -394 -316c-227 0 -369 124 -369 316v683h153v82h-429v-82h153v-670c0 -244 163 -421 489 -421zM535 1288c44 0 73 27 73 70c0 42 -29 69 -73 69s-72 -27 -72 -69c0 -43 28 -70 72 -70z
M899 1287c44 0 73 27 73 70c0 42 -28 70 -73 70c-44 0 -72 -28 -72 -70c0 -43 28 -70 72 -70z" />
    <glyph glyph-name="Yacute" unicode="&#xdd;" horiz-adv-x="1281" 
d="M720 1608l-101 -279h69l157 279h-125zM413 0h459v82h-169v400l397 588h155v82h-422v-82h153l-335 -504l-341 504h148v82h-435v-82h155l403 -588v-400h-168v-82z" />
    <glyph glyph-name="Thorn" unicode="&#xde;" horiz-adv-x="1163" 
d="M476 333h227c228 0 357 108 357 304c0 173 -131 276 -363 276h-376v-80h375c154 0 245 -73 246 -197c0 -147 -88 -228 -238 -228h-228v-75zM107 0h455v82h-166v988h166v82h-455v-82h166v-988h-166v-82z" />
    <glyph glyph-name="germandbls" unicode="&#xdf;" horiz-adv-x="1173" 
d="M80 0h393v85h-119v773c0 187 86 304 253 304c159 0 239 -79 239 -205c0 -148 -91 -243 -255 -249v-76c241 0 386 -104 386 -272c0 -175 -155 -275 -384 -275v-85c313 0 504 141 504 360c0 165 -110 293 -341 323c125 35 204 141 204 278c0 186 -131 289 -353 289
c-238 0 -374 -145 -374 -397v-768h-153v-85z" />
    <glyph glyph-name="agrave" unicode="&#xe0;" horiz-adv-x="940" 
d="M417 982h70l-101 279h-126zM386 56c-114 0 -179 75 -179 165c0 130 98 170 204 170c89 0 171 -16 249 -30v-209c-106 -66 -186 -96 -274 -96zM373 -22c103 0 192 32 292 98c0 0 12 -80 12 -76h220v82h-125v465c0 150 -98 279 -322 279c-88 0 -211 -26 -312 -80l35 -76
c85 42 193 71 277 71c125 0 210 -66 210 -209v-99c-86 16 -174 29 -256 29c-165 0 -306 -63 -306 -245c0 -138 109 -239 275 -239z" />
    <glyph glyph-name="aacute" unicode="&#xe1;" horiz-adv-x="940" 
d="M525 1261l-101 -279h69l157 279h-125zM386 56c-114 0 -179 75 -179 165c0 130 98 170 204 170c89 0 171 -16 249 -30v-209c-106 -66 -186 -96 -274 -96zM373 -22c103 0 192 32 292 98c0 0 12 -80 12 -76h220v82h-125v465c0 150 -98 279 -322 279c-88 0 -211 -26 -312 -80
l35 -76c85 42 193 71 277 71c125 0 210 -66 210 -209v-99c-86 16 -174 29 -256 29c-165 0 -306 -63 -306 -245c0 -138 109 -239 275 -239z" />
    <glyph glyph-name="acircumflex" unicode="&#xe2;" horiz-adv-x="940" 
d="M309 924l141 260l141 -260h87l-172 316h-113l-170 -316h86zM386 56c-114 0 -179 75 -179 165c0 130 98 170 204 170c89 0 171 -16 249 -30v-209c-106 -66 -186 -96 -274 -96zM373 -22c103 0 192 32 292 98c0 0 12 -80 12 -76h220v82h-125v465c0 150 -98 279 -322 279
c-88 0 -211 -26 -312 -80l35 -76c85 42 193 71 277 71c125 0 210 -66 210 -209v-99c-86 16 -174 29 -256 29c-165 0 -306 -63 -306 -245c0 -138 109 -239 275 -239z" />
    <glyph glyph-name="atilde" unicode="&#xe3;" horiz-adv-x="940" 
d="M577 935c85 0 114 66 123 159h-48c-14 -61 -34 -75 -71 -75c-61 0 -167 79 -244 79c-73 0 -117 -52 -128 -158h49c12 57 29 74 64 74c66 0 164 -79 255 -79zM386 56c-114 0 -179 75 -179 165c0 130 98 170 204 170c89 0 171 -16 249 -30v-209c-106 -66 -186 -96 -274 -96
zM373 -22c103 0 192 32 292 98c0 0 12 -80 12 -76h220v82h-125v465c0 150 -98 279 -322 279c-88 0 -211 -26 -312 -80l35 -76c85 42 193 71 277 71c125 0 210 -66 210 -209v-99c-86 16 -174 29 -256 29c-165 0 -306 -63 -306 -245c0 -138 109 -239 275 -239z" />
    <glyph glyph-name="adieresis" unicode="&#xe4;" horiz-adv-x="940" 
d="M267 941c44 0 73 27 73 70c0 42 -29 69 -73 69s-72 -27 -72 -69c0 -43 28 -70 72 -70zM631 940c44 0 73 27 73 70c0 42 -28 70 -73 70c-44 0 -72 -28 -72 -70c0 -43 28 -70 72 -70zM386 56c-114 0 -179 75 -179 165c0 130 98 170 204 170c89 0 171 -16 249 -30v-209
c-106 -66 -186 -96 -274 -96zM373 -22c103 0 192 32 292 98c0 0 12 -80 12 -76h220v82h-125v465c0 150 -98 279 -322 279c-88 0 -211 -26 -312 -80l35 -76c85 42 193 71 277 71c125 0 210 -66 210 -209v-99c-86 16 -174 29 -256 29c-165 0 -306 -63 -306 -245
c0 -138 109 -239 275 -239z" />
    <glyph glyph-name="aring" unicode="&#xe5;" horiz-adv-x="940" 
d="M456 882c90 0 144 59 144 139c0 77 -53 134 -145 134c-91 0 -144 -57 -144 -134c0 -80 54 -139 145 -139zM456 932c-56 0 -88 37 -88 88c0 49 32 85 88 85c55 0 87 -36 87 -85c0 -51 -32 -88 -87 -88zM386 56c-114 0 -179 75 -179 165c0 130 98 170 204 170
c89 0 171 -16 249 -30v-209c-106 -66 -186 -96 -274 -96zM373 -22c103 0 192 32 292 98c0 0 12 -80 12 -76h220v82h-125v465c0 150 -98 279 -322 279c-88 0 -211 -26 -312 -80l35 -76c85 42 193 71 277 71c125 0 210 -66 210 -209v-99c-86 16 -174 29 -256 29
c-165 0 -306 -63 -306 -245c0 -138 109 -239 275 -239z" />
    <glyph glyph-name="ae" unicode="&#xe6;" horiz-adv-x="1568" 
d="M403 -22c109 0 241 17 378 125c77 -86 185 -124 315 -124c170 0 271 57 367 157l-41 69c-98 -95 -210 -139 -323 -139c-198 0 -298 114 -301 314h665c0 282 -144 446 -371 446c-153 0 -287 -73 -333 -208c-24 138 -121 208 -294 208c-124 0 -248 -40 -328 -109l40 -71
c73 57 182 95 284 95c144 0 223 -58 223 -212v-90c-29 6 -170 10 -198 10c-213 0 -378 -52 -378 -233c0 -172 142 -238 295 -238zM416 53c-122 0 -202 49 -202 166c0 131 114 159 276 159c24 0 171 -5 195 -7c3 -61 19 -145 49 -205c-77 -73 -178 -113 -318 -113zM1354 451
l-555 1c12 154 110 290 293 290c162 0 257 -113 262 -291z" />
    <glyph glyph-name="ccedilla" unicode="&#xe7;" horiz-adv-x="958" 
d="M467 -328c72 0 132 30 132 105c0 54 -39 105 -139 110l34 119h-54l-61 -160c86 -3 119 -26 119 -58c0 -36 -30 -53 -77 -53c-29 0 -65 7 -102 18v-47c46 -21 100 -34 148 -34zM173 408c0 193 136 330 328 330c134 0 235 -78 257 -197h87v265h-98v-101
c-35 69 -146 121 -257 121c-253 0 -433 -174 -433 -419c0 -251 178 -428 428 -428c160 0 276 60 361 160l-41 74c-83 -91 -168 -145 -310 -145c-190 0 -322 141 -322 340z" />
    <glyph glyph-name="egrave" unicode="&#xe8;" horiz-adv-x="955" 
d="M447 981h70l-101 279h-126zM174 450c11 176 141 292 299 292c142 0 266 -100 284 -292h-583zM490 -21c139 0 275 58 362 150l-40 73c-73 -77 -193 -136 -318 -136c-162 0 -311 114 -321 312h695c-4 302 -194 448 -395 448c-223 0 -418 -156 -418 -424
c0 -259 198 -423 435 -423z" />
    <glyph glyph-name="eacute" unicode="&#xe9;" horiz-adv-x="955" 
d="M174 450c11 176 141 292 299 292c142 0 266 -100 284 -292h-583zM490 -21c139 0 275 58 362 150l-40 73c-73 -77 -193 -136 -318 -136c-162 0 -311 114 -321 312h695c-4 302 -194 448 -395 448c-223 0 -418 -156 -418 -424c0 -259 198 -423 435 -423zM555 1260l-101 -279
h69l157 279h-125z" />
    <glyph glyph-name="ecircumflex" unicode="&#xea;" horiz-adv-x="955" 
d="M174 450c11 176 141 292 299 292c142 0 266 -100 284 -292h-583zM490 -21c139 0 275 58 362 150l-40 73c-73 -77 -193 -136 -318 -136c-162 0 -311 114 -321 312h695c-4 302 -194 448 -395 448c-223 0 -418 -156 -418 -424c0 -259 198 -423 435 -423zM339 923l141 260
l141 -260h87l-172 316h-113l-170 -316h86z" />
    <glyph glyph-name="edieresis" unicode="&#xeb;" horiz-adv-x="955" 
d="M174 450c11 176 141 292 299 292c142 0 266 -100 284 -292h-583zM490 -21c139 0 275 58 362 150l-40 73c-73 -77 -193 -136 -318 -136c-162 0 -311 114 -321 312h695c-4 302 -194 448 -395 448c-223 0 -418 -156 -418 -424c0 -259 198 -423 435 -423zM297 940
c44 0 73 27 73 70c0 42 -29 69 -73 69s-72 -27 -72 -69c0 -43 28 -70 72 -70zM661 939c44 0 73 27 73 70c0 42 -28 70 -73 70c-44 0 -72 -28 -72 -70c0 -43 28 -70 72 -70z" />
    <glyph glyph-name="igrave" unicode="&#xec;" horiz-adv-x="594" 
d="M277 981h70l-101 279h-126zM113 0h433v82h-156v722h-275v-82h163v-640h-165v-82z" />
    <glyph glyph-name="iacute" unicode="&#xed;" horiz-adv-x="594" 
d="M113 0h433v82h-156v722h-275v-82h163v-640h-165v-82zM385 1260l-101 -279h69l157 279h-125z" />
    <glyph glyph-name="icircumflex" unicode="&#xee;" horiz-adv-x="594" 
d="M113 0h433v82h-156v722h-275v-82h163v-640h-165v-82zM169 923l141 260l141 -260h87l-172 316h-113l-170 -316h86z" />
    <glyph glyph-name="idieresis" unicode="&#xef;" horiz-adv-x="594" 
d="M113 0h433v82h-156v722h-275v-82h163v-640h-165v-82zM127 940c44 0 73 27 73 70c0 42 -29 69 -73 69s-72 -27 -72 -69c0 -43 28 -70 72 -70zM491 939c44 0 73 27 73 70c0 42 -28 70 -73 70c-44 0 -72 -28 -72 -70c0 -43 28 -70 72 -70z" />
    <glyph glyph-name="eth" unicode="&#xf0;" horiz-adv-x="947" 
d="M473 -21c224 0 400 162 400 419c0 438 -404 746 -672 966l-59 -69c206 -162 446 -358 554 -586c-44 40 -135 86 -242 86c-206 0 -384 -165 -384 -369c0 -237 134 -447 403 -447zM474 71c-198 0 -295 167 -295 337c0 199 136 303 287 303s302 -98 302 -309
c0 -163 -85 -331 -294 -331zM206 896l583 258l-38 70l-582 -255z" />
    <glyph glyph-name="ntilde" unicode="&#xf1;" horiz-adv-x="1041" 
d="M714 934c85 0 114 66 123 159h-48c-14 -61 -34 -75 -71 -75c-61 0 -167 79 -244 79c-73 0 -117 -52 -128 -158h49c12 57 29 74 64 74c66 0 164 -79 255 -79zM41 0h433v82h-156v559c106 59 212 95 284 95c106 0 172 -66 172 -180v-474h-151v-82h413v82h-150v484
c0 165 -110 260 -256 260c-94 0 -206 -42 -312 -107v85h-275v-82h163v-640h-165v-82z" />
    <glyph glyph-name="ograve" unicode="&#xf2;" horiz-adv-x="980" 
d="M488 -22c256 0 436 177 436 428c0 246 -180 420 -435 420c-254 0 -434 -174 -434 -420c0 -251 179 -428 433 -428zM488 67c-186 0 -317 140 -317 338c0 195 131 332 317 332c187 0 320 -137 320 -331c0 -198 -133 -339 -320 -339zM448 982h70l-101 279h-126z" />
    <glyph glyph-name="oacute" unicode="&#xf3;" horiz-adv-x="980" 
d="M488 -22c256 0 436 177 436 428c0 246 -180 420 -435 420c-254 0 -434 -174 -434 -420c0 -251 179 -428 433 -428zM488 67c-186 0 -317 140 -317 338c0 195 131 332 317 332c187 0 320 -137 320 -331c0 -198 -133 -339 -320 -339zM556 1261l-101 -279h69l157 279h-125z
" />
    <glyph glyph-name="ocircumflex" unicode="&#xf4;" horiz-adv-x="980" 
d="M488 -22c256 0 436 177 436 428c0 246 -180 420 -435 420c-254 0 -434 -174 -434 -420c0 -251 179 -428 433 -428zM488 67c-186 0 -317 140 -317 338c0 195 131 332 317 332c187 0 320 -137 320 -331c0 -198 -133 -339 -320 -339zM340 924l141 260l141 -260h87l-172 316
h-113l-170 -316h86z" />
    <glyph glyph-name="otilde" unicode="&#xf5;" horiz-adv-x="980" 
d="M608 935c85 0 114 66 123 159h-48c-14 -61 -34 -75 -71 -75c-61 0 -167 79 -244 79c-73 0 -117 -52 -128 -158h49c12 57 29 74 64 74c66 0 164 -79 255 -79zM488 -22c256 0 436 177 436 428c0 246 -180 420 -435 420c-254 0 -434 -174 -434 -420
c0 -251 179 -428 433 -428zM488 67c-186 0 -317 140 -317 338c0 195 131 332 317 332c187 0 320 -137 320 -331c0 -198 -133 -339 -320 -339z" />
    <glyph glyph-name="odieresis" unicode="&#xf6;" horiz-adv-x="980" 
d="M488 -22c256 0 436 177 436 428c0 246 -180 420 -435 420c-254 0 -434 -174 -434 -420c0 -251 179 -428 433 -428zM488 67c-186 0 -317 140 -317 338c0 195 131 332 317 332c187 0 320 -137 320 -331c0 -198 -133 -339 -320 -339zM298 941c44 0 73 27 73 70
c0 42 -29 69 -73 69s-72 -27 -72 -69c0 -43 28 -70 72 -70zM662 940c44 0 73 27 73 70c0 42 -28 70 -73 70c-44 0 -72 -28 -72 -70c0 -43 28 -70 72 -70z" />
    <glyph glyph-name="divide" unicode="&#xf7;" horiz-adv-x="794" 
d="M344 219h108v134h-108v-134zM82 493h630v73h-630v-73zM344 698h108v134h-108v-134z" />
    <glyph glyph-name="oslash" unicode="&#xf8;" horiz-adv-x="1000" 
d="M227 -135l592 1030l-53 28l-592 -1029zM488 -22c256 0 436 177 436 428c0 246 -180 420 -435 420c-254 0 -434 -174 -434 -420c0 -251 179 -428 433 -428zM488 67c-186 0 -317 140 -317 338c0 195 131 332 317 332c187 0 320 -137 320 -331c0 -198 -133 -339 -320 -339z
" />
    <glyph glyph-name="ugrave" unicode="&#xf9;" 
d="M451 981h70l-101 279h-126zM432 -21c113 0 216 47 313 120l5 -99h256v81h-150v723h-260v-82h147v-537c-87 -71 -176 -117 -289 -117c-117 0 -168 77 -168 176v560h-258v-82h145v-489c0 -121 63 -254 259 -254z" />
    <glyph glyph-name="uacute" unicode="&#xfa;" 
d="M432 -21c113 0 216 47 313 120l5 -99h256v81h-150v723h-260v-82h147v-537c-87 -71 -176 -117 -289 -117c-117 0 -168 77 -168 176v560h-258v-82h145v-489c0 -121 63 -254 259 -254zM559 1260l-101 -279h69l157 279h-125z" />
    <glyph glyph-name="ucircumflex" unicode="&#xfb;" 
d="M432 -21c113 0 216 47 313 120l5 -99h256v81h-150v723h-260v-82h147v-537c-87 -71 -176 -117 -289 -117c-117 0 -168 77 -168 176v560h-258v-82h145v-489c0 -121 63 -254 259 -254zM343 923l141 260l141 -260h87l-172 316h-113l-170 -316h86z" />
    <glyph glyph-name="udieresis" unicode="&#xfc;" 
d="M432 -21c113 0 216 47 313 120l5 -99h256v81h-150v723h-260v-82h147v-537c-87 -71 -176 -117 -289 -117c-117 0 -168 77 -168 176v560h-258v-82h145v-489c0 -121 63 -254 259 -254zM301 940c44 0 73 27 73 70c0 42 -29 69 -73 69s-72 -27 -72 -69c0 -43 28 -70 72 -70z
M665 939c44 0 73 27 73 70c0 42 -28 70 -73 70c-44 0 -72 -28 -72 -70c0 -43 28 -70 72 -70z" />
    <glyph glyph-name="yacute" unicode="&#xfd;" horiz-adv-x="1065" 
d="M625 1260l-101 -279h69l157 279h-125zM218 -294h96c180 0 217 65 282 226l328 790h131v82h-396v-82h152l-244 -600l-266 600h130v82h-401v-82h156l305 -667h52l-51 -129c-42 -112 -76 -127 -187 -127h-87v-93z" />
    <glyph glyph-name="thorn" unicode="&#xfe;" horiz-adv-x="1075" 
d="M48 -322h394v83h-141v346c78 -77 185 -119 289 -119c237 0 419 161 419 435c0 262 -169 412 -399 412c-104 0 -217 -42 -309 -116v433h-264v-84h150v-1307h-139v-83zM573 73c-93 0 -196 42 -272 117v440c87 76 192 118 282 118c183 0 310 -125 310 -338
c0 -215 -132 -337 -320 -337z" />
    <glyph glyph-name="ydieresis" unicode="&#xff;" horiz-adv-x="1065" 
d="M218 -294h96c180 0 217 65 282 226l328 790h131v82h-396v-82h152l-244 -600l-266 600h130v82h-401v-82h156l305 -667h52l-51 -129c-42 -112 -76 -127 -187 -127h-87v-93zM367 940c44 0 73 27 73 70c0 42 -29 69 -73 69s-72 -27 -72 -69c0 -43 28 -70 72 -70zM731 939
c44 0 73 27 73 70c0 42 -28 70 -73 70c-44 0 -72 -28 -72 -70c0 -43 28 -70 72 -70z" />
    <glyph glyph-name="Amacron" unicode="&#x100;" horiz-adv-x="1382" 
d="M482 1282h408v71h-408v-71zM494 541l187 525h10l186 -525h-383zM70 0h418v82h-153l135 378h431l136 -378h-152v-82h427v82h-145l-366 988h139v82h-496v-82h136l-361 -988h-149v-82z" />
    <glyph glyph-name="amacron" unicode="&#x101;" horiz-adv-x="940" 
d="M245 935h408v71h-408v-71zM386 56c-114 0 -179 75 -179 165c0 130 98 170 204 170c89 0 171 -16 249 -30v-209c-106 -66 -186 -96 -274 -96zM373 -22c103 0 192 32 292 98c0 0 12 -80 12 -76h220v82h-125v465c0 150 -98 279 -322 279c-88 0 -211 -26 -312 -80l35 -76
c85 42 193 71 277 71c125 0 210 -66 210 -209v-99c-86 16 -174 29 -256 29c-165 0 -306 -63 -306 -245c0 -138 109 -239 275 -239z" />
    <glyph glyph-name="Abreve" unicode="&#x102;" horiz-adv-x="1382" 
d="M690 1273c107 0 177 66 192 177h-75c-15 -69 -56 -105 -117 -105c-63 0 -102 36 -118 105h-74c15 -112 87 -177 192 -177zM494 541l187 525h10l186 -525h-383zM70 0h418v82h-153l135 378h431l136 -378h-152v-82h427v82h-145l-366 988h139v82h-496v-82h136l-361 -988h-149
v-82z" />
    <glyph glyph-name="abreve" unicode="&#x103;" horiz-adv-x="940" 
d="M454 926c107 0 177 66 192 177h-75c-15 -69 -56 -105 -117 -105c-63 0 -102 36 -118 105h-74c15 -112 87 -177 192 -177zM386 56c-114 0 -179 75 -179 165c0 130 98 170 204 170c89 0 171 -16 249 -30v-209c-106 -66 -186 -96 -274 -96zM373 -22c103 0 192 32 292 98
c0 0 12 -80 12 -76h220v82h-125v465c0 150 -98 279 -322 279c-88 0 -211 -26 -312 -80l35 -76c85 42 193 71 277 71c125 0 210 -66 210 -209v-99c-86 16 -174 29 -256 29c-165 0 -306 -63 -306 -245c0 -138 109 -239 275 -239z" />
    <glyph glyph-name="Aogonek" unicode="&#x104;" horiz-adv-x="1382" 
d="M1157 -328c41 0 78 11 121 37v66c-31 -20 -61 -29 -93 -29c-57 0 -95 33 -95 100c0 47 26 103 80 158h-69c-66 -69 -95 -134 -95 -189c0 -89 67 -143 151 -143zM494 541l187 525h10l186 -525h-383zM70 0h418v82h-153l135 378h431l136 -378h-152v-82h427v82h-145l-366 988
h139v82h-496v-82h136l-361 -988h-149v-82z" />
    <glyph glyph-name="aogonek" unicode="&#x105;" horiz-adv-x="940" 
d="M818 -328c41 0 78 11 121 37v66c-31 -20 -61 -29 -93 -29c-57 0 -95 33 -95 100c0 47 26 103 80 158h-69c-66 -69 -95 -134 -95 -189c0 -89 67 -143 151 -143zM386 56c-114 0 -179 75 -179 165c0 130 98 170 204 170c89 0 171 -16 249 -30v-209
c-106 -66 -186 -96 -274 -96zM373 -22c103 0 192 32 292 98c0 0 12 -80 12 -76h220v82h-125v465c0 150 -98 279 -322 279c-88 0 -211 -26 -312 -80l35 -76c85 42 193 71 277 71c125 0 210 -66 210 -209v-99c-86 16 -174 29 -256 29c-165 0 -306 -63 -306 -245
c0 -138 109 -239 275 -239z" />
    <glyph glyph-name="Cacute" unicode="&#x106;" horiz-adv-x="1380" 
d="M708 -22c230 1 428 80 536 310l-88 47c-88 -197 -266 -265 -441 -265c-258 0 -484 184 -484 510c0 272 182 501 484 501c210 0 338 -84 430 -274l84 9v337h-95v-190c-89 129 -213 210 -426 210c-362 0 -600 -256 -600 -594c0 -381 274 -600 600 -601zM787 1608l-101 -279
h69l157 279h-125z" />
    <glyph glyph-name="cacute" unicode="&#x107;" horiz-adv-x="958" 
d="M173 408c0 193 136 330 328 330c134 0 235 -78 257 -197h87v265h-98v-101c-35 69 -146 121 -257 121c-253 0 -433 -174 -433 -419c0 -251 178 -428 428 -428c160 0 276 60 361 160l-41 74c-83 -91 -168 -145 -310 -145c-190 0 -322 141 -322 340zM563 1261l-101 -279h69
l157 279h-125z" />
    <glyph glyph-name="Ccircumflex" unicode="&#x108;" horiz-adv-x="1380" 
d="M708 -22c230 1 428 80 536 310l-88 47c-88 -197 -266 -265 -441 -265c-258 0 -484 184 -484 510c0 272 182 501 484 501c210 0 338 -84 430 -274l84 9v337h-95v-190c-89 129 -213 210 -426 210c-362 0 -600 -256 -600 -594c0 -381 274 -600 600 -601zM571 1271l141 260
l141 -260h87l-172 316h-113l-170 -316h86z" />
    <glyph glyph-name="ccircumflex" unicode="&#x109;" horiz-adv-x="958" 
d="M173 408c0 193 136 330 328 330c134 0 235 -78 257 -197h87v265h-98v-101c-35 69 -146 121 -257 121c-253 0 -433 -174 -433 -419c0 -251 178 -428 428 -428c160 0 276 60 361 160l-41 74c-83 -91 -168 -145 -310 -145c-190 0 -322 141 -322 340zM348 924l141 260
l141 -260h87l-172 316h-113l-170 -316h86z" />
    <glyph glyph-name="Cdotaccent" unicode="&#x10a;" horiz-adv-x="1380" 
d="M717 1343c50 0 88 35 88 82c0 46 -38 81 -88 81c-49 0 -86 -35 -86 -81c0 -47 37 -82 86 -82zM708 -22c230 1 428 80 536 310l-88 47c-88 -197 -266 -265 -441 -265c-258 0 -484 184 -484 510c0 272 182 501 484 501c210 0 338 -84 430 -274l84 9v337h-95v-190
c-89 129 -213 210 -426 210c-362 0 -600 -256 -600 -594c0 -381 274 -600 600 -601z" />
    <glyph glyph-name="cdotaccent" unicode="&#x10b;" horiz-adv-x="958" 
d="M494 996c50 0 88 35 88 82c0 46 -38 81 -88 81c-49 0 -86 -35 -86 -81c0 -47 37 -82 86 -82zM173 408c0 193 136 330 328 330c134 0 235 -78 257 -197h87v265h-98v-101c-35 69 -146 121 -257 121c-253 0 -433 -174 -433 -419c0 -251 178 -428 428 -428
c160 0 276 60 361 160l-41 74c-83 -91 -168 -145 -310 -145c-190 0 -322 141 -322 340z" />
    <glyph glyph-name="Ccaron" unicode="&#x10c;" horiz-adv-x="1380" 
d="M708 -22c230 1 428 80 536 310l-88 47c-88 -197 -266 -265 -441 -265c-258 0 -484 184 -484 510c0 272 182 501 484 501c210 0 338 -84 430 -274l84 9v337h-95v-190c-89 129 -213 210 -426 210c-362 0 -600 -256 -600 -594c0 -381 274 -600 600 -601zM666 1270h101
l166 307h-82l-134 -238l-138 238h-83z" />
    <glyph glyph-name="ccaron" unicode="&#x10d;" horiz-adv-x="958" 
d="M173 408c0 193 136 330 328 330c134 0 235 -78 257 -197h87v265h-98v-101c-35 69 -146 121 -257 121c-253 0 -433 -174 -433 -419c0 -251 178 -428 428 -428c160 0 276 60 361 160l-41 74c-83 -91 -168 -145 -310 -145c-190 0 -322 141 -322 340zM442 923h101l166 307
h-82l-134 -238l-138 238h-83z" />
    <glyph glyph-name="Dcaron" unicode="&#x10e;" horiz-adv-x="1413" 
d="M751 1152h-652v-82h166v-988h-166v-82h655c365 0 548 274 548 581c0 272 -175 571 -551 571zM388 1070h359c293 0 430 -251 430 -491c0 -260 -135 -497 -437 -497h-352v988zM568 1270h101l166 307h-82l-134 -238l-138 238h-83z" />
    <glyph glyph-name="dcaron" unicode="&#x10f;" horiz-adv-x="1036" 
d="M749 0h246v82h-132v1092h-253v-82h139v-362c-82 59 -192 96 -292 96c-222 0 -398 -159 -398 -423c0 -261 187 -425 418 -425c93 0 195 36 272 94v-72zM749 648v-494c-73 -55 -169 -90 -252 -90c-183 0 -321 126 -321 329c0 216 126 347 300 347c90 0 193 -35 273 -92z
M968 836c121 0 163 78 163 186v152h-155v-144h88c0 -82 -21 -134 -96 -144v-50z" />
    <glyph glyph-name="Dcroat" unicode="&#x110;" horiz-adv-x="1413" 
d="M751 1152h-652v-82h166v-988h-166v-82h655c365 0 548 274 548 581c0 272 -175 571 -551 571zM388 1070h359c293 0 430 -251 430 -491c0 -260 -135 -497 -437 -497h-352v988zM92 563h501v86h-501v-86z" />
    <glyph glyph-name="dcroat" unicode="&#x111;" horiz-adv-x="1036" 
d="M749 0h246v82h-132v1092h-253v-82h139v-362c-82 59 -192 96 -292 96c-222 0 -398 -159 -398 -423c0 -261 187 -425 418 -425c93 0 195 36 272 94v-72zM749 648v-494c-73 -55 -169 -90 -252 -90c-183 0 -321 126 -321 329c0 216 126 347 300 347c90 0 193 -35 273 -92z
M596 911h408v71h-408v-71z" />
    <glyph glyph-name="Emacron" unicode="&#x112;" horiz-adv-x="1204" 
d="M439 1282h408v71h-408v-71zM978 816h97v336h-977v-82h166v-988h-166v-82h993v342h-97v-260h-608v468h386v-155h67v390h-68v-149h-385v434h592v-254z" />
    <glyph glyph-name="emacron" unicode="&#x113;" horiz-adv-x="955" 
d="M275 934h408v71h-408v-71zM174 450c11 176 141 292 299 292c142 0 266 -100 284 -292h-583zM490 -21c139 0 275 58 362 150l-40 73c-73 -77 -193 -136 -318 -136c-162 0 -311 114 -321 312h695c-4 302 -194 448 -395 448c-223 0 -418 -156 -418 -424
c0 -259 198 -423 435 -423z" />
    <glyph glyph-name="Ebreve" unicode="&#x114;" horiz-adv-x="1204" 
d="M647 1273c107 0 177 66 192 177h-75c-15 -69 -56 -105 -117 -105c-63 0 -102 36 -118 105h-74c15 -112 87 -177 192 -177zM978 816h97v336h-977v-82h166v-988h-166v-82h993v342h-97v-260h-608v468h386v-155h67v390h-68v-149h-385v434h592v-254z" />
    <glyph glyph-name="ebreve" unicode="&#x115;" horiz-adv-x="955" 
d="M483 925c107 0 177 66 192 177h-75c-15 -69 -56 -105 -117 -105c-63 0 -102 36 -118 105h-74c15 -112 87 -177 192 -177zM174 450c11 176 141 292 299 292c142 0 266 -100 284 -292h-583zM490 -21c139 0 275 58 362 150l-40 73c-73 -77 -193 -136 -318 -136
c-162 0 -311 114 -321 312h695c-4 302 -194 448 -395 448c-223 0 -418 -156 -418 -424c0 -259 198 -423 435 -423z" />
    <glyph glyph-name="Edotaccent" unicode="&#x116;" horiz-adv-x="1204" 
d="M649 1343c50 0 88 35 88 82c0 46 -38 81 -88 81c-49 0 -86 -35 -86 -81c0 -47 37 -82 86 -82zM978 816h97v336h-977v-82h166v-988h-166v-82h993v342h-97v-260h-608v468h386v-155h67v390h-68v-149h-385v434h592v-254z" />
    <glyph glyph-name="edotaccent" unicode="&#x117;" horiz-adv-x="955" 
d="M486 995c50 0 88 35 88 82c0 46 -38 81 -88 81c-49 0 -86 -35 -86 -81c0 -47 37 -82 86 -82zM174 450c11 176 141 292 299 292c142 0 266 -100 284 -292h-583zM490 -21c139 0 275 58 362 150l-40 73c-73 -77 -193 -136 -318 -136c-162 0 -311 114 -321 312h695
c-4 302 -194 448 -395 448c-223 0 -418 -156 -418 -424c0 -259 198 -423 435 -423z" />
    <glyph glyph-name="Eogonek" unicode="&#x118;" horiz-adv-x="1204" 
d="M978 816h97v336h-977v-82h166v-988h-166v-82h993v342h-97v-260h-608v468h386v-155h67v390h-68v-149h-385v434h592v-254zM755 -328c41 0 78 11 121 37v66c-31 -20 -61 -29 -93 -29c-57 0 -95 33 -95 100c0 47 26 103 80 158h-69c-66 -69 -95 -134 -95 -189
c0 -89 67 -143 151 -143z" />
    <glyph glyph-name="eogonek" unicode="&#x119;" horiz-adv-x="955" 
d="M174 450c11 176 141 292 299 292c142 0 266 -100 284 -292h-583zM490 -21c139 0 275 58 362 150l-40 73c-73 -77 -193 -136 -318 -136c-162 0 -311 114 -321 312h695c-4 302 -194 448 -395 448c-223 0 -418 -156 -418 -424c0 -259 198 -423 435 -423zM580 -328
c41 0 78 11 121 37v66c-31 -20 -61 -29 -93 -29c-57 0 -95 33 -95 100c0 47 26 103 80 158h-69c-66 -69 -95 -134 -95 -189c0 -89 67 -143 151 -143z" />
    <glyph glyph-name="Ecaron" unicode="&#x11a;" horiz-adv-x="1204" 
d="M978 816h97v336h-977v-82h166v-988h-166v-82h993v342h-97v-260h-608v468h386v-155h67v390h-68v-149h-385v434h592v-254zM598 1270h101l166 307h-82l-134 -238l-138 238h-83z" />
    <glyph glyph-name="ecaron" unicode="&#x11b;" horiz-adv-x="955" 
d="M174 450c11 176 141 292 299 292c142 0 266 -100 284 -292h-583zM490 -21c139 0 275 58 362 150l-40 73c-73 -77 -193 -136 -318 -136c-162 0 -311 114 -321 312h695c-4 302 -194 448 -395 448c-223 0 -418 -156 -418 -424c0 -259 198 -423 435 -423zM434 922h101
l166 307h-82l-134 -238l-138 238h-83z" />
    <glyph glyph-name="Gcircumflex" unicode="&#x11c;" horiz-adv-x="1399" 
d="M722 -21c272 0 562 128 564 589h-368v-86h247c-6 -305 -234 -409 -439 -411c-301 0 -490 199 -490 516c0 305 188 496 487 496c191 0 348 -95 424 -268h87v339h-101v-169c-90 119 -239 189 -413 189c-368 0 -614 -226 -614 -587c0 -373 242 -608 616 -608zM568 1271
l141 260l141 -260h87l-172 316h-113l-170 -316h86z" />
    <glyph glyph-name="gcircumflex" unicode="&#x11d;" horiz-adv-x="1037" 
d="M480 -381c235 0 398 107 398 364v739h135v82h-249v-82c-78 63 -195 102 -295 102c-231 0 -406 -156 -406 -414c0 -256 182 -417 417 -417c98 1 206 39 285 101v-123c0 -172 -101 -262 -286 -262c-79 0 -172 16 -274 46l-21 -88c102 -29 204 -48 296 -48zM764 643l1 -469
c-76 -59 -177 -96 -265 -96c-183 0 -321 123 -321 323c0 211 126 339 301 339c94 0 202 -38 284 -97zM351 923l141 260l141 -260h87l-172 316h-113l-170 -316h86z" />
    <glyph glyph-name="Gbreve" unicode="&#x11e;" horiz-adv-x="1399" 
d="M713 1273c107 0 177 66 192 177h-75c-15 -69 -56 -105 -117 -105c-63 0 -102 36 -118 105h-74c15 -112 87 -177 192 -177zM722 -21c272 0 562 128 564 589h-368v-86h247c-6 -305 -234 -409 -439 -411c-301 0 -490 199 -490 516c0 305 188 496 487 496
c191 0 348 -95 424 -268h87v339h-101v-169c-90 119 -239 189 -413 189c-368 0 -614 -226 -614 -587c0 -373 242 -608 616 -608z" />
    <glyph glyph-name="gbreve" unicode="&#x11f;" horiz-adv-x="1037" 
d="M495 925c107 0 177 66 192 177h-75c-15 -69 -56 -105 -117 -105c-63 0 -102 36 -118 105h-74c15 -112 87 -177 192 -177zM480 -381c235 0 398 107 398 364v739h135v82h-249v-82c-78 63 -195 102 -295 102c-231 0 -406 -156 -406 -414c0 -256 182 -417 417 -417
c98 1 206 39 285 101v-123c0 -172 -101 -262 -286 -262c-79 0 -172 16 -274 46l-21 -88c102 -29 204 -48 296 -48zM764 643l1 -469c-76 -59 -177 -96 -265 -96c-183 0 -321 123 -321 323c0 211 126 339 301 339c94 0 202 -38 284 -97z" />
    <glyph glyph-name="Gdotaccent" unicode="&#x120;" horiz-adv-x="1399" 
d="M715 1343c50 0 88 35 88 82c0 46 -38 81 -88 81c-49 0 -86 -35 -86 -81c0 -47 37 -82 86 -82zM722 -21c272 0 562 128 564 589h-368v-86h247c-6 -305 -234 -409 -439 -411c-301 0 -490 199 -490 516c0 305 188 496 487 496c191 0 348 -95 424 -268h87v339h-101v-169
c-90 119 -239 189 -413 189c-368 0 -614 -226 -614 -587c0 -373 242 -608 616 -608z" />
    <glyph glyph-name="gdotaccent" unicode="&#x121;" horiz-adv-x="1037" 
d="M480 -381c235 0 398 107 398 364v739h135v82h-249v-82c-78 63 -195 102 -295 102c-231 0 -406 -156 -406 -414c0 -256 182 -417 417 -417c98 1 206 39 285 101v-123c0 -172 -101 -262 -286 -262c-79 0 -172 16 -274 46l-21 -88c102 -29 204 -48 296 -48zM764 643l1 -469
c-76 -59 -177 -96 -265 -96c-183 0 -321 123 -321 323c0 211 126 339 301 339c94 0 202 -38 284 -97zM498 995c50 0 88 35 88 82c0 46 -38 81 -88 81c-49 0 -86 -35 -86 -81c0 -47 37 -82 86 -82z" />
    <glyph glyph-name="uni0122" unicode="&#x122;" horiz-adv-x="1399" 
d="M722 -21c272 0 562 128 564 589h-368v-86h247c-6 -305 -234 -409 -439 -411c-301 0 -490 199 -490 516c0 305 188 496 487 496c191 0 348 -95 424 -268h87v339h-101v-169c-90 119 -239 189 -413 189c-368 0 -614 -226 -614 -587c0 -373 242 -608 616 -608zM625 -453
c122 -1 164 78 163 185v153h-154v-145h88c0 -81 -21 -134 -97 -144v-49z" />
    <glyph glyph-name="uni0123" unicode="&#x123;" horiz-adv-x="1037" 
d="M480 -381c235 0 398 107 398 364v739h135v82h-249v-82c-78 63 -195 102 -295 102c-231 0 -406 -156 -406 -414c0 -256 182 -417 417 -417c98 1 206 39 285 101v-123c0 -172 -101 -262 -286 -262c-79 0 -172 16 -274 46l-21 -88c102 -29 204 -48 296 -48zM764 643l1 -469
c-76 -59 -177 -96 -265 -96c-183 0 -321 123 -321 323c0 211 126 339 301 339c94 0 202 -38 284 -97zM599 918v152h-89c0 96 27 122 94 134v49c-117 0 -161 -74 -160 -180l-1 -154z" />
    <glyph glyph-name="Hcircumflex" unicode="&#x124;" horiz-adv-x="1456" 
d="M98 0h455v82h-167v463h683v-463h-166v-82h455v82h-166v988h166v82h-455v-82h166v-438h-683v438h167v82h-455v-82h166v-988h-166v-82zM584 1271l141 260l141 -260h87l-172 316h-113l-170 -316h86z" />
    <glyph glyph-name="hcircumflex" unicode="&#x125;" horiz-adv-x="1029" 
d="M36 0h401v82h-138v554c99 59 203 100 293 100c104 0 170 -66 170 -180v-474h-150v-82h412v82h-150v484c0 165 -109 260 -257 260c-109 0 -210 -45 -318 -112v460h-257v-82h144v-1010h-150v-82zM428 1160l141 260l141 -260h87l-172 316h-113l-170 -316h86z" />
    <glyph glyph-name="Hbar" unicode="&#x126;" horiz-adv-x="1456" 
d="M153 837h1150v76h-1150v-76zM98 0h455v82h-167v463h683v-463h-166v-82h455v82h-166v988h166v82h-455v-82h166v-438h-683v438h167v82h-455v-82h166v-988h-166v-82z" />
    <glyph glyph-name="hbar" unicode="&#x127;" horiz-adv-x="1029" 
d="M42 907h408v71h-408v-71zM36 0h401v82h-138v554c99 59 203 100 293 100c104 0 170 -66 170 -180v-474h-150v-82h412v82h-150v484c0 165 -109 260 -257 260c-109 0 -210 -45 -318 -112v460h-257v-82h144v-1010h-150v-82z" />
    <glyph glyph-name="Itilde" unicode="&#x128;" horiz-adv-x="670" 
d="M458 1282c85 0 114 66 123 159h-48c-14 -61 -34 -75 -71 -75c-61 0 -167 79 -244 79c-73 0 -117 -52 -128 -158h49c12 57 29 74 64 74c66 0 164 -79 255 -79zM107 0h455v82h-166v988h166v82h-455v-82h166v-988h-166v-82z" />
    <glyph glyph-name="itilde" unicode="&#x129;" horiz-adv-x="594" 
d="M437 934c85 0 114 66 123 159h-48c-14 -61 -34 -75 -71 -75c-61 0 -167 79 -244 79c-73 0 -117 -52 -128 -158h49c12 57 29 74 64 74c66 0 164 -79 255 -79zM113 0h433v82h-156v722h-275v-82h163v-640h-165v-82z" />
    <glyph glyph-name="Imacron" unicode="&#x12a;" horiz-adv-x="670" 
d="M126 1282h408v71h-408v-71zM107 0h455v82h-166v988h166v82h-455v-82h166v-988h-166v-82z" />
    <glyph glyph-name="imacron" unicode="&#x12b;" horiz-adv-x="594" 
d="M105 934h408v71h-408v-71zM113 0h433v82h-156v722h-275v-82h163v-640h-165v-82z" />
    <glyph glyph-name="Ibreve" unicode="&#x12c;" horiz-adv-x="670" 
d="M335 1273c107 0 177 66 192 177h-75c-15 -69 -56 -105 -117 -105c-63 0 -102 36 -118 105h-74c15 -112 87 -177 192 -177zM107 0h455v82h-166v988h166v82h-455v-82h166v-988h-166v-82z" />
    <glyph glyph-name="ibreve" unicode="&#x12d;" horiz-adv-x="594" 
d="M313 925c107 0 177 66 192 177h-75c-15 -69 -56 -105 -117 -105c-63 0 -102 36 -118 105h-74c15 -112 87 -177 192 -177zM113 0h433v82h-156v722h-275v-82h163v-640h-165v-82z" />
    <glyph glyph-name="Iogonek" unicode="&#x12e;" horiz-adv-x="670" 
d="M367 -328c41 0 78 11 121 37v66c-31 -20 -61 -29 -93 -29c-57 0 -95 33 -95 100c0 47 26 103 80 158h-69c-66 -69 -95 -134 -95 -189c0 -89 67 -143 151 -143zM107 0h455v82h-166v988h166v82h-455v-82h166v-988h-166v-82z" />
    <glyph glyph-name="iogonek" unicode="&#x12f;" horiz-adv-x="594" 
d="M315 995c50 0 88 35 88 82c0 46 -38 81 -88 81c-49 0 -86 -35 -86 -81c0 -47 37 -82 86 -82zM371 -328c41 0 78 11 121 37v66c-31 -20 -61 -29 -93 -29c-57 0 -95 33 -95 100c0 47 26 103 80 158h-69c-66 -69 -95 -134 -95 -189c0 -89 67 -143 151 -143zM113 0h433v82
h-156v722h-275v-82h163v-640h-165v-82z" />
    <glyph glyph-name="Idotaccent" unicode="&#x130;" horiz-adv-x="670" 
d="M337 1343c50 0 88 35 88 82c0 46 -38 81 -88 81c-49 0 -86 -35 -86 -81c0 -47 37 -82 86 -82zM107 0h455v82h-166v988h166v82h-455v-82h166v-988h-166v-82z" />
    <glyph glyph-name="dotlessi" unicode="&#x131;" horiz-adv-x="594" 
d="M113 0h433v82h-156v722h-275v-82h163v-640h-165v-82z" />
    <glyph glyph-name="IJ" unicode="&#x132;" horiz-adv-x="1296" 
d="M751 -154h135c156 0 218 71 218 265v959h139v82h-409v-82h147v-956c0 -112 -15 -172 -106 -172h-124v-96zM107 0h455v82h-166v988h166v82h-455v-82h166v-988h-166v-82z" />
    <glyph glyph-name="ij" unicode="&#x133;" horiz-adv-x="1063" 
d="M851 996c51 0 89 35 89 82c0 45 -38 81 -89 81c-48 0 -86 -36 -86 -81c0 -47 38 -82 86 -82zM608 -286h83c224 0 245 120 245 262c0 10 -1 360 -1 829h-276v-80h161v-768c0 -106 -16 -155 -134 -155h-78v-88zM315 995c50 0 88 35 88 82c0 46 -38 81 -88 81
c-49 0 -86 -35 -86 -81c0 -47 37 -82 86 -82zM113 0h433v82h-156v722h-275v-82h163v-640h-165v-82z" />
    <glyph glyph-name="Jcircumflex" unicode="&#x134;" horiz-adv-x="626" 
d="M81 -154h135c156 0 218 71 218 265v959h139v82h-409v-82h147v-956c0 -112 -15 -172 -106 -172h-124v-96zM229 1271l141 260l141 -260h87l-172 316h-113l-170 -316h86z" />
    <glyph glyph-name="jcircumflex" unicode="&#x135;" horiz-adv-x="470" 
d="M14 -286h83c244 0 243 148 243 288v802h-284v-82h170v-749c0 -117 -9 -171 -134 -171h-78v-88zM111 924l141 260l141 -260h87l-172 316h-113l-170 -316h86z" />
    <glyph glyph-name="uni0136" unicode="&#x136;" horiz-adv-x="1300" 
d="M576 -453c122 -1 164 78 163 185v153h-154v-145h88c0 -81 -21 -134 -97 -144v-49zM780 0h451v82h-158l-557 502l536 486h159v82h-445v-82h142l-522 -471v471h167v82h-455v-82h166v-988h-166v-82h455v82h-167v479l536 -479h-142v-82z" />
    <glyph glyph-name="uni0137" unicode="&#x137;" horiz-adv-x="1003" 
d="M455 -453c122 -1 164 78 163 185v153h-154v-145h88c0 -81 -21 -134 -97 -144v-49zM741 0h225v82h-169l-357 337l387 303h134v82h-410v-82h156l-387 -294v746h-258v-82h145v-1010h-150v-82h401v82h-138v323z" />
    <glyph glyph-name="kgreenlandic" unicode="&#x138;" horiz-adv-x="1018" 
d="M769 0h209v82h-156l-353 325l361 315h140v82h-412v-82h143l-366 -320zM76 0h383v82h-126v722h-253v-82h141v-640h-145v-82z" />
    <glyph glyph-name="Lacute" unicode="&#x139;" horiz-adv-x="1068" 
d="M386 82v988h167v82h-455v-82h166v-988h-166v-82h917v425h-101v-343h-528zM801 1608l-101 -279h69l157 279h-125z" />
    <glyph glyph-name="lacute" unicode="&#x13a;" horiz-adv-x="501" 
d="M56 0h401v82h-138v1092h-258v-82h145v-1010h-150v-82zM331 1608l-101 -279h69l157 279h-125z" />
    <glyph glyph-name="uni013B" unicode="&#x13b;" horiz-adv-x="1068" 
d="M386 82v988h167v82h-455v-82h166v-988h-166v-82h917v425h-101v-343h-528zM510 -453c122 -1 164 78 163 185v153h-154v-145h88c0 -81 -21 -134 -97 -144v-49z" />
    <glyph glyph-name="uni013C" unicode="&#x13c;" horiz-adv-x="501" 
d="M56 0h401v82h-138v1092h-258v-82h145v-1010h-150v-82zM174 -453c122 -1 164 78 163 185v153h-154v-145h88c0 -81 -21 -134 -97 -144v-49z" />
    <glyph glyph-name="Lcaron" unicode="&#x13d;" horiz-adv-x="1068" 
d="M386 82v988h167v82h-455v-82h166v-988h-166v-82h917v425h-101v-343h-528zM656 836c121 0 163 78 163 186v152h-155v-144h88c0 -82 -21 -134 -96 -144v-50z" />
    <glyph glyph-name="lcaron" unicode="&#x13e;" horiz-adv-x="501" 
d="M56 0h401v82h-138v1092h-258v-82h145v-1010h-150v-82zM395 836c121 0 163 78 163 186v152h-155v-144h88c0 -82 -21 -134 -96 -144v-50z" />
    <glyph glyph-name="Ldot" unicode="&#x13f;" horiz-adv-x="1068" 
d="M705 551c51 0 89 35 89 82c0 46 -38 81 -89 81c-48 0 -86 -35 -86 -81c0 -47 38 -82 86 -82zM386 82v988h167v82h-455v-82h166v-988h-166v-82h917v425h-101v-343h-528z" />
    <glyph glyph-name="ldot" unicode="&#x140;" horiz-adv-x="501" 
d="M514 561c51 0 89 35 89 82c0 46 -38 81 -89 81c-48 0 -86 -35 -86 -81c0 -47 38 -82 86 -82zM56 0h401v82h-138v1092h-258v-82h145v-1010h-150v-82z" />
    <glyph glyph-name="Lslash" unicode="&#x141;" horiz-adv-x="1219" 
d="M103 417l470 274v89l-470 -279v-84zM386 82v988h167v82h-455v-82h166v-988h-166v-82h917v425h-101v-343h-528z" />
    <glyph glyph-name="lslash" unicode="&#x142;" horiz-adv-x="494" 
d="M50 417l415 230v101l-415 -234v-97zM56 0h401v82h-138v1092h-258v-82h145v-1010h-150v-82z" />
    <glyph glyph-name="Nacute" unicode="&#x143;" horiz-adv-x="1443" 
d="M103 0h413v82h-158v933l752 -1015h121v1070h148v82h-405v-82h159v-905l-736 987h-294v-82h157v-988h-157v-82zM789 1608l-101 -279h69l157 279h-125z" />
    <glyph glyph-name="nacute" unicode="&#x144;" horiz-adv-x="1041" 
d="M41 0h433v82h-156v559c106 59 212 95 284 95c106 0 172 -66 172 -180v-474h-151v-82h413v82h-150v484c0 165 -110 260 -256 260c-94 0 -206 -42 -312 -107v85h-275v-82h163v-640h-165v-82zM662 1260l-101 -279h69l157 279h-125z" />
    <glyph glyph-name="uni0145" unicode="&#x145;" horiz-adv-x="1443" 
d="M103 0h413v82h-158v933l752 -1015h121v1070h148v82h-405v-82h159v-905l-736 987h-294v-82h157v-988h-157v-82zM629 -453c122 -1 164 78 163 185v153h-154v-145h88c0 -81 -21 -134 -97 -144v-49z" />
    <glyph glyph-name="uni0146" unicode="&#x146;" horiz-adv-x="1041" 
d="M41 0h433v82h-156v559c106 59 212 95 284 95c106 0 172 -66 172 -180v-474h-151v-82h413v82h-150v484c0 165 -110 260 -256 260c-94 0 -206 -42 -312 -107v85h-275v-82h163v-640h-165v-82zM475 -453c122 -1 164 78 163 185v153h-154v-145h88c0 -81 -21 -134 -97 -144v-49
z" />
    <glyph glyph-name="Ncaron" unicode="&#x147;" horiz-adv-x="1443" 
d="M103 0h413v82h-158v933l752 -1015h121v1070h148v82h-405v-82h159v-905l-736 987h-294v-82h157v-988h-157v-82zM668 1270h101l166 307h-82l-134 -238l-138 238h-83z" />
    <glyph glyph-name="ncaron" unicode="&#x148;" horiz-adv-x="1041" 
d="M41 0h433v82h-156v559c106 59 212 95 284 95c106 0 172 -66 172 -180v-474h-151v-82h413v82h-150v484c0 165 -110 260 -256 260c-94 0 -206 -42 -312 -107v85h-275v-82h163v-640h-165v-82zM541 922h101l166 307h-82l-134 -238l-138 238h-83z" />
    <glyph glyph-name="napostrophe" unicode="&#x149;" horiz-adv-x="1041" 
d="M41 0h433v82h-156v559c106 59 212 95 284 95c106 0 172 -66 172 -180v-474h-151v-82h413v82h-150v484c0 165 -110 260 -256 260c-94 0 -206 -42 -312 -107v85h-275v-82h163v-640h-165v-82zM261 913c117 0 161 73 160 179l1 155h-155v-152h89c0 -96 -28 -122 -95 -133v-49
z" />
    <glyph glyph-name="Eng" unicode="&#x14a;" horiz-adv-x="1443" 
d="M974 1152v-82h159v-905l-736 987h-294v-82h157v-988h-157v-82h413v82h-158v933l776 -1033c0 -172 -96 -267 -307 -267v-85c236 0 404 100 404 356v1084h148v82h-405z" />
    <glyph glyph-name="eng" unicode="&#x14b;" horiz-adv-x="1041" 
d="M480 -343c237 0 406 100 406 356v553c0 165 -110 260 -256 260c-94 0 -206 -42 -312 -107v85h-275v-82h163v-640h-165v-82h433v82h-156v560c106 58 212 94 284 94c106 0 172 -66 172 -180v-555c0 -172 -90 -262 -292 -262z" />
    <glyph glyph-name="Omacron" unicode="&#x14c;" horiz-adv-x="1453" 
d="M726 70c-321 0 -485 236 -485 502c0 262 166 511 485 511c317 0 486 -249 486 -511c0 -260 -169 -502 -486 -502zM725 -22c395 0 617 286 617 594s-224 602 -616 602c-391 0 -615 -293 -615 -601s222 -595 614 -595zM514 1282h408v71h-408v-71z" />
    <glyph glyph-name="omacron" unicode="&#x14d;" horiz-adv-x="980" 
d="M488 -22c256 0 436 177 436 428c0 246 -180 420 -435 420c-254 0 -434 -174 -434 -420c0 -251 179 -428 433 -428zM488 67c-186 0 -317 140 -317 338c0 195 131 332 317 332c187 0 320 -137 320 -331c0 -198 -133 -339 -320 -339zM276 945h408v71h-408v-71z" />
    <glyph glyph-name="Obreve" unicode="&#x14e;" horiz-adv-x="1453" 
d="M722 1273c107 0 177 66 192 177h-75c-15 -69 -56 -105 -117 -105c-63 0 -102 36 -118 105h-74c15 -112 87 -177 192 -177zM726 70c-321 0 -485 236 -485 502c0 262 166 511 485 511c317 0 486 -249 486 -511c0 -260 -169 -502 -486 -502zM725 -22c395 0 617 286 617 594
s-224 602 -616 602c-391 0 -615 -293 -615 -601s222 -595 614 -595z" />
    <glyph glyph-name="obreve" unicode="&#x14f;" horiz-adv-x="980" 
d="M484 926c107 0 177 66 192 177h-75c-15 -69 -56 -105 -117 -105c-63 0 -102 36 -118 105h-74c15 -112 87 -177 192 -177zM488 -22c256 0 436 177 436 428c0 246 -180 420 -435 420c-254 0 -434 -174 -434 -420c0 -251 179 -428 433 -428zM488 67
c-186 0 -317 140 -317 338c0 195 131 332 317 332c187 0 320 -137 320 -331c0 -198 -133 -339 -320 -339z" />
    <glyph glyph-name="Ohungarumlaut" unicode="&#x150;" horiz-adv-x="1453" 
d="M726 70c-321 0 -485 236 -485 502c0 262 166 511 485 511c317 0 486 -249 486 -511c0 -260 -169 -502 -486 -502zM725 -22c395 0 617 286 617 594s-224 602 -616 602c-391 0 -615 -293 -615 -601s222 -595 614 -595zM946 1636l-112 -307h69l168 307h-125zM703 1636
l-112 -307h69l168 307h-125z" />
    <glyph glyph-name="ohungarumlaut" unicode="&#x151;" horiz-adv-x="980" 
d="M488 -22c256 0 436 177 436 428c0 246 -180 420 -435 420c-254 0 -434 -174 -434 -420c0 -251 179 -428 433 -428zM488 67c-186 0 -317 140 -317 338c0 195 131 332 317 332c187 0 320 -137 320 -331c0 -198 -133 -339 -320 -339zM707 1289l-112 -307h69l168 307h-125z
M464 1289l-112 -307h69l168 307h-125z" />
    <glyph glyph-name="OE" unicode="&#x152;" horiz-adv-x="1995" 
d="M791 0h1081v371h-97v-288h-618v452h407v-159h68v392h-67v-148h-408v449h600v-271h97v354h-1063c-401 0 -646 -218 -647 -576c1 -358 247 -576 647 -576zM799 83c-324 0 -525 188 -525 492c0 309 203 494 524 494h237v-986h-236z" />
    <glyph glyph-name="oe" unicode="&#x153;" horiz-adv-x="1749" 
d="M504 -22c175 0 312 90 376 229c67 -145 214 -229 379 -229c140 0 269 51 359 150l-54 65c-67 -77 -190 -131 -301 -131c-175 0 -316 115 -326 315h698c-4 296 -173 449 -390 449c-152 0 -297 -78 -363 -228c-65 140 -203 228 -377 228c-251 0 -429 -177 -429 -423
c0 -247 174 -425 428 -425zM505 63c-190 0 -318 141 -318 340c0 197 127 335 317 335c191 0 320 -138 320 -334c0 -200 -129 -341 -319 -341zM938 446c13 181 136 297 306 297c154 0 267 -103 288 -297h-594z" />
    <glyph glyph-name="Racute" unicode="&#x154;" horiz-adv-x="1277" 
d="M954 0h255v82h-170l-284 461c239 21 323 152 323 306c0 180 -126 303 -366 303h-614v-82h166v-988h-166v-82h455v82h-167v988h329c174 0 241 -108 241 -223c0 -106 -54 -231 -281 -231h-217v-84h177zM689 1608l-101 -279h69l157 279h-125z" />
    <glyph glyph-name="racute" unicode="&#x155;" horiz-adv-x="784" 
d="M89 0h432v82h-155l1 363c0 175 92 277 198 277c51 0 93 -15 138 -43l27 99c-52 26 -103 41 -158 41c-81 0 -159 -44 -206 -167v152h-276v-82h163v-640h-164v-82zM547 1261l-101 -279h69l157 279h-125z" />
    <glyph glyph-name="uni0156" unicode="&#x156;" horiz-adv-x="1277" 
d="M954 0h255v82h-170l-284 461c239 21 323 152 323 306c0 180 -126 303 -366 303h-614v-82h166v-988h-166v-82h455v82h-167v988h329c174 0 241 -108 241 -223c0 -106 -54 -231 -281 -231h-217v-84h177zM597 -453c122 -1 164 78 163 185v153h-154v-145h88
c0 -81 -21 -134 -97 -144v-49z" />
    <glyph glyph-name="uni0157" unicode="&#x157;" horiz-adv-x="784" 
d="M89 0h432v82h-155l1 363c0 175 92 277 198 277c51 0 93 -15 138 -43l27 99c-52 26 -103 41 -158 41c-81 0 -159 -44 -206 -167v152h-276v-82h163v-640h-164v-82zM227 -453c122 -1 164 78 163 185v153h-154v-145h88c0 -81 -21 -134 -97 -144v-49z" />
    <glyph glyph-name="Rcaron" unicode="&#x158;" horiz-adv-x="1277" 
d="M954 0h255v82h-170l-284 461c239 21 323 152 323 306c0 180 -126 303 -366 303h-614v-82h166v-988h-166v-82h455v82h-167v988h329c174 0 241 -108 241 -223c0 -106 -54 -231 -281 -231h-217v-84h177zM568 1270h101l166 307h-82l-134 -238l-138 238h-83z" />
    <glyph glyph-name="rcaron" unicode="&#x159;" horiz-adv-x="784" 
d="M89 0h432v82h-155l1 363c0 175 92 277 198 277c51 0 93 -15 138 -43l27 99c-52 26 -103 41 -158 41c-81 0 -159 -44 -206 -167v152h-276v-82h163v-640h-164v-82zM426 923h101l166 307h-82l-134 -238l-138 238h-83z" />
    <glyph glyph-name="Sacute" unicode="&#x15a;" horiz-adv-x="1096" 
d="M617 -21c283 0 390 178 390 325c0 264 -186 302 -413 333c-190 25 -329 56 -329 224c0 128 87 225 286 225c154 0 263 -64 289 -144v-107h100v319h-100v-96c-57 76 -194 116 -301 116c-217 0 -385 -102 -385 -315c0 -252 202 -296 420 -322c200 -22 315 -62 315 -233
c0 -123 -77 -236 -278 -236c-192 0 -312 68 -352 179v141h-101v-389h101v127c63 -101 193 -147 358 -147zM638 1608l-101 -279h69l157 279h-125z" />
    <glyph glyph-name="sacute" unicode="&#x15b;" horiz-adv-x="898" 
d="M492 -21c157 0 311 70 311 227c0 174 -117 208 -280 246l-116 26c-103 24 -161 55 -161 128c0 94 97 137 197 137c83 0 186 -37 229 -91l11 -116h84v270h-94v-65c-58 55 -159 85 -246 85c-162 0 -294 -76 -294 -224c0 -137 90 -187 232 -220l121 -26
c146 -31 209 -55 209 -159c0 -87 -92 -139 -215 -139c-104 0 -204 36 -259 109l-7 95h-82v-262h90v74c53 -56 158 -95 270 -95zM514 1261l-101 -279h69l157 279h-125z" />
    <glyph glyph-name="Scircumflex" unicode="&#x15c;" horiz-adv-x="1096" 
d="M617 -21c283 0 390 178 390 325c0 264 -186 302 -413 333c-190 25 -329 56 -329 224c0 128 87 225 286 225c154 0 263 -64 289 -144v-107h100v319h-100v-96c-57 76 -194 116 -301 116c-217 0 -385 -102 -385 -315c0 -252 202 -296 420 -322c200 -22 315 -62 315 -233
c0 -123 -77 -236 -278 -236c-192 0 -312 68 -352 179v141h-101v-389h101v127c63 -101 193 -147 358 -147zM422 1271l141 260l141 -260h87l-172 316h-113l-170 -316h86z" />
    <glyph glyph-name="scircumflex" unicode="&#x15d;" horiz-adv-x="898" 
d="M492 -21c157 0 311 70 311 227c0 174 -117 208 -280 246l-116 26c-103 24 -161 55 -161 128c0 94 97 137 197 137c83 0 186 -37 229 -91l11 -116h84v270h-94v-65c-58 55 -159 85 -246 85c-162 0 -294 -76 -294 -224c0 -137 90 -187 232 -220l121 -26
c146 -31 209 -55 209 -159c0 -87 -92 -139 -215 -139c-104 0 -204 36 -259 109l-7 95h-82v-262h90v74c53 -56 158 -95 270 -95zM298 924l141 260l141 -260h87l-172 316h-113l-170 -316h86z" />
    <glyph glyph-name="Scedilla" unicode="&#x15e;" horiz-adv-x="1096" 
d="M615 -328c72 0 132 30 132 105c0 54 -39 105 -139 110l34 119h-54l-61 -160c86 -3 119 -26 119 -58c0 -36 -30 -53 -77 -53c-29 0 -65 7 -102 18v-47c46 -21 100 -34 148 -34zM617 -21c283 0 390 178 390 325c0 264 -186 302 -413 333c-190 25 -329 56 -329 224
c0 128 87 225 286 225c154 0 263 -64 289 -144v-107h100v319h-100v-96c-57 76 -194 116 -301 116c-217 0 -385 -102 -385 -315c0 -252 202 -296 420 -322c200 -22 315 -62 315 -233c0 -123 -77 -236 -278 -236c-192 0 -312 68 -352 179v141h-101v-389h101v127
c63 -101 193 -147 358 -147z" />
    <glyph glyph-name="scedilla" unicode="&#x15f;" horiz-adv-x="898" 
d="M468 -328c72 0 132 30 132 105c0 54 -39 105 -139 110l34 119h-54l-61 -160c86 -3 119 -26 119 -58c0 -36 -30 -53 -77 -53c-29 0 -65 7 -102 18v-47c46 -21 100 -34 148 -34zM492 -21c157 0 311 70 311 227c0 174 -117 208 -280 246l-116 26c-103 24 -161 55 -161 128
c0 94 97 137 197 137c83 0 186 -37 229 -91l11 -116h84v270h-94v-65c-58 55 -159 85 -246 85c-162 0 -294 -76 -294 -224c0 -137 90 -187 232 -220l121 -26c146 -31 209 -55 209 -159c0 -87 -92 -139 -215 -139c-104 0 -204 36 -259 109l-7 95h-82v-262h90v74
c53 -56 158 -95 270 -95z" />
    <glyph glyph-name="Scaron" unicode="&#x160;" horiz-adv-x="1096" 
d="M617 -21c283 0 390 178 390 325c0 264 -186 302 -413 333c-190 25 -329 56 -329 224c0 128 87 225 286 225c154 0 263 -64 289 -144v-107h100v319h-100v-96c-57 76 -194 116 -301 116c-217 0 -385 -102 -385 -315c0 -252 202 -296 420 -322c200 -22 315 -62 315 -233
c0 -123 -77 -236 -278 -236c-192 0 -312 68 -352 179v141h-101v-389h101v127c63 -101 193 -147 358 -147zM517 1270h101l166 307h-82l-134 -238l-138 238h-83z" />
    <glyph glyph-name="scaron" unicode="&#x161;" horiz-adv-x="898" 
d="M492 -21c157 0 311 70 311 227c0 174 -117 208 -280 246l-116 26c-103 24 -161 55 -161 128c0 94 97 137 197 137c83 0 186 -37 229 -91l11 -116h84v270h-94v-65c-58 55 -159 85 -246 85c-162 0 -294 -76 -294 -224c0 -137 90 -187 232 -220l121 -26
c146 -31 209 -55 209 -159c0 -87 -92 -139 -215 -139c-104 0 -204 36 -259 109l-7 95h-82v-262h90v74c53 -56 158 -95 270 -95zM393 923h101l166 307h-82l-134 -238l-138 238h-83z" />
    <glyph glyph-name="uni0162" unicode="&#x162;" horiz-adv-x="1145" 
d="M566 -328c72 0 132 30 132 105c0 54 -39 105 -139 110l34 119h-54l-61 -160c86 -3 119 -26 119 -58c0 -36 -30 -53 -77 -53c-29 0 -65 7 -102 18v-47c46 -21 100 -34 148 -34zM52 761h94v309h364v-988h-166v-82h455v82h-167v988h366v-309h96v391h-1042v-391z" />
    <glyph glyph-name="uni0163" unicode="&#x163;" horiz-adv-x="601" 
d="M422 0h123v82h-105c-105 0 -146 41 -146 155v485h223l1 82h-224v319l-112 -42v-277h-141v-82h141v-492c0 -165 90 -230 240 -230zM387 -322c72 0 132 30 132 105c0 54 -39 105 -139 110l34 119h-54l-61 -160c86 -3 119 -26 119 -58c0 -36 -30 -53 -77 -53
c-29 0 -65 7 -102 18v-47c46 -21 100 -34 148 -34z" />
    <glyph glyph-name="Tcaron" unicode="&#x164;" horiz-adv-x="1145" 
d="M52 761h94v309h364v-988h-166v-82h455v82h-167v988h366v-309h96v391h-1042v-391zM517 1270h101l166 307h-82l-134 -238l-138 238h-83z" />
    <glyph glyph-name="tcaron" unicode="&#x165;" horiz-adv-x="601" 
d="M422 0h123v82h-105c-105 0 -146 41 -146 155v485h223l1 82h-224v319l-112 -42v-277h-141v-82h141v-492c0 -165 90 -230 240 -230zM393 990c121 0 163 78 163 186v152h-155v-144h88c0 -82 -21 -134 -96 -144v-50z" />
    <glyph glyph-name="Tbar" unicode="&#x166;" horiz-adv-x="1145" 
d="M52 761h94v309h364v-988h-166v-82h455v82h-167v988h366v-309h96v391h-1042v-391zM363 628h408v71h-408v-71z" />
    <glyph glyph-name="tbar" unicode="&#x167;" horiz-adv-x="601" 
d="M422 0h123v82h-105c-105 0 -146 41 -146 155v485h223l1 82h-224v319l-112 -42v-277h-141v-82h141v-492c0 -165 90 -230 240 -230zM56 457h408v71h-408v-71z" />
    <glyph glyph-name="Utilde" unicode="&#x168;" horiz-adv-x="1423" 
d="M845 1282c85 0 114 66 123 159h-48c-14 -61 -34 -75 -71 -75c-61 0 -167 79 -244 79c-73 0 -117 -52 -128 -158h49c12 57 29 74 64 74c66 0 164 -79 255 -79zM710 -21c296 0 504 146 504 412v679h156v82h-414v-82h151v-683c0 -194 -153 -316 -394 -316
c-227 0 -369 124 -369 316v683h153v82h-429v-82h153v-670c0 -244 163 -421 489 -421z" />
    <glyph glyph-name="utilde" unicode="&#x169;" 
d="M611 934c85 0 114 66 123 159h-48c-14 -61 -34 -75 -71 -75c-61 0 -167 79 -244 79c-73 0 -117 -52 -128 -158h49c12 57 29 74 64 74c66 0 164 -79 255 -79zM432 -21c113 0 216 47 313 120l5 -99h256v81h-150v723h-260v-82h147v-537c-87 -71 -176 -117 -289 -117
c-117 0 -168 77 -168 176v560h-258v-82h145v-489c0 -121 63 -254 259 -254z" />
    <glyph glyph-name="Umacron" unicode="&#x16a;" horiz-adv-x="1423" 
d="M513 1282h408v71h-408v-71zM710 -21c296 0 504 146 504 412v679h156v82h-414v-82h151v-683c0 -194 -153 -316 -394 -316c-227 0 -369 124 -369 316v683h153v82h-429v-82h153v-670c0 -244 163 -421 489 -421z" />
    <glyph glyph-name="umacron" unicode="&#x16b;" 
d="M432 -21c113 0 216 47 313 120l5 -99h256v81h-150v723h-260v-82h147v-537c-87 -71 -176 -117 -289 -117c-117 0 -168 77 -168 176v560h-258v-82h145v-489c0 -121 63 -254 259 -254zM279 944h408v71h-408v-71z" />
    <glyph glyph-name="Ubreve" unicode="&#x16c;" horiz-adv-x="1423" 
d="M721 1273c107 0 177 66 192 177h-75c-15 -69 -56 -105 -117 -105c-63 0 -102 36 -118 105h-74c15 -112 87 -177 192 -177zM710 -21c296 0 504 146 504 412v679h156v82h-414v-82h151v-683c0 -194 -153 -316 -394 -316c-227 0 -369 124 -369 316v683h153v82h-429v-82h153
v-670c0 -244 163 -421 489 -421z" />
    <glyph glyph-name="ubreve" unicode="&#x16d;" 
d="M487 925c107 0 177 66 192 177h-75c-15 -69 -56 -105 -117 -105c-63 0 -102 36 -118 105h-74c15 -112 87 -177 192 -177zM432 -21c113 0 216 47 313 120l5 -99h256v81h-150v723h-260v-82h147v-537c-87 -71 -176 -117 -289 -117c-117 0 -168 77 -168 176v560h-258v-82h145
v-489c0 -121 63 -254 259 -254z" />
    <glyph glyph-name="Uring" unicode="&#x16e;" horiz-adv-x="1423" 
d="M710 -21c296 0 504 146 504 412v679h156v82h-414v-82h151v-683c0 -194 -153 -316 -394 -316c-227 0 -369 124 -369 316v683h153v82h-429v-82h153v-670c0 -244 163 -421 489 -421zM724 1229c90 0 144 59 144 139c0 77 -53 134 -145 134c-91 0 -144 -57 -144 -134
c0 -80 54 -139 145 -139zM724 1279c-56 0 -88 37 -88 88c0 49 32 85 88 85c55 0 87 -36 87 -85c0 -51 -32 -88 -87 -88z" />
    <glyph glyph-name="uring" unicode="&#x16f;" 
d="M432 -21c113 0 216 47 313 120l5 -99h256v81h-150v723h-260v-82h147v-537c-87 -71 -176 -117 -289 -117c-117 0 -168 77 -168 176v560h-258v-82h145v-489c0 -121 63 -254 259 -254zM490 881c90 0 144 59 144 139c0 77 -53 134 -145 134c-91 0 -144 -57 -144 -134
c0 -80 54 -139 145 -139zM490 931c-56 0 -88 37 -88 88c0 49 32 85 88 85c55 0 87 -36 87 -85c0 -51 -32 -88 -87 -88z" />
    <glyph glyph-name="Uhungarumlaut" unicode="&#x170;" horiz-adv-x="1423" 
d="M945 1636l-112 -307h69l168 307h-125zM702 1636l-112 -307h69l168 307h-125zM710 -21c296 0 504 146 504 412v679h156v82h-414v-82h151v-683c0 -194 -153 -316 -394 -316c-227 0 -369 124 -369 316v683h153v82h-429v-82h153v-670c0 -244 163 -421 489 -421z" />
    <glyph glyph-name="uhungarumlaut" unicode="&#x171;" 
d="M711 1288l-112 -307h69l168 307h-125zM468 1288l-112 -307h69l168 307h-125zM432 -21c113 0 216 47 313 120l5 -99h256v81h-150v723h-260v-82h147v-537c-87 -71 -176 -117 -289 -117c-117 0 -168 77 -168 176v560h-258v-82h145v-489c0 -121 63 -254 259 -254z" />
    <glyph glyph-name="Uogonek" unicode="&#x172;" horiz-adv-x="1423" 
d="M710 -21c296 0 504 146 504 412v679h156v82h-414v-82h151v-683c0 -194 -153 -316 -394 -316c-227 0 -369 124 -369 316v683h153v82h-429v-82h153v-670c0 -244 163 -421 489 -421zM821 -328c41 0 78 11 121 37v66c-31 -20 -61 -29 -93 -29c-57 0 -95 33 -95 100
c0 47 26 103 80 158h-69c-66 -69 -95 -134 -95 -189c0 -89 67 -143 151 -143z" />
    <glyph glyph-name="uogonek" unicode="&#x173;" 
d="M432 -21c113 0 216 47 313 120l5 -99h256v81h-150v723h-260v-82h147v-537c-87 -71 -176 -117 -289 -117c-117 0 -168 77 -168 176v560h-258v-82h145v-489c0 -121 63 -254 259 -254zM902 -328c41 0 78 11 121 37v66c-31 -20 -61 -29 -93 -29c-57 0 -95 33 -95 100
c0 47 26 103 80 158h-69c-66 -69 -95 -134 -95 -189c0 -89 67 -143 151 -143z" />
    <glyph glyph-name="Wcircumflex" unicode="&#x174;" horiz-adv-x="1915" 
d="M547 0h110l304 919l303 -919h110l339 1070h144v82h-401v-82h151l-283 -913l-313 959h-90l-313 -959l-288 913h154v82h-416v-82h141zM823 1271l141 260l141 -260h87l-172 316h-113l-170 -316h86z" />
    <glyph glyph-name="wcircumflex" unicode="&#x175;" horiz-adv-x="1503" 
d="M404 0h117l230 628l231 -628h115l251 723h121v82h-349v-82h123l-203 -618l-227 618h129v82h-380v-82h128l-221 -617l-216 617h129v82h-358v-82h117zM609 923l141 260l141 -260h87l-172 316h-113l-170 -316h86z" />
    <glyph glyph-name="Ycircumflex" unicode="&#x176;" horiz-adv-x="1281" 
d="M504 1271l141 260l141 -260h87l-172 316h-113l-170 -316h86zM413 0h459v82h-169v400l397 588h155v82h-422v-82h153l-335 -504l-341 504h148v82h-435v-82h155l403 -588v-400h-168v-82z" />
    <glyph glyph-name="ycircumflex" unicode="&#x177;" horiz-adv-x="1065" 
d="M218 -294h96c180 0 217 65 282 226l328 790h131v82h-396v-82h152l-244 -600l-266 600h130v82h-401v-82h156l305 -667h52l-51 -129c-42 -112 -76 -127 -187 -127h-87v-93zM409 923l141 260l141 -260h87l-172 316h-113l-170 -316h86z" />
    <glyph glyph-name="Ydieresis" unicode="&#x178;" horiz-adv-x="1281" 
d="M462 1288c44 0 73 27 73 70c0 42 -29 69 -73 69s-72 -27 -72 -69c0 -43 28 -70 72 -70zM826 1287c44 0 73 27 73 70c0 42 -28 70 -73 70c-44 0 -72 -28 -72 -70c0 -43 28 -70 72 -70zM413 0h459v82h-169v400l397 588h155v82h-422v-82h153l-335 -504l-341 504h148v82h-435
v-82h155l403 -588v-400h-168v-82z" />
    <glyph glyph-name="Zacute" unicode="&#x179;" horiz-adv-x="1201" 
d="M133 0h945v385h-93v-303h-709l782 990v80h-896v-366h94v284h655l-778 -982v-88zM702 1608l-101 -279h69l157 279h-125z" />
    <glyph glyph-name="zacute" unicode="&#x17a;" horiz-adv-x="917" 
d="M121 0h681v278h-91v-199h-459l537 636v90h-651v-258h90v179h435l-542 -642v-84zM548 1260l-101 -279h69l157 279h-125z" />
    <glyph glyph-name="Zdotaccent" unicode="&#x17b;" horiz-adv-x="1201" 
d="M633 1343c50 0 88 35 88 82c0 46 -38 81 -88 81c-49 0 -86 -35 -86 -81c0 -47 37 -82 86 -82zM133 0h945v385h-93v-303h-709l782 990v80h-896v-366h94v284h655l-778 -982v-88z" />
    <glyph glyph-name="zdotaccent" unicode="&#x17c;" horiz-adv-x="917" 
d="M479 995c50 0 88 35 88 82c0 46 -38 81 -88 81c-49 0 -86 -35 -86 -81c0 -47 37 -82 86 -82zM121 0h681v278h-91v-199h-459l537 636v90h-651v-258h90v179h435l-542 -642v-84z" />
    <glyph glyph-name="Zcaron" unicode="&#x17d;" horiz-adv-x="1201" 
d="M133 0h945v385h-93v-303h-709l782 990v80h-896v-366h94v284h655l-778 -982v-88zM581 1270h101l166 307h-82l-134 -238l-138 238h-83z" />
    <glyph glyph-name="zcaron" unicode="&#x17e;" horiz-adv-x="917" 
d="M121 0h681v278h-91v-199h-459l537 636v90h-651v-258h90v179h435l-542 -642v-84zM427 922h101l166 307h-82l-134 -238l-138 238h-83z" />
    <glyph glyph-name="longs" unicode="&#x17f;" horiz-adv-x="600" 
 />
    <glyph glyph-name="uni018F" unicode="&#x18f;" horiz-adv-x="600" 
 />
    <glyph glyph-name="florin" unicode="&#x192;" horiz-adv-x="903" 
d="M460 981l-34 -186h-168l-9 -69h169l-107 -676c-28 -198 -110 -196 -199 -182l-7 -62c134 -26 275 -4 310 243l110 677h215l8 69h-213l32 188c21 137 62 176 119 174c49 -2 71 -46 69 -120c76 0 101 38 104 74c3 60 -59 99 -150 101c-162 2 -226 -102 -249 -231z" />
    <glyph glyph-name="uni01C4" unicode="&#x1c4;" horiz-adv-x="2614" 
d="M751 1152h-652v-82h166v-988h-166v-82h655c365 0 548 274 548 581c0 272 -175 571 -551 571zM388 1070h359c293 0 430 -251 430 -491c0 -260 -135 -497 -437 -497h-352v988zM1546 0h945v385h-93v-303h-709l782 990v80h-896v-366h94v284h655l-778 -982v-88zM1994 1270h101
l166 307h-82l-134 -238l-138 238h-83z" />
    <glyph glyph-name="uni01C5" unicode="&#x1c5;" horiz-adv-x="2330" 
d="M751 1152h-652v-82h166v-988h-166v-82h655c365 0 548 274 548 581c0 272 -175 571 -551 571zM388 1070h359c293 0 430 -251 430 -491c0 -260 -135 -497 -437 -497h-352v988zM1534 0h681v278h-91v-199h-459l537 636v90h-651v-258h90v179h435l-542 -642v-84zM568 1270h101
l166 307h-82l-134 -238l-138 238h-83z" />
    <glyph glyph-name="uni01C6" unicode="&#x1c6;" horiz-adv-x="1953" 
d="M749 0h246v82h-132v1092h-253v-82h139v-362c-82 59 -192 96 -292 96c-222 0 -398 -159 -398 -423c0 -261 187 -425 418 -425c93 0 195 36 272 94v-72zM749 648v-494c-73 -55 -169 -90 -252 -90c-183 0 -321 126 -321 329c0 216 126 347 300 347c90 0 193 -35 273 -92z
M1157 0h681v278h-91v-199h-459l537 636v90h-651v-258h90v179h435l-542 -642v-84zM1463 922h101l166 307h-82l-134 -238l-138 238h-83z" />
    <glyph glyph-name="uni01C7" unicode="&#x1c7;" horiz-adv-x="1694" 
d="M386 82v988h167v82h-455v-82h166v-988h-166v-82h917v425h-101v-343h-528zM1149 -154h135c156 0 218 71 218 265v959h139v82h-409v-82h147v-956c0 -112 -15 -172 -106 -172h-124v-96z" />
    <glyph glyph-name="uni01C8" unicode="&#x1c8;" horiz-adv-x="1538" 
d="M386 82v988h167v82h-455v-82h166v-988h-166v-82h917v425h-101v-343h-528zM1325 996c51 0 89 35 89 82c0 45 -38 81 -89 81c-48 0 -86 -36 -86 -81c0 -47 38 -82 86 -82zM1082 -286h83c224 0 245 120 245 262c0 10 -1 360 -1 829h-276v-80h161v-768
c0 -106 -16 -155 -134 -155h-78v-88z" />
    <glyph glyph-name="uni01C9" unicode="&#x1c9;" horiz-adv-x="971" 
d="M56 0h401v82h-138v1092h-258v-82h145v-1010h-150v-82zM758 996c51 0 89 35 89 82c0 45 -38 81 -89 81c-48 0 -86 -36 -86 -81c0 -47 38 -82 86 -82zM515 -286h83c224 0 245 120 245 262c0 10 -1 360 -1 829h-276v-80h161v-768c0 -106 -16 -155 -134 -155h-78v-88z" />
    <glyph glyph-name="uni01CA" unicode="&#x1ca;" horiz-adv-x="2069" 
d="M103 0h413v82h-158v933l752 -1015h121v1070h148v82h-405v-82h159v-905l-736 987h-294v-82h157v-988h-157v-82zM1524 -154h135c156 0 218 71 218 265v959h139v82h-409v-82h147v-956c0 -112 -15 -172 -106 -172h-124v-96z" />
    <glyph glyph-name="uni01CB" unicode="&#x1cb;" horiz-adv-x="1912" 
d="M103 0h413v82h-158v933l752 -1015h121v1070h148v82h-405v-82h159v-905l-736 987h-294v-82h157v-988h-157v-82zM1700 996c51 0 89 35 89 82c0 45 -38 81 -89 81c-48 0 -86 -36 -86 -81c0 -47 38 -82 86 -82zM1457 -286h83c224 0 245 120 245 262c0 10 -1 360 -1 829h-276
v-80h161v-768c0 -106 -16 -155 -134 -155h-78v-88z" />
    <glyph glyph-name="uni01CC" unicode="&#x1cc;" horiz-adv-x="1511" 
d="M41 0h433v82h-156v559c106 59 212 95 284 95c106 0 172 -66 172 -180v-474h-151v-82h413v82h-150v484c0 165 -110 260 -256 260c-94 0 -206 -42 -312 -107v85h-275v-82h163v-640h-165v-82zM1298 996c51 0 89 35 89 82c0 45 -38 81 -89 81c-48 0 -86 -36 -86 -81
c0 -47 38 -82 86 -82zM1055 -286h83c224 0 245 120 245 262c0 10 -1 360 -1 829h-276v-80h161v-768c0 -106 -16 -155 -134 -155h-78v-88z" />
    <glyph glyph-name="uni01CD" unicode="&#x1cd;" horiz-adv-x="1382" 
d="M641 1270h101l166 307h-82l-134 -238l-138 238h-83zM494 541l187 525h10l186 -525h-383zM70 0h418v82h-153l135 378h431l136 -378h-152v-82h427v82h-145l-366 988h139v82h-496v-82h136l-361 -988h-149v-82z" />
    <glyph glyph-name="uni01CE" unicode="&#x1ce;" horiz-adv-x="940" 
d="M404 923h101l166 307h-82l-134 -238l-138 238h-83zM386 56c-114 0 -179 75 -179 165c0 130 98 170 204 170c89 0 171 -16 249 -30v-209c-106 -66 -186 -96 -274 -96zM373 -22c103 0 192 32 292 98c0 0 12 -80 12 -76h220v82h-125v465c0 150 -98 279 -322 279
c-88 0 -211 -26 -312 -80l35 -76c85 42 193 71 277 71c125 0 210 -66 210 -209v-99c-86 16 -174 29 -256 29c-165 0 -306 -63 -306 -245c0 -138 109 -239 275 -239z" />
    <glyph glyph-name="uni01CF" unicode="&#x1cf;" horiz-adv-x="670" 
d="M285 1270h101l166 307h-82l-134 -238l-138 238h-83zM107 0h455v82h-166v988h166v82h-455v-82h166v-988h-166v-82z" />
    <glyph glyph-name="uni01D0" unicode="&#x1d0;" horiz-adv-x="594" 
d="M113 0h433v82h-156v722h-275v-82h163v-640h-165v-82zM264 922h101l166 307h-82l-134 -238l-138 238h-83z" />
    <glyph glyph-name="uni01D1" unicode="&#x1d1;" horiz-adv-x="1453" 
d="M726 70c-321 0 -485 236 -485 502c0 262 166 511 485 511c317 0 486 -249 486 -511c0 -260 -169 -502 -486 -502zM725 -22c395 0 617 286 617 594s-224 602 -616 602c-391 0 -615 -293 -615 -601s222 -595 614 -595zM673 1270h101l166 307h-82l-134 -238l-138 238h-83z
" />
    <glyph glyph-name="uni01D2" unicode="&#x1d2;" horiz-adv-x="980" 
d="M488 -22c256 0 436 177 436 428c0 246 -180 420 -435 420c-254 0 -434 -174 -434 -420c0 -251 179 -428 433 -428zM488 67c-186 0 -317 140 -317 338c0 195 131 332 317 332c187 0 320 -137 320 -331c0 -198 -133 -339 -320 -339zM435 923h101l166 307h-82l-134 -238
l-138 238h-83z" />
    <glyph glyph-name="uni01D3" unicode="&#x1d3;" horiz-adv-x="1423" 
d="M710 -21c296 0 504 146 504 412v679h156v82h-414v-82h151v-683c0 -194 -153 -316 -394 -316c-227 0 -369 124 -369 316v683h153v82h-429v-82h153v-670c0 -244 163 -421 489 -421zM672 1270h101l166 307h-82l-134 -238l-138 238h-83z" />
    <glyph glyph-name="uni01D4" unicode="&#x1d4;" 
d="M432 -21c113 0 216 47 313 120l5 -99h256v81h-150v723h-260v-82h147v-537c-87 -71 -176 -117 -289 -117c-117 0 -168 77 -168 176v560h-258v-82h145v-489c0 -121 63 -254 259 -254zM438 922h101l166 307h-82l-134 -238l-138 238h-83z" />
    <glyph glyph-name="uni01E2" unicode="&#x1e2;" horiz-adv-x="2078" 
d="M1002 1282h408v71h-408v-71zM91 0h440v82h-144l196 344h444l36 -344h-159v-82h1024l-36 377h-96l31 -295h-641l-46 454h396l22 -162h66l-42 399h-67l17 -151h-396l-46 448h608l32 -293h96l-35 375h-1080v-82h131l-587 -988h-164v-82zM624 504l328 566h16l56 -566h-400z
" />
    <glyph glyph-name="uni01E3" unicode="&#x1e3;" horiz-adv-x="1568" 
d="M608 934h408v71h-408v-71zM403 -22c109 0 241 17 378 125c77 -86 185 -124 315 -124c170 0 271 57 367 157l-41 69c-98 -95 -210 -139 -323 -139c-198 0 -298 114 -301 314h665c0 282 -144 446 -371 446c-153 0 -287 -73 -333 -208c-24 138 -121 208 -294 208
c-124 0 -248 -40 -328 -109l40 -71c73 57 182 95 284 95c144 0 223 -58 223 -212v-90c-29 6 -170 10 -198 10c-213 0 -378 -52 -378 -233c0 -172 142 -238 295 -238zM416 53c-122 0 -202 49 -202 166c0 131 114 159 276 159c24 0 171 -5 195 -7c3 -61 19 -145 49 -205
c-77 -73 -178 -113 -318 -113zM1354 451l-555 1c12 154 110 290 293 290c162 0 257 -113 262 -291z" />
    <glyph glyph-name="Gcaron" unicode="&#x1e6;" horiz-adv-x="1399" 
d="M722 -21c272 0 562 128 564 589h-368v-86h247c-6 -305 -234 -409 -439 -411c-301 0 -490 199 -490 516c0 305 188 496 487 496c191 0 348 -95 424 -268h87v339h-101v-169c-90 119 -239 189 -413 189c-368 0 -614 -226 -614 -587c0 -373 242 -608 616 -608zM663 1270h101
l166 307h-82l-134 -238l-138 238h-83z" />
    <glyph glyph-name="gcaron" unicode="&#x1e7;" horiz-adv-x="1037" 
d="M480 -381c235 0 398 107 398 364v739h135v82h-249v-82c-78 63 -195 102 -295 102c-231 0 -406 -156 -406 -414c0 -256 182 -417 417 -417c98 1 206 39 285 101v-123c0 -172 -101 -262 -286 -262c-79 0 -172 16 -274 46l-21 -88c102 -29 204 -48 296 -48zM764 643l1 -469
c-76 -59 -177 -96 -265 -96c-183 0 -321 123 -321 323c0 211 126 339 301 339c94 0 202 -38 284 -97zM446 922h101l166 307h-82l-134 -238l-138 238h-83z" />
    <glyph glyph-name="uni01E8" unicode="&#x1e8;" horiz-adv-x="1300" 
d="M780 0h451v82h-158l-557 502l536 486h159v82h-445v-82h142l-522 -471v471h167v82h-455v-82h166v-988h-166v-82h455v82h-167v479l536 -479h-142v-82zM604 1270h101l166 307h-82l-134 -238l-138 238h-83z" />
    <glyph glyph-name="uni01E9" unicode="&#x1e9;" horiz-adv-x="1003" 
d="M741 0h225v82h-169l-357 337l387 303h134v82h-410v-82h156l-387 -294v746h-258v-82h145v-1010h-150v-82h401v82h-138v323zM594 1095h101l166 307h-82l-134 -238l-138 238h-83z" />
    <glyph glyph-name="uni01EA" unicode="&#x1ea;" horiz-adv-x="1453" 
d="M726 70c-321 0 -485 236 -485 502c0 262 166 511 485 511c317 0 486 -249 486 -511c0 -260 -169 -502 -486 -502zM725 -22c395 0 617 286 617 594s-224 602 -616 602c-391 0 -615 -293 -615 -601s222 -595 614 -595zM823 -328c41 0 78 11 121 37v66
c-31 -20 -61 -29 -93 -29c-57 0 -95 33 -95 100c0 47 26 103 80 158h-69c-66 -69 -95 -134 -95 -189c0 -89 67 -143 151 -143z" />
    <glyph glyph-name="uni01EB" unicode="&#x1eb;" horiz-adv-x="980" 
d="M488 -22c256 0 436 177 436 428c0 246 -180 420 -435 420c-254 0 -434 -174 -434 -420c0 -251 179 -428 433 -428zM488 67c-186 0 -317 140 -317 338c0 195 131 332 317 332c187 0 320 -137 320 -331c0 -198 -133 -339 -320 -339zM557 -328c41 0 78 11 121 37v66
c-31 -20 -61 -29 -93 -29c-57 0 -95 33 -95 100c0 47 26 103 80 158h-69c-66 -69 -95 -134 -95 -189c0 -89 67 -143 151 -143z" />
    <glyph glyph-name="uni01F0" unicode="&#x1f0;" horiz-adv-x="470" 
d="M14 -286h83c244 0 243 148 243 288v802h-284v-82h170v-749c0 -117 -9 -171 -134 -171h-78v-88zM206 923h101l166 307h-82l-134 -238l-138 238h-83z" />
    <glyph glyph-name="uni01F1" unicode="&#x1f1;" horiz-adv-x="2614" 
d="M751 1152h-652v-82h166v-988h-166v-82h655c365 0 548 274 548 581c0 272 -175 571 -551 571zM388 1070h359c293 0 430 -251 430 -491c0 -260 -135 -497 -437 -497h-352v988zM1546 0h945v385h-93v-303h-709l782 990v80h-896v-366h94v284h655l-778 -982v-88z" />
    <glyph glyph-name="uni01F2" unicode="&#x1f2;" horiz-adv-x="2330" 
d="M751 1152h-652v-82h166v-988h-166v-82h655c365 0 548 274 548 581c0 272 -175 571 -551 571zM388 1070h359c293 0 430 -251 430 -491c0 -260 -135 -497 -437 -497h-352v988zM1534 0h681v278h-91v-199h-459l537 636v90h-651v-258h90v179h435l-542 -642v-84z" />
    <glyph glyph-name="uni01F3" unicode="&#x1f3;" horiz-adv-x="1953" 
d="M749 0h246v82h-132v1092h-253v-82h139v-362c-82 59 -192 96 -292 96c-222 0 -398 -159 -398 -423c0 -261 187 -425 418 -425c93 0 195 36 272 94v-72zM749 648v-494c-73 -55 -169 -90 -252 -90c-183 0 -321 126 -321 329c0 216 126 347 300 347c90 0 193 -35 273 -92z
M1157 0h681v278h-91v-199h-459l537 636v90h-651v-258h90v179h435l-542 -642v-84z" />
    <glyph glyph-name="uni01F4" unicode="&#x1f4;" horiz-adv-x="1399" 
d="M722 -21c272 0 562 128 564 589h-368v-86h247c-6 -305 -234 -409 -439 -411c-301 0 -490 199 -490 516c0 305 188 496 487 496c191 0 348 -95 424 -268h87v339h-101v-169c-90 119 -239 189 -413 189c-368 0 -614 -226 -614 -587c0 -373 242 -608 616 -608zM784 1608
l-101 -279h69l157 279h-125z" />
    <glyph glyph-name="uni01F5" unicode="&#x1f5;" horiz-adv-x="1037" 
d="M480 -381c235 0 398 107 398 364v739h135v82h-249v-82c-78 63 -195 102 -295 102c-231 0 -406 -156 -406 -414c0 -256 182 -417 417 -417c98 1 206 39 285 101v-123c0 -172 -101 -262 -286 -262c-79 0 -172 16 -274 46l-21 -88c102 -29 204 -48 296 -48zM764 643l1 -469
c-76 -59 -177 -96 -265 -96c-183 0 -321 123 -321 323c0 211 126 339 301 339c94 0 202 -38 284 -97zM567 1260l-101 -279h69l157 279h-125z" />
    <glyph glyph-name="uni01F8" unicode="&#x1f8;" horiz-adv-x="1443" 
d="M103 0h413v82h-158v933l752 -1015h121v1070h148v82h-405v-82h159v-905l-736 987h-294v-82h157v-988h-157v-82zM681 1329h70l-101 279h-126z" />
    <glyph glyph-name="uni01F9" unicode="&#x1f9;" horiz-adv-x="1041" 
d="M41 0h433v82h-156v559c106 59 212 95 284 95c106 0 172 -66 172 -180v-474h-151v-82h413v82h-150v484c0 165 -110 260 -256 260c-94 0 -206 -42 -312 -107v85h-275v-82h163v-640h-165v-82zM554 981h70l-101 279h-126z" />
    <glyph glyph-name="Aringacute" unicode="&#x1fa;" horiz-adv-x="1382" 
d="M693 1229c90 0 144 59 144 139c0 77 -53 134 -145 134c-91 0 -144 -57 -144 -134c0 -80 54 -139 145 -139zM693 1279c-56 0 -88 37 -88 88c0 49 32 85 88 85c55 0 87 -36 87 -85c0 -51 -32 -88 -87 -88zM763 1855l-101 -279h69l157 279h-125zM494 541l187 525h10
l186 -525h-383zM70 0h418v82h-153l135 378h431l136 -378h-152v-82h427v82h-145l-366 988h139v82h-496v-82h136l-361 -988h-149v-82z" />
    <glyph glyph-name="aringacute" unicode="&#x1fb;" horiz-adv-x="940" 
d="M456 882c90 0 144 59 144 139c0 77 -53 134 -145 134c-91 0 -144 -57 -144 -134c0 -80 54 -139 145 -139zM456 932c-56 0 -88 37 -88 88c0 49 32 85 88 85c55 0 87 -36 87 -85c0 -51 -32 -88 -87 -88zM526 1507l-101 -279h69l157 279h-125zM386 56
c-114 0 -179 75 -179 165c0 130 98 170 204 170c89 0 171 -16 249 -30v-209c-106 -66 -186 -96 -274 -96zM373 -22c103 0 192 32 292 98c0 0 12 -80 12 -76h220v82h-125v465c0 150 -98 279 -322 279c-88 0 -211 -26 -312 -80l35 -76c85 42 193 71 277 71
c125 0 210 -66 210 -209v-99c-86 16 -174 29 -256 29c-165 0 -306 -63 -306 -245c0 -138 109 -239 275 -239z" />
    <glyph glyph-name="AEacute" unicode="&#x1fc;" horiz-adv-x="2078" 
d="M91 0h440v82h-144l196 344h444l36 -344h-159v-82h1024l-36 377h-96l31 -295h-641l-46 454h396l22 -162h66l-42 399h-67l17 -151h-396l-46 448h608l32 -293h96l-35 375h-1080v-82h131l-587 -988h-164v-82zM624 504l328 566h16l56 -566h-400zM1282 1608l-101 -279h69
l157 279h-125z" />
    <glyph glyph-name="aeacute" unicode="&#x1fd;" horiz-adv-x="1568" 
d="M403 -22c109 0 241 17 378 125c77 -86 185 -124 315 -124c170 0 271 57 367 157l-41 69c-98 -95 -210 -139 -323 -139c-198 0 -298 114 -301 314h665c0 282 -144 446 -371 446c-153 0 -287 -73 -333 -208c-24 138 -121 208 -294 208c-124 0 -248 -40 -328 -109l40 -71
c73 57 182 95 284 95c144 0 223 -58 223 -212v-90c-29 6 -170 10 -198 10c-213 0 -378 -52 -378 -233c0 -172 142 -238 295 -238zM416 53c-122 0 -202 49 -202 166c0 131 114 159 276 159c24 0 171 -5 195 -7c3 -61 19 -145 49 -205c-77 -73 -178 -113 -318 -113zM1354 451
l-555 1c12 154 110 290 293 290c162 0 257 -113 262 -291zM888 1260l-101 -279h69l157 279h-125z" />
    <glyph glyph-name="Oslashacute" unicode="&#x1fe;" horiz-adv-x="1531" 
d="M798 1603l-101 -279h69l157 279h-125zM282 -74l972 1250l-57 41l-975 -1248zM730 64c-321 0 -485 236 -485 502c0 262 166 511 485 511c317 0 486 -249 486 -511c0 -260 -169 -502 -486 -502zM729 -28c395 0 617 286 617 594s-224 602 -616 602
c-391 0 -615 -293 -615 -601s222 -595 614 -595z" />
    <glyph glyph-name="oslashacute" unicode="&#x1ff;" horiz-adv-x="1000" 
d="M556 1261l-101 -279h69l157 279h-125zM227 -135l592 1030l-53 28l-592 -1029zM488 -22c256 0 436 177 436 428c0 246 -180 420 -435 420c-254 0 -434 -174 -434 -420c0 -251 179 -428 433 -428zM488 67c-186 0 -317 140 -317 338c0 195 131 332 317 332
c187 0 320 -137 320 -331c0 -198 -133 -339 -320 -339z" />
    <glyph glyph-name="uni0200" unicode="&#x200;" horiz-adv-x="1382" 
d="M513 1329h70l-113 307h-125zM756 1329h70l-113 307h-125zM494 541l187 525h10l186 -525h-383zM70 0h418v82h-153l135 378h431l136 -378h-152v-82h427v82h-145l-366 988h139v82h-496v-82h136l-361 -988h-149v-82z" />
    <glyph glyph-name="uni0201" unicode="&#x201;" horiz-adv-x="940" 
d="M277 982h70l-113 307h-125zM520 982h70l-113 307h-125zM386 56c-114 0 -179 75 -179 165c0 130 98 170 204 170c89 0 171 -16 249 -30v-209c-106 -66 -186 -96 -274 -96zM373 -22c103 0 192 32 292 98c0 0 12 -80 12 -76h220v82h-125v465c0 150 -98 279 -322 279
c-88 0 -211 -26 -312 -80l35 -76c85 42 193 71 277 71c125 0 210 -66 210 -209v-99c-86 16 -174 29 -256 29c-165 0 -306 -63 -306 -245c0 -138 109 -239 275 -239z" />
    <glyph glyph-name="uni0202" unicode="&#x202;" horiz-adv-x="1382" 
d="M488 1274h88c15 65 53 99 114 99c58 0 98 -34 112 -99h89c-15 116 -89 186 -201 185c-110 1 -186 -69 -202 -185zM494 541l187 525h10l186 -525h-383zM70 0h418v82h-153l135 378h431l136 -378h-152v-82h427v82h-145l-366 988h139v82h-496v-82h136l-361 -988h-149v-82z
" />
    <glyph glyph-name="uni0203" unicode="&#x203;" horiz-adv-x="940" 
d="M252 926h88c15 65 53 99 114 99c58 0 98 -34 112 -99h89c-15 116 -89 186 -201 185c-110 1 -186 -69 -202 -185zM386 56c-114 0 -179 75 -179 165c0 130 98 170 204 170c89 0 171 -16 249 -30v-209c-106 -66 -186 -96 -274 -96zM373 -22c103 0 192 32 292 98
c0 0 12 -80 12 -76h220v82h-125v465c0 150 -98 279 -322 279c-88 0 -211 -26 -312 -80l35 -76c85 42 193 71 277 71c125 0 210 -66 210 -209v-99c-86 16 -174 29 -256 29c-165 0 -306 -63 -306 -245c0 -138 109 -239 275 -239z" />
    <glyph glyph-name="uni0204" unicode="&#x204;" horiz-adv-x="1204" 
d="M978 816h97v336h-977v-82h166v-988h-166v-82h993v342h-97v-260h-608v468h386v-155h67v390h-68v-149h-385v434h592v-254zM470 1329h70l-113 307h-125zM713 1329h70l-113 307h-125z" />
    <glyph glyph-name="uni0205" unicode="&#x205;" horiz-adv-x="955" 
d="M174 450c11 176 141 292 299 292c142 0 266 -100 284 -292h-583zM490 -21c139 0 275 58 362 150l-40 73c-73 -77 -193 -136 -318 -136c-162 0 -311 114 -321 312h695c-4 302 -194 448 -395 448c-223 0 -418 -156 -418 -424c0 -259 198 -423 435 -423zM306 981h70
l-113 307h-125zM549 981h70l-113 307h-125z" />
    <glyph glyph-name="uni0206" unicode="&#x206;" horiz-adv-x="1204" 
d="M978 816h97v336h-977v-82h166v-988h-166v-82h993v342h-97v-260h-608v468h386v-155h67v390h-68v-149h-385v434h592v-254zM445 1274h88c15 65 53 99 114 99c58 0 98 -34 112 -99h89c-15 116 -89 186 -201 185c-110 1 -186 -69 -202 -185z" />
    <glyph glyph-name="uni0207" unicode="&#x207;" horiz-adv-x="955" 
d="M174 450c11 176 141 292 299 292c142 0 266 -100 284 -292h-583zM490 -21c139 0 275 58 362 150l-40 73c-73 -77 -193 -136 -318 -136c-162 0 -311 114 -321 312h695c-4 302 -194 448 -395 448c-223 0 -418 -156 -418 -424c0 -259 198 -423 435 -423zM282 926h88
c15 65 53 99 114 99c58 0 98 -34 112 -99h89c-15 116 -89 186 -201 185c-110 1 -186 -69 -202 -185z" />
    <glyph glyph-name="uni0208" unicode="&#x208;" horiz-adv-x="670" 
d="M158 1329h70l-113 307h-125zM401 1329h70l-113 307h-125zM107 0h455v82h-166v988h166v82h-455v-82h166v-988h-166v-82z" />
    <glyph glyph-name="uni0209" unicode="&#x209;" horiz-adv-x="594" 
d="M113 0h433v82h-156v722h-275v-82h163v-640h-165v-82zM136 981h70l-113 307h-125zM379 981h70l-113 307h-125z" />
    <glyph glyph-name="uni020A" unicode="&#x20a;" horiz-adv-x="670" 
d="M133 1274h88c15 65 53 99 114 99c58 0 98 -34 112 -99h89c-15 116 -89 186 -201 185c-110 1 -186 -69 -202 -185zM107 0h455v82h-166v988h166v82h-455v-82h166v-988h-166v-82z" />
    <glyph glyph-name="uni020B" unicode="&#x20b;" horiz-adv-x="594" 
d="M113 0h433v82h-156v722h-275v-82h163v-640h-165v-82zM111 926h88c15 65 53 99 114 99c58 0 98 -34 112 -99h89c-15 116 -89 186 -201 185c-110 1 -186 -69 -202 -185z" />
    <glyph glyph-name="uni020C" unicode="&#x20c;" horiz-adv-x="1453" 
d="M726 70c-321 0 -485 236 -485 502c0 262 166 511 485 511c317 0 486 -249 486 -511c0 -260 -169 -502 -486 -502zM725 -22c395 0 617 286 617 594s-224 602 -616 602c-391 0 -615 -293 -615 -601s222 -595 614 -595zM545 1329h70l-113 307h-125zM788 1329h70l-113 307
h-125z" />
    <glyph glyph-name="uni020D" unicode="&#x20d;" horiz-adv-x="980" 
d="M488 -22c256 0 436 177 436 428c0 246 -180 420 -435 420c-254 0 -434 -174 -434 -420c0 -251 179 -428 433 -428zM488 67c-186 0 -317 140 -317 338c0 195 131 332 317 332c187 0 320 -137 320 -331c0 -198 -133 -339 -320 -339zM307 982h70l-113 307h-125zM550 982h70
l-113 307h-125z" />
    <glyph glyph-name="uni020E" unicode="&#x20e;" horiz-adv-x="1453" 
d="M726 70c-321 0 -485 236 -485 502c0 262 166 511 485 511c317 0 486 -249 486 -511c0 -260 -169 -502 -486 -502zM725 -22c395 0 617 286 617 594s-224 602 -616 602c-391 0 -615 -293 -615 -601s222 -595 614 -595zM521 1274h88c15 65 53 99 114 99c58 0 98 -34 112 -99
h89c-15 116 -89 186 -201 185c-110 1 -186 -69 -202 -185z" />
    <glyph glyph-name="uni020F" unicode="&#x20f;" horiz-adv-x="980" 
d="M488 -22c256 0 436 177 436 428c0 246 -180 420 -435 420c-254 0 -434 -174 -434 -420c0 -251 179 -428 433 -428zM488 67c-186 0 -317 140 -317 338c0 195 131 332 317 332c187 0 320 -137 320 -331c0 -198 -133 -339 -320 -339zM283 926h88c15 65 53 99 114 99
c58 0 98 -34 112 -99h89c-15 116 -89 186 -201 185c-110 1 -186 -69 -202 -185z" />
    <glyph glyph-name="uni0210" unicode="&#x210;" horiz-adv-x="1277" 
d="M954 0h255v82h-170l-284 461c239 21 323 152 323 306c0 180 -126 303 -366 303h-614v-82h166v-988h-166v-82h455v82h-167v988h329c174 0 241 -108 241 -223c0 -106 -54 -231 -281 -231h-217v-84h177zM440 1329h70l-113 307h-125zM683 1329h70l-113 307h-125z" />
    <glyph glyph-name="uni0211" unicode="&#x211;" horiz-adv-x="784" 
d="M89 0h432v82h-155l1 363c0 175 92 277 198 277c51 0 93 -15 138 -43l27 99c-52 26 -103 41 -158 41c-81 0 -159 -44 -206 -167v152h-276v-82h163v-640h-164v-82zM298 982h70l-113 307h-125zM541 982h70l-113 307h-125z" />
    <glyph glyph-name="uni0212" unicode="&#x212;" horiz-adv-x="1277" 
d="M954 0h255v82h-170l-284 461c239 21 323 152 323 306c0 180 -126 303 -366 303h-614v-82h166v-988h-166v-82h455v82h-167v988h329c174 0 241 -108 241 -223c0 -106 -54 -231 -281 -231h-217v-84h177zM416 1274h88c15 65 53 99 114 99c58 0 98 -34 112 -99h89
c-15 116 -89 186 -201 185c-110 1 -186 -69 -202 -185z" />
    <glyph glyph-name="uni0213" unicode="&#x213;" horiz-adv-x="784" 
d="M89 0h432v82h-155l1 363c0 175 92 277 198 277c51 0 93 -15 138 -43l27 99c-52 26 -103 41 -158 41c-81 0 -159 -44 -206 -167v152h-276v-82h163v-640h-164v-82zM273 926h88c15 65 53 99 114 99c58 0 98 -34 112 -99h89c-15 116 -89 186 -201 185
c-110 1 -186 -69 -202 -185z" />
    <glyph glyph-name="uni0214" unicode="&#x214;" horiz-adv-x="1423" 
d="M710 -21c296 0 504 146 504 412v679h156v82h-414v-82h151v-683c0 -194 -153 -316 -394 -316c-227 0 -369 124 -369 316v683h153v82h-429v-82h153v-670c0 -244 163 -421 489 -421zM544 1329h70l-113 307h-125zM787 1329h70l-113 307h-125z" />
    <glyph glyph-name="uni0215" unicode="&#x215;" 
d="M432 -21c113 0 216 47 313 120l5 -99h256v81h-150v723h-260v-82h147v-537c-87 -71 -176 -117 -289 -117c-117 0 -168 77 -168 176v560h-258v-82h145v-489c0 -121 63 -254 259 -254zM310 981h70l-113 307h-125zM553 981h70l-113 307h-125z" />
    <glyph glyph-name="uni0216" unicode="&#x216;" horiz-adv-x="1423" 
d="M710 -21c296 0 504 146 504 412v679h156v82h-414v-82h151v-683c0 -194 -153 -316 -394 -316c-227 0 -369 124 -369 316v683h153v82h-429v-82h153v-670c0 -244 163 -421 489 -421zM520 1274h88c15 65 53 99 114 99c58 0 98 -34 112 -99h89c-15 116 -89 186 -201 185
c-110 1 -186 -69 -202 -185z" />
    <glyph glyph-name="uni0217" unicode="&#x217;" 
d="M432 -21c113 0 216 47 313 120l5 -99h256v81h-150v723h-260v-82h147v-537c-87 -71 -176 -117 -289 -117c-117 0 -168 77 -168 176v560h-258v-82h145v-489c0 -121 63 -254 259 -254zM286 926h88c15 65 53 99 114 99c58 0 98 -34 112 -99h89c-15 116 -89 186 -201 185
c-110 1 -186 -69 -202 -185z" />
    <glyph glyph-name="uni0218" unicode="&#x218;" horiz-adv-x="1096" 
d="M533 -453c122 -1 164 78 163 185v153h-154v-145h88c0 -81 -21 -134 -97 -144v-49zM617 -21c283 0 390 178 390 325c0 264 -186 302 -413 333c-190 25 -329 56 -329 224c0 128 87 225 286 225c154 0 263 -64 289 -144v-107h100v319h-100v-96c-57 76 -194 116 -301 116
c-217 0 -385 -102 -385 -315c0 -252 202 -296 420 -322c200 -22 315 -62 315 -233c0 -123 -77 -236 -278 -236c-192 0 -312 68 -352 179v141h-101v-389h101v127c63 -101 193 -147 358 -147z" />
    <glyph glyph-name="uni0219" unicode="&#x219;" horiz-adv-x="897" 
d="M386 -453c122 -1 164 78 163 185v153h-154v-145h88c0 -81 -21 -134 -97 -144v-49zM492 -21c157 0 311 70 311 227c0 174 -117 208 -280 246l-116 26c-103 24 -161 55 -161 128c0 94 97 137 197 137c83 0 186 -37 229 -91l11 -116h84v270h-94v-65c-58 55 -159 85 -246 85
c-162 0 -294 -76 -294 -224c0 -137 90 -187 232 -220l121 -26c146 -31 209 -55 209 -159c0 -87 -92 -139 -215 -139c-104 0 -204 36 -259 109l-7 95h-82v-262h90v74c53 -56 158 -95 270 -95z" />
    <glyph glyph-name="uni021A" unicode="&#x21a;" horiz-adv-x="1145" 
d="M52 761h94v309h364v-988h-166v-82h455v82h-167v988h366v-309h96v391h-1042v-391zM484 -453c122 -1 164 78 163 185v153h-154v-145h88c0 -81 -21 -134 -97 -144v-49z" />
    <glyph glyph-name="uni021B" unicode="&#x21b;" horiz-adv-x="601" 
d="M422 0h123v82h-105c-105 0 -146 41 -146 155v485h223l1 82h-224v319l-112 -42v-277h-141v-82h141v-492c0 -165 90 -230 240 -230zM305 -447c122 -1 164 78 163 185v153h-154v-145h88c0 -81 -21 -134 -97 -144v-49z" />
    <glyph glyph-name="uni021E" unicode="&#x21e;" horiz-adv-x="1456" 
d="M98 0h455v82h-167v463h683v-463h-166v-82h455v82h-166v988h166v82h-455v-82h166v-438h-683v438h167v82h-455v-82h166v-988h-166v-82zM679 1270h101l166 307h-82l-134 -238l-138 238h-83z" />
    <glyph glyph-name="uni021F" unicode="&#x21f;" horiz-adv-x="1029" 
d="M36 0h401v82h-138v554c99 59 203 100 293 100c104 0 170 -66 170 -180v-474h-150v-82h412v82h-150v484c0 165 -109 260 -257 260c-109 0 -210 -45 -318 -112v460h-257v-82h144v-1010h-150v-82zM523 1159h101l166 307h-82l-134 -238l-138 238h-83z" />
    <glyph glyph-name="uni0226" unicode="&#x226;" horiz-adv-x="1382" 
d="M692 1343c50 0 88 35 88 82c0 46 -38 81 -88 81c-49 0 -86 -35 -86 -81c0 -47 37 -82 86 -82zM494 541l187 525h10l186 -525h-383zM70 0h418v82h-153l135 378h431l136 -378h-152v-82h427v82h-145l-366 988h139v82h-496v-82h136l-361 -988h-149v-82z" />
    <glyph glyph-name="uni0227" unicode="&#x227;" horiz-adv-x="940" 
d="M456 996c50 0 88 35 88 82c0 46 -38 81 -88 81c-49 0 -86 -35 -86 -81c0 -47 37 -82 86 -82zM386 56c-114 0 -179 75 -179 165c0 130 98 170 204 170c89 0 171 -16 249 -30v-209c-106 -66 -186 -96 -274 -96zM373 -22c103 0 192 32 292 98c0 0 12 -80 12 -76h220v82h-125
v465c0 150 -98 279 -322 279c-88 0 -211 -26 -312 -80l35 -76c85 42 193 71 277 71c125 0 210 -66 210 -209v-99c-86 16 -174 29 -256 29c-165 0 -306 -63 -306 -245c0 -138 109 -239 275 -239z" />
    <glyph glyph-name="uni0228" unicode="&#x228;" horiz-adv-x="1204" 
d="M634 -328c72 0 132 30 132 105c0 54 -39 105 -139 110l34 119h-54l-61 -160c86 -3 119 -26 119 -58c0 -36 -30 -53 -77 -53c-29 0 -65 7 -102 18v-47c46 -21 100 -34 148 -34zM978 816h97v336h-977v-82h166v-988h-166v-82h993v342h-97v-260h-608v468h386v-155h67v390h-68
v-149h-385v434h592v-254z" />
    <glyph glyph-name="uni0229" unicode="&#x229;" horiz-adv-x="955" 
d="M487 -328c72 0 132 30 132 105c0 54 -39 105 -139 110l34 119h-54l-61 -160c86 -3 119 -26 119 -58c0 -36 -30 -53 -77 -53c-29 0 -65 7 -102 18v-47c46 -21 100 -34 148 -34zM174 450c11 176 141 292 299 292c142 0 266 -100 284 -292h-583zM490 -21
c139 0 275 58 362 150l-40 73c-73 -77 -193 -136 -318 -136c-162 0 -311 114 -321 312h695c-4 302 -194 448 -395 448c-223 0 -418 -156 -418 -424c0 -259 198 -423 435 -423z" />
    <glyph glyph-name="uni022E" unicode="&#x22e;" horiz-adv-x="1453" 
d="M725 1343c50 0 88 35 88 82c0 46 -38 81 -88 81c-49 0 -86 -35 -86 -81c0 -47 37 -82 86 -82zM726 70c-321 0 -485 236 -485 502c0 262 166 511 485 511c317 0 486 -249 486 -511c0 -260 -169 -502 -486 -502zM725 -22c395 0 617 286 617 594s-224 602 -616 602
c-391 0 -615 -293 -615 -601s222 -595 614 -595z" />
    <glyph glyph-name="uni022F" unicode="&#x22f;" horiz-adv-x="980" 
d="M488 -22c256 0 436 177 436 428c0 246 -180 420 -435 420c-254 0 -434 -174 -434 -420c0 -251 179 -428 433 -428zM488 67c-186 0 -317 140 -317 338c0 195 131 332 317 332c187 0 320 -137 320 -331c0 -198 -133 -339 -320 -339zM486 996c50 0 88 35 88 82
c0 46 -38 81 -88 81c-49 0 -86 -35 -86 -81c0 -47 37 -82 86 -82z" />
    <glyph glyph-name="uni0232" unicode="&#x232;" horiz-adv-x="1281" 
d="M440 1282h408v71h-408v-71zM413 0h459v82h-169v400l397 588h155v82h-422v-82h153l-335 -504l-341 504h148v82h-435v-82h155l403 -588v-400h-168v-82z" />
    <glyph glyph-name="uni0233" unicode="&#x233;" horiz-adv-x="1065" 
d="M345 944h408v71h-408v-71zM218 -294h96c180 0 217 65 282 226l328 790h131v82h-396v-82h152l-244 -600l-266 600h130v82h-401v-82h156l305 -667h52l-51 -129c-42 -112 -76 -127 -187 -127h-87v-93z" />
    <glyph glyph-name="uni0237" unicode="&#x237;" horiz-adv-x="470" 
d="M14 -286h83c244 0 243 148 243 288v802h-284v-82h170v-749c0 -117 -9 -171 -134 -171h-78v-88z" />
    <glyph glyph-name="uni0259" unicode="&#x259;" horiz-adv-x="600" 
 />
    <glyph glyph-name="uni02BC" unicode="&#x2bc;" horiz-adv-x="600" 
d="M63 913c117 0 161 73 160 179l1 155h-155v-152h89c0 -96 -28 -122 -95 -133v-49z" />
    <glyph glyph-name="circumflex" unicode="&#x2c6;" horiz-adv-x="469" 
d="M91 923l141 260l141 -260h87l-172 316h-113l-170 -316h86z" />
    <glyph glyph-name="caron" unicode="&#x2c7;" horiz-adv-x="457" 
d="M176 922h101l166 307h-82l-134 -238l-138 238h-83z" />
    <glyph glyph-name="uni02C9" unicode="&#x2c9;" horiz-adv-x="600" 
d="M95 926h408v79h-408v-79z" />
    <glyph glyph-name="breve" unicode="&#x2d8;" horiz-adv-x="387" 
d="M195 925c107 0 177 66 192 177h-75c-15 -69 -56 -105 -117 -105c-63 0 -102 36 -118 105h-74c15 -112 87 -177 192 -177z" />
    <glyph glyph-name="dotaccent" unicode="&#x2d9;" horiz-adv-x="418" 
d="M213 995c50 0 88 35 88 82c0 46 -38 81 -88 81c-49 0 -86 -35 -86 -81c0 -47 37 -82 86 -82z" />
    <glyph glyph-name="ring" unicode="&#x2da;" horiz-adv-x="399" 
d="M198 881c90 0 144 59 144 139c0 77 -53 134 -145 134c-91 0 -144 -57 -144 -134c0 -80 54 -139 145 -139zM198 931c-56 0 -88 37 -88 88c0 49 32 85 88 85c55 0 87 -36 87 -85c0 -51 -32 -88 -87 -88z" />
    <glyph glyph-name="ogonek" unicode="&#x2db;" horiz-adv-x="434" 
d="M266 -328c41 0 78 11 121 37v66c-31 -20 -61 -29 -93 -29c-57 0 -95 33 -95 100c0 47 26 103 80 158h-69c-66 -69 -95 -134 -95 -189c0 -89 67 -143 151 -143z" />
    <glyph glyph-name="tilde" unicode="&#x2dc;" horiz-adv-x="522" 
d="M389 926c85 0 114 66 123 159h-48c-14 -61 -34 -75 -71 -75c-61 0 -167 79 -244 79c-73 0 -117 -52 -128 -158h49c12 57 29 74 64 74c66 0 164 -79 255 -79z" />
    <glyph glyph-name="hungarumlaut" unicode="&#x2dd;" horiz-adv-x="536" 
d="M425 1288l-112 -307h69l168 307h-125zM182 1288l-112 -307h69l168 307h-125z" />
    <glyph glyph-name="uni0307" unicode="&#x307;" horiz-adv-x="429" 
d="M214 955c54 0 83 39 83 78c0 43 -32 77 -83 77c-50 0 -82 -36 -82 -77c0 -39 32 -78 82 -78z" />
    <glyph glyph-name="uni030F" unicode="&#x30f;" horiz-adv-x="658" 
d="M199 981h70l-113 307h-125zM442 981h70l-113 307h-125z" />
    <glyph glyph-name="uni0311" unicode="&#x311;" horiz-adv-x="792" 
d="M194 946h88c15 65 53 99 114 99c58 0 98 -34 112 -99h89c-15 116 -89 186 -201 185c-110 1 -186 -69 -202 -185z" />
    <glyph glyph-name="uni0312" unicode="&#x312;" horiz-adv-x="600" 
d="M330 918v152h-89c0 96 27 122 94 134v49c-117 0 -161 -74 -160 -180l-1 -154z" />
    <glyph glyph-name="uni0326" unicode="&#x326;" horiz-adv-x="500" 
d="M194 -453c122 -1 164 78 163 185v153h-154v-145h88c0 -81 -21 -134 -97 -144v-49z" />
    <glyph glyph-name="uni0358" unicode="&#x358;" horiz-adv-x="480" 
d="M213 995c50 0 88 35 88 82c0 46 -38 81 -88 81c-49 0 -86 -35 -86 -81c0 -47 37 -82 86 -82z" />
    <glyph glyph-name="uni0394" unicode="&#x394;" horiz-adv-x="1167" 
d="M84 0h999v52l-456 1100h-107l-436 -1100v-52zM192 84l368 952l386 -952h-754z" />
    <glyph glyph-name="Sigma" unicode="&#x3a3;" horiz-adv-x="898" 
d="M98 0h759v91h-602l418 478l-403 495h553v88h-708v-59l410 -524l-427 -506v-63z" />
    <glyph glyph-name="uni03A9" unicode="&#x3a9;" horiz-adv-x="1426" 
d="M151 0h437v81c-220 118 -324 342 -324 544c0 240 151 456 449 456c297 0 449 -217 449 -456c0 -202 -104 -426 -324 -544v-81h437v82h-305c214 128 316 342 316 543c0 283 -204 549 -573 549c-368 0 -572 -266 -572 -550c0 -200 101 -414 316 -542h-306v-82z" />
    <glyph glyph-name="uni03BC" unicode="&#x3bc;" 
d="M173 -290h113v685h-113v-685zM432 -21c113 0 216 47 313 120l5 -99h256v81h-150v723h-260v-82h147v-537c-87 -71 -176 -117 -289 -117c-117 0 -168 77 -168 176v560h-258v-82h145v-489c0 -121 63 -254 259 -254z" />
    <glyph glyph-name="pi" unicode="&#x3c0;" horiz-adv-x="1145" 
d="M899 -14c40 0 88 12 128 32v62c-32 -10 -61 -16 -87 -16c-83 0 -131 56 -131 174c0 95 30 291 58 456h182v110h-714c-135 0 -183 -107 -183 -229h60c4 83 38 119 94 119h86l-64 -432c-23 -148 -75 -209 -191 -209v-55c223 0 278 69 294 242l43 454h324
c-43 -154 -94 -355 -94 -475c0 -152 60 -233 195 -233z" />
    <glyph glyph-name="uni1E02" unicode="&#x1e02;" horiz-adv-x="1233" 
d="M548 1343c50 0 88 35 88 82c0 46 -38 81 -88 81c-49 0 -86 -35 -86 -81c0 -47 37 -82 86 -82zM703 1152h-605v-82h166v-988h-166v-82h669c260 0 371 149 371 322c0 134 -69 254 -238 290c106 30 174 125 174 257c0 187 -130 283 -371 283zM673 1070
c190 0 280 -58 280 -206c0 -129 -66 -216 -232 -216h-335v422h287zM386 563h347c194 0 281 -100 281 -237c0 -150 -88 -244 -265 -244h-363v481z" />
    <glyph glyph-name="uni1E03" unicode="&#x1e03;" horiz-adv-x="1057" 
d="M627 995c50 0 88 35 88 82c0 46 -38 81 -88 81c-49 0 -86 -35 -86 -81c0 -47 37 -82 86 -82zM57 0h258v78c72 -64 166 -100 266 -100c237 0 421 162 421 435c0 262 -169 413 -399 413c-95 0 -201 -36 -288 -100v448h-253v-82h140v-1010h-145v-82zM315 163v477
c82 63 179 99 261 99c183 0 310 -126 310 -338c0 -215 -133 -338 -322 -338c-85 0 -177 37 -249 100z" />
    <glyph glyph-name="uni1E0A" unicode="&#x1e0a;" horiz-adv-x="1413" 
d="M620 1343c50 0 88 35 88 82c0 46 -38 81 -88 81c-49 0 -86 -35 -86 -81c0 -47 37 -82 86 -82zM751 1152h-652v-82h166v-988h-166v-82h655c365 0 548 274 548 581c0 272 -175 571 -551 571zM388 1070h359c293 0 430 -251 430 -491c0 -260 -135 -497 -437 -497h-352v988z
" />
    <glyph glyph-name="uni1E0B" unicode="&#x1e0b;" horiz-adv-x="1036" 
d="M408 995c50 0 88 35 88 82c0 46 -38 81 -88 81c-49 0 -86 -35 -86 -81c0 -47 37 -82 86 -82zM749 0h246v82h-132v1092h-253v-82h139v-362c-82 59 -192 96 -292 96c-222 0 -398 -159 -398 -423c0 -261 187 -425 418 -425c93 0 195 36 272 94v-72zM749 648v-494
c-73 -55 -169 -90 -252 -90c-183 0 -321 126 -321 329c0 216 126 347 300 347c90 0 193 -35 273 -92z" />
    <glyph glyph-name="uni1E1E" unicode="&#x1e1e;" horiz-adv-x="1134" 
d="M973 800h96v352h-971v-82h166v-988h-166v-82h455v82h-167v471h404v-152h67v378h-67v-139h-404v430h587v-270zM626 1343c50 0 88 35 88 82c0 46 -38 81 -88 81c-49 0 -86 -35 -86 -81c0 -47 37 -82 86 -82z" />
    <glyph glyph-name="uni1E1F" unicode="&#x1e1f;" horiz-adv-x="690" 
d="M95 0h472v82h-201v640h220v82h-220v192c0 90 39 132 102 132c65 0 94 -41 104 -112l87 27c-9 119 -94 167 -196 167c-141 0 -212 -83 -212 -212v-194h-156v-82h156v-640h-156v-82zM386 1300c50 0 88 35 88 82c0 46 -38 81 -88 81c-49 0 -86 -35 -86 -81
c0 -47 37 -82 86 -82z" />
    <glyph glyph-name="uni1E40" unicode="&#x1e40;" horiz-adv-x="1658" 
d="M824 1343c50 0 88 35 88 82c0 46 -38 81 -88 81c-49 0 -86 -35 -86 -81c0 -47 37 -82 86 -82zM106 0h402v82h-151v949l452 -955h36l439 955v-949h-153v-82h426v82h-154v988h154v82h-326l-392 -863l-411 863h-322v-82h155v-988h-155v-82z" />
    <glyph glyph-name="uni1E41" unicode="&#x1e41;" horiz-adv-x="1598" 
d="M835 995c50 0 88 35 88 82c0 46 -38 81 -88 81c-49 0 -86 -35 -86 -81c0 -47 37 -82 86 -82zM41 0h433v82h-156v564c103 56 204 90 275 90c106 0 171 -66 171 -180v-474h-150v-82h413v82h-150v484c0 25 -3 49 -9 70c93 62 197 100 291 100c106 0 171 -66 171 -180v-474
h-150v-82h412v82h-149v484c0 165 -110 260 -257 260c-126 0 -228 -50 -341 -125c-42 82 -124 125 -225 125c-91 0 -199 -40 -302 -101v79h-275v-82h163v-640h-165v-82z" />
    <glyph glyph-name="uni1E56" unicode="&#x1e56;" horiz-adv-x="1178" 
d="M626 1343c50 0 88 35 88 82c0 46 -38 81 -88 81c-49 0 -86 -35 -86 -81c0 -47 37 -82 86 -82zM98 0h455v82h-167v988h313c162 0 253 -85 253 -237c0 -170 -97 -266 -271 -266h-209v-82h212c254 0 395 126 395 350c0 204 -140 317 -392 317h-589v-82h166v-988h-166v-82z
" />
    <glyph glyph-name="uni1E57" unicode="&#x1e57;" horiz-adv-x="1044" 
d="M567 996c50 0 88 35 88 82c0 46 -38 81 -88 81c-49 0 -86 -35 -86 -81c0 -47 37 -82 86 -82zM566 -22c237 0 421 162 421 435c0 262 -169 413 -399 413c-100 0 -206 -39 -288 -102l-1 80h-242v-82h135v-958h-144v-82h405v82h-149v311c64 -57 161 -97 262 -97zM304 643
c81 64 184 96 257 96c183 0 309 -126 309 -338c0 -215 -132 -338 -321 -338c-84 0 -174 36 -245 97v483z" />
    <glyph glyph-name="uni1E60" unicode="&#x1e60;" horiz-adv-x="1096" 
d="M568 1343c50 0 88 35 88 82c0 46 -38 81 -88 81c-49 0 -86 -35 -86 -81c0 -47 37 -82 86 -82zM617 -21c283 0 390 178 390 325c0 264 -186 302 -413 333c-190 25 -329 56 -329 224c0 128 87 225 286 225c154 0 263 -64 289 -144v-107h100v319h-100v-96
c-57 76 -194 116 -301 116c-217 0 -385 -102 -385 -315c0 -252 202 -296 420 -322c200 -22 315 -62 315 -233c0 -123 -77 -236 -278 -236c-192 0 -312 68 -352 179v141h-101v-389h101v127c63 -101 193 -147 358 -147z" />
    <glyph glyph-name="uni1E61" unicode="&#x1e61;" horiz-adv-x="898" 
d="M444 996c50 0 88 35 88 82c0 46 -38 81 -88 81c-49 0 -86 -35 -86 -81c0 -47 37 -82 86 -82zM492 -21c157 0 311 70 311 227c0 174 -117 208 -280 246l-116 26c-103 24 -161 55 -161 128c0 94 97 137 197 137c83 0 186 -37 229 -91l11 -116h84v270h-94v-65
c-58 55 -159 85 -246 85c-162 0 -294 -76 -294 -224c0 -137 90 -187 232 -220l121 -26c146 -31 209 -55 209 -159c0 -87 -92 -139 -215 -139c-104 0 -204 36 -259 109l-7 95h-82v-262h90v74c53 -56 158 -95 270 -95z" />
    <glyph glyph-name="uni1E6A" unicode="&#x1e6a;" horiz-adv-x="1145" 
d="M569 1343c50 0 88 35 88 82c0 46 -38 81 -88 81c-49 0 -86 -35 -86 -81c0 -47 37 -82 86 -82zM52 761h94v309h364v-988h-166v-82h455v82h-167v988h366v-309h96v391h-1042v-391z" />
    <glyph glyph-name="uni1E6B" unicode="&#x1e6b;" horiz-adv-x="601" 
d="M242 1230c50 0 88 35 88 82c0 46 -38 81 -88 81c-49 0 -86 -35 -86 -81c0 -47 37 -82 86 -82zM422 0h123v82h-105c-105 0 -146 41 -146 155v485h223l1 82h-224v319l-112 -42v-277h-141v-82h141v-492c0 -165 90 -230 240 -230z" />
    <glyph glyph-name="Wgrave" unicode="&#x1e80;" horiz-adv-x="1915" 
d="M930 1329h70l-101 279h-126zM547 0h110l304 919l303 -919h110l339 1070h144v82h-401v-82h151l-283 -913l-313 959h-90l-313 -959l-288 913h154v82h-416v-82h141z" />
    <glyph glyph-name="wgrave" unicode="&#x1e81;" horiz-adv-x="1503" 
d="M404 0h117l230 628l231 -628h115l251 723h121v82h-349v-82h123l-203 -618l-227 618h129v82h-380v-82h128l-221 -617l-216 617h129v82h-358v-82h117zM717 981h70l-101 279h-126z" />
    <glyph glyph-name="Wacute" unicode="&#x1e82;" horiz-adv-x="1915" 
d="M547 0h110l304 919l303 -919h110l339 1070h144v82h-401v-82h151l-283 -913l-313 959h-90l-313 -959l-288 913h154v82h-416v-82h141zM1039 1608l-101 -279h69l157 279h-125z" />
    <glyph glyph-name="wacute" unicode="&#x1e83;" horiz-adv-x="1503" 
d="M404 0h117l230 628l231 -628h115l251 723h121v82h-349v-82h123l-203 -618l-227 618h129v82h-380v-82h128l-221 -617l-216 617h129v82h-358v-82h117zM825 1260l-101 -279h69l157 279h-125z" />
    <glyph glyph-name="Wdieresis" unicode="&#x1e84;" horiz-adv-x="1915" 
d="M547 0h110l304 919l303 -919h110l339 1070h144v82h-401v-82h151l-283 -913l-313 959h-90l-313 -959l-288 913h154v82h-416v-82h141zM780 1288c44 0 73 27 73 70c0 42 -29 69 -73 69s-72 -27 -72 -69c0 -43 28 -70 72 -70zM1144 1287c44 0 73 27 73 70c0 42 -28 70 -73 70
c-44 0 -72 -28 -72 -70c0 -43 28 -70 72 -70z" />
    <glyph glyph-name="wdieresis" unicode="&#x1e85;" horiz-adv-x="1503" 
d="M404 0h117l230 628l231 -628h115l251 723h121v82h-349v-82h123l-203 -618l-227 618h129v82h-380v-82h128l-221 -617l-216 617h129v82h-358v-82h117zM567 940c44 0 73 27 73 70c0 42 -29 69 -73 69s-72 -27 -72 -69c0 -43 28 -70 72 -70zM931 939c44 0 73 27 73 70
c0 42 -28 70 -73 70c-44 0 -72 -28 -72 -70c0 -43 28 -70 72 -70z" />
    <glyph glyph-name="uni1EBC" unicode="&#x1ebc;" horiz-adv-x="1204" 
d="M771 1282c85 0 114 66 123 159h-48c-14 -61 -34 -75 -71 -75c-61 0 -167 79 -244 79c-73 0 -117 -52 -128 -158h49c12 57 29 74 64 74c66 0 164 -79 255 -79zM978 816h97v336h-977v-82h166v-988h-166v-82h993v342h-97v-260h-608v468h386v-155h67v390h-68v-149h-385v434
h592v-254z" />
    <glyph glyph-name="uni1EBD" unicode="&#x1ebd;" horiz-adv-x="955" 
d="M607 934c85 0 114 66 123 159h-48c-14 -61 -34 -75 -71 -75c-61 0 -167 79 -244 79c-73 0 -117 -52 -128 -158h49c12 57 29 74 64 74c66 0 164 -79 255 -79zM174 450c11 176 141 292 299 292c142 0 266 -100 284 -292h-583zM490 -21c139 0 275 58 362 150l-40 73
c-73 -77 -193 -136 -318 -136c-162 0 -311 114 -321 312h695c-4 302 -194 448 -395 448c-223 0 -418 -156 -418 -424c0 -259 198 -423 435 -423z" />
    <glyph glyph-name="Ygrave" unicode="&#x1ef2;" horiz-adv-x="1281" 
d="M612 1329h70l-101 279h-126zM413 0h459v82h-169v400l397 588h155v82h-422v-82h153l-335 -504l-341 504h148v82h-435v-82h155l403 -588v-400h-168v-82z" />
    <glyph glyph-name="ygrave" unicode="&#x1ef3;" horiz-adv-x="1065" 
d="M517 981h70l-101 279h-126zM218 -294h96c180 0 217 65 282 226l328 790h131v82h-396v-82h152l-244 -600l-266 600h130v82h-401v-82h156l305 -667h52l-51 -129c-42 -112 -76 -127 -187 -127h-87v-93z" />
    <glyph glyph-name="uni1EF8" unicode="&#x1ef8;" horiz-adv-x="1281" 
d="M772 1282c85 0 114 66 123 159h-48c-14 -61 -34 -75 -71 -75c-61 0 -167 79 -244 79c-73 0 -117 -52 -128 -158h49c12 57 29 74 64 74c66 0 164 -79 255 -79zM413 0h459v82h-169v400l397 588h155v82h-422v-82h153l-335 -504l-341 504h148v82h-435v-82h155l403 -588v-400
h-168v-82z" />
    <glyph glyph-name="uni1EF9" unicode="&#x1ef9;" horiz-adv-x="1065" 
d="M677 934c85 0 114 66 123 159h-48c-14 -61 -34 -75 -71 -75c-61 0 -167 79 -244 79c-73 0 -117 -52 -128 -158h49c12 57 29 74 64 74c66 0 164 -79 255 -79zM218 -294h96c180 0 217 65 282 226l328 790h131v82h-396v-82h152l-244 -600l-266 600h130v82h-401v-82h156
l305 -667h52l-51 -129c-42 -112 -76 -127 -187 -127h-87v-93z" />
    <glyph glyph-name="endash" unicode="&#x2013;" horiz-adv-x="752" 
d="M0 444h752v77h-752v-77z" />
    <glyph glyph-name="emdash" unicode="&#x2014;" horiz-adv-x="1230" 
d="M0 453h1230v76h-1230v-76z" />
    <glyph glyph-name="uni2015" unicode="&#x2015;" horiz-adv-x="1150" 
d="M0 453h1150v76h-1150v-76z" />
    <glyph glyph-name="quoteleft" unicode="&#x2018;" horiz-adv-x="449" 
d="M134 933h141v144h-65c1 83 10 109 74 129v58c-113 -1 -150 -80 -150 -187v-144z" />
    <glyph glyph-name="quoteright" unicode="&#x2019;" horiz-adv-x="455" 
d="M174 912c114 2 150 81 150 188v143h-140v-142h65c-2 -84 -10 -111 -75 -130v-59z" />
    <glyph glyph-name="quotesinglbase" unicode="&#x201a;" horiz-adv-x="450" 
d="M176 -196c114 1 150 81 149 188v142h-140v-143h66c-2 -83 -10 -110 -75 -129v-58z" />
    <glyph glyph-name="quotedblleft" unicode="&#x201c;" horiz-adv-x="733" 
d="M167 933h141v144h-65c1 83 10 109 74 129v58c-114 -1 -150 -80 -150 -187v-144zM405 933h140v144h-63c0 83 9 109 73 129v58c-113 -2 -150 -80 -150 -187v-144z" />
    <glyph glyph-name="quotedblright" unicode="&#x201d;" horiz-adv-x="733" 
d="M183 912c114 2 150 81 150 188v143h-141v-142h66c-2 -84 -10 -111 -75 -130v-59zM418 912c114 2 150 81 150 188v143h-140v-142h65c-2 -84 -10 -111 -75 -130v-59z" />
    <glyph glyph-name="quotedblbase" unicode="&#x201e;" horiz-adv-x="763" 
d="M183 -196c113 1 149 81 149 188v142h-141v-143h66c-2 -83 -10 -110 -74 -129v-58zM450 -196c113 1 149 81 149 188v142h-141v-143h65c-1 -83 -8 -110 -73 -129v-58z" />
    <glyph glyph-name="dagger" unicode="&#x2020;" horiz-adv-x="575" 
d="M261 -50h52c0 268 33 441 39 596c0 72 -24 179 -39 260l233 -27v110l-233 -22l41 278h-133l40 -278l-235 22v-110l235 27c-15 -82 -38 -190 -38 -262c6 -155 38 -326 38 -594z" />
    <glyph glyph-name="daggerdbl" unicode="&#x2021;" horiz-adv-x="620" 
d="M240 -93h142l-43 279l251 -26v118l-244 -32c6 33 5 234 5 313c0 81 1 286 -5 320l244 -32v118l-251 -26l43 279h-142l43 -279l-253 26v-118l246 32c-7 -34 -5 -235 -5 -315s-2 -285 5 -318l-246 32v-118l253 26z" />
    <glyph glyph-name="bullet" unicode="&#x2022;" horiz-adv-x="674" 
d="M337 425c129 0 232 100 232 223c0 125 -103 222 -232 222s-231 -97 -231 -222c0 -122 102 -223 231 -223z" />
    <glyph glyph-name="ellipsis" unicode="&#x2026;" horiz-adv-x="1467" 
d="M675 0h150v153h-150v-153zM877 0h150v153h-150v-153zM403 0h150v153h-150v-153z" />
    <glyph glyph-name="perthousand" unicode="&#x2030;" horiz-adv-x="2363" 
d="M1976 -22c172 0 296 120 296 285c0 162 -124 280 -296 280c-169 0 -293 -118 -293 -280c0 -165 124 -285 293 -285zM1976 49c-121 0 -209 90 -209 214c0 122 88 211 209 211c123 0 212 -89 212 -211c0 -124 -89 -214 -212 -214zM404 681c-121 1 -209 90 -209 214
c0 122 88 211 209 211c123 0 212 -89 212 -211c0 -124 -89 -213 -212 -214zM404 610c172 0 296 120 296 285c0 162 -124 280 -296 280c-169 0 -293 -118 -293 -280c0 -165 124 -285 293 -285zM349 -50l1025 1236l-54 45l-1029 -1229zM1261 49c-122 0 -210 90 -210 214
c0 122 88 211 210 211c123 0 211 -89 211 -211c0 -124 -88 -214 -211 -214zM1261 -22c171 0 295 120 295 285c0 162 -124 280 -295 280c-170 0 -294 -118 -294 -280c0 -165 124 -285 294 -285z" />
    <glyph glyph-name="guilsinglleft" unicode="&#x2039;" horiz-adv-x="501" 
d="M302 234h80l-210 392l210 390h-80l-286 -390z" />
    <glyph glyph-name="guilsinglright" unicode="&#x203a;" horiz-adv-x="501" 
d="M119 234h81l286 393l-286 389h-81l210 -390z" />
    <glyph glyph-name="fraction" unicode="&#x2044;" horiz-adv-x="504" 
d="M-77 -36h88l559 1308h-84z" />
    <glyph glyph-name="uni2074" unicode="&#x2074;" horiz-adv-x="833" 
d="M347 541h308v63h-112v171h164v63h-164v495h-84l-363 -489l13 -69h355v-171h-117v-63zM181 838l283 393v-393h-283z" />
    <glyph glyph-name="Euro" unicode="&#x20ac;" horiz-adv-x="1378" 
d="M-25 423h627l32 72h-627zM-25 635h627l32 73h-627zM708 -22c230 1 428 80 536 310l-88 47c-88 -197 -266 -265 -441 -265c-258 0 -484 184 -484 510c0 272 182 501 484 501c210 0 338 -84 430 -274l84 9v337h-95v-190c-89 129 -213 210 -426 210
c-362 0 -600 -256 -600 -594c0 -381 274 -600 600 -601z" />
    <glyph glyph-name="uni2113" unicode="&#x2113;" horiz-adv-x="614" 
d="M459 -10l14 78c-161 0 -206 23 -175 222l145 925h-281l-9 -83h171l-140 -869c-35 -213 46 -275 275 -273z" />
    <glyph glyph-name="trademark" unicode="&#x2122;" horiz-adv-x="1693" 
d="M799 540h219v61h-78v427l215 -458h23l205 457v-426h-75v-61h226v61h-76v490h76v61h-168l-199 -456l-204 456h-164v-61h77v-490h-77v-61zM288 540h242v60h-83v489h168v-160h65v223h-538v-223h65v160h164v-489h-83v-60z" />
    <glyph glyph-name="Omega" unicode="&#x2126;" horiz-adv-x="1426" 
d="M151 0h437v81c-220 118 -324 342 -324 544c0 240 151 456 449 456c297 0 449 -217 449 -456c0 -202 -104 -426 -324 -544v-81h437v82h-305c214 128 316 342 316 543c0 283 -204 549 -573 549c-368 0 -572 -266 -572 -550c0 -200 101 -414 316 -542h-306v-82z" />
    <glyph glyph-name="estimated" unicode="&#x212e;" horiz-adv-x="834" 
d="M554 -17c142 1 267 58 363 146l-27 32c-90 -80 -199 -128 -316 -126c-180 3 -306 147 -318 362h657c0 259 -138 425 -379 425c-248 0 -415 -163 -415 -411c0 -265 194 -428 435 -428zM258 444c6 212 133 347 292 347c150 -1 280 -133 286 -347h-578z" />
    <glyph glyph-name="partialdiff" unicode="&#x2202;" horiz-adv-x="1013" 
d="M401 -21c344 0 462 395 462 689c0 326 -122 528 -367 528c-151 0 -243 -67 -243 -160c0 -52 32 -82 101 -82c0 107 76 175 185 175c167 0 272 -233 260 -566l15 5c-21 77 -106 156 -253 156c-312 0 -434 -293 -434 -470c0 -144 69 -275 274 -275zM448 46
c-134 0 -183 91 -183 203c0 143 84 411 322 411c109 0 181 -51 204 -143c-28 -235 -155 -471 -343 -471z" />
    <glyph glyph-name="emptyset" unicode="&#x2205;" horiz-adv-x="1348" 
d="M235 -52l113 133c91 -65 204 -103 325 -103c303 0 550 245 550 547c0 154 -64 293 -166 392l119 140l-45 40l-119 -141c-94 73 -211 117 -339 117c-302 0 -548 -235 -548 -548c0 -166 68 -309 177 -407l-110 -131zM348 171c-94 86 -151 212 -151 354
c0 270 210 481 476 481c112 0 214 -39 294 -102zM673 45c-105 0 -202 33 -280 89l619 729c86 -87 139 -207 139 -338c0 -261 -211 -480 -478 -480z" />
    <glyph glyph-name="Delta" unicode="&#x2206;" horiz-adv-x="895" 
d="M70 0h767v78l-325 992h-112l-330 -996v-74zM150 84c0 0 271 842 279 878c8 -36 276 -878 276 -878h-555z" />
    <glyph glyph-name="product" unicode="&#x220f;" horiz-adv-x="1382" 
d="M118 0h423v83h-151v987h602v-987h-150v-83h423v83h-151v987h151v82h-1147v-82h151v-987h-151v-83z" />
    <glyph glyph-name="summation" unicode="&#x2211;" horiz-adv-x="1258" 
d="M123 0h977v359h-97v-277h-637l383 491v47l-353 450h592v-270h96v352h-961v-82h155l379 -488l-384 -500h-150v-82z" />
    <glyph glyph-name="minus" unicode="&#x2212;" horiz-adv-x="920" 
d="M98 507h724v89h-724v-89z" />
    <glyph glyph-name="uni2215" unicode="&#x2215;" horiz-adv-x="600" 
d="M-14 -14l84 -16l427 1222l-80 16z" />
    <glyph glyph-name="uni2219" unicode="&#x2219;" horiz-adv-x="600" 
d="M262 824c50 0 88 35 88 82c0 46 -38 81 -88 81c-49 0 -86 -35 -86 -81c0 -47 37 -82 86 -82z" />
    <glyph glyph-name="radical" unicode="&#x221a;" horiz-adv-x="1142" 
d="M480 -14h82l457 1377h-78l-410 -1234l-227 524h-271v-75h179z" />
    <glyph glyph-name="infinity" unicode="&#x221e;" horiz-adv-x="1404" 
d="M990 243c144 0 272 127 272 320c0 206 -125 320 -271 320c-121 0 -214 -72 -285 -205c-77 151 -193 210 -289 210c-169 0 -275 -146 -275 -320c0 -184 99 -319 275 -319c103 0 205 64 282 209c82 -158 185 -215 291 -215zM415 328c-123 0 -183 107 -183 239
c0 120 62 241 180 241c101 0 179 -84 245 -240c-75 -166 -152 -240 -242 -240zM990 324c-103 0 -172 72 -245 239c75 160 147 240 244 240c110 0 183 -105 183 -238c0 -141 -73 -241 -182 -241z" />
    <glyph glyph-name="integral" unicode="&#x222b;" horiz-adv-x="759" 
d="M119 -202c171 0 216 124 234 252l141 933c19 136 62 176 120 174c48 -2 70 -46 68 -120c77 0 101 38 104 74c4 60 -59 99 -150 101c-161 2 -230 -103 -248 -231l-143 -954c-17 -127 -48 -174 -103 -174c-48 0 -74 39 -71 123c-77 0 -101 -37 -104 -73
c-4 -60 55 -105 152 -105z" />
    <glyph glyph-name="approxequal" unicode="&#x2248;" horiz-adv-x="890" 
d="M791 847c-58 -45 -117 -77 -173 -77c-44 0 -83 11 -155 42c-89 36 -137 50 -199 50c-65 0 -123 -22 -175 -71v-101c50 46 109 76 162 76c50 0 93 -14 168 -45c86 -36 130 -47 187 -47c69 0 128 24 185 74v99zM791 583c-58 -45 -117 -77 -173 -77c-44 0 -83 11 -155 42
c-89 36 -137 50 -199 50c-65 0 -123 -22 -175 -71v-100c50 45 109 75 162 75c50 0 93 -14 168 -45c86 -36 130 -47 187 -47c69 0 128 24 185 74v99z" />
    <glyph glyph-name="notequal" unicode="&#x2260;" horiz-adv-x="951" 
d="M333 48h83l50 195h389v79h-368l59 220h299v82h-278l53 193h-80l-53 -193h-389v-82h366l-59 -220h-297v-79h275z" />
    <glyph glyph-name="lessequal" unicode="&#x2264;" horiz-adv-x="791" 
d="M742 196v95l-593 317l593 320v96l-732 -390v-51zM10 0h732v83h-732v-83z" />
    <glyph glyph-name="greaterequal" unicode="&#x2265;" horiz-adv-x="793" 
d="M57 196l732 387v51l-732 390v-96l594 -320l-594 -317v-95zM57 0h732v83h-732v-83z" />
    <glyph glyph-name="lozenge" unicode="&#x25ca;" horiz-adv-x="1033" 
d="M485 -18h63l445 629l-445 624h-63l-445 -625zM519 76l-356 535l356 527l354 -527z" />
    <glyph glyph-name="uniFB00" unicode="&#xfb00;" horiz-adv-x="1344" 
d="M1168 723v82h-212v193c0 88 44 129 95 129c56 0 96 -28 107 -111l86 27c-11 132 -107 167 -196 167c-123 0 -206 -80 -206 -214v-191l-476 -1v192c0 90 36 132 98 132c65 0 93 -41 103 -112l87 27c-9 119 -92 167 -194 167c-141 0 -209 -83 -209 -212v-194h-156v-82h156
v-640h-152v-82h446v82h-179v640l476 1v-641h-146v-82h448v82h-188v641h212z" />
    <glyph glyph-name="uniFB01" unicode="&#xfb01;" horiz-adv-x="1124" 
d="M108 0h449v82h-187v640h472v-640h-150v-82h407v82h-145v722h-584v124c0 168 110 245 278 245c70 0 161 -19 192 -62c-20 -10 -29 -31 -29 -51c0 -42 36 -73 83 -73s79 34 79 80c0 107 -144 176 -324 176c-228 0 -392 -102 -392 -315v-124h-154v-82h154v-640h-149v-82z
" />
    <glyph glyph-name="uniFB02" unicode="&#xfb02;" horiz-adv-x="1233" 
d="M108 0h449v82h-187v640h195v82h-195v154c0 130 137 201 301 201c115 0 196 -27 196 -69v-1008c0 -30 25 -82 60 -82h234v82h-181v1031c0 86 -130 138 -303 138c-227 0 -420 -102 -420 -300v-147h-154v-82h154v-640h-149v-82z" />
    <glyph glyph-name="uniFB03" unicode="&#xfb03;" horiz-adv-x="1865" 
d="M150 0h452v82h-185v640h416v82h-416v189c0 97 95 153 231 153c92 0 204 -36 295 -100l73 23c-98 101 -249 154 -380 154c-188 0 -332 -85 -332 -232v-187h-158v-82h158v-640h-154v-82zM761 0h449v82h-187v640h472v-640h-150v-82h407v82h-145v722h-584v124
c0 168 110 245 278 245c70 0 161 -19 192 -62c-20 -10 -29 -31 -29 -51c0 -42 36 -73 83 -73s79 34 79 80c0 107 -144 176 -324 176c-228 0 -392 -102 -392 -315v-124h-154v-82h154v-640h-149v-82z" />
    <glyph glyph-name="uniFB04" unicode="&#xfb04;" horiz-adv-x="1864" 
d="M87 0h473v82h-202v640h433v82h-433v179c0 99 104 154 246 154c104 0 230 -41 313 -110l83 32c-105 108 -266 164 -406 164c-197 0 -349 -89 -349 -242v-177h-158v-82h158v-640h-158v-82zM747 0h449v82h-187v640h195v82h-195v154c0 130 137 201 301 201
c115 0 196 -27 196 -69v-1008c0 -30 25 -82 60 -82h234v82h-181v1031c0 86 -130 138 -303 138c-227 0 -420 -102 -420 -300v-147h-154v-82h154v-640h-149v-82z" />
    <glyph glyph-name="NULL" horiz-adv-x="-240" 
 />
    <glyph glyph-name="caron.alt" horiz-adv-x="600" 
d="M219 836c121 0 163 78 163 186v152h-155v-144h88c0 -82 -21 -134 -96 -144v-50z" />
    <glyph glyph-name="f_j" horiz-adv-x="1146" 
d="M954 804h-584v124c0 168 110 245 278 245c70 0 161 -19 192 -62c-20 -10 -29 -31 -29 -51c0 -42 36 -73 83 -73s79 34 79 80c0 107 -144 176 -324 176c-228 0 -392 -102 -392 -315v-124h-154v-82h154v-640h-149v-82h449v82h-187v640h469v-749c0 -117 -9 -171 -134 -171
h-78v-88h83c246 0 244 148 244 288v802z" />
    <glyph glyph-name="foundryicon" horiz-adv-x="1347" 
d="M485 405v267h106l170 -149v149h106v-267h-106l-170 147v-147h-106zM280 2l389 276l397 -276l-144 459l391 294h-485l-159 460l-150 -460h-485l389 -294z" />
    <glyph glyph-name="idotaccent" horiz-adv-x="594" 
d="M315 995c50 0 88 35 88 82c0 46 -38 81 -88 81c-49 0 -86 -35 -86 -81c0 -47 37 -82 86 -82zM113 0h433v82h-156v722h-275v-82h163v-640h-165v-82z" />
    </font>
</defs>
</svg>
