<?xml version="1.0" standalone="no"?>
<!DOCTYPE svg PUBLIC "-//W3C//DTD SVG 1.1//EN" "http://www.w3.org/Graphics/SVG/1.1/DTD/svg11.dtd" >
<svg version="1.1" xmlns="http://www.w3.org/2000/svg">
<metadata>
Created by FontForge 20120731 at Fri Aug  1 16:50:38 2014
 By Alfred Xing
Digitized data Copyright (c) 2011-2013, vernon adams.
</metadata>
<defs>
<font id="rokkitt" horiz-adv-x="978" >
  <font-face 
    font-family="Rokkitt"
    font-weight="600"
    font-stretch="normal"
    units-per-em="2048"
    panose-1="2 0 7 3 0 0 0 0 0 0"
    ascent="1638"
    descent="-410"
    x-height="804"
    cap-height="1152"
    bbox="-129 -539 2472 1950"
    underline-thickness="0"
    underline-position="0"
    unicode-range="U+000D-FB02"
  />
<missing-glyph horiz-adv-x="738" 
 />
    <glyph glyph-name=".notdef" horiz-adv-x="738" 
 />
    <glyph glyph-name="uni0000" horiz-adv-x="1204" 
d="M651 -342h96c304 0 331 158 331 389v757h-654v94c0 214 93 283 228 283c79 0 155 -24 198 -57c-10 -16 -16 -35 -16 -55c0 -61 50 -108 113 -108c65 0 115 47 115 108c0 135 -201 225 -411 225c-232 0 -425 -110 -425 -393v-97h-130v-140h130v-524h-126v-140h492v140
h-168v524h456v-677c0 -121 -29 -173 -133 -173h-96v-156z" />
    <glyph glyph-name="uni0000" horiz-adv-x="1204" 
d="M651 -342h96c304 0 331 158 331 389v757h-654v94c0 214 93 283 228 283c79 0 155 -24 198 -57c-10 -16 -16 -35 -16 -55c0 -61 50 -108 113 -108c65 0 115 47 115 108c0 135 -201 225 -411 225c-232 0 -425 -110 -425 -393v-97h-130v-140h130v-524h-126v-140h492v140
h-168v524h456v-677c0 -121 -29 -173 -133 -173h-96v-156z" />
    <glyph glyph-name="uni000D" unicode="&#xd;" horiz-adv-x="600" 
 />
    <glyph glyph-name="space" unicode=" " horiz-adv-x="613" 
 />
    <glyph glyph-name="exclam" unicode="!" horiz-adv-x="510" 
d="M207 408h109l48 496v313h-209v-313zM133 0h251v244h-251v-244z" />
    <glyph glyph-name="quotedbl" unicode="&#x22;" horiz-adv-x="822" 
d="M185 746h124l45 473h-220zM517 746h124l46 473h-220z" />
    <glyph glyph-name="numbersign" unicode="#" horiz-adv-x="1234" 
d="M194 -10h153l59 343h315l-57 -343h154l58 343h264l3 136h-239l47 286h207l3 138h-183l60 340h-156l-59 -340h-313l58 340h-155l-58 -340h-256l-3 -138h230l-47 -286h-199l-3 -136h173zM433 469l47 286h315l-47 -286h-315z" />
    <glyph glyph-name="dollar" unicode="$" horiz-adv-x="1044" 
d="M456 -183h95v1549h-95v-1549zM536 -19c217 0 394 131 393 341c0 252 -163 319 -408 367c-172 33 -248 76 -248 180c0 91 65 149 194 149c96 0 169 -31 225 -99v-100h174v338h-174v-75c-63 59 -150 92 -248 92c-226 0 -379 -111 -379 -315c0 -239 170 -311 410 -354
c167 -29 234 -79 234 -197c0 -98 -70 -169 -192 -169c-115 0 -228 68 -268 128v126h-176v-394h176v94c77 -68 175 -112 287 -112z" />
    <glyph glyph-name="percent" unicode="%" horiz-adv-x="1764" 
d="M426 695c-98 2 -171 79 -171 184c0 104 73 181 171 182c100 -1 174 -78 174 -182c0 -105 -74 -182 -174 -184zM426 578c180 0 314 128 314 301c0 171 -134 298 -314 298c-179 0 -312 -127 -312 -298c0 -173 133 -301 312 -301zM423 -70l1025 1235l-96 81l-1029 -1229z
M1349 96c-98 1 -172 78 -172 184c0 104 74 180 172 181c99 -1 173 -77 173 -181c0 -106 -74 -183 -173 -184zM1349 -22c180 0 313 129 313 302c0 170 -133 297 -313 297s-312 -127 -312 -297c0 -173 132 -302 312 -302z" />
    <glyph glyph-name="ampersand" unicode="&#x26;" horiz-adv-x="1380" 
d="M527 -19c138 0 258 48 370 143l94 -124h313v153h-193l-87 109c58 67 104 149 140 253l139 2v150h-269c-23 -98 -57 -198 -118 -274l-233 268c178 79 252 180 252 312c0 143 -129 256 -306 256c-188 0 -326 -115 -326 -268c0 -88 41 -166 111 -255
c-200 -78 -318 -189 -318 -354c0 -210 180 -371 431 -371zM560 149c-148 0 -254 103 -254 214c0 100 70 174 205 227l284 -339c-72 -71 -149 -102 -235 -102zM591 781c-65 83 -98 137 -98 187c0 75 56 120 135 120c76 0 133 -48 133 -124c0 -75 -55 -129 -170 -183z" />
    <glyph glyph-name="quotesingle" unicode="'" horiz-adv-x="491" 
d="M184 746h124l46 473h-220z" />
    <glyph glyph-name="parenleft" unicode="(" horiz-adv-x="609" 
d="M524 -126v135c-118 74 -179 295 -179 516s61 442 179 516v132c-285 -120 -429 -386 -429 -651c0 -264 142 -527 429 -648z" />
    <glyph glyph-name="parenright" unicode=")" horiz-adv-x="609" 
d="M129 -126c287 121 430 384 430 648c0 265 -144 531 -430 651l1 -132c118 -74 178 -295 178 -516s-60 -442 -178 -516z" />
    <glyph glyph-name="asterisk" unicode="*" horiz-adv-x="930" 
d="M298 407l167 333l169 -333l140 101l-256 262l357 61l-48 163l-336 -169l59 368h-169l59 -368l-335 169l-49 -163l357 -61l-257 -262z" />
    <glyph glyph-name="plus" unicode="+" horiz-adv-x="1033" 
d="M443 104h163v399h362v151h-362v398h-163v-398h-362v-151h362v-399z" />
    <glyph glyph-name="comma" unicode="," horiz-adv-x="545" 
d="M162 -272c202 1 264 97 264 295c0 49 -3 187 -7 226c-53 0 -210 -1 -255 -6c0 -42 1 -201 2 -242h132c0 -111 -38 -153 -136 -170v-103z" />
    <glyph glyph-name="hyphen" unicode="-" horiz-adv-x="627" 
d="M72 361h483v152h-483v-152z" />
    <glyph glyph-name="period" unicode="." horiz-adv-x="580" 
d="M167 0h251v243h-251v-243z" />
    <glyph glyph-name="slash" unicode="/" horiz-adv-x="718" 
d="M143 -51l579 1264l-130 39l-581 -1264z" />
    <glyph glyph-name="zero" unicode="0" horiz-adv-x="1106" 
d="M552 128c-150 0 -227 146 -227 428c0 308 77 469 227 469c151 0 230 -160 230 -468c0 -282 -79 -429 -230 -429zM552 -22c295 0 440 201 440 579s-145 617 -440 617c-293 0 -437 -241 -437 -617c0 -377 144 -579 437 -579z" />
    <glyph glyph-name="one" unicode="1" horiz-adv-x="755" 
d="M130 0h550v146h-166v1006l-395 -51v-145l187 22v-832h-176v-146z" />
    <glyph glyph-name="two" unicode="2" horiz-adv-x="1044" 
d="M138 0h793l-3 371h-168l-1 -212h-373l234 233c130 130 301 269 301 439c0 212 -149 343 -400 343c-245 0 -393 -141 -393 -344c0 -49 9 -101 26 -153h182c-12 47 -18 89 -18 127c0 134 80 201 205 201c141 0 184 -84 188 -176c5 -93 -117 -201 -223 -309l-350 -358v-162z
" />
    <glyph glyph-name="three" unicode="3" horiz-adv-x="1077" 
d="M525 -22c276 0 443 145 443 366c0 142 -95 229 -251 267c125 37 203 130 203 256c0 176 -157 307 -407 307c-193 0 -361 -91 -427 -242l166 -77c34 96 127 158 256 158c122 0 207 -66 207 -151c0 -116 -67 -183 -297 -183v-157c235 0 330 -51 336 -180
c7 -125 -88 -202 -228 -202c-132 0 -226 62 -272 180l-163 -87c48 -155 217 -255 434 -255z" />
    <glyph glyph-name="four" unicode="4" horiz-adv-x="988" 
d="M369 0h487v146h-137v192h175v141h-175v673h-190l-494 -651l20 -163h472v-192h-158v-146zM218 479l309 435v-435h-309z" />
    <glyph glyph-name="five" unicode="5" horiz-adv-x="1064" 
d="M537 -22c274 0 438 144 438 384c0 237 -152 378 -404 378c-79 0 -166 -34 -230 -91l15 343h367v-158h186v318h-734l-21 -625l159 -66c67 71 173 102 236 102c131 0 209 -77 209 -206c0 -130 -83 -209 -222 -209c-133 0 -234 61 -306 153l-126 -134
c91 -113 230 -189 433 -189z" />
    <glyph glyph-name="six" unicode="6" horiz-adv-x="1004" 
d="M513 -19c261 0 415 166 415 418c0 216 -168 366 -354 366c-140 0 -212 -82 -214 -87l356 472l-161 115l-355 -499c-114 -158 -122 -272 -122 -391c0 -234 182 -394 435 -394zM520 138c-158 0 -225 110 -225 243c0 148 105 232 235 232c131 0 203 -94 203 -229
c0 -143 -81 -246 -213 -246z" />
    <glyph glyph-name="seven" unicode="7" horiz-adv-x="1011" 
d="M305 0h232s122 510 403 1008v144h-819v-341h189v188h388c-255 -472 -393 -999 -393 -999z" />
    <glyph glyph-name="eight" unicode="8" horiz-adv-x="1115" 
d="M560 -22c279 0 437 147 437 336c0 135 -72 238 -221 286c132 62 184 151 184 267c0 183 -157 307 -403 307s-403 -126 -403 -309c0 -115 55 -206 185 -267c-149 -48 -221 -150 -221 -284c0 -185 150 -336 442 -336zM560 129c-133 0 -215 78 -215 194
c0 117 98 207 116 216c181 -43 310 -78 310 -218c0 -115 -83 -192 -211 -192zM636 651c-146 28 -267 77 -267 198c0 108 68 175 188 175c125 0 190 -72 190 -175s-95 -190 -111 -198z" />
    <glyph glyph-name="nine" unicode="9" horiz-adv-x="1002" 
d="M450 -111l355 501c114 158 124 271 124 391c0 234 -182 393 -436 393c-260 0 -415 -167 -415 -418c0 -216 176 -361 362 -361c140 0 204 78 205 82l-356 -472zM477 543c-131 0 -204 94 -204 228c0 144 81 246 214 246c158 0 224 -110 224 -242
c0 -148 -105 -232 -234 -232z" />
    <glyph glyph-name="colon" unicode=":" horiz-adv-x="589" 
d="M165 74h260v250h-260v-250zM165 623h260v252h-260v-252z" />
    <glyph glyph-name="semicolon" unicode=";" horiz-adv-x="540" 
d="M145 -199c208 2 264 93 264 279c0 6 0 241 -1 246l-260 -1v-251h134c0 -110 -29 -161 -137 -170v-103zM145 623h259v252h-259v-252z" />
    <glyph glyph-name="less" unicode="&#x3c;" horiz-adv-x="1090" 
d="M934 100v171l-725 327l725 327v170l-919 -424v-148z" />
    <glyph glyph-name="equal" unicode="=" horiz-adv-x="1201" 
d="M155 244h892v153h-892v-153zM155 643h892v154h-892v-154z" />
    <glyph glyph-name="greater" unicode="&#x3e;" horiz-adv-x="1092" 
d="M159 100l918 423v148l-918 424v-170l724 -327l-724 -327v-171z" />
    <glyph glyph-name="question" unicode="?" horiz-adv-x="874" 
d="M328 345h145c25 368 339 257 339 567c0 191 -153 322 -366 322c-195 0 -380 -91 -380 -350h180c0 132 67 207 200 207c101 0 177 -71 177 -179c0 -216 -289 -113 -295 -567zM304 0h204v213h-204v-213z" />
    <glyph glyph-name="at" unicode="@" horiz-adv-x="1481" 
d="M798 -66c185 0 328 51 444 141l-74 88c-98 -77 -223 -114 -370 -114c-356 0 -553 203 -553 507c0 327 227 560 538 560c298 0 457 -201 457 -416c0 -238 -166 -365 -232 -365c-21 0 -22 45 -2 137l102 475h-143l-20 -106c-42 85 -114 122 -194 122
c-245 0 -368 -227 -368 -431c0 -206 132 -319 270 -319c77 0 153 32 213 113c11 -84 51 -113 101 -113c249 0 405 239 405 488c0 261 -174 532 -584 532c-440 0 -683 -341 -683 -675c0 -315 219 -624 693 -624zM683 327c-108 0 -159 96 -159 203c0 146 76 315 214 315
c101 0 166 -69 166 -177c0 -158 -99 -341 -221 -341z" />
    <glyph glyph-name="A" unicode="A" horiz-adv-x="1399" 
d="M44 146v-146h508v146h-159l92 279h395l95 -279h-158v-146h538v146h-135l-317 861h126v145h-661v-145h124l-306 -861h-142zM839 567h-312l149 439h17z" />
    <glyph glyph-name="B" unicode="B" horiz-adv-x="1154" 
d="M57 0h565c366 0 467 174 467 333c0 140 -88 243 -234 284c106 42 178 126 178 248c0 185 -146 287 -424 287h-552v-145h155v-862h-155v-145zM442 146v386h144c185 0 266 -76 266 -190c0 -125 -67 -196 -271 -196h-139zM442 681v326h98c189 0 261 -38 261 -154
c0 -112 -70 -172 -241 -172h-118z" />
    <glyph glyph-name="C" unicode="C" horiz-adv-x="1351" 
d="M703 -22c250 2 470 93 554 368l-171 77c-49 -200 -201 -279 -368 -279c-248 0 -397 187 -397 435c0 252 161 429 398 429c147 0 274 -60 349 -223h155v370h-162v-120c-83 80 -202 139 -357 139c-374 0 -615 -245 -615 -599c0 -327 216 -595 614 -597z" />
    <glyph glyph-name="D" unicode="D" horiz-adv-x="1398" 
d="M57 1152v-145h158v-861h-158v-146h612c426 0 640 217 640 594c0 296 -206 558 -639 558h-613zM445 146v861h214c291 0 412 -195 412 -419c0 -267 -117 -442 -420 -442h-206z" />
    <glyph glyph-name="E" unicode="E" horiz-adv-x="1184" 
d="M933 360v-214h-490v379h316v-112h103v381h-103v-116h-316v329h488v-206h172v351h-1046v-145h155v-862h-155v-145h1049v360h-173z" />
    <glyph glyph-name="F" unicode="F" horiz-adv-x="1094" 
d="M57 1152v-145h155v-862h-155v-145h541v145h-155v380h277v-112h107v375h-107v-112h-277v331h455v-204h173v349h-1014z" />
    <glyph glyph-name="G" unicode="G" horiz-adv-x="1413" 
d="M744 -19c374 0 593 185 597 617h-461v-153h235c-6 -185 -127 -293 -362 -298c-253 0 -415 170 -415 445c0 257 157 417 409 417c171 0 302 -82 375 -241h161v389h-177v-124c-84 83 -207 141 -368 141c-377 0 -648 -225 -648 -582c0 -376 259 -611 654 -611z" />
    <glyph glyph-name="H" unicode="H" horiz-adv-x="1412" 
d="M1354 1007v145h-540v-145h155v-332h-526v332h155v145h-541v-145h155v-862h-155v-145h541v145h-155v373h526v-373h-155v-145h540v145h-155v862h155z" />
    <glyph glyph-name="I" unicode="I" horiz-adv-x="729" 
d="M94 145v-145h541v145h-155v862h155v145h-541v-145h155v-862h-155z" />
    <glyph glyph-name="J" unicode="J" horiz-adv-x="727" 
d="M48 -115v-181h173c233 0 307 141 307 357v946h164v145h-565v-145h172v-957c0 -90 -20 -165 -128 -165h-123z" />
    <glyph glyph-name="K" unicode="K" horiz-adv-x="1316" 
d="M1123 146l-449 438l453 423h143v145h-528v-145h123l-422 -396v396h155v145h-541v-145h155v-862h-155v-145h541v145h-155v389l396 -388h-122v-146h555v146h-149z" />
    <glyph glyph-name="L" unicode="L" horiz-adv-x="1101" 
d="M858 511v-365h-415v861h155v145h-541v-145h155v-862h-155v-145h990v511h-189z" />
    <glyph glyph-name="M" unicode="M" horiz-adv-x="1741" 
d="M57 146v-146h470v146h-147v846l422 -953h82l424 954v-847h-148v-146h527v146h-159v861h158v145h-494l-319 -734l-328 734h-488v-145h158v-861h-158z" />
    <glyph glyph-name="N" unicode="N" horiz-adv-x="1492" 
d="M57 146v-146h513v146h-170v787l661 -933h213v1007h179v145h-518v-145h169v-703l-604 848h-443v-145h174v-861h-174z" />
    <glyph glyph-name="O" unicode="O" horiz-adv-x="1457" 
d="M728 -22c366 0 640 253 640 595c0 344 -274 601 -641 601c-366 0 -638 -256 -638 -600c0 -343 273 -596 639 -596zM727 144c-224 0 -391 183 -391 429c0 251 167 437 392 437c224 0 391 -186 391 -436c0 -247 -168 -430 -392 -430z" />
    <glyph glyph-name="P" unicode="P" horiz-adv-x="1134" 
d="M513 610v-144h79c339 0 505 118 505 348c0 225 -165 338 -481 338h-559v-145h155v-862h-155v-145h541v145h-155v862h199c141 0 218 -66 218 -193c0 -134 -92 -204 -274 -204h-73z" />
    <glyph glyph-name="Q" unicode="Q" horiz-adv-x="1457" 
d="M1240 -297l-1 153c-117 -4 -271 44 -365 136c291 58 494 286 494 581c0 344 -274 601 -641 601c-366 0 -638 -256 -638 -600c0 -320 238 -563 568 -592c170 -209 434 -284 583 -279zM727 144c-224 0 -391 183 -391 429c0 251 167 437 392 437c224 0 391 -186 391 -436
c0 -247 -168 -430 -392 -430z" />
    <glyph glyph-name="R" unicode="R" horiz-adv-x="1272" 
d="M1068 146l-237 400c177 45 266 139 266 306c0 229 -180 300 -427 300h-613v-145h155v-862h-155v-145h541v145h-155v862h226c131 0 198 -62 198 -159c0 -92 -47 -178 -213 -178h-150v-149h110l292 -521h333v146h-171z" />
    <glyph glyph-name="S" unicode="S" horiz-adv-x="1048" 
d="M592 -19c217 0 394 131 393 341c0 252 -163 319 -408 367c-172 33 -248 76 -248 180c0 91 65 149 194 149c96 0 169 -31 225 -99v-100h174v338h-174v-75c-63 59 -150 92 -248 92c-226 0 -379 -111 -379 -315c0 -239 170 -311 410 -354c167 -29 234 -79 234 -197
c0 -98 -70 -169 -192 -169c-115 0 -228 68 -268 128v126h-176v-394h176v94c77 -68 175 -112 287 -112z" />
    <glyph glyph-name="T" unicode="T" horiz-adv-x="1158" 
d="M49 1152v-418h166v273h256v-862h-155v-145h540v145h-155v862h242v-273h166v418h-1060z" />
    <glyph glyph-name="U" unicode="U" horiz-adv-x="1332" 
d="M679 -19c277 0 468 133 468 443v583h156v145h-496v-145h153v-591c0 -174 -91 -270 -273 -270c-173 0 -262 97 -262 265v596h158v145h-541v-145h154v-564c0 -265 113 -462 483 -462z" />
    <glyph glyph-name="V" unicode="V" horiz-adv-x="1377" 
d="M182 1007l415 -1007h193l403 1007h152v145h-490v-145h145l-288 -760l-292 760h147v145h-535v-145h150z" />
    <glyph glyph-name="W" unicode="W" horiz-adv-x="1869" 
d="M184 1007l305 -1007h182l267 800l271 -800h185l294 1007h143v145h-466v-145h144l-194 -712l-283 855h-152l-280 -855l-198 712h142v145h-505v-145h145z" />
    <glyph glyph-name="X" unicode="X" horiz-adv-x="1325" 
d="M38 138v-138h513v138h-142l229 329l228 -329h-138v-138h560v138h-168l-341 459l313 418h162v137h-497v-137h135l-214 -301l-215 301h131v137h-543v-137h160l323 -430l-327 -447h-169z" />
    <glyph glyph-name="Y" unicode="Y" horiz-adv-x="1322" 
d="M381 146v-146h570v146h-172v360l349 501h159v145h-500v-145h140l-240 -361l-255 361h142v145h-542v-145h152l365 -502v-359h-168z" />
    <glyph glyph-name="Z" unicode="Z" horiz-adv-x="1162" 
d="M116 0h958v429h-164v-283h-519l672 867v139h-918v-406h165v261h468l-662 -851v-156z" />
    <glyph glyph-name="bracketleft" unicode="[" horiz-adv-x="706" 
d="M185 -198h411v150h-194v1165h194v150h-411v-1465z" />
    <glyph glyph-name="backslash" unicode="\" horiz-adv-x="769" 
d="M587 -19h179l-589 1253h-180z" />
    <glyph glyph-name="bracketright" unicode="]" horiz-adv-x="705" 
d="M110 -198h412v1465h-412v-150h195v-1165h-195v-150z" />
    <glyph glyph-name="asciicircum" unicode="^" horiz-adv-x="954" 
d="M78 569h187l212 495l211 -495h187l-309 658h-178z" />
    <glyph glyph-name="underscore" unicode="_" horiz-adv-x="1274" 
d="M163 -182h949v108h-949v-108z" />
    <glyph glyph-name="grave" unicode="`" horiz-adv-x="428" 
d="M202 966h133l-116 324h-233z" />
    <glyph glyph-name="a" unicode="a" horiz-adv-x="934" 
d="M339 -22c114 0 188 30 257 88l11 -66h309v145h-126v387c0 200 -160 294 -360 294c-112 0 -256 -33 -347 -100l62 -130c90 54 208 78 274 78c103 0 166 -51 166 -155v-63c-64 13 -122 21 -183 21c-188 0 -346 -72 -346 -258c0 -134 112 -241 283 -241zM373 113
c-74 0 -121 47 -121 116c0 105 84 130 167 130c79 0 131 -11 166 -21v-145c-61 -52 -139 -80 -212 -80z" />
    <glyph glyph-name="b" unicode="b" horiz-adv-x="1091" 
d="M404 744v430h-357v-145h150v-884h-152v-145h359v53c68 -50 149 -74 230 -74c205 0 411 154 411 436c0 268 -179 410 -383 410c-87 0 -178 -27 -258 -81zM404 190v408c62 48 130 72 192 72c131 0 232 -97 232 -268c0 -184 -112 -273 -241 -273c-60 0 -125 20 -183 61z" />
    <glyph glyph-name="c" unicode="c" horiz-adv-x="963" 
d="M501 -19c180 0 316 80 393 185l-92 118c-64 -78 -144 -149 -297 -143c-141 5 -241 118 -241 273c0 144 100 248 239 253c127 6 216 -57 243 -176h151v318h-167v-88c-28 58 -135 105 -237 105c-260 0 -443 -173 -443 -417c0 -252 185 -428 451 -428z" />
    <glyph glyph-name="d" unicode="d" horiz-adv-x="1072" 
d="M902 145v1029h-356v-145h149v-275c-76 47 -162 71 -247 71c-207 0 -394 -142 -394 -423c0 -273 195 -424 409 -424c79 0 159 22 232 66v-44h327v145h-120zM271 390c0 193 97 282 227 282c62 0 130 -20 197 -58v-431c-61 -34 -126 -51 -185 -51c-131 0 -239 84 -239 258z
" />
    <glyph glyph-name="e" unicode="e" horiz-adv-x="932" 
d="M499 -19c161 0 304 69 370 146l-73 119c-79 -64 -169 -110 -286 -110c-137 0 -239 93 -248 227h618c0 272 -163 463 -397 463c-257 0 -437 -175 -437 -426c0 -247 186 -419 453 -419zM265 483c18 115 107 196 218 196c104 0 184 -81 194 -196h-412z" />
    <glyph glyph-name="f" unicode="f" horiz-adv-x="727" 
d="M71 146v-146h586v146h-215v513h200v145h-200v140c0 109 33 149 89 149c66 0 81 -48 92 -117l159 42c-11 167 -131 216 -261 216c-205 0 -286 -123 -286 -292v-138h-159v-145h159v-513h-164z" />
    <glyph glyph-name="g" unicode="g" horiz-adv-x="1073" 
d="M483 -391c239 0 436 101 436 379v671h133v145h-334l-3 -57c-79 51 -170 77 -259 77c-208 0 -394 -140 -394 -415c0 -268 195 -416 408 -416c83 0 168 23 242 71v-89c0 -150 -95 -202 -235 -202c-84 0 -177 18 -266 47l-41 -158c100 -33 208 -53 313 -53zM517 144
c-130 0 -239 82 -239 253c0 189 97 276 228 276c65 0 136 -22 205 -63l1 -409c-63 -37 -131 -57 -195 -57z" />
    <glyph glyph-name="h" unicode="h" horiz-adv-x="1116" 
d="M971 145v397c0 187 -129 284 -274 284c-106 0 -202 -48 -291 -114v462h-355v-145h148v-884h-149v-145h479v145h-123v435c66 49 148 85 229 85s131 -60 131 -173v-347h-113v-145h462v145h-144z" />
    <glyph glyph-name="i" unicode="i" horiz-adv-x="614" 
d="M327 966c80 0 142 58 142 135c0 74 -62 133 -142 133c-79 0 -141 -59 -141 -133c0 -77 62 -135 141 -135zM95 145v-145h477v145h-128v659h-348v-145h143v-514h-144z" />
    <glyph glyph-name="j" unicode="j" horiz-adv-x="562" 
d="M300 966c81 0 143 58 143 135c0 74 -62 133 -143 133c-79 0 -141 -59 -141 -133c0 -77 62 -135 141 -135zM3 -180v-162h97c320 0 340 173 340 402v744h-374v-145h166v-666c0 -124 -31 -173 -136 -173h-93z" />
    <glyph glyph-name="k" unicode="k" horiz-adv-x="1055" 
d="M878 146l-267 276l299 237h110v145h-458v-145h143l-299 -226v741h-355v-145h148v-884h-149v-145h479v145h-123v240l365 -385h257v146h-150z" />
    <glyph glyph-name="l" unicode="l" horiz-adv-x="577" 
d="M54 145v-145h479v145h-123v1029h-354v-145h147v-884h-149z" />
    <glyph glyph-name="m" unicode="m" horiz-adv-x="1650" 
d="M1504 145v397c1 187 -129 284 -275 284c-117 0 -222 -58 -318 -135c-48 90 -140 135 -240 135c-99 0 -188 -40 -271 -99v77h-350v-145h143v-514h-143v-145h478v145h-128v450c62 41 136 70 208 70c82 0 131 -60 131 -173v-347h-113v-145h464v145h-145v397c0 15 0 29 -2 43
c66 46 145 80 224 80c81 0 131 -60 131 -173v-347h-113v-145h464v145h-145z" />
    <glyph glyph-name="n" unicode="n" horiz-adv-x="1088" 
d="M942 145v397c1 187 -128 284 -273 284c-98 0 -188 -41 -271 -100v78h-348v-145h143v-514h-143v-145h476v145h-128v449c62 42 136 71 209 71c81 0 130 -60 130 -173v-347h-113v-145h463v145h-145z" />
    <glyph glyph-name="o" unicode="o" 
d="M487 -22c261 0 445 176 445 427c0 247 -183 421 -443 421s-443 -174 -443 -421c0 -251 182 -427 441 -427zM488 138c-134 0 -228 109 -228 266c0 153 94 262 227 262c135 0 229 -108 229 -261c0 -157 -94 -267 -228 -267z" />
    <glyph glyph-name="p" unicode="p" horiz-adv-x="1059" 
d="M371 746l-3 58h-341v-145h147v-839h-147v-145h521v145h-169v226c66 -45 143 -67 220 -67c205 0 411 154 411 436c0 268 -179 410 -383 410c-87 0 -176 -26 -256 -79zM379 183l-1 422c60 44 124 65 183 65c131 0 232 -97 232 -268c0 -184 -112 -273 -241 -273
c-57 0 -118 18 -173 54z" />
    <glyph glyph-name="q" unicode="q" horiz-adv-x="1106" 
d="M558 -335h520v154h-146v840h141v145h-346l-2 -71c-82 61 -181 92 -277 92c-208 0 -395 -142 -395 -423c0 -273 195 -424 409 -424c91 0 183 29 263 87v-246h-167v-154zM509 132c-131 0 -239 84 -239 258c0 193 97 282 227 282c72 0 152 -27 228 -78v-392
c-69 -46 -146 -70 -216 -70z" />
    <glyph glyph-name="r" unicode="r" horiz-adv-x="803" 
d="M398 661v143h-348v-145h143v-514h-143v-145h476v145h-128v275c0 137 82 211 181 211c48 0 99 -16 147 -49l49 187c-58 25 -116 43 -171 43c-81 0 -154 -39 -206 -151z" />
    <glyph glyph-name="s" unicode="s" horiz-adv-x="876" 
d="M511 -20c147 0 297 69 303 228c7 187 -118 236 -268 274l-92 23c-112 29 -142 49 -142 98c0 52 61 77 132 77c67 0 147 -23 188 -67l17 -89h141v286h-160v-54c-52 46 -145 70 -225 70c-173 0 -300 -88 -300 -228c0 -168 92 -217 252 -258l108 -26
c106 -26 151 -41 151 -108c0 -59 -61 -88 -135 -88c-84 0 -183 36 -223 103l-10 77h-138v-298h154v63c56 -54 152 -83 247 -83z" />
    <glyph glyph-name="t" unicode="t" horiz-adv-x="644" 
d="M391 0h190v145h-145c-52 0 -67 33 -67 113v401h204v145h-204v351l-204 -77v-274h-126v-145h124v-411c0 -160 69 -248 228 -248z" />
    <glyph glyph-name="u" unicode="u" horiz-adv-x="1065" 
d="M419 -19c99 0 193 40 280 114l4 -95h348v146h-147v658h-344v-145h139v-408c-62 -71 -143 -109 -223 -109c-88 0 -130 53 -130 155v507h-332v-145h126v-388c0 -178 91 -290 279 -290z" />
    <glyph glyph-name="v" unicode="v" horiz-adv-x="1063" 
d="M145 659l296 -659h179l306 659h123v145h-427v-145h110l-183 -443l-181 443h110v145h-465v-145h132z" />
    <glyph glyph-name="w" unicode="w" horiz-adv-x="1423" 
d="M107 659l242 -659h192l175 493l178 -493h188l231 659h98v145h-372v-145h97l-143 -458l-162 458h99v145h-414v-145h100l-155 -454l-153 454h86v145h-382v-145h95z" />
    <glyph glyph-name="x" unicode="x" horiz-adv-x="1015" 
d="M47 146v-146h404v146h-111l158 170l164 -170h-113v-146h430v146h-105l-256 275l226 238h134v145h-412v-145h97l-144 -157l-144 157h96v145h-430v-145h123l237 -251l-246 -262h-108z" />
    <glyph glyph-name="y" unicode="y" horiz-adv-x="1067" 
d="M193 -200v-162h119c237 0 267 116 353 332l274 689h130v145h-457v-145h124l-178 -469l-209 469h106v145h-452v-145h140l289 -612h77l-32 -103c-44 -133 -93 -144 -185 -144h-99z" />
    <glyph glyph-name="z" unicode="z" horiz-adv-x="881" 
d="M86 139v-139h743v302h-156v-166h-346l489 525v143h-729v-291h151v154h333z" />
    <glyph glyph-name="braceleft" unicode="{" horiz-adv-x="682" 
d="M536 -199h83v136c-184 0 -185 27 -185 236c0 238 -29 329 -154 388c141 65 156 157 156 454c0 144 32 169 183 169v136h-84c-278 0 -277 -174 -277 -414c0 -172 -28 -273 -167 -273v-144c145 0 167 -103 167 -283c0 -240 2 -405 278 -405z" />
    <glyph glyph-name="bar" unicode="|" horiz-adv-x="516" 
d="M176 -247h168v1470h-168v-1470z" />
    <glyph glyph-name="braceright" unicode="}" horiz-adv-x="683" 
d="M113 -199h84c276 0 277 165 277 405c0 180 23 283 166 283v144c-140 0 -166 103 -166 278c0 238 0 409 -276 409h-85v-136c152 0 184 -25 184 -169c0 -297 15 -389 156 -454c-128 -60 -155 -152 -155 -395c0 -203 -2 -229 -185 -229v-136z" />
    <glyph glyph-name="asciitilde" unicode="~" horiz-adv-x="1220" 
d="M840 461c96 0 177 47 245 127l-27 143c-65 -65 -133 -101 -211 -101c-137 0 -288 127 -461 127c-102 0 -184 -43 -254 -130l23 -138c72 73 134 108 215 108c153 0 304 -136 470 -136z" />
    <glyph glyph-name="uni00A0" unicode="&#xa0;" horiz-adv-x="600" 
 />
    <glyph glyph-name="exclamdown" unicode="&#xa1;" horiz-adv-x="547" 
d="M157 -283h209v312l-51 497h-109l-49 -497v-312zM387 690v244h-250v-244h250z" />
    <glyph glyph-name="cent" unicode="&#xa2;" horiz-adv-x="963" 
d="M388 -403l315 1591l-82 13l-313 -1591zM501 -19c180 0 316 80 393 185l-92 118c-64 -78 -144 -149 -297 -143c-141 5 -241 118 -241 273c0 144 100 248 239 253c127 6 216 -57 243 -176h151v318h-167v-88c-28 58 -135 105 -237 105c-260 0 -443 -173 -443 -417
c0 -252 185 -428 451 -428z" />
    <glyph glyph-name="sterling" unicode="&#xa3;" horiz-adv-x="1058" 
d="M263 -19c81 0 147 45 198 112c85 -66 170 -112 266 -112c199 0 253 113 257 319v27h-132c-7 -110 -23 -167 -125 -167c-61 0 -121 36 -182 73c25 60 35 114 35 165c0 56 -13 108 -39 162h324v133h-385c-37 70 -72 144 -72 216c0 107 69 167 192 167
c119 0 160 -81 159 -187h178c0 207 -122 342 -344 342c-233 0 -374 -123 -374 -331c0 -77 18 -144 47 -207h-149v-133h222c77 -84 85 -200 85 -259c-50 42 -108 75 -169 75c-140 0 -220 -105 -220 -207c0 -95 72 -188 228 -188zM255 92c-46 0 -85 29 -85 80
c0 49 31 77 76 77c38 0 86 -21 132 -68c-28 -62 -79 -89 -123 -89z" />
    <glyph glyph-name="currency" unicode="&#xa4;" horiz-adv-x="1026" 
d="M232 451l88 87c55 -33 117 -52 192 -52c73 0 136 18 193 53l90 -88l69 68l-85 84c47 55 74 122 74 203c0 76 -24 143 -72 199l83 83l-69 69l-88 -88c-55 35 -120 55 -195 55s-140 -20 -194 -53l-86 86l-69 -69l80 -81c-48 -56 -73 -123 -73 -201c0 -81 28 -150 75 -205
l-82 -82zM512 600c-124 0 -205 95 -205 206c0 106 80 200 205 200c121 0 203 -93 203 -202s-79 -204 -203 -204z" />
    <glyph glyph-name="yen" unicode="&#xa5;" horiz-adv-x="1319" 
d="M298 297h730v117h-281v89h281v119h-730v-119h289v-89h-289v-117zM381 146v-146h570v146h-172v360l349 501h159v145h-500v-145h140l-240 -361l-255 361h142v145h-542v-145h152l365 -502v-359h-168z" />
    <glyph glyph-name="brokenbar" unicode="&#xa6;" horiz-adv-x="480" 
d="M176 -222h132v547h-132v-547zM176 665h132v547h-132v-547z" />
    <glyph glyph-name="section" unicode="&#xa7;" horiz-adv-x="894" 
d="M452 -185c218 0 330 121 330 295c0 64 -22 129 -58 175c58 36 105 114 105 193c0 141 -97 219 -327 330c-124 58 -196 90 -196 193c0 99 60 154 152 154c116 0 145 -118 145 -214c100 0 155 50 155 117c0 108 -100 187 -292 187c-188 0 -324 -96 -324 -263
c0 -90 33 -156 71 -196c-63 -32 -107 -95 -107 -168c0 -129 71 -219 253 -308c243 -120 282 -158 282 -248c0 -96 -62 -159 -167 -159c-128 0 -194 107 -194 251c-86 0 -146 -44 -146 -129c0 -99 72 -210 318 -210zM647 350c-43 29 -93 57 -164 92
c-175 87 -231 127 -231 218c0 28 10 54 26 72c53 -37 118 -66 191 -102c160 -78 200 -136 200 -209c0 -30 -10 -54 -22 -71z" />
    <glyph glyph-name="dieresis" unicode="&#xa8;" horiz-adv-x="690" 
d="M126 929c73 0 120 46 120 115s-49 114 -120 114s-119 -46 -119 -114c0 -69 49 -115 119 -115zM563 929c73 0 120 46 120 115s-49 114 -120 114s-119 -46 -119 -114c0 -69 48 -115 119 -115z" />
    <glyph glyph-name="copyright" unicode="&#xa9;" horiz-adv-x="1538" 
d="M782 276c119 0 240 63 291 152l-99 64c-37 -59 -115 -101 -189 -101c-107 0 -183 88 -183 213c0 122 76 208 183 208c75 0 141 -53 160 -129h115v230h-120l1 -58c-33 42 -104 71 -173 71c-186 0 -317 -135 -317 -325s137 -325 331 -325zM767 103
c-284 0 -485 206 -485 497c0 296 201 506 485 506c286 0 488 -210 488 -506c0 -291 -202 -497 -488 -497zM767 -22c380 0 648 259 648 625c0 367 -268 627 -648 627c-377 0 -644 -260 -644 -627c0 -366 267 -625 644 -625z" />
    <glyph glyph-name="ordfeminine" unicode="&#xaa;" horiz-adv-x="795" 
d="M305 468c96 0 157 25 215 73l9 -55h257v118h-105v325c0 167 -133 245 -300 245c-93 0 -213 -27 -289 -83l52 -108c75 45 173 65 228 65c86 0 138 -43 138 -129v-53c-53 11 -102 17 -152 17c-156 0 -288 -59 -288 -215c0 -111 93 -200 235 -200zM334 580
c-62 0 -101 39 -101 97c0 87 70 108 139 108c66 0 110 -8 138 -17v-121c-50 -43 -115 -67 -176 -67z" />
    <glyph glyph-name="guillemotleft" unicode="&#xab;" horiz-adv-x="980" 
d="M348 140h151l-209 413l209 414h-151l-312 -415zM794 140h152l-209 413l209 414h-152l-311 -415z" />
    <glyph glyph-name="logicalnot" unicode="&#xac;" horiz-adv-x="1124" 
d="M828 326h122v533h-928v-146h806v-387z" />
    <glyph glyph-name="uni00AD" unicode="&#xad;" horiz-adv-x="1635" 
 />
    <glyph glyph-name="registered" unicode="&#xae;" horiz-adv-x="1538" 
d="M490 307h282v74h-82v213h82l152 -287h166v74h-88l-125 226c83 21 138 86 138 163c0 99 -87 165 -217 165h-308v-74h87v-480h-87v-74zM690 672v189h109c62 0 104 -37 104 -93c0 -58 -44 -96 -111 -96h-102zM767 103c-284 0 -485 206 -485 497c0 296 201 506 485 506
c286 0 488 -210 488 -506c0 -291 -202 -497 -488 -497zM767 -22c380 0 648 259 648 625c0 367 -268 627 -648 627c-377 0 -644 -260 -644 -627c0 -366 267 -625 644 -625z" />
    <glyph glyph-name="macron" unicode="&#xaf;" horiz-adv-x="414" 
d="M-24 954h461v121h-461v-121z" />
    <glyph glyph-name="degree" unicode="&#xb0;" horiz-adv-x="660" 
d="M331 780c-111 0 -168 83 -168 169s58 169 167 169c112 0 168 -87 168 -168c0 -89 -60 -170 -167 -170zM330 691c171 0 264 126 264 257c0 130 -94 256 -264 256c-169 0 -263 -126 -263 -256c0 -131 93 -257 263 -257z" />
    <glyph glyph-name="plusminus" unicode="&#xb1;" horiz-adv-x="983" 
d="M415 290h152v358h359v149h-359v358h-152v-358h-357v-149h357v-358zM58 0h868v148h-868v-148z" />
    <glyph glyph-name="uni00B2" unicode="&#xb2;" horiz-adv-x="1044" 
d="M158.98 535h563.029l-2.12988 263.41h-119.28l-0.709961 -150.521h-264.83l166.141 165.431c92.2998 92.2998 213.71 190.989 213.71 311.689c0 150.521 -105.79 243.53 -284 243.53c-173.95 0 -279.03 -100.11 -279.03 -244.24c0 -34.79 6.38965 -71.71 18.46 -108.63
h129.22c-8.51953 33.3701 -12.7793 63.1904 -12.7793 90.1699c0 95.1406 56.7998 142.71 145.55 142.71c100.11 0 130.64 -59.6396 133.479 -124.96c3.55078 -66.0303 -83.0693 -142.71 -158.329 -219.39l-248.5 -254.181v-115.02z" />
    <glyph glyph-name="uni00B3" unicode="&#xb3;" horiz-adv-x="1077" 
d="M432.75 519.38c195.96 0 314.53 102.95 314.53 259.86c0 100.819 -67.4502 162.59 -178.21 189.569c88.75 26.2705 144.13 92.3008 144.13 181.761c0 124.96 -111.47 217.97 -288.97 217.97c-137.03 0 -256.311 -64.6104 -303.171 -171.82l117.86 -54.6699
c24.1396 68.1602 90.1699 112.181 181.76 112.181c86.6201 0 146.971 -46.8604 146.971 -107.211c0 -82.3594 -47.5703 -129.93 -210.87 -129.93v-111.47c166.85 0 234.3 -36.21 238.56 -127.8c4.96973 -88.75 -62.4795 -143.42 -161.88 -143.42
c-93.7197 0 -160.46 44.0195 -193.12 127.8l-115.729 -61.7705c34.0801 -110.05 154.069 -181.05 308.14 -181.05z" />
    <glyph glyph-name="acute" unicode="&#xb4;" horiz-adv-x="588" 
d="M182 966h134l216 324h-233z" />
    <glyph glyph-name="mu" unicode="&#xb5;" horiz-adv-x="1066" 
d="M140 -277h206v756h-206v-756zM419 -19c99 0 193 40 280 114l4 -95h348v146h-147v658h-344v-145h139v-408c-62 -71 -143 -109 -223 -109c-88 0 -130 53 -130 155v507h-332v-145h126v-388c0 -178 91 -290 279 -290z" />
    <glyph glyph-name="paragraph" unicode="&#xb6;" horiz-adv-x="1154" 
d="M499 0h598v147h-153v863h141v142h-561c-298 0 -405 -168 -405 -360s133 -359 366 -358h259v-287h-245v-147zM543 581v429h201v-429h-201z" />
    <glyph glyph-name="periodcentered" unicode="&#xb7;" horiz-adv-x="605" 
d="M192 445h229v213h-229v-213z" />
    <glyph glyph-name="cedilla" unicode="&#xb8;" horiz-adv-x="466" 
d="M279 -390c92 0 165 37 165 135c0 63 -49 124 -155 137l28 123h-87l-65 -172c77 -7 116 -31 116 -70c0 -41 -31 -57 -78 -57c-38 0 -86 11 -133 26v-74c67 -30 143 -48 209 -48z" />
    <glyph glyph-name="uni00B9" unicode="&#xb9;" horiz-adv-x="755" 
d="M162.3 529h390.5v103.66h-117.859v714.26l-280.45 -36.21v-102.95l132.77 15.6201v-590.72h-124.96v-103.66z" />
    <glyph glyph-name="ordmasculine" unicode="&#xba;" horiz-adv-x="950" 
d="M479 601c-111 0 -190 91 -190 222c0 128 79 218 189 218c112 0 191 -89 191 -217c0 -131 -79 -223 -190 -223zM478 468c218 0 371 146 371 356c0 206 -152 350 -369 350s-370 -144 -370 -350c0 -210 152 -356 368 -356z" />
    <glyph glyph-name="guillemotright" unicode="&#xbb;" horiz-adv-x="975" 
d="M36 140h152l311 413l-311 414h-152l209 -413zM483 140h151l312 413l-312 414h-151l209 -413z" />
    <glyph glyph-name="onequarter" unicode="&#xbc;" horiz-adv-x="2104" 
d="M1509 0h347v103h-98v137h124v99h-124v479h-135l-351 -462l15 -116h334v-137h-112v-103zM227 334h390v104h-117v714l-281 -36v-103l132 15v-590h-124v-104zM579 -53h133l821 1302h-130zM1389 339l232 310v-310h-232z" />
    <glyph glyph-name="onehalf" unicode="&#xbd;" horiz-adv-x="2139" 
d="M1382 0h589l-2 259h-113v-157h-302l189 179c95 90 207 191 207 309c0 152 -105 244 -280 244c-192 0 -302 -110 -302 -254c0 -34 5 -69 17 -104h129c-7 30 -12 59 -12 84c0 104 60 164 169 164c102 0 134 -64 137 -136c4 -68 -84 -149 -159 -223l-267 -258v-107zM227 334
h390v104h-117v714l-281 -36v-103l132 15v-590h-124v-104zM579 -53h133l821 1302h-130z" />
    <glyph glyph-name="threequarters" unicode="&#xbe;" horiz-adv-x="2241" 
d="M495 324c196 0 315 103 315 260c0 101 -69 163 -179 190c89 25 145 92 145 181c0 126 -112 219 -289 219c-138 0 -257 -66 -304 -172l118 -55c25 69 90 112 182 112c86 0 147 -46 147 -107c0 -82 -48 -131 -211 -131v-110c167 0 234 -37 238 -129
c5 -88 -62 -143 -161 -143c-94 0 -161 45 -193 128l-117 -62c35 -110 155 -181 309 -181zM1587 0h346v103h-98v137h125v99h-125v479h-134l-351 -462l14 -116h335v-137h-112v-103zM683 -53h133l821 1302h-130zM1467 339l232 310v-310h-232z" />
    <glyph glyph-name="questiondown" unicode="&#xbf;" horiz-adv-x="881" 
d="M555 567h-145c-25 -368 -339 -257 -339 -567c0 -191 153 -322 366 -322c195 0 380 91 380 350h-180c0 -132 -67 -207 -200 -207c-101 0 -177 71 -177 179c0 216 289 113 295 567zM579 912h-204v-213h204v213z" />
    <glyph glyph-name="Agrave" unicode="&#xc0;" horiz-adv-x="1399" 
d="M632 1314h133l-116 324h-233zM44 146v-146h508v146h-159l92 279h395l95 -279h-158v-146h538v146h-135l-317 861h126v145h-661v-145h124l-306 -861h-142zM839 567h-312l149 439h17z" />
    <glyph glyph-name="Aacute" unicode="&#xc1;" horiz-adv-x="1399" 
d="M632 1314h134l216 324h-233zM44 146v-146h508v146h-159l92 279h395l95 -279h-158v-146h538v146h-135l-317 861h126v145h-661v-145h124l-306 -861h-142zM839 567h-312l149 439h17z" />
    <glyph glyph-name="Acircumflex" unicode="&#xc2;" horiz-adv-x="1399" 
d="M414 1263h148l132 252l132 -252h152l-164 332h-241zM44 146v-146h508v146h-159l92 279h395l95 -279h-158v-146h538v146h-135l-317 861h126v145h-661v-145h124l-306 -861h-142zM839 567h-312l149 439h17z" />
    <glyph glyph-name="Atilde" unicode="&#xc3;" horiz-adv-x="1399" 
d="M836 1256c112 -1 163 101 172 219h-83c-10 -44 -36 -66 -75 -66c-66 0 -202 72 -282 72c-95 0 -169 -59 -182 -215h85c8 42 31 62 68 62c74 0 204 -72 297 -72zM44 146v-146h508v146h-159l92 279h395l95 -279h-158v-146h538v146h-135l-317 861h126v145h-661v-145h124
l-306 -861h-142zM839 567h-312l149 439h17z" />
    <glyph glyph-name="Adieresis" unicode="&#xc4;" horiz-adv-x="1399" 
d="M482 1277c73 0 120 46 120 115s-49 114 -120 114s-119 -46 -119 -114c0 -69 49 -115 119 -115zM919 1277c73 0 120 46 120 115s-49 114 -120 114s-119 -46 -119 -114c0 -69 48 -115 119 -115zM44 146v-146h508v146h-159l92 279h395l95 -279h-158v-146h538v146h-135
l-317 861h126v145h-661v-145h124l-306 -861h-142zM839 567h-312l149 439h17z" />
    <glyph glyph-name="Aring" unicode="&#xc5;" horiz-adv-x="1399" 
d="M699 1314c-60 0 -94 43 -94 91c0 49 34 91 94 91c61 0 96 -42 96 -91c0 -48 -35 -91 -96 -91zM699 1234c115 0 184 81 184 173c0 90 -66 168 -184 168c-116 0 -183 -78 -183 -168c0 -92 69 -173 183 -173zM44 146v-146h508v146h-159l92 279h395l95 -279h-158v-146h538
v146h-135l-317 861h126v145h-661v-145h124l-306 -861h-142zM839 567h-312l149 439h17z" />
    <glyph glyph-name="AE" unicode="&#xc6;" horiz-adv-x="1884" 
d="M-8 0h518v146h-135l158 267h381v-267h-153v-146h1043v357h-168v-211h-493v378h317v-115h104v380h-104v-119h-318v337h492v-205h168v350h-1231v-145h118l-550 -861h-147v-146zM599 544l291 463h24v-463h-315z" />
    <glyph glyph-name="Ccedilla" unicode="&#xc7;" horiz-adv-x="1351" 
d="M686 -390c92 0 165 37 165 135c0 63 -49 124 -155 137l28 123h-87l-65 -172c77 -7 116 -31 116 -70c0 -41 -31 -57 -78 -57c-38 0 -86 11 -133 26v-74c67 -30 143 -48 209 -48zM703 -22c250 2 470 93 554 368l-171 77c-49 -200 -201 -279 -368 -279
c-248 0 -397 187 -397 435c0 252 161 429 398 429c147 0 274 -60 349 -223h155v370h-162v-120c-83 80 -202 139 -357 139c-374 0 -615 -245 -615 -599c0 -327 216 -595 614 -597z" />
    <glyph glyph-name="Egrave" unicode="&#xc8;" horiz-adv-x="1184" 
d="M554 1314h133l-116 324h-233zM933 360v-214h-490v379h316v-112h103v381h-103v-116h-316v329h488v-206h172v351h-1046v-145h155v-862h-155v-145h1049v360h-173z" />
    <glyph glyph-name="Eacute" unicode="&#xc9;" horiz-adv-x="1184" 
d="M933 360v-214h-490v379h316v-112h103v381h-103v-116h-316v329h488v-206h172v351h-1046v-145h155v-862h-155v-145h1049v360h-173zM554 1314h134l216 324h-233z" />
    <glyph glyph-name="Ecircumflex" unicode="&#xca;" horiz-adv-x="1184" 
d="M933 360v-214h-490v379h316v-112h103v381h-103v-116h-316v329h488v-206h172v351h-1046v-145h155v-862h-155v-145h1049v360h-173zM336 1263h148l132 252l132 -252h152l-164 332h-241z" />
    <glyph glyph-name="Edieresis" unicode="&#xcb;" horiz-adv-x="1184" 
d="M933 360v-214h-490v379h316v-112h103v381h-103v-116h-316v329h488v-206h172v351h-1046v-145h155v-862h-155v-145h1049v360h-173zM404 1277c73 0 120 46 120 115s-49 114 -120 114s-119 -46 -119 -114c0 -69 49 -115 119 -115zM841 1277c73 0 120 46 120 115
s-49 114 -120 114s-119 -46 -119 -114c0 -69 48 -115 119 -115z" />
    <glyph glyph-name="Igrave" unicode="&#xcc;" horiz-adv-x="729" 
d="M298 1314h133l-116 324h-233zM94 145v-145h541v145h-155v862h155v145h-541v-145h155v-862h-155z" />
    <glyph glyph-name="Iacute" unicode="&#xcd;" horiz-adv-x="729" 
d="M297 1314h134l216 324h-233zM94 145v-145h541v145h-155v862h155v145h-541v-145h155v-862h-155z" />
    <glyph glyph-name="Icircumflex" unicode="&#xce;" horiz-adv-x="729" 
d="M80 1263h148l132 252l132 -252h152l-164 332h-241zM94 145v-145h541v145h-155v862h155v145h-541v-145h155v-862h-155z" />
    <glyph glyph-name="Idieresis" unicode="&#xcf;" horiz-adv-x="729" 
d="M147 1277c73 0 120 46 120 115s-49 114 -120 114s-119 -46 -119 -114c0 -69 49 -115 119 -115zM584 1277c73 0 120 46 120 115s-49 114 -120 114s-119 -46 -119 -114c0 -69 48 -115 119 -115zM94 145v-145h541v145h-155v862h155v145h-541v-145h155v-862h-155z" />
    <glyph glyph-name="Eth" unicode="&#xd0;" horiz-adv-x="1398" 
d="M57 1152v-145h158v-861h-158v-146h612c426 0 640 217 640 594c0 296 -206 558 -639 558h-613zM445 146v861h214c291 0 412 -195 412 -419c0 -267 -117 -442 -420 -442h-206zM102 537h483v152h-483v-152z" />
    <glyph glyph-name="Ntilde" unicode="&#xd1;" horiz-adv-x="1492" 
d="M867 1256c112 -1 163 101 172 219h-83c-10 -44 -36 -66 -75 -66c-66 0 -202 72 -282 72c-95 0 -169 -59 -182 -215h85c8 42 31 62 68 62c74 0 204 -72 297 -72zM57 146v-146h513v146h-170v787l661 -933h213v1007h179v145h-518v-145h169v-703l-604 848h-443v-145h174v-861
h-174z" />
    <glyph glyph-name="Ograve" unicode="&#xd2;" horiz-adv-x="1457" 
d="M658 1314h133l-116 324h-233zM728 -22c366 0 640 253 640 595c0 344 -274 601 -641 601c-366 0 -638 -256 -638 -600c0 -343 273 -596 639 -596zM727 144c-224 0 -391 183 -391 429c0 251 167 437 392 437c224 0 391 -186 391 -436c0 -247 -168 -430 -392 -430z" />
    <glyph glyph-name="Oacute" unicode="&#xd3;" horiz-adv-x="1457" 
d="M728 -22c366 0 640 253 640 595c0 344 -274 601 -641 601c-366 0 -638 -256 -638 -600c0 -343 273 -596 639 -596zM727 144c-224 0 -391 183 -391 429c0 251 167 437 392 437c224 0 391 -186 391 -436c0 -247 -168 -430 -392 -430zM657 1314h134l216 324h-233z" />
    <glyph glyph-name="Ocircumflex" unicode="&#xd4;" horiz-adv-x="1457" 
d="M728 -22c366 0 640 253 640 595c0 344 -274 601 -641 601c-366 0 -638 -256 -638 -600c0 -343 273 -596 639 -596zM727 144c-224 0 -391 183 -391 429c0 251 167 437 392 437c224 0 391 -186 391 -436c0 -247 -168 -430 -392 -430zM439 1263h148l132 252l132 -252h152
l-164 332h-241z" />
    <glyph glyph-name="Otilde" unicode="&#xd5;" horiz-adv-x="1457" 
d="M861 1256c112 -1 163 101 172 219h-83c-10 -44 -36 -66 -75 -66c-66 0 -202 72 -282 72c-95 0 -169 -59 -182 -215h85c8 42 31 62 68 62c74 0 204 -72 297 -72zM728 -22c366 0 640 253 640 595c0 344 -274 601 -641 601c-366 0 -638 -256 -638 -600
c0 -343 273 -596 639 -596zM727 144c-224 0 -391 183 -391 429c0 251 167 437 392 437c224 0 391 -186 391 -436c0 -247 -168 -430 -392 -430z" />
    <glyph glyph-name="Odieresis" unicode="&#xd6;" horiz-adv-x="1457" 
d="M728 -22c366 0 640 253 640 595c0 344 -274 601 -641 601c-366 0 -638 -256 -638 -600c0 -343 273 -596 639 -596zM727 144c-224 0 -391 183 -391 429c0 251 167 437 392 437c224 0 391 -186 391 -436c0 -247 -168 -430 -392 -430zM507 1277c73 0 120 46 120 115
s-49 114 -120 114s-119 -46 -119 -114c0 -69 49 -115 119 -115zM944 1277c73 0 120 46 120 115s-49 114 -120 114s-119 -46 -119 -114c0 -69 48 -115 119 -115z" />
    <glyph glyph-name="multiply" unicode="&#xd7;" horiz-adv-x="1002" 
d="M220 131l279 274l275 -269l98 98l-274 268l279 274l-94 96l-281 -274l-274 269l-98 -97l274 -271l-279 -273z" />
    <glyph glyph-name="Oslash" unicode="&#xd8;" horiz-adv-x="1459" 
d="M307 -79l971 1231l-102 73l-971 -1232zM728 -22c366 0 640 253 640 595c0 344 -274 601 -641 601c-366 0 -638 -256 -638 -600c0 -343 273 -596 639 -596zM727 144c-224 0 -391 183 -391 429c0 251 167 437 392 437c224 0 391 -186 391 -436c0 -247 -168 -430 -392 -430z
" />
    <glyph glyph-name="Ugrave" unicode="&#xd9;" horiz-adv-x="1332" 
d="M627 1314h133l-116 324h-233zM679 -19c277 0 468 133 468 443v583h156v145h-496v-145h153v-591c0 -174 -91 -270 -273 -270c-173 0 -262 97 -262 265v596h158v145h-541v-145h154v-564c0 -265 113 -462 483 -462z" />
    <glyph glyph-name="Uacute" unicode="&#xda;" horiz-adv-x="1332" 
d="M679 -19c277 0 468 133 468 443v583h156v145h-496v-145h153v-591c0 -174 -91 -270 -273 -270c-173 0 -262 97 -262 265v596h158v145h-541v-145h154v-564c0 -265 113 -462 483 -462zM627 1314h134l216 324h-233z" />
    <glyph glyph-name="Ucircumflex" unicode="&#xdb;" horiz-adv-x="1332" 
d="M679 -19c277 0 468 133 468 443v583h156v145h-496v-145h153v-591c0 -174 -91 -270 -273 -270c-173 0 -262 97 -262 265v596h158v145h-541v-145h154v-564c0 -265 113 -462 483 -462zM409 1263h148l132 252l132 -252h152l-164 332h-241z" />
    <glyph glyph-name="Udieresis" unicode="&#xdc;" horiz-adv-x="1332" 
d="M679 -19c277 0 468 133 468 443v583h156v145h-496v-145h153v-591c0 -174 -91 -270 -273 -270c-173 0 -262 97 -262 265v596h158v145h-541v-145h154v-564c0 -265 113 -462 483 -462zM477 1277c73 0 120 46 120 115s-49 114 -120 114s-119 -46 -119 -114
c0 -69 49 -115 119 -115zM914 1277c73 0 120 46 120 115s-49 114 -120 114s-119 -46 -119 -114c0 -69 48 -115 119 -115z" />
    <glyph glyph-name="Yacute" unicode="&#xdd;" horiz-adv-x="1322" 
d="M607 1314h134l216 324h-233zM381 146v-146h570v146h-172v360l349 501h159v145h-500v-145h140l-240 -361l-255 361h142v145h-542v-145h152l365 -502v-359h-168z" />
    <glyph glyph-name="Thorn" unicode="&#xde;" horiz-adv-x="1102" 
d="M520 450v-128h137c285 0 430 99 430 293c0 187 -149 293 -421 293h-224v99h156v145h-541v-145h155v-862h-155v-145h541v145h-156v625h223c124 0 200 -57 200 -155c0 -112 -74 -165 -204 -165h-141z" />
    <glyph glyph-name="germandbls" unicode="&#xdf;" horiz-adv-x="1153" 
d="M43 0h486v146h-114v689c0 153 80 249 204 249c101 0 165 -60 165 -157c0 -119 -78 -194 -206 -194v-143c186 0 301 -85 301 -218c1 -136 -98 -226 -259 -226v-146c304 0 486 146 485 374c-1 152 -115 271 -292 311c110 42 179 142 179 254c0 187 -143 305 -374 305
c-263 0 -424 -160 -424 -414v-684h-151v-146z" />
    <glyph glyph-name="agrave" unicode="&#xe0;" horiz-adv-x="934" 
d="M367 966h133l-116 324h-233zM339 -22c114 0 188 30 257 88l11 -66h309v145h-126v387c0 200 -160 294 -360 294c-112 0 -256 -33 -347 -100l62 -130c90 54 208 78 274 78c103 0 166 -51 166 -155v-63c-64 13 -122 21 -183 21c-188 0 -346 -72 -346 -258
c0 -134 112 -241 283 -241zM373 113c-74 0 -121 47 -121 116c0 105 84 130 167 130c79 0 131 -11 166 -21v-145c-61 -52 -139 -80 -212 -80z" />
    <glyph glyph-name="aacute" unicode="&#xe1;" horiz-adv-x="934" 
d="M366 966h134l216 324h-233zM339 -22c114 0 188 30 257 88l11 -66h309v145h-126v387c0 200 -160 294 -360 294c-112 0 -256 -33 -347 -100l62 -130c90 54 208 78 274 78c103 0 166 -51 166 -155v-63c-64 13 -122 21 -183 21c-188 0 -346 -72 -346 -258
c0 -134 112 -241 283 -241zM373 113c-74 0 -121 47 -121 116c0 105 84 130 167 130c79 0 131 -11 166 -21v-145c-61 -52 -139 -80 -212 -80z" />
    <glyph glyph-name="acircumflex" unicode="&#xe2;" horiz-adv-x="934" 
d="M149 915h148l132 252l132 -252h152l-164 332h-241zM339 -22c114 0 188 30 257 88l11 -66h309v145h-126v387c0 200 -160 294 -360 294c-112 0 -256 -33 -347 -100l62 -130c90 54 208 78 274 78c103 0 166 -51 166 -155v-63c-64 13 -122 21 -183 21
c-188 0 -346 -72 -346 -258c0 -134 112 -241 283 -241zM373 113c-74 0 -121 47 -121 116c0 105 84 130 167 130c79 0 131 -11 166 -21v-145c-61 -52 -139 -80 -212 -80z" />
    <glyph glyph-name="atilde" unicode="&#xe3;" horiz-adv-x="934" 
d="M570 908c112 -1 163 101 172 219h-83c-10 -44 -36 -66 -75 -66c-66 0 -202 72 -282 72c-95 0 -169 -59 -182 -215h85c8 42 31 62 68 62c74 0 204 -72 297 -72zM339 -22c114 0 188 30 257 88l11 -66h309v145h-126v387c0 200 -160 294 -360 294c-112 0 -256 -33 -347 -100
l62 -130c90 54 208 78 274 78c103 0 166 -51 166 -155v-63c-64 13 -122 21 -183 21c-188 0 -346 -72 -346 -258c0 -134 112 -241 283 -241zM373 113c-74 0 -121 47 -121 116c0 105 84 130 167 130c79 0 131 -11 166 -21v-145c-61 -52 -139 -80 -212 -80z" />
    <glyph glyph-name="adieresis" unicode="&#xe4;" horiz-adv-x="934" 
d="M216 929c73 0 120 46 120 115s-49 114 -120 114s-119 -46 -119 -114c0 -69 49 -115 119 -115zM653 929c73 0 120 46 120 115s-49 114 -120 114s-119 -46 -119 -114c0 -69 48 -115 119 -115zM339 -22c114 0 188 30 257 88l11 -66h309v145h-126v387
c0 200 -160 294 -360 294c-112 0 -256 -33 -347 -100l62 -130c90 54 208 78 274 78c103 0 166 -51 166 -155v-63c-64 13 -122 21 -183 21c-188 0 -346 -72 -346 -258c0 -134 112 -241 283 -241zM373 113c-74 0 -121 47 -121 116c0 105 84 130 167 130c79 0 131 -11 166 -21
v-145c-61 -52 -139 -80 -212 -80z" />
    <glyph glyph-name="aring" unicode="&#xe5;" horiz-adv-x="934" 
d="M433 966c-60 0 -94 43 -94 91c0 49 34 91 94 91c61 0 96 -42 96 -91c0 -48 -35 -91 -96 -91zM433 886c115 0 184 81 184 173c0 90 -66 168 -184 168c-116 0 -183 -78 -183 -168c0 -92 69 -173 183 -173zM339 -22c114 0 188 30 257 88l11 -66h309v145h-126v387
c0 200 -160 294 -360 294c-112 0 -256 -33 -347 -100l62 -130c90 54 208 78 274 78c103 0 166 -51 166 -155v-63c-64 13 -122 21 -183 21c-188 0 -346 -72 -346 -258c0 -134 112 -241 283 -241zM373 113c-74 0 -121 47 -121 116c0 105 84 130 167 130c79 0 131 -11 166 -21
v-145c-61 -52 -139 -80 -212 -80z" />
    <glyph glyph-name="ae" unicode="&#xe6;" horiz-adv-x="1462" 
d="M363 -22c107 0 207 25 349 115c79 -71 190 -112 322 -112c164 0 301 67 363 146l-74 119c-98 -81 -188 -110 -278 -110c-144 0 -240 93 -248 227h610c0 272 -143 463 -389 463c-124 0 -249 -47 -306 -128c-46 81 -169 128 -289 128s-263 -36 -354 -103l61 -127
c91 54 209 78 282 78c103 0 170 -51 170 -155v-65c-64 12 -127 20 -187 20c-184 0 -342 -69 -342 -255c0 -198 209 -241 310 -241zM394 107c-63 0 -148 18 -148 118c0 104 76 131 163 131c53 0 126 -9 175 -14c6 -52 22 -101 45 -144c-55 -44 -127 -91 -235 -91zM799 483
c18 115 98 196 219 196c115 0 176 -81 186 -196h-405z" />
    <glyph glyph-name="ccedilla" unicode="&#xe7;" horiz-adv-x="963" 
d="M520 -390c92 0 165 37 165 135c0 63 -49 124 -155 137l28 123h-87l-65 -172c77 -7 116 -31 116 -70c0 -41 -31 -57 -78 -57c-38 0 -86 11 -133 26v-74c67 -30 143 -48 209 -48zM501 -19c180 0 316 80 393 185l-92 118c-64 -78 -144 -149 -297 -143
c-141 5 -241 118 -241 273c0 144 100 248 239 253c127 6 216 -57 243 -176h151v318h-167v-88c-28 58 -135 105 -237 105c-260 0 -443 -173 -443 -417c0 -252 185 -428 451 -428z" />
    <glyph glyph-name="egrave" unicode="&#xe8;" horiz-adv-x="932" 
d="M411 966h133l-116 324h-233zM499 -19c161 0 304 69 370 146l-73 119c-79 -64 -169 -110 -286 -110c-137 0 -239 93 -248 227h618c0 272 -163 463 -397 463c-257 0 -437 -175 -437 -426c0 -247 186 -419 453 -419zM265 483c18 115 107 196 218 196c104 0 184 -81 194 -196
h-412z" />
    <glyph glyph-name="eacute" unicode="&#xe9;" horiz-adv-x="932" 
d="M499 -19c161 0 304 69 370 146l-73 119c-79 -64 -169 -110 -286 -110c-137 0 -239 93 -248 227h618c0 272 -163 463 -397 463c-257 0 -437 -175 -437 -426c0 -247 186 -419 453 -419zM265 483c18 115 107 196 218 196c104 0 184 -81 194 -196h-412zM413 966h134l216 324
h-233z" />
    <glyph glyph-name="ecircumflex" unicode="&#xea;" horiz-adv-x="932" 
d="M499 -19c161 0 304 69 370 146l-73 119c-79 -64 -169 -110 -286 -110c-137 0 -239 93 -248 227h618c0 272 -163 463 -397 463c-257 0 -437 -175 -437 -426c0 -247 186 -419 453 -419zM265 483c18 115 107 196 218 196c104 0 184 -81 194 -196h-412zM193 915h148l132 252
l132 -252h152l-164 332h-241z" />
    <glyph glyph-name="edieresis" unicode="&#xeb;" horiz-adv-x="932" 
d="M499 -19c161 0 304 69 370 146l-73 119c-79 -64 -169 -110 -286 -110c-137 0 -239 93 -248 227h618c0 272 -163 463 -397 463c-257 0 -437 -175 -437 -426c0 -247 186 -419 453 -419zM265 483c18 115 107 196 218 196c104 0 184 -81 194 -196h-412zM260 929
c73 0 120 46 120 115s-49 114 -120 114s-119 -46 -119 -114c0 -69 49 -115 119 -115zM697 929c73 0 120 46 120 115s-49 114 -120 114s-119 -46 -119 -114c0 -69 48 -115 119 -115z" />
    <glyph glyph-name="igrave" unicode="&#xec;" horiz-adv-x="665" 
d="M279 966h133l-116 324h-233zM135 0h476v145h-128v659h-347v-145h142v-514h-143v-145z" />
    <glyph glyph-name="iacute" unicode="&#xed;" horiz-adv-x="665" 
d="M135 0h476v145h-128v659h-347v-145h142v-514h-143v-145zM280 966h134l216 324h-233z" />
    <glyph glyph-name="icircumflex" unicode="&#xee;" horiz-adv-x="665" 
d="M135 0h476v145h-128v659h-347v-145h142v-514h-143v-145zM60 915h148l132 252l132 -252h152l-164 332h-241z" />
    <glyph glyph-name="idieresis" unicode="&#xef;" horiz-adv-x="665" 
d="M135 0h476v145h-128v659h-347v-145h142v-514h-143v-145zM128 929c73 0 120 46 120 115s-49 114 -120 114s-119 -46 -119 -114c0 -69 49 -115 119 -115zM565 929c73 0 120 46 120 115s-49 114 -120 114s-119 -46 -119 -114c0 -69 48 -115 119 -115z" />
    <glyph glyph-name="eth" unicode="&#xf0;" horiz-adv-x="1025" 
d="M525 -19c255 0 426 188 426 424c0 489 -345 737 -663 979l-98 -125c230 -166 440 -354 524 -532c-1 -1 -73 55 -220 55c-198 0 -383 -155 -383 -371c0 -246 149 -430 414 -430zM529 140c-136 0 -224 116 -224 262c0 140 79 235 214 235c134 0 243 -86 243 -238
c0 -135 -70 -259 -233 -259zM268 873l626 287l-59 119l-625 -284z" />
    <glyph glyph-name="ntilde" unicode="&#xf1;" horiz-adv-x="1088" 
d="M728 908c112 -1 163 101 172 219h-83c-10 -44 -36 -66 -75 -66c-66 0 -202 72 -282 72c-95 0 -169 -59 -182 -215h85c8 42 31 62 68 62c74 0 204 -72 297 -72zM942 145v397c1 187 -128 284 -273 284c-98 0 -188 -41 -271 -100v78h-348v-145h143v-514h-143v-145h476v145
h-128v449c62 42 136 71 209 71c81 0 130 -60 130 -173v-347h-113v-145h463v145h-145z" />
    <glyph glyph-name="ograve" unicode="&#xf2;" 
d="M487 -22c261 0 445 176 445 427c0 247 -183 421 -443 421s-443 -174 -443 -421c0 -251 182 -427 441 -427zM488 138c-134 0 -228 109 -228 266c0 153 94 262 227 262c135 0 229 -108 229 -261c0 -157 -94 -267 -228 -267zM419 968h133l-116 324h-233z" />
    <glyph glyph-name="oacute" unicode="&#xf3;" 
d="M487 -22c261 0 445 176 445 427c0 247 -183 421 -443 421s-443 -174 -443 -421c0 -251 182 -427 441 -427zM488 138c-134 0 -228 109 -228 266c0 153 94 262 227 262c135 0 229 -108 229 -261c0 -157 -94 -267 -228 -267zM421 968h134l216 324h-233z" />
    <glyph glyph-name="ocircumflex" unicode="&#xf4;" 
d="M487 -22c261 0 445 176 445 427c0 247 -183 421 -443 421s-443 -174 -443 -421c0 -251 182 -427 441 -427zM488 138c-134 0 -228 109 -228 266c0 153 94 262 227 262c135 0 229 -108 229 -261c0 -157 -94 -267 -228 -267zM201 917h148l132 252l132 -252h152l-164 332
h-241z" />
    <glyph glyph-name="otilde" unicode="&#xf5;" 
d="M623 910c112 -1 163 101 172 219h-83c-10 -44 -36 -66 -75 -66c-66 0 -202 72 -282 72c-95 0 -169 -59 -182 -215h85c8 42 31 62 68 62c74 0 204 -72 297 -72zM487 -22c261 0 445 176 445 427c0 247 -183 421 -443 421s-443 -174 -443 -421c0 -251 182 -427 441 -427z
M488 138c-134 0 -228 109 -228 266c0 153 94 262 227 262c135 0 229 -108 229 -261c0 -157 -94 -267 -228 -267z" />
    <glyph glyph-name="odieresis" unicode="&#xf6;" 
d="M487 -22c261 0 445 176 445 427c0 247 -183 421 -443 421s-443 -174 -443 -421c0 -251 182 -427 441 -427zM488 138c-134 0 -228 109 -228 266c0 153 94 262 227 262c135 0 229 -108 229 -261c0 -157 -94 -267 -228 -267zM268 931c73 0 120 46 120 115s-49 114 -120 114
s-119 -46 -119 -114c0 -69 49 -115 119 -115zM705 931c73 0 120 46 120 115s-49 114 -120 114s-119 -46 -119 -114c0 -69 48 -115 119 -115z" />
    <glyph glyph-name="divide" unicode="&#xf7;" horiz-adv-x="895" 
d="M360 150h175v172h-175v-172zM30 490h835v123h-835v-123zM360 777h175v173h-175v-173z" />
    <glyph glyph-name="oslash" unicode="&#xf8;" 
d="M279 -120l517 1009l-94 43l-517 -1009zM487 -22c261 0 445 176 445 427c0 247 -183 421 -443 421s-443 -174 -443 -421c0 -251 182 -427 441 -427zM488 138c-134 0 -228 109 -228 266c0 153 94 262 227 262c135 0 229 -108 229 -261c0 -157 -94 -267 -228 -267z" />
    <glyph glyph-name="ugrave" unicode="&#xf9;" horiz-adv-x="1065" 
d="M429 966h133l-116 324h-233zM419 -19c99 0 193 40 280 114l4 -95h348v146h-147v658h-344v-145h139v-408c-62 -71 -143 -109 -223 -109c-88 0 -130 53 -130 155v507h-332v-145h126v-388c0 -178 91 -290 279 -290z" />
    <glyph glyph-name="uacute" unicode="&#xfa;" horiz-adv-x="1065" 
d="M419 -19c99 0 193 40 280 114l4 -95h348v146h-147v658h-344v-145h139v-408c-62 -71 -143 -109 -223 -109c-88 0 -130 53 -130 155v507h-332v-145h126v-388c0 -178 91 -290 279 -290zM431 966h134l216 324h-233z" />
    <glyph glyph-name="ucircumflex" unicode="&#xfb;" horiz-adv-x="1065" 
d="M419 -19c99 0 193 40 280 114l4 -95h348v146h-147v658h-344v-145h139v-408c-62 -71 -143 -109 -223 -109c-88 0 -130 53 -130 155v507h-332v-145h126v-388c0 -178 91 -290 279 -290zM211 915h148l132 252l132 -252h152l-164 332h-241z" />
    <glyph glyph-name="udieresis" unicode="&#xfc;" horiz-adv-x="1065" 
d="M419 -19c99 0 193 40 280 114l4 -95h348v146h-147v658h-344v-145h139v-408c-62 -71 -143 -109 -223 -109c-88 0 -130 53 -130 155v507h-332v-145h126v-388c0 -178 91 -290 279 -290zM279 929c73 0 120 46 120 115s-49 114 -120 114s-119 -46 -119 -114
c0 -69 49 -115 119 -115zM716 929c73 0 120 46 120 115s-49 114 -120 114s-119 -46 -119 -114c0 -69 48 -115 119 -115z" />
    <glyph glyph-name="yacute" unicode="&#xfd;" horiz-adv-x="1067" 
d="M478 966h134l216 324h-233zM193 -200v-162h119c237 0 267 116 353 332l274 689h130v145h-457v-145h124l-178 -469l-209 469h106v145h-452v-145h140l289 -612h77l-32 -103c-44 -133 -93 -144 -185 -144h-99z" />
    <glyph glyph-name="thorn" unicode="&#xfe;" horiz-adv-x="1136" 
d="M382 730v422h-355v-145h148v-1193h-143v-148h350v444c75 -75 174 -111 273 -111c205 0 411 154 411 436c0 267 -179 410 -383 410c-103 0 -211 -38 -301 -115zM382 246v331c73 76 158 112 235 112c131 0 232 -97 232 -268c0 -184 -111 -273 -241 -273
c-75 0 -159 33 -226 98z" />
    <glyph glyph-name="ydieresis" unicode="&#xff;" horiz-adv-x="1067" 
d="M193 -200v-162h119c237 0 267 116 353 332l274 689h130v145h-457v-145h124l-178 -469l-209 469h106v145h-452v-145h140l289 -612h77l-32 -103c-44 -133 -93 -144 -185 -144h-99zM325 929c73 0 120 46 120 115s-49 114 -120 114s-119 -46 -119 -114
c0 -69 49 -115 119 -115zM762 929c73 0 120 46 120 115s-49 114 -120 114s-119 -46 -119 -114c0 -69 48 -115 119 -115z" />
    <glyph glyph-name="Amacron" unicode="&#x100;" horiz-adv-x="1399" 
d="M456 1302h461v121h-461v-121zM44 146v-146h508v146h-159l92 279h395l95 -279h-158v-146h538v146h-135l-317 861h126v145h-661v-145h124l-306 -861h-142zM839 567h-312l149 439h17z" />
    <glyph glyph-name="amacron" unicode="&#x101;" horiz-adv-x="934" 
d="M191 954h461v121h-461v-121zM339 -22c114 0 188 30 257 88l11 -66h309v145h-126v387c0 200 -160 294 -360 294c-112 0 -256 -33 -347 -100l62 -130c90 54 208 78 274 78c103 0 166 -51 166 -155v-63c-64 13 -122 21 -183 21c-188 0 -346 -72 -346 -258
c0 -134 112 -241 283 -241zM373 113c-74 0 -121 47 -121 116c0 105 84 130 167 130c79 0 131 -11 166 -21v-145c-61 -52 -139 -80 -212 -80z" />
    <glyph glyph-name="Abreve" unicode="&#x102;" horiz-adv-x="1399" 
d="M697 1262c152 0 256 97 270 245h-138c-10 -76 -60 -121 -132 -121c-76 0 -121 45 -134 121h-134c11 -149 119 -245 268 -245zM44 146v-146h508v146h-159l92 279h395l95 -279h-158v-146h538v146h-135l-317 861h126v145h-661v-145h124l-306 -861h-142zM839 567h-312
l149 439h17z" />
    <glyph glyph-name="abreve" unicode="&#x103;" horiz-adv-x="934" 
d="M432 914c152 0 256 97 270 245h-138c-10 -76 -60 -121 -132 -121c-76 0 -121 45 -134 121h-134c11 -149 119 -245 268 -245zM339 -22c114 0 188 30 257 88l11 -66h309v145h-126v387c0 200 -160 294 -360 294c-112 0 -256 -33 -347 -100l62 -130c90 54 208 78 274 78
c103 0 166 -51 166 -155v-63c-64 13 -122 21 -183 21c-188 0 -346 -72 -346 -258c0 -134 112 -241 283 -241zM373 113c-74 0 -121 47 -121 116c0 105 84 130 167 130c79 0 131 -11 166 -21v-145c-61 -52 -139 -80 -212 -80z" />
    <glyph glyph-name="Aogonek" unicode="&#x104;" horiz-adv-x="1399" 
d="M1176 -357c47 0 80 10 136 37v106c-32 -14 -56 -19 -86 -19c-66 0 -100 36 -100 107c0 42 10 86 46 135h-114c-50 -77 -63 -136 -63 -189c0 -104 75 -177 181 -177zM44 146v-146h508v146h-159l92 279h395l95 -279h-158v-146h538v146h-135l-317 861h126v145h-661v-145h124
l-306 -861h-142zM839 567h-312l149 439h17z" />
    <glyph glyph-name="aogonek" unicode="&#x105;" horiz-adv-x="934" 
d="M786 -357c47 0 80 10 136 37v106c-32 -14 -56 -19 -86 -19c-66 0 -100 36 -100 107c0 42 10 86 46 135h-114c-50 -77 -63 -136 -63 -189c0 -104 75 -177 181 -177zM339 -22c114 0 188 30 257 88l11 -66h309v145h-126v387c0 200 -160 294 -360 294
c-112 0 -256 -33 -347 -100l62 -130c90 54 208 78 274 78c103 0 166 -51 166 -155v-63c-64 13 -122 21 -183 21c-188 0 -346 -72 -346 -258c0 -134 112 -241 283 -241zM373 113c-74 0 -121 47 -121 116c0 105 84 130 167 130c79 0 131 -11 166 -21v-145
c-61 -52 -139 -80 -212 -80z" />
    <glyph glyph-name="Cacute" unicode="&#x106;" horiz-adv-x="1351" 
d="M703 -22c250 2 470 93 554 368l-171 77c-49 -200 -201 -279 -368 -279c-248 0 -397 187 -397 435c0 252 161 429 398 429c147 0 274 -60 349 -223h155v370h-162v-120c-83 80 -202 139 -357 139c-374 0 -615 -245 -615 -599c0 -327 216 -595 614 -597zM647 1314h134
l216 324h-233z" />
    <glyph glyph-name="cacute" unicode="&#x107;" horiz-adv-x="963" 
d="M501 -19c180 0 316 80 393 185l-92 118c-64 -78 -144 -149 -297 -143c-141 5 -241 118 -241 273c0 144 100 248 239 253c127 6 216 -57 243 -176h151v318h-167v-88c-28 58 -135 105 -237 105c-260 0 -443 -173 -443 -417c0 -252 185 -428 451 -428zM448 966h134l216 324
h-233z" />
    <glyph glyph-name="Ccircumflex" unicode="&#x108;" horiz-adv-x="1351" 
d="M703 -22c250 2 470 93 554 368l-171 77c-49 -200 -201 -279 -368 -279c-248 0 -397 187 -397 435c0 252 161 429 398 429c147 0 274 -60 349 -223h155v370h-162v-120c-83 80 -202 139 -357 139c-374 0 -615 -245 -615 -599c0 -327 216 -595 614 -597zM429 1263h148
l132 252l132 -252h152l-164 332h-241z" />
    <glyph glyph-name="ccircumflex" unicode="&#x109;" horiz-adv-x="963" 
d="M501 -19c180 0 316 80 393 185l-92 118c-64 -78 -144 -149 -297 -143c-141 5 -241 118 -241 273c0 144 100 248 239 253c127 6 216 -57 243 -176h151v318h-167v-88c-28 58 -135 105 -237 105c-260 0 -443 -173 -443 -417c0 -252 185 -428 451 -428zM228 915h148l132 252
l132 -252h152l-164 332h-241z" />
    <glyph glyph-name="Cdotaccent" unicode="&#x10a;" horiz-adv-x="1351" 
d="M716 1314c81 0 143 58 143 135c0 74 -62 133 -143 133c-79 0 -141 -59 -141 -133c0 -77 62 -135 141 -135zM703 -22c250 2 470 93 554 368l-171 77c-49 -200 -201 -279 -368 -279c-248 0 -397 187 -397 435c0 252 161 429 398 429c147 0 274 -60 349 -223h155v370h-162
v-120c-83 80 -202 139 -357 139c-374 0 -615 -245 -615 -599c0 -327 216 -595 614 -597z" />
    <glyph glyph-name="cdotaccent" unicode="&#x10b;" horiz-adv-x="963" 
d="M515 966c81 0 143 58 143 135c0 74 -62 133 -143 133c-79 0 -141 -59 -141 -133c0 -77 62 -135 141 -135zM501 -19c180 0 316 80 393 185l-92 118c-64 -78 -144 -149 -297 -143c-141 5 -241 118 -241 273c0 144 100 248 239 253c127 6 216 -57 243 -176h151v318h-167v-88
c-28 58 -135 105 -237 105c-260 0 -443 -173 -443 -417c0 -252 185 -428 451 -428z" />
    <glyph glyph-name="Ccaron" unicode="&#x10c;" horiz-adv-x="1351" 
d="M703 -22c250 2 470 93 554 368l-171 77c-49 -200 -201 -279 -368 -279c-248 0 -397 187 -397 435c0 252 161 429 398 429c147 0 274 -60 349 -223h155v370h-162v-120c-83 80 -202 139 -357 139c-374 0 -615 -245 -615 -599c0 -327 216 -595 614 -597zM613 1261h208
l157 313h-142l-118 -206l-124 206h-143z" />
    <glyph glyph-name="ccaron" unicode="&#x10d;" horiz-adv-x="963" 
d="M501 -19c180 0 316 80 393 185l-92 118c-64 -78 -144 -149 -297 -143c-141 5 -241 118 -241 273c0 144 100 248 239 253c127 6 216 -57 243 -176h151v318h-167v-88c-28 58 -135 105 -237 105c-260 0 -443 -173 -443 -417c0 -252 185 -428 451 -428zM412 913h208l157 313
h-142l-118 -206l-124 206h-143z" />
    <glyph glyph-name="Dcaron" unicode="&#x10e;" horiz-adv-x="1398" 
d="M57 1152v-145h158v-861h-158v-146h612c426 0 640 217 640 594c0 296 -206 558 -639 558h-613zM445 146v861h214c291 0 412 -195 412 -419c0 -267 -117 -442 -420 -442h-206zM489 1261h208l157 313h-142l-118 -206l-124 206h-143z" />
    <glyph glyph-name="dcaron" unicode="&#x10f;" horiz-adv-x="1072" 
d="M902 145v1029h-356v-145h149v-275c-76 47 -162 71 -247 71c-207 0 -394 -142 -394 -423c0 -273 195 -424 409 -424c79 0 159 22 232 66v-44h327v145h-120zM271 390c0 193 97 282 227 282c62 0 130 -20 197 -58v-431c-61 -34 -126 -51 -185 -51c-131 0 -239 84 -239 258z
M1001 733c165 0 253 76 252 217v224h-252v-220h137c0 -79 -48 -111 -137 -128v-93z" />
    <glyph glyph-name="Dcroat" unicode="&#x110;" horiz-adv-x="1398" 
d="M57 1152v-145h158v-861h-158v-146h612c426 0 640 217 640 594c0 296 -206 558 -639 558h-613zM445 146v861h214c291 0 412 -195 412 -419c0 -267 -117 -442 -420 -442h-206zM102 537h483v152h-483v-152z" />
    <glyph glyph-name="dcroat" unicode="&#x111;" horiz-adv-x="1072" 
d="M902 145v1029h-356v-145h149v-275c-76 47 -162 71 -247 71c-207 0 -394 -142 -394 -423c0 -273 195 -424 409 -424c79 0 159 22 232 66v-44h327v145h-120zM271 390c0 193 97 282 227 282c62 0 130 -20 197 -58v-431c-61 -34 -126 -51 -185 -51c-131 0 -239 84 -239 258z
M564 862h461v121h-461v-121z" />
    <glyph glyph-name="Emacron" unicode="&#x112;" horiz-adv-x="1184" 
d="M378 1302h461v121h-461v-121zM933 360v-214h-490v379h316v-112h103v381h-103v-116h-316v329h488v-206h172v351h-1046v-145h155v-862h-155v-145h1049v360h-173z" />
    <glyph glyph-name="emacron" unicode="&#x113;" horiz-adv-x="932" 
d="M235 954h461v121h-461v-121zM499 -19c161 0 304 69 370 146l-73 119c-79 -64 -169 -110 -286 -110c-137 0 -239 93 -248 227h618c0 272 -163 463 -397 463c-257 0 -437 -175 -437 -426c0 -247 186 -419 453 -419zM265 483c18 115 107 196 218 196c104 0 184 -81 194 -196
h-412z" />
    <glyph glyph-name="Ebreve" unicode="&#x114;" horiz-adv-x="1184" 
d="M619 1262c152 0 256 97 270 245h-138c-10 -76 -60 -121 -132 -121c-76 0 -121 45 -134 121h-134c11 -149 119 -245 268 -245zM933 360v-214h-490v379h316v-112h103v381h-103v-116h-316v329h488v-206h172v351h-1046v-145h155v-862h-155v-145h1049v360h-173z" />
    <glyph glyph-name="ebreve" unicode="&#x115;" horiz-adv-x="932" 
d="M476 914c152 0 256 97 270 245h-138c-10 -76 -60 -121 -132 -121c-76 0 -121 45 -134 121h-134c11 -149 119 -245 268 -245zM499 -19c161 0 304 69 370 146l-73 119c-79 -64 -169 -110 -286 -110c-137 0 -239 93 -248 227h618c0 272 -163 463 -397 463
c-257 0 -437 -175 -437 -426c0 -247 186 -419 453 -419zM265 483c18 115 107 196 218 196c104 0 184 -81 194 -196h-412z" />
    <glyph glyph-name="Edotaccent" unicode="&#x116;" horiz-adv-x="1184" 
d="M623 1314c81 0 143 58 143 135c0 74 -62 133 -143 133c-79 0 -141 -59 -141 -133c0 -77 62 -135 141 -135zM933 360v-214h-490v379h316v-112h103v381h-103v-116h-316v329h488v-206h172v351h-1046v-145h155v-862h-155v-145h1049v360h-173z" />
    <glyph glyph-name="edotaccent" unicode="&#x117;" horiz-adv-x="932" 
d="M480 966c81 0 143 58 143 135c0 74 -62 133 -143 133c-79 0 -141 -59 -141 -133c0 -77 62 -135 141 -135zM499 -19c161 0 304 69 370 146l-73 119c-79 -64 -169 -110 -286 -110c-137 0 -239 93 -248 227h618c0 272 -163 463 -397 463c-257 0 -437 -175 -437 -426
c0 -247 186 -419 453 -419zM265 483c18 115 107 196 218 196c104 0 184 -81 194 -196h-412z" />
    <glyph glyph-name="Eogonek" unicode="&#x118;" horiz-adv-x="1184" 
d="M933 360v-214h-490v379h316v-112h103v381h-103v-116h-316v329h488v-206h172v351h-1046v-145h155v-862h-155v-145h1049v360h-173zM761 -357c47 0 80 10 136 37v106c-32 -14 -56 -19 -86 -19c-66 0 -100 36 -100 107c0 42 10 86 46 135h-114c-50 -77 -63 -136 -63 -189
c0 -104 75 -177 181 -177z" />
    <glyph glyph-name="eogonek" unicode="&#x119;" horiz-adv-x="932" 
d="M499 -19c161 0 304 69 370 146l-73 119c-79 -64 -169 -110 -286 -110c-137 0 -239 93 -248 227h618c0 272 -163 463 -397 463c-257 0 -437 -175 -437 -426c0 -247 186 -419 453 -419zM265 483c18 115 107 196 218 196c104 0 184 -81 194 -196h-412zM613 -357
c47 0 80 10 136 37v106c-32 -14 -56 -19 -86 -19c-66 0 -100 36 -100 107c0 42 10 86 46 135h-114c-50 -77 -63 -136 -63 -189c0 -104 75 -177 181 -177z" />
    <glyph glyph-name="Ecaron" unicode="&#x11a;" horiz-adv-x="1184" 
d="M933 360v-214h-490v379h316v-112h103v381h-103v-116h-316v329h488v-206h172v351h-1046v-145h155v-862h-155v-145h1049v360h-173zM520 1261h208l157 313h-142l-118 -206l-124 206h-143z" />
    <glyph glyph-name="ecaron" unicode="&#x11b;" horiz-adv-x="932" 
d="M499 -19c161 0 304 69 370 146l-73 119c-79 -64 -169 -110 -286 -110c-137 0 -239 93 -248 227h618c0 272 -163 463 -397 463c-257 0 -437 -175 -437 -426c0 -247 186 -419 453 -419zM265 483c18 115 107 196 218 196c104 0 184 -81 194 -196h-412zM377 913h208l157 313
h-142l-118 -206l-124 206h-143z" />
    <glyph glyph-name="Gcircumflex" unicode="&#x11c;" horiz-adv-x="1413" 
d="M744 -19c374 0 593 185 597 617h-461v-153h235c-6 -185 -127 -293 -362 -298c-253 0 -415 170 -415 445c0 257 157 417 409 417c171 0 302 -82 375 -241h161v389h-177v-124c-84 83 -207 141 -368 141c-377 0 -648 -225 -648 -582c0 -376 259 -611 654 -611zM445 1263h148
l132 252l132 -252h152l-164 332h-241z" />
    <glyph glyph-name="gcircumflex" unicode="&#x11d;" horiz-adv-x="1073" 
d="M483 -391c239 0 436 101 436 379v671h133v145h-334l-3 -57c-79 51 -170 77 -259 77c-208 0 -394 -140 -394 -415c0 -268 195 -416 408 -416c83 0 168 23 242 71v-89c0 -150 -95 -202 -235 -202c-84 0 -177 18 -266 47l-41 -158c100 -33 208 -53 313 -53zM517 144
c-130 0 -239 82 -239 253c0 189 97 276 228 276c65 0 136 -22 205 -63l1 -409c-63 -37 -131 -57 -195 -57zM230 915h148l132 252l132 -252h152l-164 332h-241z" />
    <glyph glyph-name="Gbreve" unicode="&#x11e;" horiz-adv-x="1413" 
d="M729 1262c152 0 256 97 270 245h-138c-10 -76 -60 -121 -132 -121c-76 0 -121 45 -134 121h-134c11 -149 119 -245 268 -245zM744 -19c374 0 593 185 597 617h-461v-153h235c-6 -185 -127 -293 -362 -298c-253 0 -415 170 -415 445c0 257 157 417 409 417
c171 0 302 -82 375 -241h161v389h-177v-124c-84 83 -207 141 -368 141c-377 0 -648 -225 -648 -582c0 -376 259 -611 654 -611z" />
    <glyph glyph-name="gbreve" unicode="&#x11f;" horiz-adv-x="1073" 
d="M513 914c152 0 256 97 270 245h-138c-10 -76 -60 -121 -132 -121c-76 0 -121 45 -134 121h-134c11 -149 119 -245 268 -245zM483 -391c239 0 436 101 436 379v671h133v145h-334l-3 -57c-79 51 -170 77 -259 77c-208 0 -394 -140 -394 -415c0 -268 195 -416 408 -416
c83 0 168 23 242 71v-89c0 -150 -95 -202 -235 -202c-84 0 -177 18 -266 47l-41 -158c100 -33 208 -53 313 -53zM517 144c-130 0 -239 82 -239 253c0 189 97 276 228 276c65 0 136 -22 205 -63l1 -409c-63 -37 -131 -57 -195 -57z" />
    <glyph glyph-name="Gdotaccent" unicode="&#x120;" horiz-adv-x="1413" 
d="M733 1314c81 0 143 58 143 135c0 74 -62 133 -143 133c-79 0 -141 -59 -141 -133c0 -77 62 -135 141 -135zM744 -19c374 0 593 185 597 617h-461v-153h235c-6 -185 -127 -293 -362 -298c-253 0 -415 170 -415 445c0 257 157 417 409 417c171 0 302 -82 375 -241h161v389
h-177v-124c-84 83 -207 141 -368 141c-377 0 -648 -225 -648 -582c0 -376 259 -611 654 -611z" />
    <glyph glyph-name="gdotaccent" unicode="&#x121;" horiz-adv-x="1073" 
d="M483 -391c239 0 436 101 436 379v671h133v145h-334l-3 -57c-79 51 -170 77 -259 77c-208 0 -394 -140 -394 -415c0 -268 195 -416 408 -416c83 0 168 23 242 71v-89c0 -150 -95 -202 -235 -202c-84 0 -177 18 -266 47l-41 -158c100 -33 208 -53 313 -53zM517 144
c-130 0 -239 82 -239 253c0 189 97 276 228 276c65 0 136 -22 205 -63l1 -409c-63 -37 -131 -57 -195 -57zM518 966c81 0 143 58 143 135c0 74 -62 133 -143 133c-79 0 -141 -59 -141 -133c0 -77 62 -135 141 -135z" />
    <glyph glyph-name="uni0122" unicode="&#x122;" horiz-adv-x="1413" 
d="M744 -19c374 0 593 185 597 617h-461v-153h235c-6 -185 -127 -293 -362 -298c-253 0 -415 170 -415 445c0 257 157 417 409 417c171 0 302 -82 375 -241h161v389h-177v-124c-84 83 -207 141 -368 141c-377 0 -648 -225 -648 -582c0 -376 259 -611 654 -611zM601 -539
c167 0 252 74 251 222c0 6 -1 216 -2 221h-250v-225h141c0 -80 -52 -113 -140 -130v-88z" />
    <glyph glyph-name="uni0123" unicode="&#x123;" horiz-adv-x="1073" 
d="M483 -391c239 0 436 101 436 379v671h133v145h-334l-3 -57c-79 51 -170 77 -259 77c-208 0 -394 -140 -394 -415c0 -268 195 -416 408 -416c83 0 168 23 242 71v-89c0 -150 -95 -202 -235 -202c-84 0 -177 18 -266 47l-41 -158c100 -33 208 -53 313 -53zM517 144
c-130 0 -239 82 -239 253c0 189 97 276 228 276c65 0 136 -22 205 -63l1 -409c-63 -37 -131 -57 -195 -57zM446 904h251v227h-141c0 80 52 113 141 130v89c-167 -1 -253 -74 -252 -223c0 -6 0 -218 1 -223z" />
    <glyph glyph-name="Hcircumflex" unicode="&#x124;" horiz-adv-x="1412" 
d="M1354 1007v145h-540v-145h155v-332h-526v332h155v145h-541v-145h155v-862h-155v-145h541v145h-155v373h526v-373h-155v-145h540v145h-155v862h155zM430 1263h148l132 252l132 -252h152l-164 332h-241z" />
    <glyph glyph-name="hcircumflex" unicode="&#x125;" horiz-adv-x="1116" 
d="M971 145v397c0 187 -129 284 -274 284c-106 0 -202 -48 -291 -114v462h-355v-145h148v-884h-149v-145h479v145h-123v435c66 49 148 85 229 85s131 -60 131 -173v-347h-113v-145h462v145h-144zM378 1201h148l132 252l132 -252h152l-164 332h-241z" />
    <glyph glyph-name="Hbar" unicode="&#x126;" horiz-adv-x="1412" 
d="M91 787h1225v107h-1225v-107zM1354 1007v145h-540v-145h155v-332h-526v332h155v145h-541v-145h155v-862h-155v-145h541v145h-155v373h526v-373h-155v-145h540v145h-155v862h155z" />
    <glyph glyph-name="hbar" unicode="&#x127;" horiz-adv-x="1116" 
d="M66 853h461v121h-461v-121zM971 145v397c0 187 -129 284 -274 284c-106 0 -202 -48 -291 -114v462h-355v-145h148v-884h-149v-145h479v145h-123v435c66 49 148 85 229 85s131 -60 131 -173v-347h-113v-145h462v145h-144z" />
    <glyph glyph-name="Itilde" unicode="&#x128;" horiz-adv-x="729" 
d="M501 1256c112 -1 163 101 172 219h-83c-10 -44 -36 -66 -75 -66c-66 0 -202 72 -282 72c-95 0 -169 -59 -182 -215h85c8 42 31 62 68 62c74 0 204 -72 297 -72zM94 145v-145h541v145h-155v862h155v145h-541v-145h155v-862h-155z" />
    <glyph glyph-name="itilde" unicode="&#x129;" horiz-adv-x="665" 
d="M482 908c112 -1 163 101 172 219h-83c-10 -44 -36 -66 -75 -66c-66 0 -202 72 -282 72c-95 0 -169 -59 -182 -215h85c8 42 31 62 68 62c74 0 204 -72 297 -72zM135 0h476v145h-128v659h-347v-145h142v-514h-143v-145z" />
    <glyph glyph-name="Imacron" unicode="&#x12a;" horiz-adv-x="729" 
d="M122 1302h461v121h-461v-121zM94 145v-145h541v145h-155v862h155v145h-541v-145h155v-862h-155z" />
    <glyph glyph-name="imacron" unicode="&#x12b;" horiz-adv-x="665" 
d="M103 954h461v121h-461v-121zM135 0h476v145h-128v659h-347v-145h142v-514h-143v-145z" />
    <glyph glyph-name="Ibreve" unicode="&#x12c;" horiz-adv-x="729" 
d="M363 1262c152 0 256 97 270 245h-138c-10 -76 -60 -121 -132 -121c-76 0 -121 45 -134 121h-134c11 -149 119 -245 268 -245zM94 145v-145h541v145h-155v862h155v145h-541v-145h155v-862h-155z" />
    <glyph glyph-name="ibreve" unicode="&#x12d;" horiz-adv-x="665" 
d="M344 914c152 0 256 97 270 245h-138c-10 -76 -60 -121 -132 -121c-76 0 -121 45 -134 121h-134c11 -149 119 -245 268 -245zM135 0h476v145h-128v659h-347v-145h142v-514h-143v-145z" />
    <glyph glyph-name="Iogonek" unicode="&#x12e;" horiz-adv-x="729" 
d="M429 -357c47 0 80 10 136 37v106c-32 -14 -56 -19 -86 -19c-66 0 -100 36 -100 107c0 42 10 86 46 135h-114c-50 -77 -63 -136 -63 -189c0 -104 75 -177 181 -177zM94 145v-145h541v145h-155v862h155v145h-541v-145h155v-862h-155z" />
    <glyph glyph-name="iogonek" unicode="&#x12f;" horiz-adv-x="665" 
d="M348 966c81 0 143 58 143 135c0 74 -62 133 -143 133c-79 0 -141 -59 -141 -133c0 -77 62 -135 141 -135zM453 -357c47 0 80 10 136 37v106c-32 -14 -56 -19 -86 -19c-66 0 -100 36 -100 107c0 42 10 86 46 135h-114c-50 -77 -63 -136 -63 -189c0 -104 75 -177 181 -177z
M135 0h476v145h-128v659h-347v-145h142v-514h-143v-145z" />
    <glyph glyph-name="Idotaccent" unicode="&#x130;" horiz-adv-x="729" 
d="M367 1314c81 0 143 58 143 135c0 74 -62 133 -143 133c-79 0 -141 -59 -141 -133c0 -77 62 -135 141 -135zM94 145v-145h541v145h-155v862h155v145h-541v-145h155v-862h-155z" />
    <glyph glyph-name="dotlessi" unicode="&#x131;" horiz-adv-x="665" 
d="M135 0h476v145h-128v659h-347v-145h142v-514h-143v-145z" />
    <glyph glyph-name="IJ" unicode="&#x132;" horiz-adv-x="1456" 
d="M777 -115v-181h173c233 0 307 141 307 357v946h164v145h-565v-145h172v-957c0 -90 -20 -165 -128 -165h-123zM94 145v-145h541v145h-155v862h155v145h-541v-145h155v-862h-155z" />
    <glyph glyph-name="ij" unicode="&#x133;" horiz-adv-x="1177" 
d="M914 966c81 0 143 58 143 135c0 74 -62 133 -143 133c-79 0 -141 -59 -141 -133c0 -77 62 -135 141 -135zM617 -180v-162h97c320 0 340 173 340 402v744h-374v-145h166v-666c0 -124 -31 -173 -136 -173h-93zM327 966c80 0 142 58 142 135c0 74 -62 133 -142 133
c-79 0 -141 -59 -141 -133c0 -77 62 -135 141 -135zM95 145v-145h477v145h-128v659h-348v-145h143v-514h-144z" />
    <glyph glyph-name="Jcircumflex" unicode="&#x134;" horiz-adv-x="727" 
d="M48 -115v-181h173c233 0 307 141 307 357v946h164v145h-565v-145h172v-957c0 -90 -20 -165 -128 -165h-123zM127 1263h148l132 252l132 -252h152l-164 332h-241z" />
    <glyph glyph-name="jcircumflex" unicode="&#x135;" horiz-adv-x="562" 
d="M3 -342h97c320 0 340 173 340 402v744h-374v-145h166v-666c0 -124 -31 -173 -136 -173h-93v-162zM13 915h148l132 252l132 -252h152l-164 332h-241z" />
    <glyph glyph-name="uni0136" unicode="&#x136;" horiz-adv-x="1316" 
d="M532 -539c167 0 252 74 251 222c0 6 -1 216 -2 221h-250v-225h141c0 -80 -52 -113 -140 -130v-88zM1123 146l-449 438l453 423h143v145h-528v-145h123l-422 -396v396h155v145h-541v-145h155v-862h-155v-145h541v145h-155v389l396 -388h-122v-146h555v146h-149z" />
    <glyph glyph-name="uni0137" unicode="&#x137;" horiz-adv-x="1055" 
d="M445 -539c167 0 252 74 251 222c0 6 -1 216 -2 221h-250v-225h141c0 -80 -52 -113 -140 -130v-88zM878 146l-267 276l299 237h110v145h-458v-145h143l-299 -226v741h-355v-145h148v-884h-149v-145h479v145h-123v240l365 -385h257v146h-150z" />
    <glyph glyph-name="kgreenlandic" unicode="&#x138;" horiz-adv-x="1143" 
d="M85 0h466v146h-111v241l311 -241h-84v-146h450v146h-137l-325 253l311 260h138v145h-493v-145h131l-302 -252v397h-356v-145h152v-513h-151v-146z" />
    <glyph glyph-name="Lacute" unicode="&#x139;" horiz-adv-x="1101" 
d="M858 511v-365h-415v861h155v145h-541v-145h155v-862h-155v-145h990v511h-189zM665 1314h134l216 324h-233z" />
    <glyph glyph-name="lacute" unicode="&#x13a;" horiz-adv-x="577" 
d="M54 145v-145h479v145h-123v1029h-354v-145h147v-884h-149zM239 1314h134l216 324h-233z" />
    <glyph glyph-name="uni013B" unicode="&#x13b;" horiz-adv-x="1101" 
d="M858 511v-365h-415v861h155v145h-541v-145h155v-862h-155v-145h990v511h-189zM422 -539c167 0 252 74 251 222c0 6 -1 216 -2 221h-250v-225h141c0 -80 -52 -113 -140 -130v-88z" />
    <glyph glyph-name="uni013C" unicode="&#x13c;" horiz-adv-x="577" 
d="M54 145v-145h479v145h-123v1029h-354v-145h147v-884h-149zM184 -539c167 0 252 74 251 222c0 6 -1 216 -2 221h-250v-225h141c0 -80 -52 -113 -140 -130v-88z" />
    <glyph glyph-name="Lcaron" unicode="&#x13d;" horiz-adv-x="1101" 
d="M858 511v-365h-415v861h155v145h-541v-145h155v-862h-155v-145h990v511h-189zM686 741c165 0 253 76 252 217v224h-252v-220h137c0 -79 -48 -111 -137 -128v-93z" />
    <glyph glyph-name="lcaron" unicode="&#x13e;" horiz-adv-x="577" 
d="M54 145v-145h479v145h-123v1029h-354v-145h147v-884h-149zM482 741c165 0 253 76 252 217v224h-252v-220h137c0 -79 -48 -111 -137 -128v-93z" />
    <glyph glyph-name="Ldot" unicode="&#x13f;" horiz-adv-x="1101" 
d="M617 618h229v213h-229v-213zM858 511v-365h-415v861h155v145h-541v-145h155v-862h-155v-145h990v511h-189z" />
    <glyph glyph-name="ldot" unicode="&#x140;" horiz-adv-x="577" 
d="M497 544h229v213h-229v-213zM54 145v-145h479v145h-123v1029h-354v-145h147v-884h-149z" />
    <glyph glyph-name="Lslash" unicode="&#x141;" horiz-adv-x="1197" 
d="M121 394l572 295v138l-572 -302v-131zM858 511v-365h-415v861h155v145h-541v-145h155v-862h-155v-145h990v511h-189z" />
    <glyph glyph-name="lslash" unicode="&#x142;" horiz-adv-x="555" 
d="M45 364l512 250v171l-512 -256v-165zM54 145v-145h479v145h-123v1029h-354v-145h147v-884h-149z" />
    <glyph glyph-name="Nacute" unicode="&#x143;" horiz-adv-x="1492" 
d="M57 146v-146h513v146h-170v787l661 -933h213v1007h179v145h-518v-145h169v-703l-604 848h-443v-145h174v-861h-174zM662 1314h134l216 324h-233z" />
    <glyph glyph-name="nacute" unicode="&#x144;" horiz-adv-x="1088" 
d="M942 145v397c1 187 -128 284 -273 284c-98 0 -188 -41 -271 -100v78h-348v-145h143v-514h-143v-145h476v145h-128v449c62 42 136 71 209 71c81 0 130 -60 130 -173v-347h-113v-145h463v145h-145zM527 966h134l216 324h-233z" />
    <glyph glyph-name="uni0145" unicode="&#x145;" horiz-adv-x="1492" 
d="M57 146v-146h513v146h-170v787l661 -933h213v1007h179v145h-518v-145h169v-703l-604 848h-443v-145h174v-861h-174zM621 -539c167 0 252 74 251 222c0 6 -1 216 -2 221h-250v-225h141c0 -80 -52 -113 -140 -130v-88z" />
    <glyph glyph-name="uni0146" unicode="&#x146;" horiz-adv-x="1088" 
d="M942 145v397c1 187 -128 284 -273 284c-98 0 -188 -41 -271 -100v78h-348v-145h143v-514h-143v-145h476v145h-128v449c62 42 136 71 209 71c81 0 130 -60 130 -173v-347h-113v-145h463v145h-145zM471 -539c167 0 252 74 251 222c0 6 -1 216 -2 221h-250v-225h141
c0 -80 -52 -113 -140 -130v-88z" />
    <glyph glyph-name="Ncaron" unicode="&#x147;" horiz-adv-x="1492" 
d="M57 146v-146h513v146h-170v787l661 -933h213v1007h179v145h-518v-145h169v-703l-604 848h-443v-145h174v-861h-174zM629 1261h208l157 313h-142l-118 -206l-124 206h-143z" />
    <glyph glyph-name="ncaron" unicode="&#x148;" horiz-adv-x="1088" 
d="M942 145v397c1 187 -128 284 -273 284c-98 0 -188 -41 -271 -100v78h-348v-145h143v-514h-143v-145h476v145h-128v449c62 42 136 71 209 71c81 0 130 -60 130 -173v-347h-113v-145h463v145h-145zM491 913h208l157 313h-142l-118 -206l-124 206h-143z" />
    <glyph glyph-name="napostrophe" unicode="&#x149;" horiz-adv-x="1088" 
d="M942 145v397c1 187 -128 284 -273 284c-98 0 -188 -41 -271 -100v78h-348v-145h143v-514h-143v-145h476v145h-128v449c62 42 136 71 209 71c81 0 130 -60 130 -173v-347h-113v-145h463v145h-145zM489 897c167 0 252 74 251 222c0 6 -1 216 -2 221h-250v-225h141
c0 -80 -52 -113 -140 -130v-88z" />
    <glyph glyph-name="Eng" unicode="&#x14a;" horiz-adv-x="1460" 
d="M1453 1007v145h-518v-145h169v-703l-604 848h-443v-145h174v-861h-174v-146h513v146h-170v787l704 -970c1 -154 -111 -204 -287 -204v-144c243 0 457 77 457 356v1036h179z" />
    <glyph glyph-name="eng" unicode="&#x14b;" horiz-adv-x="1088" 
d="M398 725v79h-348v-145h142v-514h-143v-145h477v145h-128v449c62 41 136 71 209 71c81 0 131 -60 131 -173v-444c0 -155 -72 -209 -248 -209v-148c242 0 453 85 453 364v487c0 187 -129 284 -274 284c-98 0 -189 -41 -271 -101z" />
    <glyph glyph-name="Omacron" unicode="&#x14c;" horiz-adv-x="1457" 
d="M728 -22c366 0 640 253 640 595c0 344 -274 601 -641 601c-366 0 -638 -256 -638 -600c0 -343 273 -596 639 -596zM727 144c-224 0 -391 183 -391 429c0 251 167 437 392 437c224 0 391 -186 391 -436c0 -247 -168 -430 -392 -430zM482 1302h461v121h-461v-121z" />
    <glyph glyph-name="omacron" unicode="&#x14d;" 
d="M487 -22c261 0 445 176 445 427c0 247 -183 421 -443 421s-443 -174 -443 -421c0 -251 182 -427 441 -427zM488 138c-134 0 -228 109 -228 266c0 153 94 262 227 262c135 0 229 -108 229 -261c0 -157 -94 -267 -228 -267zM243 956h461v121h-461v-121z" />
    <glyph glyph-name="Obreve" unicode="&#x14e;" horiz-adv-x="1457" 
d="M723 1262c152 0 256 97 270 245h-138c-10 -76 -60 -121 -132 -121c-76 0 -121 45 -134 121h-134c11 -149 119 -245 268 -245zM728 -22c366 0 640 253 640 595c0 344 -274 601 -641 601c-366 0 -638 -256 -638 -600c0 -343 273 -596 639 -596zM727 144
c-224 0 -391 183 -391 429c0 251 167 437 392 437c224 0 391 -186 391 -436c0 -247 -168 -430 -392 -430z" />
    <glyph glyph-name="obreve" unicode="&#x14f;" 
d="M484 916c152 0 256 97 270 245h-138c-10 -76 -60 -121 -132 -121c-76 0 -121 45 -134 121h-134c11 -149 119 -245 268 -245zM487 -22c261 0 445 176 445 427c0 247 -183 421 -443 421s-443 -174 -443 -421c0 -251 182 -427 441 -427zM488 138c-134 0 -228 109 -228 266
c0 153 94 262 227 262c135 0 229 -108 229 -261c0 -157 -94 -267 -228 -267z" />
    <glyph glyph-name="Ohungarumlaut" unicode="&#x150;" horiz-adv-x="1457" 
d="M728 -22c366 0 640 253 640 595c0 344 -274 601 -641 601c-366 0 -638 -256 -638 -600c0 -343 273 -596 639 -596zM727 144c-224 0 -391 183 -391 429c0 251 167 437 392 437c224 0 391 -186 391 -436c0 -247 -168 -430 -392 -430zM522 1314h133l216 324h-232zM849 1314
h133l216 324h-232z" />
    <glyph glyph-name="ohungarumlaut" unicode="&#x151;" 
d="M487 -22c261 0 445 176 445 427c0 247 -183 421 -443 421s-443 -174 -443 -421c0 -251 182 -427 441 -427zM488 138c-134 0 -228 109 -228 266c0 153 94 262 227 262c135 0 229 -108 229 -261c0 -157 -94 -267 -228 -267zM284 968h133l216 324h-232zM611 968h133l216 324
h-232z" />
    <glyph glyph-name="OE" unicode="&#x152;" horiz-adv-x="2071" 
d="M823 0h1146v344h-175v-204h-472v386h300v-108h102v364h-101v-107h-301v337h470v-198h173v338h-1143c-402 0 -651 -215 -652 -567c1 -363 251 -585 653 -585zM834 140c-255 0 -414 170 -414 443c0 265 161 429 413 429h259v-872h-258z" />
    <glyph glyph-name="oe" unicode="&#x153;" horiz-adv-x="1687" 
d="M519 -22c146 0 260 63 333 159c75 -97 195 -159 351 -159c163 0 291 54 363 146l-101 103c-67 -64 -162 -100 -252 -100c-163 0 -249 97 -258 233h624c0 261 -120 466 -387 466c-142 0 -260 -62 -337 -166c-75 105 -193 166 -333 166c-255 0 -433 -179 -433 -426
c0 -243 171 -422 430 -422zM521 130c-142 0 -229 111 -229 270c0 158 86 269 228 269s229 -111 229 -269c0 -159 -88 -270 -228 -270zM958 475c20 124 96 205 234 205c128 0 184 -86 200 -205h-434z" />
    <glyph glyph-name="Racute" unicode="&#x154;" horiz-adv-x="1272" 
d="M1068 146l-237 400c177 45 266 139 266 306c0 229 -180 300 -427 300h-613v-145h155v-862h-155v-145h541v145h-155v862h226c131 0 198 -62 198 -159c0 -92 -47 -178 -213 -178h-150v-149h110l292 -521h333v146h-171zM507 1314h134l216 324h-233z" />
    <glyph glyph-name="racute" unicode="&#x155;" horiz-adv-x="803" 
d="M398 661v143h-348v-145h143v-514h-143v-145h476v145h-128v275c0 137 82 211 181 211c48 0 99 -16 147 -49l49 187c-58 25 -116 43 -171 43c-81 0 -154 -39 -206 -151zM381 966h134l216 324h-233z" />
    <glyph glyph-name="uni0156" unicode="&#x156;" horiz-adv-x="1272" 
d="M1068 146l-237 400c177 45 266 139 266 306c0 229 -180 300 -427 300h-613v-145h155v-862h-155v-145h541v145h-155v862h226c131 0 198 -62 198 -159c0 -92 -47 -178 -213 -178h-150v-149h110l292 -521h333v146h-171zM531 -539c167 0 252 74 251 222c0 6 -1 216 -2 221
h-250v-225h141c0 -80 -52 -113 -140 -130v-88z" />
    <glyph glyph-name="uni0157" unicode="&#x157;" horiz-adv-x="803" 
d="M398 661v143h-348v-145h143v-514h-143v-145h476v145h-128v275c0 137 82 211 181 211c48 0 99 -16 147 -49l49 187c-58 25 -116 43 -171 43c-81 0 -154 -39 -206 -151zM177 -539c167 0 252 74 251 222c0 6 -1 216 -2 221h-250v-225h141c0 -80 -52 -113 -140 -130v-88z" />
    <glyph glyph-name="Rcaron" unicode="&#x158;" horiz-adv-x="1272" 
d="M1068 146l-237 400c177 45 266 139 266 306c0 229 -180 300 -427 300h-613v-145h155v-862h-155v-145h541v145h-155v862h226c131 0 198 -62 198 -159c0 -92 -47 -178 -213 -178h-150v-149h110l292 -521h333v146h-171zM474 1261h208l157 313h-142l-118 -206l-124 206h-143z
" />
    <glyph glyph-name="rcaron" unicode="&#x159;" horiz-adv-x="803" 
d="M398 661v143h-348v-145h143v-514h-143v-145h476v145h-128v275c0 137 82 211 181 211c48 0 99 -16 147 -49l49 187c-58 25 -116 43 -171 43c-81 0 -154 -39 -206 -151zM346 913h208l157 313h-142l-118 -206l-124 206h-143z" />
    <glyph glyph-name="Sacute" unicode="&#x15a;" horiz-adv-x="1048" 
d="M592 -19c217 0 394 131 393 341c0 252 -163 319 -408 367c-172 33 -248 76 -248 180c0 91 65 149 194 149c96 0 169 -31 225 -99v-100h174v338h-174v-75c-63 59 -150 92 -248 92c-226 0 -379 -111 -379 -315c0 -239 170 -311 410 -354c167 -29 234 -79 234 -197
c0 -98 -70 -169 -192 -169c-115 0 -228 68 -268 128v126h-176v-394h176v94c77 -68 175 -112 287 -112zM483 1314h134l216 324h-233z" />
    <glyph glyph-name="sacute" unicode="&#x15b;" horiz-adv-x="877" 
d="M511 -20c147 0 297 69 303 228c7 187 -118 236 -268 274l-92 23c-112 29 -142 49 -142 98c0 52 61 77 132 77c67 0 147 -23 188 -67l17 -89h141v286h-160v-54c-52 46 -145 70 -225 70c-173 0 -300 -88 -300 -228c0 -168 92 -217 252 -258l108 -26
c106 -26 151 -41 151 -108c0 -59 -61 -88 -135 -88c-84 0 -183 36 -223 103l-10 77h-138v-298h154v63c56 -54 152 -83 247 -83zM361 966h134l216 324h-233z" />
    <glyph glyph-name="Scircumflex" unicode="&#x15c;" horiz-adv-x="1048" 
d="M592 -19c217 0 394 131 393 341c0 252 -163 319 -408 367c-172 33 -248 76 -248 180c0 91 65 149 194 149c96 0 169 -31 225 -99v-100h174v338h-174v-75c-63 59 -150 92 -248 92c-226 0 -379 -111 -379 -315c0 -239 170 -311 410 -354c167 -29 234 -79 234 -197
c0 -98 -70 -169 -192 -169c-115 0 -228 68 -268 128v126h-176v-394h176v94c77 -68 175 -112 287 -112zM265 1263h148l132 252l132 -252h152l-164 332h-241z" />
    <glyph glyph-name="scircumflex" unicode="&#x15d;" horiz-adv-x="877" 
d="M511 -20c147 0 297 69 303 228c7 187 -118 236 -268 274l-92 23c-112 29 -142 49 -142 98c0 52 61 77 132 77c67 0 147 -23 188 -67l17 -89h141v286h-160v-54c-52 46 -145 70 -225 70c-173 0 -300 -88 -300 -228c0 -168 92 -217 252 -258l108 -26
c106 -26 151 -41 151 -108c0 -59 -61 -88 -135 -88c-84 0 -183 36 -223 103l-10 77h-138v-298h154v63c56 -54 152 -83 247 -83zM141 915h148l132 252l132 -252h152l-164 332h-241z" />
    <glyph glyph-name="Scedilla" unicode="&#x15e;" horiz-adv-x="1048" 
d="M596 -390c92 0 165 37 165 135c0 63 -49 124 -155 137l28 123h-87l-65 -172c77 -7 116 -31 116 -70c0 -41 -31 -57 -78 -57c-38 0 -86 11 -133 26v-74c67 -30 143 -48 209 -48zM592 -19c217 0 394 131 393 341c0 252 -163 319 -408 367c-172 33 -248 76 -248 180
c0 91 65 149 194 149c96 0 169 -31 225 -99v-100h174v338h-174v-75c-63 59 -150 92 -248 92c-226 0 -379 -111 -379 -315c0 -239 170 -311 410 -354c167 -29 234 -79 234 -197c0 -98 -70 -169 -192 -169c-115 0 -228 68 -268 128v126h-176v-394h176v94
c77 -68 175 -112 287 -112z" />
    <glyph glyph-name="scedilla" unicode="&#x15f;" horiz-adv-x="877" 
d="M485 -390c92 0 165 37 165 135c0 63 -49 124 -155 137l28 123h-87l-65 -172c77 -7 116 -31 116 -70c0 -41 -31 -57 -78 -57c-38 0 -86 11 -133 26v-74c67 -30 143 -48 209 -48zM511 -20c147 0 297 69 303 228c7 187 -118 236 -268 274l-92 23c-112 29 -142 49 -142 98
c0 52 61 77 132 77c67 0 147 -23 188 -67l17 -89h141v286h-160v-54c-52 46 -145 70 -225 70c-173 0 -300 -88 -300 -228c0 -168 92 -217 252 -258l108 -26c106 -26 151 -41 151 -108c0 -59 -61 -88 -135 -88c-84 0 -183 36 -223 103l-10 77h-138v-298h154v63
c56 -54 152 -83 247 -83z" />
    <glyph glyph-name="Scaron" unicode="&#x160;" horiz-adv-x="1048" 
d="M592 -19c217 0 394 131 393 341c0 252 -163 319 -408 367c-172 33 -248 76 -248 180c0 91 65 149 194 149c96 0 169 -31 225 -99v-100h174v338h-174v-75c-63 59 -150 92 -248 92c-226 0 -379 -111 -379 -315c0 -239 170 -311 410 -354c167 -29 234 -79 234 -197
c0 -98 -70 -169 -192 -169c-115 0 -228 68 -268 128v126h-176v-394h176v94c77 -68 175 -112 287 -112zM450 1261h208l157 313h-142l-118 -206l-124 206h-143z" />
    <glyph glyph-name="scaron" unicode="&#x161;" horiz-adv-x="877" 
d="M511 -20c147 0 297 69 303 228c7 187 -118 236 -268 274l-92 23c-112 29 -142 49 -142 98c0 52 61 77 132 77c67 0 147 -23 188 -67l17 -89h141v286h-160v-54c-52 46 -145 70 -225 70c-173 0 -300 -88 -300 -228c0 -168 92 -217 252 -258l108 -26
c106 -26 151 -41 151 -108c0 -59 -61 -88 -135 -88c-84 0 -183 36 -223 103l-10 77h-138v-298h154v63c56 -54 152 -83 247 -83zM326 913h208l157 313h-142l-118 -206l-124 206h-143z" />
    <glyph glyph-name="uni0162" unicode="&#x162;" horiz-adv-x="1158" 
d="M593 -390c92 0 165 37 165 135c0 63 -49 124 -155 137l28 123h-87l-65 -172c77 -7 116 -31 116 -70c0 -41 -31 -57 -78 -57c-38 0 -86 11 -133 26v-74c67 -30 143 -48 209 -48zM49 1152v-418h166v273h256v-862h-155v-145h540v145h-155v862h242v-273h166v418h-1060z" />
    <glyph glyph-name="uni0163" unicode="&#x163;" horiz-adv-x="644" 
d="M397 -390c92 0 165 37 165 135c0 63 -49 124 -155 137l28 123h-87l-65 -172c77 -7 116 -31 116 -70c0 -41 -31 -57 -78 -57c-38 0 -86 11 -133 26v-74c67 -30 143 -48 209 -48zM391 0h190v145h-145c-52 0 -67 33 -67 113v401h204v145h-204v351l-204 -77v-274h-126v-145
h124v-411c0 -160 69 -248 228 -248z" />
    <glyph glyph-name="Tcaron" unicode="&#x164;" horiz-adv-x="1158" 
d="M49 1152v-418h166v273h256v-862h-155v-145h540v145h-155v862h242v-273h166v418h-1060zM480 1261h208l157 313h-142l-118 -206l-124 206h-143z" />
    <glyph glyph-name="tcaron" unicode="&#x165;" horiz-adv-x="644" 
d="M391 0h190v145h-145c-52 0 -67 33 -67 113v401h204v145h-204v351l-204 -77v-274h-126v-145h124v-411c0 -160 69 -248 228 -248zM452 967c165 0 253 76 252 217v224h-252v-220h137c0 -79 -48 -111 -137 -128v-93z" />
    <glyph glyph-name="Tbar" unicode="&#x166;" horiz-adv-x="1158" 
d="M49 1152v-418h166v273h256v-862h-155v-145h540v145h-155v862h242v-273h166v418h-1060zM352 553h461v121h-461v-121z" />
    <glyph glyph-name="tbar" unicode="&#x167;" horiz-adv-x="644" 
d="M391 0h190v145h-145c-52 0 -67 33 -67 113v401h204v145h-204v351l-204 -77v-274h-126v-145h124v-411c0 -160 69 -248 228 -248zM57 405h461v121h-461v-121z" />
    <glyph glyph-name="Utilde" unicode="&#x168;" horiz-adv-x="1332" 
d="M831 1256c112 -1 163 101 172 219h-83c-10 -44 -36 -66 -75 -66c-66 0 -202 72 -282 72c-95 0 -169 -59 -182 -215h85c8 42 31 62 68 62c74 0 204 -72 297 -72zM679 -19c277 0 468 133 468 443v583h156v145h-496v-145h153v-591c0 -174 -91 -270 -273 -270
c-173 0 -262 97 -262 265v596h158v145h-541v-145h154v-564c0 -265 113 -462 483 -462z" />
    <glyph glyph-name="utilde" unicode="&#x169;" horiz-adv-x="1065" 
d="M633 908c112 -1 163 101 172 219h-83c-10 -44 -36 -66 -75 -66c-66 0 -202 72 -282 72c-95 0 -169 -59 -182 -215h85c8 42 31 62 68 62c74 0 204 -72 297 -72zM419 -19c99 0 193 40 280 114l4 -95h348v146h-147v658h-344v-145h139v-408c-62 -71 -143 -109 -223 -109
c-88 0 -130 53 -130 155v507h-332v-145h126v-388c0 -178 91 -290 279 -290z" />
    <glyph glyph-name="Umacron" unicode="&#x16a;" horiz-adv-x="1332" 
d="M451 1302h461v121h-461v-121zM679 -19c277 0 468 133 468 443v583h156v145h-496v-145h153v-591c0 -174 -91 -270 -273 -270c-173 0 -262 97 -262 265v596h158v145h-541v-145h154v-564c0 -265 113 -462 483 -462z" />
    <glyph glyph-name="umacron" unicode="&#x16b;" horiz-adv-x="1065" 
d="M419 -19c99 0 193 40 280 114l4 -95h348v146h-147v658h-344v-145h139v-408c-62 -71 -143 -109 -223 -109c-88 0 -130 53 -130 155v507h-332v-145h126v-388c0 -178 91 -290 279 -290zM253 954h461v121h-461v-121z" />
    <glyph glyph-name="Ubreve" unicode="&#x16c;" horiz-adv-x="1332" 
d="M692 1262c152 0 256 97 270 245h-138c-10 -76 -60 -121 -132 -121c-76 0 -121 45 -134 121h-134c11 -149 119 -245 268 -245zM679 -19c277 0 468 133 468 443v583h156v145h-496v-145h153v-591c0 -174 -91 -270 -273 -270c-173 0 -262 97 -262 265v596h158v145h-541v-145
h154v-564c0 -265 113 -462 483 -462z" />
    <glyph glyph-name="ubreve" unicode="&#x16d;" horiz-adv-x="1065" 
d="M494 914c152 0 256 97 270 245h-138c-10 -76 -60 -121 -132 -121c-76 0 -121 45 -134 121h-134c11 -149 119 -245 268 -245zM419 -19c99 0 193 40 280 114l4 -95h348v146h-147v658h-344v-145h139v-408c-62 -71 -143 -109 -223 -109c-88 0 -130 53 -130 155v507h-332v-145
h126v-388c0 -178 91 -290 279 -290z" />
    <glyph glyph-name="Uring" unicode="&#x16e;" horiz-adv-x="1332" 
d="M679 -19c277 0 468 133 468 443v583h156v145h-496v-145h153v-591c0 -174 -91 -270 -273 -270c-173 0 -262 97 -262 265v596h158v145h-541v-145h154v-564c0 -265 113 -462 483 -462zM694 1314c-60 0 -94 43 -94 91c0 49 34 91 94 91c61 0 96 -42 96 -91
c0 -48 -35 -91 -96 -91zM694 1234c115 0 184 81 184 173c0 90 -66 168 -184 168c-116 0 -183 -78 -183 -168c0 -92 69 -173 183 -173z" />
    <glyph glyph-name="uring" unicode="&#x16f;" horiz-adv-x="1065" 
d="M419 -19c99 0 193 40 280 114l4 -95h348v146h-147v658h-344v-145h139v-408c-62 -71 -143 -109 -223 -109c-88 0 -130 53 -130 155v507h-332v-145h126v-388c0 -178 91 -290 279 -290zM496 966c-60 0 -94 43 -94 91c0 49 34 91 94 91c61 0 96 -42 96 -91
c0 -48 -35 -91 -96 -91zM496 886c115 0 184 81 184 173c0 90 -66 168 -184 168c-116 0 -183 -78 -183 -168c0 -92 69 -173 183 -173z" />
    <glyph glyph-name="Uhungarumlaut" unicode="&#x170;" horiz-adv-x="1332" 
d="M492 1314h133l216 324h-232zM819 1314h133l216 324h-232zM679 -19c277 0 468 133 468 443v583h156v145h-496v-145h153v-591c0 -174 -91 -270 -273 -270c-173 0 -262 97 -262 265v596h158v145h-541v-145h154v-564c0 -265 113 -462 483 -462z" />
    <glyph glyph-name="uhungarumlaut" unicode="&#x171;" horiz-adv-x="1065" 
d="M294 966h133l216 324h-232zM621 966h133l216 324h-232zM419 -19c99 0 193 40 280 114l4 -95h348v146h-147v658h-344v-145h139v-408c-62 -71 -143 -109 -223 -109c-88 0 -130 53 -130 155v507h-332v-145h126v-388c0 -178 91 -290 279 -290z" />
    <glyph glyph-name="Uogonek" unicode="&#x172;" horiz-adv-x="1332" 
d="M679 -19c277 0 468 133 468 443v583h156v145h-496v-145h153v-591c0 -174 -91 -270 -273 -270c-173 0 -262 97 -262 265v596h158v145h-541v-145h154v-564c0 -265 113 -462 483 -462zM821 -357c47 0 80 10 136 37v106c-32 -14 -56 -19 -86 -19c-66 0 -100 36 -100 107
c0 42 10 86 46 135h-114c-50 -77 -63 -136 -63 -189c0 -104 75 -177 181 -177z" />
    <glyph glyph-name="uogonek" unicode="&#x173;" horiz-adv-x="1065" 
d="M419 -19c99 0 193 40 280 114l4 -95h348v146h-147v658h-344v-145h139v-408c-62 -71 -143 -109 -223 -109c-88 0 -130 53 -130 155v507h-332v-145h126v-388c0 -178 91 -290 279 -290zM910 -357c47 0 80 10 136 37v106c-32 -14 -56 -19 -86 -19c-66 0 -100 36 -100 107
c0 42 10 86 46 135h-114c-50 -77 -63 -136 -63 -189c0 -104 75 -177 181 -177z" />
    <glyph glyph-name="Wcircumflex" unicode="&#x174;" horiz-adv-x="1869" 
d="M184 1007l305 -1007h182l267 800l271 -800h185l294 1007h143v145h-466v-145h144l-194 -712l-283 855h-152l-280 -855l-198 712h142v145h-505v-145h145zM674 1263h148l132 252l132 -252h152l-164 332h-241z" />
    <glyph glyph-name="wcircumflex" unicode="&#x175;" horiz-adv-x="1423" 
d="M107 659l242 -659h192l175 493l178 -493h188l231 659h98v145h-372v-145h97l-143 -458l-162 458h99v145h-414v-145h100l-155 -454l-153 454h86v145h-382v-145h95zM443 915h148l132 252l132 -252h152l-164 332h-241z" />
    <glyph glyph-name="Ycircumflex" unicode="&#x176;" horiz-adv-x="1322" 
d="M389 1263h148l132 252l132 -252h152l-164 332h-241zM381 146v-146h570v146h-172v360l349 501h159v145h-500v-145h140l-240 -361l-255 361h142v145h-542v-145h152l365 -502v-359h-168z" />
    <glyph glyph-name="ycircumflex" unicode="&#x177;" horiz-adv-x="1067" 
d="M193 -200v-162h119c237 0 267 116 353 332l274 689h130v145h-457v-145h124l-178 -469l-209 469h106v145h-452v-145h140l289 -612h77l-32 -103c-44 -133 -93 -144 -185 -144h-99zM258 915h148l132 252l132 -252h152l-164 332h-241z" />
    <glyph glyph-name="Ydieresis" unicode="&#x178;" horiz-adv-x="1322" 
d="M457 1277c73 0 120 46 120 115s-49 114 -120 114s-119 -46 -119 -114c0 -69 49 -115 119 -115zM894 1277c73 0 120 46 120 115s-49 114 -120 114s-119 -46 -119 -114c0 -69 48 -115 119 -115zM381 146v-146h570v146h-172v360l349 501h159v145h-500v-145h140l-240 -361
l-255 361h142v145h-542v-145h152l365 -502v-359h-168z" />
    <glyph glyph-name="Zacute" unicode="&#x179;" horiz-adv-x="1162" 
d="M116 0h958v429h-164v-283h-519l672 867v139h-918v-406h165v261h468l-662 -851v-156zM550 1314h134l216 324h-233z" />
    <glyph glyph-name="zacute" unicode="&#x17a;" horiz-adv-x="881" 
d="M86 139v-139h743v302h-156v-166h-346l489 525v143h-729v-291h151v154h333zM411 966h134l216 324h-233z" />
    <glyph glyph-name="Zdotaccent" unicode="&#x17b;" horiz-adv-x="1162" 
d="M619 1314c81 0 143 58 143 135c0 74 -62 133 -143 133c-79 0 -141 -59 -141 -133c0 -77 62 -135 141 -135zM116 0h958v429h-164v-283h-519l672 867v139h-918v-406h165v261h468l-662 -851v-156z" />
    <glyph glyph-name="zdotaccent" unicode="&#x17c;" horiz-adv-x="881" 
d="M479 966c81 0 143 58 143 135c0 74 -62 133 -143 133c-79 0 -141 -59 -141 -133c0 -77 62 -135 141 -135zM86 139v-139h743v302h-156v-166h-346l489 525v143h-729v-291h151v154h333z" />
    <glyph glyph-name="Zcaron" unicode="&#x17d;" horiz-adv-x="1162" 
d="M116 0h958v429h-164v-283h-519l672 867v139h-918v-406h165v261h468l-662 -851v-156zM516 1261h208l157 313h-142l-118 -206l-124 206h-143z" />
    <glyph glyph-name="zcaron" unicode="&#x17e;" horiz-adv-x="881" 
d="M86 139v-139h743v302h-156v-166h-346l489 525v143h-729v-291h151v154h333zM376 913h208l157 313h-142l-118 -206l-124 206h-143z" />
    <glyph glyph-name="longs" unicode="&#x17f;" horiz-adv-x="2048" 
 />
    <glyph glyph-name="uni018F" unicode="&#x18f;" horiz-adv-x="600" 
 />
    <glyph glyph-name="florin" unicode="&#x192;" horiz-adv-x="1142" 
d="M184 -347c203 0 338 88 396 383l124 633h209l21 114h-210l32 165c24 130 44 192 96 192c45 0 68 -65 68 -171c145 0 188 58 188 133c0 74 -79 131 -248 131c-209 0 -314 -108 -352 -296l-31 -154h-161l-20 -114h161l-121 -632c-40 -208 -74 -282 -156 -282
c-40 0 -92 13 -120 23l-25 -103c37 -12 97 -22 149 -22z" />
    <glyph glyph-name="uni01C4" unicode="&#x1c4;" horiz-adv-x="2560" 
d="M57 1152v-145h158v-861h-158v-146h612c426 0 640 217 640 594c0 296 -206 558 -639 558h-613zM445 146v861h214c291 0 412 -195 412 -419c0 -267 -117 -442 -420 -442h-206zM1514 0h958v429h-164v-283h-519l672 867v139h-918v-406h165v261h468l-662 -851v-156zM1915 1261
h208l157 313h-142l-118 -206l-124 206h-143z" />
    <glyph glyph-name="uni01C5" unicode="&#x1c5;" horiz-adv-x="2279" 
d="M57 1152v-145h158v-861h-158v-146h612c426 0 640 217 640 594c0 296 -206 558 -639 558h-613zM445 146v861h214c291 0 412 -195 412 -419c0 -267 -117 -442 -420 -442h-206zM1484 139v-139h743v302h-156v-166h-346l489 525v143h-729v-291h151v154h333zM1774 913h208
l157 313h-142l-118 -206l-124 206h-143z" />
    <glyph glyph-name="uni01C6" unicode="&#x1c6;" horiz-adv-x="1953" 
d="M902 145v1029h-356v-145h149v-275c-76 47 -162 71 -247 71c-207 0 -394 -142 -394 -423c0 -273 195 -424 409 -424c79 0 159 22 232 66v-44h327v145h-120zM271 390c0 193 97 282 227 282c62 0 130 -20 197 -58v-431c-61 -34 -126 -51 -185 -51c-131 0 -239 84 -239 258z
M1158 139v-139h743v302h-156v-166h-346l489 525v143h-729v-291h151v154h333zM1448 913h208l157 313h-142l-118 -206l-124 206h-143z" />
    <glyph glyph-name="uni01C7" unicode="&#x1c7;" horiz-adv-x="1828" 
d="M858 511v-365h-415v861h155v145h-541v-145h155v-862h-155v-145h990v511h-189zM1149 -115v-181h173c233 0 307 141 307 357v946h164v145h-565v-145h172v-957c0 -90 -20 -165 -128 -165h-123z" />
    <glyph glyph-name="uni01C8" unicode="&#x1c8;" horiz-adv-x="1663" 
d="M858 511v-365h-415v861h155v145h-541v-145h155v-862h-155v-145h990v511h-189zM1401 966c81 0 143 58 143 135c0 74 -62 133 -143 133c-79 0 -141 -59 -141 -133c0 -77 62 -135 141 -135zM1104 -180v-162h97c320 0 340 173 340 402v744h-374v-145h166v-666
c0 -124 -31 -173 -136 -173h-93z" />
    <glyph glyph-name="uni01C9" unicode="&#x1c9;" horiz-adv-x="1139" 
d="M54 145v-145h479v145h-123v1029h-354v-145h147v-884h-149zM877 966c81 0 143 58 143 135c0 74 -62 133 -143 133c-79 0 -141 -59 -141 -133c0 -77 62 -135 141 -135zM580 -180v-162h97c320 0 340 173 340 402v744h-374v-145h166v-666c0 -124 -31 -173 -136 -173h-93z" />
    <glyph glyph-name="uni01CA" unicode="&#x1ca;" horiz-adv-x="2219" 
d="M57 146v-146h513v146h-170v787l661 -933h213v1007h179v145h-518v-145h169v-703l-604 848h-443v-145h174v-861h-174zM1540 -115v-181h173c233 0 307 141 307 357v946h164v145h-565v-145h172v-957c0 -90 -20 -165 -128 -165h-123z" />
    <glyph glyph-name="uni01CB" unicode="&#x1cb;" horiz-adv-x="2055" 
d="M57 146v-146h513v146h-170v787l661 -933h213v1007h179v145h-518v-145h169v-703l-604 848h-443v-145h174v-861h-174zM1792 966c81 0 143 58 143 135c0 74 -62 133 -143 133c-79 0 -141 -59 -141 -133c0 -77 62 -135 141 -135zM1495 -180v-162h97c320 0 340 173 340 402
v744h-374v-145h166v-666c0 -124 -31 -173 -136 -173h-93z" />
    <glyph glyph-name="uni01CC" unicode="&#x1cc;" horiz-adv-x="1650" 
d="M942 145v397c1 187 -128 284 -273 284c-98 0 -188 -41 -271 -100v78h-348v-145h143v-514h-143v-145h476v145h-128v449c62 42 136 71 209 71c81 0 130 -60 130 -173v-347h-113v-145h463v145h-145zM1388 966c81 0 143 58 143 135c0 74 -62 133 -143 133
c-79 0 -141 -59 -141 -133c0 -77 62 -135 141 -135zM1091 -180v-162h97c320 0 340 173 340 402v744h-374v-145h166v-666c0 -124 -31 -173 -136 -173h-93z" />
    <glyph glyph-name="uni01CD" unicode="&#x1cd;" horiz-adv-x="1399" 
d="M599 1261h208l157 313h-142l-118 -206l-124 206h-143zM44 146v-146h508v146h-159l92 279h395l95 -279h-158v-146h538v146h-135l-317 861h126v145h-661v-145h124l-306 -861h-142zM839 567h-312l149 439h17z" />
    <glyph glyph-name="uni01CE" unicode="&#x1ce;" horiz-adv-x="934" 
d="M333 913h208l157 313h-142l-118 -206l-124 206h-143zM339 -22c114 0 188 30 257 88l11 -66h309v145h-126v387c0 200 -160 294 -360 294c-112 0 -256 -33 -347 -100l62 -130c90 54 208 78 274 78c103 0 166 -51 166 -155v-63c-64 13 -122 21 -183 21
c-188 0 -346 -72 -346 -258c0 -134 112 -241 283 -241zM373 113c-74 0 -121 47 -121 116c0 105 84 130 167 130c79 0 131 -11 166 -21v-145c-61 -52 -139 -80 -212 -80z" />
    <glyph glyph-name="uni01CF" unicode="&#x1cf;" horiz-adv-x="729" 
d="M264 1261h208l157 313h-142l-118 -206l-124 206h-143zM94 145v-145h541v145h-155v862h155v145h-541v-145h155v-862h-155z" />
    <glyph glyph-name="uni01D0" unicode="&#x1d0;" horiz-adv-x="665" 
d="M135 0h476v145h-128v659h-347v-145h142v-514h-143v-145zM245 913h208l157 313h-142l-118 -206l-124 206h-143z" />
    <glyph glyph-name="uni01D1" unicode="&#x1d1;" horiz-adv-x="1457" 
d="M728 -22c366 0 640 253 640 595c0 344 -274 601 -641 601c-366 0 -638 -256 -638 -600c0 -343 273 -596 639 -596zM727 144c-224 0 -391 183 -391 429c0 251 167 437 392 437c224 0 391 -186 391 -436c0 -247 -168 -430 -392 -430zM624 1261h208l157 313h-142l-118 -206
l-124 206h-143z" />
    <glyph glyph-name="uni01D2" unicode="&#x1d2;" 
d="M487 -22c261 0 445 176 445 427c0 247 -183 421 -443 421s-443 -174 -443 -421c0 -251 182 -427 441 -427zM488 138c-134 0 -228 109 -228 266c0 153 94 262 227 262c135 0 229 -108 229 -261c0 -157 -94 -267 -228 -267zM385 915h208l157 313h-142l-118 -206l-124 206
h-143z" />
    <glyph glyph-name="uni01D3" unicode="&#x1d3;" horiz-adv-x="1332" 
d="M679 -19c277 0 468 133 468 443v583h156v145h-496v-145h153v-591c0 -174 -91 -270 -273 -270c-173 0 -262 97 -262 265v596h158v145h-541v-145h154v-564c0 -265 113 -462 483 -462zM594 1261h208l157 313h-142l-118 -206l-124 206h-143z" />
    <glyph glyph-name="uni01D4" unicode="&#x1d4;" horiz-adv-x="1065" 
d="M419 -19c99 0 193 40 280 114l4 -95h348v146h-147v658h-344v-145h139v-408c-62 -71 -143 -109 -223 -109c-88 0 -130 53 -130 155v507h-332v-145h126v-388c0 -178 91 -290 279 -290zM395 913h208l157 313h-142l-118 -206l-124 206h-143z" />
    <glyph glyph-name="uni01E2" unicode="&#x1e2;" horiz-adv-x="1884" 
d="M922 1302h461v121h-461v-121zM-8 0h518v146h-135l158 267h381v-267h-153v-146h1043v357h-168v-211h-493v378h317v-115h104v380h-104v-119h-318v337h492v-205h168v350h-1231v-145h118l-550 -861h-147v-146zM599 544l291 463h24v-463h-315z" />
    <glyph glyph-name="uni01E3" unicode="&#x1e3;" horiz-adv-x="1462" 
d="M490 954h461v121h-461v-121zM363 -22c107 0 207 25 349 115c79 -71 190 -112 322 -112c164 0 301 67 363 146l-74 119c-98 -81 -188 -110 -278 -110c-144 0 -240 93 -248 227h610c0 272 -143 463 -389 463c-124 0 -249 -47 -306 -128c-46 81 -169 128 -289 128
s-263 -36 -354 -103l61 -127c91 54 209 78 282 78c103 0 170 -51 170 -155v-65c-64 12 -127 20 -187 20c-184 0 -342 -69 -342 -255c0 -198 209 -241 310 -241zM394 107c-63 0 -148 18 -148 118c0 104 76 131 163 131c53 0 126 -9 175 -14c6 -52 22 -101 45 -144
c-55 -44 -127 -91 -235 -91zM799 483c18 115 98 196 219 196c115 0 176 -81 186 -196h-405z" />
    <glyph glyph-name="Gcaron" unicode="&#x1e6;" horiz-adv-x="1413" 
d="M744 -19c374 0 593 185 597 617h-461v-153h235c-6 -185 -127 -293 -362 -298c-253 0 -415 170 -415 445c0 257 157 417 409 417c171 0 302 -82 375 -241h161v389h-177v-124c-84 83 -207 141 -368 141c-377 0 -648 -225 -648 -582c0 -376 259 -611 654 -611zM630 1261h208
l157 313h-142l-118 -206l-124 206h-143z" />
    <glyph glyph-name="gcaron" unicode="&#x1e7;" horiz-adv-x="1073" 
d="M483 -391c239 0 436 101 436 379v671h133v145h-334l-3 -57c-79 51 -170 77 -259 77c-208 0 -394 -140 -394 -415c0 -268 195 -416 408 -416c83 0 168 23 242 71v-89c0 -150 -95 -202 -235 -202c-84 0 -177 18 -266 47l-41 -158c100 -33 208 -53 313 -53zM517 144
c-130 0 -239 82 -239 253c0 189 97 276 228 276c65 0 136 -22 205 -63l1 -409c-63 -37 -131 -57 -195 -57zM415 913h208l157 313h-142l-118 -206l-124 206h-143z" />
    <glyph glyph-name="uni01E8" unicode="&#x1e8;" horiz-adv-x="1316" 
d="M1123 146l-449 438l453 423h143v145h-528v-145h123l-422 -396v396h155v145h-541v-145h155v-862h-155v-145h541v145h-155v389l396 -388h-122v-146h555v146h-149zM558 1261h208l157 313h-142l-118 -206l-124 206h-143z" />
    <glyph glyph-name="uni01E9" unicode="&#x1e9;" horiz-adv-x="1055" 
d="M878 146l-267 276l299 237h110v145h-458v-145h143l-299 -226v741h-355v-145h148v-884h-149v-145h479v145h-123v240l365 -385h257v146h-150zM668 1057h208l157 313h-142l-118 -206l-124 206h-143z" />
    <glyph glyph-name="uni01EA" unicode="&#x1ea;" horiz-adv-x="1457" 
d="M728 -22c366 0 640 253 640 595c0 344 -274 601 -641 601c-366 0 -638 -256 -638 -600c0 -343 273 -596 639 -596zM727 144c-224 0 -391 183 -391 429c0 251 167 437 392 437c224 0 391 -186 391 -436c0 -247 -168 -430 -392 -430zM856 -357c47 0 80 10 136 37v106
c-32 -14 -56 -19 -86 -19c-66 0 -100 36 -100 107c0 42 10 86 46 135h-114c-50 -77 -63 -136 -63 -189c0 -104 75 -177 181 -177z" />
    <glyph glyph-name="uni01EB" unicode="&#x1eb;" 
d="M487 -22c261 0 445 176 445 427c0 247 -183 421 -443 421s-443 -174 -443 -421c0 -251 182 -427 441 -427zM488 138c-134 0 -228 109 -228 266c0 153 94 262 227 262c135 0 229 -108 229 -261c0 -157 -94 -267 -228 -267zM573 -357c47 0 80 10 136 37v106
c-32 -14 -56 -19 -86 -19c-66 0 -100 36 -100 107c0 42 10 86 46 135h-114c-50 -77 -63 -136 -63 -189c0 -104 75 -177 181 -177z" />
    <glyph glyph-name="uni01F0" unicode="&#x1f0;" horiz-adv-x="562" 
d="M3 -342h97c320 0 340 173 340 402v744h-374v-145h166v-666c0 -124 -31 -173 -136 -173h-93v-162zM197 913h208l157 313h-142l-118 -206l-124 206h-143z" />
    <glyph glyph-name="uni01F1" unicode="&#x1f1;" horiz-adv-x="2560" 
d="M57 1152v-145h158v-861h-158v-146h612c426 0 640 217 640 594c0 296 -206 558 -639 558h-613zM445 146v861h214c291 0 412 -195 412 -419c0 -267 -117 -442 -420 -442h-206zM1514 0h958v429h-164v-283h-519l672 867v139h-918v-406h165v261h468l-662 -851v-156z" />
    <glyph glyph-name="uni01F2" unicode="&#x1f2;" horiz-adv-x="2279" 
d="M57 1152v-145h158v-861h-158v-146h612c426 0 640 217 640 594c0 296 -206 558 -639 558h-613zM445 146v861h214c291 0 412 -195 412 -419c0 -267 -117 -442 -420 -442h-206zM1484 139v-139h743v302h-156v-166h-346l489 525v143h-729v-291h151v154h333z" />
    <glyph glyph-name="uni01F3" unicode="&#x1f3;" horiz-adv-x="1953" 
d="M902 145v1029h-356v-145h149v-275c-76 47 -162 71 -247 71c-207 0 -394 -142 -394 -423c0 -273 195 -424 409 -424c79 0 159 22 232 66v-44h327v145h-120zM271 390c0 193 97 282 227 282c62 0 130 -20 197 -58v-431c-61 -34 -126 -51 -185 -51c-131 0 -239 84 -239 258z
M1158 139v-139h743v302h-156v-166h-346l489 525v143h-729v-291h151v154h333z" />
    <glyph glyph-name="uni01F4" unicode="&#x1f4;" horiz-adv-x="1413" 
d="M744 -19c374 0 593 185 597 617h-461v-153h235c-6 -185 -127 -293 -362 -298c-253 0 -415 170 -415 445c0 257 157 417 409 417c171 0 302 -82 375 -241h161v389h-177v-124c-84 83 -207 141 -368 141c-377 0 -648 -225 -648 -582c0 -376 259 -611 654 -611zM663 1314h134
l216 324h-233z" />
    <glyph glyph-name="uni01F5" unicode="&#x1f5;" horiz-adv-x="1073" 
d="M483 -391c239 0 436 101 436 379v671h133v145h-334l-3 -57c-79 51 -170 77 -259 77c-208 0 -394 -140 -394 -415c0 -268 195 -416 408 -416c83 0 168 23 242 71v-89c0 -150 -95 -202 -235 -202c-84 0 -177 18 -266 47l-41 -158c100 -33 208 -53 313 -53zM517 144
c-130 0 -239 82 -239 253c0 189 97 276 228 276c65 0 136 -22 205 -63l1 -409c-63 -37 -131 -57 -195 -57zM450 966h134l216 324h-233z" />
    <glyph glyph-name="uni01F8" unicode="&#x1f8;" horiz-adv-x="1492" 
d="M57 146v-146h513v146h-170v787l661 -933h213v1007h179v145h-518v-145h169v-703l-604 848h-443v-145h174v-861h-174zM663 1314h133l-116 324h-233z" />
    <glyph glyph-name="uni01F9" unicode="&#x1f9;" horiz-adv-x="1088" 
d="M942 145v397c1 187 -128 284 -273 284c-98 0 -188 -41 -271 -100v78h-348v-145h143v-514h-143v-145h476v145h-128v449c62 42 136 71 209 71c81 0 130 -60 130 -173v-347h-113v-145h463v145h-145zM525 966h133l-116 324h-233z" />
    <glyph glyph-name="Aringacute" unicode="&#x1fa;" horiz-adv-x="1399" 
d="M699 1314c-60 0 -94 43 -94 91c0 49 34 91 94 91c61 0 96 -42 96 -91c0 -48 -35 -91 -96 -91zM699 1234c115 0 184 81 184 173c0 90 -66 168 -184 168c-116 0 -183 -78 -183 -168c0 -92 69 -173 183 -173zM631 1626h134l216 324h-233zM44 146v-146h508v146h-159l92 279
h395l95 -279h-158v-146h538v146h-135l-317 861h126v145h-661v-145h124l-306 -861h-142zM839 567h-312l149 439h17z" />
    <glyph glyph-name="aringacute" unicode="&#x1fb;" horiz-adv-x="934" 
d="M433 966c-60 0 -94 43 -94 91c0 49 34 91 94 91c61 0 96 -42 96 -91c0 -48 -35 -91 -96 -91zM433 886c115 0 184 81 184 173c0 90 -66 168 -184 168c-116 0 -183 -78 -183 -168c0 -92 69 -173 183 -173zM366 1278h134l216 324h-233zM339 -22c114 0 188 30 257 88l11 -66
h309v145h-126v387c0 200 -160 294 -360 294c-112 0 -256 -33 -347 -100l62 -130c90 54 208 78 274 78c103 0 166 -51 166 -155v-63c-64 13 -122 21 -183 21c-188 0 -346 -72 -346 -258c0 -134 112 -241 283 -241zM373 113c-74 0 -121 47 -121 116c0 105 84 130 167 130
c79 0 131 -11 166 -21v-145c-61 -52 -139 -80 -212 -80z" />
    <glyph glyph-name="AEacute" unicode="&#x1fc;" horiz-adv-x="1884" 
d="M-8 0h518v146h-135l158 267h381v-267h-153v-146h1043v357h-168v-211h-493v378h317v-115h104v380h-104v-119h-318v337h492v-205h168v350h-1231v-145h118l-550 -861h-147v-146zM599 544l291 463h24v-463h-315zM1098 1314h134l216 324h-233z" />
    <glyph glyph-name="aeacute" unicode="&#x1fd;" horiz-adv-x="1462" 
d="M363 -22c107 0 207 25 349 115c79 -71 190 -112 322 -112c164 0 301 67 363 146l-74 119c-98 -81 -188 -110 -278 -110c-144 0 -240 93 -248 227h610c0 272 -143 463 -389 463c-124 0 -249 -47 -306 -128c-46 81 -169 128 -289 128s-263 -36 -354 -103l61 -127
c91 54 209 78 282 78c103 0 170 -51 170 -155v-65c-64 12 -127 20 -187 20c-184 0 -342 -69 -342 -255c0 -198 209 -241 310 -241zM394 107c-63 0 -148 18 -148 118c0 104 76 131 163 131c53 0 126 -9 175 -14c6 -52 22 -101 45 -144c-55 -44 -127 -91 -235 -91zM799 483
c18 115 98 196 219 196c115 0 176 -81 186 -196h-405zM668 966h134l216 324h-233z" />
    <glyph glyph-name="Oslashacute" unicode="&#x1fe;" horiz-adv-x="1459" 
d="M657 1314h134l216 324h-233zM307 -79l971 1231l-102 73l-971 -1232zM728 -22c366 0 640 253 640 595c0 344 -274 601 -641 601c-366 0 -638 -256 -638 -600c0 -343 273 -596 639 -596zM727 144c-224 0 -391 183 -391 429c0 251 167 437 392 437c224 0 391 -186 391 -436
c0 -247 -168 -430 -392 -430z" />
    <glyph glyph-name="oslashacute" unicode="&#x1ff;" 
d="M421 968h134l216 324h-233zM279 -120l517 1009l-94 43l-517 -1009zM487 -22c261 0 445 176 445 427c0 247 -183 421 -443 421s-443 -174 -443 -421c0 -251 182 -427 441 -427zM488 138c-134 0 -228 109 -228 266c0 153 94 262 227 262c135 0 229 -108 229 -261
c0 -157 -94 -267 -228 -267z" />
    <glyph glyph-name="uni0200" unicode="&#x200;" horiz-adv-x="1399" 
d="M441 1314h133l-117 324h-232zM768 1314h133l-117 324h-232zM44 146v-146h508v146h-159l92 279h395l95 -279h-158v-146h538v146h-135l-317 861h126v145h-661v-145h124l-306 -861h-142zM839 567h-312l149 439h17z" />
    <glyph glyph-name="uni0201" unicode="&#x201;" horiz-adv-x="934" 
d="M176 966h133l-117 324h-232zM503 966h133l-117 324h-232zM339 -22c114 0 188 30 257 88l11 -66h309v145h-126v387c0 200 -160 294 -360 294c-112 0 -256 -33 -347 -100l62 -130c90 54 208 78 274 78c103 0 166 -51 166 -155v-63c-64 13 -122 21 -183 21
c-188 0 -346 -72 -346 -258c0 -134 112 -241 283 -241zM373 113c-74 0 -121 47 -121 116c0 105 84 130 167 130c79 0 131 -11 166 -21v-145c-61 -52 -139 -80 -212 -80z" />
    <glyph glyph-name="uni0202" unicode="&#x202;" horiz-adv-x="1399" 
d="M410 1261h162c12 72 54 111 124 111c67 0 114 -39 123 -111h166c-15 159 -127 265 -289 265c-159 0 -274 -105 -286 -265zM44 146v-146h508v146h-159l92 279h395l95 -279h-158v-146h538v146h-135l-317 861h126v145h-661v-145h124l-306 -861h-142zM839 567h-312l149 439
h17z" />
    <glyph glyph-name="uni0203" unicode="&#x203;" horiz-adv-x="934" 
d="M144 913h162c12 72 54 111 124 111c67 0 114 -39 123 -111h166c-15 159 -127 265 -289 265c-159 0 -274 -105 -286 -265zM339 -22c114 0 188 30 257 88l11 -66h309v145h-126v387c0 200 -160 294 -360 294c-112 0 -256 -33 -347 -100l62 -130c90 54 208 78 274 78
c103 0 166 -51 166 -155v-63c-64 13 -122 21 -183 21c-188 0 -346 -72 -346 -258c0 -134 112 -241 283 -241zM373 113c-74 0 -121 47 -121 116c0 105 84 130 167 130c79 0 131 -11 166 -21v-145c-61 -52 -139 -80 -212 -80z" />
    <glyph glyph-name="uni0204" unicode="&#x204;" horiz-adv-x="1184" 
d="M933 360v-214h-490v379h316v-112h103v381h-103v-116h-316v329h488v-206h172v351h-1046v-145h155v-862h-155v-145h1049v360h-173zM363 1314h133l-117 324h-232zM690 1314h133l-117 324h-232z" />
    <glyph glyph-name="uni0205" unicode="&#x205;" horiz-adv-x="932" 
d="M499 -19c161 0 304 69 370 146l-73 119c-79 -64 -169 -110 -286 -110c-137 0 -239 93 -248 227h618c0 272 -163 463 -397 463c-257 0 -437 -175 -437 -426c0 -247 186 -419 453 -419zM265 483c18 115 107 196 218 196c104 0 184 -81 194 -196h-412zM220 966h133l-117 324
h-232zM547 966h133l-117 324h-232z" />
    <glyph glyph-name="uni0206" unicode="&#x206;" horiz-adv-x="1184" 
d="M933 360v-214h-490v379h316v-112h103v381h-103v-116h-316v329h488v-206h172v351h-1046v-145h155v-862h-155v-145h1049v360h-173zM331 1261h162c12 72 54 111 124 111c67 0 114 -39 123 -111h166c-15 159 -127 265 -289 265c-159 0 -274 -105 -286 -265z" />
    <glyph glyph-name="uni0207" unicode="&#x207;" horiz-adv-x="932" 
d="M499 -19c161 0 304 69 370 146l-73 119c-79 -64 -169 -110 -286 -110c-137 0 -239 93 -248 227h618c0 272 -163 463 -397 463c-257 0 -437 -175 -437 -426c0 -247 186 -419 453 -419zM265 483c18 115 107 196 218 196c104 0 184 -81 194 -196h-412zM188 913h162
c12 72 54 111 124 111c67 0 114 -39 123 -111h166c-15 159 -127 265 -289 265c-159 0 -274 -105 -286 -265z" />
    <glyph glyph-name="uni0208" unicode="&#x208;" horiz-adv-x="729" 
d="M107 1314h133l-117 324h-232zM434 1314h133l-117 324h-232zM94 145v-145h541v145h-155v862h155v145h-541v-145h155v-862h-155z" />
    <glyph glyph-name="uni0209" unicode="&#x209;" horiz-adv-x="665" 
d="M135 0h476v145h-128v659h-347v-145h142v-514h-143v-145zM87 966h133l-117 324h-232zM414 966h133l-117 324h-232z" />
    <glyph glyph-name="uni020A" unicode="&#x20a;" horiz-adv-x="729" 
d="M75 1261h162c12 72 54 111 124 111c67 0 114 -39 123 -111h166c-15 159 -127 265 -289 265c-159 0 -274 -105 -286 -265zM94 145v-145h541v145h-155v862h155v145h-541v-145h155v-862h-155z" />
    <glyph glyph-name="uni020B" unicode="&#x20b;" horiz-adv-x="665" 
d="M135 0h476v145h-128v659h-347v-145h142v-514h-143v-145zM56 913h162c12 72 54 111 124 111c67 0 114 -39 123 -111h166c-15 159 -127 265 -289 265c-159 0 -274 -105 -286 -265z" />
    <glyph glyph-name="uni020C" unicode="&#x20c;" horiz-adv-x="1457" 
d="M728 -22c366 0 640 253 640 595c0 344 -274 601 -641 601c-366 0 -638 -256 -638 -600c0 -343 273 -596 639 -596zM727 144c-224 0 -391 183 -391 429c0 251 167 437 392 437c224 0 391 -186 391 -436c0 -247 -168 -430 -392 -430zM466 1314h133l-117 324h-232zM793 1314
h133l-117 324h-232z" />
    <glyph glyph-name="uni020D" unicode="&#x20d;" 
d="M487 -22c261 0 445 176 445 427c0 247 -183 421 -443 421s-443 -174 -443 -421c0 -251 182 -427 441 -427zM488 138c-134 0 -228 109 -228 266c0 153 94 262 227 262c135 0 229 -108 229 -261c0 -157 -94 -267 -228 -267zM228 968h133l-117 324h-232zM555 968h133
l-117 324h-232z" />
    <glyph glyph-name="uni020E" unicode="&#x20e;" horiz-adv-x="1457" 
d="M728 -22c366 0 640 253 640 595c0 344 -274 601 -641 601c-366 0 -638 -256 -638 -600c0 -343 273 -596 639 -596zM727 144c-224 0 -391 183 -391 429c0 251 167 437 392 437c224 0 391 -186 391 -436c0 -247 -168 -430 -392 -430zM435 1261h162c12 72 54 111 124 111
c67 0 114 -39 123 -111h166c-15 159 -127 265 -289 265c-159 0 -274 -105 -286 -265z" />
    <glyph glyph-name="uni020F" unicode="&#x20f;" 
d="M487 -22c261 0 445 176 445 427c0 247 -183 421 -443 421s-443 -174 -443 -421c0 -251 182 -427 441 -427zM488 138c-134 0 -228 109 -228 266c0 153 94 262 227 262c135 0 229 -108 229 -261c0 -157 -94 -267 -228 -267zM196 915h162c12 72 54 111 124 111
c67 0 114 -39 123 -111h166c-15 159 -127 265 -289 265c-159 0 -274 -105 -286 -265z" />
    <glyph glyph-name="uni0210" unicode="&#x210;" horiz-adv-x="1272" 
d="M1068 146l-237 400c177 45 266 139 266 306c0 229 -180 300 -427 300h-613v-145h155v-862h-155v-145h541v145h-155v862h226c131 0 198 -62 198 -159c0 -92 -47 -178 -213 -178h-150v-149h110l292 -521h333v146h-171zM316 1314h133l-117 324h-232zM643 1314h133l-117 324
h-232z" />
    <glyph glyph-name="uni0211" unicode="&#x211;" horiz-adv-x="803" 
d="M398 661v143h-348v-145h143v-514h-143v-145h476v145h-128v275c0 137 82 211 181 211c48 0 99 -16 147 -49l49 187c-58 25 -116 43 -171 43c-81 0 -154 -39 -206 -151zM188 966h133l-117 324h-232zM515 966h133l-117 324h-232z" />
    <glyph glyph-name="uni0212" unicode="&#x212;" horiz-adv-x="1272" 
d="M1068 146l-237 400c177 45 266 139 266 306c0 229 -180 300 -427 300h-613v-145h155v-862h-155v-145h541v145h-155v862h226c131 0 198 -62 198 -159c0 -92 -47 -178 -213 -178h-150v-149h110l292 -521h333v146h-171zM285 1261h162c12 72 54 111 124 111
c67 0 114 -39 123 -111h166c-15 159 -127 265 -289 265c-159 0 -274 -105 -286 -265z" />
    <glyph glyph-name="uni0213" unicode="&#x213;" horiz-adv-x="803" 
d="M398 661v143h-348v-145h143v-514h-143v-145h476v145h-128v275c0 137 82 211 181 211c48 0 99 -16 147 -49l49 187c-58 25 -116 43 -171 43c-81 0 -154 -39 -206 -151zM157 913h162c12 72 54 111 124 111c67 0 114 -39 123 -111h166c-15 159 -127 265 -289 265
c-159 0 -274 -105 -286 -265z" />
    <glyph glyph-name="uni0214" unicode="&#x214;" horiz-adv-x="1332" 
d="M679 -19c277 0 468 133 468 443v583h156v145h-496v-145h153v-591c0 -174 -91 -270 -273 -270c-173 0 -262 97 -262 265v596h158v145h-541v-145h154v-564c0 -265 113 -462 483 -462zM436 1314h133l-117 324h-232zM763 1314h133l-117 324h-232z" />
    <glyph glyph-name="uni0215" unicode="&#x215;" horiz-adv-x="1065" 
d="M419 -19c99 0 193 40 280 114l4 -95h348v146h-147v658h-344v-145h139v-408c-62 -71 -143 -109 -223 -109c-88 0 -130 53 -130 155v507h-332v-145h126v-388c0 -178 91 -290 279 -290zM238 966h133l-117 324h-232zM565 966h133l-117 324h-232z" />
    <glyph glyph-name="uni0216" unicode="&#x216;" horiz-adv-x="1332" 
d="M679 -19c277 0 468 133 468 443v583h156v145h-496v-145h153v-591c0 -174 -91 -270 -273 -270c-173 0 -262 97 -262 265v596h158v145h-541v-145h154v-564c0 -265 113 -462 483 -462zM405 1261h162c12 72 54 111 124 111c67 0 114 -39 123 -111h166
c-15 159 -127 265 -289 265c-159 0 -274 -105 -286 -265z" />
    <glyph glyph-name="uni0217" unicode="&#x217;" horiz-adv-x="1065" 
d="M419 -19c99 0 193 40 280 114l4 -95h348v146h-147v658h-344v-145h139v-408c-62 -71 -143 -109 -223 -109c-88 0 -130 53 -130 155v507h-332v-145h126v-388c0 -178 91 -290 279 -290zM206 913h162c12 72 54 111 124 111c67 0 114 -39 123 -111h166
c-15 159 -127 265 -289 265c-159 0 -274 -105 -286 -265z" />
    <glyph glyph-name="uni0218" unicode="&#x218;" horiz-adv-x="1048" 
d="M476 -539c167 0 252 74 251 222c0 6 -1 216 -2 221h-250v-225h141c0 -80 -52 -113 -140 -130v-88zM592 -19c217 0 394 131 393 341c0 252 -163 319 -408 367c-172 33 -248 76 -248 180c0 91 65 149 194 149c96 0 169 -31 225 -99v-100h174v338h-174v-75
c-63 59 -150 92 -248 92c-226 0 -379 -111 -379 -315c0 -239 170 -311 410 -354c167 -29 234 -79 234 -197c0 -98 -70 -169 -192 -169c-115 0 -228 68 -268 128v126h-176v-394h176v94c77 -68 175 -112 287 -112z" />
    <glyph glyph-name="uni0219" unicode="&#x219;" horiz-adv-x="876" 
d="M365 -539c167 0 252 74 251 222c0 6 -1 216 -2 221h-250v-225h141c0 -80 -52 -113 -140 -130v-88zM511 -20c147 0 297 69 303 228c7 187 -118 236 -268 274l-92 23c-112 29 -142 49 -142 98c0 52 61 77 132 77c67 0 147 -23 188 -67l17 -89h141v286h-160v-54
c-52 46 -145 70 -225 70c-173 0 -300 -88 -300 -228c0 -168 92 -217 252 -258l108 -26c106 -26 151 -41 151 -108c0 -59 -61 -88 -135 -88c-84 0 -183 36 -223 103l-10 77h-138v-298h154v63c56 -54 152 -83 247 -83z" />
    <glyph glyph-name="uni021A" unicode="&#x21a;" horiz-adv-x="1158" 
d="M49 1152v-418h166v273h256v-862h-155v-145h540v145h-155v862h242v-273h166v418h-1060zM473 -539c167 0 252 74 251 222c0 6 -1 216 -2 221h-250v-225h141c0 -80 -52 -113 -140 -130v-88z" />
    <glyph glyph-name="uni021B" unicode="&#x21b;" horiz-adv-x="644" 
d="M391 0h190v145h-145c-52 0 -67 33 -67 113v401h204v145h-204v351l-204 -77v-274h-126v-145h124v-411c0 -160 69 -248 228 -248zM277 -539c167 0 252 74 251 222c0 6 -1 216 -2 221h-250v-225h141c0 -80 -52 -113 -140 -130v-88z" />
    <glyph glyph-name="uni021E" unicode="&#x21e;" horiz-adv-x="1412" 
d="M1354 1007v145h-540v-145h155v-332h-526v332h155v145h-541v-145h155v-862h-155v-145h541v145h-155v373h526v-373h-155v-145h540v145h-155v862h155zM615 1261h208l157 313h-142l-118 -206l-124 206h-143z" />
    <glyph glyph-name="uni021F" unicode="&#x21f;" horiz-adv-x="1116" 
d="M971 145v397c0 187 -129 284 -274 284c-106 0 -202 -48 -291 -114v462h-355v-145h148v-884h-149v-145h479v145h-123v435c66 49 148 85 229 85s131 -60 131 -173v-347h-113v-145h462v145h-144zM562 1199h208l157 313h-142l-118 -206l-124 206h-143z" />
    <glyph glyph-name="uni0226" unicode="&#x226;" horiz-adv-x="1399" 
d="M702 1314c81 0 143 58 143 135c0 74 -62 133 -143 133c-79 0 -141 -59 -141 -133c0 -77 62 -135 141 -135zM44 146v-146h508v146h-159l92 279h395l95 -279h-158v-146h538v146h-135l-317 861h126v145h-661v-145h124l-306 -861h-142zM839 567h-312l149 439h17z" />
    <glyph glyph-name="uni0227" unicode="&#x227;" horiz-adv-x="934" 
d="M436 966c81 0 143 58 143 135c0 74 -62 133 -143 133c-79 0 -141 -59 -141 -133c0 -77 62 -135 141 -135zM339 -22c114 0 188 30 257 88l11 -66h309v145h-126v387c0 200 -160 294 -360 294c-112 0 -256 -33 -347 -100l62 -130c90 54 208 78 274 78
c103 0 166 -51 166 -155v-63c-64 13 -122 21 -183 21c-188 0 -346 -72 -346 -258c0 -134 112 -241 283 -241zM373 113c-74 0 -121 47 -121 116c0 105 84 130 167 130c79 0 131 -11 166 -21v-145c-61 -52 -139 -80 -212 -80z" />
    <glyph glyph-name="uni0228" unicode="&#x228;" horiz-adv-x="1184" 
d="M629 -390c92 0 165 37 165 135c0 63 -49 124 -155 137l28 123h-87l-65 -172c77 -7 116 -31 116 -70c0 -41 -31 -57 -78 -57c-38 0 -86 11 -133 26v-74c67 -30 143 -48 209 -48zM933 360v-214h-490v379h316v-112h103v381h-103v-116h-316v329h488v-206h172v351h-1046v-145
h155v-862h-155v-145h1049v360h-173z" />
    <glyph glyph-name="uni0229" unicode="&#x229;" horiz-adv-x="932" 
d="M484 -390c92 0 165 37 165 135c0 63 -49 124 -155 137l28 123h-87l-65 -172c77 -7 116 -31 116 -70c0 -41 -31 -57 -78 -57c-38 0 -86 11 -133 26v-74c67 -30 143 -48 209 -48zM499 -19c161 0 304 69 370 146l-73 119c-79 -64 -169 -110 -286 -110
c-137 0 -239 93 -248 227h618c0 272 -163 463 -397 463c-257 0 -437 -175 -437 -426c0 -247 186 -419 453 -419zM265 483c18 115 107 196 218 196c104 0 184 -81 194 -196h-412z" />
    <glyph glyph-name="uni022E" unicode="&#x22e;" horiz-adv-x="1457" 
d="M727 1314c81 0 143 58 143 135c0 74 -62 133 -143 133c-79 0 -141 -59 -141 -133c0 -77 62 -135 141 -135zM728 -22c366 0 640 253 640 595c0 344 -274 601 -641 601c-366 0 -638 -256 -638 -600c0 -343 273 -596 639 -596zM727 144c-224 0 -391 183 -391 429
c0 251 167 437 392 437c224 0 391 -186 391 -436c0 -247 -168 -430 -392 -430z" />
    <glyph glyph-name="uni022F" unicode="&#x22f;" 
d="M487 -22c261 0 445 176 445 427c0 247 -183 421 -443 421s-443 -174 -443 -421c0 -251 182 -427 441 -427zM488 138c-134 0 -228 109 -228 266c0 153 94 262 227 262c135 0 229 -108 229 -261c0 -157 -94 -267 -228 -267zM488 968c81 0 143 58 143 135
c0 74 -62 133 -143 133c-79 0 -141 -59 -141 -133c0 -77 62 -135 141 -135z" />
    <glyph glyph-name="uni0232" unicode="&#x232;" horiz-adv-x="1322" 
d="M432 1302h461v121h-461v-121zM381 146v-146h570v146h-172v360l349 501h159v145h-500v-145h140l-240 -361l-255 361h142v145h-542v-145h152l365 -502v-359h-168z" />
    <glyph glyph-name="uni0233" unicode="&#x233;" horiz-adv-x="1067" 
d="M300 954h461v121h-461v-121zM193 -200v-162h119c237 0 267 116 353 332l274 689h130v145h-457v-145h124l-178 -469l-209 469h106v145h-452v-145h140l289 -612h77l-32 -103c-44 -133 -93 -144 -185 -144h-99z" />
    <glyph glyph-name="uni0237" unicode="&#x237;" horiz-adv-x="562" 
d="M3 -342h97c320 0 340 173 340 402v744h-374v-145h166v-666c0 -124 -31 -173 -136 -173h-93v-162z" />
    <glyph glyph-name="uni0259" unicode="&#x259;" horiz-adv-x="600" 
 />
    <glyph glyph-name="uni02BC" unicode="&#x2bc;" horiz-adv-x="600" 
d="M79 897c167 0 252 74 251 222c0 6 -1 216 -2 221h-250v-225h141c0 -80 -52 -113 -140 -130v-88z" />
    <glyph glyph-name="circumflex" unicode="&#x2c6;" horiz-adv-x="638" 
d="M37 915h148l132 252l132 -252h152l-164 332h-241z" />
    <glyph glyph-name="caron" unicode="&#x2c7;" horiz-adv-x="608" 
d="M201 913h208l157 313h-142l-118 -206l-124 206h-143z" />
    <glyph glyph-name="uni02C9" unicode="&#x2c9;" horiz-adv-x="600" 
d="M65 943h457v125h-457v-125z" />
    <glyph glyph-name="breve" unicode="&#x2d8;" horiz-adv-x="596" 
d="M297 914c152 0 256 97 270 245h-138c-10 -76 -60 -121 -132 -121c-76 0 -121 45 -134 121h-134c11 -149 119 -245 268 -245z" />
    <glyph glyph-name="dotaccent" unicode="&#x2d9;" horiz-adv-x="337" 
d="M173 966c81 0 143 58 143 135c0 74 -62 133 -143 133c-79 0 -141 -59 -141 -133c0 -77 62 -135 141 -135z" />
    <glyph glyph-name="ring" unicode="&#x2da;" horiz-adv-x="506" 
d="M252 966c-60 0 -94 43 -94 91c0 49 34 91 94 91c61 0 96 -42 96 -91c0 -48 -35 -91 -96 -91zM252 886c115 0 184 81 184 173c0 90 -66 168 -184 168c-116 0 -183 -78 -183 -168c0 -92 69 -173 183 -173z" />
    <glyph glyph-name="ogonek" unicode="&#x2db;" horiz-adv-x="467" 
d="M296 -357c47 0 80 10 136 37v106c-32 -14 -56 -19 -86 -19c-66 0 -100 36 -100 107c0 42 10 86 46 135h-114c-50 -77 -63 -136 -63 -189c0 -104 75 -177 181 -177z" />
    <glyph glyph-name="tilde" unicode="&#x2dc;" horiz-adv-x="661" 
d="M474 908c112 -1 163 101 172 219h-83c-10 -44 -36 -66 -75 -66c-66 0 -202 72 -282 72c-95 0 -169 -59 -182 -215h85c8 42 31 62 68 62c74 0 204 -72 297 -72z" />
    <glyph glyph-name="hungarumlaut" unicode="&#x2dd;" horiz-adv-x="783" 
d="M99 966h133l216 324h-232zM426 966h133l216 324h-232z" />
    <glyph glyph-name="uni0307" unicode="&#x307;" horiz-adv-x="535" 
d="M268 923c75 0 121 54 120 115c0 72 -55 114 -120 114s-121 -48 -120 -114c0 -64 56 -115 120 -115z" />
    <glyph glyph-name="uni030F" unicode="&#x30f;" horiz-adv-x="687" 
d="M192 966h133l-117 324h-232zM519 966h133l-117 324h-232z" />
    <glyph glyph-name="uni0311" unicode="&#x311;" horiz-adv-x="584" 
d="M-2 955h162c12 72 54 111 124 111c67 0 114 -39 123 -111h166c-15 159 -127 265 -289 265c-159 0 -274 -105 -286 -265z" />
    <glyph glyph-name="uni0312" unicode="&#x312;" horiz-adv-x="600" 
d="M88 904h251v227h-141c0 80 52 113 141 130v89c-167 -1 -253 -74 -252 -223c0 -6 0 -218 1 -223z" />
    <glyph glyph-name="uni0326" unicode="&#x326;" horiz-adv-x="369" 
d="M89 -539c167 0 252 74 251 222c0 6 -1 216 -2 221h-250v-225h141c0 -80 -52 -113 -140 -130v-88z" />
    <glyph glyph-name="uni0358" unicode="&#x358;" horiz-adv-x="353" 
d="M175 966c81 0 143 58 143 135c0 74 -62 133 -143 133c-79 0 -141 -59 -141 -133c0 -77 62 -135 141 -135z" />
    <glyph glyph-name="uni0394" unicode="&#x394;" horiz-adv-x="1171" 
d="M82 0h1006v92l-408 1060h-189l-409 -1060v-92zM272 150l286 785l273 -785h-559z" />
    <glyph glyph-name="Sigma" unicode="&#x3a3;" horiz-adv-x="983" 
d="M70 0h854v164h-558l403 404l-394 426h515v158h-803v-102l402 -478l-419 -464v-108z" />
    <glyph glyph-name="uni03A9" unicode="&#x3a9;" horiz-adv-x="1430" 
d="M100 0h540v138c-214 90 -309 290 -309 474c0 208 131 393 384 393c251 0 382 -186 382 -394c0 -183 -93 -383 -307 -473v-138h539v146h-284c196 119 284 299 284 475c0 283 -229 553 -614 553c-383 0 -615 -271 -615 -555c0 -175 89 -354 285 -473h-285v-146z" />
    <glyph glyph-name="uni03BC" unicode="&#x3bc;" horiz-adv-x="1065" 
d="M140 -262h206v680h-206v-680zM419 -19c99 0 193 40 280 114l4 -95h348v146h-147v658h-344v-145h139v-408c-62 -71 -143 -109 -223 -109c-88 0 -130 53 -130 155v507h-332v-145h126v-388c0 -178 91 -290 279 -290z" />
    <glyph glyph-name="pi" unicode="&#x3c0;" horiz-adv-x="1197" 
d="M903 -18c60 0 123 18 170 49v101c-38 -11 -74 -18 -105 -18c-64 0 -110 29 -110 114c0 82 5 220 17 371h208v205h-695c-184 0 -261 -140 -260 -305h96c9 59 41 100 99 100h73l-50 -303c-27 -165 -120 -210 -189 -212v-84h109c160 0 242 78 252 244l21 355h221
c-44 -151 -85 -292 -85 -404c0 -127 56 -213 228 -213z" />
    <glyph glyph-name="uni1E02" unicode="&#x1e02;" horiz-adv-x="1154" 
d="M503 1314c81 0 143 58 143 135c0 74 -62 133 -143 133c-79 0 -141 -59 -141 -133c0 -77 62 -135 141 -135zM57 0h565c366 0 467 174 467 333c0 140 -88 243 -234 284c106 42 178 126 178 248c0 185 -146 287 -424 287h-552v-145h155v-862h-155v-145zM442 146v386h144
c185 0 266 -76 266 -190c0 -125 -67 -196 -271 -196h-139zM442 681v326h98c189 0 261 -38 261 -154c0 -112 -70 -172 -241 -172h-118z" />
    <glyph glyph-name="uni1E03" unicode="&#x1e03;" horiz-adv-x="1091" 
d="M674 966c81 0 143 58 143 135c0 74 -62 133 -143 133c-79 0 -141 -59 -141 -133c0 -77 62 -135 141 -135zM404 744v430h-357v-145h150v-884h-152v-145h359v53c68 -50 149 -74 230 -74c205 0 411 154 411 436c0 268 -179 410 -383 410c-87 0 -178 -27 -258 -81zM404 190
v408c62 48 130 72 192 72c131 0 232 -97 232 -268c0 -184 -112 -273 -241 -273c-60 0 -125 20 -183 61z" />
    <glyph glyph-name="uni1E0A" unicode="&#x1e0a;" horiz-adv-x="1398" 
d="M592 1314c81 0 143 58 143 135c0 74 -62 133 -143 133c-79 0 -141 -59 -141 -133c0 -77 62 -135 141 -135zM57 1152v-145h158v-861h-158v-146h612c426 0 640 217 640 594c0 296 -206 558 -639 558h-613zM445 146v861h214c291 0 412 -195 412 -419
c0 -267 -117 -442 -420 -442h-206z" />
    <glyph glyph-name="uni1E0B" unicode="&#x1e0b;" horiz-adv-x="1072" 
d="M321 966c81 0 143 58 143 135c0 74 -62 133 -143 133c-79 0 -141 -59 -141 -133c0 -77 62 -135 141 -135zM902 145v1029h-356v-145h149v-275c-76 47 -162 71 -247 71c-207 0 -394 -142 -394 -423c0 -273 195 -424 409 -424c79 0 159 22 232 66v-44h327v145h-120zM271 390
c0 193 97 282 227 282c62 0 130 -20 197 -58v-431c-61 -34 -126 -51 -185 -51c-131 0 -239 84 -239 258z" />
    <glyph glyph-name="uni1E1E" unicode="&#x1e1e;" horiz-adv-x="1094" 
d="M57 1152v-145h155v-862h-155v-145h541v145h-155v380h277v-112h107v375h-107v-112h-277v331h455v-204h173v349h-1014zM604 1314c81 0 143 58 143 135c0 74 -62 133 -143 133c-79 0 -141 -59 -141 -133c0 -77 62 -135 141 -135z" />
    <glyph glyph-name="uni1E1F" unicode="&#x1e1f;" horiz-adv-x="727" 
d="M71 146v-146h586v146h-215v513h200v145h-200v140c0 109 33 149 89 149c66 0 81 -48 92 -117l159 42c-11 167 -131 216 -261 216c-205 0 -286 -123 -286 -292v-138h-159v-145h159v-513h-164zM373 1302c81 0 143 58 143 135c0 74 -62 133 -143 133
c-79 0 -141 -59 -141 -133c0 -77 62 -135 141 -135z" />
    <glyph glyph-name="uni1E40" unicode="&#x1e40;" horiz-adv-x="1741" 
d="M870 1314c81 0 143 58 143 135c0 74 -62 133 -143 133c-79 0 -141 -59 -141 -133c0 -77 62 -135 141 -135zM57 146v-146h470v146h-147v846l422 -953h82l424 954v-847h-148v-146h527v146h-159v861h158v145h-494l-319 -734l-328 734h-488v-145h158v-861h-158z" />
    <glyph glyph-name="uni1E41" unicode="&#x1e41;" horiz-adv-x="1651" 
d="M886 966c81 0 143 58 143 135c0 74 -62 133 -143 133c-79 0 -141 -59 -141 -133c0 -77 62 -135 141 -135zM1504 145v397c1 187 -129 284 -275 284c-117 0 -222 -58 -318 -135c-48 90 -140 135 -240 135c-99 0 -188 -40 -271 -99v77h-350v-145h143v-514h-143v-145h478v145
h-128v450c62 41 136 70 208 70c82 0 131 -60 131 -173v-347h-113v-145h464v145h-145v397c0 15 0 29 -2 43c66 46 145 80 224 80c81 0 131 -60 131 -173v-347h-113v-145h464v145h-145z" />
    <glyph glyph-name="uni1E56" unicode="&#x1e56;" horiz-adv-x="1134" 
d="M565 1314c81 0 143 58 143 135c0 74 -62 133 -143 133c-79 0 -141 -59 -141 -133c0 -77 62 -135 141 -135zM513 610v-144h79c339 0 505 118 505 348c0 225 -165 338 -481 338h-559v-145h155v-862h-155v-145h541v145h-155v862h199c141 0 218 -66 218 -193
c0 -134 -92 -204 -274 -204h-73z" />
    <glyph glyph-name="uni1E57" unicode="&#x1e57;" horiz-adv-x="1059" 
d="M574 966c81 0 143 58 143 135c0 74 -62 133 -143 133c-79 0 -141 -59 -141 -133c0 -77 62 -135 141 -135zM371 746l-3 58h-341v-145h147v-839h-147v-145h521v145h-169v226c66 -45 143 -67 220 -67c205 0 411 154 411 436c0 268 -179 410 -383 410
c-87 0 -176 -26 -256 -79zM379 183l-1 422c60 44 124 65 183 65c131 0 232 -97 232 -268c0 -184 -112 -273 -241 -273c-57 0 -118 18 -173 54z" />
    <glyph glyph-name="uni1E60" unicode="&#x1e60;" horiz-adv-x="1048" 
d="M552 1314c81 0 143 58 143 135c0 74 -62 133 -143 133c-79 0 -141 -59 -141 -133c0 -77 62 -135 141 -135zM592 -19c217 0 394 131 393 341c0 252 -163 319 -408 367c-172 33 -248 76 -248 180c0 91 65 149 194 149c96 0 169 -31 225 -99v-100h174v338h-174v-75
c-63 59 -150 92 -248 92c-226 0 -379 -111 -379 -315c0 -239 170 -311 410 -354c167 -29 234 -79 234 -197c0 -98 -70 -169 -192 -169c-115 0 -228 68 -268 128v126h-176v-394h176v94c77 -68 175 -112 287 -112z" />
    <glyph glyph-name="uni1E61" unicode="&#x1e61;" horiz-adv-x="877" 
d="M429 966c81 0 143 58 143 135c0 74 -62 133 -143 133c-79 0 -141 -59 -141 -133c0 -77 62 -135 141 -135zM511 -20c147 0 297 69 303 228c7 187 -118 236 -268 274l-92 23c-112 29 -142 49 -142 98c0 52 61 77 132 77c67 0 147 -23 188 -67l17 -89h141v286h-160v-54
c-52 46 -145 70 -225 70c-173 0 -300 -88 -300 -228c0 -168 92 -217 252 -258l108 -26c106 -26 151 -41 151 -108c0 -59 -61 -88 -135 -88c-84 0 -183 36 -223 103l-10 77h-138v-298h154v63c56 -54 152 -83 247 -83z" />
    <glyph glyph-name="uni1E6A" unicode="&#x1e6a;" horiz-adv-x="1158" 
d="M583 1314c81 0 143 58 143 135c0 74 -62 133 -143 133c-79 0 -141 -59 -141 -133c0 -77 62 -135 141 -135zM49 1152v-418h166v273h256v-862h-155v-145h540v145h-155v862h242v-273h166v418h-1060z" />
    <glyph glyph-name="uni1E6B" unicode="&#x1e6b;" horiz-adv-x="644" 
d="M277 1261c81 0 143 58 143 135c0 74 -62 133 -143 133c-79 0 -141 -59 -141 -133c0 -77 62 -135 141 -135zM391 0h190v145h-145c-52 0 -67 33 -67 113v401h204v145h-204v351l-204 -77v-274h-126v-145h124v-411c0 -160 69 -248 228 -248z" />
    <glyph glyph-name="Wgrave" unicode="&#x1e80;" horiz-adv-x="1869" 
d="M893 1314h133l-116 324h-233zM184 1007l305 -1007h182l267 800l271 -800h185l294 1007h143v145h-466v-145h144l-194 -712l-283 855h-152l-280 -855l-198 712h142v145h-505v-145h145z" />
    <glyph glyph-name="wgrave" unicode="&#x1e81;" horiz-adv-x="1423" 
d="M107 659l242 -659h192l175 493l178 -493h188l231 659h98v145h-372v-145h97l-143 -458l-162 458h99v145h-414v-145h100l-155 -454l-153 454h86v145h-382v-145h95zM662 966h133l-116 324h-233z" />
    <glyph glyph-name="Wacute" unicode="&#x1e82;" horiz-adv-x="1869" 
d="M184 1007l305 -1007h182l267 800l271 -800h185l294 1007h143v145h-466v-145h144l-194 -712l-283 855h-152l-280 -855l-198 712h142v145h-505v-145h145zM892 1314h134l216 324h-233z" />
    <glyph glyph-name="wacute" unicode="&#x1e83;" horiz-adv-x="1423" 
d="M107 659l242 -659h192l175 493l178 -493h188l231 659h98v145h-372v-145h97l-143 -458l-162 458h99v145h-414v-145h100l-155 -454l-153 454h86v145h-382v-145h95zM663 966h134l216 324h-233z" />
    <glyph glyph-name="Wdieresis" unicode="&#x1e84;" horiz-adv-x="1869" 
d="M184 1007l305 -1007h182l267 800l271 -800h185l294 1007h143v145h-466v-145h144l-194 -712l-283 855h-152l-280 -855l-198 712h142v145h-505v-145h145zM742 1277c73 0 120 46 120 115s-49 114 -120 114s-119 -46 -119 -114c0 -69 49 -115 119 -115zM1179 1277
c73 0 120 46 120 115s-49 114 -120 114s-119 -46 -119 -114c0 -69 48 -115 119 -115z" />
    <glyph glyph-name="wdieresis" unicode="&#x1e85;" horiz-adv-x="1423" 
d="M107 659l242 -659h192l175 493l178 -493h188l231 659h98v145h-372v-145h97l-143 -458l-162 458h99v145h-414v-145h100l-155 -454l-153 454h86v145h-382v-145h95zM511 929c73 0 120 46 120 115s-49 114 -120 114s-119 -46 -119 -114c0 -69 49 -115 119 -115zM948 929
c73 0 120 46 120 115s-49 114 -120 114s-119 -46 -119 -114c0 -69 48 -115 119 -115z" />
    <glyph glyph-name="uni1EBC" unicode="&#x1ebc;" horiz-adv-x="1184" 
d="M758 1256c112 -1 163 101 172 219h-83c-10 -44 -36 -66 -75 -66c-66 0 -202 72 -282 72c-95 0 -169 -59 -182 -215h85c8 42 31 62 68 62c74 0 204 -72 297 -72zM933 360v-214h-490v379h316v-112h103v381h-103v-116h-316v329h488v-206h172v351h-1046v-145h155v-862h-155
v-145h1049v360h-173z" />
    <glyph glyph-name="uni1EBD" unicode="&#x1ebd;" horiz-adv-x="932" 
d="M614 908c112 -1 163 101 172 219h-83c-10 -44 -36 -66 -75 -66c-66 0 -202 72 -282 72c-95 0 -169 -59 -182 -215h85c8 42 31 62 68 62c74 0 204 -72 297 -72zM499 -19c161 0 304 69 370 146l-73 119c-79 -64 -169 -110 -286 -110c-137 0 -239 93 -248 227h618
c0 272 -163 463 -397 463c-257 0 -437 -175 -437 -426c0 -247 186 -419 453 -419zM265 483c18 115 107 196 218 196c104 0 184 -81 194 -196h-412z" />
    <glyph glyph-name="Ygrave" unicode="&#x1ef2;" horiz-adv-x="1322" 
d="M608 1314h133l-116 324h-233zM381 146v-146h570v146h-172v360l349 501h159v145h-500v-145h140l-240 -361l-255 361h142v145h-542v-145h152l365 -502v-359h-168z" />
    <glyph glyph-name="ygrave" unicode="&#x1ef3;" horiz-adv-x="1067" 
d="M476 966h133l-116 324h-233zM193 -200v-162h119c237 0 267 116 353 332l274 689h130v145h-457v-145h124l-178 -469l-209 469h106v145h-452v-145h140l289 -612h77l-32 -103c-44 -133 -93 -144 -185 -144h-99z" />
    <glyph glyph-name="uni1EF8" unicode="&#x1ef8;" horiz-adv-x="1322" 
d="M811 1256c112 -1 163 101 172 219h-83c-10 -44 -36 -66 -75 -66c-66 0 -202 72 -282 72c-95 0 -169 -59 -182 -215h85c8 42 31 62 68 62c74 0 204 -72 297 -72zM381 146v-146h570v146h-172v360l349 501h159v145h-500v-145h140l-240 -361l-255 361h142v145h-542v-145h152
l365 -502v-359h-168z" />
    <glyph glyph-name="uni1EF9" unicode="&#x1ef9;" horiz-adv-x="1067" 
d="M679 908c112 -1 163 101 172 219h-83c-10 -44 -36 -66 -75 -66c-66 0 -202 72 -282 72c-95 0 -169 -59 -182 -215h85c8 42 31 62 68 62c74 0 204 -72 297 -72zM193 -200v-162h119c237 0 267 116 353 332l274 689h130v145h-457v-145h124l-178 -469l-209 469h106v145h-452
v-145h140l289 -612h77l-32 -103c-44 -133 -93 -144 -185 -144h-99z" />
    <glyph glyph-name="endash" unicode="&#x2013;" horiz-adv-x="1197" 
d="M163 210h873v125h-873v-125z" />
    <glyph glyph-name="emdash" unicode="&#x2014;" horiz-adv-x="2030" 
d="M163 208h1704v125h-1704v-125z" />
    <glyph glyph-name="uni2015" unicode="&#x2015;" horiz-adv-x="1225" 
d="M0 787h1225v107h-1225v-107z" />
    <glyph glyph-name="quoteleft" unicode="&#x2018;" horiz-adv-x="523" 
d="M138 775h210v221h-97c1 90 27 121 98 134v99c-159 -1 -211 -91 -211 -237v-217z" />
    <glyph glyph-name="quoteright" unicode="&#x2019;" horiz-adv-x="524" 
d="M178 755c159 2 210 93 210 239v217h-210v-220h99c-3 -92 -27 -123 -99 -136v-100z" />
    <glyph glyph-name="quotesinglbase" unicode="&#x201a;" horiz-adv-x="520" 
d="M175 -246c159 2 211 93 211 238v217h-211v-220h99c-3 -92 -27 -123 -99 -136v-99z" />
    <glyph glyph-name="quotedblleft" unicode="&#x201c;" horiz-adv-x="862" 
d="M160 775h211v221h-97c1 90 26 121 98 134v99c-159 -1 -212 -91 -212 -237v-217zM474 775h209v221h-96c1 90 27 121 98 134v99c-159 -1 -211 -91 -211 -237v-217z" />
    <glyph glyph-name="quotedblright" unicode="&#x201d;" horiz-adv-x="862" 
d="M178 755c159 2 210 93 210 239v217h-210v-220h99c-3 -92 -27 -123 -99 -136v-100zM485 755c159 2 210 93 210 239v217h-210v-220h99c-3 -92 -27 -123 -99 -136v-100z" />
    <glyph glyph-name="quotedblbase" unicode="&#x201e;" horiz-adv-x="912" 
d="M177 -246c159 2 210 93 210 238v217h-210v-220h98c-2 -92 -26 -123 -98 -136v-99zM540 -246c160 2 211 93 211 238v217h-210v-220h98c-2 -92 -26 -123 -99 -136v-99z" />
    <glyph glyph-name="dagger" unicode="&#x2020;" horiz-adv-x="833" 
d="M370 -227h88c0 384 41 626 81 803l-81 189l299 -47v195l-299 -44l64 366h-212l60 -366l-298 44v-195l298 47l-77 -189c37 -180 77 -423 77 -803z" />
    <glyph glyph-name="daggerdbl" unicode="&#x2021;" horiz-adv-x="787" 
d="M289 -227h213l-64 264l298 -43v195l-278 -48l-13 365l13 359l278 -47v194l-298 -43l64 264h-213l61 -264l-298 43v-194l278 47l12 -357l-12 -367l-278 48v-195l298 43z" />
    <glyph glyph-name="bullet" unicode="&#x2022;" horiz-adv-x="559" 
d="M280 368c112 0 201 87 201 194c0 108 -89 192 -201 192s-200 -84 -200 -192c0 -106 88 -194 200 -194z" />
    <glyph glyph-name="ellipsis" unicode="&#x2026;" horiz-adv-x="1622" 
d="M663 0h251v243h-251v-243zM1163 0h251v243h-251v-243zM163 0h251v243h-251v-243z" />
    <glyph glyph-name="perthousand" unicode="&#x2030;" horiz-adv-x="2501" 
d="M2086 96c-98 1 -172 78 -172 184c0 104 74 180 172 181c99 -1 173 -77 173 -181c0 -106 -74 -183 -173 -184zM2086 -22c180 0 314 129 314 302c0 170 -134 297 -314 297s-312 -127 -312 -297c0 -173 132 -302 312 -302zM426 695c-98 2 -171 79 -171 184
c0 104 73 181 171 182c100 -1 174 -78 174 -182c0 -105 -74 -182 -174 -184zM426 578c180 0 314 128 314 301c0 171 -134 298 -314 298c-179 0 -312 -127 -312 -298c0 -173 133 -301 312 -301zM423 -70l1025 1235l-96 81l-1029 -1229zM1349 96c-98 1 -172 78 -172 184
c0 104 74 180 172 181c99 -1 173 -77 173 -181c0 -106 -74 -183 -173 -184zM1349 -22c180 0 313 129 313 302c0 170 -133 297 -313 297s-312 -127 -312 -297c0 -173 132 -302 312 -302z" />
    <glyph glyph-name="guilsinglleft" unicode="&#x2039;" horiz-adv-x="641" 
d="M351 140h152l-209 413l209 414h-152l-314 -415z" />
    <glyph glyph-name="guilsinglright" unicode="&#x203a;" horiz-adv-x="641" 
d="M140 140h152l314 415l-314 412h-152l209 -413z" />
    <glyph glyph-name="fraction" unicode="&#x2044;" horiz-adv-x="724" 
d="M-120 -53h133l821 1302h-130z" />
    <glyph glyph-name="uni2074" unicode="&#x2074;" horiz-adv-x="988" 
d="M320.99 529h345.77v103.66h-97.2695v136.32h124.25v100.109h-124.25v477.83h-134.9l-350.74 -462.21l14.2002 -115.729h335.12v-136.32h-112.18v-103.66zM213.78 869.09l219.39 308.851v-308.851h-219.39z" />
    <glyph glyph-name="Euro" unicode="&#x20ac;" horiz-adv-x="1352" 
d="M-24 395h633l40 121h-406v118h366l40 121h-633l-40 -121h195v-118h-155zM703 -22c250 2 470 93 554 368l-171 77c-49 -200 -201 -279 -368 -279c-248 0 -397 187 -397 435c0 252 161 429 398 429c147 0 274 -60 349 -223h155v370h-162v-120c-83 80 -202 139 -357 139
c-374 0 -615 -245 -615 -599c0 -327 216 -595 614 -597z" />
    <glyph glyph-name="uni2113" unicode="&#x2113;" horiz-adv-x="706" 
d="M591 -8l22 148c-183 0 -208 37 -183 205l135 867h-361l-24 -149h152l-124 -791c-35 -227 132 -282 383 -280z" />
    <glyph glyph-name="trademark" unicode="&#x2122;" horiz-adv-x="1831" 
d="M801 484h266v98h-80v429l216 -524h53l210 525v-430h-79v-98h290v98h-85v472h85v98h-270l-175 -448l-171 448h-260v-98h85v-472h-85v-98zM280 484h327v98h-96v472h119v-164h102v262h-579v-262h102v164h122v-472h-97v-98z" />
    <glyph glyph-name="Omega" unicode="&#x2126;" horiz-adv-x="1430" 
d="M100 0h540v138c-214 90 -309 290 -309 474c0 208 131 393 384 393c251 0 382 -186 382 -394c0 -183 -93 -383 -307 -473v-138h539v146h-284c196 119 284 299 284 475c0 283 -229 553 -614 553c-383 0 -615 -271 -615 -555c0 -175 89 -354 285 -473h-285v-146z" />
    <glyph glyph-name="estimated" unicode="&#x212e;" horiz-adv-x="1118" 
d="M976 116l-26 33c-325 -217 -581 -92 -607 252h624c0 269 -105 425 -387 425c-268 0 -446 -149 -446 -406c0 -464 542 -553 842 -304zM346 461c8 433 509 459 509 0h-509z" />
    <glyph glyph-name="partialdiff" unicode="&#x2202;" horiz-adv-x="1005" 
d="M401 -19c361 0 491 442 491 740c0 320 -133 513 -396 513c-168 0 -263 -74 -263 -180c0 -64 51 -122 190 -121c0 86 56 190 165 190c150 0 212 -356 188 -515l25 6c-30 82 -103 150 -240 150c-329 0 -454 -307 -454 -487c0 -153 74 -296 294 -296zM493 96
c-78 0 -122 65 -122 169c0 145 76 393 247 393c66 0 123 -37 147 -127c-33 -223 -148 -435 -272 -435z" />
    <glyph glyph-name="emptyset" unicode="&#x2205;" horiz-adv-x="1349" 
d="M241 -64l114 135c91 -60 201 -93 319 -93c304 0 552 244 552 547c0 151 -61 286 -159 385l115 135l-68 59l-115 -136c-92 65 -204 105 -325 105c-302 0 -551 -221 -551 -548c0 -168 63 -306 165 -401l-110 -131zM358 207c-77 77 -122 188 -122 317c0 259 189 447 438 447
c97 0 186 -32 257 -84zM673 80c-94 0 -179 25 -249 72l573 675c73 -81 117 -188 117 -303c0 -237 -191 -444 -441 -444z" />
    <glyph glyph-name="Delta" unicode="&#x2206;" horiz-adv-x="1183" 
d="M85 0h1009v123l-375 1046h-240l-394 -1057v-112zM242 138c0 0 281 795 297 869c17 -75 290 -869 290 -869h-587z" />
    <glyph glyph-name="product" unicode="&#x220f;" horiz-adv-x="1484" 
d="M115 0h537v146h-154v861h488v-861h-154v-146h537v146h-153v861h153v145h-1254v-145h153v-861h-153v-146z" />
    <glyph glyph-name="summation" unicode="&#x2211;" horiz-adv-x="1313" 
d="M122 0h1029v360h-173v-214h-542l360 407v73l-300 381h480v-206h173v351h-1027v-145h155l351 -451l-351 -410h-155v-146z" />
    <glyph glyph-name="minus" unicode="&#x2212;" horiz-adv-x="929" 
d="M92 427h745v146h-745v-146z" />
    <glyph glyph-name="uni2215" unicode="&#x2215;" horiz-adv-x="600" 
d="M143 -51l579 1264l-130 39l-581 -1264z" />
    <glyph glyph-name="uni2219" unicode="&#x2219;" horiz-adv-x="600" 
d="M223 680c81 0 143 58 143 135c0 74 -62 133 -143 133c-79 0 -141 -59 -141 -133c0 -77 62 -135 141 -135z" />
    <glyph glyph-name="radical" unicode="&#x221a;" horiz-adv-x="1188" 
d="M443 -13h166l471 1370h-128l-403 -1162l-206 483h-327v-123h166z" />
    <glyph glyph-name="infinity" unicode="&#x221e;" horiz-adv-x="1606" 
d="M1140 190c193 0 320 180 320 391c0 234 -127 391 -318 391c-137 0 -240 -78 -325 -237c-91 174 -221 243 -348 243c-195 0 -324 -172 -324 -391c0 -242 137 -391 324 -391c122 0 235 83 319 242c100 -175 224 -248 352 -248zM474 337c-131 0 -191 115 -191 248
c0 140 75 252 187 252c104 0 179 -83 249 -250c-75 -170 -154 -250 -245 -250zM1133 331c-104 0 -177 84 -247 250c78 169 150 250 245 250c116 0 193 -110 193 -248s-74 -252 -191 -252z" />
    <glyph glyph-name="integral" unicode="&#x222b;" horiz-adv-x="960" 
d="M270 -343c333 0 337 421 337 781c0 164 -30 376 -30 483c0 168 29 218 79 218c47 0 76 -54 76 -156c138 0 178 59 178 120c0 73 -73 126 -216 126c-334 0 -347 -393 -347 -694c0 -151 41 -411 41 -569c0 -172 -35 -219 -79 -219c-47 0 -82 40 -82 163
c-139 0 -178 -57 -178 -116c0 -74 66 -137 221 -137z" />
    <glyph glyph-name="approxequal" unicode="&#x2248;" horiz-adv-x="1245" 
d="M164 414c62 68 153 120 227 120c60 0 103 -12 201 -54c126 -54 171 -65 247 -65c100 0 182 36 248 110v161c-63 -66 -151 -120 -227 -120c-58 0 -103 13 -201 56c-125 53 -170 63 -248 63c-98 0 -179 -36 -247 -109v-162zM164 759c62 68 153 120 227 120
c60 0 103 -12 201 -55c126 -53 171 -64 247 -64c100 0 182 36 248 110v161c-63 -66 -151 -120 -227 -120c-58 0 -103 13 -201 56c-125 53 -170 63 -248 63c-98 0 -179 -36 -247 -109v-162z" />
    <glyph glyph-name="notequal" unicode="&#x2260;" horiz-adv-x="1145" 
d="M373 0h149l53 209h442v148h-404l65 248h339v148h-301l54 209h-147l-56 -209h-439v-148h401l-66 -248h-335v-148h297z" />
    <glyph glyph-name="lessequal" unicode="&#x2264;" horiz-adv-x="1039" 
d="M912 218v167l-654 346l654 352v165l-879 -473v-86zM33 0h879v150h-879v-150z" />
    <glyph glyph-name="greaterequal" unicode="&#x2265;" horiz-adv-x="1039" 
d="M128 218l879 471v86l-879 473v-165l655 -352l-655 -346v-167zM128 0h879v150h-879v-150z" />
    <glyph glyph-name="lozenge" unicode="&#x25ca;" horiz-adv-x="1136" 
d="M521 0h94l479 591l-479 578h-94l-479 -578zM570 163l-333 428l333 410l329 -410z" />
    <glyph glyph-name="uniFB01" unicode="&#xfb01;" horiz-adv-x="1241" 
d="M100 0h508v145h-171v514h425v-514h-143v-145h476v145h-128v659h-630v94c0 212 94 281 229 281c83 0 157 -25 197 -56c-11 -17 -17 -36 -17 -56c0 -62 50 -109 117 -109c69 0 119 49 119 111c0 136 -203 226 -416 226c-230 0 -436 -106 -436 -397v-94h-134v-145h134v-514
h-130v-145z" />
    <glyph glyph-name="uniFB02" unicode="&#xfb02;" horiz-adv-x="1262" 
d="M98 0h507v145h-170v514h167v145h-167v145c0 109 148 156 274 156c83 0 153 -21 153 -62v-898c0 -68 55 -145 138 -145h217v145h-148v961c0 104 -164 164 -347 164c-232 0 -494 -94 -494 -330v-136h-134v-145h134v-514h-130v-145z" />
    <glyph glyph-name="Adotaccent" horiz-adv-x="1399" 
d="M702 1314c81 0 143 58 143 135c0 74 -62 133 -143 133c-79 0 -141 -59 -141 -133c0 -77 62 -135 141 -135zM44 146v-146h508v146h-159l92 279h395l95 -279h-158v-146h538v146h-135l-317 861h126v145h-661v-145h124l-306 -861h-142zM839 567h-312l149 439h17z" />
    <glyph glyph-name="Ecedilla" horiz-adv-x="1184" 
d="M629 -390c92 0 165 37 165 135c0 63 -49 124 -155 137l28 123h-87l-65 -172c77 -7 116 -31 116 -70c0 -41 -31 -57 -78 -57c-38 0 -86 11 -133 26v-74c67 -30 143 -48 209 -48zM933 360v-214h-490v379h316v-112h103v381h-103v-116h-316v329h488v-206h172v351h-1046v-145
h155v-862h-155v-145h1049v360h-173z" />
    <glyph glyph-name="Hcaron" horiz-adv-x="1412" 
d="M1354 1007v145h-540v-145h155v-332h-526v332h155v145h-541v-145h155v-862h-155v-145h541v145h-155v373h526v-373h-155v-145h540v145h-155v862h155zM615 1261h208l157 313h-142l-118 -206l-124 206h-143z" />
    <glyph glyph-name="Ngrave" horiz-adv-x="1492" 
d="M57 146v-146h513v146h-170v787l661 -933h213v1007h179v145h-518v-145h169v-703l-604 848h-443v-145h174v-861h-174zM663 1314h133l-116 324h-233z" />
    <glyph glyph-name="Odotaccent" horiz-adv-x="1457" 
d="M727 1314c81 0 143 58 143 135c0 74 -62 133 -143 133c-79 0 -141 -59 -141 -133c0 -77 62 -135 141 -135zM728 -22c366 0 640 253 640 595c0 344 -274 601 -641 601c-366 0 -638 -256 -638 -600c0 -343 273 -596 639 -596zM727 144c-224 0 -391 183 -391 429
c0 251 167 437 392 437c224 0 391 -186 391 -436c0 -247 -168 -430 -392 -430z" />
    <glyph glyph-name="Tcommaaccent" horiz-adv-x="1158" 
d="M49 1152v-418h166v273h256v-862h-155v-145h540v145h-155v862h242v-273h166v418h-1060zM473 -539c167 0 252 74 251 222c0 6 -1 216 -2 221h-250v-225h141c0 -80 -52 -113 -140 -130v-88z" />
    <glyph glyph-name="Ymacron" horiz-adv-x="1322" 
d="M432 1302h461v121h-461v-121zM381 146v-146h570v146h-172v360l349 501h159v145h-500v-145h140l-240 -361l-255 361h142v145h-542v-145h152l365 -502v-359h-168z" />
    <glyph glyph-name="adotaccent" horiz-adv-x="934" 
d="M436 966c81 0 143 58 143 135c0 74 -62 133 -143 133c-79 0 -141 -59 -141 -133c0 -77 62 -135 141 -135zM339 -22c114 0 188 30 257 88l11 -66h309v145h-126v387c0 200 -160 294 -360 294c-112 0 -256 -33 -347 -100l62 -130c90 54 208 78 274 78
c103 0 166 -51 166 -155v-63c-64 13 -122 21 -183 21c-188 0 -346 -72 -346 -258c0 -134 112 -241 283 -241zM373 113c-74 0 -121 47 -121 116c0 105 84 130 167 130c79 0 131 -11 166 -21v-145c-61 -52 -139 -80 -212 -80z" />
    <glyph glyph-name="caron.alt" horiz-adv-x="600" 
d="M87 733c165 0 253 76 252 217v224h-252v-220h137c0 -79 -48 -111 -137 -128v-93z" />
    <glyph glyph-name="ecedilla" horiz-adv-x="932" 
d="M484 -390c92 0 165 37 165 135c0 63 -49 124 -155 137l28 123h-87l-65 -172c77 -7 116 -31 116 -70c0 -41 -31 -57 -78 -57c-38 0 -86 11 -133 26v-74c67 -30 143 -48 209 -48zM499 -19c161 0 304 69 370 146l-73 119c-79 -64 -169 -110 -286 -110
c-137 0 -239 93 -248 227h618c0 272 -163 463 -397 463c-257 0 -437 -175 -437 -426c0 -247 186 -419 453 -419zM265 483c18 115 107 196 218 196c104 0 184 -81 194 -196h-412z" />
    <glyph glyph-name="foundryicon" horiz-adv-x="1347" 
d="M485 405v267h106l170 -149v149h106v-267h-106l-170 147v-147h-106zM280 2l389 276l397 -276l-144 459l391 294h-485l-159 460l-150 -460h-485l389 -294z" />
    <glyph glyph-name="hcaron" horiz-adv-x="1116" 
d="M971 145v397c0 187 -129 284 -274 284c-106 0 -202 -48 -291 -114v462h-355v-145h148v-884h-149v-145h479v145h-123v435c66 49 148 85 229 85s131 -60 131 -173v-347h-113v-145h462v145h-144zM562 1199h208l157 313h-142l-118 -206l-124 206h-143z" />
    <glyph glyph-name="idotaccent" horiz-adv-x="665" 
d="M348 966c81 0 143 58 143 135c0 74 -62 133 -143 133c-79 0 -141 -59 -141 -133c0 -77 62 -135 141 -135zM135 0h476v145h-128v659h-347v-145h142v-514h-143v-145z" />
    <glyph glyph-name="ngrave" horiz-adv-x="1088" 
d="M942 145v397c1 187 -128 284 -273 284c-98 0 -188 -41 -271 -100v78h-348v-145h143v-514h-143v-145h476v145h-128v449c62 42 136 71 209 71c81 0 130 -60 130 -173v-347h-113v-145h463v145h-145zM525 966h133l-116 324h-233z" />
    <glyph glyph-name="odotaccent" 
d="M488 968c81 0 143 58 143 135c0 74 -62 133 -143 133c-79 0 -141 -59 -141 -133c0 -77 62 -135 141 -135zM487 -22c261 0 445 176 445 427c0 247 -183 421 -443 421s-443 -174 -443 -421c0 -251 182 -427 441 -427zM488 138c-134 0 -228 109 -228 266
c0 153 94 262 227 262c135 0 229 -108 229 -261c0 -157 -94 -267 -228 -267z" />
    <glyph glyph-name="tcommaaccent" horiz-adv-x="644" 
d="M391 0h190v145h-145c-52 0 -67 33 -67 113v401h204v145h-204v351l-204 -77v-274h-126v-145h124v-411c0 -160 69 -248 228 -248zM277 -539c167 0 252 74 251 222c0 6 -1 216 -2 221h-250v-225h141c0 -80 -52 -113 -140 -130v-88z" />
    <glyph glyph-name="uniFB00" horiz-adv-x="1374" 
d="M80 0h531v146h-169v513h444v-513h-140v-146h534v146h-187v513h184v145h-184v140c0 109 30 149 87 149c63 0 78 -48 89 -117l159 42c-11 167 -131 216 -256 216c-206 0 -286 -118 -286 -292v-138h-444v140c0 109 33 149 89 149c66 0 81 -48 92 -117l159 42
c-11 167 -131 216 -261 216c-205 0 -286 -123 -286 -292v-138h-159v-145h159v-513h-155v-146z" />
    <glyph glyph-name="uniFB03" horiz-adv-x="1874" 
d="M80 0h534v146h-172v513h379v145h-379v162c0 94 87 144 193 144c84 0 180 -30 258 -93l128 29c-87 135 -254 199 -412 199c-194 0 -374 -97 -374 -277v-164h-159v-145h159v-513h-155v-146zM736 0h508v145h-171v514h425v-514h-143v-145h476v145h-128v659h-630v94
c0 212 94 281 229 281c83 0 157 -25 197 -56c-11 -17 -17 -36 -17 -56c0 -62 50 -109 117 -109c69 0 119 49 119 111c0 136 -203 226 -416 226c-230 0 -436 -106 -436 -397v-94h-134v-145h134v-514h-130v-145z" />
    <glyph glyph-name="uniFB04" horiz-adv-x="1990" 
d="M75 146v-146h585v146h-213v513h197v145h-197v140c0 101 98 154 216 154c105 0 224 -41 302 -123l155 48c-118 152 -308 222 -479 222c-214 0 -401 -108 -401 -303v-138h-159v-145h159v-513h-165zM825 0h507v145h-170v514h167v145h-167v145c0 109 148 156 274 156
c83 0 153 -21 153 -62v-898c0 -68 55 -145 138 -145h217v145h-148v961c0 104 -164 164 -347 164c-232 0 -494 -94 -494 -330v-136h-134v-145h134v-514h-130v-145z" />
    <glyph glyph-name="ymacron" horiz-adv-x="1067" 
d="M300 954h461v121h-461v-121zM193 -200v-162h119c237 0 267 116 353 332l274 689h130v145h-457v-145h124l-178 -469l-209 469h106v145h-452v-145h140l289 -612h77l-32 -103c-44 -133 -93 -144 -185 -144h-99z" />
    </font>
</defs>
</svg>
