<?xml version="1.0" standalone="no"?>
<!DOCTYPE svg PUBLIC "-//W3C//DTD SVG 1.1//EN" "http://www.w3.org/Graphics/SVG/1.1/DTD/svg11.dtd" >
<svg version="1.1" xmlns="http://www.w3.org/2000/svg">
<metadata>
Created by FontForge 20120731 at Fri Aug  1 16:50:38 2014
 By Alfred Xing
Digitized data Copyright (c) 2011-2013, vernon adams.
</metadata>
<defs>
<font id="Rokkitt-Bold" horiz-adv-x="1486" >
  <font-face 
    font-family="Rokkitt"
    font-weight="700"
    font-stretch="normal"
    units-per-em="2048"
    panose-1="2 0 8 3 0 0 0 0 0 0"
    ascent="1638"
    descent="-410"
    x-height="804"
    cap-height="1152"
    bbox="-124 -593 2578 2002"
    underline-thickness="0"
    underline-position="0"
    unicode-range="U+000D-FB02"
  />
<missing-glyph horiz-adv-x="689" 
 />
    <glyph glyph-name=".notdef" horiz-adv-x="689" 
 />
    <glyph glyph-name="uni0000" horiz-adv-x="1204" 
d="M651 -342h96c304 0 331 158 331 389v757h-654v94c0 214 93 283 228 283c79 0 155 -24 198 -57c-10 -16 -16 -35 -16 -55c0 -61 50 -108 113 -108c65 0 115 47 115 108c0 135 -201 225 -411 225c-232 0 -425 -110 -425 -393v-97h-130v-140h130v-524h-126v-140h492v140
h-168v524h456v-677c0 -121 -29 -173 -133 -173h-96v-156z" />
    <glyph glyph-name="uni0000" horiz-adv-x="1204" 
d="M651 -342h96c304 0 331 158 331 389v757h-654v94c0 214 93 283 228 283c79 0 155 -24 198 -57c-10 -16 -16 -35 -16 -55c0 -61 50 -108 113 -108c65 0 115 47 115 108c0 135 -201 225 -411 225c-232 0 -425 -110 -425 -393v-97h-130v-140h130v-524h-126v-140h492v140
h-168v524h456v-677c0 -121 -29 -173 -133 -173h-96v-156z" />
    <glyph glyph-name="uni000D" unicode="&#xd;" horiz-adv-x="600" 
 />
    <glyph glyph-name="space" unicode=" " horiz-adv-x="625" 
 />
    <glyph glyph-name="exclam" unicode="!" horiz-adv-x="550" 
d="M227 401h107l61 495v298h-237v-298zM136 0h279v254h-279v-254z" />
    <glyph glyph-name="quotedbl" unicode="&#x22;" horiz-adv-x="888" 
d="M201 695h136l48 508h-238zM553 695h135l48 508h-237z" />
    <glyph glyph-name="numbersign" unicode="#" horiz-adv-x="1271" 
d="M202 -7h178l61 323h272l-60 -323h179l61 323h253l13 150h-234l50 276h218l13 150h-199l59 312h-180l-59 -312h-270l59 312h-180l-59 -312h-242l-13 -150h223l-51 -276h-207l-13 -150h188zM473 466l51 276h271l-51 -276h-271z" />
    <glyph glyph-name="dollar" unicode="$" horiz-adv-x="1092" 
d="M497 -180h97v1543h-97v-1543zM580 -20c254 0 410 158 404 364c-5 223 -130 295 -405 363c-175 41 -230 79 -230 166c-1 75 54 125 159 125c100 0 177 -42 219 -92v-92h194v341h-194v-76c-52 54 -134 95 -252 95c-261 0 -397 -137 -397 -320c1 -221 137 -302 417 -367
c162 -34 224 -74 224 -181c0 -92 -69 -147 -173 -147c-111 0 -216 61 -256 113v137h-203v-410h203v87c71 -65 180 -106 290 -106z" />
    <glyph glyph-name="percent" unicode="%" horiz-adv-x="1870" 
d="M446 702c-89 2 -151 72 -151 174c0 100 62 169 151 171c90 -2 152 -71 152 -171c0 -102 -62 -172 -152 -174zM446 571c185 0 318 127 318 305c0 175 -133 300 -318 300s-317 -125 -317 -300c0 -178 132 -305 317 -305zM503 -87l1007 1253l-126 98l-1010 -1247zM1431 109
c-88 1 -150 72 -150 173s62 170 150 172c90 -2 152 -71 152 -172s-62 -172 -152 -173zM1431 -22c186 0 319 127 319 304c0 175 -133 300 -319 300c-185 0 -317 -125 -317 -300c0 -177 132 -304 317 -304z" />
    <glyph glyph-name="ampersand" unicode="&#x26;" horiz-adv-x="1458" 
d="M543 -20c146 0 266 47 372 138l91 -118h346v170h-192l-91 104c60 73 105 153 141 253l141 2v165h-296c-23 -91 -55 -195 -115 -271l-208 232c177 82 243 178 243 301c0 134 -125 253 -318 253c-208 0 -342 -119 -342 -265c0 -97 39 -169 101 -247
c-189 -77 -312 -183 -312 -344c0 -202 171 -373 439 -373zM580 166c-137 0 -223 108 -223 198c0 89 59 154 170 203l267 -308c-66 -67 -133 -93 -214 -93zM626 790c-53 66 -83 115 -83 167c0 63 43 101 114 101c63 0 110 -39 110 -107s-40 -114 -141 -161z" />
    <glyph glyph-name="quotesingle" unicode="'" horiz-adv-x="549" 
d="M201 695h135l49 508h-238z" />
    <glyph glyph-name="parenleft" unicode="(" horiz-adv-x="677" 
d="M571 -135l-2 154c-118 93 -179 296 -179 501c0 204 61 409 179 503l2 149c-310 -145 -468 -401 -468 -656c0 -251 156 -504 468 -651z" />
    <glyph glyph-name="parenright" unicode=")" horiz-adv-x="677" 
d="M145 -135c312 147 468 400 468 651c0 255 -157 511 -468 656l3 -149c118 -94 178 -299 178 -503c0 -205 -60 -408 -178 -501z" />
    <glyph glyph-name="asterisk" unicode="*" horiz-adv-x="925" 
d="M319 410l146 328l148 -328l173 123l-255 239l337 39l-53 193l-320 -167l77 349h-211l76 -349l-318 167l-56 -193l338 -39l-256 -239z" />
    <glyph glyph-name="plus" unicode="+" horiz-adv-x="1021" 
d="M425 137h182v354h332v165h-332v356h-182v-356h-332v-165h332v-354z" />
    <glyph glyph-name="comma" unicode="," horiz-adv-x="653" 
d="M211 -275c227 1 297 83 297 308c0 65 -4 197 -10 248c-35 0 -259 -1 -289 -4c0 -27 2 -250 3 -276h151c0 -114 -49 -157 -152 -171v-105z" />
    <glyph glyph-name="hyphen" unicode="-" horiz-adv-x="647" 
d="M64 377h519v170h-519v-170z" />
    <glyph glyph-name="period" unicode="." horiz-adv-x="709" 
d="M230 0h269v268h-269v-268z" />
    <glyph glyph-name="slash" unicode="/" horiz-adv-x="660" 
d="M142 -124l609 1322l-143 56l-611 -1323z" />
    <glyph glyph-name="zero" unicode="0" horiz-adv-x="1137" 
d="M567 165c-141 0 -210 132 -210 391c0 286 69 432 210 432c143 0 213 -146 213 -431c0 -259 -70 -392 -213 -392zM567 -22c310 0 472 206 472 579c0 381 -162 617 -472 617c-308 0 -469 -237 -469 -617c0 -372 161 -579 469 -579z" />
    <glyph glyph-name="one" unicode="1" horiz-adv-x="910" 
d="M166 0h635v169h-180v982l-462 -54v-167l198 28v-789h-191v-169z" />
    <glyph glyph-name="two" unicode="2" horiz-adv-x="1097" 
d="M146 0h836l-4 373h-188l-3 -204h-342l269 259c132 129 257 251 257 398c0 242 -202 348 -428 348c-279 0 -417 -156 -417 -352c0 -53 11 -108 30 -160h217c-12 46 -19 88 -19 126c0 127 70 197 189 197s171 -66 174 -160c3 -74 -80 -162 -171 -253l-399 -391z" />
    <glyph glyph-name="three" unicode="3" horiz-adv-x="1118" 
d="M546 -22c304 0 465 154 465 365c0 132 -84 234 -241 272c121 36 192 123 192 245c0 161 -131 314 -425 314c-172 0 -383 -89 -438 -269l200 -83c32 93 113 160 229 160c109 0 184 -62 184 -139c0 -96 -63 -161 -258 -161v-167c210 0 297 -50 301 -163
c4 -116 -83 -182 -208 -182c-115 0 -212 56 -257 186l-192 -97c51 -173 229 -281 448 -281z" />
    <glyph glyph-name="four" unicode="4" horiz-adv-x="1061" 
d="M358 0h566v169h-150v186h172v155h-172v642h-247l-492 -637l23 -160h476v-186h-176v-169zM239 510l295 404v-404h-295z" />
    <glyph glyph-name="five" unicode="5" horiz-adv-x="1109" 
d="M555 -22c279 0 457 150 457 387s-149 389 -385 389c-94 0 -192 -36 -246 -93l18 315h359v-134h193v310h-762l-27 -615l192 -78c59 66 156 101 218 101c115 0 186 -72 186 -187c0 -120 -83 -196 -215 -196c-118 0 -229 57 -304 141l-125 -160c93 -107 251 -180 441 -180z
" />
    <glyph glyph-name="six" unicode="6" horiz-adv-x="1071" 
d="M539 -20c268 0 442 151 442 427c0 214 -162 375 -379 375c-120 0 -214 -71 -220 -103l395 461l-177 141l-346 -441c-146 -175 -160 -306 -160 -442c0 -241 169 -418 445 -418zM547 160c-138 0 -201 100 -201 237c0 134 87 218 207 218c121 0 187 -89 187 -216
c0 -144 -72 -239 -193 -239z" />
    <glyph glyph-name="seven" unicode="7" horiz-adv-x="1075" 
d="M299 0h297s136 497 395 960v192h-867v-385h206v212h370c-222 -424 -401 -979 -401 -979z" />
    <glyph glyph-name="eight" unicode="8" horiz-adv-x="1145" 
d="M577 -22c285 0 462 143 462 333c0 138 -82 249 -227 293c124 50 185 145 185 261c0 184 -169 310 -425 309s-426 -128 -426 -310c0 -119 64 -216 189 -265c-147 -40 -228 -149 -228 -288c0 -187 172 -333 470 -333zM576 134c-118 0 -193 74 -193 183
c0 127 78 217 113 218c156 -36 268 -92 268 -219c0 -108 -74 -182 -188 -182zM635 663c-126 29 -227 86 -227 191c0 101 62 167 164 167c108 0 168 -69 168 -167c0 -110 -75 -192 -105 -191z" />
    <glyph glyph-name="nine" unicode="9" horiz-adv-x="1070" 
d="M474 -128l347 446c148 179 166 307 166 443c0 240 -169 413 -449 413c-265 0 -440 -150 -440 -425c0 -212 166 -371 380 -371c123 0 206 70 207 100l-391 -465zM526 545c-119 0 -187 90 -187 214c0 144 73 235 194 235c138 0 199 -95 199 -233c0 -132 -86 -216 -206 -216
z" />
    <glyph glyph-name="colon" unicode=":" horiz-adv-x="724" 
d="M218 48h284v279h-284v-279zM218 635h284v283h-284v-283z" />
    <glyph glyph-name="semicolon" unicode=";" horiz-adv-x="637" 
d="M189 -228c232 2 297 81 297 298c0 37 -3 232 -6 261l-292 -1l1 -282h152c0 -113 -42 -162 -152 -171v-105zM187 635h284v283h-284v-283z" />
    <glyph glyph-name="less" unicode="&#x3c;" horiz-adv-x="1151" 
d="M970 75v206l-719 313l719 317v204l-928 -420v-208z" />
    <glyph glyph-name="equal" unicode="=" horiz-adv-x="1163" 
d="M159 224h846v173h-846v-173zM159 623h846v174h-846v-174z" />
    <glyph glyph-name="greater" unicode="&#x3e;" horiz-adv-x="1153" 
d="M184 75l926 412v208l-926 420v-204l717 -317l-717 -313v-206z" />
    <glyph glyph-name="question" unicode="?" horiz-adv-x="981" 
d="M382 368h169c43 316 343 240 343 537c0 177 -124 335 -391 335c-220 0 -415 -101 -415 -378h215c0 128 64 199 191 199c107 0 167 -67 167 -159c0 -193 -246 -108 -279 -534zM348 0h251v234h-251v-234z" />
    <glyph glyph-name="at" unicode="@" horiz-adv-x="1479" 
d="M798 -66c185 0 328 51 444 141l-74 88c-98 -77 -223 -114 -370 -114c-356 0 -553 203 -553 507c0 327 227 560 538 560c298 0 457 -201 457 -416c0 -238 -166 -365 -232 -365c-21 0 -22 45 -2 137l102 475h-143l-20 -106c-42 85 -114 122 -194 122
c-245 0 -368 -227 -368 -431c0 -206 132 -319 270 -319c77 0 153 32 213 113c11 -84 51 -113 101 -113c249 0 405 239 405 488c0 261 -174 532 -584 532c-440 0 -683 -341 -683 -675c0 -315 219 -624 693 -624zM683 327c-108 0 -159 96 -159 203c0 146 76 315 214 315
c101 0 166 -69 166 -177c0 -158 -99 -341 -221 -341z" />
    <glyph glyph-name="A" unicode="A" 
d="M46 169v-169h545v169h-162l85 252h388l85 -252h-167v-169h620v169h-143l-312 815h132v168h-754v-168h136l-306 -815h-147zM857 568h-299l144 409h16z" />
    <glyph glyph-name="B" unicode="B" horiz-adv-x="1254" 
d="M52 0h629c396 0 502 171 502 340c0 130 -76 244 -254 283c124 37 196 123 196 251c0 170 -142 278 -432 278h-641v-168h161v-816h-161v-168zM496 169v363h152c183 0 242 -81 242 -179c0 -110 -58 -184 -245 -184h-149zM496 694v290l123 1c158 -1 220 -38 220 -138
c0 -103 -63 -153 -213 -153h-130z" />
    <glyph glyph-name="C" unicode="C" horiz-adv-x="1396" 
d="M724 -22c297 1 509 126 582 396l-211 75c-45 -201 -193 -275 -356 -275c-230 0 -369 170 -369 404c0 237 144 400 368 400c151 0 272 -60 343 -219h193v395h-188v-121c-58 60 -174 141 -361 141c-380 0 -638 -238 -638 -602c0 -342 239 -593 637 -594z" />
    <glyph glyph-name="D" unicode="D" horiz-adv-x="1452" 
d="M53 1152v-168h162v-815h-162v-169h668c430 0 646 220 646 588c0 306 -210 564 -646 564h-668zM499 169v815h215c248 0 355 -179 355 -399c0 -254 -105 -416 -360 -416h-210z" />
    <glyph glyph-name="E" unicode="E" horiz-adv-x="1224" 
d="M944 385v-216h-447v347h264v-110h103v400h-104v-118h-263v294l445 2v-196h206v364h-1095v-168h161v-816h-161v-168h1099v385h-208z" />
    <glyph glyph-name="F" unicode="F" horiz-adv-x="1152" 
d="M53 1152v-168h161v-816h-161v-168h604v168h-160v348h247v-109h111v374h-112v-110h-246v313h431v-192h190v360h-1065z" />
    <glyph glyph-name="G" unicode="G" horiz-adv-x="1456" 
d="M761 -20c387 0 601 186 605 620h-497v-172h232c-9 -158 -120 -249 -332 -252c-223 0 -384 149 -384 409c0 248 146 394 384 394c160 0 287 -74 361 -229h189v409h-204v-131c-62 79 -206 146 -364 146c-383 0 -659 -232 -659 -589c0 -373 251 -605 669 -605z" />
    <glyph glyph-name="H" unicode="H" horiz-adv-x="1490" 
d="M1437 984v168h-605v-168h161v-307h-496v307h160v168h-604v-168h161v-816h-161v-168h604v168h-160v337h496v-337h-161v-168h605v168h-161v816h161z" />
    <glyph glyph-name="I" unicode="I" horiz-adv-x="757" 
d="M76 168v-168h605v168h-161v816h161v168h-605v-168h161v-816h-161z" />
    <glyph glyph-name="J" unicode="J" horiz-adv-x="770" 
d="M41 -89v-216h180c276 0 343 169 343 418v871h172v168h-639v-168h185v-894c0 -92 -21 -179 -129 -179h-112z" />
    <glyph glyph-name="K" unicode="K" horiz-adv-x="1417" 
d="M1237 169l-446 439l418 376h159v168h-581v-168h139l-429 -374v374h160v168h-604v-168h161v-816h-161v-168h604v168h-160v387l386 -386h-114v-169h606v169h-138z" />
    <glyph glyph-name="L" unicode="L" horiz-adv-x="1181" 
d="M894 532v-363h-397v815h160v168h-604v-168h161v-816h-161v-168h1070v532h-229z" />
    <glyph glyph-name="M" unicode="M" horiz-adv-x="1829" 
d="M53 169v-169h507v169h-150v797l407 -932h112l409 933v-798h-154v-169h594v169h-168v815h166v168h-555l-305 -700l-310 700h-553v-168h164v-815h-164z" />
    <glyph glyph-name="N" unicode="N" horiz-adv-x="1565" 
d="M53 169v-169h544v169h-171v715l670 -884h246v984h184v168h-550v-168h169v-608l-598 776h-494v-168h178v-815h-178z" />
    <glyph glyph-name="O" unicode="O" horiz-adv-x="1491" 
d="M745 -22c384 -2 659 245 659 594c0 351 -275 602 -660 602c-383 0 -657 -251 -657 -601s274 -597 658 -595zM744 174c-212 0 -365 169 -365 402c0 237 153 404 366 403c212 1 365 -166 365 -403c0 -233 -153 -402 -366 -402z" />
    <glyph glyph-name="P" unicode="P" horiz-adv-x="1201" 
d="M570 625v-164h62c388 0 531 115 531 351c0 240 -169 340 -490 340h-620v-168h161v-816h-161v-168h604v168h-160v816h193c113 0 186 -56 186 -172c0 -123 -72 -187 -241 -187h-65z" />
    <glyph glyph-name="Q" unicode="Q" horiz-adv-x="1491" 
d="M1288 -314l-1 183c-134 -20 -308 5 -397 121c307 53 514 279 514 582c0 351 -275 602 -660 602c-383 0 -657 -251 -657 -601c0 -314 222 -547 544 -587c152 -276 473 -328 657 -300zM744 174c-212 0 -365 169 -365 402c0 237 153 404 366 403c212 1 365 -166 365 -403
c0 -233 -153 -402 -366 -402z" />
    <glyph glyph-name="R" unicode="R" horiz-adv-x="1359" 
d="M1149 169l-216 368c149 38 260 118 260 309c0 242 -189 306 -445 306h-695v-168h161v-816h-161v-168h604v168h-160v816h231c123 0 183 -60 183 -147c0 -88 -45 -163 -199 -163h-147v-166h100l280 -508h372v169h-168z" />
    <glyph glyph-name="S" unicode="S" horiz-adv-x="1094" 
d="M616 -20c254 0 410 158 404 364c-5 223 -130 295 -405 363c-175 41 -230 79 -230 166c-1 75 54 125 159 125c100 0 177 -42 219 -92v-92h194v341h-194v-76c-52 54 -134 95 -252 95c-261 0 -397 -137 -397 -320c1 -221 137 -302 417 -367c162 -34 224 -74 224 -181
c0 -92 -69 -147 -173 -147c-111 0 -216 61 -256 113v137h-203v-410h203v87c71 -65 180 -106 290 -106z" />
    <glyph glyph-name="T" unicode="T" horiz-adv-x="1231" 
d="M34 1152v-449h195v281h252v-816h-160v-168h604v168h-161v816h241v-281h192v449h-1163z" />
    <glyph glyph-name="U" unicode="U" horiz-adv-x="1430" 
d="M728 -20c312 0 504 147 504 466v538h163v168h-533v-168h164v-544c0 -176 -93 -271 -276 -271c-173 0 -263 96 -263 268v547h173v168h-616v-168h160v-526c0 -290 146 -478 524 -478z" />
    <glyph glyph-name="V" unicode="V" horiz-adv-x="1440" 
d="M188 984l430 -984h218l408 984h162v168h-526v-168h151l-272 -685l-272 685h149v168h-597v-168h149z" />
    <glyph glyph-name="W" unicode="W" horiz-adv-x="1924" 
d="M192 984l318 -984h182l274 726l276 -726h189l302 984h144v168h-484v-168h146l-181 -627l-289 782h-130l-293 -782l-180 627h137v168h-557v-168h146z" />
    <glyph glyph-name="X" unicode="X" horiz-adv-x="1398" 
d="M37 164v-164h542v164h-141l221 283l216 -283h-131v-164h617v164h-161l-358 437l320 388h164v163h-527v-163h129l-199 -258l-202 258h120v163h-595v-163h149l341 -412l-340 -413h-165z" />
    <glyph glyph-name="Y" unicode="Y" horiz-adv-x="1363" 
d="M361 169v-169h638v169h-179v319l354 496h162v168h-532v-168h133l-227 -340l-240 340h135v168h-594v-168h156l371 -499v-316h-177z" />
    <glyph glyph-name="Z" unicode="Z" horiz-adv-x="1209" 
d="M96 0h1030v491h-190v-322h-496l670 819v164h-1000v-461h193v293h445l-652 -803v-181z" />
    <glyph glyph-name="bracketleft" unicode="[" horiz-adv-x="793" 
d="M234 -214h424v156h-189v1167h189v154h-424v-1477z" />
    <glyph glyph-name="backslash" unicode="\" horiz-adv-x="751" 
d="M605 -20h219l-710 1303h-218z" />
    <glyph glyph-name="bracketright" unicode="]" horiz-adv-x="792" 
d="M135 -214h425v1477h-425v-154h189v-1167h-189v-156z" />
    <glyph glyph-name="asciicircum" unicode="^" horiz-adv-x="1053" 
d="M81 471h214l230 541l231 -541h214l-346 730h-198z" />
    <glyph glyph-name="underscore" unicode="_" horiz-adv-x="1198" 
d="M105 -197h989v118h-989v-118z" />
    <glyph glyph-name="grave" unicode="`" horiz-adv-x="530" 
d="M260 953h153l-107 338h-258z" />
    <glyph glyph-name="a" unicode="a" horiz-adv-x="964" 
d="M342 -22c104 0 185 29 257 84l16 -62h328v169h-121v353c0 207 -170 303 -379 303c-121 0 -264 -32 -368 -99l67 -152c105 54 213 76 280 76c97 0 152 -47 152 -142v-50c-53 11 -109 19 -166 19c-178 0 -352 -67 -352 -251c0 -149 121 -248 286 -248zM399 125
c-67 0 -112 42 -112 105c0 94 74 120 148 120c62 0 108 -9 139 -19v-141c-52 -42 -116 -65 -175 -65z" />
    <glyph glyph-name="b" unicode="b" horiz-adv-x="1132" 
d="M446 747v427h-401v-168h152v-838h-154v-168h403v50c69 -48 149 -71 229 -71c210 0 411 156 411 438c0 255 -166 408 -387 408c-85 0 -173 -26 -253 -78zM446 185v414c52 35 106 51 157 51c143 0 222 -106 222 -249c0 -170 -106 -259 -236 -259c-47 0 -97 14 -143 43z" />
    <glyph glyph-name="c" unicode="c" horiz-adv-x="971" 
d="M513 -20c163 0 301 69 390 168l-89 136c-71 -70 -157 -129 -291 -125c-133 4 -219 107 -219 255c0 141 89 231 209 235c109 3 190 -53 219 -179h167v337h-184l-3 -77c-31 55 -131 96 -222 96c-264 0 -442 -173 -442 -416c0 -260 184 -430 465 -430z" />
    <glyph glyph-name="d" unicode="d" horiz-adv-x="1100" 
d="M942 168v1006h-397v-168h148v-255c-75 47 -159 74 -242 74c-222 0 -400 -154 -400 -430c0 -262 190 -417 424 -417c77 0 151 21 218 62v-40h359v168h-110zM312 395c0 175 92 256 221 256c50 0 105 -14 160 -42v-417c-55 -26 -111 -39 -161 -39c-124 0 -220 84 -220 242z
" />
    <glyph glyph-name="e" unicode="e" horiz-adv-x="940" 
d="M511 -20c153 0 294 60 370 135l-77 136c-77 -56 -166 -95 -270 -95c-125 0 -222 76 -231 205h585c0 280 -159 465 -400 465c-268 0 -444 -170 -444 -428c0 -252 185 -418 467 -418zM306 491c17 107 92 178 187 178s162 -71 167 -178h-354z" />
    <glyph glyph-name="f" unicode="f" horiz-adv-x="796" 
d="M69 169v-169h645v169h-223v467h213v168h-213v123c0 120 39 151 90 151c67 0 78 -44 90 -117l185 54c-15 160 -118 223 -301 223c-250 0 -313 -163 -313 -337v-97h-169v-168h169v-467h-173z" />
    <glyph glyph-name="g" unicode="g" horiz-adv-x="1099" 
d="M482 -394c252 0 461 97 461 412v620h125v166h-343l-14 -61c-78 52 -166 81 -254 81c-222 0 -400 -151 -400 -422c0 -257 190 -409 424 -409c73 0 145 19 209 57v-63c-3 -145 -82 -198 -213 -198c-85 0 -172 17 -270 47l-44 -176c102 -33 206 -54 319 -54zM538 164
c-123 0 -220 83 -220 238c0 171 92 251 221 251c47 0 99 -15 150 -42l1 -407c-50 -26 -103 -40 -152 -40z" />
    <glyph glyph-name="h" unicode="h" horiz-adv-x="1174" 
d="M1025 168v353c2 205 -126 305 -277 305c-112 0 -213 -48 -309 -127v475h-390v-168h141v-838h-142v-168h514v168h-123v395c64 46 137 75 211 75c78 0 127 -53 127 -163v-307h-107v-168h496v168h-141z" />
    <glyph glyph-name="i" unicode="i" horiz-adv-x="636" 
d="M329 966c93 0 160 63 160 152c0 87 -67 151 -160 151c-91 0 -158 -64 -158 -151c0 -89 67 -152 158 -152zM87 168v-168h502v168h-119v636h-379v-168h131v-468h-135z" />
    <glyph glyph-name="j" unicode="j" horiz-adv-x="587" 
d="M320 967c93 0 160 63 159 152c0 87 -66 151 -159 151c-92 0 -159 -64 -159 -151c0 -89 67 -152 159 -152zM-4 -152v-192h102c396 0 384 244 384 464v684h-414v-168h160v-613c0 -139 -41 -175 -148 -175h-84z" />
    <glyph glyph-name="k" unicode="k" horiz-adv-x="1120" 
d="M938 169l-253 261l267 207h116v167h-485v-167h144l-288 -209v746h-390v-168h141v-838h-142v-168h514v168h-123v222l362 -390h286v169h-149z" />
    <glyph glyph-name="l" unicode="l" horiz-adv-x="611" 
d="M53 168v-168h514v168h-122v1006h-391v-168h142v-838h-143z" />
    <glyph glyph-name="m" unicode="m" horiz-adv-x="1766" 
d="M1614 168v353c1 205 -129 305 -284 305c-126 0 -238 -57 -344 -149c-47 100 -143 149 -252 149c-106 0 -202 -40 -293 -109v87h-390v-168h134v-468h-137v-168h515v168h-122v410c59 37 125 60 191 60c79 0 130 -53 130 -163v-307h-109v-168h509v168h-144v353
c0 15 0 30 -2 44c65 45 138 73 212 73c79 0 130 -53 130 -163v-307h-109v-168h509v168h-144z" />
    <glyph glyph-name="n" unicode="n" horiz-adv-x="1149" 
d="M1001 168v353c1 205 -126 305 -278 305c-106 0 -202 -43 -293 -115v93h-379v-168h131v-468h-134v-168h501v168h-119v405c60 41 128 65 195 65c78 0 128 -53 128 -163v-307h-107v-168h495v168h-140z" />
    <glyph glyph-name="o" unicode="o" horiz-adv-x="1006" 
d="M502 -22c271 0 458 176 458 431c0 246 -186 417 -457 417s-458 -171 -458 -417c0 -255 186 -431 457 -431zM502 156c-119 -1 -201 102 -201 252c0 141 82 240 201 240s202 -98 202 -240c0 -150 -83 -253 -202 -252z" />
    <glyph glyph-name="p" unicode="p" horiz-adv-x="1094" 
d="M412 751l-3 53h-387v-168h147v-817h-147v-168h567v168h-172v223c67 -42 142 -63 218 -63c210 0 411 156 411 438c0 255 -166 408 -387 408c-83 0 -169 -25 -247 -74zM417 180v425c48 31 99 45 146 45c143 0 222 -106 222 -249c0 -170 -106 -259 -236 -259
c-43 0 -89 13 -132 38z" />
    <glyph glyph-name="q" unicode="q" horiz-adv-x="1122" 
d="M546 -357h559v174h-142v819h117v168h-365l-1 -68c-79 57 -172 89 -264 89c-222 0 -400 -154 -400 -430c0 -262 190 -417 424 -417c86 0 169 26 240 76v-237h-168v-174zM531 153c-123 0 -220 84 -220 242c0 175 92 256 221 256c57 0 121 -19 182 -55v-391
c-61 -34 -125 -52 -183 -52z" />
    <glyph glyph-name="r" unicode="r" horiz-adv-x="829" 
d="M431 652v152h-379v-168h131v-468h-135v-168h502v168h-119v259c0 118 82 176 170 176c53 0 110 -19 153 -47l56 215c-54 23 -109 42 -166 42c-78 0 -156 -39 -213 -161z" />
    <glyph glyph-name="s" unicode="s" horiz-adv-x="898" 
d="M526 -21c143 0 298 62 302 239c5 175 -109 220 -245 258l-106 31c-98 27 -131 44 -131 90s50 68 114 68c62 0 142 -24 180 -62l16 -87h155v299h-173v-61c-50 43 -132 72 -231 72c-154 0 -309 -76 -309 -231c0 -149 81 -213 226 -253l137 -39c89 -23 130 -38 130 -95
c0 -48 -44 -73 -112 -73c-80 0 -184 37 -221 97l-8 67h-148v-299h165v70c48 -58 161 -91 259 -91z" />
    <glyph glyph-name="t" unicode="t" horiz-adv-x="680" 
d="M396 0h221v168h-150c-52 0 -62 33 -62 91v377h206v168h-206v345l-248 -68v-277h-126v-168h125v-389c0 -163 78 -247 240 -247z" />
    <glyph glyph-name="u" unicode="u" horiz-adv-x="1123" 
d="M426 -20c112 0 204 41 288 112l3 -92h382v169h-137v635h-381v-168h133v-377c-56 -58 -131 -93 -202 -93c-80 0 -126 47 -126 153v485h-369v-168h120v-358c0 -171 83 -298 289 -298z" />
    <glyph glyph-name="v" unicode="v" horiz-adv-x="1112" 
d="M148 636l301 -636h217l305 636h121v168h-441v-168h104l-168 -390l-168 390h100v168h-499v-168h128z" />
    <glyph glyph-name="w" unicode="w" horiz-adv-x="1453" 
d="M123 636l233 -636h224l161 449l167 -449h203l220 636h99v168h-361v-168h92l-136 -417l-149 417h89v168h-411v-168h93l-146 -414l-139 414h81v168h-420v-168h100z" />
    <glyph glyph-name="x" unicode="x" horiz-adv-x="1044" 
d="M40 169v-169h407v169h-107l155 148l156 -148h-104v-169h462v169h-105l-259 257l226 210h132v168h-410v-168h92l-138 -135l-135 135h78v168h-452v-168h121l236 -232l-247 -235h-108z" />
    <glyph glyph-name="y" unicode="y" horiz-adv-x="1115" 
d="M200 -171v-189h122c218 0 262 94 352 298l312 698h125v168h-488v-168h118l-165 -406l-192 406h106v168h-483v-168h138l288 -578h78l-39 -101c-46 -119 -95 -128 -171 -128h-101z" />
    <glyph glyph-name="z" unicode="z" horiz-adv-x="928" 
d="M85 156v-156h790v323h-177v-171h-321l475 489v163h-766v-308h174v154h296z" />
    <glyph glyph-name="braceleft" unicode="{" horiz-adv-x="803" 
d="M618 -212h93v151c-182 0 -192 32 -192 194c0 269 -23 354 -199 402c186 49 200 138 200 444c0 121 30 152 191 152v150h-94c-327 0 -324 -165 -324 -397c0 -177 -38 -273 -182 -273v-152c148 0 182 -97 182 -279c0 -232 -2 -392 325 -392z" />
    <glyph glyph-name="bar" unicode="|" horiz-adv-x="562" 
d="M181 -229h203v1435h-203v-1435z" />
    <glyph glyph-name="braceright" unicode="}" horiz-adv-x="804" 
d="M136 -212h94c327 0 325 160 325 392c0 182 34 279 181 279v152c-145 0 -181 97 -181 276c0 231 2 394 -324 394h-95v-150c162 0 192 -31 192 -152c0 -306 14 -395 200 -444c-177 -49 -199 -134 -199 -406c0 -159 -11 -190 -193 -190v-151z" />
    <glyph glyph-name="asciitilde" unicode="~" horiz-adv-x="1219" 
d="M840 461c96 0 177 47 245 127l-27 143c-65 -65 -133 -101 -211 -101c-137 0 -288 127 -461 127c-102 0 -184 -43 -254 -130l23 -138c72 73 134 108 215 108c153 0 304 -136 470 -136z" />
    <glyph glyph-name="uni00A0" unicode="&#xa0;" horiz-adv-x="600" 
 />
    <glyph glyph-name="exclamdown" unicode="&#xa1;" horiz-adv-x="610" 
d="M178 -257h238v298l-64 495h-107l-67 -495v-298zM436 683v254h-279v-254h279z" />
    <glyph glyph-name="cent" unicode="&#xa2;" horiz-adv-x="974" 
d="M388 -403l315 1591l-82 13l-313 -1591zM513 -20c163 0 301 69 390 168l-89 136c-71 -70 -157 -129 -291 -125c-133 4 -219 107 -219 255c0 141 89 231 209 235c109 3 190 -53 219 -179h167v337h-184l-3 -77c-31 55 -131 96 -222 96c-264 0 -442 -173 -442 -416
c0 -260 184 -430 465 -430z" />
    <glyph glyph-name="sterling" unicode="&#xa3;" horiz-adv-x="1099" 
d="M270 -20c89 0 157 44 207 106c82 -61 188 -106 284 -106c209 0 265 118 269 325v33h-156c-6 -111 -32 -159 -115 -159c-54 0 -108 32 -157 61c22 53 31 104 31 152c0 60 -15 118 -41 172h319v135h-377c-36 65 -67 137 -67 205c0 94 56 153 166 153
c107 0 143 -77 142 -174h208c2 199 -123 341 -356 341c-265 0 -404 -131 -404 -328c0 -70 17 -135 45 -197h-148v-135h221c63 -71 90 -183 90 -243c-41 34 -106 66 -169 66c-149 0 -224 -109 -224 -213c0 -96 68 -194 232 -194zM266 97c-46 0 -85 29 -85 80
c0 49 31 77 76 77c38 0 86 -21 132 -68c-28 -62 -79 -89 -123 -89z" />
    <glyph glyph-name="currency" unicode="&#xa4;" horiz-adv-x="1101" 
d="M263 451l88 87c56 -31 118 -52 197 -52c76 0 140 18 200 53l90 -88l69 68l-85 84c44 53 74 119 74 203c0 76 -24 144 -72 199l83 83l-69 69l-88 -88c-53 33 -122 55 -201 55c-81 0 -147 -22 -200 -53l-86 86l-69 -69l80 -81c-47 -57 -73 -125 -73 -203
c0 -82 32 -151 75 -203l-82 -82zM548 600c-129 0 -212 100 -212 208c0 101 84 198 213 198c119 0 211 -95 211 -200c0 -106 -83 -206 -212 -206z" />
    <glyph glyph-name="yen" unicode="&#xa5;" horiz-adv-x="1347" 
d="M265 297h819v117h-314v89h314v119h-819v-119h345v-89h-345v-117zM361 169v-169h638v169h-179v319l354 496h162v168h-532v-168h133l-227 -340l-240 340h135v168h-594v-168h156l371 -499v-316h-177z" />
    <glyph glyph-name="brokenbar" unicode="&#xa6;" horiz-adv-x="539" 
d="M181 -227h180v559h-180v-559zM181 640h180v559h-180v-559z" />
    <glyph glyph-name="section" unicode="&#xa7;" horiz-adv-x="909" 
d="M452 -185c218 0 330 121 330 295c0 64 -22 129 -58 175c58 36 105 114 105 193c0 141 -97 219 -327 330c-124 58 -196 90 -196 193c0 99 60 154 152 154c116 0 145 -118 145 -214c100 0 155 50 155 117c0 108 -100 187 -292 187c-188 0 -324 -96 -324 -263
c0 -90 33 -156 71 -196c-63 -32 -107 -95 -107 -168c0 -129 71 -219 253 -308c243 -120 282 -158 282 -248c0 -96 -62 -159 -167 -159c-128 0 -194 107 -194 251c-86 0 -146 -44 -146 -129c0 -99 72 -210 318 -210zM647 350c-43 29 -93 57 -164 92
c-175 87 -231 127 -231 218c0 28 10 54 26 72c53 -37 118 -66 191 -102c160 -78 200 -136 200 -209c0 -30 -10 -54 -22 -71z" />
    <glyph glyph-name="dieresis" unicode="&#xa8;" horiz-adv-x="827" 
d="M179 918c86 0 140 59 140 134c0 83 -61 133 -140 133s-139 -55 -139 -133c0 -77 60 -134 139 -134zM647 918c86 0 140 59 140 134c0 83 -60 133 -140 133c-79 0 -139 -55 -139 -133c0 -77 61 -134 139 -134z" />
    <glyph glyph-name="copyright" unicode="&#xa9;" horiz-adv-x="1538" 
d="M782 276c119 0 240 63 291 152l-99 64c-37 -59 -115 -101 -189 -101c-107 0 -183 88 -183 213c0 122 76 208 183 208c75 0 141 -53 160 -129h115v230h-120l1 -58c-33 42 -104 71 -173 71c-186 0 -317 -135 -317 -325s137 -325 331 -325zM767 103
c-284 0 -485 206 -485 497c0 296 201 506 485 506c286 0 488 -210 488 -506c0 -291 -202 -497 -488 -497zM767 -22c380 0 648 259 648 625c0 367 -268 627 -648 627c-377 0 -644 -260 -644 -627c0 -366 267 -625 644 -625z" />
    <glyph glyph-name="ordfeminine" unicode="&#xaa;" horiz-adv-x="871" 
d="M341 469c86 0 154 23 214 69l14 -52h273v139h-101v296c0 173 -142 253 -316 253c-101 0 -220 -26 -307 -83l57 -126c87 45 176 63 233 63c80 0 126 -39 126 -119v-41c-44 10 -90 15 -138 15c-148 0 -293 -54 -293 -208c0 -124 100 -206 238 -206zM389 591
c-56 0 -94 35 -94 87c0 79 61 100 124 100c51 0 89 -7 115 -16v-117c-43 -35 -97 -54 -145 -54z" />
    <glyph glyph-name="guillemotleft" unicode="&#xab;" horiz-adv-x="1102" 
d="M385 126h187l-219 429l219 432h-187l-306 -433zM848 126h187l-219 429l219 432h-187l-306 -433z" />
    <glyph glyph-name="logicalnot" unicode="&#xac;" horiz-adv-x="1132" 
d="M817 310h145v529h-885v-167h740v-362z" />
    <glyph glyph-name="uni00AD" unicode="&#xad;" horiz-adv-x="1298" 
 />
    <glyph glyph-name="registered" unicode="&#xae;" horiz-adv-x="1538" 
d="M490 307h282v74h-82v213h82l152 -287h166v74h-88l-125 226c83 21 138 86 138 163c0 99 -87 165 -217 165h-308v-74h87v-480h-87v-74zM690 672v189h109c62 0 104 -37 104 -93c0 -58 -44 -96 -111 -96h-102zM767 103c-284 0 -485 206 -485 497c0 296 201 506 485 506
c286 0 488 -210 488 -506c0 -291 -202 -497 -488 -497zM767 -22c380 0 648 259 648 625c0 367 -268 627 -648 627c-377 0 -644 -260 -644 -627c0 -366 267 -625 644 -625z" />
    <glyph glyph-name="macron" unicode="&#xaf;" horiz-adv-x="529" 
d="M20 961h488v129h-488v-129z" />
    <glyph glyph-name="degree" unicode="&#xb0;" horiz-adv-x="692" 
d="M347 794c-127 0 -177 94 -177 176c1 80 52 174 173 174c131 0 180 -102 180 -172c0 -87 -54 -178 -176 -178zM346 705c189 1 268 142 268 264c0 121 -81 261 -268 261c-186 0 -268 -140 -268 -261c0 -123 80 -264 268 -264z" />
    <glyph glyph-name="plusminus" unicode="&#xb1;" horiz-adv-x="996" 
d="M410 279h175v315h324v163h-324v321h-175v-321h-322v-163h322v-315zM88 0h821v163h-821v-163z" />
    <glyph glyph-name="uni00B2" unicode="&#xb2;" horiz-adv-x="1097" 
d="M155.66 535h593.56l-2.83984 264.83h-133.479l-2.13086 -144.84h-242.819l190.99 183.89c93.7197 91.5898 182.47 178.21 182.47 282.58c0 171.82 -143.42 247.08 -303.88 247.08c-198.09 0 -296.07 -110.76 -296.07 -249.92
c0 -37.6299 7.80957 -76.6797 21.2998 -113.601h154.07c-8.52051 32.6602 -13.4902 62.4805 -13.4902 89.4609c0 90.1699 49.7002 139.869 134.19 139.869c84.4893 0 121.41 -46.8594 123.54 -113.6c2.12988 -52.54 -56.8008 -115.02 -121.41 -179.63l-283.29 -277.61z" />
    <glyph glyph-name="uni00B3" unicode="&#xb3;" horiz-adv-x="1118" 
d="M465.66 519.38c215.84 0 330.149 109.34 330.149 259.15c0 93.7197 -59.6396 166.14 -171.109 193.12c85.9102 25.5596 136.319 87.3301 136.319 173.949c0 114.311 -93.0098 222.94 -301.75 222.94c-122.119 0 -271.93 -63.1904 -310.979 -190.99l142 -58.9297
c22.7197 66.0303 80.2295 113.6 162.59 113.6c77.3896 0 130.64 -44.0195 130.64 -98.6895c0 -68.1602 -44.7295 -114.311 -183.18 -114.311v-118.569c149.101 0 210.87 -35.5 213.71 -115.73c2.83984 -82.3604 -58.9297 -129.22 -147.68 -129.22
c-81.6504 0 -150.521 39.7598 -182.47 132.06l-136.32 -68.8701c36.21 -122.83 162.59 -199.51 318.08 -199.51z" />
    <glyph glyph-name="acute" unicode="&#xb4;" horiz-adv-x="633" 
d="M174 953h153l213 338h-259z" />
    <glyph glyph-name="mu" unicode="&#xb5;" horiz-adv-x="1127" 
d="M137 -277h249v756h-249v-756zM426 -20c112 0 204 41 288 112l3 -92h382v169h-137v635h-381v-168h133v-377c-56 -58 -131 -93 -202 -93c-80 0 -126 47 -126 153v485h-369v-168h120v-358c0 -171 83 -298 289 -298z" />
    <glyph glyph-name="paragraph" unicode="&#xb6;" horiz-adv-x="1180" 
d="M473 0h654v169h-161v817h154v166h-595c-345 0 -424 -194 -424 -361c0 -175 121 -364 370 -357h257v-265h-255v-169zM527 597v389h201v-388z" />
    <glyph glyph-name="periodcentered" unicode="&#xb7;" horiz-adv-x="753" 
d="M271 438h239v223h-239v-223z" />
    <glyph glyph-name="cedilla" unicode="&#xb8;" horiz-adv-x="514" 
d="M286 -402c96 0 176 41 176 143c0 66 -49 128 -154 143l29 121h-98l-67 -177c78 -5 117 -28 117 -69c0 -44 -31 -60 -76 -60c-38 0 -84 11 -128 27v-78c61 -31 135 -50 201 -50z" />
    <glyph glyph-name="uni00B9" unicode="&#xb9;" horiz-adv-x="910" 
d="M185.86 529h450.85v119.99h-127.8v697.22l-328.021 -38.3398v-118.57l140.58 19.8799v-560.189h-135.609v-119.99z" />
    <glyph glyph-name="ordmasculine" unicode="&#xba;" horiz-adv-x="988" 
d="M493 616c-99 0 -168 85 -168 210c0 118 69 200 167 200c100 0 169 -81 169 -199c0 -126 -69 -211 -168 -211zM492 468c227 0 383 146 383 359c0 206 -156 347 -382 347c-225 0 -381 -141 -381 -347c0 -213 155 -359 380 -359z" />
    <glyph glyph-name="guillemotright" unicode="&#xbb;" horiz-adv-x="1076" 
d="M79 126h188l305 432l-305 429h-188l220 -429zM542 126h188l305 432l-305 429h-188l220 -429z" />
    <glyph glyph-name="onequarter" unicode="&#xbc;" horiz-adv-x="2160" 
d="M1540 0h403v120h-107v132h122v109h-122v457h-175l-350 -452l17 -114h337v-132h-125v-120zM207 335h451v120h-128v697l-328 -39v-118l140 20v-560h-135v-120zM604 -65h143l807 1301h-139zM1448 361l217 288v-288h-217z" />
    <glyph glyph-name="onehalf" unicode="&#xbd;" horiz-adv-x="2208" 
d="M1418 0h615l-3 262h-134l-1 -149h-264l206 193c96 91 179 178 179 281c0 171 -145 247 -304 247c-211 0 -313 -117 -313 -256c0 -37 7 -74 22 -111h157c-8 31 -12 60 -12 86c0 95 51 153 146 153c85 0 122 -49 124 -120c2 -55 -58 -121 -121 -182l-296 -281zM207 335h451
v120h-128v697l-328 -39v-118l140 20v-560h-135v-120zM608 -65h142l808 1301h-140z" />
    <glyph glyph-name="threequarters" unicode="&#xbe;" horiz-adv-x="2321" 
d="M510 324c216 0 330 110 330 259c0 94 -59 167 -171 194c87 25 137 87 137 173c0 115 -93 224 -301 224c-123 0 -273 -64 -312 -191l142 -60c23 67 80 114 163 114c77 0 130 -44 130 -98c0 -69 -44 -115 -183 -115v-118c149 0 211 -36 214 -117c3 -82 -59 -129 -148 -129
c-81 0 -150 41 -182 133l-136 -70c36 -122 162 -199 317 -199zM1636 0h403v120h-107v132h122v109h-122v457h-175l-350 -452l16 -114h338v-132h-125v-120zM716 -65h143l807 1301h-139zM1544 361l217 288v-288h-217z" />
    <glyph glyph-name="questiondown" unicode="&#xbf;" horiz-adv-x="947" 
d="M588 544h-169c-43 -316 -343 -240 -343 -537c0 -177 124 -335 391 -335c220 0 415 101 415 378h-215c0 -128 -64 -199 -191 -199c-107 0 -167 67 -167 159c0 193 246 108 279 534zM622 912h-251v-234h251v234z" />
    <glyph glyph-name="Agrave" unicode="&#xc0;" 
d="M655 1301h153l-107 338h-258zM46 169v-169h545v169h-162l85 252h388l85 -252h-167v-169h620v169h-143l-312 815h132v168h-754v-168h136l-306 -815h-147zM857 568h-299l144 409h16z" />
    <glyph glyph-name="Aacute" unicode="&#xc1;" 
d="M656 1301h153l213 338h-259zM46 169v-169h545v169h-162l85 252h388l85 -252h-167v-169h620v169h-143l-312 815h132v168h-754v-168h136l-306 -815h-147zM857 568h-299l144 409h16z" />
    <glyph glyph-name="Acircumflex" unicode="&#xc2;" 
d="M431 1268h162l135 250l134 -250h166l-138 343h-325zM46 169v-169h545v169h-162l85 252h388l85 -252h-167v-169h620v169h-143l-312 815h132v168h-754v-168h136l-306 -815h-147zM857 568h-299l144 409h16z" />
    <glyph glyph-name="Atilde" unicode="&#xc3;" 
d="M891 1253c124 -1 171 105 183 248h-108c-10 -48 -34 -67 -68 -67c-73 0 -212 82 -314 82c-101 0 -182 -66 -196 -245h110c7 48 33 64 67 64c89 0 232 -82 326 -82zM46 169v-169h545v169h-162l85 252h388l85 -252h-167v-169h620v169h-143l-312 815h132v168h-754v-168h136
l-306 -815h-147zM857 568h-299l144 409h16z" />
    <glyph glyph-name="Adieresis" unicode="&#xc4;" 
d="M501 1266c86 0 140 59 140 134c0 83 -61 133 -140 133s-139 -55 -139 -133c0 -77 60 -134 139 -134zM969 1266c86 0 140 59 140 134c0 83 -60 133 -140 133c-79 0 -139 -55 -139 -133c0 -77 61 -134 139 -134zM46 169v-169h545v169h-162l85 252h388l85 -252h-167v-169
h620v169h-143l-312 815h132v168h-754v-168h136l-306 -815h-147zM857 568h-299l144 409h16z" />
    <glyph glyph-name="Aring" unicode="&#xc5;" 
d="M734 1333c-60 0 -93 40 -93 92s33 92 93 92c59 0 93 -40 93 -92s-34 -92 -93 -92zM734 1247c118 0 189 78 189 179c0 100 -70 175 -189 176c-120 -1 -189 -76 -189 -176c0 -101 71 -179 189 -179zM46 169v-169h545v169h-162l85 252h388l85 -252h-167v-169h620v169h-143
l-312 815h132v168h-754v-168h136l-306 -815h-147zM857 568h-299l144 409h16z" />
    <glyph glyph-name="AE" unicode="&#xc6;" horiz-adv-x="1919" 
d="M5 0h549v169h-118l138 244h354v-244h-147v-169h1068v367h-178v-198h-459v355h260v-125h114v390h-114v-132h-261v327h458v-192h178v360h-1304v-168h118l-502 -815h-154v-169zM640 544l264 440h24v-440h-288z" />
    <glyph glyph-name="Ccedilla" unicode="&#xc7;" horiz-adv-x="1396" 
d="M696 -402c96 0 176 41 176 143c0 66 -49 128 -154 143l29 121h-98l-67 -177c78 -5 117 -28 117 -69c0 -44 -31 -60 -76 -60c-38 0 -84 11 -128 27v-78c61 -31 135 -50 201 -50zM724 -22c297 1 509 126 582 396l-211 75c-45 -201 -193 -275 -356 -275
c-230 0 -369 170 -369 404c0 237 144 400 368 400c151 0 272 -60 343 -219h193v395h-188v-121c-58 60 -174 141 -361 141c-380 0 -638 -238 -638 -602c0 -342 239 -593 637 -594z" />
    <glyph glyph-name="Egrave" unicode="&#xc8;" horiz-adv-x="1224" 
d="M566 1301h153l-107 338h-258zM944 385v-216h-447v347h264v-110h103v400h-104v-118h-263v294l445 2v-196h206v364h-1095v-168h161v-816h-161v-168h1099v385h-208z" />
    <glyph glyph-name="Eacute" unicode="&#xc9;" horiz-adv-x="1224" 
d="M944 385v-216h-447v347h264v-110h103v400h-104v-118h-263v294l445 2v-196h206v364h-1095v-168h161v-816h-161v-168h1099v385h-208zM567 1301h153l213 338h-259z" />
    <glyph glyph-name="Ecircumflex" unicode="&#xca;" horiz-adv-x="1224" 
d="M944 385v-216h-447v347h264v-110h103v400h-104v-118h-263v294l445 2v-196h206v364h-1095v-168h161v-816h-161v-168h1099v385h-208zM342 1268h162l135 250l134 -250h166l-138 343h-325z" />
    <glyph glyph-name="Edieresis" unicode="&#xcb;" horiz-adv-x="1224" 
d="M944 385v-216h-447v347h264v-110h103v400h-104v-118h-263v294l445 2v-196h206v364h-1095v-168h161v-816h-161v-168h1099v385h-208zM412 1266c86 0 140 59 140 134c0 83 -61 133 -140 133s-139 -55 -139 -133c0 -77 60 -134 139 -134zM880 1266c86 0 140 59 140 134
c0 83 -60 133 -140 133c-79 0 -139 -55 -139 -133c0 -77 61 -134 139 -134z" />
    <glyph glyph-name="Igrave" unicode="&#xcc;" horiz-adv-x="757" 
d="M298 1300h153l-107 338h-258zM76 168v-168h605v168h-161v816h161v168h-605v-168h161v-816h-161z" />
    <glyph glyph-name="Iacute" unicode="&#xcd;" horiz-adv-x="757" 
d="M299 1300h153l213 338h-259zM76 168v-168h605v168h-161v816h161v168h-605v-168h161v-816h-161z" />
    <glyph glyph-name="Icircumflex" unicode="&#xce;" horiz-adv-x="757" 
d="M75 1267h162l135 250l134 -250h166l-138 343h-325zM76 168v-168h605v168h-161v816h161v168h-605v-168h161v-816h-161z" />
    <glyph glyph-name="Idieresis" unicode="&#xcf;" horiz-adv-x="757" 
d="M144 1265c86 0 140 59 140 134c0 83 -61 133 -140 133s-139 -55 -139 -133c0 -77 60 -134 139 -134zM612 1265c86 0 140 59 140 134c0 83 -60 133 -140 133c-79 0 -139 -55 -139 -133c0 -77 61 -134 139 -134zM76 168v-168h605v168h-161v816h161v168h-605v-168h161v-816
h-161z" />
    <glyph glyph-name="Eth" unicode="&#xd0;" horiz-adv-x="1452" 
d="M53 1152v-168h162v-815h-162v-169h668c430 0 646 220 646 588c0 306 -210 564 -646 564h-668zM499 169v815h215c248 0 355 -179 355 -399c0 -254 -105 -416 -360 -416h-210zM105 523h519v170h-519v-170z" />
    <glyph glyph-name="Ntilde" unicode="&#xd1;" horiz-adv-x="1565" 
d="M944 1253c124 -1 171 105 183 248h-108c-10 -48 -34 -67 -68 -67c-73 0 -212 82 -314 82c-101 0 -182 -66 -196 -245h110c7 48 33 64 67 64c89 0 232 -82 326 -82zM53 169v-169h544v169h-171v715l670 -884h246v984h184v168h-550v-168h169v-608l-598 776h-494v-168h178
v-815h-178z" />
    <glyph glyph-name="Ograve" unicode="&#xd2;" horiz-adv-x="1491" 
d="M662 1300h153l-107 338h-258zM745 -22c384 -2 659 245 659 594c0 351 -275 602 -660 602c-383 0 -657 -251 -657 -601s274 -597 658 -595zM744 174c-212 0 -365 169 -365 402c0 237 153 404 366 403c212 1 365 -166 365 -403c0 -233 -153 -402 -366 -402z" />
    <glyph glyph-name="Oacute" unicode="&#xd3;" horiz-adv-x="1491" 
d="M745 -22c384 -2 659 245 659 594c0 351 -275 602 -660 602c-383 0 -657 -251 -657 -601s274 -597 658 -595zM744 174c-212 0 -365 169 -365 402c0 237 153 404 366 403c212 1 365 -166 365 -403c0 -233 -153 -402 -366 -402zM663 1300h153l213 338h-259z" />
    <glyph glyph-name="Ocircumflex" unicode="&#xd4;" horiz-adv-x="1491" 
d="M745 -22c384 -2 659 245 659 594c0 351 -275 602 -660 602c-383 0 -657 -251 -657 -601s274 -597 658 -595zM744 174c-212 0 -365 169 -365 402c0 237 153 404 366 403c212 1 365 -166 365 -403c0 -233 -153 -402 -366 -402zM438 1267h162l135 250l134 -250h166l-138 343
h-325z" />
    <glyph glyph-name="Otilde" unicode="&#xd5;" horiz-adv-x="1491" 
d="M898 1252c124 -1 171 105 183 248h-108c-10 -48 -34 -67 -68 -67c-73 0 -212 82 -314 82c-101 0 -182 -66 -196 -245h110c7 48 33 64 67 64c89 0 232 -82 326 -82zM745 -22c384 -2 659 245 659 594c0 351 -275 602 -660 602c-383 0 -657 -251 -657 -601
s274 -597 658 -595zM744 174c-212 0 -365 169 -365 402c0 237 153 404 366 403c212 1 365 -166 365 -403c0 -233 -153 -402 -366 -402z" />
    <glyph glyph-name="Odieresis" unicode="&#xd6;" horiz-adv-x="1491" 
d="M745 -22c384 -2 659 245 659 594c0 351 -275 602 -660 602c-383 0 -657 -251 -657 -601s274 -597 658 -595zM744 174c-212 0 -365 169 -365 402c0 237 153 404 366 403c212 1 365 -166 365 -403c0 -233 -153 -402 -366 -402zM508 1265c86 0 140 59 140 134
c0 83 -61 133 -140 133s-139 -55 -139 -133c0 -77 60 -134 139 -134zM976 1265c86 0 140 59 140 134c0 83 -60 133 -140 133c-79 0 -139 -55 -139 -133c0 -77 61 -134 139 -134z" />
    <glyph glyph-name="multiply" unicode="&#xd7;" horiz-adv-x="1028" 
d="M242 119l270 265l267 -260l115 115l-265 260l270 266l-112 113l-272 -266l-266 261l-115 -115l265 -262l-270 -265z" />
    <glyph glyph-name="Oslash" unicode="&#xd8;" horiz-adv-x="1504" 
d="M335 -89l967 1243l-116 83l-967 -1244zM745 -22c384 -2 659 245 659 594c0 351 -275 602 -660 602c-383 0 -657 -251 -657 -601s274 -597 658 -595zM744 174c-212 0 -365 169 -365 402c0 237 153 404 366 403c212 1 365 -166 365 -403c0 -233 -153 -402 -366 -402z" />
    <glyph glyph-name="Ugrave" unicode="&#xd9;" horiz-adv-x="1430" 
d="M678 1301h153l-107 338h-258zM728 -20c312 0 504 147 504 466v538h163v168h-533v-168h164v-544c0 -176 -93 -271 -276 -271c-173 0 -263 96 -263 268v547h173v168h-616v-168h160v-526c0 -290 146 -478 524 -478z" />
    <glyph glyph-name="Uacute" unicode="&#xda;" horiz-adv-x="1430" 
d="M728 -20c312 0 504 147 504 466v538h163v168h-533v-168h164v-544c0 -176 -93 -271 -276 -271c-173 0 -263 96 -263 268v547h173v168h-616v-168h160v-526c0 -290 146 -478 524 -478zM679 1301h153l213 338h-259z" />
    <glyph glyph-name="Ucircumflex" unicode="&#xdb;" horiz-adv-x="1430" 
d="M728 -20c312 0 504 147 504 466v538h163v168h-533v-168h164v-544c0 -176 -93 -271 -276 -271c-173 0 -263 96 -263 268v547h173v168h-616v-168h160v-526c0 -290 146 -478 524 -478zM454 1268h162l135 250l134 -250h166l-138 343h-325z" />
    <glyph glyph-name="Udieresis" unicode="&#xdc;" horiz-adv-x="1430" 
d="M728 -20c312 0 504 147 504 466v538h163v168h-533v-168h164v-544c0 -176 -93 -271 -276 -271c-173 0 -263 96 -263 268v547h173v168h-616v-168h160v-526c0 -290 146 -478 524 -478zM524 1266c86 0 140 59 140 134c0 83 -61 133 -140 133s-139 -55 -139 -133
c0 -77 60 -134 139 -134zM992 1266c86 0 140 59 140 134c0 83 -60 133 -140 133c-79 0 -139 -55 -139 -133c0 -77 61 -134 139 -134z" />
    <glyph glyph-name="Yacute" unicode="&#xdd;" horiz-adv-x="1363" 
d="M609 1300h153l213 338h-259zM361 169v-169h638v169h-179v319l354 496h162v168h-532v-168h133l-227 -340l-240 340h135v168h-594v-168h156l371 -499v-316h-177z" />
    <glyph glyph-name="Thorn" unicode="&#xde;" horiz-adv-x="1181" 
d="M567 458v-132h98c364 0 502 95 502 282c0 192 -159 280 -452 280h-219v96h161v168h-605v-168h161v-816h-161v-168h605v168h-161v579h214c102 0 175 -47 175 -139c0 -98 -61 -150 -196 -150h-122z" />
    <glyph glyph-name="germandbls" unicode="&#xdf;" horiz-adv-x="1202" 
d="M45 0h505v169h-107v701c0 144 86 236 200 236c91 0 158 -53 158 -146c0 -116 -83 -194 -225 -194v-157c183 -2 287 -88 291 -216c4 -125 -79 -224 -227 -224v-169c344 0 506 164 501 403c-3 165 -132 280 -311 313c129 41 203 149 203 262c1 193 -146 317 -394 317
c-295 0 -455 -169 -455 -437v-689h-139v-169z" />
    <glyph glyph-name="agrave" unicode="&#xe0;" horiz-adv-x="964" 
d="M364 953h153l-107 338h-258zM342 -22c104 0 185 29 257 84l16 -62h328v169h-121v353c0 207 -170 303 -379 303c-121 0 -264 -32 -368 -99l67 -152c105 54 213 76 280 76c97 0 152 -47 152 -142v-50c-53 11 -109 19 -166 19c-178 0 -352 -67 -352 -251
c0 -149 121 -248 286 -248zM399 125c-67 0 -112 42 -112 105c0 94 74 120 148 120c62 0 108 -9 139 -19v-141c-52 -42 -116 -65 -175 -65z" />
    <glyph glyph-name="aacute" unicode="&#xe1;" horiz-adv-x="964" 
d="M365 953h153l213 338h-259zM342 -22c104 0 185 29 257 84l16 -62h328v169h-121v353c0 207 -170 303 -379 303c-121 0 -264 -32 -368 -99l67 -152c105 54 213 76 280 76c97 0 152 -47 152 -142v-50c-53 11 -109 19 -166 19c-178 0 -352 -67 -352 -251
c0 -149 121 -248 286 -248zM399 125c-67 0 -112 42 -112 105c0 94 74 120 148 120c62 0 108 -9 139 -19v-141c-52 -42 -116 -65 -175 -65z" />
    <glyph glyph-name="acircumflex" unicode="&#xe2;" horiz-adv-x="964" 
d="M140 920h162l135 250l134 -250h166l-138 343h-325zM342 -22c104 0 185 29 257 84l16 -62h328v169h-121v353c0 207 -170 303 -379 303c-121 0 -264 -32 -368 -99l67 -152c105 54 213 76 280 76c97 0 152 -47 152 -142v-50c-53 11 -109 19 -166 19
c-178 0 -352 -67 -352 -251c0 -149 121 -248 286 -248zM399 125c-67 0 -112 42 -112 105c0 94 74 120 148 120c62 0 108 -9 139 -19v-141c-52 -42 -116 -65 -175 -65z" />
    <glyph glyph-name="atilde" unicode="&#xe3;" horiz-adv-x="964" 
d="M600 905c124 -1 171 105 183 248h-108c-10 -48 -34 -67 -68 -67c-73 0 -212 82 -314 82c-101 0 -182 -66 -196 -245h110c7 48 33 64 67 64c89 0 232 -82 326 -82zM342 -22c104 0 185 29 257 84l16 -62h328v169h-121v353c0 207 -170 303 -379 303
c-121 0 -264 -32 -368 -99l67 -152c105 54 213 76 280 76c97 0 152 -47 152 -142v-50c-53 11 -109 19 -166 19c-178 0 -352 -67 -352 -251c0 -149 121 -248 286 -248zM399 125c-67 0 -112 42 -112 105c0 94 74 120 148 120c62 0 108 -9 139 -19v-141
c-52 -42 -116 -65 -175 -65z" />
    <glyph glyph-name="adieresis" unicode="&#xe4;" horiz-adv-x="964" 
d="M210 918c86 0 140 59 140 134c0 83 -61 133 -140 133s-139 -55 -139 -133c0 -77 60 -134 139 -134zM678 918c86 0 140 59 140 134c0 83 -60 133 -140 133c-79 0 -139 -55 -139 -133c0 -77 61 -134 139 -134zM342 -22c104 0 185 29 257 84l16 -62h328v169h-121v353
c0 207 -170 303 -379 303c-121 0 -264 -32 -368 -99l67 -152c105 54 213 76 280 76c97 0 152 -47 152 -142v-50c-53 11 -109 19 -166 19c-178 0 -352 -67 -352 -251c0 -149 121 -248 286 -248zM399 125c-67 0 -112 42 -112 105c0 94 74 120 148 120c62 0 108 -9 139 -19
v-141c-52 -42 -116 -65 -175 -65z" />
    <glyph glyph-name="aring" unicode="&#xe5;" horiz-adv-x="964" 
d="M443 985c-60 0 -93 40 -93 92s33 92 93 92c59 0 93 -40 93 -92s-34 -92 -93 -92zM443 899c118 0 189 78 189 179c0 100 -70 175 -189 176c-120 -1 -189 -76 -189 -176c0 -101 71 -179 189 -179zM342 -22c104 0 185 29 257 84l16 -62h328v169h-121v353
c0 207 -170 303 -379 303c-121 0 -264 -32 -368 -99l67 -152c105 54 213 76 280 76c97 0 152 -47 152 -142v-50c-53 11 -109 19 -166 19c-178 0 -352 -67 -352 -251c0 -149 121 -248 286 -248zM399 125c-67 0 -112 42 -112 105c0 94 74 120 148 120c62 0 108 -9 139 -19
v-141c-52 -42 -116 -65 -175 -65z" />
    <glyph glyph-name="ae" unicode="&#xe6;" horiz-adv-x="1472" 
d="M386 -22c105 0 195 23 328 109c81 -68 194 -107 330 -107c156 0 293 59 365 135l-76 136c-90 -67 -179 -95 -265 -95c-131 0 -223 76 -231 205h580c0 280 -146 465 -396 465c-119 0 -231 -38 -294 -106c-55 68 -168 105 -283 105c-126 0 -268 -33 -373 -101l68 -150
c105 54 212 76 285 76c96 0 155 -47 155 -142v-52c-54 12 -112 19 -169 19c-176 0 -350 -65 -350 -249c0 -211 215 -248 326 -248zM422 121c-61 0 -133 22 -133 106c0 94 69 121 146 121c48 0 111 -9 146 -12c7 -50 23 -100 44 -141c-48 -36 -113 -74 -203 -74zM839 491
c17 107 86 178 187 178c102 0 158 -71 163 -178h-350z" />
    <glyph glyph-name="ccedilla" unicode="&#xe7;" horiz-adv-x="971" 
d="M522 -402c96 0 176 41 176 143c0 66 -49 128 -154 143l29 121h-98l-67 -177c78 -5 117 -28 117 -69c0 -44 -31 -60 -76 -60c-38 0 -84 11 -128 27v-78c61 -31 135 -50 201 -50zM513 -20c163 0 301 69 390 168l-89 136c-71 -70 -157 -129 -291 -125
c-133 4 -219 107 -219 255c0 141 89 231 209 235c109 3 190 -53 219 -179h167v337h-184l-3 -77c-31 55 -131 96 -222 96c-264 0 -442 -173 -442 -416c0 -260 184 -430 465 -430z" />
    <glyph glyph-name="egrave" unicode="&#xe8;" horiz-adv-x="940" 
d="M403 953h153l-107 338h-258zM511 -20c153 0 294 60 370 135l-77 136c-77 -56 -166 -95 -270 -95c-125 0 -222 76 -231 205h585c0 280 -159 465 -400 465c-268 0 -444 -170 -444 -428c0 -252 185 -418 467 -418zM306 491c17 107 92 178 187 178s162 -71 167 -178h-354z
" />
    <glyph glyph-name="eacute" unicode="&#xe9;" horiz-adv-x="940" 
d="M511 -20c153 0 294 60 370 135l-77 136c-77 -56 -166 -95 -270 -95c-125 0 -222 76 -231 205h585c0 280 -159 465 -400 465c-268 0 -444 -170 -444 -428c0 -252 185 -418 467 -418zM306 491c17 107 92 178 187 178s162 -71 167 -178h-354zM418 953h153l213 338h-259z" />
    <glyph glyph-name="ecircumflex" unicode="&#xea;" horiz-adv-x="940" 
d="M511 -20c153 0 294 60 370 135l-77 136c-77 -56 -166 -95 -270 -95c-125 0 -222 76 -231 205h585c0 280 -159 465 -400 465c-268 0 -444 -170 -444 -428c0 -252 185 -418 467 -418zM306 491c17 107 92 178 187 178s162 -71 167 -178h-354zM179 920h162l135 250l134 -250
h166l-138 343h-325z" />
    <glyph glyph-name="edieresis" unicode="&#xeb;" horiz-adv-x="940" 
d="M511 -20c153 0 294 60 370 135l-77 136c-77 -56 -166 -95 -270 -95c-125 0 -222 76 -231 205h585c0 280 -159 465 -400 465c-268 0 -444 -170 -444 -428c0 -252 185 -418 467 -418zM306 491c17 107 92 178 187 178s162 -71 167 -178h-354zM249 918c86 0 140 59 140 134
c0 83 -61 133 -140 133s-139 -55 -139 -133c0 -77 60 -134 139 -134zM717 918c86 0 140 59 140 134c0 83 -60 133 -140 133c-79 0 -139 -55 -139 -133c0 -77 61 -134 139 -134z" />
    <glyph glyph-name="igrave" unicode="&#xec;" horiz-adv-x="731" 
d="M287 952h153l-107 338h-258zM140 0h502v168h-119v636h-379v-168h131v-468h-135v-168z" />
    <glyph glyph-name="iacute" unicode="&#xed;" horiz-adv-x="731" 
d="M140 0h502v168h-119v636h-379v-168h131v-468h-135v-168zM302 952h153l213 338h-259z" />
    <glyph glyph-name="icircumflex" unicode="&#xee;" horiz-adv-x="731" 
d="M140 0h502v168h-119v636h-379v-168h131v-468h-135v-168zM64 919h162l135 250l134 -250h166l-138 343h-325z" />
    <glyph glyph-name="idieresis" unicode="&#xef;" horiz-adv-x="731" 
d="M140 0h502v168h-119v636h-379v-168h131v-468h-135v-168zM133 917c86 0 140 59 140 134c0 83 -61 133 -140 133s-139 -55 -139 -133c0 -77 60 -134 139 -134zM601 917c86 0 140 59 140 134c0 83 -60 133 -140 133c-79 0 -139 -55 -139 -133c0 -77 61 -134 139 -134z" />
    <glyph glyph-name="eth" unicode="&#xf0;" horiz-adv-x="1040" 
d="M546 -20c274 0 449 201 449 441c0 569 -370 801 -641 989l-106 -136c212 -148 407 -319 501 -542c0 -1 -83 58 -233 58c-234 0 -392 -183 -392 -386c0 -234 141 -424 422 -424zM559 163c-124 0 -202 104 -202 246c0 133 72 220 196 220c122 0 214 -81 214 -222
c0 -135 -67 -244 -208 -244zM330 886l623 290l-69 143l-622 -288z" />
    <glyph glyph-name="ntilde" unicode="&#xf1;" horiz-adv-x="1149" 
d="M767 905c124 -1 171 105 183 248h-108c-10 -48 -34 -67 -68 -67c-73 0 -212 82 -314 82c-101 0 -182 -66 -196 -245h110c7 48 33 64 67 64c89 0 232 -82 326 -82zM1001 168v353c1 205 -126 305 -278 305c-106 0 -202 -43 -293 -115v93h-379v-168h131v-468h-134v-168h501
v168h-119v405c60 41 128 65 195 65c78 0 128 -53 128 -163v-307h-107v-168h495v168h-140z" />
    <glyph glyph-name="ograve" unicode="&#xf2;" horiz-adv-x="1006" 
d="M502 -22c271 0 458 176 458 431c0 246 -186 417 -457 417s-458 -171 -458 -417c0 -255 186 -431 457 -431zM502 156c-119 -1 -201 102 -201 252c0 141 82 240 201 240s202 -98 202 -240c0 -150 -83 -253 -202 -252zM416 962h153l-107 338h-258z" />
    <glyph glyph-name="oacute" unicode="&#xf3;" horiz-adv-x="1006" 
d="M502 -22c271 0 458 176 458 431c0 246 -186 417 -457 417s-458 -171 -458 -417c0 -255 186 -431 457 -431zM502 156c-119 -1 -201 102 -201 252c0 141 82 240 201 240s202 -98 202 -240c0 -150 -83 -253 -202 -252zM431 962h153l213 338h-259z" />
    <glyph glyph-name="ocircumflex" unicode="&#xf4;" horiz-adv-x="1006" 
d="M502 -22c271 0 458 176 458 431c0 246 -186 417 -457 417s-458 -171 -458 -417c0 -255 186 -431 457 -431zM502 156c-119 -1 -201 102 -201 252c0 141 82 240 201 240s202 -98 202 -240c0 -150 -83 -253 -202 -252zM193 929h162l135 250l134 -250h166l-138 343h-325z" />
    <glyph glyph-name="otilde" unicode="&#xf5;" horiz-adv-x="1006" 
d="M653 914c124 -1 171 105 183 248h-108c-10 -48 -34 -67 -68 -67c-73 0 -212 82 -314 82c-101 0 -182 -66 -196 -245h110c7 48 33 64 67 64c89 0 232 -82 326 -82zM502 -22c271 0 458 176 458 431c0 246 -186 417 -457 417s-458 -171 -458 -417c0 -255 186 -431 457 -431z
M502 156c-119 -1 -201 102 -201 252c0 141 82 240 201 240s202 -98 202 -240c0 -150 -83 -253 -202 -252z" />
    <glyph glyph-name="odieresis" unicode="&#xf6;" horiz-adv-x="1006" 
d="M502 -22c271 0 458 176 458 431c0 246 -186 417 -457 417s-458 -171 -458 -417c0 -255 186 -431 457 -431zM502 156c-119 -1 -201 102 -201 252c0 141 82 240 201 240s202 -98 202 -240c0 -150 -83 -253 -202 -252zM262 927c86 0 140 59 140 134c0 83 -61 133 -140 133
s-139 -55 -139 -133c0 -77 60 -134 139 -134zM730 927c86 0 140 59 140 134c0 83 -60 133 -140 133c-79 0 -139 -55 -139 -133c0 -77 61 -134 139 -134z" />
    <glyph glyph-name="divide" unicode="&#xf7;" horiz-adv-x="895" 
d="M344 120h209v194h-209v-194zM48 468h799v146h-799v-146zM344 764h209v195h-209v-195z" />
    <glyph glyph-name="oslash" unicode="&#xf8;" horiz-adv-x="1007" 
d="M296 -120l517 1009l-94 43l-517 -1009zM502 -22c271 0 458 176 458 431c0 246 -186 417 -457 417s-458 -171 -458 -417c0 -255 186 -431 457 -431zM502 156c-119 -1 -201 102 -201 252c0 141 82 240 201 240s202 -98 202 -240c0 -150 -83 -253 -202 -252z" />
    <glyph glyph-name="ugrave" unicode="&#xf9;" horiz-adv-x="1123" 
d="M441 953h153l-107 338h-258zM426 -20c112 0 204 41 288 112l3 -92h382v169h-137v635h-381v-168h133v-377c-56 -58 -131 -93 -202 -93c-80 0 -126 47 -126 153v485h-369v-168h120v-358c0 -171 83 -298 289 -298z" />
    <glyph glyph-name="uacute" unicode="&#xfa;" horiz-adv-x="1123" 
d="M426 -20c112 0 204 41 288 112l3 -92h382v169h-137v635h-381v-168h133v-377c-56 -58 -131 -93 -202 -93c-80 0 -126 47 -126 153v485h-369v-168h120v-358c0 -171 83 -298 289 -298zM456 953h153l213 338h-259z" />
    <glyph glyph-name="ucircumflex" unicode="&#xfb;" horiz-adv-x="1123" 
d="M426 -20c112 0 204 41 288 112l3 -92h382v169h-137v635h-381v-168h133v-377c-56 -58 -131 -93 -202 -93c-80 0 -126 47 -126 153v485h-369v-168h120v-358c0 -171 83 -298 289 -298zM217 920h162l135 250l134 -250h166l-138 343h-325z" />
    <glyph glyph-name="udieresis" unicode="&#xfc;" horiz-adv-x="1123" 
d="M426 -20c112 0 204 41 288 112l3 -92h382v169h-137v635h-381v-168h133v-377c-56 -58 -131 -93 -202 -93c-80 0 -126 47 -126 153v485h-369v-168h120v-358c0 -171 83 -298 289 -298zM287 918c86 0 140 59 140 134c0 83 -61 133 -140 133s-139 -55 -139 -133
c0 -77 60 -134 139 -134zM755 918c86 0 140 59 140 134c0 83 -60 133 -140 133c-79 0 -139 -55 -139 -133c0 -77 61 -134 139 -134z" />
    <glyph glyph-name="yacute" unicode="&#xfd;" horiz-adv-x="1115" 
d="M501 953h153l213 338h-259zM200 -171v-189h122c218 0 262 94 352 298l312 698h125v168h-488v-168h118l-165 -406l-192 406h106v168h-483v-168h138l288 -578h78l-39 -101c-46 -119 -95 -128 -171 -128h-101z" />
    <glyph glyph-name="thorn" unicode="&#xfe;" horiz-adv-x="1168" 
d="M430 741v410h-401v-167h152v-1169h-144v-170h393v439c73 -62 162 -92 253 -92c209 0 411 155 411 438c0 255 -166 408 -388 408c-93 0 -191 -33 -276 -97zM430 220v367c57 51 121 76 180 76c143 0 222 -107 222 -249c0 -170 -106 -259 -236 -259c-55 0 -116 22 -166 65z
" />
    <glyph glyph-name="ydieresis" unicode="&#xff;" horiz-adv-x="1115" 
d="M200 -171v-189h122c218 0 262 94 352 298l312 698h125v168h-488v-168h118l-165 -406l-192 406h106v168h-483v-168h138l288 -578h78l-39 -101c-46 -119 -95 -128 -171 -128h-101zM332 918c86 0 140 59 140 134c0 83 -61 133 -140 133s-139 -55 -139 -133
c0 -77 60 -134 139 -134zM800 918c86 0 140 59 140 134c0 83 -60 133 -140 133c-79 0 -139 -55 -139 -133c0 -77 61 -134 139 -134z" />
    <glyph glyph-name="Amacron" unicode="&#x100;" 
d="M479 1309h488v129h-488v-129zM46 169v-169h545v169h-162l85 252h388l85 -252h-167v-169h620v169h-143l-312 815h132v168h-754v-168h136l-306 -815h-147zM857 568h-299l144 409h16z" />
    <glyph glyph-name="amacron" unicode="&#x101;" horiz-adv-x="964" 
d="M187 961h488v129h-488v-129zM342 -22c104 0 185 29 257 84l16 -62h328v169h-121v353c0 207 -170 303 -379 303c-121 0 -264 -32 -368 -99l67 -152c105 54 213 76 280 76c97 0 152 -47 152 -142v-50c-53 11 -109 19 -166 19c-178 0 -352 -67 -352 -251
c0 -149 121 -248 286 -248zM399 125c-67 0 -112 42 -112 105c0 94 74 120 148 120c62 0 108 -9 139 -19v-141c-52 -42 -116 -65 -175 -65z" />
    <glyph glyph-name="Abreve" unicode="&#x102;" 
d="M731 1255c171 0 280 104 295 277h-163c-9 -80 -57 -124 -130 -124c-76 0 -122 44 -135 124h-156c11 -174 120 -277 289 -277zM46 169v-169h545v169h-162l85 252h388l85 -252h-167v-169h620v169h-143l-312 815h132v168h-754v-168h136l-306 -815h-147zM857 568h-299
l144 409h16z" />
    <glyph glyph-name="abreve" unicode="&#x103;" horiz-adv-x="964" 
d="M440 907c171 0 280 104 295 277h-163c-9 -80 -57 -124 -130 -124c-76 0 -122 44 -135 124h-156c11 -174 120 -277 289 -277zM342 -22c104 0 185 29 257 84l16 -62h328v169h-121v353c0 207 -170 303 -379 303c-121 0 -264 -32 -368 -99l67 -152c105 54 213 76 280 76
c97 0 152 -47 152 -142v-50c-53 11 -109 19 -166 19c-178 0 -352 -67 -352 -251c0 -149 121 -248 286 -248zM399 125c-67 0 -112 42 -112 105c0 94 74 120 148 120c62 0 108 -9 139 -19v-141c-52 -42 -116 -65 -175 -65z" />
    <glyph glyph-name="Aogonek" unicode="&#x104;" 
d="M1217 -376c49 0 88 11 147 38v119c-29 -11 -53 -16 -80 -16c-72 0 -109 40 -109 109c0 37 11 84 49 135h-114c-57 -77 -78 -145 -78 -205c0 -105 73 -180 185 -180zM46 169v-169h545v169h-162l85 252h388l85 -252h-167v-169h620v169h-143l-312 815h132v168h-754v-168h136
l-306 -815h-147zM857 568h-299l144 409h16z" />
    <glyph glyph-name="aogonek" unicode="&#x105;" horiz-adv-x="964" 
d="M798 -376c49 0 88 11 147 38v119c-29 -11 -53 -16 -80 -16c-72 0 -109 40 -109 109c0 37 11 84 49 135h-114c-57 -77 -78 -145 -78 -205c0 -105 73 -180 185 -180zM342 -22c104 0 185 29 257 84l16 -62h328v169h-121v353c0 207 -170 303 -379 303
c-121 0 -264 -32 -368 -99l67 -152c105 54 213 76 280 76c97 0 152 -47 152 -142v-50c-53 11 -109 19 -166 19c-178 0 -352 -67 -352 -251c0 -149 121 -248 286 -248zM399 125c-67 0 -112 42 -112 105c0 94 74 120 148 120c62 0 108 -9 139 -19v-141
c-52 -42 -116 -65 -175 -65z" />
    <glyph glyph-name="Cacute" unicode="&#x106;" horiz-adv-x="1396" 
d="M724 -22c297 1 509 126 582 396l-211 75c-45 -201 -193 -275 -356 -275c-230 0 -369 170 -369 404c0 237 144 400 368 400c151 0 272 -60 343 -219h193v395h-188v-121c-58 60 -174 141 -361 141c-380 0 -638 -238 -638 -602c0 -342 239 -593 637 -594zM650 1301h153
l213 338h-259z" />
    <glyph glyph-name="cacute" unicode="&#x107;" horiz-adv-x="971" 
d="M513 -20c163 0 301 69 390 168l-89 136c-71 -70 -157 -129 -291 -125c-133 4 -219 107 -219 255c0 141 89 231 209 235c109 3 190 -53 219 -179h167v337h-184l-3 -77c-31 55 -131 96 -222 96c-264 0 -442 -173 -442 -416c0 -260 184 -430 465 -430zM470 953h153l213 338
h-259z" />
    <glyph glyph-name="Ccircumflex" unicode="&#x108;" horiz-adv-x="1396" 
d="M724 -22c297 1 509 126 582 396l-211 75c-45 -201 -193 -275 -356 -275c-230 0 -369 170 -369 404c0 237 144 400 368 400c151 0 272 -60 343 -219h193v395h-188v-121c-58 60 -174 141 -361 141c-380 0 -638 -238 -638 -602c0 -342 239 -593 637 -594zM426 1268h162
l135 250l134 -250h166l-138 343h-325z" />
    <glyph glyph-name="ccircumflex" unicode="&#x109;" horiz-adv-x="971" 
d="M513 -20c163 0 301 69 390 168l-89 136c-71 -70 -157 -129 -291 -125c-133 4 -219 107 -219 255c0 141 89 231 209 235c109 3 190 -53 219 -179h167v337h-184l-3 -77c-31 55 -131 96 -222 96c-264 0 -442 -173 -442 -416c0 -260 184 -430 465 -430zM232 920h162l135 250
l134 -250h166l-138 343h-325z" />
    <glyph glyph-name="Cdotaccent" unicode="&#x10a;" horiz-adv-x="1396" 
d="M728 1315c93 0 160 63 160 152c0 87 -67 151 -160 151c-91 0 -158 -64 -158 -151c0 -89 67 -152 158 -152zM724 -22c297 1 509 126 582 396l-211 75c-45 -201 -193 -275 -356 -275c-230 0 -369 170 -369 404c0 237 144 400 368 400c151 0 272 -60 343 -219h193v395h-188
v-121c-58 60 -174 141 -361 141c-380 0 -638 -238 -638 -602c0 -342 239 -593 637 -594z" />
    <glyph glyph-name="cdotaccent" unicode="&#x10b;" horiz-adv-x="971" 
d="M534 967c93 0 160 63 160 152c0 87 -67 151 -160 151c-91 0 -158 -64 -158 -151c0 -89 67 -152 158 -152zM513 -20c163 0 301 69 390 168l-89 136c-71 -70 -157 -129 -291 -125c-133 4 -219 107 -219 255c0 141 89 231 209 235c109 3 190 -53 219 -179h167v337h-184
l-3 -77c-31 55 -131 96 -222 96c-264 0 -442 -173 -442 -416c0 -260 184 -430 465 -430z" />
    <glyph glyph-name="Ccaron" unicode="&#x10c;" horiz-adv-x="1396" 
d="M724 -22c297 1 509 126 582 396l-211 75c-45 -201 -193 -275 -356 -275c-230 0 -369 170 -369 404c0 237 144 400 368 400c151 0 272 -60 343 -219h193v395h-188v-121c-58 60 -174 141 -361 141c-380 0 -638 -238 -638 -602c0 -342 239 -593 637 -594zM597 1266h262
l151 332h-163l-118 -214l-123 214h-170z" />
    <glyph glyph-name="ccaron" unicode="&#x10d;" horiz-adv-x="971" 
d="M513 -20c163 0 301 69 390 168l-89 136c-71 -70 -157 -129 -291 -125c-133 4 -219 107 -219 255c0 141 89 231 209 235c109 3 190 -53 219 -179h167v337h-184l-3 -77c-31 55 -131 96 -222 96c-264 0 -442 -173 -442 -416c0 -260 184 -430 465 -430zM403 918h262l151 332
h-163l-118 -214l-123 214h-170z" />
    <glyph glyph-name="Dcaron" unicode="&#x10e;" horiz-adv-x="1452" 
d="M53 1152v-168h162v-815h-162v-169h668c430 0 646 220 646 588c0 306 -210 564 -646 564h-668zM499 169v815h215c248 0 355 -179 355 -399c0 -254 -105 -416 -360 -416h-210zM525 1265h262l151 332h-163l-118 -214l-123 214h-170z" />
    <glyph glyph-name="dcaron" unicode="&#x10f;" horiz-adv-x="1100" 
d="M942 168v1006h-397v-168h148v-255c-75 47 -159 74 -242 74c-222 0 -400 -154 -400 -430c0 -262 190 -417 424 -417c77 0 151 21 218 62v-40h359v168h-110zM312 395c0 175 92 256 221 256c50 0 105 -14 160 -42v-417c-55 -26 -111 -39 -161 -39c-124 0 -220 84 -220 242z
M1033 697c195 0 290 79 289 227v250h-289v-225h131c0 -86 -36 -122 -131 -133v-119z" />
    <glyph glyph-name="Dcroat" unicode="&#x110;" horiz-adv-x="1452" 
d="M53 1152v-168h162v-815h-162v-169h668c430 0 646 220 646 588c0 306 -210 564 -646 564h-668zM499 169v815h215c248 0 355 -179 355 -399c0 -254 -105 -416 -360 -416h-210zM105 523h519v170h-519v-170z" />
    <glyph glyph-name="dcroat" unicode="&#x111;" horiz-adv-x="1100" 
d="M942 168v1006h-397v-168h148v-255c-75 47 -159 74 -242 74c-222 0 -400 -154 -400 -430c0 -262 190 -417 424 -417c77 0 151 21 218 62v-40h359v168h-110zM312 395c0 175 92 256 221 256c50 0 105 -14 160 -42v-417c-55 -26 -111 -39 -161 -39c-124 0 -220 84 -220 242z
M573 843h488v129h-488v-129z" />
    <glyph glyph-name="Emacron" unicode="&#x112;" horiz-adv-x="1224" 
d="M390 1309h488v129h-488v-129zM944 385v-216h-447v347h264v-110h103v400h-104v-118h-263v294l445 2v-196h206v364h-1095v-168h161v-816h-161v-168h1099v385h-208z" />
    <glyph glyph-name="emacron" unicode="&#x113;" horiz-adv-x="940" 
d="M227 961h488v129h-488v-129zM511 -20c153 0 294 60 370 135l-77 136c-77 -56 -166 -95 -270 -95c-125 0 -222 76 -231 205h585c0 280 -159 465 -400 465c-268 0 -444 -170 -444 -428c0 -252 185 -418 467 -418zM306 491c17 107 92 178 187 178s162 -71 167 -178h-354z
" />
    <glyph glyph-name="Ebreve" unicode="&#x114;" horiz-adv-x="1224" 
d="M642 1255c171 0 280 104 295 277h-163c-9 -80 -57 -124 -130 -124c-76 0 -122 44 -135 124h-156c11 -174 120 -277 289 -277zM944 385v-216h-447v347h264v-110h103v400h-104v-118h-263v294l445 2v-196h206v364h-1095v-168h161v-816h-161v-168h1099v385h-208z" />
    <glyph glyph-name="ebreve" unicode="&#x115;" horiz-adv-x="940" 
d="M479 907c171 0 280 104 295 277h-163c-9 -80 -57 -124 -130 -124c-76 0 -122 44 -135 124h-156c11 -174 120 -277 289 -277zM511 -20c153 0 294 60 370 135l-77 136c-77 -56 -166 -95 -270 -95c-125 0 -222 76 -231 205h585c0 280 -159 465 -400 465
c-268 0 -444 -170 -444 -428c0 -252 185 -418 467 -418zM306 491c17 107 92 178 187 178s162 -71 167 -178h-354z" />
    <glyph glyph-name="Edotaccent" unicode="&#x116;" horiz-adv-x="1224" 
d="M645 1315c93 0 160 63 160 152c0 87 -67 151 -160 151c-91 0 -158 -64 -158 -151c0 -89 67 -152 158 -152zM944 385v-216h-447v347h264v-110h103v400h-104v-118h-263v294l445 2v-196h206v364h-1095v-168h161v-816h-161v-168h1099v385h-208z" />
    <glyph glyph-name="edotaccent" unicode="&#x117;" horiz-adv-x="940" 
d="M482 967c93 0 160 63 160 152c0 87 -67 151 -160 151c-91 0 -158 -64 -158 -151c0 -89 67 -152 158 -152zM511 -20c153 0 294 60 370 135l-77 136c-77 -56 -166 -95 -270 -95c-125 0 -222 76 -231 205h585c0 280 -159 465 -400 465c-268 0 -444 -170 -444 -428
c0 -252 185 -418 467 -418zM306 491c17 107 92 178 187 178s162 -71 167 -178h-354z" />
    <glyph glyph-name="Eogonek" unicode="&#x118;" horiz-adv-x="1224" 
d="M944 385v-216h-447v347h264v-110h103v400h-104v-118h-263v294l445 2v-196h206v364h-1095v-168h161v-816h-161v-168h1099v385h-208zM808 -376c49 0 88 11 147 38v119c-29 -11 -53 -16 -80 -16c-72 0 -109 40 -109 109c0 37 11 84 49 135h-114c-57 -77 -78 -145 -78 -205
c0 -105 73 -180 185 -180z" />
    <glyph glyph-name="eogonek" unicode="&#x119;" horiz-adv-x="940" 
d="M511 -20c153 0 294 60 370 135l-77 136c-77 -56 -166 -95 -270 -95c-125 0 -222 76 -231 205h585c0 280 -159 465 -400 465c-268 0 -444 -170 -444 -428c0 -252 185 -418 467 -418zM306 491c17 107 92 178 187 178s162 -71 167 -178h-354zM643 -376c49 0 88 11 147 38
v119c-29 -11 -53 -16 -80 -16c-72 0 -109 40 -109 109c0 37 11 84 49 135h-114c-57 -77 -78 -145 -78 -205c0 -105 73 -180 185 -180z" />
    <glyph glyph-name="Ecaron" unicode="&#x11a;" horiz-adv-x="1224" 
d="M944 385v-216h-447v347h264v-110h103v400h-104v-118h-263v294l445 2v-196h206v364h-1095v-168h161v-816h-161v-168h1099v385h-208zM513 1266h262l151 332h-163l-118 -214l-123 214h-170z" />
    <glyph glyph-name="ecaron" unicode="&#x11b;" horiz-adv-x="940" 
d="M511 -20c153 0 294 60 370 135l-77 136c-77 -56 -166 -95 -270 -95c-125 0 -222 76 -231 205h585c0 280 -159 465 -400 465c-268 0 -444 -170 -444 -428c0 -252 185 -418 467 -418zM306 491c17 107 92 178 187 178s162 -71 167 -178h-354zM350 918h262l151 332h-163
l-118 -214l-123 214h-170z" />
    <glyph glyph-name="Gcircumflex" unicode="&#x11c;" horiz-adv-x="1456" 
d="M761 -20c387 0 601 186 605 620h-497v-172h232c-9 -158 -120 -249 -332 -252c-223 0 -384 149 -384 409c0 248 146 394 384 394c160 0 287 -74 361 -229h189v409h-204v-131c-62 79 -206 146 -364 146c-383 0 -659 -232 -659 -589c0 -373 251 -605 669 -605zM459 1268h162
l135 250l134 -250h166l-138 343h-325z" />
    <glyph glyph-name="gcircumflex" unicode="&#x11d;" horiz-adv-x="1099" 
d="M482 -394c252 0 461 97 461 412v620h125v166h-343l-14 -61c-78 52 -166 81 -254 81c-222 0 -400 -151 -400 -422c0 -257 190 -409 424 -409c73 0 145 19 209 57v-63c-3 -145 -82 -198 -213 -198c-85 0 -172 17 -270 47l-44 -176c102 -33 206 -54 319 -54zM538 164
c-123 0 -220 83 -220 238c0 171 92 251 221 251c47 0 99 -15 150 -42l1 -407c-50 -26 -103 -40 -152 -40zM233 920h162l135 250l134 -250h166l-138 343h-325z" />
    <glyph glyph-name="Gbreve" unicode="&#x11e;" horiz-adv-x="1456" 
d="M759 1255c171 0 280 104 295 277h-163c-9 -80 -57 -124 -130 -124c-76 0 -122 44 -135 124h-156c11 -174 120 -277 289 -277zM761 -20c387 0 601 186 605 620h-497v-172h232c-9 -158 -120 -249 -332 -252c-223 0 -384 149 -384 409c0 248 146 394 384 394
c160 0 287 -74 361 -229h189v409h-204v-131c-62 79 -206 146 -364 146c-383 0 -659 -232 -659 -589c0 -373 251 -605 669 -605z" />
    <glyph glyph-name="gbreve" unicode="&#x11f;" horiz-adv-x="1099" 
d="M533 907c171 0 280 104 295 277h-163c-9 -80 -57 -124 -130 -124c-76 0 -122 44 -135 124h-156c11 -174 120 -277 289 -277zM482 -394c252 0 461 97 461 412v620h125v166h-343l-14 -61c-78 52 -166 81 -254 81c-222 0 -400 -151 -400 -422c0 -257 190 -409 424 -409
c73 0 145 19 209 57v-63c-3 -145 -82 -198 -213 -198c-85 0 -172 17 -270 47l-44 -176c102 -33 206 -54 319 -54zM538 164c-123 0 -220 83 -220 238c0 171 92 251 221 251c47 0 99 -15 150 -42l1 -407c-50 -26 -103 -40 -152 -40z" />
    <glyph glyph-name="Gdotaccent" unicode="&#x120;" horiz-adv-x="1456" 
d="M761 1315c93 0 160 63 160 152c0 87 -67 151 -160 151c-91 0 -158 -64 -158 -151c0 -89 67 -152 158 -152zM761 -20c387 0 601 186 605 620h-497v-172h232c-9 -158 -120 -249 -332 -252c-223 0 -384 149 -384 409c0 248 146 394 384 394c160 0 287 -74 361 -229h189v409
h-204v-131c-62 79 -206 146 -364 146c-383 0 -659 -232 -659 -589c0 -373 251 -605 669 -605z" />
    <glyph glyph-name="gdotaccent" unicode="&#x121;" horiz-adv-x="1099" 
d="M482 -394c252 0 461 97 461 412v620h125v166h-343l-14 -61c-78 52 -166 81 -254 81c-222 0 -400 -151 -400 -422c0 -257 190 -409 424 -409c73 0 145 19 209 57v-63c-3 -145 -82 -198 -213 -198c-85 0 -172 17 -270 47l-44 -176c102 -33 206 -54 319 -54zM538 164
c-123 0 -220 83 -220 238c0 171 92 251 221 251c47 0 99 -15 150 -42l1 -407c-50 -26 -103 -40 -152 -40zM536 967c93 0 160 63 160 152c0 87 -67 151 -160 151c-91 0 -158 -64 -158 -151c0 -89 67 -152 158 -152z" />
    <glyph glyph-name="uni0122" unicode="&#x122;" horiz-adv-x="1456" 
d="M761 -20c387 0 601 186 605 620h-497v-172h232c-9 -158 -120 -249 -332 -252c-223 0 -384 149 -384 409c0 248 146 394 384 394c160 0 287 -74 361 -229h189v409h-204v-131c-62 79 -206 146 -364 146c-383 0 -659 -232 -659 -589c0 -373 251 -605 669 -605zM613 -593
c205 1 285 69 284 261c0 38 -2 202 -6 231h-281l2 -251h151c0 -94 -52 -131 -150 -145v-96z" />
    <glyph glyph-name="uni0123" unicode="&#x123;" horiz-adv-x="1099" 
d="M482 -394c252 0 461 97 461 412v620h125v166h-343l-14 -61c-78 52 -166 81 -254 81c-222 0 -400 -151 -400 -422c0 -257 190 -409 424 -409c73 0 145 19 209 57v-63c-3 -145 -82 -198 -213 -198c-85 0 -172 17 -270 47l-44 -176c102 -33 206 -54 319 -54zM538 164
c-123 0 -220 83 -220 238c0 171 92 251 221 251c47 0 99 -15 150 -42l1 -407c-50 -26 -103 -40 -152 -40zM429 915h286l-1 267h-157c0 94 58 131 155 145v96c-205 -1 -290 -69 -289 -261c0 -38 3 -218 6 -247z" />
    <glyph glyph-name="Hcircumflex" unicode="&#x124;" horiz-adv-x="1490" 
d="M1437 984v168h-605v-168h161v-307h-496v307h160v168h-604v-168h161v-816h-161v-168h604v168h-160v337h496v-337h-161v-168h605v168h-161v816h161zM451 1268h162l135 250l134 -250h166l-138 343h-325z" />
    <glyph glyph-name="hcircumflex" unicode="&#x125;" horiz-adv-x="1174" 
d="M1025 168v353c2 205 -126 305 -277 305c-112 0 -213 -48 -309 -127v475h-390v-168h141v-838h-142v-168h514v168h-123v395c64 46 137 75 211 75c78 0 127 -53 127 -163v-307h-107v-168h496v168h-141zM341 1228h162l135 250l134 -250h166l-138 343h-325z" />
    <glyph glyph-name="Hbar" unicode="&#x126;" horiz-adv-x="1490" 
d="M97 774h1299v116h-1299v-116zM1437 984v168h-605v-168h161v-307h-496v307h160v168h-604v-168h161v-816h-161v-168h604v168h-160v337h496v-337h-161v-168h605v168h-161v816h161z" />
    <glyph glyph-name="hbar" unicode="&#x127;" horiz-adv-x="1174" 
d="M65 827h488v129h-488v-129zM1025 168v353c2 205 -126 305 -277 305c-112 0 -213 -48 -309 -127v475h-390v-168h141v-838h-142v-168h514v168h-123v395c64 46 137 75 211 75c78 0 127 -53 127 -163v-307h-107v-168h496v168h-141z" />
    <glyph glyph-name="Itilde" unicode="&#x128;" horiz-adv-x="757" 
d="M535 1252c124 -1 171 105 183 248h-108c-10 -48 -34 -67 -68 -67c-73 0 -212 82 -314 82c-101 0 -182 -66 -196 -245h110c7 48 33 64 67 64c89 0 232 -82 326 -82zM76 168v-168h605v168h-161v816h161v168h-605v-168h161v-816h-161z" />
    <glyph glyph-name="itilde" unicode="&#x129;" horiz-adv-x="731" 
d="M524 904c124 -1 171 105 183 248h-108c-10 -48 -34 -67 -68 -67c-73 0 -212 82 -314 82c-101 0 -182 -66 -196 -245h110c7 48 33 64 67 64c89 0 232 -82 326 -82zM140 0h502v168h-119v636h-379v-168h131v-468h-135v-168z" />
    <glyph glyph-name="Imacron" unicode="&#x12a;" horiz-adv-x="757" 
d="M122 1308h488v129h-488v-129zM76 168v-168h605v168h-161v816h161v168h-605v-168h161v-816h-161z" />
    <glyph glyph-name="imacron" unicode="&#x12b;" horiz-adv-x="731" 
d="M111 960h488v129h-488v-129zM140 0h502v168h-119v636h-379v-168h131v-468h-135v-168z" />
    <glyph glyph-name="Ibreve" unicode="&#x12c;" horiz-adv-x="757" 
d="M375 1254c171 0 280 104 295 277h-163c-9 -80 -57 -124 -130 -124c-76 0 -122 44 -135 124h-156c11 -174 120 -277 289 -277zM76 168v-168h605v168h-161v816h161v168h-605v-168h161v-816h-161z" />
    <glyph glyph-name="ibreve" unicode="&#x12d;" horiz-adv-x="731" 
d="M364 906c171 0 280 104 295 277h-163c-9 -80 -57 -124 -130 -124c-76 0 -122 44 -135 124h-156c11 -174 120 -277 289 -277zM140 0h502v168h-119v636h-379v-168h131v-468h-135v-168z" />
    <glyph glyph-name="Iogonek" unicode="&#x12e;" horiz-adv-x="757" 
d="M425 -376c49 0 88 11 147 38v119c-29 -11 -53 -16 -80 -16c-72 0 -109 40 -109 109c0 37 11 84 49 135h-114c-57 -77 -78 -145 -78 -205c0 -105 73 -180 185 -180zM76 168v-168h605v168h-161v816h161v168h-605v-168h161v-816h-161z" />
    <glyph glyph-name="iogonek" unicode="&#x12f;" horiz-adv-x="731" 
d="M366 966c93 0 160 63 160 152c0 87 -67 151 -160 151c-91 0 -158 -64 -158 -151c0 -89 67 -152 158 -152zM462 -376c49 0 88 11 147 38v119c-29 -11 -53 -16 -80 -16c-72 0 -109 40 -109 109c0 37 11 84 49 135h-114c-57 -77 -78 -145 -78 -205c0 -105 73 -180 185 -180z
M140 0h502v168h-119v636h-379v-168h131v-468h-135v-168z" />
    <glyph glyph-name="Idotaccent" unicode="&#x130;" horiz-adv-x="757" 
d="M377 1314c93 0 160 63 160 152c0 87 -67 151 -160 151c-91 0 -158 -64 -158 -151c0 -89 67 -152 158 -152zM76 168v-168h605v168h-161v816h161v168h-605v-168h161v-816h-161z" />
    <glyph glyph-name="dotlessi" unicode="&#x131;" horiz-adv-x="731" 
d="M140 0h502v168h-119v636h-379v-168h131v-468h-135v-168z" />
    <glyph glyph-name="IJ" unicode="&#x132;" horiz-adv-x="1527" 
d="M798 -89v-216h180c276 0 343 169 343 418v871h172v168h-639v-168h185v-894c0 -92 -21 -179 -129 -179h-112zM76 168v-168h605v168h-161v816h161v168h-605v-168h161v-816h-161z" />
    <glyph glyph-name="ij" unicode="&#x133;" horiz-adv-x="1223" 
d="M956 967c93 0 160 63 159 152c0 87 -66 151 -159 151c-92 0 -159 -64 -159 -151c0 -89 67 -152 159 -152zM632 -152v-192h102c396 0 384 244 384 464v684h-414v-168h160v-613c0 -139 -41 -175 -148 -175h-84zM329 966c93 0 160 63 160 152c0 87 -67 151 -160 151
c-91 0 -158 -64 -158 -151c0 -89 67 -152 158 -152zM87 168v-168h502v168h-119v636h-379v-168h131v-468h-135z" />
    <glyph glyph-name="Jcircumflex" unicode="&#x134;" horiz-adv-x="770" 
d="M41 -89v-216h180c276 0 343 169 343 418v871h172v168h-639v-168h185v-894c0 -92 -21 -179 -129 -179h-112zM114 1268h162l135 250l134 -250h166l-138 343h-325z" />
    <glyph glyph-name="jcircumflex" unicode="&#x135;" horiz-adv-x="587" 
d="M-4 -344h102c396 0 384 244 384 464v684h-414v-168h160v-613c0 -139 -41 -175 -148 -175h-84v-192zM17 920h162l135 250l134 -250h166l-138 343h-325z" />
    <glyph glyph-name="uni0136" unicode="&#x136;" horiz-adv-x="1417" 
d="M580 -593c205 1 285 69 284 261c0 38 -2 202 -6 231h-281l2 -251h151c0 -94 -52 -131 -150 -145v-96zM1237 169l-446 439l418 376h159v168h-581v-168h139l-429 -374v374h160v168h-604v-168h161v-816h-161v-168h604v168h-160v387l386 -386h-114v-169h606v169h-138z" />
    <glyph glyph-name="uni0137" unicode="&#x137;" horiz-adv-x="1120" 
d="M462 -593c205 1 285 69 284 261c0 38 -2 202 -6 231h-281l2 -251h151c0 -94 -52 -131 -150 -145v-96zM938 169l-253 261l267 207h116v167h-485v-167h144l-288 -209v746h-390v-168h141v-838h-142v-168h514v168h-123v222l362 -390h286v169h-149z" />
    <glyph glyph-name="kgreenlandic" unicode="&#x138;" horiz-adv-x="1207" 
d="M103 0h512v169h-115v211l296 -211h-66v-169h472v169h-143l-312 225l296 243h142v167h-529v-167h126l-282 -240v407h-399v-167h151v-468h-149v-169z" />
    <glyph glyph-name="Lacute" unicode="&#x139;" horiz-adv-x="1181" 
d="M894 532v-363h-397v815h160v168h-604v-168h161v-816h-161v-168h1070v532h-229zM550 1301h153l213 338h-259z" />
    <glyph glyph-name="lacute" unicode="&#x13a;" horiz-adv-x="611" 
d="M53 168v-168h514v168h-122v1006h-391v-168h142v-838h-143zM250 1301h153l213 338h-259z" />
    <glyph glyph-name="uni013B" unicode="&#x13b;" horiz-adv-x="1181" 
d="M894 532v-363h-397v815h160v168h-604v-168h161v-816h-161v-168h1070v532h-229zM449 -593c205 1 285 69 284 261c0 38 -2 202 -6 231h-281l2 -251h151c0 -94 -52 -131 -150 -145v-96z" />
    <glyph glyph-name="uni013C" unicode="&#x13c;" horiz-adv-x="611" 
d="M53 168v-168h514v168h-122v1006h-391v-168h142v-838h-143zM183 -593c205 1 285 69 284 261c0 38 -2 202 -6 231h-281l2 -251h151c0 -94 -52 -131 -150 -145v-96z" />
    <glyph glyph-name="Lcaron" unicode="&#x13d;" horiz-adv-x="1181" 
d="M894 532v-363h-397v815h160v168h-604v-168h161v-816h-161v-168h1070v532h-229zM741 741c195 0 290 79 289 227v250h-289v-225h131c0 -86 -36 -122 -131 -133v-119z" />
    <glyph glyph-name="lcaron" unicode="&#x13e;" horiz-adv-x="611" 
d="M53 168v-168h514v168h-122v1006h-391v-168h142v-838h-143zM516 741c195 0 290 79 289 227v250h-289v-225h131c0 -86 -36 -122 -131 -133v-119z" />
    <glyph glyph-name="Ldot" unicode="&#x13f;" horiz-adv-x="1181" 
d="M619 580h239v223h-239v-223zM894 532v-363h-397v815h160v168h-604v-168h161v-816h-161v-168h1070v532h-229z" />
    <glyph glyph-name="ldot" unicode="&#x140;" horiz-adv-x="611" 
d="M520 539h239v223h-239v-223zM53 168v-168h514v168h-122v1006h-391v-168h142v-838h-143z" />
    <glyph glyph-name="Lslash" unicode="&#x141;" horiz-adv-x="1233" 
d="M94 381l645 305v144l-645 -308v-141zM894 532v-363h-397v815h160v168h-604v-168h161v-816h-161v-168h1070v532h-229z" />
    <glyph glyph-name="lslash" unicode="&#x142;" horiz-adv-x="562" 
d="M33 367l549 278v199l-549 -285v-192zM53 168v-168h514v168h-122v1006h-391v-168h142v-838h-143z" />
    <glyph glyph-name="Nacute" unicode="&#x143;" horiz-adv-x="1565" 
d="M53 169v-169h544v169h-171v715l670 -884h246v984h184v168h-550v-168h169v-608l-598 776h-494v-168h178v-815h-178zM709 1301h153l213 338h-259z" />
    <glyph glyph-name="nacute" unicode="&#x144;" horiz-adv-x="1149" 
d="M1001 168v353c1 205 -126 305 -278 305c-106 0 -202 -43 -293 -115v93h-379v-168h131v-468h-134v-168h501v168h-119v405c60 41 128 65 195 65c78 0 128 -53 128 -163v-307h-107v-168h495v168h-140zM545 953h153l213 338h-259z" />
    <glyph glyph-name="uni0145" unicode="&#x145;" horiz-adv-x="1565" 
d="M53 169v-169h544v169h-171v715l670 -884h246v984h184v168h-550v-168h169v-608l-598 776h-494v-168h178v-815h-178zM673 -593c205 1 285 69 284 261c0 38 -2 202 -6 231h-281l2 -251h151c0 -94 -52 -131 -150 -145v-96z" />
    <glyph glyph-name="uni0146" unicode="&#x146;" horiz-adv-x="1149" 
d="M1001 168v353c1 205 -126 305 -278 305c-106 0 -202 -43 -293 -115v93h-379v-168h131v-468h-134v-168h501v168h-119v405c60 41 128 65 195 65c78 0 128 -53 128 -163v-307h-107v-168h495v168h-140zM479 -593c205 1 285 69 284 261c0 38 -2 202 -6 231h-281l2 -251h151
c0 -94 -52 -131 -150 -145v-96z" />
    <glyph glyph-name="Ncaron" unicode="&#x147;" horiz-adv-x="1565" 
d="M53 169v-169h544v169h-171v715l670 -884h246v984h184v168h-550v-168h169v-608l-598 776h-494v-168h178v-815h-178zM655 1266h262l151 332h-163l-118 -214l-123 214h-170z" />
    <glyph glyph-name="ncaron" unicode="&#x148;" horiz-adv-x="1149" 
d="M1001 168v353c1 205 -126 305 -278 305c-106 0 -202 -43 -293 -115v93h-379v-168h131v-468h-134v-168h501v168h-119v405c60 41 128 65 195 65c78 0 128 -53 128 -163v-307h-107v-168h495v168h-140zM478 918h262l151 332h-163l-118 -214l-123 214h-170z" />
    <glyph glyph-name="napostrophe" unicode="&#x149;" horiz-adv-x="1149" 
d="M1001 168v353c1 205 -126 305 -278 305c-106 0 -202 -43 -293 -115v93h-379v-168h131v-468h-134v-168h501v168h-119v405c60 41 128 65 195 65c78 0 128 -53 128 -163v-307h-107v-168h495v168h-140zM311 874c205 1 285 69 284 261c0 38 -2 202 -6 231h-281l2 -251h151
c0 -94 -52 -131 -150 -145v-96z" />
    <glyph glyph-name="Eng" unicode="&#x14a;" horiz-adv-x="1548" 
d="M1526 984v168h-550v-168h169v-608l-598 776h-494v-168h178v-815h-178v-169h544v169h-171v715l719 -905c1 -170 -133 -203 -292 -203v-157c252 0 489 43 489 362v1003h184z" />
    <glyph glyph-name="eng" unicode="&#x14b;" horiz-adv-x="1149" 
d="M429 708v96h-379v-168h131v-468h-135v-168h502v168h-119v404c61 41 129 67 197 66c78 0 128 -53 128 -163v-392c0 -170 -66 -227 -224 -227l-2 -177c253 0 474 87 474 406v436c0 205 -127 305 -278 305c-107 0 -204 -43 -295 -118z" />
    <glyph glyph-name="Omacron" unicode="&#x14c;" horiz-adv-x="1491" 
d="M745 -22c384 -2 659 245 659 594c0 351 -275 602 -660 602c-383 0 -657 -251 -657 -601s274 -597 658 -595zM744 174c-212 0 -365 169 -365 402c0 237 153 404 366 403c212 1 365 -166 365 -403c0 -233 -153 -402 -366 -402zM486 1308h488v129h-488v-129z" />
    <glyph glyph-name="omacron" unicode="&#x14d;" horiz-adv-x="1006" 
d="M502 -22c271 0 458 176 458 431c0 246 -186 417 -457 417s-458 -171 -458 -417c0 -255 186 -431 457 -431zM502 156c-119 -1 -201 102 -201 252c0 141 82 240 201 240s202 -98 202 -240c0 -150 -83 -253 -202 -252zM240 970h488v129h-488v-129z" />
    <glyph glyph-name="Obreve" unicode="&#x14e;" horiz-adv-x="1491" 
d="M738 1254c171 0 280 104 295 277h-163c-9 -80 -57 -124 -130 -124c-76 0 -122 44 -135 124h-156c11 -174 120 -277 289 -277zM745 -22c384 -2 659 245 659 594c0 351 -275 602 -660 602c-383 0 -657 -251 -657 -601s274 -597 658 -595zM744 174c-212 0 -365 169 -365 402
c0 237 153 404 366 403c212 1 365 -166 365 -403c0 -233 -153 -402 -366 -402z" />
    <glyph glyph-name="obreve" unicode="&#x14f;" horiz-adv-x="1006" 
d="M493 916c171 0 280 104 295 277h-163c-9 -80 -57 -124 -130 -124c-76 0 -122 44 -135 124h-156c11 -174 120 -277 289 -277zM502 -22c271 0 458 176 458 431c0 246 -186 417 -457 417s-458 -171 -458 -417c0 -255 186 -431 457 -431zM502 156c-119 -1 -201 102 -201 252
c0 141 82 240 201 240s202 -98 202 -240c0 -150 -83 -253 -202 -252z" />
    <glyph glyph-name="Ohungarumlaut" unicode="&#x150;" horiz-adv-x="1491" 
d="M745 -22c384 -2 659 245 659 594c0 351 -275 602 -660 602c-383 0 -657 -251 -657 -601s274 -597 658 -595zM744 174c-212 0 -365 169 -365 402c0 237 153 404 366 403c212 1 365 -166 365 -403c0 -233 -153 -402 -366 -402zM503 1300h153l213 338h-259zM863 1300h153
l213 338h-259z" />
    <glyph glyph-name="ohungarumlaut" unicode="&#x151;" horiz-adv-x="1006" 
d="M502 -22c271 0 458 176 458 431c0 246 -186 417 -457 417s-458 -171 -458 -417c0 -255 186 -431 457 -431zM502 156c-119 -1 -201 102 -201 252c0 141 82 240 201 240s202 -98 202 -240c0 -150 -83 -253 -202 -252zM258 962h153l213 338h-259zM618 962h153l213 338h-259z
" />
    <glyph glyph-name="OE" unicode="&#x152;" horiz-adv-x="2187" 
d="M927 0h1158v355h-210v-197h-443v368h267v-101h103v367h-102v-89h-265v289h440v-192h204v352h-1153c-457 1 -724 -194 -725 -560c1 -385 269 -592 726 -592zM909 158c-249 -2 -402 159 -403 430c1 254 167 403 408 404l236 2v-833z" />
    <glyph glyph-name="oe" unicode="&#x153;" horiz-adv-x="1650" 
d="M515 -22c159 0 267 70 328 155c62 -86 178 -155 348 -155c155 0 283 51 362 135l-95 126c-68 -56 -162 -89 -247 -89c-143 0 -229 79 -238 209h589c0 273 -131 467 -394 467c-144 0 -254 -60 -323 -156c-70 100 -191 156 -325 156c-267 0 -447 -174 -447 -420
c0 -251 172 -428 442 -428zM519 151c-123 -1 -201 103 -201 254c0 145 76 245 201 245c124 0 202 -100 202 -245c0 -151 -78 -255 -202 -254zM976 486c19 112 85 184 197 184c111 0 163 -75 172 -184h-369z" />
    <glyph glyph-name="Racute" unicode="&#x154;" horiz-adv-x="1359" 
d="M1149 169l-216 368c149 38 260 118 260 309c0 242 -189 306 -445 306h-695v-168h161v-816h-161v-168h604v168h-160v816h231c123 0 183 -60 183 -147c0 -88 -45 -163 -199 -163h-147v-166h100l280 -508h372v169h-168zM507 1301h153l213 338h-259z" />
    <glyph glyph-name="racute" unicode="&#x155;" horiz-adv-x="829" 
d="M431 652v152h-379v-168h131v-468h-135v-168h502v168h-119v259c0 118 82 176 170 176c53 0 110 -19 153 -47l56 215c-54 23 -109 42 -166 42c-78 0 -156 -39 -213 -161zM388 953h153l213 338h-259z" />
    <glyph glyph-name="uni0156" unicode="&#x156;" horiz-adv-x="1359" 
d="M1149 169l-216 368c149 38 260 118 260 309c0 242 -189 306 -445 306h-695v-168h161v-816h-161v-168h604v168h-160v816h231c123 0 183 -60 183 -147c0 -88 -45 -163 -199 -163h-147v-166h100l280 -508h372v169h-168zM553 -593c205 1 285 69 284 261c0 38 -2 202 -6 231
h-281l2 -251h151c0 -94 -52 -131 -150 -145v-96z" />
    <glyph glyph-name="uni0157" unicode="&#x157;" horiz-adv-x="829" 
d="M431 652v152h-379v-168h131v-468h-135v-168h502v168h-119v259c0 118 82 176 170 176c53 0 110 -19 153 -47l56 215c-54 23 -109 42 -166 42c-78 0 -156 -39 -213 -161zM170 -593c205 1 285 69 284 261c0 38 -2 202 -6 231h-281l2 -251h151c0 -94 -52 -131 -150 -145v-96z
" />
    <glyph glyph-name="Rcaron" unicode="&#x158;" horiz-adv-x="1359" 
d="M1149 169l-216 368c149 38 260 118 260 309c0 242 -189 306 -445 306h-695v-168h161v-816h-161v-168h604v168h-160v816h231c123 0 183 -60 183 -147c0 -88 -45 -163 -199 -163h-147v-166h100l280 -508h372v169h-168zM454 1266h262l151 332h-163l-118 -214l-123 214h-170z
" />
    <glyph glyph-name="rcaron" unicode="&#x159;" horiz-adv-x="829" 
d="M431 652v152h-379v-168h131v-468h-135v-168h502v168h-119v259c0 118 82 176 170 176c53 0 110 -19 153 -47l56 215c-54 23 -109 42 -166 42c-78 0 -156 -39 -213 -161zM321 918h262l151 332h-163l-118 -214l-123 214h-170z" />
    <glyph glyph-name="Sacute" unicode="&#x15a;" horiz-adv-x="1094" 
d="M616 -20c254 0 410 158 404 364c-5 223 -130 295 -405 363c-175 41 -230 79 -230 166c-1 75 54 125 159 125c100 0 177 -42 219 -92v-92h194v341h-194v-76c-52 54 -134 95 -252 95c-261 0 -397 -137 -397 -320c1 -221 137 -302 417 -367c162 -34 224 -74 224 -181
c0 -92 -69 -147 -173 -147c-111 0 -216 61 -256 113v137h-203v-410h203v87c71 -65 180 -106 290 -106zM483 1300h153l213 338h-259z" />
    <glyph glyph-name="sacute" unicode="&#x15b;" horiz-adv-x="898" 
d="M526 -21c143 0 298 62 302 239c5 175 -109 220 -245 258l-106 31c-98 27 -131 44 -131 90s50 68 114 68c62 0 142 -24 180 -62l16 -87h155v299h-173v-61c-50 43 -132 72 -231 72c-154 0 -309 -76 -309 -231c0 -149 81 -213 226 -253l137 -39c89 -23 130 -38 130 -95
c0 -48 -44 -73 -112 -73c-80 0 -184 37 -221 97l-8 67h-148v-299h165v70c48 -58 161 -91 259 -91zM360 953h153l213 338h-259z" />
    <glyph glyph-name="Scircumflex" unicode="&#x15c;" horiz-adv-x="1094" 
d="M616 -20c254 0 410 158 404 364c-5 223 -130 295 -405 363c-175 41 -230 79 -230 166c-1 75 54 125 159 125c100 0 177 -42 219 -92v-92h194v341h-194v-76c-52 54 -134 95 -252 95c-261 0 -397 -137 -397 -320c1 -221 137 -302 417 -367c162 -34 224 -74 224 -181
c0 -92 -69 -147 -173 -147c-111 0 -216 61 -256 113v137h-203v-410h203v87c71 -65 180 -106 290 -106zM258 1267h162l135 250l134 -250h166l-138 343h-325z" />
    <glyph glyph-name="scircumflex" unicode="&#x15d;" horiz-adv-x="898" 
d="M526 -21c143 0 298 62 302 239c5 175 -109 220 -245 258l-106 31c-98 27 -131 44 -131 90s50 68 114 68c62 0 142 -24 180 -62l16 -87h155v299h-173v-61c-50 43 -132 72 -231 72c-154 0 -309 -76 -309 -231c0 -149 81 -213 226 -253l137 -39c89 -23 130 -38 130 -95
c0 -48 -44 -73 -112 -73c-80 0 -184 37 -221 97l-8 67h-148v-299h165v70c48 -58 161 -91 259 -91zM121 920h162l135 250l134 -250h166l-138 343h-325z" />
    <glyph glyph-name="Scedilla" unicode="&#x15e;" horiz-adv-x="1094" 
d="M607 -402c96 0 176 41 176 143c0 66 -49 128 -154 143l29 121h-98l-67 -177c78 -5 117 -28 117 -69c0 -44 -31 -60 -76 -60c-38 0 -84 11 -128 27v-78c61 -31 135 -50 201 -50zM616 -20c254 0 410 158 404 364c-5 223 -130 295 -405 363c-175 41 -230 79 -230 166
c-1 75 54 125 159 125c100 0 177 -42 219 -92v-92h194v341h-194v-76c-52 54 -134 95 -252 95c-261 0 -397 -137 -397 -320c1 -221 137 -302 417 -367c162 -34 224 -74 224 -181c0 -92 -69 -147 -173 -147c-111 0 -216 61 -256 113v137h-203v-410h203v87
c71 -65 180 -106 290 -106z" />
    <glyph glyph-name="scedilla" unicode="&#x15f;" horiz-adv-x="898" 
d="M497 -402c96 0 176 41 176 143c0 66 -49 128 -154 143l29 121h-98l-67 -177c78 -5 117 -28 117 -69c0 -44 -31 -60 -76 -60c-38 0 -84 11 -128 27v-78c61 -31 135 -50 201 -50zM526 -21c143 0 298 62 302 239c5 175 -109 220 -245 258l-106 31c-98 27 -131 44 -131 90
s50 68 114 68c62 0 142 -24 180 -62l16 -87h155v299h-173v-61c-50 43 -132 72 -231 72c-154 0 -309 -76 -309 -231c0 -149 81 -213 226 -253l137 -39c89 -23 130 -38 130 -95c0 -48 -44 -73 -112 -73c-80 0 -184 37 -221 97l-8 67h-148v-299h165v70c48 -58 161 -91 259 -91z
" />
    <glyph glyph-name="Scaron" unicode="&#x160;" horiz-adv-x="1094" 
d="M616 -20c254 0 410 158 404 364c-5 223 -130 295 -405 363c-175 41 -230 79 -230 166c-1 75 54 125 159 125c100 0 177 -42 219 -92v-92h194v341h-194v-76c-52 54 -134 95 -252 95c-261 0 -397 -137 -397 -320c1 -221 137 -302 417 -367c162 -34 224 -74 224 -181
c0 -92 -69 -147 -173 -147c-111 0 -216 61 -256 113v137h-203v-410h203v87c71 -65 180 -106 290 -106zM429 1265h262l151 332h-163l-118 -214l-123 214h-170z" />
    <glyph glyph-name="scaron" unicode="&#x161;" horiz-adv-x="898" 
d="M526 -21c143 0 298 62 302 239c5 175 -109 220 -245 258l-106 31c-98 27 -131 44 -131 90s50 68 114 68c62 0 142 -24 180 -62l16 -87h155v299h-173v-61c-50 43 -132 72 -231 72c-154 0 -309 -76 -309 -231c0 -149 81 -213 226 -253l137 -39c89 -23 130 -38 130 -95
c0 -48 -44 -73 -112 -73c-80 0 -184 37 -221 97l-8 67h-148v-299h165v70c48 -58 161 -91 259 -91zM292 918h262l151 332h-163l-118 -214l-123 214h-170z" />
    <glyph glyph-name="uni0162" unicode="&#x162;" horiz-adv-x="1231" 
d="M626 -402c96 0 176 41 176 143c0 66 -49 128 -154 143l29 121h-98l-67 -177c78 -5 117 -28 117 -69c0 -44 -31 -60 -76 -60c-38 0 -84 11 -128 27v-78c61 -31 135 -50 201 -50zM34 1152v-449h195v281h252v-816h-160v-168h604v168h-161v816h241v-281h192v449h-1163z" />
    <glyph glyph-name="uni0163" unicode="&#x163;" horiz-adv-x="680" 
d="M400 -402c96 0 176 41 176 143c0 66 -49 128 -154 143l29 121h-98l-67 -177c78 -5 117 -28 117 -69c0 -44 -31 -60 -76 -60c-38 0 -84 11 -128 27v-78c61 -31 135 -50 201 -50zM396 0h221v168h-150c-52 0 -62 33 -62 91v377h206v168h-206v345l-248 -68v-277h-126v-168
h125v-389c0 -163 78 -247 240 -247z" />
    <glyph glyph-name="Tcaron" unicode="&#x164;" horiz-adv-x="1231" 
d="M34 1152v-449h195v281h252v-816h-160v-168h604v168h-161v816h241v-281h192v449h-1163zM488 1266h262l151 332h-163l-118 -214l-123 214h-170z" />
    <glyph glyph-name="tcaron" unicode="&#x165;" horiz-adv-x="680" 
d="M396 0h221v168h-150c-52 0 -62 33 -62 91v377h206v168h-206v345l-248 -68v-277h-126v-168h125v-389c0 -163 78 -247 240 -247zM475 951c195 0 290 79 289 227v250h-289v-225h131c0 -86 -36 -122 -131 -133v-119z" />
    <glyph glyph-name="Tbar" unicode="&#x166;" horiz-adv-x="1231" 
d="M34 1152v-449h195v281h252v-816h-160v-168h604v168h-161v816h241v-281h192v449h-1163zM376 522h488v129h-488v-129z" />
    <glyph glyph-name="tbar" unicode="&#x167;" horiz-adv-x="680" 
d="M396 0h221v168h-150c-52 0 -62 33 -62 91v377h206v168h-206v345l-248 -68v-277h-126v-168h125v-389c0 -163 78 -247 240 -247zM53 394h488v129h-488v-129z" />
    <glyph glyph-name="Utilde" unicode="&#x168;" horiz-adv-x="1430" 
d="M915 1253c124 -1 171 105 183 248h-108c-10 -48 -34 -67 -68 -67c-73 0 -212 82 -314 82c-101 0 -182 -66 -196 -245h110c7 48 33 64 67 64c89 0 232 -82 326 -82zM728 -20c312 0 504 147 504 466v538h163v168h-533v-168h164v-544c0 -176 -93 -271 -276 -271
c-173 0 -263 96 -263 268v547h173v168h-616v-168h160v-526c0 -290 146 -478 524 -478z" />
    <glyph glyph-name="utilde" unicode="&#x169;" horiz-adv-x="1123" 
d="M678 905c124 -1 171 105 183 248h-108c-10 -48 -34 -67 -68 -67c-73 0 -212 82 -314 82c-101 0 -182 -66 -196 -245h110c7 48 33 64 67 64c89 0 232 -82 326 -82zM426 -20c112 0 204 41 288 112l3 -92h382v169h-137v635h-381v-168h133v-377c-56 -58 -131 -93 -202 -93
c-80 0 -126 47 -126 153v485h-369v-168h120v-358c0 -171 83 -298 289 -298z" />
    <glyph glyph-name="Umacron" unicode="&#x16a;" horiz-adv-x="1430" 
d="M502 1309h488v129h-488v-129zM728 -20c312 0 504 147 504 466v538h163v168h-533v-168h164v-544c0 -176 -93 -271 -276 -271c-173 0 -263 96 -263 268v547h173v168h-616v-168h160v-526c0 -290 146 -478 524 -478z" />
    <glyph glyph-name="umacron" unicode="&#x16b;" horiz-adv-x="1123" 
d="M426 -20c112 0 204 41 288 112l3 -92h382v169h-137v635h-381v-168h133v-377c-56 -58 -131 -93 -202 -93c-80 0 -126 47 -126 153v485h-369v-168h120v-358c0 -171 83 -298 289 -298zM265 961h488v129h-488v-129z" />
    <glyph glyph-name="Ubreve" unicode="&#x16c;" horiz-adv-x="1430" 
d="M755 1255c171 0 280 104 295 277h-163c-9 -80 -57 -124 -130 -124c-76 0 -122 44 -135 124h-156c11 -174 120 -277 289 -277zM728 -20c312 0 504 147 504 466v538h163v168h-533v-168h164v-544c0 -176 -93 -271 -276 -271c-173 0 -263 96 -263 268v547h173v168h-616v-168
h160v-526c0 -290 146 -478 524 -478z" />
    <glyph glyph-name="ubreve" unicode="&#x16d;" horiz-adv-x="1123" 
d="M517 907c171 0 280 104 295 277h-163c-9 -80 -57 -124 -130 -124c-76 0 -122 44 -135 124h-156c11 -174 120 -277 289 -277zM426 -20c112 0 204 41 288 112l3 -92h382v169h-137v635h-381v-168h133v-377c-56 -58 -131 -93 -202 -93c-80 0 -126 47 -126 153v485h-369v-168
h120v-358c0 -171 83 -298 289 -298z" />
    <glyph glyph-name="Uring" unicode="&#x16e;" horiz-adv-x="1430" 
d="M728 -20c312 0 504 147 504 466v538h163v168h-533v-168h164v-544c0 -176 -93 -271 -276 -271c-173 0 -263 96 -263 268v547h173v168h-616v-168h160v-526c0 -290 146 -478 524 -478zM758 1333c-60 0 -93 40 -93 92s33 92 93 92c59 0 93 -40 93 -92s-34 -92 -93 -92z
M758 1247c118 0 189 78 189 179c0 100 -70 175 -189 176c-120 -1 -189 -76 -189 -176c0 -101 71 -179 189 -179z" />
    <glyph glyph-name="uring" unicode="&#x16f;" horiz-adv-x="1123" 
d="M426 -20c112 0 204 41 288 112l3 -92h382v169h-137v635h-381v-168h133v-377c-56 -58 -131 -93 -202 -93c-80 0 -126 47 -126 153v485h-369v-168h120v-358c0 -171 83 -298 289 -298zM521 985c-60 0 -93 40 -93 92s33 92 93 92c59 0 93 -40 93 -92s-34 -92 -93 -92z
M521 899c118 0 189 78 189 179c0 100 -70 175 -189 176c-120 -1 -189 -76 -189 -176c0 -101 71 -179 189 -179z" />
    <glyph glyph-name="Uhungarumlaut" unicode="&#x170;" horiz-adv-x="1430" 
d="M520 1301h153l213 338h-259zM880 1301h153l213 338h-259zM728 -20c312 0 504 147 504 466v538h163v168h-533v-168h164v-544c0 -176 -93 -271 -276 -271c-173 0 -263 96 -263 268v547h173v168h-616v-168h160v-526c0 -290 146 -478 524 -478z" />
    <glyph glyph-name="uhungarumlaut" unicode="&#x171;" horiz-adv-x="1123" 
d="M282 953h153l213 338h-259zM642 953h153l213 338h-259zM426 -20c112 0 204 41 288 112l3 -92h382v169h-137v635h-381v-168h133v-377c-56 -58 -131 -93 -202 -93c-80 0 -126 47 -126 153v485h-369v-168h120v-358c0 -171 83 -298 289 -298z" />
    <glyph glyph-name="Uogonek" unicode="&#x172;" horiz-adv-x="1430" 
d="M728 -20c312 0 504 147 504 466v538h163v168h-533v-168h164v-544c0 -176 -93 -271 -276 -271c-173 0 -263 96 -263 268v547h173v168h-616v-168h160v-526c0 -290 146 -478 524 -478zM846 -376c49 0 88 11 147 38v119c-29 -11 -53 -16 -80 -16c-72 0 -109 40 -109 109
c0 37 11 84 49 135h-114c-57 -77 -78 -145 -78 -205c0 -105 73 -180 185 -180z" />
    <glyph glyph-name="uogonek" unicode="&#x173;" horiz-adv-x="1123" 
d="M426 -20c112 0 204 41 288 112l3 -92h382v169h-137v635h-381v-168h133v-377c-56 -58 -131 -93 -202 -93c-80 0 -126 47 -126 153v485h-369v-168h120v-358c0 -171 83 -298 289 -298zM940 -376c49 0 88 11 147 38v119c-29 -11 -53 -16 -80 -16c-72 0 -109 40 -109 109
c0 37 11 84 49 135h-114c-57 -77 -78 -145 -78 -205c0 -105 73 -180 185 -180z" />
    <glyph glyph-name="Wcircumflex" unicode="&#x174;" horiz-adv-x="1924" 
d="M192 984l318 -984h182l274 726l276 -726h189l302 984h144v168h-484v-168h146l-181 -627l-289 782h-130l-293 -782l-180 627h137v168h-557v-168h146zM706 1268h162l135 250l134 -250h166l-138 343h-325z" />
    <glyph glyph-name="wcircumflex" unicode="&#x175;" horiz-adv-x="1453" 
d="M123 636l233 -636h224l161 449l167 -449h203l220 636h99v168h-361v-168h92l-136 -417l-149 417h89v168h-411v-168h93l-146 -414l-139 414h81v168h-420v-168h100zM461 920h162l135 250l134 -250h166l-138 343h-325z" />
    <glyph glyph-name="Ycircumflex" unicode="&#x176;" horiz-adv-x="1363" 
d="M384 1267h162l135 250l134 -250h166l-138 343h-325zM361 169v-169h638v169h-179v319l354 496h162v168h-532v-168h133l-227 -340l-240 340h135v168h-594v-168h156l371 -499v-316h-177z" />
    <glyph glyph-name="ycircumflex" unicode="&#x177;" horiz-adv-x="1115" 
d="M200 -171v-189h122c218 0 262 94 352 298l312 698h125v168h-488v-168h118l-165 -406l-192 406h106v168h-483v-168h138l288 -578h78l-39 -101c-46 -119 -95 -128 -171 -128h-101zM263 920h162l135 250l134 -250h166l-138 343h-325z" />
    <glyph glyph-name="Ydieresis" unicode="&#x178;" horiz-adv-x="1363" 
d="M454 1265c86 0 140 59 140 134c0 83 -61 133 -140 133s-139 -55 -139 -133c0 -77 60 -134 139 -134zM922 1265c86 0 140 59 140 134c0 83 -60 133 -140 133c-79 0 -139 -55 -139 -133c0 -77 61 -134 139 -134zM361 169v-169h638v169h-179v319l354 496h162v168h-532v-168
h133l-227 -340l-240 340h135v168h-594v-168h156l371 -499v-316h-177z" />
    <glyph glyph-name="Zacute" unicode="&#x179;" horiz-adv-x="1209" 
d="M96 0h1030v491h-190v-322h-496l670 819v164h-1000v-461h193v293h445l-652 -803v-181zM554 1301h153l213 338h-259z" />
    <glyph glyph-name="zacute" unicode="&#x17a;" horiz-adv-x="928" 
d="M85 156v-156h790v323h-177v-171h-321l475 489v163h-766v-308h174v154h296zM423 953h153l213 338h-259z" />
    <glyph glyph-name="Zdotaccent" unicode="&#x17b;" horiz-adv-x="1209" 
d="M632 1315c93 0 160 63 160 152c0 87 -67 151 -160 151c-91 0 -158 -64 -158 -151c0 -89 67 -152 158 -152zM96 0h1030v491h-190v-322h-496l670 819v164h-1000v-461h193v293h445l-652 -803v-181z" />
    <glyph glyph-name="zdotaccent" unicode="&#x17c;" horiz-adv-x="928" 
d="M487 967c93 0 160 63 160 152c0 87 -67 151 -160 151c-91 0 -158 -64 -158 -151c0 -89 67 -152 158 -152zM85 156v-156h790v323h-177v-171h-321l475 489v163h-766v-308h174v154h296z" />
    <glyph glyph-name="Zcaron" unicode="&#x17d;" horiz-adv-x="1209" 
d="M96 0h1030v491h-190v-322h-496l670 819v164h-1000v-461h193v293h445l-652 -803v-181zM500 1266h262l151 332h-163l-118 -214l-123 214h-170z" />
    <glyph glyph-name="zcaron" unicode="&#x17e;" horiz-adv-x="928" 
d="M85 156v-156h790v323h-177v-171h-321l475 489v163h-766v-308h174v154h296zM355 918h262l151 332h-163l-118 -214l-123 214h-170z" />
    <glyph glyph-name="longs" unicode="&#x17f;" horiz-adv-x="2048" 
 />
    <glyph glyph-name="uni018F" unicode="&#x18f;" horiz-adv-x="600" 
 />
    <glyph glyph-name="florin" unicode="&#x192;" horiz-adv-x="1142" 
d="M184 -347c203 0 338 88 396 383l124 633h209l21 114h-210l32 165c24 130 44 192 96 192c45 0 68 -65 68 -171c145 0 188 58 188 133c0 74 -79 131 -248 131c-209 0 -314 -108 -352 -296l-31 -154h-161l-20 -114h161l-121 -632c-40 -208 -74 -282 -156 -282
c-40 0 -92 13 -120 23l-25 -103c37 -12 97 -22 149 -22z" />
    <glyph glyph-name="uni01C4" unicode="&#x1c4;" horiz-adv-x="2661" 
d="M53 1152v-168h162v-815h-162v-169h668c430 0 646 220 646 588c0 306 -210 564 -646 564h-668zM499 169v815h215c248 0 355 -179 355 -399c0 -254 -105 -416 -360 -416h-210zM1548 0h1030v491h-190v-322h-496l670 819v164h-1000v-461h193v293h445l-652 -803v-181z
M1952 1266h262l151 332h-163l-118 -214l-123 214h-170z" />
    <glyph glyph-name="uni01C5" unicode="&#x1c5;" horiz-adv-x="2380" 
d="M53 1152v-168h162v-815h-162v-169h668c430 0 646 220 646 588c0 306 -210 564 -646 564h-668zM499 169v815h215c248 0 355 -179 355 -399c0 -254 -105 -416 -360 -416h-210zM1537 156v-156h790v323h-177v-171h-321l475 489v163h-766v-308h174v154h296zM1807 918h262
l151 332h-163l-118 -214l-123 214h-170z" />
    <glyph glyph-name="uni01C6" unicode="&#x1c6;" horiz-adv-x="2028" 
d="M942 168v1006h-397v-168h148v-255c-75 47 -159 74 -242 74c-222 0 -400 -154 -400 -430c0 -262 190 -417 424 -417c77 0 151 21 218 62v-40h359v168h-110zM312 395c0 175 92 256 221 256c50 0 105 -14 160 -42v-417c-55 -26 -111 -39 -161 -39c-124 0 -220 84 -220 242z
M1185 156v-156h790v323h-177v-171h-321l475 489v163h-766v-308h174v154h296zM1455 918h262l151 332h-163l-118 -214l-123 214h-170z" />
    <glyph glyph-name="uni01C7" unicode="&#x1c7;" horiz-adv-x="1951" 
d="M894 532v-363h-397v815h160v168h-604v-168h161v-816h-161v-168h1070v532h-229zM1222 -89v-216h180c276 0 343 169 343 418v871h172v168h-639v-168h185v-894c0 -92 -21 -179 -129 -179h-112z" />
    <glyph glyph-name="uni01C8" unicode="&#x1c8;" horiz-adv-x="1768" 
d="M894 532v-363h-397v815h160v168h-604v-168h161v-816h-161v-168h1070v532h-229zM1501 967c93 0 160 63 159 152c0 87 -66 151 -159 151c-92 0 -159 -64 -159 -151c0 -89 67 -152 159 -152zM1177 -152v-192h102c396 0 384 244 384 464v684h-414v-168h160v-613
c0 -139 -41 -175 -148 -175h-84z" />
    <glyph glyph-name="uni01C9" unicode="&#x1c9;" horiz-adv-x="1198" 
d="M53 168v-168h514v168h-122v1006h-391v-168h142v-838h-143zM931 967c93 0 160 63 159 152c0 87 -66 151 -159 151c-92 0 -159 -64 -159 -151c0 -89 67 -152 159 -152zM607 -152v-192h102c396 0 384 244 384 464v684h-414v-168h160v-613c0 -139 -41 -175 -148 -175h-84z
" />
    <glyph glyph-name="uni01CA" unicode="&#x1ca;" horiz-adv-x="2335" 
d="M53 169v-169h544v169h-171v715l670 -884h246v984h184v168h-550v-168h169v-608l-598 776h-494v-168h178v-815h-178zM1606 -89v-216h180c276 0 343 169 343 418v871h172v168h-639v-168h185v-894c0 -92 -21 -179 -129 -179h-112z" />
    <glyph glyph-name="uni01CB" unicode="&#x1cb;" horiz-adv-x="2152" 
d="M53 169v-169h544v169h-171v715l670 -884h246v984h184v168h-550v-168h169v-608l-598 776h-494v-168h178v-815h-178zM1885 967c93 0 160 63 159 152c0 87 -66 151 -159 151c-92 0 -159 -64 -159 -151c0 -89 67 -152 159 -152zM1561 -152v-192h102c396 0 384 244 384 464
v684h-414v-168h160v-613c0 -139 -41 -175 -148 -175h-84z" />
    <glyph glyph-name="uni01CC" unicode="&#x1cc;" horiz-adv-x="1736" 
d="M1001 168v353c1 205 -126 305 -278 305c-106 0 -202 -43 -293 -115v93h-379v-168h131v-468h-134v-168h501v168h-119v405c60 41 128 65 195 65c78 0 128 -53 128 -163v-307h-107v-168h495v168h-140zM1469 967c93 0 160 63 159 152c0 87 -66 151 -159 151
c-92 0 -159 -64 -159 -151c0 -89 67 -152 159 -152zM1145 -152v-192h102c396 0 384 244 384 464v684h-414v-168h160v-613c0 -139 -41 -175 -148 -175h-84z" />
    <glyph glyph-name="uni01CD" unicode="&#x1cd;" 
d="M602 1266h262l151 332h-163l-118 -214l-123 214h-170zM46 169v-169h545v169h-162l85 252h388l85 -252h-167v-169h620v169h-143l-312 815h132v168h-754v-168h136l-306 -815h-147zM857 568h-299l144 409h16z" />
    <glyph glyph-name="uni01CE" unicode="&#x1ce;" horiz-adv-x="964" 
d="M311 918h262l151 332h-163l-118 -214l-123 214h-170zM342 -22c104 0 185 29 257 84l16 -62h328v169h-121v353c0 207 -170 303 -379 303c-121 0 -264 -32 -368 -99l67 -152c105 54 213 76 280 76c97 0 152 -47 152 -142v-50c-53 11 -109 19 -166 19
c-178 0 -352 -67 -352 -251c0 -149 121 -248 286 -248zM399 125c-67 0 -112 42 -112 105c0 94 74 120 148 120c62 0 108 -9 139 -19v-141c-52 -42 -116 -65 -175 -65z" />
    <glyph glyph-name="uni01CF" unicode="&#x1cf;" horiz-adv-x="757" 
d="M246 1265h262l151 332h-163l-118 -214l-123 214h-170zM76 168v-168h605v168h-161v816h161v168h-605v-168h161v-816h-161z" />
    <glyph glyph-name="uni01D0" unicode="&#x1d0;" horiz-adv-x="731" 
d="M140 0h502v168h-119v636h-379v-168h131v-468h-135v-168zM235 917h262l151 332h-163l-118 -214l-123 214h-170z" />
    <glyph glyph-name="uni01D1" unicode="&#x1d1;" horiz-adv-x="1491" 
d="M745 -22c384 -2 659 245 659 594c0 351 -275 602 -660 602c-383 0 -657 -251 -657 -601s274 -597 658 -595zM744 174c-212 0 -365 169 -365 402c0 237 153 404 366 403c212 1 365 -166 365 -403c0 -233 -153 -402 -366 -402zM609 1265h262l151 332h-163l-118 -214
l-123 214h-170z" />
    <glyph glyph-name="uni01D2" unicode="&#x1d2;" horiz-adv-x="1006" 
d="M502 -22c271 0 458 176 458 431c0 246 -186 417 -457 417s-458 -171 -458 -417c0 -255 186 -431 457 -431zM502 156c-119 -1 -201 102 -201 252c0 141 82 240 201 240s202 -98 202 -240c0 -150 -83 -253 -202 -252zM364 927h262l151 332h-163l-118 -214l-123 214h-170z
" />
    <glyph glyph-name="uni01D3" unicode="&#x1d3;" horiz-adv-x="1430" 
d="M728 -20c312 0 504 147 504 466v538h163v168h-533v-168h164v-544c0 -176 -93 -271 -276 -271c-173 0 -263 96 -263 268v547h173v168h-616v-168h160v-526c0 -290 146 -478 524 -478zM626 1266h262l151 332h-163l-118 -214l-123 214h-170z" />
    <glyph glyph-name="uni01D4" unicode="&#x1d4;" horiz-adv-x="1123" 
d="M426 -20c112 0 204 41 288 112l3 -92h382v169h-137v635h-381v-168h133v-377c-56 -58 -131 -93 -202 -93c-80 0 -126 47 -126 153v485h-369v-168h120v-358c0 -171 83 -298 289 -298zM388 918h262l151 332h-163l-118 -214l-123 214h-170z" />
    <glyph glyph-name="uni01E2" unicode="&#x1e2;" horiz-adv-x="1919" 
d="M943 1309h488v129h-488v-129zM5 0h549v169h-118l138 244h354v-244h-147v-169h1068v367h-178v-198h-459v355h260v-125h114v390h-114v-132h-261v327h458v-192h178v360h-1304v-168h118l-502 -815h-154v-169zM640 544l264 440h24v-440h-288z" />
    <glyph glyph-name="uni01E3" unicode="&#x1e3;" horiz-adv-x="1472" 
d="M486 961h488v129h-488v-129zM386 -22c105 0 195 23 328 109c81 -68 194 -107 330 -107c156 0 293 59 365 135l-76 136c-90 -67 -179 -95 -265 -95c-131 0 -223 76 -231 205h580c0 280 -146 465 -396 465c-119 0 -231 -38 -294 -106c-55 68 -168 105 -283 105
c-126 0 -268 -33 -373 -101l68 -150c105 54 212 76 285 76c96 0 155 -47 155 -142v-52c-54 12 -112 19 -169 19c-176 0 -350 -65 -350 -249c0 -211 215 -248 326 -248zM422 121c-61 0 -133 22 -133 106c0 94 69 121 146 121c48 0 111 -9 146 -12c7 -50 23 -100 44 -141
c-48 -36 -113 -74 -203 -74zM839 491c17 107 86 178 187 178c102 0 158 -71 163 -178h-350z" />
    <glyph glyph-name="Gcaron" unicode="&#x1e6;" horiz-adv-x="1456" 
d="M761 -20c387 0 601 186 605 620h-497v-172h232c-9 -158 -120 -249 -332 -252c-223 0 -384 149 -384 409c0 248 146 394 384 394c160 0 287 -74 361 -229h189v409h-204v-131c-62 79 -206 146 -364 146c-383 0 -659 -232 -659 -589c0 -373 251 -605 669 -605zM630 1266h262
l151 332h-163l-118 -214l-123 214h-170z" />
    <glyph glyph-name="gcaron" unicode="&#x1e7;" horiz-adv-x="1099" 
d="M482 -394c252 0 461 97 461 412v620h125v166h-343l-14 -61c-78 52 -166 81 -254 81c-222 0 -400 -151 -400 -422c0 -257 190 -409 424 -409c73 0 145 19 209 57v-63c-3 -145 -82 -198 -213 -198c-85 0 -172 17 -270 47l-44 -176c102 -33 206 -54 319 -54zM538 164
c-123 0 -220 83 -220 238c0 171 92 251 221 251c47 0 99 -15 150 -42l1 -407c-50 -26 -103 -40 -152 -40zM404 918h262l151 332h-163l-118 -214l-123 214h-170z" />
    <glyph glyph-name="uni01E8" unicode="&#x1e8;" horiz-adv-x="1417" 
d="M1237 169l-446 439l418 376h159v168h-581v-168h139l-429 -374v374h160v168h-604v-168h161v-816h-161v-168h604v168h-160v387l386 -386h-114v-169h606v169h-138zM590 1266h262l151 332h-163l-118 -214l-123 214h-170z" />
    <glyph glyph-name="uni01E9" unicode="&#x1e9;" horiz-adv-x="1120" 
d="M938 169l-253 261l267 207h116v167h-485v-167h144l-288 -209v746h-390v-168h141v-838h-142v-168h514v168h-123v222l362 -390h286v169h-149zM670 1082h262l151 332h-163l-118 -214l-123 214h-170z" />
    <glyph glyph-name="uni01EA" unicode="&#x1ea;" horiz-adv-x="1491" 
d="M745 -22c384 -2 659 245 659 594c0 351 -275 602 -660 602c-383 0 -657 -251 -657 -601s274 -597 658 -595zM744 174c-212 0 -365 169 -365 402c0 237 153 404 366 403c212 1 365 -166 365 -403c0 -233 -153 -402 -366 -402zM861 -376c49 0 88 11 147 38v119
c-29 -11 -53 -16 -80 -16c-72 0 -109 40 -109 109c0 37 11 84 49 135h-114c-57 -77 -78 -145 -78 -205c0 -105 73 -180 185 -180z" />
    <glyph glyph-name="uni01EB" unicode="&#x1eb;" horiz-adv-x="1006" 
d="M502 -22c271 0 458 176 458 431c0 246 -186 417 -457 417s-458 -171 -458 -417c0 -255 186 -431 457 -431zM502 156c-119 -1 -201 102 -201 252c0 141 82 240 201 240s202 -98 202 -240c0 -150 -83 -253 -202 -252zM579 -376c49 0 88 11 147 38v119
c-29 -11 -53 -16 -80 -16c-72 0 -109 40 -109 109c0 37 11 84 49 135h-114c-57 -77 -78 -145 -78 -205c0 -105 73 -180 185 -180z" />
    <glyph glyph-name="uni01F0" unicode="&#x1f0;" horiz-adv-x="587" 
d="M-4 -344h102c396 0 384 244 384 464v684h-414v-168h160v-613c0 -139 -41 -175 -148 -175h-84v-192zM188 918h262l151 332h-163l-118 -214l-123 214h-170z" />
    <glyph glyph-name="uni01F1" unicode="&#x1f1;" horiz-adv-x="2661" 
d="M53 1152v-168h162v-815h-162v-169h668c430 0 646 220 646 588c0 306 -210 564 -646 564h-668zM499 169v815h215c248 0 355 -179 355 -399c0 -254 -105 -416 -360 -416h-210zM1548 0h1030v491h-190v-322h-496l670 819v164h-1000v-461h193v293h445l-652 -803v-181z" />
    <glyph glyph-name="uni01F2" unicode="&#x1f2;" horiz-adv-x="2380" 
d="M53 1152v-168h162v-815h-162v-169h668c430 0 646 220 646 588c0 306 -210 564 -646 564h-668zM499 169v815h215c248 0 355 -179 355 -399c0 -254 -105 -416 -360 -416h-210zM1537 156v-156h790v323h-177v-171h-321l475 489v163h-766v-308h174v154h296z" />
    <glyph glyph-name="uni01F3" unicode="&#x1f3;" horiz-adv-x="2028" 
d="M942 168v1006h-397v-168h148v-255c-75 47 -159 74 -242 74c-222 0 -400 -154 -400 -430c0 -262 190 -417 424 -417c77 0 151 21 218 62v-40h359v168h-110zM312 395c0 175 92 256 221 256c50 0 105 -14 160 -42v-417c-55 -26 -111 -39 -161 -39c-124 0 -220 84 -220 242z
M1185 156v-156h790v323h-177v-171h-321l475 489v163h-766v-308h174v154h296z" />
    <glyph glyph-name="uni01F4" unicode="&#x1f4;" horiz-adv-x="1456" 
d="M761 -20c387 0 601 186 605 620h-497v-172h232c-9 -158 -120 -249 -332 -252c-223 0 -384 149 -384 409c0 248 146 394 384 394c160 0 287 -74 361 -229h189v409h-204v-131c-62 79 -206 146 -364 146c-383 0 -659 -232 -659 -589c0 -373 251 -605 669 -605zM683 1301h153
l213 338h-259z" />
    <glyph glyph-name="uni01F5" unicode="&#x1f5;" horiz-adv-x="1099" 
d="M482 -394c252 0 461 97 461 412v620h125v166h-343l-14 -61c-78 52 -166 81 -254 81c-222 0 -400 -151 -400 -422c0 -257 190 -409 424 -409c73 0 145 19 209 57v-63c-3 -145 -82 -198 -213 -198c-85 0 -172 17 -270 47l-44 -176c102 -33 206 -54 319 -54zM538 164
c-123 0 -220 83 -220 238c0 171 92 251 221 251c47 0 99 -15 150 -42l1 -407c-50 -26 -103 -40 -152 -40zM472 953h153l213 338h-259z" />
    <glyph glyph-name="uni01F8" unicode="&#x1f8;" horiz-adv-x="1565" 
d="M53 169v-169h544v169h-171v715l670 -884h246v984h184v168h-550v-168h169v-608l-598 776h-494v-168h178v-815h-178zM708 1301h153l-107 338h-258z" />
    <glyph glyph-name="uni01F9" unicode="&#x1f9;" horiz-adv-x="1149" 
d="M1001 168v353c1 205 -126 305 -278 305c-106 0 -202 -43 -293 -115v93h-379v-168h131v-468h-134v-168h501v168h-119v405c60 41 128 65 195 65c78 0 128 -53 128 -163v-307h-107v-168h495v168h-140zM531 953h153l-107 338h-258z" />
    <glyph glyph-name="Aringacute" unicode="&#x1fa;" 
d="M734 1333c-60 0 -93 40 -93 92s33 92 93 92c59 0 93 -40 93 -92s-34 -92 -93 -92zM734 1247c118 0 189 78 189 179c0 100 -70 175 -189 176c-120 -1 -189 -76 -189 -176c0 -101 71 -179 189 -179zM656 1664h153l213 338h-259zM46 169v-169h545v169h-162l85 252h388
l85 -252h-167v-169h620v169h-143l-312 815h132v168h-754v-168h136l-306 -815h-147zM857 568h-299l144 409h16z" />
    <glyph glyph-name="aringacute" unicode="&#x1fb;" horiz-adv-x="964" 
d="M443 985c-60 0 -93 40 -93 92s33 92 93 92c59 0 93 -40 93 -92s-34 -92 -93 -92zM443 899c118 0 189 78 189 179c0 100 -70 175 -189 176c-120 -1 -189 -76 -189 -176c0 -101 71 -179 189 -179zM365 1316h153l213 338h-259zM342 -22c104 0 185 29 257 84l16 -62h328v169
h-121v353c0 207 -170 303 -379 303c-121 0 -264 -32 -368 -99l67 -152c105 54 213 76 280 76c97 0 152 -47 152 -142v-50c-53 11 -109 19 -166 19c-178 0 -352 -67 -352 -251c0 -149 121 -248 286 -248zM399 125c-67 0 -112 42 -112 105c0 94 74 120 148 120
c62 0 108 -9 139 -19v-141c-52 -42 -116 -65 -175 -65z" />
    <glyph glyph-name="AEacute" unicode="&#x1fc;" horiz-adv-x="1919" 
d="M5 0h549v169h-118l138 244h354v-244h-147v-169h1068v367h-178v-198h-459v355h260v-125h114v390h-114v-132h-261v327h458v-192h178v360h-1304v-168h118l-502 -815h-154v-169zM640 544l264 440h24v-440h-288zM1121 1301h153l213 338h-259z" />
    <glyph glyph-name="aeacute" unicode="&#x1fd;" horiz-adv-x="1472" 
d="M386 -22c105 0 195 23 328 109c81 -68 194 -107 330 -107c156 0 293 59 365 135l-76 136c-90 -67 -179 -95 -265 -95c-131 0 -223 76 -231 205h580c0 280 -146 465 -396 465c-119 0 -231 -38 -294 -106c-55 68 -168 105 -283 105c-126 0 -268 -33 -373 -101l68 -150
c105 54 212 76 285 76c96 0 155 -47 155 -142v-52c-54 12 -112 19 -169 19c-176 0 -350 -65 -350 -249c0 -211 215 -248 326 -248zM422 121c-61 0 -133 22 -133 106c0 94 69 121 146 121c48 0 111 -9 146 -12c7 -50 23 -100 44 -141c-48 -36 -113 -74 -203 -74zM839 491
c17 107 86 178 187 178c102 0 158 -71 163 -178h-350zM676 953h153l213 338h-259z" />
    <glyph glyph-name="Oslashacute" unicode="&#x1fe;" horiz-adv-x="1504" 
d="M663 1300h153l213 338h-259zM335 -89l967 1243l-116 83l-967 -1244zM745 -22c384 -2 659 245 659 594c0 351 -275 602 -660 602c-383 0 -657 -251 -657 -601s274 -597 658 -595zM744 174c-212 0 -365 169 -365 402c0 237 153 404 366 403c212 1 365 -166 365 -403
c0 -233 -153 -402 -366 -402z" />
    <glyph glyph-name="oslashacute" unicode="&#x1ff;" horiz-adv-x="1007" 
d="M431 962h153l213 338h-259zM296 -120l517 1009l-94 43l-517 -1009zM502 -22c271 0 458 176 458 431c0 246 -186 417 -457 417s-458 -171 -458 -417c0 -255 186 -431 457 -431zM502 156c-119 -1 -201 102 -201 252c0 141 82 240 201 240s202 -98 202 -240
c0 -150 -83 -253 -202 -252z" />
    <glyph glyph-name="uni0200" unicode="&#x200;" 
d="M456 1301h153l-107 338h-259zM816 1301h153l-107 338h-259zM46 169v-169h545v169h-162l85 252h388l85 -252h-167v-169h620v169h-143l-312 815h132v168h-754v-168h136l-306 -815h-147zM857 568h-299l144 409h16z" />
    <glyph glyph-name="uni0201" unicode="&#x201;" horiz-adv-x="964" 
d="M165 953h153l-107 338h-259zM525 953h153l-107 338h-259zM342 -22c104 0 185 29 257 84l16 -62h328v169h-121v353c0 207 -170 303 -379 303c-121 0 -264 -32 -368 -99l67 -152c105 54 213 76 280 76c97 0 152 -47 152 -142v-50c-53 11 -109 19 -166 19
c-178 0 -352 -67 -352 -251c0 -149 121 -248 286 -248zM399 125c-67 0 -112 42 -112 105c0 94 74 120 148 120c62 0 108 -9 139 -19v-141c-52 -42 -116 -65 -175 -65z" />
    <glyph glyph-name="uni0202" unicode="&#x202;" 
d="M426 1255h174c12 76 56 118 129 118c70 0 116 -42 124 -118h181c-16 180 -129 289 -307 289c-176 0 -289 -108 -301 -289zM46 169v-169h545v169h-162l85 252h388l85 -252h-167v-169h620v169h-143l-312 815h132v168h-754v-168h136l-306 -815h-147zM857 568h-299l144 409
h16z" />
    <glyph glyph-name="uni0203" unicode="&#x203;" horiz-adv-x="964" 
d="M134 907h174c12 76 56 118 129 118c70 0 116 -42 124 -118h181c-16 180 -129 289 -307 289c-176 0 -289 -108 -301 -289zM342 -22c104 0 185 29 257 84l16 -62h328v169h-121v353c0 207 -170 303 -379 303c-121 0 -264 -32 -368 -99l67 -152c105 54 213 76 280 76
c97 0 152 -47 152 -142v-50c-53 11 -109 19 -166 19c-178 0 -352 -67 -352 -251c0 -149 121 -248 286 -248zM399 125c-67 0 -112 42 -112 105c0 94 74 120 148 120c62 0 108 -9 139 -19v-141c-52 -42 -116 -65 -175 -65z" />
    <glyph glyph-name="uni0204" unicode="&#x204;" horiz-adv-x="1224" 
d="M944 385v-216h-447v347h264v-110h103v400h-104v-118h-263v294l445 2v-196h206v364h-1095v-168h161v-816h-161v-168h1099v385h-208zM368 1301h153l-107 338h-259zM728 1301h153l-107 338h-259z" />
    <glyph glyph-name="uni0205" unicode="&#x205;" horiz-adv-x="940" 
d="M511 -20c153 0 294 60 370 135l-77 136c-77 -56 -166 -95 -270 -95c-125 0 -222 76 -231 205h585c0 280 -159 465 -400 465c-268 0 -444 -170 -444 -428c0 -252 185 -418 467 -418zM306 491c17 107 92 178 187 178s162 -71 167 -178h-354zM205 953h153l-107 338h-259z
M565 953h153l-107 338h-259z" />
    <glyph glyph-name="uni0206" unicode="&#x206;" horiz-adv-x="1224" 
d="M944 385v-216h-447v347h264v-110h103v400h-104v-118h-263v294l445 2v-196h206v364h-1095v-168h161v-816h-161v-168h1099v385h-208zM337 1255h174c12 76 56 118 129 118c70 0 116 -42 124 -118h181c-16 180 -129 289 -307 289c-176 0 -289 -108 -301 -289z" />
    <glyph glyph-name="uni0207" unicode="&#x207;" horiz-adv-x="940" 
d="M511 -20c153 0 294 60 370 135l-77 136c-77 -56 -166 -95 -270 -95c-125 0 -222 76 -231 205h585c0 280 -159 465 -400 465c-268 0 -444 -170 -444 -428c0 -252 185 -418 467 -418zM306 491c17 107 92 178 187 178s162 -71 167 -178h-354zM174 907h174
c12 76 56 118 129 118c70 0 116 -42 124 -118h181c-16 180 -129 289 -307 289c-176 0 -289 -108 -301 -289z" />
    <glyph glyph-name="uni0208" unicode="&#x208;" horiz-adv-x="757" 
d="M100 1300h153l-107 338h-259zM460 1300h153l-107 338h-259zM76 168v-168h605v168h-161v816h161v168h-605v-168h161v-816h-161z" />
    <glyph glyph-name="uni0209" unicode="&#x209;" horiz-adv-x="731" 
d="M140 0h502v168h-119v636h-379v-168h131v-468h-135v-168zM89 952h153l-107 338h-259zM449 952h153l-107 338h-259z" />
    <glyph glyph-name="uni020A" unicode="&#x20a;" horiz-adv-x="757" 
d="M69 1254h174c12 76 56 118 129 118c70 0 116 -42 124 -118h181c-16 180 -129 289 -307 289c-176 0 -289 -108 -301 -289zM76 168v-168h605v168h-161v816h161v168h-605v-168h161v-816h-161z" />
    <glyph glyph-name="uni020B" unicode="&#x20b;" horiz-adv-x="731" 
d="M140 0h502v168h-119v636h-379v-168h131v-468h-135v-168zM58 906h174c12 76 56 118 129 118c70 0 116 -42 124 -118h181c-16 180 -129 289 -307 289c-176 0 -289 -108 -301 -289z" />
    <glyph glyph-name="uni020C" unicode="&#x20c;" horiz-adv-x="1491" 
d="M745 -22c384 -2 659 245 659 594c0 351 -275 602 -660 602c-383 0 -657 -251 -657 -601s274 -597 658 -595zM744 174c-212 0 -365 169 -365 402c0 237 153 404 366 403c212 1 365 -166 365 -403c0 -233 -153 -402 -366 -402zM463 1300h153l-107 338h-259zM823 1300h153
l-107 338h-259z" />
    <glyph glyph-name="uni020D" unicode="&#x20d;" horiz-adv-x="1006" 
d="M502 -22c271 0 458 176 458 431c0 246 -186 417 -457 417s-458 -171 -458 -417c0 -255 186 -431 457 -431zM502 156c-119 -1 -201 102 -201 252c0 141 82 240 201 240s202 -98 202 -240c0 -150 -83 -253 -202 -252zM218 962h153l-107 338h-259zM578 962h153l-107 338
h-259z" />
    <glyph glyph-name="uni020E" unicode="&#x20e;" horiz-adv-x="1491" 
d="M745 -22c384 -2 659 245 659 594c0 351 -275 602 -660 602c-383 0 -657 -251 -657 -601s274 -597 658 -595zM744 174c-212 0 -365 169 -365 402c0 237 153 404 366 403c212 1 365 -166 365 -403c0 -233 -153 -402 -366 -402zM433 1254h174c12 76 56 118 129 118
c70 0 116 -42 124 -118h181c-16 180 -129 289 -307 289c-176 0 -289 -108 -301 -289z" />
    <glyph glyph-name="uni020F" unicode="&#x20f;" horiz-adv-x="1006" 
d="M502 -22c271 0 458 176 458 431c0 246 -186 417 -457 417s-458 -171 -458 -417c0 -255 186 -431 457 -431zM502 156c-119 -1 -201 102 -201 252c0 141 82 240 201 240s202 -98 202 -240c0 -150 -83 -253 -202 -252zM187 916h174c12 76 56 118 129 118
c70 0 116 -42 124 -118h181c-16 180 -129 289 -307 289c-176 0 -289 -108 -301 -289z" />
    <glyph glyph-name="uni0210" unicode="&#x210;" horiz-adv-x="1359" 
d="M1149 169l-216 368c149 38 260 118 260 309c0 242 -189 306 -445 306h-695v-168h161v-816h-161v-168h604v168h-160v816h231c123 0 183 -60 183 -147c0 -88 -45 -163 -199 -163h-147v-166h100l280 -508h372v169h-168zM308 1301h153l-107 338h-259zM668 1301h153l-107 338
h-259z" />
    <glyph glyph-name="uni0211" unicode="&#x211;" horiz-adv-x="829" 
d="M431 652v152h-379v-168h131v-468h-135v-168h502v168h-119v259c0 118 82 176 170 176c53 0 110 -19 153 -47l56 215c-54 23 -109 42 -166 42c-78 0 -156 -39 -213 -161zM175 953h153l-107 338h-259zM535 953h153l-107 338h-259z" />
    <glyph glyph-name="uni0212" unicode="&#x212;" horiz-adv-x="1359" 
d="M1149 169l-216 368c149 38 260 118 260 309c0 242 -189 306 -445 306h-695v-168h161v-816h-161v-168h604v168h-160v816h231c123 0 183 -60 183 -147c0 -88 -45 -163 -199 -163h-147v-166h100l280 -508h372v169h-168zM277 1255h174c12 76 56 118 129 118
c70 0 116 -42 124 -118h181c-16 180 -129 289 -307 289c-176 0 -289 -108 -301 -289z" />
    <glyph glyph-name="uni0213" unicode="&#x213;" horiz-adv-x="829" 
d="M431 652v152h-379v-168h131v-468h-135v-168h502v168h-119v259c0 118 82 176 170 176c53 0 110 -19 153 -47l56 215c-54 23 -109 42 -166 42c-78 0 -156 -39 -213 -161zM145 907h174c12 76 56 118 129 118c70 0 116 -42 124 -118h181c-16 180 -129 289 -307 289
c-176 0 -289 -108 -301 -289z" />
    <glyph glyph-name="uni0214" unicode="&#x214;" horiz-adv-x="1430" 
d="M728 -20c312 0 504 147 504 466v538h163v168h-533v-168h164v-544c0 -176 -93 -271 -276 -271c-173 0 -263 96 -263 268v547h173v168h-616v-168h160v-526c0 -290 146 -478 524 -478zM480 1301h153l-107 338h-259zM840 1301h153l-107 338h-259z" />
    <glyph glyph-name="uni0215" unicode="&#x215;" horiz-adv-x="1123" 
d="M426 -20c112 0 204 41 288 112l3 -92h382v169h-137v635h-381v-168h133v-377c-56 -58 -131 -93 -202 -93c-80 0 -126 47 -126 153v485h-369v-168h120v-358c0 -171 83 -298 289 -298zM243 953h153l-107 338h-259zM603 953h153l-107 338h-259z" />
    <glyph glyph-name="uni0216" unicode="&#x216;" horiz-adv-x="1430" 
d="M728 -20c312 0 504 147 504 466v538h163v168h-533v-168h164v-544c0 -176 -93 -271 -276 -271c-173 0 -263 96 -263 268v547h173v168h-616v-168h160v-526c0 -290 146 -478 524 -478zM449 1255h174c12 76 56 118 129 118c70 0 116 -42 124 -118h181
c-16 180 -129 289 -307 289c-176 0 -289 -108 -301 -289z" />
    <glyph glyph-name="uni0217" unicode="&#x217;" horiz-adv-x="1123" 
d="M426 -20c112 0 204 41 288 112l3 -92h382v169h-137v635h-381v-168h133v-377c-56 -58 -131 -93 -202 -93c-80 0 -126 47 -126 153v485h-369v-168h120v-358c0 -171 83 -298 289 -298zM212 907h174c12 76 56 118 129 118c70 0 116 -42 124 -118h181
c-16 180 -129 289 -307 289c-176 0 -289 -108 -301 -289z" />
    <glyph glyph-name="uni0218" unicode="&#x218;" horiz-adv-x="1094" 
d="M480 -593c205 1 285 69 284 261c0 38 -2 202 -6 231h-281l2 -251h151c0 -94 -52 -131 -150 -145v-96zM616 -20c254 0 410 158 404 364c-5 223 -130 295 -405 363c-175 41 -230 79 -230 166c-1 75 54 125 159 125c100 0 177 -42 219 -92v-92h194v341h-194v-76
c-52 54 -134 95 -252 95c-261 0 -397 -137 -397 -320c1 -221 137 -302 417 -367c162 -34 224 -74 224 -181c0 -92 -69 -147 -173 -147c-111 0 -216 61 -256 113v137h-203v-410h203v87c71 -65 180 -106 290 -106z" />
    <glyph glyph-name="uni0219" unicode="&#x219;" horiz-adv-x="898" 
d="M369 -593c205 1 285 69 284 261c0 38 -2 202 -6 231h-281l2 -251h151c0 -94 -52 -131 -150 -145v-96zM526 -21c143 0 298 62 302 239c5 175 -109 220 -245 258l-106 31c-98 27 -131 44 -131 90s50 68 114 68c62 0 142 -24 180 -62l16 -87h155v299h-173v-61
c-50 43 -132 72 -231 72c-154 0 -309 -76 -309 -231c0 -149 81 -213 226 -253l137 -39c89 -23 130 -38 130 -95c0 -48 -44 -73 -112 -73c-80 0 -184 37 -221 97l-8 67h-148v-299h165v70c48 -58 161 -91 259 -91z" />
    <glyph glyph-name="uni021A" unicode="&#x21a;" horiz-adv-x="1231" 
d="M34 1152v-449h195v281h252v-816h-160v-168h604v168h-161v816h241v-281h192v449h-1163zM499 -593c205 1 285 69 284 261c0 38 -2 202 -6 231h-281l2 -251h151c0 -94 -52 -131 -150 -145v-96z" />
    <glyph glyph-name="uni021B" unicode="&#x21b;" horiz-adv-x="680" 
d="M396 0h221v168h-150c-52 0 -62 33 -62 91v377h206v168h-206v345l-248 -68v-277h-126v-168h125v-389c0 -163 78 -247 240 -247zM273 -593c205 1 285 69 284 261c0 38 -2 202 -6 231h-281l2 -251h151c0 -94 -52 -131 -150 -145v-96z" />
    <glyph glyph-name="uni021E" unicode="&#x21e;" horiz-adv-x="1490" 
d="M1437 984v168h-605v-168h161v-307h-496v307h160v168h-604v-168h161v-816h-161v-168h604v168h-160v337h496v-337h-161v-168h605v168h-161v816h161zM622 1266h262l151 332h-163l-118 -214l-123 214h-170z" />
    <glyph glyph-name="uni021F" unicode="&#x21f;" horiz-adv-x="1174" 
d="M1025 168v353c2 205 -126 305 -277 305c-112 0 -213 -48 -309 -127v475h-390v-168h141v-838h-142v-168h514v168h-123v395c64 46 137 75 211 75c78 0 127 -53 127 -163v-307h-107v-168h496v168h-141zM512 1226h262l151 332h-163l-118 -214l-123 214h-170z" />
    <glyph glyph-name="uni0226" unicode="&#x226;" 
d="M734 1315c93 0 160 63 160 152c0 87 -67 151 -160 151c-91 0 -158 -64 -158 -151c0 -89 67 -152 158 -152zM46 169v-169h545v169h-162l85 252h388l85 -252h-167v-169h620v169h-143l-312 815h132v168h-754v-168h136l-306 -815h-147zM857 568h-299l144 409h16z" />
    <glyph glyph-name="uni0227" unicode="&#x227;" horiz-adv-x="964" 
d="M442 967c93 0 160 63 160 152c0 87 -67 151 -160 151c-91 0 -158 -64 -158 -151c0 -89 67 -152 158 -152zM342 -22c104 0 185 29 257 84l16 -62h328v169h-121v353c0 207 -170 303 -379 303c-121 0 -264 -32 -368 -99l67 -152c105 54 213 76 280 76c97 0 152 -47 152 -142
v-50c-53 11 -109 19 -166 19c-178 0 -352 -67 -352 -251c0 -149 121 -248 286 -248zM399 125c-67 0 -112 42 -112 105c0 94 74 120 148 120c62 0 108 -9 139 -19v-141c-52 -42 -116 -65 -175 -65z" />
    <glyph glyph-name="uni0228" unicode="&#x228;" horiz-adv-x="1224" 
d="M616 -402c96 0 176 41 176 143c0 66 -49 128 -154 143l29 121h-98l-67 -177c78 -5 117 -28 117 -69c0 -44 -31 -60 -76 -60c-38 0 -84 11 -128 27v-78c61 -31 135 -50 201 -50zM944 385v-216h-447v347h264v-110h103v400h-104v-118h-263v294l445 2v-196h206v364h-1095
v-168h161v-816h-161v-168h1099v385h-208z" />
    <glyph glyph-name="uni0229" unicode="&#x229;" horiz-adv-x="940" 
d="M484 -402c96 0 176 41 176 143c0 66 -49 128 -154 143l29 121h-98l-67 -177c78 -5 117 -28 117 -69c0 -44 -31 -60 -76 -60c-38 0 -84 11 -128 27v-78c61 -31 135 -50 201 -50zM511 -20c153 0 294 60 370 135l-77 136c-77 -56 -166 -95 -270 -95c-125 0 -222 76 -231 205
h585c0 280 -159 465 -400 465c-268 0 -444 -170 -444 -428c0 -252 185 -418 467 -418zM306 491c17 107 92 178 187 178s162 -71 167 -178h-354z" />
    <glyph glyph-name="uni022E" unicode="&#x22e;" horiz-adv-x="1491" 
d="M741 1314c93 0 160 63 160 152c0 87 -67 151 -160 151c-91 0 -158 -64 -158 -151c0 -89 67 -152 158 -152zM745 -22c384 -2 659 245 659 594c0 351 -275 602 -660 602c-383 0 -657 -251 -657 -601s274 -597 658 -595zM744 174c-212 0 -365 169 -365 402
c0 237 153 404 366 403c212 1 365 -166 365 -403c0 -233 -153 -402 -366 -402z" />
    <glyph glyph-name="uni022F" unicode="&#x22f;" horiz-adv-x="1006" 
d="M502 -22c271 0 458 176 458 431c0 246 -186 417 -457 417s-458 -171 -458 -417c0 -255 186 -431 457 -431zM502 156c-119 -1 -201 102 -201 252c0 141 82 240 201 240s202 -98 202 -240c0 -150 -83 -253 -202 -252zM495 976c93 0 160 63 160 152c0 87 -67 151 -160 151
c-91 0 -158 -64 -158 -151c0 -89 67 -152 158 -152z" />
    <glyph glyph-name="uni0232" unicode="&#x232;" horiz-adv-x="1363" 
d="M431 1308h488v129h-488v-129zM361 169v-169h638v169h-179v319l354 496h162v168h-532v-168h133l-227 -340l-240 340h135v168h-594v-168h156l371 -499v-316h-177z" />
    <glyph glyph-name="uni0233" unicode="&#x233;" horiz-adv-x="1115" 
d="M310 961h488v129h-488v-129zM200 -171v-189h122c218 0 262 94 352 298l312 698h125v168h-488v-168h118l-165 -406l-192 406h106v168h-483v-168h138l288 -578h78l-39 -101c-46 -119 -95 -128 -171 -128h-101z" />
    <glyph glyph-name="uni0237" unicode="&#x237;" horiz-adv-x="587" 
d="M-4 -344h102c396 0 384 244 384 464v684h-414v-168h160v-613c0 -139 -41 -175 -148 -175h-84v-192z" />
    <glyph glyph-name="uni0259" unicode="&#x259;" horiz-adv-x="600" 
 />
    <glyph glyph-name="uni02BC" unicode="&#x2bc;" horiz-adv-x="600" 
d="M46 874c205 1 285 69 284 261c0 38 -2 202 -6 231h-281l2 -251h151c0 -94 -52 -131 -150 -145v-96z" />
    <glyph glyph-name="circumflex" unicode="&#x2c6;" horiz-adv-x="730" 
d="M67 920h162l135 250l134 -250h166l-138 343h-325z" />
    <glyph glyph-name="caron" unicode="&#x2c7;" horiz-adv-x="711" 
d="M225 918h262l151 332h-163l-118 -214l-123 214h-170z" />
    <glyph glyph-name="uni02C9" unicode="&#x2c9;" horiz-adv-x="600" 
d="M57 897h465v149h-465v-149z" />
    <glyph glyph-name="breve" unicode="&#x2d8;" horiz-adv-x="692" 
d="M343 907c171 0 280 104 295 277h-163c-9 -80 -57 -124 -130 -124c-76 0 -122 44 -135 124h-156c11 -174 120 -277 289 -277z" />
    <glyph glyph-name="dotaccent" unicode="&#x2d9;" horiz-adv-x="408" 
d="M207 967c93 0 160 63 160 152c0 87 -67 151 -160 151c-91 0 -158 -64 -158 -151c0 -89 67 -152 158 -152z" />
    <glyph glyph-name="ring" unicode="&#x2da;" horiz-adv-x="538" 
d="M269 985c-60 0 -93 40 -93 92s33 92 93 92c59 0 93 -40 93 -92s-34 -92 -93 -92zM269 899c118 0 189 78 189 179c0 100 -70 175 -189 176c-120 -1 -189 -76 -189 -176c0 -101 71 -179 189 -179z" />
    <glyph glyph-name="ogonek" unicode="&#x2db;" horiz-adv-x="375" 
d="M256 -376c49 0 88 11 147 38v119c-29 -11 -53 -16 -80 -16c-72 0 -109 40 -109 109c0 37 11 84 49 135h-114c-57 -77 -78 -145 -78 -205c0 -105 73 -180 185 -180z" />
    <glyph glyph-name="tilde" unicode="&#x2dc;" horiz-adv-x="781" 
d="M554 905c124 -1 171 105 183 248h-108c-10 -48 -34 -67 -68 -67c-73 0 -212 82 -314 82c-101 0 -182 -66 -196 -245h110c7 48 33 64 67 64c89 0 232 -82 326 -82z" />
    <glyph glyph-name="hungarumlaut" unicode="&#x2dd;" horiz-adv-x="908" 
d="M120 953h153l213 338h-259zM480 953h153l213 338h-259z" />
    <glyph glyph-name="uni0307" unicode="&#x307;" horiz-adv-x="535" 
d="M268 901c87 0 143 60 142 137c0 84 -61 136 -142 136s-142 -57 -142 -136s62 -137 142 -137z" />
    <glyph glyph-name="uni030F" unicode="&#x30f;" horiz-adv-x="732" 
d="M197 953h153l-107 338h-259zM557 953h153l-107 338h-259z" />
    <glyph glyph-name="uni0311" unicode="&#x311;" horiz-adv-x="584" 
d="M-17 934h174c12 76 56 118 129 118c70 0 116 -42 124 -118h181c-16 180 -129 289 -307 289c-176 0 -289 -108 -301 -289z" />
    <glyph glyph-name="uni0312" unicode="&#x312;" horiz-adv-x="600" 
d="M101 915h286l-1 267h-157c0 94 58 131 155 145v96c-205 -1 -290 -69 -289 -261c0 -38 3 -218 6 -247z" />
    <glyph glyph-name="uni0326" unicode="&#x326;" horiz-adv-x="451" 
d="M105 -593c205 1 285 69 284 261c0 38 -2 202 -6 231h-281l2 -251h151c0 -94 -52 -131 -150 -145v-96z" />
    <glyph glyph-name="uni0358" unicode="&#x358;" horiz-adv-x="440" 
d="M219 967c93 0 160 63 160 152c0 87 -67 151 -160 151c-91 0 -158 -64 -158 -151c0 -89 67 -152 158 -152z" />
    <glyph glyph-name="uni0394" unicode="&#x394;" horiz-adv-x="1188" 
d="M75 0h1038v128l-410 1024h-221l-407 -1024v-128zM288 173l281 752l267 -752h-548z" />
    <glyph glyph-name="Sigma" unicode="&#x3a3;" horiz-adv-x="1039" 
d="M75 0h895v180h-533l360 385l-367 411h506v176h-844v-121l366 -446l-383 -444v-141z" />
    <glyph glyph-name="uni03A9" unicode="&#x3a9;" horiz-adv-x="1447" 
d="M93 0h562v156c-212 80 -299 280 -299 458c0 208 129 370 367 370s367 -163 367 -371c0 -177 -86 -377 -298 -457v-156h562v169h-269c187 112 269 284 269 457c0 285 -234 548 -631 548c-394 0 -630 -264 -630 -550c0 -172 83 -343 270 -455h-270v-169z" />
    <glyph glyph-name="uni03BC" unicode="&#x3bc;" horiz-adv-x="1123" 
d="M137 -262h249v680h-249v-680zM426 -20c112 0 204 41 288 112l3 -92h382v169h-137v635h-381v-168h133v-377c-56 -58 -131 -93 -202 -93c-80 0 -126 47 -126 153v485h-369v-168h120v-358c0 -171 83 -298 289 -298z" />
    <glyph glyph-name="pi" unicode="&#x3c0;" horiz-adv-x="1244" 
d="M933 -20c68 0 139 24 179 56v116c-47 -15 -83 -23 -114 -23c-56 0 -96 25 -96 111c0 81 5 203 18 352h195v212h-719c-199 0 -277 -147 -275 -312h113c10 64 47 100 94 100h73l-58 -285c-34 -163 -113 -203 -193 -211v-98h124c172 0 255 83 268 248l27 346h204
c-44 -152 -84 -285 -84 -395c0 -126 58 -217 244 -217z" />
    <glyph glyph-name="uni1E02" unicode="&#x1e02;" horiz-adv-x="1254" 
d="M544 1315c93 0 160 63 160 152c0 87 -67 151 -160 151c-91 0 -158 -64 -158 -151c0 -89 67 -152 158 -152zM52 0h629c396 0 502 171 502 340c0 130 -76 244 -254 283c124 37 196 123 196 251c0 170 -142 278 -432 278h-641v-168h161v-816h-161v-168zM496 169v363h152
c183 0 242 -81 242 -179c0 -110 -58 -184 -245 -184h-149zM496 694v290l123 1c158 -1 220 -38 220 -138c0 -103 -63 -153 -213 -153h-130z" />
    <glyph glyph-name="uni1E03" unicode="&#x1e03;" horiz-adv-x="1132" 
d="M723 967c93 0 160 63 160 152c0 87 -67 151 -160 151c-91 0 -158 -64 -158 -151c0 -89 67 -152 158 -152zM446 747v427h-401v-168h152v-838h-154v-168h403v50c69 -48 149 -71 229 -71c210 0 411 156 411 438c0 255 -166 408 -387 408c-85 0 -173 -26 -253 -78zM446 185
v414c52 35 106 51 157 51c143 0 222 -106 222 -249c0 -170 -106 -259 -236 -259c-47 0 -97 14 -143 43z" />
    <glyph glyph-name="uni1E0A" unicode="&#x1e0a;" horiz-adv-x="1452" 
d="M657 1314c93 0 160 63 160 152c0 87 -67 151 -160 151c-91 0 -158 -64 -158 -151c0 -89 67 -152 158 -152zM53 1152v-168h162v-815h-162v-169h668c430 0 646 220 646 588c0 306 -210 564 -646 564h-668zM499 169v815h215c248 0 355 -179 355 -399
c0 -254 -105 -416 -360 -416h-210z" />
    <glyph glyph-name="uni1E0B" unicode="&#x1e0b;" horiz-adv-x="1100" 
d="M314 967c93 0 160 63 160 152c0 87 -67 151 -160 151c-91 0 -158 -64 -158 -151c0 -89 67 -152 158 -152zM942 168v1006h-397v-168h148v-255c-75 47 -159 74 -242 74c-222 0 -400 -154 -400 -430c0 -262 190 -417 424 -417c77 0 151 21 218 62v-40h359v168h-110zM312 395
c0 175 92 256 221 256c50 0 105 -14 160 -42v-417c-55 -26 -111 -39 -161 -39c-124 0 -220 84 -220 242z" />
    <glyph glyph-name="uni1E1E" unicode="&#x1e1e;" horiz-adv-x="1152" 
d="M53 1152v-168h161v-816h-161v-168h604v168h-160v348h247v-109h111v374h-112v-110h-246v313h431v-192h190v360h-1065zM621 1315c93 0 160 63 160 152c0 87 -67 151 -160 151c-91 0 -158 -64 -158 -151c0 -89 67 -152 158 -152z" />
    <glyph glyph-name="uni1E1F" unicode="&#x1e1f;" horiz-adv-x="796" 
d="M69 169v-169h645v169h-223v467h213v168h-213v123c0 120 39 151 90 151c67 0 78 -44 90 -117l185 54c-15 160 -118 223 -301 223c-250 0 -313 -163 -313 -337v-97h-169v-168h169v-467h-173zM408 1324c93 0 160 63 160 152c0 87 -67 151 -160 151c-91 0 -158 -64 -158 -151
c0 -89 67 -152 158 -152z" />
    <glyph glyph-name="uni1E40" unicode="&#x1e40;" horiz-adv-x="1829" 
d="M914 1315c93 0 160 63 160 152c0 87 -67 151 -160 151c-91 0 -158 -64 -158 -151c0 -89 67 -152 158 -152zM53 169v-169h507v169h-150v797l407 -932h112l409 933v-798h-154v-169h594v169h-168v815h166v168h-555l-305 -700l-310 700h-553v-168h164v-815h-164z" />
    <glyph glyph-name="uni1E41" unicode="&#x1e41;" horiz-adv-x="1766" 
d="M931 967c93 0 160 63 160 152c0 87 -67 151 -160 151c-91 0 -158 -64 -158 -151c0 -89 67 -152 158 -152zM1614 168v353c1 205 -129 305 -284 305c-126 0 -238 -57 -344 -149c-47 100 -143 149 -252 149c-106 0 -202 -40 -293 -109v87h-390v-168h134v-468h-137v-168h515
v168h-122v410c59 37 125 60 191 60c79 0 130 -53 130 -163v-307h-109v-168h509v168h-144v353c0 15 0 30 -2 44c65 45 138 73 212 73c79 0 130 -53 130 -163v-307h-109v-168h509v168h-144z" />
    <glyph glyph-name="uni1E56" unicode="&#x1e56;" horiz-adv-x="1201" 
d="M580 1315c93 0 160 63 160 152c0 87 -67 151 -160 151c-91 0 -158 -64 -158 -151c0 -89 67 -152 158 -152zM570 625v-164h62c388 0 531 115 531 351c0 240 -169 340 -490 340h-620v-168h161v-816h-161v-168h604v168h-160v816h193c113 0 186 -56 186 -172
c0 -123 -72 -187 -241 -187h-65z" />
    <glyph glyph-name="uni1E57" unicode="&#x1e57;" horiz-adv-x="1094" 
d="M573 967c93 0 160 63 160 152c0 87 -67 151 -160 151c-91 0 -158 -64 -158 -151c0 -89 67 -152 158 -152zM412 751l-3 53h-387v-168h147v-817h-147v-168h567v168h-172v223c67 -42 142 -63 218 -63c210 0 411 156 411 438c0 255 -166 408 -387 408
c-83 0 -169 -25 -247 -74zM417 180v425c48 31 99 45 146 45c143 0 222 -106 222 -249c0 -170 -106 -259 -236 -259c-43 0 -89 13 -132 38z" />
    <glyph glyph-name="uni1E60" unicode="&#x1e60;" horiz-adv-x="1094" 
d="M560 1314c93 0 160 63 160 152c0 87 -67 151 -160 151c-91 0 -158 -64 -158 -151c0 -89 67 -152 158 -152zM616 -20c254 0 410 158 404 364c-5 223 -130 295 -405 363c-175 41 -230 79 -230 166c-1 75 54 125 159 125c100 0 177 -42 219 -92v-92h194v341h-194v-76
c-52 54 -134 95 -252 95c-261 0 -397 -137 -397 -320c1 -221 137 -302 417 -367c162 -34 224 -74 224 -181c0 -92 -69 -147 -173 -147c-111 0 -216 61 -256 113v137h-203v-410h203v87c71 -65 180 -106 290 -106z" />
    <glyph glyph-name="uni1E61" unicode="&#x1e61;" horiz-adv-x="898" 
d="M424 967c93 0 160 63 160 152c0 87 -67 151 -160 151c-91 0 -158 -64 -158 -151c0 -89 67 -152 158 -152zM526 -21c143 0 298 62 302 239c5 175 -109 220 -245 258l-106 31c-98 27 -131 44 -131 90s50 68 114 68c62 0 142 -24 180 -62l16 -87h155v299h-173v-61
c-50 43 -132 72 -231 72c-154 0 -309 -76 -309 -231c0 -149 81 -213 226 -253l137 -39c89 -23 130 -38 130 -95c0 -48 -44 -73 -112 -73c-80 0 -184 37 -221 97l-8 67h-148v-299h165v70c48 -58 161 -91 259 -91z" />
    <glyph glyph-name="uni1E6A" unicode="&#x1e6a;" horiz-adv-x="1231" 
d="M620 1315c93 0 160 63 160 152c0 87 -67 151 -160 151c-91 0 -158 -64 -158 -151c0 -89 67 -152 158 -152zM34 1152v-449h195v281h252v-816h-160v-168h604v168h-161v816h241v-281h192v449h-1163z" />
    <glyph glyph-name="uni1E6B" unicode="&#x1e6b;" horiz-adv-x="680" 
d="M290 1251c93 0 160 63 160 152c0 87 -67 151 -160 151c-91 0 -158 -64 -158 -151c0 -89 67 -152 158 -152zM396 0h221v168h-150c-52 0 -62 33 -62 91v377h206v168h-206v345l-248 -68v-277h-126v-168h125v-389c0 -163 78 -247 240 -247z" />
    <glyph glyph-name="Wgrave" unicode="&#x1e80;" horiz-adv-x="1924" 
d="M930 1301h153l-107 338h-258zM192 984l318 -984h182l274 726l276 -726h189l302 984h144v168h-484v-168h146l-181 -627l-289 782h-130l-293 -782l-180 627h137v168h-557v-168h146z" />
    <glyph glyph-name="wgrave" unicode="&#x1e81;" horiz-adv-x="1453" 
d="M123 636l233 -636h224l161 449l167 -449h203l220 636h99v168h-361v-168h92l-136 -417l-149 417h89v168h-411v-168h93l-146 -414l-139 414h81v168h-420v-168h100zM685 953h153l-107 338h-258z" />
    <glyph glyph-name="Wacute" unicode="&#x1e82;" horiz-adv-x="1924" 
d="M192 984l318 -984h182l274 726l276 -726h189l302 984h144v168h-484v-168h146l-181 -627l-289 782h-130l-293 -782l-180 627h137v168h-557v-168h146zM931 1301h153l213 338h-259z" />
    <glyph glyph-name="wacute" unicode="&#x1e83;" horiz-adv-x="1453" 
d="M123 636l233 -636h224l161 449l167 -449h203l220 636h99v168h-361v-168h92l-136 -417l-149 417h89v168h-411v-168h93l-146 -414l-139 414h81v168h-420v-168h100zM700 953h153l213 338h-259z" />
    <glyph glyph-name="Wdieresis" unicode="&#x1e84;" horiz-adv-x="1924" 
d="M192 984l318 -984h182l274 726l276 -726h189l302 984h144v168h-484v-168h146l-181 -627l-289 782h-130l-293 -782l-180 627h137v168h-557v-168h146zM776 1266c86 0 140 59 140 134c0 83 -61 133 -140 133s-139 -55 -139 -133c0 -77 60 -134 139 -134zM1244 1266
c86 0 140 59 140 134c0 83 -60 133 -140 133c-79 0 -139 -55 -139 -133c0 -77 61 -134 139 -134z" />
    <glyph glyph-name="wdieresis" unicode="&#x1e85;" horiz-adv-x="1453" 
d="M123 636l233 -636h224l161 449l167 -449h203l220 636h99v168h-361v-168h92l-136 -417l-149 417h89v168h-411v-168h93l-146 -414l-139 414h81v168h-420v-168h100zM531 918c86 0 140 59 140 134c0 83 -61 133 -140 133s-139 -55 -139 -133c0 -77 60 -134 139 -134zM999 918
c86 0 140 59 140 134c0 83 -60 133 -140 133c-79 0 -139 -55 -139 -133c0 -77 61 -134 139 -134z" />
    <glyph glyph-name="uni1EBC" unicode="&#x1ebc;" horiz-adv-x="1224" 
d="M803 1253c124 -1 171 105 183 248h-108c-10 -48 -34 -67 -68 -67c-73 0 -212 82 -314 82c-101 0 -182 -66 -196 -245h110c7 48 33 64 67 64c89 0 232 -82 326 -82zM944 385v-216h-447v347h264v-110h103v400h-104v-118h-263v294l445 2v-196h206v364h-1095v-168h161v-816
h-161v-168h1099v385h-208z" />
    <glyph glyph-name="uni1EBD" unicode="&#x1ebd;" horiz-adv-x="940" 
d="M640 905c124 -1 171 105 183 248h-108c-10 -48 -34 -67 -68 -67c-73 0 -212 82 -314 82c-101 0 -182 -66 -196 -245h110c7 48 33 64 67 64c89 0 232 -82 326 -82zM511 -20c153 0 294 60 370 135l-77 136c-77 -56 -166 -95 -270 -95c-125 0 -222 76 -231 205h585
c0 280 -159 465 -400 465c-268 0 -444 -170 -444 -428c0 -252 185 -418 467 -418zM306 491c17 107 92 178 187 178s162 -71 167 -178h-354z" />
    <glyph glyph-name="Ygrave" unicode="&#x1ef2;" horiz-adv-x="1363" 
d="M608 1300h153l-107 338h-258zM361 169v-169h638v169h-179v319l354 496h162v168h-532v-168h133l-227 -340l-240 340h135v168h-594v-168h156l371 -499v-316h-177z" />
    <glyph glyph-name="ygrave" unicode="&#x1ef3;" horiz-adv-x="1115" 
d="M486 953h153l-107 338h-258zM200 -171v-189h122c218 0 262 94 352 298l312 698h125v168h-488v-168h118l-165 -406l-192 406h106v168h-483v-168h138l288 -578h78l-39 -101c-46 -119 -95 -128 -171 -128h-101z" />
    <glyph glyph-name="uni1EF8" unicode="&#x1ef8;" horiz-adv-x="1363" 
d="M844 1252c124 -1 171 105 183 248h-108c-10 -48 -34 -67 -68 -67c-73 0 -212 82 -314 82c-101 0 -182 -66 -196 -245h110c7 48 33 64 67 64c89 0 232 -82 326 -82zM361 169v-169h638v169h-179v319l354 496h162v168h-532v-168h133l-227 -340l-240 340h135v168h-594v-168
h156l371 -499v-316h-177z" />
    <glyph glyph-name="uni1EF9" unicode="&#x1ef9;" horiz-adv-x="1115" 
d="M723 905c124 -1 171 105 183 248h-108c-10 -48 -34 -67 -68 -67c-73 0 -212 82 -314 82c-101 0 -182 -66 -196 -245h110c7 48 33 64 67 64c89 0 232 -82 326 -82zM200 -171v-189h122c218 0 262 94 352 298l312 698h125v168h-488v-168h118l-165 -406l-192 406h106v168
h-483v-168h138l288 -578h78l-39 -101c-46 -119 -95 -128 -171 -128h-101z" />
    <glyph glyph-name="endash" unicode="&#x2013;" horiz-adv-x="1081" 
d="M105 289h872v132h-872v-132z" />
    <glyph glyph-name="emdash" unicode="&#x2014;" horiz-adv-x="1958" 
d="M105 277h1748v132h-1748v-132z" />
    <glyph glyph-name="uni2015" unicode="&#x2015;" horiz-adv-x="1299" 
d="M0 774h1299v116h-1299v-116z" />
    <glyph glyph-name="quoteleft" unicode="&#x2018;" horiz-adv-x="581" 
d="M151 716h246v245h-116c1 97 26 130 104 139v109c-184 0 -234 -120 -234 -255v-238z" />
    <glyph glyph-name="quoteright" unicode="&#x2019;" horiz-adv-x="585" 
d="M189 696c184 1 234 121 234 257v237h-247v-244h118c-2 -98 -26 -131 -105 -140v-110z" />
    <glyph glyph-name="quotesinglbase" unicode="&#x201a;" horiz-adv-x="579" 
d="M188 -257c183 1 233 121 233 256v238h-246v-244h117c-2 -99 -26 -132 -104 -140v-110z" />
    <glyph glyph-name="quotedblleft" unicode="&#x201c;" horiz-adv-x="947" 
d="M165 716h247v245h-117c1 97 27 130 104 139v109c-183 0 -234 -120 -234 -255v-238zM515 716h246v245h-116c1 97 26 130 104 139v109c-184 0 -234 -120 -234 -255v-238z" />
    <glyph glyph-name="quotedblright" unicode="&#x201d;" horiz-adv-x="984" 
d="M189 696c184 1 234 121 234 257v237h-247v-244h118c-2 -98 -26 -131 -105 -140v-110zM535 696c183 1 233 121 233 257v237h-246v-244h117c-2 -98 -26 -131 -104 -140v-110z" />
    <glyph glyph-name="quotedblbase" unicode="&#x201e;" horiz-adv-x="979" 
d="M189 -257c183 1 233 121 233 256v238h-246v-244h117c-2 -99 -26 -132 -104 -140v-110zM571 -257c183 1 233 121 233 256v238h-246v-244h117c-2 -99 -26 -132 -104 -140v-110z" />
    <glyph glyph-name="dagger" unicode="&#x2020;" horiz-adv-x="831" 
d="M370 -227h88c0 384 41 626 81 803l-81 189l299 -47v195l-299 -44l64 366h-212l60 -366l-298 44v-195l298 47l-77 -189c37 -180 77 -423 77 -803z" />
    <glyph glyph-name="daggerdbl" unicode="&#x2021;" horiz-adv-x="802" 
d="M296 -227h213l-64 264l298 -43v195l-278 -48l-13 365l13 359l278 -47v194l-298 -43l64 264h-213l61 -264l-298 43v-194l278 47l12 -357l-12 -367l-278 48v-195l298 43z" />
    <glyph glyph-name="bullet" unicode="&#x2022;" horiz-adv-x="559" 
d="M280 368c114 0 201 87 201 194c0 109 -87 192 -201 192s-200 -86 -200 -192c0 -104 86 -194 200 -194z" />
    <glyph glyph-name="ellipsis" unicode="&#x2026;" horiz-adv-x="1712" 
d="M707 0h269v268h-269v-268zM1207 0h269v268h-269v-268zM207 0h269v268h-269v-268z" />
    <glyph glyph-name="perthousand" unicode="&#x2030;" horiz-adv-x="2622" 
d="M2183 109c-89 1 -151 72 -151 173s62 170 151 172c90 -2 152 -71 152 -172s-62 -172 -152 -173zM2183 -22c185 0 318 127 318 304c0 175 -133 300 -318 300s-317 -125 -317 -300c0 -177 132 -304 317 -304zM446 702c-89 2 -151 72 -151 174c0 100 62 169 151 171
c90 -2 152 -71 152 -171c0 -102 -62 -172 -152 -174zM446 571c185 0 318 127 318 305c0 175 -133 300 -318 300s-317 -125 -317 -300c0 -178 132 -305 317 -305zM503 -87l1007 1253l-126 98l-1010 -1247zM1431 109c-88 1 -150 72 -150 173s62 170 150 172
c90 -2 152 -71 152 -172s-62 -172 -152 -173zM1431 -22c186 0 319 127 319 304c0 175 -133 300 -319 300c-185 0 -317 -125 -317 -300c0 -177 132 -304 317 -304z" />
    <glyph glyph-name="guilsinglleft" unicode="&#x2039;" horiz-adv-x="744" 
d="M405 126h187l-220 429l220 432h-187l-322 -433z" />
    <glyph glyph-name="guilsinglright" unicode="&#x203a;" horiz-adv-x="744" 
d="M165 126h187l322 434l-322 427h-187l219 -429z" />
    <glyph glyph-name="fraction" unicode="&#x2044;" horiz-adv-x="802" 
d="M-77 -69h142l807 1301h-139z" />
    <glyph glyph-name="uni2074" unicode="&#x2074;" horiz-adv-x="1061" 
d="M334.18 529h401.86v119.99h-106.5v132.06h122.12v110.05h-122.12v455.82h-175.37l-349.32 -452.27l16.3301 -113.601h337.96v-132.06h-124.96v-119.99zM249.69 891.1l209.449 286.841v-286.841h-209.449z" />
    <glyph glyph-name="Euro" unicode="&#x20ac;" horiz-adv-x="1402" 
d="M-21 395h663l40 121h-406v118h366l40 121h-663l-40 -121h225v-118h-185zM724 -22c297 1 509 126 582 396l-211 75c-45 -201 -193 -275 -356 -275c-230 0 -369 170 -369 404c0 237 144 400 368 400c151 0 272 -60 343 -219h193v395h-188v-121c-58 60 -174 141 -361 141
c-380 0 -638 -238 -638 -602c0 -342 239 -593 637 -594z" />
    <glyph glyph-name="uni2113" unicode="&#x2113;" horiz-adv-x="787" 
d="M676 -9l24 180c-211 0 -213 51 -185 240l122 786h-430l-32 -192h165l-110 -725c-35 -228 168 -291 446 -289z" />
    <glyph glyph-name="trademark" unicode="&#x2122;" horiz-adv-x="1836" 
d="M814 473h283v102h-84v419l205 -502h66l199 501v-418h-83v-102h307v102h-85v476h85v101h-279l-175 -431l-171 431h-268v-101h85v-476h-85v-102zM268 473h351v102h-99v476h105v-172h116v273h-596v-273h116v172h108v-476h-101v-102z" />
    <glyph glyph-name="Omega" unicode="&#x2126;" horiz-adv-x="1447" 
d="M93 0h562v156c-212 80 -299 280 -299 458c0 208 129 370 367 370s367 -163 367 -371c0 -177 -86 -377 -298 -457v-156h562v169h-269c187 112 269 284 269 457c0 285 -234 548 -631 548c-394 0 -630 -264 -630 -550c0 -172 83 -343 270 -455h-270v-169z" />
    <glyph glyph-name="estimated" unicode="&#x212e;" horiz-adv-x="1115" 
d="M976 113l-29 41c-315 -214 -568 -93 -593 247h613c0 256 -105 425 -387 425c-268 0 -446 -162 -446 -406c0 -460 552 -553 842 -307zM356 461c8 423 492 440 492 0h-492z" />
    <glyph glyph-name="partialdiff" unicode="&#x2202;" horiz-adv-x="999" 
d="M401 -20c381 0 511 448 511 748c0 311 -136 509 -416 509c-180 0 -283 -79 -283 -187c0 -67 62 -125 230 -117c-3 88 51 178 145 178c124 0 187 -259 171 -473l49 3c-34 76 -113 137 -247 137c-346 0 -474 -314 -474 -494c0 -153 77 -304 314 -304zM487 117
c-65 0 -102 59 -103 155c0 143 76 385 227 385c55 0 112 -29 138 -116c-36 -244 -153 -424 -262 -424z" />
    <glyph glyph-name="emptyset" unicode="&#x2205;" horiz-adv-x="1349" 
d="M241 -64l114 135c91 -60 201 -93 319 -93c304 0 552 244 552 547c0 151 -61 286 -159 385l115 135l-68 59l-115 -136c-92 65 -204 105 -325 105c-302 0 -551 -221 -551 -548c0 -168 63 -306 165 -401l-110 -131zM358 207c-77 77 -122 188 -122 317c0 259 189 447 438 447
c97 0 186 -32 257 -84zM673 80c-94 0 -179 25 -249 72l573 675c73 -81 117 -188 117 -303c0 -237 -191 -444 -441 -444z" />
    <glyph glyph-name="Delta" unicode="&#x2206;" horiz-adv-x="1302" 
d="M90 0h1119v148l-412 1015h-266l-441 -1023v-140zM298 178c0 0 298 746 308 794c11 -48 280 -794 280 -794h-588z" />
    <glyph glyph-name="product" unicode="&#x220f;" horiz-adv-x="1517" 
d="M90 0h586v169h-153v815h471v-815h-153v-169h586v169h-149v815h149v168h-1337v-168h149v-815h-149v-169z" />
    <glyph glyph-name="summation" unicode="&#x2211;" horiz-adv-x="1307" 
d="M94 0h1083v385h-208v-216h-503l331 371l-1 96l-267 348h438v-196h205v364h-1078v-168h161l327 -435l-327 -380h-161v-169z" />
    <glyph glyph-name="minus" unicode="&#x2212;" horiz-adv-x="926" 
d="M77 409h772v167h-772v-167z" />
    <glyph glyph-name="uni2215" unicode="&#x2215;" horiz-adv-x="600" 
d="M142 -124l609 1322l-143 56l-611 -1323z" />
    <glyph glyph-name="uni2219" unicode="&#x2219;" horiz-adv-x="600" 
d="M259 681c93 0 160 63 160 152c0 87 -67 151 -160 151c-91 0 -158 -64 -158 -151c0 -89 67 -152 158 -152z" />
    <glyph glyph-name="radical" unicode="&#x221a;" horiz-adv-x="1263" 
d="M465 -8h197l510 1337h-141l-436 -1129l-173 417h-351v-123h166z" />
    <glyph glyph-name="infinity" unicode="&#x221e;" horiz-adv-x="1639" 
d="M1169 137c213 0 332 192 332 391c0 226 -121 390 -330 390c-140 0 -243 -74 -332 -231c-95 170 -227 237 -366 237c-201 0 -336 -168 -336 -390c0 -248 152 -391 336 -391c127 0 242 85 325 236c107 -167 236 -242 371 -242zM482 303c-128 0 -185 108 -185 228
c0 138 79 233 181 233c101 0 169 -74 238 -230c-70 -156 -147 -231 -234 -231zM1158 297c-98 0 -171 82 -236 231c77 158 144 231 234 231c112 0 188 -102 188 -229c0 -123 -70 -233 -186 -233z" />
    <glyph glyph-name="integral" unicode="&#x222b;" horiz-adv-x="990" 
d="M277 -319c324 0 349 368 349 705c0 181 -31 396 -31 515c0 169 21 218 68 218c43 0 64 -53 64 -156c159 0 201 62 201 120c0 71 -77 126 -227 126c-326 0 -358 -338 -358 -631c0 -174 40 -426 40 -588c0 -171 -28 -219 -67 -219c-44 0 -71 39 -71 163
c-159 0 -201 -59 -201 -116c0 -71 70 -137 233 -137z" />
    <glyph glyph-name="approxequal" unicode="&#x2248;" horiz-adv-x="1247" 
d="M171 359c57 62 149 116 227 116c61 0 106 -13 201 -54c129 -55 172 -65 247 -65c98 0 176 33 248 114v179c-58 -60 -148 -116 -227 -116c-61 0 -107 14 -201 55c-130 55 -172 64 -248 64c-98 0 -174 -33 -247 -113v-180zM171 717c57 62 149 116 227 116
c61 0 106 -13 201 -54c129 -55 172 -65 247 -65c98 0 176 33 248 114v179c-58 -60 -148 -116 -227 -116c-61 0 -107 14 -201 55c-130 55 -172 64 -248 64c-98 0 -174 -33 -247 -113v-180z" />
    <glyph glyph-name="notequal" unicode="&#x2260;" horiz-adv-x="1145" 
d="M361 0h173l50 202h436v168h-392l57 222h335v168h-290l52 202h-171l-54 -202h-432v-168h388l-59 -222h-329v-168h285z" />
    <glyph glyph-name="lessequal" unicode="&#x2264;" horiz-adv-x="1060" 
d="M936 239v190l-629 302l629 307v189l-879 -446v-98zM57 0h879v172h-879v-172z" />
    <glyph glyph-name="greaterequal" unicode="&#x2265;" horiz-adv-x="1061" 
d="M130 239l879 444v98l-879 446v-189l629 -307l-629 -302v-190zM130 0h879v172h-879v-172z" />
    <glyph glyph-name="lozenge" unicode="&#x25ca;" horiz-adv-x="1136" 
d="M521 0h94l479 605l-479 597h-94l-479 -597zM570 176l-326 429l326 415l322 -415z" />
    <glyph glyph-name="uniFB01" unicode="&#xfb01;" horiz-adv-x="1330" 
d="M100 0h581v168h-181v468h418v-468h-135v-168h502v168h-119v636h-666v97c0 201 99 268 233 268c102 0 163 -31 189 -51c-12 -20 -18 -41 -18 -63c0 -63 51 -112 132 -112c90 0 139 59 139 126c0 142 -210 231 -437 231c-223 0 -487 -86 -487 -416v-80h-153v-168h153v-468
h-151v-168z" />
    <glyph glyph-name="uniFB02" unicode="&#xfb02;" horiz-adv-x="1338" 
d="M86 0h582v168h-182v468h180v168h-180v150c0 111 133 160 267 160c77 0 143 -15 143 -73l-1 -873c0 -83 48 -168 157 -168h236v168h-143v947c0 120 -179 184 -378 184c-249 0 -530 -89 -530 -366v-129h-153v-168h153v-468h-151v-168z" />
    <glyph glyph-name="Adotaccent" 
d="M734 1315c93 0 160 63 160 152c0 87 -67 151 -160 151c-91 0 -158 -64 -158 -151c0 -89 67 -152 158 -152zM46 169v-169h545v169h-162l85 252h388l85 -252h-167v-169h620v169h-143l-312 815h132v168h-754v-168h136l-306 -815h-147zM857 568h-299l144 409h16z" />
    <glyph glyph-name="Ecedilla" horiz-adv-x="1224" 
d="M616 -402c96 0 176 41 176 143c0 66 -49 128 -154 143l29 121h-98l-67 -177c78 -5 117 -28 117 -69c0 -44 -31 -60 -76 -60c-38 0 -84 11 -128 27v-78c61 -31 135 -50 201 -50zM944 385v-216h-447v347h264v-110h103v400h-104v-118h-263v294l445 2v-196h206v364h-1095
v-168h161v-816h-161v-168h1099v385h-208z" />
    <glyph glyph-name="Hcaron" horiz-adv-x="1490" 
d="M1437 984v168h-605v-168h161v-307h-496v307h160v168h-604v-168h161v-816h-161v-168h604v168h-160v337h496v-337h-161v-168h605v168h-161v816h161zM622 1266h262l151 332h-163l-118 -214l-123 214h-170z" />
    <glyph glyph-name="Ngrave" horiz-adv-x="1565" 
d="M53 169v-169h544v169h-171v715l670 -884h246v984h184v168h-550v-168h169v-608l-598 776h-494v-168h178v-815h-178zM708 1301h153l-107 338h-258z" />
    <glyph glyph-name="Odotaccent" horiz-adv-x="1491" 
d="M741 1314c93 0 160 63 160 152c0 87 -67 151 -160 151c-91 0 -158 -64 -158 -151c0 -89 67 -152 158 -152zM745 -22c384 -2 659 245 659 594c0 351 -275 602 -660 602c-383 0 -657 -251 -657 -601s274 -597 658 -595zM744 174c-212 0 -365 169 -365 402
c0 237 153 404 366 403c212 1 365 -166 365 -403c0 -233 -153 -402 -366 -402z" />
    <glyph glyph-name="Tcommaaccent" horiz-adv-x="1231" 
d="M34 1152v-449h195v281h252v-816h-160v-168h604v168h-161v816h241v-281h192v449h-1163zM499 -593c205 1 285 69 284 261c0 38 -2 202 -6 231h-281l2 -251h151c0 -94 -52 -131 -150 -145v-96z" />
    <glyph glyph-name="Ymacron" horiz-adv-x="1363" 
d="M431 1308h488v129h-488v-129zM361 169v-169h638v169h-179v319l354 496h162v168h-532v-168h133l-227 -340l-240 340h135v168h-594v-168h156l371 -499v-316h-177z" />
    <glyph glyph-name="adotaccent" horiz-adv-x="964" 
d="M442 967c93 0 160 63 160 152c0 87 -67 151 -160 151c-91 0 -158 -64 -158 -151c0 -89 67 -152 158 -152zM342 -22c104 0 185 29 257 84l16 -62h328v169h-121v353c0 207 -170 303 -379 303c-121 0 -264 -32 -368 -99l67 -152c105 54 213 76 280 76c97 0 152 -47 152 -142
v-50c-53 11 -109 19 -166 19c-178 0 -352 -67 -352 -251c0 -149 121 -248 286 -248zM399 125c-67 0 -112 42 -112 105c0 94 74 120 148 120c62 0 108 -9 139 -19v-141c-52 -42 -116 -65 -175 -65z" />
    <glyph glyph-name="caron.alt" horiz-adv-x="600" 
d="M97 697c195 0 290 79 289 227v250h-289v-225h131c0 -86 -36 -122 -131 -133v-119z" />
    <glyph glyph-name="ecedilla" horiz-adv-x="940" 
d="M484 -402c96 0 176 41 176 143c0 66 -49 128 -154 143l29 121h-98l-67 -177c78 -5 117 -28 117 -69c0 -44 -31 -60 -76 -60c-38 0 -84 11 -128 27v-78c61 -31 135 -50 201 -50zM511 -20c153 0 294 60 370 135l-77 136c-77 -56 -166 -95 -270 -95c-125 0 -222 76 -231 205
h585c0 280 -159 465 -400 465c-268 0 -444 -170 -444 -428c0 -252 185 -418 467 -418zM306 491c17 107 92 178 187 178s162 -71 167 -178h-354z" />
    <glyph glyph-name="foundryicon" horiz-adv-x="1347" 
d="M485 405v267h106l170 -149v149h106v-267h-106l-170 147v-147h-106zM280 2l389 276l397 -276l-144 459l391 294h-485l-159 460l-150 -460h-485l389 -294z" />
    <glyph glyph-name="hcaron" horiz-adv-x="1174" 
d="M1025 168v353c2 205 -126 305 -277 305c-112 0 -213 -48 -309 -127v475h-390v-168h141v-838h-142v-168h514v168h-123v395c64 46 137 75 211 75c78 0 127 -53 127 -163v-307h-107v-168h496v168h-141zM512 1226h262l151 332h-163l-118 -214l-123 214h-170z" />
    <glyph glyph-name="idotaccent" horiz-adv-x="731" 
d="M366 966c93 0 160 63 160 152c0 87 -67 151 -160 151c-91 0 -158 -64 -158 -151c0 -89 67 -152 158 -152zM140 0h502v168h-119v636h-379v-168h131v-468h-135v-168z" />
    <glyph glyph-name="ngrave" horiz-adv-x="1149" 
d="M1001 168v353c1 205 -126 305 -278 305c-106 0 -202 -43 -293 -115v93h-379v-168h131v-468h-134v-168h501v168h-119v405c60 41 128 65 195 65c78 0 128 -53 128 -163v-307h-107v-168h495v168h-140zM531 953h153l-107 338h-258z" />
    <glyph glyph-name="odotaccent" horiz-adv-x="1006" 
d="M495 976c93 0 160 63 160 152c0 87 -67 151 -160 151c-91 0 -158 -64 -158 -151c0 -89 67 -152 158 -152zM502 -22c271 0 458 176 458 431c0 246 -186 417 -457 417s-458 -171 -458 -417c0 -255 186 -431 457 -431zM502 156c-119 -1 -201 102 -201 252
c0 141 82 240 201 240s202 -98 202 -240c0 -150 -83 -253 -202 -252z" />
    <glyph glyph-name="tcommaaccent" horiz-adv-x="680" 
d="M396 0h221v168h-150c-52 0 -62 33 -62 91v377h206v168h-206v345l-248 -68v-277h-126v-168h125v-389c0 -163 78 -247 240 -247zM273 -593c205 1 285 69 284 261c0 38 -2 202 -6 231h-281l2 -251h151c0 -94 -52 -131 -150 -145v-96z" />
    <glyph glyph-name="uniFB00" horiz-adv-x="1504" 
d="M75 0h609v169h-193v467h484v-467h-157v-169h610v169h-204v467h202v168h-202v123c0 120 26 151 76 151c57 0 67 -44 78 -117l186 54c-15 160 -117 223 -276 223c-250 0 -313 -139 -313 -337v-97h-484v123c0 120 39 151 90 151c67 0 78 -44 90 -117l185 54
c-15 160 -118 223 -301 223c-250 0 -313 -163 -313 -337v-97h-169v-168h169v-467h-167v-169z" />
    <glyph glyph-name="uniFB03" horiz-adv-x="1994" 
d="M75 0h574v169h-158v467h362v168h-362v144c0 94 83 143 196 143c91 0 201 -31 306 -94l106 71c-114 127 -292 190 -457 190c-213 0 -400 -104 -400 -316v-138h-169v-168h169v-467h-167v-169zM766 0h581v168h-181v468h418v-468h-135v-168h502v168h-119v636h-666v97
c0 201 99 268 233 268c102 0 163 -31 189 -51c-12 -20 -18 -41 -18 -63c0 -63 51 -112 132 -112c90 0 139 59 139 126c0 142 -210 231 -437 231c-223 0 -487 -86 -487 -416v-80h-153v-168h153v-468h-151v-168z" />
    <glyph glyph-name="uniFB04" horiz-adv-x="2134" 
d="M95 169v-169h634v169h-212v467h195v168h-195v123c0 103 101 170 232 170c98 0 210 -36 298 -112l183 58c-151 153 -350 223 -526 223c-241 0 -436 -133 -436 -365v-97h-170v-168h170v-467h-173zM882 0h582v168h-182v468h180v168h-180v150c0 111 133 160 267 160
c77 0 143 -15 143 -73l-1 -873c0 -83 48 -168 157 -168h236v168h-143v947c0 120 -179 184 -378 184c-249 0 -530 -89 -530 -366v-129h-153v-168h153v-468h-151v-168z" />
    <glyph glyph-name="ymacron" horiz-adv-x="1115" 
d="M310 961h488v129h-488v-129zM200 -171v-189h122c218 0 262 94 352 298l312 698h125v168h-488v-168h118l-165 -406l-192 406h106v168h-483v-168h138l288 -578h78l-39 -101c-46 -119 -95 -128 -171 -128h-101z" />
    </font>
</defs>
</svg>
