<?xml version="1.0" standalone="no"?>
<!DOCTYPE svg PUBLIC "-//W3C//DTD SVG 1.1//EN" "http://www.w3.org/Graphics/SVG/1.1/DTD/svg11.dtd" >
<svg version="1.1" xmlns="http://www.w3.org/2000/svg">
<metadata>
Created by FontForge 20120731 at Fri Aug  1 16:50:38 2014
 By Alfred Xing
Digitized data Copyright (c) 2011-2013, vernon adams.
</metadata>
<defs>
<font id="rokkitt" horiz-adv-x="1192" >
  <font-face 
    font-family="Rokkitt"
    font-weight="800"
    font-stretch="normal"
    units-per-em="2048"
    panose-1="2 0 8 3 0 0 0 0 0 0"
    ascent="1638"
    descent="-410"
    x-height="804"
    cap-height="1152"
    bbox="-227 -658 2706 2064"
    underline-thickness="0"
    underline-position="0"
    unicode-range="U+000D-FB02"
  />
<missing-glyph horiz-adv-x="630" 
 />
    <glyph glyph-name=".notdef" horiz-adv-x="630" 
 />
    <glyph glyph-name="uni0000" horiz-adv-x="1204" 
d="M651 -342h96c304 0 331 158 331 389v757h-654v94c0 214 93 283 228 283c79 0 155 -24 198 -57c-10 -16 -16 -35 -16 -55c0 -61 50 -108 113 -108c65 0 115 47 115 108c0 135 -201 225 -411 225c-232 0 -425 -110 -425 -393v-97h-130v-140h130v-524h-126v-140h492v140
h-168v524h456v-677c0 -121 -29 -173 -133 -173h-96v-156z" />
    <glyph glyph-name="uni0000" horiz-adv-x="1204" 
d="M651 -342h96c304 0 331 158 331 389v757h-654v94c0 214 93 283 228 283c79 0 155 -24 198 -57c-10 -16 -16 -35 -16 -55c0 -61 50 -108 113 -108c65 0 115 47 115 108c0 135 -201 225 -411 225c-232 0 -425 -110 -425 -393v-97h-130v-140h130v-524h-126v-140h492v140
h-168v524h456v-677c0 -121 -29 -173 -133 -173h-96v-156z" />
    <glyph glyph-name="uni000D" unicode="&#xd;" horiz-adv-x="600" 
 />
    <glyph glyph-name="space" unicode=" " horiz-adv-x="640" 
 />
    <glyph glyph-name="exclam" unicode="!" horiz-adv-x="599" 
d="M252 394h105l77 492v280h-272v-280zM139 0h315v266h-315v-266z" />
    <glyph glyph-name="quotedbl" unicode="&#x22;" horiz-adv-x="968" 
d="M222 632h149l51 552h-258zM596 632h149l51 552h-258z" />
    <glyph glyph-name="numbersign" unicode="#" horiz-adv-x="1316" 
d="M213 -2h208l63 299h219l-63 -299h209l63 299h241l26 166h-230l56 262h230l26 166h-220l60 278h-210l-59 -278h-218l59 278h-210l-58 -278h-226l-26 -166h215l-55 -262h-217l-26 -166h206zM521 463l56 262h218l-55 -262h-219z" />
    <glyph glyph-name="dollar" unicode="$" horiz-adv-x="1149" 
d="M546 -176h100v1534h-100v-1534zM633 -21c298 0 428 190 417 390c-10 190 -91 268 -402 360c-177 51 -207 84 -208 149c-1 55 42 97 117 97c106 0 187 -58 211 -84v-84h220v346h-220v-79c-38 48 -114 100 -256 100c-303 0 -418 -169 -417 -326c1 -199 95 -291 424 -382
c155 -42 213 -68 213 -161c0 -86 -69 -123 -151 -123c-106 0 -200 55 -242 95v151h-235v-428h235v78c63 -62 186 -99 294 -99z" />
    <glyph glyph-name="percent" unicode="%" horiz-adv-x="1999" 
d="M469 710c-77 3 -125 64 -125 161c0 96 48 157 125 159c78 -2 127 -63 127 -159c0 -97 -49 -158 -127 -161zM469 564c193 0 324 125 324 307c0 181 -131 304 -324 304c-191 0 -322 -123 -322 -304c0 -182 131 -307 322 -307zM600 -108l985 1275l-162 120l-988 -1270z
M1531 124c-77 3 -125 64 -125 161s48 157 125 160c78 -3 127 -63 127 -160s-49 -158 -127 -161zM1531 -22c193 0 324 125 324 307c0 181 -131 304 -324 304c-192 0 -322 -123 -322 -304c0 -182 130 -307 322 -307z" />
    <glyph glyph-name="ampersand" unicode="&#x26;" horiz-adv-x="1553" 
d="M563 -21c155 0 275 47 373 132l89 -111h386v191h-192l-95 98c62 79 107 158 141 251l143 4v183h-328c-23 -83 -52 -192 -111 -267l-178 188c177 84 231 174 231 287c0 123 -119 251 -331 251c-231 0 -362 -125 -362 -262c0 -108 36 -172 88 -238
c-173 -77 -302 -175 -302 -332c0 -192 159 -375 448 -375zM605 187c-124 0 -186 114 -186 178c0 76 46 130 128 174l246 -269c-58 -63 -115 -83 -188 -83zM667 801c-37 46 -63 87 -63 141c0 51 27 80 88 80c47 0 82 -30 82 -88s-22 -94 -107 -133z" />
    <glyph glyph-name="quotesingle" unicode="'" horiz-adv-x="618" 
d="M222 632h149l51 552h-258z" />
    <glyph glyph-name="parenleft" unicode="(" horiz-adv-x="758" 
d="M628 -146l-4 178c-118 115 -181 298 -181 483c0 184 63 368 181 485l4 171c-340 -175 -515 -419 -515 -662c0 -236 171 -476 515 -655z" />
    <glyph glyph-name="parenright" unicode=")" horiz-adv-x="758" 
d="M164 -146c344 179 516 419 516 655c0 243 -175 487 -516 662l5 -171c118 -117 180 -301 180 -485c0 -185 -62 -368 -180 -483z" />
    <glyph glyph-name="asterisk" unicode="*" horiz-adv-x="920" 
d="M345 413l119 322l124 -322l213 150l-254 210l312 13l-59 231l-300 -165l97 326h-261l96 -326l-296 165l-64 -231l314 -13l-256 -210z" />
    <glyph glyph-name="plus" unicode="+" horiz-adv-x="1008" 
d="M403 178h205v300h296v181h-296v304h-205v-304h-296v-181h296v-300z" />
    <glyph glyph-name="comma" unicode="," horiz-adv-x="784" 
d="M270 -278c259 1 337 67 337 323c0 84 -6 210 -14 275c-11 0 -319 -1 -329 -2c0 -9 4 -309 4 -318h174c0 -116 -62 -161 -172 -171v-107z" />
    <glyph glyph-name="hyphen" unicode="-" horiz-adv-x="672" 
d="M55 398h562v190h-562v-190z" />
    <glyph glyph-name="period" unicode="." horiz-adv-x="864" 
d="M306 0h292v299h-292v-299z" />
    <glyph glyph-name="slash" unicode="/" horiz-adv-x="589" 
d="M141 -212l645 1393l-158 75l-648 -1394z" />
    <glyph glyph-name="zero" unicode="0" horiz-adv-x="1174" 
d="M586 210c-131 0 -190 114 -190 346c0 259 59 387 190 387c133 0 192 -128 192 -386c0 -232 -59 -347 -192 -347zM586 -22c328 0 510 212 510 579c0 386 -182 617 -510 617c-327 0 -508 -232 -508 -617c0 -367 181 -579 508 -579z" />
    <glyph glyph-name="one" unicode="1" horiz-adv-x="1098" 
d="M210 0h738v197h-198v953l-542 -58v-194l211 36v-737h-209v-197z" />
    <glyph glyph-name="two" unicode="2" horiz-adv-x="1160" 
d="M157 0h886l-6 376h-212l-3 -195h-305l310 292c135 127 205 227 205 348c0 277 -268 353 -464 353c-318 0 -444 -174 -444 -361c0 -58 12 -116 35 -169h259c-12 45 -19 87 -19 125c0 117 56 191 169 191c91 0 155 -43 156 -140c1 -51 -36 -116 -107 -184l-459 -432z" />
    <glyph glyph-name="three" unicode="3" horiz-adv-x="1167" 
d="M571 -22c339 0 491 165 491 364c0 118 -69 240 -229 278c117 34 180 113 180 232c0 142 -100 323 -447 323c-146 0 -410 -87 -450 -303l240 -91c28 90 96 162 195 162c95 0 156 -56 156 -123c0 -72 -57 -135 -208 -135v-179c178 0 256 -48 257 -143
c2 -104 -77 -156 -184 -156c-94 0 -194 48 -238 193l-227 -110c54 -195 243 -312 464 -312z" />
    <glyph glyph-name="four" unicode="4" horiz-adv-x="1148" 
d="M345 0h662v196h-166v180h168v171h-168v605h-315l-492 -620l27 -156h480v-180h-196v-196zM264 547l277 367v-367h-277z" />
    <glyph glyph-name="five" unicode="5" horiz-adv-x="1164" 
d="M576 -23c285 0 481 158 481 391c0 239 -147 403 -362 403c-113 0 -225 -40 -267 -97l22 281h350v-103h202v300h-796l-33 -603l232 -91c48 60 134 99 194 99c95 0 159 -66 159 -165c0 -107 -84 -180 -206 -180c-100 0 -223 53 -302 127l-125 -192
c96 -100 277 -170 451 -170z" />
    <glyph glyph-name="six" unicode="6" horiz-adv-x="1152" 
d="M570 -21c277 0 475 132 475 437c0 212 -156 387 -408 387c-96 0 -217 -57 -227 -123l441 449l-197 170l-335 -369c-186 -196 -205 -348 -205 -504c0 -248 154 -447 456 -447zM580 187c-114 0 -173 86 -173 230c0 118 67 201 175 201c107 0 165 -85 165 -200
c0 -146 -60 -231 -167 -231z" />
    <glyph glyph-name="seven" unicode="7" horiz-adv-x="1153" 
d="M292 0h376s153 480 386 901v251h-926v-440h227v244h348c-182 -367 -411 -956 -411 -956z" />
    <glyph glyph-name="eight" unicode="8" horiz-adv-x="1182" 
d="M598 -22c293 0 492 138 492 330c0 141 -94 262 -235 300c115 36 187 138 187 256c0 184 -184 312 -451 310c-269 -2 -454 -130 -454 -311c0 -124 75 -228 193 -262c-143 -31 -238 -149 -238 -293c0 -191 202 -330 506 -330zM597 139c-101 0 -169 70 -169 171
c0 139 56 230 109 221c128 -29 220 -109 220 -222c0 -100 -66 -170 -160 -170zM634 678c-102 29 -179 98 -179 182c0 92 54 156 136 156c86 0 140 -65 140 -156c0 -118 -50 -195 -97 -182z" />
    <glyph glyph-name="nine" unicode="9" horiz-adv-x="1151" 
d="M503 -149l337 380c188 204 218 351 218 507c0 246 -155 436 -465 436c-271 0 -472 -131 -472 -434c0 -206 154 -382 402 -382c103 0 210 60 211 121l-434 -455zM587 547c-107 0 -169 85 -169 197c0 146 64 221 171 221c113 0 168 -77 168 -221c0 -114 -63 -197 -170 -197
z" />
    <glyph glyph-name="colon" unicode=":" horiz-adv-x="887" 
d="M283 16h314v315h-314v-315zM283 648h314v321h-314v-321z" />
    <glyph glyph-name="semicolon" unicode=";" horiz-adv-x="754" 
d="M242 -263c260 2 337 67 337 320c0 75 -5 222 -12 279h-330l3 -320h174c0 -116 -60 -163 -172 -172v-107zM238 648h314v321h-314v-321z" />
    <glyph glyph-name="less" unicode="&#x3c;" horiz-adv-x="1226" 
d="M1013 45v249l-711 295l711 305v246l-938 -416v-280z" />
    <glyph glyph-name="equal" unicode="=" horiz-adv-x="1118" 
d="M164 200h790v197h-790v-197zM164 599h790v198h-790v-198z" />
    <glyph glyph-name="greater" unicode="&#x3e;" horiz-adv-x="1226" 
d="M213 45l938 399v280l-938 416v-246l711 -305l-711 -295v-249z" />
    <glyph glyph-name="question" unicode="?" horiz-adv-x="1110" 
d="M447 395h199c65 254 349 220 349 501c0 160 -90 351 -423 351c-250 0 -457 -113 -457 -412h257c0 123 61 189 180 189c115 0 154 -61 154 -134c0 -165 -192 -103 -259 -495zM403 0h305v259h-305v-259z" />
    <glyph glyph-name="at" unicode="@" horiz-adv-x="1478" 
d="M798 -66c185 0 328 51 444 141l-74 88c-98 -77 -223 -114 -370 -114c-356 0 -553 203 -553 507c0 327 227 560 538 560c298 0 457 -201 457 -416c0 -238 -166 -365 -232 -365c-21 0 -22 45 -2 137l102 475h-143l-20 -106c-42 85 -114 122 -194 122
c-245 0 -368 -227 -368 -431c0 -206 132 -319 270 -319c77 0 153 32 213 113c11 -84 51 -113 101 -113c249 0 405 239 405 488c0 261 -174 532 -584 532c-440 0 -683 -341 -683 -675c0 -315 219 -624 693 -624zM683 327c-108 0 -159 96 -159 203c0 146 76 315 214 315
c101 0 166 -69 166 -177c0 -158 -99 -341 -221 -341z" />
    <glyph glyph-name="A" unicode="A" horiz-adv-x="1591" 
d="M49 196v-196h589v196h-166l77 220h378l74 -220h-178v-196h720v196h-153l-306 760h140v196h-866v-196h150l-306 -760h-153zM878 569h-283l138 373h14z" />
    <glyph glyph-name="B" unicode="B" horiz-adv-x="1375" 
d="M47 0h705c432 0 546 167 546 349c0 116 -62 245 -280 281c148 31 220 119 220 255c0 152 -138 267 -443 267h-748v-196h167v-760h-167v-196zM561 197v335h162c181 0 214 -86 214 -166c0 -92 -48 -169 -215 -169h-161zM561 710v246l155 2c119 -3 168 -38 168 -118
c0 -93 -53 -130 -177 -130h-146z" />
    <glyph glyph-name="C" unicode="C" horiz-adv-x="1451" 
d="M749 -22c354 0 557 165 616 431l-259 73c-41 -205 -185 -272 -342 -272c-208 0 -335 149 -335 367c0 219 124 365 332 365c157 0 268 -59 337 -215h239v426h-221v-121c-29 36 -140 142 -366 142c-388 0 -666 -231 -666 -605c0 -362 269 -591 665 -591z" />
    <glyph glyph-name="D" unicode="D" horiz-adv-x="1517" 
d="M48 1152v-196h168v-760h-168v-196h736c436 0 654 225 654 581c0 318 -216 571 -654 571h-736zM564 196v760h217c194 0 285 -160 285 -376c0 -236 -90 -384 -286 -384h-216z" />
    <glyph glyph-name="E" unicode="E" horiz-adv-x="1273" 
d="M959 416v-219h-396v308h200v-106h104v420h-106v-120h-198v254l394 3v-183h244v379h-1153v-196h167v-760h-167v-196h1160v416h-249z" />
    <glyph glyph-name="F" unicode="F" horiz-adv-x="1223" 
d="M48 1152v-196h167v-760h-167v-196h682v196h-167v309h210v-105h117v372h-120v-107h-207v291h401v-177h211v373h-1127z" />
    <glyph glyph-name="G" unicode="G" horiz-adv-x="1509" 
d="M782 -21c402 0 610 186 615 623h-541v-193h228c-11 -128 -110 -197 -294 -198c-187 0 -348 124 -348 365c0 238 132 366 352 366c148 0 271 -64 346 -214h224v434h-238v-141c-35 75 -206 153 -358 153c-391 0 -675 -239 -675 -598c0 -369 243 -597 689 -597z" />
    <glyph glyph-name="H" unicode="H" horiz-adv-x="1585" 
d="M1536 956v196h-681v-196h167v-276h-459v276h167v196h-682v-196h167v-760h-167v-196h682v196h-167v293h459v-293h-167v-196h681v196h-167v760h167z" />
    <glyph glyph-name="I" unicode="I" horiz-adv-x="791" 
d="M55 196v-196h681v196h-167v760h167v196h-681v-196h167v-760h-167z" />
    <glyph glyph-name="J" unicode="J" horiz-adv-x="821" 
d="M32 -58v-258h188c330 0 387 203 387 492v780h182v196h-727v-196h200v-817c0 -95 -22 -197 -130 -197h-100z" />
    <glyph glyph-name="K" unicode="K" horiz-adv-x="1540" 
d="M1375 196l-443 441l376 319h179v196h-645v-196h158l-437 -346v346h167v196h-682v-196h167v-760h-167v-196h682v196h-167v383l373 -383h-104v-196h668v196h-125z" />
    <glyph glyph-name="L" unicode="L" horiz-adv-x="1278" 
d="M937 559v-363h-374v760h167v196h-682v-196h167v-760h-167v-196h1167v559h-278z" />
    <glyph glyph-name="M" unicode="M" horiz-adv-x="1936" 
d="M48 196v-196h551v196h-152v739l387 -906h150l389 907v-740h-160v-196h676v196h-180v760h176v196h-629l-287 -659l-290 659h-631v-196h170v-760h-170z" />
    <glyph glyph-name="N" unicode="N" horiz-adv-x="1653" 
d="M48 196v-196h582v196h-172v629l680 -825h287v956h190v196h-589v-196h168v-493l-590 689h-556v-196h182v-760h-182z" />
    <glyph glyph-name="O" unicode="O" horiz-adv-x="1532" 
d="M766 -22c405 -5 682 236 682 593c0 359 -277 603 -683 603c-405 0 -681 -244 -681 -602s276 -599 682 -594zM765 210c-198 0 -333 152 -333 369c0 221 135 366 334 363c198 3 333 -142 333 -363c0 -217 -135 -369 -334 -369z" />
    <glyph glyph-name="P" unicode="P" horiz-adv-x="1282" 
d="M639 642v-186h41c448 0 562 111 562 353c0 258 -173 343 -500 343h-694v-196h167v-760h-167v-196h682v196h-167v760h186c78 0 147 -43 147 -146c0 -110 -48 -168 -200 -168h-57z" />
    <glyph glyph-name="Q" unicode="Q" horiz-adv-x="1532" 
d="M1346 -335v220c-156 -39 -354 -43 -436 102c326 48 538 271 538 584c0 359 -277 603 -683 603c-405 0 -681 -244 -681 -602c0 -307 204 -529 516 -581c128 -356 519 -382 746 -326zM765 210c-198 0 -333 152 -333 369c0 221 135 366 334 363c198 3 333 -142 333 -363
c0 -217 -135 -369 -334 -369z" />
    <glyph glyph-name="R" unicode="R" horiz-adv-x="1464" 
d="M1246 197l-189 329c114 30 252 92 252 313c0 258 -200 313 -468 313h-793v-196h167v-760h-167v-196h682v196h-167v760h236c113 0 165 -57 165 -132c0 -84 -43 -145 -183 -145h-142v-186h87l266 -493h420v197h-166z" />
    <glyph glyph-name="S" unicode="S" horiz-adv-x="1150" 
d="M645 -21c298 0 428 190 417 390c-10 190 -91 268 -402 360c-177 51 -207 84 -208 149c-1 55 42 97 117 97c106 0 187 -58 211 -84v-84h220v346h-220v-79c-38 48 -114 100 -256 100c-303 0 -418 -169 -417 -326c1 -199 95 -291 424 -382c155 -42 213 -68 213 -161
c0 -86 -69 -123 -151 -123c-106 0 -200 55 -242 95v151h-235v-428h235v78c63 -62 186 -99 294 -99z" />
    <glyph glyph-name="T" unicode="T" horiz-adv-x="1320" 
d="M16 1152v-487h230v291h247v-760h-167v-196h682v196h-167v760h239v-291h224v487h-1288z" />
    <glyph glyph-name="U" unicode="U" horiz-adv-x="1549" 
d="M788 -21c353 0 547 164 547 492v485h171v196h-577v-196h176v-487c0 -178 -95 -272 -278 -272c-174 0 -265 95 -265 271v488h191v196h-708v-196h170v-481c0 -318 185 -496 573 -496z" />
    <glyph glyph-name="V" unicode="V" horiz-adv-x="1517" 
d="M195 956l450 -956h247l413 956h174v196h-570v-196h159l-252 -594l-248 594h153v196h-673v-196h147z" />
    <glyph glyph-name="W" unicode="W" horiz-adv-x="1989" 
d="M201 956l334 -956h184l280 637l283 -637h194l312 956h146v196h-508v-196h150l-167 -524l-295 694h-102l-309 -694l-158 524h131v196h-621v-196h146z" />
    <glyph glyph-name="X" unicode="X" horiz-adv-x="1487" 
d="M36 195v-195h578v195h-141l212 228l201 -228h-122v-195h686v195h-153l-378 411l328 352h166v194h-563v-194h123l-183 -208l-184 208h104v194h-657v-194h135l364 -391l-355 -372h-161z" />
    <glyph glyph-name="Y" unicode="Y" horiz-adv-x="1414" 
d="M338 196v-196h720v196h-187v269l359 491h165v196h-570v-196h125l-212 -315l-222 315h127v196h-657v-196h160l377 -494v-266h-185z" />
    <glyph glyph-name="Z" unicode="Z" horiz-adv-x="1266" 
d="M72 0h1117v566h-222v-369h-466l666 762v193h-1099v-528h226v332h417l-639 -746v-210z" />
    <glyph glyph-name="bracketleft" unicode="[" horiz-adv-x="898" 
d="M293 -233h440v164h-183v1168h183v159h-440v-1491z" />
    <glyph glyph-name="backslash" unicode="\" horiz-adv-x="728" 
d="M628 -21h265l-855 1363h-265z" />
    <glyph glyph-name="bracketright" unicode="]" horiz-adv-x="897" 
d="M165 -233h440v1491h-440v-159h182v-1168h-182v-164z" />
    <glyph glyph-name="asciicircum" unicode="^" horiz-adv-x="1173" 
d="M84 352h248l252 597l253 -597h248l-392 816h-221z" />
    <glyph glyph-name="underscore" unicode="_" horiz-adv-x="1107" 
d="M35 -214h1037v129h-1037v-129z" />
    <glyph glyph-name="grave" unicode="`" horiz-adv-x="653" 
d="M330 936h177l-95 356h-289z" />
    <glyph glyph-name="a" unicode="a" horiz-adv-x="1001" 
d="M345 -21c92 0 182 27 257 78l24 -57h350v198h-115v311c0 217 -182 315 -402 315c-132 0 -273 -30 -395 -99l75 -178c122 54 217 74 288 74c87 0 134 -41 134 -128v-33c-41 10 -93 16 -146 16c-166 0 -358 -59 -358 -241c0 -167 131 -256 288 -256zM430 140
c-58 0 -100 36 -100 91c0 82 60 108 126 108c40 0 78 -7 105 -17v-135c-41 -31 -90 -47 -131 -47z" />
    <glyph glyph-name="b" unicode="b" horiz-adv-x="1181" 
d="M497 751v423h-455v-196h154v-782h-156v-196h457v47c71 -46 149 -68 229 -68c215 0 411 157 411 441c0 239 -150 406 -393 406c-83 0 -167 -27 -247 -75zM497 179v422c39 17 77 26 114 26c158 0 210 -118 210 -227c0 -153 -99 -241 -230 -241c-30 0 -62 6 -94 20z" />
    <glyph glyph-name="c" unicode="c" horiz-adv-x="981" 
d="M528 -21c141 0 283 57 386 146l-86 160c-80 -60 -172 -105 -283 -104c-124 1 -194 92 -194 232c0 138 77 212 175 213c87 1 158 -47 189 -181h187v360h-206l-5 -64c-35 51 -127 85 -206 85c-268 0 -440 -173 -440 -415c0 -268 184 -432 483 -432z" />
    <glyph glyph-name="d" unicode="d" horiz-adv-x="1134" 
d="M991 196v978h-447v-196h146v-232c-73 49 -155 80 -236 80c-239 0 -408 -170 -408 -438c0 -250 184 -410 444 -410c75 0 141 21 200 57v-35h399v196h-98zM362 402c0 151 86 224 212 224c37 0 76 -8 116 -23v-400c-47 -17 -93 -25 -131 -25c-116 0 -197 85 -197 224z" />
    <glyph glyph-name="e" unicode="e" horiz-adv-x="950" 
d="M524 -21c145 0 284 49 370 122l-80 156c-74 -46 -163 -77 -251 -77c-111 0 -202 56 -209 178h544c0 290 -154 469 -405 469c-280 0 -451 -164 -451 -432c0 -258 183 -416 482 -416zM356 500c16 97 73 157 148 157c85 0 137 -60 137 -157h-285z" />
    <glyph glyph-name="f" unicode="f" horiz-adv-x="879" 
d="M67 196v-196h716v196h-233v412h229v196h-229v102c0 134 47 155 90 155c70 0 76 -40 88 -119l219 69c-21 153 -102 232 -351 232c-304 0 -346 -211 -346 -392v-47h-182v-196h182v-412h-183z" />
    <glyph glyph-name="g" unicode="g" horiz-adv-x="1131" 
d="M481 -399c266 0 491 95 491 454v556h115v193h-353l-29 -65c-76 52 -161 85 -247 85c-238 0 -407 -166 -407 -429c0 -245 184 -402 443 -402c62 0 119 14 170 40c-1 -5 -1 -28 -1 -32c-7 -140 -66 -191 -185 -191c-87 0 -166 13 -276 47l-48 -200c104 -32 204 -56 327 -56
zM563 189c-115 0 -196 83 -196 220c0 148 86 220 212 220c26 0 55 -6 83 -17l2 -405c-35 -12 -70 -18 -101 -18z" />
    <glyph glyph-name="h" unicode="h" horiz-adv-x="1244" 
d="M1092 196v300c2 226 -124 330 -282 330c-120 0 -227 -48 -330 -143v491h-434v-196h133v-782h-134v-196h556v196h-121v346c60 42 123 64 188 63c73 0 124 -45 124 -150v-259h-101v-196h537v196h-136z" />
    <glyph glyph-name="i" unicode="i" horiz-adv-x="661" 
d="M332 966c109 0 182 70 181 173c0 102 -72 172 -181 172c-107 0 -180 -70 -180 -172c0 -103 73 -173 180 -173zM78 196v-196h532v196h-108v608h-417v-196h117v-412h-124z" />
    <glyph glyph-name="j" unicode="j" horiz-adv-x="617" 
d="M343 968c109 0 182 69 181 173c0 102 -72 172 -181 172c-107 0 -180 -70 -180 -172c0 -104 73 -173 180 -173zM-12 -118v-227h107c490 0 438 328 438 538v611h-464v-196h154v-548c0 -157 -53 -178 -164 -178h-71z" />
    <glyph glyph-name="k" unicode="k" horiz-adv-x="1199" 
d="M1011 197l-237 242l229 171h122v194h-517v-194h146l-274 -188v752h-434v-196h133v-782h-134v-196h556v196h-121v200l358 -396h320v197h-147z" />
    <glyph glyph-name="l" unicode="l" horiz-adv-x="652" 
d="M52 196v-196h556v196h-121v978h-434v-196h134v-782h-135z" />
    <glyph glyph-name="m" unicode="m" horiz-adv-x="1905" 
d="M1747 196v300c3 226 -129 330 -295 330c-136 0 -256 -56 -374 -167c-47 114 -148 167 -267 167c-115 0 -219 -41 -320 -121v99h-439v-196h123v-412h-130v-196h559v196h-113v362c55 32 112 48 170 47c77 0 130 -45 130 -150v-259h-105v-196h563v196h-142v300
c0 16 -1 31 -2 46c63 43 129 64 197 63c76 0 129 -45 129 -150v-259h-105v-196h564v196h-143z" />
    <glyph glyph-name="n" unicode="n" horiz-adv-x="1224" 
d="M1072 196v300c2 226 -124 330 -282 330c-116 0 -220 -45 -321 -134v112h-417v-196h117v-412h-124v-196h533v196h-109v352c58 39 117 58 179 57c73 0 124 -45 124 -150v-259h-101v-196h537v196h-136z" />
    <glyph glyph-name="o" unicode="o" horiz-adv-x="1039" 
d="M519 -22c284 0 476 175 476 436c0 246 -192 412 -475 412c-284 0 -476 -166 -476 -412c0 -261 192 -436 475 -436zM519 178c-101 -2 -169 93 -169 235c0 127 68 213 169 213s170 -86 170 -213c0 -142 -69 -237 -170 -235z" />
    <glyph glyph-name="p" unicode="p" horiz-adv-x="1136" 
d="M461 757l-1 47h-443v-196h146v-790h-146v-196h623v196h-177v221c68 -41 141 -60 217 -60c215 0 411 157 411 441c0 239 -150 406 -393 406c-80 0 -160 -25 -237 -69zM464 175v430c34 15 68 22 101 22c158 0 210 -118 210 -227c0 -153 -99 -241 -230 -241
c-26 0 -54 5 -81 16z" />
    <glyph glyph-name="q" unicode="q" horiz-adv-x="1143" 
d="M531 -384h607v198h-136v794h87v196h-388v-65c-76 53 -162 87 -248 87c-238 0 -407 -170 -407 -438c0 -250 184 -410 443 -410c80 0 151 23 212 64v-228h-170v-198zM558 178c-115 0 -196 85 -196 224c0 151 86 224 212 224c40 0 84 -10 127 -29v-388
c-51 -21 -101 -31 -143 -31z" />
    <glyph glyph-name="r" unicode="r" horiz-adv-x="860" 
d="M471 640v164h-417v-196h117v-412h-124v-196h532v196h-108v238c0 97 82 134 157 134c59 0 124 -21 161 -43l64 249c-50 20 -101 40 -160 40c-76 0 -160 -40 -222 -174z" />
    <glyph glyph-name="s" unicode="s" horiz-adv-x="925" 
d="M543 -22c139 0 301 52 302 253c2 159 -97 200 -217 238l-122 39c-82 25 -119 39 -119 82c0 40 38 57 94 57c54 0 136 -25 169 -56l15 -84h173v313h-190v-69c-49 39 -116 76 -238 75c-132 0 -321 -62 -321 -235c0 -126 68 -208 194 -246l173 -55c69 -20 106 -36 106 -80
c0 -33 -26 -54 -85 -54c-77 0 -187 38 -218 89l-6 55h-161v-300h180v77c38 -61 170 -99 271 -99z" />
    <glyph glyph-name="t" unicode="t" horiz-adv-x="723" 
d="M402 0h258v196h-154c-53 0 -58 32 -58 64v348h210v196h-210v338l-300 -58v-280h-127v-196h126v-362c0 -167 88 -246 255 -246z" />
    <glyph glyph-name="u" unicode="u" 
d="M435 -21c126 0 217 42 298 108l1 -87h423v196h-124v608h-426v-196h126v-340c-48 -42 -117 -73 -178 -73c-70 0 -122 41 -122 151v458h-413v-196h113v-321c0 -163 74 -308 302 -308z" />
    <glyph glyph-name="v" unicode="v" horiz-adv-x="1172" 
d="M153 608l307 -608h261l305 608h118v196h-458v-196h98l-151 -325l-151 325h87v196h-541v-196h125z" />
    <glyph glyph-name="w" unicode="w" horiz-adv-x="1488" 
d="M144 608l219 -608h264l145 396l153 -396h221l206 608h101v196h-347v-196h84l-126 -366l-135 366h79v196h-407v-196h83l-135 -365l-121 365h74v196h-466v-196h108z" />
    <glyph glyph-name="x" unicode="x" horiz-adv-x="1079" 
d="M31 196v-196h411v196h-102l150 122l148 -122h-93v-196h501v196h-105l-263 236l226 176h128v196h-406v-196h86l-130 -108l-125 108h56v196h-478v-196h118l235 -209l-249 -203h-108z" />
    <glyph glyph-name="y" unicode="y" horiz-adv-x="1174" 
d="M208 -136v-221h126c195 0 256 66 351 256l358 709h119v196h-526v-196h112l-151 -331l-170 331h106v196h-521v-196h136l286 -537h79l-48 -99c-48 -101 -97 -108 -153 -108h-104z" />
    <glyph glyph-name="z" unicode="z" horiz-adv-x="985" 
d="M84 177v-177h848v348h-203v-177h-291l458 447v186h-811v-329h202v155h250z" />
    <glyph glyph-name="braceleft" unicode="{" horiz-adv-x="950" 
d="M718 -227h106v167c-181 0 -202 39 -202 146c0 305 -17 382 -253 418c240 29 254 114 254 432c0 93 27 131 201 131v167h-106c-389 0 -384 -155 -384 -377c0 -183 -48 -273 -199 -273v-160c152 0 199 -91 199 -275c0 -222 -4 -376 384 -376z" />
    <glyph glyph-name="bar" unicode="|" horiz-adv-x="619" 
d="M187 -206h246v1391h-246v-1391z" />
    <glyph glyph-name="braceright" unicode="}" horiz-adv-x="951" 
d="M164 -227h106c388 0 384 154 384 376c0 184 47 275 199 275v160c-151 0 -199 90 -199 274c0 221 4 376 -384 376h-106v-167c174 0 201 -38 201 -131c0 -318 14 -403 254 -432c-237 -36 -253 -114 -253 -420c0 -105 -21 -144 -202 -144v-167z" />
    <glyph glyph-name="asciitilde" unicode="~" horiz-adv-x="1218" 
d="M840 461c96 0 177 47 245 127l-27 143c-65 -65 -133 -101 -211 -101c-137 0 -288 127 -461 127c-102 0 -184 -43 -254 -130l23 -138c72 73 134 108 215 108c153 0 304 -136 470 -136z" />
    <glyph glyph-name="uni00A0" unicode="&#xa0;" horiz-adv-x="600" 
 />
    <glyph glyph-name="exclamdown" unicode="&#xa1;" horiz-adv-x="686" 
d="M203 -225h272v280l-78 492h-105l-89 -492v-280zM495 675v266h-315v-266h315z" />
    <glyph glyph-name="cent" unicode="&#xa2;" horiz-adv-x="987" 
d="M388 -403l315 1591l-82 13l-313 -1591zM528 -21c141 0 283 57 386 146l-86 160c-80 -60 -172 -105 -283 -104c-124 1 -194 92 -194 232c0 138 77 212 175 213c87 1 158 -47 189 -181h187v360h-206l-5 -64c-35 51 -127 85 -206 85c-268 0 -440 -173 -440 -415
c0 -268 184 -432 483 -432z" />
    <glyph glyph-name="sterling" unicode="&#xa3;" horiz-adv-x="1150" 
d="M279 -21c99 0 169 42 219 98c76 -55 208 -98 304 -98c221 0 279 124 283 332v40h-184c-6 -113 -44 -149 -103 -149c-46 0 -94 26 -127 45c19 47 27 93 27 138c0 66 -18 130 -45 184h313v137h-367c-34 59 -59 129 -59 192c0 79 40 136 132 136c93 0 125 -72 122 -158h244
c6 189 -124 339 -370 339c-305 0 -440 -141 -440 -324c0 -62 16 -124 43 -185h-148v-137h220c46 -55 95 -163 95 -225c-29 24 -102 56 -167 56c-161 0 -230 -114 -230 -220c0 -97 64 -201 238 -201zM279 103c-46 0 -85 29 -85 80c0 49 31 77 76 77c38 0 86 -21 132 -68
c-28 -62 -79 -89 -123 -89z" />
    <glyph glyph-name="currency" unicode="&#xa4;" 
d="M301 451l88 87c57 -28 119 -52 202 -52c80 0 145 18 208 53l90 -88l69 68l-85 84c42 50 74 114 74 203c0 76 -24 145 -72 199l83 83l-69 69l-88 -88c-51 30 -122 55 -207 55c-88 0 -156 -25 -207 -53l-86 86l-69 -69l80 -81c-46 -58 -73 -128 -73 -206
c0 -84 35 -153 75 -200l-82 -82zM591 600c-135 0 -220 105 -220 211c0 93 90 195 223 195c115 0 219 -98 219 -197c0 -104 -85 -209 -222 -209z" />
    <glyph glyph-name="yen" unicode="&#xa5;" horiz-adv-x="1382" 
d="M225 297h927v117h-354v89h354v119h-927v-119h413v-89h-413v-117zM338 196v-196h720v196h-187v269l359 491h165v196h-570v-196h125l-212 -315l-222 315h127v196h-657v-196h160l377 -494v-266h-185z" />
    <glyph glyph-name="brokenbar" unicode="&#xa6;" horiz-adv-x="611" 
d="M187 -232h238v572h-238v-572zM187 610h238v572h-238v-572z" />
    <glyph glyph-name="section" unicode="&#xa7;" horiz-adv-x="926" 
d="M452 -185c218 0 330 121 330 295c0 64 -22 129 -58 175c58 36 105 114 105 193c0 141 -97 219 -327 330c-124 58 -196 90 -196 193c0 99 60 154 152 154c116 0 145 -118 145 -214c100 0 155 50 155 117c0 108 -100 187 -292 187c-188 0 -324 -96 -324 -263
c0 -90 33 -156 71 -196c-63 -32 -107 -95 -107 -168c0 -129 71 -219 253 -308c243 -120 282 -158 282 -248c0 -96 -62 -159 -167 -159c-128 0 -194 107 -194 251c-86 0 -146 -44 -146 -129c0 -99 72 -210 318 -210zM647 350c-43 29 -93 57 -164 92
c-175 87 -231 127 -231 218c0 28 10 54 26 72c53 -37 118 -66 191 -102c160 -78 200 -136 200 -209c0 -30 -10 -54 -22 -71z" />
    <glyph glyph-name="dieresis" unicode="&#xa8;" horiz-adv-x="993" 
d="M243 905c102 0 164 73 163 157c0 100 -73 156 -163 156c-89 0 -164 -67 -163 -156c0 -88 75 -157 163 -157zM750 905c102 0 164 73 163 157c0 100 -73 156 -163 156c-89 0 -164 -67 -163 -156c0 -88 75 -157 163 -157z" />
    <glyph glyph-name="copyright" unicode="&#xa9;" horiz-adv-x="1538" 
d="M782 276c119 0 240 63 291 152l-99 64c-37 -59 -115 -101 -189 -101c-107 0 -183 88 -183 213c0 122 76 208 183 208c75 0 141 -53 160 -129h115v230h-120l1 -58c-33 42 -104 71 -173 71c-186 0 -317 -135 -317 -325s137 -325 331 -325zM767 103
c-284 0 -485 206 -485 497c0 296 201 506 485 506c286 0 488 -210 488 -506c0 -291 -202 -497 -488 -497zM767 -22c380 0 648 259 648 625c0 367 -268 627 -648 627c-377 0 -644 -260 -644 -627c0 -366 267 -625 644 -625z" />
    <glyph glyph-name="ordfeminine" unicode="&#xaa;" horiz-adv-x="963" 
d="M384 470c76 0 151 21 213 65l21 -48h291v164h-95v260c0 181 -152 263 -336 263c-110 0 -228 -25 -329 -83l63 -149c101 45 180 63 239 63c74 0 112 -35 112 -107v-28c-34 9 -76 14 -121 14c-138 0 -299 -50 -299 -201c0 -139 109 -213 241 -213zM454 604
c-48 0 -84 29 -84 75c0 69 51 90 106 90c33 0 65 -5 87 -14v-112c-34 -26 -75 -39 -109 -39z" />
    <glyph glyph-name="guillemotleft" unicode="&#xab;" horiz-adv-x="1250" 
d="M430 109h231l-233 449l233 453h-231l-298 -456zM913 109h231l-233 449l233 453h-231l-298 -456z" />
    <glyph glyph-name="logicalnot" unicode="&#xac;" horiz-adv-x="1142" 
d="M802 291h173v525h-833v-193h660v-332z" />
    <glyph glyph-name="uni00AD" unicode="&#xad;" horiz-adv-x="889" 
 />
    <glyph glyph-name="registered" unicode="&#xae;" horiz-adv-x="1538" 
d="M490 307h282v74h-82v213h82l152 -287h166v74h-88l-125 226c83 21 138 86 138 163c0 99 -87 165 -217 165h-308v-74h87v-480h-87v-74zM690 672v189h109c62 0 104 -37 104 -93c0 -58 -44 -96 -111 -96h-102zM767 103c-284 0 -485 206 -485 497c0 296 201 506 485 506
c286 0 488 -210 488 -506c0 -291 -202 -497 -488 -497zM767 -22c380 0 648 259 648 625c0 367 -268 627 -648 627c-377 0 -644 -260 -644 -627c0 -366 267 -625 644 -625z" />
    <glyph glyph-name="macron" unicode="&#xaf;" horiz-adv-x="668" 
d="M73 969h521v138h-521v-138z" />
    <glyph glyph-name="degree" unicode="&#xb0;" horiz-adv-x="731" 
d="M367 811c-148 0 -188 108 -188 184c2 73 44 180 181 180c153 0 193 -118 193 -176c0 -85 -47 -188 -186 -188zM365 722c211 2 274 161 274 272c0 109 -66 267 -274 267c-206 0 -272 -158 -272 -267c0 -113 62 -272 272 -272z" />
    <glyph glyph-name="plusminus" unicode="&#xb1;" horiz-adv-x="1013" 
d="M405 264h203v265h280v181h-280v275h-203v-275h-280v-181h280v-265zM125 0h763v180h-763v-180z" />
    <glyph glyph-name="uni00B2" unicode="&#xb2;" horiz-adv-x="1160" 
d="M152.47 535h629.061l-4.26074 266.96h-150.52l-2.12988 -138.45h-216.55l220.1 207.32c95.8496 90.1699 145.55 161.17 145.55 247.08c0 196.67 -190.279 250.63 -329.439 250.63c-225.78 0 -315.24 -123.54 -315.24 -256.31
c0 -41.1807 8.51953 -82.3604 24.8496 -119.99h183.891c-8.52051 31.9502 -13.4902 61.7695 -13.4902 88.75c0 83.0693 39.7598 135.609 119.99 135.609c64.6094 0 110.05 -30.5293 110.76 -99.3994c0.709961 -36.21 -25.5596 -82.3604 -75.9697 -130.641l-325.891 -306.72z
" />
    <glyph glyph-name="uni00B3" unicode="&#xb3;" horiz-adv-x="1167" 
d="M504.41 520.38c240.689 0 348.609 117.15 348.609 258.44c0 83.7793 -48.9893 170.399 -162.59 197.38c83.0703 24.1396 127.801 80.2295 127.801 164.72c0 100.82 -71 229.33 -317.37 229.33c-103.66 0 -291.101 -61.7695 -319.5 -215.13l170.399 -64.6104
c19.8799 63.9004 68.1602 115.021 138.45 115.021c67.4502 0 110.76 -39.7607 110.76 -87.3301c0 -51.1201 -40.4697 -95.8506 -147.68 -95.8506v-127.09c126.38 0 181.76 -34.0801 182.47 -101.529c1.41992 -73.8408 -54.6699 -110.761 -130.64 -110.761
c-66.7402 0 -137.74 34.0801 -168.98 137.03l-161.17 -78.0996c38.3398 -138.45 172.53 -221.521 329.44 -221.521z" />
    <glyph glyph-name="acute" unicode="&#xb4;" horiz-adv-x="687" 
d="M165 936h177l207 356h-289z" />
    <glyph glyph-name="mu" unicode="&#xb5;" horiz-adv-x="1201" 
d="M133 -277h300v756h-300v-756zM435 -21c126 0 217 42 298 108l1 -87h423v196h-124v608h-426v-196h126v-340c-48 -42 -117 -73 -178 -73c-70 0 -122 41 -122 151v458h-413v-196h113v-321c0 -163 74 -308 302 -308z" />
    <glyph glyph-name="paragraph" unicode="&#xb6;" horiz-adv-x="1211" 
d="M442 0h722v196h-173v761h171v195h-636c-403 0 -446 -225 -446 -362c0 -155 106 -370 374 -356h255v-238h-267v-196zM508 617v340h201v-338z" />
    <glyph glyph-name="periodcentered" unicode="&#xb7;" horiz-adv-x="932" 
d="M366 430h251v235h-251v-235z" />
    <glyph glyph-name="cedilla" unicode="&#xb8;" horiz-adv-x="571" 
d="M295 -417c100 0 190 45 190 153c0 70 -50 134 -154 151l29 117h-110l-71 -181c82 -5 119 -26 119 -69c0 -48 -31 -64 -74 -64c-37 0 -82 13 -122 29v-83c55 -34 127 -53 193 -53z" />
    <glyph glyph-name="uni00B9" unicode="&#xb9;" horiz-adv-x="1098" 
d="M216.1 528h523.98v139.87h-140.58v676.63l-384.82 -41.1797v-137.74l149.811 25.5596v-523.27h-148.391v-139.87z" />
    <glyph glyph-name="ordmasculine" unicode="&#xba;" horiz-adv-x="1033" 
d="M510 635c-85 -2 -141 77 -141 195c0 106 56 178 140 178c85 0 142 -72 142 -178c0 -118 -57 -197 -141 -195zM509 468c237 0 397 146 397 363c0 205 -160 343 -396 343c-237 0 -396 -138 -396 -343c0 -217 159 -363 395 -363z" />
    <glyph glyph-name="guillemotright" unicode="&#xbb;" horiz-adv-x="1199" 
d="M132 109h230l299 456l-299 446h-230l232 -448zM615 109h230l299 456l-299 446h-230l232 -448z" />
    <glyph glyph-name="onequarter" unicode="&#xbc;" horiz-adv-x="2228" 
d="M1579 0h470v139h-118v128h120v121h-120v430h-223l-350 -441l19 -110h341v-128h-139v-139zM184 336h524v140h-141v676l-385 -42v-137l149 26v-523h-147v-140zM634 -80h154l791 1300h-151zM1519 388l199 261v-261h-199z" />
    <glyph glyph-name="onehalf" unicode="&#xbd;" horiz-adv-x="2293" 
d="M1463 0h645l-5 266h-158l-3 -140h-216l225 210c98 92 145 162 145 247c0 196 -193 251 -333 251c-233 0 -325 -127 -325 -259c0 -40 9 -81 25 -119h193c-8 31 -13 61 -13 88c0 86 39 140 120 140c62 0 106 -31 106 -101c1 -38 -25 -86 -74 -132l-331 -309zM184 336h524
v140h-141v676l-385 -42v-137l149 26v-523h-147v-140zM643 -80h154l790 1300h-150z" />
    <glyph glyph-name="threequarters" unicode="&#xbe;" horiz-adv-x="2418" 
d="M529 324c240 0 348 118 348 258c0 85 -49 171 -162 198c84 25 128 81 128 165c0 101 -71 229 -317 229c-105 0 -292 -61 -320 -214l170 -66c21 65 68 116 139 116c67 0 111 -40 111 -88c0 -51 -41 -95 -148 -95v-128c127 0 181 -34 182 -101c1 -74 -55 -111 -130 -111
c-67 0 -138 35 -169 137l-161 -78c38 -138 172 -222 329 -222zM1696 0h470v139h-117v128h119v121h-119v430h-224l-349 -441l18 -110h342v-128h-140v-139zM757 -80h154l790 1300h-150zM1637 388l199 261v-261h-199z" />
    <glyph glyph-name="questiondown" unicode="&#xbf;" horiz-adv-x="1026" 
d="M629 517h-199c-65 -254 -349 -220 -349 -501c0 -160 90 -351 423 -351c250 0 457 113 457 412h-257c0 -123 -61 -189 -180 -189c-115 0 -154 61 -154 134c0 165 192 103 259 495zM673 912h-305v-259h305v259z" />
    <glyph glyph-name="Agrave" unicode="&#xc0;" horiz-adv-x="1591" 
d="M682 1284h177l-95 356h-289zM49 196v-196h589v196h-166l77 220h378l74 -220h-178v-196h720v196h-153l-306 760h140v196h-866v-196h150l-306 -760h-153zM878 569h-283l138 373h14z" />
    <glyph glyph-name="Aacute" unicode="&#xc1;" horiz-adv-x="1591" 
d="M686 1284h177l207 356h-289zM49 196v-196h589v196h-166l77 220h378l74 -220h-178v-196h720v196h-153l-306 760h140v196h-866v-196h150l-306 -760h-153zM878 569h-283l138 373h14z" />
    <glyph glyph-name="Acircumflex" unicode="&#xc2;" horiz-adv-x="1591" 
d="M450 1273h180l139 250l138 -250h181l-105 358h-429zM49 196v-196h589v196h-166l77 220h378l74 -220h-178v-196h720v196h-153l-306 760h140v196h-866v-196h150l-306 -760h-153zM878 569h-283l138 373h14z" />
    <glyph glyph-name="Atilde" unicode="&#xc3;" horiz-adv-x="1591" 
d="M959 1249c138 0 181 110 195 285h-138c-9 -54 -30 -71 -58 -71c-83 0 -225 94 -352 94c-109 0 -199 -73 -214 -280h140c7 55 35 67 67 67c105 0 265 -96 360 -95zM49 196v-196h589v196h-166l77 220h378l74 -220h-178v-196h720v196h-153l-306 760h140v196h-866v-196h150
l-306 -760h-153zM878 569h-283l138 373h14z" />
    <glyph glyph-name="Adieresis" unicode="&#xc4;" horiz-adv-x="1591" 
d="M524 1253c102 0 164 73 163 157c0 100 -73 156 -163 156c-89 0 -164 -67 -163 -156c0 -88 75 -157 163 -157zM1031 1253c102 0 164 73 163 157c0 100 -73 156 -163 156c-89 0 -164 -67 -163 -156c0 -88 75 -157 163 -157zM49 196v-196h589v196h-166l77 220h378l74 -220
h-178v-196h720v196h-153l-306 760h140v196h-866v-196h150l-306 -760h-153zM878 569h-283l138 373h14z" />
    <glyph glyph-name="Aring" unicode="&#xc5;" horiz-adv-x="1591" 
d="M776 1356c-58 0 -91 37 -91 93s33 93 91 93s91 -37 91 -93s-33 -93 -91 -93zM776 1262c122 2 195 75 195 187s-72 185 -195 186c-122 -1 -195 -74 -195 -186s73 -185 195 -187zM49 196v-196h589v196h-166l77 220h378l74 -220h-178v-196h720v196h-153l-306 760h140v196
h-866v-196h150l-306 -760h-153zM878 569h-283l138 373h14z" />
    <glyph glyph-name="AE" unicode="&#xc6;" horiz-adv-x="1962" 
d="M22 0h585v196h-97l114 217h321v-217h-139v-196h1098v379h-190v-183h-419v328h192v-137h126v402h-126v-148h-193v315h418v-176h190v372h-1394v-196h118l-442 -760h-162v-196zM690 544l231 412h24v-412h-255z" />
    <glyph glyph-name="Ccedilla" unicode="&#xc7;" horiz-adv-x="1451" 
d="M709 -417c100 0 190 45 190 153c0 70 -50 134 -154 151l29 117h-110l-71 -181c82 -5 119 -26 119 -69c0 -48 -31 -64 -74 -64c-37 0 -82 13 -122 29v-83c55 -34 127 -53 193 -53zM749 -22c354 0 557 165 616 431l-259 73c-41 -205 -185 -272 -342 -272
c-208 0 -335 149 -335 367c0 219 124 365 332 365c157 0 268 -59 337 -215h239v426h-221v-121c-29 36 -140 142 -366 142c-388 0 -666 -231 -666 -605c0 -362 269 -591 665 -591z" />
    <glyph glyph-name="Egrave" unicode="&#xc8;" horiz-adv-x="1273" 
d="M580 1284h177l-95 356h-289zM959 416v-219h-396v308h200v-106h104v420h-106v-120h-198v254l394 3v-183h244v379h-1153v-196h167v-760h-167v-196h1160v416h-249z" />
    <glyph glyph-name="Eacute" unicode="&#xc9;" horiz-adv-x="1273" 
d="M959 416v-219h-396v308h200v-106h104v420h-106v-120h-198v254l394 3v-183h244v379h-1153v-196h167v-760h-167v-196h1160v416h-249zM584 1284h177l207 356h-289z" />
    <glyph glyph-name="Ecircumflex" unicode="&#xca;" horiz-adv-x="1273" 
d="M959 416v-219h-396v308h200v-106h104v420h-106v-120h-198v254l394 3v-183h244v379h-1153v-196h167v-760h-167v-196h1160v416h-249zM348 1273h180l139 250l138 -250h181l-105 358h-429z" />
    <glyph glyph-name="Edieresis" unicode="&#xcb;" horiz-adv-x="1273" 
d="M959 416v-219h-396v308h200v-106h104v420h-106v-120h-198v254l394 3v-183h244v379h-1153v-196h167v-760h-167v-196h1160v416h-249zM422 1253c102 0 164 73 163 157c0 100 -73 156 -163 156c-89 0 -164 -67 -163 -156c0 -88 75 -157 163 -157zM929 1253
c102 0 164 73 163 157c0 100 -73 156 -163 156c-89 0 -164 -67 -163 -156c0 -88 75 -157 163 -157z" />
    <glyph glyph-name="Igrave" unicode="&#xcc;" horiz-adv-x="791" 
d="M299 1282h177l-95 356h-289zM55 196v-196h681v196h-167v760h167v196h-681v-196h167v-760h-167z" />
    <glyph glyph-name="Iacute" unicode="&#xcd;" horiz-adv-x="791" 
d="M303 1282h177l207 356h-289zM55 196v-196h681v196h-167v760h167v196h-681v-196h167v-760h-167z" />
    <glyph glyph-name="Icircumflex" unicode="&#xce;" horiz-adv-x="791" 
d="M67 1271h180l139 250l138 -250h181l-105 358h-429zM55 196v-196h681v196h-167v760h167v196h-681v-196h167v-760h-167z" />
    <glyph glyph-name="Idieresis" unicode="&#xcf;" horiz-adv-x="791" 
d="M141 1251c102 0 164 73 163 157c0 100 -73 156 -163 156c-89 0 -164 -67 -163 -156c0 -88 75 -157 163 -157zM648 1251c102 0 164 73 163 157c0 100 -73 156 -163 156c-89 0 -164 -67 -163 -156c0 -88 75 -157 163 -157zM55 196v-196h681v196h-167v760h167v196h-681v-196
h167v-760h-167z" />
    <glyph glyph-name="Eth" unicode="&#xd0;" horiz-adv-x="1517" 
d="M48 1152v-196h168v-760h-168v-196h736c436 0 654 225 654 581c0 318 -216 571 -654 571h-736zM564 196v760h217c194 0 285 -160 285 -376c0 -236 -90 -384 -286 -384h-216zM111 507h562v190h-562v-190z" />
    <glyph glyph-name="Ntilde" unicode="&#xd1;" horiz-adv-x="1653" 
d="M1038 1249c138 0 181 110 195 285h-138c-9 -54 -30 -71 -58 -71c-83 0 -225 94 -352 94c-109 0 -199 -73 -214 -280h140c7 55 35 67 67 67c105 0 265 -96 360 -95zM48 196v-196h582v196h-172v629l680 -825h287v956h190v196h-589v-196h168v-493l-590 689h-556v-196h182
v-760h-182z" />
    <glyph glyph-name="Ograve" unicode="&#xd2;" horiz-adv-x="1532" 
d="M667 1282h177l-95 356h-289zM766 -22c405 -5 682 236 682 593c0 359 -277 603 -683 603c-405 0 -681 -244 -681 -602s276 -599 682 -594zM765 210c-198 0 -333 152 -333 369c0 221 135 366 334 363c198 3 333 -142 333 -363c0 -217 -135 -369 -334 -369z" />
    <glyph glyph-name="Oacute" unicode="&#xd3;" horiz-adv-x="1532" 
d="M766 -22c405 -5 682 236 682 593c0 359 -277 603 -683 603c-405 0 -681 -244 -681 -602s276 -599 682 -594zM765 210c-198 0 -333 152 -333 369c0 221 135 366 334 363c198 3 333 -142 333 -363c0 -217 -135 -369 -334 -369zM671 1282h177l207 356h-289z" />
    <glyph glyph-name="Ocircumflex" unicode="&#xd4;" horiz-adv-x="1532" 
d="M766 -22c405 -5 682 236 682 593c0 359 -277 603 -683 603c-405 0 -681 -244 -681 -602s276 -599 682 -594zM765 210c-198 0 -333 152 -333 369c0 221 135 366 334 363c198 3 333 -142 333 -363c0 -217 -135 -369 -334 -369zM435 1271h180l139 250l138 -250h181l-105 358
h-429z" />
    <glyph glyph-name="Otilde" unicode="&#xd5;" horiz-adv-x="1532" 
d="M944 1247c138 0 181 110 195 285h-138c-9 -54 -30 -71 -58 -71c-83 0 -225 94 -352 94c-109 0 -199 -73 -214 -280h140c7 55 35 67 67 67c105 0 265 -96 360 -95zM766 -22c405 -5 682 236 682 593c0 359 -277 603 -683 603c-405 0 -681 -244 -681 -602s276 -599 682 -594
zM765 210c-198 0 -333 152 -333 369c0 221 135 366 334 363c198 3 333 -142 333 -363c0 -217 -135 -369 -334 -369z" />
    <glyph glyph-name="Odieresis" unicode="&#xd6;" horiz-adv-x="1532" 
d="M766 -22c405 -5 682 236 682 593c0 359 -277 603 -683 603c-405 0 -681 -244 -681 -602s276 -599 682 -594zM765 210c-198 0 -333 152 -333 369c0 221 135 366 334 363c198 3 333 -142 333 -363c0 -217 -135 -369 -334 -369zM509 1251c102 0 164 73 163 157
c0 100 -73 156 -163 156c-89 0 -164 -67 -163 -156c0 -88 75 -157 163 -157zM1016 1251c102 0 164 73 163 157c0 100 -73 156 -163 156c-89 0 -164 -67 -163 -156c0 -88 75 -157 163 -157z" />
    <glyph glyph-name="multiply" unicode="&#xd7;" horiz-adv-x="1059" 
d="M269 104l259 255l256 -250l137 136l-255 250l260 255l-134 135l-261 -256l-255 251l-137 -136l255 -252l-260 -254z" />
    <glyph glyph-name="Oslash" unicode="&#xd8;" horiz-adv-x="1557" 
d="M368 -101l963 1258l-132 95l-963 -1258zM766 -22c405 -5 682 236 682 593c0 359 -277 603 -683 603c-405 0 -681 -244 -681 -602s276 -599 682 -594zM765 210c-198 0 -333 152 -333 369c0 221 135 366 334 363c198 3 333 -142 333 -363c0 -217 -135 -369 -334 -369z" />
    <glyph glyph-name="Ugrave" unicode="&#xd9;" horiz-adv-x="1549" 
d="M739 1284h177l-95 356h-289zM788 -21c353 0 547 164 547 492v485h171v196h-577v-196h176v-487c0 -178 -95 -272 -278 -272c-174 0 -265 95 -265 271v488h191v196h-708v-196h170v-481c0 -318 185 -496 573 -496z" />
    <glyph glyph-name="Uacute" unicode="&#xda;" horiz-adv-x="1549" 
d="M788 -21c353 0 547 164 547 492v485h171v196h-577v-196h176v-487c0 -178 -95 -272 -278 -272c-174 0 -265 95 -265 271v488h191v196h-708v-196h170v-481c0 -318 185 -496 573 -496zM743 1284h177l207 356h-289z" />
    <glyph glyph-name="Ucircumflex" unicode="&#xdb;" horiz-adv-x="1549" 
d="M788 -21c353 0 547 164 547 492v485h171v196h-577v-196h176v-487c0 -178 -95 -272 -278 -272c-174 0 -265 95 -265 271v488h191v196h-708v-196h170v-481c0 -318 185 -496 573 -496zM508 1273h180l139 250l138 -250h181l-105 358h-429z" />
    <glyph glyph-name="Udieresis" unicode="&#xdc;" horiz-adv-x="1549" 
d="M788 -21c353 0 547 164 547 492v485h171v196h-577v-196h176v-487c0 -178 -95 -272 -278 -272c-174 0 -265 95 -265 271v488h191v196h-708v-196h170v-481c0 -318 185 -496 573 -496zM581 1253c102 0 164 73 163 157c0 100 -73 156 -163 156c-89 0 -164 -67 -163 -156
c0 -88 75 -157 163 -157zM1088 1253c102 0 164 73 163 157c0 100 -73 156 -163 156c-89 0 -164 -67 -163 -156c0 -88 75 -157 163 -157z" />
    <glyph glyph-name="Yacute" unicode="&#xdd;" horiz-adv-x="1414" 
d="M611 1282h177l207 356h-289zM338 196v-196h720v196h-187v269l359 491h165v196h-570v-196h125l-212 -315l-222 315h127v196h-657v-196h160l377 -494v-266h-185z" />
    <glyph glyph-name="Thorn" unicode="&#xde;" horiz-adv-x="1278" 
d="M624 469v-138h50c462 0 590 90 590 270c0 197 -171 263 -488 263h-215v92h167v196h-681v-196h167v-760h-167v-196h681v196h-167v522h204c75 0 144 -34 144 -117c0 -82 -44 -132 -185 -132h-100z" />
    <glyph glyph-name="germandbls" unicode="&#xdf;" horiz-adv-x="1261" 
d="M47 0h528v196h-99v717c0 134 94 220 196 220c79 0 148 -45 148 -134c0 -112 -87 -193 -245 -193v-174c177 -4 269 -92 277 -214c8 -111 -55 -222 -187 -222v-196c392 0 530 187 521 438c-7 181 -154 291 -335 315c151 39 231 157 231 272c3 199 -148 331 -418 331
c-333 0 -491 -179 -491 -463v-697h-126v-196z" />
    <glyph glyph-name="agrave" unicode="&#xe0;" horiz-adv-x="1001" 
d="M359 936h177l-95 356h-289zM345 -21c92 0 182 27 257 78l24 -57h350v198h-115v311c0 217 -182 315 -402 315c-132 0 -273 -30 -395 -99l75 -178c122 54 217 74 288 74c87 0 134 -41 134 -128v-33c-41 10 -93 16 -146 16c-166 0 -358 -59 -358 -241
c0 -167 131 -256 288 -256zM430 140c-58 0 -100 36 -100 91c0 82 60 108 126 108c40 0 78 -7 105 -17v-135c-41 -31 -90 -47 -131 -47z" />
    <glyph glyph-name="aacute" unicode="&#xe1;" horiz-adv-x="1001" 
d="M363 936h177l207 356h-289zM345 -21c92 0 182 27 257 78l24 -57h350v198h-115v311c0 217 -182 315 -402 315c-132 0 -273 -30 -395 -99l75 -178c122 54 217 74 288 74c87 0 134 -41 134 -128v-33c-41 10 -93 16 -146 16c-166 0 -358 -59 -358 -241
c0 -167 131 -256 288 -256zM430 140c-58 0 -100 36 -100 91c0 82 60 108 126 108c40 0 78 -7 105 -17v-135c-41 -31 -90 -47 -131 -47z" />
    <glyph glyph-name="acircumflex" unicode="&#xe2;" horiz-adv-x="1001" 
d="M128 925h180l139 250l138 -250h181l-105 358h-429zM345 -21c92 0 182 27 257 78l24 -57h350v198h-115v311c0 217 -182 315 -402 315c-132 0 -273 -30 -395 -99l75 -178c122 54 217 74 288 74c87 0 134 -41 134 -128v-33c-41 10 -93 16 -146 16c-166 0 -358 -59 -358 -241
c0 -167 131 -256 288 -256zM430 140c-58 0 -100 36 -100 91c0 82 60 108 126 108c40 0 78 -7 105 -17v-135c-41 -31 -90 -47 -131 -47z" />
    <glyph glyph-name="atilde" unicode="&#xe3;" horiz-adv-x="1001" 
d="M636 901c138 0 181 110 195 285h-138c-9 -54 -30 -71 -58 -71c-83 0 -225 94 -352 94c-109 0 -199 -73 -214 -280h140c7 55 35 67 67 67c105 0 265 -96 360 -95zM345 -21c92 0 182 27 257 78l24 -57h350v198h-115v311c0 217 -182 315 -402 315c-132 0 -273 -30 -395 -99
l75 -178c122 54 217 74 288 74c87 0 134 -41 134 -128v-33c-41 10 -93 16 -146 16c-166 0 -358 -59 -358 -241c0 -167 131 -256 288 -256zM430 140c-58 0 -100 36 -100 91c0 82 60 108 126 108c40 0 78 -7 105 -17v-135c-41 -31 -90 -47 -131 -47z" />
    <glyph glyph-name="adieresis" unicode="&#xe4;" horiz-adv-x="1001" 
d="M201 905c102 0 164 73 163 157c0 100 -73 156 -163 156c-89 0 -164 -67 -163 -156c0 -88 75 -157 163 -157zM708 905c102 0 164 73 163 157c0 100 -73 156 -163 156c-89 0 -164 -67 -163 -156c0 -88 75 -157 163 -157zM345 -21c92 0 182 27 257 78l24 -57h350v198h-115
v311c0 217 -182 315 -402 315c-132 0 -273 -30 -395 -99l75 -178c122 54 217 74 288 74c87 0 134 -41 134 -128v-33c-41 10 -93 16 -146 16c-166 0 -358 -59 -358 -241c0 -167 131 -256 288 -256zM430 140c-58 0 -100 36 -100 91c0 82 60 108 126 108c40 0 78 -7 105 -17
v-135c-41 -31 -90 -47 -131 -47z" />
    <glyph glyph-name="aring" unicode="&#xe5;" horiz-adv-x="1001" 
d="M453 1008c-58 0 -91 37 -91 93s33 93 91 93s91 -37 91 -93s-33 -93 -91 -93zM453 914c122 2 195 75 195 187s-72 185 -195 186c-122 -1 -195 -74 -195 -186s73 -185 195 -187zM345 -21c92 0 182 27 257 78l24 -57h350v198h-115v311c0 217 -182 315 -402 315
c-132 0 -273 -30 -395 -99l75 -178c122 54 217 74 288 74c87 0 134 -41 134 -128v-33c-41 10 -93 16 -146 16c-166 0 -358 -59 -358 -241c0 -167 131 -256 288 -256zM430 140c-58 0 -100 36 -100 91c0 82 60 108 126 108c40 0 78 -7 105 -17v-135c-41 -31 -90 -47 -131 -47z
" />
    <glyph glyph-name="ae" unicode="&#xe6;" horiz-adv-x="1484" 
d="M414 -22c104 0 180 21 302 101c83 -64 198 -100 340 -100c146 0 284 49 368 122l-80 156c-78 -50 -167 -77 -249 -77c-113 0 -202 56 -209 178h542c0 290 -149 468 -403 468c-112 0 -211 -28 -279 -79c-68 51 -169 77 -275 77c-134 0 -275 -31 -397 -99l76 -178
c121 54 216 74 289 74c87 0 135 -41 135 -128v-34c-41 10 -94 17 -147 17c-165 0 -358 -59 -358 -241c0 -227 221 -257 345 -257zM457 138c-60 0 -115 27 -115 92c0 82 59 109 125 109c43 0 92 -9 111 -11c7 -46 23 -99 43 -136c-41 -27 -98 -54 -164 -54zM888 500
c15 97 70 157 148 157c87 0 135 -60 135 -157h-283z" />
    <glyph glyph-name="ccedilla" unicode="&#xe7;" horiz-adv-x="981" 
d="M525 -417c100 0 190 45 190 153c0 70 -50 134 -154 151l29 117h-110l-71 -181c82 -5 119 -26 119 -69c0 -48 -31 -64 -74 -64c-37 0 -82 13 -122 29v-83c55 -34 127 -53 193 -53zM528 -21c141 0 283 57 386 146l-86 160c-80 -60 -172 -105 -283 -104
c-124 1 -194 92 -194 232c0 138 77 212 175 213c87 1 158 -47 189 -181h187v360h-206l-5 -64c-35 51 -127 85 -206 85c-268 0 -440 -173 -440 -415c0 -268 184 -432 483 -432z" />
    <glyph glyph-name="egrave" unicode="&#xe8;" horiz-adv-x="950" 
d="M393 936h177l-95 356h-289zM524 -21c145 0 284 49 370 122l-80 156c-74 -46 -163 -77 -251 -77c-111 0 -202 56 -209 178h544c0 290 -154 469 -405 469c-280 0 -451 -164 -451 -432c0 -258 183 -416 482 -416zM356 500c16 97 73 157 148 157c85 0 137 -60 137 -157h-285z
" />
    <glyph glyph-name="eacute" unicode="&#xe9;" horiz-adv-x="950" 
d="M524 -21c145 0 284 49 370 122l-80 156c-74 -46 -163 -77 -251 -77c-111 0 -202 56 -209 178h544c0 290 -154 469 -405 469c-280 0 -451 -164 -451 -432c0 -258 183 -416 482 -416zM356 500c16 97 73 157 148 157c85 0 137 -60 137 -157h-285zM424 936h177l207 356h-289z
" />
    <glyph glyph-name="ecircumflex" unicode="&#xea;" horiz-adv-x="950" 
d="M524 -21c145 0 284 49 370 122l-80 156c-74 -46 -163 -77 -251 -77c-111 0 -202 56 -209 178h544c0 290 -154 469 -405 469c-280 0 -451 -164 -451 -432c0 -258 183 -416 482 -416zM356 500c16 97 73 157 148 157c85 0 137 -60 137 -157h-285zM161 925h180l139 250
l138 -250h181l-105 358h-429z" />
    <glyph glyph-name="edieresis" unicode="&#xeb;" horiz-adv-x="950" 
d="M524 -21c145 0 284 49 370 122l-80 156c-74 -46 -163 -77 -251 -77c-111 0 -202 56 -209 178h544c0 290 -154 469 -405 469c-280 0 -451 -164 -451 -432c0 -258 183 -416 482 -416zM356 500c16 97 73 157 148 157c85 0 137 -60 137 -157h-285zM235 905
c102 0 164 73 163 157c0 100 -73 156 -163 156c-89 0 -164 -67 -163 -156c0 -88 75 -157 163 -157zM742 905c102 0 164 73 163 157c0 100 -73 156 -163 156c-89 0 -164 -67 -163 -156c0 -88 75 -157 163 -157z" />
    <glyph glyph-name="igrave" unicode="&#xec;" horiz-adv-x="812" 
d="M298 934h177l-95 356h-289zM146 0h533v196h-109v608h-417v-196h117v-412h-124v-196z" />
    <glyph glyph-name="iacute" unicode="&#xed;" horiz-adv-x="812" 
d="M146 0h533v196h-109v608h-417v-196h117v-412h-124v-196zM329 934h177l207 356h-289z" />
    <glyph glyph-name="icircumflex" unicode="&#xee;" horiz-adv-x="812" 
d="M146 0h533v196h-109v608h-417v-196h117v-412h-124v-196zM66 923h180l139 250l138 -250h181l-105 358h-429z" />
    <glyph glyph-name="idieresis" unicode="&#xef;" horiz-adv-x="812" 
d="M146 0h533v196h-109v608h-417v-196h117v-412h-124v-196zM140 903c102 0 164 73 163 157c0 100 -73 156 -163 156c-89 0 -164 -67 -163 -156c0 -88 75 -157 163 -157zM647 903c102 0 164 73 163 157c0 100 -73 156 -163 156c-89 0 -164 -67 -163 -156
c0 -88 75 -157 163 -157z" />
    <glyph glyph-name="eth" unicode="&#xf0;" horiz-adv-x="1058" 
d="M571 -21c297 0 477 215 477 461c0 666 -400 879 -615 1001l-116 -149c192 -125 369 -278 475 -554c0 0 -96 62 -251 62c-276 0 -401 -217 -401 -403c0 -222 131 -418 431 -418zM596 192c-110 0 -176 88 -176 226c0 124 64 200 174 200c108 0 178 -74 178 -201
c0 -136 -62 -225 -176 -225zM405 901l619 295l-79 172l-620 -294z" />
    <glyph glyph-name="ntilde" unicode="&#xf1;" horiz-adv-x="1224" 
d="M815 901c138 0 181 110 195 285h-138c-9 -54 -30 -71 -58 -71c-83 0 -225 94 -352 94c-109 0 -199 -73 -214 -280h140c7 55 35 67 67 67c105 0 265 -96 360 -95zM1072 196v300c2 226 -124 330 -282 330c-116 0 -220 -45 -321 -134v112h-417v-196h117v-412h-124v-196h533
v196h-109v352c58 39 117 58 179 57c73 0 124 -45 124 -150v-259h-101v-196h537v196h-136z" />
    <glyph glyph-name="ograve" unicode="&#xf2;" horiz-adv-x="1039" 
d="M519 -22c284 0 476 175 476 436c0 246 -192 412 -475 412c-284 0 -476 -166 -476 -412c0 -261 192 -436 475 -436zM519 178c-101 -2 -169 93 -169 235c0 127 68 213 169 213s170 -86 170 -213c0 -142 -69 -237 -170 -235zM413 954h177l-95 356h-289z" />
    <glyph glyph-name="oacute" unicode="&#xf3;" horiz-adv-x="1039" 
d="M519 -22c284 0 476 175 476 436c0 246 -192 412 -475 412c-284 0 -476 -166 -476 -412c0 -261 192 -436 475 -436zM519 178c-101 -2 -169 93 -169 235c0 127 68 213 169 213s170 -86 170 -213c0 -142 -69 -237 -170 -235zM444 954h177l207 356h-289z" />
    <glyph glyph-name="ocircumflex" unicode="&#xf4;" horiz-adv-x="1039" 
d="M519 -22c284 0 476 175 476 436c0 246 -192 412 -475 412c-284 0 -476 -166 -476 -412c0 -261 192 -436 475 -436zM519 178c-101 -2 -169 93 -169 235c0 127 68 213 169 213s170 -86 170 -213c0 -142 -69 -237 -170 -235zM181 943h180l139 250l138 -250h181l-105 358
h-429z" />
    <glyph glyph-name="otilde" unicode="&#xf5;" horiz-adv-x="1039" 
d="M690 919c138 0 181 110 195 285h-138c-9 -54 -30 -71 -58 -71c-83 0 -225 94 -352 94c-109 0 -199 -73 -214 -280h140c7 55 35 67 67 67c105 0 265 -96 360 -95zM519 -22c284 0 476 175 476 436c0 246 -192 412 -475 412c-284 0 -476 -166 -476 -412
c0 -261 192 -436 475 -436zM519 178c-101 -2 -169 93 -169 235c0 127 68 213 169 213s170 -86 170 -213c0 -142 -69 -237 -170 -235z" />
    <glyph glyph-name="odieresis" unicode="&#xf6;" horiz-adv-x="1039" 
d="M519 -22c284 0 476 175 476 436c0 246 -192 412 -475 412c-284 0 -476 -166 -476 -412c0 -261 192 -436 475 -436zM519 178c-101 -2 -169 93 -169 235c0 127 68 213 169 213s170 -86 170 -213c0 -142 -69 -237 -170 -235zM255 923c102 0 164 73 163 157
c0 100 -73 156 -163 156c-89 0 -164 -67 -163 -156c0 -88 75 -157 163 -157zM762 923c102 0 164 73 163 157c0 100 -73 156 -163 156c-89 0 -164 -67 -163 -156c0 -88 75 -157 163 -157z" />
    <glyph glyph-name="divide" unicode="&#xf7;" horiz-adv-x="895" 
d="M323 83h252v221h-252v-221zM70 441h755v174h-755v-174zM323 749h252v221h-252v-221z" />
    <glyph glyph-name="oslash" unicode="&#xf8;" horiz-adv-x="1042" 
d="M315 -119l517 1009l-94 43l-517 -1009zM519 -22c284 0 476 175 476 436c0 246 -192 412 -475 412c-284 0 -476 -166 -476 -412c0 -261 192 -436 475 -436zM519 178c-101 -2 -169 93 -169 235c0 127 68 213 169 213s170 -86 170 -213c0 -142 -69 -237 -170 -235z" />
    <glyph glyph-name="ugrave" unicode="&#xf9;" 
d="M455 936h177l-95 356h-289zM435 -21c126 0 217 42 298 108l1 -87h423v196h-124v608h-426v-196h126v-340c-48 -42 -117 -73 -178 -73c-70 0 -122 41 -122 151v458h-413v-196h113v-321c0 -163 74 -308 302 -308z" />
    <glyph glyph-name="uacute" unicode="&#xfa;" 
d="M435 -21c126 0 217 42 298 108l1 -87h423v196h-124v608h-426v-196h126v-340c-48 -42 -117 -73 -178 -73c-70 0 -122 41 -122 151v458h-413v-196h113v-321c0 -163 74 -308 302 -308zM486 936h177l207 356h-289z" />
    <glyph glyph-name="ucircumflex" unicode="&#xfb;" 
d="M435 -21c126 0 217 42 298 108l1 -87h423v196h-124v608h-426v-196h126v-340c-48 -42 -117 -73 -178 -73c-70 0 -122 41 -122 151v458h-413v-196h113v-321c0 -163 74 -308 302 -308zM223 925h180l139 250l138 -250h181l-105 358h-429z" />
    <glyph glyph-name="udieresis" unicode="&#xfc;" 
d="M435 -21c126 0 217 42 298 108l1 -87h423v196h-124v608h-426v-196h126v-340c-48 -42 -117 -73 -178 -73c-70 0 -122 41 -122 151v458h-413v-196h113v-321c0 -163 74 -308 302 -308zM297 905c102 0 164 73 163 157c0 100 -73 156 -163 156c-89 0 -164 -67 -163 -156
c0 -88 75 -157 163 -157zM804 905c102 0 164 73 163 157c0 100 -73 156 -163 156c-89 0 -164 -67 -163 -156c0 -88 75 -157 163 -157z" />
    <glyph glyph-name="yacute" unicode="&#xfd;" horiz-adv-x="1174" 
d="M530 936h177l207 356h-289zM208 -136v-221h126c195 0 256 66 351 256l358 709h119v196h-526v-196h112l-151 -331l-170 331h106v196h-521v-196h136l286 -537h79l-48 -99c-48 -101 -97 -108 -153 -108h-104z" />
    <glyph glyph-name="thorn" unicode="&#xfe;" horiz-adv-x="1207" 
d="M489 754v396h-457v-194h156v-1140h-145v-196h446v433c69 -47 147 -70 227 -70c215 0 411 157 411 441c0 240 -150 406 -393 406c-82 0 -166 -27 -245 -76zM489 189v410c37 22 75 32 112 32c158 0 210 -118 210 -226c0 -154 -99 -242 -230 -242c-29 0 -62 9 -92 26z" />
    <glyph glyph-name="ydieresis" unicode="&#xff;" horiz-adv-x="1174" 
d="M208 -136v-221h126c195 0 256 66 351 256l358 709h119v196h-526v-196h112l-151 -331l-170 331h106v196h-521v-196h136l286 -537h79l-48 -99c-48 -101 -97 -108 -153 -108h-104zM341 905c102 0 164 73 163 157c0 100 -73 156 -163 156c-89 0 -164 -67 -163 -156
c0 -88 75 -157 163 -157zM848 905c102 0 164 73 163 157c0 100 -73 156 -163 156c-89 0 -164 -67 -163 -156c0 -88 75 -157 163 -157z" />
    <glyph glyph-name="Amacron" unicode="&#x100;" horiz-adv-x="1591" 
d="M505 1317h521v138h-521v-138zM49 196v-196h589v196h-166l77 220h378l74 -220h-178v-196h720v196h-153l-306 760h140v196h-866v-196h150l-306 -760h-153zM878 569h-283l138 373h14z" />
    <glyph glyph-name="amacron" unicode="&#x101;" horiz-adv-x="1001" 
d="M183 969h521v138h-521v-138zM345 -21c92 0 182 27 257 78l24 -57h350v198h-115v311c0 217 -182 315 -402 315c-132 0 -273 -30 -395 -99l75 -178c122 54 217 74 288 74c87 0 134 -41 134 -128v-33c-41 10 -93 16 -146 16c-166 0 -358 -59 -358 -241
c0 -167 131 -256 288 -256zM430 140c-58 0 -100 36 -100 91c0 82 60 108 126 108c40 0 78 -7 105 -17v-135c-41 -31 -90 -47 -131 -47z" />
    <glyph glyph-name="Abreve" unicode="&#x102;" horiz-adv-x="1591" 
d="M773 1247c193 0 308 111 325 315h-193c-9 -84 -54 -129 -129 -129c-77 0 -123 45 -136 129h-182c10 -204 121 -315 315 -315zM49 196v-196h589v196h-166l77 220h378l74 -220h-178v-196h720v196h-153l-306 760h140v196h-866v-196h150l-306 -760h-153zM878 569h-283
l138 373h14z" />
    <glyph glyph-name="abreve" unicode="&#x103;" horiz-adv-x="1001" 
d="M451 899c193 0 308 111 325 315h-193c-9 -84 -54 -129 -129 -129c-77 0 -123 45 -136 129h-182c10 -204 121 -315 315 -315zM345 -21c92 0 182 27 257 78l24 -57h350v198h-115v311c0 217 -182 315 -402 315c-132 0 -273 -30 -395 -99l75 -178c122 54 217 74 288 74
c87 0 134 -41 134 -128v-33c-41 10 -93 16 -146 16c-166 0 -358 -59 -358 -241c0 -167 131 -256 288 -256zM430 140c-58 0 -100 36 -100 91c0 82 60 108 126 108c40 0 78 -7 105 -17v-135c-41 -31 -90 -47 -131 -47z" />
    <glyph glyph-name="Aogonek" unicode="&#x104;" horiz-adv-x="1591" 
d="M1266 -399c51 0 98 11 161 40v134c-27 -8 -51 -11 -73 -11c-79 0 -120 43 -120 109c0 32 12 82 53 137h-114c-67 -77 -96 -157 -96 -225c0 -105 71 -184 189 -184zM49 196v-196h589v196h-166l77 220h378l74 -220h-178v-196h720v196h-153l-306 760h140v196h-866v-196h150
l-306 -760h-153zM878 569h-283l138 373h14z" />
    <glyph glyph-name="aogonek" unicode="&#x105;" horiz-adv-x="1001" 
d="M812 -399c51 0 98 11 161 40v134c-27 -8 -51 -11 -73 -11c-79 0 -120 43 -120 109c0 32 12 82 53 137h-114c-67 -77 -96 -157 -96 -225c0 -105 71 -184 189 -184zM345 -21c92 0 182 27 257 78l24 -57h350v198h-115v311c0 217 -182 315 -402 315c-132 0 -273 -30 -395 -99
l75 -178c122 54 217 74 288 74c87 0 134 -41 134 -128v-33c-41 10 -93 16 -146 16c-166 0 -358 -59 -358 -241c0 -167 131 -256 288 -256zM430 140c-58 0 -100 36 -100 91c0 82 60 108 126 108c40 0 78 -7 105 -17v-135c-41 -31 -90 -47 -131 -47z" />
    <glyph glyph-name="Cacute" unicode="&#x106;" horiz-adv-x="1451" 
d="M749 -22c354 0 557 165 616 431l-259 73c-41 -205 -185 -272 -342 -272c-208 0 -335 149 -335 367c0 219 124 365 332 365c157 0 268 -59 337 -215h239v426h-221v-121c-29 36 -140 142 -366 142c-388 0 -666 -231 -666 -605c0 -362 269 -591 665 -591zM656 1284h177
l207 356h-289z" />
    <glyph glyph-name="cacute" unicode="&#x107;" horiz-adv-x="981" 
d="M528 -21c141 0 283 57 386 146l-86 160c-80 -60 -172 -105 -283 -104c-124 1 -194 92 -194 232c0 138 77 212 175 213c87 1 158 -47 189 -181h187v360h-206l-5 -64c-35 51 -127 85 -206 85c-268 0 -440 -173 -440 -415c0 -268 184 -432 483 -432zM498 936h177l207 356
h-289z" />
    <glyph glyph-name="Ccircumflex" unicode="&#x108;" horiz-adv-x="1451" 
d="M749 -22c354 0 557 165 616 431l-259 73c-41 -205 -185 -272 -342 -272c-208 0 -335 149 -335 367c0 219 124 365 332 365c157 0 268 -59 337 -215h239v426h-221v-121c-29 36 -140 142 -366 142c-388 0 -666 -231 -666 -605c0 -362 269 -591 665 -591zM420 1273h180
l139 250l138 -250h181l-105 358h-429z" />
    <glyph glyph-name="ccircumflex" unicode="&#x109;" horiz-adv-x="981" 
d="M528 -21c141 0 283 57 386 146l-86 160c-80 -60 -172 -105 -283 -104c-124 1 -194 92 -194 232c0 138 77 212 175 213c87 1 158 -47 189 -181h187v360h-206l-5 -64c-35 51 -127 85 -206 85c-268 0 -440 -173 -440 -415c0 -268 184 -432 483 -432zM236 925h180l139 250
l138 -250h181l-105 358h-429z" />
    <glyph glyph-name="Cdotaccent" unicode="&#x10a;" horiz-adv-x="1451" 
d="M742 1316c109 0 182 69 181 173c0 102 -72 172 -181 172c-107 0 -180 -70 -180 -172c0 -104 73 -173 180 -173zM749 -22c354 0 557 165 616 431l-259 73c-41 -205 -185 -272 -342 -272c-208 0 -335 149 -335 367c0 219 124 365 332 365c157 0 268 -59 337 -215h239v426
h-221v-121c-29 36 -140 142 -366 142c-388 0 -666 -231 -666 -605c0 -362 269 -591 665 -591z" />
    <glyph glyph-name="cdotaccent" unicode="&#x10b;" horiz-adv-x="981" 
d="M558 968c109 0 182 69 181 173c0 102 -72 172 -181 172c-107 0 -180 -70 -180 -172c0 -104 73 -173 180 -173zM528 -21c141 0 283 57 386 146l-86 160c-80 -60 -172 -105 -283 -104c-124 1 -194 92 -194 232c0 138 77 212 175 213c87 1 158 -47 189 -181h187v360h-206
l-5 -64c-35 51 -127 85 -206 85c-268 0 -440 -173 -440 -415c0 -268 184 -432 483 -432z" />
    <glyph glyph-name="Ccaron" unicode="&#x10c;" horiz-adv-x="1451" 
d="M749 -22c354 0 557 165 616 431l-259 73c-41 -205 -185 -272 -342 -272c-208 0 -335 149 -335 367c0 219 124 365 332 365c157 0 268 -59 337 -215h239v426h-221v-121c-29 36 -140 142 -366 142c-388 0 -666 -231 -666 -605c0 -362 269 -591 665 -591zM577 1273h328
l143 354h-187l-120 -224l-121 224h-202z" />
    <glyph glyph-name="ccaron" unicode="&#x10d;" horiz-adv-x="981" 
d="M528 -21c141 0 283 57 386 146l-86 160c-80 -60 -172 -105 -283 -104c-124 1 -194 92 -194 232c0 138 77 212 175 213c87 1 158 -47 189 -181h187v360h-206l-5 -64c-35 51 -127 85 -206 85c-268 0 -440 -173 -440 -415c0 -268 184 -432 483 -432zM392 925h328l143 354
h-187l-120 -224l-121 224h-202z" />
    <glyph glyph-name="Dcaron" unicode="&#x10e;" horiz-adv-x="1517" 
d="M48 1152v-196h168v-760h-168v-196h736c436 0 654 225 654 581c0 318 -216 571 -654 571h-736zM564 196v760h217c194 0 285 -160 285 -376c0 -236 -90 -384 -286 -384h-216zM569 1271h328l143 354h-187l-120 -224l-121 224h-202z" />
    <glyph glyph-name="dcaron" unicode="&#x10f;" horiz-adv-x="1134" 
d="M991 196v978h-447v-196h146v-232c-73 49 -155 80 -236 80c-239 0 -408 -170 -408 -438c0 -250 184 -410 444 -410c75 0 141 21 200 57v-35h399v196h-98zM362 402c0 151 86 224 212 224c37 0 76 -8 116 -23v-400c-47 -17 -93 -25 -131 -25c-116 0 -197 85 -197 224z
M1072 652c232 0 335 84 334 241v281h-334v-230h124c0 -96 -21 -136 -124 -140v-152z" />
    <glyph glyph-name="Dcroat" unicode="&#x110;" horiz-adv-x="1517" 
d="M48 1152v-196h168v-760h-168v-196h736c436 0 654 225 654 581c0 318 -216 571 -654 571h-736zM564 196v760h217c194 0 285 -160 285 -376c0 -236 -90 -384 -286 -384h-216zM111 507h562v190h-562v-190z" />
    <glyph glyph-name="dcroat" unicode="&#x111;" horiz-adv-x="1134" 
d="M991 196v978h-447v-196h146v-232c-73 49 -155 80 -236 80c-239 0 -408 -170 -408 -438c0 -250 184 -410 444 -410c75 0 141 21 200 57v-35h399v196h-98zM362 402c0 151 86 224 212 224c37 0 76 -8 116 -23v-400c-47 -17 -93 -25 -131 -25c-116 0 -197 85 -197 224z
M583 820h521v138h-521v-138z" />
    <glyph glyph-name="Emacron" unicode="&#x112;" horiz-adv-x="1273" 
d="M404 1317h521v138h-521v-138zM959 416v-219h-396v308h200v-106h104v420h-106v-120h-198v254l394 3v-183h244v379h-1153v-196h167v-760h-167v-196h1160v416h-249z" />
    <glyph glyph-name="emacron" unicode="&#x113;" horiz-adv-x="950" 
d="M217 969h521v138h-521v-138zM524 -21c145 0 284 49 370 122l-80 156c-74 -46 -163 -77 -251 -77c-111 0 -202 56 -209 178h544c0 290 -154 469 -405 469c-280 0 -451 -164 -451 -432c0 -258 183 -416 482 -416zM356 500c16 97 73 157 148 157c85 0 137 -60 137 -157h-285
z" />
    <glyph glyph-name="Ebreve" unicode="&#x114;" horiz-adv-x="1273" 
d="M672 1247c193 0 308 111 325 315h-193c-9 -84 -54 -129 -129 -129c-77 0 -123 45 -136 129h-182c10 -204 121 -315 315 -315zM959 416v-219h-396v308h200v-106h104v420h-106v-120h-198v254l394 3v-183h244v379h-1153v-196h167v-760h-167v-196h1160v416h-249z" />
    <glyph glyph-name="ebreve" unicode="&#x115;" horiz-adv-x="950" 
d="M485 899c193 0 308 111 325 315h-193c-9 -84 -54 -129 -129 -129c-77 0 -123 45 -136 129h-182c10 -204 121 -315 315 -315zM524 -21c145 0 284 49 370 122l-80 156c-74 -46 -163 -77 -251 -77c-111 0 -202 56 -209 178h544c0 290 -154 469 -405 469
c-280 0 -451 -164 -451 -432c0 -258 183 -416 482 -416zM356 500c16 97 73 157 148 157c85 0 137 -60 137 -157h-285z" />
    <glyph glyph-name="Edotaccent" unicode="&#x116;" horiz-adv-x="1273" 
d="M671 1316c109 0 182 69 181 173c0 102 -72 172 -181 172c-107 0 -180 -70 -180 -172c0 -104 73 -173 180 -173zM959 416v-219h-396v308h200v-106h104v420h-106v-120h-198v254l394 3v-183h244v379h-1153v-196h167v-760h-167v-196h1160v416h-249z" />
    <glyph glyph-name="edotaccent" unicode="&#x117;" horiz-adv-x="950" 
d="M484 968c109 0 182 69 181 173c0 102 -72 172 -181 172c-107 0 -180 -70 -180 -172c0 -104 73 -173 180 -173zM524 -21c145 0 284 49 370 122l-80 156c-74 -46 -163 -77 -251 -77c-111 0 -202 56 -209 178h544c0 290 -154 469 -405 469c-280 0 -451 -164 -451 -432
c0 -258 183 -416 482 -416zM356 500c16 97 73 157 148 157c85 0 137 -60 137 -157h-285z" />
    <glyph glyph-name="Eogonek" unicode="&#x118;" horiz-adv-x="1273" 
d="M959 416v-219h-396v308h200v-106h104v420h-106v-120h-198v254l394 3v-183h244v379h-1153v-196h167v-760h-167v-196h1160v416h-249zM864 -399c51 0 98 11 161 40v134c-27 -8 -51 -11 -73 -11c-79 0 -120 43 -120 109c0 32 12 82 53 137h-114c-67 -77 -96 -157 -96 -225
c0 -105 71 -184 189 -184z" />
    <glyph glyph-name="eogonek" unicode="&#x119;" horiz-adv-x="950" 
d="M524 -21c145 0 284 49 370 122l-80 156c-74 -46 -163 -77 -251 -77c-111 0 -202 56 -209 178h544c0 290 -154 469 -405 469c-280 0 -451 -164 -451 -432c0 -258 183 -416 482 -416zM356 500c16 97 73 157 148 157c85 0 137 -60 137 -157h-285zM679 -399
c51 0 98 11 161 40v134c-27 -8 -51 -11 -73 -11c-79 0 -120 43 -120 109c0 32 12 82 53 137h-114c-67 -77 -96 -157 -96 -225c0 -105 71 -184 189 -184z" />
    <glyph glyph-name="Ecaron" unicode="&#x11a;" horiz-adv-x="1273" 
d="M959 416v-219h-396v308h200v-106h104v420h-106v-120h-198v254l394 3v-183h244v379h-1153v-196h167v-760h-167v-196h1160v416h-249zM505 1273h328l143 354h-187l-120 -224l-121 224h-202z" />
    <glyph glyph-name="ecaron" unicode="&#x11b;" horiz-adv-x="950" 
d="M524 -21c145 0 284 49 370 122l-80 156c-74 -46 -163 -77 -251 -77c-111 0 -202 56 -209 178h544c0 290 -154 469 -405 469c-280 0 -451 -164 -451 -432c0 -258 183 -416 482 -416zM356 500c16 97 73 157 148 157c85 0 137 -60 137 -157h-285zM318 925h328l143 354h-187
l-120 -224l-121 224h-202z" />
    <glyph glyph-name="Gcircumflex" unicode="&#x11c;" horiz-adv-x="1509" 
d="M782 -21c402 0 610 186 615 623h-541v-193h228c-11 -128 -110 -197 -294 -198c-187 0 -348 124 -348 365c0 238 132 366 352 366c148 0 271 -64 346 -214h224v434h-238v-141c-35 75 -206 153 -358 153c-391 0 -675 -239 -675 -598c0 -369 243 -597 689 -597zM473 1273
h180l139 250l138 -250h181l-105 358h-429z" />
    <glyph glyph-name="gcircumflex" unicode="&#x11d;" horiz-adv-x="1131" 
d="M481 -399c266 0 491 95 491 454v556h115v193h-353l-29 -65c-76 52 -161 85 -247 85c-238 0 -407 -166 -407 -429c0 -245 184 -402 443 -402c62 0 119 14 170 40c-1 -5 -1 -28 -1 -32c-7 -140 -66 -191 -185 -191c-87 0 -166 13 -276 47l-48 -200c104 -32 204 -56 327 -56
zM563 189c-115 0 -196 83 -196 220c0 148 86 220 212 220c26 0 55 -6 83 -17l2 -405c-35 -12 -70 -18 -101 -18zM235 925h180l139 250l138 -250h181l-105 358h-429z" />
    <glyph glyph-name="Gbreve" unicode="&#x11e;" horiz-adv-x="1509" 
d="M797 1247c193 0 308 111 325 315h-193c-9 -84 -54 -129 -129 -129c-77 0 -123 45 -136 129h-182c10 -204 121 -315 315 -315zM782 -21c402 0 610 186 615 623h-541v-193h228c-11 -128 -110 -197 -294 -198c-187 0 -348 124 -348 365c0 238 132 366 352 366
c148 0 271 -64 346 -214h224v434h-238v-141c-35 75 -206 153 -358 153c-391 0 -675 -239 -675 -598c0 -369 243 -597 689 -597z" />
    <glyph glyph-name="gbreve" unicode="&#x11f;" horiz-adv-x="1131" 
d="M559 899c193 0 308 111 325 315h-193c-9 -84 -54 -129 -129 -129c-77 0 -123 45 -136 129h-182c10 -204 121 -315 315 -315zM481 -399c266 0 491 95 491 454v556h115v193h-353l-29 -65c-76 52 -161 85 -247 85c-238 0 -407 -166 -407 -429c0 -245 184 -402 443 -402
c62 0 119 14 170 40c-1 -5 -1 -28 -1 -32c-7 -140 -66 -191 -185 -191c-87 0 -166 13 -276 47l-48 -200c104 -32 204 -56 327 -56zM563 189c-115 0 -196 83 -196 220c0 148 86 220 212 220c26 0 55 -6 83 -17l2 -405c-35 -12 -70 -18 -101 -18z" />
    <glyph glyph-name="Gdotaccent" unicode="&#x120;" horiz-adv-x="1509" 
d="M795 1316c109 0 182 69 181 173c0 102 -72 172 -181 172c-107 0 -180 -70 -180 -172c0 -104 73 -173 180 -173zM782 -21c402 0 610 186 615 623h-541v-193h228c-11 -128 -110 -197 -294 -198c-187 0 -348 124 -348 365c0 238 132 366 352 366c148 0 271 -64 346 -214h224
v434h-238v-141c-35 75 -206 153 -358 153c-391 0 -675 -239 -675 -598c0 -369 243 -597 689 -597z" />
    <glyph glyph-name="gdotaccent" unicode="&#x121;" horiz-adv-x="1131" 
d="M481 -399c266 0 491 95 491 454v556h115v193h-353l-29 -65c-76 52 -161 85 -247 85c-238 0 -407 -166 -407 -429c0 -245 184 -402 443 -402c62 0 119 14 170 40c-1 -5 -1 -28 -1 -32c-7 -140 -66 -191 -185 -191c-87 0 -166 13 -276 47l-48 -200c104 -32 204 -56 327 -56
zM563 189c-115 0 -196 83 -196 220c0 148 86 220 212 220c26 0 55 -6 83 -17l2 -405c-35 -12 -70 -18 -101 -18zM558 968c109 0 182 69 181 173c0 102 -72 172 -181 172c-107 0 -180 -70 -180 -172c0 -104 73 -173 180 -173z" />
    <glyph glyph-name="uni0122" unicode="&#x122;" horiz-adv-x="1509" 
d="M782 -21c402 0 610 186 615 623h-541v-193h228c-11 -128 -110 -197 -294 -198c-187 0 -348 124 -348 365c0 238 132 366 352 366c148 0 271 -64 346 -214h224v434h-238v-141c-35 75 -206 153 -358 153c-391 0 -675 -239 -675 -598c0 -369 243 -597 689 -597zM629 -658
c251 1 324 63 324 308c0 75 -6 185 -13 242h-318l4 -283h165c0 -110 -54 -153 -162 -163v-104z" />
    <glyph glyph-name="uni0123" unicode="&#x123;" horiz-adv-x="1131" 
d="M481 -399c266 0 491 95 491 454v556h115v193h-353l-29 -65c-76 52 -161 85 -247 85c-238 0 -407 -166 -407 -429c0 -245 184 -402 443 -402c62 0 119 14 170 40c-1 -5 -1 -28 -1 -32c-7 -140 -66 -191 -185 -191c-87 0 -166 13 -276 47l-48 -200c104 -32 204 -56 327 -56
zM563 189c-115 0 -196 83 -196 220c0 148 86 220 212 220c26 0 55 -6 83 -17l2 -405c-35 -12 -70 -18 -101 -18zM409 930h328l-3 315h-176c0 110 65 153 172 163v104c-251 -1 -334 -63 -334 -308c0 -75 6 -217 13 -274z" />
    <glyph glyph-name="Hcircumflex" unicode="&#x124;" horiz-adv-x="1585" 
d="M1536 956v196h-681v-196h167v-276h-459v276h167v196h-682v-196h167v-760h-167v-196h682v196h-167v293h459v-293h-167v-196h681v196h-167v760h167zM475 1273h180l139 250l138 -250h181l-105 358h-429z" />
    <glyph glyph-name="hcircumflex" unicode="&#x125;" horiz-adv-x="1244" 
d="M1092 196v300c2 226 -124 330 -282 330c-120 0 -227 -48 -330 -143v491h-434v-196h133v-782h-134v-196h556v196h-121v346c60 42 123 64 188 63c73 0 124 -45 124 -150v-259h-101v-196h537v196h-136zM295 1260h180l139 250l138 -250h181l-105 358h-429z" />
    <glyph glyph-name="Hbar" unicode="&#x126;" horiz-adv-x="1585" 
d="M104 759h1389v126h-1389v-126zM1536 956v196h-681v-196h167v-276h-459v276h167v196h-682v-196h167v-760h-167v-196h682v196h-167v293h459v-293h-167v-196h681v196h-167v760h167z" />
    <glyph glyph-name="hbar" unicode="&#x127;" horiz-adv-x="1244" 
d="M63 795h521v138h-521v-138zM1092 196v300c2 226 -124 330 -282 330c-120 0 -227 -48 -330 -143v491h-434v-196h133v-782h-134v-196h556v196h-121v346c60 42 123 64 188 63c73 0 124 -45 124 -150v-259h-101v-196h537v196h-136z" />
    <glyph glyph-name="Itilde" unicode="&#x128;" horiz-adv-x="791" 
d="M576 1247c138 0 181 110 195 285h-138c-9 -54 -30 -71 -58 -71c-83 0 -225 94 -352 94c-109 0 -199 -73 -214 -280h140c7 55 35 67 67 67c105 0 265 -96 360 -95zM55 196v-196h681v196h-167v760h167v196h-681v-196h167v-760h-167z" />
    <glyph glyph-name="itilde" unicode="&#x129;" horiz-adv-x="812" 
d="M575 899c138 0 181 110 195 285h-138c-9 -54 -30 -71 -58 -71c-83 0 -225 94 -352 94c-109 0 -199 -73 -214 -280h140c7 55 35 67 67 67c105 0 265 -96 360 -95zM146 0h533v196h-109v608h-417v-196h117v-412h-124v-196z" />
    <glyph glyph-name="Imacron" unicode="&#x12a;" horiz-adv-x="791" 
d="M122 1315h521v138h-521v-138zM55 196v-196h681v196h-167v760h167v196h-681v-196h167v-760h-167z" />
    <glyph glyph-name="imacron" unicode="&#x12b;" horiz-adv-x="812" 
d="M121 967h521v138h-521v-138zM146 0h533v196h-109v608h-417v-196h117v-412h-124v-196z" />
    <glyph glyph-name="Ibreve" unicode="&#x12c;" horiz-adv-x="791" 
d="M391 1245c193 0 308 111 325 315h-193c-9 -84 -54 -129 -129 -129c-77 0 -123 45 -136 129h-182c10 -204 121 -315 315 -315zM55 196v-196h681v196h-167v760h167v196h-681v-196h167v-760h-167z" />
    <glyph glyph-name="ibreve" unicode="&#x12d;" horiz-adv-x="812" 
d="M390 897c193 0 308 111 325 315h-193c-9 -84 -54 -129 -129 -129c-77 0 -123 45 -136 129h-182c10 -204 121 -315 315 -315zM146 0h533v196h-109v608h-417v-196h117v-412h-124v-196z" />
    <glyph glyph-name="Iogonek" unicode="&#x12e;" horiz-adv-x="791" 
d="M419 -399c51 0 98 11 161 40v134c-27 -8 -51 -11 -73 -11c-79 0 -120 43 -120 109c0 32 12 82 53 137h-114c-67 -77 -96 -157 -96 -225c0 -105 71 -184 189 -184zM55 196v-196h681v196h-167v760h167v196h-681v-196h167v-760h-167z" />
    <glyph glyph-name="iogonek" unicode="&#x12f;" horiz-adv-x="812" 
d="M388 966c109 0 182 69 181 173c0 102 -72 172 -181 172c-107 0 -180 -70 -180 -172c0 -104 73 -173 180 -173zM474 -399c51 0 98 11 161 40v134c-27 -8 -51 -11 -73 -11c-79 0 -120 43 -120 109c0 32 12 82 53 137h-114c-67 -77 -96 -157 -96 -225
c0 -105 71 -184 189 -184zM146 0h533v196h-109v608h-417v-196h117v-412h-124v-196z" />
    <glyph glyph-name="Idotaccent" unicode="&#x130;" horiz-adv-x="791" 
d="M389 1314c109 0 182 69 181 173c0 102 -72 172 -181 172c-107 0 -180 -70 -180 -172c0 -104 73 -173 180 -173zM55 196v-196h681v196h-167v760h167v196h-681v-196h167v-760h-167z" />
    <glyph glyph-name="dotlessi" unicode="&#x131;" horiz-adv-x="812" 
d="M146 0h533v196h-109v608h-417v-196h117v-412h-124v-196z" />
    <glyph glyph-name="IJ" unicode="&#x132;" horiz-adv-x="1612" 
d="M823 -58v-258h188c330 0 387 203 387 492v780h182v196h-727v-196h200v-817c0 -95 -22 -197 -130 -197h-100zM55 196v-196h681v196h-167v760h167v196h-681v-196h167v-760h-167z" />
    <glyph glyph-name="ij" unicode="&#x133;" horiz-adv-x="1278" 
d="M1004 968c109 0 182 69 181 173c0 102 -72 172 -181 172c-107 0 -180 -70 -180 -172c0 -104 73 -173 180 -173zM649 -118v-227h107c490 0 438 328 438 538v611h-464v-196h154v-548c0 -157 -53 -178 -164 -178h-71zM332 966c109 0 182 70 181 173c0 102 -72 172 -181 172
c-107 0 -180 -70 -180 -172c0 -103 73 -173 180 -173zM78 196v-196h532v196h-108v608h-417v-196h117v-412h-124z" />
    <glyph glyph-name="Jcircumflex" unicode="&#x134;" horiz-adv-x="821" 
d="M32 -58v-258h188c330 0 387 203 387 492v780h182v196h-727v-196h200v-817c0 -95 -22 -197 -130 -197h-100zM97 1273h180l139 250l138 -250h181l-105 358h-429z" />
    <glyph glyph-name="jcircumflex" unicode="&#x135;" horiz-adv-x="617" 
d="M-12 -345h107c490 0 438 328 438 538v611h-464v-196h154v-548c0 -157 -53 -178 -164 -178h-71v-227zM21 925h180l139 250l138 -250h181l-105 358h-429z" />
    <glyph glyph-name="uni0136" unicode="&#x136;" horiz-adv-x="1540" 
d="M640 -658c251 1 324 63 324 308c0 75 -6 185 -13 242h-318l4 -283h165c0 -110 -54 -153 -162 -163v-104zM1375 196l-443 441l376 319h179v196h-645v-196h158l-437 -346v346h167v196h-682v-196h167v-760h-167v-196h682v196h-167v383l373 -383h-104v-196h668v196h-125z" />
    <glyph glyph-name="uni0137" unicode="&#x137;" horiz-adv-x="1199" 
d="M484 -658c251 1 324 63 324 308c0 75 -6 185 -13 242h-318l4 -283h165c0 -110 -54 -153 -162 -163v-104zM1011 197l-237 242l229 171h122v194h-517v-194h146l-274 -188v752h-434v-196h133v-782h-134v-196h556v196h-121v200l358 -396h320v197h-147z" />
    <glyph glyph-name="kgreenlandic" unicode="&#x138;" horiz-adv-x="1286" 
d="M126 0h568v197h-121v175l278 -175h-45v-197h499v197h-149l-297 192l277 221h148v194h-573v-194h119l-257 -226v420h-451v-194h150v-413h-146v-197z" />
    <glyph glyph-name="Lacute" unicode="&#x139;" horiz-adv-x="1278" 
d="M937 559v-363h-374v760h167v196h-682v-196h167v-760h-167v-196h1167v559h-278zM412 1284h177l207 356h-289z" />
    <glyph glyph-name="lacute" unicode="&#x13a;" horiz-adv-x="652" 
d="M52 196v-196h556v196h-121v978h-434v-196h134v-782h-135zM264 1284h177l207 356h-289z" />
    <glyph glyph-name="uni013B" unicode="&#x13b;" horiz-adv-x="1278" 
d="M937 559v-363h-374v760h167v196h-682v-196h167v-760h-167v-196h1167v559h-278zM483 -658c251 1 324 63 324 308c0 75 -6 185 -13 242h-318l4 -283h165c0 -110 -54 -153 -162 -163v-104z" />
    <glyph glyph-name="uni013C" unicode="&#x13c;" horiz-adv-x="652" 
d="M52 196v-196h556v196h-121v978h-434v-196h134v-782h-135zM185 -658c251 1 324 63 324 308c0 75 -6 185 -13 242h-318l4 -283h165c0 -110 -54 -153 -162 -163v-104z" />
    <glyph glyph-name="Lcaron" unicode="&#x13d;" horiz-adv-x="1278" 
d="M937 559v-363h-374v760h167v196h-682v-196h167v-760h-167v-196h1167v559h-278zM808 740c232 0 335 84 334 241v281h-334v-230h124c0 -96 -21 -136 -124 -140v-152z" />
    <glyph glyph-name="lcaron" unicode="&#x13e;" horiz-adv-x="652" 
d="M52 196v-196h556v196h-121v978h-434v-196h134v-782h-135zM557 740c232 0 335 84 334 241v281h-334v-230h124c0 -96 -21 -136 -124 -140v-152z" />
    <glyph glyph-name="Ldot" unicode="&#x13f;" horiz-adv-x="1278" 
d="M621 534h251v235h-251v-235zM937 559v-363h-374v760h167v196h-682v-196h167v-760h-167v-196h1167v559h-278z" />
    <glyph glyph-name="ldot" unicode="&#x140;" horiz-adv-x="652" 
d="M546 533h251v235h-251v-235zM52 196v-196h556v196h-121v978h-434v-196h134v-782h-135z" />
    <glyph glyph-name="Lslash" unicode="&#x141;" horiz-adv-x="1276" 
d="M61 365l733 317v152l-733 -316v-153zM937 559v-363h-374v760h167v196h-682v-196h167v-760h-167v-196h1167v559h-278z" />
    <glyph glyph-name="lslash" unicode="&#x142;" horiz-adv-x="571" 
d="M20 370l592 312v233l-592 -319v-226zM52 196v-196h556v196h-121v978h-434v-196h134v-782h-135z" />
    <glyph glyph-name="Nacute" unicode="&#x143;" horiz-adv-x="1653" 
d="M48 196v-196h582v196h-172v629l680 -825h287v956h190v196h-589v-196h168v-493l-590 689h-556v-196h182v-760h-182zM765 1284h177l207 356h-289z" />
    <glyph glyph-name="nacute" unicode="&#x144;" horiz-adv-x="1224" 
d="M1072 196v300c2 226 -124 330 -282 330c-116 0 -220 -45 -321 -134v112h-417v-196h117v-412h-124v-196h533v196h-109v352c58 39 117 58 179 57c73 0 124 -45 124 -150v-259h-101v-196h537v196h-136zM569 936h177l207 356h-289z" />
    <glyph glyph-name="uni0145" unicode="&#x145;" horiz-adv-x="1653" 
d="M48 196v-196h582v196h-172v629l680 -825h287v956h190v196h-589v-196h168v-493l-590 689h-556v-196h182v-760h-182zM739 -658c251 1 324 63 324 308c0 75 -6 185 -13 242h-318l4 -283h165c0 -110 -54 -153 -162 -163v-104z" />
    <glyph glyph-name="uni0146" unicode="&#x146;" horiz-adv-x="1224" 
d="M1072 196v300c2 226 -124 330 -282 330c-116 0 -220 -45 -321 -134v112h-417v-196h117v-412h-124v-196h533v196h-109v352c58 39 117 58 179 57c73 0 124 -45 124 -150v-259h-101v-196h537v196h-136zM490 -658c251 1 324 63 324 308c0 75 -6 185 -13 242h-318l4 -283h165
c0 -110 -54 -153 -162 -163v-104z" />
    <glyph glyph-name="Ncaron" unicode="&#x147;" horiz-adv-x="1653" 
d="M48 196v-196h582v196h-172v629l680 -825h287v956h190v196h-589v-196h168v-493l-590 689h-556v-196h182v-760h-182zM686 1273h328l143 354h-187l-120 -224l-121 224h-202z" />
    <glyph glyph-name="ncaron" unicode="&#x148;" horiz-adv-x="1224" 
d="M1072 196v300c2 226 -124 330 -282 330c-116 0 -220 -45 -321 -134v112h-417v-196h117v-412h-124v-196h533v196h-109v352c58 39 117 58 179 57c73 0 124 -45 124 -150v-259h-101v-196h537v196h-136zM462 925h328l143 354h-187l-120 -224l-121 224h-202z" />
    <glyph glyph-name="napostrophe" unicode="&#x149;" horiz-adv-x="1224" 
d="M1072 196v300c2 226 -124 330 -282 330c-116 0 -220 -45 -321 -134v112h-417v-196h117v-412h-124v-196h533v196h-109v352c58 39 117 58 179 57c73 0 124 -45 124 -150v-259h-101v-196h537v196h-136zM96 848c251 1 324 63 324 308c0 75 -6 185 -13 242h-318l4 -283h165
c0 -110 -54 -153 -162 -163v-104z" />
    <glyph glyph-name="Eng" unicode="&#x14a;" horiz-adv-x="1655" 
d="M1615 956v196h-589v-196h168v-493l-590 689h-556v-196h182v-760h-182v-196h582v196h-172v629l738 -827c0 -188 -161 -203 -300 -203v-171c264 0 529 3 529 368v964h190z" />
    <glyph glyph-name="eng" unicode="&#x14b;" horiz-adv-x="1222" 
d="M466 687v117h-417v-196h117v-412h-124v-196h533v196h-109v349c59 41 121 61 183 60c74 0 124 -45 124 -150v-329c0 -188 -58 -251 -196 -251l-3 -211c266 0 499 91 499 456v376c0 226 -123 330 -282 330c-117 0 -223 -46 -325 -139z" />
    <glyph glyph-name="Omacron" unicode="&#x14c;" horiz-adv-x="1532" 
d="M766 -22c405 -5 682 236 682 593c0 359 -277 603 -683 603c-405 0 -681 -244 -681 -602s276 -599 682 -594zM765 210c-198 0 -333 152 -333 369c0 221 135 366 334 363c198 3 333 -142 333 -363c0 -217 -135 -369 -334 -369zM490 1315h521v138h-521v-138z" />
    <glyph glyph-name="omacron" unicode="&#x14d;" horiz-adv-x="1039" 
d="M519 -22c284 0 476 175 476 436c0 246 -192 412 -475 412c-284 0 -476 -166 -476 -412c0 -261 192 -436 475 -436zM519 178c-101 -2 -169 93 -169 235c0 127 68 213 169 213s170 -86 170 -213c0 -142 -69 -237 -170 -235zM236 987h521v138h-521v-138z" />
    <glyph glyph-name="Obreve" unicode="&#x14e;" horiz-adv-x="1532" 
d="M758 1245c193 0 308 111 325 315h-193c-9 -84 -54 -129 -129 -129c-77 0 -123 45 -136 129h-182c10 -204 121 -315 315 -315zM766 -22c405 -5 682 236 682 593c0 359 -277 603 -683 603c-405 0 -681 -244 -681 -602s276 -599 682 -594zM765 210c-198 0 -333 152 -333 369
c0 221 135 366 334 363c198 3 333 -142 333 -363c0 -217 -135 -369 -334 -369z" />
    <glyph glyph-name="obreve" unicode="&#x14f;" horiz-adv-x="1039" 
d="M505 917c193 0 308 111 325 315h-193c-9 -84 -54 -129 -129 -129c-77 0 -123 45 -136 129h-182c10 -204 121 -315 315 -315zM519 -22c284 0 476 175 476 436c0 246 -192 412 -475 412c-284 0 -476 -166 -476 -412c0 -261 192 -436 475 -436zM519 178
c-101 -2 -169 93 -169 235c0 127 68 213 169 213s170 -86 170 -213c0 -142 -69 -237 -170 -235z" />
    <glyph glyph-name="Ohungarumlaut" unicode="&#x150;" horiz-adv-x="1532" 
d="M766 -22c405 -5 682 236 682 593c0 359 -277 603 -683 603c-405 0 -681 -244 -681 -602s276 -599 682 -594zM765 210c-198 0 -333 152 -333 369c0 221 135 366 334 363c198 3 333 -142 333 -363c0 -217 -135 -369 -334 -369zM481 1282h177l207 356h-289zM881 1282h177
l207 356h-289z" />
    <glyph glyph-name="ohungarumlaut" unicode="&#x151;" horiz-adv-x="1039" 
d="M519 -22c284 0 476 175 476 436c0 246 -192 412 -475 412c-284 0 -476 -166 -476 -412c0 -261 192 -436 475 -436zM519 178c-101 -2 -169 93 -169 235c0 127 68 213 169 213s170 -86 170 -213c0 -142 -69 -237 -170 -235zM228 954h177l207 356h-289zM628 954h177l207 356
h-289z" />
    <glyph glyph-name="OE" unicode="&#x152;" horiz-adv-x="2328" 
d="M1054 0h1172v370h-252v-189h-407v345h225v-93h104v372h-103v-69h-221v233h402v-186h242v369h-1165c-521 2 -811 -169 -813 -551c2 -412 293 -601 816 -601zM1000 181c-243 -5 -388 145 -390 412c2 242 174 373 403 376l208 2v-785z" />
    <glyph glyph-name="oe" unicode="&#x153;" horiz-adv-x="1605" 
d="M510 -22c175 0 275 77 322 150c46 -73 157 -149 344 -149c146 0 274 45 361 121l-86 153c-72 -46 -162 -75 -243 -75c-118 0 -205 57 -212 180h545c0 287 -144 469 -402 469c-148 0 -248 -59 -306 -146c-64 94 -190 145 -314 145c-283 0 -465 -167 -465 -413
c0 -259 173 -435 456 -435zM518 176c-103 -1 -169 93 -169 236c0 128 66 215 169 215c102 0 169 -87 169 -215c0 -143 -67 -237 -169 -236zM998 499c16 98 70 158 152 158c89 0 137 -61 138 -158h-290z" />
    <glyph glyph-name="Racute" unicode="&#x154;" horiz-adv-x="1464" 
d="M1246 197l-189 329c114 30 252 92 252 313c0 258 -200 313 -468 313h-793v-196h167v-760h-167v-196h682v196h-167v760h236c113 0 165 -57 165 -132c0 -84 -43 -145 -183 -145h-142v-186h87l266 -493h420v197h-166zM509 1284h177l207 356h-289z" />
    <glyph glyph-name="racute" unicode="&#x155;" horiz-adv-x="860" 
d="M471 640v164h-417v-196h117v-412h-124v-196h532v196h-108v238c0 97 82 134 157 134c59 0 124 -21 161 -43l64 249c-50 20 -101 40 -160 40c-76 0 -160 -40 -222 -174zM398 936h177l207 356h-289z" />
    <glyph glyph-name="uni0156" unicode="&#x156;" horiz-adv-x="1464" 
d="M1246 197l-189 329c114 30 252 92 252 313c0 258 -200 313 -468 313h-793v-196h167v-760h-167v-196h682v196h-167v760h236c113 0 165 -57 165 -132c0 -84 -43 -145 -183 -145h-142v-186h87l266 -493h420v197h-166zM581 -658c251 1 324 63 324 308c0 75 -6 185 -13 242
h-318l4 -283h165c0 -110 -54 -153 -162 -163v-104z" />
    <glyph glyph-name="uni0157" unicode="&#x157;" horiz-adv-x="860" 
d="M471 640v164h-417v-196h117v-412h-124v-196h532v196h-108v238c0 97 82 134 157 134c59 0 124 -21 161 -43l64 249c-50 20 -101 40 -160 40c-76 0 -160 -40 -222 -174zM163 -658c251 1 324 63 324 308c0 75 -6 185 -13 242h-318l4 -283h165c0 -110 -54 -153 -162 -163
v-104z" />
    <glyph glyph-name="Rcaron" unicode="&#x158;" horiz-adv-x="1464" 
d="M1246 197l-189 329c114 30 252 92 252 313c0 258 -200 313 -468 313h-793v-196h167v-760h-167v-196h682v196h-167v760h236c113 0 165 -57 165 -132c0 -84 -43 -145 -183 -145h-142v-186h87l266 -493h420v197h-166zM430 1273h328l143 354h-187l-120 -224l-121 224h-202z
" />
    <glyph glyph-name="rcaron" unicode="&#x159;" horiz-adv-x="860" 
d="M471 640v164h-417v-196h117v-412h-124v-196h532v196h-108v238c0 97 82 134 157 134c59 0 124 -21 161 -43l64 249c-50 20 -101 40 -160 40c-76 0 -160 -40 -222 -174zM291 925h328l143 354h-187l-120 -224l-121 224h-202z" />
    <glyph glyph-name="Sacute" unicode="&#x15a;" horiz-adv-x="1150" 
d="M645 -21c298 0 428 190 417 390c-10 190 -91 268 -402 360c-177 51 -207 84 -208 149c-1 55 42 97 117 97c106 0 187 -58 211 -84v-84h220v346h-220v-79c-38 48 -114 100 -256 100c-303 0 -418 -169 -417 -326c1 -199 95 -291 424 -382c155 -42 213 -68 213 -161
c0 -86 -69 -123 -151 -123c-106 0 -200 55 -242 95v151h-235v-428h235v78c63 -62 186 -99 294 -99zM483 1282h177l207 356h-289z" />
    <glyph glyph-name="sacute" unicode="&#x15b;" horiz-adv-x="925" 
d="M543 -22c139 0 301 52 302 253c2 159 -97 200 -217 238l-122 39c-82 25 -119 39 -119 82c0 40 38 57 94 57c54 0 136 -25 169 -56l15 -84h173v313h-190v-69c-49 39 -116 76 -238 75c-132 0 -321 -62 -321 -235c0 -126 68 -208 194 -246l173 -55c69 -20 106 -36 106 -80
c0 -33 -26 -54 -85 -54c-77 0 -187 38 -218 89l-6 55h-161v-300h180v77c38 -61 170 -99 271 -99zM358 936h177l207 356h-289z" />
    <glyph glyph-name="Scircumflex" unicode="&#x15c;" horiz-adv-x="1150" 
d="M645 -21c298 0 428 190 417 390c-10 190 -91 268 -402 360c-177 51 -207 84 -208 149c-1 55 42 97 117 97c106 0 187 -58 211 -84v-84h220v346h-220v-79c-38 48 -114 100 -256 100c-303 0 -418 -169 -417 -326c1 -199 95 -291 424 -382c155 -42 213 -68 213 -161
c0 -86 -69 -123 -151 -123c-106 0 -200 55 -242 95v151h-235v-428h235v78c63 -62 186 -99 294 -99zM248 1271h180l139 250l138 -250h181l-105 358h-429z" />
    <glyph glyph-name="scircumflex" unicode="&#x15d;" horiz-adv-x="925" 
d="M543 -22c139 0 301 52 302 253c2 159 -97 200 -217 238l-122 39c-82 25 -119 39 -119 82c0 40 38 57 94 57c54 0 136 -25 169 -56l15 -84h173v313h-190v-69c-49 39 -116 76 -238 75c-132 0 -321 -62 -321 -235c0 -126 68 -208 194 -246l173 -55c69 -20 106 -36 106 -80
c0 -33 -26 -54 -85 -54c-77 0 -187 38 -218 89l-6 55h-161v-300h180v77c38 -61 170 -99 271 -99zM95 925h180l139 250l138 -250h181l-105 358h-429z" />
    <glyph glyph-name="Scedilla" unicode="&#x15e;" horiz-adv-x="1150" 
d="M621 -417c100 0 190 45 190 153c0 70 -50 134 -154 151l29 117h-110l-71 -181c82 -5 119 -26 119 -69c0 -48 -31 -64 -74 -64c-37 0 -82 13 -122 29v-83c55 -34 127 -53 193 -53zM645 -21c298 0 428 190 417 390c-10 190 -91 268 -402 360c-177 51 -207 84 -208 149
c-1 55 42 97 117 97c106 0 187 -58 211 -84v-84h220v346h-220v-79c-38 48 -114 100 -256 100c-303 0 -418 -169 -417 -326c1 -199 95 -291 424 -382c155 -42 213 -68 213 -161c0 -86 -69 -123 -151 -123c-106 0 -200 55 -242 95v151h-235v-428h235v78
c63 -62 186 -99 294 -99z" />
    <glyph glyph-name="scedilla" unicode="&#x15f;" horiz-adv-x="925" 
d="M511 -417c100 0 190 45 190 153c0 70 -50 134 -154 151l29 117h-110l-71 -181c82 -5 119 -26 119 -69c0 -48 -31 -64 -74 -64c-37 0 -82 13 -122 29v-83c55 -34 127 -53 193 -53zM543 -22c139 0 301 52 302 253c2 159 -97 200 -217 238l-122 39c-82 25 -119 39 -119 82
c0 40 38 57 94 57c54 0 136 -25 169 -56l15 -84h173v313h-190v-69c-49 39 -116 76 -238 75c-132 0 -321 -62 -321 -235c0 -126 68 -208 194 -246l173 -55c69 -20 106 -36 106 -80c0 -33 -26 -54 -85 -54c-77 0 -187 38 -218 89l-6 55h-161v-300h180v77
c38 -61 170 -99 271 -99z" />
    <glyph glyph-name="Scaron" unicode="&#x160;" horiz-adv-x="1150" 
d="M645 -21c298 0 428 190 417 390c-10 190 -91 268 -402 360c-177 51 -207 84 -208 149c-1 55 42 97 117 97c106 0 187 -58 211 -84v-84h220v346h-220v-79c-38 48 -114 100 -256 100c-303 0 -418 -169 -417 -326c1 -199 95 -291 424 -382c155 -42 213 -68 213 -161
c0 -86 -69 -123 -151 -123c-106 0 -200 55 -242 95v151h-235v-428h235v78c63 -62 186 -99 294 -99zM404 1271h328l143 354h-187l-120 -224l-121 224h-202z" />
    <glyph glyph-name="scaron" unicode="&#x161;" horiz-adv-x="925" 
d="M543 -22c139 0 301 52 302 253c2 159 -97 200 -217 238l-122 39c-82 25 -119 39 -119 82c0 40 38 57 94 57c54 0 136 -25 169 -56l15 -84h173v313h-190v-69c-49 39 -116 76 -238 75c-132 0 -321 -62 -321 -235c0 -126 68 -208 194 -246l173 -55c69 -20 106 -36 106 -80
c0 -33 -26 -54 -85 -54c-77 0 -187 38 -218 89l-6 55h-161v-300h180v77c38 -61 170 -99 271 -99zM252 925h328l143 354h-187l-120 -224l-121 224h-202z" />
    <glyph glyph-name="uni0162" unicode="&#x162;" horiz-adv-x="1320" 
d="M666 -417c100 0 190 45 190 153c0 70 -50 134 -154 151l29 117h-110l-71 -181c82 -5 119 -26 119 -69c0 -48 -31 -64 -74 -64c-37 0 -82 13 -122 29v-83c55 -34 127 -53 193 -53zM16 1152v-487h230v291h247v-760h-167v-196h682v196h-167v760h239v-291h224v487h-1288z" />
    <glyph glyph-name="uni0163" unicode="&#x163;" horiz-adv-x="723" 
d="M404 -417c100 0 190 45 190 153c0 70 -50 134 -154 151l29 117h-110l-71 -181c82 -5 119 -26 119 -69c0 -48 -31 -64 -74 -64c-37 0 -82 13 -122 29v-83c55 -34 127 -53 193 -53zM402 0h258v196h-154c-53 0 -58 32 -58 64v348h210v196h-210v338l-300 -58v-280h-127v-196
h126v-362c0 -167 88 -246 255 -246z" />
    <glyph glyph-name="Tcaron" unicode="&#x164;" horiz-adv-x="1320" 
d="M16 1152v-487h230v291h247v-760h-167v-196h682v196h-167v760h239v-291h224v487h-1288zM498 1273h328l143 354h-187l-120 -224l-121 224h-202z" />
    <glyph glyph-name="tcaron" unicode="&#x165;" horiz-adv-x="723" 
d="M402 0h258v196h-154c-53 0 -58 32 -58 64v348h210v196h-210v338l-300 -58v-280h-127v-196h126v-362c0 -167 88 -246 255 -246zM502 931c232 0 335 84 334 241v281h-334v-230h124c0 -96 -21 -136 -124 -140v-152z" />
    <glyph glyph-name="Tbar" unicode="&#x166;" horiz-adv-x="1320" 
d="M16 1152v-487h230v291h247v-760h-167v-196h682v196h-167v760h239v-291h224v487h-1288zM405 483h521v138h-521v-138z" />
    <glyph glyph-name="tbar" unicode="&#x167;" horiz-adv-x="723" 
d="M402 0h258v196h-154c-53 0 -58 32 -58 64v348h210v196h-210v338l-300 -58v-280h-127v-196h126v-362c0 -167 88 -246 255 -246zM48 379h521v138h-521v-138z" />
    <glyph glyph-name="Utilde" unicode="&#x168;" horiz-adv-x="1549" 
d="M1017 1249c138 0 181 110 195 285h-138c-9 -54 -30 -71 -58 -71c-83 0 -225 94 -352 94c-109 0 -199 -73 -214 -280h140c7 55 35 67 67 67c105 0 265 -96 360 -95zM788 -21c353 0 547 164 547 492v485h171v196h-577v-196h176v-487c0 -178 -95 -272 -278 -272
c-174 0 -265 95 -265 271v488h191v196h-708v-196h170v-481c0 -318 185 -496 573 -496z" />
    <glyph glyph-name="utilde" unicode="&#x169;" 
d="M732 901c138 0 181 110 195 285h-138c-9 -54 -30 -71 -58 -71c-83 0 -225 94 -352 94c-109 0 -199 -73 -214 -280h140c7 55 35 67 67 67c105 0 265 -96 360 -95zM435 -21c126 0 217 42 298 108l1 -87h423v196h-124v608h-426v-196h126v-340c-48 -42 -117 -73 -178 -73
c-70 0 -122 41 -122 151v458h-413v-196h113v-321c0 -163 74 -308 302 -308z" />
    <glyph glyph-name="Umacron" unicode="&#x16a;" horiz-adv-x="1549" 
d="M563 1317h521v138h-521v-138zM788 -21c353 0 547 164 547 492v485h171v196h-577v-196h176v-487c0 -178 -95 -272 -278 -272c-174 0 -265 95 -265 271v488h191v196h-708v-196h170v-481c0 -318 185 -496 573 -496z" />
    <glyph glyph-name="umacron" unicode="&#x16b;" 
d="M435 -21c126 0 217 42 298 108l1 -87h423v196h-124v608h-426v-196h126v-340c-48 -42 -117 -73 -178 -73c-70 0 -122 41 -122 151v458h-413v-196h113v-321c0 -163 74 -308 302 -308zM279 969h521v138h-521v-138z" />
    <glyph glyph-name="Ubreve" unicode="&#x16c;" horiz-adv-x="1549" 
d="M831 1247c193 0 308 111 325 315h-193c-9 -84 -54 -129 -129 -129c-77 0 -123 45 -136 129h-182c10 -204 121 -315 315 -315zM788 -21c353 0 547 164 547 492v485h171v196h-577v-196h176v-487c0 -178 -95 -272 -278 -272c-174 0 -265 95 -265 271v488h191v196h-708v-196
h170v-481c0 -318 185 -496 573 -496z" />
    <glyph glyph-name="ubreve" unicode="&#x16d;" 
d="M547 899c193 0 308 111 325 315h-193c-9 -84 -54 -129 -129 -129c-77 0 -123 45 -136 129h-182c10 -204 121 -315 315 -315zM435 -21c126 0 217 42 298 108l1 -87h423v196h-124v608h-426v-196h126v-340c-48 -42 -117 -73 -178 -73c-70 0 -122 41 -122 151v458h-413v-196
h113v-321c0 -163 74 -308 302 -308z" />
    <glyph glyph-name="Uring" unicode="&#x16e;" horiz-adv-x="1549" 
d="M788 -21c353 0 547 164 547 492v485h171v196h-577v-196h176v-487c0 -178 -95 -272 -278 -272c-174 0 -265 95 -265 271v488h191v196h-708v-196h170v-481c0 -318 185 -496 573 -496zM834 1356c-58 0 -91 37 -91 93s33 93 91 93s91 -37 91 -93s-33 -93 -91 -93zM834 1262
c122 2 195 75 195 187s-72 185 -195 186c-122 -1 -195 -74 -195 -186s73 -185 195 -187z" />
    <glyph glyph-name="uring" unicode="&#x16f;" 
d="M435 -21c126 0 217 42 298 108l1 -87h423v196h-124v608h-426v-196h126v-340c-48 -42 -117 -73 -178 -73c-70 0 -122 41 -122 151v458h-413v-196h113v-321c0 -163 74 -308 302 -308zM549 1008c-58 0 -91 37 -91 93s33 93 91 93s91 -37 91 -93s-33 -93 -91 -93zM549 914
c122 2 195 75 195 187s-72 185 -195 186c-122 -1 -195 -74 -195 -186s73 -185 195 -187z" />
    <glyph glyph-name="Uhungarumlaut" unicode="&#x170;" horiz-adv-x="1549" 
d="M554 1284h177l207 356h-289zM954 1284h177l207 356h-289zM788 -21c353 0 547 164 547 492v485h171v196h-577v-196h176v-487c0 -178 -95 -272 -278 -272c-174 0 -265 95 -265 271v488h191v196h-708v-196h170v-481c0 -318 185 -496 573 -496z" />
    <glyph glyph-name="uhungarumlaut" unicode="&#x171;" 
d="M270 936h177l207 356h-289zM670 936h177l207 356h-289zM435 -21c126 0 217 42 298 108l1 -87h423v196h-124v608h-426v-196h126v-340c-48 -42 -117 -73 -178 -73c-70 0 -122 41 -122 151v458h-413v-196h113v-321c0 -163 74 -308 302 -308z" />
    <glyph glyph-name="Uogonek" unicode="&#x172;" horiz-adv-x="1549" 
d="M788 -21c353 0 547 164 547 492v485h171v196h-577v-196h176v-487c0 -178 -95 -272 -278 -272c-174 0 -265 95 -265 271v488h191v196h-708v-196h170v-481c0 -318 185 -496 573 -496zM876 -399c51 0 98 11 161 40v134c-27 -8 -51 -11 -73 -11c-79 0 -120 43 -120 109
c0 32 12 82 53 137h-114c-67 -77 -96 -157 -96 -225c0 -105 71 -184 189 -184z" />
    <glyph glyph-name="uogonek" unicode="&#x173;" 
d="M435 -21c126 0 217 42 298 108l1 -87h423v196h-124v608h-426v-196h126v-340c-48 -42 -117 -73 -178 -73c-70 0 -122 41 -122 151v458h-413v-196h113v-321c0 -163 74 -308 302 -308zM976 -399c51 0 98 11 161 40v134c-27 -8 -51 -11 -73 -11c-79 0 -120 43 -120 109
c0 32 12 82 53 137h-114c-67 -77 -96 -157 -96 -225c0 -105 71 -184 189 -184z" />
    <glyph glyph-name="Wcircumflex" unicode="&#x174;" horiz-adv-x="1989" 
d="M201 956l334 -956h184l280 637l283 -637h194l312 956h146v196h-508v-196h150l-167 -524l-295 694h-102l-309 -694l-158 524h131v196h-621v-196h146zM743 1273h180l139 250l138 -250h181l-105 358h-429z" />
    <glyph glyph-name="wcircumflex" unicode="&#x175;" horiz-adv-x="1488" 
d="M144 608l219 -608h264l145 396l153 -396h221l206 608h101v196h-347v-196h84l-126 -366l-135 366h79v196h-407v-196h83l-135 -365l-121 365h74v196h-466v-196h108zM481 925h180l139 250l138 -250h181l-105 358h-429z" />
    <glyph glyph-name="Ycircumflex" unicode="&#x176;" horiz-adv-x="1414" 
d="M376 1271h180l139 250l138 -250h181l-105 358h-429zM338 196v-196h720v196h-187v269l359 491h165v196h-570v-196h125l-212 -315l-222 315h127v196h-657v-196h160l377 -494v-266h-185z" />
    <glyph glyph-name="ycircumflex" unicode="&#x177;" horiz-adv-x="1174" 
d="M208 -136v-221h126c195 0 256 66 351 256l358 709h119v196h-526v-196h112l-151 -331l-170 331h106v196h-521v-196h136l286 -537h79l-48 -99c-48 -101 -97 -108 -153 -108h-104zM267 925h180l139 250l138 -250h181l-105 358h-429z" />
    <glyph glyph-name="Ydieresis" unicode="&#x178;" horiz-adv-x="1414" 
d="M449 1251c102 0 164 73 163 157c0 100 -73 156 -163 156c-89 0 -164 -67 -163 -156c0 -88 75 -157 163 -157zM956 1251c102 0 164 73 163 157c0 100 -73 156 -163 156c-89 0 -164 -67 -163 -156c0 -88 75 -157 163 -157zM338 196v-196h720v196h-187v269l359 491h165v196
h-570v-196h125l-212 -315l-222 315h127v196h-657v-196h160l377 -494v-266h-185z" />
    <glyph glyph-name="Zacute" unicode="&#x179;" horiz-adv-x="1266" 
d="M72 0h1117v566h-222v-369h-466l666 762v193h-1099v-528h226v332h417l-639 -746v-210zM560 1284h177l207 356h-289z" />
    <glyph glyph-name="zacute" unicode="&#x17a;" horiz-adv-x="985" 
d="M84 177v-177h848v348h-203v-177h-291l458 447v186h-811v-329h202v155h250zM437 936h177l207 356h-289z" />
    <glyph glyph-name="Zdotaccent" unicode="&#x17b;" horiz-adv-x="1266" 
d="M646 1316c109 0 182 69 181 173c0 102 -72 172 -181 172c-107 0 -180 -70 -180 -172c0 -104 73 -173 180 -173zM72 0h1117v566h-222v-369h-466l666 762v193h-1099v-528h226v332h417l-639 -746v-210z" />
    <glyph glyph-name="zdotaccent" unicode="&#x17c;" horiz-adv-x="985" 
d="M497 968c109 0 182 69 181 173c0 102 -72 172 -181 172c-107 0 -180 -70 -180 -172c0 -104 73 -173 180 -173zM84 177v-177h848v348h-203v-177h-291l458 447v186h-811v-329h202v155h250z" />
    <glyph glyph-name="Zcaron" unicode="&#x17d;" horiz-adv-x="1266" 
d="M72 0h1117v566h-222v-369h-466l666 762v193h-1099v-528h226v332h417l-639 -746v-210zM480 1273h328l143 354h-187l-120 -224l-121 224h-202z" />
    <glyph glyph-name="zcaron" unicode="&#x17e;" horiz-adv-x="985" 
d="M84 177v-177h848v348h-203v-177h-291l458 447v186h-811v-329h202v155h250zM331 925h328l143 354h-187l-120 -224l-121 224h-202z" />
    <glyph glyph-name="longs" unicode="&#x17f;" horiz-adv-x="2048" 
 />
    <glyph glyph-name="uni018F" unicode="&#x18f;" horiz-adv-x="600" 
 />
    <glyph glyph-name="florin" unicode="&#x192;" horiz-adv-x="1143" 
d="M184 -347c203 0 338 88 396 383l124 633h209l21 114h-210l32 165c24 130 44 192 96 192c45 0 68 -65 68 -171c145 0 188 58 188 133c0 74 -79 131 -248 131c-209 0 -314 -108 -352 -296l-31 -154h-161l-20 -114h161l-121 -632c-40 -208 -74 -282 -156 -282
c-40 0 -92 13 -120 23l-25 -103c37 -12 97 -22 149 -22z" />
    <glyph glyph-name="uni01C4" unicode="&#x1c4;" horiz-adv-x="2783" 
d="M48 1152v-196h168v-760h-168v-196h736c436 0 654 225 654 581c0 318 -216 571 -654 571h-736zM564 196v760h217c194 0 285 -160 285 -376c0 -236 -90 -384 -286 -384h-216zM1589 0h1117v566h-222v-369h-466l666 762v193h-1099v-528h226v332h417l-639 -746v-210z
M1997 1273h328l143 354h-187l-120 -224l-121 224h-202z" />
    <glyph glyph-name="uni01C5" unicode="&#x1c5;" horiz-adv-x="2501" 
d="M48 1152v-196h168v-760h-168v-196h736c436 0 654 225 654 581c0 318 -216 571 -654 571h-736zM564 196v760h217c194 0 285 -160 285 -376c0 -236 -90 -384 -286 -384h-216zM1601 177v-177h848v348h-203v-177h-291l458 447v186h-811v-329h202v155h250zM1847 925h328
l143 354h-187l-120 -224l-121 224h-202z" />
    <glyph glyph-name="uni01C6" unicode="&#x1c6;" horiz-adv-x="2119" 
d="M991 196v978h-447v-196h146v-232c-73 49 -155 80 -236 80c-239 0 -408 -170 -408 -438c0 -250 184 -410 444 -410c75 0 141 21 200 57v-35h399v196h-98zM362 402c0 151 86 224 212 224c37 0 76 -8 116 -23v-400c-47 -17 -93 -25 -131 -25c-116 0 -197 85 -197 224z
M1218 177v-177h848v348h-203v-177h-291l458 447v186h-811v-329h202v155h250zM1465 925h328l143 354h-187l-120 -224l-121 224h-202z" />
    <glyph glyph-name="uni01C7" unicode="&#x1c7;" horiz-adv-x="2100" 
d="M937 559v-363h-374v760h167v196h-682v-196h167v-760h-167v-196h1167v559h-278zM1310 -58v-258h188c330 0 387 203 387 492v780h182v196h-727v-196h200v-817c0 -95 -22 -197 -130 -197h-100z" />
    <glyph glyph-name="uni01C8" unicode="&#x1c8;" horiz-adv-x="1895" 
d="M937 559v-363h-374v760h167v196h-682v-196h167v-760h-167v-196h1167v559h-278zM1621 968c109 0 182 69 181 173c0 102 -72 172 -181 172c-107 0 -180 -70 -180 -172c0 -104 73 -173 180 -173zM1266 -118v-227h107c490 0 438 328 438 538v611h-464v-196h154v-548
c0 -157 -53 -178 -164 -178h-71z" />
    <glyph glyph-name="uni01C9" unicode="&#x1c9;" horiz-adv-x="1269" 
d="M52 196v-196h556v196h-121v978h-434v-196h134v-782h-135zM995 968c109 0 182 69 181 173c0 102 -72 172 -181 172c-107 0 -180 -70 -180 -172c0 -104 73 -173 180 -173zM640 -118v-227h107c490 0 438 328 438 538v611h-464v-196h154v-548c0 -157 -53 -178 -164 -178h-71z
" />
    <glyph glyph-name="uni01CA" unicode="&#x1ca;" horiz-adv-x="2474" 
d="M48 196v-196h582v196h-172v629l680 -825h287v956h190v196h-589v-196h168v-493l-590 689h-556v-196h182v-760h-182zM1685 -58v-258h188c330 0 387 203 387 492v780h182v196h-727v-196h200v-817c0 -95 -22 -197 -130 -197h-100z" />
    <glyph glyph-name="uni01CB" unicode="&#x1cb;" horiz-adv-x="2270" 
d="M48 196v-196h582v196h-172v629l680 -825h287v956h190v196h-589v-196h168v-493l-590 689h-556v-196h182v-760h-182zM1996 968c109 0 182 69 181 173c0 102 -72 172 -181 172c-107 0 -180 -70 -180 -172c0 -104 73 -173 180 -173zM1641 -118v-227h107
c490 0 438 328 438 538v611h-464v-196h154v-548c0 -157 -53 -178 -164 -178h-71z" />
    <glyph glyph-name="uni01CC" unicode="&#x1cc;" horiz-adv-x="1841" 
d="M1072 196v300c2 226 -124 330 -282 330c-116 0 -220 -45 -321 -134v112h-417v-196h117v-412h-124v-196h533v196h-109v352c58 39 117 58 179 57c73 0 124 -45 124 -150v-259h-101v-196h537v196h-136zM1567 968c109 0 182 69 181 173c0 102 -72 172 -181 172
c-107 0 -180 -70 -180 -172c0 -104 73 -173 180 -173zM1212 -118v-227h107c490 0 438 328 438 538v611h-464v-196h154v-548c0 -157 -53 -178 -164 -178h-71z" />
    <glyph glyph-name="uni01CD" unicode="&#x1cd;" horiz-adv-x="1591" 
d="M606 1273h328l143 354h-187l-120 -224l-121 224h-202zM49 196v-196h589v196h-166l77 220h378l74 -220h-178v-196h720v196h-153l-306 760h140v196h-866v-196h150l-306 -760h-153zM878 569h-283l138 373h14z" />
    <glyph glyph-name="uni01CE" unicode="&#x1ce;" horiz-adv-x="1001" 
d="M284 925h328l143 354h-187l-120 -224l-121 224h-202zM345 -21c92 0 182 27 257 78l24 -57h350v198h-115v311c0 217 -182 315 -402 315c-132 0 -273 -30 -395 -99l75 -178c122 54 217 74 288 74c87 0 134 -41 134 -128v-33c-41 10 -93 16 -146 16
c-166 0 -358 -59 -358 -241c0 -167 131 -256 288 -256zM430 140c-58 0 -100 36 -100 91c0 82 60 108 126 108c40 0 78 -7 105 -17v-135c-41 -31 -90 -47 -131 -47z" />
    <glyph glyph-name="uni01CF" unicode="&#x1cf;" horiz-adv-x="791" 
d="M224 1271h328l143 354h-187l-120 -224l-121 224h-202zM55 196v-196h681v196h-167v760h167v196h-681v-196h167v-760h-167z" />
    <glyph glyph-name="uni01D0" unicode="&#x1d0;" horiz-adv-x="812" 
d="M146 0h533v196h-109v608h-417v-196h117v-412h-124v-196zM223 923h328l143 354h-187l-120 -224l-121 224h-202z" />
    <glyph glyph-name="uni01D1" unicode="&#x1d1;" horiz-adv-x="1532" 
d="M766 -22c405 -5 682 236 682 593c0 359 -277 603 -683 603c-405 0 -681 -244 -681 -602s276 -599 682 -594zM765 210c-198 0 -333 152 -333 369c0 221 135 366 334 363c198 3 333 -142 333 -363c0 -217 -135 -369 -334 -369zM591 1271h328l143 354h-187l-120 -224
l-121 224h-202z" />
    <glyph glyph-name="uni01D2" unicode="&#x1d2;" horiz-adv-x="1039" 
d="M519 -22c284 0 476 175 476 436c0 246 -192 412 -475 412c-284 0 -476 -166 -476 -412c0 -261 192 -436 475 -436zM519 178c-101 -2 -169 93 -169 235c0 127 68 213 169 213s170 -86 170 -213c0 -142 -69 -237 -170 -235zM338 943h328l143 354h-187l-120 -224l-121 224
h-202z" />
    <glyph glyph-name="uni01D3" unicode="&#x1d3;" horiz-adv-x="1549" 
d="M788 -21c353 0 547 164 547 492v485h171v196h-577v-196h176v-487c0 -178 -95 -272 -278 -272c-174 0 -265 95 -265 271v488h191v196h-708v-196h170v-481c0 -318 185 -496 573 -496zM664 1273h328l143 354h-187l-120 -224l-121 224h-202z" />
    <glyph glyph-name="uni01D4" unicode="&#x1d4;" 
d="M435 -21c126 0 217 42 298 108l1 -87h423v196h-124v608h-426v-196h126v-340c-48 -42 -117 -73 -178 -73c-70 0 -122 41 -122 151v458h-413v-196h113v-321c0 -163 74 -308 302 -308zM380 925h328l143 354h-187l-120 -224l-121 224h-202z" />
    <glyph glyph-name="uni01E2" unicode="&#x1e2;" horiz-adv-x="1962" 
d="M969 1317h521v138h-521v-138zM22 0h585v196h-97l114 217h321v-217h-139v-196h1098v379h-190v-183h-419v328h192v-137h126v402h-126v-148h-193v315h418v-176h190v372h-1394v-196h118l-442 -760h-162v-196zM690 544l231 412h24v-412h-255z" />
    <glyph glyph-name="uni01E3" unicode="&#x1e3;" horiz-adv-x="1484" 
d="M480 969h521v138h-521v-138zM414 -22c104 0 180 21 302 101c83 -64 198 -100 340 -100c146 0 284 49 368 122l-80 156c-78 -50 -167 -77 -249 -77c-113 0 -202 56 -209 178h542c0 290 -149 468 -403 468c-112 0 -211 -28 -279 -79c-68 51 -169 77 -275 77
c-134 0 -275 -31 -397 -99l76 -178c121 54 216 74 289 74c87 0 135 -41 135 -128v-34c-41 10 -94 17 -147 17c-165 0 -358 -59 -358 -241c0 -227 221 -257 345 -257zM457 138c-60 0 -115 27 -115 92c0 82 59 109 125 109c43 0 92 -9 111 -11c7 -46 23 -99 43 -136
c-41 -27 -98 -54 -164 -54zM888 500c15 97 70 157 148 157c87 0 135 -60 135 -157h-283z" />
    <glyph glyph-name="Gcaron" unicode="&#x1e6;" horiz-adv-x="1509" 
d="M782 -21c402 0 610 186 615 623h-541v-193h228c-11 -128 -110 -197 -294 -198c-187 0 -348 124 -348 365c0 238 132 366 352 366c148 0 271 -64 346 -214h224v434h-238v-141c-35 75 -206 153 -358 153c-391 0 -675 -239 -675 -598c0 -369 243 -597 689 -597zM630 1273
h328l143 354h-187l-120 -224l-121 224h-202z" />
    <glyph glyph-name="gcaron" unicode="&#x1e7;" horiz-adv-x="1131" 
d="M481 -399c266 0 491 95 491 454v556h115v193h-353l-29 -65c-76 52 -161 85 -247 85c-238 0 -407 -166 -407 -429c0 -245 184 -402 443 -402c62 0 119 14 170 40c-1 -5 -1 -28 -1 -32c-7 -140 -66 -191 -185 -191c-87 0 -166 13 -276 47l-48 -200c104 -32 204 -56 327 -56
zM563 189c-115 0 -196 83 -196 220c0 148 86 220 212 220c26 0 55 -6 83 -17l2 -405c-35 -12 -70 -18 -101 -18zM392 925h328l143 354h-187l-120 -224l-121 224h-202z" />
    <glyph glyph-name="uni01E8" unicode="&#x1e8;" horiz-adv-x="1540" 
d="M1375 196l-443 441l376 319h179v196h-645v-196h158l-437 -346v346h167v196h-682v-196h167v-760h-167v-196h682v196h-167v383l373 -383h-104v-196h668v196h-125zM628 1273h328l143 354h-187l-120 -224l-121 224h-202z" />
    <glyph glyph-name="uni01E9" unicode="&#x1e9;" horiz-adv-x="1199" 
d="M1011 197l-237 242l229 171h122v194h-517v-194h146l-274 -188v752h-434v-196h133v-782h-134v-196h556v196h-121v200l358 -396h320v197h-147zM674 1112h328l143 354h-187l-120 -224l-121 224h-202z" />
    <glyph glyph-name="uni01EA" unicode="&#x1ea;" horiz-adv-x="1532" 
d="M766 -22c405 -5 682 236 682 593c0 359 -277 603 -683 603c-405 0 -681 -244 -681 -602s276 -599 682 -594zM765 210c-198 0 -333 152 -333 369c0 221 135 366 334 363c198 3 333 -142 333 -363c0 -217 -135 -369 -334 -369zM865 -399c51 0 98 11 161 40v134
c-27 -8 -51 -11 -73 -11c-79 0 -120 43 -120 109c0 32 12 82 53 137h-114c-67 -77 -96 -157 -96 -225c0 -105 71 -184 189 -184z" />
    <glyph glyph-name="uni01EB" unicode="&#x1eb;" horiz-adv-x="1039" 
d="M519 -22c284 0 476 175 476 436c0 246 -192 412 -475 412c-284 0 -476 -166 -476 -412c0 -261 192 -436 475 -436zM519 178c-101 -2 -169 93 -169 235c0 127 68 213 169 213s170 -86 170 -213c0 -142 -69 -237 -170 -235zM586 -399c51 0 98 11 161 40v134
c-27 -8 -51 -11 -73 -11c-79 0 -120 43 -120 109c0 32 12 82 53 137h-114c-67 -77 -96 -157 -96 -225c0 -105 71 -184 189 -184z" />
    <glyph glyph-name="uni01F0" unicode="&#x1f0;" horiz-adv-x="617" 
d="M-12 -345h107c490 0 438 328 438 538v611h-464v-196h154v-548c0 -157 -53 -178 -164 -178h-71v-227zM177 925h328l143 354h-187l-120 -224l-121 224h-202z" />
    <glyph glyph-name="uni01F1" unicode="&#x1f1;" horiz-adv-x="2783" 
d="M48 1152v-196h168v-760h-168v-196h736c436 0 654 225 654 581c0 318 -216 571 -654 571h-736zM564 196v760h217c194 0 285 -160 285 -376c0 -236 -90 -384 -286 -384h-216zM1589 0h1117v566h-222v-369h-466l666 762v193h-1099v-528h226v332h417l-639 -746v-210z" />
    <glyph glyph-name="uni01F2" unicode="&#x1f2;" horiz-adv-x="2501" 
d="M48 1152v-196h168v-760h-168v-196h736c436 0 654 225 654 581c0 318 -216 571 -654 571h-736zM564 196v760h217c194 0 285 -160 285 -376c0 -236 -90 -384 -286 -384h-216zM1601 177v-177h848v348h-203v-177h-291l458 447v186h-811v-329h202v155h250z" />
    <glyph glyph-name="uni01F3" unicode="&#x1f3;" horiz-adv-x="2119" 
d="M991 196v978h-447v-196h146v-232c-73 49 -155 80 -236 80c-239 0 -408 -170 -408 -438c0 -250 184 -410 444 -410c75 0 141 21 200 57v-35h399v196h-98zM362 402c0 151 86 224 212 224c37 0 76 -8 116 -23v-400c-47 -17 -93 -25 -131 -25c-116 0 -197 85 -197 224z
M1218 177v-177h848v348h-203v-177h-291l458 447v186h-811v-329h202v155h250z" />
    <glyph glyph-name="uni01F4" unicode="&#x1f4;" horiz-adv-x="1509" 
d="M782 -21c402 0 610 186 615 623h-541v-193h228c-11 -128 -110 -197 -294 -198c-187 0 -348 124 -348 365c0 238 132 366 352 366c148 0 271 -64 346 -214h224v434h-238v-141c-35 75 -206 153 -358 153c-391 0 -675 -239 -675 -598c0 -369 243 -597 689 -597zM709 1284
h177l207 356h-289z" />
    <glyph glyph-name="uni01F5" unicode="&#x1f5;" horiz-adv-x="1131" 
d="M481 -399c266 0 491 95 491 454v556h115v193h-353l-29 -65c-76 52 -161 85 -247 85c-238 0 -407 -166 -407 -429c0 -245 184 -402 443 -402c62 0 119 14 170 40c-1 -5 -1 -28 -1 -32c-7 -140 -66 -191 -185 -191c-87 0 -166 13 -276 47l-48 -200c104 -32 204 -56 327 -56
zM563 189c-115 0 -196 83 -196 220c0 148 86 220 212 220c26 0 55 -6 83 -17l2 -405c-35 -12 -70 -18 -101 -18zM498 936h177l207 356h-289z" />
    <glyph glyph-name="uni01F8" unicode="&#x1f8;" horiz-adv-x="1653" 
d="M48 196v-196h582v196h-172v629l680 -825h287v956h190v196h-589v-196h168v-493l-590 689h-556v-196h182v-760h-182zM761 1284h177l-95 356h-289z" />
    <glyph glyph-name="uni01F9" unicode="&#x1f9;" horiz-adv-x="1224" 
d="M1072 196v300c2 226 -124 330 -282 330c-116 0 -220 -45 -321 -134v112h-417v-196h117v-412h-124v-196h533v196h-109v352c58 39 117 58 179 57c73 0 124 -45 124 -150v-259h-101v-196h537v196h-136zM538 936h177l-95 356h-289z" />
    <glyph glyph-name="Aringacute" unicode="&#x1fa;" horiz-adv-x="1591" 
d="M776 1356c-58 0 -91 37 -91 93s33 93 91 93s91 -37 91 -93s-33 -93 -91 -93zM776 1262c122 2 195 75 195 187s-72 185 -195 186c-122 -1 -195 -74 -195 -186s73 -185 195 -187zM687 1708h177l207 356h-289zM49 196v-196h589v196h-166l77 220h378l74 -220h-178v-196h720
v196h-153l-306 760h140v196h-866v-196h150l-306 -760h-153zM878 569h-283l138 373h14z" />
    <glyph glyph-name="aringacute" unicode="&#x1fb;" horiz-adv-x="1001" 
d="M453 1008c-58 0 -91 37 -91 93s33 93 91 93s91 -37 91 -93s-33 -93 -91 -93zM453 914c122 2 195 75 195 187s-72 185 -195 186c-122 -1 -195 -74 -195 -186s73 -185 195 -187zM365 1360h177l207 356h-289zM345 -21c92 0 182 27 257 78l24 -57h350v198h-115v311
c0 217 -182 315 -402 315c-132 0 -273 -30 -395 -99l75 -178c122 54 217 74 288 74c87 0 134 -41 134 -128v-33c-41 10 -93 16 -146 16c-166 0 -358 -59 -358 -241c0 -167 131 -256 288 -256zM430 140c-58 0 -100 36 -100 91c0 82 60 108 126 108c40 0 78 -7 105 -17v-135
c-41 -31 -90 -47 -131 -47z" />
    <glyph glyph-name="AEacute" unicode="&#x1fc;" horiz-adv-x="1962" 
d="M22 0h585v196h-97l114 217h321v-217h-139v-196h1098v379h-190v-183h-419v328h192v-137h126v402h-126v-148h-193v315h418v-176h190v372h-1394v-196h118l-442 -760h-162v-196zM690 544l231 412h24v-412h-255zM1149 1284h177l207 356h-289z" />
    <glyph glyph-name="aeacute" unicode="&#x1fd;" horiz-adv-x="1484" 
d="M414 -22c104 0 180 21 302 101c83 -64 198 -100 340 -100c146 0 284 49 368 122l-80 156c-78 -50 -167 -77 -249 -77c-113 0 -202 56 -209 178h542c0 290 -149 468 -403 468c-112 0 -211 -28 -279 -79c-68 51 -169 77 -275 77c-134 0 -275 -31 -397 -99l76 -178
c121 54 216 74 289 74c87 0 135 -41 135 -128v-34c-41 10 -94 17 -147 17c-165 0 -358 -59 -358 -241c0 -227 221 -257 345 -257zM457 138c-60 0 -115 27 -115 92c0 82 59 109 125 109c43 0 92 -9 111 -11c7 -46 23 -99 43 -136c-41 -27 -98 -54 -164 -54zM888 500
c15 97 70 157 148 157c87 0 135 -60 135 -157h-283zM688 936h177l207 356h-289z" />
    <glyph glyph-name="Oslashacute" unicode="&#x1fe;" horiz-adv-x="1557" 
d="M671 1282h177l207 356h-289zM368 -101l963 1258l-132 95l-963 -1258zM766 -22c405 -5 682 236 682 593c0 359 -277 603 -683 603c-405 0 -681 -244 -681 -602s276 -599 682 -594zM765 210c-198 0 -333 152 -333 369c0 221 135 366 334 363c198 3 333 -142 333 -363
c0 -217 -135 -369 -334 -369z" />
    <glyph glyph-name="oslashacute" unicode="&#x1ff;" horiz-adv-x="1042" 
d="M444 954h177l207 356h-289zM315 -119l517 1009l-94 43l-517 -1009zM519 -22c284 0 476 175 476 436c0 246 -192 412 -475 412c-284 0 -476 -166 -476 -412c0 -261 192 -436 475 -436zM519 178c-101 -2 -169 93 -169 235c0 127 68 213 169 213s170 -86 170 -213
c0 -142 -69 -237 -170 -235z" />
    <glyph glyph-name="uni0200" unicode="&#x200;" horiz-adv-x="1591" 
d="M474 1284h177l-95 356h-289zM874 1284h177l-95 356h-289zM49 196v-196h589v196h-166l77 220h378l74 -220h-178v-196h720v196h-153l-306 760h140v196h-866v-196h150l-306 -760h-153zM878 569h-283l138 373h14z" />
    <glyph glyph-name="uni0201" unicode="&#x201;" horiz-adv-x="1001" 
d="M151 936h177l-95 356h-289zM551 936h177l-95 356h-289zM345 -21c92 0 182 27 257 78l24 -57h350v198h-115v311c0 217 -182 315 -402 315c-132 0 -273 -30 -395 -99l75 -178c122 54 217 74 288 74c87 0 134 -41 134 -128v-33c-41 10 -93 16 -146 16
c-166 0 -358 -59 -358 -241c0 -167 131 -256 288 -256zM430 140c-58 0 -100 36 -100 91c0 82 60 108 126 108c40 0 78 -7 105 -17v-135c-41 -31 -90 -47 -131 -47z" />
    <glyph glyph-name="uni0202" unicode="&#x202;" horiz-adv-x="1591" 
d="M446 1247h188c12 83 58 127 134 127c74 0 119 -44 127 -127h199c-18 206 -133 319 -329 319s-309 -113 -319 -319zM49 196v-196h589v196h-166l77 220h378l74 -220h-178v-196h720v196h-153l-306 760h140v196h-866v-196h150l-306 -760h-153zM878 569h-283l138 373h14z" />
    <glyph glyph-name="uni0203" unicode="&#x203;" horiz-adv-x="1001" 
d="M124 899h188c12 83 58 127 134 127c74 0 119 -44 127 -127h199c-18 206 -133 319 -329 319s-309 -113 -319 -319zM345 -21c92 0 182 27 257 78l24 -57h350v198h-115v311c0 217 -182 315 -402 315c-132 0 -273 -30 -395 -99l75 -178c122 54 217 74 288 74
c87 0 134 -41 134 -128v-33c-41 10 -93 16 -146 16c-166 0 -358 -59 -358 -241c0 -167 131 -256 288 -256zM430 140c-58 0 -100 36 -100 91c0 82 60 108 126 108c40 0 78 -7 105 -17v-135c-41 -31 -90 -47 -131 -47z" />
    <glyph glyph-name="uni0204" unicode="&#x204;" horiz-adv-x="1273" 
d="M959 416v-219h-396v308h200v-106h104v420h-106v-120h-198v254l394 3v-183h244v379h-1153v-196h167v-760h-167v-196h1160v416h-249zM372 1284h177l-95 356h-289zM772 1284h177l-95 356h-289z" />
    <glyph glyph-name="uni0205" unicode="&#x205;" horiz-adv-x="950" 
d="M524 -21c145 0 284 49 370 122l-80 156c-74 -46 -163 -77 -251 -77c-111 0 -202 56 -209 178h544c0 290 -154 469 -405 469c-280 0 -451 -164 -451 -432c0 -258 183 -416 482 -416zM356 500c16 97 73 157 148 157c85 0 137 -60 137 -157h-285zM185 936h177l-95 356h-289z
M585 936h177l-95 356h-289z" />
    <glyph glyph-name="uni0206" unicode="&#x206;" horiz-adv-x="1273" 
d="M959 416v-219h-396v308h200v-106h104v420h-106v-120h-198v254l394 3v-183h244v379h-1153v-196h167v-760h-167v-196h1160v416h-249zM345 1247h188c12 83 58 127 134 127c74 0 119 -44 127 -127h199c-18 206 -133 319 -329 319s-309 -113 -319 -319z" />
    <glyph glyph-name="uni0207" unicode="&#x207;" horiz-adv-x="950" 
d="M524 -21c145 0 284 49 370 122l-80 156c-74 -46 -163 -77 -251 -77c-111 0 -202 56 -209 178h544c0 290 -154 469 -405 469c-280 0 -451 -164 -451 -432c0 -258 183 -416 482 -416zM356 500c16 97 73 157 148 157c85 0 137 -60 137 -157h-285zM158 899h188
c12 83 58 127 134 127c74 0 119 -44 127 -127h199c-18 206 -133 319 -329 319s-309 -113 -319 -319z" />
    <glyph glyph-name="uni0208" unicode="&#x208;" horiz-adv-x="791" 
d="M91 1282h177l-95 356h-289zM491 1282h177l-95 356h-289zM55 196v-196h681v196h-167v760h167v196h-681v-196h167v-760h-167z" />
    <glyph glyph-name="uni0209" unicode="&#x209;" horiz-adv-x="812" 
d="M146 0h533v196h-109v608h-417v-196h117v-412h-124v-196zM90 934h177l-95 356h-289zM490 934h177l-95 356h-289z" />
    <glyph glyph-name="uni020A" unicode="&#x20a;" horiz-adv-x="791" 
d="M63 1245h188c12 83 58 127 134 127c74 0 119 -44 127 -127h199c-18 206 -133 319 -329 319s-309 -113 -319 -319zM55 196v-196h681v196h-167v760h167v196h-681v-196h167v-760h-167z" />
    <glyph glyph-name="uni020B" unicode="&#x20b;" horiz-adv-x="812" 
d="M146 0h533v196h-109v608h-417v-196h117v-412h-124v-196zM62 897h188c12 83 58 127 134 127c74 0 119 -44 127 -127h199c-18 206 -133 319 -329 319s-309 -113 -319 -319z" />
    <glyph glyph-name="uni020C" unicode="&#x20c;" horiz-adv-x="1532" 
d="M766 -22c405 -5 682 236 682 593c0 359 -277 603 -683 603c-405 0 -681 -244 -681 -602s276 -599 682 -594zM765 210c-198 0 -333 152 -333 369c0 221 135 366 334 363c198 3 333 -142 333 -363c0 -217 -135 -369 -334 -369zM459 1282h177l-95 356h-289zM859 1282h177
l-95 356h-289z" />
    <glyph glyph-name="uni020D" unicode="&#x20d;" horiz-adv-x="1039" 
d="M519 -22c284 0 476 175 476 436c0 246 -192 412 -475 412c-284 0 -476 -166 -476 -412c0 -261 192 -436 475 -436zM519 178c-101 -2 -169 93 -169 235c0 127 68 213 169 213s170 -86 170 -213c0 -142 -69 -237 -170 -235zM205 954h177l-95 356h-289zM605 954h177l-95 356
h-289z" />
    <glyph glyph-name="uni020E" unicode="&#x20e;" horiz-adv-x="1532" 
d="M766 -22c405 -5 682 236 682 593c0 359 -277 603 -683 603c-405 0 -681 -244 -681 -602s276 -599 682 -594zM765 210c-198 0 -333 152 -333 369c0 221 135 366 334 363c198 3 333 -142 333 -363c0 -217 -135 -369 -334 -369zM431 1245h188c12 83 58 127 134 127
c74 0 119 -44 127 -127h199c-18 206 -133 319 -329 319s-309 -113 -319 -319z" />
    <glyph glyph-name="uni020F" unicode="&#x20f;" horiz-adv-x="1039" 
d="M519 -22c284 0 476 175 476 436c0 246 -192 412 -475 412c-284 0 -476 -166 -476 -412c0 -261 192 -436 475 -436zM519 178c-101 -2 -169 93 -169 235c0 127 68 213 169 213s170 -86 170 -213c0 -142 -69 -237 -170 -235zM177 917h188c12 83 58 127 134 127
c74 0 119 -44 127 -127h199c-18 206 -133 319 -329 319s-309 -113 -319 -319z" />
    <glyph glyph-name="uni0210" unicode="&#x210;" horiz-adv-x="1464" 
d="M1246 197l-189 329c114 30 252 92 252 313c0 258 -200 313 -468 313h-793v-196h167v-760h-167v-196h682v196h-167v760h236c113 0 165 -57 165 -132c0 -84 -43 -145 -183 -145h-142v-186h87l266 -493h420v197h-166zM297 1284h177l-95 356h-289zM697 1284h177l-95 356h-289
z" />
    <glyph glyph-name="uni0211" unicode="&#x211;" horiz-adv-x="860" 
d="M471 640v164h-417v-196h117v-412h-124v-196h532v196h-108v238c0 97 82 134 157 134c59 0 124 -21 161 -43l64 249c-50 20 -101 40 -160 40c-76 0 -160 -40 -222 -174zM159 936h177l-95 356h-289zM559 936h177l-95 356h-289z" />
    <glyph glyph-name="uni0212" unicode="&#x212;" horiz-adv-x="1464" 
d="M1246 197l-189 329c114 30 252 92 252 313c0 258 -200 313 -468 313h-793v-196h167v-760h-167v-196h682v196h-167v760h236c113 0 165 -57 165 -132c0 -84 -43 -145 -183 -145h-142v-186h87l266 -493h420v197h-166zM269 1247h188c12 83 58 127 134 127
c74 0 119 -44 127 -127h199c-18 206 -133 319 -329 319s-309 -113 -319 -319z" />
    <glyph glyph-name="uni0213" unicode="&#x213;" horiz-adv-x="860" 
d="M471 640v164h-417v-196h117v-412h-124v-196h532v196h-108v238c0 97 82 134 157 134c59 0 124 -21 161 -43l64 249c-50 20 -101 40 -160 40c-76 0 -160 -40 -222 -174zM131 899h188c12 83 58 127 134 127c74 0 119 -44 127 -127h199c-18 206 -133 319 -329 319
s-309 -113 -319 -319z" />
    <glyph glyph-name="uni0214" unicode="&#x214;" horiz-adv-x="1549" 
d="M788 -21c353 0 547 164 547 492v485h171v196h-577v-196h176v-487c0 -178 -95 -272 -278 -272c-174 0 -265 95 -265 271v488h191v196h-708v-196h170v-481c0 -318 185 -496 573 -496zM532 1284h177l-95 356h-289zM932 1284h177l-95 356h-289z" />
    <glyph glyph-name="uni0215" unicode="&#x215;" 
d="M435 -21c126 0 217 42 298 108l1 -87h423v196h-124v608h-426v-196h126v-340c-48 -42 -117 -73 -178 -73c-70 0 -122 41 -122 151v458h-413v-196h113v-321c0 -163 74 -308 302 -308zM247 936h177l-95 356h-289zM647 936h177l-95 356h-289z" />
    <glyph glyph-name="uni0216" unicode="&#x216;" horiz-adv-x="1549" 
d="M788 -21c353 0 547 164 547 492v485h171v196h-577v-196h176v-487c0 -178 -95 -272 -278 -272c-174 0 -265 95 -265 271v488h191v196h-708v-196h170v-481c0 -318 185 -496 573 -496zM504 1247h188c12 83 58 127 134 127c74 0 119 -44 127 -127h199
c-18 206 -133 319 -329 319s-309 -113 -319 -319z" />
    <glyph glyph-name="uni0217" unicode="&#x217;" 
d="M435 -21c126 0 217 42 298 108l1 -87h423v196h-124v608h-426v-196h126v-340c-48 -42 -117 -73 -178 -73c-70 0 -122 41 -122 151v458h-413v-196h113v-321c0 -163 74 -308 302 -308zM220 899h188c12 83 58 127 134 127c74 0 119 -44 127 -127h199
c-18 206 -133 319 -329 319s-309 -113 -319 -319z" />
    <glyph glyph-name="uni0218" unicode="&#x218;" horiz-adv-x="1150" 
d="M487 -658c251 1 324 63 324 308c0 75 -6 185 -13 242h-318l4 -283h165c0 -110 -54 -153 -162 -163v-104zM645 -21c298 0 428 190 417 390c-10 190 -91 268 -402 360c-177 51 -207 84 -208 149c-1 55 42 97 117 97c106 0 187 -58 211 -84v-84h220v346h-220v-79
c-38 48 -114 100 -256 100c-303 0 -418 -169 -417 -326c1 -199 95 -291 424 -382c155 -42 213 -68 213 -161c0 -86 -69 -123 -151 -123c-106 0 -200 55 -242 95v151h-235v-428h235v78c63 -62 186 -99 294 -99z" />
    <glyph glyph-name="uni0219" unicode="&#x219;" horiz-adv-x="925" 
d="M377 -658c251 1 324 63 324 308c0 75 -6 185 -13 242h-318l4 -283h165c0 -110 -54 -153 -162 -163v-104zM543 -22c139 0 301 52 302 253c2 159 -97 200 -217 238l-122 39c-82 25 -119 39 -119 82c0 40 38 57 94 57c54 0 136 -25 169 -56l15 -84h173v313h-190v-69
c-49 39 -116 76 -238 75c-132 0 -321 -62 -321 -235c0 -126 68 -208 194 -246l173 -55c69 -20 106 -36 106 -80c0 -33 -26 -54 -85 -54c-77 0 -187 38 -218 89l-6 55h-161v-300h180v77c38 -61 170 -99 271 -99z" />
    <glyph glyph-name="uni021A" unicode="&#x21a;" horiz-adv-x="1320" 
d="M16 1152v-487h230v291h247v-760h-167v-196h682v196h-167v760h239v-291h224v487h-1288zM531 -658c251 1 324 63 324 308c0 75 -6 185 -13 242h-318l4 -283h165c0 -110 -54 -153 -162 -163v-104z" />
    <glyph glyph-name="uni021B" unicode="&#x21b;" horiz-adv-x="723" 
d="M402 0h258v196h-154c-53 0 -58 32 -58 64v348h210v196h-210v338l-300 -58v-280h-127v-196h126v-362c0 -167 88 -246 255 -246zM269 -658c251 1 324 63 324 308c0 75 -6 185 -13 242h-318l4 -283h165c0 -110 -54 -153 -162 -163v-104z" />
    <glyph glyph-name="uni021E" unicode="&#x21e;" horiz-adv-x="1585" 
d="M1536 956v196h-681v-196h167v-276h-459v276h167v196h-682v-196h167v-760h-167v-196h682v196h-167v293h459v-293h-167v-196h681v196h-167v760h167zM632 1273h328l143 354h-187l-120 -224l-121 224h-202z" />
    <glyph glyph-name="uni021F" unicode="&#x21f;" horiz-adv-x="1244" 
d="M1092 196v300c2 226 -124 330 -282 330c-120 0 -227 -48 -330 -143v491h-434v-196h133v-782h-134v-196h556v196h-121v346c60 42 123 64 188 63c73 0 124 -45 124 -150v-259h-101v-196h537v196h-136zM452 1260h328l143 354h-187l-120 -224l-121 224h-202z" />
    <glyph glyph-name="uni0226" unicode="&#x226;" horiz-adv-x="1591" 
d="M772 1316c109 0 182 69 181 173c0 102 -72 172 -181 172c-107 0 -180 -70 -180 -172c0 -104 73 -173 180 -173zM49 196v-196h589v196h-166l77 220h378l74 -220h-178v-196h720v196h-153l-306 760h140v196h-866v-196h150l-306 -760h-153zM878 569h-283l138 373h14z" />
    <glyph glyph-name="uni0227" unicode="&#x227;" horiz-adv-x="1001" 
d="M450 968c109 0 182 69 181 173c0 102 -72 172 -181 172c-107 0 -180 -70 -180 -172c0 -104 73 -173 180 -173zM345 -21c92 0 182 27 257 78l24 -57h350v198h-115v311c0 217 -182 315 -402 315c-132 0 -273 -30 -395 -99l75 -178c122 54 217 74 288 74
c87 0 134 -41 134 -128v-33c-41 10 -93 16 -146 16c-166 0 -358 -59 -358 -241c0 -167 131 -256 288 -256zM430 140c-58 0 -100 36 -100 91c0 82 60 108 126 108c40 0 78 -7 105 -17v-135c-41 -31 -90 -47 -131 -47z" />
    <glyph glyph-name="uni0228" unicode="&#x228;" horiz-adv-x="1273" 
d="M602 -417c100 0 190 45 190 153c0 70 -50 134 -154 151l29 117h-110l-71 -181c82 -5 119 -26 119 -69c0 -48 -31 -64 -74 -64c-37 0 -82 13 -122 29v-83c55 -34 127 -53 193 -53zM959 416v-219h-396v308h200v-106h104v420h-106v-120h-198v254l394 3v-183h244v379h-1153
v-196h167v-760h-167v-196h1160v416h-249z" />
    <glyph glyph-name="uni0229" unicode="&#x229;" horiz-adv-x="950" 
d="M484 -417c100 0 190 45 190 153c0 70 -50 134 -154 151l29 117h-110l-71 -181c82 -5 119 -26 119 -69c0 -48 -31 -64 -74 -64c-37 0 -82 13 -122 29v-83c55 -34 127 -53 193 -53zM524 -21c145 0 284 49 370 122l-80 156c-74 -46 -163 -77 -251 -77
c-111 0 -202 56 -209 178h544c0 290 -154 469 -405 469c-280 0 -451 -164 -451 -432c0 -258 183 -416 482 -416zM356 500c16 97 73 157 148 157c85 0 137 -60 137 -157h-285z" />
    <glyph glyph-name="uni022E" unicode="&#x22e;" horiz-adv-x="1532" 
d="M757 1314c109 0 182 69 181 173c0 102 -72 172 -181 172c-107 0 -180 -70 -180 -172c0 -104 73 -173 180 -173zM766 -22c405 -5 682 236 682 593c0 359 -277 603 -683 603c-405 0 -681 -244 -681 -602s276 -599 682 -594zM765 210c-198 0 -333 152 -333 369
c0 221 135 366 334 363c198 3 333 -142 333 -363c0 -217 -135 -369 -334 -369z" />
    <glyph glyph-name="uni022F" unicode="&#x22f;" horiz-adv-x="1039" 
d="M519 -22c284 0 476 175 476 436c0 246 -192 412 -475 412c-284 0 -476 -166 -476 -412c0 -261 192 -436 475 -436zM519 178c-101 -2 -169 93 -169 235c0 127 68 213 169 213s170 -86 170 -213c0 -142 -69 -237 -170 -235zM503 986c109 0 182 69 181 173
c0 102 -72 172 -181 172c-107 0 -180 -70 -180 -172c0 -104 73 -173 180 -173z" />
    <glyph glyph-name="uni0232" unicode="&#x232;" horiz-adv-x="1414" 
d="M431 1315h521v138h-521v-138zM338 196v-196h720v196h-187v269l359 491h165v196h-570v-196h125l-212 -315l-222 315h127v196h-657v-196h160l377 -494v-266h-185z" />
    <glyph glyph-name="uni0233" unicode="&#x233;" horiz-adv-x="1174" 
d="M322 969h521v138h-521v-138zM208 -136v-221h126c195 0 256 66 351 256l358 709h119v196h-526v-196h112l-151 -331l-170 331h106v196h-521v-196h136l286 -537h79l-48 -99c-48 -101 -97 -108 -153 -108h-104z" />
    <glyph glyph-name="uni0237" unicode="&#x237;" horiz-adv-x="617" 
d="M-12 -345h107c490 0 438 328 438 538v611h-464v-196h154v-548c0 -157 -53 -178 -164 -178h-71v-227z" />
    <glyph glyph-name="uni0259" unicode="&#x259;" horiz-adv-x="600" 
 />
    <glyph glyph-name="uni02BC" unicode="&#x2bc;" horiz-adv-x="600" 
d="M8 848c251 1 324 63 324 308c0 75 -6 185 -13 242h-318l4 -283h165c0 -110 -54 -153 -162 -163v-104z" />
    <glyph glyph-name="circumflex" unicode="&#x2c6;" horiz-adv-x="842" 
d="M102 925h180l139 250l138 -250h181l-105 358h-429z" />
    <glyph glyph-name="caron" unicode="&#x2c7;" horiz-adv-x="836" 
d="M254 925h328l143 354h-187l-120 -224l-121 224h-202z" />
    <glyph glyph-name="uni02C9" unicode="&#x2c9;" horiz-adv-x="600" 
d="M48 840h473v181h-473v-181z" />
    <glyph glyph-name="breve" unicode="&#x2d8;" horiz-adv-x="809" 
d="M400 899c193 0 308 111 325 315h-193c-9 -84 -54 -129 -129 -129c-77 0 -123 45 -136 129h-182c10 -204 121 -315 315 -315z" />
    <glyph glyph-name="dotaccent" unicode="&#x2d9;" horiz-adv-x="493" 
d="M248 968c109 0 182 69 181 173c0 102 -72 172 -181 172c-107 0 -180 -70 -180 -172c0 -104 73 -173 180 -173z" />
    <glyph glyph-name="ring" unicode="&#x2da;" horiz-adv-x="577" 
d="M288 1008c-58 0 -91 37 -91 93s33 93 91 93s91 -37 91 -93s-33 -93 -91 -93zM288 914c122 2 195 75 195 187s-72 185 -195 186c-122 -1 -195 -74 -195 -186s73 -185 195 -187z" />
    <glyph glyph-name="ogonek" unicode="&#x2db;" horiz-adv-x="263" 
d="M207 -399c51 0 98 11 161 40v134c-27 -8 -51 -11 -73 -11c-79 0 -120 43 -120 109c0 32 12 82 53 137h-114c-67 -77 -96 -157 -96 -225c0 -105 71 -184 189 -184z" />
    <glyph glyph-name="tilde" unicode="&#x2dc;" horiz-adv-x="928" 
d="M651 901c138 0 181 110 195 285h-138c-9 -54 -30 -71 -58 -71c-83 0 -225 94 -352 94c-109 0 -199 -73 -214 -280h140c7 55 35 67 67 67c105 0 265 -96 360 -95z" />
    <glyph glyph-name="hungarumlaut" unicode="&#x2dd;" horiz-adv-x="1059" 
d="M147 936h177l207 356h-289zM547 936h177l207 356h-289z" />
    <glyph glyph-name="uni0307" unicode="&#x307;" horiz-adv-x="535" 
d="M268 876c102 0 170 66 169 162c0 97 -69 161 -169 161s-169 -65 -169 -161s70 -162 169 -162z" />
    <glyph glyph-name="uni030F" unicode="&#x30f;" horiz-adv-x="787" 
d="M202 936h177l-95 356h-289zM602 936h177l-95 356h-289z" />
    <glyph glyph-name="uni0311" unicode="&#x311;" horiz-adv-x="584" 
d="M-34 908h188c12 83 58 127 134 127c74 0 119 -44 127 -127h199c-18 206 -133 319 -329 319s-309 -113 -319 -319z" />
    <glyph glyph-name="uni0312" unicode="&#x312;" horiz-adv-x="600" 
d="M118 930h328l-3 315h-176c0 110 65 153 172 163v104c-251 -1 -334 -63 -334 -308c0 -75 6 -217 13 -274z" />
    <glyph glyph-name="uni0326" unicode="&#x326;" horiz-adv-x="550" 
d="M126 -658c251 1 324 63 324 308c0 75 -6 185 -13 242h-318l4 -283h165c0 -110 -54 -153 -162 -163v-104z" />
    <glyph glyph-name="uni0358" unicode="&#x358;" horiz-adv-x="547" 
d="M272 968c109 0 182 69 181 173c0 102 -72 172 -181 172c-107 0 -180 -70 -180 -172c0 -104 73 -173 180 -173z" />
    <glyph glyph-name="uni0394" unicode="&#x394;" horiz-adv-x="1209" 
d="M66 0h1076v172l-411 980h-260l-405 -980v-172zM307 201l275 712l260 -712h-535z" />
    <glyph glyph-name="Sigma" unicode="&#x3a3;" horiz-adv-x="1108" 
d="M82 0h945v200h-505l308 361l-335 392h498v199h-894v-144l322 -407l-339 -420v-181z" />
    <glyph glyph-name="uni03A9" unicode="&#x3a9;" horiz-adv-x="1468" 
d="M84 0h588v179c-208 68 -287 268 -287 437c0 207 127 343 349 343c220 0 347 -136 347 -344c0 -168 -77 -368 -286 -436v-179h588v196h-251c177 104 251 268 251 437c0 287 -240 541 -649 541c-408 0 -650 -255 -650 -543c0 -168 76 -331 252 -435h-252v-196z" />
    <glyph glyph-name="uni03BC" unicode="&#x3bc;" 
d="M133 -262h300v680h-300v-680zM435 -21c126 0 217 42 298 108l1 -87h423v196h-124v608h-426v-196h126v-340c-48 -42 -117 -73 -178 -73c-70 0 -122 41 -122 151v458h-413v-196h113v-321c0 -163 74 -308 302 -308z" />
    <glyph glyph-name="pi" unicode="&#x3c0;" horiz-adv-x="1301" 
d="M968 -21c80 0 159 30 191 64v134c-57 -21 -94 -31 -126 -31c-45 0 -76 21 -76 107c0 81 5 185 17 331h180v220h-747c-217 0 -297 -155 -295 -320h135c10 71 54 100 88 100h71l-67 -262c-42 -161 -104 -196 -198 -213v-112h144c184 0 269 88 286 251l35 336h183
c-45 -153 -83 -278 -83 -384c0 -125 61 -221 262 -221z" />
    <glyph glyph-name="uni1E02" unicode="&#x1e02;" horiz-adv-x="1375" 
d="M592 1316c109 0 182 69 181 173c0 102 -72 172 -181 172c-107 0 -180 -70 -180 -172c0 -104 73 -173 180 -173zM47 0h705c432 0 546 167 546 349c0 116 -62 245 -280 281c148 31 220 119 220 255c0 152 -138 267 -443 267h-748v-196h167v-760h-167v-196zM561 197v335h162
c181 0 214 -86 214 -166c0 -92 -48 -169 -215 -169h-161zM561 710v246l155 2c119 -3 168 -38 168 -118c0 -93 -53 -130 -177 -130h-146z" />
    <glyph glyph-name="uni1E03" unicode="&#x1e03;" horiz-adv-x="1181" 
d="M781 968c109 0 182 69 181 173c0 102 -72 172 -181 172c-107 0 -180 -70 -180 -172c0 -104 73 -173 180 -173zM497 751v423h-455v-196h154v-782h-156v-196h457v47c71 -46 149 -68 229 -68c215 0 411 157 411 441c0 239 -150 406 -393 406c-83 0 -167 -27 -247 -75z
M497 179v422c39 17 77 26 114 26c158 0 210 -118 210 -227c0 -153 -99 -241 -230 -241c-30 0 -62 6 -94 20z" />
    <glyph glyph-name="uni1E0A" unicode="&#x1e0a;" horiz-adv-x="1517" 
d="M735 1314c109 0 182 69 181 173c0 102 -72 172 -181 172c-107 0 -180 -70 -180 -172c0 -104 73 -173 180 -173zM48 1152v-196h168v-760h-168v-196h736c436 0 654 225 654 581c0 318 -216 571 -654 571h-736zM564 196v760h217c194 0 285 -160 285 -376
c0 -236 -90 -384 -286 -384h-216z" />
    <glyph glyph-name="uni1E0B" unicode="&#x1e0b;" horiz-adv-x="1134" 
d="M306 968c109 0 182 69 181 173c0 102 -72 172 -181 172c-107 0 -180 -70 -180 -172c0 -104 73 -173 180 -173zM991 196v978h-447v-196h146v-232c-73 49 -155 80 -236 80c-239 0 -408 -170 -408 -438c0 -250 184 -410 444 -410c75 0 141 21 200 57v-35h399v196h-98z
M362 402c0 151 86 224 212 224c37 0 76 -8 116 -23v-400c-47 -17 -93 -25 -131 -25c-116 0 -197 85 -197 224z" />
    <glyph glyph-name="uni1E1E" unicode="&#x1e1e;" horiz-adv-x="1223" 
d="M48 1152v-196h167v-760h-167v-196h682v196h-167v309h210v-105h117v372h-120v-107h-207v291h401v-177h211v373h-1127zM641 1316c109 0 182 69 181 173c0 102 -72 172 -181 172c-107 0 -180 -70 -180 -172c0 -104 73 -173 180 -173z" />
    <glyph glyph-name="uni1E1F" unicode="&#x1e1f;" horiz-adv-x="879" 
d="M67 196v-196h716v196h-233v412h229v196h-229v102c0 134 47 155 90 155c70 0 76 -40 88 -119l219 69c-21 153 -102 232 -351 232c-304 0 -346 -211 -346 -392v-47h-182v-196h182v-412h-183zM450 1352c109 0 182 69 181 173c0 102 -72 172 -181 172
c-107 0 -180 -70 -180 -172c0 -104 73 -173 180 -173z" />
    <glyph glyph-name="uni1E40" unicode="&#x1e40;" horiz-adv-x="1936" 
d="M966 1316c109 0 182 69 181 173c0 102 -72 172 -181 172c-107 0 -180 -70 -180 -172c0 -104 73 -173 180 -173zM48 196v-196h551v196h-152v739l387 -906h150l389 907v-740h-160v-196h676v196h-180v760h176v196h-629l-287 -659l-290 659h-631v-196h170v-760h-170z" />
    <glyph glyph-name="uni1E41" unicode="&#x1e41;" horiz-adv-x="1906" 
d="M985 968c109 0 182 69 181 173c0 102 -72 172 -181 172c-107 0 -180 -70 -180 -172c0 -104 73 -173 180 -173zM1747 196v300c3 226 -129 330 -295 330c-136 0 -256 -56 -374 -167c-47 114 -148 167 -267 167c-115 0 -219 -41 -320 -121v99h-439v-196h123v-412h-130v-196
h559v196h-113v362c55 32 112 48 170 47c77 0 130 -45 130 -150v-259h-105v-196h563v196h-142v300c0 16 -1 31 -2 46c63 43 129 64 197 63c76 0 129 -45 129 -150v-259h-105v-196h564v196h-143z" />
    <glyph glyph-name="uni1E56" unicode="&#x1e56;" horiz-adv-x="1282" 
d="M598 1316c109 0 182 69 181 173c0 102 -72 172 -181 172c-107 0 -180 -70 -180 -172c0 -104 73 -173 180 -173zM639 642v-186h41c448 0 562 111 562 353c0 258 -173 343 -500 343h-694v-196h167v-760h-167v-196h682v196h-167v760h186c78 0 147 -43 147 -146
c0 -110 -48 -168 -200 -168h-57z" />
    <glyph glyph-name="uni1E57" unicode="&#x1e57;" horiz-adv-x="1136" 
d="M571 968c109 0 182 69 181 173c0 102 -72 172 -181 172c-107 0 -180 -70 -180 -172c0 -104 73 -173 180 -173zM461 757l-1 47h-443v-196h146v-790h-146v-196h623v196h-177v221c68 -41 141 -60 217 -60c215 0 411 157 411 441c0 239 -150 406 -393 406
c-80 0 -160 -25 -237 -69zM464 175v430c34 15 68 22 101 22c158 0 210 -118 210 -227c0 -153 -99 -241 -230 -241c-26 0 -54 5 -81 16z" />
    <glyph glyph-name="uni1E60" unicode="&#x1e60;" horiz-adv-x="1150" 
d="M570 1314c109 0 182 69 181 173c0 102 -72 172 -181 172c-107 0 -180 -70 -180 -172c0 -104 73 -173 180 -173zM645 -21c298 0 428 190 417 390c-10 190 -91 268 -402 360c-177 51 -207 84 -208 149c-1 55 42 97 117 97c106 0 187 -58 211 -84v-84h220v346h-220v-79
c-38 48 -114 100 -256 100c-303 0 -418 -169 -417 -326c1 -199 95 -291 424 -382c155 -42 213 -68 213 -161c0 -86 -69 -123 -151 -123c-106 0 -200 55 -242 95v151h-235v-428h235v78c63 -62 186 -99 294 -99z" />
    <glyph glyph-name="uni1E61" unicode="&#x1e61;" horiz-adv-x="925" 
d="M418 968c109 0 182 69 181 173c0 102 -72 172 -181 172c-107 0 -180 -70 -180 -172c0 -104 73 -173 180 -173zM543 -22c139 0 301 52 302 253c2 159 -97 200 -217 238l-122 39c-82 25 -119 39 -119 82c0 40 38 57 94 57c54 0 136 -25 169 -56l15 -84h173v313h-190v-69
c-49 39 -116 76 -238 75c-132 0 -321 -62 -321 -235c0 -126 68 -208 194 -246l173 -55c69 -20 106 -36 106 -80c0 -33 -26 -54 -85 -54c-77 0 -187 38 -218 89l-6 55h-161v-300h180v77c38 -61 170 -99 271 -99z" />
    <glyph glyph-name="uni1E6A" unicode="&#x1e6a;" horiz-adv-x="1320" 
d="M664 1316c109 0 182 69 181 173c0 102 -72 172 -181 172c-107 0 -180 -70 -180 -172c0 -104 73 -173 180 -173zM16 1152v-487h230v291h247v-760h-167v-196h682v196h-167v760h239v-291h224v487h-1288z" />
    <glyph glyph-name="uni1E6B" unicode="&#x1e6b;" horiz-adv-x="723" 
d="M306 1239c109 0 182 69 181 173c0 102 -72 172 -181 172c-107 0 -180 -70 -180 -172c0 -104 73 -173 180 -173zM402 0h258v196h-154c-53 0 -58 32 -58 64v348h210v196h-210v338l-300 -58v-280h-127v-196h126v-362c0 -167 88 -246 255 -246z" />
    <glyph glyph-name="Wgrave" unicode="&#x1e80;" horiz-adv-x="1989" 
d="M975 1284h177l-95 356h-289zM201 956l334 -956h184l280 637l283 -637h194l312 956h146v196h-508v-196h150l-167 -524l-295 694h-102l-309 -694l-158 524h131v196h-621v-196h146z" />
    <glyph glyph-name="wgrave" unicode="&#x1e81;" horiz-adv-x="1488" 
d="M144 608l219 -608h264l145 396l153 -396h221l206 608h101v196h-347v-196h84l-126 -366l-135 366h79v196h-407v-196h83l-135 -365l-121 365h74v196h-466v-196h108zM713 936h177l-95 356h-289z" />
    <glyph glyph-name="Wacute" unicode="&#x1e82;" horiz-adv-x="1989" 
d="M201 956l334 -956h184l280 637l283 -637h194l312 956h146v196h-508v-196h150l-167 -524l-295 694h-102l-309 -694l-158 524h131v196h-621v-196h146zM979 1284h177l207 356h-289z" />
    <glyph glyph-name="wacute" unicode="&#x1e83;" horiz-adv-x="1488" 
d="M144 608l219 -608h264l145 396l153 -396h221l206 608h101v196h-347v-196h84l-126 -366l-135 366h79v196h-407v-196h83l-135 -365l-121 365h74v196h-466v-196h108zM744 936h177l207 356h-289z" />
    <glyph glyph-name="Wdieresis" unicode="&#x1e84;" horiz-adv-x="1989" 
d="M201 956l334 -956h184l280 637l283 -637h194l312 956h146v196h-508v-196h150l-167 -524l-295 694h-102l-309 -694l-158 524h131v196h-621v-196h146zM817 1253c102 0 164 73 163 157c0 100 -73 156 -163 156c-89 0 -164 -67 -163 -156c0 -88 75 -157 163 -157zM1324 1253
c102 0 164 73 163 157c0 100 -73 156 -163 156c-89 0 -164 -67 -163 -156c0 -88 75 -157 163 -157z" />
    <glyph glyph-name="wdieresis" unicode="&#x1e85;" horiz-adv-x="1488" 
d="M144 608l219 -608h264l145 396l153 -396h221l206 608h101v196h-347v-196h84l-126 -366l-135 366h79v196h-407v-196h83l-135 -365l-121 365h74v196h-466v-196h108zM555 905c102 0 164 73 163 157c0 100 -73 156 -163 156c-89 0 -164 -67 -163 -156c0 -88 75 -157 163 -157
zM1062 905c102 0 164 73 163 157c0 100 -73 156 -163 156c-89 0 -164 -67 -163 -156c0 -88 75 -157 163 -157z" />
    <glyph glyph-name="uni1EBC" unicode="&#x1ebc;" horiz-adv-x="1273" 
d="M857 1249c138 0 181 110 195 285h-138c-9 -54 -30 -71 -58 -71c-83 0 -225 94 -352 94c-109 0 -199 -73 -214 -280h140c7 55 35 67 67 67c105 0 265 -96 360 -95zM959 416v-219h-396v308h200v-106h104v420h-106v-120h-198v254l394 3v-183h244v379h-1153v-196h167v-760
h-167v-196h1160v416h-249z" />
    <glyph glyph-name="uni1EBD" unicode="&#x1ebd;" horiz-adv-x="950" 
d="M670 901c138 0 181 110 195 285h-138c-9 -54 -30 -71 -58 -71c-83 0 -225 94 -352 94c-109 0 -199 -73 -214 -280h140c7 55 35 67 67 67c105 0 265 -96 360 -95zM524 -21c145 0 284 49 370 122l-80 156c-74 -46 -163 -77 -251 -77c-111 0 -202 56 -209 178h544
c0 290 -154 469 -405 469c-280 0 -451 -164 -451 -432c0 -258 183 -416 482 -416zM356 500c16 97 73 157 148 157c85 0 137 -60 137 -157h-285z" />
    <glyph glyph-name="Ygrave" unicode="&#x1ef2;" horiz-adv-x="1414" 
d="M607 1282h177l-95 356h-289zM338 196v-196h720v196h-187v269l359 491h165v196h-570v-196h125l-212 -315l-222 315h127v196h-657v-196h160l377 -494v-266h-185z" />
    <glyph glyph-name="ygrave" unicode="&#x1ef3;" horiz-adv-x="1174" 
d="M499 936h177l-95 356h-289zM208 -136v-221h126c195 0 256 66 351 256l358 709h119v196h-526v-196h112l-151 -331l-170 331h106v196h-521v-196h136l286 -537h79l-48 -99c-48 -101 -97 -108 -153 -108h-104z" />
    <glyph glyph-name="uni1EF8" unicode="&#x1ef8;" horiz-adv-x="1414" 
d="M884 1247c138 0 181 110 195 285h-138c-9 -54 -30 -71 -58 -71c-83 0 -225 94 -352 94c-109 0 -199 -73 -214 -280h140c7 55 35 67 67 67c105 0 265 -96 360 -95zM338 196v-196h720v196h-187v269l359 491h165v196h-570v-196h125l-212 -315l-222 315h127v196h-657v-196
h160l377 -494v-266h-185z" />
    <glyph glyph-name="uni1EF9" unicode="&#x1ef9;" horiz-adv-x="1174" 
d="M776 901c138 0 181 110 195 285h-138c-9 -54 -30 -71 -58 -71c-83 0 -225 94 -352 94c-109 0 -199 -73 -214 -280h140c7 55 35 67 67 67c105 0 265 -96 360 -95zM208 -136v-221h126c195 0 256 66 351 256l358 709h119v196h-526v-196h112l-151 -331l-170 331h106v196h-521
v-196h136l286 -537h79l-48 -99c-48 -101 -97 -108 -153 -108h-104z" />
    <glyph glyph-name="endash" unicode="&#x2013;" horiz-adv-x="940" 
d="M35 385h871v140h-871v-140z" />
    <glyph glyph-name="emdash" unicode="&#x2014;" horiz-adv-x="1871" 
d="M35 361h1801v140h-1801v-140z" />
    <glyph glyph-name="uni2015" unicode="&#x2015;" horiz-adv-x="1389" 
d="M0 759h1389v126h-1389v-126z" />
    <glyph glyph-name="quoteleft" unicode="&#x2018;" horiz-adv-x="651" 
d="M166 645h290v273h-139c0 107 25 142 111 145v123c-214 0 -262 -156 -262 -278v-263z" />
    <glyph glyph-name="quoteright" unicode="&#x2019;" horiz-adv-x="658" 
d="M204 624c213 0 261 156 261 278v263h-290v-273h140c-1 -107 -26 -142 -111 -145v-123z" />
    <glyph glyph-name="quotesinglbase" unicode="&#x201a;" horiz-adv-x="650" 
d="M203 -270c213 0 261 155 261 278v262h-290v-272h140c-1 -107 -25 -142 -111 -145v-123z" />
    <glyph glyph-name="quotedblleft" unicode="&#x201c;" horiz-adv-x="1050" 
d="M171 645h290v273h-139c0 107 25 142 110 145v123c-213 0 -261 -156 -261 -278v-263zM564 645h290v273h-139c0 107 25 142 111 145v123c-214 0 -262 -156 -262 -278v-263z" />
    <glyph glyph-name="quotedblright" unicode="&#x201d;" horiz-adv-x="1132" 
d="M204 624c213 0 261 156 261 278v263h-290v-273h140c-1 -107 -26 -142 -111 -145v-123zM596 624c213 0 261 156 261 278v263h-290v-273h139c0 -107 -25 -142 -110 -145v-123z" />
    <glyph glyph-name="quotedblbase" unicode="&#x201e;" horiz-adv-x="1060" 
d="M204 -270c213 0 261 155 261 278v262h-290v-272h139c0 -107 -25 -142 -110 -145v-123zM608 -270c213 0 261 155 261 278v262h-290v-272h139c0 -107 -25 -142 -110 -145v-123z" />
    <glyph glyph-name="dagger" unicode="&#x2020;" horiz-adv-x="830" 
d="M370 -227h88c0 384 41 626 81 803l-81 189l299 -47v195l-299 -44l64 366h-212l60 -366l-298 44v-195l298 47l-77 -189c37 -180 77 -423 77 -803z" />
    <glyph glyph-name="daggerdbl" unicode="&#x2021;" horiz-adv-x="819" 
d="M305 -227h213l-64 264l298 -43v195l-278 -48l-13 365l13 359l278 -47v194l-298 -43l64 264h-213l61 -264l-298 43v-194l278 47l12 -357l-12 -367l-278 48v-195l298 43z" />
    <glyph glyph-name="bullet" unicode="&#x2022;" horiz-adv-x="559" 
d="M280 368c117 0 201 87 201 194c0 110 -84 192 -201 192s-200 -89 -200 -192c0 -101 83 -194 200 -194z" />
    <glyph glyph-name="ellipsis" unicode="&#x2026;" horiz-adv-x="1821" 
d="M760 0h292v299h-292v-299zM1260 0h292v299h-292v-299zM260 0h292v299h-292v-299z" />
    <glyph glyph-name="perthousand" unicode="&#x2030;" horiz-adv-x="2769" 
d="M2300 124c-77 3 -125 64 -125 161s48 157 125 160c78 -3 127 -63 127 -160s-49 -158 -127 -161zM2300 -22c193 0 324 125 324 307c0 181 -131 304 -324 304c-191 0 -322 -123 -322 -304c0 -182 131 -307 322 -307zM469 710c-77 3 -125 64 -125 161c0 96 48 157 125 159
c78 -2 127 -63 127 -159c0 -97 -49 -158 -127 -161zM469 564c193 0 324 125 324 307c0 181 -131 304 -324 304c-191 0 -322 -123 -322 -304c0 -182 131 -307 322 -307zM600 -108l985 1275l-162 120l-988 -1270zM1531 124c-77 3 -125 64 -125 161s48 157 125 160
c78 -3 127 -63 127 -160s-49 -158 -127 -161zM1531 -22c193 0 324 125 324 307c0 181 -131 304 -324 304c-192 0 -322 -123 -322 -304c0 -182 130 -307 322 -307z" />
    <glyph glyph-name="guilsinglleft" unicode="&#x2039;" horiz-adv-x="869" 
d="M470 109h230l-233 449l233 453h-230l-331 -456z" />
    <glyph glyph-name="guilsinglright" unicode="&#x203a;" horiz-adv-x="869" 
d="M194 109h231l330 456l-330 446h-231l233 -448z" />
    <glyph glyph-name="fraction" unicode="&#x2044;" horiz-adv-x="895" 
d="M-26 -88h154l791 1300h-151z" />
    <glyph glyph-name="uni2074" unicode="&#x2074;" horiz-adv-x="1148" 
d="M349.95 529h470.02v139.16h-117.859v127.8h119.279v121.41h-119.279v429.55h-223.65l-349.32 -440.2l19.1699 -110.76h340.801v-127.8h-139.16v-139.16zM292.44 917.37l196.67 260.57v-260.57h-196.67z" />
    <glyph glyph-name="Euro" unicode="&#x20ac;" horiz-adv-x="1463" 
d="M-17 395h699l40 121h-406v118h366l40 121h-699l-40 -121h261v-118h-221zM749 -22c354 0 557 165 616 431l-259 73c-41 -205 -185 -272 -342 -272c-208 0 -335 149 -335 367c0 219 124 365 332 365c157 0 268 -59 337 -215h239v426h-221v-121c-29 36 -140 142 -366 142
c-388 0 -666 -231 -666 -605c0 -362 269 -591 665 -591z" />
    <glyph glyph-name="uni2113" unicode="&#x2113;" horiz-adv-x="884" 
d="M779 -10l26 219c-245 0 -219 66 -187 281l106 690h-512l-42 -246h179l-94 -644c-33 -229 212 -302 524 -300z" />
    <glyph glyph-name="trademark" unicode="&#x2122;" horiz-adv-x="1841" 
d="M829 460h305v106h-88v407l190 -474h82l184 471v-404h-87v-106h329v106h-85v480h85v106h-290l-175 -410l-171 410h-279v-106h85v-480h-85v-106zM254 460h380v106h-103v480h88v-180h133v286h-617v-286h133v180h91v-480h-105v-106z" />
    <glyph glyph-name="Omega" unicode="&#x2126;" horiz-adv-x="1468" 
d="M84 0h588v179c-208 68 -287 268 -287 437c0 207 127 343 349 343c220 0 347 -136 347 -344c0 -168 -77 -368 -286 -436v-179h588v196h-251c177 104 251 268 251 437c0 287 -240 541 -649 541c-408 0 -650 -255 -650 -543c0 -168 76 -331 252 -435h-252v-196z" />
    <glyph glyph-name="estimated" unicode="&#x212e;" horiz-adv-x="1112" 
d="M976 109l-33 50c-303 -210 -552 -93 -576 242h600c0 240 -105 425 -387 425c-268 0 -446 -178 -446 -406c0 -455 564 -553 842 -311zM367 461c9 412 473 417 473 0h-473z" />
    <glyph glyph-name="partialdiff" unicode="&#x2202;" horiz-adv-x="992" 
d="M401 -21c404 0 535 456 535 757c0 300 -141 506 -440 506c-195 0 -307 -87 -307 -197c0 -71 75 -128 279 -112c-7 89 44 164 120 164c93 0 156 -142 151 -424l78 1c-39 68 -127 121 -256 121c-367 0 -498 -323 -498 -503c0 -153 82 -313 338 -313zM480 142
c-50 0 -78 51 -79 138c0 140 76 376 203 376c39 0 97 -19 126 -103c-40 -271 -159 -411 -250 -411z" />
    <glyph glyph-name="emptyset" unicode="&#x2205;" horiz-adv-x="1349" 
d="M241 -64l114 135c91 -60 201 -93 319 -93c304 0 552 244 552 547c0 151 -61 286 -159 385l115 135l-68 59l-115 -136c-92 65 -204 105 -325 105c-302 0 -551 -221 -551 -548c0 -168 63 -306 165 -401l-110 -131zM358 207c-77 77 -122 188 -122 317c0 259 189 447 438 447
c97 0 186 -32 257 -84zM673 80c-94 0 -179 25 -249 72l573 675c73 -81 117 -188 117 -303c0 -237 -191 -444 -441 -444z" />
    <glyph glyph-name="Delta" unicode="&#x2206;" horiz-adv-x="1446" 
d="M97 0h1251v177l-456 979h-298l-497 -981v-175zM365 227c0 0 319 686 322 702c4 -16 268 -702 268 -702h-590z" />
    <glyph glyph-name="product" unicode="&#x220f;" horiz-adv-x="1557" 
d="M59 0h646v196h-151v760h450v-760h-152v-196h646v196h-145v760h145v196h-1439v-196h145v-760h-145v-196z" />
    <glyph glyph-name="summation" unicode="&#x2211;" horiz-adv-x="1300" 
d="M61 0h1147v416h-250v-220h-457l297 327l-2 126l-226 307h386v-183h245v379h-1140v-196h167l298 -416l-298 -344h-167v-196z" />
    <glyph glyph-name="minus" unicode="&#x2212;" horiz-adv-x="922" 
d="M59 387h804v193h-804v-193z" />
    <glyph glyph-name="uni2215" unicode="&#x2215;" horiz-adv-x="600" 
d="M141 -212l645 1393l-158 75l-648 -1394z" />
    <glyph glyph-name="uni2219" unicode="&#x2219;" horiz-adv-x="600" 
d="M303 682c109 0 182 69 181 173c0 102 -72 172 -181 172c-107 0 -180 -70 -180 -172c0 -104 73 -173 180 -173z" />
    <glyph glyph-name="radical" unicode="&#x221a;" horiz-adv-x="1354" 
d="M492 -3h234l558 1297h-157l-476 -1089l-133 337h-380v-123h166z" />
    <glyph glyph-name="infinity" unicode="&#x221e;" horiz-adv-x="1678" 
d="M1204 74c237 0 347 204 347 389c0 218 -114 390 -345 390c-142 0 -246 -68 -340 -223c-99 164 -234 229 -388 229c-208 0 -351 -164 -351 -390c0 -256 171 -390 351 -390c133 0 250 88 333 229c113 -157 250 -234 393 -234zM493 262c-126 0 -179 100 -179 204
c0 134 84 211 173 211c97 0 157 -64 225 -208c-65 -138 -138 -207 -219 -207zM1189 256c-92 0 -165 80 -222 207c75 144 136 209 218 209c109 0 183 -92 183 -207c0 -104 -65 -209 -179 -209z" />
    <glyph glyph-name="integral" unicode="&#x222b;" horiz-adv-x="1027" 
d="M286 -290c312 0 363 304 363 613c0 201 -31 420 -31 555c0 169 9 218 54 218c37 0 50 -53 50 -156c184 0 229 65 229 120c0 67 -83 126 -241 126c-316 0 -372 -273 -372 -556c0 -201 40 -444 40 -611c0 -170 -20 -219 -53 -219c-41 0 -57 39 -57 163
c-185 0 -229 -63 -229 -116c0 -67 74 -137 247 -137z" />
    <glyph glyph-name="approxequal" unicode="&#x2248;" horiz-adv-x="1248" 
d="M178 292c51 56 146 110 227 110c64 0 112 -13 201 -52c134 -57 174 -67 247 -67c97 0 169 31 248 120v202c-52 -55 -144 -111 -227 -111c-62 0 -112 14 -201 53c-134 57 -173 66 -248 66c-96 0 -167 -31 -247 -119v-202zM178 666c51 56 146 110 227 110
c64 0 112 -13 201 -52c134 -57 174 -67 247 -67c97 0 169 31 248 120v202c-52 -55 -144 -111 -227 -111c-62 0 -112 14 -201 53c-134 57 -173 66 -248 66c-96 0 -167 -31 -247 -119v-202z" />
    <glyph glyph-name="notequal" unicode="&#x2260;" horiz-adv-x="1145" 
d="M348 0h199l48 193h430v192h-379l48 192h331v192h-278l48 193h-197l-54 -193h-424v-192h374l-51 -192h-323v-192h272z" />
    <glyph glyph-name="lessequal" unicode="&#x2264;" horiz-adv-x="1086" 
d="M965 266v218l-598 247l598 254v215l-879 -412v-112zM86 0h879v199h-879v-199z" />
    <glyph glyph-name="greaterequal" unicode="&#x2265;" horiz-adv-x="1086" 
d="M132 266l879 410v112l-879 412v-215l598 -254l-598 -247v-218zM132 0h879v199h-879v-199z" />
    <glyph glyph-name="lozenge" unicode="&#x25ca;" horiz-adv-x="1136" 
d="M521 0h94l479 622l-479 620h-94l-479 -620zM570 192l-318 430l318 421l314 -421z" />
    <glyph glyph-name="uniFB01" unicode="&#xfb01;" horiz-adv-x="1439" 
d="M101 0h669v196h-193v412h409v-412h-124v-196h532v196h-108v608h-709v100c0 189 104 254 237 254c125 0 171 -39 179 -45c-13 -24 -20 -49 -20 -72c0 -65 53 -115 152 -115c114 0 163 70 163 142c0 150 -218 238 -463 238c-215 0 -549 -63 -549 -439v-63h-176v-196h176
v-412h-175v-196z" />
    <glyph glyph-name="uniFB02" unicode="&#xfb02;" horiz-adv-x="1430" 
d="M73 0h670v196h-194v412h194v196h-194v157c0 113 113 164 257 164c69 0 131 -7 131 -87l-1 -841c0 -101 38 -197 179 -197h258v197h-137l1 929c0 138 -197 208 -415 208c-271 0 -574 -83 -574 -408v-122h-176v-196h176v-412h-175v-196z" />
    <glyph glyph-name="Adotaccent" horiz-adv-x="1591" 
d="M772 1316c109 0 182 69 181 173c0 102 -72 172 -181 172c-107 0 -180 -70 -180 -172c0 -104 73 -173 180 -173zM49 196v-196h589v196h-166l77 220h378l74 -220h-178v-196h720v196h-153l-306 760h140v196h-866v-196h150l-306 -760h-153zM878 569h-283l138 373h14z" />
    <glyph glyph-name="Ecedilla" horiz-adv-x="1273" 
d="M602 -417c100 0 190 45 190 153c0 70 -50 134 -154 151l29 117h-110l-71 -181c82 -5 119 -26 119 -69c0 -48 -31 -64 -74 -64c-37 0 -82 13 -122 29v-83c55 -34 127 -53 193 -53zM959 416v-219h-396v308h200v-106h104v420h-106v-120h-198v254l394 3v-183h244v379h-1153
v-196h167v-760h-167v-196h1160v416h-249z" />
    <glyph glyph-name="Hcaron" horiz-adv-x="1585" 
d="M1536 956v196h-681v-196h167v-276h-459v276h167v196h-682v-196h167v-760h-167v-196h682v196h-167v293h459v-293h-167v-196h681v196h-167v760h167zM632 1273h328l143 354h-187l-120 -224l-121 224h-202z" />
    <glyph glyph-name="Ngrave" horiz-adv-x="1653" 
d="M48 196v-196h582v196h-172v629l680 -825h287v956h190v196h-589v-196h168v-493l-590 689h-556v-196h182v-760h-182zM761 1284h177l-95 356h-289z" />
    <glyph glyph-name="Odotaccent" horiz-adv-x="1532" 
d="M757 1314c109 0 182 69 181 173c0 102 -72 172 -181 172c-107 0 -180 -70 -180 -172c0 -104 73 -173 180 -173zM766 -22c405 -5 682 236 682 593c0 359 -277 603 -683 603c-405 0 -681 -244 -681 -602s276 -599 682 -594zM765 210c-198 0 -333 152 -333 369
c0 221 135 366 334 363c198 3 333 -142 333 -363c0 -217 -135 -369 -334 -369z" />
    <glyph glyph-name="Tcommaaccent" horiz-adv-x="1320" 
d="M16 1152v-487h230v291h247v-760h-167v-196h682v196h-167v760h239v-291h224v487h-1288zM531 -658c251 1 324 63 324 308c0 75 -6 185 -13 242h-318l4 -283h165c0 -110 -54 -153 -162 -163v-104z" />
    <glyph glyph-name="Ymacron" horiz-adv-x="1414" 
d="M431 1315h521v138h-521v-138zM338 196v-196h720v196h-187v269l359 491h165v196h-570v-196h125l-212 -315l-222 315h127v196h-657v-196h160l377 -494v-266h-185z" />
    <glyph glyph-name="adotaccent" horiz-adv-x="1001" 
d="M450 968c109 0 182 69 181 173c0 102 -72 172 -181 172c-107 0 -180 -70 -180 -172c0 -104 73 -173 180 -173zM345 -21c92 0 182 27 257 78l24 -57h350v198h-115v311c0 217 -182 315 -402 315c-132 0 -273 -30 -395 -99l75 -178c122 54 217 74 288 74
c87 0 134 -41 134 -128v-33c-41 10 -93 16 -146 16c-166 0 -358 -59 -358 -241c0 -167 131 -256 288 -256zM430 140c-58 0 -100 36 -100 91c0 82 60 108 126 108c40 0 78 -7 105 -17v-135c-41 -31 -90 -47 -131 -47z" />
    <glyph glyph-name="caron.alt" horiz-adv-x="600" 
d="M109 652c232 0 335 84 334 241v281h-334v-230h124c0 -96 -21 -136 -124 -140v-152z" />
    <glyph glyph-name="ecedilla" horiz-adv-x="950" 
d="M484 -417c100 0 190 45 190 153c0 70 -50 134 -154 151l29 117h-110l-71 -181c82 -5 119 -26 119 -69c0 -48 -31 -64 -74 -64c-37 0 -82 13 -122 29v-83c55 -34 127 -53 193 -53zM524 -21c145 0 284 49 370 122l-80 156c-74 -46 -163 -77 -251 -77
c-111 0 -202 56 -209 178h544c0 290 -154 469 -405 469c-280 0 -451 -164 -451 -432c0 -258 183 -416 482 -416zM356 500c16 97 73 157 148 157c85 0 137 -60 137 -157h-285z" />
    <glyph glyph-name="foundryicon" horiz-adv-x="1347" 
d="M485 405v267h106l170 -149v149h106v-267h-106l-170 147v-147h-106zM280 2l389 276l397 -276l-144 459l391 294h-485l-159 460l-150 -460h-485l389 -294z" />
    <glyph glyph-name="hcaron" horiz-adv-x="1244" 
d="M1092 196v300c2 226 -124 330 -282 330c-120 0 -227 -48 -330 -143v491h-434v-196h133v-782h-134v-196h556v196h-121v346c60 42 123 64 188 63c73 0 124 -45 124 -150v-259h-101v-196h537v196h-136zM452 1260h328l143 354h-187l-120 -224l-121 224h-202z" />
    <glyph glyph-name="idotaccent" horiz-adv-x="812" 
d="M388 966c109 0 182 69 181 173c0 102 -72 172 -181 172c-107 0 -180 -70 -180 -172c0 -104 73 -173 180 -173zM146 0h533v196h-109v608h-417v-196h117v-412h-124v-196z" />
    <glyph glyph-name="ngrave" horiz-adv-x="1224" 
d="M1072 196v300c2 226 -124 330 -282 330c-116 0 -220 -45 -321 -134v112h-417v-196h117v-412h-124v-196h533v196h-109v352c58 39 117 58 179 57c73 0 124 -45 124 -150v-259h-101v-196h537v196h-136zM538 936h177l-95 356h-289z" />
    <glyph glyph-name="odotaccent" horiz-adv-x="1039" 
d="M503 986c109 0 182 69 181 173c0 102 -72 172 -181 172c-107 0 -180 -70 -180 -172c0 -104 73 -173 180 -173zM519 -22c284 0 476 175 476 436c0 246 -192 412 -475 412c-284 0 -476 -166 -476 -412c0 -261 192 -436 475 -436zM519 178c-101 -2 -169 93 -169 235
c0 127 68 213 169 213s170 -86 170 -213c0 -142 -69 -237 -170 -235z" />
    <glyph glyph-name="tcommaaccent" horiz-adv-x="723" 
d="M402 0h258v196h-154c-53 0 -58 32 -58 64v348h210v196h-210v338l-300 -58v-280h-127v-196h126v-362c0 -167 88 -246 255 -246zM269 -658c251 1 324 63 324 308c0 75 -6 185 -13 242h-318l4 -283h165c0 -110 -54 -153 -162 -163v-104z" />
    <glyph glyph-name="uniFB00" horiz-adv-x="1661" 
d="M69 0h704v196h-223v412h533v-412h-178v-196h703v196h-225v412h224v196h-224v102c0 134 20 155 64 155c47 0 51 -40 64 -119l218 69c-21 153 -100 232 -300 232c-304 0 -346 -163 -346 -392v-47h-533v102c0 134 47 155 90 155c70 0 76 -40 88 -119l219 69
c-21 153 -102 232 -351 232c-304 0 -346 -211 -346 -392v-47h-182v-196h182v-412h-181v-196z" />
    <glyph glyph-name="uniFB03" horiz-adv-x="2140" 
d="M69 0h622v196h-141v412h342v196h-342v122c0 94 79 142 200 142c100 0 227 -32 364 -95l80 122c-147 117 -340 180 -513 180c-235 0 -431 -114 -431 -364v-107h-182v-196h182v-412h-181v-196zM803 0h669v196h-193v412h409v-412h-124v-196h532v196h-108v608h-709v100
c0 189 104 254 237 254c125 0 171 -39 179 -45c-13 -24 -20 -49 -20 -72c0 -65 53 -115 152 -115c114 0 163 70 163 142c0 150 -218 238 -463 238c-215 0 -549 -63 -549 -439v-63h-176v-196h176v-412h-175v-196z" />
    <glyph glyph-name="uniFB04" horiz-adv-x="2309" 
d="M118 196v-196h696v196h-212v412h193v196h-193v102c0 105 103 190 252 190c89 0 192 -30 293 -99l218 70c-193 154 -402 224 -584 224c-274 0 -480 -163 -480 -440v-47h-182v-196h182v-412h-183zM952 0h670v196h-194v412h194v196h-194v157c0 113 113 164 257 164
c69 0 131 -7 131 -87l-1 -841c0 -101 38 -197 179 -197h258v197h-137l1 929c0 138 -197 208 -415 208c-271 0 -574 -83 -574 -408v-122h-176v-196h176v-412h-175v-196z" />
    <glyph glyph-name="ymacron" horiz-adv-x="1174" 
d="M322 969h521v138h-521v-138zM208 -136v-221h126c195 0 256 66 351 256l358 709h119v196h-526v-196h112l-151 -331l-170 331h106v196h-521v-196h136l286 -537h79l-48 -99c-48 -101 -97 -108 -153 -108h-104z" />
    </font>
</defs>
</svg>
