<?xml version="1.0" standalone="no"?>
<!DOCTYPE svg PUBLIC "-//W3C//DTD SVG 1.1//EN" "http://www.w3.org/Graphics/SVG/1.1/DTD/svg11.dtd" >
<svg version="1.1" xmlns="http://www.w3.org/2000/svg">
<metadata>
Created by FontForge 20120731 at Fri Aug  1 16:50:21 2014

Copyright 2003, 2009 B. Jackowski and J. M. Nowacki (on behalf of TeX users groups). This work is released under the GUST Font License --  see http://tug.org/fonts/licenses/GUST-FONT-LICENSE.txt for details.
</metadata>
<defs>
<font id="latinmodernroman" horiz-adv-x="591" >
  <font-face 
    font-family="LMRoman10"
    font-weight="700"
    font-style="italic"
    font-stretch="normal"
    units-per-em="1000"
    panose-1="0 0 8 0 0 0 0 0 0 0"
    ascent="806"
    descent="-194"
    x-height="452"
    cap-height="686"
    bbox="-518 -307 1565 1147"
    underline-thickness="60"
    underline-position="-86"
    slope="-14.0362"
    stemh="36"
    stemv="96"
    unicode-range="U+0020-FB04"
  />
<missing-glyph horiz-adv-x="280" 
 />
    <glyph glyph-name="I_J" unicode="IJ" horiz-adv-x="1035" 
d="M585 668c0 -29 -18 -29 -35 -29h-25c-12 0 -29 -1 -41 -2c-20 -1 -21 -2 -25 -17l-142 -571l51 -2h25c15 0 32 0 32 -18c0 -29 -19 -29 -30 -29c-52 0 -106 3 -159 3c-51 0 -104 -3 -155 -3c-12 0 -22 5 -22 18c0 29 17 29 35 29h24c11 0 30 0 41 1c20 2 21 3 25 17
l142 572c-11 0 -46 2 -51 2h-24c-15 0 -32 0 -32 18c0 29 18 29 29 29c52 0 106 -3 159 -3c52 0 105 3 156 3c21 0 22 -15 22 -18zM1115 668c0 -29 -17 -29 -35 -29h-8c-10 0 -22 0 -33 -1c-12 -2 -13 -3 -16 -16l-120 -482c-18 -74 -99 -157 -249 -157
c-91 0 -158 40 -158 109c0 67 53 96 89 96c40 0 63 -27 63 -58c0 -27 -18 -73 -69 -87c26 -24 65 -24 71 -24c55 0 104 51 124 130l121 487c-23 3 -25 3 -64 3h-39c-14 0 -31 0 -31 18c0 29 18 29 30 29c56 0 115 -3 172 -3c44 0 89 3 132 3c15 0 20 -11 20 -18z" />
    <glyph glyph-name="i_j" unicode="ij" horiz-adv-x="676" 
d="M379 614c0 -43 -42 -87 -89 -87c-38 0 -62 28 -62 60c0 44 43 87 89 87c41 0 62 -32 62 -60zM740 614c0 -43 -42 -87 -89 -87c-38 0 -62 28 -62 60c0 44 43 87 89 87c41 0 62 -32 62 -60zM390 148c0 -21 -49 -156 -153 -156c-54 0 -105 33 -105 89c0 15 3 23 9 39l90 238
c1 2 8 27 8 40c0 18 -9 18 -14 18c-57 0 -84 -95 -92 -121c-4 -13 -9 -13 -28 -13c-15 0 -28 0 -28 14c0 21 49 156 153 156c54 0 105 -33 105 -89c0 -15 -3 -23 -9 -39l-90 -238c-1 -2 -8 -27 -8 -40c0 -18 9 -18 14 -18c57 0 84 95 92 121c4 13 9 13 28 13
c15 0 28 0 28 -14zM598 -52c-23 -92 -125 -150 -214 -150c-57 0 -93 31 -93 71c0 41 34 73 71 73c31 0 50 -21 50 -46c0 -17 -10 -41 -26 -54c-6 -5 -7 -6 -7 -6s0 -2 7 -2c47 0 91 59 106 119l97 389c4 16 6 24 6 43c0 30 -12 31 -21 31c-16 0 -71 -7 -118 -117
c-8 -16 -9 -17 -31 -17c-15 0 -28 0 -28 14c0 17 66 156 182 156c60 0 117 -34 117 -97c0 -6 0 -13 -4 -29z" />
    <glyph glyph-name="f_k" unicode="fk" horiz-adv-x="935" 
d="M974 148c0 -8 -35 -156 -136 -156c-65 0 -118 42 -118 102c0 11 1 16 3 25c3 11 3 16 3 21c0 53 -62 69 -92 74l-45 -181c-11 -28 -38 -41 -59 -41c-27 0 -46 18 -46 43c0 5 0 7 4 22l26 105l58 235h-241l-58 -317c-6 -33 -15 -66 -24 -99c-45 -162 -129 -183 -166 -183
c-54 0 -102 30 -102 79c0 45 36 75 71 75c30 0 50 -19 50 -46c0 -42 -36 -63 -43 -66c3 -2 12 -6 26 -6c30 0 41 49 46 70c13 56 13 58 22 104l72 389h-87c-14 0 -31 0 -31 18c0 29 17 29 34 29h92l15 80c32 174 155 178 227 178c89 0 150 -20 152 -79h1l11 43
c7 27 8 28 32 28h50c15 0 28 1 28 -18c0 -5 -2 -11 -3 -16l-97 -386c24 15 41 29 81 71c64 68 113 107 169 107c57 0 71 -49 71 -79c0 -66 -44 -87 -73 -87c-31 0 -50 21 -50 46c0 33 26 67 67 72c-3 12 -15 12 -18 12c-38 0 -81 -25 -149 -101c-2 -1 -36 -38 -72 -64
c72 -8 158 -31 158 -107c0 -10 -2 -20 -4 -30c-8 -32 -8 -52 -8 -52c0 -32 13 -34 22 -34c36 0 56 48 71 107c7 26 8 27 32 27c15 0 28 0 28 -14zM584 444l34 139h-1c-3 -6 -25 -35 -61 -35c-30 0 -50 19 -50 46c0 18 8 44 35 61c-25 11 -53 11 -63 11
c-84 0 -96 -36 -104 -60c-6 -18 -14 -46 -34 -162h244z" />
    <glyph glyph-name="f_f" unicode="ff" horiz-adv-x="756" 
d="M894 622c0 -41 -34 -74 -71 -74c-30 0 -50 19 -50 46c0 37 29 58 39 64c-11 5 -17 8 -38 8c-34 0 -42 -36 -45 -51c-10 -40 -31 -160 -33 -171h104c15 0 32 0 32 -18c0 -29 -17 -29 -35 -29h-110l-55 -302c-2 -9 -28 -152 -75 -213c-12 -16 -74 -84 -164 -84
c-63 0 -118 28 -118 80c0 41 33 74 71 74c30 0 50 -19 50 -46c0 -14 -6 -45 -39 -63c12 -6 24 -9 38 -9c35 0 75 37 89 80c16 46 25 95 34 143l63 340h-238l-56 -304c-1 -7 -27 -149 -68 -212c-4 -6 -54 -83 -130 -83c-55 0 -108 28 -108 79c0 45 36 75 71 75
c30 0 50 -19 50 -46c0 -16 -8 -47 -41 -64c14 -8 30 -8 30 -8c34 0 48 58 51 72c14 54 14 56 23 106l71 385h-86c-15 0 -32 0 -32 18c0 29 17 29 34 29h93l15 84c26 143 111 174 211 174s135 -40 135 -80c0 -41 -34 -74 -71 -74c-30 0 -50 19 -50 46c0 20 10 47 37 62
c-20 10 -42 10 -48 10c-39 0 -64 -15 -75 -27c-12 -12 -21 -58 -26 -81l-22 -114h238l18 96c10 53 39 162 167 162c63 0 120 -26 120 -80z" />
    <glyph glyph-name="f_i" unicode="fi" horiz-adv-x="674" 
d="M708 148c0 -4 -13 -60 -39 -102c-13 -20 -38 -54 -85 -54c-56 0 -116 33 -116 97c0 6 0 13 4 29l70 279h-211l-58 -316c-10 -52 -22 -103 -41 -152c-32 -82 -93 -131 -149 -131c-54 0 -102 30 -102 79c0 44 35 75 71 75c30 0 50 -19 50 -46c0 -24 -14 -52 -43 -65
c12 -7 26 -7 26 -7c30 0 41 49 46 71c13 55 14 61 24 115l69 377h-86c-15 0 -32 0 -32 18c0 29 18 29 35 29h92c16 93 29 164 90 213c54 44 124 45 187 45s191 -1 191 -85c0 -51 -40 -77 -71 -77c-30 0 -50 19 -50 46c0 28 18 52 40 64c-36 16 -91 16 -109 16
c-131 0 -136 -26 -171 -222h288c15 0 28 0 28 -14c0 -3 -1 -10 -2 -13l-79 -314c-4 -14 -6 -24 -6 -44c0 -23 7 -31 19 -31c34 0 52 75 60 108c7 25 8 26 32 26c15 0 28 0 28 -14z" />
    <glyph glyph-name="f_l" unicode="fl" horiz-adv-x="704" 
d="M738 148c0 -4 -13 -60 -39 -102c-13 -20 -38 -54 -85 -54c-56 0 -116 33 -116 97c0 6 0 13 4 29l70 279h-241l-58 -317c-6 -33 -15 -66 -24 -99c-45 -162 -129 -183 -166 -183c-54 0 -102 30 -102 79c0 45 36 75 71 75c30 0 50 -19 50 -46c0 -42 -36 -63 -43 -66
c3 -2 12 -6 26 -6c30 0 41 49 46 70c13 56 13 58 22 104l72 389h-87c-14 0 -31 0 -31 18c0 29 17 29 34 29h92l15 80c32 174 155 178 227 178c89 0 150 -20 152 -79h1l11 43c7 27 8 28 32 28h50c15 0 28 0 28 -14c0 0 0 -3 -4 -18l-140 -560c-4 -16 -6 -24 -6 -43
c0 -23 7 -31 19 -31c34 0 52 75 60 108c7 25 8 26 32 26c15 0 28 0 28 -14zM584 444l34 139h-1c-3 -6 -25 -35 -61 -35c-30 0 -50 19 -50 46c0 18 8 44 35 61c-25 11 -53 11 -63 11c-84 0 -96 -36 -104 -60c-6 -18 -14 -46 -34 -162h244z" />
    <glyph glyph-name="f_f_i" unicode="&#xfb00;i" horiz-adv-x="1045" 
d="M1079 148c0 -4 -13 -60 -39 -102c-13 -20 -38 -54 -85 -54c-56 0 -116 33 -116 97c0 6 0 13 4 29l70 279h-225l-62 -330c-7 -38 -18 -75 -31 -111c-49 -134 -158 -158 -208 -158c-59 0 -123 23 -123 80c0 41 33 74 71 74c30 0 50 -19 50 -46c0 -25 -15 -50 -38 -63
c19 -9 42 -9 42 -9c42 0 82 44 93 74c17 46 26 95 35 143l64 346h-250l-57 -311c-1 -7 -27 -147 -69 -209c-16 -25 -61 -79 -122 -79c-55 0 -102 31 -102 79c0 44 35 75 71 75c30 0 50 -19 50 -46c0 -24 -14 -52 -43 -65c12 -7 26 -7 26 -7c30 0 41 50 46 72
c8 35 16 69 22 104l71 387h-86c-15 0 -32 0 -32 18c0 29 18 29 35 29h92l14 77c31 167 138 181 225 181c28 0 151 0 151 -79c0 -45 -36 -75 -71 -75c-30 0 -50 19 -50 46c0 8 2 41 36 61c-25 11 -54 11 -62 11c-91 0 -100 -42 -113 -98l-23 -124h249l13 69
c35 189 179 189 273 189c76 0 197 -2 197 -85c0 -51 -40 -77 -71 -77c-30 0 -50 19 -50 46c0 28 18 52 40 64c-37 16 -94 16 -116 16c-140 0 -145 -28 -179 -222h303c15 0 28 0 28 -14c0 -3 -1 -10 -2 -13l-79 -314c-4 -14 -6 -24 -6 -44c0 -23 7 -31 19 -31
c34 0 52 75 60 108c7 25 8 26 32 26c15 0 28 0 28 -14z" />
    <glyph glyph-name="f_f_l" unicode="ffl" horiz-adv-x="1059" 
d="M1093 148c0 -4 -13 -60 -39 -102c-13 -20 -38 -54 -85 -54c-56 0 -116 33 -116 97c0 6 0 13 4 29l70 279h-240l-60 -324c-1 -7 -26 -138 -77 -197c-15 -17 -75 -78 -164 -78c-58 0 -123 23 -123 80c0 41 33 74 71 74c30 0 50 -19 50 -46c0 -25 -15 -50 -38 -63
c16 -8 37 -9 42 -9c32 0 54 21 65 33c22 22 27 31 38 73c14 51 16 60 26 113l63 344h-249l-56 -304c-5 -27 -12 -55 -18 -82c-9 -35 -19 -66 -26 -84c-36 -88 -97 -129 -148 -129c-54 0 -102 30 -102 79c0 44 35 75 71 75c30 0 50 -19 50 -46c0 -24 -14 -52 -43 -65
c10 -6 20 -7 26 -7c30 0 41 52 46 74l22 104l71 385h-86c-15 0 -32 0 -32 18c0 29 17 29 34 29h93l15 84c26 143 111 174 211 174s135 -40 135 -80c0 -41 -34 -74 -71 -74c-30 0 -50 19 -50 46c0 20 10 47 37 62c-20 10 -42 10 -48 10c-39 0 -64 -15 -75 -27
c-12 -12 -22 -59 -26 -81l-22 -114h250c27 153 45 258 241 258c88 0 150 -20 152 -79h1l11 43c7 27 8 28 32 28h50c15 0 28 0 28 -14c0 0 0 -3 -4 -18l-140 -560c-4 -16 -6 -24 -6 -43c0 -23 7 -31 19 -31c34 0 52 75 60 108c7 25 8 26 32 26c15 0 28 0 28 -14zM939 444
l34 139h-1c-3 -6 -25 -35 -61 -35c-30 0 -50 19 -50 46c0 18 8 44 35 61c-25 11 -53 11 -63 11c-80 0 -94 -35 -100 -51c-12 -32 -19 -68 -37 -171h243z" />
    <glyph glyph-name=".notdef" horiz-adv-x="280" 
 />
    <glyph glyph-name="space" unicode=" " horiz-adv-x="414" 
 />
    <glyph glyph-name="exclam" unicode="!" horiz-adv-x="386" 
d="M423 627l-141 -390c-6 -17 -7 -18 -30 -18c-13 0 -31 0 -27 17v11l54 386c10 71 76 78 88 78c44 0 63 -31 63 -56c0 -9 -2 -13 -7 -28zM287 87c0 -48 -46 -87 -88 -87c-35 0 -62 24 -62 60c0 49 47 87 88 87c38 0 62 -27 62 -60z" />
    <glyph glyph-name="quotedbl" unicode="&#x22;" horiz-adv-x="518" 
d="M393 650l-82 -228h-56l32 228c4 29 36 53 67 53c30 0 50 -24 39 -53zM555 650l-82 -228h-56l32 228c4 29 36 53 67 53c30 0 50 -24 39 -53z" />
    <glyph glyph-name="numbersign" unicode="#" horiz-adv-x="944" 
d="M889 139c0 -31 -32 -31 -47 -31h-232l-149 -280c-6 -11 -12 -22 -29 -22s-31 14 -31 31c0 6 1 8 7 19l133 252h-165l-149 -280c-6 -11 -12 -22 -29 -22s-31 14 -31 31c0 6 1 8 7 19l133 252h-136c-15 0 -46 0 -46 31c0 30 28 30 40 30h176l86 163h-206
c-12 0 -40 0 -40 30c0 31 31 31 46 31h233l148 279c6 11 12 22 29 22s31 -14 31 -31c0 -6 -1 -8 -7 -19l-132 -251h165l148 279c6 11 12 22 29 22s31 -14 31 -31c0 -6 -1 -8 -7 -19l-132 -251h135c15 0 46 0 46 -31c0 -30 -28 -30 -40 -30h-174l-86 -163h204
c12 0 41 0 41 -30zM661 332h-165l-86 -163h165z" />
    <glyph glyph-name="dollar" unicode="$" horiz-adv-x="575" 
d="M645 549c-4 -49 -28 -93 -81 -93c-21 0 -54 12 -51 53c3 34 29 72 81 72c-13 49 -65 68 -120 71l-56 -224c27 -6 78 -17 113 -59c21 -26 42 -65 37 -126c-7 -85 -79 -235 -258 -248l-13 -51h-47l13 51c-135 12 -164 91 -158 159c1 19 10 98 82 98c14 0 54 -7 50 -54
c-1 -18 -14 -71 -83 -71c11 -63 70 -81 121 -85l62 252c-34 7 -77 15 -116 58c-35 39 -40 88 -38 117c7 83 82 221 256 230l12 51h47l-12 -51c82 -5 168 -43 159 -150zM427 652c-99 -10 -145 -74 -149 -123c-4 -44 29 -79 95 -91zM474 182c3 29 -9 86 -91 101l-61 -240
c110 11 149 97 152 139z" />
    <glyph glyph-name="percent" unicode="%" horiz-adv-x="944" 
d="M946 719c0 -10 -7 -20 -13 -26l-705 -735c-8 -8 -13 -14 -26 -14s-30 9 -30 31c0 11 2 14 16 28l595 623h-1c-41 -13 -75 -15 -99 -15c-86 0 -142 34 -152 40c1 -7 1 -18 1 -25c0 -108 -70 -279 -195 -279c-35 0 -119 16 -119 133c0 122 84 270 212 270
c37 0 56 -14 77 -34c46 -46 111 -70 177 -70c78 0 152 33 205 91c5 5 13 13 26 13c17 0 31 -14 31 -31zM901 222c0 -109 -71 -278 -195 -278c-46 0 -119 25 -119 133c0 116 80 270 213 270c36 0 101 -19 101 -125zM478 634c0 8 -1 80 -48 80c-19 0 -57 -13 -83 -90
c-10 -30 -42 -142 -42 -189c0 -33 14 -52 35 -52c81 0 138 166 138 251zM847 230c0 25 -5 81 -48 81c-96 0 -125 -279 -125 -279c0 -34 15 -52 35 -52c81 0 138 165 138 250z" />
    <glyph glyph-name="ampersand" unicode="&#x26;" horiz-adv-x="886" 
d="M834 298c0 -26 -7 -315 -390 -315c-213 0 -303 87 -303 198c0 55 31 149 93 211c-8 21 -10 48 -10 58c0 111 85 261 235 261c77 0 130 -48 130 -114c0 -65 -44 -86 -73 -86c-18 0 -49 8 -49 46c0 29 19 62 62 70c-13 36 -44 48 -70 48c-79 0 -113 -112 -133 -222
c41 16 73 16 81 16c52 0 76 -26 76 -64c0 -42 -33 -99 -109 -99c-33 0 -65 10 -80 17c-18 -47 -38 -119 -38 -168c0 -95 70 -136 192 -136c87 0 163 17 217 55c88 64 112 171 112 218c0 23 -1 65 -51 137c-12 -7 -50 -25 -71 -39c-32 -23 -43 -43 -45 -70c0 0 21 35 62 35
c34 0 50 -23 50 -47c0 -32 -26 -72 -74 -72c-53 0 -94 35 -94 84c0 73 72 113 143 154c37 20 80 45 116 102c-23 6 -38 21 -38 46c0 39 34 72 72 72c25 0 50 -15 50 -47c0 -13 -13 -104 -121 -187c27 -40 58 -89 58 -162zM429 413c0 7 0 20 -22 20s-53 -13 -83 -52
c10 -30 35 -39 53 -39c33 0 52 35 52 71z" />
    <glyph glyph-name="quotesingle" unicode="'" horiz-adv-x="356" 
d="M393 650l-82 -228h-56l32 228c4 29 36 53 67 53c30 0 50 -24 39 -53z" />
    <glyph glyph-name="parenleft" unicode="(" horiz-adv-x="473" 
d="M567 736c0 -6 -4 -10 -6 -11l-19 -17c-226 -192 -290 -551 -290 -692c0 -37 3 -145 61 -231c11 -14 11 -16 11 -20c0 -14 -14 -14 -18 -14c-25 0 -81 77 -105 138c-32 81 -32 156 -32 185c0 222 111 445 244 576c37 36 115 100 136 100c8 0 18 -3 18 -14z" />
    <glyph glyph-name="parenright" unicode=")" horiz-adv-x="473" 
d="M430 427c0 -149 -61 -400 -257 -586c-27 -27 -102 -90 -124 -90c-6 0 -17 2 -17 14c0 6 1 7 19 23c240 203 295 571 295 697c0 140 -47 210 -66 239c-3 4 -6 7 -6 12c0 11 10 14 18 14c27 0 81 -81 99 -122c27 -63 39 -131 39 -201z" />
    <glyph glyph-name="asterisk" unicode="*" 
d="M604 450c0 -29 -30 -55 -54 -55c-7 0 -13 0 -26 13l-86 87l-13 -137c-5 -52 -49 -52 -53 -52c-21 0 -34 14 -34 29c0 4 0 6 6 19l56 140c-84 -54 -52 -35 -120 -80c-28 -19 -30 -19 -41 -19c-14 0 -32 9 -32 35c0 33 28 43 40 47l143 51l-119 51c-17 7 -20 16 -20 27
c0 29 30 55 54 55c7 0 13 0 26 -13l86 -87l13 137c5 52 49 52 53 52c21 0 34 -14 34 -29c0 -4 0 -6 -6 -19l-56 -141l133 89c11 7 16 11 28 11c14 0 32 -9 32 -35c0 -33 -28 -43 -40 -47l-143 -51l119 -51c17 -7 20 -16 20 -27z" />
    <glyph glyph-name="plus" unicode="+" horiz-adv-x="886" 
d="M859 250c0 -30 -32 -30 -43 -30h-286l-73 -292c-2 -8 -7 -30 -31 -30c-17 0 -31 14 -31 31c0 3 1 8 3 15l69 276h-271c-15 0 -43 0 -43 31c0 30 29 30 43 30h286l73 291c2 9 8 31 32 31c13 0 30 -10 30 -31c0 -4 0 -6 -4 -20l-68 -271h271c12 0 43 0 43 -31z" />
    <glyph glyph-name="comma" unicode="," horiz-adv-x="356" 
d="M276 67c0 -131 -146 -261 -169 -261c-10 0 -18 11 -18 20c0 6 1 7 17 20c37 26 97 81 124 168c-3 -2 -22 -14 -48 -14c-47 0 -61 34 -61 58c0 39 35 89 90 89c43 0 65 -33 65 -80z" />
    <glyph glyph-name="hyphen" unicode="-" horiz-adv-x="414" 
d="M375 202c-6 -24 -7 -27 -37 -27h-213c-15 0 -33 0 -33 19c0 3 10 43 11 50c6 23 7 25 35 25h217c14 0 32 0 32 -18c0 -3 -8 -33 -12 -49z" />
    <glyph glyph-name="period" unicode="." horiz-adv-x="356" 
d="M272 88c0 -47 -45 -88 -90 -88c-29 0 -60 18 -60 59c0 50 48 88 89 88c36 0 61 -24 61 -59z" />
    <glyph glyph-name="slash" unicode="/" 
d="M681 719c0 -8 -4 -14 -10 -24l-574 -922c-7 -11 -14 -23 -31 -23s-31 14 -31 31c0 8 4 14 10 24l574 922c7 11 14 23 31 23s31 -14 31 -31z" />
    <glyph glyph-name="zero" unicode="0" 
d="M636 481c0 -67 -36 -282 -125 -393c-68 -84 -152 -105 -219 -105c-161 0 -177 108 -177 177c0 82 40 252 94 348c58 100 145 153 251 153c157 0 176 -106 176 -180zM446 157c24 70 90 315 90 386c0 47 -33 82 -85 82c-56 0 -103 -42 -120 -73
c-41 -77 -113 -382 -113 -447c0 -55 38 -86 82 -86c100 0 136 108 146 138z" />
    <glyph glyph-name="one" unicode="1" 
d="M494 29c0 -29 -19 -29 -30 -29c-53 0 -108 3 -162 3c-52 0 -105 -3 -156 -3c-20 0 -22 13 -22 18c0 29 17 29 35 29h31c15 0 30 0 44 2c22 2 23 3 27 18l112 447c-43 -20 -91 -29 -117 -29c-21 0 -23 12 -23 19c0 26 17 27 25 28c67 5 142 28 219 118c6 6 10 11 20 11
c19 0 21 -15 21 -18s-1 -7 -3 -13l-145 -580c27 -3 28 -3 59 -3h33c14 0 32 0 32 -18z" />
    <glyph glyph-name="two" unicode="2" 
d="M601 168c0 -27 -64 -185 -190 -185c-44 0 -79 22 -111 42c-32 21 -64 41 -98 41c-22 0 -39 -15 -55 -69c-4 -14 -8 -14 -29 -14c-14 0 -27 0 -27 14c0 15 39 163 215 255c45 23 107 58 154 121c44 61 49 163 49 166c0 68 -46 86 -84 86c-115 0 -201 -141 -201 -215
c0 -27 12 -28 19 -28c57 0 99 87 99 116c0 11 -5 22 -11 32c-2 3 -5 7 -5 11c0 5 3 10 8 13c3 4 8 7 13 7c15 0 31 -35 31 -61c0 -46 -54 -154 -139 -154c-42 0 -69 31 -69 75c0 79 103 240 260 240c104 0 188 -53 188 -165c0 -113 -62 -176 -266 -280
c-30 -15 -97 -49 -149 -114c35 0 72 -2 116 -7c11 -1 73 -7 105 -7c65 0 106 38 120 79c5 15 6 16 29 16c15 0 28 0 28 -15z" />
    <glyph glyph-name="three" unicode="3" 
d="M628 527c0 -60 -38 -159 -153 -199c45 -22 72 -63 72 -122c0 -120 -109 -223 -278 -223c-98 0 -161 56 -161 133c0 82 58 90 73 90c33 0 50 -23 50 -46c0 -20 -14 -63 -64 -70c12 -50 57 -71 101 -71c61 0 108 32 128 71c26 49 42 139 42 160c0 61 -51 61 -70 61h-32
c-19 0 -32 0 -32 15c0 0 4 22 8 26c3 5 4 6 26 6h28c29 0 85 0 121 54c25 36 42 122 42 147c0 54 -39 66 -75 66c-97 0 -186 -77 -186 -149c0 -13 4 -28 19 -28c24 0 55 23 55 52c0 11 -5 21 -10 29c-2 2 -6 7 -6 12s3 10 8 13c3 4 8 7 13 7c15 0 32 -37 32 -59
c0 -46 -45 -90 -95 -90c-40 0 -71 27 -71 71c0 79 102 178 245 178c101 0 170 -46 170 -134z" />
    <glyph glyph-name="four" unicode="4" 
d="M547 10c0 -22 -81 -33 -116 -33c-5 -25 -19 -79 -27 -111c-4 -16 -16 -60 -65 -60c-29 0 -45 20 -45 42c0 7 12 52 18 78l18 73c-71 24 -88 29 -138 29c-68 0 -79 -7 -93 -16c-14 -10 -17 -12 -22 -12c-12 0 -24 21 -24 27c0 18 31 32 38 35c8 4 100 65 189 201
c51 78 103 190 141 336c5 18 16 62 66 62c9 0 44 -4 44 -43c0 -7 -48 -295 -345 -543h20c47 0 77 -10 136 -30l30 119c7 29 18 72 67 72c24 0 45 -14 45 -42c0 -6 0 -8 -4 -23l-36 -147c13 0 39 1 67 10c7 2 8 3 12 3c13 0 24 -22 24 -27z" />
    <glyph glyph-name="five" unicode="5" 
d="M565 260c0 -137 -113 -277 -298 -277c-103 0 -148 72 -148 139c0 90 59 103 81 103c25 0 53 -14 53 -50c0 -26 -18 -72 -75 -77c10 -47 45 -72 90 -72c23 0 88 8 124 84c22 49 52 178 52 213c0 21 -10 56 -52 56c-29 0 -83 -8 -135 -59c-14 -14 -14 -15 -28 -15
c-5 0 -24 0 -24 18c0 5 2 11 3 16l76 302c3 10 5 20 16 20c4 0 6 -1 16 -6c42 -18 88 -26 133 -26c54 0 103 11 150 28c10 4 14 4 14 4c10 0 15 -9 15 -14c0 -15 -12 -26 -30 -41c-93 -84 -180 -94 -223 -94c-27 0 -54 5 -57 5c0 0 -3 -1 -6 -13l-30 -119
c46 25 84 30 115 30c87 0 168 -43 168 -155z" />
    <glyph glyph-name="six" unicode="6" 
d="M577 272c0 -131 -99 -289 -279 -289c-117 0 -166 75 -166 186c0 46 17 229 118 355c87 108 194 137 264 137c94 0 114 -56 114 -92c0 -62 -38 -89 -73 -89c-36 0 -50 23 -50 46c0 29 21 62 61 70c-10 20 -32 26 -53 26c-58 0 -115 -40 -144 -79c-22 -29 -47 -69 -76 -183
c51 64 101 64 120 64c136 0 164 -102 164 -152zM414 114c11 29 50 172 50 217c0 32 -17 57 -61 57c-132 0 -166 -256 -166 -291c0 -27 13 -71 64 -71c68 0 98 49 113 88z" />
    <glyph glyph-name="seven" unicode="7" 
d="M706 647c0 -4 0 -6 -12 -20c-27 -36 -88 -116 -144 -236c-47 -100 -83 -196 -120 -338c-5 -17 -18 -70 -77 -70c-32 0 -52 22 -52 49c0 9 18 105 97 253c54 103 132 209 159 246c-14 -4 -16 -5 -37 -5c-24 0 -40 7 -63 17c-23 9 -34 13 -52 13c-64 0 -157 -33 -202 -108
c-10 -17 -11 -18 -32 -18c-14 0 -28 0 -28 14c0 3 1 6 7 17l95 184c8 16 11 16 31 16c17 0 28 0 28 -14c0 -6 -10 -25 -13 -30c51 34 102 44 133 44s48 -13 62 -56c12 -33 18 -43 36 -43c52 0 102 58 125 86c10 12 11 13 31 13c14 0 28 0 28 -14z" />
    <glyph glyph-name="eight" unicode="8" 
d="M567 226c0 -105 -92 -243 -273 -243c-115 0 -185 51 -185 135c0 130 124 191 169 213c-15 9 -57 44 -57 113c0 92 78 217 238 217c86 0 159 -35 159 -117c0 -104 -92 -154 -135 -177c39 -27 84 -60 84 -141zM543 546c0 54 -38 76 -90 76c-102 0 -141 -64 -141 -103
c0 -29 13 -38 58 -71l75 -53c70 42 98 103 98 151zM465 158c0 39 -17 51 -62 83c-10 8 -56 41 -86 61c-91 -51 -121 -136 -121 -186c0 -56 35 -90 104 -90c109 0 165 73 165 132z" />
    <glyph glyph-name="nine" unicode="9" 
d="M621 479c0 -36 -14 -226 -120 -363c-72 -92 -168 -133 -250 -133c-63 0 -126 23 -126 95c0 65 43 86 72 86c36 0 50 -23 50 -46c0 -27 -18 -59 -56 -69c17 -22 51 -23 62 -23c59 0 109 43 131 72c14 20 42 57 76 188c-43 -53 -81 -65 -120 -65c-142 0 -165 110 -165 152
c0 4 0 122 85 207c80 79 164 81 199 81c110 0 162 -70 162 -182zM517 552c0 22 -9 70 -59 70c-59 0 -99 -36 -119 -91c-17 -45 -51 -179 -51 -217c0 -22 9 -57 61 -57c137 0 168 274 168 295z" />
    <glyph glyph-name="colon" unicode=":" horiz-adv-x="356" 
d="M346 384c0 -47 -46 -87 -89 -87c-36 0 -61 24 -61 59c0 47 45 88 90 88c26 0 60 -15 60 -60zM272 88c0 -47 -45 -88 -90 -88c-29 0 -60 18 -60 59c0 50 48 88 89 88c36 0 61 -24 61 -59z" />
    <glyph glyph-name="semicolon" unicode=";" horiz-adv-x="356" 
d="M346 384c0 -47 -46 -87 -89 -87c-36 0 -61 24 -61 59c0 47 45 88 90 88c26 0 60 -15 60 -60zM268 74c0 -136 -140 -268 -161 -268c-10 0 -18 11 -18 20c0 7 3 9 11 16c30 24 90 78 119 166c0 0 -16 -8 -37 -8c-47 0 -61 34 -61 58c0 41 37 89 89 89c44 0 58 -33 58 -73z
" />
    <glyph glyph-name="less" unicode="&#x3c;" horiz-adv-x="894" 
d="M783 -56c-3 -14 -19 -30 -38 -30c0 0 -8 0 -21 7l-548 298c-12 6 -22 14 -17 32c4 18 20 26 33 31l700 299c8 4 14 6 21 6c19 0 27 -16 23 -30c-4 -17 -17 -25 -33 -32l-643 -275l506 -274c12 -7 21 -15 17 -32z" />
    <glyph glyph-name="equal" unicode="=" horiz-adv-x="886" 
d="M886 362c0 -30 -28 -30 -40 -30h-625c-12 0 -40 0 -40 30c0 31 31 31 46 31h613c15 0 46 0 46 -31zM831 139c0 -31 -32 -31 -47 -31h-613c-15 0 -46 0 -46 31c0 30 28 30 40 30h625c12 0 41 0 41 -30z" />
    <glyph glyph-name="greater" unicode="&#x3e;" horiz-adv-x="894" 
d="M860 251c-5 -18 -18 -26 -33 -32l-701 -299c-8 -4 -13 -6 -20 -6c-19 0 -27 16 -24 30c4 15 14 24 33 32l644 275l-507 274c-14 8 -21 16 -17 32s22 30 38 30c3 0 9 0 21 -7l549 -298c9 -5 21 -13 17 -31z" />
    <glyph glyph-name="question" unicode="?" 
d="M614 587c0 -67 -36 -128 -109 -176l-123 -79c-20 -13 -41 -27 -41 -59c0 -10 5 -18 16 -18c14 0 59 9 77 58c5 14 8 14 28 14c16 0 28 0 28 -14c0 -33 -55 -94 -135 -94c-18 0 -71 6 -71 74c0 28 9 82 65 118l144 94c51 33 63 73 63 101c0 67 -69 69 -87 69
c-68 0 -132 -47 -173 -114c3 -1 38 -8 38 -47s-34 -70 -70 -70c-30 0 -50 19 -50 46c0 66 101 221 256 221c92 0 144 -50 144 -124zM389 87c0 -48 -46 -87 -88 -87c-35 0 -62 24 -62 60c0 49 47 87 88 87c38 0 62 -27 62 -60z" />
    <glyph glyph-name="at" unicode="@" horiz-adv-x="886" 
d="M815 77c0 0 0 -9 -8 -12c0 0 -166 -73 -358 -73c-172 0 -285 86 -285 255c0 209 163 455 450 455c165 0 282 -85 282 -254c0 -79 -46 -321 -188 -321c-12 0 -74 0 -100 43c-34 -23 -76 -43 -131 -43c-91 0 -168 49 -168 158c0 122 96 282 271 282c52 0 112 -20 135 -85
h29c16 0 28 0 28 -14c0 -9 -29 -119 -34 -137c-2 -9 -34 -129 -34 -147s7 -21 14 -21c89 0 123 247 123 288c0 149 -100 215 -228 215c-255 0 -394 -239 -394 -423c0 -136 83 -215 232 -215c97 0 192 22 282 57c16 6 18 6 34 6h20c16 0 28 0 28 -14zM610 246l55 223
c-16 51 -60 62 -85 62c-106 0 -169 -176 -169 -270c0 -24 5 -98 71 -98c55 0 119 47 128 83z" />
    <glyph glyph-name="A" unicode="A" horiz-adv-x="866" 
d="M805 29c0 -29 -18 -29 -28 -29c-45 0 -92 3 -137 3c-49 0 -99 -3 -147 -3c-22 0 -22 18 -22 18c0 29 17 29 39 29c20 0 46 1 65 5l-15 140h-232l-81 -135c24 -9 60 -10 60 -10c8 0 26 0 26 -18c0 -29 -20 -29 -28 -29c-37 0 -77 3 -115 3c-32 0 -67 -3 -98 -3
c-19 0 -19 18 -19 18c0 29 17 29 31 29c72 1 83 19 94 37l365 602c15 25 25 25 47 25c30 0 33 -3 36 -29l66 -616c2 -15 3 -16 15 -18c8 -1 24 -1 33 -1h13c15 0 32 0 32 -18zM555 239l-30 278l-168 -278h198z" />
    <glyph glyph-name="B" unicode="B" horiz-adv-x="817" 
d="M778 225c0 -94 -92 -225 -282 -225h-400c-15 0 -32 0 -32 18c0 29 18 29 35 29h22c12 0 28 1 40 2c18 1 19 2 23 16l143 572c-12 1 -38 2 -49 2h-22c-15 0 -32 0 -32 18c0 29 18 29 35 29h380c105 0 192 -41 192 -136c0 -79 -66 -166 -203 -192c80 -7 150 -48 150 -133z
M699 557c0 82 -63 82 -83 82h-131c-31 0 -32 -1 -36 -16l-62 -248h139c119 0 173 106 173 182zM643 245c0 94 -68 94 -91 94h-174l-72 -291c7 -1 14 -1 23 -1h141c126 0 173 119 173 198z" />
    <glyph glyph-name="C" unicode="C" horiz-adv-x="827" 
d="M849 446c-5 -20 -7 -20 -32 -20c-20 0 -31 0 -31 15c0 7 3 13 3 43c0 94 -46 172 -145 172c-67 0 -164 -25 -233 -109c-88 -108 -113 -300 -113 -345c0 -21 0 -83 46 -125c44 -41 107 -47 139 -47c79 0 209 52 257 209c3 9 12 9 27 9s28 0 28 -14c0 -9 -22 -98 -107 -166
c-77 -62 -157 -85 -230 -85c-148 0 -295 70 -295 262c0 212 173 458 467 458c25 0 103 0 166 -68l86 68c15 0 27 0 27 -14c0 0 0 -4 -4 -19z" />
    <glyph glyph-name="D" unicode="D" horiz-adv-x="876" 
d="M885 446c0 -202 -152 -446 -421 -446h-368c-15 0 -32 0 -32 18c0 29 18 29 35 29h22c12 0 28 1 40 2c18 1 19 2 23 16l143 572c-12 1 -38 2 -49 2h-22c-15 0 -32 0 -32 18c0 29 18 29 35 29h376c124 0 250 -63 250 -240zM757 483c0 132 -101 156 -172 156h-95
c-31 0 -32 -1 -36 -16l-143 -575c7 -1 14 -1 23 -1h104c100 0 183 44 235 127c46 75 84 255 84 309z" />
    <glyph glyph-name="E" unicode="E" horiz-adv-x="757" 
d="M761 256c0 -6 -3 -12 -5 -17l-95 -222c-7 -17 -12 -17 -33 -17h-532c-15 0 -32 0 -32 18c0 29 18 29 35 29h22c12 0 28 1 40 2c18 1 19 2 23 16l141 566c-6 0 -39 2 -49 2h-22c-14 0 -31 0 -31 18c0 29 17 29 34 29h516c14 0 30 0 32 -17l-23 -198c-2 -19 -3 -26 -29 -26
c-10 0 -28 0 -28 19c0 4 2 17 3 21c3 26 3 29 3 48c0 106 -65 106 -187 106c-27 0 -68 0 -82 -2l-63 -255h42c79 0 97 25 115 95c5 19 8 22 30 22c10 0 28 0 28 -18c0 -3 -1 -6 -3 -13l-56 -226c-6 -24 -13 -24 -30 -24c-10 0 -28 0 -28 18c0 0 1 7 3 14c4 18 7 38 7 45
c0 30 -14 40 -69 40h-51l-70 -281c7 -1 14 -1 23 -1h100c163 0 206 77 259 200c12 26 12 27 34 27c10 0 28 0 28 -18z" />
    <glyph glyph-name="F" unicode="F" horiz-adv-x="727" 
d="M767 465c-2 -19 -3 -26 -29 -26c-10 0 -28 0 -28 19c0 0 0 4 2 12c2 18 4 42 4 59c0 104 -64 104 -177 104c-26 0 -63 0 -77 -2l-66 -267h36c79 0 96 25 114 95c5 19 8 22 30 22c10 0 28 0 28 -18c0 -3 -1 -6 -3 -13l-56 -226c-6 -24 -13 -24 -30 -24c-10 0 -28 0 -28 18
c0 3 2 11 2 14c5 16 8 36 8 46c0 27 -10 39 -68 39h-45l-67 -267c24 -3 26 -3 62 -3h36c14 0 32 0 32 -18c0 -29 -19 -29 -31 -29c-57 0 -117 3 -175 3c-51 0 -104 -3 -155 -3c-11 0 -22 5 -22 18c0 29 18 29 35 29h22c12 0 28 1 40 2c18 1 19 2 23 16l141 566
c-6 0 -39 2 -49 2h-22c-14 0 -31 0 -31 18c0 29 17 29 34 29h501c14 0 30 0 32 -17z" />
    <glyph glyph-name="G" unicode="G" horiz-adv-x="895" 
d="M874 258c0 -29 -16 -29 -40 -29c-11 0 -22 0 -33 -2c-7 -1 -9 -1 -12 -15l-47 -191c-3 -12 -5 -21 -17 -21c-7 0 -49 24 -75 47c-55 -49 -131 -64 -192 -64c-153 0 -295 74 -295 261c0 216 175 459 466 459c25 0 103 0 166 -68l86 68c15 0 27 0 27 -14c0 0 0 -4 -4 -19
l-56 -224c-5 -20 -7 -20 -32 -20c-20 0 -31 0 -31 15c0 8 3 12 3 44c0 88 -42 171 -145 171c-65 0 -166 -25 -237 -115c-82 -106 -108 -293 -108 -338c0 -64 20 -101 49 -128c27 -24 78 -45 139 -45c62 0 126 33 143 89c3 10 26 100 26 104c0 6 -48 6 -60 6h-34
c-14 0 -32 0 -32 18c0 29 19 29 31 29c55 0 112 -3 167 -3c42 0 86 3 127 3c16 0 20 -12 20 -18z" />
    <glyph glyph-name="H" unicode="H" horiz-adv-x="896" 
d="M1003 668c0 -29 -17 -29 -34 -29l-62 -1c-19 -2 -20 -3 -24 -18l-142 -571c6 0 39 -2 49 -2h22c14 0 31 0 31 -18c0 -29 -19 -29 -28 -29c-50 0 -103 3 -154 3c-50 0 -102 -3 -151 -3c-11 0 -22 5 -22 18c0 29 18 29 35 29h22c12 0 28 1 40 2c18 1 19 2 23 16l67 268
h-287l-71 -284c6 0 39 -2 49 -2h22c14 0 31 0 31 -18c0 -29 -19 -29 -28 -29c-50 0 -103 3 -154 3c-50 0 -102 -3 -151 -3c-11 0 -22 5 -22 18c0 29 18 29 35 29h22c12 0 28 1 40 2c18 1 19 2 23 16l143 572c-12 1 -38 2 -49 2h-22c-15 0 -32 0 -32 18c0 29 19 29 29 29
c50 0 103 -3 154 -3c50 0 101 3 150 3c11 0 22 -5 22 -18c0 -29 -17 -29 -34 -29l-62 -1c-19 -2 -20 -3 -24 -18l-59 -240h287l64 257c-12 1 -38 2 -49 2h-22c-15 0 -32 0 -32 18c0 29 19 29 29 29c50 0 103 -3 154 -3c50 0 101 3 150 3c11 0 22 -5 22 -18z" />
    <glyph glyph-name="I" unicode="I" horiz-adv-x="472" 
d="M585 668c0 -29 -18 -29 -35 -29h-25c-12 0 -29 -1 -41 -2c-20 -1 -21 -2 -25 -17l-142 -571l51 -2h25c15 0 32 0 32 -18c0 -29 -19 -29 -30 -29c-52 0 -106 3 -159 3c-51 0 -104 -3 -155 -3c-12 0 -22 5 -22 18c0 29 17 29 35 29h24c11 0 30 0 41 1c20 2 21 3 25 17
l142 572c-11 0 -46 2 -51 2h-24c-15 0 -32 0 -32 18c0 29 18 29 29 29c52 0 106 -3 159 -3c52 0 105 3 156 3c21 0 22 -15 22 -18z" />
    <glyph glyph-name="J" unicode="J" horiz-adv-x="611" 
d="M691 668c0 -29 -17 -29 -35 -29h-8c-10 0 -22 0 -33 -1c-12 -2 -13 -3 -16 -16l-120 -482c-18 -74 -99 -157 -249 -157c-91 0 -158 40 -158 109c0 67 53 96 89 96c40 0 63 -27 63 -58c0 -27 -18 -73 -69 -87c26 -24 65 -24 71 -24c55 0 104 51 124 130l121 487
c-23 3 -25 3 -64 3h-39c-14 0 -31 0 -31 18c0 29 18 29 30 29c56 0 115 -3 172 -3c44 0 89 3 132 3c15 0 20 -11 20 -18z" />
    <glyph glyph-name="K" unicode="K" horiz-adv-x="895" 
d="M827 29c0 -29 -18 -29 -27 -29c-39 0 -80 3 -120 3c-48 0 -97 -3 -144 -3c-12 0 -22 6 -22 18c0 29 17 29 35 29c3 0 33 0 53 7l-125 283l-109 -83l-51 -205c6 0 39 -2 49 -2h22c14 0 31 0 31 -18c0 -29 -19 -29 -28 -29c-50 0 -103 3 -154 3c-50 0 -102 -3 -151 -3
c-11 0 -22 5 -22 18c0 29 18 29 35 29h22c37 0 59 4 59 4l147 586c-12 1 -38 2 -49 2h-22c-15 0 -32 0 -32 18c0 29 19 29 29 29c50 0 103 -3 154 -3c50 0 101 3 150 3c11 0 22 -5 22 -18c0 -29 -17 -29 -34 -29l-62 -1c-19 -2 -20 -3 -24 -18l-72 -289l397 300
c-20 7 -49 8 -49 8c-9 0 -26 1 -26 18c0 29 19 29 29 29c42 0 87 -3 130 -3c28 0 59 3 86 3c10 0 18 -8 18 -18c0 -28 -19 -29 -26 -29c-58 -2 -84 -13 -118 -38l-242 -182l156 -353c7 -15 8 -19 55 -19c13 0 30 0 30 -18z" />
    <glyph glyph-name="L" unicode="L" horiz-adv-x="698" 
d="M687 256c0 -4 -2 -10 -5 -17l-80 -218c-8 -21 -11 -21 -34 -21h-472c-15 0 -32 0 -32 18c0 29 18 29 35 29h22c12 0 28 1 40 2c18 1 19 2 23 16l143 572c-12 1 -38 2 -49 2h-22c-15 0 -32 0 -32 18c0 29 19 29 29 29c52 0 106 -3 158 -3c57 0 115 3 172 3
c8 0 23 -2 23 -18c0 -29 -16 -29 -34 -29h-36c-12 0 -36 -1 -46 -2c-26 -2 -27 -3 -31 -17l-142 -572c7 -1 14 -1 23 -1h58c154 0 205 136 233 211c5 16 13 16 28 16c9 0 28 0 28 -18z" />
    <glyph glyph-name="M" unicode="M" horiz-adv-x="1073" 
d="M1180 668c0 -29 -17 -29 -34 -29l-62 -1c-19 -2 -20 -3 -24 -18l-142 -571c6 0 39 -2 49 -2h22c14 0 31 0 31 -18c0 -29 -19 -29 -28 -29c-48 0 -98 3 -146 3c-47 0 -96 -3 -142 -3c-11 0 -22 5 -22 18c0 29 18 29 35 29h22c12 0 28 1 40 2c18 1 19 2 23 16l138 556l-1 1
l-393 -597c-10 -15 -16 -25 -41 -25c-22 0 -27 8 -30 29l-92 578h-1l-137 -550c24 -10 60 -10 69 -10c14 0 31 0 31 -18c0 -29 -19 -29 -27 -29c-38 0 -80 3 -119 3c-38 0 -78 -3 -115 -3c-17 0 -20 14 -20 18c0 29 18 29 34 29c25 0 46 3 57 5c27 6 28 10 32 25l140 560
c-12 1 -38 2 -49 2h-22c-15 0 -32 0 -32 18c0 29 18 29 35 29h193c27 0 33 -2 37 -28l83 -519l346 524c14 22 22 23 46 23h184c15 0 32 0 32 -18z" />
    <glyph glyph-name="N" unicode="N" horiz-adv-x="896" 
d="M1003 668c0 -29 -17 -29 -31 -29c-8 0 -34 0 -57 -5c-29 -6 -30 -9 -34 -24l-146 -586c-6 -24 -11 -24 -34 -24c-22 0 -23 1 -31 16l-294 568l-131 -527c24 -10 60 -10 69 -10c14 0 31 0 31 -18c0 -29 -19 -29 -27 -29c-38 0 -80 3 -119 3c-38 0 -78 -3 -115 -3
c-17 0 -20 14 -20 18c0 29 18 29 34 29c25 0 46 3 57 5c27 6 28 10 32 25l136 546c1 3 3 11 3 11c0 3 0 5 -43 5h-27c-15 0 -32 0 -32 18c0 29 18 29 35 29h185c23 0 24 -1 33 -17l240 -463l106 423c-25 10 -61 10 -70 10c-14 0 -31 0 -31 18c0 29 20 29 28 29
c38 0 79 -3 118 -3c38 0 78 3 115 3c11 0 20 -7 20 -18z" />
    <glyph glyph-name="O" unicode="O" horiz-adv-x="855" 
d="M865 453c0 -211 -158 -470 -441 -470c-148 0 -264 76 -264 246c0 201 155 474 443 474c138 0 262 -70 262 -250zM733 501c0 56 -18 162 -140 162c-54 0 -140 -26 -205 -133c-54 -90 -91 -265 -91 -337c0 -29 3 -82 33 -121c18 -22 52 -47 104 -47c58 0 131 29 195 123
c63 92 104 283 104 353z" />
    <glyph glyph-name="P" unicode="P" horiz-adv-x="787" 
d="M825 535c0 -125 -125 -233 -290 -233h-155l-63 -253c6 0 39 -2 49 -2h22c14 0 31 0 31 -18c0 -29 -19 -29 -28 -29c-50 0 -103 3 -154 3c-50 0 -102 -3 -151 -3c-11 0 -22 5 -22 18c0 29 18 29 35 29h22c12 0 28 1 40 2c18 1 19 2 23 16l143 572c-12 1 -38 2 -49 2h-22
c-15 0 -32 0 -32 18c0 29 18 29 35 29h363c88 0 203 -30 203 -151zM689 566c0 73 -76 73 -157 73h-46c-27 0 -28 -1 -32 -16l-70 -280h115c94 0 130 38 140 54c34 48 50 151 50 169z" />
    <glyph glyph-name="Q" unicode="Q" horiz-adv-x="855" 
d="M771 0c0 -15 -49 -194 -171 -194c-89 0 -90 85 -90 117c0 14 3 56 4 70c-20 -5 -54 -10 -90 -10c-148 0 -264 76 -264 246c0 201 155 474 443 474c138 0 262 -70 262 -250c0 -125 -68 -357 -290 -442c19 -61 45 -61 64 -61c6 0 76 0 96 53c2 6 6 15 18 15
c10 0 18 -8 18 -18zM736 493c0 21 0 79 -35 123c-17 20 -52 47 -108 47c-57 0 -142 -30 -206 -131c-65 -104 -98 -284 -98 -342c0 -56 15 -113 63 -144c0 87 79 109 110 109c58 0 81 -41 98 -89c149 104 176 391 176 427zM516 41c0 55 -14 78 -53 78c-38 0 -75 -30 -75 -64
c0 -32 30 -32 46 -32c38 0 74 14 82 18z" />
    <glyph glyph-name="R" unicode="R" horiz-adv-x="859" 
d="M850 99c0 -13 -33 -116 -134 -116c-33 0 -176 3 -176 112c0 16 2 25 15 77c7 25 15 59 15 75c0 78 -69 78 -84 78h-106l-69 -276c6 0 39 -2 49 -2h22c14 0 31 0 31 -18c0 -29 -19 -29 -28 -29c-49 0 -101 3 -151 3c-49 0 -100 -3 -148 -3c-11 0 -22 5 -22 18
c0 29 18 29 35 29h22c12 0 28 1 40 2c18 1 19 2 23 16l143 572c-12 1 -38 2 -49 2h-22c-15 0 -32 0 -32 18c0 29 18 29 35 29h330c105 0 236 -34 236 -151c0 -91 -85 -167 -202 -196c60 -26 81 -68 81 -108c0 -6 0 -10 -7 -50c-13 -82 -13 -90 -13 -106c0 -26 2 -56 38 -56
c29 0 55 29 71 78c6 20 10 20 29 20c11 0 28 0 28 -18zM687 561c0 78 -84 78 -162 78h-45c-22 0 -22 -1 -26 -16l-65 -262h99c51 0 103 9 143 42c41 36 56 137 56 158z" />
    <glyph glyph-name="S" unicode="S" horiz-adv-x="650" 
d="M616 251c0 -110 -88 -268 -265 -268c-79 0 -137 23 -169 55c-62 -52 -23 -21 -54 -46c-9 -8 -10 -9 -20 -9c-4 0 -18 0 -18 14c0 0 1 7 2 12l50 200c5 19 7 19 30 19c14 0 27 0 27 -14c0 0 0 -6 -1 -9c-4 -15 -6 -30 -6 -46c0 -105 96 -129 163 -129
c113 0 155 108 155 159c0 69 -47 81 -86 90c-32 9 -34 9 -64 16c-49 12 -89 22 -120 64c-21 29 -31 61 -31 97c0 94 82 247 259 247c60 0 104 -16 139 -49c4 -3 5 -4 5 -4l52 44c10 8 10 9 20 9c6 0 19 0 19 -15c0 -3 -1 -5 -4 -18l-48 -192c-5 -20 -7 -20 -30 -20
c-16 0 -28 0 -28 15c0 3 4 27 4 48c0 100 -56 139 -131 139c-109 0 -150 -95 -150 -141c0 -63 52 -76 69 -80l68 -17c64 -16 95 -23 126 -60c37 -45 37 -90 37 -111z" />
    <glyph glyph-name="T" unicode="T" horiz-adv-x="796" 
d="M842 460c-4 -26 -12 -26 -30 -26c-11 0 -28 0 -28 19c0 0 0 4 2 14s8 49 8 80c0 63 -23 81 -120 81h-35c-15 -1 -16 -1 -20 -16l-140 -562c20 -2 50 -3 71 -3h44c15 0 32 0 32 -18c0 -29 -17 -29 -31 -29l-197 3l-193 -3c-4 0 -24 0 -24 18c0 29 18 29 35 29h45
c49 0 78 4 82 5l143 575c-16 1 -18 1 -42 1c-129 0 -157 -37 -204 -173c-7 -20 -10 -21 -30 -21c-10 0 -28 0 -28 18c0 6 12 40 19 60l50 144c7 19 11 19 33 19h556c16 0 32 0 32 -19c0 0 0 -4 -2 -15z" />
    <glyph glyph-name="U" unicode="U" horiz-adv-x="881" 
d="M988 668c0 -29 -17 -29 -31 -29c-8 0 -34 0 -57 -5c-29 -6 -30 -9 -34 -24l-97 -390c-25 -101 -123 -237 -311 -237c-146 0 -240 69 -240 190c0 26 5 51 7 58l102 406c-12 1 -38 2 -49 2h-22c-15 0 -32 0 -32 18c0 29 19 29 29 29c50 0 103 -3 154 -3c50 0 101 3 150 3
c11 0 22 -5 22 -18c0 -29 -17 -29 -34 -29l-62 -1c-19 -2 -20 -3 -24 -18l-101 -405c-7 -30 -12 -48 -12 -82c0 -25 4 -56 32 -79c22 -17 55 -24 85 -24c110 0 212 63 247 203l99 396c-25 10 -61 10 -70 10c-14 0 -31 0 -31 18c0 29 20 29 27 29c39 0 80 -3 119 -3
c38 0 77 3 114 3c11 0 20 -7 20 -18z" />
    <glyph glyph-name="V" unicode="V" horiz-adv-x="866" 
d="M979 668c0 -29 -18 -29 -31 -29c-16 0 -65 -1 -82 -26c-2 -2 -3 -3 -9 -12l-381 -595c-15 -23 -25 -23 -47 -23c-33 0 -33 5 -37 31l-84 607c-2 15 -3 15 -16 17c-10 1 -21 1 -31 1h-11c-14 0 -32 0 -32 18c0 29 20 29 28 29c43 0 89 -3 133 -3c49 0 99 3 147 3
c11 0 22 -5 22 -18c0 -29 -17 -29 -37 -29c-15 0 -46 -1 -65 -5l65 -471l297 466c-24 9 -55 10 -58 10c-9 0 -26 0 -26 18c0 29 20 29 27 29c37 0 77 -3 115 -3c31 0 64 3 94 3c13 0 19 -10 19 -18z" />
    <glyph glyph-name="W" unicode="W" horiz-adv-x="1160" 
d="M1274 668c0 -28 -17 -29 -32 -29c-57 -2 -70 -16 -82 -37l-350 -593c-15 -25 -25 -26 -45 -26c-23 0 -30 1 -33 29l-40 437l-261 -442c-14 -24 -26 -24 -44 -24c-29 0 -30 6 -32 31l-57 623c-19 2 -25 2 -42 2h-7c-15 0 -32 0 -32 18c0 29 20 29 28 29c41 0 86 -3 128 -3
c48 0 98 3 145 3c11 0 22 -5 22 -18c0 -29 -17 -29 -39 -29c-20 0 -46 -1 -65 -5l41 -449l207 351l-9 101c-13 1 -28 2 -41 2h-7c-15 0 -32 0 -32 18c0 29 19 29 28 29c41 0 85 -3 127 -3c48 0 98 3 146 3c21 0 21 -18 21 -18c0 -29 -16 -29 -39 -29c-20 0 -46 -2 -65 -5
l41 -449l262 442v1c-28 10 -69 11 -72 11c-7 0 -25 0 -25 18c0 29 20 29 28 29c39 0 80 -3 120 -3c29 0 60 3 88 3c13 0 19 -11 19 -18z" />
    <glyph glyph-name="X" unicode="X" horiz-adv-x="866" 
d="M812 29c0 -29 -18 -29 -28 -29c-44 0 -90 3 -135 3c-49 0 -100 -3 -149 -3c-20 0 -22 13 -22 18c0 28 19 29 27 29c4 0 32 1 63 7l-92 227l-205 -223c26 -10 55 -11 63 -11c4 0 22 -1 22 -18c0 -29 -18 -29 -28 -29c-43 0 -88 3 -131 3c-37 0 -75 -3 -111 -3
c-17 0 -20 13 -20 18c0 29 17 29 36 29c68 1 97 14 120 38l232 252l-116 286c-5 12 -6 13 -21 15c-9 1 -24 1 -33 1h-12c-15 0 -32 0 -32 18c0 29 20 29 28 29c44 0 90 -3 135 -3c49 0 100 3 149 3c12 0 22 -5 22 -18c0 -29 -17 -29 -27 -29c-4 0 -29 0 -63 -7l74 -183
l165 179c-23 9 -57 11 -60 11c-9 0 -26 1 -26 18c0 29 19 29 28 29c43 0 88 -3 131 -3c37 0 75 3 111 3c12 0 20 -7 20 -18c0 -29 -16 -29 -34 -29c-64 0 -98 -12 -122 -38l-191 -207l134 -331c5 -12 6 -13 21 -15c9 -1 24 -1 33 -1h12c15 0 32 0 32 -18z" />
    <glyph glyph-name="Y" unicode="Y" horiz-adv-x="866" 
d="M985 668c0 -29 -18 -29 -30 -29c-73 -1 -89 -19 -107 -40l-281 -325l-56 -225c12 -1 38 -2 49 -2h22c15 0 32 0 32 -18c0 -29 -19 -29 -29 -29c-49 0 -101 3 -151 3c-49 0 -100 -3 -148 -3c-11 0 -22 5 -22 18c0 29 18 29 35 29h22c11 0 29 0 40 1c19 3 20 4 24 18
l52 208l-128 349c-5 12 -6 13 -20 15c-9 1 -24 1 -33 1h-12c-14 0 -32 0 -32 18c0 29 20 29 28 29c45 0 92 -3 138 -3c50 0 102 3 151 3c10 0 22 -4 22 -18c0 -29 -18 -29 -31 -29c-23 0 -37 -1 -61 -4l103 -284l241 280c-16 6 -33 8 -50 8c-8 0 -26 0 -26 18
c0 29 20 29 28 29c37 0 77 -3 115 -3c32 0 65 3 96 3c13 0 19 -10 19 -18z" />
    <glyph glyph-name="Z" unicode="Z" horiz-adv-x="709" 
d="M688 251l-73 -230c-7 -21 -13 -21 -34 -21h-459c-17 0 -28 0 -28 14c0 18 9 28 16 36l514 589h-111c-125 0 -194 -53 -233 -169c-8 -23 -9 -25 -31 -25c-10 0 -28 0 -28 18c0 0 4 16 5 18l55 185c6 20 14 20 34 20h444c15 0 27 0 27 -14c0 -12 -5 -24 -13 -33l-514 -588
h118c179 0 221 104 255 208c8 23 9 25 31 25c10 0 28 0 28 -18c0 -3 -2 -12 -3 -15z" />
    <glyph glyph-name="bracketleft" unicode="[" horiz-adv-x="356" 
d="M242 -241c-5 -9 -13 -9 -30 -9h-91c-15 0 -32 0 -32 18c0 5 2 11 3 16l236 943c6 23 11 23 34 23h91c15 0 32 0 32 -18c0 -5 -7 -30 -9 -33c-5 -10 -12 -10 -29 -10h-66l-220 -878h57c15 0 32 0 32 -18c0 -6 -6 -29 -8 -34z" />
    <glyph glyph-name="backslash" unicode="\" horiz-adv-x="575" 
d="M455 -219c-5 -20 -23 -31 -37 -31c-21 0 -24 15 -26 30l-147 919c-2 13 -3 14 -1 20c5 20 24 31 38 31c21 0 22 -13 25 -30l147 -919c2 -13 3 -14 1 -20z" />
    <glyph glyph-name="bracketright" unicode="]" horiz-adv-x="356" 
d="M389 716l-236 -943c-6 -23 -11 -23 -34 -23h-91c-15 0 -32 0 -32 18c0 5 7 30 9 33c5 10 12 10 29 10h66l220 878h-57c-15 0 -32 0 -32 18c0 6 6 29 8 34c5 9 13 9 30 9h91c15 0 32 0 32 -18c0 -5 -2 -11 -3 -16z" />
    <glyph glyph-name="asciicircum" unicode="^" horiz-adv-x="556" 
d="M707 584l-17 -22l-242 123l-301 -123l-6 22l323 160z" />
    <glyph glyph-name="underscore" unicode="_" horiz-adv-x="866" 
d="M862 -125c-4 -15 -19 -28 -35 -28h-865c-16 0 -25 13 -21 28s19 28 35 28h865c16 0 25 -13 21 -28z" />
    <glyph glyph-name="grave" unicode="`" 
d="M499 535c-3 -6 -29 -33 -45 -33c-6 0 -9 3 -13 6l-108 89c-10 8 -28 23 -12 54c14 28 46 48 71 48c22 0 29 -12 39 -31l65 -114c4 -5 6 -12 3 -19z" />
    <glyph glyph-name="a" unicode="a" 
d="M615 148c0 -4 -13 -60 -39 -102c-13 -20 -38 -54 -85 -54c-39 0 -84 16 -103 51c-24 -19 -71 -51 -132 -51c-76 0 -160 41 -160 160c0 134 100 300 268 300c26 0 65 -5 97 -38c13 13 30 21 47 21c28 0 45 -19 45 -42c0 -4 0 -6 -4 -21l-67 -270c-4 -16 -6 -24 -6 -43
c0 -23 7 -31 19 -31c34 0 52 75 60 108c7 25 8 26 32 26c15 0 28 0 28 -14zM376 100c1 8 1 11 3 18l59 236c-11 40 -39 62 -74 62c-26 0 -81 -15 -115 -112c-11 -28 -46 -151 -46 -205c0 -57 34 -71 57 -71c31 0 73 15 116 72z" />
    <glyph glyph-name="b" unicode="b" horiz-adv-x="532" 
d="M537 292c0 -132 -98 -300 -269 -300c-72 0 -156 37 -156 158c0 10 0 36 9 72l103 415c-12 1 -30 2 -42 2c-9 0 -27 0 -27 18c0 29 20 29 31 30l123 6c14 1 32 2 32 -17c0 -5 -2 -11 -3 -16l-59 -236c16 10 53 28 98 28c76 0 160 -41 160 -160zM384 140
c11 28 46 151 46 205c0 57 -34 71 -57 71c-38 0 -78 -25 -104 -57c-10 -11 -10 -13 -17 -39c-7 -31 -14 -56 -22 -92c-16 -61 -22 -87 -22 -121c0 -14 0 -79 62 -79c19 0 78 9 114 112z" />
    <glyph glyph-name="c" unicode="c" horiz-adv-x="532" 
d="M536 86c0 -12 -39 -51 -93 -72c-54 -20 -116 -22 -142 -22c-147 0 -194 86 -194 168c0 130 106 292 296 292c83 0 127 -43 127 -92c0 -43 -30 -78 -72 -78s-50 31 -50 46c0 3 1 49 51 67c-19 20 -46 21 -57 21c-30 0 -92 -15 -131 -87c-27 -52 -55 -174 -55 -213
c0 -57 31 -88 86 -88c15 0 116 0 190 83c7 7 11 7 14 7c10 0 30 -24 30 -32z" />
    <glyph glyph-name="d" unicode="d" 
d="M625 148c0 -4 -13 -60 -39 -102c-13 -20 -38 -54 -85 -54c-39 0 -84 16 -103 51c-24 -19 -71 -51 -132 -51c-76 0 -160 41 -160 160c0 134 100 300 268 300c23 0 59 -4 91 -32l53 217c-12 1 -30 2 -42 2c-9 0 -27 0 -27 18c0 29 20 29 31 30l123 6c14 1 32 2 32 -17
c0 -5 -2 -11 -3 -16l-140 -558c-4 -16 -6 -24 -6 -43c0 -23 7 -31 19 -31c34 0 52 75 60 108c7 25 8 26 32 26c15 0 28 0 28 -14zM386 100c1 8 1 11 3 18l59 236c-11 40 -39 62 -74 62c-26 0 -81 -15 -115 -112c-11 -28 -46 -151 -46 -205c0 -57 34 -71 57 -71
c31 0 73 15 116 72z" />
    <glyph glyph-name="e" unicode="e" horiz-adv-x="532" 
d="M536 86c0 -12 -39 -51 -93 -72c-51 -19 -110 -22 -141 -22c-125 0 -192 67 -192 175c0 154 119 285 292 285c74 0 130 -36 130 -96c0 -138 -198 -138 -258 -138h-40c-9 -34 -16 -73 -16 -98c0 -59 29 -92 85 -92c14 0 115 0 189 83c7 7 11 7 14 7c10 0 30 -24 30 -32z
M467 357c0 32 -23 59 -65 59c-34 0 -78 -16 -106 -50c-29 -32 -39 -62 -53 -112c61 0 224 0 224 103z" />
    <glyph glyph-name="f" unicode="f" horiz-adv-x="400" 
d="M538 623c0 -45 -36 -75 -71 -75c-30 0 -50 19 -50 46c0 28 18 52 40 64c-14 7 -28 8 -32 8c-14 0 -29 -12 -34 -25c-7 -14 -31 -150 -39 -197h104c14 0 32 0 32 -18c0 -29 -18 -29 -35 -29h-110l-60 -324c-8 -44 -13 -63 -26 -106c-47 -148 -130 -169 -167 -169
c-59 0 -109 30 -109 79c0 44 35 75 71 75c30 0 50 -19 50 -46c0 -16 -8 -47 -41 -64c14 -8 30 -8 30 -8c33 0 47 53 50 68c13 50 15 61 25 114l70 381h-86c-15 0 -32 0 -32 18c0 29 18 29 35 29h92l18 98c9 51 38 160 162 160c66 0 113 -32 113 -79z" />
    <glyph glyph-name="g" unicode="g" horiz-adv-x="532" 
d="M451 -64c-22 -87 -118 -138 -239 -138c-74 0 -153 8 -153 70c0 45 36 74 71 74c31 0 50 -21 50 -46c0 -13 -7 -39 -28 -56c12 -3 35 -6 62 -6c54 0 111 29 135 122l17 71c-34 -19 -65 -27 -97 -27c-90 0 -162 52 -162 158c0 129 97 294 267 294c36 0 68 -10 97 -37
c9 9 20 20 47 20c28 0 45 -19 45 -42c0 0 0 -8 -4 -24zM389 117l59 239c-12 44 -44 60 -74 60c-26 0 -77 -15 -110 -98c-14 -35 -49 -156 -49 -211c0 -22 5 -71 58 -71c48 0 107 46 116 81z" />
    <glyph glyph-name="h" unicode="h" 
d="M625 148c0 -21 -49 -156 -153 -156c-54 0 -105 33 -105 89c0 15 3 25 12 50c18 45 64 168 64 228c0 19 0 57 -43 57c-91 0 -147 -94 -154 -122l-62 -249c-12 -48 -50 -53 -62 -53c-27 0 -46 18 -46 43c0 5 0 7 4 22l144 580c-12 1 -30 2 -42 2c-9 0 -27 0 -27 18
c0 29 20 29 31 30l123 6c14 1 32 2 32 -17c0 -5 -2 -11 -3 -16l-65 -259c43 35 83 51 134 51c79 0 138 -30 138 -113c0 -57 -45 -175 -59 -212c-13 -34 -23 -60 -23 -81c0 -18 9 -18 14 -18c57 0 84 95 92 121c4 13 9 13 28 13c15 0 28 0 28 -14z" />
    <glyph glyph-name="i" unicode="i" horiz-adv-x="356" 
d="M390 148c0 -21 -49 -156 -153 -156c-54 0 -105 33 -105 89c0 15 3 23 9 39l90 238c1 2 8 27 8 40c0 18 -9 18 -14 18c-57 0 -84 -95 -92 -121c-4 -13 -9 -13 -28 -13c-15 0 -28 0 -28 14c0 21 49 156 153 156c54 0 105 -33 105 -89c0 -15 -3 -23 -9 -39l-90 -238
c-1 -2 -8 -27 -8 -40c0 -18 9 -18 14 -18c57 0 84 95 92 121c4 13 9 13 28 13c15 0 28 0 28 -14zM404 614c0 -43 -42 -87 -89 -87c-38 0 -62 28 -62 60c0 44 43 87 89 87c41 0 62 -32 62 -60z" />
    <glyph glyph-name="j" unicode="j" horiz-adv-x="356" 
d="M277 -52c-22 -88 -117 -150 -204 -150c-58 0 -102 27 -102 72c0 38 32 72 71 72c31 0 50 -21 50 -46c0 -20 -13 -47 -34 -60c0 0 9 -2 15 -2c60 0 90 89 98 119l97 389c4 16 6 24 6 43c0 30 -12 31 -21 31c-26 0 -75 -18 -117 -117c-8 -16 -9 -17 -31 -17
c-15 0 -28 0 -28 14c0 17 66 156 181 156c60 0 117 -34 117 -97c0 -6 0 -13 -4 -29zM404 614c0 -43 -42 -87 -89 -87c-38 0 -62 28 -62 60c0 44 43 87 89 87c41 0 62 -32 62 -60z" />
    <glyph glyph-name="k" unicode="k" horiz-adv-x="532" 
d="M566 148c0 -8 -35 -156 -136 -156c-65 0 -118 42 -118 102c0 11 1 16 3 25c3 11 3 16 3 21c0 53 -62 69 -92 74l-45 -181c-11 -28 -38 -41 -59 -41c-27 0 -46 18 -46 43c0 5 0 7 4 22l144 580c-12 1 -30 2 -42 2c-9 0 -27 0 -27 18c0 29 20 29 31 30l123 6
c14 1 32 2 32 -17c0 -5 -2 -11 -3 -16l-97 -386c24 15 41 29 81 71c64 68 113 107 169 107c57 0 71 -49 71 -79c0 -66 -44 -87 -73 -87c-31 0 -50 21 -50 46c0 33 26 67 67 72c-3 12 -15 12 -18 12c-38 0 -81 -25 -149 -101c-2 -1 -36 -38 -72 -64c72 -8 158 -31 158 -107
c0 -10 -2 -20 -4 -30c-8 -32 -8 -52 -8 -52c0 -32 13 -34 22 -34c36 0 56 48 71 107c7 26 8 27 32 27c15 0 28 0 28 -14z" />
    <glyph glyph-name="l" unicode="l" horiz-adv-x="297" 
d="M331 148c0 -4 -13 -60 -39 -102c-13 -20 -38 -54 -85 -54c-56 0 -116 33 -116 97c0 6 0 13 4 29l129 519c-12 1 -30 2 -42 2c-9 0 -27 0 -27 18c0 29 20 29 31 30l123 6c14 1 32 2 32 -17c0 -5 -2 -11 -3 -16l-140 -558c-4 -16 -6 -24 -6 -43c0 -23 7 -31 19 -31
c34 0 52 75 60 108c7 25 8 26 32 26c15 0 28 0 28 -14z" />
    <glyph glyph-name="m" unicode="m" horiz-adv-x="944" 
d="M978 148c0 -21 -49 -156 -153 -156c-54 0 -105 33 -105 89c0 15 3 25 12 50c18 45 64 168 64 228c0 19 0 57 -43 57c-90 0 -147 -93 -154 -122l-61 -246c-13 -51 -52 -56 -64 -56c-21 0 -45 12 -45 43c0 7 10 47 16 71l42 168c11 43 15 60 15 85c0 19 0 57 -43 57
c-91 0 -147 -93 -154 -122l-62 -248c-13 -52 -56 -54 -63 -54c-21 0 -45 12 -45 43c0 5 0 7 4 22l71 285c4 16 6 24 6 43c0 23 -7 31 -19 31c-34 0 -52 -75 -60 -108c-7 -25 -8 -26 -32 -26c-15 0 -28 0 -28 14c0 4 13 60 39 102c13 20 38 54 85 54c32 0 92 -12 112 -69
c66 69 132 69 153 69s112 0 134 -76c34 34 80 76 160 76c79 0 138 -30 138 -113c0 -57 -45 -175 -59 -212c-13 -34 -23 -60 -23 -81c0 -18 9 -18 14 -18c57 0 84 95 92 121c4 13 9 13 28 13c15 0 28 0 28 -14z" />
    <glyph glyph-name="n" unicode="n" horiz-adv-x="650" 
d="M684 148c0 -21 -49 -156 -153 -156c-54 0 -105 33 -105 89c0 15 3 25 12 50c18 45 64 168 64 228c0 19 0 57 -43 57c-91 0 -147 -93 -154 -122l-62 -248c-13 -52 -56 -54 -63 -54c-21 0 -45 12 -45 43c0 5 0 7 4 22l71 285c4 16 6 24 6 43c0 23 -7 31 -19 31
c-34 0 -52 -75 -60 -108c-7 -25 -8 -26 -32 -26c-15 0 -28 0 -28 14c0 4 13 60 39 102c13 20 38 54 85 54c32 0 92 -12 112 -69c66 69 132 69 153 69c79 0 138 -30 138 -113c0 -57 -45 -175 -59 -212c-13 -34 -23 -60 -23 -81c0 -18 9 -18 14 -18c57 0 84 95 92 121
c4 13 9 13 28 13c15 0 28 0 28 -14z" />
    <glyph glyph-name="o" unicode="o" 
d="M595 284c0 -126 -101 -292 -298 -292c-119 0 -190 65 -190 168c0 125 100 292 298 292c119 0 190 -65 190 -168zM435 124c25 53 51 165 51 204c0 71 -48 88 -83 88c-51 0 -107 -33 -136 -96c-25 -53 -51 -165 -51 -204c0 -71 48 -88 83 -88c51 0 107 33 136 96z" />
    <glyph glyph-name="p" unicode="p" 
d="M596 292c0 -134 -100 -300 -268 -300c-23 0 -59 4 -91 32l-42 -170c13 -1 29 -1 43 -1c10 0 27 -1 27 -18c0 -29 -20 -29 -27 -29c-34 0 -70 3 -105 3c-29 0 -61 -3 -89 -3c-9 0 -19 6 -19 18c0 29 17 29 32 29c30 0 31 1 35 16l118 473c4 16 6 24 6 43
c0 23 -7 31 -19 31c-34 0 -52 -75 -60 -108c-7 -25 -8 -26 -32 -26c-15 0 -28 0 -28 14c0 4 13 60 39 102c13 20 38 54 85 54c39 0 84 -16 103 -51c24 19 71 51 132 51c76 0 160 -41 160 -160zM443 140c11 28 46 151 46 205c0 57 -34 71 -57 71c-31 0 -73 -15 -116 -72
c-1 -8 -1 -11 -3 -18l-59 -236c11 -40 39 -62 74 -62c26 0 81 15 115 112z" />
    <glyph glyph-name="q" unicode="q" horiz-adv-x="532" 
d="M500 -165c0 -29 -20 -29 -27 -29c-35 0 -72 3 -108 3c-34 0 -70 -3 -104 -3c-17 0 -20 13 -20 18c0 29 18 29 36 29c0 0 21 0 34 1c12 1 13 2 16 16l37 150c-16 -10 -53 -28 -98 -28c-76 0 -160 41 -160 160c0 134 100 300 268 300c26 0 65 -5 97 -38c29 25 85 38 85 38
c15 0 18 -14 18 -18s-1 -10 -2 -14l-142 -566c13 -1 29 -1 43 -1c10 0 27 -1 27 -18zM387 110l61 244c-11 40 -39 62 -74 62c-26 0 -81 -15 -115 -112c-11 -28 -46 -151 -46 -205c0 -57 34 -71 57 -71c50 0 108 47 117 82z" />
    <glyph glyph-name="r" unicode="r" horiz-adv-x="502" 
d="M562 363c0 -45 -34 -77 -72 -77c-31 0 -50 21 -50 46c0 4 1 46 47 67c-20 16 -44 17 -55 17c-70 0 -115 -75 -121 -98l-68 -272c-13 -52 -56 -54 -63 -54c-21 0 -45 12 -45 43c0 5 0 7 4 22l71 285c4 16 6 24 6 43c0 23 -7 31 -19 31c-34 0 -52 -75 -60 -108
c-7 -25 -8 -26 -32 -26c-15 0 -28 0 -28 14c0 4 13 60 39 102c13 20 38 54 85 54c49 0 89 -23 106 -54c43 43 90 54 128 54c73 0 127 -36 127 -89z" />
    <glyph glyph-name="s" unicode="s" horiz-adv-x="487" 
d="M465 164c0 -33 -20 -96 -72 -133c-54 -38 -118 -39 -146 -39c-97 0 -162 36 -162 99c0 49 35 78 72 78c17 0 49 -8 49 -46c0 -46 -42 -65 -49 -68c33 -27 80 -27 93 -27c139 0 139 96 139 96c0 46 -53 56 -105 66c-31 6 -117 23 -117 108c0 31 20 84 53 112
c18 15 53 42 131 42c79 0 135 -33 135 -88c0 -49 -37 -69 -62 -69s-44 16 -44 41c0 3 0 39 38 56c-23 24 -59 24 -69 24c-106 0 -106 -78 -106 -78c0 -37 41 -45 71 -51c53 -10 78 -15 107 -38c37 -29 44 -63 44 -85z" />
    <glyph glyph-name="t" unicode="t" horiz-adv-x="385" 
d="M419 148c0 -17 -66 -156 -181 -156c-60 0 -117 34 -117 97c0 6 0 13 4 29l70 279h-72c-15 0 -32 0 -32 18c0 29 17 29 35 29h81l36 146c12 47 50 53 63 53c28 0 45 -19 45 -42c0 -8 -11 -52 -18 -78l-19 -79h71c14 0 31 0 31 -18c0 -29 -17 -29 -34 -29h-80l-74 -295
c-4 -16 -6 -24 -6 -43c0 -30 12 -31 21 -31c26 0 75 18 117 117c8 16 9 17 31 17c15 0 28 0 28 -14z" />
    <glyph glyph-name="u" unicode="u" horiz-adv-x="621" 
d="M655 148c0 -4 -13 -60 -39 -102c-13 -20 -38 -54 -85 -54c-39 0 -84 16 -103 51c-49 -46 -91 -51 -119 -51c-83 0 -148 35 -148 126c0 56 28 128 60 214c6 14 18 45 18 66c0 18 -9 18 -14 18c-57 0 -84 -95 -92 -121c-4 -13 -9 -13 -28 -13c-15 0 -28 0 -28 14
c0 21 49 156 153 156c54 0 105 -33 105 -89c0 -17 -5 -29 -14 -54c-24 -63 -58 -152 -58 -212c0 -22 2 -69 52 -69c30 0 55 16 69 29c28 28 29 32 33 50l69 281c12 50 51 56 64 56c21 0 45 -12 45 -43c0 -5 0 -7 -4 -22l-69 -277c-4 -16 -6 -24 -6 -43c0 -23 7 -31 19 -31
c34 0 52 75 60 108c7 25 8 26 32 26c15 0 28 0 28 -14z" />
    <glyph glyph-name="v" unicode="v" horiz-adv-x="532" 
d="M555 365c0 -52 -56 -373 -234 -373c-62 0 -159 17 -159 130c0 51 21 109 59 210c6 14 18 45 18 66c0 18 -9 18 -14 18c-57 0 -84 -95 -92 -121c-4 -13 -9 -13 -28 -13c-15 0 -28 0 -28 14c0 21 49 156 153 156c54 0 105 -33 105 -89c0 -17 -4 -28 -14 -53
c-25 -66 -57 -151 -57 -207c0 -31 8 -75 64 -75c112 0 154 242 154 246c0 30 -19 51 -39 65c-10 8 -24 18 -24 42c0 36 37 72 72 72c19 0 64 -14 64 -88z" />
    <glyph glyph-name="w" unicode="w" horiz-adv-x="768" 
d="M791 365c0 -50 -32 -174 -62 -243c-35 -80 -84 -130 -157 -130c-42 0 -102 8 -136 51c-22 -28 -57 -51 -106 -51c-70 0 -168 21 -168 132c0 51 22 111 59 208c6 14 18 45 18 66c0 18 -9 18 -14 18c-57 0 -84 -95 -92 -121c-4 -13 -9 -13 -28 -13c-15 0 -28 0 -28 14
c0 21 49 156 153 156c54 0 105 -33 105 -89c0 -17 -5 -30 -12 -47c-31 -84 -58 -154 -58 -210c0 -17 0 -78 71 -78c33 0 59 27 78 70c-2 9 -2 14 -2 24c0 28 14 82 24 122l34 136c4 19 16 64 65 64c21 0 45 -12 45 -43c0 -10 -6 -34 -15 -67c-27 -104 -51 -196 -51 -231
c0 -31 8 -75 64 -75c43 0 72 34 93 83c23 53 47 148 47 163c0 30 -19 51 -39 65c-10 8 -24 18 -24 42c0 36 37 72 72 72c19 0 64 -14 64 -88z" />
    <glyph glyph-name="x" unicode="x" horiz-adv-x="561" 
d="M595 148c0 -32 -66 -156 -191 -156c-55 0 -102 19 -125 53c-16 -19 -51 -53 -102 -53c-61 0 -109 36 -109 88c0 46 34 78 72 78c31 0 50 -21 50 -46c0 -4 0 -49 -51 -68c15 -16 37 -16 40 -16c41 0 66 45 80 100l32 130c9 36 22 88 22 109c0 11 0 49 -51 49
c-40 0 -102 -34 -128 -120c-5 -14 -9 -14 -29 -14c-15 0 -28 0 -28 14c0 32 66 156 190 156c59 0 103 -21 126 -53c40 47 79 53 102 53c59 0 109 -35 109 -88c0 -47 -35 -78 -72 -78c-31 0 -50 21 -50 46c0 4 0 49 51 68c-16 16 -36 16 -41 16c-40 0 -68 -51 -77 -89
l-54 -222c-3 -12 -3 -22 -3 -28c0 -10 0 -49 51 -49c43 0 103 36 129 120c5 14 9 14 29 14c15 0 28 0 28 -14z" />
    <glyph glyph-name="y" unicode="y" horiz-adv-x="562" 
d="M495 -7c-24 -97 -135 -195 -261 -195c-74 0 -127 34 -127 87c0 43 32 76 72 76c18 0 49 -8 49 -46s-30 -59 -45 -66c20 -14 43 -15 52 -15c77 0 139 92 158 182c-15 -10 -44 -24 -84 -24c-83 0 -148 35 -148 126c0 56 28 128 60 214c6 14 18 45 18 66c0 18 -9 18 -14 18
c-57 0 -84 -95 -92 -121c-4 -13 -9 -13 -28 -13c-15 0 -28 0 -28 14c0 21 49 156 153 156c54 0 105 -33 105 -89c0 -17 -5 -29 -14 -54c-24 -63 -58 -152 -58 -212c0 -22 2 -69 52 -69c31 0 55 17 63 24c30 25 34 40 37 52l72 286c13 53 57 54 63 54c21 0 45 -12 45 -43
c0 -5 0 -7 -4 -22z" />
    <glyph glyph-name="z" unicode="z" horiz-adv-x="491" 
d="M526 151c0 -34 -69 -159 -181 -159c-36 0 -57 16 -85 38c-20 15 -38 30 -63 30c-31 0 -59 -30 -78 -58c-6 -9 -7 -10 -27 -10c-16 0 -28 0 -28 14c0 19 63 90 110 137c27 26 77 67 117 99c70 58 95 83 117 106h-21c-15 0 -54 -2 -69 -2h-71c-33 -2 -41 -7 -46 -16
c-6 -12 -8 -12 -28 -12c-13 0 -28 0 -28 14c0 30 55 120 142 120c27 0 49 -10 79 -33c21 -17 42 -35 67 -35c15 0 39 39 51 57c7 10 8 11 28 11c16 0 28 0 28 -14c0 -16 -53 -81 -110 -137c-27 -26 -77 -67 -117 -99c-70 -58 -95 -83 -117 -106h48l68 2c85 1 136 2 158 57
c5 11 11 11 28 11c14 0 28 0 28 -15z" />
    <glyph glyph-name="braceleft" unicode="{" horiz-adv-x="575" 
d="M438 -232c-4 -18 -13 -18 -35 -18c-67 0 -231 11 -199 139l53 210c9 37 10 39 10 47c0 36 -25 81 -114 86c-12 1 -16 5 -12 18c4 17 12 17 26 18c42 2 80 16 108 37c41 29 46 50 61 112l52 206c20 77 123 127 265 127c22 0 31 0 26 -18c-4 -17 -12 -17 -26 -18
c-53 -3 -87 -21 -99 -28c-47 -29 -54 -58 -59 -80l-53 -210c-11 -45 -28 -114 -155 -146c80 -23 99 -74 90 -116l-60 -237c-4 -17 -6 -25 -5 -35c3 -36 31 -71 114 -76c11 -1 15 -5 12 -18z" />
    <glyph glyph-name="bar" unicode="|" horiz-adv-x="319" 
d="M139 -206c-4 -15 -11 -44 -42 -44c-30 0 -23 30 -19 44l228 912c3 15 11 44 42 44c30 0 22 -30 19 -44z" />
    <glyph glyph-name="braceright" unicode="}" horiz-adv-x="575" 
d="M559 250c-5 -17 -13 -17 -27 -18c-54 -3 -92 -25 -106 -36c-42 -31 -46 -48 -62 -113l-52 -206c-19 -73 -115 -127 -265 -127c-21 0 -31 0 -27 18c4 17 12 17 27 18c54 3 90 23 102 30c44 29 51 55 57 78l52 210c12 46 29 114 156 146c-81 24 -100 74 -90 116l59 237
c4 17 6 25 6 35c-3 39 -35 72 -115 76c-12 1 -16 5 -13 18c5 18 15 18 36 18c82 0 230 -16 199 -139l-53 -210c-9 -39 -10 -41 -9 -49c3 -55 49 -81 112 -84c12 -1 16 -5 13 -18z" />
    <glyph glyph-name="asciitilde" unicode="~" horiz-adv-x="556" 
d="M627 290l-65 -44c-20 -14 -43 -25 -65 -35c-25 -10 -53 -18 -78 -18c-40 0 -67 17 -91 34c-30 20 -55 37 -95 37c-51 0 -112 -30 -171 -71l-10 17l65 44c21 14 44 25 66 35c25 10 53 18 78 18c40 0 66 -17 91 -34c30 -20 55 -37 95 -37c51 0 111 30 171 71z" />
    <glyph glyph-name="uni00A0" unicode="&#xa0;" 
 />
    <glyph glyph-name="exclamdown" unicode="&#xa1;" horiz-adv-x="386" 
d="M375 440c0 -49 -47 -87 -88 -87c-38 0 -62 27 -62 60c0 48 46 87 88 87c35 0 62 -24 62 -60zM233 -133c-10 -71 -76 -78 -88 -78c-44 0 -63 31 -63 56c0 9 2 13 7 28l141 390c6 17 7 18 30 18c20 0 31 0 27 -28z" />
    <glyph glyph-name="cent" unicode="&#xa2;" horiz-adv-x="532" 
d="M536 86c0 -12 -39 -51 -93 -72c-46 -17 -98 -21 -128 -22l-10 -40c-4 -13 -17 -24 -30 -24c-14 0 -22 11 -18 24l10 42c-120 12 -160 91 -160 166c0 125 98 280 275 291l10 41c3 14 17 24 30 24s21 -10 18 -24l-11 -42c66 -8 101 -46 101 -90c0 -43 -30 -78 -72 -78
s-50 31 -50 46c0 3 1 49 51 67c-12 12 -26 17 -39 20l-96 -386c37 3 111 18 168 82c7 7 11 7 14 7c10 0 30 -24 30 -32zM372 412c-32 -8 -73 -30 -101 -83c-27 -52 -55 -174 -55 -213c0 -47 21 -77 60 -85z" />
    <glyph glyph-name="sterling" unicode="&#xa3;" horiz-adv-x="869" 
d="M741 139c0 -40 -76 -147 -220 -147c-55 0 -87 13 -183 51c-49 -38 -109 -51 -156 -51c-61 0 -81 23 -81 48c0 43 54 99 150 99c0 0 26 0 53 -5l49 190h-46c-15 0 -29 0 -29 14c0 3 4 21 8 26c4 7 10 7 25 7h53l39 156c22 88 106 179 240 179c98 0 142 -73 142 -142
c0 -59 -25 -102 -75 -102c-31 0 -50 21 -50 46c0 21 15 66 69 71c-4 53 -33 91 -86 91c-94 0 -121 -100 -130 -133c-7 -27 5 18 -42 -166h76c17 0 28 0 28 -15c0 -3 -4 -21 -7 -26c-4 -6 -9 -6 -26 -6h-82l-41 -161c-1 -6 -7 -28 -26 -58c44 -20 102 -46 159 -46
c9 0 103 0 133 84c4 10 11 10 28 10c14 0 28 0 28 -14zM267 66c-24 6 -27 6 -47 6c-30 0 -54 -14 -54 -31c0 -10 9 -13 19 -13c6 0 47 1 82 38z" />
    <glyph glyph-name="currency" unicode="&#xa4;" horiz-adv-x="886" 
d="M700 7c-15 -12 -38 -14 -51 -5c-2 1 -5 4 -8 10l-38 50c-48 -31 -103 -49 -157 -49s-100 18 -132 49l-59 -47c-13 -10 -38 -30 -61 -14s3 37 15 47l72 57c-21 40 -26 91 -13 145c14 54 45 105 85 145l-45 61c-5 6 -16 22 5 39c11 9 34 16 50 5c3 -3 4 -4 11 -14l35 -47
c48 30 102 48 156 48s100 -18 132 -49l60 48c11 8 38 30 61 14s-5 -39 -15 -46l-74 -59c21 -40 27 -91 13 -145c-13 -54 -43 -103 -84 -143l47 -62c4 -6 16 -21 -5 -38zM682 250c25 98 -35 177 -132 177c-98 0 -197 -79 -222 -177c-24 -98 35 -177 133 -177s197 79 221 177z
" />
    <glyph glyph-name="yen" unicode="&#xa5;" horiz-adv-x="866" 
d="M985 668c0 -29 -18 -29 -30 -29c-73 -1 -89 -19 -107 -40l-209 -242h142c16 0 25 -13 21 -28c-4 -16 -19 -28 -35 -28h-177l-23 -27l-19 -75h194c16 0 25 -12 21 -28c-4 -15 -19 -28 -35 -28h-194l-23 -94c12 -1 38 -2 49 -2h22c15 0 32 0 32 -18c0 -29 -19 -29 -29 -29
c-49 0 -101 3 -151 3c-49 0 -100 -3 -148 -3c-11 0 -22 5 -22 18c0 29 18 29 35 29h22c11 0 29 0 40 1c19 3 20 4 24 18l19 77h-195c-15 0 -25 13 -21 28c4 16 20 28 35 28h195l19 75l-10 27h-179c-15 0 -25 12 -21 28c4 15 20 28 35 28h145l-98 266c-5 12 -6 13 -20 15
c-9 1 -24 1 -33 1h-12c-14 0 -32 0 -32 18c0 29 20 29 28 29c45 0 92 -3 138 -3c50 0 102 3 151 3c10 0 22 -4 22 -18c0 -29 -18 -29 -31 -29c-23 0 -37 -1 -61 -4l101 -278h7l236 274c-16 6 -33 8 -50 8c-8 0 -26 0 -26 18c0 29 20 29 28 29c37 0 77 -3 115 -3
c32 0 65 3 96 3c13 0 19 -10 19 -18z" />
    <glyph glyph-name="brokenbar" unicode="&#xa6;" horiz-adv-x="319" 
d="M367 706l-92 -365c-3 -14 -20 -24 -36 -24s-28 10 -25 24l92 365c3 15 11 44 42 44c30 0 22 -30 19 -44zM139 -206c-4 -15 -11 -44 -42 -44c-30 0 -23 30 -19 44l91 365c3 14 20 24 36 24s28 -10 25 -24z" />
    <glyph glyph-name="section" unicode="&#xa7;" horiz-adv-x="685" 
d="M686 200c-16 -63 -70 -112 -134 -135c13 -28 16 -60 7 -96c-27 -109 -153 -183 -270 -183c-108 0 -186 74 -160 177c8 32 40 58 72 58s52 -26 44 -58c-7 -25 -28 -47 -52 -55c20 -29 66 -44 116 -44c68 0 140 42 156 105c14 54 -41 77 -92 93l-114 37
c-92 29 -159 102 -134 201c16 62 70 112 134 134c-13 28 -16 61 -7 97c27 109 153 183 270 183c108 0 186 -74 160 -177c-8 -32 -40 -58 -72 -58s-52 26 -44 58c7 25 28 47 52 55c-20 29 -66 44 -116 44c-68 0 -140 -42 -156 -105c-14 -54 41 -77 92 -93l114 -37
c92 -29 159 -102 134 -201zM582 200c14 54 -34 83 -85 99l-115 37c-35 11 -66 29 -90 52c-30 -16 -54 -51 -63 -88c-14 -54 34 -83 85 -99l115 -37c35 -12 66 -29 90 -52c30 16 54 51 63 88z" />
    <glyph glyph-name="dieresis" unicode="&#xa8;" 
d="M391 613c0 -39 -37 -78 -79 -78c-35 0 -56 25 -57 54c0 39 40 78 81 78c37 0 55 -29 55 -54zM636 613c0 -39 -37 -78 -79 -78c-35 0 -56 25 -57 54c0 39 40 78 81 78c37 0 55 -29 55 -54z" />
    <glyph glyph-name="copyright" unicode="&#xa9;" horiz-adv-x="686" 
d="M686 343c0 -189 -153 -343 -343 -343c-189 0 -343 154 -343 343c0 190 154 343 343 343c190 0 343 -153 343 -343zM626 343c0 156 -127 283 -283 283s-283 -127 -283 -283s127 -283 283 -283s283 127 283 283zM490 391c-2 -9 -3 -9 -15 -9c-9 0 -14 0 -14 7c0 3 1 6 1 20
c0 44 -22 81 -68 81c-32 0 -77 -12 -109 -51c-42 -51 -53 -141 -53 -162c0 -10 0 -39 21 -59c21 -19 50 -22 65 -22c37 0 98 25 121 98c1 4 6 4 13 4s13 0 13 -6c0 -4 -11 -46 -50 -78c-37 -29 -74 -40 -108 -40c-70 0 -139 33 -139 123c0 100 81 215 219 215
c12 0 49 0 78 -32l41 32c7 0 12 0 12 -7c0 0 0 -2 -2 -9z" />
    <glyph glyph-name="ordfeminine" unicode="&#xaa;" horiz-adv-x="544" 
d="M616 490c1 -2 -8 -42 -29 -71c-10 -14 -30 -38 -69 -38c-33 0 -71 11 -89 36c-19 -13 -57 -36 -109 -36c-63 0 -135 29 -140 112c-4 94 74 210 215 210c22 0 55 -3 83 -26c10 9 24 14 39 14c23 0 38 -13 39 -29c0 -3 0 -4 -3 -15l-47 -189c-2 -11 -4 -17 -3 -30
c1 -16 7 -22 17 -22c28 0 41 53 47 76c5 17 5 18 25 18c13 0 24 0 24 -10zM554 334c-2 -9 -15 -16 -28 -16h-349c-13 0 -22 7 -20 16c2 10 15 17 28 17h349c13 0 22 -7 20 -17zM417 457c1 5 1 7 2 12l42 166c-11 28 -35 43 -65 43c-22 0 -67 -11 -92 -78
c-9 -20 -34 -106 -32 -144c2 -40 31 -50 50 -50c27 0 61 11 95 51z" />
    <glyph glyph-name="guillemotleft" unicode="&#xab;" horiz-adv-x="650" 
d="M435 453c-32 -76 -74 -150 -124 -220c15 -70 20 -144 14 -220c0 -7 -6 -13 -14 -13h-8c-7 0 -13 6 -13 13c-9 81 -37 154 -83 215c-2 2 -3 5 -3 8c0 5 2 9 5 11c78 61 144 136 194 218c2 5 7 7 12 7h8c7 0 14 -6 14 -14c0 -2 -1 -4 -2 -5zM615 453
c-32 -76 -74 -150 -124 -220c15 -70 20 -144 14 -220c0 -7 -6 -13 -14 -13h-8c-7 0 -13 6 -13 13c-9 81 -37 154 -83 215c-2 2 -3 5 -3 8c0 5 2 9 5 11c78 61 144 136 194 218c2 5 7 7 12 7h8c7 0 14 -6 14 -14c0 -2 -1 -4 -2 -5z" />
    <glyph glyph-name="logicalnot" unicode="&#xac;" horiz-adv-x="886" 
d="M888 363l-57 -225c-4 -17 -21 -30 -37 -30c-17 0 -27 13 -23 30l49 195h-617c-17 0 -27 13 -23 30s21 30 38 30h647c17 0 27 -13 23 -30z" />
    <glyph glyph-name="uni00AD" unicode="&#xad;" horiz-adv-x="414" 
d="M375 202c-6 -24 -7 -27 -37 -27h-213c-15 0 -33 0 -33 19c0 3 10 43 11 50c6 23 7 25 35 25h217c14 0 32 0 32 -18c0 -3 -8 -33 -12 -49z" />
    <glyph glyph-name="registered" unicode="&#xae;" horiz-adv-x="686" 
d="M686 343c0 -189 -153 -343 -343 -343c-189 0 -343 154 -343 343c0 190 154 343 343 343c190 0 343 -153 343 -343zM626 343c0 156 -127 283 -283 283s-283 -127 -283 -283s127 -283 283 -283s283 127 283 283zM547 233c0 -7 -16 -55 -63 -55c-16 0 -83 2 -83 53
c0 7 1 11 7 36c4 12 7 28 7 35c0 37 -32 37 -39 37h-50l-32 -130c3 0 18 -1 23 -1h10c7 0 15 0 15 -8c0 -14 -9 -14 -13 -14c-23 0 -48 2 -71 2s-47 -2 -70 -2c-5 0 -10 2 -10 9c0 13 8 13 16 13h11c5 0 13 1 19 1c8 1 8 1 10 8l67 268c-5 0 -17 1 -23 1h-10
c-7 0 -15 0 -15 8c0 14 9 14 17 14h154c50 0 111 -16 111 -71c0 -43 -40 -78 -95 -92c28 -12 38 -32 38 -50c0 -3 0 -5 -3 -24c-6 -38 -6 -42 -6 -50c0 -12 1 -26 18 -26c13 0 26 14 33 37c3 9 5 9 14 9c5 0 13 0 13 -8zM470 449c0 37 -39 37 -76 37h-21
c-10 0 -10 -1 -12 -8l-31 -123h47c24 0 48 5 67 20c19 17 26 64 26 74z" />
    <glyph glyph-name="macron" unicode="&#xaf;" 
d="M638 608c0 -32 -17 -32 -35 -32h-317c-15 0 -32 0 -32 18c0 32 17 32 35 32h317c15 0 32 0 32 -18z" />
    <glyph glyph-name="degree" unicode="&#xb0;" horiz-adv-x="443" 
d="M504 539c-21 -81 -103 -147 -184 -147c-82 0 -131 66 -111 147s103 147 184 147c82 0 131 -66 111 -147zM444 539c12 48 -18 87 -66 87s-97 -39 -109 -87s17 -87 66 -87c48 0 97 39 109 87z" />
    <glyph glyph-name="plusminus" unicode="&#xb1;" horiz-adv-x="886" 
d="M804 30c0 -30 -32 -30 -43 -30h-620c-15 0 -43 0 -43 31c0 30 29 30 43 30h286l64 255h-271c-15 0 -43 0 -43 31c0 30 29 30 43 30h286l72 285c2 9 8 31 32 31c13 0 30 -10 30 -31c0 -4 0 -6 -4 -20l-67 -265h271c12 0 43 0 43 -31c0 -30 -32 -30 -43 -30h-286l-64 -255
h271c12 0 43 0 43 -31z" />
    <glyph glyph-name="two.superior" unicode="&#xb2;" horiz-adv-x="447" 
d="M504 407c1 -16 -40 -111 -131 -111c-32 0 -57 14 -81 26s-47 24 -72 24c-16 0 -28 -9 -37 -41c-3 -9 -6 -9 -21 -9c-10 0 -19 0 -20 9c0 9 23 98 147 153c32 14 76 35 108 72c29 37 30 98 30 100c-2 41 -36 52 -63 52c-83 0 -141 -85 -138 -129c0 -17 9 -17 14 -17
c41 0 69 52 68 69c0 7 -4 14 -9 20c-1 1 -4 4 -4 6c0 3 2 6 5 8s6 4 10 4c10 0 23 -21 24 -36c1 -28 -34 -93 -96 -93c-30 0 -50 19 -52 45c-2 48 67 144 180 144c75 0 137 -32 141 -99c3 -68 -40 -105 -183 -168c-22 -9 -69 -29 -104 -68c25 0 52 -1 83 -4
c8 -1 53 -5 76 -5c47 0 75 23 84 48c3 9 4 9 21 9c11 0 20 0 20 -9z" />
    <glyph glyph-name="three.superior" unicode="&#xb3;" horiz-adv-x="415" 
d="M513 623c2 -36 -23 -96 -104 -120c33 -13 54 -37 55 -73c4 -72 -72 -134 -193 -134c-71 0 -118 34 -120 80c-3 49 39 54 50 54c24 0 36 -14 37 -27c1 -12 -8 -38 -44 -42c10 -30 43 -43 75 -43c44 0 77 19 90 43c17 29 26 83 25 96c-1 36 -38 36 -52 36h-23
c-13 0 -23 0 -23 9c0 0 2 13 5 16c2 3 2 3 18 3h20c21 0 62 0 86 33c17 21 26 73 26 88c-2 32 -30 40 -56 40c-70 0 -132 -47 -130 -90c1 -8 4 -17 15 -17c17 0 39 14 38 32c0 6 -4 12 -8 17c-2 1 -5 4 -5 7s2 6 5 8s6 4 10 4c10 0 24 -22 24 -35c2 -28 -29 -54 -65 -54
c-29 0 -52 16 -54 42c-2 48 69 107 172 107c72 0 123 -27 126 -80z" />
    <glyph glyph-name="acute" unicode="&#xb4;" 
d="M596 651c0 -31 -25 -46 -39 -54l-153 -89c-5 -3 -10 -6 -16 -6c-16 0 -28 27 -28 33c0 7 6 14 12 19l122 114c20 19 33 31 55 31c25 0 47 -20 47 -48z" />
    <glyph glyph-name="uni00B5" unicode="&#xb5;" 
d="M625 148c0 -6 -16 -66 -40 -105c-15 -23 -40 -54 -85 -54c-17 0 -78 5 -105 57c-44 -40 -83 -57 -132 -57c-51 0 -90 15 -90 15l-36 -145c-8 -32 -19 -75 -68 -75c-22 0 -45 13 -45 43c0 0 0 8 4 24l137 549c11 44 45 55 64 55c26 0 45 -18 45 -42c0 -7 -9 -44 -15 -66
l-42 -168c-6 -24 -12 -49 -12 -78c0 -21 0 -76 65 -76c72 0 115 77 116 80l64 256c4 18 10 41 16 53c9 15 31 30 54 30c22 0 45 -13 45 -43c0 -6 -5 -25 -8 -38l-37 -150l-24 -95c-4 -17 -11 -44 -11 -63c0 -30 12 -30 19 -30c34 0 53 76 59 103c7 24 7 26 9 29
c5 4 6 5 25 5c14 0 28 0 28 -14z" />
    <glyph glyph-name="paragraph" unicode="&#xb6;" horiz-adv-x="703" 
d="M836 663c-8 -30 -38 -30 -53 -30h-51l-195 -783c-4 -15 -11 -44 -42 -44c-30 0 -23 30 -19 44l195 783h-80l-195 -783c-4 -15 -11 -44 -42 -44c-30 0 -23 30 -19 44l92 370c-180 11 -282 103 -249 237c35 139 195 237 347 237h274c16 0 45 0 37 -31z" />
    <glyph glyph-name="periodcentered" unicode="&#xb7;" horiz-adv-x="886" 
d="M604 358c0 -47 -45 -88 -90 -88c-29 0 -60 18 -60 59c0 50 48 88 89 88c36 0 61 -24 61 -59z" />
    <glyph glyph-name="cedilla" unicode="&#xb8;" horiz-adv-x="532" 
d="M395 -125c-19 -75 -165 -75 -283 -75c-15 0 -24 13 -21 28c4 15 20 28 35 28c61 0 144 0 149 19c4 18 -50 18 -92 18l28 112h112l-14 -56c53 0 98 -27 86 -74z" />
    <glyph glyph-name="one.superior" unicode="&#xb9;" horiz-adv-x="428" 
d="M431 324c1 -17 -12 -17 -20 -17l-117 1l-112 -1c-15 0 -16 7 -17 10c-1 18 12 18 25 18h22c11 0 22 0 32 1c15 1 16 2 19 11l67 268c-31 -12 -65 -17 -84 -17c-15 0 -17 7 -17 11c-1 16 12 16 17 17c49 3 102 17 155 71c4 3 6 6 14 6c13 0 15 -9 15 -11c0 0 0 -4 -1 -7
l-87 -348c19 -2 20 -2 42 -2h24c10 0 23 0 23 -11z" />
    <glyph glyph-name="ordmasculine" unicode="&#xba;" horiz-adv-x="496" 
d="M587 586c4 -89 -75 -205 -241 -205c-100 0 -161 46 -165 118c-4 87 74 204 240 204c100 0 162 -45 166 -117zM506 334c-2 -9 -15 -16 -28 -16h-301c-13 0 -22 7 -20 16c3 10 15 17 28 17h302c13 0 22 -7 19 -17zM458 474c19 37 37 115 35 142c-2 50 -43 62 -72 62
c-43 0 -89 -23 -111 -67c-19 -37 -37 -116 -36 -143c3 -50 43 -62 73 -62c43 0 89 23 111 68z" />
    <glyph glyph-name="guillemotright" unicode="&#xbb;" horiz-adv-x="650" 
d="M565 236c0 -4 -2 -8 -5 -11c-78 -61 -144 -136 -194 -218c-2 -4 -7 -7 -12 -7h-8c-7 0 -14 6 -14 14c0 2 1 4 2 5c32 76 74 150 124 220c-15 70 -20 144 -15 220c1 8 7 13 14 13h8c8 0 14 -5 14 -12c9 -81 37 -155 83 -215c2 -3 3 -6 3 -9zM385 236c0 -4 -2 -8 -5 -11
c-78 -61 -144 -136 -194 -218c-2 -4 -7 -7 -12 -7h-8c-7 0 -14 6 -14 14c0 2 1 4 2 5c32 76 74 150 124 220c-15 70 -20 144 -15 220c1 8 7 13 14 13h8c8 0 14 -5 14 -12c9 -81 37 -155 83 -215c2 -3 3 -6 3 -9z" />
    <glyph glyph-name="onequarter" unicode="&#xbc;" horiz-adv-x="966" 
d="M431 324c2 -17 -12 -17 -20 -17l-117 1l-112 -1c-14 0 -16 7 -17 10c0 18 12 18 25 18h22c11 0 22 0 32 1c15 1 17 2 19 11l67 268c-30 -12 -64 -17 -83 -17c-15 0 -18 7 -18 11c-1 16 11 16 18 17c47 3 101 17 153 71c5 3 8 6 15 6c14 0 16 -9 15 -11c1 -1 0 -4 -2 -7
l-87 -348c20 -2 21 -2 43 -2h24c10 0 23 0 23 -11zM891 6c0 -13 -57 -20 -82 -20c-3 -15 -12 -47 -17 -66c-2 -10 -9 -36 -45 -36c-20 0 -33 12 -34 25c0 4 8 31 11 47l11 43c-51 15 -64 18 -100 18c-49 0 -57 -4 -66 -10c-11 -6 -13 -7 -16 -7c-9 0 -18 13 -18 16
c-1 11 21 19 26 21c6 3 70 39 131 121c33 47 68 114 91 201c3 11 9 38 45 38c7 0 32 -3 34 -26c0 -4 -26 -177 -233 -326h14c34 0 56 -6 100 -18c10 45 11 47 18 71c4 18 11 44 46 44c17 0 32 -9 33 -26c0 -3 0 -4 -2 -13l-21 -89c9 0 28 1 47 6c6 2 6 2 9 2
c10 0 18 -13 18 -16zM964 666c-2 -7 -5 -13 -10 -18l-635 -646c-7 -7 -17 -12 -27 -12c-16 0 -27 13 -22 30c1 7 5 13 10 18l634 646c8 7 18 12 27 12c17 0 27 -13 23 -30z" />
    <glyph glyph-name="onehalf" unicode="&#xbd;" horiz-adv-x="966" 
d="M431 324c2 -17 -12 -17 -20 -17l-117 1l-112 -1c-14 0 -16 7 -17 10c0 18 12 18 25 18h22c11 0 22 0 32 1c15 1 17 2 19 11l67 268c-30 -12 -64 -17 -83 -17c-15 0 -18 7 -18 11c-1 16 11 16 18 17c47 3 101 17 153 71c5 3 8 6 15 6c14 0 16 -9 15 -11c1 -1 0 -4 -2 -7
l-87 -348c20 -2 21 -2 43 -2h24c10 0 23 0 23 -11zM914 101c1 -16 -40 -111 -131 -111c-31 0 -57 13 -81 25c-24 13 -47 25 -72 25c-16 0 -27 -9 -37 -42c-3 -8 -5 -8 -21 -8c-10 0 -19 0 -19 8c-1 9 22 98 146 153c32 14 76 35 108 73c29 36 30 99 30 99
c-2 41 -36 52 -63 52c-83 0 -140 -85 -138 -129c1 -16 9 -17 14 -17c41 0 68 52 68 70c-1 6 -4 13 -9 19c-2 2 -3 4 -4 7c0 3 2 6 5 7c3 3 6 5 9 5c11 0 24 -21 25 -37c1 -28 -35 -92 -96 -92c-30 0 -50 18 -52 45c-2 47 67 144 180 144c75 0 137 -32 141 -99
c3 -68 -40 -106 -183 -168c-22 -9 -69 -30 -105 -69c25 0 52 -1 84 -4c8 -1 53 -4 76 -4c47 0 75 23 84 47c3 9 5 10 21 10c11 0 20 0 20 -9zM877 666c-2 -7 -5 -13 -10 -18l-635 -646c-7 -7 -17 -12 -27 -12c-16 0 -26 13 -22 30c1 7 5 13 10 18l634 646c8 7 18 12 28 12
c16 0 26 -13 22 -30z" />
    <glyph glyph-name="threequarters" unicode="&#xbe;" horiz-adv-x="966" 
d="M567 623c2 -36 -23 -96 -104 -120c33 -13 54 -37 55 -73c4 -72 -72 -134 -194 -134c-70 0 -117 34 -119 80c-3 49 39 54 50 54c24 0 36 -14 37 -27c1 -12 -9 -38 -44 -42c10 -30 44 -43 75 -43c44 0 76 19 90 43c17 29 26 83 25 96c-2 36 -39 36 -52 36h-23
c-14 0 -23 0 -23 9c0 0 2 13 5 16c1 3 2 3 18 3h20c21 0 61 0 86 33c17 21 26 73 26 88c-2 32 -30 40 -56 40c-70 0 -132 -47 -130 -90c0 -8 4 -17 15 -17c17 0 38 14 38 32c-1 6 -4 12 -9 17c-1 1 -4 4 -4 7s1 6 5 8c2 2 6 4 10 4c10 0 23 -22 24 -35
c1 -28 -29 -54 -65 -54c-29 0 -52 16 -54 42c-2 48 68 107 171 107c73 0 124 -27 127 -80zM891 6c0 -13 -57 -20 -82 -20c-3 -15 -12 -47 -17 -66c-2 -10 -9 -36 -45 -36c-20 0 -33 12 -34 25c0 4 8 31 11 47l11 43c-51 15 -64 18 -100 18c-49 0 -57 -4 -66 -10
c-11 -6 -13 -7 -16 -7c-9 0 -18 13 -18 16c-1 11 21 19 26 21c6 3 70 39 131 121c33 47 68 114 91 201c3 11 9 38 45 38c7 0 32 -3 34 -26c0 -4 -26 -177 -233 -326h14c34 0 56 -6 100 -18c10 45 11 47 18 71c4 18 11 44 46 44c17 0 32 -9 33 -26c0 -3 0 -4 -2 -13l-21 -89
c9 0 28 1 47 6c6 2 6 2 9 2c10 0 18 -13 18 -16zM964 666c-2 -7 -5 -13 -10 -18l-635 -646c-7 -7 -17 -12 -27 -12c-16 0 -27 13 -22 30c1 7 5 13 10 18l634 646c8 7 18 12 27 12c17 0 27 -13 23 -30z" />
    <glyph glyph-name="questiondown" unicode="&#xbf;" 
d="M477 440c0 -49 -47 -87 -88 -87c-38 0 -62 27 -62 60c0 48 46 87 88 87c35 0 62 -24 62 -60zM502 10c0 -66 -101 -221 -256 -221c-92 0 -144 50 -144 124c0 67 36 128 109 176l123 79c20 13 41 27 41 59c0 10 -5 18 -16 18c-14 0 -59 -9 -77 -58c-5 -14 -8 -14 -28 -14
c-17 0 -28 0 -28 15c0 30 53 93 135 93c18 0 71 -6 71 -74c0 -39 -14 -76 -43 -102c-15 -12 -32 -23 -133 -88c-50 -33 -96 -62 -96 -123c0 -67 69 -69 87 -69c68 0 132 47 173 114c-3 1 -38 8 -38 47s34 70 70 70c30 0 50 -19 50 -46z" />
    <glyph glyph-name="Agrave" unicode="&#xc0;" horiz-adv-x="866" 
d="M805 29c0 -29 -18 -29 -28 -29c-45 0 -92 3 -137 3c-49 0 -99 -3 -147 -3c-22 0 -22 18 -22 18c0 29 17 29 39 29c20 0 46 1 65 5l-15 140h-232l-81 -135c24 -9 60 -10 60 -10c8 0 26 0 26 -18c0 -29 -20 -29 -28 -29c-37 0 -77 3 -115 3c-32 0 -67 -3 -98 -3
c-19 0 -19 18 -19 18c0 29 17 29 31 29c72 1 83 19 94 37l365 602c15 25 25 25 47 25c30 0 33 -3 36 -29l66 -616c2 -15 3 -16 15 -18c8 -1 24 -1 33 -1h13c15 0 32 0 32 -18zM555 239l-30 278l-168 -278h198zM708 788c-2 -6 -23 -35 -40 -37c-7 0 -11 1 -16 3l-135 61
c-13 5 -34 16 -25 46c10 32 43 57 76 57c17 0 26 -9 39 -22l95 -91c4 -4 9 -10 6 -17z" />
    <glyph glyph-name="Aacute" unicode="&#xc1;" horiz-adv-x="866" 
d="M805 29c0 -29 -18 -29 -28 -29c-45 0 -92 3 -137 3c-49 0 -99 -3 -147 -3c-22 0 -22 18 -22 18c0 29 17 29 39 29c20 0 46 1 65 5l-15 140h-232l-81 -135c24 -9 60 -10 60 -10c8 0 26 0 26 -18c0 -29 -20 -29 -28 -29c-37 0 -77 3 -115 3c-32 0 -67 -3 -98 -3
c-19 0 -19 18 -19 18c0 29 17 29 31 29c72 1 83 19 94 37l365 602c15 25 25 25 47 25c30 0 33 -3 36 -29l66 -616c2 -15 3 -16 15 -18c8 -1 24 -1 33 -1h13c15 0 32 0 32 -18zM555 239l-30 278l-168 -278h198zM805 861c-6 -30 -33 -41 -48 -46l-166 -61c-6 -2 -11 -3 -17 -3
c-16 2 -23 31 -22 37c1 7 9 13 15 17l140 91c20 13 33 22 51 22c32 0 52 -25 47 -57z" />
    <glyph glyph-name="Acircumflex" unicode="&#xc2;" horiz-adv-x="866" 
d="M805 29c0 -29 -18 -29 -28 -29c-45 0 -92 3 -137 3c-49 0 -99 -3 -147 -3c-22 0 -22 18 -22 18c0 29 17 29 39 29c20 0 46 1 65 5l-15 140h-232l-81 -135c24 -9 60 -10 60 -10c8 0 26 0 26 -18c0 -29 -20 -29 -28 -29c-37 0 -77 3 -115 3c-32 0 -67 -3 -98 -3
c-19 0 -19 18 -19 18c0 29 17 29 31 29c72 1 83 19 94 37l365 602c15 25 25 25 47 25c30 0 33 -3 36 -29l66 -616c2 -15 3 -16 15 -18c8 -1 24 -1 33 -1h13c15 0 32 0 32 -18zM555 239l-30 278l-168 -278h198zM799 766l-19 -25l-151 56l-169 -56l-10 25l198 139z" />
    <glyph glyph-name="Atilde" unicode="&#xc3;" horiz-adv-x="866" 
d="M805 29c0 -29 -18 -29 -28 -29c-45 0 -92 3 -137 3c-49 0 -99 -3 -147 -3c-22 0 -22 18 -22 18c0 29 17 29 39 29c20 0 46 1 65 5l-15 140h-232l-81 -135c24 -9 60 -10 60 -10c8 0 26 0 26 -18c0 -29 -20 -29 -28 -29c-37 0 -77 3 -115 3c-32 0 -67 -3 -98 -3
c-19 0 -19 18 -19 18c0 29 17 29 31 29c72 1 83 19 94 37l365 602c15 25 25 25 47 25c30 0 33 -3 36 -29l66 -616c2 -15 3 -16 15 -18c8 -1 24 -1 33 -1h13c15 0 32 0 32 -18zM555 239l-30 278l-168 -278h198zM820 842c0 -14 -45 -49 -61 -62c-25 -20 -57 -39 -86 -39
c-18 0 -37 5 -68 39c-11 14 -21 22 -35 22c-27 0 -66 -32 -88 -51c-6 -6 -11 -10 -18 -10c-13 0 -18 12 -18 18c0 13 41 46 57 58c18 14 56 43 90 43c20 0 40 -8 61 -32c19 -22 29 -29 42 -29c29 0 72 37 85 48c9 9 13 13 21 13c10 0 18 -8 18 -18z" />
    <glyph glyph-name="Adieresis" unicode="&#xc4;" horiz-adv-x="866" 
d="M805 29c0 -29 -18 -29 -28 -29c-45 0 -92 3 -137 3c-49 0 -99 -3 -147 -3c-22 0 -22 18 -22 18c0 29 17 29 39 29c20 0 46 1 65 5l-15 140h-232l-81 -135c24 -9 60 -10 60 -10c8 0 26 0 26 -18c0 -29 -20 -29 -28 -29c-37 0 -77 3 -115 3c-32 0 -67 -3 -98 -3
c-19 0 -19 18 -19 18c0 29 17 29 31 29c72 1 83 19 94 37l365 602c15 25 25 25 47 25c30 0 33 -3 36 -29l66 -616c2 -15 3 -16 15 -18c8 -1 24 -1 33 -1h13c15 0 32 0 32 -18zM555 239l-30 278l-168 -278h198zM557 819c0 -39 -38 -78 -80 -78c-35 0 -55 25 -56 54
c0 39 39 78 80 78c37 0 56 -29 56 -54zM848 819c0 -39 -38 -78 -80 -78c-35 0 -55 25 -56 54c0 39 39 78 80 78c37 0 56 -29 56 -54z" />
    <glyph glyph-name="Aring" unicode="&#xc5;" horiz-adv-x="866" 
d="M805 29c0 -29 -18 -29 -28 -29c-45 0 -92 3 -137 3c-49 0 -99 -3 -147 -3c-22 0 -22 18 -22 18c0 29 17 29 39 29c20 0 46 1 65 5l-15 140h-232l-81 -135c24 -9 60 -10 60 -10c8 0 26 0 26 -18c0 -29 -20 -29 -28 -29c-37 0 -77 3 -115 3c-32 0 -67 -3 -98 -3
c-19 0 -19 18 -19 18c0 29 17 29 31 29c72 1 83 19 94 37l365 602c15 25 25 25 47 25c30 0 33 -3 36 -29l66 -616c2 -15 3 -16 15 -18c8 -1 24 -1 33 -1h13c15 0 32 0 32 -18zM555 239l-30 278l-168 -278h198zM689 814c0 22 -23 24 -47 24c-17 0 -39 -1 -52 -15
c-11 -13 -15 -42 -15 -47c0 -23 25 -24 47 -24c14 0 40 1 52 15c11 14 15 41 15 47zM751 813c0 -46 -45 -102 -140 -102c-61 0 -98 23 -98 66c0 48 47 102 140 102c64 0 98 -26 98 -66z" />
    <glyph glyph-name="AE" unicode="&#xc6;" horiz-adv-x="1023" 
d="M1027 256c0 -6 -3 -12 -5 -17l-95 -222c-7 -17 -12 -17 -33 -17h-462c-14 0 -32 0 -32 18c0 29 18 29 35 29h8c22 0 24 0 32 1c14 2 15 2 18 16l60 242h-150l-155 -249c21 -8 50 -10 59 -10s26 0 26 -18c0 -29 -18 -29 -27 -29c-38 0 -78 3 -116 3c-32 0 -66 -3 -98 -3
c-13 0 -19 10 -19 18c0 29 19 29 28 29c76 1 86 18 99 38l346 554h-40c-15 0 -32 0 -32 18c0 29 18 29 35 29h531c22 0 35 0 31 -32l-21 -182c-3 -23 -6 -27 -29 -27c-13 0 -28 0 -28 21c0 5 2 19 3 24c2 19 3 24 3 48c0 99 -56 101 -164 101h-45c-24 0 -25 -1 -29 -16
l-67 -270h50c76 0 97 22 116 94c6 20 8 23 30 23c10 0 28 0 28 -18c0 -5 -2 -11 -3 -16l-56 -224c-6 -23 -13 -23 -30 -23c-10 0 -28 0 -28 18c0 3 0 4 2 13c2 7 8 31 8 46c0 30 -15 40 -70 40h-59l-64 -258c7 -1 14 -1 23 -1h80c154 0 194 83 244 200c12 26 12 27 34 27
c10 0 28 0 28 -18zM565 353l70 283c-7 1 -18 1 -26 1l-177 -284h133z" />
    <glyph glyph-name="Ccedilla" unicode="&#xc7;" horiz-adv-x="827" 
d="M849 446c-5 -20 -7 -20 -32 -20c-20 0 -31 0 -31 15c0 7 3 13 3 43c0 94 -46 172 -145 172c-67 0 -164 -25 -233 -109c-88 -108 -113 -300 -113 -345c0 -21 0 -83 46 -125c44 -41 107 -47 139 -47c79 0 209 52 257 209c3 9 12 9 27 9s28 0 28 -14c0 -9 -22 -98 -107 -166
c-60 -48 -122 -73 -181 -81l-9 -38c53 0 97 -27 85 -74c-18 -75 -164 -75 -282 -75c-15 0 -25 13 -21 28s20 28 35 28c60 0 144 0 148 19c5 18 -50 18 -91 18l24 94c-125 18 -233 93 -233 258c0 212 173 458 467 458c25 0 103 0 166 -68l86 68c15 0 27 0 27 -14
c0 0 0 -4 -4 -19z" />
    <glyph glyph-name="Egrave" unicode="&#xc8;" horiz-adv-x="757" 
d="M761 256c0 -6 -3 -12 -5 -17l-95 -222c-7 -17 -12 -17 -33 -17h-532c-15 0 -32 0 -32 18c0 29 18 29 35 29h22c12 0 28 1 40 2c18 1 19 2 23 16l141 566c-6 0 -39 2 -49 2h-22c-14 0 -31 0 -31 18c0 29 17 29 34 29h516c14 0 30 0 32 -17l-23 -198c-2 -19 -3 -26 -29 -26
c-10 0 -28 0 -28 19c0 4 2 17 3 21c3 26 3 29 3 48c0 106 -65 106 -187 106c-27 0 -68 0 -82 -2l-63 -255h42c79 0 97 25 115 95c5 19 8 22 30 22c10 0 28 0 28 -18c0 -3 -1 -6 -3 -13l-56 -226c-6 -24 -13 -24 -30 -24c-10 0 -28 0 -28 18c0 0 1 7 3 14c4 18 7 38 7 45
c0 30 -14 40 -69 40h-51l-70 -281c7 -1 14 -1 23 -1h100c163 0 206 77 259 200c12 26 12 27 34 27c10 0 28 0 28 -18zM653 788c-2 -6 -23 -35 -40 -37c-7 0 -11 1 -16 3l-135 61c-13 5 -34 16 -25 46c10 32 43 57 76 57c17 0 26 -9 39 -22l95 -91c4 -4 9 -10 6 -17z" />
    <glyph glyph-name="Eacute" unicode="&#xc9;" horiz-adv-x="757" 
d="M761 256c0 -6 -3 -12 -5 -17l-95 -222c-7 -17 -12 -17 -33 -17h-532c-15 0 -32 0 -32 18c0 29 18 29 35 29h22c12 0 28 1 40 2c18 1 19 2 23 16l141 566c-6 0 -39 2 -49 2h-22c-14 0 -31 0 -31 18c0 29 17 29 34 29h516c14 0 30 0 32 -17l-23 -198c-2 -19 -3 -26 -29 -26
c-10 0 -28 0 -28 19c0 4 2 17 3 21c3 26 3 29 3 48c0 106 -65 106 -187 106c-27 0 -68 0 -82 -2l-63 -255h42c79 0 97 25 115 95c5 19 8 22 30 22c10 0 28 0 28 -18c0 -3 -1 -6 -3 -13l-56 -226c-6 -24 -13 -24 -30 -24c-10 0 -28 0 -28 18c0 0 1 7 3 14c4 18 7 38 7 45
c0 30 -14 40 -69 40h-51l-70 -281c7 -1 14 -1 23 -1h100c163 0 206 77 259 200c12 26 12 27 34 27c10 0 28 0 28 -18zM750 861c-6 -30 -33 -41 -48 -46l-166 -61c-6 -2 -11 -3 -17 -3c-16 2 -23 31 -22 37c1 7 9 13 15 17l140 91c20 13 33 22 51 22c32 0 52 -25 47 -57z" />
    <glyph glyph-name="Ecircumflex" unicode="&#xca;" horiz-adv-x="757" 
d="M761 256c0 -6 -3 -12 -5 -17l-95 -222c-7 -17 -12 -17 -33 -17h-532c-15 0 -32 0 -32 18c0 29 18 29 35 29h22c12 0 28 1 40 2c18 1 19 2 23 16l141 566c-6 0 -39 2 -49 2h-22c-14 0 -31 0 -31 18c0 29 17 29 34 29h516c14 0 30 0 32 -17l-23 -198c-2 -19 -3 -26 -29 -26
c-10 0 -28 0 -28 19c0 4 2 17 3 21c3 26 3 29 3 48c0 106 -65 106 -187 106c-27 0 -68 0 -82 -2l-63 -255h42c79 0 97 25 115 95c5 19 8 22 30 22c10 0 28 0 28 -18c0 -3 -1 -6 -3 -13l-56 -226c-6 -24 -13 -24 -30 -24c-10 0 -28 0 -28 18c0 0 1 7 3 14c4 18 7 38 7 45
c0 30 -14 40 -69 40h-51l-70 -281c7 -1 14 -1 23 -1h100c163 0 206 77 259 200c12 26 12 27 34 27c10 0 28 0 28 -18zM744 766l-19 -25l-151 56l-169 -56l-10 25l198 139z" />
    <glyph glyph-name="Edieresis" unicode="&#xcb;" horiz-adv-x="757" 
d="M761 256c0 -6 -3 -12 -5 -17l-95 -222c-7 -17 -12 -17 -33 -17h-532c-15 0 -32 0 -32 18c0 29 18 29 35 29h22c12 0 28 1 40 2c18 1 19 2 23 16l141 566c-6 0 -39 2 -49 2h-22c-14 0 -31 0 -31 18c0 29 17 29 34 29h516c14 0 30 0 32 -17l-23 -198c-2 -19 -3 -26 -29 -26
c-10 0 -28 0 -28 19c0 4 2 17 3 21c3 26 3 29 3 48c0 106 -65 106 -187 106c-27 0 -68 0 -82 -2l-63 -255h42c79 0 97 25 115 95c5 19 8 22 30 22c10 0 28 0 28 -18c0 -3 -1 -6 -3 -13l-56 -226c-6 -24 -13 -24 -30 -24c-10 0 -28 0 -28 18c0 0 1 7 3 14c4 18 7 38 7 45
c0 30 -14 40 -69 40h-51l-70 -281c7 -1 14 -1 23 -1h100c163 0 206 77 259 200c12 26 12 27 34 27c10 0 28 0 28 -18zM502 819c0 -39 -38 -78 -80 -78c-35 0 -55 25 -56 54c0 39 39 78 80 78c37 0 56 -29 56 -54zM793 819c0 -39 -38 -78 -80 -78c-35 0 -55 25 -56 54
c0 39 39 78 80 78c37 0 56 -29 56 -54z" />
    <glyph glyph-name="Igrave" unicode="&#xcc;" horiz-adv-x="472" 
d="M585 668c0 -29 -18 -29 -35 -29h-25c-12 0 -29 -1 -41 -2c-20 -1 -21 -2 -25 -17l-142 -571l51 -2h25c15 0 32 0 32 -18c0 -29 -19 -29 -30 -29c-52 0 -106 3 -159 3c-51 0 -104 -3 -155 -3c-12 0 -22 5 -22 18c0 29 17 29 35 29h24c11 0 30 0 41 1c20 2 21 3 25 17
l142 572c-11 0 -46 2 -51 2h-24c-15 0 -32 0 -32 18c0 29 18 29 29 29c52 0 106 -3 159 -3c52 0 105 3 156 3c21 0 22 -15 22 -18zM511 788c-2 -6 -23 -35 -40 -37c-7 0 -11 1 -16 3l-135 61c-13 5 -34 16 -25 46c10 32 43 57 76 57c17 0 26 -9 39 -22l95 -91
c4 -4 9 -10 6 -17z" />
    <glyph glyph-name="Iacute" unicode="&#xcd;" horiz-adv-x="472" 
d="M585 668c0 -29 -18 -29 -35 -29h-25c-12 0 -29 -1 -41 -2c-20 -1 -21 -2 -25 -17l-142 -571l51 -2h25c15 0 32 0 32 -18c0 -29 -19 -29 -30 -29c-52 0 -106 3 -159 3c-51 0 -104 -3 -155 -3c-12 0 -22 5 -22 18c0 29 17 29 35 29h24c11 0 30 0 41 1c20 2 21 3 25 17
l142 572c-11 0 -46 2 -51 2h-24c-15 0 -32 0 -32 18c0 29 18 29 29 29c52 0 106 -3 159 -3c52 0 105 3 156 3c21 0 22 -15 22 -18zM608 861c-6 -30 -33 -41 -48 -46l-166 -61c-6 -2 -11 -3 -17 -3c-16 2 -23 31 -22 37c1 7 9 13 15 17l140 91c20 13 33 22 51 22
c32 0 52 -25 47 -57z" />
    <glyph glyph-name="Icircumflex" unicode="&#xce;" horiz-adv-x="472" 
d="M585 668c0 -29 -18 -29 -35 -29h-25c-12 0 -29 -1 -41 -2c-20 -1 -21 -2 -25 -17l-142 -571l51 -2h25c15 0 32 0 32 -18c0 -29 -19 -29 -30 -29c-52 0 -106 3 -159 3c-51 0 -104 -3 -155 -3c-12 0 -22 5 -22 18c0 29 17 29 35 29h24c11 0 30 0 41 1c20 2 21 3 25 17
l142 572c-11 0 -46 2 -51 2h-24c-15 0 -32 0 -32 18c0 29 18 29 29 29c52 0 106 -3 159 -3c52 0 105 3 156 3c21 0 22 -15 22 -18zM602 766l-19 -25l-151 56l-169 -56l-10 25l198 139z" />
    <glyph glyph-name="Idieresis" unicode="&#xcf;" horiz-adv-x="472" 
d="M585 668c0 -29 -18 -29 -35 -29h-25c-12 0 -29 -1 -41 -2c-20 -1 -21 -2 -25 -17l-142 -571l51 -2h25c15 0 32 0 32 -18c0 -29 -19 -29 -30 -29c-52 0 -106 3 -159 3c-51 0 -104 -3 -155 -3c-12 0 -22 5 -22 18c0 29 17 29 35 29h24c11 0 30 0 41 1c20 2 21 3 25 17
l142 572c-11 0 -46 2 -51 2h-24c-15 0 -32 0 -32 18c0 29 18 29 29 29c52 0 106 -3 159 -3c52 0 105 3 156 3c21 0 22 -15 22 -18zM360 819c0 -39 -38 -78 -80 -78c-35 0 -55 25 -56 54c0 39 39 78 80 78c37 0 56 -29 56 -54zM651 819c0 -39 -38 -78 -80 -78
c-35 0 -55 25 -56 54c0 39 39 78 80 78c37 0 56 -29 56 -54z" />
    <glyph glyph-name="Eth" unicode="&#xd0;" horiz-adv-x="876" 
d="M885 446c0 -202 -152 -446 -421 -446h-368c-15 0 -32 0 -32 18c0 29 18 29 35 29h22c12 0 28 1 40 2c18 1 19 2 23 16l63 254h-109c-13 0 -21 11 -18 24s17 24 30 24h110l67 270c-12 1 -38 2 -49 2h-22c-15 0 -32 0 -32 18c0 29 18 29 35 29h376c124 0 250 -63 250 -240z
M757 483c0 132 -101 156 -172 156h-95c-31 0 -32 -1 -36 -16l-64 -256h140c13 0 21 -11 18 -24c-4 -13 -17 -24 -30 -24h-140l-67 -271c7 -1 14 -1 23 -1h104c100 0 183 44 235 127c46 75 84 255 84 309z" />
    <glyph glyph-name="Ntilde" unicode="&#xd1;" horiz-adv-x="896" 
d="M1003 668c0 -29 -17 -29 -31 -29c-8 0 -34 0 -57 -5c-29 -6 -30 -9 -34 -24l-146 -586c-6 -24 -11 -24 -34 -24c-22 0 -23 1 -31 16l-294 568l-131 -527c24 -10 60 -10 69 -10c14 0 31 0 31 -18c0 -29 -19 -29 -27 -29c-38 0 -80 3 -119 3c-38 0 -78 -3 -115 -3
c-17 0 -20 14 -20 18c0 29 18 29 34 29c25 0 46 3 57 5c27 6 28 10 32 25l136 546c1 3 3 11 3 11c0 3 0 5 -43 5h-27c-15 0 -32 0 -32 18c0 29 18 29 35 29h185c23 0 24 -1 33 -17l240 -463l106 423c-25 10 -61 10 -70 10c-14 0 -31 0 -31 18c0 29 20 29 28 29
c38 0 79 -3 118 -3c38 0 78 3 115 3c11 0 20 -7 20 -18zM835 842c0 -14 -45 -49 -61 -62c-25 -20 -57 -39 -86 -39c-18 0 -37 5 -68 39c-11 14 -21 22 -35 22c-27 0 -66 -32 -88 -51c-6 -6 -11 -10 -18 -10c-13 0 -18 12 -18 18c0 13 41 46 57 58c18 14 56 43 90 43
c20 0 40 -8 61 -32c19 -22 29 -29 42 -29c29 0 72 37 85 48c9 9 13 13 21 13c10 0 18 -8 18 -18z" />
    <glyph glyph-name="Ograve" unicode="&#xd2;" horiz-adv-x="855" 
d="M865 453c0 -211 -158 -470 -441 -470c-148 0 -264 76 -264 246c0 201 155 474 443 474c138 0 262 -70 262 -250zM733 501c0 56 -18 162 -140 162c-54 0 -140 -26 -205 -133c-54 -90 -91 -265 -91 -337c0 -29 3 -82 33 -121c18 -22 52 -47 104 -47c58 0 131 29 195 123
c63 92 104 283 104 353zM702 788c-2 -6 -23 -35 -40 -37c-7 0 -11 1 -16 3l-135 61c-13 5 -34 16 -25 46c10 32 43 57 76 57c17 0 26 -9 39 -22l95 -91c4 -4 9 -10 6 -17z" />
    <glyph glyph-name="Oacute" unicode="&#xd3;" horiz-adv-x="855" 
d="M865 453c0 -211 -158 -470 -441 -470c-148 0 -264 76 -264 246c0 201 155 474 443 474c138 0 262 -70 262 -250zM733 501c0 56 -18 162 -140 162c-54 0 -140 -26 -205 -133c-54 -90 -91 -265 -91 -337c0 -29 3 -82 33 -121c18 -22 52 -47 104 -47c58 0 131 29 195 123
c63 92 104 283 104 353zM799 861c-6 -30 -33 -41 -48 -46l-166 -61c-6 -2 -11 -3 -17 -3c-16 2 -23 31 -22 37c1 7 9 13 15 17l140 91c20 13 33 22 51 22c32 0 52 -25 47 -57z" />
    <glyph glyph-name="Ocircumflex" unicode="&#xd4;" horiz-adv-x="855" 
d="M865 453c0 -211 -158 -470 -441 -470c-148 0 -264 76 -264 246c0 201 155 474 443 474c138 0 262 -70 262 -250zM733 501c0 56 -18 162 -140 162c-54 0 -140 -26 -205 -133c-54 -90 -91 -265 -91 -337c0 -29 3 -82 33 -121c18 -22 52 -47 104 -47c58 0 131 29 195 123
c63 92 104 283 104 353zM793 766l-19 -25l-151 56l-169 -56l-10 25l198 139z" />
    <glyph glyph-name="Otilde" unicode="&#xd5;" horiz-adv-x="855" 
d="M865 453c0 -211 -158 -470 -441 -470c-148 0 -264 76 -264 246c0 201 155 474 443 474c138 0 262 -70 262 -250zM733 501c0 56 -18 162 -140 162c-54 0 -140 -26 -205 -133c-54 -90 -91 -265 -91 -337c0 -29 3 -82 33 -121c18 -22 52 -47 104 -47c58 0 131 29 195 123
c63 92 104 283 104 353zM814 842c0 -14 -45 -49 -61 -62c-25 -20 -57 -39 -86 -39c-18 0 -37 5 -68 39c-11 14 -21 22 -35 22c-27 0 -66 -32 -88 -51c-6 -6 -11 -10 -18 -10c-13 0 -18 12 -18 18c0 13 41 46 57 58c18 14 56 43 90 43c20 0 40 -8 61 -32
c19 -22 29 -29 42 -29c29 0 72 37 85 48c9 9 13 13 21 13c10 0 18 -8 18 -18z" />
    <glyph glyph-name="Odieresis" unicode="&#xd6;" horiz-adv-x="855" 
d="M865 453c0 -211 -158 -470 -441 -470c-148 0 -264 76 -264 246c0 201 155 474 443 474c138 0 262 -70 262 -250zM733 501c0 56 -18 162 -140 162c-54 0 -140 -26 -205 -133c-54 -90 -91 -265 -91 -337c0 -29 3 -82 33 -121c18 -22 52 -47 104 -47c58 0 131 29 195 123
c63 92 104 283 104 353zM551 819c0 -39 -38 -78 -80 -78c-35 0 -55 25 -56 54c0 39 39 78 80 78c37 0 56 -29 56 -54zM842 819c0 -39 -38 -78 -80 -78c-35 0 -55 25 -56 54c0 39 39 78 80 78c37 0 56 -29 56 -54z" />
    <glyph glyph-name="multiply" unicode="&#xd7;" horiz-adv-x="886" 
d="M700 7c-15 -12 -38 -14 -51 -5c-2 1 -5 4 -8 10l-147 195l-239 -192c-13 -10 -38 -30 -61 -14s3 37 15 47l253 202l-154 206c-5 6 -16 22 5 39c11 9 34 16 50 5c3 -3 4 -4 11 -14l144 -192l239 192c11 8 38 30 61 14s-5 -39 -15 -46l-253 -203l155 -206
c4 -6 16 -21 -5 -38z" />
    <glyph glyph-name="Oslash" unicode="&#xd8;" horiz-adv-x="886" 
d="M895 449c0 -214 -163 -466 -456 -466c-76 0 -128 18 -167 39c-41 -44 -54 -61 -67 -75c-15 -14 -16 -15 -22 -15c-11 0 -21 11 -21 20c0 7 5 12 18 27l59 67c-23 21 -78 69 -78 188c0 200 158 469 458 469c76 0 133 -21 167 -40l67 77c12 14 18 14 21 14
c8 0 21 -8 21 -20c0 -6 0 -8 -18 -27c-19 -23 -39 -45 -59 -67c12 -10 77 -65 77 -191zM740 612c-18 23 -58 55 -131 55c-55 0 -143 -22 -209 -107c-81 -107 -116 -335 -116 -378c0 -10 0 -40 12 -71zM772 501c0 12 0 44 -11 74l-444 -502c23 -30 69 -54 131 -54
c57 0 155 19 228 132c51 79 96 279 96 350z" />
    <glyph glyph-name="Ugrave" unicode="&#xd9;" horiz-adv-x="881" 
d="M988 668c0 -29 -17 -29 -31 -29c-8 0 -34 0 -57 -5c-29 -6 -30 -9 -34 -24l-97 -390c-25 -101 -123 -237 -311 -237c-146 0 -240 69 -240 190c0 26 5 51 7 58l102 406c-12 1 -38 2 -49 2h-22c-15 0 -32 0 -32 18c0 29 19 29 29 29c50 0 103 -3 154 -3c50 0 101 3 150 3
c11 0 22 -5 22 -18c0 -29 -17 -29 -34 -29l-62 -1c-19 -2 -20 -3 -24 -18l-101 -405c-7 -30 -12 -48 -12 -82c0 -25 4 -56 32 -79c22 -17 55 -24 85 -24c110 0 212 63 247 203l99 396c-25 10 -61 10 -70 10c-14 0 -31 0 -31 18c0 29 20 29 27 29c39 0 80 -3 119 -3
c38 0 77 3 114 3c11 0 20 -7 20 -18zM742 788c-2 -6 -23 -35 -40 -37c-7 0 -11 1 -16 3l-135 61c-13 5 -34 16 -25 46c10 32 43 57 76 57c17 0 26 -9 39 -22l95 -91c4 -4 9 -10 6 -17z" />
    <glyph glyph-name="Uacute" unicode="&#xda;" horiz-adv-x="881" 
d="M988 668c0 -29 -17 -29 -31 -29c-8 0 -34 0 -57 -5c-29 -6 -30 -9 -34 -24l-97 -390c-25 -101 -123 -237 -311 -237c-146 0 -240 69 -240 190c0 26 5 51 7 58l102 406c-12 1 -38 2 -49 2h-22c-15 0 -32 0 -32 18c0 29 19 29 29 29c50 0 103 -3 154 -3c50 0 101 3 150 3
c11 0 22 -5 22 -18c0 -29 -17 -29 -34 -29l-62 -1c-19 -2 -20 -3 -24 -18l-101 -405c-7 -30 -12 -48 -12 -82c0 -25 4 -56 32 -79c22 -17 55 -24 85 -24c110 0 212 63 247 203l99 396c-25 10 -61 10 -70 10c-14 0 -31 0 -31 18c0 29 20 29 27 29c39 0 80 -3 119 -3
c38 0 77 3 114 3c11 0 20 -7 20 -18zM839 861c-6 -30 -33 -41 -48 -46l-166 -61c-6 -2 -11 -3 -17 -3c-16 2 -23 31 -22 37c1 7 9 13 15 17l140 91c20 13 33 22 51 22c32 0 52 -25 47 -57z" />
    <glyph glyph-name="Ucircumflex" unicode="&#xdb;" horiz-adv-x="881" 
d="M988 668c0 -29 -17 -29 -31 -29c-8 0 -34 0 -57 -5c-29 -6 -30 -9 -34 -24l-97 -390c-25 -101 -123 -237 -311 -237c-146 0 -240 69 -240 190c0 26 5 51 7 58l102 406c-12 1 -38 2 -49 2h-22c-15 0 -32 0 -32 18c0 29 19 29 29 29c50 0 103 -3 154 -3c50 0 101 3 150 3
c11 0 22 -5 22 -18c0 -29 -17 -29 -34 -29l-62 -1c-19 -2 -20 -3 -24 -18l-101 -405c-7 -30 -12 -48 -12 -82c0 -25 4 -56 32 -79c22 -17 55 -24 85 -24c110 0 212 63 247 203l99 396c-25 10 -61 10 -70 10c-14 0 -31 0 -31 18c0 29 20 29 27 29c39 0 80 -3 119 -3
c38 0 77 3 114 3c11 0 20 -7 20 -18zM833 766l-19 -25l-151 56l-169 -56l-10 25l198 139z" />
    <glyph glyph-name="Udieresis" unicode="&#xdc;" horiz-adv-x="881" 
d="M988 668c0 -29 -17 -29 -31 -29c-8 0 -34 0 -57 -5c-29 -6 -30 -9 -34 -24l-97 -390c-25 -101 -123 -237 -311 -237c-146 0 -240 69 -240 190c0 26 5 51 7 58l102 406c-12 1 -38 2 -49 2h-22c-15 0 -32 0 -32 18c0 29 19 29 29 29c50 0 103 -3 154 -3c50 0 101 3 150 3
c11 0 22 -5 22 -18c0 -29 -17 -29 -34 -29l-62 -1c-19 -2 -20 -3 -24 -18l-101 -405c-7 -30 -12 -48 -12 -82c0 -25 4 -56 32 -79c22 -17 55 -24 85 -24c110 0 212 63 247 203l99 396c-25 10 -61 10 -70 10c-14 0 -31 0 -31 18c0 29 20 29 27 29c39 0 80 -3 119 -3
c38 0 77 3 114 3c11 0 20 -7 20 -18zM591 819c0 -39 -38 -78 -80 -78c-35 0 -55 25 -56 54c0 39 39 78 80 78c37 0 56 -29 56 -54zM882 819c0 -39 -38 -78 -80 -78c-35 0 -55 25 -56 54c0 39 39 78 80 78c37 0 56 -29 56 -54z" />
    <glyph glyph-name="Yacute" unicode="&#xdd;" horiz-adv-x="866" 
d="M985 668c0 -29 -18 -29 -30 -29c-73 -1 -89 -19 -107 -40l-281 -325l-56 -225c12 -1 38 -2 49 -2h22c15 0 32 0 32 -18c0 -29 -19 -29 -29 -29c-49 0 -101 3 -151 3c-49 0 -100 -3 -148 -3c-11 0 -22 5 -22 18c0 29 18 29 35 29h22c11 0 29 0 40 1c19 3 20 4 24 18
l52 208l-128 349c-5 12 -6 13 -20 15c-9 1 -24 1 -33 1h-12c-14 0 -32 0 -32 18c0 29 20 29 28 29c45 0 92 -3 138 -3c50 0 102 3 151 3c10 0 22 -4 22 -18c0 -29 -18 -29 -31 -29c-23 0 -37 -1 -61 -4l103 -284l241 280c-16 6 -33 8 -50 8c-8 0 -26 0 -26 18
c0 29 20 29 28 29c37 0 77 -3 115 -3c32 0 65 3 96 3c13 0 19 -10 19 -18zM805 861c-6 -30 -33 -41 -48 -46l-166 -61c-6 -2 -11 -3 -17 -3c-16 2 -23 31 -22 37c1 7 9 13 15 17l140 91c20 13 33 22 51 22c32 0 52 -25 47 -57z" />
    <glyph glyph-name="Thorn" unicode="&#xde;" horiz-adv-x="728" 
d="M737 421c0 -93 -75 -243 -281 -243h-118l-32 -129c11 -1 36 -2 70 -2c16 0 32 0 32 -19c0 -28 -19 -28 -28 -28l-149 3l-145 -3c-22 0 -22 18 -22 18c0 29 19 29 35 29c0 0 52 0 63 1c17 2 18 3 22 17l143 572c-6 0 -39 2 -71 2c-14 0 -32 0 -32 18c0 29 20 29 29 29
l149 -3l144 3c12 0 22 -6 22 -18c0 -29 -18 -29 -35 -29h-22c-37 0 -59 -4 -59 -4l-17 -71h127c86 0 175 -35 175 -143zM600 432c0 85 -56 85 -75 85h-102l-73 -292h84c143 0 166 170 166 207z" />
    <glyph glyph-name="germandbls" unicode="&#xdf;" horiz-adv-x="665" 
d="M643 165c0 -89 -98 -173 -203 -173c-68 0 -116 35 -116 85c0 37 25 64 57 64c28 0 40 -20 40 -37c0 0 0 -26 -21 -43l-12 -9c14 -19 39 -24 52 -24c62 0 83 123 83 128c0 26 -16 44 -29 58c-27 29 -31 63 -31 87c0 61 21 87 62 131c15 17 25 27 41 78c1 5 20 65 20 85
c0 17 -7 71 -85 71c-100 0 -115 -37 -131 -124l-89 -478c-7 -35 -16 -70 -28 -104c-50 -151 -152 -162 -175 -162c-52 0 -91 32 -91 78c0 47 37 76 71 76c30 0 50 -19 50 -46c0 -28 -19 -56 -47 -67c9 -5 18 -5 18 -5c53 0 73 105 89 193l68 370h-86c-15 0 -32 0 -32 18
c0 29 18 29 35 29h92l14 77c33 181 170 181 240 181c140 0 192 -50 192 -110c0 -17 0 -37 -53 -108l-72 -97c-8 -11 -23 -35 -23 -46c0 -19 37 -56 47 -67c36 -37 53 -71 53 -109z" />
    <glyph glyph-name="agrave" unicode="&#xe0;" 
d="M615 148c0 -4 -13 -60 -39 -102c-13 -20 -38 -54 -85 -54c-39 0 -84 16 -103 51c-24 -19 -71 -51 -132 -51c-76 0 -160 41 -160 160c0 134 100 300 268 300c26 0 65 -5 97 -38c13 13 30 21 47 21c28 0 45 -19 45 -42c0 -4 0 -6 -4 -21l-67 -270c-4 -16 -6 -24 -6 -43
c0 -23 7 -31 19 -31c34 0 52 75 60 108c7 25 8 26 32 26c15 0 28 0 28 -14zM376 100c1 8 1 11 3 18l59 236c-11 40 -39 62 -74 62c-26 0 -81 -15 -115 -112c-11 -28 -46 -151 -46 -205c0 -57 34 -71 57 -71c31 0 73 15 116 72zM499 535c-3 -6 -29 -33 -45 -33
c-6 0 -9 3 -13 6l-108 89c-10 8 -28 23 -12 54c14 28 46 48 71 48c22 0 29 -12 39 -31l65 -114c4 -5 6 -12 3 -19z" />
    <glyph glyph-name="aacute" unicode="&#xe1;" 
d="M615 148c0 -4 -13 -60 -39 -102c-13 -20 -38 -54 -85 -54c-39 0 -84 16 -103 51c-24 -19 -71 -51 -132 -51c-76 0 -160 41 -160 160c0 134 100 300 268 300c26 0 65 -5 97 -38c13 13 30 21 47 21c28 0 45 -19 45 -42c0 -4 0 -6 -4 -21l-67 -270c-4 -16 -6 -24 -6 -43
c0 -23 7 -31 19 -31c34 0 52 75 60 108c7 25 8 26 32 26c15 0 28 0 28 -14zM376 100c1 8 1 11 3 18l59 236c-11 40 -39 62 -74 62c-26 0 -81 -15 -115 -112c-11 -28 -46 -151 -46 -205c0 -57 34 -71 57 -71c31 0 73 15 116 72zM596 651c0 -31 -25 -46 -39 -54l-153 -89
c-5 -3 -10 -6 -16 -6c-16 0 -28 27 -28 33c0 7 6 14 12 19l122 114c20 19 33 31 55 31c25 0 47 -20 47 -48z" />
    <glyph glyph-name="acircumflex" unicode="&#xe2;" 
d="M615 148c0 -4 -13 -60 -39 -102c-13 -20 -38 -54 -85 -54c-39 0 -84 16 -103 51c-24 -19 -71 -51 -132 -51c-76 0 -160 41 -160 160c0 134 100 300 268 300c26 0 65 -5 97 -38c13 13 30 21 47 21c28 0 45 -19 45 -42c0 -4 0 -6 -4 -21l-67 -270c-4 -16 -6 -24 -6 -43
c0 -23 7 -31 19 -31c34 0 52 75 60 108c7 25 8 26 32 26c15 0 28 0 28 -14zM376 100c1 8 1 11 3 18l59 236c-11 40 -39 62 -74 62c-26 0 -81 -15 -115 -112c-11 -28 -46 -151 -46 -205c0 -57 34 -71 57 -71c31 0 73 15 116 72zM603 519l-23 -22l-141 99l-174 -99l-15 22
l207 185z" />
    <glyph glyph-name="atilde" unicode="&#xe3;" 
d="M615 148c0 -4 -13 -60 -39 -102c-13 -20 -38 -54 -85 -54c-39 0 -84 16 -103 51c-24 -19 -71 -51 -132 -51c-76 0 -160 41 -160 160c0 134 100 300 268 300c26 0 65 -5 97 -38c13 13 30 21 47 21c28 0 45 -19 45 -42c0 -4 0 -6 -4 -21l-67 -270c-4 -16 -6 -24 -6 -43
c0 -23 7 -31 19 -31c34 0 52 75 60 108c7 25 8 26 32 26c15 0 28 0 28 -14zM376 100c1 8 1 11 3 18l59 236c-11 40 -39 62 -74 62c-26 0 -81 -15 -115 -112c-11 -28 -46 -151 -46 -205c0 -57 34 -71 57 -71c31 0 73 15 116 72zM633 642c0 -14 -45 -49 -61 -62
c-25 -20 -57 -39 -86 -39c-18 0 -37 5 -68 39c-11 14 -21 22 -35 22c-27 0 -66 -32 -88 -51c-6 -6 -11 -10 -18 -10c-13 0 -18 12 -18 18c0 13 41 46 57 58c18 14 56 43 90 43c20 0 40 -8 61 -32c19 -22 29 -29 42 -29c29 0 72 37 85 48c9 9 13 13 21 13c10 0 18 -8 18 -18z
" />
    <glyph glyph-name="adieresis" unicode="&#xe4;" 
d="M615 148c0 -4 -13 -60 -39 -102c-13 -20 -38 -54 -85 -54c-39 0 -84 16 -103 51c-24 -19 -71 -51 -132 -51c-76 0 -160 41 -160 160c0 134 100 300 268 300c26 0 65 -5 97 -38c13 13 30 21 47 21c28 0 45 -19 45 -42c0 -4 0 -6 -4 -21l-67 -270c-4 -16 -6 -24 -6 -43
c0 -23 7 -31 19 -31c34 0 52 75 60 108c7 25 8 26 32 26c15 0 28 0 28 -14zM376 100c1 8 1 11 3 18l59 236c-11 40 -39 62 -74 62c-26 0 -81 -15 -115 -112c-11 -28 -46 -151 -46 -205c0 -57 34 -71 57 -71c31 0 73 15 116 72zM391 613c0 -39 -37 -78 -79 -78
c-35 0 -56 25 -57 54c0 39 40 78 81 78c37 0 55 -29 55 -54zM636 613c0 -39 -37 -78 -79 -78c-35 0 -56 25 -57 54c0 39 40 78 81 78c37 0 55 -29 55 -54z" />
    <glyph glyph-name="aring" unicode="&#xe5;" 
d="M615 148c0 -4 -13 -60 -39 -102c-13 -20 -38 -54 -85 -54c-39 0 -84 16 -103 51c-24 -19 -71 -51 -132 -51c-76 0 -160 41 -160 160c0 134 100 300 268 300c26 0 65 -5 97 -38c13 13 30 21 47 21c28 0 45 -19 45 -42c0 -4 0 -6 -4 -21l-67 -270c-4 -16 -6 -24 -6 -43
c0 -23 7 -31 19 -31c34 0 52 75 60 108c7 25 8 26 32 26c15 0 28 0 28 -14zM376 100c1 8 1 11 3 18l59 236c-11 40 -39 62 -74 62c-26 0 -81 -15 -115 -112c-11 -28 -46 -151 -46 -205c0 -57 34 -71 57 -71c31 0 73 15 116 72zM507 637c0 22 -23 24 -47 24
c-17 0 -39 -1 -52 -15c-11 -13 -15 -42 -15 -47c0 -23 25 -24 47 -24c14 0 40 1 52 15c11 14 15 41 15 47zM569 636c0 -46 -45 -102 -140 -102c-61 0 -98 23 -98 66c0 48 47 102 140 102c64 0 98 -26 98 -66z" />
    <glyph glyph-name="ae" unicode="&#xe6;" horiz-adv-x="827" 
d="M803 87c0 -14 -69 -95 -209 -95c-45 0 -90 11 -125 40c-13 -37 -46 -40 -53 -40c-17 0 -37 7 -40 36c-53 -36 -98 -36 -113 -36c-107 0 -174 44 -174 114c0 18 10 107 120 187c82 60 199 98 260 116c11 37 42 43 54 43c30 0 39 -22 41 -33c35 19 84 33 134 33
c70 0 129 -34 129 -96c0 -138 -203 -138 -266 -138h-45c-13 -54 -13 -79 -13 -88c0 -78 44 -102 92 -102c24 0 96 7 162 81c5 7 8 10 15 10c10 0 31 -23 31 -32zM762 357c0 28 -19 59 -66 59c-25 0 -73 -9 -113 -49c-27 -29 -47 -71 -58 -113h21c55 0 216 0 216 103z
M397 122l61 244c-70 -27 -135 -71 -175 -116c-81 -87 -81 -170 -81 -174c0 -47 51 -48 67 -48c64 0 120 62 128 94z" />
    <glyph glyph-name="ccedilla" unicode="&#xe7;" horiz-adv-x="532" 
d="M536 86c0 -12 -39 -51 -93 -72c-32 -12 -67 -17 -96 -20l-11 -45c53 0 97 -27 85 -74c-18 -75 -164 -75 -282 -75c-15 0 -25 13 -21 28s20 28 35 28c60 0 144 0 148 19c5 18 -50 18 -91 18l26 106c-96 21 -129 92 -129 161c0 130 106 292 296 292c83 0 127 -43 127 -92
c0 -43 -30 -78 -72 -78s-50 31 -50 46c0 3 1 49 51 67c-19 20 -46 21 -57 21c-30 0 -92 -15 -131 -87c-27 -52 -55 -174 -55 -213c0 -57 31 -88 86 -88c15 0 116 0 190 83c7 7 11 7 14 7c10 0 30 -24 30 -32z" />
    <glyph glyph-name="egrave" unicode="&#xe8;" horiz-adv-x="532" 
d="M536 86c0 -12 -39 -51 -93 -72c-51 -19 -110 -22 -141 -22c-125 0 -192 67 -192 175c0 154 119 285 292 285c74 0 130 -36 130 -96c0 -138 -198 -138 -258 -138h-40c-9 -34 -16 -73 -16 -98c0 -59 29 -92 85 -92c14 0 115 0 189 83c7 7 11 7 14 7c10 0 30 -24 30 -32z
M467 357c0 32 -23 59 -65 59c-34 0 -78 -16 -106 -50c-29 -32 -39 -62 -53 -112c61 0 224 0 224 103zM470 535c-3 -6 -29 -33 -45 -33c-6 0 -9 3 -13 6l-108 89c-10 8 -28 23 -12 54c14 28 46 48 71 48c22 0 29 -12 39 -31l65 -114c4 -5 6 -12 3 -19z" />
    <glyph glyph-name="eacute" unicode="&#xe9;" horiz-adv-x="532" 
d="M536 86c0 -12 -39 -51 -93 -72c-51 -19 -110 -22 -141 -22c-125 0 -192 67 -192 175c0 154 119 285 292 285c74 0 130 -36 130 -96c0 -138 -198 -138 -258 -138h-40c-9 -34 -16 -73 -16 -98c0 -59 29 -92 85 -92c14 0 115 0 189 83c7 7 11 7 14 7c10 0 30 -24 30 -32z
M467 357c0 32 -23 59 -65 59c-34 0 -78 -16 -106 -50c-29 -32 -39 -62 -53 -112c61 0 224 0 224 103zM567 651c0 -31 -25 -46 -39 -54l-153 -89c-5 -3 -10 -6 -16 -6c-16 0 -28 27 -28 33c0 7 6 14 12 19l122 114c20 19 33 31 55 31c25 0 47 -20 47 -48z" />
    <glyph glyph-name="ecircumflex" unicode="&#xea;" horiz-adv-x="532" 
d="M536 86c0 -12 -39 -51 -93 -72c-51 -19 -110 -22 -141 -22c-125 0 -192 67 -192 175c0 154 119 285 292 285c74 0 130 -36 130 -96c0 -138 -198 -138 -258 -138h-40c-9 -34 -16 -73 -16 -98c0 -59 29 -92 85 -92c14 0 115 0 189 83c7 7 11 7 14 7c10 0 30 -24 30 -32z
M467 357c0 32 -23 59 -65 59c-34 0 -78 -16 -106 -50c-29 -32 -39 -62 -53 -112c61 0 224 0 224 103zM574 519l-23 -22l-141 99l-174 -99l-15 22l207 185z" />
    <glyph glyph-name="edieresis" unicode="&#xeb;" horiz-adv-x="532" 
d="M536 86c0 -12 -39 -51 -93 -72c-51 -19 -110 -22 -141 -22c-125 0 -192 67 -192 175c0 154 119 285 292 285c74 0 130 -36 130 -96c0 -138 -198 -138 -258 -138h-40c-9 -34 -16 -73 -16 -98c0 -59 29 -92 85 -92c14 0 115 0 189 83c7 7 11 7 14 7c10 0 30 -24 30 -32z
M467 357c0 32 -23 59 -65 59c-34 0 -78 -16 -106 -50c-29 -32 -39 -62 -53 -112c61 0 224 0 224 103zM362 613c0 -39 -37 -78 -79 -78c-35 0 -56 25 -57 54c0 39 40 78 81 78c37 0 55 -29 55 -54zM607 613c0 -39 -37 -78 -79 -78c-35 0 -56 25 -57 54c0 39 40 78 81 78
c37 0 55 -29 55 -54z" />
    <glyph glyph-name="igrave" unicode="&#xec;" horiz-adv-x="356" 
d="M390 148c0 -21 -49 -156 -153 -156c-54 0 -105 33 -105 89c0 15 3 23 9 39l90 238c1 2 8 27 8 40c0 18 -9 18 -14 18c-57 0 -84 -95 -92 -121c-4 -13 -9 -13 -28 -13c-15 0 -28 0 -28 14c0 21 49 156 153 156c54 0 105 -33 105 -89c0 -15 -3 -23 -9 -39l-90 -238
c-1 -2 -8 -27 -8 -40c0 -18 9 -18 14 -18c57 0 84 95 92 121c4 13 9 13 28 13c15 0 28 0 28 -14zM381 535c-3 -6 -29 -33 -45 -33c-6 0 -9 3 -13 6l-108 89c-10 8 -28 23 -12 54c14 28 46 48 71 48c22 0 29 -12 39 -31l65 -114c4 -5 6 -12 3 -19z" />
    <glyph glyph-name="iacute" unicode="&#xed;" horiz-adv-x="356" 
d="M390 148c0 -21 -49 -156 -153 -156c-54 0 -105 33 -105 89c0 15 3 23 9 39l90 238c1 2 8 27 8 40c0 18 -9 18 -14 18c-57 0 -84 -95 -92 -121c-4 -13 -9 -13 -28 -13c-15 0 -28 0 -28 14c0 21 49 156 153 156c54 0 105 -33 105 -89c0 -15 -3 -23 -9 -39l-90 -238
c-1 -2 -8 -27 -8 -40c0 -18 9 -18 14 -18c57 0 84 95 92 121c4 13 9 13 28 13c15 0 28 0 28 -14zM478 651c0 -31 -25 -46 -39 -54l-153 -89c-5 -3 -10 -6 -16 -6c-16 0 -28 27 -28 33c0 7 6 14 12 19l122 114c20 19 33 31 55 31c25 0 47 -20 47 -48z" />
    <glyph glyph-name="icircumflex" unicode="&#xee;" horiz-adv-x="356" 
d="M390 148c0 -21 -49 -156 -153 -156c-54 0 -105 33 -105 89c0 15 3 23 9 39l90 238c1 2 8 27 8 40c0 18 -9 18 -14 18c-57 0 -84 -95 -92 -121c-4 -13 -9 -13 -28 -13c-15 0 -28 0 -28 14c0 21 49 156 153 156c54 0 105 -33 105 -89c0 -15 -3 -23 -9 -39l-90 -238
c-1 -2 -8 -27 -8 -40c0 -18 9 -18 14 -18c57 0 84 95 92 121c4 13 9 13 28 13c15 0 28 0 28 -14zM485 519l-23 -22l-141 99l-174 -99l-15 22l207 185z" />
    <glyph glyph-name="idieresis" unicode="&#xef;" horiz-adv-x="356" 
d="M390 148c0 -21 -49 -156 -153 -156c-54 0 -105 33 -105 89c0 15 3 23 9 39l90 238c1 2 8 27 8 40c0 18 -9 18 -14 18c-57 0 -84 -95 -92 -121c-4 -13 -9 -13 -28 -13c-15 0 -28 0 -28 14c0 21 49 156 153 156c54 0 105 -33 105 -89c0 -15 -3 -23 -9 -39l-90 -238
c-1 -2 -8 -27 -8 -40c0 -18 9 -18 14 -18c57 0 84 95 92 121c4 13 9 13 28 13c15 0 28 0 28 -14zM273 613c0 -39 -37 -78 -79 -78c-35 0 -56 25 -57 54c0 39 40 78 81 78c37 0 55 -29 55 -54zM518 613c0 -39 -37 -78 -79 -78c-35 0 -56 25 -57 54c0 39 40 78 81 78
c37 0 55 -29 55 -54z" />
    <glyph glyph-name="eth" unicode="&#xf0;" 
d="M586 220c-40 -158 -167 -231 -293 -231c-103 0 -187 49 -187 164c0 132 110 308 302 308c43 0 68 -16 79 -25c-8 47 -26 90 -52 127l-80 -45c-6 -3 -11 -5 -15 -5c-11 0 -19 9 -19 20c0 9 5 19 17 26l68 37c-26 26 -58 46 -95 61c-6 2 -9 7 -9 12c0 12 12 26 27 24
c57 -8 108 -27 150 -56l88 49c5 3 10 5 15 5c11 0 18 -9 18 -20c0 -9 -5 -19 -17 -26l-66 -37c60 -55 96 -134 96 -227c0 -56 -8 -87 -27 -161zM436 125c20 47 48 153 48 201c0 60 -27 99 -83 99c-33 0 -93 -13 -128 -83c-20 -42 -56 -176 -56 -230c0 -70 49 -83 86 -83
c19 0 95 4 133 96z" />
    <glyph glyph-name="ntilde" unicode="&#xf1;" horiz-adv-x="650" 
d="M684 148c0 -21 -49 -156 -153 -156c-54 0 -105 33 -105 89c0 15 3 25 12 50c18 45 64 168 64 228c0 19 0 57 -43 57c-91 0 -147 -93 -154 -122l-62 -248c-13 -52 -56 -54 -63 -54c-21 0 -45 12 -45 43c0 5 0 7 4 22l71 285c4 16 6 24 6 43c0 23 -7 31 -19 31
c-34 0 -52 -75 -60 -108c-7 -25 -8 -26 -32 -26c-15 0 -28 0 -28 14c0 4 13 60 39 102c13 20 38 54 85 54c32 0 92 -12 112 -69c66 69 132 69 153 69c79 0 138 -30 138 -113c0 -57 -45 -175 -59 -212c-13 -34 -23 -60 -23 -81c0 -18 9 -18 14 -18c57 0 84 95 92 121
c4 13 9 13 28 13c15 0 28 0 28 -14zM662 642c0 -14 -45 -49 -61 -62c-25 -20 -57 -39 -86 -39c-18 0 -37 5 -68 39c-11 14 -21 22 -35 22c-27 0 -66 -32 -88 -51c-6 -6 -11 -10 -18 -10c-13 0 -18 12 -18 18c0 13 41 46 57 58c18 14 56 43 90 43c20 0 40 -8 61 -32
c19 -22 29 -29 42 -29c29 0 72 37 85 48c9 9 13 13 21 13c10 0 18 -8 18 -18z" />
    <glyph glyph-name="ograve" unicode="&#xf2;" 
d="M595 284c0 -126 -101 -292 -298 -292c-119 0 -190 65 -190 168c0 125 100 292 298 292c119 0 190 -65 190 -168zM435 124c25 53 51 165 51 204c0 71 -48 88 -83 88c-51 0 -107 -33 -136 -96c-25 -53 -51 -165 -51 -204c0 -71 48 -88 83 -88c51 0 107 33 136 96zM499 535
c-3 -6 -29 -33 -45 -33c-6 0 -9 3 -13 6l-108 89c-10 8 -28 23 -12 54c14 28 46 48 71 48c22 0 29 -12 39 -31l65 -114c4 -5 6 -12 3 -19z" />
    <glyph glyph-name="oacute" unicode="&#xf3;" 
d="M595 284c0 -126 -101 -292 -298 -292c-119 0 -190 65 -190 168c0 125 100 292 298 292c119 0 190 -65 190 -168zM435 124c25 53 51 165 51 204c0 71 -48 88 -83 88c-51 0 -107 -33 -136 -96c-25 -53 -51 -165 -51 -204c0 -71 48 -88 83 -88c51 0 107 33 136 96zM596 651
c0 -31 -25 -46 -39 -54l-153 -89c-5 -3 -10 -6 -16 -6c-16 0 -28 27 -28 33c0 7 6 14 12 19l122 114c20 19 33 31 55 31c25 0 47 -20 47 -48z" />
    <glyph glyph-name="ocircumflex" unicode="&#xf4;" 
d="M595 284c0 -126 -101 -292 -298 -292c-119 0 -190 65 -190 168c0 125 100 292 298 292c119 0 190 -65 190 -168zM435 124c25 53 51 165 51 204c0 71 -48 88 -83 88c-51 0 -107 -33 -136 -96c-25 -53 -51 -165 -51 -204c0 -71 48 -88 83 -88c51 0 107 33 136 96zM603 519
l-23 -22l-141 99l-174 -99l-15 22l207 185z" />
    <glyph glyph-name="otilde" unicode="&#xf5;" 
d="M595 284c0 -126 -101 -292 -298 -292c-119 0 -190 65 -190 168c0 125 100 292 298 292c119 0 190 -65 190 -168zM435 124c25 53 51 165 51 204c0 71 -48 88 -83 88c-51 0 -107 -33 -136 -96c-25 -53 -51 -165 -51 -204c0 -71 48 -88 83 -88c51 0 107 33 136 96zM633 642
c0 -14 -45 -49 -61 -62c-25 -20 -57 -39 -86 -39c-18 0 -37 5 -68 39c-11 14 -21 22 -35 22c-27 0 -66 -32 -88 -51c-6 -6 -11 -10 -18 -10c-13 0 -18 12 -18 18c0 13 41 46 57 58c18 14 56 43 90 43c20 0 40 -8 61 -32c19 -22 29 -29 42 -29c29 0 72 37 85 48
c9 9 13 13 21 13c10 0 18 -8 18 -18z" />
    <glyph glyph-name="odieresis" unicode="&#xf6;" 
d="M595 284c0 -126 -101 -292 -298 -292c-119 0 -190 65 -190 168c0 125 100 292 298 292c119 0 190 -65 190 -168zM435 124c25 53 51 165 51 204c0 71 -48 88 -83 88c-51 0 -107 -33 -136 -96c-25 -53 -51 -165 -51 -204c0 -71 48 -88 83 -88c51 0 107 33 136 96zM391 613
c0 -39 -37 -78 -79 -78c-35 0 -56 25 -57 54c0 39 40 78 81 78c37 0 55 -29 55 -54zM636 613c0 -39 -37 -78 -79 -78c-35 0 -56 25 -57 54c0 39 40 78 81 78c37 0 55 -29 55 -54z" />
    <glyph glyph-name="divide" unicode="&#xf7;" horiz-adv-x="886" 
d="M858 250c0 -30 -28 -30 -40 -30h-625c-12 0 -40 0 -40 30c0 31 31 31 46 31h613c15 0 46 0 46 -31zM639 499c0 -47 -45 -88 -90 -88c-29 0 -60 18 -60 59c0 50 48 88 89 88c36 0 61 -24 61 -59zM522 31c0 -47 -45 -88 -90 -88c-29 0 -60 18 -60 59c0 50 48 88 89 88
c36 0 61 -24 61 -59z" />
    <glyph glyph-name="oslash" unicode="&#xf8;" 
d="M589 287c0 -134 -104 -299 -293 -299c-41 0 -74 9 -95 19c-67 -84 -67 -86 -80 -101c-18 -20 -19 -21 -26 -21c-9 0 -18 8 -18 18c0 6 0 8 18 30l75 92c-49 42 -57 92 -57 132c0 134 104 299 293 299c41 0 74 -9 95 -19l86 108c9 11 12 15 20 15c7 0 18 -5 18 -18
c0 -6 0 -7 -11 -21l-82 -103c39 -31 57 -74 57 -131zM467 396c-23 24 -54 24 -63 24c-53 0 -112 -35 -144 -101c-27 -56 -50 -163 -50 -200c0 -16 3 -30 5 -37zM442 125c27 56 50 163 50 200c0 16 -3 30 -5 37l-252 -313c22 -25 54 -25 63 -25c53 0 112 35 144 101z" />
    <glyph glyph-name="ugrave" unicode="&#xf9;" horiz-adv-x="621" 
d="M655 148c0 -4 -13 -60 -39 -102c-13 -20 -38 -54 -85 -54c-39 0 -84 16 -103 51c-49 -46 -91 -51 -119 -51c-83 0 -148 35 -148 126c0 56 28 128 60 214c6 14 18 45 18 66c0 18 -9 18 -14 18c-57 0 -84 -95 -92 -121c-4 -13 -9 -13 -28 -13c-15 0 -28 0 -28 14
c0 21 49 156 153 156c54 0 105 -33 105 -89c0 -17 -5 -29 -14 -54c-24 -63 -58 -152 -58 -212c0 -22 2 -69 52 -69c30 0 55 16 69 29c28 28 29 32 33 50l69 281c12 50 51 56 64 56c21 0 45 -12 45 -43c0 -5 0 -7 -4 -22l-69 -277c-4 -16 -6 -24 -6 -43c0 -23 7 -31 19 -31
c34 0 52 75 60 108c7 25 8 26 32 26c15 0 28 0 28 -14zM514 535c-3 -6 -29 -33 -45 -33c-6 0 -9 3 -13 6l-108 89c-10 8 -28 23 -12 54c14 28 46 48 71 48c22 0 29 -12 39 -31l65 -114c4 -5 6 -12 3 -19z" />
    <glyph glyph-name="uacute" unicode="&#xfa;" horiz-adv-x="621" 
d="M655 148c0 -4 -13 -60 -39 -102c-13 -20 -38 -54 -85 -54c-39 0 -84 16 -103 51c-49 -46 -91 -51 -119 -51c-83 0 -148 35 -148 126c0 56 28 128 60 214c6 14 18 45 18 66c0 18 -9 18 -14 18c-57 0 -84 -95 -92 -121c-4 -13 -9 -13 -28 -13c-15 0 -28 0 -28 14
c0 21 49 156 153 156c54 0 105 -33 105 -89c0 -17 -5 -29 -14 -54c-24 -63 -58 -152 -58 -212c0 -22 2 -69 52 -69c30 0 55 16 69 29c28 28 29 32 33 50l69 281c12 50 51 56 64 56c21 0 45 -12 45 -43c0 -5 0 -7 -4 -22l-69 -277c-4 -16 -6 -24 -6 -43c0 -23 7 -31 19 -31
c34 0 52 75 60 108c7 25 8 26 32 26c15 0 28 0 28 -14zM611 651c0 -31 -25 -46 -39 -54l-153 -89c-5 -3 -10 -6 -16 -6c-16 0 -28 27 -28 33c0 7 6 14 12 19l122 114c20 19 33 31 55 31c25 0 47 -20 47 -48z" />
    <glyph glyph-name="ucircumflex" unicode="&#xfb;" horiz-adv-x="621" 
d="M655 148c0 -4 -13 -60 -39 -102c-13 -20 -38 -54 -85 -54c-39 0 -84 16 -103 51c-49 -46 -91 -51 -119 -51c-83 0 -148 35 -148 126c0 56 28 128 60 214c6 14 18 45 18 66c0 18 -9 18 -14 18c-57 0 -84 -95 -92 -121c-4 -13 -9 -13 -28 -13c-15 0 -28 0 -28 14
c0 21 49 156 153 156c54 0 105 -33 105 -89c0 -17 -5 -29 -14 -54c-24 -63 -58 -152 -58 -212c0 -22 2 -69 52 -69c30 0 55 16 69 29c28 28 29 32 33 50l69 281c12 50 51 56 64 56c21 0 45 -12 45 -43c0 -5 0 -7 -4 -22l-69 -277c-4 -16 -6 -24 -6 -43c0 -23 7 -31 19 -31
c34 0 52 75 60 108c7 25 8 26 32 26c15 0 28 0 28 -14zM618 519l-23 -22l-141 99l-174 -99l-15 22l207 185z" />
    <glyph glyph-name="udieresis" unicode="&#xfc;" horiz-adv-x="621" 
d="M655 148c0 -4 -13 -60 -39 -102c-13 -20 -38 -54 -85 -54c-39 0 -84 16 -103 51c-49 -46 -91 -51 -119 -51c-83 0 -148 35 -148 126c0 56 28 128 60 214c6 14 18 45 18 66c0 18 -9 18 -14 18c-57 0 -84 -95 -92 -121c-4 -13 -9 -13 -28 -13c-15 0 -28 0 -28 14
c0 21 49 156 153 156c54 0 105 -33 105 -89c0 -17 -5 -29 -14 -54c-24 -63 -58 -152 -58 -212c0 -22 2 -69 52 -69c30 0 55 16 69 29c28 28 29 32 33 50l69 281c12 50 51 56 64 56c21 0 45 -12 45 -43c0 -5 0 -7 -4 -22l-69 -277c-4 -16 -6 -24 -6 -43c0 -23 7 -31 19 -31
c34 0 52 75 60 108c7 25 8 26 32 26c15 0 28 0 28 -14zM406 613c0 -39 -37 -78 -79 -78c-35 0 -56 25 -57 54c0 39 40 78 81 78c37 0 55 -29 55 -54zM651 613c0 -39 -37 -78 -79 -78c-35 0 -56 25 -57 54c0 39 40 78 81 78c37 0 55 -29 55 -54z" />
    <glyph glyph-name="yacute" unicode="&#xfd;" horiz-adv-x="562" 
d="M495 -7c-24 -97 -135 -195 -261 -195c-74 0 -127 34 -127 87c0 43 32 76 72 76c18 0 49 -8 49 -46s-30 -59 -45 -66c20 -14 43 -15 52 -15c77 0 139 92 158 182c-15 -10 -44 -24 -84 -24c-83 0 -148 35 -148 126c0 56 28 128 60 214c6 14 18 45 18 66c0 18 -9 18 -14 18
c-57 0 -84 -95 -92 -121c-4 -13 -9 -13 -28 -13c-15 0 -28 0 -28 14c0 21 49 156 153 156c54 0 105 -33 105 -89c0 -17 -5 -29 -14 -54c-24 -63 -58 -152 -58 -212c0 -22 2 -69 52 -69c31 0 55 17 63 24c30 25 34 40 37 52l72 286c13 53 57 54 63 54c21 0 45 -12 45 -43
c0 -5 0 -7 -4 -22zM581 651c0 -31 -25 -46 -39 -54l-153 -89c-5 -3 -10 -6 -16 -6c-16 0 -28 27 -28 33c0 7 6 14 12 19l122 114c20 19 33 31 55 31c25 0 47 -20 47 -48z" />
    <glyph glyph-name="thorn" unicode="&#xfe;" 
d="M596 292c0 -134 -100 -300 -268 -300c-23 0 -59 4 -91 32l-42 -170c13 -1 29 -1 43 -1c10 0 27 -1 27 -18c0 -29 -20 -29 -27 -29c-34 0 -70 3 -105 3c-29 0 -61 -3 -89 -3c-9 0 -19 6 -19 18c0 29 17 29 32 29c30 0 31 1 35 16l191 768c-12 1 -30 2 -42 2
c-9 0 -27 0 -27 18c0 29 20 29 31 30l123 6c14 1 32 2 32 -17c0 -5 -2 -11 -3 -16l-59 -236c16 10 53 28 98 28c76 0 160 -41 160 -160zM443 140c11 28 46 151 46 205c0 57 -34 71 -57 71c-31 0 -73 -15 -116 -72c-1 -8 -1 -11 -3 -18l-59 -236c11 -40 39 -62 74 -62
c26 0 81 15 115 112z" />
    <glyph glyph-name="ydieresis" unicode="&#xff;" horiz-adv-x="562" 
d="M495 -7c-24 -97 -135 -195 -261 -195c-74 0 -127 34 -127 87c0 43 32 76 72 76c18 0 49 -8 49 -46s-30 -59 -45 -66c20 -14 43 -15 52 -15c77 0 139 92 158 182c-15 -10 -44 -24 -84 -24c-83 0 -148 35 -148 126c0 56 28 128 60 214c6 14 18 45 18 66c0 18 -9 18 -14 18
c-57 0 -84 -95 -92 -121c-4 -13 -9 -13 -28 -13c-15 0 -28 0 -28 14c0 21 49 156 153 156c54 0 105 -33 105 -89c0 -17 -5 -29 -14 -54c-24 -63 -58 -152 -58 -212c0 -22 2 -69 52 -69c31 0 55 17 63 24c30 25 34 40 37 52l72 286c13 53 57 54 63 54c21 0 45 -12 45 -43
c0 -5 0 -7 -4 -22zM376 613c0 -39 -37 -78 -79 -78c-35 0 -56 25 -57 54c0 39 40 78 81 78c37 0 55 -29 55 -54zM621 613c0 -39 -37 -78 -79 -78c-35 0 -56 25 -57 54c0 39 40 78 81 78c37 0 55 -29 55 -54z" />
    <glyph glyph-name="Amacron" unicode="&#x100;" horiz-adv-x="866" 
d="M805 29c0 -29 -18 -29 -28 -29c-45 0 -92 3 -137 3c-49 0 -99 -3 -147 -3c-22 0 -22 18 -22 18c0 29 17 29 39 29c20 0 46 1 65 5l-15 140h-232l-81 -135c24 -9 60 -10 60 -10c8 0 26 0 26 -18c0 -29 -20 -29 -28 -29c-37 0 -77 3 -115 3c-32 0 -67 -3 -98 -3
c-19 0 -19 18 -19 18c0 29 17 29 31 29c72 1 83 19 94 37l365 602c15 25 25 25 47 25c30 0 33 -3 36 -29l66 -616c2 -15 3 -16 15 -18c8 -1 24 -1 33 -1h13c15 0 32 0 32 -18zM555 239l-30 278l-168 -278h198zM822 793c0 -32 -17 -32 -35 -32h-317c-15 0 -32 0 -32 18
c0 32 17 32 35 32h317c15 0 32 0 32 -18z" />
    <glyph glyph-name="amacron" unicode="&#x101;" 
d="M615 148c0 -4 -13 -60 -39 -102c-13 -20 -38 -54 -85 -54c-39 0 -84 16 -103 51c-24 -19 -71 -51 -132 -51c-76 0 -160 41 -160 160c0 134 100 300 268 300c26 0 65 -5 97 -38c13 13 30 21 47 21c28 0 45 -19 45 -42c0 -4 0 -6 -4 -21l-67 -270c-4 -16 -6 -24 -6 -43
c0 -23 7 -31 19 -31c34 0 52 75 60 108c7 25 8 26 32 26c15 0 28 0 28 -14zM376 100c1 8 1 11 3 18l59 236c-11 40 -39 62 -74 62c-26 0 -81 -15 -115 -112c-11 -28 -46 -151 -46 -205c0 -57 34 -71 57 -71c31 0 73 15 116 72zM638 608c0 -32 -17 -32 -35 -32h-317
c-15 0 -32 0 -32 18c0 32 17 32 35 32h317c15 0 32 0 32 -18z" />
    <glyph glyph-name="Abreve" unicode="&#x102;" horiz-adv-x="866" 
d="M805 29c0 -29 -18 -29 -28 -29c-45 0 -92 3 -137 3c-49 0 -99 -3 -147 -3c-22 0 -22 18 -22 18c0 29 17 29 39 29c20 0 46 1 65 5l-15 140h-232l-81 -135c24 -9 60 -10 60 -10c8 0 26 0 26 -18c0 -29 -20 -29 -28 -29c-37 0 -77 3 -115 3c-32 0 -67 -3 -98 -3
c-19 0 -19 18 -19 18c0 29 17 29 31 29c72 1 83 19 94 37l365 602c15 25 25 25 47 25c30 0 33 -3 36 -29l66 -616c2 -15 3 -16 15 -18c8 -1 24 -1 33 -1h13c15 0 32 0 32 -18zM555 239l-30 278l-168 -278h198zM826 912c0 -40 -76 -161 -200 -161c-75 0 -133 50 -133 127
c0 27 3 52 22 52c10 0 18 -9 18 -18c0 -7 -3 -11 -3 -25c0 -53 53 -77 102 -77c40 0 130 20 158 104c2 5 5 16 18 16c10 0 18 -8 18 -18z" />
    <glyph glyph-name="abreve" unicode="&#x103;" 
d="M615 148c0 -4 -13 -60 -39 -102c-13 -20 -38 -54 -85 -54c-39 0 -84 16 -103 51c-24 -19 -71 -51 -132 -51c-76 0 -160 41 -160 160c0 134 100 300 268 300c26 0 65 -5 97 -38c13 13 30 21 47 21c28 0 45 -19 45 -42c0 -4 0 -6 -4 -21l-67 -270c-4 -16 -6 -24 -6 -43
c0 -23 7 -31 19 -31c34 0 52 75 60 108c7 25 8 26 32 26c15 0 28 0 28 -14zM376 100c1 8 1 11 3 18l59 236c-11 40 -39 62 -74 62c-26 0 -81 -15 -115 -112c-11 -28 -46 -151 -46 -205c0 -57 34 -71 57 -71c31 0 73 15 116 72zM628 672c0 -40 -76 -161 -200 -161
c-75 0 -133 50 -133 127c0 27 3 52 22 52c10 0 18 -9 18 -18c0 -7 -3 -11 -3 -25c0 -53 53 -77 102 -77c40 0 130 20 158 104c2 5 5 16 18 16c10 0 18 -8 18 -18z" />
    <glyph glyph-name="Aogonek" unicode="&#x104;" horiz-adv-x="866" 
d="M805 29c0 -29 -18 -29 -28 -29l-94 2c-82 -46 -76 -140 -8 -140c23 0 29 11 38 19c9 6 22 3 29 -3c8 -7 9 -22 4 -28c-28 -30 -63 -54 -107 -54c-70 0 -105 45 -105 90c0 44 37 93 72 117l-113 -3c-22 0 -22 18 -22 18c0 29 17 29 39 29c20 0 46 1 65 5l-15 140h-232
l-81 -135c24 -9 60 -10 60 -10c8 0 26 0 26 -18c0 -29 -20 -29 -28 -29c-37 0 -77 3 -115 3c-32 0 -67 -3 -98 -3c-19 0 -19 18 -19 18c0 29 17 29 31 29c72 1 83 19 94 37l365 602c15 25 25 25 47 25c30 0 33 -3 36 -29l66 -616c2 -15 3 -16 15 -18c8 -1 24 -1 33 -1h13
c15 0 32 0 32 -18zM555 239l-30 278l-168 -278h198z" />
    <glyph glyph-name="aogonek" unicode="&#x105;" 
d="M556 -150c-28 -30 -63 -54 -107 -54c-70 0 -105 45 -105 90c0 44 40 94 81 122c-16 8 -29 20 -37 35c-24 -19 -71 -51 -132 -51c-76 0 -160 41 -160 160c0 134 100 300 268 300c26 0 65 -5 97 -38c13 13 30 21 47 21c28 0 45 -19 45 -42c0 -4 0 -6 -4 -21l-67 -270
c-4 -16 -6 -24 -6 -43c0 -23 7 -31 19 -31c34 0 52 75 60 108c7 25 8 26 32 26c15 0 28 0 28 -14c0 -4 -13 -60 -39 -102c-13 -20 -38 -54 -85 -54c-4 0 -9 -1 -13 0c-72 -47 -56 -130 7 -130c23 0 29 11 38 19c9 6 22 3 29 -3c8 -7 9 -22 4 -28zM376 100c1 8 1 11 3 18
l59 236c-11 40 -39 62 -74 62c-26 0 -81 -15 -115 -112c-11 -28 -46 -151 -46 -205c0 -57 34 -71 57 -71c31 0 73 15 116 72z" />
    <glyph glyph-name="Cacute" unicode="&#x106;" horiz-adv-x="827" 
d="M849 446c-5 -20 -7 -20 -32 -20c-20 0 -31 0 -31 15c0 7 3 13 3 43c0 94 -46 172 -145 172c-67 0 -164 -25 -233 -109c-88 -108 -113 -300 -113 -345c0 -21 0 -83 46 -125c44 -41 107 -47 139 -47c79 0 209 52 257 209c3 9 12 9 27 9s28 0 28 -14c0 -9 -22 -98 -107 -166
c-77 -62 -157 -85 -230 -85c-148 0 -295 70 -295 262c0 212 173 458 467 458c25 0 103 0 166 -68l86 68c15 0 27 0 27 -14c0 0 0 -4 -4 -19zM827 861c-6 -30 -33 -41 -48 -46l-166 -61c-6 -2 -11 -3 -17 -3c-16 2 -23 31 -22 37c1 7 9 13 15 17l140 91c20 13 33 22 51 22
c32 0 52 -25 47 -57z" />
    <glyph glyph-name="cacute" unicode="&#x107;" horiz-adv-x="532" 
d="M536 86c0 -12 -39 -51 -93 -72c-54 -20 -116 -22 -142 -22c-147 0 -194 86 -194 168c0 130 106 292 296 292c83 0 127 -43 127 -92c0 -43 -30 -78 -72 -78s-50 31 -50 46c0 3 1 49 51 67c-19 20 -46 21 -57 21c-30 0 -92 -15 -131 -87c-27 -52 -55 -174 -55 -213
c0 -57 31 -88 86 -88c15 0 116 0 190 83c7 7 11 7 14 7c10 0 30 -24 30 -32zM593 651c0 -31 -25 -46 -39 -54l-153 -89c-5 -3 -10 -6 -16 -6c-16 0 -28 27 -28 33c0 7 6 14 12 19l122 114c20 19 33 31 55 31c25 0 47 -20 47 -48z" />
    <glyph glyph-name="Ccircumflex" unicode="&#x108;" horiz-adv-x="827" 
d="M849 446c-5 -20 -7 -20 -32 -20c-20 0 -31 0 -31 15c0 7 3 13 3 43c0 94 -46 172 -145 172c-67 0 -164 -25 -233 -109c-88 -108 -113 -300 -113 -345c0 -21 0 -83 46 -125c44 -41 107 -47 139 -47c79 0 209 52 257 209c3 9 12 9 27 9s28 0 28 -14c0 -9 -22 -98 -107 -166
c-77 -62 -157 -85 -230 -85c-148 0 -295 70 -295 262c0 212 173 458 467 458c25 0 103 0 166 -68l86 68c15 0 27 0 27 -14c0 0 0 -4 -4 -19zM821 766l-19 -25l-151 56l-169 -56l-10 25l198 139z" />
    <glyph glyph-name="ccircumflex" unicode="&#x109;" horiz-adv-x="532" 
d="M536 86c0 -12 -39 -51 -93 -72c-54 -20 -116 -22 -142 -22c-147 0 -194 86 -194 168c0 130 106 292 296 292c83 0 127 -43 127 -92c0 -43 -30 -78 -72 -78s-50 31 -50 46c0 3 1 49 51 67c-19 20 -46 21 -57 21c-30 0 -92 -15 -131 -87c-27 -52 -55 -174 -55 -213
c0 -57 31 -88 86 -88c15 0 116 0 190 83c7 7 11 7 14 7c10 0 30 -24 30 -32zM600 519l-23 -22l-141 99l-174 -99l-15 22l207 185z" />
    <glyph glyph-name="Cdotaccent" unicode="&#x10a;" horiz-adv-x="827" 
d="M849 446c-5 -20 -7 -20 -32 -20c-20 0 -31 0 -31 15c0 7 3 13 3 43c0 94 -46 172 -145 172c-67 0 -164 -25 -233 -109c-88 -108 -113 -300 -113 -345c0 -21 0 -83 46 -125c44 -41 107 -47 139 -47c79 0 209 52 257 209c3 9 12 9 27 9s28 0 28 -14c0 -9 -22 -98 -107 -166
c-77 -62 -157 -85 -230 -85c-148 0 -295 70 -295 262c0 212 173 458 467 458c25 0 103 0 166 -68l86 68c15 0 27 0 27 -14c0 0 0 -4 -4 -19zM739 845c0 -43 -42 -87 -89 -87c-38 0 -62 28 -62 60c0 44 43 87 89 87c41 0 62 -32 62 -60z" />
    <glyph glyph-name="cdotaccent" unicode="&#x10b;" horiz-adv-x="532" 
d="M536 86c0 -12 -39 -51 -93 -72c-54 -20 -116 -22 -142 -22c-147 0 -194 86 -194 168c0 130 106 292 296 292c83 0 127 -43 127 -92c0 -43 -30 -78 -72 -78s-50 31 -50 46c0 3 1 49 51 67c-19 20 -46 21 -57 21c-30 0 -92 -15 -131 -87c-27 -52 -55 -174 -55 -213
c0 -57 31 -88 86 -88c15 0 116 0 190 83c7 7 11 7 14 7c10 0 30 -24 30 -32zM519 614c0 -43 -42 -87 -89 -87c-38 0 -62 28 -62 60c0 44 43 87 89 87c41 0 62 -32 62 -60z" />
    <glyph glyph-name="Ccaron" unicode="&#x10c;" horiz-adv-x="827" 
d="M849 446c-5 -20 -7 -20 -32 -20c-20 0 -31 0 -31 15c0 7 3 13 3 43c0 94 -46 172 -145 172c-67 0 -164 -25 -233 -109c-88 -108 -113 -300 -113 -345c0 -21 0 -83 46 -125c44 -41 107 -47 139 -47c79 0 209 52 257 209c3 9 12 9 27 9s28 0 28 -14c0 -9 -22 -98 -107 -166
c-77 -62 -157 -85 -230 -85c-148 0 -295 70 -295 262c0 212 173 458 467 458c25 0 103 0 166 -68l86 68c15 0 27 0 27 -14c0 0 0 -4 -4 -19zM850 880l-197 -139l-152 139l20 25l151 -56l169 56z" />
    <glyph glyph-name="ccaron" unicode="&#x10d;" horiz-adv-x="532" 
d="M536 86c0 -12 -39 -51 -93 -72c-54 -20 -116 -22 -142 -22c-147 0 -194 86 -194 168c0 130 106 292 296 292c83 0 127 -43 127 -92c0 -43 -30 -78 -72 -78s-50 31 -50 46c0 3 1 49 51 67c-19 20 -46 21 -57 21c-30 0 -92 -15 -131 -87c-27 -52 -55 -174 -55 -213
c0 -57 31 -88 86 -88c15 0 116 0 190 83c7 7 11 7 14 7c10 0 30 -24 30 -32zM640 682l-207 -185l-146 185l23 22l141 -99l174 99z" />
    <glyph glyph-name="Dcaron" unicode="&#x10e;" horiz-adv-x="876" 
d="M885 446c0 -202 -152 -446 -421 -446h-368c-15 0 -32 0 -32 18c0 29 18 29 35 29h22c12 0 28 1 40 2c18 1 19 2 23 16l143 572c-12 1 -38 2 -49 2h-22c-15 0 -32 0 -32 18c0 29 18 29 35 29h376c124 0 250 -63 250 -240zM757 483c0 132 -101 156 -172 156h-95
c-31 0 -32 -1 -36 -16l-143 -575c7 -1 14 -1 23 -1h104c100 0 183 44 235 127c46 75 84 255 84 309zM773 880l-197 -139l-152 139l20 25l151 -56l169 56z" />
    <glyph glyph-name="dcaron" unicode="&#x10f;" 
d="M625 148c0 -4 -13 -60 -39 -102c-13 -20 -38 -54 -85 -54c-39 0 -84 16 -103 51c-24 -19 -71 -51 -132 -51c-76 0 -160 41 -160 160c0 134 100 300 268 300c23 0 59 -4 91 -32l53 217c-12 1 -30 2 -42 2c-9 0 -27 0 -27 18c0 29 20 29 31 30l123 6c14 1 32 2 32 -17
c0 -5 -2 -11 -3 -16l-140 -558c-4 -16 -6 -24 -6 -43c0 -23 7 -31 19 -31c34 0 52 75 60 108c7 25 8 26 32 26c15 0 28 0 28 -14zM386 100c1 8 1 11 3 18l59 236c-11 40 -39 62 -74 62c-26 0 -81 -15 -115 -112c-11 -28 -46 -151 -46 -205c0 -57 34 -71 57 -71
c31 0 73 15 116 72zM782 634c0 -98 -110 -196 -127 -196c-8 0 -14 9 -14 15c0 5 1 6 13 15c28 20 73 61 93 126c-2 -1 -16 -10 -36 -10c-35 0 -46 25 -46 43c0 30 27 67 68 67c32 0 49 -25 49 -60z" />
    <glyph glyph-name="Dcroat" unicode="&#x110;" horiz-adv-x="876" 
d="M885 446c0 -202 -152 -446 -421 -446h-368c-15 0 -32 0 -32 18c0 29 18 29 35 29h22c12 0 28 1 40 2c18 1 19 2 23 16l63 254h-109c-13 0 -21 11 -18 24s17 24 30 24h110l67 270c-12 1 -38 2 -49 2h-22c-15 0 -32 0 -32 18c0 29 18 29 35 29h376c124 0 250 -63 250 -240z
M757 483c0 132 -101 156 -172 156h-95c-31 0 -32 -1 -36 -16l-64 -256h140c13 0 21 -11 18 -24c-4 -13 -17 -24 -30 -24h-140l-67 -271c7 -1 14 -1 23 -1h104c100 0 183 44 235 127c46 75 84 255 84 309z" />
    <glyph glyph-name="dcroat" unicode="&#x111;" 
d="M625 148c0 -4 -13 -60 -39 -102c-13 -20 -38 -54 -85 -54c-39 0 -84 16 -103 51c-24 -19 -71 -51 -132 -51c-76 0 -160 41 -160 160c0 134 100 300 268 300c23 0 59 -4 91 -32l25 101h-124c-13 0 -21 11 -18 24c4 14 17 24 30 24h123l17 68c-12 1 -30 2 -42 2
c-9 0 -27 0 -27 18c0 29 20 29 31 30l123 6c14 1 32 2 32 -17c0 -5 -2 -11 -3 -16l-23 -91h15c14 0 22 -10 18 -24c-3 -13 -16 -24 -30 -24h-15l-105 -419c-4 -16 -6 -24 -6 -43c0 -23 7 -31 19 -31c34 0 52 75 60 108c7 25 8 26 32 26c15 0 28 0 28 -14zM386 100
c1 8 1 11 3 18l59 236c-11 40 -39 62 -74 62c-26 0 -81 -15 -115 -112c-11 -28 -46 -151 -46 -205c0 -57 34 -71 57 -71c31 0 73 15 116 72z" />
    <glyph glyph-name="Emacron" unicode="&#x112;" horiz-adv-x="757" 
d="M761 256c0 -6 -3 -12 -5 -17l-95 -222c-7 -17 -12 -17 -33 -17h-532c-15 0 -32 0 -32 18c0 29 18 29 35 29h22c12 0 28 1 40 2c18 1 19 2 23 16l141 566c-6 0 -39 2 -49 2h-22c-14 0 -31 0 -31 18c0 29 17 29 34 29h516c14 0 30 0 32 -17l-23 -198c-2 -19 -3 -26 -29 -26
c-10 0 -28 0 -28 19c0 4 2 17 3 21c3 26 3 29 3 48c0 106 -65 106 -187 106c-27 0 -68 0 -82 -2l-63 -255h42c79 0 97 25 115 95c5 19 8 22 30 22c10 0 28 0 28 -18c0 -3 -1 -6 -3 -13l-56 -226c-6 -24 -13 -24 -30 -24c-10 0 -28 0 -28 18c0 0 1 7 3 14c4 18 7 38 7 45
c0 30 -14 40 -69 40h-51l-70 -281c7 -1 14 -1 23 -1h100c163 0 206 77 259 200c12 26 12 27 34 27c10 0 28 0 28 -18zM767 793c0 -32 -17 -32 -35 -32h-317c-15 0 -32 0 -32 18c0 32 17 32 35 32h317c15 0 32 0 32 -18z" />
    <glyph glyph-name="emacron" unicode="&#x113;" horiz-adv-x="532" 
d="M536 86c0 -12 -39 -51 -93 -72c-51 -19 -110 -22 -141 -22c-125 0 -192 67 -192 175c0 154 119 285 292 285c74 0 130 -36 130 -96c0 -138 -198 -138 -258 -138h-40c-9 -34 -16 -73 -16 -98c0 -59 29 -92 85 -92c14 0 115 0 189 83c7 7 11 7 14 7c10 0 30 -24 30 -32z
M467 357c0 32 -23 59 -65 59c-34 0 -78 -16 -106 -50c-29 -32 -39 -62 -53 -112c61 0 224 0 224 103zM609 608c0 -32 -17 -32 -35 -32h-317c-15 0 -32 0 -32 18c0 32 17 32 35 32h317c15 0 32 0 32 -18z" />
    <glyph glyph-name="Ebreve" unicode="&#x114;" horiz-adv-x="757" 
d="M761 256c0 -6 -3 -12 -5 -17l-95 -222c-7 -17 -12 -17 -33 -17h-532c-15 0 -32 0 -32 18c0 29 18 29 35 29h22c12 0 28 1 40 2c18 1 19 2 23 16l141 566c-6 0 -39 2 -49 2h-22c-14 0 -31 0 -31 18c0 29 17 29 34 29h516c14 0 30 0 32 -17l-23 -198c-2 -19 -3 -26 -29 -26
c-10 0 -28 0 -28 19c0 4 2 17 3 21c3 26 3 29 3 48c0 106 -65 106 -187 106c-27 0 -68 0 -82 -2l-63 -255h42c79 0 97 25 115 95c5 19 8 22 30 22c10 0 28 0 28 -18c0 -3 -1 -6 -3 -13l-56 -226c-6 -24 -13 -24 -30 -24c-10 0 -28 0 -28 18c0 0 1 7 3 14c4 18 7 38 7 45
c0 30 -14 40 -69 40h-51l-70 -281c7 -1 14 -1 23 -1h100c163 0 206 77 259 200c12 26 12 27 34 27c10 0 28 0 28 -18zM771 912c0 -40 -76 -161 -200 -161c-75 0 -133 50 -133 127c0 27 3 52 22 52c10 0 18 -9 18 -18c0 -7 -3 -11 -3 -25c0 -53 53 -77 102 -77
c40 0 130 20 158 104c2 5 5 16 18 16c10 0 18 -8 18 -18z" />
    <glyph glyph-name="ebreve" unicode="&#x115;" horiz-adv-x="532" 
d="M536 86c0 -12 -39 -51 -93 -72c-51 -19 -110 -22 -141 -22c-125 0 -192 67 -192 175c0 154 119 285 292 285c74 0 130 -36 130 -96c0 -138 -198 -138 -258 -138h-40c-9 -34 -16 -73 -16 -98c0 -59 29 -92 85 -92c14 0 115 0 189 83c7 7 11 7 14 7c10 0 30 -24 30 -32z
M467 357c0 32 -23 59 -65 59c-34 0 -78 -16 -106 -50c-29 -32 -39 -62 -53 -112c61 0 224 0 224 103zM599 672c0 -40 -76 -161 -200 -161c-75 0 -133 50 -133 127c0 27 3 52 22 52c10 0 18 -9 18 -18c0 -7 -3 -11 -3 -25c0 -53 53 -77 102 -77c40 0 130 20 158 104
c2 5 5 16 18 16c10 0 18 -8 18 -18z" />
    <glyph glyph-name="Edotaccent" unicode="&#x116;" horiz-adv-x="757" 
d="M761 256c0 -6 -3 -12 -5 -17l-95 -222c-7 -17 -12 -17 -33 -17h-532c-15 0 -32 0 -32 18c0 29 18 29 35 29h22c12 0 28 1 40 2c18 1 19 2 23 16l141 566c-6 0 -39 2 -49 2h-22c-14 0 -31 0 -31 18c0 29 17 29 34 29h516c14 0 30 0 32 -17l-23 -198c-2 -19 -3 -26 -29 -26
c-10 0 -28 0 -28 19c0 4 2 17 3 21c3 26 3 29 3 48c0 106 -65 106 -187 106c-27 0 -68 0 -82 -2l-63 -255h42c79 0 97 25 115 95c5 19 8 22 30 22c10 0 28 0 28 -18c0 -3 -1 -6 -3 -13l-56 -226c-6 -24 -13 -24 -30 -24c-10 0 -28 0 -28 18c0 0 1 7 3 14c4 18 7 38 7 45
c0 30 -14 40 -69 40h-51l-70 -281c7 -1 14 -1 23 -1h100c163 0 206 77 259 200c12 26 12 27 34 27c10 0 28 0 28 -18zM662 845c0 -43 -42 -87 -89 -87c-38 0 -62 28 -62 60c0 44 43 87 89 87c41 0 62 -32 62 -60z" />
    <glyph glyph-name="edotaccent" unicode="&#x117;" horiz-adv-x="532" 
d="M536 86c0 -12 -39 -51 -93 -72c-51 -19 -110 -22 -141 -22c-125 0 -192 67 -192 175c0 154 119 285 292 285c74 0 130 -36 130 -96c0 -138 -198 -138 -258 -138h-40c-9 -34 -16 -73 -16 -98c0 -59 29 -92 85 -92c14 0 115 0 189 83c7 7 11 7 14 7c10 0 30 -24 30 -32z
M467 357c0 32 -23 59 -65 59c-34 0 -78 -16 -106 -50c-29 -32 -39 -62 -53 -112c61 0 224 0 224 103zM492 614c0 -43 -42 -87 -89 -87c-38 0 -62 28 -62 60c0 44 43 87 89 87c41 0 62 -32 62 -60z" />
    <glyph glyph-name="Eogonek" unicode="&#x118;" horiz-adv-x="757" 
d="M761 256c0 -6 -3 -12 -5 -17l-95 -222c-7 -17 -12 -17 -33 -17h-76c-93 -44 -75 -138 -7 -138c23 0 29 11 38 19c9 6 22 3 29 -3c8 -7 9 -22 4 -28c-28 -30 -63 -54 -107 -54c-70 0 -105 45 -105 90c0 44 24 88 71 114h-379c-15 0 -32 0 -32 18c0 29 18 29 35 29h22
c12 0 28 1 40 2c18 1 19 2 23 16l141 566c-6 0 -39 2 -49 2h-22c-14 0 -31 0 -31 18c0 29 17 29 34 29h516c14 0 30 0 32 -17l-23 -198c-2 -19 -3 -26 -29 -26c-10 0 -28 0 -28 19c0 4 2 17 3 21c3 26 3 29 3 48c0 106 -65 106 -187 106c-27 0 -68 0 -82 -2l-63 -255h42
c79 0 97 25 115 95c5 19 8 22 30 22c10 0 28 0 28 -18c0 -3 -1 -6 -3 -13l-56 -226c-6 -24 -13 -24 -30 -24c-10 0 -28 0 -28 18c0 0 1 7 3 14c4 18 7 38 7 45c0 30 -14 40 -69 40h-51l-70 -281c7 -1 14 -1 23 -1h100c163 0 206 77 259 200c12 26 12 27 34 27
c10 0 28 0 28 -18z" />
    <glyph glyph-name="eogonek" unicode="&#x119;" horiz-adv-x="532" 
d="M536 86c0 -12 -39 -51 -93 -72c-30 -11 -62 -18 -90 -20c-93 -44 -76 -132 -8 -132c23 0 29 11 38 19c9 6 22 3 29 -3c8 -7 9 -22 4 -28c-28 -30 -63 -54 -107 -54c-70 0 -105 45 -105 90c0 44 28 84 63 108c-102 12 -157 76 -157 173c0 154 119 285 292 285
c74 0 130 -36 130 -96c0 -138 -198 -138 -258 -138h-40c-9 -34 -16 -73 -16 -98c0 -59 29 -92 85 -92c14 0 115 0 189 83c7 7 11 7 14 7c10 0 30 -24 30 -32zM467 357c0 32 -23 59 -65 59c-34 0 -78 -16 -106 -50c-29 -32 -39 -62 -53 -112c61 0 224 0 224 103z" />
    <glyph glyph-name="Ecaron" unicode="&#x11a;" horiz-adv-x="757" 
d="M761 256c0 -6 -3 -12 -5 -17l-95 -222c-7 -17 -12 -17 -33 -17h-532c-15 0 -32 0 -32 18c0 29 18 29 35 29h22c12 0 28 1 40 2c18 1 19 2 23 16l141 566c-6 0 -39 2 -49 2h-22c-14 0 -31 0 -31 18c0 29 17 29 34 29h516c14 0 30 0 32 -17l-23 -198c-2 -19 -3 -26 -29 -26
c-10 0 -28 0 -28 19c0 4 2 17 3 21c3 26 3 29 3 48c0 106 -65 106 -187 106c-27 0 -68 0 -82 -2l-63 -255h42c79 0 97 25 115 95c5 19 8 22 30 22c10 0 28 0 28 -18c0 -3 -1 -6 -3 -13l-56 -226c-6 -24 -13 -24 -30 -24c-10 0 -28 0 -28 18c0 0 1 7 3 14c4 18 7 38 7 45
c0 30 -14 40 -69 40h-51l-70 -281c7 -1 14 -1 23 -1h100c163 0 206 77 259 200c12 26 12 27 34 27c10 0 28 0 28 -18zM773 880l-197 -139l-152 139l20 25l151 -56l169 56z" />
    <glyph glyph-name="ecaron" unicode="&#x11b;" horiz-adv-x="532" 
d="M536 86c0 -12 -39 -51 -93 -72c-51 -19 -110 -22 -141 -22c-125 0 -192 67 -192 175c0 154 119 285 292 285c74 0 130 -36 130 -96c0 -138 -198 -138 -258 -138h-40c-9 -34 -16 -73 -16 -98c0 -59 29 -92 85 -92c14 0 115 0 189 83c7 7 11 7 14 7c10 0 30 -24 30 -32z
M467 357c0 32 -23 59 -65 59c-34 0 -78 -16 -106 -50c-29 -32 -39 -62 -53 -112c61 0 224 0 224 103zM614 682l-207 -185l-146 185l23 22l141 -99l174 99z" />
    <glyph glyph-name="Gcircumflex" unicode="&#x11c;" horiz-adv-x="895" 
d="M874 258c0 -29 -16 -29 -40 -29c-11 0 -22 0 -33 -2c-7 -1 -9 -1 -12 -15l-47 -191c-3 -12 -5 -21 -17 -21c-7 0 -49 24 -75 47c-55 -49 -131 -64 -192 -64c-153 0 -295 74 -295 261c0 216 175 459 466 459c25 0 103 0 166 -68l86 68c15 0 27 0 27 -14c0 0 0 -4 -4 -19
l-56 -224c-5 -20 -7 -20 -32 -20c-20 0 -31 0 -31 15c0 8 3 12 3 44c0 88 -42 171 -145 171c-65 0 -166 -25 -237 -115c-82 -106 -108 -293 -108 -338c0 -64 20 -101 49 -128c27 -24 78 -45 139 -45c62 0 126 33 143 89c3 10 26 100 26 104c0 6 -48 6 -60 6h-34
c-14 0 -32 0 -32 18c0 29 19 29 31 29c55 0 112 -3 167 -3c42 0 86 3 127 3c16 0 20 -12 20 -18zM814 766l-19 -25l-151 56l-169 -56l-10 25l198 139z" />
    <glyph glyph-name="gcircumflex" unicode="&#x11d;" horiz-adv-x="532" 
d="M451 -64c-22 -87 -118 -138 -239 -138c-74 0 -153 8 -153 70c0 45 36 74 71 74c31 0 50 -21 50 -46c0 -13 -7 -39 -28 -56c12 -3 35 -6 62 -6c54 0 111 29 135 122l17 71c-34 -19 -65 -27 -97 -27c-90 0 -162 52 -162 158c0 129 97 294 267 294c36 0 68 -10 97 -37
c9 9 20 20 47 20c28 0 45 -19 45 -42c0 0 0 -8 -4 -24zM389 117l59 239c-12 44 -44 60 -74 60c-26 0 -77 -15 -110 -98c-14 -35 -49 -156 -49 -211c0 -22 5 -71 58 -71c48 0 107 46 116 81zM589 519l-23 -22l-141 99l-174 -99l-15 22l207 185z" />
    <glyph glyph-name="Gbreve" unicode="&#x11e;" horiz-adv-x="895" 
d="M874 258c0 -29 -16 -29 -40 -29c-11 0 -22 0 -33 -2c-7 -1 -9 -1 -12 -15l-47 -191c-3 -12 -5 -21 -17 -21c-7 0 -49 24 -75 47c-55 -49 -131 -64 -192 -64c-153 0 -295 74 -295 261c0 216 175 459 466 459c25 0 103 0 166 -68l86 68c15 0 27 0 27 -14c0 0 0 -4 -4 -19
l-56 -224c-5 -20 -7 -20 -32 -20c-20 0 -31 0 -31 15c0 8 3 12 3 44c0 88 -42 171 -145 171c-65 0 -166 -25 -237 -115c-82 -106 -108 -293 -108 -338c0 -64 20 -101 49 -128c27 -24 78 -45 139 -45c62 0 126 33 143 89c3 10 26 100 26 104c0 6 -48 6 -60 6h-34
c-14 0 -32 0 -32 18c0 29 19 29 31 29c55 0 112 -3 167 -3c42 0 86 3 127 3c16 0 20 -12 20 -18zM841 912c0 -40 -76 -161 -200 -161c-75 0 -133 50 -133 127c0 27 3 52 22 52c10 0 18 -9 18 -18c0 -7 -3 -11 -3 -25c0 -53 53 -77 102 -77c40 0 130 20 158 104
c2 5 5 16 18 16c10 0 18 -8 18 -18z" />
    <glyph glyph-name="gbreve" unicode="&#x11f;" horiz-adv-x="532" 
d="M451 -64c-22 -87 -118 -138 -239 -138c-74 0 -153 8 -153 70c0 45 36 74 71 74c31 0 50 -21 50 -46c0 -13 -7 -39 -28 -56c12 -3 35 -6 62 -6c54 0 111 29 135 122l17 71c-34 -19 -65 -27 -97 -27c-90 0 -162 52 -162 158c0 129 97 294 267 294c36 0 68 -10 97 -37
c9 9 20 20 47 20c28 0 45 -19 45 -42c0 0 0 -8 -4 -24zM389 117l59 239c-12 44 -44 60 -74 60c-26 0 -77 -15 -110 -98c-14 -35 -49 -156 -49 -211c0 -22 5 -71 58 -71c48 0 107 46 116 81zM614 672c0 -40 -76 -161 -200 -161c-75 0 -133 50 -133 127c0 27 3 52 22 52
c10 0 18 -9 18 -18c0 -7 -3 -11 -3 -25c0 -53 53 -77 102 -77c40 0 130 20 158 104c2 5 5 16 18 16c10 0 18 -8 18 -18z" />
    <glyph glyph-name="Gdotaccent" unicode="&#x120;" horiz-adv-x="895" 
d="M874 258c0 -29 -16 -29 -40 -29c-11 0 -22 0 -33 -2c-7 -1 -9 -1 -12 -15l-47 -191c-3 -12 -5 -21 -17 -21c-7 0 -49 24 -75 47c-55 -49 -131 -64 -192 -64c-153 0 -295 74 -295 261c0 216 175 459 466 459c25 0 103 0 166 -68l86 68c15 0 27 0 27 -14c0 0 0 -4 -4 -19
l-56 -224c-5 -20 -7 -20 -32 -20c-20 0 -31 0 -31 15c0 8 3 12 3 44c0 88 -42 171 -145 171c-65 0 -166 -25 -237 -115c-82 -106 -108 -293 -108 -338c0 -64 20 -101 49 -128c27 -24 78 -45 139 -45c62 0 126 33 143 89c3 10 26 100 26 104c0 6 -48 6 -60 6h-34
c-14 0 -32 0 -32 18c0 29 19 29 31 29c55 0 112 -3 167 -3c42 0 86 3 127 3c16 0 20 -12 20 -18zM732 845c0 -43 -42 -87 -89 -87c-38 0 -62 28 -62 60c0 44 43 87 89 87c41 0 62 -32 62 -60z" />
    <glyph glyph-name="gdotaccent" unicode="&#x121;" horiz-adv-x="532" 
d="M451 -64c-22 -87 -118 -138 -239 -138c-74 0 -153 8 -153 70c0 45 36 74 71 74c31 0 50 -21 50 -46c0 -13 -7 -39 -28 -56c12 -3 35 -6 62 -6c54 0 111 29 135 122l17 71c-34 -19 -65 -27 -97 -27c-90 0 -162 52 -162 158c0 129 97 294 267 294c36 0 68 -10 97 -37
c9 9 20 20 47 20c28 0 45 -19 45 -42c0 0 0 -8 -4 -24zM389 117l59 239c-12 44 -44 60 -74 60c-26 0 -77 -15 -110 -98c-14 -35 -49 -156 -49 -211c0 -22 5 -71 58 -71c48 0 107 46 116 81zM508 614c0 -43 -42 -87 -89 -87c-38 0 -62 28 -62 60c0 44 43 87 89 87
c41 0 62 -32 62 -60z" />
    <glyph glyph-name="Gcommaaccent" unicode="&#x122;" horiz-adv-x="895" 
d="M874 258c0 -29 -16 -29 -40 -29c-11 0 -22 0 -33 -2c-7 -1 -9 -1 -12 -15l-47 -191c-3 -12 -5 -21 -17 -21c-7 0 -49 24 -75 47c-55 -49 -131 -64 -192 -64c-153 0 -295 74 -295 261c0 216 175 459 466 459c25 0 103 0 166 -68l86 68c15 0 27 0 27 -14c0 0 0 -4 -4 -19
l-56 -224c-5 -20 -7 -20 -32 -20c-20 0 -31 0 -31 15c0 8 3 12 3 44c0 88 -42 171 -145 171c-65 0 -166 -25 -237 -115c-82 -106 -108 -293 -108 -338c0 -64 20 -101 49 -128c27 -24 78 -45 139 -45c62 0 126 33 143 89c3 10 26 100 26 104c0 6 -48 6 -60 6h-34
c-14 0 -32 0 -32 18c0 29 19 29 31 29c55 0 112 -3 167 -3c42 0 86 3 127 3c16 0 20 -12 20 -18zM476 -111c0 -98 -110 -196 -127 -196c-8 0 -14 9 -14 15c0 5 1 6 13 15c28 20 73 61 93 126c-2 -1 -16 -10 -36 -10c-35 0 -46 25 -46 43c0 30 27 67 68 67
c32 0 49 -25 49 -60z" />
    <glyph glyph-name="gcommaaccent" unicode="&#x123;" horiz-adv-x="532" 
d="M480 557c0 -30 -27 -67 -68 -67c-32 0 -49 25 -49 60c0 98 110 196 127 196c8 0 14 -9 14 -15c0 -5 -1 -6 -13 -15c-28 -20 -73 -61 -93 -126c2 1 16 10 36 10c35 0 46 -25 46 -43zM451 -64c-22 -87 -118 -138 -239 -138c-74 0 -153 8 -153 70c0 45 36 74 71 74
c31 0 50 -21 50 -46c0 -13 -7 -39 -28 -56c12 -3 35 -6 62 -6c54 0 111 29 135 122l17 71c-34 -19 -65 -27 -97 -27c-90 0 -162 52 -162 158c0 129 97 294 267 294c36 0 68 -10 97 -37c9 9 20 20 47 20c28 0 45 -19 45 -42c0 0 0 -8 -4 -24zM389 117l59 239
c-12 44 -44 60 -74 60c-26 0 -77 -15 -110 -98c-14 -35 -49 -156 -49 -211c0 -22 5 -71 58 -71c48 0 107 46 116 81z" />
    <glyph glyph-name="Hcircumflex" unicode="&#x124;" horiz-adv-x="896" 
d="M1003 668c0 -29 -17 -29 -34 -29l-62 -1c-19 -2 -20 -3 -24 -18l-142 -571c6 0 39 -2 49 -2h22c14 0 31 0 31 -18c0 -29 -19 -29 -28 -29c-50 0 -103 3 -154 3c-50 0 -102 -3 -151 -3c-11 0 -22 5 -22 18c0 29 18 29 35 29h22c12 0 28 1 40 2c18 1 19 2 23 16l67 268
h-287l-71 -284c6 0 39 -2 49 -2h22c14 0 31 0 31 -18c0 -29 -19 -29 -28 -29c-50 0 -103 3 -154 3c-50 0 -102 -3 -151 -3c-11 0 -22 5 -22 18c0 29 18 29 35 29h22c12 0 28 1 40 2c18 1 19 2 23 16l143 572c-12 1 -38 2 -49 2h-22c-15 0 -32 0 -32 18c0 29 19 29 29 29
c50 0 103 -3 154 -3c50 0 101 3 150 3c11 0 22 -5 22 -18c0 -29 -17 -29 -34 -29l-62 -1c-19 -2 -20 -3 -24 -18l-59 -240h287l64 257c-12 1 -38 2 -49 2h-22c-15 0 -32 0 -32 18c0 29 19 29 29 29c50 0 103 -3 154 -3c50 0 101 3 150 3c11 0 22 -5 22 -18zM814 766l-19 -25
l-151 56l-169 -56l-10 25l198 139z" />
    <glyph glyph-name="hcircumflex" unicode="&#x125;" 
d="M625 148c0 -21 -49 -156 -153 -156c-54 0 -105 33 -105 89c0 15 3 25 12 50c18 45 64 168 64 228c0 19 0 57 -43 57c-91 0 -147 -94 -154 -122l-62 -249c-12 -48 -50 -53 -62 -53c-27 0 -46 18 -46 43c0 5 0 7 4 22l144 580c-12 1 -30 2 -42 2c-9 0 -27 0 -27 18
c0 29 20 29 31 30l123 6c14 1 32 2 32 -17c0 -5 -2 -11 -3 -16l-65 -259c43 35 83 51 134 51c79 0 138 -30 138 -113c0 -57 -45 -175 -59 -212c-13 -34 -23 -60 -23 -81c0 -18 9 -18 14 -18c57 0 84 95 92 121c4 13 9 13 28 13c15 0 28 0 28 -14zM664 774l-19 -25l-151 56
l-169 -56l-10 25l198 139z" />
    <glyph glyph-name="Hbar" unicode="&#x126;" horiz-adv-x="896" 
d="M1003 668c0 -29 -17 -29 -34 -29l-62 -1c-19 -2 -20 -3 -24 -18l-20 -81h82c13 0 21 -11 18 -24c-4 -14 -17 -24 -30 -24h-82l-110 -442c6 0 39 -2 49 -2h22c14 0 31 0 31 -18c0 -29 -19 -29 -28 -29c-50 0 -103 3 -154 3c-50 0 -102 -3 -151 -3c-11 0 -22 5 -22 18
c0 29 18 29 35 29h22c12 0 28 1 40 2c18 1 19 2 23 16l67 268h-287l-71 -284c6 0 39 -2 49 -2h22c14 0 31 0 31 -18c0 -29 -19 -29 -28 -29c-50 0 -103 3 -154 3c-50 0 -102 -3 -151 -3c-11 0 -22 5 -22 18c0 29 18 29 35 29h22c12 0 28 1 40 2c18 1 19 2 23 16l106 426h-81
c-13 0 -22 10 -18 24c3 13 17 24 30 24h82l24 98c-12 1 -38 2 -49 2h-22c-15 0 -32 0 -32 18c0 29 19 29 29 29c50 0 103 -3 154 -3c50 0 101 3 150 3c11 0 22 -5 22 -18c0 -29 -17 -29 -34 -29l-62 -1c-19 -2 -20 -3 -24 -18l-20 -81h288l24 98c-12 1 -38 2 -49 2h-22
c-15 0 -32 0 -32 18c0 29 19 29 29 29c50 0 103 -3 154 -3c50 0 101 3 150 3c11 0 22 -5 22 -18zM715 491h-288l-27 -111h287z" />
    <glyph glyph-name="hbar" unicode="&#x127;" 
d="M625 148c0 -21 -49 -156 -153 -156c-54 0 -105 33 -105 89c0 15 3 25 12 50c18 45 64 168 64 228c0 19 0 57 -43 57c-91 0 -147 -94 -154 -122l-62 -249c-12 -48 -50 -53 -62 -53c-27 0 -46 18 -46 43c0 5 0 7 4 22l115 464h-23c-13 0 -21 11 -18 24c4 14 17 24 30 24h23
l17 68c-12 1 -30 2 -42 2c-9 0 -27 0 -27 18c0 29 20 29 31 30l123 6c14 1 32 2 32 -17c0 -5 -2 -11 -3 -16l-23 -91h123c13 0 22 -10 18 -24c-3 -13 -17 -24 -30 -24h-123l-30 -120c43 35 83 51 134 51c79 0 138 -30 138 -113c0 -57 -45 -175 -59 -212
c-13 -34 -23 -60 -23 -81c0 -18 9 -18 14 -18c57 0 84 95 92 121c4 13 9 13 28 13c15 0 28 0 28 -14z" />
    <glyph glyph-name="Itilde" unicode="&#x128;" horiz-adv-x="472" 
d="M585 668c0 -29 -18 -29 -35 -29h-25c-12 0 -29 -1 -41 -2c-20 -1 -21 -2 -25 -17l-142 -571l51 -2h25c15 0 32 0 32 -18c0 -29 -19 -29 -30 -29c-52 0 -106 3 -159 3c-51 0 -104 -3 -155 -3c-12 0 -22 5 -22 18c0 29 17 29 35 29h24c11 0 30 0 41 1c20 2 21 3 25 17
l142 572c-11 0 -46 2 -51 2h-24c-15 0 -32 0 -32 18c0 29 18 29 29 29c52 0 106 -3 159 -3c52 0 105 3 156 3c21 0 22 -15 22 -18zM623 842c0 -14 -45 -49 -61 -62c-25 -20 -57 -39 -86 -39c-18 0 -37 5 -68 39c-11 14 -21 22 -35 22c-27 0 -66 -32 -88 -51
c-6 -6 -11 -10 -18 -10c-13 0 -18 12 -18 18c0 13 41 46 57 58c18 14 56 43 90 43c20 0 40 -8 61 -32c19 -22 29 -29 42 -29c29 0 72 37 85 48c9 9 13 13 21 13c10 0 18 -8 18 -18z" />
    <glyph glyph-name="itilde" unicode="&#x129;" horiz-adv-x="356" 
d="M390 148c0 -21 -49 -156 -153 -156c-54 0 -105 33 -105 89c0 15 3 23 9 39l90 238c1 2 8 27 8 40c0 18 -9 18 -14 18c-57 0 -84 -95 -92 -121c-4 -13 -9 -13 -28 -13c-15 0 -28 0 -28 14c0 21 49 156 153 156c54 0 105 -33 105 -89c0 -15 -3 -23 -9 -39l-90 -238
c-1 -2 -8 -27 -8 -40c0 -18 9 -18 14 -18c57 0 84 95 92 121c4 13 9 13 28 13c15 0 28 0 28 -14zM515 642c0 -14 -45 -49 -61 -62c-25 -20 -57 -39 -86 -39c-18 0 -37 5 -68 39c-11 14 -21 22 -35 22c-27 0 -66 -32 -88 -51c-6 -6 -11 -10 -18 -10c-13 0 -18 12 -18 18
c0 13 41 46 57 58c18 14 56 43 90 43c20 0 40 -8 61 -32c19 -22 29 -29 42 -29c29 0 72 37 85 48c9 9 13 13 21 13c10 0 18 -8 18 -18z" />
    <glyph glyph-name="Imacron" unicode="&#x12a;" horiz-adv-x="472" 
d="M585 668c0 -29 -18 -29 -35 -29h-25c-12 0 -29 -1 -41 -2c-20 -1 -21 -2 -25 -17l-142 -571l51 -2h25c15 0 32 0 32 -18c0 -29 -19 -29 -30 -29c-52 0 -106 3 -159 3c-51 0 -104 -3 -155 -3c-12 0 -22 5 -22 18c0 29 17 29 35 29h24c11 0 30 0 41 1c20 2 21 3 25 17
l142 572c-11 0 -46 2 -51 2h-24c-15 0 -32 0 -32 18c0 29 18 29 29 29c52 0 106 -3 159 -3c52 0 105 3 156 3c21 0 22 -15 22 -18zM625 793c0 -32 -17 -32 -35 -32h-317c-15 0 -32 0 -32 18c0 32 17 32 35 32h317c15 0 32 0 32 -18z" />
    <glyph glyph-name="imacron" unicode="&#x12b;" horiz-adv-x="356" 
d="M390 148c0 -21 -49 -156 -153 -156c-54 0 -105 33 -105 89c0 15 3 23 9 39l90 238c1 2 8 27 8 40c0 18 -9 18 -14 18c-57 0 -84 -95 -92 -121c-4 -13 -9 -13 -28 -13c-15 0 -28 0 -28 14c0 21 49 156 153 156c54 0 105 -33 105 -89c0 -15 -3 -23 -9 -39l-90 -238
c-1 -2 -8 -27 -8 -40c0 -18 9 -18 14 -18c57 0 84 95 92 121c4 13 9 13 28 13c15 0 28 0 28 -14zM520 608c0 -32 -17 -32 -35 -32h-317c-15 0 -32 0 -32 18c0 32 17 32 35 32h317c15 0 32 0 32 -18z" />
    <glyph glyph-name="Ibreve" unicode="&#x12c;" horiz-adv-x="472" 
d="M585 668c0 -29 -18 -29 -35 -29h-25c-12 0 -29 -1 -41 -2c-20 -1 -21 -2 -25 -17l-142 -571l51 -2h25c15 0 32 0 32 -18c0 -29 -19 -29 -30 -29c-52 0 -106 3 -159 3c-51 0 -104 -3 -155 -3c-12 0 -22 5 -22 18c0 29 17 29 35 29h24c11 0 30 0 41 1c20 2 21 3 25 17
l142 572c-11 0 -46 2 -51 2h-24c-15 0 -32 0 -32 18c0 29 18 29 29 29c52 0 106 -3 159 -3c52 0 105 3 156 3c21 0 22 -15 22 -18zM629 912c0 -40 -76 -161 -200 -161c-75 0 -133 50 -133 127c0 27 3 52 22 52c10 0 18 -9 18 -18c0 -7 -3 -11 -3 -25c0 -53 53 -77 102 -77
c40 0 130 20 158 104c2 5 5 16 18 16c10 0 18 -8 18 -18z" />
    <glyph glyph-name="ibreve" unicode="&#x12d;" horiz-adv-x="356" 
d="M390 148c0 -21 -49 -156 -153 -156c-54 0 -105 33 -105 89c0 15 3 23 9 39l90 238c1 2 8 27 8 40c0 18 -9 18 -14 18c-57 0 -84 -95 -92 -121c-4 -13 -9 -13 -28 -13c-15 0 -28 0 -28 14c0 21 49 156 153 156c54 0 105 -33 105 -89c0 -15 -3 -23 -9 -39l-90 -238
c-1 -2 -8 -27 -8 -40c0 -18 9 -18 14 -18c57 0 84 95 92 121c4 13 9 13 28 13c15 0 28 0 28 -14zM510 672c0 -40 -76 -161 -200 -161c-75 0 -133 50 -133 127c0 27 3 52 22 52c10 0 18 -9 18 -18c0 -7 -3 -11 -3 -25c0 -53 53 -77 102 -77c40 0 130 20 158 104
c2 5 5 16 18 16c10 0 18 -8 18 -18z" />
    <glyph glyph-name="Iogonek" unicode="&#x12e;" horiz-adv-x="472" 
d="M381 -150c-28 -30 -63 -54 -107 -54c-70 0 -105 45 -105 90c0 41 36 88 74 117h-7c-51 0 -104 -3 -155 -3c-12 0 -22 5 -22 18c0 29 17 29 35 29h24c11 0 30 0 41 1c20 2 21 3 25 17l142 572c-11 0 -46 2 -51 2h-24c-15 0 -32 0 -32 18c0 29 18 29 29 29
c52 0 106 -3 159 -3c52 0 105 3 156 3c21 0 22 -15 22 -18c0 -29 -18 -29 -35 -29h-25c-12 0 -29 -1 -41 -2c-20 -1 -21 -2 -25 -17l-142 -571l51 -2h25c15 0 32 0 32 -18c0 -29 -19 -29 -30 -29l-86 2c-22 -15 -39 -36 -48 -59c-16 -40 5 -81 49 -81c23 0 29 11 38 19
c9 6 22 3 29 -3c8 -7 9 -22 4 -28z" />
    <glyph glyph-name="iogonek" unicode="&#x12f;" horiz-adv-x="356" 
d="M372 646c0 -35 -34 -69 -71 -69c-29 0 -49 21 -49 48c0 35 34 69 71 69c30 0 49 -22 49 -48zM333 -150c-28 -30 -63 -54 -107 -54c-70 0 -105 45 -105 90c0 40 34 85 71 114c-34 13 -60 41 -60 81c0 15 3 23 9 39l90 238c1 2 8 27 8 40c0 18 -9 18 -14 18
c-57 0 -84 -95 -92 -121c-4 -13 -9 -13 -28 -13c-15 0 -28 0 -28 14c0 21 49 156 153 156c54 0 105 -33 105 -89c0 -15 -3 -23 -9 -39l-90 -238c-1 -2 -8 -27 -8 -40c0 -18 9 -18 14 -18c57 0 84 95 92 121c4 13 9 13 28 13c15 0 28 0 28 -14c0 -20 -45 -145 -141 -155
c-16 -14 -28 -31 -36 -50c-16 -40 5 -81 49 -81c23 0 29 11 38 19c9 6 22 3 29 -3c8 -7 9 -22 4 -28z" />
    <glyph glyph-name="Idotaccent" unicode="&#x130;" horiz-adv-x="472" 
d="M585 668c0 -29 -18 -29 -35 -29h-25c-12 0 -29 -1 -41 -2c-20 -1 -21 -2 -25 -17l-142 -571l51 -2h25c15 0 32 0 32 -18c0 -29 -19 -29 -30 -29c-52 0 -106 3 -159 3c-51 0 -104 -3 -155 -3c-12 0 -22 5 -22 18c0 29 17 29 35 29h24c11 0 30 0 41 1c20 2 21 3 25 17
l142 572c-11 0 -46 2 -51 2h-24c-15 0 -32 0 -32 18c0 29 18 29 29 29c52 0 106 -3 159 -3c52 0 105 3 156 3c21 0 22 -15 22 -18zM520 845c0 -43 -42 -87 -89 -87c-38 0 -62 28 -62 60c0 44 43 87 89 87c41 0 62 -32 62 -60z" />
    <glyph glyph-name="dotlessi" unicode="&#x131;" horiz-adv-x="356" 
d="M390 148c0 -21 -49 -156 -153 -156c-54 0 -105 33 -105 89c0 15 3 23 9 39l90 238c1 2 8 27 8 40c0 18 -9 18 -14 18c-57 0 -84 -95 -92 -121c-4 -13 -9 -13 -28 -13c-15 0 -28 0 -28 14c0 21 49 156 153 156c54 0 105 -33 105 -89c0 -15 -3 -23 -9 -39l-90 -238
c-1 -2 -8 -27 -8 -40c0 -18 9 -18 14 -18c57 0 84 95 92 121c4 13 9 13 28 13c15 0 28 0 28 -14z" />
    <glyph glyph-name="Jcircumflex" unicode="&#x134;" horiz-adv-x="611" 
d="M691 668c0 -29 -17 -29 -35 -29h-8c-10 0 -22 0 -33 -1c-12 -2 -13 -3 -16 -16l-120 -482c-18 -74 -99 -157 -249 -157c-91 0 -158 40 -158 109c0 67 53 96 89 96c40 0 63 -27 63 -58c0 -27 -18 -73 -69 -87c26 -24 65 -24 71 -24c55 0 104 51 124 130l121 487
c-23 3 -25 3 -64 3h-39c-14 0 -31 0 -31 18c0 29 18 29 30 29c56 0 115 -3 172 -3c44 0 89 3 132 3c15 0 20 -11 20 -18zM715 766l-19 -25l-151 56l-169 -56l-10 25l198 139z" />
    <glyph glyph-name="jcircumflex" unicode="&#x135;" horiz-adv-x="356" 
d="M277 -52c-22 -88 -117 -150 -204 -150c-58 0 -102 27 -102 72c0 38 32 72 71 72c31 0 50 -21 50 -46c0 -20 -13 -47 -34 -60c0 0 9 -2 15 -2c60 0 90 89 98 119l97 389c4 16 6 24 6 43c0 30 -12 31 -21 31c-26 0 -75 -18 -117 -117c-8 -16 -9 -17 -31 -17
c-15 0 -28 0 -28 14c0 17 66 156 181 156c60 0 117 -34 117 -97c0 -6 0 -13 -4 -29zM485 519l-23 -22l-141 99l-174 -99l-15 22l207 185z" />
    <glyph glyph-name="Kcommaaccent" unicode="&#x136;" horiz-adv-x="895" 
d="M827 29c0 -29 -18 -29 -27 -29c-39 0 -80 3 -120 3c-48 0 -97 -3 -144 -3c-12 0 -22 6 -22 18c0 29 17 29 35 29c3 0 33 0 53 7l-125 283l-109 -83l-51 -205c6 0 39 -2 49 -2h22c14 0 31 0 31 -18c0 -29 -19 -29 -28 -29c-50 0 -103 3 -154 3c-50 0 -102 -3 -151 -3
c-11 0 -22 5 -22 18c0 29 18 29 35 29h22c37 0 59 4 59 4l147 586c-12 1 -38 2 -49 2h-22c-15 0 -32 0 -32 18c0 29 19 29 29 29c50 0 103 -3 154 -3c50 0 101 3 150 3c11 0 22 -5 22 -18c0 -29 -17 -29 -34 -29l-62 -1c-19 -2 -20 -3 -24 -18l-72 -289l397 300
c-20 7 -49 8 -49 8c-9 0 -26 1 -26 18c0 29 19 29 29 29c42 0 87 -3 130 -3c28 0 59 3 86 3c10 0 18 -8 18 -18c0 -28 -19 -29 -26 -29c-58 -2 -84 -13 -118 -38l-242 -182l156 -353c7 -15 8 -19 55 -19c13 0 30 0 30 -18zM476 -111c0 -98 -110 -196 -127 -196
c-8 0 -14 9 -14 15c0 5 1 6 13 15c28 20 73 61 93 126c-2 -1 -16 -10 -36 -10c-35 0 -46 25 -46 43c0 30 27 67 68 67c32 0 49 -25 49 -60z" />
    <glyph glyph-name="kcommaaccent" unicode="&#x137;" horiz-adv-x="532" 
d="M566 148c0 -8 -35 -156 -136 -156c-65 0 -118 42 -118 102c0 11 1 16 3 25c3 11 3 16 3 21c0 53 -62 69 -92 74l-45 -181c-11 -28 -38 -41 -59 -41c-27 0 -46 18 -46 43c0 5 0 7 4 22l144 580c-12 1 -30 2 -42 2c-9 0 -27 0 -27 18c0 29 20 29 31 30l123 6
c14 1 32 2 32 -17c0 -5 -2 -11 -3 -16l-97 -386c24 15 41 29 81 71c64 68 113 107 169 107c57 0 71 -49 71 -79c0 -66 -44 -87 -73 -87c-31 0 -50 21 -50 46c0 33 26 67 67 72c-3 12 -15 12 -18 12c-38 0 -81 -25 -149 -101c-2 -1 -36 -38 -72 -64c72 -8 158 -31 158 -107
c0 -10 -2 -20 -4 -30c-8 -32 -8 -52 -8 -52c0 -32 13 -34 22 -34c36 0 56 48 71 107c7 26 8 27 32 27c15 0 28 0 28 -14zM295 -111c0 -98 -110 -196 -127 -196c-8 0 -14 9 -14 15c0 5 1 6 13 15c28 20 73 61 93 126c-2 -1 -16 -10 -36 -10c-35 0 -46 25 -46 43
c0 30 27 67 68 67c32 0 49 -25 49 -60z" />
    <glyph glyph-name="Lacute" unicode="&#x139;" horiz-adv-x="698" 
d="M687 256c0 -4 -2 -10 -5 -17l-80 -218c-8 -21 -11 -21 -34 -21h-472c-15 0 -32 0 -32 18c0 29 18 29 35 29h22c12 0 28 1 40 2c18 1 19 2 23 16l143 572c-12 1 -38 2 -49 2h-22c-15 0 -32 0 -32 18c0 29 19 29 29 29c52 0 106 -3 158 -3c57 0 115 3 172 3
c8 0 23 -2 23 -18c0 -29 -16 -29 -34 -29h-36c-12 0 -36 -1 -46 -2c-26 -2 -27 -3 -31 -17l-142 -572c7 -1 14 -1 23 -1h58c154 0 205 136 233 211c5 16 13 16 28 16c9 0 28 0 28 -18zM612 861c-6 -30 -33 -41 -48 -46l-166 -61c-6 -2 -11 -3 -17 -3c-16 2 -23 31 -22 37
c1 7 9 13 15 17l140 91c20 13 33 22 51 22c32 0 52 -25 47 -57z" />
    <glyph glyph-name="lacute" unicode="&#x13a;" horiz-adv-x="297" 
d="M331 148c0 -4 -13 -60 -39 -102c-13 -20 -38 -54 -85 -54c-56 0 -116 33 -116 97c0 6 0 13 4 29l129 519c-12 1 -30 2 -42 2c-9 0 -27 0 -27 18c0 29 20 29 31 30l123 6c14 1 32 2 32 -17c0 -5 -2 -11 -3 -16l-140 -558c-4 -16 -6 -24 -6 -43c0 -23 7 -31 19 -31
c34 0 52 75 60 108c7 25 8 26 32 26c15 0 28 0 28 -14zM522 869c-6 -30 -33 -41 -48 -46l-166 -61c-6 -2 -11 -3 -17 -3c-16 2 -23 31 -22 37c1 7 9 13 15 17l140 91c20 13 33 22 51 22c32 0 52 -25 47 -57z" />
    <glyph glyph-name="Lcommaaccent" unicode="&#x13b;" horiz-adv-x="698" 
d="M687 256c0 -4 -2 -10 -5 -17l-80 -218c-8 -21 -11 -21 -34 -21h-472c-15 0 -32 0 -32 18c0 29 18 29 35 29h22c12 0 28 1 40 2c18 1 19 2 23 16l143 572c-12 1 -38 2 -49 2h-22c-15 0 -32 0 -32 18c0 29 19 29 29 29c52 0 106 -3 158 -3c57 0 115 3 172 3
c8 0 23 -2 23 -18c0 -29 -16 -29 -34 -29h-36c-12 0 -36 -1 -46 -2c-26 -2 -27 -3 -31 -17l-142 -572c7 -1 14 -1 23 -1h58c154 0 205 136 233 211c5 16 13 16 28 16c9 0 28 0 28 -18zM377 -111c0 -98 -110 -196 -127 -196c-8 0 -14 9 -14 15c0 5 1 6 13 15
c28 20 73 61 93 126c-2 -1 -16 -10 -36 -10c-35 0 -46 25 -46 43c0 30 27 67 68 67c32 0 49 -25 49 -60z" />
    <glyph glyph-name="lcommaaccent" unicode="&#x13c;" horiz-adv-x="297" 
d="M331 148c0 -4 -13 -60 -39 -102c-13 -20 -38 -54 -85 -54c-56 0 -116 33 -116 97c0 6 0 13 4 29l129 519c-12 1 -30 2 -42 2c-9 0 -27 0 -27 18c0 29 20 29 31 30l123 6c14 1 32 2 32 -17c0 -5 -2 -11 -3 -16l-140 -558c-4 -16 -6 -24 -6 -43c0 -23 7 -31 19 -31
c34 0 52 75 60 108c7 25 8 26 32 26c15 0 28 0 28 -14zM177 -111c0 -98 -110 -196 -127 -196c-8 0 -14 9 -14 15c0 5 1 6 13 15c28 20 73 61 93 126c-2 -1 -16 -10 -36 -10c-35 0 -46 25 -46 43c0 30 27 67 68 67c32 0 49 -25 49 -60z" />
    <glyph glyph-name="Lcaron" unicode="&#x13d;" horiz-adv-x="698" 
d="M687 256c0 -4 -2 -10 -5 -17l-80 -218c-8 -21 -11 -21 -34 -21h-472c-15 0 -32 0 -32 18c0 29 18 29 35 29h22c12 0 28 1 40 2c18 1 19 2 23 16l143 572c-12 1 -38 2 -49 2h-22c-15 0 -32 0 -32 18c0 29 19 29 29 29c52 0 106 -3 158 -3c57 0 115 3 172 3
c8 0 23 -2 23 -18c0 -29 -16 -29 -34 -29h-36c-12 0 -36 -1 -46 -2c-26 -2 -27 -3 -31 -17l-142 -572c7 -1 14 -1 23 -1h58c154 0 205 136 233 211c5 16 13 16 28 16c9 0 28 0 28 -18zM771 626c0 -98 -110 -196 -127 -196c-8 0 -14 9 -14 15c0 5 1 6 13 15
c28 20 73 61 93 126c-2 -1 -16 -10 -36 -10c-35 0 -46 25 -46 43c0 30 27 67 68 67c32 0 49 -25 49 -60z" />
    <glyph glyph-name="lcaron" unicode="&#x13e;" horiz-adv-x="297" 
d="M331 148c0 -4 -13 -60 -39 -102c-13 -20 -38 -54 -85 -54c-56 0 -116 33 -116 97c0 6 0 13 4 29l129 519c-12 1 -30 2 -42 2c-9 0 -27 0 -27 18c0 29 20 29 31 30l123 6c14 1 32 2 32 -17c0 -5 -2 -11 -3 -16l-140 -558c-4 -16 -6 -24 -6 -43c0 -23 7 -31 19 -31
c34 0 52 75 60 108c7 25 8 26 32 26c15 0 28 0 28 -14zM488 634c0 -98 -110 -196 -127 -196c-8 0 -14 9 -14 15c0 5 1 6 13 15c28 20 73 61 93 126c-2 -1 -16 -10 -36 -10c-35 0 -46 25 -46 43c0 30 27 67 68 67c32 0 49 -25 49 -60z" />
    <glyph glyph-name="Ldot" unicode="&#x13f;" horiz-adv-x="698" 
d="M687 256c0 -4 -2 -10 -5 -17l-80 -218c-8 -21 -11 -21 -34 -21h-472c-15 0 -32 0 -32 18c0 29 18 29 35 29h22c12 0 28 1 40 2c18 1 19 2 23 16l143 572c-12 1 -38 2 -49 2h-22c-15 0 -32 0 -32 18c0 29 19 29 29 29c52 0 106 -3 158 -3c57 0 115 3 172 3
c8 0 23 -2 23 -18c0 -29 -16 -29 -34 -29h-36c-12 0 -36 -1 -46 -2c-26 -2 -27 -3 -31 -17l-142 -572c7 -1 14 -1 23 -1h58c154 0 205 136 233 211c5 16 13 16 28 16c9 0 28 0 28 -18zM769 447c0 -43 -42 -87 -89 -87c-38 0 -62 28 -62 60c0 44 43 87 89 87
c41 0 62 -32 62 -60z" />
    <glyph glyph-name="ldot" unicode="&#x140;" horiz-adv-x="369" 
d="M331 148c0 -4 -13 -60 -39 -102c-13 -20 -38 -54 -85 -54c-56 0 -116 33 -116 97c0 6 0 13 4 29l129 519c-12 1 -30 2 -42 2c-9 0 -27 0 -27 18c0 29 20 29 31 30l123 6c14 1 32 2 32 -17c0 -5 -2 -11 -3 -16l-140 -558c-4 -16 -6 -24 -6 -43c0 -23 7 -31 19 -31
c34 0 52 75 60 108c7 25 8 26 32 26c15 0 28 0 28 -14zM471 377c0 -43 -42 -87 -89 -87c-38 0 -62 28 -62 60c0 44 43 87 89 87c41 0 62 -32 62 -60z" />
    <glyph glyph-name="Lslash" unicode="&#x141;" horiz-adv-x="698" 
d="M697 256c0 -4 -2 -10 -5 -17l-80 -218c-8 -21 -11 -21 -34 -21h-472c-15 0 -32 0 -32 18c0 29 18 29 35 29h22c12 0 28 1 40 2c18 1 19 2 23 16l52 206l-73 -49c-7 -5 -17 -3 -22 5l-10 15c-5 8 -3 17 5 22l118 80l73 293c-12 1 -38 2 -49 2h-22c-15 0 -32 0 -32 18
c0 29 19 29 29 29c52 0 106 -3 158 -3c57 0 115 3 172 3c8 0 23 -2 23 -18c0 -29 -16 -29 -34 -29h-36c-12 0 -36 -1 -46 -2c-26 -2 -28 -3 -31 -17l-41 -165l153 103c7 5 17 2 22 -6l10 -15c5 -8 4 -17 -4 -22l-199 -134l-83 -333c7 -1 14 -1 23 -1h58
c154 0 205 136 233 211c5 16 13 16 28 16c9 0 28 0 28 -18z" />
    <glyph glyph-name="lslash" unicode="&#x142;" horiz-adv-x="356" 
d="M387 148c0 -4 -13 -60 -39 -102c-13 -20 -38 -54 -85 -54c-56 0 -116 33 -116 97c0 6 0 13 4 29l42 168l-53 -35s-18 -3 -22 5l-9 12c-4 8 -4 17 5 23l97 66l69 280c-12 1 -30 2 -42 2c-9 0 -27 0 -27 18c0 29 20 29 31 30l123 6c14 1 32 2 32 -17c0 -5 -2 -11 -3 -16
l-54 -216l54 36c8 5 17 2 23 -5l8 -12c5 -7 3 -18 -4 -23l-98 -66l-69 -272c-4 -16 -6 -24 -6 -43c0 -23 7 -31 19 -31c34 0 52 75 60 108c7 25 8 26 32 26c15 0 28 0 28 -14z" />
    <glyph glyph-name="Nacute" unicode="&#x143;" horiz-adv-x="896" 
d="M1003 668c0 -29 -17 -29 -31 -29c-8 0 -34 0 -57 -5c-29 -6 -30 -9 -34 -24l-146 -586c-6 -24 -11 -24 -34 -24c-22 0 -23 1 -31 16l-294 568l-131 -527c24 -10 60 -10 69 -10c14 0 31 0 31 -18c0 -29 -19 -29 -27 -29c-38 0 -80 3 -119 3c-38 0 -78 -3 -115 -3
c-17 0 -20 14 -20 18c0 29 18 29 34 29c25 0 46 3 57 5c27 6 28 10 32 25l136 546c1 3 3 11 3 11c0 3 0 5 -43 5h-27c-15 0 -32 0 -32 18c0 29 18 29 35 29h185c23 0 24 -1 33 -17l240 -463l106 423c-25 10 -61 10 -70 10c-14 0 -31 0 -31 18c0 29 20 29 28 29
c38 0 79 -3 118 -3c38 0 78 3 115 3c11 0 20 -7 20 -18zM820 861c-6 -30 -33 -41 -48 -46l-166 -61c-6 -2 -11 -3 -17 -3c-16 2 -23 31 -22 37c1 7 9 13 15 17l140 91c20 13 33 22 51 22c32 0 52 -25 47 -57z" />
    <glyph glyph-name="nacute" unicode="&#x144;" horiz-adv-x="650" 
d="M684 148c0 -21 -49 -156 -153 -156c-54 0 -105 33 -105 89c0 15 3 25 12 50c18 45 64 168 64 228c0 19 0 57 -43 57c-91 0 -147 -93 -154 -122l-62 -248c-13 -52 -56 -54 -63 -54c-21 0 -45 12 -45 43c0 5 0 7 4 22l71 285c4 16 6 24 6 43c0 23 -7 31 -19 31
c-34 0 -52 -75 -60 -108c-7 -25 -8 -26 -32 -26c-15 0 -28 0 -28 14c0 4 13 60 39 102c13 20 38 54 85 54c32 0 92 -12 112 -69c66 69 132 69 153 69c79 0 138 -30 138 -113c0 -57 -45 -175 -59 -212c-13 -34 -23 -60 -23 -81c0 -18 9 -18 14 -18c57 0 84 95 92 121
c4 13 9 13 28 13c15 0 28 0 28 -14zM625 651c0 -31 -25 -46 -39 -54l-153 -89c-5 -3 -10 -6 -16 -6c-16 0 -28 27 -28 33c0 7 6 14 12 19l122 114c20 19 33 31 55 31c25 0 47 -20 47 -48z" />
    <glyph glyph-name="Ncommaaccent" unicode="&#x145;" horiz-adv-x="896" 
d="M1003 668c0 -29 -17 -29 -31 -29c-8 0 -34 0 -57 -5c-29 -6 -30 -9 -34 -24l-146 -586c-6 -24 -11 -24 -34 -24c-22 0 -23 1 -31 16l-294 568l-131 -527c24 -10 60 -10 69 -10c14 0 31 0 31 -18c0 -29 -19 -29 -27 -29c-38 0 -80 3 -119 3c-38 0 -78 -3 -115 -3
c-17 0 -20 14 -20 18c0 29 18 29 34 29c25 0 46 3 57 5c27 6 28 10 32 25l136 546c1 3 3 11 3 11c0 3 0 5 -43 5h-27c-15 0 -32 0 -32 18c0 29 18 29 35 29h185c23 0 24 -1 33 -17l240 -463l106 423c-25 10 -61 10 -70 10c-14 0 -31 0 -31 18c0 29 20 29 28 29
c38 0 79 -3 118 -3c38 0 78 3 115 3c11 0 20 -7 20 -18zM476 -111c0 -98 -110 -196 -127 -196c-8 0 -14 9 -14 15c0 5 1 6 13 15c28 20 73 61 93 126c-2 -1 -16 -10 -36 -10c-35 0 -46 25 -46 43c0 30 27 67 68 67c32 0 49 -25 49 -60z" />
    <glyph glyph-name="ncommaaccent" unicode="&#x146;" horiz-adv-x="650" 
d="M684 148c0 -21 -49 -156 -153 -156c-54 0 -105 33 -105 89c0 15 3 25 12 50c18 45 64 168 64 228c0 19 0 57 -43 57c-91 0 -147 -93 -154 -122l-62 -248c-13 -52 -56 -54 -63 -54c-21 0 -45 12 -45 43c0 5 0 7 4 22l71 285c4 16 6 24 6 43c0 23 -7 31 -19 31
c-34 0 -52 -75 -60 -108c-7 -25 -8 -26 -32 -26c-15 0 -28 0 -28 14c0 4 13 60 39 102c13 20 38 54 85 54c32 0 92 -12 112 -69c66 69 132 69 153 69c79 0 138 -30 138 -113c0 -57 -45 -175 -59 -212c-13 -34 -23 -60 -23 -81c0 -18 9 -18 14 -18c57 0 84 95 92 121
c4 13 9 13 28 13c15 0 28 0 28 -14zM353 -111c0 -98 -110 -196 -127 -196c-8 0 -14 9 -14 15c0 5 1 6 13 15c28 20 73 61 93 126c-2 -1 -16 -10 -36 -10c-35 0 -46 25 -46 43c0 30 27 67 68 67c32 0 49 -25 49 -60z" />
    <glyph glyph-name="Ncaron" unicode="&#x147;" horiz-adv-x="896" 
d="M1003 668c0 -29 -17 -29 -31 -29c-8 0 -34 0 -57 -5c-29 -6 -30 -9 -34 -24l-146 -586c-6 -24 -11 -24 -34 -24c-22 0 -23 1 -31 16l-294 568l-131 -527c24 -10 60 -10 69 -10c14 0 31 0 31 -18c0 -29 -19 -29 -27 -29c-38 0 -80 3 -119 3c-38 0 -78 -3 -115 -3
c-17 0 -20 14 -20 18c0 29 18 29 34 29c25 0 46 3 57 5c27 6 28 10 32 25l136 546c1 3 3 11 3 11c0 3 0 5 -43 5h-27c-15 0 -32 0 -32 18c0 29 18 29 35 29h185c23 0 24 -1 33 -17l240 -463l106 423c-25 10 -61 10 -70 10c-14 0 -31 0 -31 18c0 29 20 29 28 29
c38 0 79 -3 118 -3c38 0 78 3 115 3c11 0 20 -7 20 -18zM843 880l-197 -139l-152 139l20 25l151 -56l169 56z" />
    <glyph glyph-name="ncaron" unicode="&#x148;" horiz-adv-x="650" 
d="M684 148c0 -21 -49 -156 -153 -156c-54 0 -105 33 -105 89c0 15 3 25 12 50c18 45 64 168 64 228c0 19 0 57 -43 57c-91 0 -147 -93 -154 -122l-62 -248c-13 -52 -56 -54 -63 -54c-21 0 -45 12 -45 43c0 5 0 7 4 22l71 285c4 16 6 24 6 43c0 23 -7 31 -19 31
c-34 0 -52 -75 -60 -108c-7 -25 -8 -26 -32 -26c-15 0 -28 0 -28 14c0 4 13 60 39 102c13 20 38 54 85 54c32 0 92 -12 112 -69c66 69 132 69 153 69c79 0 138 -30 138 -113c0 -57 -45 -175 -59 -212c-13 -34 -23 -60 -23 -81c0 -18 9 -18 14 -18c57 0 84 95 92 121
c4 13 9 13 28 13c15 0 28 0 28 -14zM672 682l-207 -185l-146 185l23 22l141 -99l174 99z" />
    <glyph glyph-name="Eng" unicode="&#x14a;" horiz-adv-x="896" 
d="M918 343c-45 -180 -166 -360 -325 -360c-32 0 -51 26 -43 58s40 58 72 58c23 0 39 -13 44 -32c52 53 82 173 108 276c38 151 14 304 -119 304c-75 0 -154 -30 -209 -80l-129 -518l51 -2h25c15 0 32 0 32 -18c0 -29 -19 -29 -30 -29c-52 0 -106 3 -159 3
c-51 0 -104 -3 -155 -3c-12 0 -22 5 -22 18c0 29 17 29 35 29h24c11 0 30 0 41 1c20 2 21 3 25 17l142 572c-11 0 -46 2 -51 2h-24c-15 0 -32 0 -32 18c0 29 18 29 29 29c52 0 106 -3 159 -3c23 0 45 1 69 3l-12 -45c61 39 134 62 205 62c191 0 298 -165 249 -360z" />
    <glyph glyph-name="eng" unicode="&#x14b;" horiz-adv-x="585" 
d="M604 339c0 -111 -62 -225 -91 -339c-27 -108 -110 -211 -208 -211c-30 0 -47 23 -40 53c7 29 37 53 66 53c15 0 27 -6 34 -16c18 31 30 79 40 121c30 120 97 242 97 359c0 19 0 57 -43 57c-91 0 -147 -93 -154 -122l-62 -248c-13 -52 -56 -54 -63 -54
c-21 0 -45 12 -45 43c0 5 0 7 4 22l71 285c4 16 6 24 6 43c0 23 -7 31 -19 31c-34 0 -52 -75 -60 -108c-7 -25 -8 -26 -32 -26c-15 0 -28 0 -28 14c0 4 13 60 39 102c13 20 38 54 85 54c32 0 92 -12 112 -69c66 69 132 69 153 69c79 0 138 -30 138 -113z" />
    <glyph glyph-name="Omacron" unicode="&#x14c;" horiz-adv-x="855" 
d="M865 453c0 -211 -158 -470 -441 -470c-148 0 -264 76 -264 246c0 201 155 474 443 474c138 0 262 -70 262 -250zM733 501c0 56 -18 162 -140 162c-54 0 -140 -26 -205 -133c-54 -90 -91 -265 -91 -337c0 -29 3 -82 33 -121c18 -22 52 -47 104 -47c58 0 131 29 195 123
c63 92 104 283 104 353zM816 793c0 -32 -17 -32 -35 -32h-317c-15 0 -32 0 -32 18c0 32 17 32 35 32h317c15 0 32 0 32 -18z" />
    <glyph glyph-name="omacron" unicode="&#x14d;" 
d="M595 284c0 -126 -101 -292 -298 -292c-119 0 -190 65 -190 168c0 125 100 292 298 292c119 0 190 -65 190 -168zM435 124c25 53 51 165 51 204c0 71 -48 88 -83 88c-51 0 -107 -33 -136 -96c-25 -53 -51 -165 -51 -204c0 -71 48 -88 83 -88c51 0 107 33 136 96zM638 608
c0 -32 -17 -32 -35 -32h-317c-15 0 -32 0 -32 18c0 32 17 32 35 32h317c15 0 32 0 32 -18z" />
    <glyph glyph-name="Obreve" unicode="&#x14e;" horiz-adv-x="855" 
d="M865 453c0 -211 -158 -470 -441 -470c-148 0 -264 76 -264 246c0 201 155 474 443 474c138 0 262 -70 262 -250zM733 501c0 56 -18 162 -140 162c-54 0 -140 -26 -205 -133c-54 -90 -91 -265 -91 -337c0 -29 3 -82 33 -121c18 -22 52 -47 104 -47c58 0 131 29 195 123
c63 92 104 283 104 353zM820 912c0 -40 -76 -161 -200 -161c-75 0 -133 50 -133 127c0 27 3 52 22 52c10 0 18 -9 18 -18c0 -7 -3 -11 -3 -25c0 -53 53 -77 102 -77c40 0 130 20 158 104c2 5 5 16 18 16c10 0 18 -8 18 -18z" />
    <glyph glyph-name="obreve" unicode="&#x14f;" 
d="M595 284c0 -126 -101 -292 -298 -292c-119 0 -190 65 -190 168c0 125 100 292 298 292c119 0 190 -65 190 -168zM435 124c25 53 51 165 51 204c0 71 -48 88 -83 88c-51 0 -107 -33 -136 -96c-25 -53 -51 -165 -51 -204c0 -71 48 -88 83 -88c51 0 107 33 136 96zM628 672
c0 -40 -76 -161 -200 -161c-75 0 -133 50 -133 127c0 27 3 52 22 52c10 0 18 -9 18 -18c0 -7 -3 -11 -3 -25c0 -53 53 -77 102 -77c40 0 130 20 158 104c2 5 5 16 18 16c10 0 18 -8 18 -18z" />
    <glyph glyph-name="Ohungarumlaut" unicode="&#x150;" horiz-adv-x="855" 
d="M865 453c0 -211 -158 -470 -441 -470c-148 0 -264 76 -264 246c0 201 155 474 443 474c138 0 262 -70 262 -250zM733 501c0 56 -18 162 -140 162c-54 0 -140 -26 -205 -133c-54 -90 -91 -265 -91 -337c0 -29 3 -82 33 -121c18 -22 52 -47 104 -47c58 0 131 29 195 123
c63 92 104 283 104 353zM833 900c0 -22 -15 -35 -25 -45l-101 -94c-11 -10 -20 -10 -20 -10c-4 0 -32 10 -32 27c0 4 0 6 7 17l68 118c6 11 24 34 54 34c29 0 49 -21 49 -47zM656 900c0 -22 -15 -35 -25 -45l-101 -94c-11 -10 -20 -10 -20 -10c-4 0 -32 10 -32 27
c0 4 0 6 7 17l68 118c6 11 24 34 54 34c29 0 49 -21 49 -47z" />
    <glyph glyph-name="ohungarumlaut" unicode="&#x151;" 
d="M595 284c0 -126 -101 -292 -298 -292c-119 0 -190 65 -190 168c0 125 100 292 298 292c119 0 190 -65 190 -168zM435 124c25 53 51 165 51 204c0 71 -48 88 -83 88c-51 0 -107 -33 -136 -96c-25 -53 -51 -165 -51 -204c0 -71 48 -88 83 -88c51 0 107 33 136 96zM640 652
c0 -22 -15 -35 -25 -45l-101 -94c-11 -10 -20 -10 -20 -10c-4 0 -32 10 -32 27c0 4 0 6 7 17l68 118c6 11 24 34 54 34c29 0 49 -21 49 -47zM463 652c0 -22 -15 -35 -25 -45l-101 -94c-11 -10 -20 -10 -20 -10c-4 0 -32 10 -32 27c0 4 0 6 7 17l68 118c6 11 24 34 54 34
c29 0 49 -21 49 -47z" />
    <glyph glyph-name="OE" unicode="&#x152;" horiz-adv-x="1141" 
d="M1145 256c0 -6 -3 -12 -5 -17l-95 -222c-7 -17 -12 -17 -33 -17h-372c-22 0 -48 -2 -90 -8c-43 -6 -66 -9 -94 -9c-132 0 -276 60 -276 251c0 206 163 469 456 469c18 0 39 -1 92 -9c35 -5 61 -8 83 -8h347c22 0 35 0 31 -32l-21 -182c-3 -23 -6 -27 -29 -27
c-13 0 -28 0 -28 21c0 9 5 34 5 68c0 105 -58 105 -178 105h-50c-27 0 -28 -1 -32 -16l-60 -243h76c79 0 107 18 127 92c6 22 7 25 31 25c10 0 28 0 28 -18c0 -3 -1 -6 -3 -13l-56 -226c-6 -24 -13 -24 -30 -24c-10 0 -28 0 -28 18c0 0 1 6 2 10c2 12 6 30 6 44
c0 29 -8 45 -80 45h-85l-71 -285c7 -1 14 -1 23 -1h95c159 0 200 79 252 200c12 26 12 27 34 27c10 0 28 0 28 -18zM624 176l83 334c5 19 13 63 13 89c0 38 -10 68 -89 68c-205 0 -315 -274 -315 -452c0 -128 60 -196 154 -196c67 0 118 14 154 157z" />
    <glyph glyph-name="oe" unicode="&#x153;" horiz-adv-x="827" 
d="M803 87c0 -13 -68 -95 -210 -95c-85 0 -134 37 -154 70c-55 -52 -114 -74 -172 -74c-72 0 -161 36 -161 162c0 137 100 306 271 306c49 0 102 -17 135 -69c57 48 128 65 186 65c70 0 129 -34 129 -96c0 -138 -200 -138 -261 -138h-44c-13 -53 -14 -70 -14 -92
c0 -17 0 -98 87 -98c24 0 96 7 162 81c5 7 8 10 15 10c10 0 31 -23 31 -32zM762 357c0 28 -19 59 -66 59c-43 0 -84 -23 -106 -45c-17 -18 -40 -47 -59 -117c72 0 231 0 231 103zM387 128c19 45 50 164 50 212c0 59 -30 80 -62 80c-39 0 -86 -28 -118 -118
c-7 -23 -45 -153 -45 -206c0 -42 20 -72 58 -72c22 0 80 14 117 104z" />
    <glyph glyph-name="Racute" unicode="&#x154;" horiz-adv-x="859" 
d="M850 99c0 -13 -33 -116 -134 -116c-33 0 -176 3 -176 112c0 16 2 25 15 77c7 25 15 59 15 75c0 78 -69 78 -84 78h-106l-69 -276c6 0 39 -2 49 -2h22c14 0 31 0 31 -18c0 -29 -19 -29 -28 -29c-49 0 -101 3 -151 3c-49 0 -100 -3 -148 -3c-11 0 -22 5 -22 18
c0 29 18 29 35 29h22c12 0 28 1 40 2c18 1 19 2 23 16l143 572c-12 1 -38 2 -49 2h-22c-15 0 -32 0 -32 18c0 29 18 29 35 29h330c105 0 236 -34 236 -151c0 -91 -85 -167 -202 -196c60 -26 81 -68 81 -108c0 -6 0 -10 -7 -50c-13 -82 -13 -90 -13 -106c0 -26 2 -56 38 -56
c29 0 55 29 71 78c6 20 10 20 29 20c11 0 28 0 28 -18zM687 561c0 78 -84 78 -162 78h-45c-22 0 -22 -1 -26 -16l-65 -262h99c51 0 103 9 143 42c41 36 56 137 56 158zM802 861c-6 -30 -33 -41 -48 -46l-166 -61c-6 -2 -11 -3 -17 -3c-16 2 -23 31 -22 37c1 7 9 13 15 17
l140 91c20 13 33 22 51 22c32 0 52 -25 47 -57z" />
    <glyph glyph-name="racute" unicode="&#x155;" horiz-adv-x="502" 
d="M562 363c0 -45 -34 -77 -72 -77c-31 0 -50 21 -50 46c0 4 1 46 47 67c-20 16 -44 17 -55 17c-70 0 -115 -75 -121 -98l-68 -272c-13 -52 -56 -54 -63 -54c-21 0 -45 12 -45 43c0 5 0 7 4 22l71 285c4 16 6 24 6 43c0 23 -7 31 -19 31c-34 0 -52 -75 -60 -108
c-7 -25 -8 -26 -32 -26c-15 0 -28 0 -28 14c0 4 13 60 39 102c13 20 38 54 85 54c49 0 89 -23 106 -54c43 43 90 54 128 54c73 0 127 -36 127 -89zM551 651c0 -31 -25 -46 -39 -54l-153 -89c-5 -3 -10 -6 -16 -6c-16 0 -28 27 -28 33c0 7 6 14 12 19l122 114
c20 19 33 31 55 31c25 0 47 -20 47 -48z" />
    <glyph glyph-name="Rcommaaccent" unicode="&#x156;" horiz-adv-x="859" 
d="M850 99c0 -13 -33 -116 -134 -116c-33 0 -176 3 -176 112c0 16 2 25 15 77c7 25 15 59 15 75c0 78 -69 78 -84 78h-106l-69 -276c6 0 39 -2 49 -2h22c14 0 31 0 31 -18c0 -29 -19 -29 -28 -29c-49 0 -101 3 -151 3c-49 0 -100 -3 -148 -3c-11 0 -22 5 -22 18
c0 29 18 29 35 29h22c12 0 28 1 40 2c18 1 19 2 23 16l143 572c-12 1 -38 2 -49 2h-22c-15 0 -32 0 -32 18c0 29 18 29 35 29h330c105 0 236 -34 236 -151c0 -91 -85 -167 -202 -196c60 -26 81 -68 81 -108c0 -6 0 -10 -7 -50c-13 -82 -13 -90 -13 -106c0 -26 2 -56 38 -56
c29 0 55 29 71 78c6 20 10 20 29 20c11 0 28 0 28 -18zM687 561c0 78 -84 78 -162 78h-45c-22 0 -22 -1 -26 -16l-65 -262h99c51 0 103 9 143 42c41 36 56 137 56 158zM458 -111c0 -98 -110 -196 -127 -196c-8 0 -14 9 -14 15c0 5 1 6 13 15c28 20 73 61 93 126
c-2 -1 -16 -10 -36 -10c-35 0 -46 25 -46 43c0 30 27 67 68 67c32 0 49 -25 49 -60z" />
    <glyph glyph-name="rcommaaccent" unicode="&#x157;" horiz-adv-x="502" 
d="M562 363c0 -45 -34 -77 -72 -77c-31 0 -50 21 -50 46c0 4 1 46 47 67c-20 16 -44 17 -55 17c-70 0 -115 -75 -121 -98l-68 -272c-13 -52 -56 -54 -63 -54c-21 0 -45 12 -45 43c0 5 0 7 4 22l71 285c4 16 6 24 6 43c0 23 -7 31 -19 31c-34 0 -52 -75 -60 -108
c-7 -25 -8 -26 -32 -26c-15 0 -28 0 -28 14c0 4 13 60 39 102c13 20 38 54 85 54c49 0 89 -23 106 -54c43 43 90 54 128 54c73 0 127 -36 127 -89zM206 -111c0 -98 -110 -196 -127 -196c-8 0 -14 9 -14 15c0 5 1 6 13 15c28 20 73 61 93 126c-2 -1 -16 -10 -36 -10
c-35 0 -46 25 -46 43c0 30 27 67 68 67c32 0 49 -25 49 -60z" />
    <glyph glyph-name="Rcaron" unicode="&#x158;" horiz-adv-x="859" 
d="M850 99c0 -13 -33 -116 -134 -116c-33 0 -176 3 -176 112c0 16 2 25 15 77c7 25 15 59 15 75c0 78 -69 78 -84 78h-106l-69 -276c6 0 39 -2 49 -2h22c14 0 31 0 31 -18c0 -29 -19 -29 -28 -29c-49 0 -101 3 -151 3c-49 0 -100 -3 -148 -3c-11 0 -22 5 -22 18
c0 29 18 29 35 29h22c12 0 28 1 40 2c18 1 19 2 23 16l143 572c-12 1 -38 2 -49 2h-22c-15 0 -32 0 -32 18c0 29 18 29 35 29h330c105 0 236 -34 236 -151c0 -91 -85 -167 -202 -196c60 -26 81 -68 81 -108c0 -6 0 -10 -7 -50c-13 -82 -13 -90 -13 -106c0 -26 2 -56 38 -56
c29 0 55 29 71 78c6 20 10 20 29 20c11 0 28 0 28 -18zM687 561c0 78 -84 78 -162 78h-45c-22 0 -22 -1 -26 -16l-65 -262h99c51 0 103 9 143 42c41 36 56 137 56 158zM825 880l-197 -139l-152 139l20 25l151 -56l169 56z" />
    <glyph glyph-name="rcaron" unicode="&#x159;" horiz-adv-x="502" 
d="M562 363c0 -45 -34 -77 -72 -77c-31 0 -50 21 -50 46c0 4 1 46 47 67c-20 16 -44 17 -55 17c-70 0 -115 -75 -121 -98l-68 -272c-13 -52 -56 -54 -63 -54c-21 0 -45 12 -45 43c0 5 0 7 4 22l71 285c4 16 6 24 6 43c0 23 -7 31 -19 31c-34 0 -52 -75 -60 -108
c-7 -25 -8 -26 -32 -26c-15 0 -28 0 -28 14c0 4 13 60 39 102c13 20 38 54 85 54c49 0 89 -23 106 -54c43 43 90 54 128 54c73 0 127 -36 127 -89zM598 682l-207 -185l-146 185l23 22l141 -99l174 99z" />
    <glyph glyph-name="Sacute" unicode="&#x15a;" horiz-adv-x="650" 
d="M616 251c0 -110 -88 -268 -265 -268c-79 0 -137 23 -169 55c-62 -52 -23 -21 -54 -46c-9 -8 -10 -9 -20 -9c-4 0 -18 0 -18 14c0 0 1 7 2 12l50 200c5 19 7 19 30 19c14 0 27 0 27 -14c0 0 0 -6 -1 -9c-4 -15 -6 -30 -6 -46c0 -105 96 -129 163 -129
c113 0 155 108 155 159c0 69 -47 81 -86 90c-32 9 -34 9 -64 16c-49 12 -89 22 -120 64c-21 29 -31 61 -31 97c0 94 82 247 259 247c60 0 104 -16 139 -49c4 -3 5 -4 5 -4l52 44c10 8 10 9 20 9c6 0 19 0 19 -15c0 -3 -1 -5 -4 -18l-48 -192c-5 -20 -7 -20 -30 -20
c-16 0 -28 0 -28 15c0 3 4 27 4 48c0 100 -56 139 -131 139c-109 0 -150 -95 -150 -141c0 -63 52 -76 69 -80l68 -17c64 -16 95 -23 126 -60c37 -45 37 -90 37 -111zM697 861c-6 -30 -33 -41 -48 -46l-166 -61c-6 -2 -11 -3 -17 -3c-16 2 -23 31 -22 37c1 7 9 13 15 17
l140 91c20 13 33 22 51 22c32 0 52 -25 47 -57z" />
    <glyph glyph-name="sacute" unicode="&#x15b;" horiz-adv-x="487" 
d="M465 164c0 -33 -20 -96 -72 -133c-54 -38 -118 -39 -146 -39c-97 0 -162 36 -162 99c0 49 35 78 72 78c17 0 49 -8 49 -46c0 -46 -42 -65 -49 -68c33 -27 80 -27 93 -27c139 0 139 96 139 96c0 46 -53 56 -105 66c-31 6 -117 23 -117 108c0 31 20 84 53 112
c18 15 53 42 131 42c79 0 135 -33 135 -88c0 -49 -37 -69 -62 -69s-44 16 -44 41c0 3 0 39 38 56c-23 24 -59 24 -69 24c-106 0 -106 -78 -106 -78c0 -37 41 -45 71 -51c53 -10 78 -15 107 -38c37 -29 44 -63 44 -85zM544 651c0 -31 -25 -46 -39 -54l-153 -89
c-5 -3 -10 -6 -16 -6c-16 0 -28 27 -28 33c0 7 6 14 12 19l122 114c20 19 33 31 55 31c25 0 47 -20 47 -48z" />
    <glyph glyph-name="Scircumflex" unicode="&#x15c;" horiz-adv-x="650" 
d="M616 251c0 -110 -88 -268 -265 -268c-79 0 -137 23 -169 55c-62 -52 -23 -21 -54 -46c-9 -8 -10 -9 -20 -9c-4 0 -18 0 -18 14c0 0 1 7 2 12l50 200c5 19 7 19 30 19c14 0 27 0 27 -14c0 0 0 -6 -1 -9c-4 -15 -6 -30 -6 -46c0 -105 96 -129 163 -129
c113 0 155 108 155 159c0 69 -47 81 -86 90c-32 9 -34 9 -64 16c-49 12 -89 22 -120 64c-21 29 -31 61 -31 97c0 94 82 247 259 247c60 0 104 -16 139 -49c4 -3 5 -4 5 -4l52 44c10 8 10 9 20 9c6 0 19 0 19 -15c0 -3 -1 -5 -4 -18l-48 -192c-5 -20 -7 -20 -30 -20
c-16 0 -28 0 -28 15c0 3 4 27 4 48c0 100 -56 139 -131 139c-109 0 -150 -95 -150 -141c0 -63 52 -76 69 -80l68 -17c64 -16 95 -23 126 -60c37 -45 37 -90 37 -111zM691 766l-19 -25l-151 56l-169 -56l-10 25l198 139z" />
    <glyph glyph-name="scircumflex" unicode="&#x15d;" horiz-adv-x="487" 
d="M465 164c0 -33 -20 -96 -72 -133c-54 -38 -118 -39 -146 -39c-97 0 -162 36 -162 99c0 49 35 78 72 78c17 0 49 -8 49 -46c0 -46 -42 -65 -49 -68c33 -27 80 -27 93 -27c139 0 139 96 139 96c0 46 -53 56 -105 66c-31 6 -117 23 -117 108c0 31 20 84 53 112
c18 15 53 42 131 42c79 0 135 -33 135 -88c0 -49 -37 -69 -62 -69s-44 16 -44 41c0 3 0 39 38 56c-23 24 -59 24 -69 24c-106 0 -106 -78 -106 -78c0 -37 41 -45 71 -51c53 -10 78 -15 107 -38c37 -29 44 -63 44 -85zM551 519l-23 -22l-141 99l-174 -99l-15 22l207 185z" />
    <glyph glyph-name="Scedilla" unicode="&#x15e;" horiz-adv-x="650" 
d="M616 251c0 -104 -79 -252 -239 -267l-9 -35c53 0 97 -27 86 -74c-19 -75 -165 -75 -283 -75c-15 0 -25 13 -21 28s20 28 35 28c61 0 144 0 149 19c4 18 -50 18 -92 18l25 100c-37 10 -66 26 -85 45c-62 -52 -23 -21 -54 -46c-9 -8 -10 -9 -20 -9c-4 0 -18 0 -18 14
c0 0 1 7 2 12l50 200c5 19 7 19 30 19c14 0 27 0 27 -14c0 0 0 -6 -1 -9c-4 -15 -6 -30 -6 -46c0 -105 96 -129 163 -129c113 0 155 108 155 159c0 69 -47 81 -86 90c-32 9 -34 9 -64 16c-49 12 -89 22 -120 64c-21 29 -31 61 -31 97c0 94 82 247 259 247
c60 0 104 -16 139 -49c4 -3 5 -4 5 -4l52 44c10 8 10 9 20 9c6 0 19 0 19 -15c0 -3 -1 -5 -4 -18l-48 -192c-5 -20 -7 -20 -30 -20c-16 0 -28 0 -28 15c0 3 4 27 4 48c0 100 -56 139 -131 139c-109 0 -150 -95 -150 -141c0 -63 52 -76 69 -80l68 -17c64 -16 95 -23 126 -60
c37 -45 37 -90 37 -111z" />
    <glyph glyph-name="scedilla" unicode="&#x15f;" horiz-adv-x="487" 
d="M465 164c0 -33 -20 -96 -72 -133c-31 -22 -66 -32 -95 -36l-11 -46c52 0 97 -27 85 -74c-19 -75 -164 -75 -282 -75c-16 0 -25 13 -21 28s19 28 35 28c60 0 143 0 148 19c5 18 -50 18 -91 18l26 104c-63 13 -102 45 -102 94s35 78 72 78c17 0 49 -8 49 -46
c0 -46 -42 -65 -49 -68c33 -27 80 -27 93 -27c139 0 139 96 139 96c0 46 -53 56 -105 66c-31 6 -117 23 -117 108c0 31 20 84 53 112c18 15 53 42 131 42c79 0 135 -33 135 -88c0 -49 -37 -69 -62 -69s-44 16 -44 41c0 3 0 39 38 56c-23 24 -59 24 -69 24
c-106 0 -106 -78 -106 -78c0 -37 41 -45 71 -51c53 -10 78 -15 107 -38c37 -29 44 -63 44 -85z" />
    <glyph glyph-name="Scaron" unicode="&#x160;" horiz-adv-x="650" 
d="M616 251c0 -110 -88 -268 -265 -268c-79 0 -137 23 -169 55c-62 -52 -23 -21 -54 -46c-9 -8 -10 -9 -20 -9c-4 0 -18 0 -18 14c0 0 1 7 2 12l50 200c5 19 7 19 30 19c14 0 27 0 27 -14c0 0 0 -6 -1 -9c-4 -15 -6 -30 -6 -46c0 -105 96 -129 163 -129
c113 0 155 108 155 159c0 69 -47 81 -86 90c-32 9 -34 9 -64 16c-49 12 -89 22 -120 64c-21 29 -31 61 -31 97c0 94 82 247 259 247c60 0 104 -16 139 -49c4 -3 5 -4 5 -4l52 44c10 8 10 9 20 9c6 0 19 0 19 -15c0 -3 -1 -5 -4 -18l-48 -192c-5 -20 -7 -20 -30 -20
c-16 0 -28 0 -28 15c0 3 4 27 4 48c0 100 -56 139 -131 139c-109 0 -150 -95 -150 -141c0 -63 52 -76 69 -80l68 -17c64 -16 95 -23 126 -60c37 -45 37 -90 37 -111zM720 880l-197 -139l-152 139l20 25l151 -56l169 56z" />
    <glyph glyph-name="scaron" unicode="&#x161;" horiz-adv-x="487" 
d="M465 164c0 -33 -20 -96 -72 -133c-54 -38 -118 -39 -146 -39c-97 0 -162 36 -162 99c0 49 35 78 72 78c17 0 49 -8 49 -46c0 -46 -42 -65 -49 -68c33 -27 80 -27 93 -27c139 0 139 96 139 96c0 46 -53 56 -105 66c-31 6 -117 23 -117 108c0 31 20 84 53 112
c18 15 53 42 131 42c79 0 135 -33 135 -88c0 -49 -37 -69 -62 -69s-44 16 -44 41c0 3 0 39 38 56c-23 24 -59 24 -69 24c-106 0 -106 -78 -106 -78c0 -37 41 -45 71 -51c53 -10 78 -15 107 -38c37 -29 44 -63 44 -85zM591 682l-207 -185l-146 185l23 22l141 -99l174 99z" />
    <glyph glyph-name="Tcedilla" unicode="&#x162;" horiz-adv-x="796" 
d="M842 460c-4 -26 -12 -26 -30 -26c-11 0 -28 0 -28 19c0 0 0 4 2 14s8 49 8 80c0 63 -23 81 -120 81h-35c-15 -1 -16 -1 -20 -16l-140 -562c20 -2 50 -3 71 -3h44c15 0 32 0 32 -18c0 -29 -17 -29 -31 -29l-141 2l-13 -53c53 0 98 -27 86 -74c-19 -75 -165 -75 -283 -75
c-15 0 -24 13 -21 28c4 15 20 28 35 28c61 0 144 0 149 19c4 18 -50 18 -92 18l27 109l-137 -2c-4 0 -24 0 -24 18c0 29 18 29 35 29h45c49 0 78 4 82 5l143 575c-16 1 -18 1 -42 1c-129 0 -157 -37 -204 -173c-7 -20 -10 -21 -30 -21c-10 0 -28 0 -28 18c0 6 12 40 19 60
l50 144c7 19 11 19 33 19h556c16 0 32 0 32 -19c0 0 0 -4 -2 -15z" />
    <glyph glyph-name="tcedilla" unicode="&#x163;" horiz-adv-x="385" 
d="M363 -125c-19 -75 -165 -75 -283 -75c-15 0 -24 13 -21 28c4 15 20 28 35 28c61 0 144 0 149 19c4 18 -50 18 -92 18l28 111c-34 15 -58 44 -58 85c0 6 0 13 4 29l70 279h-72c-15 0 -32 0 -32 18c0 29 17 29 35 29h81l36 146c12 47 50 53 63 53c28 0 45 -19 45 -42
c0 -8 -11 -52 -18 -78l-19 -79h71c14 0 31 0 31 -18c0 -29 -17 -29 -34 -29h-80l-74 -295c-4 -16 -6 -24 -6 -43c0 -30 12 -31 21 -31c26 0 75 18 117 117c8 16 9 17 31 17c15 0 28 0 28 -14s-46 -114 -129 -146l-13 -53c53 0 98 -27 86 -74z" />
    <glyph glyph-name="Tcaron" unicode="&#x164;" horiz-adv-x="796" 
d="M842 460c-4 -26 -12 -26 -30 -26c-11 0 -28 0 -28 19c0 0 0 4 2 14s8 49 8 80c0 63 -23 81 -120 81h-35c-15 -1 -16 -1 -20 -16l-140 -562c20 -2 50 -3 71 -3h44c15 0 32 0 32 -18c0 -29 -17 -29 -31 -29l-197 3l-193 -3c-4 0 -24 0 -24 18c0 29 18 29 35 29h45
c49 0 78 4 82 5l143 575c-16 1 -18 1 -42 1c-129 0 -157 -37 -204 -173c-7 -20 -10 -21 -30 -21c-10 0 -28 0 -28 18c0 6 12 40 19 60l50 144c7 19 11 19 33 19h556c16 0 32 0 32 -19c0 0 0 -4 -2 -15zM793 880l-197 -139l-152 139l20 25l151 -56l169 56z" />
    <glyph glyph-name="tcaron" unicode="&#x165;" horiz-adv-x="385" 
d="M419 148c0 -17 -66 -156 -181 -156c-60 0 -117 34 -117 97c0 6 0 13 4 29l70 279h-72c-15 0 -32 0 -32 18c0 29 17 29 35 29h81l36 146c12 47 50 53 63 53c28 0 45 -19 45 -42c0 -8 -11 -52 -18 -78l-19 -79h71c14 0 31 0 31 -18c0 -29 -17 -29 -34 -29h-80l-74 -295
c-4 -16 -6 -24 -6 -43c0 -30 12 -31 21 -31c26 0 75 18 117 117c8 16 9 17 31 17c15 0 28 0 28 -14zM527 680c0 -98 -110 -196 -127 -196c-8 0 -14 9 -14 15c0 5 1 6 13 15c28 20 73 61 93 126c-2 -1 -16 -10 -36 -10c-35 0 -46 25 -46 43c0 30 27 67 68 67
c32 0 49 -25 49 -60z" />
    <glyph glyph-name="Utilde" unicode="&#x168;" horiz-adv-x="881" 
d="M988 668c0 -29 -17 -29 -31 -29c-8 0 -34 0 -57 -5c-29 -6 -30 -9 -34 -24l-97 -390c-25 -101 -123 -237 -311 -237c-146 0 -240 69 -240 190c0 26 5 51 7 58l102 406c-12 1 -38 2 -49 2h-22c-15 0 -32 0 -32 18c0 29 19 29 29 29c50 0 103 -3 154 -3c50 0 101 3 150 3
c11 0 22 -5 22 -18c0 -29 -17 -29 -34 -29l-62 -1c-19 -2 -20 -3 -24 -18l-101 -405c-7 -30 -12 -48 -12 -82c0 -25 4 -56 32 -79c22 -17 55 -24 85 -24c110 0 212 63 247 203l99 396c-25 10 -61 10 -70 10c-14 0 -31 0 -31 18c0 29 20 29 27 29c39 0 80 -3 119 -3
c38 0 77 3 114 3c11 0 20 -7 20 -18zM854 842c0 -14 -45 -49 -61 -62c-25 -20 -57 -39 -86 -39c-18 0 -37 5 -68 39c-11 14 -21 22 -35 22c-27 0 -66 -32 -88 -51c-6 -6 -11 -10 -18 -10c-13 0 -18 12 -18 18c0 13 41 46 57 58c18 14 56 43 90 43c20 0 40 -8 61 -32
c19 -22 29 -29 42 -29c29 0 72 37 85 48c9 9 13 13 21 13c10 0 18 -8 18 -18z" />
    <glyph glyph-name="utilde" unicode="&#x169;" horiz-adv-x="621" 
d="M655 148c0 -4 -13 -60 -39 -102c-13 -20 -38 -54 -85 -54c-39 0 -84 16 -103 51c-49 -46 -91 -51 -119 -51c-83 0 -148 35 -148 126c0 56 28 128 60 214c6 14 18 45 18 66c0 18 -9 18 -14 18c-57 0 -84 -95 -92 -121c-4 -13 -9 -13 -28 -13c-15 0 -28 0 -28 14
c0 21 49 156 153 156c54 0 105 -33 105 -89c0 -17 -5 -29 -14 -54c-24 -63 -58 -152 -58 -212c0 -22 2 -69 52 -69c30 0 55 16 69 29c28 28 29 32 33 50l69 281c12 50 51 56 64 56c21 0 45 -12 45 -43c0 -5 0 -7 -4 -22l-69 -277c-4 -16 -6 -24 -6 -43c0 -23 7 -31 19 -31
c34 0 52 75 60 108c7 25 8 26 32 26c15 0 28 0 28 -14zM648 642c0 -14 -45 -49 -61 -62c-25 -20 -57 -39 -86 -39c-18 0 -37 5 -68 39c-11 14 -21 22 -35 22c-27 0 -66 -32 -88 -51c-6 -6 -11 -10 -18 -10c-13 0 -18 12 -18 18c0 13 41 46 57 58c18 14 56 43 90 43
c20 0 40 -8 61 -32c19 -22 29 -29 42 -29c29 0 72 37 85 48c9 9 13 13 21 13c10 0 18 -8 18 -18z" />
    <glyph glyph-name="Umacron" unicode="&#x16a;" horiz-adv-x="881" 
d="M988 668c0 -29 -17 -29 -31 -29c-8 0 -34 0 -57 -5c-29 -6 -30 -9 -34 -24l-97 -390c-25 -101 -123 -237 -311 -237c-146 0 -240 69 -240 190c0 26 5 51 7 58l102 406c-12 1 -38 2 -49 2h-22c-15 0 -32 0 -32 18c0 29 19 29 29 29c50 0 103 -3 154 -3c50 0 101 3 150 3
c11 0 22 -5 22 -18c0 -29 -17 -29 -34 -29l-62 -1c-19 -2 -20 -3 -24 -18l-101 -405c-7 -30 -12 -48 -12 -82c0 -25 4 -56 32 -79c22 -17 55 -24 85 -24c110 0 212 63 247 203l99 396c-25 10 -61 10 -70 10c-14 0 -31 0 -31 18c0 29 20 29 27 29c39 0 80 -3 119 -3
c38 0 77 3 114 3c11 0 20 -7 20 -18zM856 793c0 -32 -17 -32 -35 -32h-317c-15 0 -32 0 -32 18c0 32 17 32 35 32h317c15 0 32 0 32 -18z" />
    <glyph glyph-name="umacron" unicode="&#x16b;" horiz-adv-x="621" 
d="M655 148c0 -4 -13 -60 -39 -102c-13 -20 -38 -54 -85 -54c-39 0 -84 16 -103 51c-49 -46 -91 -51 -119 -51c-83 0 -148 35 -148 126c0 56 28 128 60 214c6 14 18 45 18 66c0 18 -9 18 -14 18c-57 0 -84 -95 -92 -121c-4 -13 -9 -13 -28 -13c-15 0 -28 0 -28 14
c0 21 49 156 153 156c54 0 105 -33 105 -89c0 -17 -5 -29 -14 -54c-24 -63 -58 -152 -58 -212c0 -22 2 -69 52 -69c30 0 55 16 69 29c28 28 29 32 33 50l69 281c12 50 51 56 64 56c21 0 45 -12 45 -43c0 -5 0 -7 -4 -22l-69 -277c-4 -16 -6 -24 -6 -43c0 -23 7 -31 19 -31
c34 0 52 75 60 108c7 25 8 26 32 26c15 0 28 0 28 -14zM653 608c0 -32 -17 -32 -35 -32h-317c-15 0 -32 0 -32 18c0 32 17 32 35 32h317c15 0 32 0 32 -18z" />
    <glyph glyph-name="Ubreve" unicode="&#x16c;" horiz-adv-x="881" 
d="M988 668c0 -29 -17 -29 -31 -29c-8 0 -34 0 -57 -5c-29 -6 -30 -9 -34 -24l-97 -390c-25 -101 -123 -237 -311 -237c-146 0 -240 69 -240 190c0 26 5 51 7 58l102 406c-12 1 -38 2 -49 2h-22c-15 0 -32 0 -32 18c0 29 19 29 29 29c50 0 103 -3 154 -3c50 0 101 3 150 3
c11 0 22 -5 22 -18c0 -29 -17 -29 -34 -29l-62 -1c-19 -2 -20 -3 -24 -18l-101 -405c-7 -30 -12 -48 -12 -82c0 -25 4 -56 32 -79c22 -17 55 -24 85 -24c110 0 212 63 247 203l99 396c-25 10 -61 10 -70 10c-14 0 -31 0 -31 18c0 29 20 29 27 29c39 0 80 -3 119 -3
c38 0 77 3 114 3c11 0 20 -7 20 -18zM860 912c0 -40 -76 -161 -200 -161c-75 0 -133 50 -133 127c0 27 3 52 22 52c10 0 18 -9 18 -18c0 -7 -3 -11 -3 -25c0 -53 53 -77 102 -77c40 0 130 20 158 104c2 5 5 16 18 16c10 0 18 -8 18 -18z" />
    <glyph glyph-name="ubreve" unicode="&#x16d;" horiz-adv-x="621" 
d="M655 148c0 -4 -13 -60 -39 -102c-13 -20 -38 -54 -85 -54c-39 0 -84 16 -103 51c-49 -46 -91 -51 -119 -51c-83 0 -148 35 -148 126c0 56 28 128 60 214c6 14 18 45 18 66c0 18 -9 18 -14 18c-57 0 -84 -95 -92 -121c-4 -13 -9 -13 -28 -13c-15 0 -28 0 -28 14
c0 21 49 156 153 156c54 0 105 -33 105 -89c0 -17 -5 -29 -14 -54c-24 -63 -58 -152 -58 -212c0 -22 2 -69 52 -69c30 0 55 16 69 29c28 28 29 32 33 50l69 281c12 50 51 56 64 56c21 0 45 -12 45 -43c0 -5 0 -7 -4 -22l-69 -277c-4 -16 -6 -24 -6 -43c0 -23 7 -31 19 -31
c34 0 52 75 60 108c7 25 8 26 32 26c15 0 28 0 28 -14zM643 672c0 -40 -76 -161 -200 -161c-75 0 -133 50 -133 127c0 27 3 52 22 52c10 0 18 -9 18 -18c0 -7 -3 -11 -3 -25c0 -53 53 -77 102 -77c40 0 130 20 158 104c2 5 5 16 18 16c10 0 18 -8 18 -18z" />
    <glyph glyph-name="Uring" unicode="&#x16e;" horiz-adv-x="881" 
d="M988 668c0 -29 -17 -29 -31 -29c-8 0 -34 0 -57 -5c-29 -6 -30 -9 -34 -24l-97 -390c-25 -101 -123 -237 -311 -237c-146 0 -240 69 -240 190c0 26 5 51 7 58l102 406c-12 1 -38 2 -49 2h-22c-15 0 -32 0 -32 18c0 29 19 29 29 29c50 0 103 -3 154 -3c50 0 101 3 150 3
c11 0 22 -5 22 -18c0 -29 -17 -29 -34 -29l-62 -1c-19 -2 -20 -3 -24 -18l-101 -405c-7 -30 -12 -48 -12 -82c0 -25 4 -56 32 -79c22 -17 55 -24 85 -24c110 0 212 63 247 203l99 396c-25 10 -61 10 -70 10c-14 0 -31 0 -31 18c0 29 20 29 27 29c39 0 80 -3 119 -3
c38 0 77 3 114 3c11 0 20 -7 20 -18zM723 814c0 22 -23 24 -47 24c-17 0 -39 -1 -52 -15c-11 -13 -15 -42 -15 -47c0 -23 25 -24 47 -24c14 0 40 1 52 15c11 14 15 41 15 47zM785 813c0 -46 -45 -102 -140 -102c-61 0 -98 23 -98 66c0 48 47 102 140 102c64 0 98 -26 98 -66
z" />
    <glyph glyph-name="uring" unicode="&#x16f;" horiz-adv-x="621" 
d="M655 148c0 -4 -13 -60 -39 -102c-13 -20 -38 -54 -85 -54c-39 0 -84 16 -103 51c-49 -46 -91 -51 -119 -51c-83 0 -148 35 -148 126c0 56 28 128 60 214c6 14 18 45 18 66c0 18 -9 18 -14 18c-57 0 -84 -95 -92 -121c-4 -13 -9 -13 -28 -13c-15 0 -28 0 -28 14
c0 21 49 156 153 156c54 0 105 -33 105 -89c0 -17 -5 -29 -14 -54c-24 -63 -58 -152 -58 -212c0 -22 2 -69 52 -69c30 0 55 16 69 29c28 28 29 32 33 50l69 281c12 50 51 56 64 56c21 0 45 -12 45 -43c0 -5 0 -7 -4 -22l-69 -277c-4 -16 -6 -24 -6 -43c0 -23 7 -31 19 -31
c34 0 52 75 60 108c7 25 8 26 32 26c15 0 28 0 28 -14zM522 637c0 22 -23 24 -47 24c-17 0 -39 -1 -52 -15c-11 -13 -15 -42 -15 -47c0 -23 25 -24 47 -24c14 0 40 1 52 15c11 14 15 41 15 47zM584 636c0 -46 -45 -102 -140 -102c-61 0 -98 23 -98 66c0 48 47 102 140 102
c64 0 98 -26 98 -66z" />
    <glyph glyph-name="Uhungarumlaut" unicode="&#x170;" horiz-adv-x="881" 
d="M988 668c0 -29 -17 -29 -31 -29c-8 0 -34 0 -57 -5c-29 -6 -30 -9 -34 -24l-97 -390c-25 -101 -123 -237 -311 -237c-146 0 -240 69 -240 190c0 26 5 51 7 58l102 406c-12 1 -38 2 -49 2h-22c-15 0 -32 0 -32 18c0 29 19 29 29 29c50 0 103 -3 154 -3c50 0 101 3 150 3
c11 0 22 -5 22 -18c0 -29 -17 -29 -34 -29l-62 -1c-19 -2 -20 -3 -24 -18l-101 -405c-7 -30 -12 -48 -12 -82c0 -25 4 -56 32 -79c22 -17 55 -24 85 -24c110 0 212 63 247 203l99 396c-25 10 -61 10 -70 10c-14 0 -31 0 -31 18c0 29 20 29 27 29c39 0 80 -3 119 -3
c38 0 77 3 114 3c11 0 20 -7 20 -18zM873 900c0 -22 -15 -35 -25 -45l-101 -94c-11 -10 -20 -10 -20 -10c-4 0 -32 10 -32 27c0 4 0 6 7 17l68 118c6 11 24 34 54 34c29 0 49 -21 49 -47zM696 900c0 -22 -15 -35 -25 -45l-101 -94c-11 -10 -20 -10 -20 -10
c-4 0 -32 10 -32 27c0 4 0 6 7 17l68 118c6 11 24 34 54 34c29 0 49 -21 49 -47z" />
    <glyph glyph-name="uhungarumlaut" unicode="&#x171;" horiz-adv-x="621" 
d="M655 148c0 -4 -13 -60 -39 -102c-13 -20 -38 -54 -85 -54c-39 0 -84 16 -103 51c-49 -46 -91 -51 -119 -51c-83 0 -148 35 -148 126c0 56 28 128 60 214c6 14 18 45 18 66c0 18 -9 18 -14 18c-57 0 -84 -95 -92 -121c-4 -13 -9 -13 -28 -13c-15 0 -28 0 -28 14
c0 21 49 156 153 156c54 0 105 -33 105 -89c0 -17 -5 -29 -14 -54c-24 -63 -58 -152 -58 -212c0 -22 2 -69 52 -69c30 0 55 16 69 29c28 28 29 32 33 50l69 281c12 50 51 56 64 56c21 0 45 -12 45 -43c0 -5 0 -7 -4 -22l-69 -277c-4 -16 -6 -24 -6 -43c0 -23 7 -31 19 -31
c34 0 52 75 60 108c7 25 8 26 32 26c15 0 28 0 28 -14zM655 652c0 -22 -15 -35 -25 -45l-101 -94c-11 -10 -20 -10 -20 -10c-4 0 -32 10 -32 27c0 4 0 6 7 17l68 118c6 11 24 34 54 34c29 0 49 -21 49 -47zM478 652c0 -22 -15 -35 -25 -45l-101 -94c-11 -10 -20 -10 -20 -10
c-4 0 -32 10 -32 27c0 4 0 6 7 17l68 118c6 11 24 34 54 34c29 0 49 -21 49 -47z" />
    <glyph glyph-name="Uogonek" unicode="&#x172;" horiz-adv-x="881" 
d="M988 668c0 -29 -17 -29 -31 -29c-8 0 -34 0 -57 -5c-29 -6 -30 -9 -34 -24l-97 -390c-24 -98 -117 -228 -293 -237c-11 -11 -20 -25 -26 -40c-16 -40 5 -81 49 -81c23 0 29 11 38 19c9 6 22 3 29 -3c8 -7 9 -22 4 -28c-28 -30 -63 -54 -107 -54c-70 0 -105 45 -105 90
c0 34 24 71 53 100c-119 13 -193 79 -193 187c0 26 5 51 7 58l102 406c-12 1 -38 2 -49 2h-22c-15 0 -32 0 -32 18c0 29 19 29 29 29c50 0 103 -3 154 -3c50 0 101 3 150 3c11 0 22 -5 22 -18c0 -29 -17 -29 -34 -29l-62 -1c-19 -2 -20 -3 -24 -18l-101 -405
c-7 -30 -12 -48 -12 -82c0 -25 4 -56 32 -79c22 -17 55 -24 85 -24c110 0 212 63 247 203l99 396c-25 10 -61 10 -70 10c-14 0 -31 0 -31 18c0 29 20 29 27 29c39 0 80 -3 119 -3c38 0 77 3 114 3c11 0 20 -7 20 -18z" />
    <glyph glyph-name="uogonek" unicode="&#x173;" horiz-adv-x="621" 
d="M620 -150c-28 -30 -63 -54 -107 -54c-70 0 -105 45 -105 90c0 41 34 86 72 115c-22 8 -41 22 -52 42c-49 -46 -91 -51 -119 -51c-83 0 -148 35 -148 126c0 56 28 128 60 214c6 14 18 45 18 66c0 18 -9 18 -14 18c-57 0 -84 -95 -92 -121c-4 -13 -9 -13 -28 -13
c-15 0 -28 0 -28 14c0 21 49 156 153 156c54 0 105 -33 105 -89c0 -17 -5 -29 -14 -54c-24 -63 -58 -152 -58 -212c0 -22 2 -69 52 -69c30 0 55 16 69 29c28 28 29 32 33 50l69 281c12 50 51 56 64 56c21 0 45 -12 45 -43c0 -5 0 -7 -4 -22l-69 -277c-4 -16 -6 -24 -6 -43
c0 -23 7 -31 19 -31c34 0 52 75 60 108c7 25 8 26 32 26c15 0 28 0 28 -14c0 -4 -13 -60 -39 -102c-13 -19 -36 -52 -81 -54c-15 -13 -28 -30 -35 -49c-16 -40 5 -81 49 -81c23 0 29 11 38 19c9 6 22 3 29 -3c8 -7 9 -22 4 -28z" />
    <glyph glyph-name="Wcircumflex" unicode="&#x174;" horiz-adv-x="1160" 
d="M1274 668c0 -28 -17 -29 -32 -29c-57 -2 -70 -16 -82 -37l-350 -593c-15 -25 -25 -26 -45 -26c-23 0 -30 1 -33 29l-40 437l-261 -442c-14 -24 -26 -24 -44 -24c-29 0 -30 6 -32 31l-57 623c-19 2 -25 2 -42 2h-7c-15 0 -32 0 -32 18c0 29 20 29 28 29c41 0 86 -3 128 -3
c48 0 98 3 145 3c11 0 22 -5 22 -18c0 -29 -17 -29 -39 -29c-20 0 -46 -1 -65 -5l41 -449l207 351l-9 101c-13 1 -28 2 -41 2h-7c-15 0 -32 0 -32 18c0 29 19 29 28 29c41 0 85 -3 127 -3c48 0 98 3 146 3c21 0 21 -18 21 -18c0 -29 -16 -29 -39 -29c-20 0 -46 -2 -65 -5
l41 -449l262 442v1c-28 10 -69 11 -72 11c-7 0 -25 0 -25 18c0 29 20 29 28 29c39 0 80 -3 120 -3c29 0 60 3 88 3c13 0 19 -11 19 -18zM946 766l-19 -25l-151 56l-169 -56l-10 25l198 139z" />
    <glyph glyph-name="wcircumflex" unicode="&#x175;" horiz-adv-x="768" 
d="M791 365c0 -50 -32 -174 -62 -243c-35 -80 -84 -130 -157 -130c-42 0 -102 8 -136 51c-22 -28 -57 -51 -106 -51c-70 0 -168 21 -168 132c0 51 22 111 59 208c6 14 18 45 18 66c0 18 -9 18 -14 18c-57 0 -84 -95 -92 -121c-4 -13 -9 -13 -28 -13c-15 0 -28 0 -28 14
c0 21 49 156 153 156c54 0 105 -33 105 -89c0 -17 -5 -30 -12 -47c-31 -84 -58 -154 -58 -210c0 -17 0 -78 71 -78c33 0 59 27 78 70c-2 9 -2 14 -2 24c0 28 14 82 24 122l34 136c4 19 16 64 65 64c21 0 45 -12 45 -43c0 -10 -6 -34 -15 -67c-27 -104 -51 -196 -51 -231
c0 -31 8 -75 64 -75c43 0 72 34 93 83c23 53 47 148 47 163c0 30 -19 51 -39 65c-10 8 -24 18 -24 42c0 36 37 72 72 72c19 0 64 -14 64 -88zM691 519l-23 -22l-141 99l-174 -99l-15 22l207 185z" />
    <glyph glyph-name="Ycircumflex" unicode="&#x176;" horiz-adv-x="866" 
d="M985 668c0 -29 -18 -29 -30 -29c-73 -1 -89 -19 -107 -40l-281 -325l-56 -225c12 -1 38 -2 49 -2h22c15 0 32 0 32 -18c0 -29 -19 -29 -29 -29c-49 0 -101 3 -151 3c-49 0 -100 -3 -148 -3c-11 0 -22 5 -22 18c0 29 18 29 35 29h22c11 0 29 0 40 1c19 3 20 4 24 18
l52 208l-128 349c-5 12 -6 13 -20 15c-9 1 -24 1 -33 1h-12c-14 0 -32 0 -32 18c0 29 20 29 28 29c45 0 92 -3 138 -3c50 0 102 3 151 3c10 0 22 -4 22 -18c0 -29 -18 -29 -31 -29c-23 0 -37 -1 -61 -4l103 -284l241 280c-16 6 -33 8 -50 8c-8 0 -26 0 -26 18
c0 29 20 29 28 29c37 0 77 -3 115 -3c32 0 65 3 96 3c13 0 19 -10 19 -18zM799 766l-19 -25l-151 56l-169 -56l-10 25l198 139z" />
    <glyph glyph-name="ycircumflex" unicode="&#x177;" horiz-adv-x="562" 
d="M495 -7c-24 -97 -135 -195 -261 -195c-74 0 -127 34 -127 87c0 43 32 76 72 76c18 0 49 -8 49 -46s-30 -59 -45 -66c20 -14 43 -15 52 -15c77 0 139 92 158 182c-15 -10 -44 -24 -84 -24c-83 0 -148 35 -148 126c0 56 28 128 60 214c6 14 18 45 18 66c0 18 -9 18 -14 18
c-57 0 -84 -95 -92 -121c-4 -13 -9 -13 -28 -13c-15 0 -28 0 -28 14c0 21 49 156 153 156c54 0 105 -33 105 -89c0 -17 -5 -29 -14 -54c-24 -63 -58 -152 -58 -212c0 -22 2 -69 52 -69c31 0 55 17 63 24c30 25 34 40 37 52l72 286c13 53 57 54 63 54c21 0 45 -12 45 -43
c0 -5 0 -7 -4 -22zM588 519l-23 -22l-141 99l-174 -99l-15 22l207 185z" />
    <glyph glyph-name="Ydieresis" unicode="&#x178;" horiz-adv-x="866" 
d="M985 668c0 -29 -18 -29 -30 -29c-73 -1 -89 -19 -107 -40l-281 -325l-56 -225c12 -1 38 -2 49 -2h22c15 0 32 0 32 -18c0 -29 -19 -29 -29 -29c-49 0 -101 3 -151 3c-49 0 -100 -3 -148 -3c-11 0 -22 5 -22 18c0 29 18 29 35 29h22c11 0 29 0 40 1c19 3 20 4 24 18
l52 208l-128 349c-5 12 -6 13 -20 15c-9 1 -24 1 -33 1h-12c-14 0 -32 0 -32 18c0 29 20 29 28 29c45 0 92 -3 138 -3c50 0 102 3 151 3c10 0 22 -4 22 -18c0 -29 -18 -29 -31 -29c-23 0 -37 -1 -61 -4l103 -284l241 280c-16 6 -33 8 -50 8c-8 0 -26 0 -26 18
c0 29 20 29 28 29c37 0 77 -3 115 -3c32 0 65 3 96 3c13 0 19 -10 19 -18zM557 819c0 -39 -38 -78 -80 -78c-35 0 -55 25 -56 54c0 39 39 78 80 78c37 0 56 -29 56 -54zM848 819c0 -39 -38 -78 -80 -78c-35 0 -55 25 -56 54c0 39 39 78 80 78c37 0 56 -29 56 -54z" />
    <glyph glyph-name="Zacute" unicode="&#x179;" horiz-adv-x="709" 
d="M688 251l-73 -230c-7 -21 -13 -21 -34 -21h-459c-17 0 -28 0 -28 14c0 18 9 28 16 36l514 589h-111c-125 0 -194 -53 -233 -169c-8 -23 -9 -25 -31 -25c-10 0 -28 0 -28 18c0 0 4 16 5 18l55 185c6 20 14 20 34 20h444c15 0 27 0 27 -14c0 -12 -5 -24 -13 -33l-514 -588
h118c179 0 221 104 255 208c8 23 9 25 31 25c10 0 28 0 28 -18c0 -3 -2 -12 -3 -15zM726 861c-6 -30 -33 -41 -48 -46l-166 -61c-6 -2 -11 -3 -17 -3c-16 2 -23 31 -22 37c1 7 9 13 15 17l140 91c20 13 33 22 51 22c32 0 52 -25 47 -57z" />
    <glyph glyph-name="zacute" unicode="&#x17a;" horiz-adv-x="491" 
d="M526 151c0 -34 -69 -159 -181 -159c-36 0 -57 16 -85 38c-20 15 -38 30 -63 30c-31 0 -59 -30 -78 -58c-6 -9 -7 -10 -27 -10c-16 0 -28 0 -28 14c0 19 63 90 110 137c27 26 77 67 117 99c70 58 95 83 117 106h-21c-15 0 -54 -2 -69 -2h-71c-33 -2 -41 -7 -46 -16
c-6 -12 -8 -12 -28 -12c-13 0 -28 0 -28 14c0 30 55 120 142 120c27 0 49 -10 79 -33c21 -17 42 -35 67 -35c15 0 39 39 51 57c7 10 8 11 28 11c16 0 28 0 28 -14c0 -16 -53 -81 -110 -137c-27 -26 -77 -67 -117 -99c-70 -58 -95 -83 -117 -106h48l68 2c85 1 136 2 158 57
c5 11 11 11 28 11c14 0 28 0 28 -15zM546 651c0 -31 -25 -46 -39 -54l-153 -89c-5 -3 -10 -6 -16 -6c-16 0 -28 27 -28 33c0 7 6 14 12 19l122 114c20 19 33 31 55 31c25 0 47 -20 47 -48z" />
    <glyph glyph-name="Zdotaccent" unicode="&#x17b;" horiz-adv-x="709" 
d="M688 251l-73 -230c-7 -21 -13 -21 -34 -21h-459c-17 0 -28 0 -28 14c0 18 9 28 16 36l514 589h-111c-125 0 -194 -53 -233 -169c-8 -23 -9 -25 -31 -25c-10 0 -28 0 -28 18c0 0 4 16 5 18l55 185c6 20 14 20 34 20h444c15 0 27 0 27 -14c0 -12 -5 -24 -13 -33l-514 -588
h118c179 0 221 104 255 208c8 23 9 25 31 25c10 0 28 0 28 -18c0 -3 -2 -12 -3 -15zM638 845c0 -43 -42 -87 -89 -87c-38 0 -62 28 -62 60c0 44 43 87 89 87c41 0 62 -32 62 -60z" />
    <glyph glyph-name="zdotaccent" unicode="&#x17c;" horiz-adv-x="491" 
d="M526 151c0 -34 -69 -159 -181 -159c-36 0 -57 16 -85 38c-20 15 -38 30 -63 30c-31 0 -59 -30 -78 -58c-6 -9 -7 -10 -27 -10c-16 0 -28 0 -28 14c0 19 63 90 110 137c27 26 77 67 117 99c70 58 95 83 117 106h-21c-15 0 -54 -2 -69 -2h-71c-33 -2 -41 -7 -46 -16
c-6 -12 -8 -12 -28 -12c-13 0 -28 0 -28 14c0 30 55 120 142 120c27 0 49 -10 79 -33c21 -17 42 -35 67 -35c15 0 39 39 51 57c7 10 8 11 28 11c16 0 28 0 28 -14c0 -16 -53 -81 -110 -137c-27 -26 -77 -67 -117 -99c-70 -58 -95 -83 -117 -106h48l68 2c85 1 136 2 158 57
c5 11 11 11 28 11c14 0 28 0 28 -15zM472 614c0 -43 -42 -87 -89 -87c-38 0 -62 28 -62 60c0 44 43 87 89 87c41 0 62 -32 62 -60z" />
    <glyph glyph-name="Zcaron" unicode="&#x17d;" horiz-adv-x="709" 
d="M688 251l-73 -230c-7 -21 -13 -21 -34 -21h-459c-17 0 -28 0 -28 14c0 18 9 28 16 36l514 589h-111c-125 0 -194 -53 -233 -169c-8 -23 -9 -25 -31 -25c-10 0 -28 0 -28 18c0 0 4 16 5 18l55 185c6 20 14 20 34 20h444c15 0 27 0 27 -14c0 -12 -5 -24 -13 -33l-514 -588
h118c179 0 221 104 255 208c8 23 9 25 31 25c10 0 28 0 28 -18c0 -3 -2 -12 -3 -15zM749 880l-197 -139l-152 139l20 25l151 -56l169 56z" />
    <glyph glyph-name="zcaron" unicode="&#x17e;" horiz-adv-x="491" 
d="M526 151c0 -34 -69 -159 -181 -159c-36 0 -57 16 -85 38c-20 15 -38 30 -63 30c-31 0 -59 -30 -78 -58c-6 -9 -7 -10 -27 -10c-16 0 -28 0 -28 14c0 19 63 90 110 137c27 26 77 67 117 99c70 58 95 83 117 106h-21c-15 0 -54 -2 -69 -2h-71c-33 -2 -41 -7 -46 -16
c-6 -12 -8 -12 -28 -12c-13 0 -28 0 -28 14c0 30 55 120 142 120c27 0 49 -10 79 -33c21 -17 42 -35 67 -35c15 0 39 39 51 57c7 10 8 11 28 11c16 0 28 0 28 -14c0 -16 -53 -81 -110 -137c-27 -26 -77 -67 -117 -99c-70 -58 -95 -83 -117 -106h48l68 2c85 1 136 2 158 57
c5 11 11 11 28 11c14 0 28 0 28 -15zM593 682l-207 -185l-146 185l23 22l141 -99l174 99z" />
    <glyph glyph-name="longs" unicode="&#x17f;" horiz-adv-x="400" 
d="M538 623c0 -45 -36 -75 -71 -75c-30 0 -57 19 -50 46c7 28 18 52 40 64c-14 7 -32 8 -32 8c-14 0 -31 -12 -34 -25l-107 -568l-27 -106c-47 -148 -130 -169 -167 -169c-59 0 -109 30 -109 79c0 44 35 75 71 75c30 0 57 -19 50 -46c-4 -16 -5 -47 -41 -64
c14 -8 30 -8 30 -8c30 0 43 53 47 68l28 114l70 381h-86c-15 0 -36 0 -32 18c7 29 18 29 35 29h86l24 98c13 51 38 160 162 160c66 0 113 -32 113 -79z" />
    <glyph glyph-name="Ereversed" unicode="&#x18e;" horiz-adv-x="757" 
d="M700 18c-9 -18 -26 -18 -41 -18h-532c-21 0 -26 0 -24 17l16 222c0 5 0 11 3 17c9 18 27 18 37 18c22 0 22 -1 21 -27c-9 -123 -4 -200 159 -200h100c9 0 16 0 23 1l71 281h-51c-55 0 -74 -10 -89 -40c-4 -7 -11 -27 -16 -45c-1 -7 -4 -14 -4 -14c-9 -18 -27 -18 -37 -18
c-17 0 -24 0 -18 24l57 226c2 7 2 10 4 13c9 18 27 18 37 18c22 0 23 -3 19 -22c-17 -70 -12 -95 67 -95h42l65 255c-13 2 -54 2 -81 2c-122 0 -187 0 -240 -106c-10 -19 -11 -22 -21 -48c-1 -4 -6 -17 -8 -21c-9 -19 -27 -19 -37 -19c-26 0 -24 7 -16 26l76 198
c10 17 26 17 40 17h516c17 0 34 0 20 -29c-9 -18 -26 -18 -40 -18h-22c-10 0 -44 -2 -50 -2l-142 -566c-3 -14 -3 -15 15 -16c11 -1 27 -2 39 -2h22c17 0 35 0 20 -29z" />
    <glyph glyph-name="florin" unicode="&#x192;" horiz-adv-x="400" 
d="M538 623c0 -45 -36 -75 -71 -75c-30 0 -50 19 -50 46c0 28 18 52 40 64c-14 7 -28 8 -32 8c-14 0 -29 -12 -34 -25c-7 -14 -31 -150 -39 -197h104c14 0 32 0 32 -18c0 -29 -18 -29 -35 -29h-110l-60 -324c-8 -44 -13 -63 -26 -106c-47 -148 -130 -169 -167 -169
c-59 0 -109 30 -109 79c0 44 35 75 71 75c30 0 50 -19 50 -46c0 -16 -8 -47 -41 -64c14 -8 30 -8 30 -8c33 0 47 53 50 68c13 50 15 61 25 114l70 381h-86c-15 0 -32 0 -32 18c0 29 18 29 35 29h92l18 98c9 51 38 160 162 160c66 0 113 -32 113 -79z" />
    <glyph glyph-name="Ohorn" unicode="&#x1a0;" horiz-adv-x="855" 
d="M848 339c-24 -96 -74 -193 -157 -263c-80 -67 -178 -98 -270 -98s-175 31 -221 98c-29 43 -41 94 -41 150c0 36 5 75 15 113c24 98 75 196 159 268c79 69 178 101 270 101c70 0 134 -18 181 -57c21 4 43 17 59 35c-33 1 -53 24 -53 53c0 40 35 80 81 80
c34 0 54 -27 54 -60c0 -8 -1 -16 -3 -24c-14 -54 -55 -102 -103 -121c1 -2 3 -4 4 -7c29 -42 41 -94 41 -150c0 -38 -6 -78 -16 -118zM708 357c13 50 24 101 24 149c0 28 -4 54 -13 79c-19 51 -66 83 -126 83s-123 -32 -167 -83c-59 -68 -83 -149 -103 -228
c-14 -57 -27 -115 -27 -169c0 -27 3 -53 11 -78c17 -54 63 -90 124 -90c62 0 126 36 170 90c60 74 86 161 107 247z" />
    <glyph glyph-name="ohorn" unicode="&#x1a1;" 
d="M684 494c-14 -56 -58 -106 -109 -123c13 -25 19 -54 19 -85c0 -22 -3 -44 -9 -67c-16 -65 -52 -125 -105 -167c-53 -43 -119 -63 -185 -63s-123 21 -157 65c-22 29 -32 65 -32 104c0 22 3 45 9 68c16 64 52 124 105 167c53 42 120 62 185 62c55 0 105 -14 140 -46
c22 4 43 17 60 35c-33 2 -53 25 -53 54c0 39 35 79 81 80c34 -1 54 -28 54 -61c0 -7 -1 -15 -3 -23zM467 226c12 48 18 76 18 105c0 15 -2 29 -6 41c-11 29 -40 47 -76 47c-38 0 -79 -19 -107 -52c-32 -36 -45 -77 -63 -148c-12 -49 -18 -77 -18 -106c0 -15 2 -28 7 -40
c10 -30 39 -48 75 -48c38 0 79 19 107 52c32 37 45 77 63 149z" />
    <glyph glyph-name="Uhorn" unicode="&#x1af;" horiz-adv-x="881" 
d="M1016 732c-18 -70 -84 -126 -156 -137l-92 -371c-18 -69 -56 -134 -113 -179s-128 -67 -198 -67c-80 0 -151 20 -196 69c-29 32 -44 76 -44 123c0 20 3 42 8 63l101 403c-14 2 -43 3 -84 3h-5c-8 2 -13 9 -13 18v4l3 11c2 8 9 14 17 14h5l157 -3l156 3l3 -1
c8 -2 14 -9 14 -17l-1 -4l-3 -12c-2 -7 -9 -13 -17 -13c-44 0 -74 -1 -88 -3c-4 0 -7 -2 -7 -2l-103 -410c-10 -40 -15 -69 -15 -96c0 -21 3 -38 11 -53c17 -32 55 -50 104 -50c57 0 114 18 158 55c45 38 75 92 90 153l99 395c-2 1 -5 3 -9 4c-19 6 -39 7 -73 7h-1h-4
c-8 2 -14 9 -14 18l1 4l3 11c2 8 9 14 17 14h5l119 -3c4 0 9 1 13 3v-1c8 -2 14 -9 14 -17v-4l-5 -19c25 8 48 22 66 41c-34 1 -54 24 -54 53c0 40 34 80 81 80c34 0 53 -28 53 -61c0 -9 -1 -18 -3 -26z" />
    <glyph glyph-name="uhorn" unicode="&#x1b0;" horiz-adv-x="620" 
d="M652 144c-22 -86 -58 -155 -122 -155c-46 0 -85 20 -104 52c-34 -33 -72 -52 -116 -52c-55 0 -102 14 -128 50c-15 21 -22 47 -22 76c0 21 4 44 10 68c9 38 26 84 53 155c10 26 16 49 16 64c0 13 -3 17 -12 17c-43 0 -77 -52 -95 -126c-2 -6 -7 -11 -14 -11h-27l-4 1
c-6 1 -10 7 -10 13v4c21 83 81 155 152 155c59 0 105 -37 105 -90c0 -12 -2 -24 -7 -37c-27 -70 -43 -115 -53 -152c-8 -33 -13 -59 -13 -82c0 -14 2 -26 5 -37c6 -19 23 -32 46 -32c41 0 74 24 101 67c1 7 2 15 4 22l70 281c8 31 35 49 62 49c22 0 42 -13 44 -36
c24 8 45 20 62 36c-32 3 -51 25 -51 54c0 39 34 79 80 80c34 -1 53 -29 53 -62c0 -8 -1 -17 -3 -26c-17 -66 -80 -116 -150 -133l-63 -249c-5 -20 -8 -39 -8 -53c0 -22 6 -30 19 -30c28 0 44 41 65 126c2 6 7 11 14 11h28h3c6 -2 11 -8 11 -14z" />
    <glyph glyph-name="Acaron" unicode="&#x1cd;" horiz-adv-x="866" 
d="M805 29c0 -29 -18 -29 -28 -29c-45 0 -92 3 -137 3c-49 0 -99 -3 -147 -3c-22 0 -22 18 -22 18c0 29 17 29 39 29c20 0 46 1 65 5l-15 140h-232l-81 -135c24 -9 60 -10 60 -10c8 0 26 0 26 -18c0 -29 -20 -29 -28 -29c-37 0 -77 3 -115 3c-32 0 -67 -3 -98 -3
c-19 0 -19 18 -19 18c0 29 17 29 31 29c72 1 83 19 94 37l365 602c15 25 25 25 47 25c30 0 33 -3 36 -29l66 -616c2 -15 3 -16 15 -18c8 -1 24 -1 33 -1h13c15 0 32 0 32 -18zM555 239l-30 278l-168 -278h198zM828 880l-197 -139l-152 139l20 25l151 -56l169 56z" />
    <glyph glyph-name="acaron" unicode="&#x1ce;" 
d="M615 148c0 -4 -13 -60 -39 -102c-13 -20 -38 -54 -85 -54c-39 0 -84 16 -103 51c-24 -19 -71 -51 -132 -51c-76 0 -160 41 -160 160c0 134 100 300 268 300c26 0 65 -5 97 -38c13 13 30 21 47 21c28 0 45 -19 45 -42c0 -4 0 -6 -4 -21l-67 -270c-4 -16 -6 -24 -6 -43
c0 -23 7 -31 19 -31c34 0 52 75 60 108c7 25 8 26 32 26c15 0 28 0 28 -14zM376 100c1 8 1 11 3 18l59 236c-11 40 -39 62 -74 62c-26 0 -81 -15 -115 -112c-11 -28 -46 -151 -46 -205c0 -57 34 -71 57 -71c31 0 73 15 116 72zM643 682l-207 -185l-146 185l23 22l141 -99
l174 99z" />
    <glyph glyph-name="Icaron" unicode="&#x1cf;" horiz-adv-x="472" 
d="M585 668c0 -29 -18 -29 -35 -29h-25c-12 0 -29 -1 -41 -2c-20 -1 -21 -2 -25 -17l-142 -571l51 -2h25c15 0 32 0 32 -18c0 -29 -19 -29 -30 -29c-52 0 -106 3 -159 3c-51 0 -104 -3 -155 -3c-12 0 -22 5 -22 18c0 29 17 29 35 29h24c11 0 30 0 41 1c20 2 21 3 25 17
l142 572c-11 0 -46 2 -51 2h-24c-15 0 -32 0 -32 18c0 29 18 29 29 29c52 0 106 -3 159 -3c52 0 105 3 156 3c21 0 22 -15 22 -18zM631 880l-197 -139l-152 139l20 25l151 -56l169 56z" />
    <glyph glyph-name="icaron" unicode="&#x1d0;" horiz-adv-x="356" 
d="M390 148c0 -21 -49 -156 -153 -156c-54 0 -105 33 -105 89c0 15 3 23 9 39l90 238c1 2 8 27 8 40c0 18 -9 18 -14 18c-57 0 -84 -95 -92 -121c-4 -13 -9 -13 -28 -13c-15 0 -28 0 -28 14c0 21 49 156 153 156c54 0 105 -33 105 -89c0 -15 -3 -23 -9 -39l-90 -238
c-1 -2 -8 -27 -8 -40c0 -18 9 -18 14 -18c57 0 84 95 92 121c4 13 9 13 28 13c15 0 28 0 28 -14zM525 682l-207 -185l-146 185l23 22l141 -99l174 99z" />
    <glyph glyph-name="Ocaron" unicode="&#x1d1;" horiz-adv-x="855" 
d="M865 453c0 -211 -158 -470 -441 -470c-148 0 -264 76 -264 246c0 201 155 474 443 474c138 0 262 -70 262 -250zM733 501c0 56 -18 162 -140 162c-54 0 -140 -26 -205 -133c-54 -90 -91 -265 -91 -337c0 -29 3 -82 33 -121c18 -22 52 -47 104 -47c58 0 131 29 195 123
c63 92 104 283 104 353zM822 880l-197 -139l-152 139l20 25l151 -56l169 56z" />
    <glyph glyph-name="ocaron" unicode="&#x1d2;" 
d="M595 284c0 -126 -101 -292 -298 -292c-119 0 -190 65 -190 168c0 125 100 292 298 292c119 0 190 -65 190 -168zM435 124c25 53 51 165 51 204c0 71 -48 88 -83 88c-51 0 -107 -33 -136 -96c-25 -53 -51 -165 -51 -204c0 -71 48 -88 83 -88c51 0 107 33 136 96zM643 682
l-207 -185l-146 185l23 22l141 -99l174 99z" />
    <glyph glyph-name="Ucaron" unicode="&#x1d3;" horiz-adv-x="881" 
d="M988 668c0 -29 -17 -29 -31 -29c-8 0 -34 0 -57 -5c-29 -6 -30 -9 -34 -24l-97 -390c-25 -101 -123 -237 -311 -237c-146 0 -240 69 -240 190c0 26 5 51 7 58l102 406c-12 1 -38 2 -49 2h-22c-15 0 -32 0 -32 18c0 29 19 29 29 29c50 0 103 -3 154 -3c50 0 101 3 150 3
c11 0 22 -5 22 -18c0 -29 -17 -29 -34 -29l-62 -1c-19 -2 -20 -3 -24 -18l-101 -405c-7 -30 -12 -48 -12 -82c0 -25 4 -56 32 -79c22 -17 55 -24 85 -24c110 0 212 63 247 203l99 396c-25 10 -61 10 -70 10c-14 0 -31 0 -31 18c0 29 20 29 27 29c39 0 80 -3 119 -3
c38 0 77 3 114 3c11 0 20 -7 20 -18zM862 880l-197 -139l-152 139l20 25l151 -56l169 56z" />
    <glyph glyph-name="ucaron" unicode="&#x1d4;" horiz-adv-x="621" 
d="M655 148c0 -4 -13 -60 -39 -102c-13 -20 -38 -54 -85 -54c-39 0 -84 16 -103 51c-49 -46 -91 -51 -119 -51c-83 0 -148 35 -148 126c0 56 28 128 60 214c6 14 18 45 18 66c0 18 -9 18 -14 18c-57 0 -84 -95 -92 -121c-4 -13 -9 -13 -28 -13c-15 0 -28 0 -28 14
c0 21 49 156 153 156c54 0 105 -33 105 -89c0 -17 -5 -29 -14 -54c-24 -63 -58 -152 -58 -212c0 -22 2 -69 52 -69c30 0 55 16 69 29c28 28 29 32 33 50l69 281c12 50 51 56 64 56c21 0 45 -12 45 -43c0 -5 0 -7 -4 -22l-69 -277c-4 -16 -6 -24 -6 -43c0 -23 7 -31 19 -31
c34 0 52 75 60 108c7 25 8 26 32 26c15 0 28 0 28 -14zM658 682l-207 -185l-146 185l23 22l141 -99l174 99z" />
    <glyph glyph-name="Udieresisacute" unicode="&#x1d7;" horiz-adv-x="881" 
d="M988 668c0 -29 -17 -29 -31 -29c-8 0 -34 0 -57 -5c-29 -6 -30 -9 -34 -24l-97 -390c-25 -101 -123 -237 -311 -237c-146 0 -240 69 -240 190c0 26 5 51 7 58l102 406c-12 1 -38 2 -49 2h-22c-15 0 -32 0 -32 18c0 29 19 29 29 29c50 0 103 -3 154 -3c50 0 101 3 150 3
c11 0 22 -5 22 -18c0 -29 -17 -29 -34 -29l-62 -1c-19 -2 -20 -3 -24 -18l-101 -405c-7 -30 -12 -48 -12 -82c0 -25 4 -56 32 -79c22 -17 55 -24 85 -24c110 0 212 63 247 203l99 396c-25 10 -61 10 -70 10c-14 0 -31 0 -31 18c0 29 20 29 27 29c39 0 80 -3 119 -3
c38 0 77 3 114 3c11 0 20 -7 20 -18zM591 819c0 -39 -38 -78 -80 -78c-35 0 -55 25 -56 54c0 39 39 78 80 78c37 0 56 -29 56 -54zM882 819c0 -39 -38 -78 -80 -78c-35 0 -55 25 -56 54c0 39 39 78 80 78c37 0 56 -29 56 -54zM889 1061c-6 -30 -33 -41 -48 -46l-166 -61
c-6 -2 -11 -3 -17 -3c-16 2 -23 31 -22 37c1 7 9 13 15 17l140 91c20 13 33 22 51 22c32 0 52 -25 47 -57z" />
    <glyph glyph-name="udieresisacute" unicode="&#x1d8;" horiz-adv-x="621" 
d="M655 148c0 -4 -13 -60 -39 -102c-13 -20 -38 -54 -85 -54c-39 0 -84 16 -103 51c-49 -46 -91 -51 -119 -51c-83 0 -148 35 -148 126c0 56 28 128 60 214c6 14 18 45 18 66c0 18 -9 18 -14 18c-57 0 -84 -95 -92 -121c-4 -13 -9 -13 -28 -13c-15 0 -28 0 -28 14
c0 21 49 156 153 156c54 0 105 -33 105 -89c0 -17 -5 -29 -14 -54c-24 -63 -58 -152 -58 -212c0 -22 2 -69 52 -69c30 0 55 16 69 29c28 28 29 32 33 50l69 281c12 50 51 56 64 56c21 0 45 -12 45 -43c0 -5 0 -7 -4 -22l-69 -277c-4 -16 -6 -24 -6 -43c0 -23 7 -31 19 -31
c34 0 52 75 60 108c7 25 8 26 32 26c15 0 28 0 28 -14zM406 613c0 -39 -37 -78 -79 -78c-35 0 -56 25 -57 54c0 39 40 78 81 78c37 0 55 -29 55 -54zM651 613c0 -39 -37 -78 -79 -78c-35 0 -56 25 -57 54c0 39 40 78 81 78c37 0 55 -29 55 -54zM678 842
c-6 -30 -33 -41 -48 -46l-166 -61c-6 -2 -11 -3 -17 -3c-16 2 -23 31 -22 37c1 7 9 13 15 17l140 91c20 13 33 22 51 22c32 0 52 -25 47 -57z" />
    <glyph glyph-name="Udieresiscaron" unicode="&#x1d9;" horiz-adv-x="881" 
d="M988 668c0 -29 -17 -29 -31 -29c-8 0 -34 0 -57 -5c-29 -6 -30 -9 -34 -24l-97 -390c-25 -101 -123 -237 -311 -237c-146 0 -240 69 -240 190c0 26 5 51 7 58l102 406c-12 1 -38 2 -49 2h-22c-15 0 -32 0 -32 18c0 29 19 29 29 29c50 0 103 -3 154 -3c50 0 101 3 150 3
c11 0 22 -5 22 -18c0 -29 -17 -29 -34 -29l-62 -1c-19 -2 -20 -3 -24 -18l-101 -405c-7 -30 -12 -48 -12 -82c0 -25 4 -56 32 -79c22 -17 55 -24 85 -24c110 0 212 63 247 203l99 396c-25 10 -61 10 -70 10c-14 0 -31 0 -31 18c0 29 20 29 27 29c39 0 80 -3 119 -3
c38 0 77 3 114 3c11 0 20 -7 20 -18zM591 819c0 -39 -38 -78 -80 -78c-35 0 -55 25 -56 54c0 39 39 78 80 78c37 0 56 -29 56 -54zM882 819c0 -39 -38 -78 -80 -78c-35 0 -55 25 -56 54c0 39 39 78 80 78c37 0 56 -29 56 -54zM912 1080l-197 -139l-152 139l20 25l151 -56
l169 56z" />
    </font>
</defs>
</svg>
