<?xml version="1.0" standalone="no"?>
<!DOCTYPE svg PUBLIC "-//W3C//DTD SVG 1.1//EN" "http://www.w3.org/Graphics/SVG/1.1/DTD/svg11.dtd" >
<svg version="1.1" xmlns="http://www.w3.org/2000/svg">
<metadata>
Created by FontForge 20120731 at Fri Aug  1 16:50:16 2014
 By Alfred Xing
Copyright (c) 2011-2012, Carolina Giovagnoli (huertatipografica.com.ar), with Reserved Font Name 'Andada'
</metadata>
<defs>
<font id="andada" horiz-adv-x="349" >
  <font-face 
    font-family="Andada"
    font-weight="400"
    font-style="italic"
    font-stretch="normal"
    units-per-em="1000"
    panose-1="2 0 0 0 0 0 0 0 0 0"
    ascent="800"
    descent="-200"
    x-height="504"
    cap-height="710"
    bbox="-265 -277 1060 997"
    underline-thickness="50"
    underline-position="-50"
    slope="-8.3"
    unicode-range="U+0020-FB02"
  />
<missing-glyph horiz-adv-x="224" 
 />
    <glyph glyph-name="Idieresis" unicode="&#xa8;I" horiz-adv-x="354" 
d="M366 884q44 0 44 -48q0 -32 -15.5 -51.5t-45.5 -19.5q-45 0 -45 47q0 32 16 52t46 20zM195 884q45 0 45 -48q0 -32 -16.5 -51.5t-45.5 -19.5q-45 0 -45 47q0 32 16 52t46 20zM368 710l-5 -59l-76 -7q-14 -48 -22 -106l-54 -371q-9 -63 -9 -106l85 -7l-15 -59
q-64 5 -143 5l-114 -5l2 50l79 16q1 4 6 21q11 42 13 55l63 431q3 17 3 76l-73 12l13 54q91 -5 111 -5z" />
    <glyph glyph-name="Odieresis" unicode="&#xa8;O" horiz-adv-x="719" 
d="M701 420q0 -191 -99.5 -313t-277.5 -122q-133 0 -204 81t-71 218q0 192 99.5 314t277.5 122q133 0 204 -81.5t71 -218.5zM185.5 470q-29.5 -86 -29.5 -191t44 -173t127.5 -68t145 55t91.5 141t30 191.5t-43.5 173.5t-128 68t-146 -55.5t-91 -141.5zM545 884q45 0 45 -48
q0 -32 -16 -51.5t-46 -19.5q-45 0 -45 47q0 32 16 52t46 20zM316 884q46 0 46 -48q0 -32 -16.5 -51.5t-46.5 -19.5q-45 0 -45 47q0 32 16 52t46 20z" />
    <glyph glyph-name="Yacute" unicode="&#xb4;Y" horiz-adv-x="645" 
d="M689 661l-68 -17q-43 -47 -76 -99l-176 -271l-15 -107q-9 -63 -9 -106l85 -7l-15 -59q-64 5 -143 5l-114 -5l2 50l79 16q1 4 5 21q12 42 14 55l18 121l-108 298q-11 34 -34 73l-7 12l-63 10l13 54h105l146 5l-3 -49l-79 -20q4 -49 25 -108l71 -189l145 234l35 63l-70 10
l12 54h88l140 5zM518 898l29 -73q-128 -32 -147 -38l-85 -37l-20 48z" />
    <glyph glyph-name="idieresis" unicode="&#xa8;i" horiz-adv-x="296" 
d="M317 713q44 0 44 -48q0 -32 -15.5 -51.5t-45.5 -19.5q-45 0 -45 47q0 32 16 52t46 20zM146 713q45 0 45 -48q0 -32 -16.5 -51.5t-45.5 -19.5q-45 0 -45 47q0 32 16 52t46 20zM211 503l21 -19q-31 -110 -73 -415l90 -5l-3 -35l-160 -44l-25 15q33 132 46.5 214.5
t24.5 204.5l-83 4l-1 37z" />
    <glyph glyph-name="odieresis" unicode="&#xa8;o" horiz-adv-x="472" 
d="M294 504q70 0 107.5 -45t37.5 -128q0 -138 -78 -240t-184 -102q-70 0 -107.5 45.5t-37.5 128.5q0 137 78 239t184 102zM277 447q-65 0 -106.5 -81.5t-41.5 -200.5t65 -119t106.5 81.5t41.5 200.5t-65 119zM452 713q44 0 44 -48q0 -32 -15.5 -51.5t-45.5 -19.5
q-45 0 -45 47q0 32 16 52t46 20zM223 713q45 0 45 -48q0 -32 -16.5 -51.5t-45.5 -19.5q-45 0 -45 47q0 32 16 52t46 20z" />
    <glyph glyph-name="yacute" unicode="&#xb4;y" horiz-adv-x="528" 
d="M216.5 -223q-43.5 -12 -83.5 -12t-80 6t-56 14l32 78q71 -26 129 -26t95 12.5t50 23.5q10 11 21 71t33 239q-46 -88 -102.5 -141t-116.5 -53q-35 0 -53.5 26t-18.5 65t26 154t32 184l-83 4v39l166 43l22 -20q-70 -270 -70 -365q0 -51 34 -51q44 0 103.5 94.5t97.5 255.5
l-80 4l-6 39l158 43l24 -16q-41 -160 -62 -322q-5 -45 -17 -152q-8 -69 -37.5 -120t-71.5 -78t-85.5 -39zM404 755l45 -60q-103 -60 -117 -71l-71 -60l-32 41z" />
    <glyph glyph-name="Itilde" unicode="&#x7e;I" horiz-adv-x="354" 
d="M368 710l-5 -59l-76 -7q-14 -48 -22 -106l-54 -371q-9 -63 -9 -106l85 -7l-15 -59q-64 5 -143 5l-114 -5l2 50l79 16q1 4 6 21q11 42 13 55l63 431q3 17 3 76l-73 12l13 54q91 -5 111 -5zM324 763q-18 0 -75 20.5t-73 20.5q-27 0 -54 -33l-9 -11l-32 21q12 24 34 48
q39 43 59 43t78 -20.5t74 -20.5q27 0 53 38l9 13l32 -21q-20 -36 -49 -67t-47 -31z" />
    <glyph glyph-name="itilde" unicode="&#x7e;i" horiz-adv-x="296" 
d="M235.5 604q-17.5 0 -53 20.5t-50.5 20.5q-25 0 -52 -41l-9 -13l-32 21q21 38 49 69.5t44.5 31.5t53 -20.5t51 -20.5t29 13t22.5 25l9 13l32 -21q-19 -36 -47.5 -67t-46 -31zM215 503l21 -19q-31 -110 -73 -415l90 -5l-3 -35l-160 -44l-25 15q33 132 46.5 214.5
t24.5 204.5l-83 4l-1 37z" />
    <glyph glyph-name="Utilde" unicode="&#x7e;U" horiz-adv-x="707" 
d="M319 -15q-123 0 -178 75q-41 57 -41 145q0 29 4 61l44 297q3 25 3 81l-74 12l12 54q91 -5 111 -5l143 5l-5 -59l-77 -7q-13 -47 -23 -111l-39 -267q-4 -29 -4 -54q0 -62 24 -104q34 -59 116 -59t134.5 59.5t66.5 157.5l44 297q2 17 2 81l-74 12l13 54q81 -5 102 -5l129 5
l-4 -59l-77 -7q-12 -35 -24 -111l-39 -267q-18 -131 -92 -206t-197 -75zM510.5 763q-18.5 0 -75.5 20.5t-73 20.5q-26 0 -53 -33l-9 -11l-32 21q12 24 34 48q39 43 59.5 43t77.5 -20.5t73 -20.5q28 0 54 38l9 13l32 -21q-20 -36 -49 -67t-47.5 -31z" />
    <glyph glyph-name="utilde" unicode="&#x7e;u" horiz-adv-x="560" 
d="M138 -11q-35 0 -53.5 26t-18.5 65t26 154t32 184l-83 4v39l166 43l22 -20q-68 -257 -70 -365q0 -51 34 -51q40 0 99.5 88.5t103.5 270.5l9 61l73 16l24 -16q-37 -143 -53 -226.5t-26 -192.5l89 -4l-3 -36l-164 -44l-26 15q19 67 40 185q-46 -89 -103.5 -142.5
t-117.5 -53.5zM394 604q-18 0 -70 20.5t-68 20.5t-31 -13.5t-24 -27.5l-9 -13l-32 21q21 38 49.5 69.5t47 31.5t71 -20.5t68.5 -20.5q25 0 53 38l9 13l32 -21q-20 -36 -49 -67t-47 -31z" />
    <glyph glyph-name="Etilde" unicode="&#x7e;E" horiz-adv-x="572" 
d="M226 705h219l112 10l16 -18l-13 -136l-57 -5q0 32 -1.5 48.5t-15.5 39.5q-52 5 -78 5h-126q-17 -70 -23 -111l-21 -142q32 -2 41 -2h70l59 9l18 66l45 -5q-10 -64 -13 -84l-13 -109l-48 -6l1 67q-57 6 -76 6h-51q-17 0 -42 -3l-24 -168q-9 -60 -9 -110h138q36 0 86 9
q22 28 25 37q19 46 25 67l53 -5l-37 -151l-21 -18q-90 4 -110 4h-232l-114 -5l2 50l79 16q15 50 20 76l63 431q2 17 2 76l-73 12l13 54q91 -5 111 -5zM442.5 763q-18.5 0 -75.5 20.5t-73 20.5q-26 0 -53 -33l-9 -11l-32 21q12 24 34 48q39 43 59 43t77.5 -20.5t73.5 -20.5
q28 0 54 38l9 13l32 -21q-20 -36 -49 -67t-47.5 -31z" />
    <glyph glyph-name="etilde" unicode="&#x7e;e" horiz-adv-x="402" 
d="M244 503q147 0 147 -80q0 -76 -70.5 -132.5t-196.5 -81.5q-4 -28 -4 -60q0 -97 60 -97q79 0 154 102l33 -25q-42 -67 -99.5 -103.5t-118.5 -36.5q-122 0 -120 150q0 75 35 161t86 144.5t94 58.5zM362 604q-18 0 -70 20.5t-68 20.5t-31 -13.5t-24 -27.5l-9 -13l-32 21
q21 38 49.5 69.5t47 31.5t71 -20.5t68.5 -20.5q25 0 53 38l9 13l32 -21q-20 -36 -49 -67t-47 -31zM288 431.5q-15 10.5 -45.5 10.5t-61 -56t-48.5 -131q76 17 123 55.5t47 86.5q0 24 -15 34.5z" />
    <glyph glyph-name="Ytilde" unicode="&#x7e;Y" horiz-adv-x="645" 
d="M689 661l-68 -17q-43 -47 -76 -99l-176 -271l-15 -107q-9 -63 -9 -106l85 -7l-15 -59q-64 5 -143 5l-114 -5l2 50l79 16q1 4 5 21q12 42 14 55l18 121l-108 298q-11 34 -34 73l-7 12l-63 10l13 54h105l146 5l-3 -49l-79 -20q4 -49 25 -108l71 -189l145 234l35 63l-70 10
l12 54h88l140 5zM478.5 763q-18.5 0 -75.5 20.5t-73 20.5q-26 0 -53 -33l-9 -11l-32 21q12 24 34 48q39 43 59.5 43t77.5 -20.5t73 -20.5q28 0 54 38l9 13l32 -21q-20 -36 -49 -67t-47.5 -31z" />
    <glyph glyph-name="ytilde" unicode="&#x7e;y" horiz-adv-x="528" 
d="M216.5 -223q-43.5 -12 -83.5 -12t-80 6t-56 14l32 78q71 -26 129 -26t95 12.5t50 23.5q10 11 21 71t33 239q-46 -88 -102.5 -141t-116.5 -53q-35 0 -53.5 26t-18.5 65t26 154t32 184l-83 4v39l166 43l22 -20q-70 -270 -70 -365q0 -51 34 -51q44 0 103.5 94.5t97.5 255.5
l-80 4l-6 39l158 43l24 -16q-41 -160 -62 -322q-5 -45 -17 -152q-8 -69 -37.5 -120t-71.5 -78t-85.5 -39zM390 604q-18 0 -70 20.5t-68 20.5t-31 -13.5t-24 -27.5l-9 -13l-32 21q21 38 49.5 69.5t47 31.5t71 -20.5t68.5 -20.5q25 0 53 38l9 13l32 -21q-20 -36 -49 -67
t-47 -31z" />
    <glyph glyph-name="fi" unicode="fi" horiz-adv-x="591" 
d="M-139 -235l-27 1h-4l27 71q5 -5 43.5 -5t78.5 13t49 25q25 34 52.5 204.5t43.5 347.5h-88l4 44l12 3q54 14 73 25q9 6 16 49q16 100 96 163.5t185 63.5q34 0 64 -17.5t48 -40.5q15 -13 15 -42.5t-18.5 -54t-46.5 -24.5q-46 0 -46 50q0 28 16 54q-43 9 -71.5 9t-68 -12.5
t-49.5 -26.5q-25 -33 -49 -187h188l100 26l23 -20q-34 -123 -73 -414l89 -5l-3 -36l-164 -44l-25 15q32 129 45.5 212t25.5 206l-82 4h-133q-14 -83 -35 -245.5t-33 -214.5q-23 -92 -100 -144.5t-178 -52.5z" />
    <glyph glyph-name="fl" unicode="fl" horiz-adv-x="582" 
d="M-139 -235l-27 1h-4l27 71q5 -5 43.5 -5t78.5 13t49 25q25 34 52.5 204.5t43.5 347.5h-88l4 44l12 3q54 14 73 25q9 6 16 49q16 100 96 163.5t185 63.5h108l23 -20q-78 -440 -108 -680l89 -5l-3 -36l-162 -44l-26 15q33 122 64 332t43 359l-82 12q-32 -4 -63.5 -15.5
t-39.5 -22.5q-25 -33 -49 -187h121l-14 -56h-116q-14 -83 -35 -245.5t-33 -214.5q-23 -92 -100 -144.5t-178 -52.5z" />
    <glyph glyph-name="fj" unicode="fj" horiz-adv-x="571" 
d="M-139 -235l-27 1h-4l27 71q5 -5 43.5 -5t78.5 13t49 25q25 34 52.5 204.5t43.5 347.5h-88l4 44l12 3q54 14 73 25q9 6 16 49q16 100 96 163.5t185 63.5q37 0 70 -20.5t48 -46.5h-1q8 -13 8 -38t-18.5 -49.5t-46.5 -24.5q-46 0 -46 50q0 31 17 54q-45 9 -72 9t-66.5 -12.5
t-49.5 -26.5q-25 -33 -49 -187h186l100 26l23 -20q-20 -70 -34.5 -161.5t-28.5 -182.5t-24 -155q-6 -38 -154 -220l-31 27q31 53 64.5 123t40.5 99q44 183 62 404l-82 4h-131q-14 -83 -35 -245.5t-33 -214.5q-23 -92 -100 -144.5t-178 -52.5z" />
    <glyph glyph-name="Gtilde" unicode="&#x7e;G" horiz-adv-x="646" 
d="M434 720q77 0 209 -34l-32 -148l-56 6l6 45q1 3 1 12t-5 37q-76 24 -134 24q-127 0 -199.5 -109.5t-72.5 -265.5q0 -108 50.5 -176t141.5 -68q52 0 127 20q19 56 21 65l10 68v71l-101 8l13 58h108l71 3l15 -17q-24 -103 -31 -153l-21 -147q-6 -1 -25 -6t-26.5 -6.5
t-25 -5.5t-27 -5.5t-26 -4t-29.5 -3.5q-37 -3 -59 -3q-137 0 -212.5 81.5t-75.5 217.5q0 192 102 314t283 122zM506 753q-18 0 -75 20.5t-73 20.5q-27 0 -54 -33l-9 -11l-32 21q12 24 34 48q39 43 59 43t77.5 -20.5t73.5 -20.5q28 0 54 38l9 13l32 -21q-20 -36 -49 -67
t-47 -31z" />
    <glyph glyph-name="gtilde" unicode="&#x7e;g" horiz-adv-x="506" 
d="M196.5 -223q-43.5 -12 -83 -12t-79.5 6t-56 14l31 78q73 -26 130.5 -26t95 12.5t48 23t18.5 45t9 57.5t5 51.5t10.5 73t10.5 77.5q-41 -86 -93 -137t-103 -51q-101 0 -101 146q0 76 34.5 163t87 146.5t99.5 59.5q19 0 72 -7l52 -7l60 14l24 -16q-30 -113 -43 -198
q-24 -168 -33 -276q-8 -69 -37.5 -120t-72 -78t-86 -39zM246 446q-36 0 -76.5 -102.5t-40.5 -193.5q0 -42 12.5 -68.5t32.5 -26.5q29 0 69.5 56t74 141t42.5 159q-74 35 -114 35zM383.5 604q-18.5 0 -70 20.5t-67.5 20.5t-31 -13.5t-24 -27.5l-9 -13l-32 21q21 38 49.5 69.5
t47 31.5t71 -20.5t68.5 -20.5q25 0 53 38l9 13l32 -21q-20 -36 -49 -67t-47.5 -31z" />
    <glyph glyph-name=".notdef" horiz-adv-x="224" 
 />
    <glyph glyph-name=".null" horiz-adv-x="0" 
 />
    <glyph glyph-name="nonmarkingreturn" horiz-adv-x="333" 
 />
    <glyph glyph-name="space" unicode=" " horiz-adv-x="224" 
 />
    <glyph glyph-name="exclam" unicode="!" horiz-adv-x="228" 
d="M130 215l-65 12q34 170 45.5 262.5t26.5 223.5l81 15l22 -15q-32 -121 -45 -175q-36 -150 -54 -313zM86 119q46 0 46 -50q0 -30 -18 -54.5t-45 -24.5q-45 0 -45 49q0 30 17.5 55t44.5 25z" />
    <glyph glyph-name="quotedbl" unicode="&#x22;" horiz-adv-x="319" 
d="M118 756h89l-49 -243l-56 3l13 94zM258 756h89l-49 -243l-56 3l13 94z" />
    <glyph glyph-name="numbersign" unicode="#" horiz-adv-x="570" 
d="M394 219l133 2l-9 -71h-144l-49 -165l-57 10l46 155h-112l-49 -165l-57 10l46 155h-119l9 66l130 1l36 121l-128 -1l10 71h138l49 164l57 -10l-46 -154h112l49 164l57 -10l-46 -154h125l-11 -66l-134 -2zM258 339l-36 -121l112 1l36 121z" />
    <glyph glyph-name="dollar" unicode="$" horiz-adv-x="505" 
d="M115 129v-14t1 -44q47 -19 89 -23l46 244l-26 14q-58 30 -93.5 68.5t-35.5 97.5q0 87 63 138t158 51h2l19 98l32 -3l-18 -97q56 -5 139 -28l-36 -144l-51 6l8 47q0 4 -6 49q-37 16 -64 18l-42 -228l26 -15q101 -62 122 -115q10 -27 10 -59q0 -91 -65.5 -144t-163.5 -56
l-15 -82l-34 3l15 80q-47 3 -89 15t-60 22l-18 11l37 150l59 -6zM327 84.5q33 32.5 33 88.5t-79 102l-41 -227q54 4 87 36.5zM190 499q0 -32 20.5 -55t59.5 -47l40 212h-3q-49 0 -83 -29.5t-34 -80.5z" />
    <glyph glyph-name="percent" unicode="%" horiz-adv-x="785" 
d="M210 -49l-45 32l434 736l45 -29zM720 196q0 -85 -49 -146t-128 -61q-61 0 -94.5 37.5t-33.5 100.5q0 85 49 147t128 62q61 0 94.5 -38t33.5 -102zM584 283q-45 0 -70 -49t-25 -107q0 -85 62 -85q47 0 71 48.5t24 107.5q0 85 -62 85zM384 526q0 -85 -49 -146t-128 -61
q-61 0 -94.5 37.5t-33.5 100.5q0 85 49 147t128 62q61 0 94.5 -38t33.5 -102zM248 613q-45 0 -70 -49t-25 -107q0 -85 62 -85q47 0 71 48.5t24 107.5q0 85 -62 85z" />
    <glyph glyph-name="ampersand" unicode="&#x26;" horiz-adv-x="586" 
d="M155 -11q-130 0 -130 162q0 73 39.5 156.5t98.5 139.5t111 56q130 0 130 -87q0 -45 -62 -91q82 36 154 80q1 10 1 28q0 100 -41 191l92 28q21 -87 21 -131t-3 -71q82 56 142 114l55 -53l-6 -30q-91 -40 -202 -98q-36 -166 -149.5 -280t-250.5 -114zM200 62q87 0 171 86
t114 198q-107 -55 -191.5 -89.5t-180.5 -52.5q-2 -26 -2 -39q0 -57 20 -80t69 -23zM250 444q-33 0 -70 -56t-56 -131q200 50 200 139q0 27 -16 37.5t-58 10.5z" />
    <glyph glyph-name="quotesingle" unicode="'" horiz-adv-x="179" 
d="M118 756h89l-49 -243l-56 3l13 94z" />
    <glyph glyph-name="parenleft" unicode="(" horiz-adv-x="275" 
d="M160 386.5q-21 -94.5 -21 -165.5t3 -115q7 -79 15 -98q2 -8 45 -90l15 -27l-37 -26q-122 142 -122 348q-1 159 62 302.5t188 253.5l27 -26q-8 -8 -21.5 -23t-47 -68t-59.5 -112t-47 -153.5z" />
    <glyph glyph-name="parenright" unicode=")" horiz-adv-x="275" 
d="M174 452q0 108 -18 174l-60 117l37 26q122 -144 122 -348q1 -159 -62 -302.5t-188 -253.5l-27 26q27 27 64.5 85.5t63.5 117.5t47 153.5t21 193.5v11z" />
    <glyph glyph-name="asterisk" unicode="*" horiz-adv-x="422" 
d="M105 650l15 30l105 -53l28 118l32 2l5 -116l117 37l21 -26l-100 -66l90 -82l-16 -31l-104 54l-28 -119l-33 -2l-5 119l-117 -37l-21 27l100 64z" />
    <glyph glyph-name="plus" unicode="+" horiz-adv-x="560" 
d="M332 221l-27 -221h-75l29 220l-210 -2l10 75h210l30 218h70l-28 -218h203l-10 -70z" />
    <glyph glyph-name="comma" unicode="," horiz-adv-x="204" 
d="M72 129q59 0 57 -75q0 -65 -40 -120.5t-104 -69.5l-9 32q74 29 79 94q-24 0 -37 14.5t-12.5 43t19 55t47.5 26.5z" />
    <glyph glyph-name="hyphen" unicode="-" horiz-adv-x="282" 
d="M31 218l9 71h222l-16 -71h-215z" />
    <glyph glyph-name="period" unicode="." horiz-adv-x="197" 
d="M82 129q51 0 51 -55q0 -32 -19 -58t-48 -26q-50 0 -50 54q0 32 18.5 58.5t47.5 26.5z" />
    <glyph glyph-name="slash" unicode="/" horiz-adv-x="376" 
d="M38 -67l-60 20l425 820l60 -20z" />
    <glyph glyph-name="zero" unicode="0" horiz-adv-x="562" 
d="M54 246q0 185 79.5 300.5t207.5 115.5q90 0 140 -67.5t50 -188.5q0 -185 -79.5 -300.5t-207.5 -115.5q-91 0 -140.5 67t-49.5 189zM435 420q0 87 -27 134.5t-76 47.5q-80 0 -131 -103.5t-51 -267.5q0 -86 27 -133.5t75 -47.5q80 0 131.5 104t51.5 266z" />
    <glyph glyph-name="one" unicode="1" horiz-adv-x="379" 
d="M302 54l-16 -59q-51 5 -130 5l-122 -5l2 50l89 16q1 4 5 21q12 42 14 55l57 387l-119 -59l-20 42q127 92 140 102q15 11 52 51l11 12l46 -12q-34 -184 -41 -234l-38 -259q-3 -20 -9 -106z" />
    <glyph glyph-name="two" unicode="2" horiz-adv-x="501" 
d="M110 626q93 36 180.5 36t133.5 -36.5t46 -101.5t-26 -115t-99.5 -122.5t-241.5 -213.5h179q13 0 83 8l19 35l12 47l53 -4l-29 -142l-22 -20q-93 3 -116 3h-270l-3 73q233 212 298.5 289t65.5 142q0 46 -26 74t-73 28t-97 -28q-13 -29 -17 -51l-4 -45l-55 -3z" />
    <glyph glyph-name="three" unicode="3" horiz-adv-x="457" 
d="M85 633q86 29 164 29t122.5 -35.5t44.5 -100.5t-37 -114.5t-104 -76.5q58 -17 89 -55t31 -91q0 -109 -117.5 -191.5t-298.5 -102.5l-11 53q145 23 238 88.5t93 146.5q0 48 -31 77t-84 29l-67 -3l-7 48q107 14 158.5 57t51.5 119q0 98 -88 98q-43 0 -79 -22
q-15 -39 -17 -50l-5 -45l-55 -3z" />
    <glyph glyph-name="four" unicode="4" horiz-adv-x="515" 
d="M426 739l60 -51q-1 -1 -24.5 -23.5t-49.5 -47.5q-71 -68 -82 -83l-222 -280l192 3l20 142l83 27l-24 -164l90 6l-10 -67h-89l-5 -34q-9 -63 -9 -106l79 -7l-15 -59q-49 5 -128 5l-134 -5l2 50l102 16q19 66 20 76l10 64h-250l-36 53z" />
    <glyph glyph-name="five" unicode="5" horiz-adv-x="449" 
d="M242 572h-63l-43 -217q47 9 80 9q90 0 140.5 -41t50.5 -118q0 -131 -111 -211t-289 -99l-11 53q315 56 315 240q0 53 -32 81t-81.5 28t-104.5 -13l-34 21l65 329l21 18h67l237 10l-4 -67q-174 -23 -203 -23z" />
    <glyph glyph-name="six" unicode="6" horiz-adv-x="508" 
d="M303 403q80 0 128 -48t48 -127q0 -102 -72 -170.5t-168.5 -68.5t-148 58t-51.5 146.5t32.5 174.5t92 163t155 135.5t210.5 80.5l5 -53q-87 -22 -157.5 -65t-115 -94t-74.5 -111q-54 -107 -54 -219q0 -66 28 -112.5t85.5 -46.5t97 53t39.5 112.5t-26.5 96t-71.5 36.5
q-29 0 -62 -5l2 48q42 16 78 16z" />
    <glyph glyph-name="seven" unicode="7" horiz-adv-x="491" 
d="M262 652h261l10 -39l-384 -718l-74 25l281 502q10 16 66 157h-162q-22 0 -82 -6q-16 -25 -19 -34l-12 -50l-54 4l30 148l22 20q94 -9 117 -9z" />
    <glyph glyph-name="eight" unicode="8" horiz-adv-x="505" 
d="M189 347q-91 62 -91 148t65 136.5t145 50.5t129.5 -38.5t49.5 -104.5q0 -108 -145 -192q115 -68 115 -161.5t-71 -144.5t-162 -51t-145.5 38.5t-54.5 108.5t49 122t116 88zM115 145q0 -49 29.5 -78.5t82 -29.5t95.5 39.5t43 97.5q0 46 -39 82q-30 28 -82 60l-7 3
q-122 -79 -122 -174zM400 535q0 43 -25.5 71.5t-68.5 28.5t-82 -38t-39 -89q0 -48 36 -80q29 -26 78 -56q101 74 101 163z" />
    <glyph glyph-name="nine" unicode="9" horiz-adv-x="510" 
d="M232 248q-82 0 -131.5 47t-49.5 126q0 102 72 171.5t169.5 69.5t149.5 -59t52 -148.5t-29 -173.5t-85.5 -162t-151.5 -138.5t-215 -87.5l-11 52q108 31 187 87t122 126q85 137 85 293q0 61 -27.5 107.5t-86 46.5t-96 -54t-37.5 -113.5t27.5 -95t73.5 -35.5l60 3l-1 -47
q-35 -15 -77 -15z" />
    <glyph glyph-name="colon" unicode=":" horiz-adv-x="198" 
d="M121 479q51 0 51 -55q0 -32 -19 -58t-48 -26q-50 0 -50 54q0 32 18.5 58.5t47.5 26.5zM78 129q51 0 51 -55q0 -32 -19 -58t-48 -26q-50 0 -50 54q0 32 18.5 58.5t47.5 26.5z" />
    <glyph glyph-name="semicolon" unicode=";" horiz-adv-x="205" 
d="M129 479q51 0 51 -55q0 -32 -19 -58t-48 -26q-50 0 -50 54q0 32 18.5 58.5t47.5 26.5zM82 129q59 0 57 -75q0 -65 -40 -120.5t-104 -69.5l-9 32q74 29 79 94q-24 0 -37 14.5t-12.5 43t19 55t47.5 26.5z" />
    <glyph glyph-name="less" unicode="&#x3c;" horiz-adv-x="562" 
d="M116 247l339 266l46 -53l-283 -212l225 -210l-61 -53z" />
    <glyph glyph-name="equal" unicode="=" horiz-adv-x="540" 
d="M490 312l-435 -5l11 71h435zM37 185l435 5l-10 -71h-435z" />
    <glyph glyph-name="greater" unicode="&#x3e;" horiz-adv-x="560" 
d="M207 513l265 -266l-340 -262l-45 53l283 210l-223 212z" />
    <glyph glyph-name="question" unicode="?" horiz-adv-x="403" 
d="M188 365q69 0 110.5 51.5t41.5 121.5q0 139 -96 139q-44 0 -71 -16l-46 -112l-35 8l4 111l17 26q80 33 138 33q85 0 132 -45.5t47 -128.5q0 -108 -70 -175t-177 -67h-6l-8 -86l-12 -10l-64 12l14 125l32 17q30 -4 49 -4zM118 119q46 0 46 -50q0 -30 -18 -54.5t-45 -24.5
q-45 0 -45 49q0 30 17.5 55t44.5 25z" />
    <glyph glyph-name="at" unicode="@" horiz-adv-x="914" 
d="M375 -10q-101 0 -101 149q0 75 35 161t87 144.5t98 58.5q21 0 67.5 -6t55.5 -7l57 13l23 -15q-21 -91 -32.5 -145.5t-21.5 -135.5t-10 -117v-42q83 14 134.5 94t51.5 205t-79 198t-206 73t-216 -67t-131 -172t-42 -229v-6q0 -139 68.5 -217t209.5 -78q49 0 170 26l42 9
l5 -32q-165 -65 -225 -65q-173 0 -268 93.5t-95 265.5q2 230 131.5 375.5t350.5 145.5q167 0 266.5 -81t99.5 -230t-91 -254t-239 -117l-24 15q11 63 24 173q-42 -83 -93.5 -133t-101.5 -50zM480 449q-37 0 -78 -104t-41 -197q0 -44 12.5 -71t32.5 -27q29 0 71 58t76 144.5
t42 161.5q-70 35 -115 35z" />
    <glyph glyph-name="A" unicode="A" horiz-adv-x="644" 
d="M612 54l-12 -54h-98l-142 -5l4 49l73 20l-10 108l-11 60h-212l-46 -105l-19 -63l66 -10l-12 -54h-85l-131 -5l3 49l63 17l56 99l250 545l60 10l120 -566l25 -85zM354 557l-125 -275l175 4z" />
    <glyph glyph-name="B" unicode="B" horiz-adv-x="595" 
d="M225 705l165 10q74 0 125.5 -40t51.5 -110.5t-47 -124t-119 -70.5l-1 -7q66 -10 105.5 -50.5t39.5 -104.5q0 -95 -65.5 -154t-161.5 -59l-199 5l-104 -5l2 50l76 16q15 50 20 76l65 431q2 17 2 76l-69 12l13 54q73 -4 101 -5zM288 53q69 0 112.5 42.5t43.5 110.5
t-41 99.5t-106 31.5h-11l15 57h7q70 0 117.5 42.5t47.5 116.5q0 49 -27 78.5t-67 29.5t-90 -6q-16 -53 -25 -117l-56 -371q-10 -73 -10 -108q48 -6 90 -6z" />
    <glyph glyph-name="C" unicode="C" horiz-adv-x="593" 
d="M321 -15q-129 0 -200.5 80.5t-71.5 215.5q0 193 97.5 316t271.5 123q76 0 174 -28q18 -5 22 -6l-31 -148l-58 4l7 47v10.5t-4 39.5q-64 23 -118 23q-80 0 -140 -54.5t-89 -139t-29 -188t46.5 -170.5t129.5 -67q52 0 125 22q20 46 22 56l9 47l58 2l-16 -151
q-26 -9 -43.5 -12t-38 -8t-30.5 -6t-28 -3q-32 -5 -65 -5z" />
    <glyph glyph-name="D" unicode="D" horiz-adv-x="700" 
d="M298 -6l-175 6l-114 -5l2 50l79 16q15 50 20 76l63 431q2 17 2 76l-73 12l13 54q61 -3 95 -5q25 1 81.5 5.5t91.5 4.5q141 0 219.5 -79.5t78.5 -217.5q0 -189 -103.5 -306.5t-279.5 -117.5zM385 655q-61 0 -103 -5q-14 -55 -23 -112l-54 -371q-10 -70 -10 -88t1 -22
q48 -4 111 -4q91 0 155 51q120 98 120 308q0 108 -49.5 175.5t-147.5 67.5z" />
    <glyph glyph-name="E" unicode="E" horiz-adv-x="572" 
d="M226 705h219l112 10l16 -18l-13 -136l-57 -5q0 32 -1.5 48.5t-15.5 39.5q-52 5 -78 5h-126q-17 -70 -23 -111l-21 -142q32 -2 41 -2h70l59 9l18 66l45 -5q-10 -64 -13 -84l-13 -109l-48 -6l1 67q-57 6 -76 6h-51q-17 0 -42 -3l-24 -168q-9 -60 -9 -110h138q36 0 86 9
q22 28 25 37q19 46 25 67l53 -5l-37 -151l-21 -18q-90 4 -110 4h-232l-114 -5l2 50l79 16q15 50 20 76l63 431q2 17 2 76l-73 12l13 54q91 -5 111 -5z" />
    <glyph glyph-name="F" unicode="F" horiz-adv-x="536" 
d="M408 649h-126q-17 -70 -23 -111l-22 -150q32 -2 41 -2h70l59 9l18 66l45 -5q-11 -64 -13 -84l-13 -109l-49 -6l2 67q-57 6 -77 6h-50q-16 0 -42 -3l-23 -160q-9 -63 -9 -106l96 -7l-15 -59q-75 5 -154 5l-114 -5l2 50l79 16q15 50 20 76l63 431q2 17 2 76l-73 12l13 54
q91 -5 111 -5h219l112 10l16 -18l-13 -136l-57 -5q0 32 -1.5 48.5t-15.5 39.5q-52 5 -78 5z" />
    <glyph glyph-name="G" unicode="G" horiz-adv-x="646" 
d="M434 720q77 0 209 -34l-32 -148l-56 6l6 45q1 3 1 12t-5 37q-76 24 -134 24q-127 0 -199.5 -109.5t-72.5 -265.5q0 -108 50.5 -176t141.5 -68q52 0 127 20q19 56 21 65l10 68v71l-101 8l13 58h108l71 3l15 -17q-24 -103 -31 -153l-21 -147q-6 -1 -25 -6t-26.5 -6.5
t-25 -5.5t-27 -5.5t-26 -4t-29.5 -3.5q-37 -3 -59 -3q-137 0 -212.5 81.5t-75.5 217.5q0 192 102 314t283 122z" />
    <glyph glyph-name="H" unicode="H" horiz-adv-x="752" 
d="M772 710l-5 -59l-76 -7q-14 -48 -22 -106l-54 -371q-9 -63 -9 -106l85 -7l-15 -59q-64 5 -143 5l-114 -5l2 50l79 16q1 4 6 21q11 42 13 55l28 190h-319l-23 -160q-9 -63 -9 -106l86 -7l-16 -59q-64 5 -143 5l-114 -5l2 50l79 16q15 50 20 76l63 431q2 17 2 76l-73 12
l13 54q91 -5 111 -5l136 5l-4 -59l-77 -7q-14 -48 -22 -106l-23 -160l319 5l27 185q3 17 3 76l-73 12l13 54q91 -5 111 -5z" />
    <glyph glyph-name="I" unicode="I" horiz-adv-x="354" 
d="M368 710l-5 -59l-76 -7q-14 -48 -22 -106l-54 -371q-9 -63 -9 -106l85 -7l-15 -59q-64 5 -143 5l-114 -5l2 50l79 16q1 4 6 21q11 42 13 55l63 431q3 17 3 76l-73 12l13 54q91 -5 111 -5z" />
    <glyph glyph-name="J" unicode="J" horiz-adv-x="324" 
d="M353 651l-76 -7q-14 -48 -22 -106l-80 -548q-4 -30 -162 -190l-31 22q102 169 105 189l81 557q3 17 3 76l-73 12l13 54q91 -5 111 -5l136 5z" />
    <glyph glyph-name="K" unicode="K" horiz-adv-x="679" 
d="M642 54l-15 -59q-60 5 -139 5l-123 -5l2 50l59 14q-36 79 -53 105l-131 189l208 224l47 68l-50 11l13 54q81 -5 102 -5l125 5l-4 -59l-74 -7q-47 -39 -112 -98l-154 -176q10 -15 73.5 -104.5t95.5 -136.5q12 -16 64 -68zM362 710l-5 -59l-76 -7q-14 -48 -22 -106
l-54 -371q-9 -63 -9 -106l85 -7l-15 -59q-64 5 -143 5l-114 -5l3 50l78 16q15 50 20 76l63 431q2 17 2 76l-72 12l12 54q91 -5 111 -5z" />
    <glyph glyph-name="L" unicode="L" horiz-adv-x="519" 
d="M196 57h113q37 0 86 9q23 29 25 37q19 48 24 67l54 -5l-37 -151l-21 -18q-91 4 -110 4h-207l-114 -5l2 50l79 16q15 50 20 76l63 431q2 17 2 76l-73 12l13 54q91 -5 111 -5l136 5l-4 -59l-77 -7q-14 -48 -22 -106l-54 -371q-9 -61 -9 -110z" />
    <glyph glyph-name="M" unicode="M" horiz-adv-x="902" 
d="M720 705h28l151 5l-5 -59l-78 -7q-8 -24 -14 -75l-31 -437l5 -71l77 -7l-14 -59q-64 5 -143 5l-115 -5l2 50l78 16q18 92 20 101l35 422l-296 -584h-37l-126 584l-84 -422q-7 -46 -10 -101l77 -7l-16 -59q-48 5 -125 5l-104 -5l2 50l78 16q22 57 26 71l90 437l7 75
l-78 12l13 54l132 -4h58l15 -21q22 -132 28 -156l76 -354l183 362l73 148z" />
    <glyph glyph-name="N" unicode="N" horiz-adv-x="740" 
d="M788 710l-3 -53l-78 -16q-24 -64 -31 -113l-79 -535h-62l-297 563l-56 -389q-9 -54 -9 -106l77 -7l-16 -59q-41 5 -120 5l-105 -5l2 50l79 16q15 50 20 76l63 431q2 16 2 76l-75 12l12 54q91 -5 112 -5l45 1l16 -21q60 -133 71 -155l199 -367l58 395q3 24 3 83l-75 6
l14 60l80 -2z" />
    <glyph glyph-name="O" unicode="O" horiz-adv-x="719" 
d="M701 420q0 -191 -99.5 -313t-277.5 -122q-133 0 -204 81t-71 218q0 192 99.5 314t277.5 122q133 0 204 -81.5t71 -218.5zM185.5 470q-29.5 -86 -29.5 -191t44 -173t127.5 -68t145 55t91.5 141t30 191.5t-43.5 173.5t-128 68t-146 -55.5t-91 -141.5z" />
    <glyph glyph-name="P" unicode="P" horiz-adv-x="570" 
d="M210 705l173 10q91 0 145 -45t54 -131q0 -116 -75.5 -182t-188.5 -66q-35 0 -95 2l-18 -126q-9 -63 -9 -106l90 -7l-16 -59q-68 5 -147 5l-114 -5l2 50l79 16q15 50 20 76l63 431q2 17 2 76l-73 12l13 54q62 -4 95 -5zM295 341q88 0 140 49t52 140q0 66 -37.5 100.5
t-105.5 34.5q-18 0 -60 -5q-16 -60 -25 -122l-28 -193q48 -4 64 -4z" />
    <glyph glyph-name="Q" unicode="Q" horiz-adv-x="727" 
d="M323 -15q-133 0 -203.5 81t-70.5 218q0 192 99.5 314t277.5 122q133 0 204 -81.5t71 -227.5t-68.5 -258.5t-195.5 -151.5l75 -61q11 -9 110 -56l33 -16l-72 -92l-224 211q-24 -2 -36 -2zM185.5 470q-29.5 -86 -29.5 -191t44.5 -173t130.5 -68q122 0 192.5 112.5
t70.5 270.5q0 110 -43.5 178t-128 68t-146 -55.5t-91 -141.5z" />
    <glyph glyph-name="R" unicode="R" horiz-adv-x="630" 
d="M214 705l171 10q92 0 146 -44t54 -129.5t-47.5 -145t-125.5 -82.5q45 -123 63.5 -160.5t48.5 -92.5l69 -7l-15 -59q-76 5 -155 5q-27 92 -36 116l-69 185q-34 0 -92 2l-20 -136q-9 -63 -9 -106l87 -7l-16 -59q-64 5 -144 5l-115 -5l2 50l80 16q15 50 20 76l64 431
q2 17 2 76l-74 12l13 54q65 -3 98 -5zM346 665q-9 0 -59 -6q-15 -51 -26 -121l-27 -182q47 -5 75 -5q87 0 134 46.5t47 136.5q0 64 -38 97.5t-106 33.5z" />
    <glyph glyph-name="S" unicode="S" horiz-adv-x="543" 
d="M123 186q-8 -50 -8 -68t2 -46q60 -27 123.5 -27t103.5 37.5t40 101.5q0 67 -102 124q-42 24 -84.5 49t-72.5 64.5t-30 90.5q0 96 67 152t170 56q75 0 195 -32l-36 -151l-57 6q7 44 7 48.5t-5 51.5q-45 22 -104.5 22t-96.5 -33t-37 -90q0 -66 104 -122q43 -24 86 -50
t73.5 -67.5t30.5 -95.5q0 -106 -74.5 -164t-186.5 -58q-58 0 -110 13.5t-75 26.5l-24 13l37 154z" />
    <glyph glyph-name="T" unicode="T" horiz-adv-x="578" 
d="M463 649h-63q-15 -59 -23 -111l-54 -371q-3 -20 -9 -106l86 -7l-16 -59q-64 5 -142 5l-115 -5l3 50l78 16q15 50 20 76l63 431q3 27 3 81h-61q-24 0 -79 -5q-22 -25 -24.5 -33t-19.5 -63l-56 5l28 144l21 18q90 -10 109 -10h288l112 10l16 -18l-15 -144l-57 -5
q0 47 -1 60t-15 36q-52 5 -77 5z" />
    <glyph glyph-name="U" unicode="U" horiz-adv-x="707" 
d="M319 -15q-123 0 -178 75q-41 57 -41 145q0 29 4 61l44 297q3 25 3 81l-74 12l12 54q91 -5 111 -5l143 5l-5 -59l-77 -7q-13 -47 -23 -111l-39 -267q-4 -29 -4 -54q0 -62 24 -104q34 -59 116 -59t134.5 59.5t66.5 157.5l44 297q2 17 2 81l-74 12l13 54q81 -5 102 -5l129 5
l-4 -59l-77 -7q-12 -35 -24 -111l-39 -267q-18 -131 -92 -206t-197 -75z" />
    <glyph glyph-name="V" unicode="V" horiz-adv-x="673" 
d="M278 0l-129 556q-10 40 -23 72l-6 13l-62 10l13 54h105l146 5l-4 -49l-79 -20q0 -51 13 -108l85 -385l206 430l20 63l-72 10l13 54h88l140 5l-4 -49l-67 -17q-33 -45 -59 -99l-262 -545h-62z" />
    <glyph glyph-name="W" unicode="W" horiz-adv-x="981" 
d="M1040 661l-68 -17q-41 -60 -59 -99l-237 -545h-61l-89 506l-218 -506h-62l-98 556q-6 36 -21 73l-5 12l-62 10l13 54h105l146 5l-4 -49l-79 -20q3 -57 10 -108l54 -385l231 537h54l84 -537l181 430l19 63l-71 10l12 54h88l140 5z" />
    <glyph glyph-name="X" unicode="X" horiz-adv-x="696" 
d="M311 355l-110 203l-48 83l-76 10l15 55q66 -1 86 -1l183 5l-3 -47l-78 -22q17 -66 27 -86l72 -133l115 156q7 9 41 63l-72 10l14 55q51 -1 79 -1l166 5l-2 -47l-69 -16q-69 -58 -87 -78l-154 -201l129 -236q15 -24 49 -68l74 -10l-15 -55q-63 1 -82 1l-175 -5l2 47l65 18
q-14 54 -31 82l-85 159l-134 -169q-14 -18 -44 -68l75 -10l-15 -55q-56 1 -80 1l-158 -5l2 47l61 17q90 83 108 105z" />
    <glyph glyph-name="Y" unicode="Y" horiz-adv-x="645" 
d="M689 661l-68 -17q-43 -47 -76 -99l-176 -271l-15 -107q-9 -63 -9 -106l85 -7l-15 -59q-64 5 -143 5l-114 -5l2 50l79 16q1 4 5 21q12 42 14 55l18 121l-108 298q-11 34 -34 73l-7 12l-63 10l13 54h105l146 5l-3 -49l-79 -20q4 -49 25 -108l71 -189l145 234l35 63l-70 10
l12 54h88l140 5z" />
    <glyph glyph-name="Z" unicode="Z" horiz-adv-x="543" 
d="M260 646q-32 0 -84 -5l-21 -34q-16 -49 -23 -84l-56 5l29 169l21 18q90 -10 109 -10h323v-56l-126 -155l-222 -303l-87 -132h195q36 0 86 9q20 22 28.5 44.5t19.5 67.5l54 -5l-35 -161l-22 -18q-90 4 -110 4h-339l1 57q94 114 129 162l223 301l83 126h-176z" />
    <glyph glyph-name="bracketleft" unicode="[" horiz-adv-x="267" 
d="M137 -9.5q0 -27.5 1 -44.5l1 -16l83 -15l-7 -40q-94 4 -163 4l-11 13q39 167 78 437.5t43 419.5l15 13l164 4l-7 -40l-85 -15q-23 -60 -29 -110l-80 -561q-3 -22 -3 -49.5z" />
    <glyph glyph-name="backslash" unicode="\" horiz-adv-x="398" 
d="M354 -47l-67 -20l-195 820l66 20z" />
    <glyph glyph-name="bracketright" unicode="]" horiz-adv-x="267" 
d="M178 650.5q0 27.5 -1 43.5l-1 17l-83 15l7 40q95 -4 164 -4l11 -13q-40 -165 -78.5 -435.5t-42.5 -421.5l-15 -13l-164 -4l6 40l85 15q23 60 29 110l80 561q3 22 3 49.5z" />
    <glyph glyph-name="asciicircum" unicode="^" horiz-adv-x="543" 
d="M326 615l-245 -302l-55 44l316 371l207 -371l-67 -44z" />
    <glyph glyph-name="underscore" unicode="_" horiz-adv-x="504" 
d="M-52 -230l7 71h503l-15 -71h-495z" />
    <glyph glyph-name="grave" unicode="`" 
d="M344 605l-32 -41l-71 60l-117 71l46 60z" />
    <glyph glyph-name="a" unicode="a" horiz-adv-x="529" 
d="M234 40.5q-52 -51.5 -103 -51.5q-101 0 -101 145v5q0 75 34.5 161.5t87 145t99.5 58.5q27 0 71 -6.5t53 -7.5l59 14l24 -16q-30 -122 -46.5 -216t-19.5 -202l89 -5l-3 -36l-153 -44l-26 15q15 68 29 178q-42 -86 -94 -137.5zM165 55q29 0 69.5 56t74 141t42.5 159
q-78 35 -114 35q-24 0 -51.5 -48t-46 -118.5t-18.5 -121t12 -77t32 -26.5z" />
    <glyph glyph-name="b" unicode="b" horiz-adv-x="491" 
d="M366 503q99 0 99 -149q0 -76 -35 -162.5t-87 -144.5t-99 -58q-20 0 -117 13l-63 -17l-26 15q33 122 64 332t43 359l-83 12l-3 39l166 28l23 -20q-53 -299 -71 -417q41 78 90.5 124t98.5 46zM258 47q24 0 51.5 48t46 118t18.5 121t-12 77.5t-32 26.5q-28 0 -69 -56.5
t-75 -141.5t-42 -159q71 -34 114 -34z" />
    <glyph glyph-name="c" unicode="c" horiz-adv-x="397" 
d="M143 444.5q48 58.5 88 58.5t149 -14l15 -24l-38 -147l-36 2l-6 95q-60 21 -84 21q-34 0 -72.5 -99.5t-38.5 -191.5t60 -92q78 0 154 101l32 -24q-87 -141 -222 -141q-57 0 -86.5 38.5t-29 112t33.5 160t81 145z" />
    <glyph glyph-name="d" unicode="d" horiz-adv-x="532" 
d="M129 -11q-99 0 -99 150q0 75 35 161.5t87.5 145t98.5 58.5q11 0 112 -13q16 132 21 200l-84 12l-2 39l166 28l23 -20q-10 -57 -32.5 -184t-30.5 -181q-27 -170 -29 -315l89 -5l-3 -36l-155 -44l-26 15q24 134 28 178q-42 -86 -94.5 -137.5t-104.5 -51.5zM237 446
q-24 0 -51.5 -48t-46 -118.5t-18.5 -121t12 -77t32 -26.5q29 0 70 56.5t74.5 141t41.5 158.5q-74 35 -114 35z" />
    <glyph glyph-name="e" unicode="e" horiz-adv-x="402" 
d="M244 503q147 0 147 -80q0 -76 -70.5 -132.5t-196.5 -81.5q-4 -28 -4 -60q0 -97 60 -97q79 0 154 102l33 -25q-42 -67 -99.5 -103.5t-118.5 -36.5q-122 0 -120 150q0 75 35 161t86 144.5t94 58.5zM288 431.5q-15 10.5 -45.5 10.5t-61 -56t-48.5 -131q76 17 123 55.5
t47 86.5q0 24 -15 34.5z" />
    <glyph glyph-name="f" unicode="f" horiz-adv-x="287" 
d="M-139 -235l-27 1h-4l27 71q5 -5 43.5 -5t78.5 13t49 25q25 34 52.5 204.5t43.5 347.5h-88l4 44l12 3q54 14 73 25q9 6 16 49q16 100 96 163.5t185 63.5l35 -3l-26 -70q-23 7 -50 7t-66.5 -12.5t-49.5 -26.5q-25 -33 -49 -187h121l-14 -56h-116q-14 -83 -35 -245.5
t-33 -214.5q-23 -92 -100 -144.5t-178 -52.5z" />
    <glyph glyph-name="g" unicode="g" horiz-adv-x="506" 
d="M196.5 -223q-43.5 -12 -83 -12t-79.5 6t-56 14l31 78q73 -26 130.5 -26t95 12.5t48 23t18.5 45t9 57.5t5 51.5t10.5 73t10.5 77.5q-41 -86 -93 -137t-103 -51q-101 0 -101 146q0 76 34.5 163t87 146.5t99.5 59.5q19 0 72 -7l52 -7l60 14l24 -16q-30 -113 -43 -198
q-24 -168 -33 -276q-8 -69 -37.5 -120t-72 -78t-86 -39zM246 446q-36 0 -76.5 -102.5t-40.5 -193.5q0 -42 12.5 -68.5t32.5 -26.5q29 0 69.5 56t74 141t42.5 159q-74 35 -114 35z" />
    <glyph glyph-name="h" unicode="h" horiz-adv-x="551" 
d="M400 504q72 0 72 -82q0 -45 -24.5 -167t-28.5 -185l92 -5l-3 -36l-171 -44l-25 15q66 284 66 375q0 52 -33 52q-40 0 -102 -88.5t-96 -222.5q-3 -21 -15 -116l-68 -15l-26 15q33 122 64 332t43 359l-83 12l-3 39l166 28l23 -20q-57 -319 -75 -438q41 78 100.5 135
t126.5 57z" />
    <glyph glyph-name="i" unicode="i" horiz-adv-x="301" 
d="M214 504l23 -20q-34 -123 -73 -414l89 -5l-3 -36l-164 -44l-25 15q32 129 45.5 212t25.5 206l-82 4l-1 39zM211 722q48 0 48 -51q0 -31 -18.5 -55.5t-46.5 -24.5q-46 0 -46 50q0 30 18 55.5t45 25.5z" />
    <glyph glyph-name="j" unicode="j" horiz-adv-x="268" 
d="M199 504l23 -20q-20 -70 -34.5 -161.5t-28.5 -182.5t-24 -155q-6 -38 -154 -220l-31 27q31 53 64.5 123t40.5 99q44 183 62 404l-82 4l-1 39zM196 722q48 0 48 -51q0 -31 -18.5 -55.5t-46.5 -24.5q-46 0 -46 50q0 30 18 55.5t45 25.5z" />
    <glyph glyph-name="k" unicode="k" horiz-adv-x="494" 
d="M399 504q69 0 67 -80q0 -67 -51 -123t-139 -88q49 -83 108 -143l92 -5l-3 -37l-145 -48l-130 212v38q90 27 140 71t49 95q2 31 -27 31q-58 0 -120 -88.5t-92 -215.5q-9 -53 -17 -123l-68 -15l-26 15q30 111 62 319.5t45 371.5l-84 12l-1 39l166 28l23 -20
q-60 -337 -74 -433q44 88 104 137.5t121 49.5z" />
    <glyph glyph-name="l" unicode="l" horiz-adv-x="277" 
d="M225 770l23 -20q-78 -440 -108 -680l89 -5l-3 -36l-162 -44l-26 15q33 122 64 332t43 359l-83 12l-3 39z" />
    <glyph glyph-name="m" unicode="m" horiz-adv-x="845" 
d="M423 504q71 0 71 -82q0 -28 -7 -81q95 163 207 163q72 0 72 -82q0 -45 -24.5 -167t-28.5 -185l92 -5l-3 -36l-171 -44l-26 15q67 279 67 375q0 52 -34 52q-38 0 -98 -86.5t-95 -218.5q-7 -44 -16 -122l-69 -15l-26 15q67 279 67 375q0 52 -34 52q-41 0 -103.5 -92.5
t-95.5 -233.5q-5 -38 -14 -101l-68 -15l-26 15q33 130 47 214t25 204l-83 4v39l165 43l23 -20q-17 -56 -37 -170q40 78 98.5 134t124.5 56z" />
    <glyph glyph-name="n" unicode="n" horiz-adv-x="573" 
d="M422 504q72 0 72 -82q0 -45 -24.5 -167t-28.5 -185l92 -5l-3 -36l-171 -44l-25 15q66 284 66 375q0 52 -34 52q-40 0 -102.5 -92.5t-95.5 -233.5l-14 -101l-68 -15l-26 15q33 130 47 214t25 204l-83 4v39l165 43l23 -20q-17 -56 -37 -170q40 78 98 134t124 56z" />
    <glyph glyph-name="o" unicode="o" horiz-adv-x="472" 
d="M294 504q70 0 107.5 -45t37.5 -128q0 -138 -78 -240t-184 -102q-70 0 -107.5 45.5t-37.5 128.5q0 137 78 239t184 102zM277 447q-65 0 -106.5 -81.5t-41.5 -200.5t65 -119t106.5 81.5t41.5 200.5t-65 119z" />
    <glyph glyph-name="p" unicode="p" horiz-adv-x="509" 
d="M292 463q47 41 94.5 41t72.5 -38t25 -107v-5q0 -75 -34.5 -161.5t-87 -145t-99.5 -58.5q-33 0 -114 13q-17 -122 -33 -264l-67 -15l-26 15q33 140 64.5 342t43.5 338l-83 4v39l165 43l23 -20q-18 -70 -31 -133q40 71 87 112zM278 47q24 0 51.5 48t46 118.5t18 121.5
t-12.5 77t-32 26q-29 0 -70 -56.5t-74 -141.5t-41 -159q71 -34 114 -34z" />
    <glyph glyph-name="q" unicode="q" horiz-adv-x="509" 
d="M129 -11q-99 0 -99 144v6q0 75 34.5 161.5t87 145t99.5 58.5q19 0 70.5 -7t52.5 -7l59 14l24 -16q-33 -117 -63.5 -320.5t-43.5 -359.5l89 -5l-3 -36l-164 -44l-26 15l46 256l28 168q-42 -80 -92 -126.5t-99 -46.5zM236 446q-24 0 -51.5 -48t-46 -118.5t-18 -121.5
t12.5 -77t32 -26q29 0 69.5 56.5t74 141t41.5 158.5q-74 35 -114 35z" />
    <glyph glyph-name="r" unicode="r" horiz-adv-x="399" 
d="M391 504q19 0 23 -4l17 -24l-45 -169l-37 3l-6 120q-57 -32 -109 -129.5t-66 -196.5l-14 -104l-68 -15l-26 15q52 206 72 418l-83 4v39l165 43l23 -20q-22 -75 -36 -160q40 82 91.5 131t98.5 49z" />
    <glyph glyph-name="s" unicode="s" horiz-adv-x="363" 
d="M215 504q40 0 101 -12l18 -3l21 -24l-32 -123l-39 3l-15 99q-26 11 -55.5 11t-55 -19t-25.5 -45.5t29.5 -54t64.5 -50t64.5 -59.5t29.5 -79q0 -70 -53 -114.5t-131 -44.5q-41 0 -80 16.5t-58 37.5l-1 32l50 99l37 -11l-10 -94q34 -29 74.5 -29t65 20t24.5 53t-28.5 59.5
t-62 47t-62 59.5t-28.5 92.5t46 93t111 39.5z" />
    <glyph glyph-name="t" unicode="t" horiz-adv-x="324" 
d="M329 424h-106q-40 -222 -58 -355l112 -4l-3 -36l-185 -44l-25 15q48 194 74 424h-91l4 44q78 21 93 30q24 13 55 78l10 21l41 -12q-5 -25 -10 -60t-7 -45h111z" />
    <glyph glyph-name="u" unicode="u" horiz-adv-x="560" 
d="M138 -11q-35 0 -53.5 26t-18.5 65t26 154t32 184l-83 4v39l166 43l22 -20q-68 -257 -70 -365q0 -51 34 -51q40 0 99.5 88.5t103.5 270.5l9 61l73 16l24 -16q-37 -143 -53 -226.5t-26 -192.5l89 -4l-3 -36l-164 -44l-26 15q19 67 40 185q-46 -89 -103.5 -142.5
t-117.5 -53.5z" />
    <glyph glyph-name="v" unicode="v" horiz-adv-x="484" 
d="M136 -11q-63 0 -63 68q0 23 23.5 136t23.5 149q0 6 -1 24.5t-1 35.5l-1 16l-83 4l-6 39l151 43l25 -16v-116q0 -13 -18 -126t-18 -146.5t24 -33.5q39 0 84.5 46t77 113.5t31.5 125.5q0 21 -6 67l-81 4l-6 39l157 43l24 -16q-2 -124 -50.5 -240.5t-126.5 -187.5t-160 -71z
" />
    <glyph glyph-name="w" unicode="w" horiz-adv-x="753" 
d="M384 351l-15 134l70 18l24 -15l4 -116q0 -13 -16 -126.5t-16 -146.5t25 -33t59 25t64.5 64t52 92t21.5 104q0 18 -6 67l-80 4l-7 39l157 43l25 -16q0 -106 -33.5 -202t-85 -159.5t-110.5 -100.5t-112 -37q-27 0 -41.5 20t-14.5 43t11 82q-50 -69 -109 -107t-113 -38
q-62 0 -62 68q0 23 23 136t23 161t-3 64l-83 4l-6 39l151 43l24 -16h2v-116q0 -13 -18.5 -126t-18.5 -146.5t24 -33.5q54 0 122 92.5t68 192.5z" />
    <glyph glyph-name="x" unicode="x" horiz-adv-x="486" 
d="M472 488l14 -63q-22 -7 -55.5 -22t-43.5 -21.5t-105 -134.5q33 -90 74 -177l103 -5l-4 -37l-142 -43l-23 15l-64 185q-97 -124 -107 -135l-85 -63l-23 15l-23 62q87 32 107 44q9 7 110 135q-43 109 -83 178l-81 5l-8 37l144 41l24 -15q16 -55 60 -186q5 6 43 59t61 78
l85 64z" />
    <glyph glyph-name="y" unicode="y" horiz-adv-x="528" 
d="M216.5 -223q-43.5 -12 -83.5 -12t-80 6t-56 14l32 78q71 -26 129 -26t95 12.5t50 23.5q10 11 21 71t33 239q-46 -88 -102.5 -141t-116.5 -53q-35 0 -53.5 26t-18.5 65t26 154t32 184l-83 4v39l166 43l22 -20q-70 -270 -70 -365q0 -51 34 -51q44 0 103.5 94.5t97.5 255.5
l-80 4l-6 39l158 43l24 -16q-41 -160 -62 -322q-5 -45 -17 -152q-8 -69 -37.5 -120t-71.5 -78t-85.5 -39z" />
    <glyph glyph-name="z" unicode="z" horiz-adv-x="438" 
d="M401 152l-25 -142l-30 -23l-280 13l-51 -13l-22 19q117 143 178 228.5t128 194.5q-84 -1 -175 -17l-26 -81l-38 3l-5 146l16 24l298 -17l59 15l11 -19q-123 -157 -184.5 -242.5t-120.5 -184.5q120 0 178 13q53 91 54 95q1 0 17.5 -5.5t17.5 -6.5z" />
    <glyph glyph-name="braceleft" unicode="{" horiz-adv-x="276" 
d="M146 -9.5q0 -27.5 1 -44.5l1 -16l83 -15l-7 -40q-94 4 -163 4l-11 13q35 152 68 372q-17 35 -60 45l4 23q45 7 72 44q32 233 37 373l15 13l164 4l-7 -40l-85 -15q-23 -60 -29 -110l-36 -245q-29 -27 -62 -38l-1 -4q33 -13 52 -40l-33 -234q-3 -22 -3 -49.5z" />
    <glyph glyph-name="bar" unicode="|" horiz-adv-x="275" 
d="M135 -122l-74 9l128 873l64 -8z" />
    <glyph glyph-name="braceright" unicode="}" horiz-adv-x="276" 
d="M178 650.5q0 27.5 -1 43.5l-1 17l-83 15l7 40q95 -4 164 -4l11 -13q-35 -143 -69 -372q6 -15 23.5 -28t37.5 -17l-4 -23q-48 -8 -73 -45q-33 -238 -36 -372l-15 -13l-164 -4l6 40l85 15q23 60 29 110l36 245q31 27 63 38v4q-31 12 -52 40l33 234q3 22 3 49.5z" />
    <glyph glyph-name="asciitilde" unicode="~" horiz-adv-x="560" 
d="M393.5 175q-26.5 0 -116.5 30t-109 30q-34 0 -74 -41l-13 -14l-35 33q25 37 63 70.5t60 33.5q37 0 124.5 -30t106.5 -30q33 0 72 41l14 14l35 -33q-25 -37 -63 -70.5t-64.5 -33.5z" />
    <glyph glyph-name="nbspace" unicode="&#xa0;" horiz-adv-x="224" 
 />
    <glyph glyph-name="exclamdown" unicode="&#xa1;" horiz-adv-x="228" 
d="M78 278l65 -12q-36 -178 -71 -486l-81 -15l-22 15q44 167 64 262.5t34 225.5zM138 503q46 0 46 -50q0 -30 -18 -54.5t-45 -24.5q-45 0 -45 49q0 30 17.5 55t44.5 25z" />
    <glyph glyph-name="cent" unicode="&#xa2;" horiz-adv-x="469" 
d="M36 274q0 132 66.5 217t187.5 89l20 109l32 -3l-20 -107q35 -2 126 -34l-29 -125l-55 3l5 36v9.5t-2 24.5q-26 24 -55 29l-72 -390q33 0 67 9t52 18l18 9l20 -47q-28 -21 -76.5 -37.5t-92.5 -16.5l-20 -109l-34 3l20 108q-78 9 -118 63t-40 142zM127 279q0 -123 79 -144
l73 387q-75 -7 -113.5 -80.5t-38.5 -162.5z" />
    <glyph glyph-name="sterling" unicode="&#xa3;" horiz-adv-x="554" 
d="M256 618q61 44 137 44t188 -32l-36 -147l-56 6l6 40v11t-4 45q-41 22 -94 22t-84.5 -25.5t-38.5 -72.5l-18 -123l207 10l-3 -34l-209 -10l-11 -72l212 10l-3 -34l-214 -10l-11 -79l-10 -110h125q39 0 86 9q23 29 33.5 56t16.5 48l52 -5l-36 -151l-22 -18q-90 4 -109 4
h-226l-104 -5l3 50l78 15q15 49 20 77l15 104l-97 -4l3 35l99 4l10 72l-101 -5l3 35l103 4l17 113q12 79 73 123z" />
    <glyph glyph-name="yen" unicode="&#xa5;" horiz-adv-x="626" 
d="M112 237l5 35l145 6l-31 70l-106 -5l3 35l89 4l-62 141q-33 48 -47 67l-52 9l15 54h96l150 5l-2 -47l-78 -22q18 -70 27 -90l66 -153l145 199q1 2 24 45l-71 9l15 54h78l151 5l-2 -47l-70 -19l-80 -79l-88 -122l98 5l-4 -34l-120 -6l-46 -64l-2 -9l159 7l-3 -34l-161 -8
l-12 -81l-9 -110l75 -6l-14 -55q-85 4 -154 4l-93 -4l3 52l76 9q19 60 22 80l15 107z" />
    <glyph glyph-name="brokenbar" unicode="&#xa6;" horiz-adv-x="256" 
d="M196 392l-68 8l52 360l64 -8zM98 212l71 -7l-43 -327l-74 9z" />
    <glyph glyph-name="section" unicode="&#xa7;" horiz-adv-x="513" 
d="M130 9l1 -45q45 -19 91.5 -19t79 26.5t32.5 61.5t-25 61.5t-61 47t-72 41.5t-61 49.5t-25 61.5q0 64 77 117l17 -12q-15 -23 -15 -47.5t27.5 -49.5t67 -48.5t79 -50t67 -63.5t27.5 -81q0 -81 -65 -127.5t-155 -46.5q-49 0 -92.5 11t-62.5 22l-20 11l36 154l59 -6
q-7 -58 -7 -68zM373 215q14 20 14 49.5t-29 57t-69 49t-79 45.5t-64.5 58.5t-25.5 74.5q0 82 58.5 126.5t143.5 44.5q60 0 162 -26l-35 -147l-54 6q5 30 6 40v8q0 12 -4 48q-41 16 -82 16t-67.5 -20.5t-26.5 -54.5t25 -60t61 -48t71.5 -44.5t60.5 -51.5t25 -60
q0 -67 -74 -123z" />
    <glyph glyph-name="dieresis" unicode="&#xa8;" 
d="M357 713q44 0 44 -48q0 -32 -15.5 -51.5t-45.5 -19.5q-45 0 -45 47q0 32 16 52t46 20zM128 713q45 0 45 -48q0 -32 -16.5 -51.5t-45.5 -19.5q-45 0 -45 47q0 32 16 52t46 20z" />
    <glyph glyph-name="copyright" unicode="&#xa9;" horiz-adv-x="845" 
d="M430 29q-100 0 -152.5 59.5t-52.5 160.5t53 161t152 60q43 0 132 -20l-7 -101l-41 3v32q0 7 -7 28q-44 11 -76 11q-59 0 -91 -48.5t-32 -124.5t32 -125t91 -49q39 0 81 10q9 20 9 32l1 33l42 1l3 -103q-89 -20 -137 -20zM681.5 509q106.5 -106 106.5 -257t-107.5 -259
t-258 -108t-258 106t-107.5 258t107.5 259t259 107t258 -106zM743 250q0 132 -94.5 226.5t-227 94.5t-226.5 -93.5t-94 -226.5t94.5 -227.5t227 -94.5t226.5 94.5t94 226.5z" />
    <glyph glyph-name="ordfeminine" unicode="&#xaa;" horiz-adv-x="343" 
d="M210 759q29 0 79 -10l44 10l20 -13q-37 -145 -41 -249l52 -3l-2 -28l-110 -26l-19 10q21 64 29 121q-28 -58 -64 -94t-68 -36q-61 0 -61 93q0 76 46 150.5t95 74.5zM163 502q25 0 60.5 61.5t44.5 126.5q-45 18 -68 18q-20 0 -39.5 -52.5t-19.5 -103t22 -50.5z" />
    <glyph glyph-name="guillemotleft" unicode="&#xab;" horiz-adv-x="414" 
d="M33 242l183 222l34 -25l-135 -197l79 -197l-41 -25zM196 242l180 218l32 -25l-131 -193l77 -193l-40 -25z" />
    <glyph glyph-name="logicalnot" unicode="&#xac;" horiz-adv-x="560" 
d="M70 307h455l-32 -238h-71l26 171l-388 -4z" />
    <glyph glyph-name="registered" unicode="&#xae;" horiz-adv-x="845" 
d="M681.5 509q106.5 -106 106.5 -257t-107.5 -259t-258 -108t-258 106t-107.5 258t107.5 259t259 107t258 -106zM743 250q0 132 -94.5 226.5t-227 94.5t-226.5 -93.5t-94 -226.5t94.5 -227.5t227 -94.5t226.5 94.5t94 226.5zM300 467l125 6q64 0 99.5 -31t35.5 -92
q0 -80 -79 -112q41 -80 61 -106q6 -11 30 -43l41 -5l-4 -37h-107l-12 33q-17 41 -18 43l-54 103h-53v-74q0 -20 3 -62l44 -6l-4 -37h-44l-114 -3l-6 33l50 13h1l5 44v251l-5 44h-1l-47 4l4 34h49zM400 260h11q85 7 85 89q0 44 -25.5 67t-70.5 23q-6 0 -32 -4q-3 -45 -3 -67
v-106q13 -2 35 -2z" />
    <glyph glyph-name="macron" unicode="&#xaf;" 
d="M381 606h-308l8 53h313z" />
    <glyph glyph-name="degree" unicode="&#xb0;" horiz-adv-x="359" 
d="M333.5 416q-46.5 -48 -114.5 -48t-102 31t-33 90q0 78 46 127.5t113.5 49.5t102 -32t35.5 -91q-1 -79 -47.5 -127zM244 615q-40 0 -62 -37t-22 -86q2 -73 60 -73q40 0 62 36t21 85q2 75 -59 75z" />
    <glyph glyph-name="plusminus" unicode="&#xb1;" horiz-adv-x="546" 
d="M328 304l-25 -195h-70l27 194l-186 -2l10 70h186l27 191h65l-25 -191h187l-10 -65zM40 66l442 5l-10 -71h-440z" />
    <glyph glyph-name="two.sups" unicode="&#xb2;" horiz-adv-x="330" 
d="M116 845q60 22 121 22t92 -23.5t31 -72.5t-44.5 -102.5t-178.5 -160.5h92l55 6q16 25 17 30l7 26l42 -3l-21 -106l-18 -13q-57 2 -70 2h-189v55q142 121 183.5 168.5t41.5 90.5q0 25 -14.5 39.5t-41.5 14.5t-58 -16q-9 -23 -10 -28l-3 -28l-43 -2z" />
    <glyph glyph-name="three.sups" unicode="&#xb3;" horiz-adv-x="299" 
d="M209 854q115 0 115 -88q0 -75 -84 -113q33 -8 52.5 -32t19.5 -55q0 -67 -77 -118t-191 -62l-6 39q85 12 137.5 49.5t52.5 88.5q0 56 -60 56l-39 -2l-3 39q119 17 119 105q0 48 -46 48q-22 0 -47 -10l-8 -24l-4 -33l-43 -3l6 97q56 18 106 18z" />
    <glyph glyph-name="acute" unicode="&#xb4;" 
d="M297 755l45 -60q-103 -60 -117 -71l-71 -60l-32 41z" />
    <glyph glyph-name="mu" unicode="&#xb5;" horiz-adv-x="548" 
d="M166 -15q-13 0 -22 3l-6 -48q-6 -54 -12 -150l-11 -8q-32 4 -57 4h-22l-9 8q35 109 39 129q87 425 87 500l-94 3l-2 34l176 45l22 -14q-71 -311 -71 -379q0 -53 34 -53q40 0 102 91t104 274l10 66l64 15l23 -15q-35 -136 -49.5 -221t-24.5 -201l81 -3l-3 -36l-154 -44
l-24 15q20 82 38 179q-46 -89 -103 -141.5t-116 -52.5z" />
    <glyph glyph-name="mu" unicode="&#x3bc;" horiz-adv-x="548" 
d="M166 -15q-13 0 -22 3l-6 -48q-6 -54 -12 -150l-11 -8q-32 4 -57 4h-22l-9 8q35 109 39 129q87 425 87 500l-94 3l-2 34l176 45l22 -14q-71 -311 -71 -379q0 -53 34 -53q40 0 102 91t104 274l10 66l64 15l23 -15q-35 -136 -49.5 -221t-24.5 -201l81 -3l-3 -36l-154 -44
l-24 15q20 82 38 179q-46 -89 -103 -141.5t-116 -52.5z" />
    <glyph glyph-name="paragraph" unicode="&#xb6;" horiz-adv-x="543" 
d="M301 715q21 0 47 -3l-55 -396l-30 -25q-91 0 -150.5 46.5t-59.5 132.5q0 111 69.5 178t178.5 67zM409 707q16 -2 39 -2q49 0 103 6l18 2l-9 -59l-72 -6q-18 -33 -68 -399q-22 -160 -29 -179q-13 -37 -121 -150l-37 -38l-28 25q105 172 108 193l84 598z" />
    <glyph glyph-name="periodcentered" unicode="&#xb7;" horiz-adv-x="202" 
d="M112 426q51 0 51 -55q0 -32 -19 -58t-48 -26q-50 0 -50 54q0 32 18.5 58.5t47.5 26.5z" />
    <glyph glyph-name="cedilla" unicode="&#xb8;" 
d="M206 -80q24 -20 24 -59.5t-34.5 -67.5t-81 -28t-80.5 18l17 35q35 -11 58.5 -11t40 14.5t16.5 39.5q0 36 -39 36l-21 -1l-10 10l24 104h47l-24 -69q39 -1 63 -21z" />
    <glyph glyph-name="one.sups" unicode="&#xb9;" horiz-adv-x="256" 
d="M267 489l-10 -42q-40 3 -101 3l-77 -3l2 38l55 8q9 28 13 50l31 212l-69 -29l-14 33q80 56 93 66l35 35l48 -7q-22 -113 -26 -143l-22 -149q-5 -28 -5 -68z" />
    <glyph glyph-name="ordmasculine" unicode="&#xba;" horiz-adv-x="305" 
d="M240 759q47 0 71.5 -28t24.5 -81q0 -86 -51 -147.5t-121 -61.5q-46 0 -70.5 28.5t-24.5 81.5q0 85 50.5 146.5t120.5 61.5zM238.5 531.5q21.5 43.5 21.5 112.5t-36.5 69t-58 -44t-21.5 -112.5t36.5 -68.5t58 43.5z" />
    <glyph glyph-name="guillemotright" unicode="&#xbb;" horiz-adv-x="416" 
d="M409 241l-186 -222l-33 25l133 196l-78 198l41 25zM246 241l-182 -218l-32 25l130 192l-76 194l39 25z" />
    <glyph glyph-name="onequarter" unicode="&#xbc;" horiz-adv-x="684" 
d="M237 339l-10 -42q-40 3 -101 3l-77 -3l2 38l55 8q9 28 13 50l31 212l-69 -29l-14 33q80 56 93 66l35 35l48 -7q-22 -113 -26 -143l-22 -149q-5 -28 -5 -68zM559 721l44 -32l-528 -738l-44 32zM582 451l47 -43q-78 -70 -89 -84l-138 -162h98l10 71l74 24l-13 -90l56 3
l-8 -54h-56l-2 -17q-4 -25 -4 -56l43 -4l-9 -42q-42 3 -102 3l-75 -3l2 37l61 9q10 31 12 49l4 24h-137l-31 46z" />
    <glyph glyph-name="onehalf" unicode="&#xbd;" horiz-adv-x="703" 
d="M237 339l-10 -42q-40 3 -101 3l-77 -3l2 38l55 8q9 28 13 50l31 212l-69 -29l-14 33q80 56 93 66l35 35l48 -7q-22 -113 -26 -143l-22 -149q-5 -28 -5 -68zM559 721l44 -32l-528 -738l-44 32zM409 395q60 22 121 22t92 -23.5t31 -72.5t-44.5 -102.5t-178.5 -160.5h92
l55 6q16 25 17 30l7 26l42 -3l-21 -106l-18 -13q-57 2 -70 2h-186v55q140 119 181 167.5t41 91.5q0 25 -14.5 39.5t-41.5 14.5t-58 -16q-9 -23 -10 -28l-3 -28l-43 -2z" />
    <glyph glyph-name="threequarters" unicode="&#xbe;" horiz-adv-x="717" 
d="M179 704q115 0 115 -88q0 -75 -84 -113q33 -8 52.5 -32t19.5 -55q0 -67 -77 -118t-191 -62l-6 39q85 12 137.5 49.5t52.5 88.5q0 56 -60 56l-39 -2l-3 39q119 17 119 105q0 48 -46 48q-22 0 -47 -10l-8 -24l-4 -33l-43 -3l6 97q55 18 106 18zM592 721l44 -32l-528 -738
l-44 32zM615 451l47 -43q-78 -70 -89 -84l-138 -162h98l10 71l74 24l-13 -90l56 3l-8 -54h-56l-2 -17q-4 -25 -4 -56l43 -4l-9 -42q-42 3 -102 3l-75 -3l2 37l61 9q10 31 12 49l4 24h-137l-31 46z" />
    <glyph glyph-name="questiondown" unicode="&#xbf;" horiz-adv-x="403" 
d="M222 128q-69 0 -110.5 -51.5t-42.5 -131.5q1 -59 25 -94t69.5 -35t72.5 16l47 112l35 -8l-4 -111l-17 -26q-80 -33 -138 -33q-85 0 -132 45.5t-47 128.5q0 108 70 175t177 67h6l8 86l12 10l64 -12l-14 -125l-32 -17q-30 4 -49 4zM308 503q46 0 46 -50q0 -30 -18 -54.5
t-45 -24.5q-45 0 -45 49q0 30 17.5 55t44.5 25z" />
    <glyph glyph-name="Agrave" unicode="&#xc0;" horiz-adv-x="644" 
d="M612 54l-12 -54h-98l-142 -5l4 49l73 20l-10 108l-11 60h-212l-46 -105l-19 -63l66 -10l-12 -54h-85l-131 -5l3 49l63 17l56 99l250 545l60 10l120 -566l25 -85zM354 557l-125 -275l175 4zM247 825l30 73l222 -100l-20 -48l-85 37z" />
    <glyph glyph-name="Aacute" unicode="&#xc1;" horiz-adv-x="644" 
d="M612 54l-12 -54h-98l-142 -5l4 49l73 20l-10 108l-11 60h-212l-46 -105l-19 -63l66 -10l-12 -54h-85l-131 -5l3 49l63 17l56 99l250 545l60 10l120 -566l25 -85zM354 557l-125 -275l175 4zM508 898l29 -73q-128 -32 -147 -38l-85 -37l-20 48z" />
    <glyph glyph-name="Acircumflex" unicode="&#xc2;" horiz-adv-x="644" 
d="M612 54l-12 -54h-98l-142 -5l4 49l73 20l-10 108l-11 60h-212l-46 -105l-19 -63l66 -10l-12 -54h-85l-131 -5l3 49l63 17l56 99l250 545l60 10l120 -566l25 -85zM354 557l-125 -275l175 4zM405 893l153 -107l-28 -39l-79 41l-57 25q-9 -3 -24 -9t-26 -10t-16 -6l-91 -41
l-16 39z" />
    <glyph glyph-name="Atilde" unicode="&#xc3;" horiz-adv-x="644" 
d="M612 54l-12 -54h-98l-142 -5l4 49l73 20l-10 108l-11 60h-212l-46 -105l-19 -63l66 -10l-12 -54h-85l-131 -5l3 49l63 17l56 99l250 545l60 10l120 -566l25 -85zM354 557l-125 -275l175 4zM468.5 763q-18.5 0 -75.5 20.5t-73 20.5q-26 0 -53 -33l-9 -11l-32 21
q12 24 34 48q39 43 59.5 43t77.5 -20.5t73 -20.5q28 0 54 38l9 13l32 -21q-20 -36 -49 -67t-47.5 -31z" />
    <glyph glyph-name="Adieresis" unicode="&#xc4;" horiz-adv-x="644" 
d="M612 54l-12 -54h-98l-142 -5l4 49l73 20l-10 108l-11 60h-212l-46 -105l-19 -63l66 -10l-12 -54h-85l-131 -5l3 49l63 17l56 99l250 545l60 10l120 -566l25 -85zM354 557l-125 -275l175 4zM518 884q45 0 45 -48q0 -32 -16 -51.5t-46 -19.5q-45 0 -45 47q0 32 16 52t46 20
zM289 884q46 0 46 -48q0 -32 -16.5 -51.5t-46.5 -19.5q-45 0 -45 47q0 32 16 52t46 20z" />
    <glyph glyph-name="Aring" unicode="&#xc5;" horiz-adv-x="644" 
d="M612 54l-12 -54h-98l-142 -5l4 49l73 20l-10 108l-11 60h-212l-46 -105l-19 -63l66 -10l-12 -54h-85l-131 -5l3 49l63 17l56 99l250 545l60 10l120 -566l25 -85zM330.5 888.5q26.5 27.5 69.5 27.5q80 0 80 -71q0 -45 -25.5 -72.5t-68.5 -27.5q-82 0 -82 71
q0 45 26.5 72.5zM354 557l-125 -275l175 4zM400 878q-24 0 -36 -17t-12 -40q0 -38 34 -38q25 0 36.5 17t11.5 40q0 38 -34 38z" />
    <glyph glyph-name="AE" unicode="&#xc6;" horiz-adv-x="880" 
d="M732 648h-175q-4 -49 -6 -107l1 -155q54 -4 73 -4h47l59 9l19 66l43 -5l-12 -80l-14 -109l-47 -6l1 67q-57 6 -76 6h-28q-13 0 -65 -4l1 -152l7 -117h118q35 0 87 9q20 26 25 37q19 46 25 67l52 -5l-37 -151l-21 -18q-90 4 -110 4h-211l-116 -5l4 50l81 16q5 32 5 69v118
h-208l-88 -146q-3 -5 -8.5 -20t-8.5 -21l78 -7l-16 -59q-48 5 -126 5l-91 -5l3 50l60 16q57 65 73 92l299 491l-74 12l13 54q92 -5 111 -5h290l112 10l16 -18l-13 -136l-57 -5q0 32 -1.5 48t-15.5 39q-53 5 -78 5zM286 299l176 3l-1 254l-3 28z" />
    <glyph glyph-name="Ccedilla" unicode="&#xc7;" horiz-adv-x="593" 
d="M379 -80q24 -20 24 -59.5t-34.5 -67.5t-81 -28t-80.5 18l17 35q35 -11 58.5 -11t40 14.5t16.5 39.5q0 36 -39 36l-21 -1l-10 10l18 81q-114 10 -176 89t-62 205q0 193 97.5 316t271.5 123q76 0 174 -28q18 -5 22 -6l-31 -148l-58 4l7 47v10.5t-4 39.5q-64 23 -118 23
q-80 0 -140 -54.5t-89 -139t-29 -188t46.5 -170.5t129.5 -67q52 0 125 22q20 46 22 56l9 47l58 2l-16 -151q-122 -32 -195 -34l-15 -44q39 -1 63 -21z" />
    <glyph glyph-name="Egrave" unicode="&#xc8;" horiz-adv-x="572" 
d="M226 705h219l112 10l16 -18l-13 -136l-57 -5q0 32 -1.5 48.5t-15.5 39.5q-52 5 -78 5h-126q-17 -70 -23 -111l-21 -142q32 -2 41 -2h70l59 9l18 66l45 -5q-10 -64 -13 -84l-13 -109l-48 -6l1 67q-57 6 -76 6h-51q-17 0 -42 -3l-24 -168q-9 -60 -9 -110h138q36 0 86 9
q22 28 25 37q19 46 25 67l53 -5l-37 -151l-21 -18q-90 4 -110 4h-232l-114 -5l2 50l79 16q15 50 20 76l63 431q2 17 2 76l-73 12l13 54q91 -5 111 -5zM220 825l30 73l222 -100l-20 -48l-85 37z" />
    <glyph glyph-name="Eacute" unicode="&#xc9;" horiz-adv-x="572" 
d="M226 705h219l112 10l16 -18l-13 -136l-57 -5q0 32 -1.5 48.5t-15.5 39.5q-52 5 -78 5h-126q-17 -70 -23 -111l-21 -142q32 -2 41 -2h70l59 9l18 66l45 -5q-10 -64 -13 -84l-13 -109l-48 -6l1 67q-57 6 -76 6h-51q-17 0 -42 -3l-24 -168q-9 -60 -9 -110h138q36 0 86 9
q22 28 25 37q19 46 25 67l53 -5l-37 -151l-21 -18q-90 4 -110 4h-232l-114 -5l2 50l79 16q15 50 20 76l63 431q2 17 2 76l-73 12l13 54q91 -5 111 -5zM481 898l29 -73q-128 -32 -147 -38l-85 -37l-20 48z" />
    <glyph glyph-name="Ecircumflex" unicode="&#xca;" horiz-adv-x="572" 
d="M226 705h219l112 10l16 -18l-13 -136l-57 -5q0 32 -1.5 48.5t-15.5 39.5q-52 5 -78 5h-126q-17 -70 -23 -111l-21 -142q32 -2 41 -2h70l59 9l18 66l45 -5q-10 -64 -13 -84l-13 -109l-48 -6l1 67q-57 6 -76 6h-51q-17 0 -42 -3l-24 -168q-9 -60 -9 -110h138q36 0 86 9
q22 28 25 37q19 46 25 67l53 -5l-37 -151l-21 -18q-90 4 -110 4h-232l-114 -5l2 50l79 16q15 50 20 76l63 431q2 17 2 76l-73 12l13 54q91 -5 111 -5zM379 893l153 -107l-28 -39l-79 41l-57 25q-9 -3 -24 -9t-26 -10t-16 -6l-91 -41l-16 39z" />
    <glyph glyph-name="Edieresis" unicode="&#xcb;" horiz-adv-x="572" 
d="M226 705h219l112 10l16 -18l-13 -136l-57 -5q0 32 -1.5 48.5t-15.5 39.5q-52 5 -78 5h-126q-17 -70 -23 -111l-21 -142q32 -2 41 -2h70l59 9l18 66l45 -5q-10 -64 -13 -84l-13 -109l-48 -6l1 67q-57 6 -76 6h-51q-17 0 -42 -3l-24 -168q-9 -60 -9 -110h138q36 0 86 9
q22 28 25 37q19 46 25 67l53 -5l-37 -151l-21 -18q-90 4 -110 4h-232l-114 -5l2 50l79 16q15 50 20 76l63 431q2 17 2 76l-73 12l13 54q91 -5 111 -5zM492 884q45 0 45 -48q0 -32 -16 -51.5t-46 -19.5q-45 0 -45 47q0 32 16 52t46 20zM263 884q46 0 46 -48
q0 -32 -16.5 -51.5t-46.5 -19.5q-45 0 -45 47q0 32 16 52t46 20z" />
    <glyph glyph-name="Igrave" unicode="&#xcc;" horiz-adv-x="354" 
d="M368 710l-5 -59l-76 -7q-14 -48 -22 -106l-54 -371q-9 -63 -9 -106l85 -7l-15 -59q-64 5 -143 5l-114 -5l2 50l79 16q1 4 6 21q11 42 13 55l63 431q3 17 3 76l-73 12l13 54q91 -5 111 -5zM102 825l30 73l222 -100l-20 -48l-85 37z" />
    <glyph glyph-name="Iacute" unicode="&#xcd;" horiz-adv-x="354" 
d="M368 710l-5 -59l-76 -7q-14 -48 -22 -106l-54 -371q-9 -63 -9 -106l85 -7l-15 -59q-64 5 -143 5l-114 -5l2 50l79 16q1 4 6 21q11 42 13 55l63 431q3 17 3 76l-73 12l13 54q91 -5 111 -5zM362 898l29 -73q-128 -32 -147 -38l-85 -37l-20 48z" />
    <glyph glyph-name="Icircumflex" unicode="&#xce;" horiz-adv-x="354" 
d="M368 710l-5 -59l-76 -7q-14 -48 -22 -106l-54 -371q-9 -63 -9 -106l85 -7l-15 -59q-64 5 -143 5l-114 -5l2 50l79 16q1 4 6 21q11 42 13 55l63 431q3 17 3 76l-73 12l13 54q91 -5 111 -5zM260 893l153 -107l-28 -39l-79 41l-57 25q-9 -3 -24 -9t-26 -10t-16 -6l-91 -41
l-16 39z" />
    <glyph glyph-name="Eth" unicode="&#xd0;" horiz-adv-x="700" 
d="M288 -6l-163 6l-115 -5l3 50l78 16q18 58 20 76l29 200h-85l6 43h85l28 188q2 17 2 76l-72 12l13 54q61 -3 94 -5q25 1 85.5 5.5t96.5 4.5q140 0 214 -79t74 -219q0 -187 -108.5 -305t-284.5 -118zM298 53q135 0 211 104.5t76 253.5q0 108 -50 176t-149 68q-65 0 -105 -5
q-17 -64 -24 -112l-23 -158h139l-11 -43h-134l-25 -170q-9 -62 -9 -110q50 -4 104 -4z" />
    <glyph glyph-name="Ntilde" unicode="&#xd1;" horiz-adv-x="738" 
d="M788 710l-3 -53l-78 -16q-24 -64 -31 -113l-79 -535h-62l-297 563l-56 -389q-9 -54 -9 -106l77 -7l-16 -59q-41 5 -120 5l-105 -5l2 50l79 16q15 50 20 76l63 431q2 16 2 76l-75 12l12 54q91 -5 112 -5l45 1l16 -21q60 -133 71 -155l199 -367l58 395q3 24 3 83l-75 6
l14 60l80 -2zM506.5 763q-18.5 0 -75.5 20.5t-73 20.5q-26 0 -53 -33l-9 -11l-32 21q12 24 34 48q39 43 59.5 43t77.5 -20.5t73 -20.5q28 0 54 38l9 13l32 -21q-20 -36 -49 -67t-47.5 -31z" />
    <glyph glyph-name="Ograve" unicode="&#xd2;" horiz-adv-x="719" 
d="M701 420q0 -191 -99.5 -313t-277.5 -122q-133 0 -204 81t-71 218q0 192 99.5 314t277.5 122q133 0 204 -81.5t71 -218.5zM185.5 470q-29.5 -86 -29.5 -191t44 -173t127.5 -68t145 55t91.5 141t30 191.5t-43.5 173.5t-128 68t-146 -55.5t-91 -141.5zM274 825l30 73
l222 -100l-20 -48l-85 37z" />
    <glyph glyph-name="Oacute" unicode="&#xd3;" horiz-adv-x="719" 
d="M701 420q0 -191 -99.5 -313t-277.5 -122q-133 0 -204 81t-71 218q0 192 99.5 314t277.5 122q133 0 204 -81.5t71 -218.5zM185.5 470q-29.5 -86 -29.5 -191t44 -173t127.5 -68t145 55t91.5 141t30 191.5t-43.5 173.5t-128 68t-146 -55.5t-91 -141.5zM535 898l29 -73
q-128 -32 -147 -38l-85 -37l-20 48z" />
    <glyph glyph-name="Ocircumflex" unicode="&#xd4;" horiz-adv-x="719" 
d="M701 420q0 -191 -99.5 -313t-277.5 -122q-133 0 -204 81t-71 218q0 192 99.5 314t277.5 122q133 0 204 -81.5t71 -218.5zM185.5 470q-29.5 -86 -29.5 -191t44 -173t127.5 -68t145 55t91.5 141t30 191.5t-43.5 173.5t-128 68t-146 -55.5t-91 -141.5zM432 893l153 -107
l-28 -39l-79 41l-57 25q-9 -3 -24 -9t-26 -10t-16 -6l-91 -41l-16 39z" />
    <glyph glyph-name="Otilde" unicode="&#xd5;" horiz-adv-x="719" 
d="M701 420q0 -191 -99.5 -313t-277.5 -122q-133 0 -204 81t-71 218q0 192 99.5 314t277.5 122q133 0 204 -81.5t71 -218.5zM185.5 470q-29.5 -86 -29.5 -191t44 -173t127.5 -68t145 55t91.5 141t30 191.5t-43.5 173.5t-128 68t-146 -55.5t-91 -141.5zM496 763
q-18 0 -75 20.5t-73 20.5q-27 0 -54 -33l-9 -11l-32 21q12 24 34 48q39 43 59 43t78 -20.5t74 -20.5q27 0 53 38l9 13l32 -21q-20 -36 -49 -67t-47 -31z" />
    <glyph glyph-name="multiply" unicode="&#xd7;" horiz-adv-x="541" 
d="M281 300l177 157l45 -53l-177 -156l136 -154l-61 -53l-134 155l-179 -156l-43 50l177 158l-135 157l57 50z" />
    <glyph glyph-name="Oslash" unicode="&#xd8;" horiz-adv-x="715" 
d="M697 421q0 -191 -100.5 -313.5t-277.5 -122.5q-79 0 -141 32l-100 -153l-35 23l100 153q-95 77 -95 243q0 192 100 314.5t278 122.5q81 0 141 -33l99 151l38 -23l-100 -152q93 -78 93 -242zM181.5 470.5q-29.5 -85.5 -29.5 -189.5t39 -168l335 512q-44 42 -108 42
q-83 0 -145 -55.5t-91.5 -141zM563 234q30 86 30 187.5t-38 166.5l-336 -510q42 -40 116 -40t136 55t92 141z" />
    <glyph glyph-name="Ugrave" unicode="&#xd9;" horiz-adv-x="707" 
d="M319 -15q-123 0 -178 75q-41 57 -41 145q0 29 4 61l44 297q3 25 3 81l-74 12l12 54q91 -5 111 -5l143 5l-5 -59l-77 -7q-13 -47 -23 -111l-39 -267q-4 -29 -4 -54q0 -62 24 -104q34 -59 116 -59t134.5 59.5t66.5 157.5l44 297q2 17 2 81l-74 12l13 54q81 -5 102 -5l129 5
l-4 -59l-77 -7q-12 -35 -24 -111l-39 -267q-18 -131 -92 -206t-197 -75zM289 825l30 73l222 -100l-20 -48l-85 37z" />
    <glyph glyph-name="Uacute" unicode="&#xda;" horiz-adv-x="707" 
d="M319 -15q-123 0 -178 75q-41 57 -41 145q0 29 4 61l44 297q3 25 3 81l-74 12l12 54q91 -5 111 -5l143 5l-5 -59l-77 -7q-13 -47 -23 -111l-39 -267q-4 -29 -4 -54q0 -62 24 -104q34 -59 116 -59t134.5 59.5t66.5 157.5l44 297q2 17 2 81l-74 12l13 54q81 -5 102 -5l129 5
l-4 -59l-77 -7q-12 -35 -24 -111l-39 -267q-18 -131 -92 -206t-197 -75zM550 898l29 -73q-128 -32 -147 -38l-85 -37l-20 48z" />
    <glyph glyph-name="Ucircumflex" unicode="&#xdb;" horiz-adv-x="707" 
d="M319 -15q-123 0 -178 75q-41 57 -41 145q0 29 4 61l44 297q3 25 3 81l-74 12l12 54q91 -5 111 -5l143 5l-5 -59l-77 -7q-13 -47 -23 -111l-39 -267q-4 -29 -4 -54q0 -62 24 -104q34 -59 116 -59t134.5 59.5t66.5 157.5l44 297q2 17 2 81l-74 12l13 54q81 -5 102 -5l129 5
l-4 -59l-77 -7q-12 -35 -24 -111l-39 -267q-18 -131 -92 -206t-197 -75zM447 893l153 -107l-28 -39l-79 41l-57 25q-9 -3 -24 -9t-26 -10t-16 -6l-91 -41l-16 39z" />
    <glyph glyph-name="Udieresis" unicode="&#xdc;" horiz-adv-x="707" 
d="M319 -15q-123 0 -178 75q-41 57 -41 145q0 29 4 61l44 297q3 25 3 81l-74 12l12 54q91 -5 111 -5l143 5l-5 -59l-77 -7q-13 -47 -23 -111l-39 -267q-4 -29 -4 -54q0 -62 24 -104q34 -59 116 -59t134.5 59.5t66.5 157.5l44 297q2 17 2 81l-74 12l13 54q81 -5 102 -5l129 5
l-4 -59l-77 -7q-12 -35 -24 -111l-39 -267q-18 -131 -92 -206t-197 -75zM560 884q45 0 45 -48q0 -32 -16 -51.5t-46 -19.5q-45 0 -45 47q0 32 16 52t46 20zM331 884q46 0 46 -48q0 -32 -16.5 -51.5t-46.5 -19.5q-45 0 -45 47q0 32 16 52t46 20z" />
    <glyph glyph-name="Thorn" unicode="&#xde;" horiz-adv-x="567" 
d="M406 573q90 0 139 -44.5t49 -130.5q0 -116 -79.5 -182.5t-192.5 -66.5q-30 0 -86 2q-6 -46 -6 -90l86 -7l-15 -59q-63 5 -141 5l-115 -5l3 50l78 16q18 58 20 76l63 431q2 17 2 76l-72 12l13 54q92 -5 111 -5l134 5l-5 -59l-77 -7q-6 -16 -17 -77q74 6 108 6zM309 199
q88 0 140.5 49t52.5 140q0 66 -38 100.5t-107 34.5q-14 0 -68 -6l-45 -313q40 -5 65 -5z" />
    <glyph glyph-name="germandbls" unicode="&#xdf;" horiz-adv-x="505" 
d="M473 740q33 -30 33 -88q0 -38 -19 -71t-46 -56.5t-53 -45.5q-65 -54 -65 -96q0 -37 52 -80q22 -18 43 -39q52 -49 52 -114t-49 -112.5t-106.5 -47.5t-93.5 20t-52 44l39 64q47 -78 102 -78q37 0 59 21t22 51.5t-14.5 51.5t-35.5 39.5t-41 38.5q-50 50 -50 115
q0 37 18.5 68.5t44.5 53.5t52 43q63 51 63 109q0 76 -81 76q-28 0 -62.5 -13t-43.5 -26q-34 -50 -53 -174q-7 -44 -32 -226t-40 -277.5t-88 -160.5t-194 -65l-28 1l25 67q27 -5 55 -5t68.5 13.5t48.5 26.5q47 77 93 486q14 119 17 139q9 69 33.5 121t53.5 81t66 47
q59 28 116.5 28t90.5 -30z" />
    <glyph glyph-name="agrave" unicode="&#xe0;" horiz-adv-x="529" 
d="M234 40.5q-52 -51.5 -103 -51.5q-101 0 -101 145v5q0 75 34.5 161.5t87 145t99.5 58.5q27 0 71 -6.5t53 -7.5l59 14l24 -16q-30 -122 -46.5 -216t-19.5 -202l89 -5l-3 -36l-153 -44l-26 15q15 68 29 178q-42 -86 -94 -137.5zM165 55q29 0 69.5 56t74 141t42.5 159
q-78 35 -114 35q-24 0 -51.5 -48t-46 -118.5t-18.5 -121t12 -77t32 -26.5zM411 605l-32 -41l-71 60l-117 71l46 60z" />
    <glyph glyph-name="aacute" unicode="&#xe1;" horiz-adv-x="529" 
d="M234 40.5q-52 -51.5 -103 -51.5q-101 0 -101 145v5q0 75 34.5 161.5t87 145t99.5 58.5q27 0 71 -6.5t53 -7.5l59 14l24 -16q-30 -122 -46.5 -216t-19.5 -202l89 -5l-3 -36l-153 -44l-26 15q15 68 29 178q-42 -86 -94 -137.5zM165 55q29 0 69.5 56t74 141t42.5 159
q-78 35 -114 35q-24 0 -51.5 -48t-46 -118.5t-18.5 -121t12 -77t32 -26.5zM402 755l45 -60q-103 -60 -117 -71l-71 -60l-32 41z" />
    <glyph glyph-name="acircumflex" unicode="&#xe2;" horiz-adv-x="529" 
d="M234 40.5q-52 -51.5 -103 -51.5q-101 0 -101 145v5q0 75 34.5 161.5t87 145t99.5 58.5q27 0 71 -6.5t53 -7.5l59 14l24 -16q-30 -122 -46.5 -216t-19.5 -202l89 -5l-3 -36l-153 -44l-26 15q15 68 29 178q-42 -86 -94 -137.5zM165 55q29 0 69.5 56t74 141t42.5 159
q-78 35 -114 35q-24 0 -51.5 -48t-46 -118.5t-18.5 -121t12 -77t32 -26.5zM337 765l136 -169l-37 -32l-63 61l-51 43q-15 -10 -38 -25.5t-26 -17.5l-80 -61l-27 32z" />
    <glyph glyph-name="atilde" unicode="&#xe3;" horiz-adv-x="529" 
d="M234 40.5q-52 -51.5 -103 -51.5q-101 0 -101 145v5q0 75 34.5 161.5t87 145t99.5 58.5q27 0 71 -6.5t53 -7.5l59 14l24 -16q-30 -122 -46.5 -216t-19.5 -202l89 -5l-3 -36l-153 -44l-26 15q15 68 29 178q-42 -86 -94 -137.5zM165 55q29 0 69.5 56t74 141t42.5 159
q-78 35 -114 35q-24 0 -51.5 -48t-46 -118.5t-18.5 -121t12 -77t32 -26.5zM388.5 604q-18.5 0 -70.5 20.5t-67.5 20.5t-30.5 -13.5t-24 -27.5l-9 -13l-32 21q21 38 49.5 69.5t47 31.5t71 -20.5t67.5 -20.5q26 0 54 38l9 13l32 -21q-20 -36 -49 -67t-47.5 -31z" />
    <glyph glyph-name="adieresis" unicode="&#xe4;" horiz-adv-x="529" 
d="M234 40.5q-52 -51.5 -103 -51.5q-101 0 -101 145v5q0 75 34.5 161.5t87 145t99.5 58.5q27 0 71 -6.5t53 -7.5l59 14l24 -16q-30 -122 -46.5 -216t-19.5 -202l89 -5l-3 -36l-153 -44l-26 15q15 68 29 178q-42 -86 -94 -137.5zM165 55q29 0 69.5 56t74 141t42.5 159
q-78 35 -114 35q-24 0 -51.5 -48t-46 -118.5t-18.5 -121t12 -77t32 -26.5zM443 713q44 0 44 -48q0 -32 -15.5 -51.5t-45.5 -19.5q-45 0 -45 47q0 32 16 52t46 20zM214 713q45 0 45 -48q0 -32 -16.5 -51.5t-45.5 -19.5q-45 0 -45 47q0 32 16 52t46 20z" />
    <glyph glyph-name="aring" unicode="&#xe5;" horiz-adv-x="529" 
d="M234 40.5q-52 -51.5 -103 -51.5q-101 0 -101 145v5q0 75 34.5 161.5t87 145t99.5 58.5q27 0 71 -6.5t53 -7.5l59 14l24 -16q-30 -122 -46.5 -216t-19.5 -202l89 -5l-3 -36l-153 -44l-26 15q15 68 29 178q-42 -86 -94 -137.5zM165 55q29 0 69.5 56t74 141t42.5 159
q-78 35 -114 35q-24 0 -51.5 -48t-46 -118.5t-18.5 -121t12 -77t32 -26.5zM259.5 723.5q26.5 27.5 69.5 27.5q80 0 80 -71q0 -45 -25.5 -72.5t-68.5 -27.5q-82 0 -82 71q0 45 26.5 72.5zM329 713q-24 0 -36 -17t-12 -40q0 -38 34 -38q25 0 36.5 17t11.5 40q0 38 -34 38z" />
    <glyph glyph-name="ae" unicode="&#xe6;" horiz-adv-x="666" 
d="M510 503q145 0 145 -79q0 -76 -70 -132.5t-195 -81.5q-5 -35 -5 -61q0 -99 60 -99q81 0 156 103l31 -23q-85 -140 -220 -140q-105 0 -114 127q-81 -127 -165 -127q-104 0 -104 149q0 75 35.5 161t88 144.5t93.5 58.5t206 -25q31 25 58 25zM163 50q32 0 75 58t77.5 144.5
t42.5 161.5q-74 35 -121 35q-37 0 -79 -104.5t-42 -196.5q0 -44 13 -71t34 -27zM506 444q-27 0 -58 -57t-49 -132q78 17 126 56t48 87q0 25 -15.5 35.5t-51.5 10.5z" />
    <glyph glyph-name="ccedilla" unicode="&#xe7;" horiz-adv-x="397" 
d="M143 444.5q48 58.5 88 58.5t149 -14l15 -24l-38 -147l-36 2l-6 95q-60 21 -84 21q-34 0 -72.5 -99.5t-38.5 -191.5t60 -92q78 0 154 101l32 -24q-78 -127 -199 -139l-17 -50q39 -1 63 -21t24 -59.5t-34.5 -67.5t-81 -28t-80.5 18l17 35q35 -11 58.5 -11t40 14.5
t16.5 39.5q0 36 -39 36l-21 -1l-10 10l19 85q-93 14 -93 143v5q0 74 33 160.5t81 145z" />
    <glyph glyph-name="egrave" unicode="&#xe8;" horiz-adv-x="402" 
d="M244 503q147 0 147 -80q0 -76 -70.5 -132.5t-196.5 -81.5q-4 -28 -4 -60q0 -97 60 -97q79 0 154 102l33 -25q-42 -67 -99.5 -103.5t-118.5 -36.5q-122 0 -120 150q0 75 35 161t86 144.5t94 58.5zM288 431.5q-15 10.5 -45.5 10.5t-61 -56t-48.5 -131q76 17 123 55.5
t47 86.5q0 24 -15 34.5zM403 605l-32 -41l-71 60l-117 71l46 60z" />
    <glyph glyph-name="eacute" unicode="&#xe9;" horiz-adv-x="402" 
d="M244 503q147 0 147 -80q0 -76 -70.5 -132.5t-196.5 -81.5q-4 -28 -4 -60q0 -97 60 -97q79 0 154 102l33 -25q-42 -67 -99.5 -103.5t-118.5 -36.5q-122 0 -120 150q0 75 35 161t86 144.5t94 58.5zM288 431.5q-15 10.5 -45.5 10.5t-61 -56t-48.5 -131q76 17 123 55.5
t47 86.5q0 24 -15 34.5zM375 755l45 -60q-103 -60 -117 -71l-71 -60l-32 41z" />
    <glyph glyph-name="ecircumflex" unicode="&#xea;" horiz-adv-x="402" 
d="M244 503q147 0 147 -80q0 -76 -70.5 -132.5t-196.5 -81.5q-4 -28 -4 -60q0 -97 60 -97q79 0 154 102l33 -25q-42 -67 -99.5 -103.5t-118.5 -36.5q-122 0 -120 150q0 75 35 161t86 144.5t94 58.5zM310 765l136 -169l-37 -32l-63 61l-51 43q-15 -10 -38 -25.5t-26 -17.5
l-80 -61l-27 32zM288 431.5q-15 10.5 -45.5 10.5t-61 -56t-48.5 -131q76 17 123 55.5t47 86.5q0 24 -15 34.5z" />
    <glyph glyph-name="edieresis" unicode="&#xeb;" horiz-adv-x="402" 
d="M244 503q147 0 147 -80q0 -76 -70.5 -132.5t-196.5 -81.5q-4 -28 -4 -60q0 -97 60 -97q79 0 154 102l33 -25q-42 -67 -99.5 -103.5t-118.5 -36.5q-122 0 -120 150q0 75 35 161t86 144.5t94 58.5zM288 431.5q-15 10.5 -45.5 10.5t-61 -56t-48.5 -131q76 17 123 55.5
t47 86.5q0 24 -15 34.5zM187 713q45 0 45 -48q0 -32 -16.5 -51.5t-45.5 -19.5q-45 0 -45 47q0 32 16 52t46 20zM416 713q44 0 44 -48q0 -32 -15.5 -51.5t-45.5 -19.5q-45 0 -45 47q0 32 16 52t46 20z" />
    <glyph glyph-name="igrave" unicode="&#xec;" horiz-adv-x="296" 
d="M211 503l21 -19q-31 -110 -73 -415l90 -5l-3 -35l-160 -44l-25 15q33 132 46.5 214.5t24.5 204.5l-83 4l-1 37zM294 605l-32 -41l-71 60l-117 71l46 60z" />
    <glyph glyph-name="iacute" unicode="&#xed;" horiz-adv-x="296" 
d="M211 503l21 -19q-31 -110 -73 -415l90 -5l-3 -35l-160 -44l-25 15q33 132 46.5 214.5t24.5 204.5l-83 4l-1 37zM286 755l45 -60q-103 -60 -117 -71l-71 -60l-32 41z" />
    <glyph glyph-name="icircumflex" unicode="&#xee;" horiz-adv-x="296" 
d="M211 503l21 -19q-31 -110 -73 -415l90 -5l-3 -35l-160 -44l-25 15q33 132 46.5 214.5t24.5 204.5l-83 4l-1 37zM221 765l136 -169l-37 -32l-63 61l-51 43q-15 -10 -38 -25.5t-26 -17.5l-80 -61l-27 32z" />
    <glyph glyph-name="eth" unicode="&#xf0;" horiz-adv-x="479" 
d="M372 124q-30 -59 -79.5 -96.5t-110.5 -37.5q-149 0 -149 170q0 125 68 230q32 50 80 81.5t96 31.5t77 -14q-8 66 -31 123l-129 -62l-17 35l130 63q-20 39 -62 97l46 20q41 -49 67 -93l127 62l16 -37l-124 -60q57 -114 57 -252t-62 -261zM360 394l-1 41q-37 21 -78 21
t-73 -28t-50 -72q-36 -88 -36 -185q0 -134 64 -134q45 0 80.5 37t54.5 94q39 119 39 226z" />
    <glyph glyph-name="ntilde" unicode="&#xf1;" horiz-adv-x="573" 
d="M422 504q72 0 72 -82q0 -45 -24.5 -167t-28.5 -185l92 -5l-3 -36l-171 -44l-25 15q66 284 66 375q0 52 -34 52q-40 0 -102.5 -92.5t-95.5 -233.5l-14 -101l-68 -15l-26 15q33 130 47 214t25 204l-83 4v39l165 43l23 -20q-17 -56 -37 -170q40 78 98 134t124 56zM432.5 604
q-18.5 0 -70.5 20.5t-67.5 20.5t-30.5 -13.5t-24 -27.5l-9 -13l-32 21q21 38 49.5 69.5t47 31.5t71 -20.5t68 -20.5t30.5 13t23 25l9 13l32 -21q-20 -36 -49 -67t-47.5 -31z" />
    <glyph glyph-name="ograve" unicode="&#xf2;" horiz-adv-x="472" 
d="M294 504q70 0 107.5 -45t37.5 -128q0 -138 -78 -240t-184 -102q-70 0 -107.5 45.5t-37.5 128.5q0 137 78 239t184 102zM277 447q-65 0 -106.5 -81.5t-41.5 -200.5t65 -119t106.5 81.5t41.5 200.5t-65 119zM420 605l-32 -41l-71 60l-117 71l46 60z" />
    <glyph glyph-name="oacute" unicode="&#xf3;" horiz-adv-x="472" 
d="M294 504q70 0 107.5 -45t37.5 -128q0 -138 -78 -240t-184 -102q-70 0 -107.5 45.5t-37.5 128.5q0 137 78 239t184 102zM277 447q-65 0 -106.5 -81.5t-41.5 -200.5t65 -119t106.5 81.5t41.5 200.5t-65 119zM411 755l45 -60q-103 -60 -117 -71l-71 -60l-32 41z" />
    <glyph glyph-name="ocircumflex" unicode="&#xf4;" horiz-adv-x="472" 
d="M294 504q70 0 107.5 -45t37.5 -128q0 -138 -78 -240t-184 -102q-70 0 -107.5 45.5t-37.5 128.5q0 137 78 239t184 102zM277 447q-65 0 -106.5 -81.5t-41.5 -200.5t65 -119t106.5 81.5t41.5 200.5t-65 119zM346 765l136 -169l-37 -32l-63 61l-51 43q-15 -10 -38 -25.5
t-26 -17.5l-80 -61l-27 32z" />
    <glyph glyph-name="otilde" unicode="&#xf5;" horiz-adv-x="472" 
d="M294 504q70 0 107.5 -45t37.5 -128q0 -138 -78 -240t-184 -102q-70 0 -107.5 45.5t-37.5 128.5q0 137 78 239t184 102zM277 447q-65 0 -106.5 -81.5t-41.5 -200.5t65 -119t106.5 81.5t41.5 200.5t-65 119zM397.5 604q-18.5 0 -70.5 20.5t-67.5 20.5t-30.5 -13.5
t-24 -27.5l-9 -13l-32 21q21 38 49.5 69.5t47 31.5t71 -20.5t68.5 -20.5q25 0 53 38l9 13l32 -21q-20 -36 -49 -67t-47.5 -31z" />
    <glyph glyph-name="divide" unicode="&#xf7;" horiz-adv-x="545" 
d="M57 279l436 5l-10 -71h-435zM257 119q44 0 46 -50q0 -30 -18 -54.5t-45 -24.5q-44 0 -46 49q1 31 18.5 55.5t44.5 24.5zM306 498q47 0 47 -50q-1 -30 -19 -54.5t-45 -24.5q-45 0 -45 49q1 31 18 55.5t44 24.5z" />
    <glyph glyph-name="oslash" unicode="&#xf8;" horiz-adv-x="472" 
d="M294 504q42 0 74 -17l74 111l38 -20l-79 -118q38 -46 38 -129q0 -138 -78 -240t-184 -102q-45 0 -79 20l-72 -108l-37 20l78 116q-35 46 -35 126q0 137 78 239t184 102zM342 333q0 14 -2 36l-196 -292q16 -31 50 -31q65 0 106.5 81.5t41.5 205.5zM277 447
q-65 0 -106.5 -81.5t-41.5 -206.5q0 -19 1 -27l194 289q-17 26 -47 26z" />
    <glyph glyph-name="ugrave" unicode="&#xf9;" horiz-adv-x="560" 
d="M138 -11q-35 0 -53.5 26t-18.5 65t26 154t32 184l-83 4v39l166 43l22 -20q-68 -257 -70 -365q0 -51 34 -51q40 0 99.5 88.5t103.5 270.5l9 61l73 16l24 -16q-37 -143 -53 -226.5t-26 -192.5l89 -4l-3 -36l-164 -44l-26 15q19 67 40 185q-46 -89 -103.5 -142.5
t-117.5 -53.5zM416 605l-32 -41l-71 60l-117 71l46 60z" />
    <glyph glyph-name="uacute" unicode="&#xfa;" horiz-adv-x="560" 
d="M138 -11q-35 0 -53.5 26t-18.5 65t26 154t32 184l-83 4v39l166 43l22 -20q-68 -257 -70 -365q0 -51 34 -51q40 0 99.5 88.5t103.5 270.5l9 61l73 16l24 -16q-37 -143 -53 -226.5t-26 -192.5l89 -4l-3 -36l-164 -44l-26 15q19 67 40 185q-46 -89 -103.5 -142.5
t-117.5 -53.5zM408 755l45 -60q-103 -60 -117 -71l-71 -60l-32 41z" />
    <glyph glyph-name="ucircumflex" unicode="&#xfb;" horiz-adv-x="560" 
d="M138 -11q-35 0 -53.5 26t-18.5 65t26 154t32 184l-83 4v39l166 43l22 -20q-68 -257 -70 -365q0 -51 34 -51q40 0 99.5 88.5t103.5 270.5l9 61l73 16l24 -16q-37 -143 -53 -226.5t-26 -192.5l89 -4l-3 -36l-164 -44l-26 15q19 67 40 185q-46 -89 -103.5 -142.5
t-117.5 -53.5zM342 765l136 -169l-37 -32l-63 61l-51 43q-15 -10 -38 -25.5t-26 -17.5l-80 -61l-27 32z" />
    <glyph glyph-name="udieresis" unicode="&#xfc;" horiz-adv-x="560" 
d="M138 -11q-35 0 -53.5 26t-18.5 65t26 154t32 184l-83 4v39l166 43l22 -20q-68 -257 -70 -365q0 -51 34 -51q40 0 99.5 88.5t103.5 270.5l9 61l73 16l24 -16q-37 -143 -53 -226.5t-26 -192.5l89 -4l-3 -36l-164 -44l-26 15q19 67 40 185q-46 -89 -103.5 -142.5
t-117.5 -53.5zM219 713q45 0 45 -48q0 -32 -16.5 -51.5t-45.5 -19.5q-45 0 -45 47q0 32 16 52t46 20zM448 713q44 0 44 -48q0 -32 -15.5 -51.5t-45.5 -19.5q-45 0 -45 47q0 32 16 52t46 20z" />
    <glyph glyph-name="thorn" unicode="&#xfe;" horiz-adv-x="487" 
d="M360 503q101 0 101 -149q0 -75 -35 -161t-87 -144.5t-98 -58.5q-17 0 -64.5 6t-50.5 6q-24 -174 -33 -264l-63 -15l-26 15q37 136 80.5 451t61.5 503l-84 13l-2 37l162 28l22 -19l-55 -33l55 33q-26 -136 -68 -413q41 76 88.5 120.5t95.5 44.5zM329 443q-29 0 -71 -58
t-76.5 -145.5t-41.5 -161.5q72 -34 115 -34q37 0 78 104t41 197q0 44 -12.5 71t-32.5 27z" />
    <glyph glyph-name="ydieresis" unicode="&#xff;" horiz-adv-x="528" 
d="M216.5 -223q-43.5 -12 -83.5 -12t-80 6t-56 14l32 78q71 -26 129 -26t95 12.5t50 23.5q10 11 21 71t33 239q-46 -88 -102.5 -141t-116.5 -53q-35 0 -53.5 26t-18.5 65t26 154t32 184l-83 4v39l166 43l22 -20q-70 -270 -70 -365q0 -51 34 -51q44 0 103.5 94.5t97.5 255.5
l-80 4l-6 39l158 43l24 -16q-41 -160 -62 -322q-5 -45 -17 -152q-8 -69 -37.5 -120t-71.5 -78t-85.5 -39zM444 713q44 0 44 -48q0 -32 -15.5 -51.5t-45.5 -19.5q-45 0 -45 47q0 32 16 52t46 20zM215 713q45 0 45 -48q0 -32 -16.5 -51.5t-45.5 -19.5q-45 0 -45 47q0 32 16 52
t46 20z" />
    <glyph glyph-name="Amacron" unicode="&#x100;" horiz-adv-x="644" 
d="M612 54l-12 -54h-98l-142 -5l4 49l73 20l-10 108l-11 60h-212l-46 -105l-19 -63l66 -10l-12 -54h-85l-131 -5l3 49l63 17l56 99l250 545l60 10l120 -566l25 -85zM354 557l-125 -275l175 4zM538 781h-308l8 53h313z" />
    <glyph glyph-name="amacron" unicode="&#x101;" horiz-adv-x="529" 
d="M234 40.5q-52 -51.5 -103 -51.5q-101 0 -101 145v5q0 75 34.5 161.5t87 145t99.5 58.5q27 0 71 -6.5t53 -7.5l59 14l24 -16q-30 -122 -46.5 -216t-19.5 -202l89 -5l-3 -36l-153 -44l-26 15q15 68 29 178q-42 -86 -94 -137.5zM165 55q29 0 69.5 56t74 141t42.5 159
q-78 35 -114 35q-24 0 -51.5 -48t-46 -118.5t-18.5 -121t12 -77t32 -26.5zM467 606h-308l8 53h313z" />
    <glyph glyph-name="Abreve" unicode="&#x102;" horiz-adv-x="644" 
d="M612 54l-12 -54h-98l-142 -5l4 49l73 20l-10 108l-11 60h-212l-46 -105l-19 -63l66 -10l-12 -54h-85l-131 -5l3 49l63 17l56 99l250 545l60 10l120 -566l25 -85zM354 557l-125 -275l175 4zM474.5 794q-39.5 -36 -105 -36t-95.5 36q-22 27 -22 72q0 15 3 32h54
q-1 -8 -1 -15q0 -28 16.5 -48.5t53 -20.5t62 23t30.5 61h54q-10 -68 -49.5 -104z" />
    <glyph glyph-name="abreve" unicode="&#x103;" horiz-adv-x="529" 
d="M234 40.5q-52 -51.5 -103 -51.5q-101 0 -101 145v5q0 75 34.5 161.5t87 145t99.5 58.5q27 0 71 -6.5t53 -7.5l59 14l24 -16q-30 -122 -46.5 -216t-19.5 -202l89 -5l-3 -36l-153 -44l-26 15q15 68 29 178q-42 -86 -94 -137.5zM165 55q29 0 69.5 56t74 141t42.5 159
q-78 35 -114 35q-24 0 -51.5 -48t-46 -118.5t-18.5 -121t12 -77t32 -26.5zM415.5 623q-39.5 -36 -105 -36t-94.5 36q-23 27 -23 72q0 15 3 32h54q-1 -8 -1 -15q0 -28 16.5 -48.5t53 -20.5t62 23t30.5 61h54q-10 -68 -49.5 -104z" />
    <glyph glyph-name="Aogonek" unicode="&#x104;" horiz-adv-x="641" 
d="M343 -110q0 -20 12 -32.5t35 -12.5t55 13l9 -33q-50 -22 -88.5 -22t-62 19t-23.5 56t19.5 62t74.5 69t55 108q0 17 -4 55l-11 60h-213l-46 -105l-20 -63l67 -10l-13 -54h-83l-132 -5l3 49l64 17l56 99l253 545l57 10l118 -566l25 -85l59 -10l-13 -54h-140
q-48 -6 -80.5 -40.5t-32.5 -69.5zM350 557l-125 -275l178 4z" />
    <glyph glyph-name="aogonek" unicode="&#x105;" horiz-adv-x="529" 
d="M276 -115q0 -40 46 -40q25 0 57 13l8 -33q-47 -22 -86.5 -22t-63.5 19.5t-24 55.5t17.5 60.5t68.5 63.5q22 120 29 176q-42 -86 -94 -137.5t-103 -51.5q-101 0 -101 145v5q0 75 34.5 161.5t87 145t99.5 58.5q27 0 71 -6.5t53 -7.5l59 14l24 -16q-30 -122 -46.5 -216
t-19.5 -202l89 -5l-3 -36l-150 -43q-52 -57 -52 -101zM165 55q29 0 69.5 56t74 141t42.5 159q-78 35 -114 35q-24 0 -51.5 -48t-46 -118.5t-18.5 -121t12 -77t32 -26.5z" />
    <glyph glyph-name="Cacute" unicode="&#x106;" horiz-adv-x="593" 
d="M321 -15q-129 0 -200.5 80.5t-71.5 215.5q0 193 97.5 316t271.5 123q76 0 174 -28q18 -5 22 -6l-31 -148l-58 4l7 47v10.5t-4 39.5q-64 23 -118 23q-80 0 -140 -54.5t-89 -139t-29 -188t46.5 -170.5t129.5 -67q52 0 125 22q20 46 22 56l9 47l58 2l-16 -151
q-26 -9 -43.5 -12t-38 -8t-30.5 -6t-28 -3q-32 -5 -65 -5zM531 898l29 -73q-128 -32 -147 -38l-85 -37l-20 48z" />
    <glyph glyph-name="cacute" unicode="&#x107;" horiz-adv-x="397" 
d="M143 444.5q48 58.5 88 58.5t149 -14l15 -24l-38 -147l-36 2l-6 95q-60 21 -84 21q-34 0 -72.5 -99.5t-38.5 -191.5t60 -92q78 0 154 101l32 -24q-87 -141 -222 -141q-57 0 -86.5 38.5t-29 112t33.5 160t81 145zM377 755l45 -60q-103 -60 -117 -71l-71 -60l-32 41z" />
    <glyph glyph-name="Ccircumflex" unicode="&#x108;" horiz-adv-x="593" 
d="M321 -15q-129 0 -200.5 80.5t-71.5 215.5q0 193 97.5 316t271.5 123q76 0 174 -28q18 -5 22 -6l-31 -148l-58 4l7 47v10.5t-4 39.5q-64 23 -118 23q-80 0 -140 -54.5t-89 -139t-29 -188t46.5 -170.5t129.5 -67q52 0 125 22q20 46 22 56l9 47l58 2l-16 -151
q-26 -9 -43.5 -12t-38 -8t-30.5 -6t-28 -3q-32 -5 -65 -5zM429 893l153 -107l-28 -39l-79 41l-57 25q-9 -3 -24 -9t-26 -10t-16 -6l-91 -41l-16 39z" />
    <glyph glyph-name="ccircumflex" unicode="&#x109;" horiz-adv-x="397" 
d="M143 444.5q48 58.5 88 58.5t149 -14l15 -24l-38 -147l-36 2l-6 95q-60 21 -84 21q-34 0 -72.5 -99.5t-38.5 -191.5t60 -92q78 0 154 101l32 -24q-87 -141 -222 -141q-57 0 -86.5 38.5t-29 112t33.5 160t81 145zM311 765l136 -169l-37 -32l-63 61l-51 43
q-15 -10 -38 -25.5t-26 -17.5l-80 -61l-27 32z" />
    <glyph glyph-name="Cdotaccent" unicode="&#x10a;" horiz-adv-x="593" 
d="M321 -15q-129 0 -200.5 80.5t-71.5 215.5q0 193 97.5 316t271.5 123q76 0 174 -28q18 -5 22 -6l-31 -148l-58 4l7 47v10.5t-4 39.5q-64 23 -118 23q-80 0 -140 -54.5t-89 -139t-29 -188t46.5 -170.5t129.5 -67q52 0 125 22q20 46 22 56l9 47l58 2l-16 -151
q-26 -9 -43.5 -12t-38 -8t-30.5 -6t-28 -3q-32 -5 -65 -5zM385.5 868.5q18.5 21.5 45.5 21.5q53 0 53 -53q0 -33 -19 -54.5t-46 -21.5q-52 0 -52 53q0 33 18.5 54.5z" />
    <glyph glyph-name="cdotaccent" unicode="&#x10b;" horiz-adv-x="397" 
d="M143 444.5q48 58.5 88 58.5t149 -14l15 -24l-38 -147l-36 2l-6 95q-60 21 -84 21q-34 0 -72.5 -99.5t-38.5 -191.5t60 -92q78 0 154 101l32 -24q-87 -141 -222 -141q-57 0 -86.5 38.5t-29 112t33.5 160t81 145zM254.5 698.5q18.5 21.5 45.5 21.5q53 0 53 -53
q0 -33 -19 -54.5t-46 -21.5q-52 0 -52 53q0 33 18.5 54.5z" />
    <glyph glyph-name="Ccaron" unicode="&#x10c;" horiz-adv-x="593" 
d="M321 -15q-129 0 -200.5 80.5t-71.5 215.5q0 193 97.5 316t271.5 123q76 0 174 -28q18 -5 22 -6l-31 -148l-58 4l7 47v10.5t-4 39.5q-64 23 -118 23q-80 0 -140 -54.5t-89 -139t-29 -188t46.5 -170.5t129.5 -67q52 0 125 22q20 46 22 56l9 47l58 2l-16 -151
q-26 -9 -43.5 -12t-38 -8t-30.5 -6t-28 -3q-32 -5 -65 -5zM575 893l17 -39l-184 -107l-153 107l27 39l80 -41l58 -25q44 18 65 25z" />
    <glyph glyph-name="ccaron" unicode="&#x10d;" horiz-adv-x="397" 
d="M143 444.5q48 58.5 88 58.5t149 -14l15 -24l-38 -147l-36 2l-6 95q-60 21 -84 21q-34 0 -72.5 -99.5t-38.5 -191.5t60 -92q78 0 154 101l32 -24q-87 -141 -222 -141q-57 0 -86.5 38.5t-29 112t33.5 160t81 145zM182 765l62 -61q1 -1 50 -43l65 43l81 61l27 -32l-186 -169
l-136 169z" />
    <glyph glyph-name="Dcaron" unicode="&#x10e;" horiz-adv-x="700" 
d="M298 -6l-175 6l-114 -5l2 50l79 16q15 50 20 76l63 431q2 17 2 76l-73 12l13 54q61 -3 95 -5q25 1 81.5 5.5t91.5 4.5q141 0 219.5 -79.5t78.5 -217.5q0 -189 -103.5 -306.5t-279.5 -117.5zM385 655q-61 0 -103 -5q-14 -55 -23 -112l-54 -371q-10 -70 -10 -88t1 -22
q48 -4 111 -4q91 0 155 51q120 98 120 308q0 108 -49.5 175.5t-147.5 67.5zM550 893l17 -39l-184 -107l-153 107l27 39l80 -41l58 -25q44 18 65 25z" />
    <glyph glyph-name="dcaron" unicode="&#x10f;" horiz-adv-x="550" 
d="M541 756h77l-48 -243l-56 3l15 94zM129 -11q-99 0 -99 150q0 75 35 161.5t87.5 145t98.5 58.5q11 0 112 -13q16 132 21 200l-84 12l-2 39l166 28l23 -20q-10 -57 -32.5 -184t-30.5 -181q-27 -170 -29 -315l89 -5l-3 -36l-155 -44l-26 15q24 134 28 178
q-42 -86 -94.5 -137.5t-104.5 -51.5zM237 446q-24 0 -51.5 -48t-46 -118.5t-18.5 -121t12 -77t32 -26.5q29 0 70 56.5t74.5 141t41.5 158.5q-74 35 -114 35z" />
    <glyph glyph-name="Dcroat" unicode="&#x110;" horiz-adv-x="700" 
d="M288 -6l-163 6l-115 -5l3 50l78 16q18 58 20 76l29 200h-85l6 43h85l28 188q2 17 2 76l-72 12l13 54q61 -3 94 -5q25 1 85.5 5.5t96.5 4.5q140 0 214 -79t74 -219q0 -187 -108.5 -305t-284.5 -118zM298 53q135 0 211 104.5t76 253.5q0 108 -50 176t-149 68q-65 0 -105 -5
q-17 -64 -24 -112l-23 -158h139l-11 -43h-134l-25 -170q-9 -62 -9 -110q50 -4 104 -4z" />
    <glyph glyph-name="dcroat" unicode="&#x111;" horiz-adv-x="532" 
d="M129 -11q-99 0 -99 150q0 75 35 161.5t87.5 145t98.5 58.5q11 0 112 -13q6 48 8 72h-113l7 44h111l8 84l-84 12l-2 39l166 28l23 -20l-25 -143h78l-7 -44h-80q-29 -163 -43 -269t-15 -224l89 -5l-3 -36l-155 -44l-26 15q24 134 28 178q-42 -86 -94.5 -137.5t-104.5 -51.5
zM237 446q-24 0 -51.5 -48t-46 -118.5t-18.5 -121t12 -77t32 -26.5q29 0 70 56.5t74.5 141t41.5 158.5q-74 35 -114 35z" />
    <glyph glyph-name="Emacron" unicode="&#x112;" horiz-adv-x="572" 
d="M226 705h219l112 10l16 -18l-13 -136l-57 -5q0 32 -1.5 48.5t-15.5 39.5q-52 5 -78 5h-126q-17 -70 -23 -111l-21 -142q32 -2 41 -2h70l59 9l18 66l45 -5q-10 -64 -13 -84l-13 -109l-48 -6l1 67q-57 6 -76 6h-51q-17 0 -42 -3l-24 -168q-9 -60 -9 -110h138q36 0 86 9
q22 28 25 37q19 46 25 67l53 -5l-37 -151l-21 -18q-90 4 -110 4h-232l-114 -5l2 50l79 16q15 50 20 76l63 431q2 17 2 76l-73 12l13 54q91 -5 111 -5zM517 781h-308l8 53h313z" />
    <glyph glyph-name="emacron" unicode="&#x113;" horiz-adv-x="402" 
d="M244 503q147 0 147 -80q0 -76 -70.5 -132.5t-196.5 -81.5q-4 -28 -4 -60q0 -97 60 -97q79 0 154 102l33 -25q-42 -67 -99.5 -103.5t-118.5 -36.5q-122 0 -120 150q0 75 35 161t86 144.5t94 58.5zM288 431.5q-15 10.5 -45.5 10.5t-61 -56t-48.5 -131q76 17 123 55.5
t47 86.5q0 24 -15 34.5zM440 606h-308l8 53h313z" />
    <glyph glyph-name="Ebreve" unicode="&#x114;" horiz-adv-x="572" 
d="M226 705h219l112 10l16 -18l-13 -136l-57 -5q0 32 -1.5 48.5t-15.5 39.5q-52 5 -78 5h-126q-17 -70 -23 -111l-21 -142q32 -2 41 -2h70l59 9l18 66l45 -5q-10 -64 -13 -84l-13 -109l-48 -6l1 67q-57 6 -76 6h-51q-17 0 -42 -3l-24 -168q-9 -60 -9 -110h138q36 0 86 9
q22 28 25 37q19 46 25 67l53 -5l-37 -151l-21 -18q-90 4 -110 4h-232l-114 -5l2 50l79 16q15 50 20 76l63 431q2 17 2 76l-73 12l13 54q91 -5 111 -5zM464.5 794q-39.5 -36 -105 -36t-95.5 36q-22 27 -22 72q0 15 3 32h54q-1 -8 -1 -15q0 -28 16.5 -48.5t53 -20.5t62 23
t30.5 61h54q-10 -68 -49.5 -104z" />
    <glyph glyph-name="ebreve" unicode="&#x115;" horiz-adv-x="402" 
d="M244 503q147 0 147 -80q0 -76 -70.5 -132.5t-196.5 -81.5q-4 -28 -4 -60q0 -97 60 -97q79 0 154 102l33 -25q-42 -67 -99.5 -103.5t-118.5 -36.5q-122 0 -120 150q0 75 35 161t86 144.5t94 58.5zM388.5 623q-39.5 -36 -105 -36t-95.5 36q-22 27 -22 72q0 15 3 32h54
q-1 -8 -1 -15q0 -28 16.5 -48.5t53 -20.5t62 23t30.5 61h54q-10 -68 -49.5 -104zM288 431.5q-15 10.5 -45.5 10.5t-61 -56t-48.5 -131q76 17 123 55.5t47 86.5q0 24 -15 34.5z" />
    <glyph glyph-name="Edotaccent" unicode="&#x116;" horiz-adv-x="572" 
d="M226 705h219l112 10l16 -18l-13 -136l-57 -5q0 32 -1.5 48.5t-15.5 39.5q-52 5 -78 5h-126q-17 -70 -23 -111l-21 -142q32 -2 41 -2h70l59 9l18 66l45 -5q-10 -64 -13 -84l-13 -109l-48 -6l1 67q-57 6 -76 6h-51q-17 0 -42 -3l-24 -168q-9 -60 -9 -110h138q36 0 86 9
q22 28 25 37q19 46 25 67l53 -5l-37 -151l-21 -18q-90 4 -110 4h-232l-114 -5l2 50l79 16q15 50 20 76l63 431q2 17 2 76l-73 12l13 54q91 -5 111 -5zM335.5 868.5q18.5 21.5 45.5 21.5q53 0 53 -53q0 -33 -19 -54.5t-46 -21.5q-52 0 -52 53q0 33 18.5 54.5z" />
    <glyph glyph-name="edotaccent" unicode="&#x117;" horiz-adv-x="402" 
d="M244 503q147 0 147 -80q0 -76 -70.5 -132.5t-196.5 -81.5q-4 -28 -4 -60q0 -97 60 -97q79 0 154 102l33 -25q-42 -67 -99.5 -103.5t-118.5 -36.5q-122 0 -120 150q0 75 35 161t86 144.5t94 58.5zM288 431.5q-15 10.5 -45.5 10.5t-61 -56t-48.5 -131q76 17 123 55.5
t47 86.5q0 24 -15 34.5zM253.5 698.5q18.5 21.5 45.5 21.5q53 0 53 -53q0 -33 -19 -54.5t-46 -21.5q-52 0 -52 53q0 33 18.5 54.5z" />
    <glyph glyph-name="Eogonek" unicode="&#x118;" horiz-adv-x="572" 
d="M226 705h219l112 10l16 -18l-13 -136l-57 -5q0 32 -1.5 48.5t-15.5 39.5q-52 5 -78 5h-126q-17 -70 -23 -111l-21 -142q32 -2 41 -2h70l59 9l18 66l45 -5q-10 -64 -13 -84l-13 -109l-48 -6l1 67q-57 6 -76 6h-51q-17 0 -42 -3l-24 -168q-9 -60 -9 -110h138q36 0 86 9
q22 28 25 37q19 46 25 67l53 -5l-37 -151l-16 -14l30 -4h-16q-65 0 -101 -34.5t-36 -71.5q0 -20 12 -32.5t35 -12.5t55 13l9 -33q-47 -22 -87 -22t-63.5 19t-23.5 55t17 60t65 63h-243l-114 -5l2 50l79 16q15 50 20 76l63 431q2 17 2 76l-73 12l13 54q91 -5 111 -5z" />
    <glyph glyph-name="eogonek" unicode="&#x119;" horiz-adv-x="402" 
d="M244 503q147 0 147 -80q0 -76 -70.5 -132.5t-196.5 -81.5q-4 -28 -4 -60q0 -97 60 -97q79 0 154 102l33 -25q-63 -101 -156 -130q-67 -56 -67 -115q0 -39 46 -39q24 0 56 13l8 -33q-47 -22 -86.5 -22t-63.5 19.5t-24 54t14.5 57t54.5 55.5h-4q-57 0 -87 38t-29.5 112.5
t35.5 160.5t86 144.5t94 58.5zM288 431.5q-15 10.5 -45.5 10.5t-61 -56t-48.5 -131q76 17 123 55.5t47 86.5q0 24 -15 34.5z" />
    <glyph glyph-name="Ecaron" unicode="&#x11a;" horiz-adv-x="572" 
d="M226 705h219l112 10l16 -18l-13 -136l-57 -5q0 32 -1.5 48.5t-15.5 39.5q-52 5 -78 5h-126q-17 -70 -23 -111l-21 -142q32 -2 41 -2h70l59 9l18 66l45 -5q-10 -64 -13 -84l-13 -109l-48 -6l1 67q-57 6 -76 6h-51q-17 0 -42 -3l-24 -168q-9 -60 -9 -110h138q36 0 86 9
q22 28 25 37q19 46 25 67l53 -5l-37 -151l-21 -18q-90 4 -110 4h-232l-114 -5l2 50l79 16q15 50 20 76l63 431q2 17 2 76l-73 12l13 54q91 -5 111 -5zM525 893l17 -39l-184 -107l-153 107l27 39l80 -41l58 -25q44 18 65 25z" />
    <glyph glyph-name="ecaron" unicode="&#x11b;" horiz-adv-x="402" 
d="M244 503q147 0 147 -80q0 -76 -70.5 -132.5t-196.5 -81.5q-4 -28 -4 -60q0 -97 60 -97q79 0 154 102l33 -25q-42 -67 -99.5 -103.5t-118.5 -36.5q-122 0 -120 150q0 75 35 161t86 144.5t94 58.5zM181 765l62 -61q1 -1 50 -43l65 43l81 61l27 -32l-186 -169l-136 169z
M288 431.5q-15 10.5 -45.5 10.5t-61 -56t-48.5 -131q76 17 123 55.5t47 86.5q0 24 -15 34.5z" />
    <glyph glyph-name="Gcircumflex" unicode="&#x11c;" horiz-adv-x="646" 
d="M434 720q77 0 209 -34l-32 -148l-56 6l6 45q1 3 1 12t-5 37q-76 24 -134 24q-127 0 -199.5 -109.5t-72.5 -265.5q0 -108 50.5 -176t141.5 -68q52 0 127 20q19 56 21 65l10 68v71l-101 8l13 58h108l71 3l15 -17q-24 -103 -31 -153l-21 -147q-6 -1 -25 -6t-26.5 -6.5
t-25 -5.5t-27 -5.5t-26 -4t-29.5 -3.5q-37 -3 -59 -3q-137 0 -212.5 81.5t-75.5 217.5q0 192 102 314t283 122zM452 893l153 -107l-28 -39l-79 41l-57 25q-9 -3 -24 -9t-26 -10t-16 -6l-91 -41l-16 39z" />
    <glyph glyph-name="gcircumflex" unicode="&#x11d;" horiz-adv-x="506" 
d="M196.5 -223q-43.5 -12 -83 -12t-79.5 6t-56 14l31 78q73 -26 130.5 -26t95 12.5t48 23t18.5 45t9 57.5t5 51.5t10.5 73t10.5 77.5q-41 -86 -93 -137t-103 -51q-101 0 -101 146q0 76 34.5 163t87 146.5t99.5 59.5q19 0 72 -7l52 -7l60 14l24 -16q-30 -113 -43 -198
q-24 -168 -33 -276q-8 -69 -37.5 -120t-72 -78t-86 -39zM246 446q-36 0 -76.5 -102.5t-40.5 -193.5q0 -42 12.5 -68.5t32.5 -26.5q29 0 69.5 56t74 141t42.5 159q-74 35 -114 35zM332 765l136 -169l-37 -32l-63 61l-51 43q-15 -10 -38 -25.5t-26 -17.5l-80 -61l-27 32z" />
    <glyph glyph-name="Gbreve" unicode="&#x11e;" horiz-adv-x="646" 
d="M434 720q77 0 209 -34l-32 -148l-56 6l6 45q1 3 1 12t-5 37q-76 24 -134 24q-127 0 -199.5 -109.5t-72.5 -265.5q0 -108 50.5 -176t141.5 -68q52 0 127 20q19 56 21 65l10 68v71l-101 8l13 58h108l71 3l15 -17q-24 -103 -31 -153l-21 -147q-6 -1 -25 -6t-26.5 -6.5
t-25 -5.5t-27 -5.5t-26 -4t-29.5 -3.5q-37 -3 -59 -3q-137 0 -212.5 81.5t-75.5 217.5q0 192 102 314t283 122zM537.5 794q-39.5 -36 -105 -36t-94.5 36q-23 27 -23 72q0 15 3 32h54q-1 -8 -1 -15q0 -28 16.5 -48.5t53 -20.5t62 23t30.5 61h54q-10 -68 -49.5 -104z" />
    <glyph glyph-name="gbreve" unicode="&#x11f;" horiz-adv-x="506" 
d="M196.5 -223q-43.5 -12 -83 -12t-79.5 6t-56 14l31 78q73 -26 130.5 -26t95 12.5t48 23t18.5 45t9 57.5t5 51.5t10.5 73t10.5 77.5q-41 -86 -93 -137t-103 -51q-101 0 -101 146q0 76 34.5 163t87 146.5t99.5 59.5q19 0 72 -7l52 -7l60 14l24 -16q-30 -113 -43 -198
q-24 -168 -33 -276q-8 -69 -37.5 -120t-72 -78t-86 -39zM246 446q-36 0 -76.5 -102.5t-40.5 -193.5q0 -42 12.5 -68.5t32.5 -26.5q29 0 69.5 56t74 141t42.5 159q-74 35 -114 35zM410.5 623q-39.5 -36 -105 -36t-95.5 36q-22 27 -22 72q0 15 3 32h54q-1 -8 -1 -15
q0 -28 16.5 -48.5t53 -20.5t62 23t30.5 61h54q-10 -68 -49.5 -104z" />
    <glyph glyph-name="Gdotaccent" unicode="&#x120;" horiz-adv-x="646" 
d="M434 720q77 0 209 -34l-32 -148l-56 6l6 45q1 3 1 12t-5 37q-76 24 -134 24q-127 0 -199.5 -109.5t-72.5 -265.5q0 -108 50.5 -176t141.5 -68q52 0 127 20q19 56 21 65l10 68v71l-101 8l13 58h108l71 3l15 -17q-24 -103 -31 -153l-21 -147q-6 -1 -25 -6t-26.5 -6.5
t-25 -5.5t-27 -5.5t-26 -4t-29.5 -3.5q-37 -3 -59 -3q-137 0 -212.5 81.5t-75.5 217.5q0 192 102 314t283 122zM408.5 868.5q18.5 21.5 45.5 21.5q53 0 53 -53q0 -33 -19 -54.5t-46 -21.5q-52 0 -52 53q0 33 18.5 54.5z" />
    <glyph glyph-name="gdotaccent" unicode="&#x121;" horiz-adv-x="506" 
d="M196.5 -223q-43.5 -12 -83 -12t-79.5 6t-56 14l31 78q73 -26 130.5 -26t95 12.5t48 23t18.5 45t9 57.5t5 51.5t10.5 73t10.5 77.5q-41 -86 -93 -137t-103 -51q-101 0 -101 146q0 76 34.5 163t87 146.5t99.5 59.5q19 0 72 -7l52 -7l60 14l24 -16q-30 -113 -43 -198
q-24 -168 -33 -276q-8 -69 -37.5 -120t-72 -78t-86 -39zM246 446q-36 0 -76.5 -102.5t-40.5 -193.5q0 -42 12.5 -68.5t32.5 -26.5q29 0 69.5 56t74 141t42.5 159q-74 35 -114 35zM275.5 698.5q18.5 21.5 45.5 21.5q53 0 53 -53q0 -33 -19 -54.5t-46 -21.5q-52 0 -52 53
q0 33 18.5 54.5z" />
    <glyph glyph-name="Gcommaaccent" unicode="&#x122;" horiz-adv-x="646" 
d="M434 720q77 0 209 -34l-32 -148l-56 6l6 45q1 3 1 12t-5 37q-76 24 -134 24q-127 0 -199.5 -109.5t-72.5 -265.5q0 -108 50.5 -176t141.5 -68q52 0 127 20q19 56 21 65l10 68v71l-101 8l13 58h108l71 3l15 -17q-24 -103 -31 -153l-21 -147q-6 -1 -25 -6t-26.5 -6.5
t-25 -5.5t-27 -5.5t-26 -4t-29.5 -3.5q-37 -3 -59 -3q-137 0 -212.5 81.5t-75.5 217.5q0 192 102 314t283 122zM317 -168q-25 12 -25 43t18 49t40 18q41 0 41 -51q0 -27 -16.5 -64.5t-32.5 -61.5l-17 -24l-34 12q23 53 26 79z" />
    <glyph glyph-name="gcommaaccent" unicode="&#x123;" horiz-adv-x="506" 
d="M196.5 -223q-43.5 -12 -83 -12t-79.5 6t-56 14l31 78q73 -26 130.5 -26t95 12.5t48 23t18.5 45t9 57.5t5 51.5t10.5 73t10.5 77.5q-41 -86 -93 -137t-103 -51q-101 0 -101 146q0 76 34.5 163t87 146.5t99.5 59.5q19 0 72 -7l52 -7l60 14l24 -16q-30 -113 -43 -198
q-24 -168 -33 -276q-8 -69 -37.5 -120t-72 -78t-86 -39zM246 446q-36 0 -76.5 -102.5t-40.5 -193.5q0 -42 12.5 -68.5t32.5 -26.5q29 0 69.5 56t74 141t42.5 159q-74 35 -114 35zM338 665q25 -13 25 -43.5t-18 -48.5t-40 -18q-41 0 -41 51q0 27 16.5 64.5t33.5 61.5l16 24
l34 -12q-23 -53 -26 -79z" />
    <glyph glyph-name="Hcircumflex" unicode="&#x124;" horiz-adv-x="752" 
d="M772 710l-5 -59l-76 -7q-14 -48 -22 -106l-54 -371q-9 -63 -9 -106l85 -7l-15 -59q-64 5 -143 5l-114 -5l2 50l79 16q1 4 6 21q11 42 13 55l28 190h-319l-23 -160q-9 -63 -9 -106l86 -7l-16 -59q-64 5 -143 5l-114 -5l2 50l79 16q15 50 20 76l63 431q2 17 2 76l-73 12
l13 54q91 -5 111 -5l136 5l-4 -59l-77 -7q-14 -48 -22 -106l-23 -160l319 5l27 185q3 17 3 76l-73 12l13 54q91 -5 111 -5zM469 893l153 -107l-28 -39l-79 41l-57 25q-9 -3 -24 -9t-26 -10t-16 -6l-91 -41l-16 39z" />
    <glyph glyph-name="hcircumflex" unicode="&#x125;" horiz-adv-x="551" 
d="M401 504q72 0 72 -82q0 -45 -24.5 -167t-28.5 -185l92 -5l-3 -36l-171 -44l-25 15q66 284 66 375q0 52 -33 52q-40 0 -102 -88.5t-96 -222.5q-3 -21 -15 -116l-68 -15l-26 15q33 122 64 332t43 359l-83 12l-3 39l166 28l23 -20q-57 -319 -75 -438q41 78 100.5 135
t126.5 57zM211 924l153 -107l-28 -39l-79 41l-57 25q-9 -3 -24 -9t-26 -10t-16 -6l-91 -41l-16 39z" />
    <glyph glyph-name="Hbar" unicode="&#x126;" horiz-adv-x="752" 
d="M772 710l-5 -59l-76 -7q-13 -45 -21 -101h95l-6 -44h-96l-48 -332q-9 -63 -9 -106l85 -7l-15 -59q-64 5 -143 5l-114 -5l2 50l79 16q1 4 6 21q11 42 13 55l28 190h-319l-23 -160q-9 -63 -9 -106l86 -7l-16 -59q-64 5 -143 5l-114 -5l2 50l79 16q15 50 20 76l53 362h-87
l6 44h87l4 25q2 17 2 76l-73 12l13 54q91 -5 111 -5l136 5l-4 -59l-77 -7q-13 -45 -21 -101h318l4 25q3 17 3 76l-73 12l13 54q91 -5 111 -5zM236 378l319 5l17 116h-319z" />
    <glyph glyph-name="hbar" unicode="&#x127;" horiz-adv-x="551" 
d="M400 504q72 0 72 -82q0 -45 -24.5 -167t-28.5 -185l92 -5l-3 -36l-171 -44l-25 15q66 284 66 375q0 52 -33 52q-40 0 -102 -88.5t-96 -222.5q-3 -21 -15 -116l-68 -15l-26 15q55 207 94 563h-80l7 44h78l8 84l-83 12l-3 39l166 28l23 -20l-26 -143h112l-7 -44h-113
q-30 -177 -41 -251q41 78 100.5 135t126.5 57z" />
    <glyph glyph-name="Imacron" unicode="&#x12a;" horiz-adv-x="354" 
d="M408 781h-246l8 53h251zM368 710l-5 -59l-76 -7q-14 -48 -22 -106l-54 -371q-9 -63 -9 -106l85 -7l-15 -59q-64 5 -143 5l-114 -5l2 50l79 16q1 4 6 21q11 42 13 55l63 431q3 17 3 76l-73 12l13 54q91 -5 111 -5z" />
    <glyph glyph-name="imacron" unicode="&#x12b;" horiz-adv-x="296" 
d="M341 606h-246l8 53h251zM206 503l21 -19q-31 -110 -73 -415l90 -5l-3 -35l-160 -44l-25 15q33 132 46.5 214.5t24.5 204.5l-83 4l-1 37z" />
    <glyph glyph-name="Ibreve" unicode="&#x12c;" horiz-adv-x="354" 
d="M368 710l-5 -59l-76 -7q-14 -48 -22 -106l-54 -371q-9 -63 -9 -106l85 -7l-15 -59q-64 5 -143 5l-114 -5l2 50l79 16q1 4 6 21q11 42 13 55l63 431q3 17 3 76l-73 12l13 54q91 -5 111 -5zM345.5 794q-39.5 -36 -105 -36t-94.5 36q-23 27 -23 72q0 15 3 32h54
q-1 -8 -1 -15q0 -28 16.5 -48.5t53 -20.5t62 23t30.5 61h54q-10 -68 -49.5 -104z" />
    <glyph glyph-name="ibreve" unicode="&#x12d;" horiz-adv-x="296" 
d="M211 503l21 -19q-31 -110 -73 -415l90 -5l-3 -35l-160 -44l-25 15q33 132 46.5 214.5t24.5 204.5l-83 4l-1 37zM299.5 623q-39.5 -36 -105 -36t-94.5 36q-23 27 -23 72q0 15 3 32h54q-1 -8 -1 -15q0 -28 16.5 -48.5t53 -20.5t62 23t30.5 61h54q-10 -68 -49.5 -104z" />
    <glyph glyph-name="Iogonek" unicode="&#x12e;" horiz-adv-x="350" 
d="M33 -110q0 -20 12.5 -32.5t35.5 -12.5t55 13l9 -33q-49 -22 -88 -22t-63 19.5t-24 55.5q0 30 9.5 44.5t13.5 19.5t14.5 15t16.5 15.5t22 19.5l24 21q19 17 27.5 40.5t17.5 81.5v2l63 431q2 17 2 76l-73 12l13 54q92 -5 112 -5l134 5l-5 -59l-77 -7q-13 -45 -23 -106
l-54 -371q-8 -56 -8 -106l86 -7l-16 -59q-55 5 -123 5q-48 -6 -80.5 -40.5t-32.5 -69.5z" />
    <glyph glyph-name="iogonek" unicode="&#x12f;" horiz-adv-x="301" 
d="M24 -111q0 -19 11 -31.5t32 -12.5t50 13l9 -33q-47 -22 -83.5 -22t-59 19.5t-22.5 55.5q0 40 27 72q17 19 35.5 37.5t29.5 30t20 30.5q39 164 59 370l-82 4l-1 39l165 43l23 -20q-34 -123 -73 -414l89 -5l-3 -36l-118 -31v-1q-108 -26 -108 -108zM211 722q48 0 48 -51
q0 -31 -18.5 -55.5t-46.5 -24.5q-46 0 -46 50q0 30 18 55.5t45 25.5z" />
    <glyph glyph-name="Idotaccent" unicode="&#x130;" horiz-adv-x="354" 
d="M368 710l-5 -59l-76 -7q-14 -48 -22 -106l-54 -371q-9 -63 -9 -106l85 -7l-15 -59q-64 5 -143 5l-114 -5l2 50l79 16q1 4 6 21q11 42 13 55l63 431q3 17 3 76l-73 12l13 54q91 -5 111 -5zM216.5 868.5q18.5 21.5 45.5 21.5q53 0 53 -53q0 -33 -19 -54.5t-46 -21.5
q-52 0 -52 53q0 33 18.5 54.5z" />
    <glyph glyph-name="dotlessi" unicode="&#x131;" horiz-adv-x="300" 
d="M213 503l21 -19q-31 -110 -73 -415l90 -5l-3 -35l-160 -44l-25 15q33 132 46.5 214.5t24.5 204.5l-83 4l-1 37z" />
    <glyph glyph-name="IJ" unicode="&#x132;" horiz-adv-x="585" 
d="M222 705h265l134 5l-6 -59l-76 -7q-13 -45 -23 -106l-79 -548q-4 -27 -161 -190l-30 22q103 169 106 189l81 557q2 17 2 76l-79 12l-82 -12q-13 -45 -23 -106l-54 -371q-8 -56 -8 -106l86 -7l-16 -59q-63 5 -140 5l-116 -5l4 50l78 16q18 58 20 76l63 431q2 17 2 76
l-73 12l13 54q92 -5 112 -5z" />
    <glyph glyph-name="ij" unicode="&#x133;" horiz-adv-x="533" 
d="M209 720q46 0 46 -50q0 -30 -18 -54.5t-45 -24.5q-45 0 -45 49q0 30 17.5 55t44.5 25zM464 720q46 0 46 -50q0 -30 -18 -54.5t-45 -24.5q-45 0 -45 49q0 30 17.5 55t44.5 25zM140 -10q-66 0 -66 79q0 44 23.5 160.5t29.5 189.5l-84 4v37l163 43l21 -19q-70 -275 -70 -368
q0 -52 35 -52q38 0 92.5 77t92.5 211l18 67l-81 4l-6 38l155 42l24 -15q-23 -79 -50 -256.5t-39 -246.5q-7 -43 -151 -220l-29 26q111 186 116 222q8 53 22 167q-45 -87 -101.5 -138.5t-114.5 -51.5z" />
    <glyph glyph-name="Jcircumflex" unicode="&#x134;" horiz-adv-x="324" 
d="M353 651l-76 -7q-14 -48 -22 -106l-80 -548q-4 -30 -162 -190l-31 22q102 169 105 189l81 557q3 17 3 76l-73 12l13 54q91 -5 111 -5l136 5zM244 893l153 -107l-28 -39l-79 41l-57 25q-9 -3 -24 -9t-26 -10t-16 -6l-91 -41l-16 39z" />
    <glyph glyph-name="jcircumflex" unicode="&#x135;" horiz-adv-x="263" 
d="M196 503l21 -19q-23 -83 -49 -254t-38 -245q-6 -38 -151 -220l-29 26q31 54 64.5 123.5t40.5 99.5q44 183 62 405l-83 4l-1 37zM210 765l136 -169l-37 -32l-63 61l-51 43q-15 -10 -38 -25.5t-26 -17.5l-80 -61l-27 32z" />
    <glyph glyph-name="Kcommaaccent" unicode="&#x136;" horiz-adv-x="679" 
d="M642 54l-15 -59q-60 5 -139 5l-123 -5l2 50l59 14q-36 79 -53 105l-131 189l208 224l47 68l-50 11l13 54q81 -5 102 -5l125 5l-4 -59l-74 -7q-47 -39 -112 -98l-154 -176q10 -15 73.5 -104.5t95.5 -136.5q12 -16 64 -68zM362 710l-5 -59l-76 -7q-14 -48 -22 -106
l-54 -371q-9 -63 -9 -106l85 -7l-15 -59q-64 5 -143 5l-114 -5l3 50l78 16q15 50 20 76l63 431q2 17 2 76l-72 12l12 54q91 -5 111 -5zM307 -168q-25 12 -25 43t18 49t40 18q41 0 41 -51q0 -27 -16.5 -64.5t-32.5 -61.5l-17 -24l-34 12q23 53 26 79z" />
    <glyph glyph-name="kcommaaccent" unicode="&#x137;" horiz-adv-x="494" 
d="M399 504q69 0 67 -80q0 -67 -51 -123t-139 -88q49 -83 108 -143l92 -5l-3 -37l-145 -48l-130 212v38q90 27 140 71t49 95q2 31 -27 31q-58 0 -120 -88.5t-92 -215.5q-9 -53 -17 -123l-68 -15l-26 15q30 111 62 319.5t45 371.5l-84 12l-1 39l166 28l23 -20
q-60 -337 -74 -433q44 88 104 137.5t121 49.5zM250 -168q-25 12 -25 43t18 49t40 18q41 0 41 -51q0 -27 -16.5 -64.5t-33.5 -61.5l-16 -24l-34 12q23 53 26 79z" />
    <glyph glyph-name="kgreenlandic" unicode="&#x138;" horiz-adv-x="569" 
d="M395 437l-41 8l13 52q64 -3 83 -3l124 5l-6 -58l-73 -8q-80 -42 -106 -67l-91 -87l111 -150q4 -6 77 -69l60 -6l-16 -59q-46 5 -124 5l-99 -2l3 50l57 11l-157 206zM165 494h56l16 -18q-22 -103 -29 -153l-23 -156l-8 -106l74 -7l-15 -59q-47 5 -125 5l-108 -5l3 50
l76 16q17 56 20 76l31 216l3 76l-72 16l13 53q69 -4 88 -4z" />
    <glyph glyph-name="Lacute" unicode="&#x139;" horiz-adv-x="519" 
d="M196 57h113q37 0 86 9q23 29 25 37q19 48 24 67l54 -5l-37 -151l-21 -18q-91 4 -110 4h-207l-114 -5l2 50l79 16q15 50 20 76l63 431q2 17 2 76l-73 12l13 54q91 -5 111 -5l136 5l-4 -59l-77 -7q-14 -48 -22 -106l-54 -371q-9 -61 -9 -110zM358 898l29 -73
q-128 -32 -147 -38l-85 -37l-20 48z" />
    <glyph glyph-name="lacute" unicode="&#x13a;" horiz-adv-x="277" 
d="M225 770l23 -20q-78 -440 -108 -680l89 -5l-3 -36l-162 -44l-26 15q33 122 64 332t43 359l-83 12l-3 39zM303 949l29 -73q-128 -32 -147 -38l-85 -37l-20 48z" />
    <glyph glyph-name="Lcommaaccent" unicode="&#x13b;" horiz-adv-x="519" 
d="M196 57h113q37 0 86 9q23 29 25 37q19 48 24 67l54 -5l-37 -151l-21 -18q-91 4 -110 4h-207l-114 -5l2 50l79 16q15 50 20 76l63 431q2 17 2 76l-73 12l13 54q91 -5 111 -5l136 5l-4 -59l-77 -7q-14 -48 -22 -106l-54 -371q-9 -61 -9 -110zM239 -168q-25 12 -25 43t18 49
t40 18q41 0 41 -51q0 -27 -16.5 -64.5t-32.5 -61.5l-17 -24l-34 12q23 53 26 79z" />
    <glyph glyph-name="lcommaaccent" unicode="&#x13c;" horiz-adv-x="277" 
d="M225 770l23 -20q-78 -440 -108 -680l89 -5l-3 -36l-162 -44l-26 15q33 122 64 332t43 359l-83 12l-3 39zM102 -168q-25 12 -25 43t18 49t40 18q41 0 41 -51q0 -27 -16.5 -64.5t-33.5 -61.5l-16 -24l-34 12q23 53 26 79z" />
    <glyph glyph-name="Lcaron" unicode="&#x13d;" horiz-adv-x="518" 
d="M427 607h86l-49 -243l-55 3l14 94zM196 57h113q37 0 86 9q23 29 25 37q19 48 24 67l54 -5l-37 -151l-21 -18q-91 4 -110 4h-207l-114 -5l2 50l79 16q15 50 20 76l63 431q2 17 2 76l-73 12l13 54q91 -5 111 -5l136 5l-4 -59l-77 -7q-14 -48 -22 -106l-54 -371
q-9 -61 -9 -110z" />
    <glyph glyph-name="lcaron" unicode="&#x13e;" horiz-adv-x="307" 
d="M303 756h76l-47 -243l-57 3l15 94zM225 770l23 -20q-78 -440 -108 -680l89 -5l-3 -36l-162 -44l-26 15q33 122 64 332t43 359l-83 12l-3 39z" />
    <glyph glyph-name="Ldot" unicode="&#x13f;" horiz-adv-x="518" 
d="M387.5 457q20.5 23 49.5 23q57 0 57 -57q0 -36 -20 -59t-49.5 -23t-43.5 15.5t-14 46.5t20.5 54zM196 57h113q37 0 86 9q23 29 25 37q19 48 24 67l54 -5l-37 -151l-21 -18q-91 4 -110 4h-207l-114 -5l2 50l79 16q15 50 20 76l63 431q2 17 2 76l-73 12l13 54q91 -5 111 -5
l136 5l-4 -59l-77 -7q-14 -48 -22 -106l-54 -371q-9 -61 -9 -110z" />
    <glyph glyph-name="ldot" unicode="&#x140;" horiz-adv-x="310" 
d="M173 756h57l16 -18q-17 -66 -30 -153l-61 -418q-9 -66 -9 -106l75 -7l-16 -59q-46 5 -124 5l-109 -5l3 50l77 16q17 52 21 76l70 478l1 76l-72 16l13 53q69 -4 88 -4zM289 369q53 0 53 -57q0 -36 -20 -59t-49.5 -23t-43.5 15.5t-14 46t20 54t54 23.5z" />
    <glyph glyph-name="Lslash" unicode="&#x141;" horiz-adv-x="518" 
d="M196 57h113q37 0 86 9q23 29 25 37q19 48 24 67l54 -5l-37 -151l-21 -18q-91 4 -110 4h-207l-114 -5l2 50l79 16q15 50 20 76l32 219l-49 -17l-9 41l65 23l24 165q2 17 2 76l-73 12l13 54q91 -5 111 -5l136 5l-4 -59l-77 -7q-14 -48 -22 -106l-15 -101l178 63l9 -41
l-194 -69l-32 -223q-9 -61 -9 -110z" />
    <glyph glyph-name="lslash" unicode="&#x142;" horiz-adv-x="277" 
d="M225 770l23 -20q-45 -255 -50 -284l96 34l8 -41l-112 -40q-30 -184 -50 -349l89 -5l-3 -36l-162 -44l-26 15q37 140 72 391l-93 -33l-9 41l109 38q16 118 28 254l-83 12l-3 39z" />
    <glyph glyph-name="Nacute" unicode="&#x143;" horiz-adv-x="738" 
d="M788 710l-3 -53l-78 -16q-24 -64 -31 -113l-79 -535h-62l-297 563l-56 -389q-9 -54 -9 -106l77 -7l-16 -59q-41 5 -120 5l-105 -5l2 50l79 16q15 50 20 76l63 431q2 16 2 76l-75 12l12 54q91 -5 112 -5l45 1l16 -21q60 -133 71 -155l199 -367l58 395q3 24 3 83l-75 6
l14 60l80 -2zM545 898l29 -73q-128 -32 -147 -38l-85 -37l-20 48z" />
    <glyph glyph-name="nacute" unicode="&#x144;" horiz-adv-x="573" 
d="M422 504q72 0 72 -82q0 -45 -24.5 -167t-28.5 -185l92 -5l-3 -36l-171 -44l-25 15q66 284 66 375q0 52 -34 52q-40 0 -102.5 -92.5t-95.5 -233.5l-14 -101l-68 -15l-26 15q33 130 47 214t25 204l-83 4v39l165 43l23 -20q-17 -56 -37 -170q40 78 98 134t124 56zM467 755
l45 -60q-103 -60 -117 -71l-71 -60l-32 41z" />
    <glyph glyph-name="Ncommaaccent" unicode="&#x145;" horiz-adv-x="738" 
d="M788 710l-3 -53l-78 -16q-24 -64 -31 -113l-79 -535h-62l-297 563l-56 -389q-9 -54 -9 -106l77 -7l-16 -59q-41 5 -120 5l-105 -5l2 50l79 16q15 50 20 76l63 431q2 16 2 76l-75 12l12 54q91 -5 112 -5l45 1l16 -21q60 -133 71 -155l199 -367l58 395q3 24 3 83l-75 6
l14 60l80 -2zM327 -168q-25 12 -25 43t18 49t40 18q41 0 41 -51q0 -27 -16.5 -64.5t-32.5 -61.5l-17 -24l-34 12q23 53 26 79z" />
    <glyph glyph-name="ncommaaccent" unicode="&#x146;" horiz-adv-x="573" 
d="M422 504q72 0 72 -82q0 -45 -24.5 -167t-28.5 -185l92 -5l-3 -36l-171 -44l-25 15q66 284 66 375q0 52 -34 52q-40 0 -102.5 -92.5t-95.5 -233.5l-14 -101l-68 -15l-26 15q33 130 47 214t25 204l-83 4v39l165 43l23 -20q-17 -56 -37 -170q40 78 98 134t124 56zM234 -168
q-25 12 -25 43t18 49t40 18q41 0 41 -51q0 -27 -16.5 -64.5t-33.5 -61.5l-16 -24l-34 12q23 53 26 79z" />
    <glyph glyph-name="Ncaron" unicode="&#x147;" horiz-adv-x="738" 
d="M788 710l-3 -53l-78 -16q-24 -64 -31 -113l-79 -535h-62l-297 563l-56 -389q-9 -54 -9 -106l77 -7l-16 -59q-41 5 -120 5l-105 -5l2 50l79 16q15 50 20 76l63 431q2 16 2 76l-75 12l12 54q91 -5 112 -5l45 1l16 -21q60 -133 71 -155l199 -367l58 395q3 24 3 83l-75 6
l14 60l80 -2zM589 893l17 -39l-184 -107l-153 107l27 39l80 -41l58 -25q44 18 65 25z" />
    <glyph glyph-name="ncaron" unicode="&#x148;" horiz-adv-x="573" 
d="M422 504q72 0 72 -82q0 -45 -24.5 -167t-28.5 -185l92 -5l-3 -36l-171 -44l-25 15q66 284 66 375q0 52 -34 52q-40 0 -102.5 -92.5t-95.5 -233.5l-14 -101l-68 -15l-26 15q33 130 47 214t25 204l-83 4v39l165 43l23 -20q-17 -56 -37 -170q40 78 98 134t124 56zM252 765
l62 -61q1 -1 50 -43l65 43l81 61l27 -32l-186 -169l-136 169z" />
    <glyph glyph-name="Eng" unicode="&#x14a;" horiz-adv-x="737" 
d="M787 710l-3 -53l-79 -16q-25 -69 -32 -113l-79 -535q-4 -32 -136 -193l-30 22q86 144 103 182l-295 552l-57 -389q-8 -56 -8 -106l77 -7l-15 -59q-41 5 -119 5l-105 -5l3 50l78 16q18 58 20 76l63 431q2 16 2 76l-75 12l13 54l111 -4h43l16 -21q61 -133 71 -155l201 -367
l57 395q5 27 5 83l-77 6l15 60l79 -2z" />
    <glyph glyph-name="eng" unicode="&#x14b;" horiz-adv-x="553" 
d="M400 375q0 52 -34 52q-40 0 -102.5 -92.5t-95.5 -233.5l-14 -101l-68 -15l-26 15q33 130 47 214t25 204l-83 4v39l165 43l23 -20q-17 -56 -37 -170q40 78 98 134t124 56q72 0 72 -82q0 -57 -37 -241.5t-39 -195.5q-8 -39 -154 -220l-31 27q30 52 63.5 122t40.5 100
q63 271 63 361z" />
    <glyph glyph-name="Omacron" unicode="&#x14c;" horiz-adv-x="719" 
d="M701 420q0 -191 -99.5 -313t-277.5 -122q-133 0 -204 81t-71 218q0 192 99.5 314t277.5 122q133 0 204 -81.5t71 -218.5zM185.5 470q-29.5 -86 -29.5 -191t44 -173t127.5 -68t145 55t91.5 141t30 191.5t-43.5 173.5t-128 68t-146 -55.5t-91 -141.5zM585 781h-308l8 53
h313z" />
    <glyph glyph-name="omacron" unicode="&#x14d;" horiz-adv-x="472" 
d="M294 504q70 0 107.5 -45t37.5 -128q0 -138 -78 -240t-184 -102q-70 0 -107.5 45.5t-37.5 128.5q0 137 78 239t184 102zM277 447q-65 0 -106.5 -81.5t-41.5 -200.5t65 -119t106.5 81.5t41.5 200.5t-65 119zM476 606h-308l8 53h313z" />
    <glyph glyph-name="Obreve" unicode="&#x14e;" horiz-adv-x="719" 
d="M701 420q0 -191 -99.5 -313t-277.5 -122q-133 0 -204 81t-71 218q0 192 99.5 314t277.5 122q133 0 204 -81.5t71 -218.5zM185.5 470q-29.5 -86 -29.5 -191t44 -173t127.5 -68t145 55t91.5 141t30 191.5t-43.5 173.5t-128 68t-146 -55.5t-91 -141.5zM537.5 794
q-39.5 -36 -105 -36t-94.5 36q-23 27 -23 72q0 15 3 32h54q-1 -8 -1 -15q0 -28 16.5 -48.5t53 -20.5t62 23t30.5 61h54q-10 -68 -49.5 -104z" />
    <glyph glyph-name="obreve" unicode="&#x14f;" horiz-adv-x="472" 
d="M294 504q70 0 107.5 -45t37.5 -128q0 -138 -78 -240t-184 -102q-70 0 -107.5 45.5t-37.5 128.5q0 137 78 239t184 102zM277 447q-65 0 -106.5 -81.5t-41.5 -200.5t65 -119t106.5 81.5t41.5 200.5t-65 119zM424.5 623q-39.5 -36 -105 -36t-95.5 36q-22 27 -22 72
q0 15 3 32h54q-1 -8 -1 -15q0 -28 16.5 -48.5t53 -20.5t62 23t30.5 61h54q-10 -68 -49.5 -104z" />
    <glyph glyph-name="Ohungarumlaut" unicode="&#x150;" horiz-adv-x="719" 
d="M701 420q0 -191 -99.5 -313t-277.5 -122q-133 0 -204 81t-71 218q0 192 99.5 314t277.5 122q133 0 204 -81.5t71 -218.5zM185.5 470q-29.5 -86 -29.5 -191t44 -173t127.5 -68t145 55t91.5 141t30 191.5t-43.5 173.5t-128 68t-146 -55.5t-91 -141.5zM449 913l40 -67
q-120 -53 -139 -62l-79 -50l-26 43zM657 913l40 -67q-121 -53 -139 -62l-79 -50l-26 43z" />
    <glyph glyph-name="ohungarumlaut" unicode="&#x151;" horiz-adv-x="472" 
d="M294 504q70 0 107.5 -45t37.5 -128q0 -138 -78 -240t-184 -102q-70 0 -107.5 45.5t-37.5 128.5q0 137 78 239t184 102zM277 447q-65 0 -106.5 -81.5t-41.5 -200.5t65 -119t106.5 81.5t41.5 200.5t-65 119zM537 765l47 -62q-114 -67 -130 -78l-72 -61l-32 41zM342 765
l47 -62q-114 -67 -130 -78l-71 -61l-32 41z" />
    <glyph glyph-name="OE" unicode="&#x152;" horiz-adv-x="952" 
d="M734 0h-230q-29 0 -89 -4q-47 -11 -95 -11q-133 0 -202 80.5t-69 217.5q0 192 100 314.5t278 122.5q48 0 92 -11q58 -4 88 -4h218l111 10l17 -18l-14 -136l-57 -5q0 32 -1.5 48.5t-15.5 39.5q-52 5 -78 5h-127q-12 -47 -23 -111l-21 -144q32 -2 41 -2h71l59 9l19 66
l44 -5l-12 -80l-13 -109l-48 -6l1 67q-57 6 -76 6h-52q-18 0 -42 -3l-25 -170q-7 -58 -10 -110h140q37 0 86 9q22 26 25 34.5t12.5 34.5t12.5 35l53 -5l-37 -151l-21 -18q-90 4 -110 4zM557 595q-49 72 -135 72t-148 -55.5t-91.5 -141t-29.5 -191t44 -173.5t133 -68t156 70z
" />
    <glyph glyph-name="oe" unicode="&#x153;" horiz-adv-x="693" 
d="M537 503q145 0 145 -79q0 -76 -70.5 -132.5t-195.5 -81.5q-4 -28 -4 -61q0 -99 60 -99q81 0 156 103l31 -23q-85 -140 -220 -140q-81 0 -105 75q-65 -75 -152 -75q-149 0 -149 175q0 77 30.5 154t90 130.5t130.5 53.5q106 0 136 -89q64 89 117 89zM280 446
q-68 0 -111 -87t-43 -188q0 -49 14 -86.5t48 -37.5q48 0 85 43.5t54.5 104t17.5 120.5v7q0 124 -65 124zM533 444q-27 0 -58.5 -57t-49.5 -132q79 17 127 56t48 87q0 25 -15.5 35.5t-51.5 10.5z" />
    <glyph glyph-name="Racute" unicode="&#x154;" horiz-adv-x="630" 
d="M214 705l171 10q92 0 146 -44t54 -129.5t-47.5 -145t-125.5 -82.5q45 -123 63.5 -160.5t48.5 -92.5l69 -7l-15 -59q-76 5 -155 5q-27 92 -36 116l-69 185q-34 0 -92 2l-20 -136q-9 -63 -9 -106l87 -7l-16 -59q-64 5 -144 5l-115 -5l2 50l80 16q15 50 20 76l64 431
q2 17 2 76l-74 12l13 54q65 -3 98 -5zM346 665q-9 0 -59 -6q-15 -51 -26 -121l-27 -182q47 -5 75 -5q87 0 134 46.5t47 136.5q0 64 -38 97.5t-106 33.5zM468 898l29 -73q-128 -32 -147 -38l-85 -37l-20 48z" />
    <glyph glyph-name="racute" unicode="&#x155;" horiz-adv-x="399" 
d="M391 504q19 0 23 -4l17 -24l-45 -169l-37 3l-6 120q-57 -32 -109 -129.5t-66 -196.5l-14 -104l-68 -15l-26 15q52 206 72 418l-83 4v39l165 43l23 -20q-22 -75 -36 -160q40 82 91.5 131t98.5 49zM366 755l45 -60q-103 -60 -117 -71l-71 -60l-32 41z" />
    <glyph glyph-name="Rcommaaccent" unicode="&#x156;" horiz-adv-x="630" 
d="M214 705l171 10q92 0 146 -44t54 -129.5t-47.5 -145t-125.5 -82.5q45 -123 63.5 -160.5t48.5 -92.5l69 -7l-15 -59q-76 5 -155 5q-27 92 -36 116l-69 185q-34 0 -92 2l-20 -136q-9 -63 -9 -106l87 -7l-16 -59q-64 5 -144 5l-115 -5l2 50l80 16q15 50 20 76l64 431
q2 17 2 76l-74 12l13 54q65 -3 98 -5zM346 665q-9 0 -59 -6q-15 -51 -26 -121l-27 -182q47 -5 75 -5q87 0 134 46.5t47 136.5q0 64 -38 97.5t-106 33.5zM317 -168q-25 12 -25 43t18 49t40 18q41 0 41 -51q0 -27 -16.5 -64.5t-32.5 -61.5l-17 -24l-34 12q23 53 26 79z" />
    <glyph glyph-name="rcommaaccent" unicode="&#x157;" horiz-adv-x="399" 
d="M391 504q19 0 23 -4l17 -24l-45 -169l-37 3l-6 120q-57 -32 -109 -129.5t-66 -196.5l-14 -104l-68 -15l-26 15q52 206 72 418l-83 4v39l165 43l23 -20q-22 -75 -36 -160q40 82 91.5 131t98.5 49zM70 -168q-25 12 -25 43t18 49t40 18q41 0 41 -51q0 -27 -16.5 -64.5
t-33.5 -61.5l-16 -24l-34 12q23 53 26 79z" />
    <glyph glyph-name="Rcaron" unicode="&#x158;" horiz-adv-x="630" 
d="M214 705l171 10q92 0 146 -44t54 -129.5t-47.5 -145t-125.5 -82.5q45 -123 63.5 -160.5t48.5 -92.5l69 -7l-15 -59q-76 5 -155 5q-27 92 -36 116l-69 185q-34 0 -92 2l-20 -136q-9 -63 -9 -106l87 -7l-16 -59q-64 5 -144 5l-115 -5l2 50l80 16q15 50 20 76l64 431
q2 17 2 76l-74 12l13 54q65 -3 98 -5zM346 665q-9 0 -59 -6q-15 -51 -26 -121l-27 -182q47 -5 75 -5q87 0 134 46.5t47 136.5q0 64 -38 97.5t-106 33.5zM512 893l17 -39l-184 -107l-153 107l27 39l80 -41l58 -25q44 18 65 25z" />
    <glyph glyph-name="rcaron" unicode="&#x159;" horiz-adv-x="399" 
d="M391 504q19 0 23 -4l17 -24l-45 -169l-37 3l-6 120q-57 -32 -109 -129.5t-66 -196.5l-14 -104l-68 -15l-26 15q52 206 72 418l-83 4v39l165 43l23 -20q-22 -75 -36 -160q40 82 91.5 131t98.5 49zM171 765l62 -61q1 -1 50 -43l65 43l81 61l27 -32l-186 -169l-136 169z" />
    <glyph glyph-name="Sacute" unicode="&#x15a;" horiz-adv-x="543" 
d="M123 186q-8 -50 -8 -68t2 -46q60 -27 123.5 -27t103.5 37.5t40 101.5q0 67 -102 124q-42 24 -84.5 49t-72.5 64.5t-30 90.5q0 96 67 152t170 56q75 0 195 -32l-36 -151l-57 6q7 44 7 48.5t-5 51.5q-45 22 -104.5 22t-96.5 -33t-37 -90q0 -66 104 -122q43 -24 86 -50
t73.5 -67.5t30.5 -95.5q0 -106 -74.5 -164t-186.5 -58q-58 0 -110 13.5t-75 26.5l-24 13l37 154zM444 898l29 -73q-128 -32 -147 -38l-85 -37l-20 48z" />
    <glyph glyph-name="sacute" unicode="&#x15b;" horiz-adv-x="363" 
d="M215 504q40 0 101 -12l18 -3l21 -24l-32 -123l-39 3l-15 99q-26 11 -55.5 11t-55 -19t-25.5 -45.5t29.5 -54t64.5 -50t64.5 -59.5t29.5 -79q0 -70 -53 -114.5t-131 -44.5q-41 0 -80 16.5t-58 37.5l-1 32l50 99l37 -11l-10 -94q34 -29 74.5 -29t65 20t24.5 53t-28.5 59.5
t-62 47t-62 59.5t-28.5 92.5t46 93t111 39.5zM346 755l45 -60q-103 -60 -117 -71l-71 -60l-32 41z" />
    <glyph glyph-name="Scircumflex" unicode="&#x15c;" horiz-adv-x="543" 
d="M123 186q-8 -50 -8 -68t2 -46q60 -27 123.5 -27t103.5 37.5t40 101.5q0 67 -102 124q-42 24 -84.5 49t-72.5 64.5t-30 90.5q0 96 67 152t170 56q75 0 195 -32l-36 -151l-57 6q7 44 7 48.5t-5 51.5q-45 22 -104.5 22t-96.5 -33t-37 -90q0 -66 104 -122q43 -24 86 -50
t73.5 -67.5t30.5 -95.5q0 -106 -74.5 -164t-186.5 -58q-58 0 -110 13.5t-75 26.5l-24 13l37 154zM352 893l153 -107l-28 -39l-79 41l-57 25q-9 -3 -24 -9t-26 -10t-16 -6l-91 -41l-16 39z" />
    <glyph glyph-name="scircumflex" unicode="&#x15d;" horiz-adv-x="363" 
d="M215 504q40 0 101 -12l18 -3l21 -24l-32 -123l-39 3l-15 99q-26 11 -55.5 11t-55 -19t-25.5 -45.5t29.5 -54t64.5 -50t64.5 -59.5t29.5 -79q0 -70 -53 -114.5t-131 -44.5q-41 0 -80 16.5t-58 37.5l-1 32l50 99l37 -11l-10 -94q34 -29 74.5 -29t65 20t24.5 53t-28.5 59.5
t-62 47t-62 59.5t-28.5 92.5t46 93t111 39.5zM281 765l136 -169l-37 -32l-63 61l-51 43q-15 -10 -38 -25.5t-26 -17.5l-80 -61l-27 32z" />
    <glyph glyph-name="Scedilla" unicode="&#x15e;" horiz-adv-x="543" 
d="M123 186q-8 -50 -8 -68t2 -46q60 -27 123.5 -27t103.5 37.5t40 101.5q0 67 -102 124q-42 24 -84.5 49t-72.5 64.5t-30 90.5q0 96 67 152t170 56q75 0 195 -32l-36 -151l-57 6q7 44 7 48.5t-5 51.5q-45 22 -104.5 22t-96.5 -33t-37 -90q0 -66 104 -122q43 -24 86 -50
t73.5 -67.5t30.5 -95.5q0 -104 -71 -161.5t-180 -60.5l-15 -44q39 -1 63 -21t24 -59.5t-34.5 -67.5t-81 -28t-80.5 18l17 35q35 -11 58.5 -11t40 14.5t16.5 39.5q0 36 -39 36l-21 -1l-10 10l18 81q-49 4 -92.5 16.5t-62.5 23.5l-20 11l37 154z" />
    <glyph glyph-name="scedilla" unicode="&#x15f;" horiz-adv-x="363" 
d="M215 504q40 0 101 -12l18 -3l21 -24l-32 -123l-39 3l-15 99q-26 11 -55.5 11t-55 -19t-25.5 -45.5t29.5 -54t64.5 -50t64.5 -59.5t29.5 -79q0 -65 -46.5 -108.5t-117.5 -49.5l-17 -49q39 -1 63 -21t24 -59.5t-34.5 -67.5t-81 -28t-80.5 18l17 35q35 -11 58.5 -11t40 14.5
t16.5 39.5q0 36 -39 36l-21 -1l-10 10l19 85q-80 12 -113 52l-1 32l50 99l37 -11l-10 -94q34 -29 74.5 -29t65 20t24.5 53t-28.5 59.5t-62 47t-62 59.5t-28.5 92.5t46 93t111 39.5z" />
    <glyph glyph-name="Scaron" unicode="&#x160;" horiz-adv-x="543" 
d="M123 186q-8 -50 -8 -68t2 -46q60 -27 123.5 -27t103.5 37.5t40 101.5q0 67 -102 124q-42 24 -84.5 49t-72.5 64.5t-30 90.5q0 96 67 152t170 56q75 0 195 -32l-36 -151l-57 6q7 44 7 48.5t-5 51.5q-45 22 -104.5 22t-96.5 -33t-37 -90q0 -66 104 -122q43 -24 86 -50
t73.5 -67.5t30.5 -95.5q0 -106 -74.5 -164t-186.5 -58q-58 0 -110 13.5t-75 26.5l-24 13l37 154zM498 893l17 -39l-184 -107l-153 107l27 39l80 -41l58 -25q44 18 65 25z" />
    <glyph glyph-name="scaron" unicode="&#x161;" horiz-adv-x="363" 
d="M215 504q40 0 101 -12l18 -3l21 -24l-32 -123l-39 3l-15 99q-26 11 -55.5 11t-55 -19t-25.5 -45.5t29.5 -54t64.5 -50t64.5 -59.5t29.5 -79q0 -70 -53 -114.5t-131 -44.5q-41 0 -80 16.5t-58 37.5l-1 32l50 99l37 -11l-10 -94q34 -29 74.5 -29t65 20t24.5 53t-28.5 59.5
t-62 47t-62 59.5t-28.5 92.5t46 93t111 39.5zM135 765l62 -61q1 -1 50 -43l65 43l81 61l27 -32l-186 -169l-136 169z" />
    <glyph glyph-name="Tcedilla" unicode="&#x162;" horiz-adv-x="578" 
d="M463 649h-63q-15 -59 -23 -111l-54 -371q-3 -20 -9 -106l86 -7l-16 -59q-48 4 -111 5l-20 -59q39 -1 63 -21t24 -59.5t-34.5 -67.5t-81 -28t-80.5 18l17 35q35 -11 58.5 -11t40 14.5t16.5 39.5q0 36 -39 36l-21 -1l-10 10l21 94l-100 -5l3 50l78 16q15 50 20 76l63 431
q3 27 3 81h-61q-24 0 -79 -5q-22 -25 -24.5 -33t-19.5 -63l-56 5l28 144l21 18q90 -10 109 -10h288l112 10l16 -18l-15 -144l-57 -5q0 47 -1 60t-15 36q-52 5 -77 5z" />
    <glyph glyph-name="tcedilla" unicode="&#x163;" horiz-adv-x="324" 
d="M218 -80q24 -20 24 -59.5t-34.5 -67.5t-81 -28t-80.5 18l17 35q35 -11 58.5 -11t40 14.5t16.5 39.5q0 36 -39 36l-21 -1l-10 10l20 89l-39 -10l-25 15q48 194 74 424h-91l4 44q78 21 93 30q24 13 55 78l10 21l41 -12q-5 -25 -10 -60t-7 -45h111l-15 -56h-106
q-40 -222 -58 -355l112 -4l-3 -36l-97 -23l-22 -65q39 -1 63 -21z" />
    <glyph glyph-name="Tcaron" unicode="&#x164;" horiz-adv-x="578" 
d="M463 649h-63q-15 -59 -23 -111l-54 -371q-3 -20 -9 -106l86 -7l-16 -59q-64 5 -142 5l-115 -5l3 50l78 16q15 50 20 76l63 431q3 27 3 81h-61q-24 0 -79 -5q-22 -25 -24.5 -33t-19.5 -63l-56 5l28 144l21 18q90 -10 109 -10h288l112 10l16 -18l-15 -144l-57 -5
q0 47 -1 60t-15 36q-52 5 -77 5zM528 893l17 -39l-184 -107l-153 107l27 39l80 -41l58 -25q44 18 65 25z" />
    <glyph glyph-name="tcaron" unicode="&#x165;" horiz-adv-x="324" 
d="M329 424h-106q-40 -222 -58 -355l112 -4l-3 -36l-185 -44l-25 15q48 194 74 424h-91l4 44q78 21 93 30q24 13 55 78l10 21l41 -12q-5 -25 -10 -60t-7 -45h111zM329 756h77l-44 -213l-55 3l13 82z" />
    <glyph glyph-name="Tbar" unicode="&#x166;" horiz-adv-x="578" 
d="M463 649h-63q-15 -59 -23 -111l-21 -141h150l-7 -44h-149l-27 -186q-3 -20 -9 -106l86 -7l-16 -59q-64 5 -142 5l-115 -5l3 50l78 16q15 50 20 76l31 216h-148l7 44h148l25 171q3 27 3 81h-61q-24 0 -79 -5q-22 -25 -24.5 -33t-19.5 -63l-56 5l28 144l21 18
q90 -10 109 -10h288l112 10l16 -18l-15 -144l-57 -5q0 47 -1 60t-15 36q-52 5 -77 5z" />
    <glyph glyph-name="tbar" unicode="&#x167;" horiz-adv-x="324" 
d="M329 424h-106l-15 -84h108l-7 -44h-109q-26 -158 -35 -227l112 -4l-3 -36l-185 -44l-25 15q41 162 58 296h-89l7 44h88l10 84h-91l4 44q78 21 93 30q24 13 55 78l10 21l41 -12q-5 -25 -10 -60t-7 -45h111z" />
    <glyph glyph-name="Umacron" unicode="&#x16a;" horiz-adv-x="707" 
d="M319 -15q-123 0 -178 75q-41 57 -41 145q0 29 4 61l44 297q3 25 3 81l-74 12l12 54q91 -5 111 -5l143 5l-5 -59l-77 -7q-13 -47 -23 -111l-39 -267q-4 -29 -4 -54q0 -62 24 -104q34 -59 116 -59t134.5 59.5t66.5 157.5l44 297q2 17 2 81l-74 12l13 54q81 -5 102 -5l129 5
l-4 -59l-77 -7q-12 -35 -24 -111l-39 -267q-18 -131 -92 -206t-197 -75zM590 781h-308l8 53h313z" />
    <glyph glyph-name="umacron" unicode="&#x16b;" horiz-adv-x="560" 
d="M138 -11q-35 0 -53.5 26t-18.5 65t26 154t32 184l-83 4v39l166 43l22 -20q-68 -257 -70 -365q0 -51 34 -51q40 0 99.5 88.5t103.5 270.5l9 61l73 16l24 -16q-37 -143 -53 -226.5t-26 -192.5l89 -4l-3 -36l-164 -44l-26 15q19 67 40 185q-46 -89 -103.5 -142.5
t-117.5 -53.5zM472 606h-308l8 53h313z" />
    <glyph glyph-name="Ubreve" unicode="&#x16c;" horiz-adv-x="707" 
d="M319 -15q-123 0 -178 75q-41 57 -41 145q0 29 4 61l44 297q3 25 3 81l-74 12l12 54q91 -5 111 -5l143 5l-5 -59l-77 -7q-13 -47 -23 -111l-39 -267q-4 -29 -4 -54q0 -62 24 -104q34 -59 116 -59t134.5 59.5t66.5 157.5l44 297q2 17 2 81l-74 12l13 54q81 -5 102 -5l129 5
l-4 -59l-77 -7q-12 -35 -24 -111l-39 -267q-18 -131 -92 -206t-197 -75zM532.5 794q-39.5 -36 -105 -36t-95.5 36q-22 27 -22 72q0 15 3 32h54q-1 -8 -1 -15q0 -28 16.5 -48.5t53 -20.5t62 23t30.5 61h54q-10 -68 -49.5 -104z" />
    <glyph glyph-name="ubreve" unicode="&#x16d;" horiz-adv-x="560" 
d="M138 -11q-35 0 -53.5 26t-18.5 65t26 154t32 184l-83 4v39l166 43l22 -20q-68 -257 -70 -365q0 -51 34 -51q40 0 99.5 88.5t103.5 270.5l9 61l73 16l24 -16q-37 -143 -53 -226.5t-26 -192.5l89 -4l-3 -36l-164 -44l-26 15q19 67 40 185q-46 -89 -103.5 -142.5
t-117.5 -53.5zM420.5 623q-39.5 -36 -105 -36t-95.5 36q-22 27 -22 72q0 15 3 32h54q-1 -8 -1 -15q0 -28 16.5 -48.5t53 -20.5t62 23t30.5 61h54q-10 -68 -49.5 -104z" />
    <glyph glyph-name="Uring" unicode="&#x16e;" horiz-adv-x="707" 
d="M319 -15q-123 0 -178 75q-41 57 -41 145q0 29 4 61l44 297q3 25 3 81l-74 12l12 54q91 -5 111 -5l143 5l-5 -59l-77 -7q-13 -47 -23 -111l-39 -267q-4 -29 -4 -54q0 -62 24 -104q34 -59 116 -59t134.5 59.5t66.5 157.5l44 297q2 17 2 81l-74 12l13 54q81 -5 102 -5l129 5
l-4 -59l-77 -7q-12 -35 -24 -111l-39 -267q-18 -131 -92 -206t-197 -75zM382.5 888.5q26.5 27.5 69.5 27.5q80 0 80 -71q0 -45 -25.5 -72.5t-68.5 -27.5q-82 0 -82 71q0 45 26.5 72.5zM452 878q-24 0 -36 -17t-12 -40q0 -38 34 -38q25 0 36.5 17t11.5 40q0 38 -34 38z" />
    <glyph glyph-name="uring" unicode="&#x16f;" horiz-adv-x="560" 
d="M138 -11q-35 0 -53.5 26t-18.5 65t26 154t32 184l-83 4v39l166 43l22 -20q-68 -257 -70 -365q0 -51 34 -51q40 0 99.5 88.5t103.5 270.5l9 61l73 16l24 -16q-37 -143 -53 -226.5t-26 -192.5l89 -4l-3 -36l-164 -44l-26 15q19 67 40 185q-46 -89 -103.5 -142.5
t-117.5 -53.5zM264.5 723.5q26.5 27.5 69.5 27.5q80 0 80 -71q0 -45 -25.5 -72.5t-68.5 -27.5q-82 0 -82 71q0 45 26.5 72.5zM334 713q-24 0 -36 -17t-12 -40q0 -38 34 -38q25 0 36.5 17t11.5 40q0 38 -34 38z" />
    <glyph glyph-name="Uhungarumlaut" unicode="&#x170;" horiz-adv-x="707" 
d="M319 -15q-123 0 -178 75q-41 57 -41 145q0 29 4 61l44 297q3 25 3 81l-74 12l12 54q91 -5 111 -5l143 5l-5 -59l-77 -7q-13 -47 -23 -111l-39 -267q-4 -29 -4 -54q0 -62 24 -104q34 -59 116 -59t134.5 59.5t66.5 157.5l44 297q2 17 2 81l-74 12l13 54q81 -5 102 -5l129 5
l-4 -59l-77 -7q-12 -35 -24 -111l-39 -267q-18 -131 -92 -206t-197 -75zM454 913l40 -67q-120 -53 -139 -62l-79 -50l-26 43zM662 913l40 -67q-121 -53 -139 -62l-79 -50l-26 43z" />
    <glyph glyph-name="uhungarumlaut" unicode="&#x171;" horiz-adv-x="560" 
d="M138 -11q-35 0 -53.5 26t-18.5 65t26 154t32 184l-83 4v39l166 43l22 -20q-68 -257 -70 -365q0 -51 34 -51q40 0 99.5 88.5t103.5 270.5l9 61l73 16l24 -16q-37 -143 -53 -226.5t-26 -192.5l89 -4l-3 -36l-164 -44l-26 15q19 67 40 185q-46 -89 -103.5 -142.5
t-117.5 -53.5zM534 765l47 -62q-114 -67 -130 -78l-72 -61l-32 41zM339 765l47 -62q-114 -67 -130 -78l-71 -61l-32 41z" />
    <glyph glyph-name="Uogonek" unicode="&#x172;" horiz-adv-x="707" 
d="M302 -115q0 -40 46 -40q25 0 57 13l8 -33q-47 -22 -86.5 -22t-63.5 19.5t-24 53.5t14 56.5t51 52.5q-116 5 -167 79q-38 56 -38 139q0 30 5 63l44 297q3 25 3 81l-74 12l12 54q91 -5 111 -5l143 5l-5 -59l-77 -7q-13 -47 -23 -111l-39 -267q-4 -29 -4 -54q0 -62 24 -104
q34 -59 116 -59t134.5 59.5t66.5 157.5l44 297q2 17 2 81l-74 12l13 54q81 -5 102 -5l129 5l-4 -59l-77 -7q-12 -35 -24 -111l-39 -267q-17 -121 -81.5 -194.5t-171.5 -84.5q-53 -58 -53 -102z" />
    <glyph glyph-name="uogonek" unicode="&#x173;" horiz-adv-x="560" 
d="M296 -115q0 -40 46 -40q25 0 57 13l8 -33q-47 -22 -86.5 -22t-63.5 19.5t-24 55t17.5 59.5t69.5 65q16 58 39 183q-46 -89 -103.5 -142.5t-117.5 -53.5q-35 0 -53.5 26t-18.5 65t26 154t32 184l-83 4v39l166 43l22 -20q-68 -257 -70 -365q0 -51 34 -51q40 0 99.5 88.5
t103.5 270.5l9 61l73 16l24 -16q-37 -143 -53 -226.5t-26 -192.5l89 -4l-3 -36l-161 -43q-52 -57 -52 -101z" />
    <glyph glyph-name="Wcircumflex" unicode="&#x174;" horiz-adv-x="981" 
d="M1040 661l-68 -17q-41 -60 -59 -99l-237 -545h-61l-89 506l-218 -506h-62l-98 556q-6 36 -21 73l-5 12l-62 10l13 54h105l146 5l-4 -49l-79 -20q3 -57 10 -108l54 -385l231 537h54l84 -537l181 430l19 63l-71 10l12 54h88l140 5zM584 893l153 -107l-28 -39l-79 41l-57 25
q-9 -3 -24 -9t-26 -10t-16 -6l-91 -41l-16 39z" />
    <glyph glyph-name="wcircumflex" unicode="&#x175;" horiz-adv-x="753" 
d="M384 351l-15 134l70 18l24 -15l4 -116q0 -13 -16 -126.5t-16 -146.5t25 -33t59 25t64.5 64t52 92t21.5 104q0 18 -6 67l-80 4l-7 39l157 43l25 -16q0 -106 -33.5 -202t-85 -159.5t-110.5 -100.5t-112 -37q-27 0 -41.5 20t-14.5 43t11 82q-50 -69 -109 -107t-113 -38
q-62 0 -62 68q0 23 23 136t23 161t-3 64l-83 4l-6 39l151 43l24 -16h2v-116q0 -13 -18.5 -126t-18.5 -146.5t24 -33.5q54 0 122 92.5t68 192.5zM464 765l136 -169l-37 -32l-63 61l-51 43q-15 -10 -38 -25.5t-26 -17.5l-80 -61l-27 32z" />
    <glyph glyph-name="Ycircumflex" unicode="&#x176;" horiz-adv-x="645" 
d="M689 661l-68 -17q-43 -47 -76 -99l-176 -271l-15 -107q-9 -63 -9 -106l85 -7l-15 -59q-64 5 -143 5l-114 -5l2 50l79 16q1 4 5 21q12 42 14 55l18 121l-108 298q-11 34 -34 73l-7 12l-63 10l13 54h105l146 5l-3 -49l-79 -20q4 -49 25 -108l71 -189l145 234l35 63l-70 10
l12 54h88l140 5zM415 893l153 -107l-28 -39l-79 41l-57 25q-9 -3 -24 -9t-26 -10t-16 -6l-91 -41l-16 39z" />
    <glyph glyph-name="ycircumflex" unicode="&#x177;" horiz-adv-x="528" 
d="M216.5 -223q-43.5 -12 -83.5 -12t-80 6t-56 14l32 78q71 -26 129 -26t95 12.5t50 23.5q10 11 21 71t33 239q-46 -88 -102.5 -141t-116.5 -53q-35 0 -53.5 26t-18.5 65t26 154t32 184l-83 4v39l166 43l22 -20q-70 -270 -70 -365q0 -51 34 -51q44 0 103.5 94.5t97.5 255.5
l-80 4l-6 39l158 43l24 -16q-41 -160 -62 -322q-5 -45 -17 -152q-8 -69 -37.5 -120t-71.5 -78t-85.5 -39zM338 765l136 -169l-37 -32l-63 61l-51 43q-15 -10 -38 -25.5t-26 -17.5l-80 -61l-27 32z" />
    <glyph glyph-name="Ydieresis" unicode="&#x178;" horiz-adv-x="645" 
d="M689 661l-68 -17q-43 -47 -76 -99l-176 -271l-15 -107q-9 -63 -9 -106l85 -7l-15 -59q-64 5 -143 5l-114 -5l2 50l79 16q1 4 5 21q12 42 14 55l18 121l-108 298q-11 34 -34 73l-7 12l-63 10l13 54h105l146 5l-3 -49l-79 -20q4 -49 25 -108l71 -189l145 234l35 63l-70 10
l12 54h88l140 5zM299 884q46 0 46 -48q0 -32 -16.5 -51.5t-46.5 -19.5q-45 0 -45 47q0 32 16 52t46 20zM528 884q45 0 45 -48q0 -32 -16 -51.5t-46 -19.5q-45 0 -45 47q0 32 16 52t46 20z" />
    <glyph glyph-name="Zacute" unicode="&#x179;" horiz-adv-x="543" 
d="M260 646q-32 0 -84 -5l-21 -34q-16 -49 -23 -84l-56 5l29 169l21 18q90 -10 109 -10h323v-56l-126 -155l-222 -303l-87 -132h195q36 0 86 9q20 22 28.5 44.5t19.5 67.5l54 -5l-35 -161l-22 -18q-90 4 -110 4h-339l1 57q94 114 129 162l223 301l83 126h-176zM436 898
l29 -73q-128 -32 -147 -38l-85 -37l-20 48z" />
    <glyph glyph-name="zacute" unicode="&#x17a;" horiz-adv-x="438" 
d="M401 152l-25 -142l-30 -23l-280 13l-51 -13l-22 19q117 143 178 228.5t128 194.5q-84 -1 -175 -17l-26 -81l-38 3l-5 146l16 24l298 -17l59 15l11 -19q-123 -157 -184.5 -242.5t-120.5 -184.5q120 0 178 13q53 91 54 95q1 0 17.5 -5.5t17.5 -6.5zM365 755l45 -60
q-103 -60 -117 -71l-71 -60l-32 41z" />
    <glyph glyph-name="Zdotaccent" unicode="&#x17b;" horiz-adv-x="543" 
d="M260 646q-32 0 -84 -5l-21 -34q-16 -49 -23 -84l-56 5l29 169l21 18q90 -10 109 -10h323v-56l-126 -155l-222 -303l-87 -132h195q36 0 86 9q20 22 28.5 44.5t19.5 67.5l54 -5l-35 -161l-22 -18q-90 4 -110 4h-339l1 57q94 114 129 162l223 301l83 126h-176zM310.5 868.5
q18.5 21.5 45.5 21.5q53 0 53 -53q0 -33 -19 -54.5t-46 -21.5q-52 0 -52 53q0 33 18.5 54.5z" />
    <glyph glyph-name="zdotaccent" unicode="&#x17c;" horiz-adv-x="438" 
d="M401 152l-25 -142l-30 -23l-280 13l-51 -13l-22 19q117 143 178 228.5t128 194.5q-84 -1 -175 -17l-26 -81l-38 3l-5 146l16 24l298 -17l59 15l11 -19q-123 -157 -184.5 -242.5t-120.5 -184.5q120 0 178 13q53 91 54 95q1 0 17.5 -5.5t17.5 -6.5zM242.5 698.5
q18.5 21.5 45.5 21.5q53 0 53 -53q0 -33 -19 -54.5t-46 -21.5q-52 0 -52 53q0 33 18.5 54.5z" />
    <glyph glyph-name="Zcaron" unicode="&#x17d;" horiz-adv-x="543" 
d="M260 646q-32 0 -84 -5l-21 -34q-16 -49 -23 -84l-56 5l29 169l21 18q90 -10 109 -10h323v-56l-126 -155l-222 -303l-87 -132h195q36 0 86 9q20 22 28.5 44.5t19.5 67.5l54 -5l-35 -161l-22 -18q-90 4 -110 4h-339l1 57q94 114 129 162l223 301l83 126h-176zM500 893
l17 -39l-184 -107l-153 107l27 39l80 -41l58 -25q44 18 65 25z" />
    <glyph glyph-name="zcaron" unicode="&#x17e;" horiz-adv-x="438" 
d="M401 152l-25 -142l-30 -23l-280 13l-51 -13l-22 19q117 143 178 228.5t128 194.5q-84 -1 -175 -17l-26 -81l-38 3l-5 146l16 24l298 -17l59 15l11 -19q-123 -157 -184.5 -242.5t-120.5 -184.5q120 0 178 13q53 91 54 95q1 0 17.5 -5.5t17.5 -6.5zM170 765l62 -61
q1 -1 50 -43l65 43l81 61l27 -32l-186 -169l-136 169z" />
    <glyph glyph-name="florin" unicode="&#x192;" horiz-adv-x="367" 
d="M394 715q-14 2 -36.5 2t-44 -10t-34.5 -33t-19 -45.5t-13 -62.5l-13 -72h140l-14 -54h-135l-81 -461q-15 -80 -68 -126.5t-136 -46.5l9 53q60 0 83 35.5t36 115.5l76 430h-77l4 42q10 3 30 8q35 10 55 21l15 86q15 80 68 126.5t138 46.5q34 0 76 -6l14 -2l10 -16
l-32 -137l-54 6q6 39 6 44z" />
    <glyph glyph-name="Aringacute" unicode="&#x1fa;" horiz-adv-x="644" 
d="M612 54l-12 -54h-98l-142 -5l4 49l73 20l-10 108l-11 60h-212l-46 -105l-19 -63l66 -10l-12 -54h-85l-131 -5l3 49l63 17l56 99l250 545l60 10l120 -566l25 -85zM354 557l-125 -275l175 4zM401 874q63 0 63 -60q0 -38 -22 -61.5t-58 -23.5q-70 0 -70 60q0 39 22.5 62
t64.5 23zM396 842q-20 0 -30.5 -14.5t-10.5 -33.5q0 -33 29 -33q21 0 30.5 14.5t9.5 34.5q0 32 -28 32zM466 997l26 -65q-115 -29 -132 -35l-77 -33l-18 43z" />
    <glyph glyph-name="aringacute" unicode="&#x1fb;" horiz-adv-x="529" 
d="M234 40.5q-52 -51.5 -103 -51.5q-101 0 -101 145v5q0 75 34.5 161.5t87 145t99.5 58.5q27 0 71 -6.5t53 -7.5l59 14l24 -16q-30 -122 -46.5 -216t-19.5 -202l89 -5l-3 -36l-153 -44l-26 15q15 68 29 178q-42 -86 -94 -137.5zM165 55q29 0 69.5 56t74 141t42.5 159
q-78 35 -114 35q-24 0 -51.5 -48t-46 -118.5t-18.5 -121t12 -77t32 -26.5zM407 813l26 -65q-115 -29 -132 -35l-77 -33l-18 43zM321 690q63 0 63 -60q0 -38 -22 -61.5t-58 -23.5q-70 0 -70 60q0 39 22.5 62t64.5 23zM316 658q-20 0 -30.5 -14.5t-10.5 -33.5q0 -33 29 -33
q21 0 30.5 14.5t9.5 34.5q0 32 -28 32z" />
    <glyph glyph-name="AEacute" unicode="&#x1fc;" horiz-adv-x="880" 
d="M732 648h-175q-4 -49 -6 -107l1 -155q54 -4 73 -4h47l59 9l19 66l43 -5l-12 -80l-14 -109l-47 -6l1 67q-57 6 -76 6h-28q-13 0 -65 -4l1 -152l7 -117h118q35 0 87 9q20 26 25 37q19 46 25 67l52 -5l-37 -151l-21 -18q-90 4 -110 4h-211l-116 -5l4 50l81 16q5 32 5 69v118
h-208l-88 -146q-3 -5 -8.5 -20t-8.5 -21l78 -7l-16 -59q-48 5 -126 5l-91 -5l3 50l60 16q57 65 73 92l299 491l-74 12l13 54q92 -5 111 -5h290l112 10l16 -18l-13 -136l-57 -5q0 32 -1.5 48t-15.5 39q-53 5 -78 5zM286 299l176 3l-1 254l-3 28zM725 898l29 -73
q-128 -32 -147 -38l-85 -37l-20 48z" />
    <glyph glyph-name="aeacute" unicode="&#x1fd;" horiz-adv-x="666" 
d="M510 503q145 0 145 -79q0 -76 -70 -132.5t-195 -81.5q-5 -35 -5 -61q0 -99 60 -99q81 0 156 103l31 -23q-85 -140 -220 -140q-105 0 -114 127q-81 -127 -165 -127q-104 0 -104 149q0 75 35.5 161t88 144.5t93.5 58.5t206 -25q31 25 58 25zM163 50q32 0 75 58t77.5 144.5
t42.5 161.5q-74 35 -121 35q-37 0 -79 -104.5t-42 -196.5q0 -44 13 -71t34 -27zM506 444q-27 0 -58 -57t-49 -132q78 17 126 56t48 87q0 25 -15.5 35.5t-51.5 10.5zM536 755l45 -60q-103 -60 -117 -71l-71 -60l-32 41z" />
    <glyph glyph-name="Oslashacute" unicode="&#x1fe;" horiz-adv-x="715" 
d="M697 421q0 -191 -100.5 -313.5t-277.5 -122.5q-79 0 -141 32l-100 -153l-35 23l100 153q-95 77 -95 243q0 192 100 314.5t278 122.5q81 0 141 -33l99 151l38 -23l-100 -152q93 -78 93 -242zM181.5 470.5q-29.5 -85.5 -29.5 -189.5t39 -168l335 512q-44 42 -108 42
q-83 0 -145 -55.5t-91.5 -141zM563 234q30 86 30 187.5t-38 166.5l-336 -510q42 -40 116 -40t136 55t92 141zM535 898l29 -73q-128 -32 -147 -38l-85 -37l-20 48z" />
    <glyph glyph-name="oslashacute" unicode="&#x1ff;" horiz-adv-x="472" 
d="M294 504q42 0 74 -17l74 111l38 -20l-79 -118q38 -46 38 -129q0 -138 -78 -240t-184 -102q-45 0 -79 20l-72 -108l-37 20l78 116q-35 46 -35 126q0 137 78 239t184 102zM342 333q0 14 -2 36l-196 -292q16 -31 50 -31q65 0 106.5 81.5t41.5 205.5zM277 447
q-65 0 -106.5 -81.5t-41.5 -206.5q0 -19 1 -27l194 289q-17 26 -47 26zM408 755l45 -60q-103 -60 -117 -71l-71 -60l-32 41z" />
    <glyph glyph-name="Scommaaccent" unicode="&#x218;" horiz-adv-x="543" 
d="M123 186q-8 -50 -8 -68t2 -46q60 -27 123.5 -27t103.5 37.5t40 101.5q0 67 -102 124q-42 24 -84.5 49t-72.5 64.5t-30 90.5q0 96 67 152t170 56q75 0 195 -32l-36 -151l-57 6q7 44 7 48.5t-5 51.5q-45 22 -104.5 22t-96.5 -33t-37 -90q0 -66 104 -122q43 -24 86 -50
t73.5 -67.5t30.5 -95.5q0 -106 -74.5 -164t-186.5 -58q-58 0 -110 13.5t-75 26.5l-24 13l37 154zM225 -168q-25 12 -25 43t18 49t40 18q41 0 41 -51q0 -27 -16.5 -64.5t-32.5 -61.5l-17 -24l-34 12q23 53 26 79z" />
    <glyph glyph-name="scommaaccent" unicode="&#x219;" horiz-adv-x="363" 
d="M215 504q40 0 101 -12l18 -3l21 -24l-32 -123l-39 3l-15 99q-26 11 -55.5 11t-55 -19t-25.5 -45.5t29.5 -54t64.5 -50t64.5 -59.5t29.5 -79q0 -70 -53 -114.5t-131 -44.5q-41 0 -80 16.5t-58 37.5l-1 32l50 99l37 -11l-10 -94q34 -29 74.5 -29t65 20t24.5 53t-28.5 59.5
t-62 47t-62 59.5t-28.5 92.5t46 93t111 39.5zM116 -168q-25 12 -25 43t18 49t40 18q41 0 41 -51q0 -27 -16.5 -64.5t-33.5 -61.5l-16 -24l-34 12q23 53 26 79z" />
    <glyph glyph-name="uni021A" unicode="&#x21a;" horiz-adv-x="578" 
d="M463 649h-63q-15 -59 -23 -111l-54 -371q-3 -20 -9 -106l86 -7l-16 -59q-64 5 -142 5l-115 -5l3 50l78 16q15 50 20 76l63 431q3 27 3 81h-61q-24 0 -79 -5q-22 -25 -24.5 -33t-19.5 -63l-56 5l28 144l21 18q90 -10 109 -10h288l112 10l16 -18l-15 -144l-57 -5
q0 47 -1 60t-15 36q-52 5 -77 5zM252 -168q-25 12 -25 43t18 49t40 18q41 0 41 -51q0 -27 -16.5 -64.5t-33.5 -61.5l-16 -24l-34 12q23 53 26 79z" />
    <glyph glyph-name="uni021B" unicode="&#x21b;" horiz-adv-x="324" 
d="M329 424h-106q-40 -222 -58 -355l112 -4l-3 -36l-185 -44l-25 15q48 194 74 424h-91l4 44q78 21 93 30q24 13 55 78l10 21l41 -12q-5 -25 -10 -60t-7 -45h111zM141 -168q-25 12 -25 43t18 49t40 18q41 0 41 -51q0 -27 -16.5 -64.5t-32.5 -61.5l-17 -24l-34 12
q23 53 26 79z" />
    <glyph glyph-name="dotlessj" unicode="&#x237;" horiz-adv-x="265" 
d="M197 503l21 -19q-23 -83 -49 -254t-38 -245q-6 -38 -151 -220l-29 26q31 54 64.5 123.5t40.5 99.5q44 183 62 405l-83 4l-1 37z" />
    <glyph glyph-name="circumflex" unicode="&#x2c6;" 
d="M251 765l136 -169l-37 -32l-63 61l-51 43q-15 -10 -38 -25.5t-26 -17.5l-80 -61l-27 32z" />
    <glyph glyph-name="caron" unicode="&#x2c7;" 
d="M122 765l62 -61q1 -1 50 -43l65 43l81 61l27 -32l-186 -169l-136 169z" />
    <glyph glyph-name="breve" unicode="&#x2d8;" 
d="M329.5 623q-39.5 -36 -105 -36t-94.5 36q-23 27 -23 72q0 15 3 32h54q-1 -8 -1 -15q0 -28 16.5 -48.5t53 -20.5t62 23t30.5 61h54q-10 -68 -49.5 -104z" />
    <glyph glyph-name="dotaccent" unicode="&#x2d9;" 
d="M194.5 698.5q18.5 21.5 45.5 21.5q53 0 53 -53q0 -33 -19 -54.5t-46 -21.5q-52 0 -52 53q0 33 18.5 54.5z" />
    <glyph glyph-name="ring" unicode="&#x2da;" 
d="M173.5 723.5q26.5 27.5 69.5 27.5q80 0 80 -71q0 -45 -25.5 -72.5t-68.5 -27.5q-82 0 -82 71q0 45 26.5 72.5zM243 713q-24 0 -36 -17t-12 -40q0 -38 34 -38q25 0 36.5 17t11.5 40q0 38 -34 38z" />
    <glyph glyph-name="ogonek" unicode="&#x2db;" 
d="M170 -115q0 -40 46 -40q25 0 57 13l8 -33q-47 -22 -86.5 -22t-63.5 19.5t-24 56t19.5 61.5t80.5 73h43q-34 -30 -57 -66t-23 -62z" />
    <glyph glyph-name="tilde" unicode="&#x2dc;" 
d="M302.5 604q-18.5 0 -70.5 20.5t-67.5 20.5t-30.5 -13.5t-24 -27.5l-9 -13l-32 21q21 38 49.5 69.5t47 31.5t71 -20.5t68 -20.5t30.5 13t23 25l9 13l32 -21q-20 -36 -49 -67t-47.5 -31z" />
    <glyph glyph-name="hungarumlaut" unicode="&#x2dd;" 
d="M423 765l47 -62q-114 -67 -130 -78l-72 -61l-32 41zM228 765l47 -62q-114 -67 -130 -78l-71 -61l-32 41z" />
    <glyph glyph-name="tildecomb" unicode="&#x303;" 
d="M302.5 604q-18.5 0 -70.5 20.5t-67.5 20.5t-30.5 -13.5t-24 -27.5l-9 -13l-32 21q21 38 49.5 69.5t47 31.5t71 -20.5t68 -20.5t30.5 13t23 25l9 13l32 -21q-20 -36 -49 -67t-47.5 -31z" />
    <glyph glyph-name="dotbelowcomb" unicode="&#x323;" 
d="M78.5 -92.5q18.5 21.5 45.5 21.5q53 0 53 -53q0 -33 -18.5 -54.5t-48.5 -21.5q-50 0 -50 53q0 33 18.5 54.5z" />
    <glyph glyph-name="Delta" unicode="&#x394;" horiz-adv-x="680" 
d="M614 -15h-568l-23 65q69 88 82 116l291 537l56 13q161 -558 167 -580l34 -83zM115 46q80 -2 133 -2t287 6q-6 56 -13 84l-128 451l-250 -467z" />
    <glyph glyph-name="Delta" unicode="&#x2206;" horiz-adv-x="680" 
d="M614 -15h-568l-23 65q69 88 82 116l291 537l56 13q161 -558 167 -580l34 -83zM115 46q80 -2 133 -2t287 6q-6 56 -13 84l-128 451l-250 -467z" />
    <glyph glyph-name="Omega" unicode="&#x3a9;" horiz-adv-x="794" 
d="M258 66q-161 67 -161 246t100.5 293.5t269.5 114.5q132 0 204 -69.5t72 -204t-66 -237t-185 -145.5l-1 -11l77 4q38 0 88 9q23 27 27 37q14 35 24 67l54 -5l-37 -158l-11 -11q-103 4 -123 4h-69l-94 -4l8 97q97 34 149 132.5t52 225.5q0 98 -44 157t-132 59
q-63 0 -113.5 -32t-80.5 -85q-63 -109 -63 -247q0 -152 120 -210l-12 -97q-54 4 -94 4h-75l-122 -4l-9 11l7 158l55 5q3 -41 5.5 -61t15.5 -43q50 -9 86 -9l77 -4z" />
    <glyph glyph-name="Omega" unicode="&#x2126;" horiz-adv-x="794" 
d="M258 66q-161 67 -161 246t100.5 293.5t269.5 114.5q132 0 204 -69.5t72 -204t-66 -237t-185 -145.5l-1 -11l77 4q38 0 88 9q23 27 27 37q14 35 24 67l54 -5l-37 -158l-11 -11q-103 4 -123 4h-69l-94 -4l8 97q97 34 149 132.5t52 225.5q0 98 -44 157t-132 59
q-63 0 -113.5 -32t-80.5 -85q-63 -109 -63 -247q0 -152 120 -210l-12 -97q-54 4 -94 4h-75l-122 -4l-9 11l7 158l55 5q3 -41 5.5 -61t15.5 -43q50 -9 86 -9l77 -4z" />
    <glyph glyph-name="pi" unicode="&#x3c0;" horiz-adv-x="608" 
d="M154 514l368 -17q21 0 64 28l13 9l30 -38q-28 -31 -64 -59t-54 -28q-10 -33 -29 -161.5t-19 -151t10.5 -36.5t40.5 -33l-25 -42q-20 5 -48 18.5t-33.5 19l-13.5 13.5q-13 14 -13 40l55 335l-198 11l-36 -255q0 -21 -19 -163l-11 -8q-32 4 -57 4h-22l-8 8q34 109 38 129
q39 208 52 288q-13 1 -27 1q-27 0 -68 -36l-14 -13l-35 33q26 34 65.5 69t57.5 35z" />
    <glyph glyph-name="Wgrave" unicode="&#x1e80;" horiz-adv-x="981" 
d="M1040 661l-68 -17q-41 -60 -59 -99l-237 -545h-61l-89 506l-218 -506h-62l-98 556q-6 36 -21 73l-5 12l-62 10l13 54h105l146 5l-4 -49l-79 -20q3 -57 10 -108l54 -385l231 537h54l84 -537l181 430l19 63l-71 10l12 54h88l140 5zM426 825l30 73l222 -100l-20 -48l-85 37z
" />
    <glyph glyph-name="wgrave" unicode="&#x1e81;" horiz-adv-x="753" 
d="M384 351l-15 134l70 18l24 -15l4 -116q0 -13 -16 -126.5t-16 -146.5t25 -33t59 25t64.5 64t52 92t21.5 104q0 18 -6 67l-80 4l-7 39l157 43l25 -16q0 -106 -33.5 -202t-85 -159.5t-110.5 -100.5t-112 -37q-27 0 -41.5 20t-14.5 43t11 82q-50 -69 -109 -107t-113 -38
q-62 0 -62 68q0 23 23 136t23 161t-3 64l-83 4l-6 39l151 43l24 -16h2v-116q0 -13 -18.5 -126t-18.5 -146.5t24 -33.5q54 0 122 92.5t68 192.5zM538 605l-32 -41l-71 60l-117 71l46 60z" />
    <glyph glyph-name="Wacute" unicode="&#x1e82;" horiz-adv-x="981" 
d="M1040 661l-68 -17q-41 -60 -59 -99l-237 -545h-61l-89 506l-218 -506h-62l-98 556q-6 36 -21 73l-5 12l-62 10l13 54h105l146 5l-4 -49l-79 -20q3 -57 10 -108l54 -385l231 537h54l84 -537l181 430l19 63l-71 10l12 54h88l140 5zM677 898l29 -73q-128 -32 -147 -38
l-85 -37l-20 48z" />
    <glyph glyph-name="wacute" unicode="&#x1e83;" horiz-adv-x="753" 
d="M384 351l-15 134l70 18l24 -15l4 -116q0 -13 -16 -126.5t-16 -146.5t25 -33t59 25t64.5 64t52 92t21.5 104q0 18 -6 67l-80 4l-7 39l157 43l25 -16q0 -106 -33.5 -202t-85 -159.5t-110.5 -100.5t-112 -37q-27 0 -41.5 20t-14.5 43t11 82q-50 -69 -109 -107t-113 -38
q-62 0 -62 68q0 23 23 136t23 161t-3 64l-83 4l-6 39l151 43l24 -16h2v-116q0 -13 -18.5 -126t-18.5 -146.5t24 -33.5q54 0 122 92.5t68 192.5zM530 755l45 -60q-103 -60 -117 -71l-71 -60l-32 41z" />
    <glyph glyph-name="Wdieresis" unicode="&#x1e84;" horiz-adv-x="981" 
d="M1040 661l-68 -17q-41 -60 -59 -99l-237 -545h-61l-89 506l-218 -506h-62l-98 556q-6 36 -21 73l-5 12l-62 10l13 54h105l146 5l-4 -49l-79 -20q3 -57 10 -108l54 -385l231 537h54l84 -537l181 430l19 63l-71 10l12 54h88l140 5zM697 884q45 0 45 -48q0 -32 -16 -51.5
t-46 -19.5q-45 0 -45 47q0 32 16 52t46 20zM468 884q46 0 46 -48q0 -32 -16.5 -51.5t-46.5 -19.5q-45 0 -45 47q0 32 16 52t46 20z" />
    <glyph glyph-name="wdieresis" unicode="&#x1e85;" horiz-adv-x="753" 
d="M384 351l-15 134l70 18l24 -15l4 -116q0 -13 -16 -126.5t-16 -146.5t25 -33t59 25t64.5 64t52 92t21.5 104q0 18 -6 67l-80 4l-7 39l157 43l25 -16q0 -106 -33.5 -202t-85 -159.5t-110.5 -100.5t-112 -37q-27 0 -41.5 20t-14.5 43t11 82q-50 -69 -109 -107t-113 -38
q-62 0 -62 68q0 23 23 136t23 161t-3 64l-83 4l-6 39l151 43l24 -16h2v-116q0 -13 -18.5 -126t-18.5 -146.5t24 -33.5q54 0 122 92.5t68 192.5zM570 713q44 0 44 -48q0 -32 -15.5 -51.5t-45.5 -19.5q-45 0 -45 47q0 32 16 52t46 20zM341 713q45 0 45 -48q0 -32 -16.5 -51.5
t-45.5 -19.5q-45 0 -45 47q0 32 16 52t46 20z" />
    <glyph glyph-name="Ygrave" unicode="&#x1ef2;" horiz-adv-x="645" 
d="M689 661l-68 -17q-43 -47 -76 -99l-176 -271l-15 -107q-9 -63 -9 -106l85 -7l-15 -59q-64 5 -143 5l-114 -5l2 50l79 16q1 4 5 21q12 42 14 55l18 121l-108 298q-11 34 -34 73l-7 12l-63 10l13 54h105l146 5l-3 -49l-79 -20q4 -49 25 -108l71 -189l145 234l35 63l-70 10
l12 54h88l140 5zM257 825l30 73l222 -100l-20 -48l-85 37z" />
    <glyph glyph-name="ygrave" unicode="&#x1ef3;" horiz-adv-x="528" 
d="M216.5 -223q-43.5 -12 -83.5 -12t-80 6t-56 14l32 78q71 -26 129 -26t95 12.5t50 23.5q10 11 21 71t33 239q-46 -88 -102.5 -141t-116.5 -53q-35 0 -53.5 26t-18.5 65t26 154t32 184l-83 4v39l166 43l22 -20q-70 -270 -70 -365q0 -51 34 -51q44 0 103.5 94.5t97.5 255.5
l-80 4l-6 39l158 43l24 -16q-41 -160 -62 -322q-5 -45 -17 -152q-8 -69 -37.5 -120t-71.5 -78t-85.5 -39zM412 605l-32 -41l-71 60l-117 71l46 60z" />
    <glyph glyph-name="endash" unicode="&#x2013;" horiz-adv-x="504" 
d="M12 218l8 71h504l-16 -71h-496z" />
    <glyph glyph-name="emdash" unicode="&#x2014;" horiz-adv-x="1006" 
d="M12 218l8 71h1006l-16 -71h-998z" />
    <glyph glyph-name="quoteleft" unicode="&#x2018;" horiz-adv-x="201" 
d="M142 519q-57 0 -57 72q0 62 40.5 114.5t105.5 64.5l6 -22q-33 -14 -54 -39t-24 -56q50 0 50 -52q0 -31 -19 -56.5t-48 -25.5z" />
    <glyph glyph-name="quoteright" unicode="&#x2019;" horiz-adv-x="201" 
d="M159 770q57 0 57 -72q0 -62 -40.5 -114.5t-105.5 -64.5l-6 22q33 14 54 39t24 56q-50 0 -50 52q0 31 19 56.5t48 25.5z" />
    <glyph glyph-name="quotesinglbase" unicode="&#x201a;" horiz-adv-x="200" 
d="M79 129q58 0 56 -75q0 -64 -40 -118t-106 -67l-5 22q72 32 78 99q-50 0 -50 54q0 32 19 58.5t48 26.5z" />
    <glyph glyph-name="quotedblleft" unicode="&#x201c;" horiz-adv-x="361" 
d="M303 519q-57 0 -57 72q0 62 40.5 114.5t105.5 64.5l6 -22q-33 -14 -54 -39t-24 -56q50 0 50 -52q0 -31 -19 -56.5t-48 -25.5zM143 519q-57 0 -57 72q0 62 40.5 114.5t105.5 64.5l6 -22q-33 -14 -54 -39t-24 -56q50 0 50 -52q0 -31 -19 -56.5t-48 -25.5z" />
    <glyph glyph-name="quotedblright" unicode="&#x201d;" horiz-adv-x="361" 
d="M170 765q56 0 58 -72q-1 -63 -41.5 -115t-105.5 -64l-5 22q33 14 53.5 39t24.5 56q-24 0 -37.5 14t-13.5 41.5t19 53t48 25.5zM330 765q56 0 58 -72q-1 -63 -41.5 -115t-105.5 -64l-5 22q33 14 53.5 39t24.5 56q-24 0 -37.5 14t-13.5 41.5t19 53t48 25.5z" />
    <glyph glyph-name="quotedblbase" unicode="&#x201e;" horiz-adv-x="360" 
d="M89 129q58 0 56 -75q0 -64 -40 -118t-106 -67l-5 22q72 32 78 99q-50 0 -50 54q0 32 19 58.5t48 26.5zM249 129q58 0 56 -75q0 -64 -40 -118t-106 -67l-5 22q72 32 78 99q-50 0 -50 54q0 32 19 58.5t48 26.5z" />
    <glyph glyph-name="dagger" unicode="&#x2020;" horiz-adv-x="504" 
d="M303 514h-50q2 16 2 101l-1 135l7 6l90 10l19 -18q-60 -184 -67 -234zM240 423h50l-41 -507l-7 -6l-90 -10l-19 18q99 455 107 505zM230 494l-7 -51l-173 -19l-7 6v60l21 19q104 -11 166 -15zM313 443l7 51l173 19l6 -6v-60l-21 -19q-103 11 -165 15z" />
    <glyph glyph-name="daggerdbl" unicode="&#x2021;" horiz-adv-x="504" 
d="M303 514h-50q2 16 2 101l-1 135l7 6l90 10l19 -18q-60 -184 -67 -234zM210 223h50l-11 -307l-7 -6l-90 -10l-19 18q70 255 77 305zM230 494l-7 -51l-173 -19l-7 6v60l21 19q104 -11 166 -15zM313 443l7 51l173 19l6 -6v-60l-21 -19q-103 11 -165 15zM201 294l-8 -51
l-132 -19l-7 6v60l21 19q63 -11 126 -15zM283 243l8 51l133 19l6 -6v-60l-21 -19q-63 11 -126 15zM274 313h-50l16 110h50q-3 -3 -16 -110z" />
    <glyph glyph-name="bullet" unicode="&#x2022;" horiz-adv-x="265" 
d="M132 340q63 0 63 -69q0 -40 -23.5 -72t-56.5 -32t-49.5 18t-16.5 53.5t23.5 68.5t59.5 33z" />
    <glyph glyph-name="onedotenleader" unicode="&#x2024;" horiz-adv-x="197" 
d="M82 129q51 0 51 -55q0 -32 -19 -58t-48 -26q-50 0 -50 54q0 32 18.5 58.5t47.5 26.5z" />
    <glyph glyph-name="twodotenleader" unicode="&#x2025;" horiz-adv-x="359" 
d="M96 129q51 0 51 -55q0 -32 -19 -58t-48 -26q-50 0 -50 54q0 32 18.5 58.5t47.5 26.5zM272 129q51 0 51 -55q0 -32 -19 -58t-48 -26q-50 0 -50 54q0 32 18.5 58.5t47.5 26.5z" />
    <glyph glyph-name="ellipsis" unicode="&#x2026;" horiz-adv-x="540" 
d="M96 129q51 0 51 -55q0 -32 -19 -58t-48 -26q-50 0 -50 54q0 32 18.5 58.5t47.5 26.5zM272 129q51 0 51 -55q0 -32 -19 -58t-48 -26q-50 0 -50 54q0 32 18.5 58.5t47.5 26.5zM453 129q51 0 51 -55q0 -32 -19 -58t-48 -26q-50 0 -50 54q0 32 18.5 58.5t47.5 26.5z" />
    <glyph glyph-name="perthousand" unicode="&#x2030;" horiz-adv-x="1125" 
d="M210 -49l-45 32l434 736l45 -29zM720 196q0 -85 -49 -146t-128 -61q-61 0 -94.5 37.5t-33.5 100.5q0 85 49 147t128 62q61 0 94.5 -38t33.5 -102zM584 283q-45 0 -70 -49t-25 -107q0 -85 62 -85q47 0 71 48.5t24 107.5q0 85 -62 85zM1060 196q0 -85 -49 -146t-128 -61
q-61 0 -94.5 37.5t-33.5 100.5q0 85 49 147t128 62q61 0 94.5 -38t33.5 -102zM924 283q-45 0 -70 -49t-25 -107q0 -85 62 -85q47 0 71 48.5t24 107.5q0 85 -62 85zM384 526q0 -85 -49 -146t-128 -61q-61 0 -94.5 37.5t-33.5 100.5q0 85 49 147t128 62q61 0 94.5 -38
t33.5 -102zM248 613q-45 0 -70 -49t-25 -107q0 -85 62 -85q47 0 71 48.5t24 107.5q0 85 -62 85z" />
    <glyph glyph-name="guilsinglleft" unicode="&#x2039;" horiz-adv-x="257" 
d="M38 242l183 222l34 -25l-135 -197l79 -197l-41 -25z" />
    <glyph glyph-name="guilsinglright" unicode="&#x203a;" horiz-adv-x="257" 
d="M255 241l-186 -222l-33 25l133 196l-78 198l41 25z" />
    <glyph glyph-name="fraction" unicode="&#x2044;" horiz-adv-x="58" 
d="M263 721l44 -32l-528 -738l-44 32z" />
    <glyph glyph-name="zero.sups" unicode="&#x2070;" horiz-adv-x="354" 
d="M109 488.5q-31 44.5 -31 112t18 122t62 93t107.5 38.5t94 -45t30.5 -112.5t-18 -122t-61.5 -92.5t-107 -38t-94.5 44.5zM308 708q0 100 -50 100q-39 0 -68.5 -76.5t-29.5 -141.5q0 -101 50 -101q39 0 68.5 77t29.5 142z" />
    <glyph glyph-name="four.sups" unicode="&#x2074;" horiz-adv-x="340" 
d="M318 901l47 -43q-78 -70 -89 -84l-138 -162h98l10 71l74 24l-13 -90l56 3l-8 -54h-56l-2 -17q-4 -25 -4 -56l43 -4l-9 -42q-42 3 -102 3l-75 -3l2 37l61 9q10 31 12 49l4 24h-137l-31 46z" />
    <glyph glyph-name="five.sups" unicode="&#x2075;" horiz-adv-x="294" 
d="M225 781h-50q-11 -54 -22 -106q19 4 43 4q57 0 88 -26t31 -73q0 -79 -67 -128.5t-188 -65.5l-6 38q94 18 137 51.5t43 89.5q0 60 -68 60q-23 0 -56 -8l-22 24l42 196l13 11h48l147 6l-5 -63q-90 -10 -108 -10z" />
    <glyph glyph-name="six.sups" unicode="&#x2076;" horiz-adv-x="333" 
d="M251 699q51 0 80 -28t29 -84.5t-46 -100t-109 -43.5t-97.5 36t-34.5 99t34.5 131t108 124t169.5 73l4 -36q-62 -19 -110 -54.5t-74 -77.5q-51 -82 -51 -164q0 -35 13 -59t43.5 -24t49 31.5t18.5 63.5t-12 51t-32 19t-30 -2l2 38q19 7 45 7z" />
    <glyph glyph-name="seven.sups" unicode="&#x2077;" horiz-adv-x="314" 
d="M207 848h180l4 -35l-246 -427l-63 22l175 284q21 36 42 90h-96q-2 0 -41 -3l-12 -23l-8 -30l-42 3l22 112l14 12q57 -5 71 -5z" />
    <glyph glyph-name="eight.sups" unicode="&#x2078;" horiz-adv-x="329" 
d="M166 660q-55 38 -55 91.5t42.5 84t95 30.5t85.5 -23.5t33 -64.5q0 -64 -87 -115q68 -43 68 -100.5t-46 -88t-105.5 -30.5t-95.5 23.5t-36 69.5q0 70 101 123zM141 540q0 -26 15 -41t44.5 -15t50.5 20t21 44.5t-11 40t-22 23.5t-34 23q-64 -43 -64 -95zM294 776
q0 22 -13 36t-35 14t-42 -19t-20 -45.5t15 -43t44 -33.5q51 43 51 91z" />
    <glyph glyph-name="nine.sups" unicode="&#x2079;" horiz-adv-x="334" 
d="M197 598q-51 0 -80.5 27.5t-29.5 84t46.5 100.5t109 44t97.5 -36t35 -99.5t-33 -132t-106 -126t-171 -75.5l-5 38q69 20 118.5 58t72.5 83.5t32.5 83.5t9.5 74t-13 60.5t-44 24.5t-49 -31.5t-18 -64.5t13 -51.5t32.5 -18.5t29.5 2l-2 -38q-19 -7 -45 -7z" />
    <glyph glyph-name="n.sups" unicode="&#x207f;" horiz-adv-x="369" 
d="M245 722q37 37 83 37t46 -50q0 -28 -14.5 -101.5t-17.5 -110.5l50 -3l-2 -28l-116 -26l-19 10q45 163 45 216q0 30 -17 30q-28 0 -66 -63t-54 -139l-6 -44l-58 -10l-18 10q38 144 46 253l-47 2v28l111 26l19 -14q-16 -49 -28 -113q26 53 63 90z" />
    <glyph glyph-name="zero.sinf" unicode="&#x2080;" horiz-adv-x="375" 
d="M26.5 -60q-31.5 46 -31.5 115.5t19 126t63.5 96t109.5 39.5t96.5 -46t31.5 -116t-18.5 -126t-63.5 -95.5t-110 -39.5t-96.5 46zM233 166q0 105 -53 105q-42 0 -72.5 -79.5t-30.5 -146.5q0 -105 53 -105q41 0 72 79.5t31 146.5z" />
    <glyph glyph-name="one.sinf" unicode="&#x2081;" horiz-adv-x="273" 
d="M186 -60l-10 -43q-41 3 -102 3l-80 -3l3 38l56 9q5 17 8.5 31.5t4.5 19.5l33 222l-71 -31l-15 33q82 58 96 68l35 36l48 -7q-22 -116 -27 -148l-23 -154q-5 -36 -5 -70z" />
    <glyph glyph-name="two.sinf" unicode="&#x2082;" horiz-adv-x="348" 
d="M35 295q61 22 121.5 22t91.5 -23.5t31 -72.5t-44.5 -102.5t-178.5 -160.5h92l55 6q16 25 17 30l7 26l42 -3l-21 -106l-18 -13q-57 2 -70 2h-189v55q142 121 183.5 168.5t41.5 90.5q0 25 -14.5 39.5t-41.5 14.5t-58 -16q-9 -23 -10 -28l-3 -28l-43 -2z" />
    <glyph glyph-name="three.sinf" unicode="&#x2083;" horiz-adv-x="318" 
d="M128 317q119 0 119 -90q0 -79 -88 -117q34 -9 54.5 -34t20.5 -57q0 -69 -79 -121.5t-196 -63.5l-7 39q89 13 143.5 52t54.5 91q0 29 -16.5 44.5t-46.5 15.5l-41 -2l-3 38q124 18 124 109q0 51 -48 51q-25 0 -49 -11q-8 -23 -8 -25l-5 -34l-44 -2l7 99q57 18 108 18z" />
    <glyph glyph-name="four.sinf" unicode="&#x2084;" horiz-adv-x="359" 
d="M241 366l48 -43q-81 -73 -93 -88l-142 -169l103 1l11 75l74 24l-14 -94l58 3l-8 -55h-58l-2 -17q-4 -27 -4 -60l45 -4l-10 -42q-42 3 -102 3l-79 -3l2 38l63 8q0 2 3 13q10 28 10 38l4 26h-143l-32 47z" />
    <glyph glyph-name="five.sinf" unicode="&#x2085;" horiz-adv-x="313" 
d="M143 244h-50q-12 -59 -23 -112q20 4 45 4q58 0 90.5 -27t32.5 -76q0 -81 -69.5 -132t-193.5 -67l-6 38q96 18 141.5 52.5t45.5 93.5q0 63 -71 63q-28 0 -58 -8l-23 24l43 202l14 12h49l152 6l-5 -62q-95 -11 -114 -11z" />
    <glyph glyph-name="six.sinf" unicode="&#x2086;" horiz-adv-x="353" 
d="M172 157q52 0 82 -29t30 -79q0 -67 -47.5 -111.5t-112 -44.5t-100 37t-35.5 97q0 111 87.5 214t234.5 130l3 -36q-124 -38 -184 -127t-60 -180q0 -37 14 -62t46 -25t52 32.5t20 66.5t-13 53.5t-33.5 19.5t-32.5 -2l2 38q22 8 47 8z" />
    <glyph glyph-name="seven.sinf" unicode="&#x2087;" horiz-adv-x="334" 
d="M128 311h184l5 -35l-254 -442l-63 22l180 296q19 27 43 93h-99q-4 0 -43 -3q-2 -4 -6.5 -12t-5.5 -12l-9 -30l-42 2l22 114l14 12q60 -5 74 -5z" />
    <glyph glyph-name="eight.sinf" unicode="&#x2088;" 
d="M85 117q-57 40 -57 95t44 86.5t98 31.5t87.5 -24.5t33.5 -66.5q0 -65 -90 -119q70 -44 70 -103.5t-47 -91t-108 -31.5t-98 24t-37 71q0 73 104 128zM57 -8q0 -26 15.5 -42t46.5 -16t53.5 21.5t22.5 47t-11.5 42t-23.5 25t-36 23.5q-67 -45 -67 -101zM217 236
q0 24 -13.5 38.5t-37 14.5t-44 -20t-20.5 -43.5t9.5 -39t20 -24t31.5 -21.5q54 45 54 95z" />
    <glyph glyph-name="nine.sinf" unicode="&#x2089;" horiz-adv-x="353" 
d="M117 53q-53 0 -83.5 29t-30.5 87t47.5 103t112 45t100.5 -37t36 -98q0 -112 -85 -216t-234 -133l-5 38q58 17 103 47t70.5 62.5t41.5 71.5q27 66 27 116q0 102 -56 102q-37 0 -56 -33t-19 -67.5t13.5 -53.5t33.5 -19t32 2l-2 -38q-18 -8 -46 -8z" />
    <glyph glyph-name="Euro" unicode="&#x20ac;" horiz-adv-x="668" 
d="M463 662q32 0 54.5 -3.5t32.5 -5t27.5 -5.5t24.5 -6q23 -7 50 -14l-33 -148l-58 6l6 45q1 3 1 13t-3 37q-60 23 -110 23q-84 0 -142 -60t-82 -157l202 9l-3 -34l-206 -10q-5 -31 -7 -72l205 10l-3 -34l-202 -10q3 -92 43 -147.5t114 -55.5q58 0 124 22q17 35 21 56l9 47
l60 2l-17 -151q-134 -34 -207 -34q-119 0 -183 69t-69 187l-93 -4l3 35l90 4q0 25 6 71l-88 -4l3 35l92 4q30 128 117 204t221 76z" />
    <glyph glyph-name="trademark" unicode="&#x2122;" horiz-adv-x="506" 
d="M481 706h34l42 1l-3 -25l-21 -4l-3 -18l-11 -144q0 -9 3 -18l18 -3l-4 -25q-23 2 -58 2l-33 -2l2 23l22 5l6 28l11 115l-82 -169h-32l-30 169l-24 -115l-3 -28l21 -3l-5 -25q-14 2 -51 2l-32 -2l2 23l23 5q1 3 4 9.5t3 8.5l28 144q1 4 1 18l-20 4l5 25q18 -1 34 -3h47
l6 -5q5 -37 7 -51l17 -101l49 107l19 45zM233.5 669.5q-1.5 3.5 -1.5 5.5q-8 2 -23 2h-16l-7 -25l-17 -115q-3 -21 -3 -28.5t1 -9.5l20 -2l-6 -27q-26 2 -64 2l-31 -2l1 24l22 5l7 28l16 111q3 18 3 39h-14q-11 0 -27 -2q-1 -5 -3 -7l-6 -23l-24 1l11 56l7 7q30 -3 36 -3
h106l36 3l6 -7l-6 -56l-23 -1q1 3 1 12t-1.5 12.5z" />
    <glyph glyph-name="estimated" unicode="&#x212e;" horiz-adv-x="797" 
d="M180 311q-5 0 -5 -4v-181q0 -10 9 -21q91 -97 230.5 -97t232.5 109h54q-51 -60 -128 -94.5t-164 -34.5q-152 0 -260.5 97t-108.5 234.5t108 234.5t260.5 97t260.5 -97t108 -235v-8h-597zM643 516q0 12 -10 22q-93 93 -224 93t-224 -96q-10 -10 -10 -23v-178q0 -5 5 -5
h458q5 0 5 5v182z" />
    <glyph glyph-name="partialdiff" unicode="&#x2202;" horiz-adv-x="552" 
d="M357 336q-48 8 -83 8q-65 0 -105.5 -55t-40.5 -116.5t25.5 -94t76 -32.5t91 44t61.5 112q42 133 42 267q0 193 -111 193q-35 0 -56 -6t-40.5 -12.5t-24.5 -7.5l-12 42q80 42 141 42q102 0 149 -72t47 -190q0 -175 -69 -314q-34 -70 -93.5 -112.5t-138.5 -42.5t-131 48.5
t-52 128.5q0 101 69 169t171 68q49 0 97 -19z" />
    <glyph glyph-name="product" unicode="&#x220f;" horiz-adv-x="560" 
d="M212 630l-116 -858h-75l121 857h-82l11 75h579l-10 -70l-80 -1l-121 -861h-70l116 860z" />
    <glyph glyph-name="summation" unicode="&#x2211;" horiz-adv-x="560" 
d="M427 244l-335 -407l383 5l-10 -70h-474l-2 57l348 414l-224 406l18 56h438l-10 -70l-344 5z" />
    <glyph glyph-name="minus" unicode="&#x2212;" horiz-adv-x="560" 
d="M525 223l-435 -5l10 76h435z" />
    <glyph glyph-name="radical" unicode="&#x221a;" horiz-adv-x="646" 
d="M368 39l275 682l71 -21l-334 -790h-60l-74 513l-191 -51l-8 74l265 67l9 -69h-1z" />
    <glyph glyph-name="infinity" unicode="&#x221e;" horiz-adv-x="750" 
d="M307 170.5q-43 -32.5 -108 -32.5t-101 45.5t-36 114.5q0 91 54 163.5t139 72.5q100 0 152 -128q42 62 85 94.5t108 32.5t101 -45.5t36 -114.5q0 -91 -54 -163.5t-139 -72.5q-100 0 -152 128q-42 -62 -85 -94.5zM243 447q-53 0 -93 -38t-40 -85t28 -73t74.5 -26t82.5 33.5
t81 101.5q-46 87 -133 87zM556 224q53 0 93 38t40 85t-28 73t-62.5 26t-58 -9.5t-45.5 -32.5q-30 -30 -73 -93q47 -87 134 -87z" />
    <glyph glyph-name="integral" unicode="&#x222b;" horiz-adv-x="480" 
d="M78 -235q-28 0 -51 9l18 53q19 -7 40 -7q86 0 103 116q9 65 19 291.5t22 310.5t59.5 130.5t122.5 46.5q29 0 51 -9l-18 -53q-19 7 -40 7q-86 0 -103 -116q-9 -65 -19 -291.5t-22 -310.5t-59.5 -130.5t-122.5 -46.5z" />
    <glyph glyph-name="approxequal" unicode="&#x2248;" horiz-adv-x="560" 
d="M391.5 269q-26.5 0 -111.5 30t-104 30q-34 0 -74 -41l-13 -14l-36 33q26 36 64.5 67.5t60.5 31.5q37 0 118.5 -30t100.5 -30q32 0 73 45l13 15l36 -33q-25 -37 -63 -70.5t-64.5 -33.5zM368.5 94q-26.5 0 -111.5 30t-105 30q-31 0 -72 -42l-14 -13l-36 33q26 36 64.5 67.5
t60.5 31.5q37 0 118.5 -30t100.5 -30q32 0 72 45l14 15l36 -33q-25 -37 -63 -70.5t-64.5 -33.5z" />
    <glyph glyph-name="notequal" unicode="&#x2260;" horiz-adv-x="560" 
d="M298 187l214 3l-8 -71h-247l-85 -141l-58 17l75 124h-120l8 66l153 1l74 123l-209 -2l10 71h240l81 134l58 -17l-71 -117h127l-10 -66l-158 -2z" />
    <glyph glyph-name="lessequal" unicode="&#x2264;" horiz-adv-x="560" 
d="M58 66l437 5l-10 -71h-435zM126 335l342 235l37 -61l-260 -174l213 -174l-54 -61z" />
    <glyph glyph-name="greaterequal" unicode="&#x2265;" horiz-adv-x="560" 
d="M78 66l437 5l-10 -71h-435zM510 335l-342 -235l-37 61l260 174l-213 174l54 61z" />
    <glyph glyph-name="lozenge" unicode="&#x25ca;" horiz-adv-x="560" 
d="M321 570l220 -286l-303 -282l-221 282zM254 110l188 175l-137 177l-189 -177z" />
    <glyph glyph-name="a.sups" horiz-adv-x="343" 
d="M210 759q29 0 79 -10l44 10l20 -13q-37 -145 -41 -249l52 -3l-2 -28l-110 -26l-19 10q21 64 29 121q-28 -58 -64 -94t-68 -36q-61 0 -61 93q0 76 46 150.5t95 74.5zM163 502q25 0 60.5 61.5t44.5 126.5q-45 18 -68 18q-20 0 -39.5 -52.5t-19.5 -103t22 -50.5z" />
    <glyph glyph-name="b.sups" horiz-adv-x="320" 
d="M213 440l-74 9l-49 -9l-19 10q23 81 41.5 208.5t24.5 207.5l-47 7l-1 28l113 19l18 -15q-37 -195 -46 -250q57 103 124 103q27 0 41.5 -25.5t14.5 -67.5q0 -76 -46 -150.5t-95 -74.5zM223 491q20 0 39.5 53t19.5 103.5t-22 50.5q-25 0 -60.5 -62t-44.5 -127
q45 -18 68 -18z" />
    <glyph glyph-name="c.sups" horiz-adv-x="251" 
d="M199 757q35 0 87 -7l13 -20l-23 -94l-28 1l-2 58q-32 11 -49 11q-20 0 -40 -55.5t-20 -107t34 -51.5q39 0 85 54l25 -20q-56 -85 -139 -85q-37 0 -57 24t-20 68q0 72 45.5 148t88.5 76z" />
    <glyph glyph-name="d.sups" horiz-adv-x="344" 
d="M198.5 476.5q-35.5 -35.5 -68.5 -35.5q-61 0 -61 93q0 76 46 150.5t95 74.5q14 0 67 -8q9 62 13 115l-51 7l-1 28l116 19l18 -15q-55 -287 -61 -408l54 -3l-2 -28l-111 -26l-18 10q17 58 28 120q-28 -58 -63.5 -93.5zM200 708q-20 0 -39.5 -52.5t-19.5 -103t22 -50.5
q25 0 60.5 61.5t44.5 126.5q-45 18 -68 18z" />
    <glyph glyph-name="e.sups" horiz-adv-x="264" 
d="M210 757q96 0 96 -52q0 -48 -45 -83t-123 -49q-2 -11 -2 -31q0 -51 35 -51q44 0 92 55l24 -20q-26 -38 -65.5 -61.5t-77 -23.5t-58.5 23t-21 69q0 72 50 148t95 76zM203 710q-16 0 -33 -30.5t-26 -72.5q43 9 69 32t26 49q0 22 -36 22z" />
    <glyph glyph-name="f.sups" horiz-adv-x="199" 
d="M-27 307q-21 0 -27 1l23 56q18 -3 32 -3q49 0 68 19q29 31 61 325h-54l3 34l15 5q28 8 36 13q8 6 12 26q13 61 63.5 99t119.5 38l28 -3l-21 -55q-18 4 -34.5 4t-38.5 -6.5t-27 -13.5q-14 -21 -27 -99h70l-10 -42h-68q-8 -47 -16 -111q-17 -136 -29 -171
q-20 -59 -69.5 -87.5t-109.5 -28.5z" />
    <glyph glyph-name="g.sups" horiz-adv-x="325" 
d="M201 319q-35 -12 -85 -12t-78 14l24 61q44 -20 95 -20t70 19q11 10 14 64q0 5 5 25q11 54 18 99q-27 -58 -63 -93t-69 -35q-60 0 -60 92q0 76 45.5 151t94.5 75q13 0 46 -5t34 -5l44 10l20 -13q-25 -91 -49 -287q-7 -57 -39 -92.5t-67 -47.5zM203 708q-20 0 -39.5 -52.5
t-19.5 -103t21 -50.5q25 0 60.5 61.5t44.5 126.5q-42 18 -67 18z" />
    <glyph glyph-name="h.sups" horiz-adv-x="359" 
d="M317 759q23 0 35.5 -13.5t12.5 -39t-15 -99t-18 -110.5l50 -3l-2 -28l-116 -26l-18 10q44 167 44 216q0 30 -17 30q-27 0 -66 -65.5t-54 -140.5q-4 -29 -5 -40l-58 -10l-19 10q23 81 41.5 208.5t24.5 207.5l-47 7l-1 28l113 19l18 -15q-42 -223 -51 -278q65 132 148 132z
" />
    <glyph glyph-name="i.sups" horiz-adv-x="196" 
d="M191 759l19 -14q-27 -109 -44 -248l51 -3l-2 -28l-113 -26l-19 10q35 133 44 253l-46 2l-1 28zM189 898q36 0 36 -36q0 -20 -13.5 -36.5t-32.5 -16.5q-35 0 -35 35q0 20 13 37t32 17z" />
    <glyph glyph-name="j.sups" horiz-adv-x="184" 
d="M186 759l19 -14q-21 -83 -53 -304q-3 -22 -108 -134l-24 18q52 91 63 134q30 125 39 244l-46 2l-1 28zM185 898q35 0 35 -36q0 -20 -13.5 -36.5t-32.5 -16.5q-35 0 -35 35q0 20 13.5 37t32.5 17z" />
    <glyph glyph-name="k.sups" horiz-adv-x="329" 
d="M316 759q48 0 48 -50q0 -83 -112 -128q32 -51 63 -84l50 -3l-2 -28l-98 -27l-76 123v27q51 16 79.5 41.5t27.5 54.5q2 18 -16 18q-34 0 -71.5 -60.5t-53.5 -138.5q-3 -18 -7 -54l-57 -10l-20 10q19 66 38.5 192t27.5 224l-47 7l-1 28l113 19l18 -15q-40 -208 -48 -261
q27 52 66.5 83.5t77.5 31.5z" />
    <glyph glyph-name="l.sups" horiz-adv-x="184" 
d="M202 920l18 -15q-46 -248 -66 -408l51 -3l-2 -28l-113 -26l-19 10q23 81 41.5 208.5t24.5 207.5l-47 7l-1 28z" />
    <glyph glyph-name="m.sups" horiz-adv-x="540" 
d="M244 722q37 37 83 37t46 -50q0 -25 -4 -49q58 99 130 99q47 0 47 -50q0 -28 -14.5 -101.5t-17.5 -110.5l49 -3l-2 -28l-115 -26l-19 10q45 163 45 216q0 30 -17 30q-27 0 -65 -63.5t-54 -138.5q-4 -25 -5 -44l-58 -10l-18 10q44 167 44 216q0 30 -17 30q-27 0 -65 -62.5
t-54 -139.5l-6 -44l-58 -10l-18 10q38 144 46 253l-47 2v28l111 26l19 -14q-16 -49 -28 -113q25 53 62 90z" />
    <glyph glyph-name="o.sups" horiz-adv-x="305" 
d="M240 759q47 0 71.5 -28t24.5 -81q0 -86 -51 -147.5t-121 -61.5q-46 0 -70.5 28.5t-24.5 81.5q0 85 50.5 146.5t120.5 61.5zM238.5 531.5q21.5 43.5 21.5 112.5t-36.5 69t-58 -44t-21.5 -112.5t36.5 -68.5t58 43.5z" />
    <glyph glyph-name="p.sups" horiz-adv-x="327" 
d="M306 759q28 0 41.5 -24.5t13.5 -62.5v-6q1 -75 -45.5 -150t-94.5 -75q-13 0 -66 8q-13 -94 -20 -158l-57 -10l-19 10q22 85 40.5 206.5t25.5 205.5l-47 2v28l110 26l19 -14q-20 -73 -22 -83q57 97 121 97zM231 492q19 0 38.5 53t19.5 103.5t-21 50.5q-25 0 -60.5 -62
t-44.5 -127q45 -18 68 -18z" />
    <glyph glyph-name="q.sups" horiz-adv-x="325" 
d="M193 472q-34 -31 -65 -31q-59 0 -59 93q0 76 46 150.5t95 74.5q14 0 77 -10l42 10l20 -13q-38 -131 -66 -409l52 -3l-2 -28l-113 -26l-19 10q18 86 26 125t16 76t12 64q-28 -52 -62 -83zM200 708q-20 0 -39.5 -52.5t-19.5 -103t22 -50.5q25 0 60 61.5t44 126.5
q-42 18 -67 18z" />
    <glyph glyph-name="r.sups" horiz-adv-x="264" 
d="M300 759q7 0 15 -2l13 -20l-27 -109l-29 1l-2 65q-30 -15 -61 -68t-43 -109l-9 -67l-58 -10l-18 10q37 140 46 253l-47 2v28l111 26l19 -14q-21 -60 -32 -111q26 55 60 90t62 35z" />
    <glyph glyph-name="s.sups" horiz-adv-x="247" 
d="M199 759q22 0 64 -7l12 -2l13 -20l-22 -76l-28 1l-5 56q-17 11 -35.5 11t-30 -9t-11.5 -23.5t17.5 -31.5t38.5 -31.5t38.5 -37.5t17.5 -47q0 -45 -34 -73t-85.5 -28t-92.5 31l-4 24l31 67l26 -8l-4 -57q23 -18 46 -18q45 0 45 41q0 25 -54 61q-20 13 -36.5 37t-16.5 58
t30.5 58t79.5 24z" />
    <glyph glyph-name="t.sups" horiz-adv-x="211" 
d="M259 705h-61q-22 -129 -32 -208l65 -3l-2 -28l-126 -26l-19 10q31 120 46 255h-52l4 34q52 16 60 21q16 10 34 46l7 13l34 -10q-6 -29 -11 -62h64z" />
    <glyph glyph-name="u.sups" horiz-adv-x="360" 
d="M132 441q-22 0 -34.5 15t-12.5 39.5t16.5 96.5t19.5 111l-47 2v28l110 26l19 -14q-44 -161 -44 -211q0 -29 17 -29q23 0 57 48q42 63 64 163l6 33l58 10l18 -10q-42 -161 -50 -252l52 -3l-3 -28l-113 -26l-19 10q23 67 32 122q-63 -131 -146 -131z" />
    <glyph glyph-name="v.sups" horiz-adv-x="312" 
d="M119 658l-1 45l-46 2l-2 28l98 26l20 -13v-67q0 -11 -12 -79t-12 -84.5t15 -16.5q36 0 72.5 55.5t36.5 109.5q0 8 -3 39l-45 2l-2 28l101 26l20 -13q-4 -114 -73.5 -209.5t-148.5 -95.5q-46 0 -46 42q0 16 14 85.5t14 89.5z" />
    <glyph glyph-name="w.sups" horiz-adv-x="484" 
d="M308 441q-40 0 -40 43q0 5 4 39q-66 -82 -138 -82q-46 0 -46 42q0 16 14.5 85.5t14.5 95t-2 39.5l-46 2l-2 28l97 26l21 -13v-67q0 -11 -12 -79t-12 -84.5t15 -16.5q37 0 73.5 53t36.5 112q0 9 -9 84l56 11l18 -10l3 -70q0 -11 -10.5 -79t-10.5 -84.5t16 -16.5
q35 0 74 54t39 111q0 9 -3 39l-45 2l-1 28l100 26l20 -13q-3 -116 -74 -210.5t-151 -94.5z" />
    <glyph glyph-name="x.sups" horiz-adv-x="316" 
d="M359 748l7 -46q-47 -16 -54 -22q-7 -4 -70 -77q20 -53 45 -106l61 -3l-2 -28l-100 -26l-18 10q-14 42 -36 101q-42 -48 -62 -69l-56 -41l-17 12l-15 42q46 17 66 27q3 2 14.5 15t28 31.5t24.5 27.5q-26 65 -51 107l-46 3l-5 28l99 26l20 -14q18 -57 33 -98q53 61 62 70
l56 41z" />
    <glyph glyph-name="y.sups" horiz-adv-x="339" 
d="M195.5 314q-27.5 -7 -71 -7t-73.5 14l24 61q44 -20 95 -20t70 19q9 8 12 51q0 2 10.5 49t15.5 90q-64 -130 -146 -130q-22 0 -34.5 15t-12.5 39.5t16.5 96.5t19.5 111l-47 2v28l110 26l19 -14q-44 -161 -44 -211q0 -29 17 -29q28 0 62.5 58t55.5 140l-46 2l-1 28l103 26
l20 -13q-27 -98 -50 -287q-5 -43 -24 -74.5t-46 -47.5t-54.5 -23z" />
    <glyph glyph-name="z.sups" horiz-adv-x="285" 
d="M98 759l187 -12l37 9l10 -20q-112 -139 -176 -244q62 0 100 8l30 56q5 -1 26 -8l-15 -89l-20 -17l-177 8l-31 -8l-19 18q115 137 180 244q-62 -1 -102 -9l-16 -47l-28 1l1 91z" />
    <glyph glyph-name="zero.tf" horiz-adv-x="510" 
d="M40 246q0 185 76.5 300.5t200.5 115.5q85 0 132.5 -67t47.5 -189q0 -185 -77 -300.5t-200 -115.5q-86 0 -133 67t-47 189zM401 420q0 87 -24.5 134.5t-68.5 47.5q-76 0 -124 -104t-48 -267q0 -86 24 -133.5t68 -47.5q76 0 124.5 104t48.5 266z" />
    <glyph glyph-name="one.tf" horiz-adv-x="510" 
d="M373 54l-17 -59q-55 5 -140 5l-145 -5v50l107 16q18 58 20 76l62 387l-145 -59l-23 42q149 92 165 102q18 11 59 51l13 12l40 -12q-35 -184 -43 -234l-40 -259q-4 -25 -6 -63.5t-3 -42.5z" />
    <glyph glyph-name="two.tf" horiz-adv-x="510" 
d="M112 626q95 36 183.5 36t135 -36.5t46.5 -102t-26 -115t-101.5 -122.5t-245.5 -213h183q12 0 84 8l19 35l12 47l54 -4l-29 -142l-22 -20q-95 3 -118 3h-273l-4 73q236 211 302.5 288.5t66.5 142.5q0 46 -26 74t-74.5 28t-98.5 -28q-9 -20 -18 -51l-3 -45l-56 -3z" />
    <glyph glyph-name="three.tf" horiz-adv-x="510" 
d="M98 633q91 29 174 29t130 -35.5t47 -101t-39.5 -114.5t-110.5 -76q63 -17 96.5 -55.5t33.5 -91.5q0 -109 -124 -191t-316 -102l-11 53q164 24 259.5 88t95.5 146q0 49 -34.5 78t-92.5 29l-73 -3l-8 48q116 14 171.5 56t55.5 118q0 100 -98 100q-46 0 -85 -22
q-18 -42 -19 -50l-4 -45l-56 -3z" />
    <glyph glyph-name="four.tf" horiz-adv-x="510" 
d="M423 739l60 -51l-24 -23q-116 -112 -131 -131l-221 -280l190 3l20 142l83 27l-24 -164l90 6l-10 -67h-89l-5 -34q-9 -63 -9 -106l79 -7l-15 -59q-49 5 -128 5l-133 -5l2 50l101 16q19 66 20 76l10 64h-248l-36 53z" />
    <glyph glyph-name="five.tf" horiz-adv-x="510" 
d="M261 572h-63l-46 -217q47 9 97 9q88 0 144.5 -40t56.5 -119q0 -131 -111 -211t-289 -99l-11 53q315 56 315 240q0 109 -142 109q-42 0 -103 -13l-34 21l67 329l21 18h67l262 10l-4 -67q-198 -23 -227 -23z" />
    <glyph glyph-name="six.tf" horiz-adv-x="510" 
d="M304 403q80 0 128 -48t48 -127q0 -102 -72 -170.5t-168.5 -68.5t-148 58t-51.5 146.5t32.5 174.5t92 163t155 135.5t210.5 80.5l5 -53q-87 -22 -157.5 -65t-115 -94t-74.5 -111q-54 -107 -54 -219q0 -66 28 -112.5t85.5 -46.5t97 53t39.5 112.5t-26.5 96t-71.5 36.5
q-29 0 -62 -5l2 48q42 16 78 16z" />
    <glyph glyph-name="seven.tf" horiz-adv-x="510" 
d="M271 652h266l10 -39l-390 -718l-75 25l287 502q13 21 67 157h-167q-22 0 -85 -6q-16 -25 -19 -34l-12 -50l-55 4l30 148l23 20q96 -9 120 -9z" />
    <glyph glyph-name="eight.tf" horiz-adv-x="510" 
d="M191 347q-92 63 -92 148.5t65.5 136t146 50.5t130 -38.5t49.5 -104.5q0 -108 -145 -192q115 -68 115 -161.5t-71 -144.5t-163 -51t-146.5 39t-54.5 112q0 117 166 206zM116 145q0 -49 30 -78.5t83 -29.5t96 39.5t43 97.5q0 48 -38 82q-29 26 -84 60l-7 3
q-123 -78 -123 -174zM403 535q0 43 -25.5 71.5t-69 28.5t-83 -38.5t-39.5 -88.5q0 -48 37 -80q27 -23 52.5 -40t26.5 -17q101 76 101 164z" />
    <glyph glyph-name="nine.tf" horiz-adv-x="510" 
d="M232 248q-82 0 -131.5 47t-49.5 126q0 102 72 171.5t169.5 69.5t149.5 -59t52 -148.5t-29 -173.5t-85.5 -162t-151.5 -138.5t-215 -87.5l-11 52q108 31 187 87t122 126q85 137 85 293q0 61 -27.5 107.5t-86 46.5t-96 -54t-37.5 -113.5t27.5 -95t73.5 -35.5l60 3l-1 -47
q-35 -15 -77 -15z" />
    <glyph glyph-name="zero.dnom" horiz-adv-x="354" 
d="M29 38.5q-31 44.5 -31 112t18 122t62 93t107.5 38.5t94 -45t30.5 -112.5t-18 -122t-61.5 -92.5t-107 -38t-94.5 44.5zM228 258q0 100 -50 100q-39 0 -68.5 -76.5t-29.5 -141.5q0 -101 50 -101q39 0 68.5 77t29.5 142z" />
    <glyph glyph-name="one.dnom" horiz-adv-x="256" 
d="M187 39l-10 -42q-40 3 -101 3l-77 -3l2 38l55 8q9 28 13 50l31 212l-69 -29l-14 33q80 56 93 66l35 35l48 -7q-22 -113 -26 -143l-22 -149q-5 -28 -5 -68z" />
    <glyph glyph-name="two.dnom" horiz-adv-x="330" 
d="M36 395q60 22 121 22t92 -23.5t31 -72.5t-44.5 -102.5t-178.5 -160.5h92l55 6q16 25 17 30l7 26l42 -3l-21 -106l-18 -13q-57 2 -70 2h-186v55q140 119 181 167.5t41 91.5q0 25 -14.5 39.5t-41.5 14.5t-58 -16q-9 -23 -10 -28l-3 -28l-43 -2z" />
    <glyph glyph-name="three.dnom" horiz-adv-x="299" 
d="M129 404q115 0 115 -88q0 -75 -84 -113q33 -8 52.5 -32t19.5 -55q0 -67 -77 -118t-191 -62l-6 39q85 12 137.5 49.5t52.5 88.5q0 56 -60 56l-39 -2l-3 39q119 17 119 105q0 48 -46 48q-22 0 -47 -10l-8 -24l-4 -33l-43 -3l6 97q56 18 106 18z" />
    <glyph glyph-name="four.dnom" horiz-adv-x="340" 
d="M238 451l47 -43q-78 -70 -89 -84l-138 -162h98l10 71l74 24l-13 -90l56 3l-8 -54h-56l-2 -17q-4 -25 -4 -56l43 -4l-9 -42q-42 3 -102 3l-75 -3l2 37l61 9q10 31 12 49l4 24h-137l-31 46z" />
    <glyph glyph-name="five.dnom" horiz-adv-x="294" 
d="M145 331h-50q-11 -54 -22 -106q19 4 43 4q57 0 88 -26t31 -73q0 -79 -67 -128.5t-188 -65.5l-6 38q94 18 137 51.5t43 89.5q0 60 -68 60q-23 0 -56 -8l-22 24l42 196l13 11h48l147 6l-5 -63q-90 -10 -108 -10z" />
    <glyph glyph-name="six.dnom" horiz-adv-x="333" 
d="M171 249q51 0 80 -28t29 -84.5t-46 -100t-109 -43.5t-97.5 36t-34.5 99t34.5 131t108 124t169.5 73l4 -36q-62 -19 -110 -54.5t-74 -77.5q-51 -82 -51 -164q0 -35 13 -59t43.5 -24t49 31.5t18.5 63.5t-12 51t-32 19t-30 -2l2 38q19 7 45 7z" />
    <glyph glyph-name="seven.dnom" horiz-adv-x="314" 
d="M127 398h180l4 -35l-246 -427l-63 22l175 284q21 36 42 90h-96q-2 0 -41 -3l-12 -23l-8 -30l-42 3l22 112l14 12q57 -5 71 -5z" />
    <glyph glyph-name="eight.dnom" horiz-adv-x="329" 
d="M86 210q-55 38 -55 91.5t42.5 84t95 30.5t85.5 -23.5t33 -64.5q0 -64 -87 -115q68 -43 68 -100.5t-46 -88t-105.5 -30.5t-95.5 23.5t-36 69.5q0 70 101 123zM61 90q0 -26 15 -41t44.5 -15t50.5 20t21 44.5t-11 40t-22 23.5t-34 23q-64 -43 -64 -95zM214 326q0 22 -13 36
t-35 14t-42 -19t-20 -45.5t15 -43t44 -33.5q51 43 51 91z" />
    <glyph glyph-name="nine.dnom" horiz-adv-x="334" 
d="M117 148q-51 0 -80.5 27.5t-29.5 84t46.5 100.5t109 44t97.5 -36t35 -99.5t-33 -132t-106 -126t-171 -75.5l-5 38q69 20 118.5 58t72.5 83.5t32.5 83.5t9.5 74t-13 60.5t-44 24.5t-49 -31.5t-18 -64.5t13 -51.5t32.5 -18.5t29.5 2l-2 -38q-19 -7 -45 -7z" />
    <glyph glyph-name="zero.numr" horiz-adv-x="354" 
d="M79 338.5q-31 44.5 -31 112t18 122t62 93t107.5 38.5t94 -45t30.5 -112.5t-18 -122t-61.5 -92.5t-107 -38t-94.5 44.5zM278 558q0 100 -50 100q-39 0 -68.5 -76.5t-29.5 -141.5q0 -101 50 -101q39 0 68.5 77t29.5 142z" />
    <glyph glyph-name="one.numr" horiz-adv-x="256" 
d="M237 339l-10 -42q-40 3 -101 3l-77 -3l2 38l55 8q9 28 13 50l31 212l-69 -29l-14 33q80 56 93 66l35 35l48 -7q-22 -113 -26 -143l-22 -149q-5 -28 -5 -68z" />
    <glyph glyph-name="two.numr" horiz-adv-x="330" 
d="M86 695q60 22 121 22t92 -23.5t31 -72.5t-44.5 -102.5t-178.5 -160.5h92l55 6q16 25 17 30l7 26l42 -3l-21 -106l-18 -13q-57 2 -70 2h-189v55q142 121 183.5 168.5t41.5 90.5q0 25 -14.5 39.5t-41.5 14.5t-58 -16q-9 -23 -10 -28l-3 -28l-43 -2z" />
    <glyph glyph-name="three.numr" horiz-adv-x="299" 
d="M179 704q115 0 115 -88q0 -75 -84 -113q33 -8 52.5 -32t19.5 -55q0 -67 -77 -118t-191 -62l-6 39q85 12 137.5 49.5t52.5 88.5q0 56 -60 56l-39 -2l-3 39q119 17 119 105q0 48 -46 48q-22 0 -47 -10l-8 -24l-4 -33l-43 -3l6 97q55 18 106 18z" />
    <glyph glyph-name="four.numr" horiz-adv-x="340" 
d="M288 751l47 -43q-78 -70 -89 -84l-138 -162h98l10 71l74 24l-13 -90l56 3l-8 -54h-56l-2 -17q-4 -25 -4 -56l43 -4l-9 -42q-42 3 -102 3l-75 -3l2 37l61 9q10 31 12 49l4 24h-137l-31 46z" />
    <glyph glyph-name="five.numr" horiz-adv-x="294" 
d="M195 631h-50q-11 -54 -22 -106q19 4 43 4q57 0 88 -26t31 -73q0 -79 -67 -128.5t-188 -65.5l-6 38q94 18 137 51.5t43 89.5q0 60 -68 60q-23 0 -56 -8l-22 24l42 196l13 11h48l147 6l-5 -63q-90 -10 -108 -10z" />
    <glyph glyph-name="six.numr" horiz-adv-x="333" 
d="M221 549q51 0 80 -28t29 -84.5t-46 -100t-109 -43.5t-97.5 36t-34.5 99t34.5 131t108 124t169.5 73l4 -36q-62 -19 -110 -54.5t-74 -77.5q-51 -82 -51 -164q0 -35 13 -59t43.5 -24t49 31.5t18.5 63.5t-12 51t-32 19t-30 -2l2 38q19 7 45 7z" />
    <glyph glyph-name="seven.numr" horiz-adv-x="314" 
d="M177 698h180l4 -35l-246 -427l-63 22l175 284q21 36 42 90h-96q-2 0 -41 -3l-12 -23l-8 -30l-42 3l22 112l14 12q57 -5 71 -5z" />
    <glyph glyph-name="eight.numr" horiz-adv-x="329" 
d="M136 510q-55 38 -55 91.5t42.5 84t95 30.5t85.5 -23.5t33 -64.5q0 -64 -87 -115q68 -43 68 -100.5t-46 -88t-105.5 -30.5t-95.5 23.5t-36 69.5q0 70 101 123zM111 390q0 -26 15 -41t44.5 -15t50.5 20t21 44.5t-11 40t-22 23.5t-34 23q-64 -43 -64 -95zM264 626
q0 22 -13 36t-35 14t-42 -19t-20 -45.5t15 -43t44 -33.5q51 43 51 91z" />
    <glyph glyph-name="nine.numr" horiz-adv-x="334" 
d="M167 448q-51 0 -80.5 27.5t-29.5 84t46.5 100.5t109 44t97.5 -36t35 -99.5t-33 -132t-106 -126t-171 -75.5l-5 38q69 20 118.5 58t72.5 83.5t32.5 83.5t9.5 74t-13 60.5t-44 24.5t-49 -31.5t-18 -64.5t13 -51.5t32.5 -18.5t29.5 2l-2 -38q-19 -7 -45 -7z" />
    <glyph glyph-name="acute.cap" 
d="M321 687l29 -73q-128 -32 -147 -38l-85 -37l-20 48z" />
    <glyph glyph-name="caron.cap" 
d="M384 682l17 -39l-184 -107l-153 107l27 39l80 -41l58 -25q44 18 65 25z" />
    <glyph glyph-name="circumflex.cap" 
d="M238 682l153 -107l-28 -39l-79 41l-57 25q-9 -3 -24 -9t-26 -10t-16 -6l-91 -41l-16 39z" />
    <glyph glyph-name="grave.cap" 
d="M100 614l30 73l222 -100l-20 -48l-85 37z" />
    <glyph glyph-name="hungarumlaut.cap" 
d="M235 702l40 -67q-120 -53 -139 -62l-79 -50l-26 43zM443 702l40 -67q-121 -53 -139 -62l-79 -50l-26 43z" />
    <glyph glyph-name="tilde.cap" 
d="M302 552q-18 0 -75 20.5t-73 20.5q-27 0 -54 -33l-9 -11l-32 21q12 24 34 48q39 43 59 43t78 -20.5t74 -20.5q25 0 53 38l9 13l32 -21q-20 -36 -49 -67t-47 -31z" />
    <glyph glyph-name="idotaccent" horiz-adv-x="301" 
d="M214 504l23 -20q-34 -123 -73 -414l89 -5l-3 -36l-164 -44l-25 15q32 129 45.5 212t25.5 206l-82 4l-1 39zM161.5 698.5q18.5 21.5 45.5 21.5q53 0 53 -53q0 -33 -19 -54.5t-46 -21.5q-52 0 -52 53q0 33 18.5 54.5z" />
    <glyph glyph-name="dotaccent.cap" 
d="M188.5 658.5q18.5 21.5 45.5 21.5q53 0 53 -53q0 -33 -19 -54.5t-46 -21.5q-52 0 -52 53q0 33 18.5 54.5z" />
    <glyph glyph-name="dieresis.cap" 
d="M351 673q45 0 45 -48q0 -32 -16 -51.5t-46 -19.5q-45 0 -45 47q0 32 16 52t46 20zM122 673q46 0 46 -48q0 -32 -16.5 -51.5t-46.5 -19.5q-45 0 -45 47q0 32 16 52t46 20z" />
    <glyph glyph-name="breve.cap" 
d="M323.5 583q-39.5 -36 -105 -36t-94.5 36q-23 27 -23 72q0 15 3 32h54q-1 -8 -1 -15q0 -28 16.5 -48.5t53 -20.5t62 23t30.5 61h54q-10 -68 -49.5 -104z" />
    <glyph glyph-name="macron.cap" 
d="M375 586h-308l8 53h313z" />
    <glyph glyph-name="ring.cap" 
d="M167.5 683.5q26.5 27.5 69.5 27.5q81 0 81 -71q0 -45 -26 -72.5t-69 -27.5q-82 0 -82 71q0 45 26.5 72.5zM237 673q-24 0 -36 -17t-12 -40q0 -38 34 -38q48 0 48 57q0 38 -34 38z" />
    <glyph glyph-name="zero.tosf" horiz-adv-x="510" 
d="M33 207q0 129 61 225q31 47 84.5 75.5t122.5 28.5q95 0 140 -59.5t45 -155.5q0 -130 -62 -225q-32 -47 -85 -75.5t-122 -28.5q-95 0 -139.5 59.5t-44.5 155.5zM405 320q0 149 -114 149q-42 0 -77.5 -27t-55.5 -68q-44 -87 -44 -166q0 -149 114 -149q55 0 97.5 46.5
t61 104.5t18.5 110z" />
    <glyph glyph-name="one.tosf" horiz-adv-x="510" 
d="M494 533l-5 -59l-154 -7q-14 -48 -22 -106l-29 -194q-4 -28 -4 -106l160 -7l-15 -59q-136 5 -215 5l-194 -5l2 50l161 16q1 4 5 21q12 42 14 55l34 254q3 17 3 76l-153 12l13 54q141 -5 161 -5z" />
    <glyph glyph-name="two.tosf" horiz-adv-x="510" 
d="M100 507q90 29 174.5 29t129.5 -31t45 -84t-19 -89q-41 -76 -308 -259h165q2 0 11 1q40 5 69 6q5 8 17 31l10 35l52 -4l-26 -128l-21 -16q-89 2 -110 2h-261l-4 68q204 153 266 217t62 117q0 36 -25 57t-68.5 21t-93.5 -22q-12 -22 -14 -38l-5 -36l-54 -3z" />
    <glyph glyph-name="three.tosf" horiz-adv-x="510" 
d="M78 510q91 29 174 29t130 -35.5t47 -101t-39.5 -114.5t-110.5 -76q63 -17 96.5 -55.5t33.5 -91.5q0 -109 -124 -191t-316 -102l-11 53q164 24 259.5 88t95.5 146q0 49 -34.5 78t-92.5 29l-73 -3l-8 48q116 14 171.5 56t55.5 118q0 100 -98 100q-46 0 -85 -22
q-18 -41 -19 -50l-4 -45l-56 -3z" />
    <glyph glyph-name="four.tosf" horiz-adv-x="510" 
d="M235 -230l35 230h-246l-37 53l418 485l60 -51l-24 -23q-113 -108 -130 -131l-223 -280l191 7l21 138l81 27l-24 -162l90 4l-11 -67h-88l-29 -204z" />
    <glyph glyph-name="five.tosf" horiz-adv-x="510" 
d="M243 448h-63l-46 -217q47 9 97 9q88 0 144.5 -40t56.5 -114.5t-34.5 -131t-95.5 -92.5q-120 -73 -296 -91l-11 53q250 44 313 141q28 42 28 99q0 109 -142 109q-42 0 -103 -13l-34 21l67 329l21 18h67l259 10l-4 -67q-195 -23 -224 -23z" />
    <glyph glyph-name="six.tosf" horiz-adv-x="510" 
d="M303 403q80 0 128 -48t48 -127q0 -102 -72 -170.5t-168.5 -68.5t-148 58t-51.5 146.5t32.5 174.5t92 163t155 135.5t210.5 80.5l5 -53q-87 -22 -157.5 -65t-115 -94t-74.5 -111q-54 -107 -54 -219q0 -66 28 -112.5t85.5 -46.5t97 53t39.5 112.5t-26.5 96t-71.5 36.5
q-29 0 -62 -5l2 48q42 16 78 16z" />
    <glyph glyph-name="seven.tosf" horiz-adv-x="510" 
d="M252 528h265l11 -39l-389 -718l-74 25l286 502q4 6 67 157h-167q-25 0 -85 -6q-18 -28 -19 -34l-12 -50l-56 4l30 148l23 20q95 -9 120 -9z" />
    <glyph glyph-name="eight.tosf" horiz-adv-x="510" 
d="M192 347q-93 60 -93 147t66 137.5t146 50.5t130 -38.5t50 -104.5q0 -106 -146 -191q114 -70 114 -163t-70.5 -144t-163 -51t-146 38.5t-53.5 112.5q0 116 166 206zM116 145q0 -49 29.5 -78.5t82.5 -29.5t96 39.5t43 97.5q0 48 -38 82q-28 25 -83 60l-7 3
q-123 -78 -123 -174zM404 536q0 43 -25.5 71t-69 28t-83 -38.5t-39.5 -88.5q0 -48 36 -80q26 -24 79 -56v-1q102 75 102 165z" />
    <glyph glyph-name="nine.tosf" horiz-adv-x="510" 
d="M214 124q-82 0 -131.5 47t-49.5 126q0 102 72 171.5t169.5 69.5t149.5 -59t52 -148.5t-29 -173.5t-85.5 -162t-151.5 -138.5t-215 -87.5l-11 52q108 31 187 87t122 126q85 137 85 293q0 61 -27.5 107.5t-86 46.5t-96 -54t-37.5 -113.5t27.5 -95t73.5 -35.5l60 3l-1 -47
q-35 -15 -77 -15z" />
    <glyph glyph-name="zero.osf" horiz-adv-x="495" 
d="M29 206q0 128 61 225q31 48 83.5 76.5t120.5 28.5q93 0 137.5 -59.5t44.5 -149.5t-26 -162.5t-88 -122.5t-153.5 -50t-135.5 59.5t-44 154.5zM376.5 210q18.5 58 18.5 116t-25.5 100.5t-82.5 42.5t-99 -46.5t-60 -104t-18 -116t25.5 -101t82.5 -42.5t98.5 46.5t60 104.5z
" />
    <glyph glyph-name="one.osf" horiz-adv-x="494" 
d="M476 533l-5 -59l-144 -7q-14 -48 -22 -106l-29 -194q-4 -28 -4 -106l150 -7l-15 -59q-126 5 -205 5l-184 -5l2 50l151 16q1 4 5 21q12 42 14 55l34 254q3 17 3 76l-143 12l13 54q131 -5 151 -5z" />
    <glyph glyph-name="two.osf" horiz-adv-x="495" 
d="M96 507q88 29 171.5 29t127.5 -31t44 -84t-19 -89.5t-87 -96t-214 -162.5h160q2 0 11 1q41 5 67 6q5 8 17 31l10 35l52 -4l-26 -128l-21 -16q-87 2 -108 2h-257l-4 68q200 153 261 217t61 117q0 36 -24.5 57t-67 21t-90.5 -22q-12 -22 -14 -38l-5 -36l-53 -3z" />
    <glyph glyph-name="three.osf" horiz-adv-x="495" 
d="M75 509q86 29 167 29t130 -36t49 -100t-41.5 -113.5t-110.5 -77.5q60 -18 95.5 -55t35.5 -91q0 -110 -122 -191.5t-305 -102.5l-11 53q148 24 245 88.5t97 146.5q0 49 -34.5 77.5t-91.5 28.5l-67 -3l-7 48q221 28 221 176q0 46 -27 72t-73 26t-82 -22q-15 -39 -17 -50
l-4 -45l-55 -3z" />
    <glyph glyph-name="four.osf" horiz-adv-x="495" 
d="M235 -230l35 230h-246l-37 53l418 485l60 -51l-24 -23q-113 -108 -130 -131l-223 -280l191 7l21 138l81 27l-24 -162l90 4l-11 -67h-88l-29 -204z" />
    <glyph glyph-name="five.osf" horiz-adv-x="495" 
d="M236 448h-63l-46 -217q47 9 97 9q86 0 142 -41t56 -114t-33.5 -129t-92.5 -93q-118 -74 -293 -92l-11 53q188 33 267 98q67 54 67 142q0 56 -38 82.5t-90.5 26.5t-113.5 -13l-34 21l67 329l21 18h67l256 10l-4 -67q-192 -23 -221 -23z" />
    <glyph glyph-name="six.osf" horiz-adv-x="495" 
d="M300 403q78 0 124 -48t46 -127q0 -98 -70 -168.5t-165.5 -70.5t-147 58t-51.5 146.5t32.5 174.5t92 163t155 135.5t210.5 80.5l5 -53q-87 -22 -157.5 -65t-115 -94t-74.5 -111q-54 -107 -54 -219q0 -66 27 -112.5t84 -46.5t95 53t38 112.5t-23.5 96t-68.5 36.5
q-29 0 -62 -5l2 48q42 16 78 16z" />
    <glyph glyph-name="seven.osf" horiz-adv-x="495" 
d="M245 528h262l10 -39l-384 -718l-74 25l282 502q10 16 66 157h-163q-23 0 -83 -6q-18 -28 -19 -34l-12 -50l-55 4l30 148l22 20q94 -9 118 -9z" />
    <glyph glyph-name="eight.osf" horiz-adv-x="495" 
d="M186 347q-91 60 -91 147t65 137.5t144 50.5t128 -38.5t49 -104.5q0 -106 -144 -191q112 -70 112 -163t-69.5 -144t-160.5 -51t-144 38.5t-53 112.5q0 116 164 206zM112 145q0 -49 29 -78.5t80.5 -29.5t93.5 39.5t42 97.5q0 31 -19 58.5t-39 43.5q-38 29 -66 43
q-121 -78 -121 -174zM394 536q0 43 -25 71t-67 28t-80.5 -38.5t-38.5 -88.5q0 -31 18 -57.5t36 -40t57 -38.5q100 73 100 164z" />
    <glyph glyph-name="nine.osf" horiz-adv-x="495" 
d="M204 124q-78 0 -126 46.5t-48 126.5q0 102 69.5 171.5t166 69.5t148.5 -59t52 -148.5t-29 -173.5t-85.5 -162t-151.5 -138.5t-215 -87.5l-11 52q108 31 187 87t122 126q85 137 85 293q0 61 -27.5 107.5t-85 46.5t-92.5 -54.5t-35 -114t26 -94.5t71 -35l57 3l-1 -47
q-35 -15 -77 -15z" />
    <glyph glyph-name="f.f" horiz-adv-x="287" 
d="M-139 -235l-27 1h-4l27 71q5 -5 43.5 -5t78.5 13t49 25q25 34 52.5 204.5t43.5 347.5h-88l4 44l12 3q54 14 73 25q9 6 16 49q16 98 94.5 154t186.5 56l35 -3l-26 -70q-23 7 -50 7t-66.5 -12.5t-49.5 -26.5q-28 -38 -49 -170h241l-14 -56h-236q-14 -83 -35 -245.5
t-33 -214.5q-23 -92 -100 -144.5t-178 -52.5z" />
    <glyph glyph-name="f.t" horiz-adv-x="287" 
d="M-139 -235l-27 1h-4l27 71q5 -5 43.5 -5t78.5 13t49 25q25 34 52.5 204.5t43.5 347.5h-88l4 44l12 3q54 14 73 25q9 6 16 49q16 98 94.5 154t186.5 56l35 -3l-26 -70q-23 7 -50 7t-66.5 -12.5t-49.5 -26.5q-28 -38 -49 -170h241l-14 -56h-236q-14 -83 -35 -245.5
t-33 -214.5q-23 -92 -100 -144.5t-178 -52.5z" />
    <glyph glyph-name="f.l" horiz-adv-x="298" 
d="M-139 -235l-27 1h-4l27 71q5 -5 43.5 -5t78.5 13t49 25q25 34 52.5 204.5t43.5 347.5h-88l4 44l12 3q54 14 73 25q9 6 16 49q16 100 96 163.5t185 63.5h101l-38 -84q-77 18 -104 18t-66.5 -12.5t-49.5 -26.5q-25 -33 -49 -187h121l-14 -56h-116q-14 -83 -35 -245.5
t-33 -214.5q-23 -92 -100 -144.5t-178 -52.5z" />
    <glyph glyph-name="Gdieresis" horiz-adv-x="646" 
d="M434 720q77 0 209 -34l-32 -148l-56 6l6 45q1 3 1 12t-5 37q-76 24 -134 24q-127 0 -199.5 -109.5t-72.5 -265.5q0 -108 50.5 -176t141.5 -68q52 0 127 20q19 56 21 65l10 68v71l-101 8l13 58h108l71 3l15 -17q-24 -103 -31 -153l-21 -147q-6 -1 -25 -6t-26.5 -6.5
t-25 -5.5t-27 -5.5t-26 -4t-29.5 -3.5q-37 -3 -59 -3q-137 0 -212.5 81.5t-75.5 217.5q0 192 102 314t283 122zM555 874q45 0 45 -48q0 -32 -16 -51.5t-46 -19.5q-45 0 -45 47q0 32 16 52t46 20zM326 874q46 0 46 -48q0 -32 -16.5 -51.5t-46.5 -19.5q-45 0 -45 47
q0 32 16 52t46 20z" />
    <glyph glyph-name="gdieresis" horiz-adv-x="506" 
d="M196.5 -223q-43.5 -12 -83 -12t-79.5 6t-56 14l31 78q73 -26 130.5 -26t95 12.5t48 23t18.5 45t9 57.5t5 51.5t10.5 73t10.5 77.5q-41 -86 -93 -137t-103 -51q-101 0 -101 146q0 76 34.5 163t87 146.5t99.5 59.5q19 0 72 -7l52 -7l60 14l24 -16q-30 -113 -43 -198
q-24 -168 -33 -276q-8 -69 -37.5 -120t-72 -78t-86 -39zM246 446q-36 0 -76.5 -102.5t-40.5 -193.5q0 -42 12.5 -68.5t32.5 -26.5q29 0 69.5 56t74 141t42.5 159q-74 35 -114 35zM438 713q44 0 44 -48q0 -32 -15.5 -51.5t-45.5 -19.5q-45 0 -45 47q0 32 16 52t46 20z
M209 713q45 0 45 -48q0 -32 -16.5 -51.5t-45.5 -19.5q-45 0 -45 47q0 32 16 52t46 20z" />
    <glyph glyph-name="t.i" horiz-adv-x="324" 
d="M385 477q48 0 108 7l20 3l-14 -64h-278q-41 -231 -58 -355l113 -4l-3 -35l-182 -44l-25 15q31 123 46 211.5t28 211.5h-92l4 42q79 22 93 29q26 15 55 78l9 22l39 -12q-5 -25 -10 -60t-7 -45h154z" />
    <glyph glyph-name="foundryicon" horiz-adv-x="724" 
d="M591 61h-423q-80 0 -80 80v423q0 80 80 80h423q80 0 80 -80v-423q0 -80 -80 -80zM259 432q-6 0 -6 9v116h-74v-344h74v180q0 12 24 12q43 0 43 -56v-136h74v178q0 32 -22 52.5t-56 20.5l-48 -28q-6 -4 -9 -4zM423 422h26q10 0 10 -10v-132q0 -32 22 -52.5t56 -20.5l63 37
v25q-12 -4 -26 -4q-41 0 -41 57v90q0 10 10 10h58v36h-58q-10 0 -10 10v28h-21l-89 -56v-18z" />
    <glyph glyph-name="puso" horiz-adv-x="201" 
d="M159 770q57 0 57 -72q0 -62 -40.5 -114.5t-105.5 -64.5l-6 22q33 14 54 39t24 56q-50 0 -50 52q0 31 19 56.5t48 25.5z" />
    </font>
</defs>
</svg>
