<?xml version="1.0" standalone="no"?>
<!DOCTYPE svg PUBLIC "-//W3C//DTD SVG 1.1//EN" "http://www.w3.org/Graphics/SVG/1.1/DTD/svg11.dtd" >
<svg>
<metadata>
Created by FontForge 20120731 at Fri Aug  1 16:50:32 2014
 By Alfred Xing
Copyright (C) 2006-2011 Alexey Kryukov &#60;amkryukov@gmail.com&#62;,
without Reserved Font Names.
This Font Software is licensed under the SIL Open Font License, Version 1.1.
This license is available with a FAQ at: http://scripts.sil.org/OFL
</metadata>
<defs>
<font id="OldStandard-Bold" horiz-adv-x="0" >
  <font-face 
    font-family="Old Standard"
    font-weight="700"
    font-stretch="normal"
    units-per-em="1000"
    panose-1="2 4 5 3 5 5 5 2 3 3"
    ascent="762"
    descent="-238"
    x-height="474"
    cap-height="712"
    bbox="-868 -294 1930 952"
    underline-thickness="40"
    underline-position="-158"
    stemh="32"
    stemv="116"
    unicode-range="U+0020-1D516"
  />
<missing-glyph horiz-adv-x="500" 
d="M80 77c0 -45 30 -45 44 -45h244c12 0 52 0 52 49v552c0 49 -40 49 -52 49h-244c-14 0 -44 0 -44 -45v-560zM42 0v714h416v-714h-416z" />
    <glyph glyph-name="AE" unicode="A&#x200d;E" horiz-adv-x="1004" 
d="M26 0v32h23c50 0 97 39 122 88l241 471c13 26 22 44 22 63c0 14 -10 26 -29 26h-29v32h568l6 -232h-32s-10 64 -40 114c-28 49 -68 86 -120 86h-110c-18 0 -24 -6 -24 -24v-276h51c56 0 100 80 100 138h32v-313h-32c0 59 -44 139 -100 139h-51v-288c0 -18 6 -24 24 -24
h109c82 0 129 88 148 142c13 37 21 102 21 102h32l-6 -276h-571v32h70c18 0 24 6 24 24v154h-209l-23 -44c-14 -26 -29 -66 -29 -83c0 -22 7 -51 49 -51h33v-32h-270zM283 246h192v374z" />
    <glyph glyph-name="ae" unicode="a&#x200d;e" horiz-adv-x="700" 
d="M46 107c0 100 103 141 168 164l74 26v68c0 73 -38 97 -77 97c-34 0 -67 -16 -67 -47c0 -6 3 -20 16 -29c18 -11 28 -22 28 -45c0 -35 -31 -51 -56 -51c-31 0 -63 21 -63 68c0 81 78 128 149 128c47 0 92 -10 132 -44c36 32 85 44 128 44c82 0 144 -64 163 -158
c7 -32 7 -88 7 -100h-244c0 -51 0 -90 11 -129c12 -49 49 -81 94 -81c71 0 108 76 115 144h26c-7 -74 -47 -174 -161 -174c-64 0 -127 27 -161 78c-32 -44 -76 -78 -154 -78c-58 0 -128 26 -128 119zM168 115c0 -74 38 -87 56 -87c26 0 47 12 64 38v203l-56 -19
c-44 -15 -64 -61 -64 -135zM404 256h128c0 130 -12 206 -64 206s-64 -76 -64 -206z" />
    <glyph glyph-name="IJ" unicode="IJ" horiz-adv-x="934" 
d="M430 154c0 72 46 117 90 117s71 -33 71 -69c0 -50 -33 -74 -61 -84c-23 -8 -32 -20 -32 -42c0 -26 39 -62 98 -62c53 0 76 42 76 116v526c0 18 -6 24 -24 24h-80v32h338v-32h-62c-18 0 -24 -6 -24 -24v-462c0 -136 -110 -212 -212 -212c-96 0 -178 59 -178 172zM62 0v32
h70c18 0 24 6 24 24v600c0 18 -6 24 -24 24h-70v32h336v-32h-70c-18 0 -24 -6 -24 -24v-600c0 -18 6 -24 24 -24h70v-32h-336z" />
    <glyph glyph-name="ij" unicode="ij" horiz-adv-x="616" 
d="M244 -126c0 46 36 79 74 79c28 0 59 -17 59 -53c0 -28 -18 -47 -28 -56c-11 -10 -17 -20 -17 -32c0 -21 22 -26 37 -26c27 0 47 25 47 132v516c0 12 -4 16 -16 16h-56v24h188v-514c0 -133 -77 -198 -159 -198c-75 0 -129 46 -129 112zM400 650c0 42 32 74 74 74
s74 -32 74 -74s-32 -74 -74 -74s-74 32 -74 74zM40 0v24h38c12 0 16 4 16 16v394c0 12 -4 16 -16 16h-38v24h170v-434c0 -12 4 -16 16 -16h38v-24h-224zM74 650c0 42 32 74 74 74s74 -32 74 -74s-32 -74 -74 -74s-74 32 -74 74z" />
    <glyph glyph-name="OE" unicode="O&#x200d;E" horiz-adv-x="1014" 
d="M70 356c0 189 132 374 290 374c19 0 48 -5 64 -9c19 -4 46 -9 78 -9h446l6 -232h-32s-10 64 -40 114c-28 49 -68 86 -120 86h-110c-18 0 -24 -6 -24 -24v-276h51c56 0 100 80 100 138h32v-313h-32c0 59 -44 139 -100 139h-51v-288c0 -18 6 -24 24 -24h109
c82 0 129 88 148 142c13 37 21 102 21 102h32l-6 -276h-454c-32 0 -59 -5 -78 -9c-16 -4 -45 -9 -64 -9c-158 0 -290 185 -290 374zM240 206c0 -144 44 -192 120 -192s120 48 120 192v300c0 144 -44 192 -120 192s-120 -48 -120 -192v-300z" />
    <glyph glyph-name="oe" unicode="o&#x200d;e" horiz-adv-x="740" 
d="M48 237c0 137 86 249 198 249c53 0 98 -24 132 -65h4c36 42 84 65 136 65c82 0 144 -64 163 -158c7 -32 7 -88 7 -100h-244c0 -51 0 -90 11 -129c12 -49 49 -81 94 -81c71 0 108 76 115 144h26c-7 -74 -47 -174 -161 -174c-60 0 -110 24 -146 66h-4
c-34 -42 -81 -66 -133 -66c-112 0 -198 112 -198 249zM176 237c0 -133 9 -225 70 -225c60 0 70 92 70 225s-10 225 -70 225c-61 0 -70 -92 -70 -225zM444 256h128c0 130 -12 206 -64 206s-64 -76 -64 -206z" />
    <glyph glyph-name="ff" unicode="f&#x200d;f" horiz-adv-x="614" 
d="M30 0v24h56c12 0 16 4 16 16v406h-72v28h72v48c0 133 101 198 183 198c60 0 100 -33 115 -79h2c36 52 95 79 147 79c75 0 121 -51 121 -117c0 -40 -32 -74 -74 -74c-28 0 -59 19 -59 55c0 28 18 45 28 54c11 10 17 20 17 32c0 21 -22 26 -37 26c-27 0 -63 -25 -63 -132
v-90h72v-28h-72v-406c0 -12 4 -16 16 -16h56v-24h-242v24h38c12 0 16 4 16 16v406h-148v-406c0 -12 4 -16 16 -16h35v-24h-239zM218 474h148v63c-10 -5 -21 -8 -34 -8c-28 0 -59 19 -59 55c0 28 18 45 28 54c11 10 17 20 17 32c0 21 -22 26 -37 26c-27 0 -63 -25 -63 -132
v-90z" />
    <glyph glyph-name="fi" unicode="f&#x200d;i" horiz-adv-x="562" 
d="M30 0v24h56c12 0 16 4 16 16v406h-72v28h72v25c0 150 108 221 220 221c120 0 160 -78 160 -121c0 -45 -28 -81 -73 -81c-35 0 -63 24 -63 58c0 24 12 41 22 50c11 10 18 21 18 31c0 20 -25 39 -69 39c-41 0 -99 -35 -99 -142v-80h258v-434c0 -12 4 -16 16 -16h38v-24
h-224v24h38c12 0 16 4 16 16v390c0 12 -4 16 -16 16h-126v-406c0 -12 4 -16 16 -16h32v-24h-236z" />
    <glyph glyph-name="fl" unicode="f&#x200d;l" horiz-adv-x="564" 
d="M30 0v24h56c12 0 16 4 16 16v406h-72v28h72v25c0 150 108 221 220 221c24 0 44 -3 62 -8h92v-672c0 -12 4 -16 16 -16h50v-24h-236v24h38c12 0 16 4 16 16v390c0 12 -4 16 -16 16h-126v-406c0 -12 4 -16 16 -16h32v-24h-236zM218 474h142v65c-8 8 -14 20 -14 37
c0 18 6 31 14 41v71c-12 5 -26 8 -43 8c-41 0 -99 -35 -99 -142v-80z" />
    <glyph glyph-name="ffi" unicode="f&#x200d;f&#x200d;i" horiz-adv-x="826" 
d="M30 0v24h56c12 0 16 4 16 16v406h-72v28h72v25c0 150 108 221 220 221c60 0 99 -19 124 -44h2c40 30 89 44 138 44c120 0 160 -78 160 -121c0 -45 -28 -81 -73 -81c-35 0 -63 24 -63 58c0 24 12 41 22 50c11 10 18 21 18 31c0 20 -25 39 -69 39c-41 0 -99 -35 -99 -142
v-80h258v-434c0 -12 4 -16 16 -16h38v-24h-224v24h38c12 0 16 4 16 16v390c0 12 -4 16 -16 16h-126v-406c0 -12 4 -16 16 -16h32v-24h-218v24h38c12 0 16 4 16 16v406h-148v-406c0 -12 4 -16 16 -16h32v-24h-236zM218 474h148v25c0 11 1 22 2 32c-14 11 -22 26 -22 45
c0 24 12 41 22 50c11 10 18 21 18 31c0 20 -25 39 -69 39c-41 0 -99 -35 -99 -142v-80z" />
    <glyph glyph-name="ffl" unicode="f&#x200d;f&#x200d;l" horiz-adv-x="828" 
d="M30 0v24h56c12 0 16 4 16 16v406h-72v28h72v25c0 150 108 221 220 221c60 0 99 -19 124 -44h2c40 30 89 44 138 44c24 0 44 -3 62 -8h92v-672c0 -12 4 -16 16 -16h50v-24h-236v24h38c12 0 16 4 16 16v390c0 12 -4 16 -16 16h-126v-406c0 -12 4 -16 16 -16h32v-24h-218v24
h38c12 0 16 4 16 16v406h-148v-406c0 -12 4 -16 16 -16h32v-24h-236zM482 474h142v65c-8 8 -14 20 -14 37c0 18 6 31 14 41v71c-12 5 -26 8 -43 8c-41 0 -99 -35 -99 -142v-80zM218 474h148v25c0 11 1 22 2 32c-14 11 -22 26 -22 45c0 24 12 41 22 50c11 10 18 21 18 31
c0 20 -25 39 -69 39c-41 0 -99 -35 -99 -142v-80z" />
    <glyph glyph-name="f_f_j" unicode="f&#x200d;f&#x200d;j" horiz-adv-x="824" 
d="M30 0v24h56c12 0 16 4 16 16v406h-72v28h72v25c0 150 108 221 220 221c60 0 99 -19 124 -44h2c40 30 89 44 138 44c120 0 160 -78 160 -121c0 -45 -28 -81 -73 -81c-35 0 -63 24 -63 58c0 24 12 41 22 50c11 10 18 21 18 31c0 20 -25 39 -69 39c-41 0 -99 -35 -99 -142
v-80h258v-514c0 -133 -77 -198 -159 -198c-75 0 -129 46 -129 112c0 46 36 79 74 79c28 0 59 -17 59 -53c0 -28 -18 -47 -28 -56c-11 -10 -17 -20 -17 -32c0 -21 22 -26 37 -26c27 0 47 25 47 132v512c0 12 -4 16 -16 16h-126v-406c0 -12 4 -16 16 -16h32v-24h-218v24h38
c12 0 16 4 16 16v406h-148v-406c0 -12 4 -16 16 -16h32v-24h-236zM218 474h148v25c0 11 1 22 2 32c-14 11 -22 26 -22 45c0 24 12 41 22 50c11 10 18 21 18 31c0 20 -25 39 -69 39c-41 0 -99 -35 -99 -142v-80z" />
    <glyph glyph-name="f_j" unicode="f&#x200d;j" horiz-adv-x="560" 
d="M30 0v24h56c12 0 16 4 16 16v406h-72v28h72v25c0 150 108 221 220 221c120 0 160 -78 160 -121c0 -45 -28 -81 -73 -81c-35 0 -63 24 -63 58c0 24 12 41 22 50c11 10 18 21 18 31c0 20 -25 39 -69 39c-41 0 -99 -35 -99 -142v-80h258v-514c0 -133 -77 -198 -159 -198
c-75 0 -129 46 -129 112c0 46 36 79 74 79c28 0 59 -17 59 -53c0 -28 -18 -47 -28 -56c-11 -10 -17 -20 -17 -32c0 -21 22 -26 37 -26c27 0 47 25 47 132v512c0 12 -4 16 -16 16h-126v-406c0 -12 4 -16 16 -16h32v-24h-236z" />
    <glyph glyph-name=".notdef" horiz-adv-x="500" 
d="M80 77c0 -45 30 -45 44 -45h244c12 0 52 0 52 49v552c0 49 -40 49 -52 49h-244c-14 0 -44 0 -44 -45v-560zM42 0v714h416v-714h-416z" />
    <glyph glyph-name="space" unicode=" " horiz-adv-x="280" 
 />
    <glyph glyph-name="exclam" unicode="!" horiz-adv-x="280" 
d="M58 632c0 64 36 98 82 98s82 -34 82 -98c0 -48 -13 -102 -27 -155c-11 -43 -23 -95 -27 -127l-16 -145h-24l-16 145c-3 32 -16 84 -27 127c-14 53 -27 107 -27 155zM62 66c0 45 33 78 78 78s78 -33 78 -78s-33 -78 -78 -78s-78 33 -78 78z" />
    <glyph glyph-name="quotedbl" unicode="&#x22;" horiz-adv-x="394" 
d="M226 672c0 36 18 58 48 58s48 -22 48 -58c0 -10 -4 -44 -5 -51l-21 -139h-44l-21 139c-1 7 -5 41 -5 51zM72 672c0 36 18 58 48 58s48 -22 48 -58c0 -10 -4 -44 -5 -51l-21 -139h-44l-21 139c-1 7 -5 41 -5 51z" />
    <glyph glyph-name="numbersign" unicode="#" horiz-adv-x="712" 
d="M66 182v64h123l34 218h-151v64h161l29 184h66l-29 -184h166l29 184h66l-29 -184h115v-64h-125l-34 -218h150v-64h-160l-29 -182h-66l28 182h-165l-29 -182h-66l29 182h-113zM255 246h166l34 218h-166z" />
    <glyph glyph-name="dollar" unicode="$" horiz-adv-x="580" 
d="M52 166c0 56 35 94 79 94c30 0 53 -25 53 -50c0 -38 -17 -49 -43 -65c-24 -14 -27 -20 -27 -37c0 -37 45 -70 112 -84v296l-53 33c-45 28 -97 78 -97 174c0 115 72 171 150 191v78h32v-71c16 2 31 3 46 3c13 0 26 -1 38 -2v70h32v-75c86 -17 154 -68 154 -155
c0 -52 -27 -108 -72 -108c-36 0 -57 22 -57 50c0 27 20 46 39 55c23 11 38 19 38 40c0 34 -38 69 -102 85v-289l39 -24c68 -42 113 -99 113 -186c0 -113 -69 -174 -152 -196v-77h-32v71c-14 -2 -27 -3 -41 -3s-28 0 -43 2v-70h-32v75c-89 16 -174 66 -174 175zM258 471
l84 -52v274c-13 2 -27 3 -42 3s-29 -1 -42 -4v-221zM258 18c14 -1 28 -2 43 -2s29 1 41 3v229l-84 52v-282zM152 589c0 -39 27 -71 74 -98v191c-44 -17 -74 -51 -74 -93zM374 27c55 20 72 62 72 94c0 62 -47 92 -72 107v-201z" />
    <glyph glyph-name="percent" unicode="%" horiz-adv-x="860" 
d="M188 -18l432 748h50l-432 -748h-50zM584 166c0 -122 12 -162 44 -162s46 40 46 162s-14 164 -46 164s-44 -42 -44 -164zM488 166c0 112 68 184 140 184s142 -72 142 -184s-70 -182 -142 -182s-140 70 -140 182zM186 546c0 -122 12 -162 44 -162s46 40 46 162
s-14 164 -46 164s-44 -42 -44 -164zM90 546c0 112 68 184 140 184s142 -72 142 -184s-70 -182 -142 -182s-140 70 -140 182z" />
    <glyph glyph-name="ampersand" unicode="&#x26;" horiz-adv-x="786" 
d="M44 141c0 91 74 163 186 241l23 16l-11 17c-32 49 -50 83 -50 151c0 106 81 165 169 165c89 0 119 -73 119 -124c0 -78 -51 -125 -117 -174l176 -264c41 49 68 112 68 149c0 26 -18 40 -38 40h-38v32h211v-32h-8c-53 0 -80 -55 -88 -72c-21 -44 -50 -100 -88 -144
c33 -56 62 -100 97 -100c29 0 49 31 65 63l20 -10c-14 -41 -60 -113 -137 -113c-45 0 -94 32 -126 79c-44 -36 -140 -79 -229 -79c-116 0 -204 55 -204 159zM184 193c0 -98 87 -151 156 -151c47 0 89 20 119 46l-186 281c-61 -56 -89 -91 -89 -176zM284 622
c0 -57 10 -79 60 -159c49 37 92 77 92 152c0 47 -29 84 -74 84c-39 0 -78 -28 -78 -77z" />
    <glyph glyph-name="quotesingle" unicode="'" horiz-adv-x="240" 
d="M72 672c0 36 18 58 48 58s48 -22 48 -58c0 -10 -4 -44 -5 -51l-21 -139h-44l-21 139c-1 7 -5 41 -5 51z" />
    <glyph glyph-name="parenleft" unicode="(" horiz-adv-x="370" 
d="M60 266c0 196 102 352 278 464l16 -26c-120 -96 -158 -174 -158 -296v-284c0 -122 38 -200 158 -296l-16 -26c-176 112 -278 268 -278 464z" />
    <glyph glyph-name="parenright" unicode=")" horiz-adv-x="370" 
d="M16 -172c120 96 158 174 158 296v284c0 122 -38 200 -158 296l16 26c176 -112 278 -268 278 -464s-102 -352 -278 -464z" />
    <glyph glyph-name="asterisk" unicode="*" horiz-adv-x="502" 
d="M70 415c0 31 25 52 69 52c25 0 55 5 74 17c0 0 10 5 10 11s-10 11 -10 11c-19 12 -49 17 -74 17c-44 0 -69 21 -69 52c0 26 21 46 46 46c24 0 43 -19 58 -41c14 -21 30 -39 47 -52c3 -2 10 -6 14 -6c6 0 8 2 8 15c0 23 -7 47 -19 69c-10 16 -15 31 -15 49
c0 26 20 45 46 45s46 -19 46 -45c0 -18 -5 -33 -15 -49c-12 -22 -19 -46 -19 -69c0 -13 2 -15 8 -15c4 0 11 4 14 6c17 13 33 31 47 52c15 22 34 41 58 41c25 0 46 -20 46 -46c0 -31 -25 -52 -69 -52c-25 0 -55 -5 -74 -17c0 0 -10 -5 -10 -11s10 -11 10 -11
c19 -12 49 -17 74 -17c44 0 69 -21 69 -52c0 -26 -21 -46 -46 -46c-24 0 -43 19 -58 41c-14 21 -30 39 -47 52c-3 2 -10 6 -14 6c-6 0 -8 -2 -8 -15c0 -23 7 -47 19 -69c10 -16 15 -31 15 -49c0 -26 -20 -45 -46 -45s-46 19 -46 45c0 18 5 33 15 49c12 22 19 46 19 69
c0 13 -2 15 -8 15c-4 0 -11 -4 -14 -6c-17 -13 -33 -31 -47 -52c-15 -22 -34 -41 -58 -41c-25 0 -46 20 -46 46z" />
    <glyph glyph-name="plus" unicode="+" horiz-adv-x="940" 
d="M42 240v64h394v396h68v-396h394v-64h-394v-396h-68v396h-394z" />
    <glyph glyph-name="comma" unicode="," horiz-adv-x="280" 
d="M46 63c0 57 45 85 86 85c66 0 106 -50 106 -116c0 -115 -76 -193 -172 -228l-14 28c83 31 140 94 140 158c0 8 -5 18 -17 18c-7 0 -16 -4 -24 -8c-12 -6 -21 -9 -34 -9c-33 0 -71 23 -71 72z" />
    <glyph glyph-name="hyphen" unicode="-" horiz-adv-x="370" 
d="M56 208v102h258v-102h-258z" />
    <glyph glyph-name="period" unicode="." horiz-adv-x="280" 
d="M62 66c0 45 33 78 78 78s78 -33 78 -78s-33 -78 -78 -78s-78 33 -78 78z" />
    <glyph glyph-name="slash" unicode="/" horiz-adv-x="450" 
d="M50 -198l282 928h68l-282 -928h-68z" />
    <glyph glyph-name="zero" unicode="0" horiz-adv-x="580" 
d="M220 144c0 -48 14 -128 70 -128s70 80 70 128v424c0 48 -14 128 -70 128s-70 -80 -70 -128v-424zM50 356c0 168 88 372 240 372s240 -204 240 -372s-88 -372 -240 -372s-240 204 -240 372z" />
    <glyph glyph-name="one" unicode="1" horiz-adv-x="580" 
d="M120 0v32h72c18 0 24 6 24 24v547h-96v36h37c54 0 114 24 132 73h75v-656c0 -18 6 -24 24 -24h72v-32h-340z" />
    <glyph glyph-name="two" unicode="2" horiz-adv-x="580" 
d="M64 534c0 107 93 194 216 194c152 0 224 -79 224 -184c0 -123 -134 -196 -249 -257c-42 -23 -112 -71 -133 -150l4 -2c26 21 56 29 81 29c24 0 64 -8 86 -16c22 -7 53 -16 91 -16c50 0 84 35 84 72c0 27 -2 44 -5 67h31c4 -29 6 -53 6 -78c0 -93 -42 -209 -164 -209
c-53 0 -98 38 -130 74c-22 24 -36 38 -62 38c-18 0 -32 -12 -32 -32v-64h-40v47c0 59 5 137 129 256c78 75 153 155 153 257c0 63 -21 132 -101 132c-52 0 -89 -39 -89 -82c0 -28 10 -47 28 -60c26 -18 45 -36 45 -70s-28 -60 -67 -60c-54 0 -106 42 -106 114z" />
    <glyph glyph-name="three" unicode="3" horiz-adv-x="580" 
d="M56 141c0 54 40 102 96 102c46 0 74 -29 74 -66s-19 -57 -46 -69c-13 -6 -28 -18 -28 -34c0 -37 39 -58 98 -58c70 0 106 57 106 177c0 119 -49 163 -101 163h-101v36h99c63 0 90 46 90 146c0 129 -34 158 -87 158c-49 0 -92 -30 -92 -77c0 -19 18 -34 30 -42
c18 -12 35 -30 35 -60c0 -31 -24 -60 -65 -60c-48 0 -90 43 -90 104c0 103 89 167 194 167c132 0 225 -67 225 -178c0 -104 -88 -153 -164 -169v-9c91 -8 187 -79 187 -183c0 -135 -107 -205 -263 -205c-111 0 -197 58 -197 157z" />
    <glyph glyph-name="four" unicode="4" horiz-adv-x="580" 
d="M100 240h170v304zM50 204v37l263 472h105v-473h108v-36h-108v-148c0 -18 6 -24 24 -24h72v-32h-364v32h96c18 0 24 6 24 24v148h-220z" />
    <glyph glyph-name="five" unicode="5" horiz-adv-x="580" 
d="M76 138c0 64 51 107 97 107s66 -34 66 -65c0 -36 -27 -54 -43 -62c-16 -6 -30 -19 -30 -42c0 -28 31 -60 98 -60c85 0 92 107 92 205c0 136 -17 199 -97 199c-37 0 -106 -42 -121 -102h-26v385l20 13c36 -22 83 -38 138 -38c50 0 120 18 170 50l18 -18
c-74 -112 -192 -154 -306 -154v-156l6 -2c36 37 76 54 128 54c140 0 230 -90 230 -228c0 -150 -116 -240 -249 -240c-116 0 -191 70 -191 154z" />
    <glyph glyph-name="six" unicode="6" horiz-adv-x="580" 
d="M232 195c0 -118 22 -179 81 -179c72 0 73 84 73 184c0 88 -9 182 -64 182c-32 0 -60 -12 -74 -42c-14 -28 -16 -77 -16 -145zM72 339c0 230 101 389 270 389c98 0 150 -68 150 -136c0 -56 -36 -103 -90 -103c-40 0 -67 27 -67 67c0 32 17 52 45 62c22 8 40 16 40 32
c0 25 -27 46 -79 46c-80 0 -109 -84 -109 -163v-143l6 -3c22 22 60 33 97 33c140 0 199 -96 199 -210c0 -107 -63 -226 -220 -226c-152 0 -242 164 -242 355z" />
    <glyph glyph-name="seven" unicode="7" horiz-adv-x="580" 
d="M94 428l23 284h36l-5 -66l4 -2c32 42 72 76 127 76c46 0 71 -32 93 -63c22 -33 44 -61 68 -61c22 0 32 12 32 30c0 16 -10 24 -20 30c-14 8 -25 21 -25 37c0 15 10 27 30 27c37 0 59 -55 59 -92c0 -92 -29 -157 -79 -239c-56 -92 -67 -205 -67 -302
c0 -71 -30 -103 -77 -103s-83 38 -83 104c0 89 54 161 112 228c46 53 84 100 116 154c13 23 27 53 36 93l-4 3c-19 -16 -42 -26 -69 -26s-61 8 -87 18c-24 8 -49 14 -82 14c-52 0 -92 -24 -97 -84l-5 -60h-36z" />
    <glyph glyph-name="eight" unicode="8" horiz-adv-x="580" 
d="M162 588c0 -58 31 -80 71 -99l131 -63c55 22 86 80 86 138c0 87 -75 132 -141 132c-56 0 -147 -25 -147 -108zM56 167c0 93 70 149 121 171v2c-39 23 -107 73 -107 181c0 139 126 207 232 207c142 0 196 -95 196 -159c0 -73 -56 -128 -106 -154v-4l19 -10
c82 -40 127 -115 127 -180c0 -127 -87 -237 -252 -237c-109 0 -230 66 -230 183zM124 183c0 -140 132 -167 189 -167c91 0 149 56 149 118c0 60 -48 91 -90 112l-166 82c-44 -24 -82 -53 -82 -145z" />
    <glyph glyph-name="nine" unicode="9" horiz-adv-x="580" 
d="M214 512c0 -88 9 -182 64 -182c32 0 60 12 74 42c14 28 16 77 16 145c0 118 -22 179 -81 179c-72 0 -73 -84 -73 -184zM66 502c0 107 63 226 220 226c152 0 242 -164 242 -355c0 -230 -101 -389 -270 -389c-98 0 -150 68 -150 136c0 56 36 103 90 103c40 0 67 -27 67 -67
c0 -32 -17 -52 -45 -62c-22 -8 -40 -16 -40 -32c0 -25 27 -46 79 -46c80 0 109 84 109 163v143l-6 3c-22 -22 -60 -33 -97 -33c-140 0 -199 96 -199 210z" />
    <glyph glyph-name="colon" unicode=":" horiz-adv-x="280" 
d="M62 66c0 45 33 78 78 78s78 -33 78 -78s-33 -78 -78 -78s-78 33 -78 78zM62 408c0 45 33 78 78 78s78 -33 78 -78s-33 -78 -78 -78s-78 33 -78 78z" />
    <glyph glyph-name="semicolon" unicode="&#x37e;" horiz-adv-x="280" 
d="M62 408c0 45 33 78 78 78s78 -33 78 -78s-33 -78 -78 -78s-78 33 -78 78zM46 63c0 57 45 85 86 85c66 0 106 -50 106 -116c0 -115 -76 -193 -172 -228l-14 28c83 31 140 94 140 158c0 8 -5 18 -17 18c-7 0 -16 -4 -24 -8c-12 -6 -21 -9 -34 -9c-33 0 -71 23 -71 72z" />
    <glyph glyph-name="semicolon" unicode=";" horiz-adv-x="280" 
d="M62 408c0 45 33 78 78 78s78 -33 78 -78s-33 -78 -78 -78s-78 33 -78 78zM46 63c0 57 45 85 86 85c66 0 106 -50 106 -116c0 -115 -76 -193 -172 -228l-14 28c83 31 140 94 140 158c0 8 -5 18 -17 18c-7 0 -16 -4 -24 -8c-12 -6 -21 -9 -34 -9c-33 0 -71 23 -71 72z" />
    <glyph glyph-name="less" unicode="&#x3c;" horiz-adv-x="940" 
d="M84 252v40l738 408l32 -56l-674 -372l674 -372l-32 -56z" />
    <glyph glyph-name="equal" unicode="=" horiz-adv-x="940" 
d="M48 344v64h844v-64h-844zM48 136v64h844v-64h-844z" />
    <glyph glyph-name="greater" unicode="&#x3e;" horiz-adv-x="940" 
d="M86 -100l674 372l-674 372l32 56l738 -408v-40l-738 -408z" />
    <glyph glyph-name="question" unicode="?" horiz-adv-x="470" 
d="M170 66c0 45 33 78 78 78s78 -33 78 -78s-33 -78 -78 -78s-78 33 -78 78zM72 586c0 73 55 146 157 146c96 0 163 -62 163 -144c0 -69 -62 -138 -123 -194c-44 -41 -85 -81 -85 -138c0 -36 31 -50 61 -50c35 0 56 29 56 66c0 6 -1 15 -5 26l24 10c6 -13 9 -21 9 -37
c0 -57 -39 -95 -84 -95c-49 0 -95 26 -95 81c0 50 23 95 52 140c37 58 68 110 68 204c0 49 -25 91 -72 91c-56 0 -92 -53 -92 -108c0 -51 11 -74 38 -108l-23 -17c-30 37 -49 69 -49 127z" />
    <glyph glyph-name="at" unicode="@" horiz-adv-x="820" 
d="M44 347c0 211 165 383 378 383c220 0 354 -160 354 -344c0 -99 -74 -256 -228 -256c-49 0 -87 28 -93 76l-4 1c-17 -23 -65 -77 -130 -77c-59 0 -121 39 -121 124c0 78 19 172 63 227c58 72 119 97 169 97c36 0 60 -28 67 -55h4l11 43h107l-73 -309c-3 -16 -5 -30 -5 -43
c0 -38 23 -52 36 -52c87 0 125 140 125 235c0 188 -120 301 -292 301c-163 0 -296 -145 -296 -354c0 -200 116 -330 310 -330c72 0 137 35 168 56l15 -27c-29 -21 -100 -61 -205 -61c-200 0 -360 144 -360 365zM308 223c0 -44 20 -69 37 -69c52 0 96 92 114 181
c20 84 24 116 24 140c0 47 -15 79 -41 79c-39 0 -70 -30 -101 -120c-18 -50 -33 -137 -33 -211z" />
    <glyph glyph-name="A" unicode="A" horiz-adv-x="754" 
d="M245 226h185l-91 275zM44 0v32h34c43 0 74 41 88 81l211 617h42l214 -647c12 -35 33 -51 59 -51h40v-32h-351v32h72c16 0 27 15 27 32c0 6 -3 20 -6 29l-32 96h-210l-21 -61c-7 -18 -11 -38 -11 -51c0 -22 19 -45 52 -45h47v-32h-255z" />
    <glyph glyph-name="B" unicode="B" horiz-adv-x="710" 
d="M304 56c0 -18 6 -24 24 -24h68c66 0 106 34 106 162s-40 162 -106 162h-92v-300zM62 0v32h70c18 0 24 6 24 24v600c0 18 -6 24 -24 24h-70v32h352c119 0 224 -70 224 -170c0 -97 -89 -146 -169 -167v-6c85 -13 193 -71 193 -175c0 -126 -109 -194 -235 -194h-365z
M304 388h92c77 0 92 62 92 154c0 88 -33 138 -86 138h-74c-18 0 -24 -6 -24 -24v-268z" />
    <glyph glyph-name="C" unicode="C" horiz-adv-x="660" 
d="M70 356c0 200 104 374 280 374c54 0 95 -22 135 -49c14 -9 26 -15 34 -15c12 0 17 8 22 19l18 37h33v-307h-32c-30 171 -110 283 -210 283c-56 0 -110 -48 -110 -192v-300c0 -144 64 -192 120 -192c94 0 147 53 177 109c24 45 34 105 39 152h36c-4 -55 -17 -119 -41 -166
c-40 -78 -111 -127 -211 -127c-194 0 -290 186 -290 374z" />
    <glyph glyph-name="D" unicode="D" horiz-adv-x="786" 
d="M304 56c0 -18 6 -24 24 -24h89c80 0 149 54 149 174v300c0 120 -69 174 -149 174h-89c-18 0 -24 -6 -24 -24v-600zM62 0v32h70c18 0 24 6 24 24v600c0 18 -6 24 -24 24h-70v32h372c166 0 302 -142 302 -350s-136 -362 -302 -362h-372z" />
    <glyph glyph-name="E" unicode="E" horiz-adv-x="690" 
d="M62 0v32h70c18 0 24 6 24 24v600c0 18 -6 24 -24 24h-70v32h562l6 -232h-32s-10 64 -40 114c-28 49 -68 86 -120 86h-110c-18 0 -24 -6 -24 -24v-276h51c56 0 100 80 100 138h32v-313h-32c0 59 -44 139 -100 139h-51v-288c0 -18 6 -24 24 -24h109c82 0 129 88 148 142
c13 37 21 102 21 102h32l-6 -276h-570z" />
    <glyph glyph-name="F" unicode="F" horiz-adv-x="670" 
d="M62 0v32h70c18 0 24 6 24 24v600c0 18 -6 24 -24 24h-70v32h564l8 -274h-32s-11 80 -36 133c-24 51 -72 109 -136 109h-102c-18 0 -24 -6 -24 -24v-276h51c56 0 100 80 100 138h32v-313h-32c0 59 -44 139 -100 139h-51v-288c0 -18 6 -24 24 -24h91v-32h-357z" />
    <glyph glyph-name="G" unicode="G" horiz-adv-x="720" 
d="M70 356c0 200 122 374 298 374c63 0 102 -22 142 -49c14 -9 25 -15 34 -15c11 0 17 8 22 19l17 37h33v-288h-31c-45 166 -117 264 -217 264c-76 0 -128 -48 -128 -192v-300c0 -144 46 -192 110 -192c72 0 118 71 118 147v137c0 18 -6 24 -24 24h-88v32h332v-32h-48
c-18 0 -24 -6 -24 -24v-311h-32l-24 91c-3 12 -11 25 -24 25c-14 0 -23 -8 -31 -21c-24 -37 -79 -100 -155 -100c-176 0 -280 175 -280 374z" />
    <glyph glyph-name="H" unicode="H" horiz-adv-x="824" 
d="M62 0v32h70c18 0 24 6 24 24v600c0 18 -6 24 -24 24h-70v32h336v-32h-70c-18 0 -24 -6 -24 -24v-264h236v264c0 18 -6 24 -24 24h-72v32h338v-32h-70c-18 0 -24 -6 -24 -24v-600c0 -18 6 -24 24 -24h70v-32h-336v32h70c18 0 24 6 24 24v300h-236v-300c0 -18 6 -24 24 -24
h70v-32h-336z" />
    <glyph glyph-name="I" unicode="I" horiz-adv-x="440" 
d="M62 0v32h70c18 0 24 6 24 24v600c0 18 -6 24 -24 24h-70v32h336v-32h-70c-18 0 -24 -6 -24 -24v-600c0 -18 6 -24 24 -24h70v-32h-336z" />
    <glyph glyph-name="J" unicode="J" horiz-adv-x="540" 
d="M36 154c0 72 46 117 90 117s71 -33 71 -69c0 -50 -33 -74 -61 -84c-23 -8 -32 -20 -32 -42c0 -26 39 -62 98 -62c53 0 76 42 76 116v526c0 18 -6 24 -24 24h-80v32h338v-32h-62c-18 0 -24 -6 -24 -24v-462c0 -136 -110 -212 -212 -212c-96 0 -178 59 -178 172z" />
    <glyph glyph-name="K" unicode="K" horiz-adv-x="770" 
d="M62 0v32h70c18 0 24 6 24 24v600c0 18 -6 24 -24 24h-70v32h328v-32h-62c-18 0 -24 -6 -24 -24v-296l193 224c17 20 25 32 25 54c0 24 -14 42 -36 42h-29v32h247v-32h-35c-31 0 -63 -26 -83 -50l-134 -155l211 -399c16 -31 27 -44 60 -44h27v-32h-314v32h40
c12 0 21 10 21 21c0 6 -2 19 -5 25l-145 276l-43 -49v-249c0 -18 6 -24 24 -24h62v-32h-328z" />
    <glyph glyph-name="L" unicode="L" horiz-adv-x="670" 
d="M62 0v32h70c18 0 24 9 24 27v597c0 18 -6 24 -24 24h-70v32h336v-32h-70c-18 0 -24 -6 -24 -24v-597c0 -18 6 -27 24 -27h101c82 0 133 119 150 174c11 37 25 102 25 102h32l-8 -308h-566z" />
    <glyph glyph-name="M" unicode="M" horiz-adv-x="890" 
d="M48 0v32c52 0 104 26 104 90v534c0 18 -6 24 -24 24h-80v32h239l183 -492l134 492h254v-32h-70c-18 0 -24 -6 -24 -24v-600c0 -18 6 -24 24 -24h70v-32h-336v32h70c18 0 24 6 24 24v569l-174 -637h-39l-204 549h-7v-415c0 -64 52 -90 104 -90v-32h-248z" />
    <glyph glyph-name="N" unicode="N" horiz-adv-x="764" 
d="M48 0v32c72 0 126 42 126 104v427c0 15 -2 18 -11 31l-40 60c-13 19 -25 26 -57 26h-18v32h222l320 -457v321c0 62 -54 104 -126 104v32h292v-32c-72 0 -126 -42 -126 -104v-594h-38l-374 535h-4v-381c0 -62 54 -104 126 -104v-32h-292z" />
    <glyph glyph-name="O" unicode="O" horiz-adv-x="712" 
d="M70 356c0 192 138 374 296 374s296 -182 296 -374s-138 -374 -296 -374s-296 182 -296 374zM240 206c0 -144 50 -192 126 -192s126 48 126 192v300c0 144 -50 192 -126 192s-126 -48 -126 -192v-300z" />
    <glyph glyph-name="P" unicode="P" horiz-adv-x="702" 
d="M62 0v32h70c18 0 24 6 24 24v600c0 18 -6 24 -24 24h-70v32h356c142 0 240 -76 240 -186s-98 -190 -240 -190h-114v-280c0 -18 6 -24 24 -24h88v-32h-354zM304 368h99c75 0 95 70 95 158s-20 154 -95 154h-75c-18 0 -24 -6 -24 -24v-288z" />
    <glyph glyph-name="Q" unicode="Q" horiz-adv-x="712" 
d="M70 356c0 192 138 374 296 374s296 -182 296 -374c0 -146 -80 -288 -191 -347c5 -73 31 -119 84 -119c56 0 79 55 79 118c0 16 -1 30 -3 48h30c3 -19 5 -50 5 -77c0 -41 -2 -97 -24 -143c-21 -44 -61 -74 -110 -74c-57 0 -117 46 -117 128c0 16 0 62 4 99
c-17 -5 -37 -7 -52 -7c-162 0 -297 185 -297 374zM240 206c0 -76 15 -124 35 -151l2 1c-2 8 -3 13 -3 24c0 41 30 86 88 86s94 -44 102 -95h3c18 36 25 78 25 135v300c0 144 -50 192 -126 192s-126 -48 -126 -192v-300zM302 75c0 -33 13 -50 30 -57c6 -3 22 -4 34 -4
c18 0 38 4 55 11c0 53 -6 108 -70 108c-29 0 -49 -30 -49 -58z" />
    <glyph glyph-name="R" unicode="R" horiz-adv-x="730" 
d="M304 396h67c75 0 95 64 95 148s-20 136 -95 136h-43c-18 0 -24 -6 -24 -24v-260zM62 0v32h70c18 0 24 6 24 24v600c0 18 -6 24 -24 24h-70v32h324c142 0 240 -66 240 -176c0 -96 -80 -147 -184 -159v-7c94 -17 162 -60 162 -185v-111c0 -30 10 -42 28 -42
c38 0 50 77 50 148h32c0 -116 -23 -204 -119 -204c-82 0 -139 48 -139 150v124c0 58 -26 114 -96 114h-56v-308c0 -18 6 -24 24 -24h88v-32h-354z" />
    <glyph glyph-name="S" unicode="S" horiz-adv-x="620" 
d="M90 306h32c28 -147 117 -292 231 -292c120 0 137 72 137 114c0 37 -32 64 -72 90l-214 138c-50 32 -112 90 -112 182c0 138 96 192 196 192c66 0 122 -36 142 -50c13 -10 26 -18 36 -18c13 0 20 10 22 23l6 27h32l10 -260h-32c-37 138 -126 246 -224 246
c-71 0 -104 -28 -104 -84c0 -46 43 -85 89 -115l215 -139c55 -36 90 -105 90 -172c0 -99 -70 -206 -223 -206c-64 0 -110 22 -137 44c-26 20 -39 30 -52 30c-14 0 -23 -12 -26 -34l-5 -32h-31z" />
    <glyph glyph-name="T" unicode="T" horiz-adv-x="716" 
d="M60 414l8 298h600l8 -298h-32s-4 34 -21 94c-23 82 -76 172 -144 172c-22 0 -37 -12 -37 -34v-590c0 -18 6 -24 24 -24h80v-32h-356v32h80c18 0 24 6 24 24v590c0 22 -15 34 -37 34c-68 0 -121 -90 -144 -172c-17 -60 -21 -94 -21 -94h-32z" />
    <glyph glyph-name="U" unicode="U" horiz-adv-x="794" 
d="M68 680v32h324v-32h-64c-18 0 -24 -6 -24 -24v-458c0 -123 46 -176 143 -176c100 0 171 80 171 176v392c0 64 -52 90 -104 90v32h248v-32c-52 0 -104 -26 -104 -90v-382c0 -125 -88 -226 -239 -226c-190 0 -263 126 -263 255v419c0 18 -6 24 -24 24h-64z" />
    <glyph glyph-name="V" unicode="V" horiz-adv-x="772" 
d="M46 680v32h347v-32h-50c-19 0 -34 -11 -34 -25c0 -6 1 -14 4 -22l148 -421l115 357c3 9 10 35 10 51c0 24 -15 60 -56 60h-50v32h270v-32h-31c-51 0 -80 -41 -96 -91l-197 -607h-42l-226 640c-15 44 -35 58 -79 58h-33z" />
    <glyph glyph-name="W" unicode="W" horiz-adv-x="1076" 
d="M44 680v32h325v-32h-29c-19 0 -31 -16 -31 -35c0 -6 2 -17 5 -25l126 -385l94 320l-22 67c-15 44 -35 58 -79 58h-17v32h328v-32h-49c-19 0 -32 -15 -32 -29c0 -6 1 -14 3 -22l127 -390l91 329c3 9 7 38 7 54c0 24 -12 58 -53 58h-50v32h270v-32h-31
c-51 0 -80 -41 -96 -91l-169 -607h-42l-164 506l-148 -506h-42l-208 633c-14 42 -37 65 -95 65h-19z" />
    <glyph glyph-name="X" unicode="X" horiz-adv-x="750" 
d="M52 0v32h31c49 0 80 33 103 67l147 223l-166 306c-17 31 -42 52 -90 52h-15v32h314v-32h-21c-11 0 -25 -9 -25 -28c0 -10 5 -22 8 -28l88 -162l78 119c12 18 16 37 16 55c0 21 -14 44 -44 44h-30v32h254v-32h-30c-40 0 -65 -14 -88 -49l-136 -206l183 -340
c21 -39 54 -53 81 -53h20v-32h-332v32h33c20 0 31 14 31 36c0 8 -4 22 -12 36l-97 180l-96 -145c-15 -23 -25 -45 -25 -63c0 -22 11 -44 36 -44h44v-32h-260z" />
    <glyph glyph-name="Y" unicode="Y" horiz-adv-x="736" 
d="M46 680v32h314v-32h-28c-20 0 -28 -18 -28 -32c0 -8 2 -20 6 -28l132 -287l92 229c7 16 14 40 14 57c0 28 -14 61 -54 61h-28v32h248v-32h-30c-49 0 -78 -39 -91 -73l-135 -329v-222c0 -18 6 -24 24 -24h64v-32h-324v32h64c18 0 24 6 24 24v213l-170 367
c-16 35 -32 44 -59 44h-35z" />
    <glyph glyph-name="Z" unicode="Z" horiz-adv-x="652" 
d="M68 0v32l352 648h-126c-50 0 -118 -57 -151 -138c-17 -43 -23 -85 -23 -86h-32l12 256h488v-34l-351 -646h137c78 0 138 83 162 130c28 56 38 120 38 120h32l-16 -282h-522z" />
    <glyph glyph-name="bracketleft" unicode="[" horiz-adv-x="380" 
d="M80 -180v892h230v-28h-94c-16 0 -24 -8 -24 -24v-788c0 -16 8 -24 24 -24h94v-28h-230z" />
    <glyph glyph-name="backslash" unicode="\" horiz-adv-x="450" 
d="M50 730h68l282 -928h-68z" />
    <glyph glyph-name="bracketright" unicode="]" horiz-adv-x="380" 
d="M70 -152h94c16 0 24 8 24 24v788c0 16 -8 24 -24 24h-94v28h230v-892h-230v28z" />
    <glyph glyph-name="asciicircum" unicode="^" horiz-adv-x="580" 
d="M54 372l226 358h20l226 -358h-78l-158 250l-158 -250h-78z" />
    <glyph glyph-name="underscore" unicode="_" horiz-adv-x="520" 
d="M0 -104h520v-64h-520v64z" />
    <glyph glyph-name="grave" unicode="&#x2cb;" horiz-adv-x="440" 
d="M84 672c0 24 18 40 42 40c18 0 33 -7 49 -32l89 -138l-20 -18l-132 100c-17 13 -28 30 -28 48z" />
    <glyph glyph-name="grave" unicode="`" horiz-adv-x="440" 
d="M84 672c0 24 18 40 42 40c18 0 33 -7 49 -32l89 -138l-20 -18l-132 100c-17 13 -28 30 -28 48z" />
    <glyph glyph-name="a" unicode="a" horiz-adv-x="508" 
d="M168 115c0 -74 37 -87 59 -87c26 0 47 16 61 44v198l-56 -20c-45 -16 -64 -61 -64 -135zM46 106c0 98 96 140 168 165l74 26v68c0 73 -36 97 -75 97c-34 0 -69 -16 -69 -47c0 -6 3 -20 16 -29c18 -11 28 -22 28 -45c0 -35 -31 -51 -56 -51c-31 0 -63 21 -63 68
c0 81 84 128 155 128c82 0 180 -39 180 -161v-253c0 -25 7 -36 20 -36c26 0 36 54 36 99h28c0 -36 -3 -78 -22 -107c-14 -22 -41 -40 -77 -40c-57 0 -79 18 -97 54h-2c-22 -30 -58 -54 -112 -54c-62 0 -132 25 -132 118z" />
    <glyph glyph-name="b" unicode="b" horiz-adv-x="528" 
d="M12 688v24h188v-295l6 -2c20 41 53 71 98 71c107 0 176 -123 176 -249s-73 -249 -180 -249c-54 0 -84 35 -104 65c-16 25 -24 33 -39 33c-11 0 -21 -10 -29 -28l-28 -58h-16v672c0 12 -4 16 -16 16h-56zM200 234c0 -120 40 -214 86 -214c48 0 66 89 66 217
s-18 217 -66 217c-32 0 -86 -64 -86 -220z" />
    <glyph glyph-name="c" unicode="c" horiz-adv-x="468" 
d="M48 237c0 137 85 249 211 249c101 0 145 -73 145 -135c0 -48 -34 -89 -75 -89c-29 0 -53 18 -53 50c0 27 22 45 32 53c12 10 24 24 24 41c0 22 -14 56 -65 56c-66 0 -91 -92 -91 -225c0 -56 0 -99 11 -138c12 -49 49 -81 94 -81c71 0 108 76 115 144h26
c-7 -74 -47 -174 -161 -174c-128 0 -213 112 -213 249z" />
    <glyph glyph-name="d" unicode="d" horiz-adv-x="538" 
d="M176 237c0 -128 18 -217 66 -217c46 0 86 94 86 214c0 156 -54 220 -86 220c-48 0 -66 -89 -66 -217zM48 237c0 126 69 249 176 249c45 0 78 -30 98 -71l6 2v255c0 12 -4 16 -16 16h-56v24h188v-672c0 -12 4 -16 16 -16h56v-24h-188v58h-6c-15 -32 -47 -70 -94 -70
c-107 0 -180 123 -180 249z" />
    <glyph glyph-name="e" unicode="e" horiz-adv-x="472" 
d="M48 237c0 144 91 249 202 249c82 0 144 -64 163 -158c7 -32 7 -88 7 -100h-244c0 -51 0 -90 11 -129c12 -49 49 -81 94 -81c71 0 108 76 115 144h26c-7 -74 -47 -174 -161 -174c-128 0 -213 112 -213 249zM176 256h128c0 130 -12 206 -64 206s-64 -76 -64 -206z" />
    <glyph glyph-name="f" unicode="f" horiz-adv-x="350" 
d="M30 0v24h56c12 0 16 4 16 16v406h-72v28h72v48c0 133 101 198 183 198c75 0 121 -51 121 -117c0 -40 -32 -74 -74 -74c-28 0 -59 19 -59 55c0 28 18 45 28 54c11 10 17 20 17 32c0 21 -22 26 -37 26c-27 0 -63 -25 -63 -132v-90h72v-28h-72v-406c0 -12 4 -16 16 -16h56
v-24h-260z" />
    <glyph glyph-name="g" unicode="g" horiz-adv-x="554" 
d="M42 -114c0 43 34 84 94 98v3c-36 3 -78 33 -78 82c0 65 40 103 112 117v4c-42 18 -98 62 -98 140c0 94 87 156 182 156c71 0 115 -30 139 -52h3c19 32 44 52 74 52c45 0 72 -32 72 -66c0 -40 -25 -74 -56 -74c-19 0 -40 12 -40 35c0 14 8 26 16 36c7 7 16 20 16 28
s-5 16 -21 16s-33 -10 -51 -42c25 -27 32 -63 32 -97c0 -69 -70 -149 -186 -149c-64 0 -135 -5 -135 -53c0 -26 21 -35 49 -35h158c87 0 165 -40 165 -136c0 -98 -83 -187 -225 -187c-117 0 -222 44 -222 124zM194 330c0 -91 17 -132 62 -132c44 0 60 41 60 132
s-16 132 -60 132c-45 0 -62 -41 -62 -132zM78 -115c0 -63 90 -91 171 -91c82 0 173 33 173 108c0 55 -73 71 -149 71c-74 0 -195 -11 -195 -88z" />
    <glyph glyph-name="h" unicode="h" horiz-adv-x="560" 
d="M26 0v24h56c12 0 16 4 16 16v632c0 12 -4 16 -16 16h-56v24h188v-327l5 -1c25 58 66 102 124 102c34 0 56 -7 77 -22c34 -25 54 -72 54 -116v-308c0 -12 4 -16 16 -16h38v-24h-218v24h32c12 0 16 4 16 16v337c0 41 -9 77 -46 77c-41 0 -98 -91 -98 -200v-214
c0 -12 4 -16 16 -16h32v-24h-236z" />
    <glyph glyph-name="i" unicode="i" horiz-adv-x="296" 
d="M74 650c0 42 32 74 74 74s74 -32 74 -74s-32 -74 -74 -74s-74 32 -74 74zM40 0v24h38c12 0 16 4 16 16v394c0 12 -4 16 -16 16h-38v24h170v-434c0 -12 4 -16 16 -16h38v-24h-224z" />
    <glyph glyph-name="j" unicode="j" horiz-adv-x="320" 
d="M104 650c0 42 32 74 74 74s74 -32 74 -74s-32 -74 -74 -74s-74 32 -74 74zM-52 -126c0 46 36 79 74 79c28 0 59 -17 59 -53c0 -28 -18 -47 -28 -56c-11 -10 -17 -20 -17 -32c0 -21 22 -26 37 -26c27 0 47 25 47 132v516c0 12 -4 16 -16 16h-56v24h188v-514
c0 -133 -77 -198 -159 -198c-75 0 -129 46 -129 112z" />
    <glyph glyph-name="k" unicode="k" horiz-adv-x="560" 
d="M26 0v24h56c12 0 16 4 16 16v632c0 12 -2 16 -16 16h-56v24h188v-499l130 163c13 16 20 29 20 45c0 19 -14 28 -28 28h-30v25h191v-25h-23c-36 0 -60 -28 -89 -65l-59 -74l156 -253c11 -18 21 -33 37 -33h21v-24h-231v24h18c10 0 25 5 25 22s-4 30 -14 46l-81 132
l-43 -53v-131c0 -12 5 -16 18 -16h36v-24h-242z" />
    <glyph glyph-name="l" unicode="l" horiz-adv-x="308" 
d="M26 0v24h56c12 0 16 4 16 16v632c0 12 -4 16 -16 16h-56v24h188v-672c0 -12 4 -16 16 -16h56v-24h-260z" />
    <glyph glyph-name="m" unicode="m" horiz-adv-x="800" 
d="M40 0v24h38c12 0 16 4 16 16v394c0 12 -4 16 -16 16h-38v24h170v-99l5 -1c28 69 69 112 125 112c93 0 111 -64 120 -110h5c24 66 67 110 118 110c34 0 56 -7 77 -22c34 -25 54 -72 54 -116v-308c0 -12 4 -16 16 -16h38v-24h-218v24h32c12 0 16 4 16 16v337
c0 41 -9 77 -46 77c-41 0 -90 -91 -90 -200v-214c0 -12 4 -16 16 -16h32v-24h-212v24h32c12 0 16 4 16 16v355c0 32 -2 59 -38 59c-42 0 -98 -91 -98 -200v-214c0 -12 4 -16 16 -16h32v-24h-218z" />
    <glyph glyph-name="n" unicode="n" horiz-adv-x="556" 
d="M40 0v24h38c12 0 16 4 16 16v394c0 12 -4 16 -16 16h-38v24h170v-89l5 -1c25 58 66 102 124 102c34 0 56 -7 77 -22c34 -25 54 -72 54 -116v-308c0 -12 4 -16 16 -16h38v-24h-218v24h32c12 0 16 4 16 16v337c0 41 -9 77 -46 77c-41 0 -98 -91 -98 -200v-214
c0 -12 4 -16 16 -16h32v-24h-218z" />
    <glyph glyph-name="o" unicode="o" horiz-adv-x="504" 
d="M176 237c0 -152 16 -225 76 -225s76 73 76 225s-16 225 -76 225s-76 -73 -76 -225zM48 237c0 144 96 249 204 249s204 -105 204 -249s-96 -249 -204 -249s-204 105 -204 249z" />
    <glyph glyph-name="p" unicode="p" horiz-adv-x="544" 
d="M216 240c0 -156 54 -220 86 -220c48 0 66 89 66 217s-18 217 -66 217c-46 0 -86 -94 -86 -214zM28 -204h56c12 0 16 4 16 16v622c0 12 -4 16 -16 16h-56v24h188v-58h6c15 32 47 70 94 70c107 0 180 -123 180 -249s-69 -249 -176 -249c-45 0 -78 30 -98 71l-6 -2v-245
c0 -12 4 -16 16 -16h56v-24h-260v24z" />
    <glyph glyph-name="q" unicode="q" horiz-adv-x="524" 
d="M48 237c0 126 73 249 180 249c54 0 84 -35 104 -65c16 -25 24 -33 39 -33c11 0 21 10 29 28l28 58h16v-662c0 -12 4 -16 16 -16h38v-24h-242v24h56c12 0 16 4 16 16v245l-6 2c-20 -41 -53 -71 -98 -71c-107 0 -176 123 -176 249zM176 237c0 -128 18 -217 66 -217
c32 0 86 64 86 220c0 120 -40 214 -86 214c-48 0 -66 -89 -66 -217z" />
    <glyph glyph-name="r" unicode="r" horiz-adv-x="434" 
d="M40 0v24h38c12 0 16 4 16 16v394c0 12 -4 16 -16 16h-38v24h170v-99l5 -1c19 56 60 112 111 112c49 0 82 -40 82 -92c0 -48 -31 -90 -73 -90c-36 0 -65 25 -65 57c0 20 12 38 24 52c7 8 14 16 14 23c0 5 -3 10 -11 10c-41 0 -87 -96 -87 -205v-201c0 -12 4 -16 16 -16h32
v-24h-218z" />
    <glyph glyph-name="s" unicode="s" horiz-adv-x="430" 
d="M58 -12v198h22l45 -79c29 -51 71 -95 136 -95c54 0 73 34 73 60c0 40 -26 58 -125 106c-55 27 -151 76 -151 172c0 85 62 136 134 136c43 0 78 -20 100 -34c14 -9 23 -12 30 -12c10 0 14 8 16 16l6 20h18v-160h-22l-19 38c-37 74 -87 108 -133 108c-32 0 -62 -14 -62 -55
c0 -47 49 -82 106 -109c120 -58 166 -93 166 -176c0 -86 -62 -134 -138 -134c-49 0 -87 22 -104 32c-12 8 -26 16 -36 16c-18 0 -32 -12 -37 -27l-7 -21h-18z" />
    <glyph glyph-name="t" unicode="t" horiz-adv-x="364" 
d="M20 446v28c77 10 128 66 128 156v36h48v-192h102v-28h-102v-341c0 -34 5 -73 46 -73c65 0 70 126 70 186h28c0 -68 -8 -142 -31 -179c-20 -32 -53 -51 -97 -51c-84 0 -132 46 -132 124v334h-60z" />
    <glyph glyph-name="u" unicode="u" horiz-adv-x="550" 
d="M24 450v24h180v-377c0 -41 9 -77 46 -77c41 0 98 91 98 200v214c0 12 -4 16 -16 16h-48v24h180v-434c0 -12 4 -16 16 -16h38v-24h-170v89l-5 1c-25 -58 -66 -102 -124 -102c-34 0 -56 7 -77 22c-34 25 -54 72 -54 116v308c0 12 -4 16 -16 16h-48z" />
    <glyph glyph-name="v" unicode="v" horiz-adv-x="530" 
d="M18 450v24h245v-24h-29c-11 0 -24 -9 -24 -26c0 -6 2 -16 6 -28l89 -247l79 219c5 16 7 28 7 44c0 18 -14 38 -35 38h-26v24h170v-24h-22c-22 0 -41 -20 -56 -62l-144 -400h-32l-147 404c-14 39 -27 58 -64 58h-17z" />
    <glyph glyph-name="w" unicode="w" horiz-adv-x="776" 
d="M18 450v24h231v-24h-19c-11 0 -20 -9 -20 -26c0 -6 2 -16 6 -28l90 -251l73 204l-15 43c-14 39 -28 58 -57 58h-13v24h233v-24h-29c-11 0 -24 -9 -24 -26c0 -6 2 -16 6 -28l80 -238l76 211c5 16 7 29 7 45c0 17 -14 36 -35 36h-26v24h170v-24h-22c-22 0 -41 -20 -56 -62
l-144 -400h-32l-105 319l-115 -319h-32l-146 404c-14 39 -28 58 -65 58h-17z" />
    <glyph glyph-name="x" unicode="x" horiz-adv-x="520" 
d="M24 0v24h38c28 0 55 38 70 60l84 120l-127 210c-11 19 -22 36 -43 36h-22v24h229v-24h-14c-6 0 -19 -4 -19 -22c0 -7 2 -15 8 -24l59 -98l61 89c8 12 12 24 12 34c0 15 -16 21 -27 21h-40v24h177v-24h-27c-21 0 -40 -27 -61 -57l-79 -114l130 -215c9 -15 25 -40 51 -40
h16v-24h-227v24h15c9 0 15 8 15 21c0 4 -1 16 -10 30l-61 102l-54 -78c-7 -10 -12 -26 -12 -43c0 -19 12 -32 25 -32h37v-24h-204z" />
    <glyph glyph-name="y" unicode="y" horiz-adv-x="524" 
d="M12 450v24h245v-24h-29c-11 0 -24 -9 -24 -26c0 -6 2 -16 7 -28l103 -247l65 219c4 16 7 28 7 44c0 18 -10 38 -31 38h-26v24h165v-24h-22c-22 0 -47 -19 -60 -62l-152 -505c-17 -58 -48 -121 -109 -121c-56 0 -91 38 -91 91c0 43 30 83 74 83c33 0 55 -23 55 -50
c0 -18 -10 -34 -19 -42c-7 -6 -14 -14 -14 -26c0 -10 6 -24 23 -24c26 0 41 45 50 74l33 110l-173 414c-16 38 -26 58 -62 58h-15z" />
    <glyph glyph-name="z" unicode="z" horiz-adv-x="460" 
d="M32 0v26l250 424h-68c-45 0 -75 -23 -94 -52c-29 -45 -36 -100 -36 -100h-24l6 176h348v-20l-254 -430h86c49 0 98 43 120 92c20 42 22 92 22 92h24l-6 -208h-374z" />
    <glyph glyph-name="braceleft" unicode="{" horiz-adv-x="420" 
d="M42 253v26c58 0 98 9 98 81v202c0 106 92 146 206 168l8 -28c-68 -14 -102 -31 -102 -98v-194c0 -94 -54 -129 -115 -143v-2c61 -14 115 -49 115 -143v-194c0 -67 34 -84 102 -98l-8 -28c-114 22 -206 62 -206 168v202c0 72 -40 81 -98 81z" />
    <glyph glyph-name="bar" unicode="|" horiz-adv-x="284" 
d="M108 -198v928h68v-928h-68z" />
    <glyph glyph-name="braceright" unicode="}" horiz-adv-x="420" 
d="M66 -170c68 14 102 31 102 98v194c0 94 54 129 115 143v2c-61 14 -115 49 -115 143v194c0 67 -34 84 -102 98l8 28c114 -22 206 -62 206 -168v-202c0 -72 40 -81 98 -81v-26c-58 0 -98 -9 -98 -81v-202c0 -106 -92 -146 -206 -168z" />
    <glyph glyph-name="asciitilde" unicode="~" horiz-adv-x="660" 
d="M48 249c0 55 39 113 116 113c63 0 136 -32 206 -63c64 -29 125 -55 168 -55c20 0 40 13 40 42c0 30 -17 47 -42 60l14 21c42 -19 64 -52 64 -90c0 -55 -39 -113 -116 -113c-63 0 -136 32 -206 63c-64 29 -125 55 -168 55c-20 0 -40 -13 -40 -42c0 -30 17 -47 42 -60
l-14 -21c-42 19 -64 52 -64 90z" />
    <glyph glyph-name="nonbreakingspace" unicode="&#xa0;" horiz-adv-x="280" 
 />
    <glyph glyph-name="exclamdown" unicode="&#xa1;" horiz-adv-x="280" 
d="M222 -140c0 -64 -36 -98 -82 -98s-82 34 -82 98c0 48 13 102 27 155c11 43 23 95 27 127l16 145h24l16 -145c3 -32 16 -84 27 -127c14 -53 27 -107 27 -155zM218 426c0 -45 -33 -78 -78 -78s-78 33 -78 78s33 78 78 78s78 -33 78 -78z" />
    <glyph glyph-name="cent" unicode="&#xa2;" horiz-adv-x="580" 
d="M102 237c0 130 77 237 192 248v109h40v-109c86 -9 124 -76 124 -134c0 -32 -19 -71 -60 -71c-29 0 -48 19 -48 49c0 20 14 36 23 46s17 21 17 31c0 20 -15 50 -56 55v-443c72 0 109 76 116 144h26c-7 -70 -42 -163 -142 -173v-109h-40v109c-116 12 -192 119 -192 248z
M230 237c0 -56 0 -99 11 -138c8 -33 27 -58 53 -71v428c-46 -23 -64 -106 -64 -219z" />
    <glyph glyph-name="sterling" unicode="&#xa3;" horiz-adv-x="720" 
d="M64 65c0 51 52 85 92 85c46 0 83 -13 134 -33c4 15 6 31 6 48c0 41 -10 89 -25 134c-9 25 -17 52 -23 81c-11 1 -22 2 -33 2c-38 0 -52 -8 -76 -22l-16 30c16 14 38 28 82 28c12 0 24 -1 36 -2c-3 21 -5 44 -5 68c0 158 115 244 246 244c113 0 172 -78 172 -139
c0 -44 -35 -85 -77 -85c-27 0 -60 20 -60 53c0 30 16 43 31 55c18 16 20 27 20 41c0 19 -24 49 -86 49c-74 0 -98 -87 -98 -166c0 -46 5 -98 10 -147c19 -3 38 -5 55 -5c38 0 56 10 76 22l16 -30c-13 -13 -38 -28 -82 -28c-20 0 -41 2 -61 5c2 -24 4 -55 4 -79
c0 -60 -22 -123 -58 -174c52 -14 94 -20 148 -20c66 0 125 43 159 101l25 -11c-31 -80 -105 -188 -231 -188c-50 0 -106 30 -152 60c-39 -33 -84 -54 -131 -54c-50 0 -98 20 -98 77zM92 59c0 -38 42 -47 70 -47c35 0 73 18 100 51c-39 25 -77 47 -112 47
c-34 0 -58 -20 -58 -51z" />
    <glyph glyph-name="currency" unicode="&#xa4;" horiz-adv-x="580" 
d="M122 342c0 -100 68 -168 168 -168s168 68 168 168s-68 170 -168 170s-168 -70 -168 -170zM38 133l68 68c-30 39 -48 88 -48 141s18 103 48 143l-68 68l42 42l68 -68c39 31 89 49 142 49s103 -18 142 -49l68 68l42 -42l-68 -68c30 -40 48 -90 48 -143s-18 -102 -48 -141
l68 -68l-42 -42l-68 68c-39 -31 -88 -49 -142 -49s-103 18 -142 49l-68 -68z" />
    <glyph glyph-name="yen" unicode="&#xa5;" horiz-adv-x="580" 
d="M18 680v32h264v-32h-24c-12 0 -19 -11 -19 -24c0 -6 2 -14 7 -24l100 -230l84 180c6 13 12 38 12 56c0 12 -7 42 -32 42h-25v32h177v-32h-16c-32 0 -54 -43 -69 -75l-117 -247h140v-32h-140v-66h140v-32h-140v-172c0 -16 8 -24 24 -24h72v-32h-340v32h72c16 0 24 8 24 24
v172h-140v32h140v66h-140v32h131l-123 283c-10 22 -22 39 -44 39h-18z" />
    <glyph glyph-name="brokenbar" unicode="&#xa6;" horiz-adv-x="284" 
d="M108 -168v360h68v-360h-68zM108 370v360h68v-360h-68z" />
    <glyph glyph-name="section" unicode="&#xa7;" horiz-adv-x="640" 
d="M50 274c0 64 36 116 77 145c-23 32 -35 72 -35 124c0 107 89 181 199 181c114 0 171 -70 171 -134c0 -59 -40 -96 -88 -96c-38 0 -63 24 -63 58c0 30 16 45 37 57c15 9 34 25 34 41c0 32 -57 46 -93 46c-62 0 -117 -38 -117 -110c0 -60 29 -88 75 -110l151 -71
c66 -31 106 -78 106 -153c0 -64 -36 -116 -77 -145c23 -32 35 -72 35 -124c0 -107 -89 -181 -199 -181c-114 0 -171 70 -171 134c0 59 40 96 88 96c38 0 63 -24 63 -58c0 -30 -16 -45 -37 -57c-15 -9 -34 -25 -34 -41c0 -32 57 -46 93 -46c62 0 117 38 117 110
c0 60 -29 88 -75 110l-151 71c-66 31 -106 78 -106 153zM106 337c0 -30 12 -55 36 -67l200 -96c29 -14 52 -30 71 -50c27 21 35 39 35 65c0 30 -12 55 -36 67l-200 96c-29 14 -52 30 -71 50c-27 -21 -35 -39 -35 -65z" />
    <glyph glyph-name="dieresis" unicode="&#xa8;" horiz-adv-x="440" 
d="M256.001 618c0 33 27 60 60 60s60 -27 60 -60s-27 -60 -60 -60s-60 27 -60 60zM64 618c0 33 27 60 60 60s60 -27 60 -60s-27 -60 -60 -60s-60 27 -60 60z" />
    <glyph glyph-name="copyright" unicode="&#xa9;" horiz-adv-x="820" 
d="M88 356c0 -184 138 -338 322 -338s322 154 322 338s-138 338 -322 338s-322 -154 -322 -338zM48 356c0 206 156 374 362 374s362 -168 362 -374s-156 -374 -362 -374s-362 168 -362 374zM220 351c0 130 67 243 181 243c35 0 62 -11 88 -30c9 -6 19 -12 24 -12
c8 0 12 5 15 13l9 23h25v-198h-24c-18 109 -64 176 -123 176c-33 0 -67 -28 -67 -119v-191c0 -91 40 -118 74 -118c56 0 86 32 104 67c14 29 20 65 24 95h26c-2 -36 -11 -77 -27 -108c-26 -50 -73 -82 -138 -82c-128 0 -191 120 -191 241z" />
    <glyph glyph-name="ordfeminine" unicode="&#xaa;" horiz-adv-x="380" 
d="M52 354v32h276v-32h-276zM132 490c0 -42 19 -50 30 -50c16 0 27 8 36 23v118l-28 -10c-27 -10 -38 -38 -38 -81zM44 483c0 62 65 85 115 102l39 14v40c0 41 -18 55 -42 55c-21 0 -42 -9 -42 -27c0 -4 2 -12 11 -17c12 -7 18 -13 18 -26c0 -21 -21 -30 -39 -30
c-21 0 -44 13 -44 41c0 49 55 77 103 77c56 0 119 -22 119 -87v-158c0 -14 5 -21 13 -21c15 0 21 31 21 58h20c0 -23 -2 -50 -15 -69c-9 -14 -28 -25 -53 -25c-37 0 -54 13 -67 37h-1c-13 -20 -38 -37 -70 -37c-39 0 -86 15 -86 73z" />
    <glyph glyph-name="guillemotleft" unicode="&#xab;" horiz-adv-x="480" 
d="M265 237c0 89 45 144 95 191l16 -16c-38 -50 -39 -111 -39 -175s1 -125 39 -175l-16 -16c-30 25 -95 99 -95 191zM108 237c0 106 58 169 124 209l16 -16c-44 -48 -52 -81 -52 -193s8 -145 52 -193l-16 -16c-66 40 -124 103 -124 209z" />
    <glyph glyph-name="logicalnot" unicode="&#xac;" horiz-adv-x="580" 
d="M40 345v64h500v-272h-68v208h-432z" />
    <glyph glyph-name="softhyphen" unicode="&#xad;" horiz-adv-x="370" 
d="M56 208v102h258v-102h-258z" />
    <glyph glyph-name="registered" unicode="&#xae;" horiz-adv-x="820" 
d="M88 356c0 -184 138 -338 322 -338s322 154 322 338s-138 338 -322 338s-322 -154 -322 -338zM48 356c0 206 156 374 362 374s362 -168 362 -374s-156 -374 -362 -374s-362 168 -362 374zM374 385h40c46 0 58 40 58 92c0 53 -12 85 -58 85h-22c-12 0 -18 -6 -18 -18v-159z
M204 130v24h40c12 0 18 6 18 18v372c0 12 -6 18 -18 18h-40v24h224c97 0 164 -43 164 -113c0 -62 -59 -95 -136 -103v-5c69 -11 120 -38 120 -116v-69c0 -19 5 -26 16 -26c23 0 30 48 30 92h24c0 -76 -16 -134 -84 -134c-57 0 -98 31 -98 96v79c0 37 -15 73 -57 73h-33v-188
c0 -12 6 -18 18 -18h48v-24h-236z" />
    <glyph glyph-name="macron" unicode="&#x2c9;" horiz-adv-x="440" 
d="M90 584v64h260v-64h-260z" />
    <glyph glyph-name="macron" unicode="&#xaf;" horiz-adv-x="440" 
d="M90 584v64h260v-64h-260z" />
    <glyph glyph-name="degree" unicode="&#xb0;" horiz-adv-x="580" 
d="M130 568c0 88 72 160 160 160s160 -72 160 -160s-72 -160 -160 -160s-160 72 -160 160zM186 568c0 -60 44 -104 104 -104s104 44 104 104s-44 104 -104 104s-104 -44 -104 -104z" />
    <glyph glyph-name="plusminus" unicode="&#xb1;" horiz-adv-x="940" 
d="M48 344v64h388v280h68v-280h388v-64h-388v-280h-68v280h-388zM48 0h836v-64h-836v64z" />
    <glyph glyph-name="twosuperior" unicode="&#xb2;" horiz-adv-x="388" 
d="M48 609c0 63 62 115 144 115c102 0 150 -44 150 -104c0 -64 -88 -118 -163 -154c-28 -13 -77 -49 -87 -92l4 -2c15 15 33 24 50 24c15 0 42 -3 56 -5c18 -3 34 -5 59 -5c33 0 55 18 55 37c0 14 -1 22 -4 34h23c3 -18 4 -34 4 -50c0 -59 -28 -133 -108 -133
c-35 0 -65 24 -86 46c-14 15 -24 24 -41 24c-12 0 -22 -8 -22 -21v-37h-28v28c0 35 3 86 82 156c50 45 98 89 98 149c0 38 -13 78 -61 78c-31 0 -53 -22 -53 -47c0 -16 6 -27 17 -34c15 -11 27 -21 27 -40c0 -20 -19 -35 -45 -35c-36 0 -71 25 -71 68z" />
    <glyph glyph-name="threesuperior" unicode="&#xb3;" horiz-adv-x="388" 
d="M36 368c0 33 28 62 67 62c33 0 52 -17 52 -39c0 -21 -13 -33 -31 -40c-8 -3 -18 -10 -18 -19c0 -22 25 -34 64 -34c47 0 70 33 70 103c0 69 -32 94 -66 94h-67v28h65c42 0 60 27 60 85c0 75 -23 92 -57 92c-32 0 -61 -17 -61 -45c0 -11 12 -20 20 -24
c12 -7 23 -18 23 -35c0 -18 -17 -35 -45 -35c-33 0 -62 26 -62 62c0 62 61 101 134 101c91 0 156 -41 156 -108c0 -63 -63 -92 -118 -102v-7c65 -5 134 -47 134 -109c0 -82 -75 -124 -183 -124c-77 0 -137 35 -137 94z" />
    <glyph glyph-name="acute" unicode="&#x2ca;" horiz-adv-x="440" 
d="M176 542l89 138c16 25 31 32 49 32c24 0 42 -16 42 -40c0 -18 -11 -35 -28 -48l-132 -100z" />
    <glyph glyph-name="acute" unicode="&#xb4;" horiz-adv-x="440" 
d="M176 542l89 138c16 25 31 32 49 32c24 0 42 -16 42 -40c0 -18 -11 -35 -28 -48l-132 -100z" />
    <glyph glyph-name="mu1" unicode="&#xb5;" horiz-adv-x="606" 
d="M60 354c0 64 30 130 75 130s61 -56 61 -95c0 -35 -11 -93 -22 -130c-12 -39 -27 -95 -36 -152c16 -45 57 -58 101 -58c73 0 119 83 119 109c-22 64 -32 129 -32 204c0 48 16 122 64 122c44 0 72 -59 72 -129c0 -67 -19 -170 -52 -240c16 -16 33 -24 50 -24
c51 0 76 37 94 101l18 -4c0 -82 -14 -203 -87 -203c-53 0 -75 46 -93 87l-5 -1c-19 -34 -65 -81 -122 -81c-56 0 -99 28 -131 63l-3 -1c-2 -14 -3 -28 -3 -36c0 -43 19 -80 38 -116c21 -40 41 -79 41 -111c0 -33 -19 -71 -61 -71c-51 0 -72 52 -72 97c0 63 9 116 20 164
c8 39 12 68 15 113c-18 52 -49 159 -49 262z" />
    <glyph glyph-name="paragraph" unicode="&#xb6;" horiz-adv-x="600" 
d="M56 510c0 116 87 202 202 202h286v-34h-70v-834h-68v834h-80v-834h-68v477c-115 0 -202 74 -202 189z" />
    <glyph glyph-name="periodcentered" unicode="&#xb7;" horiz-adv-x="280" 
d="M62 330c0 45 33 78 78 78s78 -33 78 -78s-33 -78 -78 -78s-78 33 -78 78z" />
    <glyph glyph-name="cedilla" unicode="&#xb8;" horiz-adv-x="440" 
d="M128 -143c0 20 11 32 29 32c23 0 27 -18 31 -37c5 -24 20 -38 49 -38c31 0 47 21 47 46c0 23 -14 42 -48 42h-47l16 98h25l-7 -42h25c48 0 84 -32 84 -75c0 -45 -29 -91 -109 -91c-40 0 -95 20 -95 65z" />
    <glyph glyph-name="onesuperior" unicode="&#xb9;" horiz-adv-x="388" 
d="M88 286v24h44c12 0 16 4 16 16v310h-60v28h27c35 0 74 16 86 48h55v-386c0 -12 4 -16 16 -16h44v-24h-228z" />
    <glyph glyph-name="ordmasculine" unicode="&#xba;" horiz-adv-x="380" 
d="M56 354v32h268v-32h-268zM148 561c0 -79 5 -133 42 -133c36 0 42 54 42 133s-6 133 -42 133c-37 0 -42 -54 -42 -133zM56 561c0 83 58 151 134 151s134 -68 134 -151s-58 -151 -134 -151s-134 68 -134 151z" />
    <glyph glyph-name="guillemotright" unicode="&#xbb;" horiz-adv-x="480" 
d="M104 62c38 50 39 111 39 175s-1 125 -39 175l16 16c50 -47 95 -102 95 -191c0 -92 -65 -166 -95 -191zM232 44c44 48 52 81 52 193s-8 145 -52 193l16 16c66 -40 124 -103 124 -209s-58 -169 -124 -209z" />
    <glyph glyph-name="onequarter" unicode="&#xbc;" horiz-adv-x="860" 
d="M502 118v29l182 279h74v-280h70v-28h-70v-78c0 -12 4 -16 16 -16h44v-24h-248v24h64c12 0 16 4 16 16v78h-148zM540 146h110v168zM88 286v24h44c12 0 16 4 16 16v310h-60v28h27c35 0 74 16 86 48h55v-386c0 -12 4 -16 16 -16h44v-24h-228zM188 -18l434 748h50l-434 -748
h-50z" />
    <glyph glyph-name="onehalf" unicode="&#xbd;" horiz-adv-x="860" 
d="M520 323c0 63 62 115 144 115c102 0 150 -44 150 -104c0 -64 -88 -118 -163 -154c-28 -13 -77 -49 -87 -92l4 -2c15 15 33 24 50 24c15 0 42 -3 56 -5c18 -3 34 -5 59 -5c33 0 55 18 55 37c0 14 -1 22 -4 34h23c3 -18 4 -34 4 -50c0 -59 -28 -133 -108 -133
c-35 0 -65 24 -86 46c-14 15 -24 24 -41 24c-12 0 -22 -8 -22 -21v-37h-28v28c0 35 3 86 82 156c50 45 98 89 98 149c0 38 -13 78 -61 78c-31 0 -53 -22 -53 -47c0 -16 6 -27 17 -34c15 -11 27 -21 27 -40c0 -20 -19 -35 -45 -35c-36 0 -71 25 -71 68zM88 286v24h44
c12 0 16 4 16 16v310h-60v28h27c35 0 74 16 86 48h55v-386c0 -12 4 -16 16 -16h44v-24h-228zM188 -18l434 748h50l-434 -748h-50z" />
    <glyph glyph-name="threequarters" unicode="&#xbe;" horiz-adv-x="860" 
d="M502 118v29l182 279h74v-280h70v-28h-70v-78c0 -12 4 -16 16 -16h44v-24h-248v24h64c12 0 16 4 16 16v78h-148zM540 146h110v168zM36 368c0 33 28 62 67 62c33 0 52 -17 52 -39c0 -21 -13 -33 -31 -40c-8 -3 -18 -10 -18 -19c0 -22 25 -34 64 -34c47 0 70 33 70 103
c0 69 -32 94 -66 94h-67v28h65c42 0 60 27 60 85c0 75 -23 92 -57 92c-32 0 -61 -17 -61 -45c0 -11 12 -20 20 -24c12 -7 23 -18 23 -35c0 -18 -17 -35 -45 -35c-33 0 -62 26 -62 62c0 62 61 101 134 101c91 0 156 -41 156 -108c0 -63 -63 -92 -118 -102v-7
c65 -5 134 -47 134 -109c0 -82 -75 -124 -183 -124c-77 0 -137 35 -137 94zM188 -18l434 748h50l-434 -748h-50z" />
    <glyph glyph-name="questiondown" unicode="&#xbf;" horiz-adv-x="470" 
d="M138 428c0 45 33 78 78 78s78 -33 78 -78s-33 -78 -78 -78s-78 33 -78 78zM72 -94c0 69 62 138 123 194c44 41 85 81 85 138c0 36 -31 50 -61 50c-35 0 -56 -29 -56 -66c0 -6 1 -15 5 -26l-24 -10c-6 13 -9 21 -9 37c0 57 39 95 84 95c49 0 95 -26 95 -81
c0 -50 -23 -95 -52 -140c-37 -58 -68 -110 -68 -204c0 -49 25 -91 72 -91c56 0 92 53 92 108c0 51 -11 74 -38 108l23 17c30 -37 49 -69 49 -127c0 -73 -55 -146 -157 -146c-96 0 -163 62 -163 144z" />
    <glyph glyph-name="Agrave" unicode="&#xc0;" horiz-adv-x="754" 
d="M247 908c0 24 18 40 42 40c18 0 33 -7 49 -32l89 -138l-20 -18l-132 100c-17 13 -28 30 -28 48zM245 226h185l-91 275zM44 0v32h34c43 0 74 41 88 81l211 617h42l214 -647c12 -35 33 -51 59 -51h40v-32h-351v32h72c16 0 27 15 27 32c0 6 -3 20 -6 29l-32 96h-210l-21 -61
c-7 -18 -11 -38 -11 -51c0 -22 19 -45 52 -45h47v-32h-255z" />
    <glyph glyph-name="Aacute" unicode="&#xc1;" horiz-adv-x="754" 
d="M364 778l89 138c16 25 31 32 49 32c24 0 42 -16 42 -40c0 -18 -11 -35 -28 -48l-132 -100zM245 226h185l-91 275zM44 0v32h34c43 0 74 41 88 81l211 617h42l214 -647c12 -35 33 -51 59 -51h40v-32h-351v32h72c16 0 27 15 27 32c0 6 -3 20 -6 29l-32 96h-210l-21 -61
c-7 -18 -11 -38 -11 -51c0 -22 19 -45 52 -45h47v-32h-255z" />
    <glyph glyph-name="Acircumflex" unicode="&#xc2;" horiz-adv-x="754" 
d="M228 786c67 35 114 82 148 144h40c30 -58 76 -108 148 -144l-12 -24c-62 22 -101 45 -156 80c-55 -35 -94 -58 -156 -80zM245 226h185l-91 275zM44 0v32h34c43 0 74 41 88 81l211 617h42l214 -647c12 -35 33 -51 59 -51h40v-32h-351v32h72c16 0 27 15 27 32
c0 6 -3 20 -6 29l-32 96h-210l-21 -61c-7 -18 -11 -38 -11 -51c0 -22 19 -45 52 -45h47v-32h-255z" />
    <glyph glyph-name="Atilde" unicode="&#xc3;" horiz-adv-x="754" 
d="M248 800c0 48 34 108 88 108c33 0 54 -9 82 -21c21 -9 40 -15 64 -15s36 16 40 40h22c0 -48 -34 -108 -88 -108c-33 0 -54 9 -82 21c-21 9 -40 15 -64 15s-36 -16 -40 -40h-22zM245 226h185l-91 275zM44 0v32h34c43 0 74 41 88 81l211 617h42l214 -647
c12 -35 33 -51 59 -51h40v-32h-351v32h72c16 0 27 15 27 32c0 6 -3 20 -6 29l-32 96h-210l-21 -61c-7 -18 -11 -38 -11 -51c0 -22 19 -45 52 -45h47v-32h-255z" />
    <glyph glyph-name="Adieresis" unicode="&#xc4;" horiz-adv-x="754" 
d="M442 854c0 33 27 60 60 60s60 -27 60 -60s-27 -60 -60 -60s-60 27 -60 60zM230 854c0 33 27 60 60 60s60 -27 60 -60s-27 -60 -60 -60s-60 27 -60 60zM245 226h185l-91 275zM44 0v32h34c43 0 74 41 88 81l211 617h42l214 -647c12 -35 33 -51 59 -51h40v-32h-351v32h72
c16 0 27 15 27 32c0 6 -3 20 -6 29l-32 96h-210l-21 -61c-7 -18 -11 -38 -11 -51c0 -22 19 -45 52 -45h47v-32h-255z" />
    <glyph glyph-name="Aring" unicode="&#xc5;" horiz-adv-x="754" 
d="M285 850c0 56 45 96 111 96s111 -40 111 -96s-45 -96 -111 -96s-111 40 -111 96zM329 850c0 -32 29 -52 67 -52s67 20 67 52s-29 52 -67 52s-67 -20 -67 -52zM245 226h185l-91 275zM44 0v32h34c43 0 74 41 88 81l211 617h42l214 -647c12 -35 33 -51 59 -51h40v-32h-351
v32h72c16 0 27 15 27 32c0 6 -3 20 -6 29l-32 96h-210l-21 -61c-7 -18 -11 -38 -11 -51c0 -22 19 -45 52 -45h47v-32h-255z" />
    <glyph glyph-name="Ccedilla" unicode="&#xc7;" horiz-adv-x="660" 
d="M70 356c0 200 104 374 280 374c54 0 95 -22 135 -49c14 -9 26 -15 34 -15c12 0 17 8 22 19l18 37h33v-307h-32c-30 171 -110 283 -210 283c-56 0 -110 -48 -110 -192v-300c0 -144 64 -192 120 -192c94 0 147 53 177 109c24 45 34 105 39 152h36c-4 -55 -17 -119 -41 -166
c-26 -51 -85 -127 -212 -127l-4 -29h33c53 0 91 -39 91 -85c0 -56 -34 -106 -126 -106c-44 0 -108 23 -108 68c0 22 10 39 33 39c27 0 33 -19 37 -37c5 -27 21 -46 54 -46c37 0 58 20 58 53c0 28 -17 50 -58 50h-53l14 94c-174 18 -260 195 -260 373z" />
    <glyph glyph-name="Egrave" unicode="&#xc8;" horiz-adv-x="690" 
d="M224 908c0 24 18 40 42 40c18 0 33 -7 49 -32l89 -138l-20 -18l-132 100c-17 13 -28 30 -28 48zM62 0v32h70c18 0 24 6 24 24v600c0 18 -6 24 -24 24h-70v32h562l6 -232h-32s-10 64 -40 114c-28 49 -68 86 -120 86h-110c-18 0 -24 -6 -24 -24v-276h51
c56 0 100 80 100 138h32v-313h-32c0 59 -44 139 -100 139h-51v-288c0 -18 6 -24 24 -24h109c82 0 129 88 148 142c13 37 21 102 21 102h32l-6 -276h-570z" />
    <glyph glyph-name="Eacute" unicode="&#xc9;" horiz-adv-x="690" 
d="M340 778l89 138c16 25 31 32 49 32c24 0 42 -16 42 -40c0 -18 -11 -35 -28 -48l-132 -100zM62 0v32h70c18 0 24 6 24 24v600c0 18 -6 24 -24 24h-70v32h562l6 -232h-32s-10 64 -40 114c-28 49 -68 86 -120 86h-110c-18 0 -24 -6 -24 -24v-276h51c56 0 100 80 100 138h32
v-313h-32c0 59 -44 139 -100 139h-51v-288c0 -18 6 -24 24 -24h109c82 0 129 88 148 142c13 37 21 102 21 102h32l-6 -276h-570z" />
    <glyph glyph-name="Ecircumflex" unicode="&#xca;" horiz-adv-x="690" 
d="M204 786c67 35 114 82 148 144h40c30 -58 76 -108 148 -144l-12 -24c-62 22 -101 45 -156 80c-55 -35 -94 -58 -156 -80zM62 0v32h70c18 0 24 6 24 24v600c0 18 -6 24 -24 24h-70v32h562l6 -232h-32s-10 64 -40 114c-28 49 -68 86 -120 86h-110c-18 0 -24 -6 -24 -24
v-276h51c56 0 100 80 100 138h32v-313h-32c0 59 -44 139 -100 139h-51v-288c0 -18 6 -24 24 -24h109c82 0 129 88 148 142c13 37 21 102 21 102h32l-6 -276h-570z" />
    <glyph glyph-name="Edieresis" unicode="&#xcb;" horiz-adv-x="690" 
d="M418 854c0 33 27 60 60 60s60 -27 60 -60s-27 -60 -60 -60s-60 27 -60 60zM206 854c0 33 27 60 60 60s60 -27 60 -60s-27 -60 -60 -60s-60 27 -60 60zM62 0v32h70c18 0 24 6 24 24v600c0 18 -6 24 -24 24h-70v32h562l6 -232h-32s-10 64 -40 114c-28 49 -68 86 -120 86
h-110c-18 0 -24 -6 -24 -24v-276h51c56 0 100 80 100 138h32v-313h-32c0 59 -44 139 -100 139h-51v-288c0 -18 6 -24 24 -24h109c82 0 129 88 148 142c13 37 21 102 21 102h32l-6 -276h-570z" />
    <glyph glyph-name="Igrave" unicode="&#xcc;" horiz-adv-x="440" 
d="M82 908c0 24 18 40 42 40c18 0 33 -7 49 -32l89 -138l-20 -18l-132 100c-17 13 -28 30 -28 48zM62 0v32h70c18 0 24 6 24 24v600c0 18 -6 24 -24 24h-70v32h336v-32h-70c-18 0 -24 -6 -24 -24v-600c0 -18 6 -24 24 -24h70v-32h-336z" />
    <glyph glyph-name="Iacute" unicode="&#xcd;" horiz-adv-x="440" 
d="M198 778l89 138c16 25 31 32 49 32c24 0 42 -16 42 -40c0 -18 -11 -35 -28 -48l-132 -100zM62 0v32h70c18 0 24 6 24 24v600c0 18 -6 24 -24 24h-70v32h336v-32h-70c-18 0 -24 -6 -24 -24v-600c0 -18 6 -24 24 -24h70v-32h-336z" />
    <glyph glyph-name="Icircumflex" unicode="&#xce;" horiz-adv-x="440" 
d="M62 786c67 35 114 82 148 144h40c30 -58 76 -108 148 -144l-12 -24c-62 22 -101 45 -156 80c-55 -35 -94 -58 -156 -80zM62 0v32h70c18 0 24 6 24 24v600c0 18 -6 24 -24 24h-70v32h336v-32h-70c-18 0 -24 -6 -24 -24v-600c0 -18 6 -24 24 -24h70v-32h-336z" />
    <glyph glyph-name="Idieresis" unicode="&#xcf;" horiz-adv-x="440" 
d="M276 854c0 33 27 60 60 60s60 -27 60 -60s-27 -60 -60 -60s-60 27 -60 60zM64 854c0 33 27 60 60 60s60 -27 60 -60s-27 -60 -60 -60s-60 27 -60 60zM62 0v32h70c18 0 24 6 24 24v600c0 18 -6 24 -24 24h-70v32h336v-32h-70c-18 0 -24 -6 -24 -24v-600
c0 -18 6 -24 24 -24h70v-32h-336z" />
    <glyph glyph-name="Eth" unicode="&#xd0;" horiz-adv-x="786" 
d="M62 0v32h70c18 0 24 6 24 24v300h-94v36h94v264c0 18 -6 24 -24 24h-70v32h372c166 0 302 -142 302 -350s-136 -362 -302 -362h-372zM304 56c0 -18 6 -24 24 -24h89c80 0 149 54 149 174v300c0 120 -69 174 -149 174h-89c-18 0 -24 -6 -24 -24v-264h94v-36h-94v-300z" />
    <glyph glyph-name="Ntilde" unicode="&#xd1;" horiz-adv-x="764" 
d="M270 800c0 48 34 108 88 108c33 0 54 -9 82 -21c21 -9 40 -15 64 -15s36 16 40 40h22c0 -48 -34 -108 -88 -108c-33 0 -54 9 -82 21c-21 9 -40 15 -64 15s-36 -16 -40 -40h-22zM48 0v32c72 0 126 42 126 104v427c0 15 -2 18 -11 31l-40 60c-13 19 -25 26 -57 26h-18v32
h222l320 -457v321c0 62 -54 104 -126 104v32h292v-32c-72 0 -126 -42 -126 -104v-594h-38l-374 535h-4v-381c0 -62 54 -104 126 -104v-32h-292z" />
    <glyph glyph-name="Ograve" unicode="&#xd2;" horiz-adv-x="712" 
d="M218 908c0 24 18 40 42 40c18 0 33 -7 49 -32l89 -138l-20 -18l-132 100c-17 13 -28 30 -28 48zM70 356c0 192 138 374 296 374s296 -182 296 -374s-138 -374 -296 -374s-296 182 -296 374zM240 206c0 -144 50 -192 126 -192s126 48 126 192v300c0 144 -50 192 -126 192
s-126 -48 -126 -192v-300z" />
    <glyph glyph-name="Oacute" unicode="&#xd3;" horiz-adv-x="712" 
d="M334 778l89 138c16 25 31 32 49 32c24 0 42 -16 42 -40c0 -18 -11 -35 -28 -48l-132 -100zM70 356c0 192 138 374 296 374s296 -182 296 -374s-138 -374 -296 -374s-296 182 -296 374zM240 206c0 -144 50 -192 126 -192s126 48 126 192v300c0 144 -50 192 -126 192
s-126 -48 -126 -192v-300z" />
    <glyph glyph-name="Ocircumflex" unicode="&#xd4;" horiz-adv-x="712" 
d="M198 786c67 35 114 82 148 144h40c30 -58 76 -108 148 -144l-12 -24c-62 22 -101 45 -156 80c-55 -35 -94 -58 -156 -80zM70 356c0 192 138 374 296 374s296 -182 296 -374s-138 -374 -296 -374s-296 182 -296 374zM240 206c0 -144 50 -192 126 -192s126 48 126 192v300
c0 144 -50 192 -126 192s-126 -48 -126 -192v-300z" />
    <glyph glyph-name="Otilde" unicode="&#xd5;" horiz-adv-x="712" 
d="M218 800c0 48 34 108 88 108c33 0 54 -9 82 -21c21 -9 40 -15 64 -15s36 16 40 40h22c0 -48 -34 -108 -88 -108c-33 0 -54 9 -82 21c-21 9 -40 15 -64 15s-36 -16 -40 -40h-22zM70 356c0 192 138 374 296 374s296 -182 296 -374s-138 -374 -296 -374s-296 182 -296 374z
M240 206c0 -144 50 -192 126 -192s126 48 126 192v300c0 144 -50 192 -126 192s-126 -48 -126 -192v-300z" />
    <glyph glyph-name="Odieresis" unicode="&#xd6;" horiz-adv-x="712" 
d="M412 854c0 33 27 60 60 60s60 -27 60 -60s-27 -60 -60 -60s-60 27 -60 60zM200 854c0 33 27 60 60 60s60 -27 60 -60s-27 -60 -60 -60s-60 27 -60 60zM70 356c0 192 138 374 296 374s296 -182 296 -374s-138 -374 -296 -374s-296 182 -296 374zM240 206
c0 -144 50 -192 126 -192s126 48 126 192v300c0 144 -50 192 -126 192s-126 -48 -126 -192v-300z" />
    <glyph glyph-name="multiply" unicode="&#xd7;" horiz-adv-x="940" 
d="M144 -15l280 280l-280 280l46 45l280 -280l280 280l46 -45l-280 -280l280 -280l-46 -45l-280 280l-280 -280z" />
    <glyph glyph-name="Oslash" unicode="&#xd8;" horiz-adv-x="712" 
d="M70 6l80 103c-49 68 -80 156 -80 247c0 192 138 374 296 374c71 0 139 -37 191 -96l74 96l31 -24l-80 -103c49 -68 80 -156 80 -247c0 -192 -138 -374 -296 -374c-71 0 -139 37 -191 96l-74 -96zM242 164c9 -112 56 -150 124 -150c76 0 126 48 126 192v281zM240 225
l250 323c-9 112 -56 150 -124 150c-76 0 -126 -48 -126 -192v-281z" />
    <glyph glyph-name="Ugrave" unicode="&#xd9;" horiz-adv-x="794" 
d="M282 908c0 24 18 40 42 40c18 0 33 -7 49 -32l89 -138l-20 -18l-132 100c-17 13 -28 30 -28 48zM68 680v32h324v-32h-64c-18 0 -24 -6 -24 -24v-458c0 -123 46 -176 143 -176c100 0 171 80 171 176v392c0 64 -52 90 -104 90v32h248v-32c-52 0 -104 -26 -104 -90v-382
c0 -125 -88 -226 -239 -226c-190 0 -263 126 -263 255v419c0 18 -6 24 -24 24h-64z" />
    <glyph glyph-name="Uacute" unicode="&#xda;" horiz-adv-x="794" 
d="M398 778l89 138c16 25 31 32 49 32c24 0 42 -16 42 -40c0 -18 -11 -35 -28 -48l-132 -100zM68 680v32h324v-32h-64c-18 0 -24 -6 -24 -24v-458c0 -123 46 -176 143 -176c100 0 171 80 171 176v392c0 64 -52 90 -104 90v32h248v-32c-52 0 -104 -26 -104 -90v-382
c0 -125 -88 -226 -239 -226c-190 0 -263 126 -263 255v419c0 18 -6 24 -24 24h-64z" />
    <glyph glyph-name="Ucircumflex" unicode="&#xdb;" horiz-adv-x="794" 
d="M262 786c67 35 114 82 148 144h40c30 -58 76 -108 148 -144l-12 -24c-62 22 -101 45 -156 80c-55 -35 -94 -58 -156 -80zM68 680v32h324v-32h-64c-18 0 -24 -6 -24 -24v-458c0 -123 46 -176 143 -176c100 0 171 80 171 176v392c0 64 -52 90 -104 90v32h248v-32
c-52 0 -104 -26 -104 -90v-382c0 -125 -88 -226 -239 -226c-190 0 -263 126 -263 255v419c0 18 -6 24 -24 24h-64z" />
    <glyph glyph-name="Udieresis" unicode="&#xdc;" horiz-adv-x="794" 
d="M476 854c0 33 27 60 60 60s60 -27 60 -60s-27 -60 -60 -60s-60 27 -60 60zM264 854c0 33 27 60 60 60s60 -27 60 -60s-27 -60 -60 -60s-60 27 -60 60zM68 680v32h324v-32h-64c-18 0 -24 -6 -24 -24v-458c0 -123 46 -176 143 -176c100 0 171 80 171 176v392
c0 64 -52 90 -104 90v32h248v-32c-52 0 -104 -26 -104 -90v-382c0 -125 -88 -226 -239 -226c-190 0 -263 126 -263 255v419c0 18 -6 24 -24 24h-64z" />
    <glyph glyph-name="Yacute" unicode="&#xdd;" horiz-adv-x="736" 
d="M372 778l89 138c16 25 31 32 49 32c24 0 42 -16 42 -40c0 -18 -11 -35 -28 -48l-132 -100zM46 680v32h314v-32h-28c-20 0 -28 -18 -28 -32c0 -8 2 -20 6 -28l132 -287l92 229c7 16 14 40 14 57c0 28 -14 61 -54 61h-28v32h248v-32h-30c-49 0 -78 -39 -91 -73l-135 -329
v-222c0 -18 6 -24 24 -24h64v-32h-324v32h64c18 0 24 6 24 24v213l-170 367c-16 35 -32 44 -59 44h-35z" />
    <glyph glyph-name="Thorn" unicode="&#xde;" horiz-adv-x="702" 
d="M62 0v32h70c18 0 24 6 24 24v600c0 18 -6 24 -24 24h-70v32h354v-32h-88c-18 0 -24 -6 -24 -24v-70h114c142 0 240 -76 240 -186s-98 -190 -240 -190h-114v-154c0 -18 6 -24 24 -24h88v-32h-354zM304 242h99c75 0 95 70 95 158s-20 154 -95 154h-75c-18 0 -24 -6 -24 -24
v-288z" />
    <glyph glyph-name="germandbls" unicode="&#xdf;" horiz-adv-x="556" 
d="M22 0v24h56c12 0 16 4 16 16v416c0 191 100 262 197 262c107 0 161 -68 161 -142c0 -88 -60 -130 -125 -143v-5c89 -23 181 -84 181 -228c0 -118 -60 -212 -170 -212c-67 0 -116 39 -116 96c0 40 31 64 60 64c32 0 46 -24 46 -46c0 -14 -9 -27 -17 -35
c-9 -9 -13 -17 -13 -27c0 -24 19 -28 37 -28c32 0 45 59 45 194c0 133 -18 209 -94 209h-35v29h35c53 0 56 64 56 136c0 64 -12 114 -60 114c-39 0 -72 -37 -72 -181v-513h-188z" />
    <glyph glyph-name="agrave" unicode="&#xe0;" horiz-adv-x="508" 
d="M96 672c0 24 18 40 42 40c18 0 33 -7 49 -32l89 -138l-20 -18l-132 100c-17 13 -28 30 -28 48zM168 115c0 -74 37 -87 59 -87c26 0 47 16 61 44v198l-56 -20c-45 -16 -64 -61 -64 -135zM46 106c0 98 96 140 168 165l74 26v68c0 73 -36 97 -75 97c-34 0 -69 -16 -69 -47
c0 -6 3 -20 16 -29c18 -11 28 -22 28 -45c0 -35 -31 -51 -56 -51c-31 0 -63 21 -63 68c0 81 84 128 155 128c82 0 180 -39 180 -161v-253c0 -25 7 -36 20 -36c26 0 36 54 36 99h28c0 -36 -3 -78 -22 -107c-14 -22 -41 -40 -77 -40c-57 0 -79 18 -97 54h-2
c-22 -30 -58 -54 -112 -54c-62 0 -132 25 -132 118z" />
    <glyph glyph-name="aacute" unicode="&#xe1;" horiz-adv-x="508" 
d="M188 542l89 138c16 25 31 32 49 32c24 0 42 -16 42 -40c0 -18 -11 -35 -28 -48l-132 -100zM168 115c0 -74 37 -87 59 -87c26 0 47 16 61 44v198l-56 -20c-45 -16 -64 -61 -64 -135zM46 106c0 98 96 140 168 165l74 26v68c0 73 -36 97 -75 97c-34 0 -69 -16 -69 -47
c0 -6 3 -20 16 -29c18 -11 28 -22 28 -45c0 -35 -31 -51 -56 -51c-31 0 -63 21 -63 68c0 81 84 128 155 128c82 0 180 -39 180 -161v-253c0 -25 7 -36 20 -36c26 0 36 54 36 99h28c0 -36 -3 -78 -22 -107c-14 -22 -41 -40 -77 -40c-57 0 -79 18 -97 54h-2
c-22 -30 -58 -54 -112 -54c-62 0 -132 25 -132 118z" />
    <glyph glyph-name="acircumflex" unicode="&#xe2;" horiz-adv-x="508" 
d="M82 548c75 49 100 114 116 160h68c16 -46 41 -111 116 -160l-16 -24c-46 22 -102 62 -134 96c-32 -34 -88 -74 -134 -96zM168 115c0 -74 37 -87 59 -87c26 0 47 16 61 44v198l-56 -20c-45 -16 -64 -61 -64 -135zM46 106c0 98 96 140 168 165l74 26v68c0 73 -36 97 -75 97
c-34 0 -69 -16 -69 -47c0 -6 3 -20 16 -29c18 -11 28 -22 28 -45c0 -35 -31 -51 -56 -51c-31 0 -63 21 -63 68c0 81 84 128 155 128c82 0 180 -39 180 -161v-253c0 -25 7 -36 20 -36c26 0 36 54 36 99h28c0 -36 -3 -78 -22 -107c-14 -22 -41 -40 -77 -40
c-57 0 -79 18 -97 54h-2c-22 -30 -58 -54 -112 -54c-62 0 -132 25 -132 118z" />
    <glyph glyph-name="atilde" unicode="&#xe3;" horiz-adv-x="508" 
d="M84 564c0 48 34 108 88 108c33 0 54 -9 82 -21c21 -9 40 -15 64 -15s36 16 40 40h22c0 -48 -34 -108 -88 -108c-33 0 -54 9 -82 21c-21 9 -40 15 -64 15s-36 -16 -40 -40h-22zM168 115c0 -74 37 -87 59 -87c26 0 47 16 61 44v198l-56 -20c-45 -16 -64 -61 -64 -135z
M46 106c0 98 96 140 168 165l74 26v68c0 73 -36 97 -75 97c-34 0 -69 -16 -69 -47c0 -6 3 -20 16 -29c18 -11 28 -22 28 -45c0 -35 -31 -51 -56 -51c-31 0 -63 21 -63 68c0 81 84 128 155 128c82 0 180 -39 180 -161v-253c0 -25 7 -36 20 -36c26 0 36 54 36 99h28
c0 -36 -3 -78 -22 -107c-14 -22 -41 -40 -77 -40c-57 0 -79 18 -97 54h-2c-22 -30 -58 -54 -112 -54c-62 0 -132 25 -132 118z" />
    <glyph glyph-name="adieresis" unicode="&#xe4;" horiz-adv-x="508" 
d="M268.001 618c0 33 27 60 60 60s60 -27 60 -60s-27 -60 -60 -60s-60 27 -60 60zM76 618c0 33 27 60 60 60s60 -27 60 -60s-27 -60 -60 -60s-60 27 -60 60zM168 115c0 -74 37 -87 59 -87c26 0 47 16 61 44v198l-56 -20c-45 -16 -64 -61 -64 -135zM46 106
c0 98 96 140 168 165l74 26v68c0 73 -36 97 -75 97c-34 0 -69 -16 -69 -47c0 -6 3 -20 16 -29c18 -11 28 -22 28 -45c0 -35 -31 -51 -56 -51c-31 0 -63 21 -63 68c0 81 84 128 155 128c82 0 180 -39 180 -161v-253c0 -25 7 -36 20 -36c26 0 36 54 36 99h28
c0 -36 -3 -78 -22 -107c-14 -22 -41 -40 -77 -40c-57 0 -79 18 -97 54h-2c-22 -30 -58 -54 -112 -54c-62 0 -132 25 -132 118z" />
    <glyph glyph-name="aring" unicode="&#xe5;" horiz-adv-x="508" 
d="M125 623c0 60 47 107 107 107s107 -47 107 -107s-47 -107 -107 -107s-107 47 -107 107zM169 623c0 -38 25 -63 63 -63s63 25 63 63s-25 63 -63 63s-63 -25 -63 -63zM168 115c0 -74 37 -87 59 -87c26 0 47 16 61 44v198l-56 -20c-45 -16 -64 -61 -64 -135zM46 106
c0 98 96 140 168 165l74 26v68c0 73 -36 97 -75 97c-34 0 -69 -16 -69 -47c0 -6 3 -20 16 -29c18 -11 28 -22 28 -45c0 -35 -31 -51 -56 -51c-31 0 -63 21 -63 68c0 81 84 128 155 128c82 0 180 -39 180 -161v-253c0 -25 7 -36 20 -36c26 0 36 54 36 99h28
c0 -36 -3 -78 -22 -107c-14 -22 -41 -40 -77 -40c-57 0 -79 18 -97 54h-2c-22 -30 -58 -54 -112 -54c-62 0 -132 25 -132 118z" />
    <glyph glyph-name="ccedilla" unicode="&#xe7;" horiz-adv-x="468" 
d="M156 -143c0 20 11 32 29 32c23 0 27 -18 31 -37c5 -24 20 -38 49 -38c31 0 47 21 47 46c0 23 -14 42 -48 42h-47l14 88c-111 16 -183 121 -183 247c0 137 85 249 211 249c101 0 145 -73 145 -135c0 -48 -34 -89 -75 -89c-29 0 -53 18 -53 50c0 27 22 45 32 53
c12 10 24 24 24 41c0 22 -14 56 -65 56c-66 0 -91 -92 -91 -225c0 -56 0 -99 11 -138c12 -49 49 -81 94 -81c71 0 108 76 115 144h26c-7 -74 -47 -174 -161 -174h-6l-4 -30h25c48 0 84 -32 84 -75c0 -45 -29 -91 -109 -91c-40 0 -95 20 -95 65z" />
    <glyph glyph-name="egrave" unicode="&#xe8;" horiz-adv-x="472" 
d="M104 672c0 24 18 40 42 40c18 0 33 -7 49 -32l89 -138l-20 -18l-132 100c-17 13 -28 30 -28 48zM48 237c0 144 91 249 202 249c82 0 144 -64 163 -158c7 -32 7 -88 7 -100h-244c0 -51 0 -90 11 -129c12 -49 49 -81 94 -81c71 0 108 76 115 144h26
c-7 -74 -47 -174 -161 -174c-128 0 -213 112 -213 249zM176 256h128c0 130 -12 206 -64 206s-64 -76 -64 -206z" />
    <glyph glyph-name="eacute" unicode="&#xe9;" horiz-adv-x="472" 
d="M196 542l89 138c16 25 31 32 49 32c24 0 42 -16 42 -40c0 -18 -11 -35 -28 -48l-132 -100zM48 237c0 144 91 249 202 249c82 0 144 -64 163 -158c7 -32 7 -88 7 -100h-244c0 -51 0 -90 11 -129c12 -49 49 -81 94 -81c71 0 108 76 115 144h26c-7 -74 -47 -174 -161 -174
c-128 0 -213 112 -213 249zM176 256h128c0 130 -12 206 -64 206s-64 -76 -64 -206z" />
    <glyph glyph-name="ecircumflex" unicode="&#xea;" horiz-adv-x="472" 
d="M90 548c75 49 100 114 116 160h68c16 -46 41 -111 116 -160l-16 -24c-46 22 -102 62 -134 96c-32 -34 -88 -74 -134 -96zM48 237c0 144 91 249 202 249c82 0 144 -64 163 -158c7 -32 7 -88 7 -100h-244c0 -51 0 -90 11 -129c12 -49 49 -81 94 -81c71 0 108 76 115 144h26
c-7 -74 -47 -174 -161 -174c-128 0 -213 112 -213 249zM176 256h128c0 130 -12 206 -64 206s-64 -76 -64 -206z" />
    <glyph glyph-name="edieresis" unicode="&#xeb;" horiz-adv-x="472" 
d="M276.001 618c0 33 27 60 60 60s60 -27 60 -60s-27 -60 -60 -60s-60 27 -60 60zM84 618c0 33 27 60 60 60s60 -27 60 -60s-27 -60 -60 -60s-60 27 -60 60zM48 237c0 144 91 249 202 249c82 0 144 -64 163 -158c7 -32 7 -88 7 -100h-244c0 -51 0 -90 11 -129
c12 -49 49 -81 94 -81c71 0 108 76 115 144h26c-7 -74 -47 -174 -161 -174c-128 0 -213 112 -213 249zM176 256h128c0 130 -12 206 -64 206s-64 -76 -64 -206z" />
    <glyph glyph-name="igrave" unicode="&#xec;" horiz-adv-x="296" 
d="M12 672c0 24 18 40 42 40c18 0 33 -7 49 -32l89 -138l-20 -18l-132 100c-17 13 -28 30 -28 48zM40 0v24h38c12 0 16 4 16 16v394c0 12 -4 16 -16 16h-38v24h170v-434c0 -12 4 -16 16 -16h38v-24h-224z" />
    <glyph glyph-name="iacute" unicode="&#xed;" horiz-adv-x="296" 
d="M104 542l89 138c16 25 31 32 49 32c24 0 42 -16 42 -40c0 -18 -11 -35 -28 -48l-132 -100zM40 0v24h38c12 0 16 4 16 16v394c0 12 -4 16 -16 16h-38v24h170v-434c0 -12 4 -16 16 -16h38v-24h-224z" />
    <glyph glyph-name="icircumflex" unicode="&#xee;" horiz-adv-x="296" 
d="M-2 548c75 49 100 114 116 160h68c16 -46 41 -111 116 -160l-16 -24c-46 22 -102 62 -134 96c-32 -34 -88 -74 -134 -96zM40 0v24h38c12 0 16 4 16 16v394c0 12 -4 16 -16 16h-38v24h170v-434c0 -12 4 -16 16 -16h38v-24h-224z" />
    <glyph glyph-name="idieresis" unicode="&#xef;" horiz-adv-x="296" 
d="M170.001 618c0 33 27 60 60 60s60 -27 60 -60s-27 -60 -60 -60s-60 27 -60 60zM6 618c0 33 27 60 60 60s60 -27 60 -60s-27 -60 -60 -60s-60 27 -60 60zM40 0v24h38c12 0 16 4 16 16v394c0 12 -4 16 -16 16h-38v24h170v-434c0 -12 4 -16 16 -16h38v-24h-224z" />
    <glyph glyph-name="eth" unicode="&#xf0;" horiz-adv-x="510" 
d="M48 237c0 140 89 249 194 249c16 0 26 -1 40 -5l5 5c-19 34 -41 67 -65 99l-94 -55l-14 24l91 54c-25 31 -51 61 -78 87v17h120c18 -19 33 -36 47 -52l96 56l14 -24l-92 -54c27 -35 49 -69 76 -112c54 -86 74 -189 74 -283c0 -169 -95 -255 -207 -255
c-116 0 -207 109 -207 249zM176 237c0 -166 29 -225 79 -225s79 59 79 225s-29 225 -79 225s-79 -59 -79 -225z" />
    <glyph glyph-name="ntilde" unicode="&#xf1;" horiz-adv-x="556" 
d="M130 564c0 48 34 108 88 108c33 0 54 -9 82 -21c21 -9 40 -15 64 -15s36 16 40 40h22c0 -48 -34 -108 -88 -108c-33 0 -54 9 -82 21c-21 9 -40 15 -64 15s-36 -16 -40 -40h-22zM40 0v24h38c12 0 16 4 16 16v394c0 12 -4 16 -16 16h-38v24h170v-89l5 -1
c25 58 66 102 124 102c34 0 56 -7 77 -22c34 -25 54 -72 54 -116v-308c0 -12 4 -16 16 -16h38v-24h-218v24h32c12 0 16 4 16 16v337c0 41 -9 77 -46 77c-41 0 -98 -91 -98 -200v-214c0 -12 4 -16 16 -16h32v-24h-218z" />
    <glyph glyph-name="ograve" unicode="&#xf2;" horiz-adv-x="504" 
d="M116 672c0 24 18 40 42 40c18 0 33 -7 49 -32l89 -138l-20 -18l-132 100c-17 13 -28 30 -28 48zM176 237c0 -152 16 -225 76 -225s76 73 76 225s-16 225 -76 225s-76 -73 -76 -225zM48 237c0 144 96 249 204 249s204 -105 204 -249s-96 -249 -204 -249s-204 105 -204 249
z" />
    <glyph glyph-name="oacute" unicode="&#xf3;" horiz-adv-x="504" 
d="M208 542l89 138c16 25 31 32 49 32c24 0 42 -16 42 -40c0 -18 -11 -35 -28 -48l-132 -100zM176 237c0 -152 16 -225 76 -225s76 73 76 225s-16 225 -76 225s-76 -73 -76 -225zM48 237c0 144 96 249 204 249s204 -105 204 -249s-96 -249 -204 -249s-204 105 -204 249z" />
    <glyph glyph-name="ocircumflex" unicode="&#xf4;" horiz-adv-x="504" 
d="M102 548c75 49 100 114 116 160h68c16 -46 41 -111 116 -160l-16 -24c-46 22 -102 62 -134 96c-32 -34 -88 -74 -134 -96zM176 237c0 -152 16 -225 76 -225s76 73 76 225s-16 225 -76 225s-76 -73 -76 -225zM48 237c0 144 96 249 204 249s204 -105 204 -249
s-96 -249 -204 -249s-204 105 -204 249z" />
    <glyph glyph-name="otilde" unicode="&#xf5;" horiz-adv-x="504" 
d="M104 564c0 48 34 108 88 108c33 0 54 -9 82 -21c21 -9 40 -15 64 -15s36 16 40 40h22c0 -48 -34 -108 -88 -108c-33 0 -54 9 -82 21c-21 9 -40 15 -64 15s-36 -16 -40 -40h-22zM176 237c0 -152 16 -225 76 -225s76 73 76 225s-16 225 -76 225s-76 -73 -76 -225zM48 237
c0 144 96 249 204 249s204 -105 204 -249s-96 -249 -204 -249s-204 105 -204 249z" />
    <glyph glyph-name="odieresis" unicode="&#xf6;" horiz-adv-x="504" 
d="M288.001 618c0 33 27 60 60 60s60 -27 60 -60s-27 -60 -60 -60s-60 27 -60 60zM96 618c0 33 27 60 60 60s60 -27 60 -60s-27 -60 -60 -60s-60 27 -60 60zM176 237c0 -152 16 -225 76 -225s76 73 76 225s-16 225 -76 225s-76 -73 -76 -225zM48 237c0 144 96 249 204 249
s204 -105 204 -249s-96 -249 -204 -249s-204 105 -204 249z" />
    <glyph glyph-name="divide" unicode="&#xf7;" horiz-adv-x="940" 
d="M392 528c0 45 33 78 78 78s78 -33 78 -78s-33 -78 -78 -78s-78 33 -78 78zM392 12c0 45 33 78 78 78s78 -33 78 -78s-33 -78 -78 -78s-78 33 -78 78zM42 240v64h856v-64h-856z" />
    <glyph glyph-name="oslash" unicode="&#xf8;" horiz-adv-x="504" 
d="M48 6l52 65c-32 43 -52 100 -52 166c0 144 96 249 204 249c50 0 97 -22 133 -60l49 60l22 -18l-52 -65c32 -43 52 -100 52 -166c0 -144 -96 -249 -204 -249c-50 0 -97 22 -133 60l-49 -60zM180 125c8 -76 29 -113 72 -113c60 0 76 73 76 225c0 26 0 49 -1 70zM176 237
c0 -26 0 -49 1 -70l146 181c-8 77 -28 114 -71 114c-61 0 -76 -73 -76 -225z" />
    <glyph glyph-name="ugrave" unicode="&#xf9;" horiz-adv-x="550" 
d="M122 672c0 24 18 40 42 40c18 0 33 -7 49 -32l89 -138l-20 -18l-132 100c-17 13 -28 30 -28 48zM24 450v24h180v-377c0 -41 9 -77 46 -77c41 0 98 91 98 200v214c0 12 -4 16 -16 16h-48v24h180v-434c0 -12 4 -16 16 -16h38v-24h-170v89l-5 1c-25 -58 -66 -102 -124 -102
c-34 0 -56 7 -77 22c-34 25 -54 72 -54 116v308c0 12 -4 16 -16 16h-48z" />
    <glyph glyph-name="uacute" unicode="&#xfa;" horiz-adv-x="550" 
d="M214 542l89 138c16 25 31 32 49 32c24 0 42 -16 42 -40c0 -18 -11 -35 -28 -48l-132 -100zM24 450v24h180v-377c0 -41 9 -77 46 -77c41 0 98 91 98 200v214c0 12 -4 16 -16 16h-48v24h180v-434c0 -12 4 -16 16 -16h38v-24h-170v89l-5 1c-25 -58 -66 -102 -124 -102
c-34 0 -56 7 -77 22c-34 25 -54 72 -54 116v308c0 12 -4 16 -16 16h-48z" />
    <glyph glyph-name="ucircumflex" unicode="&#xfb;" horiz-adv-x="550" 
d="M108 548c75 49 100 114 116 160h68c16 -46 41 -111 116 -160l-16 -24c-46 22 -102 62 -134 96c-32 -34 -88 -74 -134 -96zM24 450v24h180v-377c0 -41 9 -77 46 -77c41 0 98 91 98 200v214c0 12 -4 16 -16 16h-48v24h180v-434c0 -12 4 -16 16 -16h38v-24h-170v89l-5 1
c-25 -58 -66 -102 -124 -102c-34 0 -56 7 -77 22c-34 25 -54 72 -54 116v308c0 12 -4 16 -16 16h-48z" />
    <glyph glyph-name="udieresis" unicode="&#xfc;" horiz-adv-x="550" 
d="M294.001 618c0 33 27 60 60 60s60 -27 60 -60s-27 -60 -60 -60s-60 27 -60 60zM102 618c0 33 27 60 60 60s60 -27 60 -60s-27 -60 -60 -60s-60 27 -60 60zM24 450v24h180v-377c0 -41 9 -77 46 -77c41 0 98 91 98 200v214c0 12 -4 16 -16 16h-48v24h180v-434
c0 -12 4 -16 16 -16h38v-24h-170v89l-5 1c-25 -58 -66 -102 -124 -102c-34 0 -56 7 -77 22c-34 25 -54 72 -54 116v308c0 12 -4 16 -16 16h-48z" />
    <glyph glyph-name="yacute" unicode="&#xfd;" horiz-adv-x="524" 
d="M226 542l89 138c16 25 31 32 49 32c24 0 42 -16 42 -40c0 -18 -11 -35 -28 -48l-132 -100zM12 450v24h245v-24h-29c-11 0 -24 -9 -24 -26c0 -6 2 -16 7 -28l103 -247l65 219c4 16 7 28 7 44c0 18 -10 38 -31 38h-26v24h165v-24h-22c-22 0 -47 -19 -60 -62l-152 -505
c-17 -58 -48 -121 -109 -121c-56 0 -91 38 -91 91c0 43 30 83 74 83c33 0 55 -23 55 -50c0 -18 -10 -34 -19 -42c-7 -6 -14 -14 -14 -26c0 -10 6 -24 23 -24c26 0 41 45 50 74l33 110l-173 414c-16 38 -26 58 -62 58h-15z" />
    <glyph glyph-name="thorn" unicode="&#xfe;" horiz-adv-x="524" 
d="M208 45c34 18 42 23 70 49c43 41 78 117 78 272c0 56 -18 76 -45 76c-36 0 -103 -61 -103 -189v-208zM20 -209l60 31c7 4 12 12 12 28v734c0 12 -3 18 -10 18c-2 0 -5 -1 -11 -4l-36 -19l-15 29l144 76h44v-287l5 -2c47 73 99 91 151 91c63 0 114 -45 114 -128
c0 -82 -60 -189 -155 -267c-42 -35 -77 -54 -115 -73v-167l-173 -89z" />
    <glyph glyph-name="ydieresis" unicode="&#xff;" horiz-adv-x="524" 
d="M306.001 618c0 33 27 60 60 60s60 -27 60 -60s-27 -60 -60 -60s-60 27 -60 60zM114 618c0 33 27 60 60 60s60 -27 60 -60s-27 -60 -60 -60s-60 27 -60 60zM12 450v24h245v-24h-29c-11 0 -24 -9 -24 -26c0 -6 2 -16 7 -28l103 -247l65 219c4 16 7 28 7 44
c0 18 -10 38 -31 38h-26v24h165v-24h-22c-22 0 -47 -19 -60 -62l-152 -505c-17 -58 -48 -121 -109 -121c-56 0 -91 38 -91 91c0 43 30 83 74 83c33 0 55 -23 55 -50c0 -18 -10 -34 -19 -42c-7 -6 -14 -14 -14 -26c0 -10 6 -24 23 -24c26 0 41 45 50 74l33 110l-173 414
c-16 38 -26 58 -62 58h-15z" />
    <glyph glyph-name="Amacron" unicode="&#x100;" horiz-adv-x="754" 
d="M248 810v64h296v-64h-296zM245 226h185l-91 275zM44 0v32h34c43 0 74 41 88 81l211 617h42l214 -647c12 -35 33 -51 59 -51h40v-32h-351v32h72c16 0 27 15 27 32c0 6 -3 20 -6 29l-32 96h-210l-21 -61c-7 -18 -11 -38 -11 -51c0 -22 19 -45 52 -45h47v-32h-255z" />
    <glyph glyph-name="amacron" unicode="&#x101;" horiz-adv-x="508" 
d="M102 584v64h260v-64h-260zM168 115c0 -74 37 -87 59 -87c26 0 47 16 61 44v198l-56 -20c-45 -16 -64 -61 -64 -135zM46 106c0 98 96 140 168 165l74 26v68c0 73 -36 97 -75 97c-34 0 -69 -16 -69 -47c0 -6 3 -20 16 -29c18 -11 28 -22 28 -45c0 -35 -31 -51 -56 -51
c-31 0 -63 21 -63 68c0 81 84 128 155 128c82 0 180 -39 180 -161v-253c0 -25 7 -36 20 -36c26 0 36 54 36 99h28c0 -36 -3 -78 -22 -107c-14 -22 -41 -40 -77 -40c-57 0 -79 18 -97 54h-2c-22 -30 -58 -54 -112 -54c-62 0 -132 25 -132 118z" />
    <glyph glyph-name="Abreve" unicode="&#x102;" horiz-adv-x="754" 
d="M241 916h32c12 -56 49 -90 123 -90s111 34 123 90h32c0 -60 -49 -154 -155 -154s-155 94 -155 154zM245 226h185l-91 275zM44 0v32h34c43 0 74 41 88 81l211 617h42l214 -647c12 -35 33 -51 59 -51h40v-32h-351v32h72c16 0 27 15 27 32c0 6 -3 20 -6 29l-32 96h-210
l-21 -61c-7 -18 -11 -38 -11 -51c0 -22 19 -45 52 -45h47v-32h-255z" />
    <glyph glyph-name="abreve" unicode="&#x103;" horiz-adv-x="508" 
d="M92 694h28c10 -52 48 -86 112 -86s102 34 112 86h28c-8 -88 -58 -154 -140 -154s-132 66 -140 154zM168 115c0 -74 37 -87 59 -87c26 0 47 16 61 44v198l-56 -20c-45 -16 -64 -61 -64 -135zM46 106c0 98 96 140 168 165l74 26v68c0 73 -36 97 -75 97
c-34 0 -69 -16 -69 -47c0 -6 3 -20 16 -29c18 -11 28 -22 28 -45c0 -35 -31 -51 -56 -51c-31 0 -63 21 -63 68c0 81 84 128 155 128c82 0 180 -39 180 -161v-253c0 -25 7 -36 20 -36c26 0 36 54 36 99h28c0 -36 -3 -78 -22 -107c-14 -22 -41 -40 -77 -40
c-57 0 -79 18 -97 54h-2c-22 -30 -58 -54 -112 -54c-62 0 -132 25 -132 118z" />
    <glyph glyph-name="Aogonek" unicode="&#x104;" horiz-adv-x="754" 
d="M245 226h185l-91 275zM44 0v32h34c43 0 74 41 88 81l211 617h42l214 -647c12 -35 33 -51 59 -51h40v-32h-108c-58 -34 -88 -74 -88 -133c0 -31 16 -51 44 -51c31 0 48 11 64 27l19 -19c-21 -30 -54 -62 -108 -62c-59 0 -99 40 -99 94c0 65 51 109 112 140l-2 4h-185v32
h72c16 0 27 15 27 32c0 6 -3 20 -6 29l-32 96h-210l-21 -61c-7 -18 -11 -38 -11 -51c0 -22 19 -45 52 -45h47v-32h-255z" />
    <glyph glyph-name="aogonek" unicode="&#x105;" horiz-adv-x="508" 
d="M42 106c0 98 96 140 168 165l74 26v68c0 73 -36 97 -75 97c-34 0 -69 -16 -69 -47c0 -6 3 -20 16 -29c18 -11 28 -22 28 -45c0 -35 -31 -51 -56 -51c-31 0 -63 21 -63 68c0 81 84 128 155 128c82 0 180 -39 180 -161v-253c0 -25 7 -36 20 -36c26 0 36 54 36 99h28
c0 -36 -3 -78 -22 -107c-17 -25 -36 -33 -58 -41c-29 -11 -70 -49 -70 -110c0 -27 18 -41 42 -41c26 0 38 12 52 32l20 -14c-18 -41 -56 -74 -99 -74s-83 30 -83 78c0 52 43 94 93 128l-1 4c-38 5 -55 22 -70 52h-2c-22 -30 -58 -54 -112 -54c-62 0 -132 25 -132 118z
M164 115c0 -74 37 -87 59 -87c26 0 47 16 61 44v198l-56 -20c-45 -16 -64 -61 -64 -135z" />
    <glyph glyph-name="Cacute" unicode="&#x106;" horiz-adv-x="660" 
d="M316 778l89 138c16 25 31 32 49 32c24 0 42 -16 42 -40c0 -18 -11 -35 -28 -48l-132 -100zM70 356c0 200 104 374 280 374c54 0 95 -22 135 -49c14 -9 26 -15 34 -15c12 0 17 8 22 19l18 37h33v-307h-32c-30 171 -110 283 -210 283c-56 0 -110 -48 -110 -192v-300
c0 -144 64 -192 120 -192c94 0 147 53 177 109c24 45 34 105 39 152h36c-4 -55 -17 -119 -41 -166c-40 -78 -111 -127 -211 -127c-194 0 -290 186 -290 374z" />
    <glyph glyph-name="cacute" unicode="&#x107;" horiz-adv-x="468" 
d="M204 542l89 138c16 25 31 32 49 32c24 0 42 -16 42 -40c0 -18 -11 -35 -28 -48l-132 -100zM48 237c0 137 85 249 211 249c101 0 145 -73 145 -135c0 -48 -34 -89 -75 -89c-29 0 -53 18 -53 50c0 27 22 45 32 53c12 10 24 24 24 41c0 22 -14 56 -65 56
c-66 0 -91 -92 -91 -225c0 -56 0 -99 11 -138c12 -49 49 -81 94 -81c71 0 108 76 115 144h26c-7 -74 -47 -174 -161 -174c-128 0 -213 112 -213 249z" />
    <glyph glyph-name="Ccircumflex" unicode="&#x108;" horiz-adv-x="660" 
d="M180 786c67 35 114 82 148 144h40c30 -58 76 -108 148 -144l-12 -24c-62 22 -101 45 -156 80c-55 -35 -94 -58 -156 -80zM70 356c0 200 104 374 280 374c54 0 95 -22 135 -49c14 -9 26 -15 34 -15c12 0 17 8 22 19l18 37h33v-307h-32c-30 171 -110 283 -210 283
c-56 0 -110 -48 -110 -192v-300c0 -144 64 -192 120 -192c94 0 147 53 177 109c24 45 34 105 39 152h36c-4 -55 -17 -119 -41 -166c-40 -78 -111 -127 -211 -127c-194 0 -290 186 -290 374z" />
    <glyph glyph-name="ccircumflex" unicode="&#x109;" horiz-adv-x="468" 
d="M98 548c75 49 100 114 116 160h68c16 -46 41 -111 116 -160l-16 -24c-46 22 -102 62 -134 96c-32 -34 -88 -74 -134 -96zM48 237c0 137 85 249 211 249c101 0 145 -73 145 -135c0 -48 -34 -89 -75 -89c-29 0 -53 18 -53 50c0 27 22 45 32 53c12 10 24 24 24 41
c0 22 -14 56 -65 56c-66 0 -91 -92 -91 -225c0 -56 0 -99 11 -138c12 -49 49 -81 94 -81c71 0 108 76 115 144h26c-7 -74 -47 -174 -161 -174c-128 0 -213 112 -213 249z" />
    <glyph glyph-name="Cdotaccent" unicode="&#x10a;" horiz-adv-x="660" 
d="M280 854c0 40 28 68 68 68s68 -28 68 -68s-28 -68 -68 -68s-68 28 -68 68zM70 356c0 200 104 374 280 374c54 0 95 -22 135 -49c14 -9 26 -15 34 -15c12 0 17 8 22 19l18 37h33v-307h-32c-30 171 -110 283 -210 283c-56 0 -110 -48 -110 -192v-300
c0 -144 64 -192 120 -192c94 0 147 53 177 109c24 45 34 105 39 152h36c-4 -55 -17 -119 -41 -166c-40 -78 -111 -127 -211 -127c-194 0 -290 186 -290 374z" />
    <glyph glyph-name="cdotaccent" unicode="&#x10b;" horiz-adv-x="468" 
d="M174 618c0 42 32 74 74 74s74 -32 74 -74s-32 -74 -74 -74s-74 32 -74 74zM48 237c0 137 85 249 211 249c101 0 145 -73 145 -135c0 -48 -34 -89 -75 -89c-29 0 -53 18 -53 50c0 27 22 45 32 53c12 10 24 24 24 41c0 22 -14 56 -65 56c-66 0 -91 -92 -91 -225
c0 -56 0 -99 11 -138c12 -49 49 -81 94 -81c71 0 108 76 115 144h26c-7 -74 -47 -174 -161 -174c-128 0 -213 112 -213 249z" />
    <glyph glyph-name="Ccaron" unicode="&#x10c;" horiz-adv-x="660" 
d="M184 898l16 22l148 -86l148 86l16 -22l-140 -136h-48zM70 356c0 200 104 374 280 374c54 0 95 -22 135 -49c14 -9 26 -15 34 -15c12 0 17 8 22 19l18 37h33v-307h-32c-30 171 -110 283 -210 283c-56 0 -110 -48 -110 -192v-300c0 -144 64 -192 120 -192
c94 0 147 53 177 109c24 45 34 105 39 152h36c-4 -55 -17 -119 -41 -166c-40 -78 -111 -127 -211 -127c-194 0 -290 186 -290 374z" />
    <glyph glyph-name="ccaron" unicode="&#x10d;" horiz-adv-x="468" 
d="M102 678l16 16l130 -98l130 98l16 -16l-122 -154h-48zM48 237c0 137 85 249 211 249c101 0 145 -73 145 -135c0 -48 -34 -89 -75 -89c-29 0 -53 18 -53 50c0 27 22 45 32 53c12 10 24 24 24 41c0 22 -14 56 -65 56c-66 0 -91 -92 -91 -225c0 -56 0 -99 11 -138
c12 -49 49 -81 94 -81c71 0 108 76 115 144h26c-7 -74 -47 -174 -161 -174c-128 0 -213 112 -213 249z" />
    <glyph glyph-name="Dcaron" unicode="&#x10e;" horiz-adv-x="786" 
d="M188 898l16 22l148 -86l148 86l16 -22l-140 -136h-48zM304 56c0 -18 6 -24 24 -24h89c80 0 149 54 149 174v300c0 120 -69 174 -149 174h-89c-18 0 -24 -6 -24 -24v-600zM62 0v32h70c18 0 24 6 24 24v600c0 18 -6 24 -24 24h-70v32h372c166 0 302 -142 302 -350
s-136 -362 -302 -362h-372z" />
    <glyph glyph-name="dcaron" unicode="&#x10f;" horiz-adv-x="590" 
d="M478 681c0 24 21 49 56 49c38 0 72 -34 72 -84c0 -70 -50 -126 -113 -156l-13 19c47 25 82 58 82 96c0 7 -2 14 -8 19c-5 4 -12 8 -25 8c-25 0 -51 16 -51 49zM176 237c0 -128 18 -217 66 -217c46 0 86 94 86 214c0 156 -54 220 -86 220c-48 0 -66 -89 -66 -217zM48 237
c0 126 69 249 176 249c45 0 78 -30 98 -71l6 2v255c0 12 -4 16 -16 16h-56v24h188v-672c0 -12 4 -16 16 -16h56v-24h-188v58h-6c-15 -32 -47 -70 -94 -70c-107 0 -180 123 -180 249z" />
    <glyph glyph-name="Dcroat" unicode="&#x110;" horiz-adv-x="786" 
d="M62 0v32h70c18 0 24 6 24 24v300h-94v36h94v264c0 18 -6 24 -24 24h-70v32h372c166 0 302 -142 302 -350s-136 -362 -302 -362h-372zM304 56c0 -18 6 -24 24 -24h89c80 0 149 54 149 174v300c0 120 -69 174 -149 174h-89c-18 0 -24 -6 -24 -24v-264h94v-36h-94v-300z" />
    <glyph glyph-name="dcroat" unicode="&#x111;" horiz-adv-x="538" 
d="M48 237c0 126 69 249 176 249c45 0 78 -30 98 -71l6 2v147h-168v28h168v80c0 12 -4 16 -16 16h-56v24h188v-120h72v-28h-72v-524c0 -12 4 -16 16 -16h56v-24h-188v58h-6c-15 -32 -47 -70 -94 -70c-107 0 -180 123 -180 249zM176 237c0 -128 18 -217 66 -217
c46 0 86 94 86 214c0 156 -54 220 -86 220c-48 0 -66 -89 -66 -217z" />
    <glyph glyph-name="Emacron" unicode="&#x112;" horiz-adv-x="690" 
d="M224 810v64h296v-64h-296zM62 0v32h70c18 0 24 6 24 24v600c0 18 -6 24 -24 24h-70v32h562l6 -232h-32s-10 64 -40 114c-28 49 -68 86 -120 86h-110c-18 0 -24 -6 -24 -24v-276h51c56 0 100 80 100 138h32v-313h-32c0 59 -44 139 -100 139h-51v-288c0 -18 6 -24 24 -24
h109c82 0 129 88 148 142c13 37 21 102 21 102h32l-6 -276h-570z" />
    <glyph glyph-name="emacron" unicode="&#x113;" horiz-adv-x="472" 
d="M110 584v64h260v-64h-260zM48 237c0 144 91 249 202 249c82 0 144 -64 163 -158c7 -32 7 -88 7 -100h-244c0 -51 0 -90 11 -129c12 -49 49 -81 94 -81c71 0 108 76 115 144h26c-7 -74 -47 -174 -161 -174c-128 0 -213 112 -213 249zM176 256h128c0 130 -12 206 -64 206
s-64 -76 -64 -206z" />
    <glyph glyph-name="Ebreve" unicode="&#x114;" horiz-adv-x="690" 
d="M217 916h32c12 -56 49 -90 123 -90s111 34 123 90h32c0 -60 -49 -154 -155 -154s-155 94 -155 154zM62 0v32h70c18 0 24 6 24 24v600c0 18 -6 24 -24 24h-70v32h562l6 -232h-32s-10 64 -40 114c-28 49 -68 86 -120 86h-110c-18 0 -24 -6 -24 -24v-276h51
c56 0 100 80 100 138h32v-313h-32c0 59 -44 139 -100 139h-51v-288c0 -18 6 -24 24 -24h109c82 0 129 88 148 142c13 37 21 102 21 102h32l-6 -276h-570z" />
    <glyph glyph-name="ebreve" unicode="&#x115;" horiz-adv-x="472" 
d="M100 694h28c10 -52 48 -86 112 -86s102 34 112 86h28c-8 -88 -58 -154 -140 -154s-132 66 -140 154zM48 237c0 144 91 249 202 249c82 0 144 -64 163 -158c7 -32 7 -88 7 -100h-244c0 -51 0 -90 11 -129c12 -49 49 -81 94 -81c71 0 108 76 115 144h26
c-7 -74 -47 -174 -161 -174c-128 0 -213 112 -213 249zM176 256h128c0 130 -12 206 -64 206s-64 -76 -64 -206z" />
    <glyph glyph-name="Edotaccent" unicode="&#x116;" horiz-adv-x="690" 
d="M304 854c0 40 28 68 68 68s68 -28 68 -68s-28 -68 -68 -68s-68 28 -68 68zM62 0v32h70c18 0 24 6 24 24v600c0 18 -6 24 -24 24h-70v32h562l6 -232h-32s-10 64 -40 114c-28 49 -68 86 -120 86h-110c-18 0 -24 -6 -24 -24v-276h51c56 0 100 80 100 138h32v-313h-32
c0 59 -44 139 -100 139h-51v-288c0 -18 6 -24 24 -24h109c82 0 129 88 148 142c13 37 21 102 21 102h32l-6 -276h-570z" />
    <glyph glyph-name="edotaccent" unicode="&#x117;" horiz-adv-x="472" 
d="M166 618c0 42 32 74 74 74s74 -32 74 -74s-32 -74 -74 -74s-74 32 -74 74zM48 237c0 144 91 249 202 249c82 0 144 -64 163 -158c7 -32 7 -88 7 -100h-244c0 -51 0 -90 11 -129c12 -49 49 -81 94 -81c71 0 108 76 115 144h26c-7 -74 -47 -174 -161 -174
c-128 0 -213 112 -213 249zM176 256h128c0 130 -12 206 -64 206s-64 -76 -64 -206z" />
    <glyph glyph-name="Eogonek" unicode="&#x118;" horiz-adv-x="690" 
d="M62 0v32h70c18 0 24 6 24 24v600c0 18 -6 24 -24 24h-70v32h562l6 -232h-32s-10 64 -40 114c-28 49 -68 86 -120 86h-110c-18 0 -24 -6 -24 -24v-276h51c56 0 100 80 100 138h32v-313h-32c0 59 -44 139 -100 139h-51v-288c0 -18 6 -24 24 -24h109c82 0 129 88 148 142
c13 37 21 102 21 102h32l-6 -276h-107c-58 -34 -88 -74 -88 -133c0 -31 16 -51 44 -51c31 0 48 11 64 27l19 -19c-21 -30 -54 -62 -108 -62c-59 0 -99 40 -99 94c0 65 51 109 112 140l-2 4h-405z" />
    <glyph glyph-name="eogonek" unicode="&#x119;" horiz-adv-x="472" 
d="M176 256h128c0 130 -12 206 -64 206s-64 -76 -64 -206zM48 237c0 144 91 249 202 249c82 0 144 -64 163 -158c7 -32 7 -88 7 -100h-244c0 -51 0 -90 11 -129c12 -49 49 -81 94 -81c71 0 108 76 115 144h26c-5 -58 -30 -124 -86 -156c-58 -33 -91 -76 -91 -129
c0 -27 18 -41 42 -41c26 0 38 12 52 32l20 -14c-18 -41 -56 -74 -99 -74s-83 30 -83 78c0 52 43 95 90 127v3h-6c-128 0 -213 112 -213 249z" />
    <glyph glyph-name="Ecaron" unicode="&#x11a;" horiz-adv-x="690" 
d="M208 898l16 22l148 -86l148 86l16 -22l-140 -136h-48zM62 0v32h70c18 0 24 6 24 24v600c0 18 -6 24 -24 24h-70v32h562l6 -232h-32s-10 64 -40 114c-28 49 -68 86 -120 86h-110c-18 0 -24 -6 -24 -24v-276h51c56 0 100 80 100 138h32v-313h-32c0 59 -44 139 -100 139h-51
v-288c0 -18 6 -24 24 -24h109c82 0 129 88 148 142c13 37 21 102 21 102h32l-6 -276h-570z" />
    <glyph glyph-name="ecaron" unicode="&#x11b;" horiz-adv-x="472" 
d="M94 678l16 16l130 -98l130 98l16 -16l-122 -154h-48zM48 237c0 144 91 249 202 249c82 0 144 -64 163 -158c7 -32 7 -88 7 -100h-244c0 -51 0 -90 11 -129c12 -49 49 -81 94 -81c71 0 108 76 115 144h26c-7 -74 -47 -174 -161 -174c-128 0 -213 112 -213 249zM176 256
h128c0 130 -12 206 -64 206s-64 -76 -64 -206z" />
    <glyph glyph-name="Gcircumflex" unicode="&#x11c;" horiz-adv-x="720" 
d="M198 786c67 35 114 82 148 144h40c30 -58 76 -108 148 -144l-12 -24c-62 22 -101 45 -156 80c-55 -35 -94 -58 -156 -80zM70 356c0 200 122 374 298 374c63 0 102 -22 142 -49c14 -9 25 -15 34 -15c11 0 17 8 22 19l17 37h33v-288h-31c-45 166 -117 264 -217 264
c-76 0 -128 -48 -128 -192v-300c0 -144 46 -192 110 -192c72 0 118 71 118 147v137c0 18 -6 24 -24 24h-88v32h332v-32h-48c-18 0 -24 -6 -24 -24v-311h-32l-24 91c-3 12 -11 25 -24 25c-14 0 -23 -8 -31 -21c-24 -37 -79 -100 -155 -100c-176 0 -280 175 -280 374z" />
    <glyph glyph-name="gcircumflex" unicode="&#x11d;" horiz-adv-x="554" 
d="M106 548c75 49 100 114 116 160h68c16 -46 41 -111 116 -160l-16 -24c-46 22 -102 62 -134 96c-32 -34 -88 -74 -134 -96zM42 -114c0 43 34 84 94 98v3c-36 3 -78 33 -78 82c0 65 40 103 112 117v4c-42 18 -98 62 -98 140c0 94 87 156 182 156c71 0 115 -30 139 -52h3
c19 32 44 52 74 52c45 0 72 -32 72 -66c0 -40 -25 -74 -56 -74c-19 0 -40 12 -40 35c0 14 8 26 16 36c7 7 16 20 16 28s-5 16 -21 16s-33 -10 -51 -42c25 -27 32 -63 32 -97c0 -69 -70 -149 -186 -149c-64 0 -135 -5 -135 -53c0 -26 21 -35 49 -35h158
c87 0 165 -40 165 -136c0 -98 -83 -187 -225 -187c-117 0 -222 44 -222 124zM194 330c0 -91 17 -132 62 -132c44 0 60 41 60 132s-16 132 -60 132c-45 0 -62 -41 -62 -132zM78 -115c0 -63 90 -91 171 -91c82 0 173 33 173 108c0 55 -73 71 -149 71c-74 0 -195 -11 -195 -88z
" />
    <glyph glyph-name="Gbreve" unicode="&#x11e;" horiz-adv-x="720" 
d="M211 916h32c12 -56 49 -90 123 -90s111 34 123 90h32c0 -60 -49 -154 -155 -154s-155 94 -155 154zM70 356c0 200 122 374 298 374c63 0 102 -22 142 -49c14 -9 25 -15 34 -15c11 0 17 8 22 19l17 37h33v-288h-31c-45 166 -117 264 -217 264c-76 0 -128 -48 -128 -192
v-300c0 -144 46 -192 110 -192c72 0 118 71 118 147v137c0 18 -6 24 -24 24h-88v32h332v-32h-48c-18 0 -24 -6 -24 -24v-311h-32l-24 91c-3 12 -11 25 -24 25c-14 0 -23 -8 -31 -21c-24 -37 -79 -100 -155 -100c-176 0 -280 175 -280 374z" />
    <glyph glyph-name="gbreve" unicode="&#x11f;" horiz-adv-x="554" 
d="M116 694h28c10 -52 48 -86 112 -86s102 34 112 86h28c-8 -88 -58 -154 -140 -154s-132 66 -140 154zM42 -114c0 43 34 84 94 98v3c-36 3 -78 33 -78 82c0 65 40 103 112 117v4c-42 18 -98 62 -98 140c0 94 87 156 182 156c71 0 115 -30 139 -52h3c19 32 44 52 74 52
c45 0 72 -32 72 -66c0 -40 -25 -74 -56 -74c-19 0 -40 12 -40 35c0 14 8 26 16 36c7 7 16 20 16 28s-5 16 -21 16s-33 -10 -51 -42c25 -27 32 -63 32 -97c0 -69 -70 -149 -186 -149c-64 0 -135 -5 -135 -53c0 -26 21 -35 49 -35h158c87 0 165 -40 165 -136
c0 -98 -83 -187 -225 -187c-117 0 -222 44 -222 124zM194 330c0 -91 17 -132 62 -132c44 0 60 41 60 132s-16 132 -60 132c-45 0 -62 -41 -62 -132zM78 -115c0 -63 90 -91 171 -91c82 0 173 33 173 108c0 55 -73 71 -149 71c-74 0 -195 -11 -195 -88z" />
    <glyph glyph-name="Gdotaccent" unicode="&#x120;" horiz-adv-x="720" 
d="M298 854c0 40 28 68 68 68s68 -28 68 -68s-28 -68 -68 -68s-68 28 -68 68zM70 356c0 200 122 374 298 374c63 0 102 -22 142 -49c14 -9 25 -15 34 -15c11 0 17 8 22 19l17 37h33v-288h-31c-45 166 -117 264 -217 264c-76 0 -128 -48 -128 -192v-300
c0 -144 46 -192 110 -192c72 0 118 71 118 147v137c0 18 -6 24 -24 24h-88v32h332v-32h-48c-18 0 -24 -6 -24 -24v-311h-32l-24 91c-3 12 -11 25 -24 25c-14 0 -23 -8 -31 -21c-24 -37 -79 -100 -155 -100c-176 0 -280 175 -280 374z" />
    <glyph glyph-name="gdotaccent" unicode="&#x121;" horiz-adv-x="554" 
d="M182 618c0 42 32 74 74 74s74 -32 74 -74s-32 -74 -74 -74s-74 32 -74 74zM42 -114c0 43 34 84 94 98v3c-36 3 -78 33 -78 82c0 65 40 103 112 117v4c-42 18 -98 62 -98 140c0 94 87 156 182 156c71 0 115 -30 139 -52h3c19 32 44 52 74 52c45 0 72 -32 72 -66
c0 -40 -25 -74 -56 -74c-19 0 -40 12 -40 35c0 14 8 26 16 36c7 7 16 20 16 28s-5 16 -21 16s-33 -10 -51 -42c25 -27 32 -63 32 -97c0 -69 -70 -149 -186 -149c-64 0 -135 -5 -135 -53c0 -26 21 -35 49 -35h158c87 0 165 -40 165 -136c0 -98 -83 -187 -225 -187
c-117 0 -222 44 -222 124zM194 330c0 -91 17 -132 62 -132c44 0 60 41 60 132s-16 132 -60 132c-45 0 -62 -41 -62 -132zM78 -115c0 -63 90 -91 171 -91c82 0 173 33 173 108c0 55 -73 71 -149 71c-74 0 -195 -11 -195 -88z" />
    <glyph glyph-name="Gcommaaccent" unicode="&#x122;" horiz-adv-x="720" 
d="M296 -86c0 33 31 54 57 54c52 0 74 -44 74 -81c0 -73 -72 -118 -124 -125l-6 22c41 8 74 26 74 55c0 10 -3 17 -10 21c-6 4 -13 4 -24 4c-22 0 -41 19 -41 50zM70 356c0 200 122 374 298 374c63 0 102 -22 142 -49c14 -9 25 -15 34 -15c11 0 17 8 22 19l17 37h33v-288
h-31c-45 166 -117 264 -217 264c-76 0 -128 -48 -128 -192v-300c0 -144 46 -192 110 -192c72 0 118 71 118 147v137c0 18 -6 24 -24 24h-88v32h332v-32h-48c-18 0 -24 -6 -24 -24v-311h-32l-24 91c-3 12 -11 25 -24 25c-14 0 -23 -8 -31 -21c-24 -37 -79 -100 -155 -100
c-176 0 -280 175 -280 374z" />
    <glyph glyph-name="gcommaaccent" unicode="&#x123;" horiz-adv-x="554" 
d="M172 615c0 71 68 130 127 157l14 -23c-53 -26 -85 -57 -85 -87c0 -12 8 -23 18 -28c8 -4 19 -5 32 -5c25 0 48 -24 48 -53c0 -34 -26 -59 -71 -59c-55 0 -83 55 -83 98zM42 -114c0 43 34 84 94 98v3c-36 3 -78 33 -78 82c0 65 40 103 112 117v4c-42 18 -98 62 -98 140
c0 94 87 156 182 156c71 0 115 -30 139 -52h3c19 32 44 52 74 52c45 0 72 -32 72 -66c0 -40 -25 -74 -56 -74c-19 0 -40 12 -40 35c0 14 8 26 16 36c7 7 16 20 16 28s-5 16 -21 16s-33 -10 -51 -42c25 -27 32 -63 32 -97c0 -69 -70 -149 -186 -149c-64 0 -135 -5 -135 -53
c0 -26 21 -35 49 -35h158c87 0 165 -40 165 -136c0 -98 -83 -187 -225 -187c-117 0 -222 44 -222 124zM194 330c0 -91 17 -132 62 -132c44 0 60 41 60 132s-16 132 -60 132c-45 0 -62 -41 -62 -132zM78 -115c0 -63 90 -91 171 -91c82 0 173 33 173 108c0 55 -73 71 -149 71
c-74 0 -195 -11 -195 -88z" />
    <glyph glyph-name="Hcircumflex" unicode="&#x124;" horiz-adv-x="824" 
d="M254 786c67 35 114 82 148 144h40c30 -58 76 -108 148 -144l-12 -24c-62 22 -101 45 -156 80c-55 -35 -94 -58 -156 -80zM62 0v32h70c18 0 24 6 24 24v600c0 18 -6 24 -24 24h-70v32h336v-32h-70c-18 0 -24 -6 -24 -24v-264h236v264c0 18 -6 24 -24 24h-72v32h338v-32
h-70c-18 0 -24 -6 -24 -24v-600c0 -18 6 -24 24 -24h70v-32h-336v32h70c18 0 24 6 24 24v300h-236v-300c0 -18 6 -24 24 -24h70v-32h-336z" />
    <glyph glyph-name="hcircumflex" unicode="&#x125;" horiz-adv-x="560" 
d="M120 756c75 49 100 114 116 160h68c16 -46 41 -111 116 -160l-16 -24c-46 22 -102 62 -134 96c-32 -34 -88 -74 -134 -96zM26 0v24h56c12 0 16 4 16 16v632c0 12 -4 16 -16 16h-56v24h188v-327l5 -1c25 58 66 102 124 102c34 0 56 -7 77 -22c34 -25 54 -72 54 -116v-308
c0 -12 4 -16 16 -16h38v-24h-218v24h32c12 0 16 4 16 16v337c0 41 -9 77 -46 77c-41 0 -98 -91 -98 -200v-214c0 -12 4 -16 16 -16h32v-24h-236z" />
    <glyph glyph-name="Hbar" unicode="&#x126;" horiz-adv-x="824" 
d="M48 508v36h108v112c0 18 -6 24 -24 24h-70v32h336v-32h-70c-18 0 -24 -6 -24 -24v-112h236v112c0 18 -6 24 -24 24h-72v32h338v-32h-70c-18 0 -24 -6 -24 -24v-112h108v-36h-108v-452c0 -18 6 -24 24 -24h70v-32h-336v32h70c18 0 24 6 24 24v300h-236v-300
c0 -18 6 -24 24 -24h70v-32h-336v32h70c18 0 24 6 24 24v452h-108zM304 392h236v116h-236v-116z" />
    <glyph glyph-name="hbar" unicode="&#x127;" horiz-adv-x="560" 
d="M26 0v24h56c12 0 16 4 16 16v524h-72v28h72v80c0 12 -4 16 -16 16h-56v24h188v-120h168v-28h-168v-179l5 -1c25 58 66 102 124 102c34 0 56 -7 77 -22c34 -25 54 -72 54 -116v-308c0 -12 4 -16 16 -16h38v-24h-218v24h32c12 0 16 4 16 16v337c0 41 -9 77 -46 77
c-41 0 -98 -91 -98 -200v-214c0 -12 4 -16 16 -16h32v-24h-236z" />
    <glyph glyph-name="Itilde" unicode="&#x128;" horiz-adv-x="440" 
d="M82 800c0 48 34 108 88 108c33 0 54 -9 82 -21c21 -9 40 -15 64 -15s36 16 40 40h22c0 -48 -34 -108 -88 -108c-33 0 -54 9 -82 21c-21 9 -40 15 -64 15s-36 -16 -40 -40h-22zM62 0v32h70c18 0 24 6 24 24v600c0 18 -6 24 -24 24h-70v32h336v-32h-70
c-18 0 -24 -6 -24 -24v-600c0 -18 6 -24 24 -24h70v-32h-336z" />
    <glyph glyph-name="itilde" unicode="&#x129;" horiz-adv-x="296" 
d="M0 564c0 48 34 108 88 108c33 0 54 -9 82 -21c21 -9 40 -15 64 -15s36 16 40 40h22c0 -48 -34 -108 -88 -108c-33 0 -54 9 -82 21c-21 9 -40 15 -64 15s-36 -16 -40 -40h-22zM46 0v24h38c12 0 16 4 16 16v394c0 12 -4 16 -16 16h-38v24h170v-434c0 -12 4 -16 16 -16h38
v-24h-224z" />
    <glyph glyph-name="Imacron" unicode="&#x12a;" horiz-adv-x="440" 
d="M82 810v64h296v-64h-296zM62 0v32h70c18 0 24 6 24 24v600c0 18 -6 24 -24 24h-70v32h336v-32h-70c-18 0 -24 -6 -24 -24v-600c0 -18 6 -24 24 -24h70v-32h-336z" />
    <glyph glyph-name="imacron" unicode="&#x12b;" horiz-adv-x="296" 
d="M18 584v64h260v-64h-260zM46 0v24h38c12 0 16 4 16 16v394c0 12 -4 16 -16 16h-38v24h170v-434c0 -12 4 -16 16 -16h38v-24h-224z" />
    <glyph glyph-name="Ibreve" unicode="&#x12c;" horiz-adv-x="440" 
d="M75 916h32c12 -56 49 -90 123 -90s111 34 123 90h32c0 -60 -49 -154 -155 -154s-155 94 -155 154zM62 0v32h70c18 0 24 6 24 24v600c0 18 -6 24 -24 24h-70v32h336v-32h-70c-18 0 -24 -6 -24 -24v-600c0 -18 6 -24 24 -24h70v-32h-336z" />
    <glyph glyph-name="ibreve" unicode="&#x12d;" horiz-adv-x="296" 
d="M8 694h28c10 -52 48 -86 112 -86s102 34 112 86h28c-8 -88 -58 -154 -140 -154s-132 66 -140 154zM46 0v24h38c12 0 16 4 16 16v394c0 12 -4 16 -16 16h-38v24h170v-434c0 -12 4 -16 16 -16h38v-24h-224z" />
    <glyph glyph-name="Iogonek" unicode="&#x12e;" horiz-adv-x="440" 
d="M62 0v32h70c18 0 24 6 24 24v600c0 18 -6 24 -24 24h-70v32h336v-32h-70c-18 0 -24 -6 -24 -24v-600c0 -18 6 -24 24 -24h70v-32h-15c-58 -34 -88 -74 -88 -133c0 -31 16 -51 44 -51c31 0 48 11 64 27l19 -19c-21 -30 -54 -62 -108 -62c-59 0 -99 40 -99 94
c0 65 51 109 112 140l-2 4h-263z" />
    <glyph glyph-name="iogonek" unicode="&#x12f;" horiz-adv-x="296" 
d="M74 650c0 42 32 74 74 74s74 -32 74 -74s-32 -74 -74 -74s-74 32 -74 74zM40 0v24h38c12 0 16 4 16 16v394c0 12 -4 16 -16 16h-38v24h170v-434c0 -12 4 -16 16 -16h38v-24h-16c-54 -40 -80 -70 -80 -123c0 -27 18 -41 42 -41c26 0 38 12 52 32l20 -14
c-18 -41 -56 -74 -99 -74s-83 30 -83 78c0 58 52 104 108 140l-1 2h-167z" />
    <glyph glyph-name="Idotaccent" unicode="&#x130;" horiz-adv-x="440" 
d="M162 854c0 40 28 68 68 68s68 -28 68 -68s-28 -68 -68 -68s-68 28 -68 68zM62 0v32h70c18 0 24 6 24 24v600c0 18 -6 24 -24 24h-70v32h336v-32h-70c-18 0 -24 -6 -24 -24v-600c0 -18 6 -24 24 -24h70v-32h-336z" />
    <glyph glyph-name="dotlessi" unicode="&#x131;" horiz-adv-x="296" 
d="M40 0v24h38c12 0 16 4 16 16v394c0 12 -4 16 -16 16h-38v24h170v-434c0 -12 4 -16 16 -16h38v-24h-224z" />
    <glyph glyph-name="Jcircumflex" unicode="&#x134;" horiz-adv-x="540" 
d="M180 786c67 35 114 82 148 144h40c30 -58 76 -108 148 -144l-12 -24c-62 22 -101 45 -156 80c-55 -35 -94 -58 -156 -80zM36 154c0 72 46 117 90 117s71 -33 71 -69c0 -50 -33 -74 -61 -84c-23 -8 -32 -20 -32 -42c0 -26 39 -62 98 -62c53 0 76 42 76 116v526
c0 18 -6 24 -24 24h-80v32h338v-32h-62c-18 0 -24 -6 -24 -24v-462c0 -136 -110 -212 -212 -212c-96 0 -178 59 -178 172z" />
    <glyph glyph-name="jcircumflex" unicode="&#x135;" horiz-adv-x="320" 
d="M14 548c75 49 100 114 116 160h68c16 -46 41 -111 116 -160l-16 -24c-46 22 -102 62 -134 96c-32 -34 -88 -74 -134 -96zM-52 -126c0 46 36 79 74 79c28 0 59 -17 59 -53c0 -28 -18 -47 -28 -56c-11 -10 -17 -20 -17 -32c0 -21 22 -26 37 -26c27 0 47 25 47 132v516
c0 12 -4 16 -16 16h-56v24h188v-514c0 -133 -77 -198 -159 -198c-75 0 -129 46 -129 112z" />
    <glyph glyph-name="Kcommaaccent" unicode="&#x136;" horiz-adv-x="770" 
d="M345 -86c0 33 31 54 57 54c52 0 74 -44 74 -81c0 -73 -72 -118 -124 -125l-6 22c41 8 74 26 74 55c0 10 -3 17 -10 21c-6 4 -13 4 -24 4c-22 0 -41 19 -41 50zM62 0v32h70c18 0 24 6 24 24v600c0 18 -6 24 -24 24h-70v32h328v-32h-62c-18 0 -24 -6 -24 -24v-296l193 224
c17 20 25 32 25 54c0 24 -14 42 -36 42h-29v32h247v-32h-35c-31 0 -63 -26 -83 -50l-134 -155l211 -399c16 -31 27 -44 60 -44h27v-32h-314v32h40c12 0 21 10 21 21c0 6 -2 19 -5 25l-145 276l-43 -49v-249c0 -18 6 -24 24 -24h62v-32h-328z" />
    <glyph glyph-name="kcommaaccent" unicode="&#x137;" horiz-adv-x="560" 
d="M221 -86c0 33 31 54 57 54c52 0 74 -44 74 -81c0 -73 -72 -118 -124 -125l-6 22c41 8 74 26 74 55c0 10 -3 17 -10 21c-6 4 -13 4 -24 4c-22 0 -41 19 -41 50zM26 0v24h56c12 0 16 4 16 16v632c0 12 -2 16 -16 16h-56v24h188v-499l130 163c13 16 20 29 20 45
c0 19 -14 28 -28 28h-30v25h191v-25h-23c-36 0 -60 -28 -89 -65l-59 -74l156 -253c11 -18 21 -33 37 -33h21v-24h-231v24h18c10 0 25 5 25 22s-4 30 -14 46l-81 132l-43 -53v-131c0 -12 5 -16 18 -16h36v-24h-242z" />
    <glyph glyph-name="kgreenlandic" unicode="&#x138;" horiz-adv-x="560" 
d="M26 0v24h56c12 0 16 4 16 16v394c0 12 -2 16 -16 16h-56v24h188v-261l130 163c13 16 20 29 20 45c0 19 -14 28 -28 28h-30v25h191v-25h-23c-36 0 -60 -28 -89 -65l-59 -74l156 -253c11 -18 21 -33 37 -33h21v-24h-231v24h18c10 0 25 5 25 22s-4 30 -14 46l-81 132
l-43 -53v-131c0 -12 5 -16 18 -16h36v-24h-242z" />
    <glyph glyph-name="Lacute" unicode="&#x139;" horiz-adv-x="670" 
d="M198 778l89 138c16 25 31 32 49 32c24 0 42 -16 42 -40c0 -18 -11 -35 -28 -48l-132 -100zM62 0v32h70c18 0 24 9 24 27v597c0 18 -6 24 -24 24h-70v32h336v-32h-70c-18 0 -24 -6 -24 -24v-597c0 -18 6 -27 24 -27h101c82 0 133 119 150 174c11 37 25 102 25 102h32
l-8 -308h-566z" />
    <glyph glyph-name="lacute" unicode="&#x13a;" horiz-adv-x="308" 
d="M112 780l89 138c16 25 31 32 49 32c24 0 42 -16 42 -40c0 -18 -11 -35 -28 -48l-132 -100zM26 0v24h56c12 0 16 4 16 16v632c0 12 -4 16 -16 16h-56v24h188v-672c0 -12 4 -16 16 -16h56v-24h-260z" />
    <glyph glyph-name="Lcommaaccent" unicode="&#x13b;" horiz-adv-x="670" 
d="M303 -86c0 33 31 54 57 54c52 0 74 -44 74 -81c0 -73 -72 -118 -124 -125l-6 22c41 8 74 26 74 55c0 10 -3 17 -10 21c-6 4 -13 4 -24 4c-22 0 -41 19 -41 50zM62 0v32h70c18 0 24 9 24 27v597c0 18 -6 24 -24 24h-70v32h336v-32h-70c-18 0 -24 -6 -24 -24v-597
c0 -18 6 -27 24 -27h101c82 0 133 119 150 174c11 37 25 102 25 102h32l-8 -308h-566z" />
    <glyph glyph-name="lcommaaccent" unicode="&#x13c;" horiz-adv-x="308" 
d="M87 -86c0 33 31 54 57 54c52 0 74 -44 74 -81c0 -73 -72 -118 -124 -125l-6 22c41 8 74 26 74 55c0 10 -3 17 -10 21c-6 4 -13 4 -24 4c-22 0 -41 19 -41 50zM26 0v24h56c12 0 16 4 16 16v632c0 12 -4 16 -16 16h-56v24h188v-672c0 -12 4 -16 16 -16h56v-24h-260z" />
    <glyph glyph-name="Lcaron" unicode="&#x13d;" horiz-adv-x="690" 
d="M528 669c0 34 26 59 71 59c55 0 83 -55 83 -98c0 -71 -68 -130 -127 -157l-14 23c53 26 85 57 85 87c0 12 -8 23 -18 28c-8 4 -19 5 -32 5c-25 0 -48 24 -48 53zM62 0v32h70c18 0 24 9 24 27v597c0 18 -6 24 -24 24h-70v32h336v-32h-70c-18 0 -24 -6 -24 -24v-597
c0 -18 6 -27 24 -27h101c82 0 133 119 150 174c11 37 25 102 25 102h32l-8 -308h-566z" />
    <glyph glyph-name="lcaron" unicode="&#x13e;" horiz-adv-x="360" 
d="M248 681c0 24 21 49 56 49c38 0 72 -34 72 -84c0 -70 -50 -126 -113 -156l-13 19c47 25 82 58 82 96c0 7 -2 14 -8 19c-5 4 -12 8 -25 8c-25 0 -51 16 -51 49zM26 0v24h56c12 0 16 4 16 16v632c0 12 -4 16 -16 16h-56v24h188v-672c0 -12 4 -16 16 -16h56v-24h-260z" />
    <glyph glyph-name="Ldot" unicode="&#x13f;" horiz-adv-x="670" 
d="M494 438c0 40 28 68 68 68s68 -28 68 -68s-28 -68 -68 -68s-68 28 -68 68zM62 0v32h70c18 0 24 9 24 27v597c0 18 -6 24 -24 24h-70v32h336v-32h-70c-18 0 -24 -6 -24 -24v-597c0 -18 6 -27 24 -27h101c82 0 133 119 150 174c11 37 25 102 25 102h32l-8 -308h-566z" />
    <glyph glyph-name="ldot" unicode="&#x140;" horiz-adv-x="400" 
d="M282 366c0 42 32 74 74 74s74 -32 74 -74s-32 -74 -74 -74s-74 32 -74 74zM26 0v24h56c12 0 16 4 16 16v632c0 12 -4 16 -16 16h-56v24h188v-672c0 -12 4 -16 16 -16h56v-24h-260z" />
    <glyph glyph-name="Lslash" unicode="&#x141;" horiz-adv-x="670" 
d="M62 0v32h70c18 0 24 9 24 27v247l-77 -38l-16 33l93 46v309c0 18 -6 24 -24 24h-70v32h336v-32h-70c-18 0 -24 -6 -24 -24v-235l130 64l16 -33l-146 -72v-321c0 -18 6 -27 24 -27h101c82 0 133 119 150 174c11 37 25 102 25 102h32l-8 -308h-566z" />
    <glyph glyph-name="lslash" unicode="&#x142;" horiz-adv-x="308" 
d="M20 323l78 38v311c0 12 -4 16 -16 16h-56v24h188v-295l66 32l12 -26l-78 -38v-345c0 -12 4 -16 16 -16h56v-24h-260v24h56c12 0 16 4 16 16v289l-66 -32z" />
    <glyph glyph-name="Nacute" unicode="&#x143;" horiz-adv-x="764" 
d="M386 778l89 138c16 25 31 32 49 32c24 0 42 -16 42 -40c0 -18 -11 -35 -28 -48l-132 -100zM48 0v32c72 0 126 42 126 104v427c0 15 -2 18 -11 31l-40 60c-13 19 -25 26 -57 26h-18v32h222l320 -457v321c0 62 -54 104 -126 104v32h292v-32c-72 0 -126 -42 -126 -104v-594
h-38l-374 535h-4v-381c0 -62 54 -104 126 -104v-32h-292z" />
    <glyph glyph-name="nacute" unicode="&#x144;" horiz-adv-x="556" 
d="M234 542l89 138c16 25 31 32 49 32c24 0 42 -16 42 -40c0 -18 -11 -35 -28 -48l-132 -100zM40 0v24h38c12 0 16 4 16 16v394c0 12 -4 16 -16 16h-38v24h170v-89l5 -1c25 58 66 102 124 102c34 0 56 -7 77 -22c34 -25 54 -72 54 -116v-308c0 -12 4 -16 16 -16h38v-24h-218
v24h32c12 0 16 4 16 16v337c0 41 -9 77 -46 77c-41 0 -98 -91 -98 -200v-214c0 -12 4 -16 16 -16h32v-24h-218z" />
    <glyph glyph-name="Ncommaaccent" unicode="&#x145;" horiz-adv-x="764" 
d="M349 -86c0 33 31 54 57 54c52 0 74 -44 74 -81c0 -73 -72 -118 -124 -125l-6 22c41 8 74 26 74 55c0 10 -3 17 -10 21c-6 4 -13 4 -24 4c-22 0 -41 19 -41 50zM48 0v32c72 0 126 42 126 104v427c0 15 -2 18 -11 31l-40 60c-13 19 -25 26 -57 26h-18v32h222l320 -457v321
c0 62 -54 104 -126 104v32h292v-32c-72 0 -126 -42 -126 -104v-594h-38l-374 535h-4v-381c0 -62 54 -104 126 -104v-32h-292z" />
    <glyph glyph-name="ncommaaccent" unicode="&#x146;" horiz-adv-x="556" 
d="M209 -86c0 33 31 54 57 54c52 0 74 -44 74 -81c0 -73 -72 -118 -124 -125l-6 22c41 8 74 26 74 55c0 10 -3 17 -10 21c-6 4 -13 4 -24 4c-22 0 -41 19 -41 50zM40 0v24h38c12 0 16 4 16 16v394c0 12 -4 16 -16 16h-38v24h170v-89l5 -1c25 58 66 102 124 102
c34 0 56 -7 77 -22c34 -25 54 -72 54 -116v-308c0 -12 4 -16 16 -16h38v-24h-218v24h32c12 0 16 4 16 16v337c0 41 -9 77 -46 77c-41 0 -98 -91 -98 -200v-214c0 -12 4 -16 16 -16h32v-24h-218z" />
    <glyph glyph-name="Ncaron" unicode="&#x147;" horiz-adv-x="764" 
d="M254 898l16 22l148 -86l148 86l16 -22l-140 -136h-48zM48 0v32c72 0 126 42 126 104v427c0 15 -2 18 -11 31l-40 60c-13 19 -25 26 -57 26h-18v32h222l320 -457v321c0 62 -54 104 -126 104v32h292v-32c-72 0 -126 -42 -126 -104v-594h-38l-374 535h-4v-381
c0 -62 54 -104 126 -104v-32h-292z" />
    <glyph glyph-name="ncaron" unicode="&#x148;" horiz-adv-x="556" 
d="M132 678l16 16l130 -98l130 98l16 -16l-122 -154h-48zM40 0v24h38c12 0 16 4 16 16v394c0 12 -4 16 -16 16h-38v24h170v-89l5 -1c25 58 66 102 124 102c34 0 56 -7 77 -22c34 -25 54 -72 54 -116v-308c0 -12 4 -16 16 -16h38v-24h-218v24h32c12 0 16 4 16 16v337
c0 41 -9 77 -46 77c-41 0 -98 -91 -98 -200v-214c0 -12 4 -16 16 -16h32v-24h-218z" />
    <glyph glyph-name="napostrophe" unicode="&#x149;" horiz-adv-x="672" 
d="M172 0v24h38c12 0 16 4 16 16v394c0 12 -4 16 -16 16h-38v24h170v-89l5 -1c25 58 66 102 124 102c34 0 56 -7 77 -22c34 -25 54 -72 54 -116v-308c0 -12 4 -16 16 -16h38v-24h-218v24h32c12 0 16 4 16 16v337c0 41 -9 77 -46 77c-41 0 -98 -91 -98 -200v-214
c0 -12 4 -16 16 -16h32v-24h-218zM16 669c0 34 26 59 71 59c55 0 83 -55 83 -98c0 -71 -68 -130 -127 -157l-14 23c53 26 85 57 85 87c0 12 -8 23 -18 28c-8 4 -19 5 -32 5c-25 0 -48 24 -48 53z" />
    <glyph glyph-name="Eng" unicode="&#x14a;" horiz-adv-x="764" 
d="M48 0v32c72 0 126 42 126 104v427c0 15 -2 18 -11 31l-40 60c-13 19 -25 26 -57 26h-18v32h222l320 -457v321c0 62 -54 104 -126 104v32h292v-32c-72 0 -126 -42 -126 -104v-678c0 -79 -49 -136 -138 -136c-60 0 -116 37 -116 93c0 29 21 51 46 51c30 0 45 -19 50 -48
c6 -32 23 -52 47 -52c38 0 71 29 71 94v84l-372 533h-4v-381c0 -62 54 -104 126 -104v-32h-292z" />
    <glyph glyph-name="eng" unicode="&#x14b;" horiz-adv-x="542" 
d="M40 0v24h38c12 0 16 4 16 16v394c0 12 -4 16 -16 16h-38v24h170v-89l5 -1c25 58 66 102 124 102c34 0 56 -7 77 -22c34 -25 54 -72 54 -116v-391c0 -68 -42 -195 -184 -195c-65 0 -128 40 -128 92c0 30 20 48 43 48c35 0 43 -28 51 -58c6 -23 18 -54 46 -54
c40 0 56 40 56 106v481c0 41 -9 77 -46 77c-41 0 -98 -91 -98 -200v-214c0 -12 4 -16 16 -16h32v-24h-218z" />
    <glyph glyph-name="Omacron" unicode="&#x14c;" horiz-adv-x="712" 
d="M218 810v64h296v-64h-296zM70 356c0 192 138 374 296 374s296 -182 296 -374s-138 -374 -296 -374s-296 182 -296 374zM240 206c0 -144 50 -192 126 -192s126 48 126 192v300c0 144 -50 192 -126 192s-126 -48 -126 -192v-300z" />
    <glyph glyph-name="omacron" unicode="&#x14d;" horiz-adv-x="504" 
d="M122 584v64h260v-64h-260zM176 237c0 -152 16 -225 76 -225s76 73 76 225s-16 225 -76 225s-76 -73 -76 -225zM48 237c0 144 96 249 204 249s204 -105 204 -249s-96 -249 -204 -249s-204 105 -204 249z" />
    <glyph glyph-name="Obreve" unicode="&#x14e;" horiz-adv-x="712" 
d="M211 916h32c12 -56 49 -90 123 -90s111 34 123 90h32c0 -60 -49 -154 -155 -154s-155 94 -155 154zM70 356c0 192 138 374 296 374s296 -182 296 -374s-138 -374 -296 -374s-296 182 -296 374zM240 206c0 -144 50 -192 126 -192s126 48 126 192v300
c0 144 -50 192 -126 192s-126 -48 -126 -192v-300z" />
    <glyph glyph-name="obreve" unicode="&#x14f;" horiz-adv-x="504" 
d="M112 694h28c10 -52 48 -86 112 -86s102 34 112 86h28c-8 -88 -58 -154 -140 -154s-132 66 -140 154zM176 237c0 -152 16 -225 76 -225s76 73 76 225s-16 225 -76 225s-76 -73 -76 -225zM48 237c0 144 96 249 204 249s204 -105 204 -249s-96 -249 -204 -249
s-204 105 -204 249z" />
    <glyph glyph-name="Ohungarumlaut" unicode="&#x150;" horiz-adv-x="712" 
d="M406 780l85 138c14 23 29 32 47 32c24 0 40 -18 40 -38c0 -18 -10 -33 -27 -46l-125 -104zM272 780l85 138c14 23 29 32 47 32c24 0 40 -18 40 -38c0 -18 -10 -33 -27 -46l-125 -104zM70 356c0 192 138 374 296 374s296 -182 296 -374s-138 -374 -296 -374
s-296 182 -296 374zM240 206c0 -144 50 -192 126 -192s126 48 126 192v300c0 144 -50 192 -126 192s-126 -48 -126 -192v-300z" />
    <glyph glyph-name="ohungarumlaut" unicode="&#x151;" horiz-adv-x="504" 
d="M290 542l85 138c14 23 29 32 47 32c24 0 40 -18 40 -38c0 -18 -10 -33 -27 -46l-125 -104zM156 542l85 138c14 23 29 32 47 32c24 0 40 -18 40 -38c0 -18 -10 -33 -27 -46l-125 -104zM176 237c0 -152 16 -225 76 -225s76 73 76 225s-16 225 -76 225s-76 -73 -76 -225z
M48 237c0 144 96 249 204 249s204 -105 204 -249s-96 -249 -204 -249s-204 105 -204 249z" />
    <glyph glyph-name="Racute" unicode="&#x154;" horiz-adv-x="730" 
d="M300 778l89 138c16 25 31 32 49 32c24 0 42 -16 42 -40c0 -18 -11 -35 -28 -48l-132 -100zM304 396h67c75 0 95 64 95 148s-20 136 -95 136h-43c-18 0 -24 -6 -24 -24v-260zM62 0v32h70c18 0 24 6 24 24v600c0 18 -6 24 -24 24h-70v32h324c142 0 240 -66 240 -176
c0 -96 -80 -147 -184 -159v-7c94 -17 162 -60 162 -185v-111c0 -30 10 -42 28 -42c38 0 50 77 50 148h32c0 -116 -23 -204 -119 -204c-82 0 -139 48 -139 150v124c0 58 -26 114 -96 114h-56v-308c0 -18 6 -24 24 -24h88v-32h-354z" />
    <glyph glyph-name="racute" unicode="&#x155;" horiz-adv-x="434" 
d="M194 542l89 138c16 25 31 32 49 32c24 0 42 -16 42 -40c0 -18 -11 -35 -28 -48l-132 -100zM40 0v24h38c12 0 16 4 16 16v394c0 12 -4 16 -16 16h-38v24h170v-99l5 -1c19 56 60 112 111 112c49 0 82 -40 82 -92c0 -48 -31 -90 -73 -90c-36 0 -65 25 -65 57
c0 20 12 38 24 52c7 8 14 16 14 23c0 5 -3 10 -11 10c-41 0 -87 -96 -87 -205v-201c0 -12 4 -16 16 -16h32v-24h-218z" />
    <glyph glyph-name="Rcommaaccent" unicode="&#x156;" horiz-adv-x="730" 
d="M331 -86c0 33 31 54 57 54c52 0 74 -44 74 -81c0 -73 -72 -118 -124 -125l-6 22c41 8 74 26 74 55c0 10 -3 17 -10 21c-6 4 -13 4 -24 4c-22 0 -41 19 -41 50zM304 396h67c75 0 95 64 95 148s-20 136 -95 136h-43c-18 0 -24 -6 -24 -24v-260zM62 0v32h70c18 0 24 6 24 24
v600c0 18 -6 24 -24 24h-70v32h324c142 0 240 -66 240 -176c0 -96 -80 -147 -184 -159v-7c94 -17 162 -60 162 -185v-111c0 -30 10 -42 28 -42c38 0 50 77 50 148h32c0 -116 -23 -204 -119 -204c-82 0 -139 48 -139 150v124c0 58 -26 114 -96 114h-56v-308
c0 -18 6 -24 24 -24h88v-32h-354z" />
    <glyph glyph-name="rcommaaccent" unicode="&#x157;" horiz-adv-x="434" 
d="M83 -86c0 33 31 54 57 54c52 0 74 -44 74 -81c0 -73 -72 -118 -124 -125l-6 22c41 8 74 26 74 55c0 10 -3 17 -10 21c-6 4 -13 4 -24 4c-22 0 -41 19 -41 50zM40 0v24h38c12 0 16 4 16 16v394c0 12 -4 16 -16 16h-38v24h170v-99l5 -1c19 56 60 112 111 112
c49 0 82 -40 82 -92c0 -48 -31 -90 -73 -90c-36 0 -65 25 -65 57c0 20 12 38 24 52c7 8 14 16 14 23c0 5 -3 10 -11 10c-41 0 -87 -96 -87 -205v-201c0 -12 4 -16 16 -16h32v-24h-218z" />
    <glyph glyph-name="Rcaron" unicode="&#x158;" horiz-adv-x="730" 
d="M168 898l16 22l148 -86l148 86l16 -22l-140 -136h-48zM304 396h67c75 0 95 64 95 148s-20 136 -95 136h-43c-18 0 -24 -6 -24 -24v-260zM62 0v32h70c18 0 24 6 24 24v600c0 18 -6 24 -24 24h-70v32h324c142 0 240 -66 240 -176c0 -96 -80 -147 -184 -159v-7
c94 -17 162 -60 162 -185v-111c0 -30 10 -42 28 -42c38 0 50 77 50 148h32c0 -116 -23 -204 -119 -204c-82 0 -139 48 -139 150v124c0 58 -26 114 -96 114h-56v-308c0 -18 6 -24 24 -24h88v-32h-354z" />
    <glyph glyph-name="rcaron" unicode="&#x159;" horiz-adv-x="434" 
d="M92 678l16 16l130 -98l130 98l16 -16l-122 -154h-48zM40 0v24h38c12 0 16 4 16 16v394c0 12 -4 16 -16 16h-38v24h170v-99l5 -1c19 56 60 112 111 112c49 0 82 -40 82 -92c0 -48 -31 -90 -73 -90c-36 0 -65 25 -65 57c0 20 12 38 24 52c7 8 14 16 14 23c0 5 -3 10 -11 10
c-41 0 -87 -96 -87 -205v-201c0 -12 4 -16 16 -16h32v-24h-218z" />
    <glyph glyph-name="Sacute" unicode="&#x15a;" horiz-adv-x="620" 
d="M264 778l89 138c16 25 31 32 49 32c24 0 42 -16 42 -40c0 -18 -11 -35 -28 -48l-132 -100zM90 306h32c28 -147 117 -292 231 -292c120 0 137 72 137 114c0 37 -32 64 -72 90l-214 138c-50 32 -112 90 -112 182c0 138 96 192 196 192c66 0 122 -36 142 -50
c13 -10 26 -18 36 -18c13 0 20 10 22 23l6 27h32l10 -260h-32c-37 138 -126 246 -224 246c-71 0 -104 -28 -104 -84c0 -46 43 -85 89 -115l215 -139c55 -36 90 -105 90 -172c0 -99 -70 -206 -223 -206c-64 0 -110 22 -137 44c-26 20 -39 30 -52 30c-14 0 -23 -12 -26 -34
l-5 -32h-31z" />
    <glyph glyph-name="sacute" unicode="&#x15b;" horiz-adv-x="430" 
d="M168 542l89 138c16 25 31 32 49 32c24 0 42 -16 42 -40c0 -18 -11 -35 -28 -48l-132 -100zM58 -12v198h22l45 -79c29 -51 71 -95 136 -95c54 0 73 34 73 60c0 40 -26 58 -125 106c-55 27 -151 76 -151 172c0 85 62 136 134 136c43 0 78 -20 100 -34c14 -9 23 -12 30 -12
c10 0 14 8 16 16l6 20h18v-160h-22l-19 38c-37 74 -87 108 -133 108c-32 0 -62 -14 -62 -55c0 -47 49 -82 106 -109c120 -58 166 -93 166 -176c0 -86 -62 -134 -138 -134c-49 0 -87 22 -104 32c-12 8 -26 16 -36 16c-18 0 -32 -12 -37 -27l-7 -21h-18z" />
    <glyph glyph-name="Scircumflex" unicode="&#x15c;" horiz-adv-x="620" 
d="M128 786c67 35 114 82 148 144h40c30 -58 76 -108 148 -144l-12 -24c-62 22 -101 45 -156 80c-55 -35 -94 -58 -156 -80zM90 306h32c28 -147 117 -292 231 -292c120 0 137 72 137 114c0 37 -32 64 -72 90l-214 138c-50 32 -112 90 -112 182c0 138 96 192 196 192
c66 0 122 -36 142 -50c13 -10 26 -18 36 -18c13 0 20 10 22 23l6 27h32l10 -260h-32c-37 138 -126 246 -224 246c-71 0 -104 -28 -104 -84c0 -46 43 -85 89 -115l215 -139c55 -36 90 -105 90 -172c0 -99 -70 -206 -223 -206c-64 0 -110 22 -137 44c-26 20 -39 30 -52 30
c-14 0 -23 -12 -26 -34l-5 -32h-31z" />
    <glyph glyph-name="scircumflex" unicode="&#x15d;" horiz-adv-x="430" 
d="M62 548c75 49 100 114 116 160h68c16 -46 41 -111 116 -160l-16 -24c-46 22 -102 62 -134 96c-32 -34 -88 -74 -134 -96zM58 -12v198h22l45 -79c29 -51 71 -95 136 -95c54 0 73 34 73 60c0 40 -26 58 -125 106c-55 27 -151 76 -151 172c0 85 62 136 134 136
c43 0 78 -20 100 -34c14 -9 23 -12 30 -12c10 0 14 8 16 16l6 20h18v-160h-22l-19 38c-37 74 -87 108 -133 108c-32 0 -62 -14 -62 -55c0 -47 49 -82 106 -109c120 -58 166 -93 166 -176c0 -86 -62 -134 -138 -134c-49 0 -87 22 -104 32c-12 8 -26 16 -36 16
c-18 0 -32 -12 -37 -27l-7 -21h-18z" />
    <glyph glyph-name="Scedilla" unicode="&#x15e;" horiz-adv-x="620" 
d="M230 -170c0 22 10 39 33 39c27 0 33 -19 37 -37c5 -27 21 -46 54 -46c37 0 58 20 58 53c0 28 -17 50 -58 50h-54l15 95c-47 6 -83 24 -105 42c-26 20 -39 30 -52 30c-14 0 -23 -12 -26 -34l-5 -32h-31l-6 316h32c28 -147 117 -292 231 -292c120 0 137 72 137 114
c0 37 -32 64 -72 90l-214 138c-50 32 -112 90 -112 182c0 138 96 192 196 192c66 0 122 -36 142 -50c13 -10 26 -18 36 -18c13 0 20 10 22 23l6 27h32l10 -260h-32c-37 138 -126 246 -224 246c-71 0 -104 -28 -104 -84c0 -46 43 -85 89 -115l215 -139
c55 -36 90 -105 90 -172c0 -99 -70 -206 -223 -206h-4l-4 -29h34c53 0 91 -39 91 -85c0 -56 -34 -106 -126 -106c-44 0 -108 23 -108 68z" />
    <glyph glyph-name="scedilla" unicode="&#x15f;" horiz-adv-x="430" 
d="M138 -143c0 20 11 32 29 32c23 0 27 -18 31 -37c5 -24 20 -38 49 -38c31 0 47 21 47 46c0 23 -14 42 -48 42h-47l15 92c-27 7 -47 19 -58 26c-12 8 -26 16 -36 16c-18 0 -32 -12 -37 -27l-7 -21h-18v198h22l45 -79c29 -51 71 -95 136 -95c54 0 73 34 73 60
c0 40 -26 58 -125 106c-55 27 -151 76 -151 172c0 85 62 136 134 136c43 0 78 -20 100 -34c14 -9 23 -12 30 -12c10 0 14 8 16 16l6 20h18v-160h-22l-19 38c-37 74 -87 108 -133 108c-32 0 -62 -14 -62 -55c0 -47 49 -82 106 -109c120 -58 166 -93 166 -176
c0 -86 -62 -134 -138 -134c-8 0 -15 0 -22 1l-5 -31h25c48 0 84 -32 84 -75c0 -45 -29 -91 -109 -91c-40 0 -95 20 -95 65z" />
    <glyph glyph-name="Scaron" unicode="&#x160;" horiz-adv-x="620" 
d="M132 898l16 22l148 -86l148 86l16 -22l-140 -136h-48zM90 306h32c28 -147 117 -292 231 -292c120 0 137 72 137 114c0 37 -32 64 -72 90l-214 138c-50 32 -112 90 -112 182c0 138 96 192 196 192c66 0 122 -36 142 -50c13 -10 26 -18 36 -18c13 0 20 10 22 23l6 27h32
l10 -260h-32c-37 138 -126 246 -224 246c-71 0 -104 -28 -104 -84c0 -46 43 -85 89 -115l215 -139c55 -36 90 -105 90 -172c0 -99 -70 -206 -223 -206c-64 0 -110 22 -137 44c-26 20 -39 30 -52 30c-14 0 -23 -12 -26 -34l-5 -32h-31z" />
    <glyph glyph-name="scaron" unicode="&#x161;" horiz-adv-x="430" 
d="M66 678l16 16l130 -98l130 98l16 -16l-122 -154h-48zM58 -12v198h22l45 -79c29 -51 71 -95 136 -95c54 0 73 34 73 60c0 40 -26 58 -125 106c-55 27 -151 76 -151 172c0 85 62 136 134 136c43 0 78 -20 100 -34c14 -9 23 -12 30 -12c10 0 14 8 16 16l6 20h18v-160h-22
l-19 38c-37 74 -87 108 -133 108c-32 0 -62 -14 -62 -55c0 -47 49 -82 106 -109c120 -58 166 -93 166 -176c0 -86 -62 -134 -138 -134c-49 0 -87 22 -104 32c-12 8 -26 16 -36 16c-18 0 -32 -12 -37 -27l-7 -21h-18z" />
    <glyph glyph-name="Tcommaaccent" unicode="&#x162;" horiz-adv-x="716" 
d="M60 414l8 298h600l8 -298h-32s-4 34 -21 94c-23 82 -76 172 -144 172c-22 0 -37 -12 -37 -34v-590c0 -18 6 -24 24 -24h80v-32h-167l-6 -47h34c53 0 91 -39 91 -85c0 -56 -34 -106 -126 -106c-44 0 -108 23 -108 68c0 22 10 39 33 39c27 0 33 -19 37 -37
c5 -27 21 -46 54 -46c37 0 58 20 58 53c0 28 -17 50 -58 50h-54l17 111h-161v32h80c18 0 24 6 24 24v590c0 22 -15 34 -37 34c-68 0 -121 -90 -144 -172c-17 -60 -21 -94 -21 -94h-32z" />
    <glyph glyph-name="tcommaaccent" unicode="&#x163;" horiz-adv-x="364" 
d="M20 446v28c77 10 128 66 128 156v36h48v-192h102v-28h-102v-341c0 -34 5 -73 46 -73c65 0 70 126 70 186h28c0 -68 -8 -142 -31 -179c-20 -32 -53 -51 -97 -51h-3l-4 -30h25c48 0 84 -32 84 -75c0 -45 -29 -91 -109 -91c-40 0 -95 20 -95 65c0 20 11 32 29 32
c23 0 27 -18 31 -37c5 -24 20 -38 49 -38c31 0 47 21 47 46c0 23 -14 42 -48 42h-47l14 88c-67 9 -105 53 -105 122v334h-60z" />
    <glyph glyph-name="Tcaron" unicode="&#x164;" horiz-adv-x="716" 
d="M202 898l16 22l148 -86l148 86l16 -22l-140 -136h-48zM60 414l8 298h600l8 -298h-32s-4 34 -21 94c-23 82 -76 172 -144 172c-22 0 -37 -12 -37 -34v-590c0 -18 6 -24 24 -24h80v-32h-356v32h80c18 0 24 6 24 24v590c0 22 -15 34 -37 34c-68 0 -121 -90 -144 -172
c-17 -60 -21 -94 -21 -94h-32z" />
    <glyph glyph-name="tcaron" unicode="&#x165;" horiz-adv-x="382" 
d="M270 681c0 24 21 49 56 49c38 0 72 -34 72 -84c0 -70 -50 -126 -113 -156l-13 19c47 25 82 58 82 96c0 7 -2 14 -8 19c-5 4 -12 8 -25 8c-25 0 -51 16 -51 49zM20 446v28c77 10 128 66 128 156v36h48v-192h102v-28h-102v-341c0 -34 5 -73 46 -73c65 0 70 126 70 186h28
c0 -68 -8 -142 -31 -179c-20 -32 -53 -51 -97 -51c-84 0 -132 46 -132 124v334h-60z" />
    <glyph glyph-name="Tbar" unicode="&#x166;" horiz-adv-x="716" 
d="M60 414l8 298h600l8 -298h-32s-4 34 -21 94c-23 82 -76 172 -144 172c-22 0 -37 -12 -37 -34v-254h136v-36h-136v-300c0 -18 6 -24 24 -24h80v-32h-356v32h80c18 0 24 6 24 24v300h-138v36h138v254c0 22 -15 34 -37 34c-68 0 -121 -90 -144 -172c-17 -60 -21 -94 -21 -94
h-32z" />
    <glyph glyph-name="tbar" unicode="&#x167;" horiz-adv-x="364" 
d="M20 324v28h60v94h-60v28c77 10 128 66 128 156v36h48v-192h102v-28h-102v-94h102v-28h-102v-219c0 -34 5 -73 46 -73c65 0 70 126 70 186h28c0 -68 -8 -142 -31 -179c-20 -32 -53 -51 -97 -51c-84 0 -132 46 -132 124v212h-60z" />
    <glyph glyph-name="Utilde" unicode="&#x168;" horiz-adv-x="794" 
d="M282 800c0 48 34 108 88 108c33 0 54 -9 82 -21c21 -9 40 -15 64 -15s36 16 40 40h22c0 -48 -34 -108 -88 -108c-33 0 -54 9 -82 21c-21 9 -40 15 -64 15s-36 -16 -40 -40h-22zM68 680v32h324v-32h-64c-18 0 -24 -6 -24 -24v-458c0 -123 46 -176 143 -176
c100 0 171 80 171 176v392c0 64 -52 90 -104 90v32h248v-32c-52 0 -104 -26 -104 -90v-382c0 -125 -88 -226 -239 -226c-190 0 -263 126 -263 255v419c0 18 -6 24 -24 24h-64z" />
    <glyph glyph-name="utilde" unicode="&#x169;" horiz-adv-x="550" 
d="M110 564c0 48 34 108 88 108c33 0 54 -9 82 -21c21 -9 40 -15 64 -15s36 16 40 40h22c0 -48 -34 -108 -88 -108c-33 0 -54 9 -82 21c-21 9 -40 15 -64 15s-36 -16 -40 -40h-22zM24 450v24h180v-377c0 -41 9 -77 46 -77c41 0 98 91 98 200v214c0 12 -4 16 -16 16h-48v24
h180v-434c0 -12 4 -16 16 -16h38v-24h-170v89l-5 1c-25 -58 -66 -102 -124 -102c-34 0 -56 7 -77 22c-34 25 -54 72 -54 116v308c0 12 -4 16 -16 16h-48z" />
    <glyph glyph-name="Umacron" unicode="&#x16a;" horiz-adv-x="794" 
d="M282 810v64h296v-64h-296zM68 680v32h324v-32h-64c-18 0 -24 -6 -24 -24v-458c0 -123 46 -176 143 -176c100 0 171 80 171 176v392c0 64 -52 90 -104 90v32h248v-32c-52 0 -104 -26 -104 -90v-382c0 -125 -88 -226 -239 -226c-190 0 -263 126 -263 255v419
c0 18 -6 24 -24 24h-64z" />
    <glyph glyph-name="umacron" unicode="&#x16b;" horiz-adv-x="550" 
d="M128 584v64h260v-64h-260zM24 450v24h180v-377c0 -41 9 -77 46 -77c41 0 98 91 98 200v214c0 12 -4 16 -16 16h-48v24h180v-434c0 -12 4 -16 16 -16h38v-24h-170v89l-5 1c-25 -58 -66 -102 -124 -102c-34 0 -56 7 -77 22c-34 25 -54 72 -54 116v308c0 12 -4 16 -16 16
h-48z" />
    <glyph glyph-name="Ubreve" unicode="&#x16c;" horiz-adv-x="794" 
d="M275 916h32c12 -56 49 -90 123 -90s111 34 123 90h32c0 -60 -49 -154 -155 -154s-155 94 -155 154zM68 680v32h324v-32h-64c-18 0 -24 -6 -24 -24v-458c0 -123 46 -176 143 -176c100 0 171 80 171 176v392c0 64 -52 90 -104 90v32h248v-32c-52 0 -104 -26 -104 -90v-382
c0 -125 -88 -226 -239 -226c-190 0 -263 126 -263 255v419c0 18 -6 24 -24 24h-64z" />
    <glyph glyph-name="ubreve" unicode="&#x16d;" horiz-adv-x="550" 
d="M118 694h28c10 -52 48 -86 112 -86s102 34 112 86h28c-8 -88 -58 -154 -140 -154s-132 66 -140 154zM24 450v24h180v-377c0 -41 9 -77 46 -77c41 0 98 91 98 200v214c0 12 -4 16 -16 16h-48v24h180v-434c0 -12 4 -16 16 -16h38v-24h-170v89l-5 1
c-25 -58 -66 -102 -124 -102c-34 0 -56 7 -77 22c-34 25 -54 72 -54 116v308c0 12 -4 16 -16 16h-48z" />
    <glyph glyph-name="Uring" unicode="&#x16e;" horiz-adv-x="794" 
d="M319 850c0 56 45 96 111 96s111 -40 111 -96s-45 -96 -111 -96s-111 40 -111 96zM363 850c0 -32 29 -52 67 -52s67 20 67 52s-29 52 -67 52s-67 -20 -67 -52zM68 680v32h324v-32h-64c-18 0 -24 -6 -24 -24v-458c0 -123 46 -176 143 -176c100 0 171 80 171 176v392
c0 64 -52 90 -104 90v32h248v-32c-52 0 -104 -26 -104 -90v-382c0 -125 -88 -226 -239 -226c-190 0 -263 126 -263 255v419c0 18 -6 24 -24 24h-64z" />
    <glyph glyph-name="uring" unicode="&#x16f;" horiz-adv-x="550" 
d="M151 623c0 60 47 107 107 107s107 -47 107 -107s-47 -107 -107 -107s-107 47 -107 107zM195 623c0 -38 25 -63 63 -63s63 25 63 63s-25 63 -63 63s-63 -25 -63 -63zM24 450v24h180v-377c0 -41 9 -77 46 -77c41 0 98 91 98 200v214c0 12 -4 16 -16 16h-48v24h180v-434
c0 -12 4 -16 16 -16h38v-24h-170v89l-5 1c-25 -58 -66 -102 -124 -102c-34 0 -56 7 -77 22c-34 25 -54 72 -54 116v308c0 12 -4 16 -16 16h-48z" />
    <glyph glyph-name="Uhungarumlaut" unicode="&#x170;" horiz-adv-x="794" 
d="M470 780l85 138c14 23 29 32 47 32c24 0 40 -18 40 -38c0 -18 -10 -33 -27 -46l-125 -104zM336 780l85 138c14 23 29 32 47 32c24 0 40 -18 40 -38c0 -18 -10 -33 -27 -46l-125 -104zM68 680v32h324v-32h-64c-18 0 -24 -6 -24 -24v-458c0 -123 46 -176 143 -176
c100 0 171 80 171 176v392c0 64 -52 90 -104 90v32h248v-32c-52 0 -104 -26 -104 -90v-382c0 -125 -88 -226 -239 -226c-190 0 -263 126 -263 255v419c0 18 -6 24 -24 24h-64z" />
    <glyph glyph-name="uhungarumlaut" unicode="&#x171;" horiz-adv-x="550" 
d="M298 542l85 138c14 23 29 32 47 32c24 0 40 -18 40 -38c0 -18 -10 -33 -27 -46l-125 -104zM164 542l85 138c14 23 29 32 47 32c24 0 40 -18 40 -38c0 -18 -10 -33 -27 -46l-125 -104zM24 450v24h180v-377c0 -41 9 -77 46 -77c41 0 98 91 98 200v214c0 12 -4 16 -16 16
h-48v24h180v-434c0 -12 4 -16 16 -16h38v-24h-170v89l-5 1c-25 -58 -66 -102 -124 -102c-34 0 -56 7 -77 22c-34 25 -54 72 -54 116v308c0 12 -4 16 -16 16h-48z" />
    <glyph glyph-name="Uogonek" unicode="&#x172;" horiz-adv-x="794" 
d="M68 680v32h324v-32h-64c-18 0 -24 -6 -24 -24v-458c0 -123 46 -176 143 -176c100 0 171 80 171 176v392c0 64 -52 90 -104 90v32h248v-32c-52 0 -104 -26 -104 -90v-382c0 -92 -44 -161 -117 -199c-69 -36 -103 -83 -103 -142c0 -31 16 -51 44 -51c31 0 48 11 64 27
l19 -19c-21 -30 -54 -62 -108 -62c-59 0 -99 40 -99 94c0 55 37 94 83 124l-1 3c-10 -1 -15 -1 -21 -1c-190 0 -263 126 -263 255v419c0 18 -6 24 -24 24h-64z" />
    <glyph glyph-name="uogonek" unicode="&#x173;" horiz-adv-x="550" 
d="M24 450v24h180v-377c0 -41 9 -77 46 -77c41 0 98 91 98 200v214c0 12 -4 16 -16 16h-48v24h180v-434c0 -12 4 -16 16 -16h38v-24h-16c-54 -40 -80 -70 -80 -123c0 -27 18 -41 42 -41c26 0 38 12 52 32l20 -14c-18 -41 -56 -74 -99 -74s-83 30 -83 78c0 58 52 104 108 140
l-1 2h-113v89l-5 1c-25 -58 -66 -102 -124 -102c-34 0 -56 7 -77 22c-34 25 -54 72 -54 116v308c0 12 -4 16 -16 16h-48z" />
    <glyph glyph-name="Wcircumflex" unicode="&#x174;" horiz-adv-x="1076" 
d="M404 786c67 35 114 82 148 144h40c30 -58 76 -108 148 -144l-12 -24c-62 22 -101 45 -156 80c-55 -35 -94 -58 -156 -80zM44 680v32h325v-32h-29c-19 0 -31 -16 -31 -35c0 -6 2 -17 5 -25l126 -385l94 320l-22 67c-15 44 -35 58 -79 58h-17v32h328v-32h-49
c-19 0 -32 -15 -32 -29c0 -6 1 -14 3 -22l127 -390l91 329c3 9 7 38 7 54c0 24 -12 58 -53 58h-50v32h270v-32h-31c-51 0 -80 -41 -96 -91l-169 -607h-42l-164 506l-148 -506h-42l-208 633c-14 42 -37 65 -95 65h-19z" />
    <glyph glyph-name="wcircumflex" unicode="&#x175;" horiz-adv-x="776" 
d="M258 548c75 49 100 114 116 160h68c16 -46 41 -111 116 -160l-16 -24c-46 22 -102 62 -134 96c-32 -34 -88 -74 -134 -96zM18 450v24h231v-24h-19c-11 0 -20 -9 -20 -26c0 -6 2 -16 6 -28l90 -251l73 204l-15 43c-14 39 -28 58 -57 58h-13v24h233v-24h-29
c-11 0 -24 -9 -24 -26c0 -6 2 -16 6 -28l80 -238l76 211c5 16 7 29 7 45c0 17 -14 36 -35 36h-26v24h170v-24h-22c-22 0 -41 -20 -56 -62l-144 -400h-32l-105 319l-115 -319h-32l-146 404c-14 39 -28 58 -65 58h-17z" />
    <glyph glyph-name="Ycircumflex" unicode="&#x176;" horiz-adv-x="736" 
d="M236 786c67 35 114 82 148 144h40c30 -58 76 -108 148 -144l-12 -24c-62 22 -101 45 -156 80c-55 -35 -94 -58 -156 -80zM46 680v32h314v-32h-28c-20 0 -28 -18 -28 -32c0 -8 2 -20 6 -28l132 -287l92 229c7 16 14 40 14 57c0 28 -14 61 -54 61h-28v32h248v-32h-30
c-49 0 -78 -39 -91 -73l-135 -329v-222c0 -18 6 -24 24 -24h64v-32h-324v32h64c18 0 24 6 24 24v213l-170 367c-16 35 -32 44 -59 44h-35z" />
    <glyph glyph-name="ycircumflex" unicode="&#x177;" horiz-adv-x="524" 
d="M120 548c75 49 100 114 116 160h68c16 -46 41 -111 116 -160l-16 -24c-46 22 -102 62 -134 96c-32 -34 -88 -74 -134 -96zM12 450v24h245v-24h-29c-11 0 -24 -9 -24 -26c0 -6 2 -16 7 -28l103 -247l65 219c4 16 7 28 7 44c0 18 -10 38 -31 38h-26v24h165v-24h-22
c-22 0 -47 -19 -60 -62l-152 -505c-17 -58 -48 -121 -109 -121c-56 0 -91 38 -91 91c0 43 30 83 74 83c33 0 55 -23 55 -50c0 -18 -10 -34 -19 -42c-7 -6 -14 -14 -14 -26c0 -10 6 -24 23 -24c26 0 41 45 50 74l33 110l-173 414c-16 38 -26 58 -62 58h-15z" />
    <glyph glyph-name="Ydieresis" unicode="&#x178;" horiz-adv-x="736" 
d="M450 854c0 33 27 60 60 60s60 -27 60 -60s-27 -60 -60 -60s-60 27 -60 60zM238 854c0 33 27 60 60 60s60 -27 60 -60s-27 -60 -60 -60s-60 27 -60 60zM46 680v32h314v-32h-28c-20 0 -28 -18 -28 -32c0 -8 2 -20 6 -28l132 -287l92 229c7 16 14 40 14 57
c0 28 -14 61 -54 61h-28v32h248v-32h-30c-49 0 -78 -39 -91 -73l-135 -329v-222c0 -18 6 -24 24 -24h64v-32h-324v32h64c18 0 24 6 24 24v213l-170 367c-16 35 -32 44 -59 44h-35z" />
    <glyph glyph-name="Zacute" unicode="&#x179;" horiz-adv-x="652" 
d="M314 778l89 138c16 25 31 32 49 32c24 0 42 -16 42 -40c0 -18 -11 -35 -28 -48l-132 -100zM68 0v32l352 648h-126c-50 0 -118 -57 -151 -138c-17 -43 -23 -85 -23 -86h-32l12 256h488v-34l-351 -646h137c78 0 138 83 162 130c28 56 38 120 38 120h32l-16 -282h-522z" />
    <glyph glyph-name="zacute" unicode="&#x17a;" horiz-adv-x="460" 
d="M194 542l89 138c16 25 31 32 49 32c24 0 42 -16 42 -40c0 -18 -11 -35 -28 -48l-132 -100zM32 0v26l250 424h-68c-45 0 -75 -23 -94 -52c-29 -45 -36 -100 -36 -100h-24l6 176h348v-20l-254 -430h86c49 0 98 43 120 92c20 42 22 92 22 92h24l-6 -208h-374z" />
    <glyph glyph-name="Zdotaccent" unicode="&#x17b;" horiz-adv-x="652" 
d="M278 854c0 40 28 68 68 68s68 -28 68 -68s-28 -68 -68 -68s-68 28 -68 68zM68 0v32l352 648h-126c-50 0 -118 -57 -151 -138c-17 -43 -23 -85 -23 -86h-32l12 256h488v-34l-351 -646h137c78 0 138 83 162 130c28 56 38 120 38 120h32l-16 -282h-522z" />
    <glyph glyph-name="zdotaccent" unicode="&#x17c;" horiz-adv-x="460" 
d="M164 618c0 42 32 74 74 74s74 -32 74 -74s-32 -74 -74 -74s-74 32 -74 74zM32 0v26l250 424h-68c-45 0 -75 -23 -94 -52c-29 -45 -36 -100 -36 -100h-24l6 176h348v-20l-254 -430h86c49 0 98 43 120 92c20 42 22 92 22 92h24l-6 -208h-374z" />
    <glyph glyph-name="Zcaron" unicode="&#x17d;" horiz-adv-x="652" 
d="M182 898l16 22l148 -86l148 86l16 -22l-140 -136h-48zM68 0v32l352 648h-126c-50 0 -118 -57 -151 -138c-17 -43 -23 -85 -23 -86h-32l12 256h488v-34l-351 -646h137c78 0 138 83 162 130c28 56 38 120 38 120h32l-16 -282h-522z" />
    <glyph glyph-name="zcaron" unicode="&#x17e;" horiz-adv-x="460" 
d="M92 678l16 16l130 -98l130 98l16 -16l-122 -154h-48zM32 0v26l250 424h-68c-45 0 -75 -23 -94 -52c-29 -45 -36 -100 -36 -100h-24l6 176h348v-20l-254 -430h86c49 0 98 43 120 92c20 42 22 92 22 92h24l-6 -208h-374z" />
    <glyph glyph-name="longs" unicode="&#x17f;" horiz-adv-x="342" 
d="M22 0v24h56c12 0 16 4 16 16v482c0 133 101 198 183 198c75 0 121 -51 121 -117c0 -40 -32 -74 -74 -74c-28 0 -59 19 -59 55c0 28 18 45 28 54c11 10 17 20 17 32c0 21 -22 26 -37 26c-27 0 -63 -25 -63 -132v-524c0 -12 4 -16 16 -16h56v-24h-260z" />
    <glyph glyph-name="uni0180" unicode="&#x180;" horiz-adv-x="528" 
d="M200 234c0 -120 40 -214 86 -214c48 0 66 89 66 217s-18 217 -66 217c-32 0 -86 -64 -86 -220zM12 564v28h72v80c0 12 -4 16 -16 16h-56v24h188v-120h168v-28h-168v-147l6 -2c20 41 53 71 98 71c107 0 176 -123 176 -249s-73 -249 -180 -249c-54 0 -84 35 -104 65
c-16 25 -24 33 -39 33c-11 0 -21 -10 -29 -28l-28 -58h-16v564h-72z" />
    <glyph glyph-name="uni0186" unicode="&#x186;" horiz-adv-x="660" 
d="M68 437c4 55 17 119 41 166c40 78 111 127 211 127c194 0 290 -186 290 -374c0 -200 -104 -374 -280 -374c-54 0 -95 22 -135 49c-14 9 -26 15 -34 15c-12 0 -17 -8 -22 -19l-18 -37h-33v307h32c30 -171 110 -283 210 -283c56 0 110 48 110 192v300
c0 144 -64 192 -120 192c-94 0 -147 -53 -177 -109c-24 -45 -34 -105 -39 -152h-36z" />
    <glyph glyph-name="uni018E" unicode="&#x18e;" horiz-adv-x="690" 
d="M82 276h32s8 -65 21 -102c19 -54 66 -142 148 -142h109c18 0 24 6 24 24v288h-51c-56 0 -100 -80 -100 -139h-32v313h32c0 -58 44 -138 100 -138h51v276c0 18 -6 24 -24 24h-110c-52 0 -92 -37 -120 -86c-30 -50 -40 -114 -40 -114h-32l6 232h562v-32h-70
c-18 0 -24 -6 -24 -24v-600c0 -18 6 -24 24 -24h70v-32h-570z" />
    <glyph glyph-name="uni018F" unicode="&#x18f;" horiz-adv-x="680" 
d="M70 368h390v102c-3 144 -38 228 -144 228c-64 0 -119 -45 -152 -102c-25 -43 -40 -100 -47 -129h-36c7 36 26 97 53 143c41 70 104 120 197 120c199 0 299 -162 299 -358c0 -250 -124 -390 -285 -390s-275 152 -275 386zM240 243c0 -150 42 -229 110 -229
c72 0 110 80 110 230v87h-220v-88z" />
    <glyph glyph-name="uni0190" unicode="&#x190;" horiz-adv-x="628" 
d="M64 175c0 127 121 181 213 194v11c-69 9 -196 43 -196 164c0 89 79 186 234 186c58 0 106 -17 136 -37c11 -8 26 -17 35 -17s15 7 19 22l7 24h40v-260h-40c-16 152 -95 236 -170 236c-66 0 -107 -48 -107 -155c0 -102 54 -151 117 -151h67v-37h-72
c-71 0 -113 -59 -113 -174c0 -116 52 -167 125 -167c43 0 125 27 125 82c0 10 -6 26 -22 39c-15 12 -36 38 -36 61c0 32 26 67 70 67c59 0 84 -50 84 -99c0 -113 -121 -182 -240 -182c-140 0 -276 52 -276 193z" />
    <glyph glyph-name="florin" unicode="&#x192;" horiz-adv-x="580" 
d="M-26 -57c0 49 37 84 77 84c36 0 56 -28 56 -57c0 -18 -11 -38 -21 -48c-9 -9 -14 -16 -14 -30c0 -17 10 -26 29 -26c67 0 84 154 104 407c3 39 8 105 13 173h-112l6 28h108c6 61 19 114 36 147c36 68 92 103 166 103c66 0 112 -54 112 -114c0 -48 -38 -77 -75 -77
c-26 0 -58 19 -58 55c0 23 11 39 25 51c12 10 20 25 20 36c0 7 -8 25 -28 25c-74 0 -82 -144 -85 -226h116l-6 -28h-112c-3 -130 -27 -356 -65 -446c-25 -59 -74 -162 -180 -162c-59 0 -112 39 -112 105z" />
    <glyph glyph-name="uni0195" unicode="&#x195;" horiz-adv-x="718" 
d="M26 0v24h56c12 0 16 4 16 16v632c0 12 -4 16 -16 16h-56v24h188v-327l5 -1c25 58 66 102 124 102c34 0 56 -7 77 -22c34 -25 54 -72 54 -116v-226c0 -35 12 -98 59 -98c69 0 105 95 105 170c0 65 -17 112 -66 146c-30 21 -62 46 -62 86c0 33 22 57 56 57
c49 0 72 -46 84 -78c15 -41 20 -104 20 -165c0 -125 -39 -252 -174 -252c-86 0 -138 44 -138 156v233c0 41 -9 77 -46 77c-41 0 -98 -91 -98 -200v-214c0 -12 4 -16 16 -16h32v-24h-236z" />
    <glyph glyph-name="uni01A6" unicode="&#x1a6;" horiz-adv-x="722" 
d="M304 274h67c75 0 95 64 95 148s-20 136 -95 136h-43c-18 0 -24 -6 -24 -24v-260zM62 0v32h70c18 0 24 6 24 24v600c0 18 -6 24 -24 24h-70v32h342v-32h-76c-18 0 -24 -6 -24 -24v-66h82c142 0 240 -66 240 -176c0 -96 -80 -147 -184 -159v-7c94 -17 162 -60 162 -185
v-132c0 -30 10 -42 28 -42c38 0 50 77 50 148h32c0 -116 -23 -204 -119 -204c-82 0 -139 48 -139 150v145c0 58 -26 114 -96 114h-56v-186c0 -18 6 -24 24 -24h76v-32h-342z" />
    <glyph glyph-name="uni01B7" unicode="&#x1b7;" horiz-adv-x="634" 
d="M62 158c0 78 54 114 99 114c47 0 73 -34 73 -70c0 -44 -28 -66 -56 -81c-21 -11 -25 -25 -25 -39c0 -41 57 -68 134 -68c93 0 141 72 141 186c0 99 -28 178 -110 178c-34 0 -59 -10 -94 -40l-19 20l219 230h-213c-31 0 -55 -6 -80 -44c-23 -34 -24 -84 -24 -84h-32
l14 252h468v-37l-246 -259l3 -6h56c135 0 228 -92 228 -209c0 -131 -117 -219 -311 -219c-150 0 -225 85 -225 176z" />
    <glyph glyph-name="uni01BF" unicode="&#x1bf;" horiz-adv-x="524" 
d="M208 45c34 18 42 23 70 49c43 41 78 117 78 272c0 56 -18 76 -45 76c-36 0 -103 -61 -103 -189v-208zM20 -209l60 31c7 4 12 12 12 28v524c0 12 -3 18 -10 18c-2 0 -5 -1 -11 -4l-36 -19l-15 29l144 76h44v-77l5 -2c47 73 99 91 151 91c63 0 114 -45 114 -128
c0 -82 -60 -189 -155 -267c-42 -35 -77 -54 -115 -73v-167l-173 -89z" />
    <glyph glyph-name="uni01C4" unicode="&#x1c4;" horiz-adv-x="1438" 
d="M854 0v32l352 648h-126c-50 0 -118 -57 -151 -138c-17 -43 -23 -85 -23 -86h-32l12 256h488v-34l-351 -646h137c78 0 138 83 162 130c28 56 38 120 38 120h32l-16 -282h-522zM968 898l16 22l148 -86l148 86l16 -22l-140 -136h-48zM304 56c0 -18 6 -24 24 -24h89
c80 0 149 54 149 174v300c0 120 -69 174 -149 174h-89c-18 0 -24 -6 -24 -24v-600zM62 0v32h70c18 0 24 6 24 24v600c0 18 -6 24 -24 24h-70v32h372c166 0 302 -142 302 -350s-136 -362 -302 -362h-372z" />
    <glyph glyph-name="uni01C5" unicode="&#x1c5;" horiz-adv-x="1246" 
d="M818 0v26l250 424h-68c-45 0 -75 -23 -94 -52c-29 -45 -36 -100 -36 -100h-24l6 176h348v-20l-254 -430h86c49 0 98 43 120 92c20 42 22 92 22 92h24l-6 -208h-374zM878 678l16 16l130 -98l130 98l16 -16l-122 -154h-48zM304 56c0 -18 6 -24 24 -24h89
c80 0 149 54 149 174v300c0 120 -69 174 -149 174h-89c-18 0 -24 -6 -24 -24v-600zM62 0v32h70c18 0 24 6 24 24v600c0 18 -6 24 -24 24h-70v32h372c166 0 302 -142 302 -350s-136 -362 -302 -362h-372z" />
    <glyph glyph-name="uni01C6" unicode="&#x1c6;" horiz-adv-x="998" 
d="M570 0v26l250 424h-68c-45 0 -75 -23 -94 -52c-29 -45 -36 -100 -36 -100h-24l6 176h348v-20l-254 -430h86c49 0 98 43 120 92c20 42 22 92 22 92h24l-6 -208h-374zM630 678l16 16l130 -98l130 98l16 -16l-122 -154h-48zM176 237c0 -128 18 -217 66 -217
c46 0 86 94 86 214c0 156 -54 220 -86 220c-48 0 -66 -89 -66 -217zM48 237c0 126 69 249 176 249c45 0 78 -30 98 -71l6 2v255c0 12 -4 16 -16 16h-56v24h188v-672c0 -12 4 -16 16 -16h56v-24h-188v58h-6c-15 -32 -47 -70 -94 -70c-107 0 -180 123 -180 249z" />
    <glyph glyph-name="uni01C7" unicode="&#x1c7;" horiz-adv-x="1210" 
d="M706 154c0 72 46 117 90 117s71 -33 71 -69c0 -50 -33 -74 -61 -84c-23 -8 -32 -20 -32 -42c0 -26 39 -62 98 -62c53 0 76 42 76 116v526c0 18 -6 24 -24 24h-80v32h338v-32h-62c-18 0 -24 -6 -24 -24v-462c0 -136 -110 -212 -212 -212c-96 0 -178 59 -178 172zM62 0v32
h70c18 0 24 9 24 27v597c0 18 -6 24 -24 24h-70v32h336v-32h-70c-18 0 -24 -6 -24 -24v-597c0 -18 6 -27 24 -27h101c82 0 133 119 150 174c11 37 25 102 25 102h32l-8 -308h-566z" />
    <glyph glyph-name="uni01C8" unicode="&#x1c8;" horiz-adv-x="990" 
d="M618 -126c0 46 36 79 74 79c28 0 59 -17 59 -53c0 -28 -18 -47 -28 -56c-11 -10 -17 -20 -17 -32c0 -21 22 -26 37 -26c27 0 47 25 47 132v516c0 12 -4 16 -16 16h-56v24h188v-514c0 -133 -77 -198 -159 -198c-75 0 -129 46 -129 112zM774 650c0 42 32 74 74 74
s74 -32 74 -74s-32 -74 -74 -74s-74 32 -74 74zM62 0v32h70c18 0 24 9 24 27v597c0 18 -6 24 -24 24h-70v32h336v-32h-70c-18 0 -24 -6 -24 -24v-597c0 -18 6 -27 24 -27h101c82 0 133 119 150 174c11 37 25 102 25 102h32l-8 -308h-566z" />
    <glyph glyph-name="uni01C9" unicode="&#x1c9;" horiz-adv-x="628" 
d="M256 -126c0 46 36 79 74 79c28 0 59 -17 59 -53c0 -28 -18 -47 -28 -56c-11 -10 -17 -20 -17 -32c0 -21 22 -26 37 -26c27 0 47 25 47 132v516c0 12 -4 16 -16 16h-56v24h188v-514c0 -133 -77 -198 -159 -198c-75 0 -129 46 -129 112zM412 650c0 42 32 74 74 74
s74 -32 74 -74s-32 -74 -74 -74s-74 32 -74 74zM26 0v24h56c12 0 16 4 16 16v632c0 12 -4 16 -16 16h-56v24h188v-672c0 -12 4 -16 16 -16h56v-24h-260z" />
    <glyph glyph-name="uni01CA" unicode="&#x1ca;" horiz-adv-x="1304" 
d="M800 154c0 72 46 117 90 117s71 -33 71 -69c0 -50 -33 -74 -61 -84c-23 -8 -32 -20 -32 -42c0 -26 39 -62 98 -62c53 0 76 42 76 116v526c0 18 -6 24 -24 24h-80v32h338v-32h-62c-18 0 -24 -6 -24 -24v-462c0 -136 -110 -212 -212 -212c-96 0 -178 59 -178 172zM48 0v32
c72 0 126 42 126 104v427c0 15 -2 18 -11 31l-40 60c-13 19 -25 26 -57 26h-18v32h222l320 -457v321c0 62 -54 104 -126 104v32h292v-32c-72 0 -126 -42 -126 -104v-594h-38l-374 535h-4v-381c0 -62 54 -104 126 -104v-32h-292z" />
    <glyph glyph-name="uni01CB" unicode="&#x1cb;" horiz-adv-x="1084" 
d="M712 -126c0 46 36 79 74 79c28 0 59 -17 59 -53c0 -28 -18 -47 -28 -56c-11 -10 -17 -20 -17 -32c0 -21 22 -26 37 -26c27 0 47 25 47 132v516c0 12 -4 16 -16 16h-56v24h188v-514c0 -133 -77 -198 -159 -198c-75 0 -129 46 -129 112zM868 650c0 42 32 74 74 74
s74 -32 74 -74s-32 -74 -74 -74s-74 32 -74 74zM48 0v32c72 0 126 42 126 104v427c0 15 -2 18 -11 31l-40 60c-13 19 -25 26 -57 26h-18v32h222l320 -457v321c0 62 -54 104 -126 104v32h292v-32c-72 0 -126 -42 -126 -104v-594h-38l-374 535h-4v-381c0 -62 54 -104 126 -104
v-32h-292z" />
    <glyph glyph-name="uni01CC" unicode="&#x1cc;" horiz-adv-x="876" 
d="M504 -126c0 46 36 79 74 79c28 0 59 -17 59 -53c0 -28 -18 -47 -28 -56c-11 -10 -17 -20 -17 -32c0 -21 22 -26 37 -26c27 0 47 25 47 132v516c0 12 -4 16 -16 16h-56v24h188v-514c0 -133 -77 -198 -159 -198c-75 0 -129 46 -129 112zM660 650c0 42 32 74 74 74
s74 -32 74 -74s-32 -74 -74 -74s-74 32 -74 74zM40 0v24h38c12 0 16 4 16 16v394c0 12 -4 16 -16 16h-38v24h170v-89l5 -1c25 58 66 102 124 102c34 0 56 -7 77 -22c34 -25 54 -72 54 -116v-308c0 -12 4 -16 16 -16h38v-24h-218v24h32c12 0 16 4 16 16v337
c0 41 -9 77 -46 77c-41 0 -98 -91 -98 -200v-214c0 -12 4 -16 16 -16h32v-24h-218z" />
    <glyph glyph-name="uni01DD" unicode="&#x1dd;" horiz-adv-x="472" 
d="M50 312c7 74 47 174 161 174c128 0 213 -112 213 -249c0 -144 -91 -249 -202 -249c-82 0 -144 64 -163 158c-7 32 -7 88 -7 100h244c0 51 0 90 -11 129c-12 49 -49 81 -94 81c-71 0 -108 -76 -115 -144h-26zM168 218c0 -130 12 -206 64 -206s64 76 64 206h-128z" />
    <glyph glyph-name="uni01E2" unicode="&#x1e2;" horiz-adv-x="1004" 
d="M502 810v64h296v-64h-296zM26 0v32h23c50 0 97 39 122 88l241 471c13 26 22 44 22 63c0 14 -10 26 -29 26h-29v32h568l6 -232h-32s-10 64 -40 114c-28 49 -68 86 -120 86h-110c-18 0 -24 -6 -24 -24v-276h51c56 0 100 80 100 138h32v-313h-32c0 59 -44 139 -100 139h-51
v-288c0 -18 6 -24 24 -24h109c82 0 129 88 148 142c13 37 21 102 21 102h32l-6 -276h-571v32h70c18 0 24 6 24 24v154h-209l-23 -44c-14 -26 -29 -66 -29 -83c0 -22 7 -51 49 -51h33v-32h-270zM283 246h192v374z" />
    <glyph glyph-name="uni01E3" unicode="&#x1e3;" horiz-adv-x="700" 
d="M230 584v64h260v-64h-260zM46 107c0 100 103 141 168 164l74 26v68c0 73 -38 97 -77 97c-34 0 -67 -16 -67 -47c0 -6 3 -20 16 -29c18 -11 28 -22 28 -45c0 -35 -31 -51 -56 -51c-31 0 -63 21 -63 68c0 81 78 128 149 128c47 0 92 -10 132 -44c36 32 85 44 128 44
c82 0 144 -64 163 -158c7 -32 7 -88 7 -100h-244c0 -51 0 -90 11 -129c12 -49 49 -81 94 -81c71 0 108 76 115 144h26c-7 -74 -47 -174 -161 -174c-64 0 -127 27 -161 78c-32 -44 -76 -78 -154 -78c-58 0 -128 26 -128 119zM168 115c0 -74 38 -87 56 -87c26 0 47 12 64 38
v203l-56 -19c-44 -15 -64 -61 -64 -135zM404 256h128c0 130 -12 206 -64 206s-64 -76 -64 -206z" />
    <glyph glyph-name="Oogonek" unicode="&#x1ea;" horiz-adv-x="712" 
d="M70 356c0 192 138 374 296 374s296 -182 296 -374c0 -175 -110 -330 -245 -370c-49 -14 -93 -44 -93 -119c0 -31 16 -51 44 -51c31 0 48 11 64 27l19 -19c-21 -30 -54 -62 -108 -62c-59 0 -99 40 -99 94s46 91 95 123l-1 5c-149 22 -268 192 -268 372zM240 206
c0 -144 50 -192 126 -192s126 48 126 192v300c0 144 -50 192 -126 192s-126 -48 -126 -192v-300z" />
    <glyph glyph-name="oogonek" unicode="&#x1eb;" horiz-adv-x="504" 
d="M48 237c0 144 96 249 204 249s204 -105 204 -249c0 -128 -73 -218 -166 -247c-49 -15 -82 -60 -82 -113c0 -27 18 -41 42 -41c26 0 38 12 52 32l20 -14c-18 -41 -56 -74 -99 -74s-83 30 -83 78c0 52 42 94 94 128l-1 3c-102 12 -185 116 -185 248zM176 237
c0 -152 16 -225 76 -225s76 73 76 225s-16 225 -76 225s-76 -73 -76 -225z" />
    <glyph glyph-name="uni01EC" unicode="&#x1ec;" horiz-adv-x="712" 
d="M218 810v64h296v-64h-296zM70 356c0 192 138 374 296 374s296 -182 296 -374c0 -175 -110 -330 -245 -370c-49 -14 -93 -44 -93 -119c0 -31 16 -51 44 -51c31 0 48 11 64 27l19 -19c-21 -30 -54 -62 -108 -62c-59 0 -99 40 -99 94s46 91 95 123l-1 5
c-149 22 -268 192 -268 372zM240 206c0 -144 50 -192 126 -192s126 48 126 192v300c0 144 -50 192 -126 192s-126 -48 -126 -192v-300z" />
    <glyph glyph-name="uni01ED" unicode="&#x1ed;" horiz-adv-x="496" 
d="M122 584v64h260v-64h-260zM48 237c0 144 96 249 204 249s204 -105 204 -249c0 -128 -73 -218 -166 -247c-49 -15 -82 -60 -82 -113c0 -27 18 -41 42 -41c26 0 38 12 52 32l20 -14c-18 -41 -56 -74 -99 -74s-83 30 -83 78c0 52 42 94 94 128l-1 3
c-102 12 -185 116 -185 248zM176 237c0 -152 16 -225 76 -225s76 73 76 225s-16 225 -76 225s-76 -73 -76 -225z" />
    <glyph glyph-name="uni01F0" unicode="&#x1f0;" horiz-adv-x="320" 
d="M18 678l16 16l130 -98l130 98l16 -16l-122 -154h-48zM-52 -126c0 46 36 79 74 79c28 0 59 -17 59 -53c0 -28 -18 -47 -28 -56c-11 -10 -17 -20 -17 -32c0 -21 22 -26 37 -26c27 0 47 25 47 132v516c0 12 -4 16 -16 16h-56v24h188v-514c0 -133 -77 -198 -159 -198
c-75 0 -129 46 -129 112z" />
    <glyph glyph-name="uni01F1" unicode="&#x1f1;" horiz-adv-x="1438" 
d="M854 0v32l352 648h-126c-50 0 -118 -57 -151 -138c-17 -43 -23 -85 -23 -86h-32l12 256h488v-34l-351 -646h137c78 0 138 83 162 130c28 56 38 120 38 120h32l-16 -282h-522zM304 56c0 -18 6 -24 24 -24h89c80 0 149 54 149 174v300c0 120 -69 174 -149 174h-89
c-18 0 -24 -6 -24 -24v-600zM62 0v32h70c18 0 24 6 24 24v600c0 18 -6 24 -24 24h-70v32h372c166 0 302 -142 302 -350s-136 -362 -302 -362h-372z" />
    <glyph glyph-name="uni01F2" unicode="&#x1f2;" horiz-adv-x="1246" 
d="M818 0v26l250 424h-68c-45 0 -75 -23 -94 -52c-29 -45 -36 -100 -36 -100h-24l6 176h348v-20l-254 -430h86c49 0 98 43 120 92c20 42 22 92 22 92h24l-6 -208h-374zM304 56c0 -18 6 -24 24 -24h89c80 0 149 54 149 174v300c0 120 -69 174 -149 174h-89
c-18 0 -24 -6 -24 -24v-600zM62 0v32h70c18 0 24 6 24 24v600c0 18 -6 24 -24 24h-70v32h372c166 0 302 -142 302 -350s-136 -362 -302 -362h-372z" />
    <glyph glyph-name="uni01F3" unicode="&#x1f3;" horiz-adv-x="998" 
d="M570 0v26l250 424h-68c-45 0 -75 -23 -94 -52c-29 -45 -36 -100 -36 -100h-24l6 176h348v-20l-254 -430h86c49 0 98 43 120 92c20 42 22 92 22 92h24l-6 -208h-374zM176 237c0 -128 18 -217 66 -217c46 0 86 94 86 214c0 156 -54 220 -86 220c-48 0 -66 -89 -66 -217z
M48 237c0 126 69 249 176 249c45 0 78 -30 98 -71l6 2v255c0 12 -4 16 -16 16h-56v24h188v-672c0 -12 4 -16 16 -16h56v-24h-188v58h-6c-15 -32 -47 -70 -94 -70c-107 0 -180 123 -180 249z" />
    <glyph glyph-name="uni01F4" unicode="&#x1f4;" horiz-adv-x="720" 
d="M334 778l89 138c16 25 31 32 49 32c24 0 42 -16 42 -40c0 -18 -11 -35 -28 -48l-132 -100zM70 356c0 200 122 374 298 374c63 0 102 -22 142 -49c14 -9 25 -15 34 -15c11 0 17 8 22 19l17 37h33v-288h-31c-45 166 -117 264 -217 264c-76 0 -128 -48 -128 -192v-300
c0 -144 46 -192 110 -192c72 0 118 71 118 147v137c0 18 -6 24 -24 24h-88v32h332v-32h-48c-18 0 -24 -6 -24 -24v-311h-32l-24 91c-3 12 -11 25 -24 25c-14 0 -23 -8 -31 -21c-24 -37 -79 -100 -155 -100c-176 0 -280 175 -280 374z" />
    <glyph glyph-name="uni01F5" unicode="&#x1f5;" horiz-adv-x="554" 
d="M212 542l89 138c16 25 31 32 49 32c24 0 42 -16 42 -40c0 -18 -11 -35 -28 -48l-132 -100zM42 -114c0 43 34 84 94 98v3c-36 3 -78 33 -78 82c0 65 40 103 112 117v4c-42 18 -98 62 -98 140c0 94 87 156 182 156c71 0 115 -30 139 -52h3c19 32 44 52 74 52
c45 0 72 -32 72 -66c0 -40 -25 -74 -56 -74c-19 0 -40 12 -40 35c0 14 8 26 16 36c7 7 16 20 16 28s-5 16 -21 16s-33 -10 -51 -42c25 -27 32 -63 32 -97c0 -69 -70 -149 -186 -149c-64 0 -135 -5 -135 -53c0 -26 21 -35 49 -35h158c87 0 165 -40 165 -136
c0 -98 -83 -187 -225 -187c-117 0 -222 44 -222 124zM194 330c0 -91 17 -132 62 -132c44 0 60 41 60 132s-16 132 -60 132c-45 0 -62 -41 -62 -132zM78 -115c0 -63 90 -91 171 -91c82 0 173 33 173 108c0 55 -73 71 -149 71c-74 0 -195 -11 -195 -88z" />
    <glyph glyph-name="uni01F6" unicode="&#x1f6;" horiz-adv-x="976" 
d="M62 0v32h70c18 0 24 6 24 24v600c0 18 -12 24 -30 24h-64v32h336v-32h-70c-18 0 -24 -6 -24 -24v-264h224v264c0 18 -6 24 -24 24h-72v32h338v-32h-70c-18 0 -24 -6 -24 -24v-492c0 -88 32 -134 106 -134c67 0 116 77 116 155c0 39 -16 84 -73 101c-35 10 -79 33 -79 80
c0 32 26 64 68 64c50 0 78 -38 98 -82c19 -43 22 -105 22 -151c0 -109 -64 -215 -196 -215c-126 0 -210 66 -210 220v154h-224v-300c0 -18 6 -24 24 -24h70v-32h-336z" />
    <glyph glyph-name="uni01F7" unicode="&#x1f7;" horiz-adv-x="656" 
d="M292 116c35 14 72 35 100 72c41 53 68 150 68 270c0 74 -25 180 -80 180c-16 0 -27 -5 -46 -18l-42 -28v-476zM56 -140l74 36c10 5 14 13 14 29v682c0 12 -2 19 -10 19c-3 0 -10 -2 -15 -5l-46 -22l-14 30l189 93h44v-89l87 60c33 22 56 37 81 37c72 0 148 -106 148 -208
c0 -114 -29 -206 -96 -291c-56 -73 -141 -124 -220 -150v-145l-222 -106z" />
    <glyph glyph-name="Aringacute" unicode="&#x1fa;" horiz-adv-x="754" 
d="M371 889l67 53c9 7 17 10 28 10c13 0 20 -11 20 -21c0 -14 -14 -23 -27 -28l-79 -29zM312 804c0 42 38 64 84 64s84 -22 84 -64s-38 -64 -84 -64s-84 22 -84 64zM350 804c0 -26 24 -32 46 -32s46 6 46 32s-24 32 -46 32s-46 -6 -46 -32zM245 226h185l-91 275zM44 0v32h34
c43 0 74 41 88 81l211 617h42l214 -647c12 -35 33 -51 59 -51h40v-32h-351v32h72c16 0 27 15 27 32c0 6 -3 20 -6 29l-32 96h-210l-21 -61c-7 -18 -11 -38 -11 -51c0 -22 19 -45 52 -45h47v-32h-255z" />
    <glyph glyph-name="aringacute" unicode="&#x1fb;" horiz-adv-x="508" 
d="M168 115c0 -74 37 -87 59 -87c26 0 47 16 61 44v198l-56 -20c-45 -16 -64 -61 -64 -135zM46 106c0 98 96 140 168 165l74 26v68c0 73 -36 97 -75 97c-34 0 -69 -16 -69 -47c0 -6 3 -20 16 -29c18 -11 28 -22 28 -45c0 -35 -31 -51 -56 -51c-31 0 -63 21 -63 68
c0 81 84 128 155 128c82 0 180 -39 180 -161v-253c0 -25 7 -36 20 -36c26 0 36 54 36 99h28c0 -36 -3 -78 -22 -107c-14 -22 -41 -40 -77 -40c-57 0 -79 18 -97 54h-2c-22 -30 -58 -54 -112 -54c-62 0 -132 25 -132 118zM125 615c0 60 47 107 107 107s107 -47 107 -107
s-47 -107 -107 -107s-107 47 -107 107zM169 615c0 -38 25 -63 63 -63s63 25 63 63s-25 63 -63 63s-63 -25 -63 -63zM188 762l89 138c16 25 31 32 49 32c24 0 42 -16 42 -40c0 -18 -11 -35 -28 -48l-132 -100z" />
    <glyph glyph-name="AEacute" unicode="&#x1fc;" horiz-adv-x="1004" 
d="M618 778l89 138c16 25 31 32 49 32c24 0 42 -16 42 -40c0 -18 -11 -35 -28 -48l-132 -100zM26 0v32h23c50 0 97 39 122 88l241 471c13 26 22 44 22 63c0 14 -10 26 -29 26h-29v32h568l6 -232h-32s-10 64 -40 114c-28 49 -68 86 -120 86h-110c-18 0 -24 -6 -24 -24v-276
h51c56 0 100 80 100 138h32v-313h-32c0 59 -44 139 -100 139h-51v-288c0 -18 6 -24 24 -24h109c82 0 129 88 148 142c13 37 21 102 21 102h32l-6 -276h-571v32h70c18 0 24 6 24 24v154h-209l-23 -44c-14 -26 -29 -66 -29 -83c0 -22 7 -51 49 -51h33v-32h-270zM283 246h192
v374z" />
    <glyph glyph-name="aeacute" unicode="&#x1fd;" horiz-adv-x="700" 
d="M316 542l89 138c16 25 31 32 49 32c24 0 42 -16 42 -40c0 -18 -11 -35 -28 -48l-132 -100zM46 107c0 100 103 141 168 164l74 26v68c0 73 -38 97 -77 97c-34 0 -67 -16 -67 -47c0 -6 3 -20 16 -29c18 -11 28 -22 28 -45c0 -35 -31 -51 -56 -51c-31 0 -63 21 -63 68
c0 81 78 128 149 128c47 0 92 -10 132 -44c36 32 85 44 128 44c82 0 144 -64 163 -158c7 -32 7 -88 7 -100h-244c0 -51 0 -90 11 -129c12 -49 49 -81 94 -81c71 0 108 76 115 144h26c-7 -74 -47 -174 -161 -174c-64 0 -127 27 -161 78c-32 -44 -76 -78 -154 -78
c-58 0 -128 26 -128 119zM168 115c0 -74 38 -87 56 -87c26 0 47 12 64 38v203l-56 -19c-44 -15 -64 -61 -64 -135zM404 256h128c0 130 -12 206 -64 206s-64 -76 -64 -206z" />
    <glyph glyph-name="Oslashacute" unicode="&#x1fe;" horiz-adv-x="712" 
d="M334 778l89 138c16 25 31 32 49 32c24 0 42 -16 42 -40c0 -18 -11 -35 -28 -48l-132 -100zM70 6l80 103c-49 68 -80 156 -80 247c0 192 138 374 296 374c71 0 139 -37 191 -96l74 96l31 -24l-80 -103c49 -68 80 -156 80 -247c0 -192 -138 -374 -296 -374
c-71 0 -139 37 -191 96l-74 -96zM242 164c9 -112 56 -150 124 -150c76 0 126 48 126 192v281zM240 225l250 323c-9 112 -56 150 -124 150c-76 0 -126 -48 -126 -192v-281z" />
    <glyph glyph-name="oslashacute" unicode="&#x1ff;" horiz-adv-x="504" 
d="M208 542l89 138c16 25 31 32 49 32c24 0 42 -16 42 -40c0 -18 -11 -35 -28 -48l-132 -100zM48 6l52 65c-32 43 -52 100 -52 166c0 144 96 249 204 249c50 0 97 -22 133 -60l49 60l22 -18l-52 -65c32 -43 52 -100 52 -166c0 -144 -96 -249 -204 -249c-50 0 -97 22 -133 60
l-49 -60zM180 125c8 -76 29 -113 72 -113c60 0 76 73 76 225c0 26 0 49 -1 70zM176 237c0 -26 0 -49 1 -70l146 181c-8 77 -28 114 -71 114c-61 0 -76 -73 -76 -225z" />
    <glyph glyph-name="uni0200" unicode="&#x200;" horiz-adv-x="754" 
d="M184 912c0 20 16 38 40 38c18 0 33 -9 47 -32l85 -138l-20 -18l-125 104c-17 13 -27 28 -27 46zM318 912c0 20 16 38 40 38c18 0 33 -9 47 -32l85 -138l-20 -18l-125 104c-17 13 -27 28 -27 46zM245 226h185l-91 275zM44 0v32h34c43 0 74 41 88 81l211 617h42l214 -647
c12 -35 33 -51 59 -51h40v-32h-351v32h72c16 0 27 15 27 32c0 6 -3 20 -6 29l-32 96h-210l-21 -61c-7 -18 -11 -38 -11 -51c0 -22 19 -45 52 -45h47v-32h-255z" />
    <glyph glyph-name="uni0201" unicode="&#x201;" horiz-adv-x="508" 
d="M20 674c0 20 16 38 40 38c18 0 33 -9 47 -32l85 -138l-20 -18l-125 104c-17 13 -27 28 -27 46zM154 674c0 20 16 38 40 38c18 0 33 -9 47 -32l85 -138l-20 -18l-125 104c-17 13 -27 28 -27 46zM168 115c0 -74 37 -87 59 -87c26 0 47 16 61 44v198l-56 -20
c-45 -16 -64 -61 -64 -135zM46 106c0 98 96 140 168 165l74 26v68c0 73 -36 97 -75 97c-34 0 -69 -16 -69 -47c0 -6 3 -20 16 -29c18 -11 28 -22 28 -45c0 -35 -31 -51 -56 -51c-31 0 -63 21 -63 68c0 81 84 128 155 128c82 0 180 -39 180 -161v-253c0 -25 7 -36 20 -36
c26 0 36 54 36 99h28c0 -36 -3 -78 -22 -107c-14 -22 -41 -40 -77 -40c-57 0 -79 18 -97 54h-2c-22 -30 -58 -54 -112 -54c-62 0 -132 25 -132 118z" />
    <glyph glyph-name="uni0202" unicode="&#x202;" horiz-adv-x="754" 
d="M243 772c14 58 81 152 153 152s139 -94 153 -152l-26 -10c-26 56 -71 86 -127 86s-101 -30 -127 -86zM245 226h185l-91 275zM44 0v32h34c43 0 74 41 88 81l211 617h42l214 -647c12 -35 33 -51 59 -51h40v-32h-351v32h72c16 0 27 15 27 32c0 6 -3 20 -6 29l-32 96h-210
l-21 -61c-7 -18 -11 -38 -11 -51c0 -22 19 -45 52 -45h47v-32h-255z" />
    <glyph glyph-name="uni0203" unicode="&#x203;" horiz-adv-x="508" 
d="M94 524c20 70 70 148 138 148s118 -78 138 -148l-22 -8c-22 46 -56 80 -116 80s-94 -34 -116 -80zM168 115c0 -74 37 -87 59 -87c26 0 47 16 61 44v198l-56 -20c-45 -16 -64 -61 -64 -135zM46 106c0 98 96 140 168 165l74 26v68c0 73 -36 97 -75 97
c-34 0 -69 -16 -69 -47c0 -6 3 -20 16 -29c18 -11 28 -22 28 -45c0 -35 -31 -51 -56 -51c-31 0 -63 21 -63 68c0 81 84 128 155 128c82 0 180 -39 180 -161v-253c0 -25 7 -36 20 -36c26 0 36 54 36 99h28c0 -36 -3 -78 -22 -107c-14 -22 -41 -40 -77 -40
c-57 0 -79 18 -97 54h-2c-22 -30 -58 -54 -112 -54c-62 0 -132 25 -132 118z" />
    <glyph glyph-name="uni0204" unicode="&#x204;" horiz-adv-x="690" 
d="M160 912c0 20 16 38 40 38c18 0 33 -9 47 -32l85 -138l-20 -18l-125 104c-17 13 -27 28 -27 46zM294 912c0 20 16 38 40 38c18 0 33 -9 47 -32l85 -138l-20 -18l-125 104c-17 13 -27 28 -27 46zM62 0v32h70c18 0 24 6 24 24v600c0 18 -6 24 -24 24h-70v32h562l6 -232h-32
s-10 64 -40 114c-28 49 -68 86 -120 86h-110c-18 0 -24 -6 -24 -24v-276h51c56 0 100 80 100 138h32v-313h-32c0 59 -44 139 -100 139h-51v-288c0 -18 6 -24 24 -24h109c82 0 129 88 148 142c13 37 21 102 21 102h32l-6 -276h-570z" />
    <glyph glyph-name="uni0205" unicode="&#x205;" horiz-adv-x="472" 
d="M28 674c0 20 16 38 40 38c18 0 33 -9 47 -32l85 -138l-20 -18l-125 104c-17 13 -27 28 -27 46zM162 674c0 20 16 38 40 38c18 0 33 -9 47 -32l85 -138l-20 -18l-125 104c-17 13 -27 28 -27 46zM48 237c0 144 91 249 202 249c82 0 144 -64 163 -158c7 -32 7 -88 7 -100
h-244c0 -51 0 -90 11 -129c12 -49 49 -81 94 -81c71 0 108 76 115 144h26c-7 -74 -47 -174 -161 -174c-128 0 -213 112 -213 249zM176 256h128c0 130 -12 206 -64 206s-64 -76 -64 -206z" />
    <glyph glyph-name="uni0206" unicode="&#x206;" horiz-adv-x="690" 
d="M219 772c14 58 81 152 153 152s139 -94 153 -152l-26 -10c-26 56 -71 86 -127 86s-101 -30 -127 -86zM62 0v32h70c18 0 24 6 24 24v600c0 18 -6 24 -24 24h-70v32h562l6 -232h-32s-10 64 -40 114c-28 49 -68 86 -120 86h-110c-18 0 -24 -6 -24 -24v-276h51
c56 0 100 80 100 138h32v-313h-32c0 59 -44 139 -100 139h-51v-288c0 -18 6 -24 24 -24h109c82 0 129 88 148 142c13 37 21 102 21 102h32l-6 -276h-570z" />
    <glyph glyph-name="uni0207" unicode="&#x207;" horiz-adv-x="472" 
d="M102 524c20 70 70 148 138 148s118 -78 138 -148l-22 -8c-22 46 -56 80 -116 80s-94 -34 -116 -80zM48 237c0 144 91 249 202 249c82 0 144 -64 163 -158c7 -32 7 -88 7 -100h-244c0 -51 0 -90 11 -129c12 -49 49 -81 94 -81c71 0 108 76 115 144h26
c-7 -74 -47 -174 -161 -174c-128 0 -213 112 -213 249zM176 256h128c0 130 -12 206 -64 206s-64 -76 -64 -206z" />
    <glyph glyph-name="uni0208" unicode="&#x208;" horiz-adv-x="440" 
d="M18 912c0 20 16 38 40 38c18 0 33 -9 47 -32l85 -138l-20 -18l-125 104c-17 13 -27 28 -27 46zM152 912c0 20 16 38 40 38c18 0 33 -9 47 -32l85 -138l-20 -18l-125 104c-17 13 -27 28 -27 46zM62 0v32h70c18 0 24 6 24 24v600c0 18 -6 24 -24 24h-70v32h336v-32h-70
c-18 0 -24 -6 -24 -24v-600c0 -18 6 -24 24 -24h70v-32h-336z" />
    <glyph glyph-name="uni0209" unicode="&#x209;" horiz-adv-x="296" 
d="M-58 694c0 20 16 38 40 38c18 0 33 -9 47 -32l85 -138l-20 -18l-125 104c-17 13 -27 28 -27 46zM76 694c0 20 16 38 40 38c18 0 33 -9 47 -32l85 -138l-20 -18l-125 104c-17 13 -27 28 -27 46zM40 0v24h38c12 0 16 4 16 16v394c0 12 -4 16 -16 16h-38v24h170v-434
c0 -12 4 -16 16 -16h38v-24h-224z" />
    <glyph glyph-name="uni020A" unicode="&#x20a;" horiz-adv-x="440" 
d="M77 772c14 58 81 152 153 152s139 -94 153 -152l-26 -10c-26 56 -71 86 -127 86s-101 -30 -127 -86zM62 0v32h70c18 0 24 6 24 24v600c0 18 -6 24 -24 24h-70v32h336v-32h-70c-18 0 -24 -6 -24 -24v-600c0 -18 6 -24 24 -24h70v-32h-336z" />
    <glyph glyph-name="uni020B" unicode="&#x20b;" horiz-adv-x="296" 
d="M10 550c20 70 70 148 138 148s118 -78 138 -148l-22 -8c-22 46 -56 80 -116 80s-94 -34 -116 -80zM40 0v24h38c12 0 16 4 16 16v394c0 12 -4 16 -16 16h-38v24h170v-434c0 -12 4 -16 16 -16h38v-24h-224z" />
    <glyph glyph-name="uni020C" unicode="&#x20c;" horiz-adv-x="712" 
d="M154 912c0 20 16 38 40 38c18 0 33 -9 47 -32l85 -138l-20 -18l-125 104c-17 13 -27 28 -27 46zM288 912c0 20 16 38 40 38c18 0 33 -9 47 -32l85 -138l-20 -18l-125 104c-17 13 -27 28 -27 46zM70 356c0 192 138 374 296 374s296 -182 296 -374s-138 -374 -296 -374
s-296 182 -296 374zM240 206c0 -144 50 -192 126 -192s126 48 126 192v300c0 144 -50 192 -126 192s-126 -48 -126 -192v-300z" />
    <glyph glyph-name="uni020D" unicode="&#x20d;" horiz-adv-x="504" 
d="M39 674c0 20 16 38 40 38c18 0 33 -9 47 -32l85 -138l-20 -18l-125 104c-17 13 -27 28 -27 46zM173 674c0 20 16 38 40 38c18 0 33 -9 47 -32l85 -138l-20 -18l-125 104c-17 13 -27 28 -27 46zM176 237c0 -152 16 -225 76 -225s76 73 76 225s-16 225 -76 225
s-76 -73 -76 -225zM48 237c0 144 96 249 204 249s204 -105 204 -249s-96 -249 -204 -249s-204 105 -204 249z" />
    <glyph glyph-name="uni020E" unicode="&#x20e;" horiz-adv-x="712" 
d="M213 772c14 58 81 152 153 152s139 -94 153 -152l-26 -10c-26 56 -71 86 -127 86s-101 -30 -127 -86zM70 356c0 192 138 374 296 374s296 -182 296 -374s-138 -374 -296 -374s-296 182 -296 374zM240 206c0 -144 50 -192 126 -192s126 48 126 192v300
c0 144 -50 192 -126 192s-126 -48 -126 -192v-300z" />
    <glyph glyph-name="uni020F" unicode="&#x20f;" horiz-adv-x="504" 
d="M114 524c20 70 70 148 138 148s118 -78 138 -148l-22 -8c-22 46 -56 80 -116 80s-94 -34 -116 -80zM176 237c0 -152 16 -225 76 -225s76 73 76 225s-16 225 -76 225s-76 -73 -76 -225zM48 237c0 144 96 249 204 249s204 -105 204 -249s-96 -249 -204 -249
s-204 105 -204 249z" />
    <glyph glyph-name="uni0210" unicode="&#x210;" horiz-adv-x="730" 
d="M120 912c0 20 16 38 40 38c18 0 33 -9 47 -32l85 -138l-20 -18l-125 104c-17 13 -27 28 -27 46zM254 912c0 20 16 38 40 38c18 0 33 -9 47 -32l85 -138l-20 -18l-125 104c-17 13 -27 28 -27 46zM304 396h67c75 0 95 64 95 148s-20 136 -95 136h-43c-18 0 -24 -6 -24 -24
v-260zM62 0v32h70c18 0 24 6 24 24v600c0 18 -6 24 -24 24h-70v32h324c142 0 240 -66 240 -176c0 -96 -80 -147 -184 -159v-7c94 -17 162 -60 162 -185v-111c0 -30 10 -42 28 -42c38 0 50 77 50 148h32c0 -116 -23 -204 -119 -204c-82 0 -139 48 -139 150v124
c0 58 -26 114 -96 114h-56v-308c0 -18 6 -24 24 -24h88v-32h-354z" />
    <glyph glyph-name="uni0211" unicode="&#x211;" horiz-adv-x="434" 
d="M26 674c0 20 16 38 40 38c18 0 33 -9 47 -32l85 -138l-20 -18l-125 104c-17 13 -27 28 -27 46zM160 674c0 20 16 38 40 38c18 0 33 -9 47 -32l85 -138l-20 -18l-125 104c-17 13 -27 28 -27 46zM40 0v24h38c12 0 16 4 16 16v394c0 12 -4 16 -16 16h-38v24h170v-99l5 -1
c19 56 60 112 111 112c49 0 82 -40 82 -92c0 -48 -31 -90 -73 -90c-36 0 -65 25 -65 57c0 20 12 38 24 52c7 8 14 16 14 23c0 5 -3 10 -11 10c-41 0 -87 -96 -87 -205v-201c0 -12 4 -16 16 -16h32v-24h-218z" />
    <glyph glyph-name="uni0212" unicode="&#x212;" horiz-adv-x="730" 
d="M179 772c14 58 81 152 153 152s139 -94 153 -152l-26 -10c-26 56 -71 86 -127 86s-101 -30 -127 -86zM304 396h67c75 0 95 64 95 148s-20 136 -95 136h-43c-18 0 -24 -6 -24 -24v-260zM62 0v32h70c18 0 24 6 24 24v600c0 18 -6 24 -24 24h-70v32h324
c142 0 240 -66 240 -176c0 -96 -80 -147 -184 -159v-7c94 -17 162 -60 162 -185v-111c0 -30 10 -42 28 -42c38 0 50 77 50 148h32c0 -116 -23 -204 -119 -204c-82 0 -139 48 -139 150v124c0 58 -26 114 -96 114h-56v-308c0 -18 6 -24 24 -24h88v-32h-354z" />
    <glyph glyph-name="uni0213" unicode="&#x213;" horiz-adv-x="434" 
d="M100 524c20 70 70 148 138 148s118 -78 138 -148l-22 -8c-22 46 -56 80 -116 80s-94 -34 -116 -80zM40 0v24h38c12 0 16 4 16 16v394c0 12 -4 16 -16 16h-38v24h170v-99l5 -1c19 56 60 112 111 112c49 0 82 -40 82 -92c0 -48 -31 -90 -73 -90c-36 0 -65 25 -65 57
c0 20 12 38 24 52c7 8 14 16 14 23c0 5 -3 10 -11 10c-41 0 -87 -96 -87 -205v-201c0 -12 4 -16 16 -16h32v-24h-218z" />
    <glyph glyph-name="uni0214" unicode="&#x214;" horiz-adv-x="794" 
d="M218 912c0 20 16 38 40 38c18 0 33 -9 47 -32l85 -138l-20 -18l-125 104c-17 13 -27 28 -27 46zM352 912c0 20 16 38 40 38c18 0 33 -9 47 -32l85 -138l-20 -18l-125 104c-17 13 -27 28 -27 46zM68 680v32h324v-32h-64c-18 0 -24 -6 -24 -24v-458
c0 -123 46 -176 143 -176c100 0 171 80 171 176v392c0 64 -52 90 -104 90v32h248v-32c-52 0 -104 -26 -104 -90v-382c0 -125 -88 -226 -239 -226c-190 0 -263 126 -263 255v419c0 18 -6 24 -24 24h-64z" />
    <glyph glyph-name="uni0215" unicode="&#x215;" horiz-adv-x="550" 
d="M46 674c0 20 16 38 40 38c18 0 33 -9 47 -32l85 -138l-20 -18l-125 104c-17 13 -27 28 -27 46zM180 674c0 20 16 38 40 38c18 0 33 -9 47 -32l85 -138l-20 -18l-125 104c-17 13 -27 28 -27 46zM24 450v24h180v-377c0 -41 9 -77 46 -77c41 0 98 91 98 200v214
c0 12 -4 16 -16 16h-48v24h180v-434c0 -12 4 -16 16 -16h38v-24h-170v89l-5 1c-25 -58 -66 -102 -124 -102c-34 0 -56 7 -77 22c-34 25 -54 72 -54 116v308c0 12 -4 16 -16 16h-48z" />
    <glyph glyph-name="uni0216" unicode="&#x216;" horiz-adv-x="794" 
d="M277 772c14 58 81 152 153 152s139 -94 153 -152l-26 -10c-26 56 -71 86 -127 86s-101 -30 -127 -86zM68 680v32h324v-32h-64c-18 0 -24 -6 -24 -24v-458c0 -123 46 -176 143 -176c100 0 171 80 171 176v392c0 64 -52 90 -104 90v32h248v-32c-52 0 -104 -26 -104 -90
v-382c0 -125 -88 -226 -239 -226c-190 0 -263 126 -263 255v419c0 18 -6 24 -24 24h-64z" />
    <glyph glyph-name="uni0217" unicode="&#x217;" horiz-adv-x="550" 
d="M120 524c20 70 70 148 138 148s118 -78 138 -148l-22 -8c-22 46 -56 80 -116 80s-94 -34 -116 -80zM24 450v24h180v-377c0 -41 9 -77 46 -77c41 0 98 91 98 200v214c0 12 -4 16 -16 16h-48v24h180v-434c0 -12 4 -16 16 -16h38v-24h-170v89l-5 1
c-25 -58 -66 -102 -124 -102c-34 0 -56 7 -77 22c-34 25 -54 72 -54 116v308c0 12 -4 16 -16 16h-48z" />
    <glyph glyph-name="Scommaaccent" unicode="&#x218;" horiz-adv-x="620" 
d="M275 -86c0 33 31 54 57 54c52 0 74 -44 74 -81c0 -73 -72 -118 -124 -125l-6 22c41 8 74 26 74 55c0 10 -3 17 -10 21c-6 4 -13 4 -24 4c-22 0 -41 19 -41 50zM90 306h32c28 -147 117 -292 231 -292c120 0 137 72 137 114c0 37 -32 64 -72 90l-214 138
c-50 32 -112 90 -112 182c0 138 96 192 196 192c66 0 122 -36 142 -50c13 -10 26 -18 36 -18c13 0 20 10 22 23l6 27h32l10 -260h-32c-37 138 -126 246 -224 246c-71 0 -104 -28 -104 -84c0 -46 43 -85 89 -115l215 -139c55 -36 90 -105 90 -172c0 -99 -70 -206 -223 -206
c-64 0 -110 22 -137 44c-26 20 -39 30 -52 30c-14 0 -23 -12 -26 -34l-5 -32h-31z" />
    <glyph glyph-name="scommaaccent" unicode="&#x219;" horiz-adv-x="430" 
d="M173 -86c0 33 31 54 57 54c52 0 74 -44 74 -81c0 -73 -72 -118 -124 -125l-6 22c41 8 74 26 74 55c0 10 -3 17 -10 21c-6 4 -13 4 -24 4c-22 0 -41 19 -41 50zM58 -12v198h22l45 -79c29 -51 71 -95 136 -95c54 0 73 34 73 60c0 40 -26 58 -125 106
c-55 27 -151 76 -151 172c0 85 62 136 134 136c43 0 78 -20 100 -34c14 -9 23 -12 30 -12c10 0 14 8 16 16l6 20h18v-160h-22l-19 38c-37 74 -87 108 -133 108c-32 0 -62 -14 -62 -55c0 -47 49 -82 106 -109c120 -58 166 -93 166 -176c0 -86 -62 -134 -138 -134
c-49 0 -87 22 -104 32c-12 8 -26 16 -36 16c-18 0 -32 -12 -37 -27l-7 -21h-18z" />
    <glyph glyph-name="uni021A" unicode="&#x21a;" horiz-adv-x="716" 
d="M297 -86c0 33 31 54 57 54c52 0 74 -44 74 -81c0 -73 -72 -118 -124 -125l-6 22c41 8 74 26 74 55c0 10 -3 17 -10 21c-6 4 -13 4 -24 4c-22 0 -41 19 -41 50zM60 414l8 298h600l8 -298h-32s-4 34 -21 94c-23 82 -76 172 -144 172c-22 0 -37 -12 -37 -34v-590
c0 -18 6 -24 24 -24h80v-32h-356v32h80c18 0 24 6 24 24v590c0 22 -15 34 -37 34c-68 0 -121 -90 -144 -172c-17 -60 -21 -94 -21 -94h-32z" />
    <glyph glyph-name="uni021B" unicode="&#x21b;" horiz-adv-x="364" 
d="M137 -86c0 33 31 54 57 54c52 0 74 -44 74 -81c0 -73 -72 -118 -124 -125l-6 22c41 8 74 26 74 55c0 10 -3 17 -10 21c-6 4 -13 4 -24 4c-22 0 -41 19 -41 50zM20 446v28c77 10 128 66 128 156v36h48v-192h102v-28h-102v-341c0 -34 5 -73 46 -73c65 0 70 126 70 186h28
c0 -68 -8 -142 -31 -179c-20 -32 -53 -51 -97 -51c-84 0 -132 46 -132 124v334h-60z" />
    <glyph glyph-name="uni021C" unicode="&#x21c;" horiz-adv-x="546" 
d="M46 -135c174 76 286 176 286 305c0 80 -84 113 -122 113c-47 0 -71 -4 -106 -24l-17 25l99 79c67 54 134 109 134 190c0 48 -46 91 -95 91c-38 0 -74 -22 -123 -86l-32 24c59 80 128 148 222 148c98 0 168 -67 168 -142c0 -78 -73 -130 -154 -182l3 -9
c120 -12 183 -101 183 -182c0 -97 -42 -173 -160 -255c-66 -46 -152 -86 -272 -128z" />
    <glyph glyph-name="uni021D" unicode="&#x21d;" horiz-adv-x="430" 
d="M28 -215c147 62 228 153 228 252c0 48 -35 92 -77 92c-37 0 -61 -16 -104 -48l-20 25l97 78c57 46 98 103 98 157c0 46 -40 69 -67 69c-45 0 -92 -25 -132 -83l-23 15c50 82 136 144 198 144c84 0 132 -71 132 -131c0 -56 -51 -98 -122 -140l1 -7c98 -7 147 -83 147 -137
c0 -87 -50 -149 -115 -201c-47 -37 -138 -83 -229 -108z" />
    <glyph glyph-name="uni0224" unicode="&#x224;" horiz-adv-x="620" 
d="M68 0v32l352 648h-126c-50 0 -118 -57 -151 -138c-17 -43 -23 -85 -23 -86h-32l12 256h488v-34l-351 -646h256c63 0 117 -26 117 -88c0 -102 -169 -152 -284 -182l-14 28c84 28 150 52 150 123s-78 87 -206 87h-188z" />
    <glyph glyph-name="uni0225" unicode="&#x225;" horiz-adv-x="436" 
d="M32 0v26l250 424h-68c-45 0 -75 -23 -94 -52c-29 -45 -36 -100 -36 -100h-24l6 176h348v-20l-254 -430h190c45 0 70 -30 70 -64c0 -68 -88 -115 -209 -152l-10 24c89 29 113 64 113 106c0 36 -22 62 -83 62h-199z" />
    <glyph glyph-name="uni0228" unicode="&#x228;" horiz-adv-x="690" 
d="M270 -170c0 22 10 39 33 39c27 0 33 -19 37 -37c5 -27 21 -46 54 -46c37 0 58 20 58 53c0 28 -17 50 -58 50h-54l17 111h-295v32h70c18 0 24 6 24 24v600c0 18 -6 24 -24 24h-70v32h562l6 -232h-32s-10 64 -40 114c-28 49 -68 86 -120 86h-110c-18 0 -24 -6 -24 -24v-276
h51c56 0 100 80 100 138h32v-313h-32c0 59 -44 139 -100 139h-51v-288c0 -18 6 -24 24 -24h109c82 0 129 88 148 142c13 37 21 102 21 102h32l-6 -276h-247l-6 -47h34c53 0 91 -39 91 -85c0 -56 -34 -106 -126 -106c-44 0 -108 23 -108 68z" />
    <glyph glyph-name="uni0229" unicode="&#x229;" horiz-adv-x="472" 
d="M160 -143c0 20 11 32 29 32c23 0 27 -18 31 -37c5 -24 20 -38 49 -38c31 0 47 21 47 46c0 23 -14 42 -48 42h-47l14 88c-114 14 -187 119 -187 247c0 144 91 249 202 249c82 0 144 -64 163 -158c7 -32 7 -88 7 -100h-244c0 -51 0 -90 11 -129c12 -49 49 -81 94 -81
c71 0 108 76 115 144h26c-7 -74 -47 -174 -161 -174h-2l-4 -30h25c48 0 84 -32 84 -75c0 -45 -29 -91 -109 -91c-40 0 -95 20 -95 65zM176 256h128c0 130 -12 206 -64 206s-64 -76 -64 -206z" />
    <glyph glyph-name="uni0232" unicode="&#x232;" horiz-adv-x="736" 
d="M256 810v64h296v-64h-296zM46 680v32h314v-32h-28c-20 0 -28 -18 -28 -32c0 -8 2 -20 6 -28l132 -287l92 229c7 16 14 40 14 57c0 28 -14 61 -54 61h-28v32h248v-32h-30c-49 0 -78 -39 -91 -73l-135 -329v-222c0 -18 6 -24 24 -24h64v-32h-324v32h64c18 0 24 6 24 24v213
l-170 367c-16 35 -32 44 -59 44h-35z" />
    <glyph glyph-name="uni0233" unicode="&#x233;" horiz-adv-x="524" 
d="M140 584v64h260v-64h-260zM12 450v24h245v-24h-29c-11 0 -24 -9 -24 -26c0 -6 2 -16 7 -28l103 -247l65 219c4 16 7 28 7 44c0 18 -10 38 -31 38h-26v24h165v-24h-22c-22 0 -47 -19 -60 -62l-152 -505c-17 -58 -48 -121 -109 -121c-56 0 -91 38 -91 91c0 43 30 83 74 83
c33 0 55 -23 55 -50c0 -18 -10 -34 -19 -42c-7 -6 -14 -14 -14 -26c0 -10 6 -24 23 -24c26 0 41 45 50 74l33 110l-173 414c-16 38 -26 58 -62 58h-15z" />
    <glyph glyph-name="dotlessj" unicode="&#xf6be;" horiz-adv-x="320" 
d="M-52 -126c0 46 36 79 74 79c28 0 59 -17 59 -53c0 -28 -18 -47 -28 -56c-11 -10 -17 -20 -17 -32c0 -21 22 -26 37 -26c27 0 47 25 47 132v516c0 12 -4 16 -16 16h-56v24h188v-514c0 -133 -77 -198 -159 -198c-75 0 -129 46 -129 112z" />
    <glyph glyph-name="dotlessj" unicode="&#x237;" horiz-adv-x="320" 
d="M-52 -126c0 46 36 79 74 79c28 0 59 -17 59 -53c0 -28 -18 -47 -28 -56c-11 -10 -17 -20 -17 -32c0 -21 22 -26 37 -26c27 0 47 25 47 132v516c0 12 -4 16 -16 16h-56v24h188v-514c0 -133 -77 -198 -159 -198c-75 0 -129 46 -129 112z" />
    <glyph glyph-name="uni0243" unicode="&#x243;" horiz-adv-x="710" 
d="M304 388h92c77 0 92 62 92 154c0 88 -33 138 -86 138h-74c-18 0 -24 -6 -24 -24v-268zM62 0v32h70c18 0 24 6 24 24v128h-94v36h94v436c0 18 -6 24 -24 24h-70v32h352c119 0 224 -70 224 -170c0 -97 -89 -146 -169 -167v-6c85 -13 193 -71 193 -175
c0 -126 -109 -194 -235 -194h-365zM304 56c0 -18 6 -24 24 -24h68c66 0 106 34 106 162s-40 162 -106 162h-92v-136h96v-36h-96v-128z" />
    <glyph glyph-name="uni0254" unicode="&#x254;" horiz-adv-x="468" 
d="M48 312c7 74 47 174 161 174c128 0 213 -112 213 -249s-85 -249 -211 -249c-101 0 -145 73 -145 135c0 48 34 89 75 89c29 0 53 -18 53 -50c0 -27 -22 -45 -32 -53c-12 -10 -24 -24 -24 -41c0 -22 14 -56 65 -56c66 0 91 92 91 225c0 56 0 99 -11 138
c-12 49 -49 81 -94 81c-71 0 -108 -76 -115 -144h-26z" />
    <glyph glyph-name="uni0259" unicode="&#x259;" horiz-adv-x="472" 
d="M50 312c7 74 47 174 161 174c128 0 213 -112 213 -249c0 -144 -91 -249 -202 -249c-82 0 -144 64 -163 158c-7 32 -7 88 -7 100h244c0 51 0 90 -11 129c-12 49 -49 81 -94 81c-71 0 -108 -76 -115 -144h-26zM168 218c0 -130 12 -206 64 -206s64 76 64 206h-128z" />
    <glyph glyph-name="uni025B" unicode="&#x25b;" horiz-adv-x="456" 
d="M44 121c0 73 65 105 134 119v7c-68 10 -124 43 -124 113c0 83 100 126 200 126c96 0 154 -56 154 -121c0 -30 -22 -64 -64 -64c-32 0 -48 24 -48 48c0 17 9 29 17 38c10 10 15 17 15 29c0 29 -36 46 -73 46c-39 0 -89 -22 -89 -107c0 -57 26 -95 58 -95h70v-32h-68
c-32 0 -54 -48 -54 -101c0 -76 43 -115 82 -115c36 0 92 10 92 50c0 19 -2 26 -16 37c-11 9 -23 23 -23 43c0 26 17 49 49 49c42 0 62 -34 62 -73c0 -87 -82 -130 -191 -130c-85 0 -183 37 -183 133z" />
    <glyph glyph-name="uni0280" unicode="&#x280;" horiz-adv-x="534" 
d="M40 0v24h38c12 0 16 4 16 16v394c0 12 -4 16 -16 16h-32v24h225c107 0 173 -44 173 -118c0 -64 -58 -98 -138 -106v-5c74 -11 126 -39 126 -121v-73c0 -19 9 -27 22 -27c27 0 34 50 34 96h26c0 -78 -17 -138 -91 -138c-63 0 -107 32 -107 100v82c0 39 -18 76 -67 76h-39
v-200c0 -12 4 -16 16 -16h38v-24h-224zM210 264h47c53 0 67 39 67 93c0 55 -14 93 -67 93h-30c-13 0 -17 -4 -17 -16v-170z" />
    <glyph glyph-name="uni0292" unicode="&#x292;" horiz-adv-x="506" 
d="M26 -86c0 66 45 94 85 94c38 0 64 -28 64 -61s-19 -52 -38 -63c-12 -7 -27 -18 -27 -38c0 -32 36 -60 110 -60c70 0 128 58 128 190c0 125 -32 179 -96 179c-42 0 -72 -29 -101 -58l-18 14l217 271h-176c-36 0 -65 -16 -88 -55c-18 -30 -20 -59 -20 -59h-24l10 206h388
v-25l-210 -262l3 -4h51c134 0 192 -101 192 -207c0 -117 -104 -214 -256 -214c-108 0 -194 60 -194 152z" />
    <glyph glyph-name="uni02BB" unicode="&#x2bb;" horiz-adv-x="280" 
d="M62 571c0 71 68 130 127 157l14 -23c-53 -26 -85 -57 -85 -87c0 -12 8 -23 18 -28c8 -4 19 -5 32 -5c25 0 48 -24 48 -53c0 -34 -26 -59 -71 -59c-55 0 -83 55 -83 98z" />
    <glyph glyph-name="afii57929" unicode="&#x2bc;" horiz-adv-x="280" 
d="M64 669c0 34 26 59 71 59c55 0 83 -55 83 -98c0 -71 -68 -130 -127 -157l-14 23c53 26 85 57 85 87c0 12 -8 23 -18 28c-8 4 -19 5 -32 5c-25 0 -48 24 -48 53z" />
    <glyph glyph-name="afii64937" unicode="&#x2bd;" horiz-adv-x="280" 
d="M62 630c0 43 28 98 83 98c45 0 71 -25 71 -59c0 -29 -23 -53 -48 -53c-13 0 -24 -1 -32 -5c-10 -5 -18 -16 -18 -28c0 -30 32 -61 85 -87l-14 -23c-59 27 -127 86 -127 157z" />
    <glyph glyph-name="uni02BE" unicode="&#x2be;" horiz-adv-x="200" 
d="M42 500v48c44 0 76 23 76 67s-32 67 -76 67v48c64 0 128 -37 128 -115s-64 -115 -128 -115z" />
    <glyph glyph-name="uni02BF" unicode="&#x2bf;" horiz-adv-x="200" 
d="M42 615c0 78 64 115 128 115v-48c-44 0 -76 -23 -76 -67s32 -67 76 -67v-48c-64 0 -128 37 -128 115z" />
    <glyph glyph-name="circumflex" unicode="&#x2c6;" horiz-adv-x="440" 
d="M70 548c75 49 100 114 116 160h68c16 -46 41 -111 116 -160l-16 -24c-46 22 -102 62 -134 96c-32 -34 -88 -74 -134 -96z" />
    <glyph glyph-name="caron" unicode="&#x2c7;" horiz-adv-x="440" 
d="M74 678l16 16l130 -98l130 98l16 -16l-122 -154h-48z" />
    <glyph glyph-name="breve" unicode="&#x2d8;" horiz-adv-x="440" 
d="M80 694h28c10 -52 48 -86 112 -86s102 34 112 86h28c-8 -88 -58 -154 -140 -154s-132 66 -140 154z" />
    <glyph glyph-name="dotaccent" unicode="&#x2d9;" horiz-adv-x="440" 
d="M146 618c0 42 32 74 74 74s74 -32 74 -74s-32 -74 -74 -74s-74 32 -74 74z" />
    <glyph glyph-name="ring" unicode="&#x2da;" horiz-adv-x="440" 
d="M113 623c0 60 47 107 107 107s107 -47 107 -107s-47 -107 -107 -107s-107 47 -107 107zM157 623c0 -38 25 -63 63 -63s63 25 63 63s-25 63 -63 63s-63 -25 -63 -63z" />
    <glyph glyph-name="ogonek" unicode="&#x2db;" horiz-adv-x="440" 
d="M84 -142c0 68 73 120 134 158l14 -16c-54 -40 -80 -70 -80 -123c0 -27 18 -41 42 -41c26 0 38 12 52 32l20 -14c-18 -41 -56 -74 -99 -74s-83 30 -83 78z" />
    <glyph glyph-name="tilde" unicode="&#x2dc;" horiz-adv-x="440" 
d="M72 564c0 48 34 108 88 108c33 0 54 -9 82 -21c21 -9 40 -15 64 -15s36 16 40 40h22c0 -48 -34 -108 -88 -108c-33 0 -54 9 -82 21c-21 9 -40 15 -64 15s-36 -16 -40 -40h-22z" />
    <glyph glyph-name="hungarumlaut" unicode="&#x2dd;" horiz-adv-x="440" 
d="M260 542l85 138c14 23 29 32 47 32c24 0 40 -18 40 -38c0 -18 -10 -33 -27 -46l-125 -104zM126 542l85 138c14 23 29 32 47 32c24 0 40 -18 40 -38c0 -18 -10 -33 -27 -46l-125 -104z" />
    <glyph glyph-name="gravecomb" unicode="&#x300;" 
d="M-398 672c0 24 18 40 42 40c18 0 33 -7 49 -32l89 -138l-20 -18l-132 100c-17 13 -28 30 -28 48z" />
    <glyph glyph-name="acutecomb" unicode="&#x301;" 
d="M-306 542l89 138c16 25 31 32 49 32c24 0 42 -16 42 -40c0 -18 -11 -35 -28 -48l-132 -100z" />
    <glyph glyph-name="circumflexcmb" unicode="&#x302;" 
d="M-412 548c75 49 100 114 116 160h68c16 -46 41 -111 116 -160l-16 -24c-46 22 -102 62 -134 96c-32 -34 -88 -74 -134 -96z" />
    <glyph glyph-name="tildecomb" unicode="&#x303;" 
d="M-410 564c0 48 34 108 88 108c33 0 54 -9 82 -21c21 -9 40 -15 64 -15s36 16 40 40h22c0 -48 -34 -108 -88 -108c-33 0 -54 9 -82 21c-21 9 -40 15 -64 15s-36 -16 -40 -40h-22z" />
    <glyph glyph-name="macroncmb" unicode="&#x304;" 
d="M-392 584v64h260v-64h-260z" />
    <glyph glyph-name="uni0305" unicode="&#x305;" 
d="M-520 810v64h520v-64h-520z" />
    <glyph glyph-name="brevecmb" unicode="&#x306;" 
d="M-402 694h28c10 -52 48 -86 112 -86s102 34 112 86h28c-8 -88 -58 -154 -140 -154s-132 66 -140 154z" />
    <glyph glyph-name="uni0307" unicode="&#x307;" 
d="M-336 618c0 42 32 74 74 74s74 -32 74 -74s-32 -74 -74 -74s-74 32 -74 74z" />
    <glyph glyph-name="uni0308" unicode="&#x308;" 
d="M-225.999 618c0 33 27 60 60 60s60 -27 60 -60s-27 -60 -60 -60s-60 27 -60 60zM-418 618c0 33 27 60 60 60s60 -27 60 -60s-27 -60 -60 -60s-60 27 -60 60z" />
    <glyph glyph-name="uni030A" unicode="&#x30a;" 
d="M-369 623c0 60 47 107 107 107s107 -47 107 -107s-47 -107 -107 -107s-107 47 -107 107zM-325 623c0 -38 25 -63 63 -63s63 25 63 63s-25 63 -63 63s-63 -25 -63 -63z" />
    <glyph glyph-name="uni030B" unicode="&#x30b;" 
d="M-222 542l85 138c14 23 29 32 47 32c24 0 40 -18 40 -38c0 -18 -10 -33 -27 -46l-125 -104zM-356 542l85 138c14 23 29 32 47 32c24 0 40 -18 40 -38c0 -18 -10 -33 -27 -46l-125 -104z" />
    <glyph glyph-name="uni030C" unicode="&#x30c;" 
d="M-408 678l16 16l130 -98l130 98l16 -16l-122 -154h-48z" />
    <glyph glyph-name="uni030F" unicode="&#x30f;" 
d="M-474 674c0 20 16 38 40 38c18 0 33 -9 47 -32l85 -138l-20 -18l-125 104c-17 13 -27 28 -27 46zM-340 674c0 20 16 38 40 38c18 0 33 -9 47 -32l85 -138l-20 -18l-125 104c-17 13 -27 28 -27 46z" />
    <glyph glyph-name="uni0311" unicode="&#x311;" 
d="M-400 524c20 70 70 148 138 148s118 -78 138 -148l-22 -8c-22 46 -56 80 -116 80s-94 -34 -116 -80z" />
    <glyph glyph-name="uni0312" unicode="&#x312;" 
d="M-338 615c0 71 68 130 127 157l14 -23c-53 -26 -85 -57 -85 -87c0 -12 8 -23 18 -28c8 -4 19 -5 32 -5c25 0 48 -24 48 -53c0 -34 -26 -59 -71 -59c-55 0 -83 55 -83 98z" />
    <glyph glyph-name="uni0313" unicode="&#x313;" 
d="M-336 713c0 34 26 59 71 59c55 0 83 -55 83 -98c0 -71 -68 -130 -127 -157l-14 23c53 26 85 57 85 87c0 12 -8 23 -18 28c-8 4 -19 5 -32 5c-25 0 -48 24 -48 53z" />
    <glyph glyph-name="uni0314" unicode="&#x314;" 
d="M-338 674c0 43 28 98 83 98c45 0 71 -25 71 -59c0 -29 -23 -53 -48 -53c-13 0 -24 -1 -32 -5c-10 -5 -18 -16 -18 -28c0 -30 32 -61 85 -87l-14 -23c-59 27 -127 86 -127 157z" />
    <glyph glyph-name="uni0316" unicode="&#x316;" 
d="M-398 -76c0 24 18 40 42 40c18 0 33 -7 49 -32l89 -138l-20 -18l-132 100c-17 13 -28 30 -28 48z" />
    <glyph glyph-name="uni0317" unicode="&#x317;" 
d="M-306 -206l89 138c16 25 31 32 49 32c24 0 42 -16 42 -40c0 -18 -11 -35 -28 -48l-132 -100z" />
    <glyph glyph-name="dotbelowcomb" unicode="&#x323;" 
d="M-336 -130c0 42 32 74 74 74s74 -32 74 -74s-32 -74 -74 -74s-74 32 -74 74z" />
    <glyph glyph-name="uni0324" unicode="&#x324;" 
d="M-225.999 -130c0 33 27 60 60 60s60 -27 60 -60s-27 -60 -60 -60s-60 27 -60 60zM-418 -130c0 33 27 60 60 60s60 -27 60 -60s-27 -60 -60 -60s-60 27 -60 60z" />
    <glyph glyph-name="uni0325" unicode="&#x325;" 
d="M-369 -131c0 60 47 107 107 107s107 -47 107 -107s-47 -107 -107 -107s-107 47 -107 107zM-325 -131c0 -38 25 -63 63 -63s63 25 63 63s-25 63 -63 63s-63 -25 -63 -63z" />
    <glyph glyph-name="uni0326" unicode="&#x326;" 
d="M-331 -86c0 33 31 54 57 54c52 0 74 -44 74 -81c0 -73 -72 -118 -124 -125l-6 22c41 8 74 26 74 55c0 10 -3 17 -10 21c-6 4 -13 4 -24 4c-22 0 -41 19 -41 50z" />
    <glyph glyph-name="uni0327" unicode="&#x327;" 
d="M-354 -143c0 20 11 32 29 32c23 0 27 -18 31 -37c5 -24 20 -38 49 -38c31 0 47 21 47 46c0 23 -14 42 -48 42h-47l16 98h25l-7 -42h25c48 0 84 -32 84 -75c0 -45 -29 -91 -109 -91c-40 0 -95 20 -95 65z" />
    <glyph glyph-name="uni0328" unicode="&#x328;" 
d="M-398 -142c0 68 73 120 134 158l14 -16c-54 -40 -80 -70 -80 -123c0 -27 18 -41 42 -41c26 0 38 12 52 32l20 -14c-18 -41 -56 -74 -99 -74s-83 30 -83 78z" />
    <glyph glyph-name="uni032C" unicode="&#x32c;" 
d="M-408 -70l16 16l130 -98l130 98l16 -16l-122 -154h-48z" />
    <glyph glyph-name="uni032D" unicode="&#x32d;" 
d="M-412 -200c75 49 100 114 116 160h68c16 -46 41 -111 116 -160l-16 -24c-46 22 -102 62 -134 96c-32 -34 -88 -74 -134 -96z" />
    <glyph glyph-name="uni032E" unicode="&#x32e;" 
d="M-402 -54h28c10 -52 48 -86 112 -86s102 34 112 86h28c-8 -88 -58 -154 -140 -154s-132 66 -140 154z" />
    <glyph glyph-name="uni032F" unicode="&#x32f;" 
d="M-400 -224c20 70 70 148 138 148s118 -78 138 -148l-22 -8c-22 46 -56 80 -116 80s-94 -34 -116 -80z" />
    <glyph glyph-name="uni0330" unicode="&#x330;" 
d="M-410 -184c0 48 34 108 88 108c33 0 54 -9 82 -21c21 -9 40 -15 64 -15s36 16 40 40h22c0 -48 -34 -108 -88 -108c-33 0 -54 9 -82 21c-21 9 -40 15 -64 15s-36 -16 -40 -40h-22z" />
    <glyph glyph-name="uni0331" unicode="&#x331;" 
d="M-392 -164v64h260v-64h-260z" />
    <glyph glyph-name="uni0332" unicode="&#x332;" 
d="M-520 -104h520v-64h-520v64z" />
    <glyph glyph-name="uni0333" unicode="&#x333;" 
d="M-520 -232h520v-62h-520v62zM-520 -104h520v-64h-520v64z" />
    <glyph glyph-name="uni033E" unicode="&#x33e;" 
d="M-310 738v22c48 0 94 -29 94 -76c0 -25 -6 -44 -16 -69c-8 -19 -12 -32 -12 -52c0 -17 10 -31 30 -33v-22c-48 0 -94 29 -94 76c0 25 6 44 16 69c8 19 12 32 12 52c0 17 -10 31 -30 33z" />
    <glyph glyph-name="uni0342" unicode="&#x342;" 
d="M-438 564c20 58 56 114 114 114c32 0 56 -13 78 -26s44 -26 74 -26c22 0 45 12 64 52l22 -10c-20 -58 -56 -114 -114 -114c-32 0 -56 13 -78 26s-44 26 -74 26c-27 0 -45 -12 -64 -52z" />
    <glyph glyph-name="uni0343" unicode="&#x343;" 
d="M-334 690c0 34 30 60 66 60c46 0 80 -39 80 -94c0 -64 -49 -122 -92 -148l-18 21c40 27 66 57 66 93c0 13 -8 20 -21 20c-6 0 -10 -1 -14 -3c-5 -2 -11 -4 -19 -4c-27 0 -48 22 -48 55z" />
    <glyph glyph-name="uni0344" unicode="&#x344;" 
d="M-214 566c0 32 26 58 58 58s58 -26 58 -58s-26 -58 -58 -58s-58 26 -58 58zM-426 566c0 32 26 58 58 58s58 -26 58 -58s-26 -58 -58 -58s-58 26 -58 58zM-294 550l46 158c8 28 22 54 52 54c22 0 38 -15 38 -35s-9 -36 -20 -53l-92 -136z" />
    <glyph glyph-name="uni0345" unicode="&#x345;" 
d="M-318 -234c0 12 2 23 4 32l22 108c4 19 14 28 30 28s26 -9 30 -28l22 -108c2 -9 4 -20 4 -32c0 -30 -24 -48 -56 -48s-56 18 -56 48z" />
    <glyph glyph-name="uni0351" unicode="&#x351;" 
d="M-318 615c0 78 64 115 128 115v-48c-44 0 -76 -23 -76 -67s32 -67 76 -67v-48c-64 0 -128 37 -128 115z" />
    <glyph glyph-name="uni0357" unicode="&#x357;" 
d="M-318 500v48c44 0 76 23 76 67s-32 67 -76 67v48c64 0 128 -37 128 -115s-64 -115 -128 -115z" />
    <glyph glyph-name="uni0359" unicode="&#x359;" 
d="M-374 -120c0 21 16 36 34 36s25 -11 34 -26c8 -14 25 -36 32 -36c1 0 3 0 3 2c0 15 -6 27 -13 40c-6 11 -12 24 -12 33c0 20 16 31 34 31s34 -11 34 -31c0 -9 -6 -22 -12 -33c-7 -13 -13 -25 -13 -40c0 -2 2 -2 3 -2c7 0 24 22 32 36c9 15 16 26 34 26s34 -15 34 -36
c0 -16 -6 -32 -41 -32c-11 0 -27 -1 -33 -2c-12 -2 -17 -6 -17 -10s5 -8 17 -10c6 -1 22 -2 33 -2c35 0 41 -16 41 -32c0 -21 -16 -36 -34 -36s-25 11 -34 26c-8 14 -25 36 -32 36c-1 0 -3 0 -3 -2c0 -15 6 -27 13 -40c6 -11 12 -24 12 -33c0 -20 -16 -31 -34 -31
s-34 11 -34 31c0 9 6 22 12 33c7 13 13 25 13 40c0 2 -2 2 -3 2c-7 0 -24 -22 -32 -36c-9 -15 -16 -26 -34 -26s-34 15 -34 36c0 16 6 32 41 32c11 0 27 1 33 2c12 2 17 6 17 10s-5 8 -17 10c-6 1 -22 2 -33 2c-35 0 -41 16 -41 32z" />
    <glyph glyph-name="uni035C" unicode="&#x35c;" 
d="M-306 -116l16 24c84 -56 170 -66 290 -66s206 10 290 66l16 -24c-76 -60 -194 -122 -306 -122s-230 62 -306 122z" />
    <glyph glyph-name="uni035D" unicode="&#x35d;" 
d="M-306 804l16 24c84 -56 170 -66 290 -66s206 10 290 66l16 -24c-76 -60 -194 -122 -306 -122s-230 62 -306 122z" />
    <glyph glyph-name="uni0361" unicode="&#x361;" 
d="M-306 698c76 60 194 122 306 122s230 -62 306 -122l-16 -24c-84 56 -170 66 -290 66s-206 -10 -290 -66z" />
    <glyph glyph-name="uni0363" unicode="&#x363;" 
d="M-308 594c0 -40 20 -47 33 -47c14 0 26 10 34 22v109l-32 -11c-25 -8 -35 -33 -35 -73zM-392 588c0 56 62 80 109 94l42 14v37c0 39 -21 51 -43 51c-20 0 -40 -7 -40 -24c0 -7 1 -12 8 -19c9 -9 12 -16 12 -26c0 -17 -15 -27 -31 -27c-21 0 -37 15 -37 41
c0 43 50 71 95 71c53 0 116 -21 116 -88v-140c0 -14 4 -20 11 -20c14 0 20 30 20 54h20c0 -21 -3 -46 -16 -63c-9 -12 -26 -23 -50 -23c-36 0 -49 13 -60 35h-2c-14 -19 -38 -35 -72 -35c-39 0 -82 14 -82 68z" />
    <glyph glyph-name="uni0364" unicode="&#x364;" 
d="M-390 660c0 82 53 140 124 140c56 0 100 -36 112 -90c5 -18 5 -50 5 -57h-153c0 -27 0 -48 7 -69c7 -27 30 -44 57 -44c44 0 68 41 72 77h18c-5 -41 -31 -97 -105 -97c-82 0 -137 63 -137 140zM-302 673h73c0 71 -8 111 -37 111s-36 -40 -36 -111z" />
    <glyph glyph-name="uni0365" unicode="&#x365;" 
d="M-311 885c0 28 21 49 49 49s49 -21 49 -49s-21 -49 -49 -49s-49 21 -49 49zM-334 528v16h20c8 0 12 2 12 10v210c0 8 -4 12 -12 12h-20v16h112v-238c0 -8 4 -10 12 -10h20v-16h-144z" />
    <glyph glyph-name="uni0366" unicode="&#x366;" 
d="M-305 660c0 -84 9 -124 43 -124s43 40 43 124s-9 124 -43 124s-43 -40 -43 -124zM-393 660c0 82 62 140 131 140s131 -58 131 -140s-62 -140 -131 -140s-131 58 -131 140z" />
    <glyph glyph-name="uni0367" unicode="&#x367;" 
d="M-425 776v16h116v-214c0 -23 5 -36 25 -36c23 0 57 49 57 109v113c0 8 -4 12 -12 12h-24v16h116v-236c0 -8 4 -12 12 -12h18v-16h-110v52h-2c-16 -34 -41 -60 -77 -60c-21 0 -36 4 -49 12c-21 14 -34 40 -34 65v167c0 8 -4 12 -12 12h-24z" />
    <glyph glyph-name="uni0368" unicode="&#x368;" 
d="M-384 660c0 78 55 140 134 140c64 0 92 -40 92 -75c0 -32 -19 -52 -45 -52c-18 0 -34 13 -34 31c0 17 11 25 17 29c9 6 16 12 16 21c0 12 -12 30 -40 30c-37 0 -52 -50 -52 -123c0 -31 1 -55 7 -76c8 -27 30 -45 56 -45c43 0 65 42 69 79h18c-5 -42 -30 -99 -102 -99
c-81 0 -136 63 -136 140z" />
    <glyph glyph-name="uni0369" unicode="&#x369;" 
d="M-320 660c0 -72 11 -119 38 -119c26 0 48 52 48 118c0 86 -30 121 -48 121c-27 0 -38 -48 -38 -120zM-408 660c0 72 44 140 110 140c28 0 47 -17 61 -41l3 1v116c0 8 -4 12 -12 12h-28v16h120v-348c0 -8 4 -12 12 -12h28v-16h-120v35h-3c-10 -20 -30 -43 -59 -43
c-66 0 -112 69 -112 140z" />
    <glyph glyph-name="uni036A" unicode="&#x36a;" 
d="M-426 508v16h28c8 0 12 4 12 12v340c0 8 -4 12 -12 12h-28v16h120v-184h2c16 34 41 60 77 60c21 0 36 -4 49 -12c21 -14 34 -40 34 -65v-167c0 -8 4 -12 12 -12h20v-16h-144v16h20c8 0 12 4 12 12v186c0 23 -5 36 -25 36c-23 0 -57 -49 -57 -109v-113c0 -8 4 -12 12 -12
h20v-16h-152z" />
    <glyph glyph-name="uni036B" unicode="&#x36b;" 
d="M-490 528v16h20c8 0 12 2 12 10v210c0 8 -4 12 -12 12h-20v16h112v-51l3 -1c18 40 45 60 79 60c51 0 64 -39 71 -61h3c17 45 48 61 75 61c21 0 35 -4 48 -12c21 -14 33 -40 33 -65v-169c0 -8 4 -10 12 -10h20v-16h-140v16h16c8 0 12 2 12 10v182c0 22 -5 42 -25 42
c-23 0 -51 -49 -51 -109v-115c0 -8 4 -10 12 -10h16v-16h-136v16h16c8 0 12 2 12 10v186c0 17 0 38 -21 38c-23 0 -55 -49 -55 -109v-115c0 -8 4 -10 12 -10h16v-16h-140z" />
    <glyph glyph-name="uni036C" unicode="&#x36c;" 
d="M-340 528v16h20c8 0 12 2 12 10v210c0 8 -4 12 -12 12h-20v16h112v-53h3c13 35 37 61 70 61c31 0 51 -22 51 -52c0 -28 -22 -51 -49 -51c-24 0 -37 13 -37 31c0 11 4 19 11 27c5 6 7 9 7 14c0 2 -2 5 -7 5c-23 0 -49 -63 -49 -123v-97c0 -8 4 -10 12 -10h16v-16h-140z
" />
    <glyph glyph-name="uni036D" unicode="&#x36d;" 
d="M-364 765v19c51 7 82 42 82 92v7h32v-99h57v-19h-57v-177c0 -19 3 -40 26 -40c36 0 40 64 40 102h18c0 -39 -5 -81 -19 -101c-13 -18 -31 -29 -62 -29c-53 0 -83 26 -83 69v176h-34z" />
    <glyph glyph-name="uni036E" unicode="&#x36e;" 
d="M-410 776v16h152v-16h-16c-6 0 -12 -4 -12 -13c0 -4 1 -9 3 -15l52 -128l45 113c3 7 4 14 4 23s-8 20 -21 20h-15v16h102v-16h-12c-13 0 -23 -10 -32 -32l-90 -224h-22l-93 226c-8 20 -15 30 -35 30h-10z" />
    <glyph glyph-name="uni036F" unicode="&#x36f;" 
d="M-398 528v16h15c21 0 38 16 51 33l48 62l-78 118c-7 11 -13 19 -24 19h-10v16h143v-16h-9c-4 0 -8 -2 -8 -10c0 -4 1 -7 5 -14l31 -48l34 43c5 7 8 12 8 19s-9 10 -16 10h-18v16h105v-16h-19c-13 0 -24 -14 -36 -30l-46 -59l81 -121c7 -11 18 -22 32 -22h7v-16h-146v16h9
c4 0 9 3 9 9c0 5 -2 10 -8 19l-34 50l-28 -37c-7 -9 -11 -16 -11 -25c0 -11 6 -16 14 -16h17v-16h-118z" />
    <glyph glyph-name="uni0370" unicode="&#x370;" horiz-adv-x="556" 
d="M92 0v712h106v-284h322v-100h-322v-328h-106z" />
    <glyph glyph-name="uni0371" unicode="&#x371;" horiz-adv-x="402" 
d="M66 0v474h94v-186h214v-84h-214v-204h-94z" />
    <glyph glyph-name="uni0372" unicode="&#x372;" horiz-adv-x="724" 
d="M319 0v612h-133v-222h-106v322h584v-322h-106v222h-133v-612h-106z" />
    <glyph glyph-name="uni0373" unicode="&#x373;" horiz-adv-x="570" 
d="M238 -282v672h-98v-204h-94v288h478v-288h-94v204h-98v-672h-94z" />
    <glyph glyph-name="uni0374" unicode="&#x374;" horiz-adv-x="240" 
d="M38 513l72 168c17 39 37 59 59 59c24 0 43 -16 43 -41c0 -12 -8 -35 -33 -64l-117 -137z" />
    <glyph glyph-name="uni0375" unicode="&#x375;" horiz-adv-x="240" 
d="M28 -247c0 12 8 35 33 64l117 137l24 -15l-72 -168c-17 -39 -37 -59 -59 -59c-24 0 -43 16 -43 41z" />
    <glyph glyph-name="uni0376" unicode="&#x376;" horiz-adv-x="676" 
d="M92 0v712h106v-519h5l287 519h114v-712h-106v519h-5l-287 -519h-114z" />
    <glyph glyph-name="uni0377" unicode="&#x377;" horiz-adv-x="502" 
d="M66 0v456h94v-288h3l185 288h88v-456h-94v288h-3l-185 -288h-88z" />
    <glyph glyph-name="uni037A" unicode="&#x37a;" horiz-adv-x="440" 
d="M164 -234c0 12 2 23 4 32l22 108c4 19 14 28 30 28s26 -9 30 -28l22 -108c2 -9 4 -20 4 -32c0 -30 -24 -48 -56 -48s-56 18 -56 48z" />
    <glyph glyph-name="uni037B" unicode="&#x37b;" horiz-adv-x="440" 
d="M34 91l24 11c18 -47 54 -84 101 -84c45 0 82 32 94 81c11 39 11 82 11 138s0 99 -11 138c-12 49 -49 81 -94 81c-47 0 -83 -37 -101 -84l-24 11c25 67 78 103 145 103c128 0 213 -112 213 -249s-85 -249 -213 -249c-67 0 -120 36 -145 103z" />
    <glyph glyph-name="uni037C" unicode="&#x37c;" horiz-adv-x="440" 
d="M224 242c0 40 28 68 68 68s68 -28 68 -68s-28 -68 -68 -68s-68 28 -68 68zM48 237c0 137 85 249 213 249c67 0 120 -36 145 -103l-24 -11c-18 47 -54 84 -101 84c-45 0 -82 -32 -94 -81c-11 -39 -11 -82 -11 -138s0 -99 11 -138c12 -49 49 -81 94 -81c47 0 83 37 101 84
l24 -11c-25 -67 -78 -103 -145 -103c-128 0 -213 112 -213 249z" />
    <glyph glyph-name="uni037D" unicode="&#x37d;" horiz-adv-x="440" 
d="M80 242c0 40 28 68 68 68s68 -28 68 -68s-28 -68 -68 -68s-68 28 -68 68zM34 91l24 11c18 -47 54 -84 101 -84c45 0 82 32 94 81c11 39 11 82 11 138s0 99 -11 138c-12 49 -49 81 -94 81c-47 0 -83 -37 -101 -84l-24 11c25 67 78 103 145 103c128 0 213 -112 213 -249
s-85 -249 -213 -249c-67 0 -120 36 -145 103z" />
    <glyph glyph-name="tonos" unicode="&#x1ffd;" horiz-adv-x="240" 
d="M78 523l72 168c17 39 37 59 59 59c24 0 43 -16 43 -41c0 -12 -8 -35 -33 -64l-117 -137z" />
    <glyph glyph-name="tonos" unicode="&#x384;" horiz-adv-x="240" 
d="M78 523l72 168c17 39 37 59 59 59c24 0 43 -16 43 -41c0 -12 -8 -35 -33 -64l-117 -137z" />
    <glyph glyph-name="dieresistonos" unicode="&#x1fee;" horiz-adv-x="440" 
d="M268 566c0 32 26 58 58 58s58 -26 58 -58s-26 -58 -58 -58s-58 26 -58 58zM56 566c0 32 26 58 58 58s58 -26 58 -58s-26 -58 -58 -58s-58 26 -58 58zM188 550l46 158c8 28 22 54 52 54c22 0 38 -15 38 -35s-9 -36 -20 -53l-92 -136z" />
    <glyph glyph-name="dieresistonos" unicode="&#x385;" horiz-adv-x="440" 
d="M268 566c0 32 26 58 58 58s58 -26 58 -58s-26 -58 -58 -58s-58 26 -58 58zM56 566c0 32 26 58 58 58s58 -26 58 -58s-26 -58 -58 -58s-58 26 -58 58zM188 550l46 158c8 28 22 54 52 54c22 0 38 -15 38 -35s-9 -36 -20 -53l-92 -136z" />
    <glyph glyph-name="Alphatonos" unicode="&#x1fbb;" horiz-adv-x="778" 
d="M269 226h185l-91 275zM68 0v32h34c43 0 74 41 88 81l211 617h42l214 -647c12 -35 33 -51 59 -51h40v-32h-351v32h72c16 0 27 15 27 32c0 6 -3 20 -6 29l-32 96h-210l-21 -61c-7 -18 -11 -38 -11 -51c0 -22 19 -45 52 -45h47v-32h-255zM78 523l72 168c17 39 37 59 59 59
c24 0 43 -16 43 -41c0 -12 -8 -35 -33 -64l-117 -137z" />
    <glyph glyph-name="Alphatonos" unicode="&#x386;" horiz-adv-x="778" 
d="M269 226h185l-91 275zM68 0v32h34c43 0 74 41 88 81l211 617h42l214 -647c12 -35 33 -51 59 -51h40v-32h-351v32h72c16 0 27 15 27 32c0 6 -3 20 -6 29l-32 96h-210l-21 -61c-7 -18 -11 -38 -11 -51c0 -22 19 -45 52 -45h47v-32h-255zM78 523l72 168c17 39 37 59 59 59
c24 0 43 -16 43 -41c0 -12 -8 -35 -33 -64l-117 -137z" />
    <glyph glyph-name="anoteleia" unicode="&#x387;" horiz-adv-x="296" 
d="M70 438c0 45 33 78 78 78s78 -33 78 -78s-33 -78 -78 -78s-78 33 -78 78z" />
    <glyph glyph-name="Epsilontonos" unicode="&#x1fc9;" horiz-adv-x="930" 
d="M302 0v32h70c18 0 24 6 24 24v600c0 18 -6 24 -24 24h-70v32h562l6 -232h-32s-10 64 -40 114c-28 49 -68 86 -120 86h-110c-18 0 -24 -6 -24 -24v-276h51c56 0 100 80 100 138h32v-313h-32c0 59 -44 139 -100 139h-51v-288c0 -18 6 -24 24 -24h109c82 0 129 88 148 142
c13 37 21 102 21 102h32l-6 -276h-570zM78 523l72 168c17 39 37 59 59 59c24 0 43 -16 43 -41c0 -12 -8 -35 -33 -64l-117 -137z" />
    <glyph glyph-name="Epsilontonos" unicode="&#x388;" horiz-adv-x="930" 
d="M302 0v32h70c18 0 24 6 24 24v600c0 18 -6 24 -24 24h-70v32h562l6 -232h-32s-10 64 -40 114c-28 49 -68 86 -120 86h-110c-18 0 -24 -6 -24 -24v-276h51c56 0 100 80 100 138h32v-313h-32c0 59 -44 139 -100 139h-51v-288c0 -18 6 -24 24 -24h109c82 0 129 88 148 142
c13 37 21 102 21 102h32l-6 -276h-570zM78 523l72 168c17 39 37 59 59 59c24 0 43 -16 43 -41c0 -12 -8 -35 -33 -64l-117 -137z" />
    <glyph glyph-name="Etatonos" unicode="&#x1fcb;" horiz-adv-x="1064" 
d="M302 0v32h70c18 0 24 6 24 24v600c0 18 -6 24 -24 24h-70v32h336v-32h-70c-18 0 -24 -6 -24 -24v-264h236v264c0 18 -6 24 -24 24h-72v32h338v-32h-70c-18 0 -24 -6 -24 -24v-600c0 -18 6 -24 24 -24h70v-32h-336v32h70c18 0 24 6 24 24v300h-236v-300
c0 -18 6 -24 24 -24h70v-32h-336zM78 523l72 168c17 39 37 59 59 59c24 0 43 -16 43 -41c0 -12 -8 -35 -33 -64l-117 -137z" />
    <glyph glyph-name="Etatonos" unicode="&#x389;" horiz-adv-x="1064" 
d="M302 0v32h70c18 0 24 6 24 24v600c0 18 -6 24 -24 24h-70v32h336v-32h-70c-18 0 -24 -6 -24 -24v-264h236v264c0 18 -6 24 -24 24h-72v32h338v-32h-70c-18 0 -24 -6 -24 -24v-600c0 -18 6 -24 24 -24h70v-32h-336v32h70c18 0 24 6 24 24v300h-236v-300
c0 -18 6 -24 24 -24h70v-32h-336zM78 523l72 168c17 39 37 59 59 59c24 0 43 -16 43 -41c0 -12 -8 -35 -33 -64l-117 -137z" />
    <glyph glyph-name="Iotatonos" unicode="&#x1fdb;" horiz-adv-x="680" 
d="M302 0v32h70c18 0 24 6 24 24v600c0 18 -6 24 -24 24h-70v32h336v-32h-70c-18 0 -24 -6 -24 -24v-600c0 -18 6 -24 24 -24h70v-32h-336zM78 523l72 168c17 39 37 59 59 59c24 0 43 -16 43 -41c0 -12 -8 -35 -33 -64l-117 -137z" />
    <glyph glyph-name="Iotatonos" unicode="&#x38a;" horiz-adv-x="680" 
d="M302 0v32h70c18 0 24 6 24 24v600c0 18 -6 24 -24 24h-70v32h336v-32h-70c-18 0 -24 -6 -24 -24v-600c0 -18 6 -24 24 -24h70v-32h-336zM78 523l72 168c17 39 37 59 59 59c24 0 43 -16 43 -41c0 -12 -8 -35 -33 -64l-117 -137z" />
    <glyph glyph-name="Omicrontonos" unicode="&#x1ff9;" horiz-adv-x="864" 
d="M222 356c0 192 138 374 296 374s296 -182 296 -374s-138 -374 -296 -374s-296 182 -296 374zM392 206c0 -144 50 -192 126 -192s126 48 126 192v300c0 144 -50 192 -126 192s-126 -48 -126 -192v-300zM78 523l72 168c17 39 37 59 59 59c24 0 43 -16 43 -41
c0 -12 -8 -35 -33 -64l-117 -137z" />
    <glyph glyph-name="Omicrontonos" unicode="&#x38c;" horiz-adv-x="864" 
d="M222 356c0 192 138 374 296 374s296 -182 296 -374s-138 -374 -296 -374s-296 182 -296 374zM392 206c0 -144 50 -192 126 -192s126 48 126 192v300c0 144 -50 192 -126 192s-126 -48 -126 -192v-300zM78 523l72 168c17 39 37 59 59 59c24 0 43 -16 43 -41
c0 -12 -8 -35 -33 -64l-117 -137z" />
    <glyph glyph-name="Upsilontonos" unicode="&#x1feb;" horiz-adv-x="930" 
d="M288 690l12 36c76 -14 134 -39 183 -80c55 -46 92 -108 108 -161h8c26 138 92 245 214 245c64 0 107 -57 107 -110c0 -70 -42 -114 -96 -114c-47 0 -78 31 -78 70c0 18 7 31 21 46s18 23 18 36c0 8 -7 18 -21 18c-35 0 -69 -35 -93 -82c-20 -39 -36 -92 -36 -160v-378
c0 -18 6 -24 24 -24h64v-32h-324v32h64c18 0 24 6 24 24v322c0 64 -16 165 -70 230c-35 42 -71 65 -129 82zM78 523l72 168c17 39 37 59 59 59c24 0 43 -16 43 -41c0 -12 -8 -35 -33 -64l-117 -137z" />
    <glyph glyph-name="Upsilontonos" unicode="&#x38e;" horiz-adv-x="930" 
d="M288 690l12 36c76 -14 134 -39 183 -80c55 -46 92 -108 108 -161h8c26 138 92 245 214 245c64 0 107 -57 107 -110c0 -70 -42 -114 -96 -114c-47 0 -78 31 -78 70c0 18 7 31 21 46s18 23 18 36c0 8 -7 18 -21 18c-35 0 -69 -35 -93 -82c-20 -39 -36 -92 -36 -160v-378
c0 -18 6 -24 24 -24h64v-32h-324v32h64c18 0 24 6 24 24v322c0 64 -16 165 -70 230c-35 42 -71 65 -129 82zM78 523l72 168c17 39 37 59 59 59c24 0 43 -16 43 -41c0 -12 -8 -35 -33 -64l-117 -137z" />
    <glyph glyph-name="Omegatonos" unicode="&#x1ffb;" horiz-adv-x="890" 
d="M236 458c0 178 142 272 299 272s299 -94 299 -272c0 -131 -88 -227 -230 -277v-35c0 -18 6 -24 24 -24h135c18 0 28 7 30 24l5 56h32l-14 -202h-246v202c46 16 94 71 94 245c0 158 -41 251 -129 251s-129 -93 -129 -251c0 -174 48 -229 94 -245v-202h-246l-14 202h32
l5 -56c2 -17 12 -24 30 -24h135c18 0 24 6 24 24v35c-142 50 -230 146 -230 277zM78 523l72 168c17 39 37 59 59 59c24 0 43 -16 43 -41c0 -12 -8 -35 -33 -64l-117 -137z" />
    <glyph glyph-name="Omegatonos" unicode="&#x38f;" horiz-adv-x="890" 
d="M236 458c0 178 142 272 299 272s299 -94 299 -272c0 -131 -88 -227 -230 -277v-35c0 -18 6 -24 24 -24h135c18 0 28 7 30 24l5 56h32l-14 -202h-246v202c46 16 94 71 94 245c0 158 -41 251 -129 251s-129 -93 -129 -251c0 -174 48 -229 94 -245v-202h-246l-14 202h32
l5 -56c2 -17 12 -24 30 -24h135c18 0 24 6 24 24v35c-142 50 -230 146 -230 277zM78 523l72 168c17 39 37 59 59 59c24 0 43 -16 43 -41c0 -12 -8 -35 -33 -64l-117 -137z" />
    <glyph glyph-name="iotadieresistonos" unicode="&#x1fd3;" horiz-adv-x="312" 
d="M188 566c0 32 26 58 58 58s58 -26 58 -58s-26 -58 -58 -58s-58 26 -58 58zM-24 566c0 32 26 58 58 58s58 -26 58 -58s-26 -58 -58 -58s-58 26 -58 58zM108 550l46 158c8 28 22 54 52 54c22 0 38 -15 38 -35s-9 -36 -20 -53l-92 -136zM74 130v271c0 62 36 85 67 85
c34 0 61 -20 61 -68c0 -30 -29 -80 -50 -112c-18 -28 -48 -76 -48 -122c0 -59 41 -74 71 -74c43 0 70 29 84 61l15 -7c-6 -60 -31 -176 -106 -176c-58 0 -94 41 -94 142z" />
    <glyph glyph-name="iotadieresistonos" unicode="&#x390;" horiz-adv-x="312" 
d="M188 566c0 32 26 58 58 58s58 -26 58 -58s-26 -58 -58 -58s-58 26 -58 58zM-24 566c0 32 26 58 58 58s58 -26 58 -58s-26 -58 -58 -58s-58 26 -58 58zM108 550l46 158c8 28 22 54 52 54c22 0 38 -15 38 -35s-9 -36 -20 -53l-92 -136zM74 130v271c0 62 36 85 67 85
c34 0 61 -20 61 -68c0 -30 -29 -80 -50 -112c-18 -28 -48 -76 -48 -122c0 -59 41 -74 71 -74c43 0 70 29 84 61l15 -7c-6 -60 -31 -176 -106 -176c-58 0 -94 41 -94 142z" />
    <glyph glyph-name="Alpha" unicode="&#x391;" horiz-adv-x="754" 
d="M245 226h185l-91 275zM44 0v32h34c43 0 74 41 88 81l211 617h42l214 -647c12 -35 33 -51 59 -51h40v-32h-351v32h72c16 0 27 15 27 32c0 6 -3 20 -6 29l-32 96h-210l-21 -61c-7 -18 -11 -38 -11 -51c0 -22 19 -45 52 -45h47v-32h-255z" />
    <glyph glyph-name="Beta" unicode="&#x392;" horiz-adv-x="710" 
d="M304 56c0 -18 6 -24 24 -24h68c66 0 106 34 106 162s-40 162 -106 162h-92v-300zM62 0v32h70c18 0 24 6 24 24v600c0 18 -6 24 -24 24h-70v32h352c119 0 224 -70 224 -170c0 -97 -89 -146 -169 -167v-6c85 -13 193 -71 193 -175c0 -126 -109 -194 -235 -194h-365z
M304 388h92c77 0 92 62 92 154c0 88 -33 138 -86 138h-74c-18 0 -24 -6 -24 -24v-268z" />
    <glyph glyph-name="Gamma" unicode="&#x393;" horiz-adv-x="648" 
d="M62 0v32h70c18 0 24 6 24 24v600c0 18 -6 24 -24 24h-70v32h538l8 -299h-32s-20 92 -52 151c-27 50 -71 116 -135 116h-61c-18 0 -24 -6 -24 -24v-600c0 -18 6 -24 24 -24h91v-32h-357z" />
    <glyph glyph-name="Deltagreek" unicode="&#x394;" horiz-adv-x="660" 
d="M128 122h328l-158 439zM54 0v32l271 698h49l262 -730h-582z" />
    <glyph glyph-name="Epsilon" unicode="&#x395;" horiz-adv-x="690" 
d="M62 0v32h70c18 0 24 6 24 24v600c0 18 -6 24 -24 24h-70v32h562l6 -232h-32s-10 64 -40 114c-28 49 -68 86 -120 86h-110c-18 0 -24 -6 -24 -24v-276h51c56 0 100 80 100 138h32v-313h-32c0 59 -44 139 -100 139h-51v-288c0 -18 6 -24 24 -24h109c82 0 129 88 148 142
c13 37 21 102 21 102h32l-6 -276h-570z" />
    <glyph glyph-name="Zeta" unicode="&#x396;" horiz-adv-x="652" 
d="M68 0v32l352 648h-126c-50 0 -118 -57 -151 -138c-17 -43 -23 -85 -23 -86h-32l12 256h488v-34l-351 -646h137c78 0 138 83 162 130c28 56 38 120 38 120h32l-16 -282h-522z" />
    <glyph glyph-name="Eta" unicode="&#x397;" horiz-adv-x="824" 
d="M62 0v32h70c18 0 24 6 24 24v600c0 18 -6 24 -24 24h-70v32h336v-32h-70c-18 0 -24 -6 -24 -24v-264h236v264c0 18 -6 24 -24 24h-72v32h338v-32h-70c-18 0 -24 -6 -24 -24v-600c0 -18 6 -24 24 -24h70v-32h-336v32h70c18 0 24 6 24 24v300h-236v-300c0 -18 6 -24 24 -24
h70v-32h-336z" />
    <glyph glyph-name="Theta" unicode="&#x398;" horiz-adv-x="728" 
d="M70 356c0 228 146 374 304 374s304 -146 304 -374s-146 -374 -304 -374s-304 146 -304 374zM240 206c0 -144 58 -192 134 -192s134 48 134 192v300c0 144 -58 192 -134 192s-134 -48 -134 -192v-300zM282 258v228h32v-32c0 -18 6 -24 24 -24h72c18 0 24 6 24 24v32h32
v-228h-32v32c0 18 -6 24 -24 24h-72c-18 0 -24 -6 -24 -24v-32h-32z" />
    <glyph glyph-name="Iota" unicode="&#x399;" horiz-adv-x="440" 
d="M62 0v32h70c18 0 24 6 24 24v600c0 18 -6 24 -24 24h-70v32h336v-32h-70c-18 0 -24 -6 -24 -24v-600c0 -18 6 -24 24 -24h70v-32h-336z" />
    <glyph glyph-name="Kappa" unicode="&#x39a;" horiz-adv-x="770" 
d="M62 0v32h70c18 0 24 6 24 24v600c0 18 -6 24 -24 24h-70v32h328v-32h-62c-18 0 -24 -6 -24 -24v-296l193 224c17 20 25 32 25 54c0 24 -14 42 -36 42h-29v32h247v-32h-35c-31 0 -63 -26 -83 -50l-134 -155l211 -399c16 -31 27 -44 60 -44h27v-32h-314v32h40
c12 0 21 10 21 21c0 6 -2 19 -5 25l-145 276l-43 -49v-249c0 -18 6 -24 24 -24h62v-32h-328z" />
    <glyph glyph-name="Lambda" unicode="&#x39b;" horiz-adv-x="754" 
d="M44 0v32h34c43 0 74 41 88 81l211 617h42l214 -647c12 -35 33 -51 59 -51h40v-32h-351v32h72c16 0 27 15 27 32c0 6 -3 20 -6 29l-135 408l-128 -373c-6 -18 -11 -38 -11 -51c0 -22 19 -45 52 -45h47v-32h-255z" />
    <glyph glyph-name="Mu" unicode="&#x39c;" horiz-adv-x="890" 
d="M48 0v32c52 0 104 26 104 90v534c0 18 -6 24 -24 24h-80v32h239l183 -492l134 492h254v-32h-70c-18 0 -24 -6 -24 -24v-600c0 -18 6 -24 24 -24h70v-32h-336v32h70c18 0 24 6 24 24v569l-174 -637h-39l-204 549h-7v-415c0 -64 52 -90 104 -90v-32h-248z" />
    <glyph glyph-name="Nu" unicode="&#x39d;" horiz-adv-x="764" 
d="M48 0v32c72 0 126 42 126 104v427c0 15 -2 18 -11 31l-40 60c-13 19 -25 26 -57 26h-18v32h222l320 -457v321c0 62 -54 104 -126 104v32h292v-32c-72 0 -126 -42 -126 -104v-594h-38l-374 535h-4v-381c0 -62 54 -104 126 -104v-32h-292z" />
    <glyph glyph-name="Xi" unicode="&#x39e;" horiz-adv-x="672" 
d="M200 258v228h32v-32c0 -18 6 -24 24 -24h180c18 0 24 6 24 24v32h32v-228h-32v32c0 18 -6 24 -24 24h-180c-18 0 -24 -6 -24 -24v-32h-32zM80 494v218h532v-218h-32v72c0 18 -6 24 -24 24h-420c-18 0 -24 -6 -24 -24v-72h-32zM80 0v218h32v-72c0 -18 6 -24 24 -24h420
c18 0 24 6 24 24v72h32v-218h-532z" />
    <glyph glyph-name="Omicron" unicode="&#x39f;" horiz-adv-x="712" 
d="M70 356c0 192 138 374 296 374s296 -182 296 -374s-138 -374 -296 -374s-296 182 -296 374zM240 206c0 -144 50 -192 126 -192s126 48 126 192v300c0 144 -50 192 -126 192s-126 -48 -126 -192v-300z" />
    </font>
</defs>
</svg>
