<?xml version="1.0" standalone="no"?>
<!DOCTYPE svg PUBLIC "-//W3C//DTD SVG 1.1//EN" "http://www.w3.org/Graphics/SVG/1.1/DTD/svg11.dtd" >
<svg xmlns="http://www.w3.org/2000/svg" xmlns:xlink="http://www.w3.org/1999/xlink" version="1.1">
<metadata>
Created by FontForge 20141127 at Wed Dec 24 10:27:40 2014
 By Dylan Frankland
Copyright (c) 2012, Impallari Type (www.impallari.com), with Reserved Font Name Encode Sans.
</metadata>
<defs>
<font id="EncodeSansWide-Bold" horiz-adv-x="634" >
  <font-face 
    font-family="Encode Sans Wide"
    font-weight="700"
    font-stretch="normal"
    units-per-em="1000"
    panose-1="2 0 0 0 0 0 0 0 0 0"
    ascent="800"
    descent="-200"
    x-height="540"
    cap-height="740"
    bbox="-147 -220 1945 1030"
    underline-thickness="55"
    underline-position="-57"
    unicode-range="U+000D-FB04"
  />
<missing-glyph horiz-adv-x="869" 
d="M82 1030h704v-1250h-704v1250zM645 -88v987h-421v-987h421z" />
    <glyph glyph-name="f_b" unicode="fb" horiz-adv-x="1205" 
d="M145 393h-130v147h131v23q0 71 18 119t58.5 77t106 42t160.5 14l8 -124q-50 -2 -83.5 -8t-54 -19t-30 -34.5t-9.5 -54.5v-35h157v-147h-157v-393h-175v393zM851 -12q-25 0 -51.5 0.5t-59 3.5t-74 9t-96.5 17v790h175v-326q30 35 74.5 51t101.5 16q121 0 183.5 -66.5
t62.5 -203.5q0 -72 -22.5 -126.5t-64 -91t-100 -55t-129.5 -18.5zM847 108q41 0 69 7.5t45 25.5t24 49t7 78q0 42 -6 70.5t-20.5 46t-37.5 24.5t-57 7q-58 0 -92 -22.5t-34 -67.5v-210q40 -8 102 -8z" />
    <glyph glyph-name="f_f" unicode="ff" horiz-adv-x="980" 
d="M633 393h-312v-393h-175v393h-130v147h131v23q0 71 18 119t58.5 77t106 42t160.5 14l8 -124q-50 -2 -83.5 -8t-54 -19t-30 -34.5t-9.5 -54.5v-35h313v23q0 71 18 119t58.5 77t106 42t160.5 14l8 -124q-50 -2 -83.5 -8t-54 -19t-30 -34.5t-9.5 -54.5v-35h157v-147h-157
v-393h-175v393z" />
    <glyph glyph-name="f_f_b" unicode="ffb" horiz-adv-x="1689" 
d="M145 393h-130v147h131v23q0 71 18 119t58.5 77t106 42t160.5 14l8 -124q-50 -2 -83.5 -8t-54 -19t-30 -34.5t-9.5 -54.5v-35h311v23q0 71 18 119t58.5 77t106 42t160.5 14l8 -124q-50 -2 -83.5 -8t-54 -19t-30 -34.5t-9.5 -54.5v-35h157v-147h-157v-393h-175v393h-310
v-393h-175v393zM1335 -12q-25 0 -51.5 0.5t-59 3.5t-74 9t-96.5 17v790h175v-326q30 35 74.5 51t101.5 16q121 0 183.5 -66.5t62.5 -203.5q0 -72 -22.5 -126.5t-64 -91t-100 -55t-129.5 -18.5zM1331 108q41 0 69 7.5t45 25.5t24 49t7 78q0 42 -6 70.5t-20.5 46t-37.5 24.5
t-57 7q-58 0 -92 -22.5t-34 -67.5v-210q40 -8 102 -8z" />
    <glyph glyph-name="f_f_h" unicode="ffh" horiz-adv-x="1693" 
d="M146 393h-130v147h131v23q0 71 18 119t58.5 77t106 42t160.5 14l8 -124q-50 -2 -83.5 -8t-54 -19t-30 -34.5t-9.5 -54.5v-35h310v23q0 71 18 119t58.5 77t106 42t160.5 14l8 -124q-50 -2 -83.5 -8t-54 -19t-30 -34.5t-9.5 -54.5v-35h157v-147h-157v-393h-175v393h-309
v-393h-175v393zM1056 808h175v-327q74 32 133 50.5t104 18.5q77 0 120.5 -39.5t43.5 -112.5v-398h-176v339q0 42 -15.5 59.5t-50.5 17.5q-29 0 -71 -10.5t-88 -27.5v-378h-175v808z" />
    <glyph glyph-name="f_f_i" unicode="ffi" horiz-adv-x="1297" 
d="M146 393h-130v147h131v23q0 71 18 119t58.5 77t106 42t160.5 14l8 -124q-50 -2 -83.5 -8t-54 -19t-30 -34.5t-9.5 -54.5v-35h310v23q0 71 18 119t58.5 77t106 42t160.5 14l8 -124q-50 -2 -83.5 -8t-54 -19t-30 -34.5t-9.5 -54.5v-35h157v-147h-157v-393h-175v393h-309
v-393h-175v393zM1055 540h176v-540h-176v540zM1143 616q-51 0 -73 22t-22 71q0 48 22 70.5t73 22.5q53 0 74.5 -23t21.5 -70t-21.5 -70t-74.5 -23z" />
    <glyph glyph-name="f_f_j" unicode="ffj" horiz-adv-x="1299" 
d="M146 393h-130v147h131v23q0 71 18 119t58.5 77t106 42t160.5 14l8 -124q-50 -2 -83.5 -8t-54 -19t-30 -34.5t-9.5 -54.5v-35h310v23q0 71 18 119t58.5 77t106 42t160.5 14l8 -124q-50 -2 -83.5 -8t-54 -19t-30 -34.5t-9.5 -54.5v-35h157v-147h-157v-393h-175v393h-309
v-393h-175v393zM1014 -199q13 43 22 80.5t15 79t8.5 91.5t2.5 116v58t-0.5 92t-1 110t-1.5 112h175v-465q-8 -85 -30.5 -156.5t-59.5 -138.5zM1145 616q-51 0 -73 22t-22 71q0 48 22 70.5t73 22.5q53 0 74.5 -23t21.5 -70t-21.5 -70t-74.5 -23z" />
    <glyph glyph-name="f_f_k" unicode="ffk" horiz-adv-x="1641" 
d="M146 393h-130v147h131v23q0 71 18 119t58.5 77t106 42t160.5 14l8 -124q-50 -2 -83.5 -8t-54 -19t-30 -34.5t-9.5 -54.5v-35h310v23q0 71 18 119t58.5 77t106 42t160.5 14l8 -124q-50 -2 -83.5 -8t-54 -19t-30 -34.5t-9.5 -54.5v-35h157v-147h-157v-393h-175v393h-309
v-393h-175v393zM1056 808h175v-477h65l143 209h194l-189 -253l-25 -7v-4l25 -7l206 -269h-193l-163 225h-63v-225h-175v808z" />
    <glyph glyph-name="f_f_l" unicode="ffl" horiz-adv-x="1297" 
d="M146 393h-130v147h131v23q0 71 18 119t58.5 77t106 42t160.5 14l8 -124q-50 -2 -83.5 -8t-54 -19t-30 -34.5t-9.5 -54.5v-35h310v23q0 71 18 119t58.5 77t106 42t160.5 14l8 -124q-50 -2 -83.5 -8t-54 -19t-30 -34.5t-9.5 -54.5v-35h157v-147h-157v-393h-175v393h-309
v-393h-175v393zM1056 808h175v-808h-175v808z" />
    <glyph glyph-name="f_f_t" unicode="fft" horiz-adv-x="1446" 
d="M1288 -14q-97 0 -146 45.5t-49 133.5v228h-288v-393h-175v393h-310v-393h-175v393h-130v147h131v23q0 71 18 119t58.5 77t106 42t160.5 14l8 -124q-50 -2 -83.5 -8t-54 -19t-30 -34.5t-9.5 -54.5v-35h311v23q0 71 18 119t58.5 77t106 42t160.5 14l8 -124q-50 -2 -83.5 -8
t-54 -19t-30 -34.5t-9.5 -54.5v-35h300l27 158l135 14v-172h148v-147h-147v-189q0 -46 18.5 -65t63.5 -19q32 0 68 13v-131q-24 -7 -59.5 -11.5t-70.5 -4.5z" />
    <glyph glyph-name="f_h" unicode="fh" horiz-adv-x="1209" 
d="M572 808h175v-327q74 32 133 50.5t104 18.5q77 0 120.5 -39.5t43.5 -112.5v-398h-176v339q0 42 -15.5 59.5t-50.5 17.5q-29 0 -71 -10.5t-88 -27.5v-378h-175v808zM146 393h-130v147h131v23q0 71 18 119t58.5 77t106 42t160.5 14l8 -124q-50 -2 -83.5 -8t-54 -19
t-30 -34.5t-9.5 -54.5v-35h157v-147h-157v-393h-175v393z" />
    <glyph glyph-name="f_i" unicode="fi" horiz-adv-x="812" 
d="M659 616q-51 0 -73 22t-22 71q0 48 22 70.5t73 22.5q53 0 74.5 -23t21.5 -70t-21.5 -70t-74.5 -23zM571 540h176v-540h-176v540zM146 393h-130v147h131v23q0 71 18 119t58.5 77t106 42t160.5 14l8 -124q-50 -2 -83.5 -8t-54 -19t-30 -34.5t-9.5 -54.5v-35h157v-147h-157
v-393h-175v393z" />
    <glyph glyph-name="f_j" unicode="fj" horiz-adv-x="814" 
d="M146 393h-130v147h131v23q0 71 18 119t58.5 77t106 42t160.5 14l8 -124q-50 -2 -83.5 -8t-54 -19t-30 -34.5t-9.5 -54.5v-35h157v-147h-157v-393h-175v393zM661 616q-51 0 -73 22t-22 71q0 48 22 70.5t73 22.5q53 0 74.5 -23t21.5 -70t-21.5 -70t-74.5 -23zM530 -199
q13 43 22 80.5t15 79t8.5 91.5t2.5 116v58t-0.5 92t-1 110t-1.5 112h175v-465q-8 -85 -30.5 -156.5t-59.5 -138.5z" />
    <glyph glyph-name="f_k" unicode="fk" horiz-adv-x="1157" 
d="M572 808h175v-477h65l143 209h194l-189 -253l-25 -7v-4l25 -7l206 -269h-193l-163 225h-63v-225h-175v808zM146 393h-130v147h131v23q0 71 18 119t58.5 77t106 42t160.5 14l8 -124q-50 -2 -83.5 -8t-54 -19t-30 -34.5t-9.5 -54.5v-35h157v-147h-157v-393h-175v393z" />
    <glyph glyph-name="f_l" unicode="fl" horiz-adv-x="813" 
d="M146 393h-130v147h131v23q0 71 18 119t58.5 77t106 42t160.5 14l8 -124q-50 -2 -83.5 -8t-54 -19t-30 -34.5t-9.5 -54.5v-35h157v-147h-157v-393h-175v393zM571 808h175v-808h-175v808z" />
    <glyph glyph-name="f_t" unicode="ft" horiz-adv-x="962" 
d="M804 -14q-97 0 -146 45.5t-49 133.5v228h-289v-393h-175v393h-130v147h131v23q0 71 18 119t58.5 77t106 42t160.5 14l8 -124q-50 -2 -83.5 -8t-54 -19t-30 -34.5t-9.5 -54.5v-35h301l27 158l135 14v-172h148v-147h-147v-189q0 -46 18.5 -65t63.5 -19q32 0 68 13v-131
q-24 -7 -59.5 -11.5t-70.5 -4.5z" />
    <glyph glyph-name=".notdef" horiz-adv-x="869" 
d="M82 1030h704v-1250h-704v1250zM645 -88v987h-421v-987h421z" />
    <glyph glyph-name="NULL" horiz-adv-x="0" 
 />
    <glyph glyph-name="NULL" horiz-adv-x="0" 
 />
    <glyph glyph-name="nonmarkingreturn" unicode="&#xd;" horiz-adv-x="321" 
 />
    <glyph glyph-name="space" unicode=" " horiz-adv-x="226" 
 />
    <glyph glyph-name="AE.sc" horiz-adv-x="961" 
d="M-2 9l293 568h612v-123h-303l7 -111h282v-105h-271l10 -114h291v-124h-462l-5 118h-228l-61 -118h-165v9zM284 228h161l-9 235h-29z" />
    <glyph glyph-name="AEacute" unicode="&#x1fc;" horiz-adv-x="1043" 
d="M499 815l67 171h180l-119 -180zM-5 10l323 730h667v-136h-338l10 -164h311v-136h-302l11 -168h325v-136h-503l-7 172h-248l-76 -172h-173v10zM307 316h179l-12 301h-33z" />
    <glyph glyph-name="acute.cap" horiz-adv-x="350" 
d="M77 815l67 171h180l-119 -180z" />
    <glyph glyph-name="AEacute.sc" horiz-adv-x="961" 
d="M-2 9l293 568h612v-123h-303l7 -111h282v-105h-271l10 -114h291v-124h-462l-5 118h-228l-61 -118h-165v9zM445 228l-9 235h-29l-123 -235h161zM451 638l58 144h171l-107 -152z" />
    <glyph glyph-name="Aacute" unicode="&#xc1;" horiz-adv-x="785" 
d="M0 10l260 730h264l261 -730v-10h-175l-61 176h-314l-61 -176h-174v10zM505 313l-54 150l-51 157h-16l-51 -158l-54 -149h226zM323 815l67 171h180l-119 -180z" />
    <glyph glyph-name="Aacute.sc" horiz-adv-x="720" 
d="M3 9l231 568h252l231 -568v-9h-166l-51 118h-280l-51 -118h-166v9zM463 239l-50 114l-47 111h-14l-46 -112l-50 -113h207zM295 638l58 144h171l-108 -152z" />
    <glyph glyph-name="Abreve" unicode="&#x102;" horiz-adv-x="785" 
d="M0 10l260 730h264l261 -730v-10h-175l-61 176h-314l-61 -176h-174v10zM505 313l-54 150l-51 157h-16l-51 -158l-54 -149h226zM392 813q-65 0 -109 13.5t-71 37.5t-39 56t-12 70h117q0 -44 25 -68t89 -24t88.5 24t24.5 68h117q0 -39 -12 -71.5t-39 -56t-71 -36.5t-108 -13
z" />
    <glyph glyph-name="breve.cap" horiz-adv-x="537" 
d="M268 813q-65 0 -109 13.5t-71 37.5t-39 56t-12 70h117q0 -44 25 -68t89 -24t88.5 24t24.5 68h117q0 -39 -12 -71.5t-39 -56t-71 -36.5t-108 -13z" />
    <glyph glyph-name="Abreve.sc" horiz-adv-x="720" 
d="M360 634q-60 0 -101 11.5t-66 32t-35.5 47.5t-10.5 57h111q0 -33 22 -52t80 -19q59 0 80.5 19t21.5 52h109q0 -32 -10.5 -59t-35.5 -46.5t-65 -31t-100 -11.5zM3 9l231 568h252l231 -568v-9h-166l-51 118h-280l-51 -118h-166v9zM463 239l-50 114l-47 111h-14l-46 -112
l-50 -113h207z" />
    <glyph glyph-name="Acircumflex" unicode="&#xc2;" horiz-adv-x="785" 
d="M0 10l260 730h264l261 -730v-10h-175l-61 176h-314l-61 -176h-174v10zM505 313l-54 150l-51 157h-16l-51 -158l-54 -149h226zM182 921l209 80l214 -80v-118l-212 79l-211 -79v118z" />
    <glyph glyph-name="circumflex.cap" horiz-adv-x="517" 
d="M44 921l209 80l214 -80v-118l-212 79l-211 -79v118z" />
    <glyph glyph-name="Acircumflex.sc" horiz-adv-x="720" 
d="M3 9l231 568h252l231 -568v-9h-166l-51 118h-280l-51 -118h-166v9zM463 239l-50 114l-47 111h-14l-46 -112l-50 -113h207zM166 732l193 64l197 -64v-108l-195 63l-195 -63v108z" />
    <glyph glyph-name="Adblgrave" unicode="&#x200;" horiz-adv-x="785" 
d="M0 10l260 730h264l261 -730v-10h-175l-61 176h-314l-61 -176h-174v10zM505 313l-54 150l-51 157h-16l-51 -158l-54 -149h226zM209 803l-119 180h177l66 -168zM427 803l-120 180h177l66 -168z" />
    <glyph glyph-name="uni030F.cap" horiz-adv-x="586" 
d="M156 803l-119 180h177l66 -168zM374 803l-120 180h177l66 -168z" />
    <glyph glyph-name="Adblgrave.sc" horiz-adv-x="720" 
d="M3 9l231 568h252l231 -568v-9h-166l-51 118h-280l-51 -118h-166v9zM463 239l-50 114l-47 111h-14l-46 -112l-50 -113h207zM78 781h170l57 -143l-119 -9zM278 781h170l58 -143l-119 -9z" />
    <glyph glyph-name="Adieresis" unicode="&#xc4;" horiz-adv-x="785" 
d="M0 10l260 730h264l261 -730v-10h-175l-61 176h-314l-61 -176h-174v10zM505 313l-54 150l-51 157h-16l-51 -158l-54 -149h226zM239 805q-52 0 -74.5 22t-22.5 73q0 49 22.5 71.5t74.5 22.5t74 -23t22 -71t-22 -71.5t-74 -23.5zM545 805q-52 0 -74.5 22t-22.5 73
q0 49 22.5 71.5t74.5 22.5t74 -23t22 -71t-22 -71.5t-74 -23.5z" />
    <glyph glyph-name="dieresis.cap" horiz-adv-x="577" 
d="M135 805q-52 0 -74.5 22t-22.5 73q0 49 22.5 71.5t74.5 22.5t74 -23t22 -71t-22 -71.5t-74 -23.5zM441 805q-52 0 -74.5 22t-22.5 73q0 49 22.5 71.5t74.5 22.5t74 -23t22 -71t-22 -71.5t-74 -23.5z" />
    <glyph glyph-name="Adieresis.sc" horiz-adv-x="720" 
d="M221 623q-49 0 -70 20t-21 66q0 45 21 66t70 21q50 0 70.5 -21.5t20.5 -65.5t-20.5 -65t-70.5 -21zM498 623q-50 0 -70.5 20t-20.5 66q0 45 20.5 66t70.5 21t70.5 -21.5t20.5 -65.5t-20.5 -65t-70.5 -21zM3 9l231 568h252l231 -568v-9h-166l-51 118h-280l-51 -118h-166v9
zM463 239l-50 114l-47 111h-14l-46 -112l-50 -113h207z" />
    <glyph glyph-name="Agrave" unicode="&#xc0;" horiz-adv-x="785" 
d="M0 10l260 730h264l261 -730v-10h-175l-61 176h-314l-61 -176h-174v10zM505 313l-54 150l-51 157h-16l-51 -158l-54 -149h226zM313 806l-119 180h180l67 -169z" />
    <glyph glyph-name="grave.cap" horiz-adv-x="355" 
d="M144 806l-119 180h180l67 -169z" />
    <glyph glyph-name="Agrave.sc" horiz-adv-x="720" 
d="M3 9l231 568h252l231 -568v-9h-166l-51 118h-280l-51 -118h-166v9zM463 239l-50 114l-47 111h-14l-46 -112l-50 -113h207zM284 630l-109 152h172l57 -144z" />
    <glyph glyph-name="Ainvertedbreve" unicode="&#x202;" horiz-adv-x="785" 
d="M0 10l260 730h264l261 -730v-10h-175l-61 176h-314l-61 -176h-174v10zM505 313l-54 150l-51 157h-16l-51 -158l-54 -149h226zM506 820q0 43 -25 67t-89 24t-89 -24t-25 -67h-117q0 37 12 69.5t39 56.5t71 37.5t109 13.5q64 0 108 -13.5t71.5 -37t39.5 -56t12 -70.5h-117z
" />
    <glyph glyph-name="uni0311.cap" horiz-adv-x="530" 
d="M379 820q0 43 -25 67t-89 24t-89 -24t-25 -67h-117q0 37 12 69.5t39 56.5t71 37.5t109 13.5q64 0 108 -13.5t71.5 -37t39.5 -56t12 -70.5h-117z" />
    <glyph glyph-name="Ainvertedbreve.sc" horiz-adv-x="720" 
d="M147 641q0 30 10.5 57t35.5 47t66 32t101 12t100 -11.5t65 -31.5t35.5 -47t10.5 -58h-109q0 32 -21.5 50.5t-80.5 18.5q-58 0 -80 -18.5t-22 -50.5h-111zM3 9l231 568h252l231 -568v-9h-166l-51 118h-280l-51 -118h-166v9zM463 239l-50 114l-47 111h-14l-46 -112
l-50 -113h207z" />
    <glyph glyph-name="Amacron" unicode="&#x100;" horiz-adv-x="785" 
d="M0 10l260 730h264l261 -730v-10h-175l-61 176h-314l-61 -176h-174v10zM505 313l-54 150l-51 157h-16l-51 -158l-54 -149h226zM183 959h419v-116h-419v116z" />
    <glyph glyph-name="macron.cap" horiz-adv-x="526" 
d="M53 959h419v-116h-419v116z" />
    <glyph glyph-name="Amacron.sc" horiz-adv-x="720" 
d="M3 9l231 568h252l231 -568v-9h-166l-51 118h-280l-51 -118h-166v9zM463 239l-50 114l-47 111h-14l-46 -112l-50 -113h207zM167 766h386v-108h-386v108z" />
    <glyph glyph-name="Aogonek" unicode="&#x104;" horiz-adv-x="784" 
d="M694 -220q-72 0 -110.5 23t-38.5 68q0 35 24.5 69t70.5 60h-31l-61 176h-314l-61 -176h-174v10l260 730h264l261 -730v-20q-70 -30 -98 -50.5t-28 -43.5q0 -25 34 -25q14 0 41 4.5t51 10.5v-94q-38 -12 -90 -12zM504 313l-54 150l-51 157h-16l-51 -158l-54 -149h226z" />
    <glyph glyph-name="ogonek" unicode="&#x2db;" horiz-adv-x="338" 
d="M194 -220q-72 0 -110.5 23t-38.5 68q0 35 24.5 69t70.5 60h144v-10q-70 -30 -98 -50.5t-28 -43.5q0 -25 34 -25q14 0 41 4.5t51 10.5v-94q-38 -12 -90 -12z" />
    <glyph glyph-name="Aogonek.sc" horiz-adv-x="719" 
d="M634 -172q-66 0 -102 20.5t-36 54.5q0 26 21 53.5t56 43.5h-24l-50 118h-280l-51 -118h-166v9l231 568h252l231 -568v-14q-37 -13 -59 -22.5t-34 -17t-15.5 -13t-3.5 -11.5q0 -10 6 -13t20 -3q7 0 18.5 0.5t24 2t24.5 3.5t20 4v-87q-20 -5 -41.5 -7.5t-41.5 -2.5z
M461 239l-49 115l-47 110h-14l-46 -111l-51 -114h207z" />
    <glyph glyph-name="Aring" unicode="&#xc5;" horiz-adv-x="785" 
d="M0 10l260 730h264l261 -730v-10h-175l-61 176h-314l-61 -176h-174v10zM505 313l-54 150l-51 157h-16l-51 -158l-54 -149h226zM393 787q-30 0 -55.5 8.5t-44.5 23.5t-29.5 36t-10.5 47q0 25 10.5 46.5t29.5 37t44.5 24t55.5 8.5t55.5 -8.5t44.5 -24t29.5 -37t10.5 -46.5
q0 -26 -10.5 -47t-29.5 -36t-44.5 -23.5t-55.5 -8.5zM393 847q37 0 52.5 13.5t15.5 41.5t-15.5 41.5t-52.5 13.5t-52.5 -13.5t-15.5 -41.5t15.5 -41.5t52.5 -13.5z" />
    <glyph glyph-name="ring.cap" horiz-adv-x="395" 
d="M197 787q-30 0 -55.5 8.5t-44.5 23.5t-29.5 36t-10.5 47q0 25 10.5 46.5t29.5 37t44.5 24t55.5 8.5t55.5 -8.5t44.5 -24t29.5 -37t10.5 -46.5q0 -26 -10.5 -47t-29.5 -36t-44.5 -23.5t-55.5 -8.5zM197 847q37 0 52.5 13.5t15.5 41.5t-15.5 41.5t-52.5 13.5t-52.5 -13.5
t-15.5 -41.5t15.5 -41.5t52.5 -13.5z" />
    <glyph glyph-name="Aring.sc" horiz-adv-x="720" 
d="M3 9l231 568h252l231 -568v-9h-166l-51 118h-280l-51 -118h-166v9zM463 239l-50 114l-47 111h-14l-46 -112l-50 -113h207zM361 612q-54 0 -90.5 24.5t-36.5 66.5q0 21 9.5 38t27 29t40.5 19t50 7q55 0 91 -25.5t36 -67.5t-36 -66.5t-91 -24.5zM361 664q33 0 46.5 9.5
t13.5 29.5t-13.5 30t-46.5 10t-46.5 -10t-13.5 -30t13.5 -29.5t46.5 -9.5z" />
    <glyph glyph-name="Aringacute" unicode="&#x1fa;" horiz-adv-x="785" 
d="M0 10l237 667q-35 33 -35 81q0 54 37.5 90t101.5 47l48 115h179l-83 -125q47 -17 74.5 -49.5t27.5 -77.5q0 -26 -10.5 -47.5t-27.5 -38.5l236 -662v-10h-174l-61 172h-316l-60 -172h-174v10zM393 698q40 0 64 16.5t24 43.5q0 29 -24 45t-64 16q-38 0 -61 -16t-23 -45
q0 -27 23 -43.5t61 -16.5zM504 316l-53 147l-44 139h-30l-45 -140l-52 -146h224z" />
    <glyph glyph-name="Aringacute.sc" horiz-adv-x="720" 
d="M3 9l211 522q-29 27 -29 62q0 44 33.5 73t92.5 40l41 92h171l-75 -102q43 -14 68 -41t25 -62q0 -20 -9 -36.5t-25 -30.5l210 -517v-9h-166l-51 118h-280l-51 -118h-166v9zM361 549q36 0 57.5 12t21.5 32t-21.5 32t-57.5 12q-35 0 -55.5 -12t-20.5 -32t21 -32t55 -12z
M464 239l-51 114l-41 106h-25l-41 -107l-48 -113h206z" />
    <glyph glyph-name="Atilde" unicode="&#xc3;" horiz-adv-x="785" 
d="M0 10l260 730h264l261 -730v-10h-175l-61 176h-314l-61 -176h-174v10zM505 313l-54 150l-51 157h-16l-51 -158l-54 -149h226zM146 863q35 61 79.5 91t86.5 30q28 0 54 -6t52 -13t52 -13t53 -6q25 0 48.5 7.5t54.5 29.5l23 -35q-35 -60 -80.5 -90.5t-86.5 -30.5
q-27 0 -53.5 6t-53 13t-52.5 13t-52 6q-25 0 -48.5 -7t-52.5 -29z" />
    <glyph glyph-name="tilde.cap" horiz-adv-x="545" 
d="M25 863q35 61 79.5 91t86.5 30q28 0 54 -6t52 -13t52 -13t53 -6q25 0 48.5 7.5t54.5 29.5l23 -35q-35 -60 -80.5 -90.5t-86.5 -30.5q-27 0 -53.5 6t-53 13t-52.5 13t-52 6q-25 0 -48.5 -7t-52.5 -29z" />
    <glyph glyph-name="Atilde.sc" horiz-adv-x="720" 
d="M3 9l231 568h252l231 -568v-9h-166l-51 118h-280l-51 -118h-166v9zM463 239l-50 114l-47 111h-14l-46 -112l-50 -113h207zM133 674q32 55 73 82t79 27q25 0 49.5 -4.5t48.5 -9.5t48 -9.5t48 -4.5q22 0 43.5 5.5t50.5 22.5l20 -29q-33 -55 -74.5 -82.5t-78.5 -27.5
q-25 0 -49.5 4.5t-48.5 10t-48.5 10t-48.5 4.5q-22 0 -43.5 -6t-47.5 -23z" />
    <glyph glyph-name="B" unicode="B" horiz-adv-x="757" 
d="M400 -10q-80 0 -157 3.5t-166 11.5v730q80 8 150 11.5t139 3.5q172 0 250.5 -49.5t78.5 -158.5q0 -62 -34 -103t-99 -58v-4q78 -14 118 -59t40 -117q0 -109 -77.5 -160t-242.5 -51zM388 114q81 0 118.5 25.5t37.5 79.5q0 52 -34.5 76t-112.5 24h-149v-199q9 -2 19.5 -3
t26 -2t38 -1h56.5zM381 432q76 0 107.5 22t31.5 76q0 53 -33 74.5t-114 21.5q-38 0 -69 -1.5t-56 -5.5v-187h133z" />
    <glyph glyph-name="B.sc" horiz-adv-x="698" 
d="M374 -8q-74 0 -146 3t-156 9v569q73 6 138 9t130 3q156 0 227 -40t71 -125q0 -93 -120 -122v-3q70 -11 106.5 -46t36.5 -90q0 -87 -69.5 -127t-217.5 -40zM361 104q69 0 100.5 17.5t31.5 55.5q0 36 -29.5 51.5t-95.5 15.5h-132v-137q8 -1 17 -1.5t22.5 -1t33.5 -0.5h52z
M352 341q66 0 93 15t27 52t-28 51t-99 14q-33 0 -60.5 -0.5t-48.5 -3.5v-128h116z" />
    <glyph glyph-name="C" unicode="C" horiz-adv-x="641" 
d="M434 -13q-199 0 -296 94t-97 288q0 384 378 384q36 0 80.5 -3.5t104.5 -11.5v-144q-35 4 -59.5 7t-43 4.5t-33 2t-28.5 0.5q-62 0 -103 -12t-66 -39.5t-35.5 -73.5t-10.5 -114q0 -66 10.5 -111.5t35 -73t64.5 -39.5t100 -12q17 0 40.5 1.5t47.5 3.5t45.5 5t35.5 6v-143
q-41 -9 -86.5 -14t-83.5 -5z" />
    <glyph glyph-name="C.sc" horiz-adv-x="591" 
d="M400 -12q-184 0 -271.5 74t-87.5 226q0 300 343 300q38 0 78.5 -2.5t88.5 -7.5v-136q-25 3 -44 4.5t-36 2.5t-33 1.5t-34 0.5q-57 0 -93.5 -7.5t-57 -26t-28.5 -50t-8 -79.5q0 -47 8 -78t28 -49.5t55.5 -26t91.5 -7.5q16 0 37 1t42.5 2.5t40.5 3t31 3.5v-136
q-34 -6 -73.5 -9.5t-77.5 -3.5z" />
    <glyph glyph-name="A.sc" horiz-adv-x="720" 
d="M3 9l231 568h252l231 -568v-9h-166l-51 118h-280l-51 -118h-166v9zM464 231l-51 122l-47 111h-14l-46 -112l-51 -121h209z" />
    <glyph glyph-name="Cacute" unicode="&#x106;" horiz-adv-x="641" 
d="M434 -13q-199 0 -296 94t-97 288q0 384 378 384q36 0 80.5 -3.5t104.5 -11.5v-144q-35 4 -59.5 7t-43 4.5t-33 2t-28.5 0.5q-62 0 -103 -12t-66 -39.5t-35.5 -73.5t-10.5 -114q0 -66 10.5 -111.5t35 -73t64.5 -39.5t100 -12q17 0 40.5 1.5t47.5 3.5t45.5 5t35.5 6v-143
q-41 -9 -86.5 -14t-83.5 -5zM293 815l67 171h180l-119 -180z" />
    <glyph glyph-name="Cacute.sc" horiz-adv-x="591" 
d="M400 -12q-184 0 -271.5 73.5t-87.5 226.5q0 152 84.5 226t258.5 74q31 0 70.5 -2t95.5 -8v-136q-32 3 -54.5 5t-38.5 2.5t-28.5 1t-25.5 0.5q-55 0 -91 -7t-57.5 -25t-30 -49.5t-8.5 -81.5q0 -48 8.5 -79.5t29.5 -49.5t56.5 -25t89.5 -7q15 0 35.5 1t42 2.5t41 3
t31.5 3.5v-136q-37 -6 -77 -9.5t-73 -3.5zM265 638l58 144h171l-108 -152z" />
    <glyph glyph-name="Ccaron" unicode="&#x10c;" horiz-adv-x="641" 
d="M434 -13q-199 0 -296 94t-97 288q0 384 378 384q36 0 80.5 -3.5t104.5 -11.5v-144q-35 4 -59.5 7t-43 4.5t-33 2t-28.5 0.5q-62 0 -103 -12t-66 -39.5t-35.5 -73.5t-10.5 -114q0 -66 10.5 -111.5t35 -73t64.5 -39.5t100 -12q17 0 40.5 1.5t47.5 3.5t45.5 5t35.5 6v-143
q-41 -9 -86.5 -14t-83.5 -5zM153 1001l212 -80l211 80v-119l-214 -79l-209 79v119z" />
    <glyph glyph-name="caron.cap" horiz-adv-x="510" 
d="M43 1001l212 -80l211 80v-119l-214 -79l-209 79v119z" />
    <glyph glyph-name="Ccaron.sc" horiz-adv-x="591" 
d="M400 -12q-184 0 -271.5 73.5t-87.5 226.5q0 152 84.5 226t258.5 74q31 0 70.5 -2t95.5 -8v-136q-32 3 -54.5 5t-38.5 2.5t-28.5 1t-25.5 0.5q-55 0 -91 -7t-57.5 -25t-30 -49.5t-8.5 -81.5q0 -48 8.5 -79.5t29.5 -49.5t56.5 -25t89.5 -7q15 0 35.5 1t42 2.5t41 3
t31.5 3.5v-136q-37 -6 -77 -9.5t-73 -3.5zM138 796l194 -63l195 63v-109l-197 -63l-192 63v109z" />
    <glyph glyph-name="Ccedilla" unicode="&#xc7;" horiz-adv-x="641" 
d="M359 -220q-24 0 -53 3.5t-58 8.5v102q19 -5 42 -9t43 -4q26 0 36 8t10 24q0 14 -9 34t-29 46q-300 40 -300 376q0 384 378 384q36 0 80.5 -3.5t104.5 -11.5v-144q-35 4 -59.5 7t-43 4.5t-33 2t-28.5 0.5q-62 0 -103 -12t-66 -39.5t-35.5 -73.5t-10.5 -114
q0 -66 10.5 -111.5t35 -73t64.5 -39.5t100 -12q17 0 40.5 1.5t47.5 3.5t45.5 5t35.5 6v-143q-36 -8 -76 -12.5t-75 -6.5q23 -30 31.5 -51t8.5 -43q0 -54 -36 -83.5t-98 -29.5z" />
    <glyph glyph-name="cedilla" unicode="&#xb8;" horiz-adv-x="331" 
d="M151 -220q-24 0 -53 3.5t-58 8.5v102q19 -5 42 -9t43 -4q26 0 36 8t10 24q0 19 -18.5 51.5t-63.5 79.5h107q27 -29 44 -50.5t27 -39t14 -32t4 -29.5q0 -54 -36 -83.5t-98 -29.5z" />
    <glyph glyph-name="Ccedilla.sc" horiz-adv-x="592" 
d="M333 -172q-22 0 -49 3.5t-53 6.5v93q17 -4 38.5 -7t40.5 -3q22 0 29.5 4.5t7.5 12.5t-6.5 21t-20.5 33q-142 14 -210.5 87t-68.5 209q0 152 84.5 226t258.5 74q32 0 71.5 -2t95.5 -8v-136l-55 5t-38.5 2.5t-28.5 1t-25 0.5q-55 0 -91 -7t-57.5 -25t-30 -49.5t-8.5 -81.5
q0 -48 8.5 -79.5t29.5 -49.5t56 -25t89 -7q15 0 36 1t42.5 2.5t41 3t31.5 3.5v-136q-31 -5 -64.5 -8t-62.5 -5q17 -23 23.5 -38.5t6.5 -32.5q0 -43 -33 -66t-88 -23z" />
    <glyph glyph-name="Ccircumflex" unicode="&#x108;" horiz-adv-x="641" 
d="M434 -13q-199 0 -296 94t-97 288q0 384 378 384q36 0 80.5 -3.5t104.5 -11.5v-144q-35 4 -59.5 7t-43 4.5t-33 2t-28.5 0.5q-62 0 -103 -12t-66 -39.5t-35.5 -73.5t-10.5 -114q0 -66 10.5 -111.5t35 -73t64.5 -39.5t100 -12q17 0 40.5 1.5t47.5 3.5t45.5 5t35.5 6v-143
q-41 -9 -86.5 -14t-83.5 -5zM151 921l209 80l214 -80v-118l-212 79l-211 -79v118z" />
    <glyph glyph-name="Ccircumflex.sc" horiz-adv-x="591" 
d="M400 -12q-184 0 -271.5 73.5t-87.5 226.5q0 152 84.5 226t258.5 74q31 0 70.5 -2t95.5 -8v-136q-32 3 -54.5 5t-38.5 2.5t-28.5 1t-25.5 0.5q-55 0 -91 -7t-57.5 -25t-30 -49.5t-8.5 -81.5q0 -48 8.5 -79.5t29.5 -49.5t56.5 -25t89.5 -7q15 0 35.5 1t42 2.5t41 3
t31.5 3.5v-136q-37 -6 -77 -9.5t-73 -3.5zM136 732l193 64l197 -64v-108l-195 63l-195 -63v108z" />
    <glyph glyph-name="Cdotaccent" unicode="&#x10a;" horiz-adv-x="641" 
d="M384 804q-52 0 -74.5 21.5t-22.5 72.5q0 49 22.5 71.5t74.5 22.5t74 -23t22 -71t-22 -71t-74 -23zM434 -13q-199 0 -296 94t-97 288q0 384 378 384q36 0 80.5 -3.5t104.5 -11.5v-144q-35 4 -59.5 7t-43 4.5t-33 2t-28.5 0.5q-62 0 -103 -12t-66 -39.5t-35.5 -73.5
t-10.5 -114q0 -66 10.5 -111.5t35 -73t64.5 -39.5t100 -12q17 0 40.5 1.5t47.5 3.5t45.5 5t35.5 6v-143q-41 -9 -86.5 -14t-83.5 -5z" />
    <glyph glyph-name="dotaccent.cap" horiz-adv-x="347" 
d="M173 804q-52 0 -74.5 21.5t-22.5 72.5q0 49 22.5 71.5t74.5 22.5t74 -23t22 -71t-22 -71t-74 -23z" />
    <glyph glyph-name="Cdotaccent.sc" horiz-adv-x="591" 
d="M400 -12q-184 0 -271.5 73.5t-87.5 226.5q0 152 84.5 226t258.5 74q31 0 70.5 -2t95.5 -8v-136q-32 3 -54.5 5t-38.5 2.5t-28.5 1t-25.5 0.5q-55 0 -91 -7t-57.5 -25t-30 -49.5t-8.5 -81.5q0 -48 8.5 -79.5t29.5 -49.5t56.5 -25t89.5 -7q15 0 35.5 1t42 2.5t41 3
t31.5 3.5v-136q-37 -6 -77 -9.5t-73 -3.5zM352 622q-49 0 -70 20t-21 67q0 45 21 65.5t70 20.5q50 0 70.5 -21.5t20.5 -64.5q0 -44 -20.5 -65.5t-70.5 -21.5z" />
    <glyph glyph-name="D" unicode="D" horiz-adv-x="821" 
d="M308 -10q-34 0 -68 1t-64.5 3t-56 5t-42.5 6v733q84 5 154 8.5t118 3.5q223 0 327 -92t104 -289q0 -101 -26.5 -173t-83.5 -117.5t-146.5 -67t-215.5 -21.5zM378 131q60 0 102 12.5t68.5 41t38 73.5t11.5 111q0 65 -12 110t-39 73.5t-69.5 41.5t-103.5 13q-46 0 -119 -6
v-460q56 -10 123 -10z" />
    <glyph glyph-name="D.sc" horiz-adv-x="754" 
d="M326 -8q-35 0 -72 1t-70.5 2.5t-62.5 3.5t-48 4v572q75 5 140 7.5t112 2.5q199 0 294 -73t95 -225t-94.5 -223.5t-293.5 -71.5zM353 125q52 0 88 8.5t58.5 27.5t32 50t9.5 76t-10.5 76t-33 50.5t-59.5 28.5t-89 9q-21 0 -47 -1t-59 -3v-315q24 -4 51 -5.5t59 -1.5z" />
    <glyph glyph-name="Dcaron" unicode="&#x10e;" horiz-adv-x="821" 
d="M189 1001l212 -80l211 80v-119l-214 -79l-209 79v119zM308 -10q-34 0 -68 1t-64.5 3t-56 5t-42.5 6v733q84 5 154 8.5t118 3.5q223 0 327 -92t104 -289q0 -101 -26.5 -173t-83.5 -117.5t-146.5 -67t-215.5 -21.5zM378 131q60 0 102 12.5t68.5 41t38 73.5t11.5 111
q0 65 -12 110t-39 73.5t-69.5 41.5t-103.5 13q-46 0 -119 -6v-460q56 -10 123 -10z" />
    <glyph glyph-name="Dcaron.sc" horiz-adv-x="755" 
d="M326 -8q-35 0 -72 1t-70.5 2.5t-62.5 3.5t-48 4v572q75 5 140 7.5t112 2.5q199 0 294 -73t95 -225t-94.5 -223.5t-293.5 -71.5zM353 125q52 0 88 8.5t58.5 27.5t32 50t9.5 76t-10.5 76t-33 50.5t-59.5 28.5t-89 9q-21 0 -47 -1t-59 -3v-315q24 -4 51 -5.5t59 -1.5z
M178 687v109l195 -63l195 63v-109l-198 -63z" />
    <glyph glyph-name="Dcroat" unicode="&#x110;" horiz-adv-x="843" 
d="M5 440h93v298q84 5 154 8.5t118 3.5q223 0 327 -92t104 -289q0 -101 -26.5 -173t-83.5 -117.5t-146.5 -67t-215.5 -21.5q-34 0 -68 1t-64.5 3t-56 5t-42.5 6v301h-93v134zM399 131q60 0 102 12.5t68.5 41t38 73.5t11.5 111q0 65 -12 110t-39 73.5t-69.5 41.5t-103.5 13
q-46 0 -119 -6v-161h137v-134h-137v-165q56 -10 123 -10z" />
    <glyph glyph-name="Dcroat.sc" horiz-adv-x="779" 
d="M15 356h82v219q80 5 143.5 7.5t108.5 2.5q201 0 295 -72t94 -226q0 -79 -24 -135t-76 -91.5t-133.5 -52t-196.5 -16.5q-31 0 -62.5 1t-59.5 2.5t-51 3.5t-38 4v225h-82v128zM376 125q52 0 88.5 8t58.5 27t32 50t10 77q0 45 -10.5 76.5t-33.5 51t-59.5 28t-88.5 8.5
q-19 0 -45 -1t-61 -3v-91h116v-128h-116v-96q25 -3 52.5 -5t56.5 -2z" />
    <glyph glyph-name="Ddotbelow" unicode="&#x1e0c;" horiz-adv-x="821" 
d="M397 -206q-40 0 -58 17.5t-18 55.5q0 39 18 56.5t58 17.5q42 0 59 -18t17 -56t-17 -55.5t-59 -17.5zM308 -10q-34 0 -68 1t-64.5 3t-56 5t-42.5 6v733q84 5 154 8.5t118 3.5q223 0 327 -92t104 -289q0 -101 -26.5 -173t-83.5 -117.5t-146.5 -67t-215.5 -21.5zM378 131
q60 0 102 12.5t68.5 41t38 73.5t11.5 111q0 65 -12 110t-39 73.5t-69.5 41.5t-103.5 13q-46 0 -119 -6v-460q56 -10 123 -10z" />
    <glyph glyph-name="dotbelow" horiz-adv-x="261" 
d="M130 -206q-40 0 -58 17.5t-18 55.5q0 39 18 56.5t58 17.5q42 0 59 -18t17 -56t-17 -55.5t-59 -17.5z" />
    <glyph glyph-name="Ddotbelow.sc" horiz-adv-x="755" 
d="M326 -8q-35 0 -72 1t-70.5 2.5t-62.5 3.5t-48 4v572q75 5 140 7.5t112 2.5q199 0 294 -73t95 -225t-94.5 -223.5t-293.5 -71.5zM353 125q52 0 88 8.5t58.5 27.5t32 50t9.5 76t-10.5 76t-33 50.5t-59.5 28.5t-89 9q-21 0 -47 -1t-59 -3v-315q24 -4 51 -5.5t59 -1.5z
M368 -168q-38 0 -54.5 15.5t-16.5 49.5t16.5 49.5t54.5 15.5q39 0 55 -16.5t16 -48.5t-16 -48.5t-55 -16.5z" />
    <glyph glyph-name="Delta" unicode="&#x2206;" horiz-adv-x="876" 
d="M335 740h206l312 -740h-830zM632 135l-194 458l-194 -458h388z" />
    <glyph glyph-name="E" unicode="E" horiz-adv-x="698" 
d="M77 740h568v-136h-390v-164h357v-136h-357v-168h400v-136h-578v740z" />
    <glyph glyph-name="E.sc" horiz-adv-x="646" 
d="M73 577h521v-123h-350v-110h318v-106h-318v-114h358v-124h-529v577z" />
    <glyph glyph-name="Eacute" unicode="&#xc9;" horiz-adv-x="698" 
d="M286 815l67 171h180l-119 -180zM77 740h568v-136h-390v-164h357v-136h-357v-168h400v-136h-578v740z" />
    <glyph glyph-name="Eacute.sc" horiz-adv-x="646" 
d="M73 577h521v-123h-350v-110h318v-106h-318v-114h358v-124h-529v577zM262 638l58 144h171l-108 -152z" />
    <glyph glyph-name="Ebreve" unicode="&#x114;" horiz-adv-x="698" 
d="M354 813q-65 0 -109 13.5t-71 37.5t-39 56t-12 70h117q0 -44 25 -68t89 -24t88.5 24t24.5 68h117q0 -39 -12 -71.5t-39 -56t-71 -36.5t-108 -13zM77 740h568v-136h-390v-164h357v-136h-357v-168h400v-136h-578v740z" />
    <glyph glyph-name="Ebreve.sc" horiz-adv-x="646" 
d="M326 634q-60 0 -101 11.5t-65.5 32t-35 47.5t-10.5 57h110q0 -33 22 -52t80 -19q59 0 80.5 19t21.5 52h109q0 -32 -10.5 -59t-35 -46.5t-65 -31t-100.5 -11.5zM73 577h521v-123h-350v-110h318v-106h-318v-114h358v-124h-529v577z" />
    <glyph glyph-name="Ecaron" unicode="&#x11a;" horiz-adv-x="698" 
d="M149 1001l212 -80l211 80v-119l-214 -79l-209 79v119zM77 740h568v-136h-390v-164h357v-136h-357v-168h400v-136h-578v740z" />
    <glyph glyph-name="Ecaron.sc" horiz-adv-x="646" 
d="M73 577h521v-123h-350v-110h318v-106h-318v-114h358v-124h-529v577zM137 687v109l195 -63l194 63v-109l-196 -63z" />
    <glyph glyph-name="Ecircumflex" unicode="&#xca;" horiz-adv-x="698" 
d="M77 740h568v-136h-390v-164h357v-136h-357v-168h400v-136h-578v740zM164 921l209 80l214 -80v-118l-212 79l-211 -79v118z" />
    <glyph glyph-name="Ecircumflex.sc" horiz-adv-x="646" 
d="M73 577h521v-123h-350v-110h318v-106h-318v-114h358v-124h-529v577zM153 732l193 64l196 -64v-108l-194 63l-195 -63v108z" />
    <glyph glyph-name="Edblgrave" unicode="&#x204;" horiz-adv-x="698" 
d="M77 740h568v-136h-390v-164h357v-136h-357v-168h400v-136h-578v740zM184 803l-119 180h177l66 -168zM402 803l-120 180h177l66 -168z" />
    <glyph glyph-name="Edblgrave.sc" horiz-adv-x="646" 
d="M73 577h521v-123h-350v-110h318v-106h-318v-114h358v-124h-529v577zM58 781h169l58 -143l-119 -9zM259 781h169l59 -143l-120 -9z" />
    <glyph glyph-name="Edieresis" unicode="&#xcb;" horiz-adv-x="698" 
d="M218 805q-52 0 -74.5 22t-22.5 73q0 49 22.5 71.5t74.5 22.5t74 -23t22 -71t-22 -71.5t-74 -23.5zM524 805q-52 0 -74.5 22t-22.5 73q0 49 22.5 71.5t74.5 22.5t74 -23t22 -71t-22 -71.5t-74 -23.5zM77 740h568v-136h-390v-164h357v-136h-357v-168h400v-136h-578v740z
" />
    <glyph glyph-name="Edieresis.sc" horiz-adv-x="646" 
d="M204 623q-48 0 -69.5 20t-21.5 66q0 45 21.5 66t69.5 21q51 0 71 -21.5t20 -65.5t-20 -65t-71 -21zM482 623q-49 0 -70 20t-21 66q0 45 21 66t70 21t69.5 -21.5t20.5 -65.5t-20.5 -65t-69.5 -21zM73 577h521v-123h-350v-110h318v-106h-318v-114h358v-124h-529v577z" />
    <glyph glyph-name="Edotaccent" unicode="&#x116;" horiz-adv-x="698" 
d="M355 804q-52 0 -74.5 21.5t-22.5 72.5q0 49 22.5 71.5t74.5 22.5t74 -23t22 -71t-22 -71t-74 -23zM77 740h568v-136h-390v-164h357v-136h-357v-168h400v-136h-578v740z" />
    <glyph glyph-name="Edotaccent.sc" horiz-adv-x="646" 
d="M326 622q-49 0 -70 20t-21 67q0 45 21 65.5t70 20.5q50 0 70.5 -21.5t20.5 -64.5q0 -44 -20.5 -65.5t-70.5 -21.5zM73 577h521v-123h-350v-110h318v-106h-318v-114h358v-124h-529v577z" />
    <glyph glyph-name="Edotbelow" unicode="&#x1eb8;" horiz-adv-x="698" 
d="M77 740h568v-136h-390v-164h357v-136h-357v-168h400v-136h-578v740zM381 -206q-40 0 -58 17.5t-18 55.5q0 39 18 56.5t58 17.5q42 0 59 -18t17 -56t-17 -55.5t-59 -17.5z" />
    <glyph glyph-name="Edotbelow.sc" horiz-adv-x="646" 
d="M351 -168q-38 0 -54 15.5t-16 49.5t16 49.5t54 15.5q39 0 55 -16.5t16 -48.5t-16 -48.5t-55 -16.5zM73 577h521v-123h-350v-110h318v-106h-318v-114h358v-124h-529v577z" />
    <glyph glyph-name="Egrave" unicode="&#xc8;" horiz-adv-x="698" 
d="M321 806l-119 180h180l67 -169zM77 740h568v-136h-390v-164h357v-136h-357v-168h400v-136h-578v740z" />
    <glyph glyph-name="Egrave.sc" horiz-adv-x="646" 
d="M73 577h521v-123h-350v-110h318v-106h-318v-114h358v-124h-529v577zM188 782h172l57 -144l-121 -8z" />
    <glyph glyph-name="Einvertedbreve" unicode="&#x206;" horiz-adv-x="698" 
d="M77 740h568v-136h-390v-164h357v-136h-357v-168h400v-136h-578v740zM476 820q0 43 -25 67t-89 24t-89 -24t-25 -67h-117q0 37 12 69.5t39 56.5t71 37.5t109 13.5q64 0 108 -13.5t71.5 -37t39.5 -56t12 -70.5h-117z" />
    <glyph glyph-name="Einvertedbreve.sc" horiz-adv-x="646" 
d="M121 641q0 30 10.5 57t35.5 47t66 32t101 12t100.5 -11.5t65 -31.5t35.5 -47t11 -58h-110q0 32 -21.5 50.5t-80.5 18.5t-80.5 -18.5t-21.5 -50.5h-111zM73 577h521v-123h-350v-110h318v-106h-318v-114h358v-124h-529v577z" />
    <glyph glyph-name="Emacron" unicode="&#x112;" horiz-adv-x="698" 
d="M155 959h419v-116h-419v116zM77 740h568v-136h-390v-164h357v-136h-357v-168h400v-136h-578v740z" />
    <glyph glyph-name="Emacron.sc" horiz-adv-x="646" 
d="M73 577h521v-123h-350v-110h318v-106h-318v-114h358v-124h-529v577zM144 766h386v-108h-386v108z" />
    <glyph glyph-name="Eng" unicode="&#x14a;" horiz-adv-x="856" 
d="M536 -171q33 65 51 114.5t23 96.5l-292 353l-74 95h-9v-488h-158v740h136l336 -402l66 -87h9v489h158v-621q0 -32 -10 -73.5t-27 -85.5t-40 -88t-50 -81z" />
    <glyph glyph-name="Eng.sc" horiz-adv-x="765" 
d="M476 -133q30 56 44.5 90.5t19.5 64.5l-239 250l-69 77h-8v-349h-151v577h129l272 -283l61 -67h8v350h150v-474q0 -57 -27.5 -129t-77.5 -143z" />
    <glyph glyph-name="Eogonek" unicode="&#x118;" horiz-adv-x="698" 
d="M77 740h568v-136h-390v-164h357v-136h-357v-168h400v-146q-70 -30 -98 -50.5t-28 -43.5q0 -25 34 -25q14 0 41 4.5t51 10.5v-94q-38 -12 -90 -12q-72 0 -110.5 23t-38.5 68q0 35 24.5 69t70.5 60h-434v740z" />
    <glyph glyph-name="Eogonek.sc" horiz-adv-x="646" 
d="M521 -172q-72 0 -105.5 19.5t-33.5 55.5q0 31 21 55.5t57 41.5h-387v577h521v-123h-350v-110h318v-106h-318v-114h358v-129q-36 -13 -58.5 -22.5t-34.5 -17t-16 -13.5t-4 -12q0 -9 7 -12t20 -3q7 0 18.5 1t24 2.5t24.5 3t20 3.5v-87q-20 -6 -41 -8t-41 -2z" />
    <glyph glyph-name="Eth" unicode="&#xd0;" horiz-adv-x="843" 
d="M5 440h93v298q84 5 154 8.5t118 3.5q223 0 327 -92t104 -289q0 -101 -26.5 -173t-83.5 -117.5t-146.5 -67t-215.5 -21.5q-34 0 -68 1t-64.5 3t-56 5t-42.5 6v301h-93v134zM399 131q60 0 102 12.5t68.5 41t38 73.5t11.5 111q0 65 -12 110t-39 73.5t-69.5 41.5t-103.5 13
q-46 0 -119 -6v-161h137v-134h-137v-165q56 -10 123 -10z" />
    <glyph glyph-name="Eth.sc" horiz-adv-x="777" 
d="M13 348h82v227q79 5 143 7.5t109 2.5q201 0 295 -72t94 -226q0 -79 -24 -135t-76 -91.5t-134 -52t-197 -16.5q-31 0 -62.5 1t-59 2.5t-50.5 3.5t-38 4v229h-82v116zM374 125q52 0 88 8t58.5 27t32 50t9.5 77q0 45 -10.5 76.5t-33 51t-59 28t-88.5 8.5q-19 0 -45 -1
t-61 -3v-99h116v-116h-116v-100q25 -3 52.5 -5t56.5 -2z" />
    <glyph glyph-name="Etilde" unicode="&#x1ebc;" horiz-adv-x="698" 
d="M115 863q35 61 79.5 91t86.5 30q28 0 54 -6t52 -13t52 -13t53 -6q25 0 48.5 7.5t54.5 29.5l23 -35q-35 -60 -80.5 -90.5t-86.5 -30.5q-27 0 -53.5 6t-53 13t-52.5 13t-52 6q-25 0 -48.5 -7t-52.5 -29zM77 740h568v-136h-390v-164h357v-136h-357v-168h400v-136h-578v740z
" />
    <glyph glyph-name="Etilde.sc" horiz-adv-x="646" 
d="M107 674q32 55 73 82t79 27q25 0 49 -4.5t48 -9.5t48.5 -9.5t49.5 -4.5q22 0 43 5.5t50 22.5l21 -29q-34 -55 -75.5 -82.5t-78.5 -27.5q-25 0 -49.5 4.5t-48.5 10t-48.5 10t-48.5 4.5q-23 0 -43.5 -6t-46.5 -23zM73 577h521v-123h-350v-110h318v-106h-318v-114h358v-124
h-529v577z" />
    <glyph glyph-name="Euro" unicode="&#x20ac;" horiz-adv-x="737" 
d="M38 503h89q29 125 124 186t269 61q62 0 106 -6.5t70 -10.5l-45 -142q-6 1 -16.5 2.5t-23.5 3t-26.5 2.5t-25.5 1q-59 0 -101.5 -4.5t-72 -15.5t-48 -30t-28.5 -47h310l-18 -98h-306q-1 -9 -1 -18v-18v-17.5t1 -16.5h290l-19 -99h-256q10 -28 28.5 -46.5t48.5 -30t72 -16
t100 -4.5q33 0 65 2.5t67 10.5v-147q-25 -7 -67 -11t-90 -4q-182 1 -279.5 62t-126.5 184h-90v99h77q-1 8 -1 16.5v16.5v18.5t1 18.5h-77v98z" />
    <glyph glyph-name="Euro.tab" 
d="M2 503h85q28 124 117 185.5t252 61.5q60 0 102.5 -6.5t68.5 -10.5l-43 -142q-5 1 -15.5 2.5t-23.5 3t-26 2.5t-24 1q-50 0 -88 -5t-65 -16t-44.5 -30t-27.5 -46h286l-17 -98h-289q-1 -5 -1 -18v-18v-17t1 -17h274l-18 -99h-236q20 -54 73 -75.5t153 -21.5q32 0 62.5 2.5
t64.5 10.5v-147q-24 -7 -65.5 -11t-87.5 -4q-171 1 -263 62t-120 184h-85v99h71v70h-71v98z" />
    <glyph glyph-name="F" unicode="F" horiz-adv-x="674" 
d="M77 740h568v-136h-390v-185h351v-137h-351v-282h-178v740z" />
    <glyph glyph-name="F.sc" horiz-adv-x="625" 
d="M73 577h521v-127h-350v-126h314v-113h-314v-211h-171v577z" />
    <glyph glyph-name="F_B.sc" horiz-adv-x="1310" 
d="M73 577h521v-127h-350v-126h314v-113h-314v-211h-171v577zM986 -8q-74 0 -146 3t-156 9v569q73 6 138 9t130 3q156 0 227 -40t71 -125q0 -93 -120 -122v-3q70 -11 106.5 -46t36.5 -90q0 -87 -69.5 -127t-217.5 -40zM973 104q69 0 100.5 17.5t31.5 55.5q0 36 -29.5 51.5
t-95.5 15.5h-132v-137q8 -1 17 -1.5t22.5 -1t33.5 -0.5h52zM964 341q66 0 93 15t27 52t-28 51t-99 14q-33 0 -60.5 -0.5t-48.5 -3.5v-128h116z" />
    <glyph glyph-name="F_F.sc" horiz-adv-x="1236" 
d="M73 577h521v-127h-350v-126h314v-113h-314v-211h-171v577zM684 577h521v-127h-350v-126h314v-113h-314v-211h-171v577z" />
    <glyph glyph-name="F_F_B.sc" horiz-adv-x="1921" 
d="M73 577h521v-127h-350v-126h314v-113h-314v-211h-171v577zM684 577h521v-127h-350v-126h314v-113h-314v-211h-171v577zM1597 -8q-74 0 -146 3t-156 9v569q73 6 138 9t130 3q156 0 227 -40t71 -125q0 -93 -120 -122v-3q70 -11 106.5 -46t36.5 -90q0 -87 -69.5 -127
t-217.5 -40zM1584 104q69 0 100.5 17.5t31.5 55.5q0 36 -29.5 51.5t-95.5 15.5h-132v-137q8 -1 17 -1.5t22.5 -1t33.5 -0.5h52zM1575 341q66 0 93 15t27 52t-28 51t-99 14q-33 0 -60.5 -0.5t-48.5 -3.5v-128h116z" />
    <glyph glyph-name="F_F_H.sc" horiz-adv-x="2019" 
d="M73 577h521v-127h-350v-126h314v-113h-314v-211h-171v577zM684 577h521v-127h-350v-126h314v-113h-314v-211h-171v577zM1295 577h171v-217h309v217h170v-577h-170v233h-309v-233h-171v577z" />
    <glyph glyph-name="H.sc" horiz-adv-x="797" 
d="M73 577h171v-217h309v217h170v-577h-170v233h-309v-233h-171v577z" />
    <glyph glyph-name="F_F_I.sc" horiz-adv-x="1539" 
d="M73 577h521v-127h-350v-126h314v-113h-314v-211h-171v577zM684 577h521v-127h-350v-126h314v-113h-314v-211h-171v577zM1295 577h171v-577h-171v577z" />
    <glyph glyph-name="I.sc" horiz-adv-x="317" 
d="M73 577h171v-577h-171v577z" />
    <glyph glyph-name="F_F_J.sc" horiz-adv-x="1546" 
d="M73 577h521v-127h-350v-126h314v-113h-314v-211h-171v577zM684 577h521v-127h-350v-126h314v-113h-314v-211h-171v577zM1238 -122q19 39 32 72.5t20.5 65.5t11 66t3.5 74v421h171v-433q0 -41 -6.5 -78t-21.5 -73.5t-39.5 -76t-60.5 -85.5z" />
    <glyph glyph-name="J.sc" horiz-adv-x="316" 
d="M8 -122q19 39 32 72.5t20.5 65.5t11 66t3.5 74v421h171v-433q0 -41 -6.5 -78t-21.5 -73.5t-39.5 -76t-60.5 -85.5z" />
    <glyph glyph-name="F_F_K.sc" horiz-adv-x="1931" 
d="M73 577h521v-127h-350v-126h314v-113h-314v-211h-171v577zM684 577h521v-127h-350v-126h314v-113h-314v-211h-171v577zM1295 577h171v-224h99l161 224h190l-190 -249l-45 -20v-7l47 -22l203 -279h-190l-160 225h-115v-225h-171v577z" />
    <glyph glyph-name="K.sc" horiz-adv-x="709" 
d="M73 577h171v-224h99l161 224h190l-190 -249l-45 -20v-7l47 -22l203 -279h-190l-160 225h-115v-225h-171v577z" />
    <glyph glyph-name="F_F_L.sc" horiz-adv-x="1793" 
d="M1295 577h171v-450h309v-127h-480v577zM73 577h521v-127h-350v-126h314v-113h-314v-211h-171v577zM684 577h521v-127h-350v-126h314v-113h-314v-211h-171v577z" />
    <glyph glyph-name="L.sc" horiz-adv-x="571" 
d="M73 577h171v-450h309v-127h-480v577z" />
    <glyph glyph-name="F_F_T.sc" horiz-adv-x="1827" 
d="M1429 450h-204v127h579v-127h-205v-450h-170v450zM73 577h521v-127h-350v-126h314v-113h-314v-211h-171v577zM684 577h521v-127h-350v-126h314v-113h-314v-211h-171v577z" />
    <glyph glyph-name="T.sc" horiz-adv-x="625" 
d="M227 450h-204v127h579v-127h-205v-450h-170v450z" />
    <glyph glyph-name="F_H.sc" horiz-adv-x="1407" 
d="M73 577h521v-127h-350v-126h314v-113h-314v-211h-171v577zM684 577h171v-217h309v217h170v-577h-170v233h-309v-233h-171v577z" />
    <glyph glyph-name="F_I.sc" horiz-adv-x="928" 
d="M73 577h521v-127h-350v-126h314v-113h-314v-211h-171v577zM684 577h171v-577h-171v577z" />
    <glyph glyph-name="F_J.sc" horiz-adv-x="935" 
d="M73 577h521v-127h-350v-126h314v-113h-314v-211h-171v577zM626 -122q19 39 32 72.5t20.5 65.5t11 66t3.5 74v421h171v-433q0 -41 -6.5 -78t-21.5 -73.5t-39.5 -76t-60.5 -85.5z" />
    <glyph glyph-name="F_K.sc" horiz-adv-x="1320" 
d="M73 577h521v-127h-350v-126h314v-113h-314v-211h-171v577zM684 577h171v-224h99l161 224h190l-190 -249l-45 -20v-7l47 -22l203 -279h-190l-160 225h-115v-225h-171v577z" />
    <glyph glyph-name="F_L.sc" horiz-adv-x="1182" 
d="M684 577h171v-450h309v-127h-480v577zM73 577h521v-127h-350v-126h314v-113h-314v-211h-171v577z" />
    <glyph glyph-name="F_T.sc" horiz-adv-x="1215" 
d="M818 450h-204v127h579v-127h-205v-450h-170v450zM73 577h521v-127h-350v-126h314v-113h-314v-211h-171v577z" />
    <glyph glyph-name="G" unicode="G" horiz-adv-x="742" 
d="M438 -13q-202 0 -299.5 94t-97.5 288q0 384 407 384q57 0 119.5 -6.5t109.5 -18.5v-143q-71 12 -123.5 17.5t-92.5 5.5q-68 0 -113.5 -12t-73 -39.5t-39 -73.5t-11.5 -114q0 -66 11 -111.5t36 -73t66 -39.5t102 -12q17 0 38.5 1t44.5 3v239h165v-346q-28 -9 -61 -17
t-66.5 -14t-65 -9t-56.5 -3z" />
    <glyph glyph-name="G.sc" horiz-adv-x="683" 
d="M402 -12q-185 0 -273 73.5t-88 226.5q0 152 91 226t279 74q25 0 53.5 -1.5t56 -3.5t53 -6t46.5 -8v-131q-65 7 -113.5 10t-83.5 3q-63 0 -103.5 -7.5t-63.5 -26t-31.5 -50t-8.5 -79.5q0 -47 8.5 -78t29.5 -49.5t57 -26t92 -7.5q4 0 14 0.5t20.5 1t20.5 1.5t14 2v161h158
v-268q-26 -8 -56.5 -14.5t-61 -11.5t-59.5 -8t-51 -3z" />
    <glyph glyph-name="Gacute" unicode="&#x1f4;" horiz-adv-x="742" 
d="M318 815l67 171h180l-119 -180zM438 -13q-202 0 -299.5 94t-97.5 288q0 384 407 384q57 0 119.5 -6.5t109.5 -18.5v-143q-71 12 -123.5 17.5t-92.5 5.5q-68 0 -113.5 -12t-73 -39.5t-39 -73.5t-11.5 -114q0 -66 11 -111.5t36 -73t66 -39.5t102 -12q17 0 38.5 1t44.5 3
v239h165v-346q-28 -9 -61 -17t-66.5 -14t-65 -9t-56.5 -3z" />
    <glyph glyph-name="Gacute.sc" horiz-adv-x="683" 
d="M402 -12q-184 0 -272.5 73t-88.5 227q0 152 91.5 226t278.5 74q26 0 54 -1.5t56 -3.5t53.5 -6t45.5 -8v-135q-65 9 -113.5 13t-83.5 4q-61 0 -101 -7t-63.5 -25t-33 -49.5t-9.5 -81.5q0 -48 9 -79.5t30.5 -49.5t57.5 -25t90 -7q4 0 14 0.5t20.5 1t20.5 1.5t14 2v161h158
v-268q-25 -8 -55 -14.5t-60.5 -11.5t-59.5 -8t-53 -3zM289 638l58 144h171l-107 -152z" />
    <glyph glyph-name="Gbreve" unicode="&#x11e;" horiz-adv-x="742" 
d="M402 813q-65 0 -109 13.5t-71 37.5t-39 56t-12 70h117q0 -44 25 -68t89 -24t88.5 24t24.5 68h117q0 -39 -12 -71.5t-39 -56t-71 -36.5t-108 -13zM438 -13q-202 0 -299.5 94t-97.5 288q0 384 407 384q57 0 119.5 -6.5t109.5 -18.5v-143q-71 12 -123.5 17.5t-92.5 5.5
q-68 0 -113.5 -12t-73 -39.5t-39 -73.5t-11.5 -114q0 -66 11 -111.5t36 -73t66 -39.5t102 -12q17 0 38.5 1t44.5 3v239h165v-346q-28 -9 -61 -17t-66.5 -14t-65 -9t-56.5 -3z" />
    <glyph glyph-name="Gbreve.sc" horiz-adv-x="683" 
d="M402 -12q-184 0 -272.5 73t-88.5 227q0 152 91.5 226t278.5 74q26 0 54 -1.5t56 -3.5t53.5 -6t45.5 -8v-135q-65 9 -113.5 13t-83.5 4q-61 0 -101 -7t-63.5 -25t-33 -49.5t-9.5 -81.5q0 -48 9 -79.5t30.5 -49.5t57.5 -25t90 -7q4 0 14 0.5t20.5 1t20.5 1.5t14 2v161h158
v-268q-25 -8 -55 -14.5t-60.5 -11.5t-59.5 -8t-53 -3zM368 634q-60 0 -100.5 11.5t-65 32t-35 47.5t-10.5 57h109q0 -33 22.5 -52t79.5 -19q59 0 80.5 19t21.5 52h111q0 -32 -10.5 -59t-35.5 -46.5t-66 -31t-101 -11.5z" />
    <glyph glyph-name="Gcircumflex" unicode="&#x11c;" horiz-adv-x="742" 
d="M438 -13q-202 0 -299.5 94t-97.5 288q0 384 407 384q57 0 119.5 -6.5t109.5 -18.5v-143q-71 12 -123.5 17.5t-92.5 5.5q-68 0 -113.5 -12t-73 -39.5t-39 -73.5t-11.5 -114q0 -66 11 -111.5t36 -73t66 -39.5t102 -12q17 0 38.5 1t44.5 3v239h165v-346q-28 -9 -61 -17
t-66.5 -14t-65 -9t-56.5 -3zM178 921l209 80l214 -80v-118l-212 79l-211 -79v118z" />
    <glyph glyph-name="Gcircumflex.sc" horiz-adv-x="683" 
d="M402 -12q-184 0 -272.5 73t-88.5 227q0 152 91.5 226t278.5 74q26 0 54 -1.5t56 -3.5t53.5 -6t45.5 -8v-135q-65 9 -113.5 13t-83.5 4q-61 0 -101 -7t-63.5 -25t-33 -49.5t-9.5 -81.5q0 -48 9 -79.5t30.5 -49.5t57.5 -25t90 -7q4 0 14 0.5t20.5 1t20.5 1.5t14 2v161h158
v-268q-25 -8 -55 -14.5t-60.5 -11.5t-59.5 -8t-53 -3zM162 732l192 64l197 -64v-108l-195 63l-194 -63v108z" />
    <glyph glyph-name="Gcommaaccent" unicode="&#x122;" horiz-adv-x="742" 
d="M307 -70h181l-90 -150h-133zM438 -13q-202 0 -299.5 94t-97.5 288q0 384 407 384q57 0 119.5 -6.5t109.5 -18.5v-143q-71 12 -123.5 17.5t-92.5 5.5q-68 0 -113.5 -12t-73 -39.5t-39 -73.5t-11.5 -114q0 -66 11 -111.5t36 -73t66 -39.5t102 -12q17 0 38.5 1t44.5 3v239
h165v-346q-28 -9 -61 -17t-66.5 -14t-65 -9t-56.5 -3z" />
    <glyph glyph-name="commaaccent" unicode="&#xf6c3;" horiz-adv-x="297" 
d="M86 -70h181l-90 -150h-133z" />
    <glyph glyph-name="Gcommaaccent.sc" horiz-adv-x="683" 
d="M402 -12q-184 0 -272.5 73t-88.5 227q0 152 91.5 226t278.5 74q26 0 54 -1.5t56 -3.5t53.5 -6t45.5 -8v-135q-65 9 -113.5 13t-83.5 4q-61 0 -101 -7t-63.5 -25t-33 -49.5t-9.5 -81.5q0 -48 9 -79.5t30.5 -49.5t57.5 -25t90 -7q4 0 14 0.5t20.5 1t20.5 1.5t14 2v161h158
v-268q-25 -8 -55 -14.5t-60.5 -11.5t-59.5 -8t-53 -3zM277 -55h172l-82 -117h-126z" />
    <glyph glyph-name="Gdotaccent" unicode="&#x120;" horiz-adv-x="742" 
d="M406 804q-52 0 -74.5 21.5t-22.5 72.5q0 49 22.5 71.5t74.5 22.5t74 -23t22 -71t-22 -71t-74 -23zM438 -13q-202 0 -299.5 94t-97.5 288q0 384 407 384q57 0 119.5 -6.5t109.5 -18.5v-143q-71 12 -123.5 17.5t-92.5 5.5q-68 0 -113.5 -12t-73 -39.5t-39 -73.5t-11.5 -114
q0 -66 11 -111.5t36 -73t66 -39.5t102 -12q17 0 38.5 1t44.5 3v239h165v-346q-28 -9 -61 -17t-66.5 -14t-65 -9t-56.5 -3z" />
    <glyph glyph-name="Gdotaccent.sc" horiz-adv-x="683" 
d="M402 -12q-184 0 -272.5 73t-88.5 227q0 152 91.5 226t278.5 74q26 0 54 -1.5t56 -3.5t53.5 -6t45.5 -8v-135q-65 9 -113.5 13t-83.5 4q-61 0 -101 -7t-63.5 -25t-33 -49.5t-9.5 -81.5q0 -48 9 -79.5t30.5 -49.5t57.5 -25t90 -7q4 0 14 0.5t20.5 1t20.5 1.5t14 2v161h158
v-268q-25 -8 -55 -14.5t-60.5 -11.5t-59.5 -8t-53 -3zM372 622q-48 0 -69.5 20t-21.5 67q0 45 21.5 65.5t69.5 20.5q51 0 71 -21.5t20 -64.5q0 -44 -20 -65.5t-71 -21.5z" />
    <glyph glyph-name="H" unicode="H" horiz-adv-x="865" 
d="M77 740h178v-292h355v292h178v-740h-178v312h-355v-312h-178v740z" />
    <glyph glyph-name="Hbar" unicode="&#x126;" horiz-adv-x="879" 
d="M8 622h75v118h178v-118h355v118h178v-118h77v-84h-77v-538h-178v312h-355v-312h-178v538h-75v84zM616 448v90h-355v-90h355z" />
    <glyph glyph-name="Hbar.sc" horiz-adv-x="807" 
d="M15 494h64v83h170v-83h310v83h169v-83h66v-77h-66v-417h-169v218h-310v-218h-170v417h-64v77zM559 346v71h-310v-71h310z" />
    <glyph glyph-name="Hcircumflex" unicode="&#x124;" horiz-adv-x="865" 
d="M77 740h178v-292h355v292h178v-740h-178v312h-355v-312h-178v740zM220 921l209 80l214 -80v-118l-212 79l-211 -79v118z" />
    <glyph glyph-name="Hcircumflex.sc" horiz-adv-x="797" 
d="M73 577h171v-217h309v217h170v-577h-170v233h-309v-233h-171v577zM204 732l192 64l197 -64v-108l-195 63l-194 -63v108z" />
    <glyph glyph-name="Hdotbelow" unicode="&#x1e24;" horiz-adv-x="865" 
d="M77 740h178v-292h355v292h178v-740h-178v312h-355v-312h-178v740zM433 -206q-40 0 -58 17.5t-18 55.5q0 39 18 56.5t58 17.5q42 0 59 -18t17 -56t-17 -55.5t-59 -17.5z" />
    <glyph glyph-name="Hdotbelow.sc" horiz-adv-x="797" 
d="M73 577h171v-217h309v217h170v-577h-170v233h-309v-233h-171v577zM398 -168q-38 0 -54 15.5t-16 49.5t16 49.5t54 15.5q39 0 55 -16.5t16 -48.5t-16 -48.5t-55 -16.5z" />
    <glyph glyph-name="I" unicode="I" horiz-adv-x="332" 
d="M77 740h178v-740h-178v740z" />
    <glyph glyph-name="IJ" unicode="&#x132;" horiz-adv-x="662" 
d="M77 740h178v-740h-178v740zM334 -158q22 49 36.5 91.5t23.5 83.5t13 84t4 95v544h178v-557q0 -52 -7 -97.5t-23 -91.5t-43 -95t-66 -107z" />
    <glyph glyph-name="J" unicode="J" horiz-adv-x="331" 
d="M2 -158q22 49 36.5 91.5t23.5 83.5t13 84t4 95v544h178v-557q0 -52 -7 -97.5t-23 -91.5t-43 -95t-66 -107z" />
    <glyph glyph-name="Iacute" unicode="&#xcd;" horiz-adv-x="332" 
d="M77 740h178v-740h-178v740zM98 815l67 171h180l-119 -180z" />
    <glyph glyph-name="Iacute.sc" horiz-adv-x="317" 
d="M73 577h171v-577h-171v577zM94 638l58 144h171l-108 -152z" />
    <glyph glyph-name="Ibreve" unicode="&#x12c;" horiz-adv-x="332" 
d="M77 740h178v-740h-178v740zM166 813q-65 0 -109 13.5t-71 37.5t-39 56t-12 70h117q0 -44 25 -68t89 -24t88.5 24t24.5 68h117q0 -39 -12 -71.5t-39 -56t-71 -36.5t-108 -13z" />
    <glyph glyph-name="Ibreve.sc" horiz-adv-x="317" 
d="M73 577h171v-577h-171v577zM158 634q-60 0 -100.5 11.5t-65.5 32t-35.5 47.5t-10.5 57h110q0 -33 22 -52t80 -19q59 0 80.5 19t21.5 52h110q0 -32 -10.5 -59t-35.5 -46.5t-65.5 -31t-100.5 -11.5z" />
    <glyph glyph-name="Icircumflex" unicode="&#xce;" horiz-adv-x="332" 
d="M77 740h178v-740h-178v740zM-43 921l209 80l214 -80v-118l-212 79l-211 -79v118z" />
    <glyph glyph-name="Icircumflex.sc" horiz-adv-x="317" 
d="M73 577h171v-577h-171v577zM-33 732l192 64l196 -64v-108l-194 63l-194 -63v108z" />
    <glyph glyph-name="Idblgrave" unicode="&#x208;" horiz-adv-x="332" 
d="M77 740h178v-740h-178v740zM9 803l-119 180h177l66 -168zM227 803l-120 180h177l66 -168z" />
    <glyph glyph-name="Idblgrave.sc" horiz-adv-x="317" 
d="M73 577h171v-577h-171v577zM11 629l-108 152h169l58 -143zM213 629l-109 152h169l59 -143z" />
    <glyph glyph-name="Idieresis" unicode="&#xcf;" horiz-adv-x="332" 
d="M77 740h178v-740h-178v740zM17 805q-52 0 -74.5 22t-22.5 73q0 49 22.5 71.5t74.5 22.5t74 -23t22 -71t-22 -71.5t-74 -23.5zM323 805q-52 0 -74.5 22t-22.5 73q0 49 22.5 71.5t74.5 22.5t74 -23t22 -71t-22 -71.5t-74 -23.5z" />
    <glyph glyph-name="Idieresis.sc" horiz-adv-x="317" 
d="M73 577h171v-577h-171v577zM24 623q-49 0 -70.5 20t-21.5 66q0 45 21.5 66t70.5 21q50 0 70 -21.5t20 -65.5t-20 -65t-70 -21zM301 623q-49 0 -70 20t-21 66q0 45 21 66t70 21t69.5 -21.5t20.5 -65.5t-20.5 -65t-69.5 -21z" />
    <glyph glyph-name="Idotaccent" unicode="&#x130;" horiz-adv-x="332" 
d="M77 740h178v-740h-178v740zM167 804q-52 0 -74.5 21.5t-22.5 72.5q0 49 22.5 71.5t74.5 22.5t74 -23t22 -71t-22 -71t-74 -23z" />
    <glyph glyph-name="Idotaccent.sc" horiz-adv-x="317" 
d="M73 577h171v-577h-171v577zM160 622q-49 0 -70.5 20t-21.5 67q0 45 21.5 65.5t70.5 20.5q50 0 70 -21.5t20 -64.5q0 -44 -20 -65.5t-70 -21.5z" />
    <glyph glyph-name="Idotbelow" unicode="&#x1eca;" horiz-adv-x="332" 
d="M77 740h178v-740h-178v740zM166 -206q-40 0 -58 17.5t-18 55.5q0 39 18 56.5t58 17.5q42 0 59 -18t17 -56t-17 -55.5t-59 -17.5z" />
    <glyph glyph-name="Idotbelow.sc" horiz-adv-x="317" 
d="M73 577h171v-577h-171v577zM159 -168q-38 0 -54 15.5t-16 49.5t16 49.5t54 15.5q39 0 55 -16.5t16 -48.5t-16 -48.5t-55 -16.5z" />
    <glyph glyph-name="Igrave" unicode="&#xcc;" horiz-adv-x="332" 
d="M77 740h178v-740h-178v740zM119 806l-119 180h180l67 -169z" />
    <glyph glyph-name="Igrave.sc" horiz-adv-x="317" 
d="M73 577h171v-577h-171v577zM115 630l-109 152h172l58 -144z" />
    <glyph glyph-name="Iinvertedbreve" unicode="&#x20a;" horiz-adv-x="332" 
d="M77 740h178v-740h-178v740zM283 820q0 43 -25 67t-89 24t-89 -24t-25 -67h-117q0 37 12 69.5t39 56.5t71 37.5t109 13.5q64 0 108 -13.5t71.5 -37t39.5 -56t12 -70.5h-117z" />
    <glyph glyph-name="Iinvertedbreve.sc" horiz-adv-x="317" 
d="M73 577h171v-577h-171v577zM263 641q0 32 -21 50.5t-80 18.5q-58 0 -80 -18.5t-22 -50.5h-111q0 30 10.5 57t35.5 47t66 32t101 12t100.5 -11.5t65 -31.5t35 -47t10.5 -58h-110z" />
    <glyph glyph-name="Imacron" unicode="&#x12a;" horiz-adv-x="332" 
d="M77 740h178v-740h-178v740zM-38 959h419v-116h-419v116z" />
    <glyph glyph-name="Imacron.sc" horiz-adv-x="317" 
d="M73 577h171v-577h-171v577zM-28 766h386v-108h-386v108z" />
    <glyph glyph-name="Iogonek" unicode="&#x12e;" horiz-adv-x="332" 
d="M77 740h178v-750q-70 -30 -98 -50.5t-28 -43.5q0 -25 34 -25q14 0 41 4.5t51 10.5v-94q-38 -12 -90 -12q-72 0 -110.5 23t-38.5 68q0 35 24.5 69t70.5 60h-34v740z" />
    <glyph glyph-name="Iogonek.sc" horiz-adv-x="317" 
d="M73 577h171v-582q-37 -13 -59 -22.5t-34 -17t-16 -13.5t-4 -12q0 -9 6.5 -12t20.5 -3q7 0 18.5 1t23.5 2.5l24 3t20 3.5v-87q-20 -6 -41 -8t-41 -2q-66 0 -102 20.5t-36 54.5q0 30 21 55t56 42h-28v577z" />
    <glyph glyph-name="Itilde" unicode="&#x128;" horiz-adv-x="332" 
d="M77 740h178v-740h-178v740zM-79 863q35 61 79.5 91t86.5 30q28 0 54 -6t52 -13t52 -13t53 -6q25 0 48.5 7.5t54.5 29.5l23 -35q-35 -60 -80.5 -90.5t-86.5 -30.5q-27 0 -53.5 6t-53 13t-52.5 13t-52 6q-25 0 -48.5 -7t-52.5 -29z" />
    <glyph glyph-name="Itilde.sc" horiz-adv-x="317" 
d="M73 577h171v-577h-171v577zM-67 674q32 55 73 82t79 27q25 0 49 -4.5t48 -9.5t48.5 -9.5t49.5 -4.5q22 0 43 5.5t49 22.5l21 -29q-33 -55 -75 -82.5t-79 -27.5q-24 0 -48.5 4.5t-48.5 10t-48.5 10t-48.5 4.5q-23 0 -44 -6t-47 -23z" />
    <glyph glyph-name="Jcircumflex" unicode="&#x134;" horiz-adv-x="331" 
d="M2 -158q22 49 36.5 91.5t23.5 83.5t13 84t4 95v544h178v-557q0 -52 -7 -97.5t-23 -91.5t-43 -95t-66 -107zM-41 921l209 80l214 -80v-118l-212 79l-211 -79v118z" />
    <glyph glyph-name="Jcircumflex.sc" horiz-adv-x="316" 
d="M7 -122q19 39 32 72.5t21 65.5t11.5 66t3.5 74v421h170v-433q0 -41 -6.5 -78t-21.5 -73.5t-39.5 -76t-60.5 -85.5zM-33 732l193 64l197 -64v-108l-195 63l-195 -63v108z" />
    <glyph glyph-name="K" unicode="K" horiz-adv-x="768" 
d="M77 740h178v-299h116l186 299h199l-215 -323l-47 -26v-8l50 -27l229 -356h-199l-186 304h-133v-304h-178v740z" />
    <glyph glyph-name="Kcommaaccent" unicode="&#x136;" horiz-adv-x="768" 
d="M276 -70h181l-90 -150h-133zM77 740h178v-299h116l186 299h199l-215 -323l-47 -26v-8l50 -27l229 -356h-199l-186 304h-133v-304h-178v740z" />
    <glyph glyph-name="Kcommaaccent.sc" horiz-adv-x="709" 
d="M73 577h171v-224h99l161 224h190l-190 -249l-45 -20v-7l47 -22l203 -279h-190l-160 225h-115v-225h-171v577zM284 -55h172l-82 -117h-126z" />
    <glyph glyph-name="L" unicode="L" horiz-adv-x="614" 
d="M77 740h178v-605h346v-135h-524v740z" />
    <glyph glyph-name="Lacute" unicode="&#x139;" horiz-adv-x="613" 
d="M104 815l67 171h180l-119 -180zM77 740h178v-605h346v-135h-524v740z" />
    <glyph glyph-name="Lacute.sc" horiz-adv-x="571" 
d="M73 577h171v-450h309v-127h-480v577zM100 638l58 144h171l-108 -152z" />
    <glyph glyph-name="Lcaron" unicode="&#x13d;" horiz-adv-x="615" 
d="M422 789h138l-44 -228h-94v228zM77 740h178v-605h346v-135h-524v740z" />
    <glyph glyph-name="caron.alt" horiz-adv-x="248" 
d="M57 808h138l-44 -228h-94v228z" />
    <glyph glyph-name="Lcaron.sc" horiz-adv-x="571" 
d="M73 577h171v-450h309v-127h-480v577zM384 625h131l-41 -178h-90v178z" />
    <glyph glyph-name="Lcommaaccent" unicode="&#x13b;" horiz-adv-x="613" 
d="M227 -70h181l-90 -150h-133zM77 740h178v-605h346v-135h-524v740z" />
    <glyph glyph-name="Lcommaaccent.sc" horiz-adv-x="571" 
d="M73 577h171v-450h309v-127h-480v577zM205 -55h171l-82 -117h-126z" />
    <glyph glyph-name="Ldot" unicode="&#x13f;" horiz-adv-x="624" 
d="M77 740h178v-605h346v-135h-524v740zM508 300q-52 0 -74.5 22t-22.5 72t22.5 72t74.5 22t74 -23t22 -71t-22 -71t-74 -23z" />
    <glyph glyph-name="periodcentered" unicode="&#xb7;" horiz-adv-x="291" 
d="M146 276q-52 0 -74.5 22t-22.5 72t22.5 72t74.5 22t74 -23t22 -71t-22 -71t-74 -23z" />
    <glyph glyph-name="Ldot.sc" horiz-adv-x="581" 
d="M73 577h171v-450h309v-127h-480v577zM469 228q-49 0 -70.5 20t-21.5 66t21.5 66.5t70.5 20.5q50 0 70 -21.5t20 -65.5t-20 -65t-70 -21z" />
    <glyph glyph-name="Lslash" unicode="&#x141;" horiz-adv-x="633" 
d="M13 355l83 39v346h178v-261l150 72v-129l-150 -72v-215h346v-135h-524v265l-83 -39v129z" />
    <glyph glyph-name="Lslash.sc" horiz-adv-x="587" 
d="M17 296l73 31v250h169v-190l132 56v-119l-132 -57v-140h310v-127h-479v207l-73 -31v120z" />
    <glyph glyph-name="M" unicode="M" horiz-adv-x="1041" 
d="M77 740h240l145 -350l55 -164h6l56 164l144 350h241v-740h-157v547h-8l-82 -231l-125 -288h-144l-125 288l-81 231h-9v-547h-156v740z" />
    <glyph glyph-name="M.sc" horiz-adv-x="953" 
d="M73 577h218l127 -243l54 -124h9l54 124l127 243h218v-577h-150v402h-8l-81 -186l-99 -195h-131l-99 195l-80 186h-8v-402h-151v577z" />
    <glyph glyph-name="N" unicode="N" horiz-adv-x="858" 
d="M77 740h140l335 -402l65 -87h9v489h156v-740h-141l-326 393l-74 95h-8v-488h-156v740z" />
    <glyph glyph-name="N.sc" horiz-adv-x="767" 
d="M73 577h129l272 -283l61 -67h8v350h150v-577h-129l-263 272l-69 77h-8v-349h-151v577z" />
    <glyph glyph-name="A" unicode="A" horiz-adv-x="785" 
d="M0 10l260 730h264l261 -730v-10h-175l-61 176h-314l-61 -176h-174v10zM505 313l-54 150l-51 157h-16l-51 -158l-54 -149h226z" />
    <glyph glyph-name="Nacute" unicode="&#x143;" horiz-adv-x="858" 
d="M337 815l67 171h180l-119 -180zM77 740h140l335 -402l65 -87h9v489h156v-740h-141l-326 393l-74 95h-8v-488h-156v740z" />
    <glyph glyph-name="Nacute.sc" horiz-adv-x="767" 
d="M73 577h129l272 -283l61 -67h8v350h150v-577h-129l-263 272l-69 77h-8v-349h-151v577zM298 638l59 144h171l-109 -152z" />
    <glyph glyph-name="Ncaron" unicode="&#x147;" horiz-adv-x="858" 
d="M220 1001l212 -80l211 80v-119l-214 -79l-209 79v119zM77 740h140l335 -402l65 -87h9v489h156v-740h-141l-326 393l-74 95h-8v-488h-156v740z" />
    <glyph glyph-name="Ncaron.sc" horiz-adv-x="767" 
d="M73 577h129l272 -283l61 -67h8v350h150v-577h-129l-263 272l-69 77h-8v-349h-151v577zM191 687v109l194 -63l195 63v-109l-197 -63z" />
    <glyph glyph-name="Ncommaaccent" unicode="&#x145;" horiz-adv-x="858" 
d="M347 -70h181l-90 -150h-133zM77 740h140l335 -402l65 -87h9v489h156v-740h-141l-326 393l-74 95h-8v-488h-156v740z" />
    <glyph glyph-name="Ncommaaccent.sc" horiz-adv-x="767" 
d="M73 577h129l272 -283l61 -67h8v350h150v-577h-129l-263 272l-69 77h-8v-349h-151v577zM304 -55h172l-83 -117h-126z" />
    <glyph glyph-name="Ndotaccent" unicode="&#x1e44;" horiz-adv-x="858" 
d="M432 804q-52 0 -74.5 21.5t-22.5 72.5q0 49 22.5 71.5t74.5 22.5t74 -23t22 -71t-22 -71t-74 -23zM77 740h140l335 -402l65 -87h9v489h156v-740h-141l-326 393l-74 95h-8v-488h-156v740z" />
    <glyph glyph-name="Ndotaccent.sc" horiz-adv-x="767" 
d="M73 577h129l272 -283l61 -67h8v350h150v-577h-129l-263 272l-69 77h-8v-349h-151v577zM387 622q-49 0 -70 20t-21 67q0 45 21 65.5t70 20.5q50 0 70.5 -21.5t20.5 -64.5q0 -44 -20.5 -65.5t-70.5 -21.5z" />
    <glyph glyph-name="Ntilde" unicode="&#xd1;" horiz-adv-x="858" 
d="M185 863q35 61 79.5 91t86.5 30q28 0 54 -6t52 -13t52 -13t53 -6q25 0 48.5 7.5t54.5 29.5l23 -35q-35 -60 -80.5 -90.5t-86.5 -30.5q-27 0 -53.5 6t-53 13t-52.5 13t-52 6q-25 0 -48.5 -7t-52.5 -29zM77 740h140l335 -402l65 -87h9v489h156v-740h-141l-326 393l-74 95
h-8v-488h-156v740z" />
    <glyph glyph-name="Ntilde.sc" horiz-adv-x="767" 
d="M160 674q32 55 73 82t79 27q25 0 49 -4.5t48 -9.5t48.5 -9.5t49.5 -4.5q22 0 43 5.5t50 22.5l20 -29q-33 -55 -74.5 -82.5t-78.5 -27.5q-25 0 -49.5 4.5t-48.5 10t-48.5 10t-48.5 4.5q-23 0 -44 -6t-47 -23zM73 577h129l272 -283l61 -67h8v350h150v-577h-129l-263 272
l-69 77h-8v-349h-151v577z" />
    <glyph glyph-name="O" unicode="O" horiz-adv-x="836" 
d="M418 -10q-183 0 -280 96.5t-97 282.5q0 187 97 284t280 97t280.5 -97.5t97.5 -283.5q0 -185 -97.5 -282t-280.5 -97zM418 132q54 0 91 12t60 40t33.5 73.5t10.5 111.5t-11 111.5t-34.5 74t-60.5 41t-89 12.5t-89 -12.5t-60.5 -40.5t-34.5 -74t-11 -112t10.5 -111.5
t34 -73.5t60.5 -40t90 -12z" />
    <glyph glyph-name="O.sc" horiz-adv-x="766" 
d="M383 -8q-166 0 -254.5 75.5t-88.5 220.5q0 146 88 221.5t255 75.5q166 0 254.5 -76.5t88.5 -220.5t-89 -220t-254 -76zM383 125q50 0 82.5 8t52 26.5t27.5 50t8 78.5q0 45 -8.5 76.5t-28.5 51t-52.5 28t-80.5 8.5t-80.5 -8.5t-52 -27.5t-28 -50.5t-8.5 -77.5q0 -47 8 -78
t27 -50t51.5 -27t82.5 -8z" />
    <glyph glyph-name="OE" unicode="&#x152;" horiz-adv-x="1162" 
d="M419 -10q-183 0 -281 96.5t-98 282.5q0 187 97.5 284t281.5 97q39 0 69.5 -2.5t59.5 -7.5h561v-136h-382v-164h348v-136h-348v-168h391v-136h-570q-59 -10 -129 -10zM419 132q41 0 72.5 1.5t56.5 6.5v460q-26 4 -56.5 6t-72.5 2q-53 0 -90 -12.5t-60.5 -40.5t-34.5 -74
t-11 -112t10.5 -111.5t34 -73.5t61 -40t90.5 -12z" />
    <glyph glyph-name="OE.sc" horiz-adv-x="1070" 
d="M384 -8q-167 0 -255 75.5t-88 220.5q0 146 87.5 221.5t255.5 75.5q36 0 63.5 -2t54.5 -6h515v-123h-345v-110h313v-106h-313v-114h353v-124h-523q-29 -5 -57 -6.5t-61 -1.5zM383 125q38 0 67 1.5t52 3.5v317q-23 2 -51.5 3.5t-67.5 1.5q-46 0 -78 -7.5t-52.5 -26
t-29.5 -50.5t-9 -80q0 -49 9 -80.5t29 -50t52 -25.5t79 -7z" />
    <glyph glyph-name="Oacute" unicode="&#xd3;" horiz-adv-x="836" 
d="M350 815l67 171h180l-119 -180zM418 -10q-183 0 -280 96.5t-97 282.5q0 187 97 284t280 97t280.5 -97.5t97.5 -283.5q0 -185 -97.5 -282t-280.5 -97zM418 132q54 0 91 12t60 40t33.5 73.5t10.5 111.5t-11 111.5t-34.5 74t-60.5 41t-89 12.5t-89 -12.5t-60.5 -40.5
t-34.5 -74t-11 -112t10.5 -111.5t34 -73.5t60.5 -40t90 -12z" />
    <glyph glyph-name="Oacute.sc" horiz-adv-x="766" 
d="M384 -8q-166 0 -254.5 75.5t-88.5 220.5q0 146 88 221.5t255 75.5q165 0 254 -76.5t89 -220.5t-89 -220t-254 -76zM384 125q50 0 82.5 8t52 26.5t27.5 50t8 78.5q0 45 -8.5 76.5t-28.5 51t-52.5 28t-80.5 8.5t-81 -8.5t-52.5 -27.5t-28 -50.5t-8.5 -77.5q0 -47 8 -78
t27.5 -50t52 -27t82.5 -8zM320 638l58 144h171l-108 -152z" />
    <glyph glyph-name="Obreve" unicode="&#x14e;" horiz-adv-x="836" 
d="M416 813q-65 0 -109 13.5t-71 37.5t-39 56t-12 70h117q0 -44 25 -68t89 -24t88.5 24t24.5 68h117q0 -39 -12 -71.5t-39 -56t-71 -36.5t-108 -13zM418 -10q-183 0 -280 96.5t-97 282.5q0 187 97 284t280 97t280.5 -97.5t97.5 -283.5q0 -185 -97.5 -282t-280.5 -97z
M418 132q54 0 91 12t60 40t33.5 73.5t10.5 111.5t-11 111.5t-34.5 74t-60.5 41t-89 12.5t-89 -12.5t-60.5 -40.5t-34.5 -74t-11 -112t10.5 -111.5t34 -73.5t60.5 -40t90 -12z" />
    <glyph glyph-name="Obreve.sc" horiz-adv-x="766" 
d="M384 -8q-166 0 -254.5 75.5t-88.5 220.5q0 146 88 221.5t255 75.5q165 0 254 -76.5t89 -220.5t-89 -220t-254 -76zM384 125q50 0 82.5 8t52 26.5t27.5 50t8 78.5q0 45 -8.5 76.5t-28.5 51t-52.5 28t-80.5 8.5t-81 -8.5t-52.5 -27.5t-28 -50.5t-8.5 -77.5q0 -47 8 -78
t27.5 -50t52 -27t82.5 -8zM382 634q-104 0 -158.5 38t-54.5 110h111q0 -37 24.5 -54t77.5 -17t77 17t24 54h110q0 -148 -211 -148z" />
    <glyph glyph-name="Ocircumflex" unicode="&#xd4;" horiz-adv-x="836" 
d="M418 -10q-183 0 -280 96.5t-97 282.5q0 187 97 284t280 97t280.5 -97.5t97.5 -283.5q0 -185 -97.5 -282t-280.5 -97zM418 132q54 0 91 12t60 40t33.5 73.5t10.5 111.5t-11 111.5t-34.5 74t-60.5 41t-89 12.5t-89 -12.5t-60.5 -40.5t-34.5 -74t-11 -112t10.5 -111.5
t34 -73.5t60.5 -40t90 -12zM205 921l209 80l214 -80v-118l-212 79l-211 -79v118z" />
    <glyph glyph-name="Ocircumflex.sc" horiz-adv-x="766" 
d="M384 -8q-166 0 -254.5 75.5t-88.5 220.5q0 146 88 221.5t255 75.5q165 0 254 -76.5t89 -220.5t-89 -220t-254 -76zM384 125q50 0 82.5 8t52 26.5t27.5 50t8 78.5q0 45 -8.5 76.5t-28.5 51t-52.5 28t-80.5 8.5t-81 -8.5t-52.5 -27.5t-28 -50.5t-8.5 -77.5q0 -47 8 -78
t27.5 -50t52 -27t82.5 -8zM187 732l193 64l196 -64v-108l-194 63l-195 -63v108z" />
    <glyph glyph-name="Odblgrave" unicode="&#x20c;" horiz-adv-x="836" 
d="M418 -10q-183 0 -280 96.5t-97 282.5q0 187 97 284t280 97t280.5 -97.5t97.5 -283.5q0 -185 -97.5 -282t-280.5 -97zM418 132q54 0 91 12t60 40t33.5 73.5t10.5 111.5t-11 111.5t-34.5 74t-60.5 41t-89 12.5t-89 -12.5t-60.5 -40.5t-34.5 -74t-11 -112t10.5 -111.5
t34 -73.5t60.5 -40t90 -12zM242 803l-119 180h177l66 -168zM460 803l-120 180h177l66 -168z" />
    <glyph glyph-name="Odblgrave.sc" horiz-adv-x="766" 
d="M384 -8q-166 0 -254.5 75.5t-88.5 220.5q0 146 88 221.5t255 75.5q165 0 254 -76.5t89 -220.5t-89 -220t-254 -76zM384 125q50 0 82.5 8t52 26.5t27.5 50t8 78.5q0 45 -8.5 76.5t-28.5 51t-52.5 28t-80.5 8.5t-81 -8.5t-52.5 -27.5t-28 -50.5t-8.5 -77.5q0 -47 8 -78
t27.5 -50t52 -27t82.5 -8zM218 629l-109 152h170l57 -143zM419 629l-109 152h170l58 -143z" />
    <glyph glyph-name="Odieresis" unicode="&#xd6;" horiz-adv-x="836" 
d="M258 805q-52 0 -74.5 22t-22.5 73q0 49 22.5 71.5t74.5 22.5t74 -23t22 -71t-22 -71.5t-74 -23.5zM564 805q-52 0 -74.5 22t-22.5 73q0 49 22.5 71.5t74.5 22.5t74 -23t22 -71t-22 -71.5t-74 -23.5zM418 -10q-183 0 -280 96.5t-97 282.5q0 187 97 284t280 97t280.5 -97.5
t97.5 -283.5q0 -185 -97.5 -282t-280.5 -97zM418 132q54 0 91 12t60 40t33.5 73.5t10.5 111.5t-11 111.5t-34.5 74t-60.5 41t-89 12.5t-89 -12.5t-60.5 -40.5t-34.5 -74t-11 -112t10.5 -111.5t34 -73.5t60.5 -40t90 -12z" />
    <glyph glyph-name="Odieresis.sc" horiz-adv-x="766" 
d="M384 -8q-166 0 -254.5 75.5t-88.5 220.5q0 146 88 221.5t255 75.5q165 0 254 -76.5t89 -220.5t-89 -220t-254 -76zM384 125q50 0 82.5 8t52 26.5t27.5 50t8 78.5q0 45 -8.5 76.5t-28.5 51t-52.5 28t-80.5 8.5t-81 -8.5t-52.5 -27.5t-28 -50.5t-8.5 -77.5q0 -47 8 -78
t27.5 -50t52 -27t82.5 -8zM238 623q-48 0 -69.5 19.5t-21.5 66.5q0 46 21.5 66.5t69.5 20.5q47 0 69 -20.5t22 -66.5t-21.5 -66t-69.5 -20zM515 623q-48 0 -69 19.5t-21 66.5t21 67t69 20t69.5 -20.5t21.5 -66.5t-21.5 -66t-69.5 -20z" />
    <glyph glyph-name="Odotbelow" unicode="&#x1ecc;" horiz-adv-x="836" 
d="M421 -206q-40 0 -58 17.5t-18 55.5q0 39 18 56.5t58 17.5q42 0 59 -18t17 -56t-17 -55.5t-59 -17.5zM418 -10q-183 0 -280 96.5t-97 282.5q0 187 97 284t280 97t280.5 -97.5t97.5 -283.5q0 -185 -97.5 -282t-280.5 -97zM418 132q54 0 91 12t60 40t33.5 73.5t10.5 111.5
t-11 111.5t-34.5 74t-60.5 41t-89 12.5t-89 -12.5t-60.5 -40.5t-34.5 -74t-11 -112t10.5 -111.5t34 -73.5t60.5 -40t90 -12z" />
    <glyph glyph-name="Odotbelow.sc" horiz-adv-x="766" 
d="M383 -8q-166 0 -254.5 76t-88.5 220q0 146 88 221.5t255 75.5q166 0 254.5 -76.5t88.5 -220.5t-88.5 -220t-254.5 -76zM383 125q47 0 79.5 7t52.5 25.5t29 50t9 80.5q0 47 -9.5 78.5t-30 50.5t-52.5 27t-78 8t-78 -7.5t-52.5 -26t-29.5 -50.5t-9 -80q0 -49 9 -80.5
t29 -50t52 -25.5t79 -7zM386 -168q-37 0 -53.5 15.5t-16.5 49.5t16.5 49.5t53.5 15.5q40 0 55.5 -16.5t15.5 -48.5t-15.5 -48.5t-55.5 -16.5z" />
    <glyph glyph-name="Ograve" unicode="&#xd2;" horiz-adv-x="836" 
d="M342 806l-119 180h180l67 -169zM418 -10q-183 0 -280 96.5t-97 282.5q0 187 97 284t280 97t280.5 -97.5t97.5 -283.5q0 -185 -97.5 -282t-280.5 -97zM418 132q54 0 91 12t60 40t33.5 73.5t10.5 111.5t-11 111.5t-34.5 74t-60.5 41t-89 12.5t-89 -12.5t-60.5 -40.5
t-34.5 -74t-11 -112t10.5 -111.5t34 -73.5t60.5 -40t90 -12z" />
    <glyph glyph-name="Ograve.sc" horiz-adv-x="766" 
d="M383 -8q-166 0 -254.5 76t-88.5 220q0 146 88 221.5t255 75.5q166 0 254.5 -76.5t88.5 -220.5t-88.5 -220t-254.5 -76zM383 125q47 0 79.5 7t52.5 25.5t29 50t9 80.5q0 47 -9.5 78.5t-30 50.5t-52.5 27t-78 8t-78 -7.5t-52.5 -26t-29.5 -50.5t-9 -80q0 -49 9 -80.5
t29 -50t52 -25.5t79 -7zM311 630l-109 152h171l58 -144z" />
    <glyph glyph-name="Ohungarumlaut" unicode="&#x150;" horiz-adv-x="836" 
d="M418 -10q-183 0 -280 96.5t-97 282.5q0 187 97 284t280 97t280.5 -97.5t97.5 -283.5q0 -185 -97.5 -282t-280.5 -97zM418 132q54 0 91 12t60 40t33.5 73.5t10.5 111.5t-11 111.5t-34.5 74t-60.5 41t-89 12.5t-89 -12.5t-60.5 -40.5t-34.5 -74t-11 -112t10.5 -111.5
t34 -73.5t60.5 -40t90 -12zM227 815l66 168h177l-120 -180zM444 815l66 168h177l-119 -180z" />
    <glyph glyph-name="hungarumlaut.cap" horiz-adv-x="579" 
d="M82 815l66 168h177l-120 -180zM299 815l66 168h177l-119 -180z" />
    <glyph glyph-name="Ohungarumlaut.sc" horiz-adv-x="766" 
d="M383 -8q-166 0 -254.5 76t-88.5 220q0 146 88 221.5t255 75.5q166 0 254.5 -76.5t88.5 -220.5t-88.5 -220t-254.5 -76zM383 125q47 0 79.5 7t52.5 25.5t29 50t9 80.5q0 47 -9.5 78.5t-30 50.5t-52.5 27t-78 8t-78 -7.5t-52.5 -26t-29.5 -50.5t-9 -80q0 -49 9 -80.5
t29 -50t52 -25.5t79 -7zM203 638l58 143h169l-109 -152zM404 638l57 143h170l-108 -152z" />
    <glyph glyph-name="Oinvertedbreve" unicode="&#x20e;" horiz-adv-x="836" 
d="M418 -10q-183 0 -280 96.5t-97 282.5q0 187 97 284t280 97t280.5 -97.5t97.5 -283.5q0 -185 -97.5 -282t-280.5 -97zM418 132q54 0 91 12t60 40t33.5 73.5t10.5 111.5t-11 111.5t-34.5 74t-60.5 41t-89 12.5t-89 -12.5t-60.5 -40.5t-34.5 -74t-11 -112t10.5 -111.5
t34 -73.5t60.5 -40t90 -12zM530 820q0 43 -25 67t-89 24t-89 -24t-25 -67h-117q0 37 12 69.5t39 56.5t71 37.5t109 13.5q64 0 108 -13.5t71.5 -37t39.5 -56t12 -70.5h-117z" />
    <glyph glyph-name="Oinvertedbreve.sc" horiz-adv-x="766" 
d="M383 -8q-166 0 -254.5 76t-88.5 220q0 146 88 221.5t255 75.5q166 0 254.5 -76.5t88.5 -220.5t-88.5 -220t-254.5 -76zM383 125q47 0 79.5 7t52.5 25.5t29 50t9 80.5q0 47 -9.5 78.5t-30 50.5t-52.5 27t-78 8t-78 -7.5t-52.5 -26t-29.5 -50.5t-9 -80q0 -49 9 -80.5
t29 -50t52 -25.5t79 -7zM483 641q0 32 -21.5 50.5t-79.5 18.5t-80 -18.5t-22 -50.5h-111q0 30 10.5 57t35.5 47t66 32t101 12t100.5 -11.5t65 -31.5t35 -47t10.5 -58h-110z" />
    <glyph glyph-name="Omacron" unicode="&#x14c;" horiz-adv-x="836" 
d="M208 959h419v-116h-419v116zM418 -10q-183 0 -280 96.5t-97 282.5q0 187 97 284t280 97t280.5 -97.5t97.5 -283.5q0 -185 -97.5 -282t-280.5 -97zM418 132q54 0 91 12t60 40t33.5 73.5t10.5 111.5t-11 111.5t-34.5 74t-60.5 41t-89 12.5t-89 -12.5t-60.5 -40.5t-34.5 -74
t-11 -112t10.5 -111.5t34 -73.5t60.5 -40t90 -12z" />
    <glyph glyph-name="Omacron.sc" horiz-adv-x="766" 
d="M383 -8q-166 0 -254.5 76t-88.5 220q0 146 88 221.5t255 75.5q166 0 254.5 -76.5t88.5 -220.5t-88.5 -220t-254.5 -76zM383 125q47 0 79.5 7t52.5 25.5t29 50t9 80.5q0 47 -9.5 78.5t-30 50.5t-52.5 27t-78 8t-78 -7.5t-52.5 -26t-29.5 -50.5t-9 -80q0 -49 9 -80.5
t29 -50t52 -25.5t79 -7zM190 766h385v-108h-385v108z" />
    <glyph glyph-name="Omega" unicode="&#x2126;" horiz-adv-x="835" 
d="M48 126l194 -11q-85 51 -134 132.5t-49 179.5q0 73 25.5 132.5t73 102t113.5 65.5t147 23t147.5 -23t113.5 -65.5t72.5 -102t25.5 -132.5q0 -98 -49.5 -180t-134.5 -132l195 11v-126h-322v104q76 54 112 125t36 176q0 95 -52 149t-144 54q-90 0 -140.5 -54t-50.5 -149
q0 -62 16.5 -112t39.5 -88.5t47.5 -63.5t39.5 -37v-104h-322v126z" />
    <glyph glyph-name="Oogonek" unicode="&#x1ea;" horiz-adv-x="836" 
d="M425 -212q-72 0 -110.5 23t-38.5 68q0 30 19 60t54 55q-150 17 -229 112t-79 263q0 187 97 284t280 97t280.5 -97.5t97.5 -283.5q0 -158 -72 -252.5t-209 -118.5q-70 -30 -98 -50.5t-28 -43.5q0 -25 34 -25q14 0 41 4.5t51 10.5v-94q-38 -12 -90 -12zM418 132q54 0 91 12
t60 40t33.5 73.5t10.5 111.5t-11 111.5t-34.5 74t-60.5 41t-89 12.5t-89 -12.5t-60.5 -40.5t-34.5 -74t-11 -112t10.5 -111.5t34 -73.5t60.5 -40t90 -12z" />
    <glyph glyph-name="Oogonek.sc" horiz-adv-x="766" 
d="M392 -167q-66 0 -102.5 20t-36.5 54q0 23 17.5 48t45.5 41q-134 14 -204.5 88t-70.5 204q0 146 88 221.5t255 75.5q165 0 254 -76.5t89 -220.5q0 -65 -18 -115.5t-51.5 -86t-80.5 -57.5t-105 -30q-36 -13 -58 -22t-33.5 -16.5t-15.5 -13.5t-4 -12q0 -10 6.5 -13t19.5 -3
q7 0 18.5 1t24 2.5t24 3t20.5 3.5v-87q-20 -5 -41 -7t-41 -2zM384 125q47 0 79.5 7t52.5 25.5t29 50t9 80.5q0 47 -9.5 78.5t-30 50.5t-52.5 27t-78 8t-78.5 -7.5t-52.5 -26t-29.5 -50.5t-9.5 -80q0 -49 9 -80.5t29 -50t52.5 -25.5t79.5 -7z" />
    <glyph glyph-name="Oslash" unicode="&#xd8;" horiz-adv-x="838" 
d="M119 109q-78 96 -78 260q0 187 97 284t281 97q137 0 227 -57l42 47h128l-99 -110q79 -96 79 -261q0 -185 -97 -282t-280 -97q-138 0 -229 56l-41 -46h-128zM419 132q53 0 90 12t60.5 40t34 73.5t10.5 111.5q0 80 -16 129l-304 -337q45 -29 125 -29zM224 369
q0 -40 3.5 -71t11.5 -57l303 337q-23 16 -53.5 23t-69.5 7q-52 0 -89 -12.5t-60.5 -40.5t-34.5 -74t-11 -112z" />
    <glyph glyph-name="Oslash.sc" horiz-adv-x="768" 
d="M111 85q-70 75 -70 203q0 146 88 221.5t255 75.5q124 0 204 -45l37 37h120l-89 -85q71 -74 71 -204q0 -144 -88.5 -220t-254.5 -76q-124 0 -205 45l-37 -37h-120zM384 125q47 0 79.5 7t52.5 25.5t29 50t9 80.5q0 55 -19 93l-240 -239q37 -17 89 -17zM214 288q0 -29 5 -52
t13 -40l240 238q-18 8 -40 13t-48 5q-46 0 -78 -7.5t-52.5 -26t-30 -50.5t-9.5 -80z" />
    <glyph glyph-name="Oslashacute" unicode="&#x1fe;" horiz-adv-x="838" 
d="M119 109q-78 96 -78 260q0 187 97 284t281 97q137 0 227 -57l42 47h128l-99 -110q79 -96 79 -261q0 -185 -97 -282t-280 -97q-138 0 -229 56l-41 -46h-128zM419 132q53 0 90 12t60.5 40t34 73.5t10.5 111.5q0 80 -16 129l-304 -337q45 -29 125 -29zM224 369
q0 -40 3.5 -71t11.5 -57l303 337q-23 16 -53.5 23t-69.5 7q-52 0 -89 -12.5t-60.5 -40.5t-34.5 -74t-11 -112zM345 815l67 171h180l-119 -180z" />
    <glyph glyph-name="Oslashacute.sc" horiz-adv-x="768" 
d="M111 85q-70 75 -70 203q0 146 88 221.5t255 75.5q124 0 204 -45l37 37h120l-89 -85q71 -74 71 -204q0 -144 -88.5 -220t-254.5 -76q-124 0 -205 45l-37 -37h-120zM384 125q47 0 79.5 7t52.5 25.5t29 50t9 80.5q0 55 -19 93l-240 -239q37 -17 89 -17zM314 638l59 144h171
l-108 -152zM214 288q0 -29 5 -52t13 -40l240 238q-18 8 -40 13t-48 5q-46 0 -78 -7.5t-52.5 -26t-30 -50.5t-9.5 -80z" />
    <glyph glyph-name="Otilde" unicode="&#xd5;" horiz-adv-x="836" 
d="M172 863q35 61 79.5 91t86.5 30q28 0 54 -6t52 -13t52 -13t53 -6q25 0 48.5 7.5t54.5 29.5l23 -35q-35 -60 -80.5 -90.5t-86.5 -30.5q-27 0 -53.5 6t-53 13t-52.5 13t-52 6q-25 0 -48.5 -7t-52.5 -29zM418 -10q-183 0 -280 96.5t-97 282.5q0 187 97 284t280 97
t280.5 -97.5t97.5 -283.5q0 -185 -97.5 -282t-280.5 -97zM418 132q54 0 91 12t60 40t33.5 73.5t10.5 111.5t-11 111.5t-34.5 74t-60.5 41t-89 12.5t-89 -12.5t-60.5 -40.5t-34.5 -74t-11 -112t10.5 -111.5t34 -73.5t60.5 -40t90 -12z" />
    <glyph glyph-name="Otilde.sc" horiz-adv-x="766" 
d="M383 -8q-166 0 -254.5 76t-88.5 220q0 146 88 221.5t255 75.5q166 0 254.5 -76.5t88.5 -220.5t-88.5 -220t-254.5 -76zM383 125q47 0 79.5 7t52.5 25.5t29 50t9 80.5q0 47 -9.5 78.5t-30 50.5t-52.5 27t-78 8t-78 -7.5t-52.5 -26t-29.5 -50.5t-9 -80q0 -49 9 -80.5
t29 -50t52 -25.5t79 -7zM156 674q32 55 73.5 82t79.5 27q25 0 49 -4.5t48 -9.5t48 -9.5t49 -4.5q22 0 43 5.5t50 22.5l21 -29q-34 -55 -75.5 -82.5t-78.5 -27.5q-25 0 -49 4.5t-48.5 10t-48.5 10t-49 4.5q-22 0 -43 -6t-47 -23z" />
    <glyph glyph-name="P" unicode="P" horiz-adv-x="738" 
d="M77 735q126 15 234 15q106 0 182 -15.5t125 -48.5t72.5 -84t23.5 -122q0 -272 -397 -272h-30t-32 1v-209h-178v735zM347 346q52 0 87.5 6.5t57.5 22.5t31 41.5t9 63.5q0 37 -8.5 62t-29.5 40.5t-55.5 22.5t-86.5 7q-23 0 -51.5 -1.5t-45.5 -3.5v-253q17 -3 42 -5.5
t50 -2.5z" />
    <glyph glyph-name="P.sc" horiz-adv-x="682" 
d="M73 573q117 12 215 12q97 0 166.5 -12.5t114 -38.5t65.5 -66.5t21 -97.5q0 -210 -362 -210h-23.5t-26.5 2v-162h-170v573zM331 279q43 0 72.5 5t46.5 15.5t24.5 28t7.5 42.5t-7 42t-24.5 27.5t-47 15t-74.5 4.5q-16 0 -38 -1t-48 -3v-171q19 -2 41.5 -3.5t46.5 -1.5z" />
    <glyph glyph-name="Q" unicode="Q" horiz-adv-x="836" 
d="M749 -165q-207 48 -343.5 97.5t-218 110.5t-115 139.5t-33.5 186.5q0 90 26 160.5t74.5 119.5t119 75t159.5 26t159.5 -26t119 -74.5t74.5 -119.5t26 -161q0 -77 -19.5 -139t-56.5 -105t-89.5 -66t-118.5 -23h-20t-21 2v-12q68 -12 111.5 -19.5t74.5 -12.5t56 -7.5
t57 -5.5zM418 132q104 0 150.5 55.5t46.5 181.5t-47 182.5t-150 56.5q-102 0 -149.5 -57.5t-47.5 -181.5t46.5 -180.5t150.5 -56.5z" />
    <glyph glyph-name="Q.sc" horiz-adv-x="767" 
d="M686 -146q-123 26 -218.5 52.5t-167.5 55.5t-121.5 62.5t-80.5 73t-44.5 86.5t-13.5 104q0 69 23.5 124.5t68 93.5t108.5 58.5t145 20.5t144.5 -20.5t108 -58.5t68 -93.5t23.5 -124.5q0 -129 -71 -189.5t-223 -60.5v-8q65 -10 105 -16.5t67 -10.5t47.5 -6.5t47.5 -4.5z
M385 126q47 0 79.5 9t52.5 28.5t29 50t9 74.5q0 87 -39.5 125.5t-130.5 38.5t-131.5 -38.5t-40.5 -125.5t39.5 -124.5t132.5 -37.5z" />
    <glyph glyph-name="R" unicode="R" horiz-adv-x="758" 
d="M400 244q-39 -3 -83 -3q-9 0 -29.5 0.5t-32.5 2.5v-244h-178v735q126 15 234 15q106 0 182 -14.5t125 -45.5t72.5 -79t23.5 -114q0 -163 -156 -221l192 -276h-204zM347 378q52 0 87.5 6t57 20t31 36.5t9.5 55.5t-9 55t-30 35.5t-55.5 19.5t-85.5 6q-22 0 -50.5 -1.5
t-46.5 -3.5v-221q27 -8 92 -8z" />
    <glyph glyph-name="R.sc" horiz-adv-x="703" 
d="M370 183q-30 -3 -60 -3q-15 0 -32 1t-35 3v-184h-170v573q120 12 215 12q96 0 165.5 -12t114.5 -36.5t66 -63t21 -91.5q0 -123 -131 -171l165 -211h-195zM322 296q47 0 78.5 4t50.5 13.5t27 25.5t8 39q0 47 -35 66t-122 19q-19 0 -44.5 -1t-41.5 -3v-158q4 -1 13.5 -2
t21 -1.5t23.5 -1t21 -0.5z" />
    <glyph glyph-name="Racute" unicode="&#x154;" horiz-adv-x="758" 
d="M400 244q-39 -3 -83 -3q-9 0 -29.5 0.5t-32.5 2.5v-244h-178v735q126 15 234 15q106 0 182 -14.5t125 -45.5t72.5 -79t23.5 -114q0 -163 -156 -221l192 -276h-204zM347 378q52 0 87.5 6t57 20t31 36.5t9.5 55.5t-9 55t-30 35.5t-55.5 19.5t-85.5 6q-22 0 -50.5 -1.5
t-46.5 -3.5v-221q27 -8 92 -8zM296 815l67 171h180l-119 -180z" />
    <glyph glyph-name="Racute.sc" horiz-adv-x="703" 
d="M73 573q120 12 215 12q96 0 165.5 -12t114.5 -36.5t66 -63t21 -91.5q0 -123 -131 -171l165 -211h-195l-124 183q-30 -3 -60 -3q-15 0 -32 1t-35 3v-184h-170v573zM322 296q47 0 78.5 4t50.5 13.5t27 25.5t8 39q0 47 -35 66t-122 19q-19 0 -44.5 -1t-41.5 -3v-158
q4 -1 13.5 -2t21 -1.5t23.5 -1t21 -0.5zM271 638l59 144h171l-108 -152z" />
    <glyph glyph-name="Rcaron" unicode="&#x158;" horiz-adv-x="758" 
d="M159 1001l212 -80l211 80v-119l-214 -79l-209 79v119zM400 244q-39 -3 -83 -3q-9 0 -29.5 0.5t-32.5 2.5v-244h-178v735q126 15 234 15q106 0 182 -14.5t125 -45.5t72.5 -79t23.5 -114q0 -163 -156 -221l192 -276h-204zM347 378q52 0 87.5 6t57 20t31 36.5t9.5 55.5
t-9 55t-30 35.5t-55.5 19.5t-85.5 6q-22 0 -50.5 -1.5t-46.5 -3.5v-221q27 -8 92 -8z" />
    <glyph glyph-name="Rcaron.sc" horiz-adv-x="703" 
d="M73 573q120 12 215 12q96 0 165.5 -12t114.5 -36.5t66 -63t21 -91.5q0 -123 -131 -171l165 -211h-195l-124 183q-30 -3 -60 -3q-15 0 -32 1t-35 3v-184h-170v573zM322 296q47 0 78.5 4t50.5 13.5t27 25.5t8 39q0 47 -35 66t-122 19q-19 0 -44.5 -1t-41.5 -3v-158
q4 -1 13.5 -2t21 -1.5t23.5 -1t21 -0.5zM146 687v109l196 -63l194 63v-109l-197 -63z" />
    <glyph glyph-name="Rcommaaccent" unicode="&#x156;" horiz-adv-x="758" 
d="M296 -70h181l-90 -150h-133zM400 244q-39 -3 -83 -3q-9 0 -29.5 0.5t-32.5 2.5v-244h-178v735q126 15 234 15q106 0 182 -14.5t125 -45.5t72.5 -79t23.5 -114q0 -163 -156 -221l192 -276h-204zM347 378q52 0 87.5 6t57 20t31 36.5t9.5 55.5t-9 55t-30 35.5t-55.5 19.5
t-85.5 6q-22 0 -50.5 -1.5t-46.5 -3.5v-221q27 -8 92 -8z" />
    <glyph glyph-name="Rcommaaccent.sc" horiz-adv-x="703" 
d="M370 183q-30 -3 -60 -3q-15 0 -32 1t-35 3v-184h-170v573q120 12 215 12q96 0 165.5 -12t114.5 -36.5t66 -63t21 -91.5q0 -123 -131 -171l165 -211h-195zM271 -55h172l-84 -117h-126zM322 296q47 0 78.5 4t50.5 13.5t27 25.5t8 39q0 47 -35 66t-122 19q-19 0 -44.5 -1
t-41.5 -3v-158q4 -1 13.5 -2t21 -1.5t23.5 -1t21 -0.5z" />
    <glyph glyph-name="Rdblgrave" unicode="&#x210;" horiz-adv-x="758" 
d="M400 244q-39 -3 -83 -3q-9 0 -29.5 0.5t-32.5 2.5v-244h-178v735q126 15 234 15q106 0 182 -14.5t125 -45.5t72.5 -79t23.5 -114q0 -163 -156 -221l192 -276h-204zM347 378q52 0 87.5 6t57 20t31 36.5t9.5 55.5t-9 55t-30 35.5t-55.5 19.5t-85.5 6q-22 0 -50.5 -1.5
t-46.5 -3.5v-221q27 -8 92 -8zM203 803l-119 180h177l66 -168zM421 803l-120 180h177l66 -168z" />
    <glyph glyph-name="Rdblgrave.sc" horiz-adv-x="703" 
d="M73 573q120 12 215 12q96 0 165.5 -12t114.5 -36.5t66 -63t21 -91.5q0 -123 -131 -171l165 -211h-195l-124 183q-30 -3 -60 -3q-15 0 -32 1t-35 3v-184h-170v573zM322 296q47 0 78.5 4t50.5 13.5t27 25.5t8 39q0 47 -35 66t-122 19q-19 0 -44.5 -1t-41.5 -3v-158
q4 -1 13.5 -2t21 -1.5t23.5 -1t21 -0.5zM88 781h169l58 -143l-119 -9zM289 781h169l58 -143l-119 -9z" />
    <glyph glyph-name="Rdotbelow" unicode="&#x1e5a;" horiz-adv-x="758" 
d="M400 244q-39 -3 -83 -3q-9 0 -29.5 0.5t-32.5 2.5v-244h-178v735q126 15 234 15q106 0 182 -14.5t125 -45.5t72.5 -79t23.5 -114q0 -163 -156 -221l192 -276h-204zM347 378q52 0 87.5 6t57 20t31 36.5t9.5 55.5t-9 55t-30 35.5t-55.5 19.5t-85.5 6q-22 0 -50.5 -1.5
t-46.5 -3.5v-221q27 -8 92 -8zM362 -206q-40 0 -58 17.5t-18 55.5q0 39 18 56.5t58 17.5q42 0 59 -18t17 -56t-17 -55.5t-59 -17.5z" />
    <glyph glyph-name="Rdotbelow.sc" horiz-adv-x="703" 
d="M73 573q120 12 215 12q96 0 165.5 -12t114.5 -36.5t66 -63t21 -91.5q0 -123 -131 -171l165 -211h-195l-124 183q-30 -3 -60 -3q-15 0 -32 1t-35 3v-184h-170v573zM322 296q47 0 78.5 4t50.5 13.5t27 25.5t8 39q0 47 -35 66t-122 19q-19 0 -44.5 -1t-41.5 -3v-158
q4 -1 13.5 -2t21 -1.5t23.5 -1t21 -0.5zM332 -168q-38 0 -54 15.5t-16 49.5t16 49.5t54 15.5q40 0 55.5 -16.5t15.5 -48.5t-15.5 -48.5t-55.5 -16.5z" />
    <glyph glyph-name="Rinvertedbreve" unicode="&#x212;" horiz-adv-x="758" 
d="M400 244q-39 -3 -83 -3q-9 0 -29.5 0.5t-32.5 2.5v-244h-178v735q126 15 234 15q106 0 182 -14.5t125 -45.5t72.5 -79t23.5 -114q0 -163 -156 -221l192 -276h-204zM347 378q52 0 87.5 6t57 20t31 36.5t9.5 55.5t-9 55t-30 35.5t-55.5 19.5t-85.5 6q-22 0 -50.5 -1.5
t-46.5 -3.5v-221q27 -8 92 -8zM486 820q0 43 -25 67t-89 24t-89 -24t-25 -67h-117q0 37 12 69.5t39 56.5t71 37.5t109 13.5q64 0 108 -13.5t71.5 -37t39.5 -56t12 -70.5h-117z" />
    <glyph glyph-name="Rinvertedbreve.sc" horiz-adv-x="703" 
d="M73 573q120 12 215 12q96 0 165.5 -12t114.5 -36.5t66 -63t21 -91.5q0 -123 -131 -171l165 -211h-195l-124 183q-30 -3 -60 -3q-15 0 -32 1t-35 3v-184h-170v573zM132 641q0 30 10.5 57t35 47t65.5 32t101 12t100.5 -11.5t65.5 -31.5t35.5 -47t10.5 -58h-111
q0 32 -21 50.5t-80 18.5q-58 0 -80 -18.5t-22 -50.5h-110zM322 296q47 0 78.5 4t50.5 13.5t27 25.5t8 39q0 47 -35 66t-122 19q-19 0 -44.5 -1t-41.5 -3v-158q4 -1 13.5 -2t21 -1.5t23.5 -1t21 -0.5z" />
    <glyph glyph-name="S" unicode="S" horiz-adv-x="678" 
d="M328 -12q-30 0 -66.5 2t-74 6t-75.5 9.5t-71 12.5v143q85 -17 152.5 -25t123.5 -8q75 0 109 17.5t34 54.5q0 22 -9.5 37.5t-27.5 26.5t-44 18t-59 12q-142 22 -206 78t-64 159q0 52 21.5 93t61.5 69.5t97.5 44t129.5 15.5q25 0 50.5 -1.5t54.5 -5t63 -9t78 -13.5v-143
q-53 15 -114 24t-112 9q-69 0 -105.5 -20t-36.5 -58q0 -39 32 -61.5t113 -37.5q65 -12 114.5 -29t83 -43t50.5 -62t17 -86q0 -229 -320 -229z" />
    <glyph glyph-name="S.sc" horiz-adv-x="631" 
d="M306 -10q-27 0 -60 1.5t-67.5 4.5t-69.5 7.5t-66 9.5v135q74 -14 136 -20.5t117 -6.5q60 0 91.5 12.5t31.5 35.5q0 28 -29.5 38.5t-89.5 19.5q-131 14 -190 56.5t-59 123.5q0 84 75.5 132t207.5 48q24 0 47 -1t50 -4t58.5 -7.5t71.5 -11.5v-131q-48 11 -104 17.5
t-103 6.5q-65 0 -94.5 -12.5t-29.5 -36.5q0 -23 29.5 -37t95.5 -23q115 -12 179 -51.5t64 -119.5q0 -94 -71.5 -140t-220.5 -46z" />
    <glyph glyph-name="Sacute" unicode="&#x15a;" horiz-adv-x="678" 
d="M328 -12q-30 0 -66.5 2t-74 6t-75.5 9.5t-71 12.5v143q85 -17 152.5 -25t123.5 -8q75 0 109 17.5t34 54.5q0 22 -9.5 37.5t-27.5 26.5t-44 18t-59 12q-142 22 -206 78t-64 159q0 52 21.5 93t61.5 69.5t97.5 44t129.5 15.5q25 0 50.5 -1.5t54.5 -5t63 -9t78 -13.5v-143
q-53 15 -114 24t-112 9q-69 0 -105.5 -20t-36.5 -58q0 -39 32 -61.5t113 -37.5q65 -12 114.5 -29t83 -43t50.5 -62t17 -86q0 -229 -320 -229zM266 815l67 171h180l-119 -180z" />
    <glyph glyph-name="Sacute.sc" horiz-adv-x="631" 
d="M306 -10q-27 0 -60 1.5t-67.5 4.5t-69.5 7.5t-66 9.5v135q74 -14 136 -20.5t117 -6.5q60 0 91.5 12.5t31.5 35.5q0 28 -29.5 38.5t-89.5 19.5q-131 14 -190 56.5t-59 123.5q0 84 75.5 132t207.5 48q24 0 47 -1t50 -4t58.5 -7.5t71.5 -11.5v-131q-48 11 -104 17.5
t-103 6.5q-65 0 -94.5 -12.5t-29.5 -36.5q0 -23 29.5 -37t95.5 -23q115 -12 179 -51.5t64 -119.5q0 -94 -71.5 -140t-220.5 -46zM246 638l59 144h170l-108 -152z" />
    <glyph glyph-name="Scaron" unicode="&#x160;" horiz-adv-x="678" 
d="M328 -12q-30 0 -66.5 2t-74 6t-75.5 9.5t-71 12.5v143q85 -17 152.5 -25t123.5 -8q75 0 109 17.5t34 54.5q0 22 -9.5 37.5t-27.5 26.5t-44 18t-59 12q-142 22 -206 78t-64 159q0 52 21.5 93t61.5 69.5t97.5 44t129.5 15.5q25 0 50.5 -1.5t54.5 -5t63 -9t78 -13.5v-143
q-53 15 -114 24t-112 9q-69 0 -105.5 -20t-36.5 -58q0 -39 32 -61.5t113 -37.5q65 -12 114.5 -29t83 -43t50.5 -62t17 -86q0 -229 -320 -229zM132 1001l212 -80l211 80v-119l-214 -79l-209 79v119z" />
    <glyph glyph-name="Scaron.sc" horiz-adv-x="631" 
d="M306 -10q-27 0 -60 1.5t-67.5 4.5t-69.5 7.5t-66 9.5v135q74 -14 136 -20.5t117 -6.5q60 0 91.5 12.5t31.5 35.5q0 28 -29.5 38.5t-89.5 19.5q-131 14 -190 56.5t-59 123.5q0 84 75.5 132t207.5 48q24 0 47 -1t50 -4t58.5 -7.5t71.5 -11.5v-131q-48 11 -104 17.5
t-103 6.5q-65 0 -94.5 -12.5t-29.5 -36.5q0 -23 29.5 -37t95.5 -23q115 -12 179 -51.5t64 -119.5q0 -94 -71.5 -140t-220.5 -46zM125 796l195 -63l194 63v-109l-197 -63l-192 63v109z" />
    <glyph glyph-name="Schwa" unicode="&#x18f;" horiz-adv-x="774" 
d="M37 328q0 23 1.5 45.5t6.5 57.5h515q-3 51 -15 83t-35 51t-59.5 26t-88.5 7q-53 0 -123.5 -7t-161.5 -26l-7 143q34 10 75 18.5t82.5 13.5t81 8t70.5 3q177 0 265 -91t88 -279q0 -189 -90.5 -290t-271.5 -101q-160 0 -246.5 81.5t-86.5 256.5zM373 130q48 0 82 8.5t56 29
t33.5 55t15.5 87.5h-355v-16q0 -43 7.5 -74t26.5 -51t51.5 -29.5t82.5 -9.5z" />
    <glyph glyph-name="Schwa.sc" horiz-adv-x="691" 
d="M39 246q0 52 11 94h414q-3 31 -12 52.5t-27.5 34.5t-48.5 18.5t-73 5.5q-29 0 -61 -2t-63.5 -5t-60 -7.5t-49.5 -9.5l-5 127q53 15 121 24t134 9q168 0 249.5 -72t81.5 -221t-83.5 -226t-246.5 -77q-137 0 -209 65.5t-72 189.5zM328 122q70 0 101.5 30t36.5 97h-262
q-5 -127 124 -127z" />
    <glyph glyph-name="Scircumflex" unicode="&#x15c;" horiz-adv-x="678" 
d="M328 -12q-30 0 -66.5 2t-74 6t-75.5 9.5t-71 12.5v143q85 -17 152.5 -25t123.5 -8q75 0 109 17.5t34 54.5q0 22 -9.5 37.5t-27.5 26.5t-44 18t-59 12q-142 22 -206 78t-64 159q0 52 21.5 93t61.5 69.5t97.5 44t129.5 15.5q25 0 50.5 -1.5t54.5 -5t63 -9t78 -13.5v-143
q-53 15 -114 24t-112 9q-69 0 -105.5 -20t-36.5 -58q0 -39 32 -61.5t113 -37.5q65 -12 114.5 -29t83 -43t50.5 -62t17 -86q0 -229 -320 -229zM137 921l209 80l214 -80v-118l-212 79l-211 -79v118z" />
    <glyph glyph-name="Scircumflex.sc" horiz-adv-x="631" 
d="M306 -10q-27 0 -60 1.5t-67.5 4.5t-69.5 7.5t-66 9.5v135q74 -14 136 -20.5t117 -6.5q60 0 91.5 12.5t31.5 35.5q0 28 -29.5 38.5t-89.5 19.5q-131 14 -190 56.5t-59 123.5q0 84 75.5 132t207.5 48q24 0 47 -1t50 -4t58.5 -7.5t71.5 -11.5v-131q-48 11 -104 17.5
t-103 6.5q-65 0 -94.5 -12.5t-29.5 -36.5q0 -23 29.5 -37t95.5 -23q115 -12 179 -51.5t64 -119.5q0 -94 -71.5 -140t-220.5 -46zM130 732l193 64l196 -64v-108l-194 63l-195 -63v108z" />
    <glyph glyph-name="Sdotbelow" unicode="&#x1e62;" horiz-adv-x="678" 
d="M328 -12q-30 0 -66.5 2t-74 6t-75.5 9.5t-71 12.5v143q85 -17 152.5 -25t123.5 -8q75 0 109 17.5t34 54.5q0 22 -9.5 37.5t-27.5 26.5t-44 18t-59 12q-142 22 -206 78t-64 159q0 52 21.5 93t61.5 69.5t97.5 44t129.5 15.5q25 0 50.5 -1.5t54.5 -5t63 -9t78 -13.5v-143
q-53 15 -114 24t-112 9q-69 0 -105.5 -20t-36.5 -58q0 -39 32 -61.5t113 -37.5q65 -12 114.5 -29t83 -43t50.5 -62t17 -86q0 -229 -320 -229zM336 -206q-40 0 -58 17.5t-18 55.5q0 39 18 56.5t58 17.5q42 0 59 -18t17 -56t-17 -55.5t-59 -17.5z" />
    <glyph glyph-name="Sdotbelow.sc" horiz-adv-x="631" 
d="M306 -10q-27 0 -60 1.5t-67.5 4.5t-69.5 7.5t-66 9.5v135q74 -14 136 -20.5t117 -6.5q60 0 91.5 12.5t31.5 35.5q0 28 -29.5 38.5t-89.5 19.5q-131 14 -190 56.5t-59 123.5q0 84 75.5 132t207.5 48q24 0 47 -1t50 -4t58.5 -7.5t71.5 -11.5v-131q-48 11 -104 17.5
t-103 6.5q-65 0 -94.5 -12.5t-29.5 -36.5q0 -23 29.5 -37t95.5 -23q115 -12 179 -51.5t64 -119.5q0 -94 -71.5 -140t-220.5 -46zM315 -168q-38 0 -55 15.5t-17 49.5t17 49.5t55 15.5t54 -16.5t16 -48.5t-16 -48.5t-54 -16.5z" />
    <glyph glyph-name="T" unicode="T" horiz-adv-x="679" 
d="M250 604h-230v136h639v-136h-230v-604h-179v604z" />
    <glyph glyph-name="Tbar" unicode="&#x166;" horiz-adv-x="692" 
d="M103 421h152v183h-230v136h639v-136h-230v-183h170v-101h-170v-320h-179v320h-152v101z" />
    <glyph glyph-name="Tbar.sc" horiz-adv-x="633" 
d="M94 332h137v118h-204v127h579v-127h-205v-118h139v-93h-139v-239h-170v239h-137v93z" />
    <glyph glyph-name="Tcaron" unicode="&#x164;" horiz-adv-x="679" 
d="M128 1001l212 -80l211 80v-119l-214 -79l-209 79v119zM250 604h-230v136h639v-136h-230v-604h-179v604z" />
    <glyph glyph-name="Tcaron.sc" horiz-adv-x="625" 
d="M227 450h-204v127h579v-127h-205v-450h-170v450zM117 796l196 -63l194 63v-109l-196 -63l-194 63v109z" />
    <glyph glyph-name="Tdotbelow" unicode="&#x1e6c;" horiz-adv-x="679" 
d="M340 -206q-40 0 -58 17.5t-18 55.5q0 39 18 56.5t58 17.5q42 0 59 -18t17 -56t-17 -55.5t-59 -17.5zM250 604h-230v136h639v-136h-230v-604h-179v604z" />
    <glyph glyph-name="Tdotbelow.sc" horiz-adv-x="625" 
d="M227 450h-204v127h579v-127h-205v-450h-170v450zM313 -168q-38 0 -54 15.5t-16 49.5t16 49.5t54 15.5q40 0 55.5 -16.5t15.5 -48.5t-15.5 -48.5t-55.5 -16.5z" />
    <glyph glyph-name="Thorn" unicode="&#xde;" horiz-adv-x="742" 
d="M77 740h178v-116q17 1 33.5 1h33.5q205 0 299 -61t94 -195q0 -67 -22.5 -115.5t-70 -79.5t-121.5 -46t-177 -15h-34t-35 1v-114h-178v740zM334 261q62 0 101 4t61.5 15.5t31 32.5t8.5 56q0 34 -8.5 55t-31.5 33t-63 16t-102 4h-16h-23.5t-23 -0.5t-13.5 -1.5v-211
q2 -1 13 -1.5t23.5 -1t25 -0.5h17.5z" />
    <glyph glyph-name="Thorn.sc" horiz-adv-x="684" 
d="M73 577h171v-75q8 2 22.5 2h22.5q96 0 165.5 -12.5t114 -38.5t65.5 -66.5t21 -97.5q0 -210 -362 -210q-8 0 -23 0.5t-26 1.5v-81h-171v577zM332 198q43 0 72 5t46.5 15.5t25 28t7.5 42.5t-7.5 42t-25 27.5t-47 15t-74.5 4.5q-16 0 -38 -0.5t-47 -2.5v-171q18 -2 40.5 -4
t47.5 -2z" />
    <glyph glyph-name="U" unicode="U" horiz-adv-x="847" 
d="M424 -10q-99 0 -167 19.5t-110 59t-60 100t-18 142.5v431h178v-439q0 -85 43 -128t134 -43t133.5 43t42.5 128v439h179v-431q0 -82 -18.5 -142.5t-60.5 -100t-109.5 -59t-166.5 -19.5z" />
    <glyph glyph-name="U.sc" horiz-adv-x="780" 
d="M390 -8q-86 0 -147.5 14t-100.5 45t-57.5 79.5t-18.5 116.5v333h170v-344q0 -59 42 -85t112 -26t111.5 26t41.5 85v344h171v-333q0 -68 -18.5 -116.5t-58 -79.5t-101 -45t-146.5 -14z" />
    <glyph glyph-name="Uacute" unicode="&#xda;" horiz-adv-x="847" 
d="M337 815l67 171h180l-119 -180zM424 -10q-99 0 -167 19.5t-110 59t-60 100t-18 142.5v431h178v-439q0 -85 43 -128t134 -43t133.5 43t42.5 128v439h179v-431q0 -82 -18.5 -142.5t-60.5 -100t-109.5 -59t-166.5 -19.5z" />
    <glyph glyph-name="Uacute.sc" horiz-adv-x="780" 
d="M390 -8q-91 0 -153 15.5t-100 47.5t-54.5 79.5t-16.5 112.5v333h170v-344q0 -51 37.5 -81t116.5 -30t116 30t37 81v344h171v-333q0 -65 -16.5 -112.5t-54.5 -79.5t-100 -47.5t-153 -15.5zM307 638l59 144h171l-108 -152z" />
    <glyph glyph-name="Ubreve" unicode="&#x16c;" horiz-adv-x="847" 
d="M422 813q-65 0 -109 13.5t-71 37.5t-39 56t-12 70h117q0 -44 25 -68t89 -24t88.5 24t24.5 68h117q0 -39 -12 -71.5t-39 -56t-71 -36.5t-108 -13zM424 -10q-99 0 -167 19.5t-110 59t-60 100t-18 142.5v431h178v-439q0 -85 43 -128t134 -43t133.5 43t42.5 128v439h179v-431
q0 -82 -18.5 -142.5t-60.5 -100t-109.5 -59t-166.5 -19.5z" />
    <glyph glyph-name="Ubreve.sc" horiz-adv-x="780" 
d="M390 -8q-91 0 -153 15.5t-100 47.5t-54.5 79.5t-16.5 112.5v333h170v-344q0 -51 37.5 -81t116.5 -30t116 30t37 81v344h171v-333q0 -65 -16.5 -112.5t-54.5 -79.5t-100 -47.5t-153 -15.5zM388 634q-60 0 -100.5 11.5t-65 32t-35 47.5t-10.5 57h110q0 -33 22 -52t79 -19
q59 0 80.5 19t21.5 52h110q0 -32 -10.5 -59t-35.5 -46.5t-65.5 -31t-100.5 -11.5z" />
    <glyph glyph-name="Ucircumflex" unicode="&#xdb;" horiz-adv-x="847" 
d="M424 -10q-99 0 -167 19.5t-110 59t-60 100t-18 142.5v431h178v-439q0 -85 43 -128t134 -43t133.5 43t42.5 128v439h179v-431q0 -82 -18.5 -142.5t-60.5 -100t-109.5 -59t-166.5 -19.5zM208 921l209 80l214 -80v-118l-212 79l-211 -79v118z" />
    <glyph glyph-name="Ucircumflex.sc" horiz-adv-x="780" 
d="M390 -8q-91 0 -153 15.5t-100 47.5t-54.5 79.5t-16.5 112.5v333h170v-344q0 -51 37.5 -81t116.5 -30t116 30t37 81v344h171v-333q0 -65 -16.5 -112.5t-54.5 -79.5t-100 -47.5t-153 -15.5zM192 732l192 64l198 -64v-108l-196 63l-194 -63v108z" />
    <glyph glyph-name="Udblgrave" unicode="&#x214;" horiz-adv-x="847" 
d="M424 -10q-99 0 -167 19.5t-110 59t-60 100t-18 142.5v431h178v-439q0 -85 43 -128t134 -43t133.5 43t42.5 128v439h179v-431q0 -82 -18.5 -142.5t-60.5 -100t-109.5 -59t-166.5 -19.5zM248 803l-119 180h177l66 -168zM466 803l-120 180h177l66 -168z" />
    <glyph glyph-name="Udblgrave.sc" horiz-adv-x="780" 
d="M390 -8q-91 0 -153 15.5t-100 47.5t-54.5 79.5t-16.5 112.5v333h170v-344q0 -51 37.5 -81t116.5 -30t116 30t37 81v344h171v-333q0 -65 -16.5 -112.5t-54.5 -79.5t-100 -47.5t-153 -15.5zM225 629l-109 152h170l58 -143zM426 629l-109 152h169l58 -143z" />
    <glyph glyph-name="Udieresis" unicode="&#xdc;" horiz-adv-x="847" 
d="M268 805q-52 0 -74.5 22t-22.5 73q0 49 22.5 71.5t74.5 22.5t74 -23t22 -71t-22 -71.5t-74 -23.5zM574 805q-52 0 -74.5 22t-22.5 73q0 49 22.5 71.5t74.5 22.5t74 -23t22 -71t-22 -71.5t-74 -23.5zM424 -10q-99 0 -167 19.5t-110 59t-60 100t-18 142.5v431h178v-439
q0 -85 43 -128t134 -43t133.5 43t42.5 128v439h179v-431q0 -82 -18.5 -142.5t-60.5 -100t-109.5 -59t-166.5 -19.5z" />
    <glyph glyph-name="Udieresis.sc" horiz-adv-x="780" 
d="M390 -8q-91 0 -153 15.5t-100 47.5t-54.5 79.5t-16.5 112.5v333h170v-344q0 -51 37.5 -81t116.5 -30t116 30t37 81v344h171v-333q0 -65 -16.5 -112.5t-54.5 -79.5t-100 -47.5t-153 -15.5zM249 623q-49 0 -70.5 20t-21.5 66q0 45 21.5 66t70.5 21q50 0 70.5 -21.5
t20.5 -65.5t-20.5 -65t-70.5 -21zM526 623q-49 0 -70 20t-21 66q0 45 21 66t70 21q50 0 70 -21.5t20 -65.5t-20 -65t-70 -21z" />
    <glyph glyph-name="Udotbelow" unicode="&#x1ee4;" horiz-adv-x="847" 
d="M424 -10q-99 0 -167 19.5t-110 59t-60 100t-18 142.5v431h178v-439q0 -85 43 -128t134 -43t133.5 43t42.5 128v439h179v-431q0 -82 -18.5 -142.5t-60.5 -100t-109.5 -59t-166.5 -19.5zM417 -206q-40 0 -58 17.5t-18 55.5q0 39 18 56.5t58 17.5q42 0 59 -18t17 -56
t-17 -55.5t-59 -17.5z" />
    <glyph glyph-name="Udotbelow.sc" horiz-adv-x="780" 
d="M390 -8q-91 0 -153 15.5t-100 47.5t-54.5 79.5t-16.5 112.5v333h170v-344q0 -51 37.5 -81t116.5 -30t116 30t37 81v344h171v-333q0 -65 -16.5 -112.5t-54.5 -79.5t-100 -47.5t-153 -15.5zM384 -168q-38 0 -54.5 15.5t-16.5 49.5t16.5 49.5t54.5 15.5q39 0 54.5 -16.5
t15.5 -48.5t-15.5 -48.5t-54.5 -16.5z" />
    <glyph glyph-name="Ugrave" unicode="&#xd9;" horiz-adv-x="847" 
d="M356 806l-119 180h180l67 -169zM424 -10q-99 0 -167 19.5t-110 59t-60 100t-18 142.5v431h178v-439q0 -85 43 -128t134 -43t133.5 43t42.5 128v439h179v-431q0 -82 -18.5 -142.5t-60.5 -100t-109.5 -59t-166.5 -19.5z" />
    <glyph glyph-name="Ugrave.sc" horiz-adv-x="780" 
d="M390 -8q-91 0 -153 15.5t-100 47.5t-54.5 79.5t-16.5 112.5v333h170v-344q0 -51 37.5 -81t116.5 -30t116 30t37 81v344h171v-333q0 -65 -16.5 -112.5t-54.5 -79.5t-100 -47.5t-153 -15.5zM326 630l-109 152h172l57 -144z" />
    <glyph glyph-name="Uhungarumlaut" unicode="&#x170;" horiz-adv-x="847" 
d="M424 -10q-99 0 -167 19.5t-110 59t-60 100t-18 142.5v431h178v-439q0 -85 43 -128t134 -43t133.5 43t42.5 128v439h179v-431q0 -82 -18.5 -142.5t-60.5 -100t-109.5 -59t-166.5 -19.5zM244 815l66 168h177l-120 -180zM461 815l66 168h177l-119 -180z" />
    <glyph glyph-name="Uhungarumlaut.sc" horiz-adv-x="780" 
d="M390 -8q-91 0 -153 15.5t-100 47.5t-54.5 79.5t-16.5 112.5v333h170v-344q0 -51 37.5 -81t116.5 -30t116 30t37 81v344h171v-333q0 -65 -16.5 -112.5t-54.5 -79.5t-100 -47.5t-153 -15.5zM222 638l57 143h171l-109 -152zM423 638l58 143h169l-108 -152z" />
    <glyph glyph-name="Uinvertedbreve" unicode="&#x216;" horiz-adv-x="847" 
d="M424 -10q-99 0 -167 19.5t-110 59t-60 100t-18 142.5v431h178v-439q0 -85 43 -128t134 -43t133.5 43t42.5 128v439h179v-431q0 -82 -18.5 -142.5t-60.5 -100t-109.5 -59t-166.5 -19.5zM530 820q0 43 -25 67t-89 24t-89 -24t-25 -67h-117q0 37 12 69.5t39 56.5t71 37.5
t109 13.5q64 0 108 -13.5t71.5 -37t39.5 -56t12 -70.5h-117z" />
    <glyph glyph-name="Uinvertedbreve.sc" horiz-adv-x="780" 
d="M390 -8q-91 0 -153 15.5t-100 47.5t-54.5 79.5t-16.5 112.5v333h170v-344q0 -51 37.5 -81t116.5 -30t116 30t37 81v344h171v-333q0 -65 -16.5 -112.5t-54.5 -79.5t-100 -47.5t-153 -15.5zM484 641q0 32 -21.5 50.5t-80.5 18.5q-57 0 -79.5 -18.5t-22.5 -50.5h-109
q0 30 10.5 57t35 47t65 32t100.5 12t101 -11.5t65.5 -31.5t35.5 -47t11 -58h-111z" />
    <glyph glyph-name="Umacron" unicode="&#x16a;" horiz-adv-x="847" 
d="M209 959h419v-116h-419v116zM424 -10q-99 0 -167 19.5t-110 59t-60 100t-18 142.5v431h178v-439q0 -85 43 -128t134 -43t133.5 43t42.5 128v439h179v-431q0 -82 -18.5 -142.5t-60.5 -100t-109.5 -59t-166.5 -19.5z" />
    <glyph glyph-name="Umacron.sc" horiz-adv-x="780" 
d="M390 -8q-91 0 -153 15.5t-100 47.5t-54.5 79.5t-16.5 112.5v333h170v-344q0 -51 37.5 -81t116.5 -30t116 30t37 81v344h171v-333q0 -65 -16.5 -112.5t-54.5 -79.5t-100 -47.5t-153 -15.5zM192 766h386v-108h-386v108z" />
    <glyph glyph-name="Uogonek" unicode="&#x172;" horiz-adv-x="847" 
d="M426 -215q-72 0 -110.5 23t-38.5 68q0 31 19.5 61.5t55.5 55.5q-79 7 -133 29.5t-87.5 62t-48 96t-14.5 130.5v431h178v-439q0 -85 43 -128t134 -43t133.5 43t42.5 128v439h179v-431q0 -72 -14 -127t-45 -94t-81.5 -62.5t-122.5 -32.5q-70 -30 -98 -50.5t-28 -43.5
q0 -25 34 -25q14 0 41 4.5t51 10.5v-94q-38 -12 -90 -12z" />
    <glyph glyph-name="Uogonek.sc" horiz-adv-x="780" 
d="M391 -171q-67 0 -102.5 20.5t-35.5 54.5q0 24 18 50.5t47 40.5q-70 6 -118 24t-78 49.5t-43 76t-13 102.5v333h170v-344q0 -51 37.5 -81t116.5 -30t116 30t37 81v344h171v-333q0 -57 -13 -101t-42 -75.5t-76 -50t-115 -24.5q-35 -13 -56.5 -22.5t-33 -17t-15 -13
t-3.5 -11.5q0 -10 6.5 -13t19.5 -3q7 0 18.5 1t24 2.5t24.5 3t20 3.5v-87q-20 -5 -41 -7.5t-41 -2.5z" />
    <glyph glyph-name="Uring" unicode="&#x16e;" horiz-adv-x="847" 
d="M424 -10q-99 0 -167 19.5t-110 59t-60 100t-18 142.5v431h178v-439q0 -85 43 -128t134 -43t133.5 43t42.5 128v439h179v-431q0 -82 -18.5 -142.5t-60.5 -100t-109.5 -59t-166.5 -19.5zM421 787q-30 0 -55.5 8.5t-44.5 23.5t-29.5 36t-10.5 47q0 25 10.5 46.5t29.5 37
t44.5 24t55.5 8.5t55.5 -8.5t44.5 -24t29.5 -37t10.5 -46.5q0 -26 -10.5 -47t-29.5 -36t-44.5 -23.5t-55.5 -8.5zM421 847q37 0 52.5 13.5t15.5 41.5t-15.5 41.5t-52.5 13.5t-52.5 -13.5t-15.5 -41.5t15.5 -41.5t52.5 -13.5z" />
    <glyph glyph-name="Uring.sc" horiz-adv-x="780" 
d="M390 -8q-91 0 -153 15.5t-100 47.5t-54.5 79.5t-16.5 112.5v333h170v-344q0 -51 37.5 -81t116.5 -30t116 30t37 81v344h171v-333q0 -65 -16.5 -112.5t-54.5 -79.5t-100 -47.5t-153 -15.5zM388 611q-54 0 -90.5 24.5t-36.5 66.5q0 21 9.5 38t27 29t40.5 19t50 7t50 -7
t40.5 -19t27 -29t9.5 -38q0 -42 -36.5 -66.5t-90.5 -24.5zM388 663q33 0 46 9.5t13 29.5t-13 30t-46 10t-47 -10t-14 -30t14 -29.5t47 -9.5z" />
    <glyph glyph-name="Utilde" unicode="&#x168;" horiz-adv-x="847" 
d="M175 863q35 61 79.5 91t86.5 30q28 0 54 -6t52 -13t52 -13t53 -6q25 0 48.5 7.5t54.5 29.5l23 -35q-35 -60 -80.5 -90.5t-86.5 -30.5q-27 0 -53.5 6t-53 13t-52.5 13t-52 6q-25 0 -48.5 -7t-52.5 -29zM424 -10q-99 0 -167 19.5t-110 59t-60 100t-18 142.5v431h178v-439
q0 -85 43 -128t134 -43t133.5 43t42.5 128v439h179v-431q0 -82 -18.5 -142.5t-60.5 -100t-109.5 -59t-166.5 -19.5z" />
    <glyph glyph-name="Utilde.sc" horiz-adv-x="780" 
d="M390 -8q-91 0 -153 15.5t-100 47.5t-54.5 79.5t-16.5 112.5v333h170v-344q0 -51 37.5 -81t116.5 -30t116 30t37 81v344h171v-333q0 -65 -16.5 -112.5t-54.5 -79.5t-100 -47.5t-153 -15.5zM161 674q33 55 74 82t79 27q25 0 49 -4.5t48 -9.5t48 -9.5t49 -4.5q22 0 43 5.5
t50 22.5l20 -29q-32 -55 -74 -82.5t-79 -27.5q-24 0 -48.5 4.5t-48.5 10t-48.5 10t-49.5 4.5q-22 0 -43.5 -6t-47.5 -23z" />
    <glyph glyph-name="V" unicode="V" horiz-adv-x="776" 
d="M0 740h193l147 -417l45 -154h10l45 154l147 417h190l-271 -740h-236z" />
    <glyph glyph-name="V.sc" horiz-adv-x="710" 
d="M2 577h187l124 -321l41 -122h6l41 122l123 321h184l-241 -577h-224z" />
    <glyph glyph-name="W" unicode="W" horiz-adv-x="1142" 
d="M13 740h190l95 -433l25 -142h12l31 142l116 433h179l115 -433l32 -142h11l25 142l96 433h190l-190 -740h-242l-94 350l-28 181h-9l-29 -181l-93 -350h-243z" />
    <glyph glyph-name="W.sc" horiz-adv-x="1038" 
d="M13 577h183l80 -314l21 -111h11l28 111l100 314h166l100 -314l28 -111h11l21 111l81 314h182l-166 -577h-232l-71 226l-33 158h-8l-33 -158l-70 -226h-232z" />
    <glyph glyph-name="Wacute" unicode="&#x1e82;" horiz-adv-x="1142" 
d="M502 815l67 171h180l-119 -180zM13 740h190l95 -433l25 -142h12l31 142l116 433h179l115 -433l32 -142h11l25 142l96 433h190l-190 -740h-242l-94 350l-28 181h-9l-29 -181l-93 -350h-243z" />
    <glyph glyph-name="Wacute.sc" horiz-adv-x="1038" 
d="M13 577h183l80 -314l21 -111h11l28 111l100 314h166l100 -314l28 -111h11l21 111l81 314h182l-166 -577h-232l-71 226l-33 158h-8l-33 -158l-70 -226h-232zM454 638l58 144h171l-108 -152z" />
    <glyph glyph-name="Wcircumflex" unicode="&#x174;" horiz-adv-x="1142" 
d="M13 740h190l95 -433l25 -142h12l31 142l116 433h179l115 -433l32 -142h11l25 142l96 433h190l-190 -740h-242l-94 350l-28 181h-9l-29 -181l-93 -350h-243zM360 921l209 80l214 -80v-118l-212 79l-211 -79v118z" />
    <glyph glyph-name="Wcircumflex.sc" horiz-adv-x="1038" 
d="M13 577h183l80 -314l21 -111h11l28 111l100 314h166l100 -314l28 -111h11l21 111l81 314h182l-166 -577h-232l-71 226l-33 158h-8l-33 -158l-70 -226h-232zM325 732l193 64l196 -64v-108l-194 63l-195 -63v108z" />
    <glyph glyph-name="Wdieresis" unicode="&#x1e84;" horiz-adv-x="1142" 
d="M419 805q-52 0 -74.5 22t-22.5 73q0 49 22.5 71.5t74.5 22.5t74 -23t22 -71t-22 -71.5t-74 -23.5zM725 805q-52 0 -74.5 22t-22.5 73q0 49 22.5 71.5t74.5 22.5t74 -23t22 -71t-22 -71.5t-74 -23.5zM13 740h190l95 -433l25 -142h12l31 142l116 433h179l115 -433l32 -142
h11l25 142l96 433h190l-190 -740h-242l-94 350l-28 181h-9l-29 -181l-93 -350h-243z" />
    <glyph glyph-name="Wdieresis.sc" horiz-adv-x="1038" 
d="M13 577h183l80 -314l21 -111h11l28 111l100 314h166l100 -314l28 -111h11l21 111l81 314h182l-166 -577h-232l-71 226l-33 158h-8l-33 -158l-70 -226h-232zM381 623q-49 0 -70 20t-21 66q0 45 21 66t70 21q51 0 71 -21.5t20 -65.5t-20 -65t-71 -21zM658 623q-48 0 -69 20
t-21 66q0 45 21 66t69 21q50 0 70.5 -21.5t20.5 -65.5t-20.5 -65t-70.5 -21z" />
    <glyph glyph-name="Wgrave" unicode="&#x1e80;" horiz-adv-x="1142" 
d="M494 806l-119 180h180l67 -169zM13 740h190l95 -433l25 -142h12l31 142l116 433h179l115 -433l32 -142h11l25 142l96 433h190l-190 -740h-242l-94 350l-28 181h-9l-29 -181l-93 -350h-243z" />
    <glyph glyph-name="Wgrave.sc" horiz-adv-x="1038" 
d="M13 577h183l80 -314l21 -111h11l28 111l100 314h166l100 -314l28 -111h11l21 111l81 314h182l-166 -577h-232l-71 226l-33 158h-8l-33 -158l-70 -226h-232zM445 630l-109 152h172l58 -144z" />
    <glyph glyph-name="X" unicode="X" horiz-adv-x="770" 
d="M271 388l-263 352h203l135 -192l32 -56h10l31 56l141 192h202l-271 -363l291 -377h-203l-159 225l-29 48h-10l-26 -48l-162 -225h-203z" />
    <glyph glyph-name="X.sc" horiz-adv-x="707" 
d="M227 303l-214 274h200l114 -149l25 -44h7l25 44l110 149h200l-221 -283l237 -294h-200l-130 174l-22 39h-7l-21 -39l-132 -174h-200z" />
    <glyph glyph-name="Y" unicode="Y" horiz-adv-x="741" 
d="M282 232l-288 508h192l143 -265l36 -83h10l35 83l144 265h192l-285 -502v-238h-179v232z" />
    <glyph glyph-name="Y.sc" horiz-adv-x="670" 
d="M246 181l-248 396h184l121 -201l28 -66h7l28 66l119 201h186l-247 -396v-181h-178v181z" />
    <glyph glyph-name="Yacute" unicode="&#xdd;" horiz-adv-x="741" 
d="M282 232l-288 508h192l143 -265l36 -83h10l35 83l144 265h192l-285 -502v-238h-179v232zM305 815l67 171h180l-119 -180z" />
    <glyph glyph-name="Yacute.sc" horiz-adv-x="670" 
d="M246 181l-248 396h184l121 -201l28 -66h7l28 66l119 201h186l-247 -396v-181h-178v181zM274 638l58 144h171l-108 -152z" />
    <glyph glyph-name="Ycircumflex" unicode="&#x176;" horiz-adv-x="741" 
d="M282 232l-288 508h192l143 -265l36 -83h10l35 83l144 265h192l-285 -502v-238h-179v232zM157 921l209 80l214 -80v-118l-212 79l-211 -79v118z" />
    <glyph glyph-name="Ycircumflex.sc" horiz-adv-x="670" 
d="M246 181l-248 396h184l121 -201l28 -66h7l28 66l119 201h186l-247 -396v-181h-178v181zM137 732l193 64l197 -64v-108l-195 63l-195 -63v108z" />
    <glyph glyph-name="Ydieresis" unicode="&#x178;" horiz-adv-x="741" 
d="M282 232l-288 508h192l143 -265l36 -83h10l35 83l144 265h192l-285 -502v-238h-179v232zM217 805q-52 0 -74.5 22t-22.5 73q0 49 22.5 71.5t74.5 22.5t74 -23t22 -71t-22 -71.5t-74 -23.5zM523 805q-52 0 -74.5 22t-22.5 73q0 49 22.5 71.5t74.5 22.5t74 -23t22 -71
t-22 -71.5t-74 -23.5z" />
    <glyph glyph-name="Ydieresis.sc" horiz-adv-x="670" 
d="M195 623q-49 0 -70.5 20t-21.5 66q0 45 21.5 66t70.5 21t69.5 -21.5t20.5 -65.5t-20.5 -65t-69.5 -21zM472 623q-50 0 -70.5 20t-20.5 66q0 45 20.5 66t70.5 21q49 0 69.5 -21.5t20.5 -65.5t-20.5 -65t-69.5 -21zM246 181l-248 396h184l121 -201l28 -66h7l28 66l119 201
h186l-247 -396v-181h-178v181z" />
    <glyph glyph-name="Ygrave" unicode="&#x1ef2;" horiz-adv-x="741" 
d="M282 232l-288 508h192l143 -265l36 -83h10l35 83l144 265h192l-285 -502v-238h-179v232zM301 806l-119 180h180l67 -169z" />
    <glyph glyph-name="Ygrave.sc" horiz-adv-x="670" 
d="M246 181l-248 396h184l121 -201l28 -66h7l28 66l119 201h186l-247 -396v-181h-178v181zM159 782h172l58 -144l-120 -8z" />
    <glyph glyph-name="Ytilde" unicode="&#x1ef8;" horiz-adv-x="741" 
d="M282 232l-288 508h192l143 -265l36 -83h10l35 83l144 265h192l-285 -502v-238h-179v232zM121 863q35 61 79.5 91t86.5 30q28 0 54 -6t52 -13t52 -13t53 -6q25 0 48.5 7.5t54.5 29.5l23 -35q-35 -60 -80.5 -90.5t-86.5 -30.5q-27 0 -53.5 6t-53 13t-52.5 13t-52 6
q-25 0 -48.5 -7t-52.5 -29z" />
    <glyph glyph-name="Ytilde.sc" horiz-adv-x="670" 
d="M246 181l-248 396h184l121 -201l28 -66h7l28 66l119 201h186l-247 -396v-181h-178v181zM104 674q33 55 74 82t79 27q25 0 49 -4.5t48 -9.5t48 -9.5t49 -4.5q22 0 43.5 5.5t49.5 22.5l21 -29q-33 -55 -75 -82.5t-79 -27.5q-24 0 -48.5 4.5t-48.5 10t-48.5 10t-48.5 4.5
q-23 0 -44 -6t-47 -23z" />
    <glyph glyph-name="Z" unicode="Z" horiz-adv-x="689" 
d="M33 123l385 471v8h-370v138h592v-118l-385 -476v-8h402v-138h-624v123z" />
    <glyph glyph-name="Z.sc" horiz-adv-x="639" 
d="M39 115l331 328v7h-321v127h540v-110l-334 -333v-6h347v-128h-563v115z" />
    <glyph glyph-name="Zacute" unicode="&#x179;" horiz-adv-x="689" 
d="M33 123l385 471v8h-370v138h592v-118l-385 -476v-8h402v-138h-624v123zM289 815l67 171h180l-119 -180z" />
    <glyph glyph-name="Zacute.sc" horiz-adv-x="639" 
d="M39 115l331 328v7h-321v127h540v-110l-334 -333v-6h347v-128h-563v115zM267 638l59 144h171l-108 -152z" />
    <glyph glyph-name="Zcaron" unicode="&#x17d;" horiz-adv-x="689" 
d="M130 1001l212 -80l211 80v-119l-214 -79l-209 79v119zM33 123l385 471v8h-370v138h592v-118l-385 -476v-8h402v-138h-624v123z" />
    <glyph glyph-name="Zcaron.sc" horiz-adv-x="639" 
d="M39 115l331 328v7h-321v127h540v-110l-334 -333v-6h347v-128h-563v115zM120 796l196 -63l194 63v-109l-196 -63l-194 63v109z" />
    <glyph glyph-name="Zdotaccent" unicode="&#x17b;" horiz-adv-x="689" 
d="M343 804q-52 0 -74.5 21.5t-22.5 72.5q0 49 22.5 71.5t74.5 22.5t74 -23t22 -71t-22 -71t-74 -23zM33 123l385 471v8h-370v138h592v-118l-385 -476v-8h402v-138h-624v123z" />
    <glyph glyph-name="Zdotaccent.sc" horiz-adv-x="639" 
d="M39 115l331 328v7h-321v127h540v-110l-334 -333v-6h347v-128h-563v115zM316 622q-48 0 -69.5 20t-21.5 67q0 45 21.5 65.5t69.5 20.5q51 0 71 -21.5t20 -64.5q0 -44 -20 -65.5t-71 -21.5z" />
    <glyph glyph-name="Zdotbelow" unicode="&#x1e92;" horiz-adv-x="689" 
d="M33 123l385 471v8h-370v138h592v-118l-385 -476v-8h402v-138h-624v123zM332 -206q-40 0 -58 17.5t-18 55.5q0 39 18 56.5t58 17.5q42 0 59 -18t17 -56t-17 -55.5t-59 -17.5z" />
    <glyph glyph-name="Zdotbelow.sc" horiz-adv-x="639" 
d="M39 115l331 328v7h-321v127h540v-110l-334 -333v-6h347v-128h-563v115zM308 -168q-38 0 -54 15.5t-16 49.5t16 49.5t54 15.5q40 0 55.5 -16.5t15.5 -48.5t-15.5 -48.5t-55.5 -16.5z" />
    <glyph glyph-name="a" unicode="a" horiz-adv-x="616" 
d="M196 -5q-81 0 -121.5 39.5t-40.5 113.5q0 83 50.5 124.5t159.5 49.5l137 9v4q0 25 -4.5 42.5t-17.5 28t-36.5 15t-61.5 4.5q-42 0 -88.5 -5t-95.5 -14l-12 120q62 11 117.5 16t105.5 5q137 0 202.5 -46t65.5 -142v-359h-143l-17 67h-8q-45 -38 -94.5 -55t-97.5 -17z
M273 113q28 0 58 9.5t50 26.5v96l-79 -7q-51 -5 -70.5 -19.5t-19.5 -49.5q0 -29 14.5 -42.5t46.5 -13.5z" />
    <glyph glyph-name="aacute" unicode="&#xe1;" horiz-adv-x="616" 
d="M196 -5q-81 0 -121.5 39.5t-40.5 113.5q0 83 50.5 124.5t159.5 49.5l137 9v4q0 25 -4.5 42.5t-17.5 28t-36.5 15t-61.5 4.5q-42 0 -88.5 -5t-95.5 -14l-12 120q62 11 117.5 16t105.5 5q137 0 202.5 -46t65.5 -142v-359h-143l-17 67h-8q-45 -38 -94.5 -55t-97.5 -17z
M273 113q28 0 58 9.5t50 26.5v96l-79 -7q-51 -5 -70.5 -19.5t-19.5 -49.5q0 -29 14.5 -42.5t46.5 -13.5zM239 617l65 188h179l-119 -197z" />
    <glyph glyph-name="acute" unicode="&#xb4;" horiz-adv-x="304" 
d="M38 617l65 188h179l-119 -197z" />
    <glyph glyph-name="abreve" unicode="&#x103;" horiz-adv-x="616" 
d="M196 -5q-81 0 -121.5 39.5t-40.5 113.5q0 83 50.5 124.5t159.5 49.5l137 9v4q0 25 -4.5 42.5t-17.5 28t-36.5 15t-61.5 4.5q-42 0 -88.5 -5t-95.5 -14l-12 120q62 11 117.5 16t105.5 5q137 0 202.5 -46t65.5 -142v-359h-143l-17 67h-8q-45 -38 -94.5 -55t-97.5 -17z
M273 113q28 0 58 9.5t50 26.5v96l-79 -7q-51 -5 -70.5 -19.5t-19.5 -49.5q0 -29 14.5 -42.5t46.5 -13.5zM310 614q-66 0 -110.5 13.5t-71.5 37.5t-38.5 57t-11.5 72h117q0 -49 25 -72.5t90 -23.5q64 0 89 23.5t25 72.5h116q0 -39 -11.5 -72t-38.5 -57t-71 -37.5t-109 -13.5z
" />
    <glyph glyph-name="breve" unicode="&#x2d8;" horiz-adv-x="545" 
d="M272 614q-66 0 -110.5 13.5t-71.5 37.5t-38.5 57t-11.5 72h117q0 -49 25 -72.5t90 -23.5q64 0 89 23.5t25 72.5h116q0 -39 -11.5 -72t-38.5 -57t-71 -37.5t-109 -13.5z" />
    <glyph glyph-name="acircumflex" unicode="&#xe2;" horiz-adv-x="616" 
d="M196 -5q-81 0 -121.5 39.5t-40.5 113.5q0 83 50.5 124.5t159.5 49.5l137 9v4q0 25 -4.5 42.5t-17.5 28t-36.5 15t-61.5 4.5q-42 0 -88.5 -5t-95.5 -14l-12 120q62 11 117.5 16t105.5 5q137 0 202.5 -46t65.5 -142v-359h-143l-17 67h-8q-45 -38 -94.5 -55t-97.5 -17z
M273 113q28 0 58 9.5t50 26.5v96l-79 -7q-51 -5 -70.5 -19.5t-19.5 -49.5q0 -29 14.5 -42.5t46.5 -13.5zM100 728l209 79l214 -79v-118l-211 79l-212 -79v118z" />
    <glyph glyph-name="circumflex" unicode="&#x2c6;" horiz-adv-x="526" 
d="M48 728l209 79l214 -79v-118l-211 79l-212 -79v118z" />
    <glyph glyph-name="adblgrave" unicode="&#x201;" horiz-adv-x="616" 
d="M196 -5q-81 0 -121.5 39.5t-40.5 113.5q0 83 50.5 124.5t159.5 49.5l137 9v4q0 25 -4.5 42.5t-17.5 28t-36.5 15t-61.5 4.5q-42 0 -88.5 -5t-95.5 -14l-12 120q62 11 117.5 16t105.5 5q137 0 202.5 -46t65.5 -142v-359h-143l-17 67h-8q-45 -38 -94.5 -55t-97.5 -17z
M273 113q28 0 58 9.5t50 26.5v96l-79 -7q-51 -5 -70.5 -19.5t-19.5 -49.5q0 -29 14.5 -42.5t46.5 -13.5zM146 611l-120 197h178l65 -187zM376 611l-121 197h178l66 -187z" />
    <glyph glyph-name="uni030F" unicode="&#x30f;" horiz-adv-x="539" 
d="M138 611l-120 197h178l65 -187zM368 611l-121 197h178l66 -187z" />
    <glyph glyph-name="adieresis" unicode="&#xe4;" horiz-adv-x="616" 
d="M196 -5q-81 0 -121.5 39.5t-40.5 113.5q0 83 50.5 124.5t159.5 49.5l137 9v4q0 25 -4.5 42.5t-17.5 28t-36.5 15t-61.5 4.5q-42 0 -88.5 -5t-95.5 -14l-12 120q62 11 117.5 16t105.5 5q137 0 202.5 -46t65.5 -142v-359h-143l-17 67h-8q-45 -38 -94.5 -55t-97.5 -17z
M273 113q28 0 58 9.5t50 26.5v96l-79 -7q-51 -5 -70.5 -19.5t-19.5 -49.5q0 -29 14.5 -42.5t46.5 -13.5zM172 626q-46 0 -66.5 20t-20.5 65t20.5 64.5t66.5 19.5q47 0 67 -21t20 -63q0 -45 -20 -65t-67 -20zM453 626q-46 0 -66.5 20t-20.5 65t20.5 64.5t66.5 19.5
q47 0 67 -21t20 -63q0 -45 -20 -65t-67 -20z" />
    <glyph glyph-name="dieresis" unicode="&#xa8;" horiz-adv-x="563" 
d="M137 626q-46 0 -66.5 20t-20.5 65t20.5 64.5t66.5 19.5q47 0 67 -21t20 -63q0 -45 -20 -65t-67 -20zM418 626q-46 0 -66.5 20t-20.5 65t20.5 64.5t66.5 19.5q47 0 67 -21t20 -63q0 -45 -20 -65t-67 -20z" />
    <glyph glyph-name="ae" unicode="&#xe6;" horiz-adv-x="973" 
d="M681 -14q-161 0 -225 90h-8q-70 -43 -132.5 -62t-122.5 -19q-78 0 -118 40t-40 116q0 80 50.5 121t159.5 49l137 9v20q0 22 -6.5 36.5t-22 23t-41.5 11.5t-65 3q-73 0 -169 -18l-12 120q60 11 115.5 16t114.5 5q136 0 191 -66h8q33 31 79 47t108 16q124 0 188 -60
t64 -175q0 -56 -10 -86h-364q4 -59 35.5 -82t101.5 -23q26 0 55 1.5t57 4.5t53.5 7.5t44.5 9.5l5 -124q-51 -15 -112 -23t-119 -8zM275 112q26 0 56.5 10t50.5 27v97l-79 -7q-51 -5 -70.5 -20.5t-19.5 -48.5q0 -31 14.5 -44.5t47.5 -13.5zM779 307q-2 63 -26 90t-80 27
q-57 0 -83.5 -27t-30.5 -90h220z" />
    <glyph glyph-name="aeacute" unicode="&#x1fd;" horiz-adv-x="973" 
d="M426 617l65 188h179l-119 -197zM681 -14q-161 0 -225 90h-8q-70 -43 -132.5 -62t-122.5 -19q-78 0 -118 40t-40 116q0 80 50.5 121t159.5 49l137 9v20q0 22 -6.5 36.5t-22 23t-41.5 11.5t-65 3q-73 0 -169 -18l-12 120q60 11 115.5 16t114.5 5q136 0 191 -66h8
q33 31 79 47t108 16q124 0 188 -60t64 -175q0 -56 -10 -86h-364q4 -59 35.5 -82t101.5 -23q26 0 55 1.5t57 4.5t53.5 7.5t44.5 9.5l5 -124q-51 -15 -112 -23t-119 -8zM275 112q26 0 56.5 10t50.5 27v97l-79 -7q-51 -5 -70.5 -20.5t-19.5 -48.5q0 -31 14.5 -44.5t47.5 -13.5z
M779 307q-2 63 -26 90t-80 27q-57 0 -83.5 -27t-30.5 -90h220z" />
    <glyph glyph-name="agrave" unicode="&#xe0;" horiz-adv-x="616" 
d="M196 -5q-81 0 -121.5 39.5t-40.5 113.5q0 83 50.5 124.5t159.5 49.5l137 9v4q0 25 -4.5 42.5t-17.5 28t-36.5 15t-61.5 4.5q-42 0 -88.5 -5t-95.5 -14l-12 120q62 11 117.5 16t105.5 5q137 0 202.5 -46t65.5 -142v-359h-143l-17 67h-8q-45 -38 -94.5 -55t-97.5 -17z
M273 113q28 0 58 9.5t50 26.5v96l-79 -7q-51 -5 -70.5 -19.5t-19.5 -49.5q0 -29 14.5 -42.5t46.5 -13.5zM255 611l-120 197h183l64 -187z" />
    <glyph glyph-name="grave" unicode="`" horiz-adv-x="313" 
d="M138 611l-120 197h183l64 -187z" />
    <glyph glyph-name="ainvertedbreve" unicode="&#x203;" horiz-adv-x="616" 
d="M196 -5q-81 0 -121.5 39.5t-40.5 113.5q0 83 50.5 124.5t159.5 49.5l137 9v4q0 25 -4.5 42.5t-17.5 28t-36.5 15t-61.5 4.5q-42 0 -88.5 -5t-95.5 -14l-12 120q62 11 117.5 16t105.5 5q137 0 202.5 -46t65.5 -142v-359h-143l-17 67h-8q-45 -38 -94.5 -55t-97.5 -17z
M273 113q28 0 58 9.5t50 26.5v96l-79 -7q-51 -5 -70.5 -19.5t-19.5 -49.5q0 -29 14.5 -42.5t46.5 -13.5zM80 624q0 38 11.5 71t38.5 57t71.5 38t109.5 14t109.5 -13.5t71.5 -37.5t38.5 -57t11.5 -72h-117q0 48 -24.5 71.5t-89.5 23.5q-64 0 -89 -23.5t-25 -71.5h-117z" />
    <glyph glyph-name="uni0311" unicode="&#x311;" horiz-adv-x="546" 
d="M37 624q0 38 11.5 71t38.5 57t71.5 38t109.5 14t109.5 -13.5t71.5 -37.5t38.5 -57t11.5 -72h-117q0 48 -24.5 71.5t-89.5 23.5q-64 0 -89 -23.5t-25 -71.5h-117v0z" />
    <glyph glyph-name="amacron" unicode="&#x101;" horiz-adv-x="616" 
d="M196 -5q-81 0 -121.5 39.5t-40.5 113.5q0 83 50.5 124.5t159.5 49.5l137 9v4q0 25 -4.5 42.5t-17.5 28t-36.5 15t-61.5 4.5q-42 0 -88.5 -5t-95.5 -14l-12 120q62 11 117.5 16t105.5 5q137 0 202.5 -46t65.5 -142v-359h-143l-17 67h-8q-45 -38 -94.5 -55t-97.5 -17z
M273 113q28 0 58 9.5t50 26.5v96l-79 -7q-51 -5 -70.5 -19.5t-19.5 -49.5q0 -29 14.5 -42.5t46.5 -13.5zM105 762h420v-116h-420v116z" />
    <glyph glyph-name="macron" unicode="&#xaf;" horiz-adv-x="550" 
d="M57 762h420v-116h-420v116z" />
    <glyph glyph-name="ampersand" unicode="&#x26;" horiz-adv-x="834" 
d="M372 -10q-75 0 -136 15t-103.5 43.5t-65.5 68t-23 89.5q0 70 39.5 120t110.5 73q-40 39 -57.5 76.5t-17.5 79.5q0 46 20 82.5t57.5 62t91 39t121.5 13.5q98 0 217 -30l3 -6l-20 -111h-10q-45 14 -90 22t-81 8q-127 0 -127 -91q0 -47 50 -93t159 -102l77 -40q0 8 0.5 16.5
t0.5 16.5v94h161v-92q0 -30 -3.5 -57.5t-9.5 -53.5l95 -49v-13l-64 -116h-11l-87 48q-48 -55 -122.5 -84t-174.5 -29zM438 234q-41 23 -75 43t-63 40q-73 -28 -73 -102q0 -50 42.5 -79.5t114.5 -29.5q112 0 161 67z" />
    <glyph glyph-name="ampersand.sc" horiz-adv-x="769" 
d="M341 -7q-69 0 -124.5 12t-94 34t-59.5 53t-21 69q0 55 35.5 95t101.5 56q-39 32 -55.5 60.5t-16.5 58.5q0 36 18.5 64.5t53.5 48.5t84 31t111 11q91 0 198 -21l3 -5l-18 -104h-9q-40 11 -81.5 16.5t-73.5 5.5q-57 0 -84 -13.5t-27 -43.5q0 -29 45 -61.5t141 -74.5l59 -26
q1 3 2 10.5t1.5 16t0.5 16v12.5v33h154v-78q0 -21 -2.5 -40t-7.5 -36l86 -39v-12l-61 -109h-10l-90 44q-87 -84 -259 -84zM352 99q84 0 125 41l-78 39q-35 18 -62.5 33.5t-50.5 30.5q-33 -11 -51 -28.5t-18 -44.5q0 -32 37 -51.5t98 -19.5z" />
    <glyph glyph-name="aogonek" unicode="&#x105;" horiz-adv-x="617" 
d="M467 -220q-72 0 -110.5 23t-38.5 68q0 35 25 69t71 60l-17 67h-8q-45 -38 -94.5 -55t-97.5 -17q-81 0 -121.5 39.5t-40.5 113.5q0 83 50.5 124.5t159.5 49.5l137 9v4q0 25 -4.5 42.5t-17.5 28t-36.5 15t-61.5 4.5q-42 0 -88.5 -5t-95.5 -14l-12 120q62 11 117.5 16
t105.5 5q137 0 202.5 -46t65.5 -142v-369q-70 -30 -98 -50.5t-28 -43.5q0 -25 34 -25q14 0 41 4.5t51 10.5v-94q-38 -12 -90 -12zM274 113q28 0 58 9.5t50 26.5v96l-79 -7q-51 -5 -70.5 -19.5t-19.5 -49.5q0 -29 14.5 -42.5t46.5 -13.5z" />
    <glyph glyph-name="apostrophe" unicode="&#x2bc;" horiz-adv-x="248" 
d="M201 808v-4l-45 -224h-95v228h140z" />
    <glyph glyph-name="approxequal" unicode="&#x2248;" horiz-adv-x="548" 
d="M64 484q30 12 60 25t67 13q24 0 44.5 -6t41 -12.5t41 -12.5t44.5 -6q36 0 65.5 9.5t58.5 23.5v-97q-28 -14 -58 -27.5t-66 -13.5q-24 0 -44.5 6t-41 12.5t-41 12.5t-44.5 6q-37 0 -67 -9t-60 -23v99zM64 286q30 12 60 25t67 13q24 0 44.5 -6t41 -12.5t41 -12.5t44.5 -6
q36 0 65.5 9.5t58.5 23.5v-97q-28 -13 -58 -27t-66 -14q-24 0 -44.5 6t-41 12.5t-41 12.5t-44.5 6q-37 0 -67 -9t-60 -23v99z" />
    <glyph glyph-name="aring" unicode="&#xe5;" horiz-adv-x="616" 
d="M196 -5q-81 0 -121.5 39.5t-40.5 113.5q0 83 50.5 124.5t159.5 49.5l137 9v4q0 25 -4.5 42.5t-17.5 28t-36.5 15t-61.5 4.5q-42 0 -88.5 -5t-95.5 -14l-12 120q62 11 117.5 16t105.5 5q137 0 202.5 -46t65.5 -142v-359h-143l-17 67h-8q-45 -38 -94.5 -55t-97.5 -17z
M273 113q28 0 58 9.5t50 26.5v96l-79 -7q-51 -5 -70.5 -19.5t-19.5 -49.5q0 -29 14.5 -42.5t46.5 -13.5zM308 587q-30 0 -55.5 8.5t-44 23.5t-29.5 36t-11 47q0 25 11 46.5t29.5 37t44 24t55.5 8.5t55.5 -8.5t44.5 -24t29.5 -37t10.5 -46.5q0 -26 -10.5 -47t-29.5 -36
t-44.5 -23.5t-55.5 -8.5zM308 647q38 0 53 13.5t15 41.5t-15 41.5t-53 13.5q-37 0 -52.5 -13.5t-15.5 -41.5t15.5 -41.5t52.5 -13.5z" />
    <glyph glyph-name="ring" unicode="&#x2da;" horiz-adv-x="365" 
d="M181 587q-30 0 -55.5 8.5t-44 23.5t-29.5 36t-11 47q0 25 11 46.5t29.5 37t44 24t55.5 8.5t55.5 -8.5t44.5 -24t29.5 -37t10.5 -46.5q0 -26 -10.5 -47t-29.5 -36t-44.5 -23.5t-55.5 -8.5zM181 647q38 0 53 13.5t15 41.5t-15 41.5t-53 13.5q-37 0 -52.5 -13.5t-15.5 -41.5
t15.5 -41.5t52.5 -13.5z" />
    <glyph glyph-name="aringacute" unicode="&#x1fb;" horiz-adv-x="616" 
d="M196 -5q-81 0 -121.5 39.5t-40.5 113.5q0 83 50.5 124.5t159.5 49.5l137 9v4q0 25 -4.5 42.5t-17.5 28t-36.5 15t-61.5 4.5q-42 0 -88.5 -5t-95.5 -14l-12 120q62 11 117.5 16t105.5 5q137 0 202.5 -46t65.5 -142v-359h-143l-17 67h-8q-45 -38 -94.5 -55t-97.5 -17z
M308 587q-30 0 -55.5 8.5t-44 23.5t-29.5 36t-11 47q0 45 31 75t79 38l56 163h179l-113 -187q22 -15 35 -38t13 -51q0 -26 -10.5 -47t-29.5 -36t-44.5 -23.5t-55.5 -8.5zM273 113q28 0 58 9.5t50 26.5v96l-79 -7q-51 -5 -70.5 -19.5t-19.5 -49.5q0 -29 14.5 -42.5
t46.5 -13.5zM308 647q38 0 53 13.5t15 41.5t-15 41.5t-53 13.5q-37 0 -52.5 -13.5t-15.5 -41.5t15.5 -41.5t52.5 -13.5z" />
    <glyph glyph-name="arrowdown" unicode="&#x2193;" horiz-adv-x="689" 
d="M24 372l89 89l168 -187l-2 460h131l-2 -460l168 187l89 -89l-297 -296h-47z" />
    <glyph glyph-name="arrowleft" unicode="&#x2190;" horiz-adv-x="728" 
d="M27 384v47l297 297l89 -89l-187 -168l460 2v-131l-460 2l187 -168l-89 -89z" />
    <glyph glyph-name="arrowright" unicode="&#x2192;" horiz-adv-x="728" 
d="M315 176l187 168l-459 -2v131l459 -2l-187 168l89 89l297 -297v-47l-297 -297z" />
    <glyph glyph-name="arrowup" unicode="&#x2191;" horiz-adv-x="688" 
d="M281 535l-168 -187l-89 89l297 297h47l297 -297l-89 -89l-168 187l2 -459h-131z" />
    <glyph glyph-name="asciicircum" unicode="^" horiz-adv-x="570" 
d="M205 789h160l170 -308h-124l-124 203h-4l-123 -203h-125z" />
    <glyph glyph-name="asciitilde" unicode="~" horiz-adv-x="729" 
d="M42 269q34 39 61 64.5t50 40.5t45.5 21t48.5 6q35 0 63.5 -12t54.5 -26t51 -26t52 -12q36 0 68.5 19.5t58.5 55.5l93 -54q-17 -24 -38 -51.5t-46 -51t-55 -38.5t-64 -15q-36 0 -65 12t-55 26t-50.5 26t-50.5 12q-35 0 -66 -18.5t-66 -57.5z" />
    <glyph glyph-name="asterisk" unicode="*" horiz-adv-x="506" 
d="M89 477l44 62l83 71l-108 8l-72 24l29 89l72 -23l94 -57l-25 108v75h94v-75l-26 -108l94 57l72 23l29 -89l-72 -24l-108 -8l83 -71l45 -62l-77 -55l-45 61l-42 104l-43 -104l-45 -61z" />
    <glyph glyph-name="at" unicode="@" horiz-adv-x="918" 
d="M445 -131q-93 0 -167.5 27t-127 77.5t-80.5 122.5t-28 163q0 95 30 171t85.5 129.5t135.5 82t180 28.5q94 0 167.5 -24.5t124 -71.5t77 -115t26.5 -155q0 -122 -53 -186t-153 -64q-33 0 -55 10.5t-35 24.5t-18.5 28t-6.5 21h-5q-24 -36 -71.5 -58.5t-98.5 -22.5
q-61 0 -99.5 44.5t-38.5 132.5q0 56 18 103t51.5 81t80.5 53t105 19q38 0 81 -9.5t83 -25.5l-42 -207q-1 -14 -3.5 -25t-2.5 -21q0 -28 14.5 -43.5t48.5 -15.5q45 0 71 41t26 120q0 130 -75.5 198.5t-216.5 68.5q-76 0 -137 -21.5t-103.5 -62t-65 -98t-22.5 -130.5
q0 -68 20.5 -122t59.5 -91.5t94.5 -57t125.5 -19.5q82 0 207 35l27 -96q-69 -19 -128 -29t-106 -10zM399 145q46 0 80 33t45 86l26 134q-32 9 -59 9q-33 0 -61 -13.5t-49 -36.5t-32.5 -54.5t-11.5 -68.5q0 -89 62 -89z" />
    <glyph glyph-name="atilde" unicode="&#xe3;" horiz-adv-x="616" 
d="M196 -5q-81 0 -121.5 39.5t-40.5 113.5q0 83 50.5 124.5t159.5 49.5l137 9v4q0 25 -4.5 42.5t-17.5 28t-36.5 15t-61.5 4.5q-42 0 -88.5 -5t-95.5 -14l-12 120q62 11 117.5 16t105.5 5q137 0 202.5 -46t65.5 -142v-359h-143l-17 67h-8q-45 -38 -94.5 -55t-97.5 -17z
M273 113q28 0 58 9.5t50 26.5v96l-79 -7q-51 -5 -70.5 -19.5t-19.5 -49.5q0 -29 14.5 -42.5t46.5 -13.5zM63 669q35 61 79.5 91t85.5 30q28 0 54.5 -6t52.5 -13t52 -13t53 -6q24 0 48 7.5t55 29.5l23 -34q-36 -60 -81 -91t-86 -31q-27 0 -53.5 6t-53 13t-52.5 13t-53 6
q-25 0 -48 -7t-52 -29z" />
    <glyph glyph-name="tilde" unicode="&#x2dc;" horiz-adv-x="559" 
d="M26 669q35 61 79.5 91t85.5 30q28 0 54.5 -6t52.5 -13t52 -13t53 -6q24 0 48 7.5t55 29.5l23 -34q-36 -60 -81 -91t-86 -31q-27 0 -53.5 6t-53 13t-52.5 13t-53 6q-25 0 -48 -7t-52 -29z" />
    <glyph glyph-name="b" unicode="b" horiz-adv-x="699" 
d="M345 -12q-25 0 -51.5 0.5t-59 3.5t-74 9t-96.5 17v790h175v-326q30 35 74.5 51t101.5 16q121 0 183.5 -66.5t62.5 -203.5q0 -72 -22.5 -126.5t-64 -91t-100 -55t-129.5 -18.5zM341 108q41 0 69 7.5t45 25.5t24 49t7 78q0 42 -6 70.5t-20.5 46t-37.5 24.5t-57 7
q-58 0 -92 -22.5t-34 -67.5v-210q40 -8 102 -8z" />
    <glyph glyph-name="backslash" unicode="\" horiz-adv-x="476" 
d="M25 740h151l274 -860h-151z" />
    <glyph glyph-name="bar" unicode="|" horiz-adv-x="328" 
d="M246 808v-1028h-164v1028h164z" />
    <glyph glyph-name="bar.tab" horiz-adv-x="317" 
d="M240 808v-1028h-163v1028h163z" />
    <glyph glyph-name="braceleft" unicode="{" horiz-adv-x="359" 
d="M31 420q35 0 49.5 22.5t14.5 67.5v231q0 69 26.5 98t86.5 29q9 0 26.5 -0.5t35 -1.5t32 -1.5t19.5 -1.5v-108h-42q-24 0 -34.5 -10t-10.5 -32v-240q0 -47 -22.5 -79.5t-60.5 -39.5q38 -5 60.5 -37t22.5 -79v-243q0 -22 10.5 -32t34.5 -10h42v-108q-5 -1 -19.5 -2
t-32 -1.5t-34.5 -1t-26 -0.5q-60 0 -87 29t-27 98v234q0 45 -14.5 67t-49.5 22v130z" />
    <glyph glyph-name="braceleft.sc" horiz-adv-x="349" 
d="M40 338q32 0 43.5 16.5t11.5 48.5v175q0 54 23.5 76.5t77.5 22.5q8 0 23.5 -0.5l31 -1t29 -1t17.5 -1.5v-102h-33q-36 0 -36 -32v-171q0 -37 -20.5 -62t-53.5 -30q33 -4 53.5 -28.5t20.5 -60.5v-174q0 -33 36 -33h33v-101q-4 0 -17.5 -1t-29 -1.5l-31 -1t-23.5 -0.5
q-54 0 -77.5 22.5t-23.5 76.5v177q0 32 -11.5 48t-43.5 16v123z" />
    <glyph glyph-name="braceright" unicode="}" horiz-adv-x="359" 
d="M328 290q-35 0 -49 -22t-14 -67v-234q0 -69 -27 -98t-87 -29q-9 0 -26.5 0.5l-35 1t-32.5 1.5t-19 2v108h42q24 0 34.5 10t10.5 32v243q0 47 22.5 79t60.5 37q-38 7 -60.5 39.5t-22.5 79.5v240q0 22 -10.5 32t-34.5 10h-42v108q4 1 19 1.5t32.5 1.5t35 1.5t26.5 0.5
q60 0 87 -29t27 -98v-231q0 -45 14 -67.5t49 -22.5v-130z" />
    <glyph glyph-name="braceright.sc" horiz-adv-x="348" 
d="M308 215q-31 0 -42 -16t-11 -48v-177q0 -54 -24 -76.5t-78 -22.5q-8 0 -23.5 0.5l-31 1t-28.5 1.5t-17 1v101h33q36 0 36 33v174q0 36 20 60.5t53 28.5q-33 5 -53 30t-20 62v171q0 32 -36 32h-33v102q4 1 17 1.5t28.5 1l31 1t24.5 0.5q54 0 77.5 -22.5t23.5 -76.5v-175
q0 -32 11 -48.5t42 -16.5v-123z" />
    <glyph glyph-name="bracketleft" unicode="[" horiz-adv-x="379" 
d="M82 868h269v-113h-133v-802h133v-113h-269v1028z" />
    <glyph glyph-name="bracketleft.sc" horiz-adv-x="379" 
d="M90 677h247v-106h-119v-590h119v-106h-247v802z" />
    <glyph glyph-name="bracketright" unicode="]" horiz-adv-x="379" 
d="M28 -160v113h134v802h-134v113h269v-1028h-269z" />
    <glyph glyph-name="bracketright.sc" horiz-adv-x="379" 
d="M42 -125v106h119v590h-119v106h247v-802h-247z" />
    <glyph glyph-name="brokenbar" unicode="&#xa6;" horiz-adv-x="330" 
d="M83 204h164v-424h-164v424zM83 808h164v-424h-164v424z" />
    <glyph glyph-name="bullet" unicode="&#x2022;" horiz-adv-x="387" 
d="M193 250q-57 0 -90.5 30t-33.5 90t33.5 90t90.5 30t90.5 -30t33.5 -90t-33.5 -90t-90.5 -30z" />
    <glyph glyph-name="c" unicode="c" horiz-adv-x="552" 
d="M322 -9q-283 0 -283 279t283 279q50 0 99.5 -4.5t86.5 -12.5v-138q-90 12 -169 12q-69 0 -98.5 -31t-29.5 -104q0 -75 28.5 -106t97.5 -31q27 0 49.5 0.5t42.5 2t39.5 3.5t39.5 5v-137q-35 -8 -85 -12.5t-101 -4.5z" />
    <glyph glyph-name="cacute" unicode="&#x107;" horiz-adv-x="552" 
d="M254 617l65 188h179l-119 -197zM322 -9q-283 0 -283 279t283 279q50 0 99.5 -4.5t86.5 -12.5v-138q-90 12 -169 12q-69 0 -98.5 -31t-29.5 -104q0 -75 28.5 -106t97.5 -31q27 0 49.5 0.5t42.5 2t39.5 3.5t39.5 5v-137q-35 -8 -85 -12.5t-101 -4.5z" />
    <glyph glyph-name="caron" unicode="&#x2c7;" horiz-adv-x="503" 
d="M37 802l212 -79l211 79v-119l-213 -78l-210 78v119z" />
    <glyph glyph-name="ccaron" unicode="&#x10d;" horiz-adv-x="552" 
d="M94 802l212 -79l211 79v-119l-213 -78l-210 78v119zM322 -9q-283 0 -283 279t283 279q50 0 99.5 -4.5t86.5 -12.5v-138q-90 12 -169 12q-69 0 -98.5 -31t-29.5 -104q0 -75 28.5 -106t97.5 -31q27 0 49.5 0.5t42.5 2t39.5 3.5t39.5 5v-137q-35 -8 -85 -12.5t-101 -4.5z
" />
    <glyph glyph-name="ccedilla" unicode="&#xe7;" horiz-adv-x="552" 
d="M296 -220q-24 0 -53 3.5t-58 8.5v102q19 -5 42 -9t43 -4q26 0 36 8t10 24q0 14 -9 34t-29 46q-239 19 -239 277q0 279 283 279q50 0 99.5 -4.5t86.5 -12.5v-138q-90 12 -169 12q-69 0 -98.5 -31t-29.5 -104q0 -75 28.5 -106t97.5 -31q27 0 49.5 0.5t42.5 2t39.5 3.5
t39.5 5v-137q-25 -5 -56.5 -9t-66.5 -6q26 -32 35.5 -54.5t9.5 -45.5q0 -54 -36 -83.5t-98 -29.5z" />
    <glyph glyph-name="ccircumflex" unicode="&#x109;" horiz-adv-x="552" 
d="M101 728l209 79l214 -79v-118l-211 79l-212 -79v118zM322 -9q-283 0 -283 279t283 279q50 0 99.5 -4.5t86.5 -12.5v-138q-90 12 -169 12q-69 0 -98.5 -31t-29.5 -104q0 -75 28.5 -106t97.5 -31q27 0 49.5 0.5t42.5 2t39.5 3.5t39.5 5v-137q-35 -8 -85 -12.5t-101 -4.5z
" />
    <glyph glyph-name="cdotaccent" unicode="&#x10b;" horiz-adv-x="552" 
d="M322 -9q-283 0 -283 279t283 279q50 0 99.5 -4.5t86.5 -12.5v-138q-90 12 -169 12q-69 0 -98.5 -31t-29.5 -104q0 -75 28.5 -106t97.5 -31q27 0 49.5 0.5t42.5 2t39.5 3.5t39.5 5v-137q-35 -8 -85 -12.5t-101 -4.5zM306 616q-51 0 -74 22.5t-23 72.5q0 49 23 71.5
t74 22.5q53 0 75 -23t22 -71t-22 -71.5t-75 -23.5z" />
    <glyph glyph-name="dotaccent" unicode="&#x2d9;" horiz-adv-x="303" 
d="M148 616q-51 0 -74 22.5t-23 72.5q0 49 23 71.5t74 22.5q53 0 75 -23t22 -71t-22 -71.5t-75 -23.5z" />
    <glyph glyph-name="cent" unicode="&#xa2;" horiz-adv-x="564" 
d="M282 -7q-243 18 -243 277t243 277v113h107v-113q33 -2 63.5 -6t55.5 -9v-138q-90 12 -169 12q-69 0 -98.5 -31t-29.5 -104q0 -75 28.5 -106t97.5 -31q27 0 49.5 0.5t42.5 2t39.5 3.5t39.5 5v-137q-24 -5 -54.5 -9t-64.5 -6v-113h-107v113z" />
    <glyph glyph-name="cent.tab" 
d="M316 -7q-261 18 -261 277t261 277v113h111v-113q35 -2 68.5 -6t59.5 -9v-138q-93 12 -178 12q-78 0 -111.5 -31t-33.5 -104q0 -75 32.5 -106t110.5 -31q56 0 96.5 2.5t83.5 8.5v-137q-24 -6 -57.5 -9.5t-70.5 -5.5v-113h-111v113z" />
    <glyph glyph-name="colon" unicode=":" horiz-adv-x="305" 
d="M152 -8q-44 0 -71 22.5t-27 69.5q0 48 27 70t71 22q45 0 72.5 -22t27.5 -70q0 -47 -27.5 -69.5t-72.5 -22.5zM152 364q-44 0 -71 22.5t-27 69.5q0 48 27 70t71 22q45 0 72.5 -22t27.5 -70q0 -47 -27.5 -69.5t-72.5 -22.5z" />
    <glyph glyph-name="period" unicode="." horiz-adv-x="289" 
d="M144 -8q-44 0 -71 22.5t-27 69.5q0 48 27 70t71 22q45 0 72.5 -22t27.5 -70q0 -47 -27.5 -69.5t-72.5 -22.5z" />
    <glyph glyph-name="colon.tab" horiz-adv-x="317" 
d="M158 -8q-45 0 -71.5 22.5t-26.5 69.5q0 48 26.5 70t71.5 22q44 0 71 -22t27 -70q0 -47 -27 -69.5t-71 -22.5zM158 364q-45 0 -71.5 22.5t-26.5 69.5q0 48 26.5 70t71.5 22q44 0 71 -22t27 -70q0 -47 -27 -69.5t-71 -22.5z" />
    <glyph glyph-name="colonmonetary" unicode="&#x20a1;" horiz-adv-x="656" 
d="M436 -13q-26 0 -50.5 2t-47.5 5l-14 -47h-101l21 70q-201 76 -201 352q0 384 378 384h21.5t22.5 -1l17 55h101l-19 -64q10 -1 20.5 -2t21.5 -3v-144l-84 9l-141 -467q25 -3 56 -3q17 0 40.5 1.5t47.5 3.5t45.5 5t35.5 6v-143q-41 -9 -86.5 -14t-83.5 -5zM227 369
q0 -78 14 -126.5t48 -74.5l133 439q-56 -2 -93 -15t-60 -41t-32.5 -72.5t-9.5 -109.5z" />
    <glyph glyph-name="comma" unicode="," horiz-adv-x="296" 
d="M28 -145l43 318h177l-89 -328z" />
    <glyph glyph-name="comma.tab" horiz-adv-x="317" 
d="M42 -145l45 318h177l-91 -328z" />
    <glyph glyph-name="copyright" unicode="&#xa9;" horiz-adv-x="828" 
d="M429 164q-92 0 -140 50.5t-48 153.5t48 154.5t140 51.5q23 0 47 -3t43 -8v-84q-48 9 -79 9q-54 0 -76 -28.5t-22 -90.5q0 -63 22 -91.5t75 -28.5q14 0 34.5 2t46.5 7v-83q-19 -5 -43 -8t-48 -3zM414 -10q-84 0 -152.5 27.5t-117 77.5t-75 120t-26.5 155t26.5 155t75 120
t117 77.5t152.5 27.5t152.5 -27.5t116.5 -77.5t74.5 -120t26.5 -155t-26.5 -155t-74.5 -120t-116.5 -77.5t-152.5 -27.5zM414 70q66 0 119 21.5t89.5 60.5t56 94.5t19.5 123.5t-19.5 123.5t-56 94.5t-89.5 60.5t-119 21.5q-67 0 -120 -21.5t-89.5 -60.5t-56 -94.5
t-19.5 -123.5t19.5 -123.5t56 -94.5t89.5 -60.5t120 -21.5z" />
    <glyph glyph-name="currency" unicode="&#xa4;" horiz-adv-x="657" 
d="M53 160l55 54l39 28q-59 50 -59 128t60 127l-40 29l-55 54l65 65l55 -54l40 -58q26 9 54.5 14t61.5 5q64 0 114 -18l41 57l55 54l65 -65l-54 -54l-41 -29q29 -24 44.5 -56t15.5 -71t-15.5 -71.5t-44.5 -56.5l41 -28l54 -54l-65 -65l-55 54l-40 56q-50 -18 -115 -18
q-67 0 -116 18l-40 -56l-55 -54zM193 370q0 -47 37 -72t99 -25q61 0 97.5 24.5t36.5 72.5t-37 72t-97 24q-62 0 -99 -24t-37 -72z" />
    <glyph glyph-name="currency.ss01" horiz-adv-x="754" 
d="M409 -10q-22 0 -43.5 0.5t-42.5 0.5v-141h-131v147l-52 4t-54 4v730q28 2 54 4l52 4v147h131v-141q13 1 25.5 1h26.5q11 0 22.5 -0.5t22.5 -0.5v141h131v-159q79 -21 116 -67.5t37 -121.5q0 -62 -34 -103t-99 -58v-4q78 -14 118 -59t40 -117q0 -82 -43.5 -130.5
t-134.5 -68.5v-152h-131v140h-11zM397 114q81 0 118.5 25.5t37.5 79.5q0 52 -34.5 76t-112.5 24h-149v-199q9 -2 19.5 -3t26 -2t38 -1h56.5zM390 432q76 0 107.5 22t31.5 76q0 53 -33 74.5t-114 21.5q-38 0 -69 -1.5t-56 -5.5v-187h133z" />
    <glyph glyph-name="d" unicode="d" horiz-adv-x="700" 
d="M285 -11q-121 0 -184 66.5t-63 203.5q0 73 23 127.5t64.5 91t99.5 54.5t129 18q29 0 56 -2t50 -4v264h175v-808h-152l-14 71h-9q-56 -82 -175 -82zM334 119q58 0 92 24t34 72v203q-22 4 -50.5 6.5t-60.5 2.5q-38 0 -64 -7t-42 -25t-22.5 -48.5t-6.5 -76.5q0 -43 6 -72
t20 -46.5t37 -25t57 -7.5z" />
    <glyph glyph-name="dagger" unicode="&#x2020;" horiz-adv-x="638" 
d="M246 265v80l30 149l-185 -18h-61v122h61l185 -18l-30 149v79h147v-79l-31 -149l185 18h61v-122h-61l-185 18l31 -149v-80l-31 -200h-85z" />
    <glyph glyph-name="daggerdbl" unicode="&#x2021;" horiz-adv-x="677" 
d="M265 -119l30 149l-184 -18h-61v122h61l184 -18l-30 149v80l30 149l-184 -18h-61v122h61l184 -18l-30 149v79h147v-79l-31 -149l185 18h61v-122h-61l-185 18l31 -149v-80l-31 -149l185 18h61v-122h-61l-185 18l31 -149v-79h-147v79z" />
    <glyph glyph-name="dcaron" unicode="&#x10f;" horiz-adv-x="700" 
d="M691 808h138l-44 -228h-94v228zM285 -11q-121 0 -184 66.5t-63 203.5q0 73 23 127.5t64.5 91t99.5 54.5t129 18q29 0 56 -2t50 -4v264h175v-808h-152l-14 71h-9q-56 -82 -175 -82zM334 119q58 0 92 24t34 72v203q-22 4 -50.5 6.5t-60.5 2.5q-38 0 -64 -7t-42 -25
t-22.5 -48.5t-6.5 -76.5q0 -43 6 -72t20 -46.5t37 -25t57 -7.5z" />
    <glyph glyph-name="dcroat" unicode="&#x111;" horiz-adv-x="700" 
d="M276 723h184v85h175v-85h76v-98h-76v-625h-152l-14 71h-9q-56 -82 -175 -82q-121 0 -184 66.5t-63 203.5q0 73 23 127.5t64.5 91t99.5 54.5t129 18q29 0 56 -2t50 -4v81h-184v98zM334 119q58 0 92 24t34 72v203q-22 4 -50.5 6.5t-60.5 2.5q-38 0 -64 -7t-42 -25
t-22.5 -48.5t-6.5 -76.5q0 -43 6 -72t20 -46.5t37 -25t57 -7.5z" />
    <glyph glyph-name="ddotbelow" unicode="&#x1e0d;" horiz-adv-x="700" 
d="M355 -206q-40 0 -58 17.5t-18 55.5q0 39 18 56.5t58 17.5q42 0 59 -18t17 -56t-17 -55.5t-59 -17.5zM285 -11q-121 0 -184 66.5t-63 203.5q0 73 23 127.5t64.5 91t99.5 54.5t129 18q29 0 56 -2t50 -4v264h175v-808h-152l-14 71h-9q-56 -82 -175 -82zM334 119q58 0 92 24
t34 72v203q-22 4 -50.5 6.5t-60.5 2.5q-38 0 -64 -7t-42 -25t-22.5 -48.5t-6.5 -76.5q0 -43 6 -72t20 -46.5t37 -25t57 -7.5z" />
    <glyph glyph-name="degree" unicode="&#xb0;" horiz-adv-x="512" 
d="M256 373q-48 0 -89 14t-71 39t-46.5 59.5t-16.5 74.5t16.5 74.5t46.5 60t71 39.5t89 14t89 -14t70.5 -39.5t46 -60t16.5 -74.5t-16.5 -74.5t-46 -59.5t-70.5 -39t-89 -14zM256 464q54 0 82.5 26t28.5 70q0 45 -28.5 71t-82.5 26t-83 -26t-29 -71q0 -44 29 -70t83 -26z
" />
    <glyph glyph-name="degree.tab" 
d="M317 373q-52 0 -96 14t-76 39t-50 59.5t-18 74.5t18 74.5t50 60t76 39.5t96 14t95.5 -14t75.5 -39.5t50 -60t18 -74.5t-18 -74.5t-50 -59.5t-75.5 -39t-95.5 -14zM317 464q58 0 90 26t32 70q0 45 -32 71t-90 26q-57 0 -90 -26t-33 -71q0 -44 33 -70t90 -26z" />
    <glyph glyph-name="divide" unicode="&#xf7;" horiz-adv-x="534" 
d="M269 119q-30 0 -49.5 17.5t-19.5 52.5t19.5 51.5t49.5 16.5t49.5 -16.5t19.5 -51.5t-19.5 -52.5t-49.5 -17.5zM45 423h444v-106h-444v106zM269 481q-30 0 -49.5 16.5t-19.5 51.5t19.5 52.5t49.5 17.5t49.5 -17.5t19.5 -52.5t-19.5 -51.5t-49.5 -16.5z" />
    <glyph glyph-name="divide.tab" 
d="M320 119q-34 0 -55 17.5t-21 52.5t21 51.5t55 16.5q33 0 54 -16.5t21 -51.5t-21 -52.5t-54 -17.5zM59 423h516v-106h-516v106zM320 481q-34 0 -55 16.5t-21 51.5t21 52.5t55 17.5q33 0 54 -17.5t21 -52.5t-21 -51.5t-54 -16.5z" />
    <glyph glyph-name="dollar" unicode="$" horiz-adv-x="683" 
d="M264 -10q-54 3 -112 10t-108 18v143q85 -17 152.5 -25t123.5 -8q75 0 109 17.5t34 54.5q0 22 -9.5 37.5t-27.5 26.5t-44 18t-59 12q-142 22 -206 78t-64 159q0 82 52 136.5t147 74.5v148h165v-139q38 -2 83 -8.5t109 -18.5v-143q-53 15 -114 24t-112 9q-69 0 -105.5 -20
t-36.5 -58q0 -39 32 -61.5t113 -37.5q65 -12 114.5 -29t83 -43t50.5 -62t17 -86q0 -190 -222 -222v-145h-165v140z" />
    <glyph glyph-name="dollar.tab" 
d="M239 -8q-54 2 -110 8.5t-105 17.5v143q84 -17 150 -25t120 -8q73 0 105 17.5t32 54.5q0 44 -34.5 63.5t-98.5 30.5q-139 22 -202 78t-63 159q0 82 51.5 136t142.5 74v149h164v-139q37 -2 82 -9t105 -18v-143q-52 15 -111.5 24t-109.5 9q-67 0 -102.5 -20t-35.5 -58
q0 -39 31.5 -61t108.5 -38q64 -12 112.5 -29t81.5 -43t49.5 -62t16.5 -86q0 -189 -216 -221v-146h-164v142z" />
    <glyph glyph-name="dotlessi" unicode="&#x131;" horiz-adv-x="306" 
d="M65 540h176v-540h-176v540z" />
    <glyph glyph-name="dotlessj" unicode="&#x237;" horiz-adv-x="303" 
d="M19 -199q13 43 22 80.5t15 79t8.5 91.5t2.5 116v58t-0.5 92t-1 110t-1.5 112h175v-465q-8 -85 -30.5 -156.5t-59.5 -138.5z" />
    <glyph glyph-name="e" unicode="e" horiz-adv-x="624" 
d="M333 -9q-294 0 -294 275q0 140 74 211.5t220 71.5q126 0 189.5 -59.5t63.5 -177.5q0 -23 -2.5 -45t-7.5 -41h-364q3 -31 12 -51t25.5 -31.5t41 -16t60.5 -4.5q25 0 53.5 1.5t56.5 4.5t53.5 7.5t45.5 9.5l5 -124q-52 -15 -112 -23t-120 -8zM325 429q-56 0 -82.5 -26.5
t-31.5 -88.5h221q-2 63 -26.5 89t-80.5 26z" />
    <glyph glyph-name="eacute" unicode="&#xe9;" horiz-adv-x="624" 
d="M275 617l65 188h179l-119 -197zM333 -9q-294 0 -294 275q0 140 74 211.5t220 71.5q126 0 189.5 -59.5t63.5 -177.5q0 -23 -2.5 -45t-7.5 -41h-364q3 -31 12 -51t25.5 -31.5t41 -16t60.5 -4.5q25 0 53.5 1.5t56.5 4.5t53.5 7.5t45.5 9.5l5 -124q-52 -15 -112 -23t-120 -8z
M325 429q-56 0 -82.5 -26.5t-31.5 -88.5h221q-2 63 -26.5 89t-80.5 26z" />
    <glyph glyph-name="ebreve" unicode="&#x115;" horiz-adv-x="624" 
d="M333 -9q-294 0 -294 275q0 140 74 211.5t220 71.5q126 0 189.5 -59.5t63.5 -177.5q0 -23 -2.5 -45t-7.5 -41h-364q3 -31 12 -51t25.5 -31.5t41 -16t60.5 -4.5q25 0 53.5 1.5t56.5 4.5t53.5 7.5t45.5 9.5l5 -124q-52 -15 -112 -23t-120 -8zM325 429q-56 0 -82.5 -26.5
t-31.5 -88.5h221q-2 63 -26.5 89t-80.5 26zM321 614q-66 0 -110.5 13.5t-71.5 37.5t-38.5 57t-11.5 72h117q0 -49 25 -72.5t90 -23.5q64 0 89 23.5t25 72.5h116q0 -39 -11.5 -72t-38.5 -57t-71 -37.5t-109 -13.5z" />
    <glyph glyph-name="ecaron" unicode="&#x11b;" horiz-adv-x="624" 
d="M115 802l212 -79l211 79v-119l-213 -78l-210 78v119zM333 -9q-294 0 -294 275q0 140 74 211.5t220 71.5q126 0 189.5 -59.5t63.5 -177.5q0 -23 -2.5 -45t-7.5 -41h-364q3 -31 12 -51t25.5 -31.5t41 -16t60.5 -4.5q25 0 53.5 1.5t56.5 4.5t53.5 7.5t45.5 9.5l5 -124
q-52 -15 -112 -23t-120 -8zM325 429q-56 0 -82.5 -26.5t-31.5 -88.5h221q-2 63 -26.5 89t-80.5 26z" />
    <glyph glyph-name="ecircumflex" unicode="&#xea;" horiz-adv-x="624" 
d="M115 728l209 79l214 -79v-118l-211 79l-212 -79v118zM333 -9q-294 0 -294 275q0 140 74 211.5t220 71.5q126 0 189.5 -59.5t63.5 -177.5q0 -23 -2.5 -45t-7.5 -41h-364q3 -31 12 -51t25.5 -31.5t41 -16t60.5 -4.5q25 0 53.5 1.5t56.5 4.5t53.5 7.5t45.5 9.5l5 -124
q-52 -15 -112 -23t-120 -8zM325 429q-56 0 -82.5 -26.5t-31.5 -88.5h221q-2 63 -26.5 89t-80.5 26z" />
    <glyph glyph-name="edblgrave" unicode="&#x205;" horiz-adv-x="624" 
d="M139 611l-120 197h178l65 -187zM369 611l-121 197h178l66 -187zM333 -9q-294 0 -294 275q0 140 74 211.5t220 71.5q126 0 189.5 -59.5t63.5 -177.5q0 -23 -2.5 -45t-7.5 -41h-364q3 -31 12 -51t25.5 -31.5t41 -16t60.5 -4.5q25 0 53.5 1.5t56.5 4.5t53.5 7.5t45.5 9.5
l5 -124q-52 -15 -112 -23t-120 -8zM325 429q-56 0 -82.5 -26.5t-31.5 -88.5h221q-2 63 -26.5 89t-80.5 26z" />
    <glyph glyph-name="edieresis" unicode="&#xeb;" horiz-adv-x="624" 
d="M178 626q-46 0 -66.5 20t-20.5 65t20.5 64.5t66.5 19.5q47 0 67 -21t20 -63q0 -45 -20 -65t-67 -20zM459 626q-46 0 -66.5 20t-20.5 65t20.5 64.5t66.5 19.5q47 0 67 -21t20 -63q0 -45 -20 -65t-67 -20zM333 -9q-294 0 -294 275q0 140 74 211.5t220 71.5
q126 0 189.5 -59.5t63.5 -177.5q0 -23 -2.5 -45t-7.5 -41h-364q3 -31 12 -51t25.5 -31.5t41 -16t60.5 -4.5q25 0 53.5 1.5t56.5 4.5t53.5 7.5t45.5 9.5l5 -124q-52 -15 -112 -23t-120 -8zM325 429q-56 0 -82.5 -26.5t-31.5 -88.5h221q-2 63 -26.5 89t-80.5 26z" />
    <glyph glyph-name="edotaccent" unicode="&#x117;" horiz-adv-x="624" 
d="M333 -9q-294 0 -294 275q0 140 74 211.5t220 71.5q126 0 189.5 -59.5t63.5 -177.5q0 -23 -2.5 -45t-7.5 -41h-364q3 -31 12 -51t25.5 -31.5t41 -16t60.5 -4.5q25 0 53.5 1.5t56.5 4.5t53.5 7.5t45.5 9.5l5 -124q-52 -15 -112 -23t-120 -8zM325 429q-56 0 -82.5 -26.5
t-31.5 -88.5h221q-2 63 -26.5 89t-80.5 26zM329 616q-51 0 -74 22.5t-23 72.5q0 49 23 71.5t74 22.5q53 0 75 -23t22 -71t-22 -71.5t-75 -23.5z" />
    <glyph glyph-name="edotbelow" unicode="&#x1eb9;" horiz-adv-x="624" 
d="M333 -9q-294 0 -294 275q0 140 74 211.5t220 71.5q126 0 189.5 -59.5t63.5 -177.5q0 -23 -2.5 -45t-7.5 -41h-364q3 -31 12 -51t25.5 -31.5t41 -16t60.5 -4.5q25 0 53.5 1.5t56.5 4.5t53.5 7.5t45.5 9.5l5 -124q-52 -15 -112 -23t-120 -8zM325 429q-56 0 -82.5 -26.5
t-31.5 -88.5h221q-2 63 -26.5 89t-80.5 26zM333 -206q-40 0 -58 17.5t-18 55.5q0 39 18 56.5t58 17.5q42 0 59 -18t17 -56t-17 -55.5t-59 -17.5z" />
    <glyph glyph-name="egrave" unicode="&#xe8;" horiz-adv-x="624" 
d="M333 -9q-294 0 -294 275q0 140 74 211.5t220 71.5q126 0 189.5 -59.5t63.5 -177.5q0 -23 -2.5 -45t-7.5 -41h-364q3 -31 12 -51t25.5 -31.5t41 -16t60.5 -4.5q25 0 53.5 1.5t56.5 4.5t53.5 7.5t45.5 9.5l5 -124q-52 -15 -112 -23t-120 -8zM325 429q-56 0 -82.5 -26.5
t-31.5 -88.5h221q-2 63 -26.5 89t-80.5 26zM255 611l-120 197h183l64 -187z" />
    <glyph glyph-name="eight" unicode="8" horiz-adv-x="717" 
d="M361 -8q-85 0 -145.5 13t-98.5 38.5t-56 63t-18 85.5q0 36 10 64.5t27.5 51t41 39.5t49.5 30q-45 24 -73 65.5t-28 111.5q0 46 22 82t62 61t95.5 38.5t122.5 13.5q131 0 205 -51.5t74 -144.5q0 -63 -27.5 -100.5t-76.5 -63.5q27 -12 50 -27.5t40 -37t26.5 -50.5t9.5 -66
q0 -102 -73.5 -159t-238.5 -57zM295 332q-14 -8 -29 -19t-27 -25.5t-19.5 -33t-7.5 -42.5q0 -51 41 -76t108 -25q66 0 104.5 22.5t38.5 66.5q0 30 -14.5 50t-38.5 33.5t-55.5 22.5t-65.5 18zM228 544q0 -29 15.5 -47.5t41.5 -31.5t60.5 -21.5t73.5 -17.5q29 20 51.5 47.5
t22.5 65.5q0 44 -37 67.5t-95 23.5t-95.5 -21.5t-37.5 -64.5z" />
    <glyph glyph-name="eight.denominator" horiz-adv-x="571" 
d="M290 -5q-127 0 -191 37.5t-64 115.5q0 49 22 80.5t59 51.5q-32 20 -49.5 49.5t-17.5 69.5q0 75 64.5 114.5t176.5 39.5q105 0 167 -40t62 -114q0 -42 -16.5 -68t-44.5 -44q36 -20 57 -51t21 -77q0 -164 -246 -164zM290 97q97 0 97 66q0 27 -32 42.5t-93 30.5l-24 6
q-17 -12 -35.5 -30.5t-18.5 -45.5q0 -34 29 -51.5t77 -17.5zM321 319q7 4 15.5 11t16 16.5t12.5 21t5 25.5q0 28 -22.5 43t-57.5 15q-42 0 -66.5 -14t-24.5 -41q0 -32 27.5 -49t76.5 -25z" />
    <glyph glyph-name="eight.numerator" horiz-adv-x="571" 
d="M290 195q-127 0 -191 37.5t-64 115.5q0 49 22 80.5t59 51.5q-32 20 -49.5 49.5t-17.5 69.5q0 75 64.5 114.5t176.5 39.5q105 0 167 -40t62 -114q0 -42 -16.5 -68t-44.5 -44q36 -20 57 -51t21 -77q0 -164 -246 -164zM290 297q97 0 97 66q0 27 -32 42.5t-93 30.5l-24 6
q-17 -12 -35.5 -30.5t-18.5 -45.5q0 -34 29 -51.5t77 -17.5zM321 519q7 4 15.5 11t16 16.5t12.5 21t5 25.5q0 28 -22.5 43t-57.5 15q-42 0 -66.5 -14t-24.5 -41q0 -32 27.5 -49t76.5 -25z" />
    <glyph glyph-name="eight.osf" horiz-adv-x="712" 
d="M358 -8q-161 0 -239.5 45.5t-78.5 140.5q0 116 132 172q-57 29 -80.5 67.5t-23.5 95.5q0 41 21.5 74.5t61 57t95 36.5t124.5 13q130 0 204.5 -48.5t74.5 -133.5q0 -53 -26 -90t-86 -66q73 -29 103 -67.5t30 -96.5q0 -200 -312 -200zM294 309q-42 -22 -63.5 -51t-21.5 -62
q0 -42 41 -63.5t108 -21.5q63 0 103 19t40 55q0 22 -9 39t-29.5 31.5t-53.5 25.5t-81 21zM226 497q0 -24 15 -40.5t41 -28t60.5 -19.5t73.5 -17q34 19 54.5 46t20.5 54q0 38 -36 61t-97 23t-96.5 -21t-35.5 -58z" />
    <glyph glyph-name="eight.tf" 
d="M318 -8q-81 0 -138 13t-93.5 38.5t-53 63t-16.5 85.5q0 71 32.5 115.5t86.5 70.5q-41 25 -67 66t-26 110q0 46 21 82t58.5 61t90.5 38.5t117 13.5q62 0 111 -13.5t83.5 -38.5t52.5 -61t18 -82q0 -64 -24.5 -101.5t-72.5 -64.5q25 -12 46 -28t37 -38t25 -50t9 -65
q0 -51 -16.5 -90.5t-52.5 -67.5t-92.5 -42.5t-135.5 -14.5zM318 111q62 0 96.5 23t34.5 66q0 33 -14.5 54t-40.5 35t-61 23.5t-75 19.5q-11 -7 -24 -17t-24.5 -24.5t-19.5 -34t-8 -44.5q0 -51 38 -76t98 -25zM319 630q-54 0 -87.5 -21.5t-33.5 -63.5q0 -30 14.5 -49
t38.5 -32t55.5 -21.5t65.5 -16.5q12 9 24 20t22 25t16.5 31t6.5 37q0 44 -34.5 67.5t-87.5 23.5z" />
    <glyph glyph-name="eight.tosf" 
d="M314 -8q-297 0 -297 184q0 119 123 175q-52 27 -74.5 67t-22.5 86q0 48 22 83.5t60 59.5t90.5 35.5t112.5 11.5q125 0 196 -47.5t71 -137.5q0 -50 -24.5 -88t-80.5 -66q71 -30 98 -69t27 -95q0 -100 -73.5 -149.5t-227.5 -49.5zM320 111q55 0 92 18.5t37 59.5
q0 31 -22 51.5t-52.5 34t-62 21t-49.5 13.5q-38 -19 -59.5 -49t-21.5 -62q0 -44 37.5 -65.5t100.5 -21.5zM316 576q-54 0 -86 -21t-32 -59q0 -24 13.5 -40t36.5 -27.5t54.5 -19.5t67.5 -17q30 17 50.5 43.5t20.5 57.5q0 37 -33.5 60t-91.5 23z" />
    <glyph glyph-name="eightinferior" unicode="&#x2088;" horiz-adv-x="571" 
d="M290 -105q-127 0 -191 37.5t-64 115.5q0 49 22 80.5t59 51.5q-32 20 -49.5 49.5t-17.5 69.5q0 75 64.5 114.5t176.5 39.5q105 0 167 -40t62 -114q0 -42 -16.5 -68t-44.5 -44q36 -20 57 -51t21 -77q0 -164 -246 -164zM290 -3q97 0 97 66q0 27 -32 42.5t-93 30.5l-24 6
q-17 -12 -35.5 -30.5t-18.5 -45.5q0 -34 29 -51.5t77 -17.5zM321 219q7 4 15.5 11t16 16.5t12.5 21t5 25.5q0 28 -22.5 43t-57.5 15q-42 0 -66.5 -14t-24.5 -41q0 -32 27.5 -49t76.5 -25z" />
    <glyph glyph-name="eightsuperior" unicode="&#x2078;" horiz-adv-x="571" 
d="M290 295q-127 0 -191 37.5t-64 115.5q0 49 22 80.5t59 51.5q-32 20 -49.5 49.5t-17.5 69.5q0 75 64.5 114.5t176.5 39.5q105 0 167 -40t62 -114q0 -42 -16.5 -68t-44.5 -44q36 -20 57 -51t21 -77q0 -164 -246 -164zM290 397q97 0 97 66q0 27 -32 42.5t-93 30.5l-24 6
q-17 -12 -35.5 -30.5t-18.5 -45.5q0 -34 29 -51.5t77 -17.5zM321 619q7 4 15.5 11t16 16.5t12.5 21t5 25.5q0 28 -22.5 43t-57.5 15q-42 0 -66.5 -14t-24.5 -41q0 -32 27.5 -49t76.5 -25z" />
    <glyph glyph-name="einvertedbreve" unicode="&#x207;" horiz-adv-x="624" 
d="M90 624q0 38 11.5 71t38.5 57t71.5 38t109.5 14t109.5 -13.5t71.5 -37.5t38.5 -57t11.5 -72h-117q0 48 -24.5 71.5t-89.5 23.5q-64 0 -89 -23.5t-25 -71.5h-117zM333 -9q-294 0 -294 275q0 140 74 211.5t220 71.5q126 0 189.5 -59.5t63.5 -177.5q0 -23 -2.5 -45t-7.5 -41
h-364q3 -31 12 -51t25.5 -31.5t41 -16t60.5 -4.5q25 0 53.5 1.5t56.5 4.5t53.5 7.5t45.5 9.5l5 -124q-52 -15 -112 -23t-120 -8zM325 429q-56 0 -82.5 -26.5t-31.5 -88.5h221q-2 63 -26.5 89t-80.5 26z" />
    <glyph glyph-name="ellipsis" unicode="&#x2026;" horiz-adv-x="878" 
d="M144 -8q-44 0 -71 22.5t-27 69.5q0 48 27 70t71 22q45 0 72.5 -22t27.5 -70q0 -47 -27.5 -69.5t-72.5 -22.5zM441 -8q-44 0 -71 22.5t-27 69.5q0 48 27 70t71 22q45 0 72.5 -22t27.5 -70q0 -47 -27.5 -69.5t-72.5 -22.5zM733 -8q-44 0 -71 22.5t-27 69.5q0 48 27 70
t71 22q45 0 72.5 -22t27.5 -70q0 -47 -27.5 -69.5t-72.5 -22.5z" />
    <glyph glyph-name="emacron" unicode="&#x113;" horiz-adv-x="624" 
d="M333 -9q-294 0 -294 275q0 140 74 211.5t220 71.5q126 0 189.5 -59.5t63.5 -177.5q0 -23 -2.5 -45t-7.5 -41h-364q3 -31 12 -51t25.5 -31.5t41 -16t60.5 -4.5q25 0 53.5 1.5t56.5 4.5t53.5 7.5t45.5 9.5l5 -124q-52 -15 -112 -23t-120 -8zM325 429q-56 0 -82.5 -26.5
t-31.5 -88.5h221q-2 63 -26.5 89t-80.5 26zM111 762h420v-116h-420v116z" />
    <glyph glyph-name="emdash" unicode="&#x2014;" horiz-adv-x="879" 
d="M60 344h760v-128h-760v128z" />
    <glyph glyph-name="endash" unicode="&#x2013;" horiz-adv-x="708" 
d="M60 344h589v-128h-589v128z" />
    <glyph glyph-name="eng" unicode="&#x14b;" horiz-adv-x="702" 
d="M419 -201q12 41 21 78.5t14.5 79t8.5 89.5t3 110v140q0 30 -2.5 48.5t-9.5 29t-20 14t-33 3.5q-35 0 -76 -7t-84 -20v-364h-175v540h146l9 -60h4q79 35 141 52.5t112 17.5q76 0 119.5 -40t43.5 -112v-337q-8 -79 -30.5 -150t-56.5 -131z" />
    <glyph glyph-name="eogonek" unicode="&#x119;" horiz-adv-x="625" 
d="M333 -9q-294 0 -294 275q0 140 74 211.5t220 71.5q126 0 189.5 -59.5t63.5 -177.5q0 -23 -2.5 -45t-7.5 -41h-364q3 -31 12 -51t25.5 -31.5t41 -16t60.5 -4.5q25 0 53.5 1.5t56.5 4.5t53.5 7.5t45.5 9.5l5 -123v-10q-70 -30 -98 -50.5t-28 -43.5q0 -25 34 -25
q14 0 41 4.5t51 10.5v-94q-38 -12 -90 -12q-72 0 -110.5 23t-38.5 68q0 52 51 98q-11 0 -22 -0.5t-22 -0.5zM325 429q-56 0 -82.5 -26.5t-31.5 -88.5h221q-2 63 -26.5 89t-80.5 26z" />
    <glyph glyph-name="equal" unicode="=" horiz-adv-x="548" 
d="M63 295h422v-109h-422v109zM63 515h422v-109h-422v109z" />
    <glyph glyph-name="equal.tab" 
d="M80 295h473v-109h-473v109zM80 515h473v-109h-473v109z" />
    <glyph glyph-name="estimated" unicode="&#x212e;" horiz-adv-x="660" 
d="M336 1q-62 0 -114.5 23.5t-90.5 65.5t-60 99t-22 124q0 69 21 126.5t59 99t91 64.5t116 23t114.5 -22t89 -63t59.5 -98.5t25 -129.5h-447v-205q64 -66 159 -66q140 0 218 136l40 -24q-56 -80 -118 -116.5t-140 -36.5zM496 354v164q-71 68 -161 68q-93 0 -158 -68v-164
h319z" />
    <glyph glyph-name="eth" unicode="&#xf0;" horiz-adv-x="699" 
d="M211 705l133 11q-20 23 -41.5 46t-46.5 46h177q8 -10 27 -29.5t42 -48.5l169 15v-105l-103 -9q34 -60 58.5 -139t24.5 -177q0 -163 -78.5 -244.5t-230.5 -81.5q-146 0 -225.5 72t-79.5 207q0 67 20 119.5t57 89t90.5 55.5t119.5 19q52 0 87.5 -15t63.5 -48
q-22 69 -58 129l-206 -18v106zM344 123q71 0 101 35t30 116q0 70 -32 106t-102 36t-99 -34t-29 -113t30 -112.5t101 -33.5z" />
    <glyph glyph-name="etilde" unicode="&#x1ebd;" horiz-adv-x="624" 
d="M333 -9q-294 0 -294 275q0 140 74 211.5t220 71.5q126 0 189.5 -59.5t63.5 -177.5q0 -23 -2.5 -45t-7.5 -41h-364q3 -31 12 -51t25.5 -31.5t41 -16t60.5 -4.5q25 0 53.5 1.5t56.5 4.5t53.5 7.5t45.5 9.5l5 -124q-52 -15 -112 -23t-120 -8zM325 429q-56 0 -82.5 -26.5
t-31.5 -88.5h221q-2 63 -26.5 89t-80.5 26zM74 669q35 61 79.5 91t85.5 30q28 0 54.5 -6t52.5 -13t52 -13t53 -6q24 0 48 7.5t55 29.5l23 -34q-36 -60 -81 -91t-86 -31q-27 0 -53.5 6t-53 13t-52.5 13t-53 6q-25 0 -48 -7t-52 -29z" />
    <glyph glyph-name="exclam" unicode="!" horiz-adv-x="309" 
d="M155 -6q-40 0 -62 21.5t-22 59.5t22 59t62 21q41 0 63 -21t22 -59t-22 -59.5t-63 -21.5zM102 252l-33 478v10h171v-10l-32 -478v-11h-106v11z" />
    <glyph glyph-name="exclamdown" unicode="&#xa1;" horiz-adv-x="292" 
d="M146 546q41 0 63 -21.5t22 -59.5t-22 -59t-63 -21q-40 0 -62 21t-22 59t22 59.5t62 21.5zM93 299h106v-11l32 -478v-10h-171v10l33 478v11z" />
    <glyph glyph-name="f" unicode="f" horiz-adv-x="492" 
d="M146 393h-130v147h131v23q0 71 18 119t58.5 77t106 42t160.5 14l8 -124q-50 -2 -83.5 -8t-54 -19t-30 -34.5t-9.5 -54.5v-35h157v-147h-157v-393h-175v393z" />
    <glyph glyph-name="f.calt" horiz-adv-x="492" 
d="M146 393h-130v147h131v23q0 71 18 119t58.5 77t106 42t160.5 14l8 -124q-50 -2 -83.5 -8t-54 -19t-30 -34.5t-9.5 -54.5v-35h157v-147h-157v-393h-175v393z" />
    <glyph glyph-name="h" unicode="h" horiz-adv-x="702" 
d="M65 808h175v-327q74 32 133 50.5t104 18.5q77 0 120.5 -39.5t43.5 -112.5v-398h-176v339q0 42 -15.5 59.5t-50.5 17.5q-29 0 -71 -10.5t-88 -27.5v-378h-175v808z" />
    <glyph glyph-name="i" unicode="i" horiz-adv-x="306" 
d="M153 616q-51 0 -73 22t-22 71q0 48 22 70.5t73 22.5q53 0 74.5 -23t21.5 -70t-21.5 -70t-74.5 -23zM65 540h176v-540h-176v540z" />
    <glyph glyph-name="j" unicode="j" horiz-adv-x="303" 
d="M150 616q-51 0 -73 22t-22 71q0 48 22 70.5t73 22.5q53 0 74.5 -23t21.5 -70t-21.5 -70t-74.5 -23zM19 -199q13 43 22 80.5t15 79t8.5 91.5t2.5 116v58t-0.5 92t-1 110t-1.5 112h175v-465q-8 -85 -30.5 -156.5t-59.5 -138.5z" />
    <glyph glyph-name="k" unicode="k" horiz-adv-x="650" 
d="M65 808h175v-477h65l143 209h194l-189 -253l-25 -7v-4l25 -7l206 -269h-193l-163 225h-63v-225h-175v808z" />
    <glyph glyph-name="l" unicode="l" horiz-adv-x="307" 
d="M66 808h175v-808h-175v808z" />
    <glyph glyph-name="t" unicode="t" horiz-adv-x="475" 
d="M315 -14q-97 0 -146 45.5t-49 133.5v228h-100v147h112l27 158l135 14v-172h148v-147h-147v-189q0 -46 18.5 -65t63.5 -19q32 0 68 13v-131q-24 -7 -59.5 -11.5t-70.5 -4.5z" />
    <glyph glyph-name="five" unicode="5" horiz-adv-x="625" 
d="M252 -12q-50 0 -101 4.5t-102 11.5v131h38q38 -7 72 -9.5t67 -2.5q44 0 77 4.5t54.5 17t32.5 33.5t11 54q0 26 -13 43.5t-41.5 28t-74.5 15t-113 4.5h-79l-19 19l31 398h455v-136h-325l-8 -151q93 -1 163.5 -12t117.5 -37t70.5 -70t23.5 -110q0 -71 -28.5 -116.5
t-75.5 -72t-108 -37t-125 -10.5z" />
    <glyph glyph-name="five.denominator" horiz-adv-x="499" 
d="M201 -9q-38 0 -79.5 3.5t-83.5 8.5v118h32q30 -5 57 -7t54 -2q68 0 101 13t33 48q0 36 -34.5 49t-116.5 14l-95 1l-21 17l25 292h364v-120h-256l-6 -89q81 0 137 -8.5t91 -28t50.5 -51t15.5 -78.5q0 -54 -23 -88.5t-60.5 -55t-85.5 -28.5t-99 -8z" />
    <glyph glyph-name="five.numerator" horiz-adv-x="499" 
d="M201 191q-38 0 -79.5 3.5t-83.5 8.5v118h32q30 -5 57 -7t54 -2q68 0 101 13t33 48q0 36 -34.5 49t-116.5 14l-95 1l-21 17l25 292h364v-120h-256l-6 -89q81 0 137 -8.5t91 -28t50.5 -51t15.5 -78.5q0 -54 -23 -88.5t-60.5 -55t-85.5 -28.5t-99 -8z" />
    <glyph glyph-name="five.osf" horiz-adv-x="608" 
d="M243 -168q-50 0 -101 4.5t-102 11.5v131h38q38 -7 72 -9.5t68 -2.5q44 0 77 4.5t54.5 17t32 33.5t10.5 54q0 26 -12.5 43.5t-41 28t-75 15.5t-113.5 5h-79l-19 18l31 398h455v-136h-325l-8 -151q93 -1 163.5 -12t117.5 -37t70.5 -70t23.5 -110q0 -71 -28.5 -116.5
t-75.5 -72t-108 -37t-125 -10.5z" />
    <glyph glyph-name="five.tf" 
d="M255 -12q-50 0 -101.5 4.5t-103.5 11.5v131h38q38 -7 73 -9.5t69 -2.5q45 0 78.5 4.5t55 17t32.5 33.5t11 54q0 27 -13 44.5t-42.5 28.5t-76 15.5t-113.5 4.5h-80l-19 18l31 397h459v-136h-328l-9 -151q94 -1 165.5 -12t118.5 -37.5t71 -70t24 -109.5q0 -71 -28.5 -116.5
t-76 -72t-109 -37t-126.5 -10.5z" />
    <glyph glyph-name="five.tosf" 
d="M255 -168q-50 0 -101.5 4.5t-103.5 11.5v131h38q38 -7 73 -9.5t69 -2.5q45 0 78.5 4.5t55 17t32.5 33.5t11 54q0 26 -13 43.5t-42 28t-76 15t-114 4.5h-80l-19 19l31 398h459v-136h-328l-9 -151q94 -1 165.5 -12t118.5 -37.5t71 -70t24 -109.5q0 -71 -28.5 -116.5
t-76 -72t-109 -37t-126.5 -10.5z" />
    <glyph glyph-name="fiveeighths" unicode="&#x215d;" horiz-adv-x="1325" 
d="M211 191q-38 0 -79.5 3.5t-83.5 8.5v118h32q30 -5 57 -7t54 -2q68 0 101 13t33 48q0 36 -34.5 49t-116.5 14l-95 1l-21 17l25 292h364v-120h-256l-6 -89q81 0 137 -8.5t91 -28t50.5 -51t15.5 -78.5q0 -54 -23 -88.5t-60.5 -55t-85.5 -28.5t-99 -8zM744 740h153l-373 -740
h-153zM1043 -5q-127 0 -191 37.5t-64 115.5q0 49 22 80.5t59 51.5q-32 20 -49.5 49.5t-17.5 69.5q0 75 64.5 114.5t176.5 39.5q105 0 167 -40t62 -114q0 -42 -16.5 -68t-44.5 -44q36 -20 57 -51t21 -77q0 -164 -246 -164zM1043 97q97 0 97 66q0 27 -32 42.5t-93 30.5l-24 6
q-17 -12 -35.5 -30.5t-18.5 -45.5q0 -34 29 -51.5t77 -17.5zM1074 319q7 4 15.5 11t16 16.5t12.5 21t5 25.5q0 28 -22.5 43t-57.5 15q-42 0 -66.5 -14t-24.5 -41q0 -32 27.5 -49t76.5 -25z" />
    <glyph glyph-name="fraction" unicode="&#x2044;" horiz-adv-x="325" 
d="M272 740h153l-373 -740h-153z" />
    <glyph glyph-name="fiveinferior" unicode="&#x2085;" horiz-adv-x="499" 
d="M201 -109q-38 0 -79.5 3.5t-83.5 8.5v118h32q30 -5 57 -7t54 -2q68 0 101 13t33 48q0 36 -34.5 49t-116.5 14l-95 1l-21 17l25 292h364v-120h-256l-6 -89q81 0 137 -8.5t91 -28t50.5 -51t15.5 -78.5q0 -54 -23 -88.5t-60.5 -55t-85.5 -28.5t-99 -8z" />
    <glyph glyph-name="fivesuperior" unicode="&#x2075;" horiz-adv-x="499" 
d="M201 291q-38 0 -79.5 3.5t-83.5 8.5v118h32q30 -5 57 -7t54 -2q68 0 101 13t33 48q0 36 -34.5 49t-116.5 14l-95 1l-21 17l25 292h364v-120h-256l-6 -89q81 0 137 -8.5t91 -28t50.5 -51t15.5 -78.5q0 -54 -23 -88.5t-60.5 -55t-85.5 -28.5t-99 -8z" />
    <glyph glyph-name="florin" unicode="&#x192;" horiz-adv-x="527" 
d="M162 393h-131v147h132v23q0 71 17.5 119t58 77t106 42t160.5 14l8 -124q-50 -2 -83.5 -8t-54 -19t-30 -34.5t-9.5 -54.5v-35h157v-147h-157v-561l-174 -51v612z" />
    <glyph glyph-name="four" unicode="4" horiz-adv-x="710" 
d="M18 249v11l249 490h4l178 -17l7 -19l-257 -432v-4h198l39 186h126v-186h123v-136h-123v-142h-175v142h-349z" />
    <glyph glyph-name="four.denominator" horiz-adv-x="558" 
d="M297 101h-266l-17 93l201 354l15 4l126 -10l13 -29l-201 -299h136l35 139h104v-139h95v-113h-95v-101h-146v101z" />
    <glyph glyph-name="four.numerator" horiz-adv-x="558" 
d="M297 301h-266l-17 93l201 354l15 4l126 -10l13 -29l-201 -299h136l35 139h104v-139h95v-113h-95v-101h-146v101z" />
    <glyph glyph-name="four.osf" horiz-adv-x="704" 
d="M16 116v12l249 466h4l178 -17l7 -19l-257 -408v-4h197l40 186h126v-186h123v-137h-123v-171h-175v171h-350z" />
    <glyph glyph-name="four.tf" 
d="M-6 249v11l236 490h4l176 -17l7 -19l-245 -432v-4h186l34 186h125v-186h116v-136h-116v-142h-173v142h-331z" />
    <glyph glyph-name="four.tosf" 
d="M-6 116v12l237 466h4l175 -17l7 -19l-244 -408v-4h185l8 35l26 151h125v-186h116v-137h-116v-171h-173v171h-331z" />
    <glyph glyph-name="fourinferior" unicode="&#x2084;" horiz-adv-x="558" 
d="M297 1h-266l-17 93l201 354l15 4l126 -10l13 -29l-201 -299h136l35 139h104v-139h95v-113h-95v-101h-146v101z" />
    <glyph glyph-name="foursuperior" unicode="&#x2074;" horiz-adv-x="558" 
d="M297 401h-266l-17 93l201 354l15 4l126 -10l13 -29l-201 -299h136l35 139h104v-139h95v-113h-95v-101h-146v101z" />
    <glyph glyph-name="franc" unicode="&#x20a3;" horiz-adv-x="752" 
d="M31 209h114v531h570v-136h-391v-164h351v-136h-351v-95h140v-106h-140v-103h-179v103h-114v106z" />
    <glyph glyph-name="g" unicode="g" horiz-adv-x="699" 
d="M312 -220q-31 0 -64 1.5t-64.5 4.5t-59.5 7t-48 9l10 125q33 -7 84.5 -14t104.5 -7q39 0 75 6.5t63.5 22t43.5 42.5t16 68v58h-9q-27 -45 -72 -66t-107 -21q-121 0 -183.5 62t-62.5 192q0 70 22.5 122.5t64 87.5t100 52.5t129.5 17.5q25 0 51 -1.5t58.5 -6.5t74 -14.5
t97.5 -25.5v-439q0 -82 -27.5 -136.5t-72.5 -87t-103.5 -46t-120.5 -13.5zM335 144q60 0 93 25.5t33 76.5v172q-23 4 -51 6.5t-60 2.5q-38 0 -64 -6.5t-42 -23t-23 -45t-7 -71.5q0 -77 26.5 -107t94.5 -30z" />
    <glyph glyph-name="gacute" unicode="&#x1f5;" horiz-adv-x="699" 
d="M292 617l65 188h179l-119 -197zM312 -220q-31 0 -64 1.5t-64.5 4.5t-59.5 7t-48 9l10 125q33 -7 84.5 -14t104.5 -7q39 0 75 6.5t63.5 22t43.5 42.5t16 68v58h-9q-27 -45 -72 -66t-107 -21q-121 0 -183.5 62t-62.5 192q0 70 22.5 122.5t64 87.5t100 52.5t129.5 17.5
q25 0 51 -1.5t58.5 -6.5t74 -14.5t97.5 -25.5v-439q0 -82 -27.5 -136.5t-72.5 -87t-103.5 -46t-120.5 -13.5zM335 144q60 0 93 25.5t33 76.5v172q-23 4 -51 6.5t-60 2.5q-38 0 -64 -6.5t-42 -23t-23 -45t-7 -71.5q0 -77 26.5 -107t94.5 -30z" />
    <glyph glyph-name="gbreve" unicode="&#x11f;" horiz-adv-x="699" 
d="M312 -220q-31 0 -64 1.5t-64.5 4.5t-59.5 7t-48 9l10 125q33 -7 84.5 -14t104.5 -7q39 0 75 6.5t63.5 22t43.5 42.5t16 68v58h-9q-27 -45 -72 -66t-107 -21q-121 0 -183.5 62t-62.5 192q0 70 22.5 122.5t64 87.5t100 52.5t129.5 17.5q25 0 51 -1.5t58.5 -6.5t74 -14.5
t97.5 -25.5v-439q0 -82 -27.5 -136.5t-72.5 -87t-103.5 -46t-120.5 -13.5zM335 144q60 0 93 25.5t33 76.5v172q-23 4 -51 6.5t-60 2.5q-38 0 -64 -6.5t-42 -23t-23 -45t-7 -71.5q0 -77 26.5 -107t94.5 -30zM351 614q-66 0 -110.5 13.5t-71.5 37.5t-38.5 57t-11.5 72h117
q0 -49 25 -72.5t90 -23.5q64 0 89 23.5t25 72.5h116q0 -39 -11.5 -72t-38.5 -57t-71 -37.5t-109 -13.5z" />
    <glyph glyph-name="gcircumflex" unicode="&#x11d;" horiz-adv-x="699" 
d="M149 728l209 79l214 -79v-118l-211 79l-212 -79v118zM312 -220q-31 0 -64 1.5t-64.5 4.5t-59.5 7t-48 9l10 125q33 -7 84.5 -14t104.5 -7q39 0 75 6.5t63.5 22t43.5 42.5t16 68v58h-9q-27 -45 -72 -66t-107 -21q-121 0 -183.5 62t-62.5 192q0 70 22.5 122.5t64 87.5
t100 52.5t129.5 17.5q25 0 51 -1.5t58.5 -6.5t74 -14.5t97.5 -25.5v-439q0 -82 -27.5 -136.5t-72.5 -87t-103.5 -46t-120.5 -13.5zM335 144q60 0 93 25.5t33 76.5v172q-23 4 -51 6.5t-60 2.5q-38 0 -64 -6.5t-42 -23t-23 -45t-7 -71.5q0 -77 26.5 -107t94.5 -30z" />
    <glyph glyph-name="gcommaaccent" unicode="&#x123;" horiz-adv-x="699" 
d="M511 778l-41 -150h-181l90 150h132zM312 -220q-31 0 -64 1.5t-64.5 4.5t-59.5 7t-48 9l10 125q33 -7 84.5 -14t104.5 -7q39 0 75 6.5t63.5 22t43.5 42.5t16 68v58h-9q-27 -45 -72 -66t-107 -21q-121 0 -183.5 62t-62.5 192q0 70 22.5 122.5t64 87.5t100 52.5t129.5 17.5
q25 0 51 -1.5t58.5 -6.5t74 -14.5t97.5 -25.5v-439q0 -82 -27.5 -136.5t-72.5 -87t-103.5 -46t-120.5 -13.5zM335 144q60 0 93 25.5t33 76.5v172q-23 4 -51 6.5t-60 2.5q-38 0 -64 -6.5t-42 -23t-23 -45t-7 -71.5q0 -77 26.5 -107t94.5 -30z" />
    <glyph glyph-name="gdotaccent" unicode="&#x121;" horiz-adv-x="699" 
d="M312 -220q-31 0 -64 1.5t-64.5 4.5t-59.5 7t-48 9l10 125q33 -7 84.5 -14t104.5 -7q39 0 75 6.5t63.5 22t43.5 42.5t16 68v58h-9q-27 -45 -72 -66t-107 -21q-121 0 -183.5 62t-62.5 192q0 70 22.5 122.5t64 87.5t100 52.5t129.5 17.5q25 0 51 -1.5t58.5 -6.5t74 -14.5
t97.5 -25.5v-439q0 -82 -27.5 -136.5t-72.5 -87t-103.5 -46t-120.5 -13.5zM335 144q60 0 93 25.5t33 76.5v172q-23 4 -51 6.5t-60 2.5q-38 0 -64 -6.5t-42 -23t-23 -45t-7 -71.5q0 -77 26.5 -107t94.5 -30zM353 616q-51 0 -74 22.5t-23 72.5q0 49 23 71.5t74 22.5
q53 0 75 -23t22 -71t-22 -71.5t-75 -23.5z" />
    <glyph glyph-name="germandbls" unicode="&#xdf;" horiz-adv-x="829" 
d="M66 570q0 124 81 183.5t245 59.5q165 0 247.5 -60t82.5 -183v-140h-140q-95 0 -95 -47q0 -27 30 -37.5t96 -18.5q93 -11 143.5 -48.5t50.5 -114.5q0 -87 -65 -131.5t-193 -44.5q-48 0 -110.5 6t-125.5 17v118q70 -14 124 -19.5t103 -5.5q53 0 76 11.5t23 36.5
q0 26 -25.5 38t-76.5 18q-36 4 -74.5 10.5t-70.5 23.5t-52.5 49t-20.5 88q0 77 60 122t167 50v19q0 57 -37.5 82.5t-115.5 25.5q-77 0 -114.5 -25.5t-37.5 -82.5v-570h-175v570z" />
    <glyph glyph-name="germandbls.sc" horiz-adv-x="1261" 
d="M306 -10q-27 0 -60 1.5t-67.5 4.5t-69.5 7.5t-66 9.5v135q74 -14 136 -20.5t117 -6.5q60 0 91.5 12.5t31.5 35.5q0 28 -29.5 38.5t-89.5 19.5q-131 14 -190 56.5t-59 123.5q0 84 75.5 132t207.5 48q24 0 47 -1t50 -4t58.5 -7.5t71.5 -11.5v-131q-48 11 -104 17.5
t-103 6.5q-65 0 -94.5 -12.5t-29.5 -36.5q0 -23 29.5 -37t95.5 -23q115 -12 179 -51.5t64 -119.5q0 -94 -71.5 -140t-220.5 -46zM937 -10q-27 0 -60 1.5t-67.5 4.5t-69.5 7.5t-66 9.5v135q74 -14 136 -20.5t117 -6.5q60 0 91.5 12.5t31.5 35.5q0 28 -29.5 38.5t-89.5 19.5
q-131 14 -190 56.5t-59 123.5q0 84 75.5 132t207.5 48q24 0 47 -1t50 -4t58.5 -7.5t71.5 -11.5v-131q-48 11 -104 17.5t-103 6.5q-65 0 -94.5 -12.5t-29.5 -36.5q0 -23 29.5 -37t95.5 -23q115 -12 179 -51.5t64 -119.5q0 -94 -71.5 -140t-220.5 -46z" />
    <glyph glyph-name="greater" unicode="&#x3e;" horiz-adv-x="553" 
d="M67 234l301 130l-301 130v117l450 -195v-103l-450 -195v116z" />
    <glyph glyph-name="greater.tab" 
d="M82 234l336 130l-337 130v117l501 -195v-103l-500 -195v116z" />
    <glyph glyph-name="greaterequal" unicode="&#x2265;" horiz-adv-x="578" 
d="M70 630l450 -159v-104l-450 -159v117l304 94l-304 94v117zM66 170h451v-106h-451v106z" />
    <glyph glyph-name="guillemotleft" unicode="&#xab;" horiz-adv-x="776" 
d="M29 268v4l208 238h177l-208 -238v-4l208 -238h-177zM355 268v4l208 238h177l-208 -238v-4l208 -238h-177z" />
    <glyph glyph-name="guilsinglleft" unicode="&#x2039;" horiz-adv-x="450" 
d="M29 268v4l208 238h177l-208 -238v-4l208 -238h-177z" />
    <glyph glyph-name="guillemotright" unicode="&#xbb;" horiz-adv-x="776" 
d="M213 30h-177l208 238v4l-208 238h177l208 -238v-4zM539 30h-177l208 238v4l-208 238h177l208 -238v-4z" />
    <glyph glyph-name="guilsinglright" unicode="&#x203a;" horiz-adv-x="450" 
d="M213 30h-177l208 238v4l-208 238h177l208 -238v-4z" />
    <glyph glyph-name="hbar" unicode="&#x127;" horiz-adv-x="703" 
d="M-25 723h91v85h175v-85h168v-98h-168v-144q74 32 133 50.5t104 18.5q77 0 120.5 -39.5t43.5 -112.5v-398h-176v339q0 42 -15.5 59.5t-50.5 17.5q-29 0 -71 -10.5t-88 -27.5v-378h-175v625h-91v98z" />
    <glyph glyph-name="hcircumflex" unicode="&#x125;" horiz-adv-x="702" 
d="M152 933l209 79l214 -79v-118l-211 79l-212 -79v118zM65 808h175v-327q74 32 133 50.5t104 18.5q77 0 120.5 -39.5t43.5 -112.5v-398h-176v339q0 42 -15.5 59.5t-50.5 17.5q-29 0 -71 -10.5t-88 -27.5v-378h-175v808z" />
    <glyph glyph-name="hdotbelow" unicode="&#x1e25;" horiz-adv-x="702" 
d="M65 808h175v-327q74 32 133 50.5t104 18.5q77 0 120.5 -39.5t43.5 -112.5v-398h-176v339q0 42 -15.5 59.5t-50.5 17.5q-29 0 -71 -10.5t-88 -27.5v-378h-175v808zM352 -206q-40 0 -58 17.5t-18 55.5q0 39 18 56.5t58 17.5q42 0 59 -18t17 -56t-17 -55.5t-59 -17.5z" />
    <glyph glyph-name="hungarumlaut" unicode="&#x2dd;" horiz-adv-x="530" 
d="M39 621l65 187h178l-121 -197zM269 621l64 187h178l-120 -197z" />
    <glyph glyph-name="hyphen" unicode="-" horiz-adv-x="558" 
d="M60 344h439v-128h-439v128z" />
    <glyph glyph-name="iacute" unicode="&#xed;" horiz-adv-x="307" 
d="M90 617l65 188h179l-119 -197zM65 540h176v-540h-176v540z" />
    <glyph glyph-name="ibreve" unicode="&#x12d;" horiz-adv-x="307" 
d="M155 614q-50 0 -84.5 13.5t-55.5 37.5t-30.5 57t-9.5 72h88q0 -49 19.5 -72.5t72.5 -23.5q54 0 73.5 23.5t19.5 72.5h87q0 -39 -9 -72t-30 -57t-55.5 -37.5t-85.5 -13.5zM66 540h176v-540h-176v540z" />
    <glyph glyph-name="icircumflex" unicode="&#xee;" horiz-adv-x="307" 
d="M-42 728l195 79l199 -79v-118l-197 79l-197 -79v118zM66 540h176v-540h-176v540z" />
    <glyph glyph-name="idblgrave" unicode="&#x209;" horiz-adv-x="307" 
d="M-27 611l-120 197h178l65 -187zM203 611l-121 197h178l66 -187zM66 540h176v-540h-176v540z" />
    <glyph glyph-name="idieresis" unicode="&#xef;" horiz-adv-x="307" 
d="M32 626q-46 0 -66.5 20t-20.5 65t20.5 64.5t66.5 19.5q47 0 67 -21t20 -63q0 -45 -20 -65t-67 -20zM279 626q-46 0 -66.5 20t-20.5 65t20.5 64.5t66.5 19.5q47 0 67 -21t20 -63q0 -45 -20 -65t-67 -20zM66 540h176v-540h-176v540z" />
    <glyph glyph-name="idotbelow" unicode="&#x1ecb;" horiz-adv-x="306" 
d="M153 616q-51 0 -73 22t-22 71q0 48 22 70.5t73 22.5q53 0 74.5 -23t21.5 -70t-21.5 -70t-74.5 -23zM65 540h176v-540h-176v540zM153 -206q-40 0 -58 17.5t-18 55.5q0 39 18 56.5t58 17.5q42 0 59 -18t17 -56t-17 -55.5t-59 -17.5z" />
    <glyph glyph-name="igrave" unicode="&#xec;" horiz-adv-x="307" 
d="M66 540h176v-540h-176v540zM81 611l-120 197h183l64 -187z" />
    <glyph glyph-name="iinvertedbreve" unicode="&#x20b;" horiz-adv-x="307" 
d="M-25 624q0 38 9.5 71t30.5 57t55.5 38t84.5 14q51 0 85.5 -13.5t56 -37.5t30.5 -57t9 -72h-88q0 48 -19.5 71.5t-73.5 23.5q-53 0 -72.5 -23.5t-19.5 -71.5h-88zM66 540h176v-540h-176v540z" />
    <glyph glyph-name="ij" unicode="&#x133;" horiz-adv-x="608" 
d="M153 616q-51 0 -73 22t-22 71q0 48 22 70.5t73 22.5q53 0 74.5 -23t21.5 -70t-21.5 -70t-74.5 -23zM65 540h176v-540h-176v540zM456 616q-51 0 -73 22t-22 71q0 48 22 70.5t73 22.5q53 0 74.5 -23t21.5 -70t-21.5 -70t-74.5 -23zM325 -199q13 43 22 80.5t15 79t8.5 91.5
t2.5 116v58t-0.5 92t-1 110t-1.5 112h175v-465q-8 -85 -30.5 -156.5t-59.5 -138.5z" />
    <glyph glyph-name="imacron" unicode="&#x12b;" horiz-adv-x="307" 
d="M66 540h176v-540h-176v540zM-54 762h420v-116h-420v116z" />
    <glyph glyph-name="infinity" unicode="&#x221e;" horiz-adv-x="945" 
d="M259 124q-47 0 -86.5 14t-68 39t-44.5 60t-16 77q0 39 16.5 73t45 59t68 39t85.5 14q61 0 115 -25.5t98 -74.5q23 20 46.5 38.5t49.5 32t55 21.5t63 8q47 0 87 -14t68.5 -39t44.5 -59.5t16 -75.5q0 -40 -16.5 -74.5t-45 -59.5t-68.5 -39t-86 -14q-60 0 -111.5 24.5
t-102.5 79.5q-23 -20 -46 -39t-48 -33.5t-54 -23t-65 -8.5zM278 221q34 0 67.5 22t71.5 71q-35 46 -70 67t-73 21q-42 0 -67 -24t-25 -64q0 -41 27 -67t69 -26zM672 221q42 0 66.5 24t24.5 66q0 39 -27 65t-68 26q-38 0 -73.5 -23t-65.5 -67q41 -50 73.5 -70.5t69.5 -20.5z
" />
    <glyph glyph-name="integral" unicode="&#x222b;" horiz-adv-x="375" 
d="M116 -208q-46 0 -100 18l17 90q24 -4 35 -5.5t22 -1.5q26 0 40.5 11.5t14.5 39.5l-51 670q-1 5 -1 10.5v10.5q0 69 33.5 104t96.5 35q31 0 63 -4.5t74 -14.5l-17 -90q-25 6 -35.5 7.5t-21.5 1.5q-25 0 -39 -11.5t-14 -37.5l51 -692q0 -2 0.5 -6.5t0.5 -6.5
q0 -65 -45 -96.5t-124 -31.5z" />
    <glyph glyph-name="iogonek" unicode="&#x12f;" horiz-adv-x="306" 
d="M65 540h176v-550q-70 -30 -98 -50.5t-28 -43.5q0 -25 34 -25q14 0 41 4.5t51 10.5v-94q-38 -12 -90 -12q-72 0 -110.5 23t-38.5 68q0 35 24.5 69t70.5 60h-32v540zM153 616q-51 0 -73 22t-22 71q0 48 22 70.5t73 22.5q53 0 74.5 -23t21.5 -70t-21.5 -70t-74.5 -23z" />
    <glyph glyph-name="itilde" unicode="&#x129;" horiz-adv-x="307" 
d="M-77 669q32 61 73 91t80 30q25 0 50 -6t49 -13t48.5 -13t49.5 -6q20 0 42.5 7.5t51.5 29.5l23 -34q-35 -60 -76.5 -91t-79.5 -31q-25 0 -49.5 6t-49 13t-49 13t-48.5 6q-23 0 -45 -7t-49 -29zM66 540h176v-540h-176v540z" />
    <glyph glyph-name="jcircumflex" unicode="&#x135;" horiz-adv-x="303" 
d="M-49 730l195 79l199 -79v-118l-197 78l-197 -78v118zM19 -199q13 43 22 80.5t15 79t8.5 91.5t2.5 116v58t-0.5 92t-1 110t-1.5 112h175v-465q-8 -85 -30.5 -156.5t-59.5 -138.5z" />
    <glyph glyph-name="kcommaaccent" unicode="&#x137;" horiz-adv-x="650" 
d="M248 -70h181l-90 -150h-133zM65 808h175v-477h65l143 209h194l-189 -253l-25 -7v-4l25 -7l206 -269h-193l-163 225h-63v-225h-175v808z" />
    <glyph glyph-name="kgreenlandic" unicode="&#x138;" horiz-adv-x="654" 
d="M66 540h175v-209h80l129 209h192l-175 -253l-25 -7v-4l26 -7l192 -269h-192l-149 225h-78v-225h-175v540z" />
    <glyph glyph-name="lacute" unicode="&#x13a;" horiz-adv-x="307" 
d="M85 841l65 188h179l-119 -197zM66 808h175v-808h-175v808z" />
    <glyph glyph-name="lcaron" unicode="&#x13e;" horiz-adv-x="308" 
d="M297 808h138l-44 -228h-94v228zM66 808h175v-808h-175v808z" />
    <glyph glyph-name="lcommaaccent" unicode="&#x13c;" horiz-adv-x="307" 
d="M70 -70h181l-90 -150h-133zM66 808h175v-808h-175v808z" />
    <glyph glyph-name="ldot" unicode="&#x140;" horiz-adv-x="480" 
d="M66 808h175v-808h-175v808zM394 276q-52 0 -74.5 22t-22.5 72t22.5 72t74.5 22t74 -23t22 -71t-22 -71t-74 -23z" />
    <glyph glyph-name="less" unicode="&#x3c;" horiz-adv-x="552" 
d="M36 313v103l450 195v-117l-302 -130l302 -130v-116z" />
    <glyph glyph-name="less.tab" 
d="M53 313v103l498 195v-117l-335 -130l334 -130v-116z" />
    <glyph glyph-name="lessequal" unicode="&#x2264;" horiz-adv-x="578" 
d="M60 471l450 159v-117l-305 -94l304 -94v-117l-449 159v104zM59 170h451v-106h-451v106z" />
    <glyph glyph-name="lira" unicode="&#x20a4;" horiz-adv-x="751" 
d="M52 488h165v22q0 120 74.5 179t228.5 59q49 0 91.5 -5.5t95.5 -20.5l-6 -140q-92 19 -162 19q-79 0 -111 -21t-32 -70v-22h223l-14 -89h-209v-62h205l-14 -89h-191v-97h297v-151h-641v152h165v96h-165v89h165v62h-165v89z" />
    <glyph glyph-name="logicalnot" unicode="&#xac;" horiz-adv-x="903" 
d="M52 441h782v-344h-171v203h-611v141z" />
    <glyph glyph-name="lozenge" unicode="&#x25ca;" horiz-adv-x="658" 
d="M32 363v16l185 361h224l184 -361v-16l-184 -363h-224zM454 371l-125 261l-127 -261l127 -263z" />
    <glyph glyph-name="lslash" unicode="&#x142;" horiz-adv-x="417" 
d="M25 376l97 45v387h175v-307l105 49v-128l-105 -49v-373h-175v292l-97 -45v129z" />
    <glyph glyph-name="m" unicode="m" horiz-adv-x="1017" 
d="M66 540h146l9 -63h9q56 33 108 53t97 20q52 0 89 -19.5t56 -54.5h5q57 35 109.5 54.5t97.5 19.5q76 0 119.5 -39.5t43.5 -112.5v-398h-175v336q0 41 -16 58.5t-50 17.5q-21 0 -53.5 -9.5t-62.5 -23.5v-379h-175v336q0 41 -15.5 58.5t-50.5 17.5q-21 0 -54 -10t-62 -24
v-378h-175v540z" />
    <glyph glyph-name="minus" unicode="&#x2212;" horiz-adv-x="569" 
d="M63 423h443v-106h-443v106z" />
    <glyph glyph-name="minus.tab" 
d="M87 423h459v-106h-459v106z" />
    <glyph glyph-name="mu" unicode="&#xb5;" horiz-adv-x="741" 
d="M80 540h175v-355q0 -68 62 -68q35 0 77 11.5t87 27.5v384h175v-540h-147l-9 65h-4q-39 -19 -68.5 -32.5t-56.5 -22.5t-54.5 -14t-61.5 -6v-210h-175v760z" />
    <glyph glyph-name="multiply" unicode="&#xd7;" horiz-adv-x="508" 
d="M44 236l134 134l-134 135l75 75l134 -135l134 135l76 -75l-135 -135l135 -134l-75 -75l-135 134l-134 -134z" />
    <glyph glyph-name="multiply.tab" 
d="M76 236l156 134l-156 135l80 75l160 -138l161 138l81 -75l-157 -135l157 -134l-81 -75l-160 137l-161 -137z" />
    <glyph glyph-name="n" unicode="n" horiz-adv-x="703" 
d="M66 540h146l9 -63h9q80 37 140 55t108 18q76 0 119.5 -39.5t43.5 -112.5v-398h-175v339q0 42 -15.5 59.5t-50.5 17.5q-31 0 -73.5 -10.5t-85.5 -27.5v-378h-175v540z" />
    <glyph glyph-name="nacute" unicode="&#x144;" horiz-adv-x="703" 
d="M293 617l65 188h179l-119 -197zM66 540h146l9 -63h9q80 37 140 55t108 18q76 0 119.5 -39.5t43.5 -112.5v-398h-175v339q0 42 -15.5 59.5t-50.5 17.5q-31 0 -73.5 -10.5t-85.5 -27.5v-378h-175v540z" />
    <glyph glyph-name="napostrophe" unicode="&#x149;" horiz-adv-x="810" 
d="M163 808v-4l-45 -224h-95v228h140zM174 540h146l9 -63h9q80 37 140 55t108 18q76 0 119.5 -39.5t43.5 -112.5v-398h-175v339q0 42 -15.5 59.5t-50.5 17.5q-31 0 -73.5 -10.5t-85.5 -27.5v-378h-175v540z" />
    <glyph glyph-name="ncaron" unicode="&#x148;" horiz-adv-x="703" 
d="M130 802l212 -79l211 79v-119l-213 -78l-210 78v119zM66 540h146l9 -63h9q80 37 140 55t108 18q76 0 119.5 -39.5t43.5 -112.5v-398h-175v339q0 42 -15.5 59.5t-50.5 17.5q-31 0 -73.5 -10.5t-85.5 -27.5v-378h-175v540z" />
    <glyph glyph-name="ncommaaccent" unicode="&#x146;" horiz-adv-x="703" 
d="M268 -70h181l-90 -150h-133zM66 540h146l9 -63h9q80 37 140 55t108 18q76 0 119.5 -39.5t43.5 -112.5v-398h-175v339q0 42 -15.5 59.5t-50.5 17.5q-31 0 -73.5 -10.5t-85.5 -27.5v-378h-175v540z" />
    <glyph glyph-name="ndotaccent" unicode="&#x1e45;" horiz-adv-x="703" 
d="M353 616q-51 0 -74 22.5t-23 72.5q0 49 23 71.5t74 22.5q53 0 75 -23t22 -71t-22 -71.5t-75 -23.5zM66 540h146l9 -63h9q80 37 140 55t108 18q76 0 119.5 -39.5t43.5 -112.5v-398h-175v339q0 42 -15.5 59.5t-50.5 17.5q-31 0 -73.5 -10.5t-85.5 -27.5v-378h-175v540z" />
    <glyph glyph-name="nine" unicode="9" horiz-adv-x="715" 
d="M346 750q157 0 240 -86t83 -257q0 -206 -105.5 -311.5t-313.5 -105.5q-74 0 -168 18l21 125q44 -8 77 -12t64 -4q112 0 170 50.5t72 159.5q-35 -26 -82.5 -41t-101.5 -15q-62 0 -112 15.5t-85 44.5t-54 70t-19 92q0 59 22 106.5t62.5 81t98.5 51.5t131 18zM346 380
q40 0 80 15t64 38q-4 101 -38.5 147.5t-105.5 46.5q-64 0 -97 -33.5t-33 -96.5q0 -117 130 -117z" />
    <glyph glyph-name="six" unicode="6" horiz-adv-x="715" 
d="M369 -10q-157 0 -240 86t-83 257q0 206 105.5 311.5t313.5 105.5q38 0 79 -4.5t89 -13.5l-21 -125q-44 8 -77 12t-64 4q-112 0 -170 -50.5t-72 -159.5q35 26 82.5 41t101.5 15q62 0 112 -15.5t85 -44.5t54 -70t19 -92q0 -59 -22 -106.5t-62.5 -81t-98.5 -51.5t-131 -18z
M369 360q-40 0 -80 -15t-64 -38q4 -101 38.5 -147.5t105.5 -46.5q64 0 97 33.5t33 96.5q0 117 -130 117z" />
    <glyph glyph-name="nine.denominator" horiz-adv-x="572" 
d="M203 -6q-29 0 -63 3t-75 11l22 111q23 -3 39.5 -5t29 -3.5t22.5 -2t20 -0.5q84 0 129 31.5t61 97.5q-30 -22 -69.5 -33.5t-80.5 -11.5q-47 0 -85.5 12t-66 34t-42.5 53t-15 69q0 90 67 141.5t183 51.5q127 0 192.5 -64.5t65.5 -188.5q0 -152 -84.5 -229t-249.5 -77z
M279 293q28 0 57 8.5t52 22.5q-4 60 -30.5 88.5t-78.5 28.5q-48 0 -73.5 -20t-25.5 -58q0 -70 99 -70z" />
    <glyph glyph-name="nine.numerator" horiz-adv-x="572" 
d="M203 194q-29 0 -63 3t-75 11l22 111q23 -3 39.5 -5t29 -3.5t22.5 -2t20 -0.5q84 0 129 31.5t61 97.5q-30 -22 -69.5 -33.5t-80.5 -11.5q-47 0 -85.5 12t-66 34t-42.5 53t-15 69q0 90 67 141.5t183 51.5q127 0 192.5 -64.5t65.5 -188.5q0 -152 -84.5 -229t-249.5 -77z
M279 493q28 0 57 8.5t52 22.5q-4 60 -30.5 88.5t-78.5 28.5q-48 0 -73.5 -20t-25.5 -58q0 -70 99 -70z" />
    <glyph glyph-name="nine.osf" horiz-adv-x="697" 
d="M328 590q164 0 249 -86t85 -252q0 -184 -105.5 -277.5t-313.5 -93.5q-37 0 -78.5 4t-90.5 14l21 125q47 -8 79.5 -12t61.5 -4q117 0 176.5 47t70.5 148q-35 -28 -83.5 -44t-104.5 -16q-62 0 -112 14.5t-85.5 41t-54.5 64.5t-19 85q0 54 22 98.5t62 76.5t96 49.5t124 17.5
zM339 252q20 0 41 4t40.5 10.5t36 15.5t28.5 20q-7 87 -42.5 125.5t-104.5 38.5q-130 0 -130 -113q0 -101 131 -101z" />
    <glyph glyph-name="six.osf" horiz-adv-x="708" 
d="M376 -18q-164 0 -249 86t-85 252q0 184 105.5 277.5t313.5 93.5q37 0 78.5 -4t90.5 -14l-21 -125q-47 8 -79.5 12t-61.5 4q-117 0 -176.5 -47t-70.5 -148q35 28 83.5 44t104.5 16q62 0 112 -14.5t85.5 -41t54.5 -64.5t19 -85q0 -54 -22 -98.5t-62 -76.5t-96 -49.5
t-124 -17.5zM365 320q-20 0 -41 -4t-40.5 -10.5t-36 -16t-28.5 -19.5q7 -87 42.5 -125.5t104.5 -38.5q130 0 130 113q0 101 -131 101z" />
    <glyph glyph-name="nine.tf" 
d="M306 750q146 0 223 -86t77 -257q0 -206 -98 -311.5t-291 -105.5q-70 0 -157 18l21 125q41 -8 71.5 -12t57.5 -4q100 0 152 50.5t64 156.5q-32 -26 -74 -39.5t-89 -13.5q-57 0 -103 15.5t-78.5 44.5t-50 70t-17.5 92q0 59 20.5 106.5t58 81t91.5 51.5t122 18zM306 380
q34 0 68 13.5t57 36.5q-3 103 -32.5 150t-92.5 47q-56 0 -84 -33.5t-28 -96.5q0 -117 112 -117z" />
    <glyph glyph-name="nine.tosf" 
d="M297 590q152 0 231 -86t79 -252q0 -184 -97 -277.5t-292 -93.5q-34 0 -73 4t-84 14l21 125q43 -8 73 -12t56 -4q103 0 156.5 47t64.5 145q-32 -27 -75.5 -42t-92.5 -15q-57 0 -103 14.5t-78.5 41t-50 64.5t-17.5 85q0 54 20.5 98.5t57.5 76.5t89 49.5t115 17.5zM307 252
q35 0 69 13t57 33q-4 89 -35 128.5t-91 39.5q-112 0 -112 -113q0 -101 112 -101z" />
    <glyph glyph-name="nineinferior" unicode="&#x2089;" horiz-adv-x="572" 
d="M203 -106q-29 0 -63 3t-75 10l22 112q23 -3 39.5 -5t29 -3.5t22.5 -2t20 -0.5q84 0 129 31.5t61 97.5q-30 -22 -69.5 -33.5t-80.5 -11.5q-47 0 -85.5 12t-66 34t-42.5 53t-15 69q0 90 67 141.5t183 51.5q127 0 192.5 -64.5t65.5 -188.5q0 -152 -84.5 -229t-249.5 -77z
M279 193q29 0 58 8.5t51 22.5q-4 60 -30.5 88.5t-78.5 28.5q-48 0 -73.5 -20t-25.5 -58q0 -70 99 -70z" />
    <glyph glyph-name="ninesuperior" unicode="&#x2079;" horiz-adv-x="572" 
d="M203 294q-29 0 -63 3t-75 11l22 111q23 -3 39.5 -5t29 -3.5t22.5 -2t20 -0.5q84 0 129 31.5t61 97.5q-30 -22 -69.5 -33.5t-80.5 -11.5q-47 0 -85.5 12t-66 34t-42.5 53t-15 69q0 90 67 141.5t183 51.5q127 0 192.5 -64.5t65.5 -188.5q0 -152 -84.5 -229t-249.5 -77z
M279 593q29 0 58 8.5t51 22.5q-4 60 -30.5 88.5t-78.5 28.5q-48 0 -73.5 -20t-25.5 -58q0 -70 99 -70z" />
    <glyph glyph-name="notequal" unicode="&#x2260;" horiz-adv-x="536" 
d="M57 515h195l27 98l103 -26l-20 -72h116v-109h-145l-30 -111h175v-109h-204l-30 -112l-102 26l23 86h-108v109h137l29 111h-166v109z" />
    <glyph glyph-name="ntilde" unicode="&#xf1;" horiz-adv-x="703" 
d="M66 540h146l9 -63h9q80 37 140 55t108 18q76 0 119.5 -39.5t43.5 -112.5v-398h-175v339q0 42 -15.5 59.5t-50.5 17.5q-31 0 -73.5 -10.5t-85.5 -27.5v-378h-175v540zM109 669q35 61 79.5 91t85.5 30q28 0 54.5 -6t52.5 -13t52 -13t53 -6q24 0 48 7.5t55 29.5l23 -34
q-36 -60 -81 -91t-86 -31q-27 0 -53.5 6t-53 13t-52.5 13t-53 6q-25 0 -48 -7t-52 -29z" />
    <glyph glyph-name="numbersign" unicode="#" horiz-adv-x="686" 
d="M393 186h-126l-15 -186h-117l15 186h-104v108h113l12 147h-125v111h134l15 188h117l-15 -188h126l16 188h117l-15 -188h98v-111h-107l-12 -147h119v-108h-128l-15 -186h-118zM276 294h126l12 147h-126z" />
    <glyph glyph-name="numbersign.tab" 
d="M366 186h-123l-15 -186h-117l15 186h-102v108h110l12 147h-122v111h131l15 188h116l-14 -188h124l15 188h116l-15 -188h97v-111h-106l-12 -147h117v-108h-125l-15 -186h-117zM251 294h124l12 147h-124z" />
    <glyph glyph-name="o" unicode="o" horiz-adv-x="688" 
d="M344 -11q-149 0 -228 72t-79 209t79 208.5t228 71.5q150 0 228.5 -71.5t78.5 -208.5t-78.5 -209t-228.5 -72zM344 123q36 0 60.5 7.5t40.5 25t23 45.5t7 69t-7 69t-23 45t-40.5 24.5t-60.5 7.5q-35 0 -60 -7.5t-41 -25t-23 -45.5t-7 -68q0 -82 30 -114.5t101 -32.5z" />
    <glyph glyph-name="oacute" unicode="&#xf3;" horiz-adv-x="688" 
d="M270 617l65 188h179l-119 -197zM344 -11q-149 0 -228 72t-79 209t79 208.5t228 71.5q150 0 228.5 -71.5t78.5 -208.5t-78.5 -209t-228.5 -72zM344 123q36 0 60.5 7.5t40.5 25t23 45.5t7 69t-7 69t-23 45t-40.5 24.5t-60.5 7.5q-35 0 -60 -7.5t-41 -25t-23 -45.5t-7 -68
q0 -82 30 -114.5t101 -32.5z" />
    <glyph glyph-name="obreve" unicode="&#x14f;" horiz-adv-x="688" 
d="M344 -11q-149 0 -228 72t-79 209t79 208.5t228 71.5q150 0 228.5 -71.5t78.5 -208.5t-78.5 -209t-228.5 -72zM344 123q36 0 60.5 7.5t40.5 25t23 45.5t7 69t-7 69t-23 45t-40.5 24.5t-60.5 7.5q-35 0 -60 -7.5t-41 -25t-23 -45.5t-7 -68q0 -82 30 -114.5t101 -32.5z
M344 614q-66 0 -110.5 13.5t-71.5 37.5t-38.5 57t-11.5 72h117q0 -49 25 -72.5t90 -23.5q64 0 89 23.5t25 72.5h116q0 -39 -11.5 -72t-38.5 -57t-71 -37.5t-109 -13.5z" />
    <glyph glyph-name="ocircumflex" unicode="&#xf4;" horiz-adv-x="688" 
d="M128 728l209 79l214 -79v-118l-211 79l-212 -79v118zM344 -11q-149 0 -228 72t-79 209t79 208.5t228 71.5q150 0 228.5 -71.5t78.5 -208.5t-78.5 -209t-228.5 -72zM344 123q36 0 60.5 7.5t40.5 25t23 45.5t7 69t-7 69t-23 45t-40.5 24.5t-60.5 7.5q-35 0 -60 -7.5
t-41 -25t-23 -45.5t-7 -68q0 -82 30 -114.5t101 -32.5z" />
    <glyph glyph-name="odblgrave" unicode="&#x20d;" horiz-adv-x="688" 
d="M156 611l-120 197h178l65 -187zM386 611l-121 197h178l66 -187zM344 -11q-149 0 -228 72t-79 209t79 208.5t228 71.5q150 0 228.5 -71.5t78.5 -208.5t-78.5 -209t-228.5 -72zM344 123q36 0 60.5 7.5t40.5 25t23 45.5t7 69t-7 69t-23 45t-40.5 24.5t-60.5 7.5
q-35 0 -60 -7.5t-41 -25t-23 -45.5t-7 -68q0 -82 30 -114.5t101 -32.5z" />
    <glyph glyph-name="odieresis" unicode="&#xf6;" horiz-adv-x="688" 
d="M201 626q-46 0 -66.5 20t-20.5 65t20.5 64.5t66.5 19.5q47 0 67 -21t20 -63q0 -45 -20 -65t-67 -20zM482 626q-46 0 -66.5 20t-20.5 65t20.5 64.5t66.5 19.5q47 0 67 -21t20 -63q0 -45 -20 -65t-67 -20zM344 -11q-149 0 -228 72t-79 209t79 208.5t228 71.5
q150 0 228.5 -71.5t78.5 -208.5t-78.5 -209t-228.5 -72zM344 123q36 0 60.5 7.5t40.5 25t23 45.5t7 69t-7 69t-23 45t-40.5 24.5t-60.5 7.5q-35 0 -60 -7.5t-41 -25t-23 -45.5t-7 -68q0 -82 30 -114.5t101 -32.5z" />
    <glyph glyph-name="odotbelow" unicode="&#x1ecd;" horiz-adv-x="688" 
d="M348 -206q-40 0 -58 17.5t-18 55.5q0 39 18 56.5t58 17.5q42 0 59 -18t17 -56t-17 -55.5t-59 -17.5zM344 -11q-149 0 -228 72t-79 209t79 208.5t228 71.5q150 0 228.5 -71.5t78.5 -208.5t-78.5 -209t-228.5 -72zM344 123q36 0 60.5 7.5t40.5 25t23 45.5t7 69t-7 69
t-23 45t-40.5 24.5t-60.5 7.5q-35 0 -60 -7.5t-41 -25t-23 -45.5t-7 -68q0 -82 30 -114.5t101 -32.5z" />
    <glyph glyph-name="oe" unicode="&#x153;" horiz-adv-x="1062" 
d="M770 -9q-73 0 -125 19.5t-82 56.5h-8q-32 -38 -85.5 -58t-125.5 -20q-149 0 -228 72t-79 209t79 208.5t228 71.5q72 0 126.5 -21t85.5 -59l9 1q30 38 82 58t124 20q125 0 188.5 -60t63.5 -175q0 -50 -10 -86h-363q4 -59 35.5 -82t101.5 -23q25 0 53.5 1.5t56.5 4.5
t54 7.5t46 9.5l5 -124q-52 -15 -112.5 -23t-119.5 -8zM344 123q36 0 60.5 7.5t40.5 25t23 45.5t7 69t-7 69t-23 45t-40.5 24.5t-60.5 7.5q-35 0 -60 -7.5t-41 -25t-23 -45.5t-7 -68q0 -82 30 -114.5t101 -32.5zM869 312q-2 63 -26 90t-80 27q-57 0 -84 -27t-31 -90h221z" />
    <glyph glyph-name="ograve" unicode="&#xf2;" horiz-adv-x="688" 
d="M344 -11q-149 0 -228 72t-79 209t79 208.5t228 71.5q150 0 228.5 -71.5t78.5 -208.5t-78.5 -209t-228.5 -72zM344 123q36 0 60.5 7.5t40.5 25t23 45.5t7 69t-7 69t-23 45t-40.5 24.5t-60.5 7.5q-35 0 -60 -7.5t-41 -25t-23 -45.5t-7 -68q0 -82 30 -114.5t101 -32.5z
M266 611l-120 197h183l64 -187z" />
    <glyph glyph-name="ohungarumlaut" unicode="&#x151;" horiz-adv-x="688" 
d="M162 621l65 187h178l-121 -197zM392 621l64 187h178l-120 -197zM344 -11q-149 0 -228 72t-79 209t79 208.5t228 71.5q150 0 228.5 -71.5t78.5 -208.5t-78.5 -209t-228.5 -72zM344 123q36 0 60.5 7.5t40.5 25t23 45.5t7 69t-7 69t-23 45t-40.5 24.5t-60.5 7.5
q-35 0 -60 -7.5t-41 -25t-23 -45.5t-7 -68q0 -82 30 -114.5t101 -32.5z" />
    <glyph glyph-name="oinvertedbreve" unicode="&#x20f;" horiz-adv-x="688" 
d="M112 624q0 38 11.5 71t38.5 57t71.5 38t109.5 14t109.5 -13.5t71.5 -37.5t38.5 -57t11.5 -72h-117q0 48 -24.5 71.5t-89.5 23.5q-64 0 -89 -23.5t-25 -71.5h-117zM344 -11q-149 0 -228 72t-79 209t79 208.5t228 71.5q150 0 228.5 -71.5t78.5 -208.5t-78.5 -209
t-228.5 -72zM344 123q36 0 60.5 7.5t40.5 25t23 45.5t7 69t-7 69t-23 45t-40.5 24.5t-60.5 7.5q-35 0 -60 -7.5t-41 -25t-23 -45.5t-7 -68q0 -82 30 -114.5t101 -32.5z" />
    <glyph glyph-name="omacron" unicode="&#x14d;" horiz-adv-x="688" 
d="M134 762h420v-116h-420v116zM344 -11q-149 0 -228 72t-79 209t79 208.5t228 71.5q150 0 228.5 -71.5t78.5 -208.5t-78.5 -209t-228.5 -72zM344 123q36 0 60.5 7.5t40.5 25t23 45.5t7 69t-7 69t-23 45t-40.5 24.5t-60.5 7.5q-35 0 -60 -7.5t-41 -25t-23 -45.5t-7 -68
q0 -82 30 -114.5t101 -32.5z" />
    <glyph glyph-name="one" unicode="1" horiz-adv-x="494" 
d="M224 551h-4l-180 -52h-7l-19 108v4l253 129h135v-740h-178v551z" />
    <glyph glyph-name="one.denominator" horiz-adv-x="397" 
d="M179 395l-144 -36h-4l-18 79v16l205 92h107v-546h-146v395z" />
    <glyph glyph-name="one.numerator" horiz-adv-x="397" 
d="M179 595l-144 -36h-4l-18 79v16l205 92h107v-546h-146v395z" />
    <glyph glyph-name="one.osf" horiz-adv-x="482" 
d="M226 396h-4l-181 -52h-7l-18 108v4l253 129h135v-585h-178v396z" />
    <glyph glyph-name="one.tf" 
d="M311 551h-5l-219 -52h-9l-20 108v4l299 129h142v-740h-188v551z" />
    <glyph glyph-name="one.tosf" 
d="M318 396h-5l-219 -52h-9l-19 108v4l298 129h142v-585h-188v396z" />
    <glyph glyph-name="oneeighth" unicode="&#x215b;" horiz-adv-x="1243" 
d="M955 -5q-127 0 -191 37.5t-64 115.5q0 49 22 80.5t59 51.5q-32 20 -49.5 49.5t-17.5 69.5q0 75 64.5 114.5t176.5 39.5q105 0 167 -40t62 -114q0 -42 -16.5 -68t-44.5 -44q36 -20 57 -51t21 -77q0 -164 -246 -164zM955 97q97 0 97 66q0 27 -32 42.5t-93 30.5l-24 6
q-17 -12 -35.5 -30.5t-18.5 -45.5q0 -34 29 -51.5t77 -17.5zM986 319q7 4 15.5 11t16 16.5t12.5 21t5 25.5q0 28 -22.5 43t-57.5 15q-42 0 -66.5 -14t-24.5 -41q0 -32 27.5 -49t76.5 -25zM652 740h153l-373 -740h-153zM193 595l-144 -36h-4l-18 79v16l205 92h107v-546h-146
v395z" />
    <glyph glyph-name="onehalf" unicode="&#xbd;" horiz-adv-x="1238" 
d="M738 82q0 75 45.5 126t147.5 90q34 13 55.5 23t33.5 18.5t16 16.5t4 18q0 54 -107 54q-32 0 -70.5 -4.5t-94.5 -13.5l-13 121q66 11 114 16.5t90 5.5q116 0 172 -41t56 -126q0 -60 -40.5 -104t-125.5 -77q-50 -23 -69 -38t-19 -33v-13h255v-120h-450v81zM652 740h153
l-373 -740h-153zM193 595l-144 -36h-4l-18 79v16l205 92h107v-546h-146v395z" />
    <glyph glyph-name="two.denominator" horiz-adv-x="522" 
d="M32 82q0 75 45.5 126t147.5 90q34 13 55.5 23t33.5 18.5t16 16.5t4 18q0 54 -107 54q-32 0 -70.5 -4.5t-94.5 -13.5l-13 121q66 11 114 16.5t90 5.5q116 0 172 -41t56 -126q0 -60 -40.5 -104t-125.5 -77q-50 -23 -69 -38t-19 -33v-13h255v-120h-450v81z" />
    <glyph glyph-name="oneinferior" unicode="&#x2081;" horiz-adv-x="397" 
d="M179 295l-144 -36h-4l-18 79v16l205 92h107v-546h-146v395z" />
    <glyph glyph-name="onequarter" unicode="&#xbc;" horiz-adv-x="1221" 
d="M949 101h-266l-17 93l201 354l15 4l126 -10l13 -29l-201 -299h136l35 139h104v-139h95v-113h-95v-101h-146v101zM652 740h153l-373 -740h-153zM193 595l-144 -36h-4l-18 79v16l205 92h107v-546h-146v395z" />
    <glyph glyph-name="onesuperior" unicode="&#xb9;" horiz-adv-x="397" 
d="M179 695l-144 -36h-4l-18 79v16l205 92h107v-546h-146v395z" />
    <glyph glyph-name="onethird" unicode="&#x2153;" horiz-adv-x="1201" 
d="M652 740h153l-373 -740h-153zM193 595l-144 -36h-4l-18 79v16l205 92h107v-546h-146v395zM922 -9q-26 0 -53.5 1t-52.5 3t-45.5 4t-32.5 5v126h4q11 -2 29 -4.5t38 -4t39.5 -2.5t33.5 -1q38 0 63 3t40 10t21 18t6 26t-6.5 25t-22.5 16t-42.5 9t-65.5 3h-64v94h64
q68 0 95 12.5t27 41.5q0 28 -24.5 40.5t-89.5 12.5q-24 0 -63 -3.5t-78 -8.5h-4v123q15 3 36.5 5t45 4t46.5 3t40 1q242 0 242 -158q0 -79 -71 -113q38 -17 59 -49.5t21 -79.5q0 -79 -60 -120.5t-175 -41.5z" />
    <glyph glyph-name="three.denominator" horiz-adv-x="497" 
d="M226 -9q-26 0 -53.5 1t-52.5 3t-45.5 4t-32.5 5v126h4q11 -2 29 -4.5t38 -4t39.5 -2.5t33.5 -1q38 0 63 3t40 10t21 18t6 26t-6.5 25t-22.5 16t-42.5 9t-65.5 3h-64v94h64q68 0 95 12.5t27 41.5q0 28 -24.5 40.5t-89.5 12.5q-24 0 -63 -3.5t-78 -8.5h-4v123q15 3 36.5 5
t45 4t46.5 3t40 1q242 0 242 -158q0 -79 -71 -113q38 -17 59 -49.5t21 -79.5q0 -79 -60 -120.5t-175 -41.5z" />
    <glyph glyph-name="oogonek" unicode="&#x1eb;" horiz-adv-x="688" 
d="M348 -212q-72 0 -110.5 23t-38.5 68q0 30 18.5 60t53.5 55q-115 17 -174.5 87t-59.5 189q0 137 79 208.5t228 71.5q150 0 228.5 -71.5t78.5 -208.5q0 -114 -54.5 -183.5t-160.5 -89.5q-69 -29 -96.5 -49.5t-27.5 -43.5q0 -25 34 -25q14 0 41 4.5t51 10.5v-94
q-38 -12 -90 -12zM344 123q36 0 60.5 7.5t40.5 25t23 45.5t7 69t-7 69t-23 45t-40.5 24.5t-60.5 7.5q-35 0 -60 -7.5t-41 -25t-23 -45.5t-7 -68q0 -82 30 -114.5t101 -32.5z" />
    <glyph glyph-name="ordfeminine" unicode="&#xaa;" horiz-adv-x="505" 
d="M171 348q-62 0 -98.5 33t-36.5 87t43 84.5t122 34.5l104 5q0 20 -3.5 32t-11.5 18t-23.5 8t-39.5 2q-29 0 -67 -2.5t-79 -7.5l-8 88q45 8 89 12t82 4q108 0 155 -29.5t47 -94.5v-270h-118l-7 47h-4q-33 -23 -70.5 -37t-75.5 -14zM226 444q35 0 79 18v55l-53 -4
q-44 -3 -60.5 -10.5t-16.5 -24.5q0 -34 51 -34z" />
    <glyph glyph-name="ordmasculine" unicode="&#xba;" horiz-adv-x="528" 
d="M264 445q26 0 43 4t26.5 15t13.5 30.5t4 51.5q0 31 -4 51t-13.5 31.5t-26.5 16t-43 4.5t-43 -4.5t-27 -16t-13.5 -31.5t-3.5 -51q0 -32 3.5 -51.5t13.5 -30.5t27 -15t43 -4zM264 345q-109 0 -168 49.5t-59 151.5t59 151.5t168 49.5t167.5 -49.5t58.5 -151.5t-58.5 -151.5
t-167.5 -49.5z" />
    <glyph glyph-name="oslash" unicode="&#xf8;" horiz-adv-x="695" 
d="M96 87q-54 70 -54 183q0 64 18.5 116t56 88.5t95 56t136.5 19.5q111 0 184 -41l31 31h127l-91 -88q56 -70 56 -182q0 -65 -18.5 -117t-57 -88.5t-96 -56t-135.5 -19.5q-113 0 -184 41l-31 -30h-127zM348 123q42 0 67.5 9t40 27t19 45.5t4.5 65.5q0 17 -1 32.5t-3 29.5
l-203 -197q27 -12 76 -12zM217 270q0 -18 1 -33t3 -29l202 196q-27 12 -75 12q-43 0 -68.5 -9t-39.5 -27t-18.5 -45.5t-4.5 -64.5z" />
    <glyph glyph-name="oslashacute" unicode="&#x1ff;" horiz-adv-x="695" 
d="M96 87q-54 70 -54 183q0 64 18.5 116t56 88.5t95 56t136.5 19.5q111 0 184 -41l31 31h127l-91 -88q56 -70 56 -182q0 -65 -18.5 -117t-57 -88.5t-96 -56t-135.5 -19.5q-113 0 -184 41l-31 -30h-127zM348 123q42 0 67.5 9t40 27t19 45.5t4.5 65.5q0 17 -1 32.5t-3 29.5
l-203 -197q27 -12 76 -12zM217 270q0 -18 1 -33t3 -29l202 196q-27 12 -75 12q-43 0 -68.5 -9t-39.5 -27t-18.5 -45.5t-4.5 -64.5zM280 617l65 188h179l-119 -197z" />
    <glyph glyph-name="otilde" unicode="&#xf5;" horiz-adv-x="688" 
d="M344 -11q-149 0 -228 72t-79 209t79 208.5t228 71.5q150 0 228.5 -71.5t78.5 -208.5t-78.5 -209t-228.5 -72zM344 123q36 0 60.5 7.5t40.5 25t23 45.5t7 69t-7 69t-23 45t-40.5 24.5t-60.5 7.5q-35 0 -60 -7.5t-41 -25t-23 -45.5t-7 -68q0 -82 30 -114.5t101 -32.5z
M95 669q35 61 79.5 91t85.5 30q28 0 54.5 -6t52.5 -13t52 -13t53 -6q24 0 48 7.5t55 29.5l23 -34q-36 -60 -81 -91t-86 -31q-27 0 -53.5 6t-53 13t-52.5 13t-53 6q-25 0 -48 -7t-52 -29z" />
    <glyph glyph-name="p" unicode="p" horiz-adv-x="702" 
d="M66 540h151l15 -71h8q28 42 72 61.5t104 19.5q122 0 184.5 -66.5t62.5 -203.5q0 -72 -22.5 -126.5t-64 -91t-100 -55t-129.5 -18.5q-29 0 -56 2t-50 4v-215h-175v760zM352 113q38 0 64 7t42 25t23 48t7 76q0 43 -6 72t-20.5 46.5t-37.5 25t-57 7.5q-60 0 -93 -25t-33 -75
v-198q22 -4 50.5 -6.5t60.5 -2.5z" />
    <glyph glyph-name="paragraph" unicode="&#xb6;" horiz-adv-x="707" 
d="M456 0h-76v266q-27 -1 -49 -1h-46q-58 0 -104.5 12.5t-79.5 40.5t-50.5 74t-17.5 113t17.5 113t50.5 74t79.5 40.5t105.5 12.5q38 0 81.5 -2.5t88.5 -7.5v-735zM612 0h-101v735h101v-735z" />
    <glyph glyph-name="paragraph.tab" 
d="M414 0h-74v266q-27 -1 -48 -1h-44q-56 0 -100 12.5t-75.5 40.5t-48 74t-16.5 113t16.5 113t48 74t75.5 40.5t100 12.5q37 0 80 -2.5t86 -7.5v-735zM565 0h-99v735h99v-735z" />
    <glyph glyph-name="parenleft" unicode="(" horiz-adv-x="353" 
d="M192 -160q-77 112 -116 244t-39 270q0 139 39 270.5t116 243.5h153v-4q-77 -112 -122.5 -242.5t-45.5 -267.5q0 -138 45.5 -268t122.5 -242v-4h-153v0z" />
    <glyph glyph-name="parenleft.sc" horiz-adv-x="351" 
d="M181 -125q-68 88 -102 191t-34 210q0 108 34 210.5t102 190.5h147v-3q-69 -88 -109.5 -190t-40.5 -208t40.5 -208t109.5 -190v-3h-147v0z" />
    <glyph glyph-name="parenright" unicode=")" horiz-adv-x="352" 
d="M7 -160v4q78 112 123 242t45 268q0 137 -45 267.5t-123 242.5v4h153q77 -112 116 -243.5t39 -270.5q0 -138 -39 -270t-116 -244h-153z" />
    <glyph glyph-name="parenright.sc" horiz-adv-x="350" 
d="M23 -125v3q69 88 109.5 190t40.5 208t-40.5 208t-109.5 190v3h145q69 -88 103 -190.5t34 -210.5q0 -107 -34 -210t-103 -191h-145z" />
    <glyph glyph-name="partialdiff" unicode="&#x2202;" horiz-adv-x="615" 
d="M305 -4q-66 0 -115.5 20.5t-83 56.5t-50.5 85.5t-17 107.5q0 51 16.5 95t46.5 76t73 50t96 18q36 0 68 -14t60 -37q-10 96 -41 139t-87 43q-33 0 -75 -13t-75 -33l-37 92q18 16 41.5 29t49.5 22t53.5 14t54.5 5q136 0 208.5 -106.5t72.5 -313.5q0 -80 -18 -142
t-52 -105.5t-81.5 -66t-107.5 -22.5zM302 125q25 0 44.5 9.5t32 32t19 59t6.5 90.5v39q-20 18 -43.5 28.5t-50.5 10.5q-46 0 -78.5 -34t-32.5 -94q0 -65 27 -103t76 -38z" />
    <glyph glyph-name="percent" unicode="%" horiz-adv-x="1157" 
d="M259 278q-108 0 -166.5 58.5t-58.5 177.5t58.5 178t166.5 59t166 -59t58 -178t-58 -177.5t-166 -58.5zM259 385q51 0 75 28t24 101t-24 101.5t-75 28.5q-53 0 -76.5 -28.5t-23.5 -101.5t23.5 -101t76.5 -28zM899 -10q-108 0 -166.5 58.5t-58.5 177.5t58.5 178t166.5 59
q107 0 165.5 -59t58.5 -178t-58.5 -177.5t-165.5 -58.5zM899 97q51 0 75 28t24 101t-24 101.5t-75 28.5q-53 0 -76.5 -28.5t-23.5 -101.5t23.5 -101t76.5 -28zM688 740h152l-373 -740h-152z" />
    <glyph glyph-name="percent.tab" 
d="M65 291q-78 0 -121.5 55.5t-43.5 167.5t43.5 167.5t121.5 55.5q80 0 123.5 -55.5t43.5 -167.5t-43.5 -167.5t-123.5 -55.5zM65 385q35 0 50.5 28t15.5 101t-15.5 101.5t-50.5 28.5t-50 -28.5t-15 -101.5t15 -101t50 -28zM568 4q-79 0 -122.5 55t-43.5 167t43.5 167.5
t122.5 55.5t122.5 -55.5t43.5 -167.5t-43.5 -167t-122.5 -55zM568 97q34 0 50 28t16 101t-16 101.5t-50 28.5q-35 0 -50 -28.5t-15 -101.5t15 -101t50 -28zM388 740h130l-274 -740h-130z" />
    <glyph glyph-name="period.tab" horiz-adv-x="317" 
d="M157 -8q-45 0 -72 22.5t-27 69.5q0 48 27 70t72 22t73 -22t28 -70q0 -47 -28 -69.5t-73 -22.5z" />
    <glyph glyph-name="periodcentered.tab" horiz-adv-x="317" 
d="M158 276q-51 0 -74 22t-23 72t23 72t74 22q52 0 74.5 -23t22.5 -71t-22.5 -71t-74.5 -23z" />
    <glyph glyph-name="perthousand" unicode="&#x2030;" horiz-adv-x="1636" 
d="M259 278q-108 0 -166.5 58.5t-58.5 177.5t58.5 178t166.5 59t166 -59t58 -178t-58 -177.5t-166 -58.5zM259 385q51 0 75 28t24 101t-24 101.5t-75 28.5q-53 0 -76.5 -28.5t-23.5 -101.5t23.5 -101t76.5 -28zM899 -10q-108 0 -166.5 58.5t-58.5 177.5t58.5 178t166.5 59
q107 0 165.5 -59t58.5 -178t-58.5 -177.5t-165.5 -58.5zM899 97q51 0 75 28t24 101t-24 101.5t-75 28.5q-53 0 -76.5 -28.5t-23.5 -101.5t23.5 -101t76.5 -28zM1378 -10q-111 0 -168 60t-57 176t57.5 176.5t167.5 60.5q111 0 167.5 -60.5t56.5 -176.5t-56.5 -176t-167.5 -60
zM1378 97q54 0 76.5 30t22.5 99q0 70 -22.5 100t-76.5 30t-76.5 -29.5t-22.5 -100.5q0 -70 22.5 -99.5t76.5 -29.5zM688 740h152l-373 -740h-152z" />
    <glyph glyph-name="pi" unicode="&#x3c0;" horiz-adv-x="883" 
d="M220 406h-22q-39 0 -58.5 -13.5t-25.5 -45.5l-110 36q6 78 52.5 118t133.5 40l600 -1l65 -47v-87h-156v-209q0 -41 17 -58t56 -17q11 0 24 2.5t25 7.5v-131q-17 -6 -49 -9.5t-61 -3.5q-92 0 -139.5 43.5t-47.5 127.5v247h-130v-522h-174v522z" />
    <glyph glyph-name="plus" unicode="+" horiz-adv-x="517" 
d="M37 423h168v161h106v-161h169v-106h-169v-161h-106v161h-168v106z" />
    <glyph glyph-name="plus.tab" 
d="M61 423h199v161h114v-161h199v-106h-199v-161h-114v161h-199v106z" />
    <glyph glyph-name="plusminus" unicode="&#xb1;" horiz-adv-x="550" 
d="M60 479h161v160h106v-160h162v-106h-162v-154h-106v154h-161v106zM61 162h429v-106h-429v106z" />
    <glyph glyph-name="plusminus.tab" 
d="M75 479h185v160h112v-160h186v-106h-186v-154h-112v154h-185v106zM75 162h484v-106h-484v106z" />
    <glyph glyph-name="product" unicode="&#x220f;" horiz-adv-x="821" 
d="M90 740h640v-856h-174v723h-291v-723h-175v856z" />
    <glyph glyph-name="q" unicode="q" horiz-adv-x="700" 
d="M469 72q-33 -43 -79 -62.5t-105 -19.5q-247 0 -247 270q0 71 22 125.5t63.5 91t100 55.5t130.5 19q40 0 80 -2.5t76.5 -6.5t68.5 -8t57 -8v-746h-167v292zM334 120q63 0 95 26.5t32 75.5v196q-54 9 -112 9q-39 0 -65 -7.5t-41.5 -25.5t-22 -48t-6.5 -75q0 -42 5.5 -71
t19.5 -47t37 -25.5t58 -7.5z" />
    <glyph glyph-name="question" unicode="?" horiz-adv-x="501" 
d="M155 236l-13 180q35 7 66 17t54.5 24t37 32t13.5 42q0 48 -33.5 65.5t-87.5 17.5q-40 0 -80.5 -5.5t-72.5 -12.5l-7 130q49 11 95 16.5t97 5.5q55 0 100.5 -12t77.5 -36.5t50 -61.5t18 -87q0 -45 -15 -79.5t-41 -60t-61.5 -42t-76.5 -24.5l-6 -109v-15h-115v15zM216 -7
q-40 0 -62 21t-22 60q0 38 22 59t62 21q41 0 63 -21t22 -59q0 -39 -22 -60t-63 -21z" />
    <glyph glyph-name="questiondown" unicode="&#xbf;" horiz-adv-x="496" 
d="M344 304l13 -180q-35 -7 -66.5 -17t-54.5 -24t-36.5 -32t-13.5 -42q0 -48 33.5 -65.5t87.5 -17.5q40 0 80.5 5.5t72.5 12.5l7 -130q-49 -11 -95 -16.5t-97 -5.5q-55 0 -100.5 12t-77.5 36.5t-50 61.5t-18 87q0 45 15 79.5t41 60t61.5 42t76.5 24.5l6 109v15h115v-15z
M283 547q40 0 62 -21t22 -60q0 -38 -22 -59t-62 -21q-41 0 -63 21t-22 59q0 39 22 60t63 21z" />
    <glyph glyph-name="quotedbl" unicode="&#x22;" horiz-adv-x="467" 
d="M199 808v-4l-45 -324h-95v328h140zM428 808v-4l-45 -324h-95v328h140z" />
    <glyph glyph-name="quotesingle" unicode="'" horiz-adv-x="237" 
d="M199 808v-4l-45 -324h-95v328h140z" />
    <glyph glyph-name="quotedbl.tab" horiz-adv-x="317" 
d="M109 808v-4l-51 -324h-98v328h149zM379 808v-4l-50 -324h-99v328h149z" />
    <glyph glyph-name="quotedblbase" unicode="&#x201e;" horiz-adv-x="512" 
d="M204 151q3 -14 5.5 -30.5t2.5 -35.5q0 -56 -21.5 -123.5t-62.5 -125.5l-100 2q19 36 29.5 90.5t10.5 107.5q0 32 -4 57.5t-16 54.5zM448 151q3 -14 5.5 -30.5t2.5 -35.5q0 -56 -21.5 -123.5t-62.5 -125.5l-100 2q19 36 29.5 90.5t10.5 107.5q0 32 -4 57.5t-16 54.5z" />
    <glyph glyph-name="quoteright" unicode="&#x2019;" horiz-adv-x="261" 
d="M215 809q3 -14 5.5 -30.5t2.5 -35.5q0 -56 -21.5 -123.5t-62.5 -125.5l-100 2q19 36 29.5 90.5t10.5 107.5q0 32 -4 57.5t-16 54.5z" />
    <glyph glyph-name="quotedblleft" unicode="&#x201c;" horiz-adv-x="507" 
d="M51 494q-2 13 -4.5 30t-2.5 35q0 28 5.5 60t16 64.5t26 64.5t36.5 61l100 -2q-19 -36 -30 -90t-11 -108q0 -32 4.5 -57.5t16.5 -54.5zM295 494q-2 13 -4.5 30t-2.5 35q0 28 5.5 60t16 64.5t26 64.5t36.5 61l100 -2q-19 -36 -30 -90t-11 -108q0 -32 4.5 -57.5t16.5 -54.5z
" />
    <glyph glyph-name="quoteleft" unicode="&#x2018;" horiz-adv-x="264" 
d="M51 494q-2 13 -4.5 30t-2.5 35q0 28 5.5 60t16 64.5t26 64.5t36.5 61l100 -2q-19 -36 -30 -90t-11 -108q0 -32 4.5 -57.5t16.5 -54.5l-157 -3v0z" />
    <glyph glyph-name="quotedblright" unicode="&#x201d;" horiz-adv-x="505" 
d="M215 809q3 -14 5.5 -30.5t2.5 -35.5q0 -56 -21.5 -123.5t-62.5 -125.5l-100 2q19 36 29.5 90.5t10.5 107.5q0 32 -4 57.5t-16 54.5zM459 809q3 -14 5.5 -30.5t2.5 -35.5q0 -56 -21.5 -123.5t-62.5 -125.5l-100 2q19 36 29.5 90.5t10.5 107.5q0 32 -4 57.5t-16 54.5z" />
    <glyph glyph-name="quotesinglbase" unicode="&#x201a;" horiz-adv-x="268" 
d="M204 151q3 -14 5.5 -30.5t2.5 -35.5q0 -56 -21.5 -123.5t-62.5 -125.5l-100 2q19 36 29.5 90.5t10.5 107.5q0 32 -4 57.5t-16 54.5z" />
    <glyph glyph-name="quotesingle.tab" horiz-adv-x="317" 
d="M243 808v-4l-49 -324h-97v328h146z" />
    <glyph glyph-name="r" unicode="r" horiz-adv-x="482" 
d="M66 540h146l9 -81h4q50 35 96 59t87 32h62v-142h-59q-48 -5 -92.5 -19.5t-77.5 -34.5v-354h-175v540z" />
    <glyph glyph-name="racute" unicode="&#x155;" horiz-adv-x="482" 
d="M193 617l65 188h179l-119 -197zM66 540h146l9 -81h4q50 35 96 59t87 32h62v-142h-59q-48 -5 -92.5 -19.5t-77.5 -34.5v-354h-175v540z" />
    <glyph glyph-name="radical" unicode="&#x221a;" horiz-adv-x="752" 
d="M146 377l-96 -42l-50 121l244 99l166 -420l175 720h163l-225 -855h-213z" />
    <glyph glyph-name="rcaron" unicode="&#x159;" horiz-adv-x="482" 
d="M51 802l212 -79l211 79v-119l-213 -78l-210 78v119zM66 540h146l9 -81h4q50 35 96 59t87 32h62v-142h-59q-48 -5 -92.5 -19.5t-77.5 -34.5v-354h-175v540z" />
    <glyph glyph-name="rcommaaccent" unicode="&#x157;" horiz-adv-x="482" 
d="M64 -70h181l-90 -150h-133zM66 540h146l9 -81h4q50 35 96 59t87 32h62v-142h-59q-48 -5 -92.5 -19.5t-77.5 -34.5v-354h-175v540z" />
    <glyph glyph-name="rdblgrave" unicode="&#x211;" horiz-adv-x="482" 
d="M84 611l-120 197h178l65 -187zM314 611l-121 197h178l66 -187zM66 540h146l9 -81h4q50 35 96 59t87 32h62v-142h-59q-48 -5 -92.5 -19.5t-77.5 -34.5v-354h-175v540z" />
    <glyph glyph-name="rdotbelow" unicode="&#x1e5b;" horiz-adv-x="482" 
d="M66 540h146l9 -81h4q50 35 96 59t87 32h62v-142h-59q-48 -5 -92.5 -19.5t-77.5 -34.5v-354h-175v540zM151 -206q-40 0 -58 17.5t-18 55.5q0 39 18 56.5t58 17.5q42 0 59 -18t17 -56t-17 -55.5t-59 -17.5z" />
    <glyph glyph-name="registered" unicode="&#xae;" horiz-adv-x="709" 
d="M354 142q-68 0 -124.5 22.5t-97 62.5t-62.5 96t-22 124q0 67 22 123.5t62.5 96.5t97 62.5t124.5 22.5q69 0 125.5 -22.5t97 -62.5t62.5 -96.5t22 -123.5q0 -68 -22 -124t-62.5 -96t-97 -62.5t-125.5 -22.5zM354 208q54 0 98 17t75 48.5t47.5 75.5t16.5 98t-16.5 98
t-47.5 75.5t-75 49t-98 17.5t-98 -17.5t-74.5 -49t-47 -75.5t-16.5 -98t16.5 -98t47 -75.5t74.5 -48.5t98 -17zM245 612q26 2 50 4t47 2q140 0 140 -103q0 -35 -15.5 -58.5t-45.5 -33.5l-1 -2l70 -126h-70l-58 109h-50v-109h-67v317zM343 457q39 0 54.5 13.5t15.5 42.5
q0 26 -14.5 40t-49.5 14h-7h-11t-11 -0.5t-8 -0.5v-109h31z" />
    <glyph glyph-name="rinvertedbreve" unicode="&#x213;" horiz-adv-x="482" 
d="M32 624q0 38 11.5 71t38.5 57t71.5 38t109.5 14t109.5 -13.5t71.5 -37.5t38.5 -57t11.5 -72h-117q0 48 -24.5 71.5t-89.5 23.5q-64 0 -89 -23.5t-25 -71.5h-117zM66 540h146l9 -81h4q50 35 96 59t87 32h62v-142h-59q-48 -5 -92.5 -19.5t-77.5 -34.5v-354h-175v540z" />
    <glyph glyph-name="s" unicode="s" horiz-adv-x="571" 
d="M277 -12q-48 0 -110 6t-126 17v120q69 -12 123 -19t104 -7q52 0 75.5 11.5t23.5 35.5q0 26 -24.5 37.5t-77.5 17.5q-35 4 -73.5 10.5t-70.5 23.5t-53 49.5t-21 88.5q0 81 67 127t184 46q23 0 45 -1t47.5 -3.5t55.5 -6.5t68 -10l-6 -129q-60 12 -111 19.5t-86 7.5
q-50 0 -72.5 -11.5t-22.5 -34.5q0 -28 30 -38t96 -18q93 -11 143 -48.5t50 -114.5q0 -87 -64.5 -131.5t-193.5 -44.5z" />
    <glyph glyph-name="sacute" unicode="&#x15b;" horiz-adv-x="571" 
d="M206 617l65 188h179l-119 -197zM277 -12q-48 0 -110 6t-126 17v120q69 -12 123 -19t104 -7q52 0 75.5 11.5t23.5 35.5q0 26 -24.5 37.5t-77.5 17.5q-35 4 -73.5 10.5t-70.5 23.5t-53 49.5t-21 88.5q0 81 67 127t184 46q23 0 45 -1t47.5 -3.5t55.5 -6.5t68 -10l-6 -129
q-60 12 -111 19.5t-86 7.5q-50 0 -72.5 -11.5t-22.5 -34.5q0 -28 30 -38t96 -18q93 -11 143 -48.5t50 -114.5q0 -87 -64.5 -131.5t-193.5 -44.5z" />
    <glyph glyph-name="scaron" unicode="&#x161;" horiz-adv-x="571" 
d="M73 802l212 -79l211 79v-119l-213 -78l-210 78v119zM277 -12q-48 0 -110 6t-126 17v120q69 -12 123 -19t104 -7q52 0 75.5 11.5t23.5 35.5q0 26 -24.5 37.5t-77.5 17.5q-35 4 -73.5 10.5t-70.5 23.5t-53 49.5t-21 88.5q0 81 67 127t184 46q23 0 45 -1t47.5 -3.5
t55.5 -6.5t68 -10l-6 -129q-60 12 -111 19.5t-86 7.5q-50 0 -72.5 -11.5t-22.5 -34.5q0 -28 30 -38t96 -18q93 -11 143 -48.5t50 -114.5q0 -87 -64.5 -131.5t-193.5 -44.5z" />
    <glyph glyph-name="schwa" unicode="&#x259;" horiz-adv-x="619" 
d="M289 549q292 0 292 -275q0 -140 -73.5 -211.5t-219.5 -71.5q-68 0 -115 15.5t-76.5 47.5t-43 81t-13.5 116q0 25 1.5 40t4.5 34h365q-3 27 -11 44.5t-24 27t-41 13.5t-62 4q-47 0 -96.5 -3.5t-111.5 -16.5l-5 124q50 14 109.5 22.5t119.5 8.5zM298 118q58 0 83 24t30 83
h-218q1 -61 23.5 -84t81.5 -23z" />
    <glyph glyph-name="scircumflex" unicode="&#x15d;" horiz-adv-x="571" 
d="M73 728l209 79l214 -79v-118l-211 79l-212 -79v118zM277 -12q-48 0 -110 6t-126 17v120q69 -12 123 -19t104 -7q52 0 75.5 11.5t23.5 35.5q0 26 -24.5 37.5t-77.5 17.5q-35 4 -73.5 10.5t-70.5 23.5t-53 49.5t-21 88.5q0 81 67 127t184 46q23 0 45 -1t47.5 -3.5
t55.5 -6.5t68 -10l-6 -129q-60 12 -111 19.5t-86 7.5q-50 0 -72.5 -11.5t-22.5 -34.5q0 -28 30 -38t96 -18q93 -11 143 -48.5t50 -114.5q0 -87 -64.5 -131.5t-193.5 -44.5z" />
    <glyph glyph-name="sdotbelow" unicode="&#x1e63;" horiz-adv-x="571" 
d="M277 -12q-48 0 -110 6t-126 17v120q69 -12 123 -19t104 -7q52 0 75.5 11.5t23.5 35.5q0 26 -24.5 37.5t-77.5 17.5q-35 4 -73.5 10.5t-70.5 23.5t-53 49.5t-21 88.5q0 81 67 127t184 46q23 0 45 -1t47.5 -3.5t55.5 -6.5t68 -10l-6 -129q-60 12 -111 19.5t-86 7.5
q-50 0 -72.5 -11.5t-22.5 -34.5q0 -28 30 -38t96 -18q93 -11 143 -48.5t50 -114.5q0 -87 -64.5 -131.5t-193.5 -44.5zM303 -206q-40 0 -58 17.5t-18 55.5q0 39 18 56.5t58 17.5q42 0 59 -18t17 -56t-17 -55.5t-59 -17.5z" />
    <glyph glyph-name="section" unicode="&#xa7;" horiz-adv-x="599" 
d="M290 -12q-48 0 -110 6t-126 17v118q69 -13 123 -19t104 -6q52 0 75.5 11.5t23.5 36.5q0 26 -25 37.5t-77 18.5q-35 4 -73.5 10.5t-70.5 23.5t-53 49t-21 88q0 32 10.5 58t30.5 47q-19 17 -30 41.5t-11 61.5q0 82 66.5 128t184.5 46q23 0 45 -1t47.5 -3.5t55.5 -6.5
t68 -10l-6 -128q-60 13 -111 20t-86 7q-50 0 -73 -11.5t-23 -35.5q0 -28 30.5 -38.5t95.5 -18.5q93 -11 143.5 -48.5t50.5 -114.5q0 -69 -42 -111q42 -35 42 -97q0 -87 -65 -131.5t-193 -44.5zM368 306q12 15 12 39q0 42 -20.5 58.5t-59.5 23.5q-4 1 -12 2.5t-17 3t-16.5 3
t-10.5 3.5q-16 -17 -16 -45q0 -37 23 -52t66 -24q3 -1 10.5 -2.5t15.5 -3t15 -3.5t10 -3z" />
    <glyph glyph-name="section.tab" 
d="M307 -12q-49 0 -112.5 6t-129.5 17v118q69 -13 125 -19t107 -6q55 0 80 11.5t25 36.5q0 26 -26.5 37.5t-80.5 18.5q-36 4 -75.5 10.5t-72.5 23.5t-54.5 49t-21.5 88q0 62 43 105q-20 17 -31.5 41.5t-11.5 61.5q0 82 68 128t189 46q24 0 46.5 -1t48.5 -3.5t56.5 -6.5
t69.5 -10l-5 -128q-62 13 -114.5 20t-88.5 7q-101 0 -101 -47q0 -28 32.5 -38.5t99.5 -18.5q47 -5 84 -17t62.5 -31.5t39 -47.5t13.5 -67q0 -69 -43 -111q43 -35 43 -97q0 -87 -66.5 -131.5t-197.5 -44.5zM388 306q14 16 14 39q0 42 -21.5 58.5t-63.5 23.5q-4 1 -12.5 2.5
t-18 3t-18 3t-11.5 3.5q-17 -19 -17 -45q0 -37 24.5 -52t69.5 -24q4 -1 11.5 -2.5t16 -3t16 -3.5t10.5 -3z" />
    <glyph glyph-name="semicolon" unicode=";" horiz-adv-x="317" 
d="M37 -145l43 318h177l-89 -328zM163 364q-44 0 -71 22.5t-27 69.5q0 48 27 70t71 22q45 0 72.5 -22t27.5 -70q0 -47 -27.5 -69.5t-72.5 -22.5z" />
    <glyph glyph-name="semicolon.tab" horiz-adv-x="317" 
d="M36 -145l46 318h174l-90 -328zM163 364q-44 0 -70.5 22.5t-26.5 69.5q0 48 26.5 70t70.5 22q45 0 72.5 -22t27.5 -70q0 -47 -27.5 -69.5t-72.5 -22.5z" />
    <glyph glyph-name="servicemark" unicode="&#x2120;" horiz-adv-x="1031" 
d="M223 311q-34 0 -79.5 4.5t-85.5 12.5v92q51 -11 89.5 -15.5t68.5 -4.5q38 0 55 8.5t17 25.5q0 22 -18 31.5t-53 15.5q-81 13 -117.5 44.5t-36.5 90.5q0 60 47.5 94.5t129.5 34.5q28 0 59.5 -4t82.5 -13v-92q-32 9 -67.5 14.5t-63.5 5.5q-34 0 -52.5 -9.5t-18.5 -27.5
t16.5 -30t56.5 -18q74 -11 113 -40t39 -88q0 -132 -182 -132zM462 740h142l108 -275l109 275h142v-420h-100v284l-107 -269h-86l-107 269v-284h-101v420z" />
    <glyph glyph-name="seven" unicode="7" horiz-adv-x="586" 
d="M257 -23l-152 23v18l270 571h-346l-9 137l15 14h513l27 -93v-15l-276 -632z" />
    <glyph glyph-name="seven.denominator" horiz-adv-x="450" 
d="M191 -17l-95 14l-12 30l202 397h-264v97l18 19h379l19 -62v-25l-213 -454z" />
    <glyph glyph-name="seven.numerator" horiz-adv-x="450" 
d="M191 183l-95 14l-12 30l202 397h-264v97l18 19h379l19 -62v-25l-213 -454z" />
    <glyph glyph-name="seven.osf" horiz-adv-x="574" 
d="M251 -179l-153 23v18l270 571h-346l-8 137l14 14h513l27 -93v-15l-276 -632z" />
    <glyph glyph-name="seven.tf" 
d="M276 -23l-156 23v18l290 571h-373l-8 137l14 14h543l27 -93v-15l-295 -632z" />
    <glyph glyph-name="seven.tosf" 
d="M276 -179l-156 23v18l290 571h-373l-8 137l14 14h543l27 -93v-15l-295 -632z" />
    <glyph glyph-name="seveneighths" unicode="&#x215e;" horiz-adv-x="1217" 
d="M625 740h153l-373 -740h-153zM933 -5q-127 0 -191 37.5t-64 115.5q0 49 22 80.5t59 51.5q-32 20 -49.5 49.5t-17.5 69.5q0 75 64.5 114.5t176.5 39.5q105 0 167 -40t62 -114q0 -42 -16.5 -68t-44.5 -44q36 -20 57 -51t21 -77q0 -164 -246 -164zM933 97q97 0 97 66
q0 27 -32 42.5t-93 30.5l-24 6q-17 -12 -35.5 -30.5t-18.5 -45.5q0 -34 29 -51.5t77 -17.5zM964 319q7 4 15.5 11t16 16.5t12.5 21t5 25.5q0 28 -22.5 43t-57.5 15q-42 0 -66.5 -14t-24.5 -41q0 -32 27.5 -49t76.5 -25zM200 183l-95 14l-12 30l202 397h-264v97l18 19h379
l19 -62v-25l-213 -454z" />
    <glyph glyph-name="seveninferior" unicode="&#x2087;" horiz-adv-x="450" 
d="M191 -117l-95 14l-12 30l202 397h-264v97l18 19h379l19 -62v-25l-213 -454z" />
    <glyph glyph-name="sevensuperior" unicode="&#x2077;" horiz-adv-x="450" 
d="M191 283l-95 14l-12 30l202 397h-264v97l18 19h379l19 -62v-25l-213 -454z" />
    <glyph glyph-name="six.denominator" horiz-adv-x="572" 
d="M293 -6q-125 0 -191.5 63.5t-66.5 189.5q0 151 84.5 228.5t249.5 77.5q30 0 64 -3t74 -11l-22 -111q-35 5 -61 8t-50 3q-84 0 -129 -31.5t-61 -97.5q32 23 71 34t79 11q46 0 84.5 -12t66.5 -34t43 -53t15 -69q0 -90 -67 -141.5t-183 -51.5zM293 106q49 0 73.5 20t24.5 58
q0 69 -98 69q-30 0 -59.5 -8t-49.5 -22q5 -61 31 -89t78 -28z" />
    </font>
</defs>
</svg>
