<?xml version="1.0" standalone="no"?>
<!DOCTYPE svg PUBLIC "-//W3C//DTD SVG 1.1//EN" "http://www.w3.org/Graphics/SVG/1.1/DTD/svg11.dtd" >
<svg xmlns="http://www.w3.org/2000/svg" xmlns:xlink="http://www.w3.org/1999/xlink" version="1.1">
<metadata>
Created by FontForge 20141127 at Wed Dec 24 10:27:40 2014
 By Dylan Frankland
Copyright (c) 2012, Impallari Type (www.impallari.com), with Reserved Font Name Encode Sans.
</metadata>
<defs>
<font id="EncodeSansWide-Black" horiz-adv-x="670" >
  <font-face 
    font-family="Encode Sans Wide"
    font-weight="900"
    font-stretch="normal"
    units-per-em="1000"
    panose-1="2 0 0 0 0 0 0 0 0 0"
    ascent="800"
    descent="-200"
    x-height="540"
    cap-height="740"
    bbox="-175 -220 2080 1030"
    underline-thickness="55"
    underline-position="-57"
    unicode-range="U+000D-FB04"
  />
<missing-glyph horiz-adv-x="903" 
d="M72 1030h759v-1250h-759v1250zM650 -52v914h-396v-914h396z" />
    <glyph glyph-name="f_b" unicode="fb" horiz-adv-x="1292" 
d="M145 349h-131v191h132v23q0 69 21.5 117t68.5 78.5t121 44t179 13.5l10 -162q-90 0 -130.5 -21t-40.5 -67v-26h156v-191h-156v-349h-230v349zM922 -12q-26 0 -52 0.5t-61 4t-82.5 10.5t-116.5 20v785h230v-324q29 35 72 50t99 15q125 0 188 -66.5t63 -199.5
q0 -72 -24.5 -127.5t-69 -92.5t-107 -56t-139.5 -19zM917 141q37 0 60 4.5t35 18t16 38.5t4 66q0 33 -3.5 54t-13.5 33t-27.5 17t-45.5 5q-54 0 -78 -18t-24 -56v-156q28 -6 77 -6z" />
    <glyph glyph-name="f_f" unicode="ff" horiz-adv-x="1081" 
d="M681 349h-305v-349h-230v349h-131v191h132v23q0 69 21.5 117t68.5 78.5t121 44t179 13.5l10 -162q-90 0 -130.5 -21t-40.5 -67v-26h306v23q0 69 21.5 117t68.5 78.5t121 44t179 13.5l10 -162q-90 0 -130.5 -21t-40.5 -67v-26h156v-191h-156v-349h-230v349z" />
    <glyph glyph-name="f_f_b" unicode="ffb" horiz-adv-x="1822" 
d="M145 349h-131v191h132v23q0 69 21.5 117t68.5 78.5t121 44t179 13.5l10 -162q-90 0 -130.5 -21t-40.5 -67v-26h300v23q0 69 21.5 117t68.5 78.5t121 44t179 13.5l10 -162q-90 0 -130.5 -21t-40.5 -67v-26h156v-191h-156v-349h-230v349h-299v-349h-230v349zM1452 -12
q-26 0 -52 0.5t-61 4t-82.5 10.5t-116.5 20v785h230v-324q29 35 72 50t99 15q125 0 188 -66.5t63 -199.5q0 -72 -24.5 -127.5t-69 -92.5t-107 -56t-139.5 -19zM1447 141q37 0 60 4.5t35 18t16 38.5t4 66q0 33 -3.5 54t-13.5 33t-27.5 17t-45.5 5q-54 0 -78 -18t-24 -56v-156
q28 -6 77 -6z" />
    <glyph glyph-name="f_f_h" unicode="ffh" horiz-adv-x="1827" 
d="M146 349h-131v191h132v23q0 69 21.5 117t68.5 78.5t121 44t179 13.5l10 -162q-90 0 -130.5 -21t-40.5 -67v-26h300v23q0 69 21.5 117t68.5 78.5t121 44t179 13.5l10 -162q-90 0 -130.5 -21t-40.5 -67v-26h156v-191h-156v-349h-230v349h-299v-349h-230v349zM1143 808h230
v-324q67 29 126.5 47.5t104.5 18.5q79 0 125 -41t46 -113v-396h-230v321q0 30 -11 43t-37 13q-21 0 -55 -6t-69 -16v-355h-230v808z" />
    <glyph glyph-name="f_f_i" unicode="ffi" horiz-adv-x="1429" 
d="M146 349h-131v191h132v23q0 69 21.5 117t68.5 78.5t121 44t179 13.5l10 -162q-90 0 -130.5 -21t-40.5 -67v-26h300v23q0 69 21.5 117t68.5 78.5t121 44t179 13.5l10 -162q-90 0 -130.5 -21t-40.5 -67v-26h156v-191h-156v-349h-230v349h-299v-349h-230v349zM1143 540h230
v-540h-230v540zM1258 594q-66 0 -93.5 27.5t-27.5 90.5q0 62 27.5 90t93.5 28q68 0 95 -29t27 -89t-27 -89t-95 -29z" />
    <glyph glyph-name="f_f_j" unicode="ffj" horiz-adv-x="1430" 
d="M146 349h-131v191h132v23q0 69 21.5 117t68.5 78.5t121 44t179 13.5l10 -162q-90 0 -130.5 -21t-40.5 -67v-26h300v23q0 69 21.5 117t68.5 78.5t121 44t179 13.5l10 -162q-90 0 -130.5 -21t-40.5 -67v-26h156v-191h-156v-349h-230v349h-299v-349h-230v349zM1114 -199
q10 46 17 85t11.5 82t6 95.5t1.5 126.5v55.5t-1 69.5t-2 94.5t-2 130.5h230v-472q-11 -84 -33.5 -153t-56.5 -135zM1260 594q-66 0 -93.5 27.5t-27.5 90.5q0 62 27.5 90t93.5 28q68 0 95 -29t27 -89t-27 -89t-95 -29z" />
    <glyph glyph-name="f_f_k" unicode="ffk" horiz-adv-x="1780" 
d="M146 349h-131v191h132v23q0 69 21.5 117t68.5 78.5t121 44t179 13.5l10 -162q-90 0 -130.5 -21t-40.5 -67v-26h300v23q0 69 21.5 117t68.5 78.5t121 44t179 13.5l10 -162q-90 0 -130.5 -21t-40.5 -67v-26h156v-191h-156v-349h-230v349h-299v-349h-230v349zM1143 808h230
v-462h41l111 194h252l-173 -253l-29 -6v-4l29 -6l191 -271h-251l-132 211h-39v-211h-230v808z" />
    <glyph glyph-name="f_f_l" unicode="ffl" horiz-adv-x="1428" 
d="M146 349h-131v191h132v23q0 69 21.5 117t68.5 78.5t121 44t179 13.5l10 -162q-90 0 -130.5 -21t-40.5 -67v-26h300v23q0 69 21.5 117t68.5 78.5t121 44t179 13.5l10 -162q-90 0 -130.5 -21t-40.5 -67v-26h156v-191h-156v-349h-230v349h-299v-349h-230v349zM1143 808h230
v-808h-230v808z" />
    <glyph glyph-name="f_f_t" unicode="fft" horiz-adv-x="1575" 
d="M1393 -17q-107 0 -162 49t-55 145v172h-272v-349h-230v349h-299v-349h-230v349h-131v191h132v23q0 69 21.5 117t68.5 78.5t121 44t179 13.5l10 -162q-90 0 -130.5 -21t-40.5 -67v-26h300v23q0 69 21.5 117t68.5 78.5t121 44t179 13.5l10 -162q-90 0 -130.5 -21t-40.5 -67
v-26h288l36 173l176 17v-190h135v-191h-133v-119q0 -43 15 -58.5t57 -15.5q28 0 61 14v-169q-12 -4 -28.5 -7t-36 -5.5t-40.5 -4t-41 -1.5z" />
    <glyph glyph-name="f_h" unicode="fh" horiz-adv-x="1297" 
d="M613 808h230v-324q67 29 126.5 47.5t104.5 18.5q79 0 125 -41t46 -113v-396h-230v321q0 30 -11 43t-37 13q-21 0 -55 -6t-69 -16v-355h-230v808zM146 349h-131v191h132v23q0 69 21.5 117t68.5 78.5t121 44t179 13.5l10 -162q-90 0 -130.5 -21t-40.5 -67v-26h156v-191
h-156v-349h-230v349z" />
    <glyph glyph-name="f_i" unicode="fi" horiz-adv-x="899" 
d="M728 594q-66 0 -93.5 27.5t-27.5 90.5q0 62 27.5 90t93.5 28q68 0 95 -29t27 -89t-27 -89t-95 -29zM613 540h230v-540h-230v540zM146 349h-131v191h132v23q0 69 21.5 117t68.5 78.5t121 44t179 13.5l10 -162q-90 0 -130.5 -21t-40.5 -67v-26h156v-191h-156v-349h-230v349
z" />
    <glyph glyph-name="f_j" unicode="fj" horiz-adv-x="900" 
d="M146 349h-131v191h132v23q0 69 21.5 117t68.5 78.5t121 44t179 13.5l10 -162q-90 0 -130.5 -21t-40.5 -67v-26h156v-191h-156v-349h-230v349zM730 594q-66 0 -93.5 27.5t-27.5 90.5q0 62 27.5 90t93.5 28q68 0 95 -29t27 -89t-27 -89t-95 -29zM584 -199q10 46 17 85
t11.5 82t6 95.5t1.5 126.5v55.5t-1 69.5t-2 94.5t-2 130.5h230v-472q-11 -84 -33.5 -153t-56.5 -135z" />
    <glyph glyph-name="f_k" unicode="fk" horiz-adv-x="1250" 
d="M613 808h230v-462h41l111 194h252l-173 -253l-29 -6v-4l29 -6l191 -271h-251l-132 211h-39v-211h-230v808zM146 349h-131v191h132v23q0 69 21.5 117t68.5 78.5t121 44t179 13.5l10 -162q-90 0 -130.5 -21t-40.5 -67v-26h156v-191h-156v-349h-230v349z" />
    <glyph glyph-name="f_l" unicode="fl" horiz-adv-x="898" 
d="M146 349h-131v191h132v23q0 69 21.5 117t68.5 78.5t121 44t179 13.5l10 -162q-90 0 -130.5 -21t-40.5 -67v-26h156v-191h-156v-349h-230v349zM613 808h230v-808h-230v808z" />
    <glyph glyph-name="f_t" unicode="ft" horiz-adv-x="1045" 
d="M863 -17q-107 0 -162 49t-55 145v172h-271v-349h-230v349h-131v191h132v23q0 69 21.5 117t68.5 78.5t121 44t179 13.5l10 -162q-90 0 -130.5 -21t-40.5 -67v-26h287l36 173l176 17v-190h135v-191h-133v-119q0 -43 15 -58.5t57 -15.5q28 0 61 14v-169q-12 -4 -28.5 -7
t-36 -5.5t-40.5 -4t-41 -1.5z" />
    <glyph glyph-name=".notdef" horiz-adv-x="903" 
d="M72 1030h759v-1250h-759v1250zM650 -52v914h-396v-914h396z" />
    <glyph glyph-name="NULL" horiz-adv-x="0" 
 />
    <glyph glyph-name="NULL" horiz-adv-x="0" 
 />
    <glyph glyph-name="nonmarkingreturn" unicode="&#xd;" horiz-adv-x="336" 
 />
    <glyph glyph-name="space" unicode=" " horiz-adv-x="212" 
 />
    <glyph glyph-name="AE.sc" horiz-adv-x="1040" 
d="M-12 11l300 566h696v-159h-303l5 -62h290v-134h-275l8 -62h294v-160h-518l-4 90h-228l-49 -90h-216v11zM330 230h142l-7 201h-25z" />
    <glyph glyph-name="AEacute" unicode="&#x1fc;" horiz-adv-x="1117" 
d="M498 817l62 191h235l-132 -201zM-13 12l325 728h749v-176h-331l8 -106h313v-176h-300l9 -106h321v-176h-556l-6 142h-241l-63 -142h-228v12zM360 328h152l-11 255h-27z" />
    <glyph glyph-name="acute.cap" horiz-adv-x="334" 
d="M31 817l62 191h235l-132 -201z" />
    <glyph glyph-name="AEacute.sc" horiz-adv-x="1040" 
d="M-12 11l300 566h696v-159h-303l5 -62h290v-134h-275l8 -62h294v-160h-518l-4 90h-228l-49 -90h-216v11zM472 230l-7 201h-25l-110 -201h142zM454 640l55 162h223l-121 -171z" />
    <glyph glyph-name="Aacute" unicode="&#xc1;" horiz-adv-x="825" 
d="M-5 12l245 728h345l245 -728v-12h-228l-47 148h-286l-46 -148h-228v12zM501 324l-28 88l-51 171h-20l-51 -173l-27 -86h177zM324 817l62 191h235l-132 -201z" />
    <glyph glyph-name="Aacute.sc" horiz-adv-x="763" 
d="M-4 11l222 566h327l222 -566v-11h-217l-38 90h-262l-37 -90h-217v11zM466 245l-28 68l-48 116h-19l-47 -118l-28 -66h170zM299 640l55 162h223l-122 -171z" />
    <glyph glyph-name="Abreve" unicode="&#x102;" horiz-adv-x="825" 
d="M-5 12l245 728h345l245 -728v-12h-228l-47 148h-286l-46 -148h-228v12zM501 324l-28 88l-51 171h-20l-51 -173l-27 -86h177zM412 811q-75 0 -124 15.5t-78.5 42t-41.5 62t-12 75.5h149q0 -21 4.5 -38t16.5 -28.5t33 -17.5t53 -6q33 0 53.5 6t32.5 17.5t16.5 28.5t4.5 38
h149q0 -42 -12 -77.5t-41.5 -61.5t-79 -41t-123.5 -15z" />
    <glyph glyph-name="breve.cap" horiz-adv-x="569" 
d="M284 811q-75 0 -124 15.5t-78.5 42t-41.5 62t-12 75.5h149q0 -21 4.5 -38t16.5 -28.5t33 -17.5t53 -6q33 0 53.5 6t32.5 17.5t16.5 28.5t4.5 38h149q0 -42 -12 -77.5t-41.5 -61.5t-79 -41t-123.5 -15z" />
    <glyph glyph-name="Abreve.sc" horiz-adv-x="763" 
d="M381 633q-71 0 -117 13.5t-73 36t-38 52t-11 62.5h141q0 -16 4 -28.5t15 -21.5t30 -13.5t49 -4.5t49.5 4.5t30 13.5t14.5 21.5t4 28.5h140q0 -34 -11 -64t-38 -52t-73 -35t-116 -13zM-4 11l222 566h327l222 -566v-11h-217l-38 90h-262l-37 -90h-217v11zM466 245l-28 68
l-48 116h-19l-47 -118l-28 -66h170z" />
    <glyph glyph-name="Acircumflex" unicode="&#xc2;" horiz-adv-x="825" 
d="M-5 12l245 728h345l245 -728v-12h-228l-47 148h-286l-46 -148h-228v12zM501 324l-28 88l-51 171h-20l-51 -173l-27 -86h177zM179 945l232 82l238 -82v-148l-235 81l-235 -81v148z" />
    <glyph glyph-name="circumflex.cap" horiz-adv-x="540" 
d="M31 945l232 82l238 -82v-148l-235 81l-235 -81v148z" />
    <glyph glyph-name="Acircumflex.sc" horiz-adv-x="763" 
d="M-4 11l222 566h327l222 -566v-11h-217l-38 90h-262l-37 -90h-217v11zM466 245l-28 68l-48 116h-19l-47 -118l-28 -66h170zM163 755l217 67l222 -67v-137l-219 66l-220 -66v137z" />
    <glyph glyph-name="Adblgrave" unicode="&#x200;" horiz-adv-x="825" 
d="M-5 12l245 728h345l245 -728v-12h-228l-47 148h-286l-46 -148h-228v12zM501 324l-28 88l-51 171h-20l-51 -173l-27 -86h177zM188 807l-133 201h231l61 -191zM440 807l-133 201h231l62 -191z" />
    <glyph glyph-name="uni030F.cap" horiz-adv-x="590" 
d="M138 807l-133 201h231l61 -191zM390 807l-133 201h231l62 -191z" />
    <glyph glyph-name="Adblgrave.sc" horiz-adv-x="763" 
d="M-4 11l222 566h327l222 -566v-11h-217l-38 90h-262l-37 -90h-217v11zM466 245l-28 68l-48 116h-19l-47 -118l-28 -66h170zM45 804h221l54 -164l-153 -7zM280 804h222l54 -164l-153 -7z" />
    <glyph glyph-name="Adieresis" unicode="&#xc4;" horiz-adv-x="825" 
d="M-5 12l245 728h345l245 -728v-12h-228l-47 148h-286l-46 -148h-228v12zM501 324l-28 88l-51 171h-20l-51 -173l-27 -86h177zM251 794q-66 0 -94 27.5t-28 90.5q0 62 28 90t94 28q68 0 94.5 -29t26.5 -89t-26.5 -89t-94.5 -29zM572 794q-66 0 -93.5 27.5t-27.5 90.5
q0 62 27.5 90t93.5 28q68 0 94.5 -29t26.5 -89t-26.5 -89t-94.5 -29z" />
    <glyph glyph-name="dieresis.cap" horiz-adv-x="651" 
d="M164 794q-66 0 -94 27.5t-28 90.5q0 62 28 90t94 28q68 0 94.5 -29t26.5 -89t-26.5 -89t-94.5 -29zM485 794q-66 0 -93.5 27.5t-27.5 90.5q0 62 27.5 90t93.5 28q68 0 94.5 -29t26.5 -89t-26.5 -89t-94.5 -29z" />
    <glyph glyph-name="Adieresis.sc" horiz-adv-x="763" 
d="M233 612q-63 0 -89 25.5t-26 83.5q0 57 26 83t89 26q64 0 89 -27.5t25 -81.5q0 -55 -25 -82t-89 -27zM528 612q-63 0 -88.5 25.5t-25.5 83.5q0 57 25.5 83t88.5 26q64 0 89 -27.5t25 -81.5q0 -55 -25 -82t-89 -27zM-4 11l222 566h327l222 -566v-11h-217l-38 90h-262
l-37 -90h-217v11zM466 245l-28 68l-48 116h-19l-47 -118l-28 -66h170z" />
    <glyph glyph-name="Agrave" unicode="&#xc0;" horiz-adv-x="825" 
d="M-5 12l245 728h345l245 -728v-12h-228l-47 148h-286l-46 -148h-228v12zM501 324l-28 88l-51 171h-20l-51 -173l-27 -86h177zM307 807l-133 201h236l61 -191z" />
    <glyph glyph-name="grave.cap" horiz-adv-x="342" 
d="M138 807l-133 201h236l61 -191z" />
    <glyph glyph-name="Agrave.sc" horiz-adv-x="763" 
d="M-4 11l222 566h327l222 -566v-11h-217l-38 90h-262l-37 -90h-217v11zM466 245l-28 68l-48 116h-19l-47 -118l-28 -66h170zM280 631l-123 171h224l54 -164z" />
    <glyph glyph-name="Ainvertedbreve" unicode="&#x202;" horiz-adv-x="825" 
d="M-5 12l245 728h345l245 -728v-12h-228l-47 148h-286l-46 -148h-228v12zM501 324l-28 88l-51 171h-20l-51 -173l-27 -86h177zM519 821q0 21 -4.5 37.5t-16.5 28t-32.5 17.5t-53.5 6q-32 0 -53 -6t-33 -17.5t-16.5 -28t-4.5 -37.5h-149q0 40 12 75.5t41.5 62t78.5 42
t124 15.5q74 0 123.5 -15t79 -41.5t41.5 -62t12 -76.5h-149z" />
    <glyph glyph-name="uni0311.cap" horiz-adv-x="560" 
d="M387 821q0 21 -4.5 37.5t-16.5 28t-32.5 17.5t-53.5 6q-32 0 -53 -6t-33 -17.5t-16.5 -28t-4.5 -37.5h-149q0 40 12 75.5t41.5 62t78.5 42t124 15.5q74 0 123.5 -15t79 -41.5t41.5 -62t12 -76.5h-149z" />
    <glyph glyph-name="Ainvertedbreve.sc" horiz-adv-x="763" 
d="M142 643q0 32 11 62t38 52.5t73 36t117 13.5q70 0 116 -13t73 -35.5t38 -52t11 -63.5h-140q0 15 -4 27.5t-14.5 21.5t-30 13.5t-49.5 4.5t-49 -4.5t-30 -13.5t-15 -21.5t-4 -27.5h-141zM-4 11l222 566h327l222 -566v-11h-217l-38 90h-262l-37 -90h-217v11zM466 245
l-28 68l-48 116h-19l-47 -118l-28 -66h170z" />
    <glyph glyph-name="Amacron" unicode="&#x100;" horiz-adv-x="825" 
d="M-5 12l245 728h345l245 -728v-12h-228l-47 148h-286l-46 -148h-228v12zM501 324l-28 88l-51 171h-20l-51 -173l-27 -86h177zM179 991h466v-148h-466v148z" />
    <glyph glyph-name="macron.cap" horiz-adv-x="552" 
d="M43 991h466v-148h-466v148z" />
    <glyph glyph-name="Amacron.sc" horiz-adv-x="763" 
d="M-4 11l222 566h327l222 -566v-11h-217l-38 90h-262l-37 -90h-217v11zM466 245l-28 68l-48 116h-19l-47 -118l-28 -66h170zM163 796h435v-138h-435v138z" />
    <glyph glyph-name="Aogonek" unicode="&#x104;" horiz-adv-x="824" 
d="M733 -220q-82 0 -128.5 25.5t-46.5 70.5q0 16 6.5 34t17.5 34.5t26 31t33 24.5h-40l-47 148h-286l-46 -148h-228v12l245 728h345l245 -728v-17q-36 -14 -60.5 -24.5t-39 -20t-20.5 -18t-6 -17.5q0 -20 26 -20q6 0 17.5 1.5t25.5 3.5t29.5 5.5t29.5 6.5v-120
q-44 -12 -98 -12zM500 324l-28 88l-51 171h-20l-51 -173l-27 -86h177z" />
    <glyph glyph-name="ogonek" unicode="&#x2db;" horiz-adv-x="355" 
d="M210 -220q-82 0 -128.5 25.5t-46.5 70.5q0 16 6.5 34t17.5 34.5t26 31t33 24.5h188v-5q-36 -14 -60.5 -24.5t-39 -20t-20.5 -18t-6 -17.5q0 -20 26 -20q6 0 17.5 1.5t25.5 3.5t29.5 5.5t29.5 6.5v-120q-44 -12 -98 -12z" />
    <glyph glyph-name="Aogonek.sc" horiz-adv-x="762" 
d="M678 -173q-77 0 -120.5 22.5t-43.5 57.5q0 12 6 26.5t15.5 28t21.5 24t24 14.5h-32l-38 90h-262l-37 -90h-217v11l222 566h327l222 -566v-13q-42 -14 -65 -23t-34 -14.5t-13.5 -8.5t-2.5 -5q0 -7 4 -8.5t15 -1.5q7 0 20 1t27 2.5t28 3.5t23 4v-112q-23 -5 -46 -7t-44 -2z
M464 245l-27 68l-48 116h-19l-47 -118l-29 -66h170z" />
    <glyph glyph-name="Aring" unicode="&#xc5;" horiz-adv-x="825" 
d="M-5 12l245 728h345l245 -728v-12h-228l-47 148h-286l-46 -148h-228v12zM501 324l-28 88l-51 171h-20l-51 -173l-27 -86h177zM413 780q-32 0 -59 8.5t-46.5 24t-31 37t-11.5 48.5t11.5 49t31 37.5t46.5 24.5t59 9t59 -9t47 -24.5t31 -37.5t11 -49t-11 -48.5t-31 -37
t-47 -24t-59 -8.5zM413 850q37 0 49.5 11.5t12.5 36.5q0 26 -12.5 37.5t-49.5 11.5q-36 0 -49 -11.5t-13 -37.5q0 -25 13 -36.5t49 -11.5z" />
    <glyph glyph-name="ring.cap" horiz-adv-x="364" 
d="M181 780q-32 0 -59 8.5t-46.5 24t-31 37t-11.5 48.5t11.5 49t31 37.5t46.5 24.5t59 9t59 -9t47 -24.5t31 -37.5t11 -49t-11 -48.5t-31 -37t-47 -24t-59 -8.5zM181 850q37 0 49.5 11.5t12.5 36.5q0 26 -12.5 37.5t-49.5 11.5q-36 0 -49 -11.5t-13 -37.5q0 -25 13 -36.5
t49 -11.5z" />
    <glyph glyph-name="Aring.sc" horiz-adv-x="763" 
d="M-4 11l222 566h327l222 -566v-11h-217l-38 90h-262l-37 -90h-217v11zM466 245l-28 68l-48 116h-19l-47 -118l-28 -66h170zM382 604q-58 0 -97 25.5t-39 69.5q0 21 10.5 39t28.5 30.5t43 19.5t54 7q59 0 97.5 -26.5t38.5 -69.5q0 -44 -38.5 -69.5t-97.5 -25.5zM382 666
q33 0 44 8t11 25q0 18 -11 25.5t-44 7.5t-44 -7.5t-11 -25.5q0 -17 11 -25t44 -8z" />
    <glyph glyph-name="Aringacute" unicode="&#x1fa;" horiz-adv-x="825" 
d="M-5 12l225 671q-24 33 -24 77q0 57 40.5 96t111.5 53l39 121h235l-89 -135q49 -20 77 -54.5t28 -80.5q0 -47 -32 -85l224 -663v-12h-228l-45 142h-290l-44 -142h-228v12zM414 704q41 0 65.5 15.5t24.5 40.5q0 26 -24.5 41t-65.5 15q-38 0 -61 -15t-23 -41t23 -41t61 -15z
M499 328l-26 84l-51 171h-20l-51 -173l-26 -82h174z" />
    <glyph glyph-name="Aringacute.sc" horiz-adv-x="763" 
d="M-4 11l204 526q-20 26 -20 57q0 48 37 80t103 44l34 98h223l-81 -111q45 -17 71 -45.5t26 -65.5q0 -34 -29 -66l203 -517v-11h-217l-38 90h-262l-37 -90h-217v11zM383 554q38 0 60.5 11.5t22.5 28.5q0 18 -22.5 29t-60.5 11q-35 0 -55.5 -11t-20.5 -29t21 -29t55 -11z
M468 245l-30 68l-49 128h-16l-49 -130l-26 -66h170z" />
    <glyph glyph-name="Atilde" unicode="&#xc3;" horiz-adv-x="825" 
d="M-5 12l245 728h345l245 -728v-12h-228l-47 148h-286l-46 -148h-228v12zM501 324l-28 88l-51 171h-20l-51 -173l-27 -86h177zM141 861q38 75 89 112.5t97 37.5q29 0 58 -5.5t57.5 -12.5t57.5 -12.5t58 -5.5q24 0 47.5 6.5t57.5 29.5l23 -38q-40 -75 -90.5 -112.5
t-94.5 -37.5q-29 0 -58 5.5t-58 12.5t-58 12.5t-58 5.5q-26 0 -49.5 -6.5t-54.5 -29.5z" />
    <glyph glyph-name="tilde.cap" horiz-adv-x="575" 
d="M15 861q38 75 89 112.5t97 37.5q29 0 58 -5.5t57.5 -12.5t57.5 -12.5t58 -5.5q24 0 47.5 6.5t57.5 29.5l23 -38q-40 -75 -90.5 -112.5t-94.5 -37.5q-29 0 -58 5.5t-58 12.5t-58 12.5t-58 5.5q-26 0 -49.5 -6.5t-54.5 -29.5z" />
    <glyph glyph-name="Atilde.sc" horiz-adv-x="763" 
d="M-4 11l222 566h327l222 -566v-11h-217l-38 90h-262l-37 -90h-217v11zM466 245l-28 68l-48 116h-19l-47 -118l-28 -66h170zM128 672q35 68 82.5 102.5t90.5 34.5q27 0 54 -4t53.5 -9t53.5 -9t54 -4q22 0 43.5 4.5t53.5 22.5l20 -33q-37 -69 -84 -103t-87 -34
q-27 0 -54.5 4t-54.5 9.5t-54 9.5t-54 4q-23 0 -44.5 -5t-50.5 -23z" />
    <glyph glyph-name="B" unicode="B" horiz-adv-x="794" 
d="M432 -10q-93 0 -180 3.5t-187 11.5v730q85 8 163 11.5t157 3.5q184 0 270 -51.5t86 -161.5q0 -118 -135 -154v-4q78 -14 119 -59t41 -115q0 -112 -80.5 -163.5t-253.5 -51.5zM416 149q62 0 90 19.5t28 61.5q0 40 -26.5 56.5t-91.5 16.5h-126v-151q7 -1 14 -1.5t20 -1
t34.5 -0.5h57.5zM395 447q64 0 89.5 16t25.5 57q0 40 -25.5 56t-89.5 16q-31 0 -58 -1.5t-47 -4.5v-139h105z" />
    <glyph glyph-name="B.sc" horiz-adv-x="740" 
d="M410 -8q-89 0 -171 3t-177 9v569q78 6 151.5 9t148.5 3q169 0 248 -41t79 -128q0 -45 -30 -72.5t-93 -43.5v-3q71 -11 108.5 -45.5t37.5 -88.5q0 -90 -72.5 -130.5t-229.5 -40.5zM392 135q53 0 77 12t24 41q0 26 -23 34.5t-80 8.5h-114v-95q6 -1 12 -1h17.5h31.5h55z
M369 354q57 0 79.5 9.5t22.5 35.5q0 25 -22 34.5t-79 9.5q-28 0 -52 -0.5t-42 -3.5v-85h93z" />
    <glyph glyph-name="C" unicode="C" horiz-adv-x="653" 
d="M457 -15q-217 0 -320.5 93.5t-103.5 290.5q0 196 98.5 291t301.5 95q35 0 77 -3t109 -10v-186q-38 3 -62.5 5t-41 3t-29 1.5t-25.5 0.5q-59 0 -95.5 -7.5t-56.5 -28.5t-27 -59.5t-7 -101.5q0 -60 7 -98t27.5 -59.5t56.5 -29t93 -7.5q16 0 38.5 1t45.5 2.5t43.5 4
t32.5 4.5v-187q-84 -15 -162 -15z" />
    <glyph glyph-name="C.sc" horiz-adv-x="609" 
d="M427 -14q-204 0 -299 73t-95 229q0 155 90 228.5t279 73.5q40 0 79 -1.5t91 -6.5v-175q-26 1 -44 2t-33.5 2t-30.5 1h-35q-57 0 -90 -3.5t-50 -16t-21.5 -37.5t-4.5 -67q0 -41 5 -65t22 -37t49.5 -16.5t87.5 -3.5q15 0 36 0.5t41.5 1.5t38.5 2t29 2v-177q-35 -5 -70 -7
t-75 -2z" />
    <glyph glyph-name="A.sc" horiz-adv-x="763" 
d="M-4 11l222 566h327l222 -566v-11h-217l-38 90h-262l-37 -90h-217v11zM468 235l-30 78l-48 116h-19l-47 -118l-30 -76h174z" />
    <glyph glyph-name="Cacute" unicode="&#x106;" horiz-adv-x="653" 
d="M457 -15q-217 0 -320.5 93.5t-103.5 290.5q0 196 98.5 291t301.5 95q35 0 77 -3t109 -10v-186q-38 3 -62.5 5t-41 3t-29 1.5t-25.5 0.5q-59 0 -95.5 -7.5t-56.5 -28.5t-27 -59.5t-7 -101.5q0 -60 7 -98t27.5 -59.5t56.5 -29t93 -7.5q16 0 38.5 1t45.5 2.5t43.5 4
t32.5 4.5v-187q-84 -15 -162 -15zM275 817l62 191h235l-132 -201z" />
    <glyph glyph-name="Cacute.sc" horiz-adv-x="609" 
d="M426 -14q-203 0 -298.5 73t-95.5 229q0 154 90.5 228t278.5 74q31 0 69 -1.5t101 -6.5v-175q-36 2 -58.5 3t-37.5 1.5t-25 0.5h-22q-54 0 -86.5 -2.5t-50.5 -14.5t-23.5 -37t-5.5 -70q0 -43 6 -67.5t23.5 -36.5t49.5 -15t85 -3q15 0 35 0.5t41 1.5t39.5 2t29.5 2v-177
q-39 -5 -74.5 -7t-70.5 -2zM252 640l55 162h223l-122 -171z" />
    <glyph glyph-name="Ccaron" unicode="&#x10c;" horiz-adv-x="653" 
d="M457 -15q-217 0 -320.5 93.5t-103.5 290.5q0 196 98.5 291t301.5 95q35 0 77 -3t109 -10v-186q-38 3 -62.5 5t-41 3t-29 1.5t-25.5 0.5q-59 0 -95.5 -7.5t-56.5 -28.5t-27 -59.5t-7 -101.5q0 -60 7 -98t27.5 -59.5t56.5 -29t93 -7.5q16 0 38.5 1t45.5 2.5t43.5 4
t32.5 4.5v-187q-84 -15 -162 -15zM131 1027l235 -82l235 82v-149l-238 -81l-232 81v149z" />
    <glyph glyph-name="caron.cap" horiz-adv-x="530" 
d="M30 1027l235 -82l235 82v-149l-238 -81l-232 81v149z" />
    <glyph glyph-name="Ccaron.sc" horiz-adv-x="609" 
d="M426 -14q-203 0 -298.5 73t-95.5 229q0 154 90.5 228t278.5 74q31 0 69 -1.5t101 -6.5v-175q-36 2 -58.5 3t-37.5 1.5t-25 0.5h-22q-54 0 -86.5 -2.5t-50.5 -14.5t-23.5 -37t-5.5 -70q0 -43 6 -67.5t23.5 -36.5t49.5 -15t85 -3q15 0 35 0.5t41 1.5t39.5 2t29.5 2v-177
q-39 -5 -74.5 -7t-70.5 -2zM118 822l219 -67l219 67v-138l-222 -66l-216 66v138z" />
    <glyph glyph-name="Ccedilla" unicode="&#xc7;" horiz-adv-x="653" 
d="M379 -220q-26 0 -58 4l-64 8v128q22 -5 48 -9t46 -4q16 0 20.5 4.5t4.5 9.5q0 10 -8.5 28.5t-28.5 44.5q-157 23 -231.5 115t-74.5 260q0 196 98.5 291t301.5 95q35 0 77 -3t109 -10v-186q-38 3 -62.5 5t-41 3t-29 1.5t-25.5 0.5q-59 0 -95.5 -7.5t-56.5 -28.5t-27 -59.5
t-7 -101.5q0 -60 7 -98t27.5 -59.5t56.5 -29t93 -7.5q16 0 38.5 1t45.5 2.5t43.5 4t32.5 4.5v-187q-72 -12 -139 -15q23 -28 31.5 -49t8.5 -43q0 -54 -38.5 -83.5t-102.5 -29.5z" />
    <glyph glyph-name="cedilla" unicode="&#xb8;" horiz-adv-x="335" 
d="M162 -220q-26 0 -58 4l-64 8v128q22 -5 48 -9t46 -4q16 0 20.5 4.5t4.5 9.5q0 15 -22.5 52t-75.5 85h133q33 -32 54 -55t33 -42t17 -35t5 -33q0 -54 -38.5 -83.5t-102.5 -29.5z" />
    <glyph glyph-name="Ccedilla.sc" horiz-adv-x="610" 
d="M355 -172q-25 0 -54.5 4t-58.5 6v118q20 -4 44 -7.5t44 -3.5q12 0 15.5 4t3.5 12t-5 14t-22 17q-148 16 -218.5 89t-70.5 207q0 154 90.5 228t278.5 74q31 0 69 -1.5t101 -6.5v-175q-36 2 -58.5 3.5t-37.5 2t-25 0.5h-22q-54 0 -86.5 -3t-50.5 -15t-23.5 -37t-5.5 -70
q0 -43 6 -67.5t23.5 -36.5t49.5 -15t85 -3q15 0 35 0.5t41 1.5t39.5 2t29.5 2v-177q-63 -8 -119 -9q18 -20 24.5 -36.5t6.5 -33.5q0 -42 -35.5 -65t-93.5 -23z" />
    <glyph glyph-name="Ccircumflex" unicode="&#x108;" horiz-adv-x="653" 
d="M457 -15q-217 0 -320.5 93.5t-103.5 290.5q0 196 98.5 291t301.5 95q35 0 77 -3t109 -10v-186q-38 3 -62.5 5t-41 3t-29 1.5t-25.5 0.5q-59 0 -95.5 -7.5t-56.5 -28.5t-27 -59.5t-7 -101.5q0 -60 7 -98t27.5 -59.5t56.5 -29t93 -7.5q16 0 38.5 1t45.5 2.5t43.5 4
t32.5 4.5v-187q-84 -15 -162 -15zM128 945l232 82l238 -82v-148l-235 81l-235 -81v148z" />
    <glyph glyph-name="Ccircumflex.sc" horiz-adv-x="609" 
d="M426 -14q-203 0 -298.5 73t-95.5 229q0 154 90.5 228t278.5 74q31 0 69 -1.5t101 -6.5v-175q-36 2 -58.5 3t-37.5 1.5t-25 0.5h-22q-54 0 -86.5 -2.5t-50.5 -14.5t-23.5 -37t-5.5 -70q0 -43 6 -67.5t23.5 -36.5t49.5 -15t85 -3q15 0 35 0.5t41 1.5t39.5 2t29.5 2v-177
q-39 -5 -74.5 -7t-70.5 -2zM116 755l216 67l222 -67v-137l-219 66l-219 -66v137z" />
    <glyph glyph-name="Cdotaccent" unicode="&#x10a;" horiz-adv-x="653" 
d="M392 794q-66 0 -94 27.5t-28 90.5q0 62 28 90t94 28q68 0 94.5 -29t26.5 -89t-26.5 -89t-94.5 -29zM457 -15q-217 0 -320.5 93.5t-103.5 290.5q0 196 98.5 291t301.5 95q35 0 77 -3t109 -10v-186q-38 3 -62.5 5t-41 3t-29 1.5t-25.5 0.5q-59 0 -95.5 -7.5t-56.5 -28.5
t-27 -59.5t-7 -101.5q0 -60 7 -98t27.5 -59.5t56.5 -29t93 -7.5q16 0 38.5 1t45.5 2.5t43.5 4t32.5 4.5v-187q-84 -15 -162 -15z" />
    <glyph glyph-name="dotaccent.cap" horiz-adv-x="330" 
d="M164 794q-66 0 -94 27.5t-28 90.5q0 62 28 90t94 28q68 0 94.5 -29t26.5 -89t-26.5 -89t-94.5 -29z" />
    <glyph glyph-name="Cdotaccent.sc" horiz-adv-x="609" 
d="M426 -14q-203 0 -298.5 73t-95.5 229q0 154 90.5 228t278.5 74q31 0 69 -1.5t101 -6.5v-175q-36 2 -58.5 3t-37.5 1.5t-25 0.5h-22q-54 0 -86.5 -2.5t-50.5 -14.5t-23.5 -37t-5.5 -70q0 -43 6 -67.5t23.5 -36.5t49.5 -15t85 -3q15 0 35 0.5t41 1.5t39.5 2t29.5 2v-177
q-39 -5 -74.5 -7t-70.5 -2zM364 613q-63 0 -89 25.5t-26 83.5q0 57 26 83t89 26q64 0 89 -27.5t25 -81.5q0 -55 -25 -82t-89 -27z" />
    <glyph glyph-name="D" unicode="D" horiz-adv-x="851" 
d="M312 -10q-35 0 -70 1t-68 2.5t-61 4t-48 5.5v735q105 6 177.5 9t126.5 3q117 0 201.5 -22.5t139.5 -69t81.5 -118.5t26.5 -171q0 -102 -28 -174t-88.5 -117.5t-157 -66.5t-232.5 -21zM410 173q49 0 81 9t51.5 31.5t27.5 60.5t8 95q0 55 -9 93t-29 61t-53.5 33t-82.5 10
q-18 0 -41.5 -1t-62.5 -4v-380q22 -4 51.5 -6t58.5 -2z" />
    <glyph glyph-name="D.sc" horiz-adv-x="790" 
d="M350 -8q-38 0 -78.5 0.5t-79 2t-72 3t-57.5 3.5v574q94 5 162.5 7.5t122.5 2.5q211 0 311 -73t100 -225t-99.5 -223.5t-309.5 -71.5zM385 164q44 0 72 5.5t44.5 19t23 37.5t6.5 61q0 36 -7.5 60t-24.5 38.5t-46 20.5t-72 6q-20 0 -40 -0.5t-55 -2.5v-239q17 -3 43.5 -4.5
t55.5 -1.5z" />
    <glyph glyph-name="Dcaron" unicode="&#x10e;" horiz-adv-x="851" 
d="M191 1027l235 -82l235 82v-149l-238 -81l-232 81v149zM312 -10q-35 0 -70 1t-68 2.5t-61 4t-48 5.5v735q105 6 177.5 9t126.5 3q117 0 201.5 -22.5t139.5 -69t81.5 -118.5t26.5 -171q0 -102 -28 -174t-88.5 -117.5t-157 -66.5t-232.5 -21zM410 173q49 0 81 9t51.5 31.5
t27.5 60.5t8 95q0 55 -9 93t-29 61t-53.5 33t-82.5 10q-18 0 -41.5 -1t-62.5 -4v-380q22 -4 51.5 -6t58.5 -2z" />
    <glyph glyph-name="Dcaron.sc" horiz-adv-x="791" 
d="M350 -8q-38 0 -78.5 0.5t-79 2t-72 3t-57.5 3.5v574q94 5 162.5 7.5t122.5 2.5q211 0 311 -73t100 -225t-99.5 -223.5t-309.5 -71.5zM385 164q44 0 72 5.5t44.5 19t23 37.5t6.5 61q0 36 -7.5 60t-24.5 38.5t-46 20.5t-72 6q-20 0 -40 -0.5t-55 -2.5v-239q17 -3 43.5 -4.5
t55.5 -1.5zM182 684v138l219 -67l220 67v-138l-223 -66z" />
    <glyph glyph-name="Dcroat" unicode="&#x110;" horiz-adv-x="879" 
d="M5 462h88v276q105 6 177.5 9t126.5 3q117 0 201.5 -22.5t139.5 -69t81.5 -118.5t26.5 -171q0 -102 -28 -174t-88.5 -117.5t-157 -66.5t-232.5 -21q-35 0 -70 1t-68 2.5t-61 4t-48 5.5v285h-88v174zM438 173q49 0 81 9t51.5 31.5t27.5 60.5t8 95q0 55 -9 93t-29 61
t-53.5 33t-82.5 10q-18 0 -41.5 -1t-62.5 -4v-99h98v-174h-98v-107q22 -4 51.5 -6t58.5 -2z" />
    <glyph glyph-name="Dcroat.sc" horiz-adv-x="822" 
d="M15 376h79v199q100 5 167.5 7.5t117.5 2.5q213 0 312 -72t99 -226q0 -81 -25.5 -137t-82 -91t-145.5 -51t-215 -16q-32 0 -65 0.5t-63.5 2t-56 3t-43.5 3.5v211h-79v164zM416 164q43 0 71.5 5t45 18.5t23.5 37.5t7 62q0 36 -7.5 60.5t-25 38.5t-46.5 20t-72 6
q-16 0 -36.5 -0.5t-58.5 -2.5v-33h84v-164h-84v-42q18 -2 45.5 -4t53.5 -2z" />
    <glyph glyph-name="Ddotbelow" unicode="&#x1e0c;" horiz-adv-x="851" 
d="M415 -220q-50 0 -70.5 20.5t-20.5 66.5q0 47 20.5 67.5t70.5 20.5q52 0 71.5 -22t19.5 -66t-19.5 -65.5t-71.5 -21.5zM312 -10q-35 0 -70 1t-68 2.5t-61 4t-48 5.5v735q105 6 177.5 9t126.5 3q117 0 201.5 -22.5t139.5 -69t81.5 -118.5t26.5 -171q0 -102 -28 -174
t-88.5 -117.5t-157 -66.5t-232.5 -21zM410 173q49 0 81 9t51.5 31.5t27.5 60.5t8 95q0 55 -9 93t-29 61t-53.5 33t-82.5 10q-18 0 -41.5 -1t-62.5 -4v-380q22 -4 51.5 -6t58.5 -2z" />
    <glyph glyph-name="dotbelow" horiz-adv-x="274" 
d="M137 -220q-50 0 -70.5 20.5t-20.5 66.5q0 47 20.5 67.5t70.5 20.5q52 0 71.5 -22t19.5 -66t-19.5 -65.5t-71.5 -21.5z" />
    <glyph glyph-name="Ddotbelow.sc" horiz-adv-x="791" 
d="M350 -8q-38 0 -78.5 0.5t-79 2t-72 3t-57.5 3.5v574q94 5 162.5 7.5t122.5 2.5q211 0 311 -73t100 -225t-99.5 -223.5t-309.5 -71.5zM385 164q44 0 72 5.5t44.5 19t23 37.5t6.5 61q0 36 -7.5 60t-24.5 38.5t-46 20.5t-72 6q-20 0 -40 -0.5t-55 -2.5v-239q17 -3 43.5 -4.5
t55.5 -1.5zM389 -181q-47 0 -66.5 18.5t-19.5 59.5q0 42 19.5 60.5t66.5 18.5q49 0 67 -20.5t18 -58.5t-18 -58t-67 -20z" />
    <glyph glyph-name="Delta" unicode="&#x2206;" horiz-adv-x="930" 
d="M330 740h270l309 -740h-888zM621 175l-156 373l-156 -373h312z" />
    <glyph glyph-name="E" unicode="E" horiz-adv-x="727" 
d="M65 740h616v-176h-381v-106h341v-176h-341v-106h391v-176h-626v740z" />
    <glyph glyph-name="E.sc" horiz-adv-x="681" 
d="M63 577h571v-159h-348v-62h310v-134h-310v-62h357v-160h-580v577z" />
    <glyph glyph-name="Eacute" unicode="&#xc9;" horiz-adv-x="727" 
d="M276 817l62 191h235l-132 -201zM65 740h616v-176h-381v-106h341v-176h-341v-106h391v-176h-626v740z" />
    <glyph glyph-name="Eacute.sc" horiz-adv-x="681" 
d="M63 577h571v-159h-348v-62h310v-134h-310v-62h357v-160h-580v577zM256 640l55 162h223l-122 -171z" />
    <glyph glyph-name="Ebreve" unicode="&#x114;" horiz-adv-x="727" 
d="M362 811q-75 0 -124 15.5t-78.5 42t-41.5 62t-12 75.5h149q0 -21 4.5 -38t16.5 -28.5t33 -17.5t53 -6q33 0 53.5 6t32.5 17.5t16.5 28.5t4.5 38h149q0 -42 -12 -77.5t-41.5 -61.5t-79 -41t-123.5 -15zM65 740h616v-176h-381v-106h341v-176h-341v-106h391v-176h-626v740z
" />
    <glyph glyph-name="Ebreve.sc" horiz-adv-x="681" 
d="M337 633q-71 0 -117 13.5t-73 36t-38 52t-11 62.5h141q0 -16 4 -28.5t15 -21.5t30 -13.5t49 -4.5t49.5 4.5t30 13.5t14.5 21.5t4 28.5h140q0 -34 -11 -64t-38 -52t-73 -35t-116 -13zM63 577h571v-159h-348v-62h310v-134h-310v-62h357v-160h-580v577z" />
    <glyph glyph-name="Ecaron" unicode="&#x11a;" horiz-adv-x="727" 
d="M136 1027l235 -82l235 82v-149l-238 -81l-232 81v149zM65 740h616v-176h-381v-106h341v-176h-341v-106h391v-176h-626v740z" />
    <glyph glyph-name="Ecaron.sc" horiz-adv-x="681" 
d="M63 577h571v-159h-348v-62h310v-134h-310v-62h357v-160h-580v577zM126 684v138l219 -67l219 67v-138l-222 -66z" />
    <glyph glyph-name="Ecircumflex" unicode="&#xca;" horiz-adv-x="727" 
d="M65 740h616v-176h-381v-106h341v-176h-341v-106h391v-176h-626v740zM157 945l232 82l238 -82v-148l-235 81l-235 -81v148z" />
    <glyph glyph-name="Ecircumflex.sc" horiz-adv-x="681" 
d="M63 577h571v-159h-348v-62h310v-134h-310v-62h357v-160h-580v577zM148 755l216 67l222 -67v-137l-219 66l-219 -66v137z" />
    <glyph glyph-name="Edblgrave" unicode="&#x204;" horiz-adv-x="727" 
d="M65 740h616v-176h-381v-106h341v-176h-341v-106h391v-176h-626v740zM157 807l-133 201h231l61 -191zM409 807l-133 201h231l62 -191z" />
    <glyph glyph-name="Edblgrave.sc" horiz-adv-x="681" 
d="M63 577h571v-159h-348v-62h310v-134h-310v-62h357v-160h-580v577zM20 804h221l54 -164l-153 -7zM256 804h221l55 -164l-154 -7z" />
    <glyph glyph-name="Edieresis" unicode="&#xcb;" horiz-adv-x="727" 
d="M225 794q-66 0 -94 27.5t-28 90.5q0 62 28 90t94 28q68 0 94.5 -29t26.5 -89t-26.5 -89t-94.5 -29zM546 794q-66 0 -93.5 27.5t-27.5 90.5q0 62 27.5 90t93.5 28q68 0 94.5 -29t26.5 -89t-26.5 -89t-94.5 -29zM65 740h616v-176h-381v-106h341v-176h-341v-106h391v-176
h-626v740z" />
    <glyph glyph-name="Edieresis.sc" horiz-adv-x="681" 
d="M213 612q-63 0 -89 25.5t-26 83.5q0 57 26 83t89 26q65 0 89.5 -27.5t24.5 -81.5q0 -55 -24.5 -82t-89.5 -27zM508 612q-63 0 -88.5 25.5t-25.5 83.5q0 57 25.5 83t88.5 26q64 0 89 -27.5t25 -81.5q0 -55 -25 -82t-89 -27zM63 577h571v-159h-348v-62h310v-134h-310v-62
h357v-160h-580v577z" />
    <glyph glyph-name="Edotaccent" unicode="&#x116;" horiz-adv-x="727" 
d="M362 794q-66 0 -94 27.5t-28 90.5q0 62 28 90t94 28q68 0 94.5 -29t26.5 -89t-26.5 -89t-94.5 -29zM65 740h616v-176h-381v-106h341v-176h-341v-106h391v-176h-626v740z" />
    <glyph glyph-name="Edotaccent.sc" horiz-adv-x="681" 
d="M337 613q-63 0 -89 25.5t-26 83.5q0 57 26 83t89 26q64 0 89 -27.5t25 -81.5q0 -55 -25 -82t-89 -27zM63 577h571v-159h-348v-62h310v-134h-310v-62h357v-160h-580v577z" />
    <glyph glyph-name="Edotbelow" unicode="&#x1eb8;" horiz-adv-x="727" 
d="M65 740h616v-176h-381v-106h341v-176h-341v-106h391v-176h-626v740zM392 -220q-50 0 -70.5 20.5t-20.5 66.5q0 47 20.5 67.5t70.5 20.5q52 0 71.5 -22t19.5 -66t-19.5 -65.5t-71.5 -21.5z" />
    <glyph glyph-name="Edotbelow.sc" horiz-adv-x="681" 
d="M366 -181q-47 0 -66 18.5t-19 59.5q0 42 19 60.5t66 18.5q49 0 67 -20.5t18 -58.5t-18 -58t-67 -20zM63 577h571v-159h-348v-62h310v-134h-310v-62h357v-160h-580v577z" />
    <glyph glyph-name="Egrave" unicode="&#xc8;" horiz-adv-x="727" 
d="M321 807l-133 201h236l61 -191zM65 740h616v-176h-381v-106h341v-176h-341v-106h391v-176h-626v740z" />
    <glyph glyph-name="Egrave.sc" horiz-adv-x="681" 
d="M63 577h571v-159h-348v-62h310v-134h-310v-62h357v-160h-580v577zM178 802h224l54 -164l-156 -7z" />
    <glyph glyph-name="Einvertedbreve" unicode="&#x206;" horiz-adv-x="727" 
d="M65 740h616v-176h-381v-106h341v-176h-341v-106h391v-176h-626v740zM480 821q0 21 -4.5 37.5t-16.5 28t-32.5 17.5t-53.5 6q-32 0 -53 -6t-33 -17.5t-16.5 -28t-4.5 -37.5h-149q0 40 12 75.5t41.5 62t78.5 42t124 15.5q74 0 123.5 -15t79 -41.5t41.5 -62t12 -76.5h-149z
" />
    <glyph glyph-name="Einvertedbreve.sc" horiz-adv-x="681" 
d="M109 643q0 32 11 62t38 52.5t73 36t117 13.5q70 0 116 -13t73 -35.5t38 -52t11 -63.5h-140q0 15 -4 27.5t-14.5 21.5t-30 13.5t-49.5 4.5t-49 -4.5t-30 -13.5t-15 -21.5t-4 -27.5h-141zM63 577h571v-159h-348v-62h310v-134h-310v-62h357v-160h-580v577z" />
    <glyph glyph-name="Emacron" unicode="&#x112;" horiz-adv-x="727" 
d="M144 991h466v-148h-466v148zM65 740h616v-176h-381v-106h341v-176h-341v-106h391v-176h-626v740z" />
    <glyph glyph-name="Emacron.sc" horiz-adv-x="681" 
d="M63 577h571v-159h-348v-62h310v-134h-310v-62h357v-160h-580v577zM135 796h434v-138h-434v138z" />
    <glyph glyph-name="Eng" unicode="&#x14a;" horiz-adv-x="879" 
d="M519 -169q18 37 31 66.5t22 55t14.5 49t8.5 49.5l-232 261l-81 101h-10v-413h-207v740h177l291 -328l67 -85h10v413h207v-603q0 -33 -11.5 -77t-31 -92t-46 -97t-56.5 -91z" />
    <glyph glyph-name="Eng.sc" horiz-adv-x="788" 
d="M463 -131q17 33 28.5 55.5t19 40t12 32t7.5 29.5l-185 173l-77 83h-9v-282h-196v577h167l229 -217l63 -65h9v282h196v-458q0 -60 -31 -137.5t-88 -160.5z" />
    <glyph glyph-name="Eogonek" unicode="&#x118;" horiz-adv-x="727" 
d="M65 740h616v-176h-381v-106h341v-176h-341v-106h391v-181q-36 -14 -60.5 -24.5t-39 -20t-20.5 -18t-6 -17.5q0 -20 26 -20q6 0 17.5 1.5t25.5 3.5t29.5 5.5t29.5 6.5v-120q-44 -12 -98 -12q-82 0 -128.5 25.5t-46.5 70.5q0 16 6.5 34t17.5 34.5t26 31t33 24.5h-438v740z
" />
    <glyph glyph-name="Eogonek.sc" horiz-adv-x="681" 
d="M556 -172q-85 0 -125 21.5t-40 59.5q0 31 21 57t46 34h-395v577h571v-159h-348v-62h310v-134h-310v-62h357v-160q-41 -14 -64.5 -23t-34.5 -15t-13.5 -9.5t-2.5 -6.5q0 -7 19 -7q7 0 20 1t27 2.5l28 3t23 3.5v-111q-23 -6 -46 -8t-43 -2z" />
    <glyph glyph-name="Eth" unicode="&#xd0;" horiz-adv-x="879" 
d="M5 462h88v276q105 6 177.5 9t126.5 3q117 0 201.5 -22.5t139.5 -69t81.5 -118.5t26.5 -171q0 -102 -28 -174t-88.5 -117.5t-157 -66.5t-232.5 -21q-35 0 -70 1t-68 2.5t-61 4t-48 5.5v285h-88v174zM438 173q49 0 81 9t51.5 31.5t27.5 60.5t8 95q0 55 -9 93t-29 61
t-53.5 33t-82.5 10q-18 0 -41.5 -1t-62.5 -4v-99h98v-174h-98v-107q22 -4 51.5 -6t58.5 -2z" />
    <glyph glyph-name="Eth.sc" horiz-adv-x="819" 
d="M12 365h79v210q100 5 167.5 7.5t117.5 2.5q213 0 312 -72t99 -226q0 -81 -25.5 -137t-82 -91t-145.5 -51t-215 -16q-32 0 -65 0.5t-63.5 2t-56 3t-43.5 3.5v216h-79v148zM413 164q43 0 71.5 5t45 18.5t23.5 37.5t7 62q0 36 -7.5 60.5t-25 38.5t-46.5 20t-72 6
q-16 0 -36.5 -0.5t-58.5 -2.5v-44h84v-148h-84v-47q18 -2 45.5 -4t53.5 -2z" />
    <glyph glyph-name="Etilde" unicode="&#x1ebc;" horiz-adv-x="727" 
d="M102 861q38 75 89 112.5t97 37.5q29 0 58 -5.5t57.5 -12.5t57.5 -12.5t58 -5.5q24 0 47.5 6.5t57.5 29.5l23 -38q-40 -75 -90.5 -112.5t-94.5 -37.5q-29 0 -58 5.5t-58 12.5t-58 12.5t-58 5.5q-26 0 -49.5 -6.5t-54.5 -29.5zM65 740h616v-176h-381v-106h341v-176h-341
v-106h391v-176h-626v740z" />
    <glyph glyph-name="Etilde.sc" horiz-adv-x="681" 
d="M95 672q35 68 82.5 102.5t90.5 34.5q27 0 54 -4t54 -9t54 -9t54 -4q22 0 43 4.5t53 22.5l21 -33q-38 -69 -85 -103t-87 -34q-27 0 -54.5 4t-54.5 9.5t-54 9.5t-54 4q-23 0 -44.5 -5t-50.5 -23zM63 577h571v-159h-348v-62h310v-134h-310v-62h357v-160h-580v577z" />
    <glyph glyph-name="Euro" unicode="&#x20ac;" horiz-adv-x="780" 
d="M32 516h89q34 115 131.5 174.5t271.5 59.5q77 0 132 -8.5t86 -13.5l-55 -185q-6 2 -19.5 4t-29.5 4t-32.5 3t-29.5 1q-88 0 -136 -7.5t-71 -31.5h303l-20 -124h-314v-45h302l-20 -124h-251q23 -24 72 -31.5t138 -7.5q44 0 82.5 3t80.5 14v-190q-32 -10 -86.5 -15.5
t-113.5 -5.5q-186 0 -287 59t-135 174h-88v124h70v45h-70v124z" />
    <glyph glyph-name="Euro.tab" 
d="M-5 516h82q31 115 123 174.5t256 59.5q75 0 128.5 -8.5t82.5 -13.5l-53 -185q-6 2 -19 4t-28.5 4t-31.5 3t-28 1q-81 0 -125 -7.5t-65 -31.5h286l-18 -124h-295v-45h284l-19 -124h-238q21 -24 65.5 -31.5t127.5 -7.5q43 0 80 3t78 14v-190q-15 -5 -36.5 -9t-47 -6.5
t-54 -4t-56.5 -1.5q-88 0 -155 15t-116 44t-80 73t-47 101h-81v124h64v45h-64v124z" />
    <glyph glyph-name="F" unicode="F" horiz-adv-x="706" 
d="M65 740h616v-176h-381v-136h341v-176h-341v-252h-235v740z" />
    <glyph glyph-name="F.sc" horiz-adv-x="662" 
d="M63 577h571v-164h-348v-83h312v-145h-312v-185h-223v577z" />
    <glyph glyph-name="F_B.sc" horiz-adv-x="1394" 
d="M63 577h571v-164h-348v-83h312v-145h-312v-185h-223v577zM1064 -8q-89 0 -171 3t-177 9v569q78 6 151.5 9t148.5 3q169 0 248 -41t79 -128q0 -45 -30 -72.5t-93 -43.5v-3q71 -11 108.5 -45.5t37.5 -88.5q0 -90 -72.5 -130.5t-229.5 -40.5zM1046 135q53 0 77 12t24 41
q0 26 -23 34.5t-80 8.5h-114v-95q6 -1 12 -1h17.5h31.5h55zM1023 354q57 0 79.5 9.5t22.5 35.5q0 25 -22 34.5t-79 9.5q-28 0 -52 -0.5t-42 -3.5v-85h93z" />
    <glyph glyph-name="F_F.sc" horiz-adv-x="1315" 
d="M63 577h571v-164h-348v-83h312v-145h-312v-185h-223v577zM716 577h571v-164h-348v-83h312v-145h-312v-185h-223v577z" />
    <glyph glyph-name="F_F_B.sc" horiz-adv-x="2047" 
d="M63 577h571v-164h-348v-83h312v-145h-312v-185h-223v577zM716 577h571v-164h-348v-83h312v-145h-312v-185h-223v577zM1717 -8q-89 0 -171 3t-177 9v569q78 6 151.5 9t148.5 3q169 0 248 -41t79 -128q0 -45 -30 -72.5t-93 -43.5v-3q71 -11 108.5 -45.5t37.5 -88.5
q0 -90 -72.5 -130.5t-229.5 -40.5zM1699 135q53 0 77 12t24 41q0 26 -23 34.5t-80 8.5h-114v-95q6 -1 12 -1h17.5h31.5h55zM1676 354q57 0 79.5 9.5t22.5 35.5q0 25 -22 34.5t-79 9.5q-28 0 -52 -0.5t-42 -3.5v-85h93z" />
    <glyph glyph-name="F_F_H.sc" horiz-adv-x="2143" 
d="M63 577h571v-164h-348v-83h312v-145h-312v-185h-223v577zM716 577h571v-164h-348v-83h312v-145h-312v-185h-223v577zM1369 577h223v-198h265v198h223v-577h-223v214h-265v-214h-223v577z" />
    <glyph glyph-name="H.sc" horiz-adv-x="837" 
d="M63 577h223v-198h265v198h223v-577h-223v214h-265v-214h-223v577z" />
    <glyph glyph-name="F_F_I.sc" horiz-adv-x="1655" 
d="M63 577h571v-164h-348v-83h312v-145h-312v-185h-223v577zM716 577h571v-164h-348v-83h312v-145h-312v-185h-223v577zM1369 577h223v-577h-223v577z" />
    <glyph glyph-name="I.sc" horiz-adv-x="349" 
d="M63 577h223v-577h-223v577z" />
    <glyph glyph-name="F_F_J.sc" horiz-adv-x="1661" 
d="M63 577h571v-164h-348v-83h312v-145h-312v-185h-223v577zM716 577h571v-164h-348v-83h312v-145h-312v-185h-223v577zM1311 -121q19 41 32 75t20.5 67t11 66.5t3.5 74.5v415h223v-432q0 -42 -7.5 -80.5t-25 -77.5t-46 -79.5t-70.5 -87.5z" />
    <glyph glyph-name="J.sc" horiz-adv-x="348" 
d="M-2 -121q19 41 32 75t20.5 67t11 66.5t3.5 74.5v415h223v-432q0 -42 -7.5 -80.5t-25 -77.5t-46 -79.5t-70.5 -87.5z" />
    <glyph glyph-name="F_F_K.sc" horiz-adv-x="2062" 
d="M63 577h571v-164h-348v-83h312v-145h-312v-185h-223v577zM716 577h571v-164h-348v-83h312v-145h-312v-185h-223v577zM1369 577h223v-208h75l141 208h248l-184 -245l-54 -21v-8l57 -23l196 -280h-248l-135 204h-96v-204h-223v577z" />
    <glyph glyph-name="K.sc" horiz-adv-x="756" 
d="M63 577h223v-208h75l141 208h248l-184 -245l-54 -21v-8l57 -23l196 -280h-248l-135 204h-96v-204h-223v577z" />
    <glyph glyph-name="F_F_L.sc" horiz-adv-x="1911" 
d="M1369 577h223v-413h302v-164h-525v577zM63 577h571v-164h-348v-83h312v-145h-312v-185h-223v577zM716 577h571v-164h-348v-83h312v-145h-312v-185h-223v577z" />
    <glyph glyph-name="L.sc" horiz-adv-x="605" 
d="M63 577h223v-413h302v-164h-525v577z" />
    <glyph glyph-name="F_F_T.sc" horiz-adv-x="1933" 
d="M1493 413h-192v164h608v-164h-193v-413h-223v413zM63 577h571v-164h-348v-83h312v-145h-312v-185h-223v577zM716 577h571v-164h-348v-83h312v-145h-312v-185h-223v577z" />
    <glyph glyph-name="T.sc" horiz-adv-x="656" 
d="M216 413h-192v164h608v-164h-193v-413h-223v413z" />
    <glyph glyph-name="F_H.sc" horiz-adv-x="1490" 
d="M63 577h571v-164h-348v-83h312v-145h-312v-185h-223v577zM716 577h223v-198h265v198h223v-577h-223v214h-265v-214h-223v577z" />
    <glyph glyph-name="F_I.sc" horiz-adv-x="1002" 
d="M63 577h571v-164h-348v-83h312v-145h-312v-185h-223v577zM716 577h223v-577h-223v577z" />
    <glyph glyph-name="F_J.sc" horiz-adv-x="1008" 
d="M63 577h571v-164h-348v-83h312v-145h-312v-185h-223v577zM658 -121q19 41 32 75t20.5 67t11 66.5t3.5 74.5v415h223v-432q0 -42 -7.5 -80.5t-25 -77.5t-46 -79.5t-70.5 -87.5z" />
    <glyph glyph-name="F_K.sc" horiz-adv-x="1409" 
d="M63 577h571v-164h-348v-83h312v-145h-312v-185h-223v577zM716 577h223v-208h75l141 208h248l-184 -245l-54 -21v-8l57 -23l196 -280h-248l-135 204h-96v-204h-223v577z" />
    <glyph glyph-name="F_L.sc" horiz-adv-x="1258" 
d="M716 577h223v-413h302v-164h-525v577zM63 577h571v-164h-348v-83h312v-145h-312v-185h-223v577z" />
    <glyph glyph-name="F_T.sc" horiz-adv-x="1280" 
d="M840 413h-192v164h608v-164h-193v-413h-223v413zM63 577h571v-164h-348v-83h312v-145h-312v-185h-223v577z" />
    <glyph glyph-name="G" unicode="G" horiz-adv-x="771" 
d="M456 -15q-217 0 -320.5 93.5t-103.5 290.5q0 196 107 291t328 95q31 0 65 -2t67 -5t62.5 -7.5t51.5 -9.5v-186q-73 11 -131.5 16t-96.5 5q-67 0 -108 -7.5t-64 -29t-31 -60t-8 -100.5q0 -60 7 -98t27.5 -59.5t56.5 -29t93 -7.5h23.5t26.5 1v200h216v-345
q-30 -10 -65.5 -18.5t-71.5 -14.5t-70 -9.5t-61 -3.5z" />
    <glyph glyph-name="G.sc" horiz-adv-x="718" 
d="M425 -14q-203 0 -298 73t-95 229q0 155 98 228.5t303 73.5q28 0 60 -1.5t62.5 -4t58.5 -5.5t48 -7v-170q-69 5 -123.5 7.5t-88.5 2.5q-65 0 -102 -3.5t-56.5 -16t-24.5 -37.5t-5 -67q0 -41 5 -65t22 -37t49.5 -16.5t87.5 -3.5h40v127h206v-267q-29 -9 -62 -16t-66 -12.5
t-64 -8.5t-55 -3z" />
    <glyph glyph-name="Gacute" unicode="&#x1f4;" horiz-adv-x="771" 
d="M311 817l62 191h235l-132 -201zM456 -15q-217 0 -320.5 93.5t-103.5 290.5q0 196 107 291t328 95q31 0 65 -2t67 -5t62.5 -7.5t51.5 -9.5v-186q-73 11 -131.5 16t-96.5 5q-67 0 -108 -7.5t-64 -29t-31 -60t-8 -100.5q0 -60 7 -98t27.5 -59.5t56.5 -29t93 -7.5h23.5
t26.5 1v200h216v-345q-30 -10 -65.5 -18.5t-71.5 -14.5t-70 -9.5t-61 -3.5z" />
    <glyph glyph-name="Gacute.sc" horiz-adv-x="718" 
d="M425 -14q-202 0 -297.5 72.5t-95.5 229.5q0 155 98.5 228.5t302.5 73.5q29 0 61 -1.5t63 -4t58 -5.5t47 -7v-175q-68 7 -123 11t-89 4q-61 0 -98 -2.5t-57 -14.5t-26.5 -37t-6.5 -70q0 -43 6 -67.5t24 -36.5t50 -15t84 -3h40v127h206v-267q-27 -8 -59.5 -15.5t-65.5 -13
t-65 -8.5t-57 -3zM286 640l55 162h223l-121 -171z" />
    <glyph glyph-name="Gbreve" unicode="&#x11e;" horiz-adv-x="771" 
d="M418 811q-75 0 -124 15.5t-78.5 42t-41.5 62t-12 75.5h149q0 -21 4.5 -38t16.5 -28.5t33 -17.5t53 -6q33 0 53.5 6t32.5 17.5t16.5 28.5t4.5 38h149q0 -42 -12 -77.5t-41.5 -61.5t-79 -41t-123.5 -15zM456 -15q-217 0 -320.5 93.5t-103.5 290.5q0 196 107 291t328 95
q31 0 65 -2t67 -5t62.5 -7.5t51.5 -9.5v-186q-73 11 -131.5 16t-96.5 5q-67 0 -108 -7.5t-64 -29t-31 -60t-8 -100.5q0 -60 7 -98t27.5 -59.5t56.5 -29t93 -7.5h23.5t26.5 1v200h216v-345q-30 -10 -65.5 -18.5t-71.5 -14.5t-70 -9.5t-61 -3.5z" />
    <glyph glyph-name="Gbreve.sc" horiz-adv-x="718" 
d="M425 -14q-202 0 -297.5 72.5t-95.5 229.5q0 155 98.5 228.5t302.5 73.5q29 0 61 -1.5t63 -4t58 -5.5t47 -7v-175q-68 7 -123 11t-89 4q-61 0 -98 -2.5t-57 -14.5t-26.5 -37t-6.5 -70q0 -43 6 -67.5t24 -36.5t50 -15t84 -3h40v127h206v-267q-27 -8 -59.5 -15.5t-65.5 -13
t-65 -8.5t-57 -3zM388 633q-71 0 -117 13.5t-73 36t-37.5 52t-10.5 62.5h140q0 -32 19.5 -50t78.5 -18q30 0 49.5 4.5t30 13.5t14.5 21.5t4 28.5h141q0 -34 -11 -64t-38 -52t-73.5 -35t-116.5 -13z" />
    <glyph glyph-name="Gcircumflex" unicode="&#x11c;" horiz-adv-x="771" 
d="M456 -15q-217 0 -320.5 93.5t-103.5 290.5q0 196 107 291t328 95q31 0 65 -2t67 -5t62.5 -7.5t51.5 -9.5v-186q-73 11 -131.5 16t-96.5 5q-67 0 -108 -7.5t-64 -29t-31 -60t-8 -100.5q0 -60 7 -98t27.5 -59.5t56.5 -29t93 -7.5h23.5t26.5 1v200h216v-345
q-30 -10 -65.5 -18.5t-71.5 -14.5t-70 -9.5t-61 -3.5zM166 945l232 82l238 -82v-148l-235 81l-235 -81v148z" />
    <glyph glyph-name="Gcircumflex.sc" horiz-adv-x="718" 
d="M425 -14q-202 0 -297.5 72.5t-95.5 229.5q0 155 98.5 228.5t302.5 73.5q29 0 61 -1.5t63 -4t58 -5.5t47 -7v-175q-68 7 -123 11t-89 4q-61 0 -98 -2.5t-57 -14.5t-26.5 -37t-6.5 -70q0 -43 6 -67.5t24 -36.5t50 -15t84 -3h40v127h206v-267q-27 -8 -59.5 -15.5t-65.5 -13
t-65 -8.5t-57 -3zM152 755l216 67l222 -67v-137l-219 66l-219 -66v137z" />
    <glyph glyph-name="Gcommaaccent" unicode="&#x122;" horiz-adv-x="771" 
d="M290 -70h236l-104 -150h-171zM456 -15q-217 0 -320.5 93.5t-103.5 290.5q0 196 107 291t328 95q31 0 65 -2t67 -5t62.5 -7.5t51.5 -9.5v-186q-73 11 -131.5 16t-96.5 5q-67 0 -108 -7.5t-64 -29t-31 -60t-8 -100.5q0 -60 7 -98t27.5 -59.5t56.5 -29t93 -7.5h23.5t26.5 1
v200h216v-345q-30 -10 -65.5 -18.5t-71.5 -14.5t-70 -9.5t-61 -3.5z" />
    <glyph glyph-name="commaaccent" unicode="&#xf6c3;" horiz-adv-x="325" 
d="M74 -70h236l-104 -150h-171z" />
    <glyph glyph-name="Gcommaaccent.sc" horiz-adv-x="718" 
d="M425 -14q-202 0 -297.5 72.5t-95.5 229.5q0 155 98.5 228.5t302.5 73.5q29 0 61 -1.5t63 -4t58 -5.5t47 -7v-175q-68 7 -123 11t-89 4q-61 0 -98 -2.5t-57 -14.5t-26.5 -37t-6.5 -70q0 -43 6 -67.5t24 -36.5t50 -15t84 -3h40v127h206v-267q-27 -8 -59.5 -15.5t-65.5 -13
t-65 -8.5t-57 -3zM265 -55h224l-96 -117h-162z" />
    <glyph glyph-name="Gdotaccent" unicode="&#x120;" horiz-adv-x="771" 
d="M423 794q-66 0 -94 27.5t-28 90.5q0 62 28 90t94 28q68 0 94.5 -29t26.5 -89t-26.5 -89t-94.5 -29zM456 -15q-217 0 -320.5 93.5t-103.5 290.5q0 196 107 291t328 95q31 0 65 -2t67 -5t62.5 -7.5t51.5 -9.5v-186q-73 11 -131.5 16t-96.5 5q-67 0 -108 -7.5t-64 -29
t-31 -60t-8 -100.5q0 -60 7 -98t27.5 -59.5t56.5 -29t93 -7.5h23.5t26.5 1v200h216v-345q-30 -10 -65.5 -18.5t-71.5 -14.5t-70 -9.5t-61 -3.5z" />
    <glyph glyph-name="Gdotaccent.sc" horiz-adv-x="718" 
d="M425 -14q-202 0 -297.5 72.5t-95.5 229.5q0 155 98.5 228.5t302.5 73.5q29 0 61 -1.5t63 -4t58 -5.5t47 -7v-175q-68 7 -123 11t-89 4q-61 0 -98 -2.5t-57 -14.5t-26.5 -37t-6.5 -70q0 -43 6 -67.5t24 -36.5t50 -15t84 -3h40v127h206v-267q-27 -8 -59.5 -15.5t-65.5 -13
t-65 -8.5t-57 -3zM393 613q-63 0 -89 25.5t-26 83.5q0 57 26 83t89 26q65 0 89.5 -27.5t24.5 -81.5q0 -55 -24.5 -82t-89.5 -27z" />
    <glyph glyph-name="H" unicode="H" horiz-adv-x="898" 
d="M65 740h235v-272h298v272h235v-740h-235v292h-298v-292h-235v740z" />
    <glyph glyph-name="Hbar" unicode="&#x126;" horiz-adv-x="914" 
d="M8 637h64v103h235v-103h298v103h235v-103h67v-103h-67v-534h-235v292h-298v-292h-235v534h-64v103zM605 468v66h-298v-66h298z" />
    <glyph glyph-name="Hbar.sc" horiz-adv-x="849" 
d="M13 508h56v69h223v-69h265v69h223v-69h58v-95h-58v-413h-223v194h-265v-194h-223v413h-56v95zM557 359v54h-265v-54h265z" />
    <glyph glyph-name="Hcircumflex" unicode="&#x124;" horiz-adv-x="898" 
d="M65 740h235v-272h298v272h235v-740h-235v292h-298v-292h-235v740zM216 945l232 82l238 -82v-148l-235 81l-235 -81v148z" />
    <glyph glyph-name="Hcircumflex.sc" horiz-adv-x="837" 
d="M63 577h223v-198h265v198h223v-577h-223v214h-265v-214h-223v577zM202 755l216 67l222 -67v-137l-219 66l-219 -66v137z" />
    <glyph glyph-name="Hdotbelow" unicode="&#x1e24;" horiz-adv-x="898" 
d="M65 740h235v-272h298v272h235v-740h-235v292h-298v-292h-235v740zM445 -220q-50 0 -70.5 20.5t-20.5 66.5q0 47 20.5 67.5t70.5 20.5q52 0 71.5 -22t19.5 -66t-19.5 -65.5t-71.5 -21.5z" />
    <glyph glyph-name="Hdotbelow.sc" horiz-adv-x="837" 
d="M63 577h223v-198h265v198h223v-577h-223v214h-265v-214h-223v577zM414 -181q-47 0 -66 18.5t-19 59.5q0 42 19 60.5t66 18.5q49 0 67 -20.5t18 -58.5t-18 -58t-67 -20z" />
    <glyph glyph-name="I" unicode="I" horiz-adv-x="365" 
d="M65 740h235v-740h-235v740z" />
    <glyph glyph-name="IJ" unicode="&#x132;" horiz-adv-x="729" 
d="M65 740h235v-740h-235v740zM357 -156q21 51 35.5 93.5t23.5 84t12.5 85t3.5 95.5v538h235v-556q0 -53 -8.5 -100.5t-27 -95.5t-49.5 -98.5t-76 -109.5z" />
    <glyph glyph-name="J" unicode="J" horiz-adv-x="364" 
d="M-8 -156q21 51 35.5 93.5t23.5 84t12.5 85t3.5 95.5v538h235v-556q0 -53 -8.5 -100.5t-27 -95.5t-49.5 -98.5t-76 -109.5z" />
    <glyph glyph-name="Iacute" unicode="&#xcd;" horiz-adv-x="365" 
d="M65 740h235v-740h-235v740zM96 817l62 191h235l-132 -201z" />
    <glyph glyph-name="Iacute.sc" horiz-adv-x="349" 
d="M63 577h223v-577h-223v577zM93 640l55 162h223l-122 -171z" />
    <glyph glyph-name="Ibreve" unicode="&#x12c;" horiz-adv-x="365" 
d="M65 740h235v-740h-235v740zM182 811q-75 0 -124 15.5t-78.5 42t-41.5 62t-12 75.5h149q0 -21 4.5 -38t16.5 -28.5t33 -17.5t53 -6q33 0 53.5 6t32.5 17.5t16.5 28.5t4.5 38h149q0 -42 -12 -77.5t-41.5 -61.5t-79 -41t-123.5 -15z" />
    <glyph glyph-name="Ibreve.sc" horiz-adv-x="349" 
d="M63 577h223v-577h-223v577zM174 633q-71 0 -117 13.5t-73 36t-38 52t-11 62.5h141q0 -16 4 -28.5t15 -21.5t30 -13.5t49 -4.5t49.5 4.5t30 13.5t14.5 21.5t4 28.5h140q0 -34 -11 -64t-38 -52t-73 -35t-116 -13z" />
    <glyph glyph-name="Icircumflex" unicode="&#xce;" horiz-adv-x="365" 
d="M65 740h235v-740h-235v740zM-49 945l232 82l238 -82v-148l-235 81l-235 -81v148z" />
    <glyph glyph-name="Icircumflex.sc" horiz-adv-x="349" 
d="M63 577h223v-577h-223v577zM-41 755l216 67l222 -67v-137l-219 66l-219 -66v137z" />
    <glyph glyph-name="Idblgrave" unicode="&#x208;" horiz-adv-x="365" 
d="M65 740h235v-740h-235v740zM-5 807l-133 201h231l61 -191zM247 807l-133 201h231l62 -191z" />
    <glyph glyph-name="Idblgrave.sc" horiz-adv-x="349" 
d="M63 577h223v-577h-223v577zM-3 633l-122 171h221l54 -164zM233 633l-122 171h221l55 -164z" />
    <glyph glyph-name="Idieresis" unicode="&#xcf;" horiz-adv-x="365" 
d="M65 740h235v-740h-235v740zM27 794q-66 0 -94 27.5t-28 90.5q0 62 28 90t94 28q68 0 94.5 -29t26.5 -89t-26.5 -89t-94.5 -29zM348 794q-66 0 -93.5 27.5t-27.5 90.5q0 62 27.5 90t93.5 28q68 0 94.5 -29t26.5 -89t-26.5 -89t-94.5 -29z" />
    <glyph glyph-name="Idieresis.sc" horiz-adv-x="349" 
d="M63 577h223v-577h-223v577zM32 612q-63 0 -89 25.5t-26 83.5q0 57 26 83t89 26q65 0 89.5 -27.5t24.5 -81.5q0 -55 -24.5 -82t-89.5 -27zM327 612q-63 0 -88.5 25.5t-25.5 83.5q0 57 25.5 83t88.5 26q64 0 89 -27.5t25 -81.5q0 -55 -25 -82t-89 -27z" />
    <glyph glyph-name="Idotaccent" unicode="&#x130;" horiz-adv-x="365" 
d="M65 740h235v-740h-235v740zM184 794q-66 0 -94 27.5t-28 90.5q0 62 28 90t94 28q68 0 94.5 -29t26.5 -89t-26.5 -89t-94.5 -29z" />
    <glyph glyph-name="Idotaccent.sc" horiz-adv-x="349" 
d="M63 577h223v-577h-223v577zM176 613q-63 0 -89 25.5t-26 83.5q0 57 26 83t89 26q65 0 89.5 -27.5t24.5 -81.5q0 -55 -24.5 -82t-89.5 -27z" />
    <glyph glyph-name="Idotbelow" unicode="&#x1eca;" horiz-adv-x="365" 
d="M65 740h235v-740h-235v740zM183 -220q-50 0 -70.5 20.5t-20.5 66.5q0 47 20.5 67.5t70.5 20.5q52 0 71.5 -22t19.5 -66t-19.5 -65.5t-71.5 -21.5z" />
    <glyph glyph-name="Idotbelow.sc" horiz-adv-x="349" 
d="M63 577h223v-577h-223v577zM175 -181q-47 0 -66 18.5t-19 59.5q0 42 19 60.5t66 18.5q49 0 67 -20.5t18 -58.5t-18 -58t-67 -20z" />
    <glyph glyph-name="Igrave" unicode="&#xcc;" horiz-adv-x="365" 
d="M65 740h235v-740h-235v740zM122 807l-133 201h236l61 -191z" />
    <glyph glyph-name="Igrave.sc" horiz-adv-x="349" 
d="M63 577h223v-577h-223v577zM119 631l-123 171h224l54 -164z" />
    <glyph glyph-name="Iinvertedbreve" unicode="&#x20a;" horiz-adv-x="365" 
d="M65 740h235v-740h-235v740zM294 821q0 21 -4.5 37.5t-16.5 28t-32.5 17.5t-53.5 6q-32 0 -53 -6t-33 -17.5t-16.5 -28t-4.5 -37.5h-149q0 40 12 75.5t41.5 62t78.5 42t124 15.5q74 0 123.5 -15t79 -41.5t41.5 -62t12 -76.5h-149z" />
    <glyph glyph-name="Iinvertedbreve.sc" horiz-adv-x="349" 
d="M63 577h223v-577h-223v577zM277 643q0 15 -4 27.5t-14.5 21.5t-30 13.5t-49.5 4.5t-49 -4.5t-30 -13.5t-15 -21.5t-4 -27.5h-141q0 32 11 62t38 52.5t73 36t117 13.5q70 0 116 -13t73 -35.5t38 -52t11 -63.5h-140z" />
    <glyph glyph-name="Imacron" unicode="&#x12a;" horiz-adv-x="365" 
d="M65 740h235v-740h-235v740zM-42 991h466v-148h-466v148z" />
    <glyph glyph-name="Imacron.sc" horiz-adv-x="349" 
d="M63 577h223v-577h-223v577zM-34 796h434v-138h-434v138z" />
    <glyph glyph-name="Iogonek" unicode="&#x12e;" horiz-adv-x="365" 
d="M65 740h235v-745q-36 -14 -60.5 -24.5t-39 -20t-20.5 -18t-6 -17.5q0 -20 26 -20q6 0 17.5 1.5t25.5 3.5t29.5 5.5t29.5 6.5v-120q-44 -12 -98 -12q-82 0 -128.5 25.5t-46.5 70.5q0 16 6.5 34t17.5 34.5t26 31t33 24.5h-47v740z" />
    <glyph glyph-name="Iogonek.sc" horiz-adv-x="349" 
d="M63 577h223v-577q-42 -14 -65 -23t-34 -15t-13.5 -9.5t-2.5 -6.5q0 -7 19 -7q7 0 20 1t27 2.5l28 3t23 3.5v-111q-23 -6 -46 -8t-44 -2q-77 0 -120.5 23t-43.5 58q0 15 6 29.5t15.5 27t21.5 21.5t24 13h-38v577z" />
    <glyph glyph-name="Itilde" unicode="&#x128;" horiz-adv-x="365" 
d="M65 740h235v-740h-235v740zM-87 861q38 75 89 112.5t97 37.5q29 0 58 -5.5t57.5 -12.5t57.5 -12.5t58 -5.5q24 0 47.5 6.5t57.5 29.5l23 -38q-40 -75 -90.5 -112.5t-94.5 -37.5q-29 0 -58 5.5t-58 12.5t-58 12.5t-58 5.5q-26 0 -49.5 -6.5t-54.5 -29.5z" />
    <glyph glyph-name="Itilde.sc" horiz-adv-x="349" 
d="M63 577h223v-577h-223v577zM-77 672q35 68 82.5 102.5t90.5 34.5q27 0 54 -4t54 -9t54 -9t54 -4q22 0 43 4.5t53 22.5l21 -33q-38 -69 -85 -103t-87 -34q-27 0 -54.5 4t-54.5 9.5t-54 9.5t-54 4q-23 0 -44.5 -5t-50.5 -23z" />
    <glyph glyph-name="Jcircumflex" unicode="&#x134;" horiz-adv-x="364" 
d="M-8 -156q21 51 35.5 93.5t23.5 84t12.5 85t3.5 95.5v538h235v-556q0 -53 -8.5 -100.5t-27 -95.5t-49.5 -98.5t-76 -109.5zM-48 945l232 82l238 -82v-148l-235 81l-235 -81v148z" />
    <glyph glyph-name="Jcircumflex.sc" horiz-adv-x="348" 
d="M-3 -121q19 41 32 75t21 67t11.5 66.5t3.5 74.5v415h223v-432q0 -42 -8 -80.5t-25.5 -77.5t-46 -79.5t-70.5 -87.5zM-41 755l216 67l222 -67v-137l-219 66l-219 -66v137z" />
    <glyph glyph-name="K" unicode="K" horiz-adv-x="810" 
d="M65 740h235v-282h87l158 282h261l-202 -319l-55 -26v-10l58 -28l216 -357h-261l-154 282h-108v-282h-235v740z" />
    <glyph glyph-name="Kcommaaccent" unicode="&#x136;" horiz-adv-x="810" 
d="M251 -70h236l-104 -150h-171zM65 740h235v-282h87l158 282h261l-202 -319l-55 -26v-10l58 -28l216 -357h-261l-154 282h-108v-282h-235v740z" />
    <glyph glyph-name="Kcommaaccent.sc" horiz-adv-x="756" 
d="M63 577h223v-208h75l141 208h248l-184 -245l-54 -21v-8l57 -23l196 -280h-248l-135 204h-96v-204h-223v577zM278 -55h224l-96 -117h-162z" />
    <glyph glyph-name="L" unicode="L" horiz-adv-x="644" 
d="M65 740h235v-565h331v-175h-566v740z" />
    <glyph glyph-name="Lacute" unicode="&#x139;" horiz-adv-x="643" 
d="M104 817l62 191h235l-132 -201zM65 740h235v-565h331v-175h-566v740z" />
    <glyph glyph-name="Lacute.sc" horiz-adv-x="605" 
d="M63 577h223v-413h302v-164h-525v577zM101 640l55 162h223l-122 -171z" />
    <glyph glyph-name="Lcaron" unicode="&#x13d;" horiz-adv-x="644" 
d="M426 808h178l-53 -228h-125v228zM65 740h235v-565h331v-175h-566v740z" />
    <glyph glyph-name="caron.alt" horiz-adv-x="262" 
d="M51 808h178l-53 -228h-125v228z" />
    <glyph glyph-name="Lcaron.sc" horiz-adv-x="605" 
d="M63 577h223v-413h302v-164h-525v577zM391 643h169l-50 -178h-119v178z" />
    <glyph glyph-name="Lcommaaccent" unicode="&#x13b;" horiz-adv-x="643" 
d="M196 -70h236l-104 -150h-171zM65 740h235v-565h331v-175h-566v740z" />
    <glyph glyph-name="Lcommaaccent.sc" horiz-adv-x="605" 
d="M63 577h223v-413h302v-164h-525v577zM178 -55h224l-96 -117h-162z" />
    <glyph glyph-name="Ldot" unicode="&#x13f;" horiz-adv-x="656" 
d="M65 740h235v-565h331v-175h-566v740zM532 286q-66 0 -94 27.5t-28 90.5t28 90.5t94 27.5q68 0 94.5 -29t26.5 -89t-26.5 -89t-94.5 -29z" />
    <glyph glyph-name="periodcentered" unicode="&#xb7;" horiz-adv-x="317" 
d="M159 252q-66 0 -94 27.5t-28 90.5t28 90.5t94 27.5q68 0 94.5 -29t26.5 -89t-26.5 -89t-94.5 -29z" />
    <glyph glyph-name="Ldot.sc" horiz-adv-x="618" 
d="M63 577h223v-413h302v-164h-525v577zM496 215q-63 0 -89 25.5t-26 83.5q0 57 26 83t89 26q65 0 89.5 -27.5t24.5 -81.5q0 -55 -24.5 -82t-89.5 -27z" />
    <glyph glyph-name="Lslash" unicode="&#x141;" horiz-adv-x="662" 
d="M11 390l72 30v320h235v-220l131 56v-164l-131 -56v-181h331v-175h-566v256l-72 -30v164z" />
    <glyph glyph-name="Lslash.sc" horiz-adv-x="620" 
d="M14 329l64 22v226h223v-150l116 40v-153l-116 -40v-110h302v-164h-525v198l-64 -22v153z" />
    <glyph glyph-name="M" unicode="M" horiz-adv-x="1084" 
d="M65 740h315l115 -295l44 -155h6l44 155l115 295h315v-740h-204v492h-10l-70 -223l-101 -242h-184l-101 242l-70 223h-10v-492h-204v740z" />
    <glyph glyph-name="M.sc" horiz-adv-x="1005" 
d="M63 577h284l102 -192l49 -116h9l48 116l103 192h284v-577h-196v352h-9l-74 -180l-77 -152h-167l-77 152l-74 180h-9v-352h-196v577z" />
    <glyph glyph-name="N" unicode="N" horiz-adv-x="882" 
d="M65 740h182l289 -328l67 -84h10v412h204v-740h-182l-275 312l-81 100h-10v-412h-204v740z" />
    <glyph glyph-name="N.sc" horiz-adv-x="790" 
d="M63 577h167l229 -217l63 -65h9v282h196v-577h-167l-215 199l-77 83h-9v-282h-196v577z" />
    <glyph glyph-name="A" unicode="A" horiz-adv-x="825" 
d="M-5 12l245 728h345l245 -728v-12h-228l-47 148h-286l-46 -148h-228v12zM501 324l-28 88l-51 171h-20l-51 -173l-27 -86h177z" />
    <glyph glyph-name="Nacute" unicode="&#x143;" horiz-adv-x="882" 
d="M322 817l62 191h235l-132 -201zM65 740h182l289 -328l67 -84h10v412h204v-740h-182l-275 312l-81 100h-10v-412h-204v740z" />
    <glyph glyph-name="Nacute.sc" horiz-adv-x="790" 
d="M63 577h167l229 -217l63 -65h9v282h196v-577h-167l-215 199l-77 83h-9v-282h-196v577zM286 640l55 162h223l-122 -171z" />
    <glyph glyph-name="Ncaron" unicode="&#x147;" horiz-adv-x="882" 
d="M209 1027l235 -82l235 82v-149l-238 -81l-232 81v149zM65 740h182l289 -328l67 -84h10v412h204v-740h-182l-275 312l-81 100h-10v-412h-204v740z" />
    <glyph glyph-name="Ncaron.sc" horiz-adv-x="790" 
d="M63 577h167l229 -217l63 -65h9v282h196v-577h-167l-215 199l-77 83h-9v-282h-196v577zM179 684v138l219 -67l220 67v-138l-223 -66z" />
    <glyph glyph-name="Ncommaaccent" unicode="&#x145;" horiz-adv-x="882" 
d="M329 -70h236l-104 -150h-171zM65 740h182l289 -328l67 -84h10v412h204v-740h-182l-275 312l-81 100h-10v-412h-204v740z" />
    <glyph glyph-name="Ncommaaccent.sc" horiz-adv-x="790" 
d="M63 577h167l229 -217l63 -65h9v282h196v-577h-167l-215 199l-77 83h-9v-282h-196v577zM288 -55h224l-97 -117h-162z" />
    <glyph glyph-name="Ndotaccent" unicode="&#x1e44;" horiz-adv-x="882" 
d="M445 794q-66 0 -94 27.5t-28 90.5q0 62 28 90t94 28q68 0 94.5 -29t26.5 -89t-26.5 -89t-94.5 -29zM65 740h182l289 -328l67 -84h10v412h204v-740h-182l-275 312l-81 100h-10v-412h-204v740z" />
    <glyph glyph-name="Ndotaccent.sc" horiz-adv-x="790" 
d="M63 577h167l229 -217l63 -65h9v282h196v-577h-167l-215 199l-77 83h-9v-282h-196v577zM401 613q-63 0 -89 25.5t-26 83.5q0 57 26 83t89 26q64 0 89 -27.5t25 -81.5q0 -55 -25 -82t-89 -27z" />
    <glyph glyph-name="Ntilde" unicode="&#xd1;" horiz-adv-x="882" 
d="M173 861q38 75 89 112.5t97 37.5q29 0 58 -5.5t57.5 -12.5t57.5 -12.5t58 -5.5q24 0 47.5 6.5t57.5 29.5l23 -38q-40 -75 -90.5 -112.5t-94.5 -37.5q-29 0 -58 5.5t-58 12.5t-58 12.5t-58 5.5q-26 0 -49.5 -6.5t-54.5 -29.5zM65 740h182l289 -328l67 -84h10v412h204v-740
h-182l-275 312l-81 100h-10v-412h-204v740z" />
    <glyph glyph-name="Ntilde.sc" horiz-adv-x="790" 
d="M147 672q35 68 83 102.5t90 34.5q27 0 54 -4t54 -9t54 -9t54 -4q22 0 43 4.5t53 22.5l21 -33q-37 -69 -84.5 -103t-87.5 -34q-27 0 -54.5 4t-54.5 9.5t-54 9.5t-54 4q-23 0 -44.5 -5t-50.5 -23zM63 577h167l229 -217l63 -65h9v282h196v-577h-167l-215 199l-77 83h-9v-282
h-196v577z" />
    <glyph glyph-name="O" unicode="O" horiz-adv-x="866" 
d="M433 -10q-196 0 -298.5 96.5t-102.5 282.5q0 187 102 284t299 97q195 0 298 -97.5t103 -283.5q0 -185 -103 -282t-298 -97zM433 174q48 0 79.5 7.5t49.5 29t25 59.5t7 99q0 59 -8 97t-26.5 60.5t-49.5 31t-77 8.5q-47 0 -77.5 -8.5t-49.5 -30t-26.5 -60t-7.5 -98.5
q0 -61 7.5 -99t25.5 -59.5t49 -29t79 -7.5z" />
    <glyph glyph-name="O.sc" horiz-adv-x="801" 
d="M401 -8q-180 0 -275 75.5t-95 220.5q0 146 94 221.5t276 75.5q180 0 274.5 -76.5t94.5 -220.5q0 -143 -95 -219.5t-274 -76.5zM401 165q47 0 75 4t43 16.5t19.5 37t4.5 65.5q0 39 -5.5 63t-21 37.5t-43.5 18.5t-72 5q-45 0 -73 -4.5t-43 -18t-20.5 -38t-5.5 -63.5
q0 -41 4.5 -65t19.5 -37t43 -17t75 -4z" />
    <glyph glyph-name="OE" unicode="&#x152;" horiz-adv-x="1236" 
d="M433 -10q-196 0 -298.5 96.5t-102.5 282.5q0 187 102 284t299 97q43 0 76 -2.5t65 -7.5h616v-176h-381v-106h341v-176h-341v-106h391v-176h-626q-35 -5 -68.5 -7.5t-72.5 -2.5zM433 174q45 0 80 1t61 5v380q-26 2 -60 4t-81 2t-77.5 -8.5t-49.5 -30t-26.5 -60t-7.5 -98.5
q0 -61 7.5 -99t25.5 -59.5t49 -29t79 -7.5z" />
    <glyph glyph-name="OE.sc" horiz-adv-x="1152" 
d="M400 -8q-180 0 -274 75.5t-94 220.5q0 146 93.5 221.5t274.5 75.5q41 0 71.5 -2.5t59.5 -5.5h574v-159h-351v-62h312v-134h-312v-62h360v-160h-583q-32 -5 -63 -6.5t-68 -1.5zM399 165q84 0 132 3v241q-23 1 -55 2t-77 1q-41 0 -68 -3.5t-42.5 -16t-22 -37.5t-6.5 -67
q0 -44 6 -68.5t21.5 -36.5t42.5 -15t69 -3z" />
    <glyph glyph-name="Oacute" unicode="&#xd3;" horiz-adv-x="866" 
d="M347 817l62 191h235l-132 -201zM433 -10q-196 0 -298.5 96.5t-102.5 282.5q0 187 102 284t299 97q195 0 298 -97.5t103 -283.5q0 -185 -103 -282t-298 -97zM433 174q48 0 79.5 7.5t49.5 29t25 59.5t7 99q0 59 -8 97t-26.5 60.5t-49.5 31t-77 8.5q-47 0 -77.5 -8.5
t-49.5 -30t-26.5 -60t-7.5 -98.5q0 -61 7.5 -99t25.5 -59.5t49 -29t79 -7.5z" />
    <glyph glyph-name="Oacute.sc" horiz-adv-x="802" 
d="M402 -8q-180 0 -275 75.5t-95 220.5q0 146 94 221.5t276 75.5q180 0 274.5 -76.5t94.5 -220.5q0 -143 -95 -219.5t-274 -76.5zM402 165q47 0 75 4t43 16.5t19.5 37t4.5 65.5q0 39 -5.5 63t-21 37.5t-43.5 18.5t-72 5q-45 0 -73 -4.5t-43 -18t-20.5 -38t-5.5 -63.5
q0 -41 4.5 -65t19.5 -37t43 -17t75 -4zM321 640l55 162h223l-122 -171z" />
    <glyph glyph-name="Obreve" unicode="&#x14e;" horiz-adv-x="866" 
d="M430 811q-75 0 -124 15.5t-78.5 42t-41.5 62t-12 75.5h149q0 -21 4.5 -38t16.5 -28.5t33 -17.5t53 -6q33 0 53.5 6t32.5 17.5t16.5 28.5t4.5 38h149q0 -42 -12 -77.5t-41.5 -61.5t-79 -41t-123.5 -15zM433 -10q-196 0 -298.5 96.5t-102.5 282.5q0 187 102 284t299 97
q195 0 298 -97.5t103 -283.5q0 -185 -103 -282t-298 -97zM433 174q48 0 79.5 7.5t49.5 29t25 59.5t7 99q0 59 -8 97t-26.5 60.5t-49.5 31t-77 8.5q-47 0 -77.5 -8.5t-49.5 -30t-26.5 -60t-7.5 -98.5q0 -61 7.5 -99t25.5 -59.5t49 -29t79 -7.5z" />
    <glyph glyph-name="Obreve.sc" horiz-adv-x="802" 
d="M402 -8q-180 0 -275 75.5t-95 220.5q0 146 94 221.5t276 75.5q180 0 274.5 -76.5t94.5 -220.5q0 -143 -95 -219.5t-274 -76.5zM402 165q47 0 75 4t43 16.5t19.5 37t4.5 65.5q0 39 -5.5 63t-21 37.5t-43.5 18.5t-72 5q-45 0 -73 -4.5t-43 -18t-20.5 -38t-5.5 -63.5
q0 -41 4.5 -65t19.5 -37t43 -17t75 -4zM399 633q-118 0 -178.5 41.5t-60.5 122.5h141q0 -37 22.5 -52.5t75.5 -15.5q54 0 76 15.5t22 52.5h140q0 -164 -238 -164z" />
    <glyph glyph-name="Ocircumflex" unicode="&#xd4;" horiz-adv-x="866" 
d="M433 -10q-196 0 -298.5 96.5t-102.5 282.5q0 187 102 284t299 97q195 0 298 -97.5t103 -283.5q0 -185 -103 -282t-298 -97zM433 174q48 0 79.5 7.5t49.5 29t25 59.5t7 99q0 59 -8 97t-26.5 60.5t-49.5 31t-77 8.5q-47 0 -77.5 -8.5t-49.5 -30t-26.5 -60t-7.5 -98.5
q0 -61 7.5 -99t25.5 -59.5t49 -29t79 -7.5zM195 945l232 82l238 -82v-148l-235 81l-235 -81v148z" />
    <glyph glyph-name="Ocircumflex.sc" horiz-adv-x="802" 
d="M402 -8q-180 0 -275 75.5t-95 220.5q0 146 94 221.5t276 75.5q180 0 274.5 -76.5t94.5 -220.5q0 -143 -95 -219.5t-274 -76.5zM402 165q47 0 75 4t43 16.5t19.5 37t4.5 65.5q0 39 -5.5 63t-21 37.5t-43.5 18.5t-72 5q-45 0 -73 -4.5t-43 -18t-20.5 -38t-5.5 -63.5
q0 -41 4.5 -65t19.5 -37t43 -17t75 -4zM180 755l216 67l222 -67v-137l-219 66l-219 -66v137z" />
    <glyph glyph-name="Odblgrave" unicode="&#x20c;" horiz-adv-x="866" 
d="M433 -10q-196 0 -298.5 96.5t-102.5 282.5q0 187 102 284t299 97q195 0 298 -97.5t103 -283.5q0 -185 -103 -282t-298 -97zM433 174q48 0 79.5 7.5t49.5 29t25 59.5t7 99q0 59 -8 97t-26.5 60.5t-49.5 31t-77 8.5q-47 0 -77.5 -8.5t-49.5 -30t-26.5 -60t-7.5 -98.5
q0 -61 7.5 -99t25.5 -59.5t49 -29t79 -7.5zM219 807l-133 201h231l61 -191zM471 807l-133 201h231l62 -191z" />
    <glyph glyph-name="Odblgrave.sc" horiz-adv-x="802" 
d="M402 -8q-180 0 -275 75.5t-95 220.5q0 146 94 221.5t276 75.5q180 0 274.5 -76.5t94.5 -220.5q0 -143 -95 -219.5t-274 -76.5zM402 165q47 0 75 4t43 16.5t19.5 37t4.5 65.5q0 39 -5.5 63t-21 37.5t-43.5 18.5t-72 5q-45 0 -73 -4.5t-43 -18t-20.5 -38t-5.5 -63.5
q0 -41 4.5 -65t19.5 -37t43 -17t75 -4zM198 633l-122 171h221l54 -164zM434 633l-122 171h221l55 -164z" />
    <glyph glyph-name="Odieresis" unicode="&#xd6;" horiz-adv-x="866" 
d="M263 794q-66 0 -94 27.5t-28 90.5q0 62 28 90t94 28q68 0 94.5 -29t26.5 -89t-26.5 -89t-94.5 -29zM584 794q-66 0 -93.5 27.5t-27.5 90.5q0 62 27.5 90t93.5 28q68 0 94.5 -29t26.5 -89t-26.5 -89t-94.5 -29zM433 -10q-196 0 -298.5 96.5t-102.5 282.5q0 187 102 284
t299 97q195 0 298 -97.5t103 -283.5q0 -185 -103 -282t-298 -97zM433 174q48 0 79.5 7.5t49.5 29t25 59.5t7 99q0 59 -8 97t-26.5 60.5t-49.5 31t-77 8.5q-47 0 -77.5 -8.5t-49.5 -30t-26.5 -60t-7.5 -98.5q0 -61 7.5 -99t25.5 -59.5t49 -29t79 -7.5z" />
    <glyph glyph-name="Odieresis.sc" horiz-adv-x="802" 
d="M402 -8q-180 0 -275 75.5t-95 220.5q0 146 94 221.5t276 75.5q180 0 274.5 -76.5t94.5 -220.5q0 -143 -95 -219.5t-274 -76.5zM402 165q47 0 75 4t43 16.5t19.5 37t4.5 65.5q0 39 -5.5 63t-21 37.5t-43.5 18.5t-72 5q-45 0 -73 -4.5t-43 -18t-20.5 -38t-5.5 -63.5
q0 -41 4.5 -65t19.5 -37t43 -17t75 -4zM245 612q-62 0 -88.5 25t-26.5 84q0 58 27 83.5t88 25.5q60 0 87 -25.5t27 -83.5t-26.5 -83.5t-87.5 -25.5zM540 612q-62 0 -88 24.5t-26 84.5q0 59 26.5 84t87.5 25q60 0 87 -25.5t27 -83.5t-26.5 -83.5t-87.5 -25.5z" />
    <glyph glyph-name="Odotbelow" unicode="&#x1ecc;" horiz-adv-x="866" 
d="M438 -220q-50 0 -70.5 20.5t-20.5 66.5q0 47 20.5 67.5t70.5 20.5q52 0 71.5 -22t19.5 -66t-19.5 -65.5t-71.5 -21.5zM433 -10q-196 0 -298.5 96.5t-102.5 282.5q0 187 102 284t299 97q195 0 298 -97.5t103 -283.5q0 -185 -103 -282t-298 -97zM433 174q48 0 79.5 7.5
t49.5 29t25 59.5t7 99q0 59 -8 97t-26.5 60.5t-49.5 31t-77 8.5q-47 0 -77.5 -8.5t-49.5 -30t-26.5 -60t-7.5 -98.5q0 -61 7.5 -99t25.5 -59.5t49 -29t79 -7.5z" />
    <glyph glyph-name="Odotbelow.sc" horiz-adv-x="801" 
d="M401 -8q-181 0 -275.5 76t-94.5 220q0 146 94 221.5t276 75.5q180 0 274.5 -76.5t94.5 -220.5q0 -143 -94.5 -219.5t-274.5 -76.5zM401 165q43 0 71 3t43.5 15t21.5 36.5t6 68.5q0 41 -6.5 65.5t-23 37.5t-44 17t-68.5 4q-42 0 -69 -3.5t-43.5 -16t-23 -37.5t-6.5 -67
q0 -44 6 -68.5t22 -36.5t43.5 -15t70.5 -3zM405 -181q-46 0 -65.5 18.5t-19.5 59.5q0 42 19.5 60.5t65.5 18.5q50 0 67.5 -20.5t17.5 -58.5t-17.5 -58t-67.5 -20z" />
    <glyph glyph-name="Ograve" unicode="&#xd2;" horiz-adv-x="866" 
d="M333 807l-133 201h236l61 -191zM433 -10q-196 0 -298.5 96.5t-102.5 282.5q0 187 102 284t299 97q195 0 298 -97.5t103 -283.5q0 -185 -103 -282t-298 -97zM433 174q48 0 79.5 7.5t49.5 29t25 59.5t7 99q0 59 -8 97t-26.5 60.5t-49.5 31t-77 8.5q-47 0 -77.5 -8.5
t-49.5 -30t-26.5 -60t-7.5 -98.5q0 -61 7.5 -99t25.5 -59.5t49 -29t79 -7.5z" />
    <glyph glyph-name="Ograve.sc" horiz-adv-x="801" 
d="M401 -8q-181 0 -275.5 76t-94.5 220q0 146 94 221.5t276 75.5q180 0 274.5 -76.5t94.5 -220.5q0 -143 -94.5 -219.5t-274.5 -76.5zM401 165q43 0 71 3t43.5 15t21.5 36.5t6 68.5q0 41 -6.5 65.5t-23 37.5t-44 17t-68.5 4q-42 0 -69 -3.5t-43.5 -16t-23 -37.5t-6.5 -67
q0 -44 6 -68.5t22 -36.5t43.5 -15t70.5 -3zM305 631l-123 171h224l54 -164z" />
    <glyph glyph-name="Ohungarumlaut" unicode="&#x150;" horiz-adv-x="866" 
d="M433 -10q-196 0 -298.5 96.5t-102.5 282.5q0 187 102 284t299 97q195 0 298 -97.5t103 -283.5q0 -185 -103 -282t-298 -97zM433 174q48 0 79.5 7.5t49.5 29t25 59.5t7 99q0 59 -8 97t-26.5 60.5t-49.5 31t-77 8.5q-47 0 -77.5 -8.5t-49.5 -30t-26.5 -60t-7.5 -98.5
q0 -61 7.5 -99t25.5 -59.5t49 -29t79 -7.5zM200 817l61 191h231l-133 -201zM452 817l61 191h231l-132 -201z" />
    <glyph glyph-name="hungarumlaut.cap" horiz-adv-x="581" 
d="M31 817l61 191h231l-133 -201zM283 817l61 191h231l-132 -201z" />
    <glyph glyph-name="Ohungarumlaut.sc" horiz-adv-x="801" 
d="M401 -8q-181 0 -275.5 76t-94.5 220q0 146 94 221.5t276 75.5q180 0 274.5 -76.5t94.5 -220.5q0 -143 -94.5 -219.5t-274.5 -76.5zM401 165q43 0 71 3t43.5 15t21.5 36.5t6 68.5q0 41 -6.5 65.5t-23 37.5t-44 17t-68.5 4q-42 0 -69 -3.5t-43.5 -16t-23 -37.5t-6.5 -67
q0 -44 6 -68.5t22 -36.5t43.5 -15t70.5 -3zM180 640l54 164h221l-123 -171zM416 640l53 164h222l-122 -171z" />
    <glyph glyph-name="Oinvertedbreve" unicode="&#x20e;" horiz-adv-x="866" 
d="M433 -10q-196 0 -298.5 96.5t-102.5 282.5q0 187 102 284t299 97q195 0 298 -97.5t103 -283.5q0 -185 -103 -282t-298 -97zM433 174q48 0 79.5 7.5t49.5 29t25 59.5t7 99q0 59 -8 97t-26.5 60.5t-49.5 31t-77 8.5q-47 0 -77.5 -8.5t-49.5 -30t-26.5 -60t-7.5 -98.5
q0 -61 7.5 -99t25.5 -59.5t49 -29t79 -7.5zM538 821q0 21 -4.5 37.5t-16.5 28t-32.5 17.5t-53.5 6q-32 0 -53 -6t-33 -17.5t-16.5 -28t-4.5 -37.5h-149q0 40 12 75.5t41.5 62t78.5 42t124 15.5q74 0 123.5 -15t79 -41.5t41.5 -62t12 -76.5h-149z" />
    <glyph glyph-name="Oinvertedbreve.sc" horiz-adv-x="801" 
d="M401 -8q-181 0 -275.5 76t-94.5 220q0 146 94 221.5t276 75.5q180 0 274.5 -76.5t94.5 -220.5q0 -143 -94.5 -219.5t-274.5 -76.5zM401 165q43 0 71 3t43.5 15t21.5 36.5t6 68.5q0 41 -6.5 65.5t-23 37.5t-44 17t-68.5 4q-42 0 -69 -3.5t-43.5 -16t-23 -37.5t-6.5 -67
q0 -44 6 -68.5t22 -36.5t43.5 -15t70.5 -3zM497 643q0 15 -4 27.5t-14.5 21.5t-30 13.5t-49.5 4.5t-49 -4.5t-30 -13.5t-15 -21.5t-4 -27.5h-141q0 32 11 62t38 52.5t73 36t117 13.5q70 0 116 -13t73 -35.5t38 -52t11 -63.5h-140z" />
    <glyph glyph-name="Omacron" unicode="&#x14c;" horiz-adv-x="866" 
d="M199 991h466v-148h-466v148zM433 -10q-196 0 -298.5 96.5t-102.5 282.5q0 187 102 284t299 97q195 0 298 -97.5t103 -283.5q0 -185 -103 -282t-298 -97zM433 174q48 0 79.5 7.5t49.5 29t25 59.5t7 99q0 59 -8 97t-26.5 60.5t-49.5 31t-77 8.5q-47 0 -77.5 -8.5t-49.5 -30
t-26.5 -60t-7.5 -98.5q0 -61 7.5 -99t25.5 -59.5t49 -29t79 -7.5z" />
    <glyph glyph-name="Omacron.sc" horiz-adv-x="801" 
d="M401 -8q-181 0 -275.5 76t-94.5 220q0 146 94 221.5t276 75.5q180 0 274.5 -76.5t94.5 -220.5q0 -143 -94.5 -219.5t-274.5 -76.5zM401 165q43 0 71 3t43.5 15t21.5 36.5t6 68.5q0 41 -6.5 65.5t-23 37.5t-44 17t-68.5 4q-42 0 -69 -3.5t-43.5 -16t-23 -37.5t-6.5 -67
q0 -44 6 -68.5t22 -36.5t43.5 -15t70.5 -3zM183 796h434v-138h-434v138z" />
    <glyph glyph-name="Omega" unicode="&#x2126;" horiz-adv-x="853" 
d="M43 162l187 -15q-40 22 -72.5 53.5t-55.5 69.5t-35.5 80.5t-12.5 87.5q0 70 26.5 128t75.5 98.5t118 63t153 22.5t153 -22.5t118 -63t75.5 -98.5t26.5 -128q0 -45 -13 -88t-36 -80.5t-56 -69t-73 -53.5l189 15v-162h-343v132q31 25 53.5 52t36.5 60t21 73.5t7 90.5
q0 75 -41.5 116.5t-117.5 41.5q-74 0 -113.5 -41.5t-39.5 -116.5q0 -50 13 -95.5t31 -82t37 -62t31 -36.5v-132h-343v162z" />
    <glyph glyph-name="Oogonek" unicode="&#x1ea;" horiz-adv-x="866" 
d="M449 -215q-82 0 -128.5 25.5t-46.5 70.5q0 29 19.5 61.5t48.5 53.5q-152 21 -231 115.5t-79 257.5q0 187 102 284t299 97q195 0 298 -97.5t103 -283.5q0 -156 -74 -249.5t-215 -119.5q-36 -14 -60.5 -24.5t-39 -20t-20.5 -18t-6 -17.5q0 -20 26 -20q6 0 17.5 1.5
t25.5 3.5t29.5 5.5t29.5 6.5v-120q-44 -12 -98 -12zM433 174q48 0 79.5 7.5t49.5 29t25 59.5t7 99q0 59 -8 97t-26.5 60.5t-49.5 31t-77 8.5q-47 0 -77.5 -8.5t-49.5 -30t-26.5 -60t-7.5 -98.5q0 -61 7.5 -99t25.5 -59.5t49 -29t79 -7.5z" />
    <glyph glyph-name="Oogonek.sc" horiz-adv-x="802" 
d="M420 -171q-78 0 -121.5 22.5t-43.5 57.5q0 11 5 24t13.5 25.5t19.5 22.5t22 16q-139 17 -211 91t-72 200q0 146 94 221.5t276 75.5q180 0 274.5 -76.5t94.5 -220.5q0 -121 -67.5 -194.5t-197.5 -93.5q-41 -14 -63.5 -23t-33.5 -14.5t-13.5 -9t-2.5 -5.5q0 -6 4 -7.5
t14 -1.5q7 0 20 1t27.5 2.5t28 3.5t22.5 4v-112q-23 -5 -45.5 -7t-43.5 -2zM402 165q43 0 71 3t43.5 15t21.5 36.5t6 68.5q0 41 -6.5 65.5t-23 37.5t-44 17t-68.5 4q-42 0 -69 -3.5t-43.5 -16t-23 -37.5t-6.5 -67q0 -44 6 -68.5t22 -36.5t43.5 -15t70.5 -3z" />
    <glyph glyph-name="Oslash" unicode="&#xd8;" horiz-adv-x="868" 
d="M111 113q-78 93 -78 256q0 187 102 284t299 97q138 0 230 -50l38 40h161l-108 -114q80 -95 80 -257q0 -185 -103 -282t-298 -97q-138 0 -231 49l-37 -39h-161zM434 174q48 0 79.5 7.5t49.5 29t25 59.5t7 99q0 23 -1.5 43.5t-3.5 37.5l-249 -264q17 -7 40.5 -9.5
t52.5 -2.5zM273 369q0 -24 1 -43.5t3 -36.5l248 263q-32 14 -91 14q-47 0 -77.5 -8.5t-49.5 -30t-26.5 -60t-7.5 -98.5z" />
    <glyph glyph-name="Oslash.sc" horiz-adv-x="804" 
d="M104 89q-72 75 -72 199q0 146 94.5 221.5t275.5 75.5q127 0 211 -39l34 31h151l-99 -89q73 -75 73 -200q0 -143 -95 -219.5t-275 -76.5q-126 0 -211 38l-33 -30h-152zM402 165q43 0 71 3t43.5 15t21.5 36.5t6 68.5q0 17 -1 31t-3 25l-197 -178q12 -1 27 -1h32zM260 288
q0 -34 3 -56l198 177q-26 3 -59 3q-42 0 -69 -3.5t-43.5 -16t-23 -37.5t-6.5 -67z" />
    <glyph glyph-name="Oslashacute" unicode="&#x1fe;" horiz-adv-x="868" 
d="M111 113q-78 93 -78 256q0 187 102 284t299 97q138 0 230 -50l38 40h161l-108 -114q80 -95 80 -257q0 -185 -103 -282t-298 -97q-138 0 -231 49l-37 -39h-161zM434 174q48 0 79.5 7.5t49.5 29t25 59.5t7 99q0 23 -1.5 43.5t-3.5 37.5l-249 -264q17 -7 40.5 -9.5
t52.5 -2.5zM273 369q0 -24 1 -43.5t3 -36.5l248 263q-32 14 -91 14q-47 0 -77.5 -8.5t-49.5 -30t-26.5 -60t-7.5 -98.5zM341 817l62 191h235l-132 -201z" />
    <glyph glyph-name="Oslashacute.sc" horiz-adv-x="804" 
d="M104 89q-72 75 -72 199q0 146 94.5 221.5t275.5 75.5q127 0 211 -39l34 31h151l-99 -89q73 -75 73 -200q0 -143 -95 -219.5t-275 -76.5q-126 0 -211 38l-33 -30h-152zM402 165q43 0 71 3t43.5 15t21.5 36.5t6 68.5q0 17 -1 31t-3 25l-197 -178q12 -1 27 -1h32zM314 640
l55 162h223l-121 -171zM260 288q0 -34 3 -56l198 177q-26 3 -59 3q-42 0 -69 -3.5t-43.5 -16t-23 -37.5t-6.5 -67z" />
    <glyph glyph-name="Otilde" unicode="&#xd5;" horiz-adv-x="866" 
d="M162 861q38 75 89 112.5t97 37.5q29 0 58 -5.5t57.5 -12.5t57.5 -12.5t58 -5.5q24 0 47.5 6.5t57.5 29.5l23 -38q-40 -75 -90.5 -112.5t-94.5 -37.5q-29 0 -58 5.5t-58 12.5t-58 12.5t-58 5.5q-26 0 -49.5 -6.5t-54.5 -29.5zM433 -10q-196 0 -298.5 96.5t-102.5 282.5
q0 187 102 284t299 97q195 0 298 -97.5t103 -283.5q0 -185 -103 -282t-298 -97zM433 174q48 0 79.5 7.5t49.5 29t25 59.5t7 99q0 59 -8 97t-26.5 60.5t-49.5 31t-77 8.5q-47 0 -77.5 -8.5t-49.5 -30t-26.5 -60t-7.5 -98.5q0 -61 7.5 -99t25.5 -59.5t49 -29t79 -7.5z" />
    <glyph glyph-name="Otilde.sc" horiz-adv-x="801" 
d="M401 -8q-181 0 -275.5 76t-94.5 220q0 146 94 221.5t276 75.5q180 0 274.5 -76.5t94.5 -220.5q0 -143 -94.5 -219.5t-274.5 -76.5zM401 165q43 0 71 3t43.5 15t21.5 36.5t6 68.5q0 41 -6.5 65.5t-23 37.5t-44 17t-68.5 4q-42 0 -69 -3.5t-43.5 -16t-23 -37.5t-6.5 -67
q0 -44 6 -68.5t22 -36.5t43.5 -15t70.5 -3zM148 672q35 68 82.5 102.5t90.5 34.5q27 0 54 -4t54 -9t54 -9t54 -4q22 0 43 4.5t53 22.5l21 -33q-38 -69 -85 -103t-87 -34q-27 0 -54.5 4t-54.5 9.5t-54 9.5t-54 4q-23 0 -44.5 -5t-50.5 -23z" />
    <glyph glyph-name="P" unicode="P" horiz-adv-x="774" 
d="M65 735q142 15 260 15q114 0 195.5 -16t134 -49.5t77.5 -86.5t25 -126q0 -140 -107 -210.5t-321 -70.5h-29v-191h-235v735zM371 370q43 0 71.5 4.5t45 16.5t23.5 31.5t7 49.5q0 29 -5.5 48.5t-20.5 31t-41 16t-68 4.5q-19 0 -44 -1t-39 -3v-192q34 -6 71 -6z" />
    <glyph glyph-name="P.sc" horiz-adv-x="722" 
d="M63 573q133 12 242 12q105 0 180.5 -13t124 -40t71.5 -69t23 -101q0 -107 -100.5 -161.5t-296.5 -54.5h-21v-146h-223v573zM361 299q34 0 56.5 3t36 10.5t18.5 19.5t5 30t-4.5 29.5t-17 18.5t-35.5 10t-59 3q-21 0 -75 -3v-117q21 -2 37.5 -3t37.5 -1z" />
    <glyph glyph-name="Q" unicode="Q" horiz-adv-x="867" 
d="M778 -193q-146 40 -258 77t-195 76t-139 81t-90.5 91.5t-49.5 107.5t-15 129q0 89 27.5 160t79.5 120t127 75t169 26t169 -26t127 -75t79.5 -119.5t27.5 -160.5q0 -74 -19 -133t-54 -100t-85 -63.5t-113 -22.5q-13 0 -26.5 1t-27.5 3v-14q53 -8 90 -14.5t63.5 -10.5
t45 -7t33.5 -5.5t29 -4t33 -3.5zM434 174q46 0 77.5 9.5t50.5 32t27 60t8 93.5q0 55 -8.5 92.5t-27.5 60.5t-50.5 33.5t-76.5 10.5t-76 -10.5t-50.5 -34t-28 -61t-8.5 -91.5t8 -91.5t27 -60.5t50.5 -33t77.5 -10z" />
    <glyph glyph-name="Q.sc" horiz-adv-x="804" 
d="M722 -172q-198 46 -330.5 92t-212.5 99.5t-114 118.5t-34 150q0 69 26 124t74 93.5t117 59t155 20.5q87 0 156 -20.5t117 -59t73.5 -93.5t25.5 -124q0 -62 -17 -106.5t-53.5 -73t-93 -42t-135.5 -13.5v-10q76 -11 118.5 -17t67.5 -10t41 -6t39 -5zM403 166q43 0 71 5
t44 18.5t22 37.5t6 61q0 36 -6.5 60t-23 38t-44 20t-69.5 6q-41 0 -68.5 -6t-44.5 -20.5t-24 -38.5t-7 -59q0 -36 6.5 -59.5t23 -37.5t44.5 -19.5t70 -5.5z" />
    <glyph glyph-name="R" unicode="R" horiz-adv-x="793" 
d="M405 223q-18 -1 -37 -1.5t-39 -0.5h-29v-221h-235v735q142 15 260 15q114 0 195.5 -15t134 -47t77.5 -82t25 -119q0 -154 -146 -220l188 -267h-269zM371 398q43 0 71.5 4t45 14.5t23.5 27t7 42.5q0 25 -6 42t-21 26.5t-41.5 13.5t-66.5 4q-17 0 -42 -1t-41 -3v-164
q12 -4 26.5 -5t44.5 -1z" />
    <glyph glyph-name="R.sc" horiz-adv-x="745" 
d="M381 165q-13 -1 -25.5 -1.5t-24.5 -0.5q-10 0 -22 0.5t-23 1.5v-165h-223v573q138 12 242 12q105 0 180.5 -12t124 -38t71.5 -66t23 -96q0 -117 -123 -171l162 -202h-256zM348 311q40 0 66 2.5t41 9t21 17.5t6 28t-6 28.5t-20 18.5t-37 10t-58 3q-7 0 -17 -0.5t-20.5 -1
t-20.5 -1t-17 -0.5v-111q3 0 11 -0.5t17.5 -1l19 -1t14.5 -0.5z" />
    <glyph glyph-name="Racute" unicode="&#x154;" horiz-adv-x="793" 
d="M405 223q-18 -1 -37 -1.5t-39 -0.5h-29v-221h-235v735q142 15 260 15q114 0 195.5 -15t134 -47t77.5 -82t25 -119q0 -154 -146 -220l188 -267h-269zM371 398q43 0 71.5 4t45 14.5t23.5 27t7 42.5q0 25 -6 42t-21 26.5t-41.5 13.5t-66.5 4q-17 0 -42 -1t-41 -3v-164
q12 -4 26.5 -5t44.5 -1zM289 817l62 191h235l-132 -201z" />
    <glyph glyph-name="Racute.sc" horiz-adv-x="745" 
d="M63 573q138 12 242 12q105 0 180.5 -12t124 -38t71.5 -66t23 -96q0 -117 -123 -171l162 -202h-256l-106 165q-13 -1 -25.5 -1.5t-24.5 -0.5q-10 0 -22 0.5t-23 1.5v-165h-223v573zM348 311q40 0 66 2.5t41 9t21 17.5t6 28t-6 28.5t-20 18.5t-37 10t-58 3q-7 0 -17 -0.5
t-20.5 -1t-20.5 -1t-17 -0.5v-111q3 0 11 -0.5t17.5 -1l19 -1t14.5 -0.5zM269 640l55 162h223l-121 -171z" />
    <glyph glyph-name="Rcaron" unicode="&#x158;" horiz-adv-x="793" 
d="M148 1027l235 -82l235 82v-149l-238 -81l-232 81v149zM405 223q-18 -1 -37 -1.5t-39 -0.5h-29v-221h-235v735q142 15 260 15q114 0 195.5 -15t134 -47t77.5 -82t25 -119q0 -154 -146 -220l188 -267h-269zM371 398q43 0 71.5 4t45 14.5t23.5 27t7 42.5q0 25 -6 42
t-21 26.5t-41.5 13.5t-66.5 4q-17 0 -42 -1t-41 -3v-164q12 -4 26.5 -5t44.5 -1z" />
    <glyph glyph-name="Rcaron.sc" horiz-adv-x="745" 
d="M63 573q138 12 242 12q105 0 180.5 -12t124 -38t71.5 -66t23 -96q0 -117 -123 -171l162 -202h-256l-106 165q-13 -1 -25.5 -1.5t-24.5 -0.5q-10 0 -22 0.5t-23 1.5v-165h-223v573zM348 311q40 0 66 2.5t41 9t21 17.5t6 28t-6 28.5t-20 18.5t-37 10t-58 3q-7 0 -17 -0.5
t-20.5 -1t-20.5 -1t-17 -0.5v-111q3 0 11 -0.5t17.5 -1l19 -1t14.5 -0.5zM138 684v138l220 -67l219 67v-138l-222 -66z" />
    <glyph glyph-name="Rcommaaccent" unicode="&#x156;" horiz-adv-x="793" 
d="M281 -70h236l-104 -150h-171zM405 223q-18 -1 -37 -1.5t-39 -0.5h-29v-221h-235v735q142 15 260 15q114 0 195.5 -15t134 -47t77.5 -82t25 -119q0 -154 -146 -220l188 -267h-269zM371 398q43 0 71.5 4t45 14.5t23.5 27t7 42.5q0 25 -6 42t-21 26.5t-41.5 13.5t-66.5 4
q-17 0 -42 -1t-41 -3v-164q12 -4 26.5 -5t44.5 -1z" />
    <glyph glyph-name="Rcommaaccent.sc" horiz-adv-x="745" 
d="M381 165q-13 -1 -25.5 -1.5t-24.5 -0.5q-10 0 -22 0.5t-23 1.5v-165h-223v573q138 12 242 12q105 0 180.5 -12t124 -38t71.5 -66t23 -96q0 -117 -123 -171l162 -202h-256zM261 -55h224l-97 -117h-162zM348 311q40 0 66 2.5t41 9t21 17.5t6 28t-6 28.5t-20 18.5t-37 10
t-58 3q-7 0 -17 -0.5t-20.5 -1t-20.5 -1t-17 -0.5v-111q3 0 11 -0.5t17.5 -1l19 -1t14.5 -0.5z" />
    <glyph glyph-name="Rdblgrave" unicode="&#x210;" horiz-adv-x="793" 
d="M405 223q-18 -1 -37 -1.5t-39 -0.5h-29v-221h-235v735q142 15 260 15q114 0 195.5 -15t134 -47t77.5 -82t25 -119q0 -154 -146 -220l188 -267h-269zM371 398q43 0 71.5 4t45 14.5t23.5 27t7 42.5q0 25 -6 42t-21 26.5t-41.5 13.5t-66.5 4q-17 0 -42 -1t-41 -3v-164
q12 -4 26.5 -5t44.5 -1zM182 807l-133 201h231l61 -191zM434 807l-133 201h231l62 -191z" />
    <glyph glyph-name="Rdblgrave.sc" horiz-adv-x="745" 
d="M63 573q138 12 242 12q105 0 180.5 -12t124 -38t71.5 -66t23 -96q0 -117 -123 -171l162 -202h-256l-106 165q-13 -1 -25.5 -1.5t-24.5 -0.5q-10 0 -22 0.5t-23 1.5v-165h-223v573zM348 311q40 0 66 2.5t41 9t21 17.5t6 28t-6 28.5t-20 18.5t-37 10t-58 3q-7 0 -17 -0.5
t-20.5 -1t-20.5 -1t-17 -0.5v-111q3 0 11 -0.5t17.5 -1l19 -1t14.5 -0.5zM61 804h221l54 -164l-153 -7zM297 804h221l55 -164l-154 -7z" />
    <glyph glyph-name="Rdotbelow" unicode="&#x1e5a;" horiz-adv-x="793" 
d="M405 223q-18 -1 -37 -1.5t-39 -0.5h-29v-221h-235v735q142 15 260 15q114 0 195.5 -15t134 -47t77.5 -82t25 -119q0 -154 -146 -220l188 -267h-269zM371 398q43 0 71.5 4t45 14.5t23.5 27t7 42.5q0 25 -6 42t-21 26.5t-41.5 13.5t-66.5 4q-17 0 -42 -1t-41 -3v-164
q12 -4 26.5 -5t44.5 -1zM370 -220q-50 0 -70.5 20.5t-20.5 66.5q0 47 20.5 67.5t70.5 20.5q52 0 71.5 -22t19.5 -66t-19.5 -65.5t-71.5 -21.5z" />
    <glyph glyph-name="Rdotbelow.sc" horiz-adv-x="745" 
d="M63 573q138 12 242 12q105 0 180.5 -12t124 -38t71.5 -66t23 -96q0 -117 -123 -171l162 -202h-256l-106 165q-13 -1 -25.5 -1.5t-24.5 -0.5q-10 0 -22 0.5t-23 1.5v-165h-223v573zM348 311q40 0 66 2.5t41 9t21 17.5t6 28t-6 28.5t-20 18.5t-37 10t-58 3q-7 0 -17 -0.5
t-20.5 -1t-20.5 -1t-17 -0.5v-111q3 0 11 -0.5t17.5 -1l19 -1t14.5 -0.5zM344 -181q-47 0 -66 18.5t-19 59.5q0 42 19 60.5t66 18.5q49 0 67 -20.5t18 -58.5t-18 -58t-67 -20z" />
    <glyph glyph-name="Rinvertedbreve" unicode="&#x212;" horiz-adv-x="793" 
d="M405 223q-18 -1 -37 -1.5t-39 -0.5h-29v-221h-235v735q142 15 260 15q114 0 195.5 -15t134 -47t77.5 -82t25 -119q0 -154 -146 -220l188 -267h-269zM371 398q43 0 71.5 4t45 14.5t23.5 27t7 42.5q0 25 -6 42t-21 26.5t-41.5 13.5t-66.5 4q-17 0 -42 -1t-41 -3v-164
q12 -4 26.5 -5t44.5 -1zM493 821q0 21 -4.5 37.5t-16.5 28t-32.5 17.5t-53.5 6q-32 0 -53 -6t-33 -17.5t-16.5 -28t-4.5 -37.5h-149q0 40 12 75.5t41.5 62t78.5 42t124 15.5q74 0 123.5 -15t79 -41.5t41.5 -62t12 -76.5h-149z" />
    <glyph glyph-name="Rinvertedbreve.sc" horiz-adv-x="745" 
d="M63 573q138 12 242 12q105 0 180.5 -12t124 -38t71.5 -66t23 -96q0 -117 -123 -171l162 -202h-256l-106 165q-13 -1 -25.5 -1.5t-24.5 -0.5q-10 0 -22 0.5t-23 1.5v-165h-223v573zM123 643q0 32 10.5 62t37.5 52.5t73 36t117 13.5q70 0 116 -13t73.5 -35.5t38.5 -52
t11 -63.5h-141q0 15 -4 27.5t-14.5 21.5t-30 13.5t-49.5 4.5t-49 -4.5t-30 -13.5t-15 -21.5t-4 -27.5h-140zM348 311q40 0 66 2.5t41 9t21 17.5t6 28t-6 28.5t-20 18.5t-37 10t-58 3q-7 0 -17 -0.5t-20.5 -1t-20.5 -1t-17 -0.5v-111q3 0 11 -0.5t17.5 -1l19 -1t14.5 -0.5z
" />
    <glyph glyph-name="S" unicode="S" horiz-adv-x="719" 
d="M351 -12q-33 0 -73 2t-82 6t-83 9.5t-76 11.5v186q96 -19 166.5 -27t131.5 -8q63 0 87.5 8.5t24.5 31.5q0 26 -25.5 39.5t-87.5 21.5q-151 17 -220.5 76.5t-69.5 171.5q0 55 23 98.5t66.5 73.5t106 46t141.5 16q27 0 53.5 -1.5t58 -5t70 -9.5t89.5 -15v-185
q-56 17 -122 26.5t-121 9.5q-117 0 -117 -47q0 -29 27.5 -44.5t95.5 -25.5q148 -23 214 -75.5t66 -147.5q0 -124 -84.5 -183.5t-259.5 -59.5z" />
    <glyph glyph-name="S.sc" horiz-adv-x="676" 
d="M331 -10q-30 0 -67 1.5t-76 4.5t-77.5 7t-71.5 9v175q83 -14 149 -21t129 -7q97 0 97 20q0 11 -19.5 17t-77.5 12q-142 9 -207 53t-65 132q0 91 82.5 141.5t230.5 50.5q26 0 51 -1.5t54 -4.5t64.5 -8t83.5 -12v-169q-52 12 -113 19t-113 7q-59 0 -81.5 -4.5t-22.5 -17.5
q0 -24 107 -32q262 -19 262 -172q0 -103 -78 -151.5t-241 -48.5z" />
    <glyph glyph-name="Sacute" unicode="&#x15a;" horiz-adv-x="719" 
d="M351 -12q-33 0 -73 2t-82 6t-83 9.5t-76 11.5v186q96 -19 166.5 -27t131.5 -8q63 0 87.5 8.5t24.5 31.5q0 26 -25.5 39.5t-87.5 21.5q-151 17 -220.5 76.5t-69.5 171.5q0 55 23 98.5t66.5 73.5t106 46t141.5 16q27 0 53.5 -1.5t58 -5t70 -9.5t89.5 -15v-185
q-56 17 -122 26.5t-121 9.5q-117 0 -117 -47q0 -29 27.5 -44.5t95.5 -25.5q148 -23 214 -75.5t66 -147.5q0 -124 -84.5 -183.5t-259.5 -59.5zM264 817l62 191h235l-132 -201z" />
    <glyph glyph-name="Sacute.sc" horiz-adv-x="676" 
d="M331 -10q-30 0 -67 1.5t-76 4.5t-77.5 7t-71.5 9v175q83 -14 149 -21t129 -7q97 0 97 20q0 11 -19.5 17t-77.5 12q-142 9 -207 53t-65 132q0 91 82.5 141.5t230.5 50.5q26 0 51 -1.5t54 -4.5t64.5 -8t83.5 -12v-169q-52 12 -113 19t-113 7q-59 0 -81.5 -4.5t-22.5 -17.5
q0 -24 107 -32q262 -19 262 -172q0 -103 -78 -151.5t-241 -48.5zM248 640l55 162h223l-122 -171z" />
    <glyph glyph-name="Scaron" unicode="&#x160;" horiz-adv-x="719" 
d="M351 -12q-33 0 -73 2t-82 6t-83 9.5t-76 11.5v186q96 -19 166.5 -27t131.5 -8q63 0 87.5 8.5t24.5 31.5q0 26 -25.5 39.5t-87.5 21.5q-151 17 -220.5 76.5t-69.5 171.5q0 55 23 98.5t66.5 73.5t106 46t141.5 16q27 0 53.5 -1.5t58 -5t70 -9.5t89.5 -15v-185
q-56 17 -122 26.5t-121 9.5q-117 0 -117 -47q0 -29 27.5 -44.5t95.5 -25.5q148 -23 214 -75.5t66 -147.5q0 -124 -84.5 -183.5t-259.5 -59.5zM129 1027l235 -82l235 82v-149l-238 -81l-232 81v149z" />
    <glyph glyph-name="Scaron.sc" horiz-adv-x="676" 
d="M331 -10q-30 0 -67 1.5t-76 4.5t-77.5 7t-71.5 9v175q83 -14 149 -21t129 -7q97 0 97 20q0 11 -19.5 17t-77.5 12q-142 9 -207 53t-65 132q0 91 82.5 141.5t230.5 50.5q26 0 51 -1.5t54 -4.5t64.5 -8t83.5 -12v-169q-52 12 -113 19t-113 7q-59 0 -81.5 -4.5t-22.5 -17.5
q0 -24 107 -32q262 -19 262 -172q0 -103 -78 -151.5t-241 -48.5zM123 822l219 -67l219 67v-138l-222 -66l-216 66v138z" />
    <glyph glyph-name="Schwa" unicode="&#x18f;" horiz-adv-x="804" 
d="M29 327q0 22 2 46t7 68h507q-3 37 -12.5 59.5t-28.5 33.5t-50 14.5t-77 3.5q-53 0 -128 -5.5t-175 -23.5l-9 185q39 11 85 19t92 13.5t88 8t73 2.5q185 0 276.5 -91t91.5 -281t-95 -289.5t-294 -99.5q-86 0 -151.5 18.5t-110.5 59t-68 104.5t-23 155zM387 172
q42 0 70.5 4t46.5 16t27.5 34.5t13.5 59.5h-296q0 -33 3.5 -55t17.5 -35t41.5 -18.5t75.5 -5.5z" />
    <glyph glyph-name="Schwa.sc" horiz-adv-x="719" 
d="M32 241q0 30 3.5 56.5t10.5 51.5h396q-3 19 -10 31.5t-21.5 19.5t-39 9.5t-62.5 2.5q-31 0 -66.5 -1.5t-69.5 -4.5t-63 -7t-47 -8l-5 164q60 16 130.5 24.5t142.5 8.5q181 0 268.5 -73t87.5 -223q0 -301 -361 -301q-146 0 -220 63t-74 187zM339 160q55 0 77.5 16t27.5 58
h-197q1 -41 22 -57.5t70 -16.5z" />
    <glyph glyph-name="Scircumflex" unicode="&#x15c;" horiz-adv-x="719" 
d="M351 -12q-33 0 -73 2t-82 6t-83 9.5t-76 11.5v186q96 -19 166.5 -27t131.5 -8q63 0 87.5 8.5t24.5 31.5q0 26 -25.5 39.5t-87.5 21.5q-151 17 -220.5 76.5t-69.5 171.5q0 55 23 98.5t66.5 73.5t106 46t141.5 16q27 0 53.5 -1.5t58 -5t70 -9.5t89.5 -15v-185
q-56 17 -122 26.5t-121 9.5q-117 0 -117 -47q0 -29 27.5 -44.5t95.5 -25.5q148 -23 214 -75.5t66 -147.5q0 -124 -84.5 -183.5t-259.5 -59.5zM135 945l232 82l238 -82v-148l-235 81l-235 -81v148z" />
    <glyph glyph-name="Scircumflex.sc" horiz-adv-x="676" 
d="M331 -10q-30 0 -67 1.5t-76 4.5t-77.5 7t-71.5 9v175q83 -14 149 -21t129 -7q97 0 97 20q0 11 -19.5 17t-77.5 12q-142 9 -207 53t-65 132q0 91 82.5 141.5t230.5 50.5q26 0 51 -1.5t54 -4.5t64.5 -8t83.5 -12v-169q-52 12 -113 19t-113 7q-59 0 -81.5 -4.5t-22.5 -17.5
q0 -24 107 -32q262 -19 262 -172q0 -103 -78 -151.5t-241 -48.5zM130 755l216 67l222 -67v-137l-219 66l-219 -66v137z" />
    <glyph glyph-name="Sdotbelow" unicode="&#x1e62;" horiz-adv-x="719" 
d="M351 -12q-33 0 -73 2t-82 6t-83 9.5t-76 11.5v186q96 -19 166.5 -27t131.5 -8q63 0 87.5 8.5t24.5 31.5q0 26 -25.5 39.5t-87.5 21.5q-151 17 -220.5 76.5t-69.5 171.5q0 55 23 98.5t66.5 73.5t106 46t141.5 16q27 0 53.5 -1.5t58 -5t70 -9.5t89.5 -15v-185
q-56 17 -122 26.5t-121 9.5q-117 0 -117 -47q0 -29 27.5 -44.5t95.5 -25.5q148 -23 214 -75.5t66 -147.5q0 -124 -84.5 -183.5t-259.5 -59.5zM363 -220q-50 0 -70.5 20.5t-20.5 66.5q0 47 20.5 67.5t70.5 20.5q52 0 71.5 -22t19.5 -66t-19.5 -65.5t-71.5 -21.5z" />
    <glyph glyph-name="Sdotbelow.sc" horiz-adv-x="676" 
d="M331 -10q-30 0 -67 1.5t-76 4.5t-77.5 7t-71.5 9v175q83 -14 149 -21t129 -7q97 0 97 20q0 11 -19.5 17t-77.5 12q-142 9 -207 53t-65 132q0 91 82.5 141.5t230.5 50.5q26 0 51 -1.5t54 -4.5t64.5 -8t83.5 -12v-169q-52 12 -113 19t-113 7q-59 0 -81.5 -4.5t-22.5 -17.5
q0 -24 107 -32q262 -19 262 -172q0 -103 -78 -151.5t-241 -48.5zM343 -181q-47 0 -66.5 18.5t-19.5 59.5q0 42 19.5 60.5t66.5 18.5q49 0 67 -20.5t18 -58.5t-18 -58t-67 -20z" />
    <glyph glyph-name="T" unicode="T" horiz-adv-x="704" 
d="M234 564h-213v176h662v-176h-214v-564h-235v564z" />
    <glyph glyph-name="Tbar" unicode="&#x166;" horiz-adv-x="718" 
d="M83 427h156v137h-213v176h662v-176h-214v-137h182v-127h-182v-300h-235v300h-156v127z" />
    <glyph glyph-name="Tbar.sc" horiz-adv-x="664" 
d="M76 337h144v76h-192v164h608v-164h-193v-76h145v-117h-145v-220h-223v220h-144v117z" />
    <glyph glyph-name="Tcaron" unicode="&#x164;" horiz-adv-x="704" 
d="M117 1027l235 -82l235 82v-149l-238 -81l-232 81v149zM234 564h-213v176h662v-176h-214v-564h-235v564z" />
    <glyph glyph-name="Tcaron.sc" horiz-adv-x="656" 
d="M216 413h-192v164h608v-164h-193v-413h-223v413zM108 822l220 -67l219 67v-138l-222 -66l-217 66v138z" />
    <glyph glyph-name="Tdotbelow" unicode="&#x1e6c;" horiz-adv-x="704" 
d="M353 -220q-50 0 -70.5 20.5t-20.5 66.5q0 47 20.5 67.5t70.5 20.5q52 0 71.5 -22t19.5 -66t-19.5 -65.5t-71.5 -21.5zM234 564h-213v176h662v-176h-214v-564h-235v564z" />
    <glyph glyph-name="Tdotbelow.sc" horiz-adv-x="656" 
d="M216 413h-192v164h608v-164h-193v-413h-223v413zM329 -181q-47 0 -66 18.5t-19 59.5q0 42 19 60.5t66 18.5q49 0 67 -20.5t18 -58.5t-18 -58t-67 -20z" />
    <glyph glyph-name="Thorn" unicode="&#xde;" horiz-adv-x="778" 
d="M65 740h235v-113h40q110 0 189 -15t130 -46.5t75.5 -80.5t24.5 -117t-24.5 -117t-75.5 -80.5t-130 -46.5t-189 -15h-40v-109h-235v740zM354 301q56 0 89.5 1t51 7.5t23 20t5.5 38.5t-5.5 38.5t-23 20t-51 7.5t-89.5 1h-54v-134h54z" />
    <glyph glyph-name="Thorn.sc" horiz-adv-x="724" 
d="M63 577h223v-65h19q105 0 180.5 -13t124 -40t71.5 -69t23 -101q0 -107 -100.5 -161.5t-296.5 -54.5h-21v-73h-223v577zM361 226q34 0 56.5 3t36 10.5t18.5 19.5t5 30t-4.5 29.5t-17 18.5t-35.5 10t-59 3q-21 0 -75 -3v-117q21 -2 37.5 -3t37.5 -1z" />
    <glyph glyph-name="U" unicode="U" horiz-adv-x="880" 
d="M440 -10q-110 0 -183.5 20.5t-118 61t-63 102t-18.5 143.5v426h235v-440q0 -57 35 -93t113 -36t113 36t35 93v440h235v-426q0 -82 -19 -143.5t-63 -102t-118 -61t-183 -20.5z" />
    <glyph glyph-name="U.sc" horiz-adv-x="820" 
d="M410 -8q-95 0 -162.5 14.5t-110 46t-62.5 81t-20 119.5v328h223v-345q0 -36 37.5 -53.5t94.5 -17.5t94 17.5t37 53.5v345h224v-328q0 -70 -20 -119.5t-62.5 -81t-110 -46t-162.5 -14.5z" />
    <glyph glyph-name="Uacute" unicode="&#xda;" horiz-adv-x="880" 
d="M330 817l62 191h235l-132 -201zM440 -10q-110 0 -183.5 20.5t-118 61t-63 102t-18.5 143.5v426h235v-440q0 -57 35 -93t113 -36t113 36t35 93v440h235v-426q0 -82 -19 -143.5t-63 -102t-118 -61t-183 -20.5z" />
    <glyph glyph-name="Uacute.sc" horiz-adv-x="820" 
d="M410 -8q-102 0 -170.5 16.5t-109.5 49.5t-58 81.5t-17 113.5v328h223v-345q0 -12 7.5 -24.5t23.5 -23t41 -17t60 -6.5t60 6.5t40.5 17t23 23t7.5 24.5v345h224v-328q0 -65 -17 -113.5t-58.5 -81.5t-109.5 -49.5t-170 -16.5zM305 640l55 162h223l-121 -171z" />
    <glyph glyph-name="Ubreve" unicode="&#x16c;" horiz-adv-x="880" 
d="M439 811q-75 0 -124 15.5t-78.5 42t-41.5 62t-12 75.5h149q0 -21 4.5 -38t16.5 -28.5t33 -17.5t53 -6q33 0 53.5 6t32.5 17.5t16.5 28.5t4.5 38h149q0 -42 -12 -77.5t-41.5 -61.5t-79 -41t-123.5 -15zM440 -10q-110 0 -183.5 20.5t-118 61t-63 102t-18.5 143.5v426h235
v-440q0 -57 35 -93t113 -36t113 36t35 93v440h235v-426q0 -82 -19 -143.5t-63 -102t-118 -61t-183 -20.5z" />
    <glyph glyph-name="Ubreve.sc" horiz-adv-x="820" 
d="M410 -8q-102 0 -170.5 16.5t-109.5 49.5t-58 81.5t-17 113.5v328h223v-345q0 -12 7.5 -24.5t23.5 -23t41 -17t60 -6.5t60 6.5t40.5 17t23 23t7.5 24.5v345h224v-328q0 -65 -17 -113.5t-58.5 -81.5t-109.5 -49.5t-170 -16.5zM409 633q-71 0 -117 13.5t-73 36t-37.5 52
t-10.5 62.5h141q0 -32 19 -50t78 -18q30 0 49.5 4.5t30 13.5t14.5 21.5t4 28.5h141q0 -34 -11 -64t-38 -52t-73.5 -35t-116.5 -13z" />
    <glyph glyph-name="Ucircumflex" unicode="&#xdb;" horiz-adv-x="880" 
d="M440 -10q-110 0 -183.5 20.5t-118 61t-63 102t-18.5 143.5v426h235v-440q0 -57 35 -93t113 -36t113 36t35 93v440h235v-426q0 -82 -19 -143.5t-63 -102t-118 -61t-183 -20.5zM201 945l232 82l238 -82v-148l-235 81l-235 -81v148z" />
    <glyph glyph-name="Ucircumflex.sc" horiz-adv-x="820" 
d="M410 -8q-102 0 -170.5 16.5t-109.5 49.5t-58 81.5t-17 113.5v328h223v-345q0 -12 7.5 -24.5t23.5 -23t41 -17t60 -6.5t60 6.5t40.5 17t23 23t7.5 24.5v345h224v-328q0 -65 -17 -113.5t-58.5 -81.5t-109.5 -49.5t-170 -16.5zM187 755l216 67l223 -67v-137l-220 66
l-219 -66v137z" />
    <glyph glyph-name="Udblgrave" unicode="&#x214;" horiz-adv-x="880" 
d="M440 -10q-110 0 -183.5 20.5t-118 61t-63 102t-18.5 143.5v426h235v-440q0 -57 35 -93t113 -36t113 36t35 93v440h235v-426q0 -82 -19 -143.5t-63 -102t-118 -61t-183 -20.5zM228 807l-133 201h231l61 -191zM480 807l-133 201h231l62 -191z" />
    <glyph glyph-name="Udblgrave.sc" horiz-adv-x="820" 
d="M410 -8q-102 0 -170.5 16.5t-109.5 49.5t-58 81.5t-17 113.5v328h223v-345q0 -12 7.5 -24.5t23.5 -23t41 -17t60 -6.5t60 6.5t40.5 17t23 23t7.5 24.5v345h224v-328q0 -65 -17 -113.5t-58.5 -81.5t-109.5 -49.5t-170 -16.5zM209 633l-123 171h222l54 -164zM445 633
l-123 171h221l55 -164z" />
    <glyph glyph-name="Udieresis" unicode="&#xdc;" horiz-adv-x="880" 
d="M277 794q-66 0 -94 27.5t-28 90.5q0 62 28 90t94 28q68 0 94.5 -29t26.5 -89t-26.5 -89t-94.5 -29zM598 794q-66 0 -93.5 27.5t-27.5 90.5q0 62 27.5 90t93.5 28q68 0 94.5 -29t26.5 -89t-26.5 -89t-94.5 -29zM440 -10q-110 0 -183.5 20.5t-118 61t-63 102t-18.5 143.5
v426h235v-440q0 -57 35 -93t113 -36t113 36t35 93v440h235v-426q0 -82 -19 -143.5t-63 -102t-118 -61t-183 -20.5z" />
    <glyph glyph-name="Udieresis.sc" horiz-adv-x="820" 
d="M410 -8q-102 0 -170.5 16.5t-109.5 49.5t-58 81.5t-17 113.5v328h223v-345q0 -12 7.5 -24.5t23.5 -23t41 -17t60 -6.5t60 6.5t40.5 17t23 23t7.5 24.5v345h224v-328q0 -65 -17 -113.5t-58.5 -81.5t-109.5 -49.5t-170 -16.5zM261 612q-63 0 -89.5 25.5t-26.5 83.5
q0 57 26.5 83t89.5 26q64 0 89 -27.5t25 -81.5q0 -55 -25 -82t-89 -27zM555 612q-63 0 -88.5 25.5t-25.5 83.5q0 57 25.5 83t88.5 26q65 0 89.5 -27.5t24.5 -81.5q0 -55 -24.5 -82t-89.5 -27z" />
    <glyph glyph-name="Udotbelow" unicode="&#x1ee4;" horiz-adv-x="880" 
d="M440 -10q-110 0 -183.5 20.5t-118 61t-63 102t-18.5 143.5v426h235v-440q0 -57 35 -93t113 -36t113 36t35 93v440h235v-426q0 -82 -19 -143.5t-63 -102t-118 -61t-183 -20.5zM433 -220q-50 0 -70.5 20.5t-20.5 66.5q0 47 20.5 67.5t70.5 20.5q52 0 71.5 -22t19.5 -66
t-19.5 -65.5t-71.5 -21.5z" />
    <glyph glyph-name="Udotbelow.sc" horiz-adv-x="820" 
d="M410 -8q-102 0 -170.5 16.5t-109.5 49.5t-58 81.5t-17 113.5v328h223v-345q0 -12 7.5 -24.5t23.5 -23t41 -17t60 -6.5t60 6.5t40.5 17t23 23t7.5 24.5v345h224v-328q0 -65 -17 -113.5t-58.5 -81.5t-109.5 -49.5t-170 -16.5zM403 -181q-47 0 -66 18.5t-19 59.5
q0 42 19 60.5t66 18.5q49 0 67 -20.5t18 -58.5t-18 -58t-67 -20z" />
    <glyph glyph-name="Ugrave" unicode="&#xd9;" horiz-adv-x="880" 
d="M352 807l-133 201h236l61 -191zM440 -10q-110 0 -183.5 20.5t-118 61t-63 102t-18.5 143.5v426h235v-440q0 -57 35 -93t113 -36t113 36t35 93v440h235v-426q0 -82 -19 -143.5t-63 -102t-118 -61t-183 -20.5z" />
    <glyph glyph-name="Ugrave.sc" horiz-adv-x="820" 
d="M410 -8q-102 0 -170.5 16.5t-109.5 49.5t-58 81.5t-17 113.5v328h223v-345q0 -12 7.5 -24.5t23.5 -23t41 -17t60 -6.5t60 6.5t40.5 17t23 23t7.5 24.5v345h224v-328q0 -65 -17 -113.5t-58.5 -81.5t-109.5 -49.5t-170 -16.5zM327 631l-123 171h224l54 -164z" />
    <glyph glyph-name="Uhungarumlaut" unicode="&#x170;" horiz-adv-x="880" 
d="M440 -10q-110 0 -183.5 20.5t-118 61t-63 102t-18.5 143.5v426h235v-440q0 -57 35 -93t113 -36t113 36t35 93v440h235v-426q0 -82 -19 -143.5t-63 -102t-118 -61t-183 -20.5zM225 817l61 191h231l-133 -201zM477 817l61 191h231l-132 -201z" />
    <glyph glyph-name="Uhungarumlaut.sc" horiz-adv-x="820" 
d="M410 -8q-102 0 -170.5 16.5t-109.5 49.5t-58 81.5t-17 113.5v328h223v-345q0 -12 7.5 -24.5t23.5 -23t41 -17t60 -6.5t60 6.5t40.5 17t23 23t7.5 24.5v345h224v-328q0 -65 -17 -113.5t-58.5 -81.5t-109.5 -49.5t-170 -16.5zM208 640l53 164h222l-123 -171zM443 640
l54 164h221l-121 -171z" />
    <glyph glyph-name="Uinvertedbreve" unicode="&#x216;" horiz-adv-x="880" 
d="M440 -10q-110 0 -183.5 20.5t-118 61t-63 102t-18.5 143.5v426h235v-440q0 -57 35 -93t113 -36t113 36t35 93v440h235v-426q0 -82 -19 -143.5t-63 -102t-118 -61t-183 -20.5zM538 821q0 21 -4.5 37.5t-16.5 28t-32.5 17.5t-53.5 6q-32 0 -53 -6t-33 -17.5t-16.5 -28
t-4.5 -37.5h-149q0 40 12 75.5t41.5 62t78.5 42t124 15.5q74 0 123.5 -15t79 -41.5t41.5 -62t12 -76.5h-149z" />
    <glyph glyph-name="Uinvertedbreve.sc" horiz-adv-x="820" 
d="M410 -8q-102 0 -170.5 16.5t-109.5 49.5t-58 81.5t-17 113.5v328h223v-345q0 -12 7.5 -24.5t23.5 -23t41 -17t60 -6.5t60 6.5t40.5 17t23 23t7.5 24.5v345h224v-328q0 -65 -17 -113.5t-58.5 -81.5t-109.5 -49.5t-170 -16.5zM499 643q0 15 -4 27.5t-14.5 21.5t-30 13.5
t-49.5 4.5q-59 0 -78.5 -18t-19.5 -49h-140q0 32 10.5 62t37.5 52.5t73 36t117 13.5q70 0 116 -13t73.5 -35.5t38.5 -52t11 -63.5h-141z" />
    <glyph glyph-name="Umacron" unicode="&#x16a;" horiz-adv-x="880" 
d="M201 991h466v-148h-466v148zM440 -10q-110 0 -183.5 20.5t-118 61t-63 102t-18.5 143.5v426h235v-440q0 -57 35 -93t113 -36t113 36t35 93v440h235v-426q0 -82 -19 -143.5t-63 -102t-118 -61t-183 -20.5z" />
    <glyph glyph-name="Umacron.sc" horiz-adv-x="820" 
d="M410 -8q-102 0 -170.5 16.5t-109.5 49.5t-58 81.5t-17 113.5v328h223v-345q0 -12 7.5 -24.5t23.5 -23t41 -17t60 -6.5t60 6.5t40.5 17t23 23t7.5 24.5v345h224v-328q0 -65 -17 -113.5t-58.5 -81.5t-109.5 -49.5t-170 -16.5zM187 796h435v-138h-435v138z" />
    <glyph glyph-name="Uogonek" unicode="&#x172;" horiz-adv-x="880" 
d="M451 -219q-82 0 -128.5 25.5t-46.5 70.5q0 30 20 63t52 54q-83 8 -138.5 32.5t-89.5 64.5t-48.5 96.5t-14.5 129.5v426h235v-440q0 -57 35 -93t113 -36t113 36t35 93v440h235v-426q0 -71 -14 -126.5t-46 -95.5t-85 -65t-131 -34q-36 -14 -60.5 -24.5t-39 -20t-20.5 -18
t-6 -17.5q0 -20 26 -20q6 0 17.5 1.5t25.5 3.5t29.5 5.5t29.5 6.5v-120q-44 -12 -98 -12z" />
    <glyph glyph-name="Uogonek.sc" horiz-adv-x="820" 
d="M419 -175q-78 0 -121 23t-43 58q0 12 5.5 25.5t14.5 26.5t20 23t23 15q-75 7 -125.5 27t-81 52t-43.5 76.5t-13 101.5v328h223v-345q0 -12 7.5 -24.5t23.5 -23t41 -17t60 -6.5t60 6.5t40.5 17t23 23t7.5 24.5v345h224v-328q0 -57 -13 -101.5t-44 -76.5t-81 -52t-125 -27
q-40 -14 -62 -22.5t-32.5 -14.5t-13 -9t-2.5 -5q0 -6 4 -7.5t14 -1.5q7 0 20.5 1t27.5 2.5l28 3t23 3.5v-111q-23 -6 -46 -8t-44 -2z" />
    <glyph glyph-name="Uring" unicode="&#x16e;" horiz-adv-x="880" 
d="M440 -10q-110 0 -183.5 20.5t-118 61t-63 102t-18.5 143.5v426h235v-440q0 -57 35 -93t113 -36t113 36t35 93v440h235v-426q0 -82 -19 -143.5t-63 -102t-118 -61t-183 -20.5zM437 780q-32 0 -59 8.5t-46.5 24t-31 37t-11.5 48.5t11.5 49t31 37.5t46.5 24.5t59 9t59 -9
t47 -24.5t31 -37.5t11 -49t-11 -48.5t-31 -37t-47 -24t-59 -8.5zM437 850q37 0 49.5 11.5t12.5 36.5q0 26 -12.5 37.5t-49.5 11.5q-36 0 -49 -11.5t-13 -37.5q0 -25 13 -36.5t49 -11.5z" />
    <glyph glyph-name="Uring.sc" horiz-adv-x="820" 
d="M410 -8q-102 0 -170.5 16.5t-109.5 49.5t-58 81.5t-17 113.5v328h223v-345q0 -12 7.5 -24.5t23.5 -23t41 -17t60 -6.5t60 6.5t40.5 17t23 23t7.5 24.5v345h224v-328q0 -65 -17 -113.5t-58.5 -81.5t-109.5 -49.5t-170 -16.5zM408 604q-59 0 -97.5 25.5t-38.5 69.5
q0 43 38.5 69.5t97.5 26.5t97.5 -26.5t38.5 -69.5q0 -44 -38.5 -69.5t-97.5 -25.5zM408 666q33 0 44 8t11 25q0 18 -11 25.5t-44 7.5t-44.5 -7.5t-11.5 -25.5q0 -17 11.5 -25t44.5 -8z" />
    <glyph glyph-name="Utilde" unicode="&#x168;" horiz-adv-x="880" 
d="M167 861q38 75 89 112.5t97 37.5q29 0 58 -5.5t57.5 -12.5t57.5 -12.5t58 -5.5q24 0 47.5 6.5t57.5 29.5l23 -38q-40 -75 -90.5 -112.5t-94.5 -37.5q-29 0 -58 5.5t-58 12.5t-58 12.5t-58 5.5q-26 0 -49.5 -6.5t-54.5 -29.5zM440 -10q-110 0 -183.5 20.5t-118 61t-63 102
t-18.5 143.5v426h235v-440q0 -57 35 -93t113 -36t113 36t35 93v440h235v-426q0 -82 -19 -143.5t-63 -102t-118 -61t-183 -20.5z" />
    <glyph glyph-name="Utilde.sc" horiz-adv-x="820" 
d="M410 -8q-102 0 -170.5 16.5t-109.5 49.5t-58 81.5t-17 113.5v328h223v-345q0 -12 7.5 -24.5t23.5 -23t41 -17t60 -6.5t60 6.5t40.5 17t23 23t7.5 24.5v345h224v-328q0 -65 -17 -113.5t-58.5 -81.5t-109.5 -49.5t-170 -16.5zM156 672q35 68 82.5 102.5t90.5 34.5
q27 0 54 -4t53.5 -9t53.5 -9t54 -4q22 0 43.5 4.5t53.5 22.5l20 -33q-37 -69 -84 -103t-87 -34q-27 0 -54.5 4t-54.5 9.5t-54 9.5t-54 4q-23 0 -45 -5t-51 -23z" />
    <glyph glyph-name="V" unicode="V" horiz-adv-x="815" 
d="M-6 740h255l117 -360l39 -159h10l39 159l117 360h250l-259 -740h-309z" />
    <glyph glyph-name="V.sc" horiz-adv-x="751" 
d="M-6 577h246l97 -278l37 -127h9l37 127l96 278h241l-235 -577h-293z" />
    <glyph glyph-name="W" unicode="W" horiz-adv-x="1195" 
d="M8 740h251l68 -389l17 -139h15l26 139l96 389h233l96 -389l26 -139h15l17 139l68 389h251l-176 -740h-318l-64 265l-26 208h-11l-26 -208l-64 -265h-318z" />
    <glyph glyph-name="W.sc" horiz-adv-x="1097" 
d="M6 577h240l57 -272l15 -110h14l24 110l84 272h217l84 -272l24 -110h14l15 110l57 272h240l-157 -577h-304l-43 146l-34 185h-10l-34 -184l-42 -147h-304z" />
    <glyph glyph-name="Wacute" unicode="&#x1e82;" horiz-adv-x="1195" 
d="M510 817l62 191h235l-132 -201zM8 740h251l68 -389l17 -139h15l26 139l96 389h233l96 -389l26 -139h15l17 139l68 389h251l-176 -740h-318l-64 265l-26 208h-11l-26 -208l-64 -265h-318z" />
    <glyph glyph-name="Wacute.sc" horiz-adv-x="1097" 
d="M6 577h240l57 -272l15 -110h14l24 110l84 272h217l84 -272l24 -110h14l15 110l57 272h240l-157 -577h-304l-43 146l-34 185h-10l-34 -184l-42 -147h-304zM466 640l55 162h223l-121 -171z" />
    <glyph glyph-name="Wcircumflex" unicode="&#x174;" horiz-adv-x="1195" 
d="M8 740h251l68 -389l17 -139h15l26 139l96 389h233l96 -389l26 -139h15l17 139l68 389h251l-176 -740h-318l-64 265l-26 208h-11l-26 -208l-64 -265h-318zM363 945l232 82l238 -82v-148l-235 81l-235 -81v148z" />
    <glyph glyph-name="Wcircumflex.sc" horiz-adv-x="1097" 
d="M6 577h240l57 -272l15 -110h14l24 110l84 272h217l84 -272l24 -110h14l15 110l57 272h240l-157 -577h-304l-43 146l-34 185h-10l-34 -184l-42 -147h-304zM330 755l216 67l222 -67v-137l-219 66l-219 -66v137z" />
    <glyph glyph-name="Wdieresis" unicode="&#x1e84;" horiz-adv-x="1195" 
d="M438 794q-66 0 -94 27.5t-28 90.5q0 62 28 90t94 28q68 0 94.5 -29t26.5 -89t-26.5 -89t-94.5 -29zM759 794q-66 0 -93.5 27.5t-27.5 90.5q0 62 27.5 90t93.5 28q68 0 94.5 -29t26.5 -89t-26.5 -89t-94.5 -29zM8 740h251l68 -389l17 -139h15l26 139l96 389h233l96 -389
l26 -139h15l17 139l68 389h251l-176 -740h-318l-64 265l-26 208h-11l-26 -208l-64 -265h-318z" />
    <glyph glyph-name="Wdieresis.sc" horiz-adv-x="1097" 
d="M6 577h240l57 -272l15 -110h14l24 110l84 272h217l84 -272l24 -110h14l15 110l57 272h240l-157 -577h-304l-43 146l-34 185h-10l-34 -184l-42 -147h-304zM402 612q-63 0 -89 25.5t-26 83.5q0 57 26 83t89 26q65 0 89.5 -27.5t24.5 -81.5q0 -55 -24.5 -82t-89.5 -27z
M697 612q-63 0 -88.5 25.5t-25.5 83.5q0 57 25.5 83t88.5 26q65 0 89.5 -27.5t24.5 -81.5q0 -55 -24.5 -82t-89.5 -27z" />
    <glyph glyph-name="Wgrave" unicode="&#x1e80;" horiz-adv-x="1195" 
d="M495 807l-133 201h236l61 -191zM8 740h251l68 -389l17 -139h15l26 139l96 389h233l96 -389l26 -139h15l17 139l68 389h251l-176 -740h-318l-64 265l-26 208h-11l-26 -208l-64 -265h-318z" />
    <glyph glyph-name="Wgrave.sc" horiz-adv-x="1097" 
d="M6 577h240l57 -272l15 -110h14l24 110l84 272h217l84 -272l24 -110h14l15 110l57 272h240l-157 -577h-304l-43 146l-34 185h-10l-34 -184l-42 -147h-304zM450 631l-122 171h224l54 -164z" />
    <glyph glyph-name="X" unicode="X" horiz-adv-x="811" 
d="M257 391l-257 349h266l90 -139l42 -74h10l41 74l97 139h266l-268 -364l289 -376h-266l-117 176l-37 64h-10l-35 -64l-121 -176h-266z" />
    <glyph glyph-name="X.sc" horiz-adv-x="753" 
d="M210 305l-205 272h262l75 -111l33 -58h8l32 58l71 111h262l-214 -284l230 -293h-262l-91 140l-29 50h-8l-27 -50l-95 -140h-262z" />
    <glyph glyph-name="Y" unicode="Y" horiz-adv-x="792" 
d="M280 222l-293 518h253l112 -217l38 -93h10l38 93l112 217h253l-288 -509v-231h-235v222z" />
    <glyph glyph-name="Y.sc" horiz-adv-x="717" 
d="M242 174l-252 403h241l95 -165l28 -73h8l29 73l92 165h243l-250 -403v-174h-234v174z" />
    <glyph glyph-name="Yacute" unicode="&#xdd;" horiz-adv-x="792" 
d="M280 222l-293 518h253l112 -217l38 -93h10l38 93l112 217h253l-288 -509v-231h-235v222zM314 817l62 191h235l-132 -201z" />
    <glyph glyph-name="Yacute.sc" horiz-adv-x="717" 
d="M242 174l-252 403h241l95 -165l28 -73h8l29 73l92 165h243l-250 -403v-174h-234v174zM282 640l55 162h223l-122 -171z" />
    <glyph glyph-name="Ycircumflex" unicode="&#x176;" horiz-adv-x="792" 
d="M280 222l-293 518h253l112 -217l38 -93h10l38 93l112 217h253l-288 -509v-231h-235v222zM158 945l232 82l238 -82v-148l-235 81l-235 -81v148z" />
    <glyph glyph-name="Ycircumflex.sc" horiz-adv-x="717" 
d="M242 174l-252 403h241l95 -165l28 -73h8l29 73l92 165h243l-250 -403v-174h-234v174zM135 755l217 67l222 -67v-137l-219 66l-220 -66v137z" />
    <glyph glyph-name="Ydieresis" unicode="&#x178;" horiz-adv-x="792" 
d="M280 222l-293 518h253l112 -217l38 -93h10l38 93l112 217h253l-288 -509v-231h-235v222zM234 794q-66 0 -94 27.5t-28 90.5q0 62 28 90t94 28q68 0 94.5 -29t26.5 -89t-26.5 -89t-94.5 -29zM555 794q-66 0 -93.5 27.5t-27.5 90.5q0 62 27.5 90t93.5 28q68 0 94.5 -29
t26.5 -89t-26.5 -89t-94.5 -29z" />
    <glyph glyph-name="Ydieresis.sc" horiz-adv-x="717" 
d="M209 612q-63 0 -89 25.5t-26 83.5q0 57 26 83t89 26q64 0 89 -27.5t25 -81.5q0 -55 -25 -82t-89 -27zM504 612q-63 0 -88.5 25.5t-25.5 83.5q0 57 25.5 83t88.5 26q64 0 89 -27.5t25 -81.5q0 -55 -25 -82t-89 -27zM242 174l-252 403h241l95 -165l28 -73h8l29 73l92 165
h243l-250 -403v-174h-234v174z" />
    <glyph glyph-name="Ygrave" unicode="&#x1ef2;" horiz-adv-x="792" 
d="M280 222l-293 518h253l112 -217l38 -93h10l38 93l112 217h253l-288 -509v-231h-235v222zM305 807l-133 201h236l61 -191z" />
    <glyph glyph-name="Ygrave.sc" horiz-adv-x="717" 
d="M242 174l-252 403h241l95 -165l28 -73h8l29 73l92 165h243l-250 -403v-174h-234v174zM148 802h224l54 -164l-155 -7z" />
    <glyph glyph-name="Ytilde" unicode="&#x1ef8;" horiz-adv-x="792" 
d="M280 222l-293 518h253l112 -217l38 -93h10l38 93l112 217h253l-288 -509v-231h-235v222zM121 861q38 75 89 112.5t97 37.5q29 0 58 -5.5t57.5 -12.5t57.5 -12.5t58 -5.5q24 0 47.5 6.5t57.5 29.5l23 -38q-40 -75 -90.5 -112.5t-94.5 -37.5q-29 0 -58 5.5t-58 12.5
t-58 12.5t-58 5.5q-26 0 -49.5 -6.5t-54.5 -29.5z" />
    <glyph glyph-name="Ytilde.sc" horiz-adv-x="717" 
d="M242 174l-252 403h241l95 -165l28 -73h8l29 73l92 165h243l-250 -403v-174h-234v174zM101 672q35 68 82.5 102.5t90.5 34.5q27 0 54 -4t53.5 -9t53.5 -9t54 -4q22 0 43.5 4.5t53.5 22.5l21 -33q-38 -69 -85 -103t-87 -34q-27 0 -54.5 4t-54.5 9.5t-54 9.5t-54 4
q-23 0 -44.5 -5t-50.5 -23z" />
    <glyph glyph-name="Z" unicode="Z" horiz-adv-x="733" 
d="M32 160l360 394v10h-345v176h636v-154l-361 -400v-10h382v-176h-672v160z" />
    <glyph glyph-name="Z.sc" horiz-adv-x="686" 
d="M39 148l309 256v9h-301v164h589v-142l-315 -262v-8h330v-165h-612v148z" />
    <glyph glyph-name="Zacute" unicode="&#x179;" horiz-adv-x="733" 
d="M32 160l360 394v10h-345v176h636v-154l-361 -400v-10h382v-176h-672v160zM295 817l62 191h235l-132 -201z" />
    <glyph glyph-name="Zacute.sc" horiz-adv-x="686" 
d="M39 148l309 256v9h-301v164h589v-142l-315 -262v-8h330v-165h-612v148zM276 640l55 162h223l-121 -171z" />
    <glyph glyph-name="Zcaron" unicode="&#x17d;" horiz-adv-x="733" 
d="M124 1027l235 -82l235 82v-149l-238 -81l-232 81v149zM32 160l360 394v10h-345v176h636v-154l-361 -400v-10h382v-176h-672v160z" />
    <glyph glyph-name="Zcaron.sc" horiz-adv-x="686" 
d="M39 148l309 256v9h-301v164h589v-142l-315 -262v-8h330v-165h-612v148zM115 822l220 -67l219 67v-138l-222 -66l-217 66v138z" />
    <glyph glyph-name="Zdotaccent" unicode="&#x17b;" horiz-adv-x="733" 
d="M360 794q-66 0 -94 27.5t-28 90.5q0 62 28 90t94 28q68 0 94.5 -29t26.5 -89t-26.5 -89t-94.5 -29zM32 160l360 394v10h-345v176h636v-154l-361 -400v-10h382v-176h-672v160z" />
    <glyph glyph-name="Zdotaccent.sc" horiz-adv-x="686" 
d="M39 148l309 256v9h-301v164h589v-142l-315 -262v-8h330v-165h-612v148zM336 613q-63 0 -89 25.5t-26 83.5q0 57 26 83t89 26q65 0 89.5 -27.5t24.5 -81.5q0 -55 -24.5 -82t-89.5 -27z" />
    <glyph glyph-name="Zdotbelow" unicode="&#x1e92;" horiz-adv-x="733" 
d="M32 160l360 394v10h-345v176h636v-154l-361 -400v-10h382v-176h-672v160zM351 -220q-50 0 -70.5 20.5t-20.5 66.5q0 47 20.5 67.5t70.5 20.5q52 0 71.5 -22t19.5 -66t-19.5 -65.5t-71.5 -21.5z" />
    <glyph glyph-name="Zdotbelow.sc" horiz-adv-x="686" 
d="M39 148l309 256v9h-301v164h589v-142l-315 -262v-8h330v-165h-612v148zM328 -181q-47 0 -66 18.5t-19 59.5q0 42 19 60.5t66 18.5q49 0 67 -20.5t18 -58.5t-18 -58t-67 -20z" />
    <glyph glyph-name="a" unicode="a" horiz-adv-x="652" 
d="M198 -5q-86 0 -128 42t-42 119q0 85 51.5 127t158.5 49l133 8q-1 14 -6 24t-16 16t-30.5 9t-49.5 3q-45 0 -96 -5.5t-99 -14.5l-15 154q65 11 127.5 16.5t113.5 5.5q302 0 302 -193v-355h-188l-21 65h-10q-38 -38 -87 -54t-98 -16zM304 144q22 0 42.5 6.5t25.5 14.5v69
l-56 -5q-31 -3 -42.5 -12t-11.5 -32q0 -22 9.5 -31.5t32.5 -9.5z" />
    <glyph glyph-name="aacute" unicode="&#xe1;" horiz-adv-x="652" 
d="M198 -5q-86 0 -128 42t-42 119q0 85 51.5 127t158.5 49l133 8q-1 14 -6 24t-16 16t-30.5 9t-49.5 3q-45 0 -96 -5.5t-99 -14.5l-15 154q65 11 127.5 16.5t113.5 5.5q302 0 302 -193v-355h-188l-21 65h-10q-38 -38 -87 -54t-98 -16zM304 144q22 0 42.5 6.5t25.5 14.5v69
l-56 -5q-31 -3 -42.5 -12t-11.5 -32q0 -22 9.5 -31.5t32.5 -9.5zM234 617l61 191h235l-132 -201z" />
    <glyph glyph-name="acute" unicode="&#xb4;" horiz-adv-x="333" 
d="M31 617l61 191h235l-132 -201z" />
    <glyph glyph-name="abreve" unicode="&#x103;" horiz-adv-x="652" 
d="M198 -5q-86 0 -128 42t-42 119q0 85 51.5 127t158.5 49l133 8q-1 14 -6 24t-16 16t-30.5 9t-49.5 3q-45 0 -96 -5.5t-99 -14.5l-15 154q65 11 127.5 16.5t113.5 5.5q302 0 302 -193v-355h-188l-21 65h-10q-38 -38 -87 -54t-98 -16zM304 144q22 0 42.5 6.5t25.5 14.5v69
l-56 -5q-31 -3 -42.5 -12t-11.5 -32q0 -22 9.5 -31.5t32.5 -9.5zM328 611q-75 0 -124 15.5t-78.5 42t-41.5 62t-12 75.5h149q0 -21 4.5 -38t16.5 -28.5t33 -17.5t53 -6q33 0 53.5 6t32.5 17.5t16.5 28.5t4.5 38h149q0 -42 -12 -77.5t-41.5 -61.5t-79 -41t-123.5 -15z" />
    <glyph glyph-name="breve" unicode="&#x2d8;" horiz-adv-x="570" 
d="M284 611q-75 0 -124 15.5t-78.5 42t-41.5 62t-12 75.5h149q0 -21 4.5 -38t16.5 -28.5t33 -17.5t53 -6q33 0 53.5 6t32.5 17.5t16.5 28.5t4.5 38h149q0 -42 -12 -77.5t-41.5 -61.5t-79 -41t-123.5 -15z" />
    <glyph glyph-name="acircumflex" unicode="&#xe2;" horiz-adv-x="652" 
d="M198 -5q-86 0 -128 42t-42 119q0 85 51.5 127t158.5 49l133 8q-1 14 -6 24t-16 16t-30.5 9t-49.5 3q-45 0 -96 -5.5t-99 -14.5l-15 154q65 11 127.5 16.5t113.5 5.5q302 0 302 -193v-355h-188l-21 65h-10q-38 -38 -87 -54t-98 -16zM304 144q22 0 42.5 6.5t25.5 14.5v69
l-56 -5q-31 -3 -42.5 -12t-11.5 -32q0 -22 9.5 -31.5t32.5 -9.5zM96 745l232 82l238 -82v-148l-235 81l-235 -81v148z" />
    <glyph glyph-name="circumflex" unicode="&#x2c6;" horiz-adv-x="552" 
d="M37 745l232 82l238 -82v-148l-235 81l-235 -81v148z" />
    <glyph glyph-name="adblgrave" unicode="&#x201;" horiz-adv-x="652" 
d="M198 -5q-86 0 -128 42t-42 119q0 85 51.5 127t158.5 49l133 8q-1 14 -6 24t-16 16t-30.5 9t-49.5 3q-45 0 -96 -5.5t-99 -14.5l-15 154q65 11 127.5 16.5t113.5 5.5q302 0 302 -193v-355h-188l-21 65h-10q-38 -38 -87 -54t-98 -16zM304 144q22 0 42.5 6.5t25.5 14.5v69
l-56 -5q-31 -3 -42.5 -12t-11.5 -32q0 -22 9.5 -31.5t32.5 -9.5zM139 607l-133 201h231l61 -191zM391 607l-133 201h231l62 -191z" />
    <glyph glyph-name="uni030F" unicode="&#x30f;" horiz-adv-x="590" 
d="M138 607l-133 201h231l61 -191zM390 607l-133 201h231l62 -191z" />
    <glyph glyph-name="adieresis" unicode="&#xe4;" horiz-adv-x="652" 
d="M198 -5q-86 0 -128 42t-42 119q0 85 51.5 127t158.5 49l133 8q-1 14 -6 24t-16 16t-30.5 9t-49.5 3q-45 0 -96 -5.5t-99 -14.5l-15 154q65 11 127.5 16.5t113.5 5.5q302 0 302 -193v-355h-188l-21 65h-10q-38 -38 -87 -54t-98 -16zM304 144q22 0 42.5 6.5t25.5 14.5v69
l-56 -5q-31 -3 -42.5 -12t-11.5 -32q0 -22 9.5 -31.5t32.5 -9.5zM184 606q-59 0 -84 25t-25 81t25 80.5t84 24.5q60 0 84.5 -26t24.5 -79q0 -56 -24.5 -81t-84.5 -25zM481 606q-59 0 -84 25t-25 81t25 80.5t84 24.5q60 0 84.5 -26t24.5 -79q0 -56 -24.5 -81t-84.5 -25z" />
    <glyph glyph-name="dieresis" unicode="&#xa8;" horiz-adv-x="599" 
d="M149 606q-59 0 -84 25t-25 81t25 80.5t84 24.5q60 0 84.5 -26t24.5 -79q0 -56 -24.5 -81t-84.5 -25zM446 606q-59 0 -84 25t-25 81t25 80.5t84 24.5q60 0 84.5 -26t24.5 -79q0 -56 -24.5 -81t-84.5 -25z" />
    <glyph glyph-name="ae" unicode="&#xe6;" horiz-adv-x="1005" 
d="M693 -16q-163 0 -232 85h-10q-121 -74 -258 -74q-80 0 -122 42.5t-42 122.5q0 81 51.5 123t158.5 49l134 8v5q0 15 -5.5 24.5t-20 14t-39.5 6t-63 1.5q-34 0 -78.5 -5t-91.5 -14l-15 154q122 22 253 22q126 0 195 -46h10q35 20 79.5 30t100.5 10q136 0 205.5 -59
t69.5 -174q0 -59 -13 -97h-353q3 -19 9.5 -30.5t18.5 -17.5t31.5 -8t47.5 -2q29 0 62 1.5t64.5 4.5t58.5 6.5t44 7.5l6 -159q-57 -15 -123 -23t-133 -8zM307 144q20 0 40.5 6.5t25.5 14.5v69l-56 -5q-32 -3 -43 -12.5t-11 -29.5q0 -24 9.5 -33.5t34.5 -9.5zM772 315
q-2 40 -21 57t-65 17q-42 0 -59.5 -15.5t-21.5 -58.5h167z" />
    <glyph glyph-name="aeacute" unicode="&#x1fd;" horiz-adv-x="1005" 
d="M420 617l61 191h235l-132 -201zM693 -16q-163 0 -232 85h-10q-121 -74 -258 -74q-80 0 -122 42.5t-42 122.5q0 81 51.5 123t158.5 49l134 8v5q0 15 -5.5 24.5t-20 14t-39.5 6t-63 1.5q-34 0 -78.5 -5t-91.5 -14l-15 154q122 22 253 22q126 0 195 -46h10q35 20 79.5 30
t100.5 10q136 0 205.5 -59t69.5 -174q0 -59 -13 -97h-353q3 -19 9.5 -30.5t18.5 -17.5t31.5 -8t47.5 -2q29 0 62 1.5t64.5 4.5t58.5 6.5t44 7.5l6 -159q-57 -15 -123 -23t-133 -8zM307 144q20 0 40.5 6.5t25.5 14.5v69l-56 -5q-32 -3 -43 -12.5t-11 -29.5q0 -24 9.5 -33.5
t34.5 -9.5zM772 315q-2 40 -21 57t-65 17q-42 0 -59.5 -15.5t-21.5 -58.5h167z" />
    <glyph glyph-name="agrave" unicode="&#xe0;" horiz-adv-x="652" 
d="M198 -5q-86 0 -128 42t-42 119q0 85 51.5 127t158.5 49l133 8q-1 14 -6 24t-16 16t-30.5 9t-49.5 3q-45 0 -96 -5.5t-99 -14.5l-15 154q65 11 127.5 16.5t113.5 5.5q302 0 302 -193v-355h-188l-21 65h-10q-38 -38 -87 -54t-98 -16zM304 144q22 0 42.5 6.5t25.5 14.5v69
l-56 -5q-31 -3 -42.5 -12t-11.5 -32q0 -22 9.5 -31.5t32.5 -9.5zM261 607l-133 201h236l61 -191z" />
    <glyph glyph-name="grave" unicode="`" horiz-adv-x="342" 
d="M138 607l-133 201h236l61 -191z" />
    <glyph glyph-name="ainvertedbreve" unicode="&#x203;" horiz-adv-x="652" 
d="M198 -5q-86 0 -128 42t-42 119q0 85 51.5 127t158.5 49l133 8q-1 14 -6 24t-16 16t-30.5 9t-49.5 3q-45 0 -96 -5.5t-99 -14.5l-15 154q65 11 127.5 16.5t113.5 5.5q302 0 302 -193v-355h-188l-21 65h-10q-38 -38 -87 -54t-98 -16zM304 144q22 0 42.5 6.5t25.5 14.5v69
l-56 -5q-31 -3 -42.5 -12t-11.5 -32q0 -22 9.5 -31.5t32.5 -9.5zM74 621q0 40 12 75.5t41.5 62t78.5 42t124 15.5q74 0 123.5 -15t79 -41.5t41.5 -62t12 -76.5h-149q0 21 -4.5 37.5t-16.5 28t-32.5 17.5t-53.5 6q-32 0 -53 -6t-33 -17.5t-16.5 -28t-4.5 -37.5h-149z" />
    <glyph glyph-name="uni0311" unicode="&#x311;" horiz-adv-x="571" 
d="M25 621q0 40 12 75.5t41.5 62t78.5 42t124 15.5q74 0 123.5 -15t79 -41.5t41.5 -62t12 -76.5h-149q0 21 -4.5 37.5t-16.5 28t-32.5 17.5t-53.5 6q-32 0 -53 -6t-33 -17.5t-16.5 -28t-4.5 -37.5h-149v0z" />
    <glyph glyph-name="amacron" unicode="&#x101;" horiz-adv-x="652" 
d="M198 -5q-86 0 -128 42t-42 119q0 85 51.5 127t158.5 49l133 8q-1 14 -6 24t-16 16t-30.5 9t-49.5 3q-45 0 -96 -5.5t-99 -14.5l-15 154q65 11 127.5 16.5t113.5 5.5q302 0 302 -193v-355h-188l-21 65h-10q-38 -38 -87 -54t-98 -16zM304 144q22 0 42.5 6.5t25.5 14.5v69
l-56 -5q-31 -3 -42.5 -12t-11.5 -32q0 -22 9.5 -31.5t32.5 -9.5zM99 791h466v-148h-466v148z" />
    <glyph glyph-name="macron" unicode="&#xaf;" horiz-adv-x="578" 
d="M51 791h466v-148h-466v148z" />
    <glyph glyph-name="ampersand" unicode="&#x26;" horiz-adv-x="874" 
d="M389 -9q-80 0 -145 15t-111 43t-70.5 68t-24.5 89q0 71 42 121.5t114 70.5q-47 42 -67.5 79t-20.5 76q0 45 22.5 82t64 63t100 40t131.5 14q54 0 112.5 -7t119.5 -20l4 -6l-22 -145h-11q-43 13 -91.5 20.5t-84.5 7.5q-54 0 -79.5 -15.5t-25.5 -48.5q0 -62 195 -161
l40 -21v91h210v-103q0 -24 -2.5 -46.5t-7.5 -43.5l100 -50v-16l-82 -152h-12l-98 55q-52 -48 -127.5 -74t-172.5 -26zM450 228q-32 18 -61 35t-55 33q-55 -19 -55 -77q0 -36 35 -58.5t92 -22.5q83 0 126 43z" />
    <glyph glyph-name="ampersand.sc" horiz-adv-x="815" 
d="M360 -6q-75 0 -135 12t-102.5 33.5t-65.5 52.5t-23 69q0 56 39 96t106 54q-45 34 -64.5 62.5t-19.5 55.5q0 35 21 64t60 49.5t93.5 32t122.5 11.5q49 0 103.5 -5t111.5 -13l4 -5l-20 -136h-11q-39 9 -84 15t-78 6q-48 0 -70.5 -7.5t-22.5 -24.5q0 -15 44.5 -42.5
t132.5 -62.5l30 -12v59h201v-89q0 -31 -6 -56l90 -40v-15l-78 -143h-11l-100 50q-48 -35 -115.5 -53t-152.5 -18zM376 129q56 0 93 17l-54 28q-27 14 -50.5 26.5t-45.5 24.5q-25 -8 -39.5 -20t-14.5 -32q0 -19 30.5 -31.5t80.5 -12.5z" />
    <glyph glyph-name="aogonek" unicode="&#x105;" horiz-adv-x="653" 
d="M507 -220q-82 0 -128.5 25.5t-46.5 70.5q0 16 6.5 34t17.5 34.5t26 31t33 24.5l-21 65h-10q-38 -38 -87 -54t-98 -16q-86 0 -128 42t-42 119q0 85 51.5 127t158.5 49l133 8q-1 14 -6 24t-16 16t-30.5 9t-49.5 3q-45 0 -96 -5.5t-99 -14.5l-15 154q65 11 127.5 16.5
t113.5 5.5q302 0 302 -193v-360q-36 -14 -60.5 -24.5t-39 -20t-20.5 -18t-6 -17.5q0 -20 26 -20q6 0 17.5 1.5t25.5 3.5t29.5 5.5t29.5 6.5v-120q-44 -12 -98 -12zM305 144q22 0 42.5 6.5t25.5 14.5v69l-56 -5q-31 -3 -42.5 -12t-11.5 -32q0 -22 9.5 -31.5t32.5 -9.5z" />
    <glyph glyph-name="apostrophe" unicode="&#x2bc;" horiz-adv-x="262" 
d="M229 808v-4l-53 -224h-125v228h178z" />
    <glyph glyph-name="approxequal" unicode="&#x2248;" horiz-adv-x="557" 
d="M57 487q32 14 65 28.5t72 14.5q24 0 45.5 -6t42.5 -13t42 -13t45 -6q39 0 70.5 10t62.5 26v-121q-29 -17 -61.5 -32t-71.5 -15q-24 0 -45 6t-42 13t-42.5 13t-45.5 6q-39 0 -72 -9.5t-65 -25.5v124zM57 295q32 14 65 28.5t72 14.5q24 0 45.5 -6t42.5 -13t42 -13t45 -6
q39 0 70.5 10t62.5 26v-121q-29 -17 -61.5 -32t-71.5 -15q-24 0 -45 6t-42 13t-42.5 13t-45.5 6q-39 0 -72 -9.5t-65 -25.5v124z" />
    <glyph glyph-name="aring" unicode="&#xe5;" horiz-adv-x="652" 
d="M198 -5q-86 0 -128 42t-42 119q0 85 51.5 127t158.5 49l133 8q-1 14 -6 24t-16 16t-30.5 9t-49.5 3q-45 0 -96 -5.5t-99 -14.5l-15 154q65 11 127.5 16.5t113.5 5.5q302 0 302 -193v-355h-188l-21 65h-10q-38 -38 -87 -54t-98 -16zM304 144q22 0 42.5 6.5t25.5 14.5v69
l-56 -5q-31 -3 -42.5 -12t-11.5 -32q0 -22 9.5 -31.5t32.5 -9.5zM326 580q-32 0 -59 8.5t-46.5 24t-31 37t-11.5 48.5t11.5 49t31 37.5t46.5 24.5t59 9t59 -9t47 -24.5t31 -37.5t11 -49t-11 -48.5t-31 -37t-47 -24t-59 -8.5zM326 650q37 0 49.5 11.5t12.5 36.5
q0 26 -12.5 37.5t-49.5 11.5q-36 0 -49 -11.5t-13 -37.5q0 -25 13 -36.5t49 -11.5z" />
    <glyph glyph-name="ring" unicode="&#x2da;" horiz-adv-x="365" 
d="M181 580q-32 0 -59 8.5t-46.5 24t-31 37t-11.5 48.5t11.5 49t31 37.5t46.5 24.5t59 9t59 -9t47 -24.5t31 -37.5t11 -49t-11 -48.5t-31 -37t-47 -24t-59 -8.5zM181 650q37 0 49.5 11.5t12.5 36.5q0 26 -12.5 37.5t-49.5 11.5q-36 0 -49 -11.5t-13 -37.5q0 -25 13 -36.5
t49 -11.5z" />
    <glyph glyph-name="aringacute" unicode="&#x1fb;" horiz-adv-x="652" 
d="M198 -5q-86 0 -128 42t-42 119q0 85 51.5 127t158.5 49l133 8q-1 14 -6 24t-16 16t-30.5 9t-49.5 3q-45 0 -96 -5.5t-99 -14.5l-15 154q65 11 127.5 16.5t113.5 5.5q302 0 302 -193v-355h-188l-21 65h-10q-38 -38 -87 -54t-98 -16zM326 580q-32 0 -59 8.5t-46.5 24
t-31 37t-11.5 48.5q0 44 29 74.5t76 40.5l53 167h235l-133 -201q36 -31 36 -81q0 -27 -11 -48.5t-31 -37t-47 -24t-59 -8.5zM326 650q37 0 49.5 11.5t12.5 36.5q0 26 -12.5 37.5t-49.5 11.5q-36 0 -49 -11.5t-13 -37.5q0 -25 13 -36.5t49 -11.5zM304 144q22 0 42.5 6.5
t25.5 14.5v69l-56 -5q-31 -3 -42.5 -12t-11.5 -32q0 -22 9.5 -31.5t32.5 -9.5z" />
    <glyph glyph-name="arrowdown" unicode="&#x2193;" horiz-adv-x="714" 
d="M22 380l115 115l136 -159v403h168v-403l136 159l115 -115l-303 -304h-64z" />
    <glyph glyph-name="arrowleft" unicode="&#x2190;" horiz-adv-x="723" 
d="M25 377v64l304 303l115 -115l-159 -136h403v-168h-403l159 -136l-115 -115z" />
    <glyph glyph-name="arrowright" unicode="&#x2192;" horiz-adv-x="723" 
d="M279 189l158 136h-402v168h402l-158 136l115 115l304 -303v-64l-304 -303z" />
    <glyph glyph-name="arrowup" unicode="&#x2191;" horiz-adv-x="712" 
d="M272 478l-136 -158l-115 115l303 304h64l303 -304l-115 -115l-136 158v-402h-168v402z" />
    <glyph glyph-name="asciicircum" unicode="^" horiz-adv-x="606" 
d="M197 789h212l170 -308h-160l-114 179h-4l-113 -179h-161z" />
    <glyph glyph-name="asciitilde" unicode="~" horiz-adv-x="757" 
d="M26 258q39 46 68 75.5t54.5 47t49.5 24.5t51 7q37 0 67.5 -12t58.5 -26t54.5 -26t54.5 -12q36 0 66.5 19.5t62.5 60.5l118 -70q-19 -27 -41.5 -59.5t-49.5 -60t-60 -46.5t-72 -19q-37 0 -67.5 12t-58.5 26.5t-54.5 26.5t-54.5 12q-35 0 -66 -20t-63 -60z" />
    <glyph glyph-name="asterisk" unicode="*" horiz-adv-x="508" 
d="M76 477l43 59l86 67l-109 4l-68 23l36 112l69 -22l92 -62l-30 108v72h118v-72l-31 -107l92 61l69 22l36 -112l-68 -23l-109 -4l86 -67l43 -59l-96 -69l-43 58l-39 106l-38 -106l-43 -58z" />
    <glyph glyph-name="at" unicode="@" horiz-adv-x="916" 
d="M445 -129q-95 0 -170.5 26.5t-129 77t-82 122t-28.5 161.5q0 95 30.5 171t87 129t137 81.5t181.5 28.5q96 0 170.5 -24.5t126.5 -71.5t79 -114.5t27 -154.5q0 -121 -56 -185t-162 -64q-36 0 -58 12.5t-35 27.5q-15 18 -22 41h-5q-23 -35 -69.5 -56.5t-99.5 -21.5
q-59 0 -97.5 44t-38.5 134q0 55 17.5 102t50.5 80.5t79.5 52.5t104.5 19q42 0 88 -10.5t84 -27.5l-42 -205q0 -8 -2 -15.5t-2 -14.5q0 -23 12 -37t43 -14q37 0 59 35t22 103q0 117 -71 178.5t-203 61.5q-71 0 -127.5 -19.5t-96.5 -56.5t-61 -89.5t-21 -119.5
q0 -62 19.5 -110t55.5 -82t88 -51.5t117 -17.5q79 0 208 36l32 -121q-149 -41 -240 -41zM404 165q38 1 65 28.5t36 72.5l23 115q-22 5 -41 5q-27 0 -50 -12t-40 -32t-26.5 -48t-9.5 -59q0 -70 43 -70z" />
    <glyph glyph-name="atilde" unicode="&#xe3;" horiz-adv-x="652" 
d="M198 -5q-86 0 -128 42t-42 119q0 85 51.5 127t158.5 49l133 8q-1 14 -6 24t-16 16t-30.5 9t-49.5 3q-45 0 -96 -5.5t-99 -14.5l-15 154q65 11 127.5 16.5t113.5 5.5q302 0 302 -193v-355h-188l-21 65h-10q-38 -38 -87 -54t-98 -16zM304 144q22 0 42.5 6.5t25.5 14.5v69
l-56 -5q-31 -3 -42.5 -12t-11.5 -32q0 -22 9.5 -31.5t32.5 -9.5zM63 661q38 75 89 112.5t97 37.5q29 0 58 -5.5t57.5 -12.5t57.5 -12.5t58 -5.5q24 0 47.5 6.5t57.5 29.5l23 -38q-40 -75 -90.5 -112.5t-94.5 -37.5q-29 0 -58 5.5t-58 12.5t-58 12.5t-58 5.5
q-26 0 -49.5 -6.5t-54.5 -29.5z" />
    <glyph glyph-name="tilde" unicode="&#x2dc;" horiz-adv-x="576" 
d="M16 661q38 75 89 112.5t97 37.5q29 0 58 -5.5t57.5 -12.5t57.5 -12.5t58 -5.5q24 0 47.5 6.5t57.5 29.5l23 -38q-40 -75 -90.5 -112.5t-94.5 -37.5q-29 0 -58 5.5t-58 12.5t-58 12.5t-58 5.5q-26 0 -49.5 -6.5t-54.5 -29.5z" />
    <glyph glyph-name="b" unicode="b" horiz-adv-x="736" 
d="M366 -12q-26 0 -52 0.5t-61 4t-82.5 10.5t-116.5 20v785h230v-324q29 35 72 50t99 15q125 0 188 -66.5t63 -199.5q0 -72 -24.5 -127.5t-69 -92.5t-107 -56t-139.5 -19zM361 141q37 0 60 4.5t35 18t16 38.5t4 66q0 33 -3.5 54t-13.5 33t-27.5 17t-45.5 5q-54 0 -78 -18
t-24 -56v-156q28 -6 77 -6z" />
    <glyph glyph-name="backslash" unicode="\" horiz-adv-x="513" 
d="M21 740h197l274 -860h-197z" />
    <glyph glyph-name="bar" unicode="|" horiz-adv-x="365" 
d="M290 808v-1028h-215v1028h215z" />
    <glyph glyph-name="bar.tab" horiz-adv-x="335" 
d="M274 808v-1028h-213v1028h213z" />
    <glyph glyph-name="braceleft" unicode="{" horiz-adv-x="354" 
d="M27 438q35 0 45.5 20.5t10.5 60.5v222q0 69 28 98t88 29q9 0 27 -0.5t36.5 -1.5t33.5 -1.5t20 -1.5v-139h-7q-24 0 -34.5 -10t-10.5 -32v-211q0 -47 -23.5 -78.5t-61.5 -38.5q38 -5 61.5 -36t23.5 -78v-214q0 -22 10.5 -32t34.5 -10h7v-139q-5 -1 -20 -2t-33.5 -1.5
t-36.5 -1t-27 -0.5q-60 0 -88 29t-28 98v225q0 40 -10.5 60t-45.5 20v166z" />
    <glyph glyph-name="braceleft.sc" horiz-adv-x="349" 
d="M36 354q32 0 40.5 14.5t8.5 42.5v167q0 54 25.5 76.5t79.5 22.5q8 0 24 -0.5t33 -1t31 -1t18 -1.5v-131h-3q-36 0 -36 -32v-144q0 -37 -21.5 -61t-55.5 -29q34 -4 55.5 -27.5t21.5 -59.5v-146q0 -33 36 -33h3v-131q-4 0 -18 -1t-31 -1.5t-33 -1t-24 -0.5
q-54 0 -79.5 22.5t-25.5 76.5v169q0 28 -8.5 42t-40.5 14v155z" />
    <glyph glyph-name="braceright" unicode="}" horiz-adv-x="354" 
d="M327 272q-35 0 -45.5 -20t-10.5 -60v-225q0 -69 -28 -98t-88 -29q-9 0 -27 0.5t-36.5 1t-34 1.5t-19.5 2v139h7q24 0 34.5 10t10.5 32v214q0 47 23.5 78t61.5 36q-38 7 -61.5 38.5t-23.5 78.5v211q0 22 -10.5 32t-34.5 10h-7v139q4 1 19.5 1.5t34 1.5t36.5 1.5t27 0.5
q60 0 88 -29t28 -98v-222q0 -40 10.5 -60.5t45.5 -20.5v-166z" />
    <glyph glyph-name="braceright.sc" horiz-adv-x="348" 
d="M312 199q-32 0 -40 -14t-8 -42v-169q0 -54 -25.5 -76.5t-79.5 -22.5q-9 0 -25 0.5t-33 1t-30.5 1.5t-17.5 1v131h3q36 0 36 33v146q0 36 21 59.5t55 27.5q-34 5 -55 29t-21 61v144q0 16 -9.5 24t-26.5 8h-3v131q4 1 17.5 1.5t30.5 1t33 1t25 0.5q54 0 79.5 -22.5
t25.5 -76.5v-167q0 -28 8 -42.5t40 -14.5v-155z" />
    <glyph glyph-name="bracketleft" unicode="[" horiz-adv-x="409" 
d="M75 868h310v-144h-135v-740h135v-144h-310v1028z" />
    <glyph glyph-name="bracketleft.sc" horiz-adv-x="408" 
d="M82 677h288v-135h-122v-532h122v-135h-288v802z" />
    <glyph glyph-name="bracketright" unicode="]" horiz-adv-x="409" 
d="M24 -160v144h136v740h-136v144h310v-1028h-310z" />
    <glyph glyph-name="bracketright.sc" horiz-adv-x="408" 
d="M38 -125v135h123v532h-123v135h288v-802h-288z" />
    <glyph glyph-name="brokenbar" unicode="&#xa6;" horiz-adv-x="367" 
d="M76 205h215v-425h-215v425zM76 808h215v-425h-215v425z" />
    <glyph glyph-name="bullet" unicode="&#x2022;" horiz-adv-x="413" 
d="M206 226q-69 0 -109 37.5t-40 106.5t40 106.5t109 37.5t109.5 -37.5t40.5 -106.5t-40.5 -106.5t-109.5 -37.5z" />
    <glyph glyph-name="c" unicode="c" horiz-adv-x="582" 
d="M324 -9q-293 0 -293 279t293 279q60 0 117 -5t99 -14v-177q-54 5 -102 8t-92 3q-26 0 -43 -4.5t-27.5 -15t-15 -28t-4.5 -44.5q0 -54 19 -75t69 -21q63 0 107 2.5t89 8.5v-177q-42 -9 -99 -14t-117 -5z" />
    <glyph glyph-name="cacute" unicode="&#x107;" horiz-adv-x="582" 
d="M247 617l61 191h235l-132 -201zM324 -9q-293 0 -293 279t293 279q60 0 117 -5t99 -14v-177q-54 5 -102 8t-92 3q-26 0 -43 -4.5t-27.5 -15t-15 -28t-4.5 -44.5q0 -54 19 -75t69 -21q63 0 107 2.5t89 8.5v-177q-42 -9 -99 -14t-117 -5z" />
    <glyph glyph-name="caron" unicode="&#x2c7;" horiz-adv-x="537" 
d="M30 827l235 -82l235 82v-149l-238 -81l-232 81v149z" />
    <glyph glyph-name="ccaron" unicode="&#x10d;" horiz-adv-x="582" 
d="M81 827l235 -82l235 82v-149l-238 -81l-232 81v149zM324 -9q-293 0 -293 279t293 279q60 0 117 -5t99 -14v-177q-54 5 -102 8t-92 3q-26 0 -43 -4.5t-27.5 -15t-15 -28t-4.5 -44.5q0 -54 19 -75t69 -21q63 0 107 2.5t89 8.5v-177q-42 -9 -99 -14t-117 -5z" />
    <glyph glyph-name="ccedilla" unicode="&#xe7;" horiz-adv-x="582" 
d="M320 -220q-26 0 -58 4l-64 8v128q22 -5 48 -9t46 -4q16 0 20.5 4.5t4.5 9.5q0 10 -8.5 28.5t-28.5 43.5q-249 18 -249 277q0 279 293 279q60 0 117 -5t99 -14v-177q-54 5 -102 8t-92 3q-26 0 -43 -4.5t-27.5 -15t-15 -28t-4.5 -44.5q0 -54 19 -75t69 -21q63 0 107 2.5
t89 8.5v-177q-26 -6 -58.5 -10t-67.5 -6q27 -32 37 -54.5t10 -46.5q0 -54 -38.5 -83.5t-102.5 -29.5z" />
    <glyph glyph-name="ccircumflex" unicode="&#x109;" horiz-adv-x="582" 
d="M90 745l232 82l238 -82v-148l-235 81l-235 -81v148zM324 -9q-293 0 -293 279t293 279q60 0 117 -5t99 -14v-177q-54 5 -102 8t-92 3q-26 0 -43 -4.5t-27.5 -15t-15 -28t-4.5 -44.5q0 -54 19 -75t69 -21q63 0 107 2.5t89 8.5v-177q-42 -9 -99 -14t-117 -5z" />
    <glyph glyph-name="cdotaccent" unicode="&#x10b;" horiz-adv-x="582" 
d="M324 -9q-293 0 -293 279t293 279q60 0 117 -5t99 -14v-177q-54 5 -102 8t-92 3q-26 0 -43 -4.5t-27.5 -15t-15 -28t-4.5 -44.5q0 -54 19 -75t69 -21q63 0 107 2.5t89 8.5v-177q-42 -9 -99 -14t-117 -5zM317 594q-66 0 -94 27.5t-28 90.5q0 62 28 90t94 28q68 0 94.5 -29
t26.5 -89t-26.5 -89t-94.5 -29z" />
    <glyph glyph-name="dotaccent" unicode="&#x2d9;" horiz-adv-x="330" 
d="M164 594q-66 0 -94 27.5t-28 90.5q0 62 28 90t94 28q68 0 94.5 -29t26.5 -89t-26.5 -89t-94.5 -29z" />
    <glyph glyph-name="cent" unicode="&#xa2;" horiz-adv-x="589" 
d="M283 -7q-253 16 -253 277q0 259 253 277v113h136v-114q34 -2 64.5 -6.5t55.5 -9.5v-177q-54 5 -102 8t-92 3q-26 0 -43 -4.5t-27.5 -15t-15 -28t-4.5 -44.5q0 -54 19 -75t69 -21q63 0 107 2.5t89 8.5v-177q-25 -5 -55.5 -9.5t-64.5 -6.5v-114h-136v113z" />
    <glyph glyph-name="cent.tab" 
d="M322 -7q-273 18 -273 277t273 277v113h141v-114q37 -2 70.5 -6.5t60.5 -9.5v-177q-57 5 -107.5 8t-97.5 3q-31 0 -52 -4.5t-33.5 -15t-18 -28t-5.5 -44.5q0 -54 24 -75t83 -21q66 0 112.5 2.5t94.5 8.5v-177q-27 -6 -60.5 -10t-70.5 -6v-114h-141v113z" />
    <glyph glyph-name="colon" unicode=":" horiz-adv-x="337" 
d="M168 -10q-56 0 -90.5 27.5t-34.5 87.5t34.5 87.5t90.5 27.5q57 0 91.5 -27.5t34.5 -87.5t-34.5 -87.5t-91.5 -27.5zM168 320q-56 0 -90.5 27.5t-34.5 87.5t34.5 87.5t90.5 27.5q57 0 91.5 -27.5t34.5 -87.5t-34.5 -87.5t-91.5 -27.5z" />
    <glyph glyph-name="period" unicode="." horiz-adv-x="317" 
d="M158 -10q-56 0 -90.5 27.5t-34.5 87.5t34.5 87.5t90.5 27.5q57 0 91.5 -27.5t34.5 -87.5t-34.5 -87.5t-91.5 -27.5z" />
    <glyph glyph-name="colon.tab" horiz-adv-x="335" 
d="M167 -10q-55 0 -89 27.5t-34 87.5t34 87.5t89 27.5t89 -27.5t34 -87.5t-34 -87.5t-89 -27.5zM167 320q-55 0 -89 27.5t-34 87.5t34 87.5t89 27.5t89 -27.5t34 -87.5t-34 -87.5t-89 -27.5z" />
    <glyph glyph-name="colonmonetary" unicode="&#x20a1;" horiz-adv-x="669" 
d="M460 -15q-23 0 -43.5 1t-40.5 3l-12 -42h-127l19 66q-112 37 -166 125t-54 231q0 196 98.5 291t301.5 95q9 0 18.5 -0.5t20.5 -0.5l16 53h127l-19 -63q6 0 11.5 -0.5t11.5 -1.5v-186l-76 6l-115 -387h31q16 0 38.5 1t45.5 2.5t43.5 4t32.5 4.5v-187q-84 -15 -162 -15z
M278 369q0 -63 7.5 -101t28.5 -59l105 356q-44 -3 -71.5 -12.5t-43 -31.5t-21 -59t-5.5 -93z" />
    <glyph glyph-name="comma" unicode="," horiz-adv-x="329" 
d="M22 -145l42 362h230l-101 -372z" />
    <glyph glyph-name="comma.tab" horiz-adv-x="335" 
d="M25 -145l42 362h231l-102 -372z" />
    <glyph glyph-name="copyright" unicode="&#xa9;" horiz-adv-x="812" 
d="M426 164q-190 0 -190 205t190 205q24 0 49.5 -3t43.5 -8v-103q-27 5 -46.5 7t-31.5 2q-25 0 -40.5 -5.5t-24 -17.5t-11.5 -31t-3 -45q0 -53 14.5 -77t62.5 -24q11 0 32 2t48 7v-103q-18 -5 -43.5 -8t-49.5 -3zM406 -10q-84 0 -152.5 27.5t-116.5 77.5t-74.5 120
t-26.5 155t26.5 155t74.5 120t116.5 77.5t152.5 27.5t152.5 -27.5t116.5 -77.5t74.5 -120t26.5 -155t-26.5 -155t-74.5 -120t-116.5 -77.5t-152.5 -27.5zM406 88q63 0 112 20t82.5 57t51.5 89t18 116t-18 116t-51.5 89t-82.5 57t-112 20t-112.5 -20t-83 -57t-51.5 -89
t-18 -116t18 -116t51.5 -89t83 -57t112.5 -20z" />
    <glyph glyph-name="currency" unicode="&#xa4;" horiz-adv-x="665" 
d="M46 163l55 54l33 23q-32 24 -50 57t-18 73t18 72.5t51 56.5l-34 24l-55 54l79 79l55 -54l43 -63q25 6 52.5 9.5t57.5 3.5q29 0 56.5 -3.5t51.5 -9.5l44 63l55 54l79 -79l-54 -54l-35 -24q33 -24 51 -56.5t18 -72.5t-18 -72.5t-50 -56.5l34 -24l54 -54l-79 -79l-55 54
l-43 62q-48 -13 -109 -13q-64 0 -110 13l-43 -62l-55 -54zM199 370q0 -38 36 -57.5t98 -19.5q61 0 97 19.5t36 57.5q0 41 -37.5 58.5t-95.5 17.5q-62 0 -98 -19t-36 -57z" />
    <glyph glyph-name="currency.ss01" horiz-adv-x="796" 
d="M434 -10q-23 0 -45.5 0.5t-44.5 0.5v-141h-167v149q-48 1 -99 6v730q26 2 50 3.5t49 3.5v148h167v-141q14 1 27 1h27h18t18 -1v141h166v-163q79 -23 116.5 -69.5t37.5 -120.5q0 -118 -135 -154v-4q78 -14 119 -59t41 -115q0 -83 -43.5 -132t-135.5 -69v-154h-166v140z
M429 149q62 0 90 19.5t28 61.5q0 40 -26.5 56.5t-91.5 16.5h-126v-151q7 -1 14 -1.5t20 -1t34.5 -0.5h57.5zM408 447q64 0 89.5 16t25.5 57q0 40 -25.5 56t-89.5 16q-31 0 -58 -1.5t-47 -4.5v-139h105z" />
    <glyph glyph-name="d" unicode="d" horiz-adv-x="738" 
d="M281 -11q-125 0 -188 66.5t-63 199.5q0 72 24.5 127.5t69 92.5t107 56t139.5 19q22 0 42 -1t40 -3v262h230v-808h-199l-19 71h-10q-28 -44 -69.5 -63t-103.5 -19zM350 156q54 0 77 18.5t25 59.5v150q-40 8 -89 8q-33 0 -53 -4.5t-31.5 -17.5t-15 -37t-3.5 -63
q0 -34 3.5 -56t13.5 -35t27.5 -18t45.5 -5z" />
    <glyph glyph-name="dagger" unicode="&#x2020;" horiz-adv-x="686" 
d="M248 265v80l39 136l-198 -22h-61v156h61l198 -22l-39 136v79h191v-79l-40 -136l198 22h61v-156h-61l-198 22l40 -136v-80l-40 -200h-112z" />
    <glyph glyph-name="daggerdbl" unicode="&#x2021;" horiz-adv-x="715" 
d="M262 -119l39 136l-198 -22h-61v156h61l198 -22l-39 136v80l39 136l-198 -22h-61v156h61l198 -22l-39 136v79h191v-79l-40 -136l198 22h61v-156h-61l-198 22l40 -136v-80l-40 -136l198 22h61v-156h-61l-198 22l40 -136v-79h-191v79z" />
    <glyph glyph-name="dcaron" unicode="&#x10f;" horiz-adv-x="738" 
d="M728 808h178l-53 -228h-125v228zM281 -11q-125 0 -188 66.5t-63 199.5q0 72 24.5 127.5t69 92.5t107 56t139.5 19q22 0 42 -1t40 -3v262h230v-808h-199l-19 71h-10q-28 -44 -69.5 -63t-103.5 -19zM350 156q54 0 77 18.5t25 59.5v150q-40 8 -89 8q-33 0 -53 -4.5
t-31.5 -17.5t-15 -37t-3.5 -63q0 -34 3.5 -56t13.5 -35t27.5 -18t45.5 -5z" />
    <glyph glyph-name="dcroat" unicode="&#x111;" horiz-adv-x="738" 
d="M280 735h172v73h230v-73h72v-123h-72v-612h-199l-19 71h-10q-28 -44 -69.5 -63t-103.5 -19q-125 0 -188 66.5t-63 199.5q0 72 24.5 127.5t69 92.5t107 56t139.5 19q22 0 42 -1t40 -3v66h-172v123zM350 156q54 0 77 18.5t25 59.5v150q-40 8 -89 8q-33 0 -53 -4.5
t-31.5 -17.5t-15 -37t-3.5 -63q0 -34 3.5 -56t13.5 -35t27.5 -18t45.5 -5z" />
    <glyph glyph-name="ddotbelow" unicode="&#x1e0d;" horiz-adv-x="738" 
d="M380 -220q-50 0 -70.5 20.5t-20.5 66.5q0 47 20.5 67.5t70.5 20.5q52 0 71.5 -22t19.5 -66t-19.5 -65.5t-71.5 -21.5zM281 -11q-125 0 -188 66.5t-63 199.5q0 72 24.5 127.5t69 92.5t107 56t139.5 19q22 0 42 -1t40 -3v262h230v-808h-199l-19 71h-10q-28 -44 -69.5 -63
t-103.5 -19zM350 156q54 0 77 18.5t25 59.5v150q-40 8 -89 8q-33 0 -53 -4.5t-31.5 -17.5t-15 -37t-3.5 -63q0 -34 3.5 -56t13.5 -35t27.5 -18t45.5 -5z" />
    <glyph glyph-name="degree" unicode="&#xb0;" horiz-adv-x="526" 
d="M264 371q-53 0 -97 14t-76 39t-49.5 60t-17.5 76t17.5 76t49.5 60.5t76 39.5t97 14q52 0 96 -14t75.5 -39.5t49 -60.5t17.5 -76t-17.5 -76t-49 -60t-75.5 -39t-96 -14zM264 484q51 0 74 19.5t23 56.5t-23 57t-74 20t-75 -20t-24 -57t24 -56.5t75 -19.5z" />
    <glyph glyph-name="degree.tab" 
d="M336 371q-57 0 -105 14t-82.5 39t-53.5 60t-19 76t19 76t53.5 60.5t82.5 39.5t105 14t104 -14t81.5 -39.5t53.5 -60.5t19 -76t-19 -76t-53.5 -60t-81.5 -39t-104 -14zM336 484q109 0 109 76q0 37 -27.5 57t-81.5 20q-55 0 -83 -20t-28 -57q0 -76 111 -76z" />
    <glyph glyph-name="divide" unicode="&#xf7;" horiz-adv-x="536" 
d="M270 91q-37 0 -60.5 21t-23.5 65q0 42 23.5 62t60.5 20q36 0 59.5 -20t23.5 -62q0 -44 -23.5 -65t-59.5 -21zM31 437h474v-134h-474v134zM270 481q-37 0 -60.5 20t-23.5 62q0 44 23.5 65t60.5 21q36 0 59.5 -21t23.5 -65q0 -42 -23.5 -62t-59.5 -20z" />
    <glyph glyph-name="divide.tab" 
d="M338 91q-41 0 -67 21t-26 65q0 42 26 62t67 20q40 0 65.5 -20t25.5 -62q0 -44 -25.5 -65t-65.5 -21zM57 437h556v-134h-556v134zM338 481q-41 0 -67 20t-26 62q0 44 26 65t67 21q40 0 65.5 -21t25.5 -65q0 -42 -25.5 -62t-65.5 -20z" />
    <glyph glyph-name="dollar" unicode="$" horiz-adv-x="726" 
d="M257 -8q-55 4 -112 10t-105 15v186q96 -19 166.5 -27t131.5 -8q63 0 87.5 8.5t24.5 31.5q0 26 -25.5 39.5t-87.5 21.5q-151 17 -220.5 76.5t-69.5 171.5q0 83 51 139t146 79v155h214v-142q37 -3 82.5 -9.5t114.5 -18.5v-185q-56 17 -122 26.5t-121 9.5q-117 0 -117 -47
q0 -29 27.5 -44.5t95.5 -25.5q148 -23 214 -75.5t66 -147.5q0 -200 -227 -234v-147h-214v142z" />
    <glyph glyph-name="dollar.tab" 
d="M229 -8q-54 4 -109.5 10t-102.5 15v186q94 -19 163.5 -27t129.5 -8q61 0 84 8.5t23 31.5q0 26 -23.5 39.5t-84.5 21.5q-148 17 -216.5 76.5t-68.5 171.5q0 83 50 138.5t142 79.5v155h213v-142q36 -3 81 -10t112 -18v-185q-55 16 -120 26t-119 10q-113 0 -113 -47
q0 -29 26.5 -44t92.5 -26q73 -11 125 -29.5t85.5 -45.5t49 -63.5t15.5 -84.5q0 -198 -222 -234v-147h-213v142z" />
    <glyph glyph-name="dotlessi" unicode="&#x131;" horiz-adv-x="340" 
d="M55 540h230v-540h-230v540z" />
    <glyph glyph-name="dotlessj" unicode="&#x237;" horiz-adv-x="337" 
d="M22 -199q10 46 17 85t11.5 82t6 95.5t1.5 126.5v55.5t-1 69.5t-2 94.5t-2 130.5h230v-472q-11 -84 -33.5 -153t-56.5 -135z" />
    <glyph glyph-name="e" unicode="e" horiz-adv-x="656" 
d="M345 -9q-160 0 -237 68t-77 209q0 281 319 281q136 0 205.5 -59t69.5 -174q0 -52 -13 -97h-353q3 -19 9.5 -30.5t18.5 -17.5t31.5 -8t47.5 -2q27 0 59.5 1.5t64 4.5t59.5 6.5t46 7.5l6 -159q-57 -15 -123 -23t-133 -8zM338 396q-42 0 -59.5 -15.5t-21.5 -58.5h167
q-2 40 -21 57t-65 17z" />
    <glyph glyph-name="eacute" unicode="&#xe9;" horiz-adv-x="656" 
d="M275 617l61 191h235l-132 -201zM345 -9q-160 0 -237 68t-77 209q0 281 319 281q136 0 205.5 -59t69.5 -174q0 -52 -13 -97h-353q3 -19 9.5 -30.5t18.5 -17.5t31.5 -8t47.5 -2q27 0 59.5 1.5t64 4.5t59.5 6.5t46 7.5l6 -159q-57 -15 -123 -23t-133 -8zM338 396
q-42 0 -59.5 -15.5t-21.5 -58.5h167q-2 40 -21 57t-65 17z" />
    <glyph glyph-name="ebreve" unicode="&#x115;" horiz-adv-x="656" 
d="M345 -9q-160 0 -237 68t-77 209q0 281 319 281q136 0 205.5 -59t69.5 -174q0 -52 -13 -97h-353q3 -19 9.5 -30.5t18.5 -17.5t31.5 -8t47.5 -2q27 0 59.5 1.5t64 4.5t59.5 6.5t46 7.5l6 -159q-57 -15 -123 -23t-133 -8zM338 396q-42 0 -59.5 -15.5t-21.5 -58.5h167
q-2 40 -21 57t-65 17zM334 611q-75 0 -124 15.5t-78.5 42t-41.5 62t-12 75.5h149q0 -21 4.5 -38t16.5 -28.5t33 -17.5t53 -6q33 0 53.5 6t32.5 17.5t16.5 28.5t4.5 38h149q0 -42 -12 -77.5t-41.5 -61.5t-79 -41t-123.5 -15z" />
    <glyph glyph-name="ecaron" unicode="&#x11b;" horiz-adv-x="656" 
d="M108 827l235 -82l235 82v-149l-238 -81l-232 81v149zM345 -9q-160 0 -237 68t-77 209q0 281 319 281q136 0 205.5 -59t69.5 -174q0 -52 -13 -97h-353q3 -19 9.5 -30.5t18.5 -17.5t31.5 -8t47.5 -2q27 0 59.5 1.5t64 4.5t59.5 6.5t46 7.5l6 -159q-57 -15 -123 -23t-133 -8
zM338 396q-42 0 -59.5 -15.5t-21.5 -58.5h167q-2 40 -21 57t-65 17z" />
    <glyph glyph-name="ecircumflex" unicode="&#xea;" horiz-adv-x="656" 
d="M108 745l232 82l238 -82v-148l-235 81l-235 -81v148zM345 -9q-160 0 -237 68t-77 209q0 281 319 281q136 0 205.5 -59t69.5 -174q0 -52 -13 -97h-353q3 -19 9.5 -30.5t18.5 -17.5t31.5 -8t47.5 -2q27 0 59.5 1.5t64 4.5t59.5 6.5t46 7.5l6 -159q-57 -15 -123 -23t-133 -8
zM338 396q-42 0 -59.5 -15.5t-21.5 -58.5h167q-2 40 -21 57t-65 17z" />
    <glyph glyph-name="edblgrave" unicode="&#x205;" horiz-adv-x="656" 
d="M121 607l-133 201h231l61 -191zM373 607l-133 201h231l62 -191zM345 -9q-160 0 -237 68t-77 209q0 281 319 281q136 0 205.5 -59t69.5 -174q0 -52 -13 -97h-353q3 -19 9.5 -30.5t18.5 -17.5t31.5 -8t47.5 -2q27 0 59.5 1.5t64 4.5t59.5 6.5t46 7.5l6 -159
q-57 -15 -123 -23t-133 -8zM338 396q-42 0 -59.5 -15.5t-21.5 -58.5h167q-2 40 -21 57t-65 17z" />
    <glyph glyph-name="edieresis" unicode="&#xeb;" horiz-adv-x="656" 
d="M183 606q-59 0 -84 25t-25 81t25 80.5t84 24.5q60 0 84.5 -26t24.5 -79q0 -56 -24.5 -81t-84.5 -25zM480 606q-59 0 -84 25t-25 81t25 80.5t84 24.5q60 0 84.5 -26t24.5 -79q0 -56 -24.5 -81t-84.5 -25zM345 -9q-160 0 -237 68t-77 209q0 281 319 281q136 0 205.5 -59
t69.5 -174q0 -52 -13 -97h-353q3 -19 9.5 -30.5t18.5 -17.5t31.5 -8t47.5 -2q27 0 59.5 1.5t64 4.5t59.5 6.5t46 7.5l6 -159q-57 -15 -123 -23t-133 -8zM338 396q-42 0 -59.5 -15.5t-21.5 -58.5h167q-2 40 -21 57t-65 17z" />
    <glyph glyph-name="edotaccent" unicode="&#x117;" horiz-adv-x="656" 
d="M345 -9q-160 0 -237 68t-77 209q0 281 319 281q136 0 205.5 -59t69.5 -174q0 -52 -13 -97h-353q3 -19 9.5 -30.5t18.5 -17.5t31.5 -8t47.5 -2q27 0 59.5 1.5t64 4.5t59.5 6.5t46 7.5l6 -159q-57 -15 -123 -23t-133 -8zM338 396q-42 0 -59.5 -15.5t-21.5 -58.5h167
q-2 40 -21 57t-65 17zM346 594q-66 0 -94 27.5t-28 90.5q0 62 28 90t94 28q68 0 94.5 -29t26.5 -89t-26.5 -89t-94.5 -29z" />
    <glyph glyph-name="edotbelow" unicode="&#x1eb9;" horiz-adv-x="656" 
d="M345 -9q-160 0 -237 68t-77 209q0 281 319 281q136 0 205.5 -59t69.5 -174q0 -52 -13 -97h-353q3 -19 9.5 -30.5t18.5 -17.5t31.5 -8t47.5 -2q27 0 59.5 1.5t64 4.5t59.5 6.5t46 7.5l6 -159q-57 -15 -123 -23t-133 -8zM338 396q-42 0 -59.5 -15.5t-21.5 -58.5h167
q-2 40 -21 57t-65 17zM345 -220q-50 0 -70.5 20.5t-20.5 66.5q0 47 20.5 67.5t70.5 20.5q52 0 71.5 -22t19.5 -66t-19.5 -65.5t-71.5 -21.5z" />
    <glyph glyph-name="egrave" unicode="&#xe8;" horiz-adv-x="656" 
d="M345 -9q-160 0 -237 68t-77 209q0 281 319 281q136 0 205.5 -59t69.5 -174q0 -52 -13 -97h-353q3 -19 9.5 -30.5t18.5 -17.5t31.5 -8t47.5 -2q27 0 59.5 1.5t64 4.5t59.5 6.5t46 7.5l6 -159q-57 -15 -123 -23t-133 -8zM338 396q-42 0 -59.5 -15.5t-21.5 -58.5h167
q-2 40 -21 57t-65 17zM252 607l-133 201h236l61 -191z" />
    <glyph glyph-name="eight" unicode="8" horiz-adv-x="757" 
d="M382 -10q-97 0 -163 14t-107 40t-59 63.5t-18 84.5q0 119 123 178q-42 26 -68 67.5t-26 111.5q0 45 24 82t67.5 63t105.5 40.5t137 14.5q72 0 128.5 -14.5t95 -40.5t59 -63t20.5 -82q0 -27 -4.5 -48.5t-15.5 -39.5t-29.5 -33.5t-45.5 -30.5q24 -12 45 -28t36 -38
t23.5 -50.5t8.5 -64.5q0 -53 -17.5 -94.5t-57.5 -71t-104 -45t-158 -15.5zM316 315q-27 -19 -43.5 -42t-16.5 -53q0 -38 35 -57.5t91 -19.5t86 16t30 47q0 25 -13 42t-35.5 28.5t-52 19.5t-62.5 15zM270 536q0 -23 14 -37.5t37.5 -24.5t54.5 -17t66 -13q28 21 40.5 43.5
t12.5 41.5q0 30 -31.5 49t-81.5 19t-81 -16t-31 -45z" />
    <glyph glyph-name="eight.denominator" horiz-adv-x="610" 
d="M311 -6q-284 0 -284 156q0 83 75 126q-30 20 -46 50t-16 67q0 75 71.5 117.5t199.5 42.5q120 0 188 -42.5t68 -117.5q0 -35 -11.5 -58.5t-38.5 -41.5q65 -44 65 -126q0 -90 -65 -131.5t-206 -41.5zM311 123q42 0 59 11.5t17 37.5q0 15 -26.5 27.5t-90.5 26.5l-14 3
q-34 -31 -34 -55q0 -23 24 -37t65 -14zM342 331q12 8 21 24t9 29q0 18 -16.5 29t-44.5 11q-35 0 -55.5 -9.5t-20.5 -26.5q0 -21 21 -33.5t67 -20.5z" />
    <glyph glyph-name="eight.numerator" horiz-adv-x="610" 
d="M311 194q-284 0 -284 156q0 83 75 126q-30 20 -46 50t-16 67q0 75 71.5 117.5t199.5 42.5q120 0 188 -42.5t68 -117.5q0 -35 -11.5 -58.5t-38.5 -41.5q65 -44 65 -126q0 -90 -65 -131.5t-206 -41.5zM311 323q42 0 59 11.5t17 37.5q0 15 -26.5 27.5t-90.5 26.5l-14 3
q-34 -31 -34 -55q0 -23 24 -37t65 -14zM342 531q12 8 21 24t9 29q0 18 -16.5 29t-44.5 11q-35 0 -55.5 -9.5t-20.5 -26.5q0 -21 21 -33.5t67 -20.5z" />
    <glyph glyph-name="eight.osf" horiz-adv-x="751" 
d="M379 -10q-178 0 -262.5 45.5t-84.5 142.5q0 57 30.5 97.5t96.5 69.5q-53 28 -75.5 68t-22.5 97q0 42 24 76t68 58.5t105.5 38t136.5 13.5q70 0 126 -13t95.5 -37t60.5 -58.5t21 -77.5q0 -26 -5 -47t-17.5 -38.5t-33 -32.5t-50.5 -30q68 -28 96 -66t28 -96
q0 -108 -82 -159t-255 -51zM317 294q-32 -20 -48 -42.5t-16 -43.5q0 -34 36 -50t92 -16q23 0 43.5 3t36.5 9.5t25 17t9 26.5q0 20 -14 34.5t-37 25.5t-52.5 19t-59.5 14zM267 487q0 -17 14 -29.5t37.5 -21.5t54 -15.5t63.5 -13.5q26 17 41 35.5t15 38.5q0 28 -31 46t-85 18
q-48 0 -78.5 -15.5t-30.5 -42.5z" />
    <glyph glyph-name="eight.tf" 
d="M338 -10q-93 0 -156.5 14t-102 40t-55.5 63.5t-17 84.5q0 61 27 104.5t88 74.5q-38 25 -63 67t-25 111q0 45 23 82t65 63t101 40.5t131 14.5q69 0 123 -14.5t91 -40.5t56.5 -63t19.5 -82q0 -53 -18 -88t-71 -65q45 -24 75 -66t30 -114q0 -53 -16.5 -94.5t-54 -71
t-99.5 -45t-152 -15.5zM338 143q51 0 78 16t27 47q0 25 -12.5 42t-34.5 29t-53 20t-67 17q-25 -19 -38.5 -42t-13.5 -52q0 -38 31.5 -57.5t82.5 -19.5zM338 597q-45 0 -73.5 -16t-28.5 -45q0 -23 13 -37.5t34.5 -24.5t50.5 -17t62 -13q26 21 36 43.5t10 41.5q0 30 -29 49
t-75 19z" />
    <glyph glyph-name="eight.tosf" 
d="M332 -10q-166 0 -245.5 46.5t-79.5 141.5q0 57 28.5 97.5t91.5 69.5q-49 26 -71 67.5t-22 86.5q0 51 25 88t68.5 61t101 36t122.5 12q67 0 121.5 -12.5t92.5 -37t58.5 -60.5t20.5 -83q0 -45 -22 -79t-79 -62q68 -30 92.5 -69t24.5 -94q0 -108 -78.5 -158.5t-249.5 -50.5z
M340 142q20 0 38.5 3t33 9.5t23 17t8.5 25.5q0 25 -20.5 42.5t-47.5 28.5t-54 17t-40 8q-29 -20 -43 -42.5t-14 -42.5q0 -34 33 -50t83 -16zM335 545q-43 0 -71 -15.5t-28 -42.5q0 -18 13 -30t35 -20.5t50 -15t58 -13.5q23 17 36.5 35.5t13.5 37.5q0 28 -29.5 46t-77.5 18z
" />
    <glyph glyph-name="eightinferior" unicode="&#x2088;" horiz-adv-x="610" 
d="M311 -106q-284 0 -284 156q0 83 75 126q-30 20 -46 50t-16 67q0 75 71.5 117.5t199.5 42.5q120 0 188 -42.5t68 -117.5q0 -35 -11.5 -58.5t-38.5 -41.5q65 -44 65 -126q0 -90 -65 -131.5t-206 -41.5zM311 23q42 0 59 11.5t17 37.5q0 15 -26.5 27.5t-90.5 26.5l-14 3
q-34 -31 -34 -55q0 -23 24 -37t65 -14zM342 231q12 8 21 24t9 29q0 18 -16.5 29t-44.5 11q-35 0 -55.5 -9.5t-20.5 -26.5q0 -21 21 -33.5t67 -20.5z" />
    <glyph glyph-name="eightsuperior" unicode="&#x2078;" horiz-adv-x="610" 
d="M311 294q-284 0 -284 156q0 83 75 126q-30 20 -46 50t-16 67q0 75 71.5 117.5t199.5 42.5q120 0 188 -42.5t68 -117.5q0 -35 -11.5 -58.5t-38.5 -41.5q65 -44 65 -126q0 -90 -65 -131.5t-206 -41.5zM311 423q42 0 59 11.5t17 37.5q0 15 -26.5 27.5t-90.5 26.5l-14 3
q-34 -31 -34 -55q0 -23 24 -37t65 -14zM342 631q12 8 21 24t9 29q0 18 -16.5 29t-44.5 11q-35 0 -55.5 -9.5t-20.5 -26.5q0 -21 21 -33.5t67 -20.5z" />
    <glyph glyph-name="einvertedbreve" unicode="&#x207;" horiz-adv-x="656" 
d="M79 621q0 40 12 75.5t41.5 62t78.5 42t124 15.5q74 0 123.5 -15t79 -41.5t41.5 -62t12 -76.5h-149q0 21 -4.5 37.5t-16.5 28t-32.5 17.5t-53.5 6q-32 0 -53 -6t-33 -17.5t-16.5 -28t-4.5 -37.5h-149zM345 -9q-160 0 -237 68t-77 209q0 281 319 281q136 0 205.5 -59
t69.5 -174q0 -52 -13 -97h-353q3 -19 9.5 -30.5t18.5 -17.5t31.5 -8t47.5 -2q27 0 59.5 1.5t64 4.5t59.5 6.5t46 7.5l6 -159q-57 -15 -123 -23t-133 -8zM338 396q-42 0 -59.5 -15.5t-21.5 -58.5h167q-2 40 -21 57t-65 17z" />
    <glyph glyph-name="ellipsis" unicode="&#x2026;" horiz-adv-x="999" 
d="M158 -10q-56 0 -90.5 27.5t-34.5 87.5t34.5 87.5t90.5 27.5q57 0 91.5 -27.5t34.5 -87.5t-34.5 -87.5t-91.5 -27.5zM500 -10q-56 0 -90.5 27.5t-34.5 87.5t34.5 87.5t90.5 27.5q57 0 91.5 -27.5t34.5 -87.5t-34.5 -87.5t-91.5 -27.5zM840 -10q-56 0 -90.5 27.5
t-34.5 87.5t34.5 87.5t90.5 27.5q57 0 91.5 -27.5t34.5 -87.5t-34.5 -87.5t-91.5 -27.5z" />
    <glyph glyph-name="emacron" unicode="&#x113;" horiz-adv-x="656" 
d="M345 -9q-160 0 -237 68t-77 209q0 281 319 281q136 0 205.5 -59t69.5 -174q0 -52 -13 -97h-353q3 -19 9.5 -30.5t18.5 -17.5t31.5 -8t47.5 -2q27 0 59.5 1.5t64 4.5t59.5 6.5t46 7.5l6 -159q-57 -15 -123 -23t-133 -8zM338 396q-42 0 -59.5 -15.5t-21.5 -58.5h167
q-2 40 -21 57t-65 17zM99 791h466v-148h-466v148z" />
    <glyph glyph-name="emdash" unicode="&#x2014;" horiz-adv-x="917" 
d="M52 362h813v-164h-813v164z" />
    <glyph glyph-name="endash" unicode="&#x2013;" horiz-adv-x="746" 
d="M52 362h642v-164h-642v164z" />
    <glyph glyph-name="eng" unicode="&#x14b;" horiz-adv-x="739" 
d="M421 -199q10 46 17.5 85t11.5 82t6 95.5t2 126.5v71q0 28 -1 44t-5.5 24.5t-14 10.5t-25.5 2q-32 0 -64.5 -2t-61.5 -5v-335h-230v540h193l11 -58h4q71 31 136.5 49.5t116.5 18.5q78 0 124.5 -41t46.5 -113v-338q-11 -81 -33.5 -147.5t-56.5 -130.5z" />
    <glyph glyph-name="eogonek" unicode="&#x119;" horiz-adv-x="657" 
d="M345 -9q-160 0 -237 68t-77 209q0 281 319 281q136 0 205.5 -59t69.5 -174q0 -52 -13 -97h-353q3 -19 9.5 -30.5t18.5 -17.5t31.5 -8t47.5 -2q27 0 59.5 1.5t64 4.5t59.5 6.5t46 7.5l6 -157v-6q-36 -14 -60.5 -24.5t-39 -20t-20.5 -18t-6 -17.5q0 -20 26 -20
q6 0 17.5 1.5t25.5 3.5t29.5 5.5t29.5 6.5v-120q-44 -12 -98 -12q-82 0 -128.5 25.5t-46.5 70.5q0 23 11.5 47.5t30.5 44.5h-27zM338 396q-42 0 -59.5 -15.5t-21.5 -58.5h167q-2 40 -21 57t-65 17z" />
    <glyph glyph-name="equal" unicode="=" horiz-adv-x="556" 
d="M56 305h444v-138h-444v138zM56 528h444v-138h-444v138z" />
    <glyph glyph-name="equal.tab" 
d="M85 305h499v-138h-499v138zM85 528h499v-138h-499v138z" />
    <glyph glyph-name="estimated" unicode="&#x212e;" horiz-adv-x="647" 
d="M330 1q-62 0 -114.5 23.5t-90.5 65.5t-60 99t-22 124q0 69 21 126.5t59 99t91 64.5t116 23t114.5 -22t89 -63t59.5 -98.5t25 -129.5h-447v-205q64 -66 159 -66q140 0 218 136l40 -24q-56 -80 -118 -116.5t-140 -36.5zM490 354v164q-71 68 -161 68q-93 0 -158 -68v-164
h319z" />
    <glyph glyph-name="eth" unicode="&#xf0;" horiz-adv-x="735" 
d="M203 718l115 9q-19 20 -40.5 40t-45.5 41h229q5 -3 22.5 -18.5t45.5 -45.5l174 14v-133l-83 -7q32 -58 55 -132t23 -165q0 -168 -85.5 -250t-251.5 -82q-158 0 -245 71.5t-87 206.5q0 67 21.5 119.5t61.5 89t97 56t127 19.5q43 0 74.5 -8.5t58.5 -28.5q-19 44 -48 88
l-218 -17v133zM364 161q59 0 81.5 22t22.5 81q0 64 -24.5 88.5t-84.5 24.5q-29 0 -48 -5.5t-30.5 -18t-16.5 -33t-5 -51.5t5 -52t17 -33.5t32.5 -17.5t50.5 -5z" />
    <glyph glyph-name="etilde" unicode="&#x1ebd;" horiz-adv-x="656" 
d="M345 -9q-160 0 -237 68t-77 209q0 281 319 281q136 0 205.5 -59t69.5 -174q0 -52 -13 -97h-353q3 -19 9.5 -30.5t18.5 -17.5t31.5 -8t47.5 -2q27 0 59.5 1.5t64 4.5t59.5 6.5t46 7.5l6 -159q-57 -15 -123 -23t-133 -8zM338 396q-42 0 -59.5 -15.5t-21.5 -58.5h167
q-2 40 -21 57t-65 17zM68 661q38 75 89 112.5t97 37.5q29 0 58 -5.5t57.5 -12.5t57.5 -12.5t58 -5.5q24 0 47.5 6.5t57.5 29.5l23 -38q-40 -75 -90.5 -112.5t-94.5 -37.5q-29 0 -58 5.5t-58 12.5t-58 12.5t-58 5.5q-26 0 -49.5 -6.5t-54.5 -29.5z" />
    <glyph glyph-name="exclam" unicode="!" horiz-adv-x="337" 
d="M168 -10q-51 0 -78.5 26t-27.5 74t27.5 74t78.5 26t78.5 -26t27.5 -74t-27.5 -74t-78.5 -26zM100 287l-43 443v10h223v-10l-42 -443v-10h-138v10z" />
    <glyph glyph-name="exclamdown" unicode="&#xa1;" horiz-adv-x="319" 
d="M159 550q51 0 78.5 -26t27.5 -74t-27.5 -74t-78.5 -26t-78.5 26t-27.5 74t27.5 74t78.5 26zM91 263h138v-10l42 -443v-10h-223v10l43 443v10z" />
    <glyph glyph-name="f" unicode="f" horiz-adv-x="546" 
d="M146 349h-131v191h132v23q0 69 21.5 117t68.5 78.5t121 44t179 13.5l10 -162q-90 0 -130.5 -21t-40.5 -67v-26h156v-191h-156v-349h-230v349z" />
    <glyph glyph-name="f.calt" horiz-adv-x="546" 
d="M146 349h-131v191h132v23q0 69 21.5 117t68.5 78.5t121 44t179 13.5l10 -162q-90 0 -130.5 -21t-40.5 -67v-26h156v-191h-156v-349h-230v349z" />
    <glyph glyph-name="h" unicode="h" horiz-adv-x="739" 
d="M55 808h230v-324q67 29 126.5 47.5t104.5 18.5q79 0 125 -41t46 -113v-396h-230v321q0 30 -11 43t-37 13q-21 0 -55 -6t-69 -16v-355h-230v808z" />
    <glyph glyph-name="i" unicode="i" horiz-adv-x="340" 
d="M170 594q-66 0 -93.5 27.5t-27.5 90.5q0 62 27.5 90t93.5 28q68 0 95 -29t27 -89t-27 -89t-95 -29zM55 540h230v-540h-230v540z" />
    <glyph glyph-name="j" unicode="j" horiz-adv-x="337" 
d="M168 594q-66 0 -93.5 27.5t-27.5 90.5q0 62 27.5 90t93.5 28q68 0 95 -29t27 -89t-27 -89t-95 -29zM22 -199q10 46 17 85t11.5 82t6 95.5t1.5 126.5v55.5t-1 69.5t-2 94.5t-2 130.5h230v-472q-11 -84 -33.5 -153t-56.5 -135z" />
    <glyph glyph-name="k" unicode="k" horiz-adv-x="692" 
d="M55 808h230v-462h41l111 194h252l-173 -253l-29 -6v-4l29 -6l191 -271h-251l-132 211h-39v-211h-230v808z" />
    <glyph glyph-name="l" unicode="l" horiz-adv-x="340" 
d="M55 808h230v-808h-230v808z" />
    <glyph glyph-name="t" unicode="t" horiz-adv-x="510" 
d="M327 -17q-107 0 -162 49t-55 145v172h-88v191h104l36 173l176 17v-190h135v-191h-133v-119q0 -43 15 -58.5t57 -15.5q28 0 61 14v-169q-12 -4 -28.5 -7t-36 -5.5t-40.5 -4t-41 -1.5z" />
    <glyph glyph-name="five" unicode="5" horiz-adv-x="660" 
d="M269 -13q-56 0 -111.5 5t-112.5 12v169h51q38 -7 71.5 -9.5t66.5 -2.5q38 0 66.5 2.5t47 11t27.5 24t9 41.5q0 18 -11 30t-37.5 19t-70.5 9.5t-110 2.5h-78l-25 24l33 415h500v-176h-330l-5 -99q93 -1 164.5 -12t119.5 -38t72.5 -72t24.5 -115q0 -75 -33 -122t-85 -73.5
t-116.5 -36t-127.5 -9.5z" />
    <glyph glyph-name="five.denominator" horiz-adv-x="533" 
d="M216 -9q-44 0 -89.5 3.5t-92.5 8.5v150h40q32 -5 59 -6.5t55 -1.5q62 0 91.5 6t29.5 27q0 13 -6.5 21t-22.5 12.5t-41.5 6t-63.5 1.5h-108l-27 22l28 305h405v-153h-267l-3 -47q85 0 144 -8.5t95 -28t52 -52.5t16 -82q0 -57 -26.5 -93t-69 -56t-95 -27.5t-103.5 -7.5z
" />
    <glyph glyph-name="five.numerator" horiz-adv-x="533" 
d="M216 191q-44 0 -89.5 3.5t-92.5 8.5v150h40q32 -5 59 -6.5t55 -1.5q62 0 91.5 6t29.5 27q0 13 -6.5 21t-22.5 12.5t-41.5 6t-63.5 1.5h-108l-27 22l28 305h405v-153h-267l-3 -47q85 0 144 -8.5t95 -28t52 -52.5t16 -82q0 -57 -26.5 -93t-69 -56t-95 -27.5t-103.5 -7.5z
" />
    <glyph glyph-name="five.osf" horiz-adv-x="642" 
d="M260 -169q-56 0 -111.5 5t-112.5 12v169h51q38 -7 71.5 -9.5t66.5 -2.5q38 0 66.5 2.5t47 11t27.5 24t9 41.5q0 18 -11 30t-37.5 19t-70.5 9.5t-110 2.5h-78l-25 24l33 415h500v-176h-330l-5 -99q93 -1 164.5 -12t119.5 -38t72.5 -72t24.5 -115q0 -75 -33 -122t-85 -73.5
t-116.5 -36t-127.5 -9.5z" />
    <glyph glyph-name="five.tf" 
d="M273 -13q-56 0 -112 5t-113 12v169h51q38 -7 72 -9.5t67 -2.5q39 0 68 2.5t47.5 11t28 24t9.5 41.5q0 18 -11.5 30t-38.5 19t-71.5 9.5t-110.5 2.5h-79l-25 24l33 415h504v-176h-334l-5 -99q94 -1 166 -12t121 -38t73.5 -72t24.5 -115q0 -75 -33 -122t-85.5 -73.5
t-117.5 -36t-129 -9.5z" />
    <glyph glyph-name="five.tosf" 
d="M273 -169q-56 0 -112 5t-113 12v169h51q38 -7 72 -9.5t67 -2.5q39 0 68 2.5t47.5 11t28 24t9.5 41.5q0 18 -11.5 30t-38.5 19t-71.5 9.5t-110.5 2.5h-79l-25 24l33 415h504v-176h-334l-5 -99q94 -1 166 -12t121 -38t73.5 -72t24.5 -115q0 -75 -33 -122t-85.5 -73.5
t-117.5 -36t-129 -9.5z" />
    <glyph glyph-name="fiveeighths" unicode="&#x215d;" horiz-adv-x="1439" 
d="M224 191q-44 0 -89.5 3.5t-92.5 8.5v150h40q32 -5 59 -6.5t55 -1.5q62 0 91.5 6t29.5 27q0 13 -6.5 21t-22.5 12.5t-41.5 6t-63.5 1.5h-108l-27 22l28 305h405v-153h-267l-3 -47q85 0 144 -8.5t95 -28t52 -52.5t16 -82q0 -57 -26.5 -93t-69 -56t-95 -27.5t-103.5 -7.5z
M774 740h197l-373 -740h-197zM1138 -6q-284 0 -284 156q0 83 75 126q-30 20 -46 50t-16 67q0 75 71.5 117.5t199.5 42.5q120 0 188 -42.5t68 -117.5q0 -35 -11.5 -58.5t-38.5 -41.5q65 -44 65 -126q0 -90 -65 -131.5t-206 -41.5zM1138 123q42 0 59 11.5t17 37.5
q0 15 -26.5 27.5t-90.5 26.5l-14 3q-34 -31 -34 -55q0 -23 24 -37t65 -14zM1169 331q12 8 21 24t9 29q0 18 -16.5 29t-44.5 11q-35 0 -55.5 -9.5t-20.5 -26.5q0 -21 21 -33.5t67 -20.5z" />
    <glyph glyph-name="fraction" unicode="&#x2044;" horiz-adv-x="365" 
d="M270 740h197l-373 -740h-197z" />
    <glyph glyph-name="fiveinferior" unicode="&#x2085;" horiz-adv-x="533" 
d="M216 -109q-44 0 -89.5 3.5t-92.5 8.5v150h40q32 -5 59 -6.5t55 -1.5q62 0 91.5 6t29.5 27q0 13 -6.5 21t-22.5 12.5t-41.5 6t-63.5 1.5h-108l-27 22l28 305h405v-153h-267l-3 -47q85 0 144 -8.5t95 -28t52 -52.5t16 -82q0 -57 -26.5 -93t-69 -56t-95 -27.5t-103.5 -7.5z
" />
    <glyph glyph-name="fivesuperior" unicode="&#x2075;" horiz-adv-x="533" 
d="M216 291q-44 0 -89.5 3.5t-92.5 8.5v150h40q32 -5 59 -6.5t55 -1.5q62 0 91.5 6t29.5 27q0 13 -6.5 21t-22.5 12.5t-41.5 6t-63.5 1.5h-108l-27 22l28 305h405v-153h-267l-3 -47q85 0 144 -8.5t95 -28t52 -52.5t16 -82q0 -57 -26.5 -93t-69 -56t-95 -27.5t-103.5 -7.5z
" />
    <glyph glyph-name="florin" unicode="&#x192;" horiz-adv-x="584" 
d="M162 349h-131v191h132v23q0 69 21.5 117t68.5 78.5t121 44t179 13.5l10 -162q-90 0 -130.5 -21t-40.5 -67v-26h156v-191h-156v-510l-230 -58v568z" />
    <glyph glyph-name="four" unicode="4" horiz-adv-x="754" 
d="M13 264v14l249 472h4l239 -20l10 -24l-268 -404v-4h153l43 152h167v-152h123v-176h-123v-122h-230v122h-346z" />
    <glyph glyph-name="four.denominator" horiz-adv-x="598" 
d="M295 85h-268l-19 121l209 340l18 6l167 -12l18 -37l-214 -273h99l45 115h135v-115h97v-145h-97v-85h-190v85z" />
    <glyph glyph-name="four.numerator" horiz-adv-x="598" 
d="M295 285h-268l-19 121l209 340l18 6l167 -12l18 -37l-214 -273h99l45 115h135v-115h97v-145h-97v-85h-190v85z" />
    <glyph glyph-name="four.osf" horiz-adv-x="746" 
d="M10 142v14l249 439h4l239 -20l10 -24l-268 -371v-4h153l43 152h167v-152h123v-176h-123v-162h-230v162h-346z" />
    <glyph glyph-name="four.tf" 
d="M-14 264v14l236 472h4l235 -20l10 -24l-255 -404v-4h136l43 152h165v-152h116v-176h-116v-122h-227v122h-327z" />
    <glyph glyph-name="four.tosf" 
d="M-13 142v14l236 439h4l235 -20l10 -24l-255 -371v-4h136l43 152h165v-152h116v-176h-116v-162h-227v162h-327z" />
    <glyph glyph-name="fourinferior" unicode="&#x2084;" horiz-adv-x="598" 
d="M295 -15h-268l-19 121l209 340l18 6l167 -12l18 -37l-214 -273h99l45 115h135v-115h97v-145h-97v-85h-190v85z" />
    <glyph glyph-name="foursuperior" unicode="&#x2074;" horiz-adv-x="598" 
d="M295 385h-268l-19 121l209 340l18 6l167 -12l18 -37l-214 -273h99l45 115h135v-115h97v-145h-97v-85h-190v85z" />
    <glyph glyph-name="franc" unicode="&#x20a3;" horiz-adv-x="792" 
d="M28 223h115v517h616v-176h-381v-106h341v-176h-341v-59h148v-134h-148v-89h-235v89h-115v134z" />
    <glyph glyph-name="g" unicode="g" horiz-adv-x="736" 
d="M332 -220q-35 0 -73 1.5t-73 4.5t-65.5 6.5t-51.5 8.5l13 160q15 -3 37 -6t47.5 -6t54 -5t57.5 -2q37 0 71.5 4.5t61.5 16.5t43 32t16 51v70h-10q-26 -48 -71 -69t-107 -21q-125 0 -188 60.5t-63 183.5q0 69 24.5 121.5t69 87.5t107 53t139.5 18q25 0 50.5 -2t60 -8
t83 -18t118.5 -32v-419q0 -82 -29.5 -138t-78.5 -90t-112.5 -48.5t-130.5 -14.5zM351 191q57 0 79.5 21t22.5 66v106q-40 8 -89 8q-33 0 -53 -3.5t-31.5 -15t-15 -32.5t-3.5 -56q0 -28 3.5 -46.5t13.5 -29t27.5 -14.5t45.5 -4z" />
    <glyph glyph-name="gacute" unicode="&#x1f5;" horiz-adv-x="736" 
d="M288 617l61 191h235l-132 -201zM332 -220q-35 0 -73 1.5t-73 4.5t-65.5 6.5t-51.5 8.5l13 160q15 -3 37 -6t47.5 -6t54 -5t57.5 -2q37 0 71.5 4.5t61.5 16.5t43 32t16 51v70h-10q-26 -48 -71 -69t-107 -21q-125 0 -188 60.5t-63 183.5q0 69 24.5 121.5t69 87.5t107 53
t139.5 18q25 0 50.5 -2t60 -8t83 -18t118.5 -32v-419q0 -82 -29.5 -138t-78.5 -90t-112.5 -48.5t-130.5 -14.5zM351 191q57 0 79.5 21t22.5 66v106q-40 8 -89 8q-33 0 -53 -3.5t-31.5 -15t-15 -32.5t-3.5 -56q0 -28 3.5 -46.5t13.5 -29t27.5 -14.5t45.5 -4z" />
    <glyph glyph-name="gbreve" unicode="&#x11f;" horiz-adv-x="736" 
d="M332 -220q-35 0 -73 1.5t-73 4.5t-65.5 6.5t-51.5 8.5l13 160q15 -3 37 -6t47.5 -6t54 -5t57.5 -2q37 0 71.5 4.5t61.5 16.5t43 32t16 51v70h-10q-26 -48 -71 -69t-107 -21q-125 0 -188 60.5t-63 183.5q0 69 24.5 121.5t69 87.5t107 53t139.5 18q25 0 50.5 -2t60 -8
t83 -18t118.5 -32v-419q0 -82 -29.5 -138t-78.5 -90t-112.5 -48.5t-130.5 -14.5zM351 191q57 0 79.5 21t22.5 66v106q-40 8 -89 8q-33 0 -53 -3.5t-31.5 -15t-15 -32.5t-3.5 -56q0 -28 3.5 -46.5t13.5 -29t27.5 -14.5t45.5 -4zM365 611q-75 0 -124 15.5t-78.5 42t-41.5 62
t-12 75.5h149q0 -21 4.5 -38t16.5 -28.5t33 -17.5t53 -6q33 0 53.5 6t32.5 17.5t16.5 28.5t4.5 38h149q0 -42 -12 -77.5t-41.5 -61.5t-79 -41t-123.5 -15z" />
    <glyph glyph-name="gcircumflex" unicode="&#x11d;" horiz-adv-x="736" 
d="M144 745l232 82l238 -82v-148l-235 81l-235 -81v148zM332 -220q-35 0 -73 1.5t-73 4.5t-65.5 6.5t-51.5 8.5l13 160q15 -3 37 -6t47.5 -6t54 -5t57.5 -2q37 0 71.5 4.5t61.5 16.5t43 32t16 51v70h-10q-26 -48 -71 -69t-107 -21q-125 0 -188 60.5t-63 183.5
q0 69 24.5 121.5t69 87.5t107 53t139.5 18q25 0 50.5 -2t60 -8t83 -18t118.5 -32v-419q0 -82 -29.5 -138t-78.5 -90t-112.5 -48.5t-130.5 -14.5zM351 191q57 0 79.5 21t22.5 66v106q-40 8 -89 8q-33 0 -53 -3.5t-31.5 -15t-15 -32.5t-3.5 -56q0 -28 3.5 -46.5t13.5 -29
t27.5 -14.5t45.5 -4z" />
    <glyph glyph-name="gcommaaccent" unicode="&#x123;" horiz-adv-x="736" 
d="M550 770l-38 -150h-236l104 150h170zM332 -220q-35 0 -73 1.5t-73 4.5t-65.5 6.5t-51.5 8.5l13 160q15 -3 37 -6t47.5 -6t54 -5t57.5 -2q37 0 71.5 4.5t61.5 16.5t43 32t16 51v70h-10q-26 -48 -71 -69t-107 -21q-125 0 -188 60.5t-63 183.5q0 69 24.5 121.5t69 87.5
t107 53t139.5 18q25 0 50.5 -2t60 -8t83 -18t118.5 -32v-419q0 -82 -29.5 -138t-78.5 -90t-112.5 -48.5t-130.5 -14.5zM351 191q57 0 79.5 21t22.5 66v106q-40 8 -89 8q-33 0 -53 -3.5t-31.5 -15t-15 -32.5t-3.5 -56q0 -28 3.5 -46.5t13.5 -29t27.5 -14.5t45.5 -4z" />
    <glyph glyph-name="gdotaccent" unicode="&#x121;" horiz-adv-x="736" 
d="M332 -220q-35 0 -73 1.5t-73 4.5t-65.5 6.5t-51.5 8.5l13 160q15 -3 37 -6t47.5 -6t54 -5t57.5 -2q37 0 71.5 4.5t61.5 16.5t43 32t16 51v70h-10q-26 -48 -71 -69t-107 -21q-125 0 -188 60.5t-63 183.5q0 69 24.5 121.5t69 87.5t107 53t139.5 18q25 0 50.5 -2t60 -8
t83 -18t118.5 -32v-419q0 -82 -29.5 -138t-78.5 -90t-112.5 -48.5t-130.5 -14.5zM351 191q57 0 79.5 21t22.5 66v106q-40 8 -89 8q-33 0 -53 -3.5t-31.5 -15t-15 -32.5t-3.5 -56q0 -28 3.5 -46.5t13.5 -29t27.5 -14.5t45.5 -4zM369 594q-66 0 -94 27.5t-28 90.5q0 62 28 90
t94 28q68 0 94.5 -29t26.5 -89t-26.5 -89t-94.5 -29z" />
    <glyph glyph-name="germandbls" unicode="&#xdf;" horiz-adv-x="915" 
d="M56 559q0 255 373 255q379 0 379 -255v-163h-156q-40 0 -57 -5.5t-17 -18.5q0 -6 5 -11t18.5 -8.5t36.5 -7t58 -6.5q106 -10 155.5 -50.5t49.5 -115.5q0 -185 -287 -185q-27 0 -60 1.5t-67.5 4.5t-69 7t-64.5 9v150q79 -14 137.5 -19.5t110.5 -5.5q45 0 62.5 4.5
t17.5 16.5q0 13 -19 19.5t-70 11.5q-37 3 -78 8.5t-75.5 23t-57.5 52t-23 95.5q0 77 57.5 124.5t160.5 58.5v10q0 82 -145 82t-145 -82v-559h-230v559z" />
    <glyph glyph-name="germandbls.sc" horiz-adv-x="1352" 
d="M331 -10q-30 0 -67 1.5t-76 4.5t-77.5 7t-71.5 9v175q83 -14 149 -21t129 -7q97 0 97 20q0 11 -19.5 17t-77.5 12q-142 9 -207 53t-65 132q0 91 82.5 141.5t230.5 50.5q26 0 51 -1.5t54 -4.5t64.5 -8t83.5 -12v-169q-52 12 -113 19t-113 7q-59 0 -81.5 -4.5t-22.5 -17.5
q0 -24 107 -32q262 -19 262 -172q0 -103 -78 -151.5t-241 -48.5zM1007 -10q-30 0 -67 1.5t-76 4.5t-77.5 7t-71.5 9v175q83 -14 149 -21t129 -7q97 0 97 20q0 11 -19.5 17t-77.5 12q-142 9 -207 53t-65 132q0 91 82.5 141.5t230.5 50.5q26 0 51 -1.5t54 -4.5t64.5 -8
t83.5 -12v-169q-52 12 -113 19t-113 7q-59 0 -81.5 -4.5t-22.5 -17.5q0 -24 107 -32q262 -19 262 -172q0 -103 -78 -151.5t-241 -48.5z" />
    <glyph glyph-name="greater" unicode="&#x3e;" horiz-adv-x="573" 
d="M61 237l294 126l-294 126v147l483 -207v-132l-483 -207v147z" />
    <glyph glyph-name="greater.tab" 
d="M82 237l330 126l-331 126v147l539 -207v-132l-538 -207v147z" />
    <glyph glyph-name="greaterequal" unicode="&#x2265;" horiz-adv-x="596" 
d="M62 662l483 -157v-132l-483 -157v147l294 76l-294 76v147zM62 190h484v-134h-484v134z" />
    <glyph glyph-name="guillemotleft" unicode="&#xab;" horiz-adv-x="848" 
d="M25 268v4l208 238h230l-208 -238v-4l208 -238h-230zM382 268v4l208 238h230l-208 -238v-4l208 -238h-230z" />
    <glyph glyph-name="guilsinglleft" unicode="&#x2039;" horiz-adv-x="491" 
d="M25 268v4l208 238h230l-208 -238v-4l208 -238h-230z" />
    <glyph glyph-name="guillemotright" unicode="&#xbb;" horiz-adv-x="848" 
d="M258 30h-230l208 238v4l-208 238h230l208 -238v-4zM615 30h-230l208 238v4l-208 238h230l208 -238v-4z" />
    <glyph glyph-name="guilsinglright" unicode="&#x203a;" horiz-adv-x="491" 
d="M258 30h-230l208 238v4l-208 238h230l208 -238v-4z" />
    <glyph glyph-name="hbar" unicode="&#x127;" horiz-adv-x="740" 
d="M-29 735h85v73h230v-73h159v-123h-159v-128q67 29 126.5 47.5t104.5 18.5q79 0 125 -41t46 -113v-396h-230v321q0 30 -11 43t-37 13q-21 0 -55 -6t-69 -16v-355h-230v612h-85v123z" />
    <glyph glyph-name="hcircumflex" unicode="&#x125;" horiz-adv-x="739" 
d="M145 948l232 82l238 -82v-118l-235 81l-235 -81v118zM55 808h230v-324q67 29 126.5 47.5t104.5 18.5q79 0 125 -41t46 -113v-396h-230v321q0 30 -11 43t-37 13q-21 0 -55 -6t-69 -16v-355h-230v808z" />
    <glyph glyph-name="hdotbelow" unicode="&#x1e25;" horiz-adv-x="739" 
d="M55 808h230v-324q67 29 126.5 47.5t104.5 18.5q79 0 125 -41t46 -113v-396h-230v321q0 30 -11 43t-37 13q-21 0 -55 -6t-69 -16v-355h-230v808zM371 -220q-50 0 -70.5 20.5t-20.5 66.5q0 47 20.5 67.5t70.5 20.5q52 0 71.5 -22t19.5 -66t-19.5 -65.5t-71.5 -21.5z" />
    <glyph glyph-name="hungarumlaut" unicode="&#x2dd;" horiz-adv-x="581" 
d="M31 617l61 191h231l-133 -201zM283 617l61 191h231l-132 -201z" />
    <glyph glyph-name="hyphen" unicode="-" horiz-adv-x="596" 
d="M52 362h492v-164h-492v164z" />
    <glyph glyph-name="iacute" unicode="&#xed;" horiz-adv-x="341" 
d="M86 617l61 191h235l-132 -201zM55 540h230v-540h-230v540z" />
    <glyph glyph-name="ibreve" unicode="&#x12d;" horiz-adv-x="342" 
d="M173 611q-54 0 -89.5 15.5t-57 42t-30.5 62t-9 75.5h110q0 -21 2.5 -38t10.5 -28.5t23 -17.5t40 -6t40 6t23.5 17.5t11 28.5t2.5 38h108q0 -42 -9 -77.5t-30 -61.5t-56.5 -41t-89.5 -15zM56 540h230v-540h-230v540z" />
    <glyph glyph-name="icircumflex" unicode="&#xee;" horiz-adv-x="342" 
d="M-42 745l211 82l218 -82v-148l-215 81l-214 -81v148zM56 540h230v-540h-230v540z" />
    <glyph glyph-name="idblgrave" unicode="&#x209;" horiz-adv-x="342" 
d="M-42 607l-133 201h231l61 -191zM210 607l-133 201h231l62 -191zM56 540h230v-540h-230v540z" />
    <glyph glyph-name="idieresis" unicode="&#xef;" horiz-adv-x="342" 
d="M49 606q-59 0 -84 25t-25 81t25 80.5t84 24.5q60 0 84.5 -26t24.5 -79q0 -56 -24.5 -81t-84.5 -25zM298 606q-59 0 -84 25t-25 81t25 80.5t84 24.5q60 0 84.5 -26t24.5 -79q0 -56 -24.5 -81t-84.5 -25zM56 540h230v-540h-230v540z" />
    <glyph glyph-name="idotbelow" unicode="&#x1ecb;" horiz-adv-x="340" 
d="M170 594q-66 0 -93.5 27.5t-27.5 90.5q0 62 27.5 90t93.5 28q68 0 95 -29t27 -89t-27 -89t-95 -29zM55 540h230v-540h-230v540zM171 -220q-50 0 -70.5 20.5t-20.5 66.5q0 47 20.5 67.5t70.5 20.5q52 0 71.5 -22t19.5 -66t-19.5 -65.5t-71.5 -21.5z" />
    <glyph glyph-name="igrave" unicode="&#xec;" horiz-adv-x="341" 
d="M56 540h230v-540h-230v540zM79 607l-133 201h236l61 -191z" />
    <glyph glyph-name="iinvertedbreve" unicode="&#x20b;" horiz-adv-x="342" 
d="M-12 621q0 40 9 75.5t30 62t56.5 42t89.5 15.5t90 -15t57 -41.5t30 -62t9 -76.5h-109q0 21 -2.5 37.5t-11 28t-23.5 17.5t-40 6t-40 -6t-23 -17.5t-10.5 -28t-2.5 -37.5h-109zM56 540h230v-540h-230v540z" />
    <glyph glyph-name="ij" unicode="&#x133;" horiz-adv-x="677" 
d="M170 594q-66 0 -93.5 27.5t-27.5 90.5q0 62 27.5 90t93.5 28q68 0 95 -29t27 -89t-27 -89t-95 -29zM55 540h230v-540h-230v540zM508 594q-66 0 -93.5 27.5t-27.5 90.5q0 62 27.5 90t93.5 28q68 0 95 -29t27 -89t-27 -89t-95 -29zM362 -199q10 46 17 85t11.5 82t6 95.5
t1.5 126.5v55.5t-1 69.5t-2 94.5t-2 130.5h230v-472q-11 -84 -33.5 -153t-56.5 -135z" />
    <glyph glyph-name="imacron" unicode="&#x12b;" horiz-adv-x="342" 
d="M56 540h230v-540h-230v540zM-62 791h466v-148h-466v148z" />
    <glyph glyph-name="infinity" unicode="&#x221e;" horiz-adv-x="964" 
d="M268 115q-51 0 -93.5 14.5t-73.5 41t-48 63t-17 80.5q0 42 17.5 77.5t49 61.5t73.5 41t92 15q62 0 116 -22.5t97 -66.5q24 16 47 32t48.5 29t54.5 20.5t65 7.5q51 0 93.5 -14.5t73.5 -41t48 -63t17 -80.5q0 -42 -17.5 -77.5t-49 -61.5t-74 -41t-91.5 -15
q-62 0 -116.5 22.5t-97.5 66.5q-23 -17 -46 -33t-48.5 -28.5t-54.5 -20t-65 -7.5zM294 236q62 0 119 78q-33 40 -62 57t-63 17q-35 0 -54 -19.5t-19 -54.5q0 -34 22 -56t57 -22zM676 236q35 0 54 19.5t19 54.5q0 34 -22 56t-57 22q-31 0 -61.5 -20t-57.5 -58
q32 -40 61.5 -57t63.5 -17z" />
    <glyph glyph-name="integral" unicode="&#x222b;" horiz-adv-x="401" 
d="M126 -211q-51 0 -114 21l22 114q27 -5 37 -6.5t19 -1.5q46 0 46 41v6l-50 647q-1 6 -1 11.5v10.5q0 72 36 110t105 38q37 0 74.5 -5t89.5 -16l-22 -114q-29 5 -38 6.5t-18 1.5q-46 0 -46 -35v-4l51 -678v-11q0 -66 -49 -101t-142 -35z" />
    <glyph glyph-name="iogonek" unicode="&#x12f;" horiz-adv-x="340" 
d="M55 540h230v-545q-36 -14 -60.5 -24.5t-39 -20t-20.5 -18t-6 -17.5q0 -20 26 -20q6 0 17.5 1.5t25.5 3.5t29.5 5.5t29.5 6.5v-120q-44 -12 -98 -12q-82 0 -128.5 25.5t-46.5 70.5q0 16 6.5 34t17.5 34.5t26 31t33 24.5h-42v540zM170 594q-66 0 -93.5 27.5t-27.5 90.5
q0 62 27.5 90t93.5 28q68 0 95 -29t27 -89t-27 -89t-95 -29z" />
    <glyph glyph-name="itilde" unicode="&#x129;" horiz-adv-x="342" 
d="M-73 661q35 75 81 112.5t88 37.5q26 0 52.5 -5.5t52.5 -12.5t52.5 -12.5t53.5 -5.5q19 0 40 6.5t53 29.5l22 -38q-38 -75 -84 -112.5t-85 -37.5q-27 0 -53.5 5.5t-52.5 12.5t-52.5 12.5t-52.5 5.5q-22 0 -43.5 -6.5t-50.5 -29.5zM56 540h230v-540h-230v540z" />
    <glyph glyph-name="jcircumflex" unicode="&#x135;" horiz-adv-x="338" 
d="M-51 745l211 82l218 -82v-148l-214 81l-215 -81v148zM22 -199q10 46 17 85t11.5 82t6 95.5t1.5 126.5v55.5t-1 69.5t-2 94.5t-2 130.5h230v-472q-11 -84 -33.5 -153t-56.5 -135z" />
    <glyph glyph-name="kcommaaccent" unicode="&#x137;" horiz-adv-x="692" 
d="M230 -70h236l-104 -150h-171zM55 808h230v-462h41l111 194h252l-173 -253l-29 -6v-4l29 -6l191 -271h-251l-132 211h-39v-211h-230v808z" />
    <glyph glyph-name="kgreenlandic" unicode="&#x138;" horiz-adv-x="694" 
d="M56 540h230v-194h41l111 194h252l-173 -253l-29 -6v-4l29 -6l191 -271h-251l-132 211h-39v-211h-230v540z" />
    <glyph glyph-name="lacute" unicode="&#x13a;" horiz-adv-x="340" 
d="M79 839l61 191h235l-132 -201zM55 808h230v-808h-230v808z" />
    <glyph glyph-name="lcaron" unicode="&#x13e;" horiz-adv-x="341" 
d="M331 808h178l-53 -228h-125v228zM55 808h230v-808h-230v808z" />
    <glyph glyph-name="lcommaaccent" unicode="&#x13c;" horiz-adv-x="340" 
d="M57 -70h236l-104 -150h-171zM55 808h230v-808h-230v808z" />
    <glyph glyph-name="ldot" unicode="&#x140;" horiz-adv-x="581" 
d="M55 808h230v-808h-230v808zM461 252q-66 0 -94 27.5t-28 90.5t28 90.5t94 27.5q68 0 94.5 -29t26.5 -89t-26.5 -89t-94.5 -29z" />
    <glyph glyph-name="less" unicode="&#x3c;" horiz-adv-x="572" 
d="M29 297v132l483 207v-147l-294 -126l294 -126v-147z" />
    <glyph glyph-name="less.tab" 
d="M51 297v132l537 207v-147l-330 -126l330 -126v-147z" />
    <glyph glyph-name="lessequal" unicode="&#x2264;" horiz-adv-x="596" 
d="M51 505l483 157v-147l-294 -76l294 -76v-147l-483 157v132zM50 190h484v-134h-484v134z" />
    <glyph glyph-name="lira" unicode="&#x20a4;" horiz-adv-x="792" 
d="M45 496h164v7q0 124 87 185.5t261 61.5q27 0 51 -1t47.5 -4t47.5 -8t51 -12l-6 -182q-48 8 -88.5 12t-76.5 4q-77 0 -108 -13t-31 -43v-7h221l-20 -110h-201v-34h196l-20 -110h-176v-46h295v-196h-694v198h164v44h-164v110h164v34h-164v110z" />
    <glyph glyph-name="logicalnot" unicode="&#xac;" horiz-adv-x="939" 
d="M42 449h834v-362h-224v179h-610v183z" />
    <glyph glyph-name="lozenge" unicode="&#x25ca;" horiz-adv-x="700" 
d="M30 361v20l173 359h294l173 -359v-20l-173 -361h-294zM447 371l-97 228l-98 -228l98 -230z" />
    <glyph glyph-name="lslash" unicode="&#x142;" horiz-adv-x="474" 
d="M25 400l97 41v367h230v-269l109 47v-164l-109 -47v-375h-230v277l-97 -41v164z" />
    <glyph glyph-name="m" unicode="m" horiz-adv-x="1062" 
d="M56 540h193l11 -63h10q24 15 50.5 28.5t53.5 23t53.5 15.5t49.5 6q53 0 91.5 -19t58.5 -54h5q24 15 50.5 28.5t53.5 23t53.5 15.5t49.5 6q79 0 125 -41t46 -113v-396h-230v316q0 30 -11 43t-37 13q-7 0 -17.5 -1.5t-22.5 -4t-23.5 -5.5t-20.5 -6v-355h-230v316
q0 30 -11 43t-37 13q-7 0 -17.5 -1.5t-22.5 -4t-23.5 -5.5t-20.5 -6v-355h-230v540z" />
    <glyph glyph-name="minus" unicode="&#x2212;" horiz-adv-x="586" 
d="M56 437h474v-134h-474v134z" />
    <glyph glyph-name="minus.tab" 
d="M86 437h497v-134h-497v134z" />
    <glyph glyph-name="mu" unicode="&#xb5;" horiz-adv-x="783" 
d="M73 540h230v-331q0 -30 11 -43t37 -13q23 0 57.5 6.5t66.5 15.5v365h230v-540h-193l-11 63h-4q-30 -16 -54 -28t-46.5 -20.5t-44.5 -13.5t-49 -8v-213h-230v760z" />
    <glyph glyph-name="multiply" unicode="&#xd7;" horiz-adv-x="525" 
d="M32 235l135 135l-135 135l95 95l135 -135l134 135l96 -95l-135 -135l135 -135l-95 -95l-135 135l-135 -135z" />
    <glyph glyph-name="multiply.tab" 
d="M70 235l158 135l-158 135l102 95l162 -139l163 139l103 -95l-159 -135l159 -135l-102 -95l-163 139l-163 -139z" />
    <glyph glyph-name="n" unicode="n" horiz-adv-x="740" 
d="M56 540h193l11 -63h10q74 35 137 54t110 19q79 0 125 -41t46 -113v-396h-230v321q0 30 -11 43t-37 13q-23 0 -57.5 -6.5t-66.5 -15.5v-355h-230v540z" />
    <glyph glyph-name="nacute" unicode="&#x144;" horiz-adv-x="740" 
d="M291 617l61 191h235l-132 -201zM56 540h193l11 -63h10q74 35 137 54t110 19q79 0 125 -41t46 -113v-396h-230v321q0 30 -11 43t-37 13q-23 0 -57.5 -6.5t-66.5 -15.5v-355h-230v540z" />
    <glyph glyph-name="napostrophe" unicode="&#x149;" horiz-adv-x="867" 
d="M192 808v-4l-53 -224h-125v228h178zM183 540h193l11 -63h10q74 35 137 54t110 19q79 0 125 -41t46 -113v-396h-230v321q0 30 -11 43t-37 13q-23 0 -57.5 -6.5t-66.5 -15.5v-355h-230v540z" />
    <glyph glyph-name="ncaron" unicode="&#x148;" horiz-adv-x="740" 
d="M119 827l235 -82l235 82v-149l-238 -81l-232 81v149zM56 540h193l11 -63h10q74 35 137 54t110 19q79 0 125 -41t46 -113v-396h-230v321q0 30 -11 43t-37 13q-23 0 -57.5 -6.5t-66.5 -15.5v-355h-230v540z" />
    <glyph glyph-name="ncommaaccent" unicode="&#x146;" horiz-adv-x="740" 
d="M258 -70h236l-104 -150h-171zM56 540h193l11 -63h10q74 35 137 54t110 19q79 0 125 -41t46 -113v-396h-230v321q0 30 -11 43t-37 13q-23 0 -57.5 -6.5t-66.5 -15.5v-355h-230v540z" />
    <glyph glyph-name="ndotaccent" unicode="&#x1e45;" horiz-adv-x="740" 
d="M370 594q-66 0 -94 27.5t-28 90.5q0 62 28 90t94 28q68 0 94.5 -29t26.5 -89t-26.5 -89t-94.5 -29zM56 540h193l11 -63h10q74 35 137 54t110 19q79 0 125 -41t46 -113v-396h-230v321q0 30 -11 43t-37 13q-23 0 -57.5 -6.5t-66.5 -15.5v-355h-230v540z" />
    <glyph glyph-name="nine" unicode="9" horiz-adv-x="753" 
d="M367 750q168 0 258 -87.5t90 -258.5q0 -414 -455 -414q-42 0 -88 5t-98 15l29 159q48 -8 83 -11.5t65 -3.5q51 0 89 8t64.5 26t42.5 47t24 70q-30 -20 -72 -31.5t-93 -11.5q-64 0 -116 16t-89 45t-57 71t-20 93q0 61 23.5 110t68 83t108 52t143.5 18zM367 400
q32 0 63 10.5t49 25.5q-4 83 -30.5 119t-81.5 36q-53 0 -77 -23.5t-24 -74.5q0 -50 23.5 -71.5t77.5 -21.5z" />
    <glyph glyph-name="six" unicode="6" horiz-adv-x="753" 
d="M386 -10q-168 0 -258 87.5t-90 258.5q0 414 455 414q42 0 88 -5t98 -15l-29 -159q-48 8 -83 11.5t-65 3.5q-102 0 -153.5 -34.5t-66.5 -116.5q30 20 72 31.5t93 11.5q64 0 116 -16t89 -45t57 -71t20 -93q0 -61 -23.5 -110t-68 -83t-108 -52t-143.5 -18zM386 340
q-32 0 -63 -10.5t-49 -25.5q4 -83 30.5 -119t81.5 -36q53 0 77 23.5t24 74.5q0 50 -23.5 71.5t-77.5 21.5z" />
    <glyph glyph-name="nine.denominator" horiz-adv-x="611" 
d="M214 -6q-65 0 -155 15l30 141q26 -3 44.5 -5t31.5 -3t23 -1.5t19 -0.5q81 0 122.5 19t60.5 65q-27 -20 -65.5 -30.5t-81.5 -10.5q-49 0 -89.5 12.5t-69.5 35t-45 54.5t-16 70q0 46 19 83t55 62.5t87.5 39t116.5 13.5q138 0 210.5 -65.5t72.5 -190.5q0 -303 -370 -303z
M301 311q23 0 47.5 4.5t41.5 12.5q-5 44 -26 63t-63 19t-61.5 -12.5t-19.5 -38.5t19 -37t62 -11z" />
    <glyph glyph-name="nine.numerator" horiz-adv-x="611" 
d="M214 194q-65 0 -155 15l30 141q26 -3 44.5 -5t31.5 -3t23 -1.5t19 -0.5q81 0 122.5 19t60.5 65q-27 -20 -65.5 -30.5t-81.5 -10.5q-49 0 -89.5 12.5t-69.5 35t-45 54.5t-16 70q0 46 19 83t55 62.5t87.5 39t116.5 13.5q138 0 210.5 -65.5t72.5 -190.5q0 -303 -370 -303z
M301 511q24 0 48 4.5t41 12.5q-5 44 -26 63t-63 19t-61.5 -12.5t-19.5 -38.5t19 -37t62 -11z" />
    <glyph glyph-name="nine.osf" horiz-adv-x="734" 
d="M344 590q177 0 270 -88.5t93 -257.5q0 -365 -455 -365q-40 0 -86 4.5t-100 15.5l29 159q51 -8 85 -11.5t63 -3.5q108 0 161.5 31.5t66.5 105.5q-30 -23 -74.5 -35.5t-98.5 -12.5q-64 0 -116 15t-89 42t-57 66t-20 87q0 55 23.5 101t67 78.5t103.5 50.5t134 18zM359 270
q33 0 65 11t49 27q-8 66 -35 94.5t-79 28.5q-54 0 -77.5 -19t-23.5 -64q0 -42 23.5 -60t77.5 -18z" />
    <glyph glyph-name="six.osf" horiz-adv-x="745" 
d="M397 -20q-177 0 -270 88.5t-93 257.5q0 365 455 365q40 0 86 -4.5t100 -15.5l-29 -159q-51 8 -85 11.5t-63 3.5q-108 0 -161.5 -31.5t-66.5 -105.5q30 23 74.5 35.5t98.5 12.5q64 0 116 -15t89 -42t57 -66t20 -87q0 -56 -23.5 -101.5t-67 -78t-104 -50.5t-133.5 -18z
M382 300q-33 0 -65 -11t-49 -27q8 -66 35 -94.5t79 -28.5q54 0 77.5 19t23.5 64q0 42 -23.5 60t-77.5 18z" />
    <glyph glyph-name="nine.tf" 
d="M326 750q156 0 241 -87.5t85 -258.5q0 -414 -427 -414q-39 0 -82.5 5t-92.5 15l29 159q45 -8 77.5 -11.5t59.5 -3.5q93 0 139 33.5t60 115.5q-55 -41 -149 -41q-59 0 -107.5 16t-82.5 45t-52.5 71t-18.5 93q0 61 22 110t63.5 83t101 52t134.5 18zM326 400q28 0 54 9.5
t41 24.5q-3 84 -25 120.5t-70 36.5q-45 0 -65 -23.5t-20 -74.5q0 -50 19.5 -71.5t65.5 -21.5z" />
    <glyph glyph-name="nine.tosf" 
d="M313 590q165 0 252.5 -88.5t87.5 -257.5q0 -365 -427 -365q-37 0 -80.5 4.5t-94.5 15.5l29 159q48 -8 79.5 -11.5t57.5 -3.5q49 0 85 7.5t60.5 23.5t39 41.5t20.5 62.5q-55 -46 -155 -46q-59 0 -107.5 15t-82.5 42t-52.5 66t-18.5 87q0 55 22 101t62.5 78.5t97 50.5
t125.5 18zM327 270q29 0 56 10t41 26q-6 66 -29 95.5t-68 29.5q-47 0 -66 -19t-19 -64q0 -42 19.5 -60t65.5 -18z" />
    <glyph glyph-name="nineinferior" unicode="&#x2089;" horiz-adv-x="611" 
d="M214 -106q-65 0 -155 15l30 141q26 -3 44.5 -5t31.5 -3t23 -1.5t19 -0.5q81 0 122.5 19t60.5 65q-27 -20 -65.5 -30.5t-81.5 -10.5q-49 0 -89.5 12.5t-69.5 35t-45 54.5t-16 70q0 46 19 83t55 62.5t87.5 39t116.5 13.5q138 0 210.5 -65.5t72.5 -190.5q0 -303 -370 -303z
M301 211q25 0 49 4.5t40 12.5q-5 44 -26 63t-63 19t-61.5 -12.5t-19.5 -38.5t19 -37t62 -11z" />
    <glyph glyph-name="ninesuperior" unicode="&#x2079;" horiz-adv-x="611" 
d="M214 294q-65 0 -155 15l30 141q26 -3 44.5 -5t31.5 -3t23 -1.5t19 -0.5q81 0 122.5 19t60.5 65q-27 -20 -65.5 -30.5t-81.5 -10.5q-49 0 -89.5 12.5t-69.5 35t-45 54.5t-16 70q0 46 19 83t55 62.5t87.5 39t116.5 13.5q138 0 210.5 -65.5t72.5 -190.5q0 -303 -370 -303z
M301 611q25 0 49 4.5t40 12.5q-5 44 -26 63t-63 19t-61.5 -12.5t-19.5 -38.5t19 -37t62 -11z" />
    <glyph glyph-name="notequal" unicode="&#x2260;" horiz-adv-x="568" 
d="M62 528h193l27 99l130 -34l-18 -65h112v-138h-149l-22 -85h171v-138h-208l-31 -117l-130 34l22 83h-97v138h134l22 85h-156v138z" />
    <glyph glyph-name="ntilde" unicode="&#xf1;" horiz-adv-x="740" 
d="M56 540h193l11 -63h10q74 35 137 54t110 19q79 0 125 -41t46 -113v-396h-230v321q0 30 -11 43t-37 13q-23 0 -57.5 -6.5t-66.5 -15.5v-355h-230v540zM108 661q38 75 89 112.5t97 37.5q29 0 58 -5.5t57.5 -12.5t57.5 -12.5t58 -5.5q24 0 47.5 6.5t57.5 29.5l23 -38
q-40 -75 -90.5 -112.5t-94.5 -37.5q-29 0 -58 5.5t-58 12.5t-58 12.5t-58 5.5q-26 0 -49.5 -6.5t-54.5 -29.5z" />
    <glyph glyph-name="numbersign" unicode="#" horiz-adv-x="740" 
d="M417 163h-116l-13 -163h-150l13 163h-109v137h120l11 133h-131v141h142l14 166h150l-14 -166h116l14 166h150l-14 -166h98v-141h-109l-11 -133h120v-137h-131l-13 -163h-150zM312 300h116l11 133h-116z" />
    <glyph glyph-name="numbersign.tab" 
d="M380 163h-111l-13 -163h-148l13 163h-107v137h117l11 133h-128v141h139l13 166h148l-13 -166h111l13 166h148l-13 -166h94v-141h-105l-11 -133h116v-137h-126l-13 -163h-148zM279 300h111l11 133h-111z" />
    <glyph glyph-name="o" unicode="o" horiz-adv-x="727" 
d="M364 -11q-164 0 -249.5 72t-85.5 209t85.5 208.5t249.5 71.5t249 -71.5t85 -208.5t-85 -209t-249 -72zM364 161q30 0 50 4.5t32 17t17 33.5t5 54t-5 53.5t-17 32.5t-32 16.5t-50 4.5t-50 -4.5t-32 -16.5t-17.5 -33t-5.5 -53q0 -33 5.5 -54t17.5 -33t32 -17t50 -5z" />
    <glyph glyph-name="oacute" unicode="&#xf3;" horiz-adv-x="727" 
d="M265 617l61 191h235l-132 -201zM364 -11q-164 0 -249.5 72t-85.5 209t85.5 208.5t249.5 71.5t249 -71.5t85 -208.5t-85 -209t-249 -72zM364 161q30 0 50 4.5t32 17t17 33.5t5 54t-5 53.5t-17 32.5t-32 16.5t-50 4.5t-50 -4.5t-32 -16.5t-17.5 -33t-5.5 -53q0 -33 5.5 -54
t17.5 -33t32 -17t50 -5z" />
    <glyph glyph-name="obreve" unicode="&#x14f;" horiz-adv-x="727" 
d="M364 -11q-164 0 -249.5 72t-85.5 209t85.5 208.5t249.5 71.5t249 -71.5t85 -208.5t-85 -209t-249 -72zM364 161q30 0 50 4.5t32 17t17 33.5t5 54t-5 53.5t-17 32.5t-32 16.5t-50 4.5t-50 -4.5t-32 -16.5t-17.5 -33t-5.5 -53q0 -33 5.5 -54t17.5 -33t32 -17t50 -5z
M363 611q-75 0 -124 15.5t-78.5 42t-41.5 62t-12 75.5h149q0 -21 4.5 -38t16.5 -28.5t33 -17.5t53 -6q33 0 53.5 6t32.5 17.5t16.5 28.5t4.5 38h149q0 -42 -12 -77.5t-41.5 -61.5t-79 -41t-123.5 -15z" />
    <glyph glyph-name="ocircumflex" unicode="&#xf4;" horiz-adv-x="727" 
d="M123 745l232 82l238 -82v-148l-235 81l-235 -81v148zM364 -11q-164 0 -249.5 72t-85.5 209t85.5 208.5t249.5 71.5t249 -71.5t85 -208.5t-85 -209t-249 -72zM364 161q30 0 50 4.5t32 17t17 33.5t5 54t-5 53.5t-17 32.5t-32 16.5t-50 4.5t-50 -4.5t-32 -16.5t-17.5 -33
t-5.5 -53q0 -33 5.5 -54t17.5 -33t32 -17t50 -5z" />
    <glyph glyph-name="odblgrave" unicode="&#x20d;" horiz-adv-x="727" 
d="M141 607l-133 201h231l61 -191zM393 607l-133 201h231l62 -191zM364 -11q-164 0 -249.5 72t-85.5 209t85.5 208.5t249.5 71.5t249 -71.5t85 -208.5t-85 -209t-249 -72zM364 161q30 0 50 4.5t32 17t17 33.5t5 54t-5 53.5t-17 32.5t-32 16.5t-50 4.5t-50 -4.5t-32 -16.5
t-17.5 -33t-5.5 -53q0 -33 5.5 -54t17.5 -33t32 -17t50 -5z" />
    <glyph glyph-name="odieresis" unicode="&#xf6;" horiz-adv-x="727" 
d="M212 606q-59 0 -84 25t-25 81t25 80.5t84 24.5q60 0 84.5 -26t24.5 -79q0 -56 -24.5 -81t-84.5 -25zM509 606q-59 0 -84 25t-25 81t25 80.5t84 24.5q60 0 84.5 -26t24.5 -79q0 -56 -24.5 -81t-84.5 -25zM364 -11q-164 0 -249.5 72t-85.5 209t85.5 208.5t249.5 71.5
t249 -71.5t85 -208.5t-85 -209t-249 -72zM364 161q30 0 50 4.5t32 17t17 33.5t5 54t-5 53.5t-17 32.5t-32 16.5t-50 4.5t-50 -4.5t-32 -16.5t-17.5 -33t-5.5 -53q0 -33 5.5 -54t17.5 -33t32 -17t50 -5z" />
    <glyph glyph-name="odotbelow" unicode="&#x1ecd;" horiz-adv-x="727" 
d="M369 -220q-50 0 -70.5 20.5t-20.5 66.5q0 47 20.5 67.5t70.5 20.5q52 0 71.5 -22t19.5 -66t-19.5 -65.5t-71.5 -21.5zM364 -11q-164 0 -249.5 72t-85.5 209t85.5 208.5t249.5 71.5t249 -71.5t85 -208.5t-85 -209t-249 -72zM364 161q30 0 50 4.5t32 17t17 33.5t5 54
t-5 53.5t-17 32.5t-32 16.5t-50 4.5t-50 -4.5t-32 -16.5t-17.5 -33t-5.5 -53q0 -33 5.5 -54t17.5 -33t32 -17t50 -5z" />
    <glyph glyph-name="oe" unicode="&#x153;" horiz-adv-x="1094" 
d="M782 -9q-132 0 -200 48h-10q-35 -24 -88 -37t-120 -13q-164 0 -249.5 72t-85.5 209t85.5 208.5t249.5 71.5q68 0 121.5 -13.5t88.5 -38.5l10 1q34 24 85 37t118 13q136 0 205.5 -59t69.5 -174q0 -52 -13 -97h-353q3 -19 9.5 -30.5t18.5 -17.5t31.5 -8t47.5 -2
q27 0 59.5 1.5t64 4.5t59.5 6.5t46 7.5l6 -159q-57 -15 -123 -23t-133 -8zM364 161q30 0 50 4.5t32 17t17 33.5t5 54t-5 53.5t-17 32.5t-32 16.5t-50 4.5t-50 -4.5t-32 -16.5t-17.5 -33t-5.5 -53q0 -33 5.5 -54t17.5 -33t32 -17t50 -5zM861 322q-2 40 -21 57t-65 17
q-42 0 -59.5 -15.5t-21.5 -58.5h167z" />
    <glyph glyph-name="ograve" unicode="&#xf2;" horiz-adv-x="727" 
d="M364 -11q-164 0 -249.5 72t-85.5 209t85.5 208.5t249.5 71.5t249 -71.5t85 -208.5t-85 -209t-249 -72zM364 161q30 0 50 4.5t32 17t17 33.5t5 54t-5 53.5t-17 32.5t-32 16.5t-50 4.5t-50 -4.5t-32 -16.5t-17.5 -33t-5.5 -53q0 -33 5.5 -54t17.5 -33t32 -17t50 -5z
M264 607l-133 201h236l61 -191z" />
    <glyph glyph-name="ohungarumlaut" unicode="&#x151;" horiz-adv-x="727" 
d="M149 617l61 191h231l-133 -201zM401 617l61 191h231l-132 -201zM364 -11q-164 0 -249.5 72t-85.5 209t85.5 208.5t249.5 71.5t249 -71.5t85 -208.5t-85 -209t-249 -72zM364 161q30 0 50 4.5t32 17t17 33.5t5 54t-5 53.5t-17 32.5t-32 16.5t-50 4.5t-50 -4.5t-32 -16.5
t-17.5 -33t-5.5 -53q0 -33 5.5 -54t17.5 -33t32 -17t50 -5z" />
    <glyph glyph-name="oinvertedbreve" unicode="&#x20f;" horiz-adv-x="727" 
d="M106 621q0 40 12 75.5t41.5 62t78.5 42t124 15.5q74 0 123.5 -15t79 -41.5t41.5 -62t12 -76.5h-149q0 21 -4.5 37.5t-16.5 28t-32.5 17.5t-53.5 6q-32 0 -53 -6t-33 -17.5t-16.5 -28t-4.5 -37.5h-149zM364 -11q-164 0 -249.5 72t-85.5 209t85.5 208.5t249.5 71.5
t249 -71.5t85 -208.5t-85 -209t-249 -72zM364 161q30 0 50 4.5t32 17t17 33.5t5 54t-5 53.5t-17 32.5t-32 16.5t-50 4.5t-50 -4.5t-32 -16.5t-17.5 -33t-5.5 -53q0 -33 5.5 -54t17.5 -33t32 -17t50 -5z" />
    <glyph glyph-name="omacron" unicode="&#x14d;" horiz-adv-x="727" 
d="M128 791h466v-148h-466v148zM364 -11q-164 0 -249.5 72t-85.5 209t85.5 208.5t249.5 71.5t249 -71.5t85 -208.5t-85 -209t-249 -72zM364 161q30 0 50 4.5t32 17t17 33.5t5 54t-5 53.5t-17 32.5t-32 16.5t-50 4.5t-50 -4.5t-32 -16.5t-17.5 -33t-5.5 -53q0 -33 5.5 -54
t17.5 -33t32 -17t50 -5z" />
    <glyph glyph-name="one" unicode="1" horiz-adv-x="536" 
d="M217 496h-4l-175 -30h-7l-24 141v4l267 129h178v-740h-235v496z" />
    <glyph glyph-name="one.denominator" horiz-adv-x="432" 
d="M177 354l-145 -21h-3l-22 102v20l221 91h139v-546h-190v354z" />
    <glyph glyph-name="one.numerator" horiz-adv-x="432" 
d="M177 554l-145 -21h-3l-22 102v20l221 91h139v-546h-190v354z" />
    <glyph glyph-name="one.osf" horiz-adv-x="524" 
d="M218 341h-4l-175 -30h-7l-24 141v4l267 129h178v-585h-235v341z" />
    <glyph glyph-name="one.tf" 
d="M297 496h-5l-209 -30h-9l-25 141v4l308 129h187v-740h-247v496z" />
    <glyph glyph-name="one.tosf" 
d="M304 341h-5l-209 -30h-9l-25 141v4l308 129h187v-585h-247v341z" />
    <glyph glyph-name="oneeighth" unicode="&#x215b;" horiz-adv-x="1351" 
d="M1042 -6q-284 0 -284 156q0 83 75 126q-30 20 -46 50t-16 67q0 75 71.5 117.5t199.5 42.5q120 0 188 -42.5t68 -117.5q0 -35 -11.5 -58.5t-38.5 -41.5q65 -44 65 -126q0 -90 -65 -131.5t-206 -41.5zM1042 123q42 0 59 11.5t17 37.5q0 15 -26.5 27.5t-90.5 26.5l-14 3
q-34 -31 -34 -55q0 -23 24 -37t65 -14zM1073 331q12 8 21 24t9 29q0 18 -16.5 29t-44.5 11q-35 0 -55.5 -9.5t-20.5 -26.5q0 -21 21 -33.5t67 -20.5zM682 740h197l-373 -740h-197zM195 554l-145 -21h-3l-22 102v20l221 91h139v-546h-190v354z" />
    <glyph glyph-name="onehalf" unicode="&#xbd;" horiz-adv-x="1344" 
d="M797 85q0 79 49.5 133t155.5 89q35 12 56 19.5t32 13t14 10t3 10.5q0 33 -103 33q-32 0 -72.5 -4t-102.5 -13l-15 155q75 12 128 17t98 5q132 0 194.5 -43t62.5 -134q0 -63 -44.5 -110.5t-131.5 -76.5q-38 -14 -52 -20.5t-14 -11.5v-3h242v-154h-500v85zM682 740h197
l-373 -740h-197zM195 554l-145 -21h-3l-22 102v20l221 91h139v-546h-190v354z" />
    <glyph glyph-name="two.denominator" horiz-adv-x="562" 
d="M26 85q0 79 49.5 133t155.5 89q35 12 56 19.5t32 13t14 10t3 10.5q0 33 -103 33q-32 0 -72.5 -4t-102.5 -13l-15 155q75 12 128 17t98 5q132 0 194.5 -43t62.5 -134q0 -63 -44.5 -110.5t-131.5 -76.5q-38 -14 -52 -20.5t-14 -11.5v-3h242v-154h-500v85z" />
    <glyph glyph-name="oneinferior" unicode="&#x2081;" horiz-adv-x="432" 
d="M177 254l-145 -21h-3l-22 102v20l221 91h139v-546h-190v354z" />
    <glyph glyph-name="onequarter" unicode="&#xbc;" horiz-adv-x="1337" 
d="M1018 85h-268l-19 121l209 340l18 6l167 -12l18 -37l-214 -273h99l45 115h135v-115h97v-145h-97v-85h-190v85zM682 740h197l-373 -740h-197zM195 554l-145 -21h-3l-22 102v20l221 91h139v-546h-190v354z" />
    <glyph glyph-name="onesuperior" unicode="&#xb9;" horiz-adv-x="432" 
d="M177 654l-145 -21h-3l-22 102v20l221 91h139v-546h-190v354z" />
    <glyph glyph-name="onethird" unicode="&#x2153;" horiz-adv-x="1308" 
d="M682 740h197l-373 -740h-197zM195 554l-145 -21h-3l-22 102v20l221 91h139v-546h-190v354zM1015 -9q-32 0 -65 1t-62.5 3t-52.5 4t-34 5v162h2q12 -2 32 -4.5t42.5 -4t45 -2.5t38.5 -1q39 0 62 1t36 4t17 9t4 15q0 10 -6 16.5t-21 10t-42 5t-69 1.5h-64v117h64
q36 0 60 1.5t38 5t19.5 10t5.5 15.5t-4.5 14.5t-16 8.5t-32 4t-53.5 1q-13 0 -31.5 -1t-39 -2.5t-42.5 -3.5t-43 -5h-2v158q15 3 40 5.5t52.5 4.5t54 3t44.5 1q270 0 270 -160q0 -36 -18 -64.5t-52 -45.5q37 -19 56.5 -51.5t19.5 -77.5q0 -80 -64 -121.5t-189 -41.5z" />
    <glyph glyph-name="three.denominator" horiz-adv-x="535" 
d="M252 -9q-32 0 -65 1t-62.5 3t-52.5 4t-34 5v162h2q12 -2 32 -4.5t42.5 -4t45 -2.5t38.5 -1q39 0 62 1t36 4t17 9t4 15q0 10 -6 16.5t-21 10t-42 5t-69 1.5h-64v117h64q36 0 60 1.5t38 5t19.5 10t5.5 15.5t-4.5 14.5t-16 8.5t-32 4t-53.5 1q-13 0 -31.5 -1t-39 -2.5
t-42.5 -3.5t-43 -5h-2v158q15 3 40 5.5t52.5 4.5t54 3t44.5 1q270 0 270 -160q0 -36 -18 -64.5t-52 -45.5q37 -19 56.5 -51.5t19.5 -77.5q0 -80 -64 -121.5t-189 -41.5z" />
    <glyph glyph-name="oogonek" unicode="&#x1eb;" horiz-adv-x="727" 
d="M370 -218q-82 0 -128.5 25.5t-46.5 70.5q0 30 20.5 64t52.5 55q-118 19 -178.5 88.5t-60.5 184.5q0 137 85.5 208.5t249.5 71.5t249 -71.5t85 -208.5q0 -115 -60 -184t-175 -89q-36 -14 -59.5 -24.5t-37.5 -19.5t-20 -18t-6 -18q0 -20 26 -20q6 0 17.5 1.5t25.5 3.5
t29.5 5.5t29.5 6.5v-120q-44 -12 -98 -12zM364 161q30 0 50 4.5t32 17t17 33.5t5 54t-5 53.5t-17 32.5t-32 16.5t-50 4.5t-50 -4.5t-32 -16.5t-17.5 -33t-5.5 -53q0 -33 5.5 -54t17.5 -33t32 -17t50 -5z" />
    <glyph glyph-name="ordfeminine" unicode="&#xaa;" horiz-adv-x="530" 
d="M169 348q-66 0 -103.5 34.5t-37.5 93.5q0 57 43 87t122 33l103 4q-1 12 -3.5 18.5t-9.5 9.5t-18.5 3.5t-29.5 0.5q-35 0 -79 -2.5t-84 -7.5l-7 106q45 9 94.5 13.5t94.5 4.5q119 0 172.5 -29.5t53.5 -94.5v-270h-152l-9 47h-4q-27 -22 -66 -36.5t-80 -14.5zM246 468
q13 0 28 2t23 5v33l-52 -4q-21 -4 -30 -5.5t-9 -9.5q0 -21 40 -21z" />
    <glyph glyph-name="ordmasculine" unicode="&#xba;" horiz-adv-x="546" 
d="M273 471q17 0 29.5 2t20.5 10t11.5 22.5t3.5 40.5q0 49 -15.5 64t-49.5 15q-35 0 -49.5 -15t-14.5 -64q0 -26 3.5 -40.5t11 -22.5t19.5 -10t30 -2zM273 345q-119 0 -182.5 49.5t-63.5 151.5t63.5 151.5t182.5 49.5q121 0 183 -49.5t62 -151.5t-62 -151.5t-183 -49.5z" />
    <glyph glyph-name="oslash" unicode="&#xf8;" horiz-adv-x="734" 
d="M91 89q-29 35 -43 81t-14 100q0 63 19.5 114.5t60 88.5t104 57t150.5 20q58 0 105 -9t84 -26l28 25h158l-99 -90q29 -35 43.5 -80.5t14.5 -99.5q0 -64 -20 -116t-61 -88.5t-104 -56.5t-149 -20q-115 0 -190 35l-27 -24h-158zM368 161q39 0 60 6.5t31 20t11.5 34t1.5 48.5
v23l-143 -130q8 -2 18 -2h21zM264 247l140 128q-8 1 -16.5 1.5t-19.5 0.5q-38 0 -58.5 -5.5t-31 -18t-12.5 -33t-2 -50.5v-23z" />
    <glyph glyph-name="oslashacute" unicode="&#x1ff;" horiz-adv-x="734" 
d="M91 89q-29 35 -43 81t-14 100q0 63 19.5 114.5t60 88.5t104 57t150.5 20q58 0 105 -9t84 -26l28 25h158l-99 -90q29 -35 43.5 -80.5t14.5 -99.5q0 -64 -20 -116t-61 -88.5t-104 -56.5t-149 -20q-115 0 -190 35l-27 -24h-158zM368 161q39 0 60 6.5t31 20t11.5 34t1.5 48.5
v23l-143 -130q8 -2 18 -2h21zM264 247l140 128q-8 1 -16.5 1.5t-19.5 0.5q-38 0 -58.5 -5.5t-31 -18t-12.5 -33t-2 -50.5v-23zM274 617l61 191h235l-132 -201z" />
    <glyph glyph-name="otilde" unicode="&#xf5;" horiz-adv-x="727" 
d="M364 -11q-164 0 -249.5 72t-85.5 209t85.5 208.5t249.5 71.5t249 -71.5t85 -208.5t-85 -209t-249 -72zM364 161q30 0 50 4.5t32 17t17 33.5t5 54t-5 53.5t-17 32.5t-32 16.5t-50 4.5t-50 -4.5t-32 -16.5t-17.5 -33t-5.5 -53q0 -33 5.5 -54t17.5 -33t32 -17t50 -5zM95 661
q38 75 89 112.5t97 37.5q29 0 58 -5.5t57.5 -12.5t57.5 -12.5t58 -5.5q24 0 47.5 6.5t57.5 29.5l23 -38q-40 -75 -90.5 -112.5t-94.5 -37.5q-29 0 -58 5.5t-58 12.5t-58 12.5t-58 5.5q-26 0 -49.5 -6.5t-54.5 -29.5z" />
    <glyph glyph-name="p" unicode="p" horiz-adv-x="740" 
d="M56 540h199l19 -73h10q26 45 70 64t104 19q125 0 188 -66.5t63 -199.5q0 -72 -24.5 -127.5t-69 -92.5t-107 -56t-139.5 -19q-22 0 -42.5 1t-40.5 3v-213h-230v760zM376 147q33 0 53 4.5t31.5 17.5t15 37t3.5 63q0 34 -3.5 56t-13.5 35t-27.5 18t-45.5 5q-57 0 -80 -21
t-23 -66v-141q40 -8 90 -8z" />
    <glyph glyph-name="paragraph" unicode="&#xb6;" horiz-adv-x="752" 
d="M483 0h-92v266q-35 -1 -60.5 -1h-55.5q-57 0 -103 12.5t-78 40.5t-49 74t-17 113t17 113t49.5 74t78.5 40.5t104 12.5q45 0 99 -2.5t107 -7.5v-735zM663 0h-127v735h127v-735z" />
    <glyph glyph-name="paragraph.tab" 
d="M437 0h-90v266q-35 -1 -59.5 -1h-53.5q-55 0 -98.5 12.5t-74 40.5t-47 74t-16.5 113t16.5 113t47.5 74t75 40.5t99 12.5q44 0 97 -2.5t104 -7.5v-735zM612 0h-124v735h124v-735z" />
    <glyph glyph-name="parenleft" unicode="(" horiz-adv-x="382" 
d="M183 -160q-77 113 -115 245t-38 269t38 269t115 245h200v-4q-77 -113 -124.5 -243.5t-47.5 -266.5t47.5 -266.5t124.5 -243.5v-4h-200v0z" />
    <glyph glyph-name="parenleft.sc" horiz-adv-x="379" 
d="M174 -125q-69 89 -103 192t-34 209t34 209t103 192h191v-3q-69 -89 -112.5 -191t-43.5 -207q0 -104 43.5 -206t112.5 -192v-3h-191v0z" />
    <glyph glyph-name="parenright" unicode=")" horiz-adv-x="381" 
d="M-1 -160v4q77 113 124.5 243.5t47.5 266.5t-47.5 266.5t-124.5 243.5v4h199q77 -113 115 -245t38 -269t-38 -269t-115 -245h-199z" />
    <glyph glyph-name="parenright.sc" horiz-adv-x="378" 
d="M14 -125v3q69 90 112.5 192t43.5 206q0 105 -43.5 207t-112.5 191v3h189q69 -89 103.5 -192t34.5 -209t-34.5 -209t-103.5 -192h-189z" />
    <glyph glyph-name="partialdiff" unicode="&#x2202;" horiz-adv-x="623" 
d="M311 -4q-71 0 -123.5 20.5t-87.5 57t-52 87t-17 109.5q0 51 16 95t46.5 76.5t74 50.5t97.5 18q28 0 53.5 -10.5t48.5 -28.5q-8 78 -30 107.5t-64 29.5q-30 0 -69.5 -10.5t-74.5 -27.5l-43 120q38 32 92.5 48.5t111.5 16.5q142 0 217 -105t75 -317q0 -79 -18.5 -141.5
t-54 -106t-85.5 -66.5t-113 -23zM307 162q18 0 30.5 5.5t20.5 22t11.5 45t3.5 75.5v41q-29 19 -54 19q-31 0 -54.5 -25t-23.5 -75q0 -54 17 -81t49 -27z" />
    <glyph glyph-name="percent" unicode="%" horiz-adv-x="1247" 
d="M275 278q-117 0 -182 58t-65 178t65 178.5t182 58.5q118 0 182.5 -58.5t64.5 -178.5t-64.5 -178t-182.5 -58zM275 413q22 0 38.5 4t27 15.5t15.5 31t5 50.5t-5 51t-15.5 31t-27 15.5t-38.5 4.5q-23 0 -39.5 -4.5t-27 -15.5t-15 -31t-4.5 -51t4.5 -50.5t15 -31t27 -15.5
t39.5 -4zM972 -10q-117 0 -182 58t-65 178t65 178.5t182 58.5q118 0 182.5 -58.5t64.5 -178.5t-64.5 -178t-182.5 -58zM972 125q22 0 38.5 4t27 15.5t15.5 31t5 50.5t-5 51t-15.5 31t-27 15.5t-38.5 4.5q-23 0 -39.5 -4.5t-27 -15.5t-15 -31t-4.5 -51t4.5 -50.5t15 -31
t27 -15.5t39.5 -4zM710 740h197l-373 -740h-197z" />
    <glyph glyph-name="percent.tab" 
d="M59 297q-85 0 -133 53.5t-48 163.5t48 164t133 54q86 0 133.5 -54t47.5 -164t-47.5 -163.5t-133.5 -53.5zM59 413q14 0 24 4t16.5 15.5t9.5 31t3 50.5t-3 51t-9.5 31t-16.5 15.5t-24 4.5q-15 0 -25 -4.5t-16.5 -15.5t-9 -31t-2.5 -51t2.5 -50.5t9 -31t16.5 -15.5t25 -4z
M611 9q-85 0 -133 53.5t-48 163.5t48 164t133 54t133 -54t48 -164t-48 -163.5t-133 -53.5zM611 125q14 0 24 4t16.5 15.5t9.5 31t3 50.5t-3 51t-9.5 31t-16.5 15.5t-24 4.5q-15 0 -25 -4.5t-16.5 -15.5t-9 -31t-2.5 -51t2.5 -50.5t9 -31t16.5 -15.5t25 -4zM386 740h167
l-272 -740h-167z" />
    <glyph glyph-name="period.tab" horiz-adv-x="335" 
d="M166 -10q-56 0 -90.5 27.5t-34.5 87.5t34.5 87.5t90.5 27.5q57 0 92 -27.5t35 -87.5t-35 -87.5t-92 -27.5z" />
    <glyph glyph-name="periodcentered.tab" horiz-adv-x="335" 
d="M168 252q-66 0 -94 27.5t-28 90.5t28 90.5t94 27.5q67 0 93.5 -29t26.5 -89t-26.5 -89t-93.5 -29z" />
    <glyph glyph-name="perthousand" unicode="&#x2030;" horiz-adv-x="1755" 
d="M275 278q-117 0 -182 58t-65 178t65 178.5t182 58.5q118 0 182.5 -58.5t64.5 -178.5t-64.5 -178t-182.5 -58zM275 413q22 0 38.5 4t27 15.5t15.5 31t5 50.5t-5 51t-15.5 31t-27 15.5t-38.5 4.5q-23 0 -39.5 -4.5t-27 -15.5t-15 -31t-4.5 -51t4.5 -50.5t15 -31t27 -15.5
t39.5 -4zM972 -10q-117 0 -182 58t-65 178t65 178.5t182 58.5q118 0 182.5 -58.5t64.5 -178.5t-64.5 -178t-182.5 -58zM972 125q22 0 38.5 4t27 15.5t15.5 31t5 50.5t-5 51t-15.5 31t-27 15.5t-38.5 4.5q-23 0 -39.5 -4.5t-27 -15.5t-15 -31t-4.5 -51t4.5 -50.5t15 -31
t27 -15.5t39.5 -4zM1480 -10q-121 0 -184 60t-63 176t63 176.5t184 60.5t184 -60.5t63 -176.5t-63 -176t-184 -60zM1480 125q49 0 67.5 21.5t18.5 79.5t-18.5 80t-67.5 22q-25 0 -41.5 -5t-26.5 -17t-14 -31.5t-4 -48.5t4 -48.5t14 -31t26.5 -16.5t41.5 -5zM710 740h197
l-373 -740h-197z" />
    <glyph glyph-name="pi" unicode="&#x3c0;" horiz-adv-x="929" 
d="M221 367h-16q-32 0 -48 -11t-19 -37l-140 44q2 87 51.5 132.5t146.5 45.5l620 -1l84 -59v-114h-155v-137q0 -43 15 -58.5t57 -15.5q28 0 61 14v-169q-12 -4 -28.5 -7t-36 -5.5t-40.5 -4t-41 -1.5q-107 0 -162 49t-55 145v190h-64v-489h-230v489z" />
    <glyph glyph-name="plus" unicode="+" horiz-adv-x="532" 
d="M29 437h170v155h134v-155h170v-134h-170v-155h-134v155h-170v134z" />
    <glyph glyph-name="plus.tab" 
d="M61 437h202v155h144v-155h202v-134h-202v-155h-144v155h-202v134z" />
    <glyph glyph-name="plusminus" unicode="&#xb1;" horiz-adv-x="553" 
d="M49 491h160v155h134v-155h160v-134h-160v-145h-134v145h-160v134zM50 168h454v-134h-454v134z" />
    <glyph glyph-name="plusminus.tab" 
d="M77 491h186v155h142v-155h187v-134h-187v-145h-142v145h-186v134zM78 168h515v-134h-515v134z" />
    <glyph glyph-name="product" unicode="&#x220f;" horiz-adv-x="839" 
d="M83 740h673v-862h-230v690h-213v-690h-230v862z" />
    <glyph glyph-name="q" unicode="q" horiz-adv-x="737" 
d="M465 73q-34 -45 -79 -64t-105 -19q-125 0 -188 66.5t-63 199.5q0 72 24.5 127.5t69 92.5t107 56t139.5 19q46 0 90.5 -3t85 -7.5t75.5 -9t62 -7.5v-744h-218v293zM350 157q57 0 80 21t23 66v141q-40 8 -90 8q-33 0 -53 -4.5t-31.5 -17.5t-15 -37t-3.5 -63q0 -34 3.5 -56
t13.5 -35t27.5 -18t45.5 -5z" />
    <glyph glyph-name="question" unicode="?" horiz-adv-x="523" 
d="M153 260l-17 175q74 14 115 36.5t41 49.5q0 31 -26 41.5t-77 10.5q-40 0 -82.5 -4.5t-70.5 -9.5l-5 168q54 10 101.5 14.5t100.5 4.5q127 0 195 -51t68 -146q0 -81 -49 -133.5t-139 -68.5l-9 -86v-14h-146v13zM231 -10q-51 0 -78.5 26t-27.5 74t27.5 74t78.5 26t78.5 -26
t27.5 -74t-27.5 -74t-78.5 -26z" />
    <glyph glyph-name="questiondown" unicode="&#xbf;" horiz-adv-x="518" 
d="M368 277l17 -175q-74 -14 -115 -36.5t-41 -49.5q0 -31 26 -41.5t77 -10.5q40 0 82.5 4.5t70.5 9.5l5 -168q-54 -10 -101.5 -14.5t-100.5 -4.5q-127 0 -195 51t-68 146q0 81 49 133.5t139 68.5l9 86v14h146v-13zM290 547q51 0 78.5 -26t27.5 -74t-27.5 -74t-78.5 -26
t-78.5 26t-27.5 74t27.5 74t78.5 26z" />
    <glyph glyph-name="quotedbl" unicode="&#x22;" horiz-adv-x="510" 
d="M229 808v-4l-53 -324h-125v328h178zM483 808v-4l-53 -324h-125v328h178z" />
    <glyph glyph-name="quotesingle" unicode="'" horiz-adv-x="256" 
d="M229 808v-4l-53 -324h-125v328h178z" />
    <glyph glyph-name="quotedbl.tab" horiz-adv-x="335" 
d="M131 808v-4l-59 -324h-131v328h190zM419 808v-4l-58 -324h-131v328h189z" />
    <glyph glyph-name="quotedblbase" unicode="&#x201e;" horiz-adv-x="552" 
d="M244 150q1 -10 3 -23.5t2 -27.5q0 -30 -6 -64.5t-18.5 -70.5t-31 -72.5t-43.5 -69.5h-131q21 35 32 92t11 117q0 35 -4 62t-18 57h204zM502 150q1 -10 3 -23.5t2 -27.5q0 -30 -6 -64.5t-18.5 -70.5t-31 -72.5t-43.5 -69.5h-131q21 35 32 92t11 117q0 35 -4 62t-18 57h204
z" />
    <glyph glyph-name="quoteright" unicode="&#x2019;" horiz-adv-x="287" 
d="M255 808q1 -10 3 -23.5t2 -27.5q0 -30 -6 -64.5t-18.5 -70.5t-31 -72.5t-43.5 -69.5h-131q21 35 32 92t11 117q0 35 -4 62t-18 57h204z" />
    <glyph glyph-name="quotedblleft" unicode="&#x201c;" horiz-adv-x="548" 
d="M39 480q-1 10 -3 23.5t-2 27.5q0 30 6 64.5t18.5 70.5t31 72.5t43.5 69.5h131q-20 -35 -31.5 -92t-11.5 -117q0 -35 4 -62t18 -57h-204zM297 480q-1 10 -3 23.5t-2 27.5q0 30 6 64.5t18.5 70.5t31 72.5t43.5 69.5h131q-20 -35 -31.5 -92t-11.5 -117q0 -35 4 -62t18 -57
h-204z" />
    <glyph glyph-name="quoteleft" unicode="&#x2018;" horiz-adv-x="291" 
d="M39 480q-1 10 -3 23.5t-2 27.5q0 30 6 64.5t18.5 70.5t31 72.5t43.5 69.5h131q-20 -35 -31.5 -92t-11.5 -117q0 -35 4 -62t18 -57h-204v0z" />
    <glyph glyph-name="quotedblright" unicode="&#x201d;" horiz-adv-x="545" 
d="M255 808q1 -10 3 -23.5t2 -27.5q0 -30 -6 -64.5t-18.5 -70.5t-31 -72.5t-43.5 -69.5h-131q21 35 32 92t11 117q0 35 -4 62t-18 57h204zM513 808q1 -10 3 -23.5t2 -27.5q0 -30 -6 -64.5t-18.5 -70.5t-31 -72.5t-43.5 -69.5h-131q21 35 32 92t11 117q0 35 -4 62t-18 57h204
z" />
    <glyph glyph-name="quotesinglbase" unicode="&#x201a;" horiz-adv-x="294" 
d="M244 150q1 -10 3 -23.5t2 -27.5q0 -30 -6 -64.5t-18.5 -70.5t-31 -72.5t-43.5 -69.5h-131q21 35 32 92t11 117q0 35 -4 62t-18 57h204z" />
    <glyph glyph-name="quotesingle.tab" horiz-adv-x="335" 
d="M274 808v-4l-57 -324h-130v328h187z" />
    <glyph glyph-name="r" unicode="r" horiz-adv-x="524" 
d="M56 540h193l11 -83h4q38 35 82.5 60t85.5 33h81v-179h-77q-48 -5 -88 -16.5t-62 -28.5v-326h-230v540z" />
    <glyph glyph-name="racute" unicode="&#x155;" horiz-adv-x="524" 
d="M186 617l61 191h235l-132 -201zM56 540h193l11 -83h4q38 35 82.5 60t85.5 33h81v-179h-77q-48 -5 -88 -16.5t-62 -28.5v-326h-230v540z" />
    <glyph glyph-name="radical" unicode="&#x221a;" horiz-adv-x="774" 
d="M152 354l-97 -42l-64 156l291 116l139 -406l140 680h213l-207 -858h-275z" />
    <glyph glyph-name="rcaron" unicode="&#x159;" horiz-adv-x="524" 
d="M44 827l235 -82l235 82v-149l-238 -81l-232 81v149zM56 540h193l11 -83h4q38 35 82.5 60t85.5 33h81v-179h-77q-48 -5 -88 -16.5t-62 -28.5v-326h-230v540z" />
    <glyph glyph-name="rcommaaccent" unicode="&#x157;" horiz-adv-x="524" 
d="M51 -70h236l-104 -150h-171zM56 540h193l11 -83h4q38 35 82.5 60t85.5 33h81v-179h-77q-48 -5 -88 -16.5t-62 -28.5v-326h-230v540z" />
    <glyph glyph-name="rdblgrave" unicode="&#x211;" horiz-adv-x="524" 
d="M70 607l-133 201h231l61 -191zM322 607l-133 201h231l62 -191zM56 540h193l11 -83h4q38 35 82.5 60t85.5 33h81v-179h-77q-48 -5 -88 -16.5t-62 -28.5v-326h-230v540z" />
    <glyph glyph-name="rdotbelow" unicode="&#x1e5b;" horiz-adv-x="524" 
d="M56 540h193l11 -83h4q38 35 82.5 60t85.5 33h81v-179h-77q-48 -5 -88 -16.5t-62 -28.5v-326h-230v540zM168 -220q-50 0 -70.5 20.5t-20.5 66.5q0 47 20.5 67.5t70.5 20.5q52 0 71.5 -22t19.5 -66t-19.5 -65.5t-71.5 -21.5z" />
    <glyph glyph-name="registered" unicode="&#xae;" horiz-adv-x="694" 
d="M239 608q26 2 50.5 3.5t48.5 1.5q132 0 132 -100q0 -33 -13.5 -56t-40.5 -32l60 -122h-81l-45 99h-31v-99h-80v305zM338 462q31 0 40.5 11.5t9.5 37.5q0 20 -8.5 32.5t-33.5 12.5h-27v-94h19zM347 144q-69 0 -125.5 22t-96.5 62t-62 96t-22 124t22 124t62 96t96.5 62
t125.5 22t125.5 -22t96.5 -62t62 -96t22 -124t-22 -124t-62 -96t-96.5 -62t-125.5 -22zM347 222q52 0 93.5 16t70 45.5t43.5 71.5t15 93t-15 93t-43.5 71.5t-70 45.5t-93.5 16q-53 0 -94 -16t-69.5 -45.5t-43.5 -71.5t-15 -93t15 -93t43.5 -71.5t69.5 -45.5t94 -16z" />
    <glyph glyph-name="rinvertedbreve" unicode="&#x213;" horiz-adv-x="524" 
d="M24 621q0 40 12 75.5t41.5 62t78.5 42t124 15.5q74 0 123.5 -15t79 -41.5t41.5 -62t12 -76.5h-149q0 21 -4.5 37.5t-16.5 28t-32.5 17.5t-53.5 6q-32 0 -53 -6t-33 -17.5t-16.5 -28t-4.5 -37.5h-149zM56 540h193l11 -83h4q38 35 82.5 60t85.5 33h81v-179h-77
q-48 -5 -88 -16.5t-62 -28.5v-326h-230v540z" />
    <glyph glyph-name="s" unicode="s" horiz-adv-x="615" 
d="M298 -12q-27 0 -59.5 1.5t-67 4.5t-69.5 7t-65 9v150q77 -13 135.5 -19t112.5 -6q45 0 62.5 4.5t17.5 16.5q0 13 -18.5 19.5t-70.5 11.5q-37 3 -78 8.5t-75.5 23t-57.5 52t-23 95.5q0 88 73 137t203 49q26 0 52 -1t55 -3.5t62.5 -6.5t75.5 -10l-6 -165q-63 14 -123 22
t-98 8q-40 0 -57 -5.5t-17 -18.5q0 -7 5.5 -11.5t19 -8.5t36.5 -7t57 -6q106 -10 155.5 -50.5t49.5 -115.5q0 -185 -287 -185z" />
    <glyph glyph-name="sacute" unicode="&#x15b;" horiz-adv-x="615" 
d="M202 617l61 191h235l-132 -201zM298 -12q-27 0 -59.5 1.5t-67 4.5t-69.5 7t-65 9v150q77 -13 135.5 -19t112.5 -6q45 0 62.5 4.5t17.5 16.5q0 13 -18.5 19.5t-70.5 11.5q-37 3 -78 8.5t-75.5 23t-57.5 52t-23 95.5q0 88 73 137t203 49q26 0 52 -1t55 -3.5t62.5 -6.5
t75.5 -10l-6 -165q-63 14 -123 22t-98 8q-40 0 -57 -5.5t-17 -18.5q0 -7 5.5 -11.5t19 -8.5t36.5 -7t57 -6q106 -10 155.5 -50.5t49.5 -115.5q0 -185 -287 -185z" />
    <glyph glyph-name="scaron" unicode="&#x161;" horiz-adv-x="615" 
d="M73 827l235 -82l235 82v-149l-238 -81l-232 81v149zM298 -12q-27 0 -59.5 1.5t-67 4.5t-69.5 7t-65 9v150q77 -13 135.5 -19t112.5 -6q45 0 62.5 4.5t17.5 16.5q0 13 -18.5 19.5t-70.5 11.5q-37 3 -78 8.5t-75.5 23t-57.5 52t-23 95.5q0 88 73 137t203 49q26 0 52 -1
t55 -3.5t62.5 -6.5t75.5 -10l-6 -165q-63 14 -123 22t-98 8q-40 0 -57 -5.5t-17 -18.5q0 -7 5.5 -11.5t19 -8.5t36.5 -7t57 -6q106 -10 155.5 -50.5t49.5 -115.5q0 -185 -287 -185z" />
    <glyph glyph-name="schwa" unicode="&#x259;" horiz-adv-x="649" 
d="M308 549q311 0 311 -277q0 -281 -316 -281q-76 0 -127.5 15.5t-83 48t-45 83t-13.5 121.5q0 25 1.5 41t5.5 39h354q-3 13 -9.5 20t-19 10.5t-32 4t-47.5 0.5q-50 0 -104 -2t-121 -13l-6 159q54 14 119 22.5t133 8.5zM317 154q44 0 60 12t20 47h-164q0 -18 4 -29.5t13 -18
t25 -9t42 -2.5z" />
    <glyph glyph-name="scircumflex" unicode="&#x15d;" horiz-adv-x="615" 
d="M73 745l232 82l238 -82v-148l-235 81l-235 -81v148zM298 -12q-27 0 -59.5 1.5t-67 4.5t-69.5 7t-65 9v150q77 -13 135.5 -19t112.5 -6q45 0 62.5 4.5t17.5 16.5q0 13 -18.5 19.5t-70.5 11.5q-37 3 -78 8.5t-75.5 23t-57.5 52t-23 95.5q0 88 73 137t203 49q26 0 52 -1
t55 -3.5t62.5 -6.5t75.5 -10l-6 -165q-63 14 -123 22t-98 8q-40 0 -57 -5.5t-17 -18.5q0 -7 5.5 -11.5t19 -8.5t36.5 -7t57 -6q106 -10 155.5 -50.5t49.5 -115.5q0 -185 -287 -185z" />
    <glyph glyph-name="sdotbelow" unicode="&#x1e63;" horiz-adv-x="615" 
d="M298 -12q-27 0 -59.5 1.5t-67 4.5t-69.5 7t-65 9v150q77 -13 135.5 -19t112.5 -6q45 0 62.5 4.5t17.5 16.5q0 13 -18.5 19.5t-70.5 11.5q-37 3 -78 8.5t-75.5 23t-57.5 52t-23 95.5q0 88 73 137t203 49q26 0 52 -1t55 -3.5t62.5 -6.5t75.5 -10l-6 -165q-63 14 -123 22
t-98 8q-40 0 -57 -5.5t-17 -18.5q0 -7 5.5 -11.5t19 -8.5t36.5 -7t57 -6q106 -10 155.5 -50.5t49.5 -115.5q0 -185 -287 -185zM331 -220q-50 0 -70.5 20.5t-20.5 66.5q0 47 20.5 67.5t70.5 20.5q52 0 71.5 -22t19.5 -66t-19.5 -65.5t-71.5 -21.5z" />
    <glyph glyph-name="section" unicode="&#xa7;" horiz-adv-x="642" 
d="M310 -12q-27 0 -59.5 1.5t-67 4.5t-69.5 7t-65 9v150q77 -13 135.5 -19t112.5 -6q45 0 62.5 4.5t17.5 16.5q0 13 -18.5 19.5t-70.5 11.5q-37 3 -78 8.5t-75.5 23t-57.5 52t-23 95.5t39 106q-18 17 -28.5 42t-10.5 61q0 88 73 137t203 49q26 0 52 -1t55 -3.5t62.5 -6.5
t75.5 -10l-6 -165q-63 14 -123 22t-98 8q-40 0 -57 -5.5t-17 -18.5q0 -7 5.5 -11.5t19 -8.5t36.5 -7t57 -6q106 -10 155.5 -50.5t49.5 -115.5q0 -72 -42 -115q42 -35 42 -94q0 -185 -287 -185zM374 322q3 9 3 21q0 35 -12.5 49t-46.5 19l-40 6q-4 -12 -4 -29q0 -27 14 -39.5
t52 -20.5z" />
    <glyph glyph-name="section.tab" 
d="M323 -12q-27 0 -60 1.5t-68.5 4.5t-70.5 7t-66 9v150q78 -13 138 -19t114 -6q46 0 65 4.5t19 16.5q0 13 -20 19.5t-73 11.5q-38 3 -79.5 8.5t-77 23t-58.5 52t-23 95.5t40 106q-19 17 -29.5 42t-10.5 61q0 88 74.5 137t206.5 49q27 0 53 -1t55.5 -3.5t64 -6.5t76.5 -10
l-6 -165q-32 7 -64 12.5t-61.5 9.5t-55 6t-44.5 2q-42 0 -60 -5.5t-18 -18.5q0 -14 26 -20t96 -13q108 -10 158.5 -50.5t50.5 -115.5q0 -72 -43 -115q43 -34 43 -94q0 -185 -292 -185zM390 322q2 5 3 10t1 11q0 35 -13.5 49t-48.5 19l-43 6q-5 -15 -5 -29q0 -27 15.5 -39.5
t54.5 -20.5z" />
    <glyph glyph-name="semicolon" unicode=";" horiz-adv-x="339" 
d="M23 -145l42 362h230l-101 -372zM175 320q-56 0 -90.5 27.5t-34.5 87.5t34.5 87.5t90.5 27.5q57 0 91.5 -27.5t34.5 -87.5t-34.5 -87.5t-91.5 -27.5z" />
    <glyph glyph-name="semicolon.tab" horiz-adv-x="335" 
d="M24 -145l40 362h226l-98 -372zM172 320q-54 0 -88 27.5t-34 87.5t34 87.5t88 27.5q56 0 90 -27.5t34 -87.5t-34 -87.5t-90 -27.5z" />
    <glyph glyph-name="servicemark" unicode="&#x2120;" horiz-adv-x="1066" 
d="M229 311q-18 0 -40.5 1t-46.5 3.5t-47.5 5.5t-44.5 7v114q57 -11 97 -16t73 -5q32 0 44 3.5t12 13.5q0 12 -12.5 18.5t-44.5 10.5q-86 10 -125.5 44t-39.5 98t50.5 99.5t141.5 35.5q15 0 30 -1t33 -3t40 -5.5t52 -8.5v-114q-34 10 -72 16t-68 6q-58 0 -58 -21
q0 -14 14.5 -22t47.5 -12q83 -10 121.5 -42t38.5 -86q0 -140 -196 -140zM468 740h182l87 -241l87 241h182v-420h-126v257l-89 -242h-107l-89 242v-257h-127v420z" />
    <glyph glyph-name="seven" unicode="7" horiz-adv-x="622" 
d="M292 -28l-201 28v21l261 522h-325l-10 179l20 18h548l32 -123v-9l-272 -608z" />
    <glyph glyph-name="seven.denominator" horiz-adv-x="481" 
d="M216 -19l-122 15l-16 38l198 359h-259v123l24 24h413l22 -79v-24l-217 -438z" />
    </font>
</defs>
</svg>
