<?xml version="1.0" standalone="no"?>
<!DOCTYPE svg PUBLIC "-//W3C//DTD SVG 1.1//EN" "http://www.w3.org/Graphics/SVG/1.1/DTD/svg11.dtd" >
<svg>
<metadata>
Created by FontForge 20120731 at Fri Aug  1 16:50:34 2014
 By Alfred Xing
Copyright (c) 2010-2012 by Claus Eggers Srensen (es@forthehearts.net), with Reserved Font Name 'Playfair'.
</metadata>
<defs>
<font id="PlayfairDisplay-Italic" horiz-adv-x="340" >
  <font-face 
    font-family="Playfair Display"
    font-weight="400"
    font-style="italic"
    font-stretch="normal"
    units-per-em="1000"
    panose-1="0 0 5 0 0 0 0 0 0 0"
    ascent="800"
    descent="-200"
    x-height="520"
    cap-height="708"
    bbox="-371 -241 1101 1042"
    underline-thickness="20"
    underline-position="-80"
    slope="-14"
    stemh="20"
    stemv="23"
    unicode-range="U+000D-FB02"
  />
<missing-glyph horiz-adv-x="562" 
d="M502 772v-772h-442v772h442zM466 30v712h-370v-712h370z" />
    <glyph glyph-name="fi" unicode="fi" horiz-adv-x="579" 
d="M594 739c5 -9 9 -19 9 -31c0 -40 -36 -76 -75 -76c-29 0 -50 22 -50 50c0 4 0 10 1 14c5 30 30 56 59 62c-18 6 -38 9 -65 9c-46 0 -80 -16 -105 -32c-58 -38 -82 -108 -112 -220l-1 -1h191c33 1 66 5 91 14l-135 -443c-4 -15 -7 -27 -7 -37c0 -16 7 -25 23 -25
c27 0 49 25 78 102l14 37h19l-26 -73c-28 -78 -77 -103 -123 -103c-52 0 -70 24 -70 60c0 23 8 52 18 80l112 368h-190l-190 -668c-32 -1 -64 -5 -90 -14l194 682h-97l6 20h96c25 92 54 155 103 197c59 50 136 71 209 71c43 0 90 -11 113 -43z" />
    <glyph glyph-name="fl" unicode="fl" horiz-adv-x="587" 
d="M518 162h19l-25 -73c-26 -76 -69 -103 -120 -103c-53 0 -69 28 -69 65c0 23 7 50 14 75l163 541c3 11 5 21 5 30c0 27 -17 42 -66 42h-12c-29 0 -61 -16 -78 -26c-49 -28 -70 -96 -97 -198l-1 -1h118l-6 -20h-117l-185 -668c-32 -1 -64 -5 -90 -14l189 682h-92l6 20h91
c23 84 49 141 92 178c47 41 110 62 168 62h19c73 1 126 15 178 41l-209 -710c-4 -14 -6 -26 -6 -36c0 -17 7 -26 23 -26c26 0 48 26 75 102z" />
    <glyph glyph-name="uni00540068.liga" unicode="Th" horiz-adv-x="1148" 
d="M1099 162l-25 -73c-29 -84 -80 -103 -121 -103c-51 0 -70 23 -70 62c0 22 6 49 16 78l95 286c5 16 10 34 10 50c0 19 -7 34 -32 34c-78 0 -181 -166 -257 -408l-24 -88h-87l189 675c-39 -16 -80 -21 -135 -21c-53 0 -104 6 -153 14l-147 -552c-6 -21 -9 -38 -9 -51
c0 -35 23 -44 84 -45l-4 -20c-35 2 -92 3 -149 3s-114 -1 -146 -3l4 20c84 3 105 24 127 96l151 566c-43 6 -87 12 -129 12s-91 -3 -112 -17c10 -14 18 -38 18 -58c0 -27 -15 -58 -50 -58c-29 0 -44 20 -44 50c0 27 12 58 53 78c45 22 111 23 134 23c139 0 243 -38 379 -38
c58 0 95 5 135 24l23 83c33 1 66 5 91 14l-147 -523c80 187 150 256 238 256c60 0 80 -31 80 -75c0 -22 -5 -49 -14 -76l-97 -292c-4 -12 -8 -26 -8 -38c0 -14 5 -24 24 -24c25 0 49 22 77 102l13 37h19z" />
    <glyph glyph-name="uni00660062.liga" unicode="fb" horiz-adv-x="828" 
d="M686 528c63 0 104 -46 104 -141c0 -151 -106 -401 -293 -401c-39 0 -73 24 -84 67l-85 -69l-15 7c9 18 15 38 19 58l165 618c2 10 4 20 4 28c0 28 -16 44 -65 44c-69 0 -130 -38 -166 -161l-18 -64h117l-6 -20h-116l-186 -668c-32 -1 -64 -5 -90 -14l189 682h-92l6 20h91
l3 11c41 140 123 229 271 229c73 1 126 15 176 41l-129 -495c66 162 129 228 200 228zM496 9c113 0 208 250 208 400c0 59 -18 87 -47 87c-58 0 -146 -150 -206 -329l-27 -103c18 -41 41 -55 72 -55z" />
    <glyph glyph-name="f_f" unicode="ff" horiz-adv-x="609" 
d="M679 782c61 0 95 -31 95 -71c0 -34 -29 -69 -67 -69c-25 0 -41 12 -40 34c0 33 24 57 57 67c0 12 -20 24 -46 24c-25 0 -44 -13 -58 -26c-36 -34 -55 -127 -81 -226v-1h118l-6 -20h-118l-179 -668c-32 -1 -64 -5 -90 -14l183 682h-202l-180 -668c-32 -1 -64 -5 -90 -14
l184 682h-92l6 20h92c19 63 50 126 88 160c54 48 115 68 179 68c46 0 79 -14 102 -33c6 8 13 16 20 23c31 31 78 50 125 50zM250 514h202v1c21 79 43 137 71 179c-23 19 -53 30 -89 30c-113 0 -152 -93 -183 -209z" />
    <glyph glyph-name="uni006600660062.liga" unicode="ffb" horiz-adv-x="1122" 
d="M980 528c63 0 104 -46 104 -141c0 -151 -106 -401 -293 -401c-39 0 -73 24 -84 67l-85 -69l-15 7c9 18 15 38 19 58l165 618c2 10 4 20 4 28c0 28 -17 44 -66 44c-69 0 -129 -38 -165 -161l-18 -64h117l-6 -20h-116l-186 -668c-32 -1 -64 -5 -90 -14l189 682h-208
l-185 -668c-32 -1 -64 -5 -90 -14l189 682h-92l6 20h92c19 63 50 126 88 160c52 48 115 68 179 68c52 0 99 -23 127 -48c44 39 100 60 173 60c73 1 126 15 176 41l-129 -495c66 162 129 228 200 228zM251 514h208l3 11c19 64 45 118 84 157c-27 26 -65 42 -111 42
c-113 0 -151 -92 -183 -209zM790 9c113 0 208 250 208 400c0 59 -18 87 -47 87c-58 0 -146 -150 -206 -329l-27 -103c18 -41 41 -55 72 -55z" />
    <glyph glyph-name="uni006600660068.liga" unicode="ffh" horiz-adv-x="1145" 
d="M1077 162h19l-25 -73c-29 -84 -80 -103 -121 -103c-51 0 -70 24 -70 62c0 22 6 48 16 78l95 286c4 14 10 33 10 50c0 19 -7 34 -32 34c-78 0 -181 -166 -257 -408l-24 -88h-87l188 667c3 10 5 20 5 28c0 27 -19 44 -69 44c-70 0 -132 -37 -167 -161l-17 -64h116l-6 -20
h-116l-186 -668c-32 -1 -64 -5 -90 -14l189 682h-202l-185 -668c-32 -1 -64 -5 -90 -14l189 682h-92l6 20h92c19 63 50 125 88 160c53 50 115 68 179 68c59 0 95 -23 119 -49c44 39 102 61 175 61c73 1 134 15 184 41l-146 -521c79 185 150 254 237 254c61 0 81 -33 81 -75
c0 -23 -6 -50 -15 -76l-97 -292c-5 -15 -8 -28 -8 -38c0 -15 6 -24 24 -24c25 0 49 22 77 102zM251 514h202l3 11c18 63 44 116 82 155c-24 27 -60 44 -103 44c-113 0 -150 -90 -183 -209z" />
    <glyph glyph-name="f_f_i" unicode="ffi" horiz-adv-x="865" 
d="M880 739c5 -9 9 -19 9 -31c0 -40 -36 -76 -75 -76c-29 0 -50 22 -50 50c0 4 0 10 1 14c5 30 30 56 59 62c-18 6 -38 9 -65 9c-46 0 -80 -16 -105 -32c-58 -38 -82 -108 -112 -220v-1h190c33 1 66 5 91 14l-135 -443c-4 -15 -7 -27 -7 -37c0 -16 7 -25 23 -25
c27 0 49 25 78 102l14 37h19l-26 -73c-28 -78 -77 -103 -123 -103c-52 0 -70 24 -70 60c0 23 8 52 18 80l112 368h-190l-190 -668c-32 -1 -64 -5 -90 -14l194 682h-204l-185 -668c-32 -1 -64 -5 -90 -14l189 682h-92l6 20h92c19 63 50 126 88 160c54 48 115 68 179 68
c54 0 90 -19 113 -42c4 4 8 8 12 11c59 50 136 71 209 71c43 0 90 -11 113 -43zM251 514h204c21 75 44 131 78 172c-24 24 -58 38 -98 38c-34 0 -63 -10 -84 -24c-48 -32 -73 -87 -99 -185z" />
    <glyph glyph-name="uni00660066006A.liga" unicode="ffj" horiz-adv-x="859" 
d="M864 755c18 -8 28 -26 28 -47c0 -40 -36 -76 -75 -76c-29 0 -50 22 -50 50c0 4 0 10 1 14c5 28 27 52 53 60c-17 6 -37 10 -59 10c-128 0 -176 -106 -217 -251l-1 -1h216c33 1 66 5 91 14l-116 -413c-42 -150 -105 -260 -195 -293c-20 -7 -45 -10 -59 -10
c-31 0 -47 15 -47 39c0 29 27 61 59 61c21 0 33 -13 33 -31c0 -19 -13 -39 -28 -54c50 6 78 33 99 108l157 559h-215l-139 -494h-86l139 494h-207l-185 -668c-32 -1 -64 -5 -90 -14l189 682h-92l6 20h92c19 63 51 125 88 160c52 50 115 68 179 68c57 0 94 -22 117 -47l16 16
c55 51 134 70 204 70c49 0 79 -15 94 -26zM251 514h207c21 72 47 126 80 167c-24 27 -60 43 -103 43c-113 0 -150 -89 -183 -209z" />
    <glyph glyph-name="uni00660066006B.liga" unicode="ffk" horiz-adv-x="1125" 
d="M1042 528c43 0 59 -24 59 -53c0 -23 -15 -70 -58 -70c-28 0 -39 19 -39 40c0 19 14 45 32 62h-2c-16 0 -26 -6 -37 -14c-57 -46 -56 -176 -173 -201c76 -3 145 -30 145 -102c0 -8 -1 -17 -3 -26l-20 -100c-1 -8 -2 -15 -2 -20c0 -15 6 -21 22 -21c26 0 48 26 74 102
l12 37h19l-24 -73c-26 -80 -71 -103 -119 -103c-36 0 -65 20 -65 65c0 9 2 19 4 30l18 86c3 14 5 26 5 37c0 51 -33 75 -122 82l-80 -286h-87l188 667c3 10 5 20 5 28c0 27 -19 44 -69 44c-70 0 -132 -37 -167 -161l-17 -64h116l-6 -20h-116l-186 -668
c-32 -1 -64 -5 -90 -14l189 682h-202l-185 -668c-32 -1 -64 -5 -90 -14l189 682h-92l6 20h92c19 63 50 125 88 160c53 50 115 68 179 68c59 0 95 -23 119 -49c44 39 102 61 175 61c73 1 134 15 184 41l-140 -498c159 11 141 156 211 208c24 18 42 23 60 23zM251 514h202
l3 11c18 63 44 116 82 155c-24 27 -60 44 -103 44c-113 0 -150 -90 -183 -209z" />
    <glyph glyph-name="f_f_l" unicode="ffl" horiz-adv-x="878" 
d="M796 125l13 37h19l-25 -73c-26 -76 -69 -103 -120 -103c-53 0 -69 28 -69 65c0 23 7 50 14 75l163 541c3 11 5 21 5 30c0 27 -17 42 -66 42h-12c-29 0 -61 -16 -78 -26c-49 -28 -70 -96 -97 -198l-1 -1h118l-6 -20h-117l-185 -668c-32 -1 -64 -5 -90 -14l189 682h-205
l-185 -668c-32 -1 -64 -5 -90 -14l189 682h-92l6 20h92c19 63 50 126 88 160c54 48 115 68 179 68c58 0 95 -22 118 -48c47 40 109 60 165 60h19c73 1 126 15 178 41l-209 -710c-4 -14 -6 -26 -6 -36c0 -17 7 -26 23 -26c26 0 48 26 75 102zM251 514h205
c21 77 44 131 81 168c-24 26 -60 42 -102 42c-34 0 -63 -10 -84 -24c-48 -32 -73 -87 -99 -185z" />
    <glyph glyph-name="uni00660068.liga" unicode="fh" horiz-adv-x="857" 
d="M808 162l-25 -73c-29 -84 -80 -103 -121 -103c-51 0 -70 24 -70 62c0 22 6 48 16 78l95 286c4 14 10 33 10 50c0 19 -7 34 -32 34c-78 0 -181 -166 -257 -408l-24 -88h-87l188 667c3 10 5 20 5 28c0 27 -19 44 -69 44c-70 0 -132 -37 -167 -161l-18 -64h117l-6 -20h-116
l-186 -668c-32 -1 -64 -5 -90 -14l189 682h-92l6 20h91l3 11c39 141 123 229 271 229c73 1 134 15 184 41l-146 -521c79 185 150 254 237 254c61 0 80 -33 80 -75c0 -23 -5 -50 -14 -76l-97 -292c-5 -15 -8 -28 -8 -38c0 -15 6 -24 24 -24c25 0 49 22 77 102l13 37h19z" />
    <glyph glyph-name="uni006600EF.liga" unicode="f&#xef;" horiz-adv-x="568" 
d="M538 528l-144 -443c-5 -15 -7 -27 -7 -37c0 -17 6 -25 21 -25c29 0 52 28 78 102l13 37h19l-25 -73c-29 -84 -80 -103 -121 -103c-42 0 -58 23 -58 60c0 22 6 50 15 80l112 368h-195l-185 -668c-32 -1 -64 -5 -90 -14l189 682h-92l6 20h91c19 73 40 144 88 193
c34 34 79 54 131 54c46 0 73 -16 92 -35c7 -9 12 -20 12 -33c0 -33 -31 -66 -67 -66c-30 0 -50 22 -50 51c0 25 21 53 48 62c-10 4 -22 6 -33 6c-28 0 -53 -16 -70 -37c-31 -38 -41 -107 -64 -194l-1 -1h196c33 1 66 5 91 14zM650 743c28 0 50 -22 50 -50
c0 -33 -31 -66 -67 -66c-30 0 -50 22 -50 51c0 31 31 65 67 65z" />
    <glyph glyph-name="uni006600EC.liga" unicode="f&#xec;" horiz-adv-x="568" 
d="M499 162h19l-25 -73c-29 -84 -80 -103 -121 -103c-42 0 -58 24 -58 61c0 22 6 49 15 79l112 368h-195l-185 -668c-32 -1 -64 -5 -90 -14l189 682h-92l6 20h92c38 132 74 224 187 224c22 0 40 -4 56 -12c-18 22 -32 39 -44 58c-7 12 -11 23 -11 32c0 14 8 23 17 28
c5 2 10 3 15 3c15 0 31 -9 44 -31c26 -45 38 -102 91 -211l-13 -6c-18 25 -34 47 -49 66c-29 36 -50 51 -90 51c-72 0 -87 -92 -117 -201l-1 -1h196c33 1 66 5 91 14l-144 -443c-5 -16 -7 -28 -7 -38c0 -16 6 -24 21 -24c29 0 52 28 78 102z" />
    <glyph glyph-name="uni0066006A.liga" unicode="fj" horiz-adv-x="570" 
d="M575 755c18 -8 28 -26 28 -47c0 -40 -36 -76 -75 -76c-29 0 -50 22 -50 50c0 4 0 10 1 14c5 28 27 52 53 60c-17 6 -37 10 -59 10c-128 0 -176 -106 -217 -251l-1 -1h216c33 1 66 5 91 14l-116 -413c-42 -150 -105 -260 -195 -293c-20 -7 -45 -10 -59 -10
c-31 0 -47 15 -47 39c0 29 27 61 59 61c21 0 33 -13 33 -31c0 -19 -13 -39 -28 -54c50 6 78 33 99 108l157 559h-215l-139 -494h-86l139 494h-97l6 20h96c26 92 61 154 108 197c55 51 134 70 204 70c49 0 79 -15 94 -26z" />
    <glyph glyph-name="uni0066006B.liga" unicode="fk" horiz-adv-x="836" 
d="M754 528c43 0 59 -24 59 -53c0 -23 -15 -70 -58 -70c-28 0 -39 19 -39 40c0 19 14 45 32 62h-2c-16 0 -26 -6 -37 -14c-57 -46 -56 -176 -173 -201c76 -3 145 -30 145 -102c0 -8 -1 -17 -3 -26l-20 -100c-1 -8 -2 -15 -2 -20c0 -15 6 -21 22 -21c26 0 48 26 74 102l12 37
h19l-24 -73c-26 -80 -71 -103 -119 -103c-36 0 -65 20 -65 65c0 9 2 19 4 30l18 86c3 14 5 26 5 37c0 51 -33 75 -122 82l-80 -286h-87l188 667c3 10 5 20 5 28c0 27 -19 44 -69 44c-70 0 -132 -37 -167 -161l-18 -64h117l-6 -20h-116l-186 -668c-32 -1 -64 -5 -90 -14
l189 682h-92l6 20h91l3 11c39 141 123 229 271 229c73 1 134 15 184 41l-140 -498c159 11 141 156 211 208c24 18 42 23 60 23z" />
    <glyph glyph-name=".notdef" horiz-adv-x="562" 
d="M502 772v-772h-442v772h442zM466 30v712h-370v-712h370z" />
    <glyph glyph-name="CR" unicode="&#xd;" horiz-adv-x="0" 
 />
    <glyph glyph-name="space" unicode=" " horiz-adv-x="252" 
 />
    <glyph glyph-name="exclam" unicode="!" horiz-adv-x="263" 
d="M112 196l-18 3c55 212 76 429 107 544c7 25 24 39 45 39c32 0 46 -18 46 -40c0 -7 -2 -15 -4 -22c-30 -106 -121 -311 -176 -524zM6 37c0 41 37 77 75 77c31 0 51 -23 51 -52c0 -40 -36 -76 -75 -76c-30 0 -51 22 -51 51z" />
    <glyph glyph-name="quotedbl" unicode="&#x22;" horiz-adv-x="295" 
d="M233 697c0 -45 -39 -85 -79 -179h-14c13 98 10 128 20 170c7 30 25 42 42 42c22 0 31 -14 31 -33zM342 697c0 -45 -39 -85 -79 -179h-14c13 98 10 128 20 170c7 30 25 42 42 42c22 0 31 -14 31 -33z" />
    <glyph glyph-name="numbersign" unicode="#" horiz-adv-x="639" 
d="M481 434l-77 -167h143l-10 -20h-142l-68 -146h-24l68 146h-163l-68 -146h-24l68 146h-147l9 20h147l78 167h-147l8 20h148l68 148h24l-68 -148h163l68 148h24l-68 -148h142l-8 -20h-144zM458 434h-164l-77 -167h163z" />
    <glyph glyph-name="dollar" unicode="$" horiz-adv-x="550" 
d="M518 664c22 -17 52 -59 52 -105c0 -41 -22 -79 -60 -79c-36 0 -51 32 -51 65c0 44 21 78 39 106c-14 15 -34 28 -58 37l-86 -313c60 -56 115 -115 115 -193c0 -126 -115 -186 -223 -195l-33 -119h-22l33 118h-8c-28 0 -52 4 -72 9l-35 -127h-22l37 133
c-33 12 -54 30 -71 43c-27 21 -52 59 -52 105c0 41 22 79 60 79c36 0 51 -32 51 -65c0 -44 -21 -78 -39 -106c14 -15 33 -27 56 -36l92 330c-47 47 -86 99 -86 176c0 117 91 182 189 193l33 120h22l-33 -118h9c28 0 51 -3 71 -8l35 126h22l-37 -132c33 -12 55 -30 72 -44z
M336 391l84 303c-20 5 -41 9 -64 9h-15l-69 -249c19 -21 42 -42 64 -63zM216 576c0 -38 15 -71 39 -102l63 226c-60 -11 -102 -51 -102 -124zM219 6h10l74 265c-20 21 -43 42 -65 63l-89 -319c21 -5 45 -9 70 -9zM366 131c0 48 -20 86 -47 120l-68 -243c69 9 115 47 115 123
z" />
    <glyph glyph-name="percent" unicode="%" horiz-adv-x="766" 
d="M839 811l-833 -866l-15 13l833 866zM112 534c0 105 88 227 207 227c70 0 111 -38 111 -104c0 -105 -87 -227 -206 -227c-70 0 -112 37 -112 104zM311 743c-86 0 -132 -157 -132 -228c0 -44 18 -67 52 -67c86 0 132 157 132 229c0 44 -19 66 -52 66zM376 90
c0 105 88 227 207 227c70 0 111 -38 111 -104c0 -105 -87 -227 -206 -227c-70 0 -112 37 -112 104zM575 299c-86 0 -132 -157 -132 -228c0 -44 18 -67 52 -67c86 0 132 157 132 229c0 44 -19 66 -52 66z" />
    <glyph glyph-name="ampersand" unicode="&#x26;" horiz-adv-x="816" 
d="M743 722c73 0 125 -34 125 -114c0 -67 -36 -118 -122 -161c-39 -19 -100 -42 -160 -64c46 -39 73 -88 73 -150c0 -131 -121 -247 -333 -247c-176 0 -288 79 -288 211c0 120 93 217 215 251c-46 25 -70 68 -70 112c0 92 108 142 198 142c75 0 123 -35 123 -87
c0 -51 -45 -75 -85 -75l2 18c36 0 62 20 62 55c0 45 -42 73 -97 73c-82 0 -141 -63 -141 -149c0 -27 6 -56 22 -83c24 4 51 6 63 6c23 0 36 -7 36 -21c0 -15 -16 -21 -31 -21c-25 0 -55 15 -69 22c-91 -27 -153 -106 -153 -197c0 -120 106 -183 251 -183
c155 0 275 73 275 186c0 45 -20 97 -67 131c-47 -18 -93 -34 -127 -47c-41 -16 -105 -44 -105 -99c0 -43 40 -67 85 -67c61 0 93 45 102 59l13 -9c-18 -30 -51 -66 -119 -66c-54 0 -108 23 -108 98c0 82 64 127 166 165c48 18 184 63 259 99c59 28 103 61 103 111
c0 49 -43 86 -99 86c-16 0 -28 -3 -32 -9c14 -8 21 -23 21 -38c0 -31 -32 -57 -66 -57c-26 0 -45 15 -45 42c0 29 23 51 50 63c23 10 48 14 73 14z" />
    <glyph glyph-name="quotesingle" unicode="'" horiz-adv-x="187" 
d="M233 697c0 -45 -39 -85 -79 -179h-14c13 98 10 128 20 170c7 30 25 42 42 42c22 0 31 -14 31 -33z" />
    <glyph glyph-name="parenleft" unicode="(" horiz-adv-x="360" 
d="M225 -169l-18 -13c-102 115 -169 229 -169 405c0 223 187 445 433 583l10 -13c-220 -148 -366 -329 -366 -581c0 -144 34 -274 110 -381z" />
    <glyph glyph-name="parenright" unicode=")" horiz-adv-x="360" 
d="M145 793l18 13c102 -115 169 -229 169 -405c0 -223 -187 -445 -433 -583l-10 13c220 148 366 329 366 581c0 144 -34 274 -110 381z" />
    <glyph glyph-name="asterisk" unicode="*" horiz-adv-x="495" 
d="M510 623c1 -3 2 -6 2 -9c0 -15 -13 -33 -43 -49c-38 -19 -83 -25 -159 -46c62 -21 112 -29 139 -47c18 -11 24 -23 24 -35c0 -9 -3 -18 -9 -25c-6 -9 -17 -16 -31 -16c-10 0 -21 4 -33 12c-28 18 -49 53 -91 102c1 -47 4 -85 4 -115c0 -12 -1 -24 -2 -34
c-10 -40 -32 -54 -51 -54c-13 0 -26 8 -26 32c0 6 1 14 3 22c6 38 32 80 67 154h-1c-62 -50 -103 -89 -138 -108c-16 -8 -29 -11 -39 -11c-15 0 -24 7 -27 17c-1 3 -2 6 -2 9c0 14 12 32 43 49c38 19 83 25 158 46c-62 21 -112 29 -138 47c-18 11 -24 24 -24 36
c0 9 3 17 9 24c6 9 17 16 31 16c10 0 21 -4 33 -12c29 -19 51 -56 95 -107c-3 48 -8 86 -8 117c0 14 1 26 3 37c9 40 31 54 49 54c14 0 27 -9 27 -33c0 -6 -1 -13 -3 -21c-6 -37 -30 -81 -62 -152c60 48 100 87 134 106c16 8 29 11 39 11c15 0 24 -7 27 -17z" />
    <glyph glyph-name="plus" unicode="+" horiz-adv-x="584" 
d="M296 370l67 236h36l-67 -236h232l-9 -30h-232l-67 -235h-36l67 235h-233l9 30h233z" />
    <glyph glyph-name="comma" unicode="," horiz-adv-x="251" 
d="M129 55c0 -69 -55 -144 -147 -189l-5 14c63 38 102 86 106 131c-16 -14 -34 -25 -52 -25c-24 0 -38 14 -38 35c0 43 46 93 92 93c31 0 44 -29 44 -59z" />
    <glyph glyph-name="hyphen" unicode="-" horiz-adv-x="503" 
d="M429 283l-15 -58h-361l15 58h361z" />
    <glyph glyph-name="period" unicode="." horiz-adv-x="244" 
d="M-1 37c0 41 36 77 74 77c31 0 51 -23 51 -52c0 -40 -36 -76 -75 -76c-30 0 -50 22 -50 51z" />
    <glyph glyph-name="slash" unicode="/" horiz-adv-x="467" 
d="M508 722h33l-548 -736h-33z" />
    <glyph glyph-name="zero" unicode="0" horiz-adv-x="564" 
d="M356 529c103 0 157 -66 157 -177c0 -180 -144 -366 -318 -366c-101 0 -164 62 -164 178c0 180 152 365 325 365zM337 511c-110 0 -214 -172 -214 -356c0 -113 39 -151 91 -151c116 0 207 186 207 363c0 108 -34 144 -84 144z" />
    <glyph glyph-name="one" unicode="1" horiz-adv-x="341" 
d="M159 0h-87l128 433c-37 -21 -81 -40 -150 -61l3 21c125 38 187 89 241 133h20z" />
    <glyph glyph-name="two" unicode="2" horiz-adv-x="502" 
d="M304 528c81 0 135 -35 135 -99c0 -136 -254 -274 -336 -342c56 0 153 -28 212 -28c45 0 69 16 69 48c0 26 -16 44 -44 57l13 13c34 -16 55 -40 55 -79c0 -52 -36 -104 -125 -104c-67 0 -118 30 -197 30c-42 0 -70 -8 -107 -24l5 21c100 78 364 229 364 397
c0 53 -26 88 -77 88c-73 0 -171 -81 -171 -161c0 -32 16 -48 58 -48c37 0 61 14 92 41l12 -14c-37 -35 -78 -48 -111 -48s-75 12 -75 68c0 88 103 184 228 184z" />
    <glyph glyph-name="three" unicode="3" horiz-adv-x="484" 
d="M303 531c81 0 135 -35 135 -99c0 -91 -118 -159 -207 -182c89 -2 160 -40 160 -114c0 -184 -286 -284 -471 -287l5 18c159 10 373 101 373 276c0 53 -31 88 -85 91c-22 -9 -41 -17 -58 -17c-9 0 -18 2 -18 10c0 1 1 3 1 5c3 15 23 18 48 18h19c78 30 147 94 147 169
c0 56 -31 90 -82 90c-69 0 -161 -66 -161 -131c0 -32 16 -48 58 -48c24 0 43 5 62 15l11 -15c-28 -15 -56 -21 -80 -21c-33 0 -75 12 -75 68c0 73 98 154 218 154z" />
    <glyph glyph-name="four" unicode="4" horiz-adv-x="515" 
d="M418 34h-133l-47 -175h-87l47 175h-249l6 21l436 474h26l-117 -438h134zM213 91l81 306l-280 -306h199z" />
    <glyph glyph-name="five" unicode="5" horiz-adv-x="458" 
d="M427 538l12 -7c-31 -67 -76 -110 -137 -110c-36 0 -74 36 -105 36c-2 0 -4 -1 -6 -1l-112 -229c40 21 82 34 140 34c107 0 153 -49 153 -114c0 -197 -281 -289 -453 -295l5 18c153 1 353 96 353 275c0 51 -31 86 -105 86c-24 0 -59 -3 -111 -27l-10 5l150 309
c54 3 74 -25 143 -25c33 0 63 11 83 45z" />
    <glyph glyph-name="six" unicode="6" horiz-adv-x="526" 
d="M524 722l6 -20c-189 -45 -403 -282 -403 -565c0 -103 28 -131 72 -131c113 0 180 185 180 302c0 71 -25 101 -65 101c-39 0 -85 -29 -118 -122l-16 6c36 113 108 145 167 145c75 0 126 -53 126 -150c0 -157 -134 -302 -290 -302c-101 0 -147 61 -147 179
c0 304 308 523 488 557z" />
    <glyph glyph-name="seven" unicode="7" horiz-adv-x="486" 
d="M515 514h26c-106 -142 -288 -295 -351 -532c-9 -32 -12 -58 -17 -79c-8 -27 -30 -51 -62 -51c-23 0 -31 13 -31 34c0 7 1 14 2 22c31 178 289 427 398 561c-45 -31 -98 -43 -147 -43c-78 0 -115 29 -174 29c-50 0 -86 -22 -86 -67c0 -56 44 -92 139 -115l-6 -15
c-94 18 -157 59 -157 141c0 57 42 121 141 121c91 0 146 -50 232 -50c38 0 68 10 93 44z" />
    <glyph glyph-name="eight" unicode="8" horiz-adv-x="543" 
d="M537 616c0 -99 -110 -173 -198 -220c58 -55 119 -113 119 -203c0 -127 -122 -207 -271 -207c-102 0 -177 38 -177 129c0 119 129 207 240 255c-48 47 -93 95 -93 168c0 112 121 184 239 184c80 0 141 -33 141 -106zM328 407c67 45 128 127 128 212c0 56 -26 85 -78 85
c-75 0 -138 -59 -138 -144c0 -62 42 -108 88 -153zM369 172c0 83 -54 135 -108 187c-95 -52 -163 -150 -163 -253c0 -60 24 -102 98 -102c89 0 173 61 173 168z" />
    <glyph glyph-name="nine" unicode="9" horiz-adv-x="513" 
d="M319 528c101 0 147 -61 147 -179c0 -294 -302 -505 -478 -537l-6 20c184 43 393 272 393 545c0 103 -28 131 -72 131c-113 0 -180 -185 -180 -302c0 -71 25 -101 65 -101c39 0 85 29 118 122l16 -6c-36 -113 -108 -145 -167 -145c-75 0 -126 53 -126 150
c0 157 134 302 290 302z" />
    <glyph glyph-name="colon" unicode=":" horiz-adv-x="277" 
d="M116 451c0 41 36 77 74 77c31 0 51 -23 51 -52c0 -40 -36 -76 -75 -76c-30 0 -50 22 -50 51zM16 37c0 41 36 77 74 77c31 0 51 -23 51 -52c0 -40 -36 -76 -75 -76c-30 0 -50 22 -50 51z" />
    <glyph glyph-name="semicolon" unicode=";" horiz-adv-x="287" 
d="M117 451c0 41 36 77 74 77c31 0 51 -23 51 -52c0 -40 -36 -76 -75 -76c-30 0 -50 22 -50 51zM149 55c0 -69 -55 -144 -147 -189l-5 14c63 38 102 86 106 131c-16 -14 -34 -25 -52 -25c-24 0 -38 14 -38 35c0 43 46 93 92 93c31 0 44 -29 44 -59z" />
    <glyph glyph-name="less" unicode="&#x3c;" horiz-adv-x="602" 
d="M613 553l-487 -202l331 -174l-16 -32l-390 210l552 227z" />
    <glyph glyph-name="equal" unicode="=" horiz-adv-x="663" 
d="M119 440h501l-9 -30h-501zM79 300h501l-9 -30h-501z" />
    <glyph glyph-name="greater" unicode="&#x3e;" horiz-adv-x="602" 
d="M52 184l460 192l-370 198l16 29l429 -231l-525 -217z" />
    <glyph glyph-name="question" unicode="?" horiz-adv-x="437" 
d="M311 765c-38 0 -93 -15 -104 -49c11 -3 25 -19 25 -40c0 -29 -24 -49 -53 -49c-27 0 -40 17 -40 42c0 67 96 113 188 113c87 0 148 -41 148 -118c0 -62 -40 -121 -165 -218c-105 -81 -161 -108 -161 -172c0 -37 19 -69 71 -69c37 0 82 16 96 44c-12 1 -27 17 -26 35
c0 20 18 41 45 41c18 0 34 -9 34 -35c0 -63 -95 -102 -168 -102c-68 0 -115 33 -115 97c0 86 85 139 186 215c92 70 130 108 130 171c0 54 -28 94 -91 94zM106 37c0 41 37 77 75 77c31 0 51 -23 51 -52c0 -40 -36 -76 -75 -76c-30 0 -51 22 -51 51z" />
    <glyph glyph-name="at" unicode="@" horiz-adv-x="848" 
d="M534 26c-58 0 -72 31 -72 65c0 20 5 39 9 55c-39 -81 -83 -120 -148 -120c-76 0 -103 53 -103 121c0 152 136 331 260 331c39 0 63 -18 66 -65l14 51c31 0 64 3 90 14l-106 -367c-4 -14 -6 -25 -6 -34c0 -19 9 -26 29 -26c67 0 237 122 237 343c0 185 -134 256 -291 256
c-245 0 -464 -234 -464 -505c0 -206 128 -288 300 -288c72 0 141 15 206 54l7 -13c-50 -35 -125 -59 -214 -59c-186 0 -319 92 -319 304c0 269 214 525 483 525c174 0 312 -80 312 -275c0 -225 -173 -367 -290 -367zM357 56c51 0 97 73 148 211l33 118c0 51 -20 70 -54 70
c-97 0 -179 -162 -179 -302c0 -66 18 -97 52 -97z" />
    <glyph glyph-name="A" unicode="A" horiz-adv-x="628" 
d="M464 713l40 -629c4 -48 29 -63 49 -64l-4 -20c-27 2 -71 3 -109 3c-48 0 -94 -1 -120 -3l4 20c64 3 89 16 86 84l-9 164h-246l-75 -106c-32 -45 -47 -78 -47 -100c0 -29 27 -41 74 -42l-5 -20c-37 2 -79 3 -114 3c-34 0 -54 -1 -75 -3l5 20c27 6 59 29 100 87l431 606h15
zM400 288l-17 302l-214 -302h231z" />
    <glyph glyph-name="B" unicode="B" horiz-adv-x="631" 
d="M395 374c122 -20 164 -85 164 -163c0 -143 -154 -211 -298 -211c-51 0 -103 3 -172 3c-47 0 -94 -1 -122 -3l4 20c68 3 84 13 103 86l132 496c5 20 8 35 8 48c0 25 -15 38 -67 38l5 20c27 -2 75 -3 119 -3c46 0 91 2 141 2c127 0 188 -51 188 -128
c0 -103 -103 -173 -205 -205zM238 376h66c121 0 197 93 197 196c0 78 -32 116 -108 116c-59 0 -76 -13 -91 -71zM218 23c175 0 241 74 241 203c0 84 -43 133 -143 133h-82l-67 -253c-5 -21 -9 -37 -9 -49c0 -24 15 -34 60 -34z" />
    <glyph glyph-name="C" unicode="C" horiz-adv-x="669" 
d="M691 708h21c-20 -52 -41 -123 -64 -230h-22c4 26 6 48 6 68c0 33 -6 59 -16 80c-25 50 -76 78 -131 78c-173 0 -334 -281 -334 -504c0 -131 55 -196 143 -196c56 0 128 27 178 78c36 36 58 80 90 158h22c-33 -121 -50 -189 -59 -240h-22c2 14 3 25 3 34
c0 18 -4 26 -12 26c-5 0 -12 -3 -21 -9c-55 -36 -101 -65 -189 -65c-147 0 -233 80 -233 235c0 227 184 501 436 501c86 0 118 -32 149 -65c5 -5 10 -9 15 -9c12 0 24 18 40 60z" />
    <glyph glyph-name="D" unicode="D" horiz-adv-x="725" 
d="M704 487c0 -250 -199 -487 -474 -487c-30 0 -97 3 -140 3c-47 0 -94 -1 -120 -3l3 20c64 3 81 13 100 86l131 496c5 21 9 37 9 49c0 26 -16 36 -67 37l3 20c23 -1 61 -3 98 -3h24c46 1 113 3 151 3c189 0 282 -77 282 -221zM218 18c257 0 390 234 390 494
c0 119 -62 178 -214 178c-61 0 -79 -17 -97 -86l-131 -500c-5 -20 -9 -36 -9 -49c0 -25 15 -37 61 -37z" />
    <glyph glyph-name="E" unicode="E" horiz-adv-x="609" 
d="M443 705c58 0 140 0 199 3c-17 -47 -32 -95 -38 -118c-7 -24 -12 -47 -14 -62h-23c5 33 9 59 9 80c0 56 -24 77 -101 77h-73c-68 0 -83 -10 -103 -83l-63 -236h66c87 0 107 84 128 132h23c-25 -76 -32 -109 -41 -142s-17 -66 -32 -142h-23c3 23 8 47 8 68
c0 37 -14 64 -69 64h-66l-64 -240c-6 -21 -9 -36 -9 -48c0 -29 20 -35 68 -35h73c125 0 162 45 211 177h23c-7 -18 -15 -44 -22 -72c-7 -25 -19 -77 -27 -128c-68 3 -162 3 -229 3c-60 0 -192 0 -289 -3l5 20c68 3 83 13 103 86l133 496c6 21 9 37 9 49c0 29 -19 35 -67 37
l5 20c98 -3 230 -3 290 -3z" />
    <glyph glyph-name="F" unicode="F" horiz-adv-x="565" 
d="M443 705c58 0 140 0 199 3c-18 -51 -34 -103 -41 -128c-9 -32 -15 -61 -19 -82h-23c7 41 11 74 11 100c0 63 -27 87 -115 87h-53c-68 0 -83 -10 -103 -83l-66 -246h73c87 0 108 84 128 132h23c-25 -76 -32 -109 -41 -142c-8 -33 -16 -66 -32 -142h-23c3 24 8 48 8 69
c0 36 -13 63 -68 63h-73l-62 -230c-5 -19 -8 -33 -8 -44c0 -33 24 -40 86 -42l-5 -20c-35 2 -93 3 -147 3c-52 0 -99 -1 -127 -3l5 20c68 3 83 13 103 86l133 496c6 21 9 37 9 49c0 29 -19 35 -67 37l5 20c98 -3 230 -3 290 -3z" />
    <glyph glyph-name="G" unicode="G" horiz-adv-x="705" 
d="M316 6c48 0 90 17 114 31c29 17 39 38 46 63l23 88c6 22 9 39 9 52c0 35 -23 42 -84 44l5 20c35 -2 95 -3 140 -3c44 0 81 1 105 3l-5 -20c-45 -3 -54 -12 -74 -86l-53 -198h-20c1 8 3 17 3 26c0 16 -4 31 -15 31c-8 0 -14 -2 -38 -17c-52 -33 -105 -54 -170 -54
c-164 0 -252 83 -252 229c0 226 177 507 438 507c87 0 127 -29 164 -65c6 -6 11 -9 17 -9c13 0 25 18 40 60h22c-20 -52 -41 -123 -64 -230h-22c3 26 5 51 5 75c0 28 -3 52 -14 73c-28 49 -87 78 -154 78c-222 0 -339 -335 -339 -522c0 -120 56 -176 173 -176z" />
    <glyph glyph-name="H" unicode="H" horiz-adv-x="754" 
d="M691 705c52 0 100 1 129 3l-5 -20c-69 -3 -84 -13 -103 -86l-132 -496c-5 -21 -9 -37 -9 -49c0 -29 19 -35 68 -37l-4 -20c-28 2 -76 3 -128 3c-46 0 -96 -1 -127 -3l4 20c68 3 84 13 103 86l64 240h-321l-64 -240c-5 -21 -8 -36 -8 -48c0 -30 19 -36 67 -38l-4 -20
c-31 2 -81 3 -127 3c-52 0 -98 -1 -127 -3l5 20c66 3 82 13 101 86l132 496c5 21 8 36 8 48c0 30 -19 36 -67 38l5 20c27 -2 75 -3 127 -3c46 0 96 1 128 3l-5 -20c-69 -3 -84 -13 -103 -86l-63 -236h321l63 236c6 21 9 36 9 48c0 30 -20 36 -68 38l5 20c30 -2 80 -3 126 -3
z" />
    <glyph glyph-name="I" unicode="I" 
d="M298 602l-132 -496c-5 -21 -8 -36 -8 -48c0 -30 19 -36 67 -38l-4 -20c-31 2 -81 3 -127 3c-52 0 -98 -1 -127 -3l5 20c66 3 82 13 101 86l132 496c5 21 8 36 8 48c0 30 -19 36 -67 38l5 20c27 -2 75 -3 127 -3c46 0 96 1 128 3l-5 -20c-69 -3 -84 -13 -103 -86z" />
    <glyph glyph-name="J" unicode="J" horiz-adv-x="636" 
d="M737 730c4 -3 6 -8 6 -12c0 -14 -20 -32 -73 -52c-99 -66 -166 -172 -208 -300h99l-3 -20h-102c-4 -13 -8 -26 -11 -39l-62 -242c-35 -136 -110 -253 -236 -253c-60 0 -102 18 -102 57c0 28 22 57 55 57c24 0 42 -19 42 -42s-19 -41 -40 -51c9 -3 21 -5 35 -5
c110 0 134 159 175 317l30 117c8 30 17 58 28 84h-133l3 20h138c61 133 161 215 275 297c-64 -33 -133 -60 -198 -60c-97 0 -148 56 -246 56c-45 0 -67 -25 -65 -66c1 -40 28 -64 74 -73l-3 -20c-52 9 -108 39 -110 116c-3 71 41 123 116 123c110 0 156 -107 263 -107
c68 0 112 18 177 45c22 34 44 58 62 58c5 0 10 -2 14 -5z" />
    <glyph glyph-name="K" unicode="K" horiz-adv-x="674" 
d="M648 722c43 0 59 -25 59 -54c0 -23 -15 -69 -58 -69c-28 0 -39 20 -39 40s14 45 32 62h-3c-17 -1 -26 -6 -36 -14c-72 -65 -65 -297 -234 -317c62 -14 105 -33 105 -148c0 -5 -1 -11 -1 -17l-4 -113v-12c0 -23 5 -39 30 -39c34 0 55 24 74 78l17 51h20l-26 -77
c-25 -74 -65 -107 -122 -107c-58 0 -85 35 -85 99c0 5 1 11 1 17l7 113c1 14 1 26 1 38c0 63 -13 85 -36 105c-26 -7 -45 -9 -58 -9c-23 0 -31 8 -31 20s8 20 30 20c14 0 34 -3 61 -10c173 21 155 252 236 320c23 18 42 23 60 23zM298 602l-132 -496c-5 -21 -8 -36 -8 -48
c0 -30 19 -36 67 -38l-4 -20c-31 2 -81 3 -127 3c-52 0 -98 -1 -127 -3l5 20c66 3 82 13 101 86l132 496c5 21 8 36 8 48c0 30 -19 36 -67 38l5 20c27 -2 75 -3 127 -3c46 0 96 1 128 3l-5 -20c-69 -3 -84 -13 -103 -86z" />
    <glyph glyph-name="L" unicode="L" horiz-adv-x="585" 
d="M512 210h23c-8 -21 -16 -50 -25 -82c-7 -25 -19 -77 -27 -128c-68 3 -162 3 -229 3c-60 0 -192 0 -289 -3l5 20c68 3 83 13 103 86l133 496c6 21 9 37 9 49c0 29 -19 35 -67 37l5 20c28 -2 76 -3 128 -3c46 0 96 1 127 3l-5 -20c-69 -3 -84 -13 -104 -86l-133 -496
c-6 -21 -9 -36 -9 -48c0 -29 20 -35 68 -35h73c125 0 163 48 214 187z" />
    <glyph glyph-name="M" unicode="M" horiz-adv-x="868" 
d="M760 705h48c46 0 93 1 125 3l-5 -20c-69 -3 -84 -13 -103 -86l-132 -496c-5 -21 -8 -36 -8 -48c0 -30 19 -36 67 -38l-4 -20c-31 2 -78 3 -124 3c-52 0 -102 -1 -130 -3l4 20c69 3 84 13 103 86l145 539l-415 -650h-22l-68 658l-142 -537c-5 -21 -9 -37 -9 -50
c0 -33 21 -44 76 -46l-5 -20c-23 2 -67 3 -101 3s-71 -1 -94 -3l5 20c69 3 86 23 105 96l130 486c5 21 8 36 8 48c0 30 -19 36 -67 38l5 20c21 -2 54 -3 89 -3c30 0 65 1 88 3l55 -593z" />
    <glyph glyph-name="N" unicode="N" horiz-adv-x="770" 
d="M812 754c46 0 60 -24 60 -51c0 -33 -20 -72 -59 -72c-30 0 -38 22 -38 39c0 23 15 47 32 63h-3c-37 -1 -62 -21 -82 -51c-61 -91 -123 -318 -201 -687h-22l-228 644c-52 -267 -117 -571 -176 -650c-24 -32 -54 -63 -107 -63c-47 0 -60 24 -60 52c0 33 20 71 59 71
c30 0 38 -22 38 -39c0 -23 -15 -47 -32 -63h3c36 1 63 20 83 52c55 85 109 321 168 625c1 9 2 16 2 22c0 33 -19 40 -77 42l5 20c21 -2 54 -3 89 -3c30 0 58 1 81 3l189 -553c46 206 105 444 168 535c25 36 59 64 108 64z" />
    <glyph glyph-name="O" unicode="O" horiz-adv-x="729" 
d="M54 226c0 221 165 496 417 496c148 0 236 -87 236 -241c0 -220 -167 -495 -418 -495c-148 0 -235 87 -235 240zM462 704c-155 0 -302 -250 -302 -491c0 -131 57 -209 138 -209c155 0 302 250 302 491c0 131 -57 209 -138 209z" />
    <glyph glyph-name="P" unicode="P" horiz-adv-x="588" 
d="M421 707c134 0 199 -60 199 -151c0 -157 -153 -272 -377 -272h-30l-47 -178c-5 -21 -10 -37 -10 -50c0 -24 16 -35 69 -36l-4 -20c-31 2 -78 3 -124 3c-52 0 -102 -1 -130 -3l4 20c68 3 84 13 103 86l132 496c5 20 9 35 9 48c0 27 -17 38 -68 38l5 20c27 -2 79 -3 123 -3
c48 0 96 2 146 2zM219 304h34c198 0 266 119 266 268c0 78 -37 116 -127 116c-59 0 -76 -18 -94 -86z" />
    <glyph glyph-name="Q" unicode="Q" horiz-adv-x="780" 
d="M647 50c29 0 50 -21 50 -57c0 -91 -137 -181 -256 -181c-105 0 -177 71 -239 136c-54 -19 -103 -30 -143 -30c-66 0 -104 28 -104 74c0 53 52 89 122 89c76 0 129 -42 187 -88c194 98 384 314 384 516c0 116 -60 195 -171 195c-154 0 -254 -152 -254 -295
c0 -100 49 -143 114 -143c92 0 157 87 157 158c0 13 -2 31 -7 40c-14 -28 -45 -45 -74 -45c-30 0 -47 20 -47 47c0 35 29 61 69 61c48 0 79 -39 79 -98c0 -99 -88 -186 -215 -186c-115 0 -178 72 -178 175c0 177 186 304 373 304c160 0 258 -78 258 -207
c0 -214 -254 -431 -473 -535c63 -50 134 -100 245 -100c61 0 112 15 144 68c-10 -4 -21 -6 -31 -6c-31 0 -49 21 -49 48c0 31 25 60 59 60zM70 -65c36 0 78 9 120 25c-50 52 -93 99 -143 99c-36 0 -73 -24 -73 -65c0 -42 37 -59 96 -59z" />
    <glyph glyph-name="R" unicode="R" horiz-adv-x="664" 
d="M592 121h23l-4 -13c-23 -81 -56 -122 -119 -122c-62 0 -91 42 -91 87c0 3 1 6 1 9l8 112c1 11 2 21 2 31c0 81 -35 110 -185 111l-61 -230c-5 -20 -9 -36 -9 -49c0 -26 16 -37 68 -37l-4 -20c-31 2 -78 3 -124 3c-52 0 -102 -1 -130 -3l4 20c68 3 84 13 103 86l132 496
c5 20 9 35 9 47c0 28 -17 39 -68 39l5 20c27 -2 79 -3 123 -3c48 0 96 2 146 2c134 0 199 -56 199 -141c0 -110 -102 -196 -261 -222c13 -1 24 -3 35 -5c73 -14 111 -38 111 -111c0 -7 -1 -14 -1 -21l-8 -102c0 -7 -1 -14 -1 -21c0 -33 7 -61 32 -61c24 0 41 31 60 84z
M232 356h31c191 0 256 96 256 216c0 78 -37 116 -127 116c-59 0 -76 -18 -94 -86z" />
    <glyph glyph-name="S" unicode="S" horiz-adv-x="554" 
d="M556 715h20c-14 -35 -38 -99 -59 -204h-20c4 19 6 39 6 57c0 73 -41 135 -142 135c-80 0 -140 -40 -140 -127c0 -151 253 -228 253 -394c0 -138 -137 -196 -253 -196c-80 0 -118 27 -142 46c-15 12 -28 15 -36 15c-17 0 -26 -18 -41 -54h-20c18 43 38 101 68 240h20
c-5 -28 -10 -53 -9 -81c4 -91 53 -146 163 -146c87 0 147 38 147 125c0 168 -231 211 -231 396c0 129 111 195 220 195c56 0 92 -13 130 -42c16 -12 26 -18 33 -18c11 0 20 16 33 53z" />
    <glyph glyph-name="T" unicode="T" horiz-adv-x="659" 
d="M768 817c31 0 45 -22 45 -48c0 -31 -21 -56 -47 -72c-34 -21 -86 -33 -158 -33c-35 0 -69 3 -103 7l-147 -555c-6 -21 -9 -38 -9 -51c0 -35 23 -44 84 -45l-4 -20c-35 2 -92 3 -149 3s-114 -1 -146 -3l4 20c84 3 105 24 127 96l151 567c-44 6 -87 11 -129 11
s-91 -3 -112 -17c10 -14 18 -38 18 -58c0 -27 -15 -58 -50 -58c-29 0 -44 20 -44 50c0 27 12 58 53 78c45 22 111 23 134 23c119 0 213 -28 329 -28c58 0 96 5 129 22c-13 13 -25 32 -25 56c0 27 15 55 49 55z" />
    <glyph glyph-name="U" unicode="U" horiz-adv-x="682" 
d="M549 280l82 312c4 18 7 32 7 44c0 38 -23 50 -74 52l5 20c23 -2 67 -3 101 -3s71 1 94 3l-5 -20c-69 -3 -88 -23 -106 -96l-78 -301c-24 -93 -55 -161 -98 -212c-48 -56 -122 -93 -205 -93c-65 0 -120 15 -154 54c-25 28 -35 60 -35 102c0 40 9 86 25 146l83 314
c5 21 8 36 8 48c0 30 -19 36 -67 38l6 20c27 -2 77 -3 129 -3c46 0 93 1 125 3l-6 -20c-69 -3 -84 -13 -103 -86l-88 -331c-13 -50 -22 -96 -22 -135c0 -69 29 -115 118 -115c149 0 219 110 258 259z" />
    <glyph glyph-name="V" unicode="V" horiz-adv-x="631" 
d="M666 705c34 0 55 1 76 3l-5 -20c-28 -6 -63 -27 -101 -87l-394 -606h-15l-79 629c-6 48 -33 63 -52 64l5 20c26 -2 70 -3 108 -3c52 0 91 1 120 3l-5 -20c-55 -2 -82 -8 -82 -58c0 -8 1 -16 2 -26l57 -483l277 425c29 45 43 77 43 99c0 30 -26 42 -74 43l5 20
c37 -2 79 -3 114 -3z" />
    <glyph glyph-name="W" unicode="W" horiz-adv-x="901" 
d="M918 705c34 0 55 1 76 3l-5 -20c-28 -6 -64 -23 -95 -87l-299 -606h-16l-72 456l-271 -456h-16l-79 629c-7 52 -34 63 -55 64l4 20c27 -2 61 -3 99 -3c44 0 84 1 108 3l-4 -20c-39 -2 -58 -13 -58 -58c0 -7 1 -16 2 -26l56 -477l209 354l-22 143c-8 51 -27 63 -45 64
l4 20c24 -2 55 -3 89 -3c52 0 100 1 128 3l-4 -20c-57 -2 -79 -11 -79 -52c0 -9 1 -20 3 -32l71 -455l196 397c22 45 33 77 33 98c0 34 -26 43 -77 44l5 20c37 -2 79 -3 114 -3z" />
    <glyph glyph-name="X" unicode="X" horiz-adv-x="699" 
d="M690 722c44 0 60 -24 60 -52c0 -26 -17 -71 -60 -71c-27 0 -38 18 -38 38s12 46 32 64h-3c-26 0 -45 -7 -64 -21c-55 -40 -135 -142 -207 -299l26 -226c7 -62 26 -114 79 -114c40 0 61 24 80 78l17 51h20l-26 -77c-25 -74 -65 -107 -122 -107c-97 0 -122 83 -131 156
l-18 157c-54 -112 -146 -227 -217 -278c-30 -23 -61 -35 -92 -35c-44 0 -60 24 -60 52c0 26 17 71 60 71c28 0 38 -18 38 -38s-13 -46 -32 -64h4c25 1 44 8 63 21c61 41 152 141 232 304l-26 221c-7 62 -26 114 -79 114c-40 0 -61 -24 -80 -78l-17 -51h-20l26 77
c25 74 65 107 122 107c97 0 122 -83 131 -156l18 -154c52 112 130 224 192 275c30 23 61 35 92 35z" />
    <glyph glyph-name="Y" unicode="Y" horiz-adv-x="669" 
d="M700 722c42 0 56 -27 56 -54s-17 -69 -59 -69c-29 0 -38 20 -38 40c0 22 14 45 32 62h-3c-21 -1 -39 -10 -55 -22c-60 -43 -148 -147 -229 -341l-58 -232c-5 -21 -8 -36 -8 -48c0 -30 19 -36 67 -38l-5 -20c-30 2 -78 3 -124 3c-52 0 -102 -1 -131 -3l5 20
c68 3 85 13 103 86l59 233c-16 147 -47 328 -117 328c-23 0 -37 -13 -48 -47l-28 -82h-22l33 97c20 58 41 87 98 87c110 0 143 -142 167 -362c51 128 118 228 187 297c31 31 75 65 118 65z" />
    <glyph glyph-name="Z" unicode="Z" horiz-adv-x="651" 
d="M713 713c4 -3 6 -8 6 -13c0 -17 -21 -41 -75 -62l-277 -272h152l-8 -20h-164l-283 -278c56 33 117 54 173 54c85 0 128 -56 214 -56c45 0 68 25 68 66c0 40 -26 64 -72 73l4 20c51 -9 106 -39 106 -116c0 -71 -46 -123 -121 -123c-98 0 -134 107 -229 107
c-56 0 -94 -18 -148 -45c-24 -34 -53 -58 -74 -58c-5 0 -10 2 -14 5s-6 8 -6 13c0 17 21 41 75 62l281 276h-162l7 20h175l279 274c-56 -33 -117 -54 -173 -54c-85 0 -128 56 -214 56c-45 0 -68 -25 -68 -66c0 -40 26 -64 72 -73l-4 -20c-51 9 -106 39 -106 116
c0 71 46 123 121 123c98 0 134 -107 229 -107c56 0 94 18 148 45c23 34 52 58 73 58c5 0 11 -2 15 -5z" />
    <glyph glyph-name="bracketleft" unicode="[" horiz-adv-x="299" 
d="M213 772h170l-4 -19h-81l-229 -915h81l-4 -19h-170z" />
    <glyph glyph-name="backslash" unicode="\" horiz-adv-x="492" 
d="M391 -14h-33l-226 736h31z" />
    <glyph glyph-name="bracketright" unicode="]" horiz-adv-x="299" 
d="M87 -181h-170l4 19h81l229 915h-81l4 19h170z" />
    <glyph glyph-name="asciicircum" unicode="^" horiz-adv-x="535" 
d="M289 442c-50 -44 -128 -91 -200 -120l-4 14c98 42 187 117 238 192h18c11 -75 60 -150 136 -192l-12 -14c-72 29 -142 76 -176 120z" />
    <glyph glyph-name="underscore" unicode="_" horiz-adv-x="744" 
d="M561 -120l-11 -40h-600l10 40h601z" />
    <glyph glyph-name="grave" unicode="`" horiz-adv-x="223" 
d="M221 605l-13 -6c-71 100 -115 140 -143 185c-7 12 -10 23 -10 32c0 14 7 23 16 28c5 2 10 3 15 3c15 0 31 -9 44 -31c26 -45 38 -102 91 -211z" />
    <glyph glyph-name="a" unicode="a" horiz-adv-x="522" 
d="M455 163h19l-25 -73c-29 -80 -76 -104 -115 -104c-25 0 -45 10 -55 26c-6 10 -8 22 -8 35c0 24 8 53 15 80l18 73c-66 -154 -132 -214 -201 -214c-63 0 -94 50 -94 121c0 160 144 421 295 421c35 0 60 -27 64 -75l16 61c32 1 65 5 92 14l-125 -442c-2 -9 -7 -24 -7 -37
c0 -14 5 -25 22 -25c26 0 52 25 77 102zM132 18c56 0 154 142 204 309l19 73c0 8 1 15 1 22c0 53 -19 87 -55 87c-88 0 -204 -237 -204 -414c0 -57 13 -77 35 -77z" />
    <glyph glyph-name="b" unicode="b" horiz-adv-x="503" 
d="M362 528c63 0 104 -46 104 -141c0 -151 -106 -401 -293 -401c-39 0 -72 24 -84 67c-28 -23 -57 -46 -85 -69l-15 7c9 18 15 38 19 58l175 618c2 10 4 19 4 27c0 26 -17 39 -67 39l5 21c73 1 126 15 176 41l-130 -472c63 146 124 205 191 205zM172 9
c113 0 208 250 208 400c0 59 -18 87 -47 87c-55 0 -139 -137 -198 -306l-34 -126c17 -42 40 -55 71 -55z" />
    <glyph glyph-name="c" unicode="c" horiz-adv-x="432" 
d="M323 508c-102 0 -212 -181 -212 -384c0 -68 28 -96 70 -96c48 0 99 25 150 100l20 -8c-39 -67 -116 -134 -201 -134c-80 0 -132 49 -132 147c0 154 115 395 302 395c59 0 108 -32 108 -85c0 -38 -27 -80 -71 -80c-28 0 -41 18 -41 39c0 39 36 68 75 75
c-13 19 -34 31 -68 31z" />
    <glyph glyph-name="d" unicode="d" horiz-adv-x="541" 
d="M472 162h19l-23 -73c-25 -81 -76 -103 -116 -103c-41 0 -63 21 -63 62c0 21 5 47 13 78l13 50c-65 -137 -128 -190 -199 -190c-63 0 -104 42 -104 132c0 160 138 410 323 410c25 0 51 -17 61 -48l50 187c3 10 4 19 4 27c0 26 -18 39 -68 39l6 21c73 1 126 15 177 41
l-196 -710c-3 -12 -6 -24 -6 -34c0 -16 6 -28 24 -28c26 0 47 26 73 102zM145 18c59 0 156 136 207 297l37 139c-9 36 -30 51 -53 51c-128 0 -235 -240 -235 -400c0 -59 15 -87 44 -87z" />
    <glyph glyph-name="e" unicode="e" horiz-adv-x="429" 
d="M416 462c0 -122 -184 -202 -299 -241c-7 -32 -11 -65 -11 -97c0 -68 27 -96 69 -96c48 0 103 25 154 100l16 -8c-39 -67 -116 -134 -201 -134c-81 0 -132 48 -132 141c0 145 140 401 330 401c41 0 74 -22 74 -66zM320 509c-65 0 -161 -125 -198 -269c59 21 107 41 136 64
c48 38 78 94 78 160c0 38 -6 45 -16 45z" />
    <glyph glyph-name="f" unicode="f" horiz-adv-x="320" 
d="M390 782c61 0 95 -31 95 -71c0 -34 -29 -69 -67 -69c-25 0 -41 12 -40 34c0 33 24 57 57 67c0 12 -20 24 -46 24c-25 0 -44 -13 -58 -26c-36 -34 -55 -127 -81 -226v-1h118l-6 -20h-118l-179 -668c-32 -1 -64 -5 -90 -14l183 682h-91l6 20h90v1c28 106 57 173 102 217
c31 31 78 50 125 50z" />
    <glyph glyph-name="g" unicode="g" horiz-adv-x="449" 
d="M461 620c26 0 43 -10 43 -35c0 -29 -26 -58 -56 -58c-17 0 -28 11 -28 29c0 12 5 26 13 36c-1 1 -4 2 -6 2c-7 0 -18 -6 -24 -10c-17 -11 -38 -35 -55 -65c47 -15 75 -48 75 -103c0 -90 -78 -189 -198 -202c-59 -33 -119 -59 -119 -85c0 -14 21 -24 60 -34l73 -19
c68 -18 113 -37 113 -86c0 -72 -95 -185 -297 -185c-104 0 -151 31 -151 73c0 43 37 93 170 145c-23 10 -38 28 -38 52c0 40 23 75 154 138c-81 2 -136 36 -136 109s59 206 226 206c19 0 36 -2 51 -5c20 32 42 58 65 75c19 13 41 22 65 22zM201 231c112 0 133 137 133 214
c0 36 -13 65 -59 65c-113 0 -134 -182 -134 -214c0 -48 23 -65 60 -65zM224 -16l-134 34c-90 -48 -102 -94 -102 -123c0 -49 41 -73 95 -73c91 0 201 56 201 130c0 18 -20 21 -60 32z" />
    <glyph glyph-name="h" unicode="h" horiz-adv-x="536" 
d="M486 162l-25 -73c-29 -84 -80 -103 -121 -103c-51 0 -70 23 -70 61c0 22 6 49 16 79l95 286c5 14 11 33 11 50c0 19 -8 34 -33 34c-74 0 -170 -149 -244 -371l-37 -125h-87l198 667c3 10 5 19 5 27c0 26 -19 39 -69 39l6 21c73 1 130 15 180 41l-145 -496
c75 167 143 229 226 229c61 0 81 -33 81 -76c0 -23 -7 -50 -15 -75l-97 -292c-4 -15 -7 -28 -7 -38c0 -15 5 -24 23 -24c25 0 49 22 77 102l13 37h19z" />
    <glyph glyph-name="i" unicode="i" horiz-adv-x="301" 
d="M188 683c0 41 36 77 74 77c31 0 51 -23 51 -52c0 -40 -36 -76 -75 -76c-30 0 -50 22 -50 51zM51 126l107 303c5 15 8 27 8 37c0 17 -8 25 -22 25c-31 0 -53 -33 -79 -102l-14 -37h-19l26 73c30 84 83 103 124 103c50 0 67 -28 67 -63c0 -24 -8 -52 -17 -77l-107 -303
c-5 -15 -8 -27 -8 -37c0 -16 8 -25 24 -25c27 0 49 25 78 102l14 37h19l-26 -73c-28 -78 -77 -103 -123 -103c-52 0 -70 25 -70 61c0 23 8 51 18 79z" />
    <glyph glyph-name="j" unicode="j" horiz-adv-x="275" 
d="M185 683c0 41 36 77 74 77c31 0 51 -23 51 -52c0 -4 -1 -8 -1 -12c-7 -35 -39 -64 -74 -64c-30 0 -50 22 -50 51zM-84 -173c50 6 78 33 99 108l139 494c5 17 7 30 7 39c0 16 -7 23 -22 23c-26 0 -49 -26 -76 -102l-13 -37h-19l24 73c27 81 74 103 123 103
c51 0 67 -25 67 -61c0 -23 -7 -51 -15 -79l-77 -273c-42 -150 -105 -260 -195 -293c-20 -7 -45 -10 -59 -10c-31 0 -47 15 -47 39c0 29 27 61 59 61c21 0 33 -13 33 -31c0 -19 -13 -39 -28 -54z" />
    <glyph glyph-name="k" unicode="k" horiz-adv-x="515" 
d="M432 528c46 0 61 -27 59 -59c-2 -24 -18 -64 -58 -64c-29 0 -39 19 -39 40c0 19 14 45 32 62h-2c-16 0 -26 -6 -37 -14c-57 -46 -56 -176 -173 -201c75 -3 145 -30 145 -102c0 -8 -1 -17 -3 -26l-20 -100c-1 -8 -3 -15 -3 -20c0 -15 7 -21 23 -21c26 0 48 26 74 102
l12 37h19l-24 -73c-26 -80 -71 -103 -119 -103c-36 0 -65 20 -65 65c0 9 2 19 4 30l18 86c3 14 4 26 4 37c0 50 -31 74 -117 82l-84 -286h-87l198 667c3 10 5 19 5 27c0 26 -19 39 -69 39l6 21c73 1 130 15 180 41l-146 -498c155 13 137 156 207 208c24 18 42 23 60 23z" />
    <glyph glyph-name="l" unicode="l" horiz-adv-x="276" 
d="M311 795l-209 -710c-4 -14 -6 -26 -6 -35c0 -17 7 -27 23 -27c26 0 48 26 75 102l13 37h19l-25 -73c-26 -76 -69 -103 -120 -103c-53 0 -69 28 -69 65c0 23 7 50 14 75l163 541c3 11 5 20 5 28c0 26 -18 38 -68 38l7 21c73 1 126 15 178 41z" />
    <glyph glyph-name="m" unicode="m" horiz-adv-x="809" 
d="M759 162l-25 -73c-29 -84 -80 -103 -121 -103c-33 0 -52 11 -62 27c-6 9 -9 21 -9 34c0 22 7 49 17 79l95 286c6 19 10 38 10 53c0 19 -6 31 -22 31c-79 0 -181 -200 -267 -476l1 5l-7 -25h-90l125 412c6 18 10 36 10 51c0 19 -7 33 -28 33c-75 0 -181 -191 -249 -432
l-16 -64h-87l120 429c2 8 7 24 7 37c0 14 -5 25 -21 25c-29 0 -52 -28 -78 -102l-13 -37h-19l25 73c29 84 80 103 121 103c45 0 58 -26 58 -60c0 -25 -8 -55 -15 -80l-31 -126c81 197 146 266 231 266c51 0 65 -31 65 -70c0 -26 -6 -56 -13 -81l-35 -132
c83 205 146 283 239 283c53 0 70 -33 70 -75c0 -24 -6 -51 -14 -76l-97 -292c-5 -16 -8 -28 -8 -38c0 -16 7 -24 24 -24c25 0 49 22 77 102l13 37h19z" />
    <glyph glyph-name="n" unicode="n" horiz-adv-x="580" 
d="M530 162l-25 -73c-29 -84 -80 -103 -121 -103c-32 0 -52 11 -63 29c-5 9 -8 20 -8 33c0 21 7 48 17 78l95 286c4 13 10 32 10 49c0 19 -7 35 -32 35c-79 0 -193 -184 -263 -426l-18 -70h-87l120 429c3 11 7 26 7 38c0 14 -5 24 -22 24c-29 0 -49 -24 -77 -102l-13 -37
h-19l25 73c29 84 76 103 119 103c46 0 59 -25 59 -59c0 -24 -7 -54 -14 -81l-34 -137c86 205 159 277 250 277c61 0 81 -32 81 -75c0 -23 -7 -50 -15 -76l-97 -292c-5 -15 -8 -28 -8 -38c0 -15 7 -24 24 -24c25 0 49 22 77 102l13 37h19z" />
    <glyph glyph-name="o" unicode="o" horiz-adv-x="487" 
d="M21 143c0 147 102 385 289 385c83 0 137 -51 137 -157c0 -147 -102 -385 -289 -385c-83 0 -137 51 -137 157zM304 508c-107 0 -197 -237 -197 -415c0 -60 19 -87 57 -87c108 0 197 236 197 415c0 61 -19 87 -57 87z" />
    <glyph glyph-name="p" unicode="p" horiz-adv-x="550" 
d="M409 528c63 0 104 -46 104 -141c0 -151 -106 -401 -293 -401c-36 0 -67 20 -81 57l-38 -131c-2 -9 -4 -17 -4 -24c0 -37 34 -48 85 -48l-6 -21c-27 1 -80 4 -134 4c-42 0 -90 -3 -111 -4l6 21c48 0 65 15 78 62l187 666c-43 -96 -102 -161 -169 -224l-11 13
c77 75 138 138 204 295l4 15c32 1 64 5 91 14l-105 -366c64 151 124 213 193 213zM219 9c113 0 208 250 208 400c0 59 -18 87 -47 87c-58 0 -149 -154 -208 -336l-26 -91c18 -44 41 -60 73 -60z" />
    <glyph glyph-name="q" unicode="q" horiz-adv-x="506" 
d="M475 465l-149 -553c-3 -10 -4 -19 -4 -26c0 -35 27 -46 65 -46l-6 -21c-27 1 -80 4 -134 4c-42 0 -90 -3 -111 -4l6 21c60 0 85 14 98 62l69 263c-62 -132 -122 -179 -187 -179c-63 0 -104 46 -104 141c0 151 106 401 293 401c39 0 72 -25 84 -67c28 22 57 46 85 69
l16 -7c-9 -18 -16 -38 -21 -58zM151 18c56 0 145 125 190 271l42 161c-18 41 -40 55 -71 55c-113 0 -208 -250 -208 -400c0 -59 18 -87 47 -87z" />
    <glyph glyph-name="r" unicode="r" horiz-adv-x="425" 
d="M395 528c37 0 59 -24 59 -57c0 -40 -33 -72 -70 -72c-23 0 -40 13 -40 36c0 32 19 53 45 64c-3 3 -6 4 -11 4c-73 0 -162 -173 -236 -420l-21 -83h-87l120 429c5 17 7 29 7 39c0 16 -7 23 -21 23c-29 0 -52 -28 -78 -102l-13 -37h-19l25 73c29 84 80 103 121 103
c44 0 57 -25 57 -58c0 -25 -8 -56 -14 -82l-32 -127c72 195 130 267 208 267z" />
    <glyph glyph-name="s" unicode="s" horiz-adv-x="380" 
d="M59 15c11 -5 21 -9 46 -9c59 0 101 36 101 103c0 41 -13 79 -52 132c-31 42 -65 84 -65 145c0 85 70 142 155 142c57 0 122 -16 122 -87c0 -19 -12 -52 -46 -52c-22 0 -40 17 -40 42c0 24 11 46 28 67c-13 8 -30 12 -50 12c-50 0 -87 -35 -87 -95c0 -46 21 -67 60 -125
c33 -51 59 -95 59 -147c0 -93 -79 -157 -172 -157c-69 0 -135 27 -135 99c0 19 9 45 39 45c32 0 44 -31 44 -63c0 -21 -4 -37 -7 -52z" />
    <glyph glyph-name="t" unicode="t" horiz-adv-x="335" 
d="M237 494l-116 -409c-2 -8 -3 -17 -3 -23c0 -28 19 -39 43 -39c29 0 59 17 89 100l14 39h19l-21 -63c-29 -87 -76 -113 -137 -113c-62 0 -89 32 -89 83c0 17 3 36 9 57l106 368h-90l5 20h91l43 152c32 1 64 5 90 14l-47 -166h132l-3 -20h-135z" />
    <glyph glyph-name="u" unicode="u" horiz-adv-x="566" 
d="M499 162h19l-25 -73c-29 -84 -80 -103 -121 -103c-21 0 -42 9 -51 27c-4 8 -6 18 -6 31c0 20 5 45 14 82l32 125c-80 -195 -150 -265 -234 -265c-60 0 -85 30 -85 77c0 21 6 47 15 74l97 292c5 15 8 28 8 38c0 16 -8 24 -24 24c-25 0 -49 -22 -77 -102l-13 -37h-19l25 73
c29 84 80 103 121 103c53 0 70 -26 70 -62c0 -23 -7 -51 -16 -78l-95 -286c-7 -21 -10 -37 -10 -50c0 -23 11 -34 32 -34c77 0 186 180 256 437l15 59c33 1 66 5 91 14l-124 -443c-4 -15 -7 -29 -7 -39c0 -14 5 -23 21 -23c29 0 52 28 78 102z" />
    <glyph glyph-name="v" unicode="v" horiz-adv-x="533" 
d="M474 379c-38 19 -77 55 -73 108c2 31 26 42 44 42c39 0 56 -40 56 -101c0 -12 -1 -26 -2 -40c-23 -196 -130 -402 -316 -402c-85 0 -115 55 -115 113c0 3 1 8 1 11c8 112 101 255 232 380c-44 -16 -96 -63 -132 -63c-25 0 -41 25 -63 25c-21 0 -33 -15 -49 -62l-11 -37
h-19l22 73c22 80 59 102 94 102c38 0 52 -39 91 -39c32 0 61 10 84 31l10 19l21 -10c-106 -131 -168 -261 -180 -402c0 -8 -1 -16 -1 -23c0 -60 18 -85 44 -85c158 0 256 237 262 360z" />
    <glyph glyph-name="w" unicode="w" horiz-adv-x="685" 
d="M619 410c5 -25 8 -53 8 -83c0 -150 -71 -341 -246 -341c-45 0 -86 15 -106 61c-40 -37 -87 -61 -138 -61c-92 0 -124 55 -124 114c0 125 155 274 288 374c-35 -20 -71 -47 -98 -47c-25 0 -40 25 -63 25c-21 0 -34 -15 -49 -62l-12 -37h-19l23 73c26 79 58 102 93 102
c38 0 53 -39 92 -39c32 0 56 10 80 31l14 19l21 -10c-138 -116 -272 -262 -272 -423c0 -67 21 -90 55 -90c33 0 69 17 104 48c-5 17 -8 36 -8 59c0 118 91 236 146 236c29 0 35 -40 35 -70c0 -70 -37 -147 -115 -208c13 -38 38 -66 80 -66c136 0 197 185 197 310
c0 25 -2 48 -7 66c-38 7 -95 34 -95 89c0 35 23 48 42 48c39 0 62 -51 74 -118zM401 337c-33 0 -85 -87 -85 -174c0 -22 2 -44 7 -64c59 49 97 123 97 191c0 27 -4 47 -19 47z" />
    <glyph glyph-name="x" unicode="x" horiz-adv-x="525" 
d="M478 528c25 0 44 -14 44 -37c0 -25 -21 -48 -53 -48c-30 0 -51 14 -63 24c-51 -47 -86 -118 -108 -175l24 -214c5 -35 17 -46 34 -46c20 0 40 16 67 92l13 37h19l-25 -73c-29 -80 -71 -102 -114 -102c-41 0 -75 22 -83 92l-15 130c-21 -47 -53 -103 -106 -160
c-40 -42 -70 -62 -101 -62c-30 0 -45 14 -45 37c0 25 22 48 52 48s50 -14 63 -24c59 54 106 132 133 196l-21 193c-5 35 -17 46 -34 46c-20 0 -40 -16 -67 -92l-13 -37h-19l25 73c29 80 71 102 114 102c47 0 75 -22 83 -92l11 -103c19 42 45 90 85 134c38 44 67 61 100 61z
" />
    <glyph glyph-name="y" unicode="y" horiz-adv-x="480" 
d="M406 528c36 0 52 -28 52 -81c0 -135 -102 -325 -197 -444c-32 -40 -101 -120 -197 -166c-40 -19 -69 -25 -87 -25c-27 0 -50 14 -50 41c0 29 26 45 54 45c31 0 58 -19 83 -39c45 24 96 61 150 120l-74 448c-7 41 -15 55 -32 55c-15 0 -32 -16 -59 -92l-13 -37h-19l25 73
c28 81 72 102 115 102c41 0 62 -21 72 -92l51 -376c69 95 128 211 151 325c-31 17 -76 48 -76 92c0 33 22 51 51 51z" />
    <glyph glyph-name="z" unicode="z" horiz-adv-x="444" 
d="M476 514l-451 -475c57 36 90 52 127 52c48 0 84 -32 135 -32c34 0 55 16 55 50c0 36 -33 63 -79 72l6 15c61 -14 97 -46 97 -97c0 -53 -31 -105 -116 -105c-70 0 -95 43 -172 43c-35 0 -62 -8 -90 -37h-27l451 475c-57 -36 -90 -52 -127 -52c-48 0 -84 32 -135 32
c-34 0 -55 -16 -55 -50c0 -36 33 -63 79 -72l-6 -15c-61 14 -97 46 -97 97c0 53 31 105 116 105c70 0 95 -43 172 -43c35 0 62 8 90 37h27z" />
    <glyph glyph-name="braceleft" unicode="{" horiz-adv-x="306" 
d="M164 -169l-5 -19c-104 0 -134 43 -134 108c0 36 10 78 21 123c22 89 33 147 33 184c-1 41 -16 57 -47 59h-5l3 18h5c63 5 90 56 137 243c47 184 102 235 227 235l-5 -19c-65 -1 -84 -19 -132 -216c-44 -179 -125 -230 -205 -252c75 -22 97 -76 97 -137
c0 -38 -9 -78 -18 -115c-20 -81 -30 -131 -29 -162c0 -41 20 -49 57 -50z" />
    <glyph glyph-name="bar" unicode="|" horiz-adv-x="317" 
d="M189 -195h-40v1053h40v-1053z" />
    <glyph glyph-name="braceright" unicode="}" horiz-adv-x="306" 
d="M143 763l5 19c104 0 134 -43 134 -108c0 -36 -10 -78 -21 -123c-22 -89 -33 -147 -33 -184c1 -41 16 -57 47 -59h5l-3 -18h-5c-63 -5 -90 -56 -137 -243c-47 -184 -102 -235 -227 -235l5 19c65 1 84 19 132 216c44 179 125 230 205 252c-75 22 -97 77 -97 138
c0 38 9 77 18 114c20 81 30 131 29 162c0 41 -20 49 -57 50z" />
    <glyph glyph-name="asciitilde" unicode="~" horiz-adv-x="648" 
d="M420 237c-102 0 -143 78 -237 78c-37 0 -74 -15 -101 -58l-14 5c30 66 91 107 165 107c102 0 143 -78 237 -78c37 0 74 15 101 58l14 -5c-30 -66 -91 -107 -165 -107z" />
    <glyph glyph-name="uni00A0" unicode="&#xa0;" horiz-adv-x="252" 
 />
    <glyph glyph-name="exclamdown" unicode="&#xa1;" horiz-adv-x="249" 
d="M105 451c0 41 37 77 75 77c31 0 51 -23 51 -52c0 -40 -36 -76 -75 -76c-30 0 -51 22 -51 51zM124 319l18 -3c-45 -180 -62 -366 -87 -465c-6 -26 -24 -39 -45 -39c-31 0 -46 18 -46 41c0 6 2 14 4 21c26 90 107 264 156 445z" />
    <glyph glyph-name="cent" unicode="&#xa2;" horiz-adv-x="433" 
d="M307 527l10 1c59 0 108 -32 108 -85c0 -38 -27 -80 -71 -80c-28 0 -41 18 -41 39c0 39 36 68 75 75c-13 19 -34 31 -68 31c-6 0 -13 -1 -19 -2l-129 -478h6c48 0 99 25 150 100l20 -8c-37 -63 -107 -127 -187 -134l-45 -167h-22l45 167c-76 3 -124 53 -124 147
c0 145 102 366 269 392l49 183h22zM151 32l125 465c-87 -42 -168 -199 -168 -373c0 -52 16 -81 43 -92z" />
    <glyph glyph-name="sterling" unicode="&#xa3;" horiz-adv-x="624" 
d="M502 639c0 27 20 50 48 58c0 13 -28 24 -56 24c-128 0 -165 -127 -200 -256l-13 -48h136l-6 -20h-135l-21 -80h135l-6 -20h-135c-29 -90 -84 -150 -155 -221c39 18 81 32 126 32c69 0 117 -45 193 -45c44 0 86 29 86 74c0 39 -25 61 -65 69l6 17c53 -9 101 -42 101 -102
c0 -66 -66 -135 -143 -135c-93 0 -131 94 -226 94c-27 0 -55 -6 -87 -20c-34 -47 -70 -74 -96 -74c-9 0 -13 2 -13 10c0 19 36 54 99 73c23 45 45 93 71 189l10 39h-97l6 20h97l21 80h-97l6 20h96l6 22c44 164 132 297 302 297c72 0 104 -33 104 -68c0 -33 -26 -63 -62 -63
c-20 0 -36 13 -36 34z" />
    <glyph glyph-name="currency" unicode="&#xa4;" horiz-adv-x="568" 
d="M96 138l43 43c-26 32 -42 73 -42 119c0 45 16 87 43 120l-44 44l28 28l44 -44c32 26 74 42 119 42s86 -16 119 -43l45 45l28 -28l-45 -45c26 -33 42 -74 42 -119c0 -46 -16 -87 -42 -119l44 -43l-28 -29l-44 44c-33 -26 -74 -42 -119 -42s-87 15 -119 41l-43 -43z
M138 300c0 -83 68 -152 149 -152s148 69 148 152c0 82 -67 153 -148 153c-82 0 -149 -70 -149 -153z" />
    <glyph glyph-name="yen" unicode="&#xa5;" horiz-adv-x="703" 
d="M708 722c42 0 56 -27 56 -54s-17 -69 -59 -69c-29 0 -38 20 -38 40c0 22 14 45 32 62h-3c-21 -1 -39 -10 -55 -22c-60 -43 -148 -147 -229 -341l-10 -41h141l-5 -20h-141l-15 -60h139l-5 -20h-139l-23 -91c-5 -21 -8 -36 -8 -48c0 -30 19 -36 67 -38l-5 -20
c-30 2 -78 3 -124 3c-52 0 -102 -1 -131 -3l5 20c68 3 85 13 103 86l23 91h-141l5 20h141l15 60h-139l5 20h139l10 42c-16 147 -46 328 -116 328c-23 0 -37 -13 -48 -47l-28 -82h-22l33 97c20 58 41 87 98 87c110 0 143 -142 167 -362c51 128 118 228 187 297
c31 31 75 65 118 65z" />
    <glyph glyph-name="brokenbar" unicode="&#xa6;" horiz-adv-x="321" 
d="M191 384h-40v474h40v-474zM151 326h40v-521h-40v521z" />
    <glyph glyph-name="section" unicode="&#xa7;" horiz-adv-x="507" 
d="M411 663c0 32 27 55 58 64c-9 30 -60 36 -88 36c-66 0 -142 -32 -142 -133c0 -66 65 -115 122 -163c63 -53 104 -94 104 -155c0 -91 -75 -159 -161 -201c26 -30 43 -62 43 -102c0 -111 -105 -197 -220 -197c-59 0 -140 24 -140 93c0 34 29 68 67 68c26 0 43 -15 43 -40
c0 -33 -26 -57 -58 -66c9 -28 60 -36 88 -36c68 0 142 33 142 135c0 65 -65 113 -122 161c-63 53 -104 94 -104 155c0 91 75 158 161 200c-26 31 -43 63 -43 103c0 111 105 197 220 197c58 0 141 -25 141 -90c0 -36 -28 -71 -68 -71c-26 0 -43 16 -43 42zM295 400
c-30 25 -58 47 -80 70c-49 -26 -107 -69 -107 -132c0 -54 50 -98 105 -144c30 -24 58 -47 80 -70c49 26 107 69 107 132c0 55 -50 98 -105 144z" />
    <glyph glyph-name="dieresis" unicode="&#xa8;" horiz-adv-x="390" 
d="M30 678c0 31 31 65 67 65c28 0 50 -22 50 -50c0 -33 -31 -66 -67 -66c-30 0 -50 22 -50 51zM242 678c0 31 31 65 67 65c28 0 50 -22 50 -50c0 -33 -31 -66 -67 -66c-30 0 -50 22 -50 51z" />
    <glyph glyph-name="copyright" unicode="&#xa9;" horiz-adv-x="923" 
d="M88 384c0 220 178 398 398 398s398 -178 398 -398s-178 -398 -398 -398s-398 178 -398 398zM128 384c0 -202 160 -366 358 -366s358 164 358 366s-160 366 -358 366s-358 -164 -358 -366zM509 156c53 0 111 27 146 103l19 -7c-20 -65 -77 -139 -183 -139
c-125 0 -222 100 -222 265c0 164 95 278 234 278c83 0 162 -42 162 -109c0 -36 -23 -56 -53 -56s-55 20 -55 54c0 28 17 46 42 51c-13 24 -52 42 -90 42c-66 0 -143 -55 -143 -248c0 -172 67 -234 143 -234z" />
    <glyph glyph-name="ordfeminine" unicode="&#xaa;" horiz-adv-x="454" 
d="M436 478h19l-18 -49c-20 -54 -49 -69 -90 -69c-29 0 -43 11 -43 41c0 14 3 31 9 53l12 42c-49 -99 -98 -136 -150 -136c-49 0 -78 33 -78 80c0 118 135 282 245 282c17 0 35 -9 37 -36l8 27c25 0 50 3 70 9l-94 -292c-3 -10 -5 -19 -5 -25c0 -11 5 -16 16 -16
c21 0 36 15 53 64zM195 385c44 0 121 99 158 209l19 66c-1 27 -12 38 -25 38c-68 0 -177 -130 -177 -266c0 -29 8 -47 25 -47z" />
    <glyph glyph-name="guillemotleft" unicode="&#xab;" horiz-adv-x="517" 
d="M300 528h18c-41 -87 -144 -229 -219 -284c58 -48 122 -180 141 -258h-18c-52 102 -114 192 -198 257v2c106 75 193 169 276 283zM465 528h18c-38 -86 -143 -229 -219 -284c58 -48 122 -180 141 -258h-18c-52 102 -114 192 -198 257v2c106 75 193 169 276 283z" />
    <glyph glyph-name="logicalnot" unicode="&#xac;" horiz-adv-x="661" 
d="M103 370h501l-59 -205h-36l50 175h-465z" />
    <glyph glyph-name="softhyphen" unicode="&#xad;" horiz-adv-x="503" 
 />
    <glyph glyph-name="registered" unicode="&#xae;" horiz-adv-x="699" 
d="M405 782c154 0 279 -125 279 -279s-125 -279 -279 -279s-279 125 -279 279s125 279 279 279zM405 256c132 0 237 112 237 247s-105 247 -237 247s-237 -112 -237 -247s105 -247 237 -247zM542 364c4 0 9 2 12 8l10 -7c-8 -16 -22 -21 -44 -21c-35 0 -48 13 -55 41l-17 74
c-8 37 -17 45 -88 46v-101c0 -31 4 -35 23 -37v-15c-13 0 -33 1 -51 1c-21 0 -40 -1 -52 -1v15c19 2 23 6 23 37v219c0 32 -4 36 -23 38v15c12 -1 31 -1 48 -1c37 0 72 1 86 1c76 0 116 -29 116 -79c0 -35 -19 -71 -97 -85c55 -6 72 -25 79 -58l12 -57c4 -17 5 -33 18 -33z
M398 661c-32 0 -38 -6 -38 -33v-107h24c71 0 84 29 84 66c0 50 -18 74 -70 74z" />
    <glyph glyph-name="macron" unicode="&#xaf;" horiz-adv-x="361" 
d="M427 687h-312l6 25h312z" />
    <glyph glyph-name="degree" unicode="&#xb0;" horiz-adv-x="334" 
d="M261 820c65 0 122 -46 122 -120c0 -75 -57 -121 -122 -121c-64 0 -121 46 -121 121c0 74 57 120 121 120zM261 596c45 0 97 33 97 103c0 68 -52 104 -97 104s-96 -36 -96 -104c0 -70 51 -103 96 -103z" />
    <glyph glyph-name="plusminus" unicode="&#xb1;" horiz-adv-x="634" 
d="M317 370l67 236h36l-67 -236h232l-9 -30h-232l-67 -235h-36l67 235h-233l9 30h233zM0 30h501l-9 -30h-501z" />
    <glyph glyph-name="twosuperior" unicode="&#xb2;" 
d="M294 754c46 0 79 -16 79 -57c0 -85 -139 -157 -201 -207c33 0 93 -18 126 -18c27 0 47 13 47 35c0 6 -1 13 -4 19l17 7c6 -9 10 -20 10 -32c0 -37 -32 -68 -90 -68c-44 0 -73 19 -131 19c-27 0 -43 -6 -66 -15l4 18c60 41 229 130 229 222c0 31 -20 43 -54 43
c-35 0 -73 -13 -107 -52l-14 11c31 38 85 75 155 75z" />
    <glyph glyph-name="threesuperior" unicode="&#xb3;" horiz-adv-x="326" 
d="M299 754c46 0 80 -17 80 -54c0 -57 -83 -101 -139 -114c56 -2 109 -21 109 -74c0 -100 -181 -157 -306 -166v18c115 9 246 64 246 156c0 36 -20 51 -55 52c-15 -8 -25 -10 -32 -10c-8 0 -18 3 -18 13c0 13 18 18 44 17c55 20 93 52 93 94c0 25 -18 37 -47 37
c-35 0 -73 -13 -116 -56l-14 12c28 33 86 75 155 75z" />
    <glyph glyph-name="acute" unicode="&#xb4;" horiz-adv-x="223" 
d="M137 599l-10 9c82 97 111 151 150 190c14 16 28 22 41 22c8 0 16 -2 22 -7c5 -5 8 -12 8 -20c0 -12 -7 -26 -23 -42c-37 -39 -94 -68 -188 -152z" />
    <glyph glyph-name="paragraph" unicode="&#xb6;" horiz-adv-x="640" 
d="M354 -13c-231 0 -318 98 -318 242c0 265 207 480 471 480c55 0 103 -3 150 -3c20 0 40 0 60 2l-5 -19c-65 -3 -83 -24 -95 -68l-139 -528c-43 -162 -119 -281 -245 -281c-59 0 -101 18 -102 55c0 29 27 61 59 61c21 0 33 -13 33 -31c0 -24 -15 -46 -35 -64
c9 -3 21 -5 35 -5c72 0 104 68 131 159zM418 337c-35 -135 -47 -244 -47 -278c0 -7 0 -11 1 -11c0 0 161 604 163 608c-6 0 -65 -133 -109 -290c-154 0 -283 -12 -284 -15c-1 -4 122 -14 276 -14z" />
    <glyph glyph-name="periodcentered" unicode="&#xb7;" horiz-adv-x="257" 
d="M55 238c0 41 36 77 74 77c31 0 51 -23 51 -52c0 -40 -36 -76 -75 -76c-30 0 -50 22 -50 51z" />
    <glyph glyph-name="cedilla" unicode="&#xb8;" horiz-adv-x="228" 
d="M152 0l-34 -72c11 4 27 7 41 7c27 0 43 -15 43 -40c0 -58 -71 -83 -123 -83c-37 0 -67 11 -80 22l7 15c9 -4 27 -13 60 -13c21 0 72 11 72 51c0 16 -9 24 -28 24c-7 0 -20 -2 -31 -7l46 96h27z" />
    <glyph glyph-name="onesuperior" unicode="&#xb9;" horiz-adv-x="252" 
d="M215 437h-59l81 251c-34 -20 -67 -38 -126 -54l5 19c96 29 140 67 181 100h19z" />
    <glyph glyph-name="ordmasculine" unicode="&#xba;" horiz-adv-x="411" 
d="M107 465c0 98 74 257 212 257c70 0 115 -34 115 -105c0 -98 -74 -256 -212 -256c-70 0 -115 34 -115 104zM314 704c-74 0 -135 -148 -135 -267c0 -40 16 -58 48 -58c74 0 135 147 135 267c0 40 -16 58 -48 58z" />
    <glyph glyph-name="guillemotright" unicode="&#xbb;" horiz-adv-x="516" 
d="M93 528h18c52 -102 114 -193 198 -258v-1c-106 -75 -193 -169 -276 -283h-18c41 87 144 229 219 284c-58 48 -122 180 -141 258zM258 528h18c52 -102 114 -193 198 -258v-1c-106 -75 -193 -169 -276 -283h-18c41 87 144 229 219 284c-58 48 -122 180 -141 258z" />
    <glyph glyph-name="onequarter" unicode="&#xbc;" horiz-adv-x="605" 
d="M734 811l-833 -866l-15 13l833 866zM156 437l81 251c-34 -20 -67 -38 -126 -54l5 19c96 29 140 67 181 100h19l-101 -316h-59zM465 317l-71 -244h56l-12 -41h-56l-34 -117h-53l35 117h-189l5 18l300 267h19zM341 73l49 169l-191 -169h142z" />
    <glyph glyph-name="onehalf" unicode="&#xbd;" horiz-adv-x="605" 
d="M734 811l-833 -866l-15 13l833 866zM215 437h-59l81 251c-34 -20 -67 -38 -126 -54l5 19c96 29 140 67 181 100h19zM451 317c46 0 79 -16 79 -57c0 -85 -139 -157 -201 -207c33 0 93 -18 126 -18c27 0 47 13 47 35c0 6 -1 13 -4 19l17 7c6 -9 10 -20 10 -32
c0 -37 -32 -68 -90 -68c-44 0 -73 19 -131 19c-27 0 -43 -6 -66 -15l4 18c60 41 229 130 229 222c0 31 -20 43 -54 43c-35 0 -73 -13 -107 -52l-14 11c31 38 85 75 155 75z" />
    <glyph glyph-name="threequarters" unicode="&#xbe;" horiz-adv-x="706" 
d="M834 811l-833 -866l-15 13l833 866zM349 512c0 -100 -181 -157 -306 -166v18c115 9 246 64 246 156c0 36 -20 51 -55 52c-15 -8 -25 -10 -32 -10c-8 0 -18 3 -18 13c0 13 18 18 44 17c55 20 93 52 93 94c0 25 -18 37 -47 37c-35 0 -73 -13 -116 -56l-14 12
c28 33 86 75 155 75c46 0 80 -17 80 -54c0 -57 -83 -101 -139 -114c56 -2 109 -21 109 -74zM565 317l-71 -244h56l-11 -41h-57l-34 -117h-52l34 117h-189l5 18l300 267h19zM441 73l49 169l-191 -169h142z" />
    <glyph glyph-name="questiondown" unicode="&#xbf;" horiz-adv-x="445" 
d="M200 451c0 41 36 77 74 77c31 0 51 -23 51 -52c0 -40 -36 -76 -75 -76c-30 0 -50 22 -50 51zM123 -171c45 0 110 15 123 49c-11 3 -25 19 -25 40c0 29 24 49 53 49c27 0 40 -17 40 -42c0 -67 -105 -113 -210 -113c-86 0 -146 34 -146 98c0 61 43 97 165 178
c90 64 137 88 137 143c0 36 -27 68 -68 68c-40 0 -88 -16 -105 -44c12 -1 27 -17 26 -35c0 -20 -18 -41 -45 -41c-18 0 -34 8 -34 35c0 63 101 102 178 102c68 0 115 -33 115 -96c0 -76 -72 -120 -166 -187c-88 -58 -125 -88 -125 -136c0 -37 30 -68 87 -68z" />
    <glyph glyph-name="Agrave" unicode="&#xc0;" horiz-adv-x="628" 
d="M327 889c-10 9 -19 24 -19 39c0 7 2 14 7 20c6 7 14 10 22 10c16 0 33 -9 44 -21c29 -31 51 -78 114 -158l-10 -10c-81 66 -126 89 -158 120zM464 713l40 -629c4 -48 29 -63 49 -64l-4 -20c-27 2 -71 3 -109 3c-48 0 -94 -1 -120 -3l4 20c64 3 89 16 86 84l-9 164h-246
l-75 -106c-32 -45 -47 -78 -47 -100c0 -29 27 -41 74 -42l-5 -20c-37 2 -79 3 -114 3c-34 0 -54 -1 -75 -3l5 20c27 6 59 29 100 87l431 606h15zM400 288l-17 302l-214 -302h231z" />
    <glyph glyph-name="Aacute" unicode="&#xc1;" horiz-adv-x="628" 
d="M656 920c1 -3 2 -7 2 -10c0 -18 -18 -35 -35 -44c-46 -27 -109 -39 -222 -94l-7 11c105 71 149 114 196 142c10 6 25 12 38 12c12 0 23 -5 28 -17zM464 713l40 -629c4 -48 29 -63 49 -64l-4 -20c-27 2 -71 3 -109 3c-48 0 -94 -1 -120 -3l4 20c64 3 89 16 86 84l-9 164
h-246l-75 -106c-32 -45 -47 -78 -47 -100c0 -29 27 -41 74 -42l-5 -20c-37 2 -79 3 -114 3c-34 0 -54 -1 -75 -3l5 20c27 6 59 29 100 87l431 606h15zM400 288l-17 302l-214 -302h231z" />
    <glyph glyph-name="Acircumflex" unicode="&#xc2;" horiz-adv-x="628" 
d="M494 916h18c34 -58 71 -103 139 -130l-4 -14c-91 17 -129 42 -177 68c-52 -22 -134 -52 -206 -68l-5 14c97 30 184 79 235 130zM464 713l40 -629c4 -48 29 -63 49 -64l-4 -20c-27 2 -71 3 -109 3c-48 0 -94 -1 -120 -3l4 20c64 3 89 16 86 84l-9 164h-246l-75 -106
c-32 -45 -47 -78 -47 -100c0 -29 27 -41 74 -42l-5 -20c-37 2 -79 3 -114 3c-34 0 -54 -1 -75 -3l5 20c27 6 59 29 100 87l431 606h15zM400 288l-17 302l-214 -302h231z" />
    <glyph glyph-name="Atilde" unicode="&#xc3;" horiz-adv-x="628" 
d="M661 880l18 -5c-31 -74 -83 -103 -130 -103c-91 0 -104 73 -173 73c-24 0 -47 -16 -70 -58l-18 5c31 74 83 103 130 103c91 0 104 -73 173 -73c24 0 47 16 70 58zM464 713l40 -629c4 -48 29 -63 49 -64l-4 -20c-27 2 -71 3 -109 3c-48 0 -94 -1 -120 -3l4 20
c64 3 89 16 86 84l-9 164h-246l-75 -106c-32 -45 -47 -78 -47 -100c0 -29 27 -41 74 -42l-5 -20c-37 2 -79 3 -114 3c-34 0 -54 -1 -75 -3l5 20c27 6 59 29 100 87l431 606h15zM400 288l-17 302l-214 -302h231z" />
    <glyph glyph-name="Adieresis" unicode="&#xc4;" horiz-adv-x="628" 
d="M346 772c-30 0 -50 22 -50 51c0 31 31 65 67 65c28 0 50 -22 50 -50c0 -33 -31 -66 -67 -66zM575 888c28 0 50 -22 50 -50c0 -33 -31 -66 -67 -66c-30 0 -50 22 -50 51c0 31 31 65 67 65zM464 713l40 -629c4 -48 29 -63 49 -64l-4 -20c-27 2 -71 3 -109 3
c-48 0 -94 -1 -120 -3l4 20c64 3 89 16 86 84l-9 164h-246l-75 -106c-32 -45 -47 -78 -47 -100c0 -29 27 -41 74 -42l-5 -20c-37 2 -79 3 -114 3c-34 0 -54 -1 -75 -3l5 20c27 6 59 29 100 87l431 606h15zM400 288l-17 302l-214 -302h231z" />
    <glyph glyph-name="Aring" unicode="&#xc5;" horiz-adv-x="628" 
d="M460 742c-47 0 -83 30 -83 80c0 58 49 103 109 103c48 0 86 -31 86 -80c0 -56 -53 -103 -112 -103zM482 904c-41 0 -79 -39 -79 -81c0 -40 31 -60 61 -60c42 0 82 35 82 83c0 38 -33 58 -64 58zM464 713l40 -629c4 -48 29 -63 49 -64l-4 -20c-27 2 -71 3 -109 3
c-48 0 -94 -1 -120 -3l4 20c64 3 89 16 86 84l-9 164h-246l-75 -106c-32 -45 -47 -78 -47 -100c0 -29 27 -41 74 -42l-5 -20c-37 2 -79 3 -114 3c-34 0 -54 -1 -75 -3l5 20c27 6 59 29 100 87l431 606h15zM400 288l-17 302l-214 -302h231z" />
    <glyph glyph-name="AE" unicode="&#xc6;" horiz-adv-x="896" 
d="M727 705c61 0 144 0 207 3c-17 -47 -31 -95 -38 -118c-7 -24 -11 -47 -13 -62h-22c5 28 7 51 7 71c0 63 -26 86 -88 86h-93c-66 0 -81 -10 -100 -83l-63 -236h108c60 0 81 54 103 112h22c-17 -52 -23 -80 -34 -122c-8 -29 -14 -56 -26 -122h-22c0 20 5 42 5 62
c0 26 -9 47 -52 50h-109l-64 -240c-5 -21 -9 -37 -9 -49c0 -29 19 -34 66 -34h103c96 0 134 45 179 177h22c-7 -18 -14 -44 -21 -72c-7 -25 -19 -77 -26 -128c-68 3 -159 3 -226 3c-60 0 -190 0 -288 -3l4 20c68 3 84 13 103 86l64 240h-163l-223 -252
c-18 -20 -29 -35 -29 -47c0 -15 18 -24 62 -27v-20c-18 2 -53 3 -86 3c-24 0 -51 -1 -67 -3v20c19 1 49 22 86 64l496 562c2 34 -17 40 -67 42l5 20c36 -1 76 -2 116 -2l59 67h26l-59 -67c58 0 112 -1 145 -1zM431 366l63 236l2 7l-215 -243h150z" />
    <glyph glyph-name="Ccedilla" unicode="&#xc7;" horiz-adv-x="669" 
d="M691 708h21c-20 -52 -41 -123 -64 -230h-22c4 26 6 48 6 68c0 33 -6 59 -16 80c-25 50 -76 78 -131 78c-173 0 -334 -281 -334 -504c0 -131 55 -196 143 -196c56 0 128 27 178 78c36 36 58 80 90 158h22c-33 -121 -50 -189 -59 -240h-22c2 14 3 25 3 34
c0 18 -4 26 -12 26c-5 0 -12 -3 -21 -9c-53 -34 -98 -63 -180 -65l-27 -58c14 4 34 7 51 7c33 0 53 -15 53 -40c0 -58 -89 -83 -153 -83c-47 0 -83 11 -100 22l7 15c10 -4 34 -13 80 -13c30 0 102 11 102 51c0 16 -12 24 -38 24c-9 0 -26 -2 -41 -7l40 82
c-136 6 -216 86 -216 235c0 227 184 501 436 501c86 0 118 -32 149 -65c5 -5 10 -9 15 -9c12 0 24 18 40 60z" />
    <glyph glyph-name="Egrave" unicode="&#xc8;" horiz-adv-x="609" 
d="M292 889c-10 9 -19 24 -19 39c0 7 2 14 7 20c6 7 14 10 22 10c16 0 33 -9 44 -21c29 -31 51 -78 114 -158l-10 -10c-81 66 -126 89 -158 120zM443 705c58 0 140 0 199 3c-17 -47 -32 -95 -38 -118c-7 -24 -12 -47 -14 -62h-23c5 33 9 59 9 80c0 56 -24 77 -101 77h-73
c-68 0 -83 -10 -103 -83l-63 -236h66c87 0 107 84 128 132h23c-25 -76 -32 -109 -41 -142s-17 -66 -32 -142h-23c3 23 8 47 8 68c0 37 -14 64 -69 64h-66l-64 -240c-6 -21 -9 -36 -9 -48c0 -29 20 -35 68 -35h73c125 0 162 45 211 177h23c-7 -18 -15 -44 -22 -72
c-7 -25 -19 -77 -27 -128c-68 3 -162 3 -229 3c-60 0 -192 0 -289 -3l5 20c68 3 83 13 103 86l133 496c6 21 9 37 9 49c0 29 -19 35 -67 37l5 20c98 -3 230 -3 290 -3z" />
    <glyph glyph-name="Eacute" unicode="&#xc9;" horiz-adv-x="609" 
d="M588 866c-46 -27 -109 -39 -222 -94l-7 11c105 71 149 114 196 142c10 6 25 12 38 12c12 0 23 -5 28 -17c1 -3 2 -7 2 -10c0 -18 -18 -35 -35 -44zM443 705c58 0 140 0 199 3c-17 -47 -32 -95 -38 -118c-7 -24 -12 -47 -14 -62h-23c5 33 9 59 9 80c0 56 -24 77 -101 77
h-73c-68 0 -83 -10 -103 -83l-63 -236h66c87 0 107 84 128 132h23c-25 -76 -32 -109 -41 -142s-17 -66 -32 -142h-23c3 23 8 47 8 68c0 37 -14 64 -69 64h-66l-64 -240c-6 -21 -9 -36 -9 -48c0 -29 20 -35 68 -35h73c125 0 162 45 211 177h23c-7 -18 -15 -44 -22 -72
c-7 -25 -19 -77 -27 -128c-68 3 -162 3 -229 3c-60 0 -192 0 -289 -3l5 20c68 3 83 13 103 86l133 496c6 21 9 37 9 49c0 29 -19 35 -67 37l5 20c98 -3 230 -3 290 -3z" />
    <glyph glyph-name="Ecircumflex" unicode="&#xca;" horiz-adv-x="609" 
d="M435 840c-52 -22 -134 -52 -206 -68l-5 14c97 30 184 79 235 130h18c34 -58 71 -103 139 -130l-4 -14c-91 17 -129 42 -177 68zM443 705c58 0 140 0 199 3c-17 -47 -32 -95 -38 -118c-7 -24 -12 -47 -14 -62h-23c5 33 9 59 9 80c0 56 -24 77 -101 77h-73
c-68 0 -83 -10 -103 -83l-63 -236h66c87 0 107 84 128 132h23c-25 -76 -32 -109 -41 -142s-17 -66 -32 -142h-23c3 23 8 47 8 68c0 37 -14 64 -69 64h-66l-64 -240c-6 -21 -9 -36 -9 -48c0 -29 20 -35 68 -35h73c125 0 162 45 211 177h23c-7 -18 -15 -44 -22 -72
c-7 -25 -19 -77 -27 -128c-68 3 -162 3 -229 3c-60 0 -192 0 -289 -3l5 20c68 3 83 13 103 86l133 496c6 21 9 37 9 49c0 29 -19 35 -67 37l5 20c98 -3 230 -3 290 -3z" />
    <glyph glyph-name="Edieresis" unicode="&#xcb;" horiz-adv-x="609" 
d="M311 772c-30 0 -50 22 -50 51c0 31 31 65 67 65c28 0 50 -22 50 -50c0 -33 -31 -66 -67 -66zM523 772c-30 0 -50 22 -50 51c0 31 31 65 67 65c28 0 50 -22 50 -50c0 -33 -31 -66 -67 -66zM443 705c58 0 140 0 199 3c-17 -47 -32 -95 -38 -118c-7 -24 -12 -47 -14 -62h-23
c5 33 9 59 9 80c0 56 -24 77 -101 77h-73c-68 0 -83 -10 -103 -83l-63 -236h66c87 0 107 84 128 132h23c-25 -76 -32 -109 -41 -142s-17 -66 -32 -142h-23c3 23 8 47 8 68c0 37 -14 64 -69 64h-66l-64 -240c-6 -21 -9 -36 -9 -48c0 -29 20 -35 68 -35h73
c125 0 162 45 211 177h23c-7 -18 -15 -44 -22 -72c-7 -25 -19 -77 -27 -128c-68 3 -162 3 -229 3c-60 0 -192 0 -289 -3l5 20c68 3 83 13 103 86l133 496c6 21 9 37 9 49c0 29 -19 35 -67 37l5 20c98 -3 230 -3 290 -3z" />
    <glyph glyph-name="Igrave" unicode="&#xcc;" 
d="M338 779l-10 -10c-81 66 -126 89 -158 120c-10 9 -19 24 -19 39c0 7 2 14 7 20c6 7 14 10 22 10c16 0 33 -9 44 -21c29 -31 51 -78 114 -158zM298 602l-132 -496c-5 -21 -8 -36 -8 -48c0 -30 19 -36 67 -38l-4 -20c-31 2 -81 3 -127 3c-52 0 -98 -1 -127 -3l5 20
c66 3 82 13 101 86l132 496c5 21 8 36 8 48c0 30 -19 36 -67 38l5 20c27 -2 75 -3 127 -3c46 0 96 1 128 3l-5 -20c-69 -3 -84 -13 -103 -86z" />
    <glyph glyph-name="Iacute" unicode="&#xcd;" 
d="M244 772l-7 11c105 71 149 114 196 142c10 6 25 12 38 12c12 0 23 -5 28 -17c1 -3 2 -7 2 -10c0 -18 -18 -35 -35 -44c-46 -27 -109 -39 -222 -94zM298 602l-132 -496c-5 -21 -8 -36 -8 -48c0 -30 19 -36 67 -38l-4 -20c-31 2 -81 3 -127 3c-52 0 -98 -1 -127 -3l5 20
c66 3 82 13 101 86l132 496c5 21 8 36 8 48c0 30 -19 36 -67 38l5 20c27 -2 75 -3 127 -3c46 0 96 1 128 3l-5 -20c-69 -3 -84 -13 -103 -86z" />
    <glyph glyph-name="Icircumflex" unicode="&#xce;" 
d="M313 840c-52 -22 -134 -52 -206 -68l-5 14c97 30 184 79 235 130h18c34 -58 71 -103 139 -130l-4 -14c-91 17 -129 42 -177 68zM298 602l-132 -496c-5 -21 -8 -36 -8 -48c0 -30 19 -36 67 -38l-4 -20c-31 2 -81 3 -127 3c-52 0 -98 -1 -127 -3l5 20c66 3 82 13 101 86
l132 496c5 21 8 36 8 48c0 30 -19 36 -67 38l5 20c27 -2 75 -3 127 -3c46 0 96 1 128 3l-5 -20c-69 -3 -84 -13 -103 -86z" />
    <glyph glyph-name="Idieresis" unicode="&#xcf;" 
d="M139 823c0 31 31 65 67 65c28 0 50 -22 50 -50c0 -33 -31 -66 -67 -66c-30 0 -50 22 -50 51zM351 823c0 31 31 65 67 65c28 0 50 -22 50 -50c0 -33 -31 -66 -67 -66c-30 0 -50 22 -50 51zM298 602l-132 -496c-5 -21 -8 -36 -8 -48c0 -30 19 -36 67 -38l-4 -20
c-31 2 -81 3 -127 3c-52 0 -98 -1 -127 -3l5 20c66 3 82 13 101 86l132 496c5 21 8 36 8 48c0 30 -19 36 -67 38l5 20c27 -2 75 -3 127 -3c46 0 96 1 128 3l-5 -20c-69 -3 -84 -13 -103 -86z" />
    <glyph glyph-name="Eth" unicode="&#xd0;" horiz-adv-x="725" 
d="M422 708c189 0 282 -77 282 -221c0 -250 -199 -487 -474 -487c-30 0 -97 3 -140 3c-47 0 -94 -1 -120 -3l3 20c64 3 81 13 100 86l63 239h-70l6 26h71l61 231c5 21 9 37 9 49c0 26 -16 36 -67 37l3 20c23 -1 61 -3 98 -3h24c46 1 113 3 151 3zM218 18
c257 0 390 234 390 494c0 119 -62 178 -214 178c-61 0 -79 -17 -97 -86l-61 -233h188l-6 -26h-189l-63 -241c-5 -20 -9 -36 -9 -49c0 -25 15 -37 61 -37z" />
    <glyph glyph-name="Ntilde" unicode="&#xd1;" horiz-adv-x="770" 
d="M439 845c-24 0 -47 -16 -70 -58l-18 5c31 74 83 103 130 103c91 0 104 -73 173 -73c24 0 47 16 70 58l18 -5c-31 -74 -83 -103 -130 -103c-91 0 -104 73 -173 73zM812 754c46 0 60 -24 60 -51c0 -33 -20 -72 -59 -72c-30 0 -38 22 -38 39c0 23 15 47 32 63h-3
c-37 -1 -62 -21 -82 -51c-61 -91 -123 -318 -201 -687h-22l-228 644c-52 -267 -117 -571 -176 -650c-24 -32 -54 -63 -107 -63c-47 0 -60 24 -60 52c0 33 20 71 59 71c30 0 38 -22 38 -39c0 -23 -15 -47 -32 -63h3c36 1 63 20 83 52c55 85 109 321 168 625c1 9 2 16 2 22
c0 33 -19 40 -77 42l5 20c21 -2 54 -3 89 -3c30 0 58 1 81 3l189 -553c46 206 105 444 168 535c25 36 59 64 108 64z" />
    <glyph glyph-name="Ograve" unicode="&#xd2;" horiz-adv-x="729" 
d="M533 779l-10 -10c-81 66 -126 89 -158 120c-10 9 -19 24 -19 39c0 7 2 14 7 20c6 7 14 10 22 10c16 0 33 -9 44 -21c29 -31 51 -78 114 -158zM54 226c0 221 165 496 417 496c148 0 236 -87 236 -241c0 -220 -167 -495 -418 -495c-148 0 -235 87 -235 240zM462 704
c-155 0 -302 -250 -302 -491c0 -131 57 -209 138 -209c155 0 302 250 302 491c0 131 -57 209 -138 209z" />
    <glyph glyph-name="Oacute" unicode="&#xd3;" horiz-adv-x="729" 
d="M439 772l-7 11c105 71 149 114 196 142c10 6 25 12 38 12c12 0 23 -5 28 -17c1 -3 2 -7 2 -10c0 -18 -18 -35 -35 -44c-46 -27 -109 -39 -222 -94zM54 226c0 221 165 496 417 496c148 0 236 -87 236 -241c0 -220 -167 -495 -418 -495c-148 0 -235 87 -235 240zM462 704
c-155 0 -302 -250 -302 -491c0 -131 57 -209 138 -209c155 0 302 250 302 491c0 131 -57 209 -138 209z" />
    <glyph glyph-name="Ocircumflex" unicode="&#xd4;" horiz-adv-x="729" 
d="M508 840c-52 -22 -134 -52 -206 -68l-5 14c97 30 184 79 235 130h18c34 -58 71 -103 139 -130l-4 -14c-91 17 -129 42 -177 68zM54 226c0 221 165 496 417 496c148 0 236 -87 236 -241c0 -220 -167 -495 -418 -495c-148 0 -235 87 -235 240zM462 704
c-155 0 -302 -250 -302 -491c0 -131 57 -209 138 -209c155 0 302 250 302 491c0 131 -57 209 -138 209z" />
    <glyph glyph-name="Otilde" unicode="&#xd5;" horiz-adv-x="729" 
d="M457 895c91 0 103 -73 172 -73c24 0 47 16 70 58l18 -5c-31 -74 -83 -103 -130 -103c-91 0 -103 73 -172 73c-24 0 -48 -16 -71 -58l-18 5c31 74 84 103 131 103zM54 226c0 221 165 496 417 496c148 0 236 -87 236 -241c0 -220 -167 -495 -418 -495
c-148 0 -235 87 -235 240zM462 704c-155 0 -302 -250 -302 -491c0 -131 57 -209 138 -209c155 0 302 250 302 491c0 131 -57 209 -138 209z" />
    <glyph glyph-name="Odieresis" unicode="&#xd6;" horiz-adv-x="729" 
d="M334 823c0 31 31 65 67 65c28 0 50 -22 50 -50c0 -33 -31 -66 -67 -66c-30 0 -50 22 -50 51zM546 823c0 31 31 65 67 65c28 0 50 -22 50 -50c0 -33 -31 -66 -67 -66c-30 0 -50 22 -50 51zM54 226c0 221 165 496 417 496c148 0 236 -87 236 -241
c0 -220 -167 -495 -418 -495c-148 0 -235 87 -235 240zM462 704c-155 0 -302 -250 -302 -491c0 -131 57 -209 138 -209c155 0 302 250 302 491c0 131 -57 209 -138 209z" />
    <glyph glyph-name="multiply" unicode="&#xd7;" horiz-adv-x="513" 
d="M250 355l-125 175l26 18l123 -175l227 177l16 -22l-227 -176l125 -173l-25 -18l-124 173l-224 -174l-15 22z" />
    <glyph glyph-name="Oslash" unicode="&#xd8;" horiz-adv-x="729" 
d="M787 760l-120 -128c26 -39 40 -89 40 -151c0 -220 -167 -495 -418 -495c-76 0 -135 23 -175 65l-117 -124l-17 14l120 127c-30 40 -46 93 -46 158c0 221 165 496 417 496c80 0 142 -26 183 -73l118 124zM462 704c-155 0 -302 -250 -302 -491c0 -29 3 -56 8 -80l421 454
c-21 74 -67 117 -127 117zM298 4c155 0 302 250 302 491c0 24 -2 46 -6 67l-419 -454c21 -67 67 -104 123 -104z" />
    <glyph glyph-name="Ugrave" unicode="&#xd9;" horiz-adv-x="682" 
d="M513 779l-10 -10c-81 66 -126 89 -158 120c-10 9 -19 24 -19 39c0 7 2 14 7 20c6 7 14 10 22 10c16 0 33 -9 44 -21c29 -31 51 -78 114 -158zM549 280l82 312c4 18 7 32 7 44c0 38 -23 50 -74 52l5 20c23 -2 67 -3 101 -3s71 1 94 3l-5 -20c-69 -3 -88 -23 -106 -96
l-78 -301c-24 -93 -55 -161 -98 -212c-48 -56 -122 -93 -205 -93c-65 0 -120 15 -154 54c-25 28 -35 60 -35 102c0 40 9 86 25 146l83 314c5 21 8 36 8 48c0 30 -19 36 -67 38l6 20c27 -2 77 -3 129 -3c46 0 93 1 125 3l-6 -20c-69 -3 -84 -13 -103 -86l-88 -331
c-13 -50 -22 -96 -22 -135c0 -69 29 -115 118 -115c149 0 219 110 258 259z" />
    <glyph glyph-name="Uacute" unicode="&#xda;" horiz-adv-x="682" 
d="M419 772l-7 11c105 71 149 114 196 142c10 6 25 12 38 12c12 0 23 -5 28 -17c1 -3 2 -7 2 -10c0 -18 -18 -35 -35 -44c-46 -27 -109 -39 -222 -94zM549 280l82 312c4 18 7 32 7 44c0 38 -23 50 -74 52l5 20c23 -2 67 -3 101 -3s71 1 94 3l-5 -20c-69 -3 -88 -23 -106 -96
l-78 -301c-24 -93 -55 -161 -98 -212c-48 -56 -122 -93 -205 -93c-65 0 -120 15 -154 54c-25 28 -35 60 -35 102c0 40 9 86 25 146l83 314c5 21 8 36 8 48c0 30 -19 36 -67 38l6 20c27 -2 77 -3 129 -3c46 0 93 1 125 3l-6 -20c-69 -3 -84 -13 -103 -86l-88 -331
c-13 -50 -22 -96 -22 -135c0 -69 29 -115 118 -115c149 0 219 110 258 259z" />
    <glyph glyph-name="Ucircumflex" unicode="&#xdb;" horiz-adv-x="682" 
d="M488 840c-52 -22 -134 -52 -206 -68l-5 14c97 30 184 79 235 130h18c34 -58 71 -103 139 -130l-4 -14c-91 17 -129 42 -177 68zM549 280l82 312c4 18 7 32 7 44c0 38 -23 50 -74 52l5 20c23 -2 67 -3 101 -3s71 1 94 3l-5 -20c-69 -3 -88 -23 -106 -96l-78 -301
c-24 -93 -55 -161 -98 -212c-48 -56 -122 -93 -205 -93c-65 0 -120 15 -154 54c-25 28 -35 60 -35 102c0 40 9 86 25 146l83 314c5 21 8 36 8 48c0 30 -19 36 -67 38l6 20c27 -2 77 -3 129 -3c46 0 93 1 125 3l-6 -20c-69 -3 -84 -13 -103 -86l-88 -331
c-13 -50 -22 -96 -22 -135c0 -69 29 -115 118 -115c149 0 219 110 258 259z" />
    <glyph glyph-name="Udieresis" unicode="&#xdc;" horiz-adv-x="682" 
d="M314 823c0 31 31 65 67 65c28 0 50 -22 50 -50c0 -33 -31 -66 -67 -66c-30 0 -50 22 -50 51zM526 823c0 31 31 65 67 65c28 0 50 -22 50 -50c0 -33 -31 -66 -67 -66c-30 0 -50 22 -50 51zM549 280l82 312c4 18 7 32 7 44c0 38 -23 50 -74 52l5 20c23 -2 67 -3 101 -3
s71 1 94 3l-5 -20c-69 -3 -88 -23 -106 -96l-78 -301c-24 -93 -55 -161 -98 -212c-48 -56 -122 -93 -205 -93c-65 0 -120 15 -154 54c-25 28 -35 60 -35 102c0 40 9 86 25 146l83 314c5 21 8 36 8 48c0 30 -19 36 -67 38l6 20c27 -2 77 -3 129 -3c46 0 93 1 125 3l-6 -20
c-69 -3 -84 -13 -103 -86l-88 -331c-13 -50 -22 -96 -22 -135c0 -69 29 -115 118 -115c149 0 219 110 258 259z" />
    <glyph glyph-name="Yacute" unicode="&#xdd;" horiz-adv-x="669" 
d="M637 866c-46 -27 -109 -39 -222 -94l-7 11c105 71 149 114 196 142c10 6 25 12 38 12c12 0 23 -5 28 -17c1 -3 2 -7 2 -10c0 -18 -18 -35 -35 -44zM700 722c42 0 56 -27 56 -54s-17 -69 -59 -69c-29 0 -38 20 -38 40c0 22 14 45 32 62h-3c-21 -1 -39 -10 -55 -22
c-60 -43 -148 -147 -229 -341l-58 -232c-5 -21 -8 -36 -8 -48c0 -30 19 -36 67 -38l-5 -20c-30 2 -78 3 -124 3c-52 0 -102 -1 -131 -3l5 20c68 3 85 13 103 86l59 233c-16 147 -47 328 -117 328c-23 0 -37 -13 -48 -47l-28 -82h-22l33 97c20 58 41 87 98 87
c110 0 143 -142 167 -362c51 128 118 228 187 297c31 31 75 65 118 65z" />
    <glyph glyph-name="Thorn" unicode="&#xde;" horiz-adv-x="604" 
d="M178 152l-12 -46c-5 -21 -8 -36 -8 -48c0 -30 19 -36 67 -38l-4 -20c-31 2 -81 3 -127 3c-52 0 -98 -1 -127 -3l5 20c66 3 82 13 101 86l132 496c5 21 8 36 8 48c0 30 -19 36 -67 38l5 20c27 -2 75 -3 127 -3c46 0 96 1 128 3l-5 -20c-69 -3 -84 -13 -103 -86l-7 -28
c35 0 69 1 105 1c134 0 199 -60 199 -151c0 -157 -153 -272 -377 -272h-40zM184 172h44c198 0 266 119 266 268c0 78 -37 116 -127 116c-42 0 -59 -1 -82 -3z" />
    <glyph glyph-name="germandbls" unicode="&#xdf;" horiz-adv-x="546" 
d="M366 767c-57 0 -90 -49 -124 -178l-201 -763c-32 -1 -64 -5 -90 -14l182 695c47 178 102 275 248 275c100 0 136 -49 136 -101c0 -75 -74 -131 -132 -186c-22 -20 -34 -43 -34 -75c0 -54 35 -88 66 -130c34 -46 59 -92 59 -145c0 -96 -81 -159 -179 -159
c-63 0 -128 26 -128 86c0 30 17 48 39 48c36 0 43 -45 43 -68c0 -15 -3 -26 -6 -38c11 -4 22 -8 42 -8c60 0 105 38 105 104c0 37 -14 83 -52 131c-26 33 -65 72 -65 128c0 66 55 89 101 138c39 41 64 93 64 154c0 73 -31 106 -74 106z" />
    <glyph glyph-name="agrave" unicode="&#xe0;" horiz-adv-x="522" 
d="M366 605l-13 -6c-71 100 -115 140 -143 185c-7 12 -10 23 -10 32c0 14 7 23 16 28c5 2 10 3 15 3c15 0 31 -9 44 -31c26 -45 38 -102 91 -211zM455 163h19l-25 -73c-29 -80 -76 -104 -115 -104c-25 0 -45 10 -55 26c-6 10 -8 22 -8 35c0 24 8 53 15 80l18 73
c-66 -154 -132 -214 -201 -214c-63 0 -94 50 -94 121c0 160 144 421 295 421c35 0 60 -27 64 -75l16 61c32 1 65 5 92 14l-125 -442c-2 -9 -7 -24 -7 -37c0 -14 5 -25 22 -25c26 0 52 25 77 102zM132 18c56 0 154 142 204 309l19 73c0 8 1 15 1 22c0 53 -19 87 -55 87
c-88 0 -204 -237 -204 -414c0 -57 13 -77 35 -77z" />
    <glyph glyph-name="aacute" unicode="&#xe1;" horiz-adv-x="522" 
d="M507 813c5 -5 8 -12 8 -20c0 -12 -7 -26 -23 -42c-37 -39 -94 -68 -188 -152l-10 9c82 97 111 151 150 190c14 16 28 22 41 22c8 0 16 -2 22 -7zM476 528l-125 -442c-2 -9 -7 -24 -7 -37c0 -14 5 -25 22 -25c26 0 52 25 77 102l12 37h19l-25 -73
c-29 -80 -76 -104 -115 -104c-25 0 -45 10 -55 26c-6 10 -8 22 -8 35c0 24 8 53 15 80l18 73c-66 -154 -132 -214 -201 -214c-63 0 -94 50 -94 121c0 160 144 421 295 421c35 0 60 -27 64 -75l16 61c32 1 65 5 92 14zM132 18c56 0 154 142 204 309l19 73c0 8 1 15 1 22
c0 53 -19 87 -55 87c-88 0 -204 -237 -204 -414c0 -57 13 -77 35 -77z" />
    <glyph glyph-name="acircumflex" unicode="&#xe2;" horiz-adv-x="522" 
d="M381 802h18c14 -82 46 -133 119 -172l-4 -14c-83 23 -127 59 -168 104c-46 -36 -111 -78 -175 -104l-5 14c89 38 168 105 215 172zM476 528l-125 -442c-2 -9 -7 -24 -7 -37c0 -14 5 -25 22 -25c26 0 52 25 77 102l12 37h19l-25 -73c-29 -80 -76 -104 -115 -104
c-25 0 -45 10 -55 26c-6 10 -8 22 -8 35c0 24 8 53 15 80l18 73c-66 -154 -132 -214 -201 -214c-63 0 -94 50 -94 121c0 160 144 421 295 421c35 0 60 -27 64 -75l16 61c32 1 65 5 92 14zM132 18c56 0 154 142 204 309l19 73c0 8 1 15 1 22c0 53 -19 87 -55 87
c-88 0 -204 -237 -204 -414c0 -57 13 -77 35 -77z" />
    <glyph glyph-name="atilde" unicode="&#xe3;" horiz-adv-x="522" 
d="M532 753l18 -5c-31 -74 -83 -103 -130 -103c-81 0 -92 73 -153 73c-24 0 -47 -16 -70 -58l-18 5c31 74 83 103 130 103c81 0 92 -73 153 -73c24 0 47 16 70 58zM476 528l-125 -442c-2 -9 -7 -24 -7 -37c0 -14 5 -25 22 -25c26 0 52 25 77 102l12 37h19l-25 -73
c-29 -80 -76 -104 -115 -104c-25 0 -45 10 -55 26c-6 10 -8 22 -8 35c0 24 8 53 15 80l18 73c-66 -154 -132 -214 -201 -214c-63 0 -94 50 -94 121c0 160 144 421 295 421c35 0 60 -27 64 -75l16 61c32 1 65 5 92 14zM132 18c56 0 154 142 204 309l19 73c0 8 1 15 1 22
c0 53 -19 87 -55 87c-88 0 -204 -237 -204 -414c0 -57 13 -77 35 -77z" />
    <glyph glyph-name="adieresis" unicode="&#xe4;" horiz-adv-x="522" 
d="M259 627c-30 0 -50 22 -50 51c0 31 31 65 67 65c28 0 50 -22 50 -50c0 -33 -31 -66 -67 -66zM488 743c28 0 50 -22 50 -50c0 -33 -31 -66 -67 -66c-30 0 -50 22 -50 51c0 31 31 65 67 65zM476 528l-125 -442c-2 -9 -7 -24 -7 -37c0 -14 5 -25 22 -25c26 0 52 25 77 102
l12 37h19l-25 -73c-29 -80 -76 -104 -115 -104c-25 0 -45 10 -55 26c-6 10 -8 22 -8 35c0 24 8 53 15 80l18 73c-66 -154 -132 -214 -201 -214c-63 0 -94 50 -94 121c0 160 144 421 295 421c35 0 60 -27 64 -75l16 61c32 1 65 5 92 14zM132 18c56 0 154 142 204 309l19 73
c0 8 1 15 1 22c0 53 -19 87 -55 87c-88 0 -204 -237 -204 -414c0 -57 13 -77 35 -77z" />
    <glyph glyph-name="aring" unicode="&#xe5;" horiz-adv-x="522" 
d="M365 608c-47 0 -83 30 -83 80c0 58 49 103 109 103c48 0 86 -31 86 -80c0 -56 -53 -103 -112 -103zM387 770c-41 0 -79 -39 -79 -81c0 -40 31 -60 61 -60c42 0 82 35 82 83c0 38 -33 58 -64 58zM476 528l-125 -442c-2 -9 -7 -24 -7 -37c0 -14 5 -25 22 -25
c26 0 52 25 77 102l12 37h19l-25 -73c-29 -80 -76 -104 -115 -104c-25 0 -45 10 -55 26c-6 10 -8 22 -8 35c0 24 8 53 15 80l18 73c-66 -154 -132 -214 -201 -214c-63 0 -94 50 -94 121c0 160 144 421 295 421c35 0 60 -27 64 -75l16 61c32 1 65 5 92 14zM132 18
c56 0 154 142 204 309l19 73c0 8 1 15 1 22c0 53 -19 87 -55 87c-88 0 -204 -237 -204 -414c0 -57 13 -77 35 -77z" />
    <glyph glyph-name="ae" unicode="&#xe6;" horiz-adv-x="659" 
d="M645 452c0 -118 -184 -195 -300 -232c-6 -32 -10 -64 -10 -96c0 -68 27 -96 69 -96c48 0 99 25 150 100l20 -8c-39 -67 -116 -134 -201 -134c-64 0 -109 30 -125 89c-38 -59 -87 -89 -145 -89c-69 0 -100 46 -100 111c0 175 190 421 355 421c23 0 49 -8 66 -35
c38 28 81 45 127 45c53 0 94 -25 94 -76zM529 509c-59 0 -146 -126 -180 -270c59 21 108 42 138 65c48 38 78 94 78 160c0 28 -13 45 -36 45zM135 18c30 0 71 22 108 80c-1 9 -2 19 -2 29c0 104 67 263 170 346c-16 21 -38 24 -46 24c-106 0 -274 -202 -274 -412
c0 -40 13 -67 44 -67z" />
    <glyph glyph-name="ccedilla" unicode="&#xe7;" horiz-adv-x="432" 
d="M320 528c59 0 108 -32 108 -85c0 -38 -27 -80 -71 -80c-28 0 -41 18 -41 39c0 39 36 68 75 75c-13 19 -34 31 -68 31c-102 0 -212 -181 -212 -384c0 -68 28 -96 70 -96c48 0 99 25 150 100l20 -8c-39 -67 -116 -134 -201 -134l-27 -58c11 4 27 7 41 7c27 0 43 -15 43 -40
c0 -58 -71 -83 -123 -83c-37 0 -67 11 -80 22l7 15c9 -4 27 -13 60 -13c21 0 72 11 72 51c0 16 -9 24 -28 24c-7 0 -20 -2 -31 -7l40 84c-65 10 -106 58 -106 145c0 154 115 395 302 395z" />
    <glyph glyph-name="egrave" unicode="&#xe8;" horiz-adv-x="429" 
d="M341 605l-13 -6c-71 100 -115 140 -143 185c-7 12 -10 23 -10 32c0 14 7 23 16 28c5 2 11 3 16 3c15 0 30 -9 43 -31c26 -45 38 -102 91 -211zM416 462c0 -122 -184 -202 -299 -241c-7 -32 -11 -65 -11 -97c0 -68 27 -96 69 -96c48 0 103 25 154 100l16 -8
c-39 -67 -116 -134 -201 -134c-81 0 -132 48 -132 141c0 145 140 401 330 401c41 0 74 -22 74 -66zM320 509c-65 0 -161 -125 -198 -269c59 21 107 41 136 64c48 38 78 94 78 160c0 38 -6 45 -16 45z" />
    <glyph glyph-name="eacute" unicode="&#xe9;" horiz-adv-x="429" 
d="M482 813c5 -5 8 -12 8 -20c0 -12 -7 -26 -23 -42c-37 -39 -94 -68 -188 -152l-10 9c82 97 111 151 150 190c14 16 28 22 41 22c8 0 16 -2 22 -7zM342 528c41 0 74 -22 74 -66c0 -122 -184 -202 -299 -241c-7 -32 -11 -65 -11 -97c0 -68 27 -96 69 -96
c48 0 103 25 154 100l16 -8c-39 -67 -116 -134 -201 -134c-81 0 -132 48 -132 141c0 145 140 401 330 401zM258 304c48 38 78 94 78 160c0 38 -6 45 -16 45c-65 0 -161 -125 -198 -269c59 21 107 41 136 64z" />
    <glyph glyph-name="ecircumflex" unicode="&#xea;" horiz-adv-x="429" 
d="M356 802h18c14 -82 46 -133 119 -172l-4 -14c-83 23 -127 59 -168 104c-46 -36 -111 -78 -175 -104l-5 14c89 38 168 105 215 172zM342 528c41 0 74 -22 74 -66c0 -122 -184 -202 -299 -241c-7 -32 -11 -65 -11 -97c0 -68 27 -96 69 -96c48 0 103 25 154 100l16 -8
c-39 -67 -116 -134 -201 -134c-81 0 -132 48 -132 141c0 145 140 401 330 401zM258 304c48 38 78 94 78 160c0 38 -6 45 -16 45c-65 0 -161 -125 -198 -269c59 21 107 41 136 64z" />
    <glyph glyph-name="edieresis" unicode="&#xeb;" horiz-adv-x="429" 
d="M234 627c-30 0 -50 22 -50 51c0 31 31 65 67 65c28 0 50 -22 50 -50c0 -33 -31 -66 -67 -66zM463 743c28 0 50 -22 50 -50c0 -33 -31 -66 -67 -66c-30 0 -50 22 -50 51c0 31 31 65 67 65zM342 528c41 0 74 -22 74 -66c0 -122 -184 -202 -299 -241c-7 -32 -11 -65 -11 -97
c0 -68 27 -96 69 -96c48 0 103 25 154 100l16 -8c-39 -67 -116 -134 -201 -134c-81 0 -132 48 -132 141c0 145 140 401 330 401zM258 304c48 38 78 94 78 160c0 38 -6 45 -16 45c-65 0 -161 -125 -198 -269c59 21 107 41 136 64z" />
    <glyph glyph-name="igrave" unicode="&#xec;" horiz-adv-x="301" 
d="M235 605l-13 -6c-71 100 -115 140 -143 185c-7 12 -10 23 -10 32c0 14 7 23 16 28c5 2 11 3 16 3c15 0 30 -9 43 -31c26 -45 38 -102 91 -211zM51 126l107 303c5 15 8 27 8 37c0 17 -8 25 -22 25c-31 0 -53 -33 -79 -102l-14 -37h-19l26 73c30 84 83 103 124 103
c50 0 67 -28 67 -63c0 -24 -8 -52 -17 -77l-107 -303c-5 -15 -8 -27 -8 -37c0 -16 8 -25 24 -25c27 0 49 25 78 102l14 37h19l-26 -73c-28 -78 -77 -103 -123 -103c-52 0 -70 25 -70 61c0 23 8 51 18 79z" />
    <glyph glyph-name="iacute" unicode="&#xed;" horiz-adv-x="301" 
d="M173 599l-10 9c82 97 111 151 150 190c14 16 28 22 41 22c8 0 16 -2 22 -7c5 -5 8 -12 8 -20c0 -12 -7 -26 -23 -42c-37 -39 -94 -68 -188 -152zM51 126l107 303c5 15 8 27 8 37c0 17 -8 25 -22 25c-31 0 -53 -33 -79 -102l-14 -37h-19l26 73c30 84 83 103 124 103
c50 0 67 -28 67 -63c0 -24 -8 -52 -17 -77l-107 -303c-5 -15 -8 -27 -8 -37c0 -16 8 -25 24 -25c27 0 49 25 78 102l14 37h19l-26 -73c-28 -78 -77 -103 -123 -103c-52 0 -70 25 -70 61c0 23 8 51 18 79z" />
    <glyph glyph-name="icircumflex" unicode="&#xee;" horiz-adv-x="301" 
d="M215 720c-46 -36 -111 -78 -175 -104l-5 14c89 38 168 105 215 172h18c14 -82 46 -133 119 -172l-4 -14c-83 23 -127 59 -168 104zM51 126l107 303c5 15 8 27 8 37c0 17 -8 25 -22 25c-31 0 -53 -33 -79 -102l-14 -37h-19l26 73c30 84 83 103 124 103c50 0 67 -28 67 -63
c0 -24 -8 -52 -17 -77l-107 -303c-5 -15 -8 -27 -8 -37c0 -16 8 -25 24 -25c27 0 49 25 78 102l14 37h19l-26 -73c-28 -78 -77 -103 -123 -103c-52 0 -70 25 -70 61c0 23 8 51 18 79z" />
    <glyph glyph-name="idieresis" unicode="&#xef;" horiz-adv-x="301" 
d="M78 678c0 31 32 65 68 65c28 0 49 -22 49 -50c0 -33 -31 -66 -67 -66c-30 0 -50 22 -50 51zM291 678c0 31 30 65 66 65c28 0 50 -22 50 -50c0 -33 -31 -66 -67 -66c-30 0 -49 22 -49 51zM51 126l107 303c5 15 8 27 8 37c0 17 -8 25 -22 25c-31 0 -53 -33 -79 -102
l-14 -37h-19l26 73c30 84 83 103 124 103c50 0 67 -28 67 -63c0 -24 -8 -52 -17 -77l-107 -303c-5 -15 -8 -27 -8 -37c0 -16 8 -25 24 -25c27 0 49 25 78 102l14 37h19l-26 -73c-28 -78 -77 -103 -123 -103c-52 0 -70 25 -70 61c0 23 8 51 18 79z" />
    <glyph glyph-name="eth" unicode="&#xf0;" horiz-adv-x="486" 
d="M497 742l-152 -67c63 -67 102 -159 102 -281c0 -170 -102 -408 -289 -408c-83 0 -137 51 -137 157c0 147 102 385 280 385c24 0 41 -7 53 -15c-10 58 -30 104 -56 141l-184 -82l-6 18l179 79c-34 43 -77 73 -122 96l12 17c59 -22 112 -53 154 -93l160 71zM164 6
c108 0 197 236 197 415c0 26 -2 50 -5 72c-13 10 -29 15 -55 15c-104 0 -194 -237 -194 -415c0 -60 19 -87 57 -87z" />
    <glyph glyph-name="ntilde" unicode="&#xf1;" horiz-adv-x="580" 
d="M279 718c-24 0 -47 -16 -70 -58l-18 5c31 74 83 103 130 103c81 0 92 -73 153 -73c24 0 47 16 70 58l18 -5c-31 -74 -83 -103 -130 -103c-81 0 -92 73 -153 73zM511 162h19l-25 -73c-29 -84 -80 -103 -121 -103c-32 0 -52 11 -63 29c-5 9 -8 20 -8 33c0 21 7 48 17 78
l95 286c4 13 10 32 10 49c0 19 -7 35 -32 35c-79 0 -193 -184 -263 -426l-18 -70h-87l120 429c3 11 7 26 7 38c0 14 -5 24 -22 24c-29 0 -49 -24 -77 -102l-13 -37h-19l25 73c29 84 76 103 119 103c46 0 59 -25 59 -59c0 -24 -7 -54 -14 -81l-34 -137
c86 205 159 277 250 277c61 0 81 -32 81 -75c0 -23 -7 -50 -15 -76l-97 -292c-5 -15 -8 -28 -8 -38c0 -15 7 -24 24 -24c25 0 49 22 77 102z" />
    <glyph glyph-name="ograve" unicode="&#xf2;" horiz-adv-x="487" 
d="M361 605l-13 -6c-71 100 -115 140 -143 185c-7 12 -10 23 -10 32c0 14 7 23 16 28c5 2 11 3 16 3c15 0 30 -9 43 -31c26 -45 38 -102 91 -211zM21 143c0 147 102 385 289 385c83 0 137 -51 137 -157c0 -147 -102 -385 -289 -385c-83 0 -137 51 -137 157zM304 508
c-107 0 -197 -237 -197 -415c0 -60 19 -87 57 -87c108 0 197 236 197 415c0 61 -19 87 -57 87z" />
    <glyph glyph-name="oacute" unicode="&#xf3;" horiz-adv-x="487" 
d="M299 599l-10 9c82 97 111 151 150 190c14 16 28 22 41 22c8 0 16 -2 22 -7c5 -5 8 -12 8 -20c0 -12 -7 -26 -23 -42c-37 -39 -94 -68 -188 -152zM21 143c0 147 102 385 289 385c83 0 137 -51 137 -157c0 -147 -102 -385 -289 -385c-83 0 -137 51 -137 157zM304 508
c-107 0 -197 -237 -197 -415c0 -60 19 -87 57 -87c108 0 197 236 197 415c0 61 -19 87 -57 87z" />
    <glyph glyph-name="ocircumflex" unicode="&#xf4;" horiz-adv-x="487" 
d="M341 720c-46 -36 -111 -78 -175 -104l-5 14c89 38 168 105 215 172h18c14 -82 46 -133 119 -172l-4 -14c-83 23 -127 59 -168 104zM21 143c0 147 102 385 289 385c83 0 137 -51 137 -157c0 -147 -102 -385 -289 -385c-83 0 -137 51 -137 157zM304 508
c-107 0 -197 -237 -197 -415c0 -60 19 -87 57 -87c108 0 197 236 197 415c0 61 -19 87 -57 87z" />
    <glyph glyph-name="otilde" unicode="&#xf5;" horiz-adv-x="487" 
d="M304 768c81 0 92 -73 153 -73c24 0 47 16 70 58l18 -5c-31 -74 -83 -103 -130 -103c-81 0 -92 73 -153 73c-24 0 -47 -16 -70 -58l-18 5c31 74 83 103 130 103zM21 143c0 147 102 385 289 385c83 0 137 -51 137 -157c0 -147 -102 -385 -289 -385c-83 0 -137 51 -137 157z
M304 508c-107 0 -197 -237 -197 -415c0 -60 19 -87 57 -87c108 0 197 236 197 415c0 61 -19 87 -57 87z" />
    <glyph glyph-name="odieresis" unicode="&#xf6;" horiz-adv-x="487" 
d="M204 678c0 31 31 65 67 65c28 0 50 -22 50 -50c0 -33 -31 -66 -67 -66c-30 0 -50 22 -50 51zM417 678c0 31 30 65 66 65c28 0 50 -22 50 -50c0 -33 -31 -66 -67 -66c-30 0 -49 22 -49 51zM21 143c0 147 102 385 289 385c83 0 137 -51 137 -157
c0 -147 -102 -385 -289 -385c-83 0 -137 51 -137 157zM304 508c-107 0 -197 -237 -197 -415c0 -60 19 -87 57 -87c108 0 197 236 197 415c0 61 -19 87 -57 87z" />
    <glyph glyph-name="divide" unicode="&#xf7;" horiz-adv-x="657" 
d="M334 499c9 30 41 55 71 55c26 0 42 -17 42 -40c0 -5 -1 -10 -2 -15c-9 -31 -41 -55 -72 -55c-25 0 -41 16 -41 39c0 5 1 11 2 16zM96 370h501l-9 -30h-501zM251 211c9 30 41 55 71 55c26 0 42 -16 42 -39c0 -5 -1 -11 -2 -16c-9 -31 -41 -56 -72 -56c-25 0 -41 17 -41 40
c0 5 1 11 2 16z" />
    <glyph glyph-name="oslash" unicode="&#xf8;" horiz-adv-x="487" 
d="M510 574l-86 -105c15 -24 23 -57 23 -98c0 -147 -102 -385 -289 -385c-42 0 -75 12 -99 38l-81 -97l-14 13l82 100c-16 25 -25 60 -25 103c0 147 102 385 289 385c44 0 79 -14 103 -43l84 101zM304 508c-105 0 -194 -227 -197 -404l254 328c-2 53 -22 76 -57 76zM164 6
c104 0 190 219 196 395l-252 -329c4 -45 23 -66 56 -66z" />
    <glyph glyph-name="ugrave" unicode="&#xf9;" horiz-adv-x="566" 
d="M351 605l-13 -6c-71 100 -115 140 -143 185c-7 12 -10 23 -10 32c0 14 7 23 16 28c5 2 10 3 15 3c15 0 31 -9 44 -31c26 -45 38 -102 91 -211zM499 162h19l-25 -73c-29 -84 -80 -103 -121 -103c-21 0 -42 9 -51 27c-4 8 -6 18 -6 31c0 20 5 45 14 82l32 125
c-80 -195 -150 -265 -234 -265c-60 0 -85 30 -85 77c0 21 6 47 15 74l97 292c5 15 8 28 8 38c0 16 -8 24 -24 24c-25 0 -49 -22 -77 -102l-13 -37h-19l25 73c29 84 80 103 121 103c53 0 70 -26 70 -62c0 -23 -7 -51 -16 -78l-95 -286c-7 -21 -10 -37 -10 -50
c0 -23 11 -34 32 -34c77 0 186 180 256 437l15 59c33 1 66 5 91 14l-124 -443c-4 -15 -7 -29 -7 -39c0 -14 5 -23 21 -23c29 0 52 28 78 102z" />
    <glyph glyph-name="uacute" unicode="&#xfa;" horiz-adv-x="566" 
d="M477 751c-37 -39 -94 -68 -188 -152l-10 9c82 97 111 151 150 190c14 16 28 22 41 22c8 0 16 -2 22 -7c5 -5 8 -12 8 -20c0 -12 -7 -26 -23 -42zM499 162h19l-25 -73c-29 -84 -80 -103 -121 -103c-21 0 -42 9 -51 27c-4 8 -6 18 -6 31c0 20 5 45 14 82l32 125
c-80 -195 -150 -265 -234 -265c-60 0 -85 30 -85 77c0 21 6 47 15 74l97 292c5 15 8 28 8 38c0 16 -8 24 -24 24c-25 0 -49 -22 -77 -102l-13 -37h-19l25 73c29 84 80 103 121 103c53 0 70 -26 70 -62c0 -23 -7 -51 -16 -78l-95 -286c-7 -21 -10 -37 -10 -50
c0 -23 11 -34 32 -34c77 0 186 180 256 437l15 59c33 1 66 5 91 14l-124 -443c-4 -15 -7 -29 -7 -39c0 -14 5 -23 21 -23c29 0 52 28 78 102z" />
    <glyph glyph-name="ucircumflex" unicode="&#xfb;" horiz-adv-x="566" 
d="M331 720c-46 -36 -111 -78 -175 -104l-5 14c89 38 168 105 215 172h18c14 -82 46 -133 119 -172l-4 -14c-83 23 -127 59 -168 104zM499 162h19l-25 -73c-29 -84 -80 -103 -121 -103c-21 0 -42 9 -51 27c-4 8 -6 18 -6 31c0 20 5 45 14 82l32 125
c-80 -195 -150 -265 -234 -265c-60 0 -85 30 -85 77c0 21 6 47 15 74l97 292c5 15 8 28 8 38c0 16 -8 24 -24 24c-25 0 -49 -22 -77 -102l-13 -37h-19l25 73c29 84 80 103 121 103c53 0 70 -26 70 -62c0 -23 -7 -51 -16 -78l-95 -286c-7 -21 -10 -37 -10 -50
c0 -23 11 -34 32 -34c77 0 186 180 256 437l15 59c33 1 66 5 91 14l-124 -443c-4 -15 -7 -29 -7 -39c0 -14 5 -23 21 -23c29 0 52 28 78 102z" />
    <glyph glyph-name="udieresis" unicode="&#xfc;" horiz-adv-x="566" 
d="M244 627c-30 0 -50 22 -50 51c0 31 31 65 67 65c28 0 50 -22 50 -50c0 -33 -31 -66 -67 -66zM456 627c-30 0 -50 22 -50 51c0 31 31 65 67 65c28 0 50 -22 50 -50c0 -33 -31 -66 -67 -66zM518 528l-124 -443c-4 -15 -7 -29 -7 -39c0 -14 5 -23 21 -23c29 0 52 28 78 102
l13 37h19l-25 -73c-29 -84 -80 -103 -121 -103c-21 0 -42 9 -51 27c-4 8 -6 18 -6 31c0 20 5 45 14 82l32 125c-80 -195 -150 -265 -234 -265c-60 0 -85 30 -85 77c0 21 6 47 15 74l97 292c5 15 8 28 8 38c0 16 -8 24 -24 24c-25 0 -49 -22 -77 -102l-13 -37h-19l25 73
c29 84 80 103 121 103c53 0 70 -26 70 -62c0 -23 -7 -51 -16 -78l-95 -286c-7 -21 -10 -37 -10 -50c0 -23 11 -34 32 -34c77 0 186 180 256 437l15 59c33 1 66 5 91 14z" />
    <glyph glyph-name="yacute" unicode="&#xfd;" horiz-adv-x="480" 
d="M445 751c-37 -39 -94 -68 -188 -152l-10 9c82 97 111 151 150 190c14 16 28 22 41 22c8 0 16 -2 22 -7c5 -5 8 -12 8 -20c0 -12 -7 -26 -23 -42zM406 528c36 0 52 -28 52 -81c0 -135 -102 -325 -197 -444c-32 -40 -101 -120 -197 -166c-40 -19 -69 -25 -87 -25
c-27 0 -50 14 -50 41c0 29 26 45 54 45c31 0 58 -19 83 -39c45 24 96 61 150 120l-74 448c-7 41 -15 55 -32 55c-15 0 -32 -16 -59 -92l-13 -37h-19l25 73c28 81 72 102 115 102c41 0 62 -21 72 -92l51 -376c69 95 128 211 151 325c-31 17 -76 48 -76 92c0 33 22 51 51 51z
" />
    <glyph glyph-name="thorn" unicode="&#xfe;" horiz-adv-x="550" 
d="M409 528c63 0 104 -46 104 -141c0 -151 -106 -401 -293 -401c-36 0 -67 20 -81 57l-38 -131c-2 -9 -4 -17 -4 -24c0 -37 34 -48 85 -48l-6 -21c-27 1 -80 4 -134 4c-42 0 -90 -3 -111 -4l6 21c48 0 65 15 78 62l189 667c-44 -96 -104 -162 -171 -225l-11 13
c77 75 139 138 205 296l36 128c32 1 64 5 91 14l-126 -441c61 128 117 174 181 174zM219 9c113 0 208 250 208 400c0 59 -18 87 -47 87c-53 0 -137 -113 -183 -250l-51 -177c18 -45 41 -60 73 -60z" />
    <glyph glyph-name="ydieresis" unicode="&#xff;" horiz-adv-x="480" 
d="M212 627c-30 0 -50 22 -50 51c0 31 31 65 67 65c28 0 50 -22 50 -50c0 -33 -31 -66 -67 -66zM441 743c28 0 50 -22 50 -50c0 -33 -31 -66 -67 -66c-30 0 -49 22 -49 51c0 31 30 65 66 65zM406 528c36 0 52 -28 52 -81c0 -135 -102 -325 -197 -444
c-32 -40 -101 -120 -197 -166c-40 -19 -69 -25 -87 -25c-27 0 -50 14 -50 41c0 29 26 45 54 45c31 0 58 -19 83 -39c45 24 96 61 150 120l-74 448c-7 41 -15 55 -32 55c-15 0 -32 -16 -59 -92l-13 -37h-19l25 73c28 81 72 102 115 102c41 0 62 -21 72 -92l51 -376
c69 95 128 211 151 325c-31 17 -76 48 -76 92c0 33 22 51 51 51z" />
    <glyph glyph-name="Amacron" unicode="&#x100;" horiz-adv-x="628" 
d="M637 844l-6 -25h-352l6 25h352zM464 713l40 -629c4 -48 29 -63 49 -64l-4 -20c-27 2 -71 3 -109 3c-48 0 -94 -1 -120 -3l4 20c64 3 89 16 86 84l-9 164h-246l-75 -106c-32 -45 -47 -78 -47 -100c0 -29 27 -41 74 -42l-5 -20c-37 2 -79 3 -114 3c-34 0 -54 -1 -75 -3
l5 20c27 6 59 29 100 87l431 606h15zM400 288l-17 302l-214 -302h231z" />
    <glyph glyph-name="amacron" unicode="&#x101;" horiz-adv-x="522" 
d="M531 712l-6 -25h-312l6 25h312zM476 528l-125 -442c-2 -9 -7 -24 -7 -37c0 -14 5 -25 22 -25c26 0 52 25 77 102l12 37h19l-25 -73c-29 -80 -76 -104 -115 -104c-25 0 -45 10 -55 26c-6 10 -8 22 -8 35c0 24 8 53 15 80l18 73c-66 -154 -132 -214 -201 -214
c-63 0 -94 50 -94 121c0 160 144 421 295 421c35 0 60 -27 64 -75l16 61c32 1 65 5 92 14zM132 18c56 0 154 142 204 309l19 73c0 8 1 15 1 22c0 53 -19 87 -55 87c-88 0 -204 -237 -204 -414c0 -57 13 -77 35 -77z" />
    <glyph glyph-name="Abreve" unicode="&#x102;" horiz-adv-x="628" 
d="M461 782c-86 0 -137 52 -151 116l16 5c35 -41 79 -54 152 -54c69 0 157 20 221 58l10 -11c-52 -52 -164 -114 -248 -114zM464 713l40 -629c4 -48 29 -63 49 -64l-4 -20c-27 2 -71 3 -109 3c-48 0 -94 -1 -120 -3l4 20c64 3 89 16 86 84l-9 164h-246l-75 -106
c-32 -45 -47 -78 -47 -100c0 -29 27 -41 74 -42l-5 -20c-37 2 -79 3 -114 3c-34 0 -54 -1 -75 -3l5 20c27 6 59 29 100 87l431 606h15zM400 288l-17 302l-214 -302h231z" />
    <glyph glyph-name="abreve" unicode="&#x103;" horiz-adv-x="522" 
d="M574 788l10 -11c-48 -67 -156 -144 -234 -144c-74 0 -113 66 -125 146l16 5c31 -63 63 -84 126 -84s149 32 207 88zM476 528l-125 -442c-2 -9 -7 -24 -7 -37c0 -14 5 -25 22 -25c26 0 52 25 77 102l12 37h19l-25 -73c-29 -80 -76 -104 -115 -104c-25 0 -45 10 -55 26
c-6 10 -8 22 -8 35c0 24 8 53 15 80l18 73c-66 -154 -132 -214 -201 -214c-63 0 -94 50 -94 121c0 160 144 421 295 421c35 0 60 -27 64 -75l16 61c32 1 65 5 92 14zM132 18c56 0 154 142 204 309l19 73c0 8 1 15 1 22c0 53 -19 87 -55 87c-88 0 -204 -237 -204 -414
c0 -57 13 -77 35 -77z" />
    <glyph glyph-name="Aogonek" unicode="&#x104;" horiz-adv-x="628" 
d="M546 -114l11 -17c-42 -40 -86 -57 -129 -57c-49 0 -74 23 -74 58c0 66 90 111 153 132c-21 0 -45 1 -67 1c-48 0 -94 -1 -120 -3l4 20c64 3 89 16 86 84l-9 164h-246l-75 -106c-32 -45 -47 -78 -47 -100c0 -29 27 -41 74 -42l-5 -20c-37 2 -79 3 -114 3
c-34 0 -54 -1 -75 -3l5 20c27 6 59 29 100 87l431 606h15l40 -629c4 -48 29 -63 49 -64l-4 -20h-9c-50 -16 -110 -50 -110 -103c0 -25 14 -37 39 -37c27 0 60 13 77 26zM400 288l-17 302l-214 -302h231z" />
    <glyph glyph-name="aogonek" unicode="&#x105;" horiz-adv-x="522" 
d="M455 163h19l-25 -73c-27 -74 -69 -101 -106 -104c-37 -19 -73 -48 -73 -88c0 -25 14 -38 38 -38c25 0 53 13 68 31l12 -11c-39 -47 -79 -68 -122 -68c-46 0 -72 24 -72 59c0 54 61 94 118 118c-15 4 -26 12 -33 23c-6 10 -8 22 -8 35c0 24 8 53 15 80l18 73
c-66 -154 -132 -214 -201 -214c-63 0 -94 50 -94 121c0 160 144 421 295 421c35 0 60 -27 64 -75l16 61c32 1 65 5 92 14l-125 -442c-2 -9 -7 -24 -7 -37c0 -14 5 -25 22 -25c26 0 52 25 77 102zM132 18c56 0 154 142 204 309l19 73c0 8 1 15 1 22c0 53 -19 87 -55 87
c-88 0 -204 -237 -204 -414c0 -57 13 -77 35 -77z" />
    <glyph glyph-name="Cacute" unicode="&#x106;" horiz-adv-x="669" 
d="M437 772l-7 11c105 71 149 114 196 142c10 6 25 12 38 12c12 0 23 -5 28 -17c1 -3 2 -7 2 -10c0 -18 -18 -35 -35 -44c-46 -27 -109 -39 -222 -94zM691 708h21c-20 -52 -41 -123 -64 -230h-22c4 26 6 48 6 68c0 33 -6 59 -16 80c-25 50 -76 78 -131 78
c-173 0 -334 -281 -334 -504c0 -131 55 -196 143 -196c56 0 128 27 178 78c36 36 58 80 90 158h22c-33 -121 -50 -189 -59 -240h-22c2 14 3 25 3 34c0 18 -4 26 -12 26c-5 0 -12 -3 -21 -9c-55 -36 -101 -65 -189 -65c-147 0 -233 80 -233 235c0 227 184 501 436 501
c86 0 118 -32 149 -65c5 -5 10 -9 15 -9c12 0 24 18 40 60z" />
    <glyph glyph-name="cacute" unicode="&#x107;" horiz-adv-x="432" 
d="M280 599l-10 9c82 97 111 151 150 190c14 16 28 22 41 22c8 0 16 -2 22 -7c5 -5 8 -12 8 -20c0 -12 -7 -26 -23 -42c-37 -39 -94 -68 -188 -152zM323 508c-102 0 -212 -181 -212 -384c0 -68 28 -96 70 -96c48 0 99 25 150 100l20 -8c-39 -67 -116 -134 -201 -134
c-80 0 -132 49 -132 147c0 154 115 395 302 395c59 0 108 -32 108 -85c0 -38 -27 -80 -71 -80c-28 0 -41 18 -41 39c0 39 36 68 75 75c-13 19 -34 31 -68 31z" />
    <glyph glyph-name="Ccircumflex" unicode="&#x108;" horiz-adv-x="669" 
d="M506 840c-52 -22 -134 -52 -206 -68l-5 14c97 30 184 79 235 130h18c34 -58 72 -103 140 -130l-5 -14c-91 17 -129 42 -177 68zM691 708h21c-20 -52 -41 -123 -64 -230h-22c4 26 6 48 6 68c0 33 -6 59 -16 80c-25 50 -76 78 -131 78c-173 0 -334 -281 -334 -504
c0 -131 55 -196 143 -196c56 0 128 27 178 78c36 36 58 80 90 158h22c-33 -121 -50 -189 -59 -240h-22c2 14 3 25 3 34c0 18 -4 26 -12 26c-5 0 -12 -3 -21 -9c-55 -36 -101 -65 -189 -65c-147 0 -233 80 -233 235c0 227 184 501 436 501c86 0 118 -32 149 -65
c5 -5 10 -9 15 -9c12 0 24 18 40 60z" />
    <glyph glyph-name="ccircumflex" unicode="&#x109;" horiz-adv-x="432" 
d="M322 720c-46 -36 -111 -78 -175 -104l-5 14c89 38 168 105 215 172h18c14 -82 46 -133 119 -172l-4 -14c-83 23 -127 59 -168 104zM323 508c-102 0 -212 -181 -212 -384c0 -68 28 -96 70 -96c48 0 99 25 150 100l20 -8c-39 -67 -116 -134 -201 -134
c-80 0 -132 49 -132 147c0 154 115 395 302 395c59 0 108 -32 108 -85c0 -38 -27 -80 -71 -80c-28 0 -41 18 -41 39c0 39 36 68 75 75c-13 19 -34 31 -68 31z" />
    <glyph glyph-name="Cdotaccent" unicode="&#x10a;" horiz-adv-x="669" 
d="M464 825c0 35 32 75 74 75c31 0 51 -23 51 -53c0 -36 -33 -75 -75 -75c-30 0 -50 23 -50 53zM691 708h21c-20 -52 -41 -123 -64 -230h-22c4 26 6 48 6 68c0 33 -6 59 -16 80c-25 50 -76 78 -131 78c-173 0 -334 -281 -334 -504c0 -131 55 -196 143 -196
c56 0 128 27 178 78c36 36 58 80 90 158h22c-33 -121 -50 -189 -59 -240h-22c2 14 3 25 3 34c0 18 -4 26 -12 26c-5 0 -12 -3 -21 -9c-55 -36 -101 -65 -189 -65c-147 0 -233 80 -233 235c0 227 184 501 436 501c86 0 118 -32 149 -65c5 -5 10 -9 15 -9c12 0 24 18 40 60z
" />
    <glyph glyph-name="cdotaccent" unicode="&#x10b;" horiz-adv-x="432" 
d="M288 688c0 35 31 77 74 77c31 0 51 -22 51 -51c0 -36 -32 -77 -75 -77c-30 0 -50 22 -50 51zM323 508c-102 0 -212 -181 -212 -384c0 -68 28 -96 70 -96c48 0 99 25 150 100l20 -8c-39 -67 -116 -134 -201 -134c-80 0 -132 49 -132 147c0 154 115 395 302 395
c59 0 108 -32 108 -85c0 -38 -27 -80 -71 -80c-28 0 -41 18 -41 39c0 39 36 68 75 75c-13 19 -34 31 -68 31z" />
    <glyph glyph-name="Ccaron" unicode="&#x10c;" horiz-adv-x="669" 
d="M525 856c52 22 134 52 206 68l5 -14c-97 -30 -184 -79 -235 -130h-18c-34 58 -71 103 -139 130l4 14c91 -17 129 -42 177 -68zM691 708h21c-20 -52 -41 -123 -64 -230h-22c4 26 6 48 6 68c0 33 -6 59 -16 80c-25 50 -76 78 -131 78c-173 0 -334 -281 -334 -504
c0 -131 55 -196 143 -196c56 0 128 27 178 78c36 36 58 80 90 158h22c-33 -121 -50 -189 -59 -240h-22c2 14 3 25 3 34c0 18 -4 26 -12 26c-5 0 -12 -3 -21 -9c-55 -36 -101 -65 -189 -65c-147 0 -233 80 -233 235c0 227 184 501 436 501c86 0 118 -32 149 -65
c5 -5 10 -9 15 -9c12 0 24 18 40 60z" />
    <glyph glyph-name="ccaron" unicode="&#x10d;" horiz-adv-x="432" 
d="M368 698c46 36 111 78 175 104l5 -14c-89 -38 -168 -105 -215 -172h-18c-14 82 -46 133 -119 172l4 14c83 -23 127 -59 168 -104zM323 508c-102 0 -212 -181 -212 -384c0 -68 28 -96 70 -96c48 0 99 25 150 100l20 -8c-39 -67 -116 -134 -201 -134
c-80 0 -132 49 -132 147c0 154 115 395 302 395c59 0 108 -32 108 -85c0 -38 -27 -80 -71 -80c-28 0 -41 18 -41 39c0 39 36 68 75 75c-13 19 -34 31 -68 31z" />
    <glyph glyph-name="Dcaron" unicode="&#x10e;" horiz-adv-x="725" 
d="M444 856c52 22 134 52 206 68l5 -14c-97 -30 -184 -79 -235 -130h-18c-34 58 -71 103 -139 130l4 14c91 -17 129 -42 177 -68zM704 487c0 -250 -199 -487 -474 -487c-30 0 -97 3 -140 3c-47 0 -94 -1 -120 -3l3 20c64 3 81 13 100 86l131 496c5 21 9 37 9 49
c0 26 -16 36 -67 37l3 20c23 -1 61 -3 98 -3h24c46 1 113 3 151 3c189 0 282 -77 282 -221zM218 18c257 0 390 234 390 494c0 119 -62 178 -214 178c-61 0 -79 -17 -97 -86l-131 -500c-5 -20 -9 -36 -9 -49c0 -25 15 -37 61 -37z" />
    <glyph glyph-name="dcaron" unicode="&#x10f;" horiz-adv-x="541" 
d="M472 162h19l-23 -73c-25 -81 -76 -103 -116 -103c-41 0 -63 21 -63 62c0 21 5 47 13 78l13 50c-65 -137 -128 -190 -199 -190c-63 0 -104 42 -104 132c0 160 138 410 323 410c25 0 51 -17 61 -48l50 187c3 10 4 19 4 27c0 26 -18 39 -68 39l6 21c73 1 126 15 177 41
l-196 -710c-3 -12 -6 -24 -6 -34c0 -16 6 -28 24 -28c26 0 47 26 73 102zM708 784c1 -2 1 -5 1 -8c0 -52 -49 -139 -132 -240l-14 4c45 98 61 168 61 193c0 12 -3 19 -13 19l3 21c8 0 14 -1 21 -1c33 0 54 6 73 12zM145 18c59 0 156 136 207 297l37 139c-9 36 -30 51 -53 51
c-128 0 -235 -240 -235 -400c0 -59 15 -87 44 -87z" />
    <glyph glyph-name="Dcroat" unicode="&#x110;" horiz-adv-x="725" 
d="M422 708c189 0 282 -77 282 -221c0 -250 -199 -487 -474 -487c-30 0 -97 3 -140 3c-47 0 -94 -1 -120 -3l3 20c64 3 81 13 100 86l63 239h-70l6 26h71l61 231c5 21 9 37 9 49c0 26 -16 36 -67 37l3 20c23 -1 61 -3 98 -3h24c46 1 113 3 151 3zM218 18
c257 0 390 234 390 494c0 119 -62 178 -214 178c-61 0 -79 -17 -97 -86l-61 -233h188l-6 -26h-189l-63 -241c-5 -20 -9 -36 -9 -49c0 -25 15 -37 61 -37z" />
    <glyph glyph-name="dcroat" unicode="&#x111;" horiz-adv-x="541" 
d="M513 608l-144 -523c-3 -12 -6 -24 -6 -34c0 -16 6 -28 24 -28c26 0 47 26 73 102l12 37h19l-23 -73c-25 -81 -76 -103 -116 -103c-41 0 -63 21 -63 62c0 21 5 47 13 78l13 50c-65 -137 -128 -190 -199 -190c-63 0 -104 42 -104 132c0 160 138 410 323 410
c25 0 51 -17 61 -48l34 128h-167l6 20h167l10 39c3 10 4 19 4 27c0 26 -18 39 -68 39l6 21c73 1 126 15 177 41l-46 -167h94l-6 -20h-94zM145 18c59 0 156 136 207 297l37 139c-9 36 -30 51 -53 51c-128 0 -235 -240 -235 -400c0 -59 15 -87 44 -87z" />
    <glyph glyph-name="Emacron" unicode="&#x112;" horiz-adv-x="609" 
d="M596 819h-352l6 25h352zM443 705c58 0 140 0 199 3c-17 -47 -32 -95 -38 -118c-7 -24 -12 -47 -14 -62h-23c5 33 9 59 9 80c0 56 -24 77 -101 77h-73c-68 0 -83 -10 -103 -83l-63 -236h66c87 0 107 84 128 132h23c-25 -76 -32 -109 -41 -142s-17 -66 -32 -142h-23
c3 23 8 47 8 68c0 37 -14 64 -69 64h-66l-64 -240c-6 -21 -9 -36 -9 -48c0 -29 20 -35 68 -35h73c125 0 162 45 211 177h23c-7 -18 -15 -44 -22 -72c-7 -25 -19 -77 -27 -128c-68 3 -162 3 -229 3c-60 0 -192 0 -289 -3l5 20c68 3 83 13 103 86l133 496c6 21 9 37 9 49
c0 29 -19 35 -67 37l5 20c98 -3 230 -3 290 -3z" />
    <glyph glyph-name="emacron" unicode="&#x113;" horiz-adv-x="429" 
d="M506 712l-6 -25h-312l6 25h312zM342 528c41 0 74 -22 74 -66c0 -122 -184 -202 -299 -241c-7 -32 -11 -65 -11 -97c0 -68 27 -96 69 -96c48 0 103 25 154 100l16 -8c-39 -67 -116 -134 -201 -134c-81 0 -132 48 -132 141c0 145 140 401 330 401zM258 304
c48 38 78 94 78 160c0 38 -6 45 -16 45c-65 0 -161 -125 -198 -269c59 21 107 41 136 64z" />
    <glyph glyph-name="Ebreve" unicode="&#x114;" horiz-adv-x="609" 
d="M426 782c-86 0 -137 52 -151 116l16 5c35 -41 79 -54 152 -54c69 0 157 20 221 58l10 -11c-52 -52 -164 -114 -248 -114zM148 688l5 20c98 -3 230 -3 290 -3c58 0 140 0 199 3c-17 -47 -32 -95 -38 -118c-7 -24 -12 -47 -14 -62h-23c5 33 9 59 9 80c0 56 -24 77 -101 77
h-73c-68 0 -83 -10 -103 -83l-63 -236h66c87 0 107 84 128 132h23c-25 -76 -32 -109 -41 -142s-17 -66 -32 -142h-23c3 23 8 47 8 68c0 37 -14 64 -69 64h-66l-64 -240c-6 -21 -9 -36 -9 -48c0 -29 20 -35 68 -35h73c125 0 162 45 211 177h23c-7 -18 -15 -44 -22 -72
c-7 -25 -19 -77 -27 -128c-68 3 -162 3 -229 3c-60 0 -192 0 -289 -3l5 20c68 3 83 13 103 86l133 496c6 21 9 37 9 49c0 29 -19 35 -67 37z" />
    <glyph glyph-name="ebreve" unicode="&#x115;" horiz-adv-x="429" 
d="M549 788l10 -11c-48 -67 -156 -144 -234 -144c-74 0 -113 66 -125 146l16 5c31 -63 63 -84 126 -84s149 32 207 88zM342 528c41 0 74 -22 74 -66c0 -122 -184 -202 -299 -241c-7 -32 -11 -65 -11 -97c0 -68 27 -96 69 -96c48 0 103 25 154 100l16 -8
c-39 -67 -116 -134 -201 -134c-81 0 -132 48 -132 141c0 145 140 401 330 401zM258 304c48 38 78 94 78 160c0 38 -6 45 -16 45c-65 0 -161 -125 -198 -269c59 21 107 41 136 64z" />
    <glyph glyph-name="Edotaccent" unicode="&#x116;" horiz-adv-x="609" 
d="M443 772c-30 0 -50 23 -50 53c0 35 32 75 74 75c31 0 51 -23 51 -53c0 -36 -33 -75 -75 -75zM443 705c58 0 140 0 199 3c-17 -47 -32 -95 -38 -118c-7 -24 -12 -47 -14 -62h-23c5 33 9 59 9 80c0 56 -24 77 -101 77h-73c-68 0 -83 -10 -103 -83l-63 -236h66
c87 0 107 84 128 132h23c-25 -76 -32 -109 -41 -142s-17 -66 -32 -142h-23c3 23 8 47 8 68c0 37 -14 64 -69 64h-66l-64 -240c-6 -21 -9 -36 -9 -48c0 -29 20 -35 68 -35h73c125 0 162 45 211 177h23c-7 -18 -15 -44 -22 -72c-7 -25 -19 -77 -27 -128c-68 3 -162 3 -229 3
c-60 0 -192 0 -289 -3l5 20c68 3 83 13 103 86l133 496c6 21 9 37 9 49c0 29 -19 35 -67 37l5 20c98 -3 230 -3 290 -3z" />
    <glyph glyph-name="edotaccent" unicode="&#x117;" horiz-adv-x="429" 
d="M337 637c-30 0 -50 22 -50 51c0 35 31 77 74 77c31 0 51 -22 51 -51c0 -36 -32 -77 -75 -77zM416 462c0 -122 -184 -202 -299 -241c-7 -32 -11 -65 -11 -97c0 -68 27 -96 69 -96c48 0 103 25 154 100l16 -8c-39 -67 -116 -134 -201 -134c-81 0 -132 48 -132 141
c0 145 140 401 330 401c41 0 74 -22 74 -66zM320 509c-65 0 -161 -125 -198 -269c59 21 107 41 136 64c48 38 78 94 78 160c0 38 -6 45 -16 45z" />
    <glyph glyph-name="Eogonek" unicode="&#x118;" horiz-adv-x="609" 
d="M443 705c58 0 140 0 199 3c-17 -47 -32 -95 -38 -118c-7 -24 -12 -47 -14 -62h-23c5 33 9 59 9 80c0 56 -24 77 -101 77h-73c-68 0 -83 -10 -103 -83l-63 -236h66c87 0 107 84 128 132h23c-25 -76 -32 -109 -41 -142s-17 -66 -32 -142h-23c3 23 8 47 8 68
c0 37 -14 64 -69 64h-66l-64 -240c-6 -21 -9 -36 -9 -48c0 -29 20 -35 68 -35h73c125 0 162 45 211 177h23c-7 -18 -15 -44 -22 -72c-7 -25 -19 -77 -27 -128h-12c-50 -16 -110 -50 -110 -103c0 -25 14 -37 39 -37c27 0 61 13 78 26l10 -17c-42 -40 -86 -57 -129 -57
c-49 0 -74 23 -74 58c0 65 90 110 152 131c-61 1 -130 2 -183 2c-60 0 -192 0 -289 -3l5 20c68 3 83 13 103 86l133 496c6 21 9 37 9 49c0 29 -19 35 -67 37l5 20c98 -3 230 -3 290 -3z" />
    <glyph glyph-name="eogonek" unicode="&#x119;" horiz-adv-x="429" 
d="M416 462c0 -122 -184 -202 -299 -241c-7 -32 -11 -65 -11 -97c0 -68 27 -96 69 -96c48 0 103 25 154 100l16 -8c-33 -57 -94 -114 -164 -130c-41 -18 -81 -50 -81 -92c0 -25 14 -38 38 -38c25 0 53 13 68 31l12 -11c-39 -47 -79 -68 -122 -68c-46 0 -72 24 -72 59
c0 52 58 91 113 115c-77 3 -125 51 -125 141c0 145 140 401 330 401c41 0 74 -22 74 -66zM320 509c-65 0 -161 -125 -198 -269c59 21 107 41 136 64c48 38 78 94 78 160c0 38 -6 45 -16 45z" />
    <glyph glyph-name="Ecaron" unicode="&#x11a;" horiz-adv-x="609" 
d="M430 780h-18c-34 58 -71 103 -139 130l4 14c91 -17 129 -42 177 -68c52 22 134 52 206 68l5 -14c-97 -30 -184 -79 -235 -130zM148 688l5 20c98 -3 230 -3 290 -3c58 0 140 0 199 3c-17 -47 -32 -95 -38 -118c-7 -24 -12 -47 -14 -62h-23c5 33 9 59 9 80
c0 56 -24 77 -101 77h-73c-68 0 -83 -10 -103 -83l-63 -236h66c87 0 107 84 128 132h23c-25 -76 -32 -109 -41 -142s-17 -66 -32 -142h-23c3 23 8 47 8 68c0 37 -14 64 -69 64h-66l-64 -240c-6 -21 -9 -36 -9 -48c0 -29 20 -35 68 -35h73c125 0 162 45 211 177h23
c-7 -18 -15 -44 -22 -72c-7 -25 -19 -77 -27 -128c-68 3 -162 3 -229 3c-60 0 -192 0 -289 -3l5 20c68 3 83 13 103 86l133 496c6 21 9 37 9 49c0 29 -19 35 -67 37z" />
    <glyph glyph-name="ecaron" unicode="&#x11b;" horiz-adv-x="429" 
d="M333 616h-19c-14 82 -46 133 -119 172l4 14c83 -23 127 -59 168 -104c46 36 111 78 175 104l5 -14c-89 -38 -167 -105 -214 -172zM342 528c41 0 74 -22 74 -66c0 -122 -184 -202 -299 -241c-7 -32 -11 -65 -11 -97c0 -68 27 -96 69 -96c48 0 103 25 154 100l16 -8
c-39 -67 -116 -134 -201 -134c-81 0 -132 48 -132 141c0 145 140 401 330 401zM258 304c48 38 78 94 78 160c0 38 -6 45 -16 45c-65 0 -161 -125 -198 -269c59 21 107 41 136 64z" />
    <glyph glyph-name="Gcircumflex" unicode="&#x11c;" horiz-adv-x="705" 
d="M503 840c-52 -22 -134 -52 -206 -68l-5 14c97 30 184 79 235 130h18c34 -58 71 -103 139 -130l-4 -14c-91 17 -129 42 -177 68zM316 6c48 0 90 17 114 31c29 17 39 38 46 63l23 88c6 22 9 39 9 52c0 35 -23 42 -84 44l5 20c35 -2 95 -3 140 -3c44 0 81 1 105 3l-5 -20
c-45 -3 -54 -12 -74 -86l-53 -198h-20c1 8 3 17 3 26c0 16 -4 31 -15 31c-8 0 -14 -2 -38 -17c-52 -33 -105 -54 -170 -54c-164 0 -252 83 -252 229c0 226 177 507 438 507c87 0 127 -29 164 -65c6 -6 11 -9 17 -9c13 0 25 18 40 60h22c-20 -52 -41 -123 -64 -230h-22
c3 26 5 51 5 75c0 28 -3 52 -14 73c-28 49 -87 78 -154 78c-222 0 -339 -335 -339 -522c0 -120 56 -176 173 -176z" />
    <glyph glyph-name="gcircumflex" unicode="&#x11d;" horiz-adv-x="449" 
d="M470 630l-3 -10c22 -2 37 -12 37 -35c0 -29 -26 -58 -56 -58c-17 0 -28 11 -28 29c0 12 5 26 13 36c-1 1 -4 2 -6 2c-7 0 -18 -6 -24 -10c-17 -11 -38 -35 -55 -65c47 -15 75 -48 75 -103c0 -90 -78 -189 -198 -202c-59 -33 -119 -59 -119 -85c0 -14 21 -24 60 -34
l73 -19c68 -18 113 -37 113 -86c0 -72 -95 -185 -297 -185c-104 0 -151 31 -151 73c0 43 37 93 170 145c-23 10 -38 28 -38 52c0 40 23 75 154 138c-81 2 -136 36 -136 109s59 206 226 206c19 0 36 -2 51 -5c20 32 42 58 65 75c17 11 37 21 58 22c-75 23 -117 57 -156 100
c-46 -36 -111 -78 -175 -104l-5 14c89 38 168 105 215 172h18c14 -82 46 -133 119 -172zM201 231c112 0 133 137 133 214c0 36 -13 65 -59 65c-113 0 -134 -182 -134 -214c0 -48 23 -65 60 -65zM224 -16l-134 34c-90 -48 -102 -94 -102 -123c0 -49 41 -73 95 -73
c91 0 201 56 201 130c0 18 -20 21 -60 32z" />
    <glyph glyph-name="Gbreve" unicode="&#x11e;" horiz-adv-x="705" 
d="M511 849c69 0 156 20 220 58l11 -11c-52 -52 -164 -114 -248 -114c-86 0 -137 52 -151 116l16 5c35 -41 79 -54 152 -54zM316 6c48 0 90 17 114 31c29 17 39 38 46 63l23 88c6 22 9 39 9 52c0 35 -23 42 -84 44l5 20c35 -2 95 -3 140 -3c44 0 81 1 105 3l-5 -20
c-45 -3 -54 -12 -74 -86l-53 -198h-20c1 8 3 17 3 26c0 16 -4 31 -15 31c-8 0 -14 -2 -38 -17c-52 -33 -105 -54 -170 -54c-164 0 -252 83 -252 229c0 226 177 507 438 507c87 0 127 -29 164 -65c6 -6 11 -9 17 -9c13 0 25 18 40 60h22c-20 -52 -41 -123 -64 -230h-22
c3 26 5 51 5 75c0 28 -3 52 -14 73c-28 49 -87 78 -154 78c-222 0 -339 -335 -339 -522c0 -120 56 -176 173 -176z" />
    <glyph glyph-name="gbreve" unicode="&#x11f;" horiz-adv-x="449" 
d="M302 633c-74 0 -113 66 -125 146l16 5c31 -63 63 -84 126 -84s149 32 207 88l10 -11c-48 -67 -156 -144 -234 -144zM461 620c26 0 43 -10 43 -35c0 -29 -26 -58 -56 -58c-17 0 -28 11 -28 29c0 12 5 26 13 36c-1 1 -4 2 -6 2c-7 0 -18 -6 -24 -10
c-17 -11 -38 -35 -55 -65c47 -15 75 -48 75 -103c0 -90 -78 -189 -198 -202c-59 -33 -119 -59 -119 -85c0 -14 21 -24 60 -34l73 -19c68 -18 113 -37 113 -86c0 -72 -95 -185 -297 -185c-104 0 -151 31 -151 73c0 43 37 93 170 145c-23 10 -38 28 -38 52c0 40 23 75 154 138
c-81 2 -136 36 -136 109s59 206 226 206c19 0 36 -2 51 -5c20 32 42 58 65 75c19 13 41 22 65 22zM201 231c112 0 133 137 133 214c0 36 -13 65 -59 65c-113 0 -134 -182 -134 -214c0 -48 23 -65 60 -65zM224 -16l-134 34c-90 -48 -102 -94 -102 -123c0 -49 41 -73 95 -73
c91 0 201 56 201 130c0 18 -20 21 -60 32z" />
    <glyph glyph-name="Gdotaccent" unicode="&#x120;" horiz-adv-x="705" 
d="M460 825c0 35 33 75 75 75c31 0 50 -23 50 -53c0 -36 -32 -75 -74 -75c-30 0 -51 23 -51 53zM316 6c48 0 90 17 114 31c29 17 39 38 46 63l23 88c6 22 9 39 9 52c0 35 -23 42 -84 44l5 20c35 -2 95 -3 140 -3c44 0 81 1 105 3l-5 -20c-45 -3 -54 -12 -74 -86l-53 -198
h-20c1 8 3 17 3 26c0 16 -4 31 -15 31c-8 0 -14 -2 -38 -17c-52 -33 -105 -54 -170 -54c-164 0 -252 83 -252 229c0 226 177 507 438 507c87 0 127 -29 164 -65c6 -6 11 -9 17 -9c13 0 25 18 40 60h22c-20 -52 -41 -123 -64 -230h-22c3 26 5 51 5 75c0 28 -3 52 -14 73
c-28 49 -87 78 -154 78c-222 0 -339 -335 -339 -522c0 -120 56 -176 173 -176z" />
    <glyph glyph-name="gdotaccent" unicode="&#x121;" horiz-adv-x="449" 
d="M314 637c-30 0 -50 22 -50 51c0 35 31 77 74 77c31 0 51 -22 51 -51c0 -36 -32 -77 -75 -77zM461 620c26 0 43 -10 43 -35c0 -29 -26 -58 -56 -58c-17 0 -28 11 -28 29c0 12 5 26 13 36c-1 1 -4 2 -6 2c-7 0 -18 -6 -24 -10c-17 -11 -38 -35 -55 -65
c47 -15 75 -48 75 -103c0 -90 -78 -189 -198 -202c-59 -33 -119 -59 -119 -85c0 -14 21 -24 60 -34l73 -19c68 -18 113 -37 113 -86c0 -72 -95 -185 -297 -185c-104 0 -151 31 -151 73c0 43 37 93 170 145c-23 10 -38 28 -38 52c0 40 23 75 154 138c-81 2 -136 36 -136 109
s59 206 226 206c19 0 36 -2 51 -5c20 32 42 58 65 75c19 13 41 22 65 22zM201 231c112 0 133 137 133 214c0 36 -13 65 -59 65c-113 0 -134 -182 -134 -214c0 -48 23 -65 60 -65zM224 -16l-134 34c-90 -48 -102 -94 -102 -123c0 -49 41 -73 95 -73c91 0 201 56 201 130
c0 18 -20 21 -60 32z" />
    <glyph glyph-name="Gcommaaccent" unicode="&#x122;" horiz-adv-x="705" 
d="M316 6c48 0 90 17 114 31c29 17 39 38 46 63l23 88c6 22 9 39 9 52c0 35 -23 42 -84 44l5 20c35 -2 95 -3 140 -3c44 0 81 1 105 3l-5 -20c-45 -3 -54 -12 -74 -86l-53 -198h-20c1 8 3 17 3 26c0 16 -4 31 -15 31c-8 0 -14 -2 -38 -17c-52 -33 -105 -54 -170 -54
c-164 0 -252 83 -252 229c0 226 177 507 438 507c87 0 127 -29 164 -65c6 -6 11 -9 17 -9c13 0 25 18 40 60h22c-20 -52 -41 -123 -64 -230h-22c3 26 5 51 5 75c0 28 -3 52 -14 73c-28 49 -87 78 -154 78c-222 0 -339 -335 -339 -522c0 -120 56 -176 173 -176zM244 -133
c0 34 28 64 65 64c35 0 55 -25 55 -59c0 -58 -42 -93 -98 -113l-7 17c31 9 71 32 74 64c-10 -9 -27 -16 -44 -16c-26 0 -45 15 -45 43z" />
    <glyph glyph-name="gcommaaccent" unicode="&#x123;" horiz-adv-x="449" 
d="M303 583c-35 0 -55 25 -55 58c0 43 16 86 98 114l7 -17c-31 -9 -71 -32 -74 -64c10 9 27 16 44 16c26 0 45 -15 45 -42c0 -29 -23 -65 -65 -65zM461 620c26 0 43 -10 43 -35c0 -29 -26 -58 -56 -58c-17 0 -28 11 -28 29c0 12 5 26 13 36c-1 1 -4 2 -6 2
c-7 0 -18 -6 -24 -10c-17 -11 -38 -35 -55 -65c47 -15 75 -48 75 -103c0 -90 -78 -189 -198 -202c-59 -33 -119 -59 -119 -85c0 -14 21 -24 60 -34l73 -19c68 -18 113 -37 113 -86c0 -72 -95 -185 -297 -185c-104 0 -151 31 -151 73c0 43 37 93 170 145
c-23 10 -38 28 -38 52c0 40 23 75 154 138c-81 2 -136 36 -136 109s59 206 226 206c19 0 36 -2 51 -5c20 32 42 58 65 75c19 13 41 22 65 22zM201 231c112 0 133 137 133 214c0 36 -13 65 -59 65c-113 0 -134 -182 -134 -214c0 -48 23 -65 60 -65zM224 -16l-134 34
c-90 -48 -102 -94 -102 -123c0 -49 41 -73 95 -73c91 0 201 56 201 130c0 18 -20 21 -60 32z" />
    <glyph glyph-name="Hcircumflex" unicode="&#x124;" horiz-adv-x="754" 
d="M502 840c-52 -22 -134 -52 -206 -68l-5 14c97 30 184 79 235 130h18c34 -58 71 -103 139 -130l-4 -14c-91 17 -129 42 -177 68zM691 705c52 0 100 1 129 3l-5 -20c-69 -3 -84 -13 -103 -86l-132 -496c-5 -21 -9 -37 -9 -49c0 -29 19 -35 68 -37l-4 -20
c-28 2 -76 3 -128 3c-46 0 -96 -1 -127 -3l4 20c68 3 84 13 103 86l64 240h-321l-64 -240c-5 -21 -8 -36 -8 -48c0 -30 19 -36 67 -38l-4 -20c-31 2 -81 3 -127 3c-52 0 -98 -1 -127 -3l5 20c66 3 82 13 101 86l132 496c5 21 8 36 8 48c0 30 -19 36 -67 38l5 20
c27 -2 75 -3 127 -3c46 0 96 1 128 3l-5 -20c-69 -3 -84 -13 -103 -86l-63 -236h321l63 236c6 21 9 36 9 48c0 30 -20 36 -68 38l5 20c30 -2 80 -3 126 -3z" />
    <glyph glyph-name="hcircumflex" unicode="&#x125;" horiz-adv-x="536" 
d="M450 1042h18c14 -82 46 -133 119 -172l-4 -14c-83 23 -127 59 -168 104c-46 -36 -111 -78 -175 -104l-5 14c89 38 168 105 215 172zM467 162h19l-25 -73c-29 -84 -80 -103 -121 -103c-51 0 -70 23 -70 61c0 22 6 49 16 79l95 286c5 14 11 33 11 50c0 19 -8 34 -33 34
c-74 0 -170 -149 -244 -371l-37 -125h-87l198 667c3 10 5 19 5 27c0 26 -19 39 -69 39l6 21c73 1 130 15 180 41l-145 -496c75 167 143 229 226 229c61 0 81 -33 81 -76c0 -23 -7 -50 -15 -75l-97 -292c-4 -15 -7 -28 -7 -38c0 -15 5 -24 23 -24c25 0 49 22 77 102z" />
    <glyph glyph-name="Hbar" unicode="&#x126;" horiz-adv-x="756" 
d="M822 708l-5 -20c-69 -3 -84 -13 -103 -86l-18 -69h93l-5 -20h-94l-108 -407c-5 -21 -9 -37 -9 -49c0 -29 19 -35 68 -37l-4 -20c-28 2 -76 3 -128 3c-46 0 -96 -1 -127 -3l4 20c68 3 84 13 103 86l64 240h-321l-64 -240c-5 -21 -8 -36 -8 -48c0 -30 19 -36 67 -38l-4 -20
c-31 2 -81 3 -127 3c-52 0 -98 -1 -127 -3l5 20c66 3 82 13 101 86l109 407h-73l5 20h73l18 69c5 21 8 36 8 48c0 30 -19 36 -67 38l5 20c27 -2 75 -3 127 -3c46 0 96 1 128 3l-5 -20c-69 -3 -84 -13 -103 -86l-18 -69h321l18 69c6 21 9 36 9 48c0 30 -20 36 -68 38l5 20
c30 -2 80 -3 126 -3c52 0 100 1 129 3zM597 513h-321l-39 -147h321z" />
    <glyph glyph-name="hbar" unicode="&#x127;" horiz-adv-x="536" 
d="M486 162l-25 -73c-29 -84 -80 -103 -121 -103c-51 0 -70 23 -70 61c0 22 6 49 16 79l95 286c5 14 11 33 11 50c0 19 -8 34 -33 34c-74 0 -170 -149 -244 -371l-37 -125h-87l180 608h-90l6 20h90l12 39c3 10 5 19 5 27c0 26 -19 39 -69 39l6 21c73 1 130 15 180 41
l-49 -167h169l-6 -20h-169l-90 -309c75 167 143 229 226 229c61 0 81 -33 81 -76c0 -23 -7 -50 -15 -75l-97 -292c-4 -15 -7 -28 -7 -38c0 -15 5 -24 23 -24c25 0 49 22 77 102l13 37h19z" />
    <glyph glyph-name="Itilde" unicode="&#x128;" 
d="M261 895c91 0 104 -73 173 -73c24 0 47 16 70 58l18 -5c-31 -74 -83 -103 -130 -103c-91 0 -104 73 -173 73c-24 0 -47 -16 -70 -58l-18 5c31 74 83 103 130 103zM298 602l-132 -496c-5 -21 -8 -36 -8 -48c0 -30 19 -36 67 -38l-4 -20c-31 2 -81 3 -127 3
c-52 0 -98 -1 -127 -3l5 20c66 3 82 13 101 86l132 496c5 21 8 36 8 48c0 30 -19 36 -67 38l5 20c27 -2 75 -3 127 -3c46 0 96 1 128 3l-5 -20c-69 -3 -84 -13 -103 -86z" />
    <glyph glyph-name="itilde" unicode="&#x129;" horiz-adv-x="301" 
d="M178 768c81 0 92 -73 153 -73c24 0 47 16 70 58l18 -5c-31 -74 -83 -103 -130 -103c-81 0 -92 73 -153 73c-24 0 -47 -16 -70 -58l-18 5c31 74 83 103 130 103zM51 126l107 303c5 15 8 27 8 37c0 17 -8 25 -22 25c-31 0 -53 -33 -79 -102l-14 -37h-19l26 73
c30 84 83 103 124 103c50 0 67 -28 67 -63c0 -24 -8 -52 -17 -77l-107 -303c-5 -15 -8 -27 -8 -37c0 -16 8 -25 24 -25c27 0 49 25 78 102l14 37h19l-26 -73c-28 -78 -77 -103 -123 -103c-52 0 -70 25 -70 61c0 23 8 51 18 79z" />
    <glyph glyph-name="Imacron" unicode="&#x12a;" 
d="M474 819h-352l5 25h352zM298 602l-132 -496c-5 -21 -8 -36 -8 -48c0 -30 19 -36 67 -38l-4 -20c-31 2 -81 3 -127 3c-52 0 -98 -1 -127 -3l5 20c66 3 82 13 101 86l132 496c5 21 8 36 8 48c0 30 -19 36 -67 38l5 20c27 -2 75 -3 127 -3c46 0 96 1 128 3l-5 -20
c-69 -3 -84 -13 -103 -86z" />
    <glyph glyph-name="imacron" unicode="&#x12b;" horiz-adv-x="301" 
d="M365 687h-264l4 25h266zM51 126l107 303c5 15 8 27 8 37c0 17 -8 25 -22 25c-31 0 -53 -33 -79 -102l-14 -37h-19l26 73c30 84 83 103 124 103c50 0 67 -28 67 -63c0 -24 -8 -52 -17 -77l-107 -303c-5 -15 -8 -27 -8 -37c0 -16 8 -25 24 -25c27 0 49 25 78 102l14 37h19
l-26 -73c-28 -78 -77 -103 -123 -103c-52 0 -70 25 -70 61c0 23 8 51 18 79z" />
    <glyph glyph-name="Ibreve" unicode="&#x12c;" 
d="M321 849c69 0 157 20 221 58l10 -11c-52 -52 -164 -114 -248 -114c-86 0 -137 52 -151 116l16 5c35 -41 79 -54 152 -54zM298 602l-132 -496c-5 -21 -8 -36 -8 -48c0 -30 19 -36 67 -38l-4 -20c-31 2 -81 3 -127 3c-52 0 -98 -1 -127 -3l5 20c66 3 82 13 101 86l132 496
c5 21 8 36 8 48c0 30 -19 36 -67 38l5 20c27 -2 75 -3 127 -3c46 0 96 1 128 3l-5 -20c-69 -3 -84 -13 -103 -86z" />
    <glyph glyph-name="ibreve" unicode="&#x12d;" horiz-adv-x="301" 
d="M236 700c63 0 149 32 207 88l10 -11c-48 -67 -156 -144 -234 -144c-74 0 -113 66 -125 146l16 5c31 -63 63 -84 126 -84zM51 126l107 303c5 15 8 27 8 37c0 17 -8 25 -22 25c-31 0 -53 -33 -79 -102l-14 -37h-19l26 73c30 84 83 103 124 103c50 0 67 -28 67 -63
c0 -24 -8 -52 -17 -77l-107 -303c-5 -15 -8 -27 -8 -37c0 -16 8 -25 24 -25c27 0 49 25 78 102l14 37h19l-26 -73c-28 -78 -77 -103 -123 -103c-52 0 -70 25 -70 61c0 23 8 51 18 79z" />
    <glyph glyph-name="Iogonek" unicode="&#x12e;" 
d="M278 705c46 0 96 1 128 3l-5 -20c-69 -3 -84 -13 -103 -86l-132 -496c-5 -21 -8 -36 -8 -48c0 -30 19 -36 67 -38l-3 -17h9c-51 -14 -118 -50 -118 -106c0 -25 14 -37 39 -37c27 0 60 13 77 26l11 -17c-42 -40 -86 -57 -129 -57c-49 0 -74 23 -74 58c0 65 90 110 152 131
c-28 1 -63 2 -95 2c-52 0 -98 -1 -127 -3l5 20c66 3 82 13 101 86l132 496c5 21 8 36 8 48c0 30 -19 36 -67 38l5 20c27 -2 75 -3 127 -3z" />
    <glyph glyph-name="iogonek" unicode="&#x12f;" horiz-adv-x="301" 
d="M262 760c31 0 51 -23 51 -52c0 -40 -36 -76 -75 -76c-30 0 -50 22 -50 51c0 41 36 77 74 77zM233 162h19l-26 -73c-25 -69 -66 -97 -108 -102c-38 -19 -74 -49 -74 -89c0 -25 14 -38 38 -38c25 0 53 13 68 31l12 -11c-39 -47 -79 -68 -122 -68c-46 0 -72 24 -72 59
c0 53 59 92 115 116c-37 6 -50 29 -50 60c0 23 8 51 18 79l107 303c5 15 8 27 8 37c0 17 -8 25 -22 25c-31 0 -53 -33 -79 -102l-14 -37h-19l26 73c30 84 83 103 124 103c50 0 67 -28 67 -63c0 -24 -8 -52 -17 -77l-107 -303c-5 -15 -8 -27 -8 -37c0 -16 8 -25 24 -25
c27 0 49 25 78 102z" />
    <glyph glyph-name="Idotaccent" unicode="&#x130;" 
d="M271 825c0 35 32 75 74 75c31 0 51 -23 51 -53c0 -36 -33 -75 -75 -75c-30 0 -50 23 -50 53zM298 602l-132 -496c-5 -21 -8 -36 -8 -48c0 -30 19 -36 67 -38l-4 -20c-31 2 -81 3 -127 3c-52 0 -98 -1 -127 -3l5 20c66 3 82 13 101 86l132 496c5 21 8 36 8 48
c0 30 -19 36 -67 38l5 20c27 -2 75 -3 127 -3c46 0 96 1 128 3l-5 -20c-69 -3 -84 -13 -103 -86z" />
    <glyph glyph-name="dotlessi" unicode="&#x131;" horiz-adv-x="301" 
d="M51 126l107 303c5 15 8 27 8 37c0 17 -8 25 -22 25c-31 0 -53 -33 -79 -102l-14 -37h-19l26 73c30 84 83 103 124 103c50 0 67 -28 67 -63c0 -24 -8 -52 -17 -77l-107 -303c-5 -15 -8 -27 -8 -37c0 -16 8 -25 24 -25c27 0 49 25 78 102l14 37h19l-26 -73
c-28 -78 -77 -103 -123 -103c-52 0 -70 25 -70 61c0 23 8 51 18 79z" />
    <glyph glyph-name="IJ" unicode="&#x132;" horiz-adv-x="821" 
d="M898 730c4 -4 7 -8 7 -13c0 -14 -20 -31 -72 -51c-85 -72 -126 -160 -159 -300h108l-4 -20h-109l-1 -6l-61 -275c-29 -134 -101 -253 -227 -253c-61 0 -104 19 -104 59c0 28 21 55 53 55c25 0 44 -20 44 -43s-18 -41 -38 -50c9 -3 21 -5 35 -5c110 0 129 157 164 317
l32 150c4 18 9 35 13 51h-122l4 20h124c48 146 129 209 232 297c-63 -33 -131 -60 -196 -60c-149 0 -228 56 -378 56c-55 0 -93 -21 -93 -63c0 -63 91 -79 151 -79c43 0 91 14 130 39l8 -15c-25 -17 -55 -29 -85 -36l-116 -399c-6 -20 -9 -36 -9 -48c0 -27 18 -38 68 -38
l-4 -20c-31 2 -81 3 -127 3c-52 0 -98 -1 -127 -3l5 20c66 3 80 14 101 86l114 393c-70 5 -151 32 -151 113c0 72 61 127 144 127c162 0 238 -107 397 -107c68 0 111 18 175 45c21 34 43 58 61 58c4 0 9 -2 13 -5z" />
    <glyph glyph-name="ij" unicode="&#x133;" horiz-adv-x="607" 
d="M188 683c0 35 31 77 74 77c31 0 51 -22 51 -51c0 -36 -32 -77 -75 -77c-30 0 -50 22 -50 51zM518 683c0 35 31 77 74 77c31 0 51 -22 51 -51c0 -36 -32 -77 -75 -77c-30 0 -50 22 -50 51zM256 91c43 99 41 236 86 338c34 77 92 99 149 99c61 0 82 -32 82 -77
c0 -19 -4 -41 -10 -63l-77 -273c-42 -150 -105 -260 -195 -293c-20 -7 -45 -10 -59 -10c-31 0 -47 15 -47 39c0 29 27 61 59 61c21 0 33 -13 33 -31c0 -19 -13 -39 -28 -54c50 6 78 33 99 108l139 494c3 10 4 19 4 26c0 24 -14 36 -39 36c-38 0 -70 -15 -99 -88
c-35 -90 -35 -224 -83 -330c-32 -71 -90 -87 -139 -87c-62 0 -91 34 -91 83c0 17 4 36 11 57l107 303c6 17 9 30 9 40c0 16 -8 22 -23 22c-31 0 -53 -33 -79 -102l-14 -37h-19l26 73c30 84 83 103 124 103c49 0 67 -26 67 -62c0 -23 -7 -51 -17 -78l-107 -303
c-3 -8 -4 -16 -4 -23c0 -24 16 -39 47 -39s64 12 88 68z" />
    <glyph glyph-name="Jcircumflex" unicode="&#x134;" horiz-adv-x="636" 
d="M495 840c-52 -22 -134 -52 -206 -68l-5 14c97 30 184 79 235 130h18c34 -58 71 -103 139 -130l-4 -14c-91 17 -129 42 -177 68zM737 730c4 -3 6 -8 6 -12c0 -14 -20 -32 -73 -52c-99 -66 -166 -172 -208 -300h99l-3 -20h-102c-4 -13 -8 -26 -11 -39l-62 -242
c-35 -136 -110 -253 -236 -253c-60 0 -102 18 -102 57c0 28 22 57 55 57c24 0 42 -19 42 -42s-19 -41 -40 -51c9 -3 21 -5 35 -5c110 0 134 159 175 317l30 117c8 30 17 58 28 84h-133l3 20h138c61 133 161 215 275 297c-64 -33 -133 -60 -198 -60c-97 0 -148 56 -246 56
c-45 0 -67 -25 -65 -66c1 -40 28 -64 74 -73l-3 -20c-52 9 -108 39 -110 116c-3 71 41 123 116 123c110 0 156 -107 263 -107c68 0 112 18 177 45c22 34 44 58 62 58c5 0 10 -2 14 -5z" />
    <glyph glyph-name="jcircumflex" unicode="&#x135;" horiz-adv-x="275" 
d="M221 720c-46 -36 -111 -78 -175 -104l-5 14c89 38 168 105 215 172h18c14 -82 46 -133 119 -172l-4 -14c-83 23 -127 59 -168 104zM-84 -173c50 6 78 33 99 108l139 494c5 17 7 30 7 39c0 16 -7 23 -22 23c-26 0 -49 -26 -76 -102l-13 -37h-19l24 73
c27 81 74 103 123 103c51 0 67 -25 67 -61c0 -23 -7 -51 -15 -79l-77 -273c-42 -150 -105 -260 -195 -293c-20 -7 -45 -10 -59 -10c-31 0 -47 15 -47 39c0 29 27 61 59 61c21 0 33 -13 33 -31c0 -19 -13 -39 -28 -54z" />
    <glyph glyph-name="Kcommaaccent" unicode="&#x136;" horiz-adv-x="674" 
d="M648 722c43 0 59 -25 59 -54c0 -23 -15 -69 -58 -69c-28 0 -39 20 -39 40s14 45 32 62h-3c-17 -1 -26 -6 -36 -14c-72 -65 -65 -297 -234 -317c62 -14 105 -33 105 -148c0 -5 -1 -11 -1 -17l-4 -113v-12c0 -23 5 -39 30 -39c34 0 55 24 74 78l17 51h20l-26 -77
c-25 -74 -65 -107 -122 -107c-58 0 -85 35 -85 99c0 5 1 11 1 17l7 113c1 14 1 26 1 38c0 63 -13 85 -36 105c-26 -7 -45 -9 -58 -9c-23 0 -31 8 -31 20s8 20 30 20c14 0 34 -3 61 -10c173 21 155 252 236 320c23 18 42 23 60 23zM225 20l-4 -20c-31 2 -81 3 -127 3
c-52 0 -98 -1 -127 -3l5 20c66 3 82 13 101 86l132 496c5 21 8 36 8 48c0 30 -19 36 -67 38l5 20c27 -2 75 -3 127 -3c46 0 96 1 128 3l-5 -20c-69 -3 -84 -13 -103 -86l-132 -496c-5 -21 -8 -36 -8 -48c0 -30 19 -36 67 -38zM261 -69c35 0 55 -25 55 -59
c0 -58 -42 -93 -98 -113l-7 17c31 9 71 32 74 64c-10 -9 -27 -16 -44 -16c-26 0 -45 15 -45 43c0 34 28 64 65 64z" />
    <glyph glyph-name="kcommaaccent" unicode="&#x137;" horiz-adv-x="515" 
d="M432 528c46 0 61 -27 59 -59c-2 -24 -18 -64 -58 -64c-29 0 -39 19 -39 40c0 19 14 45 32 62h-2c-16 0 -26 -6 -37 -14c-57 -46 -56 -176 -173 -201c75 -3 145 -30 145 -102c0 -8 -1 -17 -3 -26l-20 -100c-1 -8 -3 -15 -3 -20c0 -15 7 -21 23 -21c26 0 48 26 74 102
l12 37h19l-24 -73c-26 -80 -71 -103 -119 -103c-36 0 -65 20 -65 65c0 9 2 19 4 30l18 86c3 14 4 26 4 37c0 50 -31 74 -117 82l-84 -286h-87l198 667c3 10 5 19 5 27c0 26 -19 39 -69 39l6 21c73 1 130 15 180 41l-146 -498c155 13 137 156 207 208c24 18 42 23 60 23z
M153 -69c35 0 55 -25 55 -58c0 -43 -16 -86 -98 -114l-7 17c31 9 71 32 74 64c-10 -9 -27 -16 -44 -16c-26 0 -45 15 -45 42c0 29 23 65 65 65z" />
    <glyph glyph-name="kgreenlandic" unicode="&#x138;" horiz-adv-x="558" 
d="M463 528c43 0 59 -24 59 -53c0 -23 -15 -70 -58 -70c-28 0 -39 19 -39 40c0 19 14 45 32 62h-2c-16 0 -26 -6 -37 -14c-60 -51 -58 -202 -182 -231c75 -3 142 -28 142 -106c0 -7 0 -14 -1 -22l-10 -70c-1 -7 -1 -14 -1 -19c0 -16 5 -22 21 -22c26 0 48 26 74 102l12 37
h19l-24 -73c-26 -80 -71 -103 -119 -103c-37 0 -63 17 -63 68c0 8 1 17 2 27l8 56c2 12 3 24 3 34c0 52 -27 77 -113 84l-65 -255h-87l120 429c4 16 7 29 7 39c0 16 -7 23 -21 23c-29 0 -52 -28 -78 -102l-13 -37h-19l25 73c29 84 80 103 121 103c42 0 57 -22 57 -58
c0 -22 -6 -50 -14 -82l-30 -120c160 15 142 176 214 237c24 18 42 23 60 23z" />
    <glyph glyph-name="Lacute" unicode="&#x139;" horiz-adv-x="585" 
d="M227 772l-7 11c105 71 149 114 196 142c10 6 25 12 38 12c12 0 23 -5 28 -17c1 -3 2 -7 2 -10c0 -18 -18 -35 -35 -44c-46 -27 -109 -39 -222 -94zM512 210h23c-8 -21 -16 -50 -25 -82c-7 -25 -19 -77 -27 -128c-68 3 -162 3 -229 3c-60 0 -192 0 -289 -3l5 20
c68 3 83 13 103 86l133 496c6 21 9 37 9 49c0 29 -19 35 -67 37l5 20c28 -2 76 -3 128 -3c46 0 96 1 127 3l-5 -20c-69 -3 -84 -13 -104 -86l-133 -496c-6 -21 -9 -36 -9 -48c0 -29 20 -35 68 -35h73c125 0 163 48 214 187z" />
    <glyph glyph-name="lacute" unicode="&#x13a;" horiz-adv-x="276" 
d="M186 818l-7 11c105 71 149 114 196 142c10 6 25 11 38 11c12 0 23 -4 28 -16c1 -3 2 -7 2 -10c0 -18 -18 -35 -35 -44c-46 -27 -109 -39 -222 -94zM311 795l-209 -710c-4 -14 -6 -26 -6 -35c0 -17 7 -27 23 -27c26 0 48 26 75 102l13 37h19l-25 -73
c-26 -76 -69 -103 -120 -103c-53 0 -69 28 -69 65c0 23 7 50 14 75l163 541c3 11 5 20 5 28c0 26 -18 38 -68 38l7 21c73 1 126 15 178 41z" />
    <glyph glyph-name="Lcommaaccent" unicode="&#x13b;" horiz-adv-x="585" 
d="M512 210h23c-8 -21 -16 -50 -25 -82c-7 -25 -19 -77 -27 -128c-68 3 -162 3 -229 3c-60 0 -192 0 -289 -3l5 20c68 3 83 13 103 86l133 496c6 21 9 37 9 49c0 29 -19 35 -67 37l5 20c28 -2 76 -3 128 -3c46 0 96 1 127 3l-5 -20c-69 -3 -84 -13 -104 -86l-133 -496
c-6 -21 -9 -36 -9 -48c0 -29 20 -35 68 -35h73c125 0 163 48 214 187zM192 -133c0 34 28 64 65 64c35 0 55 -25 55 -59c0 -58 -42 -93 -98 -113l-7 17c31 9 71 32 74 64c-10 -9 -27 -16 -44 -16c-26 0 -45 15 -45 43z" />
    <glyph glyph-name="lcommaaccent" unicode="&#x13c;" horiz-adv-x="276" 
d="M311 795l-209 -710c-4 -14 -6 -26 -6 -35c0 -17 7 -27 23 -27c26 0 48 26 75 102l13 37h19l-25 -73c-26 -76 -69 -103 -120 -103c-53 0 -69 28 -69 65c0 23 7 50 14 75l163 541c3 11 5 20 5 28c0 26 -18 38 -68 38l7 21c73 1 126 15 178 41zM70 -69c35 0 55 -25 55 -58
c0 -43 -16 -86 -98 -114l-7 17c31 9 71 32 74 64c-10 -9 -27 -16 -44 -16c-26 0 -45 15 -45 42c0 29 23 65 65 65z" />
    <glyph glyph-name="Lcaron" unicode="&#x13d;" horiz-adv-x="585" 
d="M428 481l-14 4c52 93 70 159 70 183c0 12 -6 19 -32 19l3 21c16 0 28 -1 41 -1c33 0 53 6 72 12c1 -2 1 -5 1 -8c0 -50 -52 -133 -141 -230zM512 210h23c-8 -21 -16 -50 -25 -82c-7 -25 -19 -77 -27 -128c-68 3 -162 3 -229 3c-60 0 -192 0 -289 -3l5 20
c68 3 83 13 103 86l133 496c6 21 9 37 9 49c0 29 -19 35 -67 37l5 20c28 -2 76 -3 128 -3c46 0 96 1 127 3l-5 -20c-69 -3 -84 -13 -104 -86l-133 -496c-6 -21 -9 -36 -9 -48c0 -29 20 -35 68 -35h73c125 0 163 48 214 187z" />
    <glyph glyph-name="lcaron" unicode="&#x13e;" horiz-adv-x="276" 
d="M311 795l-209 -710c-4 -14 -6 -26 -6 -35c0 -17 7 -27 23 -27c26 0 48 26 75 102l13 37h19l-25 -73c-26 -76 -69 -103 -120 -103c-53 0 -69 28 -69 65c0 23 7 50 14 75l163 541c3 11 5 20 5 28c0 26 -18 38 -68 38l7 21c73 1 126 15 178 41zM306 536l-14 4
c45 98 61 168 61 193c0 12 -3 19 -13 19l3 21c8 0 14 -1 21 -1c33 0 54 6 73 12c1 -2 1 -5 1 -8c0 -52 -49 -139 -132 -240z" />
    <glyph glyph-name="Ldot" unicode="&#x13f;" horiz-adv-x="597" 
d="M512 210h23c-8 -21 -16 -50 -25 -82c-7 -25 -19 -77 -27 -128c-68 3 -162 3 -229 3c-60 0 -192 0 -289 -3l5 20c68 3 83 13 103 86l133 496c6 21 9 37 9 49c0 29 -19 35 -67 37l5 20c28 -2 76 -3 128 -3c46 0 96 1 127 3l-5 -20c-69 -3 -84 -13 -104 -86l-133 -496
c-6 -21 -9 -36 -9 -48c0 -29 20 -35 68 -35h73c125 0 163 48 214 187zM458 342c0 41 36 77 74 77c31 0 51 -23 51 -52c0 -40 -36 -76 -75 -76c-30 0 -50 22 -50 51z" />
    <glyph glyph-name="ldot" unicode="&#x140;" horiz-adv-x="414" 
d="M311 795l-209 -710c-4 -14 -6 -26 -6 -35c0 -17 7 -27 23 -27c26 0 48 26 75 102l13 37h19l-25 -73c-26 -76 -69 -103 -120 -103c-53 0 -69 28 -69 65c0 23 7 50 14 75l163 541c3 11 5 20 5 28c0 26 -18 38 -68 38l7 21c73 1 126 15 178 41zM270 282c0 41 36 77 74 77
c31 0 51 -23 51 -52c0 -40 -36 -76 -75 -76c-30 0 -50 22 -50 51z" />
    <glyph glyph-name="Lslash" unicode="&#x141;" horiz-adv-x="586" 
d="M514 210h23c-8 -21 -16 -50 -25 -82c-7 -25 -19 -77 -27 -128c-68 3 -162 3 -229 3c-60 0 -192 0 -289 -3l5 20c68 3 83 13 103 86l42 155l-102 -51l6 23l102 51l85 318c6 21 9 37 9 49c0 29 -19 35 -67 37l5 20c28 -2 76 -3 128 -3c46 0 96 1 127 3l-5 -20
c-69 -3 -84 -13 -104 -86l-73 -274l288 145l-6 -23l-289 -145l-53 -199c-6 -21 -9 -36 -9 -48c0 -29 20 -35 68 -35h73c125 0 163 48 214 187z" />
    <glyph glyph-name="lslash" unicode="&#x142;" horiz-adv-x="308" 
d="M202 372l-85 -287c-4 -14 -6 -26 -6 -35c0 -17 7 -27 23 -27c26 0 48 26 75 102l13 37h19l-25 -73c-26 -76 -69 -103 -120 -103c-53 0 -69 28 -69 65c0 23 7 50 14 75l59 196l-100 -67l4 30l106 71l94 311c3 11 5 20 5 28c0 26 -18 38 -68 38l7 21c73 1 126 15 178 41
l-115 -389l138 91l-4 -30z" />
    <glyph glyph-name="Nacute" unicode="&#x143;" horiz-adv-x="770" 
d="M686 866c-46 -27 -109 -39 -222 -94l-7 11c105 71 149 114 196 142c10 6 25 12 38 12c12 0 23 -5 28 -17c1 -3 2 -7 2 -10c0 -18 -18 -35 -35 -44zM812 754c46 0 60 -24 60 -51c0 -33 -20 -72 -59 -72c-30 0 -38 22 -38 39c0 23 15 47 32 63h-3c-37 -1 -62 -21 -82 -51
c-61 -91 -123 -318 -201 -687h-22l-228 644c-52 -267 -117 -571 -176 -650c-24 -32 -54 -63 -107 -63c-47 0 -60 24 -60 52c0 33 20 71 59 71c30 0 38 -22 38 -39c0 -23 -15 -47 -32 -63h3c36 1 63 20 83 52c55 85 109 321 168 625c1 9 2 16 2 22c0 33 -19 40 -77 42l5 20
c21 -2 54 -3 89 -3c30 0 58 1 81 3l189 -553c46 206 105 444 168 535c25 36 59 64 108 64z" />
    <glyph glyph-name="nacute" unicode="&#x144;" horiz-adv-x="580" 
d="M504 751c-37 -39 -94 -68 -188 -152l-10 9c82 97 111 151 150 190c14 16 28 22 41 22c8 0 16 -2 22 -7c5 -5 8 -12 8 -20c0 -12 -7 -26 -23 -42zM530 162l-25 -73c-29 -84 -80 -103 -121 -103c-32 0 -52 11 -63 29c-5 9 -8 20 -8 33c0 21 7 48 17 78l95 286
c4 13 10 32 10 49c0 19 -7 35 -32 35c-79 0 -193 -184 -263 -426l-18 -70h-87l120 429c3 11 7 26 7 38c0 14 -5 24 -22 24c-29 0 -49 -24 -77 -102l-13 -37h-19l25 73c29 84 76 103 119 103c46 0 59 -25 59 -59c0 -24 -7 -54 -14 -81l-34 -137c86 205 159 277 250 277
c61 0 81 -32 81 -75c0 -23 -7 -50 -15 -76l-97 -292c-5 -15 -8 -28 -8 -38c0 -15 7 -24 24 -24c25 0 49 22 77 102l13 37h19z" />
    <glyph glyph-name="Ncommaaccent" unicode="&#x145;" horiz-adv-x="770" 
d="M812 754c46 0 60 -24 60 -51c0 -33 -20 -72 -59 -72c-30 0 -38 22 -38 39c0 23 15 47 32 63h-3c-37 -1 -62 -21 -82 -51c-61 -91 -123 -318 -201 -687h-22l-228 644c-52 -267 -117 -571 -176 -650c-24 -32 -54 -63 -107 -63c-47 0 -60 24 -60 52c0 33 20 71 59 71
c30 0 38 -22 38 -39c0 -23 -15 -47 -32 -63h3c36 1 63 20 83 52c55 85 109 321 168 625c1 9 2 16 2 22c0 33 -19 40 -77 42l5 20c21 -2 54 -3 89 -3c30 0 58 1 81 3l189 -553c46 206 105 444 168 535c25 36 59 64 108 64zM288 -69c35 0 55 -25 55 -59
c0 -58 -42 -93 -98 -113l-7 17c31 9 71 32 74 64c-10 -9 -27 -16 -44 -16c-26 0 -45 15 -45 43c0 34 28 64 65 64z" />
    <glyph glyph-name="ncommaaccent" unicode="&#x146;" horiz-adv-x="580" 
d="M530 162l-25 -73c-29 -84 -80 -103 -121 -103c-32 0 -52 11 -63 29c-5 9 -8 20 -8 33c0 21 7 48 17 78l95 286c4 13 10 32 10 49c0 19 -7 35 -32 35c-79 0 -193 -184 -263 -426l-18 -70h-87l120 429c3 11 7 26 7 38c0 14 -5 24 -22 24c-29 0 -49 -24 -77 -102l-13 -37
h-19l25 73c29 84 76 103 119 103c46 0 59 -25 59 -59c0 -24 -7 -54 -14 -81l-34 -137c86 205 159 277 250 277c61 0 81 -32 81 -75c0 -23 -7 -50 -15 -76l-97 -292c-5 -15 -8 -28 -8 -38c0 -15 7 -24 24 -24c25 0 49 22 77 102l13 37h19zM194 -69c35 0 55 -25 55 -58
c0 -43 -16 -86 -98 -114l-7 17c31 9 71 32 74 64c-10 -9 -27 -16 -44 -16c-26 0 -45 15 -45 42c0 29 23 65 65 65z" />
    <glyph glyph-name="Ncaron" unicode="&#x147;" horiz-adv-x="770" 
d="M528 780h-18c-34 58 -71 103 -139 130l4 14c91 -17 129 -42 177 -68c52 22 134 52 206 68l5 -14c-97 -30 -184 -79 -235 -130zM812 754c46 0 60 -24 60 -51c0 -33 -20 -72 -59 -72c-30 0 -38 22 -38 39c0 23 15 47 32 63h-3c-37 -1 -62 -21 -82 -51
c-61 -91 -123 -318 -201 -687h-22l-228 644c-52 -267 -117 -571 -176 -650c-24 -32 -54 -63 -107 -63c-47 0 -60 24 -60 52c0 33 20 71 59 71c30 0 38 -22 38 -39c0 -23 -15 -47 -32 -63h3c36 1 63 20 83 52c55 85 109 321 168 625c1 9 2 16 2 22c0 33 -19 40 -77 42l5 20
c21 -2 54 -3 89 -3c30 0 58 1 81 3l189 -553c46 206 105 444 168 535c25 36 59 64 108 64z" />
    <glyph glyph-name="ncaron" unicode="&#x148;" horiz-adv-x="580" 
d="M370 616h-18c-14 82 -47 133 -120 172l4 14c83 -23 127 -59 168 -104c46 36 112 78 176 104l4 -14c-89 -38 -167 -105 -214 -172zM511 162h19l-25 -73c-29 -84 -80 -103 -121 -103c-32 0 -52 11 -63 29c-5 9 -8 20 -8 33c0 21 7 48 17 78l95 286c4 13 10 32 10 49
c0 19 -7 35 -32 35c-79 0 -193 -184 -263 -426l-18 -70h-87l120 429c3 11 7 26 7 38c0 14 -5 24 -22 24c-29 0 -49 -24 -77 -102l-13 -37h-19l25 73c29 84 76 103 119 103c46 0 59 -25 59 -59c0 -24 -7 -54 -14 -81l-34 -137c86 205 159 277 250 277c61 0 81 -32 81 -75
c0 -23 -7 -50 -15 -76l-97 -292c-5 -15 -8 -28 -8 -38c0 -15 7 -24 24 -24c25 0 49 22 77 102z" />
    <glyph glyph-name="napostrophe" unicode="&#x149;" horiz-adv-x="580" 
d="M124 702c0 -69 -55 -144 -147 -189l-5 14c63 38 102 86 106 131c-16 -14 -34 -25 -52 -25c-24 0 -38 14 -38 35c0 43 46 93 92 93c31 0 44 -29 44 -59zM530 162l-25 -73c-29 -84 -80 -103 -121 -103c-32 0 -52 11 -63 29c-5 9 -8 20 -8 33c0 21 7 48 17 78l95 286
c4 13 10 32 10 49c0 19 -7 35 -32 35c-79 0 -193 -184 -263 -426l-18 -70h-87l120 429c3 11 7 26 7 38c0 14 -5 24 -22 24c-29 0 -49 -24 -77 -102l-13 -37h-19l25 73c29 84 76 103 119 103c46 0 59 -25 59 -59c0 -24 -7 -54 -14 -81l-34 -137c86 205 159 277 250 277
c61 0 81 -32 81 -75c0 -23 -7 -50 -15 -76l-97 -292c-5 -15 -8 -28 -8 -38c0 -15 7 -24 24 -24c25 0 49 22 77 102l13 37h19z" />
    <glyph glyph-name="Eng" unicode="&#x14a;" horiz-adv-x="701" 
d="M680 705c34 0 71 1 94 3l-5 -20c-69 -3 -86 -23 -105 -96l-139 -525c-39 -173 -103 -255 -199 -255c-44 0 -90 17 -90 57c0 30 24 57 55 57c24 0 42 -19 42 -42s-19 -41 -40 -51c9 -3 23 -5 35 -5c76 0 126 74 156 167l-243 658l-141 -537c-5 -21 -9 -37 -9 -50
c0 -33 21 -44 76 -46l-5 -20c-23 2 -67 3 -101 3s-71 -1 -94 -3l5 20c69 3 86 23 105 96l129 486c5 21 8 36 8 48c0 30 -19 36 -67 38l5 20c21 -2 54 -3 89 -3c30 0 58 1 81 3l202 -562l117 446c5 21 8 37 8 50c0 33 -20 44 -75 46l5 20c23 -2 67 -3 101 -3z" />
    <glyph glyph-name="eng" unicode="&#x14b;" horiz-adv-x="548" 
d="M435 528c58 0 80 -27 80 -72c0 -22 -6 -49 -14 -79l-74 -262c-42 -149 -105 -260 -195 -293c-20 -7 -45 -10 -59 -10c-30 0 -48 14 -48 38c0 5 2 10 3 16c7 21 29 46 57 46c21 0 33 -13 33 -31c0 -4 -1 -8 -2 -12c-4 -13 -11 -28 -26 -42c50 6 78 33 99 108l135 477
c6 21 10 39 10 52c0 21 -9 32 -32 32c-79 0 -193 -184 -263 -426l-18 -70h-87l120 429c4 16 7 29 7 39c0 15 -6 23 -21 23c-29 0 -52 -28 -78 -102l-13 -37h-19l25 73c29 84 80 103 121 103c42 0 57 -21 57 -57c0 -22 -6 -51 -14 -83l-42 -166c89 228 163 306 258 306z" />
    <glyph glyph-name="Omacron" unicode="&#x14c;" horiz-adv-x="729" 
d="M669 819h-352l6 25h352zM54 226c0 221 165 496 417 496c148 0 236 -87 236 -241c0 -220 -167 -495 -418 -495c-148 0 -235 87 -235 240zM462 704c-155 0 -302 -250 -302 -491c0 -131 57 -209 138 -209c155 0 302 250 302 491c0 131 -57 209 -138 209z" />
    <glyph glyph-name="omacron" unicode="&#x14d;" horiz-adv-x="487" 
d="M520 687h-312l6 25h312zM21 143c0 147 102 385 289 385c83 0 137 -51 137 -157c0 -147 -102 -385 -289 -385c-83 0 -137 51 -137 157zM304 508c-107 0 -197 -237 -197 -415c0 -60 19 -87 57 -87c108 0 197 236 197 415c0 61 -19 87 -57 87z" />
    <glyph glyph-name="Obreve" unicode="&#x14e;" horiz-adv-x="729" 
d="M516 849c69 0 157 20 221 58l10 -11c-52 -52 -164 -114 -248 -114c-86 0 -137 52 -151 116l16 5c35 -41 79 -54 152 -54zM54 226c0 221 165 496 417 496c148 0 236 -87 236 -241c0 -220 -167 -495 -418 -495c-148 0 -235 87 -235 240zM462 704
c-155 0 -302 -250 -302 -491c0 -131 57 -209 138 -209c155 0 302 250 302 491c0 131 -57 209 -138 209z" />
    <glyph glyph-name="obreve" unicode="&#x14f;" horiz-adv-x="487" 
d="M362 700c63 0 149 32 207 88l10 -11c-48 -67 -156 -144 -234 -144c-74 0 -113 66 -125 146l16 5c31 -63 63 -84 126 -84zM21 143c0 147 102 385 289 385c83 0 137 -51 137 -157c0 -147 -102 -385 -289 -385c-83 0 -137 51 -137 157zM304 508c-107 0 -197 -237 -197 -415
c0 -60 19 -87 57 -87c108 0 197 236 197 415c0 61 -19 87 -57 87z" />
    <glyph glyph-name="Ohungarumlaut" unicode="&#x150;" horiz-adv-x="729" 
d="M553 772l-6 12c61 48 107 105 154 138c9 7 23 14 37 14c9 0 18 -3 24 -12c3 -5 5 -10 5 -15c0 -17 -17 -34 -33 -46c-47 -33 -115 -52 -181 -91zM366 772l-6 12c61 48 107 105 154 138c9 7 24 14 37 14c10 0 19 -4 25 -14c2 -4 4 -10 4 -14c0 -17 -15 -32 -33 -45
c-47 -33 -115 -52 -181 -91zM54 226c0 221 165 496 417 496c148 0 236 -87 236 -241c0 -220 -167 -495 -418 -495c-148 0 -235 87 -235 240zM462 704c-155 0 -302 -250 -302 -491c0 -131 57 -209 138 -209c155 0 302 250 302 491c0 131 -57 209 -138 209z" />
    <glyph glyph-name="ohungarumlaut" unicode="&#x151;" horiz-adv-x="487" 
d="M231 599l-11 9c62 97 79 151 109 190c12 16 26 22 38 22c8 0 16 -2 22 -7c8 -7 14 -17 14 -28c0 -10 -5 -22 -14 -34c-31 -39 -79 -68 -158 -152zM409 599l-11 9c62 97 79 151 109 190c12 16 26 22 38 22c8 0 16 -2 22 -7c8 -7 14 -16 14 -28c0 -10 -5 -22 -14 -34
c-31 -39 -79 -68 -158 -152zM21 143c0 147 102 385 289 385c83 0 137 -51 137 -157c0 -147 -102 -385 -289 -385c-83 0 -137 51 -137 157zM304 508c-107 0 -197 -237 -197 -415c0 -60 19 -87 57 -87c108 0 197 236 197 415c0 61 -19 87 -57 87z" />
    <glyph glyph-name="OE" unicode="&#x152;" horiz-adv-x="956" 
d="M806 705c55 0 130 0 187 3c-18 -47 -31 -95 -38 -118c-9 -24 -13 -47 -13 -62h-22c5 28 7 51 7 71c0 63 -26 86 -88 86h-83c-66 0 -81 -10 -100 -83l-63 -236h98c60 0 81 54 103 112h22c-17 -52 -23 -80 -34 -122c-8 -29 -15 -56 -26 -122h-22c0 20 5 42 5 62
c0 26 -9 47 -52 50h-99l-64 -240c-5 -21 -8 -36 -8 -48c0 -29 18 -35 65 -35h93c96 0 135 45 179 177h22c-8 -18 -13 -44 -21 -72c-7 -25 -20 -77 -26 -128c-65 3 -152 3 -216 3c-50 0 -150 0 -239 -2c-31 -9 -68 -15 -102 -15c-136 0 -215 87 -215 240
c0 221 157 496 397 496c38 0 72 -5 101 -15c93 -2 199 -2 252 -2zM431 106l132 496c4 14 5 27 5 37c0 56 -49 65 -112 65c-157 0 -294 -250 -294 -491c0 -131 49 -209 118 -209c84 0 130 21 151 102z" />
    <glyph glyph-name="oe" unicode="&#x153;" horiz-adv-x="719" 
d="M705 452c0 -118 -184 -195 -300 -232c-6 -32 -10 -64 -10 -96c0 -68 27 -96 69 -96c48 0 99 25 150 100l20 -8c-39 -67 -116 -134 -201 -134c-77 0 -128 44 -132 128c-36 -73 -87 -128 -164 -128c-71 0 -122 51 -122 157c0 143 136 375 327 375c60 0 88 -28 88 -70
c0 -4 -1 -10 -1 -15c50 56 113 95 182 95c53 0 94 -25 94 -76zM589 509c-59 0 -146 -126 -180 -270c59 21 108 42 138 65c48 38 78 94 78 160c0 28 -13 45 -36 45zM304 166c9 69 41 153 89 222c7 18 12 36 12 53c0 30 -15 54 -56 54c-138 0 -248 -228 -248 -402
c0 -60 16 -82 47 -82c60 0 118 62 156 155z" />
    <glyph glyph-name="Racute" unicode="&#x154;" horiz-adv-x="664" 
d="M572 866c-46 -27 -109 -39 -222 -94l-7 11c105 71 149 114 196 142c10 6 25 12 38 12c12 0 23 -5 28 -17c1 -3 2 -7 2 -10c0 -18 -18 -35 -35 -44zM592 121h23l-4 -13c-23 -81 -56 -122 -119 -122c-62 0 -91 42 -91 87c0 3 1 6 1 9l8 112c1 11 2 21 2 31
c0 81 -35 110 -185 111l-61 -230c-5 -20 -9 -36 -9 -49c0 -26 16 -37 68 -37l-4 -20c-31 2 -78 3 -124 3c-52 0 -102 -1 -130 -3l4 20c68 3 84 13 103 86l132 496c5 20 9 35 9 47c0 28 -17 39 -68 39l5 20c27 -2 79 -3 123 -3c48 0 96 2 146 2c134 0 199 -56 199 -141
c0 -110 -102 -196 -261 -222c13 -1 24 -3 35 -5c73 -14 111 -38 111 -111c0 -7 -1 -14 -1 -21l-8 -102c0 -7 -1 -14 -1 -21c0 -33 7 -61 32 -61c24 0 41 31 60 84zM232 356h31c191 0 256 96 256 216c0 78 -37 116 -127 116c-59 0 -76 -18 -94 -86z" />
    <glyph glyph-name="racute" unicode="&#x155;" horiz-adv-x="425" 
d="M452 751c-37 -39 -94 -68 -188 -152l-10 9c82 97 111 151 150 190c14 16 28 22 41 22c8 0 16 -2 22 -7c5 -5 8 -12 8 -20c0 -12 -7 -26 -23 -42zM395 528c37 0 59 -24 59 -57c0 -40 -33 -72 -70 -72c-23 0 -40 13 -40 36c0 32 19 53 45 64c-3 3 -6 4 -11 4
c-73 0 -162 -173 -236 -420l-21 -83h-87l120 429c5 17 7 29 7 39c0 16 -7 23 -21 23c-29 0 -52 -28 -78 -102l-13 -37h-19l25 73c29 84 80 103 121 103c44 0 57 -25 57 -58c0 -25 -8 -56 -14 -82l-32 -127c72 195 130 267 208 267z" />
    <glyph glyph-name="Rcommaaccent" unicode="&#x156;" horiz-adv-x="664" 
d="M592 121h23l-4 -13c-23 -81 -56 -122 -119 -122c-62 0 -91 42 -91 87c0 3 1 6 1 9l8 112c1 11 2 21 2 31c0 81 -35 110 -185 111l-61 -230c-5 -20 -9 -36 -9 -49c0 -26 16 -37 68 -37l-4 -20c-31 2 -78 3 -124 3c-52 0 -102 -1 -130 -3l4 20c68 3 84 13 103 86l132 496
c5 20 9 35 9 47c0 28 -17 39 -68 39l5 20c27 -2 79 -3 123 -3c48 0 96 2 146 2c134 0 199 -56 199 -141c0 -110 -102 -196 -261 -222c13 -1 24 -3 35 -5c73 -14 111 -38 111 -111c0 -7 -1 -14 -1 -21l-8 -102c0 -7 -1 -14 -1 -21c0 -33 7 -61 32 -61c24 0 41 31 60 84z
M232 356h31c191 0 256 96 256 216c0 78 -37 116 -127 116c-59 0 -76 -18 -94 -86zM292 -69c35 0 55 -25 55 -59c0 -58 -42 -93 -98 -113l-7 17c31 9 71 32 74 64c-10 -9 -27 -16 -44 -16c-26 0 -45 15 -45 43c0 34 28 64 65 64z" />
    <glyph glyph-name="rcommaaccent" unicode="&#x157;" horiz-adv-x="425" 
d="M395 528c37 0 59 -24 59 -57c0 -40 -33 -72 -70 -72c-23 0 -40 13 -40 36c0 32 19 53 45 64c-3 3 -6 4 -11 4c-73 0 -162 -173 -236 -420l-21 -83h-87l120 429c5 17 7 29 7 39c0 16 -7 23 -21 23c-29 0 -52 -28 -78 -102l-13 -37h-19l25 73c29 84 80 103 121 103
c44 0 57 -25 57 -58c0 -25 -8 -56 -14 -82l-32 -127c72 195 130 267 208 267zM60 -69c35 0 55 -25 55 -58c0 -43 -16 -86 -98 -114l-7 17c31 9 71 32 74 64c-10 -9 -27 -16 -44 -16c-26 0 -45 15 -45 42c0 29 23 65 65 65z" />
    <glyph glyph-name="Rcaron" unicode="&#x158;" horiz-adv-x="664" 
d="M414 780h-18c-34 58 -71 103 -139 130l4 14c91 -17 129 -42 177 -68c52 22 134 52 206 68l5 -14c-97 -30 -184 -79 -235 -130zM620 566c0 -110 -102 -196 -261 -222c13 -1 24 -3 35 -5c73 -14 111 -38 111 -111c0 -7 -1 -14 -1 -21l-8 -102c0 -7 -1 -14 -1 -21
c0 -33 7 -61 32 -61c24 0 41 31 60 84l5 14h23l-4 -13c-23 -81 -56 -122 -119 -122c-62 0 -91 42 -91 87c0 3 1 6 1 9l8 112c1 11 2 21 2 31c0 81 -35 110 -185 111l-61 -230c-5 -20 -9 -36 -9 -49c0 -26 16 -37 68 -37l-4 -20c-31 2 -78 3 -124 3c-52 0 -102 -1 -130 -3
l4 20c68 3 84 13 103 86l132 496c5 20 9 35 9 47c0 28 -17 39 -68 39l5 20c27 -2 79 -3 123 -3c48 0 96 2 146 2c134 0 199 -56 199 -141zM232 356h31c191 0 256 96 256 216c0 78 -37 116 -127 116c-59 0 -76 -18 -94 -86z" />
    <glyph glyph-name="rcaron" unicode="&#x159;" horiz-adv-x="425" 
d="M317 616h-18c-14 82 -46 133 -119 172l4 14c83 -23 127 -59 168 -104c46 36 111 78 175 104l5 -14c-89 -38 -168 -105 -215 -172zM395 528c37 0 59 -24 59 -57c0 -40 -33 -72 -70 -72c-23 0 -40 13 -40 36c0 32 19 53 45 64c-3 3 -6 4 -11 4c-73 0 -162 -173 -236 -420
l-21 -83h-87l120 429c5 17 7 29 7 39c0 16 -7 23 -21 23c-29 0 -52 -28 -78 -102l-13 -37h-19l25 73c29 84 80 103 121 103c44 0 57 -25 57 -58c0 -25 -8 -56 -14 -82l-32 -127c72 195 130 267 208 267z" />
    <glyph glyph-name="Sacute" unicode="&#x15a;" horiz-adv-x="554" 
d="M330 772l-7 11c105 71 149 114 196 142c10 6 25 12 38 12c12 0 23 -5 28 -17c1 -3 2 -7 2 -10c0 -18 -18 -35 -35 -44c-46 -27 -109 -39 -222 -94zM556 715h20c-14 -35 -38 -99 -59 -204h-20c4 19 6 39 6 57c0 73 -41 135 -142 135c-80 0 -140 -40 -140 -127
c0 -151 253 -228 253 -394c0 -138 -137 -196 -253 -196c-80 0 -118 27 -142 46c-15 12 -28 15 -36 15c-17 0 -26 -18 -41 -54h-20c18 43 38 101 68 240h20c-5 -28 -10 -53 -9 -81c4 -91 53 -146 163 -146c87 0 147 38 147 125c0 168 -231 211 -231 396
c0 129 111 195 220 195c56 0 92 -13 130 -42c16 -12 26 -18 33 -18c11 0 20 16 33 53z" />
    <glyph glyph-name="sacute" unicode="&#x15b;" horiz-adv-x="380" 
d="M236 599l-10 9c82 97 111 151 150 190c14 16 28 22 41 22c8 0 16 -2 22 -7c5 -5 8 -12 8 -20c0 -12 -7 -26 -23 -42c-37 -39 -94 -68 -188 -152zM59 15c11 -5 21 -9 46 -9c59 0 101 36 101 103c0 41 -13 79 -52 132c-31 42 -65 84 -65 145c0 85 70 142 155 142
c57 0 122 -16 122 -87c0 -19 -12 -52 -46 -52c-22 0 -40 17 -40 42c0 24 11 46 28 67c-13 8 -30 12 -50 12c-50 0 -87 -35 -87 -95c0 -46 21 -67 60 -125c33 -51 59 -95 59 -147c0 -93 -79 -157 -172 -157c-69 0 -135 27 -135 99c0 19 9 45 39 45c32 0 44 -31 44 -63
c0 -21 -4 -37 -7 -52z" />
    <glyph glyph-name="Scircumflex" unicode="&#x15c;" horiz-adv-x="554" 
d="M399 840c-52 -22 -134 -52 -206 -68l-5 14c97 30 184 79 235 130h18c34 -58 71 -103 139 -130l-4 -14c-91 17 -129 42 -177 68zM556 715h20c-14 -35 -38 -99 -59 -204h-20c4 19 6 39 6 57c0 73 -41 135 -142 135c-80 0 -140 -40 -140 -127c0 -151 253 -228 253 -394
c0 -138 -137 -196 -253 -196c-80 0 -118 27 -142 46c-15 12 -28 15 -36 15c-17 0 -26 -18 -41 -54h-20c18 43 38 101 68 240h20c-5 -28 -10 -53 -9 -81c4 -91 53 -146 163 -146c87 0 147 38 147 125c0 168 -231 211 -231 396c0 129 111 195 220 195c56 0 92 -13 130 -42
c16 -12 26 -18 33 -18c11 0 20 16 33 53z" />
    <glyph glyph-name="scircumflex" unicode="&#x15d;" horiz-adv-x="380" 
d="M278 720c-46 -36 -111 -78 -175 -104l-5 14c89 38 168 105 215 172h18c14 -82 46 -133 119 -172l-4 -14c-83 23 -127 59 -168 104zM59 15c11 -5 21 -9 46 -9c59 0 101 36 101 103c0 41 -13 79 -52 132c-31 42 -65 84 -65 145c0 85 70 142 155 142c57 0 122 -16 122 -87
c0 -19 -12 -52 -46 -52c-22 0 -40 17 -40 42c0 24 11 46 28 67c-13 8 -30 12 -50 12c-50 0 -87 -35 -87 -95c0 -46 21 -67 60 -125c33 -51 59 -95 59 -147c0 -93 -79 -157 -172 -157c-69 0 -135 27 -135 99c0 19 9 45 39 45c32 0 44 -31 44 -63c0 -21 -4 -37 -7 -52z" />
    <glyph glyph-name="Scedilla" unicode="&#x15e;" horiz-adv-x="554" 
d="M556 715h20c-14 -35 -38 -99 -59 -204h-20c4 19 6 39 6 57c0 73 -41 135 -142 135c-80 0 -140 -40 -140 -127c0 -151 253 -228 253 -394c0 -138 -137 -196 -253 -196h-1l-27 -58c14 4 34 7 51 7c33 0 53 -15 53 -40c0 -58 -89 -83 -153 -83c-47 0 -83 11 -100 22l7 15
c10 -4 34 -13 80 -13c30 0 102 11 102 51c0 16 -12 24 -38 24c-9 0 -26 -2 -41 -7l39 83c-62 5 -93 28 -114 45c-15 12 -28 15 -36 15c-17 0 -26 -18 -41 -54h-20c18 43 38 101 68 240h20c-5 -28 -10 -53 -9 -81c4 -91 53 -146 163 -146c87 0 147 38 147 125
c0 168 -231 211 -231 396c0 129 111 195 220 195c56 0 92 -13 130 -42c16 -12 26 -18 33 -18c11 0 20 16 33 53z" />
    <glyph glyph-name="scedilla" unicode="&#x15f;" horiz-adv-x="380" 
d="M244 528c57 0 122 -16 122 -87c0 -19 -12 -52 -46 -52c-22 0 -40 17 -40 42c0 24 11 46 28 67c-13 8 -30 12 -50 12c-50 0 -87 -35 -87 -95c0 -46 21 -67 60 -125c33 -51 59 -95 59 -147c0 -93 -78 -156 -170 -157l-27 -58c11 4 27 7 41 7c27 0 43 -15 43 -40
c0 -58 -71 -83 -123 -83c-37 0 -67 11 -80 22l6 15c9 -4 28 -13 61 -13c21 0 72 11 72 51c0 16 -10 24 -29 24c-7 0 -19 -2 -30 -7l39 83c-59 6 -110 35 -110 98c0 19 9 45 39 45c32 0 44 -31 44 -63c0 -21 -4 -37 -7 -52c11 -5 21 -9 46 -9c59 0 101 36 101 103
c0 41 -13 79 -52 132c-31 42 -65 84 -65 145c0 85 70 142 155 142z" />
    <glyph glyph-name="Scaron" unicode="&#x160;" horiz-adv-x="554" 
d="M418 856c52 22 134 52 206 68l5 -14c-97 -30 -184 -79 -235 -130h-18c-34 58 -71 103 -139 130l4 14c91 -17 129 -42 177 -68zM556 715h20c-14 -35 -38 -99 -59 -204h-20c4 19 6 39 6 57c0 73 -41 135 -142 135c-80 0 -140 -40 -140 -127c0 -151 253 -228 253 -394
c0 -138 -137 -196 -253 -196c-80 0 -118 27 -142 46c-15 12 -28 15 -36 15c-17 0 -26 -18 -41 -54h-20c18 43 38 101 68 240h20c-5 -28 -10 -53 -9 -81c4 -91 53 -146 163 -146c87 0 147 38 147 125c0 168 -231 211 -231 396c0 129 111 195 220 195c56 0 92 -13 130 -42
c16 -12 26 -18 33 -18c11 0 20 16 33 53z" />
    <glyph glyph-name="scaron" unicode="&#x161;" horiz-adv-x="380" 
d="M324 698c46 36 112 78 176 104l4 -14c-89 -38 -167 -105 -214 -172h-19c-14 82 -46 133 -119 172l4 14c83 -23 127 -59 168 -104zM59 15c11 -5 21 -9 46 -9c59 0 101 36 101 103c0 41 -13 79 -52 132c-31 42 -65 84 -65 145c0 85 70 142 155 142c57 0 122 -16 122 -87
c0 -19 -12 -52 -46 -52c-22 0 -40 17 -40 42c0 24 11 46 28 67c-13 8 -30 12 -50 12c-50 0 -87 -35 -87 -95c0 -46 21 -67 60 -125c33 -51 59 -95 59 -147c0 -93 -79 -157 -172 -157c-69 0 -135 27 -135 99c0 19 9 45 39 45c32 0 44 -31 44 -63c0 -21 -4 -37 -7 -52z" />
    <glyph glyph-name="Tcedilla" unicode="&#x162;" horiz-adv-x="659" 
d="M768 817c31 0 45 -22 45 -48c0 -31 -21 -56 -47 -72c-34 -21 -86 -33 -158 -33c-35 0 -69 3 -103 7l-147 -555c-6 -21 -9 -38 -9 -51c0 -35 23 -44 84 -45l-4 -20c-32 2 -83 3 -135 3l-35 -75c14 4 34 7 51 7c33 0 53 -15 53 -40c0 -58 -89 -83 -153 -83
c-47 0 -83 11 -100 22l7 15c10 -4 34 -13 80 -13c30 0 102 11 102 51c0 16 -12 24 -38 24c-9 0 -26 -2 -41 -7l47 99c-52 0 -103 -1 -133 -3l4 20c84 3 105 24 127 96l151 567c-44 6 -87 11 -129 11s-91 -3 -112 -17c10 -14 18 -38 18 -58c0 -27 -15 -58 -50 -58
c-29 0 -44 20 -44 50c0 27 12 58 53 78c45 22 111 23 134 23c119 0 213 -28 329 -28c58 0 96 5 129 22c-13 13 -25 32 -25 56c0 27 15 55 49 55z" />
    <glyph glyph-name="tcedilla" unicode="&#x163;" horiz-adv-x="335" 
d="M237 494l-116 -409c-2 -8 -3 -17 -3 -23c0 -28 19 -39 43 -39c29 0 59 17 89 100l14 39h19l-21 -63c-29 -87 -76 -113 -137 -113c-8 0 -16 0 -23 1l-28 -59c11 4 27 7 41 7c27 0 43 -15 43 -40c0 -58 -71 -83 -123 -83c-37 0 -67 11 -80 22l7 15c9 -4 27 -13 60 -13
c21 0 72 11 72 51c0 16 -9 24 -28 24c-7 0 -20 -2 -31 -7l43 90c-29 13 -42 39 -42 75c0 17 3 36 9 57l106 368h-90l5 20h91l43 152c32 1 64 5 90 14l-47 -166h132l-3 -20h-135z" />
    <glyph glyph-name="Tcaron" unicode="&#x164;" horiz-adv-x="659" 
d="M477 780h-18c-34 58 -71 103 -139 130l4 14c91 -17 129 -42 177 -68c52 22 134 52 206 68l5 -14c-97 -30 -184 -79 -235 -130zM768 817c31 0 45 -22 45 -48c0 -31 -21 -56 -47 -72c-34 -21 -86 -33 -158 -33c-35 0 -69 3 -103 7l-147 -555c-6 -21 -9 -38 -9 -51
c0 -35 23 -44 84 -45l-4 -20c-35 2 -92 3 -149 3s-114 -1 -146 -3l4 20c84 3 105 24 127 96l151 567c-44 6 -87 11 -129 11s-91 -3 -112 -17c10 -14 18 -38 18 -58c0 -27 -15 -58 -50 -58c-29 0 -44 20 -44 50c0 27 12 58 53 78c45 22 111 23 134 23c119 0 213 -28 329 -28
c58 0 96 5 129 22c-13 13 -25 32 -25 56c0 27 15 55 49 55z" />
    <glyph glyph-name="tcaron" unicode="&#x165;" horiz-adv-x="335" 
d="M521 784c1 -2 1 -5 1 -8c0 -52 -49 -139 -132 -240l-14 4c45 98 61 168 61 193c0 12 -3 19 -13 19l3 21c8 0 14 -1 21 -1c33 0 54 6 73 12zM243 514h132l-3 -20h-135l-116 -409c-2 -8 -3 -17 -3 -23c0 -28 19 -39 43 -39c29 0 59 17 89 100l14 39h19l-21 -63
c-29 -87 -76 -113 -137 -113c-62 0 -89 32 -89 83c0 17 3 36 9 57l106 368h-90l5 20h91l43 152c32 1 64 5 90 14z" />
    <glyph glyph-name="Tbar" unicode="&#x166;" horiz-adv-x="674" 
d="M770 817c31 0 45 -22 45 -48c0 -31 -21 -56 -47 -72c-34 -21 -86 -33 -158 -33c-35 0 -69 3 -103 7l-81 -305h161l-5 -20h-161l-61 -230c-6 -21 -9 -38 -9 -51c0 -35 23 -44 84 -45l-4 -20c-35 2 -92 3 -149 3s-114 -1 -146 -3l4 20c84 3 105 24 127 96l61 230h-160l5 20
h160l85 317c-44 6 -87 11 -129 11s-91 -3 -112 -17c10 -14 18 -38 18 -58c0 -27 -15 -58 -50 -58c-29 0 -44 20 -44 50c0 27 12 58 53 78c45 22 111 23 134 23c119 0 213 -28 329 -28c58 0 96 5 129 22c-13 13 -25 32 -25 56c0 27 15 55 49 55z" />
    <glyph glyph-name="tbar" unicode="&#x167;" 
d="M241 494l-21 -73h135l-3 -20h-137l-90 -316c-2 -8 -3 -17 -3 -23c0 -28 19 -39 43 -39c29 0 59 17 89 100l14 39h19l-21 -63c-29 -87 -76 -113 -137 -113c-62 0 -89 32 -89 83c0 17 3 36 9 57l79 275h-87l5 20h88l21 73h-90l5 20h91l43 152c32 1 64 5 90 14l-47 -166h132
l-3 -20h-135z" />
    <glyph glyph-name="Utilde" unicode="&#x168;" horiz-adv-x="682" 
d="M437 895c91 0 103 -73 172 -73c24 0 47 16 70 58l18 -5c-31 -74 -83 -103 -130 -103c-91 0 -103 73 -172 73c-24 0 -48 -16 -71 -58l-18 5c31 74 84 103 131 103zM549 280l82 312c4 18 7 32 7 44c0 38 -23 50 -74 52l5 20c23 -2 67 -3 101 -3s71 1 94 3l-5 -20
c-69 -3 -88 -23 -106 -96l-78 -301c-24 -93 -55 -161 -98 -212c-48 -56 -122 -93 -205 -93c-65 0 -120 15 -154 54c-25 28 -35 60 -35 102c0 40 9 86 25 146l83 314c5 21 8 36 8 48c0 30 -19 36 -67 38l6 20c27 -2 77 -3 129 -3c46 0 93 1 125 3l-6 -20
c-69 -3 -84 -13 -103 -86l-88 -331c-13 -50 -22 -96 -22 -135c0 -69 29 -115 118 -115c149 0 219 110 258 259z" />
    <glyph glyph-name="utilde" unicode="&#x169;" horiz-adv-x="566" 
d="M251 718c-24 0 -46 -16 -69 -58l-18 5c31 74 83 103 130 103c81 0 92 -73 153 -73c24 0 47 16 70 58l18 -5c-31 -74 -83 -103 -130 -103c-81 0 -93 73 -154 73zM518 528l-124 -443c-4 -15 -7 -29 -7 -39c0 -14 5 -23 21 -23c29 0 52 28 78 102l13 37h19l-25 -73
c-29 -84 -80 -103 -121 -103c-21 0 -42 9 -51 27c-4 8 -6 18 -6 31c0 20 5 45 14 82l32 125c-80 -195 -150 -265 -234 -265c-60 0 -85 30 -85 77c0 21 6 47 15 74l97 292c5 15 8 28 8 38c0 16 -8 24 -24 24c-25 0 -49 -22 -77 -102l-13 -37h-19l25 73c29 84 80 103 121 103
c53 0 70 -26 70 -62c0 -23 -7 -51 -16 -78l-95 -286c-7 -21 -10 -37 -10 -50c0 -23 11 -34 32 -34c77 0 186 180 256 437l15 59c33 1 66 5 91 14z" />
    <glyph glyph-name="Umacron" unicode="&#x16a;" horiz-adv-x="682" 
d="M649 819h-352l6 25h352zM549 280l82 312c4 18 7 32 7 44c0 38 -23 50 -74 52l5 20c23 -2 67 -3 101 -3s71 1 94 3l-5 -20c-69 -3 -88 -23 -106 -96l-78 -301c-24 -93 -55 -161 -98 -212c-48 -56 -122 -93 -205 -93c-65 0 -120 15 -154 54c-25 28 -35 60 -35 102
c0 40 9 86 25 146l83 314c5 21 8 36 8 48c0 30 -19 36 -67 38l6 20c27 -2 77 -3 129 -3c46 0 93 1 125 3l-6 -20c-69 -3 -84 -13 -103 -86l-88 -331c-13 -50 -22 -96 -22 -135c0 -69 29 -115 118 -115c149 0 219 110 258 259z" />
    <glyph glyph-name="umacron" unicode="&#x16b;" horiz-adv-x="566" 
d="M510 687h-312l6 25h312zM499 162h19l-25 -73c-29 -84 -80 -103 -121 -103c-21 0 -42 9 -51 27c-4 8 -6 18 -6 31c0 20 5 45 14 82l32 125c-80 -195 -150 -265 -234 -265c-60 0 -85 30 -85 77c0 21 6 47 15 74l97 292c5 15 8 28 8 38c0 16 -8 24 -24 24
c-25 0 -49 -22 -77 -102l-13 -37h-19l25 73c29 84 80 103 121 103c53 0 70 -26 70 -62c0 -23 -7 -51 -16 -78l-95 -286c-7 -21 -10 -37 -10 -50c0 -23 11 -34 32 -34c77 0 186 180 256 437l15 59c33 1 66 5 91 14l-124 -443c-4 -15 -7 -29 -7 -39c0 -14 5 -23 21 -23
c29 0 52 28 78 102z" />
    <glyph glyph-name="Ubreve" unicode="&#x16c;" horiz-adv-x="682" 
d="M496 849c69 0 157 20 221 58l10 -11c-52 -52 -164 -114 -248 -114c-86 0 -137 52 -151 116l16 5c35 -41 79 -54 152 -54zM549 280l82 312c4 18 7 32 7 44c0 38 -23 50 -74 52l5 20c23 -2 67 -3 101 -3s71 1 94 3l-5 -20c-69 -3 -88 -23 -106 -96l-78 -301
c-24 -93 -55 -161 -98 -212c-48 -56 -122 -93 -205 -93c-65 0 -120 15 -154 54c-25 28 -35 60 -35 102c0 40 9 86 25 146l83 314c5 21 8 36 8 48c0 30 -19 36 -67 38l6 20c27 -2 77 -3 129 -3c46 0 93 1 125 3l-6 -20c-69 -3 -84 -13 -103 -86l-88 -331
c-13 -50 -22 -96 -22 -135c0 -69 29 -115 118 -115c149 0 219 110 258 259z" />
    <glyph glyph-name="ubreve" unicode="&#x16d;" horiz-adv-x="566" 
d="M559 788l10 -11c-48 -67 -156 -144 -234 -144c-74 0 -113 66 -125 146l16 5c31 -63 63 -84 126 -84s149 32 207 88zM518 528l-124 -443c-4 -15 -7 -29 -7 -39c0 -14 5 -23 21 -23c29 0 52 28 78 102l13 37h19l-25 -73c-29 -84 -80 -103 -121 -103c-21 0 -42 9 -51 27
c-4 8 -6 18 -6 31c0 20 5 45 14 82l32 125c-80 -195 -150 -265 -234 -265c-60 0 -85 30 -85 77c0 21 6 47 15 74l97 292c5 15 8 28 8 38c0 16 -8 24 -24 24c-25 0 -49 -22 -77 -102l-13 -37h-19l25 73c29 84 80 103 121 103c53 0 70 -26 70 -62c0 -23 -7 -51 -16 -78
l-95 -286c-7 -21 -10 -37 -10 -50c0 -23 11 -34 32 -34c77 0 186 180 256 437l15 59c33 1 66 5 91 14z" />
    <glyph glyph-name="Uring" unicode="&#x16e;" horiz-adv-x="682" 
d="M504 925c48 0 86 -31 86 -80c0 -56 -52 -103 -111 -103c-47 0 -83 30 -83 80c0 58 48 103 108 103zM482 763c42 0 82 35 82 83c0 38 -33 58 -64 58c-41 0 -79 -39 -79 -81c0 -40 31 -60 61 -60zM549 280l82 312c4 18 7 32 7 44c0 38 -23 50 -74 52l5 20
c23 -2 67 -3 101 -3s71 1 94 3l-5 -20c-69 -3 -88 -23 -106 -96l-78 -301c-24 -93 -55 -161 -98 -212c-48 -56 -122 -93 -205 -93c-65 0 -120 15 -154 54c-25 28 -35 60 -35 102c0 40 9 86 25 146l83 314c5 21 8 36 8 48c0 30 -19 36 -67 38l6 20c27 -2 77 -3 129 -3
c46 0 93 1 125 3l-6 -20c-69 -3 -84 -13 -103 -86l-88 -331c-13 -50 -22 -96 -22 -135c0 -69 29 -115 118 -115c149 0 219 110 258 259z" />
    <glyph glyph-name="uring" unicode="&#x16f;" horiz-adv-x="566" 
d="M350 608c-47 0 -83 30 -83 80c0 58 49 103 109 103c48 0 86 -31 86 -80c0 -56 -53 -103 -112 -103zM372 770c-41 0 -79 -39 -79 -81c0 -40 31 -60 61 -60c42 0 82 35 82 83c0 38 -33 58 -64 58zM499 162h19l-25 -73c-29 -84 -80 -103 -121 -103c-21 0 -42 9 -51 27
c-4 8 -6 18 -6 31c0 20 5 45 14 82l32 125c-80 -195 -150 -265 -234 -265c-60 0 -85 30 -85 77c0 21 6 47 15 74l97 292c5 15 8 28 8 38c0 16 -8 24 -24 24c-25 0 -49 -22 -77 -102l-13 -37h-19l25 73c29 84 80 103 121 103c53 0 70 -26 70 -62c0 -23 -7 -51 -16 -78
l-95 -286c-7 -21 -10 -37 -10 -50c0 -23 11 -34 32 -34c77 0 186 180 256 437l15 59c33 1 66 5 91 14l-124 -443c-4 -15 -7 -29 -7 -39c0 -14 5 -23 21 -23c29 0 52 28 78 102z" />
    <glyph glyph-name="Uhungarumlaut" unicode="&#x170;" horiz-adv-x="682" 
d="M533 772l-6 12c61 48 107 105 154 138c9 7 23 14 37 14c9 0 18 -3 24 -12c3 -5 5 -10 5 -15c0 -17 -17 -34 -33 -46c-47 -33 -115 -52 -181 -91zM346 772l-6 12c61 48 107 105 154 138c9 7 24 14 37 14c10 0 19 -4 25 -14c2 -4 4 -10 4 -14c0 -17 -15 -32 -33 -45
c-47 -33 -115 -52 -181 -91zM549 280l82 312c4 18 7 32 7 44c0 38 -23 50 -74 52l5 20c23 -2 67 -3 101 -3s71 1 94 3l-5 -20c-69 -3 -88 -23 -106 -96l-78 -301c-24 -93 -55 -161 -98 -212c-48 -56 -122 -93 -205 -93c-65 0 -120 15 -154 54c-25 28 -35 60 -35 102
c0 40 9 86 25 146l83 314c5 21 8 36 8 48c0 30 -19 36 -67 38l6 20c27 -2 77 -3 129 -3c46 0 93 1 125 3l-6 -20c-69 -3 -84 -13 -103 -86l-88 -331c-13 -50 -22 -96 -22 -135c0 -69 29 -115 118 -115c149 0 219 110 258 259z" />
    <glyph glyph-name="uhungarumlaut" unicode="&#x171;" horiz-adv-x="566" 
d="M379 751c-31 -39 -79 -68 -158 -152l-11 9c62 97 79 151 109 190c12 16 26 22 38 22c8 0 16 -2 22 -7c8 -7 14 -17 14 -28c0 -10 -5 -22 -14 -34zM557 813c8 -7 13 -16 13 -28c0 -10 -4 -22 -13 -34c-31 -39 -79 -68 -158 -152l-11 9c62 97 79 151 109 190
c12 16 26 22 38 22c8 0 16 -2 22 -7zM518 528l-124 -443c-4 -15 -7 -29 -7 -39c0 -14 5 -23 21 -23c29 0 52 28 78 102l13 37h19l-25 -73c-29 -84 -80 -103 -121 -103c-21 0 -42 9 -51 27c-4 8 -6 18 -6 31c0 20 5 45 14 82l32 125c-80 -195 -150 -265 -234 -265
c-60 0 -85 30 -85 77c0 21 6 47 15 74l97 292c5 15 8 28 8 38c0 16 -8 24 -24 24c-25 0 -49 -22 -77 -102l-13 -37h-19l25 73c29 84 80 103 121 103c53 0 70 -26 70 -62c0 -23 -7 -51 -16 -78l-95 -286c-7 -21 -10 -37 -10 -50c0 -23 11 -34 32 -34c77 0 186 180 256 437
l15 59c33 1 66 5 91 14z" />
    <glyph glyph-name="Uogonek" unicode="&#x172;" horiz-adv-x="682" 
d="M670 705c34 0 71 1 94 3l-5 -20c-69 -3 -88 -23 -106 -96l-78 -301c-24 -93 -55 -161 -98 -212c-34 -40 -82 -70 -136 -84c-46 -18 -93 -51 -93 -98c0 -25 14 -37 39 -37c27 0 60 13 77 26l11 -17c-42 -40 -86 -57 -129 -57c-49 0 -74 23 -74 58c0 53 58 91 113 116h-13
c-65 0 -120 15 -154 54c-25 28 -35 60 -35 102c0 40 9 86 25 146l83 314c5 21 8 36 8 48c0 30 -19 36 -67 38l6 20c27 -2 77 -3 129 -3c46 0 93 1 125 3l-6 -20c-69 -3 -84 -13 -103 -86l-88 -331c-13 -50 -22 -96 -22 -135c0 -69 29 -115 118 -115c149 0 219 110 258 259
l82 312c4 18 7 32 7 44c0 38 -23 50 -74 52l5 20c23 -2 67 -3 101 -3z" />
    <glyph glyph-name="uogonek" unicode="&#x173;" horiz-adv-x="566" 
d="M499 162h19l-25 -73c-26 -74 -68 -98 -106 -102c-38 -19 -74 -49 -74 -89c0 -25 14 -38 38 -38c25 0 53 13 68 31l12 -11c-39 -47 -79 -68 -122 -68c-46 0 -72 24 -72 59c0 53 61 93 117 117c-15 3 -26 12 -33 25c-4 8 -6 18 -6 31c0 20 5 45 14 82l32 125
c-80 -195 -150 -265 -234 -265c-60 0 -85 30 -85 77c0 21 6 47 15 74l97 292c5 15 8 28 8 38c0 16 -8 24 -24 24c-25 0 -49 -22 -77 -102l-13 -37h-19l25 73c29 84 80 103 121 103c53 0 70 -26 70 -62c0 -23 -7 -51 -16 -78l-95 -286c-7 -21 -10 -37 -10 -50
c0 -23 11 -34 32 -34c77 0 186 180 256 437l15 59c33 1 66 5 91 14l-124 -443c-4 -15 -7 -29 -7 -39c0 -14 5 -23 21 -23c29 0 52 28 78 102z" />
    <glyph glyph-name="Wcircumflex" unicode="&#x174;" horiz-adv-x="901" 
d="M587 840c-52 -22 -134 -52 -206 -68l-5 14c97 30 184 79 235 130h18c34 -58 71 -103 139 -130l-4 -14c-91 17 -129 42 -177 68zM918 705c34 0 55 1 76 3l-5 -20c-28 -6 -64 -23 -95 -87l-299 -606h-16l-72 456l-271 -456h-16l-79 629c-7 52 -34 63 -55 64l4 20
c27 -2 61 -3 99 -3c44 0 84 1 108 3l-4 -20c-39 -2 -58 -13 -58 -58c0 -7 1 -16 2 -26l56 -477l209 354l-22 143c-8 51 -27 63 -45 64l4 20c24 -2 55 -3 89 -3c52 0 100 1 128 3l-4 -20c-57 -2 -79 -11 -79 -52c0 -9 1 -20 3 -32l71 -455l196 397c22 45 33 77 33 98
c0 34 -26 43 -77 44l5 20c37 -2 79 -3 114 -3z" />
    <glyph glyph-name="wcircumflex" unicode="&#x175;" horiz-adv-x="685" 
d="M404 720c-46 -36 -111 -78 -175 -104l-5 14c89 38 168 105 215 172h18c14 -82 46 -133 119 -172l-4 -14c-83 23 -127 59 -168 104zM619 410c5 -25 8 -53 8 -83c0 -150 -71 -341 -246 -341c-45 0 -86 15 -106 61c-40 -37 -87 -61 -138 -61c-92 0 -124 55 -124 114
c0 125 155 274 288 374c-35 -20 -71 -47 -98 -47c-25 0 -40 25 -63 25c-21 0 -34 -15 -49 -62l-12 -37h-19l23 73c26 79 58 102 93 102c38 0 53 -39 92 -39c32 0 56 10 80 31l14 19l21 -10c-138 -116 -272 -262 -272 -423c0 -67 21 -90 55 -90c33 0 69 17 104 48
c-5 17 -8 36 -8 59c0 118 91 236 146 236c29 0 35 -40 35 -70c0 -70 -37 -147 -115 -208c13 -38 38 -66 80 -66c136 0 197 185 197 310c0 25 -2 48 -7 66c-38 7 -95 34 -95 89c0 35 23 48 42 48c39 0 62 -51 74 -118zM401 337c-33 0 -85 -87 -85 -174c0 -22 2 -44 7 -64
c59 49 97 123 97 191c0 27 -4 47 -19 47z" />
    <glyph glyph-name="Ycircumflex" unicode="&#x176;" horiz-adv-x="669" 
d="M484 840c-52 -22 -134 -52 -206 -68l-5 14c97 30 184 79 235 130h18c34 -58 72 -103 140 -130l-5 -14c-91 17 -129 42 -177 68zM700 722c42 0 56 -27 56 -54s-17 -69 -59 -69c-29 0 -38 20 -38 40c0 22 14 45 32 62h-3c-21 -1 -39 -10 -55 -22
c-60 -43 -148 -147 -229 -341l-58 -232c-5 -21 -8 -36 -8 -48c0 -30 19 -36 67 -38l-5 -20c-30 2 -78 3 -124 3c-52 0 -102 -1 -131 -3l5 20c68 3 85 13 103 86l59 233c-16 147 -47 328 -117 328c-23 0 -37 -13 -48 -47l-28 -82h-22l33 97c20 58 41 87 98 87
c110 0 143 -142 167 -362c51 128 118 228 187 297c31 31 75 65 118 65z" />
    <glyph glyph-name="ycircumflex" unicode="&#x177;" horiz-adv-x="480" 
d="M334 802h18c14 -82 46 -133 119 -172l-4 -14c-83 23 -127 59 -168 104c-46 -36 -111 -78 -175 -104l-5 14c89 38 168 105 215 172zM406 528c36 0 52 -28 52 -81c0 -135 -102 -325 -197 -444c-32 -40 -101 -120 -197 -166c-40 -19 -69 -25 -87 -25c-27 0 -50 14 -50 41
c0 29 26 45 54 45c31 0 58 -19 83 -39c45 24 96 61 150 120l-74 448c-7 41 -15 55 -32 55c-15 0 -32 -16 -59 -92l-13 -37h-19l25 73c28 81 72 102 115 102c41 0 62 -21 72 -92l51 -376c69 95 128 211 151 325c-31 17 -76 48 -76 92c0 33 22 51 51 51z" />
    <glyph glyph-name="Ydieresis" unicode="&#x178;" horiz-adv-x="669" 
d="M360 772c-30 0 -50 22 -50 51c0 31 31 65 67 65c28 0 50 -22 50 -50c0 -33 -31 -66 -67 -66zM572 772c-30 0 -50 22 -50 51c0 31 31 65 67 65c28 0 50 -22 50 -50c0 -33 -31 -66 -67 -66zM700 722c42 0 56 -27 56 -54s-17 -69 -59 -69c-29 0 -38 20 -38 40
c0 22 14 45 32 62h-3c-21 -1 -39 -10 -55 -22c-60 -43 -148 -147 -229 -341l-58 -232c-5 -21 -8 -36 -8 -48c0 -30 19 -36 67 -38l-5 -20c-30 2 -78 3 -124 3c-52 0 -102 -1 -131 -3l5 20c68 3 85 13 103 86l59 233c-16 147 -47 328 -117 328c-23 0 -37 -13 -48 -47l-28 -82
h-22l33 97c20 58 41 87 98 87c110 0 143 -142 167 -362c51 128 118 228 187 297c31 31 75 65 118 65z" />
    <glyph glyph-name="Zacute" unicode="&#x179;" horiz-adv-x="651" 
d="M612 866c-46 -27 -109 -39 -222 -94l-7 11c105 71 149 114 196 142c10 6 25 12 38 12c12 0 23 -5 28 -17c1 -3 2 -7 2 -10c0 -18 -18 -35 -35 -44zM713 713c4 -3 6 -8 6 -13c0 -17 -21 -41 -75 -62l-277 -272h152l-8 -20h-164l-283 -278c56 33 117 54 173 54
c85 0 128 -56 214 -56c45 0 68 25 68 66c0 40 -26 64 -72 73l4 20c51 -9 106 -39 106 -116c0 -71 -46 -123 -121 -123c-98 0 -134 107 -229 107c-56 0 -94 -18 -148 -45c-24 -34 -53 -58 -74 -58c-5 0 -10 2 -14 5s-6 8 -6 13c0 17 21 41 75 62l281 276h-162l7 20h175
l279 274c-56 -33 -117 -54 -173 -54c-85 0 -128 56 -214 56c-45 0 -68 -25 -68 -66c0 -40 26 -64 72 -73l-4 -20c-51 9 -106 39 -106 116c0 71 46 123 121 123c98 0 134 -107 229 -107c56 0 94 18 148 45c23 34 52 58 73 58c5 0 11 -2 15 -5z" />
    <glyph glyph-name="zacute" unicode="&#x17a;" horiz-adv-x="444" 
d="M256 599l-10 9c82 97 111 151 150 190c14 16 28 22 41 22c8 0 16 -2 22 -7c5 -5 8 -12 8 -20c0 -12 -7 -26 -23 -42c-37 -39 -94 -68 -188 -152zM476 514l-451 -475c57 36 90 52 127 52c48 0 84 -32 135 -32c34 0 55 16 55 50c0 36 -33 63 -79 72l6 15
c61 -14 97 -46 97 -97c0 -53 -31 -105 -116 -105c-70 0 -95 43 -172 43c-35 0 -62 -8 -90 -37h-27l451 475c-57 -36 -90 -52 -127 -52c-48 0 -84 32 -135 32c-34 0 -55 -16 -55 -50c0 -36 33 -63 79 -72l-6 -15c-61 14 -97 46 -97 97c0 53 31 105 116 105
c70 0 95 -43 172 -43c35 0 62 8 90 37h27z" />
    <glyph glyph-name="Zdotaccent" unicode="&#x17b;" horiz-adv-x="651" 
d="M467 772c-30 0 -50 23 -50 53c0 35 32 75 74 75c31 0 51 -23 51 -53c0 -36 -33 -75 -75 -75zM713 713c4 -3 6 -8 6 -13c0 -17 -21 -41 -75 -62l-277 -272h152l-8 -20h-164l-283 -278c56 33 117 54 173 54c85 0 128 -56 214 -56c45 0 68 25 68 66c0 40 -26 64 -72 73l4 20
c51 -9 106 -39 106 -116c0 -71 -46 -123 -121 -123c-98 0 -134 107 -229 107c-56 0 -94 -18 -148 -45c-24 -34 -53 -58 -74 -58c-5 0 -10 2 -14 5s-6 8 -6 13c0 17 21 41 75 62l281 276h-162l7 20h175l279 274c-56 -33 -117 -54 -173 -54c-85 0 -128 56 -214 56
c-45 0 -68 -25 -68 -66c0 -40 26 -64 72 -73l-4 -20c-51 9 -106 39 -106 116c0 71 46 123 121 123c98 0 134 -107 229 -107c56 0 94 18 148 45c23 34 52 58 73 58c5 0 11 -2 15 -5z" />
    <glyph glyph-name="zdotaccent" unicode="&#x17c;" horiz-adv-x="444" 
d="M264 688c0 35 31 77 74 77c31 0 51 -22 51 -51c0 -36 -32 -77 -75 -77c-30 0 -50 22 -50 51zM476 514l-451 -475c57 36 90 52 127 52c48 0 84 -32 135 -32c34 0 55 16 55 50c0 36 -33 63 -79 72l6 15c61 -14 97 -46 97 -97c0 -53 -31 -105 -116 -105
c-70 0 -95 43 -172 43c-35 0 -62 -8 -90 -37h-27l451 475c-57 -36 -90 -52 -127 -52c-48 0 -84 32 -135 32c-34 0 -55 -16 -55 -50c0 -36 33 -63 79 -72l-6 -15c-61 14 -97 46 -97 97c0 53 31 105 116 105c70 0 95 -43 172 -43c35 0 62 8 90 37h27z" />
    <glyph glyph-name="Zcaron" unicode="&#x17d;" horiz-adv-x="651" 
d="M454 780h-18c-34 58 -71 103 -139 130l4 14c91 -17 129 -42 177 -68c52 22 134 52 206 68l5 -14c-97 -30 -184 -79 -235 -130zM713 713c4 -3 6 -8 6 -13c0 -17 -21 -41 -75 -62l-277 -272h152l-8 -20h-164l-283 -278c56 33 117 54 173 54c85 0 128 -56 214 -56
c45 0 68 25 68 66c0 40 -26 64 -72 73l4 20c51 -9 106 -39 106 -116c0 -71 -46 -123 -121 -123c-98 0 -134 107 -229 107c-56 0 -94 -18 -148 -45c-24 -34 -53 -58 -74 -58c-5 0 -10 2 -14 5s-6 8 -6 13c0 17 21 41 75 62l281 276h-162l7 20h175l279 274
c-56 -33 -117 -54 -173 -54c-85 0 -128 56 -214 56c-45 0 -68 -25 -68 -66c0 -40 26 -64 72 -73l-4 -20c-51 9 -106 39 -106 116c0 71 46 123 121 123c98 0 134 -107 229 -107c56 0 94 18 148 45c23 34 52 58 73 58c5 0 11 -2 15 -5z" />
    <glyph glyph-name="zcaron" unicode="&#x17e;" horiz-adv-x="444" 
d="M344 698c46 36 112 78 176 104l4 -14c-89 -38 -167 -105 -214 -172h-18c-14 82 -47 133 -120 172l4 14c83 -23 127 -59 168 -104zM476 514l-451 -475c57 36 90 52 127 52c48 0 84 -32 135 -32c34 0 55 16 55 50c0 36 -33 63 -79 72l6 15c61 -14 97 -46 97 -97
c0 -53 -31 -105 -116 -105c-70 0 -95 43 -172 43c-35 0 -62 -8 -90 -37h-27l451 475c-57 -36 -90 -52 -127 -52c-48 0 -84 32 -135 32c-34 0 -55 -16 -55 -50c0 -36 33 -63 79 -72l-6 -15c-61 14 -97 46 -97 97c0 53 31 105 116 105c70 0 95 -43 172 -43c35 0 62 8 90 37h27
z" />
    <glyph glyph-name="florin" unicode="&#x192;" horiz-adv-x="465" 
d="M459 782c62 0 98 -31 98 -71c0 -6 -2 -12 -3 -18c-8 -28 -33 -51 -65 -51c-26 0 -43 13 -43 35c0 5 1 10 2 15c7 23 26 42 57 51c-1 12 -19 24 -47 24c-31 0 -57 -15 -74 -37c-26 -30 -40 -82 -76 -215v-1h167l-5 -20h-167l-102 -379c-25 -92 -58 -185 -118 -242
c-43 -41 -91 -61 -133 -61c-39 0 -55 18 -55 40c0 4 1 8 2 13c7 27 30 47 59 47c22 0 35 -13 35 -32c0 -4 -1 -9 -2 -13c-2 -10 -10 -26 -26 -40c53 6 83 33 103 108l149 559h-122l5 20h123v1c32 118 56 172 106 217c34 31 83 50 132 50z" />
    <glyph glyph-name="Gacute" unicode="&#x1f4;" horiz-adv-x="705" 
d="M434 772l-7 11c105 71 149 114 196 142c10 6 25 12 38 12c12 0 23 -5 28 -17c1 -3 2 -7 2 -10c0 -18 -18 -35 -35 -44c-46 -27 -109 -39 -222 -94zM316 6c48 0 90 17 114 31c29 17 39 38 46 63l23 88c6 22 9 39 9 52c0 35 -23 42 -84 44l5 20c35 -2 95 -3 140 -3
c44 0 81 1 105 3l-5 -20c-45 -3 -54 -12 -74 -86l-53 -198h-20c1 8 3 17 3 26c0 16 -4 31 -15 31c-8 0 -14 -2 -38 -17c-52 -33 -105 -54 -170 -54c-164 0 -252 83 -252 229c0 226 177 507 438 507c87 0 127 -29 164 -65c6 -6 11 -9 17 -9c13 0 25 18 40 60h22
c-20 -52 -41 -123 -64 -230h-22c3 26 5 51 5 75c0 28 -3 52 -14 73c-28 49 -87 78 -154 78c-222 0 -339 -335 -339 -522c0 -120 56 -176 173 -176z" />
    <glyph glyph-name="gacute" unicode="&#x1f5;" horiz-adv-x="449" 
d="M444 751c-37 -39 -94 -68 -188 -152l-10 9c82 97 111 151 150 190c14 16 28 22 41 22c8 0 16 -2 22 -7c5 -5 8 -12 8 -20c0 -12 -7 -26 -23 -42zM461 620c26 0 43 -10 43 -35c0 -29 -26 -58 -56 -58c-17 0 -28 11 -28 29c0 12 5 26 13 36c-1 1 -4 2 -6 2
c-7 0 -18 -6 -24 -10c-17 -11 -38 -35 -55 -65c47 -15 75 -48 75 -103c0 -90 -78 -189 -198 -202c-59 -33 -119 -59 -119 -85c0 -14 21 -24 60 -34l73 -19c68 -18 113 -37 113 -86c0 -72 -95 -185 -297 -185c-104 0 -151 31 -151 73c0 43 37 93 170 145
c-23 10 -38 28 -38 52c0 40 23 75 154 138c-81 2 -136 36 -136 109s59 206 226 206c19 0 36 -2 51 -5c20 32 42 58 65 75c19 13 41 22 65 22zM201 231c112 0 133 137 133 214c0 36 -13 65 -59 65c-113 0 -134 -182 -134 -214c0 -48 23 -65 60 -65zM224 -16l-134 34
c-90 -48 -102 -94 -102 -123c0 -49 41 -73 95 -73c91 0 201 56 201 130c0 18 -20 21 -60 32z" />
    <glyph glyph-name="Scommaaccent" unicode="&#x218;" horiz-adv-x="554" 
d="M556 715h20c-14 -35 -38 -99 -59 -204h-20c4 19 6 39 6 57c0 73 -41 135 -142 135c-80 0 -140 -40 -140 -127c0 -151 253 -228 253 -394c0 -138 -137 -196 -253 -196c-80 0 -118 27 -142 46c-15 12 -28 15 -36 15c-17 0 -26 -18 -41 -54h-20c18 43 38 101 68 240h20
c-5 -28 -10 -53 -9 -81c4 -91 53 -146 163 -146c87 0 147 38 147 125c0 168 -231 211 -231 396c0 129 111 195 220 195c56 0 92 -13 130 -42c16 -12 26 -18 33 -18c11 0 20 16 33 53zM149 -133c0 34 28 64 65 64c35 0 55 -25 55 -59c0 -58 -42 -93 -98 -113l-7 17
c31 9 71 32 74 64c-10 -9 -27 -16 -44 -16c-26 0 -45 15 -45 43z" />
    <glyph glyph-name="scommaaccent" unicode="&#x219;" horiz-adv-x="380" 
d="M59 15c11 -5 21 -9 46 -9c59 0 101 36 101 103c0 41 -13 79 -52 132c-31 42 -65 84 -65 145c0 85 70 142 155 142c57 0 122 -16 122 -87c0 -19 -12 -52 -46 -52c-22 0 -40 17 -40 42c0 24 11 46 28 67c-13 8 -30 12 -50 12c-50 0 -87 -35 -87 -95c0 -46 21 -67 60 -125
c33 -51 59 -95 59 -147c0 -93 -79 -157 -172 -157c-69 0 -135 27 -135 99c0 19 9 45 39 45c32 0 44 -31 44 -63c0 -21 -4 -37 -7 -52zM96 -69c35 0 55 -25 55 -58c0 -43 -16 -86 -98 -114l-7 17c31 9 71 32 74 64c-10 -9 -27 -16 -44 -16c-26 0 -45 15 -45 42
c0 29 23 65 65 65z" />
    <glyph glyph-name="uni021A" unicode="&#x21a;" horiz-adv-x="659" 
d="M768 817c31 0 45 -22 45 -48c0 -31 -21 -56 -47 -72c-34 -21 -86 -33 -158 -33c-35 0 -69 3 -103 7l-147 -555c-6 -21 -9 -38 -9 -51c0 -35 23 -44 84 -45l-4 -20c-35 2 -92 3 -149 3s-114 -1 -146 -3l4 20c84 3 105 24 127 96l151 567c-44 6 -87 11 -129 11
s-91 -3 -112 -17c10 -14 18 -38 18 -58c0 -27 -15 -58 -50 -58c-29 0 -44 20 -44 50c0 27 12 58 53 78c45 22 111 23 134 23c119 0 213 -28 329 -28c58 0 96 5 129 22c-13 13 -25 32 -25 56c0 27 15 55 49 55zM280 -69c35 0 55 -25 55 -59c0 -58 -42 -93 -98 -113l-7 17
c31 9 71 32 74 64c-10 -9 -27 -16 -44 -16c-26 0 -45 15 -45 43c0 34 28 64 65 64z" />
    <glyph glyph-name="uni021B" unicode="&#x21b;" horiz-adv-x="335" 
d="M237 494l-116 -409c-2 -8 -3 -17 -3 -23c0 -28 19 -39 43 -39c29 0 59 17 89 100l14 39h19l-21 -63c-29 -87 -76 -113 -137 -113c-62 0 -89 32 -89 83c0 17 3 36 9 57l106 368h-90l5 20h91l43 152c32 1 64 5 90 14l-47 -166h132l-3 -20h-135zM77 -69c35 0 55 -25 55 -58
c0 -43 -16 -86 -98 -114l-7 17c31 9 71 32 74 64c-10 -9 -27 -16 -44 -16c-26 0 -45 15 -45 42c0 29 23 65 65 65z" />
    <glyph glyph-name="dotlessj" unicode="&#x237;" horiz-adv-x="275" 
d="M-84 -173c50 6 78 33 99 108l139 494c5 17 7 30 7 39c0 16 -7 23 -22 23c-26 0 -49 -26 -76 -102l-13 -37h-19l24 73c27 81 74 103 123 103c51 0 67 -25 67 -61c0 -23 -7 -51 -15 -79l-77 -273c-42 -150 -105 -260 -195 -293c-20 -7 -45 -10 -59 -10c-31 0 -47 15 -47 39
c0 29 27 61 59 61c21 0 33 -13 33 -31c0 -19 -13 -39 -28 -54z" />
    <glyph glyph-name="circumflex" unicode="&#x2c6;" horiz-adv-x="401" 
d="M227 720c-46 -36 -111 -78 -175 -104l-5 14c89 38 168 105 215 172h18c14 -82 46 -133 119 -172l-4 -14c-83 23 -127 59 -168 104z" />
    <glyph glyph-name="caron" unicode="&#x2c7;" horiz-adv-x="401" 
d="M297 698c46 36 111 78 175 104l5 -14c-89 -38 -168 -105 -215 -172h-18c-14 82 -46 133 -119 172l4 14c83 -23 127 -59 168 -104z" />
    <glyph glyph-name="breve" unicode="&#x2d8;" horiz-adv-x="599" 
d="M288 700c63 0 149 32 207 88l10 -11c-48 -67 -156 -144 -234 -144c-74 0 -113 66 -125 146l16 5c31 -63 63 -84 126 -84z" />
    <glyph glyph-name="dotaccent" unicode="&#x2d9;" horiz-adv-x="198" 
d="M37 688c0 35 31 77 74 77c31 0 51 -22 51 -51c0 -36 -32 -77 -75 -77c-30 0 -50 22 -50 51z" />
    <glyph glyph-name="ring" unicode="&#x2da;" horiz-adv-x="261" 
d="M142 791c48 0 86 -31 86 -80c0 -56 -53 -103 -112 -103c-47 0 -83 30 -83 80c0 58 49 103 109 103zM120 629c42 0 82 35 82 83c0 38 -33 58 -64 58c-41 0 -79 -39 -79 -81c0 -40 31 -60 61 -60z" />
    <glyph glyph-name="ogonek" unicode="&#x2db;" horiz-adv-x="500" 
d="M327 3h38c-47 -12 -118 -49 -118 -105c0 -25 14 -38 38 -38c25 0 53 13 68 31l12 -11c-39 -47 -79 -68 -122 -68c-46 0 -72 24 -72 59c0 66 94 111 156 132z" />
    <glyph glyph-name="tilde" unicode="&#x2dc;" horiz-adv-x="411" 
d="M219 768c81 0 92 -73 153 -73c24 0 47 16 70 58l18 -5c-31 -74 -83 -103 -130 -103c-81 0 -92 73 -153 73c-24 0 -47 -16 -70 -58l-18 5c31 74 83 103 130 103z" />
    <glyph glyph-name="hungarumlaut" unicode="&#x2dd;" horiz-adv-x="405" 
d="M31 599l-11 9c62 97 79 151 109 190c12 16 26 22 38 22c8 0 16 -2 22 -7c8 -7 14 -17 14 -28c0 -10 -5 -22 -14 -34c-31 -39 -79 -68 -158 -152zM209 599l-11 9c62 97 79 151 109 190c12 16 26 22 38 22c8 0 16 -2 22 -7c8 -7 13 -16 13 -28c0 -10 -4 -22 -13 -34
c-31 -39 -79 -68 -158 -152z" />
    <glyph glyph-name="commaaccentcomb" unicode="&#x326;" horiz-adv-x="0" 
d="M41 -69c35 0 55 -25 55 -58c0 -43 -16 -86 -98 -114l-7 17c31 9 71 32 74 64c-10 -9 -27 -16 -44 -16c-26 0 -45 15 -45 42c0 29 23 65 65 65z" />
    <glyph glyph-name="Delta" unicode="&#x394;" horiz-adv-x="564" 
d="M272 722l193 -722c-73 2 -147 3 -220 3c-74 0 -148 -1 -222 -3l233 722h16zM53 30h304l-141 512z" />
    <glyph glyph-name="Omega" unicode="&#x3a9;" horiz-adv-x="795" 
d="M405 722c186 0 288 -94 288 -250c0 -179 -129 -274 -222 -449h48c98 0 133 42 144 167h23c-2 -18 -3 -44 -3 -72c0 -23 2 -71 7 -118c-29 3 -74 3 -102 3c-41 0 -86 -2 -142 -3v16c49 73 147 241 147 436c0 158 -50 252 -188 252s-188 -94 -188 -252
c0 -195 98 -363 147 -436v-16c-56 1 -101 3 -142 3c-28 0 -73 0 -102 -3c5 47 7 95 7 118c0 28 -1 54 -3 72h23c11 -125 46 -167 144 -167h48c-93 175 -222 270 -222 449c0 156 102 250 288 250z" />
    <glyph glyph-name="mu" unicode="&#x3bc;" horiz-adv-x="638" 
d="M565 224l18 -4c-25 -69 -96 -234 -191 -234c-38 0 -51 24 -51 58c0 19 4 41 15 81c-43 -68 -107 -139 -185 -139c-50 0 -64 31 -64 70c0 8 0 16 1 24c-42 -125 -74 -193 -97 -229c-14 -22 -36 -39 -65 -39c-24 0 -35 14 -35 32c0 29 21 44 60 84c88 89 140 173 169 319
c29 147 41 208 47 228c14 42 42 54 65 54c19 0 32 -8 32 -29c0 -4 -1 -8 -2 -13c-8 -45 -69 -105 -109 -203c-21 -57 -28 -96 -28 -124c0 -61 36 -67 62 -67c71 0 127 35 177 125l12 38c27 143 38 200 43 219c14 42 42 54 65 54c19 0 32 -8 32 -29c0 -60 -64 -84 -122 -253
c-7 -26 -15 -53 -22 -79c-4 -14 -6 -26 -6 -35c0 -29 17 -40 42 -40c53 0 94 36 137 131z" />
    <glyph glyph-name="pi" unicode="&#x3c0;" horiz-adv-x="605" 
d="M419 429l-76 -261c-4 -13 -6 -25 -6 -35c0 -26 13 -40 42 -40c53 0 94 36 137 131l18 -4c-25 -69 -96 -234 -191 -234c-35 0 -50 20 -50 56c0 21 5 48 14 78l93 309h-108c-58 -257 -145 -378 -179 -416c-15 -17 -34 -27 -59 -27c-22 0 -35 13 -35 33c0 41 39 58 92 101
c60 48 112 96 162 309h-37c-81 0 -132 -19 -191 -137l-16 4c58 135 132 217 292 217h288l-15 -84h-175z" />
    <glyph glyph-name="uni0401" unicode="&#x401;" horiz-adv-x="609" 
d="M321 772c-30 0 -50 22 -50 51c0 31 31 65 67 65c28 0 50 -22 50 -50c0 -33 -31 -66 -67 -66zM533 772c-30 0 -50 22 -50 51c0 31 31 65 67 65c28 0 50 -22 50 -50c0 -33 -31 -66 -67 -66zM443 705c58 0 140 0 199 3c-17 -47 -32 -95 -38 -118c-7 -24 -12 -47 -14 -62h-23
c5 33 9 59 9 80c0 56 -24 77 -101 77h-73c-68 0 -83 -10 -103 -83l-63 -236h66c87 0 107 84 128 132h23c-25 -76 -32 -109 -41 -142s-17 -66 -32 -142h-23c3 23 8 47 8 68c0 37 -14 64 -69 64h-66l-64 -240c-6 -21 -9 -36 -9 -48c0 -29 20 -35 68 -35h73
c125 0 162 45 211 177h23c-7 -18 -15 -44 -22 -72c-7 -25 -19 -77 -27 -128c-68 3 -162 3 -229 3c-60 0 -192 0 -289 -3l5 20c68 3 83 13 103 86l133 496c6 21 9 37 9 49c0 29 -19 35 -67 37l5 20c98 -3 230 -3 290 -3z" />
    <glyph glyph-name="uni0402" unicode="&#x402;" horiz-adv-x="800" 
d="M605 664c-44 0 -88 5 -132 11l-86 -323c47 35 122 64 198 64c100 0 165 -51 165 -154c0 -137 -115 -276 -273 -276c-59 0 -112 20 -112 70c0 37 28 70 69 70c25 0 41 -13 41 -37c0 -31 -25 -60 -57 -71c6 -9 21 -17 50 -17c124 0 188 147 188 258c0 99 -51 125 -114 125
c-58 0 -124 -22 -161 -53l-91 -342c-33 10 -80 14 -125 14c-22 0 -42 -1 -64 -3l5 20c85 3 103 15 125 96l152 572c-33 3 -66 6 -99 6c-35 0 -86 -3 -107 -17c10 -14 18 -38 18 -58c0 -27 -15 -58 -50 -58c-29 0 -44 20 -44 50c0 27 12 58 53 78c45 22 111 23 134 23
c119 0 214 -28 327 -28c47 0 76 5 101 22c-13 13 -25 32 -25 56c0 27 15 55 49 55c31 0 45 -22 45 -48c0 -31 -21 -56 -47 -72c-29 -21 -66 -33 -133 -33z" />
    <glyph glyph-name="uni0403" unicode="&#x403;" horiz-adv-x="532" 
d="M322 772l-7 11c105 71 149 114 196 142c10 6 25 12 38 12c12 0 23 -5 28 -17c1 -3 2 -7 2 -10c0 -18 -18 -35 -35 -44c-46 -27 -109 -39 -222 -94zM299 602l-133 -496c-5 -19 -8 -33 -8 -44c0 -33 24 -40 86 -42l-5 -20c-35 2 -93 3 -147 3c-52 0 -99 -1 -127 -3l5 20
c68 3 83 13 103 86l133 496c6 21 9 37 9 49c0 29 -19 35 -67 37l5 20c42 -1 87 -3 133 -3h61h96c49 0 119 0 169 3c-18 -51 -34 -103 -41 -128c-9 -32 -15 -61 -19 -82h-23c7 38 11 70 11 95c0 67 -25 92 -75 92h-63c-68 0 -83 -10 -103 -83z" />
    <glyph glyph-name="uni0404" unicode="&#x404;" horiz-adv-x="672" 
d="M691 708h21c-20 -52 -41 -123 -64 -230h-22c4 26 6 48 6 68c0 33 -6 59 -16 80c-25 50 -76 78 -131 78c-135 0 -264 -172 -313 -354c33 52 85 79 131 79c93 0 122 -82 207 -82c29 0 64 17 94 54l13 -9c-52 -65 -107 -103 -164 -103c-96 0 -121 82 -209 82
c-27 0 -54 -14 -79 -53c-9 -40 -14 -80 -14 -118c0 -131 55 -196 143 -196c56 0 128 27 178 78c36 36 58 80 90 158h22c-33 -121 -50 -189 -59 -240h-22c2 14 3 25 3 34c0 18 -4 26 -12 26c-5 0 -12 -3 -21 -9c-55 -36 -101 -65 -189 -65c-147 0 -233 80 -233 235
c0 227 184 501 436 501c86 0 118 -32 149 -65c5 -5 10 -9 15 -9c12 0 24 18 40 60z" />
    <glyph glyph-name="uni0405" unicode="&#x405;" horiz-adv-x="554" 
d="M556 715h20c-14 -35 -38 -99 -59 -204h-20c4 19 6 39 6 57c0 73 -41 135 -142 135c-80 0 -140 -40 -140 -127c0 -151 253 -228 253 -394c0 -138 -137 -196 -253 -196c-80 0 -118 27 -142 46c-15 12 -28 15 -36 15c-17 0 -26 -18 -41 -54h-20c18 43 38 101 68 240h20
c-5 -28 -10 -53 -9 -81c4 -91 53 -146 163 -146c87 0 147 38 147 125c0 168 -231 211 -231 396c0 129 111 195 220 195c56 0 92 -13 130 -42c16 -12 26 -18 33 -18c11 0 20 16 33 53z" />
    <glyph glyph-name="uni0406" unicode="&#x406;" 
d="M298 602l-132 -496c-5 -21 -8 -36 -8 -48c0 -30 19 -36 67 -38l-4 -20c-31 2 -81 3 -127 3c-52 0 -98 -1 -127 -3l5 20c66 3 82 13 101 86l132 496c5 21 8 36 8 48c0 30 -19 36 -67 38l5 20c27 -2 75 -3 127 -3c46 0 96 1 128 3l-5 -20c-69 -3 -84 -13 -103 -86z" />
    <glyph glyph-name="uni0407" unicode="&#x407;" 
d="M140 823c0 31 31 65 67 65c28 0 50 -22 50 -50c0 -33 -31 -66 -67 -66c-30 0 -50 22 -50 51zM352 823c0 31 31 65 67 65c28 0 50 -22 50 -50c0 -33 -31 -66 -67 -66c-30 0 -50 22 -50 51zM298 602l-132 -496c-5 -21 -8 -36 -8 -48c0 -30 19 -36 67 -38l-4 -20
c-31 2 -81 3 -127 3c-52 0 -98 -1 -127 -3l5 20c66 3 82 13 101 86l132 496c5 21 8 36 8 48c0 30 -19 36 -67 38l5 20c27 -2 75 -3 127 -3c46 0 96 1 128 3l-5 -20c-69 -3 -84 -13 -103 -86z" />
    <glyph glyph-name="uni0408" unicode="&#x408;" horiz-adv-x="636" 
d="M737 730c4 -3 6 -8 6 -12c0 -14 -20 -32 -73 -52c-99 -66 -166 -172 -208 -300h99l-3 -20h-102c-4 -13 -8 -26 -11 -39l-62 -242c-35 -136 -110 -253 -236 -253c-60 0 -102 18 -102 57c0 28 22 57 55 57c24 0 42 -19 42 -42s-19 -41 -40 -51c9 -3 21 -5 35 -5
c110 0 134 159 175 317l30 117c8 30 17 58 28 84h-133l3 20h138c61 133 161 215 275 297c-64 -33 -133 -60 -198 -60c-97 0 -148 56 -246 56c-45 0 -67 -25 -65 -66c1 -40 28 -64 74 -73l-3 -20c-52 9 -108 39 -110 116c-3 71 41 123 116 123c110 0 156 -107 263 -107
c68 0 112 18 177 45c22 34 44 58 62 58c5 0 10 -2 14 -5z" />
    <glyph glyph-name="uni0409" unicode="&#x409;" horiz-adv-x="935" 
d="M560 376h35c187 0 285 -36 285 -165c0 -143 -154 -211 -298 -211c-51 0 -103 3 -172 3c-47 0 -94 -1 -122 -3l4 20c68 3 84 13 103 86l132 496c6 21 9 37 9 49c0 30 -20 37 -68 37h-14c-65 0 -79 -14 -98 -86c-60 -225 -171 -498 -273 -581c-29 -24 -58 -35 -89 -35
c-45 0 -59 25 -59 53c0 27 17 70 59 70c28 0 38 -20 38 -40s-14 -45 -32 -62h2c23 1 48 11 67 26c74 60 182 268 267 569c5 21 8 36 8 48c0 30 -19 36 -67 38l5 20c21 -2 53 -3 93 -3c20 0 41 3 89 3c74 0 106 -3 135 -3c52 0 100 1 129 3l-5 -20c-69 -3 -84 -13 -103 -86z
M539 23c175 0 241 74 241 203c0 88 -43 133 -198 133h-27l-67 -253c-5 -20 -9 -36 -9 -48c0 -25 15 -35 60 -35z" />
    <glyph glyph-name="uni040A" unicode="&#x40a;" horiz-adv-x="1002" 
d="M650 366h102c134 0 199 -53 199 -144c0 -151 -193 -222 -347 -222c-29 0 -62 3 -95 3c-52 0 -98 -1 -127 -3l5 20c66 3 82 13 101 86l64 240h-321l-64 -240c-5 -21 -8 -36 -8 -48c0 -30 19 -36 67 -38l-4 -20c-31 2 -81 3 -127 3c-52 0 -98 -1 -127 -3l5 20
c66 3 82 13 101 86l132 496c5 21 8 36 8 48c0 30 -19 36 -67 38l5 20c27 -2 75 -3 127 -3c46 0 96 1 128 3l-5 -20c-69 -3 -84 -13 -103 -86l-63 -236h321l63 236c5 21 8 36 8 48c0 30 -19 36 -67 38l5 20c27 -2 75 -3 127 -3c46 0 96 1 128 3l-5 -20
c-69 -3 -84 -13 -103 -86zM617 21c145 0 233 82 233 217c0 78 -37 108 -127 108h-78l-64 -240c-6 -21 -9 -37 -9 -50c0 -26 13 -35 45 -35z" />
    <glyph glyph-name="uni040B" unicode="&#x40b;" horiz-adv-x="809" 
d="M740 817c31 0 45 -22 45 -48c0 -31 -21 -56 -47 -72c-28 -21 -70 -33 -128 -33c-47 0 -93 5 -137 11l-81 -306c41 22 115 47 182 47c58 0 101 -18 126 -49c17 -21 25 -46 25 -76c0 -22 -5 -47 -12 -74l-32 -124c-3 -13 -5 -24 -5 -33c0 -29 19 -39 61 -39l-5 -21
c-23 1 -78 4 -122 4s-92 -3 -113 -4l5 21c52 0 71 19 86 72l35 127c8 28 13 53 13 75c0 54 -28 89 -111 89c-49 0 -104 -11 -138 -32l-63 -236c-6 -21 -9 -38 -9 -51c0 -35 23 -44 84 -45l-4 -20c-35 2 -92 3 -149 3s-114 -1 -146 -3l4 20c84 3 108 23 127 96l152 572
c-32 3 -63 6 -94 6c-42 0 -91 -3 -112 -17c10 -14 18 -38 18 -58c0 -27 -15 -58 -50 -58c-29 0 -44 20 -44 50c0 27 12 58 53 78c45 22 111 23 134 23c119 0 213 -28 329 -28c45 0 74 5 99 22c-13 13 -25 32 -25 56c0 27 15 55 49 55z" />
    <glyph glyph-name="uni040C" unicode="&#x40c;" horiz-adv-x="674" 
d="M618 866c-46 -27 -109 -39 -222 -94l-7 11c105 71 149 114 196 142c10 6 25 12 38 12c12 0 23 -5 28 -17c1 -3 2 -7 2 -10c0 -18 -18 -35 -35 -44zM648 722c43 0 59 -25 59 -54c0 -23 -15 -69 -58 -69c-28 0 -39 20 -39 40s14 45 32 62h-3c-17 -1 -26 -6 -36 -14
c-72 -65 -65 -297 -234 -317c62 -14 105 -33 105 -148c0 -5 -1 -11 -1 -17l-4 -113v-12c0 -23 5 -39 30 -39c34 0 55 24 74 78l17 51h20l-26 -77c-25 -74 -65 -107 -122 -107c-58 0 -85 35 -85 99c0 5 1 11 1 17l7 113c1 14 1 26 1 38c0 63 -13 85 -36 105
c-26 -7 -45 -9 -58 -9c-23 0 -31 8 -31 20s8 20 30 20c14 0 34 -3 61 -10c173 21 155 252 236 320c23 18 42 23 60 23zM298 602l-132 -496c-5 -21 -8 -36 -8 -48c0 -30 19 -36 67 -38l-4 -20c-31 2 -81 3 -127 3c-52 0 -98 -1 -127 -3l5 20c66 3 82 13 101 86l132 496
c5 21 8 36 8 48c0 30 -19 36 -67 38l5 20c27 -2 75 -3 127 -3c46 0 96 1 128 3l-5 -20c-69 -3 -84 -13 -103 -86z" />
    <glyph glyph-name="uni040D" unicode="&#x40d;" horiz-adv-x="778" 
d="M364 889c-10 9 -19 24 -19 39c0 7 2 14 7 20c6 7 15 10 23 10c16 0 32 -9 43 -21c29 -31 51 -78 114 -158l-10 -10c-81 66 -126 89 -158 120zM718 705c52 0 100 1 128 3l-5 -20c-69 -3 -84 -13 -104 -86l-133 -496c-6 -21 -9 -37 -9 -49c0 -29 19 -35 67 -37l-5 -20
c-28 2 -76 3 -128 3c-46 0 -96 -1 -127 -3l5 20c69 3 84 13 104 86l124 464l-471 -471c-4 -18 -7 -31 -7 -42c0 -29 19 -35 67 -37l-5 -20c-31 2 -81 3 -127 3c-52 0 -99 -1 -127 -3l5 20c68 3 83 13 103 86l133 496c6 21 9 37 9 49c0 29 -19 35 -67 37l5 20
c28 -2 76 -3 128 -3c46 0 96 1 127 3l-5 -20c-69 -3 -84 -13 -104 -86l-125 -465l472 473c4 17 7 30 7 41c0 29 -19 35 -67 37l5 20c31 -2 81 -3 127 -3z" />
    <glyph glyph-name="uni040E" unicode="&#x40e;" horiz-adv-x="634" 
d="M412 757c-57 0 -144 15 -144 77c0 37 30 64 66 64c26 0 43 -14 43 -42c0 -29 -18 -51 -46 -60c14 -10 49 -18 87 -18c99 0 184 37 254 103l15 -12c-77 -76 -175 -112 -275 -112zM686 705c24 0 47 1 65 3l-5 -20c-21 -1 -56 -18 -86 -64l-297 -460
c-62 -100 -105 -178 -208 -178c-60 0 -102 18 -102 57c0 28 23 57 55 57c24 0 42 -19 42 -42s-19 -41 -40 -51c9 -3 25 -5 39 -5c68 0 107 39 151 104l-123 518c-12 49 -53 63 -72 64l5 20c26 -2 70 -3 108 -3c52 0 91 1 120 3l-5 -20c-46 -2 -65 -10 -65 -41
c0 -11 3 -25 7 -43l96 -393l254 393c16 24 25 43 25 56c0 18 -17 27 -61 28l5 20c19 -2 55 -3 92 -3z" />
    <glyph glyph-name="uni040F" unicode="&#x40f;" horiz-adv-x="754" 
d="M692 705c52 0 98 1 127 3l-5 -20c-66 -3 -82 -13 -101 -86l-132 -496c-5 -21 -8 -36 -8 -48c0 -30 19 -36 67 -38l-5 -20c-27 2 -75 3 -127 3c-27 0 -56 -1 -100 -2c-73 -7 -98 -53 -139 -161h-23c8 39 13 70 13 94c0 42 -15 62 -58 67c-48 0 -78 2 -106 2
c-52 0 -100 -1 -129 -3l5 20c69 3 84 13 103 86l132 496c5 21 8 36 8 48c0 30 -19 36 -67 38l4 20c28 -2 76 -3 128 -3c46 0 96 1 127 3l-4 -20c-68 -3 -84 -13 -103 -86l-132 -496c-6 -21 -9 -36 -9 -48c0 -31 20 -38 68 -38h164c65 0 79 15 98 86l132 496c5 21 8 36 8 48
c0 30 -19 36 -67 38l4 20c31 -2 81 -3 127 -3z" />
    <glyph glyph-name="uni0410" unicode="&#x410;" horiz-adv-x="628" 
d="M464 713l40 -629c4 -48 29 -63 49 -64l-4 -20c-27 2 -71 3 -109 3c-48 0 -94 -1 -120 -3l4 20c64 3 89 16 86 84l-9 164h-246l-75 -106c-32 -45 -47 -78 -47 -100c0 -29 27 -41 74 -42l-5 -20c-37 2 -79 3 -114 3c-34 0 -54 -1 -75 -3l5 20c27 6 59 29 100 87l431 606h15
zM400 288l-17 302l-214 -302h231z" />
    <glyph glyph-name="uni0411" unicode="&#x411;" horiz-adv-x="630" 
d="M439 705c61 0 144 0 207 3c-18 -47 -27 -73 -38 -118c-6 -24 -10 -46 -13 -62h-22c5 27 8 50 8 70c0 64 -28 87 -89 87h-93c-66 0 -82 -10 -101 -83l-60 -226h36c187 0 285 -36 285 -165c0 -143 -154 -211 -298 -211c-51 0 -103 3 -172 3c-47 0 -94 -1 -122 -3l4 20
c68 3 84 13 103 86l132 496c5 21 8 36 8 48c0 30 -19 36 -67 38l5 20c37 -1 80 -3 121 -3h64h102zM234 359l-67 -253c-5 -21 -9 -37 -9 -49c0 -24 15 -34 60 -34c175 0 241 74 241 203c0 88 -43 133 -198 133h-27z" />
    <glyph glyph-name="uni0412" unicode="&#x412;" horiz-adv-x="631" 
d="M395 374c122 -20 164 -85 164 -163c0 -143 -154 -211 -298 -211c-51 0 -103 3 -172 3c-47 0 -94 -1 -122 -3l4 20c68 3 84 13 103 86l132 496c5 20 8 35 8 48c0 25 -15 38 -67 38l5 20c27 -2 75 -3 119 -3c46 0 91 2 141 2c127 0 188 -51 188 -128
c0 -103 -103 -173 -205 -205zM238 376h66c121 0 197 93 197 196c0 78 -32 116 -108 116c-59 0 -76 -13 -91 -71zM218 23c175 0 241 74 241 203c0 84 -43 133 -143 133h-82l-67 -253c-5 -21 -9 -37 -9 -49c0 -24 15 -34 60 -34z" />
    <glyph glyph-name="uni0413" unicode="&#x413;" horiz-adv-x="532" 
d="M299 602l-133 -496c-5 -19 -8 -33 -8 -44c0 -33 24 -40 86 -42l-5 -20c-35 2 -93 3 -147 3c-52 0 -99 -1 -127 -3l5 20c68 3 83 13 103 86l133 496c6 21 9 37 9 49c0 29 -19 35 -67 37l5 20c42 -1 87 -3 133 -3h61h96c49 0 119 0 169 3c-18 -51 -34 -103 -41 -128
c-9 -32 -15 -61 -19 -82h-23c7 38 11 70 11 95c0 67 -25 92 -75 92h-63c-68 0 -83 -10 -103 -83z" />
    <glyph glyph-name="uni0414" unicode="&#x414;" horiz-adv-x="650" 
d="M581 705c52 0 100 1 129 3l-5 -20c-69 -3 -84 -13 -103 -86l-132 -496c-5 -21 -8 -37 -8 -49c0 -30 19 -37 67 -37h31c-18 -47 -33 -103 -44 -148c-6 -24 -10 -46 -13 -62h-22c5 29 7 54 7 75c0 88 -37 118 -91 118c-44 0 -93 -3 -208 -3h-116c-67 0 -135 -44 -195 -190
h-22c6 16 15 38 23 62c15 45 32 101 41 148h72c22 0 48 9 69 26c71 59 178 259 257 556c6 21 9 36 9 48c0 30 -20 36 -68 38l5 20c21 -2 53 -3 93 -3c20 0 41 3 89 3c74 0 106 -3 135 -3zM377 106l132 496c6 21 9 37 9 49c0 30 -20 37 -68 37h-14c-65 0 -79 -14 -98 -86
c-58 -221 -165 -486 -263 -568c-6 -5 -13 -10 -20 -14h224c65 0 79 15 98 86z" />
    <glyph glyph-name="uni0415" unicode="&#x415;" horiz-adv-x="609" 
d="M443 705c58 0 140 0 199 3c-17 -47 -32 -95 -38 -118c-7 -24 -12 -47 -14 -62h-23c5 33 9 59 9 80c0 56 -24 77 -101 77h-73c-68 0 -83 -10 -103 -83l-63 -236h66c87 0 107 84 128 132h23c-25 -76 -32 -109 -41 -142s-17 -66 -32 -142h-23c3 23 8 47 8 68
c0 37 -14 64 -69 64h-66l-64 -240c-6 -21 -9 -36 -9 -48c0 -29 20 -35 68 -35h73c125 0 162 45 211 177h23c-7 -18 -15 -44 -22 -72c-7 -25 -19 -77 -27 -128c-68 3 -162 3 -229 3c-60 0 -192 0 -289 -3l5 20c68 3 83 13 103 86l133 496c6 21 9 37 9 49c0 29 -19 35 -67 37
l5 20c98 -3 230 -3 290 -3z" />
    <glyph glyph-name="uni0416" unicode="&#x416;" horiz-adv-x="946" 
d="M350 358c-38 -23 -69 -53 -112 -143l-53 -113c-35 -75 -60 -116 -123 -116c-47 0 -86 26 -105 92l15 7c16 -33 39 -44 60 -44c29 0 41 21 56 51l58 113c64 127 111 149 191 165c-62 8 -79 48 -79 98c0 60 24 134 24 183c0 24 -8 50 -38 50h-3c5 -9 8 -20 8 -32
c0 -35 -32 -70 -69 -70c-24 0 -31 14 -31 31c0 47 44 92 98 92c35 0 57 -22 57 -62c0 -51 -26 -127 -26 -187c0 -49 18 -88 80 -94c17 6 30 9 40 9c15 0 22 -7 21 -18c-2 -15 -13 -20 -26 -20c-14 0 -32 4 -43 8zM920 722c43 0 59 -25 59 -54c0 -23 -15 -69 -58 -69
c-28 0 -39 20 -39 40s14 45 32 62h-3c-17 -1 -26 -6 -36 -14c-72 -65 -65 -297 -233 -317c61 -13 104 -33 104 -148c0 -5 -1 -11 -1 -17l-4 -113c-1 -30 1 -51 30 -51c34 0 55 24 74 78l17 51h20l-26 -77c-25 -74 -65 -107 -122 -107c-58 0 -85 35 -85 99c0 5 1 11 1 17
l7 113c1 12 2 24 2 36c0 39 -7 78 -38 107c-9 -2 -25 -6 -38 -6c-11 0 -21 4 -21 14c0 16 13 20 26 20s28 -4 37 -7c173 21 154 252 235 320c23 18 42 23 60 23zM600 602l-131 -496c-5 -21 -10 -37 -10 -49c0 -24 16 -35 68 -37l-4 -20c-31 2 -80 3 -129 3s-96 -1 -125 -3
l5 20c66 3 82 13 101 86l131 496c5 20 9 35 9 47c0 25 -16 36 -67 39l5 20c27 -2 76 -3 125 -3s98 1 130 3l-5 -20c-69 -3 -84 -13 -103 -86z" />
    <glyph glyph-name="uni0417" unicode="&#x417;" horiz-adv-x="559" 
d="M167 3c114 0 223 82 223 197c0 78 -50 156 -142 166c-15 -7 -32 -14 -46 -14c-12 0 -21 3 -21 13c0 15 13 19 28 19c12 0 25 -3 33 -5c106 20 211 107 211 212c0 68 -45 95 -104 95c-113 0 -179 -84 -220 -208h-22c33 107 50 178 58 230h21c-1 -6 -2 -15 -2 -24
c0 -2 -1 -5 -1 -7c0 -14 3 -27 14 -27c4 0 11 2 18 7c56 37 101 65 177 65c93 0 158 -42 158 -121c0 -129 -176 -205 -283 -226c97 0 219 -55 219 -174c0 -138 -163 -215 -318 -215c-75 0 -118 18 -141 36c-19 15 -29 33 -29 54c0 37 31 70 69 70c24 0 41 -13 41 -39
c0 -29 -22 -57 -57 -66c8 -20 63 -38 116 -38z" />
    <glyph glyph-name="uni0418" unicode="&#x418;" horiz-adv-x="778" 
d="M718 705c52 0 100 1 128 3l-5 -20c-69 -3 -84 -13 -104 -86l-133 -496c-6 -21 -9 -37 -9 -49c0 -29 19 -35 67 -37l-5 -20c-28 2 -76 3 -128 3c-46 0 -96 -1 -127 -3l5 20c69 3 84 13 104 86l124 464l-471 -471c-4 -18 -7 -31 -7 -42c0 -29 19 -35 67 -37l-5 -20
c-31 2 -81 3 -127 3c-52 0 -99 -1 -127 -3l5 20c68 3 83 13 103 86l133 496c6 21 9 37 9 49c0 29 -19 35 -67 37l5 20c28 -2 76 -3 128 -3c46 0 96 1 127 3l-5 -20c-69 -3 -84 -13 -104 -86l-125 -465l472 473c4 17 7 30 7 41c0 29 -19 35 -67 37l5 20c31 -2 81 -3 127 -3z
" />
    <glyph glyph-name="uni0419" unicode="&#x419;" horiz-adv-x="778" 
d="M477 757c-57 0 -144 15 -144 77c0 37 31 64 67 64c26 0 43 -14 43 -42c0 -29 -19 -51 -47 -60c14 -10 50 -18 88 -18c99 0 184 37 254 103l14 -12c-77 -76 -175 -112 -275 -112zM718 705c52 0 100 1 128 3l-5 -20c-69 -3 -84 -13 -104 -86l-133 -496
c-6 -21 -9 -37 -9 -49c0 -29 19 -35 67 -37l-5 -20c-28 2 -76 3 -128 3c-46 0 -96 -1 -127 -3l5 20c69 3 84 13 104 86l124 464l-471 -471c-4 -18 -7 -31 -7 -42c0 -29 19 -35 67 -37l-5 -20c-31 2 -81 3 -127 3c-52 0 -99 -1 -127 -3l5 20c68 3 83 13 103 86l133 496
c6 21 9 37 9 49c0 29 -19 35 -67 37l5 20c28 -2 76 -3 128 -3c46 0 96 1 127 3l-5 -20c-69 -3 -84 -13 -104 -86l-125 -465l472 473c4 17 7 30 7 41c0 29 -19 35 -67 37l5 20c31 -2 81 -3 127 -3z" />
    <glyph glyph-name="uni041A" unicode="&#x41a;" horiz-adv-x="674" 
d="M648 722c43 0 59 -25 59 -54c0 -23 -15 -69 -58 -69c-28 0 -39 20 -39 40s14 45 32 62h-3c-17 -1 -26 -6 -36 -14c-72 -65 -65 -297 -234 -317c62 -14 105 -33 105 -148c0 -5 -1 -11 -1 -17l-4 -113v-12c0 -23 5 -39 30 -39c34 0 55 24 74 78l17 51h20l-26 -77
c-25 -74 -65 -107 -122 -107c-58 0 -85 35 -85 99c0 5 1 11 1 17l7 113c1 14 1 26 1 38c0 63 -13 85 -36 105c-26 -7 -45 -9 -58 -9c-23 0 -31 8 -31 20s8 20 30 20c14 0 34 -3 61 -10c173 21 155 252 236 320c23 18 42 23 60 23zM298 602l-132 -496c-5 -21 -8 -36 -8 -48
c0 -30 19 -36 67 -38l-4 -20c-31 2 -81 3 -127 3c-52 0 -98 -1 -127 -3l5 20c66 3 82 13 101 86l132 496c5 21 8 36 8 48c0 30 -19 36 -67 38l5 20c27 -2 75 -3 127 -3c46 0 96 1 128 3l-5 -20c-69 -3 -84 -13 -103 -86z" />
    <glyph glyph-name="uni041B" unicode="&#x41b;" horiz-adv-x="663" 
d="M0 7h3c23 1 47 12 66 26c74 60 182 268 267 569c5 21 8 36 8 48c0 30 -19 36 -67 38l5 20c21 -2 53 -3 93 -3c20 0 41 3 89 3c74 0 106 -3 135 -3c52 0 100 1 129 3l-5 -20c-69 -3 -84 -13 -103 -86l-132 -496c-5 -21 -9 -36 -9 -48c0 -30 20 -36 68 -38l-4 -20
c-28 2 -76 3 -128 3c-46 0 -96 -1 -127 -3l4 20c68 3 84 13 103 86l132 496c6 21 9 37 9 49c0 30 -20 37 -68 37h-14c-65 0 -79 -14 -98 -86c-60 -225 -171 -498 -273 -581c-29 -24 -58 -35 -89 -35c-45 0 -59 25 -59 53c0 27 17 70 59 70c28 0 38 -20 38 -40
s-14 -45 -32 -62z" />
    <glyph glyph-name="uni041C" unicode="&#x41c;" horiz-adv-x="868" 
d="M760 705h48c46 0 93 1 125 3l-5 -20c-69 -3 -84 -13 -103 -86l-132 -496c-5 -21 -8 -36 -8 -48c0 -30 19 -36 67 -38l-4 -20c-31 2 -78 3 -124 3c-52 0 -102 -1 -130 -3l4 20c69 3 84 13 103 86l145 539l-415 -650h-22l-68 658l-142 -537c-5 -21 -9 -37 -9 -50
c0 -33 21 -44 76 -46l-5 -20c-23 2 -67 3 -101 3s-71 -1 -94 -3l5 20c69 3 86 23 105 96l130 486c5 21 8 36 8 48c0 30 -19 36 -67 38l5 20c21 -2 54 -3 89 -3c30 0 65 1 88 3l55 -593z" />
    <glyph glyph-name="uni041D" unicode="&#x41d;" horiz-adv-x="754" 
d="M691 705c52 0 100 1 129 3l-5 -20c-69 -3 -84 -13 -103 -86l-132 -496c-5 -21 -9 -37 -9 -49c0 -29 19 -35 68 -37l-4 -20c-28 2 -76 3 -128 3c-46 0 -96 -1 -127 -3l4 20c68 3 84 13 103 86l64 240h-321l-64 -240c-5 -21 -8 -36 -8 -48c0 -30 19 -36 67 -38l-4 -20
c-31 2 -81 3 -127 3c-52 0 -98 -1 -127 -3l5 20c66 3 82 13 101 86l132 496c5 21 8 36 8 48c0 30 -19 36 -67 38l5 20c27 -2 75 -3 127 -3c46 0 96 1 128 3l-5 -20c-69 -3 -84 -13 -103 -86l-63 -236h321l63 236c6 21 9 36 9 48c0 30 -20 36 -68 38l5 20c30 -2 80 -3 126 -3
z" />
    <glyph glyph-name="uni041E" unicode="&#x41e;" horiz-adv-x="729" 
d="M54 226c0 221 165 496 417 496c148 0 236 -87 236 -241c0 -220 -167 -495 -418 -495c-148 0 -235 87 -235 240zM462 704c-155 0 -302 -250 -302 -491c0 -131 57 -209 138 -209c155 0 302 250 302 491c0 131 -57 209 -138 209z" />
    <glyph glyph-name="uni041F" unicode="&#x41f;" horiz-adv-x="755" 
d="M487 708c115 0 162 -3 205 -3c52 0 100 1 129 3l-5 -20c-69 -3 -84 -13 -103 -86l-132 -496c-5 -21 -9 -37 -9 -49c0 -29 19 -35 68 -37l-4 -20c-28 2 -76 3 -128 3c-46 0 -96 -1 -127 -3l4 20c68 3 84 13 103 86l132 496c6 21 9 36 9 48c0 31 -20 38 -68 38h-164
c-65 0 -79 -15 -98 -86l-132 -496c-5 -21 -8 -36 -8 -48c0 -30 19 -36 67 -38l-4 -20c-31 2 -81 3 -127 3c-52 0 -98 -1 -127 -3l5 20c66 3 82 13 101 86l132 496c5 21 8 36 8 48c0 30 -19 36 -67 38l5 20c27 -2 75 -3 127 -3c44 0 93 3 208 3z" />
    <glyph glyph-name="uni0420" unicode="&#x420;" horiz-adv-x="588" 
d="M421 707c134 0 199 -60 199 -151c0 -157 -153 -272 -377 -272h-30l-47 -178c-5 -21 -10 -37 -10 -50c0 -24 16 -35 69 -36l-4 -20c-31 2 -78 3 -124 3c-52 0 -102 -1 -130 -3l4 20c68 3 84 13 103 86l132 496c5 20 9 35 9 48c0 27 -17 38 -68 38l5 20c27 -2 79 -3 123 -3
c48 0 96 2 146 2zM219 304h34c198 0 266 119 266 268c0 78 -37 116 -127 116c-59 0 -76 -18 -94 -86z" />
    <glyph glyph-name="uni0421" unicode="&#x421;" horiz-adv-x="669" 
d="M691 708h21c-20 -52 -41 -123 -64 -230h-22c4 26 6 48 6 68c0 33 -6 59 -16 80c-25 50 -76 78 -131 78c-173 0 -334 -281 -334 -504c0 -131 55 -196 143 -196c56 0 128 27 178 78c36 36 58 80 90 158h22c-33 -121 -50 -189 -59 -240h-22c2 14 3 25 3 34
c0 18 -4 26 -12 26c-5 0 -12 -3 -21 -9c-55 -36 -101 -65 -189 -65c-147 0 -233 80 -233 235c0 227 184 501 436 501c86 0 118 -32 149 -65c5 -5 10 -9 15 -9c12 0 24 18 40 60z" />
    <glyph glyph-name="uni0422" unicode="&#x422;" horiz-adv-x="659" 
d="M768 817c31 0 45 -22 45 -48c0 -31 -21 -56 -47 -72c-34 -21 -86 -33 -158 -33c-35 0 -69 3 -103 7l-147 -555c-6 -21 -9 -38 -9 -51c0 -35 23 -44 84 -45l-4 -20c-35 2 -92 3 -149 3s-114 -1 -146 -3l4 20c84 3 105 24 127 96l151 567c-44 6 -87 11 -129 11
s-91 -3 -112 -17c10 -14 18 -38 18 -58c0 -27 -15 -58 -50 -58c-29 0 -44 20 -44 50c0 27 12 58 53 78c45 22 111 23 134 23c119 0 213 -28 329 -28c58 0 96 5 129 22c-13 13 -25 32 -25 56c0 27 15 55 49 55z" />
    <glyph glyph-name="uni0423" unicode="&#x423;" horiz-adv-x="634" 
d="M686 705c24 0 47 1 65 3l-5 -20c-21 -1 -56 -18 -86 -64l-297 -460c-62 -100 -105 -178 -208 -178c-60 0 -102 18 -102 57c0 28 23 57 55 57c24 0 42 -19 42 -42s-19 -41 -40 -51c9 -3 25 -5 39 -5c68 0 107 39 151 104l-123 518c-12 49 -53 63 -72 64l5 20
c26 -2 70 -3 108 -3c52 0 91 1 120 3l-5 -20c-46 -2 -65 -10 -65 -41c0 -11 3 -25 7 -43l96 -393l254 393c16 24 25 43 25 56c0 18 -17 27 -61 28l5 20c19 -2 55 -3 92 -3z" />
    <glyph glyph-name="uni0424" unicode="&#x424;" horiz-adv-x="937" 
d="M919 361c0 -144 -165 -292 -465 -304c-37 -132 -106 -245 -238 -245c-50 0 -98 17 -98 57c0 28 24 57 55 57c24 0 42 -19 42 -42s-19 -41 -40 -51c9 -3 21 -5 34 -5c92 0 125 109 154 230c-209 11 -328 86 -328 209c0 150 179 305 502 305h13c45 49 105 88 188 134
c-72 -36 -151 -60 -216 -60c-122 0 -162 86 -229 86c-27 0 -43 -14 -43 -37c0 -16 8 -30 23 -42l-14 -16c-23 15 -38 36 -38 66c0 50 42 79 102 79c109 0 175 -97 279 -97c45 0 98 18 144 35c22 34 44 58 62 58c5 0 10 -2 14 -5s6 -8 6 -12c0 -14 -20 -32 -73 -52
c-62 -42 -106 -86 -140 -140c194 -15 304 -90 304 -208zM142 258c0 -117 87 -172 226 -182c5 23 11 46 17 69l52 194c26 97 55 162 98 215h-2c-261 0 -391 -119 -391 -296zM541 384l-82 -309c236 11 353 127 353 295c0 112 -80 167 -208 181c-26 -47 -46 -102 -63 -167z" />
    </font>
</defs>
</svg>
