<?xml version="1.0" standalone="no"?>
<!DOCTYPE svg PUBLIC "-//W3C//DTD SVG 1.1//EN" "http://www.w3.org/Graphics/SVG/1.1/DTD/svg11.dtd" >
<svg version="1.1" xmlns="http://www.w3.org/2000/svg">
<metadata>
Created by FontForge 20120731 at Fri Aug  1 16:50:34 2014
 By Alfred Xing
Copyright (c) 2010-2012 by Claus Eggers Srensen (es@forthehearts.net), with Reserved Font Name 'Playfair'.
</metadata>
<defs>
<font id="playfairdisplay" horiz-adv-x="502" >
  <font-face 
    font-family="Playfair Display Black"
    font-weight="900"
    font-stretch="normal"
    units-per-em="1000"
    panose-1="0 0 10 0 0 0 0 0 0 0"
    ascent="800"
    descent="-200"
    x-height="519"
    cap-height="708"
    bbox="-272 -245 1302 1020"
    underline-thickness="20"
    underline-position="-80"
    stemh="20"
    stemv="23"
    unicode-range="U+000D-FB02"
  />
<missing-glyph horiz-adv-x="562" 
d="M502 0h-442v772h442v-772zM96 742v-712h370v712h-370z" />
    <glyph glyph-name="fi" unicode="fi" horiz-adv-x="671" 
d="M384 782c101 0 139 -17 177 -40c23 -14 45 -44 45 -76c0 -55 -36 -85 -114 -85c-75 0 -114 30 -114 83c0 43 32 74 88 87c-10 5 -34 11 -59 11c-58 0 -95 -28 -119 -72c-19 -34 -27 -75 -27 -172h91c119 0 178 2 246 12v-437c0 -56 18 -72 66 -72v-21c-29 1 -93 4 -151 4
s-122 -3 -151 -4v21c41 0 56 16 56 72v317c0 60 -16 88 -66 88h-91v-405c0 -57 28 -72 76 -72v-21c-33 1 -99 4 -161 4c-66 0 -130 -3 -161 -4v21c48 0 66 16 66 72v405h-70v20h70c0 82 31 145 84 195s141 69 219 69z" />
    <glyph glyph-name="fl" unicode="fl" horiz-adv-x="675" 
d="M598 784v-691c0 -56 18 -72 66 -72v-21c-29 1 -93 4 -151 4s-122 -3 -151 -4v21c41 0 56 16 56 72v601c0 29 -5 43 -14 53c-6 7 -18 15 -37 15c-38 0 -58 -11 -78 -36c-25 -31 -28 -75 -28 -179v-29h91v-20h-91v-405c0 -57 28 -72 76 -72v-21c-33 1 -99 4 -161 4
c-66 0 -130 -3 -161 -4v21c48 0 66 16 66 72v405h-70v20h70c0 101 30 163 78 204c52 44 122 60 185 60c44 0 90 -5 144 -5c31 0 75 4 110 7z" />
    <glyph glyph-name="uni00660062.liga" unicode="fb" horiz-adv-x="956" 
d="M750 533c99 0 174 -81 174 -251c0 -227 -108 -296 -233 -296c-38 0 -69 1 -98 14c-23 9 -49 13 -72 13c-42 0 -78 -12 -96 -29l-14 10c6 18 7 36 7 55v645c0 29 -5 43 -14 53c-6 7 -18 15 -37 15c-38 0 -58 -11 -78 -36c-25 -31 -28 -74 -28 -177v-31h91v-20h-91v-405
c0 -57 28 -72 76 -72v-21c-33 1 -99 4 -161 4c-66 0 -130 -3 -161 -4v21c48 0 66 16 66 72v405h-70v20h70c0 101 30 163 78 204c52 44 122 60 185 60c44 0 90 -5 144 -5c31 0 75 4 110 7v-326c31 51 84 75 152 75zM645 6c62 0 92 84 92 253c0 177 -30 222 -67 222
s-72 -30 -72 -72v-391c15 -8 32 -12 47 -12z" />
    <glyph glyph-name="f_f" unicode="ff" horiz-adv-x="696" 
d="M748 745c19 -15 37 -44 37 -83c0 -41 -34 -81 -83 -81c-55 0 -90 31 -90 83c0 38 22 74 69 89c-4 5 -13 9 -27 9c-23 0 -37 -7 -47 -19c-12 -15 -19 -38 -19 -91v-134h107v-20h-107v-395c0 -65 32 -82 86 -82v-21c-37 1 -110 4 -184 4c-54 0 -111 -3 -138 -4v21
c41 0 56 16 56 72v405h-137v-405c0 -56 15 -72 56 -72v-21c-29 1 -92 4 -150 4c-62 0 -131 -3 -162 -4v21c48 0 66 16 66 72v405h-70v20h70c0 69 27 134 77 174c39 31 98 50 170 50c48 0 91 -13 122 -40c8 11 18 20 29 30c31 27 88 50 149 50c53 0 90 -14 120 -37zM271 518
h137c0 79 9 128 30 165c-21 21 -52 34 -86 34c-56 0 -81 -35 -81 -113v-86z" />
    <glyph glyph-name="uni006600660062.liga" unicode="ffb" horiz-adv-x="1303" 
d="M1097 533c99 0 174 -81 174 -251c0 -227 -108 -296 -233 -296c-38 0 -68 2 -97 14c-24 9 -50 13 -73 13c-42 0 -78 -12 -96 -29l-14 10c6 18 7 36 7 55v645c0 29 -5 43 -14 53c-6 7 -18 15 -37 15c-38 0 -58 -11 -78 -36c-25 -32 -28 -77 -28 -185v-23h91v-20h-91v-405
c0 -57 28 -72 76 -72v-21c-33 1 -99 4 -161 4c-66 0 -130 -3 -161 -4v21c48 0 66 16 66 72v405h-157v-405c0 -56 15 -72 56 -72v-21c-29 1 -92 4 -150 4c-62 0 -131 -3 -162 -4v21c48 0 66 16 66 72v405h-70v20h70c0 69 28 132 77 174c45 42 114 60 190 60
c65 0 109 -17 145 -42c4 4 9 8 13 12c52 44 122 60 185 60c44 0 90 -5 144 -5c31 0 75 4 110 7v-326c31 51 84 75 152 75zM271 518h157c0 81 19 137 51 177c-27 18 -63 33 -113 33c-64 0 -95 -38 -95 -134v-76zM992 6c62 0 92 84 92 253c0 177 -30 222 -67 222
s-72 -30 -72 -72v-391c15 -8 32 -12 47 -12z" />
    <glyph glyph-name="uni006600660068.liga" unicode="ffh" horiz-adv-x="1312" 
d="M1246 364v-271c0 -56 15 -72 56 -72v-21c-27 1 -88 4 -140 4c-56 0 -115 -3 -142 -4v21c34 0 46 16 46 72v325c0 42 -14 63 -49 63c-37 0 -72 -30 -72 -72v-316c0 -56 12 -72 46 -72v-21c-25 1 -80 4 -132 4c-56 0 -121 -3 -150 -4v21c41 0 56 16 56 72v601
c0 29 -5 43 -14 53c-6 7 -18 15 -37 15c-38 0 -58 -11 -78 -36c-24 -30 -28 -72 -28 -169v-39h91v-20h-91v-405c0 -57 28 -72 76 -72v-21c-33 1 -99 4 -161 4c-66 0 -130 -3 -161 -4v21c48 0 66 16 66 72v405h-157v-405c0 -56 15 -72 56 -72v-21c-29 1 -92 4 -150 4
c-62 0 -131 -3 -162 -4v21c48 0 66 16 66 72v405h-70v20h70c0 69 28 132 77 174c45 42 114 60 190 60c65 0 109 -17 145 -42c4 4 9 8 13 12c52 44 122 60 185 60c44 0 90 -5 144 -5c31 0 75 4 110 7v-326c32 53 87 75 159 75c61 0 94 -17 113 -40c20 -24 29 -61 29 -129z
M271 518h157c0 81 19 137 51 177c-27 18 -63 33 -113 33c-64 0 -95 -38 -95 -134v-76z" />
    <glyph glyph-name="f_f_i" unicode="ffi" horiz-adv-x="1019" 
d="M945 530v-437c0 -56 18 -72 66 -72v-21c-29 1 -93 4 -151 4s-122 -3 -151 -4v21c41 0 56 16 56 72v317c0 60 -16 88 -66 88h-91v-405c0 -57 28 -72 76 -72v-21c-33 1 -99 4 -161 4c-66 0 -130 -3 -161 -4v21c48 0 66 16 66 72v405h-157v-405c0 -56 15 -72 56 -72v-21
c-29 1 -92 4 -150 4c-62 0 -131 -3 -162 -4v21c48 0 66 16 66 72v405h-70v20h70c0 69 28 132 77 174c45 42 114 60 190 60c71 0 116 -20 154 -48l10 9c55 48 141 69 233 69c83 0 127 -18 165 -41c23 -14 43 -42 43 -75c0 -55 -36 -85 -114 -85c-75 0 -114 30 -114 83
c0 43 32 74 88 87c-10 5 -34 11 -59 11c-43 0 -75 -19 -93 -35c-48 -45 -53 -96 -53 -209h91c119 0 178 2 246 12zM271 518h157c0 69 21 126 60 170c-27 21 -67 40 -122 40c-64 0 -95 -38 -95 -134v-76z" />
    <glyph glyph-name="uni00660066006A.liga" unicode="ffj" horiz-adv-x="1004" 
d="M608 518h91c119 0 178 2 246 12v-450c0 -118 -21 -171 -71 -218c-30 -28 -77 -50 -192 -50c-45 0 -84 7 -106 14c-37 12 -61 34 -61 64c0 35 35 73 104 73c58 0 104 -22 104 -65c0 -34 -28 -54 -67 -63c12 -2 23 -2 30 -2c34 0 55 20 67 49c11 26 12 93 12 152v46v330
c0 60 -16 88 -66 88h-91v-405c0 -57 28 -72 76 -72v-21c-33 1 -99 4 -161 4c-66 0 -130 -3 -161 -4v21c48 0 66 16 66 72v405h-157v-405c0 -56 15 -72 56 -72v-21c-29 1 -92 4 -150 4c-62 0 -131 -3 -162 -4v21c48 0 66 16 66 72v405h-70v20h70c0 69 29 131 77 174
c46 41 114 60 190 60c71 0 116 -20 154 -48l10 9c53 50 141 69 219 69c101 0 139 -17 177 -40c23 -14 45 -44 45 -76c0 -55 -36 -85 -114 -85c-75 0 -114 30 -114 83c0 43 32 74 88 87c-10 5 -34 11 -59 11c-58 0 -95 -28 -119 -72c-19 -34 -27 -75 -27 -172zM271 518h157
c0 69 22 125 60 170c-27 21 -66 40 -122 40c-64 0 -95 -38 -95 -134v-76z" />
    <glyph glyph-name="uni00660066006B.liga" unicode="ffk" horiz-adv-x="1298" 
d="M1103 375l159 -302c11 -20 21 -42 40 -52v-21c-23 1 -75 4 -121 4c-54 0 -114 -3 -141 -4v21c20 0 29 7 29 19c0 4 -1 9 -4 15l-88 186c-8 16 -18 21 -32 22v-170c0 -56 18 -72 66 -72v-21c-29 1 -93 4 -151 4s-122 -3 -151 -4v21c41 0 56 16 56 72v601
c0 29 -5 43 -14 53c-6 7 -18 15 -37 15c-38 0 -58 -11 -78 -36c-25 -31 -28 -75 -28 -177v-31h91v-20h-91v-405c0 -57 28 -72 76 -72v-21c-33 1 -99 4 -161 4c-66 0 -130 -3 -161 -4v21c48 0 66 16 66 72v405h-157v-405c0 -56 15 -72 56 -72v-21c-29 1 -92 4 -150 4
c-62 0 -131 -3 -162 -4v21c48 0 66 16 66 72v405h-70v20h70c0 69 28 132 77 174c45 42 114 60 190 60c65 0 109 -17 145 -42c4 4 9 8 13 12c52 44 122 60 185 60c44 0 90 -5 144 -5c31 0 75 4 110 7v-502c16 0 31 3 43 15l77 72c24 23 35 45 35 65c0 35 -34 61 -80 65v20
c38 -2 88 -3 120 -3c41 0 111 1 137 3v-20c-48 -13 -98 -48 -148 -98zM271 518h157c0 81 19 137 51 177c-27 18 -63 33 -113 33c-64 0 -95 -38 -95 -134v-76z" />
    <glyph glyph-name="f_f_l" unicode="ffl" horiz-adv-x="1022" 
d="M945 784v-691c0 -56 18 -72 66 -72v-21c-29 1 -93 4 -151 4s-122 -3 -151 -4v21c41 0 56 16 56 72v601c0 29 -5 43 -14 53c-6 7 -18 15 -37 15c-38 0 -58 -11 -78 -36c-24 -31 -28 -74 -28 -174v-34h91v-20h-91v-405c0 -57 28 -72 76 -72v-21c-33 1 -99 4 -161 4
c-66 0 -130 -3 -161 -4v21c48 0 66 16 66 72v405h-157v-405c0 -56 15 -72 56 -72v-21c-29 1 -92 4 -150 4c-62 0 -131 -3 -162 -4v21c48 0 66 16 66 72v405h-70v20h70c0 69 28 132 77 174c45 42 114 60 190 60c65 0 109 -17 145 -42c4 4 9 8 13 12c52 44 122 60 185 60
c44 0 90 -5 144 -5c31 0 75 4 110 7zM271 518h157c0 81 19 137 51 177c-27 18 -63 33 -113 33c-64 0 -95 -38 -95 -134v-76z" />
    <glyph glyph-name="uni00660068.liga" unicode="fh" horiz-adv-x="965" 
d="M598 784v-326c32 53 87 75 159 75c61 0 94 -17 113 -40c20 -24 29 -61 29 -129v-271c0 -56 15 -72 56 -72v-21c-27 1 -88 4 -140 4c-56 0 -115 -3 -142 -4v21c34 0 46 16 46 72v325c0 42 -14 63 -49 63c-37 0 -72 -30 -72 -72v-316c0 -56 12 -72 46 -72v-21
c-25 1 -80 4 -132 4c-56 0 -121 -3 -150 -4v21c41 0 56 16 56 72v601c0 29 -5 43 -14 53c-6 7 -18 15 -37 15c-38 0 -58 -11 -78 -36c-25 -32 -28 -76 -28 -185v-23h91v-20h-91v-405c0 -57 28 -72 76 -72v-21c-33 1 -99 4 -161 4c-66 0 -130 -3 -161 -4v21c48 0 66 16 66 72
v405h-70v20h70c0 101 30 163 78 204c52 44 122 60 185 60c44 0 90 -5 144 -5c31 0 75 4 110 7z" />
    <glyph glyph-name="uni006600EF.liga" unicode="f&#xef;" horiz-adv-x="671" 
d="M598 530v-437c0 -56 18 -72 66 -72v-21c-29 1 -93 4 -151 4s-122 -3 -151 -4v21c41 0 56 16 56 72v317c0 60 -16 88 -66 88h-91v-405c0 -57 28 -72 76 -72v-21c-33 1 -99 4 -161 4c-66 0 -130 -3 -161 -4v21c48 0 66 16 66 72v405h-70v20h70c0 82 16 152 63 197
c49 47 112 67 181 67c134 0 156 -56 156 -97c0 -48 -41 -87 -87 -87c-48 0 -87 39 -87 87c0 33 20 64 50 79h-16c-69 0 -80 -34 -80 -142v-104h91c119 0 178 2 246 12zM632 772c46 0 87 -41 87 -87c0 -48 -41 -87 -87 -87c-48 0 -87 39 -87 87c0 46 39 87 87 87z" />
    <glyph glyph-name="uni006600EC.liga" unicode="f&#xec;" horiz-adv-x="671" 
d="M598 530v-437c0 -56 18 -72 66 -72v-21c-29 1 -93 4 -151 4s-122 -3 -151 -4v21c41 0 56 16 56 72v317c0 60 -16 88 -66 88h-91v-405c0 -57 28 -72 76 -72v-21c-33 1 -99 4 -161 4c-66 0 -130 -3 -161 -4v21c48 0 66 16 66 72v405h-70v20h70c0 74 18 135 63 177
c44 42 100 51 154 51c28 0 52 -5 73 -12c-8 12 -13 26 -13 40c0 17 7 34 21 46c13 12 28 16 43 16c21 0 43 -10 55 -24c36 -40 28 -91 85 -204l-11 -9c-59 49 -100 72 -131 92c-29 18 -51 28 -82 28c-25 0 -45 -10 -58 -31c-12 -19 -19 -48 -19 -86v-84h91
c119 0 178 2 246 12z" />
    <glyph glyph-name="uni0066006A.liga" unicode="fj" horiz-adv-x="658" 
d="M384 782c101 0 139 -17 177 -40c23 -14 45 -44 45 -76c0 -55 -36 -85 -114 -85c-75 0 -114 30 -114 83c0 43 32 74 88 87c-10 5 -34 11 -59 11c-58 0 -95 -28 -119 -72c-19 -34 -27 -75 -27 -172h91c119 0 178 2 246 12v-450c0 -118 -21 -171 -71 -218
c-30 -28 -77 -50 -192 -50c-45 0 -84 7 -106 14c-37 12 -61 34 -61 64c0 35 35 73 104 73c58 0 104 -22 104 -65c0 -34 -28 -54 -67 -63c12 -2 23 -2 30 -2c34 0 55 20 67 49c11 26 12 93 12 152v46v330c0 60 -16 88 -66 88h-91v-405c0 -57 28 -72 76 -72v-21
c-33 1 -99 4 -161 4c-66 0 -130 -3 -161 -4v21c48 0 66 16 66 72v405h-70v20h70c0 82 31 145 84 195s141 69 219 69z" />
    <glyph glyph-name="uni0066006B.liga" unicode="fk" horiz-adv-x="952" 
d="M756 375l159 -302c11 -20 21 -42 40 -52v-21c-23 1 -75 4 -121 4c-54 0 -114 -3 -141 -4v21c20 0 29 7 29 19c0 4 -1 9 -4 15l-88 186c-8 16 -18 21 -32 22v-170c0 -56 18 -72 66 -72v-21c-29 1 -93 4 -151 4s-122 -3 -151 -4v21c41 0 56 16 56 72v601c0 29 -5 43 -14 53
c-6 7 -18 15 -37 15c-38 0 -58 -11 -78 -36c-25 -31 -28 -75 -28 -181v-27h91v-20h-91v-405c0 -57 28 -72 76 -72v-21c-33 1 -99 4 -161 4c-66 0 -130 -3 -161 -4v21c48 0 66 16 66 72v405h-70v20h70c0 101 30 163 78 204c52 44 122 60 185 60c44 0 90 -5 144 -5
c31 0 75 4 110 7v-502c16 0 31 4 43 15l77 72c25 23 35 45 35 65c0 35 -34 61 -80 65v20c38 -2 88 -3 120 -3c41 0 111 1 137 3v-20c-48 -13 -98 -48 -148 -98z" />
    <glyph glyph-name=".notdef" horiz-adv-x="562" 
d="M502 0h-442v772h442v-772zM96 742v-712h370v712h-370z" />
    <glyph glyph-name="CR" unicode="&#xd;" horiz-adv-x="0" 
 />
    <glyph glyph-name="space" unicode=" " horiz-adv-x="223" 
 />
    <glyph glyph-name="exclam" unicode="!" horiz-adv-x="306" 
d="M153 782c55 0 106 -49 106 -126c0 -122 -87 -273 -97 -460h-18c-10 187 -97 338 -97 460c0 77 44 126 106 126zM153 158c63 0 99 -29 99 -86s-36 -86 -99 -86c-64 0 -99 29 -99 86s35 86 99 86z" />
    <glyph glyph-name="quotedbl" unicode="&#x22;" horiz-adv-x="416" 
d="M111 730c46 0 81 -31 81 -80c0 -57 -39 -88 -74 -182h-14c-35 89 -74 124 -74 181c0 49 35 81 81 81zM306 730c46 0 81 -31 81 -80c0 -57 -39 -88 -74 -182h-14c-35 89 -74 124 -74 181c0 49 35 81 81 81z" />
    <glyph glyph-name="numbersign" unicode="#" horiz-adv-x="608" 
d="M424 434l-32 -167h147l-4 -20h-147l-28 -146h-20l28 146h-167l-28 -146h-20l28 146h-147l4 20h147l32 167h-146l3 20h147l29 148h20l-29 -148h167l29 148h20l-29 -148h147l-3 -20h-148zM404 434h-167l-32 -167h167z" />
    <glyph glyph-name="dollar" unicode="$" horiz-adv-x="607" 
d="M575 184c0 -111 -85 -173 -197 -192v-124h-20v121c-18 -2 -36 -3 -55 -3c-11 0 -21 1 -31 1v-119h-20v121c-58 7 -91 25 -112 33c-19 8 -34 15 -48 15c-13 0 -18 -15 -22 -44h-23c3 51 4 119 4 290h23c16 -195 66 -259 178 -271v270l-22 16c-95 63 -178 125 -178 235
c0 114 91 173 200 186v121h20v-119c9 0 19 1 28 1c22 0 41 -2 58 -4v122h20v-125c38 -8 63 -21 84 -33c16 -9 25 -14 34 -14c13 0 18 15 22 44h23c-3 -43 -5 -94 -5 -244h-23c-18 120 -50 200 -135 223v-258l35 -23c91 -59 162 -117 162 -226zM321 698c-19 0 -35 -2 -49 -5
v-183c21 -18 49 -38 86 -63v248c-12 2 -24 3 -37 3zM203 619c0 -25 0 -47 49 -92v161c-35 -14 -49 -40 -49 -69zM302 10c22 0 40 1 56 4v191c-22 17 -50 38 -86 63v-257c9 0 20 -1 30 -1zM378 188v-169c48 14 62 43 62 74c0 27 -1 45 -62 95z" />
    <glyph glyph-name="percent" unicode="%" horiz-adv-x="719" 
d="M665 811l-585 -866l-19 13l585 866zM204 761c101 0 171 -60 171 -163c0 -101 -73 -168 -171 -168c-101 0 -172 60 -172 163c0 100 74 168 172 168zM202 743c-38 0 -57 -52 -57 -149s23 -146 61 -146s56 52 56 148c0 98 -22 147 -60 147zM516 317c101 0 171 -60 171 -163
c0 -101 -73 -168 -171 -168c-101 0 -172 60 -172 163c0 100 74 168 172 168zM514 299c-38 0 -57 -52 -57 -149s23 -146 61 -146s56 52 56 148c0 98 -22 147 -60 147z" />
    <glyph glyph-name="ampersand" unicode="&#x26;" horiz-adv-x="937" 
d="M926 577c0 -104 -70 -158 -192 -188c41 -27 68 -85 68 -154c0 -152 -156 -249 -372 -249c-253 0 -397 95 -397 249c0 152 155 209 215 223c-61 22 -121 55 -121 124c0 100 126 133 219 133c52 0 78 -5 104 -14c33 -11 76 -37 76 -89c0 -46 -41 -76 -91 -76
c-48 0 -86 22 -86 70c0 37 28 72 71 83c-14 5 -38 8 -59 8c-71 0 -131 -44 -131 -139c0 -25 6 -60 31 -94c22 6 37 9 52 9c24 0 35 -12 35 -29c0 -14 -13 -22 -28 -22c-22 0 -45 17 -58 28c-53 -38 -90 -83 -90 -160c0 -128 110 -180 307 -180c129 0 284 54 284 168
c0 25 0 74 -45 107c-21 -4 -43 -9 -67 -12c-25 -4 -49 -8 -72 -12c-139 -25 -211 -48 -211 -103c0 -49 60 -81 119 -81c10 0 19 1 27 2c-41 15 -53 46 -53 75c0 49 42 75 97 75c59 0 93 -30 93 -77c0 -66 -62 -94 -157 -94s-165 46 -165 136c0 127 110 184 280 209
c29 4 57 10 87 14c115 19 193 41 193 101c0 52 -58 84 -111 84c-10 0 -19 -1 -27 -2c41 -15 62 -46 62 -75c0 -49 -40 -74 -95 -74c-59 0 -95 30 -95 77c0 54 41 94 135 94c101 0 168 -53 168 -145z" />
    <glyph glyph-name="quotesingle" unicode="'" horiz-adv-x="222" 
d="M111 730c46 0 81 -31 81 -80c0 -57 -39 -88 -74 -182h-14c-35 89 -74 124 -74 181c0 49 35 81 81 81z" />
    <glyph glyph-name="parenleft" unicode="(" horiz-adv-x="333" 
d="M299 806l15 -12c-73 -144 -111 -292 -111 -482s37 -333 111 -482l-15 -12c-175 113 -270 267 -270 494s95 381 270 494z" />
    <glyph glyph-name="parenright" unicode=")" horiz-adv-x="333" 
d="M20 794l15 12c175 -113 270 -267 270 -494s-95 -381 -270 -494l-15 12c74 149 111 292 111 482s-38 338 -111 482z" />
    <glyph glyph-name="asterisk" unicode="*" horiz-adv-x="473" 
d="M401 489c21 -12 29 -28 29 -44c0 -11 -4 -22 -10 -32c-10 -17 -25 -31 -45 -31c-9 0 -19 3 -30 9c-32 19 -57 61 -104 121c26 -68 53 -114 53 -151c0 -40 -29 -54 -56 -54c-29 0 -57 14 -57 54c0 37 24 79 52 149c-45 -56 -72 -101 -103 -120c-10 -6 -20 -9 -29 -9
c-21 0 -37 14 -46 31c-6 10 -10 22 -10 33c0 16 7 31 28 43c32 19 81 18 156 29c-72 11 -125 11 -156 30c-21 12 -29 28 -29 44c0 11 4 22 10 32c9 17 25 31 46 31c9 0 18 -3 29 -9c32 -19 56 -61 103 -120c-26 67 -52 113 -52 150c0 40 29 54 57 54s56 -14 56 -54
c0 -36 -25 -79 -52 -149c45 56 72 101 103 120c10 6 20 9 29 9c21 0 37 -14 46 -31c6 -10 10 -22 10 -33c0 -16 -7 -31 -28 -43c-31 -18 -80 -18 -154 -29c71 -11 124 -12 154 -30zM237 518h-1h1z" />
    <glyph glyph-name="plus" unicode="+" horiz-adv-x="564" 
d="M301 370h232v-30h-232v-235h-36v235h-233v30h233v236h36v-236z" />
    <glyph glyph-name="comma" unicode="," horiz-adv-x="277" 
d="M135 158c35 0 63 -13 79 -37c14 -19 25 -54 25 -95c0 -67 -34 -131 -106 -164l-9 18c35 16 65 49 75 82c3 11 6 22 6 33c0 7 -2 15 -3 22c-17 -20 -42 -31 -73 -31c-53 0 -88 31 -88 86c0 52 38 86 94 86z" />
    <glyph glyph-name="hyphen" unicode="-" horiz-adv-x="469" 
d="M415 222h-361v99h361v-99z" />
    <glyph glyph-name="period" unicode="." horiz-adv-x="282" 
d="M141 158c63 0 99 -29 99 -86s-36 -86 -99 -86c-64 0 -99 29 -99 86s35 86 99 86z" />
    <glyph glyph-name="slash" unicode="/" horiz-adv-x="366" 
d="M64 -14h-33l272 736h33z" />
    <glyph glyph-name="zero" unicode="0" horiz-adv-x="674" 
d="M343 533c171 0 292 -106 292 -265c0 -160 -122 -282 -303 -282c-169 0 -292 105 -292 266c0 158 120 281 303 281zM334 515c-62 0 -107 -97 -107 -260c0 -180 53 -251 114 -251c62 0 107 98 107 261c0 179 -53 250 -114 250z" />
    <glyph glyph-name="one" unicode="1" horiz-adv-x="392" 
d="M302 530v-437c0 -56 15 -72 56 -72v-21c-27 1 -84 4 -138 4c-74 0 -147 -3 -184 -4v21c54 0 86 17 86 82v246c0 96 -20 108 -86 108v22c126 2 203 15 266 51z" />
    <glyph glyph-name="two" unicode="2" horiz-adv-x="553" 
d="M295 533c110 0 179 -47 179 -128c0 -126 -195 -183 -280 -258h226c55 0 62 10 67 41h23c0 -101 1 -150 4 -193c-18 4 -89 5 -149 5h-329v21c72 71 241 190 241 344c0 68 -29 98 -89 98c-59 0 -99 -25 -134 -67l-17 12c47 70 120 125 258 125z" />
    <glyph glyph-name="three" unicode="3" horiz-adv-x="512" 
d="M259 533c108 0 189 -43 189 -116c0 -74 -81 -143 -239 -165c12 1 24 1 36 1c144 0 239 -58 239 -154c0 -154 -245 -250 -460 -250v21c117 5 275 80 275 228c0 78 -39 133 -104 138c-20 -9 -37 -17 -55 -17c-12 0 -20 3 -20 16c0 17 17 23 36 23c11 0 22 -2 35 -3
c58 38 77 83 77 127c0 59 -34 87 -90 87c-51 0 -98 -25 -129 -71l-18 10c39 65 100 125 228 125z" />
    <glyph glyph-name="four" unicode="4" horiz-adv-x="549" 
d="M523 19c-11 2 -54 3 -100 4v-164h-140v165h-281v21l405 488h16v-382h6c55 0 62 10 67 41h23c0 -91 1 -134 4 -173zM283 151v201l-166 -201h166z" />
    <glyph glyph-name="five" unicode="5" horiz-adv-x="488" 
d="M396 549h23c0 -96 1 -142 4 -183c-17 4 -83 5 -139 5h-186l-19 -156c35 26 94 46 174 46c142 0 207 -72 207 -160c0 -155 -229 -249 -440 -249v18c127 1 255 84 255 227c0 82 -36 128 -107 128c-41 0 -69 -14 -96 -37l-16 11l40 323c15 -3 35 -4 54 -4h199
c29 0 44 8 47 31z" />
    <glyph glyph-name="six" unicode="6" horiz-adv-x="590" 
d="M359 442c115 0 207 -83 207 -216c0 -155 -125 -240 -269 -240c-159 0 -255 104 -255 285c0 300 264 426 439 452l4 -20c-109 -35 -221 -88 -249 -317c26 40 72 56 123 56zM308 6c36 0 71 59 71 211c0 143 -31 196 -70 196c-22 0 -58 -18 -77 -67c-2 -26 -3 -55 -3 -85
c0 -191 42 -255 79 -255z" />
    <glyph glyph-name="seven" unicode="7" horiz-adv-x="487" 
d="M492 518v-21c-51 -110 -178 -269 -178 -475c0 0 5 -64 5 -82c0 -43 -27 -88 -91 -88c-62 0 -91 43 -91 109c0 141 168 296 263 410h-285c-55 0 -62 -10 -67 -41h-23c0 101 -1 150 -4 193c18 -4 89 -5 149 -5h322z" />
    <glyph glyph-name="eight" unicode="8" horiz-adv-x="587" 
d="M373 434c86 -80 181 -161 181 -261c0 -108 -112 -187 -265 -187c-134 0 -252 60 -252 173c0 88 71 143 164 181c-69 62 -131 127 -131 215c0 118 113 167 231 167c131 0 217 -61 217 -142c0 -63 -51 -104 -145 -146zM295 704c-39 0 -57 -28 -57 -67
c0 -68 55 -129 120 -190c16 37 20 99 20 128c0 83 -32 129 -83 129zM294 4c61 0 85 42 85 92c0 93 -82 160 -162 230c-25 -41 -32 -99 -32 -147c0 -97 26 -175 109 -175z" />
    <glyph glyph-name="nine" unicode="9" horiz-adv-x="582" 
d="M292 533c159 0 255 -104 255 -285c0 -265 -258 -381 -429 -402l-4 20c102 29 205 76 236 263c-27 -37 -71 -52 -120 -52c-115 0 -207 83 -207 216c0 155 125 240 269 240zM280 106c22 0 56 17 75 63c3 27 5 57 5 89c0 191 -42 255 -79 255c-36 0 -71 -59 -71 -211
c0 -143 31 -196 70 -196z" />
    <glyph glyph-name="colon" unicode=":" horiz-adv-x="306" 
d="M153 533c63 0 99 -29 99 -86s-36 -86 -99 -86c-64 0 -99 29 -99 86s35 86 99 86zM153 158c63 0 99 -29 99 -86s-36 -86 -99 -86c-64 0 -99 29 -99 86s35 86 99 86z" />
    <glyph glyph-name="semicolon" unicode=";" horiz-adv-x="304" 
d="M152 533c63 0 99 -29 99 -86s-36 -86 -99 -86c-64 0 -99 29 -99 86s35 86 99 86zM147 158c35 0 63 -13 79 -37c14 -19 25 -54 25 -95c0 -67 -34 -131 -106 -164l-9 18c35 16 65 49 75 82c3 11 6 22 6 33c0 7 -2 15 -3 22c-17 -20 -42 -31 -73 -31c-53 0 -88 31 -88 86
c0 52 38 86 94 86z" />
    <glyph glyph-name="less" unicode="&#x3c;" horiz-adv-x="598" 
d="M531 546l-409 -191l409 -191l-17 -36l-487 227l487 227z" />
    <glyph glyph-name="equal" unicode="=" horiz-adv-x="626" 
d="M564 410h-501v30h501v-30zM564 270h-501v30h501v-30z" />
    <glyph glyph-name="greater" unicode="&#x3e;" horiz-adv-x="598" 
d="M571 355l-487 -227l-17 36l409 191l-409 191l17 36z" />
    <glyph glyph-name="question" unicode="?" horiz-adv-x="540" 
d="M251 782c155 0 260 -68 260 -180c0 -113 -111 -188 -275 -222v-146h-20v155c99 49 116 116 116 194c0 126 -46 179 -111 179c-39 0 -67 -8 -79 -19c43 -16 65 -43 65 -88c0 -47 -38 -84 -96 -84c-50 0 -82 38 -82 80c0 49 28 76 64 96c34 19 88 35 158 35zM228 158
c63 0 99 -29 99 -86s-36 -86 -99 -86c-64 0 -99 29 -99 86s35 86 99 86z" />
    <glyph glyph-name="at" unicode="@" horiz-adv-x="888" 
d="M557 26c-65 0 -84 32 -84 72c0 9 1 19 3 29c-37 -78 -86 -101 -137 -101c-66 0 -124 37 -124 136c0 135 107 316 240 316c47 0 72 -29 81 -63l10 49c49 0 106 3 151 14l-76 -357c-2 -12 -5 -23 -5 -33v-6c0 -13 3 -21 13 -21c4 0 9 2 16 5c84 40 192 152 192 328
c0 185 -139 256 -301 256c-250 0 -474 -234 -474 -505c0 -206 132 -288 310 -288c72 0 141 15 206 54l7 -13c-50 -35 -125 -59 -214 -59c-192 0 -329 92 -329 304c0 269 218 525 493 525c180 0 322 -80 322 -275c0 -225 -169 -367 -300 -367zM406 86c36 0 61 40 87 117
l35 172c0 26 -10 60 -35 60c-50 0 -121 -137 -121 -275c0 -59 13 -74 34 -74z" />
    <glyph glyph-name="A" unicode="A" horiz-adv-x="691" 
d="M398 708l242 -624c18 -46 41 -63 59 -64v-20c-48 2 -116 3 -182 3c-68 0 -132 -1 -168 -3v20c47 2 70 10 70 37c0 12 -4 26 -12 47l-59 164h-202l-17 -45c-22 -59 -32 -100 -32 -130c0 -59 37 -71 90 -73v-20c-50 2 -85 3 -131 3c-26 0 -57 -1 -77 -3v20
c31 5 60 34 92 117l222 571c16 -1 35 -2 53 -2s36 1 52 2zM341 288l-91 250l-96 -250h187z" />
    <glyph glyph-name="B" unicode="B" horiz-adv-x="704" 
d="M401 373v-2c206 -10 283 -96 283 -177c0 -134 -114 -194 -300 -194c-32 0 -95 3 -182 3c-67 0 -136 -1 -174 -3v20c61 3 71 13 71 86v496c0 73 -11 83 -71 86v20c38 -2 108 -3 172 -3c67 0 135 2 161 2c182 0 271 -65 271 -157c0 -71 -73 -157 -231 -177zM356 688
c-45 0 -54 -17 -54 -86v-226h27c78 0 97 76 97 163c0 98 -19 149 -70 149zM367 23c75 0 107 63 107 175c0 102 -45 161 -158 161h-14v-253c0 -70 11 -83 65 -83z" />
    <glyph glyph-name="C" unicode="C" horiz-adv-x="716" 
d="M414 722c88 0 140 -31 184 -65c7 -6 14 -9 20 -9c14 0 22 19 25 60h23c-3 -53 -4 -124 -4 -250h-23c-9 96 -25 159 -92 203c-28 18 -60 30 -93 30c-153 0 -188 -189 -188 -339s35 -339 188 -339c33 0 65 12 93 30c67 41 83 108 92 217h23c0 -131 1 -205 4 -260h-23
c-3 41 -10 59 -24 59c-5 0 -13 -3 -21 -8c-49 -35 -99 -65 -185 -65c-226 0 -377 133 -377 362c0 224 156 374 378 374z" />
    <glyph glyph-name="D" unicode="D" horiz-adv-x="811" 
d="M361 708c280 0 413 -123 413 -346c0 -218 -156 -362 -422 -362c-32 0 -104 3 -150 3c-67 0 -136 -1 -174 -3v20c61 3 71 13 71 86v496c0 73 -11 83 -71 86v20c31 -1 84 -3 137 -3h35c49 1 120 3 161 3zM376 690c-61 0 -74 -17 -74 -86v-500c0 -70 13 -86 75 -86
c136 0 187 122 187 340c0 224 -57 332 -188 332z" />
    <glyph glyph-name="E" unicode="E" horiz-adv-x="649" 
d="M600 168c0 -33 0 -102 7 -168c-68 3 -162 3 -229 3c-72 0 -234 0 -350 -3v20c61 3 71 13 71 86v496c0 73 -11 83 -71 86v20c116 -3 278 -3 350 -3c61 0 147 0 209 3c-5 -67 -7 -135 -7 -168c0 -28 1 -55 3 -72h-23c-25 166 -102 217 -184 217h-13c-52 0 -61 -8 -61 -63
v-256h10c75 0 124 74 136 132h23c-3 -44 -4 -74 -4 -97c0 -17 1 -31 1 -45c0 -33 1 -66 6 -142h-23c-12 74 -64 132 -139 132h-10v-260c0 -55 9 -63 61 -63h33c66 0 152 56 184 237h23c-2 -24 -3 -56 -3 -92z" />
    <glyph glyph-name="F" unicode="F" horiz-adv-x="607" 
d="M587 708c-5 -67 -7 -135 -7 -168c0 -28 1 -55 3 -72h-23c-35 166 -112 217 -184 217h-13c-52 0 -61 -8 -61 -63v-256h10c75 0 124 74 136 132h23c-3 -44 -4 -74 -4 -97c0 -17 1 -31 1 -45c0 -33 1 -66 6 -142h-23c-12 74 -64 132 -139 132h-10v-230c0 -82 19 -93 111 -93
v-23c-45 1 -123 3 -206 3c-61 0 -125 -2 -179 -3v20c61 3 71 13 71 86v496c0 73 -11 83 -71 86v20c116 -3 278 -3 350 -3c61 0 147 0 209 3z" />
    <glyph glyph-name="G" unicode="G" horiz-adv-x="755" 
d="M424 722c93 0 149 -29 194 -65c7 -6 14 -9 20 -9c14 0 21 19 25 60h23c-3 -53 -4 -124 -4 -250h-23c-9 96 -26 158 -92 203c-28 19 -68 30 -103 30c-154 0 -198 -189 -198 -339c0 -240 64 -346 161 -346c21 0 37 4 49 12c14 10 21 26 21 50v100c0 97 -17 113 -101 116v20
c45 -2 131 -3 191 -3c64 0 120 1 154 3v-20c-34 -3 -41 -12 -41 -86v-198h-20c-1 23 -10 57 -31 57c-11 0 -27 -3 -68 -23c-52 -25 -112 -48 -169 -48c-251 0 -376 134 -376 362c0 224 160 374 388 374z" />
    <glyph glyph-name="H" unicode="H" horiz-adv-x="829" 
d="M801 708v-20c-61 -3 -71 -13 -71 -86v-496c0 -73 11 -83 71 -86v-20c-36 2 -100 3 -168 3c-66 0 -136 -1 -177 -3v20c61 3 71 13 71 86v240h-225v-240c0 -73 11 -83 71 -86v-20c-39 2 -105 3 -167 3c-72 0 -140 -1 -178 -3v20c61 3 71 13 71 86v496c0 73 -11 83 -71 86
v20c38 -2 106 -3 178 -3c62 0 128 1 167 3v-20c-61 -3 -71 -13 -71 -86v-236h225v236c0 73 -11 83 -71 86v20c41 -2 111 -3 177 -3c68 0 132 1 168 3z" />
    <glyph glyph-name="I" unicode="I" horiz-adv-x="400" 
d="M373 708v-20c-61 -3 -71 -13 -71 -86v-496c0 -73 11 -83 71 -86v-20c-39 2 -105 3 -167 3c-72 0 -140 -1 -178 -3v20c61 3 71 13 71 86v496c0 73 -11 83 -71 86v20c38 -2 106 -3 178 -3c62 0 128 1 167 3z" />
    <glyph glyph-name="J" unicode="J" horiz-adv-x="390" 
d="M368 708v-20c-61 -3 -71 -13 -71 -86v-366v-82c0 -64 -2 -131 -17 -179c-30 -92 -132 -163 -281 -163c-35 0 -81 4 -112 19c-36 18 -50 43 -50 75c0 47 39 77 98 77c55 0 90 -25 90 -74c0 -29 -17 -60 -58 -75c6 -1 12 -1 18 -1c45 0 75 29 88 63c21 58 21 111 21 249
v457c0 73 -11 83 -71 86v20c36 -2 100 -3 168 -3c66 0 136 1 177 3z" />
    <glyph glyph-name="K" unicode="K" horiz-adv-x="753" 
d="M477 468l232 -387c17 -28 31 -45 61 -61v-20c-56 2 -123 3 -180 3c-31 0 -74 0 -143 -3v20c42 2 57 6 57 19c0 6 -4 15 -10 26l-145 245c-19 32 -28 41 -47 44v-248c0 -73 11 -83 71 -86v-20c-39 2 -105 3 -167 3c-72 0 -140 -1 -178 -3v20c61 3 71 13 71 86v496
c0 73 -11 83 -71 86v20c38 -2 106 -3 178 -3c62 0 128 1 167 3v-20c-61 -3 -71 -13 -71 -86v-226c55 4 99 39 171 119l34 38c31 35 44 66 44 90c0 40 -36 64 -82 66v19c56 -2 94 -3 169 -3c43 0 74 1 101 3v-19c-45 -12 -101 -39 -164 -110z" />
    <glyph glyph-name="L" unicode="L" horiz-adv-x="625" 
d="M383 708v-20c-68 -3 -81 -13 -81 -86v-516c0 -55 8 -63 51 -63h33c70 0 171 118 194 247h23c-2 -24 -3 -56 -3 -92c0 -35 0 -108 7 -178c-68 3 -162 3 -229 3c-72 0 -234 0 -350 -3v20c61 3 71 13 71 86v496c0 73 -11 83 -71 86v20c38 -2 106 -3 178 -3c66 0 136 1 177 3
z" />
    <glyph glyph-name="M" unicode="M" horiz-adv-x="964" 
d="M937 708v-20c-61 -3 -71 -13 -71 -86v-496c0 -73 11 -83 71 -86v-20c-41 2 -111 3 -177 3c-72 0 -140 -1 -178 -3v20c68 3 81 13 81 86v512l-241 -617h-16l-282 642v-447c0 -134 6 -163 101 -176v-20c-27 2 -75 3 -112 3c-30 0 -63 -1 -83 -3v20c61 13 71 43 71 156v426
c0 73 -11 83 -71 86v20c20 -2 53 -3 83 -3c77 0 149 1 207 3l189 -425l164 422h87c66 0 136 1 177 3z" />
    <glyph glyph-name="N" unicode="N" horiz-adv-x="731" 
d="M708 708v-20c-61 -13 -71 -43 -71 -156v-532c-10 1 -21 1 -33 1s-24 0 -37 -1l-443 484v-288c0 -134 6 -163 101 -176v-20c-27 2 -75 3 -112 3c-30 0 -63 -1 -83 -3v20c61 13 71 43 71 156v426c0 73 -11 83 -71 86v20c20 -2 53 -3 83 -3c33 0 67 1 92 3l409 -432v236
c0 134 -6 163 -101 176v20c27 -2 75 -3 112 -3c30 0 63 1 83 3z" />
    <glyph glyph-name="O" unicode="O" horiz-adv-x="827" 
d="M414 722c226 0 377 -133 377 -362c0 -224 -156 -374 -378 -374c-226 0 -377 133 -377 362c0 224 156 374 378 374zM410 704c-100 0 -164 -145 -164 -352c0 -213 77 -348 171 -348c100 0 164 145 164 352c0 213 -77 348 -171 348z" />
    <glyph glyph-name="P" unicode="P" horiz-adv-x="678" 
d="M302 286v-170c0 -82 19 -93 111 -93v-23c-45 1 -123 3 -206 3c-61 0 -125 -2 -179 -3v20c61 3 71 13 71 86v496c0 73 -11 83 -71 86v20c38 -2 108 -3 172 -3c67 0 135 2 161 2c203 0 301 -81 301 -197c0 -97 -68 -224 -323 -224h-37zM356 688c-45 0 -54 -17 -54 -86v-296
h27c102 0 123 91 123 193c0 126 -25 189 -96 189z" />
    <glyph glyph-name="Q" unicode="Q" horiz-adv-x="827" 
d="M775 36l19 -5c-7 -86 -31 -152 -73 -184c-30 -23 -78 -35 -125 -35c-113 0 -217 58 -332 106c-8 3 -19 7 -24 7c-26 -15 -58 -25 -84 -25c-27 0 -47 9 -47 30c0 19 18 31 55 31c22 0 51 -7 76 -18c49 13 81 31 121 45c-197 19 -325 149 -325 360c0 224 156 374 378 374
c226 0 377 -133 377 -362c0 -219 -150 -368 -365 -374c-60 -8 -90 -31 -151 -48c73 -2 132 -4 183 -4c67 0 120 3 172 14c73 16 111 37 145 88zM246 352c0 -213 77 -348 171 -348c100 0 164 145 164 352c0 213 -77 348 -171 348c-100 0 -164 -145 -164 -352z" />
    <glyph glyph-name="R" unicode="R" horiz-adv-x="721" 
d="M733 53l13 -13c-41 -41 -89 -54 -150 -54c-87 0 -142 26 -154 108l-15 100c-12 82 -29 142 -80 142h-45v-230c0 -73 11 -83 71 -86v-20c-39 2 -105 3 -167 3c-72 0 -140 -1 -178 -3v20c61 3 71 13 71 86v496c0 73 -11 83 -71 86v20c38 -2 108 -3 172 -3c67 0 135 2 161 2
c203 0 301 -56 301 -174c0 -88 -54 -175 -245 -194c137 -8 203 -48 219 -130l21 -104c10 -50 22 -65 45 -65c13 0 22 4 31 13zM356 688c-45 0 -54 -17 -54 -86v-246h27c102 0 123 74 123 166c0 105 -25 166 -96 166z" />
    <glyph glyph-name="S" unicode="S" horiz-adv-x="612" 
d="M302 722c86 0 128 -21 162 -40c16 -9 25 -14 34 -14c13 0 18 15 22 44h23c-3 -43 -5 -94 -5 -244h-23c-7 110 -70 227 -174 227c-59 0 -102 -33 -102 -93c0 -74 50 -104 176 -192c89 -62 162 -117 162 -226c0 -135 -126 -198 -272 -198c-91 0 -140 19 -177 37
c-16 10 -26 14 -34 14c-13 0 -18 -15 -22 -44h-23c3 51 4 119 4 290h23c8 -141 54 -267 182 -267c73 0 120 36 120 98c0 83 -61 131 -146 188c-95 63 -178 121 -178 231c0 131 119 189 248 189z" />
    <glyph glyph-name="T" unicode="T" horiz-adv-x="699" 
d="M676 708c-5 -79 -7 -159 -7 -198c0 -28 1 -55 3 -72h-23c-47 188 -125 247 -197 247h-1v-572c0 -82 19 -93 111 -93v-20c-47 1 -132 3 -219 3c-83 0 -161 -2 -206 -3v20c92 0 111 11 111 93v572h-1c-73 0 -150 -58 -197 -247h-23c2 17 3 44 3 72c0 39 -2 119 -7 198
c95 -3 233 -3 327 -3s231 0 326 3z" />
    <glyph glyph-name="U" unicode="U" horiz-adv-x="692" 
d="M681 708v-20c-61 -13 -71 -43 -71 -156v-241c0 -83 -9 -159 -41 -212c-35 -58 -100 -93 -215 -93c-61 0 -135 10 -188 48c-69 50 -82 131 -82 254v314c0 73 -10 83 -71 86v20c38 -2 107 -3 176 -3s138 1 179 3v-20c-68 -3 -81 -13 -81 -86v-408c0 -132 42 -173 125 -173
c134 0 175 105 175 259v232c0 134 -6 163 -101 176v20c27 -2 75 -3 112 -3c30 0 63 1 83 3z" />
    <glyph glyph-name="V" unicode="V" horiz-adv-x="692" 
d="M628 705c26 0 57 1 77 3v-20c-31 -15 -70 -55 -100 -140l-195 -548c-16 1 -35 2 -53 2s-36 -1 -52 -2l-262 624c-19 46 -41 63 -59 64v20c48 -2 116 -3 182 -3c68 0 132 1 168 3v-20c-45 -2 -70 -8 -70 -37c0 -12 4 -26 12 -47l173 -426l97 272c22 64 33 113 33 149
c0 62 -31 87 -82 89v20c50 -2 85 -3 131 -3z" />
    <glyph glyph-name="W" unicode="W" horiz-adv-x="1009" 
d="M941 705c26 0 57 1 77 3v-20c-31 -15 -67 -54 -93 -140l-168 -548c-16 1 -35 2 -53 2s-36 -1 -52 -2l-130 397l-141 -397c-16 1 -35 2 -53 2s-36 -1 -52 -2l-232 624c-17 46 -41 63 -59 64v20c48 -2 118 -3 177 -3s105 1 133 3v-20c-20 -4 -26 -21 -26 -40
c0 -15 3 -31 8 -44l145 -408l88 238l-68 207c-11 35 -28 45 -51 47v20c45 -2 110 -3 173 -3s121 1 155 3v-20c-46 -1 -68 -8 -68 -38c0 -11 3 -26 10 -46l132 -401l77 247c18 59 26 105 26 140c0 70 -33 96 -86 98v20c50 -2 85 -3 131 -3z" />
    <glyph glyph-name="X" unicode="X" horiz-adv-x="729" 
d="M439 429l253 -358c27 -38 36 -48 62 -50v-21c-33 1 -105 4 -171 4s-141 -3 -174 -4v21c42 0 62 4 62 17c0 4 -2 10 -7 17l-167 238l-61 -76c-36 -44 -51 -84 -51 -117c0 -45 31 -76 83 -80v-20c-38 2 -141 3 -173 3c-41 0 -75 -1 -97 -3v20c50 21 107 69 166 142l120 150
l-228 326c-27 38 -36 48 -62 50v21c35 -1 111 -4 181 -4c62 0 130 3 161 4v-21c-42 0 -63 -4 -63 -17c0 -4 3 -10 8 -17l145 -206l57 70c34 40 50 76 50 105c0 37 -25 61 -70 65v20c38 -2 101 -3 133 -3c41 0 75 1 97 3v-20c-46 -17 -98 -67 -135 -113z" />
    <glyph glyph-name="Y" unicode="Y" horiz-adv-x="644" 
d="M559 706c26 0 57 1 77 3v-20c-31 -15 -65 -52 -106 -133l-93 -184v-266c0 -73 11 -83 71 -86v-20c-39 2 -110 3 -172 3c-68 0 -137 -1 -173 -3v20c61 3 71 13 71 86v184l-185 342c-23 42 -44 56 -58 56v21c41 -4 84 -6 138 -6c68 0 153 3 220 6v-21c-42 0 -80 -1 -80 -23
c0 -4 1 -9 4 -15l143 -275l45 91c33 66 47 115 47 149c0 52 -32 72 -80 74v20c50 -2 85 -3 131 -3z" />
    <glyph glyph-name="Z" unicode="Z" horiz-adv-x="606" 
d="M561 688l-303 -665h42c68 0 222 56 242 237h23c-2 -24 -3 -56 -3 -92c0 -33 0 -102 7 -168c-74 3 -176 3 -249 3c-91 0 -195 0 -283 -3v20l303 665h-50c-82 0 -201 -47 -224 -217h-23c2 17 3 44 3 72c0 33 -2 101 -7 168c62 -3 148 -3 209 -3c100 0 216 0 313 3v-20z" />
    <glyph glyph-name="bracketleft" unicode="[" horiz-adv-x="339" 
d="M299 753h-41v-915h41v-19h-221v953h221v-19z" />
    <glyph glyph-name="backslash" unicode="\" horiz-adv-x="366" 
d="M63 722l272 -736h-33l-272 736h33z" />
    <glyph glyph-name="bracketright" unicode="]" horiz-adv-x="339" 
d="M262 772v-953h-221v19h41v915h-41v19h221z" />
    <glyph glyph-name="asciicircum" unicode="^" horiz-adv-x="523" 
d="M253 528h18c45 -79 123 -162 207 -212l-8 -14c-88 14 -178 38 -228 60c-42 -22 -116 -46 -188 -60l-8 14c83 49 160 132 207 212z" />
    <glyph glyph-name="underscore" unicode="_" horiz-adv-x="619" 
d="M567 -181h-515v111h515v-111z" />
    <glyph glyph-name="grave" unicode="`" horiz-adv-x="223" 
d="M20 820c13 12 28 16 43 16c21 0 43 -10 55 -24c36 -40 28 -91 85 -204l-11 -9c-94 79 -143 90 -176 130c-11 13 -16 29 -16 45c0 17 6 34 20 46z" />
    <glyph glyph-name="a" unicode="a" horiz-adv-x="530" 
d="M272 533c70 0 125 -10 163 -50c28 -29 33 -71 33 -140v-268c0 -32 4 -43 15 -43c12 0 22 8 31 15l10 -17c-32 -27 -73 -37 -130 -37c-75 0 -102 36 -103 76c-28 -46 -81 -76 -143 -76c-80 0 -126 46 -126 115c0 68 39 112 127 141c78 28 139 48 139 93v89
c0 31 -10 82 -74 82c-17 0 -38 -7 -53 -17c43 -16 67 -45 67 -90c0 -47 -38 -84 -96 -84c-50 0 -82 38 -82 87c0 42 26 73 62 92c41 21 90 32 160 32zM288 90v211c-8 -14 -25 -30 -39 -44c-30 -29 -49 -64 -49 -113c0 -52 22 -71 51 -71c14 0 25 4 37 17z" />
    <glyph glyph-name="b" unicode="b" horiz-adv-x="601" 
d="M395 533c99 0 174 -81 174 -251c0 -227 -108 -296 -233 -296c-38 0 -69 1 -98 14c-23 9 -49 13 -72 13c-41 0 -78 -12 -96 -29l-14 10c6 18 7 36 7 55v613c0 60 -14 88 -56 88v21c21 -2 42 -3 62 -3c67 0 124 4 174 14v-324c31 51 84 75 152 75zM290 6c62 0 92 84 92 253
c0 177 -30 222 -67 222s-72 -30 -72 -72v-391c15 -8 32 -12 47 -12z" />
    <glyph glyph-name="c" unicode="c" 
d="M287 533c58 0 105 -14 132 -30c36 -21 60 -58 60 -104c0 -55 -40 -97 -96 -97c-59 0 -92 37 -92 90c0 50 38 88 82 100c-9 7 -22 12 -40 12c-95 0 -116 -131 -116 -231c0 -141 66 -178 125 -178c27 0 77 6 121 67l17 -6c-25 -81 -90 -170 -209 -170
c-134 0 -241 71 -241 273c0 192 112 274 257 274z" />
    <glyph glyph-name="d" unicode="d" horiz-adv-x="608" 
d="M537 782v-672c0 -60 14 -88 56 -88v-21c-21 2 -42 3 -62 3c-67 0 -124 -4 -174 -14v71c-27 -51 -63 -75 -122 -75c-115 0 -204 81 -204 277c0 181 88 270 222 270c44 0 77 -7 104 -25v154c0 60 -14 88 -56 88v21c21 -2 42 -3 62 -3c67 0 124 4 174 14zM285 38
c37 0 72 30 72 72v377c-15 9 -32 13 -47 13c-62 0 -92 -78 -92 -240c0 -177 30 -222 67 -222z" />
    <glyph glyph-name="e" unicode="e" 
d="M333 95c27 0 77 6 121 67l17 -6c-25 -81 -90 -170 -209 -170c-128 0 -231 71 -231 273c0 192 112 274 257 274c117 0 189 -63 189 -224h-258c-1 -12 -1 -24 -1 -36c0 -141 61 -178 115 -178zM281 510c-35 0 -59 -50 -66 -182h116c1 98 -13 182 -50 182z" />
    <glyph glyph-name="f" unicode="f" horiz-adv-x="365" 
d="M296 782c53 0 90 -14 120 -37c19 -15 37 -44 37 -83c0 -41 -34 -81 -83 -81c-55 0 -90 31 -90 83c0 38 22 74 69 89c-4 5 -13 9 -27 9c-23 0 -37 -7 -47 -19c-12 -15 -19 -38 -19 -91v-134h107v-20h-107v-395c0 -65 32 -82 86 -82v-21c-37 1 -110 4 -184 4
c-54 0 -111 -3 -138 -4v21c41 0 56 16 56 72v405h-60v20h60c0 118 19 169 71 214c31 27 88 50 149 50z" />
    <glyph glyph-name="g" unicode="g" horiz-adv-x="560" 
d="M177 140h227c79 0 147 -28 147 -117c0 -101 -94 -211 -296 -211c-184 0 -235 44 -235 83c0 73 124 30 165 79h-33c-40 0 -120 16 -120 104c0 65 35 105 130 150c-74 22 -122 69 -122 145c0 110 100 160 235 160c21 0 41 -1 60 -4c0 7 -1 14 -1 21c0 74 33 132 113 132
c47 0 86 -24 86 -67c0 -38 -36 -65 -82 -65c-47 0 -72 19 -89 52c-5 -14 -7 -32 -7 -52c0 -8 0 -16 1 -24c92 -18 154 -67 154 -153c0 -110 -100 -160 -235 -160c-34 0 -66 4 -95 10c-25 -17 -39 -29 -39 -50c0 -23 14 -33 36 -33zM275 515c-32 0 -51 -35 -51 -142
s19 -142 51 -142s51 35 51 142s-19 142 -51 142zM282 -171c78 0 130 46 130 113c0 20 -11 32 -46 32h-161c-10 -22 -13 -53 -13 -65c0 -50 30 -80 90 -80z" />
    <glyph glyph-name="h" unicode="h" horiz-adv-x="622" 
d="M254 782v-324c32 53 87 75 159 75c61 0 94 -17 113 -40c20 -24 29 -61 29 -129v-271c0 -56 15 -72 56 -72v-21c-27 1 -88 4 -140 4c-56 0 -115 -3 -142 -4v21c34 0 46 16 46 72v325c0 42 -14 63 -49 63c-37 0 -72 -30 -72 -72v-316c0 -56 12 -72 46 -72v-21
c-25 1 -80 4 -132 4c-56 0 -121 -3 -150 -4v21c41 0 56 16 56 72v569c0 60 -14 88 -56 88v21c21 -2 42 -3 62 -3c67 0 124 4 174 14z" />
    <glyph glyph-name="i" unicode="i" horiz-adv-x="330" 
d="M161 782c69 0 109 -29 109 -86s-40 -86 -109 -86c-70 0 -109 29 -109 86s39 86 109 86zM257 530v-437c0 -56 15 -72 56 -72v-21c-27 1 -86 4 -142 4s-121 -3 -150 -4v21c41 0 56 16 56 72v317c0 60 -14 88 -56 88v21c21 -2 42 -3 62 -3c67 0 124 4 174 14z" />
    <glyph glyph-name="j" unicode="j" horiz-adv-x="316" 
d="M161 782c69 0 109 -29 109 -86s-40 -86 -109 -86c-70 0 -109 29 -109 86s39 86 109 86zM254 530v-450c0 -118 -19 -173 -71 -218c-33 -29 -91 -50 -189 -50c-35 0 -73 3 -111 20c-32 14 -51 42 -51 74c0 47 39 77 98 77c55 0 90 -25 90 -74c0 -29 -17 -60 -58 -75
c9 -1 19 -2 27 -2c27 0 54 11 67 32c18 30 18 83 18 216v330c0 60 -14 88 -56 88v21c21 -2 42 -3 62 -3c67 0 124 4 174 14z" />
    <glyph glyph-name="k" unicode="k" horiz-adv-x="608" 
d="M412 375l159 -302c11 -20 21 -42 40 -52v-21c-23 1 -75 4 -121 4c-54 0 -114 -3 -141 -4v21c20 0 29 7 29 19c0 5 -2 9 -4 15l-88 186c-8 16 -18 21 -32 22v-170c0 -56 15 -72 56 -72v-21c-27 1 -86 4 -142 4s-121 -3 -150 -4v21c41 0 56 16 56 72v569
c0 60 -14 88 -56 88v21c21 -2 42 -3 62 -3c67 0 124 4 174 14v-500c16 0 31 3 43 15l77 72c24 23 35 45 35 65c0 35 -34 61 -80 65v20c38 -2 88 -3 120 -3c41 0 111 1 137 3v-20c-48 -13 -98 -48 -148 -98z" />
    <glyph glyph-name="l" unicode="l" horiz-adv-x="328" 
d="M254 782v-689c0 -56 15 -72 56 -72v-21c-27 1 -86 4 -142 4s-121 -3 -150 -4v21c41 0 56 16 56 72v569c0 60 -14 88 -56 88v21c21 -2 42 -3 62 -3c67 0 124 4 174 14z" />
    <glyph glyph-name="m" unicode="m" horiz-adv-x="916" 
d="M849 364v-271c0 -56 15 -72 56 -72v-21c-27 1 -88 4 -140 4s-107 -3 -132 -4v21c27 0 36 16 36 72v325c0 42 -14 63 -49 63s-69 -35 -74 -74c1 -13 2 -27 2 -43v-271c0 -56 11 -72 46 -72v-21c-25 1 -82 4 -130 4c-52 0 -107 -3 -132 -4v21c26 0 36 16 36 72v325
c0 42 -11 63 -39 63c-37 0 -72 -30 -72 -72v-316c0 -56 9 -72 36 -72v-21c-23 1 -74 4 -122 4c-56 0 -121 -3 -150 -4v21c41 0 56 16 56 72v317c0 60 -14 88 -56 88v21c21 -2 42 -3 62 -3c67 0 124 4 174 14v-72c30 53 82 75 149 75c61 0 94 -17 113 -40
c10 -12 18 -27 22 -47c37 67 95 87 166 87c61 0 94 -17 113 -40c20 -24 29 -61 29 -129z" />
    <glyph glyph-name="n" unicode="n" horiz-adv-x="625" 
d="M416 533c61 0 94 -17 113 -40c20 -24 29 -61 29 -129v-271c0 -56 15 -72 56 -72v-21c-27 1 -88 4 -140 4c-56 0 -115 -3 -142 -4v21c34 0 46 16 46 72v325c0 42 -14 63 -49 63c-37 0 -72 -30 -72 -72v-316c0 -56 12 -72 46 -72v-21c-25 1 -80 4 -132 4
c-56 0 -121 -3 -150 -4v21c41 0 56 16 56 72v317c0 60 -14 88 -56 88v21c21 -2 42 -3 62 -3c67 0 124 4 174 14v-72c32 53 87 75 159 75z" />
    <glyph glyph-name="o" unicode="o" horiz-adv-x="576" 
d="M288 533c155 0 257 -72 257 -274s-102 -273 -257 -273s-257 71 -257 273s102 274 257 274zM288 513c-40 0 -70 -75 -70 -254s30 -253 70 -253s70 74 70 253s-30 254 -70 254z" />
    <glyph glyph-name="p" unicode="p" horiz-adv-x="611" 
d="M406 533c99 0 174 -81 174 -251c0 -227 -108 -296 -233 -296c-34 0 -68 5 -93 19v-83c0 -65 32 -82 86 -82v-21c-37 1 -110 4 -184 4c-54 0 -111 -3 -138 -4v21c41 0 56 16 56 72v497c0 60 -14 88 -56 88v21c21 -2 42 -3 62 -3c67 0 124 4 174 14v-71c31 51 84 75 152 75
zM289 16c74 0 104 81 104 243c0 177 -30 222 -67 222s-72 -30 -72 -72v-385c10 -6 23 -8 35 -8z" />
    <glyph glyph-name="q" unicode="q" horiz-adv-x="600" 
d="M537 470v-558c0 -56 15 -72 56 -72v-21c-27 1 -84 4 -138 4c-74 0 -147 -3 -184 -4v21c54 0 86 17 86 82v139c-27 -51 -63 -75 -122 -75c-115 0 -204 81 -204 277c0 181 88 270 222 270c42 0 79 -1 113 -16c21 -7 45 -11 66 -11c42 0 80 12 98 29l14 -10
c-6 -18 -7 -36 -7 -55zM285 38c37 0 72 30 72 72v392c-15 8 -32 11 -47 11c-62 0 -92 -84 -92 -253c0 -177 30 -222 67 -222z" />
    <glyph glyph-name="r" unicode="r" horiz-adv-x="480" 
d="M386 533c72 0 92 -55 92 -101c0 -60 -37 -98 -92 -98c-59 0 -89 29 -89 72c0 45 21 73 51 93c-11 0 -22 -2 -32 -7c-33 -14 -59 -49 -59 -89v-300c0 -64 25 -82 86 -82v-21c-31 1 -98 4 -162 4c-60 0 -129 -3 -160 -4v21c41 0 56 16 56 72v317c0 60 -14 88 -56 88v21
c21 -2 42 -3 62 -3c67 0 124 4 174 14v-72c26 51 71 75 129 75z" />
    <glyph glyph-name="s" unicode="s" horiz-adv-x="472" 
d="M231 533c58 0 106 -16 126 -27c7 -4 13 -6 18 -6c13 0 22 10 25 32h20c-3 -39 -4 -89 -4 -180h-20c-9 74 -41 157 -123 157c-33 0 -59 -21 -59 -56c0 -60 63 -97 120 -144c61 -50 108 -92 108 -169c0 -91 -91 -154 -202 -154c-47 0 -82 12 -103 25c-21 11 -35 17 -50 17
c-14 0 -23 -16 -28 -35h-20c3 43 4 99 4 200h20c12 -106 59 -182 132 -182c31 0 58 17 58 55c0 59 -40 92 -93 140c-60 55 -117 104 -117 183c0 89 89 144 188 144z" />
    <glyph glyph-name="t" unicode="t" horiz-adv-x="350" 
d="M252 518h98v-20h-98v-414c0 -26 8 -36 30 -36c14 0 36 7 54 29l15 -12c-28 -48 -73 -79 -142 -79c-44 0 -80 11 -103 34c-29 29 -34 70 -34 139v339h-76v20h76v119c71 0 127 13 180 44v-163z" />
    <glyph glyph-name="u" unicode="u" horiz-adv-x="622" 
d="M548 530v-421c0 -60 14 -88 56 -88v-21c-21 2 -42 3 -62 3c-67 0 -124 -4 -174 -14v72c-32 -53 -87 -75 -159 -75c-61 0 -94 17 -113 40c-20 24 -29 61 -29 129v255c0 60 -14 88 -56 88v21c21 -2 42 -3 62 -3c67 0 124 4 174 14v-429c0 -42 14 -63 49 -63
c37 0 72 30 72 72v300c0 60 -14 88 -56 88v21c21 -2 42 -3 62 -3c67 0 124 4 174 14z" />
    <glyph glyph-name="v" unicode="v" horiz-adv-x="520" 
d="M444 515c24 0 62 1 77 4v-21c-25 -9 -49 -32 -71 -97l-135 -401c-16 1 -32 2 -48 2s-33 -1 -49 -2l-174 442c-20 51 -44 56 -58 56v21c53 -4 108 -6 178 -6c41 0 90 3 130 6v-21c-32 0 -58 1 -58 -25c0 -4 1 -8 2 -13l109 -303l46 138c14 41 19 74 19 102
c0 65 -31 98 -73 101v21c28 -3 81 -4 105 -4z" />
    <glyph glyph-name="w" unicode="w" horiz-adv-x="797" 
d="M724 515c24 0 62 1 77 4v-21c-25 -9 -50 -31 -71 -97l-125 -401c-16 1 -32 2 -48 2s-33 -1 -49 -2l-119 346l-91 -346c-16 1 -32 2 -48 2s-33 -1 -49 -2l-154 442c-19 53 -44 56 -58 56v21c53 -4 108 -6 178 -6c41 0 90 3 130 6v-21c-37 0 -58 -3 -58 -24
c0 -4 1 -9 2 -14l83 -277l86 335h1c16 -1 32 -2 48 -2c19 0 39 1 58 2l114 -366l43 143c11 38 16 70 16 96c0 70 -35 103 -81 107v21c28 -3 91 -4 115 -4z" />
    <glyph glyph-name="x" unicode="x" horiz-adv-x="546" 
d="M340 317l164 -246c12 -17 30 -46 52 -50v-21c-25 1 -81 4 -131 4c-54 0 -111 -3 -138 -4v21c19 0 30 7 30 18c0 5 -1 10 -5 16l-98 148l-9 -11c-26 -33 -38 -65 -38 -93c0 -43 29 -76 72 -79v-20c-41 2 -128 3 -163 3c-29 0 -49 -1 -67 -3v20c34 17 61 42 94 82l101 116
l-153 230c-19 29 -32 46 -52 50v21c29 -1 93 -4 151 -4c46 0 95 3 118 4v-21c-19 0 -30 -7 -30 -18c0 -5 1 -10 5 -16l87 -131l17 20c25 31 37 61 37 85c0 34 -22 58 -63 61v20c41 -2 98 -3 133 -3c29 0 49 1 67 3v-20c-30 -13 -61 -42 -94 -82z" />
    <glyph glyph-name="y" unicode="y" horiz-adv-x="528" 
d="M448 515c24 0 62 1 77 4v-21c-25 -9 -49 -32 -71 -97l-125 -372l-42 -121c-12 -34 -25 -57 -44 -72c-18 -14 -44 -24 -93 -24c-55 0 -136 24 -136 94c0 47 39 77 98 77c55 0 90 -25 90 -74c0 -29 -20 -63 -65 -77c10 -2 26 -2 34 -2c43 0 77 25 95 80l5 16l-233 516
c-23 51 -44 56 -58 56v21c53 -4 113 -6 163 -6c62 0 105 3 145 6v-21c-30 0 -60 0 -60 -22c0 -4 1 -10 4 -16l123 -293l42 128c14 41 19 74 19 102c0 65 -31 98 -73 101v21c28 -3 81 -4 105 -4z" />
    <glyph glyph-name="z" unicode="z" horiz-adv-x="472" 
d="M223 15h14c75 0 162 43 173 191h20c0 -106 1 -165 4 -210c-62 3 -130 4 -196 4c-70 0 -145 -2 -212 -5l224 508h-20c-75 0 -156 -43 -167 -191h-20c0 106 -1 165 -4 210c62 -3 130 -4 196 -4c70 0 145 2 212 5z" />
    <glyph glyph-name="braceleft" unicode="{" horiz-adv-x="353" 
d="M342 782v-19c-57 -2 -70 -23 -70 -212c0 -180 -113 -230 -233 -252c120 -22 233 -73 233 -252c0 -197 13 -215 70 -216v-19c-183 0 -250 51 -250 235c0 187 -15 238 -76 243h-5v18h5c61 4 76 55 76 243c0 176 67 231 250 231z" />
    <glyph glyph-name="bar" unicode="|" horiz-adv-x="273" 
d="M197 -195h-120v1053h120v-1053z" />
    <glyph glyph-name="braceright" unicode="}" horiz-adv-x="353" 
d="M11 763v19c183 0 250 -55 250 -231c0 -188 15 -239 76 -243h5v-18h-5c-61 -5 -76 -56 -76 -243c0 -184 -67 -235 -250 -235v19c57 1 70 19 70 216c0 179 113 230 233 252c-120 22 -233 72 -233 252c0 189 -13 210 -70 212z" />
    <glyph glyph-name="asciitilde" unicode="~" horiz-adv-x="681" 
d="M212 405c114 0 186 -97 294 -97c48 0 88 21 110 78l18 -3c-10 -114 -81 -188 -162 -188c-114 0 -186 97 -294 97c-48 0 -88 -21 -110 -78l-18 3c10 114 81 188 162 188z" />
    <glyph glyph-name="uni00A0" unicode="&#xa0;" horiz-adv-x="223" 
 />
    <glyph glyph-name="exclamdown" unicode="&#xa1;" horiz-adv-x="294" 
d="M148 533c63 0 99 -29 99 -86s-36 -86 -99 -86c-64 0 -99 29 -99 86s35 86 99 86zM138 318h18c10 -155 97 -298 97 -386c0 -79 -45 -120 -105 -120c-63 0 -107 44 -107 120c0 84 87 232 97 386z" />
    <glyph glyph-name="cent" unicode="&#xa2;" horiz-adv-x="515" 
d="M464 162l17 -6c-24 -79 -86 -166 -200 -170v-167h-22v167c-127 5 -228 78 -228 273c0 179 98 262 228 273v176h22v-175h7c58 0 105 -14 132 -30c36 -21 60 -58 60 -104c0 -55 -40 -97 -96 -97c-59 0 -92 37 -92 90c0 50 38 88 82 100c-9 7 -22 12 -40 12
c-21 0 -38 -7 -53 -18v-374c20 -13 41 -17 62 -17c27 0 77 6 121 67zM218 273c0 -71 17 -116 41 -142v331c-32 -47 -41 -124 -41 -189z" />
    <glyph glyph-name="sterling" unicode="&#xa3;" horiz-adv-x="699" 
d="M536 256l4 16c64 -11 128 -56 128 -135c0 -95 -58 -151 -179 -151c-94 0 -168 39 -242 56c-14 3 -31 8 -49 8s-36 -3 -55 -10c-26 -38 -57 -54 -85 -54c-13 0 -27 4 -27 20c0 21 27 41 85 52c16 37 18 71 18 132v68v39h-77v20h77v80h-77v20h77v22c0 164 62 297 272 297
c54 0 96 -10 120 -22c36 -19 62 -50 62 -92c0 -49 -35 -87 -88 -87c-55 0 -90 33 -90 80c0 43 24 77 65 92c-14 6 -32 10 -57 10c-79 0 -101 -62 -101 -252v-48h105v-20h-105v-46c0 -12 -1 -23 -2 -34h107v-20h-111c-20 -89 -88 -146 -159 -233c86 78 146 94 193 94
c85 0 118 -25 190 -25c40 0 66 25 66 57c0 37 -26 58 -65 66z" />
    <glyph glyph-name="currency" unicode="&#xa4;" horiz-adv-x="668" 
d="M621 463l-69 -69c12 -29 19 -61 19 -94c0 -34 -7 -65 -20 -94l70 -69l-123 -123l-70 69c-29 -12 -61 -19 -94 -19s-65 7 -93 19l-69 -69l-123 123l68 68c-12 29 -19 61 -19 95c0 33 7 65 19 94l-68 69l123 123l68 -69c29 13 60 20 94 20s66 -8 95 -20l69 69zM336 407
c-52 0 -94 -49 -94 -107s42 -106 94 -106c51 0 93 48 93 106s-42 107 -93 107z" />
    <glyph glyph-name="yen" unicode="&#xa5;" horiz-adv-x="698" 
d="M592 706c26 0 57 1 77 3v-20c-31 -15 -65 -52 -106 -133l-93 -184v-65h115v-20h-115v-80h115v-20h-115v-81c0 -73 11 -83 71 -86v-20c-39 2 -110 3 -172 3c-68 0 -137 -1 -173 -3v20c61 3 71 13 71 86v81h-115v20h115v80h-115v20h106l-176 325c-23 42 -44 56 -58 56v21
c41 -4 84 -6 138 -6c68 0 153 3 220 6v-21c-42 0 -80 -1 -80 -23c0 -4 1 -9 4 -15l143 -275l45 91c33 66 48 115 48 149c0 52 -33 72 -81 74v20c50 -2 85 -3 131 -3z" />
    <glyph glyph-name="brokenbar" unicode="&#xa6;" horiz-adv-x="277" 
d="M199 384h-120v474h120v-474zM199 -195h-120v521h120v-521z" />
    <glyph glyph-name="section" unicode="&#xa7;" horiz-adv-x="629" 
d="M599 290c0 -64 -35 -116 -130 -163c52 -46 76 -87 76 -141c0 -107 -109 -174 -262 -174c-68 0 -113 14 -137 26c-36 19 -59 44 -59 94c0 43 35 81 88 81c55 0 90 -33 90 -80c0 -39 -23 -74 -56 -88c6 -5 34 -14 65 -14c74 0 101 41 101 86c0 80 -49 98 -156 170
c-118 79 -187 127 -187 217c0 64 35 116 130 163c-53 46 -76 87 -76 141c0 107 109 174 262 174c68 0 113 -14 137 -26c36 -19 59 -44 59 -94c0 -43 -35 -81 -88 -81c-55 0 -90 33 -90 80c0 39 23 74 56 88c-6 5 -34 14 -65 14c-74 0 -101 -41 -101 -86
c0 -80 49 -98 156 -170c118 -79 187 -127 187 -217zM350 214c36 -23 67 -45 92 -65c8 14 13 31 13 55c0 55 -35 86 -174 176c-36 24 -68 45 -93 65c-8 -14 -12 -31 -12 -55c0 -55 35 -86 174 -176z" />
    <glyph glyph-name="dieresis" unicode="&#xa8;" horiz-adv-x="390" 
d="M76 772c46 0 87 -41 87 -87c0 -48 -41 -87 -87 -87c-48 0 -87 39 -87 87c0 46 39 87 87 87zM314 772c46 0 87 -41 87 -87c0 -48 -41 -87 -87 -87c-48 0 -87 39 -87 87c0 46 39 87 87 87z" />
    <glyph glyph-name="copyright" unicode="&#xa9;" horiz-adv-x="872" 
d="M436 782c220 0 398 -178 398 -398s-178 -398 -398 -398s-398 178 -398 398s178 398 398 398zM436 750c-198 0 -358 -164 -358 -366s160 -366 358 -366s358 164 358 366s-160 366 -358 366zM462 658c58 0 105 -15 132 -30c35 -22 60 -58 60 -104c0 -55 -40 -97 -96 -97
c-59 0 -92 37 -92 90c0 50 38 88 82 100c-12 8 -34 15 -57 15c-10 0 -20 -1 -30 -4c-42 -13 -69 -65 -69 -230s66 -208 125 -208c27 0 77 9 121 97l17 -6c-25 -81 -90 -170 -209 -170c-134 0 -241 71 -241 273c0 192 112 274 257 274z" />
    <glyph glyph-name="ordfeminine" unicode="&#xaa;" horiz-adv-x="495" 
d="M251 722c121 0 172 -38 172 -127v-172c0 -13 4 -18 15 -18c8 0 15 2 21 7l11 -15c-30 -21 -74 -37 -130 -37c-57 0 -75 18 -77 47c-34 -33 -79 -47 -122 -47c-60 0 -103 24 -103 79s42 79 145 108c38 11 80 30 80 56v18c0 60 -21 82 -58 82c-15 0 -29 -3 -41 -11
c35 -10 50 -40 50 -64c0 -44 -40 -67 -83 -67c-47 0 -78 26 -78 65c0 34 25 59 58 73c39 17 81 23 140 23zM263 425v149c-4 -11 -14 -22 -30 -40c-20 -22 -28 -47 -28 -75c0 -27 13 -44 28 -44c12 0 20 2 30 10z" />
    <glyph glyph-name="guillemotleft" unicode="&#xab;" horiz-adv-x="613" 
d="M328 535l14 -4c-19 -84 -77 -219 -121 -272c44 -53 102 -187 121 -271l-14 -4c-93 96 -189 187 -306 265v20c117 78 213 170 306 266zM544 495l14 -4c-13 -72 -59 -187 -91 -232c32 -45 78 -159 91 -231l-14 -4c-81 80 -165 159 -266 225v20c101 66 185 146 266 226z" />
    <glyph glyph-name="logicalnot" unicode="&#xac;" horiz-adv-x="631" 
d="M569 165h-36v175h-465v30h501v-205z" />
    <glyph glyph-name="softhyphen" unicode="&#xad;" horiz-adv-x="469" 
 />
    <glyph glyph-name="registered" unicode="&#xae;" horiz-adv-x="655" 
d="M328 782c154 0 279 -125 279 -279s-125 -279 -279 -279s-279 125 -279 279s125 279 279 279zM328 256c132 0 237 112 237 247s-105 247 -237 247s-237 -112 -237 -247s105 -247 237 -247zM497 375l6 -11c-12 -10 -31 -17 -58 -17c-47 0 -73 15 -78 45l-13 72
c-5 28 -10 40 -46 44v-104c0 -31 4 -35 23 -37v-15c-19 0 -45 1 -71 1c-29 0 -60 -1 -76 -1v15c19 2 23 6 23 37v219c0 32 -4 36 -23 38v15c16 -1 47 -1 72 -1c37 0 72 1 86 1c93 0 126 -29 126 -79c0 -26 -21 -65 -106 -79c69 -6 88 -23 94 -59l17 -71c2 -13 6 -17 13 -17
c4 0 7 1 11 4zM326 661c-14 0 -18 -6 -18 -25v-110h4c36 0 57 24 57 68c0 43 -15 67 -43 67z" />
    <glyph glyph-name="macron" unicode="&#xaf;" horiz-adv-x="361" 
d="M357 687h-352v25h352v-25z" />
    <glyph glyph-name="degree" unicode="&#xb0;" horiz-adv-x="296" 
d="M148 820c65 0 122 -46 122 -120c0 -75 -57 -121 -122 -121c-64 0 -121 46 -121 121c0 74 57 120 121 120zM148 803c-45 0 -96 -36 -96 -104c0 -70 51 -103 96 -103s97 33 97 103c0 68 -52 104 -97 104z" />
    <glyph glyph-name="plusminus" unicode="&#xb1;" horiz-adv-x="566" 
d="M303 370h232v-30h-232v-235h-36v235h-233v30h233v236h36v-236zM533 0h-501v30h501v-30z" />
    <glyph glyph-name="twosuperior" unicode="&#xb2;" horiz-adv-x="358" 
d="M183 755c66 0 117 -24 117 -74c0 -67 -85 -97 -167 -152h137c32 0 38 11 47 34l17 -3c-9 -51 -14 -88 -15 -125c-12 3 -25 3 -38 3h-260v20c55 49 166 109 166 203c0 30 -20 50 -57 50c-33 0 -61 -13 -83 -44l-15 8c25 41 68 80 151 80z" />
    <glyph glyph-name="threesuperior" unicode="&#xb3;" horiz-adv-x="333" 
d="M173 756c68 0 123 -26 123 -72c0 -47 -49 -81 -133 -95h15c72 0 131 -36 131 -92c0 -100 -155 -139 -290 -149v17c110 16 179 63 179 140c0 39 -19 70 -53 73c-15 -7 -25 -14 -37 -14c-10 0 -15 5 -15 12c0 14 20 15 44 14c37 19 46 53 46 73c0 30 -21 53 -60 53
c-34 0 -65 -19 -83 -48l-15 8c23 42 65 80 148 80z" />
    <glyph glyph-name="acute" unicode="&#xb4;" horiz-adv-x="223" 
d="M203 820c14 -11 21 -28 21 -45c0 -16 -6 -33 -17 -46c-33 -40 -82 -51 -176 -130l-11 9c57 113 49 164 85 204c12 15 33 24 54 24c15 0 31 -5 44 -16z" />
    <glyph glyph-name="paragraph" unicode="&#xb6;" horiz-adv-x="790" 
d="M439 709c83 0 155 -3 224 -3c30 0 58 0 87 2v-19c-57 -3 -67 -24 -67 -68v-696c0 -73 10 -83 71 -86v-20c-47 2 -129 3 -207 3c-68 0 -132 -1 -168 -3v20c84 3 101 25 101 96v52c-330 0 -449 160 -449 373c0 204 152 349 408 349zM481 48v608c-10 0 -48 -128 -52 -280
c-172 0 -309 -20 -309 -25c0 -7 137 -24 309 -24c4 -157 42 -279 52 -279z" />
    <glyph glyph-name="periodcentered" unicode="&#xb7;" horiz-adv-x="288" 
d="M144 376c63 0 99 -29 99 -86s-36 -86 -99 -86c-64 0 -99 29 -99 86s35 86 99 86z" />
    <glyph glyph-name="cedilla" unicode="&#xb8;" horiz-adv-x="228" 
d="M100 0l-17 -60c24 10 49 15 79 15c50 0 74 -25 74 -58c0 -58 -67 -85 -158 -85c-36 0 -68 5 -90 13l6 18c9 -2 28 -5 48 -5c29 0 62 11 62 38c0 18 -11 25 -28 25c-11 0 -24 -2 -33 -7l30 106h27z" />
    <glyph glyph-name="onesuperior" unicode="&#xb9;" horiz-adv-x="296" 
d="M220 753v-246c0 -39 19 -49 67 -49v-21c-25 1 -77 2 -127 2c-51 0 -102 -1 -127 -2v21c46 0 74 10 74 49v129c0 58 -18 65 -81 65v21c92 1 143 9 194 31z" />
    <glyph glyph-name="ordmasculine" unicode="&#xba;" horiz-adv-x="478" 
d="M239 722c123 0 207 -62 207 -181s-84 -181 -207 -181s-207 62 -207 181s84 181 207 181zM239 704c-24 0 -40 -47 -40 -163s16 -163 40 -163s40 47 40 163s-16 163 -40 163z" />
    <glyph glyph-name="guillemotright" unicode="&#xbb;" horiz-adv-x="613" 
d="M272 531l14 4c93 -96 189 -188 306 -266v-20c-117 -78 -213 -169 -306 -265l-14 4c19 84 77 218 121 271c-44 53 -102 188 -121 272zM56 491l14 4c81 -80 165 -160 266 -226v-20c-101 -66 -185 -145 -266 -225l-14 4c13 72 59 186 91 231c-32 45 -78 160 -91 232z" />
    <glyph glyph-name="onequarter" unicode="&#xbc;" horiz-adv-x="720" 
d="M692 811l-585 -866l-19 13l585 866zM48 437v21c46 0 74 10 74 49v129c0 58 -18 65 -81 65v21c92 1 143 9 194 31v-246c0 -39 19 -49 67 -49v-21c-25 1 -77 2 -127 2c-51 0 -102 -1 -127 -2zM569 87h18c32 0 38 11 47 34l17 -3c-9 -26 -13 -85 -14 -103c-12 3 -25 3 -38 3
h-30v-117h-83v117h-197v21l259 279h21v-231zM486 87v141l-131 -141h131z" />
    <glyph glyph-name="onehalf" unicode="&#xbd;" horiz-adv-x="733" 
d="M676 811l-585 -866l-19 13l585 866zM232 753v-246c0 -39 19 -49 67 -49v-21c-25 1 -77 2 -127 2c-51 0 -102 -1 -127 -2v21c46 0 74 10 74 49v129c0 58 -18 65 -81 65v21c92 1 143 9 194 31zM552 318c66 0 117 -24 117 -74c0 -67 -85 -97 -167 -152h137c32 0 38 11 47 34
l17 -3c-9 -51 -14 -88 -15 -125c-12 3 -25 3 -38 3h-260v20c55 49 166 109 166 203c0 30 -20 50 -57 50c-33 0 -61 -13 -83 -44l-15 8c25 41 68 80 151 80z" />
    <glyph glyph-name="threequarters" unicode="&#xbe;" horiz-adv-x="757" 
d="M730 811l-585 -866l-19 13l585 866zM329 497c0 -100 -155 -139 -290 -149v17c110 16 179 63 179 140c0 39 -19 70 -53 73c-15 -7 -25 -14 -37 -14c-10 0 -15 5 -15 12c0 14 20 15 44 14c37 19 46 53 46 73c0 30 -21 53 -60 53c-34 0 -65 -19 -83 -48l-15 8
c23 42 65 80 148 80c68 0 123 -26 123 -72c0 -47 -49 -81 -133 -95h15c72 0 131 -36 131 -92zM614 87h18c32 0 38 11 47 34l17 -3c-9 -26 -13 -85 -14 -103c-12 3 -25 3 -38 3h-30v-117h-83v117h-197v21l259 279h21v-231zM531 87v141l-131 -141h131z" />
    <glyph glyph-name="questiondown" unicode="&#xbf;" horiz-adv-x="536" 
d="M312 534c63 0 99 -29 99 -86s-36 -86 -99 -86c-64 0 -99 29 -99 86s35 86 99 86zM322 325v-140c-99 -49 -116 -116 -116 -194c0 -112 46 -159 111 -159c39 0 67 8 79 19c-43 16 -65 43 -65 88c0 47 38 84 96 84c50 0 82 -38 82 -80c0 -49 -28 -76 -64 -96
c-34 -19 -88 -35 -158 -35c-155 0 -260 68 -260 180c0 103 111 172 275 202v131h20z" />
    <glyph glyph-name="Agrave" unicode="&#xc0;" horiz-adv-x="691" 
d="M194 823c-23 12 -38 35 -38 59c0 9 2 17 6 26c13 26 39 38 64 38c11 0 21 -3 30 -7c49 -23 61 -73 158 -155l-7 -12c-117 36 -167 27 -213 51zM398 708l242 -624c18 -46 41 -63 59 -64v-20c-48 2 -116 3 -182 3c-68 0 -132 -1 -168 -3v20c47 2 70 10 70 37
c0 12 -4 26 -12 47l-59 164h-202l-17 -45c-22 -59 -32 -100 -32 -130c0 -59 37 -71 90 -73v-20c-50 2 -85 3 -131 3c-26 0 -57 -1 -77 -3v20c31 5 60 34 92 117l222 571c16 -1 35 -2 53 -2s36 1 52 2zM341 288l-91 250l-96 -250h187z" />
    <glyph glyph-name="Aacute" unicode="&#xc1;" horiz-adv-x="691" 
d="M486 823c-46 -24 -96 -15 -213 -51l-7 12c97 82 109 132 158 155c9 4 20 7 31 7c24 0 50 -12 63 -38c4 -9 6 -17 6 -26c0 -24 -15 -48 -38 -59zM398 708l242 -624c18 -46 41 -63 59 -64v-20c-48 2 -116 3 -182 3c-68 0 -132 -1 -168 -3v20c47 2 70 10 70 37
c0 12 -4 26 -12 47l-59 164h-202l-17 -45c-22 -59 -32 -100 -32 -130c0 -59 37 -71 90 -73v-20c-50 2 -85 3 -131 3c-26 0 -57 -1 -77 -3v20c31 5 60 34 92 117l222 571c16 -1 35 -2 53 -2s36 1 52 2zM341 288l-91 250l-96 -250h187z" />
    <glyph glyph-name="Acircumflex" unicode="&#xc2;" horiz-adv-x="691" 
d="M327 830c-44 -22 -125 -47 -201 -61l-5 15c87 41 168 108 217 172h18c47 -63 129 -130 217 -172l-5 -15c-92 14 -189 39 -241 61zM398 708l242 -624c18 -46 41 -63 59 -64v-20c-48 2 -116 3 -182 3c-68 0 -132 -1 -168 -3v20c47 2 70 10 70 37c0 12 -4 26 -12 47l-59 164
h-202l-17 -45c-22 -59 -32 -100 -32 -130c0 -59 37 -71 90 -73v-20c-50 2 -85 3 -131 3c-26 0 -57 -1 -77 -3v20c31 5 60 34 92 117l222 571c16 -1 35 -2 53 -2s36 1 52 2zM341 288l-91 250l-96 -250h187z" />
    <glyph glyph-name="Atilde" unicode="&#xc3;" horiz-adv-x="691" 
d="M216 832c-36 0 -68 -16 -97 -54l-14 7c27 109 86 153 149 153c107 0 136 -66 222 -66c36 0 67 15 96 53l14 -7c-27 -109 -86 -153 -148 -153c-108 0 -136 67 -222 67zM398 708l242 -624c18 -46 41 -63 59 -64v-20c-48 2 -116 3 -182 3c-68 0 -132 -1 -168 -3v20
c47 2 70 10 70 37c0 12 -4 26 -12 47l-59 164h-202l-17 -45c-22 -59 -32 -100 -32 -130c0 -59 37 -71 90 -73v-20c-50 2 -85 3 -131 3c-26 0 -57 -1 -77 -3v20c31 5 60 34 92 117l222 571c16 -1 35 -2 53 -2s36 1 52 2zM341 288l-91 250l-96 -250h187z" />
    <glyph glyph-name="Adieresis" unicode="&#xc4;" horiz-adv-x="691" 
d="M218 762c-48 0 -87 39 -87 87c0 46 39 87 87 87c46 0 87 -41 87 -87c0 -48 -41 -87 -87 -87zM476 762c-48 0 -87 39 -87 87c0 46 39 87 87 87c46 0 87 -41 87 -87c0 -48 -41 -87 -87 -87zM398 708l242 -624c18 -46 41 -63 59 -64v-20c-48 2 -116 3 -182 3
c-68 0 -132 -1 -168 -3v20c47 2 70 10 70 37c0 12 -4 26 -12 47l-59 164h-202l-17 -45c-22 -59 -32 -100 -32 -130c0 -59 37 -71 90 -73v-20c-50 2 -85 3 -131 3c-26 0 -57 -1 -77 -3v20c31 5 60 34 92 117l222 571c16 -1 35 -2 53 -2s36 1 52 2zM341 288l-91 250l-96 -250
h187z" />
    <glyph glyph-name="Aring" unicode="&#xc5;" horiz-adv-x="691" 
d="M347 742c-61 0 -116 39 -116 102c0 62 55 101 116 101c62 0 117 -39 117 -101c0 -63 -55 -102 -117 -102zM347 924c-42 0 -88 -29 -88 -81c0 -54 46 -80 88 -80c43 0 90 26 90 80c0 52 -47 81 -90 81zM398 708l242 -624c18 -46 41 -63 59 -64v-20c-48 2 -116 3 -182 3
c-68 0 -132 -1 -168 -3v20c47 2 70 10 70 37c0 12 -4 26 -12 47l-59 164h-202l-17 -45c-22 -59 -32 -100 -32 -130c0 -59 37 -71 90 -73v-20c-50 2 -85 3 -131 3c-26 0 -57 -1 -77 -3v20c31 5 60 34 92 117l222 571c16 -1 35 -2 53 -2s36 1 52 2zM341 288l-91 250l-96 -250
h187z" />
    <glyph glyph-name="AE" unicode="&#xc6;" horiz-adv-x="912" 
d="M862 148c0 -29 0 -90 7 -148c-68 3 -162 3 -229 3c-66 0 -213 0 -320 -3v20c61 3 71 13 71 86v240h-162l-139 -242c-12 -21 -18 -37 -18 -49c0 -24 24 -33 69 -35v-20c-20 2 -55 3 -91 3c-24 0 -51 -1 -67 -3v20c21 1 41 16 69 64l333 576c-9 21 -27 26 -65 28v20
c28 -1 59 -2 91 -2l38 66h24l-38 -66c81 -1 161 -1 205 -1c61 0 147 0 209 3c-5 -59 -7 -119 -7 -148c0 -28 1 -55 3 -72h-23c-21 150 -82 197 -144 197h-13c-59 0 -71 -10 -71 -83v-236h40c69 0 85 78 96 122h23c-3 -40 -3 -67 -3 -88v-44c0 -31 1 -61 6 -132h-23
c-11 59 -30 122 -99 122h-40v-240c0 -73 12 -83 71 -83h33c50 0 126 52 144 217h23c-2 -24 -3 -56 -3 -92zM391 366v236v26l-151 -262h151z" />
    <glyph glyph-name="Ccedilla" unicode="&#xc7;" horiz-adv-x="716" 
d="M639 260h23c0 -131 1 -205 4 -260h-23c-3 41 -10 59 -24 59c-5 0 -13 -3 -21 -8c-47 -33 -94 -62 -172 -65l-14 -46c27 10 55 15 89 15c57 0 84 -25 84 -58c0 -58 -79 -85 -188 -85c-40 0 -76 5 -100 13l6 18c11 -2 34 -5 58 -5c44 0 92 11 92 38c0 18 -19 25 -48 25
c-11 0 -24 -2 -33 -7l27 92c-218 6 -363 138 -363 362s156 374 378 374c88 0 140 -31 184 -65c7 -6 14 -9 20 -9c14 0 22 19 25 60h23c-3 -53 -4 -124 -4 -250h-23c-9 96 -25 159 -92 203c-28 18 -60 30 -93 30c-153 0 -188 -189 -188 -339s35 -339 188 -339
c33 0 65 12 93 30c67 41 83 108 92 217z" />
    <glyph glyph-name="Egrave" unicode="&#xc8;" horiz-adv-x="649" 
d="M167 823c-23 12 -38 35 -38 59c0 9 2 17 6 26c13 26 38 38 63 38c11 0 22 -3 31 -7c49 -23 61 -73 158 -155l-7 -12c-117 36 -167 27 -213 51zM600 168c0 -33 0 -102 7 -168c-68 3 -162 3 -229 3c-72 0 -234 0 -350 -3v20c61 3 71 13 71 86v496c0 73 -11 83 -71 86v20
c116 -3 278 -3 350 -3c61 0 147 0 209 3c-5 -67 -7 -135 -7 -168c0 -28 1 -55 3 -72h-23c-25 166 -102 217 -184 217h-13c-52 0 -61 -8 -61 -63v-256h10c75 0 124 74 136 132h23c-3 -44 -4 -74 -4 -97c0 -17 1 -31 1 -45c0 -33 1 -66 6 -142h-23c-12 74 -64 132 -139 132
h-10v-260c0 -55 9 -63 61 -63h33c66 0 152 56 184 237h23c-2 -24 -3 -56 -3 -92z" />
    <glyph glyph-name="Eacute" unicode="&#xc9;" horiz-adv-x="649" 
d="M459 823c-46 -24 -96 -15 -213 -51l-7 12c97 82 109 132 158 155c9 4 20 7 31 7c24 0 50 -12 63 -38c4 -9 6 -17 6 -26c0 -24 -15 -48 -38 -59zM600 168c0 -33 0 -102 7 -168c-68 3 -162 3 -229 3c-72 0 -234 0 -350 -3v20c61 3 71 13 71 86v496c0 73 -11 83 -71 86v20
c116 -3 278 -3 350 -3c61 0 147 0 209 3c-5 -67 -7 -135 -7 -168c0 -28 1 -55 3 -72h-23c-25 166 -102 217 -184 217h-13c-52 0 -61 -8 -61 -63v-256h10c75 0 124 74 136 132h23c-3 -44 -4 -74 -4 -97c0 -17 1 -31 1 -45c0 -33 1 -66 6 -142h-23c-12 74 -64 132 -139 132
h-10v-260c0 -55 9 -63 61 -63h33c66 0 152 56 184 237h23c-2 -24 -3 -56 -3 -92z" />
    <glyph glyph-name="Ecircumflex" unicode="&#xca;" horiz-adv-x="649" 
d="M300 830c-44 -22 -125 -47 -201 -61l-5 15c87 41 168 108 217 172h18c47 -63 129 -130 217 -172l-5 -15c-92 14 -189 39 -241 61zM600 168c0 -33 0 -102 7 -168c-68 3 -162 3 -229 3c-72 0 -234 0 -350 -3v20c61 3 71 13 71 86v496c0 73 -11 83 -71 86v20
c116 -3 278 -3 350 -3c61 0 147 0 209 3c-5 -67 -7 -135 -7 -168c0 -28 1 -55 3 -72h-23c-25 166 -102 217 -184 217h-13c-52 0 -61 -8 -61 -63v-256h10c75 0 124 74 136 132h23c-3 -44 -4 -74 -4 -97c0 -17 1 -31 1 -45c0 -33 1 -66 6 -142h-23c-12 74 -64 132 -139 132
h-10v-260c0 -55 9 -63 61 -63h33c66 0 152 56 184 237h23c-2 -24 -3 -56 -3 -92z" />
    <glyph glyph-name="Edieresis" unicode="&#xcb;" horiz-adv-x="649" 
d="M191 762c-48 0 -87 39 -87 87c0 46 39 87 87 87c46 0 87 -41 87 -87c0 -48 -41 -87 -87 -87zM449 762c-48 0 -87 39 -87 87c0 46 39 87 87 87c46 0 87 -41 87 -87c0 -48 -41 -87 -87 -87zM600 168c0 -33 0 -102 7 -168c-68 3 -162 3 -229 3c-72 0 -234 0 -350 -3v20
c61 3 71 13 71 86v496c0 73 -11 83 -71 86v20c116 -3 278 -3 350 -3c61 0 147 0 209 3c-5 -67 -7 -135 -7 -168c0 -28 1 -55 3 -72h-23c-25 166 -102 217 -184 217h-13c-52 0 -61 -8 -61 -63v-256h10c75 0 124 74 136 132h23c-3 -44 -4 -74 -4 -97c0 -17 1 -31 1 -45
c0 -33 1 -66 6 -142h-23c-12 74 -64 132 -139 132h-10v-260c0 -55 9 -63 61 -63h33c66 0 152 56 184 237h23c-2 -24 -3 -56 -3 -92z" />
    <glyph glyph-name="Igrave" unicode="&#xcc;" horiz-adv-x="400" 
d="M115 939c49 -23 61 -73 158 -155l-7 -12c-117 36 -167 27 -213 51c-23 12 -38 35 -38 59c0 9 2 17 6 26c13 26 38 38 63 38c11 0 22 -3 31 -7zM373 708v-20c-61 -3 -71 -13 -71 -86v-496c0 -73 11 -83 71 -86v-20c-39 2 -105 3 -167 3c-72 0 -140 -1 -178 -3v20
c61 3 71 13 71 86v496c0 73 -11 83 -71 86v20c38 -2 106 -3 178 -3c62 0 128 1 167 3z" />
    <glyph glyph-name="Iacute" unicode="&#xcd;" horiz-adv-x="400" 
d="M283 939c9 4 20 7 31 7c24 0 50 -12 63 -38c4 -9 6 -17 6 -26c0 -24 -15 -48 -38 -59c-46 -24 -96 -15 -213 -51l-7 12c97 82 109 132 158 155zM373 708v-20c-61 -3 -71 -13 -71 -86v-496c0 -73 11 -83 71 -86v-20c-39 2 -105 3 -167 3c-72 0 -140 -1 -178 -3v20
c61 3 71 13 71 86v496c0 73 -11 83 -71 86v20c38 -2 106 -3 178 -3c62 0 128 1 167 3z" />
    <glyph glyph-name="Icircumflex" unicode="&#xce;" horiz-adv-x="400" 
d="M197 956h18c47 -63 129 -130 217 -172l-5 -15c-92 14 -189 39 -241 61c-44 -22 -125 -47 -201 -61l-5 15c87 41 168 108 217 172zM373 708v-20c-61 -3 -71 -13 -71 -86v-496c0 -73 11 -83 71 -86v-20c-39 2 -105 3 -167 3c-72 0 -140 -1 -178 -3v20c61 3 71 13 71 86v496
c0 73 -11 83 -71 86v20c38 -2 106 -3 178 -3c62 0 128 1 167 3z" />
    <glyph glyph-name="Idieresis" unicode="&#xcf;" horiz-adv-x="400" 
d="M77 936c46 0 87 -41 87 -87c0 -48 -41 -87 -87 -87c-48 0 -87 39 -87 87c0 46 39 87 87 87zM335 936c46 0 87 -41 87 -87c0 -48 -41 -87 -87 -87c-48 0 -87 39 -87 87c0 46 39 87 87 87zM373 708v-20c-61 -3 -71 -13 -71 -86v-496c0 -73 11 -83 71 -86v-20
c-39 2 -105 3 -167 3c-72 0 -140 -1 -178 -3v20c61 3 71 13 71 86v496c0 73 -11 83 -71 86v20c38 -2 106 -3 178 -3c62 0 128 1 167 3z" />
    <glyph glyph-name="Eth" unicode="&#xd0;" horiz-adv-x="811" 
d="M361 708c280 0 413 -123 413 -346c0 -218 -156 -362 -422 -362c-32 0 -104 3 -150 3c-67 0 -136 -1 -174 -3v20c61 3 71 13 71 86v240h-71v20h71v236c0 73 -11 83 -71 86v20c31 -1 84 -3 137 -3h35c49 1 120 3 161 3zM377 18c136 0 187 122 187 340
c0 224 -57 332 -188 332c-61 0 -74 -17 -74 -86v-238h114v-20h-114v-242c0 -70 13 -86 75 -86z" />
    <glyph glyph-name="Ntilde" unicode="&#xd1;" horiz-adv-x="731" 
d="M289 938c107 0 135 -66 221 -66c36 0 68 15 97 53l14 -7c-27 -109 -86 -153 -148 -153c-108 0 -136 67 -222 67c-36 0 -68 -16 -97 -54l-14 7c27 109 86 153 149 153zM708 708v-20c-61 -13 -71 -43 -71 -156v-532c-10 1 -21 1 -33 1s-24 0 -37 -1l-443 484v-288
c0 -134 6 -163 101 -176v-20c-27 2 -75 3 -112 3c-30 0 -63 -1 -83 -3v20c61 13 71 43 71 156v426c0 73 -11 83 -71 86v20c20 -2 53 -3 83 -3c33 0 67 1 92 3l409 -432v236c0 134 -6 163 -101 176v20c27 -2 75 -3 112 -3c30 0 63 1 83 3z" />
    <glyph glyph-name="Ograve" unicode="&#xd2;" horiz-adv-x="827" 
d="M321 939c49 -23 61 -73 158 -155l-7 -12c-117 36 -167 27 -213 51c-23 12 -38 35 -38 59c0 9 2 17 6 26c13 26 39 38 64 38c11 0 21 -3 30 -7zM414 722c226 0 377 -133 377 -362c0 -224 -156 -374 -378 -374c-226 0 -377 133 -377 362c0 224 156 374 378 374zM410 704
c-100 0 -164 -145 -164 -352c0 -213 77 -348 171 -348c100 0 164 145 164 352c0 213 -77 348 -171 348z" />
    <glyph glyph-name="Oacute" unicode="&#xd3;" horiz-adv-x="827" 
d="M489 939c9 4 20 7 31 7c24 0 50 -12 63 -38c4 -9 6 -17 6 -26c0 -24 -15 -48 -38 -59c-46 -24 -96 -15 -213 -51l-7 12c97 82 109 132 158 155zM414 722c226 0 377 -133 377 -362c0 -224 -156 -374 -378 -374c-226 0 -377 133 -377 362c0 224 156 374 378 374zM410 704
c-100 0 -164 -145 -164 -352c0 -213 77 -348 171 -348c100 0 164 145 164 352c0 213 -77 348 -171 348z" />
    <glyph glyph-name="Ocircumflex" unicode="&#xd4;" horiz-adv-x="827" 
d="M403 956h18c47 -63 129 -130 217 -172l-5 -15c-92 14 -189 39 -241 61c-44 -22 -125 -47 -201 -61l-5 15c87 41 168 108 217 172zM414 722c226 0 377 -133 377 -362c0 -224 -156 -374 -378 -374c-226 0 -377 133 -377 362c0 224 156 374 378 374zM410 704
c-100 0 -164 -145 -164 -352c0 -213 77 -348 171 -348c100 0 164 145 164 352c0 213 -77 348 -171 348z" />
    <glyph glyph-name="Otilde" unicode="&#xd5;" horiz-adv-x="827" 
d="M319 938c107 0 136 -66 222 -66c36 0 67 15 96 53l14 -7c-27 -109 -86 -153 -148 -153c-108 0 -136 67 -222 67c-36 0 -68 -16 -97 -54l-14 7c27 109 86 153 149 153zM414 722c226 0 377 -133 377 -362c0 -224 -156 -374 -378 -374c-226 0 -377 133 -377 362
c0 224 156 374 378 374zM410 704c-100 0 -164 -145 -164 -352c0 -213 77 -348 171 -348c100 0 164 145 164 352c0 213 -77 348 -171 348z" />
    <glyph glyph-name="Odieresis" unicode="&#xd6;" horiz-adv-x="827" 
d="M283 936c46 0 87 -41 87 -87c0 -48 -41 -87 -87 -87c-48 0 -87 39 -87 87c0 46 39 87 87 87zM541 936c46 0 87 -41 87 -87c0 -48 -41 -87 -87 -87c-48 0 -87 39 -87 87c0 46 39 87 87 87zM414 722c226 0 377 -133 377 -362c0 -224 -156 -374 -378 -374
c-226 0 -377 133 -377 362c0 224 156 374 378 374zM410 704c-100 0 -164 -145 -164 -352c0 -213 77 -348 171 -348c100 0 164 145 164 352c0 213 -77 348 -171 348z" />
    <glyph glyph-name="multiply" unicode="&#xd7;" horiz-adv-x="481" 
d="M242 377l173 173l22 -22l-173 -172l173 -173l-22 -22l-173 173l-174 -174l-22 22l174 173l-175 175l22 22z" />
    <glyph glyph-name="Oslash" unicode="&#xd8;" horiz-adv-x="827" 
d="M695 770l-67 -100c103 -59 163 -164 163 -310c0 -224 -156 -374 -378 -374c-80 0 -150 16 -208 48l-85 -117l-21 14l84 116c-93 60 -147 163 -147 301c0 224 156 374 378 374c73 0 138 -14 193 -40l69 101zM410 704c-100 0 -164 -145 -164 -352c0 -75 10 -140 26 -193
l269 430c-32 73 -79 115 -131 115zM417 4c100 0 164 145 164 352c0 81 -11 151 -30 206l-269 -433c32 -80 81 -125 135 -125z" />
    <glyph glyph-name="Ugrave" unicode="&#xd9;" horiz-adv-x="692" 
d="M270 939c49 -23 61 -73 158 -155l-7 -12c-117 36 -167 27 -213 51c-23 12 -38 35 -38 59c0 9 2 17 6 26c13 26 38 38 63 38c11 0 22 -3 31 -7zM681 708v-20c-61 -13 -71 -43 -71 -156v-241c0 -83 -9 -159 -41 -212c-35 -58 -100 -93 -215 -93c-61 0 -135 10 -188 48
c-69 50 -82 131 -82 254v314c0 73 -10 83 -71 86v20c38 -2 107 -3 176 -3s138 1 179 3v-20c-68 -3 -81 -13 -81 -86v-408c0 -132 42 -173 125 -173c134 0 175 105 175 259v232c0 134 -6 163 -101 176v20c27 -2 75 -3 112 -3c30 0 63 1 83 3z" />
    <glyph glyph-name="Uacute" unicode="&#xda;" horiz-adv-x="692" 
d="M438 939c9 4 20 7 31 7c24 0 50 -12 63 -38c4 -9 6 -17 6 -26c0 -24 -15 -48 -38 -59c-46 -24 -96 -15 -213 -51l-7 12c97 82 109 132 158 155zM681 708v-20c-61 -13 -71 -43 -71 -156v-241c0 -83 -9 -159 -41 -212c-35 -58 -100 -93 -215 -93c-61 0 -135 10 -188 48
c-69 50 -82 131 -82 254v314c0 73 -10 83 -71 86v20c38 -2 107 -3 176 -3s138 1 179 3v-20c-68 -3 -81 -13 -81 -86v-408c0 -132 42 -173 125 -173c134 0 175 105 175 259v232c0 134 -6 163 -101 176v20c27 -2 75 -3 112 -3c30 0 63 1 83 3z" />
    <glyph glyph-name="Ucircumflex" unicode="&#xdb;" horiz-adv-x="692" 
d="M352 956h18c47 -63 129 -130 217 -172l-5 -15c-92 14 -189 39 -241 61c-44 -22 -125 -47 -201 -61l-5 15c87 41 168 108 217 172zM681 708v-20c-61 -13 -71 -43 -71 -156v-241c0 -83 -9 -159 -41 -212c-35 -58 -100 -93 -215 -93c-61 0 -135 10 -188 48
c-69 50 -82 131 -82 254v314c0 73 -10 83 -71 86v20c38 -2 107 -3 176 -3s138 1 179 3v-20c-68 -3 -81 -13 -81 -86v-408c0 -132 42 -173 125 -173c134 0 175 105 175 259v232c0 134 -6 163 -101 176v20c27 -2 75 -3 112 -3c30 0 63 1 83 3z" />
    <glyph glyph-name="Udieresis" unicode="&#xdc;" horiz-adv-x="692" 
d="M232 936c46 0 87 -41 87 -87c0 -48 -41 -87 -87 -87c-48 0 -87 39 -87 87c0 46 39 87 87 87zM490 936c46 0 87 -41 87 -87c0 -48 -41 -87 -87 -87c-48 0 -87 39 -87 87c0 46 39 87 87 87zM681 708v-20c-61 -13 -71 -43 -71 -156v-241c0 -83 -9 -159 -41 -212
c-35 -58 -100 -93 -215 -93c-61 0 -135 10 -188 48c-69 50 -82 131 -82 254v314c0 73 -10 83 -71 86v20c38 -2 107 -3 176 -3s138 1 179 3v-20c-68 -3 -81 -13 -81 -86v-408c0 -132 42 -173 125 -173c134 0 175 105 175 259v232c0 134 -6 163 -101 176v20
c27 -2 75 -3 112 -3c30 0 63 1 83 3z" />
    <glyph glyph-name="Yacute" unicode="&#xdd;" horiz-adv-x="644" 
d="M487 823c-46 -24 -96 -15 -213 -51l-7 12c97 82 109 132 158 155c9 4 20 7 31 7c24 0 50 -12 63 -38c4 -9 6 -17 6 -26c0 -24 -15 -48 -38 -59zM559 706c26 0 57 1 77 3v-20c-31 -15 -65 -52 -106 -133l-93 -184v-266c0 -73 11 -83 71 -86v-20c-39 2 -110 3 -172 3
c-68 0 -137 -1 -173 -3v20c61 3 71 13 71 86v184l-185 342c-23 42 -44 56 -58 56v21c41 -4 84 -6 138 -6c68 0 153 3 220 6v-21c-42 0 -80 -1 -80 -23c0 -4 1 -9 4 -15l143 -275l45 91c33 66 47 115 47 149c0 52 -32 72 -80 74v20c50 -2 85 -3 131 -3z" />
    <glyph glyph-name="Thorn" unicode="&#xde;" horiz-adv-x="647" 
d="M302 152v-46c0 -73 11 -83 71 -86v-20c-39 2 -105 3 -167 3c-72 0 -140 -1 -178 -3v20c61 3 71 13 71 86v496c0 73 -11 83 -71 86v20c38 -2 106 -3 178 -3c62 0 128 1 167 3v-20c-61 -3 -71 -13 -71 -86v-29h32c203 0 301 -60 301 -190c0 -121 -68 -231 -323 -231h-10z
M309 554h-7v-382c102 0 123 93 123 200c0 119 -30 182 -116 182z" />
    <glyph glyph-name="germandbls" unicode="&#xdf;" horiz-adv-x="705" 
d="M355 782c151 0 233 -67 233 -151c0 -99 -104 -172 -240 -198c232 -26 341 -127 341 -250c0 -130 -120 -197 -249 -197c-87 0 -154 27 -154 114c0 57 31 97 84 97c49 0 80 -34 80 -82c0 -53 -39 -89 -75 -105c8 -4 17 -6 29 -6c70 0 96 76 96 167c0 185 -108 226 -169 249
c-12 -6 -25 -11 -34 -11c-10 0 -20 5 -20 16s8 18 22 18c10 0 25 -4 32 -7c68 44 87 95 87 180c0 103 -28 151 -83 151c-77 0 -81 -65 -81 -234v-544c-41 8 -86 13 -139 14h-21c-21 0 -40 -1 -76 -3v21c41 0 56 16 56 72v419c0 176 96 270 281 270z" />
    <glyph glyph-name="agrave" unicode="&#xe0;" horiz-adv-x="530" 
d="M142 820c13 12 28 16 43 16c21 0 43 -10 55 -24c36 -40 28 -91 85 -204l-11 -9c-94 79 -143 90 -176 130c-11 13 -16 29 -16 45c0 17 6 34 20 46zM272 533c70 0 125 -10 163 -50c28 -29 33 -71 33 -140v-268c0 -32 4 -43 15 -43c12 0 22 8 31 15l10 -17
c-32 -27 -73 -37 -130 -37c-75 0 -102 36 -103 76c-28 -46 -81 -76 -143 -76c-80 0 -126 46 -126 115c0 68 39 112 127 141c78 28 139 48 139 93v89c0 31 -10 82 -74 82c-17 0 -38 -7 -53 -17c43 -16 67 -45 67 -90c0 -47 -38 -84 -96 -84c-50 0 -82 38 -82 87
c0 42 26 73 62 92c41 21 90 32 160 32zM288 90v211c-8 -14 -25 -30 -39 -44c-30 -29 -49 -64 -49 -113c0 -52 22 -71 51 -71c14 0 25 4 37 17z" />
    <glyph glyph-name="aacute" unicode="&#xe1;" horiz-adv-x="530" 
d="M380 820c14 -11 21 -28 21 -45c0 -16 -6 -33 -17 -46c-33 -40 -82 -51 -176 -130l-11 9c57 113 49 164 85 204c12 15 33 24 54 24c15 0 31 -5 44 -16zM272 533c70 0 125 -10 163 -50c28 -29 33 -71 33 -140v-268c0 -32 4 -43 15 -43c12 0 22 8 31 15l10 -17
c-32 -27 -73 -37 -130 -37c-75 0 -102 36 -103 76c-28 -46 -81 -76 -143 -76c-80 0 -126 46 -126 115c0 68 39 112 127 141c78 28 139 48 139 93v89c0 31 -10 82 -74 82c-17 0 -38 -7 -53 -17c43 -16 67 -45 67 -90c0 -47 -38 -84 -96 -84c-50 0 -82 38 -82 87
c0 42 26 73 62 92c41 21 90 32 160 32zM288 90v211c-8 -14 -25 -30 -39 -44c-30 -29 -49 -64 -49 -113c0 -52 22 -71 51 -71c14 0 25 4 37 17z" />
    <glyph glyph-name="acircumflex" unicode="&#xe2;" horiz-adv-x="530" 
d="M260 832h18c41 -79 111 -162 187 -212l-8 -14c-80 14 -162 38 -208 60c-38 -22 -104 -46 -168 -60l-8 14c75 49 144 132 187 212zM272 533c70 0 125 -10 163 -50c28 -29 33 -71 33 -140v-268c0 -32 4 -43 15 -43c12 0 22 8 31 15l10 -17c-32 -27 -73 -37 -130 -37
c-75 0 -102 36 -103 76c-28 -46 -81 -76 -143 -76c-80 0 -126 46 -126 115c0 68 39 112 127 141c78 28 139 48 139 93v89c0 31 -10 82 -74 82c-17 0 -38 -7 -53 -17c43 -16 67 -45 67 -90c0 -47 -38 -84 -96 -84c-50 0 -82 38 -82 87c0 42 26 73 62 92c41 21 90 32 160 32z
M288 90v211c-8 -14 -25 -30 -39 -44c-30 -29 -49 -64 -49 -113c0 -52 22 -71 51 -71c14 0 25 4 37 17z" />
    <glyph glyph-name="atilde" unicode="&#xe3;" horiz-adv-x="530" 
d="M184 798c87 0 111 -66 181 -66c28 0 54 15 77 53l14 -7c-23 -116 -74 -163 -128 -163c-88 0 -112 67 -182 67c-28 0 -54 -16 -77 -54l-14 7c23 116 74 163 129 163zM272 533c70 0 125 -10 163 -50c28 -29 33 -71 33 -140v-268c0 -32 4 -43 15 -43c12 0 22 8 31 15l10 -17
c-32 -27 -73 -37 -130 -37c-75 0 -102 36 -103 76c-28 -46 -81 -76 -143 -76c-80 0 -126 46 -126 115c0 68 39 112 127 141c78 28 139 48 139 93v89c0 31 -10 82 -74 82c-17 0 -38 -7 -53 -17c43 -16 67 -45 67 -90c0 -47 -38 -84 -96 -84c-50 0 -82 38 -82 87
c0 42 26 73 62 92c41 21 90 32 160 32zM288 90v211c-8 -14 -25 -30 -39 -44c-30 -29 -49 -64 -49 -113c0 -52 22 -71 51 -71c14 0 25 4 37 17z" />
    <glyph glyph-name="adieresis" unicode="&#xe4;" horiz-adv-x="530" 
d="M151 772c46 0 87 -41 87 -87c0 -48 -41 -87 -87 -87c-48 0 -87 39 -87 87c0 46 39 87 87 87zM389 772c46 0 87 -41 87 -87c0 -48 -41 -87 -87 -87c-48 0 -87 39 -87 87c0 46 39 87 87 87zM272 533c70 0 125 -10 163 -50c28 -29 33 -71 33 -140v-268c0 -32 4 -43 15 -43
c12 0 22 8 31 15l10 -17c-32 -27 -73 -37 -130 -37c-75 0 -102 36 -103 76c-28 -46 -81 -76 -143 -76c-80 0 -126 46 -126 115c0 68 39 112 127 141c78 28 139 48 139 93v89c0 31 -10 82 -74 82c-17 0 -38 -7 -53 -17c43 -16 67 -45 67 -90c0 -47 -38 -84 -96 -84
c-50 0 -82 38 -82 87c0 42 26 73 62 92c41 21 90 32 160 32zM288 90v211c-8 -14 -25 -30 -39 -44c-30 -29 -49 -64 -49 -113c0 -52 22 -71 51 -71c14 0 25 4 37 17z" />
    <glyph glyph-name="aring" unicode="&#xe5;" horiz-adv-x="530" 
d="M269 801c62 0 117 -39 117 -101c0 -63 -55 -102 -117 -102c-61 0 -116 39 -116 102c0 62 55 101 116 101zM269 780c-42 0 -88 -29 -88 -81c0 -54 46 -80 88 -80c43 0 89 26 89 80c0 52 -46 81 -89 81zM272 533c70 0 125 -10 163 -50c28 -29 33 -71 33 -140v-268
c0 -32 4 -43 15 -43c12 0 22 8 31 15l10 -17c-32 -27 -73 -37 -130 -37c-75 0 -102 36 -103 76c-28 -46 -81 -76 -143 -76c-80 0 -126 46 -126 115c0 68 39 112 127 141c78 28 139 48 139 93v89c0 31 -10 82 -74 82c-17 0 -38 -7 -53 -17c43 -16 67 -45 67 -90
c0 -47 -38 -84 -96 -84c-50 0 -82 38 -82 87c0 42 26 73 62 92c41 21 90 32 160 32zM288 90v211c-8 -14 -25 -30 -39 -44c-30 -29 -49 -64 -49 -113c0 -52 22 -71 51 -71c14 0 25 4 37 17z" />
    <glyph glyph-name="ae" unicode="&#xe6;" horiz-adv-x="730" 
d="M571 95c25 0 71 6 111 67l17 -6c-24 -81 -86 -170 -199 -170c-77 0 -145 28 -185 100c-36 -57 -82 -93 -164 -93c-80 0 -126 46 -126 115c0 68 39 111 127 141c72 27 129 48 129 93v89c0 31 -10 82 -74 82c-17 0 -38 -7 -53 -17c43 -16 67 -45 67 -90
c0 -47 -38 -84 -96 -84c-50 0 -82 38 -82 87c0 42 26 73 62 92c38 20 84 32 136 32c65 0 102 -13 135 -47c39 30 89 47 150 47c111 0 179 -63 179 -224h-239v-36c0 -141 56 -178 105 -178zM519 510c-31 0 -51 -50 -56 -182h96c1 98 -10 182 -40 182zM254 89c21 0 36 3 52 16
c-18 40 -27 91 -27 154c0 14 1 28 2 41v1c-6 -14 -17 -30 -29 -44c-25 -29 -49 -60 -49 -106c0 -36 13 -62 51 -62z" />
    <glyph glyph-name="ccedilla" unicode="&#xe7;" 
d="M271 -14h-15l-13 -46c24 10 49 15 79 15c50 0 74 -25 74 -58c0 -58 -67 -85 -158 -85c-36 0 -69 5 -91 13l7 18c9 -2 28 -5 48 -5c29 0 62 11 62 38c0 18 -11 25 -28 25c-11 0 -24 -2 -33 -7l26 94c-114 14 -199 91 -199 271c0 192 112 274 257 274c58 0 105 -14 132 -30
c36 -21 60 -58 60 -104c0 -55 -40 -97 -96 -97c-59 0 -92 37 -92 90c0 50 38 88 82 100c-9 7 -22 12 -40 12c-95 0 -116 -131 -116 -231c0 -141 66 -178 125 -178c27 0 77 6 121 67l17 -6c-25 -81 -90 -170 -209 -170z" />
    <glyph glyph-name="egrave" unicode="&#xe8;" 
d="M335 608l-11 -9c-94 79 -143 90 -176 130c-11 13 -17 29 -17 45c0 17 7 34 21 46c13 12 28 16 43 16c21 0 43 -10 55 -24c36 -40 28 -91 85 -204zM333 95c27 0 77 6 121 67l17 -6c-25 -81 -90 -170 -209 -170c-128 0 -231 71 -231 273c0 192 112 274 257 274
c117 0 189 -63 189 -224h-258c-1 -12 -1 -24 -1 -36c0 -141 61 -178 115 -178zM281 510c-35 0 -59 -50 -66 -182h116c1 98 -13 182 -50 182z" />
    <glyph glyph-name="eacute" unicode="&#xe9;" 
d="M394 729c-33 -40 -82 -51 -176 -130l-11 9c57 113 49 164 85 204c12 15 33 24 54 24c15 0 31 -5 44 -16c14 -11 21 -28 21 -45c0 -16 -6 -33 -17 -46zM333 95c27 0 77 6 121 67l17 -6c-25 -81 -90 -170 -209 -170c-128 0 -231 71 -231 273c0 192 112 274 257 274
c117 0 189 -63 189 -224h-258c-1 -12 -1 -24 -1 -36c0 -141 61 -178 115 -178zM281 510c-35 0 -59 -50 -66 -182h116c1 98 -13 182 -50 182z" />
    <glyph glyph-name="ecircumflex" unicode="&#xea;" 
d="M259 666c-38 -22 -104 -46 -168 -60l-8 14c75 49 144 132 187 212h18c41 -79 111 -162 187 -212l-8 -14c-80 14 -162 38 -208 60zM333 95c27 0 77 6 121 67l17 -6c-25 -81 -90 -170 -209 -170c-128 0 -231 71 -231 273c0 192 112 274 257 274c117 0 189 -63 189 -224
h-258c-1 -12 -1 -24 -1 -36c0 -141 61 -178 115 -178zM281 510c-35 0 -59 -50 -66 -182h116c1 98 -13 182 -50 182z" />
    <glyph glyph-name="edieresis" unicode="&#xeb;" 
d="M161 598c-48 0 -87 39 -87 87c0 46 39 87 87 87c46 0 87 -41 87 -87c0 -48 -41 -87 -87 -87zM399 598c-48 0 -87 39 -87 87c0 46 39 87 87 87c46 0 87 -41 87 -87c0 -48 -41 -87 -87 -87zM477 309h-258c-1 -12 -1 -24 -1 -36c0 -141 61 -178 115 -178c27 0 77 6 121 67
l17 -6c-25 -81 -90 -170 -209 -170c-128 0 -231 71 -231 273c0 192 112 274 257 274c117 0 189 -63 189 -224zM281 510c-35 0 -59 -50 -66 -182h116c1 98 -13 182 -50 182z" />
    <glyph glyph-name="igrave" unicode="&#xec;" horiz-adv-x="330" 
d="M41 820c13 12 28 16 43 16c21 0 43 -10 55 -24c36 -40 28 -91 85 -204l-11 -9c-94 79 -143 90 -176 130c-11 13 -16 29 -16 45c0 17 6 34 20 46zM257 530v-437c0 -56 15 -72 56 -72v-21c-27 1 -86 4 -142 4s-121 -3 -150 -4v21c41 0 56 16 56 72v317c0 60 -14 88 -56 88
v21c21 -2 42 -3 62 -3c67 0 124 4 174 14z" />
    <glyph glyph-name="iacute" unicode="&#xed;" horiz-adv-x="330" 
d="M279 820c14 -11 21 -28 21 -45c0 -16 -6 -33 -17 -46c-33 -40 -82 -51 -176 -130l-11 9c57 113 49 164 85 204c12 15 33 24 54 24c15 0 31 -5 44 -16zM257 530v-437c0 -56 15 -72 56 -72v-21c-27 1 -86 4 -142 4s-121 -3 -150 -4v21c41 0 56 16 56 72v317
c0 60 -14 88 -56 88v21c21 -2 42 -3 62 -3c67 0 124 4 174 14z" />
    <glyph glyph-name="icircumflex" unicode="&#xee;" horiz-adv-x="330" 
d="M159 832h18c41 -79 111 -162 187 -212l-8 -14c-80 14 -162 38 -208 60c-38 -22 -104 -46 -168 -60l-8 14c75 49 144 132 187 212zM257 530v-437c0 -56 15 -72 56 -72v-21c-27 1 -86 4 -142 4s-121 -3 -150 -4v21c41 0 56 16 56 72v317c0 60 -14 88 -56 88v21
c21 -2 42 -3 62 -3c67 0 124 4 174 14z" />
    <glyph glyph-name="idieresis" unicode="&#xef;" horiz-adv-x="330" 
d="M50 772c46 0 87 -41 87 -87c0 -48 -41 -87 -87 -87c-48 0 -87 39 -87 87c0 46 39 87 87 87zM288 772c46 0 87 -41 87 -87c0 -48 -41 -87 -87 -87c-48 0 -87 39 -87 87c0 46 39 87 87 87zM257 530v-437c0 -56 15 -72 56 -72v-21c-27 1 -86 4 -142 4s-121 -3 -150 -4v21
c41 0 56 16 56 72v317c0 60 -14 88 -56 88v21c21 -2 42 -3 62 -3c67 0 124 4 174 14z" />
    <glyph glyph-name="eth" unicode="&#xf0;" horiz-adv-x="575" 
d="M467 753l-134 -65c125 -87 210 -216 210 -382c0 -223 -99 -322 -254 -322c-153 0 -257 67 -257 265c0 215 111 284 233 284c26 0 49 -4 70 -13c-14 50 -34 96 -66 137l-149 -73l-9 18l144 70c-32 36 -73 67 -127 93l8 17c63 -20 123 -46 177 -81l145 70zM289 4
c40 0 70 74 70 294c0 74 -4 143 -19 205c-10 3 -20 5 -29 5c-62 0 -92 -79 -92 -248c0 -179 30 -256 70 -256z" />
    <glyph glyph-name="ntilde" unicode="&#xf1;" horiz-adv-x="625" 
d="M232 798c87 0 112 -66 182 -66c28 0 54 15 77 53l13 -7c-23 -116 -74 -163 -128 -163c-88 0 -111 67 -181 67c-28 0 -54 -16 -77 -54l-14 7c23 116 73 163 128 163zM416 533c61 0 94 -17 113 -40c20 -24 29 -61 29 -129v-271c0 -56 15 -72 56 -72v-21c-27 1 -88 4 -140 4
c-56 0 -115 -3 -142 -4v21c34 0 46 16 46 72v325c0 42 -14 63 -49 63c-37 0 -72 -30 -72 -72v-316c0 -56 12 -72 46 -72v-21c-25 1 -80 4 -132 4c-56 0 -121 -3 -150 -4v21c41 0 56 16 56 72v317c0 60 -14 88 -56 88v21c21 -2 42 -3 62 -3c67 0 124 4 174 14v-72
c32 53 87 75 159 75z" />
    <glyph glyph-name="ograve" unicode="&#xf2;" horiz-adv-x="576" 
d="M161 820c13 12 28 16 43 16c21 0 43 -10 55 -24c36 -40 28 -91 85 -204l-11 -9c-94 79 -143 90 -176 130c-11 13 -16 29 -16 45c0 17 6 34 20 46zM288 533c155 0 257 -72 257 -274s-102 -273 -257 -273s-257 71 -257 273s102 274 257 274zM288 513
c-40 0 -70 -75 -70 -254s30 -253 70 -253s70 74 70 253s-30 254 -70 254z" />
    <glyph glyph-name="oacute" unicode="&#xf3;" horiz-adv-x="576" 
d="M399 820c14 -11 21 -28 21 -45c0 -16 -6 -33 -17 -46c-33 -40 -82 -51 -176 -130l-11 9c57 113 49 164 85 204c12 15 33 24 54 24c15 0 31 -5 44 -16zM288 533c155 0 257 -72 257 -274s-102 -273 -257 -273s-257 71 -257 273s102 274 257 274zM288 513
c-40 0 -70 -75 -70 -254s30 -253 70 -253s70 74 70 253s-30 254 -70 254z" />
    <glyph glyph-name="ocircumflex" unicode="&#xf4;" horiz-adv-x="576" 
d="M279 832h18c41 -79 111 -162 187 -212l-8 -14c-80 14 -162 38 -208 60c-38 -22 -104 -46 -168 -60l-8 14c75 49 144 132 187 212zM288 533c155 0 257 -72 257 -274s-102 -273 -257 -273s-257 71 -257 273s102 274 257 274zM288 513c-40 0 -70 -75 -70 -254
s30 -253 70 -253s70 74 70 253s-30 254 -70 254z" />
    <glyph glyph-name="otilde" unicode="&#xf5;" horiz-adv-x="576" 
d="M203 798c87 0 111 -66 181 -66c28 0 54 15 77 53l14 -7c-23 -116 -74 -163 -128 -163c-88 0 -112 67 -182 67c-28 0 -54 -16 -77 -54l-14 7c23 116 74 163 129 163zM288 533c155 0 257 -72 257 -274s-102 -273 -257 -273s-257 71 -257 273s102 274 257 274zM288 513
c-40 0 -70 -75 -70 -254s30 -253 70 -253s70 74 70 253s-30 254 -70 254z" />
    <glyph glyph-name="odieresis" unicode="&#xf6;" horiz-adv-x="576" 
d="M170 772c46 0 87 -41 87 -87c0 -48 -41 -87 -87 -87c-48 0 -87 39 -87 87c0 46 39 87 87 87zM408 772c46 0 87 -41 87 -87c0 -48 -41 -87 -87 -87c-48 0 -87 39 -87 87c0 46 39 87 87 87zM288 533c155 0 257 -72 257 -274s-102 -273 -257 -273s-257 71 -257 273
s102 274 257 274zM288 513c-40 0 -70 -75 -70 -254s30 -253 70 -253s70 74 70 253s-30 254 -70 254z" />
    <glyph glyph-name="divide" unicode="&#xf7;" horiz-adv-x="623" 
d="M313 554c31 0 56 -25 56 -55c0 -31 -25 -55 -56 -55c-30 0 -55 24 -55 55c0 30 25 55 55 55zM565 340h-501v30h501v-30zM313 266c31 0 56 -25 56 -55c0 -31 -25 -56 -56 -56c-30 0 -55 25 -55 56c0 30 25 55 55 55z" />
    <glyph glyph-name="oslash" unicode="&#xf8;" horiz-adv-x="576" 
d="M521 579l-64 -93c56 -42 88 -114 88 -227c0 -202 -102 -273 -257 -273c-57 0 -107 10 -147 32l-63 -91l-19 13l62 90c-57 41 -90 114 -90 229c0 202 102 274 257 274c58 0 109 -10 150 -33l64 92zM288 513c-40 0 -70 -75 -70 -254c0 -37 2 -70 4 -98l129 231
c-11 84 -35 121 -63 121zM288 6c40 0 70 74 70 253c0 35 -2 66 -4 93l-128 -231c12 -80 35 -115 62 -115z" />
    <glyph glyph-name="ugrave" unicode="&#xf9;" horiz-adv-x="622" 
d="M168 820c13 12 28 16 43 16c21 0 43 -10 55 -24c36 -40 28 -91 85 -204l-11 -9c-94 79 -143 90 -176 130c-11 13 -17 29 -17 45c0 17 7 34 21 46zM548 530v-421c0 -60 14 -88 56 -88v-21c-21 2 -42 3 -62 3c-67 0 -124 -4 -174 -14v72c-32 -53 -87 -75 -159 -75
c-61 0 -94 17 -113 40c-20 24 -29 61 -29 129v255c0 60 -14 88 -56 88v21c21 -2 42 -3 62 -3c67 0 124 4 174 14v-429c0 -42 14 -63 49 -63c37 0 72 30 72 72v300c0 60 -14 88 -56 88v21c21 -2 42 -3 62 -3c67 0 124 4 174 14z" />
    <glyph glyph-name="uacute" unicode="&#xfa;" horiz-adv-x="622" 
d="M406 820c14 -11 21 -28 21 -45c0 -16 -6 -33 -17 -46c-33 -40 -82 -51 -176 -130l-11 9c57 113 49 164 85 204c12 15 33 24 54 24c15 0 31 -5 44 -16zM548 530v-421c0 -60 14 -88 56 -88v-21c-21 2 -42 3 -62 3c-67 0 -124 -4 -174 -14v72c-32 -53 -87 -75 -159 -75
c-61 0 -94 17 -113 40c-20 24 -29 61 -29 129v255c0 60 -14 88 -56 88v21c21 -2 42 -3 62 -3c67 0 124 4 174 14v-429c0 -42 14 -63 49 -63c37 0 72 30 72 72v300c0 60 -14 88 -56 88v21c21 -2 42 -3 62 -3c67 0 124 4 174 14z" />
    <glyph glyph-name="ucircumflex" unicode="&#xfb;" horiz-adv-x="622" 
d="M286 832h18c41 -79 111 -162 187 -212l-8 -14c-80 14 -162 38 -208 60c-38 -22 -104 -46 -168 -60l-8 14c75 49 144 132 187 212zM548 530v-421c0 -60 14 -88 56 -88v-21c-21 2 -42 3 -62 3c-67 0 -124 -4 -174 -14v72c-32 -53 -87 -75 -159 -75c-61 0 -94 17 -113 40
c-20 24 -29 61 -29 129v255c0 60 -14 88 -56 88v21c21 -2 42 -3 62 -3c67 0 124 4 174 14v-429c0 -42 14 -63 49 -63c37 0 72 30 72 72v300c0 60 -14 88 -56 88v21c21 -2 42 -3 62 -3c67 0 124 4 174 14z" />
    <glyph glyph-name="udieresis" unicode="&#xfc;" horiz-adv-x="622" 
d="M177 772c46 0 87 -41 87 -87c0 -48 -41 -87 -87 -87c-48 0 -87 39 -87 87c0 46 39 87 87 87zM415 772c46 0 87 -41 87 -87c0 -48 -41 -87 -87 -87c-48 0 -87 39 -87 87c0 46 39 87 87 87zM548 530v-421c0 -60 14 -88 56 -88v-21c-21 2 -42 3 -62 3
c-67 0 -124 -4 -174 -14v72c-32 -53 -87 -75 -159 -75c-61 0 -94 17 -113 40c-20 24 -29 61 -29 129v255c0 60 -14 88 -56 88v21c21 -2 42 -3 62 -3c67 0 124 4 174 14v-429c0 -42 14 -63 49 -63c37 0 72 30 72 72v300c0 60 -14 88 -56 88v21c21 -2 42 -3 62 -3
c67 0 124 4 174 14z" />
    <glyph glyph-name="yacute" unicode="&#xfd;" horiz-adv-x="528" 
d="M375 729c-33 -40 -82 -51 -176 -130l-11 9c57 113 49 164 85 204c12 15 33 24 54 24c15 0 31 -5 44 -16c14 -11 21 -28 21 -45c0 -16 -6 -33 -17 -46zM448 515c24 0 62 1 77 4v-21c-25 -9 -49 -32 -71 -97l-125 -372l-42 -121c-12 -34 -25 -57 -44 -72
c-18 -14 -44 -24 -93 -24c-55 0 -136 24 -136 94c0 47 39 77 98 77c55 0 90 -25 90 -74c0 -29 -20 -63 -65 -77c10 -2 26 -2 34 -2c43 0 77 25 95 80l5 16l-233 516c-23 51 -44 56 -58 56v21c53 -4 113 -6 163 -6c62 0 105 3 145 6v-21c-30 0 -60 0 -60 -22
c0 -4 1 -10 4 -16l123 -293l42 128c14 41 19 74 19 102c0 65 -31 98 -73 101v21c28 -3 81 -4 105 -4z" />
    <glyph glyph-name="thorn" unicode="&#xfe;" horiz-adv-x="601" 
d="M395 533c99 0 174 -81 174 -251c0 -227 -108 -296 -233 -296c-34 0 -68 5 -93 19v-83c0 -65 32 -82 86 -82v-21c-37 1 -110 4 -184 4c-54 0 -111 -3 -138 -4v21c41 0 56 16 56 72v750c0 60 -14 88 -56 88v21c21 -2 42 -3 62 -3c67 0 124 4 174 14v-324
c31 51 84 75 152 75zM278 16c74 0 104 81 104 243c0 177 -30 222 -67 222s-72 -30 -72 -72v-385c10 -6 23 -8 35 -8z" />
    <glyph glyph-name="ydieresis" unicode="&#xff;" horiz-adv-x="528" 
d="M142 598c-48 0 -87 39 -87 87c0 46 39 87 87 87c46 0 87 -41 87 -87c0 -48 -41 -87 -87 -87zM380 598c-48 0 -87 39 -87 87c0 46 39 87 87 87c46 0 87 -41 87 -87c0 -48 -41 -87 -87 -87zM448 515c24 0 62 1 77 4v-21c-25 -9 -49 -32 -71 -97l-125 -372l-42 -121
c-12 -34 -25 -57 -44 -72c-18 -14 -44 -24 -93 -24c-55 0 -136 24 -136 94c0 47 39 77 98 77c55 0 90 -25 90 -74c0 -29 -20 -63 -65 -77c10 -2 26 -2 34 -2c43 0 77 25 95 80l5 16l-233 516c-23 51 -44 56 -58 56v21c53 -4 113 -6 163 -6c62 0 105 3 145 6v-21
c-30 0 -60 0 -60 -22c0 -4 1 -10 4 -16l123 -293l42 128c14 41 19 74 19 102c0 65 -31 98 -73 101v21c28 -3 81 -4 105 -4z" />
    <glyph glyph-name="Amacron" unicode="&#x100;" horiz-adv-x="691" 
d="M563 819h-432v25h432v-25zM398 708l242 -624c18 -46 41 -63 59 -64v-20c-48 2 -116 3 -182 3c-68 0 -132 -1 -168 -3v20c47 2 70 10 70 37c0 12 -4 26 -12 47l-59 164h-202l-17 -45c-22 -59 -32 -100 -32 -130c0 -59 37 -71 90 -73v-20c-50 2 -85 3 -131 3
c-26 0 -57 -1 -77 -3v20c31 5 60 34 92 117l222 571c16 -1 35 -2 53 -2s36 1 52 2zM341 288l-91 250l-96 -250h187z" />
    <glyph glyph-name="amacron" unicode="&#x101;" horiz-adv-x="530" 
d="M442 687h-352v25h352v-25zM272 533c70 0 125 -10 163 -50c28 -29 33 -71 33 -140v-268c0 -32 4 -43 15 -43c12 0 22 8 31 15l10 -17c-32 -27 -73 -37 -130 -37c-75 0 -102 36 -103 76c-28 -46 -81 -76 -143 -76c-80 0 -126 46 -126 115c0 68 39 112 127 141
c78 28 139 48 139 93v89c0 31 -10 82 -74 82c-17 0 -38 -7 -53 -17c43 -16 67 -45 67 -90c0 -47 -38 -84 -96 -84c-50 0 -82 38 -82 87c0 42 26 73 62 92c41 21 90 32 160 32zM288 90v211c-8 -14 -25 -30 -39 -44c-30 -29 -49 -64 -49 -113c0 -52 22 -71 51 -71
c14 0 25 4 37 17z" />
    <glyph glyph-name="Abreve" unicode="&#x102;" horiz-adv-x="691" 
d="M337 763c-136 0 -213 79 -239 146l12 11c39 -25 111 -58 227 -58s188 33 227 58l12 -11c-26 -67 -103 -146 -239 -146zM398 708l242 -624c18 -46 41 -63 59 -64v-20c-48 2 -116 3 -182 3c-68 0 -132 -1 -168 -3v20c47 2 70 10 70 37c0 12 -4 26 -12 47l-59 164h-202
l-17 -45c-22 -59 -32 -100 -32 -130c0 -59 37 -71 90 -73v-20c-50 2 -85 3 -131 3c-26 0 -57 -1 -77 -3v20c31 5 60 34 92 117l222 571c16 -1 35 -2 53 -2s36 1 52 2zM341 288l-91 250l-96 -250h187z" />
    <glyph glyph-name="abreve" unicode="&#x103;" horiz-adv-x="530" 
d="M450 788l17 -9c-22 -77 -77 -166 -199 -166s-177 89 -199 166l17 9c31 -25 86 -56 182 -56s151 31 182 56zM272 533c70 0 125 -10 163 -50c28 -29 33 -71 33 -140v-268c0 -32 4 -43 15 -43c12 0 22 8 31 15l10 -17c-32 -27 -73 -37 -130 -37c-75 0 -102 36 -103 76
c-28 -46 -81 -76 -143 -76c-80 0 -126 46 -126 115c0 68 39 112 127 141c78 28 139 48 139 93v89c0 31 -10 82 -74 82c-17 0 -38 -7 -53 -17c43 -16 67 -45 67 -90c0 -47 -38 -84 -96 -84c-50 0 -82 38 -82 87c0 42 26 73 62 92c41 21 90 32 160 32zM288 90v211
c-8 -14 -25 -30 -39 -44c-30 -29 -49 -64 -49 -113c0 -52 22 -71 51 -71c14 0 25 4 37 17z" />
    <glyph glyph-name="Aogonek" unicode="&#x104;" horiz-adv-x="691" 
d="M699 0h-18c-78 -27 -107 -63 -107 -90s13 -38 40 -38c22 0 51 10 66 23l13 -15c-39 -48 -83 -68 -153 -68c-65 0 -99 26 -99 71c0 57 75 97 201 118c-39 1 -82 2 -125 2c-68 0 -132 -1 -168 -3v20c47 2 70 10 70 37c0 12 -4 26 -12 47l-59 164h-202l-17 -45
c-22 -59 -32 -100 -32 -130c0 -59 37 -71 90 -73v-20c-50 2 -85 3 -131 3c-26 0 -57 -1 -77 -3v20c31 5 60 34 92 117l222 571c16 -1 34 -2 53 -2c18 0 36 1 52 2l242 -624c18 -46 41 -63 59 -64v-20zM341 288l-91 250l-96 -250h187z" />
    <glyph glyph-name="aogonek" unicode="&#x105;" horiz-adv-x="530" 
d="M436 -128c22 0 50 10 65 23l13 -15c-39 -48 -83 -68 -153 -68c-65 0 -99 26 -99 71c0 50 50 87 135 110h-3c-75 0 -102 36 -103 76c-28 -46 -81 -76 -143 -76c-80 0 -126 46 -126 115c0 68 39 112 127 141c78 28 139 48 139 93v89c0 31 -10 82 -74 82
c-17 0 -38 -7 -53 -17c43 -16 67 -45 67 -90c0 -47 -38 -84 -96 -84c-50 0 -82 38 -82 87c0 42 26 73 62 92c41 21 90 32 160 32s125 -10 163 -50c28 -29 33 -71 33 -140v-268c0 -32 4 -43 15 -43c12 0 22 8 31 15l10 -17c-13 -11 -28 -20 -45 -26c-4 -2 -9 -5 -16 -8
c-52 -26 -67 -60 -67 -86c0 -27 14 -38 40 -38zM288 90v211c-8 -14 -25 -30 -39 -44c-30 -29 -49 -64 -49 -113c0 -52 22 -71 51 -71c14 0 25 4 37 17z" />
    <glyph glyph-name="Cacute" unicode="&#x106;" horiz-adv-x="716" 
d="M466 939c9 4 20 7 31 7c24 0 50 -12 63 -38c4 -9 6 -17 6 -26c0 -24 -15 -48 -38 -59c-46 -24 -96 -15 -213 -51l-7 12c97 82 109 132 158 155zM414 722c88 0 140 -31 184 -65c7 -6 14 -9 20 -9c14 0 22 19 25 60h23c-3 -53 -4 -124 -4 -250h-23c-9 96 -25 159 -92 203
c-28 18 -60 30 -93 30c-153 0 -188 -189 -188 -339s35 -339 188 -339c33 0 65 12 93 30c67 41 83 108 92 217h23c0 -131 1 -205 4 -260h-23c-3 41 -10 59 -24 59c-5 0 -13 -3 -21 -8c-49 -35 -99 -65 -185 -65c-226 0 -377 133 -377 362c0 224 156 374 378 374z" />
    <glyph glyph-name="cacute" unicode="&#x107;" 
d="M382 820c14 -11 21 -28 21 -45c0 -16 -6 -33 -17 -46c-33 -40 -82 -51 -176 -130l-11 9c57 113 49 164 85 204c12 15 33 24 54 24c15 0 31 -5 44 -16zM287 533c58 0 105 -14 132 -30c36 -21 60 -58 60 -104c0 -55 -40 -97 -96 -97c-59 0 -92 37 -92 90c0 50 38 88 82 100
c-9 7 -22 12 -40 12c-95 0 -116 -131 -116 -231c0 -141 66 -178 125 -178c27 0 77 6 121 67l17 -6c-25 -81 -90 -170 -209 -170c-134 0 -241 71 -241 273c0 192 112 274 257 274z" />
    <glyph glyph-name="Ccircumflex" unicode="&#x108;" horiz-adv-x="716" 
d="M380 956h18c47 -63 129 -130 217 -172l-5 -15c-92 14 -189 39 -241 61c-44 -22 -125 -47 -201 -61l-5 15c87 41 168 108 217 172zM414 722c88 0 140 -31 184 -65c7 -6 14 -9 20 -9c14 0 22 19 25 60h23c-3 -53 -4 -124 -4 -250h-23c-9 96 -25 159 -92 203
c-28 18 -60 30 -93 30c-153 0 -188 -189 -188 -339s35 -339 188 -339c33 0 65 12 93 30c67 41 83 108 92 217h23c0 -131 1 -205 4 -260h-23c-3 41 -10 59 -24 59c-5 0 -13 -3 -21 -8c-49 -35 -99 -65 -185 -65c-226 0 -377 133 -377 362c0 224 156 374 378 374z" />
    <glyph glyph-name="ccircumflex" unicode="&#x109;" 
d="M262 832h18c41 -79 111 -162 187 -212l-8 -14c-80 14 -162 38 -208 60c-38 -22 -104 -46 -168 -60l-8 14c75 49 144 132 187 212zM287 533c58 0 105 -14 132 -30c36 -21 60 -58 60 -104c0 -55 -40 -97 -96 -97c-59 0 -92 37 -92 90c0 50 38 88 82 100c-9 7 -22 12 -40 12
c-95 0 -116 -131 -116 -231c0 -141 66 -178 125 -178c27 0 77 6 121 67l17 -6c-25 -81 -90 -170 -209 -170c-134 0 -241 71 -241 273c0 192 112 274 257 274z" />
    <glyph glyph-name="Cdotaccent" unicode="&#x10a;" horiz-adv-x="716" 
d="M390 932c63 0 99 -29 99 -86s-36 -86 -99 -86c-64 0 -99 29 -99 86s35 86 99 86zM414 722c88 0 140 -31 184 -65c7 -6 14 -9 20 -9c14 0 22 19 25 60h23c-3 -53 -4 -124 -4 -250h-23c-9 96 -25 159 -92 203c-28 18 -60 30 -93 30c-153 0 -188 -189 -188 -339
s35 -339 188 -339c33 0 65 12 93 30c67 41 83 108 92 217h23c0 -131 1 -205 4 -260h-23c-3 41 -10 59 -24 59c-5 0 -13 -3 -21 -8c-49 -35 -99 -65 -185 -65c-226 0 -377 133 -377 362c0 224 156 374 378 374z" />
    <glyph glyph-name="cdotaccent" unicode="&#x10b;" 
d="M271 782c69 0 109 -29 109 -86s-40 -86 -109 -86c-70 0 -109 29 -109 86s39 86 109 86zM287 533c58 0 105 -14 132 -30c36 -21 60 -58 60 -104c0 -55 -40 -97 -96 -97c-59 0 -92 37 -92 90c0 50 38 88 82 100c-9 7 -22 12 -40 12c-95 0 -116 -131 -116 -231
c0 -141 66 -178 125 -178c27 0 77 6 121 67l17 -6c-25 -81 -90 -170 -209 -170c-134 0 -241 71 -241 273c0 192 112 274 257 274z" />
    <glyph glyph-name="Ccaron" unicode="&#x10c;" horiz-adv-x="716" 
d="M607 946l5 -15c-87 -41 -167 -108 -216 -172h-19c-47 63 -129 130 -217 172l6 15c92 -14 188 -39 240 -61c44 22 125 47 201 61zM414 722c88 0 140 -31 184 -65c7 -6 14 -9 20 -9c14 0 22 19 25 60h23c-3 -53 -4 -124 -4 -250h-23c-9 96 -25 159 -92 203
c-28 18 -60 30 -93 30c-153 0 -188 -189 -188 -339s35 -339 188 -339c33 0 65 12 93 30c67 41 83 108 92 217h23c0 -131 1 -205 4 -260h-23c-3 41 -10 59 -24 59c-5 0 -13 -3 -21 -8c-49 -35 -99 -65 -185 -65c-226 0 -377 133 -377 362c0 224 156 374 378 374z" />
    <glyph glyph-name="ccaron" unicode="&#x10d;" 
d="M449 832l8 -14c-75 -49 -144 -132 -187 -212h-18c-41 79 -111 162 -187 212l8 14c80 -14 162 -38 208 -60c38 22 104 46 168 60zM287 533c58 0 105 -14 132 -30c36 -21 60 -58 60 -104c0 -55 -40 -97 -96 -97c-59 0 -92 37 -92 90c0 50 38 88 82 100c-9 7 -22 12 -40 12
c-95 0 -116 -131 -116 -231c0 -141 66 -178 125 -178c27 0 77 6 121 67l17 -6c-25 -81 -90 -170 -209 -170c-134 0 -241 71 -241 273c0 192 112 274 257 274z" />
    <glyph glyph-name="Dcaron" unicode="&#x10e;" horiz-adv-x="811" 
d="M579 946l5 -15c-87 -41 -168 -108 -217 -172h-18c-47 63 -129 130 -217 172l5 15c92 -14 189 -39 241 -61c44 22 125 47 201 61zM361 708c280 0 413 -123 413 -346c0 -218 -156 -362 -422 -362c-32 0 -104 3 -150 3c-67 0 -136 -1 -174 -3v20c61 3 71 13 71 86v496
c0 73 -11 83 -71 86v20c31 -1 84 -3 137 -3h35c49 1 120 3 161 3zM376 690c-61 0 -74 -17 -74 -86v-500c0 -70 13 -86 75 -86c136 0 187 122 187 340c0 224 -57 332 -188 332z" />
    <glyph glyph-name="dcaron" unicode="&#x10f;" horiz-adv-x="608" 
d="M592 563l-14 4c16 90 20 127 20 145c0 26 -3 40 -20 40v21c10 0 19 -1 27 -1c44 0 70 6 99 12c3 -7 5 -29 5 -41c0 -39 -46 -94 -117 -180zM537 782v-672c0 -60 14 -88 56 -88v-21c-21 2 -42 3 -62 3c-67 0 -124 -4 -174 -14v71c-27 -51 -63 -75 -122 -75
c-115 0 -204 81 -204 277c0 181 88 270 222 270c44 0 77 -7 104 -25v154c0 60 -14 88 -56 88v21c21 -2 42 -3 62 -3c67 0 124 4 174 14zM285 38c37 0 72 30 72 72v377c-15 9 -32 13 -47 13c-62 0 -92 -78 -92 -240c0 -177 30 -222 67 -222z" />
    <glyph glyph-name="Dcroat" unicode="&#x110;" horiz-adv-x="811" 
d="M361 708c280 0 413 -123 413 -346c0 -218 -156 -362 -422 -362c-32 0 -104 3 -150 3c-67 0 -136 -1 -174 -3v20c61 3 71 13 71 86v240h-71v20h71v236c0 73 -11 83 -71 86v20c31 -1 84 -3 137 -3h35c49 1 120 3 161 3zM377 18c136 0 187 122 187 340
c0 224 -57 332 -188 332c-61 0 -74 -17 -74 -86v-238h114v-20h-114v-242c0 -70 13 -86 75 -86z" />
    <glyph glyph-name="dcroat" unicode="&#x111;" horiz-adv-x="608" 
d="M537 608v-498c0 -60 14 -88 56 -88v-21c-21 2 -42 3 -62 3c-67 0 -124 -4 -174 -14v71c-27 -51 -63 -75 -122 -75c-115 0 -204 81 -204 277c0 181 88 270 222 270c44 0 77 -7 104 -25v100h-158v20h158v34c0 60 -14 88 -56 88v21c21 -2 42 -3 62 -3c67 0 124 4 174 14
v-154h66v-20h-66zM285 38c37 0 72 30 72 72v377c-15 9 -32 13 -47 13c-62 0 -92 -78 -92 -240c0 -177 30 -222 67 -222z" />
    <glyph glyph-name="Emacron" unicode="&#x112;" horiz-adv-x="649" 
d="M536 819h-432v25h432v-25zM600 168c0 -33 0 -102 7 -168c-68 3 -162 3 -229 3c-72 0 -234 0 -350 -3v20c61 3 71 13 71 86v496c0 73 -11 83 -71 86v20c116 -3 278 -3 350 -3c61 0 147 0 209 3c-5 -67 -7 -135 -7 -168c0 -28 1 -55 3 -72h-23c-25 166 -102 217 -184 217
h-13c-52 0 -61 -8 -61 -63v-256h10c75 0 124 74 136 132h23c-3 -44 -4 -74 -4 -97c0 -17 1 -31 1 -45c0 -33 1 -66 6 -142h-23c-12 74 -64 132 -139 132h-10v-260c0 -55 9 -63 61 -63h33c66 0 152 56 184 237h23c-2 -24 -3 -56 -3 -92z" />
    <glyph glyph-name="emacron" unicode="&#x113;" 
d="M452 687h-352v25h352v-25zM333 95c27 0 77 6 121 67l17 -6c-25 -81 -90 -170 -209 -170c-128 0 -231 71 -231 273c0 192 112 274 257 274c117 0 189 -63 189 -224h-258c-1 -12 -1 -24 -1 -36c0 -141 61 -178 115 -178zM281 510c-35 0 -59 -50 -66 -182h116
c1 98 -13 182 -50 182z" />
    <glyph glyph-name="Ebreve" unicode="&#x114;" horiz-adv-x="649" 
d="M310 763c-136 0 -213 79 -239 146l12 11c39 -25 111 -58 227 -58s188 33 227 58l12 -11c-26 -67 -103 -146 -239 -146zM600 168c0 -33 0 -102 7 -168c-68 3 -162 3 -229 3c-72 0 -234 0 -350 -3v20c61 3 71 13 71 86v496c0 73 -11 83 -71 86v20c116 -3 278 -3 350 -3
c61 0 147 0 209 3c-5 -67 -7 -135 -7 -168c0 -28 1 -55 3 -72h-23c-25 166 -102 217 -184 217h-13c-52 0 -61 -8 -61 -63v-256h10c75 0 124 74 136 132h23c-3 -44 -4 -74 -4 -97c0 -17 1 -31 1 -45c0 -33 1 -66 6 -142h-23c-12 74 -64 132 -139 132h-10v-260
c0 -55 9 -63 61 -63h33c66 0 152 56 184 237h23c-2 -24 -3 -56 -3 -92z" />
    <glyph glyph-name="ebreve" unicode="&#x115;" 
d="M278 613c-122 0 -177 89 -199 166l17 9c31 -25 86 -56 182 -56s151 31 182 56l17 -9c-22 -77 -77 -166 -199 -166zM477 309h-258c-1 -12 -1 -24 -1 -36c0 -141 61 -178 115 -178c27 0 77 6 121 67l17 -6c-25 -81 -90 -170 -209 -170c-128 0 -231 71 -231 273
c0 192 112 274 257 274c117 0 189 -63 189 -224zM281 510c-35 0 -59 -50 -66 -182h116c1 98 -13 182 -50 182z" />
    <glyph glyph-name="Edotaccent" unicode="&#x116;" horiz-adv-x="649" 
d="M321 760c-64 0 -99 29 -99 86s35 86 99 86c63 0 98 -29 98 -86s-35 -86 -98 -86zM600 168c0 -33 0 -102 7 -168c-68 3 -162 3 -229 3c-72 0 -234 0 -350 -3v20c61 3 71 13 71 86v496c0 73 -11 83 -71 86v20c116 -3 278 -3 350 -3c61 0 147 0 209 3
c-5 -67 -7 -135 -7 -168c0 -28 1 -55 3 -72h-23c-25 166 -102 217 -184 217h-13c-52 0 -61 -8 -61 -63v-256h10c75 0 124 74 136 132h23c-3 -44 -4 -74 -4 -97c0 -17 1 -31 1 -45c0 -33 1 -66 6 -142h-23c-12 74 -64 132 -139 132h-10v-260c0 -55 9 -63 61 -63h33
c66 0 152 56 184 237h23c-2 -24 -3 -56 -3 -92z" />
    <glyph glyph-name="edotaccent" unicode="&#x117;" 
d="M279 610c-70 0 -109 29 -109 86s39 86 109 86c69 0 109 -29 109 -86s-40 -86 -109 -86zM333 95c27 0 77 6 121 67l17 -6c-25 -81 -90 -170 -209 -170c-128 0 -231 71 -231 273c0 192 112 274 257 274c117 0 189 -63 189 -224h-258c-1 -12 -1 -24 -1 -36
c0 -141 61 -178 115 -178zM281 510c-35 0 -59 -50 -66 -182h116c1 98 -13 182 -50 182z" />
    <glyph glyph-name="Eogonek" unicode="&#x118;" horiz-adv-x="649" 
d="M596 -105l13 -15c-39 -48 -83 -68 -153 -68c-65 0 -99 26 -99 71c0 57 75 97 200 118c-60 1 -127 2 -179 2c-72 0 -234 0 -350 -3v20c61 3 71 13 71 86v496c0 73 -11 83 -71 86v20c116 -3 278 -3 350 -3c61 0 147 0 209 3c-5 -67 -7 -135 -7 -168c0 -28 1 -55 3 -72h-23
c-25 166 -102 217 -184 217h-13c-52 0 -61 -8 -61 -63v-256h10c75 0 124 74 136 132h23c-3 -44 -4 -74 -4 -97c0 -17 1 -31 1 -45c0 -33 1 -66 6 -142h-23c-12 74 -64 132 -139 132h-10v-260c0 -55 9 -63 61 -63h33c66 0 152 56 184 237h23c-2 -24 -3 -56 -3 -92
c0 -33 0 -102 7 -168h-11c-78 -27 -106 -63 -106 -90s13 -38 40 -38c22 0 51 10 66 23z" />
    <glyph glyph-name="eogonek" unicode="&#x119;" 
d="M333 95c27 0 77 6 121 67l17 -6c-19 -59 -58 -123 -124 -153c-3 -2 -8 -4 -14 -7c-52 -26 -68 -60 -68 -86c0 -27 14 -38 40 -38c22 0 51 10 66 23l13 -15c-39 -48 -83 -68 -153 -68c-65 0 -99 26 -99 71s40 80 111 103c-119 7 -212 81 -212 273s112 274 257 274
c117 0 189 -63 189 -224h-258c-1 -12 -1 -24 -1 -36c0 -141 61 -178 115 -178zM281 510c-35 0 -59 -50 -66 -182h116c1 98 -13 182 -50 182z" />
    <glyph glyph-name="Ecaron" unicode="&#x11a;" horiz-adv-x="649" 
d="M326 759h-18c-47 63 -129 130 -217 172l5 15c92 -14 189 -39 241 -61c44 22 125 47 201 61l5 -15c-87 -41 -168 -108 -217 -172zM600 168c0 -33 0 -102 7 -168c-68 3 -162 3 -229 3c-72 0 -234 0 -350 -3v20c61 3 71 13 71 86v496c0 73 -11 83 -71 86v20
c116 -3 278 -3 350 -3c61 0 147 0 209 3c-5 -67 -7 -135 -7 -168c0 -28 1 -55 3 -72h-23c-25 166 -102 217 -184 217h-13c-52 0 -61 -8 -61 -63v-256h10c75 0 124 74 136 132h23c-3 -44 -4 -74 -4 -97c0 -17 1 -31 1 -45c0 -33 1 -66 6 -142h-23c-12 74 -64 132 -139 132
h-10v-260c0 -55 9 -63 61 -63h33c66 0 152 56 184 237h23c-2 -24 -3 -56 -3 -92z" />
    <glyph glyph-name="ecaron" unicode="&#x11b;" 
d="M278 606h-18c-41 79 -111 162 -187 212l8 14c80 -14 162 -38 208 -60c38 22 104 46 168 60l8 -14c-75 -49 -144 -132 -187 -212zM333 95c27 0 77 6 121 67l17 -6c-25 -81 -90 -170 -209 -170c-128 0 -231 71 -231 273c0 192 112 274 257 274c117 0 189 -63 189 -224h-258
c-1 -12 -1 -24 -1 -36c0 -141 61 -178 115 -178zM281 510c-35 0 -59 -50 -66 -182h116c1 98 -13 182 -50 182z" />
    <glyph glyph-name="Gcircumflex" unicode="&#x11c;" horiz-adv-x="755" 
d="M394 956h18c47 -63 129 -130 217 -172l-5 -15c-92 14 -189 39 -241 61c-44 -22 -125 -47 -201 -61l-5 15c87 41 168 108 217 172zM424 722c93 0 149 -29 194 -65c7 -6 14 -9 20 -9c14 0 21 19 25 60h23c-3 -53 -4 -124 -4 -250h-23c-9 96 -26 158 -92 203
c-28 19 -68 30 -103 30c-154 0 -198 -189 -198 -339c0 -240 64 -346 161 -346c21 0 37 4 49 12c14 10 21 26 21 50v100c0 97 -17 113 -101 116v20c45 -2 131 -3 191 -3c64 0 120 1 154 3v-20c-34 -3 -41 -12 -41 -86v-198h-20c-1 23 -10 57 -31 57c-11 0 -27 -3 -68 -23
c-52 -25 -112 -48 -169 -48c-251 0 -376 134 -376 362c0 224 160 374 388 374z" />
    <glyph glyph-name="gcircumflex" unicode="&#x11d;" horiz-adv-x="560" 
d="M275 666c-38 -22 -104 -46 -168 -60l-8 14c75 49 144 132 187 212h18c30 -72 70 -145 125 -201l-10 -14c-57 14 -110 32 -144 49zM438 564c-9 -16 -13 -31 -13 -57v-3c53 -25 85 -69 85 -131c0 -110 -100 -160 -235 -160c-34 0 -66 4 -95 10c-25 -17 -39 -29 -39 -50
c0 -23 14 -33 36 -33h227c79 0 147 -28 147 -117c0 -101 -94 -211 -296 -211c-184 0 -235 44 -235 83c0 73 124 30 165 79h-33c-40 0 -120 16 -120 104c0 65 35 105 130 150c-74 22 -122 69 -122 145c0 110 100 160 235 160c49 0 93 -6 129 -20c2 65 37 116 103 116
c41 0 76 -19 76 -57c0 -32 -32 -55 -72 -55c-42 0 -64 25 -73 47zM275 231c32 0 51 35 51 142s-19 142 -51 142s-51 -35 -51 -142s19 -142 51 -142zM412 -58c0 20 -11 32 -46 32h-161c-10 -22 -13 -53 -13 -65c0 -50 30 -80 90 -80c78 0 130 46 130 113z" />
    <glyph glyph-name="Gbreve" unicode="&#x11e;" horiz-adv-x="755" 
d="M620 920l12 -11c-26 -67 -103 -146 -239 -146s-213 79 -239 146l12 11c39 -25 111 -58 227 -58s188 33 227 58zM424 722c93 0 149 -29 194 -65c7 -6 14 -9 20 -9c14 0 21 19 25 60h23c-3 -53 -4 -124 -4 -250h-23c-9 96 -26 158 -92 203c-28 19 -68 30 -103 30
c-154 0 -198 -189 -198 -339c0 -240 64 -346 161 -346c21 0 37 4 49 12c14 10 21 26 21 50v100c0 97 -17 113 -101 116v20c45 -2 131 -3 191 -3c64 0 120 1 154 3v-20c-34 -3 -41 -12 -41 -86v-198h-20c-1 23 -10 57 -31 57c-11 0 -27 -3 -68 -23c-52 -25 -112 -48 -169 -48
c-251 0 -376 134 -376 362c0 224 160 374 388 374z" />
    <glyph glyph-name="gbreve" unicode="&#x11f;" horiz-adv-x="560" 
d="M294 613c-122 0 -177 89 -199 166l17 9c31 -25 86 -56 182 -56s151 31 182 56l17 -9c-22 -77 -77 -166 -199 -166zM438 584c-9 -13 -13 -26 -13 -47c0 -12 2 -23 5 -35c49 -26 80 -68 80 -129c0 -110 -100 -160 -235 -160c-34 0 -66 4 -95 10c-25 -17 -39 -29 -39 -50
c0 -23 14 -33 36 -33h227c79 0 147 -28 147 -117c0 -101 -94 -211 -296 -211c-184 0 -235 44 -235 83c0 73 124 30 165 79h-33c-40 0 -120 16 -120 104c0 65 35 105 130 150c-74 22 -122 69 -122 145c0 110 100 160 235 160c50 0 94 -7 131 -21c-1 8 -2 17 -2 25
c0 68 43 122 103 122c41 0 76 -22 76 -67c0 -38 -32 -65 -72 -65c-42 0 -64 30 -73 57zM275 231c32 0 51 35 51 142s-19 142 -51 142s-51 -35 -51 -142s19 -142 51 -142zM412 -58c0 20 -11 32 -46 32h-161c-10 -22 -13 -53 -13 -65c0 -50 30 -80 90 -80c78 0 130 46 130 113
z" />
    <glyph glyph-name="Gdotaccent" unicode="&#x120;" horiz-adv-x="755" 
d="M417 932c63 0 99 -29 99 -86s-36 -86 -99 -86c-64 0 -99 29 -99 86s35 86 99 86zM424 722c93 0 149 -29 194 -65c7 -6 14 -9 20 -9c14 0 21 19 25 60h23c-3 -53 -4 -124 -4 -250h-23c-9 96 -26 158 -92 203c-28 19 -68 30 -103 30c-154 0 -198 -189 -198 -339
c0 -240 64 -346 161 -346c21 0 37 4 49 12c14 10 21 26 21 50v100c0 97 -17 113 -101 116v20c45 -2 131 -3 191 -3c64 0 120 1 154 3v-20c-34 -3 -41 -12 -41 -86v-198h-20c-1 23 -10 57 -31 57c-11 0 -27 -3 -68 -23c-52 -25 -112 -48 -169 -48c-251 0 -376 134 -376 362
c0 224 160 374 388 374z" />
    <glyph glyph-name="gdotaccent" unicode="&#x121;" horiz-adv-x="560" 
d="M285 610c-70 0 -109 29 -109 86s39 86 109 86c69 0 109 -29 109 -86s-40 -86 -109 -86zM402 597c-5 -14 -7 -27 -7 -47c0 -11 2 -23 4 -35c68 -23 111 -70 111 -142c0 -110 -100 -160 -235 -160c-34 0 -66 4 -95 10c-25 -17 -39 -29 -39 -50c0 -23 14 -33 36 -33h227
c79 0 147 -28 147 -117c0 -101 -94 -211 -296 -211c-184 0 -235 44 -235 83c0 73 124 30 165 79h-33c-40 0 -120 16 -120 104c0 65 35 105 130 150c-74 22 -122 69 -122 145c0 110 100 160 235 160c37 0 71 -4 101 -11c-1 9 -2 18 -2 28c0 71 38 132 113 132
c47 0 86 -28 86 -77c0 -44 -36 -75 -82 -75c-42 0 -80 18 -89 67zM275 231c32 0 51 35 51 142s-19 142 -51 142s-51 -35 -51 -142s19 -142 51 -142zM412 -58c0 20 -11 32 -46 32h-161c-10 -22 -13 -53 -13 -65c0 -50 30 -80 90 -80c78 0 130 46 130 113z" />
    <glyph glyph-name="Gcommaaccent" unicode="&#x122;" horiz-adv-x="755" 
d="M424 722c93 0 149 -29 194 -65c7 -6 14 -9 20 -9c14 0 21 19 25 60h23c-3 -53 -4 -124 -4 -250h-23c-9 96 -26 158 -92 203c-28 19 -68 30 -103 30c-154 0 -198 -189 -198 -339c0 -240 64 -346 161 -346c21 0 37 4 49 12c14 10 21 26 21 50v100c0 97 -17 113 -101 116v20
c45 -2 131 -3 191 -3c64 0 120 1 154 3v-20c-34 -3 -41 -12 -41 -86v-198h-20c-1 23 -10 57 -31 57c-11 0 -27 -3 -68 -23c-52 -25 -112 -48 -169 -48c-251 0 -376 134 -376 362c0 224 160 374 388 374zM418 -46c55 0 93 -28 93 -82c0 -67 -46 -115 -135 -117l-2 22
c57 7 84 21 92 50c-10 -9 -25 -15 -53 -15c-53 0 -84 23 -84 69c0 47 31 73 89 73z" />
    <glyph glyph-name="gcommaaccent" unicode="&#x123;" horiz-adv-x="560" 
d="M284 620c-53 0 -93 28 -93 82c0 67 46 115 135 117l2 -22c-57 -7 -84 -21 -92 -50c10 9 25 15 53 15c53 0 84 -23 84 -69c0 -47 -31 -73 -89 -73zM400 590c-5 -14 -7 -32 -7 -52c0 -7 1 -14 1 -21c71 -23 116 -70 116 -144c0 -110 -100 -160 -235 -160
c-34 0 -66 4 -95 10c-25 -17 -39 -29 -39 -50c0 -23 14 -33 36 -33h227c79 0 147 -28 147 -117c0 -101 -94 -211 -296 -211c-184 0 -235 44 -235 83c0 73 124 30 165 79h-33c-40 0 -120 16 -120 104c0 65 35 105 130 150c-74 22 -122 69 -122 145c0 110 100 160 235 160
c36 0 69 -4 98 -11c0 5 -1 11 -1 16c0 74 33 132 113 132c47 0 86 -24 86 -67c0 -38 -36 -65 -82 -65c-47 0 -72 19 -89 52zM275 231c32 0 51 35 51 142s-19 142 -51 142s-51 -35 -51 -142s19 -142 51 -142zM412 -58c0 20 -11 32 -46 32h-161c-10 -22 -13 -53 -13 -65
c0 -50 30 -80 90 -80c78 0 130 46 130 113z" />
    <glyph glyph-name="Hcircumflex" unicode="&#x124;" horiz-adv-x="829" 
d="M408 956h18c47 -63 129 -130 217 -172l-5 -15c-92 14 -189 39 -241 61c-44 -22 -125 -47 -201 -61l-5 15c87 41 168 108 217 172zM801 708v-20c-61 -3 -71 -13 -71 -86v-496c0 -73 11 -83 71 -86v-20c-36 2 -100 3 -168 3c-66 0 -136 -1 -177 -3v20c61 3 71 13 71 86v240
h-225v-240c0 -73 11 -83 71 -86v-20c-39 2 -105 3 -167 3c-72 0 -140 -1 -178 -3v20c61 3 71 13 71 86v496c0 73 -11 83 -71 86v20c38 -2 106 -3 178 -3c62 0 128 1 167 3v-20c-61 -3 -71 -13 -71 -86v-236h225v236c0 73 -11 83 -71 86v20c41 -2 111 -3 177 -3
c68 0 132 1 168 3z" />
    <glyph glyph-name="hcircumflex" unicode="&#x125;" horiz-adv-x="622" 
d="M290 1020h18c47 -63 129 -130 217 -172l-5 -15c-92 14 -189 39 -241 61c-44 -22 -125 -47 -201 -61l-5 15c87 41 168 108 217 172zM254 782v-324c32 53 87 75 159 75c61 0 94 -17 113 -40c20 -24 29 -61 29 -129v-271c0 -56 15 -72 56 -72v-21c-27 1 -88 4 -140 4
c-56 0 -115 -3 -142 -4v21c34 0 46 16 46 72v325c0 42 -14 63 -49 63c-37 0 -72 -30 -72 -72v-316c0 -56 12 -72 46 -72v-21c-25 1 -80 4 -132 4c-56 0 -121 -3 -150 -4v21c41 0 56 16 56 72v569c0 60 -14 88 -56 88v21c21 -2 42 -3 62 -3c67 0 124 4 174 14z" />
    <glyph glyph-name="Hbar" unicode="&#x126;" horiz-adv-x="829" 
d="M801 708v-20c-61 -3 -71 -13 -71 -86v-69h71v-20h-71v-407c0 -73 11 -83 71 -86v-20c-36 2 -100 3 -168 3c-66 0 -136 -1 -177 -3v20c61 3 71 13 71 86v240h-225v-240c0 -73 11 -83 71 -86v-20c-39 2 -105 3 -167 3c-72 0 -140 -1 -178 -3v20c61 3 71 13 71 86v407h-71
v20h71v69c0 73 -11 83 -71 86v20c38 -2 106 -3 178 -3c62 0 128 1 167 3v-20c-61 -3 -71 -13 -71 -86v-69h225v69c0 73 -11 83 -71 86v20c41 -2 111 -3 177 -3c68 0 132 1 168 3zM527 513h-225v-147h225v147z" />
    <glyph glyph-name="hbar" unicode="&#x127;" horiz-adv-x="622" 
d="M555 364v-271c0 -56 15 -72 56 -72v-21c-27 1 -88 4 -140 4c-56 0 -115 -3 -142 -4v21c34 0 46 16 46 72v325c0 42 -14 63 -49 63c-37 0 -72 -30 -72 -72v-316c0 -56 12 -72 46 -72v-21c-25 1 -80 4 -132 4c-56 0 -121 -3 -150 -4v21c41 0 56 16 56 72v515h-66v20h66v34
c0 60 -14 88 -56 88v21c21 -2 42 -3 62 -3c67 0 124 4 174 14v-154h141v-20h-141v-150c32 53 87 75 159 75c61 0 94 -17 113 -40c20 -24 29 -61 29 -129z" />
    <glyph glyph-name="Itilde" unicode="&#x128;" horiz-adv-x="400" 
d="M113 938c107 0 135 -66 221 -66c36 0 68 15 97 53l14 -7c-27 -109 -86 -153 -148 -153c-108 0 -136 67 -222 67c-36 0 -68 -16 -97 -54l-14 7c27 109 86 153 149 153zM373 708v-20c-61 -3 -71 -13 -71 -86v-496c0 -73 11 -83 71 -86v-20c-39 2 -105 3 -167 3
c-72 0 -140 -1 -178 -3v20c61 3 71 13 71 86v496c0 73 -11 83 -71 86v20c38 -2 106 -3 178 -3c62 0 128 1 167 3z" />
    <glyph glyph-name="itilde" unicode="&#x129;" horiz-adv-x="330" 
d="M83 798c87 0 111 -66 181 -66c28 0 54 15 77 53l13 -7c-23 -116 -73 -163 -127 -163c-88 0 -112 67 -182 67c-28 0 -54 -16 -77 -54l-14 7c23 116 74 163 129 163zM257 530v-437c0 -56 15 -72 56 -72v-21c-27 1 -86 4 -142 4s-121 -3 -150 -4v21c41 0 56 16 56 72v317
c0 60 -14 88 -56 88v21c21 -2 42 -3 62 -3c67 0 124 4 174 14z" />
    <glyph glyph-name="Imacron" unicode="&#x12a;" horiz-adv-x="400" 
d="M422 819h-432v25h432v-25zM373 708v-20c-61 -3 -71 -13 -71 -86v-496c0 -73 11 -83 71 -86v-20c-39 2 -105 3 -167 3c-72 0 -140 -1 -178 -3v20c61 3 71 13 71 86v496c0 73 -11 83 -71 86v20c38 -2 106 -3 178 -3c62 0 128 1 167 3z" />
    <glyph glyph-name="imacron" unicode="&#x12b;" horiz-adv-x="330" 
d="M323 687h-332v25h332v-25zM257 530v-437c0 -56 15 -72 56 -72v-21c-27 1 -86 4 -142 4s-121 -3 -150 -4v21c41 0 56 16 56 72v317c0 60 -14 88 -56 88v21c21 -2 42 -3 62 -3c67 0 124 4 174 14z" />
    <glyph glyph-name="Ibreve" unicode="&#x12c;" horiz-adv-x="400" 
d="M423 920l12 -11c-26 -67 -103 -146 -239 -146s-213 79 -239 146l12 11c39 -25 111 -58 227 -58s188 33 227 58zM373 708v-20c-61 -3 -71 -13 -71 -86v-496c0 -73 11 -83 71 -86v-20c-39 2 -105 3 -167 3c-72 0 -140 -1 -178 -3v20c61 3 71 13 71 86v496
c0 73 -11 83 -71 86v20c38 -2 106 -3 178 -3c62 0 128 1 167 3z" />
    <glyph glyph-name="ibreve" unicode="&#x12d;" horiz-adv-x="330" 
d="M349 788l17 -9c-22 -77 -77 -166 -199 -166s-177 89 -199 166l17 9c31 -25 86 -56 182 -56s151 31 182 56zM257 530v-437c0 -56 15 -72 56 -72v-21c-27 1 -86 4 -142 4s-121 -3 -150 -4v21c41 0 56 16 56 72v317c0 60 -14 88 -56 88v21c21 -2 42 -3 62 -3
c67 0 124 4 174 14z" />
    <glyph glyph-name="Iogonek" unicode="&#x12e;" horiz-adv-x="400" 
d="M373 708v-20c-61 -3 -71 -13 -71 -86v-496c0 -73 11 -83 71 -86v-20l-25 1c-79 -27 -107 -64 -107 -91s13 -38 40 -38c22 0 51 10 66 23l13 -15c-39 -48 -83 -68 -153 -68c-65 0 -99 26 -99 71c0 57 76 98 203 119c-32 0 -69 1 -105 1c-72 0 -140 -1 -178 -3v20
c61 3 71 13 71 86v496c0 73 -11 83 -71 86v20c38 -2 106 -3 178 -3c62 0 128 1 167 3z" />
    <glyph glyph-name="iogonek" unicode="&#x12f;" horiz-adv-x="330" 
d="M162 610c-70 0 -109 29 -109 86s39 86 109 86c69 0 109 -29 109 -86s-40 -86 -109 -86zM321 -105l13 -15c-39 -48 -83 -68 -153 -68c-65 0 -99 26 -99 71c0 58 64 98 174 119c-26 0 -56 2 -85 2c-56 0 -121 -3 -150 -4v21c41 0 56 16 56 72v317c0 60 -14 88 -56 88v21
c21 -2 42 -3 62 -3c67 0 124 4 174 14v-437c0 -56 15 -72 56 -72v-21l-21 1c-2 -1 -6 -3 -9 -5c-52 -26 -68 -60 -68 -86c0 -27 14 -38 40 -38c22 0 51 10 66 23z" />
    <glyph glyph-name="Idotaccent" unicode="&#x130;" horiz-adv-x="400" 
d="M206 976c69 0 109 -29 109 -86s-40 -86 -109 -86c-70 0 -109 29 -109 86s39 86 109 86zM373 708v-20c-61 -3 -71 -13 -71 -86v-496c0 -73 11 -83 71 -86v-20c-39 2 -105 3 -167 3c-72 0 -140 -1 -178 -3v20c61 3 71 13 71 86v496c0 73 -11 83 -71 86v20
c38 -2 106 -3 178 -3c62 0 128 1 167 3z" />
    <glyph glyph-name="dotlessi" unicode="&#x131;" horiz-adv-x="330" 
d="M257 530v-437c0 -56 15 -72 56 -72v-21c-27 1 -86 4 -142 4s-121 -3 -150 -4v21c41 0 56 16 56 72v317c0 60 -14 88 -56 88v21c21 -2 42 -3 62 -3c67 0 124 4 174 14z" />
    <glyph glyph-name="IJ" unicode="&#x132;" horiz-adv-x="797" 
d="M373 708v-20c-61 -3 -71 -13 -71 -86v-496c0 -73 11 -83 71 -86v-20c-39 2 -105 3 -167 3c-72 0 -140 -1 -178 -3v20c61 3 71 13 71 86v496c0 73 -11 83 -71 86v20c38 -2 106 -3 178 -3c62 0 128 1 167 3zM776 708v-20c-61 -3 -71 -13 -71 -86v-366c0 -25 1 -54 1 -82
c0 -64 -3 -131 -18 -179c-30 -92 -132 -163 -281 -163c-35 0 -81 4 -112 19c-36 18 -50 43 -50 75c0 47 39 77 98 77c55 0 90 -25 90 -74c0 -29 -17 -60 -58 -75c6 -1 12 -1 18 -1c45 0 75 29 88 63c21 58 21 111 21 249v457c0 73 -11 83 -71 86v20c36 -2 100 -3 168 -3
c66 0 136 1 177 3z" />
    <glyph glyph-name="ij" unicode="&#x133;" horiz-adv-x="609" 
d="M151 782c69 0 109 -29 109 -86s-40 -86 -109 -86c-70 0 -109 29 -109 86s39 86 109 86zM453 782c69 0 109 -29 109 -86s-40 -86 -109 -86c-70 0 -109 29 -109 86s39 86 109 86zM548 530v-447c0 -185 -68 -271 -275 -271c-85 0 -155 21 -155 82c0 36 35 69 104 69
c58 0 104 -22 104 -65c0 -34 -29 -57 -68 -66c12 -1 19 -1 24 -1c65 0 86 39 86 124v106c-32 -53 -87 -75 -159 -75c-61 0 -94 17 -113 40c-20 24 -29 61 -29 129v255c0 60 -14 88 -56 88v21c21 -2 42 -3 62 -3c67 0 124 4 174 14v-429c0 -42 14 -63 49 -63
c37 0 72 30 72 72v300c0 60 -14 88 -56 88v21c21 -2 42 -3 62 -3c67 0 124 4 174 14z" />
    <glyph glyph-name="Jcircumflex" unicode="&#x134;" horiz-adv-x="390" 
d="M182 956h18c47 -63 129 -130 217 -172l-5 -15c-92 14 -189 39 -241 61c-44 -22 -125 -47 -201 -61l-5 15c87 41 168 108 217 172zM368 708v-20c-61 -3 -71 -13 -71 -86v-366v-82c0 -64 -2 -131 -17 -179c-30 -92 -132 -163 -281 -163c-35 0 -81 4 -112 19
c-36 18 -50 43 -50 75c0 47 39 77 98 77c55 0 90 -25 90 -74c0 -29 -17 -60 -58 -75c6 -1 12 -1 18 -1c45 0 75 29 88 63c21 58 21 111 21 249v457c0 73 -11 83 -71 86v20c36 -2 100 -3 168 -3c66 0 136 1 177 3z" />
    <glyph glyph-name="jcircumflex" unicode="&#x135;" horiz-adv-x="316" 
d="M144 832h18c41 -79 111 -162 187 -212l-8 -14c-80 14 -162 38 -208 60c-38 -22 -104 -46 -168 -60l-8 14c75 49 144 132 187 212zM254 530v-450c0 -118 -19 -173 -71 -218c-33 -29 -91 -50 -189 -50c-35 0 -73 3 -111 20c-32 14 -51 42 -51 74c0 47 39 77 98 77
c55 0 90 -25 90 -74c0 -29 -17 -60 -58 -75c9 -1 19 -2 27 -2c27 0 54 11 67 32c18 30 18 83 18 216v330c0 60 -14 88 -56 88v21c21 -2 42 -3 62 -3c67 0 124 4 174 14z" />
    <glyph glyph-name="Kcommaaccent" unicode="&#x136;" horiz-adv-x="753" 
d="M477 468l232 -387c17 -28 31 -45 61 -61v-20c-56 2 -123 3 -180 3c-31 0 -74 0 -143 -3v20c42 2 57 6 57 19c0 6 -4 15 -10 26l-145 245c-19 32 -28 41 -47 44v-248c0 -73 11 -83 71 -86v-20c-39 2 -105 3 -167 3c-72 0 -140 -1 -178 -3v20c61 3 71 13 71 86v496
c0 73 -11 83 -71 86v20c38 -2 106 -3 178 -3c62 0 128 1 167 3v-20c-61 -3 -71 -13 -71 -86v-226c55 4 99 39 171 119l34 38c31 35 44 66 44 90c0 40 -36 64 -82 66v19c56 -2 94 -3 169 -3c43 0 74 1 101 3v-19c-45 -12 -101 -39 -164 -110zM431 -46c55 0 93 -28 93 -82
c0 -67 -46 -115 -135 -117l-2 22c57 7 84 21 92 50c-10 -9 -25 -15 -53 -15c-53 0 -84 23 -84 69c0 47 31 73 89 73z" />
    <glyph glyph-name="kcommaaccent" unicode="&#x137;" horiz-adv-x="608" 
d="M412 375l159 -302c11 -20 21 -42 40 -52v-21c-23 1 -75 4 -121 4c-54 0 -114 -3 -141 -4v21c20 0 29 7 29 19c0 5 -2 9 -4 15l-88 186c-8 16 -18 21 -32 22v-170c0 -56 15 -72 56 -72v-21c-27 1 -86 4 -142 4s-121 -3 -150 -4v21c41 0 56 16 56 72v569
c0 60 -14 88 -56 88v21c21 -2 42 -3 62 -3c67 0 124 4 174 14v-500c16 0 31 3 43 15l77 72c24 23 35 45 35 65c0 35 -34 61 -80 65v20c38 -2 88 -3 120 -3c41 0 111 1 137 3v-20c-48 -13 -98 -48 -148 -98zM347 -45c53 0 93 -28 93 -82c0 -67 -46 -115 -135 -117l-2 22
c57 7 84 21 92 50c-10 -9 -25 -15 -53 -15c-53 0 -84 23 -84 69c0 47 31 73 89 73z" />
    <glyph glyph-name="kgreenlandic" unicode="&#x138;" horiz-adv-x="608" 
d="M411 358l153 -285c15 -31 28 -48 50 -52v-21c-23 1 -75 4 -121 4c-50 0 -106 -3 -131 -4v21c20 0 29 7 29 19c0 4 -2 9 -4 15l-98 181c-8 16 -18 21 -32 22v-165c0 -56 15 -72 56 -72v-21c-27 1 -86 4 -142 4s-121 -3 -150 -4v21c41 0 56 16 56 72v317
c0 60 -14 88 -56 88v21c21 -2 42 -3 62 -3c67 0 124 4 174 14v-253c44 2 68 20 94 52l76 89c11 13 16 26 16 38c0 23 -22 41 -64 43v20c35 -2 74 -3 103 -3c41 0 81 1 107 3v-20c-54 -6 -79 -19 -103 -49z" />
    <glyph glyph-name="Lacute" unicode="&#x139;" horiz-adv-x="625" 
d="M283 939c9 4 20 7 31 7c24 0 50 -12 63 -38c4 -9 6 -17 6 -26c0 -24 -15 -48 -38 -59c-46 -24 -96 -15 -213 -51l-7 12c97 82 109 132 158 155zM383 708v-20c-68 -3 -81 -13 -81 -86v-516c0 -55 8 -63 51 -63h33c70 0 171 118 194 247h23c-2 -24 -3 -56 -3 -92
c0 -35 0 -108 7 -178c-68 3 -162 3 -229 3c-72 0 -234 0 -350 -3v20c61 3 71 13 71 86v496c0 73 -11 83 -71 86v20c38 -2 106 -3 178 -3c66 0 136 1 177 3z" />
    <glyph glyph-name="lacute" unicode="&#x13a;" horiz-adv-x="328" 
d="M239 1003c9 4 20 7 31 7c24 0 50 -12 63 -38c4 -9 6 -17 6 -26c0 -24 -15 -48 -38 -59c-46 -24 -96 -15 -213 -51l-7 12c97 82 109 132 158 155zM254 782v-689c0 -56 15 -72 56 -72v-21c-27 1 -86 4 -142 4s-121 -3 -150 -4v21c41 0 56 16 56 72v569c0 60 -14 88 -56 88
v21c21 -2 42 -3 62 -3c67 0 124 4 174 14z" />
    <glyph glyph-name="Lcommaaccent" unicode="&#x13b;" horiz-adv-x="625" 
d="M383 708v-20c-68 -3 -81 -13 -81 -86v-516c0 -55 8 -63 51 -63h33c70 0 171 118 194 247h23c-2 -24 -3 -56 -3 -92c0 -35 0 -108 7 -178c-68 3 -162 3 -229 3c-72 0 -234 0 -350 -3v20c61 3 71 13 71 86v496c0 73 -11 83 -71 86v20c38 -2 106 -3 178 -3c66 0 136 1 177 3
zM367 -46c55 0 93 -28 93 -82c0 -67 -46 -115 -135 -117l-2 22c57 7 84 21 92 50c-10 -9 -25 -15 -53 -15c-53 0 -84 23 -84 69c0 47 31 73 89 73z" />
    <glyph glyph-name="lcommaaccent" unicode="&#x13c;" horiz-adv-x="328" 
d="M254 782v-689c0 -56 15 -72 56 -72v-21c-27 1 -86 4 -142 4s-121 -3 -150 -4v21c41 0 56 16 56 72v569c0 60 -14 88 -56 88v21c21 -2 42 -3 62 -3c67 0 124 4 174 14zM160 -45c53 0 93 -28 93 -82c0 -67 -46 -115 -135 -117l-2 22c57 7 84 21 92 50
c-10 -9 -25 -15 -53 -15c-53 0 -84 23 -84 69c0 47 31 73 89 73z" />
    <glyph glyph-name="Lcaron" unicode="&#x13d;" horiz-adv-x="625" 
d="M574 714c3 -7 5 -24 5 -36c0 -43 -54 -104 -137 -200l-14 4c16 102 20 145 20 165c0 26 -5 40 -30 40v21c23 -1 43 -2 61 -2c39 0 65 3 95 8zM383 708v-20c-68 -3 -81 -13 -81 -86v-516c0 -55 8 -63 51 -63h33c70 0 171 118 194 247h23c-2 -24 -3 -56 -3 -92
c0 -35 0 -108 7 -178c-68 3 -162 3 -229 3c-72 0 -234 0 -350 -3v20c61 3 71 13 71 86v496c0 73 -11 83 -71 86v20c38 -2 106 -3 178 -3c66 0 136 1 177 3z" />
    <glyph glyph-name="lcaron" unicode="&#x13e;" horiz-adv-x="328" 
d="M422 784c3 -7 5 -29 5 -41c0 -39 -46 -94 -117 -180l-14 4c16 90 20 127 20 145c0 26 -3 40 -20 40v21c10 0 20 -1 28 -1c44 0 69 6 98 12zM254 782v-689c0 -56 15 -72 56 -72v-21c-27 1 -86 4 -142 4s-121 -3 -150 -4v21c41 0 56 16 56 72v569c0 60 -14 88 -56 88v21
c21 -2 42 -3 62 -3c67 0 124 4 174 14z" />
    <glyph glyph-name="Ldot" unicode="&#x13f;" horiz-adv-x="683" 
d="M383 708v-20c-68 -3 -81 -13 -81 -86v-516c0 -55 8 -63 51 -63h33c70 0 171 118 194 247h23c-2 -24 -3 -56 -3 -92c0 -35 0 -108 7 -178c-68 3 -162 3 -229 3c-72 0 -234 0 -350 -3v20c61 3 71 13 71 86v496c0 73 -11 83 -71 86v20c38 -2 106 -3 178 -3c66 0 136 1 177 3
zM565 464c63 0 99 -29 99 -86s-36 -86 -99 -86c-64 0 -99 29 -99 86s35 86 99 86z" />
    <glyph glyph-name="ldot" unicode="&#x140;" horiz-adv-x="550" 
d="M254 782v-689c0 -56 15 -72 56 -72v-21c-27 1 -86 4 -142 4s-121 -3 -150 -4v21c41 0 56 16 56 72v569c0 60 -14 88 -56 88v21c21 -2 42 -3 62 -3c67 0 124 4 174 14zM442 403c63 0 99 -29 99 -86s-36 -86 -99 -86c-64 0 -99 29 -99 86s35 86 99 86z" />
    <glyph glyph-name="Lslash" unicode="&#x141;" horiz-adv-x="625" 
d="M600 178c0 -35 0 -108 7 -178c-68 3 -162 3 -229 3c-72 0 -234 0 -350 -3v20c61 3 71 13 71 86v137l-71 -41v23l71 41v336c0 73 -11 83 -71 86v20c38 -2 106 -3 178 -3c66 0 136 1 177 3v-20c-68 -3 -81 -13 -81 -86v-228l171 99v-23l-171 -99v-265c0 -55 8 -63 51 -63
h33c70 0 171 118 194 247h23c-2 -24 -3 -56 -3 -92z" />
    <glyph glyph-name="lslash" unicode="&#x142;" horiz-adv-x="328" 
d="M254 422v-329c0 -56 15 -72 56 -72v-21c-27 1 -86 4 -142 4s-121 -3 -150 -4v21c41 0 56 16 56 72v224l-86 -75v30l86 75v315c0 60 -14 88 -56 88v21c21 -2 42 -3 62 -3c67 0 124 4 174 14v-330l86 76v-30z" />
    <glyph glyph-name="Nacute" unicode="&#x143;" horiz-adv-x="731" 
d="M459 939c9 4 20 7 31 7c24 0 50 -12 63 -38c4 -9 6 -17 6 -26c0 -24 -15 -48 -38 -59c-46 -24 -96 -15 -213 -51l-7 12c97 82 109 132 158 155zM708 708v-20c-61 -13 -71 -43 -71 -156v-532c-10 1 -21 1 -33 1s-24 0 -37 -1l-443 484v-288c0 -134 6 -163 101 -176v-20
c-27 2 -75 3 -112 3c-30 0 -63 -1 -83 -3v20c61 13 71 43 71 156v426c0 73 -11 83 -71 86v20c20 -2 53 -3 83 -3c33 0 67 1 92 3l409 -432v236c0 134 -6 163 -101 176v20c27 -2 75 -3 112 -3c30 0 63 1 83 3z" />
    <glyph glyph-name="nacute" unicode="&#x144;" horiz-adv-x="625" 
d="M429 820c14 -11 21 -28 21 -45c0 -16 -6 -33 -17 -46c-33 -40 -82 -51 -176 -130l-11 9c57 113 49 164 85 204c12 15 33 24 54 24c15 0 31 -5 44 -16zM416 533c61 0 94 -17 113 -40c20 -24 29 -61 29 -129v-271c0 -56 15 -72 56 -72v-21c-27 1 -88 4 -140 4
c-56 0 -115 -3 -142 -4v21c34 0 46 16 46 72v325c0 42 -14 63 -49 63c-37 0 -72 -30 -72 -72v-316c0 -56 12 -72 46 -72v-21c-25 1 -80 4 -132 4c-56 0 -121 -3 -150 -4v21c41 0 56 16 56 72v317c0 60 -14 88 -56 88v21c21 -2 42 -3 62 -3c67 0 124 4 174 14v-72
c32 53 87 75 159 75z" />
    <glyph glyph-name="Ncommaaccent" unicode="&#x145;" horiz-adv-x="731" 
d="M708 708v-20c-61 -13 -71 -43 -71 -156v-532c-10 1 -21 1 -33 1s-24 0 -37 -1l-443 484v-288c0 -134 6 -163 101 -176v-20c-27 2 -75 3 -112 3c-30 0 -63 -1 -83 -3v20c61 13 71 43 71 156v426c0 73 -11 83 -71 86v20c20 -2 53 -3 83 -3c33 0 67 1 92 3l409 -432v236
c0 134 -6 163 -101 176v20c27 -2 75 -3 112 -3c30 0 63 1 83 3zM374 -46c55 0 93 -28 93 -82c0 -67 -46 -115 -135 -117l-2 22c57 7 84 21 92 50c-10 -9 -25 -15 -53 -15c-53 0 -84 23 -84 69c0 47 31 73 89 73z" />
    <glyph glyph-name="ncommaaccent" unicode="&#x146;" horiz-adv-x="625" 
d="M416 533c61 0 94 -17 113 -40c20 -24 29 -61 29 -129v-271c0 -56 15 -72 56 -72v-21c-27 1 -88 4 -140 4c-56 0 -115 -3 -142 -4v21c34 0 46 16 46 72v325c0 42 -14 63 -49 63c-37 0 -72 -30 -72 -72v-316c0 -56 12 -72 46 -72v-21c-25 1 -80 4 -132 4
c-56 0 -121 -3 -150 -4v21c41 0 56 16 56 72v317c0 60 -14 88 -56 88v21c21 -2 42 -3 62 -3c67 0 124 4 174 14v-72c32 53 87 75 159 75zM326 -45c53 0 93 -28 93 -82c0 -67 -46 -115 -135 -117l-2 22c57 7 84 21 92 50c-10 -9 -25 -15 -53 -15c-53 0 -84 23 -84 69
c0 47 31 73 89 73z" />
    <glyph glyph-name="Ncaron" unicode="&#x147;" horiz-adv-x="731" 
d="M600 946l5 -15c-87 -41 -168 -108 -217 -172h-18c-47 63 -129 130 -217 172l5 15c92 -14 189 -39 241 -61c44 22 125 47 201 61zM708 708v-20c-61 -13 -71 -43 -71 -156v-532c-10 1 -21 1 -33 1s-24 0 -37 -1l-443 484v-288c0 -134 6 -163 101 -176v-20
c-27 2 -75 3 -112 3c-30 0 -63 -1 -83 -3v20c61 13 71 43 71 156v426c0 73 -11 83 -71 86v20c20 -2 53 -3 83 -3c33 0 67 1 92 3l409 -432v236c0 134 -6 163 -101 176v20c27 -2 75 -3 112 -3c30 0 63 1 83 3z" />
    <glyph glyph-name="ncaron" unicode="&#x148;" horiz-adv-x="625" 
d="M496 832l8 -14c-75 -49 -144 -132 -187 -212h-18c-41 79 -111 162 -187 212l8 14c80 -14 162 -38 208 -60c38 22 104 46 168 60zM416 533c61 0 94 -17 113 -40c20 -24 29 -61 29 -129v-271c0 -56 15 -72 56 -72v-21c-27 1 -88 4 -140 4c-56 0 -115 -3 -142 -4v21
c34 0 46 16 46 72v325c0 42 -14 63 -49 63c-37 0 -72 -30 -72 -72v-316c0 -56 12 -72 46 -72v-21c-25 1 -80 4 -132 4c-56 0 -121 -3 -150 -4v21c41 0 56 16 56 72v317c0 60 -14 88 -56 88v21c21 -2 42 -3 62 -3c67 0 124 4 174 14v-72c32 53 87 75 159 75z" />
    <glyph glyph-name="napostrophe" unicode="&#x149;" horiz-adv-x="625" 
d="M558 364v-271c0 -56 15 -72 56 -72v-21c-27 1 -88 4 -140 4c-56 0 -115 -3 -142 -4v21c34 0 46 16 46 72v325c0 42 -14 63 -49 63c-37 0 -72 -30 -72 -72v-316c0 -56 12 -72 46 -72v-21c-25 1 -80 4 -132 4c-56 0 -121 -3 -150 -4v21c41 0 56 16 56 72v317
c0 60 -14 88 -56 88v1c-8 -5 -15 -9 -24 -13l-9 18c35 16 65 49 75 82c3 11 5 22 5 33c0 7 -1 15 -2 22c-17 -20 -42 -31 -73 -31c-53 0 -88 31 -88 86c0 52 38 86 94 86c35 0 63 -13 79 -37c14 -19 25 -54 25 -95c0 -50 -19 -98 -58 -133c13 0 26 -1 38 -1
c67 0 124 4 174 14v-72c32 53 87 75 159 75c61 0 94 -17 113 -40c20 -24 29 -61 29 -129z" />
    <glyph glyph-name="Eng" unicode="&#x14a;" horiz-adv-x="729" 
d="M623 705c30 0 63 1 83 3v-20c-60 -3 -71 -13 -71 -86v-556c0 -191 -52 -234 -147 -234c-76 0 -133 28 -133 92c0 50 39 79 98 79c55 0 90 -26 90 -72c0 -32 -17 -63 -58 -78c6 -1 12 -1 18 -1c71 0 104 51 108 169c-14 0 -29 0 -46 -1l-443 484v-378c0 -73 13 -83 81 -86
v-20c-24 2 -58 3 -92 3c-30 0 -63 -1 -83 -3v20c60 3 71 13 71 86v496c0 73 -11 83 -71 86v20c20 -2 53 -3 83 -3c33 0 67 1 92 3l409 -432v326c0 73 -13 83 -81 86v20c24 -2 58 -3 92 -3z" />
    <glyph glyph-name="eng" unicode="&#x14b;" horiz-adv-x="615" 
d="M416 533c61 0 94 -17 113 -40c20 -24 29 -61 29 -129v-284c0 -118 -21 -171 -71 -218c-30 -28 -77 -50 -192 -50c-46 0 -167 8 -167 78c0 35 35 73 104 73c58 0 104 -22 104 -65c0 -34 -28 -54 -67 -63c12 -2 23 -2 30 -2c34 0 55 20 67 49c11 26 12 92 12 151v47v338
c0 42 -14 63 -49 63c-37 0 -72 -30 -72 -72v-316c0 -56 12 -72 46 -72v-21c-25 1 -80 4 -132 4c-56 0 -121 -3 -150 -4v21c41 0 56 16 56 72v317c0 60 -14 88 -56 88v21c21 -2 42 -3 62 -3c67 0 124 4 174 14v-72c32 53 87 75 159 75z" />
    <glyph glyph-name="Omacron" unicode="&#x14c;" horiz-adv-x="827" 
d="M628 819h-432v25h432v-25zM414 722c226 0 377 -133 377 -362c0 -224 -156 -374 -378 -374c-226 0 -377 133 -377 362c0 224 156 374 378 374zM410 704c-100 0 -164 -145 -164 -352c0 -213 77 -348 171 -348c100 0 164 145 164 352c0 213 -77 348 -171 348z" />
    <glyph glyph-name="omacron" unicode="&#x14d;" horiz-adv-x="576" 
d="M461 687h-352v25h352v-25zM288 533c155 0 257 -72 257 -274s-102 -273 -257 -273s-257 71 -257 273s102 274 257 274zM288 513c-40 0 -70 -75 -70 -254s30 -253 70 -253s70 74 70 253s-30 254 -70 254z" />
    <glyph glyph-name="Obreve" unicode="&#x14e;" horiz-adv-x="827" 
d="M629 920l12 -11c-26 -67 -103 -146 -239 -146s-213 79 -239 146l12 11c39 -25 111 -58 227 -58s188 33 227 58zM414 722c226 0 377 -133 377 -362c0 -224 -156 -374 -378 -374c-226 0 -377 133 -377 362c0 224 156 374 378 374zM410 704c-100 0 -164 -145 -164 -352
c0 -213 77 -348 171 -348c100 0 164 145 164 352c0 213 -77 348 -171 348z" />
    <glyph glyph-name="obreve" unicode="&#x14f;" horiz-adv-x="576" 
d="M469 788l17 -9c-22 -77 -77 -166 -199 -166s-177 89 -199 166l17 9c31 -25 86 -56 182 -56s151 31 182 56zM288 533c155 0 257 -72 257 -274s-102 -273 -257 -273s-257 71 -257 273s102 274 257 274zM288 513c-40 0 -70 -75 -70 -254s30 -253 70 -253s70 74 70 253
s-30 254 -70 254z" />
    <glyph glyph-name="Ohungarumlaut" unicode="&#x150;" horiz-adv-x="827" 
d="M360 943c12 8 24 12 38 12c22 0 44 -10 58 -31c7 -11 11 -23 11 -35c0 -21 -11 -40 -32 -54c-35 -23 -87 -26 -182 -63l-10 11c67 82 82 134 117 160zM587 943c12 8 24 12 38 12c22 0 44 -10 58 -31c7 -11 11 -23 11 -35c0 -21 -11 -40 -32 -54c-35 -23 -87 -26 -182 -63
l-10 11c67 82 82 134 117 160zM414 722c226 0 377 -133 377 -362c0 -224 -156 -374 -378 -374c-226 0 -377 133 -377 362c0 224 156 374 378 374zM410 704c-100 0 -164 -145 -164 -352c0 -213 77 -348 171 -348c100 0 164 145 164 352c0 213 -77 348 -171 348z" />
    <glyph glyph-name="ohungarumlaut" unicode="&#x151;" horiz-adv-x="576" 
d="M313 817c18 -13 27 -31 27 -50c0 -13 -4 -27 -12 -40c-23 -35 -70 -58 -143 -129l-13 6c29 102 23 156 45 193c12 20 34 32 57 32c13 0 27 -4 39 -12zM490 817c19 -13 28 -30 28 -50c0 -13 -5 -27 -13 -40c-23 -35 -70 -58 -143 -129l-13 6c29 102 23 156 45 193
c12 20 34 32 57 32c13 0 27 -4 39 -12zM288 533c155 0 257 -72 257 -274s-102 -273 -257 -273s-257 71 -257 273s102 274 257 274zM288 513c-40 0 -70 -75 -70 -254s30 -253 70 -253s70 74 70 253s-30 254 -70 254z" />
    <glyph glyph-name="OE" unicode="&#x152;" horiz-adv-x="1040" 
d="M990 148c0 -29 0 -90 7 -148c-68 3 -162 3 -229 3c-58 0 -171 0 -277 -1c-25 -9 -57 -16 -88 -16c-220 0 -367 133 -367 362c0 224 152 374 368 374c30 0 60 -6 87 -16c107 -1 219 -1 277 -1c61 0 147 0 209 3c-5 -59 -7 -119 -7 -148c0 -28 1 -55 3 -72h-23
c-21 150 -82 197 -144 197h-13c-59 0 -71 -10 -71 -83v-236h40c69 0 85 78 96 122h23c-3 -40 -4 -67 -4 -88c0 -17 1 -30 1 -44c0 -31 1 -61 6 -132h-23c-11 59 -30 122 -99 122h-40v-240c0 -73 12 -83 71 -83h33c50 0 126 52 144 217h23c-2 -24 -3 -56 -3 -92zM519 86v526
c0 77 -77 92 -119 92c-94 0 -154 -145 -154 -352c0 -213 72 -348 161 -348c45 0 112 24 112 82z" />
    <glyph glyph-name="oe" unicode="&#x153;" horiz-adv-x="799" 
d="M650 95c23 0 65 6 101 67l17 -6c-23 -81 -82 -170 -189 -170c-58 0 -109 19 -146 66c-37 -47 -90 -66 -155 -66c-149 0 -247 71 -247 273s98 274 247 274c66 0 121 -21 157 -70c38 48 91 70 150 70c117 0 189 -63 189 -224h-238c0 -12 -1 -24 -1 -36
c0 -141 61 -178 115 -178zM278 6c40 0 70 74 70 251c0 181 -30 256 -70 256c-34 0 -60 -75 -60 -254s26 -253 60 -253zM578 510c-24 0 -42 -50 -46 -182h96c1 98 -13 182 -50 182z" />
    <glyph glyph-name="Racute" unicode="&#x154;" horiz-adv-x="721" 
d="M481 823c-46 -24 -96 -15 -213 -51l-7 12c97 82 109 132 158 155c9 4 20 7 31 7c24 0 50 -12 63 -38c4 -9 6 -17 6 -26c0 -24 -15 -48 -38 -59zM733 53l13 -13c-41 -41 -89 -54 -150 -54c-87 0 -142 26 -154 108l-15 100c-12 82 -29 142 -80 142h-45v-230
c0 -73 11 -83 71 -86v-20c-39 2 -105 3 -167 3c-72 0 -140 -1 -178 -3v20c61 3 71 13 71 86v496c0 73 -11 83 -71 86v20c38 -2 108 -3 172 -3c67 0 135 2 161 2c203 0 301 -56 301 -174c0 -88 -54 -175 -245 -194c137 -8 203 -48 219 -130l21 -104c10 -50 22 -65 45 -65
c13 0 22 4 31 13zM356 688c-45 0 -54 -17 -54 -86v-246h27c102 0 123 74 123 166c0 105 -25 166 -96 166z" />
    <glyph glyph-name="racute" unicode="&#x155;" horiz-adv-x="480" 
d="M350 820c14 -11 21 -28 21 -45c0 -16 -6 -33 -17 -46c-33 -40 -82 -51 -176 -130l-11 9c57 113 49 164 85 204c12 15 33 24 54 24c15 0 31 -5 44 -16zM386 533c72 0 92 -55 92 -101c0 -60 -37 -98 -92 -98c-59 0 -89 29 -89 72c0 45 21 73 51 93c-11 0 -22 -2 -32 -7
c-33 -14 -59 -49 -59 -89v-300c0 -64 25 -82 86 -82v-21c-31 1 -98 4 -162 4c-60 0 -129 -3 -160 -4v21c41 0 56 16 56 72v317c0 60 -14 88 -56 88v21c21 -2 42 -3 62 -3c67 0 124 4 174 14v-72c26 51 71 75 129 75z" />
    <glyph glyph-name="Rcommaaccent" unicode="&#x156;" horiz-adv-x="721" 
d="M733 53l13 -13c-41 -41 -89 -54 -150 -54c-87 0 -142 26 -154 108l-15 100c-12 82 -29 142 -80 142h-45v-230c0 -73 11 -83 71 -86v-20c-39 2 -105 3 -167 3c-72 0 -140 -1 -178 -3v20c61 3 71 13 71 86v496c0 73 -11 83 -71 86v20c38 -2 108 -3 172 -3c67 0 135 2 161 2
c203 0 301 -56 301 -174c0 -88 -54 -175 -245 -194c137 -8 203 -48 219 -130l21 -104c10 -50 22 -65 45 -65c13 0 22 4 31 13zM356 688c-45 0 -54 -17 -54 -86v-246h27c102 0 123 74 123 166c0 105 -25 166 -96 166zM382 -46c55 0 93 -28 93 -82c0 -67 -46 -115 -135 -117
l-2 22c57 7 84 21 92 50c-10 -9 -25 -15 -53 -15c-53 0 -84 23 -84 69c0 47 31 73 89 73z" />
    <glyph glyph-name="rcommaaccent" unicode="&#x157;" horiz-adv-x="480" 
d="M386 533c72 0 92 -55 92 -101c0 -60 -37 -98 -92 -98c-59 0 -89 29 -89 72c0 45 21 73 51 93c-11 0 -22 -2 -32 -7c-33 -14 -59 -49 -59 -89v-300c0 -64 25 -82 86 -82v-21c-31 1 -98 4 -162 4c-60 0 -129 -3 -160 -4v21c41 0 56 16 56 72v317c0 60 -14 88 -56 88v21
c21 -2 42 -3 62 -3c67 0 124 4 174 14v-72c26 51 71 75 129 75zM172 -45c53 0 93 -28 93 -82c0 -67 -46 -115 -135 -117l-2 22c57 7 84 21 92 50c-10 -9 -25 -15 -53 -15c-53 0 -84 23 -84 69c0 47 31 73 89 73z" />
    <glyph glyph-name="Rcaron" unicode="&#x158;" horiz-adv-x="721" 
d="M348 759h-18c-47 63 -129 130 -217 172l5 15c92 -14 189 -39 241 -61c44 22 125 47 201 61l5 -15c-87 -41 -168 -108 -217 -172zM733 53l13 -13c-41 -41 -89 -54 -150 -54c-87 0 -142 26 -154 108l-15 100c-12 82 -29 142 -80 142h-45v-230c0 -73 11 -83 71 -86v-20
c-39 2 -105 3 -167 3c-72 0 -140 -1 -178 -3v20c61 3 71 13 71 86v496c0 73 -11 83 -71 86v20c38 -2 108 -3 172 -3c67 0 135 2 161 2c203 0 301 -56 301 -174c0 -88 -54 -175 -245 -194c137 -8 203 -48 219 -130l21 -104c10 -50 22 -65 45 -65c13 0 22 4 31 13zM356 688
c-45 0 -54 -17 -54 -86v-246h27c102 0 123 74 123 166c0 105 -25 166 -96 166z" />
    <glyph glyph-name="rcaron" unicode="&#x159;" horiz-adv-x="480" 
d="M417 832l8 -14c-75 -49 -144 -132 -187 -212h-18c-41 79 -111 162 -187 212l8 14c80 -14 162 -38 208 -60c38 22 104 46 168 60zM386 533c72 0 92 -55 92 -101c0 -60 -37 -98 -92 -98c-59 0 -89 29 -89 72c0 45 21 73 51 93c-11 0 -22 -2 -32 -7c-33 -14 -59 -49 -59 -89
v-300c0 -64 25 -82 86 -82v-21c-31 1 -98 4 -162 4c-60 0 -129 -3 -160 -4v21c41 0 56 16 56 72v317c0 60 -14 88 -56 88v21c21 -2 42 -3 62 -3c67 0 124 4 174 14v-72c26 51 71 75 129 75z" />
    <glyph glyph-name="Sacute" unicode="&#x15a;" horiz-adv-x="612" 
d="M390 939c9 4 20 7 31 7c24 0 50 -12 63 -38c4 -9 6 -17 6 -26c0 -24 -15 -48 -38 -59c-46 -24 -96 -15 -213 -51l-7 12c97 82 109 132 158 155zM302 722c86 0 128 -21 162 -40c16 -9 25 -14 34 -14c13 0 18 15 22 44h23c-3 -43 -5 -94 -5 -244h-23
c-7 110 -70 227 -174 227c-59 0 -102 -33 -102 -93c0 -74 50 -104 176 -192c89 -62 162 -117 162 -226c0 -135 -126 -198 -272 -198c-91 0 -140 19 -177 37c-16 10 -26 14 -34 14c-13 0 -18 -15 -22 -44h-23c3 51 4 119 4 290h23c8 -141 54 -267 182 -267
c73 0 120 36 120 98c0 83 -61 131 -146 188c-95 63 -178 121 -178 231c0 131 119 189 248 189z" />
    <glyph glyph-name="sacute" unicode="&#x15b;" horiz-adv-x="472" 
d="M347 820c14 -11 21 -28 21 -45c0 -16 -6 -33 -17 -46c-33 -40 -82 -51 -176 -130l-11 9c57 113 49 164 85 204c12 15 33 24 54 24c15 0 31 -5 44 -16zM231 533c58 0 106 -16 126 -27c7 -4 13 -6 18 -6c13 0 22 10 25 32h20c-3 -39 -4 -89 -4 -180h-20
c-9 74 -41 157 -123 157c-33 0 -59 -21 -59 -56c0 -60 63 -97 120 -144c61 -50 108 -92 108 -169c0 -91 -91 -154 -202 -154c-47 0 -82 12 -103 25c-21 11 -35 17 -50 17c-14 0 -23 -16 -28 -35h-20c3 43 4 99 4 200h20c12 -106 59 -182 132 -182c31 0 58 17 58 55
c0 59 -40 92 -93 140c-60 55 -117 104 -117 183c0 89 89 144 188 144z" />
    <glyph glyph-name="Scircumflex" unicode="&#x15c;" horiz-adv-x="612" 
d="M304 956h18c47 -63 129 -130 217 -172l-5 -15c-92 14 -189 39 -241 61c-44 -22 -125 -47 -201 -61l-5 15c87 41 168 108 217 172zM302 722c86 0 128 -21 162 -40c16 -9 25 -14 34 -14c13 0 18 15 22 44h23c-3 -43 -5 -94 -5 -244h-23c-7 110 -70 227 -174 227
c-59 0 -102 -33 -102 -93c0 -74 50 -104 176 -192c89 -62 162 -117 162 -226c0 -135 -126 -198 -272 -198c-91 0 -140 19 -177 37c-16 10 -26 14 -34 14c-13 0 -18 -15 -22 -44h-23c3 51 4 119 4 290h23c8 -141 54 -267 182 -267c73 0 120 36 120 98c0 83 -61 131 -146 188
c-95 63 -178 121 -178 231c0 131 119 189 248 189z" />
    <glyph glyph-name="scircumflex" unicode="&#x15d;" horiz-adv-x="472" 
d="M227 832h18c41 -79 111 -162 187 -212l-8 -14c-80 14 -162 38 -208 60c-38 -22 -104 -46 -168 -60l-8 14c75 49 144 132 187 212zM231 533c58 0 106 -16 126 -27c7 -4 13 -6 18 -6c13 0 22 10 25 32h20c-3 -39 -4 -89 -4 -180h-20c-9 74 -41 157 -123 157
c-33 0 -59 -21 -59 -56c0 -60 63 -97 120 -144c61 -50 108 -92 108 -169c0 -91 -91 -154 -202 -154c-47 0 -82 12 -103 25c-21 11 -35 17 -50 17c-14 0 -23 -16 -28 -35h-20c3 43 4 99 4 200h20c12 -106 59 -182 132 -182c31 0 58 17 58 55c0 59 -40 92 -93 140
c-60 55 -117 104 -117 183c0 89 89 144 188 144z" />
    <glyph glyph-name="Scedilla" unicode="&#x15e;" horiz-adv-x="612" 
d="M577 184c0 -134 -122 -197 -266 -198l-14 -46c27 10 55 15 89 15c57 0 84 -25 84 -58c0 -58 -79 -85 -188 -85c-40 0 -76 5 -100 13l6 18c11 -2 34 -5 58 -5c44 0 92 11 92 38c0 18 -19 25 -48 25c-11 0 -24 -2 -33 -7l27 92c-78 2 -122 20 -156 37c-16 10 -26 14 -34 14
c-13 0 -18 -15 -22 -44h-23c3 51 4 119 4 290h23c8 -141 54 -267 182 -267c73 0 120 36 120 98c0 83 -61 131 -146 188c-95 63 -178 121 -178 231c0 131 119 189 248 189c86 0 128 -21 162 -40c16 -9 25 -14 34 -14c13 0 18 15 22 44h23c-3 -43 -5 -94 -5 -244h-23
c-7 110 -70 227 -174 227c-59 0 -102 -33 -102 -93c0 -74 50 -104 176 -192c89 -62 162 -117 162 -226z" />
    <glyph glyph-name="scedilla" unicode="&#x15f;" horiz-adv-x="472" 
d="M240 -14c-8 0 -16 1 -23 1l-13 -47c24 10 49 15 79 15c50 0 73 -25 73 -58c0 -58 -66 -85 -157 -85c-36 0 -69 5 -91 13l7 18c9 -2 28 -5 48 -5c29 0 62 11 62 38c0 18 -11 25 -28 25c-11 0 -24 -2 -33 -7l27 97c-23 5 -41 12 -54 20c-21 11 -35 17 -50 17
c-14 0 -23 -16 -28 -35h-20c3 43 4 99 4 200h20c12 -106 59 -182 132 -182c31 0 58 17 58 55c0 59 -40 92 -93 140c-60 55 -117 104 -117 183c0 89 89 144 188 144c58 0 106 -16 126 -27c7 -4 13 -6 18 -6c13 0 22 10 25 32h20c-3 -39 -4 -89 -4 -180h-20
c-9 74 -41 157 -123 157c-33 0 -59 -21 -59 -56c0 -60 63 -97 120 -144c61 -50 108 -92 108 -169c0 -91 -91 -154 -202 -154z" />
    <glyph glyph-name="Scaron" unicode="&#x160;" horiz-adv-x="612" 
d="M531 946l5 -15c-87 -41 -168 -108 -217 -172h-18c-47 63 -129 130 -217 172l5 15c92 -14 189 -39 241 -61c44 22 125 47 201 61zM302 722c86 0 128 -21 162 -40c16 -9 25 -14 34 -14c13 0 18 15 22 44h23c-3 -43 -5 -94 -5 -244h-23c-7 110 -70 227 -174 227
c-59 0 -102 -33 -102 -93c0 -74 50 -104 176 -192c89 -62 162 -117 162 -226c0 -135 -126 -198 -272 -198c-91 0 -140 19 -177 37c-16 10 -26 14 -34 14c-13 0 -18 -15 -22 -44h-23c3 51 4 119 4 290h23c8 -141 54 -267 182 -267c73 0 120 36 120 98c0 83 -61 131 -146 188
c-95 63 -178 121 -178 231c0 131 119 189 248 189z" />
    <glyph glyph-name="scaron" unicode="&#x161;" horiz-adv-x="472" 
d="M414 832l8 -14c-75 -49 -144 -132 -187 -212h-18c-41 79 -111 162 -187 212l8 14c80 -14 162 -38 208 -60c38 22 104 46 168 60zM231 533c58 0 106 -16 126 -27c7 -4 13 -6 18 -6c13 0 22 10 25 32h20c-3 -39 -4 -89 -4 -180h-20c-9 74 -41 157 -123 157
c-33 0 -59 -21 -59 -56c0 -60 63 -97 120 -144c61 -50 108 -92 108 -169c0 -91 -91 -154 -202 -154c-47 0 -82 12 -103 25c-21 11 -35 17 -50 17c-14 0 -23 -16 -28 -35h-20c3 43 4 99 4 200h20c12 -106 59 -182 132 -182c31 0 58 17 58 55c0 59 -40 92 -93 140
c-60 55 -117 104 -117 183c0 89 89 144 188 144z" />
    <glyph glyph-name="Tcedilla" unicode="&#x162;" horiz-adv-x="699" 
d="M676 708c-5 -79 -7 -159 -7 -198c0 -28 1 -55 3 -72h-23c-47 188 -125 247 -197 247h-1v-572c0 -82 19 -93 111 -93v-20c-44 1 -121 3 -202 3l-19 -63c27 10 55 15 89 15c57 0 84 -25 84 -58c0 -58 -79 -85 -188 -85c-40 0 -76 5 -100 13l6 18c11 -2 35 -5 59 -5
c44 0 91 11 91 38c0 18 -19 25 -48 25c-11 0 -24 -2 -33 -7l32 109c-80 0 -153 -2 -196 -3v20c92 0 111 11 111 93v572h-1c-73 0 -150 -58 -197 -247h-23c2 17 3 44 3 72c0 39 -2 119 -7 198c95 -3 233 -3 327 -3s231 0 326 3z" />
    <glyph glyph-name="tcedilla" unicode="&#x163;" horiz-adv-x="350" 
d="M263 -45c50 0 73 -25 73 -58c0 -58 -66 -85 -157 -85c-36 0 -69 5 -91 13l7 18c9 -2 28 -5 48 -5c29 0 62 11 62 38c0 18 -11 25 -28 25c-11 0 -24 -2 -33 -7l27 95c-27 4 -49 15 -65 31c-29 29 -34 70 -34 139v339h-76v20h76v119c71 0 127 13 180 44v-163h98v-20h-98
v-414c0 -26 8 -36 30 -36c14 0 36 7 54 29l15 -12c-28 -48 -73 -79 -142 -79h-12l-13 -46c24 10 49 15 79 15z" />
    <glyph glyph-name="Tcaron" unicode="&#x164;" horiz-adv-x="699" 
d="M568 946l5 -15c-87 -41 -168 -108 -217 -172h-18c-47 63 -129 130 -217 172l5 15c92 -14 189 -39 241 -61c44 22 125 47 201 61zM676 708c-5 -79 -7 -159 -7 -198c0 -28 1 -55 3 -72h-23c-47 188 -125 247 -197 247h-1v-572c0 -82 19 -93 111 -93v-20
c-47 1 -132 3 -219 3c-83 0 -161 -2 -206 -3v20c92 0 111 11 111 93v572h-1c-73 0 -150 -58 -197 -247h-23c2 17 3 44 3 72c0 39 -2 119 -7 198c95 -3 233 -3 327 -3s231 0 326 3z" />
    <glyph glyph-name="tcaron" unicode="&#x165;" horiz-adv-x="350" 
d="M426 783c3 -7 5 -29 5 -41c0 -39 -46 -94 -117 -180l-14 4c16 90 20 127 20 145c0 26 -3 40 -20 40v21c10 0 20 -1 28 -1c44 0 69 6 98 12zM252 518h98v-20h-98v-414c0 -26 8 -36 30 -36c14 0 36 7 54 29l15 -12c-28 -48 -73 -79 -142 -79c-44 0 -80 11 -103 34
c-29 29 -34 70 -34 139v339h-76v20h76v119c71 0 127 13 180 44v-163z" />
    <glyph glyph-name="Tbar" unicode="&#x166;" horiz-adv-x="699" 
d="M676 708c-5 -79 -7 -159 -7 -198c0 -28 1 -55 3 -72h-23c-47 188 -125 247 -197 247h-1v-319h114v-20h-114v-233c0 -82 19 -93 111 -93v-20c-47 1 -132 3 -219 3c-83 0 -161 -2 -206 -3v20c92 0 111 11 111 93v233h-127v20h127v319h-1c-73 0 -150 -58 -197 -247h-23
c2 17 3 44 3 72c0 39 -2 119 -7 198c95 -3 233 -3 327 -3s231 0 326 3z" />
    <glyph glyph-name="tbar" unicode="&#x167;" horiz-adv-x="353" 
d="M338 77l15 -12c-28 -48 -73 -79 -142 -79c-44 0 -80 11 -103 34c-29 29 -34 70 -34 139v242h-76v20h76v77h-76v20h76v119c71 0 127 13 180 44v-163h98v-20h-98v-77h98v-20h-98v-317c0 -26 8 -36 30 -36c14 0 36 7 54 29z" />
    <glyph glyph-name="Utilde" unicode="&#x168;" horiz-adv-x="692" 
d="M268 938c107 0 135 -66 221 -66c36 0 68 15 97 53l14 -7c-27 -109 -86 -153 -148 -153c-108 0 -136 67 -222 67c-36 0 -68 -16 -97 -54l-14 7c27 109 86 153 149 153zM681 708v-20c-61 -13 -71 -43 -71 -156v-241c0 -83 -9 -159 -41 -212c-35 -58 -100 -93 -215 -93
c-61 0 -135 10 -188 48c-69 50 -82 131 -82 254v314c0 73 -10 83 -71 86v20c38 -2 107 -3 176 -3s138 1 179 3v-20c-68 -3 -81 -13 -81 -86v-408c0 -132 42 -173 125 -173c134 0 175 105 175 259v232c0 134 -6 163 -101 176v20c27 -2 75 -3 112 -3c30 0 63 1 83 3z" />
    <glyph glyph-name="utilde" unicode="&#x169;" horiz-adv-x="622" 
d="M209 798c87 0 112 -66 182 -66c28 0 54 15 77 53l13 -7c-23 -116 -73 -163 -127 -163c-88 0 -112 67 -182 67c-28 0 -54 -16 -77 -54l-14 7c23 116 73 163 128 163zM548 530v-421c0 -60 14 -88 56 -88v-21c-21 2 -42 3 -62 3c-67 0 -124 -4 -174 -14v72
c-32 -53 -87 -75 -159 -75c-61 0 -94 17 -113 40c-20 24 -29 61 -29 129v255c0 60 -14 88 -56 88v21c21 -2 42 -3 62 -3c67 0 124 4 174 14v-429c0 -42 14 -63 49 -63c37 0 72 30 72 72v300c0 60 -14 88 -56 88v21c21 -2 42 -3 62 -3c67 0 124 4 174 14z" />
    <glyph glyph-name="Umacron" unicode="&#x16a;" horiz-adv-x="692" 
d="M577 819h-432v25h432v-25zM681 708v-20c-61 -13 -71 -43 -71 -156v-241c0 -83 -9 -159 -41 -212c-35 -58 -100 -93 -215 -93c-61 0 -135 10 -188 48c-69 50 -82 131 -82 254v314c0 73 -10 83 -71 86v20c38 -2 107 -3 176 -3s138 1 179 3v-20c-68 -3 -81 -13 -81 -86v-408
c0 -132 42 -173 125 -173c134 0 175 105 175 259v232c0 134 -6 163 -101 176v20c27 -2 75 -3 112 -3c30 0 63 1 83 3z" />
    <glyph glyph-name="umacron" unicode="&#x16b;" horiz-adv-x="622" 
d="M468 687h-352v25h352v-25zM548 530v-421c0 -60 14 -88 56 -88v-21c-21 2 -42 3 -62 3c-67 0 -124 -4 -174 -14v72c-32 -53 -87 -75 -159 -75c-61 0 -94 17 -113 40c-20 24 -29 61 -29 129v255c0 60 -14 88 -56 88v21c21 -2 42 -3 62 -3c67 0 124 4 174 14v-429
c0 -42 14 -63 49 -63c37 0 72 30 72 72v300c0 60 -14 88 -56 88v21c21 -2 42 -3 62 -3c67 0 124 4 174 14z" />
    <glyph glyph-name="Ubreve" unicode="&#x16c;" horiz-adv-x="692" 
d="M578 920l12 -11c-26 -67 -103 -146 -239 -146s-213 79 -239 146l12 11c39 -25 111 -58 227 -58s188 33 227 58zM681 708v-20c-61 -13 -71 -43 -71 -156v-241c0 -83 -9 -159 -41 -212c-35 -58 -100 -93 -215 -93c-61 0 -135 10 -188 48c-69 50 -82 131 -82 254v314
c0 73 -10 83 -71 86v20c38 -2 107 -3 176 -3s138 1 179 3v-20c-68 -3 -81 -13 -81 -86v-408c0 -132 42 -173 125 -173c134 0 175 105 175 259v232c0 134 -6 163 -101 176v20c27 -2 75 -3 112 -3c30 0 63 1 83 3z" />
    <glyph glyph-name="ubreve" unicode="&#x16d;" horiz-adv-x="622" 
d="M476 788l17 -9c-22 -77 -77 -166 -199 -166s-177 89 -199 166l17 9c31 -25 86 -56 182 -56s151 31 182 56zM548 530v-421c0 -60 14 -88 56 -88v-21c-21 2 -42 3 -62 3c-67 0 -124 -4 -174 -14v72c-32 -53 -87 -75 -159 -75c-61 0 -94 17 -113 40c-20 24 -29 61 -29 129
v255c0 60 -14 88 -56 88v21c21 -2 42 -3 62 -3c67 0 124 4 174 14v-429c0 -42 14 -63 49 -63c37 0 72 30 72 72v300c0 60 -14 88 -56 88v21c21 -2 42 -3 62 -3c67 0 124 4 174 14z" />
    <glyph glyph-name="Uring" unicode="&#x16e;" horiz-adv-x="692" 
d="M361 995c62 0 117 -39 117 -101c0 -63 -55 -102 -117 -102c-61 0 -116 39 -116 102c0 62 55 101 116 101zM361 974c-42 0 -88 -29 -88 -81c0 -54 46 -80 88 -80c43 0 89 26 89 80c0 52 -46 81 -89 81zM681 708v-20c-61 -13 -71 -43 -71 -156v-241c0 -83 -9 -159 -41 -212
c-35 -58 -100 -93 -215 -93c-61 0 -135 10 -188 48c-69 50 -82 131 -82 254v314c0 73 -10 83 -71 86v20c38 -2 107 -3 176 -3s138 1 179 3v-20c-68 -3 -81 -13 -81 -86v-408c0 -132 42 -173 125 -173c134 0 175 105 175 259v232c0 134 -6 163 -101 176v20
c27 -2 75 -3 112 -3c30 0 63 1 83 3z" />
    <glyph glyph-name="uring" unicode="&#x16f;" horiz-adv-x="622" 
d="M295 801c62 0 117 -39 117 -101c0 -63 -55 -102 -117 -102c-61 0 -116 39 -116 102c0 62 55 101 116 101zM295 780c-42 0 -88 -29 -88 -81c0 -54 46 -80 88 -80c43 0 89 26 89 80c0 52 -46 81 -89 81zM548 530v-421c0 -60 14 -88 56 -88v-21c-21 2 -42 3 -62 3
c-67 0 -124 -4 -174 -14v72c-32 -53 -87 -75 -159 -75c-61 0 -94 17 -113 40c-20 24 -29 61 -29 129v255c0 60 -14 88 -56 88v21c21 -2 42 -3 62 -3c67 0 124 4 174 14v-429c0 -42 14 -63 49 -63c37 0 72 30 72 72v300c0 60 -14 88 -56 88v21c21 -2 42 -3 62 -3
c67 0 124 4 174 14z" />
    <glyph glyph-name="Uhungarumlaut" unicode="&#x170;" horiz-adv-x="692" 
d="M309 943c12 8 24 12 38 12c22 0 44 -10 58 -31c7 -11 11 -23 11 -35c0 -21 -11 -40 -32 -54c-35 -23 -87 -26 -182 -63l-10 11c67 82 82 134 117 160zM536 943c12 8 24 12 38 12c22 0 44 -10 58 -31c7 -11 11 -23 11 -35c0 -21 -11 -40 -32 -54c-35 -23 -87 -26 -182 -63
l-10 11c67 82 82 134 117 160zM681 708v-20c-61 -13 -71 -43 -71 -156v-241c0 -83 -9 -159 -41 -212c-35 -58 -100 -93 -215 -93c-61 0 -135 10 -188 48c-69 50 -82 131 -82 254v314c0 73 -10 83 -71 86v20c38 -2 107 -3 176 -3s138 1 179 3v-20c-68 -3 -81 -13 -81 -86
v-408c0 -132 42 -173 125 -173c134 0 175 105 175 259v232c0 134 -6 163 -101 176v20c27 -2 75 -3 112 -3c30 0 63 1 83 3z" />
    <glyph glyph-name="uhungarumlaut" unicode="&#x171;" horiz-adv-x="622" 
d="M320 817c18 -13 27 -31 27 -50c0 -13 -5 -27 -13 -40c-23 -35 -69 -58 -142 -129l-13 6c29 102 23 156 45 193c12 20 34 32 57 32c13 0 27 -4 39 -12zM497 817c19 -13 27 -30 27 -50c0 -13 -4 -27 -12 -40c-23 -35 -70 -58 -143 -129l-14 6c29 102 24 156 46 193
c12 20 34 32 57 32c13 0 27 -4 39 -12zM548 530v-421c0 -60 14 -88 56 -88v-21c-21 2 -42 3 -62 3c-67 0 -124 -4 -174 -14v72c-32 -53 -87 -75 -159 -75c-61 0 -94 17 -113 40c-20 24 -29 61 -29 129v255c0 60 -14 88 -56 88v21c21 -2 42 -3 62 -3c67 0 124 4 174 14v-429
c0 -42 14 -63 49 -63c37 0 72 30 72 72v300c0 60 -14 88 -56 88v21c21 -2 42 -3 62 -3c67 0 124 4 174 14z" />
    <glyph glyph-name="Uogonek" unicode="&#x172;" horiz-adv-x="692" 
d="M598 705c30 0 63 1 83 3v-20c-61 -13 -71 -43 -71 -156v-241c0 -83 -9 -159 -41 -212c-22 -37 -56 -63 -107 -79c-76 -27 -103 -63 -103 -90s13 -38 40 -38c22 0 51 10 66 23l13 -15c-39 -48 -83 -68 -153 -68c-65 0 -99 26 -99 71s46 80 128 103v0
c-61 0 -135 10 -188 48c-69 50 -82 131 -82 254v314c0 73 -10 83 -71 86v20c38 -2 107 -3 176 -3s138 1 179 3v-20c-68 -3 -81 -13 -81 -86v-408c0 -132 42 -173 125 -173c134 0 175 105 175 259v232c0 134 -6 163 -101 176v20c27 -2 75 -3 112 -3z" />
    <glyph glyph-name="uogonek" unicode="&#x173;" horiz-adv-x="622" 
d="M604 -105l12 -15c-39 -48 -83 -68 -153 -68c-65 0 -99 26 -99 71c0 58 66 99 178 120c-67 0 -124 -4 -174 -14v72c-32 -53 -87 -75 -159 -75c-61 0 -94 17 -113 40c-20 24 -29 61 -29 129v255c0 60 -14 88 -56 88v21c21 -2 42 -3 62 -3c67 0 124 4 174 14v-429
c0 -42 14 -63 49 -63c37 0 72 30 72 72v300c0 60 -14 88 -56 88v21c21 -2 42 -3 62 -3c67 0 124 4 174 14v-421c0 -60 14 -88 56 -88v-21c-9 1 -18 2 -27 2c-3 -2 -8 -4 -12 -6c-52 -26 -67 -60 -67 -86c0 -27 14 -38 40 -38c22 0 51 10 66 23z" />
    <glyph glyph-name="Wcircumflex" unicode="&#x174;" horiz-adv-x="1009" 
d="M505 830c-44 -22 -125 -47 -201 -61l-5 15c87 41 168 108 217 172h18c47 -63 129 -130 217 -172l-5 -15c-92 14 -189 39 -241 61zM941 705c26 0 57 1 77 3v-20c-31 -15 -67 -54 -93 -140l-168 -548c-16 1 -35 2 -53 2s-36 -1 -52 -2l-130 397l-141 -397
c-16 1 -35 2 -53 2s-36 -1 -52 -2l-232 624c-17 46 -41 63 -59 64v20c48 -2 118 -3 177 -3s105 1 133 3v-20c-20 -4 -26 -21 -26 -40c0 -15 3 -31 8 -44l145 -408l88 238l-68 207c-11 35 -28 45 -51 47v20c45 -2 110 -3 173 -3s121 1 155 3v-20c-46 -1 -68 -8 -68 -38
c0 -11 3 -26 10 -46l132 -401l77 247c18 59 26 105 26 140c0 70 -33 96 -86 98v20c50 -2 85 -3 131 -3z" />
    <glyph glyph-name="wcircumflex" unicode="&#x175;" horiz-adv-x="797" 
d="M391 666c-38 -22 -104 -46 -168 -60l-8 14c75 49 144 132 187 212h18c41 -79 111 -162 187 -212l-8 -14c-80 14 -162 38 -208 60zM724 515c24 0 62 1 77 4v-21c-25 -9 -50 -31 -71 -97l-125 -401c-16 1 -32 2 -48 2s-33 -1 -49 -2l-119 346l-91 -346c-16 1 -32 2 -48 2
s-33 -1 -49 -2l-154 442c-19 53 -44 56 -58 56v21c53 -4 108 -6 178 -6c41 0 90 3 130 6v-21c-37 0 -58 -3 -58 -24c0 -4 1 -9 2 -14l83 -277l86 335h1c16 -1 32 -2 48 -2c19 0 39 1 58 2l114 -366l43 143c11 38 16 70 16 96c0 70 -35 103 -81 107v21c28 -3 91 -4 115 -4z
" />
    <glyph glyph-name="Ycircumflex" unicode="&#x176;" horiz-adv-x="644" 
d="M328 830c-44 -22 -125 -47 -201 -61l-5 15c87 41 168 108 217 172h18c47 -63 129 -130 217 -172l-5 -15c-92 14 -189 39 -241 61zM559 706c26 0 57 1 77 3v-20c-31 -15 -65 -52 -106 -133l-93 -184v-266c0 -73 11 -83 71 -86v-20c-39 2 -110 3 -172 3
c-68 0 -137 -1 -173 -3v20c61 3 71 13 71 86v184l-185 342c-23 42 -44 56 -58 56v21c41 -4 84 -6 138 -6c68 0 153 3 220 6v-21c-42 0 -80 -1 -80 -23c0 -4 1 -9 4 -15l143 -275l45 91c33 66 47 115 47 149c0 52 -32 72 -80 74v20c50 -2 85 -3 131 -3z" />
    <glyph glyph-name="ycircumflex" unicode="&#x177;" horiz-adv-x="528" 
d="M240 666c-38 -22 -104 -46 -168 -60l-9 14c75 49 144 132 187 212h19c41 -79 111 -162 187 -212l-8 -14c-80 14 -162 38 -208 60zM448 515c24 0 62 1 77 4v-21c-25 -9 -49 -32 -71 -97l-125 -372l-42 -121c-12 -34 -25 -57 -44 -72c-18 -14 -44 -24 -93 -24
c-55 0 -136 24 -136 94c0 47 39 77 98 77c55 0 90 -25 90 -74c0 -29 -20 -63 -65 -77c10 -2 26 -2 34 -2c43 0 77 25 95 80l5 16l-233 516c-23 51 -44 56 -58 56v21c53 -4 113 -6 163 -6c62 0 105 3 145 6v-21c-30 0 -60 0 -60 -22c0 -4 1 -10 4 -16l123 -293l42 128
c14 41 19 74 19 102c0 65 -31 98 -73 101v21c28 -3 81 -4 105 -4z" />
    <glyph glyph-name="Ydieresis" unicode="&#x178;" horiz-adv-x="644" 
d="M219 762c-48 0 -87 39 -87 87c0 46 39 87 87 87c46 0 87 -41 87 -87c0 -48 -41 -87 -87 -87zM477 762c-48 0 -87 39 -87 87c0 46 39 87 87 87c46 0 87 -41 87 -87c0 -48 -41 -87 -87 -87zM559 706c26 0 57 1 77 3v-20c-31 -15 -65 -52 -106 -133l-93 -184v-266
c0 -73 11 -83 71 -86v-20c-39 2 -110 3 -172 3c-68 0 -137 -1 -173 -3v20c61 3 71 13 71 86v184l-185 342c-23 42 -44 56 -58 56v21c41 -4 84 -6 138 -6c68 0 153 3 220 6v-21c-42 0 -80 -1 -80 -23c0 -4 1 -9 4 -15l143 -275l45 91c33 66 47 115 47 149c0 52 -32 72 -80 74
v20c50 -2 85 -3 131 -3z" />
    <glyph glyph-name="Zacute" unicode="&#x179;" horiz-adv-x="606" 
d="M383 939c9 4 20 7 31 7c24 0 50 -12 63 -38c4 -9 6 -17 6 -26c0 -24 -15 -48 -38 -59c-46 -24 -96 -15 -213 -51l-7 12c97 82 109 132 158 155zM561 688l-303 -665h42c68 0 222 56 242 237h23c-2 -24 -3 -56 -3 -92c0 -33 0 -102 7 -168c-74 3 -176 3 -249 3
c-91 0 -195 0 -283 -3v20l303 665h-50c-82 0 -201 -47 -224 -217h-23c2 17 3 44 3 72c0 33 -2 101 -7 168c62 -3 148 -3 209 -3c100 0 216 0 313 3v-20z" />
    <glyph glyph-name="zacute" unicode="&#x17a;" horiz-adv-x="472" 
d="M363 820c14 -11 21 -28 21 -45c0 -16 -6 -33 -17 -46c-33 -40 -82 -51 -176 -130l-11 9c57 113 49 164 85 204c12 15 33 24 54 24c15 0 31 -5 44 -16zM223 15h14c75 0 162 43 173 191h20c0 -106 1 -165 4 -210c-62 3 -130 4 -196 4c-70 0 -145 -2 -212 -5l224 508h-20
c-75 0 -156 -43 -167 -191h-20c0 106 -1 165 -4 210c62 -3 130 -4 196 -4c70 0 145 2 212 5z" />
    <glyph glyph-name="Zdotaccent" unicode="&#x17b;" horiz-adv-x="606" 
d="M306 976c69 0 109 -29 109 -86s-40 -86 -109 -86c-70 0 -109 29 -109 86s39 86 109 86zM561 688l-303 -665h42c68 0 222 56 242 237h23c-2 -24 -3 -56 -3 -92c0 -33 0 -102 7 -168c-74 3 -176 3 -249 3c-91 0 -195 0 -283 -3v20l303 665h-50c-82 0 -201 -47 -224 -217
h-23c2 17 3 44 3 72c0 33 -2 101 -7 168c62 -3 148 -3 209 -3c100 0 216 0 313 3v-20z" />
    <glyph glyph-name="zdotaccent" unicode="&#x17c;" horiz-adv-x="472" 
d="M252 782c69 0 109 -29 109 -86s-40 -86 -109 -86c-70 0 -109 29 -109 86s39 86 109 86zM223 15h14c75 0 162 43 173 191h20c0 -106 1 -165 4 -210c-62 3 -130 4 -196 4c-70 0 -145 -2 -212 -5l224 508h-20c-75 0 -156 -43 -167 -191h-20c0 106 -1 165 -4 210
c62 -3 130 -4 196 -4c70 0 145 2 212 5z" />
    <glyph glyph-name="Zcaron" unicode="&#x17d;" horiz-adv-x="606" 
d="M524 946l5 -15c-87 -41 -168 -108 -217 -172h-18c-47 63 -129 130 -217 172l6 15c92 -14 188 -39 240 -61c44 22 125 47 201 61zM561 688l-303 -665h42c68 0 222 56 242 237h23c-2 -24 -3 -56 -3 -92c0 -33 0 -102 7 -168c-74 3 -176 3 -249 3c-91 0 -195 0 -283 -3v20
l303 665h-50c-82 0 -201 -47 -224 -217h-23c2 17 3 44 3 72c0 33 -2 101 -7 168c62 -3 148 -3 209 -3c100 0 216 0 313 3v-20z" />
    <glyph glyph-name="zcaron" unicode="&#x17e;" horiz-adv-x="472" 
d="M430 832l8 -14c-75 -49 -144 -132 -187 -212h-18c-41 79 -111 162 -187 212l8 14c80 -14 162 -38 208 -60c38 22 104 46 168 60zM223 15h14c75 0 162 43 173 191h20c0 -106 1 -165 4 -210c-62 3 -130 4 -196 4c-70 0 -145 -2 -212 -5l224 508h-20
c-75 0 -156 -43 -167 -191h-20c0 106 -1 165 -4 210c62 -3 130 -4 196 -4c70 0 145 2 212 5z" />
    <glyph glyph-name="florin" unicode="&#x192;" horiz-adv-x="611" 
d="M421 661c0 43 24 77 65 92c-6 5 -20 9 -39 9c-22 0 -49 -11 -62 -32c-18 -29 -18 -82 -18 -212h191v-20h-191v-418c0 -118 -19 -173 -71 -218c-33 -29 -91 -50 -189 -50c-57 0 -162 13 -162 94c0 47 39 77 98 77c55 0 90 -25 90 -74c0 -29 -17 -60 -58 -75
c9 -1 19 -2 27 -2c27 0 54 11 67 32c18 30 18 83 18 216v418h-146v20h146c0 115 20 170 71 214c33 29 94 50 159 50c69 0 182 -20 182 -114c0 -49 -35 -87 -88 -87c-55 0 -90 33 -90 80z" />
    <glyph glyph-name="Gacute" unicode="&#x1f4;" horiz-adv-x="755" 
d="M480 939c9 4 20 7 31 7c24 0 50 -12 63 -38c4 -9 6 -17 6 -26c0 -24 -15 -48 -38 -59c-46 -24 -96 -15 -213 -51l-7 12c97 82 109 132 158 155zM424 722c93 0 149 -29 194 -65c7 -6 14 -9 20 -9c14 0 21 19 25 60h23c-3 -53 -4 -124 -4 -250h-23c-9 96 -26 158 -92 203
c-28 19 -68 30 -103 30c-154 0 -198 -189 -198 -339c0 -240 64 -346 161 -346c21 0 37 4 49 12c14 10 21 26 21 50v100c0 97 -17 113 -101 116v20c45 -2 131 -3 191 -3c64 0 120 1 154 3v-20c-34 -3 -41 -12 -41 -86v-198h-20c-1 23 -10 57 -31 57c-11 0 -27 -3 -68 -23
c-52 -25 -112 -48 -169 -48c-251 0 -376 134 -376 362c0 224 160 374 388 374z" />
    <glyph glyph-name="gacute" unicode="&#x1f5;" horiz-adv-x="560" 
d="M390 729c-33 -40 -82 -51 -176 -130l-11 9c57 113 49 164 85 204c12 15 33 24 54 24c15 0 31 -5 44 -16c14 -11 21 -28 21 -45c0 -16 -6 -33 -17 -46zM177 140h227c79 0 147 -28 147 -117c0 -101 -94 -211 -296 -211c-184 0 -235 44 -235 83c0 73 124 30 165 79h-33
c-40 0 -120 16 -120 104c0 65 35 105 130 150c-74 22 -122 69 -122 145c0 110 100 160 235 160c21 0 41 -1 60 -4c0 7 -1 14 -1 21c0 74 33 132 113 132c47 0 86 -24 86 -67c0 -38 -36 -65 -82 -65c-47 0 -72 19 -89 52c-5 -14 -7 -32 -7 -52c0 -8 0 -16 1 -24
c92 -18 154 -67 154 -153c0 -110 -100 -160 -235 -160c-34 0 -66 4 -95 10c-25 -17 -39 -29 -39 -50c0 -23 14 -33 36 -33zM275 515c-32 0 -51 -35 -51 -142s19 -142 51 -142s51 35 51 142s-19 142 -51 142zM282 -171c78 0 130 46 130 113c0 20 -11 32 -46 32h-161
c-10 -22 -13 -53 -13 -65c0 -50 30 -80 90 -80z" />
    <glyph glyph-name="Scommaaccent" unicode="&#x218;" horiz-adv-x="612" 
d="M302 722c86 0 128 -21 162 -40c16 -9 25 -14 34 -14c13 0 18 15 22 44h23c-3 -43 -5 -94 -5 -244h-23c-7 110 -70 227 -174 227c-59 0 -102 -33 -102 -93c0 -74 50 -104 176 -192c89 -62 162 -117 162 -226c0 -135 -126 -198 -272 -198c-91 0 -140 19 -177 37
c-16 10 -26 14 -34 14c-13 0 -18 -15 -22 -44h-23c3 51 4 119 4 290h23c8 -141 54 -267 182 -267c73 0 120 36 120 98c0 83 -61 131 -146 188c-95 63 -178 121 -178 231c0 131 119 189 248 189zM311 -46c55 0 93 -28 93 -82c0 -67 -46 -115 -135 -117l-2 22
c57 7 84 21 92 50c-10 -9 -25 -15 -53 -15c-53 0 -84 23 -84 69c0 47 31 73 89 73z" />
    <glyph glyph-name="scommaaccent" unicode="&#x219;" horiz-adv-x="472" 
d="M231 533c58 0 106 -16 126 -27c7 -4 13 -6 18 -6c13 0 22 10 25 32h20c-3 -39 -4 -89 -4 -180h-20c-9 74 -41 157 -123 157c-33 0 -59 -21 -59 -56c0 -60 63 -97 120 -144c61 -50 108 -92 108 -169c0 -91 -91 -154 -202 -154c-47 0 -82 12 -103 25c-21 11 -35 17 -50 17
c-14 0 -23 -16 -28 -35h-20c3 43 4 99 4 200h20c12 -106 59 -182 132 -182c31 0 58 17 58 55c0 59 -40 92 -93 140c-60 55 -117 104 -117 183c0 89 89 144 188 144zM234 -45c53 0 93 -28 93 -82c0 -67 -46 -115 -135 -117l-2 22c57 7 84 21 92 50c-10 -9 -25 -15 -53 -15
c-53 0 -84 23 -84 69c0 47 31 73 89 73z" />
    <glyph glyph-name="uni021A" unicode="&#x21a;" horiz-adv-x="699" 
d="M676 708c-5 -79 -7 -159 -7 -198c0 -28 1 -55 3 -72h-23c-47 188 -125 247 -197 247h-1v-572c0 -82 19 -93 111 -93v-20c-47 1 -132 3 -219 3c-83 0 -161 -2 -206 -3v20c92 0 111 11 111 93v572h-1c-73 0 -150 -58 -197 -247h-23c2 17 3 44 3 72c0 39 -2 119 -7 198
c95 -3 233 -3 327 -3s231 0 326 3zM345 -46c55 0 93 -28 93 -82c0 -67 -46 -115 -135 -117l-2 22c57 7 84 21 92 50c-10 -9 -25 -15 -53 -15c-53 0 -84 23 -84 69c0 47 31 73 89 73z" />
    <glyph glyph-name="uni021B" unicode="&#x21b;" horiz-adv-x="350" 
d="M252 518h98v-20h-98v-414c0 -26 8 -36 30 -36c14 0 36 7 54 29l15 -12c-28 -48 -73 -79 -142 -79c-44 0 -80 11 -103 34c-29 29 -34 70 -34 139v339h-76v20h76v119c71 0 127 13 180 44v-163zM214 -45c53 0 93 -28 93 -82c0 -67 -46 -115 -135 -117l-2 22
c57 7 84 21 92 50c-10 -9 -25 -15 -53 -15c-53 0 -84 23 -84 69c0 47 31 73 89 73z" />
    <glyph glyph-name="dotlessj" unicode="&#x237;" horiz-adv-x="316" 
d="M254 530v-450c0 -118 -19 -173 -71 -218c-33 -29 -91 -50 -189 -50c-35 0 -73 3 -111 20c-32 14 -51 42 -51 74c0 47 39 77 98 77c55 0 90 -25 90 -74c0 -29 -17 -60 -58 -75c9 -1 19 -2 27 -2c27 0 54 11 67 32c18 30 18 83 18 216v330c0 60 -14 88 -56 88v21
c21 -2 42 -3 62 -3c67 0 124 4 174 14z" />
    <glyph glyph-name="circumflex" unicode="&#x2c6;" horiz-adv-x="401" 
d="M192 832h18c41 -79 111 -162 187 -212l-8 -14c-80 14 -162 38 -208 60c-38 -22 -104 -46 -168 -60l-8 14c75 49 144 132 187 212z" />
    <glyph glyph-name="caron" unicode="&#x2c7;" horiz-adv-x="401" 
d="M389 832l8 -14c-75 -49 -144 -132 -187 -212h-18c-41 79 -111 162 -187 212l8 14c80 -14 162 -38 208 -60c38 22 104 46 168 60z" />
    <glyph glyph-name="breve" unicode="&#x2d8;" horiz-adv-x="428" 
d="M396 788l17 -9c-22 -77 -77 -166 -199 -166s-177 89 -199 166l17 9c31 -25 86 -56 182 -56s151 31 182 56z" />
    <glyph glyph-name="dotaccent" unicode="&#x2d9;" horiz-adv-x="198" 
d="M99 782c69 0 109 -29 109 -86s-40 -86 -109 -86c-70 0 -109 29 -109 86s39 86 109 86z" />
    <glyph glyph-name="ring" unicode="&#x2da;" horiz-adv-x="263" 
d="M131 801c62 0 117 -39 117 -101c0 -63 -55 -102 -117 -102c-61 0 -116 39 -116 102c0 62 55 101 116 101zM131 780c-42 0 -88 -29 -88 -81c0 -54 46 -80 88 -80c43 0 89 26 89 80c0 52 -46 81 -89 81z" />
    <glyph glyph-name="ogonek" unicode="&#x2db;" horiz-adv-x="242" 
d="M163 3l48 10c-5 -6 -11 -10 -25 -17c-52 -26 -68 -60 -68 -86c0 -27 14 -38 40 -38c22 0 51 10 66 23l13 -15c-39 -48 -83 -68 -153 -68c-65 0 -99 26 -99 71c0 58 66 99 178 120z" />
    <glyph glyph-name="tilde" unicode="&#x2dc;" horiz-adv-x="411" 
d="M134 798c87 0 111 -66 181 -66c28 0 54 15 77 53l14 -7c-23 -116 -74 -163 -128 -163c-88 0 -112 67 -182 67c-28 0 -54 -16 -77 -54l-14 7c23 116 74 163 129 163z" />
    <glyph glyph-name="hungarumlaut" unicode="&#x2dd;" horiz-adv-x="411" 
d="M182 817c18 -13 27 -31 27 -50c0 -13 -4 -27 -12 -40c-23 -35 -70 -58 -143 -129l-13 6c29 102 23 156 45 193c12 20 35 32 58 32c13 0 26 -4 38 -12zM359 817c19 -13 28 -30 28 -50c0 -13 -5 -27 -13 -40c-23 -35 -70 -58 -143 -129l-13 6c29 102 23 156 45 193
c12 20 34 32 57 32c13 0 27 -4 39 -12z" />
    <glyph glyph-name="commaaccentcomb" unicode="&#x326;" horiz-adv-x="0" 
d="M104 -45c53 0 93 -28 93 -82c0 -67 -46 -115 -135 -117l-2 22c57 7 84 21 92 50c-10 -9 -25 -15 -53 -15c-53 0 -84 23 -84 69c0 47 31 73 89 73z" />
    <glyph glyph-name="Delta" unicode="&#x394;" horiz-adv-x="498" 
d="M275 722l193 -722c-73 2 -147 3 -220 3c-74 0 -148 -1 -222 -3l233 722h16zM56 30h232l-107 392z" />
    <glyph glyph-name="Omega" unicode="&#x3a9;" horiz-adv-x="786" 
d="M393 722c216 0 338 -94 338 -250c0 -179 -159 -274 -272 -449h57c88 0 155 48 184 187h23c-2 -19 -3 -44 -3 -72c0 -27 2 -83 7 -138c-44 3 -106 3 -149 3c-41 0 -88 -2 -144 -3v16c37 73 107 241 107 436c0 158 -38 252 -148 252s-148 -94 -148 -252
c0 -195 70 -363 107 -436v-16c-56 1 -103 3 -144 3c-43 0 -105 0 -149 -3c5 55 7 111 7 138c0 28 -1 53 -3 72h23c29 -139 96 -187 184 -187h57c-113 175 -272 270 -272 449c0 156 122 250 338 250z" />
    <glyph glyph-name="mu" unicode="&#x3bc;" horiz-adv-x="724" 
d="M673 274l19 -4c-13 -84 -65 -284 -160 -284c-48 0 -63 39 -63 89c0 14 1 29 3 45l5 49c-30 -87 -83 -183 -166 -183c-49 0 -72 67 -77 126c-9 -159 -12 -210 -33 -244c-17 -29 -56 -56 -107 -56c-41 0 -70 23 -70 63c0 47 38 80 84 116c48 39 104 98 131 255
c-21 119 -48 150 -48 189c0 75 62 94 105 94c42 0 80 -20 80 -64c0 -6 -1 -11 -2 -18c-11 -55 -81 -76 -120 -215c12 -37 42 -49 74 -49c73 0 123 24 157 91c-14 103 -32 136 -32 161c0 75 56 94 95 94c48 0 90 -20 90 -66c0 -5 -1 -10 -2 -16c-11 -52 -91 -68 -133 -185
c-1 -8 -1 -15 -1 -22c0 -44 24 -57 57 -57c53 0 88 24 114 91z" />
    <glyph glyph-name="pi" unicode="&#x3c0;" horiz-adv-x="599" 
d="M381 344l-15 -86c-1 -6 -1 -13 -1 -18c0 -42 21 -57 50 -57c53 0 88 24 114 91l19 -4c-13 -84 -55 -284 -150 -284c-45 0 -72 26 -72 107c0 31 4 70 12 117l23 134h-84c-14 -166 -43 -256 -72 -302c-18 -28 -50 -56 -108 -56c-40 0 -69 23 -69 59c0 54 36 76 96 102
c92 40 118 52 136 197h-47c-81 0 -129 -13 -167 -87l-17 4c34 159 94 257 254 257h288v-174h-190z" />
    <glyph glyph-name="uni0401" unicode="&#x401;" horiz-adv-x="649" 
d="M191 762c-48 0 -87 39 -87 87c0 46 39 87 87 87c46 0 87 -41 87 -87c0 -48 -41 -87 -87 -87zM449 762c-48 0 -87 39 -87 87c0 46 39 87 87 87c46 0 87 -41 87 -87c0 -48 -41 -87 -87 -87zM600 168c0 -33 0 -102 7 -168c-68 3 -162 3 -229 3c-72 0 -234 0 -350 -3v20
c61 3 71 13 71 86v496c0 73 -11 83 -71 86v20c116 -3 278 -3 350 -3c61 0 147 0 209 3c-5 -67 -7 -135 -7 -168c0 -28 1 -55 3 -72h-23c-25 166 -102 217 -184 217h-13c-52 0 -61 -8 -61 -63v-256h10c75 0 124 74 136 132h23c-3 -44 -4 -74 -4 -97c0 -17 1 -31 1 -45
c0 -33 1 -66 6 -142h-23c-12 74 -64 132 -139 132h-10v-260c0 -55 9 -63 61 -63h33c66 0 152 56 184 237h23c-2 -24 -3 -56 -3 -92z" />
    <glyph glyph-name="uni0402" unicode="&#x402;" horiz-adv-x="981" 
d="M691 416c155 0 278 -73 278 -221c0 -140 -124 -209 -275 -209c-95 0 -195 45 -195 142c0 63 50 99 108 99c57 0 93 -35 93 -92c0 -60 -40 -95 -99 -111c17 -7 43 -13 64 -13c63 0 115 55 115 183c0 110 -38 190 -156 190c-68 0 -142 -26 -173 -57v-338
c-44 10 -95 14 -154 14c-50 0 -109 -1 -160 -3v20c92 0 111 11 111 93v572h-1c-73 0 -150 -58 -197 -247h-23c2 17 3 44 3 72c0 39 -2 119 -7 198c95 -3 233 -3 327 -3s231 0 326 3c-5 -71 -7 -143 -7 -178c0 -28 1 -55 3 -72h-23c-47 143 -124 227 -197 227h-1v-337
c51 38 130 68 240 68z" />
    <glyph glyph-name="uni0403" unicode="&#x403;" horiz-adv-x="602" 
d="M365 939c9 4 20 7 31 7c24 0 50 -12 63 -38c4 -9 6 -17 6 -26c0 -24 -15 -48 -38 -59c-46 -24 -96 -15 -213 -51l-7 12c97 82 109 132 158 155zM587 708c-5 -67 -7 -135 -7 -168c0 -28 1 -55 3 -72h-23c-35 166 -112 217 -184 217h-13c-52 0 -61 -8 -61 -63v-516
c0 -73 13 -83 81 -86v-20c-41 2 -111 3 -177 3c-72 0 -140 -1 -178 -3v20c60 3 71 13 71 86v496c0 73 -10 83 -71 86v20c116 -3 278 -3 350 -3c61 0 147 0 209 3z" />
    <glyph glyph-name="uni0404" unicode="&#x404;" horiz-adv-x="719" 
d="M639 260h23c0 -131 1 -205 4 -260h-23c-3 41 -10 59 -24 59c-5 0 -13 -3 -21 -8c-49 -35 -99 -65 -185 -65c-226 0 -377 133 -377 362c0 224 156 374 378 374c88 0 140 -31 184 -65c7 -6 14 -9 20 -9c14 0 22 19 25 60h23c-3 -41 -4 -94 -4 -190h-23
c-18 68 -32 101 -92 143c-27 19 -60 30 -93 30c-153 0 -188 -189 -188 -339c0 -16 1 -32 2 -49c22 102 70 150 114 150c61 0 98 -66 149 -66c18 0 49 13 60 64l17 -3c-16 -132 -61 -197 -112 -197c-61 0 -94 66 -151 66c-27 0 -57 -15 -75 -49c13 -128 59 -255 184 -255
c33 0 65 12 93 30c67 41 83 108 92 217z" />
    <glyph glyph-name="uni0405" unicode="&#x405;" horiz-adv-x="612" 
d="M302 722c86 0 128 -21 162 -40c16 -9 25 -14 34 -14c13 0 18 15 22 44h23c-3 -43 -5 -94 -5 -244h-23c-7 110 -70 227 -174 227c-59 0 -102 -33 -102 -93c0 -74 50 -104 176 -192c89 -62 162 -117 162 -226c0 -135 -126 -198 -272 -198c-91 0 -140 19 -177 37
c-16 10 -26 14 -34 14c-13 0 -18 -15 -22 -44h-23c3 51 4 119 4 290h23c8 -141 54 -267 182 -267c73 0 120 36 120 98c0 83 -61 131 -146 188c-95 63 -178 121 -178 231c0 131 119 189 248 189z" />
    <glyph glyph-name="uni0406" unicode="&#x406;" horiz-adv-x="400" 
d="M373 708v-20c-61 -3 -71 -13 -71 -86v-496c0 -73 11 -83 71 -86v-20c-39 2 -105 3 -167 3c-72 0 -140 -1 -178 -3v20c61 3 71 13 71 86v496c0 73 -11 83 -71 86v20c38 -2 106 -3 178 -3c62 0 128 1 167 3z" />
    <glyph glyph-name="uni0407" unicode="&#x407;" horiz-adv-x="400" 
d="M77 936c46 0 87 -41 87 -87c0 -48 -41 -87 -87 -87c-48 0 -87 39 -87 87c0 46 39 87 87 87zM335 936c46 0 87 -41 87 -87c0 -48 -41 -87 -87 -87c-48 0 -87 39 -87 87c0 46 39 87 87 87zM373 708v-20c-61 -3 -71 -13 -71 -86v-496c0 -73 11 -83 71 -86v-20
c-39 2 -105 3 -167 3c-72 0 -140 -1 -178 -3v20c61 3 71 13 71 86v496c0 73 -11 83 -71 86v20c38 -2 106 -3 178 -3c62 0 128 1 167 3z" />
    <glyph glyph-name="uni0408" unicode="&#x408;" horiz-adv-x="390" 
d="M368 708v-20c-61 -3 -71 -13 -71 -86v-366v-82c0 -64 -2 -131 -17 -179c-30 -92 -132 -163 -281 -163c-35 0 -81 4 -112 19c-36 18 -50 43 -50 75c0 47 39 77 98 77c55 0 90 -25 90 -74c0 -29 -17 -60 -58 -75c6 -1 12 -1 18 -1c45 0 75 29 88 63c21 58 21 111 21 249
v457c0 73 -11 83 -71 86v20c36 -2 100 -3 168 -3c66 0 136 1 177 3z" />
    <glyph glyph-name="uni0409" unicode="&#x409;" horiz-adv-x="1020" 
d="M998 219c0 -124 -91 -213 -279 -219h-4h-17c-20 0 -83 0 -126 3h-39c-69 0 -138 -1 -179 -3v20c68 3 81 13 81 86v496c0 73 -21 86 -61 86h-3c-33 0 -56 -15 -61 -86c-21 -235 -17 -616 -209 -616c-71 0 -122 49 -122 109c0 64 50 105 112 105c54 0 89 -27 89 -74
c0 -60 -45 -103 -104 -113c5 -5 14 -8 25 -8c154 0 170 321 186 597c0 8 1 15 1 22c0 51 -19 62 -82 64v20c28 -2 71 -3 103 -3c30 0 59 3 88 3c51 0 86 -3 143 -3s139 1 179 3v-20c-68 -3 -81 -13 -81 -86v-180h37c255 0 323 -97 323 -203zM709 21c59 6 79 67 79 182
c0 108 -20 199 -123 199h-27v-296c0 -69 11 -82 71 -85z" />
    <glyph glyph-name="uni040A" unicode="&#x40a;" horiz-adv-x="1105" 
d="M1090 190c0 -108 -94 -187 -289 -190h-1h-10c-20 0 -83 0 -126 3h-31c-66 0 -136 -1 -177 -3v20c61 3 71 13 71 86v240h-225v-240c0 -73 11 -83 71 -86v-20c-39 2 -105 3 -167 3c-72 0 -140 -1 -178 -3v20c61 3 71 13 71 86v496c0 73 -11 83 -71 86v20
c38 -2 106 -3 178 -3c62 0 128 1 167 3v-20c-61 -3 -71 -13 -71 -86v-236h225v236c0 73 -11 83 -71 86v20c41 -2 111 -3 177 -3c68 0 132 1 168 3v-20c-61 -3 -71 -13 -71 -86v-236h37c255 0 323 -85 323 -176zM797 20c62 4 83 61 83 157c0 92 -22 169 -133 169h-17v-240
c0 -71 10 -83 67 -86z" />
    <glyph glyph-name="uni040B" unicode="&#x40b;" horiz-adv-x="951" 
d="M875 197v-91c0 -73 10 -83 71 -86v-20c-38 2 -107 3 -174 3s-132 -1 -171 -3v20c60 3 71 13 71 86v123c0 88 -13 115 -88 115c-46 0 -99 -10 -133 -24v-207c0 -82 19 -93 111 -93v-20c-47 1 -132 3 -219 3c-83 0 -161 -2 -206 -3v20c92 0 111 11 111 93v572h-1
c-73 0 -150 -58 -197 -247h-23c2 17 3 44 3 72c0 39 -2 119 -7 198c95 -3 233 -3 327 -3s231 0 326 3c-5 -79 -7 -159 -7 -198c0 -28 1 -55 3 -72h-23c-47 188 -125 247 -197 247h-1v-345c35 14 108 36 195 36c64 0 121 -12 161 -35c52 -30 68 -73 68 -144z" />
    <glyph glyph-name="uni040C" unicode="&#x40c;" horiz-adv-x="750" 
d="M570 823c-46 -24 -96 -15 -213 -51l-7 12c97 82 109 132 158 155c9 4 20 7 31 7c24 0 50 -12 63 -38c4 -9 6 -17 6 -26c0 -24 -15 -48 -38 -59zM733 53l13 -13c-41 -41 -89 -54 -150 -54c-89 0 -142 27 -154 108l-26 172c-12 70 -39 93 -114 96v-256c0 -73 11 -83 71 -86
v-20c-39 2 -105 3 -167 3c-72 0 -140 -1 -178 -3v20c61 3 71 13 71 86v496c0 73 -11 83 -71 86v20c38 -2 106 -3 178 -3c62 0 128 1 167 3v-20c-61 -3 -71 -13 -71 -86v-223c55 3 99 36 171 116l34 38c31 35 44 66 44 90c0 40 -36 64 -82 66v19c56 -2 94 -3 169 -3
c43 0 74 1 101 3v-19c-45 -12 -100 -40 -164 -110l-183 -203c140 -8 217 -42 236 -132l29 -139c9 -50 22 -65 46 -65c12 0 21 4 30 13z" />
    <glyph glyph-name="uni040D" unicode="&#x40d;" horiz-adv-x="849" 
d="M272 823c-23 12 -38 35 -38 59c0 9 2 17 6 26c13 26 38 38 63 38c11 0 22 -3 31 -7c49 -23 61 -73 158 -155l-7 -12c-117 36 -167 27 -213 51zM821 708v-20c-60 -3 -71 -13 -71 -86v-496c0 -73 11 -83 71 -86v-20c-38 2 -106 3 -178 3c-62 0 -128 -1 -167 -3v20
c60 3 71 13 71 86v460l-245 -476c2 -58 16 -67 71 -70v-20c-39 2 -105 3 -167 3c-72 0 -140 -1 -178 -3v20c60 3 71 13 71 86v496c0 73 -11 83 -71 86v20c38 -2 106 -3 178 -3c62 0 128 1 167 3v-20c-60 -3 -71 -13 -71 -86v-463l245 476c-1 61 -15 70 -71 73v20
c39 -2 105 -3 167 -3c72 0 140 1 178 3z" />
    <glyph glyph-name="uni040E" unicode="&#x40e;" horiz-adv-x="667" 
d="M154 795c-36 16 -66 42 -66 78c0 40 39 74 97 74c56 0 97 -32 97 -76c0 -40 -35 -64 -74 -74c43 -10 96 -15 136 -15c39 0 92 5 135 16c-43 11 -72 36 -72 73c0 43 40 76 97 76c56 0 98 -33 98 -74c0 -35 -31 -61 -69 -78c-40 -18 -106 -33 -189 -33
c-84 0 -150 15 -190 33zM610 705c26 0 57 1 77 3v-20c-31 -15 -61 -54 -105 -133l-187 -378l-47 -95c-17 -35 -30 -53 -44 -67c-21 -21 -54 -29 -89 -29c-88 0 -138 45 -138 99c0 58 51 95 112 95c66 0 109 -27 109 -74c0 -50 -41 -81 -93 -95c5 -4 16 -5 29 -5
c41 0 69 28 93 78l21 43l-292 497c-24 40 -48 60 -71 64v20c27 -2 117 -3 162 -3c48 0 143 1 173 3v-20c-21 -2 -39 -12 -39 -38c0 -12 3 -27 12 -46l158 -269l65 130c32 65 46 112 46 147c0 54 -34 74 -83 76v20c50 -2 85 -3 131 -3z" />
    <glyph glyph-name="uni040F" unicode="&#x40f;" horiz-adv-x="829" 
d="M801 708v-20c-60 -3 -71 -13 -71 -86v-496c0 -73 11 -83 71 -86v-20c-38 2 -106 3 -178 3h-4c-86 0 -177 -46 -193 -188h-23c-16 142 -107 188 -193 188h-4c-72 0 -140 -1 -178 -3v20c60 3 71 13 71 86v496c0 73 -11 83 -71 86v20c38 -2 106 -3 178 -3c62 0 128 1 167 3
v-20c-60 -3 -71 -13 -71 -86v-496c0 -73 13 -86 81 -86h63c68 0 81 13 81 86v496c0 73 -11 83 -71 86v20c39 -2 105 -3 167 -3c72 0 140 1 178 3z" />
    <glyph glyph-name="uni0410" unicode="&#x410;" horiz-adv-x="691" 
d="M398 708l242 -624c18 -46 41 -63 59 -64v-20c-48 2 -116 3 -182 3c-68 0 -132 -1 -168 -3v20c47 2 70 10 70 37c0 12 -4 26 -12 47l-59 164h-202l-17 -45c-22 -59 -32 -100 -32 -130c0 -59 37 -71 90 -73v-20c-50 2 -85 3 -131 3c-26 0 -57 -1 -77 -3v20
c31 5 60 34 92 117l222 571c16 -1 35 -2 53 -2s36 1 52 2zM341 288l-91 250l-96 -250h187z" />
    <glyph glyph-name="uni0411" unicode="&#x411;" horiz-adv-x="683" 
d="M302 422h37c255 0 323 -112 323 -213c0 -122 -98 -208 -300 -208c-31 0 -89 2 -168 2c-56 0 -128 -1 -166 -3v20c60 3 71 13 71 86v496c0 73 -10 83 -71 86v20c116 -3 278 -3 350 -3c61 0 147 0 209 3c-5 -67 -7 -135 -7 -168c0 -28 1 -55 3 -72h-23
c-35 166 -112 217 -184 217h-13c-52 0 -61 -8 -61 -63v-200zM353 20c74 0 99 62 99 183c0 108 -20 199 -123 199h-27v-296c0 -66 9 -86 51 -86z" />
    <glyph glyph-name="uni0412" unicode="&#x412;" horiz-adv-x="704" 
d="M401 373v-2c206 -10 283 -96 283 -177c0 -134 -114 -194 -300 -194c-32 0 -95 3 -182 3c-67 0 -136 -1 -174 -3v20c61 3 71 13 71 86v496c0 73 -11 83 -71 86v20c38 -2 108 -3 172 -3c67 0 135 2 161 2c182 0 271 -65 271 -157c0 -71 -73 -157 -231 -177zM356 688
c-45 0 -54 -17 -54 -86v-226h27c78 0 97 76 97 163c0 98 -19 149 -70 149zM367 23c75 0 107 63 107 175c0 102 -45 161 -158 161h-14v-253c0 -70 11 -83 65 -83z" />
    <glyph glyph-name="uni0413" unicode="&#x413;" horiz-adv-x="602" 
d="M587 708c-5 -67 -7 -135 -7 -168c0 -28 1 -55 3 -72h-23c-35 166 -112 217 -184 217h-13c-52 0 -61 -8 -61 -63v-516c0 -73 13 -83 81 -86v-20c-41 2 -111 3 -177 3c-72 0 -140 -1 -178 -3v20c60 3 71 13 71 86v496c0 73 -10 83 -71 86v20c116 -3 278 -3 350 -3
c61 0 147 0 209 3z" />
    <glyph glyph-name="uni0414" unicode="&#x414;" horiz-adv-x="667" 
d="M627 20h30c-5 -55 -7 -111 -7 -138c0 -28 1 -50 3 -67h-23c-26 142 -108 185 -194 185h-214c-86 0 -168 -43 -194 -185h-23c2 17 3 39 3 67c0 27 -2 83 -7 138h18c154 0 169 316 186 582c0 8 1 15 1 22c0 51 -19 62 -82 64v20c28 -2 71 -3 103 -3c30 0 59 3 88 3
c51 0 86 -3 143 -3s139 1 179 3v-20c-68 -3 -81 -13 -81 -86v-496c0 -73 11 -86 71 -86zM353 106v496c0 73 -21 86 -61 86h-13c-24 0 -47 -15 -51 -86c-18 -196 -18 -503 -142 -582h186c68 0 81 13 81 86z" />
    <glyph glyph-name="uni0415" unicode="&#x415;" horiz-adv-x="649" 
d="M600 168c0 -33 0 -102 7 -168c-68 3 -162 3 -229 3c-72 0 -234 0 -350 -3v20c61 3 71 13 71 86v496c0 73 -11 83 -71 86v20c116 -3 278 -3 350 -3c61 0 147 0 209 3c-5 -67 -7 -135 -7 -168c0 -28 1 -55 3 -72h-23c-25 166 -102 217 -184 217h-13c-52 0 -61 -8 -61 -63
v-256h10c75 0 124 74 136 132h23c-3 -44 -4 -74 -4 -97c0 -17 1 -31 1 -45c0 -33 1 -66 6 -142h-23c-12 74 -64 132 -139 132h-10v-260c0 -55 9 -63 61 -63h33c66 0 152 56 184 237h23c-2 -24 -3 -56 -3 -92z" />
    <glyph glyph-name="uni0416" unicode="&#x416;" horiz-adv-x="1059" 
d="M1062 53l13 -13c-41 -41 -89 -54 -150 -54c-89 0 -142 27 -154 108l-26 172c-12 70 -39 93 -114 96v-256c0 -73 10 -83 71 -86v-20c-38 2 -106 3 -178 3c-62 0 -128 -1 -167 -3v20c60 3 71 13 71 86v256c-75 -3 -102 -26 -114 -96l-26 -172c-12 -81 -65 -108 -154 -108
c-61 0 -109 13 -150 54l13 13c9 -9 18 -13 30 -13c24 0 37 15 46 65l29 139c20 90 96 124 236 132l-177 203c-63 71 -119 98 -164 110v19c27 -2 58 -3 101 -3c75 0 113 1 169 3v-19c-47 -2 -82 -26 -82 -66c0 -24 13 -55 44 -90l34 -38c71 -80 110 -113 165 -116v223
c0 73 -10 83 -71 86v20c39 -2 105 -3 167 -3c72 0 140 1 178 3v-20c-60 -3 -71 -13 -71 -86v-223c55 3 94 36 165 116l34 38c31 35 45 66 45 90c0 40 -36 64 -83 66v19c56 -2 94 -3 169 -3c43 0 74 1 101 3v-19c-45 -12 -101 -39 -164 -110l-177 -203
c140 -8 217 -42 236 -132l29 -139c9 -50 22 -65 46 -65c12 0 21 4 30 13z" />
    <glyph glyph-name="uni0417" unicode="&#x417;" horiz-adv-x="637" 
d="M333 722c145 0 247 -57 247 -151c0 -111 -145 -174 -253 -196c136 -2 291 -59 291 -185c0 -132 -172 -204 -338 -204c-65 0 -144 11 -202 55c-29 22 -60 59 -60 105c0 65 50 101 106 101c59 0 95 -32 95 -97c0 -49 -37 -90 -99 -106c30 -19 70 -33 131 -33
c105 0 178 55 178 182c0 84 -32 169 -118 173c-13 -7 -28 -13 -42 -13c-12 0 -22 5 -22 17c0 10 7 16 24 16c12 0 27 -3 41 -6c64 30 78 108 78 167c0 105 -45 140 -111 140c-120 0 -175 -100 -183 -229h-23c0 126 -1 197 -4 250h23c4 -40 10 -60 26 -60c6 0 11 3 19 9
c50 36 93 65 196 65z" />
    <glyph glyph-name="uni0418" unicode="&#x418;" horiz-adv-x="849" 
d="M821 708v-20c-60 -3 -71 -13 -71 -86v-496c0 -73 11 -83 71 -86v-20c-38 2 -106 3 -178 3c-62 0 -128 -1 -167 -3v20c60 3 71 13 71 86v460l-245 -476c2 -58 16 -67 71 -70v-20c-39 2 -105 3 -167 3c-72 0 -140 -1 -178 -3v20c60 3 71 13 71 86v496c0 73 -11 83 -71 86
v20c38 -2 106 -3 178 -3c62 0 128 1 167 3v-20c-60 -3 -71 -13 -71 -86v-463l245 476c-1 61 -15 70 -71 73v20c39 -2 105 -3 167 -3c72 0 140 1 178 3z" />
    <glyph glyph-name="uni0419" unicode="&#x419;" horiz-adv-x="849" 
d="M235 795c-36 16 -66 42 -66 78c0 40 38 74 96 74c56 0 98 -32 98 -76c0 -40 -35 -64 -74 -74c43 -10 96 -15 136 -15c39 0 92 5 135 16c-43 11 -72 36 -72 73c0 43 40 76 97 76c56 0 97 -33 97 -74c0 -35 -30 -61 -68 -78c-40 -18 -106 -33 -189 -33
c-84 0 -150 15 -190 33zM821 708v-20c-60 -3 -71 -13 -71 -86v-496c0 -73 11 -83 71 -86v-20c-38 2 -106 3 -178 3c-62 0 -128 -1 -167 -3v20c60 3 71 13 71 86v460l-245 -476c2 -58 16 -67 71 -70v-20c-39 2 -105 3 -167 3c-72 0 -140 -1 -178 -3v20c60 3 71 13 71 86v496
c0 73 -11 83 -71 86v20c38 -2 106 -3 178 -3c62 0 128 1 167 3v-20c-60 -3 -71 -13 -71 -86v-463l245 476c-1 61 -15 70 -71 73v20c39 -2 105 -3 167 -3c72 0 140 1 178 3z" />
    <glyph glyph-name="uni041A" unicode="&#x41a;" horiz-adv-x="750" 
d="M733 53l13 -13c-41 -41 -89 -54 -150 -54c-89 0 -142 27 -154 108l-26 172c-12 70 -39 93 -114 96v-256c0 -73 11 -83 71 -86v-20c-39 2 -105 3 -167 3c-72 0 -140 -1 -178 -3v20c61 3 71 13 71 86v496c0 73 -11 83 -71 86v20c38 -2 106 -3 178 -3c62 0 128 1 167 3v-20
c-61 -3 -71 -13 -71 -86v-223c55 3 99 36 171 116l34 38c31 35 44 66 44 90c0 40 -36 64 -82 66v19c56 -2 94 -3 169 -3c43 0 74 1 101 3v-19c-45 -12 -100 -40 -164 -110l-183 -203c140 -8 217 -42 236 -132l29 -139c9 -50 22 -65 46 -65c12 0 21 4 30 13z" />
    <glyph glyph-name="uni041B" unicode="&#x41b;" horiz-adv-x="741" 
d="M719 708v-20c-68 -3 -81 -13 -81 -86v-496c0 -73 13 -83 81 -86v-20c-40 2 -113 3 -186 3c-69 0 -138 -1 -179 -3v20c68 3 81 13 81 86v496c0 73 -21 86 -61 86h-3c-33 0 -56 -15 -61 -86c-21 -235 -17 -616 -209 -616c-71 0 -122 49 -122 109c0 64 50 105 112 105
c54 0 89 -27 89 -74c0 -60 -45 -103 -104 -113c5 -5 14 -8 25 -8c154 0 170 321 186 597c0 8 1 15 1 22c0 51 -19 62 -82 64v20c28 -2 71 -3 103 -3c30 0 59 3 88 3c51 0 86 -3 143 -3s139 1 179 3z" />
    <glyph glyph-name="uni041C" unicode="&#x41c;" horiz-adv-x="964" 
d="M937 708v-20c-61 -3 -71 -13 -71 -86v-496c0 -73 11 -83 71 -86v-20c-41 2 -111 3 -177 3c-72 0 -140 -1 -178 -3v20c68 3 81 13 81 86v512l-241 -617h-16l-282 642v-447c0 -134 6 -163 101 -176v-20c-27 2 -75 3 -112 3c-30 0 -63 -1 -83 -3v20c61 13 71 43 71 156v426
c0 73 -11 83 -71 86v20c20 -2 53 -3 83 -3c77 0 149 1 207 3l189 -425l164 422h87c66 0 136 1 177 3z" />
    <glyph glyph-name="uni041D" unicode="&#x41d;" horiz-adv-x="829" 
d="M801 708v-20c-61 -3 -71 -13 -71 -86v-496c0 -73 11 -83 71 -86v-20c-36 2 -100 3 -168 3c-66 0 -136 -1 -177 -3v20c61 3 71 13 71 86v240h-225v-240c0 -73 11 -83 71 -86v-20c-39 2 -105 3 -167 3c-72 0 -140 -1 -178 -3v20c61 3 71 13 71 86v496c0 73 -11 83 -71 86
v20c38 -2 106 -3 178 -3c62 0 128 1 167 3v-20c-61 -3 -71 -13 -71 -86v-236h225v236c0 73 -11 83 -71 86v20c41 -2 111 -3 177 -3c68 0 132 1 168 3z" />
    <glyph glyph-name="uni041E" unicode="&#x41e;" horiz-adv-x="827" 
d="M414 722c226 0 377 -133 377 -362c0 -224 -156 -374 -378 -374c-226 0 -377 133 -377 362c0 224 156 374 378 374zM410 704c-100 0 -164 -145 -164 -352c0 -213 77 -348 171 -348c100 0 164 145 164 352c0 213 -77 348 -171 348z" />
    <glyph glyph-name="uni041F" unicode="&#x41f;" horiz-adv-x="829" 
d="M801 708v-20c-60 -3 -71 -13 -71 -86v-496c0 -73 11 -83 71 -86v-20c-38 2 -106 3 -178 3c-62 0 -128 -1 -167 -3v20c60 3 71 13 71 86v496c0 73 -13 86 -81 86h-63c-68 0 -81 -13 -81 -86v-496c0 -73 11 -83 71 -86v-20c-39 2 -105 3 -167 3c-72 0 -140 -1 -178 -3v20
c60 3 71 13 71 86v496c0 73 -11 83 -71 86v20c38 -2 106 -3 178 -3c78 0 163 3 210 3s129 -3 207 -3c72 0 140 1 178 3z" />
    <glyph glyph-name="uni0420" unicode="&#x420;" horiz-adv-x="678" 
d="M302 286v-170c0 -82 19 -93 111 -93v-23c-45 1 -123 3 -206 3c-61 0 -125 -2 -179 -3v20c61 3 71 13 71 86v496c0 73 -11 83 -71 86v20c38 -2 108 -3 172 -3c67 0 135 2 161 2c203 0 301 -81 301 -197c0 -97 -68 -224 -323 -224h-37zM356 688c-45 0 -54 -17 -54 -86v-296
h27c102 0 123 91 123 193c0 126 -25 189 -96 189z" />
    <glyph glyph-name="uni0421" unicode="&#x421;" horiz-adv-x="716" 
d="M414 722c88 0 140 -31 184 -65c7 -6 14 -9 20 -9c14 0 22 19 25 60h23c-3 -53 -4 -124 -4 -250h-23c-9 96 -25 159 -92 203c-28 18 -60 30 -93 30c-153 0 -188 -189 -188 -339s35 -339 188 -339c33 0 65 12 93 30c67 41 83 108 92 217h23c0 -131 1 -205 4 -260h-23
c-3 41 -10 59 -24 59c-5 0 -13 -3 -21 -8c-49 -35 -99 -65 -185 -65c-226 0 -377 133 -377 362c0 224 156 374 378 374z" />
    <glyph glyph-name="uni0422" unicode="&#x422;" horiz-adv-x="699" 
d="M676 708c-5 -79 -7 -159 -7 -198c0 -28 1 -55 3 -72h-23c-47 188 -125 247 -197 247h-1v-572c0 -82 19 -93 111 -93v-20c-47 1 -132 3 -219 3c-83 0 -161 -2 -206 -3v20c92 0 111 11 111 93v572h-1c-73 0 -150 -58 -197 -247h-23c2 17 3 44 3 72c0 39 -2 119 -7 198
c95 -3 233 -3 327 -3s231 0 326 3z" />
    <glyph glyph-name="uni0423" unicode="&#x423;" horiz-adv-x="667" 
d="M610 705c26 0 57 1 77 3v-20c-31 -15 -61 -54 -105 -133l-187 -378l-47 -95c-17 -35 -30 -53 -44 -67c-21 -21 -54 -29 -89 -29c-88 0 -138 45 -138 99c0 58 51 95 112 95c66 0 109 -27 109 -74c0 -50 -41 -81 -93 -95c5 -4 16 -5 29 -5c41 0 69 28 93 78l21 43l-292 497
c-24 40 -48 60 -71 64v20c27 -2 117 -3 162 -3c48 0 143 1 173 3v-20c-21 -2 -39 -12 -39 -38c0 -12 3 -27 12 -46l158 -269l65 130c32 65 46 112 46 147c0 54 -34 74 -83 76v20c50 -2 85 -3 131 -3z" />
    <glyph glyph-name="uni0424" unicode="&#x424;" horiz-adv-x="973" 
d="M964 360c0 -165 -130 -269 -376 -290v-38c0 -73 11 -83 71 -86v-20c-39 2 -105 3 -167 3c-72 0 -140 -1 -178 -3v20c61 3 71 13 71 86v37c-249 20 -376 114 -376 289c0 159 130 259 376 280v38c0 73 -11 83 -71 86v20c38 -2 106 -3 178 -3c62 0 128 1 167 3v-20
c-61 -3 -71 -13 -71 -86v-37c250 -19 376 -110 376 -279zM219 362c0 -177 44 -253 166 -275v536c-129 -21 -166 -94 -166 -261zM754 356c0 172 -44 245 -166 266v-536c130 21 166 98 166 270z" />
    <glyph glyph-name="uni0425" unicode="&#x425;" horiz-adv-x="729" 
d="M439 429l253 -358c27 -38 36 -48 62 -50v-21c-33 1 -105 4 -171 4s-141 -3 -174 -4v21c42 0 62 4 62 17c0 4 -2 10 -7 17l-167 238l-61 -76c-36 -44 -51 -84 -51 -117c0 -45 31 -76 83 -80v-20c-38 2 -141 3 -173 3c-41 0 -75 -1 -97 -3v20c50 21 107 69 166 142l120 150
l-228 326c-27 38 -36 48 -62 50v21c35 -1 111 -4 181 -4c62 0 130 3 161 4v-21c-42 0 -63 -4 -63 -17c0 -4 3 -10 8 -17l145 -206l57 70c34 40 50 76 50 105c0 37 -25 61 -70 65v20c38 -2 101 -3 133 -3c41 0 75 1 97 3v-20c-46 -17 -98 -67 -135 -113z" />
    <glyph glyph-name="uni0426" unicode="&#x426;" horiz-adv-x="838" 
d="M801 708v-20c-60 -3 -71 -13 -71 -86v-496c0 -73 11 -86 71 -86h30c-5 -55 -7 -111 -7 -138c0 -28 1 -50 3 -67h-23c-26 142 -108 185 -194 185h-197c-47 0 -129 3 -207 3c-72 0 -140 -1 -178 -3v20c60 3 71 13 71 86v496c0 73 -11 83 -71 86v20c38 -2 106 -3 178 -3
c62 0 128 1 167 3v-20c-60 -3 -71 -13 -71 -86v-496c0 -73 13 -86 81 -86h63c68 0 81 13 81 86v496c0 73 -11 83 -71 86v20c39 -2 105 -3 167 -3c72 0 140 1 178 3z" />
    <glyph glyph-name="uni0427" unicode="&#x427;" horiz-adv-x="801" 
d="M774 708v-20c-61 -3 -71 -13 -71 -86v-496c0 -73 10 -83 71 -86v-20c-54 1 -118 3 -179 3c-83 0 -161 -2 -206 -3v23c92 0 111 11 111 93v182c-35 -14 -108 -36 -195 -36c-64 0 -121 12 -161 35c-52 30 -68 73 -68 144v161c0 73 -10 83 -71 86v20c38 -2 107 -3 174 -3
s132 1 171 3v-20c-60 -3 -71 -13 -71 -86v-193c0 -88 13 -115 88 -115c46 0 99 10 133 24v284c0 73 -11 83 -71 86v20c38 -2 106 -3 178 -3c62 0 128 1 167 3z" />
    <glyph glyph-name="uni0428" unicode="&#x428;" horiz-adv-x="1196" 
d="M1169 708v-20c-61 -3 -71 -13 -71 -86v-496c0 -73 10 -83 71 -86v-20c-36 2 -100 3 -168 3c-74 0 -152 -3 -197 -3c-38 0 -129 3 -201 3c-78 0 -160 -3 -207 -3c-45 0 -126 3 -200 3c-68 0 -132 -1 -168 -3v20c60 3 71 13 71 86v496c0 73 -11 83 -71 86v20
c38 -2 106 -3 178 -3c58 0 120 1 157 3v-20c-52 -3 -61 -13 -61 -86v-496c0 -73 13 -86 81 -86h33c68 0 81 13 81 86v496c0 73 -9 83 -61 86v20c37 -2 99 -3 157 -3c68 0 132 1 168 3v-20c-52 -3 -61 -13 -61 -86v-496c0 -73 20 -83 81 -86h33c68 0 81 13 81 86v496
c0 73 -9 83 -61 86v20c37 -2 99 -3 157 -3c72 0 140 1 178 3z" />
    <glyph glyph-name="uni0429" unicode="&#x429;" horiz-adv-x="1207" 
d="M1169 708v-20c-61 -3 -71 -13 -71 -86v-496c0 -73 11 -86 71 -86h30c-5 -55 -7 -111 -7 -138c0 -28 1 -50 3 -67h-23c-26 142 -108 185 -194 185h-174c-38 0 -129 3 -201 3c-78 0 -160 -3 -207 -3c-45 0 -126 3 -200 3c-68 0 -132 -1 -168 -3v20c60 3 71 13 71 86v496
c0 73 -11 83 -71 86v20c38 -2 106 -3 178 -3c58 0 120 1 157 3v-20c-52 -3 -61 -13 -61 -86v-496c0 -73 13 -86 81 -86h33c68 0 81 13 81 86v496c0 73 -9 83 -61 86v20c37 -2 99 -3 157 -3c68 0 132 1 168 3v-20c-52 -3 -61 -13 -61 -86v-496c0 -73 20 -86 81 -86h33
c68 0 81 13 81 86v496c0 73 -9 83 -61 86v20c37 -2 99 -3 157 -3c72 0 140 1 178 3z" />
    <glyph glyph-name="uni042A" unicode="&#x42a;" horiz-adv-x="832" 
d="M454 422h37c255 0 323 -112 323 -213c0 -122 -98 -208 -300 -208c-31 0 -89 2 -168 2c-56 0 -128 -1 -166 -3v20c60 3 71 13 71 86v579h-14c-68 0 -174 -52 -194 -217h-23c2 24 3 56 3 92c0 29 0 90 -7 148c62 -3 148 -3 209 -3c62 0 199 0 300 3v-20
c-61 -3 -71 -13 -71 -86v-180zM505 20c74 0 99 62 99 183c0 108 -20 199 -123 199h-27v-296c0 -66 9 -86 51 -86z" />
    <glyph glyph-name="uni042B" unicode="&#x42b;" horiz-adv-x="1081" 
d="M302 422h37c255 0 323 -97 323 -203c0 -128 -98 -218 -300 -218c-31 0 -89 2 -168 2c-56 0 -128 -1 -166 -3v20c60 3 71 13 71 86v496c0 73 -11 83 -71 86v20c38 -2 106 -3 178 -3c62 0 128 1 167 3v-20c-61 -3 -71 -13 -71 -86v-180zM1053 708v-20
c-61 -3 -71 -13 -71 -86v-496c0 -73 11 -83 71 -86v-20c-39 2 -105 3 -167 3c-72 0 -140 -1 -178 -3v20c61 3 71 13 71 86v496c0 73 -11 83 -71 86v20c38 -2 106 -3 178 -3c62 0 128 1 167 3zM353 20c74 0 99 62 99 183c0 108 -20 199 -123 199h-27v-296c0 -66 9 -86 51 -86
z" />
    <glyph glyph-name="uni042C" unicode="&#x42c;" horiz-adv-x="680" 
d="M302 422h37c255 0 323 -97 323 -203c0 -128 -98 -218 -300 -218c-31 0 -89 2 -168 2c-56 0 -128 -1 -166 -3v20c60 3 71 13 71 86v496c0 73 -11 83 -71 86v20c38 -2 106 -3 178 -3c62 0 128 1 167 3v-20c-61 -3 -71 -13 -71 -86v-180zM353 20c74 0 99 62 99 183
c0 108 -20 199 -123 199h-27v-296c0 -66 9 -86 51 -86z" />
    <glyph glyph-name="uni042D" unicode="&#x42d;" horiz-adv-x="714" 
d="M329 722c226 0 349 -133 349 -362c0 -224 -146 -374 -378 -374c-88 0 -140 31 -184 65c-7 6 -14 9 -19 9c-14 0 -22 -19 -26 -60h-23c3 41 4 104 4 200h23c17 -71 41 -120 92 -153c28 -18 60 -30 93 -30c153 0 188 189 188 339v48c-23 -98 -70 -143 -112 -143
c-62 0 -99 66 -150 66c-18 0 -49 -14 -60 -64l-17 2c16 133 61 198 112 198c61 0 94 -66 151 -66c26 0 56 14 74 47c-6 126 -34 251 -158 251c-33 0 -86 -11 -113 -30c-61 -43 -83 -93 -92 -187h-23c0 116 -1 181 -4 230h23c3 -41 11 -59 25 -59c5 0 12 3 20 8
c49 35 119 65 205 65z" />
    <glyph glyph-name="uni042E" unicode="&#x42e;" horiz-adv-x="1125" 
d="M742 722c208 0 347 -133 347 -362c0 -224 -144 -374 -348 -374c-208 0 -346 132 -347 360h-92v-240c0 -73 11 -83 71 -86v-20c-39 2 -105 3 -167 3c-72 0 -140 -1 -178 -3v20c61 3 71 13 71 86v496c0 73 -11 83 -71 86v20c38 -2 106 -3 178 -3c62 0 128 1 167 3v-20
c-61 -3 -71 -13 -71 -86v-236h93c7 214 148 356 347 356zM745 4c82 0 134 145 134 352c0 213 -63 348 -141 348c-82 0 -134 -145 -134 -352c0 -213 63 -348 141 -348z" />
    <glyph glyph-name="uni042F" unicode="&#x42f;" horiz-adv-x="727" 
d="M699 708v-20c-60 -3 -71 -13 -71 -86v-496c0 -73 10 -83 71 -86v-20c-38 2 -106 3 -178 3c-62 0 -128 -1 -167 -3v20c60 3 71 13 71 86v230h-55c-51 0 -68 -60 -80 -142l-15 -100c-12 -82 -67 -108 -152 -108c-59 0 -108 13 -146 54l13 13c9 -9 18 -13 31 -13
c23 0 36 15 45 65l19 104c16 86 91 115 222 130h1c-190 16 -243 92 -243 184c0 125 98 184 301 184c26 0 94 -2 161 -2c64 0 134 1 172 3zM371 688c-71 0 -96 -61 -96 -166c0 -92 21 -166 123 -166h27v246c0 69 -9 86 -54 86z" />
    <glyph glyph-name="uni0430" unicode="&#x430;" horiz-adv-x="530" 
d="M272 533c70 0 125 -10 163 -50c28 -29 33 -71 33 -140v-268c0 -32 4 -43 15 -43c12 0 22 8 31 15l10 -17c-32 -27 -73 -37 -130 -37c-75 0 -102 36 -103 76c-28 -46 -81 -76 -143 -76c-80 0 -126 46 -126 115c0 68 39 112 127 141c78 28 139 48 139 93v89
c0 31 -10 82 -74 82c-17 0 -38 -7 -53 -17c43 -16 67 -45 67 -90c0 -47 -38 -84 -96 -84c-50 0 -82 38 -82 87c0 42 26 73 62 92c41 21 90 32 160 32zM288 90v211c-8 -14 -25 -30 -39 -44c-30 -29 -49 -64 -49 -113c0 -52 22 -71 51 -71c14 0 25 4 37 17z" />
    <glyph glyph-name="uni0431" unicode="&#x431;" horiz-adv-x="589" 
d="M317 503c135 0 242 -60 242 -254c0 -192 -105 -263 -263 -263c-211 0 -251 128 -251 316c0 123 17 298 106 374c34 29 76 41 128 46c66 6 116 5 155 7c65 3 97 16 123 56l15 -3c-15 -90 -44 -139 -74 -163c-32 -26 -74 -35 -125 -38c-19 -1 -44 -2 -103 -7
c-149 -14 -179 -41 -205 -214c36 97 134 143 252 143zM302 6c40 0 70 78 70 247c0 168 -30 230 -70 230s-70 -62 -70 -230c0 -169 30 -247 70 -247z" />
    <glyph glyph-name="uni0432" unicode="&#x432;" horiz-adv-x="590" 
d="M345 269c163 -3 218 -49 218 -135c0 -83 -51 -134 -203 -134c-43 0 -117 4 -189 4c-56 0 -121 -3 -150 -4v21c41 0 56 16 56 72v332c0 56 -15 72 -56 72v21c27 -1 88 -4 140 -4c68 0 133 4 177 4c155 0 207 -49 207 -116c0 -68 -62 -123 -200 -133zM257 425v-154
c88 2 106 42 106 117c0 59 -11 109 -69 109c-28 0 -37 -12 -37 -72zM297 21c68 0 82 56 82 112c0 83 -31 118 -112 118h-10v-158c0 -61 10 -72 40 -72z" />
    <glyph glyph-name="uni0433" unicode="&#x433;" horiz-adv-x="467" 
d="M293 518h153c-5 -63 -7 -125 -7 -156c0 -28 1 -55 3 -72h-23c-35 148 -94 207 -133 207h-1c-19 0 -28 -13 -28 -52v-342c0 -65 32 -82 86 -82v-21c-37 1 -110 4 -184 4c-54 0 -111 -3 -138 -4v21c41 0 56 16 56 72v332c0 56 -15 72 -56 72v21c27 -1 88 -4 140 -4
s107 4 132 4z" />
    <glyph glyph-name="uni0434" unicode="&#x434;" horiz-adv-x="563" 
d="M550 21c-5 -47 -7 -93 -7 -116c0 -24 1 -47 3 -62h-23c-24 118 -71 157 -163 157h-164c-92 0 -139 -39 -163 -157h-23c2 15 3 38 3 62c0 23 -2 69 -7 116h19c44 0 76 33 94 74c39 86 47 212 56 330v11c0 47 -28 61 -79 61v21c11 -1 36 -2 65 -2c24 0 45 2 95 2
c62 0 99 -4 137 -4c44 0 102 3 127 4v-21c-35 0 -46 -15 -46 -71v-333c0 -56 21 -72 76 -72zM294 93v332c0 56 -12 72 -46 72h-9c-39 0 -38 -19 -43 -72c-11 -126 -18 -247 -57 -334c-15 -32 -34 -56 -56 -70h145c48 0 66 16 66 72z" />
    <glyph glyph-name="uni0435" unicode="&#x435;" 
d="M333 95c27 0 77 6 121 67l17 -6c-25 -81 -90 -170 -209 -170c-128 0 -231 71 -231 273c0 192 112 274 257 274c117 0 189 -63 189 -224h-258c-1 -12 -1 -24 -1 -36c0 -141 61 -178 115 -178zM281 510c-35 0 -59 -50 -66 -182h116c1 98 -13 182 -50 182z" />
    <glyph glyph-name="uni0436" unicode="&#x436;" horiz-adv-x="911" 
d="M851 76c14 -35 23 -51 51 -55v-21c-28 -4 -55 -6 -80 -6c-97 0 -142 31 -163 110c-8 31 -19 89 -52 125c-18 20 -38 28 -62 28v-164c0 -56 12 -72 46 -72v-21c-27 1 -89 4 -139 4s-108 -3 -133 -4v21c34 0 46 16 46 72v164c-3 0 -6 1 -9 1c-23 0 -46 -8 -64 -29
c-31 -35 -46 -97 -52 -125c-18 -80 -72 -110 -164 -110c-24 0 -51 2 -79 6v21c28 4 37 20 51 55c28 70 33 117 64 153c35 41 91 52 144 52c16 0 32 -2 47 -3c-32 17 -45 46 -58 97c-24 93 -25 133 -95 137c42 -22 58 -56 58 -87c0 -59 -57 -80 -97 -80c-51 0 -89 33 -89 92
c0 56 34 96 115 96c87 0 100 -47 124 -141c19 -74 29 -109 104 -117v150c0 56 -15 72 -56 72v21c29 -1 97 -4 151 -4s114 3 141 4v-21c-41 0 -56 -16 -56 -72v-149c62 10 73 40 93 116c24 94 37 141 124 141c81 0 115 -40 115 -96c0 -59 -38 -92 -89 -92
c-40 0 -97 21 -97 80c0 31 16 65 58 87c-69 -4 -72 -46 -95 -137c-13 -53 -26 -80 -57 -97c16 2 32 3 48 3c53 0 107 -11 142 -52c31 -36 37 -86 64 -153z" />
    <glyph glyph-name="uni0437" unicode="&#x437;" horiz-adv-x="503" 
d="M260 533c110 0 195 -36 195 -119c0 -94 -111 -126 -223 -137c149 0 251 -32 251 -130c0 -96 -97 -161 -272 -161c-57 0 -105 7 -142 30c-34 21 -50 49 -50 82c0 46 32 82 92 82c56 0 96 -32 96 -81c0 -44 -33 -73 -72 -84c9 -3 22 -7 44 -7c70 0 122 42 122 126
c0 55 -22 114 -85 134c-13 -7 -28 -13 -42 -13c-13 0 -22 5 -22 17s9 16 23 16c13 0 28 -3 42 -6c44 27 58 67 58 116c0 66 -26 96 -78 96c-80 0 -115 -70 -122 -153h-23c0 114 -2 153 -5 184h23c4 -29 9 -44 22 -44c8 0 19 7 34 17c39 25 76 35 134 35z" />
    <glyph glyph-name="uni0438" unicode="&#x438;" horiz-adv-x="674" 
d="M654 518v-21c-41 0 -56 -16 -56 -72v-332c0 -56 15 -72 56 -72v-21c-27 1 -88 4 -140 4c-56 0 -115 -3 -142 -4v21c34 0 46 16 46 72v301l-161 -317c2 -43 15 -56 46 -56v-21c-25 1 -80 4 -132 4c-56 0 -121 -3 -150 -4v21c41 0 56 16 56 72v332c0 56 -15 72 -56 72v21
c27 -1 88 -4 140 -4c56 0 115 3 142 4v-21c-34 0 -46 -16 -46 -72v-304l161 315c-2 47 -15 61 -46 61v21c25 -1 80 -4 132 -4c56 0 121 3 150 4z" />
    <glyph glyph-name="uni0439" unicode="&#x439;" horiz-adv-x="674" 
d="M168 627c-30 16 -56 46 -56 84c0 51 34 87 87 87c49 0 87 -36 87 -87c0 -41 -27 -70 -64 -83c37 -10 82 -15 116 -15c33 0 78 5 115 16c-37 13 -62 42 -62 82c0 51 36 87 87 87s87 -36 87 -87c0 -38 -28 -68 -58 -84c-39 -21 -97 -34 -169 -34c-73 0 -131 13 -170 34z
M654 518v-21c-41 0 -56 -16 -56 -72v-332c0 -56 15 -72 56 -72v-21c-27 1 -88 4 -140 4c-56 0 -115 -3 -142 -4v21c34 0 46 16 46 72v301l-161 -317c2 -43 15 -56 46 -56v-21c-25 1 -80 4 -132 4c-56 0 -121 -3 -150 -4v21c41 0 56 16 56 72v332c0 56 -15 72 -56 72v21
c27 -1 88 -4 140 -4c56 0 115 3 142 4v-21c-34 0 -46 -16 -46 -72v-304l161 315c-2 47 -15 61 -46 61v21c25 -1 80 -4 132 -4c56 0 121 3 150 4z" />
    <glyph glyph-name="uni043A" unicode="&#x43a;" horiz-adv-x="642" 
d="M583 76c14 -35 23 -51 51 -55v-21c-27 -4 -53 -6 -78 -6c-88 0 -146 26 -165 110c-5 23 -22 93 -51 125c-14 16 -37 28 -69 28c-4 0 -9 -1 -14 -1v-163c0 -56 15 -72 56 -72v-21c-29 1 -95 4 -149 4s-116 -3 -143 -4v21c41 0 56 16 56 72v332c0 56 -15 72 -56 72v21
c29 -1 97 -4 151 -4s114 3 141 4v-21c-41 0 -56 -16 -56 -72v-151c80 5 93 37 113 118c23 94 38 141 125 141c79 0 114 -40 114 -96c0 -59 -38 -92 -89 -92c-40 0 -97 21 -97 80c0 31 16 65 58 87c-69 -4 -72 -46 -95 -137c-12 -47 -22 -78 -57 -97c17 2 32 3 47 3
c71 0 116 -21 143 -52c31 -36 37 -86 64 -153z" />
    <glyph glyph-name="uni043B" unicode="&#x43b;" horiz-adv-x="638" 
d="M611 518v-21c-35 0 -46 -16 -46 -72v-332c0 -56 12 -72 46 -72v-21c-25 1 -79 4 -133 4s-120 -3 -149 -4v21c41 0 56 16 56 72v332c0 56 -12 72 -46 72h-9c-39 0 -38 -19 -43 -72c-11 -126 -22 -246 -57 -335c-28 -70 -66 -104 -118 -104c-49 0 -113 31 -113 111
c0 63 40 100 96 100c59 0 87 -42 87 -88c0 -53 -38 -84 -80 -102c3 -1 8 -2 15 -2c43 0 73 40 93 90c35 86 48 221 56 330c0 3 1 7 1 10c0 48 -28 62 -80 62v21c11 -1 38 -2 60 -2c32 0 50 2 98 2c68 0 97 -4 142 -4c39 0 99 3 124 4z" />
    <glyph glyph-name="uni043C" unicode="&#x43c;" horiz-adv-x="765" 
d="M737 518v-21c-34 0 -46 -16 -46 -72v-332c0 -56 12 -72 46 -72v-21c-25 1 -80 4 -132 4c-56 0 -121 -3 -150 -4v21c41 0 56 16 56 72v368l-194 -466h-16l-200 460v-289c0 -83 17 -143 101 -146v-20c-30 2 -69 3 -111 3c-26 0 -55 -1 -73 -3v20c52 3 61 73 61 156v237
c0 73 -9 83 -61 86v20c18 -2 47 -3 73 -3c65 0 123 1 172 3l125 -300l123 297c31 -2 73 -2 104 -2c48 0 99 3 122 4z" />
    <glyph glyph-name="uni043D" unicode="&#x43d;" horiz-adv-x="654" 
d="M634 518v-21c-41 0 -56 -16 -56 -72v-332c0 -56 15 -72 56 -72v-21c-27 1 -88 4 -140 4c-56 0 -115 -3 -142 -4v21c34 0 46 16 46 72v164h-141v-164c0 -56 12 -72 46 -72v-21c-25 1 -80 4 -132 4c-56 0 -121 -3 -150 -4v21c41 0 56 16 56 72v332c0 56 -15 72 -56 72v21
c27 -1 88 -4 140 -4c56 0 115 3 142 4v-21c-34 0 -46 -16 -46 -72v-148h141v148c0 56 -12 72 -46 72v21c25 -1 80 -4 132 -4c56 0 121 3 150 4z" />
    <glyph glyph-name="uni043E" unicode="&#x43e;" horiz-adv-x="576" 
d="M288 533c155 0 257 -72 257 -274s-102 -273 -257 -273s-257 71 -257 273s102 274 257 274zM288 513c-40 0 -70 -75 -70 -254s30 -253 70 -253s70 74 70 253s-30 254 -70 254z" />
    <glyph glyph-name="uni043F" unicode="&#x43f;" horiz-adv-x="654" 
d="M634 518v-21c-41 0 -56 -16 -56 -72v-332c0 -56 15 -72 56 -72v-21c-27 1 -88 4 -140 4c-56 0 -115 -3 -142 -4v21c34 0 46 16 46 72v332c0 56 -12 72 -46 72h-49c-34 0 -46 -16 -46 -72v-332c0 -56 12 -72 46 -72v-21c-25 1 -80 4 -132 4c-56 0 -121 -3 -150 -4v21
c41 0 56 16 56 72v332c0 56 -15 72 -56 72v21c27 -1 88 -4 140 -4c44 0 90 4 162 4c75 0 113 -4 161 -4c56 0 121 3 150 4z" />
    <glyph glyph-name="uni0440" unicode="&#x440;" horiz-adv-x="611" 
d="M406 533c99 0 174 -81 174 -251c0 -227 -108 -296 -233 -296c-34 0 -68 5 -93 19v-83c0 -65 32 -82 86 -82v-21c-37 1 -110 4 -184 4c-54 0 -111 -3 -138 -4v21c41 0 56 16 56 72v497c0 60 -14 88 -56 88v21c21 -2 42 -3 62 -3c67 0 124 4 174 14v-71c31 51 84 75 152 75
zM289 16c74 0 104 81 104 243c0 177 -30 222 -67 222s-72 -30 -72 -72v-385c10 -6 23 -8 35 -8z" />
    <glyph glyph-name="uni0441" unicode="&#x441;" 
d="M287 533c58 0 105 -14 132 -30c36 -21 60 -58 60 -104c0 -55 -40 -97 -96 -97c-59 0 -92 37 -92 90c0 50 38 88 82 100c-9 7 -22 12 -40 12c-95 0 -116 -131 -116 -231c0 -141 66 -178 125 -178c27 0 77 6 121 67l17 -6c-25 -81 -90 -170 -209 -170
c-134 0 -241 71 -241 273c0 192 112 274 257 274z" />
    <glyph glyph-name="uni0442" unicode="&#x442;" horiz-adv-x="602" 
d="M467 518h113c-5 -63 -7 -125 -7 -156c0 -28 1 -55 3 -72h-23c-35 148 -94 207 -133 207h-29v-394c0 -65 32 -82 86 -82v-21c-36 1 -104 4 -175 4s-141 -3 -177 -4v21c54 0 86 7 86 72v404h-29c-39 0 -98 -59 -133 -207h-23c2 17 3 44 3 72c0 31 -2 93 -7 156h113
c32 0 99 -4 165 -4c67 0 135 4 167 4z" />
    <glyph glyph-name="uni0443" unicode="&#x443;" horiz-adv-x="528" 
d="M448 515c24 0 62 1 77 4v-21c-25 -9 -49 -32 -71 -97l-125 -372l-42 -121c-12 -34 -25 -57 -44 -72c-18 -14 -44 -24 -93 -24c-55 0 -136 24 -136 94c0 47 39 77 98 77c55 0 90 -25 90 -74c0 -29 -20 -63 -65 -77c10 -2 26 -2 34 -2c43 0 77 25 95 80l5 16l-233 516
c-23 51 -44 56 -58 56v21c53 -4 113 -6 163 -6c62 0 105 3 145 6v-21c-30 0 -60 0 -60 -22c0 -4 1 -10 4 -16l123 -293l42 128c14 41 19 74 19 102c0 65 -31 98 -73 101v21c28 -3 81 -4 105 -4z" />
    <glyph glyph-name="uni0444" unicode="&#x444;" horiz-adv-x="875" 
d="M659 533c118 0 185 -81 185 -257c0 -219 -103 -290 -226 -290c-31 0 -64 5 -90 19v-83c0 -65 32 -82 86 -82v-21c-35 1 -106 4 -176 4s-141 -3 -176 -4v21c54 0 86 17 86 82v97c-25 -22 -63 -33 -107 -33c-121 0 -209 81 -209 273c0 185 81 274 216 274
c40 0 73 -8 100 -26v93c0 60 -14 88 -56 88v21c21 -2 40 -3 69 -3c58 0 117 4 167 14v-220c29 23 88 33 131 33zM299 28c18 0 37 7 49 12v447c-15 9 -32 13 -46 13c-57 0 -83 -77 -83 -244c0 -181 31 -228 80 -228zM561 16c70 0 96 81 96 247c0 181 -31 228 -81 228
c-15 0 -37 -4 -48 -11v-456c10 -6 22 -8 33 -8z" />
    <glyph glyph-name="uni0445" unicode="&#x445;" horiz-adv-x="546" 
d="M340 317l164 -246c12 -17 30 -46 52 -50v-21c-25 1 -81 4 -131 4c-54 0 -111 -3 -138 -4v21c19 0 30 7 30 18c0 5 -1 10 -5 16l-98 148l-9 -11c-26 -33 -38 -65 -38 -93c0 -43 29 -76 72 -79v-20c-41 2 -128 3 -163 3c-29 0 -49 -1 -67 -3v20c34 17 61 42 94 82l101 116
l-153 230c-19 29 -32 46 -52 50v21c29 -1 93 -4 151 -4c46 0 95 3 118 4v-21c-19 0 -30 -7 -30 -18c0 -5 1 -10 5 -16l87 -131l17 20c25 31 37 61 37 85c0 34 -22 58 -63 61v20c41 -2 98 -3 133 -3c29 0 49 1 67 3v-20c-30 -13 -61 -42 -94 -82z" />
    <glyph glyph-name="uni0446" unicode="&#x446;" horiz-adv-x="668" 
d="M634 518v-21c-41 0 -56 -16 -56 -72v-332c0 -56 21 -72 76 -72c-5 -47 -7 -93 -7 -116c0 -24 1 -47 3 -62h-23c-24 118 -71 158 -173 158c-38 0 -58 -1 -122 -1c-75 0 -113 4 -161 4c-56 0 -121 -3 -150 -4v21c41 0 56 16 56 72v332c0 56 -15 72 -56 72v21
c27 -1 88 -4 140 -4c56 0 115 3 142 4v-21c-34 0 -46 -16 -46 -72v-332c0 -56 12 -72 46 -72h49c34 0 46 16 46 72v332c0 56 -12 72 -46 72v21c25 -1 80 -4 132 -4c56 0 121 3 150 4z" />
    <glyph glyph-name="uni0447" unicode="&#x447;" horiz-adv-x="619" 
d="M598 518v-21c-41 0 -56 -16 -56 -72v-332c0 -56 15 -72 56 -72v-21c-27 1 -81 4 -145 4s-140 -3 -177 -4v21c54 0 86 17 86 82v108c-31 -12 -93 -25 -156 -25c-55 0 -93 10 -116 32c-27 25 -29 59 -29 106v101c0 56 -15 72 -56 72v21c27 -1 87 -4 141 -4s114 3 141 4v-21
c-34 0 -46 -16 -46 -72v-102c0 -71 5 -102 66 -102c21 0 41 4 55 11v193c0 56 -12 72 -46 72v21c25 -1 79 -4 133 -4s120 3 149 4z" />
    <glyph glyph-name="uni0448" unicode="&#x448;" horiz-adv-x="976" 
d="M955 518v-21c-41 0 -56 -16 -56 -72v-332c0 -56 15 -72 56 -72v-21c-27 1 -90 4 -135 4c-53 0 -94 -4 -166 -4c-73 0 -119 4 -161 4s-88 -4 -162 -4s-108 4 -165 4c-49 0 -116 -3 -145 -4v21c41 0 56 16 56 72v332c0 56 -15 72 -56 72v21c27 -1 87 -4 141 -4s114 3 141 4
v-21c-34 0 -46 -16 -46 -72v-332c0 -56 12 -72 46 -72h49c34 0 46 16 46 72v332c0 56 -12 72 -46 72v21c25 -1 80 -4 132 -4s113 3 140 4v-21c-34 0 -46 -16 -46 -72v-332c0 -56 12 -72 46 -72h49c34 0 46 16 46 72v332c0 56 -12 72 -46 72v21c25 -1 79 -4 133 -4
s120 3 149 4z" />
    <glyph glyph-name="uni0449" unicode="&#x449;" horiz-adv-x="990" 
d="M955 518v-21c-41 0 -56 -16 -56 -72v-332c0 -56 21 -72 76 -72c-5 -47 -7 -92 -7 -120c0 -19 1 -43 3 -58h-23c-25 118 -67 158 -178 158c-18 0 -71 -1 -112 -1c-82 0 -121 4 -164 4c-44 0 -89 -4 -163 -4s-108 4 -165 4c-49 0 -116 -3 -145 -4v21c41 0 56 16 56 72v332
c0 56 -15 72 -56 72v21c27 -1 87 -4 141 -4s114 3 141 4v-21c-34 0 -46 -16 -46 -72v-332c0 -56 12 -72 46 -72h49c34 0 46 16 46 72v332c0 56 -12 72 -46 72v21c25 -1 80 -4 132 -4s113 3 140 4v-21c-34 0 -46 -16 -46 -72v-332c0 -56 12 -72 46 -72h49c34 0 46 16 46 72
v332c0 56 -12 72 -46 72v21c25 -1 79 -4 133 -4s120 3 149 4z" />
    <glyph glyph-name="uni044A" unicode="&#x44a;" horiz-adv-x="720" 
d="M460 301c170 0 246 -62 246 -142c0 -76 -70 -159 -264 -159c-43 0 -83 4 -140 4c-71 0 -141 -3 -177 -4v21c54 0 86 7 86 72v352c0 40 -6 52 -26 52h-3c-39 0 -98 -59 -133 -207h-23c2 17 3 44 3 72c0 31 -2 93 -7 156c37 0 83 0 136 -1c58 -1 130 -3 159 -3
c48 0 105 3 130 4v-21c-41 0 -56 -16 -56 -72v-126c28 1 50 2 69 2zM428 21c76 0 94 62 94 127c0 95 -35 131 -129 131h-2l-1 -221c0 -32 7 -37 38 -37z" />
    <glyph glyph-name="uni044B" unicode="&#x44b;" horiz-adv-x="879" 
d="M324 301c170 0 246 -62 246 -142c0 -76 -70 -159 -264 -159c-43 0 -83 4 -140 4c-50 0 -111 -3 -138 -4v21c34 0 46 16 46 72v332c0 56 -12 72 -46 72v21c25 -1 79 -4 133 -4s120 3 149 4v-21c-41 0 -56 -16 -56 -72v-126c28 1 51 2 70 2zM859 518v-21
c-41 0 -56 -16 -56 -72v-332c0 -56 15 -72 56 -72v-21c-29 1 -94 4 -150 4c-52 0 -115 -3 -142 -4v21c41 0 56 16 56 72v332c0 56 -15 72 -56 72v21c29 -1 96 -4 152 -4c52 0 113 3 140 4zM292 21c76 0 94 62 94 127c0 95 -35 131 -129 131h-3v-221c0 -32 7 -37 38 -37z" />
    </font>
</defs>
</svg>
