<?xml version="1.0" standalone="no"?>
<!DOCTYPE svg PUBLIC "-//W3C//DTD SVG 1.1//EN" "http://www.w3.org/Graphics/SVG/1.1/DTD/svg11.dtd" >
<svg version="1.1" xmlns="http://www.w3.org/2000/svg">
<metadata>
Created by FontForge 20120731 at Fri Aug  1 16:50:28 2014

Linux Libertine by Philipp H. Poll,
Open Font under Terms of following Free Software Licenses:
GPL (General Public License) with font-exception and OFL (Open Font License).
Created with FontForge (http://fontforge.sf.net)
Sept 2003, 2004, 2005, 2006, 2007, 2008, 2009, 2010, 2011
</metadata>
<defs>
<font id="linuxbiolinum" horiz-adv-x="0" >
  <font-face 
    font-family="Linux Biolinum O"
    font-weight="400"
    font-stretch="normal"
    units-per-em="2048"
    panose-1="2 0 5 3 0 0 0 0 0 0"
    ascent="1638"
    descent="-410"
    x-height="885"
    cap-height="1327"
    bbox="-2216 -549 12638 1829"
    underline-thickness="81"
    underline-position="-201"
    unicode-range="U+0020-FFFD"
  />
<missing-glyph horiz-adv-x="1024" 
d="M102 1235v-1040l349 520zM164 102h696l-348 521zM573 715l349 -520v1040zM512 807l348 518h-696zM0 0v1430h1024v-1430h-1024z" />
    <glyph glyph-name="ellipsis" unicode="&#x2e;&#x2e;&#x2e;" horiz-adv-x="1533" 
d="M111 90v8q30 77 110 111h8q84 -33 111 -111v-8q-27 -86 -101 -108q-6 -2 -10 -2h-8q-76 17 -100 79q-6 15 -10 31zM653 90v8q30 77 111 111h8q84 -33 111 -111v-8q-27 -86 -102 -108q-6 -2 -9 -2h-8q-76 17 -101 79q-6 15 -10 31zM1194 90v8q30 77 111 111h8
q84 -33 110 -111v-8q-27 -86 -101 -108q-6 -2 -9 -2h-8q-76 17 -101 79q-6 15 -10 31z" />
    <glyph glyph-name="exclamdbl" unicode="&#x21;&#x21;" horiz-adv-x="841" 
d="M608 1352q71 0 102 -75q13 -34 13 -75q0 -71 -33 -261q-13 -73 -20 -134q-8 -64 -32 -360q-1 -9 -1 -13q-6 -39 -29 -41q-24 3 -28 27q-1 14 -6 77q-14 201 -25 310q-8 77 -28 186q-23 129 -23 209q0 116 81 144q15 6 29 6zM494 94v8q30 77 110 111h8q84 -33 111 -111v-8
q-27 -86 -101 -108q-6 -2 -10 -2h-8q-76 17 -100 79q-6 15 -10 31zM231 1348q71 0 102 -75q13 -34 13 -75q0 -71 -33 -261q-13 -73 -20 -134q-8 -64 -32 -360q-1 -9 -1 -13q-6 -39 -29 -41q-24 3 -28 27q-1 14 -6 77q-14 201 -25 310q-8 77 -28 185q-23 129 -23 210
q0 116 81 144q15 6 29 6zM117 90v8q30 77 110 111h9q84 -33 110 -111v-8q-27 -86 -101 -108q-6 -2 -9 -2h-9q-76 17 -100 79q-6 15 -10 31z" />
    <glyph glyph-name="question_question" unicode="&#x3f;&#x3f;" horiz-adv-x="1599" 
d="M1169 1268q-141 -2 -251 -193l-27 2l-33 137l6 9q157 122 324 127q215 0 299 -152q38 -70 39 -158q0 -154 -164 -282q-21 -16 -53 -39q-85 -64 -107 -103q-36 -72 -37 -149v-90q-4 -19 -26 -21q-25 3 -27 21v94q0 159 72 258q29 38 65 72q106 98 120 188q3 22 3 43
q0 137 -97 203q-49 32 -106 33zM1024 90v8q30 77 111 111h8q84 -33 110 -111v-8q-27 -86 -101 -108q-6 -2 -9 -2h-8q-76 17 -101 79q-6 15 -10 31zM399 1268q-141 -2 -252 -193l-26 2l-33 137l6 9q157 122 324 127q215 0 299 -152q38 -70 39 -158q0 -154 -164 -282
q-21 -16 -53 -39q-85 -64 -107 -103q-36 -72 -37 -149v-90q-4 -19 -26 -21q-25 3 -27 21v94q0 159 72 258q29 38 65 72q106 98 120 188q3 22 3 43q0 137 -97 203q-49 32 -106 33zM254 90v8q30 77 111 111h8q84 -33 110 -111v-8q-27 -86 -101 -108q-6 -2 -9 -2h-8
q-76 17 -101 79q-6 15 -10 31z" />
    <glyph glyph-name="question_exclam" unicode="&#x3f;&#x21;" horiz-adv-x="1216" 
d="M983 1352q71 0 101 -75q13 -34 14 -75q0 -71 -34 -261q-13 -73 -20 -134q-8 -64 -31 -360q-1 -9 -1 -13q-6 -39 -29 -41q-24 3 -29 27q-1 14 -5 77q-14 201 -25 310q-8 77 -28 186q-23 129 -24 209q0 116 81 144q16 6 30 6zM868 94v8q30 77 111 111h8q84 -33 111 -111v-8
q-27 -86 -101 -108q-6 -2 -10 -2h-8q-76 17 -101 79q-6 15 -10 31zM399 1268q-141 -2 -252 -193l-26 2l-33 137l6 9q157 122 324 127q215 0 299 -152q38 -70 39 -158q0 -154 -164 -282q-21 -16 -53 -39q-85 -64 -107 -103q-36 -72 -37 -149v-90q-4 -19 -26 -21q-25 3 -27 21
v94q0 159 72 258q29 38 65 72q106 98 120 188q3 22 3 43q0 137 -97 203q-49 32 -106 33zM254 90v8q30 77 111 111h8q84 -33 110 -111v-8q-27 -86 -101 -108q-6 -2 -9 -2h-8q-76 17 -101 79q-6 15 -10 31z" />
    <glyph glyph-name="exclam_question" unicode="&#x21;&#x3f;" horiz-adv-x="1202" 
d="M231 1348q71 0 102 -75q13 -34 13 -75q0 -71 -33 -261q-13 -73 -20 -134q-8 -64 -32 -360q-1 -9 -1 -13q-6 -39 -29 -41q-24 3 -28 27q-1 14 -6 77q-14 201 -25 310q-8 77 -28 185q-23 129 -23 210q0 116 81 144q15 6 29 6zM117 90v8q30 77 110 111h9q84 -33 110 -111v-8
q-27 -86 -101 -108q-6 -2 -9 -2h-9q-76 17 -100 79q-6 15 -10 31zM772 1264q-141 -2 -252 -193l-26 2l-33 137l6 9q157 122 324 127q215 0 299 -152q38 -70 38 -158q0 -154 -164 -282q-21 -16 -53 -39q-85 -64 -106 -103q-36 -72 -37 -149v-90q-4 -19 -27 -21q-25 3 -26 21
v94q0 159 72 258q29 38 65 72q106 98 120 188q3 22 3 43q0 137 -97 203q-49 32 -106 33zM627 86v8q30 77 110 111h8q84 -33 111 -111v-8q-27 -86 -101 -108q-6 -2 -10 -3h-8q-76 17 -100 80q-6 15 -10 31z" />
    <glyph glyph-name="centigrade" unicode="&#xb0;C" horiz-adv-x="1626" 
d="M1083 1184q98 0 195.5 -20.5t146.5 -41.5l50 -20l4 -4q-32 -138 -37 -197v-8l-19 -2q-107 204 -366 205q-141 0 -248 -117q-126 -139 -127 -379q0 -283 144 -425q100 -96 247 -97q206 0 336 102q41 33 80 76l43 -31q-189 -243 -457 -243q-308 0 -473 227
q-112 157 -113 358q0 266 191 449q175 167 403 168zM430 1141q0 88 -65 130q-32 19 -70 19q-90 0 -125 -87q-12 -31 -12 -62q0 -86 69 -126q32 -17 68 -18q85 0 122 82q13 31 13 62zM90 1143q0 113 95 173q51 31 110 32q114 0 172 -97q30 -51 31 -108q0 -113 -95 -172
q-50 -30 -108 -31q-112 0 -172 93q-32 51 -33 110z" />
    <glyph glyph-name="fahrenheit" unicode="&#xb0;F" horiz-adv-x="1581" 
d="M1303 1161q86 0 114 4l2 -4q-2 -28 -2 -61q0 -32 2 -47l-2 -6l-328 19q-87 3 -161 3q-14 -53 -15 -268v-148q209 0 400 19h2l4 -6q-4 -18 -4 -52q0 -37 4 -53l-4 -6q-187 18 -402 18v-213q0 -244 17 -360l-2 -6q-4 0 -97 6l-98 -6l-2 6q18 126 19 360v441q0 227 -19 360
l4 4q4 0 96 -4h472zM430 1141q0 88 -65 130q-32 19 -70 19q-90 0 -125 -87q-12 -31 -12 -62q0 -86 69 -126q32 -17 68 -18q85 0 122 82q13 31 13 62zM90 1143q0 113 95 173q51 31 110 32q114 0 172 -97q30 -51 31 -108q0 -113 -95 -172q-50 -30 -108 -31q-112 0 -172 93
q-32 51 -33 110z" />
    <glyph glyph-name="f_t" unicode="ft" horiz-adv-x="1290" 
d="M303 1274q116 155 315 156q62 -1 93 -19l2 -6q-25 -45 -58 -168l-22 -2q-42 70 -119 72q-126 0 -160 -133q-9 -38 -10 -78q0 -17 5 -83q6 -85 5 -114v-20h99h122h213q0 163 -14 247l4 7q61 5 144 41q13 6 22 10q17 -4 19 -21q-10 -135 -11 -284h240q14 -3 16 -13v-51
q-3 -25 -49 -27h-207v-292q0 -72 -4 -182q-2 -66 -2 -91q0 -120 51 -131q9 -2 17 -2q99 1 161 36l25 -50q-105 -96 -258 -96q-108 0 -146 92q-13 33 -14 69q0 25 3 113q4 148 3 219v315h-243h-90h-101v-378q0 -273 21 -410l-4 -6q-4 0 -99 6l-100 -6l-2 6q20 131 20 410v378
h-135q-9 4 -10 13v37q9 36 47 41h98v82q0 145 62 241q17 25 51 72z" />
    <glyph glyph-name="t_t" unicode="tt" horiz-adv-x="1216" 
d="M776 879q0 163 -14 247l4 7q61 5 144 41q13 6 22 10q17 -4 18 -21q-10 -135 -10 -284h219q14 -3 17 -13v-51q-3 -25 -50 -27h-186v-292q0 -72 -4 -178q-2 -63 -2 -89q0 -111 46 -124q11 -2 21 -3q79 1 141 37l25 -57q-112 -102 -237 -102q-108 0 -147 92q-13 33 -13 69
q0 25 2 113q4 148 4 219v315h-248h-65h-121v-292q0 -72 -4 -178q-2 -63 -2 -89q0 -111 46 -124q11 -2 21 -3q79 1 141 37l25 -57q-112 -102 -237 -102q-108 0 -147 92q-13 33 -13 69q0 25 2 113q4 148 4 219v315h-129q-7 4 -8 9v73q3 7 6 9h131q0 163 -14 247l4 7
q61 5 144 41q13 6 22 10q17 -4 18 -21q-10 -135 -10 -284h119h100h215z" />
    <glyph glyph-name="Q_u" unicode="Qu" horiz-adv-x="2553" 
d="M727 1257q-192 0 -306 -169q-103 -157 -104 -418q0 -331 199 -498q124 -102 281 -102q218 0 326 204q76 145 77 361q0 481 -296 593q-80 29 -177 29zM2234 188q-103 -159 -240 -198q-36 -10 -69 -10q-209 0 -257 188q-11 46 -11 96v246q0 238 -19 369l4 6q37 -6 97 -6
q59 0 96 6l4 -6q-18 -124 -18 -369v-203q0 -190 99 -210q17 -3 38 -3q108 0 225 138q32 39 55 77v201q0 234 -18 369l4 6q37 -6 96 -6t97 6l4 -6q-18 -124 -19 -369v-117q0 -206 35 -393l-4 -6q-41 6 -91 6q-26 0 -71 -6q-18 0 -18 6l-10 182zM1095 66q278 -178 667 -267
q109 -25 214 -39v-12q-134 -71 -192 -117q-450 125 -775 317q-42 25 -83 51q-82 -19 -170 -19q-282 0 -468 187q-181 185 -182 468q0 309 195 516q187 196 453 197q293 0 480 -199q176 -189 177 -475q0 -338 -213 -533q-49 -43 -103 -75z" />
    <glyph glyph-name="f_f" unicode="ff" horiz-adv-x="1200" 
d="M872 1274q116 155 316 156q62 -1 92 -19l2 -6q-25 -45 -57 -168l-23 -2q-42 70 -119 72q-126 0 -160 -133q-9 -38 -10 -78q0 -17 5 -83q6 -85 6 -114v-20h221q14 -3 16 -13v-51q-2 -25 -47 -27h-190v-378q0 -273 20 -410l-4 -6q-4 0 -98 6l-101 -6l-2 6q20 131 21 410
v378h-215h-43h-148v-378q0 -273 21 -410l-4 -6q-4 0 -99 6l-100 -6l-2 6q20 131 20 410v378h-135q-9 4 -10 13v37q9 36 47 41h98v82q0 145 62 241q16 25 51 72q116 155 315 156q62 -1 93 -19l2 -6q-25 -45 -58 -168l-22 -2q-42 70 -119 72q-126 0 -160 -133q-9 -38 -10 -78
q0 -17 5 -83q6 -85 5 -114v-20h185h36h185v82q0 145 62 241q16 25 50 72z" />
    <glyph glyph-name=".notdef" horiz-adv-x="1024" 
d="M102 1235v-1040l349 520zM164 102h696l-348 521zM573 715l349 -520v1040zM512 807l348 518h-696zM0 0v1430h1024v-1430h-1024z" />
    <glyph glyph-name=".null" 
 />
    <glyph glyph-name="nonmarkingreturn" horiz-adv-x="682" 
 />
    <glyph glyph-name="space" unicode=" " horiz-adv-x="512" 
 />
    <glyph glyph-name="exclam" unicode="!" horiz-adv-x="466" 
d="M231 1348q71 0 102 -75q13 -34 13 -75q0 -71 -33 -261q-13 -73 -20 -134q-8 -64 -32 -360q-1 -9 -1 -13q-6 -39 -29 -41q-24 3 -28 27q-1 14 -6 77q-14 201 -25 310q-8 77 -28 185q-23 129 -23 210q0 116 81 144q15 6 29 6zM117 90v8q30 77 110 111h9q84 -33 110 -111v-8
q-27 -86 -101 -108q-6 -2 -9 -2h-9q-76 17 -100 79q-6 15 -10 31z" />
    <glyph glyph-name="quotedbl" unicode="&#x22;" horiz-adv-x="688" 
d="M440 874l-53 345q0 55 53 87q25 14 52 15q68 -6 71 -68l-67 -370zM182 872l-53 345q0 55 53 87q25 14 51 15q68 -6 72 -68l-67 -370z" />
    <glyph glyph-name="numbersign" unicode="#" horiz-adv-x="962" 
d="M584 506l37 239h-240l-39 -239h242zM694 745l-41 -239h199l-16 -107h-195l-61 -370h-72l57 370h-239l-62 -370h-71l59 370h-197l15 107h198l39 239h-198l18 109h197l59 371h74l-62 -371h244l57 371h72l-59 -371h198l-16 -109h-197z" />
    <glyph glyph-name="dollar" unicode="$" horiz-adv-x="952" 
d="M438 748l24 423h-3q-133 0 -184 -108q-19 -43 -19 -92q2 -140 182 -223zM502 541l-26 -476q148 12 203 119q23 47 23 103q0 151 -131 222q-29 16 -69 32zM471 -19l-9 -172q-19 -10 -76 -10l10 181q-200 10 -308 88l-4 6q32 128 39 186l18 2q68 -145 217 -186q22 -6 43 -9
l27 503q-235 99 -290 238q-21 54 -21 114q0 164 151 263q94 60 198 64l9 163q28 10 76 10l-10 -175q81 -6 142.5 -27t81.5 -39l21 -18l5 -6q-28 -90 -37 -180l-21 -2q-72 152 -197 187l-24 -444q237 -85 310 -206q42 -71 42 -158q0 -157 -114 -262q-6 -5 -9 -8
q-106 -90 -270 -103z" />
    <glyph glyph-name="percent" unicode="%" horiz-adv-x="1392" 
d="M946 182q0 -128 82 -144q9 -1 16 -1q97 0 160 147q38 91 39 174q0 118 -84 132q-8 1 -14 2q-85 0 -151 -129q-47 -93 -48 -181zM831 215q0 146 104 256q84 87 185 88q166 0 186 -157q2 -21 3 -42q0 -144 -83 -267q-82 -119 -196 -120q-125 0 -177 128q-22 55 -22 114z
M797 1141q182 0 285 75q26 20 42 41l70 -34l-897 -1250l-74 33l785 1094q-106 -41 -234 -41q-89 0 -166 41q-5 3 -8 4q6 -23 6 -53q0 -136 -79 -260q-84 -126 -201 -127q-128 0 -178 131q-19 51 -19 106q0 148 103 260q84 88 184 88q86 0 140 -47q5 -5 7 -8q116 -53 234 -53
zM242 870q0 -124 80 -141q10 -2 18 -2q97 0 160 145q38 90 39 177q-13 121 -99 133q-84 0 -150 -128q-47 -95 -48 -184z" />
    <glyph glyph-name="ampersand" unicode="&#x26;" horiz-adv-x="1454" 
d="M522 692q-199 -110 -236 -253q-13 -51 -14 -120q3 -256 244 -258q119 0 200 87q31 33 97 124q-186 244 -283 406q-5 9 -8 14zM600 842q153 101 199 217q11 31 12 55q0 120 -90 147q-21 6 -43 7q-62 0 -113 -63q-42 -56 -43 -132q2 -104 78 -231zM895 393q187 277 213 492
q22 -6 80 -6q67 0 88 6q-33 -57 -141 -251q-155 -279 -183 -321l70 -94q91 -120 158 -129q99 3 155 111l33 -17q-56 -170 -166 -200q-19 -5 -35 -4q-100 0 -168 61q-34 32 -67 76l-60 76q-125 -171 -274 -204q-46 -9 -96 -9q-273 0 -369 175q-42 79 -43 185q0 175 249 343
q62 42 138 85q-110 172 -110 301q0 112 98 198q93 80 223 81q137 0 215 -102q44 -61 45 -132q0 -122 -174 -266q-60 -49 -129 -88l8 -17q67 -114 242 -350z" />
    <glyph glyph-name="quotesingle" unicode="'" horiz-adv-x="389" 
d="M162 872l-53 345q0 55 52 87q25 14 52 15q68 -6 72 -68l-68 -370z" />
    <glyph glyph-name="parenleft" unicode="(" horiz-adv-x="614" 
d="M90 516q0 398 250 733q84 112 184 199l47 -37q-310 -353 -311 -895q0 -541 311 -899l-47 -35q-355 307 -422 768q-12 85 -12 166z" />
    <glyph glyph-name="parenright" unicode=")" horiz-adv-x="614" 
d="M524 516q0 -398 -249 -733q-84 -112 -185 -199l-47 37q310 353 311 895q0 541 -311 899l47 35q355 -307 422 -768q12 -85 12 -166z" />
    <glyph glyph-name="asterisk" unicode="*" horiz-adv-x="886" 
d="M406 1161q-37 8 -87 8q-154 0 -164 63q-1 7 -1 13q0 51 51 60q9 1 16 2q39 0 106 -50q53 -39 91 -55q-3 30 -36 131q-11 35 -11 58q0 63 45 77q9 2 16 2q61 -12 68 -71q0 -19 -29 -140q-8 -37 -10 -59q33 14 115 75q45 31 79 32q60 -10 70 -62q-3 -75 -141 -76
q-64 0 -113 -8q20 -22 105 -82q63 -48 65 -96q0 -46 -45 -57q-8 -2 -14 -2q-50 0 -88 86q-49 113 -54 121q-2 4 -4 6q-15 -28 -39 -88q-40 -100 -73 -118q-15 -7 -31 -7q-45 0 -57 42q-2 9 -3 15q0 54 71 101q81 56 102 79z" />
    <glyph glyph-name="plus" unicode="+" horiz-adv-x="1079" 
d="M592 526h352v-100h-352v-356h-105v356h-352v100h352v357h105v-357z" />
    <glyph glyph-name="comma" unicode="," horiz-adv-x="450" 
d="M98 90v8q30 77 111 111h8q130 -51 131 -215q0 -144 -119 -230q-29 -20 -94 -59q-26 25 -26 43q151 114 159 193q-3 53 -59 53q-73 16 -94 53q-10 18 -17 43z" />
    <glyph glyph-name="hyphen" unicode="-" horiz-adv-x="681" 
d="M561 483h-463q-26 6 -30 35q0 44 33 69q9 7 18 7h469q27 -3 28 -37q0 -32 -31 -62q-13 -11 -24 -12z" />
    <glyph glyph-name="period" unicode="." horiz-adv-x="450" 
d="M111 90v8q30 77 110 111h8q84 -33 111 -111v-8q-27 -86 -101 -108q-6 -2 -10 -2h-8q-76 17 -100 79q-6 15 -10 31z" />
    <glyph glyph-name="slash" unicode="/" horiz-adv-x="661" 
d="M600 1323l-485 -1444h-84l485 1444h84z" />
    <glyph glyph-name="zero" unicode="0" horiz-adv-x="952" 
d="M477 1169q-220 -5 -221 -581q0 -444 155 -516q28 -12 58 -13q94 0 151 108q19 38 31 83q35 129 35 399q0 353 -103 472q-9 10 -16 16q-37 31 -90 32zM467 -20q-212 0 -317 237q-70 159 -70 375q0 342 160 532q107 124 237 125q118 -2 195 -71q187 -183 190 -545
q0 -397 -198 -571q-95 -82 -197 -82z" />
    <glyph glyph-name="one" unicode="1" horiz-adv-x="952" 
d="M668 387q0 -230 18 -387l-4 -6q-3 0 -98 6l-95 -6l-2 6q16 136 17 387v508q0 145 -30 155q-4 1 -6.5 1t-185.5 -27q-27 -4 -49 -6l-12 59q61 19 327 127q73 30 122 45q13 -4 14 -10q-16 -118 -16 -332v-520z" />
    <glyph glyph-name="two" unicode="2" horiz-adv-x="909" 
d="M414 1133q-99 -1 -158 -48q-42 -34 -76 -113q-9 -21 -14 -32l-27 2l-45 141q88 116 242 153q54 13 111 13q230 0 319 -162q40 -75 40 -168q-1 -150 -148 -350q-133 -179 -321 -361l-2 -2l-3 -2l-2 -2l-4 -3q-35 -35 -36 -56q1 -6 3 -10q59 4 167 4q192 0 375 17
q-10 -43 -10 -97q0 -25 6 -67q-244 10 -356 10q-16 0 -388 -10q-20 35 -20 80q1 15 3 26q213 202 247 238q148 154 235 282q77 118 78 275q0 134 -104 205q-54 36 -112 37z" />
    <glyph glyph-name="three" unicode="3" horiz-adv-x="952" 
d="M428 59q113 0 191 79q76 80 77 214q-2 129 -80 197q-81 65 -200 65q-61 0 -86 -4v90q44 -6 76 -6q110 1 169 58q77 76 78 200q0 129 -91 191q-39 26 -79 26q-146 0 -217 -132q-11 -20 -20 -42l-31 2l-43 131l6 7q121 106 300 114h24q197 0 286 -126q43 -64 43 -140
q0 -158 -131 -259q-55 -41 -110 -54v-11q160 -15 238 -137q43 -70 44 -153q0 -212 -203 -324q-120 -65 -245 -65q-189 1 -305 98l-6 6l45 154l30 2q51 -109 83 -137q51 -43 157 -44z" />
    <glyph glyph-name="four" unicode="4" horiz-adv-x="952" 
d="M586 303h-422q-119 2 -121 41q2 34 27 80q167 286 458 708q40 58 68 97l8 8q3 0 70 -8q17 0 50 5q22 3 30 3q3 -3 4 -8q-12 -114 -13 -303v-520h132q29 -3 30 -33q0 -32 -34 -59q-14 -10 -25 -11h-103q0 -127 13 -303q-2 -4 -4 -6q-8 0 -32 2q-36 4 -54 4l-97 -6l-2 6
q17 142 17 303zM586 1049l-416 -643h416v643z" />
    <glyph glyph-name="five" unicode="5" horiz-adv-x="952" 
d="M414 -20q-179 1 -310 114l-8 6l45 164l29 2q66 -120 87 -144q57 -60 161 -61q143 0 203 142q30 72 30 164q0 244 -145 310q-43 18 -90 19q-98 -1 -254 -63l-15 5l66 603q140 -12 233 -12q170 0 336 20l15 -6l-33 -139q-102 -12 -215 -12q-125 0 -260 18l-43 -362
q86 30 223 30q203 0 304 -162q58 -96 58 -215q0 -213 -154 -334q-112 -86 -263 -87z" />
    <glyph glyph-name="six" unicode="6" horiz-adv-x="952" 
d="M260 567q-2 -22 -2 -75q0 -369 199 -428q32 -9 65 -9q157 0 179 227q3 35 4 72q0 202 -122 270q-51 27 -116 27q-126 -2 -207 -84zM819 1194q-227 -25 -360 -152q-161 -159 -195 -415q58 73 185 99q34 7 61 7q261 0 347 -221q28 -73 28 -143q0 -167 -106 -279
q-105 -107 -279 -108q-211 0 -320 165q-85 132 -86 351q2 324 219 542q170 172 420 204q39 5 80 7z" />
    <glyph glyph-name="seven" unicode="7" horiz-adv-x="952" 
d="M707 1075q-370 11 -578 -18q10 77 10 100q0 14 -10 86q106 -14 573 -14q71 0 132 20l34 -20q-222 -542 -448 -1216l-1 -2q-6 -19 -9 -29l-150 -9l-6 13q130 291 453 1089z" />
    <glyph glyph-name="eight" unicode="8" horiz-adv-x="952" 
d="M481 1182q-132 0 -176 -104q-14 -35 -14 -72q0 -117 110 -201q16 -12 33 -23l64 -37q132 94 160 205q6 24 6 45q0 140 -113 177q-33 10 -70 10zM815 993q0 -134 -226 -286q-8 -6 -16 -11l125 -82q177 -118 179 -282q0 -136 -115 -242q-120 -108 -299 -108
q-234 0 -333 143q-50 75 -50 174q0 125 131 242l4 4q66 58 143 117l-41 22q-177 108 -180 285q0 144 137 225q95 55 220 55q210 0 289 -133q31 -57 32 -123zM467 49q160 0 216 119q23 52 24 121q-3 153 -181 266l-94 59q-192 -128 -192 -315q0 -171 135 -230q46 -20 92 -20z
" />
    <glyph glyph-name="nine" unicode="9" horiz-adv-x="952" 
d="M682 662q2 22 2 75q0 369 -199 427q-32 9 -65 10q-157 0 -179 -227q-3 -35 -3 -73q0 -202 122 -269q51 -27 115 -27q126 2 207 84zM123 35q227 25 360 151q161 159 195 416q-58 -73 -184 -99q-34 -7 -62 -7q-261 0 -346 221q-28 73 -29 143q0 167 106 279
q105 107 279 108q211 0 320 -165q85 -132 86 -351q-2 -324 -219 -543q-170 -172 -420 -203q-39 -5 -80 -8z" />
    <glyph glyph-name="colon" unicode=":" horiz-adv-x="450" 
d="M125 729v8q30 77 111 111h8q84 -33 110 -111v-8q-27 -86 -101 -108l-9 -3h-8q-76 17 -101 80q-6 15 -10 31zM125 190v9q30 77 111 110h8q84 -33 110 -110v-9q-27 -86 -101 -108q-6 -2 -9 -2h-8q-76 17 -101 79q-6 15 -10 31z" />
    <glyph glyph-name="semicolon" unicode=";" horiz-adv-x="450" 
d="M104 729v8q30 77 111 111h8q84 -33 111 -111v-8q-27 -86 -101 -108q-6 -2 -10 -3h-8q-76 17 -101 80q-6 15 -10 31zM98 90v8q30 77 111 111h8q130 -51 131 -215q0 -144 -119 -230q-29 -20 -94 -59q-26 25 -26 43q151 114 159 193q-3 53 -59 53q-73 16 -94 53
q-10 18 -17 43z" />
    <glyph glyph-name="less" unicode="&#x3c;" horiz-adv-x="997" 
d="M250 489l649 -237v-102l-799 290v99l799 288v-102z" />
    <glyph glyph-name="equal" unicode="=" horiz-adv-x="1079" 
d="M944 651v-100h-809v100h809zM944 395v-100h-809v100h809z" />
    <glyph glyph-name="greater" unicode="&#x3e;" horiz-adv-x="997" 
d="M750 483l-650 238v102l799 -291v-98l-799 -289v103z" />
    <glyph glyph-name="question" unicode="?" horiz-adv-x="829" 
d="M399 1268q-141 -2 -252 -193l-26 2l-33 137l6 9q157 122 324 127q215 0 299 -152q38 -70 39 -158q0 -154 -164 -282q-21 -16 -53 -39q-85 -64 -107 -103q-36 -72 -37 -149v-90q-4 -19 -26 -21q-25 3 -27 21v94q0 159 72 258q29 38 65 72q106 98 120 188q3 22 3 43
q0 137 -97 203q-49 32 -106 33zM254 90v8q30 77 111 111h8q84 -33 110 -111v-8q-27 -86 -101 -108q-6 -2 -9 -2h-8q-76 17 -101 79q-6 15 -10 31z" />
    <glyph glyph-name="at" unicode="@" horiz-adv-x="1832" 
d="M1165 647q0 88 -79 119q-27 10 -54 10q-82 0 -158 -59q-15 -12 -26 -23q-139 -141 -139 -362q4 -186 159 -189q77 0 171 143q37 58 65 124q60 146 61 237zM1194 152q1 -22 23 -25q231 0 301 180q38 99 38 256q0 313 -241 495q-174 132 -375 132q-263 0 -447 -168
q-208 -193 -208 -528q0 -294 151 -500q185 -249 533 -250q243 1 411 135l27 -37q-163 -125 -323 -153q-72 -12 -154 -13q-371 0 -600 239q-208 220 -209 542q0 309 221 536q217 224 535 254q42 4 84 4q342 0 559 -207q198 -191 198 -466q0 -235 -158 -380
q-158 -142 -432 -143q-67 10 -73 84q1 35 30 129l-4 2q-102 -172 -232 -205q-22 -5 -40 -6q-181 0 -235 164q-15 46 -15 90q0 219 167 383q148 141 310 144q95 0 144 -63q9 -13 14 -25l10 49l109 26l30 -10l-122 -528q-26 -118 -27 -137z" />
    <glyph glyph-name="A" unicode="A" horiz-adv-x="1288" 
d="M834 564q-95 247 -207 505h-4l-216 -504q27 0 89 -2q89 -2 125 -2q88 0 213 3zM367 468q-125 -308 -170 -474q-26 6 -93 6q-48 -1 -71 -6q349 764 604 1354h57q72 -172 239 -584q259 -642 322 -770q-37 6 -122 6q-68 0 -103 -6q-51 183 -159 474q-146 3 -240 3
q-117 0 -264 -3z" />
    <glyph glyph-name="B" unicode="B" horiz-adv-x="1261" 
d="M389 1145v-385h160q252 0 282 170q4 27 5 55q0 221 -205 250q-28 4 -56 4q-153 0 -176 -43q-10 -19 -10 -51zM389 672v-492q0 -83 131 -95q31 -3 68 -3q282 0 330 152q13 44 14 104q0 201 -153 287q-84 46 -199 47h-191zM301 1321q56 0 153 3q75 3 107 3q407 0 449 -262
q4 -28 4 -55q0 -128 -119 -227q-35 -28 -72 -46q274 -79 308 -302q4 -29 4 -58q0 -243 -223 -335q-117 -47 -285 -48q-99 0 -195 3q-75 3 -131 3l-106 -6l-2 6q20 140 20 410v501q0 264 -20 410l4 6q4 0 104 -6z" />
    <glyph glyph-name="C" unicode="C" horiz-adv-x="1386" 
d="M778 1348q238 0 442 -91q4 -2 5 -2l4 -6q-34 -144 -40 -211q-1 -9 -1 -16l-21 -2q-118 230 -417 231q-150 0 -273 -121q-159 -160 -160 -446q0 -277 145 -449q129 -150 326 -151q185 0 307 89q60 45 130 122l49 -39q-213 -275 -504 -276q-341 0 -527 246
q-136 182 -137 419q0 295 205 502q187 189 440 200q14 1 27 1z" />
    <glyph glyph-name="D" unicode="D" horiz-adv-x="1454" 
d="M389 168q0 -52 39 -67q45 -15 184 -15q325 0 442 167q82 120 83 329q0 363 -204 535q-144 120 -372 120q-142 0 -165 -49q-6 -16 -7 -33v-987zM301 1321q66 0 169 3q105 3 169 3q288 0 495 -199q203 -195 213 -471q0 -14 1 -26q0 -422 -341 -571q-149 -64 -331 -64
q-115 0 -226 2q-85 2 -149 2l-106 -6l-2 6q20 140 20 410v501q0 264 -20 410l4 6q4 0 104 -6z" />
    <glyph glyph-name="E" unicode="E" horiz-adv-x="1101" 
d="M389 410q0 -237 17 -295q123 0 267 6t227 12l83 6l4 -8q-4 -33 -4 -68q0 -11 4 -63l-4 -6q-50 6 -123 6h-559l-106 -6l-2 6q20 140 20 410v501q0 264 -20 410l4 6q4 0 104 -6h539q74 0 123 6l4 -6q-4 -57 -4 -78q0 -22 4 -53l-4 -8l-358 21q-108 4 -199 3
q-16 -56 -17 -295v-159q217 0 457 20l6 -6q-6 -28 -6 -66t6 -65l-6 -6q-202 20 -457 20v-239z" />
    <glyph glyph-name="F" unicode="F" horiz-adv-x="1032" 
d="M834 1321q80 0 129 6l4 -6q-4 -58 -4 -70q0 -29 4 -61l-4 -8l-358 21q-108 4 -199 3q-16 -56 -17 -295v-159q217 0 457 20l6 -6q-6 -28 -6 -66t6 -65l-6 -6q-202 20 -457 20v-239q0 -264 21 -410l-4 -6q-4 0 -105 6l-106 -6l-2 6q20 140 20 410v501q0 264 -20 410l4 6
q4 0 104 -6h533z" />
    <glyph glyph-name="G" unicode="G" horiz-adv-x="1468" 
d="M1118 240q-6 284 -20 389l4 6q4 0 104 -6l107 6l2 -6q-20 -138 -21 -348v-13q1 -72 21 -98v-6q-222 -184 -545 -184q-316 0 -506 223q-157 188 -158 446q0 338 248 537q202 161 467 162q111 0 227.5 -22.5t178.5 -46.5l61 -24l4 -6q-33 -141 -41 -248l-20 -2
q-114 193 -328 240q-55 12 -110 12q-239 0 -372 -196q-103 -156 -104 -385q0 -266 141 -435q136 -160 359 -161q218 1 301 78v88z" />
    <glyph glyph-name="H" unicode="H" horiz-adv-x="1486" 
d="M1098 911q0 264 -21 410l4 6q37 -6 105 -6q69 0 106 6l2 -6q-20 -137 -20 -410v-501q0 -264 20 -410l-4 -6q-37 6 -104 6q-69 0 -107 -6l-2 6q20 140 21 410v247h-709v-247q0 -264 21 -410l-4 -6q-37 6 -105 6q-69 0 -106 -6l-2 6q20 140 20 410v501q0 264 -20 410l4 6
q37 -6 104 -6q69 0 107 6l2 -6q-20 -137 -21 -410v-163h709v163z" />
    <glyph glyph-name="I" unicode="I" horiz-adv-x="602" 
d="M213 911q0 264 -20 410l4 6q37 -6 104 -6t105 6l4 -6q-20 -137 -21 -410v-501q0 -264 21 -410l-4 -6q-37 6 -105 6q-67 0 -104 -6l-4 6q20 140 20 410v501z" />
    <glyph glyph-name="J" unicode="J" horiz-adv-x="655" 
d="M287 195v716q0 264 -21 410l4 6q37 -6 105 -6q69 0 106 6l2 -6q-20 -137 -20 -410v-671q0 -209 -42 -301q-26 -56 -87 -136q-123 -155 -324 -155q-62 1 -92 18l-2 6q25 45 57 168l23 2q42 -70 119 -71q159 0 170 334q2 40 2 90z" />
    <glyph glyph-name="K" unicode="K" horiz-adv-x="1288" 
d="M213 911q0 264 -20 410l4 6q37 -6 104 -6t105 6l4 -6q-20 -137 -21 -410v-206q28 4 45 18q240 211 584 604q28 -6 100 -6t105 6q-370 -324 -587 -562q-20 -22 -36 -40v-4l643 -727q-41 6 -127 6q-92 0 -127 -6q-446 550 -561 665q-13 10 -39 14v-263q0 -264 21 -410
l-4 -6q-37 6 -105 6q-67 0 -104 -6l-4 6q20 140 20 410v501z" />
    <glyph glyph-name="L" unicode="L" horiz-adv-x="1054" 
d="M391 911v-501q0 -226 17 -285q123 0 267 11t227 23l83 11l4 -8q-4 -33 -4 -72q0 -34 4 -90l-4 -6q-50 6 -123 6h-559l-106 -6l-2 6q20 140 20 410v501q0 264 -20 410l4 6q37 -6 104 -6q69 0 107 6l2 -6q-21 -138 -21 -410z" />
    <glyph glyph-name="M" unicode="M" horiz-adv-x="1814" 
d="M395 1356h56q45 -92 256 -581q120 -276 220 -460l529 1041h45q94 -816 172 -1362q-32 6 -108 6q-70 0 -101 -6q-54 652 -93 974l-7 1q-268 -497 -475 -969h-39q-39 82 -245 570q-103 243 -185 405h-9q-28 -170 -89 -577q-46 -307 -62 -404q-25 6 -61 6q-46 -1 -68 -6
q167 800 264 1362z" />
    <glyph glyph-name="N" unicode="N" horiz-adv-x="1470" 
d="M221 1321l4 6q10 0 86 -6l29 4l702 -909q82 -106 97 -113t20 19q3 15 4 43v546q0 264 -20 410l4 6q38 -6 72 -6q36 0 71 6l4 -6q-24 -330 -37 -1101q-2 -98 -4 -177q-6 -62 -39 -63q-52 2 -88 49l-714 903q-60 77 -71 66q-9 -13 -9 -99v-489q0 -264 20 -410l-4 -6
q-38 6 -72 6q-36 0 -71 -6l-4 6q44 441 27 1134q-3 102 -7 187z" />
    <glyph glyph-name="O" unicode="O" horiz-adv-x="1517" 
d="M727 1257q-192 0 -306 -169q-103 -157 -104 -418q0 -331 199 -498q124 -102 281 -102q218 0 326 204q76 145 77 361q0 481 -296 593q-80 29 -177 29zM1411 674q0 -336 -211 -531q-179 -162 -444 -163q-282 0 -468 187q-181 185 -182 468q0 309 195 516q187 196 453 197
q293 0 480 -199q176 -190 177 -475z" />
    <glyph glyph-name="P" unicode="P" horiz-adv-x="1144" 
d="M389 1157v-483q39 -20 162 -21q237 0 293 164q20 62 20 148q0 255 -228 279q-30 3 -63 3q-163 0 -180 -63q-4 -13 -4 -27zM213 911q0 264 -20 410l4 6q37 -6 104 -6q32 0 153 8q108 7 134 6q350 0 446 -221q28 -66 29 -139q0 -172 -130 -289q-138 -120 -372 -121
q-108 1 -172 21v-176q0 -264 21 -410l-4 -6q-37 6 -105 6q-67 0 -104 -6l-4 6q20 140 20 410v501z" />
    <glyph glyph-name="Q" unicode="Q" horiz-adv-x="1517" 
d="M727 1257q-192 0 -306 -169q-103 -157 -104 -418q0 -331 199 -498q124 -102 281 -102q218 0 326 204q76 145 77 361q0 481 -296 593q-80 29 -177 29zM1148 101q27 -15 89 -52q250 -148 422 -207v-12q-134 -71 -193 -117q-92 52 -239 161q-100 73 -236 144
q-110 -38 -235 -38q-282 0 -468 187q-181 185 -182 468q0 309 195 516q187 196 453 197q293 0 480 -199q176 -189 177 -475q0 -337 -212 -532q-26 -22 -51 -41z" />
    <glyph glyph-name="R" unicode="R" horiz-adv-x="1228" 
d="M389 586v-176q0 -264 21 -410l-4 -6q-37 6 -105 6q-67 0 -104 -6l-4 6q20 140 20 410v501q0 264 -20 410l4 6q37 -6 104 -6q32 0 150 8q102 7 127 6q246 0 351 -72q18 -13 32 -26q108 -104 108 -256q0 -216 -188 -321q-9 -5 -17 -9q-47 -23 -124 -39q54 -72 188 -267
q190 -277 250 -345l-4 -6q-43 6 -123 6q-84 0 -123 -6q-37 112 -195 366q-111 178 -142 218q-7 8 -12 14q-87 -6 -190 -6zM580 1247q-154 0 -177 -24q-14 -17 -14 -66v-489h119q323 0 359 241q5 34 5 70q0 223 -213 261q-37 7 -79 7z" />
    <glyph glyph-name="S" unicode="S" horiz-adv-x="1036" 
d="M496 70q128 0 197 98q42 62 42 141q0 167 -149 254q-38 21 -90 43q-238 100 -311 227q-41 73 -42 160q0 165 144 272q40 29 82 48q85 34 176 35q106 0 187 -22.5t110 -46.5l28 -24l4 -6q-39 -130 -47 -205l-20 -2q-63 145 -188 197q-46 18 -91 18q-79 -1 -125 -24
q-66 -36 -88 -135q-6 -26 -6 -49q0 -162 190 -245q25 -11 60 -24q346 -129 365 -378q1 -16 2 -31q0 -207 -174 -318q-117 -73 -273 -73q-106 0 -199.5 22.5t-133.5 45.5l-40 24l-4 6q40 153 48 211l20 2q63 -120 195 -186q70 -35 131 -35z" />
    <glyph glyph-name="T" unicode="T" horiz-adv-x="1105" 
d="M465 911q0 237 -16 295q-123 0 -226.5 -7t-145.5 -14l-42 -7l-4 8q6 49 0 135l4 6q50 -6 123 -6h790q74 0 123 6l4 -6q-6 -88 0 -135l-4 -8l-161 19q-118 9 -253 9q-16 -56 -16 -295v-501q0 -264 21 -410l-5 -6q-37 6 -104 6t-104 -6l-5 6q20 140 21 410v501z" />
    <glyph glyph-name="U" unicode="U" horiz-adv-x="1417" 
d="M1114 911q0 264 -20 410l4 6q38 -6 71 -6q36 0 72 6l4 -6q-20 -137 -20 -410v-307q0 -435 -243 -563q-118 -61 -292 -61q-242 0 -371 156q-105 130 -106 347v428q0 264 -20 410l4 6q37 -6 104 -6t105 6l4 -6q-20 -137 -21 -410v-360q5 -454 344 -457q300 0 361 257
q20 84 20 216v344z" />
    <glyph glyph-name="V" unicode="V" horiz-adv-x="1292" 
d="M664 271q302 700 379 930q24 71 38 126q35 -6 93 -6q45 0 81 6q-399 -872 -604 -1347h-57q-70 165 -229 559q-267 657 -332 788q57 -6 123 -6q56 0 112 6q129 -448 391 -1056h5z" />
    <glyph glyph-name="W" unicode="W" horiz-adv-x="1947" 
d="M1319 270q305 703 383 940q21 66 35 117q26 -6 102 -6q48 1 72 6q-399 -872 -604 -1347h-58q-120 338 -269 740l-329 -740h-57q-70 165 -229 559q-267 657 -332 788q37 -6 123 -6q68 0 102 6q123 -429 404 -1075h4q205 475 260 612q-126 337 -176 463q37 -6 122 -6
q78 0 113 6q57 -254 330 -1057h4z" />
    <glyph glyph-name="X" unicode="X" horiz-adv-x="1189" 
d="M1155 -6q-39 6 -119 6q-82 0 -118 -6q-86 166 -314 506l-42 63q-198 -302 -343 -569q-24 6 -86 6q-63 0 -86 -6l453 663l-443 670q37 -6 115 -6q80 0 117 6q45 -94 290 -467q22 -34 39 -60q204 295 297 462q17 31 35 65q24 -6 86 -6q63 0 86 6q-27 -38 -102 -140
q-212 -290 -341 -480q327 -502 476 -713z" />
    <glyph glyph-name="Y" unicode="Y" horiz-adv-x="1191" 
d="M682 584q5 -474 14 -590q-37 6 -102 6t-102 -6q14 159 14 569q-185 317 -443 718q-18 29 -30 46q53 -6 117 -6q65 0 116 6q67 -130 330 -581q16 -27 29 -50q230 361 358 631q38 -6 86 -6q46 0 86 6q-64 -98 -171 -260q-240 -362 -302 -483z" />
    <glyph glyph-name="Z" unicode="Z" horiz-adv-x="1273" 
d="M383 111q119 0 313.5 10t329.5 21l135 12l4 -7q-4 -33 -4 -67q0 -25 4 -80l-4 -6q-52 6 -145 6h-744l-178 -6l-6 8q14 18 36 51q12 18 17 25l756 1108q12 22 -6 24q-140 0 -563 -32q-90 -7 -164 -11l-4 7q4 33 4 67q0 25 -4 80l4 6q50 -6 125 -6h622q162 0 258 12
q11 -4 13 -12q-2 -28 -62 -111l-727 -1063q-10 -16 -10 -36z" />
    <glyph glyph-name="bracketleft" unicode="[" horiz-adv-x="739" 
d="M225 -393v1833h441v-62q-211 -15 -260 -59q-40 -51 -41 -170v-1251q0 -126 33 -164q43 -48 230 -65q19 -2 38 -3v-59h-441z" />
    <glyph glyph-name="backslash" unicode="\" horiz-adv-x="598" 
d="M123 1430l471 -1528h-100l-471 1528h100z" />
    <glyph glyph-name="bracketright" unicode="]" horiz-adv-x="739" 
d="M514 1440v-1833h-440v61q211 15 259 59q40 51 42 171v1251q0 126 -34 163q-43 48 -230 65q-19 2 -37 3v60h440z" />
    <glyph glyph-name="asciicircum" unicode="^" horiz-adv-x="1060" 
d="M530 1214l-208 -505h-93l260 622h86l259 -622h-93z" />
    <glyph glyph-name="underscore" unicode="_" horiz-adv-x="995" 
d="M987 -225v-90h-977v90h977z" />
    <glyph glyph-name="grave" unicode="`" horiz-adv-x="802" 
d="M365 1432l143 -258q12 -26 12 -50q-6 -18 -31 -22q-19 3 -59 41l-233 223l4 23q65 46 133 47q15 0 31 -4z" />
    <glyph glyph-name="a" unicode="a" horiz-adv-x="985" 
d="M635 461l-174 -47q-178 -48 -199 -163q-3 -21 -4 -42q0 -71 73 -108q37 -17 79 -17q83 1 188 80q28 24 29 53zM635 98h-8q-116 -98 -203 -113q-34 -5 -76 -5q-207 0 -247 151q-8 33 -9 70q0 155 191 246q67 32 149 51l191 43q13 8 14 24q0 228 -164 241q-15 1 -33 1
q-118 -3 -225 -174l-27 2l-34 137l6 8q143 118 301 119q335 -5 338 -332q0 -9 -2 -94q-4 -177 -4 -215q1 -128 34 -160q18 -15 60 -15q26 1 55 11l16 -51q-61 -63 -163 -63q-124 2 -160 118z" />
    <glyph glyph-name="b" unicode="b" horiz-adv-x="1032" 
d="M332 166q65 -81 149 -101q17 -4 31 -4q239 0 266 305q4 44 4 93q0 275 -153 341q-39 16 -82 17q-87 0 -174 -80q-19 -18 -41 -41v-530zM332 1024v-227q96 102 256 102q169 0 281 -140q95 -120 96 -284q0 -298 -207 -429q-107 -66 -234 -66q-126 3 -241 100
q-33 -62 -68 -100q-40 1 -57 16q10 56 10 154v837q0 259 -25 395l4 7q94 8 179 41q17 -4 18 -21q-12 -162 -12 -385z" />
    <glyph glyph-name="c" unicode="c" horiz-adv-x="878" 
d="M512 817q-126 0 -200 -130q-53 -97 -54 -230q0 -241 137 -335q59 -39 129 -40q124 2 219 86h9l39 -43q-116 -145 -302 -145q-233 0 -343 187q-68 117 -68 279q0 224 169 358q121 94 267 95q161 -1 272 -57l5 -6l-48 -168l-26 -2q-90 149 -205 151z" />
    <glyph glyph-name="d" unicode="d" horiz-adv-x="1085" 
d="M739 231v467q-64 101 -149 116q-22 3 -45 3q-155 0 -222 -146q-40 -88 -40 -218q0 -281 134 -350q34 -16 70 -17q134 0 247 139q3 4 5 6zM739 119q-109 -138 -264 -139q-187 0 -294 170q-76 124 -77 286q0 244 176 374q122 88 287 89q82 0 164 -40q6 -3 8 -5v133
q0 293 -18 395l4 7q94 8 178 41q17 -4 19 -21q-18 -229 -19 -385v-631q0 -206 35 -393l-4 -6q-41 6 -91 6q-26 0 -71 -6q-18 0 -18 6l-11 119h-4z" />
    <glyph glyph-name="e" unicode="e" horiz-adv-x="927" 
d="M256 559h377q27 4 29 29q0 148 -102 208q-36 20 -71 21q-73 0 -141 -67q-72 -72 -92 -191zM803 213l41 -51q-108 -148 -289 -177q-35 -5 -68 -5q-213 2 -325 135q-92 112 -92 313q0 244 174 382q114 89 245 89q244 0 325 -216q29 -80 30 -171q-4 -33 -37 -35h-557
q1 -182 49 -260q77 -114 223 -117q177 2 281 113z" />
    <glyph glyph-name="f" unicode="f" horiz-adv-x="643" 
d="M203 879v79q0 145 62 242q16 25 50 72q116 155 316 155q62 -1 92 -18l2 -6q-25 -45 -57 -168l-23 -2q-42 70 -119 72q-126 0 -160 -133q-9 -38 -10 -78q0 -15 4 -67q6 -87 7 -130v-18h88q40 0 143 4l10 -15q-17 -42 -24 -84q-43 4 -148 4h-69v-380q0 -271 20 -408l-4 -6
q-37 6 -98 6t-99 -6l-4 6q20 131 21 408v380h-2q-94 0 -152 -4l-10 15q29 46 45 84q32 -4 119 -4z" />
    <glyph glyph-name="g" unicode="g" horiz-adv-x="1021" 
d="M207 -213q0 -114 158 -166q62 -20 110 -20q203 0 297 90q46 46 47 102q-2 100 -80 148q-72 34 -217 34q-11 0 -60 -2q-86 -4 -122 -4q-94 -51 -124 -136q-9 -25 -9 -46zM799 592q0 -183 -144 -266q-83 -47 -196 -47q-97 1 -152 28q-61 -54 -61 -114q0 -89 92 -96
q13 -1 27 -1q6 0 59 4q78 10 170 11q209 -1 289 -68q85 -75 86 -203q0 -177 -224 -268q-146 -59 -327 -59q-201 0 -297 96q-55 58 -55 137q1 64 47 135q25 20 167 100q4 2 7 4q-137 24 -154 148q-2 15 -2 29q2 83 127 170q-144 86 -145 256q0 173 158 261q90 49 190 50
q70 -1 125 -18q60 3 266 32q32 4 57 7l6 -7q-6 -29 -6 -53q0 -27 6 -53l-6 -6q-192 20 -213 21q102 -71 103 -230zM639 582q-3 237 -186 239q-141 0 -173 -147q-7 -36 -8 -76q0 -207 145 -233q25 -4 52 -5q152 0 168 172q2 25 2 50z" />
    <glyph glyph-name="h" unicode="h" horiz-adv-x="1124" 
d="M348 721l4 -6q163 177 355 184q204 0 243 -197q11 -56 11 -127q0 -33 -3 -103q-2 -71 -2 -103q0 -238 19 -369l-4 -6q-37 6 -97 6q-59 0 -96 -6l-4 6q18 126 19 369v200q0 162 -71 194q-30 13 -77 13q-121 0 -246 -115q-27 -26 -51 -53v-239q0 -229 19 -369l-5 -6
q-37 6 -96 6t-96 -6l-4 6q18 135 18 369v616q0 295 -18 397l4 7q94 8 178 41q17 -4 19 -21q-18 -237 -19 -383v-305z" />
    <glyph glyph-name="i" unicode="i" horiz-adv-x="532" 
d="M164 1223q0 62 58 92q23 11 46 12q62 0 93 -58q11 -23 12 -46q0 -62 -59 -93q-23 -11 -46 -12q-62 0 -92 59q-11 23 -12 46zM184 481q0 272 -18 398l4 6q88 -7 178 2q17 -9 19 -21q-18 -175 -19 -352v-145q0 -224 19 -369l-5 -6q-37 6 -96 6t-96 -6l-4 6q18 140 18 369
v112z" />
    <glyph glyph-name="j" unicode="j" horiz-adv-x="557" 
d="M184 1223q0 62 59 92q23 11 46 12q62 0 93 -58q11 -23 11 -46q0 -62 -58 -93q-23 -11 -46 -12q-62 0 -93 59q-11 23 -12 46zM373 514v-268q0 -341 -63 -473q-13 -26 -27 -49q-107 -164 -277 -166q-58 1 -88 18l-2 6q8 33 8 182l33 9q53 -90 123 -92q108 0 125 311
q4 82 4 205v284q0 272 -19 398l5 6q88 -7 178 2q17 -9 18 -21q-18 -175 -18 -352z" />
    <glyph glyph-name="k" unicode="k" horiz-adv-x="1030" 
d="M184 410v577q0 293 -18 395l4 7q94 8 178 41q17 -4 19 -21q-18 -250 -19 -385v-532q56 6 90 30q114 87 262 274q36 45 62 83q167 0 207 6l4 -6q-201 -170 -414 -392q131 -158 351 -379q62 -63 106 -108l-4 -6q-31 6 -123 6q-82 0 -135 -6q-173 249 -255 341
q-31 35 -67 73q-24 20 -84 22v-20q0 -275 19 -410l-5 -6q-37 6 -96 6t-96 -6l-4 6q18 134 18 410z" />
    <glyph glyph-name="l" unicode="l" horiz-adv-x="516" 
d="M184 410v577q0 293 -18 395l4 7q94 8 178 41q17 -4 19 -21q-18 -250 -19 -385v-614q0 -275 19 -410l-5 -6q-37 6 -96 6t-96 -6l-4 6q18 134 18 410z" />
    <glyph glyph-name="m" unicode="m" horiz-adv-x="1652" 
d="M332 721l6 -6q173 184 344 184q141 0 197 -105q14 -27 20 -57q155 161 346 162q197 0 239 -166q15 -62 15 -160v-204q0 -238 19 -369l-5 -6q-37 6 -96 6t-96 -6l-4 6q18 127 18 369v225q0 151 -101 176q-28 6 -63 6q-133 0 -230 -92q-16 -15 -30 -31q2 -27 2 -78v-206
q0 -238 19 -369l-4 -6q-37 6 -97 6q-59 0 -96 -6l-4 6q18 127 19 369v225q-3 181 -136 182q-101 0 -237 -117q-24 -21 -45 -43v-247q0 -238 18 -369l-4 -6q-37 6 -96 6t-96 -6l-4 6q18 127 18 369v112q0 283 -18 398l4 6q90 -9 165 6q12 -4 13 -21v-149z" />
    <glyph glyph-name="n" unicode="n" horiz-adv-x="1103" 
d="M942 369q0 -235 19 -369l-5 -6q-37 6 -96 6t-96 -6l-4 6q18 140 18 369v200q0 162 -70 194q-30 13 -77 13q-124 0 -251 -119q-25 -24 -46 -49v-239q0 -238 18 -369l-4 -6q-37 6 -96 6t-96 -6l-4 6q18 127 18 369v112q0 283 -18 398l4 6q90 -9 166 6q11 0 12 -16v-5v-149
l4 -6q163 177 354 184q204 0 243 -197q11 -56 11 -127q0 -33 -2 -103q-2 -71 -2 -103z" />
    <glyph glyph-name="o" unicode="o" horiz-adv-x="1024" 
d="M78 420q0 274 181 402q110 76 261 77q276 0 378 -220q47 -104 48 -241q0 -254 -171 -379q-110 -79 -263 -79q-240 0 -360 179q-73 113 -74 261zM506 817q-201 0 -240 -252q-8 -53 -8 -110q0 -222 107 -329q66 -65 165 -65q125 0 193 138q42 89 43 202q0 279 -97 364
q-62 51 -163 52z" />
    <glyph glyph-name="p" unicode="p" horiz-adv-x="1071" 
d="M332 602v-448q79 -92 190 -93q220 0 259 277q7 52 7 108q-16 344 -210 359q-82 0 -174 -95q-48 -53 -72 -108zM332 721l4 -6q122 183 276 184q194 0 295 -178q61 -111 62 -248q0 -273 -170 -407q-111 -86 -264 -86q-119 1 -203 45v-91q0 -264 18 -409l-4 -6q-37 6 -96 6
t-96 -6l-4 6q18 140 18 409v547q0 283 -18 398l4 6q90 -9 165 6q12 -4 13 -21v-149z" />
    <glyph glyph-name="q" unicode="q" horiz-adv-x="1069" 
d="M731 770q-59 47 -192 47q-146 0 -217 -148q-41 -88 -41 -204q0 -308 177 -379q42 -16 87 -16q73 0 159 45q20 11 33 20v344zM750 885q64 -10 165 0l5 -6q-18 -116 -19 -398v-547q0 -286 19 -409l-5 -6q-4 0 -96 6l-96 -6l-4 6q18 118 18 409v113q-58 -50 -184 -64
q-30 -3 -57 -3q-238 0 -342 216q-53 112 -54 246q0 234 163 365q114 91 263 92q136 0 224 -14z" />
    <glyph glyph-name="r" unicode="r" horiz-adv-x="727" 
d="M342 684l6 -4q93 161 166 198q42 20 94 21q29 -1 74 -14l8 -8l-41 -152l-16 -4q-33 28 -107 29q-68 -2 -114 -72q-66 -118 -70 -203v-106q0 -230 18 -369l-4 -6q-37 6 -96 6t-96 -6l-4 6q18 129 18 369v112q0 283 -18 398l4 6q90 -9 166 6q12 -4 12 -21v-186z" />
    <glyph glyph-name="s" unicode="s" horiz-adv-x="811" 
d="M102 207l31 2q107 -146 242 -148q132 0 174 98q14 34 14 72q0 92 -116 138q-34 13 -91 28q-180 50 -225 151q-20 46 -20 101q0 156 157 221q71 28 152 29q157 -1 276 -61l4 -7l-41 -151l-28 -2q-79 93 -132 118q-43 20 -87 21q-118 0 -148 -84q-7 -22 -8 -45
q3 -114 190 -160q248 -59 275 -222q3 -23 4 -46q0 -158 -131 -232q-87 -48 -217 -48q-153 1 -309 55z" />
    <glyph glyph-name="t" unicode="t" horiz-adv-x="696" 
d="M195 879q0 65 4 158q3 69 4 104l4 6q42 6 123 42q12 5 20 9q17 -4 19 -20q-10 -135 -11 -299h97q40 0 143 4l10 -15q-17 -42 -24 -84q-43 4 -148 4h-78v-258q0 -72 -3 -181q-2 -66 -3 -91q0 -152 63 -167q4 -1 5 -1q81 -12 161 16l25 -51q-119 -75 -237 -75
q-114 0 -161 97q-20 44 -20 99q0 25 3 113q4 148 4 219v280q-96 -1 -146 -4l-10 15q29 46 45 84q31 -4 111 -4z" />
    <glyph glyph-name="u" unicode="u" horiz-adv-x="1099" 
d="M748 188q-103 -159 -241 -198q-36 -10 -69 -10q-209 0 -257 188q-11 46 -11 96v246q0 238 -18 369l4 6q37 -6 96 -6t96 6l4 -6q-18 -124 -18 -369v-203q0 -190 99 -210q17 -3 38 -3q108 0 225 138q32 39 56 77v201q0 234 -19 369l4 6q37 -6 97 -6q59 0 96 6l4 -6
q-18 -124 -19 -369v-117q0 -206 35 -393l-4 -6q-41 6 -91 6q-26 0 -71 -6q-18 0 -18 6l-10 182z" />
    <glyph glyph-name="v" unicode="v" horiz-adv-x="935" 
d="M403 -6q-232 604 -362 891q35 -6 109 -6q76 0 102 6q143 -451 196 -586q24 -60 47 -114h4q59 126 187 518q36 112 62 182q20 -6 69 -6q59 0 78 6q-254 -574 -367 -891q-20 6 -61 6q-44 0 -64 -6z" />
    <glyph glyph-name="w" unicode="w" horiz-adv-x="1468" 
d="M410 -8q-199 519 -369 891q35 -6 109 -6q76 0 102 6q147 -466 220 -641q13 -31 25 -60h13q65 139 173 446q-53 146 -89 257q35 -6 108 -6q76 0 103 6q94 -430 196 -700h16q122 283 253 700q20 -6 69 -6q69 0 88 6q-124 -271 -380 -891q-20 6 -76 6q-34 -1 -53 -6
q-31 83 -94 253q-60 161 -89 239q-62 -151 -184 -494q-20 6 -74 6q-47 0 -67 -6z" />
    <glyph glyph-name="x" unicode="x" horiz-adv-x="931" 
d="M378 424l-329 461q45 -6 119 -6q63 0 111 6q20 -32 56 -96q93 -159 151 -239q39 50 196 287q18 27 33 48q30 -6 76 -6q56 0 92 6l-336 -413q32 -46 94 -139q153 -226 240 -339q-56 6 -117 6q-64 0 -105 -6q-26 42 -75 123q-89 147 -142 221q-23 -32 -178 -278
q-24 -37 -43 -66q-35 6 -90 6q-40 0 -74 -6z" />
    <glyph glyph-name="y" unicode="y" horiz-adv-x="1036" 
d="M57 885q30 -6 107 -6q74 0 100 6q69 -211 274 -706h4q138 295 269 706q22 -6 80 -6q67 0 88 6q-156 -317 -413 -914q-145 -337 -181 -456q-34 10 -100 10q-38 -1 -72 -10q149 248 242 465q-46 124 -392 893q-4 7 -6 12z" />
    <glyph glyph-name="z" unicode="z" horiz-adv-x="851" 
d="M278 102q249 1 513 23l4 -6q-4 -33 -4 -64q0 -7 4 -55l-4 -6q-47 6 -115 6h-463l-166 -6l-6 9q14 16 45 63l481 710q-38 -1 -78 -2t-75.5 -2.5t-72 -3t-65.5 -3t-58 -3.5t-48.5 -3.5t-37.5 -2.5t-23.5 -1.5t-8.5 -0.5l-4 6q4 33 4 63q0 7 -4 56l4 6q47 -6 115 -6h418
q42 0 137 10q24 3 28 2q10 -4 11 -12q-17 -20 -61 -86z" />
    <glyph glyph-name="braceleft" unicode="{" horiz-adv-x="567" 
d="M365 1130l16 -339q8 -175 -116 -243q-40 -21 -99 -38v-8q172 -72 206 -200q12 -49 9 -107l-16 -306q-9 -174 85 -246q37 -27 78 -28q18 -24 0 -49q-211 0 -274 116q-41 79 -37 218l12 348q3 207 -200 233q-21 26 0 49q162 15 194 167q6 30 6 61l-12 377q-11 300 286 312
q13 0 25 1q18 -24 0 -49q-102 -29 -136 -95q-32 -66 -27 -174z" />
    <glyph glyph-name="bar" unicode="|" horiz-adv-x="430" 
d="M266 -475h-100v1905h100v-1905z" />
    <glyph glyph-name="braceright" unicode="}" horiz-adv-x="567" 
d="M195 -119l-17 340q-8 175 116 243q40 21 99 38v8q-172 72 -206 200q-12 49 -9 107l17 305q9 174 -86 247q-37 27 -78 28q-18 24 0 49q211 0 275 -117q41 -79 36 -217l-12 -348q-3 -207 200 -234q21 -26 0 -49q-162 -15 -194 -166q-6 -30 -6 -61l12 -377
q11 -300 -286 -313h-25q-18 24 0 49q102 29 136 95q33 65 28 173z" />
    <glyph glyph-name="asciitilde" unicode="~" horiz-adv-x="919" 
d="M53 428q27 135 132 214q64 47 130 48q47 -1 152 -65q106 -67 149 -68q93 0 162 74q26 29 41 63l35 -12q-60 -206 -205 -241q-22 -5 -41 -5q-60 1 -153 68q-97 65 -152 65q-90 0 -173 -81q-31 -32 -50 -66z" />
    <glyph glyph-name="uni00A0" unicode="&#xa0;" horiz-adv-x="512" 
 />
    <glyph glyph-name="exclamdown" unicode="&#xa1;" horiz-adv-x="466" 
d="M236 -469q-71 0 -102 75q-13 34 -13 75q0 71 33 261q13 73 20 134q8 64 32 360q1 9 1 13q6 39 29 40q24 -3 28 -26q1 -14 6 -78q14 -201 25 -309q8 -77 28 -186q23 -129 23 -209q0 -116 -81 -145q-15 -5 -29 -5zM350 788v-8q-30 -77 -110 -110h-9q-84 33 -110 110v8
q27 86 101 109q6 2 9 2h9q76 -17 100 -80q6 -15 10 -31z" />
    <glyph glyph-name="cent" unicode="&#xa2;" horiz-adv-x="1024" 
d="M523 1344h79v-211q163 -1 276 -59l4 -6l-48 -172l-27 -2q-90 150 -205 155v-751h8q127 2 224 88h9l39 -44q-111 -138 -280 -148v-222h-79v224q-222 23 -317 221q-52 110 -52 253q0 229 173 366q89 69 196 90v218zM523 314v721q-125 -48 -168 -215q-16 -66 -17 -139
q0 -245 138 -342q24 -15 47 -25z" />
    <glyph glyph-name="sterling" unicode="&#xa3;" horiz-adv-x="1024" 
d="M484 902v-156h274q15 -3 16 -13v-49q-5 -25 -53 -28h-237q-4 -308 -161 -456h12q142 0 246 -58q81 -43 142 -45q157 2 228 96l40 -23q-72 -154 -235 -186q-36 -7 -72 -7q-99 0 -192 61q-88 58 -154 66q-24 3 -47 3q-91 -2 -93 -54q-20 -66 -89 -76q-57 0 -68 46
q-2 8 -1 14q3 50 111 109q144 106 155 406q1 32 1 67v37h-139q-13 5 -15 14v30q13 39 54 46h100v45q0 184 70 287q30 43 79 92q157 155 388 156q60 -1 93 -19l3 -7q-29 -50 -59 -167l-23 -3q-45 71 -118 72q-101 0 -185 -105q-70 -91 -71 -195z" />
    <glyph glyph-name="currency" unicode="&#xa4;" horiz-adv-x="1024" 
d="M237 672q0 -169 114 -258q70 -53 158 -54q148 0 226 136q44 79 44 174q0 161 -113 253q-70 55 -152 56q-147 0 -228 -130q-48 -80 -49 -177zM509 263q-141 1 -251 84l-100 -124l-95 93l125 100q-90 110 -90 254q1 152 90 256l-121 95l86 93l108 -119q113 81 248 82
q144 -1 254 -86l107 128l91 -96l-128 -102q88 -108 88 -251q-1 -139 -86 -249l121 -102l-84 -89l-107 119q-115 -85 -256 -86z" />
    <glyph glyph-name="yen" unicode="&#xa5;" horiz-adv-x="1024" 
d="M109 532q-11 5 -11 15v32q9 41 51 46h233q-42 77 -163 313q-167 326 -210 399q37 -7 119 -7t116 7q149 -386 292 -635q97 154 239 504q37 90 53 131q25 -7 86 -7t86 7q-178 -311 -385 -712h299q14 -3 16 -13v-49q-3 -29 -53 -31h-280q1 -108 2 -146h315q14 -3 16 -14v-46
q-3 -29 -53 -31h-277q5 -219 12 -302q-34 7 -107 7q-72 0 -105 -7q9 88 12 302h-303q-11 5 -11 14v31q9 41 51 46h264v35.5t0.5 40t0.5 33v37.5h-305z" />
    <glyph glyph-name="brokenbar" unicode="&#xa6;" horiz-adv-x="419" 
d="M264 1380v-741h-98v741h98zM264 330v-742h-98v742h98z" />
    <glyph glyph-name="section" unicode="&#xa7;" horiz-adv-x="989" 
d="M302 793q-82 -83 -83 -168q0 -155 216 -281q25 -14 165 -86q49 -26 87 -55q82 83 83 168q0 155 -216 280q-25 14 -165 86q-49 26 -87 56zM256 834q-90 97 -90 223q0 121 107 211q96 79 227 80q133 0 267 -115q3 -3 9 -7q6 -5 8 -7l7 -11l-35 -149l-29 -4
q-96 166 -185 200q-31 11 -61 11q-104 0 -152 -85q-21 -39 -22 -83q3 -135 164 -203q391 -159 414 -413q1 -18 2 -33q-2 -173 -154 -288q32 -33 52.5 -71t29 -75t8.5 -76q0 -121 -106 -211q-96 -79 -228 -80q-133 0 -267 114q-3 3 -9 7q-6 5 -8 8l-6 10l34 150l29 4
q96 -166 185 -200q31 -11 61 -11q104 0 152 84q21 39 22 84q-3 135 -164 202q-391 159 -414 413q-1 18 -2 34q2 172 154 287z" />
    <glyph glyph-name="dieresis" unicode="&#xa8;" horiz-adv-x="776" 
d="M102 1176q0 62 56 89q20 9 41 9q61 0 87 -58q8 -21 9 -40q0 -63 -58 -89q-19 -7 -38 -8q-63 0 -89 58q-8 20 -8 39zM449 1176q0 62 55 89q20 9 41 9q61 0 87 -58q8 -21 9 -40q0 -63 -58 -89q-19 -7 -38 -8q-63 0 -89 58q-7 20 -7 39z" />
    <glyph glyph-name="copyright" unicode="&#xa9;" horiz-adv-x="1296" 
d="M899 442q-64 -100 -184 -125q-30 -6 -58 -6q-161 0 -256 124q-62 83 -63 181q0 152 122 250q90 69 202 70q82 0 159 -24q22 -7 43 -7l29 -160l-41 -8q-43 117 -127 142q-33 9 -72 10q-125 0 -169 -124q-19 -55 -19 -128q0 -180 113 -243q44 -23 98 -23q114 1 184 102z
M649 47q-247 0 -418 179q-161 170 -161 401q0 246 177 416q170 160 402 161q247 0 418 -178q159 -169 160 -399q0 -246 -177 -418q-169 -161 -401 -162zM649 1141q-228 0 -381 -166q-134 -148 -135 -348q0 -224 164 -376q150 -137 352 -138q224 0 377 165q136 149 137 349
q0 226 -165 378q-149 135 -349 136z" />
    <glyph glyph-name="ordfeminine" unicode="&#xaa;" horiz-adv-x="608" 
d="M387 1032l-104 -31q-109 -32 -120 -103q-1 -12 -1 -24q0 -53 55 -70q18 -5 35 -5q50 1 113 49q16 15 16 33zM487 842q2 -37 21 -39q13 1 49 26l4 -2l21 -26q-56 -67 -113 -68q-66 0 -79 67q-1 5 -1 7h-8q-77 -65 -133 -72q-17 -2 -35 -2q-143 0 -158 113q-1 13 -2 24
q0 109 151 167q29 11 60 18l115 26q7 7 8 15q-11 147 -117 151q-72 -3 -139 -112h-16l-23 90l4 4q95 75 187 76q206 -5 209 -207q0 -6 -2 -81q-3 -151 -3 -175z" />
    <glyph glyph-name="guillemotleft" unicode="&#xab;" horiz-adv-x="1112" 
d="M319 440q123 -140 261 -348q-11 -33 -50 -39q-210 226 -378 375v25q172 152 378 374q39 -7 50 -39q-140 -211 -261 -348zM688 440q123 -140 260 -348q-11 -33 -49 -39q-210 226 -379 375v25q172 152 379 374q39 -7 49 -39q-139 -211 -260 -348z" />
    <glyph glyph-name="logicalnot" unicode="&#xac;" horiz-adv-x="1146" 
d="M989 272v459h-940v90h1051v-549h-111z" />
    <glyph glyph-name="uni00AD" unicode="&#xad;" horiz-adv-x="681" 
d="M561 483h-463q-26 6 -30 35q0 44 33 69q9 7 18 7h469q27 -3 28 -37q0 -32 -31 -62q-13 -11 -24 -12z" />
    <glyph glyph-name="registered" unicode="&#xae;" horiz-adv-x="1296" 
d="M883 758q0 -103 -104 -146q-9 -3 -15 -6l98 -168q33 -52 88 -43l8 -35q-36 -14 -73 -14q-83 3 -125 72l-98 164q-11 8 -76 8v-148q2 -38 24 -43l29 -4q22 -5 23 -12v-33l-5 -4q-2 0 -120 4l-125 -4l-4 4v35q4 8 20 10l35 4q25 7 26 43v369q-6 47 -47 51h-22q-15 2 -17 10
v35l5 4h278q155 0 190 -110q7 -22 7 -43zM770 758q-4 102 -102 104q-80 -3 -82 -51v-172h65q99 0 115 76q4 21 4 43zM649 47q-247 0 -418 179q-161 170 -161 401q0 246 177 416q170 160 402 161q247 0 418 -178q159 -169 160 -399q0 -246 -177 -418q-169 -161 -401 -162z
M649 1141q-228 0 -381 -166q-134 -148 -135 -348q0 -224 164 -376q150 -137 352 -138q224 0 377 165q136 149 137 349q0 226 -165 378q-149 135 -349 136z" />
    <glyph glyph-name="macron" unicode="&#xaf;" horiz-adv-x="813" 
d="M645 1083h-500q-23 3 -24 31q0 38 30 55q8 4 15 5h500q26 -3 28 -29q0 -37 -31 -56q-10 -5 -18 -6z" />
    <glyph glyph-name="degree" unicode="&#xb0;" horiz-adv-x="546" 
d="M410 1073q0 88 -65 130q-32 19 -71 20q-90 0 -125 -88q-12 -31 -12 -62q0 -86 70 -126q32 -17 67 -17q85 0 122 81q14 31 14 62zM70 1075q0 113 94 173q51 31 110 32q114 0 173 -96q30 -51 30 -109q0 -113 -95 -172q-50 -30 -108 -31q-112 0 -172 93q-31 51 -32 110z" />
    <glyph glyph-name="plusminus" unicode="&#xb1;" horiz-adv-x="1079" 
d="M592 700h352v-100h-352v-356h-105v356h-352v100h352v357h105v-357zM944 139v-100h-809v100h809z" />
    <glyph glyph-name="two.superior" unicode="&#xb2;" horiz-adv-x="636" 
d="M145 1260h-26l-23 86l4 4q68 61 191 61q104 0 166 -43q68 -45 67 -129q-2 -85 -106 -184l-109 -107q-70 -71 -71 -94h88q62 0 202 10q-6 -30 -6 -71q0 -24 6 -52q-112 4 -188 4q-57 0 -260 -4l-2 4q3 72 149 224l82 80q67 72 68 192q-2 48 -33 80q-29 31 -61 31
q-87 -3 -138 -92z" />
    <glyph glyph-name="three.superior" unicode="&#xb3;" horiz-adv-x="641" 
d="M350 817q44 39 45 121q-4 125 -121 127q-29 0 -41 -2v51q147 10 150 139q-1 43 -23 72q-26 28 -55 29q-55 -1 -84 -25q-26 -21 -53 -72h-27l-22 86l2 7q72 59 192 59q84 -1 138 -31q58 -39 59 -108q0 -133 -129 -166v-4q68 -6 111 -43q50 -45 51 -115q-2 -107 -86 -162
q-73 -47 -183 -47q-107 1 -176 62l-4 4l25 86l24 2q33 -56 50 -72q31 -24 83 -24q44 1 74 26z" />
    <glyph glyph-name="acute" unicode="&#xb4;" horiz-adv-x="698" 
d="M358 1440q13 4 29 4q64 -2 113 -47l6 -23l-236 -223q-39 -38 -61 -39q-23 6 -29 27q2 23 24 57z" />
    <glyph glyph-name="uni00B5" unicode="&#xb5;" horiz-adv-x="995" 
d="M207 -479q-42 0 -81 50q-29 39 -30 83q0 32 23 201q10 72 10 129q0 29 -7 105q-11 118 -11 185v385l-21 220q8 0 151 18q10 1 17 2q0 -2 6 -197v-401q3 -227 142 -229q133 0 227 95q18 19 31 36v676q11 0 139 18q8 1 14 2v-645q0 -142 19 -164q14 -13 34 -14q36 4 70 86
l49 -23q-46 -120 -112 -147q-33 -12 -74 -12q-85 0 -124 77q-15 32 -15 66q-132 -142 -297 -143q-76 1 -117 47q-21 -3 -25 -19q0 -68 46 -251q19 -77 20 -113q-12 -113 -84 -123z" />
    <glyph glyph-name="paragraph" unicode="&#xb6;" horiz-adv-x="1232" 
d="M752 1176v-1506q4 -76 82 -78q82 5 84 78v1506q-3 77 -84 77q-80 -3 -82 -77zM836 1321l202 6l2 -6q-20 -137 -20 -410v-977q0 -264 20 -409l-4 -6q-2 0 -202 6l-201 -6l-4 6q20 148 20 409v650q-30 -6 -65 -6q-421 0 -463 335q-4 36 -4 72q0 162 126 260q105 80 263 80
q96 0 241 -3q68 -1 89 -1z" />
    <glyph glyph-name="periodcentered" unicode="&#xb7;" horiz-adv-x="512" 
d="M256 418q-75 0 -102 67q-8 22 -9 43q0 65 61 98q25 12 50 13q64 0 97 -60q13 -25 14 -51q0 -70 -63 -99q-23 -11 -48 -11z" />
    <glyph glyph-name="cedilla" unicode="&#xb8;" horiz-adv-x="1107" 
d="M618 -197q-54 -1 -92 -12l-12 12l82 197h70l-52 -137q26 6 54 6q101 0 135 -76q10 -25 10 -51q0 -90 -106 -132q-52 -20 -113 -20q-74 1 -152 35q2 34 21 53q77 -29 119 -28q92 0 103 67q1 8 1 15q-4 69 -68 71z" />
    <glyph glyph-name="one.superior" unicode="&#xb9;" horiz-adv-x="786" 
d="M498 950q0 -120 14 -205l-2 -4q-39 4 -78 4t-74 -4v4q12 76 13 205v267q-1 68 -21 69q-72 0 -119 -6l-2 47q68 17 275 82q6 0 6 -6q-12 -85 -12 -176v-277z" />
    <glyph glyph-name="ordmasculine" unicode="&#xba;" horiz-adv-x="714" 
d="M80 879q0 192 151 256q59 24 131 24q207 0 261 -170q14 -47 14 -98q0 -151 -116 -225q-72 -45 -169 -45q-146 0 -226 111q-45 67 -46 147zM350 1108q-106 0 -140 -122q-11 -41 -11 -87q0 -126 78 -188q43 -33 98 -33q97 0 131 93q13 39 14 87q0 203 -120 242q-25 8 -50 8
z" />
    <glyph glyph-name="guillemotright" unicode="&#xbb;" horiz-adv-x="1112" 
d="M793 440q-123 140 -261 348q11 33 50 39q210 -226 379 -374v-25q-172 -152 -379 -375q-39 7 -50 39q140 211 261 348zM424 440q-123 140 -260 348q11 33 49 39q210 -226 379 -374v-25q-172 -152 -379 -375q-39 7 -49 39q139 211 260 348z" />
    <glyph glyph-name="onequarter" unicode="&#xbc;" horiz-adv-x="1351" 
d="M1141 1231l84 -17l-938 -1341l-86 16zM813 16q-58 1 -61 15q1 35 12 51q126 169 280 428v4q15 -4 54 -4t73 4l3 -4q-10 -84 -11 -162v-260h78q13 -4 14 -22q-1 -12 -8 -29q-12 -20 -22 -21h-62q0 -80 11 -159l-3 -4q-36 4 -73 4q-41 0 -76 -4v4q12 92 12 159h-221z
M836 88h198v313zM492 850q0 -120 14 -205l-2 -4q-39 4 -78 4t-74 -4v4q12 76 13 205v266q-1 68 -21 70q-72 0 -119 -6l-2 47q68 17 275 82q6 0 6 -6q-12 -85 -12 -177v-276z" />
    <glyph glyph-name="onehalf" unicode="&#xbd;" horiz-adv-x="1351" 
d="M1090 1231l86 -17l-940 -1341l-84 16zM879 352h-27l-23 86l5 4q68 61 190 62q104 0 166 -43q68 -45 67 -129q-2 -85 -106 -185l-109 -106q-70 -71 -71 -94h88q62 0 203 10q-6 -30 -7 -72q0 -24 7 -51q-112 4 -189 4q-57 0 -260 -4l-2 4q3 72 150 223l81 80q67 72 68 193
q-2 48 -33 80q-29 31 -61 30q-86 -3 -137 -92zM496 850q0 -120 14 -205l-2 -4q-39 4 -78 4t-74 -4v4q12 76 13 205v266q-1 68 -21 70q-72 0 -119 -6l-2 47q68 17 275 82q6 0 6 -6q-12 -85 -12 -177v-276z" />
    <glyph glyph-name="threequarters" unicode="&#xbe;" horiz-adv-x="1351" 
d="M1151 1231l84 -17l-938 -1341l-86 16zM346 713q44 39 45 121q-4 125 -121 127q-29 0 -41 -3v52q147 10 150 139q-1 43 -23 72q-26 28 -55 28q-55 -1 -84 -24q-26 -21 -53 -72h-27l-22 86l2 6q72 59 192 60q84 -1 137 -31q58 -39 60 -109q0 -133 -129 -166v-4
q68 -6 110 -43q50 -45 52 -114q-2 -107 -86 -162q-73 -47 -183 -47q-107 1 -176 61l-4 4l25 86l24 2q33 -56 49 -71q31 -24 84 -25q44 2 74 27zM821 20q-58 1 -61 15q1 35 12 51q126 169 281 428v4q15 -4 53 -4q39 0 74 4l2 -4q-10 -84 -11 -162v-260h78q13 -4 15 -22
q-1 -12 -9 -29q-12 -20 -22 -21h-62q0 -80 11 -159l-2 -4q-36 4 -74 4q-41 0 -76 -4v4q12 92 12 159h-221zM844 92h198v314z" />
    <glyph glyph-name="questiondown" unicode="&#xbf;" horiz-adv-x="829" 
d="M432 -389q141 2 252 192l27 -2l32 -137l-6 -8q-157 -122 -323 -127q-215 0 -300 151q-38 70 -38 158q0 154 164 282q21 16 53 40q85 64 106 102q36 72 37 150v90q4 19 27 20q25 -3 26 -20v-94q0 -159 -72 -258q-29 -38 -65 -72q-106 -98 -120 -188q-3 -22 -3 -44
q0 -137 97 -203q49 -31 106 -32zM578 788v-8q-30 -77 -111 -110h-8q-84 33 -111 110v8q27 86 101 109q6 2 10 2h8q76 -17 101 -80q6 -15 10 -31z" />
    <glyph glyph-name="Agrave" unicode="&#xc0;" horiz-adv-x="1288" 
d="M524 1675l248 -172q30 -24 31 -43q-6 -25 -31 -30q-33 1 -88 24l-315 129q64 61 155 92zM834 564q-95 247 -207 505h-4l-216 -504q27 0 89 -2q89 -2 125 -2q88 0 213 3zM367 468q-125 -308 -170 -474q-26 6 -93 6q-48 -1 -71 -6q349 764 604 1354h57q72 -172 239 -584
q259 -642 322 -770q-37 6 -122 6q-68 0 -103 -6q-51 183 -159 474q-146 3 -240 3q-117 0 -264 -3z" />
    <glyph glyph-name="Aacute" unicode="&#xc1;" horiz-adv-x="1288" 
d="M752 1679q88 -42 127 -106l-295 -119q-58 -24 -86 -24q-28 3 -31 30q4 23 31 43zM834 564q-95 247 -207 505h-4l-216 -504q27 0 89 -2q89 -2 125 -2q88 0 213 3zM367 468q-125 -308 -170 -474q-26 6 -93 6q-48 -1 -71 -6q349 764 604 1354h57q72 -172 239 -584
q259 -642 322 -770q-37 6 -122 6q-68 0 -103 -6q-51 183 -159 474q-146 3 -240 3q-117 0 -264 -3z" />
    <glyph glyph-name="Acircumflex" unicode="&#xc2;" horiz-adv-x="1288" 
d="M709 1649q85 -100 206 -193l-32 -43q-127 59 -217 127q-104 -75 -220 -127l-28 43q89 68 203 193h88zM834 564q-95 247 -207 505h-4l-216 -504q27 0 89 -2q89 -2 125 -2q88 0 213 3zM367 468q-125 -308 -170 -474q-26 6 -93 6q-48 -1 -71 -6q349 764 604 1354h57
q72 -172 239 -584q259 -642 322 -770q-37 6 -122 6q-68 0 -103 -6q-51 183 -159 474q-146 3 -240 3q-117 0 -264 -3z" />
    <glyph glyph-name="Atilde" unicode="&#xc3;" horiz-adv-x="1288" 
d="M807 1524q57 0 87 67q8 18 15 39l49 -12q-37 -184 -178 -184q-53 1 -131 53q-74 44 -110 45q-66 0 -96 -83l-5 -15l-49 10q40 167 141 181q12 1 23 1q67 -1 147 -57q61 -45 107 -45zM834 564q-95 247 -207 505h-4l-216 -504q27 0 89 -2q89 -2 125 -2q88 0 213 3zM367 468
q-125 -308 -170 -474q-26 6 -93 6q-48 -1 -71 -6q349 764 604 1354h57q72 -172 239 -584q259 -642 322 -770q-37 6 -122 6q-68 0 -103 -6q-51 183 -159 474q-146 3 -240 3q-117 0 -264 -3z" />
    <glyph glyph-name="Adieresis" unicode="&#xc4;" horiz-adv-x="1288" 
d="M293 1452q0 60 56 84q18 8 38 8q62 0 85 -57q7 -18 7 -35q0 -62 -57 -85q-18 -7 -35 -7q-61 0 -86 55q-8 19 -8 37zM856 1452q0 60 56 84q18 8 38 8q62 0 86 -57q7 -18 6 -35q0 -62 -56 -85q-17 -7 -36 -7q-61 0 -86 55q-8 19 -8 37zM834 564q-95 247 -207 505h-4
l-216 -504q27 0 89 -2q89 -2 125 -2q88 0 213 3zM367 468q-125 -308 -170 -474q-26 6 -93 6q-48 -1 -71 -6q349 764 604 1354h57q72 -172 239 -584q259 -642 322 -770q-37 6 -122 6q-68 0 -103 -6q-51 183 -159 474q-146 3 -240 3q-117 0 -264 -3z" />
    <glyph glyph-name="Aring" unicode="&#xc5;" horiz-adv-x="1288" 
d="M664 1577q-73 0 -97 -74q-6 -21 -6 -41q0 -73 57 -103q22 -11 46 -11q70 0 95 72q7 22 7 42q0 80 -63 107q-19 8 -39 8zM485 1462q0 95 88 146q44 24 91 24q98 0 151 -80q26 -42 27 -90q0 -94 -86 -145q-21 -12 -42 -18q67 -161 218 -534q260 -643 323 -771q-37 6 -122 6
q-68 0 -103 -6q-51 183 -159 474q-146 3 -240 3q-118 0 -264 -3q-125 -308 -170 -474q-26 6 -93 6q-48 -1 -71 -6q336 735 583 1305q-89 25 -120 108q-11 27 -11 55zM834 564q-95 247 -207 505h-4l-216 -504q27 0 89 -2q89 -2 125 -2q88 0 213 3z" />
    <glyph glyph-name="AE" unicode="&#xc6;" horiz-adv-x="1642" 
d="M455 570q-164 -340 -254 -576q-26 6 -92 6q-48 -1 -72 -6q57 110 170 333q325 641 543 995l4 5q4 0 104 -6h436q74 0 123 6l4 -6q-4 -58 -4 -64q0 -22 4 -53l-4 -8l-218 18q-80 4 -157 3q-144 0 -166 -36q-12 -22 -7 -64q41 -204 95 -435q225 1 459 20l7 -6
q-6 -29 -7 -57q0 -30 7 -57l-7 -7q-172 17 -439 21q64 -272 121 -482l435 21l4 -8q-4 -33 -4 -68q0 -7 4 -59l-4 -6q-50 6 -123 6h-280h-3h-110q-68 0 -102 -6q-1 105 -91 578q-68 1 -135 1q-99 0 -241 -3zM813 665q-34 179 -83 428h-4q-110 -194 -224 -426q173 -3 184 -3
q49 0 127 1z" />
    <glyph glyph-name="Ccedilla" unicode="&#xc7;" horiz-adv-x="1386" 
d="M752 -205q-54 -1 -93 -12l-12 12l77 186q-325 18 -497 266q-120 176 -121 398q0 295 205 502q187 189 440 200q15 1 27 1q238 0 442 -91q4 -2 5 -2l4 -6q-34 -144 -40 -211q-1 -9 -1 -16l-21 -2q-118 230 -417 231q-150 0 -273 -121q-159 -160 -160 -446q0 -277 145 -449
q129 -150 326 -151q185 0 307 89q60 45 130 122l49 -39q-204 -264 -480 -276l-46 -125q26 6 53 6q101 0 135 -77q10 -25 10 -50q0 -90 -106 -132q-52 -20 -113 -20q-74 1 -152 35q2 34 21 53q77 -29 119 -28q92 0 103 67q1 8 1 15q-3 69 -67 71z" />
    <glyph glyph-name="Egrave" unicode="&#xc8;" horiz-adv-x="1101" 
d="M389 410q0 -237 17 -295q123 0 267 6t227 12l83 6l4 -8q-4 -33 -4 -68q0 -11 4 -63l-4 -6q-50 6 -123 6h-559l-106 -6l-2 6q20 140 20 410v501q0 264 -20 410l4 6q4 0 104 -6h539q74 0 123 6l4 -6q-4 -57 -4 -78q0 -22 4 -53l-4 -8l-358 21q-108 4 -199 3
q-16 -56 -17 -295v-159q217 0 457 20l6 -6q-6 -28 -6 -66t6 -65l-6 -6q-202 20 -457 20v-239zM502 1673l248 -172q30 -24 30 -43q-6 -25 -30 -31q-33 1 -88 25l-316 129q65 61 156 92z" />
    <glyph glyph-name="Eacute" unicode="&#xc9;" horiz-adv-x="1101" 
d="M389 410q0 -237 17 -295q123 0 267 6t227 12l83 6l4 -8q-4 -33 -4 -68q0 -11 4 -63l-4 -6q-50 6 -123 6h-559l-106 -6l-2 6q20 140 20 410v501q0 264 -20 410l4 6q4 0 104 -6h539q74 0 123 6l4 -6q-4 -57 -4 -78q0 -22 4 -53l-4 -8l-358 21q-108 4 -199 3
q-16 -56 -17 -295v-159q217 0 457 20l6 -6q-6 -28 -6 -66t6 -65l-6 -6q-202 20 -457 20v-239zM717 1679q88 -42 127 -106l-295 -119q-58 -24 -86 -24q-28 3 -31 30q4 23 31 43z" />
    <glyph glyph-name="Ecircumflex" unicode="&#xca;" horiz-adv-x="1101" 
d="M649 1649q85 -100 207 -193l-33 -43q-127 59 -217 127q-104 -75 -219 -127l-29 43q89 68 203 193h88zM389 410q0 -237 17 -295q123 0 267 6t227 12l83 6l4 -8q-4 -33 -4 -68q0 -11 4 -63l-4 -6q-50 6 -123 6h-559l-106 -6l-2 6q20 140 20 410v501q0 264 -20 410l4 6
q4 0 104 -6h539q74 0 123 6l4 -6q-4 -57 -4 -78q0 -22 4 -53l-4 -8l-358 21q-108 4 -199 3q-16 -56 -17 -295v-159q217 0 457 20l6 -6q-6 -28 -6 -66t6 -65l-6 -6q-202 20 -457 20v-239z" />
    <glyph glyph-name="Edieresis" unicode="&#xcb;" horiz-adv-x="1101" 
d="M684 1538q0 62 58 89q21 9 40 9q62 0 89 -57q9 -21 10 -41q0 -62 -58 -89q-21 -9 -41 -9q-62 0 -89 57q-9 21 -9 41zM297 1538q0 62 58 89q21 9 40 9q62 0 89 -57q9 -21 10 -41q0 -62 -58 -89q-21 -9 -41 -9q-62 0 -89 57q-9 21 -9 41zM389 410q0 -237 17 -295
q123 0 267 6t227 12l83 6l4 -8q-4 -33 -4 -68q0 -11 4 -63l-4 -6q-50 6 -123 6h-559l-106 -6l-2 6q20 140 20 410v501q0 264 -20 410l4 6q4 0 104 -6h539q74 0 123 6l4 -6q-4 -57 -4 -78q0 -22 4 -53l-4 -8l-358 21q-108 4 -199 3q-16 -56 -17 -295v-159q217 0 457 20l6 -6
q-6 -28 -6 -66t6 -65l-6 -6q-202 20 -457 20v-239z" />
    <glyph glyph-name="Igrave" unicode="&#xcc;" horiz-adv-x="602" 
d="M213 911q0 264 -20 410l4 6q37 -6 104 -6t105 6l4 -6q-20 -137 -21 -410v-501q0 -264 21 -410l-4 -6q-37 6 -105 6q-67 0 -104 -6l-4 6q20 140 20 410v501zM203 1673l248 -172q30 -24 30 -43q-6 -25 -30 -31q-33 1 -89 25l-315 129q65 61 156 92z" />
    <glyph glyph-name="Iacute" unicode="&#xcd;" horiz-adv-x="602" 
d="M213 911q0 264 -20 410l4 6q37 -6 104 -6t105 6l4 -6q-20 -137 -21 -410v-501q0 -264 21 -410l-4 -6q-37 6 -105 6q-67 0 -104 -6l-4 6q20 140 20 410v501zM430 1677q88 -42 127 -106l-295 -119q-58 -24 -86 -25q-28 3 -31 31q4 23 31 43z" />
    <glyph glyph-name="Icircumflex" unicode="&#xce;" horiz-adv-x="602" 
d="M342 1649q85 -100 207 -193l-33 -43q-127 59 -217 127q-104 -75 -219 -127l-29 43q89 68 203 193h88zM213 911q0 264 -20 410l4 6q37 -6 104 -6t105 6l4 -6q-20 -137 -21 -410v-501q0 -264 21 -410l-4 -6q-37 6 -105 6q-67 0 -104 -6l-4 6q20 140 20 410v501z" />
    <glyph glyph-name="Idieresis" unicode="&#xcf;" horiz-adv-x="602" 
d="M414 1536q0 62 57 89q21 9 41 9q62 0 89 -57q9 -21 9 -41q0 -62 -57 -89q-21 -9 -41 -9q-62 0 -89 57q-9 21 -9 41zM27 1536q0 62 57 89q21 9 41 9q62 0 89 -57q9 -21 9 -41q0 -62 -57 -89q-21 -9 -41 -9q-62 0 -89 57q-9 21 -9 41zM213 911q0 264 -20 410l4 6
q37 -6 104 -6t105 6l4 -6q-20 -137 -21 -410v-501q0 -264 21 -410l-4 -6q-37 6 -105 6q-67 0 -104 -6l-4 6q20 140 20 410v501z" />
    <glyph glyph-name="Eth" unicode="&#xd0;" horiz-adv-x="1454" 
d="M389 168q0 -52 39 -67q45 -15 184 -15q325 0 442 167q82 120 83 329q0 363 -204 535q-144 120 -372 120q-142 0 -165 -49q-6 -16 -7 -33v-487h201v-80h-201v-420zM301 1321q66 0 169 3q105 3 169 3q288 0 495 -199q203 -195 213 -471q0 -14 1 -26q0 -422 -341 -571
q-149 -64 -331 -64q-115 0 -226 2q-85 2 -149 2l-106 -6l-2 6q20 140 20 410v178h-178v80h178v243q0 264 -20 410l4 6q4 0 104 -6z" />
    <glyph glyph-name="Ntilde" unicode="&#xd1;" horiz-adv-x="1470" 
d="M854 1520q57 0 87 67q8 18 15 39l50 -12q-37 -184 -179 -184q-53 1 -131 53q-74 44 -110 45q-66 0 -95 -83q-3 -9 -6 -15l-49 10q40 167 141 181q12 1 23 1q67 -1 148 -57q60 -45 106 -45zM221 1321l4 6q10 0 86 -6l29 4l702 -909q82 -106 97 -113t20 19q3 15 4 43v546
q0 264 -20 410l4 6q38 -6 72 -6q36 0 71 6l4 -6q-24 -330 -37 -1101q-2 -98 -4 -177q-6 -62 -39 -63q-52 2 -88 49l-714 903q-60 77 -71 66q-9 -13 -9 -99v-489q0 -264 20 -410l-4 -6q-38 6 -72 6q-36 0 -71 -6l-4 6q44 441 27 1134q-3 102 -7 187z" />
    <glyph glyph-name="Ograve" unicode="&#xd2;" horiz-adv-x="1517" 
d="M727 1257q-192 0 -306 -169q-103 -157 -104 -418q0 -331 199 -498q124 -102 281 -102q218 0 326 204q76 145 77 361q0 481 -296 593q-80 29 -177 29zM1411 674q0 -336 -211 -531q-179 -162 -444 -163q-282 0 -468 187q-181 185 -182 468q0 309 195 516q187 196 453 197
q293 0 480 -199q176 -190 177 -475zM623 1677l247 -172q30 -24 31 -43q-6 -25 -31 -30q-33 1 -88 24l-315 129q65 61 156 92z" />
    <glyph glyph-name="Oacute" unicode="&#xd3;" horiz-adv-x="1517" 
d="M727 1257q-192 0 -306 -169q-103 -157 -104 -418q0 -331 199 -498q124 -102 281 -102q218 0 326 204q76 145 77 361q0 481 -296 593q-80 29 -177 29zM1411 674q0 -336 -211 -531q-179 -162 -444 -163q-282 0 -468 187q-181 185 -182 468q0 309 195 516q187 196 453 197
q293 0 480 -199q176 -190 177 -475zM793 1679q88 -42 127 -106l-295 -119q-58 -24 -86 -24q-28 3 -31 30q4 23 31 43z" />
    <glyph glyph-name="Ocircumflex" unicode="&#xd4;" horiz-adv-x="1517" 
d="M795 1649q85 -100 206 -193l-32 -43q-127 59 -217 127q-104 -75 -220 -127l-28 43q89 68 203 193h88zM727 1257q-192 0 -306 -169q-103 -157 -104 -418q0 -331 199 -498q124 -102 281 -102q218 0 326 204q76 145 77 361q0 481 -296 593q-80 29 -177 29zM1411 674
q0 -336 -211 -531q-179 -162 -444 -163q-282 0 -468 187q-181 185 -182 468q0 309 195 516q187 196 453 197q293 0 480 -199q176 -190 177 -475z" />
    <glyph glyph-name="Otilde" unicode="&#xd5;" horiz-adv-x="1517" 
d="M870 1520q57 0 88 67q8 18 15 39l49 -12q-37 -184 -178 -184q-53 1 -131 53q-74 44 -111 45q-66 0 -95 -83l-5 -15l-49 10q40 167 141 181q12 1 22 1q67 -1 148 -57q60 -45 106 -45zM727 1257q-192 0 -306 -169q-103 -157 -104 -418q0 -331 199 -498q124 -102 281 -102
q218 0 326 204q76 145 77 361q0 481 -296 593q-80 29 -177 29zM1411 674q0 -336 -211 -531q-179 -162 -444 -163q-282 0 -468 187q-181 185 -182 468q0 309 195 516q187 196 453 197q293 0 480 -199q176 -190 177 -475z" />
    <glyph glyph-name="Odieresis" unicode="&#xd6;" horiz-adv-x="1517" 
d="M193 1452q0 60 56 84q18 8 38 8q62 0 85 -57q7 -18 7 -35q0 -62 -57 -85q-17 -7 -35 -7q-61 0 -86 55q-8 19 -8 37zM1141 1452q0 62 57 85q17 7 35 7q62 0 85 -57q7 -18 7 -35q0 -62 -57 -85q-17 -7 -35 -7q-62 0 -85 57q-7 18 -7 35zM727 1257q-192 0 -306 -169
q-103 -157 -104 -418q0 -331 199 -498q124 -102 281 -102q218 0 326 204q76 145 77 361q0 481 -296 593q-80 29 -177 29zM1411 674q0 -336 -211 -531q-179 -162 -444 -163q-282 0 -468 187q-181 185 -182 468q0 309 195 516q187 196 453 197q293 0 480 -199
q176 -190 177 -475z" />
    <glyph glyph-name="multiply" unicode="&#xd7;" horiz-adv-x="1079" 
d="M610 471l252 -250l-71 -71l-250 249l-250 -249l-74 71l252 250l-252 252l74 72l250 -252l250 252l71 -72z" />
    <glyph glyph-name="Oslash" unicode="&#xd8;" horiz-adv-x="1517" 
d="M221 -27q-49 0 -70 53q-3 8 -4 13l121 149q-161 182 -162 447q0 309 195 516q187 196 453 197q208 -1 370 -107l86 107q50 0 70 -47q3 -9 4 -15l-84 -104q210 -193 211 -508q0 -336 -211 -531q-179 -162 -444 -163q-240 1 -416 140zM727 1257q-192 0 -306 -169
q-103 -157 -104 -418q1 -191 72 -334l653 804q-121 116 -315 117zM1103 1062l-659 -814q144 -173 353 -178q218 0 326 204q76 145 77 361q-1 270 -97 427z" />
    <glyph glyph-name="Ugrave" unicode="&#xd9;" horiz-adv-x="1417" 
d="M1114 911q0 264 -20 410l4 6q38 -6 71 -6q36 0 72 6l4 -6q-20 -137 -20 -410v-307q0 -435 -243 -563q-118 -61 -292 -61q-242 0 -371 156q-105 130 -106 347v428q0 264 -20 410l4 6q37 -6 104 -6t105 6l4 -6q-20 -137 -21 -410v-360q5 -454 344 -457q300 0 361 257
q20 84 20 216v344zM688 1675l248 -172q30 -24 31 -43q-6 -25 -31 -30q-33 1 -88 24l-316 129q65 61 156 92z" />
    <glyph glyph-name="Uacute" unicode="&#xda;" horiz-adv-x="1417" 
d="M1114 911q0 264 -20 410l4 6q38 -6 71 -6q36 0 72 6l4 -6q-20 -137 -20 -410v-307q0 -435 -243 -563q-118 -61 -292 -61q-242 0 -371 156q-105 130 -106 347v428q0 264 -20 410l4 6q37 -6 104 -6t105 6l4 -6q-20 -137 -21 -410v-360q5 -454 344 -457q300 0 361 257
q20 84 20 216v344zM870 1677q88 -42 127 -106l-295 -119q-58 -24 -86 -25q-28 3 -30 31q4 23 30 43z" />
    <glyph glyph-name="Ucircumflex" unicode="&#xdb;" horiz-adv-x="1417" 
d="M1114 911q0 264 -20 410l4 6q38 -6 71 -6q36 0 72 6l4 -6q-20 -137 -20 -410v-307q0 -435 -243 -563q-118 -61 -292 -61q-242 0 -371 156q-105 130 -106 347v428q0 264 -20 410l4 6q37 -6 104 -6t105 6l4 -6q-20 -137 -21 -410v-360q5 -454 344 -457q300 0 361 257
q20 84 20 216v344zM819 1649q85 -100 207 -193l-33 -43q-127 59 -217 127q-104 -75 -219 -127l-29 43q89 68 203 193h88z" />
    <glyph glyph-name="Udieresis" unicode="&#xdc;" horiz-adv-x="1417" 
d="M492 1452q0 62 56 85q17 7 36 7q62 0 85 -57q7 -18 7 -35q0 -62 -57 -85q-17 -7 -35 -7q-62 0 -86 57q-6 18 -6 35zM848 1452q0 62 57 85q17 7 35 7q62 0 85 -57q7 -18 7 -35q0 -62 -57 -85q-17 -7 -35 -7q-62 0 -85 57q-7 18 -7 35zM1114 911q0 264 -20 410l4 6
q38 -6 71 -6q36 0 72 6l4 -6q-20 -137 -20 -410v-307q0 -435 -243 -563q-118 -61 -292 -61q-242 0 -371 156q-105 130 -106 347v428q0 264 -20 410l4 6q37 -6 104 -6t105 6l4 -6q-20 -137 -21 -410v-360q5 -454 344 -457q300 0 361 257q20 84 20 216v344z" />
    <glyph glyph-name="Yacute" unicode="&#xdd;" horiz-adv-x="1177" 
d="M682 584q5 -474 14 -590q-37 6 -102 6t-102 -6q14 159 14 569q-185 317 -443 718q-18 29 -30 46q53 -6 117 -6q65 0 116 6q67 -130 330 -581q16 -27 29 -50q230 361 358 631q38 -6 86 -6q46 0 86 6q-64 -98 -171 -260q-240 -362 -302 -483zM737 1679q88 -42 127 -106
l-295 -119q-58 -24 -86 -24q-28 3 -30 30q4 23 30 43z" />
    <glyph glyph-name="Thorn" unicode="&#xde;" horiz-adv-x="1116" 
d="M213 911q0 264 -20 410l4 6q37 -6 104 -6t105 6l4 -6q-14 -95 -19 -247q73 4 178 3q342 0 435 -233q26 -68 26 -142q0 -148 -113 -263q-137 -137 -376 -138q-107 0 -151 13q3 -192 20 -314l-4 -6q-37 6 -105 6q-67 0 -104 -6l-4 6q20 140 20 410v501zM389 394
q37 -9 141 -9q290 20 299 317q-3 289 -262 291q-95 0 -178 -21v-61v-501v-16z" />
    <glyph glyph-name="germandbls" unicode="&#xdf;" horiz-adv-x="1116" 
d="M707 -20q-117 1 -213 57l-2 6q16 29 38 119l23 2q30 -54 97 -88q31 -14 57 -15q117 0 132 175q2 30 3 63q0 201 -162 393q-58 67 -125 119v27q141 109 171 220q13 52 13 118q-4 170 -159 172q-162 0 -199 -185q-15 -78 -14 -258v-495q0 -283 18 -410l-4 -6q-37 6 -96 6
t-97 -6l-4 6q18 127 19 410v350q-7 27 -25 28h-86q-16 3 -16 17l14 53q10 20 47 21q53 0 62 33q4 19 4 65q0 285 203 401q92 51 192 52q198 0 275 -130q28 -49 28 -98q0 -168 -114 -284q-37 -37 -89 -76v-4q258 -170 312 -399q12 -53 12 -105q-1 -159 -68 -248
q-83 -105 -247 -106z" />
    <glyph glyph-name="agrave" unicode="&#xe0;" horiz-adv-x="985" 
d="M401 1374l144 -258q12 -26 12 -49q-6 -18 -31 -23q-19 3 -59 41l-234 224l5 22q65 46 133 47q14 0 30 -4zM635 461l-174 -47q-178 -48 -199 -163q-3 -21 -4 -42q0 -71 73 -108q37 -17 79 -17q83 1 188 80q28 24 29 53zM635 98h-8q-116 -98 -203 -113q-34 -5 -76 -5
q-207 0 -247 151q-8 33 -9 70q0 155 191 246q67 32 149 51l191 43q13 8 14 24q0 228 -164 241q-15 1 -33 1q-118 -3 -225 -174l-27 2l-34 137l6 8q143 118 301 119q335 -5 338 -332q0 -9 -2 -94q-4 -177 -4 -215q1 -128 34 -160q18 -15 60 -15q26 1 55 11l16 -51
q-61 -63 -163 -63q-124 2 -160 118z" />
    <glyph glyph-name="aacute" unicode="&#xe1;" horiz-adv-x="985" 
d="M500 1374q13 4 28 4q64 -2 113 -47l6 -22l-235 -224q-39 -38 -62 -38q-23 6 -28 26q2 23 23 57zM635 461l-174 -47q-178 -48 -199 -163q-3 -21 -4 -42q0 -71 73 -108q37 -17 79 -17q83 1 188 80q28 24 29 53zM635 98h-8q-116 -98 -203 -113q-34 -5 -76 -5
q-207 0 -247 151q-8 33 -9 70q0 155 191 246q67 32 149 51l191 43q13 8 14 24q0 228 -164 241q-15 1 -33 1q-118 -3 -225 -174l-27 2l-34 137l6 8q143 118 301 119q335 -5 338 -332q0 -9 -2 -94q-4 -177 -4 -215q1 -128 34 -160q18 -15 60 -15q26 1 55 11l16 -51
q-61 -63 -163 -63q-124 2 -160 118z" />
    <glyph glyph-name="acircumflex" unicode="&#xe2;" horiz-adv-x="985" 
d="M492 1323q69 -111 206 -264l-43 -29q-145 109 -217 184q-92 -94 -219 -184l-41 29q148 166 211 264h103zM635 461l-174 -47q-178 -48 -199 -163q-3 -21 -4 -42q0 -71 73 -108q37 -17 79 -17q83 1 188 80q28 24 29 53zM635 98h-8q-116 -98 -203 -113q-34 -5 -76 -5
q-207 0 -247 151q-8 33 -9 70q0 155 191 246q67 32 149 51l191 43q13 8 14 24q0 228 -164 241q-15 1 -33 1q-118 -3 -225 -174l-27 2l-34 137l6 8q143 118 301 119q335 -5 338 -332q0 -9 -2 -94q-4 -177 -4 -215q1 -128 34 -160q18 -15 60 -15q26 1 55 11l16 -51
q-61 -63 -163 -63q-124 2 -160 118z" />
    <glyph glyph-name="atilde" unicode="&#xe3;" horiz-adv-x="985" 
d="M580 1167q57 0 87 68q8 18 15 39l49 -12q-37 -184 -178 -185q-53 1 -131 53q-74 44 -111 46q-66 0 -95 -83q-3 -9 -5 -16l-49 10q40 167 141 181q11 1 23 2q67 -1 147 -58q61 -45 107 -45zM635 461l-174 -47q-178 -48 -199 -163q-3 -21 -4 -42q0 -71 73 -108
q37 -17 79 -17q83 1 188 80q28 24 29 53zM635 98h-8q-116 -98 -203 -113q-34 -5 -76 -5q-207 0 -247 151q-8 33 -9 70q0 155 191 246q67 32 149 51l191 43q13 8 14 24q0 228 -164 241q-15 1 -33 1q-118 -3 -225 -174l-27 2l-34 137l6 8q143 118 301 119q335 -5 338 -332
q0 -9 -2 -94q-4 -177 -4 -215q1 -128 34 -160q18 -15 60 -15q26 1 55 11l16 -51q-61 -63 -163 -63q-124 2 -160 118z" />
    <glyph glyph-name="adieresis" unicode="&#xe4;" horiz-adv-x="985" 
d="M170 1176q0 62 56 89q20 9 40 9q61 0 88 -58q8 -21 8 -40q0 -63 -58 -89q-19 -7 -38 -8q-63 0 -88 58q-8 20 -8 39zM516 1176q0 62 56 89q20 9 40 9q61 0 88 -58q8 -21 9 -40q0 -63 -58 -89q-19 -7 -39 -8q-63 0 -88 58q-8 20 -8 39zM635 461l-174 -47
q-178 -48 -199 -163q-3 -21 -4 -42q0 -71 73 -108q37 -17 79 -17q83 1 188 80q28 24 29 53zM635 98h-8q-116 -98 -203 -113q-34 -5 -76 -5q-207 0 -247 151q-8 33 -9 70q0 155 191 246q67 32 149 51l191 43q13 8 14 24q0 228 -164 241q-15 1 -33 1q-118 -3 -225 -174l-27 2
l-34 137l6 8q143 118 301 119q335 -5 338 -332q0 -9 -2 -94q-4 -177 -4 -215q1 -128 34 -160q18 -15 60 -15q26 1 55 11l16 -51q-61 -63 -163 -63q-124 2 -160 118z" />
    <glyph glyph-name="aring" unicode="&#xe5;" horiz-adv-x="985" 
d="M430 1307q-73 0 -96 -74q-6 -21 -6 -41q0 -73 57 -104q22 -11 45 -11q70 0 95 73q7 22 7 42q0 80 -63 107q-19 8 -39 8zM252 1192q0 95 87 145q44 24 91 25q98 0 151 -81q26 -42 27 -89q0 -94 -85 -145q-44 -25 -93 -25q-98 0 -151 81q-26 43 -27 89zM635 461l-174 -47
q-178 -48 -199 -163q-3 -21 -4 -42q0 -71 73 -108q37 -17 79 -17q83 1 188 80q28 24 29 53zM635 98h-8q-116 -98 -203 -113q-34 -5 -76 -5q-207 0 -247 151q-8 33 -9 70q0 155 191 246q67 32 149 51l191 43q13 8 14 24q0 228 -164 241q-15 1 -33 1q-118 -3 -225 -174l-27 2
l-34 137l6 8q143 118 301 119q335 -5 338 -332q0 -9 -2 -94q-4 -177 -4 -215q1 -128 34 -160q18 -15 60 -15q26 1 55 11l16 -51q-61 -63 -163 -63q-124 2 -160 118z" />
    <glyph glyph-name="ae" unicode="&#xe6;" horiz-adv-x="1406" 
d="M606 440q-357 -34 -358 -223q4 -133 145 -135q102 0 163 74q18 23 28 49q22 64 22 235zM768 528q74 4 186 5q141 1 170 21q26 22 27 73q0 79 -57 138q-42 41 -93 42q-147 0 -207 -159q-20 -55 -26 -120zM414 807q-111 0 -212 -151q-11 -17 -20 -31l-26 2l-33 137l6 8
q153 126 303 127q201 -3 281 -143q108 141 291 143q190 0 282 -155q37 -63 37 -111q-2 -102 -53 -148q-49 -27 -247 -30q-167 -3 -257 -9q0 -231 130 -319q56 -36 124 -37q133 2 252 139l41 -57q-69 -128 -214 -175q-55 -17 -108 -17q-179 0 -280 123q-6 7 -15 18
q-149 -140 -307 -141q-299 14 -309 227q0 184 254 267q116 37 272 48q-3 207 -85 259q-42 26 -107 26z" />
    <glyph glyph-name="ccedilla" unicode="&#xe7;" horiz-adv-x="878" 
d="M477 -193q-54 -1 -92 -12l-12 12l72 175q-219 20 -314 213q-53 109 -53 251q0 224 169 358q121 94 267 95q161 -1 272 -57l5 -6l-48 -168l-26 -2q-90 150 -205 151q-126 0 -200 -130q-53 -97 -54 -230q0 -241 137 -335q59 -39 129 -40q124 2 219 86h9l39 -43
q-109 -136 -276 -145l-42 -113q26 6 53 6q101 0 135 -76q10 -25 11 -51q0 -90 -106 -131q-52 -20 -113 -21q-74 1 -152 35q2 34 21 54q77 -29 118 -29q92 0 104 67q1 8 1 15q-4 69 -68 71z" />
    <glyph glyph-name="egrave" unicode="&#xe8;" horiz-adv-x="927" 
d="M430 1374l143 -258q12 -26 13 -49q-6 -18 -31 -23q-19 3 -59 41l-234 224l4 22q65 46 133 47q15 0 31 -4zM256 559h377q27 4 29 29q0 148 -102 208q-36 20 -71 21q-73 0 -141 -67q-72 -72 -92 -191zM803 213l41 -51q-108 -148 -289 -177q-35 -5 -68 -5q-213 2 -325 135
q-92 112 -92 313q0 244 174 382q114 89 245 89q244 0 325 -216q29 -80 30 -171q-4 -33 -37 -35h-557q1 -182 49 -260q77 -114 223 -117q177 2 281 113z" />
    <glyph glyph-name="eacute" unicode="&#xe9;" horiz-adv-x="927" 
d="M553 1374q13 4 29 4q64 -2 112 -47l6 -22l-235 -224q-39 -38 -62 -38q-23 6 -28 26q2 23 23 57zM256 559h377q27 4 29 29q0 148 -102 208q-36 20 -71 21q-73 0 -141 -67q-72 -72 -92 -191zM803 213l41 -51q-108 -148 -289 -177q-35 -5 -68 -5q-213 2 -325 135
q-92 112 -92 313q0 244 174 382q114 89 245 89q244 0 325 -216q29 -80 30 -171q-4 -33 -37 -35h-557q1 -182 49 -260q77 -114 223 -117q177 2 281 113z" />
    <glyph glyph-name="ecircumflex" unicode="&#xea;" horiz-adv-x="927" 
d="M528 1323q69 -111 207 -264l-43 -29q-145 109 -217 184q-92 -94 -219 -184l-41 29q148 166 211 264h102zM256 559h377q27 4 29 29q0 148 -102 208q-36 20 -71 21q-73 0 -141 -67q-72 -72 -92 -191zM803 213l41 -51q-108 -148 -289 -177q-35 -5 -68 -5q-213 2 -325 135
q-92 112 -92 313q0 244 174 382q114 89 245 89q244 0 325 -216q29 -80 30 -171q-4 -33 -37 -35h-557q1 -182 49 -260q77 -114 223 -117q177 2 281 113z" />
    <glyph glyph-name="edieresis" unicode="&#xeb;" horiz-adv-x="927" 
d="M203 1176q0 62 56 89q20 9 40 9q61 0 87 -58q8 -21 9 -40q0 -63 -58 -89q-19 -7 -38 -8q-63 0 -88 58q-8 20 -8 39zM549 1176q0 62 56 89q20 9 40 9q61 0 88 -58q8 -21 8 -40q0 -63 -58 -89q-19 -7 -38 -8q-63 0 -88 58q-8 20 -8 39zM256 559h377q27 4 29 29
q0 148 -102 208q-36 20 -71 21q-73 0 -141 -67q-72 -72 -92 -191zM803 213l41 -51q-108 -148 -289 -177q-35 -5 -68 -5q-213 2 -325 135q-92 112 -92 313q0 244 174 382q114 89 245 89q244 0 325 -216q29 -80 30 -171q-4 -33 -37 -35h-557q1 -182 49 -260q77 -114 223 -117
q177 2 281 113z" />
    <glyph glyph-name="igrave" unicode="&#xec;" horiz-adv-x="532" 
d="M225 1374l144 -258q12 -26 12 -49q-6 -18 -31 -23q-19 3 -59 41l-234 224l4 22q65 46 134 47q14 0 30 -4zM184 481q0 272 -18 398l4 6q88 -7 178 2q17 -9 19 -21q-18 -175 -19 -352v-145q0 -224 19 -369l-5 -6q-37 6 -96 6t-96 -6l-4 6q18 140 18 369v112z" />
    <glyph glyph-name="iacute" unicode="&#xed;" horiz-adv-x="532" 
d="M356 1374q13 4 29 4q64 -2 113 -47l6 -22l-236 -224q-39 -38 -61 -38q-23 6 -29 26q2 23 24 57zM184 481q0 272 -18 398l4 6q88 -7 178 2q17 -9 19 -21q-18 -175 -19 -352v-145q0 -224 19 -369l-5 -6q-37 6 -96 6t-96 -6l-4 6q18 140 18 369v112z" />
    <glyph glyph-name="icircumflex" unicode="&#xee;" horiz-adv-x="532" 
d="M330 1323q69 -111 207 -264l-43 -29q-145 109 -218 184q-92 -94 -219 -184l-41 29q148 166 211 264h103zM184 481q0 272 -18 398l4 6q88 -7 178 2q17 -9 19 -21q-18 -175 -19 -352v-145q0 -224 19 -369l-5 -6q-37 6 -96 6t-96 -6l-4 6q18 140 18 369v112z" />
    <glyph glyph-name="idieresis" unicode="&#xef;" horiz-adv-x="532" 
d="M10 1176q0 62 56 89q20 9 40 9q61 0 88 -58q8 -21 9 -40q0 -63 -58 -89q-19 -7 -39 -8q-63 0 -88 58q-8 20 -8 39zM356 1176q0 62 56 89q20 9 41 9q61 0 87 -58q8 -21 9 -40q0 -63 -58 -89q-19 -7 -38 -8q-63 0 -89 58q-8 20 -8 39zM184 481q0 272 -18 398l4 6
q88 -7 178 2q17 -9 19 -21q-18 -175 -19 -352v-145q0 -224 19 -369l-5 -6q-37 6 -96 6t-96 -6l-4 6q18 140 18 369v112z" />
    <glyph glyph-name="eth" unicode="&#xf0;" horiz-adv-x="1013" 
d="M516 63q161 0 215 196q22 84 23 198q-1 156 -33 272q-70 85 -209 86q-200 0 -246 -231q-11 -59 -12 -123q0 -223 118 -336q66 -61 144 -62zM70 426q0 284 220 411q110 62 226 62q87 -1 158 -29q-63 150 -185 301l-223 -149l-45 65l215 146l-33 33q-48 50 -145 118l39 46
q111 -61 217 -146l217 146l45 -66l-198 -133l36 -37q318 -321 320 -709q0 -302 -205 -435q-110 -70 -248 -70q-203 0 -325 174q-85 125 -86 272z" />
    <glyph glyph-name="ntilde" unicode="&#xf1;" horiz-adv-x="1103" 
d="M700 1167q57 0 88 68q8 18 15 39l49 -12q-37 -184 -178 -185q-53 1 -131 53q-74 44 -111 46q-66 0 -95 -83q-3 -9 -5 -16l-49 10q40 167 141 181q12 1 22 2q67 -1 148 -58q60 -45 106 -45zM942 369q0 -235 19 -369l-5 -6q-37 6 -96 6t-96 -6l-4 6q18 140 18 369v200
q0 162 -70 194q-30 13 -77 13q-124 0 -251 -119q-25 -24 -46 -49v-239q0 -238 18 -369l-4 -6q-37 6 -96 6t-96 -6l-4 6q18 127 18 369v112q0 283 -18 398l4 6q90 -9 166 6q11 0 12 -16v-5v-149l4 -6q163 177 354 184q204 0 243 -197q11 -56 11 -127q0 -33 -2 -103
q-2 -71 -2 -103z" />
    <glyph glyph-name="ograve" unicode="&#xf2;" horiz-adv-x="1024" 
d="M479 1374l144 -258q12 -26 12 -49q-6 -18 -31 -23q-19 3 -59 41l-234 224l4 22q65 46 134 47q14 0 30 -4zM78 420q0 274 181 402q110 76 261 77q276 0 378 -220q47 -104 48 -241q0 -254 -171 -379q-110 -79 -263 -79q-240 0 -360 179q-73 113 -74 261zM506 817
q-201 0 -240 -252q-8 -53 -8 -110q0 -222 107 -329q66 -65 165 -65q125 0 193 138q42 89 43 202q0 279 -97 364q-62 51 -163 52z" />
    <glyph glyph-name="oacute" unicode="&#xf3;" horiz-adv-x="1024" 
d="M573 1374q13 4 29 4q64 -2 113 -47l6 -22l-236 -224q-39 -38 -61 -38q-23 6 -29 26q2 23 24 57zM78 420q0 274 181 402q110 76 261 77q276 0 378 -220q47 -104 48 -241q0 -254 -171 -379q-110 -79 -263 -79q-240 0 -360 179q-73 113 -74 261zM506 817q-201 0 -240 -252
q-8 -53 -8 -110q0 -222 107 -329q66 -65 165 -65q125 0 193 138q42 89 43 202q0 279 -97 364q-62 51 -163 52z" />
    <glyph glyph-name="ocircumflex" unicode="&#xf4;" horiz-adv-x="1024" 
d="M567 1323q69 -111 207 -264l-43 -29q-145 109 -217 184q-92 -94 -219 -184l-41 29q148 166 211 264h102zM78 420q0 274 181 402q110 76 261 77q276 0 378 -220q47 -104 48 -241q0 -254 -171 -379q-110 -79 -263 -79q-240 0 -360 179q-73 113 -74 261zM506 817
q-201 0 -240 -252q-8 -53 -8 -110q0 -222 107 -329q66 -65 165 -65q125 0 193 138q42 89 43 202q0 279 -97 364q-62 51 -163 52z" />
    <glyph glyph-name="otilde" unicode="&#xf5;" horiz-adv-x="1024" 
d="M643 1167q57 0 87 68q8 18 15 39l50 -12q-37 -184 -179 -185q-53 1 -131 53q-74 44 -110 46q-66 0 -95 -83q-3 -9 -6 -16l-49 10q40 167 141 181q12 1 23 2q67 -1 148 -58q60 -45 106 -45zM78 420q0 274 181 402q110 76 261 77q276 0 378 -220q47 -104 48 -241
q0 -254 -171 -379q-110 -79 -263 -79q-240 0 -360 179q-73 113 -74 261zM506 817q-201 0 -240 -252q-8 -53 -8 -110q0 -222 107 -329q66 -65 165 -65q125 0 193 138q42 89 43 202q0 279 -97 364q-62 51 -163 52z" />
    <glyph glyph-name="odieresis" unicode="&#xf6;" horiz-adv-x="1024" 
d="M229 1176q0 62 56 89q20 9 41 9q61 0 87 -58q8 -21 9 -40q0 -63 -58 -89q-19 -7 -38 -8q-63 0 -89 58q-8 20 -8 39zM575 1176q0 62 56 89q20 9 41 9q61 0 87 -58q8 -21 9 -40q0 -63 -58 -89q-19 -7 -38 -8q-63 0 -89 58q-8 20 -8 39zM78 420q0 274 181 402q110 76 261 77
q276 0 378 -220q47 -104 48 -241q0 -254 -171 -379q-110 -79 -263 -79q-240 0 -360 179q-73 113 -74 261zM506 817q-201 0 -240 -252q-8 -53 -8 -110q0 -222 107 -329q66 -65 165 -65q125 0 193 138q42 89 43 202q0 279 -97 364q-62 51 -163 52z" />
    <glyph glyph-name="divide" unicode="&#xf7;" horiz-adv-x="1079" 
d="M447 751v7q26 65 93 93h7q70 -28 92 -93v-7q-27 -75 -92 -92h-7q-65 15 -86 71q-4 11 -7 21zM447 203v6q26 65 93 93h7q70 -28 92 -93v-6q-27 -75 -92 -93h-7q-65 15 -86 71q-4 12 -7 22zM944 526v-100h-809v100h809z" />
    <glyph glyph-name="oslash" unicode="&#xf8;" horiz-adv-x="1024" 
d="M868 930l64 -47l-93 -113q106 -124 107 -332q0 -254 -171 -379q-110 -79 -263 -79q-151 1 -259 76l-93 -113l-62 53l93 113q-113 124 -113 311q0 274 181 402q110 76 261 77q157 -1 261 -75zM506 817q-201 0 -240 -252q-8 -53 -8 -110q1 -123 38 -219l406 492
q-64 88 -196 89zM739 648l-401 -489q73 -96 192 -98q125 0 193 138q42 89 43 202q-1 160 -27 247z" />
    <glyph glyph-name="ugrave" unicode="&#xf9;" horiz-adv-x="1099" 
d="M467 1374l143 -258q12 -26 13 -49q-6 -18 -31 -23q-19 3 -60 41l-233 224l4 22q65 46 133 47q15 0 31 -4zM748 188q-103 -159 -241 -198q-36 -10 -69 -10q-209 0 -257 188q-11 46 -11 96v246q0 238 -18 369l4 6q37 -6 96 -6t96 6l4 -6q-18 -124 -18 -369v-203
q0 -190 99 -210q17 -3 38 -3q108 0 225 138q32 39 56 77v201q0 234 -19 369l4 6q37 -6 97 -6q59 0 96 6l4 -6q-18 -124 -19 -369v-117q0 -206 35 -393l-4 -6q-41 6 -91 6q-26 0 -71 -6q-18 0 -18 6l-10 182z" />
    <glyph glyph-name="uacute" unicode="&#xfa;" horiz-adv-x="1099" 
d="M627 1374q13 4 28 4q64 -2 113 -47l6 -22l-235 -224q-39 -38 -62 -38q-23 6 -28 26q2 23 23 57zM748 188q-103 -159 -241 -198q-36 -10 -69 -10q-209 0 -257 188q-11 46 -11 96v246q0 238 -18 369l4 6q37 -6 96 -6t96 6l4 -6q-18 -124 -18 -369v-203q0 -190 99 -210
q17 -3 38 -3q108 0 225 138q32 39 56 77v201q0 234 -19 369l4 6q37 -6 97 -6q59 0 96 6l4 -6q-18 -124 -19 -369v-117q0 -206 35 -393l-4 -6q-41 6 -91 6q-26 0 -71 -6q-18 0 -18 6l-10 182z" />
    <glyph glyph-name="ucircumflex" unicode="&#xfb;" horiz-adv-x="1099" 
d="M575 1323q69 -111 207 -264l-43 -29q-145 109 -217 184q-92 -94 -219 -184l-41 29q148 166 211 264h102zM748 188q-103 -159 -241 -198q-36 -10 -69 -10q-209 0 -257 188q-11 46 -11 96v246q0 238 -18 369l4 6q37 -6 96 -6t96 6l4 -6q-18 -124 -18 -369v-203
q0 -190 99 -210q17 -3 38 -3q108 0 225 138q32 39 56 77v201q0 234 -19 369l4 6q37 -6 97 -6q59 0 96 6l4 -6q-18 -124 -19 -369v-117q0 -206 35 -393l-4 -6q-41 6 -91 6q-26 0 -71 -6q-18 0 -18 6l-10 182z" />
    <glyph glyph-name="udieresis" unicode="&#xfc;" horiz-adv-x="1099" 
d="M270 1176q0 62 56 89q20 9 41 9q61 0 87 -58q8 -21 9 -40q0 -63 -58 -89q-19 -7 -38 -8q-63 0 -89 58q-8 20 -8 39zM616 1176q0 62 56 89q20 9 41 9q61 0 87 -58q8 -21 9 -40q0 -63 -58 -89q-19 -7 -38 -8q-63 0 -89 58q-8 20 -8 39zM748 188q-103 -159 -241 -198
q-36 -10 -69 -10q-209 0 -257 188q-11 46 -11 96v246q0 238 -18 369l4 6q37 -6 96 -6t96 6l4 -6q-18 -124 -18 -369v-203q0 -190 99 -210q17 -3 38 -3q108 0 225 138q32 39 56 77v201q0 234 -19 369l4 6q37 -6 97 -6q59 0 96 6l4 -6q-18 -124 -19 -369v-117q0 -206 35 -393
l-4 -6q-41 6 -91 6q-26 0 -71 -6q-18 0 -18 6l-10 182z" />
    <glyph glyph-name="yacute" unicode="&#xfd;" horiz-adv-x="1036" 
d="M629 1374q13 4 28 4q64 -2 113 -47l6 -22l-235 -224q-39 -38 -62 -38q-23 6 -28 26q2 23 23 57zM57 885q30 -6 107 -6q74 0 100 6q69 -211 274 -706h4q138 295 269 706q22 -6 80 -6q67 0 88 6q-156 -317 -413 -914q-145 -337 -181 -456q-34 10 -100 10q-38 -1 -72 -10
q149 248 242 465q-46 124 -392 893q-4 7 -6 12z" />
    <glyph glyph-name="thorn" unicode="&#xfe;" horiz-adv-x="1054" 
d="M334 627v-480q74 -88 174 -88q267 3 268 367q0 291 -157 355q-33 13 -68 14q-91 0 -168 -88q-31 -37 -49 -80zM334 -66q0 -273 20 -409l-4 -6q-4 0 -98 6l-100 -6l-2 6q20 131 20 409v1053q0 271 -20 385l4 6q68 5 177 49q4 1 5 3q17 -4 18 -21q-20 -165 -20 -385v-221
l-2 -68q82 133 217 159q28 5 55 5q159 0 272 -145q95 -124 97 -273q0 -251 -172 -396q-125 -104 -283 -105q-101 1 -184 45v-91z" />
    <glyph glyph-name="ydieresis" unicode="&#xff;" horiz-adv-x="1036" 
d="M270 1176q0 62 56 89q20 9 41 9q61 0 87 -58q8 -21 9 -40q0 -63 -58 -89q-19 -7 -38 -8q-63 0 -89 58q-8 20 -8 39zM616 1176q0 62 56 89q20 9 41 9q61 0 87 -58q8 -21 9 -40q0 -63 -58 -89q-19 -7 -38 -8q-63 0 -89 58q-8 20 -8 39zM57 885q30 -6 107 -6q74 0 100 6
q69 -211 274 -706h4q138 295 269 706q22 -6 80 -6q67 0 88 6q-156 -317 -413 -914q-145 -337 -181 -456q-34 10 -100 10q-38 -1 -72 -10q149 248 242 465q-46 124 -392 893q-4 7 -6 12z" />
    <glyph glyph-name="Amacron" unicode="&#x100;" horiz-adv-x="1288" 
d="M909 1487h-499q-25 3 -27 31q0 35 29 54q9 5 16 5h502q26 -3 28 -29q0 -37 -31 -56q-10 -4 -18 -5zM834 564q-95 247 -207 505h-4l-216 -504q27 0 89 -2q89 -2 125 -2q88 0 213 3zM367 468q-125 -308 -170 -474q-26 6 -93 6q-48 -1 -71 -6q349 764 604 1354h57
q72 -172 239 -584q259 -642 322 -770q-37 6 -122 6q-68 0 -103 -6q-51 183 -159 474q-146 3 -240 3q-117 0 -264 -3z" />
    <glyph glyph-name="amacron" unicode="&#x101;" horiz-adv-x="985" 
d="M680 1102h-500q-25 3 -26 31q0 35 29 53q9 5 16 6h501q26 -3 29 -29q0 -37 -31 -56q-10 -4 -18 -5zM635 461l-174 -47q-178 -48 -199 -163q-3 -21 -4 -42q0 -71 73 -108q37 -17 79 -17q83 1 188 80q28 24 29 53zM635 98h-8q-116 -98 -203 -113q-34 -5 -76 -5
q-207 0 -247 151q-8 33 -9 70q0 155 191 246q67 32 149 51l191 43q13 8 14 24q0 228 -164 241q-15 1 -33 1q-118 -3 -225 -174l-27 2l-34 137l6 8q143 118 301 119q335 -5 338 -332q0 -9 -2 -94q-4 -177 -4 -215q1 -128 34 -160q18 -15 60 -15q26 1 55 11l16 -51
q-61 -63 -163 -63q-124 2 -160 118z" />
    <glyph glyph-name="Abreve" unicode="&#x102;" horiz-adv-x="1288" 
d="M934 1647q-12 -137 -142 -201q-65 -30 -137 -31q-162 0 -238 113q-35 53 -40 119h57q18 -89 143 -117q38 -8 78 -8q130 0 194 70q22 26 28 55h57zM834 564q-95 247 -207 505h-4l-216 -504q27 0 89 -2q89 -2 125 -2q88 0 213 3zM367 468q-125 -308 -170 -474q-26 6 -93 6
q-48 -1 -71 -6q349 764 604 1354h57q72 -172 239 -584q259 -642 322 -770q-37 6 -122 6q-68 0 -103 -6q-51 183 -159 474q-146 3 -240 3q-117 0 -264 -3z" />
    <glyph glyph-name="abreve" unicode="&#x103;" horiz-adv-x="985" 
d="M201 1325q25 -123 135 -168q42 -16 86 -16q131 0 193 105q21 37 28 79l55 -25q-23 -168 -154 -242q-60 -33 -122 -34q-167 0 -243 162q-24 52 -34 114zM635 461l-174 -47q-178 -48 -199 -163q-3 -21 -4 -42q0 -71 73 -108q37 -17 79 -17q83 1 188 80q28 24 29 53zM635 98
h-8q-116 -98 -203 -113q-34 -5 -76 -5q-207 0 -247 151q-8 33 -9 70q0 155 191 246q67 32 149 51l191 43q13 8 14 24q0 228 -164 241q-15 1 -33 1q-118 -3 -225 -174l-27 2l-34 137l6 8q143 118 301 119q335 -5 338 -332q0 -9 -2 -94q-4 -177 -4 -215q1 -128 34 -160
q18 -15 60 -15q26 1 55 11l16 -51q-61 -63 -163 -63q-124 2 -160 118z" />
    <glyph glyph-name="Aogonek" unicode="&#x104;" horiz-adv-x="1288" 
d="M1116 -334q-98 -109 -203 -115q-124 0 -154 102q-7 26 -7 54q2 170 262 344q-55 182 -143 417q-146 3 -240 3q-118 0 -264 -3q-125 -308 -170 -474q-26 6 -93 6q-48 -1 -71 -6q349 764 604 1354h57q72 -172 239 -584q259 -642 322 -770q-37 6 -122 6q-17 0 -49 -3
q-33 -3 -49 -2q-123 -124 -142 -211q-6 -27 -6 -54q0 -59 52 -82q17 -6 34 -6q52 2 108 61l6 -2zM834 564q-95 247 -207 505h-4l-216 -504q27 0 89 -2q89 -2 125 -2q88 0 213 3z" />
    <glyph glyph-name="aogonek" unicode="&#x105;" horiz-adv-x="985" 
d="M911 -313q-98 -109 -202 -115q-124 0 -155 102q-7 26 -7 54q2 135 164 271q-56 33 -76 99h-8q-116 -98 -203 -113q-34 -5 -76 -5q-207 0 -247 151q-8 33 -9 70q0 155 191 246q67 32 149 51l191 43q13 8 14 24q0 228 -164 241q-15 1 -33 1q-118 -3 -225 -174l-27 2
l-34 137l6 8q143 118 301 119q335 -5 338 -332q0 -9 -2 -94q-4 -177 -4 -215q1 -128 34 -160q18 -15 60 -15q26 1 55 11l16 -51q-61 -62 -162 -63q-109 -128 -114 -230q0 -59 52 -81q17 -6 34 -7q52 2 109 62l6 -3zM635 461l-174 -47q-178 -48 -199 -163q-3 -21 -4 -42
q0 -71 73 -108q37 -17 79 -17q83 1 188 80q28 24 29 53z" />
    <glyph glyph-name="Cacute" unicode="&#x106;" horiz-adv-x="1386" 
d="M874 1679q88 -42 127 -106l-294 -119q-58 -24 -86 -24q-28 3 -31 30q4 23 31 43zM778 1348q238 0 442 -91q4 -2 5 -2l4 -6q-34 -144 -40 -211q-1 -9 -1 -16l-21 -2q-118 230 -417 231q-150 0 -273 -121q-159 -160 -160 -446q0 -277 145 -449q129 -150 326 -151
q185 0 307 89q60 45 130 122l49 -39q-213 -275 -504 -276q-341 0 -527 246q-136 182 -137 419q0 295 205 502q187 189 440 200q14 1 27 1z" />
    <glyph glyph-name="cacute" unicode="&#x107;" horiz-adv-x="878" 
d="M549 1374q13 4 29 4q64 -2 112 -47l6 -22l-235 -224q-39 -38 -62 -38q-23 6 -28 26q2 23 23 57zM512 817q-126 0 -200 -130q-53 -97 -54 -230q0 -241 137 -335q59 -39 129 -40q124 2 219 86h9l39 -43q-116 -145 -302 -145q-233 0 -343 187q-68 117 -68 279q0 224 169 358
q121 94 267 95q161 -1 272 -57l5 -6l-48 -168l-26 -2q-90 149 -205 151z" />
    <glyph glyph-name="Ccircumflex" unicode="&#x108;" horiz-adv-x="1386" 
d="M774 1651q85 -100 207 -193l-33 -43q-127 59 -217 127q-104 -75 -219 -127l-29 43q89 68 203 193h88zM778 1348q238 0 442 -91q4 -2 5 -2l4 -6q-34 -144 -40 -211q-1 -9 -1 -16l-21 -2q-118 230 -417 231q-150 0 -273 -121q-159 -160 -160 -446q0 -277 145 -449
q129 -150 326 -151q185 0 307 89q60 45 130 122l49 -39q-213 -275 -504 -276q-341 0 -527 246q-136 182 -137 419q0 295 205 502q187 189 440 200q14 1 27 1z" />
    <glyph glyph-name="ccircumflex" unicode="&#x109;" horiz-adv-x="878" 
d="M535 1323q69 -111 206 -264l-43 -29q-145 109 -217 184q-92 -94 -219 -184l-41 29q148 166 211 264h103zM510 817q-126 0 -200 -130q-53 -97 -54 -230q0 -241 137 -335q59 -39 129 -40q124 2 219 86h9l38 -43q-116 -145 -301 -145q-233 0 -343 187q-68 117 -68 279
q0 224 169 358q121 94 267 95q161 -1 272 -57l4 -6l-47 -168l-26 -2q-90 149 -205 151z" />
    <glyph glyph-name="Cdotaccent" unicode="&#x10a;" horiz-adv-x="1386" 
d="M623 1599q0 65 59 96q23 11 47 11q65 0 95 -60q11 -23 12 -47q0 -65 -60 -95q-23 -11 -47 -11q-65 0 -95 60q-10 23 -11 46zM778 1348q238 0 442 -91q4 -2 5 -2l4 -6q-34 -144 -40 -211q-1 -9 -1 -16l-21 -2q-118 230 -417 231q-150 0 -273 -121q-159 -160 -160 -446
q0 -277 145 -449q129 -150 326 -151q185 0 307 89q60 45 130 122l49 -39q-213 -275 -504 -276q-341 0 -527 246q-136 182 -137 419q0 295 205 502q187 189 440 200q14 1 27 1z" />
    <glyph glyph-name="cdotaccent" unicode="&#x10b;" horiz-adv-x="878" 
d="M393 1223q0 62 59 92q23 11 46 12q62 0 92 -58q11 -23 12 -46q0 -62 -58 -93q-23 -11 -46 -12q-62 0 -93 59q-11 23 -12 46zM512 817q-126 0 -200 -130q-53 -97 -54 -230q0 -241 137 -335q59 -39 129 -40q124 2 219 86h9l39 -43q-116 -145 -302 -145q-233 0 -343 187
q-68 117 -68 279q0 224 169 358q121 94 267 95q161 -1 272 -57l5 -6l-48 -168l-26 -2q-90 149 -205 151z" />
    <glyph glyph-name="Ccaron" unicode="&#x10c;" horiz-adv-x="1386" 
d="M682 1427q-76 92 -207 195l33 41q124 -55 217 -125q117 82 219 125l31 -41q-102 -79 -205 -195h-88zM778 1348q238 0 442 -91q4 -2 5 -2l4 -6q-34 -144 -40 -211q-1 -9 -1 -16l-21 -2q-118 230 -417 231q-150 0 -273 -121q-159 -160 -160 -446q0 -277 145 -449
q129 -150 326 -151q185 0 307 89q60 45 130 122l49 -39q-213 -275 -504 -276q-341 0 -527 246q-136 182 -137 419q0 295 205 502q187 189 440 200q14 1 27 1z" />
    <glyph glyph-name="ccaron" unicode="&#x10d;" horiz-adv-x="878" 
d="M442 1028q-79 127 -206 266l40 27q145 -109 218 -184q79 81 221 184l39 -27q-138 -155 -209 -266h-103zM512 817q-126 0 -200 -130q-53 -97 -54 -230q0 -241 137 -335q59 -39 129 -40q124 2 219 86h9l39 -43q-116 -145 -302 -145q-233 0 -343 187q-68 117 -68 279
q0 224 169 358q121 94 267 95q161 -1 272 -57l5 -6l-48 -168l-26 -2q-90 149 -205 151z" />
    <glyph glyph-name="Dcaron" unicode="&#x10e;" horiz-adv-x="1454" 
d="M596 1427q-76 92 -207 195l33 41q124 -55 217 -125q117 82 219 125l31 -41q-102 -79 -205 -195h-88zM389 168q0 -52 39 -67q45 -15 184 -15q325 0 442 167q82 120 83 329q0 363 -204 535q-144 120 -372 120q-142 0 -165 -49q-6 -16 -7 -33v-987zM301 1321q66 0 169 3
q105 3 169 3q288 0 495 -199q203 -195 213 -471q0 -14 1 -26q0 -422 -341 -571q-149 -64 -331 -64q-115 0 -226 2q-85 2 -149 2l-106 -6l-2 6q20 140 20 410v501q0 264 -20 410l4 6q4 0 104 -6z" />
    <glyph glyph-name="dcaron" unicode="&#x10f;" horiz-adv-x="1142" 
d="M1092 1430q80 0 112 -88q11 -31 10 -62q0 -86 -74 -156q-58 -52 -134 -61l-11 35q88 19 121 100q8 23 8 41q-2 40 -28 43q-93 2 -95 78q0 50 57 65q17 5 34 5zM739 231v467q-64 101 -149 116q-22 3 -45 3q-155 0 -222 -146q-40 -88 -40 -218q0 -281 134 -350
q34 -16 70 -17q134 0 247 139q3 4 5 6zM739 119q-109 -138 -264 -139q-187 0 -294 170q-76 124 -77 286q0 244 176 374q122 88 287 89q82 0 164 -40q6 -3 8 -5v133q0 293 -18 395l4 7q94 8 178 41q17 -4 19 -21q-18 -229 -19 -385v-631q0 -206 35 -393l-4 -6q-41 6 -91 6
q-26 0 -71 -6q-18 0 -18 6l-11 119h-4z" />
    <glyph glyph-name="Dcroat" unicode="&#x110;" horiz-adv-x="1454" 
d="M389 168q0 -52 39 -67q45 -15 184 -15q325 0 442 167q82 120 83 329q0 363 -204 535q-144 120 -372 120q-142 0 -165 -49q-6 -16 -7 -33v-485h316v-82h-316v-420zM301 1321q66 0 169 3q105 3 169 3q288 0 495 -199q203 -195 213 -471q0 -14 1 -26q0 -422 -341 -571
q-149 -64 -331 -64q-115 0 -226 2q-85 2 -149 2l-106 -6l-2 6q20 140 20 410v178h-178v82h178v241q0 264 -20 410l4 6q4 0 104 -6z" />
    <glyph glyph-name="dcroat" unicode="&#x111;" horiz-adv-x="1085" 
d="M1100 1171l2 -79h-198q-1 -34 -1 -68v-631q0 -206 35 -393l-4 -6q-41 6 -91 6q-26 0 -71 -6q-18 0 -18 6l-11 119h-4q-109 -138 -264 -139q-187 0 -294 170q-76 124 -77 286q0 244 176 374q122 88 287 89q82 0 164 -40q6 -3 8 -5v133v105h-245v79h243q-4 140 -16 211l4 7
q94 8 178 41q17 -4 19 -21q-12 -152 -16 -238h194zM739 231v467q-64 101 -149 116q-22 3 -45 3q-155 0 -222 -146q-40 -88 -40 -218q0 -281 134 -350q34 -16 70 -17q134 0 247 139q3 4 5 6z" />
    <glyph glyph-name="Emacron" unicode="&#x112;" horiz-adv-x="1101" 
d="M788 1501h-499q-25 3 -27 31q0 35 29 54q9 5 16 5h502q26 -3 29 -28q0 -37 -32 -56q-10 -5 -18 -6zM389 410q0 -237 17 -295q123 0 267 6t227 12l83 6l4 -8q-4 -33 -4 -68q0 -11 4 -63l-4 -6q-50 6 -123 6h-559l-106 -6l-2 6q20 140 20 410v501q0 264 -20 410l4 6
q4 0 104 -6h539q74 0 123 6l4 -6q-4 -57 -4 -78q0 -22 4 -53l-4 -8l-358 21q-108 4 -199 3q-16 -56 -17 -295v-159q217 0 457 20l6 -6q-6 -28 -6 -66t6 -65l-6 -6q-202 20 -457 20v-239z" />
    <glyph glyph-name="emacron" unicode="&#x113;" horiz-adv-x="927" 
d="M711 1102h-500q-25 3 -27 31q0 35 29 53q9 5 16 6h502q26 -3 29 -29q0 -37 -32 -56q-9 -4 -17 -5zM256 559h377q27 4 29 29q0 148 -102 208q-36 20 -71 21q-73 0 -141 -67q-72 -72 -92 -191zM803 213l41 -51q-108 -148 -289 -177q-35 -5 -68 -5q-213 2 -325 135
q-92 112 -92 313q0 244 174 382q114 89 245 89q244 0 325 -216q29 -80 30 -171q-4 -33 -37 -35h-557q1 -182 49 -260q77 -114 223 -117q177 2 281 113z" />
    <glyph glyph-name="Ebreve" unicode="&#x114;" horiz-adv-x="1101" 
d="M852 1645q-12 -137 -142 -201q-65 -30 -137 -31q-162 0 -238 113q-35 53 -40 119h57q18 -89 143 -117q38 -8 78 -8q130 0 194 70q22 26 28 55h57zM389 410q0 -237 17 -295q123 0 267 6t227 12l83 6l4 -8q-4 -33 -4 -68q0 -11 4 -63l-4 -6q-50 6 -123 6h-559l-106 -6l-2 6
q20 140 20 410v501q0 264 -20 410l4 6q4 0 104 -6h539q74 0 123 6l4 -6q-4 -57 -4 -78q0 -22 4 -53l-4 -8l-358 21q-108 4 -199 3q-16 -56 -17 -295v-159q217 0 457 20l6 -6q-6 -28 -6 -66t6 -65l-6 -6q-202 20 -457 20v-239z" />
    <glyph glyph-name="ebreve" unicode="&#x115;" horiz-adv-x="927" 
d="M246 1327q25 -123 135 -168q42 -16 86 -16q131 0 193 105q21 37 28 79l55 -24q-23 -168 -154 -243q-60 -33 -122 -34q-167 0 -242 162q-24 52 -35 115zM256 559h377q27 4 29 29q0 148 -102 208q-36 20 -71 21q-73 0 -141 -67q-72 -72 -92 -191zM803 213l41 -51
q-108 -148 -289 -177q-35 -5 -68 -5q-213 2 -325 135q-92 112 -92 313q0 244 174 382q114 89 245 89q244 0 325 -216q29 -80 30 -171q-4 -33 -37 -35h-557q1 -182 49 -260q77 -114 223 -117q177 2 281 113z" />
    <glyph glyph-name="Edotaccent" unicode="&#x116;" horiz-adv-x="1101" 
d="M459 1599q0 65 60 96q23 11 46 11q65 0 95 -60q11 -23 12 -47q0 -65 -60 -95q-23 -11 -47 -11q-65 0 -95 60q-10 23 -11 46zM389 410q0 -237 17 -295q123 0 267 6t227 12l83 6l4 -8q-4 -33 -4 -68q0 -11 4 -63l-4 -6q-50 6 -123 6h-559l-106 -6l-2 6q20 140 20 410v501
q0 264 -20 410l4 6q4 0 104 -6h539q74 0 123 6l4 -6q-4 -57 -4 -78q0 -22 4 -53l-4 -8l-358 21q-108 4 -199 3q-16 -56 -17 -295v-159q217 0 457 20l6 -6q-6 -28 -6 -66t6 -65l-6 -6q-202 20 -457 20v-239z" />
    <glyph glyph-name="edotaccent" unicode="&#x117;" horiz-adv-x="927" 
d="M367 1223q0 62 58 92q23 11 46 12q62 0 93 -58q11 -23 11 -46q0 -62 -58 -93q-23 -11 -46 -12q-62 0 -93 59q-10 23 -11 46zM256 559h377q27 4 29 29q0 148 -102 208q-36 20 -71 21q-73 0 -141 -67q-72 -72 -92 -191zM803 213l41 -51q-108 -148 -289 -177q-35 -5 -68 -5
q-213 2 -325 135q-92 112 -92 313q0 244 174 382q114 89 245 89q244 0 325 -216q29 -80 30 -171q-4 -33 -37 -35h-557q1 -182 49 -260q77 -114 223 -117q177 2 281 113z" />
    <glyph glyph-name="Eogonek" unicode="&#x118;" horiz-adv-x="1101" 
d="M705 -459q-131 0 -176 98q-15 35 -15 76q0 115 118 223q41 36 87 62h-418l-106 -6l-2 6q20 140 20 410v501q0 264 -20 410l4 6q4 0 104 -6h539q74 0 123 6l4 -6q-4 -57 -4 -78q0 -22 4 -53l-4 -8l-358 21q-108 4 -199 3q-16 -56 -17 -295v-159q217 0 457 20l6 -6
q-6 -28 -6 -66t6 -65l-6 -6q-202 20 -457 20v-239q0 -237 17 -295q123 0 267 6t227 12l83 6l4 -8q-4 -33 -4 -68q0 -11 4 -63l-4 -6q-38 4 -86 6q-133 -8 -215 -129q-45 -67 -45 -129q0 -81 68 -111q24 -10 51 -10q74 2 143 74l31 -17q-56 -109 -183 -133q-22 -4 -42 -4z
" />
    <glyph glyph-name="eogonek" unicode="&#x119;" horiz-adv-x="927" 
d="M256 559h377q27 4 29 29q0 148 -102 208q-36 20 -71 21q-73 0 -141 -67q-72 -72 -92 -191zM803 213l41 -51q-35 -46 -80 -83l4 -3q-133 -131 -162 -209q-14 -41 -14 -84q0 -59 52 -81q17 -6 34 -7q52 2 108 61l7 -2l28 -35q-98 -109 -203 -114q-124 0 -154 102
q-7 26 -7 53q2 114 116 228q-44 -8 -86 -8q-213 2 -325 135q-92 112 -92 313q0 244 174 382q114 89 245 89q244 0 325 -216q29 -80 30 -171q-4 -33 -37 -35h-557q1 -182 49 -260q77 -114 223 -117q177 2 281 113z" />
    <glyph glyph-name="Ecaron" unicode="&#x11a;" horiz-adv-x="1101" 
d="M549 1427q-76 92 -207 195l33 41q124 -55 217 -125q117 82 219 125l31 -41q-102 -79 -205 -195h-88zM389 410q0 -237 17 -295q123 0 267 6t227 12l83 6l4 -8q-4 -33 -4 -68q0 -11 4 -63l-4 -6q-50 6 -123 6h-559l-106 -6l-2 6q20 140 20 410v501q0 264 -20 410l4 6
q4 0 104 -6h539q74 0 123 6l4 -6q-4 -57 -4 -78q0 -22 4 -53l-4 -8l-358 21q-108 4 -199 3q-16 -56 -17 -295v-159q217 0 457 20l6 -6q-6 -28 -6 -66t6 -65l-6 -6q-202 20 -457 20v-239z" />
    <glyph glyph-name="ecaron" unicode="&#x11b;" horiz-adv-x="927" 
d="M408 1026q-79 127 -207 266l41 27q145 -109 217 -184q79 81 221 184l39 -27q-138 -155 -209 -266h-102zM256 559h377q27 4 29 29q0 148 -102 208q-36 20 -71 21q-73 0 -141 -67q-72 -72 -92 -191zM803 213l41 -51q-108 -148 -289 -177q-35 -5 -68 -5q-213 2 -325 135
q-92 112 -92 313q0 244 174 382q114 89 245 89q244 0 325 -216q29 -80 30 -171q-4 -33 -37 -35h-557q1 -182 49 -260q77 -114 223 -117q177 2 281 113z" />
    <glyph glyph-name="Gcircumflex" unicode="&#x11c;" horiz-adv-x="1468" 
d="M788 1649q85 -100 207 -193l-32 -43q-127 59 -218 127q-104 -75 -219 -127l-28 43q89 68 202 193h88zM1118 240q-6 284 -20 389l4 6q4 0 104 -6l107 6l2 -6q-20 -138 -21 -348v-13q1 -72 21 -98v-6q-222 -184 -545 -184q-316 0 -506 223q-157 188 -158 446q0 338 248 537
q202 161 467 162q111 0 227.5 -22.5t178.5 -46.5l61 -24l4 -6q-33 -141 -41 -248l-20 -2q-114 193 -328 240q-55 12 -110 12q-239 0 -372 -196q-103 -156 -104 -385q0 -266 141 -435q136 -160 359 -161q218 1 301 78v88z" />
    <glyph glyph-name="gcircumflex" unicode="&#x11d;" horiz-adv-x="1021" 
d="M522 1321q69 -111 207 -264l-43 -29q-145 109 -217 184q-92 -94 -219 -184l-41 29q148 166 211 264h102zM207 -213q0 -114 158 -166q62 -20 110 -20q203 0 297 90q46 46 47 102q-2 100 -80 148q-72 34 -217 34q-11 0 -60 -2q-86 -4 -122 -4q-94 -51 -124 -136
q-9 -25 -9 -46zM799 592q0 -183 -144 -266q-83 -47 -196 -47q-97 1 -152 28q-61 -54 -61 -114q0 -89 92 -96q13 -1 27 -1q6 0 59 4q78 10 170 11q209 -1 289 -68q85 -75 86 -203q0 -177 -224 -268q-146 -59 -327 -59q-201 0 -297 96q-55 58 -55 137q1 64 47 135
q25 20 167 100q4 2 7 4q-137 24 -154 148q-2 15 -2 29q2 83 127 170q-144 86 -145 256q0 173 158 261q90 49 190 50q70 -1 125 -18q60 3 266 32q32 4 57 7l6 -7q-6 -29 -6 -53q0 -27 6 -53l-6 -6q-192 20 -213 21q102 -71 103 -230zM639 582q-3 237 -186 239
q-141 0 -173 -147q-7 -36 -8 -76q0 -207 145 -233q25 -4 52 -5q152 0 168 172q2 25 2 50z" />
    <glyph glyph-name="Gbreve" unicode="&#x11e;" horiz-adv-x="1468" 
d="M1040 1651q-12 -137 -142 -201q-65 -30 -136 -31q-162 0 -239 113q-35 53 -40 119h58q18 -89 143 -117q38 -8 78 -8q130 0 193 70q22 26 28 55h57zM1118 240q-6 284 -20 389l4 6q4 0 104 -6l107 6l2 -6q-20 -138 -21 -348v-13q1 -72 21 -98v-6q-222 -184 -545 -184
q-316 0 -506 223q-157 188 -158 446q0 338 248 537q202 161 467 162q111 0 227.5 -22.5t178.5 -46.5l61 -24l4 -6q-33 -141 -41 -248l-20 -2q-114 193 -328 240q-55 12 -110 12q-239 0 -372 -196q-103 -156 -104 -385q0 -266 141 -435q136 -160 359 -161q218 1 301 78v88z
" />
    <glyph glyph-name="gbreve" unicode="&#x11f;" horiz-adv-x="1021" 
d="M229 1319q25 -123 136 -168q42 -16 86 -16q131 0 193 105q21 37 28 79l55 -25q-23 -168 -154 -242q-60 -33 -122 -34q-167 0 -243 162q-24 52 -34 114zM207 -213q0 -114 158 -166q62 -20 110 -20q203 0 297 90q46 46 47 102q-2 100 -80 148q-72 34 -217 34q-11 0 -60 -2
q-86 -4 -122 -4q-94 -51 -124 -136q-9 -25 -9 -46zM799 592q0 -183 -144 -266q-83 -47 -196 -47q-97 1 -152 28q-61 -54 -61 -114q0 -89 92 -96q13 -1 27 -1q6 0 59 4q78 10 170 11q209 -1 289 -68q85 -75 86 -203q0 -177 -224 -268q-146 -59 -327 -59q-201 0 -297 96
q-55 58 -55 137q1 64 47 135q25 20 167 100q4 2 7 4q-137 24 -154 148q-2 15 -2 29q2 83 127 170q-144 86 -145 256q0 173 158 261q90 49 190 50q70 -1 125 -18q60 3 266 32q32 4 57 7l6 -7q-6 -29 -6 -53q0 -27 6 -53l-6 -6q-192 20 -213 21q102 -71 103 -230zM639 582
q-3 237 -186 239q-141 0 -173 -147q-7 -36 -8 -76q0 -207 145 -233q25 -4 52 -5q152 0 168 172q2 25 2 50z" />
    <glyph glyph-name="Gdotaccent" unicode="&#x120;" horiz-adv-x="1468" 
d="M664 1599q0 65 59 96q23 11 47 11q65 0 95 -60q11 -23 12 -47q0 -65 -60 -95q-23 -11 -47 -11q-65 0 -95 60q-10 23 -11 46zM1118 240q-6 284 -20 389l4 6q4 0 104 -6l107 6l2 -6q-20 -138 -21 -348v-13q1 -72 21 -98v-6q-222 -184 -545 -184q-316 0 -506 223
q-157 188 -158 446q0 338 248 537q202 161 467 162q111 0 227.5 -22.5t178.5 -46.5l61 -24l4 -6q-33 -141 -41 -248l-20 -2q-114 193 -328 240q-55 12 -110 12q-239 0 -372 -196q-103 -156 -104 -385q0 -266 141 -435q136 -160 359 -161q218 1 301 78v88z" />
    <glyph glyph-name="gdotaccent" unicode="&#x121;" horiz-adv-x="1021" 
d="M354 1223q0 62 59 92q23 11 46 12q62 0 93 -58q11 -23 11 -46q0 -62 -58 -93q-23 -11 -46 -12q-62 0 -93 59q-11 23 -12 46zM207 -213q0 -114 158 -166q62 -20 110 -20q203 0 297 90q46 46 47 102q-2 100 -80 148q-72 34 -217 34q-11 0 -60 -2q-86 -4 -122 -4
q-94 -51 -124 -136q-9 -25 -9 -46zM799 592q0 -183 -144 -266q-83 -47 -196 -47q-97 1 -152 28q-61 -54 -61 -114q0 -89 92 -96q13 -1 27 -1q6 0 59 4q78 10 170 11q209 -1 289 -68q85 -75 86 -203q0 -177 -224 -268q-146 -59 -327 -59q-201 0 -297 96q-55 58 -55 137
q1 64 47 135q25 20 167 100q4 2 7 4q-137 24 -154 148q-2 15 -2 29q2 83 127 170q-144 86 -145 256q0 173 158 261q90 49 190 50q70 -1 125 -18q60 3 266 32q32 4 57 7l6 -7q-6 -29 -6 -53q0 -27 6 -53l-6 -6q-192 20 -213 21q102 -71 103 -230zM639 582q-3 237 -186 239
q-141 0 -173 -147q-7 -36 -8 -76q0 -207 145 -233q25 -4 52 -5q152 0 168 172q2 25 2 50z" />
    <glyph glyph-name="Gcommaaccent" unicode="&#x122;" horiz-adv-x="1468" 
d="M768 -127q91 0 118 -105q8 -34 9 -71q0 -145 -169 -192q-24 -7 -48 -11q-16 18 -16 49q121 27 148 89q4 11 5 20q0 44 -53 52q-6 1 -10 1q-83 19 -86 80q0 60 62 82q20 6 40 6zM1118 240q-6 284 -20 389l4 6q4 0 104 -6l107 6l2 -6q-20 -138 -21 -348v-13q1 -72 21 -98
v-6q-222 -184 -545 -184q-316 0 -506 223q-157 188 -158 446q0 338 248 537q202 161 467 162q111 0 227.5 -22.5t178.5 -46.5l61 -24l4 -6q-33 -141 -41 -248l-20 -2q-114 193 -328 240q-55 12 -110 12q-239 0 -372 -196q-103 -156 -104 -385q0 -266 141 -435
q136 -160 359 -161q218 1 301 78v88z" />
    <glyph glyph-name="gcommaaccent" unicode="&#x123;" horiz-adv-x="1021" 
d="M467 1047q-83 0 -116 87q-11 31 -11 62q1 77 47 135q61 73 170 88q10 -12 10 -41q-130 -27 -154 -112q-3 -14 -3 -25q0 -28 14 -29q4 0 16 1q18 1 29 1q94 -11 102 -84q0 -47 -51 -72q-25 -11 -53 -11zM207 -213q0 -114 158 -166q62 -20 110 -20q203 0 297 90
q46 46 47 102q-2 100 -80 148q-72 34 -217 34q-11 0 -60 -2q-86 -4 -122 -4q-94 -51 -124 -136q-9 -25 -9 -46zM799 592q0 -183 -144 -266q-83 -47 -196 -47q-97 1 -152 28q-61 -54 -61 -114q0 -89 92 -96q13 -1 27 -1q6 0 59 4q78 10 170 11q209 -1 289 -68q85 -75 86 -203
q0 -177 -224 -268q-146 -59 -327 -59q-201 0 -297 96q-55 58 -55 137q1 64 47 135q25 20 167 100q4 2 7 4q-137 24 -154 148q-2 15 -2 29q2 83 127 170q-144 86 -145 256q0 173 158 261q90 49 190 50q70 -1 125 -18q60 3 266 32q32 4 57 7l6 -7q-6 -29 -6 -53q0 -27 6 -53
l-6 -6q-192 20 -213 21q102 -71 103 -230zM639 582q-3 237 -186 239q-141 0 -173 -147q-7 -36 -8 -76q0 -207 145 -233q25 -4 52 -5q152 0 168 172q2 25 2 50z" />
    <glyph glyph-name="Hcircumflex" unicode="&#x124;" horiz-adv-x="1486" 
d="M1098 911q0 264 -21 410l4 6q37 -6 105 -6q69 0 106 6l2 -6q-20 -137 -20 -410v-501q0 -264 20 -410l-4 -6q-37 6 -104 6q-69 0 -107 -6l-2 6q20 140 21 410v247h-709v-247q0 -264 21 -410l-4 -6q-37 6 -105 6q-69 0 -106 -6l-2 6q20 140 20 410v501q0 264 -20 410l4 6
q37 -6 104 -6q69 0 107 6l2 -6q-20 -137 -21 -410v-163h709v163zM754 1645q85 -100 207 -193l-33 -43q-127 59 -217 127q-104 -75 -219 -127l-29 43q89 68 203 193h88z" />
    <glyph glyph-name="hcircumflex" unicode="&#x125;" horiz-adv-x="1124" 
d="M586 1704q85 -100 207 -193l-33 -43q-127 59 -217 127q-104 -75 -219 -127l-29 43q89 68 203 193h88zM348 721l4 -6q163 177 355 184q204 0 243 -197q11 -56 11 -127q0 -33 -3 -103q-2 -71 -2 -103q0 -238 19 -369l-4 -6q-37 6 -97 6q-59 0 -96 -6l-4 6q18 126 19 369
v200q0 162 -71 194q-30 13 -77 13q-121 0 -246 -115q-27 -26 -51 -53v-239q0 -229 19 -369l-5 -6q-37 6 -96 6t-96 -6l-4 6q18 135 18 369v616q0 295 -18 397l4 7q94 8 178 41q17 -4 19 -21q-18 -237 -19 -383v-305z" />
    <glyph glyph-name="Hbar" unicode="&#x126;" horiz-adv-x="1486" 
d="M393 1118h701q-5 119 -17 203l4 6q37 -6 105 -6q69 0 106 6l2 -6q-12 -81 -17 -203h66v-69h-68q-1 -64 -1 -138v-501q0 -264 20 -410l-4 -6q-37 6 -104 6q-69 0 -107 -6l-2 6q20 140 21 410v247h-709v-247q0 -264 21 -410l-4 -6q-37 6 -105 6q-69 0 -106 -6l-2 6
q20 140 20 410v501q0 76 -1 138h-128v69h125q-5 119 -16 203l4 6q37 -6 104 -6q69 0 107 6l2 -6q-12 -81 -17 -203zM391 1049q-1 -64 -2 -138v-163h709v163q0 76 -2 138h-705z" />
    <glyph glyph-name="hbar" unicode="&#x127;" horiz-adv-x="1124" 
d="M348 721l4 -6q163 177 355 184q204 0 243 -197q11 -56 11 -127q0 -33 -3 -103q-2 -71 -2 -103q0 -238 19 -369l-4 -6q-37 6 -97 6q-59 0 -96 -6l-4 6q18 126 19 369v200q0 162 -71 194q-30 13 -77 13q-121 0 -246 -115q-27 -26 -51 -53v-239q0 -229 19 -369l-5 -6
q-37 6 -96 6t-96 -6l-4 6q18 135 18 369v616v100h-131v80h129q-4 145 -16 217l4 7q94 8 178 41q17 -4 19 -21q-13 -162 -16 -244h347v-80h-349q0 -39 -1 -59v-305z" />
    <glyph glyph-name="Itilde" unicode="&#x128;" horiz-adv-x="602" 
d="M436 1518q57 0 88 67q8 18 15 39l49 -12q-37 -184 -178 -185q-53 1 -131 54q-74 44 -111 45q-66 0 -95 -83q-3 -9 -5 -16l-50 11q40 167 142 180q12 1 22 2q67 -1 148 -57q60 -45 106 -45zM213 911q0 264 -20 410l4 6q37 -6 104 -6t105 6l4 -6q-20 -137 -21 -410v-501
q0 -264 21 -410l-4 -6q-37 6 -105 6q-67 0 -104 -6l-4 6q20 140 20 410v501z" />
    <glyph glyph-name="itilde" unicode="&#x129;" horiz-adv-x="532" 
d="M400 1167q51 0 78 68q7 18 14 39l44 -12q-33 -184 -160 -185q-48 1 -118 53q-67 44 -100 46q-60 0 -85 -83q-3 -9 -5 -16l-44 10q52 172 147 183q60 -1 133 -58q55 -44 96 -45zM184 481q0 272 -18 398l4 6q88 -7 178 2q17 -9 19 -21q-18 -175 -19 -352v-145
q0 -224 19 -369l-5 -6q-37 6 -96 6t-96 -6l-4 6q18 140 18 369v112z" />
    <glyph glyph-name="Imacron" unicode="&#x12a;" horiz-adv-x="602" 
d="M543 1501h-500q-25 3 -27 31q0 35 29 54q9 5 16 5h502q26 -3 29 -28q0 -37 -32 -56q-9 -5 -17 -6zM213 911q0 264 -20 410l4 6q37 -6 104 -6t105 6l4 -6q-20 -137 -21 -410v-501q0 -264 21 -410l-4 -6q-37 6 -105 6q-67 0 -104 -6l-4 6q20 140 20 410v501z" />
    <glyph glyph-name="imacron" unicode="&#x12b;" horiz-adv-x="532" 
d="M491 1102h-449q-22 3 -24 31q0 37 28 55q7 3 12 4h452q24 -3 26 -29q0 -37 -29 -56q-9 -4 -16 -5zM184 481q0 272 -18 398l4 6q88 -7 178 2q17 -9 19 -21q-18 -175 -19 -352v-145q0 -224 19 -369l-5 -6q-37 6 -96 6t-96 -6l-4 6q18 140 18 369v112z" />
    <glyph glyph-name="Ibreve" unicode="&#x12c;" horiz-adv-x="602" 
d="M584 1649q-12 -137 -142 -201q-65 -30 -137 -31q-162 0 -239 113q-35 53 -39 119h57q18 -89 143 -117q38 -8 78 -8q130 0 193 70q22 26 28 55h58zM213 911q0 264 -20 410l4 6q37 -6 104 -6t105 6l4 -6q-20 -137 -21 -410v-501q0 -264 21 -410l-4 -6q-37 6 -105 6
q-67 0 -104 -6l-4 6q20 140 20 410v501z" />
    <glyph glyph-name="ibreve" unicode="&#x12d;" horiz-adv-x="532" 
d="M80 1331q23 -125 125 -169q37 -15 74 -15q117 0 173 103q19 37 26 81l50 -24q-22 -172 -143 -246q-52 -31 -106 -31q-151 0 -218 162q-21 52 -30 115zM184 481q0 272 -18 398l4 6q88 -7 178 2q17 -9 19 -21q-18 -175 -19 -352v-145q0 -224 19 -369l-5 -6q-37 6 -96 6
t-96 -6l-4 6q18 140 18 369v112z" />
    <glyph glyph-name="Iogonek" unicode="&#x12e;" horiz-adv-x="602" 
d="M188 -461q-131 0 -175 98q-15 35 -15 76q0 115 118 222q38 34 80 59l-3 6q20 140 20 410v501q0 264 -20 410l4 6q37 -6 104 -6t105 6l4 -6q-20 -137 -21 -410v-501q0 -264 21 -410l-4 -6q-14 2 -30 3q-131 -11 -211 -130q-43 -66 -44 -127q0 -81 68 -111q24 -10 51 -10
q78 2 143 74l31 -17q-56 -109 -183 -133q-23 -4 -43 -4z" />
    <glyph glyph-name="iogonek" unicode="&#x12f;" horiz-adv-x="532" 
d="M143 -461q-134 0 -176 101q-14 34 -14 73q0 115 116 221q46 41 97 69q18 138 18 366v112q0 272 -18 398l4 6q88 -7 178 2q17 -9 19 -21q-18 -175 -19 -352v-145q0 -224 19 -369l-5 -6q-14 2 -30 3q-132 -10 -213 -130q-43 -66 -43 -127q0 -81 68 -111q24 -10 51 -10
q76 2 141 74l33 -17q-54 -106 -179 -132q-25 -5 -47 -5zM164 1223q0 62 58 92q23 11 46 12q62 0 93 -58q11 -23 12 -46q0 -62 -59 -93q-23 -11 -46 -12q-62 0 -92 59q-11 23 -12 46z" />
    <glyph glyph-name="Idotaccent" unicode="&#x130;" horiz-adv-x="602" 
d="M199 1599q0 65 60 96q23 11 46 11q65 0 95 -60q11 -23 12 -47q0 -65 -60 -95q-23 -11 -47 -11q-65 0 -95 60q-10 23 -11 46zM213 911q0 264 -20 410l4 6q37 -6 104 -6t105 6l4 -6q-20 -137 -21 -410v-501q0 -264 21 -410l-4 -6q-37 6 -105 6q-67 0 -104 -6l-4 6
q20 140 20 410v501z" />
    <glyph glyph-name="dotlessi" unicode="&#x131;" horiz-adv-x="532" 
d="M184 481q0 272 -18 398l4 6q88 -7 178 2q17 -9 19 -21q-18 -175 -19 -352v-145q0 -224 19 -369l-5 -6q-37 6 -96 6t-96 -6l-4 6q18 140 18 369v112z" />
    <glyph glyph-name="IJ" unicode="&#x132;" horiz-adv-x="1204" 
d="M846 195v716q0 264 -21 410l4 6q37 -6 105 -6q69 0 106 6l2 -6q-20 -137 -20 -410v-671q0 -209 -42 -301q-26 -56 -87 -136q-123 -155 -324 -155q-62 1 -92 18l-2 6q25 45 57 168l23 2q42 -70 119 -71q159 0 170 334q2 40 2 90zM213 911q0 264 -20 410l4 6q37 -6 104 -6
t105 6l4 -6q-20 -137 -21 -410v-501q0 -264 21 -410l-4 -6q-37 6 -105 6q-67 0 -104 -6l-4 6q20 140 20 410v501z" />
    <glyph glyph-name="ij" unicode="&#x133;" horiz-adv-x="1097" 
d="M715 1223q0 62 58 92q23 11 46 12q62 0 93 -58q11 -23 12 -46q0 -62 -59 -93q-23 -11 -46 -12q-62 0 -93 59q-10 23 -11 46zM903 514v-268q0 -341 -62 -473q-13 -26 -28 -49q-107 -164 -276 -166q-58 1 -88 18l-3 6q8 33 9 182l32 9q53 -90 123 -92q108 0 125 311
q4 82 4 205v284q0 272 -18 398l4 6q88 -7 178 2q17 -9 19 -21q-19 -175 -19 -352zM164 1223q0 62 58 92q23 11 46 12q62 0 93 -58q11 -23 12 -46q0 -62 -59 -93q-23 -11 -46 -12q-62 0 -92 59q-11 23 -12 46zM184 481q0 272 -18 398l4 6q88 -7 178 2q17 -9 19 -21
q-18 -175 -19 -352v-145q0 -224 19 -369l-5 -6q-37 6 -96 6t-96 -6l-4 6q18 140 18 369v112z" />
    <glyph glyph-name="Jcircumflex" unicode="&#x134;" horiz-adv-x="655" 
d="M408 1649q85 -100 206 -193l-32 -43q-127 59 -217 127q-104 -75 -220 -127l-28 43q89 68 202 193h89zM287 195v716q0 264 -21 410l4 6q37 -6 105 -6q69 0 106 6l2 -6q-20 -137 -20 -410v-671q0 -209 -42 -301q-26 -56 -87 -136q-123 -155 -324 -155q-62 1 -92 18l-2 6
q25 45 57 168l23 2q42 -70 119 -71q159 0 170 334q2 40 2 90z" />
    <glyph glyph-name="jcircumflex" unicode="&#x135;" horiz-adv-x="557" 
d="M360 1319q69 -111 207 -264l-43 -29q-145 109 -217 184q-92 -94 -219 -184l-41 29q148 166 211 264h102zM373 514v-268q0 -341 -63 -473q-13 -26 -27 -49q-107 -164 -277 -166q-58 1 -88 18l-2 6q8 33 8 182l33 9q53 -90 123 -92q108 0 125 311q4 82 4 205v284
q0 272 -19 398l5 6q88 -7 178 2q17 -9 18 -21q-18 -175 -18 -352z" />
    <glyph glyph-name="Kcommaaccent" unicode="&#x136;" horiz-adv-x="1288" 
d="M727 -80q91 0 119 -105q8 -34 8 -71q0 -145 -169 -192q-24 -7 -48 -11q-16 18 -16 49q121 27 148 89q4 11 5 20q0 44 -53 52q-6 1 -10 1q-83 19 -86 80q0 60 62 82q20 6 40 6zM213 911q0 264 -20 410l4 6q37 -6 104 -6t105 6l4 -6q-20 -137 -21 -410v-206q28 4 45 18
q240 211 584 604q28 -6 100 -6t105 6q-370 -324 -587 -562q-20 -22 -36 -40v-4l643 -727q-41 6 -127 6q-92 0 -127 -6q-446 550 -561 665q-13 10 -39 14v-263q0 -264 21 -410l-4 -6q-37 6 -105 6q-67 0 -104 -6l-4 6q20 140 20 410v501z" />
    <glyph glyph-name="kcommaaccent" unicode="&#x137;" horiz-adv-x="1030" 
d="M545 -74q91 0 118 -105q8 -34 9 -71q0 -145 -169 -192q-24 -7 -48 -11q-16 18 -17 50q121 27 149 88q4 11 5 20q0 44 -53 52q-6 1 -11 1q-83 19 -86 80q0 60 63 82q20 6 40 6zM184 410v577q0 293 -18 395l4 7q94 8 178 41q17 -4 19 -21q-18 -250 -19 -385v-532
q56 6 90 30q114 87 262 274q36 45 62 83q167 0 207 6l4 -6q-201 -170 -414 -392q131 -158 351 -379q62 -63 106 -108l-4 -6q-31 6 -123 6q-82 0 -135 -6q-173 249 -255 341q-31 35 -67 73q-24 20 -84 22v-20q0 -275 19 -410l-5 -6q-37 6 -96 6t-96 -6l-4 6q18 134 18 410z
" />
    <glyph glyph-name="kgreenlandic" unicode="&#x138;" horiz-adv-x="1015" 
d="M336 485q47 2 84 31q108 80 260 268q42 52 72 95q167 0 206 6l5 -6q-105 -89 -404 -400q128 -155 339 -363q68 -67 114 -116l-4 -6q-31 6 -123 6q-82 0 -135 -6q-118 165 -297 348q-48 49 -72 74q-22 18 -45 18v51zM168 481q0 272 -18 398l4 6q88 -7 178 2q17 -9 18 -21
q-18 -175 -18 -352v-145q0 -224 18 -369l-4 -6q-37 6 -96 6t-96 -6l-4 6q18 140 18 369v112z" />
    <glyph glyph-name="Lacute" unicode="&#x139;" horiz-adv-x="1054" 
d="M391 911v-501q0 -226 17 -285q123 0 267 11t227 23l83 11l4 -8q-4 -33 -4 -72q0 -34 4 -90l-4 -6q-50 6 -123 6h-559l-106 -6l-2 6q20 140 20 410v501q0 264 -20 410l4 6q37 -6 104 -6q69 0 107 6l2 -6q-21 -138 -21 -410zM393 1677q88 -42 127 -106l-295 -119
q-58 -24 -86 -25q-28 3 -30 31q4 23 30 43z" />
    <glyph glyph-name="lacute" unicode="&#x13a;" horiz-adv-x="516" 
d="M416 1735q88 -42 127 -107l-295 -119q-58 -24 -86 -24q-28 3 -31 31q4 23 31 43zM184 410v577q0 293 -18 395l4 7q94 8 178 41q17 -4 19 -21q-18 -250 -19 -385v-614q0 -275 19 -410l-5 -6q-37 6 -96 6t-96 -6l-4 6q18 134 18 410z" />
    <glyph glyph-name="Lcommaaccent" unicode="&#x13b;" horiz-adv-x="1054" 
d="M547 -88q91 0 118 -105q8 -34 9 -71q0 -145 -169 -192q-24 -7 -48 -11q-16 18 -17 49q121 27 149 89q4 11 5 20q0 44 -53 52q-6 1 -11 1q-83 19 -86 80q0 60 63 82q20 6 40 6zM391 911v-501q0 -226 17 -285q123 0 267 11t227 23l83 11l4 -8q-4 -33 -4 -72q0 -34 4 -90
l-4 -6q-50 6 -123 6h-559l-106 -6l-2 6q20 140 20 410v501q0 264 -20 410l4 6q37 -6 104 -6q69 0 107 6l2 -6q-21 -138 -21 -410z" />
    <glyph glyph-name="lcommaaccent" unicode="&#x13c;" horiz-adv-x="516" 
d="M184 410v577q0 293 -18 395l4 7q94 8 178 41q17 -4 19 -21q-18 -250 -19 -385v-614q0 -275 19 -410l-5 -6q-37 6 -96 6t-96 -6l-4 6q18 134 18 410zM266 -102q91 0 119 -106q8 -34 8 -71q0 -145 -169 -192q-24 -7 -48 -10q-16 18 -16 49q121 27 149 88q4 11 4 20
q0 44 -53 52q-6 1 -10 2q-83 19 -86 80q0 60 63 81q19 7 39 7z" />
    <glyph glyph-name="Lcaron" unicode="&#x13d;" horiz-adv-x="1054" 
d="M819 1430q80 0 112 -88q11 -31 11 -62q0 -86 -74 -156q-58 -52 -135 -61l-10 35q88 19 120 100q8 23 9 41q-2 40 -29 43q-93 2 -94 78q0 50 57 65q16 5 33 5zM391 911v-501q0 -226 17 -285q123 0 267 11t227 23l83 11l4 -8q-4 -33 -4 -72q0 -34 4 -90l-4 -6q-50 6 -123 6
h-559l-106 -6l-2 6q20 140 20 410v501q0 264 -20 410l4 6q37 -6 104 -6q69 0 107 6l2 -6q-21 -138 -21 -410z" />
    <glyph glyph-name="lcaron" unicode="&#x13e;" horiz-adv-x="593" 
d="M543 1430q80 0 112 -88q11 -31 11 -62q0 -86 -75 -156q-58 -52 -134 -61l-11 35q88 19 121 100q8 23 8 41q-2 40 -28 43q-93 2 -94 78q0 50 56 65q17 5 34 5zM184 410v577q0 293 -18 395l4 7q94 8 178 41q17 -4 19 -21q-18 -250 -19 -385v-614q0 -275 19 -410l-5 -6
q-37 6 -96 6t-96 -6l-4 6q18 134 18 410z" />
    <glyph glyph-name="Ldot" unicode="&#x13f;" horiz-adv-x="1054" 
d="M698 578q-75 0 -102 67q-8 22 -8 43q0 65 61 98q25 12 49 13q64 0 98 -60q13 -25 13 -51q0 -70 -62 -100q-24 -10 -49 -10zM391 911v-501q0 -226 17 -285q123 0 267 11t227 23l83 11l4 -8q-4 -33 -4 -72q0 -34 4 -90l-4 -6q-50 6 -123 6h-559l-106 -6l-2 6q20 140 20 410
v501q0 264 -20 410l4 6q37 -6 104 -6q69 0 107 6l2 -6q-21 -138 -21 -410z" />
    <glyph glyph-name="ldot" unicode="&#x140;" horiz-adv-x="516" 
d="M436 737q0 60 55 90q21 11 44 11q54 0 83 -54q12 -24 13 -47q0 -63 -57 -88q-20 -8 -39 -8q-70 0 -93 63q-6 17 -6 33zM184 410v577q0 293 -18 395l4 7q94 8 178 41q17 -4 19 -21q-18 -250 -19 -385v-614q0 -275 19 -410l-5 -6q-37 6 -96 6t-96 -6l-4 6q18 134 18 410z
" />
    <glyph glyph-name="Lslash" unicode="&#x141;" horiz-adv-x="1054" 
d="M635 920l37 -62l-281 -161v-287q0 -226 17 -285q123 0 267 11t227 23l83 11l4 -8q-4 -33 -4 -72q0 -34 4 -90l-4 -6q-50 6 -123 6h-559l-106 -6l-2 6q20 140 20 410v186l-168 -96l-37 63l205 117v231q0 264 -20 410l4 6q37 -6 104 -6q69 0 107 6l2 -6q-20 -137 -21 -410
v-131z" />
    <glyph glyph-name="lslash" unicode="&#x142;" horiz-adv-x="516" 
d="M498 897l34 -61l-184 -108v-318q0 -275 19 -410l-5 -6q-37 6 -96 6t-96 -6l-4 6q18 133 18 410v223l-137 -80l-35 59l172 101v274q0 293 -18 395l4 7q94 8 178 41q17 -4 19 -21q-18 -250 -19 -385v-215z" />
    <glyph glyph-name="Nacute" unicode="&#x143;" horiz-adv-x="1470" 
d="M874 1679q88 -42 127 -106l-294 -119q-58 -24 -86 -24q-28 3 -31 30q4 23 31 43zM221 1321l4 6q10 0 86 -6l29 4l702 -909q82 -106 97 -113t20 19q3 15 4 43v546q0 264 -20 410l4 6q38 -6 72 -6q36 0 71 6l4 -6q-24 -330 -37 -1101q-2 -98 -4 -177q-6 -62 -39 -63
q-52 2 -88 49l-714 903q-60 77 -71 66q-9 -13 -9 -99v-489q0 -264 20 -410l-4 -6q-38 6 -72 6q-36 0 -71 -6l-4 6q44 441 27 1134q-3 102 -7 187z" />
    <glyph glyph-name="nacute" unicode="&#x144;" horiz-adv-x="1103" 
d="M635 1374q13 4 29 4q64 -2 112 -47l6 -22l-235 -224q-39 -38 -62 -38q-23 6 -28 26q2 23 23 57zM942 369q0 -235 19 -369l-5 -6q-37 6 -96 6t-96 -6l-4 6q18 140 18 369v200q0 162 -70 194q-30 13 -77 13q-124 0 -251 -119q-25 -24 -46 -49v-239q0 -238 18 -369l-4 -6
q-37 6 -96 6t-96 -6l-4 6q18 127 18 369v112q0 283 -18 398l4 6q90 -9 166 6q11 0 12 -16v-5v-149l4 -6q163 177 354 184q204 0 243 -197q11 -56 11 -127q0 -33 -2 -103q-2 -71 -2 -103z" />
    <glyph glyph-name="Ncommaaccent" unicode="&#x145;" horiz-adv-x="1470" 
d="M733 -78q91 0 119 -105q8 -34 8 -71q0 -145 -169 -192q-24 -7 -48 -11q-16 18 -16 49q121 27 149 89q4 11 4 20q0 44 -53 52q-6 1 -10 1q-83 19 -86 80q0 60 63 82q19 6 39 6zM221 1321l4 6q10 0 86 -6l29 4l702 -909q82 -106 97 -113t20 19q3 15 4 43v546q0 264 -20 410
l4 6q38 -6 72 -6q36 0 71 6l4 -6q-24 -330 -37 -1101q-2 -98 -4 -177q-6 -62 -39 -63q-52 2 -88 49l-714 903q-60 77 -71 66q-9 -13 -9 -99v-489q0 -264 20 -410l-4 -6q-38 6 -72 6q-36 0 -71 -6l-4 6q44 441 27 1134q-3 102 -7 187z" />
    <glyph glyph-name="ncommaaccent" unicode="&#x146;" horiz-adv-x="1103" 
d="M526 -84q91 0 119 -105q8 -34 8 -71q0 -145 -168 -192q-24 -7 -49 -11q-16 18 -16 49q121 27 149 89q4 11 4 20q0 44 -53 52q-6 1 -10 1q-83 19 -86 80q0 60 63 82q19 6 39 6zM942 369q0 -235 19 -369l-5 -6q-37 6 -96 6t-96 -6l-4 6q18 140 18 369v200q0 162 -70 194
q-30 13 -77 13q-124 0 -251 -119q-25 -24 -46 -49v-239q0 -238 18 -369l-4 -6q-37 6 -96 6t-96 -6l-4 6q18 127 18 369v112q0 283 -18 398l4 6q90 -9 166 6q11 0 12 -16v-5v-149l4 -6q163 177 354 184q204 0 243 -197q11 -56 11 -127q0 -33 -2 -103q-2 -71 -2 -103z" />
    <glyph glyph-name="Ncaron" unicode="&#x147;" horiz-adv-x="1470" 
d="M678 1427q-76 92 -207 195l33 41q124 -55 217 -125q117 82 219 125l31 -41q-102 -79 -205 -195h-88zM221 1321l4 6q10 0 86 -6l29 4l702 -909q82 -106 97 -113t20 19q3 15 4 43v546q0 264 -20 410l4 6q38 -6 72 -6q36 0 71 6l4 -6q-24 -330 -37 -1101q-2 -98 -4 -177
q-6 -62 -39 -63q-52 2 -88 49l-714 903q-60 77 -71 66q-9 -13 -9 -99v-489q0 -264 20 -410l-4 -6q-38 6 -72 6q-36 0 -71 -6l-4 6q44 441 27 1134q-3 102 -7 187z" />
    <glyph glyph-name="ncaron" unicode="&#x148;" horiz-adv-x="1103" 
d="M496 1030q-79 127 -207 266l41 27q145 -109 217 -184q79 81 221 184l39 -27q-138 -155 -209 -266h-102zM942 369q0 -235 19 -369l-5 -6q-37 6 -96 6t-96 -6l-4 6q18 140 18 369v200q0 162 -70 194q-30 13 -77 13q-124 0 -251 -119q-25 -24 -46 -49v-239q0 -238 18 -369
l-4 -6q-37 6 -96 6t-96 -6l-4 6q18 127 18 369v112q0 283 -18 398l4 6q90 -9 166 6q11 0 12 -16v-5v-149l4 -6q163 177 354 184q204 0 243 -197q11 -56 11 -127q0 -33 -2 -103q-2 -71 -2 -103z" />
    <glyph glyph-name="napostrophe" unicode="&#x149;" horiz-adv-x="1103" 
d="M147 1430q80 0 112 -88q11 -31 11 -62q0 -86 -74 -156q-58 -52 -135 -61l-10 35q88 19 120 100q8 23 9 41q-2 40 -28 43q-93 2 -95 78q0 50 57 65q16 5 33 5zM969 369q0 -235 18 -369l-4 -6q-37 6 -96 6t-96 -6l-5 6q18 140 19 369v200q0 162 -70 194q-30 13 -78 13
q-124 0 -250 -119q-25 -24 -47 -49v-239q0 -238 19 -369l-4 -6q-37 6 -96 6t-97 -6l-4 6q18 127 19 369v112q0 283 -19 398l4 6q90 -9 166 6q11 0 12 -16v-5v-149l5 -6q163 177 354 184q204 0 243 -197q11 -56 11 -127q0 -33 -2 -103q-2 -71 -2 -103z" />
    <glyph glyph-name="Eng" unicode="&#x14a;" horiz-adv-x="1423" 
d="M207 911q0 264 -21 410l4 6q4 0 105 -6l29 4l702 -909q83 -107 85 -109q17 -15 20 18q1 14 2 40v546q0 264 -21 410l4 6q4 0 72 -6l72 6l2 -6q-20 -137 -21 -410v-671q0 -211 -43 -305q-26 -55 -86 -134q-120 -155 -324 -155q-62 1 -92 18l-2 6q25 45 58 168l22 2
q42 -70 119 -71q157 3 187 298l-685 865q-60 77 -70 66q-9 -13 -10 -99v-489q0 -264 21 -410l-4 -6q-4 0 -72 6l-72 -6l-2 6q20 137 21 410v501z" />
    <glyph glyph-name="eng" unicode="&#x14b;" horiz-adv-x="1085" 
d="M334 369q0 -238 18 -369l-4 -6q-37 6 -96 6t-96 -6l-4 6q18 127 18 369v112q0 283 -18 398l4 6q90 -9 166 6q11 0 12 -16v-5v-149l4 -6q151 184 373 184q208 0 228 -253q3 -34 3 -71v-579q0 -151 -42 -227q-16 -29 -42 -64q-106 -140 -272 -141q-56 1 -86 16l-2 6
q10 17 24 113q4 24 8 39l21 2q28 -51 55 -61q16 -5 35 -5q142 3 143 197q0 9 -1 38q-5 128 -5 288v372q0 176 -90 202q-21 5 -45 5q-169 -2 -309 -166v-241z" />
    <glyph glyph-name="Omacron" unicode="&#x14c;" horiz-adv-x="1517" 
d="M969 1501h-500q-25 3 -27 31q0 35 29 54q9 5 16 5h502q26 -3 29 -28q0 -37 -32 -56q-9 -5 -17 -6zM727 1257q-192 0 -306 -169q-103 -157 -104 -418q0 -331 199 -498q124 -102 281 -102q218 0 326 204q76 145 77 361q0 481 -296 593q-80 29 -177 29zM1411 674
q0 -336 -211 -531q-179 -162 -444 -163q-282 0 -468 187q-181 185 -182 468q0 309 195 516q187 196 453 197q293 0 480 -199q176 -190 177 -475z" />
    <glyph glyph-name="omacron" unicode="&#x14d;" horiz-adv-x="1024" 
d="M758 1102h-500q-25 3 -27 31q0 35 29 53q9 5 16 6h502q26 -3 29 -29q0 -37 -32 -56q-9 -4 -17 -5zM78 420q0 274 181 402q110 76 261 77q276 0 378 -220q47 -104 48 -241q0 -254 -171 -379q-110 -79 -263 -79q-240 0 -360 179q-73 113 -74 261zM506 817q-201 0 -240 -252
q-8 -53 -8 -110q0 -222 107 -329q66 -65 165 -65q125 0 193 138q42 89 43 202q0 279 -97 364q-62 51 -163 52z" />
    <glyph glyph-name="Obreve" unicode="&#x14e;" horiz-adv-x="1517" 
d="M1014 1649q-12 -137 -142 -201q-65 -30 -137 -31q-162 0 -238 113q-35 53 -40 119h57q18 -89 143 -117q38 -8 78 -8q130 0 193 70q22 26 28 55h58zM727 1257q-192 0 -306 -169q-103 -157 -104 -418q0 -331 199 -498q124 -102 281 -102q218 0 326 204q76 145 77 361
q0 481 -296 593q-80 29 -177 29zM1411 674q0 -336 -211 -531q-179 -162 -444 -163q-282 0 -468 187q-181 185 -182 468q0 309 195 516q187 196 453 197q293 0 480 -199q176 -190 177 -475z" />
    <glyph glyph-name="obreve" unicode="&#x14f;" horiz-adv-x="1024" 
d="M289 1321q25 -123 135 -168q42 -16 86 -16q131 0 193 105q21 37 28 79l55 -25q-23 -168 -154 -242q-60 -33 -122 -34q-167 0 -242 162q-24 52 -35 114zM78 420q0 274 181 402q110 76 261 77q276 0 378 -220q47 -104 48 -241q0 -254 -171 -379q-110 -79 -263 -79
q-240 0 -360 179q-73 113 -74 261zM506 817q-201 0 -240 -252q-8 -53 -8 -110q0 -222 107 -329q66 -65 165 -65q125 0 193 138q42 89 43 202q0 279 -97 364q-62 51 -163 52z" />
    <glyph glyph-name="Ohungarumlaut" unicode="&#x150;" horiz-adv-x="1517" 
d="M1040 1622q-1 -26 -14 -41l-203 -172q-8 -5 -16 -6q-19 0 -26 19q-1 5 -1 8q1 10 8 22l121 223q18 24 47 25q67 0 82 -60q2 -10 2 -18zM772 1632q-2 -27 -14 -39l-180 -165q-18 -14 -29 -15q-24 3 -27 25q1 13 5 22l112 226q18 24 55 24q44 0 68 -41q9 -19 10 -37z
M727 1257q-192 0 -306 -169q-103 -157 -104 -418q0 -331 199 -498q124 -102 281 -102q218 0 326 204q76 145 77 361q0 481 -296 593q-80 29 -177 29zM1411 674q0 -336 -211 -531q-179 -162 -444 -163q-282 0 -468 187q-181 185 -182 468q0 309 195 516q187 196 453 197
q293 0 480 -199q176 -190 177 -475z" />
    <glyph glyph-name="ohungarumlaut" unicode="&#x151;" horiz-adv-x="1024" 
d="M834 1251q-2 -25 -15 -39l-233 -225q-6 -4 -13 -4q-21 0 -27 20q-1 4 -1 7q1 6 2 8l160 285q16 24 49 24q52 0 72 -49q6 -15 6 -27zM563 1264q-1 -20 -10 -33l-209 -248q-8 -5 -16 -6q-25 3 -29 27q1 5 2 6l131 299q14 28 53 28q55 0 74 -48q4 -13 4 -25zM78 420
q0 274 181 402q110 76 261 77q276 0 378 -220q47 -104 48 -241q0 -254 -171 -379q-110 -79 -263 -79q-240 0 -360 179q-73 113 -74 261zM506 817q-201 0 -240 -252q-8 -53 -8 -110q0 -222 107 -329q66 -65 165 -65q125 0 193 138q42 89 43 202q0 279 -97 364q-62 51 -163 52
z" />
    <glyph glyph-name="OE" unicode="&#x152;" horiz-adv-x="1716" 
d="M713 76h26q90 0 102 52q3 14 3 30v1007q0 60 -46 71q-22 5 -59 5h-71q-287 0 -353 -350q-18 -99 -18 -221q0 -391 214 -534q91 -59 202 -60zM932 0l-215 -4q-310 2 -488 222q-143 179 -143 433q0 309 185 500q168 171 423 172q2 0 238 -2h538q74 0 123 6l4 -6
q-4 -58 -4 -64q0 -22 4 -53l-4 -8l-357 21q-108 4 -200 4q-16 -56 -16 -310v-168q217 0 457 21l6 -6q-6 -29 -6 -58q0 -30 6 -57l-6 -6q-202 20 -457 20v-247q0 -241 16 -299q123 0 267.5 6t227.5 12l83 6l4 -8q-4 -33 -4 -68q0 -7 4 -59l-4 -6q-50 6 -123 6h-559z" />
    <glyph glyph-name="oe" unicode="&#x153;" horiz-adv-x="1587" 
d="M942 588h371q27 4 28 28q0 161 -119 195q-24 6 -46 6q-134 0 -198 -119q-26 -48 -36 -110zM1497 215l41 -53q-118 -162 -309 -181q-21 -2 -41 -1q-242 2 -359 172q-81 -119 -186 -152q-67 -20 -158 -20q-233 0 -346 181q-69 112 -69 261q0 281 195 408q108 69 243 69
q208 0 307 -135q16 -22 33 -49q106 151 272 179q29 5 56 5q263 0 330 -230q18 -64 18 -137q-4 -33 -37 -34h-551q0 -272 171 -365q60 -32 122 -33q163 2 268 115zM254 485q0 -298 142 -390q53 -33 118 -34q155 0 211 162q26 78 27 185q0 283 -151 380q-49 30 -95 31
q-147 0 -217 -164q-35 -82 -35 -170z" />
    <glyph glyph-name="Racute" unicode="&#x154;" horiz-adv-x="1228" 
d="M647 1679q88 -42 127 -106l-295 -119q-58 -24 -86 -24q-28 3 -31 30q4 23 31 43zM389 586v-176q0 -264 21 -410l-4 -6q-37 6 -105 6q-67 0 -104 -6l-4 6q20 140 20 410v501q0 264 -20 410l4 6q37 -6 104 -6q32 0 150 8q102 7 127 6q246 0 351 -72q18 -13 32 -26
q108 -104 108 -256q0 -216 -188 -321q-9 -5 -17 -9q-47 -23 -124 -39q54 -72 188 -267q190 -277 250 -345l-4 -6q-43 6 -123 6q-84 0 -123 -6q-37 112 -195 366q-111 178 -142 218q-7 8 -12 14q-87 -6 -190 -6zM580 1247q-154 0 -177 -24q-14 -17 -14 -66v-489h119
q323 0 359 241q5 34 5 70q0 223 -213 261q-37 7 -79 7z" />
    <glyph glyph-name="racute" unicode="&#x155;" horiz-adv-x="727" 
d="M494 1374q13 4 28 4q64 -2 113 -47l6 -22l-235 -224q-39 -38 -62 -38q-23 6 -29 26q2 23 24 57zM342 684l6 -4q93 161 166 198q42 20 94 21q29 -1 74 -14l8 -8l-41 -152l-16 -4q-33 28 -107 29q-68 -2 -114 -72q-66 -118 -70 -203v-106q0 -230 18 -369l-4 -6q-37 6 -96 6
t-96 -6l-4 6q18 129 18 369v112q0 283 -18 398l4 6q90 -9 166 6q12 -4 12 -21v-186z" />
    <glyph glyph-name="Rcommaaccent" unicode="&#x156;" horiz-adv-x="1228" 
d="M594 -88q91 0 118 -105q8 -34 9 -71q0 -145 -169 -192q-24 -7 -48 -11q-16 18 -17 49q121 27 149 89q4 11 5 20q0 44 -53 52q-6 1 -10 1q-83 19 -86 80q0 60 62 82q20 6 40 6zM389 586v-176q0 -264 21 -410l-4 -6q-37 6 -105 6q-67 0 -104 -6l-4 6q20 140 20 410v501
q0 264 -20 410l4 6q37 -6 104 -6q32 0 150 8q102 7 127 6q246 0 351 -72q18 -13 32 -26q108 -104 108 -256q0 -216 -188 -321q-9 -5 -17 -9q-47 -23 -124 -39q54 -72 188 -267q190 -277 250 -345l-4 -6q-43 6 -123 6q-84 0 -123 -6q-37 112 -195 366q-111 178 -142 218
q-7 8 -12 14q-87 -6 -190 -6zM580 1247q-154 0 -177 -24q-14 -17 -14 -66v-489h119q323 0 359 241q5 34 5 70q0 223 -213 261q-37 7 -79 7z" />
    <glyph glyph-name="rcommaaccent" unicode="&#x157;" horiz-adv-x="727" 
d="M260 -84q91 0 119 -105q8 -34 8 -71q0 -145 -169 -192q-24 -7 -48 -11q-16 18 -16 49q121 27 148 89q4 11 5 20q0 44 -53 52q-6 1 -10 1q-83 19 -86 80q0 60 63 82q19 6 39 6zM342 684l6 -4q93 161 166 198q42 20 94 21q29 -1 74 -14l8 -8l-41 -152l-16 -4
q-33 28 -107 29q-68 -2 -114 -72q-66 -118 -70 -203v-106q0 -230 18 -369l-4 -6q-37 6 -96 6t-96 -6l-4 6q18 129 18 369v112q0 283 -18 398l4 6q90 -9 166 6q12 -4 12 -21v-186z" />
    <glyph glyph-name="Rcaron" unicode="&#x158;" horiz-adv-x="1228" 
d="M500 1427q-76 92 -207 195l33 41q124 -55 217 -125q117 82 219 125l31 -41q-102 -79 -205 -195h-88zM389 586v-176q0 -264 21 -410l-4 -6q-37 6 -105 6q-67 0 -104 -6l-4 6q20 140 20 410v501q0 264 -20 410l4 6q37 -6 104 -6q32 0 150 8q102 7 127 6q246 0 351 -72
q18 -13 32 -26q108 -104 108 -256q0 -216 -188 -321q-9 -5 -17 -9q-47 -23 -124 -39q54 -72 188 -267q190 -277 250 -345l-4 -6q-43 6 -123 6q-84 0 -123 -6q-37 112 -195 366q-111 178 -142 218q-7 8 -12 14q-87 -6 -190 -6zM580 1247q-154 0 -177 -24q-14 -17 -14 -66
v-489h119q323 0 359 241q5 34 5 70q0 223 -213 261q-37 7 -79 7z" />
    <glyph glyph-name="rcaron" unicode="&#x159;" horiz-adv-x="727" 
d="M358 1030q-79 127 -206 266l41 27q145 -109 217 -184q79 81 221 184l39 -27q-138 -155 -209 -266h-103zM342 684l6 -4q93 161 166 198q42 20 94 21q29 -1 74 -14l8 -8l-41 -152l-16 -4q-33 28 -107 29q-68 -2 -114 -72q-66 -118 -70 -203v-106q0 -230 18 -369l-4 -6
q-37 6 -96 6t-96 -6l-4 6q18 129 18 369v112q0 283 -18 398l4 6q90 -9 166 6q12 -4 12 -21v-186z" />
    <glyph glyph-name="Sacute" unicode="&#x15a;" horiz-adv-x="1036" 
d="M496 70q128 0 197 98q42 62 42 141q0 167 -149 254q-38 21 -90 43q-238 100 -311 227q-41 73 -42 160q0 165 144 272q40 29 82 48q85 34 176 35q106 0 187 -22.5t110 -46.5l28 -24l4 -6q-39 -130 -47 -205l-20 -2q-63 145 -188 197q-46 18 -91 18q-79 -1 -125 -24
q-66 -36 -88 -135q-6 -26 -6 -49q0 -162 190 -245q25 -11 60 -24q346 -129 365 -378q1 -16 2 -31q0 -207 -174 -318q-117 -73 -273 -73q-106 0 -199.5 22.5t-133.5 45.5l-40 24l-4 6q40 153 48 211l20 2q63 -120 195 -186q70 -35 131 -35zM578 1679q88 -42 127 -106
l-295 -119q-58 -24 -86 -24q-28 3 -31 30q4 23 31 43z" />
    <glyph glyph-name="sacute" unicode="&#x15b;" horiz-adv-x="811" 
d="M102 207l31 2q107 -146 242 -148q132 0 174 98q14 34 14 72q0 92 -116 138q-34 13 -91 28q-180 50 -225 151q-20 46 -20 101q0 156 157 221q71 28 152 29q157 -1 276 -61l4 -7l-41 -151l-28 -2q-79 93 -132 118q-43 20 -87 21q-118 0 -148 -84q-7 -22 -8 -45
q3 -114 190 -160q248 -59 275 -222q3 -23 4 -46q0 -158 -131 -232q-87 -48 -217 -48q-153 1 -309 55zM465 1374q13 4 29 4q64 -2 112 -47l6 -22l-235 -224q-39 -38 -62 -38q-23 6 -28 26q2 23 23 57z" />
    <glyph glyph-name="Scircumflex" unicode="&#x15c;" horiz-adv-x="1036" 
d="M512 1663q85 -100 207 -193l-33 -43q-127 59 -217 127q-104 -75 -219 -127l-29 43q89 68 203 193h88zM496 70q128 0 197 98q42 62 42 141q0 167 -149 254q-38 21 -90 43q-238 100 -311 227q-41 73 -42 160q0 165 144 272q40 29 82 48q85 34 176 35q106 0 187 -22.5
t110 -46.5l28 -24l4 -6q-39 -130 -47 -205l-20 -2q-63 145 -188 197q-46 18 -91 18q-79 -1 -125 -24q-66 -36 -88 -135q-6 -26 -6 -49q0 -162 190 -245q25 -11 60 -24q346 -129 365 -378q1 -16 2 -31q0 -207 -174 -318q-117 -73 -273 -73q-106 0 -199.5 22.5t-133.5 45.5
l-40 24l-4 6q40 153 48 211l20 2q63 -120 195 -186q70 -35 131 -35z" />
    <glyph glyph-name="scircumflex" unicode="&#x15d;" horiz-adv-x="811" 
d="M102 207l31 2q107 -146 242 -148q132 0 174 98q14 34 14 72q0 92 -116 138q-34 13 -91 28q-180 50 -225 151q-20 46 -20 101q0 156 157 221q71 28 152 29q157 -1 276 -61l4 -7l-41 -151l-28 -2q-79 93 -132 118q-43 20 -87 21q-118 0 -148 -84q-7 -22 -8 -45
q3 -114 190 -160q248 -59 275 -222q3 -23 4 -46q0 -158 -131 -232q-87 -48 -217 -48q-153 1 -309 55zM451 1323q69 -111 206 -264l-43 -29q-145 109 -217 184q-92 -94 -219 -184l-41 29q148 166 211 264h103z" />
    <glyph glyph-name="Scedilla" unicode="&#x15e;" horiz-adv-x="1036" 
d="M494 -223q-54 -1 -93 -13l-12 13l82 196h70l-52 -137q26 6 54 6q101 0 135 -76q10 -25 10 -51q0 -90 -106 -131q-52 -20 -113 -20q-74 1 -152 35q2 34 21 53q77 -29 119 -29q92 0 103 67q1 8 1 15q-3 70 -67 72zM496 70q128 0 197 98q42 62 42 141q0 167 -149 254
q-38 21 -90 43q-238 100 -311 227q-41 73 -42 160q0 165 144 272q40 29 82 48q85 34 176 35q106 0 187 -22.5t110 -46.5l28 -24l4 -6q-39 -130 -47 -205l-20 -2q-63 145 -188 197q-46 18 -91 18q-79 -1 -125 -24q-66 -36 -88 -135q-6 -26 -6 -49q0 -162 190 -245
q25 -11 60 -24q346 -129 365 -378q1 -16 2 -31q0 -207 -174 -318q-117 -73 -273 -73q-106 0 -199.5 22.5t-133.5 45.5l-40 24l-4 6q40 153 48 211l20 2q63 -120 195 -186q70 -35 131 -35z" />
    <glyph glyph-name="scedilla" unicode="&#x15f;" horiz-adv-x="811" 
d="M102 207l31 2q107 -146 242 -148q132 0 174 98q14 34 14 72q0 92 -116 138q-34 13 -91 28q-180 50 -225 151q-20 46 -20 101q0 156 157 221q71 28 152 29q157 -1 276 -61l4 -7l-41 -151l-28 -2q-79 93 -132 118q-43 20 -87 21q-118 0 -148 -84q-7 -22 -8 -45
q3 -114 190 -160q248 -59 275 -222q3 -23 4 -46q0 -158 -131 -232q-87 -48 -217 -48h67l-51 -138q26 6 53 6q101 0 136 -76q10 -25 10 -51q0 -90 -106 -131q-52 -20 -113 -20q-74 1 -152 35q2 34 21 53q77 -29 118 -29q92 0 104 67q1 8 1 15q-4 69 -68 72q-54 -1 -92 -12
l-12 12l82 197h2q-153 1 -309 55z" />
    <glyph glyph-name="Scaron" unicode="&#x160;" horiz-adv-x="1036" 
d="M440 1427q-76 92 -207 195l33 41q124 -55 217 -125q117 82 219 125l31 -41q-102 -79 -205 -195h-88zM496 70q128 0 197 98q42 62 42 141q0 167 -149 254q-38 21 -90 43q-238 100 -311 227q-41 73 -42 160q0 165 144 272q40 29 82 48q85 34 176 35q106 0 187 -22.5
t110 -46.5l28 -24l4 -6q-39 -130 -47 -205l-20 -2q-63 145 -188 197q-46 18 -91 18q-79 -1 -125 -24q-66 -36 -88 -135q-6 -26 -6 -49q0 -162 190 -245q25 -11 60 -24q346 -129 365 -378q1 -16 2 -31q0 -207 -174 -318q-117 -73 -273 -73q-106 0 -199.5 22.5t-133.5 45.5
l-40 24l-4 6q40 153 48 211l20 2q63 -120 195 -186q70 -35 131 -35z" />
    <glyph glyph-name="scaron" unicode="&#x161;" horiz-adv-x="811" 
d="M102 207l31 2q107 -146 242 -148q132 0 174 98q14 34 14 72q0 92 -116 138q-34 13 -91 28q-180 50 -225 151q-20 46 -20 101q0 156 157 221q71 28 152 29q157 -1 276 -61l4 -7l-41 -151l-28 -2q-79 93 -132 118q-43 20 -87 21q-118 0 -148 -84q-7 -22 -8 -45
q3 -114 190 -160q248 -59 275 -222q3 -23 4 -46q0 -158 -131 -232q-87 -48 -217 -48q-153 1 -309 55zM346 1028q-79 127 -207 266l41 27q145 -109 217 -184q79 81 221 184l39 -27q-138 -155 -208 -266h-103z" />
    <glyph glyph-name="Tcedilla" unicode="&#x162;" horiz-adv-x="1105" 
d="M590 -188q-54 -1 -92 -13l-13 13l79 188h-11q-67 0 -104 -6l-5 6q20 140 21 410v501q0 237 -16 295q-123 0 -226.5 -7t-145.5 -14l-42 -7l-4 8q6 49 0 135l4 6q50 -6 123 -6h790q74 0 123 6l4 -6q-6 -88 0 -135l-4 -8l-161 19q-118 9 -253 9q-16 -56 -16 -295v-501
q0 -264 21 -410l-5 -6q-12 2 -24 3l-47 -126q26 6 53 6q101 0 135 -76q10 -25 10 -51q0 -90 -106 -131q-52 -20 -113 -20q-74 1 -151 34q2 34 20 54q77 -29 119 -29q92 0 103 67q1 8 1 15q-3 70 -67 72z" />
    <glyph glyph-name="tcedilla" unicode="&#x163;" horiz-adv-x="696" 
d="M344 -217q-54 -1 -92 -12l-12 12l82 197h47q-114 0 -161 97q-20 44 -20 99q0 25 3 113q4 148 4 219v280q-96 -1 -146 -4l-10 15q29 46 45 84q31 -4 111 -4q0 65 4 158q3 69 4 104l4 6q42 6 123 42q12 5 20 9q17 -4 19 -20q-10 -135 -11 -299h97q40 0 143 4l10 -15
q-17 -42 -24 -84q-43 4 -148 4h-78v-258q0 -72 -3 -181q-2 -66 -3 -91q0 -152 63 -167q4 -1 5 -1q81 -12 161 16l25 -51q-119 -75 -237 -75h22l-51 -138q26 6 53 6q101 0 135 -76q10 -25 11 -51q0 -90 -106 -131q-52 -20 -114 -20q-74 1 -151 35q2 34 20 53q77 -29 119 -29
q92 0 103 67q1 8 2 15q-4 70 -68 72z" />
    <glyph glyph-name="Tcaron" unicode="&#x164;" horiz-adv-x="1105" 
d="M518 1427q-76 92 -207 195l33 41q124 -55 217 -125q117 82 219 125l31 -41q-102 -79 -205 -195h-88zM465 911q0 237 -16 295q-123 0 -226.5 -7t-145.5 -14l-42 -7l-4 8q6 49 0 135l4 6q50 -6 123 -6h790q74 0 123 6l4 -6q-6 -88 0 -135l-4 -8l-161 19q-118 9 -253 9
q-16 -56 -16 -295v-501q0 -264 21 -410l-5 -6q-37 6 -104 6t-104 -6l-5 6q20 140 21 410v501z" />
    <glyph glyph-name="tcaron" unicode="&#x165;" horiz-adv-x="696" 
d="M543 1430q80 0 112 -88q11 -31 11 -62q0 -86 -75 -156q-58 -52 -134 -61l-11 35q88 19 121 100q8 23 8 41q-2 40 -28 43q-93 2 -94 78q0 50 56 65q17 5 34 5zM195 879q0 65 4 158q3 69 4 104l4 6q42 6 123 42q12 5 20 9q17 -4 19 -20q-10 -135 -11 -299h97q40 0 143 4
l10 -15q-17 -42 -24 -84q-43 4 -148 4h-78v-258q0 -72 -3 -181q-2 -66 -3 -91q0 -152 63 -167q4 -1 5 -1q81 -12 161 16l25 -51q-119 -75 -237 -75q-114 0 -161 97q-20 44 -20 99q0 25 3 113q4 148 4 219v280q-96 -1 -146 -4l-10 15q29 46 45 84q31 -4 111 -4z" />
    <glyph glyph-name="Tbar" unicode="&#x166;" horiz-adv-x="1105" 
d="M207 674v80h258v157q0 237 -16 295q-123 0 -226.5 -7t-145.5 -14l-42 -7l-4 8q6 49 0 135l4 6q50 -6 123 -6h790q74 0 123 6l4 -6q-6 -88 0 -135l-4 -8l-161 19q-118 9 -253 9q-16 -56 -16 -295v-157h277v-80h-277v-264q0 -264 21 -410l-5 -6q-37 6 -104 6t-104 -6l-5 6
q20 140 21 410v264h-258z" />
    <glyph glyph-name="tbar" unicode="&#x167;" horiz-adv-x="696" 
d="M559 582v-80h-201q0 -59 -3 -153q-2 -66 -3 -91q0 -152 63 -167q4 -1 5 -1q81 -12 161 16l25 -51q-119 -75 -237 -75q-114 0 -161 97q-20 44 -20 99q0 25 3 113q4 143 4 213h-154v80h154v206q-96 -1 -146 -4l-10 15q29 46 45 84q31 -4 111 -4q0 65 4 158q3 69 4 104l4 6
q42 6 123 42q12 5 20 9q17 -4 19 -20q-10 -135 -11 -299h97q40 0 143 4l10 -15q-17 -42 -24 -84q-43 4 -148 4h-78v-206h201z" />
    <glyph glyph-name="Utilde" unicode="&#x168;" horiz-adv-x="1417" 
d="M846 1520q57 0 87 67q8 18 15 39l49 -12q-37 -184 -178 -184q-53 1 -131 53q-74 44 -110 45q-66 0 -96 -83l-5 -15l-49 10q40 167 141 181q12 1 23 1q67 -1 147 -57q61 -45 107 -45zM1114 911q0 264 -20 410l4 6q38 -6 71 -6q36 0 72 6l4 -6q-20 -137 -20 -410v-307
q0 -435 -243 -563q-118 -61 -292 -61q-242 0 -371 156q-105 130 -106 347v428q0 264 -20 410l4 6q37 -6 104 -6t105 6l4 -6q-20 -137 -21 -410v-360q5 -454 344 -457q300 0 361 257q20 84 20 216v344z" />
    <glyph glyph-name="utilde" unicode="&#x169;" horiz-adv-x="1099" 
d="M682 1167q57 0 87 68q8 18 15 39l50 -12q-37 -184 -179 -185q-53 1 -131 53q-74 44 -110 46q-66 0 -96 -83q-3 -9 -5 -16l-49 10q40 167 141 181q11 1 23 2q67 -1 147 -58q61 -45 107 -45zM748 188q-103 -159 -241 -198q-36 -10 -69 -10q-209 0 -257 188q-11 46 -11 96
v246q0 238 -18 369l4 6q37 -6 96 -6t96 6l4 -6q-18 -124 -18 -369v-203q0 -190 99 -210q17 -3 38 -3q108 0 225 138q32 39 56 77v201q0 234 -19 369l4 6q37 -6 97 -6q59 0 96 6l4 -6q-18 -124 -19 -369v-117q0 -206 35 -393l-4 -6q-41 6 -91 6q-26 0 -71 -6q-18 0 -18 6
l-10 182z" />
    <glyph glyph-name="Umacron" unicode="&#x16a;" horiz-adv-x="1417" 
d="M948 1499h-499q-25 3 -27 31q0 35 29 54q9 5 16 5h502q26 -3 28 -28q0 -37 -31 -56q-10 -5 -18 -6zM1114 911q0 264 -20 410l4 6q38 -6 71 -6q36 0 72 6l4 -6q-20 -137 -20 -410v-307q0 -435 -243 -563q-118 -61 -292 -61q-242 0 -371 156q-105 130 -106 347v428
q0 264 -20 410l4 6q37 -6 104 -6t105 6l4 -6q-20 -137 -21 -410v-360q5 -454 344 -457q300 0 361 257q20 84 20 216v344z" />
    <glyph glyph-name="umacron" unicode="&#x16b;" horiz-adv-x="1099" 
d="M788 1102h-499q-25 3 -27 31q0 35 29 53q9 5 16 6h502q26 -3 29 -29q0 -37 -32 -56q-10 -4 -18 -5zM748 188q-103 -159 -241 -198q-36 -10 -69 -10q-209 0 -257 188q-11 46 -11 96v246q0 238 -18 369l4 6q37 -6 96 -6t96 6l4 -6q-18 -124 -18 -369v-203q0 -190 99 -210
q17 -3 38 -3q108 0 225 138q32 39 56 77v201q0 234 -19 369l4 6q37 -6 97 -6q59 0 96 6l4 -6q-18 -124 -19 -369v-117q0 -206 35 -393l-4 -6q-41 6 -91 6q-26 0 -71 -6q-18 0 -18 6l-10 182z" />
    <glyph glyph-name="Ubreve" unicode="&#x16c;" horiz-adv-x="1417" 
d="M991 1647q-12 -137 -142 -201q-65 -30 -136 -31q-162 0 -239 113q-35 53 -40 119h58q18 -89 143 -117q38 -8 78 -8q130 0 193 70q22 26 28 55h57zM1114 911q0 264 -20 410l4 6q38 -6 71 -6q36 0 72 6l4 -6q-20 -137 -20 -410v-307q0 -435 -243 -563q-118 -61 -292 -61
q-242 0 -371 156q-105 130 -106 347v428q0 264 -20 410l4 6q37 -6 104 -6t105 6l4 -6q-20 -137 -21 -410v-360q5 -454 344 -457q300 0 361 257q20 84 20 216v344z" />
    <glyph glyph-name="ubreve" unicode="&#x16d;" horiz-adv-x="1099" 
d="M307 1323q25 -123 135 -168q42 -16 86 -16q131 0 193 105q21 37 29 79l55 -25q-23 -168 -154 -242q-60 -33 -123 -34q-167 0 -242 162q-24 52 -34 114zM748 188q-103 -159 -241 -198q-36 -10 -69 -10q-209 0 -257 188q-11 46 -11 96v246q0 238 -18 369l4 6q37 -6 96 -6
t96 6l4 -6q-18 -124 -18 -369v-203q0 -190 99 -210q17 -3 38 -3q108 0 225 138q32 39 56 77v201q0 234 -19 369l4 6q37 -6 97 -6q59 0 96 6l4 -6q-18 -124 -19 -369v-117q0 -206 35 -393l-4 -6q-41 6 -91 6q-26 0 -71 -6q-18 0 -18 6l-10 182z" />
    <glyph glyph-name="Uring" unicode="&#x16e;" horiz-adv-x="1417" 
d="M711 1595q-73 0 -97 -73q-6 -21 -6 -41q0 -73 57 -104q22 -11 46 -11q70 0 95 73q7 22 7 42q0 80 -63 107q-19 7 -39 7zM532 1481q0 95 88 145q44 24 91 25q98 0 151 -81q26 -42 27 -89q0 -94 -86 -145q-44 -25 -92 -25q-98 0 -152 81q-26 43 -27 89zM1114 911
q0 264 -20 410l4 6q38 -6 71 -6q36 0 72 6l4 -6q-20 -137 -20 -410v-307q0 -435 -243 -563q-118 -61 -292 -61q-242 0 -371 156q-105 130 -106 347v428q0 264 -20 410l4 6q37 -6 104 -6t105 6l4 -6q-20 -137 -21 -410v-360q5 -454 344 -457q300 0 361 257q20 84 20 216v344z
" />
    <glyph glyph-name="uring" unicode="&#x16f;" horiz-adv-x="1099" 
d="M514 1309q-73 0 -96 -74q-6 -21 -6 -41q0 -73 57 -103q22 -11 45 -12q70 0 95 73q7 22 7 42q0 80 -63 107q-19 8 -39 8zM336 1194q0 95 87 145q44 24 91 25q98 0 151 -81q26 -42 27 -89q0 -94 -85 -145q-44 -25 -93 -25q-98 0 -151 81q-26 43 -27 89zM748 188
q-103 -159 -241 -198q-36 -10 -69 -10q-209 0 -257 188q-11 46 -11 96v246q0 238 -18 369l4 6q37 -6 96 -6t96 6l4 -6q-18 -124 -18 -369v-203q0 -190 99 -210q17 -3 38 -3q108 0 225 138q32 39 56 77v201q0 234 -19 369l4 6q37 -6 97 -6q59 0 96 6l4 -6q-18 -124 -19 -369
v-117q0 -206 35 -393l-4 -6q-41 6 -91 6q-26 0 -71 -6q-18 0 -18 6l-10 182z" />
    <glyph glyph-name="Uhungarumlaut" unicode="&#x170;" horiz-adv-x="1417" 
d="M1053 1622q-1 -26 -15 -41l-202 -172q-8 -5 -17 -6q-19 0 -25 19q-1 5 -1 8q1 10 7 22l122 223q18 24 47 25q67 0 81 -60q3 -10 3 -18zM784 1632q-2 -27 -14 -39l-180 -165q-18 -14 -29 -15q-24 3 -26 25q1 13 5 22l111 226q18 24 56 24q44 0 67 -41q9 -19 10 -37z
M1114 911q0 264 -20 410l4 6q38 -6 71 -6q36 0 72 6l4 -6q-20 -137 -20 -410v-307q0 -435 -243 -563q-118 -61 -292 -61q-242 0 -371 156q-105 130 -106 347v428q0 264 -20 410l4 6q37 -6 104 -6t105 6l4 -6q-20 -137 -21 -410v-360q5 -454 344 -457q300 0 361 257
q20 84 20 216v344z" />
    <glyph glyph-name="uhungarumlaut" unicode="&#x171;" horiz-adv-x="1099" 
d="M885 1251q-2 -25 -15 -39l-233 -225q-6 -4 -12 -4q-21 0 -28 20q-1 4 -1 7q1 6 2 8l160 285q16 24 49 24q52 0 72 -49q6 -15 6 -27zM614 1264q-1 -20 -10 -33l-209 -248q-8 -5 -16 -6q-25 3 -29 27q1 5 2 6l131 299q14 28 54 28q55 0 73 -48q4 -13 4 -25zM748 188
q-103 -159 -241 -198q-36 -10 -69 -10q-209 0 -257 188q-11 46 -11 96v246q0 238 -18 369l4 6q37 -6 96 -6t96 6l4 -6q-18 -124 -18 -369v-203q0 -190 99 -210q17 -3 38 -3q108 0 225 138q32 39 56 77v201q0 234 -19 369l4 6q37 -6 97 -6q59 0 96 6l4 -6q-18 -124 -19 -369
v-117q0 -206 35 -393l-4 -6q-41 6 -91 6q-26 0 -71 -6q-18 0 -18 6l-10 182z" />
    <glyph glyph-name="Uogonek" unicode="&#x172;" horiz-adv-x="1417" 
d="M1075 -260q-98 -109 -203 -115q-124 0 -154 102q-7 26 -7 54q2 103 95 206q-56 -7 -116 -7q-242 0 -371 156q-105 130 -106 347v428q0 264 -20 410l4 6q37 -6 104 -6t105 6l4 -6q-20 -137 -21 -410v-360q5 -454 344 -457q300 0 361 257q20 84 20 216v344q0 264 -20 410
l4 6q38 -6 71 -6q36 0 72 6l4 -6q-20 -137 -20 -410v-307q0 -435 -243 -563q-15 -8 -27 -14q-106 -122 -109 -224q0 -59 52 -81q17 -6 34 -7q52 2 108 62l7 -2z" />
    <glyph glyph-name="uogonek" unicode="&#x173;" horiz-adv-x="1099" 
d="M711 -426q-154 0 -185 116q-6 24 -6 50q0 115 117 225q58 53 126 85l-7 132l-8 6q-103 -159 -241 -198q-36 -10 -69 -10q-209 0 -257 188q-11 46 -11 96v246q0 238 -18 369l4 6q37 -6 96 -6t96 6l4 -6q-18 -124 -18 -369v-203q0 -190 99 -210q17 -3 38 -3q108 0 225 138
q32 39 56 77v201q0 234 -19 369l4 6q37 -6 97 -6q59 0 96 6l4 -6q-18 -124 -19 -369v-117q0 -206 35 -393l-4 -6q-41 6 -91 6q-26 0 -71 -6q-8 0 -12 1q-97 -67 -123 -177q-5 -24 -6 -43q0 -86 75 -112q22 -7 46 -7q73 2 141 70l31 -15q-56 -109 -183 -133q-21 -4 -42 -4z
" />
    <glyph glyph-name="Wcircumflex" unicode="&#x174;" horiz-adv-x="1947" 
d="M979 1649q85 -100 207 -193l-33 -43q-127 59 -217 127q-104 -75 -219 -127l-29 43q89 68 203 193h88zM1319 270q305 703 383 940q21 66 35 117q26 -6 102 -6q48 1 72 6q-399 -872 -604 -1347h-58q-120 338 -269 740l-329 -740h-57q-70 165 -229 559q-267 657 -332 788
q37 -6 123 -6q68 0 102 6q123 -429 404 -1075h4q205 475 260 612q-126 337 -176 463q37 -6 122 -6q78 0 113 6q57 -254 330 -1057h4z" />
    <glyph glyph-name="wcircumflex" unicode="&#x175;" horiz-adv-x="1468" 
d="M803 1321q69 -111 207 -264l-43 -29q-145 109 -217 184q-92 -94 -220 -184l-41 29q148 166 211 264h103zM410 -8q-199 519 -369 891q35 -6 109 -6q76 0 102 6q147 -466 220 -641q13 -31 25 -60h13q65 139 173 446q-53 146 -89 257q35 -6 108 -6q76 0 103 6
q94 -430 196 -700h16q122 283 253 700q20 -6 69 -6q69 0 88 6q-124 -271 -380 -891q-20 6 -76 6q-34 -1 -53 -6q-31 83 -94 253q-60 161 -89 239q-62 -151 -184 -494q-20 6 -74 6q-47 0 -67 -6z" />
    <glyph glyph-name="Ycircumflex" unicode="&#x176;" horiz-adv-x="1191" 
d="M643 1649q85 -100 207 -193l-33 -43q-127 59 -217 127q-104 -75 -219 -127l-29 43q89 68 203 193h88zM682 584q5 -474 14 -590q-37 6 -102 6t-102 -6q14 159 14 569q-185 317 -443 718q-18 29 -30 46q53 -6 117 -6q65 0 116 6q67 -130 330 -581q16 -27 29 -50
q230 361 358 631q38 -6 86 -6q46 0 86 6q-64 -98 -171 -260q-240 -362 -302 -483z" />
    <glyph glyph-name="ycircumflex" unicode="&#x177;" horiz-adv-x="1036" 
d="M598 1323q69 -111 207 -264l-43 -29q-145 109 -217 184q-92 -94 -219 -184l-41 29q148 166 211 264h102zM57 885q30 -6 107 -6q74 0 100 6q69 -211 274 -706h4q138 295 269 706q22 -6 80 -6q67 0 88 6q-156 -317 -413 -914q-145 -337 -181 -456q-34 10 -100 10
q-38 -1 -72 -10q149 248 242 465q-46 124 -392 893q-4 7 -6 12z" />
    <glyph glyph-name="Ydieresis" unicode="&#x178;" horiz-adv-x="1191" 
d="M358 1536q0 62 56 89q20 9 41 9q61 0 87 -57q8 -21 9 -41q0 -63 -58 -88q-19 -7 -38 -8q-63 0 -89 58q-8 19 -8 38zM705 1536q0 62 55 89q20 9 41 9q61 0 87 -57q8 -21 9 -41q0 -63 -58 -88q-19 -7 -38 -8q-63 0 -89 58q-7 19 -7 38zM682 584q5 -474 14 -590
q-37 6 -102 6t-102 -6q14 159 14 569q-185 317 -443 718q-18 29 -30 46q53 -6 117 -6q65 0 116 6q67 -130 330 -581q16 -27 29 -50q230 361 358 631q38 -6 86 -6q46 0 86 6q-64 -98 -171 -260q-240 -362 -302 -483z" />
    <glyph glyph-name="Zacute" unicode="&#x179;" horiz-adv-x="1273" 
d="M713 1679q88 -42 127 -106l-295 -119q-58 -24 -86 -24q-28 3 -31 30q4 23 31 43zM383 111q119 0 313.5 10t329.5 21l135 12l4 -7q-4 -33 -4 -67q0 -25 4 -80l-4 -6q-52 6 -145 6h-744l-178 -6l-6 8q14 18 36 51q12 18 17 25l756 1108q12 22 -6 24q-140 0 -563 -32
q-90 -7 -164 -11l-4 7q4 33 4 67q0 25 -4 80l4 6q50 -6 125 -6h622q162 0 258 12q11 -4 13 -12q-2 -28 -62 -111l-727 -1063q-10 -16 -10 -36z" />
    <glyph glyph-name="zacute" unicode="&#x17a;" horiz-adv-x="851" 
d="M524 1374q13 4 29 4q64 -2 113 -47l6 -22l-236 -224q-39 -38 -61 -38q-23 6 -29 26q2 23 23 57zM278 102q249 1 513 23l4 -6q-4 -33 -4 -64q0 -7 4 -55l-4 -6q-47 6 -115 6h-463l-166 -6l-6 9q14 16 45 63l481 710q-38 -1 -78 -2t-75.5 -2.5t-72 -3t-65.5 -3t-58 -3.5
t-48.5 -3.5t-37.5 -2.5t-23.5 -1.5t-8.5 -0.5l-4 6q4 33 4 63q0 7 -4 56l4 6q47 -6 115 -6h418q42 0 137 10q24 3 28 2q10 -4 11 -12q-17 -20 -61 -86z" />
    <glyph glyph-name="Zdotaccent" unicode="&#x17b;" horiz-adv-x="1273" 
d="M520 1599q0 65 60 96q23 11 47 11q65 0 95 -60q11 -23 11 -47q0 -65 -60 -95q-23 -11 -46 -11q-65 0 -96 60q-10 23 -11 46zM383 111q119 0 313.5 10t329.5 21l135 12l4 -7q-4 -33 -4 -67q0 -25 4 -80l-4 -6q-52 6 -145 6h-744l-178 -6l-6 8q14 18 36 51q12 18 17 25
l756 1108q12 22 -6 24q-140 0 -563 -32q-90 -7 -164 -11l-4 7q4 33 4 67q0 25 -4 80l4 6q50 -6 125 -6h622q162 0 258 12q11 -4 13 -12q-2 -28 -62 -111l-727 -1063q-10 -16 -10 -36z" />
    <glyph glyph-name="zdotaccent" unicode="&#x17c;" horiz-adv-x="851" 
d="M336 1223q0 62 58 92q23 11 46 12q62 0 93 -58q11 -23 12 -46q0 -62 -59 -93q-23 -11 -46 -12q-62 0 -92 59q-11 23 -12 46zM278 102q249 1 513 23l4 -6q-4 -33 -4 -64q0 -7 4 -55l-4 -6q-47 6 -115 6h-463l-166 -6l-6 9q14 16 45 63l481 710q-38 -1 -78 -2t-75.5 -2.5
t-72 -3t-65.5 -3t-58 -3.5t-48.5 -3.5t-37.5 -2.5t-23.5 -1.5t-8.5 -0.5l-4 6q4 33 4 63q0 7 -4 56l4 6q47 -6 115 -6h418q42 0 137 10q24 3 28 2q10 -4 11 -12q-17 -20 -61 -86z" />
    <glyph glyph-name="Zcaron" unicode="&#x17d;" horiz-adv-x="1273" 
d="M573 1427q-76 92 -206 195l32 41q124 -55 217 -125q117 82 220 125l30 -41q-102 -79 -204 -195h-89zM383 111q119 0 313.5 10t329.5 21l135 12l4 -7q-4 -33 -4 -67q0 -25 4 -80l-4 -6q-52 6 -145 6h-744l-178 -6l-6 8q14 18 36 51q12 18 17 25l756 1108q12 22 -6 24
q-140 0 -563 -32q-90 -7 -164 -11l-4 7q4 33 4 67q0 25 -4 80l4 6q50 -6 125 -6h622q162 0 258 12q11 -4 13 -12q-2 -28 -62 -111l-727 -1063q-10 -16 -10 -36z" />
    <glyph glyph-name="zcaron" unicode="&#x17e;" horiz-adv-x="851" 
d="M385 1026q-79 127 -207 266l41 27q145 -109 217 -184q79 81 221 184l39 -27q-138 -155 -209 -266h-102zM278 102q249 1 513 23l4 -6q-4 -33 -4 -64q0 -7 4 -55l-4 -6q-47 6 -115 6h-463l-166 -6l-6 9q14 16 45 63l481 710q-38 -1 -78 -2t-75.5 -2.5t-72 -3t-65.5 -3
t-58 -3.5t-48.5 -3.5t-37.5 -2.5t-23.5 -1.5t-8.5 -0.5l-4 6q4 33 4 63q0 7 -4 56l4 6q47 -6 115 -6h418q42 0 137 10q24 3 28 2q10 -4 11 -12q-17 -20 -61 -86z" />
    <glyph glyph-name="longs" unicode="&#x17f;" horiz-adv-x="593" 
d="M348 899v-489q0 -273 21 -410l-4 -6q-4 0 -99 6l-100 -6l-2 6q20 131 20 410v346q-4 32 -24 32h-90q-9 4 -11 11v39q9 36 47 41q77 3 78 98q0 155 25 211q17 36 53 86q116 155 309 156q62 -1 93 -19l2 -6q-25 -45 -58 -168l-22 -2q-42 70 -119 72q-107 0 -124 -121
q-5 -36 -5 -90q0 -17 4 -83q6 -86 6 -114z" />
    <glyph glyph-name="uni0180" unicode="&#x180;" horiz-adv-x="1032" 
d="M541 1130v-69h-209v-37v-227q96 102 256 102q169 0 281 -140q95 -120 96 -284q0 -298 -207 -429q-107 -66 -234 -66q-126 3 -241 100q-33 -62 -68 -100q-40 1 -57 16q10 56 10 154v837q0 37 -1 74h-151v69h149q-6 162 -22 252l4 7q94 8 179 41q17 -4 18 -21
q-10 -131 -12 -279h209zM332 166q65 -81 149 -101q17 -4 31 -4q239 0 266 305q4 44 4 93q0 275 -153 341q-39 16 -82 17q-87 0 -174 -80q-19 -18 -41 -41v-530z" />
    <glyph glyph-name="uni0181" unicode="&#x181;" horiz-adv-x="1335" 
d="M506 1241v-477h162q278 0 303 200q2 18 2 35q-3 249 -303 250q-102 0 -164 -8zM506 684v-608q81 -10 180 -10q304 0 369 209q14 48 14 100q0 160 -111 245q-84 63 -215 64h-237zM10 1044q0 110 96 196q92 80 224 81h411q289 0 366 -201q21 -56 21 -116q0 -134 -128 -232
q-29 -22 -60 -37q241 -62 299 -263q14 -49 14 -97q0 -178 -160 -293q-121 -85 -259 -86q-91 0 -260 2q-112 2 -152 2l-234 -4v43q3 14 13 16h63q65 0 73 41q3 16 3 51v1029q-2 88 -41 90q-96 0 -140 -71q-17 -29 -18 -60q1 -19 9 -50l6 -43q0 -62 -58 -72q-8 -1 -14 -1
q-53 0 -70 50q-4 13 -4 25z" />
    <glyph glyph-name="uni0182" unicode="&#x182;" horiz-adv-x="1159" 
d="M352 711v-625q99 -16 174 -16q368 4 371 315q0 231 -190 300q-72 25 -164 26h-191zM186 1180q0 68 -26 79q-17 6 -54 7h-61q-9 3 -10 8v47h923l27 -287l-53 -6q-50 179 -157 207q-30 7 -68 8h-355v-463h117q390 0 519 -143q83 -95 83 -256q0 -221 -186 -324
q-106 -57 -238 -57h-612v45q3 7 10 10h61q75 16 80 99v1026z" />
    <glyph glyph-name="uni0183" unicode="&#x183;" horiz-adv-x="987" 
d="M305 111q56 -60 148 -62q189 0 260 199q32 92 32 209q0 202 -109 301q-57 50 -122 51q-125 -2 -209 -86v-612zM389 1409h412l28 -287l-53 -6q-45 173 -144 214q-25 9 -50 9h-277v-553q105 112 250 113q153 0 257 -133q91 -118 91 -283q0 -266 -181 -410
q-118 -92 -257 -93q-130 1 -213 71q-4 -6 -10 -13t-10.5 -12.5t-12.5 -14.5t-10 -12t-11 -13l-10 -11l-43 11q6 50 7 159v1039q0 133 -47 144q-8 1 -15 1l-65 -6q-9 4 -11 10l-4 51q150 25 379 25z" />
    <glyph glyph-name="uni0184" unicode="&#x184;" horiz-adv-x="1171" 
d="M365 711v-627q73 -14 174 -14q368 4 370 315q0 231 -189 300q-72 25 -165 26h-190zM199 946q0 166 -116 207q-13 4 -24 6v70q144 28 250 119h56v-568h114q390 0 520 -142q84 -95 84 -257q0 -221 -186 -324q-106 -57 -238 -57h-612v45q0 7 6 9q3 1 4 1h62q76 12 80 97v794
z" />
    <glyph glyph-name="uni0185" unicode="&#x185;" horiz-adv-x="993" 
d="M319 113q55 -63 150 -64q183 0 257 193q36 96 36 219q0 203 -111 301q-57 48 -123 49q-125 -2 -209 -86v-612zM168 1026q-3 176 -143 213v70q144 32 249 121h45v-642q103 110 252 111q155 0 259 -133q89 -116 90 -279q0 -264 -180 -411q-119 -96 -261 -96q-125 1 -213 73
q-15 -22 -63 -76l-41 11q6 76 6 162v876z" />
    <glyph glyph-name="uni0186" unicode="&#x186;" horiz-adv-x="1386" 
d="M545 -20q-238 0 -442 90q-4 2 -5 2l-4 6q34 144 40 211q1 9 1 16l21 2q118 -230 417 -231q150 0 273 121q159 160 160 446q0 277 -145 449q-129 150 -326 151q-185 0 -307 -89q-60 -45 -130 -122l-49 39q213 275 504 277q341 0 527 -246q136 -182 137 -420
q0 -295 -205 -501q-187 -189 -440 -201h-27z" />
    <glyph glyph-name="uni0187" unicode="&#x187;" horiz-adv-x="1386" 
d="M1362 1522q60 0 72 -60q1 -8 2 -14q-3 -71 -103 -72q-38 0 -118 -79q-25 -23 -31 -25l41 -17l4 -6q-34 -144 -40 -211q-1 -9 -1 -16l-21 -2q-118 230 -417 231q-150 0 -273 -121q-159 -160 -160 -446q0 -277 145 -449q129 -150 326 -151q185 0 307 89q60 45 130 122
l49 -39q-213 -275 -504 -276q-341 0 -527 246q-136 182 -137 419q0 295 205 502q187 189 440 200q15 1 27 1q176 0 351 -57q25 142 149 207q46 23 84 24z" />
    <glyph glyph-name="uni0188" unicode="&#x188;" horiz-adv-x="1009" 
d="M934 877q-16 0 -52 9q-38 9 -55 9q-46 -2 -78 -37q21 -8 37 -16l5 -6l-48 -168l-26 -2q-18 30 -34 51q-37 0 -40 2q2 24 4 38q-65 60 -135 60q-126 0 -200 -130q-53 -97 -54 -230q0 -241 137 -335q59 -39 129 -40q124 2 219 86h9l39 -43q-116 -145 -302 -145
q-233 0 -343 187q-68 117 -68 279q0 224 169 358q121 94 267 95q88 0 173 -21q66 116 191 140q21 4 40 4q79 -9 86 -74q0 -62 -56 -70q-8 -1 -14 -1z" />
    <glyph glyph-name="uni0189" unicode="&#x189;" horiz-adv-x="1454" 
d="M389 168q0 -52 39 -67q45 -15 184 -15q325 0 442 167q82 120 83 329q0 363 -204 535q-144 120 -372 120q-142 0 -165 -49q-6 -16 -7 -33v-487h201v-80h-201v-420zM301 1321q66 0 169 3q105 3 169 3q288 0 495 -199q203 -195 213 -471q0 -14 1 -26q0 -422 -341 -571
q-149 -64 -331 -64q-115 0 -226 2q-85 2 -149 2l-106 -6l-2 6q20 140 20 410v178h-178v80h178v243q0 264 -20 410l4 6q4 0 104 -6z" />
    <glyph glyph-name="uni018A" unicode="&#x18a;" horiz-adv-x="1593" 
d="M549 147q0 -52 39 -66q45 -15 184 -15q544 5 547 516q0 309 -166 495q-159 176 -430 176q-136 0 -163 -37q-11 -18 -11 -40v-1029zM150 1042q0 -60 -56 -68q-8 -1 -14 -1q-71 10 -76 84q0 95 79 176q90 89 234 90q27 0 72 -1t74 -1q76 0 218 1q89 1 118 1q293 0 498 -200
q202 -213 208 -492q-3 -633 -669 -635q-60 0 -174 2q-126 2 -199 2l-262 -4v41q3 16 14 18h61q95 0 105 70q1 12 2 25v1021q0 79 -43 91q-14 3 -31 4q-110 0 -157 -64q-18 -28 -19 -59v-7t1 -7.5t1 -6.5t1 -8t1 -7t2 -8l2 -7q9 -24 9 -50z" />
    <glyph glyph-name="uni018B" unicode="&#x18b;" horiz-adv-x="1150" 
d="M795 711h-183q-286 0 -342 -226q-12 -48 -12 -100q4 -318 373 -319q73 0 164 18v627zM958 1180v-1028q11 -91 82 -97h62q7 -6 8 -10v-49q-2 0 -233 4q-72 0 -185 -2t-182 -2q-216 0 -337 138q-86 102 -87 247q0 275 247 357q132 43 355 42h107v463h-344q-118 0 -176 -92
q-30 -49 -52 -123l-53 6l29 314q105 -26 231 -27h444l236 2v-49q-4 -7 -8 -8h-62q-63 0 -74 -28q-8 -19 -8 -58z" />
    <glyph glyph-name="uni018C" unicode="&#x18c;" horiz-adv-x="1011" 
d="M684 186v521q-90 116 -201 122q-122 -3 -190 -104q-63 -91 -64 -272q0 -245 136 -347q55 -41 114 -40q76 0 181 98zM836 1430l22 -19q-20 -26 -20 -98v-1067q0 -79 8 -109q12 -29 45 -31q70 0 100 7l8 -58q-218 -38 -268 -80h-49l6 146q-140 -139 -262 -141
q-201 0 -298 179q-58 110 -58 257q1 232 129 360q131 122 307 123q82 0 164 -38l14 -7v438q-17 43 -47 47h-250q-112 0 -176 -171q-10 -26 -16 -52l-54 6l29 308q95 -20 217 -21h326q94 10 123 21z" />
    <glyph glyph-name="uni018D" unicode="&#x18d;" horiz-adv-x="1003" 
d="M475 49l35 -26l-16 32q283 105 284 383q0 175 -91 294q-76 96 -185 97q-203 0 -255 -226q-16 -71 -16 -159q0 -130 104 -262q37 -47 79 -82zM532 4l37 -31q188 -151 191 -243q0 -161 -180 -201q-48 -10 -101 -10q-178 0 -285 102q-47 47 -49 86q0 63 63 75q8 1 15 1
q55 0 102 -86q2 -3 3 -4q57 -105 153 -107q170 3 172 123q-2 52 -172 185l-145 114q-181 141 -233 253q-33 75 -33 161q0 284 208 410q112 66 246 67q223 0 338 -170q73 -111 74 -256q-3 -328 -404 -469z" />
    <glyph glyph-name="uni018E" unicode="&#x18e;" horiz-adv-x="1146" 
d="M774 410v247q-255 0 -457 -20l-6 6q6 29 6 57q0 30 -6 58l6 6q244 -20 457 -21v168q0 251 -16 310q-123 0 -262.5 -6.5t-216.5 -12.5l-78 -6l-4 8q4 33 4 53q0 10 -4 64l4 6q50 -6 123 -6h538l105 6l4 -6q-20 -148 -21 -410v-501q0 -272 21 -410l-2 -6q-4 0 -107 6h-559
q-74 0 -123 -6l-4 6l4 59q0 35 -4 68l4 8l382 -21q107 -3 196 -3q16 56 16 299z" />
    <glyph glyph-name="uni018F" unicode="&#x18f;" horiz-adv-x="1318" 
d="M199 1071l-47 49q153 144 247 185q99 42 236 43q354 0 517 -284q99 -173 99 -396q0 -370 -212 -557q-156 -135 -392 -136q-401 0 -521 352q-32 94 -40 205h979q2 25 2 76q0 330 -163 523q-126 146 -302 147q-173 0 -323 -132q-30 -26 -80 -75zM250 442q83 -346 339 -391
q36 -6 73 -6q204 0 318 205q48 88 67 192h-797z" />
    <glyph glyph-name="uni0190" unicode="&#x190;" horiz-adv-x="1058" 
d="M604 1348q83 0 198 -39q56 -18 97 -23l39 -293l-64 -10q-41 181 -112 241q-66 53 -174 54q-194 0 -262 -133q-26 -54 -27 -121q0 -137 98 -216q77 -60 197 -60h139q33 -3 35 -41q-3 -37 -35 -39h-198q-222 0 -270 -195q-11 -45 -11 -92q0 -270 202 -324q44 -11 93 -12
q178 0 284 132q56 72 78 171l62 -6l-35 -295q-13 -2 -174 -44q-104 -27 -197 -28q-316 0 -433 168q-56 83 -56 197q0 222 188 333q51 30 107 46q-133 49 -190 161q-29 60 -29 128q0 194 199 287q114 53 251 53z" />
    <glyph glyph-name="uni0191" unicode="&#x191;" horiz-adv-x="1036" 
d="M412 670v-584q0 -354 -203 -459q-63 -32 -129 -33q-126 0 -184 63q-28 32 -29 73q3 60 63 61q60 -2 80 -80q8 -46 52 -52q10 -1 18 -1q118 0 155 255q13 94 13 214v1049q0 70 -53 84q-23 6 -54 6h-61q-15 2 -17 14v41l9 2l256 -2l151 2h498q12 -159 43 -317l-59 -11
q-49 153 -98 198q-53 47 -138 48h-240q-70 -8 -73 -65v-437h260q74 0 95 62q4 13 7 28l14 62q6 14 17 16h45q5 -3 6 -8q-16 -126 -16 -194q0 -72 16 -197l-4 -6h-47q-14 2 -19 14l-12 64q-13 76 -69 87q-16 3 -33 3h-260z" />
    <glyph glyph-name="florin" unicode="&#x192;" horiz-adv-x="921" 
d="M668 1430q171 0 209 -101q7 -20 8 -39q0 -59 -47 -73q-10 -2 -19 -3q-69 3 -80 52q-21 101 -73 104q-79 0 -118 -219q-4 -22 -7 -43l-29 -227h215l-10 -80h-217l-4 -35q-77 -681 -116 -864q-65 -306 -185 -362q-34 -15 -74 -15q-111 0 -145 82q-7 18 -7 33q0 46 41 63
q12 4 23 4q48 -2 67 -43q5 -8 8 -27q10 -35 35 -36q108 0 144 348q10 98 22 314q12 214 21 306l24 232h-170l13 80h73q97 3 113 108q40 310 187 409q49 31 98 32z" />
    <glyph glyph-name="uni0193" unicode="&#x193;" horiz-adv-x="1468" 
d="M1397 1522q60 0 72 -60q1 -8 1 -14q-3 -71 -102 -72q-8 0 -24 1q-13 1 -17 1q-12 -1 -16 -2q-67 -14 -89 -96l66 -25l4 -6q-33 -141 -41 -248l-20 -2q-114 193 -328 240q-55 12 -110 12q-239 0 -372 -196q-103 -156 -104 -385q0 -266 141 -435q136 -160 359 -161
q218 1 301 78v88q-6 284 -20 389l4 6q4 0 104 -6l107 6l2 -6q-20 -138 -21 -348v-13q1 -72 21 -98v-6q-222 -184 -545 -184q-316 0 -506 223q-157 188 -158 446q0 338 248 537q202 161 467 162q166 0 344 -51q27 139 149 201q46 23 83 24z" />
    <glyph glyph-name="uni0194" unicode="&#x194;" horiz-adv-x="1263" 
d="M596 -41q-72 -108 -101 -239q-4 -18 -3 -27q9 -66 57 -70q62 14 67 144q0 107 -20 192zM999 1176q14 35 15 55q-15 34 -113 35h-37q-14 4 -16 16v39l4 2q2 0 229 -2l179 2l4 -2v-39q-4 -14 -17 -16q-97 0 -131 -53q-10 -17 -18 -37l-393 -1051q54 -195 61 -328
q0 -153 -96 -224q-52 -37 -119 -38q-120 0 -151 93q-7 22 -7 44q1 84 160 402l-387 1097q-30 87 -123 94q-13 1 -27 1q-14 4 -16 16v39l4 2q2 0 240 -2l254 2l4 -2v-39q-4 -14 -17 -16h-55q-97 -2 -98 -54q1 -11 8 -41l256 -729l63 -178l64 172z" />
    <glyph glyph-name="uni0195" unicode="&#x195;" horiz-adv-x="1462" 
d="M180 1153q0 145 -44 158q-9 2 -17 2l-66 4q-10 3 -12 10l-4 49q155 12 266 50q6 2 10 4q25 -3 27 -21q0 -4 -6 -215v-459q165 163 338 164q220 -4 221 -317v-316q3 -193 154 -194q123 0 203 158q58 118 59 255q-1 239 -125 263q-83 11 -86 75q0 53 51 71q16 5 33 5
q200 -4 200 -389q0 -344 -174 -478q-75 -56 -161 -57q-302 4 -308 297v332q0 150 -66 183q-34 16 -93 16q-101 -2 -246 -144v-512q0 -81 67 -88q11 -1 21 -2h39q14 -4 16 -16v-39l-4 -4q-2 0 -219 4l-211 -4l-4 4v39q4 15 14 16h39q78 0 87 64q1 13 1 26v1006z" />
    <glyph glyph-name="uni0196" unicode="&#x196;" horiz-adv-x="593" 
d="M184 1153q0 145 -44 158q-9 2 -17 2l-66 4q-10 3 -12 10l-4 49q155 12 266 50q6 2 10 4q25 -3 27 -21q0 -4 -6 -215v-918q0 -163 44 -183q12 -5 24 -5q62 0 132 54q3 3 5 3l37 -34q-121 -134 -246 -136q-148 4 -150 203v975z" />
    <glyph glyph-name="uni0197" unicode="&#x197;" horiz-adv-x="602" 
d="M561 754v-70h-172v-274q0 -264 21 -410l-4 -6q-37 6 -105 6q-67 0 -104 -6l-4 6q20 140 20 410v274h-174v70h174v157q0 264 -20 410l4 6q37 -6 104 -6t105 6l4 -6q-20 -137 -21 -410v-157h172z" />
    <glyph glyph-name="uni0198" unicode="&#x198;" horiz-adv-x="1304" 
d="M1073 1348q126 0 188 -80q24 -33 25 -64q0 -48 -47 -68q-14 -5 -27 -6q-40 0 -67 59q-30 65 -54 79q-17 10 -40 10q-38 0 -156 -151q-95 -121 -109 -138q-36 -44 -100 -114q-97 -111 -100 -142q2 -21 28 -51l490 -532q81 -91 160 -93h14q15 -3 18 -16v-39l-6 -4
q-2 0 -233 4l-123 -4l-4 4v12q-2 91 -41 136l-373 405q-62 65 -127 76v-221q0 -264 21 -410l-4 -6q-37 6 -105 6q-67 0 -104 -6l-4 6q20 140 20 410v501q0 264 -20 410l4 6q37 -6 104 -6t105 6l4 -6q-20 -137 -21 -410v-199q53 17 119 79q133 134 237 262q25 31 72 93
q99 134 155 171q49 30 101 31z" />
    <glyph glyph-name="uni0199" unicode="&#x199;" horiz-adv-x="980" 
d="M180 1016q0 260 136 363q68 50 161 51q104 0 166 -54q26 -25 27 -51q0 -67 -53 -78q-8 -1 -13 -2q-64 3 -86 90q-11 31 -33 33q-99 0 -135 -144q-16 -64 -16 -147v-592q81 21 268 226q40 42 41 80q-5 31 -59 32h-9q-14 3 -16 17v39l6 4q3 0 170 -4l191 4l8 -4v-39
q-3 -14 -23 -17h-14q-76 0 -166 -71q-18 -14 -31 -27l-155 -172q-8 -10 -8 -21q1 -16 10 -28l239 -354q51 -76 133 -91q12 -2 21 -2h14q17 -3 19 -16v-39l-4 -4q-3 0 -185 4l-127 -4l-6 4v39q-2 43 -47 109l-149 210q-66 68 -121 74v-287q0 -81 67 -88q11 -1 21 -2h4
q14 -4 16 -16v-39l-4 -4q-3 0 -184 4l-211 -4l-4 4v39q4 15 14 16h39q78 0 87 64q1 13 1 26v869z" />
    <glyph glyph-name="uni019A" unicode="&#x19a;" horiz-adv-x="516" 
d="M532 705v-70h-184v-225q0 -275 19 -410l-5 -6q-37 6 -96 6t-96 -6l-4 6q18 133 18 410v225h-176v70h176v282q0 293 -18 395l4 7q94 8 178 41q17 -4 19 -21q-18 -250 -19 -385v-319h184z" />
    <glyph glyph-name="uni019B" unicode="&#x19b;" horiz-adv-x="1011" 
d="M713 1262l35 -62l-191 -111l313 -909q52 -127 80 -186l-54 6h-11q-3 0 -52 -1q-38 -1 -51 -5q-12 38 -25 91q-20 76 -42 138l-166 490l-297 -713q-111 -9 -156 -25l-51 25l451 909l-40 120l-194 -114l-35 62l207 121q-17 53 -47 152q-18 60 -22 71l-23 62l-20 47
q43 -9 75 -10q43 1 66 7q7 -52 19 -96q1 -4 27 -93q14 -47 18 -60l7 -21z" />
    <glyph glyph-name="uni019C" unicode="&#x19c;" horiz-adv-x="1753" 
d="M373 1176v-916q14 -177 149 -186q141 2 287 147q-4 29 -4 84v871q-13 85 -94 90h-43q-16 3 -19 16v39l4 2q2 0 238 -2l227 2l6 -2v-39q-3 -14 -18 -16h-41q-87 0 -95 -70q-1 -11 -1 -20v-912q0 -165 120 -187q16 -3 31 -3q120 2 277 151v951q-13 85 -94 90h-43
q-16 3 -19 16v39l4 2q2 0 238 -2l227 2l6 -2v-39q-3 -14 -18 -16h-41q-84 0 -93 -66q-1 -12 -1 -24v-953q0 -117 34 -125q7 -1 15 -2q45 1 92 10l10 -55q-158 -25 -221 -55q-5 -2 -8 -4q-37 -16 -55 -17h-33l6 177h-6q-185 -175 -357 -177q-130 0 -193 102q-21 36 -28 75
q-182 -176 -377 -177q-202 0 -230 232q-5 46 -5 100v869q-13 85 -94 90h-43q-16 3 -19 16v39l4 2q2 0 238 -2l229 2l4 -2v-39q-4 -14 -16 -16h-43q-87 -18 -94 -90z" />
    <glyph glyph-name="uni019D" unicode="&#x19d;" horiz-adv-x="1423" 
d="M213 180v946q-9 53 -58 101q-41 39 -92 39q-21 2 -24 16v37l6 4h266l715 -903q22 -29 55 -76q40 -56 52 -57q10 3 10 78v776q0 94 -71 118q-19 6 -40 7h-53q-25 2 -29 16v39l11 2q2 0 225 -2l227 2l4 -2v-39q-3 -14 -16 -16h-55q-90 0 -108 -92q-3 -17 -3 -33v-1098
q-3 -57 -43 -59q-52 5 -82 45l-715 903q-52 66 -69 67q-20 -4 -21 -100v-717q0 -310 -43 -423q-56 -140 -190 -142q-100 0 -148 64q-14 20 -14 36q5 68 65 72q35 0 62 -58q5 -13 8 -24q12 -28 41 -29q127 2 127 502z" />
    <glyph glyph-name="uni019E" unicode="&#x19e;" horiz-adv-x="1071" 
d="M340 899l-6 -182h6q142 166 290 180q22 2 44 2q185 0 217 -203q8 -53 8 -121v-903q0 -68 55 -82q15 -4 31 -6l39 -4q16 -5 18 -16v-39l-4 -4q-2 0 -221 4l-201 -4l-4 4v39q4 13 17 16l28 4q73 10 85 53q4 16 3 35v918q0 159 -60 195q-30 16 -73 16q-125 0 -240 -122
q-17 -18 -32 -36v-496q0 -63 48 -79q17 -5 40 -9l29 -4q15 -6 16 -16v-39l-4 -4q-2 0 -209 4l-213 -4l-4 4v39q4 14 16 16l39 4q73 8 85 53q3 16 3 35v510q0 115 -37 126q-5 1 -8 1l-88 9l-4 49q198 31 283 63q7 -3 8 -6z" />
    <glyph glyph-name="uni019F" unicode="&#x19f;" horiz-adv-x="1517" 
d="M1411 674q0 -336 -211 -531q-179 -162 -444 -163q-282 0 -468 187q-181 185 -182 468q0 309 195 516q187 196 453 197q293 0 480 -199q176 -190 177 -475zM1198 713q-25 437 -323 524q-69 20 -148 20q-193 0 -307 -170q-94 -143 -102 -374h880zM1200 633h-882
q12 -317 211 -471q120 -91 268 -92q218 0 327 204q75 145 76 359z" />
    <glyph glyph-name="Ohorn" unicode="&#x1a0;" horiz-adv-x="1517" 
d="M727 1257q-192 0 -306 -169q-103 -157 -104 -418q0 -331 199 -498q124 -102 281 -102q218 0 326 204q76 145 77 361q0 481 -296 593q-80 29 -177 29zM1411 674q0 -336 -211 -531q-179 -162 -444 -163q-282 0 -468 187q-181 185 -182 468q0 309 195 516q187 196 453 197
q183 -1 332 -84q12 -1 22 0q58 0 94 37q18 22 19 49q0 31 -44 47q-11 3 -20 4q-83 10 -95 80q-1 9 -1 16q8 76 94 80q77 0 120 -90q21 -46 21 -96q-3 -153 -128 -182q221 -175 241 -480q2 -28 2 -55z" />
    <glyph glyph-name="ohorn" unicode="&#x1a1;" horiz-adv-x="1024" 
d="M78 420q0 274 181 402q110 76 261 77q121 -1 211 -45q31 -6 64 -6q68 0 97 43q11 18 11 39q-3 38 -57 47q-82 7 -97 74q-2 10 -1 18q0 70 75 79q10 1 19 1q80 0 116 -94q15 -41 15 -86q0 -138 -114 -173q-18 -5 -36 -8q123 -125 123 -350q0 -254 -171 -379
q-110 -79 -263 -79q-240 0 -360 179q-73 113 -74 261zM506 817q-201 0 -240 -252q-8 -53 -8 -110q0 -222 107 -329q66 -65 165 -65q125 0 193 138q42 89 43 202q0 279 -97 364q-62 51 -163 52z" />
    <glyph glyph-name="uni01A2" unicode="&#x1a2;" horiz-adv-x="1806" 
d="M684 1278q-175 0 -294 -154q-128 -168 -128 -454q0 -335 192 -510q128 -115 298 -115q125 1 223 80v1040q-127 112 -291 113zM1327 1233l-199 12v-1122q-171 -147 -415 -148q-282 0 -465 192q-174 185 -174 468q0 314 193 520q182 192 444 193q160 -1 293 -72
q44 16 77 47h47q162 -14 222 -14q137 0 201 24q17 6 36 15h45v-1491q4 -88 88 -90h49q14 -4 17 -17v-39l-4 -4q-2 0 -230 4l-221 -4l-4 4v39q4 14 16 17h50q82 15 88 90v1235q0 106 -36 126q-28 15 -118 15z" />
    <glyph glyph-name="uni01A3" unicode="&#x1a3;" horiz-adv-x="1413" 
d="M692 688q-86 140 -211 141q-164 0 -225 -181q-26 -81 -27 -183q0 -279 180 -367q58 -28 119 -28q105 2 164 45v573zM1249 -324q0 -63 46 -79q18 -6 42 -11l39 -6q14 -6 17 -16v-39l-4 -4q-2 0 -220 4l-213 -4l-4 4v39q4 13 17 16l39 6q73 12 84 56q4 16 4 34v994
q0 81 -92 88q-18 1 -50 2q-51 -1 -108 -25v-631q-136 -94 -301 -119q-36 -5 -66 -5q-244 0 -351 213q-54 108 -54 231q0 245 154 380q110 95 261 95q120 -1 193 -39q65 -33 266 -33q94 0 216 60q38 19 55 18h30v-1229z" />
    <glyph glyph-name="uni01A4" unicode="&#x1a4;" horiz-adv-x="1196" 
d="M524 1241v-586q39 -10 146 -10q313 4 315 313q-3 310 -293 312q-88 -1 -168 -29zM358 143v1035q0 77 -27 85q-10 2 -22 3q-117 -3 -162 -67q-17 -26 -18 -56q1 -30 8 -51q8 -38 8 -50q0 -54 -51 -67q-11 -2 -20 -2q-67 14 -74 84q0 100 83 180q88 83 228 86h4l111 6
q177 10 283 10q336 0 425 -218q24 -61 25 -126q0 -195 -137 -311q-127 -105 -340 -106q-92 1 -158 20v-455q0 -77 80 -86q16 -2 33 -2h53q14 -4 17 -16v-39l-5 -4q-2 0 -258 4l-264 -4l-4 4v39q4 14 17 16h55q103 15 110 88z" />
    <glyph glyph-name="uni01A5" unicode="&#x1a5;" horiz-adv-x="980" 
d="M307 637v-500q76 -88 170 -88q248 0 267 328q1 25 1 49q0 260 -127 348q-46 30 -98 31q-87 0 -162 -87q-32 -37 -51 -81zM307 1077v-196l-6 -146h6q109 163 268 164q165 0 262 -161q67 -115 68 -257q-1 -241 -143 -387q-116 -114 -273 -114q-100 1 -182 45v-349
q0 -64 48 -81q17 -5 38 -9l39 -6q16 -6 19 -16v-39l-5 -4q-2 0 -221 4l-211 -4l-4 4v39q4 13 17 16l39 6q72 11 83 53q4 16 5 37v1340q0 260 136 363q68 50 161 51q103 0 163 -54q26 -25 27 -51q0 -67 -52 -78q-8 -1 -14 -2q-60 3 -86 90q-8 31 -30 33q-111 0 -142 -170
q-10 -55 -10 -121z" />
    <glyph glyph-name="uni01A6" unicode="&#x1a6;" horiz-adv-x="1155" 
d="M1018 795q0 -153 -163 -254q-60 -36 -114 -49l213 -490q86 -156 193 -158l6 -41q-37 -14 -86 -14q-165 0 -262 170q-2 4 -4 6l-211 477q-10 24 -48.5 28.5t-158.5 4.5v-332q0 -77 80 -86q16 -2 33 -2h53q14 -4 16 -16v-39l-4 -4q-2 0 -258 4l-262 -4l-4 4v39q3 14 14 16
h55q103 15 111 88v1033q0 81 -86 89q-13 1 -25 1h-55q-14 4 -16 16v39l4 2q2 0 258 -2l264 2l4 -2v-39q-4 -14 -16 -16h-53q-111 -3 -113 -90v-52q46 2 156 2q404 0 468 -241q11 -43 11 -90zM852 793q0 195 -184 247q-52 14 -107 15q-100 0 -178 -17v-491h102q264 0 335 114
q31 55 32 132z" />
    <glyph glyph-name="uni01A7" unicode="&#x1a7;" horiz-adv-x="980" 
d="M199 1292q27 4 120 34q70 21 179 22q157 0 275 -110q109 -103 110 -245q0 -233 -331 -370q-30 -12 -69 -27q-141 -56 -187 -128q-40 -65 -40 -163q0 -169 144 -231q59 -25 130 -25q249 4 320 316l61 -7q-35 -270 -39 -358q-17 0 -43 5q-30 5 -51 5q-16 0 -50 -9
q-101 -26 -232 -26q-195 0 -316 151q-89 113 -90 251q0 223 223 335q55 27 140 58q286 106 288 279q0 128 -99 193q-56 36 -126 36q-185 0 -266 -206q-15 -40 -33 -101l-61 10q33 181 43 311z" />
    <glyph glyph-name="uni01A8" unicode="&#x1a8;" horiz-adv-x="759" 
d="M672 287l-15 -287q-20 4 -47 4q-26 -1 -39 -4q-78 -20 -184 -20q-127 0 -222 73q-88 72 -89 185q0 158 186 250q48 24 115 49q121 45 142 111q7 24 7 52q-3 136 -157 138q-80 0 -146 -73q-46 -52 -65 -128l-49 2q3 96 20 209q104 51 240 51q169 0 245 -109
q37 -54 37 -120q0 -128 -91 -193q-42 -29 -134 -69q-176 -75 -205 -162q-8 -26 -8 -56q0 -92 100 -136q41 -17 78 -17q100 1 160 59q62 65 74 193z" />
    <glyph glyph-name="uni01A9" unicode="&#x1a9;" horiz-adv-x="1212" 
d="M252 1321h690q74 0 123 6l4 -6l-4 -59q0 -35 4 -68l-4 -8q-2 0 -578 24l-156 -3l369 -529l-464 -580q2 0 290 13l578 24l4 -8q-4 -33 -4 -68q0 -7 4 -59l-4 -6q-50 6 -123 6h-793l-143 -4l-4 4v49l4 6q24 24 39 43l432 535l4 2l-379 545q-41 59 -64 78q-5 4 -9 8l-5 4v51
l5 2z" />
    <glyph glyph-name="uni01AA" unicode="&#x1aa;" horiz-adv-x="624" 
d="M4 1231q0 127 115 178q48 20 104 21q153 0 201 -144q28 -88 29 -233v-1026q0 -285 43 -349q31 -52 75 -53q29 3 50 53q30 57 63 60q61 -5 64 -72q0 -48 -74 -80q-49 -20 -109 -20q-68 0 -143 51q-13 10 -23 18q-88 81 -98 293q-2 52 -2 162v789q0 113 20 188
q-51 -32 -98 -33q-148 0 -199 111q-18 40 -18 86zM356 1231q0 87 -68 126q-31 16 -67 17q-92 0 -125 -86q-10 -28 -10 -57q0 -91 73 -127q29 -14 62 -14q90 0 124 84q11 28 11 57z" />
    <glyph glyph-name="uni01AB" unicode="&#x1ab;" horiz-adv-x="696" 
d="M336 -297q-56 0 -71 56q-3 12 -3 22q0 56 71 68q85 14 88 15q8 4 13 7q54 34 55 121v5q-56 -18 -120 -17q-114 0 -161 97q-20 44 -20 99q0 25 3 113q4 148 4 219v280q-96 -1 -146 -4l-10 15q29 46 45 84q31 -4 111 -4q0 65 4 158q3 69 4 104l4 6q42 6 123 42q12 5 20 9
q17 -4 19 -20q-10 -135 -11 -299h97q40 0 143 4l10 -15q-17 -42 -24 -84q-43 4 -148 4h-78v-258q0 -72 -3 -181q-2 -66 -3 -91q0 -152 63 -167q4 -1 5 -1q81 -12 161 16l25 -51q-33 -21 -61 -35q2 -21 2 -40q0 -155 -124 -242q-50 -34 -87 -35z" />
    <glyph glyph-name="uni01AC" unicode="&#x1ac;" horiz-adv-x="1204" 
d="M1063 1321q43 2 43 47l53 6q9 -207 31 -313l-62 -10q-34 137 -63 163q-30 25 -102 25h-136q-78 0 -92 -40q-6 -19 -6 -46v-1008q0 -80 84 -88q14 -1 29 -2h55q14 -4 16 -16v-39l-4 -4q-2 0 -260 4l-262 -4l-4 4v39q4 14 16 16h54q111 3 112 90v1014q0 65 -48 76
q-20 4 -50 4h-137q-178 -3 -180 -100q1 -24 8 -47q8 -33 8 -50q0 -57 -55 -68q-9 -1 -17 -1q-69 10 -74 84q0 100 82 180q88 83 230 84h731z" />
    <glyph glyph-name="uni01AD" unicode="&#x1ad;" horiz-adv-x="622" 
d="M336 799v-523q0 -163 44 -183q12 -5 23 -5q74 2 148 57l37 -34q-121 -134 -256 -136q-148 4 -150 203v621h-133q-7 4 -8 8v63q3 7 6 9q118 0 132 115q1 12 1 22v6q2 262 142 361q67 46 155 47q104 0 166 -54q26 -25 27 -51q0 -67 -53 -78q-8 -1 -13 -2q-64 3 -86 90
q-11 31 -33 33q-99 0 -135 -144q-10 -42 -14 -90v-255h225q14 -3 17 -13v-41q-3 -25 -50 -26h-192z" />
    <glyph glyph-name="uni01AE" unicode="&#x1ae;" horiz-adv-x="1167" 
d="M528 1159q0 64 -47 75q-21 5 -53 5h-172q-93 0 -125 -42q-28 -38 -55 -146l-62 10q30 135 45 315l56 -8q5 -44 43 -47h866q44 2 45 47l53 6q9 -207 31 -313l-61 -10q-34 137 -64 163q-30 25 -102 25h-135q-78 0 -93 -40q-6 -19 -6 -46v-1153q0 -293 113 -333q25 -8 55 -9
q60 0 69 49q1 3 1 4q24 77 80 80q61 -5 63 -61q0 -101 -147 -129q-34 -6 -66 -7q-153 0 -246 117q-85 108 -86 289v1159z" />
    <glyph glyph-name="Uhorn" unicode="&#x1af;" horiz-adv-x="1413" 
d="M1260 1266q-86 -4 -89 -90v-576q0 -381 -163 -520q-124 -104 -351 -105q-244 0 -372 159q-103 130 -103 345v697q0 79 -78 88q-16 2 -32 2h-56q-14 4 -16 16v39l4 2q2 0 258 -2l264 2l4 -2v-39q-4 -14 -16 -16h-53q-111 -3 -113 -90v-629q0 -196 40 -286q26 -57 69 -99
q107 -101 243 -103q305 0 362 296q15 83 15 208v613q0 79 -78 88q-16 2 -32 2h-56q-14 4 -16 16v39l4 2q2 0 225 -2q174 0 196 27q7 11 7 26q-4 38 -61 39q-88 10 -97 84q0 64 73 78q13 2 28 2q81 0 118 -87q16 -40 17 -85q0 -110 -100 -134q-22 -5 -45 -5z" />
    <glyph glyph-name="uhorn" unicode="&#x1b0;" horiz-adv-x="1099" 
d="M748 188q-103 -159 -241 -198q-36 -10 -69 -10q-209 0 -257 188q-11 46 -11 96v246q0 238 -18 369l4 6q37 -6 96 -6t96 6l4 -6q-18 -124 -18 -369v-203q0 -190 99 -210q17 -3 38 -3q108 0 225 138q32 39 56 77v201q0 234 -19 369l4 6q37 -6 97 -6q23 0 47 1v3q53 6 78 40
q5 9 6 15q0 38 -51 43h-5q-82 2 -96 70q-2 10 -2 18q0 70 76 79q10 1 18 1q79 0 114 -94q14 -41 15 -86q0 -81 -75 -123q-16 -8 -31 -13q-12 -108 -13 -323v-117q0 -206 35 -393l-4 -6q-41 6 -91 6q-26 0 -71 -6q-18 0 -18 6l-10 182z" />
    <glyph glyph-name="uni01B1" unicode="&#x1b1;" horiz-adv-x="1363" 
d="M258 1202q-99 0 -126 -32q-23 -29 -30 -91h-53l14 242h197q181 -3 182 -127q0 -78 -92 -296q-102 -246 -104 -347q0 -276 163 -415q109 -90 261 -91q242 0 355 213q66 127 67 291q0 178 -124 430q-81 165 -88 211q-2 13 -1 22q0 88 160 105q45 4 102 4h143l14 -242h-53
q-7 94 -65 114q-31 9 -90 9q-92 -2 -95 -45q0 -35 89 -162q145 -208 176 -342q12 -53 12 -102q0 -227 -152 -392q-171 -182 -450 -184q-350 0 -510 242q-94 144 -94 334q0 167 164 405q99 143 110 172q6 17 6 29q-4 44 -88 45z" />
    <glyph glyph-name="uni01B2" unicode="&#x1b2;" horiz-adv-x="1333" 
d="M182 451v725q0 81 -85 89q-13 1 -25 1h-56q-14 4 -16 16v39l4 2q2 0 258 -2l264 2l4 -2v-39q-4 -14 -16 -16h-53q-111 -3 -113 -90v-666q0 -293 104 -392q75 -68 203 -69q209 0 349 178q146 188 147 496q0 277 -72 437q-56 118 -141 120q-58 -3 -68 -49q-9 -72 -63 -84
q-9 -2 -16 -2q-52 0 -65 46q-3 11 -3 21q0 100 150 129q36 6 67 7q219 0 284 -324q23 -117 23 -262q0 -558 -335 -727q-119 -59 -257 -60q-332 0 -428 220q-45 104 -45 256z" />
    <glyph glyph-name="uni01B3" unicode="&#x1b3;" horiz-adv-x="1312" 
d="M473 891q-167 290 -230 352q-37 34 -65 35q-47 0 -56 -33q-1 -6 -1 -10q0 -7 2 -21q2 -20 2 -30q-4 -71 -62 -74q-52 0 -62 54q-1 8 -1 14q0 65 78 121q71 49 160 51q119 0 258 -190q59 -80 135 -206l151 -256l260 482q22 39 23 57q0 25 -30 28q-10 1 -21 1h-62
q-11 3 -12 14v41l4 2q1 0 189 -2l178 2l4 -2v-41q-4 -13 -21 -14h-43q-69 0 -108 -61q-9 -14 -17 -29l-305 -576v-455q0 -80 85 -88l28 -2h53q16 -3 19 -16v-39l-5 -4q-2 0 -258 4l-264 -4l-4 4v39q4 14 17 16h53q111 3 112 90v430z" />
    <glyph glyph-name="uni01B4" unicode="&#x1b4;" horiz-adv-x="1282" 
d="M856 684l-295 -674q-36 -86 -67 -162q-85 -204 -155 -267q-58 -51 -126 -52q-72 0 -105 49q-13 22 -14 47q13 70 78 80q42 -2 64 -29q36 -34 55 -34q31 3 153 301q16 34 17 63q-1 31 -35 117l-258 600q-34 80 -74 94q-21 6 -51 6q-18 2 -20 15v41l4 4q3 0 151 -4l244 4
l4 -6v-37q-3 -14 -23 -17q-86 -2 -88 -45q1 -21 13 -47l225 -528l227 520q157 355 292 407q29 10 56 11q144 -2 146 -97q0 -50 -49 -72q-16 -7 -31 -7q-55 1 -84 28q-13 14 -49 15q-23 0 -49.5 -29t-57 -86t-49 -97t-49.5 -112z" />
    <glyph glyph-name="uni01B5" unicode="&#x1b5;" horiz-adv-x="1273" 
d="M383 111q119 0 313.5 10t329.5 21l135 12l4 -7q-4 -33 -4 -67q0 -25 4 -80l-4 -6q-52 6 -145 6h-744l-178 -6l-6 8q14 18 36 51q12 18 17 25l378 553h-304v69h351l331 486q12 22 -6 24q-140 0 -563 -32q-90 -7 -164 -11l-4 7q4 33 4 67q0 25 -4 80l4 6q50 -6 125 -6h622
q162 0 258 12q11 -4 13 -12q-2 -28 -62 -111l-349 -510h310v-69h-357l-331 -484q-10 -16 -10 -36z" />
    <glyph glyph-name="uni01B6" unicode="&#x1b6;" horiz-adv-x="851" 
d="M278 102q249 1 513 23l4 -6q-4 -33 -4 -64q0 -7 4 -55l-4 -6q-47 6 -115 6h-463l-166 -6l-6 9q14 16 45 63l233 344h-178v69h225l201 297q-38 -1 -78 -2t-75.5 -2.5t-72 -3t-65.5 -3t-58 -3.5t-48.5 -3.5t-37.5 -2.5t-23.5 -1.5t-8.5 -0.5l-4 6q4 33 4 63q0 7 -4 56l4 6
q47 -6 115 -6h418q42 0 137 10q24 3 28 2q10 -4 11 -12q-17 -20 -61 -86l-213 -314h170v-69h-218z" />
    <glyph glyph-name="uni01B7" unicode="&#x1b7;" horiz-adv-x="1245" 
d="M342 1321h727q56 -2 57 -29q-1 -34 -30 -84l-344 -618q270 -54 364 -281q39 -95 39 -205q0 -213 -174 -373q-180 -163 -424 -163q-178 0 -334 67q-135 61 -137 140q0 91 74 101q9 1 16 1q86 0 133 -62q4 -6 6 -10q98 -149 259 -161q12 -1 22 0q130 0 253 145
q123 147 124 297q0 269 -195 384q-89 52 -182 52q-56 0 -84 -6l401 723h-510q-136 -2 -196 -165q-18 -50 -23 -97l-53 4l43 385q18 -4 61 -19q76 -26 107 -26z" />
    <glyph glyph-name="uni01B8" unicode="&#x1b8;" horiz-adv-x="1245" 
d="M907 1321q25 0 136 35q21 7 34 10l43 -385l-53 -6q-12 131 -90 209q-56 53 -129 55h-510l399 -723q-31 6 -84 6q-141 0 -250 -105q-124 -122 -124 -331q0 -150 122 -297q123 -144 254 -145q163 0 269 144q7 9 12 17q53 64 137 72q84 -14 92 -102q0 -104 -215 -168
q-133 -39 -256 -39q-250 0 -430 169q-169 159 -170 367q0 253 185 391q94 69 221 95l-342 618q-32 57 -33 84q4 28 55 29h727z" />
    <glyph glyph-name="uni01B9" unicode="&#x1b9;" horiz-adv-x="917" 
d="M649 879q41 4 43 36l45 9l66 -312l-55 -10q-38 179 -133 195q-13 2 -27 2h-291l321 -582q-64 14 -120 14q-146 0 -235 -116q-61 -82 -62 -187q0 -204 152 -297q66 -40 128 -41q109 0 161 86q3 5 5 9q38 57 107 57q57 -3 59 -64q0 -59 -101 -105q-93 -42 -212 -42
q-250 0 -378 172q-75 103 -75 227q0 252 209 343q72 30 162 38l-268 482q-20 44 -21 59q4 26 49 27h471z" />
    <glyph glyph-name="uni01BA" unicode="&#x1ba;" horiz-adv-x="917" 
d="M532 444q198 -9 265 -170q26 -64 26 -143q0 -202 -177 -280q-27 -12 -77 -29q-57 -20 -75 -31q-79 -51 -80 -100q0 -17 8 -44q6 -22 6 -32q0 -59 -53 -83q-13 -5 -23 -5q-54 0 -70 49q-4 13 -3 27q0 107 109 192q32 24 83 58q8 6 87 36q73 29 93 109q12 48 13 117
q0 229 -160 258q-23 4 -45 4q-21 0 -144 -29l314 445h-365q-75 0 -98 -34q-20 -31 -35 -112l-41 4l33 252q19 -3 67 -19q18 -5 46 -5h536q27 -2 29 -17q-2 -36 -25 -69z" />
    <glyph glyph-name="uni01BB" unicode="&#x1bb;" horiz-adv-x="897" 
d="M739 580v-70h-127q-112 -143 -286 -311q-35 -35 -36 -56q1 -6 3 -10q59 4 167 4q192 0 375 17q-10 -43 -10 -97q0 -25 6 -67q-244 10 -356 10q-16 0 -388 -10q-20 35 -20 80q1 15 3 26q213 202 245 235q92 95 159 179h-259v70h312q15 21 25 36q77 118 78 275
q0 134 -104 205q-54 36 -112 37q-99 -1 -158 -48q-42 -34 -76 -113q-9 -21 -14 -32l-27 2l-45 141q88 116 242 153q54 13 111 13q230 0 319 -162q40 -75 40 -168q-1 -146 -141 -339h74z" />
    <glyph glyph-name="uni01BC" unicode="&#x1bc;" horiz-adv-x="878" 
d="M625 369q0 160 -139 257q-84 57 -169 58q-98 -1 -157 -22l45 389l-160 110h664l-17 -119v-4h-401l-33 -264l104 4q241 0 350 -177q55 -92 56 -200q0 -251 -177 -364q-96 -61 -216 -62q-124 0 -219 64q-56 40 -58 82q0 48 48 62q12 3 22 3q52 -2 84 -57q47 -82 117 -84
q154 0 221 148q35 78 35 176z" />
    <glyph glyph-name="uni01BD" unicode="&#x1bd;" horiz-adv-x="878" 
d="M608 283q0 118 -86 203q-64 61 -141 63q-149 0 -246 -29l70 246l-121 113h625l-17 -119v-4h-401l-35 -127q143 10 178 10q177 0 268 -148q49 -82 50 -176q0 -184 -130 -277q-90 -62 -225 -63q-125 0 -230 62q-67 41 -69 84q0 48 48 62q12 3 22 3q48 -2 82 -61
q37 -67 119 -78q12 -1 22 -2q162 0 205 142q12 44 12 96z" />
    <glyph glyph-name="uni01BE" unicode="&#x1be;" horiz-adv-x="753" 
d="M152 799h-103q-7 4 -8 8v63q3 7 6 9q110 2 135 111q11 49 11 126v39l116 41v-317h226q14 -3 16 -13v-41q-2 -25 -47 -26h-201v-99q0 -88 66 -129q30 -18 73 -34q183 -68 231 -174q23 -55 23 -125q0 -165 -186 -235q-76 -28 -143 -28q-118 0 -199 23q-30 4 -39 4
q-21 -1 -47 -6l-14 291l55 2q5 -116 64 -186q6 -6 10 -11q38 -42 124 -56q21 -3 41 -3q84 0 149 61q45 44 46 96q0 91 -30 130q-38 47 -134 88q-148 66 -191 112q-50 58 -50 150v129z" />
    <glyph glyph-name="uni01BF" unicode="&#x1bf;" horiz-adv-x="1064" 
d="M625 811q-93 0 -243 -113q-31 -24 -67 -53v-749q510 291 510 618q0 274 -168 295q-16 2 -32 2zM162 657q0 115 -37 126q-5 1 -8 1l-88 9l-4 49q198 31 282 63q7 -3 8 -6l-6 -182h6q202 181 361 182q276 0 314 -240q5 -35 5 -71q0 -308 -384 -584q-125 -89 -296 -182v-217
l-272 -74l-8 51q0 15 10 19l35 10q77 39 82 123v923z" />
    <glyph glyph-name="uni01C0" unicode="&#x1c0;" horiz-adv-x="378" 
d="M229 -20h-79v1450h79v-1450z" />
    <glyph glyph-name="uni01C1" unicode="&#x1c1;" horiz-adv-x="587" 
d="M438 -20h-80v1450h80v-1450zM229 -20h-79v1450h79v-1450z" />
    <glyph glyph-name="uni01C2" unicode="&#x1c2;" horiz-adv-x="679" 
d="M596 662v-70h-238v-612h-79v612h-228v70h228v147h-228v70h228v551h79v-551h238v-70h-238v-147h238z" />
    <glyph glyph-name="uni01C3" unicode="&#x1c3;" horiz-adv-x="466" 
d="M231 1348q71 0 102 -75q13 -34 13 -75q0 -71 -33 -261q-13 -73 -20 -134q-8 -64 -32 -360q-1 -9 -1 -13q-6 -39 -29 -41q-24 3 -28 27q-1 14 -6 77q-14 201 -25 310q-8 77 -28 185q-23 129 -23 210q0 116 81 144q15 6 29 6zM117 90v8q30 77 110 111h9q84 -33 110 -111v-8
q-27 -86 -101 -108q-6 -2 -9 -2h-9q-76 17 -100 79q-6 15 -10 31z" />
    <glyph glyph-name="uni01C4" unicode="&#x1c4;" horiz-adv-x="2592" 
d="M389 168q0 -52 39 -67q45 -15 184 -15q325 0 442 167q82 120 83 329q0 363 -204 535q-144 120 -372 120q-142 0 -165 -49q-6 -16 -7 -33v-987zM301 1321q66 0 169 3q105 3 169 3q288 0 495 -199q203 -195 213 -471q0 -14 1 -26q0 -422 -341 -571q-149 -64 -331 -64
q-115 0 -226 2q-85 2 -149 2l-106 -6l-2 6q20 140 20 410v501q0 264 -20 410l4 6q4 0 104 -6zM1931 1427q-76 92 -207 195l33 41q124 -55 217 -125q117 82 219 125l31 -41q-102 -79 -205 -195h-88zM1741 111q119 0 313.5 10t329.5 21l135 12l4 -7q-4 -33 -4 -67q0 -25 4 -80
l-4 -6q-52 6 -145 6h-744l-178 -6l-6 8q14 18 36 51q12 18 17 25l756 1108q12 22 -6 24q-140 0 -563 -32q-90 -7 -164 -11l-4 7q4 33 4 67q0 25 -4 80l4 6q50 -6 125 -6h622q162 0 258 12q11 -4 13 -12q-2 -28 -62 -111l-727 -1063q-10 -16 -10 -36z" />
    <glyph glyph-name="uni01C5" unicode="&#x1c5;" horiz-adv-x="2193" 
d="M389 168q0 -52 39 -67q45 -15 184 -15q325 0 442 167q82 120 83 329q0 363 -204 535q-144 120 -372 120q-142 0 -165 -49q-6 -16 -7 -33v-987zM301 1321q66 0 169 3q105 3 169 3q288 0 495 -199q203 -195 213 -471q0 -14 1 -26q0 -422 -341 -571q-149 -64 -331 -64
q-115 0 -226 2q-85 2 -149 2l-106 -6l-2 6q20 140 20 410v501q0 264 -20 410l4 6q4 0 104 -6zM1737 1026q-79 127 -207 266l41 27q145 -109 217 -184q79 81 221 184l39 -27q-138 -155 -209 -266h-102zM1630 102q111 1 239 6.5t200 11.5l73 5l4 -6q-4 -33 -4 -64q0 -7 4 -55
l-4 -6q-47 6 -114 6h-463l-166 -6l-6 9q14 16 45 63l481 710q-104 -1 -221 -7t-181 -11l-65 -4l-4 6q4 33 4 63q0 7 -4 56l4 6q47 -6 115 -6h418q42 0 137 10q24 3 28 2q10 -4 11 -12q-17 -20 -62 -86z" />
    <glyph glyph-name="uni01C6" unicode="&#x1c6;" horiz-adv-x="1837" 
d="M739 231v467q-64 101 -149 116q-22 3 -45 3q-155 0 -222 -146q-40 -88 -40 -218q0 -281 134 -350q34 -16 70 -17q134 0 247 139q3 4 5 6zM739 119q-109 -138 -264 -139q-187 0 -294 170q-76 124 -77 286q0 244 176 374q122 88 287 89q82 0 164 -40q6 -3 8 -5v133
q0 293 -18 395l4 7q94 8 178 41q17 -4 19 -21q-18 -229 -19 -385v-631q0 -206 35 -393l-4 -6q-41 6 -91 6q-26 0 -71 -6q-18 0 -18 6l-11 119h-4zM1380 1026q-79 127 -206 266l40 27q145 -109 218 -184q79 81 221 184l39 -27q-138 -155 -209 -266h-103zM1274 102
q111 1 238.5 6.5t200.5 11.5l73 5l4 -6q-4 -33 -4 -64q0 -7 4 -55l-4 -6q-47 6 -115 6h-463l-166 -6l-6 9q14 16 45 63l482 710q-104 -1 -221 -7t-182 -11l-64 -4l-4 6q4 33 4 63q0 7 -4 56l4 6q47 -6 114 -6h418q42 0 137 10q24 3 28 2q10 -4 11 -12q-17 -20 -61 -86z" />
    <glyph glyph-name="uni01C7" unicode="&#x1c7;" horiz-adv-x="1572" 
d="M391 911v-501q0 -226 17 -285q123 0 267 11t227 23l83 11l4 -8q-4 -33 -4 -72q0 -34 4 -90l-4 -6q-50 6 -123 6h-559l-106 -6l-2 6q20 140 20 410v501q0 264 -20 410l4 6q37 -6 104 -6q69 0 107 6l2 -6q-21 -138 -21 -410zM1212 195v716q0 264 -20 410l4 6q37 -6 104 -6
q69 0 107 6l2 -6q-20 -137 -20 -410v-671q0 -209 -42 -301q-26 -56 -87 -136q-123 -155 -324 -155q-62 1 -92 18l-2 6q25 45 57 168l23 2q42 -70 118 -71q159 0 171 334q1 40 1 90z" />
    <glyph glyph-name="uni01C8" unicode="&#x1c8;" horiz-adv-x="1579" 
d="M391 911v-501q0 -226 17 -285q123 0 267 11t227 23l83 11l4 -8q-4 -33 -4 -72q0 -34 4 -90l-4 -6q-50 6 -123 6h-559l-106 -6l-2 6q20 140 20 410v501q0 264 -20 410l4 6q37 -6 104 -6q69 0 107 6l2 -6q-21 -138 -21 -410zM1196 1233q0 62 58 93q23 11 46 11q62 0 93 -58
q11 -23 12 -46q0 -62 -58 -93q-23 -11 -47 -12q-62 0 -92 59q-11 23 -12 46zM1384 524v-268q0 -341 -62 -473q-13 -26 -28 -49q-107 -164 -276 -166q-58 1 -88 18l-2 6q8 33 8 183l33 8q53 -90 123 -92q108 0 124 311q4 82 5 205v285q0 272 -19 397l4 6q88 -7 178 2
q17 -9 19 -20q-19 -176 -19 -353z" />
    <glyph glyph-name="uni01C9" unicode="&#x1c9;" horiz-adv-x="993" 
d="M610 1223q0 62 59 92q23 11 46 12q62 0 93 -58q11 -23 11 -46q0 -62 -58 -93q-23 -11 -46 -12q-62 0 -93 59q-11 23 -12 46zM799 514v-268q0 -341 -63 -473q-13 -26 -27 -49q-107 -164 -277 -166q-58 1 -88 18l-2 6q8 33 8 182l33 9q53 -90 123 -92q108 0 125 311
q4 82 4 205v284q0 272 -19 398l5 6q88 -7 178 2q17 -9 18 -21q-18 -175 -18 -352zM184 410v577q0 293 -18 395l4 7q94 8 178 41q17 -4 19 -21q-18 -250 -19 -385v-614q0 -275 19 -410l-5 -6q-37 6 -96 6t-96 -6l-4 6q18 134 18 410z" />
    <glyph glyph-name="uni01CA" unicode="&#x1ca;" horiz-adv-x="2084" 
d="M221 1321l4 6q10 0 86 -6l29 4l702 -909q82 -106 97 -113t20 19q3 15 4 43v546q0 264 -20 410l4 6q38 -6 72 -6q36 0 71 6l4 -6q-24 -330 -37 -1101q-2 -98 -4 -177q-6 -62 -39 -63q-52 2 -88 49l-714 903q-60 77 -71 66q-9 -13 -9 -99v-489q0 -264 20 -410l-4 -6
q-38 6 -72 6q-36 0 -71 -6l-4 6q44 441 27 1134q-3 102 -7 187zM1724 195v716q0 264 -20 410l4 6q37 -6 104 -6q69 0 107 6l2 -6q-20 -137 -20 -410v-671q0 -209 -42 -301q-26 -56 -87 -136q-123 -155 -324 -155q-62 1 -92 18l-2 6q25 45 57 168l23 2q42 -70 118 -71
q159 0 171 334q1 40 1 90z" />
    <glyph glyph-name="uni01CB" unicode="&#x1cb;" horiz-adv-x="1925" 
d="M221 1321l4 6q10 0 86 -6l29 4l702 -909q82 -106 97 -113t20 19q3 15 4 43v546q0 264 -20 410l4 6q38 -6 72 -6q36 0 71 6l4 -6q-24 -330 -37 -1101q-2 -98 -4 -177q-6 -62 -39 -63q-52 2 -88 49l-714 903q-60 77 -71 66q-9 -13 -9 -99v-489q0 -264 20 -410l-4 -6
q-38 6 -72 6q-36 0 -71 -6l-4 6q44 441 27 1134q-3 102 -7 187zM1542 1223q0 62 58 92q23 11 47 12q62 0 92 -58q11 -23 12 -46q0 -62 -58 -93q-23 -11 -46 -12q-62 0 -93 59q-11 23 -12 46zM1731 514v-268q0 -341 -63 -473q-13 -26 -28 -49q-107 -164 -276 -166
q-58 1 -88 18l-2 6q8 33 8 182l33 9q53 -90 123 -92q108 0 124 311q4 82 5 205v284q0 272 -19 398l4 6q88 -7 179 2q17 -9 18 -21q-18 -175 -18 -352z" />
    <glyph glyph-name="uni01CC" unicode="&#x1cc;" horiz-adv-x="1544" 
d="M942 369q0 -235 19 -369l-5 -6q-37 6 -96 6t-96 -6l-4 6q18 140 18 369v200q0 162 -70 194q-30 13 -77 13q-124 0 -251 -119q-25 -24 -46 -49v-239q0 -238 18 -369l-4 -6q-37 6 -96 6t-96 -6l-4 6q18 127 18 369v112q0 283 -18 398l4 6q90 -9 166 6q11 0 12 -16v-5v-149
l4 -6q163 177 354 184q204 0 243 -197q11 -56 11 -127q0 -33 -2 -103q-2 -71 -2 -103zM1161 1223q0 62 59 92q23 11 46 12q62 0 92 -58q11 -23 12 -46q0 -62 -58 -93q-23 -11 -46 -12q-62 0 -93 59q-11 23 -12 46zM1350 514v-268q0 -341 -63 -473q-13 -26 -27 -49
q-107 -164 -277 -166q-58 1 -88 18l-2 6q8 33 8 182l33 9q53 -90 123 -92q108 0 124 311q4 82 5 205v284q0 272 -19 398l4 6q88 -7 179 2q17 -9 18 -21q-18 -175 -18 -352z" />
    <glyph glyph-name="uni01CD" unicode="&#x1cd;" horiz-adv-x="1288" 
d="M631 1427q-76 92 -207 195l33 41q124 -55 217 -125q117 82 219 125l31 -41q-102 -79 -205 -195h-88zM834 564q-95 247 -207 505h-4l-216 -504q27 0 89 -2q89 -2 125 -2q88 0 213 3zM367 468q-125 -308 -170 -474q-26 6 -93 6q-48 -1 -71 -6q349 764 604 1354h57
q72 -172 239 -584q259 -642 322 -770q-37 6 -122 6q-68 0 -103 -6q-51 183 -159 474q-146 3 -240 3q-117 0 -264 -3z" />
    <glyph glyph-name="uni01CE" unicode="&#x1ce;" horiz-adv-x="985" 
d="M387 1030q-79 127 -207 266l41 27q145 -109 217 -184q79 81 221 184l39 -27q-138 -155 -209 -266h-102zM635 461l-174 -47q-178 -48 -199 -163q-3 -21 -4 -42q0 -71 73 -108q37 -17 79 -17q83 1 188 80q28 24 29 53zM635 98h-8q-116 -98 -203 -113q-34 -5 -76 -5
q-207 0 -247 151q-8 33 -9 70q0 155 191 246q67 32 149 51l191 43q13 8 14 24q0 228 -164 241q-15 1 -33 1q-118 -3 -225 -174l-27 2l-34 137l6 8q143 118 301 119q335 -5 338 -332q0 -9 -2 -94q-4 -177 -4 -215q1 -128 34 -160q18 -15 60 -15q26 1 55 11l16 -51
q-61 -63 -163 -63q-124 2 -160 118z" />
    <glyph glyph-name="uni01CF" unicode="&#x1cf;" horiz-adv-x="602" 
d="M250 1427q-76 92 -207 195l33 41q124 -55 217 -125q117 82 219 125l31 -41q-102 -79 -205 -195h-88zM213 911q0 264 -20 410l4 6q37 -6 104 -6t105 6l4 -6q-20 -137 -21 -410v-501q0 -264 21 -410l-4 -6q-37 6 -105 6q-67 0 -104 -6l-4 6q20 140 20 410v501z" />
    <glyph glyph-name="uni01D0" unicode="&#x1d0;" horiz-adv-x="532" 
d="M238 1024q-79 127 -207 266l41 27q145 -109 217 -184q79 81 221 184l39 -27q-138 -155 -209 -266h-102zM184 481q0 272 -18 398l4 6q88 -7 178 2q17 -9 19 -21q-18 -175 -19 -352v-145q0 -224 19 -369l-5 -6q-37 6 -96 6t-96 -6l-4 6q18 140 18 369v112z" />
    <glyph glyph-name="uni01D1" unicode="&#x1d1;" horiz-adv-x="1517" 
d="M678 1427q-76 92 -207 195l33 41q124 -55 217 -125q117 82 219 125l31 -41q-102 -79 -205 -195h-88zM727 1257q-192 0 -306 -169q-103 -157 -104 -418q0 -331 199 -498q124 -102 281 -102q218 0 326 204q76 145 77 361q0 481 -296 593q-80 29 -177 29zM1411 674
q0 -336 -211 -531q-179 -162 -444 -163q-282 0 -468 187q-181 185 -182 468q0 309 195 516q187 196 453 197q293 0 480 -199q176 -190 177 -475z" />
    <glyph glyph-name="uni01D2" unicode="&#x1d2;" horiz-adv-x="1024" 
d="M459 1028q-79 127 -207 266l41 27q145 -109 217 -184q79 81 221 184l39 -27q-138 -155 -209 -266h-102zM78 420q0 274 181 402q110 76 261 77q276 0 378 -220q47 -104 48 -241q0 -254 -171 -379q-110 -79 -263 -79q-240 0 -360 179q-73 113 -74 261zM506 817
q-201 0 -240 -252q-8 -53 -8 -110q0 -222 107 -329q66 -65 165 -65q125 0 193 138q42 89 43 202q0 279 -97 364q-62 51 -163 52z" />
    <glyph glyph-name="uni01D3" unicode="&#x1d3;" horiz-adv-x="1417" 
d="M668 1427q-76 92 -207 195l33 41q124 -55 217 -125q117 82 219 125l31 -41q-102 -79 -205 -195h-88zM1114 911q0 264 -20 410l4 6q38 -6 71 -6q36 0 72 6l4 -6q-20 -137 -20 -410v-307q0 -435 -243 -563q-118 -61 -292 -61q-242 0 -371 156q-105 130 -106 347v428
q0 264 -20 410l4 6q37 -6 104 -6t105 6l4 -6q-20 -137 -21 -410v-360q5 -454 344 -457q300 0 361 257q20 84 20 216v344z" />
    <glyph glyph-name="uni01D4" unicode="&#x1d4;" horiz-adv-x="1099" 
d="M485 1028q-79 127 -206 266l40 27q145 -109 218 -184q79 81 221 184l39 -27q-138 -155 -209 -266h-103zM748 188q-103 -159 -241 -198q-36 -10 -69 -10q-209 0 -257 188q-11 46 -11 96v246q0 238 -18 369l4 6q37 -6 96 -6t96 6l4 -6q-18 -124 -18 -369v-203
q0 -190 99 -210q17 -3 38 -3q108 0 225 138q32 39 56 77v201q0 234 -19 369l4 6q37 -6 97 -6q59 0 96 6l4 -6q-18 -124 -19 -369v-117q0 -206 35 -393l-4 -6q-41 6 -91 6q-26 0 -71 -6q-18 0 -18 6l-10 182z" />
    <glyph glyph-name="uni01D5" unicode="&#x1d5;" horiz-adv-x="1417" 
d="M492 1452q0 62 56 85q17 7 36 7q62 0 85 -57q7 -18 7 -35q0 -62 -57 -85q-17 -7 -35 -7q-62 0 -86 57q-6 18 -6 35zM848 1452q0 62 57 85q17 7 35 7q62 0 85 -57q7 -18 7 -35q0 -62 -57 -85q-17 -7 -35 -7q-62 0 -85 57q-7 18 -7 35zM1114 911q0 264 -20 410l4 6
q38 -6 71 -6q36 0 72 6l4 -6q-20 -137 -20 -410v-307q0 -435 -243 -563q-118 -61 -292 -61q-242 0 -371 156q-105 130 -106 347v428q0 264 -20 410l4 6q37 -6 104 -6t105 6l4 -6q-20 -137 -21 -410v-360q5 -454 344 -457q300 0 361 257q20 84 20 216v344zM934 1548h-500
q-25 3 -26 31q0 35 29 54q9 5 16 5h501q26 -3 29 -28q0 -37 -31 -56q-10 -5 -18 -6z" />
    <glyph glyph-name="uni01D6" unicode="&#x1d6;" horiz-adv-x="1099" 
d="M780 1337h-499q-25 3 -27 31q0 35 29 54q9 5 16 5h502q26 -3 28 -28q0 -37 -31 -56q-10 -5 -18 -6zM270 1176q0 62 56 89q20 9 41 9q61 0 87 -58q8 -21 9 -40q0 -63 -58 -89q-19 -7 -38 -8q-63 0 -89 58q-8 20 -8 39zM616 1176q0 62 56 89q20 9 41 9q61 0 87 -58
q8 -21 9 -40q0 -63 -58 -89q-19 -7 -38 -8q-63 0 -89 58q-8 20 -8 39zM748 188q-103 -159 -241 -198q-36 -10 -69 -10q-209 0 -257 188q-11 46 -11 96v246q0 238 -18 369l4 6q37 -6 96 -6t96 6l4 -6q-18 -124 -18 -369v-203q0 -190 99 -210q17 -3 38 -3q108 0 225 138
q32 39 56 77v201q0 234 -19 369l4 6q37 -6 97 -6q59 0 96 6l4 -6q-18 -124 -19 -369v-117q0 -206 35 -393l-4 -6q-41 6 -91 6q-26 0 -71 -6q-18 0 -18 6l-10 182z" />
    <glyph glyph-name="uni01D7" unicode="&#x1d7;" horiz-adv-x="1417" 
d="M889 1741q68 -37 98 -94l-227 -105q-44 -22 -67 -21q-21 3 -23 27q3 21 23 38zM492 1452q0 62 56 85q17 7 36 7q62 0 85 -57q7 -18 7 -35q0 -62 -57 -85q-17 -7 -35 -7q-62 0 -86 57q-6 18 -6 35zM848 1452q0 62 57 85q17 7 35 7q62 0 85 -57q7 -18 7 -35q0 -62 -57 -85
q-17 -7 -35 -7q-62 0 -85 57q-7 18 -7 35zM1114 911q0 264 -20 410l4 6q38 -6 71 -6q36 0 72 6l4 -6q-20 -137 -20 -410v-307q0 -435 -243 -563q-118 -61 -292 -61q-242 0 -371 156q-105 130 -106 347v428q0 264 -20 410l4 6q37 -6 104 -6t105 6l4 -6q-20 -137 -21 -410
v-360q5 -454 344 -457q300 0 361 257q20 84 20 216v344z" />
    <glyph glyph-name="uni01D8" unicode="&#x1d8;" horiz-adv-x="1099" 
d="M660 1530q11 3 23 4q51 -3 90 -42l5 -21l-188 -201q-32 -34 -49 -35q-20 3 -23 24q2 21 19 52zM270 1176q0 62 56 89q20 9 41 9q61 0 87 -58q8 -21 9 -40q0 -63 -58 -89q-19 -7 -38 -8q-63 0 -89 58q-8 20 -8 39zM616 1176q0 62 56 89q20 9 41 9q61 0 87 -58q8 -21 9 -40
q0 -63 -58 -89q-19 -7 -38 -8q-63 0 -89 58q-8 20 -8 39zM748 188q-103 -159 -241 -198q-36 -10 -69 -10q-209 0 -257 188q-11 46 -11 96v246q0 238 -18 369l4 6q37 -6 96 -6t96 6l4 -6q-18 -124 -18 -369v-203q0 -190 99 -210q17 -3 38 -3q108 0 225 138q32 39 56 77v201
q0 234 -19 369l4 6q37 -6 97 -6q59 0 96 6l4 -6q-18 -124 -19 -369v-117q0 -206 35 -393l-4 -6q-41 6 -91 6q-26 0 -71 -6q-18 0 -18 6l-10 182z" />
    <glyph glyph-name="uni01D9" unicode="&#x1d9;" horiz-adv-x="1417" 
d="M492 1452q0 62 56 85q17 7 36 7q62 0 85 -57q7 -18 7 -35q0 -62 -57 -85q-17 -7 -35 -7q-62 0 -86 57q-6 18 -6 35zM848 1452q0 62 57 85q17 7 35 7q62 0 85 -57q7 -18 7 -35q0 -62 -57 -85q-17 -7 -35 -7q-62 0 -85 57q-7 18 -7 35zM1114 911q0 264 -20 410l4 6
q38 -6 71 -6q36 0 72 6l4 -6q-20 -137 -20 -410v-307q0 -435 -243 -563q-118 -61 -292 -61q-242 0 -371 156q-105 130 -106 347v428q0 264 -20 410l4 6q37 -6 104 -6t105 6l4 -6q-20 -137 -21 -410v-360q5 -454 344 -457q300 0 361 257q20 84 20 216v344zM660 1510
q-58 81 -159 171l25 36q96 -49 167 -110q90 72 169 110l23 -36q-79 -69 -157 -171h-68z" />
    <glyph glyph-name="uni01DA" unicode="&#x1da;" horiz-adv-x="1099" 
d="M492 1319q-63 115 -166 240l33 24q116 -98 174 -166q64 73 177 166l31 -24q-111 -139 -167 -240h-82zM270 1176q0 62 56 89q20 9 41 9q61 0 87 -58q8 -21 9 -40q0 -63 -58 -89q-19 -7 -38 -8q-63 0 -89 58q-8 20 -8 39zM616 1176q0 62 56 89q20 9 41 9q61 0 87 -58
q8 -21 9 -40q0 -63 -58 -89q-19 -7 -38 -8q-63 0 -89 58q-8 20 -8 39zM748 188q-103 -159 -241 -198q-36 -10 -69 -10q-209 0 -257 188q-11 46 -11 96v246q0 238 -18 369l4 6q37 -6 96 -6t96 6l4 -6q-18 -124 -18 -369v-203q0 -190 99 -210q17 -3 38 -3q108 0 225 138
q32 39 56 77v201q0 234 -19 369l4 6q37 -6 97 -6q59 0 96 6l4 -6q-18 -124 -19 -369v-117q0 -206 35 -393l-4 -6q-41 6 -91 6q-26 0 -71 -6q-18 0 -18 6l-10 182z" />
    <glyph glyph-name="uni01DB" unicode="&#x1db;" horiz-adv-x="1417" 
d="M543 1739l190 -151q23 -21 24 -38q-3 -24 -24 -27q-26 1 -67 21l-243 114q50 53 120 81zM492 1452q0 62 56 85q17 7 36 7q62 0 85 -57q7 -18 7 -35q0 -62 -57 -85q-17 -7 -35 -7q-62 0 -86 57q-6 18 -6 35zM848 1452q0 62 57 85q17 7 35 7q62 0 85 -57q7 -18 7 -35
q0 -62 -57 -85q-17 -7 -35 -7q-62 0 -85 57q-7 18 -7 35zM1114 911q0 264 -20 410l4 6q38 -6 71 -6q36 0 72 6l4 -6q-20 -137 -20 -410v-307q0 -435 -243 -563q-118 -61 -292 -61q-242 0 -371 156q-105 130 -106 347v428q0 264 -20 410l4 6q37 -6 104 -6t105 6l4 -6
q-20 -137 -21 -410v-360q5 -454 344 -457q300 0 361 257q20 84 20 216v344z" />
    <glyph glyph-name="uni01DC" unicode="&#x1dc;" horiz-adv-x="1099" 
d="M439 1557l114 -232q10 -23 10 -45q0 -14 -18 -19q-4 -1 -6 -1q-16 3 -48 37l-187 201l4 20q52 41 106 43q13 -1 25 -4zM270 1176q0 62 56 89q20 9 41 9q61 0 87 -58q8 -21 9 -40q0 -63 -58 -89q-19 -7 -38 -8q-63 0 -89 58q-8 20 -8 39zM616 1176q0 62 56 89q20 9 41 9
q61 0 87 -58q8 -21 9 -40q0 -63 -58 -89q-19 -7 -38 -8q-63 0 -89 58q-8 20 -8 39zM748 188q-103 -159 -241 -198q-36 -10 -69 -10q-209 0 -257 188q-11 46 -11 96v246q0 238 -18 369l4 6q37 -6 96 -6t96 6l4 -6q-18 -124 -18 -369v-203q0 -190 99 -210q17 -3 38 -3
q108 0 225 138q32 39 56 77v201q0 234 -19 369l4 6q37 -6 97 -6q59 0 96 6l4 -6q-18 -124 -19 -369v-117q0 -206 35 -393l-4 -6q-41 6 -91 6q-26 0 -71 -6q-18 0 -18 6l-10 182z" />
    <glyph glyph-name="uni01DD" unicode="&#x1dd;" horiz-adv-x="927" 
d="M621 319h-377q-27 -4 -29 -28q0 -148 102 -209q35 -21 70 -21q73 0 142 68q72 71 92 190zM74 666l-41 51q108 148 289 177q35 5 67 5q213 -2 326 -135q92 -112 92 -313q0 -244 -174 -382q-114 -89 -246 -89q-244 0 -325 215q-29 80 -29 172q4 33 37 34h557
q-1 182 -49 261q-77 114 -224 116q-176 -1 -280 -112z" />
    <glyph glyph-name="uni01DE" unicode="&#x1de;" horiz-adv-x="1288" 
d="M293 1452q0 60 56 84q18 8 38 8q62 0 85 -57q7 -18 7 -35q0 -62 -57 -85q-18 -7 -35 -7q-61 0 -86 55q-8 19 -8 37zM856 1452q0 60 56 84q18 8 38 8q62 0 86 -57q7 -18 6 -35q0 -62 -56 -85q-17 -7 -36 -7q-61 0 -86 55q-8 19 -8 37zM834 564q-95 247 -207 505h-4
l-216 -504q27 0 89 -2q89 -2 125 -2q88 0 213 3zM367 468q-125 -308 -170 -474q-26 6 -93 6q-48 -1 -71 -6q349 764 604 1354h57q72 -172 239 -584q259 -642 322 -770q-37 6 -122 6q-68 0 -103 -6q-51 183 -159 474q-146 3 -240 3q-117 0 -264 -3zM909 1556h-499
q-25 3 -27 31q0 35 29 54q9 5 16 6h502q26 -3 28 -29q0 -37 -31 -56q-10 -5 -18 -6z" />
    <glyph glyph-name="uni01DF" unicode="&#x1df;" horiz-adv-x="985" 
d="M678 1339h-500q-25 3 -26 31q0 35 29 54q9 5 16 6h501q26 -3 29 -29q0 -37 -31 -56q-10 -5 -18 -6zM170 1176q0 62 56 89q20 9 40 9q61 0 88 -58q8 -21 8 -40q0 -63 -58 -89q-19 -7 -38 -8q-63 0 -88 58q-8 20 -8 39zM516 1176q0 62 56 89q20 9 40 9q61 0 88 -58
q8 -21 9 -40q0 -63 -58 -89q-19 -7 -39 -8q-63 0 -88 58q-8 20 -8 39zM635 461l-174 -47q-178 -48 -199 -163q-3 -21 -4 -42q0 -71 73 -108q37 -17 79 -17q83 1 188 80q28 24 29 53zM635 98h-8q-116 -98 -203 -113q-34 -5 -76 -5q-207 0 -247 151q-8 33 -9 70q0 155 191 246
q67 32 149 51l191 43q13 8 14 24q0 228 -164 241q-15 1 -33 1q-118 -3 -225 -174l-27 2l-34 137l6 8q143 118 301 119q335 -5 338 -332q0 -9 -2 -94q-4 -177 -4 -215q1 -128 34 -160q18 -15 60 -15q26 1 55 11l16 -51q-61 -63 -163 -63q-124 2 -160 118z" />
    <glyph glyph-name="uni01E0" unicode="&#x1e0;" horiz-adv-x="1288" 
d="M846 1591h172q27 -3 29 -30q0 -35 -30 -54q-10 -5 -18 -6h-170zM504 1501h-174q-23 3 -25 31q0 34 28 54q9 5 17 5h172zM834 564q-95 247 -207 505h-4l-216 -504q27 0 89 -2q89 -2 125 -2q88 0 213 3zM367 468q-125 -308 -170 -474q-26 6 -93 6q-48 -1 -71 -6
q349 764 604 1354h57q72 -172 239 -584q259 -642 322 -770q-37 6 -122 6q-68 0 -103 -6q-51 183 -159 474q-146 3 -240 3q-117 0 -264 -3zM565 1599q0 65 60 96q23 11 47 11q65 0 95 -60q11 -23 11 -47q0 -65 -60 -95q-23 -11 -46 -11q-65 0 -95 60q-11 23 -12 46z" />
    <glyph glyph-name="uni01E1" unicode="&#x1e1;" horiz-adv-x="985" 
d="M680 1337h-500q-25 3 -26 31q0 35 29 54q9 5 16 5h501q26 -3 29 -28q0 -37 -31 -56q-10 -5 -18 -6zM635 461l-174 -47q-178 -48 -199 -163q-3 -21 -4 -42q0 -71 73 -108q37 -17 79 -17q83 1 188 80q28 24 29 53zM635 98h-8q-116 -98 -203 -113q-34 -5 -76 -5
q-207 0 -247 151q-8 33 -9 70q0 155 191 246q67 32 149 51l191 43q13 8 14 24q0 228 -164 241q-15 1 -33 1q-118 -3 -225 -174l-27 2l-34 137l6 8q143 118 301 119q335 -5 338 -332q0 -9 -2 -94q-4 -177 -4 -215q1 -128 34 -160q18 -15 60 -15q26 1 55 11l16 -51
q-61 -63 -163 -63q-124 2 -160 118zM338 1223q0 62 58 92q23 11 46 12q62 0 93 -58q11 -23 12 -46q0 -62 -59 -93q-23 -11 -46 -12q-62 0 -92 59q-11 23 -12 46z" />
    <glyph glyph-name="uni01E2" unicode="&#x1e2;" horiz-adv-x="1642" 
d="M1382 1501h-499q-25 3 -27 31q0 35 29 54q9 5 16 5h502q26 -3 29 -28q0 -37 -32 -56q-10 -5 -18 -6zM455 570q-164 -340 -254 -576q-26 6 -92 6q-48 -1 -72 -6q57 110 170 333q325 641 543 995l4 5q4 0 104 -6h436q74 0 123 6l4 -6q-4 -58 -4 -64q0 -22 4 -53l-4 -8
l-218 18q-80 4 -157 3q-144 0 -166 -36q-12 -22 -7 -64q41 -204 95 -435q225 1 459 20l7 -6q-6 -29 -7 -57q0 -30 7 -57l-7 -7q-172 17 -439 21q64 -272 121 -482l435 21l4 -8q-4 -33 -4 -68q0 -7 4 -59l-4 -6q-50 6 -123 6h-280h-3h-110q-68 0 -102 -6q-1 105 -91 578
q-68 1 -135 1q-99 0 -241 -3zM813 665q-34 179 -83 428h-4q-110 -194 -224 -426q173 -3 184 -3q49 0 127 1z" />
    <glyph glyph-name="uni01E3" unicode="&#x1e3;" horiz-adv-x="1406" 
d="M954 1102h-499q-25 3 -27 31q0 35 29 53q9 5 16 6h502q26 -3 29 -29q0 -37 -32 -56q-10 -4 -18 -5zM606 440q-357 -34 -358 -223q4 -133 145 -135q102 0 163 74q18 23 28 49q22 64 22 235zM768 528q74 4 186 5q141 1 170 21q26 22 27 73q0 79 -57 138q-42 41 -93 42
q-147 0 -207 -159q-20 -55 -26 -120zM414 807q-111 0 -212 -151q-11 -17 -20 -31l-26 2l-33 137l6 8q153 126 303 127q201 -3 281 -143q108 141 291 143q190 0 282 -155q37 -63 37 -111q-2 -102 -53 -148q-49 -27 -247 -30q-167 -3 -257 -9q0 -231 130 -319q56 -36 124 -37
q133 2 252 139l41 -57q-69 -128 -214 -175q-55 -17 -108 -17q-179 0 -280 123q-6 7 -15 18q-149 -140 -307 -141q-299 14 -309 227q0 184 254 267q116 37 272 48q-3 207 -85 259q-42 26 -107 26z" />
    <glyph glyph-name="uni01E4" unicode="&#x1e4;" horiz-adv-x="1468" 
d="M1296 416h99v-80h-100q0 -20 -1 -55v-13q1 -72 21 -98v-6q-222 -184 -545 -184q-316 0 -506 223q-157 188 -158 446q0 338 248 537q202 161 467 162q111 0 227.5 -22.5t178.5 -46.5l61 -24l4 -6q-33 -141 -41 -248l-20 -2q-114 193 -328 240q-55 12 -110 12
q-239 0 -372 -196q-103 -156 -104 -385q0 -266 141 -435q136 -160 359 -161q218 1 301 78v88q-1 49 -2 96h-301v80h299q-5 130 -16 213l4 6q4 0 104 -6l107 6l2 -6q-15 -104 -19 -213z" />
    <glyph glyph-name="uni01E5" unicode="&#x1e5;" horiz-adv-x="1021" 
d="M799 592q0 -183 -144 -266q-83 -47 -196 -47q-97 1 -152 28q-61 -54 -61 -114q0 -89 92 -96q13 -1 27 -1q6 0 59 4q78 10 170 11q209 -1 289 -68q85 -75 86 -203q0 -13 -2 -24h26v-76h-46q-71 -151 -328 -206q-99 -21 -201 -21q-202 0 -298 97q-52 55 -54 130h-68v76h82
q14 37 33 65q25 20 167 100q4 2 7 4q-137 24 -154 148q-2 15 -2 29q2 83 127 170q-144 86 -145 256q0 173 158 261q90 49 190 50q70 -1 125 -18q60 3 266 32q32 4 57 7l6 -7q-6 -29 -6 -53q0 -27 6 -53l-6 -6q-192 20 -213 21q102 -71 103 -230zM639 582q-3 237 -186 239
q-141 0 -173 -147q-7 -36 -8 -76q0 -207 145 -233q25 -4 52 -5q152 0 168 172q2 25 2 50zM210 -184h608q-12 84 -79 125q-72 34 -217 34q-11 0 -60 -2q-86 -4 -122 -4q-94 -51 -125 -137q-3 -9 -5 -16zM808 -260h-593q36 -96 194 -131q39 -8 66 -8q201 0 296 89q25 24 37 50
z" />
    </font>
</defs>
</svg>
