<svg xmlns="http://www.w3.org/2000/svg">
<defs>
<font id="ptsans" horiz-adv-x="545" >
  <font-face 
    font-family="PT Sans"
    font-weight="700"
    font-style="italic"
    font-stretch="normal"
    units-per-em="1000"
    panose-1="2 11 7 3 2 2 3 9 2 4"
    ascent="770"
    descent="-230"
    x-height="500"
    cap-height="700"
    bbox="-234 -273.002 1234 1006"
    underline-thickness="50"
    underline-position="-50"
    slope="-12"
    unicode-range="U+0020-FB02"
  />
<missing-glyph horiz-adv-x="750" 
d="M50 700h650v-700h-650v700zM570 620l-195 -217l-195 217l-50 -50l197 -220l-197 -220l50 -50l195 217l195 -217l50 50l-198 220l198 220zM129 27h8v12h4c4 0 7.66699 0.833008 11 2.5s5 4.83398 5 9.50098c0 5.33301 -1.83301 8.66602 -5.5 9.99902s-7.5 2 -11.5 2h-11
v-36zM141 57c5.33301 0 8.00098 -1.66797 8.00098 -5.00098s-0.833008 -5.16602 -2.5 -5.49902s-3.83398 -0.5 -6.50098 -0.5h-3v11h4zM189.001 62.999h-31v-6h12v-30h7v30h12v6zM222.001 36.999c0 -2.66699 -2.33301 -4.00098 -7 -4.00098s-7.66699 0.666992 -9 2l-3 -7
c1.33301 0 3 -0.333008 5 -1s4.66699 -1 8 -1c9.33301 0 14 4 14 12c0 6 -3 9.33301 -9 10s-9 2.66699 -9 6c0 2 2 3 6 3c3.33301 0 6.33301 -0.666992 9 -2l2 7c-4 1.33301 -7.66699 2 -11 2c-9.33301 0 -14 -3.66699 -14 -11c0 -3.33301 1 -5.66602 3 -6.99902
s4 -2.5 6 -3.5s4 -1.83301 6 -2.5s3 -1.66699 3 -3zM237.001 46.998c2.66699 1.33301 5.66699 2.00195 9 2.00195s5 -1.33301 5 -4v-2c-0.666992 0 -1.33398 0.166992 -2.00098 0.5s-1.66699 0.5 -3 0.5c-8 0 -12 -3.33301 -12 -10c0 -5.33301 2.66699 -8 8 -8
c4 0 7 1.66699 9 5l2 -4h6c-0.666992 1.33301 -1 3.66602 -1 6.99902v11c0 6.66699 -3.33301 10 -10 10c-2.66699 0 -5.16699 -0.333008 -7.5 -1s-4.16602 -1.33398 -5.49902 -2.00098zM245.001 32c-2.66699 0 -4.00098 1.33301 -4.00098 4s1.66699 4 5 4
c1.33301 0 2.33301 -0.166992 3 -0.5s1.33398 -0.5 2.00098 -0.5v-3c-1.33301 -2.66699 -3.33301 -4 -6 -4zM292 27v16c0 8 -3 12 -9 12c-4.66699 0 -8 -1.66699 -10 -5l-2 4h-5v-27h7v17c1.33301 2.66699 3.33301 4 6 4c3.33301 0 5 -2 5 -6v-15h8zM297 28

<glyph glyph-name="fi" unicode="fi" horiz-adv-x="526" 
d="M180 0c-5.33301 -34 -12.165 -64 -20.498 -90s-19.333 -47.667 -33 -65s-30.667 -30.5 -51 -39.5s-45.166 -13.5 -74.499 -13.5c-24 0 -47.5 1.83301 -70.5 5.5s-42.833 11.167 -59.5 22.5l34 91c11.333 -4.66699 22.666 -7.66699 33.999 -9s25.666 -2 42.999 -2
c21.333 0 37.833 8.33301 49.5 25s20.167 41.667 25.5 75l60 397h-66l21 103h65l6 28c13.333 63.333 38.666 109.5 75.999 138.5s85.333 43.5 144 43.5c44 0 82.167 -3.66699 114.5 -11s57.5 -17 75.5 -29l-50 -93c-14.667 9.33301 -33.5 16.833 -56.5 22.5
s-48.833 8.5 -77.5 8.5c-18.667 0 -34.167 -2.5 -46.5 -7.5s-22.5 -12.333 -30.5 -22s-14.5 -21.167 -19.5 -34.5s-9.16699 -28 -12.5 -44h253l-75 -500h-123l60 397h-135z" />
    <glyph glyph-name="fl" unicode="fl" horiz-adv-x="559" 
d="M118 397l-65.9951 -0.00195312l21 103h65l6 28c13.333 62.667 37.666 109.167 72.999 139.5s88 45.5 158 45.5c14.667 0 31.334 -0.666992 50.001 -2s37 -2.83301 55 -4.5s34.833 -3.5 50.5 -5.5s27.834 -4 36.501 -6l-90 -533
c-1.33301 -7.33301 -2.5 -13.833 -3.5 -19.5s-1.5 -11.167 -1.5 -16.5c0 -23.333 9 -35 27 -35c7.33301 0 14.833 0.666992 22.5 2s17.167 4 28.5 8l-4 -89c-6 -2.66699 -13.333 -5.5 -22 -8.5s-18.334 -5.66699 -29.001 -8s-21.834 -4.16602 -33.501 -5.49902
s-22.834 -2 -33.501 -2c-29.333 0 -51.666 5.66699 -66.999 17s-23 30.333 -23 57c0 12.667 1.33301 25.334 4 38.001l84 502c-7.33301 2 -18 3.83301 -32 5.5s-27.667 2.5 -41 2.5c-29.333 0 -50.333 -10.167 -63 -30.5s-22.334 -46.833 -29.001 -79.5h72l-20 -103h-72
l-61 -397c-4.66699 -34 -11.334 -64 -20.001 -90s-19.834 -47.667 -33.501 -65s-30.667 -30.5 -51 -39.5s-45.166 -13.5 -74.499 -13.5c-24 0 -47.5 1.83301 -70.5 5.5s-42.833 11.167 -59.5 22.5l34 91c11.333 -4.66699 22.666 -7.66699 33.999 -9s25.666 -2 42.999 -2
c21.333 0 37.833 8.33301 49.5 25s20.167 41.667 25.5 75z" />
    <glyph glyph-name=".notdef" horiz-adv-x="750" 
d="M50 700h650v-700h-650v700zM570 620l-195 -217l-195 217l-50 -50l197 -220l-197 -220l50 -50l195 217l195 -217l50 50l-198 220l198 220zM129 27h8v12h4c4 0 7.66699 0.833008 11 2.5s5 4.83398 5 9.50098c0 5.33301 -1.83301 8.66602 -5.5 9.99902s-7.5 2 -11.5 2h-11
v-36zM141 57c5.33301 0 8.00098 -1.66797 8.00098 -5.00098s-0.833008 -5.16602 -2.5 -5.49902s-3.83398 -0.5 -6.50098 -0.5h-3v11h4zM189.001 62.999h-31v-6h12v-30h7v30h12v6zM222.001 36.999c0 -2.66699 -2.33301 -4.00098 -7 -4.00098s-7.66699 0.666992 -9 2l-3 -7
c1.33301 0 3 -0.333008 5 -1s4.66699 -1 8 -1c9.33301 0 14 4 14 12c0 6 -3 9.33301 -9 10s-9 2.66699 -9 6c0 2 2 3 6 3c3.33301 0 6.33301 -0.666992 9 -2l2 7c-4 1.33301 -7.66699 2 -11 2c-9.33301 0 -14 -3.66699 -14 -11c0 -3.33301 1 -5.66602 3 -6.99902
s4 -2.5 6 -3.5s4 -1.83301 6 -2.5s3 -1.66699 3 -3zM237.001 46.998c2.66699 1.33301 5.66699 2.00195 9 2.00195s5 -1.33301 5 -4v-2c-0.666992 0 -1.33398 0.166992 -2.00098 0.5s-1.66699 0.5 -3 0.5c-8 0 -12 -3.33301 -12 -10c0 -5.33301 2.66699 -8 8 -8
c4 0 7 1.66699 9 5l2 -4h6c-0.666992 1.33301 -1 3.66602 -1 6.99902v11c0 6.66699 -3.33301 10 -10 10c-2.66699 0 -5.16699 -0.333008 -7.5 -1s-4.16602 -1.33398 -5.49902 -2.00098zM245.001 32c-2.66699 0 -4.00098 1.33301 -4.00098 4s1.66699 4 5 4
c1.33301 0 2.33301 -0.166992 3 -0.5s1.33398 -0.5 2.00098 -0.5v-3c-1.33301 -2.66699 -3.33301 -4 -6 -4zM292 27v16c0 8 -3 12 -9 12c-4.66699 0 -8 -1.66699 -10 -5l-2 4h-5v-27h7v17c1.33301 2.66699 3.33301 4 6 4c3.33301 0 5 -2 5 -6v-15h8zM297 28
c2.66699 -1.33301 5.99902 -2 9.99902 -2c7.33301 0 11 3 11 9c0 3.33301 -0.833008 5.33301 -2.5 6s-3.5 1.66699 -5.5 3c-3.33301 1.33301 -5 2.33301 -5 3c0 1.33301 1 2 3 2c2.66699 0 5.33398 -0.666992 8.00098 -2l2 6c-2.66699 1.33301 -6 2 -10 2
c-6.66699 0 -10 -3 -10 -9c0 -3.33301 1 -5.5 3 -6.5l5 -2.5c3.33301 0 5 -1 5 -3c0 -1.33301 -1 -2 -3 -2c-3.33301 0 -6.33301 0.666992 -9 2zM337.999 42c0 -14 6.66699 -21 20 -21s20 7 20 21c0 13.333 -6.66699 20 -20 20c-5.33301 0 -10 -1.83301 -14 -5.5
s-6 -8.5 -6 -14.5zM343.999 42c0 10 4.66699 15 14 15s14 -5 14 -15s-4.66699 -15 -14 -15s-14 5 -14 15zM363.999 38c-1.33301 -0.666992 -2.66602 -1 -3.99902 -1c-2.66699 0 -4 1.66699 -4 5c0 2.66699 1.33301 4 4 4h3l2 4c-2.66699 1.33301 -5 2 -7 2
c-6 0 -9 -3.33301 -9 -10c0 -7.33301 3 -11 9 -11c3.33301 0 5.66602 0.666992 6.99902 2zM398.999 27h8v12h4c4 0 7.66699 0.833008 11 2.5s5 4.83398 5 9.50098c0 5.33301 -1.83301 8.66602 -5.5 9.99902s-7.5 2 -11.5 2h-11v-36zM410.999 57
c5.33301 0 8.00098 -1.66797 8.00098 -5.00098s-0.833008 -5.16602 -2.5 -5.49902s-3.83398 -0.5 -6.50098 -0.5h-3v11h4zM432 46.999c2.66699 1.33301 5.66699 2.00195 9 2.00195s5 -1.33301 5 -4v-2c-0.666992 0 -1.33398 0.166992 -2.00098 0.5s-1.66699 0.5 -3 0.5
c-8.66699 0 -13 -3.33301 -13 -10c0 -5.33301 3 -8 9 -8c4 0 7 1.66699 9 5l2 -4h6c-0.666992 1.33301 -1 3.66602 -1 6.99902v11c0 6.66699 -3.33301 10 -10 10c-2.66699 0 -5.16699 -0.333008 -7.5 -1s-4.16602 -1.33398 -5.49902 -2.00098zM440 32.001
c-2.66699 0 -4.00098 1.33301 -4.00098 4s1.66699 4 5 4c1.33301 0 2.33301 -0.166992 3 -0.5s1.33398 -0.5 2.00098 -0.5v-3c-1.33301 -2.66699 -3.33301 -4 -6 -4zM477.999 54.001c-0.666992 0.666992 -2 1 -4 1c-2.66699 0 -4.66699 -1.66699 -6 -5h-1l-1 4h-6v-27h8v17
c0 2.66699 2 4 6 4h1c0.666992 0 1 -0.166992 1 -0.5s0.333008 -0.5 1 -0.5zM482.999 47.001c4 1.33301 7.00098 2.00195 9.00098 2.00195c3.33301 0 5 -1.33301 5 -4v-2c-0.666992 0 -1.33398 0.166992 -2.00098 0.5s-1.66699 0.5 -3 0.5c-8.66699 0 -13 -3.33301 -13 -10
c0 -5.33301 3 -8 9 -8c4.66699 0 7.66699 1.66699 9 5h1l1 -4h6c-0.666992 1.33301 -1 3.66602 -1 6.99902v11c0 6.66699 -3.33301 10 -10 10c-2.66699 0 -5 -0.333008 -7 -1s-3.66699 -1.33398 -5 -2.00098zM491 32.0029c-2.66699 0 -4.00098 1.33301 -4.00098 4
s1.66699 4 5 4c1.33301 0 2.33301 -0.166992 3 -0.5s1.33398 -0.5 2.00098 -0.5v-3c-1.33301 -2.66699 -3.33301 -4 -6 -4zM532.999 63.0029h-31v-6h11v-30h8v30h12v6zM540.999 54.0029h-7.99805l12 -27c-0.666992 -3.33301 -2.33398 -5 -5.00098 -5l-1 1l-2 -6
c1.33301 -0.666992 3 -1 5 -1c3.33301 0 6.66602 4.33301 9.99902 13l10 25h-8l-5 -15v-5h-1l-1 5zM565.001 16.0029h7.99902v12c0.666992 -1.33301 2.33398 -2 5.00098 -2c9.33301 0 14 5 14 15c0 9.33301 -3.66699 14 -11 14c-3.33301 0 -6.33301 -1.33301 -9 -4h-1l-1 3
h-5v-38zM579 49.0029c3.33301 0 4.99902 -2.66699 4.99902 -8c0 -6 -2.33301 -9 -7 -9c-1.33301 0 -2.66602 0.666992 -3.99902 2v10c0 3.33301 2 5 6 5zM617.999 34.0029c-1.33301 -1.33301 -3.66699 -2.00098 -7 -2.00098c-4.66699 0 -7.33398 2 -8.00098 6h19v6
c0 4 -1.16699 6.83301 -3.5 8.5s-5.16602 2.5 -8.49902 2.5c-9.33301 0 -14 -5 -14 -15c0 -9.33301 4.66699 -14 14 -14c2 0 4 0.333008 6 1s3.66699 1.33398 5 2.00098zM609.998 49.002c4 0 5.66699 -2 5 -6h-11c0 4 2 6 6 6z" />
    <glyph glyph-name="space" unicode=" " horiz-adv-x="253" 
 />
    <glyph glyph-name="exclam" unicode="!" horiz-adv-x="283" 
d="M217 700h128l-70 -329l-59 -163h-78l9 163zM74 66c0 23.333 7.33301 41.833 22 55.5s34 20.5 58 20.5c24.667 0 44.334 -6.83301 59.001 -20.5s22 -32.167 22 -55.5s-7.33301 -42 -22 -56s-34.334 -21 -59.001 -21c-24 0 -43.333 7 -58 21s-22 32.667 -22 56z" />
    <glyph glyph-name="quotedbl" unicode="&#x22;" horiz-adv-x="354" 
d="M116 700h108l-79 -216h-75zM256 700h108l-79 -216h-75z" />
    <glyph glyph-name="numbersign" unicode="#" 
d="M318 205h-89l-36 -154h-107l36 154h-74l22 97h75l25 106h-72l22 97h73l35 144h107l-35 -144h89l35 144h107l-35 -144h72l-25 -97h-70l-25 -106h69l-24 -97h-68l-36 -154h-107zM252 302h89l25 106h-89z" />
    <glyph glyph-name="dollar" unicode="$" 
d="M192 -10c-34.667 4.66699 -62.666 12.3369 -83.999 23.0039s-37.666 20.667 -48.999 30l47 97c9.33301 -6.66699 23.5 -14.334 42.5 -23.001s41.167 -15.334 66.5 -20.001l47 221c-15.333 10 -30.333 20.833 -45 32.5s-27.834 25 -39.501 40s-21 32 -28 51
s-10.5 41.167 -10.5 66.5c0 32 5.5 60 16.5 84s26 44.333 45 61s40.833 29.667 65.5 39s51 15.666 79 18.999l20 89h99l-19 -90c25.333 -3.33301 47.666 -8.16602 66.999 -14.499s36 -13.166 50 -20.499l-50 -102c-9.33301 5.33301 -22 10.666 -38 15.999
s-33.667 9.66602 -53 12.999l-43 -203c15.333 -10.667 30.666 -22 45.999 -34s29 -25.833 41 -41.5s21.667 -33.334 29 -53.001s11 -42.167 11 -67.5c0 -32 -5.33301 -60.5 -16 -85.5s-25.5 -46.5 -44.5 -64.5s-41.667 -32.333 -68 -43s-55.166 -17.667 -86.499 -21l-18 -89
h-99zM272.001 94.0029c35.333 2.66699 61.333 13 78 31s25 39 25 63c0 21.333 -6 39.333 -18 54s-27 28.667 -45 42zM364.001 606.003c-32 -1.33301 -55.833 -9.66699 -71.5 -25s-23.5 -34.333 -23.5 -57c0 -19.333 5.5 -35.833 16.5 -49.5s25.167 -27.167 42.5 -40.5z" />
    <glyph glyph-name="percent" unicode="%" horiz-adv-x="804" 
d="M55 499c0 36 6.16602 67.3301 18.499 93.9971s28.5 48.834 48.5 66.501s42.167 30.834 66.5 39.501s48.5 13 72.5 13c44 0 77.5 -10.167 100.5 -30.5s34.5 -50.166 34.5 -89.499c0 -38 -5.66699 -70.833 -17 -98.5s-26.666 -50.5 -45.999 -68.5s-41.5 -31.333 -66.5 -40
s-50.833 -13 -77.5 -13c-41.333 0 -74 11.5 -98 34.5s-36 53.833 -36 92.5zM164.999 504.997c-0.666992 -14.667 2.66504 -26.5 9.99805 -35.5s18 -13.5 32 -13.5c22 0 40.667 11.5 56 34.5s23 52.5 23 88.5c0 32.667 -14.333 49 -43 49
c-11.333 0 -21.666 -3.33301 -30.999 -10s-17.666 -15.5 -24.999 -26.5s-13 -24 -17 -39s-5.66699 -30.833 -5 -47.5zM419.998 127.997c0 36 6.16602 67.3301 18.499 93.9971s28.5 48.834 48.5 66.501s42.167 30.834 66.5 39.501s48.5 13 72.5 13
c44 0 77.5 -10.167 100.5 -30.5s34.5 -50.166 34.5 -89.499c0 -38 -5.66699 -70.833 -17 -98.5s-26.666 -50.5 -45.999 -68.5s-41.5 -31.333 -66.5 -40s-50.833 -13 -77.5 -13c-41.333 0 -74 11.5 -98 34.5s-36 53.833 -36 92.5zM529.997 133.994
c-0.666992 -14.667 2.66504 -26.5 9.99805 -35.5s18 -13.5 32 -13.5c22 0 40.667 11.5 56 34.5s23 52.5 23 88.5c0 32.667 -14.333 49 -43 49c-11.333 0 -21.666 -3.33301 -30.999 -10s-17.666 -15.5 -24.999 -26.5s-13 -24 -17 -39s-5.66699 -30.833 -5 -47.5z
M655.996 713.994l73 -66l-576 -662l-73 69z" />
    <glyph glyph-name="ampersand" unicode="&#x26;" horiz-adv-x="783" 
d="M73 162c0 30.667 6.16797 59.6699 18.501 87.0029s28.666 52.333 48.999 75s43.333 43.167 69 61.5s52.167 34.166 79.5 47.499c-11.333 22 -18.5 42 -21.5 60s-4.5 36 -4.5 54c0 22 3.66699 43 11 63s19 37.667 35 53s36.333 27.666 61 36.999s54 14 88 14
c26.667 0 48.5 -3.33301 65.5 -10s30.5 -15.5 40.5 -26.5s16.833 -23.333 20.5 -37s5.5 -27.167 5.5 -40.5c0 -34 -13.5 -66.5 -40.5 -97.5s-65.5 -60.167 -115.5 -87.5c14.667 -36 29.834 -69 45.501 -99s34.167 -59.667 55.5 -89c17.333 16.667 34.666 37.5 51.999 62.5
s33.333 50.5 48 76.5l79 -50c-6.66699 -12 -15 -25.167 -25 -39.5s-20.5 -28.833 -31.5 -43.5s-22 -28.5 -33 -41.5s-20.833 -24.167 -29.5 -33.5c16 -19.333 33.5 -37.5 52.5 -54.5s37.833 -29.5 56.5 -37.5l-87 -96c-10 4 -20.333 9.83301 -31 17.5s-21.167 16 -31.5 25
s-20.166 18.5 -29.499 28.5s-17.333 19.667 -24 29c-28.667 -22 -61.834 -41.5 -99.501 -58.5s-81.5 -25.5 -131.5 -25.5c-30.667 0 -58.167 4.5 -82.5 13.5s-45 21.333 -62 37s-30 34.167 -39 55.5s-13.5 44.666 -13.5 69.999zM443.001 149.003
c-24.667 35.333 -46.667 70.5 -66 105.5s-35.333 68.167 -48 99.5c-39.333 -26.667 -70.166 -53.5 -92.499 -80.5s-33.5 -56.167 -33.5 -87.5c0 -28 9 -50 27 -66s44.667 -24 80 -24c25.333 0 50.166 5.5 74.499 16.5s43.833 23.167 58.5 36.5zM384.001 553.003
c0 -14.667 1.16895 -27.167 3.50195 -37.5s7.16602 -23.5 14.499 -39.5c28 16.667 49.667 33 65 49s23 33 23 51c0 12.667 -3 22.667 -9 30s-17.333 11 -34 11c-20.667 0 -36.334 -6.33301 -47.001 -19s-16 -27.667 -16 -45z" />
    <glyph glyph-name="quotesingle" unicode="'" horiz-adv-x="218" 
d="M137 700h108l-79 -216h-75z" />
    <glyph glyph-name="parenleft" unicode="(" horiz-adv-x="310" 
d="M157 -218c-19.333 25.333 -35 51.166 -47 77.499s-21.667 52.5 -29 78.5s-12.333 51.5 -15 76.5s-4 49.167 -4 72.5c0 64 7.66699 126.167 23 186.5s35.833 117.333 61.5 171s55.5 103.167 89.5 148.5s69.667 85 107 119l64 -54
c-31.333 -34.667 -60.5 -73.5 -87.5 -116.5s-50.5 -88.833 -70.5 -137.5s-35.833 -99.167 -47.5 -151.5s-17.5 -105.166 -17.5 -158.499c0 -42 3 -83.5 9 -124.5s19.667 -85.5 41 -133.5z" />
    <glyph glyph-name="parenright" unicode=")" horiz-adv-x="310" 
d="M183 711c30 -40 51.835 -85.165 65.502 -135.498s20.5 -105.833 20.5 -166.5c0 -64 -7.5 -126.333 -22.5 -187s-35.333 -118 -61 -172s-55.334 -104 -89.001 -150s-69.167 -86 -106.5 -120l-67 55c30 33.333 58.667 71.833 86 115.5s51.166 90.167 71.499 139.5
s36.5 100 48.5 152s18 103 18 153c0 55.333 -4 104.166 -12 146.499s-21 80.166 -39 113.499z" />
    <glyph glyph-name="asterisk" unicode="*" horiz-adv-x="356" 
d="M182 731l28 -46l15 -59l15 55l28 49l63 -35l-30 -52l-47 -43l64 16h57v-73h-54l-61 16l50 -47l25 -42l-64 -37l-27 46l-20 64l-13 -58l-29 -49l-65 37l30 49l45 37l-55 -16h-59v74h59l59 -17l-50 44l-28 50z" />
    <glyph glyph-name="plus" unicode="+" horiz-adv-x="505" 
d="M58 394h162v169h117v-169h163v-112h-163v-171h-117v171h-162v112z" />
    <glyph glyph-name="comma" unicode="," horiz-adv-x="226" 
d="M60 -5c-11.333 0.666992 -21.9971 6.33105 -31.9971 16.998s-15 24.667 -15 42c0 26.667 8.5 47.334 25.5 62.001s37.167 22 60.5 22s40.666 -7.5 51.999 -22.5s17 -32.167 17 -51.5v-2c-0.666992 -32.667 -7.33398 -61.167 -20.001 -85.5s-27.834 -45 -45.501 -62
s-36 -30.667 -55 -41s-34.833 -17.5 -47.5 -21.5l-26 54c19.333 7.33301 37 19.333 53 36s27 34.334 33 53.001z" />
    <glyph glyph-name="hyphen" unicode="-" horiz-adv-x="343" 
d="M81 340h239l-25 -104h-239z" />
    <glyph glyph-name="period" unicode="." horiz-adv-x="251" 
d="M33 66c0 23.333 7.33301 41.833 22 55.5s34 20.5 58 20.5c24.667 0 44.334 -6.83301 59.001 -20.5s22 -32.167 22 -55.5s-7.33301 -42 -22 -56s-34.334 -21 -59.001 -21c-24 0 -43.333 7 -58 21s-22 32.667 -22 56z" />
    <glyph glyph-name="slash" unicode="/" horiz-adv-x="388" 
d="M432 712l86 -46l-510 -808l-85 48z" />
    <glyph glyph-name="zero" unicode="0" 
d="M55 229c0 69.333 7.83398 133.498 23.501 192.498s37.5 110.167 65.5 153.5s61.167 77.333 99.5 102s80.166 37 125.499 37c26 0 50.5 -4 73.5 -12s43.167 -21.333 60.5 -40s31 -43.667 41 -75s15 -70 15 -116c0 -62 -7.16699 -122.167 -21.5 -180.5s-35 -110 -62 -155
s-60 -81.167 -99 -108.5s-82.833 -41 -131.5 -41c-32.667 0 -61 6.33301 -85 19s-43.667 29.834 -59 51.501s-26.833 47.334 -34.5 77.001s-11.5 61.5 -11.5 95.5zM179.001 229.998c0 -27.333 2.33301 -49.668 7 -67.001s10.834 -31 18.501 -41s16.834 -16.833 27.501 -20.5
s22 -5.5 34 -5.5c23.333 0 45.166 11 65.499 33s38.166 50.667 53.499 86s27.5 75.166 36.5 119.499s13.5 89.166 13.5 134.499c0 20.667 -1.16699 39.334 -3.5 56.001s-6.66602 30.834 -12.999 42.501s-14.833 20.667 -25.5 27s-24.334 9.5 -41.001 9.5
c-22 0 -43.333 -10.333 -64 -31s-39.167 -48.167 -55.5 -82.5s-29.333 -74.166 -39 -119.499s-14.5 -92.333 -14.5 -141z" />
    <glyph glyph-name="one" unicode="1" 
d="M81 110h132l85 395l28 68l-58 -59l-97 -62l-39 77l257 183h70l-128 -602h129l-23 -110h-379z" />
    <glyph glyph-name="two" unicode="2" 
d="M540 560c0 -37.333 -8.66406 -75.166 -25.9971 -113.499s-39.333 -75.833 -66 -112.5s-56 -71.334 -88 -104.001s-62.333 -62 -91 -88l-59 -41v-5l70 14h179l-23 -110h-400l14 67c18.667 17.333 40.667 37.833 66 61.5s51.666 49 78.999 76s54.166 55 80.499 84
s49.833 57.5 70.5 85.5s37.5 55 50.5 81s19.5 49.667 19.5 71c0 22 -5.66699 40 -17 54s-33 21 -65 21c-20.667 0 -41.834 -4.83301 -63.501 -14.5s-43.167 -22.167 -64.5 -37.5l-30 94c32 23.333 64.167 41 96.5 53s69.833 18 112.5 18c49.333 0 87.5 -14.167 114.5 -42.5
s40.5 -65.5 40.5 -111.5z" />
    <glyph glyph-name="three" unicode="3" 
d="M193 389l147.003 164.999l64 45l-76 -9h-159l24 110h363l-15 -71l-171 -190l-48 -27v-5l40 6c13.333 -1.33301 27.5 -5.33301 42.5 -12s28.833 -16.5 41.5 -29.5s23.167 -29.667 31.5 -50s12.5 -45.166 12.5 -74.499c0 -38 -6.16699 -73 -18.5 -105
s-30.833 -59.5 -55.5 -82.5s-55.334 -41 -92.001 -54s-79 -19.5 -127 -19.5c-28.667 0 -57.667 2.66699 -87 8s-52.333 13 -69 23l57 111c13.333 -8.66699 29.666 -15.667 48.999 -21s41.666 -8 66.999 -8c26 0 48.5 3.66699 67.5 11s34.833 17 47.5 29s22 25.833 28 41.5
s9 31.5 9 47.5c0 32 -8.5 55.333 -25.5 70s-47.833 22 -92.5 22h-70z" />
    <glyph glyph-name="four" unicode="4" 
d="M535 195h-105l-41 -195h-115l41 195h-287l15 74l393 436h102l-86 -407h105zM370 452l26 84h-3l-48 -72l-126 -135l-55 -38l62 7h111z" />
    <glyph glyph-name="five" unicode="5" 
d="M201 99c28 0 51.999 3.99902 71.999 11.999s36.5 18.667 49.5 32s22.667 28.666 29 45.999s9.5 35.666 9.5 54.999c0 33.333 -10.167 57 -30.5 71s-54.166 21 -101.499 21l-77 -3l77 367h327l-25 -122h-220l-29 -138l37 4c26.667 0 50.167 -4.33301 70.5 -13
s37.5 -20.667 51.5 -36s24.667 -33.666 32 -54.999s11 -44.333 11 -69c0 -92 -26 -162.5 -78 -211.5s-126.667 -73.5 -224 -73.5c-13.333 0 -27 0.833008 -41 2.5s-27.5 3.83398 -40.5 6.50098s-25 5.83398 -36 9.50098s-20.5 7.5 -28.5 11.5l56 106
c13.333 -6.66699 28.5 -12.167 45.5 -16.5s38.167 -6.5 63.5 -6.5z" />
    <glyph glyph-name="six" unicode="6" 
d="M516 255c0 -36 -5.33203 -70.334 -15.999 -103.001s-26.834 -61.167 -48.501 -85.5s-48.834 -43.833 -81.501 -58.5s-70.667 -22 -114 -22c-21.333 0 -43.5 3.83301 -66.5 11.5s-44 20.334 -63 38.001s-34.5 40.834 -46.5 69.501s-18 64 -18 106
c0 68 12.667 131.5 38 190.5s58.833 110.667 100.5 155s89.167 80.166 142.5 107.499s108.333 44 165 50l7 -103c-33.333 -5.33301 -66 -14.833 -98 -28.5s-61.833 -31 -89.5 -52s-52.167 -44.833 -73.5 -71.5s-37.666 -55.334 -48.999 -86.001c18 19.333 40.167 34 66.5 44
s53.5 15 81.5 15c51.333 0 91.333 -16.167 120 -48.5s43 -75.166 43 -128.499zM394.001 231.999c0 26.667 -6.83301 48.3311 -20.5 64.998s-36.5 25 -68.5 25c-25.333 0 -49 -5.66699 -71 -17s-38.667 -25.666 -50 -42.999c-1.33301 -6.66699 -2.5 -14.167 -3.5 -22.5
s-1.5 -15.166 -1.5 -20.499c0 -36 7.5 -65.5 22.5 -88.5s38.167 -34.5 69.5 -34.5c38 0 68 12.667 90 38s33 58 33 98z" />
    <glyph glyph-name="seven" unicode="7" 
d="M62 0l329 539l51 49l-58 -10h-235l25 122h430l-8 -38l-405 -662h-129z" />
    <glyph glyph-name="eight" unicode="8" 
d="M54 153c0 25.333 4.33301 48.8301 13 70.4971s20.334 41.334 35.001 59.001s31.667 33.167 51 46.5s39.666 24 60.999 32c-9.33301 8.66699 -18.166 17.5 -26.499 26.5s-15.666 19.167 -21.999 30.5s-11.333 24.5 -15 39.5s-5.5 32.5 -5.5 52.5
c0 32.667 6.16699 61.834 18.5 87.501s29.166 47 50.499 64s46 30 74 39s57.667 13.5 89 13.5c56 0 98.667 -14.5 128 -43.5s44 -66.167 44 -111.5c0 -23.333 -3.83301 -44.5 -11.5 -63.5s-18 -36.5 -31 -52.5s-28 -30.5 -45 -43.5s-34.833 -24.5 -53.5 -34.5
c30 -23.333 51.5 -48.166 64.5 -74.499s19.5 -54.833 19.5 -85.5c0 -34 -6.16699 -64.5 -18.5 -91.5s-29.5 -50 -51.5 -69s-48.333 -33.5 -79 -43.5s-64.334 -15 -101.001 -15c-26 0 -50.5 3.66699 -73.5 11s-43 18 -60 32s-30.333 31.333 -40 52s-14.5 44.667 -14.5 72z
M374 189.997c0 15.333 -2.50293 28.999 -7.50293 40.999s-11.667 22.833 -20 32.5s-18.166 18.667 -29.499 27s-23 16.166 -35 23.499c-34 -17.333 -61 -37.5 -81 -60.5s-30 -48.5 -30 -76.5c0 -23.333 7 -42.666 21 -57.999s37 -23 69 -23c14.667 0 28.834 2 42.501 6
s25.834 9.83301 36.501 17.5s19 17.334 25 29.001s9 25.5 9 41.5zM262.997 510.996c0 -23.333 7.33203 -43.168 21.999 -59.501s33.334 -31.166 56.001 -44.499c12 8.66699 23.333 18 34 28s20.167 20.333 28.5 31s15 21.667 20 33s7.5 22.333 7.5 33c0 24 -6 42 -18 54
s-29 18 -51 18c-28 0 -51.5 -8 -70.5 -24s-28.5 -39 -28.5 -69z" />
    <glyph glyph-name="nine" unicode="9" 
d="M99 456c0 40 6.66309 76.001 19.9961 108.001s31.833 59 55.5 81s51.334 39 83.001 51s66.167 18 103.5 18c28 0 54 -4.33301 78 -13s44.833 -22.167 62.5 -40.5s31.667 -41.333 42 -69s15.5 -60.5 15.5 -98.5c0 -53.333 -6.83301 -102.5 -20.5 -147.5
s-32 -85.833 -55 -122.5s-49.667 -69.334 -80 -98.001s-62.166 -53 -95.499 -73s-67.166 -35.5 -101.499 -46.5s-66.833 -17.5 -97.5 -19.5l-6 102c36.667 6.66699 71.167 17.167 103.5 31.5s61.5 31.333 87.5 51s48.5 41.667 67.5 66s33.833 49.5 44.5 75.5
c-19.333 -15.333 -40.333 -26.833 -63 -34.5s-50 -11.5 -82 -11.5c-18.667 0 -37.667 3.5 -57 10.5s-36.666 18 -51.999 33s-28 34.667 -38 59s-15 53.5 -15 87.5zM220.996 475.001c0 -19.333 2.50195 -35.3301 7.50195 -47.9971s11.833 -23 20.5 -31
s18.167 -13.667 28.5 -17s21.166 -5 32.499 -5c25.333 0 49 4 71 12s39.333 18.667 52 32c2 7.33301 3.83301 17.666 5.5 30.999s2.5 23 2.5 29c0 38 -7.5 68.833 -22.5 92.5s-39.5 35.5 -73.5 35.5c-16 0 -31.333 -2.5 -46 -7.5s-27.834 -12.833 -39.501 -23.5
s-21 -24.334 -28 -41.001s-10.5 -36.334 -10.5 -59.001z" />
    <glyph glyph-name="colon" unicode=":" horiz-adv-x="314" 
d="M90 66c0 23.333 7.33301 41.833 22 55.5s34 20.5 58 20.5c24.667 0 44.334 -6.83301 59.001 -20.5s22 -32.167 22 -55.5s-7.33301 -42 -22 -56s-34.334 -21 -59.001 -21c-24 0 -43.333 7 -58 21s-22 32.667 -22 56zM165 428c0 23.333 7.33301 41.833 22 55.5
s34 20.5 58 20.5c24.667 0 44.334 -6.83301 59.001 -20.5s22 -32.167 22 -55.5s-7.33301 -42 -22 -56s-34.334 -21 -59.001 -21c-24 0 -43.333 7 -58 21s-22 32.667 -22 56z" />
    <glyph glyph-name="semicolon" unicode=";" horiz-adv-x="307" 
d="M138 -5c-11.333 0.666992 -21.9971 6.33105 -31.9971 16.998s-15 24.667 -15 42c0 26.667 8.5 47.334 25.5 62.001s37.167 22 60.5 22s40.666 -7.5 51.999 -22.5s17 -32.167 17 -51.5v-2c-0.666992 -32.667 -7.33398 -61.167 -20.001 -85.5s-27.834 -45 -45.501 -62
s-36 -30.667 -55 -41s-34.833 -17.5 -47.5 -21.5l-26 54c19.333 7.33301 37 19.333 53 36s27 34.334 33 53.001zM158.003 427.997c0 23.333 7.33301 41.833 22 55.5s34 20.5 58 20.5c24.667 0 44.334 -6.83301 59.001 -20.5s22 -32.167 22 -55.5s-7.33301 -42 -22 -56
s-34.334 -21 -59.001 -21c-24 0 -43.333 7 -58 21s-22 32.667 -22 56z" />
    <glyph glyph-name="less" unicode="&#x3c;" horiz-adv-x="505" 
d="M51 285v70l386 231l57 -90l-224 -139l-91 -35l90 -31l230 -137l-57 -90z" />
    <glyph glyph-name="equal" unicode="=" horiz-adv-x="505" 
d="M58 490h442v-112h-442v112zM58 299h442v-112h-442v112z" />
    <glyph glyph-name="greater" unicode="&#x3e;" horiz-adv-x="505" 
d="M508 365v-70l-387 -231l-56 91l223 138l91 36l-90 30l-229 138l56 89z" />
    <glyph glyph-name="question" unicode="?" horiz-adv-x="430" 
d="M127 208c4 36 12.1719 66.8301 24.5049 92.4971s26.666 48 42.999 67s33.666 35.667 51.999 50s35 28.166 50 41.499s27.5 27 37.5 41s15 30.333 15 49c0 18 -5.16699 32 -15.5 42s-28.833 15 -55.5 15c-20.667 0 -43.334 -4.5 -68.001 -13.5
s-46.334 -19.833 -65.001 -32.5l-31 94c27.333 16.667 57 30.834 89 42.501s71 17.5 117 17.5c56 0 97 -11.833 123 -35.5s39 -55.5 39 -95.5c0 -35.333 -5.33301 -65.166 -16 -89.499s-24.334 -45.666 -41.001 -63.999s-35 -34.666 -55 -48.999s-39.167 -29.5 -57.5 -45.5
s-34.833 -34 -49.5 -54s-24.667 -44.333 -30 -73h-106zM82.0049 65.9971c0 23.333 7.33301 41.833 22 55.5s34 20.5 58 20.5c24.667 0 44.334 -6.83301 59.001 -20.5s22 -32.167 22 -55.5s-7.33301 -42 -22 -56s-34.334 -21 -59.001 -21c-24 0 -43.333 7 -58 21
s-22 32.667 -22 56z" />
    <glyph glyph-name="at" unicode="@" horiz-adv-x="1059" 
d="M706 484l70.001 -0.00390625l-49 -271c-1.33301 -8 -2.33301 -15.5 -3 -22.5s-1 -13.167 -1 -18.5c0 -32 12.333 -48 37 -48c17.333 0 34.5 4 51.5 12s32.167 20.333 45.5 37s24 37.667 32 63s12 55.333 12 90c0 50 -8.33301 92.833 -25 128.5s-39.5 65 -68.5 88
s-63.167 39.833 -102.5 50.5s-81.333 16 -126 16c-52 0 -100.5 -9.33301 -145.5 -28s-84 -44.5 -117 -77.5s-58.833 -72 -77.5 -117s-28 -93.833 -28 -146.5c0 -52 7.83301 -98.667 23.5 -140s38.667 -76.666 69 -105.999s67.666 -51.833 111.999 -67.5
s95.166 -23.5 152.499 -23.5c19.333 0 41.333 2.5 66 7.5s47 12.167 67 21.5l31 -96c-28 -13.333 -56 -22.666 -84 -27.999s-60.333 -8 -97 -8c-65.333 0 -125.5 9.33301 -180.5 28s-102.5 46.334 -142.5 83.001s-71.333 82.167 -94 136.5s-34 117.166 -34 188.499
c0 72.667 13 138.334 39 197.001s61 108.667 105 150s95 73.166 153 95.499s119.333 33.5 184 33.5c61.333 0 118.333 -8.83301 171 -26.5s98.334 -43 137.001 -76s69 -73.333 91 -121s33 -101.834 33 -162.501c0 -42.667 -7.66699 -82.667 -23 -120
s-36 -69.666 -62 -96.999s-56.5 -49 -91.5 -65s-72.5 -24 -112.5 -24c-16.667 0 -32.167 1.83301 -46.5 5.5s-26.5 9.83398 -36.5 18.501s-17.333 20 -22 34s-6 31.333 -4 52h-4c-10 -14 -20.667 -27.667 -32 -41s-24 -25.166 -38 -35.499s-29.333 -18.5 -46 -24.5
s-35 -9 -55 -9c-16.667 0 -32.167 3.5 -46.5 10.5s-26.833 16.833 -37.5 29.5s-19.167 28 -25.5 46s-9.5 38 -9.5 60c0 41.333 6.66699 81.5 20 120.5s31.333 73.5 54 103.5s49.167 54.167 79.5 72.5s62.5 27.5 96.5 27.5c23.333 0 43 -3.5 59 -10.5s31 -16.167 45 -27.5z
M643.001 362.996c-9.33301 7.33301 -18.668 13.165 -28.001 17.498s-20.666 6.5 -33.999 6.5c-20 0 -38.5 -5.83301 -55.5 -17.5s-31.667 -26.5 -44 -44.5s-22 -38.167 -29 -60.5s-10.5 -44.166 -10.5 -65.499c0 -22 4.66699 -40.167 14 -54.5s25 -21.5 47 -21.5
c9.33301 0 19.333 2.83301 30 8.5s21 13.334 31 23.001s19.5 20.5 28.5 32.5s17.167 24.667 24.5 38z" />
    <glyph glyph-name="A" unicode="A" horiz-adv-x="582" 
d="M387 155h-204l-83 -155h-138l389 705h96l91 -705h-131zM240 265h142l-16 156l1 110h-5l-40 -111z" />
    <glyph glyph-name="B" unicode="B" horiz-adv-x="568" 
d="M166 695c12.667 2 26.9971 3.99902 42.9971 5.99902s33 3.66699 51 5s36.5 2.33301 55.5 3s37.5 1 55.5 1c30.667 0 59.167 -3.16699 85.5 -9.5s49 -16.166 68 -29.499s34 -30.5 45 -51.5s16.5 -46.167 16.5 -75.5c0 -22 -3.66699 -43.167 -11 -63.5
s-17.833 -38.5 -31.5 -54.5s-30 -29.333 -49 -40s-40.5 -17.667 -64.5 -21v-5c12.667 -2.66699 25.334 -7.5 38.001 -14.5s24 -16 34 -27s18 -24 24 -39s9 -31.833 9 -50.5c0 -42.667 -8.33301 -79.167 -25 -109.5s-39 -55 -67 -74s-60.667 -33 -98 -42
s-76.666 -13.5 -117.999 -13.5h-41.5c-17 0 -35.167 0.5 -54.5 1.5s-38.666 2.5 -57.999 4.5s-37 5 -53 9zM166.997 108.999c2.66699 -1.33301 7.50098 -2.33398 14.501 -3.00098s14.667 -1.16699 23 -1.5s16.833 -0.666016 25.5 -0.999023s16 -0.5 22 -0.5
c16.667 0 33.834 2 51.501 6s33.667 10.667 48 20s26.166 21.333 35.499 36s14 32.667 14 54c0 16.667 -3.66699 30.334 -11 41.001s-17 19.167 -29 25.5s-25.833 10.666 -41.5 12.999s-31.834 3.5 -48.501 3.5h-64zM229.998 405.998l42.999 -0.000976562
c9.33301 0 20.333 0.166992 33 0.5s23.334 1.16602 32.001 2.49902c12 2 24.833 5.33301 38.5 10s26 11.334 37 20.001s20.167 19.667 27.5 33s11 30 11 50c0 28.667 -9.5 48.334 -28.5 59.001s-43.167 16 -72.5 16c-17.333 0 -33.333 -0.333008 -48 -1s-26 -1.66699 -34 -3
z" />
    <glyph glyph-name="C" unicode="C" horiz-adv-x="537" 
d="M483 29c-44.667 -28.667 -99.3311 -43.0029 -163.998 -43.0029c-44 0 -82.333 7.33301 -115 22s-59.834 35 -81.501 61s-37.834 56.333 -48.501 91s-16 72 -16 112c0 78.667 11 145.834 33 201.501s51 101.334 87 137.001s77.167 61.834 123.5 78.501s93.833 25 142.5 25
c38 0 70.5 -2.83301 97.5 -8.5s48.167 -12.167 63.5 -19.5l-51 -116c-13.333 7.33301 -29.333 12.833 -48 16.5s-42.334 5.5 -71.001 5.5c-34 0 -65.667 -7 -95 -21s-54.666 -34 -75.999 -60s-38.166 -57.667 -50.499 -95s-18.5 -79.666 -18.5 -126.999
c0 -56.667 14.167 -101 42.5 -133s66.166 -48 113.499 -48c30 0 54.833 3.16699 74.5 9.5s38.167 14.166 55.5 23.499z" />
    <glyph glyph-name="D" unicode="D" horiz-adv-x="620" 
d="M168 700c14 2 29.332 3.66504 45.999 4.99805s32.167 2.33301 46.5 3s26.833 1 37.5 1c6 0 14.5 0.166992 25.5 0.5s23.167 0.5 36.5 0.5c40.667 0 77.667 -5.16699 111 -15.5s61.833 -26.166 85.5 -47.499s42 -48.666 55 -81.999s19.5 -73 19.5 -119
c0 -29.333 -2.5 -60.833 -7.5 -94.5s-13.5 -67.5 -25.5 -101.5s-28.5 -66.667 -49.5 -98s-47.333 -59 -79 -83s-69.667 -43.333 -114 -58s-95.833 -22 -154.5 -22c-10 0 -20 0.166992 -30 0.5s-17 0.5 -21 0.5c-13.333 0.666992 -28.166 1.5 -44.499 2.5l-49 3
c-16.333 1 -28.5 2.16699 -36.5 3.5zM173.999 113.998c2.66699 -0.666992 6.83105 -1.16797 12.498 -1.50098s11.834 -0.666016 18.501 -0.999023s13 -0.5 19 -0.5h14c46.667 0 86.334 10.5 119.001 31.5s59.167 47.333 79.5 79s35 66 44 103s13.5 71.5 13.5 103.5
c0 53.333 -11.167 93.333 -33.5 120s-59.5 40 -111.5 40c-13.333 0 -27.333 -0.333008 -42 -1s-26 -1.66699 -34 -3z" />
    <glyph glyph-name="E" unicode="E" horiz-adv-x="503" 
d="M168 700h130h264l-26 -122h-264l-35 -163h241l-27 -122h-239l-37 -171h269l-25 -122h-269h-130z" />
    <glyph glyph-name="F" unicode="F" horiz-adv-x="489" 
d="M168 700h130h264l-26 -122h-264l-37 -173h243l-25 -122h-243l-60 -283h-130z" />
    <glyph glyph-name="G" unicode="G" horiz-adv-x="585" 
d="M369 365h210l-66 -312c-30 -23.333 -61.5 -40.333 -94.5 -51s-68.5 -16 -106.5 -16c-36.667 0 -70.5 6.33301 -101.5 19s-57.833 31 -80.5 55s-40.334 53.667 -53.001 89s-19 75.666 -19 120.999c0 76.667 10.5 143 31.5 199s49.5 102.167 85.5 138.5
s78 63.166 126 80.499s98.667 26 152 26c38 0 71.833 -3.16699 101.5 -9.5s52.167 -12.833 67.5 -19.5l-52 -115c-14 6.66699 -31.5 12 -52.5 16s-46.5 6 -76.5 6c-35.333 0 -68 -6.66699 -98 -20s-56 -33 -78 -59s-39.167 -58.167 -51.5 -96.5
s-18.5 -82.166 -18.5 -131.499c0 -55.333 13 -98.666 39 -129.999s61 -47 105 -47c32.667 0 61.334 8.33301 86.001 25l28 133l-102 16z" />
    <glyph glyph-name="H" unicode="H" horiz-adv-x="624" 
d="M455 293h-243l-62 -293h-130l148 700h130l-60 -285h243l60 285h130l-148 -700h-130z" />
    <glyph glyph-name="I" unicode="I" horiz-adv-x="278" 
d="M183 700h129l-148 -700h-129z" />
    <glyph glyph-name="J" unicode="J" horiz-adv-x="324" 
d="M239 700l130.001 -0.000976562l-109 -512c-6 -28 -13.667 -54.167 -23 -78.5s-21.666 -45.5 -36.999 -63.5s-34.5 -32.167 -57.5 -42.5s-50.833 -15.5 -83.5 -15.5c-18.667 0 -38.334 2 -59.001 6s-37.667 9.66699 -51 17l50 112c15.333 -8.66699 33.333 -13 54 -13
c14 0 25.667 2.83301 35 8.5s17.166 13.5 23.499 23.5s11.5 21.833 15.5 35.5s8 28.834 12 45.501z" />
    <glyph glyph-name="K" unicode="K" horiz-adv-x="593" 
d="M260 299h-47l-63 -299h-130l148 700h130l-66 -310l31 11l237 299h156l-252 -297l-60 -35l44 -39l152 -329h-145z" />
    <glyph glyph-name="L" unicode="L" horiz-adv-x="495" 
d="M441 0h-291h-130l148 700h130l-123 -578h291z" />
    <glyph glyph-name="M" unicode="M" horiz-adv-x="767" 
d="M613 363l44 138h-6l-66 -113l-197 -259h-41l-94 262l-18 110h-5l-10 -137l-77 -364h-123l148 700h115l105 -320l13 -80h5l46 82l236 318h125l-148 -700h-129z" />
    <glyph glyph-name="N" unicode="N" horiz-adv-x="631" 
d="M267 366l-33 112h-5l-9 -112l-77 -366h-123l150 705h90l172 -374l31 -109h6l7 109l79 369h123l-150 -705h-90z" />
    <glyph glyph-name="O" unicode="O" horiz-adv-x="644" 
d="M58 262c0 62 8.50195 120.501 25.502 175.501s41.167 103 72.5 144s69.166 73.333 113.499 97s93.833 35.5 148.5 35.5c36 0 68.5 -5.33301 97.5 -16s53.667 -27.167 74 -49.5s36.166 -50.5 47.499 -84.5s17 -74.333 17 -121c0 -62.667 -8.5 -121.667 -25.5 -177
s-41 -103.833 -72 -145.5s-68 -74.5 -111 -98.5s-90.5 -36 -142.5 -36c-78.667 0 -139 23.167 -181 69.5s-63.333 115.166 -64 206.499zM195.002 266.001c0 -48 9.16602 -86.332 27.499 -114.999s48.5 -43 90.5 -43c30.667 0 58.5 9.16699 83.5 27.5s46.5 43 64.5 74
s31.833 66.5 41.5 106.5s14.5 81.667 14.5 125c0 52.667 -10.333 91 -31 115s-49 36 -85 36c-30 0 -57.5 -8.66699 -82.5 -26s-46.667 -40.833 -65 -70.5s-32.666 -64.334 -42.999 -104.001s-15.5 -81.5 -15.5 -125.5z" />
    <glyph glyph-name="P" unicode="P" horiz-adv-x="550" 
d="M167 693c28 5.33301 57.833 9.49902 89.5 12.499s63.5 4.5 95.5 4.5c34 0 65.5 -3.83301 94.5 -11.5s54.333 -19.5 76 -35.5s38.5 -36.5 50.5 -61.5s18 -54.833 18 -89.5c0 -52 -9 -95.5 -27 -130.5s-41.833 -63.333 -71.5 -85s-63.5 -37 -101.5 -46
s-76.667 -13.5 -116 -13.5h-15.5c-7 0 -14.333 0.166992 -22 0.5s-15 0.833008 -22 1.5s-12.167 1.33398 -15.5 2.00098l-50 -241h-130zM226 358.999c2.66699 -0.666992 6.33203 -1.33301 10.999 -2s9.83398 -1.16699 15.501 -1.5s11 -0.5 16 -0.5h11.5
c22.667 0 44.5 2.5 65.5 7.5s39.5 13 55.5 24s28.833 25.5 38.5 43.5s14.5 40 14.5 66c0 19.333 -3.16699 35.333 -9.5 48s-14.833 22.5 -25.5 29.5s-23.167 11.833 -37.5 14.5s-29.5 4 -45.5 4c-12 0 -23.5 -0.5 -34.5 -1.5s-20.167 -2.16699 -27.5 -3.5z" />
    <glyph glyph-name="Q" unicode="Q" horiz-adv-x="644" 
d="M58 262c0 62 8.50195 120.501 25.502 175.501s41.167 103 72.5 144s69.166 73.333 113.499 97s93.833 35.5 148.5 35.5c36 0 68.5 -5.33301 97.5 -16s53.667 -27.167 74 -49.5s36.166 -50.5 47.499 -84.5s17 -74.333 17 -121c0 -62.667 -8.5 -121.667 -25.5 -177
s-41 -103.833 -72 -145.5s-68 -74.5 -111 -98.5s-90.5 -36 -142.5 -36c-78.667 0 -139 23.167 -181 69.5s-63.333 115.166 -64 206.499zM195.002 266.001c0 -48 9.16602 -86.332 27.499 -114.999s48.5 -43 90.5 -43c30.667 0 58.5 9.16699 83.5 27.5s46.5 43 64.5 74
s31.833 66.5 41.5 106.5s14.5 81.667 14.5 125c0 52.667 -10.333 91 -31 115s-49 36 -85 36c-30 0 -57.5 -8.66699 -82.5 -26s-46.667 -40.833 -65 -70.5s-32.666 -64.334 -42.999 -104.001s-15.5 -81.5 -15.5 -125.5zM627.001 -201.998
c-32 -8.66699 -63.667 -12.998 -95 -12.998c-32 0 -62.667 3.5 -92 10.5s-57.5 14.5 -84.5 22.5s-52.833 15.5 -77.5 22.5s-49 10.5 -73 10.5c-15.333 0 -30.333 -2 -45 -6l25 118c18.667 4 37.334 6 56.001 6c26.667 0 52.5 -3.33301 77.5 -10s50.333 -13.834 76 -21.501
s52.167 -14.834 79.5 -21.501s56.666 -10 87.999 -10c14 0 28.5 0.833008 43.5 2.5s30.5 4.5 46.5 8.5z" />
    <glyph glyph-name="R" unicode="R" horiz-adv-x="584" 
d="M167 693c32 6 64.333 10.3311 97 12.998s62 4 88 4c30.667 0 59.667 -3.66699 87 -11s51 -18.5 71 -33.5s35.833 -34.333 47.5 -58s17.5 -51.5 17.5 -83.5c0 -36.667 -5.5 -68.5 -16.5 -95.5s-25.5 -49.667 -43.5 -68s-38.5 -32.666 -61.5 -42.999
s-46.5 -17.166 -70.5 -20.499l39 -31l97 -266h-144l-96 274l-69 13l-60 -287h-130zM230 379.998l53 -0.000976562c19.333 0 38.333 1.83301 57 5.5s35.167 10.334 49.5 20.001s26 22.5 35 38.5s13.5 36.333 13.5 61c0 22.667 -7.66699 42.167 -23 58.5s-40 24.5 -74 24.5
c-13.333 0 -25.833 -0.5 -37.5 -1.5s-21.5 -2.16699 -29.5 -3.5z" />
    <glyph glyph-name="S" unicode="S" horiz-adv-x="510" 
d="M502 559c-12.667 8 -31.333 16.168 -56 24.501s-52 12.5 -82 12.5c-15.333 0 -30.333 -1.5 -45 -4.5s-27.667 -7.83301 -39 -14.5s-20.333 -15.334 -27 -26.001s-10 -23.334 -10 -38.001c0 -19.333 6 -35.666 18 -48.999s27.167 -25.833 45.5 -37.5s38 -23.5 59 -35.5
s40.667 -26 59 -42s33.5 -35.167 45.5 -57.5s18 -49.833 18 -82.5c0 -39.333 -6.83301 -73.166 -20.5 -101.499s-33 -51.5 -58 -69.5s-55 -31.167 -90 -39.5s-73.833 -12.5 -116.5 -12.5c-23.333 0 -45.5 1.33301 -66.5 4s-40.5 6 -58.5 10s-33.833 8.5 -47.5 13.5
s-24.5 9.83301 -32.5 14.5l67 116c6.66699 -4 15.334 -8.33301 26.001 -13s22.834 -9 36.501 -13s28.5 -7.33301 44.5 -10s32 -4 48 -4c18.667 0 36.334 1.5 53.001 4.5s31.167 8 43.5 15s22 15.833 29 26.5s10.5 24 10.5 40c0 18 -6 33.333 -18 46s-27.167 24.667 -45.5 36
s-38 23.166 -59 35.499s-40.667 26.833 -59 43.5s-33.5 36.834 -45.5 60.501s-18 52.5 -18 86.5c0 38.667 6.83301 71.667 20.5 99s32.167 49.666 55.5 66.999s50.666 30 81.999 38s65 12 101 12c19.333 0 38.666 -1 57.999 -3s37.666 -4.83301 54.999 -8.5
s33.333 -8 48 -13s27 -10.5 37 -16.5z" />
    <glyph glyph-name="T" unicode="T" horiz-adv-x="547" 
d="M614 578h-194l-123 -578h-129l122 578h-194l26 122h517z" />
    <glyph glyph-name="U" unicode="U" horiz-adv-x="602" 
d="M531 700l122.002 -0.000976562l-95 -452c-10 -48 -23 -88.5 -39 -121.5s-35.333 -59.833 -58 -80.5s-49.334 -35.5 -80.001 -44.5s-66 -13.5 -106 -13.5c-38.667 0 -71.334 4.5 -98.001 13.5s-48.5 21.833 -65.5 38.5s-29.333 36.334 -37 59.001s-11.5 47.667 -11.5 75
c0 13.333 0.833008 27 2.5 41s4.16699 28.667 7.5 44l94 441h129l-92 -440c-5.33301 -25.333 -8 -46 -8 -62c0 -32 8.33301 -54.667 25 -68s41 -20 73 -20c40 0 71 11.667 93 35s38.667 61 50 113z" />
    <glyph glyph-name="V" unicode="V" horiz-adv-x="579" 
d="M288 290l-7 -119h4l44 119l216 410h146l-395 -705h-94l-101 705h142z" />
    <glyph glyph-name="W" unicode="W" horiz-adv-x="826" 
d="M249 310l-14 -124h5l39 126l198 388h88l29 -390l-13 -124h5l40 126l164 388h140l-333 -705h-91l-37 389l8 107h-6l-38 -108l-199 -388h-91l-34 705h137z" />
    <glyph glyph-name="X" unicode="X" horiz-adv-x="608" 
d="M256 357l-113 343h141l60 -202l10 -71l37 71l149 202h156l-263 -338l125 -362h-139l-72 216l-12 74l-40 -74l-161 -216h-158z" />
    <glyph glyph-name="Y" unicode="Y" horiz-adv-x="569" 
d="M231 260l-125 440h144l65 -263l-2 -74h4l31 76l175 261h149l-311 -439l-55 -261h-129z" />
    <glyph glyph-name="Z" unicode="Z" horiz-adv-x="518" 
d="M15 122l360 416l58 40h-321l25 122h461l-25 -122l-362 -419l-56 -37h321l-26 -122h-461z" />
    <glyph glyph-name="bracketleft" unicode="[" horiz-adv-x="314" 
d="M198 700h223l-22 -109h-105l-151 -711h105l-24 -110h-222z" />
    <glyph glyph-name="backslash" unicode="\" horiz-adv-x="424" 
d="M472 -95l-101 -45l-335 808l103 43z" />
    <glyph glyph-name="bracketright" unicode="]" horiz-adv-x="314" 
d="M145 -230h-223l24 110h105l150 711h-105l22 109h224z" />
    <glyph glyph-name="asciicircum" unicode="^" horiz-adv-x="505" 
d="M266 705h70l185 -292h-131l-71 122l-22 70l-25 -71l-77 -121h-125z" />
    <glyph glyph-name="underscore" unicode="_" horiz-adv-x="444" 
d="M-46 -117h444v-107h-444v107z" />
    <glyph glyph-name="grave" unicode="`" horiz-adv-x="274" 
d="M305 566h-69l-91 124l7 30h129z" />
    <glyph glyph-name="a" unicode="a" horiz-adv-x="503" 
d="M444 200c-5.33301 -25.333 -9.16699 -51.002 -11.5 -77.002s-3.5 -50.667 -3.5 -74c0 -9.33301 0.166992 -18.166 0.5 -26.499s0.833008 -16.166 1.5 -23.499h-91l-14 86h-4c-7.33301 -12 -16.833 -23.833 -28.5 -35.5s-24.5 -22.334 -38.5 -32.001
s-28.833 -17.334 -44.5 -23.001s-31.834 -8.5 -48.501 -8.5c-44 0 -76.5 14.333 -97.5 43s-31.5 67 -31.5 115c0 48.667 6.16699 95.334 18.5 140.001s31.5 84 57.5 118s58.833 61.167 98.5 81.5s86.834 30.5 141.501 30.5c23.333 0 48.833 -2.16699 76.5 -6.5
s54.5 -10.166 80.5 -17.499zM208.999 88.998c12 0 23.333 2.5 34 7.5s20.5 11.5 29.5 19.5s17 16.667 24 26s13.167 18 18.5 26l50 233c-7.33301 3.33301 -15.833 5.83301 -25.5 7.5s-19.167 2.5 -28.5 2.5c-24 0 -45.333 -7.16699 -64 -21.5s-34.5 -33 -47.5 -56
s-22.833 -49 -29.5 -78s-10 -58.167 -10 -87.5c0 -21.333 3.5 -39.833 10.5 -55.5s19.833 -23.5 38.5 -23.5z" />
    <glyph glyph-name="b" unicode="b" horiz-adv-x="512" 
d="M164 700l123.001 -0.00195312l-62 -288h4c8.66699 12 18.667 23.833 30 35.5s23.833 22.334 37.5 32.001s28.5 17.5 44.5 23.5s33.667 9 53 9c36 0 63 -12.667 81 -38s27 -59 27 -101c0 -63.333 -8.83301 -119 -26.5 -167s-40.834 -88.167 -69.501 -120.5
s-61 -56.666 -97 -72.999s-72.333 -24.5 -109 -24.5c-40.667 0 -76.5 3.83301 -107.5 11.5s-54.5 17.167 -70.5 28.5zM160.001 104.998c7.33301 -5.33301 16.332 -9 26.999 -11s22.334 -3 35.001 -3c16.667 0 34 5.5 52 16.5s34.5 27.167 49.5 48.5s27.333 47.5 37 78.5
s14.5 66.167 14.5 105.5c0 46 -13.333 69 -40 69c-13.333 0 -26.5 -3.66699 -39.5 -11s-25.5 -16.5 -37.5 -27.5s-22.833 -22.833 -32.5 -35.5s-17.5 -24.667 -23.5 -36z" />
    <glyph glyph-name="c" unicode="c" horiz-adv-x="412" 
d="M393 387c-12.667 7.33301 -25.833 12.333 -39.5 15s-28.5 4 -44.5 4c-18 0 -35.5 -5.83301 -52.5 -17.5s-32.333 -27 -46 -46s-24.5 -41.167 -32.5 -66.5s-12 -51.333 -12 -78c0 -34 7.33301 -59.833 22 -77.5s34 -26.5 58 -26.5c20 0 38.5 3.16699 55.5 9.5
s32.167 13.5 45.5 21.5l23 -84c-21.333 -16 -46.166 -29.167 -74.499 -39.5s-56.5 -15.5 -84.5 -15.5c-32 0 -59.167 4.66699 -81.5 14s-40.5 22 -54.5 38s-24.333 34.333 -31 55s-10 42.334 -10 65.001c0 56 8 106 24 150s37.167 81.167 63.5 111.5
s56.333 53.666 90 69.999s68.167 24.5 103.5 24.5c31.333 0 56.166 -3 74.499 -9s34.833 -12.667 49.5 -20z" />
    <glyph glyph-name="d" unicode="d" horiz-adv-x="507" 
d="M442 176c-6 -28 -10.334 -53.998 -13.001 -77.998s-4 -46.667 -4 -68v-15.5c0 -5 0.333008 -10.167 1 -15.5h-84l-14 86h-4c-7.33301 -12 -16.833 -23.833 -28.5 -35.5s-24.5 -22.334 -38.5 -32.001s-28.833 -17.334 -44.5 -23.001s-31.167 -8.5 -46.5 -8.5
c-41.333 0 -73.166 14.667 -95.499 44s-33.5 69.666 -33.5 120.999c0 46.667 6.33301 91.667 19 135s30.5 81.833 53.5 115.5s51 60.5 84 80.5s69.5 30 109.5 30c19.333 0 35.333 -1.16699 48 -3.5s24.667 -6.16602 36 -11.499l43 203h123zM364.999 394.002
c-8 5.33301 -17.1709 9.16699 -27.5039 11.5s-24.166 3.5 -41.499 3.5c-20 0 -38.167 -6.83301 -54.5 -20.5s-30.166 -32 -41.499 -55s-20.166 -49.5 -26.499 -79.5s-9.5 -61.333 -9.5 -94c0 -19.333 4.33301 -36 13 -50s21 -21 37 -21c10 0 20.167 2.5 30.5 7.5
s20 11.5 29 19.5s17.333 16.667 25 26s13.834 18 18.501 26z" />
    <glyph glyph-name="e" unicode="e" horiz-adv-x="466" 
d="M402 48c-20.667 -17.333 -47.334 -32.002 -80.001 -44.002s-70.667 -18 -114 -18c-54 0 -96.5 15.833 -127.5 47.5s-46.5 75.834 -46.5 132.501c0 53.333 8.33301 101.5 25 144.5s38.5 79.5 65.5 109.5s57.5 53.167 91.5 69.5s68 24.5 102 24.5
c27.333 0 50.833 -3.5 70.5 -10.5s35.834 -16.667 48.501 -29s22 -26.5 28 -42.5s9 -33 9 -51c0 -27.333 -7 -51.333 -21 -72s-33.5 -37.834 -58.5 -51.501s-55.167 -24 -90.5 -31s-74 -10.5 -116 -10.5c-5.33301 0 -10.333 0.166992 -15 0.5s-9.66699 0.5 -15 0.5
c-1.33301 -8 -2.33301 -15.167 -3 -21.5s-1 -12.166 -1 -17.499c0 -30 7.83301 -52.333 23.5 -67s37.834 -22 66.501 -22c29.333 0 55.666 4.33301 78.999 13s41 17.334 53 26.001zM176 294.998c18.667 0 38.499 0.666016 59.499 1.99902s40.5 4.5 58.5 9.5s33 12.333 45 22
s18 22.834 18 39.501c0 10 -3.66699 20.167 -11 30.5s-22.666 15.5 -45.999 15.5c-29.333 0 -54.833 -11.333 -76.5 -34s-37.5 -51 -47.5 -85z" />
    <glyph glyph-name="f" unicode="f" horiz-adv-x="294" 
d="M246 397l-73.998 -430.999c-4 -24.667 -9.66699 -47.5 -17 -68.5s-17.5 -39.333 -30.5 -55s-29.5 -28 -49.5 -37s-44.667 -13.5 -74 -13.5c-24 0 -47.5 1.83301 -70.5 5.5s-42.833 11.167 -59.5 22.5l34 91c11.333 -4.66699 22.666 -7.66699 33.999 -9
s25.666 -2 42.999 -2c21.333 0 37.833 8.5 49.5 25.5s20.5 44.5 26.5 82.5l63 389h-70l22 103h64l13 67c4.66699 24.667 10.667 46.167 18 64.5s17.166 33.666 29.499 45.999s27.333 21.5 45 27.5s39.5 9 65.5 9c10.667 0 22.834 -0.5 36.501 -1.5s27.167 -2.66699 40.5 -5
s26.333 -5.16602 39 -8.49902s24 -7.33301 34 -12l-29 -91c-15.333 6 -31 10 -47 12s-31.667 3 -47 3c-21.333 0 -36.833 -6.33301 -46.5 -19s-16.5 -32.334 -20.5 -59.001l-6 -33h100l-20 -103h-96z" />
    <glyph glyph-name="g" unicode="g" horiz-adv-x="505" 
d="M407 0c-8.66699 -39.333 -20.3379 -72.498 -35.0049 -99.498s-32.167 -48.833 -52.5 -65.5s-43.666 -28.667 -69.999 -36s-55.5 -11 -87.5 -11c-23.333 0 -44.166 1.66699 -62.499 5s-34.5 7.33301 -48.5 12s-26.167 9.5 -36.5 14.5s-18.5 9.5 -24.5 13.5l46 91
c6 -2.66699 13 -5.83398 21 -9.50098s17.167 -7.33398 27.5 -11.001s22.333 -6.66699 36 -9s29.5 -3.5 47.5 -3.5c33.333 0 59.833 10.333 79.5 31s33.834 49 42.501 85l19 78h-4c-15.333 -24 -36.166 -45.5 -62.499 -64.5s-56.166 -28.5 -89.499 -28.5
c-36 0 -65.167 13.5 -87.5 40.5s-33.5 63.167 -33.5 108.5c0 51.333 7.33301 99.5 22 144.5s35.167 84.333 61.5 118s57.5 60.167 93.5 79.5s75.667 29 119 29c40.667 0 76.167 -3.5 106.5 -10.5s54.833 -14.833 73.5 -23.5zM370.996 399.002
c-7.33301 4 -16.6699 6.66699 -28.0029 8s-22.666 2 -33.999 2c-21.333 0 -41.166 -6.33301 -59.499 -19s-34.166 -30 -47.499 -52s-23.833 -47.833 -31.5 -77.5s-11.5 -61.5 -11.5 -95.5c0 -21.333 4.5 -38.333 13.5 -51s20.833 -19 35.5 -19c11.333 0 23 3.5 35 10.5
s23.5 15.833 34.5 26.5s20.833 22.5 29.5 35.5s15.667 25.167 21 36.5z" />
    <glyph glyph-name="h" unicode="h" horiz-adv-x="528" 
d="M309 0l59.998 284.001c6.66699 29.333 10 53.666 10 72.999c0 17.333 -3.33301 29.833 -10 37.5s-17 11.5 -31 11.5c-12.667 0 -26 -4 -40 -12s-27.333 -18 -40 -30s-24.167 -24.833 -34.5 -38.5s-18.166 -26.167 -23.499 -37.5l-59 -288h-123l148 700h123l-63 -288h4
c8.66699 10.667 19.167 22 31.5 34s26 23 41 33s31.333 18.333 49 25s36.834 10 57.501 10c32 0 56.833 -8 74.5 -24s26.5 -44.333 26.5 -85c0 -24.667 -4 -56 -12 -94l-66 -311h-123z" />
    <glyph glyph-name="i" unicode="i" horiz-adv-x="256" 
d="M133 500h123l-106 -500h-123zM152 642c0 22 7.16699 39 21.5 51s32.5 18 54.5 18c21.333 0 39.5 -6 54.5 -18s22.5 -29 22.5 -51c0 -21.333 -7.5 -38.166 -22.5 -50.499s-33.167 -18.5 -54.5 -18.5c-22 0 -40.167 6.16699 -54.5 18.5s-21.5 29.166 -21.5 50.499z" />
    <glyph glyph-name="j" unicode="j" horiz-adv-x="244" 
d="M123 500l124.001 0.00195312l-111 -521c-12.667 -60 -34 -105.833 -64 -137.5s-70.667 -47.5 -122 -47.5c-20.667 0 -41.334 2.33301 -62.001 7l24 106c16.667 -1.33301 31 0.166992 43 4.5s22.167 11.166 30.5 20.499s15.333 21.166 21 35.499s10.5 30.5 14.5 48.5z
M141.001 642.002c0 22 7.16699 39 21.5 51s32.5 18 54.5 18c21.333 0 39.5 -6 54.5 -18s22.5 -29 22.5 -51c0 -21.333 -7.5 -38.166 -22.5 -50.499s-33.167 -18.5 -54.5 -18.5c-22 0 -40.167 6.16699 -54.5 18.5s-21.5 29.166 -21.5 50.499z" />
    <glyph glyph-name="k" unicode="k" horiz-adv-x="465" 
d="M224 207h-40l-43 -207h-123l148 700h123l-88 -413l37 13l141 200h137l-149 -201l-60 -38l45 -38l76 -223h-132z" />
    <glyph glyph-name="l" unicode="l" horiz-adv-x="272" 
d="M168 148c-4 -19.333 -3.83398 -33.667 0.499023 -43s11.5 -14 21.5 -14c18.667 0 36.334 3.66699 53.001 11l-3 -89c-12 -7.33301 -29.333 -13.333 -52 -18s-45 -7 -67 -7c-28.667 0 -50.5 5.5 -65.5 16.5s-22.5 31.5 -22.5 61.5c0 15.333 2 33 6 53l123 581h123z" />
    <glyph glyph-name="m" unicode="m" horiz-adv-x="767" 
d="M283 0l56.9951 272c4 18.667 7.16699 35.167 9.5 49.5s3.5 27.166 3.5 38.499c0 30.667 -11.667 46 -35 46c-11.333 0 -22.666 -3 -33.999 -9s-21.833 -13.667 -31.5 -23s-18.667 -19.5 -27 -30.5s-15.166 -21.5 -20.499 -31.5l-64 -312h-123l106 500h96l-6 -88h4
c10 10.667 20.833 22 32.5 34s24.834 23 39.501 33s31 18.333 49 25s37.667 10 59 10c26.667 0 46.834 -9.66699 60.501 -29s19.834 -45 18.501 -77c10 12.667 21.5 25.334 34.5 38.001s27 24 42 34s31 18.167 48 24.5s34.5 9.5 52.5 9.5
c30.667 0 54.167 -7.16699 70.5 -21.5s24.5 -41.166 24.5 -80.499c0 -28.667 -5 -66 -15 -112l-63 -300h-123l59 281c3.33301 15.333 6 29.666 8 42.999s3 25 3 35c0 15.333 -2.83301 27 -8.5 35s-15.167 12 -28.5 12c-10.667 0 -21.5 -3.16699 -32.5 -9.5
s-21.5 -14.333 -31.5 -24s-19.167 -20.167 -27.5 -31.5s-14.833 -22 -19.5 -32l-64 -309h-123z" />
    <glyph glyph-name="n" unicode="n" horiz-adv-x="521" 
d="M299 0l65.999 309.999c4 18.667 6 35 6 49c0 14.667 -3 26.167 -9 34.5s-17 12.5 -33 12.5c-12 0 -24 -3 -36 -9s-23.333 -14 -34 -24s-20.667 -21.167 -30 -33.5s-17.333 -24.833 -24 -37.5l-64 -302h-123l106 500h93l-5 -88h4c8.66699 10.667 18.834 22 30.501 34
s25.167 23 40.5 33s32.5 18.333 51.5 25s40.5 10 64.5 10c30 0 54 -8.16699 72 -24.5s27 -43.5 27 -81.5c0 -10 -0.5 -20.667 -1.5 -32s-3.16699 -23.666 -6.5 -36.999l-72 -339h-123z" />
    <glyph glyph-name="o" unicode="o" horiz-adv-x="496" 
d="M34 162c0 52.667 7.50195 100.667 22.502 144s35 80.333 60 111s54 54.5 87 71.5s67.5 25.5 103.5 25.5c32 0 59 -5 81 -15s39.833 -23.333 53.5 -40s23.5 -35.667 29.5 -57s9 -43.333 9 -66c0 -52 -7.33301 -99.5 -22 -142.5s-34.334 -79.833 -59.001 -110.5
s-53.334 -54.5 -86.001 -71.5s-67 -25.5 -103 -25.5c-31.333 0 -58 5.16699 -80 15.5s-40.167 23.833 -54.5 40.5s-24.833 35.5 -31.5 56.5s-10 42.167 -10 63.5zM161.002 179c0 -60 21.667 -90.002 65 -90.002c16 0 31.667 7 47 21s29 32.333 41 55
s21.5 48.334 28.5 77.001s10.5 57.334 10.5 86.001c0 26.667 -4.5 47.167 -13.5 61.5s-25.833 21.5 -50.5 21.5c-16 0 -31.667 -6.66699 -47 -20s-29 -30.833 -41 -52.5s-21.667 -46.5 -29 -74.5s-11 -56.333 -11 -85z" />
    <glyph glyph-name="p" unicode="p" horiz-adv-x="506" 
d="M122 500l90.998 0.00292969l-5 -88h4c9.33301 12.667 20 25.167 32 37.5s25.333 23.166 40 32.499s30.334 17 47.001 23s34.667 9 54 9c34 0 61.333 -11.667 82 -35s31 -60 31 -110c0 -56.667 -7.5 -108.5 -22.5 -155.5s-35 -87.333 -60 -121
s-54.333 -59.834 -88 -78.501s-68.834 -28 -105.501 -28c-17.333 0 -33.666 1.66699 -48.999 5s-26.666 7.66602 -33.999 12.999l-43 -204h-122zM159.998 106.003c16.667 -11.333 35.333 -16.999 56 -16.999s40.334 7 59.001 21s35.167 32.667 49.5 56
s25.666 50.5 33.999 81.5s12.5 63.5 12.5 97.5c0 19.333 -4.5 35.166 -13.5 47.499s-21.167 18.5 -36.5 18.5c-12 0 -23.667 -3 -35 -9s-22 -13.5 -32 -22.5s-19 -19.167 -27 -30.5s-15 -22.333 -21 -33z" />
    <glyph glyph-name="q" unicode="q" horiz-adv-x="501" 
d="M356 -200l-119.998 0.00195312l61 278h-4c-6.66699 -11.333 -14.834 -22.333 -24.501 -33s-20.667 -20.5 -33 -29.5s-25.833 -16.167 -40.5 -21.5s-30.334 -8 -47.001 -8c-22 0 -40.5 4.16699 -55.5 12.5s-27.167 19.666 -36.5 33.999s-16.166 30.666 -20.499 48.999
s-6.5 37.5 -6.5 57.5c0 50.667 8.16699 98.667 24.5 144s38.666 85 66.999 119s61.333 60.833 99 80.5s77.5 29.5 119.5 29.5c32 0 63.167 -3.5 93.5 -10.5s53.833 -15.167 70.5 -24.5zM364.002 399.002c-9.33301 4 -19.002 6.66699 -29.002 8s-20 2 -30 2
c-20 0 -39.167 -7.16699 -57.5 -21.5s-34.166 -33.333 -47.499 -57s-24 -50.834 -32 -81.501s-12 -62 -12 -94c0 -20.667 3.83301 -36.834 11.5 -48.501s18.167 -17.5 31.5 -17.5c12.667 0 25.334 3.83301 38.001 11.5s24.5 17.334 35.5 29.001s21 24.334 30 38.001
s16.167 26.5 21.5 38.5z" />
    <glyph glyph-name="r" unicode="r" horiz-adv-x="343" 
d="M215 500l1 -88.001h4c14.667 26.667 32.5 49.334 53.5 68.001s47.5 28 79.5 28c14 0 30.667 -2.66699 50 -8l-31 -107c-6.66699 2 -13 3.66699 -19 5s-12.333 2 -19 2c-27.333 0 -52.5 -8.83301 -75.5 -26.5s-40.5 -38.167 -52.5 -61.5l-65 -312h-123l106 500h91z" />
    <glyph glyph-name="s" unicode="s" horiz-adv-x="396" 
d="M38 117c13.333 -7.33301 30.498 -13.8311 51.498 -19.498s43.167 -8.5 66.5 -8.5s41.166 4.5 53.499 13.5s18.833 22.833 19.5 41.5c0 13.333 -4 24.833 -12 34.5s-18.167 18.834 -30.5 27.501s-25.5 17.5 -39.5 26.5s-27.167 19.333 -39.5 31s-22.5 25.5 -30.5 41.5
s-12 35.333 -12 58c0 22 4.33301 42.333 13 61s20.834 34.667 36.501 48s34.667 23.666 57 30.999s47.5 11 75.5 11c38.667 0 70.667 -2.83301 96 -8.5s45.333 -12.834 60 -21.501l-34 -94c-13.333 6 -29.5 11 -48.5 15s-38.833 6 -59.5 6
c-21.333 0 -38.166 -3.66699 -50.499 -11s-18.5 -19 -18.5 -35c0 -10.667 4 -20.167 12 -28.5s18.167 -16.833 30.5 -25.5s25.5 -17.5 39.5 -26.5s27.167 -19.833 39.5 -32.5s22.5 -27.167 30.5 -43.5s12 -35.833 12 -58.5c0 -55.333 -18 -96.5 -54 -123.5
s-84 -40.5 -144 -40.5c-34 0 -65.167 3.16699 -93.5 9.5s-50.166 14.166 -65.499 23.499z" />
    <glyph glyph-name="t" unicode="t" horiz-adv-x="320" 
d="M64 500l65.001 -0.000976562l20 94l131 37l-28 -131h117l-23 -103h-116l-49 -226c-4 -18 -6 -32.667 -6 -44c0 -14.667 3.33301 -24.667 10 -30s16.667 -8 30 -8c12.667 0 24.167 1.33301 34.5 4s21.166 7 32.499 13v-92c-7.33301 -4 -16.166 -7.83301 -26.499 -11.5
s-21.5 -6.66699 -33.5 -9s-24.333 -4.16602 -37 -5.49902s-24.334 -2 -35.001 -2c-34 0 -60.167 7.83301 -78.5 23.5s-27.5 39.5 -27.5 71.5c0 6.66699 0.5 13.667 1.5 21s2.16699 15 3.5 23l58 272h-67z" />
    <glyph glyph-name="u" unicode="u" horiz-adv-x="512" 
d="M241 500l-65.0029 -309.002c-4 -20 -6 -36.667 -6 -50s2.66699 -23.666 8 -30.999s14.666 -11 27.999 -11c11.333 0 22.833 2.83301 34.5 8.5s22.834 13 33.501 22s20.5 19 29.5 30s16.5 21.833 22.5 32.5l64 308h123l-63 -300
c-3.33301 -13.333 -6.16602 -29 -8.49902 -47s-4.5 -36.5 -6.5 -55.5s-3.33301 -37.167 -4 -54.5s-0.666992 -31.666 0 -42.999h-99l-5 90h-4c-9.33301 -12.667 -20.166 -25.167 -32.499 -37.5s-26 -23.5 -41 -33.5s-31.333 -18 -49 -24s-36.5 -9 -56.5 -9
c-31.333 0 -56.666 7.83301 -75.999 23.5s-29 44.5 -29 86.5c0 24.667 3.33301 51.667 10 81l69 323h123z" />
    <glyph glyph-name="v" unicode="v" horiz-adv-x="448" 
d="M209 238l2 -77h3l30 79l137 260h139l-306 -505h-76l-98 505h136z" />
    <glyph glyph-name="w" unicode="w" horiz-adv-x="678" 
d="M445 500l32 -256l-1 -83h5l30 84l116 255h120l-255 -505h-91l-35 280v63h-4l-26 -64l-150 -279h-94l-46 505h126l16 -251l-6 -89h5l34 90l132 250h92z" />
    <glyph glyph-name="x" unicode="x" horiz-adv-x="496" 
d="M166 256l-90 244h139l38 -107l13 -70l44 70l87 107h143l-195 -240l100 -260h-136l-48 120l-15 74l-45 -74l-99 -120h-143z" />
    <glyph glyph-name="y" unicode="y" horiz-adv-x="452" 
d="M216 219l0.999023 -78h6l27 79l136 280h131l-240 -449c-20 -37.333 -38.833 -71.666 -56.5 -102.999s-35.5 -58.333 -53.5 -81s-36.667 -40.334 -56 -53.001s-40 -19 -62 -19c-29.333 0 -51.333 5 -66 15l33 98c4 -2 8.16699 -3.33301 12.5 -4s8.5 -1 12.5 -1
c16 0 32.333 7.66699 49 23s33.334 40 50.001 74l-94 500h141z" />
    <glyph glyph-name="z" unicode="z" horiz-adv-x="435" 
d="M9 108l225 239l71 45h-236l24 108h372l-23 -108l-230 -243l-64 -41h234l-23 -108h-372z" />
    <glyph glyph-name="braceleft" unicode="{" horiz-adv-x="356" 
d="M122 96c7.33301 34 5.83301 57.3311 -4.5 69.998s-27.833 19 -52.5 19l22 100c24 0 44 6.83301 60 20.5s27 35.167 33 64.5l44 209c7.33301 36 21.333 65.333 42 88s49 34 85 34h114l-23 -110h-48c-17.333 0 -30.833 -4.66699 -40.5 -14s-16.834 -24.666 -21.501 -45.999
l-41 -195c-6 -29.333 -17.333 -51.5 -34 -66.5s-34 -24.167 -52 -27.5l-2 -10c16.667 -2.66699 29.834 -12.667 39.501 -30s11.5 -40 5.5 -68l-41 -194c-4.66699 -21.333 -4 -36.666 2 -45.999s18 -14 36 -14h47l-24 -110h-114c-33.333 0 -56.333 10.5 -69 31.5
s-14.667 50.833 -6 89.5z" />
    <glyph glyph-name="bar" unicode="|" horiz-adv-x="232" 
d="M94 700h106v-830h-106v830z" />
    <glyph glyph-name="braceright" unicode="}" horiz-adv-x="356" 
d="M266 375c-7.33301 -34 -5.66797 -57.334 4.99902 -70.001s28.334 -19 53.001 -19l-21 -100c-50.667 0 -82 -28.333 -94 -85l-45 -209c-7.33301 -36 -21.833 -65.333 -43.5 -88s-50.5 -34 -86.5 -34h-110l24 110h48c16.667 0 29.667 4.5 39 13.5s16.333 24.5 21 46.5
l42 195c6 29.333 17.167 51.5 33.5 66.5s33.833 24.167 52.5 27.5l3 10c-17.333 2.66699 -31 12.667 -41 30s-12 40 -6 68l41 194c4.66699 20.667 4.16699 35.834 -1.5 45.501s-17.5 14.5 -35.5 14.5h-46l22 110h113c33.333 0 56.5 -10.5 69.5 -31.5s15.5 -50.833 7.5 -89.5
z" />
    <glyph glyph-name="asciitilde" unicode="~" horiz-adv-x="505" 
d="M45 378c31.333 25.333 59.499 42.833 84.499 52.5s48.167 14.5 69.5 14.5c19.333 0 37.333 -2.83301 54 -8.5s32.667 -11.667 48 -18s30.5 -12.333 45.5 -18s30.167 -8.5 45.5 -8.5c12 0 24.333 2 37 6s26 11.667 40 23l47 -103c-24 -18 -46 -30.667 -66 -38
s-38.667 -11 -56 -11c-18.667 0 -36 3 -52 9s-31.5 12.667 -46.5 20s-30.167 14 -45.5 20s-31.666 9 -48.999 9c-16 0 -33.167 -3.5 -51.5 -10.5s-38.5 -19.833 -60.5 -38.5z" />
    <glyph glyph-name="uni00A0" unicode="&#xa0;" horiz-adv-x="253" 
 />
    <glyph glyph-name="exclamdown" unicode="&#xa1;" horiz-adv-x="279" 
d="M117 -200h-127l69 329l59 162h78l-9 -162zM100 435c0 23.333 7.33301 41.833 22 55.5s34 20.5 58 20.5c24.667 0 44.334 -6.83301 59.001 -20.5s22 -32.167 22 -55.5s-7.33301 -42 -22 -56s-34.334 -21 -59.001 -21c-24 0 -43.333 7 -58 21s-22 32.667 -22 56z" />
    <glyph glyph-name="cent" unicode="&#xa2;" 
d="M447 41c-14 -11.333 -31.1689 -21.168 -51.502 -29.501s-41.166 -14.5 -62.499 -18.5l-19 -93h-115l19 91c-22 4.66699 -41 12.334 -57 23.001s-29 23.5 -39 38.5s-17.333 31.5 -22 49.5s-7 36.667 -7 56c0 50 6.33301 95.167 19 135.5s29.834 75.5 51.501 105.5
s46.834 54.333 75.501 73s58.667 31 90 37l19 91h115l-20 -92c30.667 -6 54.667 -13.667 72 -23l-45 -98c-7.33301 4 -15.833 7.33301 -25.5 10s-19.834 4.66699 -30.501 6l-65 -305c14.667 3.33301 28.5 7.33301 41.5 12s23.833 9.66699 32.5 15zM326.998 397.998
c-14.667 -6 -28.834 -15 -42.501 -27s-25.667 -26.667 -36 -44s-18.666 -36.833 -24.999 -58.5s-9.5 -45.167 -9.5 -70.5c0 -28 4.66699 -49.667 14 -65s21.333 -26 36 -32z" />
    <glyph glyph-name="sterling" unicode="&#xa3;" 
d="M113 399l70 0.00488281c-3.33301 13.333 -6.33301 27.833 -9 43.5s-4 34.167 -4 55.5c0 37.333 7.16699 69.666 21.5 96.999s33.5 49.833 57.5 67.5s51.333 30.667 82 39s62.334 12.5 95.001 12.5c30 0 58.5 -3.16699 85.5 -9.5s48.167 -14.833 63.5 -25.5l-42 -97
c-11.333 6 -26.833 11.5 -46.5 16.5s-42.834 7.5 -69.501 7.5c-16 0 -31.5 -2.83301 -46.5 -8.5s-28 -13.834 -39 -24.501s-19.833 -23.334 -26.5 -38.001s-10 -31.334 -10 -50.001c0 -19.333 1.33301 -35.5 4 -48.5s6 -25.5 10 -37.5h140l-23 -103h-95
c0 -2.66699 0.166992 -4.83398 0.5 -6.50098s0.5 -3.83398 0.5 -6.50098c0 -33.333 -7 -63.666 -21 -90.999s-29.333 -48.333 -46 -63l-47 -30l-1 -6l67 15h218l-24 -108h-448l24 109h2c20 0.666992 39.167 5.33398 57.5 14.001s34.5 20.5 48.5 35.5s25.167 32.5 33.5 52.5
s12.5 41.667 12.5 65v10c0 3.33301 -0.333008 6.66602 -1 9.99902h-117z" />
    <glyph glyph-name="currency" unicode="&#xa4;" 
d="M117 622l78 -77.001l19 -37c13.333 10 29.166 17.5 47.499 22.5s37.5 7.5 57.5 7.5c19.333 0 38.5 -2.5 57.5 -7.5s34.833 -12.167 47.5 -21.5l20 36l78 77l77 -80l-77 -78l-38 -16c10 -14 17 -29.833 21 -47.5s6 -36.167 6 -55.5c0 -20 -2.16699 -38.833 -6.5 -56.5
s-11.166 -32.5 -20.499 -44.5l38 -16l77 -78l-77 -80l-78 77l-18 37c-12.667 -9.33301 -28.834 -16.666 -48.501 -21.999s-39.167 -8 -58.5 -8c-20 0 -39.167 2.5 -57.5 7.5s-34.166 12.167 -47.499 21.5l-19 -36l-78 -77l-76 80l77 78l36 17c-8 14 -14.333 29.167 -19 45.5
s-7 34.5 -7 54.5c0 19.333 2.5 37.333 7.5 54s11.5 32.667 19.5 48l-37 17l-77 78zM237 345.999c0 -25.333 7.66699 -46 23 -62s35.333 -24 60 -24s44.5 8 59.5 24s22.5 36.667 22.5 62c0 24 -7.5 44.333 -22.5 61s-34.833 25 -59.5 25s-44.667 -8.33301 -60 -25
s-23 -37 -23 -61z" />
    <glyph glyph-name="yen" unicode="&#xa5;" 
d="M112 337h85l-103 363h152l67 -263l-3 -74h5l30 76l173 261h142l-257 -363h87l-17 -80h-125l-12 -57h125l-17 -80h-125l-25 -120h-130l25 120h-124l17 80h124l12 57h-123z" />
    <glyph glyph-name="brokenbar" unicode="&#xa6;" horiz-adv-x="227" 
d="M60 213h107v-343h-107v343zM167 357h-107v343h107v-343z" />
    <glyph glyph-name="section" unicode="&#xa7;" horiz-adv-x="505" 
d="M85 123c13.333 -7.33301 30.168 -14.835 50.501 -22.502s44.166 -11.5 71.499 -11.5c23.333 0 42 4.5 56 13.5s21 21.5 21 37.5c0 10.667 -5.16699 19.667 -15.5 27s-23.166 14.333 -38.499 21s-32.166 13.834 -50.499 21.501s-35.166 16.834 -50.499 27.501
s-28.166 23.834 -38.499 39.501s-15.5 35.167 -15.5 58.5c0 30 8 55.5 24 76.5s34.667 39.167 56 54.5l48 16c-14.667 10.667 -25.667 23.5 -33 38.5s-11.333 30.833 -12 47.5c0 20 4.83301 39 14.5 57s23.167 33.5 40.5 46.5s38.166 23.333 62.499 31
s50.833 11.5 79.5 11.5c37.333 0 68.333 -3.83301 93 -11.5s45.667 -16.167 63 -25.5l-37 -95c-13.333 7.33301 -31.166 14 -53.499 20s-44.5 9 -66.5 9c-23.333 0 -41.333 -4.83301 -54 -14.5s-19 -22.167 -19 -37.5c0 -11.333 5.16699 -20.5 15.5 -27.5
s23.166 -13.333 38.499 -19s32 -11.5 50 -17.5s34.667 -14 50 -24s28.166 -22.833 38.499 -38.5s15.5 -35.5 15.5 -59.5c0 -32 -8.16699 -59.5 -24.5 -82.5s-34.5 -41.5 -54.5 -55.5l-51 -16c15.333 -10.667 26.666 -22.834 33.999 -36.501s10.666 -31.167 9.99902 -52.5
c-0.666992 -46 -19 -81.5 -55 -106.5s-83.667 -37.5 -143 -37.5c-36.667 0 -69 4.5 -97 13.5s-50 19.167 -66 30.5zM297.002 269.998c15.333 8 30.001 18.668 44.001 32.001s21 29.333 21 48c0 11.333 -2 20.666 -6 27.999s-10 14 -18 20s-18.333 11.5 -31 16.5
s-27.334 10.5 -44.001 16.5c-14.667 -8 -28.5 -18.667 -41.5 -32s-19.5 -29.333 -19.5 -48c0 -20.667 7.5 -36.667 22.5 -48s39.167 -22.333 72.5 -33z" />
    <glyph glyph-name="dieresis" unicode="&#xa8;" horiz-adv-x="472" 
d="M163 651c0 22 6.16699 39.167 18.5 51.5s28.166 18.5 47.499 18.5s35.166 -6.16699 47.499 -18.5s18.5 -29.5 18.5 -51.5c0 -21.333 -6.16699 -38 -18.5 -50s-28.166 -18 -47.499 -18s-35.166 6 -47.499 18s-18.5 28.667 -18.5 50zM371 652
c0 21.333 6.16699 38.166 18.5 50.499s28.166 18.5 47.499 18.5s35.166 -6.16699 47.499 -18.5s18.5 -29.166 18.5 -50.499s-6.16699 -38.166 -18.5 -50.499s-28.166 -18.5 -47.499 -18.5s-35.166 6.16699 -47.499 18.5s-18.5 29.166 -18.5 50.499z" />
    <glyph glyph-name="copyright" unicode="&#xa9;" horiz-adv-x="836" 
d="M80 290c0 55.333 9.33301 105.166 28 149.499s44.167 82.166 76.5 113.499s70.5 55.5 114.5 72.5s91.333 25.5 142 25.5s97.834 -8.5 141.501 -25.5s81.834 -41.167 114.501 -72.5s58.334 -69.166 77.001 -113.499s28 -94.166 28 -149.499
s-9.33301 -105.166 -28 -149.499s-44.334 -82.166 -77.001 -113.499s-70.834 -55.5 -114.501 -72.5s-90.834 -25.5 -141.501 -25.5c-55.333 0 -105.333 8.5 -150 25.5s-82.667 41.167 -114 72.5s-55.333 69.166 -72 113.499s-25 94.166 -25 149.499zM177 290
c0 -41.333 6.66699 -78.666 20 -111.999s31.666 -61.5 54.999 -84.5s51.166 -40.667 83.499 -53s67.5 -18.5 105.5 -18.5s73.167 6.16699 105.5 18.5s60.333 30 84 53s42 51.167 55 84.5s19.5 70.666 19.5 111.999s-6.5 78.666 -19.5 111.999s-31.333 61.5 -55 84.5
s-51.667 40.667 -84 53s-67.5 18.5 -105.5 18.5s-73.167 -6.16699 -105.5 -18.5s-60.166 -30 -83.499 -53s-41.666 -51.167 -54.999 -84.5s-20 -70.666 -20 -111.999zM566 131c-14.667 -9.33301 -33.1689 -16.832 -55.502 -22.499s-46.166 -8.5 -71.499 -8.5
c-54 0 -95.167 17 -123.5 51s-42.5 80.333 -42.5 139c0 60.667 15.167 107.5 45.5 140.5s70.5 49.5 120.5 49.5c24.667 0 46.5 -2.83301 65.5 -8.5s37.167 -13.5 54.5 -23.5l-32 -86c-12 6 -22.833 10 -32.5 12s-19.167 3 -28.5 3c-19.333 0 -34.666 -6.5 -45.999 -19.5
s-17 -35.5 -17 -67.5c0 -28 6 -49.5 18 -64.5s29.333 -22.5 52 -22.5c12.667 0 24 1.16699 34 3.5s20 6.16602 30 11.499z" />
    <glyph glyph-name="ordfeminine" unicode="&#xaa;" horiz-adv-x="401" 
d="M121 674c18.667 9.33301 42.6689 17.334 72.002 24.001s63 10 101 10c40 0 68.167 -8.33301 84.5 -25s24.5 -37.334 24.5 -62.001c0 -16.667 -2.33301 -35.5 -7 -56.5s-9.83398 -42.5 -15.501 -64.5s-10.667 -43.5 -15 -64.5s-6.5 -39.5 -6.5 -55.5h-90l-3 46h-3
c-9.33301 -11.333 -23 -22.5 -41 -33.5s-41 -16.5 -69 -16.5c-15.333 0 -28.833 2.33301 -40.5 7s-21.334 11 -29.001 19s-13.5 17.167 -17.5 27.5s-6 20.833 -6 31.5c0 22.667 5 41.5 15 56.5s23.333 27.167 40 36.5s36 16 58 20s45 6 69 6c8 0 16 -0.166992 24 -0.5
s16 -0.833008 24 -1.5c5.33301 16.667 5 30.167 -1 40.5s-20 15.5 -42 15.5c-25.333 0 -46.833 -2.33301 -64.5 -7s-33.5 -9.66699 -47.5 -15zM277.002 524.001c-5.33301 0.666992 -10.834 1.16797 -16.501 1.50098s-11.167 0.5 -16.5 0.5c-20 0 -37 -3 -51 -9
s-21 -17 -21 -33c0 -8.66699 2.5 -15.834 7.5 -21.501s12.167 -8.5 21.5 -8.5c20 0 34.833 3.83301 44.5 11.5s17.834 15.5 24.501 23.5z" />
    <glyph glyph-name="guillemotleft" unicode="&#xab;" horiz-adv-x="465" 
d="M216 261l192 216l57 -58l-104 -122l-52 -37l33 -37l56 -121l-75 -54zM31 259l200 230l63 -64l-109 -126l-60 -37l39 -39l60 -126l-77 -59z" />
    <glyph glyph-name="logicalnot" unicode="&#xac;" horiz-adv-x="527" 
d="M66 412h442v-226h-120v114h-322v112z" />
    <glyph glyph-name="uni00AD" unicode="&#xad;" horiz-adv-x="343" 
d="M81 340h239l-25 -104h-239z" />
    <glyph glyph-name="registered" unicode="&#xae;" horiz-adv-x="693" 
d="M117 451c0 44.667 7.49805 84.5 22.498 119.5s35.333 64.5 61 88.5s55.667 42.333 90 55s70.5 19 108.5 19c39.333 0 76.166 -6.33301 110.499 -19s64.333 -31 90 -55s45.834 -53.5 60.501 -88.5s22 -74.833 22 -119.5c0 -45.333 -7.5 -85.5 -22.5 -120.5
s-35.5 -64.5 -61.5 -88.5s-56.167 -42.167 -90.5 -54.5s-70.5 -18.5 -108.5 -18.5c-39.333 0 -76.166 6.16699 -110.499 18.5s-64.166 30.5 -89.499 54.5s-45.333 53.5 -60 88.5s-22 75.167 -22 120.5zM210.998 451c0 -32 5 -59.998 15 -83.998s23.667 -44 41 -60
s37.333 -28 60 -36s46.667 -12 72 -12c26.667 0 51.5 3.83301 74.5 11.5s43 19.5 60 35.5s30.333 36 40 60s14.5 52.333 14.5 85c0 32 -5 60 -15 84s-23.667 44 -41 60s-37.5 28 -60.5 36s-47.167 12 -72.5 12c-28 0 -53.5 -4.33301 -76.5 -13
s-42.833 -21.334 -59.5 -38.001s-29.5 -36.834 -38.5 -60.501s-13.5 -50.5 -13.5 -80.5zM295.998 581.002c10.667 3.33301 25.668 5.83203 45.001 7.49902s37.666 2.5 54.999 2.5c28 0 52 -5.83301 72 -17.5s30 -31.834 30 -60.501
c0 -21.333 -6.83301 -37.666 -20.5 -48.999s-30.5 -17.666 -50.5 -18.999l28 -14l65 -109h-61l-63 104l-48 15v-119h-52v259zM384.999 546.001c-7.33301 0 -14.333 -0.166992 -21 -0.5s-12 -1.5 -16 -3.5v-71h34c19.333 0 34.333 3 45 9s16 16.333 16 31
c0 23.333 -19.333 35 -58 35z" />
    <glyph glyph-name="macron" unicode="&#xaf;" horiz-adv-x="421" 
d="M157 658h308l-19 -92h-308z" />
    <glyph glyph-name="degree" unicode="&#xb0;" horiz-adv-x="437" 
d="M121 548c0 24.667 4.33301 47.166 13 67.499s20.5 37.833 35.5 52.5s32.5 26 52.5 34s41 12 63 12c22.667 0 44.167 -3.66699 64.5 -11s38 -18.166 53 -32.499s26.833 -31.833 35.5 -52.5s13 -44 13 -70s-4.33301 -49.167 -13 -69.5s-20.5 -37.5 -35.5 -51.5
s-32.667 -24.667 -53 -32s-41.833 -11 -64.5 -11c-22 0 -43 3.66699 -63 11s-37.5 18 -52.5 32s-26.833 31.167 -35.5 51.5s-13 43.5 -13 69.5zM221 547.999c0 -21.333 6.33301 -38.166 19 -50.499s28 -18.5 46 -18.5s33.333 6.16699 46 18.5s19 29.166 19 50.499
s-6.33301 38.5 -19 51.5s-28 19.5 -46 19.5s-33.333 -6.5 -46 -19.5s-19 -30.167 -19 -51.5z" />
    <glyph glyph-name="plusminus" unicode="&#xb1;" horiz-adv-x="505" 
d="M58 517h162v165h117v-165h162v-112h-162v-106h-117v106h-162v112zM58 253h441v-112h-441v112z" />
    <glyph glyph-name="twosuperior" unicode="&#xb2;" horiz-adv-x="402" 
d="M446 707c-0.666992 -40 -13.165 -76.665 -37.498 -109.998s-58.166 -66 -101.499 -98l-50 -25v-4l57 11h101l-22 -101h-297l16 71c19.333 12 41.666 26.667 66.999 44s49.166 35.666 71.499 54.999s41.166 39.166 56.499 59.499s23.333 39.5 24 57.5
c0 12 -3.16699 21.333 -9.5 28s-18.166 10 -35.499 10s-34.333 -3 -51 -9s-31.334 -12.333 -44.001 -19l-14 90c24.667 14 50.167 24.167 76.5 30.5s50.833 9.5 73.5 9.5c38 0 67.333 -8.66699 88 -26s31 -42 31 -74z" />
    <glyph glyph-name="threesuperior" unicode="&#xb3;" horiz-adv-x="402" 
d="M227 468c32.667 0 56 6.16895 70 18.502s20.667 26.166 20 41.499c0 14 -4.66699 24 -14 30s-30.333 9.33301 -63 10h-41l8 38l85 81l46 24l-56 -6h-108l21 95h269l-14 -62l-102 -93l-35 -17v-5l27 3c24.667 -1.33301 45 -10 61 -26s24 -37 24 -63
c0 -28 -5.16699 -52.333 -15.5 -73s-24.5 -37.667 -42.5 -51s-39.333 -23.333 -64 -30s-51.334 -10 -80.001 -10c-24 0 -46.5 2.16699 -67.5 6.5s-38.167 10.166 -51.5 17.499l40 90c26.667 -12.667 54.334 -19 83.001 -19z" />
    <glyph glyph-name="acute" unicode="&#xb4;" horiz-adv-x="267" 
d="M210 720h125l-6 -30l-133 -124h-69z" />
    <glyph glyph-name="mu" unicode="&#xb5;" horiz-adv-x="542" 
d="M238 500l-59.0029 -272.999c-4.66699 -20.667 -7 -40.334 -7 -59.001c0 -23.333 5.33301 -41.166 16 -53.499s27.667 -18.5 51 -18.5c30 0 55.333 8 76 24s37.667 37.667 51 65l68 315h123l-72 -337c-5.33301 -27.333 -10.166 -54.833 -14.499 -82.5
s-6.16602 -54.5 -5.49902 -80.5h-90l-17 74h-3c-16 -23.333 -36.167 -43.5 -60.5 -60.5s-53.166 -25.5 -86.499 -25.5c-25.333 0 -44 5.66699 -56 17s-20.667 25.666 -26 42.999h-5l-4 -115l-28 -133h-123l148 700h124z" />
    <glyph glyph-name="mu" unicode="&#x3bc;" horiz-adv-x="542" 
d="M238 500l-59.0029 -272.999c-4.66699 -20.667 -7 -40.334 -7 -59.001c0 -23.333 5.33301 -41.166 16 -53.499s27.667 -18.5 51 -18.5c30 0 55.333 8 76 24s37.667 37.667 51 65l68 315h123l-72 -337c-5.33301 -27.333 -10.166 -54.833 -14.499 -82.5
s-6.16602 -54.5 -5.49902 -80.5h-90l-17 74h-3c-16 -23.333 -36.167 -43.5 -60.5 -60.5s-53.166 -25.5 -86.499 -25.5c-25.333 0 -44 5.66699 -56 17s-20.667 25.666 -26 42.999h-5l-4 -115l-28 -133h-123l148 700h124z" />
    <glyph glyph-name="paragraph" unicode="&#xb6;" horiz-adv-x="538" 
d="M399 700h106v-830h-106v830zM214 294c-22 0 -42.332 5.50098 -60.999 16.501s-34.834 26 -48.501 45s-24.167 40.667 -31.5 65s-11 50.166 -11 77.499c0 26.667 4.33301 52.167 13 76.5s21 45.833 37 64.5s35.333 33.5 58 44.5s48 16.5 76 16.5h74v-830h-106v424z" />
    <glyph glyph-name="periodcentered" unicode="&#xb7;" horiz-adv-x="253" 
d="M73 316c0 23.333 7.33301 41.833 22 55.5s34 20.5 58 20.5c24.667 0 44.334 -6.83301 59.001 -20.5s22 -32.167 22 -55.5s-7.33301 -42 -22 -56s-34.334 -21 -59.001 -21c-24 0 -43.333 7 -58 21s-22 32.667 -22 56z" />
    <glyph glyph-name="cedilla" unicode="&#xb8;" horiz-adv-x="284" 
d="M112 -43c22.667 -1.33301 40 -8.33203 52 -20.999s18 -28.667 18 -48c0 -17.333 -3.83301 -32.333 -11.5 -45s-18 -23.167 -31 -31.5s-28.333 -14.5 -46 -18.5s-36.5 -6 -56.5 -6c-25.333 0 -51 3 -77 9l20 48c34 -3.33301 57.333 -1.33301 70 6s19 15.666 19 24.999
c0 21.333 -26 31.333 -78 30l75 95h79z" />
    <glyph glyph-name="onesuperior" unicode="&#xb9;" horiz-adv-x="402" 
d="M140 480h93l35 164l19 46l-35 -32l-63 -37l-34 73l175 113h82l-70 -327h83l-21 -100h-285z" />
    <glyph glyph-name="ordmasculine" unicode="&#xba;" horiz-adv-x="399" 
d="M60 499c0 36 6.16602 67.3301 18.499 93.9971s28.5 48.834 48.5 66.501s42.167 30.834 66.5 39.501s48.5 13 72.5 13c44 0 77.5 -10.167 100.5 -30.5s34.5 -50.166 34.5 -89.499c0 -38 -5.66699 -70.833 -17 -98.5s-26.666 -50.5 -45.999 -68.5s-41.5 -31.333 -66.5 -40
s-50.833 -13 -77.5 -13c-41.333 0 -74 11.5 -98 34.5s-36 53.833 -36 92.5zM169.999 504.997c-0.666992 -14.667 2.66504 -26.5 9.99805 -35.5s18 -13.5 32 -13.5c22 0 40.667 11.5 56 34.5s23 52.5 23 88.5c0 32.667 -14.333 49 -43 49
c-11.333 0 -21.666 -3.33301 -30.999 -10s-17.666 -15.5 -24.999 -26.5s-13 -24 -17 -39s-5.66699 -30.833 -5 -47.5z" />
    <glyph glyph-name="guillemotright" unicode="&#xbb;" horiz-adv-x="465" 
d="M280 270l-191 -220l-58 57l104 123l52 37l-35 38l-55 121l76 53zM465 268l-200 -230l-63 63l109 126l57 43l-37 39l-62 124l85 56z" />
    <glyph glyph-name="onequarter" unicode="&#xbc;" horiz-adv-x="840" 
d="M618 715l85 -50l-430 -679l-86 53zM766 78h-72l-17 -78h-96l17 78h-196l14 67l265 283h87l-55 -261h72zM635 253l17 53h-5l-31 -49l-60 -66l-41 -32l52 8h50zM231 544l20 46l-36 -32l-63 -36l-37 75l179 110h81l-91 -427h-109z" />
    <glyph glyph-name="onehalf" unicode="&#xbd;" horiz-adv-x="862" 
d="M619 715l85 -50l-430 -679l-86 53zM824 327c-0.666992 -40 -13.165 -76.665 -37.498 -109.998s-58.166 -66 -101.499 -98l-50 -25v-4l57 11h101l-22 -101h-297l16 71c19.333 12 41.666 26.667 66.999 44s49.166 35.666 71.499 54.999s41.166 39.166 56.499 59.499
s23.333 39.5 24 57.5c0 12 -3.16699 21.333 -9.5 28s-18.166 10 -35.499 10s-34.333 -3 -51 -9s-31.334 -12.333 -44.001 -19l-14 90c24.667 14 50.167 24.167 76.5 30.5s50.833 9.5 73.5 9.5c38 0 67.333 -8.66699 88 -26s31 -42 31 -74zM231.002 544.002l20 46l-36 -32
l-63 -36l-37 75l179 110h81l-91 -427h-109z" />
    <glyph glyph-name="threequarters" unicode="&#xbe;" horiz-adv-x="864" 
d="M643 715l85 -50l-430 -679l-86 53zM791 78h-72l-17 -78h-96l17 78h-196l14 67l265 283h87l-55 -261h72zM660 253l17 53h-5l-31 -49l-60 -66l-41 -32l52 8h50zM187 368c32.667 0 56 6.16895 70 18.502s20.667 26.166 20 41.499c0 14 -4.66699 24 -14 30
s-30.333 9.33301 -63 10h-41l8 38l85 81l46 24l-56 -6h-108l21 95h269l-14 -62l-102 -93l-35 -17v-5l27 3c24.667 -1.33301 45 -10 61 -26s24 -37 24 -63c0 -28 -5.16699 -52.333 -15.5 -73s-24.5 -37.667 -42.5 -51s-39.333 -23.333 -64 -30s-51.334 -10 -80.001 -10
c-24 0 -46.5 2.16699 -67.5 6.5s-38.167 10.166 -51.5 17.499l40 90c26.667 -12.667 54.334 -19 83.001 -19z" />
    <glyph glyph-name="questiondown" unicode="&#xbf;" horiz-adv-x="430" 
d="M332 293c-4 -35.333 -12.168 -65.8359 -24.501 -91.5029s-26.666 -48 -42.999 -67s-33.666 -35.667 -51.999 -50s-35 -28.166 -50 -41.499s-27.5 -27 -37.5 -41s-15 -30.333 -15 -49c0 -18 5.16699 -32 15.5 -42s28.833 -15 55.5 -15c20.667 0 43.334 4.5 68.001 13.5
s46.667 19.833 66 32.5l30 -94c-27.333 -17.333 -57 -31.666 -89 -42.999s-71 -17 -117 -17c-56 0 -97 11.833 -123 35.5s-39 55.5 -39 95.5c0 35.333 5.33301 65 16 89s24.334 45.167 41.001 63.5s35.167 34.833 55.5 49.5s39.666 30 57.999 46s34.666 33.833 48.999 53.5
s24.166 43.834 29.499 72.501h106zM212.999 434.997c0 23.333 7.33301 41.833 22 55.5s34 20.5 58 20.5c24.667 0 44.334 -6.83301 59.001 -20.5s22 -32.167 22 -55.5s-7.33301 -42 -22 -56s-34.334 -21 -59.001 -21c-24 0 -43.333 7 -58 21s-22 32.667 -22 56z" />
    <glyph glyph-name="Agrave" unicode="&#xc0;" horiz-adv-x="582" 
d="M387 155h-204l-83 -155h-138l389 705h96l91 -705h-131zM240 265h142l-16 156l1 110h-5l-40 -111zM491 752h-90l-131 88l6 30h140z" />
    <glyph glyph-name="Aacute" unicode="&#xc1;" horiz-adv-x="582" 
d="M387 155h-204l-83 -155h-138l389 705h96l91 -705h-131zM240 265h142l-16 156l1 110h-5l-40 -111zM441 870h157l-6 -30l-172 -88h-104z" />
    <glyph glyph-name="Acircumflex" unicode="&#xc2;" horiz-adv-x="582" 
d="M387 155h-204l-83 -155h-138l389 705h96l91 -705h-131zM240 265h142l-16 156l1 110h-5l-40 -111zM388 870h87l101 -93l-8 -39h-88l-45 41l-13 34l-27 -33l-67 -42h-94l9 40z" />
    <glyph glyph-name="Atilde" unicode="&#xc3;" horiz-adv-x="582" 
d="M387 155h-204l-83 -155h-138l389 705h96l91 -705h-131zM240 265h142l-16 156l1 110h-5l-40 -111zM240 800c25.333 23.333 48.334 39.335 69.001 48.002s40 13 58 13c14 0 27.5 -1.83301 40.5 -5.5s25.667 -7.66699 38 -12s24.333 -8.33301 36 -12s23.5 -5.5 35.5 -5.5
c10 0 20 1.66699 30 5s20.333 9.66602 31 18.999l10 -67c-22 -18 -42 -30.333 -60 -37s-35 -10 -51 -10c-14 0 -27.167 1.83301 -39.5 5.5s-24.5 7.5 -36.5 11.5s-23.833 7.83301 -35.5 11.5s-23.834 5.5 -36.501 5.5c-12 0 -24.5 -2.33301 -37.5 -7
s-27.167 -13.334 -42.5 -26.001z" />
    <glyph glyph-name="Adieresis" unicode="&#xc4;" horiz-adv-x="582" 
d="M387 155h-204l-83 -155h-138l389 705h96l91 -705h-131zM240 265h142l-16 156l1 110h-5l-40 -111zM246 798c0 19.333 6.66699 33.833 20 43.5s30.666 14.5 51.999 14.5s38.666 -4.83301 51.999 -14.5s20 -24.167 20 -43.5s-6.66699 -33.666 -20 -42.999
s-30.666 -14 -51.999 -14s-38.666 4.66699 -51.999 14s-20 23.666 -20 42.999zM450 798c0 19.333 6.66699 33.833 20 43.5s30.666 14.5 51.999 14.5s38.666 -4.83301 51.999 -14.5s20 -24.167 20 -43.5s-6.66699 -33.666 -20 -42.999s-30.666 -14 -51.999 -14
s-38.666 4.66699 -51.999 14s-20 23.666 -20 42.999z" />
    <glyph glyph-name="Aring" unicode="&#xc5;" horiz-adv-x="582" 
d="M286 771c0 12 2.00195 23.501 6.00195 34.501s10.833 20.667 20.5 29s22.667 14.833 39 19.5s37.166 7 62.499 7c46.667 0 79.667 -8 99 -24s29 -38 29 -66c0 -21.333 -6.83301 -39.833 -20.5 -55.5s-37.834 -25.5 -72.501 -29.5l89 -686h-131l-20 155h-204l-83 -155
h-138l382 693c-21.333 7.33301 -36.333 17.666 -45 30.999s-13 29 -13 47zM382.002 265.001l-16 156l1 110h-5l-40 -111l-82 -155h142zM370.002 771.001c0 -20.667 14.666 -31 43.999 -31c16.667 0 28.334 2.66699 35.001 8s10 13 10 23c0 22 -15 33 -45 33
c-29.333 0 -44 -11 -44 -33z" />
    <glyph glyph-name="AE" unicode="&#xc6;" horiz-adv-x="826" 
d="M449 530l-44 -94l-116 -155h114l52 249h-6zM379 170h-171l-128 -170h-146l547 700h133h271l-26 -122h-264l-35 -163h241l-26 -122h-240l-36 -171h269l-26 -122h-261h-138z" />
    <glyph glyph-name="Ccedilla" unicode="&#xc7;" horiz-adv-x="537" 
d="M483 29c-43.333 -28 -95.668 -42.3369 -157.001 -43.0039l-22 -29c22.667 -1.33301 40 -8.16602 52 -20.499s18 -28.166 18 -47.499c0 -17.333 -3.83301 -32.333 -11.5 -45s-18 -23.167 -31 -31.5s-28.333 -14.5 -46 -18.5s-36.5 -6 -56.5 -6c-25.333 0 -51 3 -77 9
l20 48c34 -3.33301 57.333 -1.33301 70 6s19 15.666 19 24.999c0 11.333 -6.66699 19.166 -20 23.499s-32.666 6.16602 -57.999 5.49902l69 88c-32.667 6.66699 -61.167 18.5 -85.5 35.5s-44.5 37.833 -60.5 62.5s-28 52.334 -36 83.001s-12 63.334 -12 98.001
c0 78.667 11 145.834 33 201.501s51 101.334 87 137.001s77.167 61.834 123.5 78.501s93.833 25 142.5 25c38 0 70.5 -2.83301 97.5 -8.5s48.167 -12.167 63.5 -19.5l-51 -116c-13.333 7.33301 -29.333 12.833 -48 16.5s-42.334 5.5 -71.001 5.5c-34 0 -65.667 -7 -95 -21
s-54.666 -34 -75.999 -60s-38.166 -57.667 -50.499 -95s-18.5 -79.666 -18.5 -126.999c0 -56.667 14.167 -101 42.5 -133s66.166 -48 113.499 -48c30 0 54.833 3.16699 74.5 9.5s38.167 14.166 55.5 23.499z" />
    <glyph glyph-name="Egrave" unicode="&#xc8;" horiz-adv-x="503" 
d="M168 700h130h264l-26 -122h-264l-35 -163h241l-27 -122h-239l-37 -171h269l-25 -122h-269h-130zM452 752h-90l-131 88l6 30h140z" />
    <glyph glyph-name="Eacute" unicode="&#xc9;" horiz-adv-x="503" 
d="M168 700h130h264l-26 -122h-264l-35 -163h241l-27 -122h-239l-37 -171h269l-25 -122h-269h-130zM423 870h157l-6 -30l-172 -88h-104z" />
    <glyph glyph-name="Ecircumflex" unicode="&#xca;" horiz-adv-x="503" 
d="M168 700h130h264l-26 -122h-264l-35 -163h241l-27 -122h-239l-37 -171h269l-25 -122h-269h-130zM359 870h87l101 -93l-8 -39h-88l-45 41l-13 34l-27 -33l-67 -42h-94l9 40z" />
    <glyph glyph-name="Edieresis" unicode="&#xcb;" horiz-adv-x="503" 
d="M168 700h130h264l-26 -122h-264l-35 -163h241l-27 -122h-239l-37 -171h269l-25 -122h-269h-130zM210 798c0 19.333 6.66699 33.833 20 43.5s30.666 14.5 51.999 14.5s38.666 -4.83301 51.999 -14.5s20 -24.167 20 -43.5s-6.66699 -33.666 -20 -42.999
s-30.666 -14 -51.999 -14s-38.666 4.66699 -51.999 14s-20 23.666 -20 42.999zM414 798c0 19.333 6.66699 33.833 20 43.5s30.666 14.5 51.999 14.5s38.666 -4.83301 51.999 -14.5s20 -24.167 20 -43.5s-6.66699 -33.666 -20 -42.999s-30.666 -14 -51.999 -14
s-38.666 4.66699 -51.999 14s-20 23.666 -20 42.999z" />
    <glyph glyph-name="Igrave" unicode="&#xcc;" horiz-adv-x="278" 
d="M183 700h129l-148 -700h-129zM334 752h-90l-131 88l6 30h140z" />
    <glyph glyph-name="Iacute" unicode="&#xcd;" horiz-adv-x="278" 
d="M183 700h129l-148 -700h-129zM303 870h157l-6 -30l-172 -88h-104z" />
    <glyph glyph-name="Icircumflex" unicode="&#xce;" horiz-adv-x="278" 
d="M183 700h129l-148 -700h-129zM241 870h87l101 -93l-8 -39h-88l-45 41l-13 34l-27 -33l-67 -42h-94l9 40z" />
    <glyph glyph-name="Idieresis" unicode="&#xcf;" horiz-adv-x="278" 
d="M183 700h129l-148 -700h-129zM92 798c0 19.333 6.66699 33.833 20 43.5s30.666 14.5 51.999 14.5s38.666 -4.83301 51.999 -14.5s20 -24.167 20 -43.5s-6.66699 -33.666 -20 -42.999s-30.666 -14 -51.999 -14s-38.666 4.66699 -51.999 14s-20 23.666 -20 42.999zM296 798
c0 19.333 6.66699 33.833 20 43.5s30.666 14.5 51.999 14.5s38.666 -4.83301 51.999 -14.5s20 -24.167 20 -43.5s-6.66699 -33.666 -20 -42.999s-30.666 -14 -51.999 -14s-38.666 4.66699 -51.999 14s-20 23.666 -20 42.999z" />
    <glyph glyph-name="Eth" unicode="&#xd0;" horiz-adv-x="640" 
d="M40 401l84.998 -0.00195312l63 299c14 2 29.333 3.66699 46 5s32.5 2.33301 47.5 3s27.167 1 36.5 1c6.66699 0 15.334 0.166992 26.001 0.5s22.334 0.5 35.001 0.5c41.333 0 78.666 -5.16699 111.999 -15.5s61.833 -26.166 85.5 -47.499s42 -48.666 55 -81.999
s19.5 -73 19.5 -119c0 -29.333 -2.5 -60.833 -7.5 -94.5s-13.5 -67.5 -25.5 -101.5s-28.5 -66.667 -49.5 -98s-47.333 -59 -79 -83s-69.667 -43.333 -114 -58s-95.833 -22 -154.5 -22c-10 0 -19.667 0.166992 -29 0.5s-16.666 0.5 -21.999 0.5
c-12 0.666992 -26.5 1.5 -43.5 2.5s-33.667 2 -50 3s-28.5 2.16699 -36.5 3.5l68 322h-85zM253.998 400.998l131.998 -0.000976562l-17 -80h-132l-43 -207c2.66699 -0.666992 6.83398 -1.16699 12.501 -1.5s11.834 -0.666016 18.501 -0.999023s13 -0.5 19 -0.5h14
c46.667 0 86.334 10.5 119.001 31.5s59.167 47.333 79.5 79s35 66 44 103s13.5 71.5 13.5 103.5c0 53.333 -11.167 93.333 -33.5 120s-59.833 40 -112.5 40c-12.667 0 -26.334 -0.333008 -41.001 -1s-26 -1.66699 -34 -3z" />
    <glyph glyph-name="Ntilde" unicode="&#xd1;" horiz-adv-x="631" 
d="M267 366l-33 112h-5l-9 -112l-77 -366h-123l150 705h90l172 -374l31 -109h6l7 109l79 369h123l-150 -705h-90zM259 800c25.333 23.333 48.334 39.335 69.001 48.002s40 13 58 13c14 0 27.5 -1.83301 40.5 -5.5s25.667 -7.66699 38 -12s24.333 -8.33301 36 -12
s23.5 -5.5 35.5 -5.5c10 0 20 1.66699 30 5s20.333 9.66602 31 18.999l10 -67c-22 -18 -42 -30.333 -60 -37s-35 -10 -51 -10c-14 0 -27.167 1.83301 -39.5 5.5s-24.5 7.5 -36.5 11.5s-23.833 7.83301 -35.5 11.5s-23.834 5.5 -36.501 5.5c-12 0 -24.5 -2.33301 -37.5 -7
s-27.167 -13.334 -42.5 -26.001z" />
    <glyph glyph-name="Ograve" unicode="&#xd2;" horiz-adv-x="644" 
d="M58 262c0 62 8.50195 120.501 25.502 175.501s41.167 103 72.5 144s69.166 73.333 113.499 97s93.833 35.5 148.5 35.5c36 0 68.5 -5.33301 97.5 -16s53.667 -27.167 74 -49.5s36.166 -50.5 47.499 -84.5s17 -74.333 17 -121c0 -62.667 -8.5 -121.667 -25.5 -177
s-41 -103.833 -72 -145.5s-68 -74.5 -111 -98.5s-90.5 -36 -142.5 -36c-78.667 0 -139 23.167 -181 69.5s-63.333 115.166 -64 206.499zM195.002 266.001c0 -48 9.16602 -86.332 27.499 -114.999s48.5 -43 90.5 -43c30.667 0 58.5 9.16699 83.5 27.5s46.5 43 64.5 74
s31.833 66.5 41.5 106.5s14.5 81.667 14.5 125c0 52.667 -10.333 91 -31 115s-49 36 -85 36c-30 0 -57.5 -8.66699 -82.5 -26s-46.667 -40.833 -65 -70.5s-32.666 -64.334 -42.999 -104.001s-15.5 -81.5 -15.5 -125.5zM511.001 752.002h-90l-131 88l6 30h140z" />
    <glyph glyph-name="Oacute" unicode="&#xd3;" horiz-adv-x="644" 
d="M58 262c0 62 8.50195 120.501 25.502 175.501s41.167 103 72.5 144s69.166 73.333 113.499 97s93.833 35.5 148.5 35.5c36 0 68.5 -5.33301 97.5 -16s53.667 -27.167 74 -49.5s36.166 -50.5 47.499 -84.5s17 -74.333 17 -121c0 -62.667 -8.5 -121.667 -25.5 -177
s-41 -103.833 -72 -145.5s-68 -74.5 -111 -98.5s-90.5 -36 -142.5 -36c-78.667 0 -139 23.167 -181 69.5s-63.333 115.166 -64 206.499zM195.002 266.001c0 -48 9.16602 -86.332 27.499 -114.999s48.5 -43 90.5 -43c30.667 0 58.5 9.16699 83.5 27.5s46.5 43 64.5 74
s31.833 66.5 41.5 106.5s14.5 81.667 14.5 125c0 52.667 -10.333 91 -31 115s-49 36 -85 36c-30 0 -57.5 -8.66699 -82.5 -26s-46.667 -40.833 -65 -70.5s-32.666 -64.334 -42.999 -104.001s-15.5 -81.5 -15.5 -125.5zM491.001 870.002h157l-6 -30l-172 -88h-104z" />
    <glyph glyph-name="Ocircumflex" unicode="&#xd4;" horiz-adv-x="644" 
d="M58 262c0 62 8.50195 120.501 25.502 175.501s41.167 103 72.5 144s69.166 73.333 113.499 97s93.833 35.5 148.5 35.5c36 0 68.5 -5.33301 97.5 -16s53.667 -27.167 74 -49.5s36.166 -50.5 47.499 -84.5s17 -74.333 17 -121c0 -62.667 -8.5 -121.667 -25.5 -177
s-41 -103.833 -72 -145.5s-68 -74.5 -111 -98.5s-90.5 -36 -142.5 -36c-78.667 0 -139 23.167 -181 69.5s-63.333 115.166 -64 206.499zM195.002 266.001c0 -48 9.16602 -86.332 27.499 -114.999s48.5 -43 90.5 -43c30.667 0 58.5 9.16699 83.5 27.5s46.5 43 64.5 74
s31.833 66.5 41.5 106.5s14.5 81.667 14.5 125c0 52.667 -10.333 91 -31 115s-49 36 -85 36c-30 0 -57.5 -8.66699 -82.5 -26s-46.667 -40.833 -65 -70.5s-32.666 -64.334 -42.999 -104.001s-15.5 -81.5 -15.5 -125.5zM423.001 870.002h87l101 -93l-8 -39h-88l-45 41l-13 34
l-27 -33l-67 -42h-94l9 40z" />
    <glyph glyph-name="Otilde" unicode="&#xd5;" horiz-adv-x="644" 
d="M58 262c0 62 8.50195 120.501 25.502 175.501s41.167 103 72.5 144s69.166 73.333 113.499 97s93.833 35.5 148.5 35.5c36 0 68.5 -5.33301 97.5 -16s53.667 -27.167 74 -49.5s36.166 -50.5 47.499 -84.5s17 -74.333 17 -121c0 -62.667 -8.5 -121.667 -25.5 -177
s-41 -103.833 -72 -145.5s-68 -74.5 -111 -98.5s-90.5 -36 -142.5 -36c-78.667 0 -139 23.167 -181 69.5s-63.333 115.166 -64 206.499zM195.002 266.001c0 -48 9.16602 -86.332 27.499 -114.999s48.5 -43 90.5 -43c30.667 0 58.5 9.16699 83.5 27.5s46.5 43 64.5 74
s31.833 66.5 41.5 106.5s14.5 81.667 14.5 125c0 52.667 -10.333 91 -31 115s-49 36 -85 36c-30 0 -57.5 -8.66699 -82.5 -26s-46.667 -40.833 -65 -70.5s-32.666 -64.334 -42.999 -104.001s-15.5 -81.5 -15.5 -125.5zM268.001 800.002
c25.333 23.333 48.334 39.335 69.001 48.002s40 13 58 13c14 0 27.5 -1.83301 40.5 -5.5s25.667 -7.66699 38 -12s24.333 -8.33301 36 -12s23.5 -5.5 35.5 -5.5c10 0 20 1.66699 30 5s20.333 9.66602 31 18.999l10 -67c-22 -18 -42 -30.333 -60 -37s-35 -10 -51 -10
c-14 0 -27.167 1.83301 -39.5 5.5s-24.5 7.5 -36.5 11.5s-23.833 7.83301 -35.5 11.5s-23.834 5.5 -36.501 5.5c-12 0 -24.5 -2.33301 -37.5 -7s-27.167 -13.334 -42.5 -26.001z" />
    <glyph glyph-name="Odieresis" unicode="&#xd6;" horiz-adv-x="644" 
d="M58 262c0 62 8.50195 120.501 25.502 175.501s41.167 103 72.5 144s69.166 73.333 113.499 97s93.833 35.5 148.5 35.5c36 0 68.5 -5.33301 97.5 -16s53.667 -27.167 74 -49.5s36.166 -50.5 47.499 -84.5s17 -74.333 17 -121c0 -62.667 -8.5 -121.667 -25.5 -177
s-41 -103.833 -72 -145.5s-68 -74.5 -111 -98.5s-90.5 -36 -142.5 -36c-78.667 0 -139 23.167 -181 69.5s-63.333 115.166 -64 206.499zM195.002 266.001c0 -48 9.16602 -86.332 27.499 -114.999s48.5 -43 90.5 -43c30.667 0 58.5 9.16699 83.5 27.5s46.5 43 64.5 74
s31.833 66.5 41.5 106.5s14.5 81.667 14.5 125c0 52.667 -10.333 91 -31 115s-49 36 -85 36c-30 0 -57.5 -8.66699 -82.5 -26s-46.667 -40.833 -65 -70.5s-32.666 -64.334 -42.999 -104.001s-15.5 -81.5 -15.5 -125.5zM270.001 798.002c0 19.333 6.66699 33.833 20 43.5
s30.666 14.5 51.999 14.5s38.666 -4.83301 51.999 -14.5s20 -24.167 20 -43.5s-6.66699 -33.666 -20 -42.999s-30.666 -14 -51.999 -14s-38.666 4.66699 -51.999 14s-20 23.666 -20 42.999zM474.001 798.002c0 19.333 6.66699 33.833 20 43.5s30.666 14.5 51.999 14.5
s38.666 -4.83301 51.999 -14.5s20 -24.167 20 -43.5s-6.66699 -33.666 -20 -42.999s-30.666 -14 -51.999 -14s-38.666 4.66699 -51.999 14s-20 23.666 -20 42.999z" />
    <glyph glyph-name="multiply" unicode="&#xd7;" horiz-adv-x="505" 
d="M146 547l131 -130l130 130l79 -81l-130 -127l130 -129l-79 -82l-130 131l-132 -132l-79 81l131 131l-129 127z" />
    <glyph glyph-name="Oslash" unicode="&#xd8;" horiz-adv-x="644" 
d="M58 262c0 62 8.50293 120.499 25.5029 175.499s41.167 103 72.5 144s69.166 73.333 113.499 97s93.833 35.5 148.5 35.5c57.333 0 104.666 -13.333 141.999 -40l27 32l72 -62l-37 -45c10 -20 17.833 -43 23.5 -69s8.5 -55 8.5 -87c0 -62.667 -8.5 -121.667 -25.5 -177
s-41 -103.833 -72 -145.5s-68 -74.5 -111 -98.5s-90.5 -36 -142.5 -36c-60 0 -109.667 13.667 -149 41l-27 -32l-70 64l34 42c-10.667 21.333 -18.834 45.333 -24.501 72s-8.5 56.334 -8.5 89.001zM474.003 567.999c-19.333 16 -43.668 24.001 -73.001 24.001
c-30 0 -57.5 -8.66699 -82.5 -26s-46.667 -40.833 -65 -70.5s-32.666 -64.334 -42.999 -104.001s-15.5 -81.5 -15.5 -125.5v-19c0 -6 0.666992 -12 2 -18zM239.001 132c18.667 -16 43.333 -24 74 -24s58.5 9.16699 83.5 27.5s46.5 43 64.5 74s31.833 66.5 41.5 106.5
s14.5 81.667 14.5 125v14.5c0 4.33301 -0.333008 8.83301 -1 13.5z" />
    <glyph glyph-name="Ugrave" unicode="&#xd9;" horiz-adv-x="602" 
d="M531 700l122.002 -0.000976562l-95 -452c-10 -48 -23 -88.5 -39 -121.5s-35.333 -59.833 -58 -80.5s-49.334 -35.5 -80.001 -44.5s-66 -13.5 -106 -13.5c-38.667 0 -71.334 4.5 -98.001 13.5s-48.5 21.833 -65.5 38.5s-29.333 36.334 -37 59.001s-11.5 47.667 -11.5 75
c0 13.333 0.833008 27 2.5 41s4.16699 28.667 7.5 44l94 441h129l-92 -440c-5.33301 -25.333 -8 -46 -8 -62c0 -32 8.33301 -54.667 25 -68s41 -20 73 -20c40 0 71 11.667 93 35s38.667 61 50 113zM489.002 751.999h-90l-131 88l6 30h140z" />
    <glyph glyph-name="Uacute" unicode="&#xda;" horiz-adv-x="602" 
d="M531 700l122.002 -0.000976562l-95 -452c-10 -48 -23 -88.5 -39 -121.5s-35.333 -59.833 -58 -80.5s-49.334 -35.5 -80.001 -44.5s-66 -13.5 -106 -13.5c-38.667 0 -71.334 4.5 -98.001 13.5s-48.5 21.833 -65.5 38.5s-29.333 36.334 -37 59.001s-11.5 47.667 -11.5 75
c0 13.333 0.833008 27 2.5 41s4.16699 28.667 7.5 44l94 441h129l-92 -440c-5.33301 -25.333 -8 -46 -8 -62c0 -32 8.33301 -54.667 25 -68s41 -20 73 -20c40 0 71 11.667 93 35s38.667 61 50 113zM487.002 869.999h157l-6 -30l-172 -88h-104z" />
    <glyph glyph-name="Ucircumflex" unicode="&#xdb;" horiz-adv-x="602" 
d="M531 700l122.002 -0.000976562l-95 -452c-10 -48 -23 -88.5 -39 -121.5s-35.333 -59.833 -58 -80.5s-49.334 -35.5 -80.001 -44.5s-66 -13.5 -106 -13.5c-38.667 0 -71.334 4.5 -98.001 13.5s-48.5 21.833 -65.5 38.5s-29.333 36.334 -37 59.001s-11.5 47.667 -11.5 75
c0 13.333 0.833008 27 2.5 41s4.16699 28.667 7.5 44l94 441h129l-92 -440c-5.33301 -25.333 -8 -46 -8 -62c0 -32 8.33301 -54.667 25 -68s41 -20 73 -20c40 0 71 11.667 93 35s38.667 61 50 113zM409.002 869.999h87l101 -93l-8 -39h-88l-45 41l-13 34l-27 -33l-67 -42
h-94l9 40z" />
    <glyph glyph-name="Udieresis" unicode="&#xdc;" horiz-adv-x="602" 
d="M531 700l122.002 -0.000976562l-95 -452c-10 -48 -23 -88.5 -39 -121.5s-35.333 -59.833 -58 -80.5s-49.334 -35.5 -80.001 -44.5s-66 -13.5 -106 -13.5c-38.667 0 -71.334 4.5 -98.001 13.5s-48.5 21.833 -65.5 38.5s-29.333 36.334 -37 59.001s-11.5 47.667 -11.5 75
c0 13.333 0.833008 27 2.5 41s4.16699 28.667 7.5 44l94 441h129l-92 -440c-5.33301 -25.333 -8 -46 -8 -62c0 -32 8.33301 -54.667 25 -68s41 -20 73 -20c40 0 71 11.667 93 35s38.667 61 50 113zM256.002 797.999c0 19.333 6.66699 33.833 20 43.5
s30.666 14.5 51.999 14.5s38.666 -4.83301 51.999 -14.5s20 -24.167 20 -43.5s-6.66699 -33.666 -20 -42.999s-30.666 -14 -51.999 -14s-38.666 4.66699 -51.999 14s-20 23.666 -20 42.999zM460.002 797.999c0 19.333 6.66699 33.833 20 43.5s30.666 14.5 51.999 14.5
s38.666 -4.83301 51.999 -14.5s20 -24.167 20 -43.5s-6.66699 -33.666 -20 -42.999s-30.666 -14 -51.999 -14s-38.666 4.66699 -51.999 14s-20 23.666 -20 42.999z" />
    <glyph glyph-name="Yacute" unicode="&#xdd;" horiz-adv-x="569" 
d="M231 260l-125 440h144l65 -263l-2 -74h4l31 76l175 261h149l-311 -439l-55 -261h-129zM451 870h157l-6 -30l-172 -88h-104z" />
    <glyph glyph-name="Thorn" unicode="&#xde;" horiz-adv-x="550" 
d="M169 700l128.999 0.000976562l-15 -71c8.66699 0.666992 17.334 1 26.001 1h26c34 0 65.5 -3.83301 94.5 -11.5s54.333 -19.5 76 -35.5s38.5 -36.5 50.5 -61.5s18 -54.833 18 -89.5c0 -52 -9 -95.5 -27 -130.5s-41.833 -63.333 -71.5 -85s-63.5 -37 -101.5 -46
s-76.667 -13.5 -116 -13.5h-15.5c-7 0 -14.333 0.166992 -22 0.5s-15 0.666016 -22 0.999023s-12.167 0.833008 -15.5 1.5l-33 -160h-130zM256.999 507.001c-8 -38.667 -16.002 -76.666 -24.002 -113.999s-16 -75 -24 -113
c2.66699 -0.666992 6.33398 -1.33398 11.001 -2.00098s9.83398 -1.16699 15.501 -1.5s11 -0.666016 16 -0.999023s8.83301 -0.5 11.5 -0.5c22.667 0 44.5 2.33301 65.5 7s39.5 12.5 55.5 23.5s28.833 25.5 38.5 43.5s14.5 40 14.5 66c0 20 -3.16699 36.167 -9.5 48.5
s-14.833 22.166 -25.5 29.499s-23.167 12.333 -37.5 15s-29.5 4 -45.5 4c-12 0 -23.5 -0.5 -34.5 -1.5s-20.167 -2.16699 -27.5 -3.5z" />
    <glyph glyph-name="germandbls" unicode="&#xdf;" horiz-adv-x="608" 
d="M153 528c8 38 19.6699 68.666 35.0029 91.999s33.666 41.5 54.999 54.5s45.333 21.833 72 26.5s55.667 7 87 7c34 0 62.667 -3.66699 86 -11s42.333 -17.166 57 -29.499s25.334 -26.666 32.001 -42.999s10 -33.833 10 -52.5c0 -23.333 -3.83301 -43.333 -11.5 -60
s-17.167 -31 -28.5 -43s-23.833 -22.333 -37.5 -31s-26.167 -17 -37.5 -25s-20.833 -16.333 -28.5 -25s-11.5 -18.667 -11.5 -30s3.83301 -20.666 11.5 -27.999s17.167 -14 28.5 -20s23.833 -12.333 37.5 -19s26.167 -15.167 37.5 -25.5s20.833 -23.333 28.5 -39
s11.5 -35.5 11.5 -59.5c0 -26 -5.83301 -50.167 -17.5 -72.5s-27.667 -41.5 -48 -57.5s-44.333 -28.5 -72 -37.5s-57.5 -13.5 -89.5 -13.5c-27.333 0 -54.333 3.83301 -81 11.5s-48.334 17.167 -65.001 28.5l56 97c14 -8.66699 28.833 -16.334 44.5 -23.001
s34.834 -10 57.501 -10c10 0 20 1.66699 30 5s19 8 27 14s14.5 13.5 19.5 22.5s7.5 19.167 7.5 30.5c0 12.667 -3.83301 23.167 -11.5 31.5s-17.334 15.833 -29.001 22.5s-24.334 13.5 -38.001 20.5s-26.334 15.333 -38.001 25s-21.334 21.5 -29.001 35.5
s-11.5 31.667 -11.5 53c0 19.333 3.83301 36.166 11.5 50.499s17.334 26.833 29.001 37.5s24.167 20.167 37.5 28.5s25.833 16.5 37.5 24.5s21.334 16.5 29.001 25.5s11.5 19.5 11.5 31.5c0 15.333 -6 27.833 -18 37.5s-29.333 14.5 -52 14.5
c-32 0 -57.667 -8.83301 -77 -26.5s-32.666 -46.167 -39.999 -85.5l-89 -488c-6 -34 -13 -64 -21 -90s-18.833 -47.667 -32.5 -65s-30.5 -30.5 -50.5 -39.5s-44.667 -13.5 -74 -13.5c-24 0 -47.5 1.83301 -70.5 5.5s-42.833 11.167 -59.5 22.5l34 91
c11.333 -4.66699 22.666 -7.66699 33.999 -9s25.666 -2 42.999 -2c21.333 0 37.833 8.33301 49.5 25s20.167 41.667 25.5 75l71 398h-82l20 102h81l6 28v0z" />
    <glyph glyph-name="agrave" unicode="&#xe0;" horiz-adv-x="503" 
d="M444 200c-5.33301 -25.333 -9.16699 -51.002 -11.5 -77.002s-3.5 -50.667 -3.5 -74c0 -9.33301 0.166992 -18.166 0.5 -26.499s0.833008 -16.166 1.5 -23.499h-91l-14 86h-4c-7.33301 -12 -16.833 -23.833 -28.5 -35.5s-24.5 -22.334 -38.5 -32.001
s-28.833 -17.334 -44.5 -23.001s-31.834 -8.5 -48.501 -8.5c-44 0 -76.5 14.333 -97.5 43s-31.5 67 -31.5 115c0 48.667 6.16699 95.334 18.5 140.001s31.5 84 57.5 118s58.833 61.167 98.5 81.5s86.834 30.5 141.501 30.5c23.333 0 48.833 -2.16699 76.5 -6.5
s54.5 -10.166 80.5 -17.499zM208.999 88.998c12 0 23.333 2.5 34 7.5s20.5 11.5 29.5 19.5s17 16.667 24 26s13.167 18 18.5 26l50 233c-7.33301 3.33301 -15.833 5.83301 -25.5 7.5s-19.167 2.5 -28.5 2.5c-24 0 -45.333 -7.16699 -64 -21.5s-34.5 -33 -47.5 -56
s-22.833 -49 -29.5 -78s-10 -58.167 -10 -87.5c0 -21.333 3.5 -39.833 10.5 -55.5s19.833 -23.5 38.5 -23.5zM386.999 565.998h-69l-91 124l7 30h129z" />
    <glyph glyph-name="aacute" unicode="&#xe1;" horiz-adv-x="503" 
d="M444 200c-5.33301 -25.333 -9.16699 -51.002 -11.5 -77.002s-3.5 -50.667 -3.5 -74c0 -9.33301 0.166992 -18.166 0.5 -26.499s0.833008 -16.166 1.5 -23.499h-91l-14 86h-4c-7.33301 -12 -16.833 -23.833 -28.5 -35.5s-24.5 -22.334 -38.5 -32.001
s-28.833 -17.334 -44.5 -23.001s-31.834 -8.5 -48.501 -8.5c-44 0 -76.5 14.333 -97.5 43s-31.5 67 -31.5 115c0 48.667 6.16699 95.334 18.5 140.001s31.5 84 57.5 118s58.833 61.167 98.5 81.5s86.834 30.5 141.501 30.5c23.333 0 48.833 -2.16699 76.5 -6.5
s54.5 -10.166 80.5 -17.499zM208.999 88.998c12 0 23.333 2.5 34 7.5s20.5 11.5 29.5 19.5s17 16.667 24 26s13.167 18 18.5 26l50 233c-7.33301 3.33301 -15.833 5.83301 -25.5 7.5s-19.167 2.5 -28.5 2.5c-24 0 -45.333 -7.16699 -64 -21.5s-34.5 -33 -47.5 -56
s-22.833 -49 -29.5 -78s-10 -58.167 -10 -87.5c0 -21.333 3.5 -39.833 10.5 -55.5s19.833 -23.5 38.5 -23.5zM380.999 719.998h125l-6 -30l-133 -124h-69z" />
    <glyph glyph-name="acircumflex" unicode="&#xe2;" horiz-adv-x="503" 
d="M444 200c-5.33301 -25.333 -9.16699 -51.002 -11.5 -77.002s-3.5 -50.667 -3.5 -74c0 -9.33301 0.166992 -18.166 0.5 -26.499s0.833008 -16.166 1.5 -23.499h-91l-14 86h-4c-7.33301 -12 -16.833 -23.833 -28.5 -35.5s-24.5 -22.334 -38.5 -32.001
s-28.833 -17.334 -44.5 -23.001s-31.834 -8.5 -48.501 -8.5c-44 0 -76.5 14.333 -97.5 43s-31.5 67 -31.5 115c0 48.667 6.16699 95.334 18.5 140.001s31.5 84 57.5 118s58.833 61.167 98.5 81.5s86.834 30.5 141.501 30.5c23.333 0 48.833 -2.16699 76.5 -6.5
s54.5 -10.166 80.5 -17.499zM208.999 88.998c12 0 23.333 2.5 34 7.5s20.5 11.5 29.5 19.5s17 16.667 24 26s13.167 18 18.5 26l50 233c-7.33301 3.33301 -15.833 5.83301 -25.5 7.5s-19.167 2.5 -28.5 2.5c-24 0 -45.333 -7.16699 -64 -21.5s-34.5 -33 -47.5 -56
s-22.833 -49 -29.5 -78s-10 -58.167 -10 -87.5c0 -21.333 3.5 -39.833 10.5 -55.5s19.833 -23.5 38.5 -23.5zM344.999 731.998h82l67 -182h-96l-24 66l-4 49l-27 -49l-57 -66h-97z" />
    <glyph glyph-name="atilde" unicode="&#xe3;" horiz-adv-x="503" 
d="M444 200c-5.33301 -25.333 -9.16699 -51.002 -11.5 -77.002s-3.5 -50.667 -3.5 -74c0 -9.33301 0.166992 -18.166 0.5 -26.499s0.833008 -16.166 1.5 -23.499h-91l-14 86h-4c-7.33301 -12 -16.833 -23.833 -28.5 -35.5s-24.5 -22.334 -38.5 -32.001
s-28.833 -17.334 -44.5 -23.001s-31.834 -8.5 -48.501 -8.5c-44 0 -76.5 14.333 -97.5 43s-31.5 67 -31.5 115c0 48.667 6.16699 95.334 18.5 140.001s31.5 84 57.5 118s58.833 61.167 98.5 81.5s86.834 30.5 141.501 30.5c23.333 0 48.833 -2.16699 76.5 -6.5
s54.5 -10.166 80.5 -17.499zM208.999 88.998c12 0 23.333 2.5 34 7.5s20.5 11.5 29.5 19.5s17 16.667 24 26s13.167 18 18.5 26l50 233c-7.33301 3.33301 -15.833 5.83301 -25.5 7.5s-19.167 2.5 -28.5 2.5c-24 0 -45.333 -7.16699 -64 -21.5s-34.5 -33 -47.5 -56
s-22.833 -49 -29.5 -78s-10 -58.167 -10 -87.5c0 -21.333 3.5 -39.833 10.5 -55.5s19.833 -23.5 38.5 -23.5zM195.999 657.998c23.333 24.667 43.8359 41.668 61.5029 51.001s33.834 14 48.501 14c12 0 23.167 -2.33301 33.5 -7s20.666 -9.66699 30.999 -15
s20.666 -10.333 30.999 -15s21.5 -7 33.5 -7c9.33301 0 19.5 2 30.5 6s23.167 11 36.5 21l4 -70c-21.333 -21.333 -40.333 -36.166 -57 -44.499s-32 -12.5 -46 -12.5c-12 0 -23.333 2.16699 -34 6.5s-21.334 9.16602 -32.001 14.499s-21.334 10.166 -32.001 14.499
s-22 6.5 -34 6.5c-10 0 -21 -2 -33 -6s-24.667 -11.333 -38 -22z" />
    <glyph glyph-name="adieresis" unicode="&#xe4;" horiz-adv-x="503" 
d="M444 200c-5.33301 -25.333 -9.16699 -51.002 -11.5 -77.002s-3.5 -50.667 -3.5 -74c0 -9.33301 0.166992 -18.166 0.5 -26.499s0.833008 -16.166 1.5 -23.499h-91l-14 86h-4c-7.33301 -12 -16.833 -23.833 -28.5 -35.5s-24.5 -22.334 -38.5 -32.001
s-28.833 -17.334 -44.5 -23.001s-31.834 -8.5 -48.501 -8.5c-44 0 -76.5 14.333 -97.5 43s-31.5 67 -31.5 115c0 48.667 6.16699 95.334 18.5 140.001s31.5 84 57.5 118s58.833 61.167 98.5 81.5s86.834 30.5 141.501 30.5c23.333 0 48.833 -2.16699 76.5 -6.5
s54.5 -10.166 80.5 -17.499zM208.999 88.998c12 0 23.333 2.5 34 7.5s20.5 11.5 29.5 19.5s17 16.667 24 26s13.167 18 18.5 26l50 233c-7.33301 3.33301 -15.833 5.83301 -25.5 7.5s-19.167 2.5 -28.5 2.5c-24 0 -45.333 -7.16699 -64 -21.5s-34.5 -33 -47.5 -56
s-22.833 -49 -29.5 -78s-10 -58.167 -10 -87.5c0 -21.333 3.5 -39.833 10.5 -55.5s19.833 -23.5 38.5 -23.5zM169.999 650.998c0 22 6.16699 39.167 18.5 51.5s28.166 18.5 47.499 18.5s35.166 -6.16699 47.499 -18.5s18.5 -29.5 18.5 -51.5
c0 -21.333 -6.16699 -38 -18.5 -50s-28.166 -18 -47.499 -18s-35.166 6 -47.499 18s-18.5 28.667 -18.5 50zM377.999 651.998c0 21.333 6.16699 38.166 18.5 50.499s28.166 18.5 47.499 18.5s35.166 -6.16699 47.499 -18.5s18.5 -29.166 18.5 -50.499
s-6.16699 -38.166 -18.5 -50.499s-28.166 -18.5 -47.499 -18.5s-35.166 6.16699 -47.499 18.5s-18.5 29.166 -18.5 50.499z" />
    <glyph glyph-name="aring" unicode="&#xe5;" horiz-adv-x="503" 
d="M444 200c-5.33301 -25.333 -9.16699 -51.002 -11.5 -77.002s-3.5 -50.667 -3.5 -74c0 -9.33301 0.166992 -18.166 0.5 -26.499s0.833008 -16.166 1.5 -23.499h-91l-14 86h-4c-7.33301 -12 -16.833 -23.833 -28.5 -35.5s-24.5 -22.334 -38.5 -32.001
s-28.833 -17.334 -44.5 -23.001s-31.834 -8.5 -48.501 -8.5c-44 0 -76.5 14.333 -97.5 43s-31.5 67 -31.5 115c0 48.667 6.16699 95.334 18.5 140.001s31.5 84 57.5 118s58.833 61.167 98.5 81.5s86.834 30.5 141.501 30.5c23.333 0 48.833 -2.16699 76.5 -6.5
s54.5 -10.166 80.5 -17.499zM208.999 88.998c12 0 23.333 2.5 34 7.5s20.5 11.5 29.5 19.5s17 16.667 24 26s13.167 18 18.5 26l50 233c-7.33301 3.33301 -15.833 5.83301 -25.5 7.5s-19.167 2.5 -28.5 2.5c-24 0 -45.333 -7.16699 -64 -21.5s-34.5 -33 -47.5 -56
s-22.833 -49 -29.5 -78s-10 -58.167 -10 -87.5c0 -21.333 3.5 -39.833 10.5 -55.5s19.833 -23.5 38.5 -23.5zM253.999 646.998c0 28 9.5 50.999 28.5 68.999s46.5 27 82.5 27c34 0 61 -8.16699 81 -24.5s30 -40.166 30 -71.499c0 -26 -9.83301 -48.167 -29.5 -66.5
s-46.834 -27.5 -81.501 -27.5c-35.333 0 -62.666 8.5 -81.999 25.5s-29 39.833 -29 68.5zM325.999 646.997c0 -10.667 3.83496 -18.832 11.502 -24.499s16.834 -8.5 27.501 -8.5c11.333 0 20.666 2.66699 27.999 8s11 13.666 11 24.999s-3.83301 19.833 -11.5 25.5
s-16.834 8.5 -27.501 8.5s-19.834 -2.66699 -27.501 -8s-11.5 -14 -11.5 -26z" />
    <glyph glyph-name="ae" unicode="&#xe6;" horiz-adv-x="744" 
d="M312 223c-5.33301 0.666992 -10.8311 1 -16.498 1h-16.5c-38 0 -70 -6.16699 -96 -18.5s-39 -31.5 -39 -57.5c0 -18 4.66699 -31 14 -39s21.666 -12 36.999 -12c12 0 23.5 2.5 34.5 7.5s21.167 11 30.5 18s17.666 14.333 24.999 22s13.333 14.5 18 20.5zM315.002 77
c-21.333 -24 -45.9961 -44.166 -73.9961 -60.499s-61 -24.5 -99 -24.5c-22 0 -40.833 3.5 -56.5 10.5s-28.5 16.333 -38.5 28s-17.5 25.167 -22.5 40.5s-7.5 31 -7.5 47c0 32.667 7.33301 60.667 22 84s34.667 42.333 60 57s54.666 25.5 87.999 32.5s69 10.5 107 10.5h16.5
c5.66699 0 11.167 -0.333008 16.5 -1c7.33301 25.333 11 45 11 59c0 16 -5 27.833 -15 35.5s-27 11.5 -51 11.5c-22 0 -45.333 -2.66699 -70 -8s-47.667 -12.333 -69 -21l-18 93c27.333 13.333 58.833 23.166 94.5 29.499s70.167 9.5 103.5 9.5
c30.667 0 56.667 -4.83301 78 -14.5s36.333 -24.834 45 -45.501c19.333 20.667 43.5 36.5 72.5 47.5s58.5 16.5 88.5 16.5c28 0 51.833 -3.16699 71.5 -9.5s35.667 -15.166 48 -26.499s21.333 -24.5 27 -39.5s8.5 -31.5 8.5 -49.5c0 -37.333 -8.83301 -67.333 -26.5 -90
s-41.5 -40.5 -71.5 -53.5s-64.667 -21.833 -104 -26.5s-80.333 -7 -123 -7c-0.666992 -5.33301 -1.16699 -10.5 -1.5 -15.5s-0.5 -9.83301 -0.5 -14.5c0 -30 7.66699 -53 23 -69s40.666 -24 75.999 -24c25.333 0 49.166 3.5 71.499 10.5s40.166 14.5 53.499 22.5l23 -86
c-22.667 -16 -51.167 -28.333 -85.5 -37s-68.5 -13 -102.5 -13c-44 0 -79.5 8 -106.5 24s-46.167 38.333 -57.5 67h-5zM447.006 292.001c21.333 0 42.999 0.5 64.999 1.5s42 4 60 9s32.667 12.667 44 23s17 24.5 17 42.5c0 11.333 -4 21.833 -12 31.5s-23 14.5 -45 14.5
c-35.333 0 -63.166 -11.833 -83.499 -35.5s-35.5 -52.5 -45.5 -86.5z" />
    <glyph glyph-name="ccedilla" unicode="&#xe7;" horiz-adv-x="412" 
d="M370 41c-17.333 -12.667 -36.665 -23.666 -57.998 -32.999s-43.333 -15.666 -66 -18.999l-24 -32c22.667 -1.33301 40 -8.16602 52 -20.499s18 -28.166 18 -47.499c0 -17.333 -3.83301 -32.333 -11.5 -45s-18 -23.167 -31 -31.5s-28.333 -14.5 -46 -18.5
s-36.5 -6 -56.5 -6c-25.333 0 -51 3 -77 9l20 48c34 -3.33301 57.333 -1.33301 70 6s19 15.666 19 24.999c0 11.333 -6.66699 19.166 -20 23.499s-32.666 6.16602 -57.999 5.49902l66 85c-24 4 -44.333 11.167 -61 21.5s-30.334 23 -41.001 38s-18.5 31.833 -23.5 50.5
s-7.5 38 -7.5 58c0 56 8 106 24 150s37.167 81.167 63.5 111.5s56.333 53.666 90 69.999s68.167 24.5 103.5 24.5c31.333 0 56.166 -3 74.499 -9s34.833 -12.667 49.5 -20l-46 -98c-12.667 7.33301 -25.834 12.333 -39.501 15s-28.5 4 -44.5 4
c-18 0 -35.5 -5.83301 -52.5 -17.5s-32.333 -27 -46 -46s-24.5 -41.167 -32.5 -66.5s-12 -51.333 -12 -78c0 -34 7.33301 -59.833 22 -77.5s34 -26.5 58 -26.5c20 0 38.5 3.16699 55.5 9.5s32.167 13.5 45.5 21.5z" />
    <glyph glyph-name="egrave" unicode="&#xe8;" horiz-adv-x="466" 
d="M402 48c-20.667 -17.333 -47.334 -32.002 -80.001 -44.002s-70.667 -18 -114 -18c-54 0 -96.5 15.833 -127.5 47.5s-46.5 75.834 -46.5 132.501c0 53.333 8.33301 101.5 25 144.5s38.5 79.5 65.5 109.5s57.5 53.167 91.5 69.5s68 24.5 102 24.5
c27.333 0 50.833 -3.5 70.5 -10.5s35.834 -16.667 48.501 -29s22 -26.5 28 -42.5s9 -33 9 -51c0 -27.333 -7 -51.333 -21 -72s-33.5 -37.834 -58.5 -51.501s-55.167 -24 -90.5 -31s-74 -10.5 -116 -10.5c-5.33301 0 -10.333 0.166992 -15 0.5s-9.66699 0.5 -15 0.5
c-1.33301 -8 -2.33301 -15.167 -3 -21.5s-1 -12.166 -1 -17.499c0 -30 7.83301 -52.333 23.5 -67s37.834 -22 66.501 -22c29.333 0 55.666 4.33301 78.999 13s41 17.334 53 26.001zM176 294.998c18.667 0 38.499 0.666016 59.499 1.99902s40.5 4.5 58.5 9.5s33 12.333 45 22
s18 22.834 18 39.501c0 10 -3.66699 20.167 -11 30.5s-22.666 15.5 -45.999 15.5c-29.333 0 -54.833 -11.333 -76.5 -34s-37.5 -51 -47.5 -85zM366.999 565.997h-69l-91 124l7 30h129z" />
    <glyph glyph-name="eacute" unicode="&#xe9;" horiz-adv-x="466" 
d="M402 48c-20.667 -17.333 -47.334 -32.002 -80.001 -44.002s-70.667 -18 -114 -18c-54 0 -96.5 15.833 -127.5 47.5s-46.5 75.834 -46.5 132.501c0 53.333 8.33301 101.5 25 144.5s38.5 79.5 65.5 109.5s57.5 53.167 91.5 69.5s68 24.5 102 24.5
c27.333 0 50.833 -3.5 70.5 -10.5s35.834 -16.667 48.501 -29s22 -26.5 28 -42.5s9 -33 9 -51c0 -27.333 -7 -51.333 -21 -72s-33.5 -37.834 -58.5 -51.501s-55.167 -24 -90.5 -31s-74 -10.5 -116 -10.5c-5.33301 0 -10.333 0.166992 -15 0.5s-9.66699 0.5 -15 0.5
c-1.33301 -8 -2.33301 -15.167 -3 -21.5s-1 -12.166 -1 -17.499c0 -30 7.83301 -52.333 23.5 -67s37.834 -22 66.501 -22c29.333 0 55.666 4.33301 78.999 13s41 17.334 53 26.001zM176 294.998c18.667 0 38.499 0.666016 59.499 1.99902s40.5 4.5 58.5 9.5s33 12.333 45 22
s18 22.834 18 39.501c0 10 -3.66699 20.167 -11 30.5s-22.666 15.5 -45.999 15.5c-29.333 0 -54.833 -11.333 -76.5 -34s-37.5 -51 -47.5 -85zM364.999 719.997h125l-6 -30l-133 -124h-69z" />
    <glyph glyph-name="ecircumflex" unicode="&#xea;" horiz-adv-x="466" 
d="M402 48c-20.667 -17.333 -47.334 -32.002 -80.001 -44.002s-70.667 -18 -114 -18c-54 0 -96.5 15.833 -127.5 47.5s-46.5 75.834 -46.5 132.501c0 53.333 8.33301 101.5 25 144.5s38.5 79.5 65.5 109.5s57.5 53.167 91.5 69.5s68 24.5 102 24.5
c27.333 0 50.833 -3.5 70.5 -10.5s35.834 -16.667 48.501 -29s22 -26.5 28 -42.5s9 -33 9 -51c0 -27.333 -7 -51.333 -21 -72s-33.5 -37.834 -58.5 -51.501s-55.167 -24 -90.5 -31s-74 -10.5 -116 -10.5c-5.33301 0 -10.333 0.166992 -15 0.5s-9.66699 0.5 -15 0.5
c-1.33301 -8 -2.33301 -15.167 -3 -21.5s-1 -12.166 -1 -17.499c0 -30 7.83301 -52.333 23.5 -67s37.834 -22 66.501 -22c29.333 0 55.666 4.33301 78.999 13s41 17.334 53 26.001zM176 294.998c18.667 0 38.499 0.666016 59.499 1.99902s40.5 4.5 58.5 9.5s33 12.333 45 22
s18 22.834 18 39.501c0 10 -3.66699 20.167 -11 30.5s-22.666 15.5 -45.999 15.5c-29.333 0 -54.833 -11.333 -76.5 -34s-37.5 -51 -47.5 -85zM321.999 731.997h82l67 -182h-96l-24 66l-4 49l-27 -49l-57 -66h-97z" />
    <glyph glyph-name="edieresis" unicode="&#xeb;" horiz-adv-x="466" 
d="M402 48c-20.667 -17.333 -47.334 -32.002 -80.001 -44.002s-70.667 -18 -114 -18c-54 0 -96.5 15.833 -127.5 47.5s-46.5 75.834 -46.5 132.501c0 53.333 8.33301 101.5 25 144.5s38.5 79.5 65.5 109.5s57.5 53.167 91.5 69.5s68 24.5 102 24.5
c27.333 0 50.833 -3.5 70.5 -10.5s35.834 -16.667 48.501 -29s22 -26.5 28 -42.5s9 -33 9 -51c0 -27.333 -7 -51.333 -21 -72s-33.5 -37.834 -58.5 -51.501s-55.167 -24 -90.5 -31s-74 -10.5 -116 -10.5c-5.33301 0 -10.333 0.166992 -15 0.5s-9.66699 0.5 -15 0.5
c-1.33301 -8 -2.33301 -15.167 -3 -21.5s-1 -12.166 -1 -17.499c0 -30 7.83301 -52.333 23.5 -67s37.834 -22 66.501 -22c29.333 0 55.666 4.33301 78.999 13s41 17.334 53 26.001zM176 294.998c18.667 0 38.499 0.666016 59.499 1.99902s40.5 4.5 58.5 9.5s33 12.333 45 22
s18 22.834 18 39.501c0 10 -3.66699 20.167 -11 30.5s-22.666 15.5 -45.999 15.5c-29.333 0 -54.833 -11.333 -76.5 -34s-37.5 -51 -47.5 -85zM162.999 650.997c0 22 6.16699 39.167 18.5 51.5s28.166 18.5 47.499 18.5s35.166 -6.16699 47.499 -18.5s18.5 -29.5 18.5 -51.5
c0 -21.333 -6.16699 -38 -18.5 -50s-28.166 -18 -47.499 -18s-35.166 6 -47.499 18s-18.5 28.667 -18.5 50zM370.999 651.997c0 21.333 6.16699 38.166 18.5 50.499s28.166 18.5 47.499 18.5s35.166 -6.16699 47.499 -18.5s18.5 -29.166 18.5 -50.499
s-6.16699 -38.166 -18.5 -50.499s-28.166 -18.5 -47.499 -18.5s-35.166 6.16699 -47.499 18.5s-18.5 29.166 -18.5 50.499z" />
    <glyph glyph-name="igrave" unicode="&#xec;" horiz-adv-x="256" 
d="M133 500h123l-106 -500h-123zM265 566h-69l-91 124l7 30h129z" />
    <glyph glyph-name="iacute" unicode="&#xed;" horiz-adv-x="256" 
d="M133 500h123l-106 -500h-123zM237 720h125l-6 -30l-133 -124h-69z" />
    <glyph glyph-name="icircumflex" unicode="&#xee;" horiz-adv-x="256" 
d="M133 500h123l-106 -500h-123zM204 732h82l67 -182h-96l-24 66l-4 49l-27 -49l-57 -66h-97z" />
    <glyph glyph-name="idieresis" unicode="&#xef;" horiz-adv-x="256" 
d="M133 500h123l-106 -500h-123zM55 651c0 22 6.16699 39.167 18.5 51.5s28.166 18.5 47.499 18.5s35.166 -6.16699 47.499 -18.5s18.5 -29.5 18.5 -51.5c0 -21.333 -6.16699 -38 -18.5 -50s-28.166 -18 -47.499 -18s-35.166 6 -47.499 18s-18.5 28.667 -18.5 50zM263 652
c0 21.333 6.16699 38.166 18.5 50.499s28.166 18.5 47.499 18.5s35.166 -6.16699 47.499 -18.5s18.5 -29.166 18.5 -50.499s-6.16699 -38.166 -18.5 -50.499s-28.166 -18.5 -47.499 -18.5s-35.166 6.16699 -47.499 18.5s-18.5 29.166 -18.5 50.499z" />
    <glyph glyph-name="eth" unicode="&#xf0;" horiz-adv-x="508" 
d="M262 592l69.999 28.998c-12 12 -25.167 22.333 -39.5 31s-29.166 15.667 -44.499 21l97 41c30 -11.333 57.333 -29.333 82 -54l73 30l28 -54l-64 -27c11.333 -20.667 20.333 -43.667 27 -69s10 -53 10 -83c0 -82 -7.83301 -152.667 -23.5 -212
s-36.834 -108.166 -63.501 -146.499s-57.5 -66.666 -92.5 -84.999s-71.833 -27.5 -110.5 -27.5c-53.333 0 -95.666 15.833 -126.999 47.5s-47 77.834 -47 138.501c0 46.667 6.83301 90 20.5 130s32 74.667 55 104s49.667 52.166 80 68.499s62.5 24.5 96.5 24.5
c46 0 79.667 -12.667 101 -38c1.33301 21.333 0 40.833 -4 58.5s-9.66699 34.167 -17 49.5l-75 -31zM163.999 176.998c0 -28 5.50195 -49.667 16.502 -65s26.167 -23 45.5 -23c26 0 48.167 9.33301 66.5 28s33.166 41.5 44.499 68.5s19.666 55.833 24.999 86.5
s7.66602 57.667 6.99902 81c-5.33301 13.333 -14.166 24 -26.499 32s-27.166 12 -44.499 12c-20 0 -38.167 -6.33301 -54.5 -19s-30.333 -29.334 -42 -50.001s-20.834 -44.167 -27.501 -70.5s-10 -53.166 -10 -80.499z" />
    <glyph glyph-name="ntilde" unicode="&#xf1;" horiz-adv-x="521" 
d="M295 0l65.999 309.999c4 18.667 6 35 6 49c0 14.667 -3 26.167 -9 34.5s-17 12.5 -33 12.5c-12 0 -24 -3 -36 -9s-23.333 -14 -34 -24s-20.667 -21.167 -30 -33.5s-17.333 -24.833 -24 -37.5l-64 -302h-123l106 500h93l-5 -88h4c8.66699 10.667 18.834 22 30.501 34
s25.167 23 40.5 33s32.5 18.333 51.5 25s40.5 10 64.5 10c30 0 54 -8.16699 72 -24.5s27 -43.5 27 -81.5c0 -10 -0.5 -20.667 -1.5 -32s-3.16699 -23.666 -6.5 -36.999l-72 -339h-123zM201.999 657.999c23.333 24.667 43.8359 41.668 61.5029 51.001s33.834 14 48.501 14
c12 0 23.167 -2.33301 33.5 -7s20.666 -9.66699 30.999 -15s20.666 -10.333 30.999 -15s21.5 -7 33.5 -7c9.33301 0 19.5 2 30.5 6s23.167 11 36.5 21l4 -70c-21.333 -21.333 -40.333 -36.166 -57 -44.499s-32 -12.5 -46 -12.5c-12 0 -23.333 2.16699 -34 6.5
s-21.334 9.16602 -32.001 14.499s-21.334 10.166 -32.001 14.499s-22 6.5 -34 6.5c-10 0 -21 -2 -33 -6s-24.667 -11.333 -38 -22z" />
    <glyph glyph-name="ograve" unicode="&#xf2;" horiz-adv-x="496" 
d="M34 162c0 52.667 7.50195 100.667 22.502 144s35 80.333 60 111s54 54.5 87 71.5s67.5 25.5 103.5 25.5c32 0 59 -5 81 -15s39.833 -23.333 53.5 -40s23.5 -35.667 29.5 -57s9 -43.333 9 -66c0 -52 -7.33301 -99.5 -22 -142.5s-34.334 -79.833 -59.001 -110.5
s-53.334 -54.5 -86.001 -71.5s-67 -25.5 -103 -25.5c-31.333 0 -58 5.16699 -80 15.5s-40.167 23.833 -54.5 40.5s-24.833 35.5 -31.5 56.5s-10 42.167 -10 63.5zM161.002 179c0 -60 21.667 -90.002 65 -90.002c16 0 31.667 7 47 21s29 32.333 41 55
s21.5 48.334 28.5 77.001s10.5 57.334 10.5 86.001c0 26.667 -4.5 47.167 -13.5 61.5s-25.833 21.5 -50.5 21.5c-16 0 -31.667 -6.66699 -47 -20s-29 -30.833 -41 -52.5s-21.667 -46.5 -29 -74.5s-11 -56.333 -11 -85zM375.002 565.998h-69l-91 124l7 30h129z" />
    <glyph glyph-name="oacute" unicode="&#xf3;" horiz-adv-x="496" 
d="M34 162c0 52.667 7.50195 100.667 22.502 144s35 80.333 60 111s54 54.5 87 71.5s67.5 25.5 103.5 25.5c32 0 59 -5 81 -15s39.833 -23.333 53.5 -40s23.5 -35.667 29.5 -57s9 -43.333 9 -66c0 -52 -7.33301 -99.5 -22 -142.5s-34.334 -79.833 -59.001 -110.5
s-53.334 -54.5 -86.001 -71.5s-67 -25.5 -103 -25.5c-31.333 0 -58 5.16699 -80 15.5s-40.167 23.833 -54.5 40.5s-24.833 35.5 -31.5 56.5s-10 42.167 -10 63.5zM161.002 179c0 -60 21.667 -90.002 65 -90.002c16 0 31.667 7 47 21s29 32.333 41 55
s21.5 48.334 28.5 77.001s10.5 57.334 10.5 86.001c0 26.667 -4.5 47.167 -13.5 61.5s-25.833 21.5 -50.5 21.5c-16 0 -31.667 -6.66699 -47 -20s-29 -30.833 -41 -52.5s-21.667 -46.5 -29 -74.5s-11 -56.333 -11 -85zM363.002 719.998h125l-6 -30l-133 -124h-69z" />
    <glyph glyph-name="ocircumflex" unicode="&#xf4;" horiz-adv-x="496" 
d="M34 162c0 52.667 7.50195 100.667 22.502 144s35 80.333 60 111s54 54.5 87 71.5s67.5 25.5 103.5 25.5c32 0 59 -5 81 -15s39.833 -23.333 53.5 -40s23.5 -35.667 29.5 -57s9 -43.333 9 -66c0 -52 -7.33301 -99.5 -22 -142.5s-34.334 -79.833 -59.001 -110.5
s-53.334 -54.5 -86.001 -71.5s-67 -25.5 -103 -25.5c-31.333 0 -58 5.16699 -80 15.5s-40.167 23.833 -54.5 40.5s-24.833 35.5 -31.5 56.5s-10 42.167 -10 63.5zM161.002 179c0 -60 21.667 -90.002 65 -90.002c16 0 31.667 7 47 21s29 32.333 41 55
s21.5 48.334 28.5 77.001s10.5 57.334 10.5 86.001c0 26.667 -4.5 47.167 -13.5 61.5s-25.833 21.5 -50.5 21.5c-16 0 -31.667 -6.66699 -47 -20s-29 -30.833 -41 -52.5s-21.667 -46.5 -29 -74.5s-11 -56.333 -11 -85zM319.002 731.998h82l67 -182h-96l-24 66l-4 49l-27 -49
l-57 -66h-97z" />
    <glyph glyph-name="otilde" unicode="&#xf5;" horiz-adv-x="496" 
d="M34 162c0 52.667 7.50195 100.667 22.502 144s35 80.333 60 111s54 54.5 87 71.5s67.5 25.5 103.5 25.5c32 0 59 -5 81 -15s39.833 -23.333 53.5 -40s23.5 -35.667 29.5 -57s9 -43.333 9 -66c0 -52 -7.33301 -99.5 -22 -142.5s-34.334 -79.833 -59.001 -110.5
s-53.334 -54.5 -86.001 -71.5s-67 -25.5 -103 -25.5c-31.333 0 -58 5.16699 -80 15.5s-40.167 23.833 -54.5 40.5s-24.833 35.5 -31.5 56.5s-10 42.167 -10 63.5zM161.002 179c0 -60 21.667 -90.002 65 -90.002c16 0 31.667 7 47 21s29 32.333 41 55
s21.5 48.334 28.5 77.001s10.5 57.334 10.5 86.001c0 26.667 -4.5 47.167 -13.5 61.5s-25.833 21.5 -50.5 21.5c-16 0 -31.667 -6.66699 -47 -20s-29 -30.833 -41 -52.5s-21.667 -46.5 -29 -74.5s-11 -56.333 -11 -85zM178.002 657.998
c23.333 24.667 43.8359 41.668 61.5029 51.001s33.834 14 48.501 14c12 0 23.167 -2.33301 33.5 -7s20.666 -9.66699 30.999 -15s20.666 -10.333 30.999 -15s21.5 -7 33.5 -7c9.33301 0 19.5 2 30.5 6s23.167 11 36.5 21l4 -70c-21.333 -21.333 -40.333 -36.166 -57 -44.499
s-32 -12.5 -46 -12.5c-12 0 -23.333 2.16699 -34 6.5s-21.334 9.16602 -32.001 14.499s-21.334 10.166 -32.001 14.499s-22 6.5 -34 6.5c-10 0 -21 -2 -33 -6s-24.667 -11.333 -38 -22z" />
    <glyph glyph-name="odieresis" unicode="&#xf6;" horiz-adv-x="496" 
d="M34 162c0 52.667 7.50195 100.667 22.502 144s35 80.333 60 111s54 54.5 87 71.5s67.5 25.5 103.5 25.5c32 0 59 -5 81 -15s39.833 -23.333 53.5 -40s23.5 -35.667 29.5 -57s9 -43.333 9 -66c0 -52 -7.33301 -99.5 -22 -142.5s-34.334 -79.833 -59.001 -110.5
s-53.334 -54.5 -86.001 -71.5s-67 -25.5 -103 -25.5c-31.333 0 -58 5.16699 -80 15.5s-40.167 23.833 -54.5 40.5s-24.833 35.5 -31.5 56.5s-10 42.167 -10 63.5zM161.002 179c0 -60 21.667 -90.002 65 -90.002c16 0 31.667 7 47 21s29 32.333 41 55
s21.5 48.334 28.5 77.001s10.5 57.334 10.5 86.001c0 26.667 -4.5 47.167 -13.5 61.5s-25.833 21.5 -50.5 21.5c-16 0 -31.667 -6.66699 -47 -20s-29 -30.833 -41 -52.5s-21.667 -46.5 -29 -74.5s-11 -56.333 -11 -85zM163.002 650.998c0 22 6.16699 39.167 18.5 51.5
s28.166 18.5 47.499 18.5s35.166 -6.16699 47.499 -18.5s18.5 -29.5 18.5 -51.5c0 -21.333 -6.16699 -38 -18.5 -50s-28.166 -18 -47.499 -18s-35.166 6 -47.499 18s-18.5 28.667 -18.5 50zM371.002 651.998c0 21.333 6.16699 38.166 18.5 50.499s28.166 18.5 47.499 18.5
s35.166 -6.16699 47.499 -18.5s18.5 -29.166 18.5 -50.499s-6.16699 -38.166 -18.5 -50.499s-28.166 -18.5 -47.499 -18.5s-35.166 6.16699 -47.499 18.5s-18.5 29.166 -18.5 50.499z" />
    <glyph glyph-name="divide" unicode="&#xf7;" horiz-adv-x="505" 
d="M58 394h442v-112h-442v112zM199 534c0 23.333 7.33301 41.833 22 55.5s34 20.5 58 20.5c24.667 0 44.334 -6.83301 59.001 -20.5s22 -32.167 22 -55.5s-7.33301 -42 -22 -56s-34.334 -21 -59.001 -21c-24 0 -43.333 7 -58 21s-22 32.667 -22 56zM199 139
c0 23.333 7.33301 41.833 22 55.5s34 20.5 58 20.5c24.667 0 44.334 -6.83301 59.001 -20.5s22 -32.167 22 -55.5s-7.33301 -42 -22 -56s-34.334 -21 -59.001 -21c-24 0 -43.333 7 -58 21s-22 32.667 -22 56z" />
    <glyph glyph-name="oslash" unicode="&#xf8;" horiz-adv-x="496" 
d="M34 162c0 52.667 7.50195 100.667 22.502 144s35 80.333 60 111s54 54.5 87 71.5s67.5 25.5 103.5 25.5c21.333 0 40.333 -2.33301 57 -7s31.334 -11 44.001 -19l34 38l64 -59l-42 -47c10.667 -25.333 16 -53.333 16 -84c0 -52 -7.33301 -99.5 -22 -142.5
s-34.334 -79.833 -59.001 -110.5s-53.334 -54.5 -86.001 -71.5s-67 -25.5 -103 -25.5c-22.667 0 -42.834 2.83301 -60.501 8.5s-33.167 13.167 -46.5 22.5l-37 -41l-66 60l47 54c-8.66699 22 -13 46 -13 72zM176.002 114c10.667 -16.667 27.3311 -25 49.998 -25
c15.333 0 30.333 6.5 45 19.5s27.834 30 39.501 51s21.334 44.833 29.001 71.5s12.167 53.667 13.5 81zM336.999 392c-10.667 12.667 -26.666 19 -47.999 19c-15.333 0 -30.333 -6.16699 -45 -18.5s-27.834 -28.5 -39.501 -48.5s-21.5 -43 -29.5 -69s-12.667 -53 -14 -81z
" />
    <glyph glyph-name="ugrave" unicode="&#xf9;" horiz-adv-x="512" 
d="M241 500l-65.0029 -309.002c-4 -20 -6 -36.667 -6 -50s2.66699 -23.666 8 -30.999s14.666 -11 27.999 -11c11.333 0 22.833 2.83301 34.5 8.5s22.834 13 33.501 22s20.5 19 29.5 30s16.5 21.833 22.5 32.5l64 308h123l-63 -300
c-3.33301 -13.333 -6.16602 -29 -8.49902 -47s-4.5 -36.5 -6.5 -55.5s-3.33301 -37.167 -4 -54.5s-0.666992 -31.666 0 -42.999h-99l-5 90h-4c-9.33301 -12.667 -20.166 -25.167 -32.499 -37.5s-26 -23.5 -41 -33.5s-31.333 -18 -49 -24s-36.5 -9 -56.5 -9
c-31.333 0 -56.666 7.83301 -75.999 23.5s-29 44.5 -29 86.5c0 24.667 3.33301 51.667 10 81l69 323h123zM371.997 565.998h-69l-91 124l7 30h129z" />
    <glyph glyph-name="uacute" unicode="&#xfa;" horiz-adv-x="512" 
d="M241 500l-65.0029 -309.002c-4 -20 -6 -36.667 -6 -50s2.66699 -23.666 8 -30.999s14.666 -11 27.999 -11c11.333 0 22.833 2.83301 34.5 8.5s22.834 13 33.501 22s20.5 19 29.5 30s16.5 21.833 22.5 32.5l64 308h123l-63 -300
c-3.33301 -13.333 -6.16602 -29 -8.49902 -47s-4.5 -36.5 -6.5 -55.5s-3.33301 -37.167 -4 -54.5s-0.666992 -31.666 0 -42.999h-99l-5 90h-4c-9.33301 -12.667 -20.166 -25.167 -32.499 -37.5s-26 -23.5 -41 -33.5s-31.333 -18 -49 -24s-36.5 -9 -56.5 -9
c-31.333 0 -56.666 7.83301 -75.999 23.5s-29 44.5 -29 86.5c0 24.667 3.33301 51.667 10 81l69 323h123zM350.997 719.998h125l-6 -30l-133 -124h-69z" />
    <glyph glyph-name="ucircumflex" unicode="&#xfb;" horiz-adv-x="512" 
d="M241 500l-65.0029 -309.002c-4 -20 -6 -36.667 -6 -50s2.66699 -23.666 8 -30.999s14.666 -11 27.999 -11c11.333 0 22.833 2.83301 34.5 8.5s22.834 13 33.501 22s20.5 19 29.5 30s16.5 21.833 22.5 32.5l64 308h123l-63 -300
c-3.33301 -13.333 -6.16602 -29 -8.49902 -47s-4.5 -36.5 -6.5 -55.5s-3.33301 -37.167 -4 -54.5s-0.666992 -31.666 0 -42.999h-99l-5 90h-4c-9.33301 -12.667 -20.166 -25.167 -32.499 -37.5s-26 -23.5 -41 -33.5s-31.333 -18 -49 -24s-36.5 -9 -56.5 -9
c-31.333 0 -56.666 7.83301 -75.999 23.5s-29 44.5 -29 86.5c0 24.667 3.33301 51.667 10 81l69 323h123zM324.997 731.998h82l67 -182h-96l-24 66l-4 49l-27 -49l-57 -66h-97z" />
    <glyph glyph-name="udieresis" unicode="&#xfc;" horiz-adv-x="512" 
d="M241 500l-65.0029 -309.002c-4 -20 -6 -36.667 -6 -50s2.66699 -23.666 8 -30.999s14.666 -11 27.999 -11c11.333 0 22.833 2.83301 34.5 8.5s22.834 13 33.501 22s20.5 19 29.5 30s16.5 21.833 22.5 32.5l64 308h123l-63 -300
c-3.33301 -13.333 -6.16602 -29 -8.49902 -47s-4.5 -36.5 -6.5 -55.5s-3.33301 -37.167 -4 -54.5s-0.666992 -31.666 0 -42.999h-99l-5 90h-4c-9.33301 -12.667 -20.166 -25.167 -32.499 -37.5s-26 -23.5 -41 -33.5s-31.333 -18 -49 -24s-36.5 -9 -56.5 -9
c-31.333 0 -56.666 7.83301 -75.999 23.5s-29 44.5 -29 86.5c0 24.667 3.33301 51.667 10 81l69 323h123zM171.997 650.998c0 22 6.16699 39.167 18.5 51.5s28.166 18.5 47.499 18.5s35.166 -6.16699 47.499 -18.5s18.5 -29.5 18.5 -51.5c0 -21.333 -6.16699 -38 -18.5 -50
s-28.166 -18 -47.499 -18s-35.166 6 -47.499 18s-18.5 28.667 -18.5 50zM379.997 651.998c0 21.333 6.16699 38.166 18.5 50.499s28.166 18.5 47.499 18.5s35.166 -6.16699 47.499 -18.5s18.5 -29.166 18.5 -50.499s-6.16699 -38.166 -18.5 -50.499
s-28.166 -18.5 -47.499 -18.5s-35.166 6.16699 -47.499 18.5s-18.5 29.166 -18.5 50.499z" />
    <glyph glyph-name="yacute" unicode="&#xfd;" horiz-adv-x="452" 
d="M216 219l0.999023 -78h6l27 79l136 280h131l-240 -449c-20 -37.333 -38.833 -71.666 -56.5 -102.999s-35.5 -58.333 -53.5 -81s-36.667 -40.334 -56 -53.001s-40 -19 -62 -19c-29.333 0 -51.333 5 -66 15l33 98c4 -2 8.16699 -3.33301 12.5 -4s8.5 -1 12.5 -1
c16 0 32.333 7.66699 49 23s33.334 40 50.001 74l-94 500h141zM329.999 720h125l-6 -30l-133 -124h-69z" />
    <glyph glyph-name="thorn" unicode="&#xfe;" horiz-adv-x="506" 
d="M165 700l123 0.00195312l-62 -268h4c8 10.667 17 21 27 31s21.333 18.667 34 26s26.667 13.333 42 18s32.666 7 51.999 7c34 0 61.333 -11.667 82 -35s31 -60 31 -110c0 -56.667 -7.5 -108.5 -22.5 -155.5s-35 -87.333 -60 -121s-54.333 -59.834 -88 -78.501
s-68.834 -28 -105.501 -28c-17.333 0 -33.666 1.66699 -48.999 5s-26.666 7.66602 -33.999 12.999l-43 -204h-122zM160 106.002c16.667 -11.333 35.333 -16.999 56 -16.999s40.167 7 58.5 21s34.333 32.667 48 56s24.5 50.5 32.5 81.5s12 63.5 12 97.5
c0 19.333 -3.83301 35.166 -11.5 47.499s-19.167 18.5 -34.5 18.5c-12 0 -23.667 -3 -35 -9s-22 -13.5 -32 -22.5s-19 -19.167 -27 -30.5s-15 -22.333 -21 -33z" />
    <glyph glyph-name="ydieresis" unicode="&#xff;" horiz-adv-x="452" 
d="M216 219l0.999023 -78h6l27 79l136 280h131l-240 -449c-20 -37.333 -38.833 -71.666 -56.5 -102.999s-35.5 -58.333 -53.5 -81s-36.667 -40.334 -56 -53.001s-40 -19 -62 -19c-29.333 0 -51.333 5 -66 15l33 98c4 -2 8.16699 -3.33301 12.5 -4s8.5 -1 12.5 -1
c16 0 32.333 7.66699 49 23s33.334 40 50.001 74l-94 500h141zM130.999 651c0 22 6.16699 39.167 18.5 51.5s28.166 18.5 47.499 18.5s35.166 -6.16699 47.499 -18.5s18.5 -29.5 18.5 -51.5c0 -21.333 -6.16699 -38 -18.5 -50s-28.166 -18 -47.499 -18s-35.166 6 -47.499 18
s-18.5 28.667 -18.5 50zM338.999 652c0 21.333 6.16699 38.166 18.5 50.499s28.166 18.5 47.499 18.5s35.166 -6.16699 47.499 -18.5s18.5 -29.166 18.5 -50.499s-6.16699 -38.166 -18.5 -50.499s-28.166 -18.5 -47.499 -18.5s-35.166 6.16699 -47.499 18.5
s-18.5 29.166 -18.5 50.499z" />
    <glyph glyph-name="Amacron" unicode="&#x100;" horiz-adv-x="582" 
d="M387 155h-204l-83 -155h-138l389 705h96l91 -705h-131zM240 265h142l-16 156l1 110h-5l-40 -111zM261 856h327l-19 -89h-326z" />
    <glyph glyph-name="amacron" unicode="&#x101;" horiz-adv-x="503" 
d="M444 200c-5.33301 -25.333 -9.16699 -51.002 -11.5 -77.002s-3.5 -50.667 -3.5 -74c0 -9.33301 0.166992 -18.166 0.5 -26.499s0.833008 -16.166 1.5 -23.499h-91l-14 86h-4c-7.33301 -12 -16.833 -23.833 -28.5 -35.5s-24.5 -22.334 -38.5 -32.001
s-28.833 -17.334 -44.5 -23.001s-31.834 -8.5 -48.501 -8.5c-44 0 -76.5 14.333 -97.5 43s-31.5 67 -31.5 115c0 48.667 6.16699 95.334 18.5 140.001s31.5 84 57.5 118s58.833 61.167 98.5 81.5s86.834 30.5 141.501 30.5c23.333 0 48.833 -2.16699 76.5 -6.5
s54.5 -10.166 80.5 -17.499zM208.999 88.998c12 0 23.333 2.5 34 7.5s20.5 11.5 29.5 19.5s17 16.667 24 26s13.167 18 18.5 26l50 233c-7.33301 3.33301 -15.833 5.83301 -25.5 7.5s-19.167 2.5 -28.5 2.5c-24 0 -45.333 -7.16699 -64 -21.5s-34.5 -33 -47.5 -56
s-22.833 -49 -29.5 -78s-10 -58.167 -10 -87.5c0 -21.333 3.5 -39.833 10.5 -55.5s19.833 -23.5 38.5 -23.5zM199.999 657.998h308l-19 -92h-308z" />
    <glyph glyph-name="Abreve" unicode="&#x102;" horiz-adv-x="582" 
d="M387 155h-204l-83 -155h-138l389 705h96l91 -705h-131zM240 265h142l-16 156l1 110h-5l-40 -111zM295 875c12 -17.333 26.6631 -30.667 43.9961 -40s39 -14 65 -14c36.667 0 67.334 5 92.001 15s46.334 23 65.001 39l49 -32c-11.333 -20 -24.666 -37.167 -39.999 -51.5
s-32 -26 -50 -35s-37.167 -15.667 -57.5 -20s-40.833 -6.5 -61.5 -6.5c-17.333 0 -34.166 2.5 -50.499 7.5s-31.333 12.333 -45 22s-25.667 21.167 -36 34.5s-17.833 28 -22.5 44z" />
    <glyph glyph-name="abreve" unicode="&#x103;" horiz-adv-x="503" 
d="M444 200c-5.33301 -25.333 -9.16699 -51.002 -11.5 -77.002s-3.5 -50.667 -3.5 -74c0 -9.33301 0.166992 -18.166 0.5 -26.499s0.833008 -16.166 1.5 -23.499h-91l-14 86h-4c-7.33301 -12 -16.833 -23.833 -28.5 -35.5s-24.5 -22.334 -38.5 -32.001
s-28.833 -17.334 -44.5 -23.001s-31.834 -8.5 -48.501 -8.5c-44 0 -76.5 14.333 -97.5 43s-31.5 67 -31.5 115c0 48.667 6.16699 95.334 18.5 140.001s31.5 84 57.5 118s58.833 61.167 98.5 81.5s86.834 30.5 141.501 30.5c23.333 0 48.833 -2.16699 76.5 -6.5
s54.5 -10.166 80.5 -17.499zM208.999 88.998c12 0 23.333 2.5 34 7.5s20.5 11.5 29.5 19.5s17 16.667 24 26s13.167 18 18.5 26l50 233c-7.33301 3.33301 -15.833 5.83301 -25.5 7.5s-19.167 2.5 -28.5 2.5c-24 0 -45.333 -7.16699 -64 -21.5s-34.5 -33 -47.5 -56
s-22.833 -49 -29.5 -78s-10 -58.167 -10 -87.5c0 -21.333 3.5 -39.833 10.5 -55.5s19.833 -23.5 38.5 -23.5zM273.999 719.998c14 -39.333 42 -59 84 -59c26 0 49.5 5.16699 70.5 15.5s38.5 24.833 52.5 43.5l51 -27c-5.33301 -16 -13.833 -31.833 -25.5 -47.5
s-25.667 -29.5 -42 -41.5s-34.833 -21.667 -55.5 -29s-42 -11 -64 -11c-41.333 0 -74.333 11.167 -99 33.5s-37.667 52.5 -39 90.5z" />
    <glyph glyph-name="Aogonek" unicode="&#x104;" horiz-adv-x="582" 
d="M387 155l-204.001 0.000976562l-83 -155h-138l389 705h96l91 -705h-21c-21.333 -8 -39.166 -18.5 -53.499 -31.5s-21.5 -29.167 -21.5 -48.5c0 -22.667 12.667 -34 38 -34c9.33301 0 22 2.66699 38 8l5 -62c-12 -8.66699 -28.5 -16.334 -49.5 -23.001
s-42.5 -10 -64.5 -10c-32 0 -55.833 7.33301 -71.5 22s-23.5 33.334 -23.5 56.001c0 16 3 30.5 9 43.5s14 24.5 24 34.5s21.5 18.667 34.5 26s26.5 13.666 40.5 18.999h-15zM239.999 265.001h142l-16 156l1 110h-5l-40 -111z" />
    <glyph glyph-name="aogonek" unicode="&#x105;" horiz-adv-x="503" 
d="M444 200c-5.33301 -25.333 -9.16699 -51.002 -11.5 -77.002s-3.5 -50.667 -3.5 -74c0 -9.33301 0.166992 -18.166 0.5 -26.499s0.833008 -16.166 1.5 -23.499h-21c-20.667 -8 -38 -18.333 -52 -31s-21 -29.334 -21 -50.001c0.666992 -20.667 13 -31.667 37 -33
c10.667 0 23.667 3 39 9l6 -62c-12.667 -8.66699 -29.5 -16.5 -50.5 -23.5s-42.5 -10.5 -64.5 -10.5c-32 0 -55.833 7.33301 -71.5 22s-23.5 33.334 -23.5 56.001c0 17.333 3.66699 33 11 47s17.166 26.333 29.499 37s26.333 19.667 42 27s31.5 13.333 47.5 18l-13 80h-4
c-7.33301 -12 -16.833 -23.833 -28.5 -35.5s-24.5 -22.334 -38.5 -32.001s-28.833 -17.334 -44.5 -23.001s-31.834 -8.5 -48.501 -8.5c-42.667 0 -74.834 14.333 -96.501 43s-32.5 67 -32.5 115c0 48.667 6.33301 95.334 19 140.001s31.834 84 57.501 118
s58.334 61.167 98.001 81.5s86.834 30.5 141.501 30.5c23.333 0 48.833 -2.16699 76.5 -6.5s54.5 -10.166 80.5 -17.499zM364.999 401.998c-7.33301 3.33301 -15.833 5.83301 -25.5 7.5s-19.167 2.5 -28.5 2.5c-24.667 -0.666992 -46.167 -8 -64.5 -22s-34 -32.667 -47 -56
s-22.833 -49.5 -29.5 -78.5s-10 -58.167 -10 -87.5c0 -21.333 3.66699 -39.833 11 -55.5s20 -23.5 38 -23.5c12 0 23.333 2.5 34 7.5s20.5 11.5 29.5 19.5s17 16.667 24 26s13.167 18 18.5 26z" />
    <glyph glyph-name="Cacute" unicode="&#x106;" horiz-adv-x="537" 
d="M483 29c-44.667 -28.667 -99.3311 -43.0029 -163.998 -43.0029c-44 0 -82.333 7.33301 -115 22s-59.834 35 -81.501 61s-37.834 56.333 -48.501 91s-16 72 -16 112c0 78.667 11 145.834 33 201.501s51 101.334 87 137.001s77.167 61.834 123.5 78.501s93.833 25 142.5 25
c38 0 70.5 -2.83301 97.5 -8.5s48.167 -12.167 63.5 -19.5l-51 -116c-13.333 7.33301 -29.333 12.833 -48 16.5s-42.334 5.5 -71.001 5.5c-34 0 -65.667 -7 -95 -21s-54.666 -34 -75.999 -60s-38.166 -57.667 -50.499 -95s-18.5 -79.666 -18.5 -126.999
c0 -56.667 14.167 -101 42.5 -133s66.166 -48 113.499 -48c30 0 54.833 3.16699 74.5 9.5s38.167 14.166 55.5 23.499zM498.003 869.997h157l-6 -30l-172 -88h-104z" />
    <glyph glyph-name="cacute" unicode="&#x107;" horiz-adv-x="412" 
d="M393 387c-12.667 7.33301 -25.833 12.333 -39.5 15s-28.5 4 -44.5 4c-18 0 -35.5 -5.83301 -52.5 -17.5s-32.333 -27 -46 -46s-24.5 -41.167 -32.5 -66.5s-12 -51.333 -12 -78c0 -34 7.33301 -59.833 22 -77.5s34 -26.5 58 -26.5c20 0 38.5 3.16699 55.5 9.5
s32.167 13.5 45.5 21.5l23 -84c-21.333 -16 -46.166 -29.167 -74.499 -39.5s-56.5 -15.5 -84.5 -15.5c-32 0 -59.167 4.66699 -81.5 14s-40.5 22 -54.5 38s-24.333 34.333 -31 55s-10 42.334 -10 65.001c0 56 8 106 24 150s37.167 81.167 63.5 111.5
s56.333 53.666 90 69.999s68.167 24.5 103.5 24.5c31.333 0 56.166 -3 74.499 -9s34.833 -12.667 49.5 -20zM349.001 720h125l-6 -30l-133 -124h-69z" />
    <glyph glyph-name="Ccircumflex" unicode="&#x108;" horiz-adv-x="537" 
d="M483 29c-44.667 -28.667 -99.3311 -43.0029 -163.998 -43.0029c-44 0 -82.333 7.33301 -115 22s-59.834 35 -81.501 61s-37.834 56.333 -48.501 91s-16 72 -16 112c0 78.667 11 145.834 33 201.501s51 101.334 87 137.001s77.167 61.834 123.5 78.501s93.833 25 142.5 25
c38 0 70.5 -2.83301 97.5 -8.5s48.167 -12.167 63.5 -19.5l-51 -116c-13.333 7.33301 -29.333 12.833 -48 16.5s-42.334 5.5 -71.001 5.5c-34 0 -65.667 -7 -95 -21s-54.666 -34 -75.999 -60s-38.166 -57.667 -50.499 -95s-18.5 -79.666 -18.5 -126.999
c0 -56.667 14.167 -101 42.5 -133s66.166 -48 113.499 -48c30 0 54.833 3.16699 74.5 9.5s38.167 14.166 55.5 23.499zM424.003 869.997h87l101 -93l-8 -39h-88l-45 41l-13 34l-27 -33l-67 -42h-94l9 40z" />
    <glyph glyph-name="ccircumflex" unicode="&#x109;" horiz-adv-x="412" 
d="M393 387c-12.667 7.33301 -25.833 12.333 -39.5 15s-28.5 4 -44.5 4c-18 0 -35.5 -5.83301 -52.5 -17.5s-32.333 -27 -46 -46s-24.5 -41.167 -32.5 -66.5s-12 -51.333 -12 -78c0 -34 7.33301 -59.833 22 -77.5s34 -26.5 58 -26.5c20 0 38.5 3.16699 55.5 9.5
s32.167 13.5 45.5 21.5l23 -84c-21.333 -16 -46.166 -29.167 -74.499 -39.5s-56.5 -15.5 -84.5 -15.5c-32 0 -59.167 4.66699 -81.5 14s-40.5 22 -54.5 38s-24.333 34.333 -31 55s-10 42.334 -10 65.001c0 56 8 106 24 150s37.167 81.167 63.5 111.5
s56.333 53.666 90 69.999s68.167 24.5 103.5 24.5c31.333 0 56.166 -3 74.499 -9s34.833 -12.667 49.5 -20zM306.001 732h82l67 -182h-96l-24 66l-4 49l-27 -49l-57 -66h-97z" />
    <glyph glyph-name="Ccaron" unicode="&#x10c;" horiz-adv-x="537" 
d="M483 29c-44.667 -28.667 -99.3311 -43.0029 -163.998 -43.0029c-44 0 -82.333 7.33301 -115 22s-59.834 35 -81.501 61s-37.834 56.333 -48.501 91s-16 72 -16 112c0 78.667 11 145.834 33 201.501s51 101.334 87 137.001s77.167 61.834 123.5 78.501s93.833 25 142.5 25
c38 0 70.5 -2.83301 97.5 -8.5s48.167 -12.167 63.5 -19.5l-51 -116c-13.333 7.33301 -29.333 12.833 -48 16.5s-42.334 5.5 -71.001 5.5c-34 0 -65.667 -7 -95 -21s-54.666 -34 -75.999 -60s-38.166 -57.667 -50.499 -95s-18.5 -79.666 -18.5 -126.999
c0 -56.667 14.167 -101 42.5 -133s66.166 -48 113.499 -48c30 0 54.833 3.16699 74.5 9.5s38.167 14.166 55.5 23.499zM483.003 736.997h-84l-101 94l8 39h92l41 -45l12 -30l25 29l64 46h98l-8 -40z" />
    <glyph glyph-name="ccaron" unicode="&#x10d;" horiz-adv-x="412" 
d="M393 387c-12.667 7.33301 -25.833 12.333 -39.5 15s-28.5 4 -44.5 4c-18 0 -35.5 -5.83301 -52.5 -17.5s-32.333 -27 -46 -46s-24.5 -41.167 -32.5 -66.5s-12 -51.333 -12 -78c0 -34 7.33301 -59.833 22 -77.5s34 -26.5 58 -26.5c20 0 38.5 3.16699 55.5 9.5
s32.167 13.5 45.5 21.5l23 -84c-21.333 -16 -46.166 -29.167 -74.499 -39.5s-56.5 -15.5 -84.5 -15.5c-32 0 -59.167 4.66699 -81.5 14s-40.5 22 -54.5 38s-24.333 34.333 -31 55s-10 42.334 -10 65.001c0 56 8 106 24 150s37.167 81.167 63.5 111.5
s56.333 53.666 90 69.999s68.167 24.5 103.5 24.5c31.333 0 56.166 -3 74.499 -9s34.833 -12.667 49.5 -20zM346.001 550h-87l-70 182h103l23 -66l5 -49l28 49l56 66h98z" />
    <glyph glyph-name="Dcaron" unicode="&#x10e;" horiz-adv-x="620" 
d="M168 700c14 2 29.332 3.66504 45.999 4.99805s32.167 2.33301 46.5 3s26.833 1 37.5 1c6 0 14.5 0.166992 25.5 0.5s23.167 0.5 36.5 0.5c40.667 0 77.667 -5.16699 111 -15.5s61.833 -26.166 85.5 -47.499s42 -48.666 55 -81.999s19.5 -73 19.5 -119
c0 -29.333 -2.5 -60.833 -7.5 -94.5s-13.5 -67.5 -25.5 -101.5s-28.5 -66.667 -49.5 -98s-47.333 -59 -79 -83s-69.667 -43.333 -114 -58s-95.833 -22 -154.5 -22c-10 0 -20 0.166992 -30 0.5s-17 0.5 -21 0.5c-13.333 0.666992 -28.166 1.5 -44.499 2.5l-49 3
c-16.333 1 -28.5 2.16699 -36.5 3.5zM173.999 113.998c2.66699 -0.666992 6.83105 -1.16797 12.498 -1.50098s11.834 -0.666016 18.501 -0.999023s13 -0.5 19 -0.5h14c46.667 0 86.334 10.5 119.001 31.5s59.167 47.333 79.5 79s35 66 44 103s13.5 71.5 13.5 103.5
c0 53.333 -11.167 93.333 -33.5 120s-59.5 40 -111.5 40c-13.333 0 -27.333 -0.333008 -42 -1s-26 -1.66699 -34 -3zM427.996 736.997h-84l-101 94l8 39h92l41 -45l12 -30l25 29l64 46h98l-8 -40z" />
    <glyph glyph-name="dcaron" unicode="&#x10f;" horiz-adv-x="507" 
d="M442 176c-6 -28 -10.334 -53.998 -13.001 -77.998s-4 -46.667 -4 -68v-15.5c0 -5 0.333008 -10.167 1 -15.5h-84l-14 86h-4c-7.33301 -12 -16.833 -23.833 -28.5 -35.5s-24.5 -22.334 -38.5 -32.001s-28.833 -17.334 -44.5 -23.001s-31.167 -8.5 -46.5 -8.5
c-41.333 0 -73.166 14.667 -95.499 44s-33.5 69.666 -33.5 120.999c0 46.667 6.33301 91.667 19 135s30.5 81.833 53.5 115.5s51 60.5 84 80.5s69.5 30 109.5 30c19.333 0 35.333 -1.16699 48 -3.5s24.667 -6.16602 36 -11.499l43 203h123zM364.999 394.002
c-8 5.33301 -17.1709 9.16699 -27.5039 11.5s-24.166 3.5 -41.499 3.5c-20 0 -38.167 -6.83301 -54.5 -20.5s-30.166 -32 -41.499 -55s-20.166 -49.5 -26.499 -79.5s-9.5 -61.333 -9.5 -94c0 -19.333 4.33301 -36 13 -50s21 -21 37 -21c10 0 20.167 2.5 30.5 7.5
s20 11.5 29 19.5s17.333 16.667 25 26s13.834 18 18.501 26zM716.995 700.003c-5.33301 -19.333 -13.333 -39.5 -24 -60.5s-22.334 -41 -35.001 -60s-25.5 -36 -38.5 -51s-23.833 -25.833 -32.5 -32.5l-47 31c16 24 29.833 51.167 41.5 81.5s20.834 60.833 27.501 91.5h108z
" />
    <glyph glyph-name="Dcroat" unicode="&#x110;" horiz-adv-x="640" 
d="M40 401l84.998 -0.00195312l63 299c14 2 29.333 3.66699 46 5s32.5 2.33301 47.5 3s27.167 1 36.5 1c6.66699 0 15.334 0.166992 26.001 0.5s22.334 0.5 35.001 0.5c41.333 0 78.666 -5.16699 111.999 -15.5s61.833 -26.166 85.5 -47.499s42 -48.666 55 -81.999
s19.5 -73 19.5 -119c0 -29.333 -2.5 -60.833 -7.5 -94.5s-13.5 -67.5 -25.5 -101.5s-28.5 -66.667 -49.5 -98s-47.333 -59 -79 -83s-69.667 -43.333 -114 -58s-95.833 -22 -154.5 -22c-10 0 -19.667 0.166992 -29 0.5s-16.666 0.5 -21.999 0.5
c-12 0.666992 -26.5 1.5 -43.5 2.5s-33.667 2 -50 3s-28.5 2.16699 -36.5 3.5l68 322h-85zM253.998 400.998l131.998 -0.000976562l-17 -80h-132l-43 -207c2.66699 -0.666992 6.83398 -1.16699 12.501 -1.5s11.834 -0.666016 18.501 -0.999023s13 -0.5 19 -0.5h14
c46.667 0 86.334 10.5 119.001 31.5s59.167 47.333 79.5 79s35 66 44 103s13.5 71.5 13.5 103.5c0 53.333 -11.167 93.333 -33.5 120s-59.833 40 -112.5 40c-12.667 0 -26.334 -0.333008 -41.001 -1s-26 -1.66699 -34 -3z" />
    <glyph glyph-name="dcroat" unicode="&#x111;" horiz-adv-x="507" 
d="M540 641l102.999 0.00195312l-17 -80h-103l-81 -385c-6 -28 -10.333 -54 -13 -78s-4 -46.667 -4 -68v-15.5c0 -5 0.333008 -10.167 1 -15.5h-84l-14 86h-4c-7.33301 -12 -16.833 -23.833 -28.5 -35.5s-24.5 -22.334 -38.5 -32.001s-28.833 -17.334 -44.5 -23.001
s-31.167 -8.5 -46.5 -8.5c-41.333 0 -73.166 14.667 -95.499 44s-33.5 69.666 -33.5 120.999c0 46.667 6.33301 91.667 19 135s30.5 81.833 53.5 115.5s51 60.5 84 80.5s69.5 30 109.5 30c19.333 0 35.333 -1.16699 48 -3.5s24.667 -6.16602 36 -11.499l13 64h-109l17 80
h109l13 59h123zM364.999 394.002c-8 5.33301 -17.1709 9.16699 -27.5039 11.5s-24.166 3.5 -41.499 3.5c-20 0 -38.167 -6.83301 -54.5 -20.5s-30.166 -32 -41.499 -55s-20.166 -49.5 -26.499 -79.5s-9.5 -61.333 -9.5 -94c0 -19.333 4.33301 -36 13 -50s21 -21 37 -21
c10 0 20.167 2.5 30.5 7.5s20 11.5 29 19.5s17.333 16.667 25 26s13.834 18 18.501 26z" />
    <glyph glyph-name="Emacron" unicode="&#x112;" horiz-adv-x="503" 
d="M168 700h130h264l-26 -122h-264l-35 -163h241l-27 -122h-239l-37 -171h269l-25 -122h-269h-130zM226 856h327l-19 -89h-326z" />
    <glyph glyph-name="emacron" unicode="&#x113;" horiz-adv-x="466" 
d="M402 48c-20.667 -17.333 -47.334 -32.002 -80.001 -44.002s-70.667 -18 -114 -18c-54 0 -96.5 15.833 -127.5 47.5s-46.5 75.834 -46.5 132.501c0 53.333 8.33301 101.5 25 144.5s38.5 79.5 65.5 109.5s57.5 53.167 91.5 69.5s68 24.5 102 24.5
c27.333 0 50.833 -3.5 70.5 -10.5s35.834 -16.667 48.501 -29s22 -26.5 28 -42.5s9 -33 9 -51c0 -27.333 -7 -51.333 -21 -72s-33.5 -37.834 -58.5 -51.501s-55.167 -24 -90.5 -31s-74 -10.5 -116 -10.5c-5.33301 0 -10.333 0.166992 -15 0.5s-9.66699 0.5 -15 0.5
c-1.33301 -8 -2.33301 -15.167 -3 -21.5s-1 -12.166 -1 -17.499c0 -30 7.83301 -52.333 23.5 -67s37.834 -22 66.501 -22c29.333 0 55.666 4.33301 78.999 13s41 17.334 53 26.001zM176 294.998c18.667 0 38.499 0.666016 59.499 1.99902s40.5 4.5 58.5 9.5s33 12.333 45 22
s18 22.834 18 39.501c0 10 -3.66699 20.167 -11 30.5s-22.666 15.5 -45.999 15.5c-29.333 0 -54.833 -11.333 -76.5 -34s-37.5 -51 -47.5 -85zM187.999 657.997h308l-19 -92h-308z" />
    <glyph glyph-name="Edotaccent" unicode="&#x116;" horiz-adv-x="503" 
d="M168 700h130h264l-26 -122h-264l-35 -163h241l-27 -122h-239l-37 -171h269l-25 -122h-269h-130zM307 798c0 20.667 8 36 24 46s35.667 15 59 15c22 0 41.333 -5 58 -15s25 -25.333 25 -46c0 -20 -8 -35.167 -24 -45.5s-35.667 -15.5 -59 -15.5s-43 5 -59 15
s-24 25.333 -24 46z" />
    <glyph glyph-name="edotaccent" unicode="&#x117;" horiz-adv-x="466" 
d="M402 48c-20.667 -17.333 -47.334 -32.002 -80.001 -44.002s-70.667 -18 -114 -18c-54 0 -96.5 15.833 -127.5 47.5s-46.5 75.834 -46.5 132.501c0 53.333 8.33301 101.5 25 144.5s38.5 79.5 65.5 109.5s57.5 53.167 91.5 69.5s68 24.5 102 24.5
c27.333 0 50.833 -3.5 70.5 -10.5s35.834 -16.667 48.501 -29s22 -26.5 28 -42.5s9 -33 9 -51c0 -27.333 -7 -51.333 -21 -72s-33.5 -37.834 -58.5 -51.501s-55.167 -24 -90.5 -31s-74 -10.5 -116 -10.5c-5.33301 0 -10.333 0.166992 -15 0.5s-9.66699 0.5 -15 0.5
c-1.33301 -8 -2.33301 -15.167 -3 -21.5s-1 -12.166 -1 -17.499c0 -30 7.83301 -52.333 23.5 -67s37.834 -22 66.501 -22c29.333 0 55.666 4.33301 78.999 13s41 17.334 53 26.001zM176 294.998c18.667 0 38.499 0.666016 59.499 1.99902s40.5 4.5 58.5 9.5s33 12.333 45 22
s18 22.834 18 39.501c0 10 -3.66699 20.167 -11 30.5s-22.666 15.5 -45.999 15.5c-29.333 0 -54.833 -11.333 -76.5 -34s-37.5 -51 -47.5 -85zM269.999 641.997c0 22 7.16699 39 21.5 51s32.5 18 54.5 18c21.333 0 39.5 -6 54.5 -18s22.5 -29 22.5 -51
c0 -21.333 -7.5 -38.166 -22.5 -50.499s-33.167 -18.5 -54.5 -18.5c-22 0 -40.167 6.16699 -54.5 18.5s-21.5 29.166 -21.5 50.499z" />
    <glyph glyph-name="Eogonek" unicode="&#x118;" horiz-adv-x="503" 
d="M168 700l129.999 0.000976562h264l-26 -122h-264l-35 -163h241l-27 -122h-239l-37 -171h269l-25 -122h-20c-21.333 -8 -39.166 -18.5 -53.499 -31.5s-21.5 -29.167 -21.5 -48.5c0 -22.667 12.667 -34 38 -34c9.33301 0 22 2.66699 38 8l5 -62
c-12 -8.66699 -28.5 -16.334 -49.5 -23.001s-42.5 -10 -64.5 -10c-32 0 -55.833 7.33301 -71.5 22s-23.5 33.334 -23.5 56.001c0 16 3 30.5 9 43.5s14 24.5 24 34.5s21.5 18.667 34.5 26s26.5 13.666 40.5 18.999h-154h-130z" />
    <glyph glyph-name="eogonek" unicode="&#x119;" horiz-adv-x="466" 
d="M402 48c-21.333 -18 -47.333 -32.3379 -78 -43.0049c-17.333 -10.667 -31.666 -23.334 -42.999 -38.001s-17 -30.334 -17 -47.001c0 -7.33301 1.33301 -14 4 -20s7 -10.333 13 -13s13.667 -3.5 23 -2.5s20.666 4.83301 33.999 11.5l5 -62
c-6 -4 -13.333 -8.16699 -22 -12.5s-18.167 -8.16602 -28.5 -11.499s-21.333 -6.16602 -33 -8.49902s-22.834 -3.5 -33.501 -3.5c-34 0 -57.833 7.33301 -71.5 22s-20.5 33.334 -20.5 56.001s8 43.334 24 62.001s35.333 34.667 58 48h-8c-54 0 -96.5 15.833 -127.5 47.5
s-46.5 75.834 -46.5 132.501c0 53.333 8.33301 101.5 25 144.5s38.5 79.5 65.5 109.5s57.5 53.167 91.5 69.5s68 24.5 102 24.5c27.333 0 50.833 -3.5 70.5 -10.5s35.834 -16.667 48.501 -29s22 -26.5 28 -42.5s9 -33 9 -51c0 -28.667 -7.83301 -53.667 -23.5 -75
s-37 -38.833 -64 -52.5s-60.333 -23.667 -100 -30s-82.5 -8.5 -128.5 -6.5c-1.33301 -8 -2.33301 -15.167 -3 -21.5s-1 -12.166 -1 -17.499c0 -30 7.83301 -52.333 23.5 -67s37.834 -22 66.501 -22c29.333 0 55.666 4.33301 78.999 13s41 17.334 53 26.001zM300 413.995
c-29.333 0 -54.834 -11.334 -76.501 -34.001s-37.5 -51 -47.5 -85c18.667 0 38.5 0.666992 59.5 2s40.5 4.5 58.5 9.5s33 12.333 45 22s18 22.834 18 39.501c0 10 -3.66699 20.167 -11 30.5s-22.666 15.5 -45.999 15.5z" />
    <glyph glyph-name="Ecaron" unicode="&#x11a;" horiz-adv-x="503" 
d="M168 700h130h264l-26 -122h-264l-35 -163h241l-27 -122h-239l-37 -171h269l-25 -122h-269h-130zM407 737h-84l-101 94l8 39h92l41 -45l12 -30l25 29l64 46h98l-8 -40z" />
    <glyph glyph-name="ecaron" unicode="&#x11b;" horiz-adv-x="466" 
d="M402 48c-20.667 -17.333 -47.334 -32.002 -80.001 -44.002s-70.667 -18 -114 -18c-54 0 -96.5 15.833 -127.5 47.5s-46.5 75.834 -46.5 132.501c0 53.333 8.33301 101.5 25 144.5s38.5 79.5 65.5 109.5s57.5 53.167 91.5 69.5s68 24.5 102 24.5
c27.333 0 50.833 -3.5 70.5 -10.5s35.834 -16.667 48.501 -29s22 -26.5 28 -42.5s9 -33 9 -51c0 -27.333 -7 -51.333 -21 -72s-33.5 -37.834 -58.5 -51.501s-55.167 -24 -90.5 -31s-74 -10.5 -116 -10.5c-5.33301 0 -10.333 0.166992 -15 0.5s-9.66699 0.5 -15 0.5
c-1.33301 -8 -2.33301 -15.167 -3 -21.5s-1 -12.166 -1 -17.499c0 -30 7.83301 -52.333 23.5 -67s37.834 -22 66.501 -22c29.333 0 55.666 4.33301 78.999 13s41 17.334 53 26.001zM176 294.998c18.667 0 38.499 0.666016 59.499 1.99902s40.5 4.5 58.5 9.5s33 12.333 45 22
s18 22.834 18 39.501c0 10 -3.66699 20.167 -11 30.5s-22.666 15.5 -45.999 15.5c-29.333 0 -54.833 -11.333 -76.5 -34s-37.5 -51 -47.5 -85zM361.999 549.997h-87l-70 182h103l23 -66l5 -49l28 49l56 66h98z" />
    <glyph glyph-name="Gcircumflex" unicode="&#x11c;" horiz-adv-x="585" 
d="M369 365h210l-66 -312c-30 -23.333 -61.5 -40.333 -94.5 -51s-68.5 -16 -106.5 -16c-36.667 0 -70.5 6.33301 -101.5 19s-57.833 31 -80.5 55s-40.334 53.667 -53.001 89s-19 75.666 -19 120.999c0 76.667 10.5 143 31.5 199s49.5 102.167 85.5 138.5
s78 63.166 126 80.499s98.667 26 152 26c38 0 71.833 -3.16699 101.5 -9.5s52.167 -12.833 67.5 -19.5l-52 -115c-14 6.66699 -31.5 12 -52.5 16s-46.5 6 -76.5 6c-35.333 0 -68 -6.66699 -98 -20s-56 -33 -78 -59s-39.167 -58.167 -51.5 -96.5
s-18.5 -82.166 -18.5 -131.499c0 -55.333 13 -98.666 39 -129.999s61 -47 105 -47c32.667 0 61.334 8.33301 86.001 25l28 133l-102 16zM439 870h87l101 -93l-8 -39h-88l-45 41l-13 34l-27 -33l-67 -42h-94l9 40z" />
    <glyph glyph-name="gcircumflex" unicode="&#x11d;" horiz-adv-x="505" 
d="M407 0c-8.66699 -39.333 -20.3379 -72.498 -35.0049 -99.498s-32.167 -48.833 -52.5 -65.5s-43.666 -28.667 -69.999 -36s-55.5 -11 -87.5 -11c-23.333 0 -44.166 1.66699 -62.499 5s-34.5 7.33301 -48.5 12s-26.167 9.5 -36.5 14.5s-18.5 9.5 -24.5 13.5l46 91
c6 -2.66699 13 -5.83398 21 -9.50098s17.167 -7.33398 27.5 -11.001s22.333 -6.66699 36 -9s29.5 -3.5 47.5 -3.5c33.333 0 59.833 10.333 79.5 31s33.834 49 42.501 85l19 78h-4c-15.333 -24 -36.166 -45.5 -62.499 -64.5s-56.166 -28.5 -89.499 -28.5
c-36 0 -65.167 13.5 -87.5 40.5s-33.5 63.167 -33.5 108.5c0 51.333 7.33301 99.5 22 144.5s35.167 84.333 61.5 118s57.5 60.167 93.5 79.5s75.667 29 119 29c40.667 0 76.167 -3.5 106.5 -10.5s54.833 -14.833 73.5 -23.5zM370.996 399.002
c-7.33301 4 -16.6699 6.66699 -28.0029 8s-22.666 2 -33.999 2c-21.333 0 -41.166 -6.33301 -59.499 -19s-34.166 -30 -47.499 -52s-23.833 -47.833 -31.5 -77.5s-11.5 -61.5 -11.5 -95.5c0 -21.333 4.5 -38.333 13.5 -51s20.833 -19 35.5 -19c11.333 0 23 3.5 35 10.5
s23.5 15.833 34.5 26.5s20.833 22.5 29.5 35.5s15.667 25.167 21 36.5zM337.992 732.002h82l67 -182h-96l-24 66l-4 49l-27 -49l-57 -66h-97z" />
    <glyph glyph-name="Gbreve" unicode="&#x11e;" horiz-adv-x="585" 
d="M369 365h210l-66 -312c-30 -23.333 -61.5 -40.333 -94.5 -51s-68.5 -16 -106.5 -16c-36.667 0 -70.5 6.33301 -101.5 19s-57.833 31 -80.5 55s-40.334 53.667 -53.001 89s-19 75.666 -19 120.999c0 76.667 10.5 143 31.5 199s49.5 102.167 85.5 138.5
s78 63.166 126 80.499s98.667 26 152 26c38 0 71.833 -3.16699 101.5 -9.5s52.167 -12.833 67.5 -19.5l-52 -115c-14 6.66699 -31.5 12 -52.5 16s-46.5 6 -76.5 6c-35.333 0 -68 -6.66699 -98 -20s-56 -33 -78 -59s-39.167 -58.167 -51.5 -96.5
s-18.5 -82.166 -18.5 -131.499c0 -55.333 13 -98.666 39 -129.999s61 -47 105 -47c32.667 0 61.334 8.33301 86.001 25l28 133l-102 16zM339 875c12 -17.333 26.6631 -30.667 43.9961 -40s39 -14 65 -14c36.667 0 67.334 5 92.001 15s46.334 23 65.001 39l49 -32
c-11.333 -20 -24.666 -37.167 -39.999 -51.5s-32 -26 -50 -35s-37.167 -15.667 -57.5 -20s-40.833 -6.5 -61.5 -6.5c-17.333 0 -34.166 2.5 -50.499 7.5s-31.333 12.333 -45 22s-25.667 21.167 -36 34.5s-17.833 28 -22.5 44z" />
    <glyph glyph-name="gbreve" unicode="&#x11f;" horiz-adv-x="505" 
d="M407 0c-8.66699 -39.333 -20.3379 -72.498 -35.0049 -99.498s-32.167 -48.833 -52.5 -65.5s-43.666 -28.667 -69.999 -36s-55.5 -11 -87.5 -11c-23.333 0 -44.166 1.66699 -62.499 5s-34.5 7.33301 -48.5 12s-26.167 9.5 -36.5 14.5s-18.5 9.5 -24.5 13.5l46 91
c6 -2.66699 13 -5.83398 21 -9.50098s17.167 -7.33398 27.5 -11.001s22.333 -6.66699 36 -9s29.5 -3.5 47.5 -3.5c33.333 0 59.833 10.333 79.5 31s33.834 49 42.501 85l19 78h-4c-15.333 -24 -36.166 -45.5 -62.499 -64.5s-56.166 -28.5 -89.499 -28.5
c-36 0 -65.167 13.5 -87.5 40.5s-33.5 63.167 -33.5 108.5c0 51.333 7.33301 99.5 22 144.5s35.167 84.333 61.5 118s57.5 60.167 93.5 79.5s75.667 29 119 29c40.667 0 76.167 -3.5 106.5 -10.5s54.833 -14.833 73.5 -23.5zM370.996 399.002
c-7.33301 4 -16.6699 6.66699 -28.0029 8s-22.666 2 -33.999 2c-21.333 0 -41.166 -6.33301 -59.499 -19s-34.166 -30 -47.499 -52s-23.833 -47.833 -31.5 -77.5s-11.5 -61.5 -11.5 -95.5c0 -21.333 4.5 -38.333 13.5 -51s20.833 -19 35.5 -19c11.333 0 23 3.5 35 10.5
s23.5 15.833 34.5 26.5s20.833 22.5 29.5 35.5s15.667 25.167 21 36.5zM258.992 720.002c14 -39.333 42 -59 84 -59c26 0 49.5 5.16699 70.5 15.5s38.5 24.833 52.5 43.5l51 -27c-5.33301 -16 -13.833 -31.833 -25.5 -47.5s-25.667 -29.5 -42 -41.5
s-34.833 -21.667 -55.5 -29s-42 -11 -64 -11c-41.333 0 -74.333 11.167 -99 33.5s-37.667 52.5 -39 90.5z" />
    <glyph glyph-name="Gcommaaccent" unicode="&#x122;" horiz-adv-x="585" 
d="M369 365h210l-66 -312c-30 -23.333 -61.5 -40.333 -94.5 -51s-68.5 -16 -106.5 -16c-36.667 0 -70.5 6.33301 -101.5 19s-57.833 31 -80.5 55s-40.334 53.667 -53.001 89s-19 75.666 -19 120.999c0 76.667 10.5 143 31.5 199s49.5 102.167 85.5 138.5
s78 63.166 126 80.499s98.667 26 152 26c38 0 71.833 -3.16699 101.5 -9.5s52.167 -12.833 67.5 -19.5l-52 -115c-14 6.66699 -31.5 12 -52.5 16s-46.5 6 -76.5 6c-35.333 0 -68 -6.66699 -98 -20s-56 -33 -78 -59s-39.167 -58.167 -51.5 -96.5
s-18.5 -82.166 -18.5 -131.499c0 -55.333 13 -98.666 39 -129.999s61 -47 105 -47c32.667 0 61.334 8.33301 86.001 25l28 133l-102 16zM221 -113c0 11.333 2.1709 21.3311 6.50391 29.998s10 16 17 22s14.833 10.667 23.5 14s17.667 5 27 5
c23.333 0 39.833 -6.33301 49.5 -19s14.167 -29.667 13.5 -51c0 -24 -4.66699 -45.167 -14 -63.5s-20.833 -34.166 -34.5 -47.499s-27.834 -24.166 -42.501 -32.499s-27.334 -14.166 -38.001 -17.499l-21 54c10.667 4.66699 21.167 11.167 31.5 19.5
s18.166 19.166 23.499 32.499c-12.667 2 -22.834 7.5 -30.501 16.5s-11.5 21.5 -11.5 37.5z" />
    <glyph glyph-name="gcommaaccent" unicode="&#x123;" horiz-adv-x="505" 
d="M407 0c-8.66699 -39.333 -20.3379 -72.498 -35.0049 -99.498s-32.167 -48.833 -52.5 -65.5s-43.666 -28.667 -69.999 -36s-55.5 -11 -87.5 -11c-23.333 0 -44.166 1.66699 -62.499 5s-34.5 7.33301 -48.5 12s-26.167 9.5 -36.5 14.5s-18.5 9.5 -24.5 13.5l46 91
c6 -2.66699 13 -5.83398 21 -9.50098s17.167 -7.33398 27.5 -11.001s22.333 -6.66699 36 -9s29.5 -3.5 47.5 -3.5c33.333 0 59.833 10.333 79.5 31s33.834 49 42.501 85l19 78h-4c-15.333 -24 -36.166 -45.5 -62.499 -64.5s-56.166 -28.5 -89.499 -28.5
c-36 0 -65.167 13.5 -87.5 40.5s-33.5 63.167 -33.5 108.5c0 51.333 7.33301 99.5 22 144.5s35.167 84.333 61.5 118s57.5 60.167 93.5 79.5s75.667 29 119 29c40.667 0 76.167 -3.5 106.5 -10.5s54.833 -14.833 73.5 -23.5zM370.996 399.002
c-7.33301 4 -16.6699 6.66699 -28.0029 8s-22.666 2 -33.999 2c-21.333 0 -41.166 -6.33301 -59.499 -19s-34.166 -30 -47.499 -52s-23.833 -47.833 -31.5 -77.5s-11.5 -61.5 -11.5 -95.5c0 -21.333 4.5 -38.333 13.5 -51s20.833 -19 35.5 -19c11.333 0 23 3.5 35 10.5
s23.5 15.833 34.5 26.5s20.833 22.5 29.5 35.5s15.667 25.167 21 36.5zM415.993 621.995c0 -11.333 -2.16602 -21.334 -6.49902 -30s-9.99902 -15.999 -16.998 -21.999c-7 -5.99902 -14.833 -10.665 -23.499 -13.998s-17.665 -5 -26.998 -5
c-23.332 0 -39.8311 6.33301 -49.4971 18.999s-14.166 29.665 -13.499 50.9971c0 23.999 4.66602 45.1641 13.999 63.4961s20.832 34.1641 34.498 47.4971s27.832 24.166 42.4971 32.499c14.666 8.33301 27.332 14.166 37.998 17.499l20.998 -53.9971
c-10.666 -4.66602 -21.165 -11.165 -31.498 -19.498s-18.166 -19.166 -23.499 -32.498c12.666 -2 22.832 -7.5 30.498 -16.499c7.66602 -9 11.499 -21.499 11.499 -37.498z" />
    <glyph glyph-name="Hcircumflex" unicode="&#x124;" horiz-adv-x="624" 
d="M455 293h-243l-62 -293h-130l148 700h130l-60 -285h243l60 285h130l-148 -700h-130zM424 870h87l101 -93l-8 -39h-88l-45 41l-13 34l-27 -33l-67 -42h-94l9 40z" />
    <glyph glyph-name="hcircumflex" unicode="&#x125;" horiz-adv-x="528" 
d="M309 0l59.998 284.001c6.66699 29.333 10 53.666 10 72.999c0 17.333 -3.33301 29.833 -10 37.5s-17 11.5 -31 11.5c-12.667 0 -26 -4 -40 -12s-27.333 -18 -40 -30s-24.167 -24.833 -34.5 -38.5s-18.166 -26.167 -23.499 -37.5l-59 -288h-123l148 700h123l-63 -288h4
c8.66699 10.667 19.167 22 31.5 34s26 23 41 33s31.333 18.333 49 25s36.834 10 57.501 10c32 0 56.833 -8 74.5 -24s26.5 -44.333 26.5 -85c0 -24.667 -4 -56 -12 -94l-66 -311h-123zM221.998 870.001h87l101 -93l-8 -39h-88l-45 41l-13 34l-27 -33l-67 -42h-94l9 40z" />
    <glyph glyph-name="Hbar" unicode="&#x126;" horiz-adv-x="656" 
d="M92 598h70l22 102h130l-22 -102h243l22 102h130l-22 -102h72l-17 -82h-72l-109 -516h-130l62 293h-243l-62 -293h-130l109 516h-70zM497 415l21 101h-243l-21 -101h243z" />
    <glyph glyph-name="hbar" unicode="&#x127;" horiz-adv-x="528" 
d="M84 641l68.998 0.000976562l13 59h123l-13 -59h155l-17 -80h-156l-32 -149h4c8.66699 10.667 19.167 22 31.5 34s26 23 41 33s31.333 18.333 49 25s36.834 10 57.501 10c32 0 56.833 -8 74.5 -24s26.5 -44.333 26.5 -85c0 -24.667 -4 -56 -12 -94l-66 -311h-123l60 284
c6.66699 29.333 10 53.666 10 72.999c0 17.333 -3.33301 29.833 -10 37.5s-17 11.5 -31 11.5c-12.667 0 -26 -4 -40 -12s-27.333 -18 -40 -30s-24.167 -24.833 -34.5 -38.5s-18.166 -26.167 -23.499 -37.5l-59 -288h-123l118 561h-69z" />
    <glyph glyph-name="Imacron" unicode="&#x12a;" horiz-adv-x="278" 
d="M183 700h129l-148 -700h-129zM112 856h327l-19 -89h-326z" />
    <glyph glyph-name="imacron" unicode="&#x12b;" horiz-adv-x="256" 
d="M133 500h123l-106 -500h-123zM75 658h308l-19 -92h-308z" />
    <glyph glyph-name="Iogonek" unicode="&#x12e;" horiz-adv-x="278" 
d="M183 700l128.999 -0.000976562l-148 -700h-14c-17.333 -8.66699 -32.166 -19.5 -44.499 -32.5s-18.5 -28.5 -18.5 -46.5c0 -10.667 3.16699 -19.167 9.5 -25.5s15.5 -9.5 27.5 -9.5c10.667 0 23.667 3 39 9l5 -62c-12 -8.66699 -28.5 -16.5 -49.5 -23.5
s-42.5 -10.5 -64.5 -10.5c-32 0 -55.833 7.33301 -71.5 22s-23.5 33.334 -23.5 56.001c0 15.333 3 29.333 9 42s14 24.167 24 34.5s21.333 19.333 34 27s25.667 14.167 39 19.5h-30z" />
    <glyph glyph-name="iogonek" unicode="&#x12f;" horiz-adv-x="257" 
d="M133 500l123.001 -0.000976562l-106 -500h-10c-17.333 -10 -32 -22.5 -44 -37.5s-18 -30.5 -18 -46.5c0 -13.333 5.5 -23.333 16.5 -30s30.167 -3.33398 57.5 9.99902l6 -62c-6 -4 -13.333 -8.16699 -22 -12.5s-18.167 -8.16602 -28.5 -11.499
s-21.333 -6.16602 -33 -8.49902s-22.834 -3.5 -33.501 -3.5c-35.333 0 -59.333 6.83301 -72 20.5s-19 31.5 -19 53.5c0 13.333 2.83301 26.333 8.5 39s13.5 24.5 23.5 35.5s21.5 21.167 34.5 30.5s26.833 17 41.5 23h-31zM150.001 641.999c0 22 7.16699 39 21.5 51
s32.5 18 54.5 18c21.333 0 39.5 -6 54.5 -18s22.5 -29 22.5 -51c0 -21.333 -7.5 -38.166 -22.5 -50.499s-33.167 -18.5 -54.5 -18.5c-22 0 -40.167 6.16699 -54.5 18.5s-21.5 29.166 -21.5 50.499z" />
    <glyph glyph-name="Idotaccent" unicode="&#x130;" horiz-adv-x="278" 
d="M183 700h129l-148 -700h-129zM183 798c0 20.667 8 36 24 46s35.667 15 59 15c22 0 41.333 -5 58 -15s25 -25.333 25 -46c0 -20 -8 -35.167 -24 -45.5s-35.667 -15.5 -59 -15.5s-43 5 -59 15s-24 25.333 -24 46z" />
    <glyph glyph-name="dotlessi" unicode="&#x131;" horiz-adv-x="256" 
d="M133 500h123l-106 -500h-123z" />
    <glyph glyph-name="Jcircumflex" unicode="&#x134;" horiz-adv-x="324" 
d="M239 700l130.001 -0.000976562l-109 -512c-6 -28 -13.667 -54.167 -23 -78.5s-21.666 -45.5 -36.999 -63.5s-34.5 -32.167 -57.5 -42.5s-50.833 -15.5 -83.5 -15.5c-18.667 0 -38.334 2 -59.001 6s-37.667 9.66699 -51 17l50 112c15.333 -8.66699 33.333 -13 54 -13
c14 0 25.667 2.83301 35 8.5s17.166 13.5 23.499 23.5s11.5 21.833 15.5 35.5s8 28.834 12 45.501zM296.001 869.999h87l101 -93l-8 -39h-88l-45 41l-13 34l-27 -33l-67 -42h-94l9 40z" />
    <glyph glyph-name="jcircumflex" unicode="&#x135;" horiz-adv-x="244" 
d="M123 500l124.001 0.00195312l-111 -521c-12.667 -60 -34 -105.833 -64 -137.5s-70.667 -47.5 -122 -47.5c-20.667 0 -41.334 2.33301 -62.001 7l24 106c16.667 -1.33301 31 0.166992 43 4.5s22.167 11.166 30.5 20.499s15.333 21.166 21 35.499s10.5 30.5 14.5 48.5z
M198.001 732.002h82l67 -182h-96l-24 66l-4 49l-27 -49l-57 -66h-97z" />
    <glyph glyph-name="Kcommaaccent" unicode="&#x136;" horiz-adv-x="593" 
d="M260 299h-47l-63 -299h-130l148 700h130l-66 -310l31 11l237 299h156l-252 -297l-60 -35l44 -39l152 -329h-145zM151 -113c0 11.333 2.1709 21.3311 6.50391 29.998s10 16 17 22s14.833 10.667 23.5 14s17.667 5 27 5c23.333 0 39.833 -6.33301 49.5 -19
s14.167 -29.667 13.5 -51c0 -24 -4.66699 -45.167 -14 -63.5s-20.833 -34.166 -34.5 -47.499s-27.834 -24.166 -42.501 -32.499s-27.334 -14.166 -38.001 -17.499l-21 54c10.667 4.66699 21.167 11.167 31.5 19.5s18.166 19.166 23.499 32.499
c-12.667 2 -22.834 7.5 -30.501 16.5s-11.5 21.5 -11.5 37.5z" />
    <glyph glyph-name="kcommaaccent" unicode="&#x137;" horiz-adv-x="465" 
d="M224 207h-40l-43 -207h-123l148 700h123l-88 -413l37 13l141 200h137l-149 -201l-60 -38l45 -38l76 -223h-132zM109 -113c0 11.333 2.1709 21.3311 6.50391 29.998s10 16 17 22s14.833 10.667 23.5 14s17.667 5 27 5c23.333 0 39.833 -6.33301 49.5 -19
s14.167 -29.667 13.5 -51c0 -24 -4.66699 -45.167 -14 -63.5s-20.833 -34.166 -34.5 -47.499s-27.834 -24.166 -42.501 -32.499s-27.334 -14.166 -38.001 -17.499l-21 54c10.667 4.66699 21.167 11.167 31.5 19.5s18.166 19.166 23.499 32.499
c-12.667 2 -22.834 7.5 -30.501 16.5s-11.5 21.5 -11.5 37.5z" />
    <glyph glyph-name="Lacute" unicode="&#x139;" horiz-adv-x="495" 
d="M441 0h-291h-130l148 700h130l-123 -578h291zM311 870h157l-6 -30l-172 -88h-104z" />
    <glyph glyph-name="lacute" unicode="&#x13a;" horiz-adv-x="272" 
d="M168 148c-4 -19.333 -3.83398 -33.667 0.499023 -43s11.5 -14 21.5 -14c18.667 0 36.334 3.66699 53.001 11l-3 -89c-12 -7.33301 -29.333 -13.333 -52 -18s-45 -7 -67 -7c-28.667 0 -50.5 5.5 -65.5 16.5s-22.5 31.5 -22.5 61.5c0 15.333 2 33 6 53l123 581h123z
M298.999 869.999h157l-6 -30l-172 -88h-104z" />
    <glyph glyph-name="Lcommaaccent" unicode="&#x13b;" horiz-adv-x="495" 
d="M441 0h-291h-130l148 700h130l-123 -578h291zM126 -113c0 11.333 2.1709 21.3311 6.50391 29.998s10 16 17 22s14.833 10.667 23.5 14s17.667 5 27 5c23.333 0 39.833 -6.33301 49.5 -19s14.167 -29.667 13.5 -51c0 -24 -4.66699 -45.167 -14 -63.5
s-20.833 -34.166 -34.5 -47.499s-27.834 -24.166 -42.501 -32.499s-27.334 -14.166 -38.001 -17.499l-21 54c10.667 4.66699 21.167 11.167 31.5 19.5s18.166 19.166 23.499 32.499c-12.667 2 -22.834 7.5 -30.501 16.5s-11.5 21.5 -11.5 37.5z" />
    <glyph glyph-name="lcommaaccent" unicode="&#x13c;" horiz-adv-x="272" 
d="M168 148c-4 -19.333 -3.83398 -33.667 0.499023 -43s11.5 -14 21.5 -14c18.667 0 36.334 3.66699 53.001 11l-3 -89c-12 -7.33301 -29.333 -13.333 -52 -18s-45 -7 -67 -7c-28.667 0 -50.5 5.5 -65.5 16.5s-22.5 31.5 -22.5 61.5c0 15.333 2 33 6 53l123 581h123z
M26.999 -113.001c0 11.333 2.1709 21.3311 6.50391 29.998s10 16 17 22s14.833 10.667 23.5 14s17.667 5 27 5c23.333 0 39.833 -6.33301 49.5 -19s14.167 -29.667 13.5 -51c0 -24 -4.66699 -45.167 -14 -63.5s-20.833 -34.166 -34.5 -47.499
s-27.834 -24.166 -42.501 -32.499s-27.334 -14.166 -38.001 -17.499l-21 54c10.667 4.66699 21.167 11.167 31.5 19.5s18.166 19.166 23.499 32.499c-12.667 2 -22.834 7.5 -30.501 16.5s-11.5 21.5 -11.5 37.5z" />
    <glyph glyph-name="Lcaron" unicode="&#x13d;" horiz-adv-x="495" 
d="M441 0h-291h-130l148 700h130l-123 -578h291zM551 700c-5.33301 -19.333 -13.333 -39.5 -24 -60.5s-22.334 -41 -35.001 -60s-25.5 -36 -38.5 -51s-23.833 -25.833 -32.5 -32.5l-47 31c16 24 29.833 51.167 41.5 81.5s20.834 60.833 27.501 91.5h108z" />
    <glyph glyph-name="lcaron" unicode="&#x13e;" horiz-adv-x="272" 
d="M168 148c-4 -19.333 -3.83398 -33.667 0.499023 -43s11.5 -14 21.5 -14c18.667 0 36.334 3.66699 53.001 11l-3 -89c-12 -7.33301 -29.333 -13.333 -52 -18s-45 -7 -67 -7c-28.667 0 -50.5 5.5 -65.5 16.5s-22.5 31.5 -22.5 61.5c0 15.333 2 33 6 53l123 581h123z
M452.999 699.999c-5.33301 -19.333 -13.333 -39.5 -24 -60.5s-22.334 -41 -35.001 -60s-25.5 -36 -38.5 -51s-23.833 -25.833 -32.5 -32.5l-47 31c16 24 29.833 51.167 41.5 81.5s20.834 60.833 27.501 91.5h108z" />
    <glyph glyph-name="Lslash" unicode="&#x141;" horiz-adv-x="500" 
d="M29 318l72 44l72 338h130l-53 -246l112 68l-27 -125l-111 -67l-44 -208h291l-25 -122h-288h-133l51 241l-73 -44z" />
    <glyph glyph-name="lslash" unicode="&#x142;" horiz-adv-x="272" 
d="M4 307l85.999 51.999l72 341h123l-54 -254l106 65l-27 -125l-105 -63l-37 -175c-4 -19.333 -3.83301 -33.666 0.5 -42.999s11.5 -14 21.5 -14c18.667 0 36.334 3.66699 53.001 11l-3 -89c-12 -7.33301 -29.333 -13.333 -52 -18s-45 -7 -67 -7
c-28.667 0 -50.5 5.5 -65.5 16.5s-22.5 31.5 -22.5 61.5c0 15.333 2 33 6 53l25 119l-86 -52z" />
    <glyph glyph-name="Nacute" unicode="&#x143;" horiz-adv-x="631" 
d="M267 366l-33 112h-5l-9 -112l-77 -366h-123l150 705h90l172 -374l31 -109h6l7 109l79 369h123l-150 -705h-90zM489 870h157l-6 -30l-172 -88h-104z" />
    <glyph glyph-name="nacute" unicode="&#x144;" horiz-adv-x="521" 
d="M295 0l65.999 309.999c4 18.667 6 35 6 49c0 14.667 -3 26.167 -9 34.5s-17 12.5 -33 12.5c-12 0 -24 -3 -36 -9s-23.333 -14 -34 -24s-20.667 -21.167 -30 -33.5s-17.333 -24.833 -24 -37.5l-64 -302h-123l106 500h93l-5 -88h4c8.66699 10.667 18.834 22 30.501 34
s25.167 23 40.5 33s32.5 18.333 51.5 25s40.5 10 64.5 10c30 0 54 -8.16699 72 -24.5s27 -43.5 27 -81.5c0 -10 -0.5 -20.667 -1.5 -32s-3.16699 -23.666 -6.5 -36.999l-72 -339h-123zM379.999 719.999h125l-6 -30l-133 -124h-69z" />
    <glyph glyph-name="Ncommaaccent" unicode="&#x145;" horiz-adv-x="631" 
d="M267 366l-33 112h-5l-9 -112l-77 -366h-123l150 705h90l172 -374l31 -109h6l7 109l79 369h123l-150 -705h-90zM181 -113c0 11.333 2.1709 21.3311 6.50391 29.998s10 16 17 22s14.833 10.667 23.5 14s17.667 5 27 5c23.333 0 39.833 -6.33301 49.5 -19
s14.167 -29.667 13.5 -51c0 -24 -4.66699 -45.167 -14 -63.5s-20.833 -34.166 -34.5 -47.499s-27.834 -24.166 -42.501 -32.499s-27.334 -14.166 -38.001 -17.499l-21 54c10.667 4.66699 21.167 11.167 31.5 19.5s18.166 19.166 23.499 32.499
c-12.667 2 -22.834 7.5 -30.501 16.5s-11.5 21.5 -11.5 37.5z" />
    <glyph glyph-name="ncommaaccent" unicode="&#x146;" horiz-adv-x="521" 
d="M295 0l65.999 309.999c4 18.667 6 35 6 49c0 14.667 -3 26.167 -9 34.5s-17 12.5 -33 12.5c-12 0 -24 -3 -36 -9s-23.333 -14 -34 -24s-20.667 -21.167 -30 -33.5s-17.333 -24.833 -24 -37.5l-64 -302h-123l106 500h93l-5 -88h4c8.66699 10.667 18.834 22 30.501 34
s25.167 23 40.5 33s32.5 18.333 51.5 25s40.5 10 64.5 10c30 0 54 -8.16699 72 -24.5s27 -43.5 27 -81.5c0 -10 -0.5 -20.667 -1.5 -32s-3.16699 -23.666 -6.5 -36.999l-72 -339h-123zM127.999 -113.001c0 11.333 2.1709 21.3311 6.50391 29.998s10 16 17 22
s14.833 10.667 23.5 14s17.667 5 27 5c23.333 0 39.833 -6.33301 49.5 -19s14.167 -29.667 13.5 -51c0 -24 -4.66699 -45.167 -14 -63.5s-20.833 -34.166 -34.5 -47.499s-27.834 -24.166 -42.501 -32.499s-27.334 -14.166 -38.001 -17.499l-21 54
c10.667 4.66699 21.167 11.167 31.5 19.5s18.166 19.166 23.499 32.499c-12.667 2 -22.834 7.5 -30.501 16.5s-11.5 21.5 -11.5 37.5z" />
    <glyph glyph-name="Ncaron" unicode="&#x147;" horiz-adv-x="631" 
d="M267 366l-33 112h-5l-9 -112l-77 -366h-123l150 705h90l172 -374l31 -109h6l7 109l79 369h123l-150 -705h-90zM469 737h-84l-101 94l8 39h92l41 -45l12 -30l25 29l64 46h98l-8 -40z" />
    <glyph glyph-name="ncaron" unicode="&#x148;" horiz-adv-x="521" 
d="M295 0l65.999 309.999c4 18.667 6 35 6 49c0 14.667 -3 26.167 -9 34.5s-17 12.5 -33 12.5c-12 0 -24 -3 -36 -9s-23.333 -14 -34 -24s-20.667 -21.167 -30 -33.5s-17.333 -24.833 -24 -37.5l-64 -302h-123l106 500h93l-5 -88h4c8.66699 10.667 18.834 22 30.501 34
s25.167 23 40.5 33s32.5 18.333 51.5 25s40.5 10 64.5 10c30 0 54 -8.16699 72 -24.5s27 -43.5 27 -81.5c0 -10 -0.5 -20.667 -1.5 -32s-3.16699 -23.666 -6.5 -36.999l-72 -339h-123zM376.999 549.999h-87l-70 182h103l23 -66l5 -49l28 49l56 66h98z" />
    <glyph glyph-name="Omacron" unicode="&#x14c;" horiz-adv-x="644" 
d="M58 262c0 62 8.50195 120.501 25.502 175.501s41.167 103 72.5 144s69.166 73.333 113.499 97s93.833 35.5 148.5 35.5c36 0 68.5 -5.33301 97.5 -16s53.667 -27.167 74 -49.5s36.166 -50.5 47.499 -84.5s17 -74.333 17 -121c0 -62.667 -8.5 -121.667 -25.5 -177
s-41 -103.833 -72 -145.5s-68 -74.5 -111 -98.5s-90.5 -36 -142.5 -36c-78.667 0 -139 23.167 -181 69.5s-63.333 115.166 -64 206.499zM195.002 266.001c0 -48 9.16602 -86.332 27.499 -114.999s48.5 -43 90.5 -43c30.667 0 58.5 9.16699 83.5 27.5s46.5 43 64.5 74
s31.833 66.5 41.5 106.5s14.5 81.667 14.5 125c0 52.667 -10.333 91 -31 115s-49 36 -85 36c-30 0 -57.5 -8.66699 -82.5 -26s-46.667 -40.833 -65 -70.5s-32.666 -64.334 -42.999 -104.001s-15.5 -81.5 -15.5 -125.5zM294.001 856.002h327l-19 -89h-326z" />
    <glyph glyph-name="omacron" unicode="&#x14d;" horiz-adv-x="496" 
d="M34 162c0 52.667 7.50195 100.667 22.502 144s35 80.333 60 111s54 54.5 87 71.5s67.5 25.5 103.5 25.5c32 0 59 -5 81 -15s39.833 -23.333 53.5 -40s23.5 -35.667 29.5 -57s9 -43.333 9 -66c0 -52 -7.33301 -99.5 -22 -142.5s-34.334 -79.833 -59.001 -110.5
s-53.334 -54.5 -86.001 -71.5s-67 -25.5 -103 -25.5c-31.333 0 -58 5.16699 -80 15.5s-40.167 23.833 -54.5 40.5s-24.833 35.5 -31.5 56.5s-10 42.167 -10 63.5zM161.002 179c0 -60 21.667 -90.002 65 -90.002c16 0 31.667 7 47 21s29 32.333 41 55
s21.5 48.334 28.5 77.001s10.5 57.334 10.5 86.001c0 26.667 -4.5 47.167 -13.5 61.5s-25.833 21.5 -50.5 21.5c-16 0 -31.667 -6.66699 -47 -20s-29 -30.833 -41 -52.5s-21.667 -46.5 -29 -74.5s-11 -56.333 -11 -85zM190.002 657.998h308l-19 -92h-308z" />
    <glyph glyph-name="Ohungarumlaut" unicode="&#x150;" horiz-adv-x="644" 
d="M58 262c0 62 8.50195 120.501 25.502 175.501s41.167 103 72.5 144s69.166 73.333 113.499 97s93.833 35.5 148.5 35.5c36 0 68.5 -5.33301 97.5 -16s53.667 -27.167 74 -49.5s36.166 -50.5 47.499 -84.5s17 -74.333 17 -121c0 -62.667 -8.5 -121.667 -25.5 -177
s-41 -103.833 -72 -145.5s-68 -74.5 -111 -98.5s-90.5 -36 -142.5 -36c-78.667 0 -139 23.167 -181 69.5s-63.333 115.166 -64 206.499zM195.002 266.001c0 -48 9.16602 -86.332 27.499 -114.999s48.5 -43 90.5 -43c30.667 0 58.5 9.16699 83.5 27.5s46.5 43 64.5 74
s31.833 66.5 41.5 106.5s14.5 81.667 14.5 125c0 52.667 -10.333 91 -31 115s-49 36 -85 36c-30 0 -57.5 -8.66699 -82.5 -26s-46.667 -40.833 -65 -70.5s-32.666 -64.334 -42.999 -104.001s-15.5 -81.5 -15.5 -125.5zM378.001 850.002h126l-3 -16l-115 -93h-87z
M566.001 850.002h132l-3 -16l-155 -93h-90z" />
    <glyph glyph-name="ohungarumlaut" unicode="&#x151;" horiz-adv-x="496" 
d="M34 162c0 52.667 7.50195 100.667 22.502 144s35 80.333 60 111s54 54.5 87 71.5s67.5 25.5 103.5 25.5c32 0 59 -5 81 -15s39.833 -23.333 53.5 -40s23.5 -35.667 29.5 -57s9 -43.333 9 -66c0 -52 -7.33301 -99.5 -22 -142.5s-34.334 -79.833 -59.001 -110.5
s-53.334 -54.5 -86.001 -71.5s-67 -25.5 -103 -25.5c-31.333 0 -58 5.16699 -80 15.5s-40.167 23.833 -54.5 40.5s-24.833 35.5 -31.5 56.5s-10 42.167 -10 63.5zM161.002 179c0 -60 21.667 -90.002 65 -90.002c16 0 31.667 7 47 21s29 32.333 41 55
s21.5 48.334 28.5 77.001s10.5 57.334 10.5 86.001c0 26.667 -4.5 47.167 -13.5 61.5s-25.833 21.5 -50.5 21.5c-16 0 -31.667 -6.66699 -47 -20s-29 -30.833 -41 -52.5s-21.667 -46.5 -29 -74.5s-11 -56.333 -11 -85zM268.002 699.998h112l-3 -16l-95 -113h-74z
M437.002 699.998h120l-3 -16l-136 -113h-78z" />
    <glyph glyph-name="OE" unicode="&#x152;" horiz-adv-x="877" 
d="M514 567c-12 8 -26.167 14.166 -42.5 18.499s-37.833 6.5 -64.5 6.5c-31.333 0 -59.833 -8 -85.5 -24s-48 -38.333 -67 -67s-33.667 -63 -44 -103s-15.5 -84 -15.5 -132c0 -17.333 1.66699 -35.166 5 -53.499s9.5 -35.333 18.5 -51s21.667 -28.5 38 -38.5
s37.5 -15 63.5 -15c18.667 0 35.167 1.16699 49.5 3.5s31.5 7.5 51.5 15.5zM394 -0.000976562c-13.333 -4.66699 -28.832 -8.16699 -46.499 -10.5s-35.834 -3.5 -54.501 -3.5c-28.667 0 -57 4.33301 -85 13s-53.167 23.5 -75.5 44.5s-40.333 49.333 -54 85
s-20.5 80.167 -20.5 133.5c0 70 9 133 27 189s43.333 103.5 76 142.5s71.334 68.833 116.001 89.5s93.667 31 147 31c25.333 0 47.166 -1.33301 65.499 -4s35.833 -6 52.5 -10h394l-26 -122h-264l-35 -163h241l-26 -122h-240l-36 -171h268l-25 -122h-399z" />
    <glyph glyph-name="oe" unicode="&#x153;" horiz-adv-x="769" 
d="M161 179c0 -60 21.667 -90.002 65 -90.002c16 0 31.667 7 47 21s29 32.333 41 55s21.5 48.334 28.5 77.001s10.5 57.334 10.5 86.001c0 26.667 -4.5 47.167 -13.5 61.5s-25.833 21.5 -50.5 21.5c-16 0 -31.667 -6.66699 -47 -20s-29 -30.833 -41 -52.5
s-21.667 -46.5 -29 -74.5s-11 -56.333 -11 -85zM371 64.998c-16.667 -22.667 -39.334 -41.501 -68.001 -56.501s-60 -22.5 -94 -22.5c-31.333 0 -58 5.16699 -80 15.5s-40 23.833 -54 40.5s-24.333 35.5 -31 56.5s-10 42.167 -10 63.5c0 52.667 7.5 100.667 22.5 144
s35.167 80.333 60.5 111s54.5 54.5 87.5 71.5s67.5 25.5 103.5 25.5s65.5 -7.33301 88.5 -22s40.833 -34.667 53.5 -60c20 23.333 44.167 42.833 72.5 58.5s61.166 23.5 98.499 23.5c27.333 0 50.833 -3.5 70.5 -10.5s35.834 -16.667 48.501 -29s22 -26.5 28 -42.5
s9 -33 9 -51c0 -27.333 -7 -51.333 -21 -72s-33.5 -37.834 -58.5 -51.501s-55.167 -24 -90.5 -31s-74 -10.5 -116 -10.5c-5.33301 0 -10.333 0.166992 -15 0.5s-9.66699 0.5 -15 0.5c-1.33301 -8 -2.33301 -15.167 -3 -21.5s-1 -12.166 -1 -17.499
c0 -30 7.83301 -52.333 23.5 -67s37.834 -22 66.501 -22c29.333 0 55.666 4.33301 78.999 13s41 17.334 53 26.001l26 -80c-20.667 -17.333 -47.334 -32 -80.001 -44s-70.667 -18 -114 -18c-19.333 0 -36.666 2.16699 -51.999 6.5s-28.666 10.333 -39.999 18
s-21 16.167 -29 25.5s-14.333 19 -19 29zM479 294.997c18.667 0 38.499 0.666016 59.499 1.99902s40.5 4.5 58.5 9.5s33 12.333 45 22s18 22.834 18 39.501c0 10 -3.66699 20.167 -11 30.5s-22.666 15.5 -45.999 15.5c-29.333 0 -54.833 -11.333 -76.5 -34
s-37.5 -51 -47.5 -85z" />
    <glyph glyph-name="Racute" unicode="&#x154;" horiz-adv-x="584" 
d="M167 693c32 6 64.333 10.3311 97 12.998s62 4 88 4c30.667 0 59.667 -3.66699 87 -11s51 -18.5 71 -33.5s35.833 -34.333 47.5 -58s17.5 -51.5 17.5 -83.5c0 -36.667 -5.5 -68.5 -16.5 -95.5s-25.5 -49.667 -43.5 -68s-38.5 -32.666 -61.5 -42.999
s-46.5 -17.166 -70.5 -20.499l39 -31l97 -266h-144l-96 274l-69 13l-60 -287h-130zM230 379.998l53 -0.000976562c19.333 0 38.333 1.83301 57 5.5s35.167 10.334 49.5 20.001s26 22.5 35 38.5s13.5 36.333 13.5 61c0 22.667 -7.66699 42.167 -23 58.5s-40 24.5 -74 24.5
c-13.333 0 -25.833 -0.5 -37.5 -1.5s-21.5 -2.16699 -29.5 -3.5zM419 869.997h157l-6 -30l-172 -88h-104z" />
    <glyph glyph-name="racute" unicode="&#x155;" horiz-adv-x="343" 
d="M215 500l1 -88.001h4c14.667 26.667 32.5 49.334 53.5 68.001s47.5 28 79.5 28c14 0 30.667 -2.66699 50 -8l-31 -107c-6.66699 2 -13 3.66699 -19 5s-12.333 2 -19 2c-27.333 0 -52.5 -8.83301 -75.5 -26.5s-40.5 -38.167 -52.5 -61.5l-65 -312h-123l106 500h91z
M281 719.999h125l-6 -30l-133 -124h-69z" />
    <glyph glyph-name="Rcommaaccent" unicode="&#x156;" horiz-adv-x="584" 
d="M167 693c32 6 64.333 10.3311 97 12.998s62 4 88 4c30.667 0 59.667 -3.66699 87 -11s51 -18.5 71 -33.5s35.833 -34.333 47.5 -58s17.5 -51.5 17.5 -83.5c0 -36.667 -5.5 -68.5 -16.5 -95.5s-25.5 -49.667 -43.5 -68s-38.5 -32.666 -61.5 -42.999
s-46.5 -17.166 -70.5 -20.499l39 -31l97 -266h-144l-96 274l-69 13l-60 -287h-130zM230 379.998l53 -0.000976562c19.333 0 38.333 1.83301 57 5.5s35.167 10.334 49.5 20.001s26 22.5 35 38.5s13.5 36.333 13.5 61c0 22.667 -7.66699 42.167 -23 58.5s-40 24.5 -74 24.5
c-13.333 0 -25.833 -0.5 -37.5 -1.5s-21.5 -2.16699 -29.5 -3.5zM155 -113.003c0 11.333 2.1709 21.3311 6.50391 29.998s10 16 17 22s14.833 10.667 23.5 14s17.667 5 27 5c23.333 0 39.833 -6.33301 49.5 -19s14.167 -29.667 13.5 -51c0 -24 -4.66699 -45.167 -14 -63.5
s-20.833 -34.166 -34.5 -47.499s-27.834 -24.166 -42.501 -32.499s-27.334 -14.166 -38.001 -17.499l-21 54c10.667 4.66699 21.167 11.167 31.5 19.5s18.166 19.166 23.499 32.499c-12.667 2 -22.834 7.5 -30.501 16.5s-11.5 21.5 -11.5 37.5z" />
    <glyph glyph-name="rcommaaccent" unicode="&#x157;" horiz-adv-x="343" 
d="M215 500l1 -88.001h4c14.667 26.667 32.5 49.334 53.5 68.001s47.5 28 79.5 28c14 0 30.667 -2.66699 50 -8l-31 -107c-6.66699 2 -13 3.66699 -19 5s-12.333 2 -19 2c-27.333 0 -52.5 -8.83301 -75.5 -26.5s-40.5 -38.167 -52.5 -61.5l-65 -312h-123l106 500h91z
M20 -113.001c0 11.333 2.1709 21.3311 6.50391 29.998s10 16 17 22s14.833 10.667 23.5 14s17.667 5 27 5c23.333 0 39.833 -6.33301 49.5 -19s14.167 -29.667 13.5 -51c0 -24 -4.66699 -45.167 -14 -63.5s-20.833 -34.166 -34.5 -47.499s-27.834 -24.166 -42.501 -32.499
s-27.334 -14.166 -38.001 -17.499l-21 54c10.667 4.66699 21.167 11.167 31.5 19.5s18.166 19.166 23.499 32.499c-12.667 2 -22.834 7.5 -30.501 16.5s-11.5 21.5 -11.5 37.5z" />
    <glyph glyph-name="Rcaron" unicode="&#x158;" horiz-adv-x="584" 
d="M167 693c32 6 64.333 10.3311 97 12.998s62 4 88 4c30.667 0 59.667 -3.66699 87 -11s51 -18.5 71 -33.5s35.833 -34.333 47.5 -58s17.5 -51.5 17.5 -83.5c0 -36.667 -5.5 -68.5 -16.5 -95.5s-25.5 -49.667 -43.5 -68s-38.5 -32.666 -61.5 -42.999
s-46.5 -17.166 -70.5 -20.499l39 -31l97 -266h-144l-96 274l-69 13l-60 -287h-130zM230 379.998l53 -0.000976562c19.333 0 38.333 1.83301 57 5.5s35.167 10.334 49.5 20.001s26 22.5 35 38.5s13.5 36.333 13.5 61c0 22.667 -7.66699 42.167 -23 58.5s-40 24.5 -74 24.5
c-13.333 0 -25.833 -0.5 -37.5 -1.5s-21.5 -2.16699 -29.5 -3.5zM404 736.997h-84l-101 94l8 39h92l41 -45l12 -30l25 29l64 46h98l-8 -40z" />
    <glyph glyph-name="rcaron" unicode="&#x159;" horiz-adv-x="343" 
d="M215 500l1 -88.001h4c14.667 26.667 32.5 49.334 53.5 68.001s47.5 28 79.5 28c14 0 30.667 -2.66699 50 -8l-31 -107c-6.66699 2 -13 3.66699 -19 5s-12.333 2 -19 2c-27.333 0 -52.5 -8.83301 -75.5 -26.5s-40.5 -38.167 -52.5 -61.5l-65 -312h-123l106 500h91z
M308 549.999h-87l-70 182h103l23 -66l5 -49l28 49l56 66h98z" />
    <glyph glyph-name="Sacute" unicode="&#x15a;" horiz-adv-x="510" 
d="M502 559c-12.667 8 -31.333 16.168 -56 24.501s-52 12.5 -82 12.5c-15.333 0 -30.333 -1.5 -45 -4.5s-27.667 -7.83301 -39 -14.5s-20.333 -15.334 -27 -26.001s-10 -23.334 -10 -38.001c0 -19.333 6 -35.666 18 -48.999s27.167 -25.833 45.5 -37.5s38 -23.5 59 -35.5
s40.667 -26 59 -42s33.5 -35.167 45.5 -57.5s18 -49.833 18 -82.5c0 -39.333 -6.83301 -73.166 -20.5 -101.499s-33 -51.5 -58 -69.5s-55 -31.167 -90 -39.5s-73.833 -12.5 -116.5 -12.5c-23.333 0 -45.5 1.33301 -66.5 4s-40.5 6 -58.5 10s-33.833 8.5 -47.5 13.5
s-24.5 9.83301 -32.5 14.5l67 116c6.66699 -4 15.334 -8.33301 26.001 -13s22.834 -9 36.501 -13s28.5 -7.33301 44.5 -10s32 -4 48 -4c18.667 0 36.334 1.5 53.001 4.5s31.167 8 43.5 15s22 15.833 29 26.5s10.5 24 10.5 40c0 18 -6 33.333 -18 46s-27.167 24.667 -45.5 36
s-38 23.166 -59 35.499s-40.667 26.833 -59 43.5s-33.5 36.834 -45.5 60.501s-18 52.5 -18 86.5c0 38.667 6.83301 71.667 20.5 99s32.167 49.666 55.5 66.999s50.666 30 81.999 38s65 12 101 12c19.333 0 38.666 -1 57.999 -3s37.666 -4.83301 54.999 -8.5
s33.333 -8 48 -13s27 -10.5 37 -16.5zM428.001 870.001h157l-6 -30l-172 -88h-104z" />
    <glyph glyph-name="sacute" unicode="&#x15b;" horiz-adv-x="396" 
d="M38 117c13.333 -7.33301 30.498 -13.8311 51.498 -19.498s43.167 -8.5 66.5 -8.5s41.166 4.5 53.499 13.5s18.833 22.833 19.5 41.5c0 13.333 -4 24.833 -12 34.5s-18.167 18.834 -30.5 27.501s-25.5 17.5 -39.5 26.5s-27.167 19.333 -39.5 31s-22.5 25.5 -30.5 41.5
s-12 35.333 -12 58c0 22 4.33301 42.333 13 61s20.834 34.667 36.501 48s34.667 23.666 57 30.999s47.5 11 75.5 11c38.667 0 70.667 -2.83301 96 -8.5s45.333 -12.834 60 -21.501l-34 -94c-13.333 6 -29.5 11 -48.5 15s-38.833 6 -59.5 6
c-21.333 0 -38.166 -3.66699 -50.499 -11s-18.5 -19 -18.5 -35c0 -10.667 4 -20.167 12 -28.5s18.167 -16.833 30.5 -25.5s25.5 -17.5 39.5 -26.5s27.167 -19.833 39.5 -32.5s22.5 -27.167 30.5 -43.5s12 -35.833 12 -58.5c0 -55.333 -18 -96.5 -54 -123.5
s-84 -40.5 -144 -40.5c-34 0 -65.167 3.16699 -93.5 9.5s-50.166 14.166 -65.499 23.499zM301.998 720.002h125l-6 -30l-133 -124h-69z" />
    <glyph glyph-name="Scircumflex" unicode="&#x15c;" horiz-adv-x="510" 
d="M502 559c-12.667 8 -31.333 16.168 -56 24.501s-52 12.5 -82 12.5c-15.333 0 -30.333 -1.5 -45 -4.5s-27.667 -7.83301 -39 -14.5s-20.333 -15.334 -27 -26.001s-10 -23.334 -10 -38.001c0 -19.333 6 -35.666 18 -48.999s27.167 -25.833 45.5 -37.5s38 -23.5 59 -35.5
s40.667 -26 59 -42s33.5 -35.167 45.5 -57.5s18 -49.833 18 -82.5c0 -39.333 -6.83301 -73.166 -20.5 -101.499s-33 -51.5 -58 -69.5s-55 -31.167 -90 -39.5s-73.833 -12.5 -116.5 -12.5c-23.333 0 -45.5 1.33301 -66.5 4s-40.5 6 -58.5 10s-33.833 8.5 -47.5 13.5
s-24.5 9.83301 -32.5 14.5l67 116c6.66699 -4 15.334 -8.33301 26.001 -13s22.834 -9 36.501 -13s28.5 -7.33301 44.5 -10s32 -4 48 -4c18.667 0 36.334 1.5 53.001 4.5s31.167 8 43.5 15s22 15.833 29 26.5s10.5 24 10.5 40c0 18 -6 33.333 -18 46s-27.167 24.667 -45.5 36
s-38 23.166 -59 35.499s-40.667 26.833 -59 43.5s-33.5 36.834 -45.5 60.501s-18 52.5 -18 86.5c0 38.667 6.83301 71.667 20.5 99s32.167 49.666 55.5 66.999s50.666 30 81.999 38s65 12 101 12c19.333 0 38.666 -1 57.999 -3s37.666 -4.83301 54.999 -8.5
s33.333 -8 48 -13s27 -10.5 37 -16.5zM369.001 870.001h87l101 -93l-8 -39h-88l-45 41l-13 34l-27 -33l-67 -42h-94l9 40z" />
    <glyph glyph-name="scircumflex" unicode="&#x15d;" horiz-adv-x="396" 
d="M38 117c13.333 -7.33301 30.498 -13.8311 51.498 -19.498s43.167 -8.5 66.5 -8.5s41.166 4.5 53.499 13.5s18.833 22.833 19.5 41.5c0 13.333 -4 24.833 -12 34.5s-18.167 18.834 -30.5 27.501s-25.5 17.5 -39.5 26.5s-27.167 19.333 -39.5 31s-22.5 25.5 -30.5 41.5
s-12 35.333 -12 58c0 22 4.33301 42.333 13 61s20.834 34.667 36.501 48s34.667 23.666 57 30.999s47.5 11 75.5 11c38.667 0 70.667 -2.83301 96 -8.5s45.333 -12.834 60 -21.501l-34 -94c-13.333 6 -29.5 11 -48.5 15s-38.833 6 -59.5 6
c-21.333 0 -38.166 -3.66699 -50.499 -11s-18.5 -19 -18.5 -35c0 -10.667 4 -20.167 12 -28.5s18.167 -16.833 30.5 -25.5s25.5 -17.5 39.5 -26.5s27.167 -19.833 39.5 -32.5s22.5 -27.167 30.5 -43.5s12 -35.833 12 -58.5c0 -55.333 -18 -96.5 -54 -123.5
s-84 -40.5 -144 -40.5c-34 0 -65.167 3.16699 -93.5 9.5s-50.166 14.166 -65.499 23.499zM267.998 732.002h82l67 -182h-96l-24 66l-4 49l-27 -49l-57 -66h-97z" />
    <glyph glyph-name="Scedilla" unicode="&#x15e;" horiz-adv-x="510" 
d="M521 559c-12.667 8 -31.334 16.1699 -56.001 24.5029s-52 12.5 -82 12.5c-15.333 0 -30.333 -1.5 -45 -4.5s-27.667 -7.83301 -39 -14.5s-20.333 -15.334 -27 -26.001s-10 -23.334 -10 -38.001c0 -19.333 6 -35.666 18 -48.999s27.167 -25.833 45.5 -37.5
s38 -23.5 59 -35.5s40.667 -26 59 -42s33.5 -35.167 45.5 -57.5s18 -49.833 18 -82.5c0 -36 -5.66699 -67.167 -17 -93.5s-27.333 -48.5 -48 -66.5s-45.667 -32 -75 -42s-62 -16.333 -98 -19l-23 -31c22.667 -1.33301 40 -8.16602 52 -20.499s18 -28.166 18 -47.499
c0 -17.333 -3.83301 -32.333 -11.5 -45s-18 -23.167 -31 -31.5s-28.333 -14.5 -46 -18.5s-36.5 -6 -56.5 -6c-25.333 0 -51 3 -77 9l20 48c34 -3.33301 57.333 -1.33301 70 6s19 15.666 19 24.999c0 11.333 -6.66699 19.166 -20 23.499s-32.666 6.16602 -57.999 5.49902
l64 82c-39.333 2.66699 -74.5 8 -105.5 16s-53.167 16.333 -66.5 25l67 118c6.66699 -4 15.334 -8.33301 26.001 -13s22.834 -9 36.501 -13s28.5 -7.33301 44.5 -10s32 -4 48 -4c18.667 0 36.334 1.5 53.001 4.5s31.167 7.66699 43.5 14s22 14.833 29 25.5s10.5 24 10.5 40
c0 18 -6 33.333 -18 46s-27.167 24.667 -45.5 36s-38 23.166 -59 35.499s-40.667 26.833 -59 43.5s-33.5 36.834 -45.5 60.501s-18 52.5 -18 86.5c0 38.667 6.83301 71.667 20.5 99s32.167 49.666 55.5 66.999s50.666 30 81.999 38s65 12 101 12
c19.333 0 38.666 -1 57.999 -3s37.666 -4.83301 54.999 -8.5s33.333 -8 48 -13s27 -10.5 37 -16.5z" />
    <glyph glyph-name="scedilla" unicode="&#x15f;" horiz-adv-x="396" 
d="M38 117c13.333 -7.33301 30.498 -13.8301 51.498 -19.4971s43.167 -8.5 66.5 -8.5s41.166 4.5 53.499 13.5s18.833 22.833 19.5 41.5c0 13.333 -4 24.833 -12 34.5s-18.167 18.834 -30.5 27.501s-25.5 17.5 -39.5 26.5s-27.167 19.333 -39.5 31s-22.5 25.5 -30.5 41.5
s-12 35.333 -12 58c0 22 4.33301 42.333 13 61s20.834 34.667 36.501 48s34.667 23.666 57 30.999s47.5 11 75.5 11c38.667 0 70.667 -2.83301 96 -8.5s45.333 -12.834 60 -21.501l-34 -94c-13.333 6 -29.5 11 -48.5 15s-38.833 6 -59.5 6
c-21.333 0 -38.166 -3.66699 -50.499 -11s-18.5 -19 -18.5 -35c0 -10.667 4 -20.167 12 -28.5s18.167 -16.833 30.5 -25.5s25.5 -17.5 39.5 -26.5s27.167 -19.833 39.5 -32.5s22.5 -27.167 30.5 -43.5s12 -35.833 12 -58.5c0 -48.667 -14 -86.334 -42 -113.001
s-66 -42.667 -114 -48l-24 -32c22.667 -1.33301 40 -8.16602 52 -20.499s18 -28.166 18 -47.499c0 -17.333 -3.83301 -32.333 -11.5 -45s-18 -23.167 -31 -31.5s-28.333 -14.5 -46 -18.5s-36.5 -6 -56.5 -6c-25.333 0 -51 3 -77 9l20 48c34 -3.33301 57.333 -1.33301 70 6
s19 15.666 19 24.999c0 11.333 -6.66699 19.166 -20 23.499s-32.666 6.16602 -57.999 5.49902l65 83c-26 2 -49.5 5.66699 -70.5 11s-37.833 12 -50.5 20z" />
    <glyph glyph-name="Scaron" unicode="&#x160;" horiz-adv-x="510" 
d="M502 559c-12.667 8 -31.333 16.168 -56 24.501s-52 12.5 -82 12.5c-15.333 0 -30.333 -1.5 -45 -4.5s-27.667 -7.83301 -39 -14.5s-20.333 -15.334 -27 -26.001s-10 -23.334 -10 -38.001c0 -19.333 6 -35.666 18 -48.999s27.167 -25.833 45.5 -37.5s38 -23.5 59 -35.5
s40.667 -26 59 -42s33.5 -35.167 45.5 -57.5s18 -49.833 18 -82.5c0 -39.333 -6.83301 -73.166 -20.5 -101.499s-33 -51.5 -58 -69.5s-55 -31.167 -90 -39.5s-73.833 -12.5 -116.5 -12.5c-23.333 0 -45.5 1.33301 -66.5 4s-40.5 6 -58.5 10s-33.833 8.5 -47.5 13.5
s-24.5 9.83301 -32.5 14.5l67 116c6.66699 -4 15.334 -8.33301 26.001 -13s22.834 -9 36.501 -13s28.5 -7.33301 44.5 -10s32 -4 48 -4c18.667 0 36.334 1.5 53.001 4.5s31.167 8 43.5 15s22 15.833 29 26.5s10.5 24 10.5 40c0 18 -6 33.333 -18 46s-27.167 24.667 -45.5 36
s-38 23.166 -59 35.499s-40.667 26.833 -59 43.5s-33.5 36.834 -45.5 60.501s-18 52.5 -18 86.5c0 38.667 6.83301 71.667 20.5 99s32.167 49.666 55.5 66.999s50.666 30 81.999 38s65 12 101 12c19.333 0 38.666 -1 57.999 -3s37.666 -4.83301 54.999 -8.5
s33.333 -8 48 -13s27 -10.5 37 -16.5zM428.001 737.001h-84l-101 94l8 39h92l41 -45l12 -30l25 29l64 46h98l-8 -40z" />
    <glyph glyph-name="scaron" unicode="&#x161;" horiz-adv-x="396" 
d="M38 117c13.333 -7.33301 30.498 -13.8311 51.498 -19.498s43.167 -8.5 66.5 -8.5s41.166 4.5 53.499 13.5s18.833 22.833 19.5 41.5c0 13.333 -4 24.833 -12 34.5s-18.167 18.834 -30.5 27.501s-25.5 17.5 -39.5 26.5s-27.167 19.333 -39.5 31s-22.5 25.5 -30.5 41.5
s-12 35.333 -12 58c0 22 4.33301 42.333 13 61s20.834 34.667 36.501 48s34.667 23.666 57 30.999s47.5 11 75.5 11c38.667 0 70.667 -2.83301 96 -8.5s45.333 -12.834 60 -21.501l-34 -94c-13.333 6 -29.5 11 -48.5 15s-38.833 6 -59.5 6
c-21.333 0 -38.166 -3.66699 -50.499 -11s-18.5 -19 -18.5 -35c0 -10.667 4 -20.167 12 -28.5s18.167 -16.833 30.5 -25.5s25.5 -17.5 39.5 -26.5s27.167 -19.833 39.5 -32.5s22.5 -27.167 30.5 -43.5s12 -35.833 12 -58.5c0 -55.333 -18 -96.5 -54 -123.5
s-84 -40.5 -144 -40.5c-34 0 -65.167 3.16699 -93.5 9.5s-50.166 14.166 -65.499 23.499zM307.998 550.002h-87l-70 182h103l23 -66l5 -49l28 49l56 66h98z" />
    <glyph glyph-name="Tcedilla" unicode="&#x162;" horiz-adv-x="547" 
d="M614 578l-194 0.000976562l-123 -578h-21l-33 -43c22.667 -1.33301 40 -8.33301 52 -21s18 -28.667 18 -48c0 -17.333 -3.83301 -32.333 -11.5 -45s-18 -23.167 -31 -31.5s-28.333 -14.5 -46 -18.5s-36.5 -6 -56.5 -6c-25.333 0 -51 3 -77 9l20 48
c34 -3.33301 57.333 -1.33301 70 6s19 15.666 19 24.999c0 21.333 -26 31.333 -78 30l75 95h-29l122 578h-194l26 122h517z" />
    <glyph glyph-name="tcedilla" unicode="&#x163;" horiz-adv-x="320" 
d="M64 500l64.999 0.000976562l20 94l131 37l-28 -131h117l-23 -103h-116l-49 -226c-4 -18 -6 -32.667 -6 -44c0 -14.667 3.33301 -24.667 10 -30s16.667 -8 30 -8c12.667 0 24.167 1.33301 34.5 4s21.166 7 32.499 13v-92c-11.333 -7.33301 -27.166 -13.333 -47.499 -18
s-40.166 -7.66699 -59.499 -9l-23 -30c22.667 -1.33301 40 -8.33301 52 -21s18 -28.667 18 -48c0 -17.333 -3.83301 -32.333 -11.5 -45s-18 -23.167 -31 -31.5s-28.333 -14.5 -46 -18.5s-36.5 -6 -56.5 -6c-25.333 0 -51 3 -77 9l20 48c34 -3.33301 57.333 -1.33301 70 6
s19 15.666 19 24.999c0 21.333 -26 31.333 -78 30l69 89c-37.333 12.667 -56 41.667 -56 87c0 6.66699 0.5 13.667 1.5 21s2.16699 15 3.5 23l58 272h-67z" />
    <glyph glyph-name="Tcaron" unicode="&#x164;" horiz-adv-x="547" 
d="M614 578h-194l-123 -578h-129l122 578h-194l26 122h517zM426 737h-84l-101 94l8 39h92l41 -45l12 -30l25 29l64 46h98l-8 -40z" />
    <glyph glyph-name="tcaron" unicode="&#x165;" horiz-adv-x="320" 
d="M64 500l65.001 -0.000976562l20 94l131 37l-28 -131h117l-23 -103h-116l-49 -226c-4 -18 -6 -32.667 -6 -44c0 -14.667 3.33301 -24.667 10 -30s16.667 -8 30 -8c12.667 0 24.167 1.33301 34.5 4s21.166 7 32.499 13v-92c-7.33301 -4 -16.166 -7.83301 -26.499 -11.5
s-21.5 -6.66699 -33.5 -9s-24.333 -4.16602 -37 -5.49902s-24.334 -2 -35.001 -2c-34 0 -60.167 7.83301 -78.5 23.5s-27.5 39.5 -27.5 71.5c0 6.66699 0.5 13.667 1.5 21s2.16699 15 3.5 23l58 272h-67zM463.001 722.999c-5.33301 -19.333 -13.333 -39.5 -24 -60.5
s-22.334 -41 -35.001 -60s-25.5 -36 -38.5 -51s-23.833 -25.833 -32.5 -32.5l-47 31c16 24 29.833 51.167 41.5 81.5s20.834 60.833 27.501 91.5h108z" />
    <glyph glyph-name="Umacron" unicode="&#x16a;" horiz-adv-x="602" 
d="M531 700l122.002 -0.000976562l-95 -452c-10 -48 -23 -88.5 -39 -121.5s-35.333 -59.833 -58 -80.5s-49.334 -35.5 -80.001 -44.5s-66 -13.5 -106 -13.5c-38.667 0 -71.334 4.5 -98.001 13.5s-48.5 21.833 -65.5 38.5s-29.333 36.334 -37 59.001s-11.5 47.667 -11.5 75
c0 13.333 0.833008 27 2.5 41s4.16699 28.667 7.5 44l94 441h129l-92 -440c-5.33301 -25.333 -8 -46 -8 -62c0 -32 8.33301 -54.667 25 -68s41 -20 73 -20c40 0 71 11.667 93 35s38.667 61 50 113zM274.002 855.999h327l-19 -89h-326z" />
    <glyph glyph-name="umacron" unicode="&#x16b;" horiz-adv-x="512" 
d="M241 500l-65.0029 -309.002c-4 -20 -6 -36.667 -6 -50s2.66699 -23.666 8 -30.999s14.666 -11 27.999 -11c11.333 0 22.833 2.83301 34.5 8.5s22.834 13 33.501 22s20.5 19 29.5 30s16.5 21.833 22.5 32.5l64 308h123l-63 -300
c-3.33301 -13.333 -6.16602 -29 -8.49902 -47s-4.5 -36.5 -6.5 -55.5s-3.33301 -37.167 -4 -54.5s-0.666992 -31.666 0 -42.999h-99l-5 90h-4c-9.33301 -12.667 -20.166 -25.167 -32.499 -37.5s-26 -23.5 -41 -33.5s-31.333 -18 -49 -24s-36.5 -9 -56.5 -9
c-31.333 0 -56.666 7.83301 -75.999 23.5s-29 44.5 -29 86.5c0 24.667 3.33301 51.667 10 81l69 323h123zM190.997 657.998h308l-19 -92h-308z" />
    <glyph glyph-name="Ubreve" unicode="&#x16c;" horiz-adv-x="602" 
d="M531 700l122.002 -0.000976562l-95 -452c-10 -48 -23 -88.5 -39 -121.5s-35.333 -59.833 -58 -80.5s-49.334 -35.5 -80.001 -44.5s-66 -13.5 -106 -13.5c-38.667 0 -71.334 4.5 -98.001 13.5s-48.5 21.833 -65.5 38.5s-29.333 36.334 -37 59.001s-11.5 47.667 -11.5 75
c0 13.333 0.833008 27 2.5 41s4.16699 28.667 7.5 44l94 441h129l-92 -440c-5.33301 -25.333 -8 -46 -8 -62c0 -32 8.33301 -54.667 25 -68s41 -20 73 -20c40 0 71 11.667 93 35s38.667 61 50 113zM300.002 874.999c12 -17.333 26.6631 -30.667 43.9961 -40s39 -14 65 -14
c36.667 0 67.334 5 92.001 15s46.334 23 65.001 39l49 -32c-11.333 -20 -24.666 -37.167 -39.999 -51.5s-32 -26 -50 -35s-37.167 -15.667 -57.5 -20s-40.833 -6.5 -61.5 -6.5c-17.333 0 -34.166 2.5 -50.499 7.5s-31.333 12.333 -45 22s-25.667 21.167 -36 34.5
s-17.833 28 -22.5 44z" />
    <glyph glyph-name="ubreve" unicode="&#x16d;" horiz-adv-x="512" 
d="M241 500l-65.0029 -309.002c-4 -20 -6 -36.667 -6 -50s2.66699 -23.666 8 -30.999s14.666 -11 27.999 -11c11.333 0 22.833 2.83301 34.5 8.5s22.834 13 33.501 22s20.5 19 29.5 30s16.5 21.833 22.5 32.5l64 308h123l-63 -300
c-3.33301 -13.333 -6.16602 -29 -8.49902 -47s-4.5 -36.5 -6.5 -55.5s-3.33301 -37.167 -4 -54.5s-0.666992 -31.666 0 -42.999h-99l-5 90h-4c-9.33301 -12.667 -20.166 -25.167 -32.499 -37.5s-26 -23.5 -41 -33.5s-31.333 -18 -49 -24s-36.5 -9 -56.5 -9
c-31.333 0 -56.666 7.83301 -75.999 23.5s-29 44.5 -29 86.5c0 24.667 3.33301 51.667 10 81l69 323h123zM253.997 719.998c14 -39.333 42 -59 84 -59c26 0 49.5 5.16699 70.5 15.5s38.5 24.833 52.5 43.5l51 -27c-5.33301 -16 -13.833 -31.833 -25.5 -47.5
s-25.667 -29.5 -42 -41.5s-34.833 -21.667 -55.5 -29s-42 -11 -64 -11c-41.333 0 -74.333 11.167 -99 33.5s-37.667 52.5 -39 90.5z" />
    <glyph glyph-name="Uring" unicode="&#x16e;" horiz-adv-x="602" 
d="M531 700l122.002 -0.000976562l-95 -452c-10 -48 -23 -88.5 -39 -121.5s-35.333 -59.833 -58 -80.5s-49.334 -35.5 -80.001 -44.5s-66 -13.5 -106 -13.5c-38.667 0 -71.334 4.5 -98.001 13.5s-48.5 21.833 -65.5 38.5s-29.333 36.334 -37 59.001s-11.5 47.667 -11.5 75
c0 13.333 0.833008 27 2.5 41s4.16699 28.667 7.5 44l94 441h129l-92 -440c-5.33301 -25.333 -8 -46 -8 -62c0 -32 8.33301 -54.667 25 -68s41 -20 73 -20c40 0 71 11.667 93 35s38.667 61 50 113zM302.002 771.999c0 12 2.00098 23.5039 6.00098 34.5039
s10.833 20.667 20.5 29s22.667 14.833 39 19.5s37.166 7 62.499 7c46.667 0 79.667 -8 99 -24s29.333 -38 30 -66c-0.666992 -12 -3.16699 -23.333 -7.5 -34s-11.5 -19.834 -21.5 -27.501s-23.167 -13.834 -39.5 -18.501s-36.5 -7.33398 -60.5 -8.00098
c-47.333 0.666992 -80.5 9.16699 -99.5 25.5s-28.5 37.166 -28.5 62.499zM386.003 772.003c0 -20.667 14.666 -31 43.999 -31c16.667 0 28.334 2.66699 35.001 8s10 13 10 23c0 22 -15 33 -45 33c-29.333 0 -44 -11 -44 -33z" />
    <glyph glyph-name="uring" unicode="&#x16f;" horiz-adv-x="512" 
d="M241 500l-65.0029 -309.002c-4 -20 -6 -36.667 -6 -50s2.66699 -23.666 8 -30.999s14.666 -11 27.999 -11c11.333 0 22.833 2.83301 34.5 8.5s22.834 13 33.501 22s20.5 19 29.5 30s16.5 21.833 22.5 32.5l64 308h123l-63 -300
c-3.33301 -13.333 -6.16602 -29 -8.49902 -47s-4.5 -36.5 -6.5 -55.5s-3.33301 -37.167 -4 -54.5s-0.666992 -31.666 0 -42.999h-99l-5 90h-4c-9.33301 -12.667 -20.166 -25.167 -32.499 -37.5s-26 -23.5 -41 -33.5s-31.333 -18 -49 -24s-36.5 -9 -56.5 -9
c-31.333 0 -56.666 7.83301 -75.999 23.5s-29 44.5 -29 86.5c0 24.667 3.33301 51.667 10 81l69 323h123zM217.997 646.998c0 28 9.5 50.999 28.5 68.999s46.5 27 82.5 27c34 0 61 -8.16699 81 -24.5s30 -40.166 30 -71.499c0 -26 -9.83301 -48.167 -29.5 -66.5
s-46.834 -27.5 -81.501 -27.5c-35.333 0 -62.666 8.5 -81.999 25.5s-29 39.833 -29 68.5zM289.997 646.997c0 -10.667 3.83496 -18.832 11.502 -24.499s16.834 -8.5 27.501 -8.5c11.333 0 20.666 2.66699 27.999 8s11 13.666 11 24.999s-3.83301 19.833 -11.5 25.5
s-16.834 8.5 -27.501 8.5s-19.834 -2.66699 -27.501 -8s-11.5 -14 -11.5 -26z" />
    <glyph glyph-name="Uhungarumlaut" unicode="&#x170;" horiz-adv-x="602" 
d="M531 700l122.002 -0.000976562l-95 -452c-10 -48 -23 -88.5 -39 -121.5s-35.333 -59.833 -58 -80.5s-49.334 -35.5 -80.001 -44.5s-66 -13.5 -106 -13.5c-38.667 0 -71.334 4.5 -98.001 13.5s-48.5 21.833 -65.5 38.5s-29.333 36.334 -37 59.001s-11.5 47.667 -11.5 75
c0 13.333 0.833008 27 2.5 41s4.16699 28.667 7.5 44l94 441h129l-92 -440c-5.33301 -25.333 -8 -46 -8 -62c0 -32 8.33301 -54.667 25 -68s41 -20 73 -20c40 0 71 11.667 93 35s38.667 61 50 113zM353.002 849.999h126l-3 -16l-115 -93h-87zM541.002 849.999h132l-3 -16
l-155 -93h-90z" />
    <glyph glyph-name="uhungarumlaut" unicode="&#x171;" horiz-adv-x="512" 
d="M241 500l-65.0029 -309.002c-4 -20 -6 -36.667 -6 -50s2.66699 -23.666 8 -30.999s14.666 -11 27.999 -11c11.333 0 22.833 2.83301 34.5 8.5s22.834 13 33.501 22s20.5 19 29.5 30s16.5 21.833 22.5 32.5l64 308h123l-63 -300
c-3.33301 -13.333 -6.16602 -29 -8.49902 -47s-4.5 -36.5 -6.5 -55.5s-3.33301 -37.167 -4 -54.5s-0.666992 -31.666 0 -42.999h-99l-5 90h-4c-9.33301 -12.667 -20.166 -25.167 -32.499 -37.5s-26 -23.5 -41 -33.5s-31.333 -18 -49 -24s-36.5 -9 -56.5 -9
c-31.333 0 -56.666 7.83301 -75.999 23.5s-29 44.5 -29 86.5c0 24.667 3.33301 51.667 10 81l69 323h123zM271.997 699.998h112l-3 -16l-95 -113h-74zM440.997 699.998h120l-3 -16l-136 -113h-78z" />
    <glyph glyph-name="Uogonek" unicode="&#x172;" horiz-adv-x="602" 
d="M531 700h121.997l-95 -452c-15.333 -72 -36.833 -127.333 -64.5 -166s-64.5 -65.334 -110.5 -80.001c-15.333 -9.33301 -28.333 -20.333 -39 -33s-16 -27.667 -16 -45c0 -11.333 3.33301 -20.5 10 -27.5s16 -10.5 28 -10.5c10.667 0 23.334 2.66699 38.001 8l6 -62
c-12.667 -8.66699 -29.5 -16.5 -50.5 -23.5s-42.5 -10.5 -64.5 -10.5c-32 0 -55.833 8.16699 -71.5 24.5s-23.5 35.833 -23.5 58.5c0 23.333 6.66699 43.833 20 61.5s29.666 32.834 48.999 45.501c-37.333 0.666992 -69.166 5.66699 -95.499 15
s-47.666 22.166 -63.999 38.499s-28.166 35.833 -35.499 58.5s-11 47.334 -11 74.001c0 13.333 0.833008 27 2.5 41s4.16699 28.667 7.5 44l94 441h129l-92 -440c-5.33301 -25.333 -8 -46 -8 -62c0 -32 8.33301 -54.667 25 -68s41 -20 73 -20c40 0 71 11.667 93 35
s38.667 61 50 113z" />
    <glyph glyph-name="uogonek" unicode="&#x173;" horiz-adv-x="512" 
d="M241 500l-65.001 -309.002c-4.66699 -20 -7 -36.667 -7 -50s2.83301 -23.666 8.5 -30.999s15.167 -11 28.5 -11c11.333 0 22.833 2.83301 34.5 8.5s22.834 13 33.501 22s20.5 19 29.5 30s16.5 21.833 22.5 32.5l64 308h123l-63 -300
c-2.66699 -13.333 -5.33398 -29 -8.00098 -47s-5 -36.5 -7 -55.5s-3.33301 -37.167 -4 -54.5s-0.666992 -31.666 0 -42.999h-17c-20.667 -8 -38 -19.333 -52 -34s-21 -30.667 -21 -48c0 -7.33301 1.33301 -13.833 4 -19.5s6.83398 -9.83398 12.501 -12.501
s13.167 -3.33398 22.5 -2.00098s21 5.33301 35 12l5 -62c-6 -4 -13.333 -8.16699 -22 -12.5s-18.167 -8.16602 -28.5 -11.499s-21.333 -6.16602 -33 -8.49902s-22.834 -3.5 -33.501 -3.5c-35.333 0 -59.5 6.83301 -72.5 20.5s-19.5 31.5 -19.5 53.5
c0 15.333 3.33301 29.833 10 43.5s15.5 26 26.5 37s23.833 20.833 38.5 29.5s30 15.667 46 21l-5 87h-4c-9.33301 -12.667 -20.166 -25.167 -32.499 -37.5s-26 -23.5 -41 -33.5s-31.333 -18 -49 -24s-36.5 -9 -56.5 -9c-33.333 0 -59 8.16699 -77 24.5
s-27.333 44.833 -28 85.5c0 24.667 3.33301 51.667 10 81l69 323h123z" />
    <glyph glyph-name="Ydieresis" unicode="&#x178;" horiz-adv-x="569" 
d="M231 260l-125 440h144l65 -263l-2 -74h4l31 76l175 261h149l-311 -439l-55 -261h-129zM240 798c0 19.333 6.66699 33.833 20 43.5s30.666 14.5 51.999 14.5s38.666 -4.83301 51.999 -14.5s20 -24.167 20 -43.5s-6.66699 -33.666 -20 -42.999s-30.666 -14 -51.999 -14
s-38.666 4.66699 -51.999 14s-20 23.666 -20 42.999zM444 798c0 19.333 6.66699 33.833 20 43.5s30.666 14.5 51.999 14.5s38.666 -4.83301 51.999 -14.5s20 -24.167 20 -43.5s-6.66699 -33.666 -20 -42.999s-30.666 -14 -51.999 -14s-38.666 4.66699 -51.999 14
s-20 23.666 -20 42.999z" />
    <glyph glyph-name="Zacute" unicode="&#x179;" horiz-adv-x="518" 
d="M15 122l360 416l58 40h-321l25 122h461l-25 -122l-362 -419l-56 -37h321l-26 -122h-461zM424 870h157l-6 -30l-172 -88h-104z" />
    <glyph glyph-name="zacute" unicode="&#x17a;" horiz-adv-x="435" 
d="M9 108l225 239l71 45h-236l24 108h372l-23 -108l-230 -243l-64 -41h234l-23 -108h-372zM322 720h125l-6 -30l-133 -124h-69z" />
    <glyph glyph-name="Zdotaccent" unicode="&#x17b;" horiz-adv-x="518" 
d="M15 122l360 416l58 40h-321l25 122h461l-25 -122l-362 -419l-56 -37h321l-26 -122h-461zM307 798c0 20.667 8 36 24 46s35.667 15 59 15c22 0 41.333 -5 58 -15s25 -25.333 25 -46c0 -20 -8 -35.167 -24 -45.5s-35.667 -15.5 -59 -15.5s-43 5 -59 15s-24 25.333 -24 46z
" />
    <glyph glyph-name="zdotaccent" unicode="&#x17c;" horiz-adv-x="435" 
d="M9 108l225 239l71 45h-236l24 108h372l-23 -108l-230 -243l-64 -41h234l-23 -108h-372zM211 642c0 22 7.16699 39 21.5 51s32.5 18 54.5 18c21.333 0 39.5 -6 54.5 -18s22.5 -29 22.5 -51c0 -21.333 -7.5 -38.166 -22.5 -50.499s-33.167 -18.5 -54.5 -18.5
c-22 0 -40.167 6.16699 -54.5 18.5s-21.5 29.166 -21.5 50.499z" />
    <glyph glyph-name="Zcaron" unicode="&#x17d;" horiz-adv-x="518" 
d="M15 122l360 416l58 40h-321l25 122h461l-25 -122l-362 -419l-56 -37h321l-26 -122h-461zM409 737h-84l-101 94l8 39h92l41 -45l12 -30l25 29l64 46h98l-8 -40z" />
    <glyph glyph-name="zcaron" unicode="&#x17e;" horiz-adv-x="435" 
d="M9 108l225 239l71 45h-236l24 108h372l-23 -108l-230 -243l-64 -41h234l-23 -108h-372zM324 550h-87l-70 182h103l23 -66l5 -49l28 49l56 66h98z" />
    <glyph glyph-name="longs" unicode="&#x17f;" horiz-adv-x="286" 
d="M66 500l76.0029 0.000976562l6 28c13.333 63.333 35.666 109.166 66.999 137.499s71.333 42.5 120 42.5c28.667 0 52.334 -2.16699 71.001 -6.5s35.667 -10.166 51 -17.499l-45 -90c-13.333 5.33301 -25.333 8.5 -36 9.5s-21 1.5 -31 1.5
c-26.667 -0.666992 -45.334 -10.334 -56.001 -29.001s-18.667 -44 -24 -76l-86 -500c-6 -34 -13 -64 -21 -90s-18.833 -47.667 -32.5 -65s-30.5 -30.5 -50.5 -39.5s-44.667 -13.5 -74 -13.5c-24 0 -47.5 1.83301 -70.5 5.5s-42.833 11.167 -59.5 22.5l34 91
c11.333 -4.66699 22.666 -7.66699 33.999 -9s25.666 -2 42.999 -2c21.333 0 37.833 8.33301 49.5 25s20.167 41.667 25.5 75l66 397h-77z" />
    <glyph glyph-name="florin" unicode="&#x192;" 
d="M410 390l-71 -423.998c-4 -24.667 -9.83301 -47.5 -17.5 -68.5s-18.334 -39.333 -32.001 -55s-30.667 -28 -51 -37s-45.166 -13.5 -74.499 -13.5c-9.33301 0 -20.833 0.666992 -34.5 2s-27.5 3 -41.5 5s-27.5 4.5 -40.5 7.5s-23.5 6.16699 -31.5 9.5l21 105
c15.333 -6.66699 30 -11.5 44 -14.5s30.333 -4.5 49 -4.5c24 0 42.667 8.16699 56 24.5s23 43.5 29 81.5l61 382h-78v110h96l11 67c4 24.667 9.5 46.167 16.5 64.5s16.667 33.666 29 45.999s28.166 21.5 47.499 27.5s43.333 9 72 9c10.667 0 22.834 -0.833008 36.501 -2.5
s27.5 -4 41.5 -7s27.667 -6.33301 41 -10s25 -7.83398 35 -12.501l-32 -97c-32.667 12.667 -64.334 19 -95.001 19c-21.333 0 -36.166 -5.16699 -44.499 -15.5s-14.5 -28.833 -18.5 -55.5l-5 -33h119v-110h-138z" />
    <glyph glyph-name="uni01F4" unicode="&#x1f4;" horiz-adv-x="585" 
d="M369 365h210l-66 -312c-30 -23.333 -61.5 -40.333 -94.5 -51s-68.5 -16 -106.5 -16c-36.667 0 -70.5 6.33301 -101.5 19s-57.833 31 -80.5 55s-40.334 53.667 -53.001 89s-19 75.666 -19 120.999c0 76.667 10.5 143 31.5 199s49.5 102.167 85.5 138.5
s78 63.166 126 80.499s98.667 26 152 26c38 0 71.833 -3.16699 101.5 -9.5s52.167 -12.833 67.5 -19.5l-52 -115c-14 6.66699 -31.5 12 -52.5 16s-46.5 6 -76.5 6c-35.333 0 -68 -6.66699 -98 -20s-56 -33 -78 -59s-39.167 -58.167 -51.5 -96.5
s-18.5 -82.166 -18.5 -131.499c0 -55.333 13 -98.666 39 -129.999s61 -47 105 -47c32.667 0 61.334 8.33301 86.001 25l28 133l-102 16zM513 870h157l-6 -30l-172 -88h-104z" />
    <glyph glyph-name="uni01F5" unicode="&#x1f5;" horiz-adv-x="505" 
d="M407 0c-8.66699 -39.333 -20.3379 -72.498 -35.0049 -99.498s-32.167 -48.833 -52.5 -65.5s-43.666 -28.667 -69.999 -36s-55.5 -11 -87.5 -11c-23.333 0 -44.166 1.66699 -62.499 5s-34.5 7.33301 -48.5 12s-26.167 9.5 -36.5 14.5s-18.5 9.5 -24.5 13.5l46 91
c6 -2.66699 13 -5.83398 21 -9.50098s17.167 -7.33398 27.5 -11.001s22.333 -6.66699 36 -9s29.5 -3.5 47.5 -3.5c33.333 0 59.833 10.333 79.5 31s33.834 49 42.501 85l19 78h-4c-15.333 -24 -36.166 -45.5 -62.499 -64.5s-56.166 -28.5 -89.499 -28.5
c-36 0 -65.167 13.5 -87.5 40.5s-33.5 63.167 -33.5 108.5c0 51.333 7.33301 99.5 22 144.5s35.167 84.333 61.5 118s57.5 60.167 93.5 79.5s75.667 29 119 29c40.667 0 76.167 -3.5 106.5 -10.5s54.833 -14.833 73.5 -23.5zM370.996 399.002
c-7.33301 4 -16.6699 6.66699 -28.0029 8s-22.666 2 -33.999 2c-21.333 0 -41.166 -6.33301 -59.499 -19s-34.166 -30 -47.499 -52s-23.833 -47.833 -31.5 -77.5s-11.5 -61.5 -11.5 -95.5c0 -21.333 4.5 -38.333 13.5 -51s20.833 -19 35.5 -19c11.333 0 23 3.5 35 10.5
s23.5 15.833 34.5 26.5s20.833 22.5 29.5 35.5s15.667 25.167 21 36.5zM368.992 720.002h125l-6 -30l-133 -124h-69z" />
    <glyph glyph-name="Scommaaccent" unicode="&#x218;" horiz-adv-x="510" 
d="M521 559c-12.667 8 -31.333 16.168 -56 24.501s-52 12.5 -82 12.5c-15.333 0 -30.333 -1.5 -45 -4.5s-27.667 -7.83301 -39 -14.5s-20.333 -15.334 -27 -26.001s-10 -23.334 -10 -38.001c0 -19.333 6 -35.666 18 -48.999s27.167 -25.833 45.5 -37.5s38 -23.5 59 -35.5
s40.667 -26 59 -42s33.5 -35.167 45.5 -57.5s18 -49.833 18 -82.5c0 -39.333 -6.83301 -73.166 -20.5 -101.499s-33 -51.5 -58 -69.5s-55 -31.167 -90 -39.5s-73.833 -12.5 -116.5 -12.5c-23.333 0 -45.5 1.33301 -66.5 4s-40.5 6 -58.5 10s-33.833 8.5 -47.5 13.5
s-24.5 9.83301 -32.5 14.5l67 116c6.66699 -4 15.334 -8.33301 26.001 -13s22.834 -9 36.501 -13s28.5 -7.33301 44.5 -10s32 -4 48 -4c18.667 0 36.334 1.5 53.001 4.5s31.167 8 43.5 15s22 15.833 29 26.5s10.5 24 10.5 40c0 18 -6 33.333 -18 46s-27.167 24.667 -45.5 36
s-38 23.166 -59 35.499s-40.667 26.833 -59 43.5s-33.5 36.834 -45.5 60.501s-18 52.5 -18 86.5c0 38.667 6.83301 71.667 20.5 99s32.167 49.666 55.5 66.999s50.666 30 81.999 38s65 12 101 12c19.333 0 38.666 -1 57.999 -3s37.666 -4.83301 54.999 -8.5
s33.333 -8 48 -13s27 -10.5 37 -16.5zM134.001 -112.999c0 11.333 2.1709 21.3311 6.50391 29.998s10 16 17 22s14.833 10.667 23.5 14s17.667 5 27 5c23.333 0 39.833 -6.33301 49.5 -19s14.167 -29.667 13.5 -51c0 -24 -4.66699 -45.167 -14 -63.5
s-20.833 -34.166 -34.5 -47.499s-27.834 -24.166 -42.501 -32.499s-27.334 -14.166 -38.001 -17.499l-21 54c10.667 4.66699 21.167 11.167 31.5 19.5s18.166 19.166 23.499 32.499c-12.667 2 -22.834 7.5 -30.501 16.5s-11.5 21.5 -11.5 37.5z" />
    <glyph glyph-name="scommaaccent" unicode="&#x219;" horiz-adv-x="396" 
d="M38 117c13.333 -7.33301 30.498 -13.8311 51.498 -19.498s43.167 -8.5 66.5 -8.5s41.166 4.5 53.499 13.5s18.833 22.833 19.5 41.5c0 13.333 -4 24.833 -12 34.5s-18.167 18.834 -30.5 27.501s-25.5 17.5 -39.5 26.5s-27.167 19.333 -39.5 31s-22.5 25.5 -30.5 41.5
s-12 35.333 -12 58c0 22 4.33301 42.333 13 61s20.834 34.667 36.501 48s34.667 23.666 57 30.999s47.5 11 75.5 11c38.667 0 70.667 -2.83301 96 -8.5s45.333 -12.834 60 -21.501l-34 -94c-13.333 6 -29.5 11 -48.5 15s-38.833 6 -59.5 6
c-21.333 0 -38.166 -3.66699 -50.499 -11s-18.5 -19 -18.5 -35c0 -10.667 4 -20.167 12 -28.5s18.167 -16.833 30.5 -25.5s25.5 -17.5 39.5 -26.5s27.167 -19.833 39.5 -32.5s22.5 -27.167 30.5 -43.5s12 -35.833 12 -58.5c0 -55.333 -18 -96.5 -54 -123.5
s-84 -40.5 -144 -40.5c-34 0 -65.167 3.16699 -93.5 9.5s-50.166 14.166 -65.499 23.499zM59.998 -112.998c0 11.333 2.1709 21.3311 6.50391 29.998s10 16 17 22s14.833 10.667 23.5 14s17.667 5 27 5c23.333 0 39.833 -6.33301 49.5 -19s14.167 -29.667 13.5 -51
c0 -24 -4.66699 -45.167 -14 -63.5s-20.833 -34.166 -34.5 -47.499s-27.834 -24.166 -42.501 -32.499s-27.334 -14.166 -38.001 -17.499l-21 54c10.667 4.66699 21.167 11.167 31.5 19.5s18.166 19.166 23.499 32.499c-12.667 2 -22.834 7.5 -30.501 16.5
s-11.5 21.5 -11.5 37.5z" />
    <glyph glyph-name="Tcommaaccent" unicode="&#x21a;" horiz-adv-x="547" 
d="M614 578h-194l-123 -578h-129l122 578h-194l26 122h517zM132 -113c0 11.333 2.1709 21.3311 6.50391 29.998s10 16 17 22s14.833 10.667 23.5 14s17.667 5 27 5c23.333 0 39.833 -6.33301 49.5 -19s14.167 -29.667 13.5 -51c0 -24 -4.66699 -45.167 -14 -63.5
s-20.833 -34.166 -34.5 -47.499s-27.834 -24.166 -42.501 -32.499s-27.334 -14.166 -38.001 -17.499l-21 54c10.667 4.66699 21.167 11.167 31.5 19.5s18.166 19.166 23.499 32.499c-12.667 2 -22.834 7.5 -30.501 16.5s-11.5 21.5 -11.5 37.5z" />
    <glyph glyph-name="tcommaaccent" unicode="&#x21b;" horiz-adv-x="320" 
d="M64 500l65.001 -0.000976562l20 94l131 37l-28 -131h117l-23 -103h-116l-49 -226c-4 -18 -6 -32.667 -6 -44c0 -14.667 3.33301 -24.667 10 -30s16.667 -8 30 -8c12.667 0 24.167 1.33301 34.5 4s21.166 7 32.499 13v-92c-7.33301 -4 -16.166 -7.83301 -26.499 -11.5
s-21.5 -6.66699 -33.5 -9s-24.333 -4.16602 -37 -5.49902s-24.334 -2 -35.001 -2c-34 0 -60.167 7.83301 -78.5 23.5s-27.5 39.5 -27.5 71.5c0 6.66699 0.5 13.667 1.5 21s2.16699 15 3.5 23l58 272h-67zM48.001 -113.001c0 11.333 2.1709 21.3311 6.50391 29.998
s10 16 17 22s14.833 10.667 23.5 14s17.667 5 27 5c23.333 0 39.833 -6.33301 49.5 -19s14.167 -29.667 13.5 -51c0 -24 -4.66699 -45.167 -14 -63.5s-20.833 -34.166 -34.5 -47.499s-27.834 -24.166 -42.501 -32.499s-27.334 -14.166 -38.001 -17.499l-21 54
c10.667 4.66699 21.167 11.167 31.5 19.5s18.166 19.166 23.499 32.499c-12.667 2 -22.834 7.5 -30.501 16.5s-11.5 21.5 -11.5 37.5z" />
    <glyph glyph-name="uni0237" unicode="&#x237;" horiz-adv-x="244" 
d="M123 500l124.001 0.00195312l-111 -521c-12.667 -60 -34 -105.833 -64 -137.5s-70.667 -47.5 -122 -47.5c-20.667 0 -41.334 2.33301 -62.001 7l24 106c16.667 -1.33301 31 0.166992 43 4.5s22.167 11.166 30.5 20.499s15.333 21.166 21 35.499s10.5 30.5 14.5 48.5z" />
    <glyph glyph-name="afii57929" unicode="&#x2bc;" horiz-adv-x="276" 
d="M170 637c0 12 2.49902 22.502 7.49902 31.502s11.167 16.5 18.5 22.5s15.333 10.5 24 13.5s17 4.5 25 4.5c23.333 0 40 -6 50 -18s15 -28.333 15 -49c0 -27.333 -5.16699 -51.333 -15.5 -72s-23 -38.334 -38 -53.001s-30.667 -26.334 -47 -35.001s-30.5 -15 -42.5 -19
l-19 55c14 6 26.833 14 38.5 24s19.834 22.667 24.501 38c-12 1.33301 -22 6.83301 -30 16.5s-11.667 23.167 -11 40.5z" />
    <glyph glyph-name="circumflex" unicode="&#x2c6;" horiz-adv-x="398" 
d="M285 732h82l67 -182h-96l-24 66l-4 49l-27 -49l-57 -66h-97z" />
    <glyph glyph-name="caron" unicode="&#x2c7;" horiz-adv-x="417" 
d="M314 550h-87l-70 182h103l23 -66l5 -49l28 49l56 66h98z" />
    <glyph glyph-name="breve" unicode="&#x2d8;" horiz-adv-x="436" 
d="M231 720c14 -39.333 42 -59 84 -59c26 0 49.5 5.16699 70.5 15.5s38.5 24.833 52.5 43.5l51 -27c-5.33301 -16 -13.833 -31.833 -25.5 -47.5s-25.667 -29.5 -42 -41.5s-34.833 -21.667 -55.5 -29s-42 -11 -64 -11c-41.333 0 -74.333 11.167 -99 33.5
s-37.667 52.5 -39 90.5z" />
    <glyph glyph-name="dotaccent" unicode="&#x2d9;" horiz-adv-x="291" 
d="M170 642c0 22 7.16699 39 21.5 51s32.5 18 54.5 18c21.333 0 39.5 -6 54.5 -18s22.5 -29 22.5 -51c0 -21.333 -7.5 -38.166 -22.5 -50.499s-33.167 -18.5 -54.5 -18.5c-22 0 -40.167 6.16699 -54.5 18.5s-21.5 29.166 -21.5 50.499z" />
    <glyph glyph-name="ring" unicode="&#x2da;" horiz-adv-x="368" 
d="M173 647c0 28 9.5 50.999 28.5 68.999s46.5 27 82.5 27c34 0 61 -8.16699 81 -24.5s30 -40.166 30 -71.499c0 -26 -9.83301 -48.167 -29.5 -66.5s-46.834 -27.5 -81.501 -27.5c-35.333 0 -62.666 8.5 -81.999 25.5s-29 39.833 -29 68.5zM245 646.999
c0 -10.667 3.83496 -18.832 11.502 -24.499s16.834 -8.5 27.501 -8.5c11.333 0 20.666 2.66699 27.999 8s11 13.666 11 24.999s-3.83301 19.833 -11.5 25.5s-16.834 8.5 -27.501 8.5s-19.834 -2.66699 -27.501 -8s-11.5 -14 -11.5 -26z" />
    <glyph glyph-name="ogonek" unicode="&#x2db;" horiz-adv-x="381" 
d="M257 10c-24.667 -8 -46.167 -19.001 -64.5 -33.001s-27.5 -31.667 -27.5 -53c0 -22.667 12.667 -34 38 -34c9.33301 0 22 2.66699 38 8l5 -62c-12 -8.66699 -28.5 -16.334 -49.5 -23.001s-42.5 -10 -64.5 -10c-32 0 -55.833 7.33301 -71.5 22s-23.5 33.334 -23.5 56.001
c0 18 3.66699 33.833 11 47.5s17 25.834 29 36.501s25.5 19.667 40.5 27s30.167 13.333 45.5 18h94z" />
    <glyph glyph-name="tilde" unicode="&#x2dc;" horiz-adv-x="349" 
d="M126 658c23.333 24.667 43.8359 41.668 61.5029 51.001s33.834 14 48.501 14c12 0 23.167 -2.33301 33.5 -7s20.666 -9.66699 30.999 -15s20.666 -10.333 30.999 -15s21.5 -7 33.5 -7c9.33301 0 19.5 2 30.5 6s23.167 11 36.5 21l4 -70
c-21.333 -21.333 -40.333 -36.166 -57 -44.499s-32 -12.5 -46 -12.5c-12 0 -23.333 2.16699 -34 6.5s-21.334 9.16602 -32.001 14.499s-21.334 10.166 -32.001 14.499s-22 6.5 -34 6.5c-10 0 -21 -2 -33 -6s-24.667 -11.333 -38 -22z" />
    <glyph glyph-name="hungarumlaut" unicode="&#x2dd;" horiz-adv-x="464" 
d="M217 700h112l-3 -16l-95 -113h-74zM386 700h120l-3 -16l-136 -113h-78z" />
    <glyph glyph-name="acutecomb" unicode="&#x301;" horiz-adv-x="2" 
d="M-86 720h125l-6 -30l-133 -124h-69z" />
    <glyph glyph-name="uni0394" unicode="&#x394;" horiz-adv-x="589" 
d="M1 0v71l241 634h79l243 -634v-71h-563zM146 116h270l-111 298l-24 100h-4l-25 -101z" />
    <glyph glyph-name="uni0394" unicode="&#x2206;" horiz-adv-x="589" 
d="M1 0v71l241 634h79l243 -634v-71h-563zM146 116h270l-111 298l-24 100h-4l-25 -101z" />
    <glyph glyph-name="uni03A9" unicode="&#x3a9;" horiz-adv-x="782" 
d="M73 110l105.004 0.00195312l85 -13v28l-46 9c-20 9.33301 -38.667 21.666 -56 36.999s-32.5 34 -45.5 56s-23.167 47.167 -30.5 75.5s-11 59.833 -11 94.5c0 48.667 7.83301 92.5 23.5 131.5s38 72.167 67 99.5s63.833 48.5 104.5 63.5s85.667 22.5 135 22.5
c52 0 98.5 -7.83301 139.5 -23.5s75.5 -37.5 103.5 -65.5s49.5 -61.667 64.5 -101s22.5 -83 22.5 -131c0 -34.667 -4 -65.834 -12 -93.501s-18.5 -52.167 -31.5 -73.5s-28 -39.5 -45 -54.5s-34.5 -27.167 -52.5 -36.5l-49 -10v-28l85 13h106v-110h-300v203
c17.333 2.66699 35.166 8.33398 53.499 17.001s35 20.5 50 35.5s27.333 33.667 37 56s14.5 49.166 14.5 80.499c0 24.667 -3.33301 49 -10 73s-17.334 45.5 -32.001 64.5s-33.834 34.167 -57.501 45.5s-52.834 17 -87.501 17c-59.333 0 -105 -17 -137 -51
s-48 -84.667 -48 -152c0 -30 4.66699 -56.167 14 -78.5s21.333 -41 36 -56s31.167 -26.667 49.5 -35s36.833 -13.833 55.5 -16.5v-203h-300v110z" />
    <glyph glyph-name="uni03A9" unicode="&#x2126;" horiz-adv-x="782" 
d="M73 110l105.004 0.00195312l85 -13v28l-46 9c-20 9.33301 -38.667 21.666 -56 36.999s-32.5 34 -45.5 56s-23.167 47.167 -30.5 75.5s-11 59.833 -11 94.5c0 48.667 7.83301 92.5 23.5 131.5s38 72.167 67 99.5s63.833 48.5 104.5 63.5s85.667 22.5 135 22.5
c52 0 98.5 -7.83301 139.5 -23.5s75.5 -37.5 103.5 -65.5s49.5 -61.667 64.5 -101s22.5 -83 22.5 -131c0 -34.667 -4 -65.834 -12 -93.501s-18.5 -52.167 -31.5 -73.5s-28 -39.5 -45 -54.5s-34.5 -27.167 -52.5 -36.5l-49 -10v-28l85 13h106v-110h-300v203
c17.333 2.66699 35.166 8.33398 53.499 17.001s35 20.5 50 35.5s27.333 33.667 37 56s14.5 49.166 14.5 80.499c0 24.667 -3.33301 49 -10 73s-17.334 45.5 -32.001 64.5s-33.834 34.167 -57.501 45.5s-52.834 17 -87.501 17c-59.333 0 -105 -17 -137 -51
s-48 -84.667 -48 -152c0 -30 4.66699 -56.167 14 -78.5s21.333 -41 36 -56s31.167 -26.667 49.5 -35s36.833 -13.833 55.5 -16.5v-203h-300v110z" />
    <glyph glyph-name="pi" unicode="&#x3c0;" horiz-adv-x="666" 
d="M515 156c-3.33301 -18.667 -3.16699 -31.499 0.5 -38.499s10.167 -10.5 19.5 -10.5c6.66699 0 14 0.666992 22 2s15 2.66602 21 3.99902l1 -91c-14 -6 -31.5 -12.167 -52.5 -18.5s-46.167 -9.5 -75.5 -9.5c-27.333 0 -46.5 6 -57.5 18s-16.5 28.667 -16.5 50
c0 6.66699 0.5 13.667 1.5 21s2.16699 15 3.5 23l60 284h-133l-82 -390h-123l82 390h-13c-11.333 0 -22 -3.33301 -32 -10s-20.667 -18 -32 -34l-62 48c19.333 34 42.833 60.167 70.5 78.5s58.5 27.5 92.5 27.5h458l-23 -110h-79z" />
    <glyph glyph-name="afii10023" unicode="&#x401;" horiz-adv-x="503" 
d="M168 700h130h264l-26 -122h-264l-35 -163h241l-27 -122h-239l-37 -171h269l-25 -122h-269h-130zM206 798c0 19.333 6.66699 33.833 20 43.5s30.666 14.5 51.999 14.5s38.666 -4.83301 51.999 -14.5s20 -24.167 20 -43.5s-6.66699 -33.666 -20 -42.999
s-30.666 -14 -51.999 -14s-38.666 4.66699 -51.999 14s-20 23.666 -20 42.999zM410 798c0 19.333 6.66699 33.833 20 43.5s30.666 14.5 51.999 14.5s38.666 -4.83301 51.999 -14.5s20 -24.167 20 -43.5s-6.66699 -33.666 -20 -42.999s-30.666 -14 -51.999 -14
s-38.666 4.66699 -51.999 14s-20 23.666 -20 42.999z" />
    </font>
</defs>
</svg>
