<?xml version="1.0" standalone="no"?>
<!DOCTYPE svg PUBLIC "-//W3C//DTD SVG 1.1//EN" "http://www.w3.org/Graphics/SVG/1.1/DTD/svg11.dtd" >
<svg>
<metadata>
Created by FontForge 20120731 at Fri Aug  1 16:50:22 2014
 By Alfred Xing
Copyright (c) 2010-2014 by tyPoland Lukasz Dziedzic with Reserved Font Name "Lato". Licensed under the SIL Open Font License, Version 1.1. 
</metadata>
<defs>
<font id="Lato-Hairline" horiz-adv-x="400" >
  <font-face 
    font-family="Lato Hairline"
    font-weight="100"
    font-stretch="normal"
    units-per-em="1000"
    panose-1="2 15 5 2 2 2 4 3 2 3"
    ascent="805"
    descent="-195"
    x-height="489.999"
    cap-height="700"
    bbox="-460.001 -259 1340 1034"
    underline-thickness="97"
    underline-position="-3"
    unicode-range="U+000D-FEFF"
  />
<missing-glyph horiz-adv-x="496" 
d="M136 564c6 6 12.834 11.834 20.501 17.501s15.834 10.834 24.501 15.501s18.5 8.33398 29.5 11.001s22.833 4 35.5 4c14.667 0 29.167 -2.33301 43.5 -7s26.833 -11.334 37.5 -20.001s19.167 -19.334 25.5 -32.001s9.5 -27 9.5 -43c0 -18 -2.83301 -33.833 -8.5 -47.5
s-13 -25.5 -22 -35.5s-18.5 -18.667 -28.5 -26s-19.667 -14.5 -29 -21.5s-17 -14 -23 -21s-9 -14.5 -9 -22.5l-2 -62h-8v62c0 9.33301 2.83301 17.666 8.5 24.999s13 14.666 22 21.999s18.5 14.666 28.5 21.999s19.667 15.833 29 25.5s16.833 20.834 22.5 33.501
s8.5 27.667 8.5 45c0 14.667 -2.83301 27.834 -8.5 39.501s-13.5 21.5 -23.5 29.5s-21.333 14 -34 18s-25.667 6 -39 6c-16.667 0 -31.167 -2.33301 -43.5 -7s-22.833 -9.66699 -31.5 -15s-15.334 -10.333 -20.001 -15s-7.33398 -7 -8.00098 -7s-1.66699 0.333008 -3 1z
M211.001 120.001c0 6.66699 2.33301 12.668 7 18.001c5.33301 5.33301 11.333 8 18 8s12.334 -2.5 17.001 -7.5c4.66699 -5.66699 7 -11.834 7 -18.501s-2.33301 -12.334 -7 -17.001s-10.334 -7 -17.001 -7s-12.5 2.33301 -17.5 7s-7.5 10.334 -7.5 17.001zM25.001 700.002
h447v-700h-447v700zM35.001 10.002h427v680h-427v-680z" />
    <glyph glyph-name="uniFB00" unicode="ff" horiz-adv-x="627" 
d="M118 0l0.000976562 459.004l-82 2c-4 0 -6 1.33301 -6 4v4h88v70c0 28 3.33301 52.167 10 72.5s16 37.166 28 50.499s26 23.333 42 30s34 10 54 10c9.33301 0 19.333 -1 30 -3s19.334 -4.66699 26.001 -8l-1 -4c-0.666992 -2.66699 -2 -3.83398 -4 -3.50098
s-5 1.16602 -9 2.49902s-9.5 2.66602 -16.5 3.99902s-15.5 2 -25.5 2c-17.333 0 -33.333 -2.66699 -48 -8s-27.5 -14.166 -38.5 -26.499s-19.667 -28.333 -26 -48s-9.5 -43.167 -9.5 -70.5v-70h284v75c0 28 3.33301 52.333 10 73s15.667 37.667 27 51
s25.333 23.166 42 29.499s34.667 9.5 54 9.5c9.33301 0 19.166 -0.833008 29.499 -2.5s19.166 -4.5 26.499 -8.5l-1 -4c-0.666992 -2.66699 -2 -3.66699 -4 -3s-5.16699 1.5 -9.5 2.5s-9.83301 2.16699 -16.5 3.5s-15 2 -25 2c-17.333 0 -33.5 -2.83301 -48.5 -8.5
s-27.833 -14.5 -38.5 -26.5s-19 -27.667 -25 -47s-9 -43 -9 -71v-75h174v-10h-174v-459h-12v459h-284v-459h-12z" />
    <glyph glyph-name="uniFB01" unicode="fi" horiz-adv-x="509" 
d="M120 0l0.00195312 459l-82 2c-4 0 -6 1.33301 -6 4v4h88v55c0 30.667 4.33301 57.667 13 81s20.667 43 36 59s33.666 28 54.999 36s44.666 12 69.999 12c9.33301 0 19.333 -1 30 -3s19.334 -4.66699 26.001 -8l-1 -4c-0.666992 -2 -2 -2.83301 -4 -2.5s-5 1 -9 2
s-9.33301 2.16699 -16 3.5s-15.334 2 -26.001 2c-24 0 -45.667 -3.66699 -65 -11s-36.333 -18.333 -51 -33s-26 -33 -34 -55s-12 -48.333 -12 -79v-55h279v-469h-12v459h-267v-459h-12z" />
    <glyph glyph-name="uniFB02" unicode="fl" horiz-adv-x="539" 
d="M120 0l-0.000976562 459l-82 2c-4 0 -6 1.33301 -6 4v4h88v38c0 30.667 4.33301 58.5 13 83.5s21.167 46.5 37.5 64.5s36.333 31.833 60 41.5s50.5 14.5 80.5 14.5c22 0 43.667 -1.16699 65 -3.5s41 -3.5 59 -3.5h6v-704h-12v696c-17.333 0 -36.5 0.833008 -57.5 2.5
s-41.167 2.5 -60.5 2.5c-28 0 -53.167 -4.5 -75.5 -13.5s-41.166 -22 -56.499 -39s-27 -37.5 -35 -61.5s-12 -50.667 -12 -80v-38h155v-10h-155v-459h-12z" />
    <glyph glyph-name="uniFB03" unicode="ffi" horiz-adv-x="804" 
d="M120 0l0.00585938 459.003l-82 2c-4 0 -6 1.33301 -6 4v4h88v70c0 28 3.33301 52.167 10 72.5s15.834 37.166 27.501 50.499s25.667 23.333 42 30s34.5 10 54.5 10c9.33301 0 19.166 -1 29.499 -3c11 -2 19.833 -4.66699 26.5 -8l-2 -4
c-0.666992 -2.66699 -1.83398 -3.83398 -3.50098 -3.50098s-4.66699 1.16602 -9 2.49902s-10 2.66602 -17 3.99902s-15.167 2 -24.5 2c-17.333 0 -33.5 -2.66699 -48.5 -8s-28 -14.166 -39 -26.499s-19.5 -28.333 -25.5 -48s-9 -43.167 -9 -70.5v-70h283v55
c0 30.667 4.16699 57.667 12.5 81s20.166 43 35.499 59s33.666 28 54.999 36s45 12 71 12c9.33301 0 19.166 -1 29.499 -3s19.166 -4.66699 26.499 -8l-1 -4c-0.666992 -2 -1.83398 -2.83301 -3.50098 -2.5s-4.66699 1 -9 2s-10 2.16699 -17 3.5s-15.5 2 -25.5 2
c-24 0 -45.833 -3.66699 -65.5 -11s-36.667 -18.333 -51 -33s-25.5 -33 -33.5 -55s-12 -48.333 -12 -79v-55h279v-469h-12v459h-267v-459h-12v459h-283v-459h-12z" />
    <glyph glyph-name="uniFB04" unicode="ffl" horiz-adv-x="832" 
d="M118 0l-0.000976562 459.003l-82 2c-4 0 -6 1.33301 -6 4v4h88v70c0 28 3.33301 52.167 10 72.5s16 37.166 28 50.499s26 23.333 42 30s34 10 54 10c9.33301 0 19.333 -1 30 -3s19.334 -4.66699 26.001 -8l-1 -4c-0.666992 -2.66699 -2 -3.83398 -4 -3.50098
s-5 1.16602 -9 2.49902s-9.5 2.66602 -16.5 3.99902s-15.5 2 -25.5 2c-17.333 0 -33.333 -2.66699 -48 -8s-27.5 -14.166 -38.5 -26.499s-19.667 -28.333 -26 -48s-9.5 -43.167 -9.5 -70.5v-70h284v38c0 30.667 4.33301 58.5 13 83.5s21 46.5 37 64.5s36 31.833 60 41.5
s50.667 14.5 80 14.5c22 0 43.833 -1.16699 65.5 -3.5s41.167 -3.5 58.5 -3.5h6v-704h-12v696c-17.333 0 -36.333 0.833008 -57 2.5s-41 2.5 -61 2.5c-28 0 -53 -4.5 -75 -13.5s-40.667 -22 -56 -39s-27 -37.5 -35 -61.5s-12 -50.667 -12 -80v-38h174v-10h-174v-459h-12v459
h-284v-459h-12z" />
    <glyph glyph-name="f_b.liga" unicode="fb" horiz-adv-x="869" 
d="M418 0l0.00488281 708.998c-17.333 2.66699 -35.333 4.83398 -54 6.50098s-35.334 2.5 -50.001 2.5c-34.667 0 -63.667 -4.83301 -87 -14.5s-42 -23 -56 -40s-24.333 -37.167 -31 -60.5s-10 -48.666 -10 -75.999v-58h175v-10h-175v-459h-12v459l-82 2
c-4 0 -6 1.33301 -6 4v4h88v58c0 29.333 3.66699 56.166 11 80.499s18.666 45.5 33.999 63.5s35.333 32 60 42s54.667 15 90 15c18.667 0 37.167 -1.16699 55.5 -3.5s36.166 -3.83301 53.499 -4.5h8v-331c21.333 33.333 47.5 59.833 78.5 79.5s67.5 29.5 109.5 29.5
c30 0 56.833 -5.33301 80.5 -16s43.5 -26 59.5 -46s28.333 -45 37 -75s13 -64 13 -102c0 -40 -4.66699 -76.167 -14 -108.5s-23 -60.166 -41 -83.499s-40.333 -41.333 -67 -54s-57.334 -19 -92.001 -19c-36 0 -67.667 7.16699 -95 21.5s-50.333 36.5 -69 66.5l-2 -75
c0 -1.33301 -0.333008 -2.83301 -1 -4.5s-2.33398 -2.5 -5.00098 -2.5h-4zM618.005 487.998c-41.333 0 -77.334 -10.333 -108.001 -31s-57.334 -48.667 -80.001 -84v-275c21.333 -34.667 45.333 -59 72 -73s57 -21 91 -21c34.667 0 64.834 6.33301 90.501 19
s46.834 30.167 63.501 52.5s29 49 37 80s12 65.167 12 102.5c0 74.667 -15.667 131.667 -47 171s-75 59 -131 59z" />
    <glyph glyph-name="f_f_b.liga" unicode="ffb" horiz-adv-x="1164" 
d="M118 0l-0.00292969 459.001l-82 2c-4 0 -6 1.33301 -6 4v4h88v70c0 28 3.33301 52.167 10 72.5s16 37.166 28 50.499s26 23.333 42 30s34 10 54 10c9.33301 0 19.333 -1 30 -3s19.334 -4.66699 26.001 -8l-1 -4c-0.666992 -2.66699 -2 -3.83398 -4 -3.50098
s-5 1.16602 -9 2.49902s-9.5 2.66602 -16.5 3.99902s-15.5 2 -25.5 2c-17.333 0 -33.333 -2.66699 -48 -8s-27.5 -14.166 -38.5 -26.499s-19.667 -28.333 -26 -48s-9.5 -43.167 -9.5 -70.5v-70h284v58c0 29.333 3.33301 56.166 10 80.499s17.834 45.5 33.501 63.5
s35.834 32 60.501 42s54.667 15 90 15c18.667 0 37.167 -1.16699 55.5 -3.5c17.667 -2.33301 35.167 -3.83301 52.5 -4.5h9v-331c21.333 33.333 47.5 59.833 78.5 79.5s67.5 29.5 109.5 29.5c30 0 56.833 -5.33301 80.5 -16s43.667 -26 60 -46s28.666 -45 36.999 -75
s12.5 -64 12.5 -102c0 -40 -4.66699 -76.167 -14 -108.5s-23 -60.166 -41 -83.499s-40.333 -41.333 -67 -54c-27.333 -12.667 -58.333 -19 -93 -19c-36 0 -67.667 7.16699 -95 21.5s-50.333 36.5 -69 66.5l-1 -75c0 -1.33301 -0.333008 -2.83301 -1 -4.5
s-2.33398 -2.5 -5.00098 -2.5h-4v709c-17.333 2.66699 -35.166 4.83398 -53.499 6.50098s-35.166 2.5 -50.499 2.5c-34.667 0 -63.5 -4.83301 -86.5 -14.5s-41.833 -23 -56.5 -40s-25 -37.167 -31 -60.5s-9 -48.666 -9 -75.999v-58h174v-10h-174v-459h-12v459h-284v-459h-12
zM912.997 488.001c-41.333 0 -77.5 -10.333 -108.5 -31s-57.5 -48.667 -79.5 -84v-275c21.333 -34.667 45.333 -59 72 -73s57 -21 91 -21c34.667 0 64.667 6.33301 90 19s46.333 30.167 63 52.5s29.167 49 37.5 80s12.5 65.167 12.5 102.5c0 74.667 -15.667 131.667 -47 171
s-75 59 -131 59z" />
    <glyph glyph-name="f_h.liga" unicode="fh" horiz-adv-x="869" 
d="M418 0l0.00292969 708.998c-17.333 2.66699 -35.333 4.83398 -54 6.50098s-35.334 2.5 -50.001 2.5c-34.667 0 -63.667 -4.83301 -87 -14.5s-42 -23 -56 -40s-24.333 -37.167 -31 -60.5s-10 -48.666 -10 -75.999v-58h175v-10h-175v-459h-12v459l-82 2
c-4 0 -6 1.33301 -6 4v4h88v58c0 29.333 3.66699 56.166 11 80.499s18.666 45.5 33.999 63.5s35.333 32 60 42s54.667 15 90 15c18.667 0 37.167 -1.16699 55.5 -3.5s36.166 -3.83301 53.499 -4.5h8v-332c11.333 16.667 24.166 31.834 38.499 45.501s29.5 25.167 45.5 34.5
s33 16.666 51 21.999s36.667 8 56 8c54.667 0 95.334 -16.167 122.001 -48.5s40 -77.5 40 -135.5v-314h-12v314c0 27.333 -3 51.833 -9 73.5s-15.167 39.834 -27.5 54.501s-28 26 -47 34s-41.167 12 -66.5 12c-38.667 0 -74.167 -10.333 -106.5 -31s-60.5 -49 -84.5 -85
v-372h-12z" />
    <glyph glyph-name="f_f_h.liga" unicode="ffh" horiz-adv-x="1164" 
d="M118 0l-0.00488281 459.001l-82 2c-4 0 -6 1.33301 -6 4v4h88v70c0 28 3.33301 52.167 10 72.5s16 37.166 28 50.499s26 23.333 42 30s34 10 54 10c9.33301 0 19.333 -1 30 -3s19.334 -4.66699 26.001 -8l-1 -4c-0.666992 -2.66699 -2 -3.83398 -4 -3.50098
s-5 1.16602 -9 2.49902s-9.5 2.66602 -16.5 3.99902s-15.5 2 -25.5 2c-17.333 0 -33.333 -2.66699 -48 -8s-27.5 -14.166 -38.5 -26.499s-19.667 -28.333 -26 -48s-9.5 -43.167 -9.5 -70.5v-70h284v58c0 29.333 3.33301 56.166 10 80.499s17.834 45.5 33.501 63.5
s35.834 32 60.501 42s54.667 15 90 15c18.667 0 37.167 -1.16699 55.5 -3.5c17.667 -2.33301 35.167 -3.83301 52.5 -4.5h9v-332c11.333 16.667 24 31.834 38 45.501s29.333 25.167 46 34.5s34 16.666 52 21.999s36.333 8 55 8c54.667 0 95.334 -16.167 122.001 -48.5
s40 -77.5 40 -135.5v-314h-12v314c0 27.333 -3 51.833 -9 73.5s-15.333 39.834 -28 54.501s-28.334 26 -47.001 34s-40.667 12 -66 12c-38.667 0 -74 -10.333 -106 -31s-60.333 -49 -85 -85v-372h-12v709c-17.333 2.66699 -35.166 4.83398 -53.499 6.50098
s-35.166 2.5 -50.499 2.5c-34.667 0 -63.5 -4.83301 -86.5 -14.5s-41.833 -23 -56.5 -40s-25 -37.167 -31 -60.5s-9 -48.666 -9 -75.999v-58h174v-10h-174v-459h-12v459h-284v-459h-12z" />
    <glyph glyph-name="f_igrave.liga" unicode="f&#xec;" horiz-adv-x="509" 
d="M294 712c8 0 14.6699 -1.33203 20.0029 -3.99902s9.66602 -6.33398 12.999 -11.001l82 -118h-7c-4 0 -6.66699 1.33301 -8 4l-96 119h-4c-23.333 0 -45 -3.66699 -65 -11s-37.167 -18.333 -51.5 -33s-25.5 -33 -33.5 -55s-12 -48.333 -12 -79v-55h279v-469h-12v459h-267
v-459h-12v459l-82 2c-4 0 -6 1.33301 -6 4v4h88v55c0 30.667 4.33301 57.667 13 81s20.667 43 36 59s33.666 28 54.999 36s44.666 12 69.999 12z" />
    <glyph glyph-name="f_icircumflex.liga" unicode="f&#xee;" horiz-adv-x="509" 
d="M120 0l0.00292969 459l-82 2c-4 0 -6 1.33301 -6 4v4h88v85c0 28 2.83301 52 8.5 72s13.667 36.333 24 49s22.5 22 36.5 28s30 9 48 9c5.33301 0 10.166 -0.333008 14.499 -1s8.16602 -1 11.499 -1v-6c0 -2.66699 -1.83301 -3.66699 -5.5 -3s-10.834 1 -21.501 1
c-32.667 0 -58.167 -11.833 -76.5 -35.5s-27.5 -61.167 -27.5 -112.5v-85h279v-469h-12v459h-267v-459h-12zM401.003 700h7.99902l106 -115h-9c-2.66699 0 -5.33398 1.33301 -8.00098 4l-90 98l-3 3l-3 -3l-90 -98c-1.33301 -1.33301 -2.66602 -2.33301 -3.99902 -3
s-2.66602 -1 -3.99902 -1h-9z" />
    <glyph glyph-name="f_itilde.liga" unicode="f&#x129;" horiz-adv-x="509" 
d="M461 621c16.667 0 28.9971 5.5 36.9971 16.5s12.333 24.5 13 40.5h8c0 -9.33301 -1.16699 -18 -3.5 -26s-5.83301 -15 -10.5 -21s-10.667 -10.833 -18 -14.5s-16 -5.5 -26 -5.5c-10.667 0 -20.667 3 -30 9s-18.5 12.667 -27.5 20s-17.833 14 -26.5 20s-18 9 -28 9
c-8 0 -15.167 -1.5 -21.5 -4.5s-11.5 -7.16699 -15.5 -12.5s-7 -11.333 -9 -18s-3.33301 -14 -4 -22h-9c0 9.33301 1.33301 18 4 26s6.33398 15 11.001 21s10.667 10.833 18 14.5s16 5.5 26 5.5c10.667 0 20.834 -3 30.501 -9s18.834 -12.667 27.501 -20s17.5 -14 26.5 -20
s18.167 -9 27.5 -9zM119.997 0l0.00292969 459l-82 2c-4 0 -6 1.33301 -6 4v4h88v85c0 28 2.83301 52 8.5 72s13.667 36.333 24 49s22.5 22 36.5 28s30 9 48 9c5.33301 0 10.166 -0.333008 14.499 -1s8.16602 -1 11.499 -1v-6c0 -2.66699 -1.83301 -3.66699 -5.5 -3
s-10.834 1 -21.501 1c-32.667 0 -58.167 -11.833 -76.5 -35.5s-27.5 -61.167 -27.5 -112.5v-85h279v-469h-12v459h-267v-459h-12z" />
    <glyph glyph-name="f_idieresis.liga" unicode="f&#xef;" horiz-adv-x="509" 
d="M358 640c0 -6.66699 -2.83301 -12.834 -8.5 -18.501c-6.33301 -5.66699 -12.833 -8.5 -19.5 -8.5c-8 0 -14.667 2.83301 -20 8.5s-8 11.834 -8 18.501c0 8 2.83301 14.667 8.5 20c5 5.33301 11.5 8 19.5 8c6.66699 0 13 -2.66699 19 -8s9 -12 9 -20zM502 640
c0 -6.66699 -2.83301 -12.834 -8.5 -18.501c-6.33301 -5.66699 -12.833 -8.5 -19.5 -8.5c-8 0 -14.667 2.83301 -20 8.5s-8 11.834 -8 18.501c0 8 2.83301 14.667 8.5 20c5 5.33301 11.5 8 19.5 8c6.66699 0 13 -2.66699 19 -8s9 -12 9 -20zM120 0l0.00292969 459l-82 2
c-4 0 -6 1.33301 -6 4v4h88v85c0 28 2.83301 52 8.5 72s13.667 36.333 24 49s22.5 22 36.5 28s30 9 48 9c5.33301 0 10.166 -0.333008 14.499 -1s8.16602 -1 11.499 -1v-6c0 -2.66699 -1.83301 -3.66699 -5.5 -3s-10.834 1 -21.501 1c-32.667 0 -58.167 -11.833 -76.5 -35.5
s-27.5 -61.167 -27.5 -112.5v-85h279v-469h-12v459h-267v-459h-12z" />
    <glyph glyph-name="f_imacron.liga" unicode="f&#x12b;" horiz-adv-x="509" 
d="M272 645h260v-10h-260v10zM120 0l0.00292969 459l-82 2c-4 0 -6 1.33301 -6 4v4h88v85c0 28 2.83301 52 8.5 72s13.667 36.333 24 49s22.5 22 36.5 28s30 9 48 9c5.33301 0 10.166 -0.333008 14.499 -1s8.16602 -1 11.499 -1v-6c0 -2.66699 -1.83301 -3.66699 -5.5 -3
s-10.834 1 -21.501 1c-32.667 0 -58.167 -11.833 -76.5 -35.5s-27.5 -61.167 -27.5 -112.5v-85h279v-469h-12v459h-267v-459h-12z" />
    <glyph glyph-name="f_ibreve.liga" unicode="f&#x12d;" horiz-adv-x="509" 
d="M402 586c-18.667 0 -34.665 3 -47.998 9s-24.333 14.333 -33 25s-14.834 22.667 -18.501 36s-5.5 28 -5.5 44h10c0 -13.333 1.66699 -26.333 5 -39s8.83301 -23.667 16.5 -33s17.5 -17 29.5 -23s26.667 -9 44 -9s32 3 44 9s21.833 13.667 29.5 23s13.167 20.333 16.5 33
s5 25.667 5 39h10c0 -16 -1.83301 -30.667 -5.5 -44s-9.83398 -25.333 -18.501 -36s-19.667 -19 -33 -25s-29.333 -9 -48 -9zM120.002 0l0.00292969 459l-82 2c-4 0 -6 1.33301 -6 4v4h88v85c0 28 2.83301 52 8.5 72s13.667 36.333 24 49s22.5 22 36.5 28s30 9 48 9
c5.33301 0 10.166 -0.333008 14.499 -1s8.16602 -1 11.499 -1v-6c0 -2.66699 -1.83301 -3.66699 -5.5 -3s-10.834 1 -21.501 1c-32.667 0 -58.167 -11.833 -76.5 -35.5s-27.5 -61.167 -27.5 -112.5v-85h279v-469h-12v459h-267v-459h-12z" />
    <glyph glyph-name="f_iogonek.liga" unicode="f&#x12f;" horiz-adv-x="509" 
d="M120 0l0.00390625 459.001l-82 2c-4 0 -6 1.33301 -6 4v4h88v55c0 30.667 4.33301 57.667 13 81s20.667 43 36 59s33.666 28 54.999 36s44.666 12 69.999 12c9.33301 0 19.333 -1 30 -3s19.334 -4.66699 26.001 -8l-1 -4c-0.666992 -2 -2 -2.83301 -4 -2.5s-5 1 -9 2
s-9.33301 2.16699 -16 3.5s-15.334 2 -26.001 2c-24 0 -45.667 -3.66699 -65 -11s-36.333 -18.333 -51 -33s-26 -33 -34 -55s-12 -48.333 -12 -79v-55h279v-469c-6.66699 -4 -14.167 -9 -22.5 -15s-16.333 -13.167 -24 -21.5s-14 -17.666 -19 -27.999s-7.5 -21.5 -7.5 -33.5
c0 -18.667 6.33301 -33.167 19 -43.5s28.667 -15.5 48 -15.5c10.667 0 19.834 1.16699 27.501 3.5s13.834 4.83301 18.501 7.5s8.66699 5.16699 12 7.5s5.66602 3.5 6.99902 3.5s2.66602 -0.666992 3.99902 -2l3 -3c-8.66699 -8.66699 -19.5 -15.334 -32.5 -20.001
s-26.5 -7 -40.5 -7c-22 0 -40.333 5.83301 -55 17.5s-22 28.834 -22 51.501c0 11.333 2.16699 22.166 6.5 32.499s10.166 19.666 17.499 27.999s15.166 16 23.499 23s16.5 13.167 24.5 18.5v455h-267v-459h-12z" />
    <glyph glyph-name="f_dotlessi.liga" unicode="f&#x131;" horiz-adv-x="509" 
d="M120 0l0.00292969 459l-82 2c-4 0 -6 1.33301 -6 4v4h88v85c0 28 2.83301 52 8.5 72s13.667 36.333 24 49s22.5 22 36.5 28s30 9 48 9c5.33301 0 10.166 -0.333008 14.499 -1s8.16602 -1 11.499 -1v-6c0 -2.66699 -1.83301 -3.66699 -5.5 -3s-10.834 1 -21.501 1
c-32.667 0 -58.167 -11.833 -76.5 -35.5s-27.5 -61.167 -27.5 -112.5v-85h279v-469h-12v459h-267v-459h-12z" />
    <glyph glyph-name="f_f_igrave.liga" unicode="ff&#xec;" horiz-adv-x="802" 
d="M692 0l0.00390625 459.005h-266v-459h-12v459h-282v-459h-12v459l-84 2c-4 0 -6 1.33301 -6 4v4h90v70c0 28 3.33301 52.167 10 72.5s15.834 37.166 27.501 50.499s25.667 23.333 42 30s34.5 10 54.5 10c9.33301 0 19.166 -1 29.499 -3c11 -2 19.833 -4.66699 26.5 -8
l-2 -4c-0.666992 -2.66699 -1.83398 -3.83398 -3.50098 -3.50098s-4.66699 1.16602 -9 2.49902s-10 2.66602 -17 3.99902s-15.167 2 -24.5 2c-17.333 0 -33.5 -2.66699 -48.5 -8s-28 -14.166 -39 -26.499s-19.5 -28.333 -25.5 -48s-9 -43.167 -9 -70.5v-70h282v75
c0 56 12.667 97.167 38 123.5s65.666 39.5 120.999 39.5c4.66699 0 9.83398 -0.166992 15.501 -0.5s11.167 -1 16.5 -2s10.166 -2.33301 14.499 -4s7.5 -4.16699 9.5 -7.5l79 -114h-6c-4 0 -6.66699 1.33301 -8 4l-90 110c-4.66699 1.33301 -9.83398 2.33301 -15.501 3
s-12.834 1 -21.501 1c-20 0 -38.5 -2.16699 -55.5 -6.5s-31.833 -12.333 -44.5 -24s-22.667 -27.334 -30 -47.001s-11 -44.834 -11 -75.501v-75h278v-469h-12z" />
    <glyph glyph-name="f_f_icircumflex.liga" unicode="ff&#xee;" horiz-adv-x="804" 
d="M694 0l0.00292969 459.003h-267v-459h-12v459h-283v-459h-12v459l-82 2c-4 0 -6 1.33301 -6 4v4h88v70c0 28 3.33301 52.167 10 72.5s15.834 37.166 27.501 50.499s25.667 23.333 42 30s34.5 10 54.5 10c9.33301 0 19.166 -1 29.499 -3c11 -2 19.833 -4.66699 26.5 -8
l-2 -4c-0.666992 -2.66699 -1.83398 -3.83398 -3.50098 -3.50098s-4.66699 1.16602 -9 2.49902s-10 2.66602 -17 3.99902s-15.167 2 -24.5 2c-17.333 0 -33.5 -2.66699 -48.5 -8s-28 -14.166 -39 -26.499s-19.5 -28.333 -25.5 -48s-9 -43.167 -9 -70.5v-70h283v85
c0 28 2.83301 52 8.5 72s13.5 36.333 23.5 49s22.333 22 37 28s30.667 9 48 9c5.33301 0 10.166 -0.333008 14.499 -1s8.16602 -1 11.499 -1v-6c0 -2.66699 -2 -3.66699 -6 -3s-11.333 1 -22 1c-32.667 0 -58 -11.833 -76 -35.5s-27 -61.167 -27 -112.5v-85h279v-469h-12z
M810.003 585.003h-8.99902c-2.66699 0 -5.33398 1.33301 -8.00098 4l-90 98l-3 3l-3 -3l-90 -98c-1.33301 -1.33301 -2.5 -2.33301 -3.5 -3s-2.5 -1 -4.5 -1h-9l106 115h8z" />
    <glyph glyph-name="f_f_itilde.liga" unicode="ff&#x129;" horiz-adv-x="804" 
d="M694 0l0.00292969 459.003h-267v-459h-12v459h-283v-459h-12v459l-82 2c-4 0 -6 1.33301 -6 4v4h88v70c0 28 3.33301 52.167 10 72.5s15.834 37.166 27.501 50.499s25.667 23.333 42 30s34.5 10 54.5 10c9.33301 0 19.166 -1 29.499 -3c11 -2 19.833 -4.66699 26.5 -8
l-2 -4c-0.666992 -2.66699 -1.83398 -3.83398 -3.50098 -3.50098s-4.66699 1.16602 -9 2.49902s-10 2.66602 -17 3.99902s-15.167 2 -24.5 2c-17.333 0 -33.5 -2.66699 -48.5 -8s-28 -14.166 -39 -26.499s-19.5 -28.333 -25.5 -48s-9 -43.167 -9 -70.5v-70h283v85
c0 28 2.83301 52 8.5 72s13.5 36.333 23.5 49s22.333 22 37 28s30.667 9 48 9c5.33301 0 10.166 -0.333008 14.499 -1s8.16602 -1 11.499 -1v-6c0 -2.66699 -2 -3.66699 -6 -3s-11.333 1 -22 1c-32.667 0 -58 -11.833 -76 -35.5s-27 -61.167 -27 -112.5v-85h279v-469h-12z
M757.003 621.003c16.667 0 28.9971 5.5 36.9971 16.5s12.333 24.5 13 40.5h8c0 -9.33301 -1.16699 -18 -3.5 -26s-5.83301 -15 -10.5 -21s-10.667 -10.833 -18 -14.5s-16 -5.5 -26 -5.5c-10.667 0 -20.667 3 -30 9s-18.5 12.667 -27.5 20s-17.833 14 -26.5 20s-18 9 -28 9
c-8 0 -15.167 -1.5 -21.5 -4.5s-11.5 -7.16699 -15.5 -12.5s-7 -11.333 -9 -18s-3.33301 -14 -4 -22h-9c0 9.33301 1.33301 18 4 26s6.33398 15 11.001 21s10.667 10.833 18 14.5s16 5.5 26 5.5c10.667 0 20.834 -3 30.501 -9s18.834 -12.667 27.501 -20s17.5 -14 26.5 -20
s18.167 -9 27.5 -9z" />
    <glyph glyph-name="f_f_idieresis.liga" unicode="ff&#xef;" horiz-adv-x="804" 
d="M648 640c0 -6.66699 -3 -12.834 -9 -18.501s-12.333 -8.5 -19 -8.5c-8 0 -14.667 2.83301 -20 8.5s-8 11.834 -8 18.501c0 8 2.66699 14.667 8 20s12 8 20 8c6.66699 0 13 -2.66699 19 -8s9 -12 9 -20zM792 640c0 -6.66699 -3 -12.834 -9 -18.501s-12.333 -8.5 -19 -8.5
c-8 0 -14.667 2.83301 -20 8.5s-8 11.834 -8 18.501c0 8 2.66699 14.667 8 20s12 8 20 8c6.66699 0 13 -2.66699 19 -8s9 -12 9 -20zM694 0l0.00292969 459.003h-267v-459h-12v459h-283v-459h-12v459l-82 2c-4 0 -6 1.33301 -6 4v4h88v70c0 28 3.33301 52.167 10 72.5
s15.834 37.166 27.501 50.499s25.667 23.333 42 30s34.5 10 54.5 10c9.33301 0 19.166 -1 29.499 -3c11 -2 19.833 -4.66699 26.5 -8l-2 -4c-0.666992 -2.66699 -1.83398 -3.83398 -3.50098 -3.50098s-4.66699 1.16602 -9 2.49902s-10 2.66602 -17 3.99902
s-15.167 2 -24.5 2c-17.333 0 -33.5 -2.66699 -48.5 -8s-28 -14.166 -39 -26.499s-19.5 -28.333 -25.5 -48s-9 -43.167 -9 -70.5v-70h283v85c0 28 2.83301 52 8.5 72s13.5 36.333 23.5 49s22.333 22 37 28s30.667 9 48 9c5.33301 0 10.166 -0.333008 14.499 -1
s8.16602 -1 11.499 -1v-6c0 -2.66699 -2 -3.66699 -6 -3s-11.333 1 -22 1c-32.667 0 -58 -11.833 -76 -35.5s-27 -61.167 -27 -112.5v-85h279v-469h-12z" />
    <glyph glyph-name="f_f_imacron.liga" unicode="ff&#x12b;" horiz-adv-x="804" 
d="M694 0l0.00292969 459.003h-267v-459h-12v459h-283v-459h-12v459l-82 2c-4 0 -6 1.33301 -6 4v4h88v70c0 28 3.33301 52.167 10 72.5s15.834 37.166 27.501 50.499s25.667 23.333 42 30s34.5 10 54.5 10c9.33301 0 19.166 -1 29.499 -3c11 -2 19.833 -4.66699 26.5 -8
l-2 -4c-0.666992 -2.66699 -1.83398 -3.83398 -3.50098 -3.50098s-4.66699 1.16602 -9 2.49902s-10 2.66602 -17 3.99902s-15.167 2 -24.5 2c-17.333 0 -33.5 -2.66699 -48.5 -8s-28 -14.166 -39 -26.499s-19.5 -28.333 -25.5 -48s-9 -43.167 -9 -70.5v-70h283v85
c0 28 2.83301 52 8.5 72s13.5 36.333 23.5 49s22.333 22 37 28s30.667 9 48 9c5.33301 0 10.166 -0.333008 14.499 -1s8.16602 -1 11.499 -1v-6c0 -2.66699 -2 -3.66699 -6 -3s-11.333 1 -22 1c-32.667 0 -58 -11.833 -76 -35.5s-27 -61.167 -27 -112.5v-85h279v-469h-12z
M570.003 645.003h260v-10h-260v10z" />
    <glyph glyph-name="f_f_ibreve.liga" unicode="ff&#x12d;" horiz-adv-x="804" 
d="M694 0l0.00292969 459.003h-267v-459h-12v459h-283v-459h-12v459l-82 2c-4 0 -6 1.33301 -6 4v4h88v70c0 28 3.33301 52.167 10 72.5s15.834 37.166 27.501 50.499s25.667 23.333 42 30s34.5 10 54.5 10c9.33301 0 19.166 -1 29.499 -3c11 -2 19.833 -4.66699 26.5 -8
l-2 -4c-0.666992 -2.66699 -1.83398 -3.83398 -3.50098 -3.50098s-4.66699 1.16602 -9 2.49902s-10 2.66602 -17 3.99902s-15.167 2 -24.5 2c-17.333 0 -33.5 -2.66699 -48.5 -8s-28 -14.166 -39 -26.499s-19.5 -28.333 -25.5 -48s-9 -43.167 -9 -70.5v-70h283v85
c0 28 2.83301 52 8.5 72s13.5 36.333 23.5 49s22.333 22 37 28s30.667 9 48 9c5.33301 0 10.166 -0.333008 14.499 -1s8.16602 -1 11.499 -1v-6c0 -2.66699 -2 -3.66699 -6 -3s-11.333 1 -22 1c-32.667 0 -58 -11.833 -76 -35.5s-27 -61.167 -27 -112.5v-85h279v-469h-12z
M700.003 586.003c-18.667 0 -34.665 3 -47.998 9s-24.333 14.333 -33 25s-14.834 22.667 -18.501 36s-5.5 28 -5.5 44h10c0 -13.333 1.66699 -26.333 5 -39s8.83301 -23.667 16.5 -33s17.5 -17 29.5 -23s26.667 -9 44 -9s32 3 44 9s21.833 13.667 29.5 23
s13.167 20.333 16.5 33s5 25.667 5 39h10c0 -16 -1.83301 -30.667 -5.5 -44s-9.83398 -25.333 -18.501 -36s-19.667 -19 -33 -25s-29.333 -9 -48 -9z" />
    <glyph glyph-name="f_f_iogonek.liga" unicode="ff&#x12f;" horiz-adv-x="804" 
d="M120 0l0.00683594 459.004l-82 2c-4 0 -6 1.33301 -6 4v4h88v70c0 28 3.33301 52.167 10 72.5s15.834 37.166 27.501 50.499s25.667 23.333 42 30s34.5 10 54.5 10c9.33301 0 19.166 -1 29.499 -3c11 -2 19.833 -4.66699 26.5 -8l-2 -4
c-0.666992 -2.66699 -1.83398 -3.83398 -3.50098 -3.50098s-4.66699 1.16602 -9 2.49902s-10 2.66602 -17 3.99902s-15.167 2 -24.5 2c-17.333 0 -33.5 -2.66699 -48.5 -8s-28 -14.166 -39 -26.499s-19.5 -28.333 -25.5 -48s-9 -43.167 -9 -70.5v-70h283v55
c0 30.667 4.16699 57.667 12.5 81s20.166 43 35.499 59s33.666 28 54.999 36s45 12 71 12c9.33301 0 19.166 -1 29.499 -3s19.166 -4.66699 26.499 -8l-1 -4c-0.666992 -2 -1.83398 -2.83301 -3.50098 -2.5s-4.66699 1 -9 2s-10 2.16699 -17 3.5s-15.5 2 -25.5 2
c-24 0 -45.833 -3.66699 -65.5 -11s-36.667 -18.333 -51 -33s-25.5 -33 -33.5 -55s-12 -48.333 -12 -79v-55h279v-469c-6.66699 -4 -14.334 -9 -23.001 -15s-16.667 -13.167 -24 -21.5s-13.5 -17.666 -18.5 -27.999s-7.5 -21.5 -7.5 -33.5c0 -18.667 6.5 -33.167 19.5 -43.5
s28.833 -15.5 47.5 -15.5c10.667 0 19.667 1.16699 27 3.5s13.666 4.83301 18.999 7.5s9.33301 5.16699 12 7.5s5 3.5 7 3.5c1.33301 0 2.66602 -0.666992 3.99902 -2l3 -3c-8.66699 -8.66699 -19.5 -15.334 -32.5 -20.001s-26.5 -7 -40.5 -7
c-22 0 -40.333 5.83301 -55 17.5s-22 28.834 -22 51.501c0 11.333 2.33301 22.166 7 32.499s10.334 19.666 17.001 27.999s14.334 16 23.001 23s17 13.167 25 18.5v455h-267v-459h-12v459h-283v-459h-12z" />
    <glyph glyph-name="f_f_dotlessi.liga" unicode="ff&#x131;" horiz-adv-x="804" 
d="M694 0l0.00292969 459.003h-267v-459h-12v459h-283v-459h-12v459l-82 2c-4 0 -6 1.33301 -6 4v4h88v70c0 28 3.33301 52.167 10 72.5s15.834 37.166 27.501 50.499s25.667 23.333 42 30s34.5 10 54.5 10c9.33301 0 19.166 -1 29.499 -3c11 -2 19.833 -4.66699 26.5 -8
l-2 -4c-0.666992 -2.66699 -1.83398 -3.83398 -3.50098 -3.50098s-4.66699 1.16602 -9 2.49902s-10 2.66602 -17 3.99902s-15.167 2 -24.5 2c-17.333 0 -33.5 -2.66699 -48.5 -8s-28 -14.166 -39 -26.499s-19.5 -28.333 -25.5 -48s-9 -43.167 -9 -70.5v-70h283v85
c0 28 2.83301 52 8.5 72s13.5 36.333 23.5 49s22.333 22 37 28s30.667 9 48 9c5.33301 0 10.166 -0.333008 14.499 -1s8.16602 -1 11.499 -1v-6c0 -2.66699 -2 -3.66699 -6 -3s-11.333 1 -22 1c-32.667 0 -58 -11.833 -76 -35.5s-27 -61.167 -27 -112.5v-85h279v-469h-12z
" />
    <glyph glyph-name="f_j.liga" unicode="fj" horiz-adv-x="509" 
d="M120 0v459l-82 2c-4 0 -6 1.33301 -6 4v4h88v55c0 30.667 4.33301 57.667 13 81s20.667 43 36 59s33.666 28 54.999 36s44.666 12 69.999 12c9.33301 0 19.333 -1 30 -3s19.334 -4.66699 26.001 -8l-1 -4c-0.666992 -2 -2 -2.83301 -4 -2.5s-5 1 -9 2
s-9.33301 2.16699 -16 3.5s-15.334 2 -26.001 2c-24 0 -45.667 -3.66699 -65 -11s-36.333 -18.333 -51 -33s-26 -33 -34 -55s-12 -48.333 -12 -79v-55h279v-555c0 -14.667 -2.33301 -28.167 -7 -40.5s-11.167 -23 -19.5 -32s-18.5 -16 -30.5 -21s-25.667 -7.5 -41 -7.5
c-9.33301 0 -17.166 0.833008 -23.499 2.5s-12.5 4.5 -18.5 8.5l2 4c1.33301 2.66699 2.83301 4 4.5 4s4 -0.666992 7 -2s6.83301 -2.83301 11.5 -4.5s10.334 -2.5 17.001 -2.5c28 0 49.333 8.5 64 25.5s22 38.833 22 65.5v545h-267v-459h-12z" />
    <glyph glyph-name="f_f_j.liga" unicode="ffj" horiz-adv-x="804" 
d="M120 0l0.00488281 459.003l-82 2c-4 0 -6 1.33301 -6 4v4h88v70c0 28 3.33301 52.167 10 72.5s15.834 37.166 27.501 50.499s25.667 23.333 42 30s34.5 10 54.5 10c9.33301 0 19.166 -1 29.499 -3c11 -2 19.833 -4.66699 26.5 -8l-2 -4
c-0.666992 -2.66699 -1.83398 -3.83398 -3.50098 -3.50098s-4.66699 1.16602 -9 2.49902s-10 2.66602 -17 3.99902s-15.167 2 -24.5 2c-17.333 0 -33.5 -2.66699 -48.5 -8s-28 -14.166 -39 -26.499s-19.5 -28.333 -25.5 -48s-9 -43.167 -9 -70.5v-70h283v55
c0 30.667 4.16699 57.667 12.5 81s20.166 43 35.499 59s33.666 28 54.999 36s45 12 71 12c9.33301 0 19.166 -1 29.499 -3s19.166 -4.66699 26.499 -8l-1 -4c-0.666992 -2 -1.83398 -2.83301 -3.50098 -2.5s-4.66699 1 -9 2s-10 2.16699 -17 3.5s-15.5 2 -25.5 2
c-24 0 -45.833 -3.66699 -65.5 -11s-36.667 -18.333 -51 -33s-25.5 -33 -33.5 -55s-12 -48.333 -12 -79v-55h279v-555c0 -14.667 -2.33301 -28.167 -7 -40.5s-11.334 -23 -20.001 -32s-19 -16 -31 -21s-25.333 -7.5 -40 -7.5c-9.33301 0 -17.166 0.833008 -23.499 2.5
s-12.5 4.5 -18.5 8.5l2 4c1.33301 2.66699 2.83301 4 4.5 4s4 -0.666992 7 -2s6.83301 -2.83301 11.5 -4.5s10.334 -2.5 17.001 -2.5c28 0 49.333 8.5 64 25.5s22 38.833 22 65.5v545h-267v-459h-12v459h-283v-459h-12z" />
    <glyph glyph-name="f_k.liga" unicode="fk" horiz-adv-x="774" 
d="M118 0v458.997l-82 2c-4 0 -6 1.33301 -6 4v4h88v58c0 29.333 3.66699 56.166 11 80.499s18.666 45.5 33.999 63.5s35.333 32 60 42s54.667 15 90 15c18.667 0 37.167 -1.16699 55.5 -3.5s36.166 -3.83301 53.499 -4.5h8v-452h23c2.66699 0 6.16699 0.333008 10.5 1
s8.83301 3.33398 13.5 8.00098l233 205c2.66699 2.66699 5.33398 4.66699 8.00098 6s6 2 10 2h9l-248 -217c-4.66699 -4.66699 -9 -7.66699 -13 -9c4.66699 -1.33301 8.83398 -3 12.501 -5s6.83398 -4.33301 9.50098 -7l259 -252h-9c-2.66699 0 -5 0.333008 -7 1
s-4.33301 2.33398 -7 5.00098l-246 239c-6 5.33301 -11.333 9 -16 11s-12 3 -22 3h-20v-259h-12v709c-17.333 2.66699 -35.333 4.83398 -54 6.50098s-35.334 2.5 -50.001 2.5c-34.667 0 -63.667 -4.83301 -87 -14.5s-42 -23 -56 -40s-24.333 -37.167 -31 -60.5
s-10 -48.666 -10 -75.999v-58h175v-10h-175v-459h-12z" />
    <glyph glyph-name="f_f_k.liga" unicode="ffk" horiz-adv-x="1071" 
d="M120 0l-0.00195312 459l-82 2c-4 0 -6 1.33301 -6 4v4h88v70c0 28 3.33301 52.167 10 72.5s15.834 37.166 27.501 50.499s25.667 23.333 42 30s34.5 10 54.5 10c9.33301 0 19.166 -1 29.499 -3c11 -2 19.833 -4.66699 26.5 -8l-2 -4
c-0.666992 -2.66699 -1.83398 -3.83398 -3.50098 -3.50098s-4.66699 1.16602 -9 2.49902s-10 2.66602 -17 3.99902s-15.167 2 -24.5 2c-17.333 0 -33.5 -2.66699 -48.5 -8s-28 -14.166 -39 -26.499s-19.5 -28.333 -25.5 -48s-9 -43.167 -9 -70.5v-70h283v58
c0 29.333 3.5 56.166 10.5 80.499s18.167 45.5 33.5 63.5s35.333 32 60 42s55 15 91 15c18.667 0 37 -1.16699 55 -3.5s35.667 -3.83301 53 -4.5h8v-452h24c2.66699 0 6 0.333008 10 1s8.66699 3.33398 14 8.00098l232 205c2.66699 2.66699 5.33398 4.66699 8.00098 6
s6 2 10 2h10l-248 -217c-4 -4.66699 -8.33301 -7.66699 -13 -9c4.66699 -1.33301 8.66699 -3 12 -5s6.33301 -4.33301 9 -7l260 -252h-10c-2.66699 0 -5 0.333008 -7 1s-4.33301 2.33398 -7 5.00098l-246 239c-6 5.33301 -11.167 9 -15.5 11s-11.833 3 -22.5 3h-20v-259h-12
v709c-17.333 2.66699 -35.166 4.83398 -53.499 6.50098c-19 1.66699 -35.833 2.5 -50.5 2.5c-34.667 0 -63.5 -4.83301 -86.5 -14.5s-41.667 -23 -56 -40s-24.666 -37.167 -30.999 -60.5s-9.5 -48.666 -9.5 -75.999v-58h175v-10h-175v-459h-12v459h-283v-459h-12z" />
    <glyph glyph-name="f_t.liga" unicode="ft" horiz-adv-x="632" 
d="M436 459l0.000976562 -366.001c0 -16.667 2 -30.667 6 -42s9.66699 -20.666 17 -27.999s15.833 -12.666 25.5 -15.999c10.333 -3.33301 20.833 -5 31.5 -5c14 0 26.167 2.16699 36.5 6.5s19.166 9 26.499 14s13.333 9.66699 18 14s7.66699 6.5 9 6.5
s2.66602 -0.666992 3.99902 -2l2 -2c-5.33301 -6.66699 -11.333 -12.834 -18 -18.501s-14.334 -10.667 -23.001 -15s-17.667 -7.66602 -27 -9.99902s-18.666 -3.5 -27.999 -3.5c-28.667 0 -51.167 7.83301 -67.5 23.5s-24.5 41.5 -24.5 77.5v366h-294v-459h-12v459l-82 2
c-4 0 -6 1.33301 -6 4v4h88v75c0 28 3.33301 52.333 10 73s16 37.667 28 51s26 23.166 42 29.499s34 9.5 54 9.5c9.33301 0 19.333 -0.833008 30 -2.5s19.334 -4.5 26.001 -8.5l-1 -4c-0.666992 -2.66699 -2 -3.66699 -4 -3s-5 1.5 -9 2.5s-9.5 2.16699 -16.5 3.5
s-15.5 2 -25.5 2c-17.333 0 -33.333 -2.83301 -48 -8.5s-27.5 -14.5 -38.5 -26.5s-19.667 -27.667 -26 -47s-9.5 -43 -9.5 -71v-75h294l4 197c0 1.33301 0.333008 2.83301 1 4.5s1.66699 2.5 3 2.5h4v-204h166v-10h-166z" />
    <glyph glyph-name="f_f_t.liga" unicode="fft" horiz-adv-x="929" 
d="M120 0l0.00195312 459.002l-82 2c-4 0 -6 1.33301 -6 4v4h88v70c0 28 3.33301 52.167 10 72.5s15.834 37.166 27.501 50.499s25.667 23.333 42 30s34.5 10 54.5 10c9.33301 0 19.166 -1 29.499 -3c11 -2 19.833 -4.66699 26.5 -8l-2 -4
c-0.666992 -2.66699 -1.83398 -3.83398 -3.50098 -3.50098s-4.66699 1.16602 -9 2.49902s-10 2.66602 -17 3.99902s-15.167 2 -24.5 2c-17.333 0 -33.5 -2.66699 -48.5 -8s-28 -14.166 -39 -26.499s-19.5 -28.333 -25.5 -48s-9 -43.167 -9 -70.5v-70h283v75
c0 28 3.33301 52.333 10 73s15.834 37.667 27.501 51s25.667 23.166 42 29.499c15.667 6.33301 33.5 9.5 53.5 9.5c9.33301 0 19.333 -0.833008 30 -2.5s19.334 -4.5 26.001 -8.5v-4c-0.666992 -2.66699 -2.16699 -3.66699 -4.5 -3s-5.5 1.5 -9.5 2.5
s-9.33301 2.16699 -16 3.5s-15.334 2 -26.001 2c-17.333 0 -33.333 -2.83301 -48 -8.5s-27.334 -14.5 -38.001 -26.5s-19.167 -27.667 -25.5 -47s-9.5 -43 -9.5 -71v-75h293l4 197c0 1.33301 0.333008 2.83301 1 4.5s2 2.5 4 2.5h3v-204h167v-10h-167v-366
c0 -16.667 2 -30.667 6 -42s9.66699 -20.666 17 -27.999s16 -12.666 26 -15.999s20.333 -5 31 -5c14 0 26.167 2.16699 36.5 6.5s19.166 9 26.499 14s13.333 9.66699 18 14s8 6.5 10 6.5c1.33301 0 2.66602 -0.666992 3.99902 -2l2 -2
c-5.33301 -6.66699 -11.5 -12.834 -18.5 -18.501s-14.833 -10.667 -23.5 -15s-17.667 -7.66602 -27 -9.99902s-18.666 -3.5 -27.999 -3.5c-28.667 0 -51.167 7.83301 -67.5 23.5s-24.5 41.5 -24.5 77.5v366h-293v-459h-12v459h-283v-459h-12z" />
    <glyph glyph-name="t_f.liga" unicode="tf" horiz-adv-x="652" 
d="M439 0l0.00195312 458.999h-307v-366c0 -16.667 2 -30.667 6 -42s9.66699 -20.666 17 -27.999s15.833 -12.666 25.5 -15.999c10.333 -3.33301 20.833 -5 31.5 -5c14 0 26.167 2.16699 36.5 6.5s19.166 9 26.499 14s13.333 9.66699 18 14s7.66699 6.5 9 6.5
s2.66602 -0.666992 3.99902 -2l2 -2c-5.33301 -6.66699 -11.333 -12.834 -18 -18.501s-14.334 -10.667 -23.001 -15s-17.667 -7.66602 -27 -9.99902s-18.666 -3.5 -27.999 -3.5c-28.667 0 -51.167 7.83301 -67.5 23.5s-24.5 41.5 -24.5 77.5v366h-82c-4 0 -6 1.66699 -6 5v3
l88 2l4 197c0 1.33301 0.333008 2.83301 1 4.5s1.66699 2.5 3 2.5h4v-204h307v75c0 28 3.33301 52.333 10 73s15.834 37.667 27.501 51s25.667 23.166 42 29.499c15.667 6.33301 33.5 9.5 53.5 9.5c9.33301 0 19.333 -0.833008 30 -2.5s19.334 -4.5 26.001 -8.5v-4
c-0.666992 -2.66699 -2.16699 -3.66699 -4.5 -3s-5.5 1.5 -9.5 2.5s-9.33301 2.16699 -16 3.5s-15.334 2 -26.001 2c-17.333 0 -33.333 -2.83301 -48 -8.5s-27.334 -14.5 -38.001 -26.5s-19.167 -27.667 -25.5 -47s-9.5 -43 -9.5 -71v-75h175v-10h-175v-459h-12z" />
    <glyph glyph-name="t_iogonek.liga" unicode="t&#x12f;" horiz-adv-x="551" 
d="M512 -135c1.33301 0 2.66797 -0.667969 4.00098 -2.00098l4 -3c-8.66699 -8.66699 -19.5 -15.334 -32.5 -20.001s-26.833 -7 -41.5 -7c-22 0 -40.167 5.83301 -54.5 17.5s-21.5 28.834 -21.5 51.501c0 11.333 2.16699 22.166 6.5 32.499s10 19.666 17 27.999
s14.833 16 23.5 23s17 13.167 25 18.5v455h-312v-366c0 -16.667 2 -30.667 6 -42s9.66699 -20.666 17 -27.999s15.833 -12.666 25.5 -15.999c10.333 -3.33301 20.833 -5 31.5 -5c14 0 26.167 2.16699 36.5 6.5s19.166 9 26.499 14s13.333 9.66699 18 14s7.66699 6.5 9 6.5
s2.66602 -0.666992 3.99902 -2l2 -2c-5.33301 -6.66699 -11.333 -12.834 -18 -18.501s-14.334 -10.667 -23.001 -15s-17.667 -7.66602 -27 -9.99902s-18.666 -3.5 -27.999 -3.5c-28.667 0 -51.167 7.83301 -67.5 23.5s-24.5 41.5 -24.5 77.5v366h-82c-4 0 -6 1.66699 -6 5v3
l88 2l4 197c0 1.33301 0.333008 2.83301 1 4.5s1.66699 2.5 3 2.5h4v-204h324v-469c-6.66699 -4 -14.334 -9 -23.001 -15s-16.667 -13.167 -24 -21.5s-13.666 -17.666 -18.999 -27.999s-8 -21.5 -8 -33.5c0 -18.667 6.5 -33.167 19.5 -43.5
c13.667 -10.333 29.834 -15.5 48.501 -15.5c10.667 0 19.667 1.16699 27 3.5s13.5 4.83301 18.5 7.5s9 5.16699 12 7.5s5.16699 3.5 6.5 3.5zM476.002 671.999c0 -6.66699 -3 -12.834 -9 -18.501s-12.333 -8.5 -19 -8.5c-8 0 -14.667 2.83301 -20 8.5s-8 11.834 -8 18.501
c0 8 2.66699 14.667 8 20s12 8 20 8c6.66699 0 13 -2.66699 19 -8s9 -12 9 -20z" />
    <glyph glyph-name="t_dotlessi.liga" unicode="t&#x131;" horiz-adv-x="553" 
d="M456 469l0.00195312 -469.002h-12v459h-312v-366c0 -16.667 2 -30.667 6 -42s9.66699 -20.666 17 -27.999s15.833 -12.666 25.5 -15.999c10.333 -3.33301 20.833 -5 31.5 -5c14 0 26.167 2.16699 36.5 6.5s19.166 9 26.499 14s13.333 9.66699 18 14s7.66699 6.5 9 6.5
s2.66602 -0.666992 3.99902 -2l2 -2c-5.33301 -6.66699 -11.333 -12.834 -18 -18.501s-14.334 -10.667 -23.001 -15s-17.667 -7.66602 -27 -9.99902s-18.666 -3.5 -27.999 -3.5c-28.667 0 -51.167 7.83301 -67.5 23.5s-24.5 41.5 -24.5 77.5v366h-82c-4 0 -6 1.66699 -6 5v3
l88 2l4 197c0 1.33301 0.333008 2.83301 1 4.5s1.66699 2.5 3 2.5h4v-204h324z" />
    <glyph glyph-name="t_t.liga" unicode="tt" horiz-adv-x="638" 
d="M212 -8c-28.667 0 -51.1602 7.8291 -67.4932 23.4961s-24.5 41.5 -24.5 77.5v366h-82c-4 0 -6 1.66699 -6 5v3l88 2l4 197c0 1.33301 0.333008 2.83301 1 4.5s1.66699 2.5 3 2.5h4v-204h297l4 197c0 1.33301 0.5 2.83301 1.5 4.5s2.16699 2.5 3.5 2.5h3v-204h167v-10
h-167v-366c0 -16.667 2.16699 -30.667 6.5 -42s10.166 -20.666 17.499 -27.999s15.666 -12.666 24.999 -15.999s19.666 -5 30.999 -5c14 0 26.333 2.16699 37 6.5s19.667 9 27 14s13.166 9.66699 17.499 14s7.5 6.5 9.5 6.5c1.33301 0 2.66602 -0.666992 3.99902 -2l2 -2
c-5.33301 -6.66699 -11.5 -12.834 -18.5 -18.501s-14.667 -10.667 -23 -15s-17.333 -7.66602 -27 -9.99902s-19.167 -3.5 -28.5 -3.5c-28.667 0 -51.167 7.83301 -67.5 23.5s-24.5 41.5 -24.5 77.5v366h-297v-366c0 -16.667 2 -30.667 6 -42s9.66699 -20.666 17 -27.999
s15.833 -12.666 25.5 -15.999c10.333 -3.33301 20.833 -5 31.5 -5c14 0 26.167 2.16699 36.5 6.5s19.166 9 26.499 14s13.333 9.66699 18 14s7.66699 6.5 9 6.5s2.66602 -0.666992 3.99902 -2l2 -2c-5.33301 -6.66699 -11.333 -12.834 -18 -18.501
s-14.334 -10.667 -23.001 -15s-17.667 -7.66602 -27 -9.99902s-18.666 -3.5 -27.999 -3.5z" />
    <glyph glyph-name="t_t_f.liga" unicode="ttf" horiz-adv-x="962" 
d="M748 0l0.00585938 458.997h-307v-366c0 -16.667 2.16699 -30.667 6.5 -42s10.166 -20.666 17.499 -27.999s15.666 -12.666 24.999 -15.999s19.666 -5 30.999 -5c14 0 26.333 2.16699 37 6.5s19.667 9 27 14s13.166 9.66699 17.499 14s7.5 6.5 9.5 6.5
c1.33301 0 2.66602 -0.666992 3.99902 -2l2 -2c-5.33301 -6.66699 -11.5 -12.834 -18.5 -18.501s-14.667 -10.667 -23 -15s-17.333 -7.66602 -27 -9.99902s-19.167 -3.5 -28.5 -3.5c-28.667 0 -51.167 7.83301 -67.5 23.5s-24.5 41.5 -24.5 77.5v366h-297v-366
c0 -16.667 2 -30.667 6 -42s9.66699 -20.666 17 -27.999s15.833 -12.666 25.5 -15.999c10.333 -3.33301 20.833 -5 31.5 -5c14 0 26.167 2.16699 36.5 6.5s19.166 9 26.499 14s13.333 9.66699 18 14s7.66699 6.5 9 6.5s2.66602 -0.666992 3.99902 -2l2 -2
c-5.33301 -6.66699 -11.333 -12.834 -18 -18.501s-14.334 -10.667 -23.001 -15s-17.667 -7.66602 -27 -9.99902s-18.666 -3.5 -27.999 -3.5c-28.667 0 -51.167 7.83301 -67.5 23.5s-24.5 41.5 -24.5 77.5v366h-82c-4 0 -6 1.66699 -6 5v3l88 2l4 197
c0 1.33301 0.333008 2.83301 1 4.5s1.66699 2.5 3 2.5h4v-204h297l4 197c0 1.33301 0.5 2.83301 1.5 4.5s2.16699 2.5 3.5 2.5h3v-204h307v75c0 28 3.33301 52.333 10 73s16 37.667 28 51s26 23.166 42 29.499s34 9.5 54 9.5c9.33301 0 19.333 -0.833008 30 -2.5
s19.334 -4.5 26.001 -8.5l-1 -4c-0.666992 -2.66699 -2 -3.66699 -4 -3s-5 1.5 -9 2.5s-9.5 2.16699 -16.5 3.5s-15.5 2 -25.5 2c-17.333 0 -33.333 -2.83301 -48 -8.5s-27.5 -14.5 -38.5 -26.5s-19.667 -27.667 -26 -47s-9.5 -43 -9.5 -71v-75h175v-10h-175v-459h-12z" />
    <glyph glyph-name="t_t_iogonek.liga" unicode="tt&#x12f;" horiz-adv-x="851" 
d="M812 -135c1.33301 0 2.6748 -0.669922 4.00781 -2.00293l3 -3c-8.66699 -8.66699 -19.5 -15.334 -32.5 -20.001s-26.5 -7 -40.5 -7c-22 0 -40.333 5.83301 -55 17.5s-22 28.834 -22 51.501c0 11.333 2.16699 22.166 6.5 32.499s10.166 19.666 17.499 27.999
s15.166 16 23.499 23s16.5 13.167 24.5 18.5v455h-302v-366c0 -16.667 2.16699 -30.667 6.5 -42s10.166 -20.666 17.499 -27.999s15.666 -12.666 24.999 -15.999s19.666 -5 30.999 -5c14 0 26.333 2.16699 37 6.5s19.667 9 27 14s13.166 9.66699 17.499 14s7.5 6.5 9.5 6.5
c1.33301 0 2.66602 -0.666992 3.99902 -2l2 -2c-5.33301 -6.66699 -11.5 -12.834 -18.5 -18.501s-14.667 -10.667 -23 -15s-17.333 -7.66602 -27 -9.99902s-19.167 -3.5 -28.5 -3.5c-28.667 0 -51.167 7.83301 -67.5 23.5s-24.5 41.5 -24.5 77.5v366h-297v-366
c0 -16.667 2 -30.667 6 -42s9.66699 -20.666 17 -27.999s15.833 -12.666 25.5 -15.999c10.333 -3.33301 20.833 -5 31.5 -5c14 0 26.167 2.16699 36.5 6.5s19.166 9 26.499 14s13.333 9.66699 18 14s7.66699 6.5 9 6.5s2.66602 -0.666992 3.99902 -2l2 -2
c-5.33301 -6.66699 -11.333 -12.834 -18 -18.501s-14.334 -10.667 -23.001 -15s-17.667 -7.66602 -27 -9.99902s-18.666 -3.5 -27.999 -3.5c-28.667 0 -51.167 7.83301 -67.5 23.5s-24.5 41.5 -24.5 77.5v366h-82c-4 0 -6 1.66699 -6 5v3l88 2l4 197
c0 1.33301 0.333008 2.83301 1 4.5s1.66699 2.5 3 2.5h4v-204h297l4 197c0 1.33301 0.5 2.83301 1.5 4.5s2.16699 2.5 3.5 2.5h3v-204h314v-469c-6.66699 -4 -14.167 -9 -22.5 -15s-16.333 -13.167 -24 -21.5s-14 -17.666 -19 -27.999s-7.5 -21.5 -7.5 -33.5
c0 -18.667 6.33301 -33.167 19 -43.5s28.667 -15.5 48 -15.5c10.667 0 19.834 1.16699 27.501 3.5s13.834 4.83301 18.501 7.5s8.66699 5.16699 12 7.5s5.66602 3.5 6.99902 3.5zM775.009 671.997c0 -6.66699 -2.83301 -12.834 -8.5 -18.501s-12.167 -8.5 -19.5 -8.5
c-8 0 -14.667 2.83301 -20 8.5s-8 11.834 -8 18.501c0 8 2.83301 14.667 8.5 20s12.167 8 19.5 8c6.66699 0 13 -2.66699 19 -8s9 -12 9 -20z" />
    <glyph glyph-name="t_t_dotlessi.liga" unicode="tt&#x131;" horiz-adv-x="853" 
d="M755 469l0.00683594 -469.004h-12v459h-302v-366c0 -16.667 2.16699 -30.667 6.5 -42s10.166 -20.666 17.499 -27.999s15.666 -12.666 24.999 -15.999s19.666 -5 30.999 -5c14 0 26.333 2.16699 37 6.5s19.667 9 27 14s13.166 9.66699 17.499 14s7.5 6.5 9.5 6.5
c1.33301 0 2.66602 -0.666992 3.99902 -2l2 -2c-5.33301 -6.66699 -11.5 -12.834 -18.5 -18.501s-14.667 -10.667 -23 -15s-17.333 -7.66602 -27 -9.99902s-19.167 -3.5 -28.5 -3.5c-28.667 0 -51.167 7.83301 -67.5 23.5s-24.5 41.5 -24.5 77.5v366h-297v-366
c0 -16.667 2 -30.667 6 -42s9.66699 -20.666 17 -27.999s15.833 -12.666 25.5 -15.999c10.333 -3.33301 20.833 -5 31.5 -5c14 0 26.167 2.16699 36.5 6.5s19.166 9 26.499 14s13.333 9.66699 18 14s7.66699 6.5 9 6.5s2.66602 -0.666992 3.99902 -2l2 -2
c-5.33301 -6.66699 -11.333 -12.834 -18 -18.501s-14.334 -10.667 -23.001 -15s-17.667 -7.66602 -27 -9.99902s-18.666 -3.5 -27.999 -3.5c-28.667 0 -51.167 7.83301 -67.5 23.5s-24.5 41.5 -24.5 77.5v366h-82c-4 0 -6 1.66699 -6 5v3l88 2l4 197
c0 1.33301 0.333008 2.83301 1 4.5s1.66699 2.5 3 2.5h4v-204h297l4 197c0 1.33301 0.5 2.83301 1.5 4.5s2.16699 2.5 3.5 2.5h3v-204h314z" />
    <glyph glyph-name="f_uni01D0.liga" unicode="f&#x1d0;" horiz-adv-x="509" 
d="M120 0l0.00292969 459l-82 2c-4 0 -6 1.33301 -6 4v4h88v85c0 28 2.83301 52 8.5 72s13.667 36.333 24 49s22.5 22 36.5 28s30 9 48 9c5.33301 0 10.166 -0.333008 14.499 -1s8.16602 -1 11.499 -1v-6c0 -2.66699 -1.83301 -3.66699 -5.5 -3s-10.834 1 -21.501 1
c-32.667 0 -58.167 -11.833 -76.5 -35.5s-27.5 -61.167 -27.5 -112.5v-85h279v-469h-12v459h-267v-459h-12zM410.003 585h-8.00195l-106 115h8c2.66699 0 5.33398 -1.33301 8.00098 -4l90 -98l4 -4l2 4l90 98c2.66699 2.66699 5.33398 4 8.00098 4h10z" />
    <glyph glyph-name="f_uni0209.liga" unicode="f&#x209;" horiz-adv-x="509" 
d="M252 712c4 0 8.33203 -0.998047 12.999 -2.99805s9.33398 -6 14.001 -12l92 -118h-7c-4 0 -6.66699 1.33301 -8 4l-106 119c-38.667 -0.666992 -68 -12.834 -88 -36.501s-30 -60.834 -30 -111.501v-85h279v-469h-12v459h-267v-459h-12v459l-82 2c-4 0 -6 1.33301 -6 4v4
h88v85c0 28 3 52 9 72s14.833 36.333 26.5 49s25.667 22 42 28s34.5 9 54.5 9zM373.999 708.002c5.33301 0 9.33301 -0.666992 12 -2s5.66699 -4.33301 9 -9l82 -118h-7c-4 0 -6.66699 1.33301 -8 4l-99 125h11z" />
    <glyph glyph-name="f_uni020B.liga" unicode="f&#x20b;" horiz-adv-x="509" 
d="M120 0l0.00292969 459l-82 2c-4 0 -6 1.33301 -6 4v4h88v85c0 28 2.83301 52 8.5 72s13.667 36.333 24 49s22.5 22 36.5 28s30 9 48 9c5.33301 0 10.166 -0.333008 14.499 -1s8.16602 -1 11.499 -1v-6c0 -2.66699 -1.83301 -3.66699 -5.5 -3s-10.834 1 -21.501 1
c-32.667 0 -58.167 -11.833 -76.5 -35.5s-27.5 -61.167 -27.5 -112.5v-85h279v-469h-12v459h-267v-459h-12zM405.003 705c18.667 0 34.6631 -3 47.9961 -9s24.166 -14.167 32.499 -24.5s14.5 -22.5 18.5 -36.5s6 -28.667 6 -44h-10c0 13.333 -1.66699 26.333 -5 39
s-8.66602 23.834 -15.999 33.501s-17.166 17.334 -29.499 23.001s-27.166 8.5 -44.499 8.5s-32.166 -2.83301 -44.499 -8.5s-22.166 -13.334 -29.499 -23.001s-12.666 -20.834 -15.999 -33.501s-5 -25.667 -5 -39h-10c0 15.333 2 30 6 44s10.167 26.167 18.5 36.5
s19.166 18.5 32.499 24.5s29.333 9 48 9z" />
    <glyph glyph-name="f_uni1E2F.liga" unicode="f&#x1e2f;" horiz-adv-x="509" 
d="M358 599c0 -6.66699 -2.83301 -12.832 -8.5 -18.499c-6.33301 -5.66699 -12.833 -8.5 -19.5 -8.5c-8 0 -14.667 2.66699 -20 8s-8 11.666 -8 18.999c0 8 2.83301 14.667 8.5 20c5 5.33301 11.5 8 19.5 8c6.66699 0 13 -2.66699 19 -8s9 -12 9 -20zM502 599.002
c0 -6.66699 -2.83301 -12.832 -8.5 -18.499c-6.33301 -5.66699 -12.833 -8.5 -19.5 -8.5c-8 0 -14.667 2.66699 -20 8s-8 11.666 -8 18.999c0 8 2.83301 14.667 8.5 20c5 5.33301 11.5 8 19.5 8c6.66699 0 13 -2.66699 19 -8s9 -12 9 -20zM504 784.004l-99.999 -126.001
c-2.66699 -2.66699 -5.33398 -4 -8.00098 -4h-8l82 118c2.66699 4.66699 5.5 7.83398 8.5 9.50098c3.66699 1.66699 8.16699 2.5 13.5 2.5h12zM120.001 0.00292969l0.00292969 459l-82 2c-4 0 -6 1.33301 -6 4v4h88v85c0 28 2.83301 52 8.5 72s13.667 36.333 24 49
s22.5 22 36.5 28s30 9 48 9c5.33301 0 10.166 -0.333008 14.499 -1s8.16602 -1 11.499 -1v-6c0 -2.66699 -1.83301 -3.66699 -5.5 -3s-10.834 1 -21.501 1c-32.667 0 -58.167 -11.833 -76.5 -35.5s-27.5 -61.167 -27.5 -112.5v-85h279v-469h-12v459h-267v-459h-12z" />
    <glyph glyph-name="f_f_uni01D0.liga" unicode="ff&#x1d0;" horiz-adv-x="804" 
d="M120 0l0.00292969 459.003l-82 2c-4 0 -6 1.33301 -6 4v4h88v70c0 28 3.33301 52.167 10 72.5s15.834 37.166 27.501 50.499s25.667 23.333 42 30s34.5 10 54.5 10c9.33301 0 19.166 -1 29.499 -3c11 -2 19.833 -4.66699 26.5 -8l-2 -4
c-0.666992 -2.66699 -1.83398 -3.83398 -3.50098 -3.50098s-4.66699 1.16602 -9 2.49902s-10 2.66602 -17 3.99902s-15.167 2 -24.5 2c-17.333 0 -33.5 -2.66699 -48.5 -8s-28 -14.166 -39 -26.499s-19.5 -28.333 -25.5 -48s-9 -43.167 -9 -70.5v-70h283v85
c0 28 2.83301 52 8.5 72s13.5 36.333 23.5 49s22.333 22 37 28s30.667 9 48 9c5.33301 0 10.166 -0.333008 14.499 -1s8.16602 -1 11.499 -1v-6c0 -2.66699 -2 -3.66699 -6 -3s-11.333 1 -22 1c-32.667 0 -58 -11.833 -76 -35.5s-27 -61.167 -27 -112.5v-85h279v-469h-12
v459h-267v-459h-12v459h-283v-459h-12zM704.003 585.003h-8.00195l-106 115h9c1.33301 0 2.83301 -0.333008 4.5 -1s2.83398 -1.66699 3.50098 -3l90 -98l3 -4l3 4l90 98c2.66699 2.66699 5.33398 4 8.00098 4h9z" />
    <glyph glyph-name="f_f_uni0209.liga" unicode="ff&#x209;" horiz-adv-x="804" 
d="M694 0l0.00195312 459.005h-267v-459h-12v459h-283v-459h-12v459l-82 2c-4 0 -6 1.33301 -6 4v4h88v70c0 28 3.33301 52.167 10 72.5s15.834 37.166 27.501 50.499s25.667 23.333 42 30s34.5 10 54.5 10c9.33301 0 19.166 -1 29.499 -3c11 -2 19.833 -4.66699 26.5 -8
l-2 -4c-0.666992 -2.66699 -1.83398 -3.83398 -3.50098 -3.50098s-4.66699 1.16602 -9 2.49902s-10 2.66602 -17 3.99902s-15.167 2 -24.5 2c-17.333 0 -33.5 -2.66699 -48.5 -8s-28 -14.166 -39 -26.499s-19.5 -28.333 -25.5 -48s-9 -43.167 -9 -70.5v-70h283v85
c0 28 3.16699 52 9.5 72s15.166 36.333 26.499 49s25.333 22 42 28s35.667 9 57 9c4 0 8.33301 -1 13 -3s9.33398 -6 14.001 -12l92 -118h-7c-2.66699 0 -5.33398 1.33301 -8.00098 4l-106 119c-38.667 -0.666992 -68.5 -12.834 -89.5 -36.501s-31.5 -60.834 -31.5 -111.501
v-85h279v-469h-12zM672.002 708.005c5.33301 0 9.33301 -0.666992 12 -2s5.66699 -4.33301 9 -9l82 -118h-7c-4 0 -6.66699 1.33301 -8 4l-99 125h11z" />
    <glyph glyph-name="f_f_uni020B.liga" unicode="ff&#x20b;" horiz-adv-x="804" 
d="M120 0l0.00292969 459.003l-82 2c-4 0 -6 1.33301 -6 4v4h88v70c0 28 3.33301 52.167 10 72.5s15.834 37.166 27.501 50.499s25.667 23.333 42 30s34.5 10 54.5 10c9.33301 0 19.166 -1 29.499 -3c11 -2 19.833 -4.66699 26.5 -8l-2 -4
c-0.666992 -2.66699 -1.83398 -3.83398 -3.50098 -3.50098s-4.66699 1.16602 -9 2.49902s-10 2.66602 -17 3.99902s-15.167 2 -24.5 2c-17.333 0 -33.5 -2.66699 -48.5 -8s-28 -14.166 -39 -26.499s-19.5 -28.333 -25.5 -48s-9 -43.167 -9 -70.5v-70h283v85
c0 28 2.83301 52 8.5 72s13.5 36.333 23.5 49s22.333 22 37 28s30.667 9 48 9c5.33301 0 10.166 -0.333008 14.499 -1s8.16602 -1 11.499 -1v-6c0 -2.66699 -2 -3.66699 -6 -3s-11.333 1 -22 1c-32.667 0 -58 -11.833 -76 -35.5s-27 -61.167 -27 -112.5v-85h279v-469h-12
v459h-267v-459h-12v459h-283v-459h-12zM701.003 705.003c18.667 0 34.6631 -3 47.9961 -9s24.166 -14.167 32.499 -24.5s14.5 -22.5 18.5 -36.5s6 -28.667 6 -44h-10c0 13.333 -1.66699 26.333 -5 39s-8.66602 23.834 -15.999 33.501s-17.166 17.334 -29.499 23.001
s-27.166 8.5 -44.499 8.5s-32.166 -2.83301 -44.499 -8.5s-22.166 -13.334 -29.499 -23.001s-12.666 -20.834 -15.999 -33.501s-5 -25.667 -5 -39h-10c0 15.333 2 30 6 44s10.167 26.167 18.5 36.5s19.166 18.5 32.499 24.5s29.333 9 48 9z" />
    <glyph glyph-name="f_f_uni1E2F.liga" unicode="ff&#x1e2f;" horiz-adv-x="804" 
d="M694 0l0.00292969 459.003h-267v-459h-12v459h-283v-459h-12v459l-82 2c-4 0 -6 1.33301 -6 4v4h88v70c0 28 3.33301 52.167 10 72.5s15.834 37.166 27.501 50.499s25.667 23.333 42 30s34.5 10 54.5 10c9.33301 0 19.166 -1 29.499 -3c11 -2 19.833 -4.66699 26.5 -8
l-2 -4c-0.666992 -2.66699 -1.83398 -3.83398 -3.50098 -3.50098s-4.66699 1.16602 -9 2.49902s-10 2.66602 -17 3.99902s-15.167 2 -24.5 2c-17.333 0 -33.5 -2.66699 -48.5 -8s-28 -14.166 -39 -26.499s-19.5 -28.333 -25.5 -48s-9 -43.167 -9 -70.5v-70h283v85
c0 28 2.83301 52 8.5 72s13.5 36.333 23.5 49s22.333 22 37 28s30.667 9 48 9c5.33301 0 10.166 -0.333008 14.499 -1s8.16602 -1 11.499 -1v-6c0 -2.66699 -2 -3.66699 -6 -3s-11.333 1 -22 1c-32.667 0 -58 -11.833 -76 -35.5s-27 -61.167 -27 -112.5v-85h279v-469h-12z
M802.003 784.003l-101 -126.001c-2.66699 -2.66699 -5.33398 -4 -8.00098 -4h-7l82 118c2.66699 4.66699 5.33398 7.83398 8.00098 9.50098s7 2.5 13 2.5h13zM656.003 599.002c0 -6.66699 -3 -12.832 -9 -18.499s-12.333 -8.5 -19 -8.5c-8 0 -14.667 2.66699 -20 8
s-8 11.666 -8 18.999c0 8 2.66699 14.667 8 20s12 8 20 8c6.66699 0 13 -2.66699 19 -8s9 -12 9 -20zM800.003 599.004c0 -6.66699 -3 -12.832 -9 -18.499s-12.333 -8.5 -19 -8.5c-8 0 -14.667 2.66699 -20 8s-8 11.666 -8 18.999c0 8 2.66699 14.667 8 20s12 8 20 8
c6.66699 0 13 -2.66699 19 -8s9 -12 9 -20z" />
    <glyph glyph-name="f_uni0237.liga" unicode="f&#x237;" horiz-adv-x="509" 
d="M120 0l0.000976562 459l-82 2c-4 0 -6 1.33301 -6 4v4h88v85c0 28 2.83301 52 8.5 72s13.667 36.333 24 49s22.5 22 36.5 28s30 9 48 9c5.33301 0 10.166 -0.333008 14.499 -1s8.16602 -1 11.499 -1v-6c0 -2.66699 -1.83301 -3.66699 -5.5 -3s-10.834 1 -21.501 1
c-32.667 0 -58.167 -11.833 -76.5 -35.5s-27.5 -61.167 -27.5 -112.5v-85h279v-555c0 -14.667 -2.33301 -28.167 -7 -40.5s-11.167 -23 -19.5 -32s-18.5 -16 -30.5 -21s-25.667 -7.5 -41 -7.5c-9.33301 0 -17.166 0.833008 -23.499 2.5s-12.5 4.5 -18.5 8.5l2 4
c1.33301 2.66699 2.83301 4 4.5 4s4 -0.666992 7 -2s6.83301 -2.83301 11.5 -4.5s10.334 -2.5 17.001 -2.5c28 0 49.333 8.5 64 25.5s22 38.833 22 65.5v545h-267v-459h-12z" />
    <glyph glyph-name="f_f_uni0237.liga" unicode="ff&#x237;" horiz-adv-x="804" 
d="M706 -86c0 -14.667 -2.33105 -28.1641 -6.99805 -40.4971s-11.334 -23 -20.001 -32s-19 -16 -31 -21s-25.333 -7.5 -40 -7.5c-9.33301 0 -17.166 0.833008 -23.499 2.5s-12.5 4.5 -18.5 8.5l2 4c1.33301 2.66699 2.83301 4 4.5 4s4 -0.666992 7 -2
s6.83301 -2.83301 11.5 -4.5s10.334 -2.5 17.001 -2.5c28 0 49.333 8.5 64 25.5s22 38.833 22 65.5v545h-267v-459h-12v459h-283v-459h-12v459l-82 2c-4 0 -6 1.33301 -6 4v4h88v70c0 28 3.33301 52.167 10 72.5s15.834 37.166 27.501 50.499s25.667 23.333 42 30
s34.5 10 54.5 10c9.33301 0 19.166 -1 29.499 -3c11 -2 19.833 -4.66699 26.5 -8l-2 -4c-0.666992 -2.66699 -1.83398 -3.83398 -3.50098 -3.50098s-4.66699 1.16602 -9 2.49902s-10 2.66602 -17 3.99902s-15.167 2 -24.5 2c-17.333 0 -33.5 -2.66699 -48.5 -8
s-28 -14.166 -39 -26.499s-19.5 -28.333 -25.5 -48s-9 -43.167 -9 -70.5v-70h283v85c0 28 2.83301 52 8.5 72s13.5 36.333 23.5 49s22.333 22 37 28s30.667 9 48 9c5.33301 0 10.166 -0.333008 14.499 -1s8.16602 -1 11.499 -1v-6c0 -2.66699 -2 -3.66699 -6 -3
s-11.333 1 -22 1c-32.667 0 -58 -11.833 -76 -35.5s-27 -61.167 -27 -112.5v-85h279v-555v0z" />
    <glyph glyph-name="f_jcircumflex.liga" unicode="f&#x135;" horiz-adv-x="509" 
d="M120 0l0.000976562 459l-82 2c-4 0 -6 1.33301 -6 4v4h88v85c0 28 2.83301 52 8.5 72s13.667 36.333 24 49s22.5 22 36.5 28s30 9 48 9c5.33301 0 10.166 -0.333008 14.499 -1s8.16602 -1 11.499 -1v-6c0 -2.66699 -1.83301 -3.66699 -5.5 -3s-10.834 1 -21.501 1
c-32.667 0 -58.167 -11.833 -76.5 -35.5s-27.5 -61.167 -27.5 -112.5v-85h279v-555c0 -14.667 -2.33301 -28.167 -7 -40.5s-11.167 -23 -19.5 -32s-18.5 -16 -30.5 -21s-25.667 -7.5 -41 -7.5c-9.33301 0 -17.166 0.833008 -23.499 2.5s-12.5 4.5 -18.5 8.5l2 4
c1.33301 2.66699 2.83301 4 4.5 4s4 -0.666992 7 -2s6.83301 -2.83301 11.5 -4.5s10.334 -2.5 17.001 -2.5c28 0 49.333 8.5 64 25.5s22 38.833 22 65.5v545h-267v-459h-12zM516.001 585h-8.99902c-2.66699 0 -5.33398 1.33301 -8.00098 4l-90 98l-3 3l-3 -3l-90 -98
c-1.33301 -1.33301 -2.5 -2.33301 -3.5 -3s-2.5 -1 -4.5 -1h-9l106 115h8z" />
    <glyph glyph-name="f_lcaron.liga" unicode="f&#x13e;" horiz-adv-x="539" 
d="M120 0l-0.000976562 459l-82 2c-4 0 -6 1.33301 -6 4v4h88v38c0 30.667 4.33301 58.5 13 83.5s21.167 46.5 37.5 64.5s36.333 31.833 60 41.5s50.5 14.5 80.5 14.5c22 0 43.667 -1.16699 65 -3.5s41 -3.5 59 -3.5h6v-704h-12v696c-17.333 0 -36.5 0.833008 -57.5 2.5
s-41.167 2.5 -60.5 2.5c-28 0 -53.167 -4.5 -75.5 -13.5s-41.166 -22 -56.499 -39s-27 -37.5 -35 -61.5s-12 -50.667 -12 -80v-38h155v-10h-155v-459h-12zM548.999 721c5.33301 0 8.00195 -3.66699 8.00195 -11c0 -4 -0.666992 -9 -2 -15s-3 -14 -5 -24
s-4.66699 -21.667 -8 -35s-7 -29.333 -11 -48c-0.666992 -2 -1.33398 -3.66699 -2.00098 -5s-2.33398 -2 -5.00098 -2h-3l23 140h5z" />
    <glyph glyph-name="f_uni013C.liga" unicode="f&#x13c;" horiz-adv-x="539" 
d="M120 0l-0.000976562 459l-82 2c-4 0 -6 1.33301 -6 4v4h88v38c0 30.667 4.33301 58.5 13 83.5s21.167 46.5 37.5 64.5s36.333 31.833 60 41.5s50.5 14.5 80.5 14.5c22 0 43.667 -1.16699 65 -3.5s41 -3.5 59 -3.5h6v-704h-12v696c-17.333 0 -36.5 0.833008 -57.5 2.5
s-41.167 2.5 -60.5 2.5c-28 0 -53.167 -4.5 -75.5 -13.5s-41.166 -22 -56.499 -39s-27 -37.5 -35 -61.5s-12 -50.667 -12 -80v-38h155v-10h-155v-459h-12zM434.999 -55c5.33301 0 8.00195 -3.66699 8.00195 -11c0 -4 -0.5 -9 -1.5 -15s-2.66699 -14 -5 -24
s-5 -21.667 -8 -35s-6.83301 -29.333 -11.5 -48c-0.666992 -2 -1.33398 -3.66699 -2.00098 -5s-2.33398 -2 -5.00098 -2h-3l23 140h5z" />
    <glyph glyph-name="f_uni021B.liga" unicode="f&#x21b;" horiz-adv-x="632" 
d="M436 459l0.000976562 -366.001c0 -16.667 2 -30.667 6 -42s9.66699 -20.666 17 -27.999s15.833 -12.666 25.5 -15.999c10.333 -3.33301 20.833 -5 31.5 -5c14 0 26.167 2.16699 36.5 6.5s19.166 9 26.499 14s13.333 9.66699 18 14s7.66699 6.5 9 6.5
s2.66602 -0.666992 3.99902 -2l2 -2c-5.33301 -6.66699 -11.333 -12.834 -18 -18.501s-14.334 -10.667 -23.001 -15s-17.667 -7.66602 -27 -9.99902s-18.666 -3.5 -27.999 -3.5c-28.667 0 -51.167 7.83301 -67.5 23.5s-24.5 41.5 -24.5 77.5v366h-294v-459h-12v459l-82 2
c-4 0 -6 1.33301 -6 4v4h88v75c0 28 3.33301 52.333 10 73s16 37.667 28 51s26 23.166 42 29.499s34 9.5 54 9.5c9.33301 0 19.333 -0.833008 30 -2.5s19.334 -4.5 26.001 -8.5l-1 -4c-0.666992 -2.66699 -2 -3.66699 -4 -3s-5 1.5 -9 2.5s-9.5 2.16699 -16.5 3.5
s-15.5 2 -25.5 2c-17.333 0 -33.333 -2.83301 -48 -8.5s-27.5 -14.5 -38.5 -26.5s-19.667 -27.667 -26 -47s-9.5 -43 -9.5 -71v-75h294l4 197c0 1.33301 0.333008 2.83301 1 4.5s1.66699 2.5 3 2.5h4v-204h166v-10h-166zM511.001 -55.001
c5.33301 0 8.00195 -3.66699 8.00195 -11c0 -4 -0.5 -9 -1.5 -15s-2.66699 -14 -5 -24s-5 -21.667 -8 -35s-6.83301 -29.333 -11.5 -48c-0.666992 -2 -1.33398 -3.66699 -2.00098 -5s-2.33398 -2 -5.00098 -2h-3l23 140h5z" />
    <glyph glyph-name="f_tcaron.liga" unicode="f&#x165;" horiz-adv-x="632" 
d="M436 459l0.000976562 -366.001c0 -16.667 2 -30.667 6 -42s9.66699 -20.666 17 -27.999s15.833 -12.666 25.5 -15.999c10.333 -3.33301 20.833 -5 31.5 -5c14 0 26.167 2.16699 36.5 6.5s19.166 9 26.499 14s13.333 9.66699 18 14s7.66699 6.5 9 6.5
s2.66602 -0.666992 3.99902 -2l2 -2c-5.33301 -6.66699 -11.333 -12.834 -18 -18.501s-14.334 -10.667 -23.001 -15s-17.667 -7.66602 -27 -9.99902s-18.666 -3.5 -27.999 -3.5c-28.667 0 -51.167 7.83301 -67.5 23.5s-24.5 41.5 -24.5 77.5v366h-294v-459h-12v459l-82 2
c-4 0 -6 1.33301 -6 4v4h88v75c0 28 3.33301 52.333 10 73s16 37.667 28 51s26 23.166 42 29.499s34 9.5 54 9.5c9.33301 0 19.333 -0.833008 30 -2.5s19.334 -4.5 26.001 -8.5l-1 -4c-0.666992 -2.66699 -2 -3.66699 -4 -3s-5 1.5 -9 2.5s-9.5 2.16699 -16.5 3.5
s-15.5 2 -25.5 2c-17.333 0 -33.333 -2.83301 -48 -8.5s-27.5 -14.5 -38.5 -26.5s-19.667 -27.667 -26 -47s-9.5 -43 -9.5 -71v-75h294l4 197c0 1.33301 0.333008 2.83301 1 4.5s1.66699 2.5 3 2.5h4v-204h166v-10h-166zM628.001 720.999
c5.33301 0 8.00195 -3.66699 8.00195 -11c0 -4 -0.666992 -9 -2 -15s-3 -14 -5 -24s-4.66699 -21.667 -8 -35s-7 -29.333 -11 -48c-0.666992 -2 -1.33398 -3.66699 -2.00098 -5s-2.33398 -2 -5.00098 -2h-3l23 140h5z" />
    <glyph glyph-name="f_uni1ECB.liga" unicode="f&#x1ecb;" horiz-adv-x="509" 
d="M120 0l0.00195312 459l-82 2c-4 0 -6 1.33301 -6 4v4h88v55c0 30.667 4.33301 57.667 13 81s20.667 43 36 59s33.666 28 54.999 36s44.666 12 69.999 12c9.33301 0 19.333 -1 30 -3s19.334 -4.66699 26.001 -8l-1 -4c-0.666992 -2 -2 -2.83301 -4 -2.5s-5 1 -9 2
s-9.33301 2.16699 -16 3.5s-15.334 2 -26.001 2c-24 0 -45.667 -3.66699 -65 -11s-36.333 -18.333 -51 -33s-26 -33 -34 -55s-12 -48.333 -12 -79v-55h279v-469h-12v459h-267v-459h-12zM433.002 -136c0 -6.66699 -3 -13 -9 -19s-12.333 -9 -19 -9
c-8 0 -14.667 2.83301 -20 8.5c-5.33301 6.33301 -8 12.833 -8 19.5c0 8 2.66699 14.667 8 20s12 8 20 8c6.66699 0 13 -2.66699 19 -8s9 -12 9 -20z" />
    <glyph glyph-name="f_uni1E2D.liga" unicode="f&#x1e2d;" horiz-adv-x="509" 
d="M120 0l0.00195312 459l-82 2c-4 0 -6 1.33301 -6 4v4h88v55c0 30.667 4.33301 57.667 13 81s20.667 43 36 59s33.666 28 54.999 36s44.666 12 69.999 12c9.33301 0 19.333 -1 30 -3s19.334 -4.66699 26.001 -8l-1 -4c-0.666992 -2 -2 -2.83301 -4 -2.5s-5 1 -9 2
s-9.33301 2.16699 -16 3.5s-15.334 2 -26.001 2c-24 0 -45.667 -3.66699 -65 -11s-36.333 -18.333 -51 -33s-26 -33 -34 -55s-12 -48.333 -12 -79v-55h279v-469h-12v459h-267v-459h-12zM459.002 -120c16.667 0 28.9971 5.5 36.9971 16.5s12.333 24.5 13 40.5h8
c0 -9.33301 -1.16699 -18 -3.5 -26s-5.83301 -15 -10.5 -21s-10.667 -10.833 -18 -14.5s-16 -5.5 -26 -5.5c-10.667 0 -20.667 3 -30 9s-18.5 12.667 -27.5 20s-17.833 14 -26.5 20s-18 9 -28 9c-8 0 -15.167 -1.5 -21.5 -4.5s-11.5 -7.16699 -15.5 -12.5s-7 -11.333 -9 -18
s-3.33301 -14 -4 -22h-9c0 9.33301 1.33301 18 4 26s6.33398 15 11.001 21s10.667 10.833 18 14.5s16 5.5 26 5.5c10.667 0 20.834 -3 30.501 -9s18.834 -12.667 27.501 -20s17.5 -14 26.5 -20s18.167 -9 27.5 -9z" />
    <glyph glyph-name="f_uni0268.liga" unicode="f&#x268;" horiz-adv-x="523" 
d="M399 272l0.00195312 187h-267v-459h-12v459l-82 2c-4 0 -6 1.33301 -6 4v4h88v55c0 30.667 4.33301 57.667 13 81s20.667 43 36 59s33.666 28 54.999 36s44.666 12 69.999 12c9.33301 0 19.333 -1 30 -3s19.334 -4.66699 26.001 -8l-1 -4
c-0.666992 -2 -2 -2.83301 -4 -2.5s-5 1 -9 2s-9.33301 2.16699 -16 3.5s-15.334 2 -26.001 2c-24 0 -45.667 -3.66699 -65 -11s-36.333 -18.333 -51 -33s-26 -33 -34 -55s-12 -48.333 -12 -79v-55h279v-197h89v-10h-89v-262h-12v262h-95v10h95z" />
    <glyph glyph-name="f_iacute.liga" unicode="f&#xed;" horiz-adv-x="509" 
d="M120 0l0.00292969 459l-82 2c-4 0 -6 1.33301 -6 4v4h88v85c0 28 2.83301 52 8.5 72s13.667 36.333 24 49s22.5 22 36.5 28s30 9 48 9c5.33301 0 10.166 -0.333008 14.499 -1s8.16602 -1 11.499 -1v-6c0 -2.66699 -1.83301 -3.66699 -5.5 -3s-10.834 1 -21.501 1
c-32.667 0 -58.167 -11.833 -76.5 -35.5s-27.5 -61.167 -27.5 -112.5v-85h279v-469h-12v459h-267v-459h-12zM488.003 708l-101.001 -125c-1.33301 -2.66699 -4 -4 -8 -4h-7l82 118c2.66699 4.66699 5.33398 7.66699 8.00098 9s7 2 13 2h13z" />
    <glyph glyph-name="f_uni1EC9.liga" unicode="f&#x1ec9;" horiz-adv-x="509" 
d="M120 0l0.00292969 459l-82 2c-4 0 -6 1.33301 -6 4v4h88v85c0 28 2.83301 52 8.5 72s13.667 36.333 24 49s22.5 22 36.5 28s30 9 48 9c5.33301 0 10.166 -0.333008 14.499 -1s8.16602 -1 11.499 -1v-6c0 -2.66699 -1.83301 -3.66699 -5.5 -3s-10.834 1 -21.501 1
c-32.667 0 -58.167 -11.833 -76.5 -35.5s-27.5 -61.167 -27.5 -112.5v-85h279v-469h-12v459h-267v-459h-12zM346.003 678c8 6.66699 16.3311 11.332 24.998 13.999s18.334 4 29.001 4c20.667 0 35.667 -4.66699 45 -14s14 -20.666 14 -33.999
c0 -10.667 -3.83301 -20.334 -11.5 -29.001s-21.5 -15.667 -41.5 -21l-2 -38h-8v45c18.667 2.66699 32.167 7.83398 40.5 15.501s12.5 16.834 12.5 27.501c0 4.66699 -0.833008 9.16699 -2.5 13.5s-4.5 8.5 -8.5 12.5s-9.16699 7.33301 -15.5 10s-14.166 4 -23.499 4
c-8 0 -14.5 -1 -19.5 -3s-9.33301 -3.83301 -13 -5.5s-6.5 -3.33398 -8.5 -5.00098s-3.66699 -2.5 -5 -2.5s-2.33301 0.666992 -3 2z" />
    <glyph glyph-name="f_f_uni1ECB.liga" unicode="ff&#x1ecb;" horiz-adv-x="804" 
d="M120 0l0.00585938 459.003l-82 2c-4 0 -6 1.33301 -6 4v4h88v70c0 28 3.33301 52.167 10 72.5s15.834 37.166 27.501 50.499s25.667 23.333 42 30s34.5 10 54.5 10c9.33301 0 19.166 -1 29.499 -3c11 -2 19.833 -4.66699 26.5 -8l-2 -4
c-0.666992 -2.66699 -1.83398 -3.83398 -3.50098 -3.50098s-4.66699 1.16602 -9 2.49902s-10 2.66602 -17 3.99902s-15.167 2 -24.5 2c-17.333 0 -33.5 -2.66699 -48.5 -8s-28 -14.166 -39 -26.499s-19.5 -28.333 -25.5 -48s-9 -43.167 -9 -70.5v-70h283v55
c0 30.667 4.16699 57.667 12.5 81s20.166 43 35.499 59s33.666 28 54.999 36s45 12 71 12c9.33301 0 19.166 -1 29.499 -3s19.166 -4.66699 26.499 -8l-1 -4c-0.666992 -2 -1.83398 -2.83301 -3.50098 -2.5s-4.66699 1 -9 2s-10 2.16699 -17 3.5s-15.5 2 -25.5 2
c-24 0 -45.833 -3.66699 -65.5 -11s-36.667 -18.333 -51 -33s-25.5 -33 -33.5 -55s-12 -48.333 -12 -79v-55h279v-469h-12v459h-267v-459h-12v459h-283v-459h-12zM728.006 -135.997c0 -6.66699 -3 -13 -9 -19s-12.333 -9 -19 -9c-8 0 -14.667 2.83301 -20 8.5
c-5.33301 6.33301 -8 12.833 -8 19.5c0 8 2.66699 14.667 8 20s12 8 20 8c6.66699 0 13 -2.66699 19 -8s9 -12 9 -20z" />
    <glyph glyph-name="f_f_uni1E2D.liga" unicode="ff&#x1e2d;" horiz-adv-x="804" 
d="M120 0l0.00585938 459.003l-82 2c-4 0 -6 1.33301 -6 4v4h88v70c0 28 3.33301 52.167 10 72.5s15.834 37.166 27.501 50.499s25.667 23.333 42 30s34.5 10 54.5 10c9.33301 0 19.166 -1 29.499 -3c11 -2 19.833 -4.66699 26.5 -8l-2 -4
c-0.666992 -2.66699 -1.83398 -3.83398 -3.50098 -3.50098s-4.66699 1.16602 -9 2.49902s-10 2.66602 -17 3.99902s-15.167 2 -24.5 2c-17.333 0 -33.5 -2.66699 -48.5 -8s-28 -14.166 -39 -26.499s-19.5 -28.333 -25.5 -48s-9 -43.167 -9 -70.5v-70h283v55
c0 30.667 4.16699 57.667 12.5 81s20.166 43 35.499 59s33.666 28 54.999 36s45 12 71 12c9.33301 0 19.166 -1 29.499 -3s19.166 -4.66699 26.499 -8l-1 -4c-0.666992 -2 -1.83398 -2.83301 -3.50098 -2.5s-4.66699 1 -9 2s-10 2.16699 -17 3.5s-15.5 2 -25.5 2
c-24 0 -45.833 -3.66699 -65.5 -11s-36.667 -18.333 -51 -33s-25.5 -33 -33.5 -55s-12 -48.333 -12 -79v-55h279v-469h-12v459h-267v-459h-12v459h-283v-459h-12zM754.006 -119.997c16.667 0 28.9971 5.5 36.9971 16.5s12.333 24.5 13 40.5h8
c0 -9.33301 -1.16699 -18 -3.5 -26s-5.83301 -15 -10.5 -21s-10.667 -10.833 -18 -14.5s-16 -5.5 -26 -5.5c-10.667 0 -20.667 3 -30 9s-18.5 12.667 -27.5 20s-17.833 14 -26.5 20s-18 9 -28 9c-8 0 -15.167 -1.5 -21.5 -4.5s-11.5 -7.16699 -15.5 -12.5s-7 -11.333 -9 -18
s-3.33301 -14 -4 -22h-9c0 9.33301 1.33301 18 4 26s6.33398 15 11.001 21s10.667 10.833 18 14.5s16 5.5 26 5.5c10.667 0 20.834 -3 30.501 -9s18.834 -12.667 27.501 -20s17.5 -14 26.5 -20s18.167 -9 27.5 -9z" />
    <glyph glyph-name="f_f_uni0268.liga" unicode="ff&#x268;" horiz-adv-x="818" 
d="M694 272l0.00585938 187.003h-267v-459h-12v459h-283v-459h-12v459l-82 2c-4 0 -6 1.33301 -6 4v4h88v70c0 28 3.33301 52.167 10 72.5s15.834 37.166 27.501 50.499s25.667 23.333 42 30s34.5 10 54.5 10c9.33301 0 19.166 -1 29.499 -3c11 -2 19.833 -4.66699 26.5 -8
l-2 -4c-0.666992 -2.66699 -1.83398 -3.83398 -3.50098 -3.50098s-4.66699 1.16602 -9 2.49902s-10 2.66602 -17 3.99902s-15.167 2 -24.5 2c-17.333 0 -33.5 -2.66699 -48.5 -8s-28 -14.166 -39 -26.499s-19.5 -28.333 -25.5 -48s-9 -43.167 -9 -70.5v-70h283v55
c0 30.667 4.16699 57.667 12.5 81s20.166 43 35.499 59s33.666 28 54.999 36s45 12 71 12c9.33301 0 19.166 -1 29.499 -3s19.166 -4.66699 26.499 -8l-1 -4c-0.666992 -2 -1.83398 -2.83301 -3.50098 -2.5s-4.66699 1 -9 2s-10 2.16699 -17 3.5s-15.5 2 -25.5 2
c-24 0 -45.833 -3.66699 -65.5 -11s-36.667 -18.333 -51 -33s-25.5 -33 -33.5 -55s-12 -48.333 -12 -79v-55h279v-197h90v-10h-90v-262h-12v262h-96v10h96z" />
    <glyph glyph-name="f_f_iacute.liga" unicode="ff&#xed;" horiz-adv-x="804" 
d="M694 0l0.00292969 459.003h-267v-459h-12v459h-283v-459h-12v459l-82 2c-4 0 -6 1.33301 -6 4v4h88v70c0 28 3.33301 52.167 10 72.5s15.834 37.166 27.501 50.499s25.667 23.333 42 30s34.5 10 54.5 10c9.33301 0 19.166 -1 29.499 -3c11 -2 19.833 -4.66699 26.5 -8
l-2 -4c-0.666992 -2.66699 -1.83398 -3.83398 -3.50098 -3.50098s-4.66699 1.16602 -9 2.49902s-10 2.66602 -17 3.99902s-15.167 2 -24.5 2c-17.333 0 -33.5 -2.66699 -48.5 -8s-28 -14.166 -39 -26.499s-19.5 -28.333 -25.5 -48s-9 -43.167 -9 -70.5v-70h283v85
c0 28 2.83301 52 8.5 72s13.5 36.333 23.5 49s22.333 22 37 28s30.667 9 48 9c5.33301 0 10.166 -0.333008 14.499 -1s8.16602 -1 11.499 -1v-6c0 -2.66699 -2 -3.66699 -6 -3s-11.333 1 -22 1c-32.667 0 -58 -11.833 -76 -35.5s-27 -61.167 -27 -112.5v-85h279v-469h-12z
M784.003 708.003l-101.001 -125c-1.33301 -2.66699 -4 -4 -8 -4h-7l82 118c2.66699 4.66699 5.33398 7.66699 8.00098 9s7 2 13 2h13z" />
    <glyph glyph-name="f_f_uni1EC9.liga" unicode="ff&#x1ec9;" horiz-adv-x="798" 
d="M694 0l0.00292969 459.003h-267v-459h-12v459h-283v-459h-12v459l-82 2c-4 0 -6 1.33301 -6 4v4h88v70c0 28 3.33301 52.167 10 72.5s15.834 37.166 27.501 50.499s25.667 23.333 42 30s34.5 10 54.5 10c9.33301 0 19.166 -1 29.499 -3c11 -2 19.833 -4.66699 26.5 -8
l-2 -4c-0.666992 -2.66699 -1.83398 -3.83398 -3.50098 -3.50098s-4.66699 1.16602 -9 2.49902s-10 2.66602 -17 3.99902s-15.167 2 -24.5 2c-17.333 0 -33.5 -2.66699 -48.5 -8s-28 -14.166 -39 -26.499s-19.5 -28.333 -25.5 -48s-9 -43.167 -9 -70.5v-70h283v85
c0 28 2.83301 52 8.5 72s13.5 36.333 23.5 49s22.333 22 37 28s30.667 9 48 9c5.33301 0 10.166 -0.333008 14.499 -1s8.16602 -1 11.499 -1v-6c0 -2.66699 -2 -3.66699 -6 -3s-11.333 1 -22 1c-32.667 0 -58 -11.833 -76 -35.5s-27 -61.167 -27 -112.5v-85h279v-469h-12z
M642.003 678.003c8 6.66699 16.3311 11.332 24.998 13.999s18.334 4 29.001 4c20.667 0 35.667 -4.66699 45 -14s14 -20.666 14 -33.999c0 -10.667 -3.83301 -20.334 -11.5 -29.001s-21.5 -15.667 -41.5 -21l-2 -38h-8v45c18.667 2.66699 32.167 7.83398 40.5 15.501
s12.5 16.834 12.5 27.501c0 4.66699 -0.833008 9.16699 -2.5 13.5s-4.5 8.5 -8.5 12.5s-9.16699 7.33301 -15.5 10s-14.166 4 -23.499 4c-8 0 -14.5 -1 -19.5 -3s-9.33301 -3.83301 -13 -5.5s-6.5 -3.33398 -8.5 -5.00098s-3.66699 -2.5 -5 -2.5s-2.33301 0.666992 -3 2z
" />
    <glyph glyph-name="f_lacute.liga" unicode="f&#x13a;" horiz-adv-x="539" 
d="M120 0l-0.000976562 459l-82 2c-4 0 -6 1.33301 -6 4v4h88v38c0 30.667 4.33301 58.5 13 83.5s21.167 46.5 37.5 64.5s36.333 31.833 60 41.5s50.5 14.5 80.5 14.5c22 0 43.667 -1.16699 65 -3.5s41 -3.5 59 -3.5h6v-704h-12v696c-17.333 0 -36.5 0.833008 -57.5 2.5
s-41.167 2.5 -60.5 2.5c-28 0 -53.167 -4.5 -75.5 -13.5s-41.166 -22 -56.499 -39s-27 -37.5 -35 -61.5s-12 -50.667 -12 -80v-38h155v-10h-155v-459h-12zM578.999 916l-165 -144.001c-1.33301 -1.33301 -2.83301 -2.16602 -4.5 -2.49902s-3.16699 -0.5 -4.5 -0.5h-6
l140 140c2.66699 2.66699 5.5 4.5 8.5 5.5c3.66699 1 8.16699 1.5 13.5 1.5h18z" />
    <glyph glyph-name="t_i.liga" unicode="ti" horiz-adv-x="554" 
d="M456 469l0.00195312 -469.002h-12v459h-312v-366c0 -16.667 2 -30.667 6 -42s9.66699 -20.666 17 -27.999s15.833 -12.666 25.5 -15.999c10.333 -3.33301 20.833 -5 31.5 -5c14 0 26.167 2.16699 36.5 6.5s19.166 9 26.499 14s13.333 9.66699 18 14s7.66699 6.5 9 6.5
s2.66602 -0.666992 3.99902 -2l2 -2c-5.33301 -6.66699 -11.333 -12.834 -18 -18.501s-14.334 -10.667 -23.001 -15s-17.667 -7.66602 -27 -9.99902s-18.666 -3.5 -27.999 -3.5c-28.667 0 -51.167 7.83301 -67.5 23.5s-24.5 41.5 -24.5 77.5v366h-82c-4 0 -6 1.66699 -6 5v3
l88 2l4 197c0 1.33301 0.333008 2.83301 1 4.5s1.66699 2.5 3 2.5h4v-204h324zM478.002 679.998c0 -6.66699 -3 -12.834 -9 -18.501s-12.333 -8.5 -19 -8.5c-8 0 -14.667 2.83301 -20 8.5s-8 11.834 -8 18.501c0 8 2.66699 14.667 8 20s12 8 20 8
c6.66699 0 13 -2.66699 19 -8s9 -12 9 -20z" />
    <glyph glyph-name="t_igrave.liga" unicode="t&#xec;" horiz-adv-x="554" 
d="M456 469l0.00195312 -469.002h-12v459h-312v-366c0 -16.667 2 -30.667 6 -42s9.66699 -20.666 17 -27.999s15.833 -12.666 25.5 -15.999c10.333 -3.33301 20.833 -5 31.5 -5c14 0 26.167 2.16699 36.5 6.5s19.166 9 26.499 14s13.333 9.66699 18 14s7.66699 6.5 9 6.5
s2.66602 -0.666992 3.99902 -2l2 -2c-5.33301 -6.66699 -11.333 -12.834 -18 -18.501s-14.334 -10.667 -23.001 -15s-17.667 -7.66602 -27 -9.99902s-18.666 -3.5 -27.999 -3.5c-28.667 0 -51.167 7.83301 -67.5 23.5s-24.5 41.5 -24.5 77.5v366h-82c-4 0 -6 1.66699 -6 5v3
l88 2l4 197c0 1.33301 0.333008 2.83301 1 4.5s1.66699 2.5 3 2.5h4v-204h324zM387.002 707.998c5.33301 0 9.5 -0.666992 12.5 -2s5.83301 -4.33301 8.5 -9l82 -118h-7c-4 0 -6.66699 1.33301 -8 4l-101 125h13z" />
    <glyph glyph-name="t_iacute.liga" unicode="t&#xed;" horiz-adv-x="551" 
d="M454 469l0.00195312 -469.002h-12v459h-312v-366c0 -16.667 2 -30.667 6 -42s9.66699 -20.666 17 -27.999s15.833 -12.666 25.5 -15.999c10.333 -3.33301 20.833 -5 31.5 -5c14 0 26.167 2.16699 36.5 6.5s19.166 9 26.499 14s13.333 9.66699 18 14s7.66699 6.5 9 6.5
s2.66602 -0.666992 3.99902 -2l2 -2c-5.33301 -6.66699 -11.333 -12.834 -18 -18.501s-14.334 -10.667 -23.001 -15s-17.667 -7.66602 -27 -9.99902s-18.666 -3.5 -27.999 -3.5c-28.667 0 -51.167 7.83301 -67.5 23.5s-24.5 41.5 -24.5 77.5v366h-82c-4 0 -6 1.66699 -6 5v3
l88 2l4 197c0 1.33301 0.333008 2.83301 1 4.5s1.66699 2.5 3 2.5h4v-204h324zM532.002 707.998l-101.001 -125c-1.33301 -2.66699 -4 -4 -8 -4h-7l82 118c2.66699 4.66699 5.33398 7.66699 8.00098 9s7 2 13 2h13z" />
    <glyph glyph-name="t_icircumflex.liga" unicode="t&#xee;" horiz-adv-x="553" 
d="M456 469l0.00195312 -469.002h-12v459h-312v-366c0 -16.667 2 -30.667 6 -42s9.66699 -20.666 17 -27.999s15.833 -12.666 25.5 -15.999c10.333 -3.33301 20.833 -5 31.5 -5c14 0 26.167 2.16699 36.5 6.5s19.166 9 26.499 14s13.333 9.66699 18 14s7.66699 6.5 9 6.5
s2.66602 -0.666992 3.99902 -2l2 -2c-5.33301 -6.66699 -11.333 -12.834 -18 -18.501s-14.334 -10.667 -23.001 -15s-17.667 -7.66602 -27 -9.99902s-18.666 -3.5 -27.999 -3.5c-28.667 0 -51.167 7.83301 -67.5 23.5s-24.5 41.5 -24.5 77.5v366h-82c-4 0 -6 1.66699 -6 5v3
l88 2l4 197c0 1.33301 0.333008 2.83301 1 4.5s1.66699 2.5 3 2.5h4v-204h324zM560.002 584.998h-8.99902c-2.66699 0 -5.33398 1.33301 -8.00098 4l-90 98l-3 3l-3 -3l-90 -98c-1.33301 -1.33301 -2.5 -2.33301 -3.5 -3s-2.5 -1 -4.5 -1h-9l106 115h8z" />
    <glyph glyph-name="t_idieresis.liga" unicode="t&#xef;" horiz-adv-x="553" 
d="M456 469l0.00195312 -469.002h-12v459h-312v-366c0 -16.667 2 -30.667 6 -42s9.66699 -20.666 17 -27.999s15.833 -12.666 25.5 -15.999c10.333 -3.33301 20.833 -5 31.5 -5c14 0 26.167 2.16699 36.5 6.5s19.166 9 26.499 14s13.333 9.66699 18 14s7.66699 6.5 9 6.5
s2.66602 -0.666992 3.99902 -2l2 -2c-5.33301 -6.66699 -11.333 -12.834 -18 -18.501s-14.334 -10.667 -23.001 -15s-17.667 -7.66602 -27 -9.99902s-18.666 -3.5 -27.999 -3.5c-28.667 0 -51.167 7.83301 -67.5 23.5s-24.5 41.5 -24.5 77.5v366h-82c-4 0 -6 1.66699 -6 5v3
l88 2l4 197c0 1.33301 0.333008 2.83301 1 4.5s1.66699 2.5 3 2.5h4v-204h324zM416.002 639.998c0 -6.66699 -3 -12.834 -9 -18.501s-12.333 -8.5 -19 -8.5c-8 0 -14.667 2.83301 -20 8.5s-8 11.834 -8 18.501c0 8 2.66699 14.667 8 20s12 8 20 8
c6.66699 0 13 -2.66699 19 -8s9 -12 9 -20zM540.002 639.998c0 -6.66699 -3 -12.834 -9 -18.501s-12.333 -8.5 -19 -8.5c-8 0 -14.667 2.83301 -20 8.5s-8 11.834 -8 18.501c0 8 2.66699 14.667 8 20s12 8 20 8c6.66699 0 13 -2.66699 19 -8s9 -12 9 -20z" />
    <glyph glyph-name="t_imacron.liga" unicode="t&#x12b;" horiz-adv-x="554" 
d="M456 469l0.00195312 -469.002h-12v459h-312v-366c0 -16.667 2 -30.667 6 -42s9.66699 -20.666 17 -27.999s15.833 -12.666 25.5 -15.999c10.333 -3.33301 20.833 -5 31.5 -5c14 0 26.167 2.16699 36.5 6.5s19.166 9 26.499 14s13.333 9.66699 18 14s7.66699 6.5 9 6.5
s2.66602 -0.666992 3.99902 -2l2 -2c-5.33301 -6.66699 -11.333 -12.834 -18 -18.501s-14.334 -10.667 -23.001 -15s-17.667 -7.66602 -27 -9.99902s-18.666 -3.5 -27.999 -3.5c-28.667 0 -51.167 7.83301 -67.5 23.5s-24.5 41.5 -24.5 77.5v366h-82c-4 0 -6 1.66699 -6 5v3
l88 2l4 197c0 1.33301 0.333008 2.83301 1 4.5s1.66699 2.5 3 2.5h4v-204h324zM320.002 644.998h260v-10h-260v10z" />
    <glyph glyph-name="t_itilde.liga" unicode="t&#x129;" horiz-adv-x="552" 
d="M454 469l0.00195312 -469.002h-12v459h-312v-366c0 -16.667 2 -30.667 6 -42s9.66699 -20.666 17 -27.999s15.833 -12.666 25.5 -15.999c10.333 -3.33301 20.833 -5 31.5 -5c14 0 26.167 2.16699 36.5 6.5s19.166 9 26.499 14s13.333 9.66699 18 14s7.66699 6.5 9 6.5
s2.66602 -0.666992 3.99902 -2l2 -2c-5.33301 -6.66699 -11.333 -12.834 -18 -18.501s-14.334 -10.667 -23.001 -15s-17.667 -7.66602 -27 -9.99902s-18.666 -3.5 -27.999 -3.5c-28.667 0 -51.167 7.83301 -67.5 23.5s-24.5 41.5 -24.5 77.5v366h-82c-4 0 -6 1.66699 -6 5v3
l88 2l4 197c0 1.33301 0.333008 2.83301 1 4.5s1.66699 2.5 3 2.5h4v-204h324zM507.002 620.998c16.667 0 28.9971 5.5 36.9971 16.5s12.333 24.5 13 40.5h8c0 -9.33301 -1.16699 -18 -3.5 -26s-5.83301 -15 -10.5 -21s-10.667 -10.833 -18 -14.5s-16 -5.5 -26 -5.5
c-10.667 0 -20.667 3 -30 9s-18.5 12.667 -27.5 20s-17.833 14 -26.5 20s-18 9 -28 9c-8 0 -15.167 -1.5 -21.5 -4.5s-11.5 -7.16699 -15.5 -12.5s-7 -11.333 -9 -18s-3.33301 -14 -4 -22h-9c0 9.33301 1.33301 18 4 26s6.33398 15 11.001 21s10.667 10.833 18 14.5
s16 5.5 26 5.5c10.667 0 20.834 -3 30.501 -9s18.834 -12.667 27.501 -20s17.5 -14 26.5 -20s18.167 -9 27.5 -9z" />
    <glyph glyph-name="t_ibreve.liga" unicode="t&#x12d;" horiz-adv-x="553" 
d="M456 469l0.00195312 -469.002h-12v459h-312v-366c0 -16.667 2 -30.667 6 -42s9.66699 -20.666 17 -27.999s15.833 -12.666 25.5 -15.999c10.333 -3.33301 20.833 -5 31.5 -5c14 0 26.167 2.16699 36.5 6.5s19.166 9 26.499 14s13.333 9.66699 18 14s7.66699 6.5 9 6.5
s2.66602 -0.666992 3.99902 -2l2 -2c-5.33301 -6.66699 -11.333 -12.834 -18 -18.501s-14.334 -10.667 -23.001 -15s-17.667 -7.66602 -27 -9.99902s-18.666 -3.5 -27.999 -3.5c-28.667 0 -51.167 7.83301 -67.5 23.5s-24.5 41.5 -24.5 77.5v366h-82c-4 0 -6 1.66699 -6 5v3
l88 2l4 197c0 1.33301 0.333008 2.83301 1 4.5s1.66699 2.5 3 2.5h4v-204h324zM450.002 585.998c-18.667 0 -34.665 3 -47.998 9s-24.333 14.333 -33 25s-14.834 22.667 -18.501 36s-5.5 28 -5.5 44h10c0 -13.333 1.66699 -26.333 5 -39s8.83301 -23.667 16.5 -33
s17.5 -17 29.5 -23s26.667 -9 44 -9s32 3 44 9s21.833 13.667 29.5 23s13.167 20.333 16.5 33s5 25.667 5 39h10c0 -16 -1.83301 -30.667 -5.5 -44s-9.83398 -25.333 -18.501 -36s-19.667 -19 -33 -25s-29.333 -9 -48 -9z" />
    <glyph glyph-name="t_uni01D0.liga" unicode="t&#x1d0;" horiz-adv-x="553" 
d="M456 469l0.00195312 -469.002h-12v459h-312v-366c0 -16.667 2 -30.667 6 -42s9.66699 -20.666 17 -27.999s15.833 -12.666 25.5 -15.999c10.333 -3.33301 20.833 -5 31.5 -5c14 0 26.167 2.16699 36.5 6.5s19.166 9 26.499 14s13.333 9.66699 18 14s7.66699 6.5 9 6.5
s2.66602 -0.666992 3.99902 -2l2 -2c-5.33301 -6.66699 -11.333 -12.834 -18 -18.501s-14.334 -10.667 -23.001 -15s-17.667 -7.66602 -27 -9.99902s-18.666 -3.5 -27.999 -3.5c-28.667 0 -51.167 7.83301 -67.5 23.5s-24.5 41.5 -24.5 77.5v366h-82c-4 0 -6 1.66699 -6 5v3
l88 2l4 197c0 1.33301 0.333008 2.83301 1 4.5s1.66699 2.5 3 2.5h4v-204h324zM454.002 584.998h-8.00195l-106 115h9c2.66699 0 5.33398 -1.33301 8.00098 -4l90 -98l3 -4l3 4l90 98c2.66699 2.66699 5.33398 4 8.00098 4h9z" />
    <glyph glyph-name="t_uni1E2D.liga" unicode="t&#x1e2d;" horiz-adv-x="552" 
d="M454 469l0.00195312 -469.002h-12v459h-312v-366c0 -16.667 2 -30.667 6 -42s9.66699 -20.666 17 -27.999s15.833 -12.666 25.5 -15.999c10.333 -3.33301 20.833 -5 31.5 -5c14 0 26.167 2.16699 36.5 6.5s19.166 9 26.499 14s13.333 9.66699 18 14s7.66699 6.5 9 6.5
s2.66602 -0.666992 3.99902 -2l2 -2c-5.33301 -6.66699 -11.333 -12.834 -18 -18.501s-14.334 -10.667 -23.001 -15s-17.667 -7.66602 -27 -9.99902s-18.666 -3.5 -27.999 -3.5c-28.667 0 -51.167 7.83301 -67.5 23.5s-24.5 41.5 -24.5 77.5v366h-82c-4 0 -6 1.66699 -6 5v3
l88 2l4 197c0 1.33301 0.333008 2.83301 1 4.5s1.66699 2.5 3 2.5h4v-204h324zM476.002 679.998c0 -6.66699 -3 -12.834 -9 -18.501s-12.333 -8.5 -19 -8.5c-8 0 -14.667 2.83301 -20 8.5s-8 11.834 -8 18.501c0 8 2.66699 14.667 8 20s12 8 20 8
c6.66699 0 13 -2.66699 19 -8s9 -12 9 -20zM501.002 -120.002c16.667 0 28.9971 5.5 36.9971 16.5s12.333 24.5 13 40.5h8c0 -9.33301 -1.16699 -18 -3.5 -26s-5.83301 -15 -10.5 -21s-10.667 -10.833 -18 -14.5s-16 -5.5 -26 -5.5c-10.667 0 -20.667 3 -30 9
s-18.5 12.667 -27.5 20s-17.833 14 -26.5 20s-18 9 -28 9c-8 0 -15.167 -1.5 -21.5 -4.5s-11.5 -7.16699 -15.5 -12.5s-7 -11.333 -9 -18s-3.33301 -14 -4 -22h-9c0 9.33301 1.33301 18 4 26s6.33398 15 11.001 21s10.667 10.833 18 14.5s16 5.5 26 5.5
c10.667 0 20.834 -3 30.501 -9s18.834 -12.667 27.501 -20s17.5 -14 26.5 -20s18.167 -9 27.5 -9z" />
    <glyph glyph-name="t_uni1E2F.liga" unicode="t&#x1e2f;" horiz-adv-x="551" 
d="M454 469l0.00195312 -469.002h-12v459h-312v-366c0 -16.667 2 -30.667 6 -42s9.66699 -20.666 17 -27.999s15.833 -12.666 25.5 -15.999c10.333 -3.33301 20.833 -5 31.5 -5c14 0 26.167 2.16699 36.5 6.5s19.166 9 26.499 14s13.333 9.66699 18 14s7.66699 6.5 9 6.5
s2.66602 -0.666992 3.99902 -2l2 -2c-5.33301 -6.66699 -11.333 -12.834 -18 -18.501s-14.334 -10.667 -23.001 -15s-17.667 -7.66602 -27 -9.99902s-18.666 -3.5 -27.999 -3.5c-28.667 0 -51.167 7.83301 -67.5 23.5s-24.5 41.5 -24.5 77.5v366h-82c-4 0 -6 1.66699 -6 5v3
l88 2l4 197c0 1.33301 0.333008 2.83301 1 4.5s1.66699 2.5 3 2.5h4v-204h324zM557.002 855.998l-101.001 -125c-1.33301 -2.66699 -4 -4 -8 -4h-7l82 118c2.66699 4.66699 5.33398 7.66699 8.00098 9s7 2 13 2h13zM394.001 639.998c0 -6.66699 -3 -12.834 -9 -18.501
s-12.333 -8.5 -19 -8.5c-8 0 -14.667 2.83301 -20 8.5s-8 11.834 -8 18.501c0 8 2.66699 14.667 8 20s12 8 20 8c6.66699 0 13 -2.66699 19 -8s9 -12 9 -20zM558.001 639.998c0 -6.66699 -3 -12.834 -9 -18.501s-12.333 -8.5 -19 -8.5c-8 0 -14.667 2.83301 -20 8.5
s-8 11.834 -8 18.501c0 8 2.66699 14.667 8 20s12 8 20 8c6.66699 0 13 -2.66699 19 -8s9 -12 9 -20z" />
    <glyph glyph-name="t_uni0268.liga" unicode="t&#x268;" horiz-adv-x="569" 
d="M444 272l0.00195312 186.998h-312v-366c0 -16.667 2 -30.667 6 -42s9.66699 -20.666 17 -27.999s15.833 -12.666 25.5 -15.999c10.333 -3.33301 20.833 -5 31.5 -5c14 0 26.167 2.16699 36.5 6.5s19.166 9 26.499 14s13.333 9.66699 18 14s7.66699 6.5 9 6.5
s2.66602 -0.666992 3.99902 -2l2 -2c-5.33301 -6.66699 -11.333 -12.834 -18 -18.501s-14.334 -10.667 -23.001 -15s-17.667 -7.66602 -27 -9.99902s-18.666 -3.5 -27.999 -3.5c-28.667 0 -51.167 7.83301 -67.5 23.5s-24.5 41.5 -24.5 77.5v366h-82c-4 0 -6 1.66699 -6 5v3
l88 2l4 197c0 1.33301 0.333008 2.83301 1 4.5s1.66699 2.5 3 2.5h4v-204h324v-197h88v-10h-88v-262h-12v262h-96v10h96zM478.002 679.998c0 -6.66699 -3 -12.834 -9 -18.501s-12.333 -8.5 -19 -8.5c-8 0 -14.667 2.83301 -20 8.5s-8 11.834 -8 18.501
c0 8 2.66699 14.667 8 20s12 8 20 8c6.66699 0 13 -2.66699 19 -8s9 -12 9 -20z" />
    <glyph glyph-name="t_uni020B.liga" unicode="t&#x20b;" horiz-adv-x="553" 
d="M456 469l0.00195312 -469.002h-12v459h-312v-366c0 -16.667 2 -30.667 6 -42s9.66699 -20.666 17 -27.999s15.833 -12.666 25.5 -15.999c10.333 -3.33301 20.833 -5 31.5 -5c14 0 26.167 2.16699 36.5 6.5s19.166 9 26.499 14s13.333 9.66699 18 14s7.66699 6.5 9 6.5
s2.66602 -0.666992 3.99902 -2l2 -2c-5.33301 -6.66699 -11.333 -12.834 -18 -18.501s-14.334 -10.667 -23.001 -15s-17.667 -7.66602 -27 -9.99902s-18.666 -3.5 -27.999 -3.5c-28.667 0 -51.167 7.83301 -67.5 23.5s-24.5 41.5 -24.5 77.5v366h-82c-4 0 -6 1.66699 -6 5v3
l88 2l4 197c0 1.33301 0.333008 2.83301 1 4.5s1.66699 2.5 3 2.5h4v-204h324zM450.002 707.998c18.667 0 34.665 -3.00098 47.998 -9.00098s24.333 -14.333 33 -25s14.834 -23 18.501 -37s5.5 -28.333 5.5 -43h-10c0 13.333 -1.66699 26.333 -5 39
s-8.83301 23.667 -16.5 33s-17.5 17 -29.5 23s-26.667 9 -44 9s-32 -3 -44 -9s-21.833 -13.667 -29.5 -23s-13.167 -20.333 -16.5 -33s-5 -25.667 -5 -39h-10c0 15.333 1.83301 29.833 5.5 43.5s9.83398 25.834 18.501 36.501s19.667 19 33 25s29.333 9 48 9z" />
    <glyph glyph-name="t_uni0209.liga" unicode="t&#x209;" horiz-adv-x="553" 
d="M456 469l0.00195312 -469.002h-12v459h-312v-366c0 -16.667 2 -30.667 6 -42s9.66699 -20.666 17 -27.999s15.833 -12.666 25.5 -15.999c10.333 -3.33301 20.833 -5 31.5 -5c14 0 26.167 2.16699 36.5 6.5s19.166 9 26.499 14s13.333 9.66699 18 14s7.66699 6.5 9 6.5
s2.66602 -0.666992 3.99902 -2l2 -2c-5.33301 -6.66699 -11.333 -12.834 -18 -18.501s-14.334 -10.667 -23.001 -15s-17.667 -7.66602 -27 -9.99902s-18.666 -3.5 -27.999 -3.5c-28.667 0 -51.167 7.83301 -67.5 23.5s-24.5 41.5 -24.5 77.5v366h-82c-4 0 -6 1.66699 -6 5v3
l88 2l4 197c0 1.33301 0.333008 2.83301 1 4.5s1.66699 2.5 3 2.5h4v-204h324zM421.002 707.998c5.33301 0 9.5 -0.666992 12.5 -2s5.83301 -4.33301 8.5 -9l82 -118h-7c-4 0 -6.66699 1.33301 -8 4l-99 125h11zM305.002 707.998c5.33301 0 9.16699 -0.666992 11.5 -2
s5.5 -4.33301 9.5 -9l92 -118h-7c-4 0 -6.66699 1.33301 -8 4l-111 125h13z" />
    <glyph glyph-name="t_t_i.liga" unicode="tti" horiz-adv-x="853" 
d="M755 469l0.00683594 -469.004h-12v459h-302v-366c0 -16.667 2.16699 -30.667 6.5 -42s10.166 -20.666 17.499 -27.999s15.666 -12.666 24.999 -15.999s19.666 -5 30.999 -5c14 0 26.333 2.16699 37 6.5s19.667 9 27 14s13.166 9.66699 17.499 14s7.5 6.5 9.5 6.5
c1.33301 0 2.66602 -0.666992 3.99902 -2l2 -2c-5.33301 -6.66699 -11.5 -12.834 -18.5 -18.501s-14.667 -10.667 -23 -15s-17.333 -7.66602 -27 -9.99902s-19.167 -3.5 -28.5 -3.5c-28.667 0 -51.167 7.83301 -67.5 23.5s-24.5 41.5 -24.5 77.5v366h-297v-366
c0 -16.667 2 -30.667 6 -42s9.66699 -20.666 17 -27.999s15.833 -12.666 25.5 -15.999c10.333 -3.33301 20.833 -5 31.5 -5c14 0 26.167 2.16699 36.5 6.5s19.166 9 26.499 14s13.333 9.66699 18 14s7.66699 6.5 9 6.5s2.66602 -0.666992 3.99902 -2l2 -2
c-5.33301 -6.66699 -11.333 -12.834 -18 -18.501s-14.334 -10.667 -23.001 -15s-17.667 -7.66602 -27 -9.99902s-18.666 -3.5 -27.999 -3.5c-28.667 0 -51.167 7.83301 -67.5 23.5s-24.5 41.5 -24.5 77.5v366h-82c-4 0 -6 1.66699 -6 5v3l88 2l4 197
c0 1.33301 0.333008 2.83301 1 4.5s1.66699 2.5 3 2.5h4v-204h297l4 197c0 1.33301 0.5 2.83301 1.5 4.5s2.16699 2.5 3.5 2.5h3v-204h314zM778.007 679.996c0 -6.66699 -3 -12.834 -9 -18.501s-12.333 -8.5 -19 -8.5c-8 0 -14.667 2.83301 -20 8.5s-8 11.834 -8 18.501
c0 8 2.66699 14.667 8 20s12 8 20 8c6.66699 0 13 -2.66699 19 -8s9 -12 9 -20z" />
    <glyph glyph-name="t_t_igrave.liga" unicode="tt&#xec;" horiz-adv-x="853" 
d="M755 469l0.00683594 -469.004h-12v459h-302v-366c0 -16.667 2.16699 -30.667 6.5 -42s10.166 -20.666 17.499 -27.999s15.666 -12.666 24.999 -15.999s19.666 -5 30.999 -5c14 0 26.333 2.16699 37 6.5s19.667 9 27 14s13.166 9.66699 17.499 14s7.5 6.5 9.5 6.5
c1.33301 0 2.66602 -0.666992 3.99902 -2l2 -2c-5.33301 -6.66699 -11.5 -12.834 -18.5 -18.501s-14.667 -10.667 -23 -15s-17.333 -7.66602 -27 -9.99902s-19.167 -3.5 -28.5 -3.5c-28.667 0 -51.167 7.83301 -67.5 23.5s-24.5 41.5 -24.5 77.5v366h-297v-366
c0 -16.667 2 -30.667 6 -42s9.66699 -20.666 17 -27.999s15.833 -12.666 25.5 -15.999c10.333 -3.33301 20.833 -5 31.5 -5c14 0 26.167 2.16699 36.5 6.5s19.166 9 26.499 14s13.333 9.66699 18 14s7.66699 6.5 9 6.5s2.66602 -0.666992 3.99902 -2l2 -2
c-5.33301 -6.66699 -11.333 -12.834 -18 -18.501s-14.334 -10.667 -23.001 -15s-17.667 -7.66602 -27 -9.99902s-18.666 -3.5 -27.999 -3.5c-28.667 0 -51.167 7.83301 -67.5 23.5s-24.5 41.5 -24.5 77.5v366h-82c-4 0 -6 1.66699 -6 5v3l88 2l4 197
c0 1.33301 0.333008 2.83301 1 4.5s1.66699 2.5 3 2.5h4v-204h297l4 197c0 1.33301 0.5 2.83301 1.5 4.5s2.16699 2.5 3.5 2.5h3v-204h314zM687.007 707.996c5.33301 0 9.5 -0.666992 12.5 -2s5.83301 -4.33301 8.5 -9l82 -118h-7c-4 0 -6.66699 1.33301 -8 4l-101 125h13z
" />
    <glyph glyph-name="t_t_iacute.liga" unicode="tt&#xed;" horiz-adv-x="851" 
d="M753 469l0.00683594 -469.004h-12v459h-302v-366c0 -16.667 2.16699 -30.667 6.5 -42s10.166 -20.666 17.499 -27.999s15.666 -12.666 24.999 -15.999s19.666 -5 30.999 -5c14 0 26.333 2.16699 37 6.5s19.667 9 27 14s13.166 9.66699 17.499 14s7.5 6.5 9.5 6.5
c1.33301 0 2.66602 -0.666992 3.99902 -2l2 -2c-5.33301 -6.66699 -11.5 -12.834 -18.5 -18.501s-14.667 -10.667 -23 -15s-17.333 -7.66602 -27 -9.99902s-19.167 -3.5 -28.5 -3.5c-28.667 0 -51.167 7.83301 -67.5 23.5s-24.5 41.5 -24.5 77.5v366h-297v-366
c0 -16.667 2 -30.667 6 -42s9.66699 -20.666 17 -27.999s15.833 -12.666 25.5 -15.999c10.333 -3.33301 20.833 -5 31.5 -5c14 0 26.167 2.16699 36.5 6.5s19.166 9 26.499 14s13.333 9.66699 18 14s7.66699 6.5 9 6.5s2.66602 -0.666992 3.99902 -2l2 -2
c-5.33301 -6.66699 -11.333 -12.834 -18 -18.501s-14.334 -10.667 -23.001 -15s-17.667 -7.66602 -27 -9.99902s-18.666 -3.5 -27.999 -3.5c-28.667 0 -51.167 7.83301 -67.5 23.5s-24.5 41.5 -24.5 77.5v366h-82c-4 0 -6 1.66699 -6 5v3l88 2l4 197
c0 1.33301 0.333008 2.83301 1 4.5s1.66699 2.5 3 2.5h4v-204h297l4 197c0 1.33301 0.5 2.83301 1.5 4.5s2.16699 2.5 3.5 2.5h3v-204h314zM832.007 707.996l-101.001 -125c-1.33301 -2.66699 -4 -4 -8 -4h-7l82 118c2.66699 4.66699 5.33398 7.66699 8.00098 9s7 2 13 2h13
z" />
    <glyph glyph-name="t_t_icircumflex.liga" unicode="tt&#xee;" horiz-adv-x="853" 
d="M755 469l0.00683594 -469.004h-12v459h-302v-366c0 -16.667 2.16699 -30.667 6.5 -42s10.166 -20.666 17.499 -27.999s15.666 -12.666 24.999 -15.999s19.666 -5 30.999 -5c14 0 26.333 2.16699 37 6.5s19.667 9 27 14s13.166 9.66699 17.499 14s7.5 6.5 9.5 6.5
c1.33301 0 2.66602 -0.666992 3.99902 -2l2 -2c-5.33301 -6.66699 -11.5 -12.834 -18.5 -18.501s-14.667 -10.667 -23 -15s-17.333 -7.66602 -27 -9.99902s-19.167 -3.5 -28.5 -3.5c-28.667 0 -51.167 7.83301 -67.5 23.5s-24.5 41.5 -24.5 77.5v366h-297v-366
c0 -16.667 2 -30.667 6 -42s9.66699 -20.666 17 -27.999s15.833 -12.666 25.5 -15.999c10.333 -3.33301 20.833 -5 31.5 -5c14 0 26.167 2.16699 36.5 6.5s19.166 9 26.499 14s13.333 9.66699 18 14s7.66699 6.5 9 6.5s2.66602 -0.666992 3.99902 -2l2 -2
c-5.33301 -6.66699 -11.333 -12.834 -18 -18.501s-14.334 -10.667 -23.001 -15s-17.667 -7.66602 -27 -9.99902s-18.666 -3.5 -27.999 -3.5c-28.667 0 -51.167 7.83301 -67.5 23.5s-24.5 41.5 -24.5 77.5v366h-82c-4 0 -6 1.66699 -6 5v3l88 2l4 197
c0 1.33301 0.333008 2.83301 1 4.5s1.66699 2.5 3 2.5h4v-204h297l4 197c0 1.33301 0.5 2.83301 1.5 4.5s2.16699 2.5 3.5 2.5h3v-204h314zM860.007 584.996h-8.99902c-2.66699 0 -5.33398 1.33301 -8.00098 4l-90 98l-3 3l-3 -3l-90 -98
c-1.33301 -1.33301 -2.5 -2.33301 -3.5 -3s-2.5 -1 -4.5 -1h-9l106 115h8z" />
    <glyph glyph-name="t_t_idieresis.liga" unicode="tt&#xef;" horiz-adv-x="853" 
d="M755 469l0.00683594 -469.004h-12v459h-302v-366c0 -16.667 2.16699 -30.667 6.5 -42s10.166 -20.666 17.499 -27.999s15.666 -12.666 24.999 -15.999s19.666 -5 30.999 -5c14 0 26.333 2.16699 37 6.5s19.667 9 27 14s13.166 9.66699 17.499 14s7.5 6.5 9.5 6.5
c1.33301 0 2.66602 -0.666992 3.99902 -2l2 -2c-5.33301 -6.66699 -11.5 -12.834 -18.5 -18.501s-14.667 -10.667 -23 -15s-17.333 -7.66602 -27 -9.99902s-19.167 -3.5 -28.5 -3.5c-28.667 0 -51.167 7.83301 -67.5 23.5s-24.5 41.5 -24.5 77.5v366h-297v-366
c0 -16.667 2 -30.667 6 -42s9.66699 -20.666 17 -27.999s15.833 -12.666 25.5 -15.999c10.333 -3.33301 20.833 -5 31.5 -5c14 0 26.167 2.16699 36.5 6.5s19.166 9 26.499 14s13.333 9.66699 18 14s7.66699 6.5 9 6.5s2.66602 -0.666992 3.99902 -2l2 -2
c-5.33301 -6.66699 -11.333 -12.834 -18 -18.501s-14.334 -10.667 -23.001 -15s-17.667 -7.66602 -27 -9.99902s-18.666 -3.5 -27.999 -3.5c-28.667 0 -51.167 7.83301 -67.5 23.5s-24.5 41.5 -24.5 77.5v366h-82c-4 0 -6 1.66699 -6 5v3l88 2l4 197
c0 1.33301 0.333008 2.83301 1 4.5s1.66699 2.5 3 2.5h4v-204h297l4 197c0 1.33301 0.5 2.83301 1.5 4.5s2.16699 2.5 3.5 2.5h3v-204h314zM716.007 639.996c0 -6.66699 -3 -12.834 -9 -18.501s-12.333 -8.5 -19 -8.5c-8 0 -14.667 2.83301 -20 8.5s-8 11.834 -8 18.501
c0 8 2.66699 14.667 8 20s12 8 20 8c6.66699 0 13 -2.66699 19 -8s9 -12 9 -20zM840.007 639.996c0 -6.66699 -3 -12.834 -9 -18.501s-12.333 -8.5 -19 -8.5c-8 0 -14.667 2.83301 -20 8.5s-8 11.834 -8 18.501c0 8 2.66699 14.667 8 20s12 8 20 8
c6.66699 0 13 -2.66699 19 -8s9 -12 9 -20z" />
    <glyph glyph-name="t_t_imacron.liga" unicode="tt&#x12b;" horiz-adv-x="853" 
d="M755 469l0.00683594 -469.004h-12v459h-302v-366c0 -16.667 2.16699 -30.667 6.5 -42s10.166 -20.666 17.499 -27.999s15.666 -12.666 24.999 -15.999s19.666 -5 30.999 -5c14 0 26.333 2.16699 37 6.5s19.667 9 27 14s13.166 9.66699 17.499 14s7.5 6.5 9.5 6.5
c1.33301 0 2.66602 -0.666992 3.99902 -2l2 -2c-5.33301 -6.66699 -11.5 -12.834 -18.5 -18.501s-14.667 -10.667 -23 -15s-17.333 -7.66602 -27 -9.99902s-19.167 -3.5 -28.5 -3.5c-28.667 0 -51.167 7.83301 -67.5 23.5s-24.5 41.5 -24.5 77.5v366h-297v-366
c0 -16.667 2 -30.667 6 -42s9.66699 -20.666 17 -27.999s15.833 -12.666 25.5 -15.999c10.333 -3.33301 20.833 -5 31.5 -5c14 0 26.167 2.16699 36.5 6.5s19.166 9 26.499 14s13.333 9.66699 18 14s7.66699 6.5 9 6.5s2.66602 -0.666992 3.99902 -2l2 -2
c-5.33301 -6.66699 -11.333 -12.834 -18 -18.501s-14.334 -10.667 -23.001 -15s-17.667 -7.66602 -27 -9.99902s-18.666 -3.5 -27.999 -3.5c-28.667 0 -51.167 7.83301 -67.5 23.5s-24.5 41.5 -24.5 77.5v366h-82c-4 0 -6 1.66699 -6 5v3l88 2l4 197
c0 1.33301 0.333008 2.83301 1 4.5s1.66699 2.5 3 2.5h4v-204h297l4 197c0 1.33301 0.5 2.83301 1.5 4.5s2.16699 2.5 3.5 2.5h3v-204h314zM620.007 644.996h260v-10h-260v10z" />
    <glyph glyph-name="t_t_itilde.liga" unicode="tt&#x129;" horiz-adv-x="851" 
d="M753 469l0.00683594 -469.004h-12v459h-302v-366c0 -16.667 2.16699 -30.667 6.5 -42s10.166 -20.666 17.499 -27.999s15.666 -12.666 24.999 -15.999s19.666 -5 30.999 -5c14 0 26.333 2.16699 37 6.5s19.667 9 27 14s13.166 9.66699 17.499 14s7.5 6.5 9.5 6.5
c1.33301 0 2.66602 -0.666992 3.99902 -2l2 -2c-5.33301 -6.66699 -11.5 -12.834 -18.5 -18.501s-14.667 -10.667 -23 -15s-17.333 -7.66602 -27 -9.99902s-19.167 -3.5 -28.5 -3.5c-28.667 0 -51.167 7.83301 -67.5 23.5s-24.5 41.5 -24.5 77.5v366h-297v-366
c0 -16.667 2 -30.667 6 -42s9.66699 -20.666 17 -27.999s15.833 -12.666 25.5 -15.999c10.333 -3.33301 20.833 -5 31.5 -5c14 0 26.167 2.16699 36.5 6.5s19.166 9 26.499 14s13.333 9.66699 18 14s7.66699 6.5 9 6.5s2.66602 -0.666992 3.99902 -2l2 -2
c-5.33301 -6.66699 -11.333 -12.834 -18 -18.501s-14.334 -10.667 -23.001 -15s-17.667 -7.66602 -27 -9.99902s-18.666 -3.5 -27.999 -3.5c-28.667 0 -51.167 7.83301 -67.5 23.5s-24.5 41.5 -24.5 77.5v366h-82c-4 0 -6 1.66699 -6 5v3l88 2l4 197
c0 1.33301 0.333008 2.83301 1 4.5s1.66699 2.5 3 2.5h4v-204h297l4 197c0 1.33301 0.5 2.83301 1.5 4.5s2.16699 2.5 3.5 2.5h3v-204h314zM807.007 620.996c16.667 0 28.9971 5.5 36.9971 16.5s12.333 24.5 13 40.5h8c0 -9.33301 -1.16699 -18 -3.5 -26
s-5.83301 -15 -10.5 -21s-10.667 -10.833 -18 -14.5s-16 -5.5 -26 -5.5c-10.667 0 -20.667 3 -30 9s-18.5 12.667 -27.5 20s-17.833 14 -26.5 20s-18 9 -28 9c-8 0 -15.167 -1.5 -21.5 -4.5s-11.5 -7.16699 -15.5 -12.5s-7 -11.333 -9 -18s-3.33301 -14 -4 -22h-9
c0 9.33301 1.33301 18 4 26s6.33398 15 11.001 21s10.667 10.833 18 14.5s16 5.5 26 5.5c10.667 0 20.834 -3 30.501 -9s18.834 -12.667 27.501 -20s17.5 -14 26.5 -20s18.167 -9 27.5 -9z" />
    <glyph glyph-name="t_t_ibreve.liga" unicode="tt&#x12d;" horiz-adv-x="853" 
d="M755 469l0.00683594 -469.004h-12v459h-302v-366c0 -16.667 2.16699 -30.667 6.5 -42s10.166 -20.666 17.499 -27.999s15.666 -12.666 24.999 -15.999s19.666 -5 30.999 -5c14 0 26.333 2.16699 37 6.5s19.667 9 27 14s13.166 9.66699 17.499 14s7.5 6.5 9.5 6.5
c1.33301 0 2.66602 -0.666992 3.99902 -2l2 -2c-5.33301 -6.66699 -11.5 -12.834 -18.5 -18.501s-14.667 -10.667 -23 -15s-17.333 -7.66602 -27 -9.99902s-19.167 -3.5 -28.5 -3.5c-28.667 0 -51.167 7.83301 -67.5 23.5s-24.5 41.5 -24.5 77.5v366h-297v-366
c0 -16.667 2 -30.667 6 -42s9.66699 -20.666 17 -27.999s15.833 -12.666 25.5 -15.999c10.333 -3.33301 20.833 -5 31.5 -5c14 0 26.167 2.16699 36.5 6.5s19.166 9 26.499 14s13.333 9.66699 18 14s7.66699 6.5 9 6.5s2.66602 -0.666992 3.99902 -2l2 -2
c-5.33301 -6.66699 -11.333 -12.834 -18 -18.501s-14.334 -10.667 -23.001 -15s-17.667 -7.66602 -27 -9.99902s-18.666 -3.5 -27.999 -3.5c-28.667 0 -51.167 7.83301 -67.5 23.5s-24.5 41.5 -24.5 77.5v366h-82c-4 0 -6 1.66699 -6 5v3l88 2l4 197
c0 1.33301 0.333008 2.83301 1 4.5s1.66699 2.5 3 2.5h4v-204h297l4 197c0 1.33301 0.5 2.83301 1.5 4.5s2.16699 2.5 3.5 2.5h3v-204h314zM750.007 585.996c-18.667 0 -34.665 3 -47.998 9s-24.333 14.333 -33 25s-14.834 22.667 -18.501 36s-5.5 28 -5.5 44h10
c0 -13.333 1.66699 -26.333 5 -39s8.83301 -23.667 16.5 -33s17.5 -17 29.5 -23s26.667 -9 44 -9s32 3 44 9s21.833 13.667 29.5 23s13.167 20.333 16.5 33s5 25.667 5 39h10c0 -16 -1.83301 -30.667 -5.5 -44s-9.83398 -25.333 -18.501 -36s-19.667 -19 -33 -25
s-29.333 -9 -48 -9z" />
    <glyph glyph-name="t_t_uni01D0.liga" unicode="tt&#x1d0;" horiz-adv-x="853" 
d="M755 469l0.00683594 -469.004h-12v459h-302v-366c0 -16.667 2.16699 -30.667 6.5 -42s10.166 -20.666 17.499 -27.999s15.666 -12.666 24.999 -15.999s19.666 -5 30.999 -5c14 0 26.333 2.16699 37 6.5s19.667 9 27 14s13.166 9.66699 17.499 14s7.5 6.5 9.5 6.5
c1.33301 0 2.66602 -0.666992 3.99902 -2l2 -2c-5.33301 -6.66699 -11.5 -12.834 -18.5 -18.501s-14.667 -10.667 -23 -15s-17.333 -7.66602 -27 -9.99902s-19.167 -3.5 -28.5 -3.5c-28.667 0 -51.167 7.83301 -67.5 23.5s-24.5 41.5 -24.5 77.5v366h-297v-366
c0 -16.667 2 -30.667 6 -42s9.66699 -20.666 17 -27.999s15.833 -12.666 25.5 -15.999c10.333 -3.33301 20.833 -5 31.5 -5c14 0 26.167 2.16699 36.5 6.5s19.166 9 26.499 14s13.333 9.66699 18 14s7.66699 6.5 9 6.5s2.66602 -0.666992 3.99902 -2l2 -2
c-5.33301 -6.66699 -11.333 -12.834 -18 -18.501s-14.334 -10.667 -23.001 -15s-17.667 -7.66602 -27 -9.99902s-18.666 -3.5 -27.999 -3.5c-28.667 0 -51.167 7.83301 -67.5 23.5s-24.5 41.5 -24.5 77.5v366h-82c-4 0 -6 1.66699 -6 5v3l88 2l4 197
c0 1.33301 0.333008 2.83301 1 4.5s1.66699 2.5 3 2.5h4v-204h297l4 197c0 1.33301 0.5 2.83301 1.5 4.5s2.16699 2.5 3.5 2.5h3v-204h314zM754.007 584.996h-8.00195l-106 115h9c2.66699 0 5.33398 -1.33301 8.00098 -4l90 -98l3 -4l3 4l90 98
c2.66699 2.66699 5.33398 4 8.00098 4h9z" />
    <glyph glyph-name="t_t_uni1E2D.liga" unicode="tt&#x1e2d;" horiz-adv-x="851" 
d="M753 469l0.00683594 -469.004h-12v459h-302v-366c0 -16.667 2.16699 -30.667 6.5 -42s10.166 -20.666 17.499 -27.999s15.666 -12.666 24.999 -15.999s19.666 -5 30.999 -5c14 0 26.333 2.16699 37 6.5s19.667 9 27 14s13.166 9.66699 17.499 14s7.5 6.5 9.5 6.5
c1.33301 0 2.66602 -0.666992 3.99902 -2l2 -2c-5.33301 -6.66699 -11.5 -12.834 -18.5 -18.501s-14.667 -10.667 -23 -15s-17.333 -7.66602 -27 -9.99902s-19.167 -3.5 -28.5 -3.5c-28.667 0 -51.167 7.83301 -67.5 23.5s-24.5 41.5 -24.5 77.5v366h-297v-366
c0 -16.667 2 -30.667 6 -42s9.66699 -20.666 17 -27.999s15.833 -12.666 25.5 -15.999c10.333 -3.33301 20.833 -5 31.5 -5c14 0 26.167 2.16699 36.5 6.5s19.166 9 26.499 14s13.333 9.66699 18 14s7.66699 6.5 9 6.5s2.66602 -0.666992 3.99902 -2l2 -2
c-5.33301 -6.66699 -11.333 -12.834 -18 -18.501s-14.334 -10.667 -23.001 -15s-17.667 -7.66602 -27 -9.99902s-18.666 -3.5 -27.999 -3.5c-28.667 0 -51.167 7.83301 -67.5 23.5s-24.5 41.5 -24.5 77.5v366h-82c-4 0 -6 1.66699 -6 5v3l88 2l4 197
c0 1.33301 0.333008 2.83301 1 4.5s1.66699 2.5 3 2.5h4v-204h297l4 197c0 1.33301 0.5 2.83301 1.5 4.5s2.16699 2.5 3.5 2.5h3v-204h314zM801.007 -120.004c16.667 0 28.9971 5.5 36.9971 16.5s12.333 24.5 13 40.5h8c0 -9.33301 -1.16699 -18 -3.5 -26
s-5.83301 -15 -10.5 -21s-10.667 -10.833 -18 -14.5s-16 -5.5 -26 -5.5c-10.667 0 -20.667 3 -30 9s-18.5 12.667 -27.5 20s-17.833 14 -26.5 20s-18 9 -28 9c-8 0 -15.167 -1.5 -21.5 -4.5s-11.5 -7.16699 -15.5 -12.5s-7 -11.333 -9 -18s-3.33301 -14 -4 -22h-9
c0 9.33301 1.33301 18 4 26s6.33398 15 11.001 21s10.667 10.833 18 14.5s16 5.5 26 5.5c10.667 0 20.834 -3 30.501 -9s18.834 -12.667 27.501 -20s17.5 -14 26.5 -20s18.167 -9 27.5 -9zM776.004 679.996c0 -6.66699 -3 -12.834 -9 -18.501s-12.333 -8.5 -19 -8.5
c-8 0 -14.667 2.83301 -20 8.5s-8 11.834 -8 18.501c0 8 2.66699 14.667 8 20s12 8 20 8c6.66699 0 13 -2.66699 19 -8s9 -12 9 -20z" />
    <glyph glyph-name="t_t_uni1E2F.liga" unicode="tt&#x1e2f;" horiz-adv-x="851" 
d="M753 469l0.00683594 -469.004h-12v459h-302v-366c0 -16.667 2.16699 -30.667 6.5 -42s10.166 -20.666 17.499 -27.999s15.666 -12.666 24.999 -15.999s19.666 -5 30.999 -5c14 0 26.333 2.16699 37 6.5s19.667 9 27 14s13.166 9.66699 17.499 14s7.5 6.5 9.5 6.5
c1.33301 0 2.66602 -0.666992 3.99902 -2l2 -2c-5.33301 -6.66699 -11.5 -12.834 -18.5 -18.501s-14.667 -10.667 -23 -15s-17.333 -7.66602 -27 -9.99902s-19.167 -3.5 -28.5 -3.5c-28.667 0 -51.167 7.83301 -67.5 23.5s-24.5 41.5 -24.5 77.5v366h-297v-366
c0 -16.667 2 -30.667 6 -42s9.66699 -20.666 17 -27.999s15.833 -12.666 25.5 -15.999c10.333 -3.33301 20.833 -5 31.5 -5c14 0 26.167 2.16699 36.5 6.5s19.166 9 26.499 14s13.333 9.66699 18 14s7.66699 6.5 9 6.5s2.66602 -0.666992 3.99902 -2l2 -2
c-5.33301 -6.66699 -11.333 -12.834 -18 -18.501s-14.334 -10.667 -23.001 -15s-17.667 -7.66602 -27 -9.99902s-18.666 -3.5 -27.999 -3.5c-28.667 0 -51.167 7.83301 -67.5 23.5s-24.5 41.5 -24.5 77.5v366h-82c-4 0 -6 1.66699 -6 5v3l88 2l4 197
c0 1.33301 0.333008 2.83301 1 4.5s1.66699 2.5 3 2.5h4v-204h297l4 197c0 1.33301 0.5 2.83301 1.5 4.5s2.16699 2.5 3.5 2.5h3v-204h314zM857.007 855.996l-101.001 -125c-1.33301 -2.66699 -4 -4 -8 -4h-7l82 118c2.66699 4.66699 5.33398 7.66699 8.00098 9s7 2 13 2h13
zM694.006 639.996c0 -6.66699 -3 -12.834 -9 -18.501s-12.333 -8.5 -19 -8.5c-8 0 -14.667 2.83301 -20 8.5s-8 11.834 -8 18.501c0 8 2.66699 14.667 8 20s12 8 20 8c6.66699 0 13 -2.66699 19 -8s9 -12 9 -20zM858.006 639.996c0 -6.66699 -3 -12.834 -9 -18.501
s-12.333 -8.5 -19 -8.5c-8 0 -14.667 2.83301 -20 8.5s-8 11.834 -8 18.501c0 8 2.66699 14.667 8 20s12 8 20 8c6.66699 0 13 -2.66699 19 -8s9 -12 9 -20z" />
    <glyph glyph-name="t_t_uni0268.liga" unicode="tt&#x268;" horiz-adv-x="868" 
d="M743 272l0.00683594 186.996h-302v-366c0 -16.667 2.16699 -30.667 6.5 -42s10.166 -20.666 17.499 -27.999s15.666 -12.666 24.999 -15.999s19.666 -5 30.999 -5c14 0 26.333 2.16699 37 6.5s19.667 9 27 14s13.166 9.66699 17.499 14s7.5 6.5 9.5 6.5
c1.33301 0 2.66602 -0.666992 3.99902 -2l2 -2c-5.33301 -6.66699 -11.5 -12.834 -18.5 -18.501s-14.667 -10.667 -23 -15s-17.333 -7.66602 -27 -9.99902s-19.167 -3.5 -28.5 -3.5c-28.667 0 -51.167 7.83301 -67.5 23.5s-24.5 41.5 -24.5 77.5v366h-297v-366
c0 -16.667 2 -30.667 6 -42s9.66699 -20.666 17 -27.999s15.833 -12.666 25.5 -15.999c10.333 -3.33301 20.833 -5 31.5 -5c14 0 26.167 2.16699 36.5 6.5s19.166 9 26.499 14s13.333 9.66699 18 14s7.66699 6.5 9 6.5s2.66602 -0.666992 3.99902 -2l2 -2
c-5.33301 -6.66699 -11.333 -12.834 -18 -18.501s-14.334 -10.667 -23.001 -15s-17.667 -7.66602 -27 -9.99902s-18.666 -3.5 -27.999 -3.5c-28.667 0 -51.167 7.83301 -67.5 23.5s-24.5 41.5 -24.5 77.5v366h-82c-4 0 -6 1.66699 -6 5v3l88 2l4 197
c0 1.33301 0.333008 2.83301 1 4.5s1.66699 2.5 3 2.5h4v-204h297l4 197c0 1.33301 0.5 2.83301 1.5 4.5s2.16699 2.5 3.5 2.5h3v-204h314v-197h89v-10h-89v-262h-12v262h-95v10h95zM778.007 679.996c0 -6.66699 -3 -12.834 -9 -18.501s-12.333 -8.5 -19 -8.5
c-8 0 -14.667 2.83301 -20 8.5s-8 11.834 -8 18.501c0 8 2.66699 14.667 8 20s12 8 20 8c6.66699 0 13 -2.66699 19 -8s9 -12 9 -20z" />
    <glyph glyph-name="t_t_uni020B.liga" unicode="tt&#x20b;" horiz-adv-x="853" 
d="M755 469l0.00683594 -469.004h-12v459h-302v-366c0 -16.667 2.16699 -30.667 6.5 -42s10.166 -20.666 17.499 -27.999s15.666 -12.666 24.999 -15.999s19.666 -5 30.999 -5c14 0 26.333 2.16699 37 6.5s19.667 9 27 14s13.166 9.66699 17.499 14s7.5 6.5 9.5 6.5
c1.33301 0 2.66602 -0.666992 3.99902 -2l2 -2c-5.33301 -6.66699 -11.5 -12.834 -18.5 -18.501s-14.667 -10.667 -23 -15s-17.333 -7.66602 -27 -9.99902s-19.167 -3.5 -28.5 -3.5c-28.667 0 -51.167 7.83301 -67.5 23.5s-24.5 41.5 -24.5 77.5v366h-297v-366
c0 -16.667 2 -30.667 6 -42s9.66699 -20.666 17 -27.999s15.833 -12.666 25.5 -15.999c10.333 -3.33301 20.833 -5 31.5 -5c14 0 26.167 2.16699 36.5 6.5s19.166 9 26.499 14s13.333 9.66699 18 14s7.66699 6.5 9 6.5s2.66602 -0.666992 3.99902 -2l2 -2
c-5.33301 -6.66699 -11.333 -12.834 -18 -18.501s-14.334 -10.667 -23.001 -15s-17.667 -7.66602 -27 -9.99902s-18.666 -3.5 -27.999 -3.5c-28.667 0 -51.167 7.83301 -67.5 23.5s-24.5 41.5 -24.5 77.5v366h-82c-4 0 -6 1.66699 -6 5v3l88 2l4 197
c0 1.33301 0.333008 2.83301 1 4.5s1.66699 2.5 3 2.5h4v-204h297l4 197c0 1.33301 0.5 2.83301 1.5 4.5s2.16699 2.5 3.5 2.5h3v-204h314zM750.007 707.996c18.667 0 34.665 -3.00098 47.998 -9.00098s24.333 -14.333 33 -25s14.834 -23 18.501 -37s5.5 -28.333 5.5 -43
h-10c0 13.333 -1.66699 26.333 -5 39s-8.83301 23.667 -16.5 33s-17.5 17 -29.5 23s-26.667 9 -44 9s-32 -3 -44 -9s-21.833 -13.667 -29.5 -23s-13.167 -20.333 -16.5 -33s-5 -25.667 -5 -39h-10c0 15.333 1.83301 29.833 5.5 43.5s9.83398 25.834 18.501 36.501
s19.667 19 33 25s29.333 9 48 9z" />
    <glyph glyph-name="t_t_uni0209.liga" unicode="tt&#x209;" horiz-adv-x="853" 
d="M755 469l0.00683594 -469.004h-12v459h-302v-366c0 -16.667 2.16699 -30.667 6.5 -42s10.166 -20.666 17.499 -27.999s15.666 -12.666 24.999 -15.999s19.666 -5 30.999 -5c14 0 26.333 2.16699 37 6.5s19.667 9 27 14s13.166 9.66699 17.499 14s7.5 6.5 9.5 6.5
c1.33301 0 2.66602 -0.666992 3.99902 -2l2 -2c-5.33301 -6.66699 -11.5 -12.834 -18.5 -18.501s-14.667 -10.667 -23 -15s-17.333 -7.66602 -27 -9.99902s-19.167 -3.5 -28.5 -3.5c-28.667 0 -51.167 7.83301 -67.5 23.5s-24.5 41.5 -24.5 77.5v366h-297v-366
c0 -16.667 2 -30.667 6 -42s9.66699 -20.666 17 -27.999s15.833 -12.666 25.5 -15.999c10.333 -3.33301 20.833 -5 31.5 -5c14 0 26.167 2.16699 36.5 6.5s19.166 9 26.499 14s13.333 9.66699 18 14s7.66699 6.5 9 6.5s2.66602 -0.666992 3.99902 -2l2 -2
c-5.33301 -6.66699 -11.333 -12.834 -18 -18.501s-14.334 -10.667 -23.001 -15s-17.667 -7.66602 -27 -9.99902s-18.666 -3.5 -27.999 -3.5c-28.667 0 -51.167 7.83301 -67.5 23.5s-24.5 41.5 -24.5 77.5v366h-82c-4 0 -6 1.66699 -6 5v3l88 2l4 197
c0 1.33301 0.333008 2.83301 1 4.5s1.66699 2.5 3 2.5h4v-204h297l4 197c0 1.33301 0.5 2.83301 1.5 4.5s2.16699 2.5 3.5 2.5h3v-204h314zM721.007 707.996c5.33301 0 9.5 -0.666992 12.5 -2s5.83301 -4.33301 8.5 -9l82 -118h-7c-4 0 -6.66699 1.33301 -8 4l-99 125h11z
M605.007 707.996c5.33301 0 9.16699 -0.666992 11.5 -2s5.5 -4.33301 9.5 -9l92 -118h-7c-4 0 -6.66699 1.33301 -8 4l-111 125h13z" />
    <glyph glyph-name=".notdef" horiz-adv-x="496" 
d="M136 564c6 6 12.834 11.834 20.501 17.501s15.834 10.834 24.501 15.501s18.5 8.33398 29.5 11.001s22.833 4 35.5 4c14.667 0 29.167 -2.33301 43.5 -7s26.833 -11.334 37.5 -20.001s19.167 -19.334 25.5 -32.001s9.5 -27 9.5 -43c0 -18 -2.83301 -33.833 -8.5 -47.5
s-13 -25.5 -22 -35.5s-18.5 -18.667 -28.5 -26s-19.667 -14.5 -29 -21.5s-17 -14 -23 -21s-9 -14.5 -9 -22.5l-2 -62h-8v62c0 9.33301 2.83301 17.666 8.5 24.999s13 14.666 22 21.999s18.5 14.666 28.5 21.999s19.667 15.833 29 25.5s16.833 20.834 22.5 33.501
s8.5 27.667 8.5 45c0 14.667 -2.83301 27.834 -8.5 39.501s-13.5 21.5 -23.5 29.5s-21.333 14 -34 18s-25.667 6 -39 6c-16.667 0 -31.167 -2.33301 -43.5 -7s-22.833 -9.66699 -31.5 -15s-15.334 -10.333 -20.001 -15s-7.33398 -7 -8.00098 -7s-1.66699 0.333008 -3 1z
M211.001 120.001c0 6.66699 2.33301 12.668 7 18.001c5.33301 5.33301 11.333 8 18 8s12.334 -2.5 17.001 -7.5c4.66699 -5.66699 7 -11.834 7 -18.501s-2.33301 -12.334 -7 -17.001s-10.334 -7 -17.001 -7s-12.5 2.33301 -17.5 7s-7.5 10.334 -7.5 17.001zM25.001 700.002
h447v-700h-447v700zM35.001 10.002h427v680h-427v-680z" />
    <glyph glyph-name="glyph1" horiz-adv-x="0" 
 />
    <glyph glyph-name="glyph1" horiz-adv-x="0" 
 />
    <glyph glyph-name="uni000D" unicode="&#xd;" horiz-adv-x="0" 
 />
    <glyph glyph-name="space" unicode=" " horiz-adv-x="285" 
 />
    <glyph glyph-name="space" unicode="&#xa0;" horiz-adv-x="285" 
 />
    <glyph glyph-name="exclam" unicode="!" horiz-adv-x="242" 
d="M128 700l-0.00195312 -286.001v-41v-39c0 -13.333 -0.333008 -27.666 -1 -42.999s-1 -33 -1 -53h-8c-0.666992 20 -1.16699 37.667 -1.5 53s-0.666016 29.666 -0.999023 42.999s-0.666016 26.333 -0.999023 39s-0.5 26.334 -0.5 41.001v286h14zM87.998 23.999
c0 9.33301 3 17.166 9 23.499s13.667 9.5 23 9.5s17 -3.16699 23 -9.5s9 -14.166 9 -23.499s-3.16699 -17 -9.5 -23c-5.66699 -6 -13.167 -9 -22.5 -9s-17 3 -23 9s-9 13.667 -9 23z" />
    <glyph glyph-name="quotedbl" unicode="&#x22;" horiz-adv-x="315" 
d="M99 700v-147l-1 -76c0 -2.66699 -1.33301 -4 -4 -4s-4 1.33301 -4 4l-1 76v147h10zM226 700v-147l-1 -76c0 -2.66699 -1.33301 -4 -4 -4s-4 1.33301 -4 4l-1 76v147h10z" />
    <glyph glyph-name="numbersign" unicode="#" horiz-adv-x="580" 
d="M359 230l-50.9971 -230h-4c-2.66699 0 -4.5 0.333008 -5.5 1c-1.66699 0.666992 -1.83398 3 -0.500977 7l50 222h-171l-49 -222c-1.33301 -5.33301 -4 -8 -8 -8h-6l52 230h-108c-4 0 -6 2 -6 6v3h115l49 222h-136v3c0 4 2 6 6 6h131l49 222
c1.33301 5.33301 4.66602 8 9.99902 8h4l-52 -230h171l51 230h6c5.33301 0 6.66602 -3.33301 3.99902 -10l-50 -220h118v-3c0 -4 -2.66699 -6 -8 -6h-111l-49 -222h132c5.33301 0 8 -2 8 -6v-3h-141zM178.003 239h171l49 222h-171z" />
    <glyph glyph-name="dollar" unicode="$" horiz-adv-x="580" 
d="M277 -8c-23.333 0 -44.3379 1.99707 -63.0049 5.99707s-35.667 10 -51 18s-29.333 17.667 -42 29s-25 24 -37 38l2 2l2.5 2.5c1 0.333008 2.16699 0.5 3.5 0.5c2 0 4.83301 -2 8.5 -6s8.83398 -9.33301 15.501 -16s14.667 -13.667 24 -21s20.5 -14.166 33.5 -20.499
s28 -11.666 45 -15.999s36.5 -6.5 58.5 -6.5l13 363c-22 6.66699 -43.333 14.167 -64 22.5s-39.167 19 -55.5 32s-29.166 28.833 -38.499 47.5s-14 42 -14 70c0 22 4 43.167 12 63.5s19.833 38.333 35.5 54s35 28.167 58 37.5s49.167 14.333 78.5 15l4 94c0 5.33301 2 8 6 8
h4l-4 -102c32.667 -0.666992 61.667 -6.5 87 -17.5c24.667 -11 48.334 -28.167 71.001 -51.5l-2 -3c-1.33301 -2 -2.66602 -3 -3.99902 -3c-3.33301 0 -8.16602 3.33301 -14.499 10s-15.166 14 -26.499 22s-26 15.333 -44 22s-40.333 10.334 -67 11.001l-11 -323
c24 -8 47.5 -16.333 70.5 -25s43.5 -19.334 61.5 -32.001s32.667 -28.5 44 -47.5s17 -43.167 17 -72.5c0 -28 -4.66699 -54.167 -14 -78.5s-22.833 -45.666 -40.5 -63.999s-39.334 -33 -65.001 -44s-54.5 -17.167 -86.5 -18.5l-4 -121c0 -5.33301 -2 -8 -6 -8h-6z
M481.995 194.997c0 27.333 -5.16797 50 -15.501 68s-24 33.167 -41 45.5s-36.5 22.5 -58.5 30.5s-44.333 15.667 -67 23l-12 -360c30.667 1.33301 58 7.33301 82 18s44.333 24.667 61 42s29.334 37.5 38.001 60.5s13 47.167 13 72.5zM127.994 536.997
c0 -25.333 4.66602 -46.498 13.999 -63.498s21.333 -31.5 36 -43.5s31.834 -22 51.501 -30c19 -8 39.167 -15.667 60.5 -23l12 319c-28 -0.666992 -52.667 -5.33398 -74 -14.001s-39.5 -20.334 -54.5 -35.001s-26.333 -31.5 -34 -50.5s-11.5 -38.833 -11.5 -59.5z" />
    <glyph glyph-name="percent" unicode="%" horiz-adv-x="761" 
d="M336 532c0 -30 -3.83398 -56 -11.501 -78s-17.834 -40.167 -30.501 -54.5s-27.5 -25 -44.5 -32s-34.833 -10.5 -53.5 -10.5c-19.333 0 -37.5 3.5 -54.5 10.5s-31.833 17.667 -44.5 32s-22.667 32.5 -30 54.5s-11 48 -11 78c0 30.667 3.66699 57 11 79
s17.333 40.167 30 54.5s27.334 25 44.001 32s35 10.5 55 10.5c18.667 0 36.5 -3.5 53.5 -10.5s31.833 -17.667 44.5 -32s22.834 -32.5 30.501 -54.5s11.5 -48.333 11.5 -79zM323.999 532c0 29.333 -3.33301 54.333 -10 75s-16 38 -28 52s-25.667 24.167 -41 30.5
s-31.666 9.5 -48.999 9.5s-34 -3.16699 -50 -9.5s-29.833 -16.5 -41.5 -30.5s-21 -31.333 -28 -52s-10.5 -45.667 -10.5 -75s3.5 -54.333 10.5 -75s16.333 -37.834 28 -51.501s25.334 -23.667 41.001 -30c16.333 -6.33301 33.166 -9.5 50.499 -9.5
s33.666 3.16699 48.999 9.5s29 16.333 41 30s21.333 30.834 28 51.501s10 45.667 10 75zM617.999 696c1.33301 2.66699 4 4 8 4h6l-494 -696c-1.33301 -2.66699 -4 -4 -8 -4h-6zM705.999 167c0 -30 -3.83398 -56 -11.501 -78s-17.834 -40.167 -30.501 -54.5
s-27.5 -25 -44.5 -32s-34.833 -10.5 -53.5 -10.5c-19.333 0 -37.5 3.5 -54.5 10.5s-31.833 17.667 -44.5 32s-22.667 32.5 -30 54.5s-11 48 -11 78c0 30.667 3.66699 56.834 11 78.501s17.333 39.834 30 54.501s27.334 25.5 44.001 32.5s35 10.5 55 10.5
c18.667 0 36.5 -3.5 53.5 -10.5s31.833 -17.833 44.5 -32.5s22.834 -32.834 30.501 -54.501s11.5 -47.834 11.5 -78.501zM693.998 167c0 29.333 -3.33301 54.499 -10 75.499s-16 38.167 -28 51.5s-25.667 23.333 -41 30s-31.666 10 -48.999 10s-34 -3.33301 -50 -10
s-29.833 -16.667 -41.5 -30s-21 -30.666 -28 -51.999s-10.5 -46.333 -10.5 -75c0 -29.333 3.5 -54.5 10.5 -75.5s16.333 -38.167 28 -51.5s25.334 -23.166 41.001 -29.499c16.333 -6.33301 33.166 -9.5 50.499 -9.5s33.666 3.16699 48.999 9.5s29 16.166 41 29.499
s21.333 30.5 28 51.5s10 46.167 10 75.5z" />
    <glyph glyph-name="ampersand" unicode="&#x26;" horiz-adv-x="687" 
d="M328 708c19.333 0 38.002 -3.66699 56.002 -11s34.167 -17 48.5 -29s25.833 -26 34.5 -42s13 -32.667 13 -50h-4c-1.33301 0 -2.66602 0.666992 -3.99902 2s-2.66602 3.33301 -3.99902 6c-0.666992 9.33301 -3.83398 20.333 -9.50098 33s-14.334 25 -26.001 37
s-26.334 22.333 -44.001 31s-37.834 13 -60.501 13s-43.667 -3.5 -63 -10.5s-35.666 -16.667 -48.999 -29s-24 -27.333 -32 -45s-12 -37.167 -12 -58.5c0 -30.667 8.33301 -60.334 25 -89.001s41.667 -58.667 75 -90l238 -228c17.333 25.333 30.666 51.5 39.999 78.5
s15.333 52.5 18 76.5c0.666992 2.66699 1.5 4.66699 2.5 6s2.83301 2 5.5 2h4c-1.33301 -25.333 -7.16602 -52.833 -17.499 -82.5c-9.66699 -29.667 -24.5 -59.167 -44.5 -88.5l146 -140h-8c-2.66699 0 -5 0.166992 -7 0.5s-4.33301 1.83301 -7 4.5l-132 126
c-13.333 -18.667 -28.833 -36.5 -46.5 -53.5s-37.167 -31.833 -58.5 -44.5s-44.5 -22.667 -69.5 -30s-51.5 -11 -79.5 -11c-24 0 -47.667 4 -71 12s-44 19.5 -62 34.5s-32.667 33.667 -44 56s-17 48.166 -17 77.499c0 25.333 4.66699 49.333 14 72
s22.166 43.334 38.499 62.001s35.5 35 57.5 49c22.667 14 46.667 25 72 33c-13.333 14.667 -25.333 28.667 -36 42s-19.5 26.5 -26.5 39.5s-12.333 26.5 -16 40.5s-5.5 29 -5.5 45c0 22.667 4.16699 43.167 12.5 61.5s20 34.333 35 48s32.667 24.334 53 32.001
s42.833 11.5 67.5 11.5zM256.002 2c28 0 54 3.66406 78 10.9971s46.333 17 67 29s39.667 26.333 57 43s32.333 34.334 45 53.001l-239 230l-13 13c-25.333 -8 -48.833 -19 -70.5 -33s-40.5 -30.167 -56.5 -48.5s-28.333 -38.166 -37 -59.499s-13 -44 -13 -68
c0 -29.333 5.66699 -54.666 17 -75.999s26 -39 44 -53s37.667 -24.333 59 -31s42 -10 62 -10z" />
    <glyph glyph-name="quotesingle" unicode="'" horiz-adv-x="188" 
d="M99 700v-147l-1 -76c0 -2.66699 -1.33301 -4 -4 -4s-4 1.33301 -4 4l-1 76v147h10z" />
    <glyph glyph-name="parenleft" unicode="(" horiz-adv-x="250" 
d="M75 316c0 -77.333 11.001 -150.996 33.001 -220.996s55 -138 99 -204c1.33301 -2 1.83301 -3.66699 1.5 -5s-0.833008 -2.33301 -1.5 -3l-5 -3c-26 40 -47.833 78 -65.5 114s-31.834 71.667 -42.501 107s-18.334 70.666 -23.001 105.999s-7 71.666 -7 108.999
s2.33301 73.666 7 108.999s12.334 70.666 23.001 105.999s24.834 71 42.501 107s39.5 74 65.5 114l5 -3c1.33301 -0.666992 2.16602 -1.66699 2.49902 -3s-0.5 -3 -2.5 -5c-44 -66 -77 -134 -99 -204s-33 -143.667 -33 -221z" />
    <glyph glyph-name="parenright" unicode=")" horiz-adv-x="250" 
d="M176 316c0 77.333 -11.001 150.996 -33.001 220.996s-55 138 -99 204c-1.33301 2 -2 3.66699 -2 5s0.666992 2.33301 2 3l4 3c26 -40 47.833 -78 65.5 -114s31.834 -71.667 42.501 -107s18.334 -70.666 23.001 -105.999s7 -71.666 7 -108.999
s-2.33301 -73.666 -7 -108.999s-12.334 -70.666 -23.001 -105.999s-24.667 -71 -42 -107s-39.333 -74 -66 -114l-4 3c-1.33301 0.666992 -2.16602 1.66699 -2.49902 3c0.333008 1.33301 1.16602 3 2.49902 5c44 66 77 134 99 204s33 143.667 33 221z" />
    <glyph glyph-name="asterisk" unicode="*" horiz-adv-x="425" 
d="M207 463l0.000976562 114c0 4 0.166992 7.16699 0.5 9.5s1.16602 6.16602 2.49902 11.499c-4 -4 -7 -6.66699 -9 -8s-4.66699 -3 -8 -5l-101 -59l-5 9l101 59c3.33301 1.33301 6.16602 2.5 8.49902 3.5c2.33301 1.66699 6.16602 3.16699 11.499 4.5
c-5.33301 2.66699 -9.16602 4.16699 -11.499 4.5s-5.16602 1.5 -8.49902 3.5l-102 59l5 9l102 -59c1.33301 -1.33301 2.66602 -2.33301 3.99902 -3s2.5 -1.5 3.5 -2.5l3.5 -3.5l6 -6c-1.33301 6 -2.16602 10.333 -2.49902 13s-0.5 6 -0.5 10v114h10v-114
c0 -4 -0.166992 -7.33301 -0.5 -10s-1.16602 -7 -2.49902 -13l9.5 9.5c1.66699 1.66699 4.5 3.5 8.5 5.5l101 59l5 -9l-101 -59c-3.33301 -2 -6.33301 -3.5 -9 -4.5s-6.33398 -2.16699 -11.001 -3.5c5.33301 -1.33301 9.16602 -2.66602 11.499 -3.99902
s5.16602 -2.66602 8.49902 -3.99902l102 -59l-5 -9l-102 59c-1.33301 1.33301 -2.66602 2.16602 -3.99902 2.49902s-2.66602 1 -3.99902 2s-2.66602 2.16699 -3.99902 3.5l-6 6c1.33301 -6 2.16602 -10.333 2.49902 -13s0.5 -5.66699 0.5 -9v-114h-10zM214.001 600v-1v1z
" />
    <glyph glyph-name="plus" unicode="+" horiz-adv-x="580" 
d="M295 575v-235h226v-10h-226v-236h-10v236h-225v10h225v235h10z" />
    <glyph glyph-name="comma" unicode="," horiz-adv-x="212" 
d="M78 26c0 8 2.66699 15.1699 8 21.5029s12.666 9.5 21.999 9.5s16.666 -3.33301 21.999 -10s8 -16.334 8 -29.001c0 -25.333 -5.5 -50 -16.5 -74c-10.333 -24 -24.166 -45 -41.499 -63l-2 1c-1.33301 1.33301 -2 2.66602 -2 3.99902s0.666992 2.66602 2 3.99902
c2.66699 2.66699 6.66699 7.66699 12 15s10.833 16 16.5 26s10.667 21.333 15 34s6.5 26.334 6.5 41.001c-5.33301 -6.66699 -12.666 -10 -21.999 -10c-8 0 -14.667 2.66699 -20 8s-8 12.666 -8 21.999z" />
    <glyph glyph-name="hyphen" unicode="-" horiz-adv-x="369" 
d="M74 299h220v-10h-220v10z" />
    <glyph glyph-name="hyphen" unicode="&#x2010;" horiz-adv-x="369" 
d="M74 299h220v-10h-220v10z" />
    <glyph glyph-name="hyphen" unicode="&#xad;" horiz-adv-x="369" 
d="M74 299h220v-10h-220v10z" />
    <glyph glyph-name="period" unicode="." horiz-adv-x="232" 
d="M84 24c0 9.33301 3 17.166 9 23.499s13.667 9.5 23 9.5s17 -3.16699 23 -9.5s9 -14.166 9 -23.499s-3.16699 -17 -9.5 -23c-5.66699 -6 -13.167 -9 -22.5 -9s-17 3 -23 9s-9 13.667 -9 23z" />
    <glyph glyph-name="slash" unicode="/" horiz-adv-x="420" 
d="M58 -33c-1.33301 -2.66699 -2.99902 -4.33301 -4.99902 -5s-4.33301 -1 -7 -1h-4l320 753c1.33301 4 4.66602 6 9.99902 6h6z" />
    <glyph glyph-name="zero" unicode="0" horiz-adv-x="580" 
d="M538 350c0 -61.333 -6.66699 -114.333 -20 -159s-31.166 -81.667 -53.499 -111s-48.666 -51.166 -78.999 -65.499s-62.166 -21.5 -95.499 -21.5s-65.166 7.16699 -95.499 21.5s-56.666 36.166 -78.999 65.499s-40.166 66.333 -53.499 111s-20 97.667 -20 159
s6.66699 114.333 20 159s31.166 81.834 53.499 111.501s48.666 51.667 78.999 66s62.166 21.5 95.499 21.5s65.166 -7.16699 95.499 -21.5s56.666 -36.333 78.999 -66s40.166 -66.834 53.499 -111.501s20 -97.667 20 -159zM525 350c0 60 -6.16699 111.833 -18.5 155.5
s-29.166 79.667 -50.499 108s-46.333 49.5 -75 63.5s-59 21 -91 21s-62.333 -7 -91 -21s-53.667 -35.167 -75 -63.5s-38.333 -64.333 -51 -108s-19 -95.5 -19 -155.5s6.33301 -111.833 19 -155.5s29.667 -79.667 51 -108s46.333 -49.333 75 -63s59 -20.5 91 -20.5
s62.333 6.83301 91 20.5s53.667 34.667 75 63s38.166 64.333 50.499 108s18.5 95.5 18.5 155.5z" />
    <glyph glyph-name="one" unicode="1" horiz-adv-x="580" 
d="M142 10h170v648v14.5c0 5 0.666992 9.5 2 13.5l-182 -163c-4 -3.33301 -7.33301 -3.33301 -10 0l-2 4l196 177h8v-694h166v-10h-348v10z" />
    <glyph glyph-name="two" unicode="2" horiz-adv-x="580" 
d="M293 708c24 0 47.5029 -3.49902 70.5029 -10.499s43.5 -18 61.5 -33s32.667 -33.833 44 -56.5s17 -50.334 17 -83.001c0 -26.667 -4.33301 -51.5 -13 -74.5s-20 -45 -34 -66s-30.5 -41.667 -49.5 -62s-38.833 -40.833 -59.5 -61.5l-247 -252
c6.66699 0.666992 14.667 1.16699 24 1.5s19.666 0.5 30.999 0.5h362c3.33301 0 5 -1.66699 5 -5v-6h-438v5c0 1.33301 0.5 2.66602 1.5 3.99902s1.83301 2.33301 2.5 3l252 256c20 21.333 39.167 42 57.5 62s34.5 40.333 48.5 61s25 42 33 64s12 45.333 12 70
c0 30.667 -5.16699 56.834 -15.5 78.501s-24 39.5 -41 53.5s-36.333 24.333 -58 31s-43.834 10 -66.501 10c-26 0 -50 -4 -72 -12s-41.333 -19.333 -58 -34s-30.334 -32 -41.001 -52s-18 -42 -22 -66c-1.33301 -5.33301 -4 -8 -8 -8h-5c4 28 11.667 53.333 23 76
s26 41.667 44 57s38.667 27.333 62 36s49 13 77 13z" />
    <glyph glyph-name="three" unicode="3" horiz-adv-x="580" 
d="M296 708c24 0 47.3359 -3.33008 70.0029 -9.99707s42.667 -17 60 -31s31.333 -32 42 -54s16 -48.667 16 -80c0 -24 -4.33301 -45.833 -13 -65.5s-20.5 -36.834 -35.5 -51.501s-32.167 -26.667 -51.5 -36c-20 -9.33301 -40 -15.666 -60 -18.999
c29.333 -2.66699 55.333 -8.83398 78 -18.501s41.5 -22.167 56.5 -37.5s26.333 -33.166 34 -53.499s11.5 -42.5 11.5 -66.5c0 -25.333 -5.33301 -49.833 -16 -73.5s-25.667 -44.167 -45 -61.5s-42.333 -31.333 -69 -42s-56 -16 -88 -16c-28 0 -52.5 2.83301 -73.5 8.5
s-39.333 13 -55 22s-28.667 19.667 -39 32s-19 25 -26 38s-12.5 26 -16.5 39s-7.33301 25.167 -10 36.5l2 1c1.33301 0.666992 3.16602 1 5.49902 1c3 0 5.16699 -2.66699 6.5 -8c0.666992 -2.66699 2 -8.33398 4 -17.001s5.5 -18.834 10.5 -30.501s12.167 -24 21.5 -37
s21.666 -25.167 36.999 -36.5s33.833 -20.666 55.5 -27.999c21 -7.33301 46.833 -11 77.5 -11c34.667 0 64.834 5.66699 90.501 17s47 26 64 44s29.833 37.667 38.5 59s13 42.333 13 63c0 24 -4 46.333 -12 67s-21 38.667 -39 54s-41 27.5 -69 36.5s-62 13.5 -102 13.5v8
c30.667 1.33301 58.667 6.16602 84 14.499s46.666 20 63.999 35s30.666 32.5 39.999 52.5s14 42.333 14 67c0 29.333 -4.83301 54.333 -14.5 75s-22.667 37.667 -39 51s-35.166 23.166 -56.499 29.499s-43.333 9.5 -66 9.5c-26 0 -50.167 -4 -72.5 -12
s-41.833 -19.333 -58.5 -34s-30.334 -32 -41.001 -52s-18 -42 -22 -66c-1.33301 -5.33301 -4 -8 -8 -8h-4c4 28 11.667 53.333 23 76s26 41.667 44 57s38.667 27.333 62 36s49 13 77 13z" />
    <glyph glyph-name="four" unicode="4" horiz-adv-x="580" 
d="M397 226h148.001v-4c0 -4 -2.66699 -6 -8 -6h-140v-216h-11v216h-348c-4 0 -6.33301 0.333008 -7 1s-1.33398 2 -2.00098 4l-1 4l362 476h7v-475zM386.001 661v9.00098c0 3.33301 0.333008 6.66602 1 9.99902l-345 -454h344v435z" />
    <glyph glyph-name="five" unicode="5" horiz-adv-x="580" 
d="M472 695c0 -1.33301 -0.666992 -2.66602 -2 -3.99902s-3 -2 -5 -2h-283l-50 -277c25.333 6.66699 49.333 11.334 72 14.001s44 4 64 4c36 0 67.667 -5 95 -15s50.333 -24 69 -42s32.667 -39.833 42 -65.5s14 -53.834 14 -84.501c0 -36.667 -6.33301 -69.334 -19 -98.001
s-29.667 -52.834 -51 -72.501s-46 -34.667 -74 -45s-57.667 -15.5 -89 -15.5c-18 0 -35.333 1.5 -52 4.5s-32.334 7 -47.001 12s-28 10.5 -40 16.5s-22.333 12.333 -31 19l3 4c1.33301 2 3.33301 3 6 3s8 -2.5 16 -7.5s18.667 -10.5 32 -16.5s29.333 -11.333 48 -16
s40.334 -7 65.001 -7c29.333 0 57.5 4.66699 84.5 14s50.5 23.333 70.5 42s35.833 41.667 47.5 69s17.5 59 17.5 95c0 28 -4.16699 54 -12.5 78s-20.833 44.833 -37.5 62.5s-38.167 31.334 -64.5 41.001c-25.667 9.66699 -56.5 14.5 -92.5 14.5c-20 0 -41.667 -1.5 -65 -4.5
s-48.333 -7.83301 -75 -14.5l-9 4l53 295h300v-5z" />
    <glyph glyph-name="six" unicode="6" horiz-adv-x="580" 
d="M182 418c-18 -24 -33 -45.999 -45 -65.999s-21.667 -39 -29 -57c8.66699 17.333 19.834 33.166 33.501 47.499s29.167 26.333 46.5 36s35.833 17.167 55.5 22.5c19 5.33301 39.167 8 60.5 8c32 0 60.833 -5.16699 86.5 -15.5s47.5 -24.666 65.5 -42.999
s31.833 -40.166 41.5 -65.499s14.5 -53 14.5 -83c0 -31.333 -5.33301 -59.833 -16 -85.5s-26 -47.834 -46 -66.501s-43.667 -33 -71 -43s-57 -15 -89 -15c-30.667 0 -58.834 5 -84.501 15s-47.667 24.333 -66 43s-32.833 42 -43.5 70s-16 59.667 -16 95
c0 24 7.16699 53.5 21.5 88.5c13.667 35 37.167 74.833 70.5 119.5l204 274c1.33301 1.33301 2.33301 2.16602 3 2.49902s1.66699 0.5 3 0.5h10zM92 207.001c0 -29.333 4.66797 -56.499 14.001 -81.499s22.666 -46.667 39.999 -65s38.166 -32.666 62.499 -42.999
c25 -10.333 52.167 -15.5 81.5 -15.5c33.333 0 63 5 89 15s48 24 66 42s31.667 39.167 41 63.5s14 50.833 14 79.5c0 30.667 -4.66699 58 -14 82s-22.666 44.667 -39.999 62s-38 30.5 -62 39.5s-50 13.5 -78 13.5c-34 0 -64.333 -5.83301 -91 -17.5s-49 -26.834 -67 -45.501
s-31.833 -39.334 -41.5 -62.001s-14.5 -45 -14.5 -67z" />
    <glyph glyph-name="seven" unicode="7" horiz-adv-x="580" 
d="M528 700l0.000976562 -6c0 -2 -0.666992 -4.33301 -2 -7l-348 -681c-2.66699 -4 -6.66699 -6 -12 -6h-6l350 682c1.33301 2.66699 2.66602 5 3.99902 7h-438c-4 0 -6 2 -6 6v5h458z" />
    <glyph glyph-name="eight" unicode="8" horiz-adv-x="580" 
d="M290 -8c-32 0 -61.501 4.33301 -88.501 13s-50.333 21 -70 37s-34.834 35.667 -45.501 59s-16 49.333 -16 78c0 29.333 4.66699 54.833 14 76.5s22 40.167 38 55.5s34.5 27.333 55.5 36s42.833 15 65.5 19c-23.333 4 -44.166 11.167 -62.499 21.5
s-33.666 22.833 -45.999 37.5s-21.833 31.167 -28.5 49.5s-10 38.166 -10 59.499c0 24 4.33301 46.667 13 68s21.334 39.666 38.001 54.999s37 27.666 61 36.999s51.333 14 82 14s58 -4.66699 82 -14s44.333 -21.666 61 -36.999s29.334 -33.666 38.001 -54.999
s13 -44 13 -68c0 -21.333 -3.33301 -41.166 -10 -59.499s-16.334 -34.833 -29.001 -49.5s-28 -27.167 -46 -37.5s-38.667 -17.5 -62 -21.5c22.667 -4 44.5 -10.333 65.5 -19s39.5 -20.667 55.5 -36s28.667 -33.833 38 -55.5s14 -47.167 14 -76.5s-5.33301 -55.5 -16 -78.5
s-25.834 -42.5 -45.501 -58.5s-43 -28.333 -70 -37s-56.5 -13 -88.5 -13zM289.999 2c30.667 0 58.6709 4.16699 84.0039 12.5s47.166 20.166 65.499 35.499s32.666 33.833 42.999 55.5s15.5 46.167 15.5 73.5c0 24 -3.33301 45.167 -10 63.5s-15.334 34.333 -26.001 48
s-23.167 25 -37.5 34s-29.166 16.167 -44.499 21.5s-30.833 9 -46.5 11s-30.167 3 -43.5 3s-27.833 -1 -43.5 -3s-31.167 -5.66699 -46.5 -11s-30.166 -12.5 -44.499 -21.5s-26.833 -20.333 -37.5 -34s-19.334 -29.5 -26.001 -47.5s-10 -39.333 -10 -64
c0 -26.667 5.16699 -51 15.5 -73s24.666 -40.667 42.999 -56s40.166 -27.166 65.499 -35.499s53.333 -12.5 84 -12.5zM290.003 370c30.667 0 57.3359 4.66699 80.0029 14s41.667 21.5 57 36.5s26.666 32.333 33.999 52s11 40.167 11 61.5
c0 23.333 -4.16699 45.166 -12.5 65.499s-20.333 37.666 -36 51.999s-34.834 25.666 -57.501 33.999s-48 12.5 -76 12.5s-53.333 -4.16699 -76 -12.5s-41.834 -19.666 -57.501 -33.999s-27.667 -31.666 -36 -51.999s-12.5 -42.166 -12.5 -65.499
c0 -21.333 3.66699 -41.833 11 -61.5s18.666 -37 33.999 -52s34.333 -27.167 57 -36.5s49.334 -14 80.001 -14z" />
    <glyph glyph-name="nine" unicode="9" horiz-adv-x="580" 
d="M395 298c16.667 24.667 31.3369 46.501 44.0039 65.501s23 38.5 31 58.5c-8 -17.333 -19 -33.166 -33 -47.499s-29.333 -26.5 -46 -36.5s-34.667 -17.667 -54 -23s-39 -8 -59 -8c-30.667 0 -58.334 5 -83.001 15s-45.834 23.833 -63.501 41.5s-31.167 38.667 -40.5 63
s-14 50.833 -14 79.5c0 29.333 5.5 56.333 16.5 81s26.167 46 45.5 64s42 32 68 42s54.333 15 85 15c28.667 0 55.167 -5 79.5 -15s45.5 -24.333 63.5 -43s32.167 -41.334 42.5 -68.001s15.5 -56 15.5 -88c0 -16 -2 -31.667 -6 -47s-9.83301 -30.833 -17.5 -46.5
s-16.834 -32.334 -27.501 -50.001s-23.334 -36.834 -38.001 -57.501l-195 -290c-1.33301 -1.33301 -2.5 -2.16602 -3.5 -2.49902s-1.83301 -0.5 -2.5 -0.5h-10zM481.003 501.001c0 28 -4.83105 54.166 -14.498 78.499s-22.834 45.166 -39.501 62.499s-36.5 31 -59.5 41
s-48.167 15 -75.5 15c-29.333 0 -56.5 -4.66699 -81.5 -14s-46.5 -22.333 -64.5 -39s-32 -37 -42 -61s-15 -50 -15 -78c0 -29.333 4.5 -55.666 13.5 -78.999s21.833 -43 38.5 -59s36.667 -28.5 60 -37.5s48.666 -13.5 75.999 -13.5c32 0 60.833 5.66699 86.5 17
s47.167 25.833 64.5 43.5s30.5 37.334 39.5 59.001s13.5 43.167 13.5 64.5z" />
    <glyph glyph-name="colon" unicode=":" horiz-adv-x="232" 
d="M84 24c0 9.33301 3 17.166 9 23.499s13.667 9.5 23 9.5s17 -3.16699 23 -9.5s9 -14.166 9 -23.499s-3.16699 -17 -9.5 -23c-5.66699 -6 -13.167 -9 -22.5 -9s-17 3 -23 9s-9 13.667 -9 23zM84 443c0 9.33301 3 17.166 9 23.499s13.667 9.5 23 9.5s17 -3.16699 23 -9.5
s9 -14.166 9 -23.499s-3.16699 -17 -9.5 -23c-5.66699 -6 -13.167 -9 -22.5 -9s-17 3 -23 9s-9 13.667 -9 23z" />
    <glyph glyph-name="semicolon" unicode=";" horiz-adv-x="241" 
d="M91 26c0 8 2.66699 15.1699 8 21.5029s12.666 9.5 21.999 9.5s16.666 -3.33301 21.999 -10s8 -16.334 8 -29.001c0 -25.333 -5.5 -50 -16.5 -74c-10.333 -24 -24.166 -45 -41.499 -63l-2 1c-1.33301 1.33301 -2 2.66602 -2 3.99902s0.666992 2.66602 2 3.99902
c2.66699 2.66699 6.66699 7.66699 12 15s10.833 16 16.5 26s10.667 21.333 15 34s6.5 26.334 6.5 41.001c-5.33301 -6.66699 -12.666 -10 -21.999 -10c-8 0 -14.667 2.66699 -20 8s-8 12.666 -8 21.999zM89 443.003c0 9.33301 3 17.166 9 23.499s13.667 9.5 23 9.5
s17 -3.16699 23 -9.5s9 -14.166 9 -23.499s-3.16699 -17 -9.5 -23c-5.66699 -6 -13.167 -9 -22.5 -9s-17 3 -23 9s-9 13.667 -9 23z" />
    <glyph glyph-name="less" unicode="&#x3c;" horiz-adv-x="580" 
d="M92 338l366 186v-6c0 -4 -3.33301 -7.33301 -10 -10l-322 -163c-4 -2 -7.83301 -4 -11.5 -6s-7.5 -3.33301 -11.5 -4c4 -1.33301 7.83301 -2.83301 11.5 -4.5s7.5 -3.5 11.5 -5.5l322 -163c6.66699 -2.66699 10 -6 10 -10v-6l-366 186v6z" />
    <glyph glyph-name="equal" unicode="=" horiz-adv-x="580" 
d="M90 270h400v-10h-400v10zM90 417h400v-10h-400v10z" />
    <glyph glyph-name="greater" unicode="&#x3e;" horiz-adv-x="580" 
d="M122 146v6.00098c0 4 3.33301 7.33301 10 10l322 163c4 1.33301 7.66699 3 11 5s7 3.66699 11 5c-6.66699 1.33301 -14 4.66602 -22 9.99902l-322 163c-6.66699 2.66699 -10 6 -10 10v6l366 -186v-6z" />
    <glyph glyph-name="question" unicode="?" horiz-adv-x="419" 
d="M52 640c8 8 17.168 16.1689 27.501 24.502s21.666 15.666 33.999 21.999s26 11.5 41 15.5c15.667 4 32.167 6 49.5 6c20 0 39.667 -3.33301 59 -10s36.333 -16 51 -28s26.667 -26.667 36 -44s14 -37.333 14 -60c0 -25.333 -4.16699 -47.166 -12.5 -65.499
s-18.666 -34.333 -30.999 -48s-25.833 -25.834 -40.5 -36.501s-28 -20.834 -40 -30.501s-22.333 -19.334 -31 -29.001s-13 -20.5 -13 -32.5l-4 -86h-8v87c0 13.333 4.16699 25 12.5 35s18.666 19.833 30.999 29.5s25.833 19.667 40.5 30s28.167 22.333 40.5 36
s22.666 29.334 30.999 47.001s12.5 38.834 12.5 63.501c0 20.667 -4.33301 39.167 -13 55.5s-19.667 30.166 -33 41.499s-29 20 -47 26s-36.333 9 -55 9c-24 0 -44.667 -3.33301 -62 -10s-32 -14 -44 -22s-21 -15.333 -27 -22s-9.66699 -10 -11 -10
s-2.66602 0.666992 -3.99902 2zM156.001 24.002c0 9.33301 3.16699 17.166 9.5 23.499c5.66699 6.33301 13.167 9.5 22.5 9.5s17.333 -3.16699 24 -9.5s10 -14.166 10 -23.499s-3.33301 -17 -10 -23s-14.667 -9 -24 -9s-17 3 -23 9s-9 13.667 -9 23z" />
    <glyph glyph-name="at" unicode="@" horiz-adv-x="821" 
d="M587 95c-17.333 0 -31.8271 2.83105 -43.4941 8.49805s-20.834 13.334 -27.501 23.001s-10.834 21.5 -12.501 35.5c-2.33301 13.333 -2.16602 28.666 0.500977 45.999c-17.333 -38.667 -38.333 -66.667 -63 -84s-52 -26 -82 -26c-17.333 0 -32.5 3 -45.5 9
s-23.667 14.333 -32 25s-14.5 23 -18.5 37s-6 29.333 -6 46c0 18.667 2.5 37.5 7.5 56.5s12.167 37.333 21.5 55s20.666 34.167 33.999 49.5s28.666 28.5 45.999 39.5s36.666 19.833 57.999 26.5s44 10 68 10c13.333 0 27.166 -1.33301 41.499 -4
s26.5 -6.33398 36.5 -11.001l-44 -168c-9.33301 -35.333 -13.666 -63.666 -12.999 -84.999s4.5 -38 11.5 -50s16.167 -19.833 27.5 -23.5s23.333 -5.5 36 -5.5c21.333 0 41.833 5.16699 61.5 15.5s37 25.5 52 45.5s27 44.333 36 73s13.5 60.667 13.5 96
c0 52 -8.83301 97.5 -26.5 136.5s-41.167 71.167 -70.5 96.5s-63.333 44.166 -102 56.499s-79 18.5 -121 18.5c-30.667 0 -60.834 -4.16699 -90.501 -12.5s-57.5 -20.166 -83.5 -35.499s-50 -34.166 -72 -56.499s-41 -47.333 -57 -75s-28.333 -58.167 -37 -91.5
s-13 -68.666 -13 -105.999c0 -60.667 9.83301 -114.167 29.5 -160.5s46.334 -85.333 80.001 -117s72.834 -55.5 117.501 -71.5s91.667 -24 141 -24c48 0 93.333 5.83301 136 17.5s82.667 30.167 120 55.5c2 1.33301 4 1.83301 6 1.5c2 -1 3.33301 -2.16699 4 -3.5l3 -5
c-38.667 -25.333 -80.167 -44.5 -124.5 -57.5s-92.5 -19.5 -144.5 -19.5s-101 8.33301 -147 25s-86.333 41.334 -121 74.001s-61.834 72.667 -81.501 120s-29.5 102.333 -29.5 165c0 56.667 9.66699 108.834 29 156.501s45.5 88.5 78.5 122.5s71.5 60.5 115.5 79.5
s91 28.5 141 28.5c29.333 0 57.666 -2.83301 84.999 -8.5s53.166 -14.334 77.499 -26.001s46.833 -26.334 67.5 -44.001s38.5 -38.167 53.5 -61.5s26.667 -50 35 -80s12.5 -62.667 12.5 -98c0 -36.667 -4.66699 -69.667 -14 -99s-22 -54.5 -38 -75.5
s-34.5 -37.167 -55.5 -48.5s-43.5 -17 -67.5 -17zM361.006 107.998c13.333 0 27.5 2.33398 42.5 7.00098s29.167 13 42.5 25s26 28.667 38 50s22.333 48.333 31 81l42 162c-10.667 2.66699 -20.5 4.83398 -29.5 6.50098s-20.833 2.5 -35.5 2.5
c-22.667 0 -44 -3.16699 -64 -9.5s-38.333 -15 -55 -26s-31.334 -23.833 -44.001 -38.5s-23.5 -30.334 -32.5 -47.001s-15.833 -34 -20.5 -52s-7 -36 -7 -54c0 -14.667 1.83301 -28.5 5.5 -41.5s9.33398 -24.333 17.001 -34s17.167 -17.334 28.5 -23.001s25 -8.5 41 -8.5z
" />
    <glyph glyph-name="A" unicode="A" horiz-adv-x="637" 
d="M616 0h-10c-2.66699 0 -4.66699 1.66699 -6 5l-97 234h-369l-98 -234c-1.33301 -3.33301 -3.33301 -5 -6 -5h-8l292 700h10zM138 249l360.998 -0.000976562l-173 414c-1.33301 4 -2.66602 7.5 -3.99902 10.5s-2.66602 6.5 -3.99902 10.5
c-1.33301 -4 -2.5 -7.66699 -3.5 -11c-1.66699 -3.33301 -3.16699 -6.66602 -4.5 -9.99902z" />
    <glyph glyph-name="B" unicode="B" horiz-adv-x="619" 
d="M116 0l-0.000976562 699.997h182c74.667 0 130.167 -15 166.5 -45s54.5 -73 54.5 -129c0 -20.667 -4.16699 -40.667 -12.5 -60s-19.5 -36.666 -33.5 -51.999s-30.833 -28.166 -50.5 -38.499c-20.333 -10.333 -41.833 -16.5 -64.5 -18.5
c29.333 -2.66699 56 -8.33398 80 -17.001s44.5 -20.5 61.5 -35.5s30 -32.5 39 -52.5s13.5 -42.667 13.5 -68c0 -29.333 -5 -55.666 -15 -78.999s-24.833 -42.666 -44.5 -57.999s-43.667 -27 -72 -35s-60.166 -12 -95.499 -12h-209zM127.999 349.997l0.000976562 -340.002
h197c33.333 0 63.5 3.66699 90.5 11s49.667 18.333 68 33s32.333 32.834 42 54.501s14.5 46.834 14.5 75.501c0 25.333 -5 48.333 -15 69s-24.333 38.167 -43 52.5s-41.334 25.333 -68.001 33s-56 11.5 -88 11.5h-198zM128 359.995l175.002 0.00195312
c37.333 0 69 5.16699 95 15.5s47.167 23.666 63.5 39.999s28.166 34.166 35.499 53.499s11 38.333 11 57c0 52 -17.333 92.333 -52 121s-87.334 43 -158.001 43h-170v-330z" />
    <glyph glyph-name="C" unicode="C" horiz-adv-x="683" 
d="M633 94c0.666992 0 1.66895 -0.329102 3.00195 -0.996094l5 -4c-14.667 -14.667 -30.5 -27.834 -47.5 -39.501s-35.5 -21.834 -55.5 -30.501s-42 -15.334 -66 -20.001s-50.333 -7 -79 -7c-46.667 0 -89.834 8.33301 -129.501 25s-74.167 40.334 -103.5 71.001
s-52 68.167 -68 112.5s-24 94.166 -24 149.499c0 53.333 8 102 24 146s38.833 81.667 68.5 113s65 55.666 106 72.999s86.5 26 136.5 26c22.667 0 44.167 -1.66699 64.5 -5s39.666 -8.66602 57.999 -15.999s35.833 -16 52.5 -26s33 -21.667 49 -35l-2 -3
c-0.666992 -1.33301 -2.33398 -2 -5.00098 -2s-8.66699 4 -18 12s-22.833 16.833 -40.5 26.5s-39.667 18.5 -66 26.5s-57.166 12 -92.499 12c-47.333 0 -90.666 -8 -129.999 -24s-73.333 -39.167 -102 -69.5s-51 -67 -67 -110s-24 -91.167 -24 -144.5
c0 -54.667 8 -103.334 24 -146.001s38 -79 66 -109s61 -53 99 -69s79.333 -24 124 -24c28 0 53.167 2 75.5 6s42.833 9.83301 61.5 17.5s36 17 52 28s31.667 23.833 47 38.5c1.33301 1.33301 2.66602 2 3.99902 2z" />
    <glyph glyph-name="D" unicode="D" horiz-adv-x="759" 
d="M690 350c0 -55.333 -8 -104.668 -24 -148.001s-38.167 -80 -66.5 -110s-62.333 -52.833 -102 -68.5s-83.5 -23.5 -131.5 -23.5h-250v700h250c48 0 91.833 -7.83301 131.5 -23.5s73.667 -38.5 102 -68.5s50.5 -66.667 66.5 -110s24 -92.666 24 -147.999zM677 349.998
c0 54.667 -7.5 103 -22.5 145s-36.167 77.5 -63.5 106.5s-60.166 51 -98.499 66s-80.5 22.5 -126.5 22.5h-238v-680h238c46 0 88.167 7.5 126.5 22.5s71.166 37 98.499 66s48.5 64.5 63.5 106.5s22.5 90.333 22.5 145z" />
    <glyph glyph-name="E" unicode="E" horiz-adv-x="582" 
d="M525 700v-11h-397v-328h337v-11h-337v-339h398l-1 -11h-409v700h409z" />
    <glyph glyph-name="F" unicode="F" horiz-adv-x="564" 
d="M525 700v-11h-397v-338h347v-11h-347v-340h-12v700h409z" />
    <glyph glyph-name="G" unicode="G" horiz-adv-x="739" 
d="M666 69c-17.333 -12 -35.0068 -22.6689 -53.0068 -32.002s-37.167 -17.333 -57.5 -24s-41.666 -11.834 -63.999 -15.501s-46.166 -5.5 -71.499 -5.5c-54.667 0 -103.667 8.33301 -147 25s-80.166 40.334 -110.499 71.001s-53.666 68.167 -69.999 112.5
s-24.5 94.166 -24.5 149.499c0 54.667 8 104.167 24 148.5s39 82 69 113s66.333 54.833 109 71.5s90.667 25 144 25c26 0 49.833 -1.66699 71.5 -5s41.834 -8.16602 60.501 -14.499s36.167 -14.666 52.5 -24.999c15.667 -10.333 31.5 -22.166 47.5 -35.499l-2 -3
c-1.33301 -2 -2.66602 -3 -3.99902 -3s-4.33301 2 -9 6s-10.667 8.66699 -18 14s-17 11.333 -29 18s-26 12.667 -42 18s-34.667 10 -56 14s-45.333 6 -72 6c-50.667 0 -96.667 -8 -138 -24s-76.333 -39 -105 -69s-51 -66.333 -67 -109s-24 -91.334 -24 -146.001
c0 -53.333 7.66699 -101.666 23 -144.999s37.666 -80 66.999 -110s65 -53 107 -69s89.667 -24 143 -24c24.667 0 47.334 1.66699 68.001 5s40.5 8 59.5 14s37.167 13.333 54.5 22s35.333 19 54 31v217h-158c-1.33301 0 -2.66602 0.5 -3.99902 1.5s-2 2.16699 -2 3.5v5h174
v-232v0z" />
    <glyph glyph-name="H" unicode="H" horiz-adv-x="748" 
d="M632 0h-12v350h-492v-350h-12v700h12v-339h492v339h12v-700z" />
    <glyph glyph-name="I" unicode="I" horiz-adv-x="244" 
d="M128 0h-12v700h12v-700z" />
    <glyph glyph-name="J" unicode="J" horiz-adv-x="407" 
d="M299 226c0 -39.333 -4.83105 -73.499 -14.498 -102.499s-23.167 -53.333 -40.5 -73s-38.333 -34.334 -63 -44.001s-51.667 -14.5 -81 -14.5c-27.333 0 -56 5 -86 15c0 0.666992 0.166992 1.16699 0.5 1.5s0.5 0.833008 0.5 1.5c0.666992 1.33301 1.16699 2.5 1.5 3.5
s1.83301 1.5 4.5 1.5c3.33301 0 7.16602 -0.666992 11.499 -2s9.66602 -2.83301 15.999 -4.5s13.5 -3.16699 21.5 -4.5s18 -2 30 -2c28 0 53.667 4.66699 77 14s43 23.333 59 42s28.5 42 37.5 70s13.5 60.667 13.5 98v474h12v-474z" />
    <glyph glyph-name="K" unicode="K" horiz-adv-x="611" 
d="M128 362l47.0029 -0.00488281c6.66699 0 12.167 0.166992 16.5 0.5s8.16602 1 11.499 2s6.66602 2.83301 9.99902 5.5s7 5.66699 11 9l326 313l9 6c2 1.33301 5 2 9 2h6l-340 -326c-6 -5.33301 -10.833 -9.16602 -14.5 -11.499s-8.83398 -4.16602 -15.501 -5.49902
c6 -1.33301 11.167 -3.16602 15.5 -5.49902s8.83301 -5.83301 13.5 -10.5l361 -341h-5c-5.33301 0 -9 0.5 -11 1.5s-4.33301 2.83301 -7 5.5l-344 325c-4 3.33301 -7.5 6.33301 -10.5 9s-6.16699 4.83398 -9.5 6.50098s-7.5 2.83398 -12.5 3.50098s-11.5 1 -19.5 1h-47v-352
h-12v700h12v-338z" />
    <glyph glyph-name="L" unicode="L" horiz-adv-x="500" 
d="M128 11h357v-11h-369v700h12v-689z" />
    <glyph glyph-name="M" unicode="M" horiz-adv-x="891" 
d="M450 150c0.666992 2.66699 2.66797 6 6.00098 10l308 536c1.33301 2.66699 3.66602 4 6.99902 4h4v-700h-10v669v9l-306 -533c-2.66699 -3.33301 -5 -5 -7 -5h-3c-2.66699 0 -5 1.66699 -7 5l-316 533v-4v-5v-669h-10v700h4c2.66699 0 5 -1.33301 7 -4l318 -536z" />
    <glyph glyph-name="N" unicode="N" horiz-adv-x="748" 
d="M120 700c2.66699 0 5 -1.33301 7 -4l495 -674v5v5v668h10v-700h-3c-2 0 -3.66699 1.33301 -5 4l-498 677v-6v-6v-669h-10v700h4v0z" />
    <glyph glyph-name="O" unicode="O" horiz-adv-x="784" 
d="M716 350c0 -55.333 -8 -105 -24 -149s-38.333 -81.5 -67 -112.5s-62.667 -54.667 -102 -71s-83 -24.5 -131 -24.5s-91.667 8.16699 -131 24.5s-73.333 40 -102 71s-51 68.5 -67 112.5s-24 93.667 -24 149c0 54.667 8 104.167 24 148.5s38.333 82 67 113
s62.667 54.833 102 71.5s83 25 131 25s91.667 -8.33301 131 -25s73.333 -40.334 102 -71.001s51 -68.167 67 -112.5s24 -94.166 24 -149.499zM702 350c0 54.667 -7.50195 103.334 -22.502 146.001s-36.167 79 -63.5 109s-60.166 53 -98.499 69s-80.166 24 -125.499 24
s-87 -8 -125 -24s-70.833 -39 -98.5 -69s-49.334 -66.333 -65.001 -109s-23.5 -91.334 -23.5 -146.001s7.83301 -103.334 23.5 -146.001s37.334 -79 65.001 -109s60.5 -52.833 98.5 -68.5s79.667 -23.5 125 -23.5c46 0 88 7.83301 126 23.5s70.667 38.5 98 68.5
s48.5 66.333 63.5 109s22.5 91.334 22.5 146.001z" />
    <glyph glyph-name="P" unicode="P" horiz-adv-x="559" 
d="M128 300l0.000976562 -300.001h-12v700h158c76 0 134.5 -16.5 175.5 -49.5s61.5 -83.167 61.5 -150.5c0 -29.333 -5.83301 -56.166 -17.5 -80.499s-27.834 -45.333 -48.501 -63s-45.667 -31.5 -75 -41.5s-61.333 -15 -96 -15h-146zM128.001 309.999h146
c34.667 0 65.667 5 93 15s50.833 23.5 70.5 40.5s34.834 37 45.501 60s16 47.833 16 74.5c0 62.667 -18.833 110 -56.5 142s-93.834 48 -168.501 48h-146v-380z" />
    <glyph glyph-name="Q" unicode="Q" horiz-adv-x="784" 
d="M716 350c0 -37.333 -3.66602 -72.3311 -10.999 -104.998s-18 -62.334 -32 -89.001s-31 -50.334 -51 -71.001s-42.333 -38 -67 -52l185 -196h-10c-2.66699 0 -4.83398 0.5 -6.50098 1.5c-1 1 -2.16699 1.83301 -3.5 2.5l-176 187c-22.667 -11.333 -46.667 -20 -72 -26
s-52 -9 -80 -9c-48 0 -91.667 8.16699 -131 24.5s-73.333 40 -102 71s-51 68.5 -67 112.5s-24 93.667 -24 149c0 54.667 8 104.167 24 148.5s38.333 82 67 113s62.667 54.833 102 71.5s83 25 131 25s91.667 -8.33301 131 -25s73.333 -40.334 102 -71.001
s51 -68.167 67 -112.5s24 -94.166 24 -149.499zM702.001 350.002c0 54.667 -7.50195 103.334 -22.502 146.001s-36.167 79 -63.5 109s-60.166 53 -98.499 69s-80.166 24 -125.499 24s-87 -8 -125 -24s-70.833 -39 -98.5 -69s-49.334 -66.333 -65.001 -109
s-23.5 -91.334 -23.5 -146.001s7.83301 -103.334 23.5 -146.001s37.334 -79 65.001 -109s60.5 -52.833 98.5 -68.5s79.667 -23.5 125 -23.5c46 0 88 7.83301 126 23.5s70.667 38.5 98 68.5s48.5 66.333 63.5 109s22.5 91.334 22.5 146.001z" />
    <glyph glyph-name="R" unicode="R" horiz-adv-x="590" 
d="M128 338l0.000976562 -337.999h-12v700h162c73.333 0 129.5 -14.167 168.5 -42.5s58.5 -72.5 58.5 -132.5c0 -28 -5.5 -53.5 -16.5 -76.5s-26.5 -42.5 -46.5 -58.5s-44 -28.5 -72 -37.5s-58.667 -13.833 -92 -14.5c3.33301 -1.33301 6.33301 -3 9 -5
s5.33398 -4.66699 8.00098 -8l273 -325h-8c-2.66699 0 -4.83398 0.333008 -6.50098 1s-3.83398 2.33398 -6.50098 5.00098l-262 314c-2.66699 3.33301 -5.5 6.16602 -8.5 8.49902s-6.16699 4.16602 -9.5 5.49902s-7.33301 2.33301 -12 3s-10.667 1 -18 1h-109z
M128.001 348.001l141 0.000976562c34.667 0 65.667 4 93 12s50.833 19.667 70.5 35s34.667 34 45 56s15.5 46.667 15.5 74c0 57.333 -18.5 99.166 -55.5 125.499s-90.167 39.5 -159.5 39.5h-150v-342z" />
    <glyph glyph-name="S" unicode="S" horiz-adv-x="529" 
d="M440 636c-1.33301 -2 -2.99609 -2.99316 -4.99609 -2.99316c-2.66699 0 -5.5 1.5 -8.5 4.5s-7.16699 7 -12.5 12s-12 10.333 -20 16s-17.5 10.834 -28.5 15.501s-23.667 8.66699 -38 12s-30.833 5 -49.5 5c-28.667 0 -54.167 -4.33301 -76.5 -13
s-40.833 -20.334 -55.5 -35.001s-26 -31.667 -34 -51s-12 -39.666 -12 -60.999c0 -26.667 5.33301 -49 16 -67s24.334 -33.333 41.001 -46s36 -23 58 -31s44.333 -15.667 67 -23s45 -15.333 67 -24s41.667 -19.334 59 -32.001s31.166 -28.334 41.499 -47.001
s15.5 -42.334 15.5 -71.001s-4.83301 -55.334 -14.5 -80.001s-23.667 -46.334 -42 -65.001s-40.833 -33.334 -67.5 -44.001s-57 -16 -91 -16c-24 0 -45.333 2 -64 6s-35.667 10 -51 18s-29.5 17.667 -42.5 29s-25.5 24 -37.5 38l2 2l2.5 2.5
c0.333008 0.333008 1.5 0.5 3.5 0.5s5 -2 9 -6l16 -16c6.66699 -6.66699 14.667 -13.667 24 -21s20.666 -14.333 33.999 -21s28.5 -12 45.5 -16s36.5 -6 58.5 -6c32 0 60.667 5.16699 86 15.5s46.666 24.333 63.999 42s30.666 38.167 39.999 61.5s14 48 14 74
c0 22 -3.33301 41 -10 57s-16 29.667 -28 41s-25.667 21.166 -41 29.499s-31.833 15.666 -49.5 21.999s-35.667 12.333 -54 18s-36.333 11.834 -54 18.501s-34.334 14.167 -50.001 22.5s-29.167 18.666 -40.5 30.999s-20.5 27 -27.5 44s-10.5 36.833 -10.5 59.5
s4.16699 44.167 12.5 64.5s20.5 38.333 36.5 54s35.667 28.167 59 37.5s50.333 14 81 14c34 0 64.167 -5.5 90.5 -16.5s50.833 -28.5 73.5 -52.5z" />
    <glyph glyph-name="T" unicode="T" horiz-adv-x="569" 
d="M554 700v-11h-262v-689h-12v689h-266v11h540z" />
    <glyph glyph-name="U" unicode="U" horiz-adv-x="720" 
d="M360 2c37.333 0 71 6.66895 101 20.002s55.333 31.666 76 54.999s36.5 50.666 47.5 81.999s16.5 65 16.5 101v440h12v-440c0 -37.333 -5.83301 -72.333 -17.5 -105s-28.5 -61 -50.5 -85s-48.667 -43.167 -80 -57.5s-66.333 -21.5 -105 -21.5s-73.667 7.16699 -105 21.5
s-58 33.5 -80 57.5s-38.833 52.333 -50.5 85s-17.5 67.667 -17.5 105v440h12v-439c0 -36 5.5 -69.667 16.5 -101s26.833 -58.833 47.5 -82.5s46 -42.167 76 -55.5s63.667 -20 101 -20z" />
    <glyph glyph-name="V" unicode="V" horiz-adv-x="637" 
d="M22 700h8.00098c2.66699 0 4.66699 -1.66699 6 -5l274 -658l8 -21c1.33301 4 2.66602 7.66699 3.99902 11l4 10l274 658c1.33301 3.33301 4 5 8 5h8l-292 -700h-10z" />
    <glyph glyph-name="W" unicode="W" horiz-adv-x="1001" 
d="M31 700h9c2.66699 0 4.66699 -1.66699 6 -5l204 -653l8 -27c2.66699 10 5.33398 19 8.00098 27l227 653c1.33301 3.33301 3.66602 5 6.99902 5h2c2.66699 0 4.66699 -1.66699 6 -5l228 -653l7 -27c2 10 4.33301 19 7 27l205 653c1.33301 3.33301 3.66602 5 6.99902 5h8
l-222 -700h-10l-233 672c-2 6.66699 -3.66699 12 -5 16c-1.33301 -4 -2.66602 -9.33301 -3.99902 -16l-233 -672h-10z" />
    <glyph glyph-name="X" unicode="X" horiz-adv-x="600" 
d="M292 358l-251 341.999h11c2.66699 0 4.66699 -1 6 -3s2.33301 -3.33301 3 -4l239 -329l5 8l234 321c1.33301 1.33301 2.66602 2.83301 3.99902 4.5s3 2.5 5 2.5h11l-251 -340l263 -360h-11c-2.66699 0 -4.66699 1 -6 3s-2.33301 3.33301 -3 4l-251 346
c0 -1.33301 -1.33301 -3.66602 -4 -6.99902l-247 -339c-1.33301 -1.33301 -2.66602 -2.83301 -3.99902 -4.5s-3 -2.5 -5 -2.5h-11z" />
    <glyph glyph-name="Y" unicode="Y" horiz-adv-x="570" 
d="M291 298l0.000976562 -298.001h-12v298l-261 402h10c2.66699 0 5 -1.33301 7 -4l235 -365l8 -12c2.66699 -4 5 -8 7 -12c1.33301 4 3.5 7.83301 6.5 11.5s5.83301 7.83398 8.5 12.501l235 365c1.33301 2.66699 3.66602 4 6.99902 4h10z" />
    <glyph glyph-name="Z" unicode="Z" horiz-adv-x="594" 
d="M550 700v-2c0 -2.66699 -1.33301 -6 -4 -10l-488 -677h490v-11h-506v2c0 2 0.166992 3.5 0.5 4.5c-0.333008 1 0.166992 2.5 1.5 4.5l488 678h-482v11h500z" />
    <glyph glyph-name="bracketleft" unicode="[" horiz-adv-x="289" 
d="M110 -121v872h137v-3c0 -4 -2.33301 -6 -7 -6h-119v-854h119c4.66699 0 7 -2 7 -6v-3h-137z" />
    <glyph glyph-name="backslash" unicode="\" horiz-adv-x="420" 
d="M42 720l6 -0.000976562c5.33301 0 8.66602 -2 9.99902 -6l320 -753h-4c-2 0 -4.16699 0.333008 -6.5 1s-4.16602 2.33398 -5.49902 5.00098z" />
    <glyph glyph-name="bracketright" unicode="]" horiz-adv-x="289" 
d="M42 -118c0 4 2.33301 6 7 6h119v854h-119c-4.66699 0 -7 2 -7 6v3h137v-872h-137v3z" />
    <glyph glyph-name="asciicircum" unicode="^" horiz-adv-x="580" 
d="M476 366l-6.99805 0.000976562c-4 0 -7.33301 2.33301 -10 7l-160 293c-1.33301 3.33301 -2.83301 6.5 -4.5 9.5s-3.16699 6.5 -4.5 10.5c-2.66699 -6.66699 -5.66699 -13.334 -9 -20.001l-160 -293c-0.666992 -1.33301 -1.83398 -2.83301 -3.50098 -4.5
s-3.83398 -2.5 -6.50098 -2.5h-7l183 334h6z" />
    <glyph glyph-name="underscore" unicode="_" horiz-adv-x="443" 
d="M418 -120v-11h-394v11h394z" />
    <glyph glyph-name="grave" unicode="`" 
d="M137 708c5.33301 0 9.5 -0.666992 12.5 -2s5.83301 -4.33301 8.5 -9l82 -118h-7c-4 0 -6.66699 1.33301 -8 4l-101 125h13z" />
    <glyph glyph-name="a" unicode="a" horiz-adv-x="473" 
d="M384 0c-4.66699 0 -6.99902 2.66504 -6.99902 7.99805l-3 80c-14 -14.667 -28 -28 -42 -40s-28.833 -22 -44.5 -30s-32.5 -14.333 -50.5 -19s-38 -7 -60 -7c-14.667 0 -29.5 2.33301 -44.5 7s-28.5 11.834 -40.5 21.501s-21.833 22.334 -29.5 38.001
s-11.5 34.5 -11.5 56.5s6.5 41.667 19.5 59s32.833 32.333 59.5 45s60.167 22.5 100.5 29.5s88.166 11.167 143.499 12.5v63c0 25.333 -2.83301 48.333 -8.5 69s-14 38 -25 52s-24.833 24.667 -41.5 32s-36 11 -58 11c-17.333 0 -33 -1.83301 -47 -5.5
s-26.5 -8.16699 -37.5 -13.5s-20.5 -11.166 -28.5 -17.499s-15 -12.166 -21 -17.499s-11 -9.83301 -15 -13.5s-6.66699 -5.5 -8 -5.5s-3 1 -5 3l-2 2c24 25.333 48.833 44.666 74.5 57.999s55.5 20 89.5 20c25.333 0 47 -4 65 -12s33 -19.5 45 -34.5
s20.833 -33.333 26.5 -55s8.5 -45.834 8.5 -72.501v-324h-2zM177.001 1.99805c22.667 0 43.4971 2.66699 62.4971 8s36.167 12.5 51.5 21.5s29.833 19.333 43.5 31s26.834 24.167 39.501 37.5v151c-105.333 -3.33301 -183.5 -16.333 -234.5 -39s-76.5 -55 -76.5 -97
c0 -20 3.16699 -37 9.5 -51s14.833 -25.5 25.5 -34.5s22.834 -15.833 36.501 -20.5s27.834 -7 42.501 -7z" />
    <glyph glyph-name="b" unicode="b" horiz-adv-x="543" 
d="M92 0l0.00195312 719.999h12v-331c21.333 33.333 47.5 59.833 78.5 79.5s67.5 29.5 109.5 29.5c30 0 56.833 -5.33301 80.5 -16s43.5 -26 59.5 -46s28.333 -45 37 -75s13 -64 13 -102c0 -40 -4.66699 -76.167 -14 -108.5s-23 -60.166 -41 -83.499
s-40.333 -41.333 -67 -54s-57.334 -19 -92.001 -19c-36 0 -67.667 7.16699 -95 21.5s-50.333 36.5 -69 66.5l-2 -75c0 -1.33301 -0.333008 -2.83301 -1 -4.5s-2.33398 -2.5 -5.00098 -2.5h-4zM292.002 487.999c-41.333 0 -77.334 -10.333 -108.001 -31
s-57.334 -48.667 -80.001 -84v-275c21.333 -34.667 45.333 -59 72 -73s57 -21 91 -21c34.667 0 64.834 6.33301 90.501 19s46.834 30.167 63.501 52.5s29 49 37 80s12 65.167 12 102.5c0 74.667 -15.667 131.667 -47 171s-75 59 -131 59z" />
    <glyph glyph-name="c" unicode="c" horiz-adv-x="466" 
d="M411 444c-1.33301 -1.33301 -2.66602 -1.99512 -3.99902 -1.99512c-2 0 -5.66699 2.33301 -11 7s-13.333 10 -24 16s-24 11.333 -40 16s-35 7 -57 7c-32 0 -60.5 -5.66699 -85.5 -17s-46.167 -27.5 -63.5 -48.5s-30.5 -46.5 -39.5 -76.5s-13.5 -63.667 -13.5 -101
c0 -38.667 4.5 -72.834 13.5 -102.501s22.167 -54.834 39.5 -75.501s37.833 -36.334 61.5 -47.001s50.167 -16 79.5 -16c26 0 48 3 66 9s32.833 12.667 44.5 20s20.5 14 26.5 20s10 9 12 9c1.33301 0 2.66602 -0.666992 3.99902 -2l2 -2
c-5.33301 -7.33301 -12.666 -14.833 -21.999 -22.5s-20.666 -14.5 -33.999 -20.5s-28.333 -11 -45 -15s-34.667 -6 -54 -6c-32 0 -60.5 5.66699 -85.5 17s-46.5 27.666 -64.5 48.999s-31.833 47.666 -41.5 78.999s-14.5 66.666 -14.5 105.999c0 38 4.83301 72.667 14.5 104
s23.667 58 42 80s40.666 39 66.999 51s56.5 18 90.5 18c29.333 0 55.666 -4.66699 78.999 -14s43.333 -21.666 60 -36.999z" />
    <glyph glyph-name="d" unicode="d" horiz-adv-x="543" 
d="M448 0c-4 0 -6 2.66602 -6 7.99902l-2 94c-22 -33.333 -48.667 -59.666 -80 -78.999c-30.667 -19.333 -64.667 -29 -102 -29c-64 0 -112.667 20.333 -146 61s-50 103.667 -50 189c0 35.333 4.33301 68.5 13 99.5s22 57.833 40 80.5s40.5 40.667 67.5 54
c26.333 13.333 57.5 20 93.5 20s67.667 -7.16699 95 -21.5s50.333 -36.5 69 -66.5v310h12v-720h-4zM258 3.99902c36 0 69.668 10.166 101.001 30.499c31.333 19.667 58.333 47.5 81 83.5v276c-21.333 34.667 -45.333 59 -72 73s-57.334 21 -92.001 21
s-64.5 -6.33301 -89.5 -19s-46 -30 -63 -52s-29.5 -47.667 -37.5 -77s-12 -61.333 -12 -96c0 -81.333 15.667 -141.666 47 -180.999s77 -59 137 -59z" />
    <glyph glyph-name="e" unicode="e" horiz-adv-x="515" 
d="M275 498c25.333 0 49.499 -4.66699 72.499 -14s42.833 -23 59.5 -41s29.834 -40 39.501 -66s14.5 -56 14.5 -90c0 -1.33301 -0.5 -2.5 -1.5 -3.5s-2.5 -1.5 -4.5 -1.5h-381c-0.666992 -4.66699 -1 -9.16699 -1 -13.5v-13.5c0 -40.667 4.83301 -76.667 14.5 -108
s23.5 -57.5 41.5 -78.5s39.5 -37 64.5 -48s52.833 -16.5 83.5 -16.5c27.333 0 51 3 71 9s36.667 12.667 50 20s23.5 14 30.5 20s11.167 9 12.5 9s2.66602 -0.666992 3.99902 -2l2 -2c-5.33301 -6.66699 -13.666 -13.834 -24.999 -21.501s-24.5 -14.667 -39.5 -21
s-31.5 -11.5 -49.5 -15.5s-36.667 -6 -56 -6c-33.333 0 -63.5 6 -90.5 18s-49.667 29 -68 51s-32.5 49.333 -42.5 82s-15 69.334 -15 110.001c0 36 4.83301 68.833 14.5 98.5s23.667 55.167 42 76.5s40.833 38 67.5 50s56.667 18 90 18zM274.999 488
c-29.333 0 -55.8311 -4.6709 -79.498 -14.0039s-43.834 -22.666 -60.501 -39.999s-30.167 -38.166 -40.5 -62.499c-11 -24.333 -17.833 -51.166 -20.5 -80.499h376c0 32 -4.5 60.167 -13.5 84.5s-21.333 44.833 -37 61.5s-34.334 29.334 -56.001 38.001s-44.5 13 -68.5 13z
" />
    <glyph glyph-name="f" unicode="f" horiz-adv-x="332" 
d="M118 0l-0.000976562 459.001l-82 2c-4 0 -6 1.33301 -6 4v4h88v75c0 28 3.33301 52.333 10 73s16 37.667 28 51s26 23.166 42 29.499s34 9.5 54 9.5c9.33301 0 19.333 -0.833008 30 -2.5s19.334 -4.5 26.001 -8.5l-1 -4c-0.666992 -2.66699 -2 -3.66699 -4 -3
s-5 1.5 -9 2.5s-9.5 2.16699 -16.5 3.5s-15.5 2 -25.5 2c-17.333 0 -33.333 -2.83301 -48 -8.5s-27.5 -14.5 -38.5 -26.5s-19.667 -27.667 -26 -47s-9.5 -43 -9.5 -71v-75h175v-10h-175v-459h-12z" />
    <glyph glyph-name="g" unicode="g" horiz-adv-x="502" 
d="M243 498c21.333 0 41 -2.83105 59 -8.49805s34 -13.5 48 -23.5h119v-2c0 -2 -0.833008 -3.66699 -2.5 -5s-3.5 -2 -5.5 -2l-98 -2c14.667 -14 26 -30.5 34 -49.5s12 -40.167 12 -63.5s-3.83301 -44.5 -11.5 -63.5s-18.834 -35.5 -33.501 -49.5s-32.167 -24.667 -52.5 -32
s-43.166 -11 -68.499 -11c-32.667 0 -61.334 6 -86.001 18c-8 -4.66699 -15.5 -9.83398 -22.5 -15.501s-13.167 -11.834 -18.5 -18.501s-9.33301 -13.667 -12 -21s-4 -14 -4 -20c0 -16.667 5.16699 -29.334 15.5 -38.001s24 -15.334 41 -20.001s36.333 -7.5 58 -8.5
s43.834 -2 66.501 -3s44.834 -2.66699 66.501 -5s41 -7 58 -14s30.667 -16.667 41 -29s15.5 -29.166 15.5 -50.499c0 -20 -5 -38.833 -15 -56.5s-24.333 -33.5 -43 -47.5s-41 -25 -67 -33s-55.333 -12 -88 -12c-33.333 0 -62.5 3.5 -87.5 10.5s-46.167 16.5 -63.5 28.5
s-30.5 26 -39.5 42s-13.5 33 -13.5 51c0 28 9.5 52 28.5 72s44.5 35.667 76.5 47c-18.667 4.66699 -33.5 12 -44.5 22s-16.5 24.667 -16.5 44c0 6.66699 1.5 13.667 4.5 21s6.83301 14.5 11.5 21.5s10.667 13.833 18 20.5s15.666 12.667 24.999 18
c-22.667 13.333 -40.167 31.333 -52.5 54s-18.5 48.667 -18.5 78c0 22.667 3.83301 43.667 11.5 63s18.834 35.833 33.501 49.5s32.167 24.334 52.5 32.001s43.166 11.5 68.499 11.5zM451 -38.998c0 18.667 -4.5 33.5039 -13.5 44.5039s-21.167 19.667 -36.5 26
s-33 10.666 -53 12.999s-40.667 4.16602 -62 5.49902s-42.333 2.33301 -63 3s-40 3 -58 7c-16 -5.33301 -30.5 -11.833 -43.5 -19.5s-24.333 -16.334 -34 -26.001s-17.167 -20.334 -22.5 -32.001s-8 -24.5 -8 -38.5c0 -17.333 4.5 -33.333 13.5 -48s21.833 -27.5 38.5 -38.5
s36.667 -19.667 60 -26s50 -9.5 80 -9.5c26.667 0 52.167 3.33301 76.5 10s45.833 16.167 64.5 28.5s33.5 27 44.5 44s16.5 35.833 16.5 56.5zM243 196.006c24 0 45.498 3.5 64.498 10.5s35.167 17 48.5 30s23.5 28.5 30.5 46.5s10.5 37.667 10.5 59s-3.5 41 -10.5 59
s-17.167 33.5 -30.5 46.5s-29.666 23 -48.999 30s-40.666 10.5 -63.999 10.5c-24 0 -45.5 -3.5 -64.5 -10.5s-35.167 -17 -48.5 -30s-23.5 -28.5 -30.5 -46.5s-10.5 -37.667 -10.5 -59s3.5 -41 10.5 -59s17.167 -33.5 30.5 -46.5s29.5 -23 48.5 -30s40.5 -10.5 64.5 -10.5z
" />
    <glyph glyph-name="h" unicode="h" horiz-adv-x="543" 
d="M92 0v719.999h12v-332c11.333 16.667 24.166 31.834 38.499 45.501s29.5 25.167 45.5 34.5s33 16.666 51 21.999s36.667 8 56 8c54.667 0 95.334 -16.167 122.001 -48.5s40 -77.5 40 -135.5v-314h-12v314c0 27.333 -3 51.833 -9 73.5s-15.167 39.834 -27.5 54.501
s-28 26 -47 34s-41.167 12 -66.5 12c-38.667 0 -74.167 -10.333 -106.5 -31s-60.5 -49 -84.5 -85v-372h-12z" />
    <glyph glyph-name="i" unicode="i" horiz-adv-x="208" 
d="M110 490v-490h-12v490h12zM132 672c0 -6.66699 -3 -12.834 -9 -18.501s-12.333 -8.5 -19 -8.5c-8 0 -14.667 2.83301 -20 8.5s-8 11.834 -8 18.501c0 8 2.66699 14.667 8 20s12 8 20 8c6.66699 0 13 -2.66699 19 -8s9 -12 9 -20z" />
    <glyph glyph-name="j" unicode="j" horiz-adv-x="208" 
d="M110 490l-0.000976562 -576c0 -14.667 -2.33301 -28.167 -7 -40.5s-11.334 -23 -20.001 -32s-19 -16 -31 -21s-25.333 -7.5 -40 -7.5c-9.33301 0 -17.166 0.833008 -23.499 2.5s-12.5 4.5 -18.5 8.5l2 4c1.33301 2.66699 2.83301 4 4.5 4s4 -0.666992 7 -2
s6.83301 -2.83301 11.5 -4.5s10.334 -2.5 17.001 -2.5c28 0 49.333 8.5 64 25.5s22 38.833 22 65.5v576h12zM131.999 672c0 -6.66699 -3 -12.834 -9 -18.501s-12.333 -8.5 -19 -8.5c-8 0 -14.667 2.83301 -20 8.5s-8 11.834 -8 18.501c0 8 2.66699 14.667 8 20s12 8 20 8
c6.66699 0 13 -2.66699 19 -8s9 -12 9 -20z" />
    <glyph glyph-name="k" unicode="k" horiz-adv-x="448" 
d="M104 720l-0.00292969 -452.002h23c2.66699 0 6.16699 0.333008 10.5 1s8.83301 3.33398 13.5 8.00098l233 205c2.66699 2.66699 5.33398 4.66699 8.00098 6s6 2 10 2h9l-248 -217c-4.66699 -4.66699 -9 -7.66699 -13 -9c4.66699 -1.33301 8.83398 -3 12.501 -5
s6.83398 -4.33301 9.50098 -7l259 -252h-9c-2.66699 0 -5 0.333008 -7 1s-4.33301 2.33398 -7 5.00098l-246 239c-6 5.33301 -11.333 9 -16 11s-12 3 -22 3h-20v-259h-12v720h12z" />
    <glyph glyph-name="l" unicode="l" horiz-adv-x="208" 
d="M110 720v-720h-12v720h12z" />
    <glyph glyph-name="m" unicode="m" horiz-adv-x="789" 
d="M92 0l0.00195312 489.996h3c4.66699 0 7 -2.66699 7 -8l2 -92c18.667 33.333 41.667 59.666 69 78.999s57 29 89 29c39.333 0 70.166 -12.167 92.499 -36.5c22.333 -23.667 36.166 -58.167 41.499 -103.5c4 24 10.833 44.667 20.5 62s21.5 31.833 35.5 43.5
s29.5 20.334 46.5 26.001s34.833 8.5 53.5 8.5c22.667 0 43.334 -4 62.001 -12s34.667 -19.667 48 -35s23.5 -34.666 30.5 -57.999s10.5 -49.666 10.5 -78.999v-314h-12v314c0 56 -12.167 99 -36.5 129s-58.5 45 -102.5 45c-20 0 -39 -3.66699 -57 -11s-34 -18.333 -48 -33
s-25.167 -32.667 -33.5 -54s-12.5 -46.666 -12.5 -75.999v-314h-12v314c0 27.333 -2.83301 51.833 -8.5 73.5s-13.834 39.834 -24.501 54.501s-24 26 -40 34s-34.333 12 -55 12c-32 0 -61.167 -10 -87.5 -30s-49.5 -48 -69.5 -84v-374h-12z" />
    <glyph glyph-name="n" unicode="n" horiz-adv-x="543" 
d="M92 0l-0.000976562 489.999h3c4.66699 0 7 -2.66699 7 -8l2 -94c11.333 16.667 24 31.834 38 45.501s29.167 25.167 45.5 34.5s33.5 16.666 51.5 21.999s36.667 8 56 8c54.667 0 95.334 -16.167 122.001 -48.5s40 -77.5 40 -135.5v-314h-12v314
c0 27.333 -3 51.833 -9 73.5s-15.167 39.834 -27.5 54.501s-28 26 -47 34s-41.167 12 -66.5 12c-38.667 0 -74.167 -10.333 -106.5 -31s-60.5 -49 -84.5 -85v-372h-12z" />
    <glyph glyph-name="o" unicode="o" horiz-adv-x="550" 
d="M275 498c34.667 0 65.168 -6 91.501 -18s48.666 -29 66.999 -51s32.166 -48.667 41.499 -80s14 -66 14 -104s-4.66699 -72.333 -14 -103s-23.166 -57 -41.499 -79s-40.833 -39 -67.5 -51s-57 -18 -91 -18c-34.667 0 -65.167 6 -91.5 18s-48.666 29 -66.999 51
s-32.166 48.333 -41.499 79s-14 65 -14 103s4.66699 72.667 14 104s23.166 58 41.499 80s40.666 39 66.999 51s56.833 18 91.5 18zM275.001 4c33.333 0 62.666 5.83301 87.999 17.5s46.5 28 63.5 49s29.667 46.333 38 76s12.5 62.5 12.5 98.5s-4.16699 68.833 -12.5 98.5
s-21 55.167 -38 76.5s-38.167 38 -63.5 50s-54.666 18 -87.999 18s-62.666 -6 -87.999 -18s-46.5 -28.667 -63.5 -50s-29.667 -46.833 -38 -76.5s-12.5 -62.5 -12.5 -98.5s4.16699 -68.833 12.5 -98.5s21 -55 38 -76s38.167 -37.333 63.5 -49s54.666 -17.5 87.999 -17.5z
" />
    <glyph glyph-name="p" unicode="p" horiz-adv-x="543" 
d="M92 -180v670.001h3c4.66699 0 7 -2.66699 7 -8l2 -93c22 33.333 48.5 59.833 79.5 79.5s65.167 29.5 102.5 29.5c63.333 0 111.833 -20.333 145.5 -61s50.5 -103.667 50.5 -189c0 -36 -4.66699 -69.333 -14 -100s-23 -57.334 -41 -80.001s-40.333 -40.667 -67 -54
s-57.667 -20 -93 -20c-72 0 -126.333 29.333 -163 88v-262h-12zM286 488.001c-36 0 -69.666 -10.166 -100.999 -30.499s-58.333 -48.5 -81 -84.5v-275c21.333 -34.667 45.166 -59 71.499 -73s56.833 -21 91.5 -21s64.5 6.33301 89.5 19s46 30 63 52s29.667 47.667 38 77
s12.5 61.333 12.5 96c0 81.333 -15.667 141.666 -47 180.999s-77 59 -137 59z" />
    <glyph glyph-name="q" unicode="q" horiz-adv-x="542" 
d="M452 490v-670.001h-12v282c-22 -33.333 -48.667 -59.666 -80 -78.999c-30.667 -19.333 -64.667 -29 -102 -29c-64 0 -112.667 20.333 -146 61s-50 103.667 -50 189c0 35.333 4.33301 68.5 13 99.5s22 57.833 40 80.5s40.5 40.667 67.5 54c26.333 13.333 57.5 20 93.5 20
s67.667 -7.16699 95 -21.5s50.333 -36.5 69 -66.5l2 72c0 5.33301 2 8 6 8h4zM258 3.99902c36 0 69.667 10.166 101 30.499c31.333 19.667 58.333 47.5 81 83.5v276c-20 33.333 -43.667 57.333 -71 72s-58.333 22 -93 22s-64.5 -6.33301 -89.5 -19s-46 -30 -63 -52
s-29.5 -47.667 -37.5 -77s-12 -61.333 -12 -96c0 -81.333 15.667 -141.666 47 -180.999s77 -59 137 -59z" />
    <glyph glyph-name="r" unicode="r" horiz-adv-x="344" 
d="M92 0l0.00292969 490.001h3c4.66699 0 7 -2.66699 7 -8l2 -136c6.66699 24 15 45.5 25 64.5s21.667 35 35 48s28.666 22.833 45.999 29.5s37.333 10 60 10c9.33301 0 19.166 -0.666992 29.499 -2s19.5 -4.33301 27.5 -9l-2 -4
c-0.666992 -1.33301 -1.33398 -2.33301 -2.00098 -3s-1.66699 -1 -3 -1s-3.33301 0.5 -6 1.5s-6 1.83301 -10 2.5s-8.66699 1.5 -14 2.5s-12 1.5 -20 1.5c-22 0 -41.5 -3.5 -58.5 -10.5s-32.167 -17.333 -45.5 -31s-25 -30.834 -35 -51.501s-19 -44.667 -27 -72v-322h-12z
" />
    <glyph glyph-name="s" unicode="s" horiz-adv-x="418" 
d="M346 447c-1.33301 -2 -2.66309 -3.00391 -3.99609 -3.00391c-2.66699 0 -6.66699 2.33301 -12 7s-13 9.66699 -23 15s-22.333 10.333 -37 15s-33.334 7 -56.001 7c-20.667 0 -39.5 -3.16699 -56.5 -9.5s-31.667 -14.666 -44 -24.999s-22 -22.5 -29 -36.5
s-10.5 -28.333 -10.5 -43c0 -17.333 4.33301 -32 13 -44s19.667 -22 33 -30s28.666 -15 45.999 -21s35 -11.667 53 -17s35.667 -11 53 -17s32.666 -13.667 45.999 -23s24.333 -20.833 33 -34.5s13 -30.5 13 -50.5s-3.66699 -38.833 -11 -56.5s-17.833 -33 -31.5 -46
s-30.334 -23.333 -50.001 -31s-42.167 -11.5 -67.5 -11.5c-17.333 0 -33.166 1.33301 -47.499 4s-27.333 6.66699 -39 12s-22.667 11.666 -33 18.999s-20.5 15.333 -30.5 24l3 3l2.5 2.5c0.333008 0.333008 1.5 0.5 3.5 0.5c2.66699 0 7 -2.83301 13 -8.5s14.5 -12 25.5 -19
s24.833 -13.333 41.5 -19s37 -8.5 61 -8.5s45.167 3.5 63.5 10.5s33.833 16.667 46.5 29s22.167 26.5 28.5 42.5s9.5 33.333 9.5 52s-4 34.334 -12 47.001s-18.833 23.334 -32.5 32.001s-29.167 16 -46.5 22s-35 11.667 -53 17s-35.667 11 -53 17s-32.833 13.333 -46.5 22
s-24.5 19.5 -32.5 32.5s-12 29.167 -12 48.5c0 16 3.66699 31.5 11 46.5s17.666 28.333 30.999 40s29.166 20.834 47.499 27.501c17.667 6.66699 37.834 10 60.501 10c28 0 52.5 -3.66699 73.5 -11c20.333 -7.33301 40.5 -19.666 60.5 -36.999z" />
    <glyph glyph-name="t" unicode="t" horiz-adv-x="328" 
d="M212 -8c-28.667 0 -51.165 7.83105 -67.498 23.498s-24.5 41.5 -24.5 77.5v366h-82c-4 0 -6 1.66699 -6 5v3l88 2l4 197c0 1.33301 0.333008 2.83301 1 4.5s1.66699 2.5 3 2.5h4v-204h166v-10h-166v-366c0 -16.667 2 -30.667 6 -42s9.66699 -20.666 17 -27.999
s15.833 -12.666 25.5 -15.999c10.333 -3.33301 20.833 -5 31.5 -5c14 0 26.167 2.16699 36.5 6.5s19.166 9 26.499 14s13.333 9.66699 18 14s7.66699 6.5 9 6.5s2.66602 -0.666992 3.99902 -2l2 -2c-5.33301 -6.66699 -11.333 -12.834 -18 -18.501
s-14.334 -10.667 -23.001 -15s-17.667 -7.66602 -27 -9.99902s-18.666 -3.5 -27.999 -3.5z" />
    <glyph glyph-name="u" unicode="u" horiz-adv-x="542" 
d="M98 490l0.000976562 -313.999c0 -27.333 3 -51.833 9 -73.5s15.333 -39.834 28 -54.501s28.334 -26 47.001 -34s40.667 -12 66 -12c38.667 0 74 10.167 106 30.5s60.667 48.5 86 84.5v373h12v-490h-4c-4 0 -6 2.66699 -6 8l-2 94c-12 -16.667 -25 -31.834 -39 -45.501
s-29.167 -25.167 -45.5 -34.5s-33.5 -16.666 -51.5 -21.999c-18.667 -5.33301 -37.334 -8 -56.001 -8c-54.667 0 -95.334 16.167 -122.001 48.5s-40 77.5 -40 135.5v314h12z" />
    <glyph glyph-name="v" unicode="v" horiz-adv-x="489" 
d="M27 490h7.00195c2.66699 0 4.66699 -0.666992 6 -2s2.33301 -3 3 -5l195 -449c1.33301 -2.66699 2.66602 -5.66699 3.99902 -9s2 -6.33301 2 -9c1.33301 6.66699 3.66602 12.667 6.99902 18l195 449c2.66699 4.66699 5.66699 7 9 7h7l-213 -490h-9z" />
    <glyph glyph-name="w" unicode="w" horiz-adv-x="747" 
d="M32 490l8.00098 -0.000976562c2.66699 0 4.66699 -0.666992 6 -2s2 -3 2 -5l150 -449c1.33301 -4 2.66602 -7.66699 3.99902 -11s2.33301 -6.66602 3 -9.99902c2 6.66699 4.33301 13.667 7 21l156 454c1.33301 3.33301 2.66602 5 3.99902 5h4c2.66699 0 4 -1.66699 4 -5
l156 -454c1.33301 -4 2.33301 -7.33301 3 -10s1.66699 -6 3 -10c0.666992 4 1.5 7.33301 2.5 10s2.16699 6 3.5 10l150 449c2.66699 4.66699 6 7 10 7h6l-168 -490h-4c-2.66699 0 -4.66699 1.66699 -6 5l-158 456c-2 5.33301 -3.33301 10 -4 14
c-0.666992 -2.66699 -1.5 -5 -2.5 -7s-1.5 -4.33301 -1.5 -7l-160 -456c-1.33301 -3.33301 -2.66602 -5 -3.99902 -5h-6z" />
    <glyph glyph-name="x" unicode="x" horiz-adv-x="444" 
d="M214 249l-176.002 240.999h10c2.66699 0 4.66699 -1 6 -3s2.66602 -3.33301 3.99902 -4l164 -227c0.666992 1.33301 1.33398 2.33301 2.00098 3c0 0.666992 0.666992 2 2 4l160 220c1.33301 1.33301 2.66602 2.83301 3.99902 4.5s3.33301 2.5 6 2.5h10l-176 -240
l184 -250h-12c-2.66699 0 -4.5 1 -5.5 3c-0.333008 2 -1.16602 3.33301 -2.49902 4l-172 237c0 -1.33301 -1.33301 -3.66602 -4 -6.99902l-168 -230c-1.33301 -1.33301 -2.66602 -2.83301 -3.99902 -4.5s-2.66602 -2.5 -3.99902 -2.5h-12z" />
    <glyph glyph-name="y" unicode="y" horiz-adv-x="489" 
d="M174 -169c-1.33301 -2.66699 -2.83398 -5.16699 -4.50098 -7.5c-2.33301 -2.33301 -4.83301 -3.5 -7.5 -3.5h-6l84 188l-212 482h6c2.66699 0 5 -0.666992 7 -2s3 -3 3 -5l196 -445c1.33301 -2.66699 2.5 -5.66699 3.5 -9s1.83301 -6.33301 2.5 -9
c0.666992 3.33301 1.5 6.5 2.5 9.5s2.16699 5.83301 3.5 8.5l196 445c2.66699 4.66699 5.33398 7 8.00098 7h8z" />
    <glyph glyph-name="z" unicode="z" horiz-adv-x="436" 
d="M399 485c0 -1.33301 -0.168945 -2.16699 -0.501953 -2.5s-1.16602 -1.5 -2.49902 -3.5l-343 -469h331v-10h-348v3c0 1.33301 0.333008 2.5 1 3.5s1.33398 2.16699 2.00098 3.5l343 470h-329v10h346v-5z" />
    <glyph glyph-name="braceleft" unicode="{" horiz-adv-x="290" 
d="M133 231c0 11.333 -2.16797 21.834 -6.50098 31.501s-10.333 18 -18 25s-16.667 12.5 -27 16.5s-21.833 6 -34.5 6v10c12 0 23.333 2 34 6s19.834 9.33301 27.501 16s13.667 15 18 25s6.5 20.667 6.5 32c0 19.333 -1.83301 38.166 -5.5 56.499s-7.5 36.5 -11.5 54.5
s-7.83301 36.167 -11.5 54.5s-5.5 37.5 -5.5 57.5c0 18 2.83301 34.833 8.5 50.5s13.834 29.334 24.501 41.001s23.334 20.834 38.001 27.501s31 10 49 10h28v-4c0 -3.33301 -2 -5 -6 -5h-22c-16 0 -30.5 -2.83301 -43.5 -8.5s-24.5 -13.667 -34.5 -24
s-17.667 -22.833 -23 -37.5s-8 -31.334 -8 -50.001s1.66699 -37.334 5 -56.001s7.33301 -37.334 12 -56.001s8.66699 -37.167 12 -55.5s5 -36.833 5 -55.5c0 -12.667 -2.33301 -24 -7 -34s-10.5 -18.333 -17.5 -25s-14.833 -12.167 -23.5 -16.5s-17 -7.16602 -25 -8.49902
c8 -1.33301 16.333 -4.16602 25 -8.49902s16.5 -9.83301 23.5 -16.5s12.833 -15 17.5 -25s7 -21.333 7 -34c0 -18.667 -1.66699 -37.167 -5 -55.5s-7.33301 -36.833 -12 -55.5s-8.66699 -37.334 -12 -56.001s-5 -37.334 -5 -56.001s2.66699 -35.334 8 -50.001
s13 -27.167 23 -37.5s21.667 -18.333 35 -24s27.666 -8.5 42.999 -8.5h22c4 0 6 -1.66699 6 -5v-4h-28c-17.333 0 -33.5 3.33301 -48.5 10s-27.833 15.834 -38.5 27.501s-18.834 25.334 -24.501 41.001s-8.5 32.5 -8.5 50.5c0 20 1.83301 39.167 5.5 57.5
s7.5 36.5 11.5 54.5s7.83301 36 11.5 54s5.5 37 5.5 57z" />
    <glyph glyph-name="bar" unicode="|" horiz-adv-x="228" 
d="M109 751h10v-931h-10v931z" />
    <glyph glyph-name="braceright" unicode="}" horiz-adv-x="290" 
d="M157 231c0 -20 1.83496 -39.002 5.50195 -57.002s7.5 -36 11.5 -54s7.83301 -36.167 11.5 -54.5s5.5 -37.5 5.5 -57.5c0 -18 -2.83301 -34.833 -8.5 -50.5s-13.834 -29.334 -24.501 -41.001s-23.334 -20.834 -38.001 -27.501s-31 -10 -49 -10h-28v4c0 3.33301 2 5 6 5h22
c15.333 0 29.666 2.83301 42.999 8.5s25 13.667 35 24s17.667 22.833 23 37.5s8 31.334 8 50.001s-1.66699 37.334 -5 56.001s-7.33301 37.334 -12 56.001s-8.66699 37.167 -12 55.5s-5 36.833 -5 55.5c0 12.667 2.33301 23.834 7 33.501s10.334 18 17.001 25
s14.334 12.5 23.001 16.5s17 7 25 9c-8 1.33301 -16.333 4.16602 -25 8.49902s-16.334 9.83301 -23.001 16.5s-12.334 15 -17.001 25s-7 21.333 -7 34c0 18.667 1.66699 37.167 5 55.5s7.33301 36.833 12 55.5s8.66699 37.334 12 56.001s5 37.334 5 56.001
s-2.66699 35.334 -8 50.001s-13 27.167 -23 37.5s-21.667 18.333 -35 24s-27.666 8.5 -42.999 8.5h-22c-4 0 -6 1.66699 -6 5v4h28c17.333 0 33.5 -3.33301 48.5 -10s27.833 -15.834 38.5 -27.501s18.834 -25.334 24.501 -41.001s8.5 -32.5 8.5 -50.5
c0 -20 -1.83301 -39.167 -5.5 -57.5s-7.5 -36.5 -11.5 -54.5s-7.83301 -36.167 -11.5 -54.5s-5.5 -37.166 -5.5 -56.499c0 -12 2.16699 -22.833 6.5 -32.5s10.333 -17.834 18 -24.501s16.667 -12 27 -16s21.833 -6 34.5 -6v-10c-12 0 -23.333 -2 -34 -6
s-19.834 -9.5 -27.501 -16.5s-13.667 -15.333 -18 -25s-6.5 -20.167 -6.5 -31.5z" />
    <glyph glyph-name="asciitilde" unicode="~" horiz-adv-x="580" 
d="M400 264c14 0 26.5029 2.66699 37.5029 8s20.5 12.333 28.5 21s14.167 19.167 18.5 31.5c5 12.333 7.5 25.5 7.5 39.5h10c0 -14.667 -2.33301 -28.667 -7 -42s-11.334 -25 -20.001 -35s-19.334 -18 -32.001 -24s-27 -9 -43 -9c-17.333 0 -35.333 3.66699 -54 11
s-37.334 15.666 -56.001 24.999s-37 17.666 -55 24.999s-35 11 -51 11c-14 0 -26.667 -2.66699 -38 -8s-21 -12.333 -29 -21s-14.167 -19.167 -18.5 -31.5s-6.5 -25.5 -6.5 -39.5h-10c0 14.667 2.16699 28.667 6.5 42s10.833 25 19.5 35s19.334 18 32.001 24
c13.333 6 28 9 44 9c17.333 0 35.166 -3.66699 53.499 -11s36.833 -15.666 55.5 -24.999s37.167 -17.666 55.5 -24.999s35.5 -11 51.5 -11z" />
    <glyph glyph-name="exclamdown" unicode="&#xa1;" horiz-adv-x="211" 
d="M99 -180v279.002c0 14.667 0.166992 28.5 0.5 41.5s0.5 26.167 0.5 39.5s0.166992 27.666 0.5 42.999s0.833008 32.666 1.5 51.999h8c0 -20 0.333008 -37.5 1 -52.5s1 -29.167 1 -42.5s0.166992 -26.5 0.5 -39.5s0.5 -26.833 0.5 -41.5v-279h-14zM72 466.002
c0 9.33301 3 17 9 23s13.667 9 23 9s17.166 -3 23.499 -9s9.5 -13.667 9.5 -23s-3.16699 -17.166 -9.5 -23.499s-14.166 -9.5 -23.499 -9.5s-17 3.16699 -23 9.5s-9 14.166 -9 23.499z" />
    <glyph glyph-name="cent" unicode="&#xa2;" horiz-adv-x="580" 
d="M312 -6c-33.333 1.33301 -63.4971 7.83105 -90.4971 19.498s-50 28.167 -69 49.5s-33.5 47.333 -43.5 78s-15 65.334 -15 104.001c0 38 5.33301 72.667 16 104s26 58 46 80s44.5 39 73.5 51c28.333 12 61.166 18 98.499 18l4 115c0 5.33301 2 8 6 8h6l-5 -123
c30.667 -1.33301 57.667 -6.66602 81 -15.999c22.667 -9.33301 42.667 -21 60 -35l-2 -3c-1.33301 -1.33301 -2.66602 -2 -3.99902 -2c-2 0 -5.83301 2.33301 -11.5 7s-13.834 9.66699 -24.501 15s-24.167 10.5 -40.5 15.5s-35.833 7.83301 -58.5 8.5l-17 -484
c28 0 52 3 72 9s36.167 12.667 48.5 20s21.666 14 27.999 20s10.833 9 13.5 9c1.33301 0 2.66602 -0.666992 3.99902 -2l2 -2c-5.33301 -7.33301 -13.333 -14.833 -24 -22.5s-23 -14.5 -37 -20.5s-30 -11 -48 -15s-37.667 -6 -59 -6l-4 -120c0 -5.33301 -2 -8 -6 -8h-4z
M106.003 244.998c0 -37.333 4.83496 -70.8311 14.502 -100.498s23.5 -54.834 41.5 -75.501s39.667 -36.334 65 -47.001s53.666 -16.667 84.999 -18l16 484c-34.667 0 -65.834 -5.66699 -93.501 -17s-51 -27.5 -70 -48.5s-33.5 -46.5 -43.5 -76.5s-15 -63.667 -15 -101z" />
    <glyph glyph-name="sterling" unicode="&#xa3;" horiz-adv-x="580" 
d="M36 328c0 2 0.664062 3.50098 1.99707 4.50098s3 1.5 5 1.5h96v161c0 30.667 4.16699 59 12.5 85s20.666 48.5 36.999 67.5s36.666 33.667 60.999 44s52.5 15.5 84.5 15.5c24.667 0 46.334 -3 65.001 -9s34.834 -14 48.501 -24s25.167 -21.833 34.5 -35.5
s17.333 -27.834 24 -42.501l-5 -1c-3.33301 -1.33301 -6.33301 0.333984 -9 5.00098c-6.66699 12 -14 23.833 -22 35.5s-18 22 -30 31s-26.667 16.333 -44 22s-38 8.5 -62 8.5c-30 0 -56.5 -5 -79.5 -15s-42.167 -23.833 -57.5 -41.5s-26.833 -39 -34.5 -64
s-11.5 -52.167 -11.5 -81.5v-161h256v-5c0 -1.33301 -0.5 -2.5 -1.5 -3.5s-2.5 -1.5 -4.5 -1.5h-250v-179c0 -17.333 -2 -32.833 -6 -46.5s-9.66699 -26.167 -17 -37.5s-16.166 -21.166 -26.499 -29.499c-10.333 -7.66699 -22.166 -14.834 -35.499 -21.501
c6.66699 0.666992 12.834 1 18.501 1h18.5h441v-5c0 -1.33301 -0.666992 -2.66602 -2 -3.99902s-3 -2 -5 -2h-488v11c12 5.33301 23.333 11.666 34 18.999s20.167 16.333 28.5 27s15 23.167 20 37.5s7.5 31.166 7.5 50.499v179h-103v4z" />
    <glyph glyph-name="currency" unicode="&#xa4;" horiz-adv-x="580" 
d="M125 335c0 22 3.83105 42.668 11.498 62.001s18.834 36.333 33.501 51l-79 79l7 7l78 -78c14.667 14 31.834 25 51.501 33s40.5 12 62.5 12s42.833 -4 62.5 -12s36.834 -19 51.501 -33l78 78l7 -7l-78 -78c14 -14.667 25 -31.834 33 -51.501s12 -40.5 12 -62.5
s-4 -42.667 -12 -62s-19.333 -36.333 -34 -51l79 -79l-7 -7l-78 78c-14.667 -14 -31.834 -24.833 -51.501 -32.5s-40.5 -11.5 -62.5 -11.5s-42.5 4 -61.5 12s-36.167 19 -51.5 33l-79 -79l-7 7l79 79c-14 14.667 -25 31.667 -33 51s-12 40 -12 62zM134.998 335.001
c0 -21.333 4.16699 -41.5 12.5 -60.5s19.5 -35.5 33.5 -49.5s30.333 -25 49 -33s38.667 -12 60 -12s41.5 4 60.5 12s35.667 19 50 33s25.5 30.5 33.5 49.5s12 39.167 12 60.5s-4 41.5 -12 60.5s-19.167 35.5 -33.5 49.5s-31 25.167 -50 33.5s-39.167 12.5 -60.5 12.5
s-41.333 -4.16699 -60 -12.5s-35 -19.5 -49 -33.5s-25.167 -30.5 -33.5 -49.5s-12.5 -39.167 -12.5 -60.5z" />
    <glyph glyph-name="yen" unicode="&#xa5;" horiz-adv-x="580" 
d="M90 304l190.001 -0.00195312l-217 396h10c2.66699 0 5 -1.33301 7 -4l203 -375l7 -13c1.33301 2.66699 2.5 4.83398 3.5 6.50098s2.16699 3.83398 3.5 6.50098l203 375c1.33301 2.66699 3.66602 4 6.99902 4h10l-217 -396h190v-10h-194v-64h194v-10h-194v-220h-12v220
h-194v10h194v64h-194v10z" />
    <glyph glyph-name="brokenbar" unicode="&#xa6;" horiz-adv-x="231" 
d="M110 751h10v-381h-10v381zM110 201h10v-381h-10v381z" />
    <glyph glyph-name="section" unicode="&#xa7;" horiz-adv-x="476" 
d="M384 657c-1.33301 -2 -2.66699 -3.00195 -4 -3.00195c-2.66699 0 -6.66699 2.33301 -12 7s-13 9.66699 -23 15s-22.333 10.333 -37 15s-33.334 7 -56.001 7c-20.667 0 -39.5 -3.16699 -56.5 -9.5s-31.667 -14.666 -44 -24.999s-22 -22.5 -29 -36.5
s-10.5 -28.333 -10.5 -43c0 -17.333 4.33301 -32.666 13 -45.999s20 -25 34 -35s29.833 -19 47.5 -27s35.834 -16.167 54.501 -24.5s36.834 -17 54.501 -26s33.5 -19.5 47.5 -31.5s25.333 -25.667 34 -41s13 -33.666 13 -54.999c0 -28 -7.33301 -52 -22 -72
s-34.667 -36 -60 -48c18 -12.667 32.833 -27 44.5 -43s17.5 -35.333 17.5 -58c0 -20 -3.66699 -38.833 -11 -56.5s-17.833 -33 -31.5 -46s-30.334 -23.333 -50.001 -31s-42.167 -11.5 -67.5 -11.5c-17.333 0 -33 1.33301 -47 4s-27 6.66699 -39 12s-23 11.666 -33 18.999
s-20.333 15.333 -31 24l4 3l2.5 2.5c1 0.333008 2.16699 0.5 3.5 0.5c2.66699 0 7 -2.83301 13 -8.5s14.333 -12 25 -19s24.334 -13.333 41.001 -19s37 -8.5 61 -8.5s45.167 3.5 63.5 10.5s33.833 16.667 46.5 29s22.167 26.5 28.5 42.5s9.5 33.333 9.5 52
s-4.33301 35 -13 49s-20.334 26.667 -35.001 38s-31.5 21.333 -50.5 30s-38.333 17.167 -58 25.5s-38.834 17 -57.501 26s-35.334 19.167 -50.001 30.5s-26.667 24.166 -36 38.499s-14 31.166 -14 50.499c0 12 2 23.667 6 35s10 22 18 32s18.333 19.5 31 28.5
c12.667 9.66699 28.667 17.834 48 24.501c-9.33301 6 -18.166 12.167 -26.499 18.5s-15.166 13.666 -20.499 21.999s-9.66602 17.333 -12.999 27s-5 20.5 -5 32.5c0 16 3.66699 31.5 11 46.5s17.666 28.333 30.999 40s29.166 20.834 47.499 27.501
c17.667 6.66699 37.834 10 60.501 10c28 0 52.5 -3.66699 73.5 -11c20.333 -7.33301 40.5 -19.666 60.5 -36.999zM75.999 363.998c0 -16 3.66895 -30.333 11.002 -43s17.5 -24 30.5 -34s28 -19.333 45 -28s34.5 -16.834 52.5 -24.501s36 -15.667 54 -24
s34.333 -17.166 49 -26.499c28 13.333 48.333 29.333 61 48s19 40.334 19 65.001c0 18 -3.33301 33.833 -10 47.5s-15.834 25.834 -27.501 36.501s-25 20.167 -40 28.5s-30.833 16.166 -47.5 23.499l-50 22c-16.667 7.33301 -32.334 15 -47.001 23
c-37.333 -14.667 -63.333 -31.334 -78 -50.001s-22 -40 -22 -64z" />
    <glyph glyph-name="dieresis" unicode="&#xa8;" 
d="M146 640c0 -6.66699 -3 -12.834 -9 -18.501s-12.333 -8.5 -19 -8.5c-8 0 -14.667 2.83301 -20 8.5s-8 11.834 -8 18.501c0 8 2.66699 14.667 8 20s12 8 20 8c6.66699 0 13 -2.66699 19 -8s9 -12 9 -20zM310 640c0 -6.66699 -3 -12.834 -9 -18.501s-12.333 -8.5 -19 -8.5
c-8 0 -14.667 2.83301 -20 8.5s-8 11.834 -8 18.501c0 8 2.66699 14.667 8 20s12 8 20 8c6.66699 0 13 -2.66699 19 -8s9 -12 9 -20z" />
    <glyph glyph-name="copyright" unicode="&#xa9;" horiz-adv-x="849" 
d="M586 192c1.33301 0.666992 2.66504 1.00293 3.99805 1.00293l6 -5c-10 -8.66699 -20.667 -16.667 -32 -24s-23.833 -13.666 -37.5 -18.999s-28.5 -9.5 -44.5 -12.5s-33.333 -4.5 -52 -4.5c-32 0 -61.333 5.16699 -88 15.5s-49.5 25 -68.5 44s-34 42.167 -45 69.5
s-16.5 58.333 -16.5 93c0 33.333 5.5 63.666 16.5 90.999s26.333 50.666 46 69.999s43.167 34.5 70.5 45.5s57.666 16.5 90.999 16.5c17.333 0 32.833 -1.16699 46.5 -3.5s26.334 -5.5 38.001 -9.5s22.834 -9.33301 33.501 -16s21.334 -14 32.001 -22l-2 -3
c0 -1.33301 -1.33301 -2 -4 -2c-2 0 -5.83301 2.5 -11.5 7.5s-14.167 10.167 -25.5 15.5s-25.666 10.5 -42.999 15.5s-38.666 7.5 -63.999 7.5c-31.333 0 -59.833 -4.83301 -85.5 -14.5s-47.834 -23.834 -66.501 -42.501s-33.334 -41.167 -44.001 -67.5
s-16 -55.833 -16 -88.5c0 -33.333 5.33301 -63 16 -89s25 -48.167 43 -66.5s39.5 -32.333 64.5 -42c25.667 -9.66699 53.167 -14.5 82.5 -14.5c18.667 0 35.334 1.16699 50.001 3.5s28.167 5.66602 40.5 9.99902s23.666 10 33.999 17s20.833 14.833 31.5 23.5z
M67.999 350.003c0 49.333 9.33301 95.666 28 138.999s44 81.166 76 113.499s69.667 57.833 113 76.5s89.666 28 138.999 28s95.666 -9.33301 138.999 -28s81.333 -44.167 114 -76.5s58.334 -70.166 77.001 -113.499s28 -89.666 28 -138.999s-9.33301 -95.666 -28 -138.999
s-44.334 -81.166 -77.001 -113.499s-70.667 -57.833 -114 -76.5s-89.666 -28 -138.999 -28s-95.666 9.33301 -138.999 28s-81 44.167 -113 76.5s-57.333 70.166 -76 113.499s-28 89.666 -28 138.999zM79.999 350.003c0 -48 8.99902 -92.998 26.999 -134.998
s42.5 -78.5 73.5 -109.5s67.5 -55.5 109.5 -73.5c41.333 -18 86 -27 134 -27c32 0 62.667 4.16699 92 12.5s57 19.833 83 34.5s49.333 32.667 70 54s38.667 44.666 54 69.999s27 52.666 35 81.999s12 60 12 92s-4 62.667 -12 92s-19.667 56.833 -35 82.5s-33.333 49 -54 70
s-44 39.167 -70 54.5s-53.667 27 -83 35s-60 12 -92 12s-62.667 -4 -92 -12s-56.666 -19.667 -81.999 -35s-48.5 -33.5 -69.5 -54.5s-39 -44.333 -54 -70s-26.5 -53.167 -34.5 -82.5s-12 -60 -12 -92z" />
    <glyph glyph-name="ordfeminine" unicode="&#xaa;" horiz-adv-x="368" 
d="M278 419c-2.66699 0 -4.6709 1.66309 -6.00391 4.99609l-2 44c-17.333 -17.333 -35 -30.666 -53 -39.999s-40.333 -14 -67 -14c-9.33301 0 -18.666 1.33301 -27.999 4s-17.666 6.83398 -24.999 12.501s-13.333 13 -18 22s-7 19.833 -7 32.5s3.66699 24.334 11 35.001
s19.333 19.667 36 27s37.334 13.333 62.001 18s54.334 7.33398 89.001 8.00098v32h12v-186h-4zM151.996 423.996c13.333 0 25.6689 1.5 37.002 4.5s21.666 7 30.999 12s18.166 11 26.499 18c7.66699 7 15.5 14.167 23.5 21.5v83c-64 -2 -111.333 -9.66699 -142 -23
s-46 -31.333 -46 -54c0 -10.667 2 -20 6 -28s9.33301 -14.5 16 -19.5s14.167 -8.66699 22.5 -11s16.833 -3.5 25.5 -3.5zM269.999 604.996c0 29.333 -6.33398 51.832 -19.001 67.499s-33.667 23.5 -63 23.5c-16 0 -29.333 -2 -40 -6s-19.667 -8.66699 -27 -14
s-13 -10 -17 -14s-7.33301 -6 -10 -6c-1.33301 0 -2.66602 0.666992 -3.99902 2l-2 3c14.667 14.667 30 25.834 46 33.501s34 11.5 54 11.5c32 0 55.667 -9 71 -27s23 -42.667 23 -74h-12z" />
    <glyph glyph-name="guillemotleft" unicode="&#xab;" horiz-adv-x="369" 
d="M62 254l-0.000976562 2.00098l116 185l4 -2c1.33301 -1.33301 2.33301 -2.83301 3 -4.5s-0.333008 -4.16699 -3 -7.5l-102 -161c-4 -6.66699 -6.66699 -10.334 -8 -11.001c1.33301 -1.33301 4 -5 8 -11l102 -161c2 -2.66699 2.83301 -5.16699 2.5 -7.5
s-1.16602 -3.83301 -2.49902 -4.5l-4 -2zM171.999 254.001l-0.000976562 2.00098l116 185l4 -2c1.33301 -1.33301 2.33301 -2.83301 3 -4.5s-0.333008 -4.16699 -3 -7.5l-102 -161c-4 -6.66699 -6.66699 -10.334 -8 -11.001c1.33301 -1.33301 4 -5 8 -11l102 -161
c2 -2.66699 2.83301 -5.16699 2.5 -7.5s-1.16602 -3.83301 -2.49902 -4.5l-4 -2z" />
    <glyph glyph-name="logicalnot" unicode="&#xac;" horiz-adv-x="580" 
d="M92 340h400v-160h-10v150h-390v10z" />
    <glyph glyph-name="registered" unicode="&#xae;" horiz-adv-x="849" 
d="M68 350c0 49.333 9.33301 95.666 28 138.999s44 81.166 76 113.499s69.667 57.833 113 76.5s89.666 28 138.999 28s95.666 -9.33301 138.999 -28s81.333 -44.167 114 -76.5s58.334 -70.166 77.001 -113.499s28 -89.666 28 -138.999s-9.33301 -95.666 -28 -138.999
s-44.334 -81.166 -77.001 -113.499s-70.667 -57.833 -114 -76.5s-89.666 -28 -138.999 -28s-95.666 9.33301 -138.999 28s-81 44.167 -113 76.5s-57.333 70.166 -76 113.499s-28 89.666 -28 138.999zM80 350c0 -48 8.99902 -92.998 26.999 -134.998s42.5 -78.5 73.5 -109.5
s67.5 -55.5 109.5 -73.5c41.333 -18 86 -27 134 -27c32 0 62.667 4.16699 92 12.5s57 19.833 83 34.5s49.333 32.667 70 54s38.667 44.666 54 69.999s27 52.666 35 81.999s12 60 12 92s-4 62.667 -12 92s-19.667 56.833 -35 82.5s-33.333 49 -54 70s-44 39.167 -70 54.5
s-53.667 27 -83 35s-60 12 -92 12s-62.667 -4 -92 -12s-56.666 -19.667 -81.999 -35s-48.5 -33.5 -69.5 -54.5s-39 -44.333 -54 -70s-26.5 -53.167 -34.5 -82.5s-12 -60 -12 -92zM315.999 342.002l-0.000976562 -212.004h-12v440h106c45.333 0 80.666 -9 105.999 -27
s38 -45.667 38 -83c0 -17.333 -3.33301 -33.166 -10 -47.499s-16.334 -26.666 -29.001 -36.999s-27.334 -18.166 -44.001 -23.499s-35.667 -8.66602 -57 -9.99902c2.66699 -1.33301 5.33398 -3 8.00098 -5s5.33398 -4.66699 8.00098 -8l168 -199h-10
c-1.33301 0 -2.66602 0.166992 -3.99902 0.5s-2.66602 1.5 -3.99902 3.5l-166 197c-2.66699 2.66699 -5.83398 5.16699 -9.50098 7.5c-4.33301 2.33301 -11.166 3.5 -20.499 3.5h-68zM315.998 351.998l88.001 -0.000976562c43.333 0 77.166 9.33301 101.499 28
s36.5 45.334 36.5 80.001c0 35.333 -11 60.833 -33 76.5s-55 23.5 -99 23.5h-94v-208z" />
    <glyph glyph-name="macron" unicode="&#xaf;" 
d="M70 645h260v-10h-260v10z" />
    <glyph glyph-name="macron" unicode="&#x2c9;" 
d="M70 645h260v-10h-260v10z" />
    <glyph glyph-name="degree" unicode="&#xb0;" horiz-adv-x="413" 
d="M66 570c0 19.333 3.66992 37.333 11.0029 54s17.333 31.167 30 43.5s27.5 22.166 44.5 29.499c16.333 7.33301 34.5 11 54.5 11c19.333 0 37.666 -3.66699 54.999 -11s32.166 -17.166 44.499 -29.499s22.166 -26.833 29.499 -43.5s11 -34.667 11 -54
s-3.66699 -37.5 -11 -54.5s-17.166 -31.667 -29.499 -44s-27 -22.166 -44 -29.499s-35.5 -11 -55.5 -11s-38.333 3.66699 -55 11s-31.334 17.166 -44.001 29.499s-22.667 27 -30 44s-11 35.167 -11 54.5zM78.0029 570c0 -17.333 3.33203 -34 9.99902 -50
s15.834 -29.667 27.501 -41s25.334 -20.333 41.001 -27s32.167 -10 49.5 -10s34 3.33301 50 10s29.667 15.667 41 27s20.333 25 27 41s10 32.667 10 50s-3.33301 34 -10 50s-15.667 29.667 -27 41s-24.833 20.333 -40.5 27c-16.333 6.66699 -33.166 10 -50.499 10
s-33.833 -3.33301 -49.5 -10s-29.334 -15.667 -41.001 -27s-20.834 -25 -27.501 -41s-10 -32.667 -10 -50z" />
    <glyph glyph-name="plusminus" unicode="&#xb1;" horiz-adv-x="580" 
d="M294 555v-215h226v-10h-226v-216h-10v216h-224v10h224v215h10zM60 50h460v-10h-460v10z" />
    <glyph glyph-name="uni00B2" unicode="&#xb2;" horiz-adv-x="334" 
d="M168 805c12 0 23.999 -1.83594 35.999 -5.50293s22.667 -9.16699 32 -16.5s16.666 -17 21.999 -29s8 -26 8 -42c0 -13.333 -2 -25.666 -6 -36.999s-9.66699 -22.333 -17 -33s-15.666 -21 -24.999 -31s-19 -20 -29 -30l-121 -123c8 1.33301 18.333 2 31 2h172
c2.66699 0 4 -1.33301 4 -4v-6h-221v4c0 2 1 4 3 6l124 126c10.667 10.667 20.5 20.834 29.5 30.501s16.833 19.5 23.5 29.5s11.834 20.5 15.501 31.5s5.5 22.5 5.5 34.5c0 14.667 -2.5 27.167 -7.5 37.5s-11.5 19 -19.5 26s-17.333 12 -28 15s-21.334 4.5 -32.001 4.5
c-25.333 0 -46 -7.16699 -62 -21.5s-26.333 -33.166 -31 -56.499c-1.33301 -3.33301 -3.66602 -5 -6.99902 -5l-5 1c2 14.667 6 27.5 12 38.5s13.5 20.5 22.5 28.5s19.5 14.167 31.5 18.5s25 6.5 39 6.5z" />
    <glyph glyph-name="uni00B3" unicode="&#xb3;" horiz-adv-x="334" 
d="M168 805c12 0 24.001 -1.83398 36.001 -5.50098s22.333 -9 31 -16s15.667 -16 21 -27s8 -24.167 8 -39.5c0 -12 -2 -22.833 -6 -32.5s-9.33301 -18.167 -16 -25.5s-14.667 -13.333 -24 -18s-19 -7.66699 -29 -9c28 -3.33301 49.167 -13 63.5 -29s21.5 -35.667 21.5 -59
c0 -13.333 -2.66699 -26 -8 -38s-13 -22.333 -23 -31s-21.667 -15.667 -35 -21s-28 -8 -44 -8c-20.667 0 -37.834 3 -51.501 9s-24.5 13.333 -32.5 22s-14.167 18 -18.5 28c-3.66699 10 -6.83398 19.667 -9.50098 29l4 2c1.33301 0.666992 2.83301 0.833984 4.5 0.500977
c1 -0.333008 2.16699 -1.83301 3.5 -4.5c0.666992 -2 2.33398 -7.16699 5.00098 -15.5s7.5 -17 14.5 -26s16.833 -17.167 29.5 -24.5s29.667 -11 51 -11c16 0 30.333 2.83301 43 8.5s23 12.667 31 21s14 17.666 18 27.999s6 20.5 6 30.5c0 12 -2 23 -6 33
s-10.167 18.833 -18.5 26.5s-19.333 13.5 -33 17.5s-30.5 6 -50.5 6v8c31.333 1.33301 55.833 9.33301 73.5 24s26.5 34 26.5 58c0 13.333 -2.33301 25 -7 35s-11 18.333 -19 25s-17.167 11.5 -27.5 14.5c-11 3 -21.833 4.5 -32.5 4.5
c-25.333 0 -45.833 -7.16699 -61.5 -21.5c-15 -14.333 -25.167 -33.166 -30.5 -56.499c-1.33301 -3.33301 -3.33301 -5 -6 -5l-6 1c2 14.667 5.83301 27.5 11.5 38.5s13.167 20.5 22.5 28.5s19.833 14.167 31.5 18.5s24.5 6.5 38.5 6.5z" />
    <glyph glyph-name="acute" unicode="&#xb4;" 
d="M284 708l-101.001 -125c-1.33301 -2.66699 -4 -4 -8 -4h-7l82 118c2.66699 4.66699 5.33398 7.66699 8.00098 9s7 2 13 2h13z" />
    <glyph glyph-name="mu" unicode="&#xb5;" horiz-adv-x="625" 
d="M120 490l-0.00195312 -313.999c0 -27.333 3 -51.833 9 -73.5s15.333 -39.834 28 -54.501s28.334 -26 47.001 -34s40.667 -12 66 -12c38.667 0 74 10 106 30s60.333 48 85 84v374h12v-386c0 -17.333 2.5 -32.166 7.5 -44.499s12 -22.333 21 -30s19.667 -13.5 32 -17.5
s25.833 -6 40.5 -6h14v-5c0 -3.33301 -7.33301 -5 -22 -5c-14 0 -27.167 2 -39.5 6s-23.166 10.333 -32.499 19s-17 19.667 -23 33s-9 29.333 -9 48c-22.667 -34 -50.667 -60.833 -84 -80.5s-69.333 -29.5 -108 -29.5c-43.333 0 -77.333 10.333 -102 31
c-25.333 20.667 -42 49.667 -50 87c0 -16.667 0.333008 -34.5 1 -53.5s1 -36.167 1 -51.5v-185h-6c-2 0 -3.5 0.666992 -4.5 2s-1.5 2.66602 -1.5 3.99902v664h12z" />
    <glyph glyph-name="paragraph" unicode="&#xb6;" horiz-adv-x="619" 
d="M584 689h-115v-779h-12v779h-186v-779h-12v456c-34.667 0 -65.5 4.33301 -92.5 13s-49.833 20.667 -68.5 36s-32.834 33.5 -42.501 54.5s-14.5 43.833 -14.5 68.5c0 25.333 4.83301 48 14.5 68s23.834 37 42.501 51s41.667 24.667 69 32s58 11 92 11h325v-11z" />
    <glyph glyph-name="periodcentered" unicode="&#xb7;" horiz-adv-x="227" 
d="M84 295c0 8.66699 2.83301 16 8.5 22c5 6 11.5 9 19.5 9c8.66699 0 16.167 -3 22.5 -9s9.5 -13.333 9.5 -22c0 -8 -3 -14.833 -9 -20.5s-13.667 -8.5 -23 -8.5c-8 0 -14.667 2.83301 -20 8.5s-8 12.5 -8 20.5z" />
    <glyph glyph-name="periodcentered" unicode="&#x2219;" horiz-adv-x="227" 
d="M84 295c0 8.66699 2.83301 16 8.5 22c5 6 11.5 9 19.5 9c8.66699 0 16.167 -3 22.5 -9s9.5 -13.333 9.5 -22c0 -8 -3 -14.833 -9 -20.5s-13.667 -8.5 -23 -8.5c-8 0 -14.667 2.83301 -20 8.5s-8 12.5 -8 20.5z" />
    <glyph glyph-name="cedilla" unicode="&#xb8;" 
d="M143 -148c1.33301 0 3.5 -1.16797 6.5 -3.50098s7.16699 -4.83301 12.5 -7.5s12 -5.16699 20 -7.5s17.667 -3.5 29 -3.5c20 0 35.667 4.33301 47 13s17 21 17 37c0 10.667 -2.5 19.334 -7.5 26.001s-11.833 12 -20.5 16s-18.834 7 -30.501 9s-24.167 4 -37.5 6l20 63h9
l-18 -54c14.667 -2.66699 27.834 -5.5 39.501 -8.5s21.667 -7 30 -12s14.833 -11.167 19.5 -18.5s7 -16 7 -26c0 -9.33301 -2 -17.833 -6 -25.5s-9.33301 -14 -16 -19s-14.834 -8.83301 -24.501 -11.5s-20.167 -4 -31.5 -4c-13.333 0 -26.666 2.5 -39.999 7.5
s-24 11.167 -32 18.5l2 2c2 2 3.66699 3 5 3z" />
    <glyph glyph-name="uni00B9" unicode="&#xb9;" horiz-adv-x="334" 
d="M92 459h84v313l2 16l-88 -79c-2.66699 -2.66699 -5 -2.66699 -7 0l-3 5l100 89h8v-344h81v-9h-177v9z" />
    <glyph glyph-name="ordmasculine" unicode="&#xba;" horiz-adv-x="406" 
d="M204 706c21.333 0 40.166 -3.49902 56.499 -10.499s30.166 -17 41.499 -30s19.833 -28.5 25.5 -46.5s8.5 -38 8.5 -60c0 -22.667 -2.83301 -42.834 -8.5 -60.501s-14.167 -32.834 -25.5 -45.501s-25.166 -22.5 -41.499 -29.5s-35.166 -10.5 -56.499 -10.5
s-40.333 3.5 -57 10.5s-30.834 16.833 -42.501 29.5s-20.334 28 -26.001 46s-8.5 38 -8.5 60c0 22.667 2.83301 42.834 8.5 60.501s14.334 33 26.001 46s25.834 23 42.501 30s35.667 10.5 57 10.5zM204 421.001c20 0 37.667 3.33301 53 10s28.166 16 38.499 28
s18 26.5 23 43.5s7.5 35.833 7.5 56.5s-2.5 39.667 -7.5 57s-12.667 32 -23 44s-23.166 21.333 -38.499 28s-33 10 -53 10c-20.667 0 -38.834 -3.33301 -54.501 -10s-28.667 -16 -39 -28s-18 -26.667 -23 -44s-7.5 -36.333 -7.5 -57s2.5 -39.5 7.5 -56.5
s12.667 -31.5 23 -43.5s23.333 -21.333 39 -28s33.834 -10 54.501 -10z" />
    <glyph glyph-name="guillemotright" unicode="&#xbb;" horiz-adv-x="370" 
d="M199 256v-2l-117 -185l-3 2c-1.33301 1.33301 -2.33301 2.83301 -3 4.5s0 4.16699 2 7.5l102 161c2 3.33301 3.83301 5.83301 5.5 7.5l3.5 3.5c-2 1.33301 -5 5 -9 11l-102 161c-2 2.66699 -2.83301 5.16699 -2.5 7.5s1.5 3.83301 3.5 4.5l3 2zM309 256v-2l-117 -185
l-3 2c-1.33301 1.33301 -2.33301 2.83301 -3 4.5s0 4.16699 2 7.5l102 161c2 3.33301 3.83301 5.83301 5.5 7.5l3.5 3.5c-2 1.33301 -5 5 -9 11l-102 161c-2 2.66699 -2.83301 5.16699 -2.5 7.5s1.5 3.83301 3.5 4.5l3 2z" />
    <glyph glyph-name="onequarter" unicode="&#xbc;" horiz-adv-x="713" 
d="M171 6c-1.33301 -2.66699 -3 -4.33301 -5 -5s-4 -1 -6 -1h-5l392 694c2 4 5.33301 6 10 6h6zM71 358.001h84v313l2 16l-88 -79c-2.66699 -2.66699 -5 -2.66699 -7 0l-3 5l100 89h8v-344h81v-9h-177v9zM600 115.001h70v-5c0 -2.66699 -1.33301 -4 -4 -4h-66v-106h-10v106
h-172c-4 0 -6 1 -6 3l-2 5l180 237h10v-236zM590 323.001v6v7l-166 -221h166v208z" />
    <glyph glyph-name="onehalf" unicode="&#xbd;" horiz-adv-x="703" 
d="M148 6c-1.33301 -2.66699 -3 -4.33301 -5 -5s-4 -1 -6 -1h-5l392 694c2 4 5.33301 6 10 6h6zM73 358.001h84v313l2 16l-88 -79c-2.66699 -2.66699 -5 -2.66699 -7 0l-3 5l100 89h8v-344h81v-9h-177v9zM543 355.001c12 0 23.999 -1.83594 35.999 -5.50293
s22.667 -9.16699 32 -16.5s16.666 -17 21.999 -29s8 -26 8 -42c0 -13.333 -2 -25.666 -6 -36.999s-9.66699 -22.333 -17 -33s-15.666 -21 -24.999 -31s-19 -20 -29 -30l-121 -123c8 1.33301 18.333 2 31 2h172c2.66699 0 4 -1.33301 4 -4v-6h-221v4c0 2 1 4 3 6l124 126
c10.667 10.667 20.5 20.834 29.5 30.501s16.833 19.5 23.5 29.5s11.834 20.5 15.501 31.5s5.5 22.5 5.5 34.5c0 14.667 -2.5 27.167 -7.5 37.5s-11.5 19 -19.5 26s-17.333 12 -28 15s-21.334 4.5 -32.001 4.5c-25.333 0 -46 -7.16699 -62 -21.5s-26.333 -33.166 -31 -56.499
c-1.33301 -3.33301 -3.66602 -5 -6.99902 -5l-5 1c2 14.667 6 27.5 12 38.5s13.5 20.5 22.5 28.5s19.5 14.167 31.5 18.5s25 6.5 39 6.5z" />
    <glyph glyph-name="threequarters" unicode="&#xbe;" horiz-adv-x="724" 
d="M187 6c-1.33301 -2.66699 -3 -4.33301 -5 -5s-4 -1 -6 -1h-5l392 694c2 4 5.33301 6 10 6h6zM173 704.001c12 0 24.001 -1.83398 36.001 -5.50098s22.333 -9 31 -16s15.667 -16 21 -27s8 -24.167 8 -39.5c0 -12 -2 -22.833 -6 -32.5s-9.33301 -18.167 -16 -25.5
s-14.667 -13.333 -24 -18s-19 -7.66699 -29 -9c28 -3.33301 49.167 -13 63.5 -29s21.5 -35.667 21.5 -59c0 -13.333 -2.66699 -26 -8 -38s-13 -22.333 -23 -31s-21.667 -15.667 -35 -21s-28 -8 -44 -8c-20.667 0 -37.834 3 -51.501 9s-24.5 13.333 -32.5 22
s-14.167 18 -18.5 28c-3.66699 10 -6.83398 19.667 -9.50098 29l4 2c1.33301 0.666992 2.83301 0.833984 4.5 0.500977c1 -0.333008 2.16699 -1.83301 3.5 -4.5c0.666992 -2 2.33398 -7.16699 5.00098 -15.5s7.5 -17 14.5 -26s16.833 -17.167 29.5 -24.5s29.667 -11 51 -11
c16 0 30.333 2.83301 43 8.5s23 12.667 31 21s14 17.666 18 27.999s6 20.5 6 30.5c0 12 -2 23 -6 33s-10.167 18.833 -18.5 26.5s-19.333 13.5 -33 17.5s-30.5 6 -50.5 6v8c31.333 1.33301 55.833 9.33301 73.5 24s26.5 34 26.5 58c0 13.333 -2.33301 25 -7 35
s-11 18.333 -19 25s-17.167 11.5 -27.5 14.5c-11 3 -21.833 4.5 -32.5 4.5c-25.333 0 -45.833 -7.16699 -61.5 -21.5c-15 -14.333 -25.167 -33.166 -30.5 -56.499c-1.33301 -3.33301 -3.33301 -5 -6 -5l-6 1c2 14.667 5.83301 27.5 11.5 38.5s13.167 20.5 22.5 28.5
s19.833 14.167 31.5 18.5s24.5 6.5 38.5 6.5zM610.001 115h70v-5c0 -2.66699 -1.33301 -4 -4 -4h-66v-106h-10v106h-172c-4 0 -6 1 -6 3l-2 5l180 237h10v-236zM600.001 323v6v7l-166 -221h166v208z" />
    <glyph glyph-name="questiondown" unicode="&#xbf;" horiz-adv-x="406" 
d="M360 -117c-8 -8.66699 -16.9971 -17.002 -26.9971 -25.002s-21.333 -15.333 -34 -22s-26.334 -11.834 -41.001 -15.501s-30.667 -5.5 -48 -5.5c-20.667 0 -40.667 3.16699 -60 9.5s-36.5 15.666 -51.5 27.999s-26.833 27.333 -35.5 45s-13 37.5 -13 59.5
c0 25.333 4 46.833 12 64.5s18.167 33.167 30.5 46.5s25.666 24.833 39.999 34.5s27.833 19 40.5 28s23.167 18 31.5 27c9 9 13.5 19.5 13.5 31.5l2 86h8v-87c0 -13.333 -4 -24.666 -12 -33.999s-18.333 -18.666 -31 -27.999s-26 -18.666 -40 -27.999
s-27.333 -20.333 -40 -33s-23 -27.667 -31 -45s-12 -38.333 -12 -63c0 -20.667 4 -39.167 12 -55.5s19 -30.166 33 -41.499s29.833 -20 47.5 -26c18.333 -6 36.833 -9 55.5 -9c23.333 0 43.666 3.33301 60.999 10s31.833 14 43.5 22s20.834 15.333 27.501 22
s10.667 10 12 10s2.66602 -0.666992 3.99902 -2zM192.003 464.998c0 9.33301 3.16699 17.168 9.5 23.501c5.66699 6.33301 13.167 9.5 22.5 9.5s17.333 -3.33301 24 -10s10 -14.334 10 -23.001c0 -9.33301 -3.33301 -17 -10 -23s-14.667 -9 -24 -9s-17 3 -23 9
s-9 13.667 -9 23z" />
    <glyph glyph-name="Agrave" unicode="&#xc0;" horiz-adv-x="637" 
d="M616 0h-10c-2.66699 0 -4.66699 1.66699 -6 5l-97 234h-369l-98 -234c-1.33301 -3.33301 -3.33301 -5 -6 -5h-8l292 700h10zM138 249l360.998 -0.000976562l-173 414c-1.33301 4 -2.66602 7.5 -3.99902 10.5s-2.66602 6.5 -3.99902 10.5
c-1.33301 -4 -2.5 -7.66699 -3.5 -11c-1.66699 -3.33301 -3.16699 -6.66602 -4.5 -9.99902zM213.998 915.999c5.33301 0 9.66699 -0.332031 13 -0.999023s6.33301 -2.66699 9 -6l124 -140h-6c-1.33301 0 -2.83301 0.166992 -4.5 0.5s-3.16699 1.16602 -4.5 2.49902l-149 144
h18z" />
    <glyph glyph-name="Aacute" unicode="&#xc1;" horiz-adv-x="637" 
d="M616 0h-10c-2.66699 0 -4.66699 1.66699 -6 5l-97 234h-369l-98 -234c-1.33301 -3.33301 -3.33301 -5 -6 -5h-8l292 700h10zM138 249l360.998 -0.000976562l-173 414c-1.33301 4 -2.66602 7.5 -3.99902 10.5s-2.66602 6.5 -3.99902 10.5
c-1.33301 -4 -2.5 -7.66699 -3.5 -11c-1.66699 -3.33301 -3.16699 -6.66602 -4.5 -9.99902zM459.998 915.999l-165 -144.001c-1.33301 -1.33301 -2.83301 -2.16602 -4.5 -2.49902s-3.16699 -0.5 -4.5 -0.5h-6l140 140c2.66699 2.66699 5.5 4.5 8.5 5.5
c3.66699 1 8.16699 1.5 13.5 1.5h18z" />
    <glyph glyph-name="Acircumflex" unicode="&#xc2;" horiz-adv-x="637" 
d="M616 0h-10c-2.66699 0 -4.66699 1.66699 -6 5l-97 234h-369l-98 -234c-1.33301 -3.33301 -3.33301 -5 -6 -5h-8l292 700h10zM138 249l360.998 -0.000976562l-173 414c-1.33301 4 -2.66602 7.5 -3.99902 10.5s-2.66602 6.5 -3.99902 10.5
c-1.33301 -4 -2.5 -7.66699 -3.5 -11c-1.66699 -3.33301 -3.16699 -6.66602 -4.5 -9.99902zM437.998 768.999h-9.99902c-1.33301 0 -3 0.166992 -5 0.5s-3.66699 1.5 -5 3.5l-98 112c-0.666992 0.666992 -1.33398 1.66699 -2.00098 3l-2 -3l-98 -112
c-1.33301 -1.33301 -3 -2.33301 -5 -3s-3.66699 -1 -5 -1h-10l116 132h8z" />
    <glyph glyph-name="Atilde" unicode="&#xc3;" horiz-adv-x="637" 
d="M616 0h-10c-2.66699 0 -4.66699 1.66699 -6 5l-97 234h-369l-98 -234c-1.33301 -3.33301 -3.33301 -5 -6 -5h-8l292 700h10zM138 249l360.998 -0.000976562l-173 414c-1.33301 4 -2.66602 7.5 -3.99902 10.5s-2.66602 6.5 -3.99902 10.5
c-1.33301 -4 -2.5 -7.66699 -3.5 -11c-1.66699 -3.33301 -3.16699 -6.66602 -4.5 -9.99902zM381.998 787.999c16.667 0 29.835 5.49902 39.502 16.499s14.834 24.5 15.501 40.5h8c0 -9.33301 -1.5 -18 -4.5 -26s-7.16699 -15 -12.5 -21s-11.833 -10.833 -19.5 -14.5
s-16.5 -5.5 -26.5 -5.5c-10.667 0 -21.334 3 -32.001 9s-21 12.667 -31 20s-20 14 -30 20s-19.667 9 -29 9c-8 0 -15.333 -1.5 -22 -4.5s-12.334 -7 -17.001 -12s-8.33398 -11.167 -11.001 -18.5s-4.33398 -14.666 -5.00098 -21.999h-9c0 9.33301 1.5 18 4.5 26
s7.33301 15 13 21s12.5 10.833 20.5 14.5s16.667 5.5 26 5.5c10.667 0 21.334 -3 32.001 -9s21 -12.667 31 -20s20 -14 30 -20s19.667 -9 29 -9z" />
    <glyph glyph-name="Adieresis" unicode="&#xc4;" horiz-adv-x="637" 
d="M616 0h-10c-2.66699 0 -4.66699 1.66699 -6 5l-97 234h-369l-98 -234c-1.33301 -3.33301 -3.33301 -5 -6 -5h-8l292 700h10zM138 249l360.998 -0.000976562l-173 414c-1.33301 4 -2.66602 7.5 -3.99902 10.5s-2.66602 6.5 -3.99902 10.5
c-1.33301 -4 -2.5 -7.66699 -3.5 -11c-1.66699 -3.33301 -3.16699 -6.66602 -4.5 -9.99902zM253.998 831.999c0 -6.66699 -3 -12.834 -9 -18.501s-12.333 -8.5 -19 -8.5c-8 0 -14.667 2.83301 -20 8.5s-8 11.834 -8 18.501c0 8 2.66699 14.667 8 20s12 8 20 8
c6.66699 0 13 -2.66699 19 -8s9 -12 9 -20zM437.998 831.999c0 -6.66699 -3 -12.834 -9 -18.501s-12.333 -8.5 -19 -8.5c-8 0 -14.667 2.83301 -20 8.5s-8 11.834 -8 18.501c0 8 2.66699 14.667 8 20s12 8 20 8c6.66699 0 13 -2.66699 19 -8s9 -12 9 -20z" />
    <glyph glyph-name="Aring" unicode="&#xc5;" horiz-adv-x="637" 
d="M616 0h-10c-2.66699 0 -4.66699 1.66699 -6 5l-97 234h-369l-98 -234c-1.33301 -3.33301 -3.33301 -5 -6 -5h-8l292 700h10zM138 249l360.998 -0.000976562l-173 414c-1.33301 4 -2.66602 7.5 -3.99902 10.5s-2.66602 6.5 -3.99902 10.5
c-1.33301 -4 -2.5 -7.66699 -3.5 -11c-1.66699 -3.33301 -3.16699 -6.66602 -4.5 -9.99902zM243.998 836.999c0 10.667 2 20.168 6 28.501s9.33301 15.833 16 22.5s14.334 11.834 23.001 15.501s18.334 5.5 29.001 5.5s20.334 -1.83301 29.001 -5.5
s16.334 -8.83398 23.001 -15.501s12 -14.334 16 -23.001s6 -18 6 -28c0 -10.667 -2 -20.167 -6 -28.5s-9.33301 -15.833 -16 -22.5s-14.334 -11.834 -23.001 -15.501s-18.334 -5.5 -29.001 -5.5s-20.334 1.83301 -29.001 5.5s-16.334 8.83398 -23.001 15.501
s-12 14.167 -16 22.5s-6 17.833 -6 28.5zM254.998 837c0 -9.33301 1.5 -17.833 4.5 -25.5s7.5 -14.167 13.5 -19.5s12.667 -9.66602 20 -12.999s15.666 -5 24.999 -5s17.666 1.66699 24.999 5s14 7.66602 20 12.999s10.5 12 13.5 20s4.5 16.333 4.5 25
c0 9.33301 -1.5 17.833 -4.5 25.5s-7.5 14.167 -13.5 19.5s-12.667 9.66602 -20 12.999s-15.666 5 -24.999 5s-17.666 -1.66699 -24.999 -5s-14 -7.66602 -20 -12.999s-10.5 -11.833 -13.5 -19.5s-4.5 -16.167 -4.5 -25.5z" />
    <glyph glyph-name="AE" unicode="&#xc6;" horiz-adv-x="925" 
d="M414 700h454v-11h-437l43 -328h334v-11h-333l44 -339h349v-11h-358l-32 239h-314l-135 -235c-2 -2.66699 -4.33301 -4 -7 -4h-10zM170 249h307l-57 440c-1.33301 -4.66699 -3 -9 -5 -13s-4.33301 -8.33301 -7 -13z" />
    <glyph glyph-name="Ccedilla" unicode="&#xc7;" horiz-adv-x="683" 
d="M337 -148c1.33301 0 3.50098 -1.16797 6.50098 -3.50098s7.16699 -4.83301 12.5 -7.5s12 -5.16699 20 -7.5s17.667 -3.5 29 -3.5c20 0 35.667 4.33301 47 13s17 21 17 37c0 10.667 -2.5 19.334 -7.5 26.001s-11.833 12 -20.5 16s-18.834 7 -30.501 9s-24.167 4 -37.5 6
l17 55c-46.667 0 -89.667 8.33301 -129 25s-73.333 40.667 -102 72s-51 69 -67 113s-24 93.333 -24 148c0 53.333 8 102 24 146s38.833 81.667 68.5 113s65 55.666 106 72.999s86.5 26 136.5 26c22.667 0 44.167 -1.66699 64.5 -5s39.666 -8.66602 57.999 -15.999
s35.833 -16 52.5 -26s33 -21.667 49 -35l-2 -3c-0.666992 -1.33301 -2.33398 -2 -5.00098 -2s-8.66699 4 -18 12s-22.833 16.833 -40.5 26.5s-39.667 18.5 -66 26.5s-57.166 12 -92.499 12c-47.333 0 -90.666 -8 -129.999 -24s-73.333 -39.167 -102 -69.5s-51 -67 -67 -110
s-24 -91.167 -24 -144.5c0 -54.667 8 -103.334 24 -146.001s38 -79 66 -109s61 -53 99 -69s79.333 -24 124 -24c28 0 53.167 2 75.5 6s42.833 9.83301 61.5 17.5s36 17 52 28s31.667 23.833 47 38.5c1.33301 1.33301 2.66602 2 3.99902 2c0.666992 0 1.66699 -0.333008 3 -1
l5 -4c-14.667 -14 -30.167 -26.833 -46.5 -38.5s-34.333 -21.667 -54 -30s-41 -15.166 -64 -20.499s-48.5 -8 -76.5 -8l-16 -46c14.667 -2.66699 27.834 -5.5 39.501 -8.5s21.667 -7 30 -12s14.833 -11.167 19.5 -18.5s7 -16 7 -26c0 -9.33301 -2 -17.833 -6 -25.5
s-9.33301 -14 -16 -19s-14.834 -8.83301 -24.501 -11.5s-20.167 -4 -31.5 -4c-13.333 0 -26.666 2.5 -39.999 7.5s-24 11.167 -32 18.5l2 2c2 2 3.66699 3 5 3z" />
    <glyph glyph-name="Egrave" unicode="&#xc8;" horiz-adv-x="582" 
d="M525 700v-11h-397v-328h337v-11h-337v-339h398l-1 -11h-409v700h409zM220 916c5.33301 0 9.66699 -0.332031 13 -0.999023s6.33301 -2.66699 9 -6l124 -140h-6c-1.33301 0 -2.83301 0.166992 -4.5 0.5s-3.16699 1.16602 -4.5 2.49902l-149 144h18z" />
    <glyph glyph-name="Eacute" unicode="&#xc9;" horiz-adv-x="582" 
d="M525 700v-11h-397v-328h337v-11h-337v-339h398l-1 -11h-409v700h409zM466 916l-165 -144.001c-1.33301 -1.33301 -2.83301 -2.16602 -4.5 -2.49902s-3.16699 -0.5 -4.5 -0.5h-6l140 140c2.66699 2.66699 5.5 4.5 8.5 5.5c3.66699 1 8.16699 1.5 13.5 1.5h18z" />
    <glyph glyph-name="Ecircumflex" unicode="&#xca;" horiz-adv-x="582" 
d="M525 700v-11h-397v-328h337v-11h-337v-339h398l-1 -11h-409v700h409zM444 769h-9.99902c-1.33301 0 -3 0.166992 -5 0.5s-3.66699 1.5 -5 3.5l-98 112c-0.666992 0.666992 -1.33398 1.66699 -2.00098 3l-2 -3l-98 -112c-1.33301 -1.33301 -3 -2.33301 -5 -3
s-3.66699 -1 -5 -1h-10l116 132h8z" />
    <glyph glyph-name="Edieresis" unicode="&#xcb;" horiz-adv-x="582" 
d="M525 700v-11h-397v-328h337v-11h-337v-339h398l-1 -11h-409v700h409zM260 832c0 -6.66699 -3 -12.834 -9 -18.501s-12.333 -8.5 -19 -8.5c-8 0 -14.667 2.83301 -20 8.5s-8 11.834 -8 18.501c0 8 2.66699 14.667 8 20s12 8 20 8c6.66699 0 13 -2.66699 19 -8s9 -12 9 -20
zM444 832c0 -6.66699 -3 -12.834 -9 -18.501s-12.333 -8.5 -19 -8.5c-8 0 -14.667 2.83301 -20 8.5s-8 11.834 -8 18.501c0 8 2.66699 14.667 8 20s12 8 20 8c6.66699 0 13 -2.66699 19 -8s9 -12 9 -20z" />
    <glyph glyph-name="Igrave" unicode="&#xcc;" horiz-adv-x="244" 
d="M128 0h-12v700h12v-700zM19 916c5.33301 0 9.66699 -0.332031 13 -0.999023s6.33301 -2.66699 9 -6l124 -140h-6c-1.33301 0 -2.83301 0.166992 -4.5 0.5s-3.16699 1.16602 -4.5 2.49902l-149 144h18z" />
    <glyph glyph-name="Iacute" unicode="&#xcd;" horiz-adv-x="244" 
d="M128 0h-12v700h12v-700zM265 916l-165 -144.001c-1.33301 -1.33301 -2.83301 -2.16602 -4.5 -2.49902s-3.16699 -0.5 -4.5 -0.5h-6l140 140c2.66699 2.66699 5.5 4.5 8.5 5.5c3.66699 1 8.16699 1.5 13.5 1.5h18z" />
    <glyph glyph-name="Icircumflex" unicode="&#xce;" horiz-adv-x="244" 
d="M128 0h-12v700h12v-700zM243 769h-9.99902c-1.33301 0 -3 0.166992 -5 0.5s-3.66699 1.5 -5 3.5l-98 112c-0.666992 0.666992 -1.33398 1.66699 -2.00098 3l-2 -3l-98 -112c-1.33301 -1.33301 -3 -2.33301 -5 -3s-3.66699 -1 -5 -1h-10l116 132h8z" />
    <glyph glyph-name="Idieresis" unicode="&#xcf;" horiz-adv-x="244" 
d="M128 0h-12v700h12v-700zM59 832c0 -6.66699 -3 -12.834 -9 -18.501s-12.333 -8.5 -19 -8.5c-8 0 -14.667 2.83301 -20 8.5s-8 11.834 -8 18.501c0 8 2.66699 14.667 8 20s12 8 20 8c6.66699 0 13 -2.66699 19 -8s9 -12 9 -20zM243 832c0 -6.66699 -3 -12.834 -9 -18.501
s-12.333 -8.5 -19 -8.5c-8 0 -14.667 2.83301 -20 8.5s-8 11.834 -8 18.501c0 8 2.66699 14.667 8 20s12 8 20 8c6.66699 0 13 -2.66699 19 -8s9 -12 9 -20z" />
    <glyph glyph-name="Eth" unicode="&#xd0;" horiz-adv-x="765" 
d="M6 361l116 -0.00195312v339h250c48 0 91.667 -7.83301 131 -23.5s73.333 -38.5 102 -68.5s51 -66.667 67 -110s24 -92.666 24 -147.999s-8 -104.666 -24 -147.999s-38.333 -80 -67 -110s-62.667 -52.833 -102 -68.5s-83 -23.5 -131 -23.5h-250v351h-116v10zM682 349.998
c0 54.667 -7.50195 103 -22.502 145s-36.167 77.5 -63.5 106.5s-60.166 51 -98.499 66s-80.166 22.5 -125.499 22.5h-238v-329h172v-10h-172v-341h238c46 0 88 7.5 126 22.5s70.667 37 98 66s48.5 64.5 63.5 106.5s22.5 90.333 22.5 145z" />
    <glyph glyph-name="Ntilde" unicode="&#xd1;" horiz-adv-x="748" 
d="M120 700c2.66699 0 5 -1.33301 7 -4l495 -674v5v5v668h10v-700h-3c-2 0 -3.66699 1.33301 -5 4l-498 677v-6v-6v-669h-10v700h4zM452 787c16.667 0 29.8359 5.5 39.5029 16.5s15.167 24.5 16.5 40.5h8c0 -9.33301 -1.5 -18 -4.5 -26s-7.16699 -15 -12.5 -21
s-11.833 -10.833 -19.5 -14.5s-16.834 -5.5 -27.501 -5.5s-21.167 3 -31.5 9s-20.5 12.667 -30.5 20s-20 14 -30 20c-10.667 6 -20.667 9 -30 9c-8 0 -15.333 -1.5 -22 -4.5s-12.334 -7.16699 -17.001 -12.5s-8.33398 -11.333 -11.001 -18s-4 -14 -4 -22h-10
c0 9.33301 1.66699 18 5 26s7.66602 15 12.999 21s12 10.833 20 14.5s16.667 5.5 26 5.5c10.667 0 21.334 -3 32.001 -9s21 -12.667 31 -20s20 -14 30 -20s19.667 -9 29 -9z" />
    <glyph glyph-name="Ograve" unicode="&#xd2;" horiz-adv-x="784" 
d="M716 350c0 -55.333 -8 -105 -24 -149s-38.333 -81.5 -67 -112.5s-62.667 -54.667 -102 -71s-83 -24.5 -131 -24.5s-91.667 8.16699 -131 24.5s-73.333 40 -102 71s-51 68.5 -67 112.5s-24 93.667 -24 149c0 54.667 8 104.167 24 148.5s38.333 82 67 113
s62.667 54.833 102 71.5s83 25 131 25s91.667 -8.33301 131 -25s73.333 -40.334 102 -71.001s51 -68.167 67 -112.5s24 -94.166 24 -149.499zM702 350c0 54.667 -7.50195 103.334 -22.502 146.001s-36.167 79 -63.5 109s-60.166 53 -98.499 69s-80.166 24 -125.499 24
s-87 -8 -125 -24s-70.833 -39 -98.5 -69s-49.334 -66.333 -65.001 -109s-23.5 -91.334 -23.5 -146.001s7.83301 -103.334 23.5 -146.001s37.334 -79 65.001 -109s60.5 -52.833 98.5 -68.5s79.667 -23.5 125 -23.5c46 0 88 7.83301 126 23.5s70.667 38.5 98 68.5
s48.5 66.333 63.5 109s22.5 91.334 22.5 146.001zM287.998 916c5.33301 0 9.66699 -0.332031 13 -0.999023s6.33301 -2.66699 9 -6l124 -140h-6c-1.33301 0 -2.83301 0.166992 -4.5 0.5s-3.16699 1.16602 -4.5 2.49902l-149 144h18z" />
    <glyph glyph-name="Oacute" unicode="&#xd3;" horiz-adv-x="784" 
d="M716 350c0 -55.333 -8 -105 -24 -149s-38.333 -81.5 -67 -112.5s-62.667 -54.667 -102 -71s-83 -24.5 -131 -24.5s-91.667 8.16699 -131 24.5s-73.333 40 -102 71s-51 68.5 -67 112.5s-24 93.667 -24 149c0 54.667 8 104.167 24 148.5s38.333 82 67 113
s62.667 54.833 102 71.5s83 25 131 25s91.667 -8.33301 131 -25s73.333 -40.334 102 -71.001s51 -68.167 67 -112.5s24 -94.166 24 -149.499zM702 350c0 54.667 -7.50195 103.334 -22.502 146.001s-36.167 79 -63.5 109s-60.166 53 -98.499 69s-80.166 24 -125.499 24
s-87 -8 -125 -24s-70.833 -39 -98.5 -69s-49.334 -66.333 -65.001 -109s-23.5 -91.334 -23.5 -146.001s7.83301 -103.334 23.5 -146.001s37.334 -79 65.001 -109s60.5 -52.833 98.5 -68.5s79.667 -23.5 125 -23.5c46 0 88 7.83301 126 23.5s70.667 38.5 98 68.5
s48.5 66.333 63.5 109s22.5 91.334 22.5 146.001zM533.998 916l-165 -144.001c-1.33301 -1.33301 -2.83301 -2.16602 -4.5 -2.49902s-3.16699 -0.5 -4.5 -0.5h-6l140 140c2.66699 2.66699 5.5 4.5 8.5 5.5c3.66699 1 8.16699 1.5 13.5 1.5h18z" />
    <glyph glyph-name="Ocircumflex" unicode="&#xd4;" horiz-adv-x="784" 
d="M716 350c0 -55.333 -8 -105 -24 -149s-38.333 -81.5 -67 -112.5s-62.667 -54.667 -102 -71s-83 -24.5 -131 -24.5s-91.667 8.16699 -131 24.5s-73.333 40 -102 71s-51 68.5 -67 112.5s-24 93.667 -24 149c0 54.667 8 104.167 24 148.5s38.333 82 67 113
s62.667 54.833 102 71.5s83 25 131 25s91.667 -8.33301 131 -25s73.333 -40.334 102 -71.001s51 -68.167 67 -112.5s24 -94.166 24 -149.499zM702 350c0 54.667 -7.50195 103.334 -22.502 146.001s-36.167 79 -63.5 109s-60.166 53 -98.499 69s-80.166 24 -125.499 24
s-87 -8 -125 -24s-70.833 -39 -98.5 -69s-49.334 -66.333 -65.001 -109s-23.5 -91.334 -23.5 -146.001s7.83301 -103.334 23.5 -146.001s37.334 -79 65.001 -109s60.5 -52.833 98.5 -68.5s79.667 -23.5 125 -23.5c46 0 88 7.83301 126 23.5s70.667 38.5 98 68.5
s48.5 66.333 63.5 109s22.5 91.334 22.5 146.001zM511.998 769h-9.99902c-1.33301 0 -3 0.166992 -5 0.5s-3.66699 1.5 -5 3.5l-98 112c-0.666992 0.666992 -1.33398 1.66699 -2.00098 3l-2 -3l-98 -112c-1.33301 -1.33301 -3 -2.33301 -5 -3s-3.66699 -1 -5 -1h-10l116 132
h8z" />
    <glyph glyph-name="Otilde" unicode="&#xd5;" horiz-adv-x="784" 
d="M716 350c0 -55.333 -8 -105 -24 -149s-38.333 -81.5 -67 -112.5s-62.667 -54.667 -102 -71s-83 -24.5 -131 -24.5s-91.667 8.16699 -131 24.5s-73.333 40 -102 71s-51 68.5 -67 112.5s-24 93.667 -24 149c0 54.667 8 104.167 24 148.5s38.333 82 67 113
s62.667 54.833 102 71.5s83 25 131 25s91.667 -8.33301 131 -25s73.333 -40.334 102 -71.001s51 -68.167 67 -112.5s24 -94.166 24 -149.499zM702 350c0 54.667 -7.50195 103.334 -22.502 146.001s-36.167 79 -63.5 109s-60.166 53 -98.499 69s-80.166 24 -125.499 24
s-87 -8 -125 -24s-70.833 -39 -98.5 -69s-49.334 -66.333 -65.001 -109s-23.5 -91.334 -23.5 -146.001s7.83301 -103.334 23.5 -146.001s37.334 -79 65.001 -109s60.5 -52.833 98.5 -68.5s79.667 -23.5 125 -23.5c46 0 88 7.83301 126 23.5s70.667 38.5 98 68.5
s48.5 66.333 63.5 109s22.5 91.334 22.5 146.001zM455.998 788c16.667 0 29.835 5.49902 39.502 16.499s14.834 24.5 15.501 40.5h8c0 -9.33301 -1.5 -18 -4.5 -26s-7.16699 -15 -12.5 -21s-11.833 -10.833 -19.5 -14.5s-16.5 -5.5 -26.5 -5.5
c-10.667 0 -21.334 3 -32.001 9s-21 12.667 -31 20s-20 14 -30 20s-19.667 9 -29 9c-8 0 -15.333 -1.5 -22 -4.5s-12.334 -7 -17.001 -12s-8.33398 -11.167 -11.001 -18.5s-4.33398 -14.666 -5.00098 -21.999h-9c0 9.33301 1.5 18 4.5 26s7.33301 15 13 21
s12.5 10.833 20.5 14.5s16.667 5.5 26 5.5c10.667 0 21.334 -3 32.001 -9s21 -12.667 31 -20s20 -14 30 -20s19.667 -9 29 -9z" />
    <glyph glyph-name="Odieresis" unicode="&#xd6;" horiz-adv-x="784" 
d="M716 350c0 -55.333 -8 -105 -24 -149s-38.333 -81.5 -67 -112.5s-62.667 -54.667 -102 -71s-83 -24.5 -131 -24.5s-91.667 8.16699 -131 24.5s-73.333 40 -102 71s-51 68.5 -67 112.5s-24 93.667 -24 149c0 54.667 8 104.167 24 148.5s38.333 82 67 113
s62.667 54.833 102 71.5s83 25 131 25s91.667 -8.33301 131 -25s73.333 -40.334 102 -71.001s51 -68.167 67 -112.5s24 -94.166 24 -149.499zM702 350c0 54.667 -7.50195 103.334 -22.502 146.001s-36.167 79 -63.5 109s-60.166 53 -98.499 69s-80.166 24 -125.499 24
s-87 -8 -125 -24s-70.833 -39 -98.5 -69s-49.334 -66.333 -65.001 -109s-23.5 -91.334 -23.5 -146.001s7.83301 -103.334 23.5 -146.001s37.334 -79 65.001 -109s60.5 -52.833 98.5 -68.5s79.667 -23.5 125 -23.5c46 0 88 7.83301 126 23.5s70.667 38.5 98 68.5
s48.5 66.333 63.5 109s22.5 91.334 22.5 146.001zM327.998 832c0 -6.66699 -3 -12.834 -9 -18.501s-12.333 -8.5 -19 -8.5c-8 0 -14.667 2.83301 -20 8.5s-8 11.834 -8 18.501c0 8 2.66699 14.667 8 20s12 8 20 8c6.66699 0 13 -2.66699 19 -8s9 -12 9 -20zM511.998 832
c0 -6.66699 -3 -12.834 -9 -18.501s-12.333 -8.5 -19 -8.5c-8 0 -14.667 2.83301 -20 8.5s-8 11.834 -8 18.501c0 8 2.66699 14.667 8 20s12 8 20 8c6.66699 0 13 -2.66699 19 -8s9 -12 9 -20z" />
    <glyph glyph-name="multiply" unicode="&#xd7;" horiz-adv-x="580" 
d="M492 528l-194 -193l194 -194l-8 -7l-194 194l-194 -195l-8 7l195 195l-195 194l8 8l194 -195l194 194z" />
    <glyph glyph-name="Oslash" unicode="&#xd8;" horiz-adv-x="784" 
d="M716 350c0 -55.333 -7.99902 -105.002 -23.999 -149.002s-38.333 -81.5 -67 -112.5s-62.667 -54.667 -102 -71s-83 -24.5 -131 -24.5c-40 0 -77.333 5.83301 -112 17.5s-66 28.834 -94 51.501l-80 -107c-2.66699 -4 -6 -6 -10 -6h-8l90 120
c-34.667 30.667 -61.667 69.667 -81 117s-29 102 -29 164c0 54.667 8 104.167 24 148.5s38.333 82 67 113s62.667 54.833 102 71.5s83 25 131 25c42 0 80.667 -6.33301 116 -19c34.667 -12.667 66 -31 94 -55l70 92c1.33301 2 2.66602 3.5 3.99902 4.5s3.33301 1.5 6 1.5h8
l-80 -106c33.333 -31.333 59.333 -70.166 78 -116.499s28 -99.5 28 -159.5zM80.001 349.998c0 -60 9.33398 -112.832 28.001 -158.499s44.334 -83.5 77.001 -113.5l411 547c-26.667 24 -57.334 42.167 -92.001 54.5s-72 18.5 -112 18.5c-45.333 0 -87 -8 -125 -24
s-70.833 -39 -98.5 -69s-49.334 -66.333 -65.001 -109s-23.5 -91.334 -23.5 -146.001zM702.002 349.999c0 58.667 -8.66797 110.331 -26.001 154.998s-41.333 82.334 -72 113.001l-410 -547c26.667 -22.667 56.5 -39.667 89.5 -51c33.667 -11.333 69.834 -17 108.501 -17
c46 0 88 7.83301 126 23.5s70.667 38.5 98 68.5s48.5 66.333 63.5 109s22.5 91.334 22.5 146.001z" />
    <glyph glyph-name="Ugrave" unicode="&#xd9;" horiz-adv-x="720" 
d="M360 2c37.333 0 71 6.66895 101 20.002s55.333 31.666 76 54.999s36.5 50.666 47.5 81.999s16.5 65 16.5 101v440h12v-440c0 -37.333 -5.83301 -72.333 -17.5 -105s-28.5 -61 -50.5 -85s-48.667 -43.167 -80 -57.5s-66.333 -21.5 -105 -21.5s-73.667 7.16699 -105 21.5
s-58 33.5 -80 57.5s-38.833 52.333 -50.5 85s-17.5 67.667 -17.5 105v440h12v-439c0 -36 5.5 -69.667 16.5 -101s26.833 -58.833 47.5 -82.5s46 -42.167 76 -55.5s63.667 -20 101 -20zM256 916.002c5.33301 0 9.66699 -0.332031 13 -0.999023s6.33301 -2.66699 9 -6
l124 -140h-6c-1.33301 0 -2.83301 0.166992 -4.5 0.5s-3.16699 1.16602 -4.5 2.49902l-149 144h18z" />
    <glyph glyph-name="Uacute" unicode="&#xda;" horiz-adv-x="720" 
d="M360 2c37.333 0 71 6.66895 101 20.002s55.333 31.666 76 54.999s36.5 50.666 47.5 81.999s16.5 65 16.5 101v440h12v-440c0 -37.333 -5.83301 -72.333 -17.5 -105s-28.5 -61 -50.5 -85s-48.667 -43.167 -80 -57.5s-66.333 -21.5 -105 -21.5s-73.667 7.16699 -105 21.5
s-58 33.5 -80 57.5s-38.833 52.333 -50.5 85s-17.5 67.667 -17.5 105v440h12v-439c0 -36 5.5 -69.667 16.5 -101s26.833 -58.833 47.5 -82.5s46 -42.167 76 -55.5s63.667 -20 101 -20zM502 916.002l-165 -144.001c-1.33301 -1.33301 -2.83301 -2.16602 -4.5 -2.49902
s-3.16699 -0.5 -4.5 -0.5h-6l140 140c2.66699 2.66699 5.5 4.5 8.5 5.5c3.66699 1 8.16699 1.5 13.5 1.5h18z" />
    </font>
</defs>
</svg>
