<?xml version="1.0" standalone="no"?>
<!DOCTYPE svg PUBLIC "-//W3C//DTD SVG 1.1//EN" "http://www.w3.org/Graphics/SVG/1.1/DTD/svg11.dtd" >
<svg version="1.1" xmlns="http://www.w3.org/2000/svg">
<metadata>
Created by FontForge 20120731 at Fri Aug  1 16:50:22 2014

Copyright (c) 2010-2014 by tyPoland Lukasz Dziedzic with Reserved Font Name "Lato". Licensed under the SIL Open Font License, Version 1.1. 
</metadata>
<defs>
<font id="lato" horiz-adv-x="400" >
  <font-face 
    font-family="Lato Thin"
    font-weight="200"
    font-stretch="normal"
    units-per-em="1000"
    panose-1="2 15 3 2 2 2 4 3 2 3"
    ascent="805"
    descent="-195"
    x-height="493"
    cap-height="703"
    bbox="-468.001 -261 1341 1042"
    underline-thickness="97"
    underline-position="-3"
    unicode-range="U+000D-FEFF"
  />
<missing-glyph horiz-adv-x="503" 
d="M134 565c6.66699 6.66699 13.8311 12.832 21.498 18.499s16.334 10.834 26.001 15.501s20 8.33398 31 11.001s23.167 4 36.5 4c16 0 31.5 -2.33301 46.5 -7s27.833 -11.667 38.5 -21s19.334 -20.666 26.001 -33.999s10 -28 10 -44c0 -18.667 -2.83301 -34.5 -8.5 -47.5
s-12.834 -24.5 -21.501 -34.5s-18.167 -18.833 -28.5 -26.5s-19.833 -14.834 -28.5 -21.501s-16 -13.334 -22 -20.001s-9 -14.334 -9 -23.001l-4 -60h-18l-1 62c0 9.33301 2.83301 17.833 8.5 25.5s12.834 15 21.501 22s18 14.167 28 21.5s19.333 15.666 28 24.999
s16 20.166 22 32.499s9 26.5 9 42.5c0 13.333 -2.83301 25.5 -8.5 36.5s-13 20.333 -22 28s-19.5 13.334 -31.5 17.001s-24 5.5 -36 5.5c-16 0 -30 -2.16699 -42 -6.5s-22 -9.16602 -30 -14.499s-14.333 -10.166 -19 -14.499s-7.66699 -6.5 -9 -6.5c-2.66699 0 -5 1 -7 3z
M207.997 124.998c0 8.66699 2.99902 16 8.99902 22s13 9 21 9c8.66699 0 15.834 -3 21.501 -9s8.5 -13.333 8.5 -22c0 -8 -2.66699 -15 -8 -21s-12.666 -9 -21.999 -9c-8.66699 0 -15.834 3 -21.501 9s-8.5 13 -8.5 21zM23.9961 702.998h454v-703h-454v703zM37.9961 12.998
h427v677h-427v-677z" />
    <glyph glyph-name="uniFB00" unicode="ff" horiz-adv-x="634" 
d="M116 0l-0.00195312 454l-78 2c-6.66699 0.666992 -9.66699 3.33398 -9 8.00098v10h87v65c0 28 3.33301 52.5 10 73.5s16.334 38.333 29.001 52s27.667 23.834 45 30.501s36 10 56 10c10 0 20.167 -0.833008 30.5 -2.5s19.5 -4.5 27.5 -8.5l-2 -11
c0 -2.66699 -1 -4.16699 -3 -4.5s-5.16699 0 -9.5 1s-9.66602 2 -15.999 3s-14.166 1.5 -23.499 1.5c-17.333 0 -33.166 -2.5 -47.499 -7.5s-26.666 -13.333 -36.999 -25s-18.5 -26.834 -24.5 -45.501s-9 -41.334 -9 -68.001v-64h272v72c0 28 3.5 52.333 10.5 73
s16.667 38 29 52s27.166 24.333 44.499 31s36.666 10 57.999 10c9.33301 0 19.166 -1 29.499 -3c9.66699 -2 18.5 -4.66699 26.5 -8v-11c-0.666992 -2.66699 -2.16699 -4.16699 -4.5 -4.5s-5.5 0 -9.5 1s-9.33301 2 -16 3s-14.667 1.5 -24 1.5c-17.333 0 -33 -2.5 -47 -7.5
s-26.333 -13.5 -37 -25.5s-19 -27.167 -25 -45.5s-9 -40.833 -9 -67.5v-71h170v-20h-170v-454h-26v454h-272v-454h-26z" />
    <glyph glyph-name="uniFB01" unicode="fi" horiz-adv-x="520" 
d="M117 0v453.998l-77 2c-6.66699 0.666992 -10 3.33398 -10 8.00098v10h87v50c0 30.667 4.33301 58 13 82s21.167 44.167 37.5 60.5s35.833 28.666 58.5 36.999s48 12.5 76 12.5c10 0 20.5 -0.833008 31.5 -2.5c11 -1 20.167 -3.5 27.5 -7.5l-1 -12
c-0.666992 -2 -2 -3.16699 -4 -3.5s-5.16699 0 -9.5 1s-9.83301 2 -16.5 3s-14.667 1.5 -24 1.5c-24.667 0 -47 -3.5 -67 -10.5s-37.167 -17.667 -51.5 -32s-25.333 -32.166 -33 -53.499s-11.5 -46.666 -11.5 -75.999v-50h284v-474h-27v454h-256v-454h-27z" />
    <glyph glyph-name="uniFB02" unicode="fl" horiz-adv-x="548" 
d="M117 0l0.000976562 453.999l-77 2c-6.66699 0.666992 -10 3.33398 -10 8.00098v10h87v36c0 30 4.33301 57.5 13 82.5s21.167 46.5 37.5 64.5s36.5 32 60.5 42s51.667 15 83 15c21.333 0 42.5 -1 63.5 -3s40.167 -3 57.5 -3h23v-708h-27v690
c-17.333 0 -36.333 0.666992 -57 2s-39.667 2 -57 2c-26.667 0 -50.667 -4.33301 -72 -13s-39.333 -21 -54 -37s-25.834 -35.333 -33.501 -58s-11.5 -48 -11.5 -76v-36h151v-20h-150v-454h-27z" />
    <glyph glyph-name="uniFB03" unicode="ffi" horiz-adv-x="819" 
d="M117 0l0.00195312 453.999l-77 2c-6.66699 0.666992 -10 3.33398 -10 8.00098v10h87v65c0 28 3.5 52.5 10.5 73.5s16.667 38.333 29 52s27.166 23.834 44.499 30.501s36.333 10 57 10c9.33301 0 19.333 -0.833008 30 -2.5s20 -4.5 28 -8.5l-2 -11
c-0.666992 -2.66699 -2 -4.16699 -4 -4.5s-5.16699 0 -9.5 1s-9.83301 2 -16.5 3s-14.667 1.5 -24 1.5c-17.333 0 -33 -2.5 -47 -7.5s-26.333 -13.333 -37 -25s-18.834 -26.834 -24.501 -45.501s-8.5 -41.334 -8.5 -68.001v-64h273v50c0 30.667 4.33301 58 13 82
s21 44.167 37 60.5s35.333 28.666 58 36.999s48 12.5 76 12.5c10 0 20.5 -0.833008 31.5 -2.5c11 -1 20.5 -3.5 28.5 -7.5l-2 -12c-0.666992 -2 -1.83398 -3.16699 -3.50098 -3.5s-4.66699 0 -9 1s-9.66602 2 -15.999 3s-14.5 1.5 -24.5 1.5c-24.667 0 -47 -3.5 -67 -10.5
s-37.167 -17.667 -51.5 -32s-25.333 -32.166 -33 -53.499s-11.5 -46.666 -11.5 -75.999v-50h284v-474h-26v454h-258v-454h-26v454h-272v-454h-27z" />
    <glyph glyph-name="uniFB04" unicode="ffl" horiz-adv-x="845" 
d="M116 0l-0.00585938 454l-78 2c-6.66699 0.666992 -9.66699 3.33398 -9 8.00098v10h87v65c0 28 3.33301 52.5 10 73.5s16.334 38.333 29.001 52s27.667 23.834 45 30.501s36 10 56 10c10 0 20.167 -0.833008 30.5 -2.5s19.5 -4.5 27.5 -8.5l-2 -11
c0 -2.66699 -1 -4.16699 -3 -4.5s-5.16699 0 -9.5 1s-9.66602 2 -15.999 3s-14.166 1.5 -23.499 1.5c-17.333 0 -33.166 -2.5 -47.499 -7.5s-26.666 -13.333 -36.999 -25s-18.5 -26.834 -24.5 -45.501s-9 -41.334 -9 -68.001v-64h272v36c0 30 4.33301 57.5 13 82.5
s21.334 46.5 38.001 64.5s37 32 61 42s51.333 15 82 15c21.333 0 42.333 -1 63 -3s40.334 -3 59.001 -3h22v-708h-26v690c-17.333 0 -36.333 0.666992 -57 2s-40 2 -58 2c-26.667 0 -50.667 -4.33301 -72 -13s-39.333 -21 -54 -37s-25.834 -35.333 -33.501 -58
s-11.5 -48 -11.5 -76v-36h170v-20h-170v-454h-26v454h-272v-454h-26z" />
    <glyph glyph-name="f_b.liga" unicode="fb" horiz-adv-x="877" 
d="M419 0l0.000976562 701.998c-16.667 2.66699 -34 5 -52 7s-34.333 3 -49 3c-32.667 0 -60.167 -4.5 -82.5 -13.5s-40.5 -21.667 -54.5 -38s-24 -35.666 -30 -57.999s-9 -46.833 -9 -73.5v-55h168v-20h-168v-454h-26v454l-78 2
c-6.66699 0.666992 -9.66699 3.33398 -9 8.00098v10h87v55c0 29.333 3.66699 56.333 11 81s19 46 35 64s36.833 32 62.5 42s56.834 15 93.501 15c21.333 0 41.666 -1.16699 60.999 -3.5s39.333 -3.83301 60 -4.5h7v-325c10.667 16 22.334 30.333 35.001 43
s26.667 23.334 42 32.001s31.666 15.5 48.999 20.5s36.333 7.5 57 7.5c30 0 56.833 -5.33301 80.5 -16s43.667 -26.167 60 -46.5s28.833 -45.5 37.5 -75.5s13 -64.333 13 -103c0 -40 -4.66699 -76.333 -14 -109s-23.333 -60.667 -42 -84s-41.334 -41.333 -68.001 -54
s-57.334 -19 -92.001 -19c-70.667 0 -124 28 -160 84l-2 -69c0 -2.66699 -0.666992 -4.83398 -2 -6.50098s-3.66602 -2.5 -6.99902 -2.5h-14zM624.001 479.998c-38.667 0 -72.6699 -9.66797 -102.003 -29.001s-54.666 -45.666 -75.999 -78.999v-270
c20 -32 42.667 -54.667 68 -68s54 -20 86 -20c32.667 0 61.167 6 85.5 18s44.333 28.667 60 50s27.334 47 35.001 77s11.5 63.333 11.5 100c0 73.333 -14.667 128.5 -44 165.5s-70.666 55.5 -123.999 55.5z" />
    <glyph glyph-name="f_f_b.liga" unicode="ffb" horiz-adv-x="1176" 
d="M116 0l-0.00292969 453.999l-78 2c-6.66699 0.666992 -9.66699 3.33398 -9 8.00098v10h87v65c0 28 3.33301 52.5 10 73.5s16.334 38.333 29.001 52s27.667 23.834 45 30.501s36 10 56 10c10 0 20.167 -0.833008 30.5 -2.5s19.5 -4.5 27.5 -8.5l-2 -11
c0 -2.66699 -1 -4.16699 -3 -4.5s-5.16699 0 -9.5 1s-9.66602 2 -15.999 3s-14.166 1.5 -23.499 1.5c-17.333 0 -33.166 -2.5 -47.499 -7.5s-26.666 -13.333 -36.999 -25s-18.5 -26.834 -24.5 -45.501s-9 -41.334 -9 -68.001v-64h272v55c0 29.333 3.66699 56.333 11 81
s19.166 46 35.499 64s37.333 32 63 42s56.834 15 93.501 15c20.667 0 41 -1.16699 61 -3.5s40 -3.83301 60 -4.5h6v-325c10.667 16 22.5 30.333 35.5 43s27 23.334 42 32.001s31.5 15.5 49.5 20.5s37 7.5 57 7.5c30 0 56.833 -5.33301 80.5 -16s43.667 -26.167 60 -46.5
s28.666 -45.5 36.999 -75.5s12.5 -64.333 12.5 -103c0 -40 -4.66699 -76.333 -14 -109s-23 -60.667 -41 -84s-40.333 -41.333 -67 -54s-57.334 -19 -92.001 -19c-70.667 0 -124 28 -160 84l-3 -69c0 -2.66699 -0.666992 -4.83398 -2 -6.50098s-3.66602 -2.5 -6.99902 -2.5
h-14v702c-16.667 2.66699 -34 5 -52 7c-18.667 2 -35.334 3 -50.001 3c-32.667 0 -60.167 -4.5 -82.5 -13.5s-40.5 -21.667 -54.5 -38s-24 -35.666 -30 -57.999s-9 -46.833 -9 -73.5v-55h170v-20h-170v-454h-26v454h-272v-454h-26zM921.997 479.999
c-38.667 0 -72.668 -9.66797 -102.001 -29.001s-54.666 -45.666 -75.999 -78.999v-270c20 -32 42.833 -54.667 68.5 -68s54.5 -20 86.5 -20c32.667 0 61 6 85 18s44 28.667 60 50s28 47 36 77s12 63.333 12 100c0 73.333 -15 128.5 -45 165.5s-71.667 55.5 -125 55.5z" />
    <glyph glyph-name="f_h.liga" unicode="fh" horiz-adv-x="877" 
d="M419 0l0.000976562 701.999c-16.667 2.66699 -34 5 -52 7s-34.333 3 -49 3c-32.667 0 -60.167 -4.5 -82.5 -13.5s-40.5 -21.667 -54.5 -38s-24 -35.666 -30 -57.999s-9 -46.833 -9 -73.5v-55h168v-20h-168v-454h-26v454l-78 2
c-6.66699 0.666992 -9.66699 3.33398 -9 8.00098v10h87v55c0 29.333 3.66699 56.333 11 81s19 46 35 64s36.833 32 62.5 42s56.834 15 93.501 15c21.333 0 41.666 -1.16699 60.999 -3.5s39.333 -3.83301 60 -4.5h7v-324c22.667 30.667 49.834 55.334 81.501 74.001
s66.167 28 103.5 28c27.333 0 51.333 -4.16699 72 -12.5s37.667 -20.5 51 -36.5s23.333 -35.5 30 -58.5c6.66699 -22.333 10 -48.166 10 -77.499v-316h-26v316c0 25.333 -2.83301 48.166 -8.5 68.499s-14.334 37.666 -26.001 51.999s-26.5 25.166 -44.5 32.499
s-39 11 -63 11c-36 0 -69.333 -9.33301 -100 -28s-57.334 -44.667 -80.001 -78v-374h-27z" />
    <glyph glyph-name="f_f_h.liga" unicode="ffh" horiz-adv-x="1176" 
d="M116 0l-0.00292969 454l-78 2c-6.66699 0.666992 -9.66699 3.33398 -9 8.00098v10h87v65c0 28 3.33301 52.5 10 73.5s16.334 38.333 29.001 52s27.667 23.834 45 30.501s36 10 56 10c10 0 20.167 -0.833008 30.5 -2.5s19.5 -4.5 27.5 -8.5l-2 -11
c0 -2.66699 -1 -4.16699 -3 -4.5s-5.16699 0 -9.5 1s-9.66602 2 -15.999 3s-14.166 1.5 -23.499 1.5c-17.333 0 -33.166 -2.5 -47.499 -7.5s-26.666 -13.333 -36.999 -25s-18.5 -26.834 -24.5 -45.501s-9 -41.334 -9 -68.001v-64h272v55c0 29.333 3.66699 56.333 11 81
s19.166 46 35.499 64s37.333 32 63 42s56.834 15 93.501 15c20.667 0 41 -1.16699 61 -3.5s40 -3.83301 60 -4.5h6v-324c22.667 30.667 50 55.334 82 74.001s66.667 28 104 28c27.333 0 51.166 -4.16699 71.499 -12.5s37.333 -20.5 51 -36.5s24 -35.5 31 -58.5
c7 -22.333 10.5 -48.166 10.5 -77.499v-316h-27v316c0 25.333 -2.83301 48.166 -8.5 68.499s-14.5 37.666 -26.5 51.999s-26.667 25.166 -44 32.499s-38 11 -62 11c-36 0 -69.333 -9.33301 -100 -28s-58 -44.667 -82 -78v-374h-26v702c-16.667 2.66699 -34 5 -52 7
c-18.667 2 -35.334 3 -50.001 3c-32.667 0 -60.167 -4.5 -82.5 -13.5s-40.5 -21.667 -54.5 -38s-24 -35.666 -30 -57.999s-9 -46.833 -9 -73.5v-55h170v-20h-170v-454h-26v454h-272v-454h-26z" />
    <glyph glyph-name="f_igrave.liga" unicode="f&#xec;" horiz-adv-x="520" 
d="M304 716c10.667 0 19 -1.66992 25 -5.00293s11 -7.66602 15 -12.999l80 -118h-14c-5.33301 0 -9.33301 2 -12 6l-92 110h-2c-24 0 -46 -3.5 -66 -10.5s-37 -17.667 -51 -32s-24.833 -32.166 -32.5 -53.499s-11.5 -46.666 -11.5 -75.999v-50h284v-474h-27v454h-256v-454
h-27v454l-77 2c-6.66699 0.666992 -10 3.33398 -10 8.00098v10h87v50c0 30.667 4.33301 58 13 82s21.167 44.167 37.5 60.5s35.833 28.666 58.5 36.999s48.667 12.5 78 12.5z" />
    <glyph glyph-name="f_icircumflex.liga" unicode="f&#xee;" horiz-adv-x="520" 
d="M117 0l-0.000976562 454l-77 2c-6.66699 0.666992 -10 3.33398 -10 8.00098v10h87v82c0 28 2.83301 52 8.5 72s13.834 36.5 24.501 49.5s23.667 22.667 39 29s32 9.5 50 9.5c11.333 0 21 -1.33301 29 -4v-13c0 -2.66699 -2 -3.83398 -6 -3.50098s-11.333 0.5 -22 0.5
c-30.667 0 -54.5 -11.333 -71.5 -34s-25.5 -58 -25.5 -106v-82h284v-474h-27v454h-256v-454h-27zM531.999 585h-18c-4 0 -7.66699 1.66699 -11 5l-85 92l-2 2l-2 2l-4 -4l-84 -92c-3.33301 -3.33301 -7 -5 -11 -5h-19l107 118h22z" />
    <glyph glyph-name="f_itilde.liga" unicode="f&#x129;" horiz-adv-x="521" 
d="M470 628c16 0 27.832 5.16504 35.499 15.498s11.834 23.5 12.501 39.5h16c0 -10.667 -1.33301 -20.5 -4 -29.5s-6.5 -16.833 -11.5 -23.5s-11.5 -11.834 -19.5 -15.501s-17.333 -5.5 -28 -5.5s-20.834 2.83301 -30.501 8.5s-18.834 12 -27.501 19s-17.5 13.333 -26.5 19
s-18.167 8.5 -27.5 8.5c-14.667 0 -26.167 -5.16699 -34.5 -15.5s-12.5 -23.166 -12.5 -38.499h-18c0 10.667 1.33301 20.334 4 29.001s6.83398 16.334 12.501 23.001s12.5 12 20.5 16c7.33301 4 16.333 6 27 6s21 -2.83301 31 -8.5s19.333 -12 28 -19
s17.334 -13.5 26.001 -19.5s17.667 -9 27 -9zM116.999 -0.00195312l-0.000976562 454l-77 2c-6.66699 0.666992 -10 3.33398 -10 8.00098v10h87v82c0 28 2.83301 52 8.5 72s13.834 36.5 24.501 49.5s23.667 22.667 39 29s32 9.5 50 9.5c11.333 0 21 -1.33301 29 -4v-13
c0 -2.66699 -2 -3.83398 -6 -3.50098s-11.333 0.5 -22 0.5c-30.667 0 -54.5 -11.333 -71.5 -34s-25.5 -58 -25.5 -106v-82h284v-474h-27v454h-256v-454h-27z" />
    <glyph glyph-name="f_idieresis.liga" unicode="f&#xef;" horiz-adv-x="520" 
d="M371 641c0 -8.66699 -3.50098 -16.334 -10.501 -23.001s-14.5 -10 -22.5 -10c-4 0 -8.16699 1 -12.5 3s-8 4.5 -11 7.5s-5.5 6.33301 -7.5 10s-3 7.83398 -3 12.501c0 9.33301 3.33301 17.166 10 23.499s14.667 9.5 24 9.5c8.66699 0 16.334 -3.16699 23.001 -9.5
s10 -14.166 10 -23.499zM518.999 641c0 -8.66699 -3.50098 -16.334 -10.501 -23.001s-14.5 -10 -22.5 -10c-9.33301 0 -17.333 3.33301 -24 10s-10 14.334 -10 23.001c0 9.33301 3.33301 17.166 10 23.499s14.667 9.5 24 9.5c8.66699 0 16.334 -3.16699 23.001 -9.5
s10 -14.166 10 -23.499zM116.998 0l-0.000976562 454l-77 2c-6.66699 0.666992 -10 3.33398 -10 8.00098v10h87v82c0 28 2.83301 52 8.5 72s13.834 36.5 24.501 49.5s23.667 22.667 39 29s32 9.5 50 9.5c11.333 0 21 -1.33301 29 -4v-13c0 -2.66699 -2 -3.83398 -6 -3.50098
s-11.333 0.5 -22 0.5c-30.667 0 -54.5 -11.333 -71.5 -34s-25.5 -58 -25.5 -106v-82h284v-474h-27v454h-256v-454h-27z" />
    <glyph glyph-name="f_imacron.liga" unicode="f&#x12b;" horiz-adv-x="521" 
d="M280 650h264v-18h-264v18zM117 0l-0.000976562 454l-77 2c-6.66699 0.666992 -10 3.33398 -10 8.00098v10h87v82c0 28 2.83301 52 8.5 72s13.834 36.5 24.501 49.5s23.667 22.667 39 29s32 9.5 50 9.5c11.333 0 21 -1.33301 29 -4v-13
c0 -2.66699 -2 -3.83398 -6 -3.50098s-11.333 0.5 -22 0.5c-30.667 0 -54.5 -11.333 -71.5 -34s-25.5 -58 -25.5 -106v-82h284v-474h-27v454h-256v-454h-27z" />
    <glyph glyph-name="f_ibreve.liga" unicode="f&#x12d;" horiz-adv-x="520" 
d="M412 586c-20 0 -36.9961 3 -50.9961 9s-25.5 14.333 -34.5 25s-15.5 23.167 -19.5 37.5s-6 29.5 -6 45.5h20c0 -13.333 1.5 -25.833 4.5 -37.5s8.16699 -22.167 15.5 -31.5s16.666 -16.666 27.999 -21.999s25.666 -8 42.999 -8s31.666 2.66699 42.999 8
s20.666 12.666 27.999 21.999s12.5 20 15.5 32s4.5 24.333 4.5 37h20c0 -16 -2 -31.167 -6 -45.5s-10.5 -26.833 -19.5 -37.5s-20.5 -19 -34.5 -25s-31 -9 -51 -9zM117.004 0l-0.000976562 454l-77 2c-6.66699 0.666992 -10 3.33398 -10 8.00098v10h87v82
c0 28 2.83301 52 8.5 72s13.834 36.5 24.501 49.5s23.667 22.667 39 29s32 9.5 50 9.5c11.333 0 21 -1.33301 29 -4v-13c0 -2.66699 -2 -3.83398 -6 -3.50098s-11.333 0.5 -22 0.5c-30.667 0 -54.5 -11.333 -71.5 -34s-25.5 -58 -25.5 -106v-82h284v-474h-27v454h-256v-454
h-27z" />
    <glyph glyph-name="f_iogonek.liga" unicode="f&#x12f;" horiz-adv-x="520" 
d="M117 0l-0.00292969 453.999l-77 2c-6.66699 0.666992 -10 3.33398 -10 8.00098v10h87v50c0 30.667 4.33301 58 13 82s21.167 44.167 37.5 60.5s35.833 28.666 58.5 36.999s48 12.5 76 12.5c10 0 20.5 -0.833008 31.5 -2.5c11 -1 20.167 -3.5 27.5 -7.5l-1 -12
c-0.666992 -2 -2 -3.16699 -4 -3.5s-5.16699 0 -9.5 1s-9.83301 2 -16.5 3s-14.667 1.5 -24 1.5c-24.667 0 -47 -3.5 -67 -10.5s-37.167 -17.667 -51.5 -32s-25.333 -32.166 -33 -53.499s-11.5 -46.666 -11.5 -75.999v-50h284v-474h-2c-6.66699 -4 -14.167 -9 -22.5 -15
s-16 -13 -23 -21s-13 -16.833 -18 -26.5s-7.5 -20.167 -7.5 -31.5c0 -17.333 6 -31 18 -41s27.333 -15 46 -15c10.667 0 19.334 1 26.001 3s12.334 4.33301 17.001 7s8.33398 5 11.001 7s5 3 7 3s3.66699 -0.666992 5 -2l5 -9c-8.66699 -8 -19.667 -14.5 -33 -19.5
s-27.333 -7.5 -42 -7.5c-23.333 0 -42.5 6 -57.5 18s-22.5 29.333 -22.5 52c0 10.667 2 20.667 6 30s9 18.166 15 26.499s13 16 21 23s16 13.167 24 18.5v454h-256v-454h-27z" />
    <glyph glyph-name="f_dotlessi.liga" unicode="f&#x131;" horiz-adv-x="520" 
d="M117 0l-0.000976562 454l-77 2c-6.66699 0.666992 -10 3.33398 -10 8.00098v10h87v82c0 28 2.83301 52 8.5 72s13.834 36.5 24.501 49.5s23.667 22.667 39 29s32 9.5 50 9.5c11.333 0 21 -1.33301 29 -4v-13c0 -2.66699 -2 -3.83398 -6 -3.50098s-11.333 0.5 -22 0.5
c-30.667 0 -54.5 -11.333 -71.5 -34s-25.5 -58 -25.5 -106v-82h284v-474h-27v454h-256v-454h-27z" />
    <glyph glyph-name="f_f_igrave.liga" unicode="ff&#xec;" horiz-adv-x="818" 
d="M698 0l0.000976562 454.001h-258v-454h-26v454h-270v-454h-27v454l-79 2c-6 0 -9 2.66699 -9 8v10h88v65c0 28 3.5 52.5 10.5 73.5s16.667 38.333 29 52s27.166 23.834 44.499 30.501s36.333 10 57 10c9.33301 0 19.333 -0.833008 30 -2.5s20 -4.5 28 -8.5l-2 -11
c-0.666992 -2.66699 -2 -4.16699 -4 -4.5s-5.16699 0 -9.5 1s-9.83301 2 -16.5 3s-14.667 1.5 -24 1.5c-17.333 0 -33 -2.5 -47 -7.5s-26.333 -13.333 -37 -25s-18.834 -26.834 -24.501 -45.501s-8.5 -41.334 -8.5 -68.001v-64h271v72c0 56 13.833 97.667 41.5 125
s71.167 41 130.5 41c6 0 12.167 -0.333008 18.5 -1s12.5 -1.5 18.5 -2.5s11 -2.5 15 -4.5s7.33301 -4.66699 10 -8l79 -116h-15c-5.33301 0 -9.33301 2 -12 6l-86 104c-4.66699 0.666992 -9.66699 1.16699 -15 1.5s-11.333 0.5 -18 0.5c-20.667 0 -39.667 -2.16699 -57 -6.5
s-32.166 -12 -44.499 -23s-22 -26.167 -29 -45.5s-10.5 -43.333 -10.5 -72v-71h284v-474h-26z" />
    <glyph glyph-name="f_f_icircumflex.liga" unicode="ff&#xee;" horiz-adv-x="819" 
d="M117 0l0.00195312 454.001l-77 2c-6.66699 0.666992 -10 3.33398 -10 8.00098v10h87v65c0 28 3.5 52.5 10.5 73.5s16.667 38.333 29 52s27.166 23.834 44.499 30.501s36.333 10 57 10c9.33301 0 19.333 -0.833008 30 -2.5s20 -4.5 28 -8.5l-2 -11
c-0.666992 -2.66699 -2 -4.16699 -4 -4.5s-5.16699 0 -9.5 1s-9.83301 2 -16.5 3s-14.667 1.5 -24 1.5c-17.333 0 -33 -2.5 -47 -7.5s-26.333 -13.333 -37 -25s-18.834 -26.834 -24.501 -45.501s-8.5 -41.334 -8.5 -68.001v-64h273v82c0 28 3 52 9 72s14.167 36.5 24.5 49.5
s23 22.667 38 29s31.833 9.5 50.5 9.5c10.667 0 20 -1.33301 28 -4v-13c0 -2.66699 -2 -3.83398 -6 -3.50098s-11 0.5 -21 0.5c-31.333 0 -55.333 -11.333 -72 -34s-25 -58 -25 -106v-82h284v-474h-26v454h-258v-454h-26v454h-272v-454h-27zM830.002 585.001h-18
c-4 0 -7.66699 1.66699 -11 5l-85 92l-2 2l-2 2l-4 -4l-84 -92c-3.33301 -3.33301 -7 -5 -11 -5h-19l107 118h22z" />
    <glyph glyph-name="f_f_itilde.liga" unicode="ff&#x129;" horiz-adv-x="820" 
d="M117 0l0.00195312 454.001l-77 2c-6.66699 0.666992 -10 3.33398 -10 8.00098v10h87v65c0 28 3.5 52.5 10.5 73.5s16.667 38.333 29 52s27.166 23.834 44.499 30.501s36.333 10 57 10c9.33301 0 19.333 -0.833008 30 -2.5s20 -4.5 28 -8.5l-2 -11
c-0.666992 -2.66699 -2 -4.16699 -4 -4.5s-5.16699 0 -9.5 1s-9.83301 2 -16.5 3s-14.667 1.5 -24 1.5c-17.333 0 -33 -2.5 -47 -7.5s-26.333 -13.333 -37 -25s-18.834 -26.834 -24.501 -45.501s-8.5 -41.334 -8.5 -68.001v-64h273v82c0 28 3 52 9 72s14.167 36.5 24.5 49.5
s23 22.667 38 29s31.833 9.5 50.5 9.5c10.667 0 20 -1.33301 28 -4v-13c0 -2.66699 -2 -3.83398 -6 -3.50098s-11 0.5 -21 0.5c-31.333 0 -55.333 -11.333 -72 -34s-25 -58 -25 -106v-82h284v-474h-26v454h-258v-454h-26v454h-272v-454h-27zM768.002 628.001
c16 0 27.832 5.16504 35.499 15.498s11.834 23.5 12.501 39.5h16c0 -10.667 -1.33301 -20.5 -4 -29.5s-6.5 -16.833 -11.5 -23.5s-11.5 -11.834 -19.5 -15.501s-17.333 -5.5 -28 -5.5s-20.834 2.83301 -30.501 8.5s-18.834 12 -27.501 19s-17.5 13.333 -26.5 19
s-18.167 8.5 -27.5 8.5c-14.667 0 -26.167 -5.16699 -34.5 -15.5s-12.5 -23.166 -12.5 -38.499h-18c0 10.667 1.33301 20.334 4 29.001s6.83398 16.334 12.501 23.001s12.5 12 20.5 16c7.33301 4 16.333 6 27 6s21 -2.83301 31 -8.5s19.333 -12 28 -19
s17.334 -13.5 26.001 -19.5s17.667 -9 27 -9z" />
    <glyph glyph-name="f_f_idieresis.liga" unicode="ff&#xef;" horiz-adv-x="819" 
d="M664 641c0 -8.66699 -3.33301 -16.334 -10 -23.001s-14 -10 -22 -10c-9.33301 0 -17.333 3.33301 -24 10s-10 14.334 -10 23.001c0 9.33301 3.33301 17.166 10 23.499s14.667 9.5 24 9.5c8.66699 0 16.167 -3.16699 22.5 -9.5s9.5 -14.166 9.5 -23.499zM812 641
c0 -8.66699 -3.33301 -16.334 -10 -23.001s-14 -10 -22 -10c-9.33301 0 -17.333 3.33301 -24 10s-10 14.334 -10 23.001c0 9.33301 3.33301 17.166 10 23.499s14.667 9.5 24 9.5c8.66699 0 16.167 -3.16699 22.5 -9.5s9.5 -14.166 9.5 -23.499zM117 0l0.00195312 454.001
l-77 2c-6.66699 0.666992 -10 3.33398 -10 8.00098v10h87v65c0 28 3.5 52.5 10.5 73.5s16.667 38.333 29 52s27.166 23.834 44.499 30.501s36.333 10 57 10c9.33301 0 19.333 -0.833008 30 -2.5s20 -4.5 28 -8.5l-2 -11c-0.666992 -2.66699 -2 -4.16699 -4 -4.5
s-5.16699 0 -9.5 1s-9.83301 2 -16.5 3s-14.667 1.5 -24 1.5c-17.333 0 -33 -2.5 -47 -7.5s-26.333 -13.333 -37 -25s-18.834 -26.834 -24.501 -45.501s-8.5 -41.334 -8.5 -68.001v-64h273v82c0 28 3 52 9 72s14.167 36.5 24.5 49.5s23 22.667 38 29s31.833 9.5 50.5 9.5
c10.667 0 20 -1.33301 28 -4v-13c0 -2.66699 -2 -3.83398 -6 -3.50098s-11 0.5 -21 0.5c-31.333 0 -55.333 -11.333 -72 -34s-25 -58 -25 -106v-82h284v-474h-26v454h-258v-454h-26v454h-272v-454h-27z" />
    <glyph glyph-name="f_f_imacron.liga" unicode="ff&#x12b;" horiz-adv-x="820" 
d="M117 0l0.00195312 454.001l-77 2c-6.66699 0.666992 -10 3.33398 -10 8.00098v10h87v65c0 28 3.5 52.5 10.5 73.5s16.667 38.333 29 52s27.166 23.834 44.499 30.501s36.333 10 57 10c9.33301 0 19.333 -0.833008 30 -2.5s20 -4.5 28 -8.5l-2 -11
c-0.666992 -2.66699 -2 -4.16699 -4 -4.5s-5.16699 0 -9.5 1s-9.83301 2 -16.5 3s-14.667 1.5 -24 1.5c-17.333 0 -33 -2.5 -47 -7.5s-26.333 -13.333 -37 -25s-18.834 -26.834 -24.501 -45.501s-8.5 -41.334 -8.5 -68.001v-64h273v82c0 28 3 52 9 72s14.167 36.5 24.5 49.5
s23 22.667 38 29s31.833 9.5 50.5 9.5c10.667 0 20 -1.33301 28 -4v-13c0 -2.66699 -2 -3.83398 -6 -3.50098s-11 0.5 -21 0.5c-31.333 0 -55.333 -11.333 -72 -34s-25 -58 -25 -106v-82h284v-474h-26v454h-258v-454h-26v454h-272v-454h-27zM581.002 650.001h264v-18h-264
v18z" />
    <glyph glyph-name="f_f_ibreve.liga" unicode="ff&#x12d;" horiz-adv-x="819" 
d="M117 0l0.00195312 454.001l-77 2c-6.66699 0.666992 -10 3.33398 -10 8.00098v10h87v65c0 28 3.5 52.5 10.5 73.5s16.667 38.333 29 52s27.166 23.834 44.499 30.501s36.333 10 57 10c9.33301 0 19.333 -0.833008 30 -2.5s20 -4.5 28 -8.5l-2 -11
c-0.666992 -2.66699 -2 -4.16699 -4 -4.5s-5.16699 0 -9.5 1s-9.83301 2 -16.5 3s-14.667 1.5 -24 1.5c-17.333 0 -33 -2.5 -47 -7.5s-26.333 -13.333 -37 -25s-18.834 -26.834 -24.501 -45.501s-8.5 -41.334 -8.5 -68.001v-64h273v82c0 28 3 52 9 72s14.167 36.5 24.5 49.5
s23 22.667 38 29s31.833 9.5 50.5 9.5c10.667 0 20 -1.33301 28 -4v-13c0 -2.66699 -2 -3.83398 -6 -3.50098s-11 0.5 -21 0.5c-31.333 0 -55.333 -11.333 -72 -34s-25 -58 -25 -106v-82h284v-474h-26v454h-258v-454h-26v454h-272v-454h-27zM713.002 586.001
c-20 0 -36.9961 3 -50.9961 9s-25.5 14.333 -34.5 25s-15.5 23.167 -19.5 37.5s-6 29.5 -6 45.5h20c0 -13.333 1.5 -25.833 4.5 -37.5s8.16699 -22.167 15.5 -31.5s16.666 -16.666 27.999 -21.999s25.666 -8 42.999 -8s31.666 2.66699 42.999 8s20.666 12.666 27.999 21.999
s12.5 20 15.5 32s4.5 24.333 4.5 37h20c0 -16 -2 -31.167 -6 -45.5s-10.5 -26.833 -19.5 -37.5s-20.5 -19 -34.5 -25s-31 -9 -51 -9z" />
    <glyph glyph-name="f_f_iogonek.liga" unicode="ff&#x12f;" horiz-adv-x="819" 
d="M117 0l0.00390625 454l-77 2c-6.66699 0.666992 -10 3.33398 -10 8.00098v10h87v65c0 28 3.5 52.5 10.5 73.5s16.667 38.333 29 52s27.166 23.834 44.499 30.501s36.333 10 57 10c9.33301 0 19.333 -0.833008 30 -2.5s20 -4.5 28 -8.5l-2 -11
c-0.666992 -2.66699 -2 -4.16699 -4 -4.5s-5.16699 0 -9.5 1s-9.83301 2 -16.5 3s-14.667 1.5 -24 1.5c-17.333 0 -33 -2.5 -47 -7.5s-26.333 -13.333 -37 -25s-18.834 -26.834 -24.501 -45.501s-8.5 -41.334 -8.5 -68.001v-64h273v50c0 30.667 4.33301 58 13 82
s21 44.167 37 60.5s35.333 28.666 58 36.999s48 12.5 76 12.5c10 0 20.5 -0.833008 31.5 -2.5c11 -1 20.5 -3.5 28.5 -7.5l-2 -12c-0.666992 -2 -1.83398 -3.16699 -3.50098 -3.5s-4.66699 0 -9 1s-9.66602 2 -15.999 3s-14.5 1.5 -24.5 1.5c-24.667 0 -47 -3.5 -67 -10.5
s-37.167 -17.667 -51.5 -32s-25.333 -32.166 -33 -53.499s-11.5 -46.666 -11.5 -75.999v-50h284v-474h-2c-6.66699 -4 -14 -9 -22 -15s-15.667 -13 -23 -21s-13.333 -16.833 -18 -26.5s-7 -20.167 -7 -31.5c0 -17.333 6 -31 18 -41s26.667 -15 44 -15
c10.667 0 19.5 1 26.5 3s12.833 4.33301 17.5 7s8.5 5 11.5 7s5.16699 3 6.5 3c2 0 3.66699 -0.666992 5 -2l5 -9c-8.66699 -8 -19.834 -14.5 -33.501 -19.5s-27.834 -7.5 -42.501 -7.5c-23.333 0 -42.5 6 -57.5 18s-22.5 29.333 -22.5 52c0 10.667 2 20.667 6 30
s9.33301 18.166 16 26.499s14 16 22 23s16 13.167 24 18.5v454h-258v-454h-26v454h-272v-454h-27z" />
    <glyph glyph-name="f_f_dotlessi.liga" unicode="ff&#x131;" horiz-adv-x="819" 
d="M117 0l0.00195312 454.001l-77 2c-6.66699 0.666992 -10 3.33398 -10 8.00098v10h87v65c0 28 3.5 52.5 10.5 73.5s16.667 38.333 29 52s27.166 23.834 44.499 30.501s36.333 10 57 10c9.33301 0 19.333 -0.833008 30 -2.5s20 -4.5 28 -8.5l-2 -11
c-0.666992 -2.66699 -2 -4.16699 -4 -4.5s-5.16699 0 -9.5 1s-9.83301 2 -16.5 3s-14.667 1.5 -24 1.5c-17.333 0 -33 -2.5 -47 -7.5s-26.333 -13.333 -37 -25s-18.834 -26.834 -24.501 -45.501s-8.5 -41.334 -8.5 -68.001v-64h273v82c0 28 3 52 9 72s14.167 36.5 24.5 49.5
s23 22.667 38 29s31.833 9.5 50.5 9.5c10.667 0 20 -1.33301 28 -4v-13c0 -2.66699 -2 -3.83398 -6 -3.50098s-11 0.5 -21 0.5c-31.333 0 -55.333 -11.333 -72 -34s-25 -58 -25 -106v-82h284v-474h-26v454h-258v-454h-26v454h-272v-454h-27z" />
    <glyph glyph-name="f_j.liga" unicode="fj" horiz-adv-x="520" 
d="M117 0v453.997l-77 2c-6.66699 0.666992 -10 3.33398 -10 8.00098v10h87v50c0 30.667 4.33301 58 13 82s21.167 44.167 37.5 60.5s35.833 28.666 58.5 36.999s48 12.5 76 12.5c10 0 20.5 -0.833008 31.5 -2.5c11 -1 20.167 -3.5 27.5 -7.5l-1 -12
c-0.666992 -2 -2 -3.16699 -4 -3.5s-5.16699 0 -9.5 1s-9.83301 2 -16.5 3s-14.667 1.5 -24 1.5c-24.667 0 -47 -3.5 -67 -10.5s-37.167 -17.667 -51.5 -32s-25.333 -32.166 -33 -53.499s-11.5 -46.666 -11.5 -75.999v-50h284v-551c0 -16 -2.5 -30.5 -7.5 -43.5
s-11.833 -24.5 -20.5 -34.5s-19.667 -17.667 -33 -23s-28.666 -8 -45.999 -8c-9.33301 0 -17.333 1 -24 3s-13.334 4.33301 -20.001 7l2 13c1.33301 2.66699 2.83301 4.16699 4.5 4.5s4 -0.166992 7 -1.5s6.66699 -2.66602 11 -3.99902s9.83301 -2 16.5 -2
c28 0 48.833 8 62.5 24s20.5 37.667 20.5 65v531h-256v-454h-27z" />
    <glyph glyph-name="f_f_j.liga" unicode="ffj" horiz-adv-x="819" 
d="M117 0l-0.00195312 453.998l-77 2c-6.66699 0.666992 -10 3.33398 -10 8.00098v10h87v65c0 28 3.5 52.5 10.5 73.5s16.667 38.333 29 52s27.166 23.834 44.499 30.501s36.333 10 57 10c9.33301 0 19.333 -0.833008 30 -2.5s20 -4.5 28 -8.5l-2 -11
c-0.666992 -2.66699 -2 -4.16699 -4 -4.5s-5.16699 0 -9.5 1s-9.83301 2 -16.5 3s-14.667 1.5 -24 1.5c-17.333 0 -33 -2.5 -47 -7.5s-26.333 -13.333 -37 -25s-18.834 -26.834 -24.501 -45.501s-8.5 -41.334 -8.5 -68.001v-64h273v50c0 30.667 4.33301 58 13 82
s21 44.167 37 60.5s35.333 28.666 58 36.999s48 12.5 76 12.5c10 0 20.5 -0.833008 31.5 -2.5c11 -1 20.5 -3.5 28.5 -7.5l-2 -12c-0.666992 -2 -1.83398 -3.16699 -3.50098 -3.5s-4.66699 0 -9 1s-9.66602 2 -15.999 3s-14.5 1.5 -24.5 1.5c-24.667 0 -47 -3.5 -67 -10.5
s-37.167 -17.667 -51.5 -32s-25.333 -32.166 -33 -53.499s-11.5 -46.666 -11.5 -75.999v-50h284v-551c0 -16 -2.33301 -30.5 -7 -43.5s-11.667 -24.5 -21 -34.5s-20.666 -17.667 -33.999 -23s-28.333 -8 -45 -8c-9.33301 0 -17.5 1 -24.5 3s-13.833 4.33301 -20.5 7l3 13
c1.33301 2.66699 2.83301 4.16699 4.5 4.5s3.83398 -0.166992 6.50098 -1.5s6.33398 -2.66602 11.001 -3.99902s10.334 -2 17.001 -2c28 0 49 8 63 24s21 37.667 21 65v531h-258v-454h-26v454h-272v-454h-27z" />
    <glyph glyph-name="f_k.liga" unicode="fk" horiz-adv-x="790" 
d="M116 0l0.00292969 453.997l-78 2c-6.66699 0.666992 -9.66699 3.33398 -9 8.00098v10h87v55c0 29.333 3.66699 56.333 11 81s19 46 35 64s36.833 32 62.5 42s56.834 15 93.501 15c21.333 0 41.666 -1.16699 60.999 -3.5s39.333 -3.83301 60 -4.5h7v-449h22
c4 0 8 0.666992 12 2s8.66699 4 14 8l219 199c2.66699 3.33301 5.66699 5.83301 9 7.5c2.66699 1.66699 6.66699 2.5 12 2.5h22l-236 -213c-2.66699 -2.66699 -5.33398 -5 -8.00098 -7s-5.33398 -3.66699 -8.00098 -5c4.66699 -1.33301 8.83398 -3.66602 12.501 -6.99902
s7.5 -6.33301 11.5 -9l248 -252h-23c-3.33301 0 -6.33301 0.5 -9 1.5s-5.33398 3.16699 -8.00098 6.5l-232 234c-5.33301 5.33301 -10.333 9 -15 11s-12.334 3 -23.001 3h-20v-256h-27v702c-16.667 2.66699 -34 5 -52 7s-34.333 3 -49 3c-32.667 0 -60.167 -4.5 -82.5 -13.5
s-40.5 -21.667 -54.5 -38s-24 -35.666 -30 -57.999s-9 -46.833 -9 -73.5v-55h168v-20h-168v-454h-26z" />
    <glyph glyph-name="f_f_k.liga" unicode="ffk" horiz-adv-x="1090" 
d="M117 0l0.00488281 453.998l-77 2c-6.66699 0.666992 -10 3.33398 -10 8.00098v10h87v65c0 28 3.5 52.5 10.5 73.5s16.667 38.333 29 52s27.166 23.834 44.499 30.501s36.333 10 57 10c9.33301 0 19.333 -0.833008 30 -2.5s20 -4.5 28 -8.5l-2 -11
c-0.666992 -2.66699 -2 -4.16699 -4 -4.5s-5.16699 0 -9.5 1s-9.83301 2 -16.5 3s-14.667 1.5 -24 1.5c-17.333 0 -33 -2.5 -47 -7.5s-26.333 -13.333 -37 -25s-18.834 -26.834 -24.501 -45.501s-8.5 -41.334 -8.5 -68.001v-64h273v55c0 29.333 3.66699 56.333 11 81
s19 46 35 64s36.833 32 62.5 42s56.834 15 93.501 15c21.333 0 41.666 -1.16699 60.999 -3.5s39.333 -3.83301 60 -4.5h7v-449h22c4 0 8 0.666992 12 2s8.66699 4 14 8l219 199c2.66699 3.33301 5.66699 5.83301 9 7.5c2.66699 1.66699 6.66699 2.5 12 2.5h22l-236 -213
c-2.66699 -2.66699 -5.33398 -5 -8.00098 -7s-5.33398 -3.66699 -8.00098 -5c4.66699 -1.33301 8.83398 -3.66602 12.501 -6.99902s7.5 -6.33301 11.5 -9l248 -252h-23c-3.33301 0 -6.33301 0.5 -9 1.5s-5.33398 3.16699 -8.00098 6.5l-232 234
c-5.33301 5.33301 -10.333 9 -15 11s-12.334 3 -23.001 3h-20v-256h-27v702c-16.667 2.66699 -34 5 -52 7s-34.333 3 -49 3c-32.667 0 -60.167 -4.5 -82.5 -13.5s-40.5 -21.667 -54.5 -38s-24 -35.666 -30 -57.999s-9 -46.833 -9 -73.5v-55h170v-20h-170v-454h-26v454h-272
v-454h-27z" />
    <glyph glyph-name="f_t.liga" unicode="ft" horiz-adv-x="642" 
d="M450 454l-0.00488281 -354.002c0 -15.333 2 -28.5 6 -39.5s9.33301 -20 16 -27s14.667 -12 24 -15s19.333 -4.5 30 -4.5c13.333 0 24.833 2 34.5 6s18 8.33301 25 13s12.667 9 17 13s7.5 6 9.5 6c1.33301 0 3.33301 -1.33301 6 -4l6 -9
c-5.33301 -6.66699 -11.833 -12.834 -19.5 -18.501s-16 -10.667 -25 -15s-18.333 -7.66602 -28 -9.99902s-19.5 -3.5 -29.5 -3.5c-30.667 0 -54.667 8.33301 -72 25s-26 43.667 -26 81v356h-282v-454h-26v454l-78 2c-6.66699 0.666992 -9.66699 3.33398 -9 8.00098v10h87v70
c0 28 3.33301 52.5 10 73.5s16.334 38.333 29.001 52s27.667 23.834 45 30.501s36 10 56 10c10 0 20.167 -0.666992 30.5 -2s19.5 -4 27.5 -8l-2 -12c0 -2.66699 -1 -4 -3 -4s-5.16699 0.333008 -9.5 1s-9.66602 1.66699 -15.999 3s-14.166 2 -23.499 2
c-17.333 0 -33.166 -2.66699 -47.499 -8s-26.666 -13.666 -36.999 -24.999s-18.5 -26.333 -24.5 -45s-9 -41.334 -9 -68.001v-70h282l8 190c0 2 0.666992 3.83301 2 5.5s3.33301 2.5 6 2.5h10v-198h164v-20h-164z" />
    <glyph glyph-name="f_f_t.liga" unicode="fft" horiz-adv-x="942" 
d="M117 0l-0.00195312 453.999l-77 2c-6.66699 0.666992 -10 3.33398 -10 8.00098v10h87v65c0 28 3.5 52.5 10.5 73.5s16.667 38.333 29 52s27.166 23.834 44.499 30.501s36.333 10 57 10c9.33301 0 19.333 -0.833008 30 -2.5s20 -4.5 28 -8.5l-2 -11
c-0.666992 -2.66699 -2 -4.16699 -4 -4.5s-5.16699 0 -9.5 1s-9.83301 2 -16.5 3s-14.667 1.5 -24 1.5c-17.333 0 -33 -2.5 -47 -7.5s-26.333 -13.333 -37 -25s-18.834 -26.834 -24.501 -45.501s-8.5 -41.334 -8.5 -68.001v-64h273v70c0 28 3.33301 52.5 10 73.5
s16.334 38.333 29.001 52s27.667 23.834 45 30.501s36 10 56 10c10 0 20.167 -0.666992 30.5 -2s19.5 -4 27.5 -8l-1 -12c-0.666992 -2.66699 -2 -4 -4 -4s-5.16699 0.333008 -9.5 1s-9.66602 1.66699 -15.999 3s-14.166 2 -23.499 2c-17.333 0 -33.166 -2.66699 -47.499 -8
s-26.666 -13.666 -36.999 -24.999s-18.5 -26.333 -24.5 -45s-9 -41.334 -9 -68.001v-70h282l8 190c0 2 0.666992 3.83301 2 5.5s3.33301 2.5 6 2.5h10v-198h164v-20h-164v-354c0 -15.333 2 -28.5 6 -39.5s9.33301 -20 16 -27s14.667 -12 24 -15s19.333 -4.5 30 -4.5
c13.333 0 24.833 2 34.5 6s18 8.33301 25 13s12.667 9 17 13s7.5 6 9.5 6c1.33301 0 3.33301 -1.33301 6 -4l6 -9c-10.667 -14 -25.334 -25.333 -44.001 -34s-38 -13 -58 -13c-30.667 0 -54.667 8.33301 -72 25s-26 43.667 -26 81v356h-282v-454h-26v454h-272v-454h-27z" />
    <glyph glyph-name="t_f.liga" unicode="tf" horiz-adv-x="659" 
d="M439 0v453.999h-297v-354c0 -15.333 2 -28.5 6 -39.5s9.33301 -20 16 -27s14.667 -12 24 -15s19.333 -4.5 30 -4.5c13.333 0 24.833 2 34.5 6s18 8.33301 25 13s12.667 9 17 13s7.5 6 9.5 6c1.33301 0 3.33301 -1.33301 6 -4l6 -9
c-5.33301 -6.66699 -11.833 -12.834 -19.5 -18.501s-16 -10.667 -25 -15s-18.333 -7.66602 -28 -9.99902s-19.5 -3.5 -29.5 -3.5c-30.667 0 -54.667 8.33301 -72 25s-26 43.667 -26 81v356h-77c-6 0 -9 2.66699 -9 8v8l86 4l8 190c0 2 0.666992 3.83301 2 5.5
s3.33301 2.5 6 2.5h10v-198h297v70c0 28 3.5 52.5 10.5 73.5s16.667 38.333 29 52s27.166 23.834 44.499 30.501s36.333 10 57 10c9.33301 0 19.333 -0.666992 30 -2s20 -4 28 -8l-2 -12c0 -2.66699 -1 -4 -3 -4s-5.33301 0.333008 -10 1s-10.167 1.66699 -16.5 3
s-14.166 2 -23.499 2c-17.333 0 -33.166 -2.66699 -47.499 -8s-26.833 -13.666 -37.5 -24.999s-18.834 -26.333 -24.501 -45s-8.5 -41.334 -8.5 -68.001v-70h169v-20h-168v-454h-27z" />
    <glyph glyph-name="t_iogonek.liga" unicode="t&#x12f;" horiz-adv-x="563" 
d="M522 -130c2 0 3.6709 -0.666016 5.00391 -1.99902l5 -9c-8.66699 -8 -19.834 -14.5 -33.501 -19.5s-27.834 -7.5 -42.501 -7.5c-23.333 0 -42.5 6 -57.5 18s-22.5 29.333 -22.5 52c0 10.667 2 20.667 6 30s9.33301 18.166 16 26.499s14 16 22 23s16 13.167 24 18.5h-1
v454h-303v-354c0 -15.333 2 -28.5 6 -39.5s9.5 -20 16.5 -27s15 -12 24 -15s18.833 -4.5 29.5 -4.5c13.333 0 25 2 35 6s18.333 8.33301 25 13s12.167 9 16.5 13s7.5 6 9.5 6c2.66699 0 4.66699 -1.33301 6 -4l6 -9c-10.667 -14 -25.334 -25.333 -44.001 -34
s-38 -13 -58 -13c-30.667 0 -54.667 8.33301 -72 25s-26 43.667 -26 81v356h-77c-2.66699 0 -4.83398 0.666992 -6.50098 2s-2.5 3.33301 -2.5 6v8l86 4l8 190c0 2 0.666992 3.83301 2 5.5s3.33301 2.5 6 2.5h10v-198h330v-474h-2c-6.66699 -4 -14 -9 -22 -15
s-15.667 -13 -23 -21s-13.333 -16.833 -18 -26.5s-7 -20.167 -7 -31.5c0 -17.333 6 -31 18 -41s26.667 -15 44 -15c10.667 0 19.5 1 26.5 3s12.833 4.33301 17.5 7s8.5 5 11.5 7s5.16699 3 6.5 3zM491.004 671.001c0 -9.33301 -3.5 -17.333 -10.5 -24s-15.167 -10 -24.5 -10
s-17.333 3.5 -24 10.5s-10 14.833 -10 23.5c0 9.33301 3.33301 17.5 10 24.5s14.667 10.5 24 10.5s17.5 -3.5 24.5 -10.5s10.5 -15.167 10.5 -24.5z" />
    <glyph glyph-name="t_dotlessi.liga" unicode="t&#x131;" horiz-adv-x="565" 
d="M471 474v-474h-26v454h-303v-354c0 -15.333 2 -28.5 6 -39.5s9.33301 -20 16 -27s14.667 -12 24 -15s19.333 -4.5 30 -4.5c13.333 0 24.833 2 34.5 6s18 8.33301 25 13s12.667 9 17 13s7.5 6 9.5 6c1.33301 0 3.33301 -1.33301 6 -4l6 -9
c-5.33301 -6.66699 -11.833 -12.834 -19.5 -18.501s-16 -10.667 -25 -15s-18.333 -7.66602 -28 -9.99902s-19.5 -3.5 -29.5 -3.5c-30.667 0 -54.667 8.33301 -72 25s-26 43.667 -26 81v356h-77c-6 0 -9 2.66699 -9 8v8l86 4l8 190c0 2 0.666992 3.83301 2 5.5
s3.33301 2.5 6 2.5h10v-198h329z" />
    <glyph glyph-name="t_t.liga" unicode="tt" horiz-adv-x="646" 
d="M214 -8c-30.667 0 -54.666 8.33301 -71.999 25s-26 43.667 -26 81v356h-77c-6 0 -9 2.66699 -9 8v8l86 4l8 190c0 2 0.666992 3.83301 2 5.5s3.33301 2.5 6 2.5h10v-198h286l8 190c0 2 0.666992 3.83301 2 5.5s3.33301 2.5 6 2.5h11v-198h163v-20h-163v-354
c0 -15.333 2 -28.5 6 -39.5s9.33301 -20 16 -27s14.5 -12 23.5 -15s18.833 -4.5 29.5 -4.5c13.333 0 25 2 35 6s18.333 8.33301 25 13s12.167 9 16.5 13s7.5 6 9.5 6c1.33301 0 2.33301 -0.333008 3 -1l3 -3l6 -9c-10.667 -14 -25.334 -25.333 -44.001 -34s-38 -13 -58 -13
c-30.667 0 -54.667 8.33301 -72 25s-26 43.667 -26 81v356h-286v-354c0 -15.333 2 -28.5 6 -39.5s9.33301 -20 16 -27s14.667 -12 24 -15s19.333 -4.5 30 -4.5c13.333 0 24.833 2 34.5 6s18 8.33301 25 13s12.667 9 17 13s7.5 6 9.5 6c1.33301 0 3.33301 -1.33301 6 -4l6 -9
c-5.33301 -6.66699 -11.833 -12.834 -19.5 -18.501s-16 -10.667 -25 -15s-18.333 -7.66602 -28 -9.99902s-19.5 -3.5 -29.5 -3.5z" />
    <glyph glyph-name="t_t_f.liga" unicode="ttf" horiz-adv-x="971" 
d="M752 0v453.999h-297v-354c0 -15.333 2 -28.5 6 -39.5s9.33301 -20 16 -27s14.5 -12 23.5 -15s18.833 -4.5 29.5 -4.5c13.333 0 25 2 35 6s18.333 8.33301 25 13s12.167 9 16.5 13s7.5 6 9.5 6c1.33301 0 2.33301 -0.333008 3 -1l3 -3l6 -9
c-10.667 -14 -25.334 -25.333 -44.001 -34s-38 -13 -58 -13c-30.667 0 -54.667 8.33301 -72 25s-26 43.667 -26 81v356h-286v-354c0 -15.333 2 -28.5 6 -39.5s9.33301 -20 16 -27s14.667 -12 24 -15s19.333 -4.5 30 -4.5c13.333 0 24.833 2 34.5 6s18 8.33301 25 13
s12.667 9 17 13s7.5 6 9.5 6c1.33301 0 3.33301 -1.33301 6 -4l6 -9c-5.33301 -6.66699 -11.833 -12.834 -19.5 -18.501s-16 -10.667 -25 -15s-18.333 -7.66602 -28 -9.99902s-19.5 -3.5 -29.5 -3.5c-30.667 0 -54.667 8.33301 -72 25s-26 43.667 -26 81v356h-77
c-6 0 -9 2.66699 -9 8v8l86 4l8 190c0 2 0.666992 3.83301 2 5.5s3.33301 2.5 6 2.5h10v-198h286l8 190c0 2 0.666992 3.83301 2 5.5s3.33301 2.5 6 2.5h11v-198h297v70c0 28 3.33301 52.5 10 73.5s16.334 38.333 29.001 52s27.5 23.834 44.5 30.501
c16.333 6.66699 35.166 10 56.499 10c9.33301 0 19.333 -0.666992 30 -2s20 -4 28 -8l-2 -12c-0.666992 -2.66699 -1.83398 -4 -3.50098 -4s-4.66699 0.333008 -9 1s-9.83301 1.66699 -16.5 3s-14.667 2 -24 2c-17.333 0 -33.166 -2.66699 -47.499 -8
s-26.666 -13.666 -36.999 -24.999s-18.333 -26.333 -24 -45s-8.5 -41.334 -8.5 -68.001v-70h168v-20h-168v-454h-26z" />
    <glyph glyph-name="t_t_iogonek.liga" unicode="tt&#x12f;" horiz-adv-x="865" 
d="M824 -130c2.66699 0 4.66406 -0.666016 5.99707 -1.99902l4 -9c-8.66699 -8 -19.667 -14.5 -33 -19.5s-27.333 -7.5 -42 -7.5c-23.333 0 -42.5 6 -57.5 18s-22.5 29.333 -22.5 52c0 10.667 2 20.667 6 30s9.16699 18.166 15.5 26.499s13.5 16 21.5 23s16 13.167 24 18.5
v0v454h-293v-354c0 -15.333 2 -28.5 6 -39.5s9.33301 -20 16 -27s14.5 -12 23.5 -15s18.833 -4.5 29.5 -4.5c13.333 0 25 2 35 6s18.333 8.33301 25 13s12.334 9 17.001 13s7.66699 6 9 6s3.33301 -1.33301 6 -4l6 -9c-5.33301 -6.66699 -11.666 -12.834 -18.999 -18.501
s-15.666 -10.667 -24.999 -15s-18.666 -7.66602 -27.999 -9.99902s-19.333 -3.5 -30 -3.5c-30.667 0 -54.667 8.33301 -72 25s-26 43.667 -26 81v356h-286v-354c0 -15.333 2 -28.5 6 -39.5s9.5 -20 16.5 -27s15 -12 24 -15s18.833 -4.5 29.5 -4.5c13.333 0 25 2 35 6
s18.333 8.33301 25 13s12.167 9 16.5 13s7.5 6 9.5 6c2.66699 0 4.66699 -1.33301 6 -4l6 -9c-10.667 -14 -25.334 -25.333 -44.001 -34s-38 -13 -58 -13c-30.667 0 -54.667 8.33301 -72 25s-26 43.667 -26 81v356h-77c-2.66699 0 -4.83398 0.666992 -6.50098 2
s-2.5 3.33301 -2.5 6v8l86 4l8 190c0 2 0.666992 3.83301 2 5.5s3.33301 2.5 6 2.5h10v-198h286l8 190c0 2 0.666992 3.83301 2 5.5s3.33301 2.5 6 2.5h11v-198h319v-474h-2c-6.66699 -4 -14 -9 -22 -15s-15.667 -13 -23 -21s-13.333 -16.833 -18 -26.5s-7 -20.167 -7 -31.5
c0 -17.333 6 -31 18 -41s27 -15 45 -15c10.667 0 19.5 1 26.5 3s12.833 4.33301 17.5 7s8.33398 5 11.001 7s4.66699 3 6 3zM792.997 671.001c0 -9.33301 -3.5 -17.333 -10.5 -24s-15.167 -10 -24.5 -10s-17.333 3.5 -24 10.5s-10 14.833 -10 23.5
c0 9.33301 3.33301 17.5 10 24.5s14.667 10.5 24 10.5s17.5 -3.5 24.5 -10.5s10.5 -15.167 10.5 -24.5z" />
    <glyph glyph-name="t_t_dotlessi.liga" unicode="tt&#x131;" horiz-adv-x="867" 
d="M214 -8c-30.667 0 -54.666 8.33301 -71.999 25s-26 43.667 -26 81v356h-77c-6 0 -9 2.66699 -9 8v8l86 4l8 190c0 2 0.666992 3.83301 2 5.5s3.33301 2.5 6 2.5h10v-198h286l8 190c0 2 0.666992 3.83301 2 5.5s3.33301 2.5 6 2.5h11v-198h319v-474h-27v454h-292v-354
c0 -15.333 2 -28.5 6 -39.5s9.33301 -20 16 -27s14.5 -12 23.5 -15s18.833 -4.5 29.5 -4.5c13.333 0 25 2 35 6s18.333 8.33301 25 13s12.167 9 16.5 13s7.5 6 9.5 6c1.33301 0 2.33301 -0.333008 3 -1l3 -3l6 -9c-10.667 -14 -25.334 -25.333 -44.001 -34s-38 -13 -58 -13
c-30.667 0 -54.667 8.33301 -72 25s-26 43.667 -26 81v356h-286v-354c0 -15.333 2 -28.5 6 -39.5s9.33301 -20 16 -27s14.667 -12 24 -15s19.333 -4.5 30 -4.5c13.333 0 24.833 2 34.5 6s18 8.33301 25 13s12.667 9 17 13s7.5 6 9.5 6c1.33301 0 3.33301 -1.33301 6 -4l6 -9
c-5.33301 -6.66699 -11.833 -12.834 -19.5 -18.501s-16 -10.667 -25 -15s-18.333 -7.66602 -28 -9.99902s-19.5 -3.5 -29.5 -3.5z" />
    <glyph glyph-name="f_uni01D0.liga" unicode="f&#x1d0;" horiz-adv-x="520" 
d="M117 0l-0.000976562 454l-77 2c-6.66699 0.666992 -10 3.33398 -10 8.00098v10h87v82c0 28 2.83301 52 8.5 72s13.834 36.5 24.501 49.5s23.667 22.667 39 29s32 9.5 50 9.5c11.333 0 21 -1.33301 29 -4v-13c0 -2.66699 -2 -3.83398 -6 -3.50098s-11.333 0.5 -22 0.5
c-30.667 0 -54.5 -11.333 -71.5 -34s-25.5 -58 -25.5 -106v-82h284v-474h-27v454h-256v-454h-27zM297.999 703h19c4 -0.666992 7.33301 -2.33398 10 -5.00098l83 -92c0.666992 -1.33301 1.5 -2.33301 2.5 -3s1.5 -1.66699 1.5 -3l5 6l83 92
c2.66699 2.66699 6 4.33398 10 5.00098h19l-105 -118h-22z" />
    <glyph glyph-name="f_uni0209.liga" unicode="f&#x209;" horiz-adv-x="520" 
d="M254 716c6.66699 0 13 -1.33301 19 -4s11.667 -7.33398 17 -14.001l92 -118h-14c-5.33301 0 -9.33301 2 -12 6l-98 110c-38.667 -0.666992 -67.5 -12.167 -86.5 -34.5s-28.5 -57.5 -28.5 -105.5v-82h284v-474h-27v454h-256v-454h-27v454l-77 2
c-6.66699 0.666992 -10 3.33398 -10 8.00098v10h87v82c0 28 3.16699 52 9.5 72s15.5 36.5 27.5 49.5s26.5 22.667 43.5 29s35.833 9.5 56.5 9.5zM388 711c6.66699 0 11.667 -0.833008 15 -2.5s6.33301 -5.16699 9 -10.5l80 -118h-12c-5.33301 0 -9.33301 2 -12 6l-100 125
h20z" />
    <glyph glyph-name="f_uni020B.liga" unicode="f&#x20b;" horiz-adv-x="520" 
d="M117 0l-0.000976562 454l-77 2c-6.66699 0.666992 -10 3.33398 -10 8.00098v10h87v82c0 28 2.83301 52 8.5 72s13.834 36.5 24.501 49.5s23.667 22.667 39 29s32 9.5 50 9.5c11.333 0 21 -1.33301 29 -4v-13c0 -2.66699 -2 -3.83398 -6 -3.50098s-11.333 0.5 -22 0.5
c-30.667 0 -54.5 -11.333 -71.5 -34s-25.5 -58 -25.5 -106v-82h284v-474h-27v454h-256v-454h-27zM413.999 708c20 0 36.9951 -3 50.9951 -9s25.5 -14.5 34.5 -25.5s15.5 -23.667 19.5 -38s6 -29.5 6 -45.5h-19c0 13.333 -1.66699 26 -5 38s-8.66602 22.5 -15.999 31.5
s-16.666 16.167 -27.999 21.5s-25.666 8 -42.999 8s-31.666 -2.66699 -42.999 -8s-20.666 -12.5 -27.999 -21.5s-12.5 -19.5 -15.5 -31.5s-4.5 -24.667 -4.5 -38h-19c0 16 2 31.167 6 45.5s10.333 27 19 38s20 19.5 34 25.5s31 9 51 9z" />
    <glyph glyph-name="f_uni1E2F.liga" unicode="f&#x1e2f;" horiz-adv-x="520" 
d="M370 600c0 -8 -3.33301 -15.334 -10 -22.001s-14 -10 -22 -10c-8.66699 0 -16.167 3.33301 -22.5 10s-9.5 14 -9.5 22c0 8.66699 3.16699 16.167 9.5 22.5s13.833 9.5 22.5 9.5c4 0 8 -0.666992 12 -2s7.5 -3.66602 10.5 -6.99902s5.33301 -7 7 -11s2.5 -8 2.5 -12z
M518 599.999c0 -8 -3.33301 -15.334 -10 -22.001s-14 -10 -22 -10c-8.66699 0 -16.167 3.33301 -22.5 10s-9.5 14 -9.5 22c0 8.66699 3.16699 16.167 9.5 22.5s13.833 9.5 22.5 9.5c4 0 8 -0.666992 12 -2s7.5 -3.66602 10.5 -6.99902s5.33301 -7 7 -11s2.5 -8 2.5 -12z
M524 785.998l-102 -123c-4 -3.33301 -8.66699 -5 -14 -5h-14l79 114c3.33301 5.33301 6.5 9 9.5 11s7.83301 3 14.5 3h27zM117 -0.00195312l-0.000976562 454l-77 2c-6.66699 0.666992 -10 3.33398 -10 8.00098v10h87v82c0 28 2.83301 52 8.5 72s13.834 36.5 24.501 49.5
s23.667 22.667 39 29s32 9.5 50 9.5c11.333 0 21 -1.33301 29 -4v-13c0 -2.66699 -2 -3.83398 -6 -3.50098s-11.333 0.5 -22 0.5c-30.667 0 -54.5 -11.333 -71.5 -34s-25.5 -58 -25.5 -106v-82h284v-474h-27v454h-256v-454h-27z" />
    <glyph glyph-name="f_f_uni01D0.liga" unicode="ff&#x1d0;" horiz-adv-x="819" 
d="M117 0l0.00195312 454.001l-77 2c-6.66699 0.666992 -10 3.33398 -10 8.00098v10h87v65c0 28 3.5 52.5 10.5 73.5s16.667 38.333 29 52s27.166 23.834 44.499 30.501s36.333 10 57 10c9.33301 0 19.333 -0.833008 30 -2.5s20 -4.5 28 -8.5l-2 -11
c-0.666992 -2.66699 -2 -4.16699 -4 -4.5s-5.16699 0 -9.5 1s-9.83301 2 -16.5 3s-14.667 1.5 -24 1.5c-17.333 0 -33 -2.5 -47 -7.5s-26.333 -13.333 -37 -25s-18.834 -26.834 -24.501 -45.501s-8.5 -41.334 -8.5 -68.001v-64h273v82c0 28 3 52 9 72s14.167 36.5 24.5 49.5
s23 22.667 38 29s31.833 9.5 50.5 9.5c10.667 0 20 -1.33301 28 -4v-13c0 -2.66699 -2 -3.83398 -6 -3.50098s-11 0.5 -21 0.5c-31.333 0 -55.333 -11.333 -72 -34s-25 -58 -25 -106v-82h284v-474h-26v454h-258v-454h-26v454h-272v-454h-27zM596.002 703.001h18
c4 -0.666992 7.66699 -2.33398 11 -5.00098l83 -92c0.666992 -1.33301 1.5 -2.33301 2.5 -3s1.5 -1.66699 1.5 -3l4 6l84 92c2.66699 2.66699 6 4.33398 10 5.00098h19l-105 -118h-22z" />
    <glyph glyph-name="f_f_uni0209.liga" unicode="ff&#x209;" horiz-adv-x="819" 
d="M117 0l0.00195312 454.001l-77 2c-6.66699 0.666992 -10 3.33398 -10 8.00098v10h87v65c0 28 3.5 52.5 10.5 73.5s16.667 38.333 29 52s27.166 23.834 44.499 30.501s36.333 10 57 10c9.33301 0 19.333 -0.833008 30 -2.5s20 -4.5 28 -8.5l-2 -11
c-0.666992 -2.66699 -2 -4.16699 -4 -4.5s-5.16699 0 -9.5 1s-9.83301 2 -16.5 3s-14.667 1.5 -24 1.5c-17.333 0 -33 -2.5 -47 -7.5s-26.333 -13.333 -37 -25s-18.834 -26.834 -24.501 -45.501s-8.5 -41.334 -8.5 -68.001v-64h273v82c0 56 12.167 96.667 36.5 122
s58.833 38 103.5 38c6.66699 0 13 -1.33301 19 -4s11.667 -7.33398 17 -14.001l92 -118h-14c-4.66699 0 -8.66699 2 -12 6l-98 110c-38.667 -0.666992 -68 -12.167 -88 -34.5s-30 -57.5 -30 -105.5v-82h284v-474h-26v454h-258v-454h-26v454h-272v-454h-27zM690.002 711.001
c6.66699 0 11.667 -0.833008 15 -2.5s6.33301 -5.16699 9 -10.5l80 -118h-12c-5.33301 0 -9.33301 2 -12 6l-100 125h20z" />
    <glyph glyph-name="f_f_uni020B.liga" unicode="ff&#x20b;" horiz-adv-x="819" 
d="M700 0l0.00195312 454.001h-258v-454h-26v454h-272v-454h-27v454l-77 2c-6.66699 0.666992 -10 3.33398 -10 8.00098v10h87v65c0 28 3.5 52.5 10.5 73.5s16.667 38.333 29 52s27.166 23.834 44.499 30.501s36.333 10 57 10c9.33301 0 19.333 -0.833008 30 -2.5
s20 -4.5 28 -8.5l-2 -11c-0.666992 -2.66699 -2 -4.16699 -4 -4.5s-5.16699 0 -9.5 1s-9.83301 2 -16.5 3s-14.667 1.5 -24 1.5c-17.333 0 -33 -2.5 -47 -7.5s-26.333 -13.333 -37 -25s-18.834 -26.834 -24.501 -45.501s-8.5 -41.334 -8.5 -68.001v-64h273v82
c0 28 3 52 9 72s14.167 36.5 24.5 49.5s23 22.667 38 29s31.833 9.5 50.5 9.5c10.667 0 20 -1.33301 28 -4v-13c0 -2.66699 -2 -3.83398 -6 -3.50098s-11 0.5 -21 0.5c-31.333 0 -55.333 -11.333 -72 -34s-25 -58 -25 -106v-82h284v-474h-26zM713.002 708.001
c20 0 37.001 -3 51.001 -9s25.5 -14.5 34.5 -25.5s15.5 -23.667 19.5 -38s6 -29.5 6 -45.5h-20c0 13.333 -1.66699 26 -5 38s-8.5 22.5 -15.5 31.5s-16.333 16.167 -28 21.5s-25.834 8 -42.501 8c-17.333 0 -31.833 -2.66699 -43.5 -8s-21 -12.5 -28 -21.5
s-12 -19.5 -15 -31.5s-4.5 -24.667 -4.5 -38h-20c0 16 2 31.167 6 45.5s10.5 27 19.5 38s20.5 19.5 34.5 25.5s31 9 51 9z" />
    <glyph glyph-name="f_f_uni1E2F.liga" unicode="ff&#x1e2f;" horiz-adv-x="819" 
d="M117 0l0.00195312 454.001l-77 2c-6.66699 0.666992 -10 3.33398 -10 8.00098v10h87v65c0 28 3.5 52.5 10.5 73.5s16.667 38.333 29 52s27.166 23.834 44.499 30.501s36.333 10 57 10c9.33301 0 19.333 -0.833008 30 -2.5s20 -4.5 28 -8.5l-2 -11
c-0.666992 -2.66699 -2 -4.16699 -4 -4.5s-5.16699 0 -9.5 1s-9.83301 2 -16.5 3s-14.667 1.5 -24 1.5c-17.333 0 -33 -2.5 -47 -7.5s-26.333 -13.333 -37 -25s-18.834 -26.834 -24.501 -45.501s-8.5 -41.334 -8.5 -68.001v-64h273v82c0 28 3 52 9 72s14.167 36.5 24.5 49.5
s23 22.667 38 29s31.833 9.5 50.5 9.5c10.667 0 20 -1.33301 28 -4v-13c0 -2.66699 -2 -3.83398 -6 -3.50098s-11 0.5 -21 0.5c-31.333 0 -55.333 -11.333 -72 -34s-25 -58 -25 -106v-82h284v-474h-26v454h-258v-454h-26v454h-272v-454h-27zM824.002 786.001l-102.001 -123
c-3.33301 -3.33301 -7.66602 -5 -12.999 -5h-15l80 114c3.33301 5.33301 6.5 9 9.5 11s7.83301 3 14.5 3h26zM672.001 600.001c0 -8 -3.33203 -15.334 -9.99902 -22.001s-14.334 -10 -23.001 -10s-16.334 3.33301 -23.001 10s-10 14 -10 22
c0 8.66699 3.33301 16.167 10 22.5s14.334 9.5 23.001 9.5c4 0 8 -0.666992 12 -2s7.5 -3.66602 10.5 -6.99902s5.5 -7 7.5 -11s3 -8 3 -12zM819.002 600c0 -8 -3.33301 -15.334 -10 -22.001c-7.33301 -6.66699 -15 -10 -23 -10c-8.66699 0 -16.167 3.33301 -22.5 10
s-9.5 14 -9.5 22c0 8.66699 3.33301 16.167 10 22.5s14 9.5 22 9.5c4 0 8 -0.666992 12 -2s7.66699 -3.66602 11 -6.99902s5.83301 -7 7.5 -11s2.5 -8 2.5 -12z" />
    <glyph glyph-name="f_uni0237.liga" unicode="f&#x237;" horiz-adv-x="520" 
d="M117 0l-0.000976562 453.999l-77 2c-6.66699 0.666992 -10 3.33398 -10 8.00098v10h87v82c0 28 2.83301 52 8.5 72s13.834 36.5 24.501 49.5s23.667 22.667 39 29s32 9.5 50 9.5c11.333 0 21 -1.33301 29 -4v-13c0 -2.66699 -2 -3.83398 -6 -3.50098s-11.333 0.5 -22 0.5
c-30.667 0 -54.5 -11.333 -71.5 -34s-25.5 -58 -25.5 -106v-82h284v-551c0 -16 -2.5 -30.5 -7.5 -43.5s-11.833 -24.5 -20.5 -34.5s-19.667 -17.667 -33 -23s-28.666 -8 -45.999 -8c-9.33301 0 -17.333 1 -24 3s-13.334 4.33301 -20.001 7l2 13
c1.33301 2.66699 2.83301 4.16699 4.5 4.5s4 -0.166992 7 -1.5s6.66699 -2.66602 11 -3.99902s9.83301 -2 16.5 -2c28 0 48.833 8 62.5 24s20.5 37.667 20.5 65v531h-256v-454h-27z" />
    <glyph glyph-name="f_f_uni0237.liga" unicode="ff&#x237;" horiz-adv-x="819" 
d="M117 0l-0.00195312 454l-77 2c-6.66699 0.666992 -10 3.33398 -10 8.00098v10h87v65c0 28 3.5 52.5 10.5 73.5s16.667 38.333 29 52s27.166 23.834 44.499 30.501s36.333 10 57 10c9.33301 0 19.333 -0.833008 30 -2.5s20 -4.5 28 -8.5l-2 -11
c-0.666992 -2.66699 -2 -4.16699 -4 -4.5s-5.16699 0 -9.5 1s-9.83301 2 -16.5 3s-14.667 1.5 -24 1.5c-17.333 0 -33 -2.5 -47 -7.5s-26.333 -13.333 -37 -25s-18.834 -26.834 -24.501 -45.501s-8.5 -41.334 -8.5 -68.001v-64h273v82c0 28 3 52 9 72s14.167 36.5 24.5 49.5
s23 22.667 38 29s31.833 9.5 50.5 9.5c10.667 0 20 -1.33301 28 -4v-13c0 -2.66699 -2 -3.83398 -6 -3.50098s-11 0.5 -21 0.5c-31.333 0 -55.333 -11.333 -72 -34s-25 -58 -25 -106v-82h284v-551c0 -16 -2.33301 -30.5 -7 -43.5s-11.667 -24.5 -21 -34.5
s-20.666 -17.667 -33.999 -23s-28.333 -8 -45 -8c-9.33301 0 -17.5 1 -24.5 3s-13.833 4.33301 -20.5 7l3 13c1.33301 2.66699 2.83301 4.16699 4.5 4.5s3.83398 -0.166992 6.50098 -1.5s6.33398 -2.66602 11.001 -3.99902s10.334 -2 17.001 -2c28 0 49 8 63 24
s21 37.667 21 65v531h-258v-454h-26v454h-272v-454h-27z" />
    <glyph glyph-name="f_jcircumflex.liga" unicode="f&#x135;" horiz-adv-x="521" 
d="M117 0l-0.000976562 453.999l-77 2c-6.66699 0.666992 -10 3.33398 -10 8.00098v10h87v82c0 28 2.83301 52 8.5 72s13.834 36.5 24.501 49.5s23.667 22.667 39 29s32 9.5 50 9.5c11.333 0 21 -1.33301 29 -4v-13c0 -2.66699 -2 -3.83398 -6 -3.50098s-11.333 0.5 -22 0.5
c-30.667 0 -54.5 -11.333 -71.5 -34s-25.5 -58 -25.5 -106v-82h284v-551c0 -16 -2.5 -30.5 -7.5 -43.5s-11.833 -24.5 -20.5 -34.5s-19.667 -17.667 -33 -23s-28.666 -8 -45.999 -8c-9.33301 0 -17.333 1 -24 3s-13.334 4.33301 -20.001 7l2 13
c1.33301 2.66699 2.83301 4.16699 4.5 4.5s4 -0.166992 7 -1.5s6.66699 -2.66602 11 -3.99902s9.83301 -2 16.5 -2c28 0 48.833 8 62.5 24s20.5 37.667 20.5 65v531h-256v-454h-27zM532.999 584.999h-18c-4 0 -7.66699 1.66699 -11 5l-85 92l-2 2l-2 2l-4 -4l-84 -92
c-3.33301 -3.33301 -7 -5 -11 -5h-19l107 118h22z" />
    <glyph glyph-name="f_lcaron.liga" unicode="f&#x13e;" horiz-adv-x="548" 
d="M117 0l0.000976562 453.999l-77 2c-6.66699 0.666992 -10 3.33398 -10 8.00098v10h87v36c0 30 4.33301 57.5 13 82.5s21.167 46.5 37.5 64.5s36.5 32 60.5 42s51.667 15 83 15c21.333 0 42.5 -1 63.5 -3s40.167 -3 57.5 -3h23v-708h-27v690
c-17.333 0 -36.333 0.666992 -57 2s-39.667 2 -57 2c-26.667 0 -50.667 -4.33301 -72 -13s-39.333 -21 -54 -37s-25.834 -35.333 -33.501 -58s-11.5 -48 -11.5 -76v-36h151v-20h-150v-454h-27zM570.001 723.999c4 0 6.49707 -1 7.49707 -3s1.5 -5 1.5 -9s-0.5 -9 -1.5 -15
s-2.66699 -14 -5 -24s-5.16602 -21.833 -8.49902 -35.5c-3.33301 -14.333 -7.66602 -30.833 -12.999 -49.5c-1.33301 -2.66699 -2.66602 -4.66699 -3.99902 -6s-4 -2 -8 -2h-8l24 144h15z" />
    <glyph glyph-name="f_uni013C.liga" unicode="f&#x13c;" horiz-adv-x="548" 
d="M117 0l0.000976562 453.999l-77 2c-6.66699 0.666992 -10 3.33398 -10 8.00098v10h87v36c0 30 4.33301 57.5 13 82.5s21.167 46.5 37.5 64.5s36.5 32 60.5 42s51.667 15 83 15c21.333 0 42.5 -1 63.5 -3s40.167 -3 57.5 -3h23v-708h-27v690
c-17.333 0 -36.333 0.666992 -57 2s-39.667 2 -57 2c-26.667 0 -50.667 -4.33301 -72 -13s-39.333 -21 -54 -37s-25.834 -35.333 -33.501 -58s-11.5 -48 -11.5 -76v-36h151v-20h-150v-454h-27zM446.001 -54.001c4 0 6.66504 -0.999023 7.99805 -2.99902s2 -5 2 -9
s-0.5 -9 -1.5 -15s-2.66699 -13.667 -5 -23s-5.16602 -20.833 -8.49902 -34.5s-7.33301 -29.5 -12 -47.5c-1.33301 -2.66699 -2.66602 -4.83398 -3.99902 -6.50098c-0.666992 -1.66699 -3 -2.5 -7 -2.5h-9l23 141h14z" />
    <glyph glyph-name="f_uni021B.liga" unicode="f&#x21b;" horiz-adv-x="642" 
d="M450 454l-0.00488281 -354.002c0 -15.333 2 -28.5 6 -39.5s9.33301 -20 16 -27s14.667 -12 24 -15s19.333 -4.5 30 -4.5c13.333 0 24.833 2 34.5 6s18 8.33301 25 13s12.667 9 17 13s7.5 6 9.5 6c1.33301 0 3.33301 -1.33301 6 -4l6 -9
c-5.33301 -6.66699 -11.833 -12.834 -19.5 -18.501s-16 -10.667 -25 -15s-18.333 -7.66602 -28 -9.99902s-19.5 -3.5 -29.5 -3.5c-30.667 0 -54.667 8.33301 -72 25s-26 43.667 -26 81v356h-282v-454h-26v454l-78 2c-6.66699 0.666992 -9.66699 3.33398 -9 8.00098v10h87v70
c0 28 3.33301 52.5 10 73.5s16.334 38.333 29.001 52s27.667 23.834 45 30.501s36 10 56 10c10 0 20.167 -0.666992 30.5 -2s19.5 -4 27.5 -8l-2 -12c0 -2.66699 -1 -4 -3 -4s-5.16699 0.333008 -9.5 1s-9.66602 1.66699 -15.999 3s-14.166 2 -23.499 2
c-17.333 0 -33.166 -2.66699 -47.499 -8s-26.666 -13.666 -36.999 -24.999s-18.5 -26.333 -24.5 -45s-9 -41.334 -9 -68.001v-70h282l8 190c0 2 0.666992 3.83301 2 5.5s3.33301 2.5 6 2.5h10v-198h164v-20h-164zM520.995 -54.002c4 0 6.66504 -0.999023 7.99805 -2.99902
s2 -5 2 -9s-0.5 -9 -1.5 -15s-2.66699 -13.667 -5 -23s-5.16602 -20.833 -8.49902 -34.5s-7.33301 -29.5 -12 -47.5c-1.33301 -2.66699 -2.66602 -4.83398 -3.99902 -6.50098c-0.666992 -1.66699 -3 -2.5 -7 -2.5h-9l23 141h14z" />
    <glyph glyph-name="f_tcaron.liga" unicode="f&#x165;" horiz-adv-x="642" 
d="M450 454l-0.00488281 -354.002c0 -15.333 2 -28.5 6 -39.5s9.33301 -20 16 -27s14.667 -12 24 -15s19.333 -4.5 30 -4.5c13.333 0 24.833 2 34.5 6s18 8.33301 25 13s12.667 9 17 13s7.5 6 9.5 6c1.33301 0 3.33301 -1.33301 6 -4l6 -9
c-5.33301 -6.66699 -11.833 -12.834 -19.5 -18.501s-16 -10.667 -25 -15s-18.333 -7.66602 -28 -9.99902s-19.5 -3.5 -29.5 -3.5c-30.667 0 -54.667 8.33301 -72 25s-26 43.667 -26 81v356h-282v-454h-26v454l-78 2c-6.66699 0.666992 -9.66699 3.33398 -9 8.00098v10h87v70
c0 28 3.33301 52.5 10 73.5s16.334 38.333 29.001 52s27.667 23.834 45 30.501s36 10 56 10c10 0 20.167 -0.666992 30.5 -2s19.5 -4 27.5 -8l-2 -12c0 -2.66699 -1 -4 -3 -4s-5.16699 0.333008 -9.5 1s-9.66602 1.66699 -15.999 3s-14.166 2 -23.499 2
c-17.333 0 -33.166 -2.66699 -47.499 -8s-26.666 -13.666 -36.999 -24.999s-18.5 -26.333 -24.5 -45s-9 -41.334 -9 -68.001v-70h282l8 190c0 2 0.666992 3.83301 2 5.5s3.33301 2.5 6 2.5h10v-198h164v-20h-164zM643.995 723.998c4 0 6.49707 -1 7.49707 -3s1.5 -5 1.5 -9
s-0.5 -9 -1.5 -15s-2.66699 -14 -5 -24s-5.16602 -21.833 -8.49902 -35.5c-3.33301 -14.333 -7.66602 -30.833 -12.999 -49.5c-1.33301 -2.66699 -2.66602 -4.66699 -3.99902 -6s-4 -2 -8 -2h-8l24 144h15z" />
    <glyph glyph-name="f_uni1ECB.liga" unicode="f&#x1ecb;" horiz-adv-x="520" 
d="M117 0v453.998l-77 2c-6.66699 0.666992 -10 3.33398 -10 8.00098v10h87v50c0 30.667 4.33301 58 13 82s21.167 44.167 37.5 60.5s35.833 28.666 58.5 36.999s48 12.5 76 12.5c10 0 20.5 -0.833008 31.5 -2.5c11 -1 20.167 -3.5 27.5 -7.5l-1 -12
c-0.666992 -2 -2 -3.16699 -4 -3.5s-5.16699 0 -9.5 1s-9.83301 2 -16.5 3s-14.667 1.5 -24 1.5c-24.667 0 -47 -3.5 -67 -10.5s-37.167 -17.667 -51.5 -32s-25.333 -32.166 -33 -53.499s-11.5 -46.666 -11.5 -75.999v-50h284v-474h-27v454h-256v-454h-27zM448 -134.002
c0 -8.66699 -3.5 -16.167 -10.5 -22.5s-14.833 -9.5 -23.5 -9.5c-9.33301 0 -17.166 3 -23.499 9s-9.5 13.667 -9.5 23s3.16699 17.166 9.5 23.499s14.166 9.5 23.499 9.5c8.66699 0 16.5 -3.16699 23.5 -9.5s10.5 -14.166 10.5 -23.499z" />
    <glyph glyph-name="f_uni1E2D.liga" unicode="f&#x1e2d;" horiz-adv-x="520" 
d="M117 0v453.998l-77 2c-6.66699 0.666992 -10 3.33398 -10 8.00098v10h87v50c0 30.667 4.33301 58 13 82s21.167 44.167 37.5 60.5s35.833 28.666 58.5 36.999s48 12.5 76 12.5c10 0 20.5 -0.833008 31.5 -2.5c11 -1 20.167 -3.5 27.5 -7.5l-1 -12
c-0.666992 -2 -2 -3.16699 -4 -3.5s-5.16699 0 -9.5 1s-9.83301 2 -16.5 3s-14.667 1.5 -24 1.5c-24.667 0 -47 -3.5 -67 -10.5s-37.167 -17.667 -51.5 -32s-25.333 -32.166 -33 -53.499s-11.5 -46.666 -11.5 -75.999v-50h284v-474h-27v454h-256v-454h-27zM467 -115.002
c16 0 27.832 5.16504 35.499 15.498s11.834 23.5 12.501 39.5h16c0 -10.667 -1.33301 -20.5 -4 -29.5s-6.5 -16.833 -11.5 -23.5s-11.5 -11.834 -19.5 -15.501s-17.333 -5.5 -28 -5.5s-20.834 2.83301 -30.501 8.5s-18.834 12 -27.501 19s-17.5 13.333 -26.5 19
s-18.167 8.5 -27.5 8.5c-14.667 0 -26.167 -5.16699 -34.5 -15.5s-12.5 -23.166 -12.5 -38.499h-18c0 10.667 1.33301 20.334 4 29.001s6.83398 16.334 12.501 23.001s12.5 12 20.5 16c7.33301 4 16.333 6 27 6s21 -2.83301 31 -8.5s19.333 -12 28 -19
s17.334 -13.5 26.001 -19.5s17.667 -9 27 -9z" />
    <glyph glyph-name="f_uni0268.liga" unicode="f&#x268;" horiz-adv-x="535" 
d="M400 274v179.998h-256v-454h-27v454l-77 2c-6.66699 0.666992 -10 3.33398 -10 8.00098v10h87v50c0 30.667 4.33301 58 13 82s21.167 44.167 37.5 60.5s35.833 28.666 58.5 36.999s48 12.5 76 12.5c10 0 20.5 -0.833008 31.5 -2.5c11 -1 20.167 -3.5 27.5 -7.5l-1 -12
c-0.666992 -2 -2 -3.16699 -4 -3.5s-5.16699 0 -9.5 1s-9.83301 2 -16.5 3s-14.667 1.5 -24 1.5c-24.667 0 -47 -3.5 -67 -10.5s-37.167 -17.667 -51.5 -32s-25.333 -32.166 -33 -53.499s-11.5 -46.666 -11.5 -75.999v-50h284v-200h87v-20h-87v-254h-27v254h-92v20h92z" />
    <glyph glyph-name="f_iacute.liga" unicode="f&#xed;" horiz-adv-x="520" 
d="M117 0l-0.000976562 454l-77 2c-6.66699 0.666992 -10 3.33398 -10 8.00098v10h87v82c0 28 2.83301 52 8.5 72s13.834 36.5 24.501 49.5s23.667 22.667 39 29s32 9.5 50 9.5c11.333 0 21 -1.33301 29 -4v-13c0 -2.66699 -2 -3.83398 -6 -3.50098s-11.333 0.5 -22 0.5
c-30.667 0 -54.5 -11.333 -71.5 -34s-25.5 -58 -25.5 -106v-82h284v-474h-27v454h-256v-454h-27zM508.999 711l-104 -125c-2.66699 -4 -6.66699 -6 -12 -6h-16l80 118c3.33301 5.33301 6.5 8.83301 9.5 10.5s7.83301 2.5 14.5 2.5h28z" />
    <glyph glyph-name="f_uni1EC9.liga" unicode="f&#x1ec9;" horiz-adv-x="521" 
d="M117 0l-0.000976562 454l-77 2c-6.66699 0.666992 -10 3.33398 -10 8.00098v10h87v82c0 28 2.83301 52 8.5 72s13.834 36.5 24.501 49.5s23.667 22.667 39 29s32 9.5 50 9.5c11.333 0 21 -1.33301 29 -4v-13c0 -2.66699 -2 -3.83398 -6 -3.50098s-11.333 0.5 -22 0.5
c-30.667 0 -54.5 -11.333 -71.5 -34s-25.5 -58 -25.5 -106v-82h284v-474h-27v454h-256v-454h-27zM349.999 684c16 13.333 36.001 19.999 60.001 19.999c22.667 0 39 -5.16699 49 -15.5s15 -22.5 15 -36.5c0 -12 -4.33301 -22.667 -13 -32s-22.334 -16.333 -41.001 -21
l-3 -39h-15v49c18.667 2.66699 32 7.66699 40 15s12 16 12 26c0 4 -0.666992 8.33301 -2 13s-4 8.83398 -8 12.501s-9 6.66699 -15 9s-13.333 3.5 -22 3.5c-8 0 -14.5 -0.666992 -19.5 -2s-9.16699 -3 -12.5 -5s-6.33301 -3.83301 -9 -5.5s-4.66699 -2.5 -6 -2.5
c-2 0.666992 -3.33301 1.66699 -4 3z" />
    <glyph glyph-name="f_f_uni1ECB.liga" unicode="ff&#x1ecb;" horiz-adv-x="819" 
d="M117 0l0.00195312 453.999l-77 2c-6.66699 0.666992 -10 3.33398 -10 8.00098v10h87v65c0 28 3.5 52.5 10.5 73.5s16.667 38.333 29 52s27.166 23.834 44.499 30.501s36.333 10 57 10c9.33301 0 19.333 -0.833008 30 -2.5s20 -4.5 28 -8.5l-2 -11
c-0.666992 -2.66699 -2 -4.16699 -4 -4.5s-5.16699 0 -9.5 1s-9.83301 2 -16.5 3s-14.667 1.5 -24 1.5c-17.333 0 -33 -2.5 -47 -7.5s-26.333 -13.333 -37 -25s-18.834 -26.834 -24.501 -45.501s-8.5 -41.334 -8.5 -68.001v-64h273v50c0 30.667 4.33301 58 13 82
s21 44.167 37 60.5s35.333 28.666 58 36.999s48 12.5 76 12.5c10 0 20.5 -0.833008 31.5 -2.5c11 -1 20.5 -3.5 28.5 -7.5l-2 -12c-0.666992 -2 -1.83398 -3.16699 -3.50098 -3.5s-4.66699 0 -9 1s-9.66602 2 -15.999 3s-14.5 1.5 -24.5 1.5c-24.667 0 -47 -3.5 -67 -10.5
s-37.167 -17.667 -51.5 -32s-25.333 -32.166 -33 -53.499s-11.5 -46.666 -11.5 -75.999v-50h284v-474h-26v454h-258v-454h-26v454h-272v-454h-27zM746.002 -134.001c0 -8.66699 -3.5 -16.167 -10.5 -22.5s-14.833 -9.5 -23.5 -9.5c-9.33301 0 -17.166 3 -23.499 9
s-9.5 13.667 -9.5 23s3.16699 17.166 9.5 23.499s14.166 9.5 23.499 9.5c8.66699 0 16.5 -3.16699 23.5 -9.5s10.5 -14.166 10.5 -23.499z" />
    <glyph glyph-name="f_f_uni1E2D.liga" unicode="ff&#x1e2d;" horiz-adv-x="819" 
d="M117 0l0.00195312 453.999l-77 2c-6.66699 0.666992 -10 3.33398 -10 8.00098v10h87v65c0 28 3.5 52.5 10.5 73.5s16.667 38.333 29 52s27.166 23.834 44.499 30.501s36.333 10 57 10c9.33301 0 19.333 -0.833008 30 -2.5s20 -4.5 28 -8.5l-2 -11
c-0.666992 -2.66699 -2 -4.16699 -4 -4.5s-5.16699 0 -9.5 1s-9.83301 2 -16.5 3s-14.667 1.5 -24 1.5c-17.333 0 -33 -2.5 -47 -7.5s-26.333 -13.333 -37 -25s-18.834 -26.834 -24.501 -45.501s-8.5 -41.334 -8.5 -68.001v-64h273v50c0 30.667 4.33301 58 13 82
s21 44.167 37 60.5s35.333 28.666 58 36.999s48 12.5 76 12.5c10 0 20.5 -0.833008 31.5 -2.5c11 -1 20.5 -3.5 28.5 -7.5l-2 -12c-0.666992 -2 -1.83398 -3.16699 -3.50098 -3.5s-4.66699 0 -9 1s-9.66602 2 -15.999 3s-14.5 1.5 -24.5 1.5c-24.667 0 -47 -3.5 -67 -10.5
s-37.167 -17.667 -51.5 -32s-25.333 -32.166 -33 -53.499s-11.5 -46.666 -11.5 -75.999v-50h284v-474h-26v454h-258v-454h-26v454h-272v-454h-27zM766.002 -115.001c16 0 27.832 5.16504 35.499 15.498s11.834 23.5 12.501 39.5h16c0 -10.667 -1.33301 -20.5 -4 -29.5
s-6.5 -16.833 -11.5 -23.5s-11.5 -11.834 -19.5 -15.501s-17.333 -5.5 -28 -5.5s-20.834 2.83301 -30.501 8.5s-18.834 12 -27.501 19s-17.5 13.333 -26.5 19s-18.167 8.5 -27.5 8.5c-14.667 0 -26.167 -5.16699 -34.5 -15.5s-12.5 -23.166 -12.5 -38.499h-18
c0 10.667 1.33301 20.334 4 29.001s6.83398 16.334 12.501 23.001s12.5 12 20.5 16c7.33301 4 16.333 6 27 6s21 -2.83301 31 -8.5s19.333 -12 28 -19s17.334 -13.5 26.001 -19.5s17.667 -9 27 -9z" />
    <glyph glyph-name="f_f_uni0268.liga" unicode="ff&#x268;" horiz-adv-x="834" 
d="M700 274l0.00195312 179.999h-258v-454h-26v454h-272v-454h-27v454l-77 2c-6.66699 0.666992 -10 3.33398 -10 8.00098v10h87v65c0 28 3.5 52.5 10.5 73.5s16.667 38.333 29 52s27.166 23.834 44.499 30.501s36.333 10 57 10c9.33301 0 19.333 -0.833008 30 -2.5
s20 -4.5 28 -8.5l-2 -11c-0.666992 -2.66699 -2 -4.16699 -4 -4.5s-5.16699 0 -9.5 1s-9.83301 2 -16.5 3s-14.667 1.5 -24 1.5c-17.333 0 -33 -2.5 -47 -7.5s-26.333 -13.333 -37 -25s-18.834 -26.834 -24.501 -45.501s-8.5 -41.334 -8.5 -68.001v-64h273v50
c0 30.667 4.33301 58 13 82s21 44.167 37 60.5s35.333 28.666 58 36.999s48 12.5 76 12.5c10 0 20.5 -0.833008 31.5 -2.5c11 -1 20.5 -3.5 28.5 -7.5l-2 -12c-0.666992 -2 -1.83398 -3.16699 -3.50098 -3.5s-4.66699 0 -9 1s-9.66602 2 -15.999 3s-14.5 1.5 -24.5 1.5
c-24.667 0 -47 -3.5 -67 -10.5s-37.167 -17.667 -51.5 -32s-25.333 -32.166 -33 -53.499s-11.5 -46.666 -11.5 -75.999v-50h284v-200h87v-20h-87v-254h-26v254h-92v20h92z" />
    <glyph glyph-name="f_f_iacute.liga" unicode="ff&#xed;" horiz-adv-x="819" 
d="M117 0l0.00195312 454.001l-77 2c-6.66699 0.666992 -10 3.33398 -10 8.00098v10h87v65c0 28 3.5 52.5 10.5 73.5s16.667 38.333 29 52s27.166 23.834 44.499 30.501s36.333 10 57 10c9.33301 0 19.333 -0.833008 30 -2.5s20 -4.5 28 -8.5l-2 -11
c-0.666992 -2.66699 -2 -4.16699 -4 -4.5s-5.16699 0 -9.5 1s-9.83301 2 -16.5 3s-14.667 1.5 -24 1.5c-17.333 0 -33 -2.5 -47 -7.5s-26.333 -13.333 -37 -25s-18.834 -26.834 -24.501 -45.501s-8.5 -41.334 -8.5 -68.001v-64h273v82c0 28 3 52 9 72s14.167 36.5 24.5 49.5
s23 22.667 38 29s31.833 9.5 50.5 9.5c10.667 0 20 -1.33301 28 -4v-13c0 -2.66699 -2 -3.83398 -6 -3.50098s-11 0.5 -21 0.5c-31.333 0 -55.333 -11.333 -72 -34s-25 -58 -25 -106v-82h284v-474h-26v454h-258v-454h-26v454h-272v-454h-27zM808.002 711.001l-104 -125
c-2.66699 -4 -6.66699 -6 -12 -6h-16l80 118c3.33301 5.33301 6.5 8.83301 9.5 10.5s7.83301 2.5 14.5 2.5h28z" />
    <glyph glyph-name="f_f_uni1EC9.liga" unicode="ff&#x1ec9;" horiz-adv-x="813" 
d="M117 0l0.00195312 454.001l-77 2c-6.66699 0.666992 -10 3.33398 -10 8.00098v10h87v65c0 28 3.5 52.5 10.5 73.5s16.667 38.333 29 52s27.166 23.834 44.499 30.501s36.333 10 57 10c9.33301 0 19.333 -0.833008 30 -2.5s20 -4.5 28 -8.5l-2 -11
c-0.666992 -2.66699 -2 -4.16699 -4 -4.5s-5.16699 0 -9.5 1s-9.83301 2 -16.5 3s-14.667 1.5 -24 1.5c-17.333 0 -33 -2.5 -47 -7.5s-26.333 -13.333 -37 -25s-18.834 -26.834 -24.501 -45.501s-8.5 -41.334 -8.5 -68.001v-64h273v82c0 28 3 52 9 72s14.167 36.5 24.5 49.5
s23 22.667 38 29s31.833 9.5 50.5 9.5c10.667 0 20 -1.33301 28 -4v-13c0 -2.66699 -2 -3.83398 -6 -3.50098s-11 0.5 -21 0.5c-31.333 0 -55.333 -11.333 -72 -34s-25 -58 -25 -106v-82h284v-474h-26v454h-258v-454h-26v454h-272v-454h-27zM648.002 684.001
c16 13.333 36.001 19.999 60.001 19.999c22.667 0 39 -5.16699 49 -15.5s15 -22.5 15 -36.5c0 -12 -4.33301 -22.667 -13 -32s-22.334 -16.333 -41.001 -21l-3 -39h-15v49c18.667 2.66699 32 7.66699 40 15s12 16 12 26c0 4 -0.666992 8.33301 -2 13s-4 8.83398 -8 12.501
s-9 6.66699 -15 9s-13.333 3.5 -22 3.5c-8 0 -14.5 -0.666992 -19.5 -2s-9.16699 -3 -12.5 -5s-6.33301 -3.83301 -9 -5.5s-4.66699 -2.5 -6 -2.5c-2 0.666992 -3.33301 1.66699 -4 3z" />
    <glyph glyph-name="f_lacute.liga" unicode="f&#x13a;" horiz-adv-x="548" 
d="M117 0l0.000976562 453.999l-77 2c-6.66699 0.666992 -10 3.33398 -10 8.00098v10h87v36c0 30 4.33301 57.5 13 82.5s21.167 46.5 37.5 64.5s36.5 32 60.5 42s51.667 15 83 15c21.333 0 42.5 -1 63.5 -3s40.167 -3 57.5 -3h23v-708h-27v690
c-17.333 0 -36.333 0.666992 -57 2s-39.667 2 -57 2c-26.667 0 -50.667 -4.33301 -72 -13s-39.333 -21 -54 -37s-25.834 -35.333 -33.501 -58s-11.5 -48 -11.5 -76v-36h151v-20h-150v-454h-27zM594.001 917.999l-165 -144c-3.33301 -2.66699 -7.66602 -4 -12.999 -4h-17
l136 139c3.33301 4 6.66602 6.5 9.99902 7.5s8.33301 1.5 15 1.5h34z" />
    <glyph glyph-name="t_i.liga" unicode="ti" horiz-adv-x="565" 
d="M471 474v-474h-26v454h-303v-354c0 -15.333 2 -28.5 6 -39.5s9.33301 -20 16 -27s14.667 -12 24 -15s19.333 -4.5 30 -4.5c13.333 0 24.833 2 34.5 6s18 8.33301 25 13s12.667 9 17 13s7.5 6 9.5 6c1.33301 0 3.33301 -1.33301 6 -4l6 -9
c-5.33301 -6.66699 -11.833 -12.834 -19.5 -18.501s-16 -10.667 -25 -15s-18.333 -7.66602 -28 -9.99902s-19.5 -3.5 -29.5 -3.5c-30.667 0 -54.667 8.33301 -72 25s-26 43.667 -26 81v356h-77c-6 0 -9 2.66699 -9 8v8l86 4l8 190c0 2 0.666992 3.83301 2 5.5
s3.33301 2.5 6 2.5h10v-198h329zM493 678c0 -4 -1 -8 -3 -12s-4.5 -7.66699 -7.5 -11s-6.66699 -6 -11 -8s-8.5 -3 -12.5 -3c-4.66699 0 -9.16699 1 -13.5 3s-8 4.66699 -11 8s-5.33301 7 -7 11s-2.5 8 -2.5 12c0 9.33301 3.33301 17.333 10 24s14.667 10 24 10
c4 0 8.16699 -0.833008 12.5 -2.5s8 -4 11 -7s5.5 -6.66699 7.5 -11s3 -8.83301 3 -13.5z" />
    <glyph glyph-name="t_igrave.liga" unicode="t&#xec;" horiz-adv-x="565" 
d="M471 474v-474h-26v454h-303v-354c0 -15.333 2 -28.5 6 -39.5s9.33301 -20 16 -27s14.667 -12 24 -15s19.333 -4.5 30 -4.5c13.333 0 24.833 2 34.5 6s18 8.33301 25 13s12.667 9 17 13s7.5 6 9.5 6c1.33301 0 3.33301 -1.33301 6 -4l6 -9
c-5.33301 -6.66699 -11.833 -12.834 -19.5 -18.501s-16 -10.667 -25 -15s-18.333 -7.66602 -28 -9.99902s-19.5 -3.5 -29.5 -3.5c-30.667 0 -54.667 8.33301 -72 25s-26 43.667 -26 81v356h-77c-6 0 -9 2.66699 -9 8v8l86 4l8 190c0 2 0.666992 3.83301 2 5.5
s3.33301 2.5 6 2.5h10v-198h329zM399 711c6.66699 0 11.499 -0.833008 14.499 -2.5s6.16699 -5.16699 9.5 -10.5l80 -118h-14c-5.33301 0 -9.66602 2 -12.999 6l-104 125h27z" />
    <glyph glyph-name="t_iacute.liga" unicode="t&#xed;" horiz-adv-x="563" 
d="M469 474v-474h-26v454h-303v-354c0 -15.333 2 -28.5 6 -39.5s9.33301 -20 16 -27s14.667 -12 24 -15s19.333 -4.5 30 -4.5c13.333 0 24.833 2 34.5 6s18 8.33301 25 13s12.667 9 17 13s7.5 6 9.5 6c1.33301 0 3.33301 -1.33301 6 -4l6 -9
c-5.33301 -6.66699 -11.833 -12.834 -19.5 -18.501s-16 -10.667 -25 -15s-18.333 -7.66602 -28 -9.99902s-19.5 -3.5 -29.5 -3.5c-30.667 0 -54.667 8.33301 -72 25s-26 43.667 -26 81v356h-77c-6 0 -9 2.66699 -9 8v8l86 4l8 190c0 2 0.666992 3.83301 2 5.5
s3.33301 2.5 6 2.5h10v-198h329zM553 711l-104 -125c-2.66699 -4 -6.66699 -6 -12 -6h-16l80 118c3.33301 5.33301 6.5 8.83301 9.5 10.5s7.83301 2.5 14.5 2.5h28z" />
    <glyph glyph-name="t_icircumflex.liga" unicode="t&#xee;" horiz-adv-x="565" 
d="M471 474v-474h-26v454h-303v-354c0 -15.333 2 -28.5 6 -39.5s9.33301 -20 16 -27s14.667 -12 24 -15s19.333 -4.5 30 -4.5c13.333 0 24.833 2 34.5 6s18 8.33301 25 13s12.667 9 17 13s7.5 6 9.5 6c1.33301 0 3.33301 -1.33301 6 -4l6 -9
c-5.33301 -6.66699 -11.833 -12.834 -19.5 -18.501s-16 -10.667 -25 -15s-18.333 -7.66602 -28 -9.99902s-19.5 -3.5 -29.5 -3.5c-30.667 0 -54.667 8.33301 -72 25s-26 43.667 -26 81v356h-77c-6 0 -9 2.66699 -9 8v8l86 4l8 190c0 2 0.666992 3.83301 2 5.5
s3.33301 2.5 6 2.5h10v-198h329zM577 585h-18c-4 0 -7.66699 1.66699 -11 5l-85 92l-2 2l-2 2l-4 -4l-84 -92c-3.33301 -3.33301 -7 -5 -11 -5h-19l107 118h22z" />
    <glyph glyph-name="t_idieresis.liga" unicode="t&#xef;" horiz-adv-x="565" 
d="M471 474v-474h-26v454h-303v-354c0 -15.333 2 -28.5 6 -39.5s9.33301 -20 16 -27s14.667 -12 24 -15s19.333 -4.5 30 -4.5c13.333 0 24.833 2 34.5 6s18 8.33301 25 13s12.667 9 17 13s7.5 6 9.5 6c1.33301 0 3.33301 -1.33301 6 -4l6 -9
c-5.33301 -6.66699 -11.833 -12.834 -19.5 -18.501s-16 -10.667 -25 -15s-18.333 -7.66602 -28 -9.99902s-19.5 -3.5 -29.5 -3.5c-30.667 0 -54.667 8.33301 -72 25s-26 43.667 -26 81v356h-77c-6 0 -9 2.66699 -9 8v8l86 4l8 190c0 2 0.666992 3.83301 2 5.5
s3.33301 2.5 6 2.5h10v-198h329zM427 641c0 -8.66699 -3.33496 -16.334 -10.002 -23.001s-14.334 -10 -23.001 -10c-9.33301 0 -17.166 3.33301 -23.499 10s-9.5 14.334 -9.5 23.001c0 9.33301 3.33301 17.166 10 23.499s14.334 9.5 23.001 9.5s16.334 -3.16699 23.001 -9.5
s10 -14.166 10 -23.499zM556.998 641c0 -8.66699 -3.33496 -16.334 -10.002 -23.001s-14.334 -10 -23.001 -10c-9.33301 0 -17.166 3.33301 -23.499 10s-9.5 14.334 -9.5 23.001c0 9.33301 3.33301 17.166 10 23.499s14.334 9.5 23.001 9.5s16.334 -3.16699 23.001 -9.5
s10 -14.166 10 -23.499z" />
    <glyph glyph-name="t_imacron.liga" unicode="t&#x12b;" horiz-adv-x="565" 
d="M471 474v-474h-26v454h-303v-354c0 -15.333 2 -28.5 6 -39.5s9.33301 -20 16 -27s14.667 -12 24 -15s19.333 -4.5 30 -4.5c13.333 0 24.833 2 34.5 6s18 8.33301 25 13s12.667 9 17 13s7.5 6 9.5 6c1.33301 0 3.33301 -1.33301 6 -4l6 -9
c-5.33301 -6.66699 -11.833 -12.834 -19.5 -18.501s-16 -10.667 -25 -15s-18.333 -7.66602 -28 -9.99902s-19.5 -3.5 -29.5 -3.5c-30.667 0 -54.667 8.33301 -72 25s-26 43.667 -26 81v356h-77c-6 0 -9 2.66699 -9 8v8l86 4l8 190c0 2 0.666992 3.83301 2 5.5
s3.33301 2.5 6 2.5h10v-198h329zM327 650h264v-18h-264v18z" />
    <glyph glyph-name="t_itilde.liga" unicode="t&#x129;" horiz-adv-x="563" 
d="M469 474v-474h-26v454h-303v-354c0 -15.333 2 -28.5 6 -39.5s9.33301 -20 16 -27s14.667 -12 24 -15s19.333 -4.5 30 -4.5c13.333 0 24.833 2 34.5 6s18 8.33301 25 13s12.667 9 17 13s7.5 6 9.5 6c1.33301 0 3.33301 -1.33301 6 -4l6 -9
c-5.33301 -6.66699 -11.833 -12.834 -19.5 -18.501s-16 -10.667 -25 -15s-18.333 -7.66602 -28 -9.99902s-19.5 -3.5 -29.5 -3.5c-30.667 0 -54.667 8.33301 -72 25s-26 43.667 -26 81v356h-77c-6 0 -9 2.66699 -9 8v8l86 4l8 190c0 2 0.666992 3.83301 2 5.5
s3.33301 2.5 6 2.5h10v-198h329zM515 628c16 0 27.832 5.16504 35.499 15.498s11.834 23.5 12.501 39.5h16c0 -10.667 -1.33301 -20.5 -4 -29.5s-6.5 -16.833 -11.5 -23.5s-11.5 -11.834 -19.5 -15.501s-17.333 -5.5 -28 -5.5s-20.834 2.83301 -30.501 8.5
s-18.834 12 -27.501 19s-17.5 13.333 -26.5 19s-18.167 8.5 -27.5 8.5c-14.667 0 -26.167 -5.16699 -34.5 -15.5s-12.5 -23.166 -12.5 -38.499h-18c0 10.667 1.33301 20.334 4 29.001s6.83398 16.334 12.501 23.001s12.5 12 20.5 16c7.33301 4 16.333 6 27 6
s21 -2.83301 31 -8.5s19.333 -12 28 -19s17.334 -13.5 26.001 -19.5s17.667 -9 27 -9z" />
    <glyph glyph-name="t_ibreve.liga" unicode="t&#x12d;" horiz-adv-x="565" 
d="M471 474v-474h-26v454h-303v-354c0 -15.333 2 -28.5 6 -39.5s9.33301 -20 16 -27s14.667 -12 24 -15s19.333 -4.5 30 -4.5c13.333 0 24.833 2 34.5 6s18 8.33301 25 13s12.667 9 17 13s7.5 6 9.5 6c1.33301 0 3.33301 -1.33301 6 -4l6 -9
c-5.33301 -6.66699 -11.833 -12.834 -19.5 -18.501s-16 -10.667 -25 -15s-18.333 -7.66602 -28 -9.99902s-19.5 -3.5 -29.5 -3.5c-30.667 0 -54.667 8.33301 -72 25s-26 43.667 -26 81v356h-77c-6 0 -9 2.66699 -9 8v8l86 4l8 190c0 2 0.666992 3.83301 2 5.5
s3.33301 2.5 6 2.5h10v-198h329zM459 586c-20 0 -36.9961 3 -50.9961 9s-25.5 14.333 -34.5 25s-15.5 23.167 -19.5 37.5s-6 29.5 -6 45.5h20c0 -13.333 1.5 -25.833 4.5 -37.5s8.16699 -22.167 15.5 -31.5s16.666 -16.666 27.999 -21.999s25.666 -8 42.999 -8
s31.666 2.66699 42.999 8s20.666 12.666 27.999 21.999s12.5 20 15.5 32s4.5 24.333 4.5 37h20c0 -16 -2 -31.167 -6 -45.5s-10.5 -26.833 -19.5 -37.5s-20.5 -19 -34.5 -25s-31 -9 -51 -9z" />
    <glyph glyph-name="t_uni01D0.liga" unicode="t&#x1d0;" horiz-adv-x="565" 
d="M471 474v-474h-26v454h-303v-354c0 -15.333 2 -28.5 6 -39.5s9.33301 -20 16 -27s14.667 -12 24 -15s19.333 -4.5 30 -4.5c13.333 0 24.833 2 34.5 6s18 8.33301 25 13s12.667 9 17 13s7.5 6 9.5 6c1.33301 0 3.33301 -1.33301 6 -4l6 -9
c-5.33301 -6.66699 -11.833 -12.834 -19.5 -18.501s-16 -10.667 -25 -15s-18.333 -7.66602 -28 -9.99902s-19.5 -3.5 -29.5 -3.5c-30.667 0 -54.667 8.33301 -72 25s-26 43.667 -26 81v356h-77c-6 0 -9 2.66699 -9 8v8l86 4l8 190c0 2 0.666992 3.83301 2 5.5
s3.33301 2.5 6 2.5h10v-198h329zM341 703l19 -0.000976562c1.33301 0 3 -0.5 5 -1.5s3.66699 -2.16699 5 -3.5l85 -92l4 -4l4 4l86 92c2.66699 2.66699 6 4.33398 10 5.00098h18l-107 -118h-22z" />
    <glyph glyph-name="t_uni1E2D.liga" unicode="t&#x1e2d;" horiz-adv-x="563" 
d="M469 474v-474h-26v454h-303v-354c0 -15.333 2 -28.5 6 -39.5s9.33301 -20 16 -27s14.667 -12 24 -15s19.333 -4.5 30 -4.5c13.333 0 24.833 2 34.5 6s18 8.33301 25 13s12.667 9 17 13s7.5 6 9.5 6c1.33301 0 3.33301 -1.33301 6 -4l6 -9
c-5.33301 -6.66699 -11.833 -12.834 -19.5 -18.501s-16 -10.667 -25 -15s-18.333 -7.66602 -28 -9.99902s-19.5 -3.5 -29.5 -3.5c-30.667 0 -54.667 8.33301 -72 25s-26 43.667 -26 81v356h-77c-6 0 -9 2.66699 -9 8v8l86 4l8 190c0 2 0.666992 3.83301 2 5.5
s3.33301 2.5 6 2.5h10v-198h329zM491 678c0 -4 -1 -8 -3 -12s-4.5 -7.66699 -7.5 -11s-6.66699 -6 -11 -8s-8.5 -3 -12.5 -3c-4.66699 0 -9.16699 1 -13.5 3s-8 4.66699 -11 8s-5.33301 7 -7 11s-2.5 8 -2.5 12c0 9.33301 3.33301 17.333 10 24s14.667 10 24 10
c4 0 8.16699 -0.833008 12.5 -2.5s8 -4 11 -7s5.5 -6.66699 7.5 -11s3 -8.83301 3 -13.5zM510 -115c16 0 27.832 5.16504 35.499 15.498s11.834 23.5 12.501 39.5h16c0 -10.667 -1.33301 -20.5 -4 -29.5s-6.5 -16.833 -11.5 -23.5s-11.5 -11.834 -19.5 -15.501
s-17.333 -5.5 -28 -5.5s-20.834 2.83301 -30.501 8.5s-18.834 12 -27.501 19s-17.5 13.333 -26.5 19s-18.167 8.5 -27.5 8.5c-14.667 0 -26.167 -5.16699 -34.5 -15.5s-12.5 -23.166 -12.5 -38.499h-18c0 10.667 1.33301 20.334 4 29.001s6.83398 16.334 12.501 23.001
s12.5 12 20.5 16c7.33301 4 16.333 6 27 6s21 -2.83301 31 -8.5s19.333 -12 28 -19s17.334 -13.5 26.001 -19.5s17.667 -9 27 -9z" />
    <glyph glyph-name="t_uni1E2F.liga" unicode="t&#x1e2f;" horiz-adv-x="563" 
d="M469 474v-474h-26v454h-303v-354c0 -15.333 2 -28.5 6 -39.5s9.33301 -20 16 -27s14.667 -12 24 -15s19.333 -4.5 30 -4.5c13.333 0 24.833 2 34.5 6s18 8.33301 25 13s12.667 9 17 13s7.5 6 9.5 6c1.33301 0 3.33301 -1.33301 6 -4l6 -9
c-5.33301 -6.66699 -11.833 -12.834 -19.5 -18.501s-16 -10.667 -25 -15s-18.333 -7.66602 -28 -9.99902s-19.5 -3.5 -29.5 -3.5c-30.667 0 -54.667 8.33301 -72 25s-26 43.667 -26 81v356h-77c-6 0 -9 2.66699 -9 8v8l86 4l8 190c0 2 0.666992 3.83301 2 5.5
s3.33301 2.5 6 2.5h10v-198h329zM578 860l-104 -125c-2.66699 -4 -6.66699 -6 -12 -6h-16l80 118c3.33301 5.33301 6.5 8.83301 9.5 10.5s7.83301 2.5 14.5 2.5h28zM406 641c0 -8.66699 -3.50098 -16.334 -10.501 -23.001s-14.5 -10 -22.5 -10
c-9.33301 0 -17.333 3.33301 -24 10s-10 14.334 -10 23.001c0 9.33301 3.33301 17.166 10 23.499s14.667 9.5 24 9.5c8.66699 0 16.334 -3.16699 23.001 -9.5s10 -14.166 10 -23.499zM574.999 641c0 -8.66699 -3.33398 -16.334 -10.001 -23.001s-14.667 -10 -24 -10
s-17.166 3.33301 -23.499 10s-9.5 14.334 -9.5 23.001c0 9.33301 3.33301 17.166 10 23.499c6 6.33301 13.667 9.5 23 9.5c8.66699 0 16.5 -3.16699 23.5 -9.5s10.5 -14.166 10.5 -23.499z" />
    <glyph glyph-name="t_uni0268.liga" unicode="t&#x268;" horiz-adv-x="582" 
d="M445 274v180h-303v-354c0 -15.333 2 -28.5 6 -39.5s9.33301 -20 16 -27s14.667 -12 24 -15s19.333 -4.5 30 -4.5c13.333 0 24.833 2 34.5 6s18 8.33301 25 13s12.667 9 17 13s7.5 6 9.5 6c1.33301 0 3.33301 -1.33301 6 -4l6 -9
c-5.33301 -6.66699 -11.833 -12.834 -19.5 -18.501s-16 -10.667 -25 -15s-18.333 -7.66602 -28 -9.99902s-19.5 -3.5 -29.5 -3.5c-30.667 0 -54.667 8.33301 -72 25s-26 43.667 -26 81v356h-77c-6 0 -9 2.66699 -9 8v8l86 4l8 190c0 2 0.666992 3.83301 2 5.5
s3.33301 2.5 6 2.5h10v-198h329v-200h87v-20h-87v-254h-26v254h-92v20h92zM494 678c0 -4 -0.999023 -8 -2.99902 -12s-4.66699 -7.66699 -8 -11s-7 -6 -11 -8s-8.33301 -3 -13 -3s-9 1 -13 3s-7.66699 4.66699 -11 8s-6 7 -8 11s-3 8 -3 12c0 9.33301 3.5 17.333 10.5 24
s15.167 10 24.5 10c4 0 8.16699 -0.833008 12.5 -2.5s8.16602 -4 11.499 -7s6 -6.66699 8 -11s3 -8.83301 3 -13.5z" />
    <glyph glyph-name="t_uni020B.liga" unicode="t&#x20b;" horiz-adv-x="565" 
d="M471 474v-474h-26v454h-303v-354c0 -15.333 2 -28.5 6 -39.5s9.33301 -20 16 -27s14.667 -12 24 -15s19.333 -4.5 30 -4.5c13.333 0 24.833 2 34.5 6s18 8.33301 25 13s12.667 9 17 13s7.5 6 9.5 6c1.33301 0 3.33301 -1.33301 6 -4l6 -9
c-5.33301 -6.66699 -11.833 -12.834 -19.5 -18.501s-16 -10.667 -25 -15s-18.333 -7.66602 -28 -9.99902s-19.5 -3.5 -29.5 -3.5c-30.667 0 -54.667 8.33301 -72 25s-26 43.667 -26 81v356h-77c-6 0 -9 2.66699 -9 8v8l86 4l8 190c0 2 0.666992 3.83301 2 5.5
s3.33301 2.5 6 2.5h10v-198h329zM459 710c20 0 36.9961 -3 50.9961 -9s25.5 -14.333 34.5 -25s15.5 -23.167 19.5 -37.5s6 -29.5 6 -45.5h-20c0 13.333 -1.5 25.833 -4.5 37.5s-8.16699 22.167 -15.5 31.5s-16.666 16.666 -27.999 21.999s-25.666 8 -42.999 8
s-31.666 -2.66699 -42.999 -8s-20.666 -12.666 -27.999 -21.999s-12.5 -20 -15.5 -32s-4.5 -24.333 -4.5 -37h-20c0 16 2 31.167 6 45.5s10.5 26.833 19.5 37.5s20.5 19 34.5 25s31 9 51 9z" />
    <glyph glyph-name="t_uni0209.liga" unicode="t&#x209;" horiz-adv-x="565" 
d="M471 474v-474h-26v454h-303v-354c0 -15.333 2 -28.5 6 -39.5s9.33301 -20 16 -27s14.667 -12 24 -15s19.333 -4.5 30 -4.5c13.333 0 24.833 2 34.5 6s18 8.33301 25 13s12.667 9 17 13s7.5 6 9.5 6c1.33301 0 3.33301 -1.33301 6 -4l6 -9
c-5.33301 -6.66699 -11.833 -12.834 -19.5 -18.501s-16 -10.667 -25 -15s-18.333 -7.66602 -28 -9.99902s-19.5 -3.5 -29.5 -3.5c-30.667 0 -54.667 8.33301 -72 25s-26 43.667 -26 81v356h-77c-6 0 -9 2.66699 -9 8v8l86 4l8 190c0 2 0.666992 3.83301 2 5.5
s3.33301 2.5 6 2.5h10v-198h329zM435 711c6.66699 0 11.668 -0.833008 15.001 -2.5s6.66602 -5.16699 9.99902 -10.5l79 -118h-12c-5.33301 0 -9.33301 2 -12 6l-100 125h20zM313.001 711c6.66699 0 11.5 -0.833008 14.5 -2.5c2.33301 -1.66699 5.5 -5.16699 9.5 -10.5
l92 -118h-14c-5.33301 0 -9.33301 2 -12 6l-112 125h22z" />
    <glyph glyph-name="t_t_i.liga" unicode="tti" horiz-adv-x="867" 
d="M214 -8c-30.667 0 -54.666 8.33301 -71.999 25s-26 43.667 -26 81v356h-77c-6 0 -9 2.66699 -9 8v8l86 4l8 190c0 2 0.666992 3.83301 2 5.5s3.33301 2.5 6 2.5h10v-198h286l8 190c0 2 0.666992 3.83301 2 5.5s3.33301 2.5 6 2.5h11v-198h319v-474h-27v454h-292v-354
c0 -15.333 2 -28.5 6 -39.5s9.33301 -20 16 -27s14.5 -12 23.5 -15s18.833 -4.5 29.5 -4.5c13.333 0 25 2 35 6s18.333 8.33301 25 13s12.167 9 16.5 13s7.5 6 9.5 6c1.33301 0 2.33301 -0.333008 3 -1l3 -3l6 -9c-10.667 -14 -25.334 -25.333 -44.001 -34s-38 -13 -58 -13
c-30.667 0 -54.667 8.33301 -72 25s-26 43.667 -26 81v356h-286v-354c0 -15.333 2 -28.5 6 -39.5s9.33301 -20 16 -27s14.667 -12 24 -15s19.333 -4.5 30 -4.5c13.333 0 24.833 2 34.5 6s18 8.33301 25 13s12.667 9 17 13s7.5 6 9.5 6c1.33301 0 3.33301 -1.33301 6 -4l6 -9
c-5.33301 -6.66699 -11.833 -12.834 -19.5 -18.501s-16 -10.667 -25 -15s-18.333 -7.66602 -28 -9.99902s-19.5 -3.5 -29.5 -3.5zM796.001 678c0 -4 -1 -8 -3 -12s-4.5 -7.66699 -7.5 -11s-6.66699 -6 -11 -8s-8.5 -3 -12.5 -3c-4.66699 0 -9.16699 1 -13.5 3
s-8 4.66699 -11 8s-5.33301 7 -7 11s-2.5 8 -2.5 12c0 9.33301 3.33301 17.333 10 24s14.667 10 24 10c4 0 8.16699 -0.833008 12.5 -2.5s8 -4 11 -7s5.5 -6.66699 7.5 -11s3 -8.83301 3 -13.5z" />
    <glyph glyph-name="t_t_igrave.liga" unicode="tt&#xec;" horiz-adv-x="867" 
d="M214 -8c-30.667 0 -54.666 8.33301 -71.999 25s-26 43.667 -26 81v356h-77c-6 0 -9 2.66699 -9 8v8l86 4l8 190c0 2 0.666992 3.83301 2 5.5s3.33301 2.5 6 2.5h10v-198h286l8 190c0 2 0.666992 3.83301 2 5.5s3.33301 2.5 6 2.5h11v-198h319v-474h-27v454h-292v-354
c0 -15.333 2 -28.5 6 -39.5s9.33301 -20 16 -27s14.5 -12 23.5 -15s18.833 -4.5 29.5 -4.5c13.333 0 25 2 35 6s18.333 8.33301 25 13s12.167 9 16.5 13s7.5 6 9.5 6c1.33301 0 2.33301 -0.333008 3 -1l3 -3l6 -9c-10.667 -14 -25.334 -25.333 -44.001 -34s-38 -13 -58 -13
c-30.667 0 -54.667 8.33301 -72 25s-26 43.667 -26 81v356h-286v-354c0 -15.333 2 -28.5 6 -39.5s9.33301 -20 16 -27s14.667 -12 24 -15s19.333 -4.5 30 -4.5c13.333 0 24.833 2 34.5 6s18 8.33301 25 13s12.667 9 17 13s7.5 6 9.5 6c1.33301 0 3.33301 -1.33301 6 -4l6 -9
c-5.33301 -6.66699 -11.833 -12.834 -19.5 -18.501s-16 -10.667 -25 -15s-18.333 -7.66602 -28 -9.99902s-19.5 -3.5 -29.5 -3.5zM702.001 711c6.66699 0 11.499 -0.833008 14.499 -2.5s6.16699 -5.16699 9.5 -10.5l80 -118h-14c-5.33301 0 -9.66602 2 -12.999 6l-104 125
h27z" />
    <glyph glyph-name="t_t_iacute.liga" unicode="tt&#xed;" horiz-adv-x="865" 
d="M212 -8c-30.667 0 -54.666 8.33301 -71.999 25s-26 43.667 -26 81v356h-77c-6 0 -9 2.66699 -9 8v8l86 4l8 190c0 2 0.666992 3.83301 2 5.5s3.33301 2.5 6 2.5h10v-198h286l8 190c0 2 0.666992 3.83301 2 5.5s3.33301 2.5 6 2.5h11v-198h319v-474h-27v454h-292v-354
c0 -15.333 2 -28.5 6 -39.5s9.33301 -20 16 -27s14.5 -12 23.5 -15s18.833 -4.5 29.5 -4.5c13.333 0 25 2 35 6s18.333 8.33301 25 13s12.167 9 16.5 13s7.5 6 9.5 6c1.33301 0 2.33301 -0.333008 3 -1l3 -3l6 -9c-10.667 -14 -25.334 -25.333 -44.001 -34s-38 -13 -58 -13
c-30.667 0 -54.667 8.33301 -72 25s-26 43.667 -26 81v356h-286v-354c0 -15.333 2 -28.5 6 -39.5s9.33301 -20 16 -27s14.667 -12 24 -15s19.333 -4.5 30 -4.5c13.333 0 24.833 2 34.5 6s18 8.33301 25 13s12.667 9 17 13s7.5 6 9.5 6c1.33301 0 3.33301 -1.33301 6 -4l6 -9
c-5.33301 -6.66699 -11.833 -12.834 -19.5 -18.501s-16 -10.667 -25 -15s-18.333 -7.66602 -28 -9.99902s-19.5 -3.5 -29.5 -3.5zM856.001 711l-104 -125c-2.66699 -4 -6.66699 -6 -12 -6h-16l80 118c3.33301 5.33301 6.5 8.83301 9.5 10.5s7.83301 2.5 14.5 2.5h28z" />
    <glyph glyph-name="t_t_icircumflex.liga" unicode="tt&#xee;" horiz-adv-x="867" 
d="M214 -8c-30.667 0 -54.666 8.33301 -71.999 25s-26 43.667 -26 81v356h-77c-6 0 -9 2.66699 -9 8v8l86 4l8 190c0 2 0.666992 3.83301 2 5.5s3.33301 2.5 6 2.5h10v-198h286l8 190c0 2 0.666992 3.83301 2 5.5s3.33301 2.5 6 2.5h11v-198h319v-474h-27v454h-292v-354
c0 -15.333 2 -28.5 6 -39.5s9.33301 -20 16 -27s14.5 -12 23.5 -15s18.833 -4.5 29.5 -4.5c13.333 0 25 2 35 6s18.333 8.33301 25 13s12.167 9 16.5 13s7.5 6 9.5 6c1.33301 0 2.33301 -0.333008 3 -1l3 -3l6 -9c-10.667 -14 -25.334 -25.333 -44.001 -34s-38 -13 -58 -13
c-30.667 0 -54.667 8.33301 -72 25s-26 43.667 -26 81v356h-286v-354c0 -15.333 2 -28.5 6 -39.5s9.33301 -20 16 -27s14.667 -12 24 -15s19.333 -4.5 30 -4.5c13.333 0 24.833 2 34.5 6s18 8.33301 25 13s12.667 9 17 13s7.5 6 9.5 6c1.33301 0 3.33301 -1.33301 6 -4l6 -9
c-5.33301 -6.66699 -11.833 -12.834 -19.5 -18.501s-16 -10.667 -25 -15s-18.333 -7.66602 -28 -9.99902s-19.5 -3.5 -29.5 -3.5zM880.001 585h-18c-4 0 -7.66699 1.66699 -11 5l-85 92l-2 2l-2 2l-4 -4l-84 -92c-3.33301 -3.33301 -7 -5 -11 -5h-19l107 118h22z" />
    <glyph glyph-name="t_t_idieresis.liga" unicode="tt&#xef;" horiz-adv-x="867" 
d="M214 -8c-30.667 0 -54.666 8.33301 -71.999 25s-26 43.667 -26 81v356h-77c-6 0 -9 2.66699 -9 8v8l86 4l8 190c0 2 0.666992 3.83301 2 5.5s3.33301 2.5 6 2.5h10v-198h286l8 190c0 2 0.666992 3.83301 2 5.5s3.33301 2.5 6 2.5h11v-198h319v-474h-27v454h-292v-354
c0 -15.333 2 -28.5 6 -39.5s9.33301 -20 16 -27s14.5 -12 23.5 -15s18.833 -4.5 29.5 -4.5c13.333 0 25 2 35 6s18.333 8.33301 25 13s12.167 9 16.5 13s7.5 6 9.5 6c1.33301 0 2.33301 -0.333008 3 -1l3 -3l6 -9c-10.667 -14 -25.334 -25.333 -44.001 -34s-38 -13 -58 -13
c-30.667 0 -54.667 8.33301 -72 25s-26 43.667 -26 81v356h-286v-354c0 -15.333 2 -28.5 6 -39.5s9.33301 -20 16 -27s14.667 -12 24 -15s19.333 -4.5 30 -4.5c13.333 0 24.833 2 34.5 6s18 8.33301 25 13s12.667 9 17 13s7.5 6 9.5 6c1.33301 0 3.33301 -1.33301 6 -4l6 -9
c-5.33301 -6.66699 -11.833 -12.834 -19.5 -18.501s-16 -10.667 -25 -15s-18.333 -7.66602 -28 -9.99902s-19.5 -3.5 -29.5 -3.5zM730.001 641c0 -8.66699 -3.33496 -16.334 -10.002 -23.001s-14.334 -10 -23.001 -10c-9.33301 0 -17.166 3.33301 -23.499 10
s-9.5 14.334 -9.5 23.001c0 9.33301 3.33301 17.166 10 23.499s14.334 9.5 23.001 9.5s16.334 -3.16699 23.001 -9.5s10 -14.166 10 -23.499zM859.999 641c0 -8.66699 -3.33496 -16.334 -10.002 -23.001s-14.334 -10 -23.001 -10c-9.33301 0 -17.166 3.33301 -23.499 10
s-9.5 14.334 -9.5 23.001c0 9.33301 3.33301 17.166 10 23.499s14.334 9.5 23.001 9.5s16.334 -3.16699 23.001 -9.5s10 -14.166 10 -23.499z" />
    <glyph glyph-name="t_t_imacron.liga" unicode="tt&#x12b;" horiz-adv-x="867" 
d="M214 -8c-30.667 0 -54.666 8.33301 -71.999 25s-26 43.667 -26 81v356h-77c-6 0 -9 2.66699 -9 8v8l86 4l8 190c0 2 0.666992 3.83301 2 5.5s3.33301 2.5 6 2.5h10v-198h286l8 190c0 2 0.666992 3.83301 2 5.5s3.33301 2.5 6 2.5h11v-198h319v-474h-27v454h-292v-354
c0 -15.333 2 -28.5 6 -39.5s9.33301 -20 16 -27s14.5 -12 23.5 -15s18.833 -4.5 29.5 -4.5c13.333 0 25 2 35 6s18.333 8.33301 25 13s12.167 9 16.5 13s7.5 6 9.5 6c1.33301 0 2.33301 -0.333008 3 -1l3 -3l6 -9c-10.667 -14 -25.334 -25.333 -44.001 -34s-38 -13 -58 -13
c-30.667 0 -54.667 8.33301 -72 25s-26 43.667 -26 81v356h-286v-354c0 -15.333 2 -28.5 6 -39.5s9.33301 -20 16 -27s14.667 -12 24 -15s19.333 -4.5 30 -4.5c13.333 0 24.833 2 34.5 6s18 8.33301 25 13s12.667 9 17 13s7.5 6 9.5 6c1.33301 0 3.33301 -1.33301 6 -4l6 -9
c-5.33301 -6.66699 -11.833 -12.834 -19.5 -18.501s-16 -10.667 -25 -15s-18.333 -7.66602 -28 -9.99902s-19.5 -3.5 -29.5 -3.5zM630.001 650h264v-18h-264v18z" />
    <glyph glyph-name="t_t_itilde.liga" unicode="tt&#x129;" horiz-adv-x="865" 
d="M212 -8c-30.667 0 -54.666 8.33301 -71.999 25s-26 43.667 -26 81v356h-77c-6 0 -9 2.66699 -9 8v8l86 4l8 190c0 2 0.666992 3.83301 2 5.5s3.33301 2.5 6 2.5h10v-198h286l8 190c0 2 0.666992 3.83301 2 5.5s3.33301 2.5 6 2.5h11v-198h319v-474h-27v454h-292v-354
c0 -15.333 2 -28.5 6 -39.5s9.33301 -20 16 -27s14.5 -12 23.5 -15s18.833 -4.5 29.5 -4.5c13.333 0 25 2 35 6s18.333 8.33301 25 13s12.167 9 16.5 13s7.5 6 9.5 6c1.33301 0 2.33301 -0.333008 3 -1l3 -3l6 -9c-10.667 -14 -25.334 -25.333 -44.001 -34s-38 -13 -58 -13
c-30.667 0 -54.667 8.33301 -72 25s-26 43.667 -26 81v356h-286v-354c0 -15.333 2 -28.5 6 -39.5s9.33301 -20 16 -27s14.667 -12 24 -15s19.333 -4.5 30 -4.5c13.333 0 24.833 2 34.5 6s18 8.33301 25 13s12.667 9 17 13s7.5 6 9.5 6c1.33301 0 3.33301 -1.33301 6 -4l6 -9
c-5.33301 -6.66699 -11.833 -12.834 -19.5 -18.501s-16 -10.667 -25 -15s-18.333 -7.66602 -28 -9.99902s-19.5 -3.5 -29.5 -3.5zM818.001 628c16 0 27.832 5.16504 35.499 15.498s11.834 23.5 12.501 39.5h16c0 -10.667 -1.33301 -20.5 -4 -29.5s-6.5 -16.833 -11.5 -23.5
s-11.5 -11.834 -19.5 -15.501s-17.333 -5.5 -28 -5.5s-20.834 2.83301 -30.501 8.5s-18.834 12 -27.501 19s-17.5 13.333 -26.5 19s-18.167 8.5 -27.5 8.5c-14.667 0 -26.167 -5.16699 -34.5 -15.5s-12.5 -23.166 -12.5 -38.499h-18c0 10.667 1.33301 20.334 4 29.001
s6.83398 16.334 12.501 23.001s12.5 12 20.5 16c7.33301 4 16.333 6 27 6s21 -2.83301 31 -8.5s19.333 -12 28 -19s17.334 -13.5 26.001 -19.5s17.667 -9 27 -9z" />
    <glyph glyph-name="t_t_ibreve.liga" unicode="tt&#x12d;" horiz-adv-x="867" 
d="M214 -8c-30.667 0 -54.666 8.33301 -71.999 25s-26 43.667 -26 81v356h-77c-6 0 -9 2.66699 -9 8v8l86 4l8 190c0 2 0.666992 3.83301 2 5.5s3.33301 2.5 6 2.5h10v-198h286l8 190c0 2 0.666992 3.83301 2 5.5s3.33301 2.5 6 2.5h11v-198h319v-474h-27v454h-292v-354
c0 -15.333 2 -28.5 6 -39.5s9.33301 -20 16 -27s14.5 -12 23.5 -15s18.833 -4.5 29.5 -4.5c13.333 0 25 2 35 6s18.333 8.33301 25 13s12.167 9 16.5 13s7.5 6 9.5 6c1.33301 0 2.33301 -0.333008 3 -1l3 -3l6 -9c-10.667 -14 -25.334 -25.333 -44.001 -34s-38 -13 -58 -13
c-30.667 0 -54.667 8.33301 -72 25s-26 43.667 -26 81v356h-286v-354c0 -15.333 2 -28.5 6 -39.5s9.33301 -20 16 -27s14.667 -12 24 -15s19.333 -4.5 30 -4.5c13.333 0 24.833 2 34.5 6s18 8.33301 25 13s12.667 9 17 13s7.5 6 9.5 6c1.33301 0 3.33301 -1.33301 6 -4l6 -9
c-5.33301 -6.66699 -11.833 -12.834 -19.5 -18.501s-16 -10.667 -25 -15s-18.333 -7.66602 -28 -9.99902s-19.5 -3.5 -29.5 -3.5zM762.001 586c-20 0 -36.9961 3 -50.9961 9s-25.5 14.333 -34.5 25s-15.5 23.167 -19.5 37.5s-6 29.5 -6 45.5h20
c0 -13.333 1.5 -25.833 4.5 -37.5s8.16699 -22.167 15.5 -31.5s16.666 -16.666 27.999 -21.999s25.666 -8 42.999 -8s31.666 2.66699 42.999 8s20.666 12.666 27.999 21.999s12.5 20 15.5 32s4.5 24.333 4.5 37h20c0 -16 -2 -31.167 -6 -45.5s-10.5 -26.833 -19.5 -37.5
s-20.5 -19 -34.5 -25s-31 -9 -51 -9z" />
    <glyph glyph-name="t_t_uni01D0.liga" unicode="tt&#x1d0;" horiz-adv-x="867" 
d="M214 -8c-30.667 0 -54.666 8.33301 -71.999 25s-26 43.667 -26 81v356h-77c-6 0 -9 2.66699 -9 8v8l86 4l8 190c0 2 0.666992 3.83301 2 5.5s3.33301 2.5 6 2.5h10v-198h286l8 190c0 2 0.666992 3.83301 2 5.5s3.33301 2.5 6 2.5h11v-198h319v-474h-27v454h-292v-354
c0 -15.333 2 -28.5 6 -39.5s9.33301 -20 16 -27s14.5 -12 23.5 -15s18.833 -4.5 29.5 -4.5c13.333 0 25 2 35 6s18.333 8.33301 25 13s12.167 9 16.5 13s7.5 6 9.5 6c1.33301 0 2.33301 -0.333008 3 -1l3 -3l6 -9c-10.667 -14 -25.334 -25.333 -44.001 -34s-38 -13 -58 -13
c-30.667 0 -54.667 8.33301 -72 25s-26 43.667 -26 81v356h-286v-354c0 -15.333 2 -28.5 6 -39.5s9.33301 -20 16 -27s14.667 -12 24 -15s19.333 -4.5 30 -4.5c13.333 0 24.833 2 34.5 6s18 8.33301 25 13s12.667 9 17 13s7.5 6 9.5 6c1.33301 0 3.33301 -1.33301 6 -4l6 -9
c-5.33301 -6.66699 -11.833 -12.834 -19.5 -18.501s-16 -10.667 -25 -15s-18.333 -7.66602 -28 -9.99902s-19.5 -3.5 -29.5 -3.5zM644.001 703l19 -0.000976562c1.33301 0 3 -0.5 5 -1.5s3.66699 -2.16699 5 -3.5l85 -92l4 -4l4 4l86 92
c2.66699 2.66699 6 4.33398 10 5.00098h18l-107 -118h-22z" />
    <glyph glyph-name="t_t_uni1E2D.liga" unicode="tt&#x1e2d;" horiz-adv-x="865" 
d="M212 -8c-30.667 0 -54.666 8.33301 -71.999 25s-26 43.667 -26 81v356h-77c-6 0 -9 2.66699 -9 8v8l86 4l8 190c0 2 0.666992 3.83301 2 5.5s3.33301 2.5 6 2.5h10v-198h286l8 190c0 2 0.666992 3.83301 2 5.5s3.33301 2.5 6 2.5h11v-198h319v-474h-27v454h-292v-354
c0 -15.333 2 -28.5 6 -39.5s9.33301 -20 16 -27s14.5 -12 23.5 -15s18.833 -4.5 29.5 -4.5c13.333 0 25 2 35 6s18.333 8.33301 25 13s12.167 9 16.5 13s7.5 6 9.5 6c1.33301 0 2.33301 -0.333008 3 -1l3 -3l6 -9c-10.667 -14 -25.334 -25.333 -44.001 -34s-38 -13 -58 -13
c-30.667 0 -54.667 8.33301 -72 25s-26 43.667 -26 81v356h-286v-354c0 -15.333 2 -28.5 6 -39.5s9.33301 -20 16 -27s14.667 -12 24 -15s19.333 -4.5 30 -4.5c13.333 0 24.833 2 34.5 6s18 8.33301 25 13s12.667 9 17 13s7.5 6 9.5 6c1.33301 0 3.33301 -1.33301 6 -4l6 -9
c-5.33301 -6.66699 -11.833 -12.834 -19.5 -18.501s-16 -10.667 -25 -15s-18.333 -7.66602 -28 -9.99902s-19.5 -3.5 -29.5 -3.5zM813.001 -115c16 0 27.832 5.16504 35.499 15.498s11.834 23.5 12.501 39.5h16c0 -10.667 -1.33301 -20.5 -4 -29.5s-6.5 -16.833 -11.5 -23.5
s-11.5 -11.834 -19.5 -15.501s-17.333 -5.5 -28 -5.5s-20.834 2.83301 -30.501 8.5s-18.834 12 -27.501 19s-17.5 13.333 -26.5 19s-18.167 8.5 -27.5 8.5c-14.667 0 -26.167 -5.16699 -34.5 -15.5s-12.5 -23.166 -12.5 -38.499h-18c0 10.667 1.33301 20.334 4 29.001
s6.83398 16.334 12.501 23.001s12.5 12 20.5 16c7.33301 4 16.333 6 27 6s21 -2.83301 31 -8.5s19.333 -12 28 -19s17.334 -13.5 26.001 -19.5s17.667 -9 27 -9zM794 677.998c0 -4 -1 -8 -3 -12s-4.5 -7.66699 -7.5 -11s-6.66699 -6 -11 -8s-8.5 -3 -12.5 -3
c-4.66699 0 -9.16699 1 -13.5 3s-8 4.66699 -11 8s-5.33301 7 -7 11s-2.5 8 -2.5 12c0 9.33301 3.33301 17.333 10 24s14.667 10 24 10c4 0 8.16699 -0.833008 12.5 -2.5s8 -4 11 -7s5.5 -6.66699 7.5 -11s3 -8.83301 3 -13.5z" />
    <glyph glyph-name="t_t_uni1E2F.liga" unicode="tt&#x1e2f;" horiz-adv-x="865" 
d="M212 -8c-30.667 0 -54.666 8.33301 -71.999 25s-26 43.667 -26 81v356h-77c-6 0 -9 2.66699 -9 8v8l86 4l8 190c0 2 0.666992 3.83301 2 5.5s3.33301 2.5 6 2.5h10v-198h286l8 190c0 2 0.666992 3.83301 2 5.5s3.33301 2.5 6 2.5h11v-198h319v-474h-27v454h-292v-354
c0 -15.333 2 -28.5 6 -39.5s9.33301 -20 16 -27s14.5 -12 23.5 -15s18.833 -4.5 29.5 -4.5c13.333 0 25 2 35 6s18.333 8.33301 25 13s12.167 9 16.5 13s7.5 6 9.5 6c1.33301 0 2.33301 -0.333008 3 -1l3 -3l6 -9c-10.667 -14 -25.334 -25.333 -44.001 -34s-38 -13 -58 -13
c-30.667 0 -54.667 8.33301 -72 25s-26 43.667 -26 81v356h-286v-354c0 -15.333 2 -28.5 6 -39.5s9.33301 -20 16 -27s14.667 -12 24 -15s19.333 -4.5 30 -4.5c13.333 0 24.833 2 34.5 6s18 8.33301 25 13s12.667 9 17 13s7.5 6 9.5 6c1.33301 0 3.33301 -1.33301 6 -4l6 -9
c-5.33301 -6.66699 -11.833 -12.834 -19.5 -18.501s-16 -10.667 -25 -15s-18.333 -7.66602 -28 -9.99902s-19.5 -3.5 -29.5 -3.5zM880.001 860l-104 -125c-2.66699 -4 -6.66699 -6 -12 -6h-16l80 118c3.33301 5.33301 6.5 8.83301 9.5 10.5s7.83301 2.5 14.5 2.5h28z
M709.001 641c0 -8.66699 -3.50098 -16.334 -10.501 -23.001s-14.5 -10 -22.5 -10c-9.33301 0 -17.333 3.33301 -24 10s-10 14.334 -10 23.001c0 9.33301 3.33301 17.166 10 23.499s14.667 9.5 24 9.5c8.66699 0 16.334 -3.16699 23.001 -9.5s10 -14.166 10 -23.499zM878 641
c0 -8.66699 -3.33398 -16.334 -10.001 -23.001s-14.667 -10 -24 -10s-17.166 3.33301 -23.499 10s-9.5 14.334 -9.5 23.001c0 9.33301 3.33301 17.166 10 23.499c6 6.33301 13.667 9.5 23 9.5c8.66699 0 16.5 -3.16699 23.5 -9.5s10.5 -14.166 10.5 -23.499z" />
    <glyph glyph-name="t_t_uni0268.liga" unicode="tt&#x268;" horiz-adv-x="884" 
d="M747 274l0.000976562 180h-292v-354c0 -15.333 2 -28.5 6 -39.5s9.33301 -20 16 -27s14.5 -12 23.5 -15s18.833 -4.5 29.5 -4.5c13.333 0 25 2 35 6s18.333 8.33301 25 13s12.167 9 16.5 13s7.5 6 9.5 6c1.33301 0 2.33301 -0.333008 3 -1l3 -3l6 -9
c-10.667 -14 -25.334 -25.333 -44.001 -34s-38 -13 -58 -13c-30.667 0 -54.667 8.33301 -72 25s-26 43.667 -26 81v356h-286v-354c0 -15.333 2 -28.5 6 -39.5s9.33301 -20 16 -27s14.667 -12 24 -15s19.333 -4.5 30 -4.5c13.333 0 24.833 2 34.5 6s18 8.33301 25 13
s12.667 9 17 13s7.5 6 9.5 6c1.33301 0 3.33301 -1.33301 6 -4l6 -9c-5.33301 -6.66699 -11.833 -12.834 -19.5 -18.501s-16 -10.667 -25 -15s-18.333 -7.66602 -28 -9.99902s-19.5 -3.5 -29.5 -3.5c-30.667 0 -54.667 8.33301 -72 25s-26 43.667 -26 81v356h-77
c-6 0 -9 2.66699 -9 8v8l86 4l8 190c0 2 0.666992 3.83301 2 5.5s3.33301 2.5 6 2.5h10v-198h286l8 190c0 2 0.666992 3.83301 2 5.5s3.33301 2.5 6 2.5h11v-198h319v-200h87v-20h-87v-254h-27v254h-91v20h91zM796.001 678c0 -4 -1.00098 -8 -3.00098 -12
s-4.66699 -7.66699 -8 -11s-7 -6 -11 -8s-8 -3 -12 -3c-4.66699 0 -9.16699 1 -13.5 3s-8.16602 4.66699 -11.499 8s-5.83301 7 -7.5 11s-2.5 8 -2.5 12c0 9.33301 3.5 17.333 10.5 24s15.167 10 24.5 10c4 0 8 -0.833008 12 -2.5s7.66699 -4 11 -7s6 -6.66699 8 -11
s3 -8.83301 3 -13.5z" />
    <glyph glyph-name="t_t_uni020B.liga" unicode="tt&#x20b;" horiz-adv-x="867" 
d="M214 -8c-30.667 0 -54.666 8.33301 -71.999 25s-26 43.667 -26 81v356h-77c-6 0 -9 2.66699 -9 8v8l86 4l8 190c0 2 0.666992 3.83301 2 5.5s3.33301 2.5 6 2.5h10v-198h286l8 190c0 2 0.666992 3.83301 2 5.5s3.33301 2.5 6 2.5h11v-198h319v-474h-27v454h-292v-354
c0 -15.333 2 -28.5 6 -39.5s9.33301 -20 16 -27s14.5 -12 23.5 -15s18.833 -4.5 29.5 -4.5c13.333 0 25 2 35 6s18.333 8.33301 25 13s12.167 9 16.5 13s7.5 6 9.5 6c1.33301 0 2.33301 -0.333008 3 -1l3 -3l6 -9c-10.667 -14 -25.334 -25.333 -44.001 -34s-38 -13 -58 -13
c-30.667 0 -54.667 8.33301 -72 25s-26 43.667 -26 81v356h-286v-354c0 -15.333 2 -28.5 6 -39.5s9.33301 -20 16 -27s14.667 -12 24 -15s19.333 -4.5 30 -4.5c13.333 0 24.833 2 34.5 6s18 8.33301 25 13s12.667 9 17 13s7.5 6 9.5 6c1.33301 0 3.33301 -1.33301 6 -4l6 -9
c-5.33301 -6.66699 -11.833 -12.834 -19.5 -18.501s-16 -10.667 -25 -15s-18.333 -7.66602 -28 -9.99902s-19.5 -3.5 -29.5 -3.5zM762.001 710c20 0 36.9961 -3 50.9961 -9s25.5 -14.333 34.5 -25s15.5 -23.167 19.5 -37.5s6 -29.5 6 -45.5h-20
c0 13.333 -1.5 25.833 -4.5 37.5s-8.16699 22.167 -15.5 31.5s-16.666 16.666 -27.999 21.999s-25.666 8 -42.999 8s-31.666 -2.66699 -42.999 -8s-20.666 -12.666 -27.999 -21.999s-12.5 -20 -15.5 -32s-4.5 -24.333 -4.5 -37h-20c0 16 2 31.167 6 45.5
s10.5 26.833 19.5 37.5s20.5 19 34.5 25s31 9 51 9z" />
    <glyph glyph-name="t_t_uni0209.liga" unicode="tt&#x209;" horiz-adv-x="867" 
d="M214 -8c-30.667 0 -54.666 8.33301 -71.999 25s-26 43.667 -26 81v356h-77c-6 0 -9 2.66699 -9 8v8l86 4l8 190c0 2 0.666992 3.83301 2 5.5s3.33301 2.5 6 2.5h10v-198h286l8 190c0 2 0.666992 3.83301 2 5.5s3.33301 2.5 6 2.5h11v-198h319v-474h-27v454h-292v-354
c0 -15.333 2 -28.5 6 -39.5s9.33301 -20 16 -27s14.5 -12 23.5 -15s18.833 -4.5 29.5 -4.5c13.333 0 25 2 35 6s18.333 8.33301 25 13s12.167 9 16.5 13s7.5 6 9.5 6c1.33301 0 2.33301 -0.333008 3 -1l3 -3l6 -9c-10.667 -14 -25.334 -25.333 -44.001 -34s-38 -13 -58 -13
c-30.667 0 -54.667 8.33301 -72 25s-26 43.667 -26 81v356h-286v-354c0 -15.333 2 -28.5 6 -39.5s9.33301 -20 16 -27s14.667 -12 24 -15s19.333 -4.5 30 -4.5c13.333 0 24.833 2 34.5 6s18 8.33301 25 13s12.667 9 17 13s7.5 6 9.5 6c1.33301 0 3.33301 -1.33301 6 -4l6 -9
c-5.33301 -6.66699 -11.833 -12.834 -19.5 -18.501s-16 -10.667 -25 -15s-18.333 -7.66602 -28 -9.99902s-19.5 -3.5 -29.5 -3.5zM738.001 711c6.66699 0 11.668 -0.833008 15.001 -2.5s6.66602 -5.16699 9.99902 -10.5l79 -118h-12c-5.33301 0 -9.33301 2 -12 6l-100 125
h20zM616.002 711c6.66699 0 11.5 -0.833008 14.5 -2.5c2.33301 -1.66699 5.5 -5.16699 9.5 -10.5l92 -118h-14c-5.33301 0 -9.33301 2 -12 6l-112 125h22z" />
    <glyph glyph-name=".notdef" horiz-adv-x="503" 
d="M134 565c6.66699 6.66699 13.8311 12.832 21.498 18.499s16.334 10.834 26.001 15.501s20 8.33398 31 11.001s23.167 4 36.5 4c16 0 31.5 -2.33301 46.5 -7s27.833 -11.667 38.5 -21s19.334 -20.666 26.001 -33.999s10 -28 10 -44c0 -18.667 -2.83301 -34.5 -8.5 -47.5
s-12.834 -24.5 -21.501 -34.5s-18.167 -18.833 -28.5 -26.5s-19.833 -14.834 -28.5 -21.501s-16 -13.334 -22 -20.001s-9 -14.334 -9 -23.001l-4 -60h-18l-1 62c0 9.33301 2.83301 17.833 8.5 25.5s12.834 15 21.501 22s18 14.167 28 21.5s19.333 15.666 28 24.999
s16 20.166 22 32.499s9 26.5 9 42.5c0 13.333 -2.83301 25.5 -8.5 36.5s-13 20.333 -22 28s-19.5 13.334 -31.5 17.001s-24 5.5 -36 5.5c-16 0 -30 -2.16699 -42 -6.5s-22 -9.16602 -30 -14.499s-14.333 -10.166 -19 -14.499s-7.66699 -6.5 -9 -6.5c-2.66699 0 -5 1 -7 3z
M207.997 124.998c0 8.66699 2.99902 16 8.99902 22s13 9 21 9c8.66699 0 15.834 -3 21.501 -9s8.5 -13.333 8.5 -22c0 -8 -2.66699 -15 -8 -21s-12.666 -9 -21.999 -9c-8.66699 0 -15.834 3 -21.501 9s-8.5 13 -8.5 21zM23.9961 702.998h454v-703h-454v703zM37.9961 12.998
h427v677h-427v-677z" />
    <glyph glyph-name="glyph1" horiz-adv-x="0" 
 />
    <glyph glyph-name="glyph1" horiz-adv-x="0" 
 />
    <glyph glyph-name="uni000D" unicode="&#xd;" horiz-adv-x="0" 
 />
    <glyph glyph-name="space" unicode=" " horiz-adv-x="279" 
 />
    <glyph glyph-name="space" unicode="&#xa0;" horiz-adv-x="279" 
 />
    <glyph glyph-name="exclam" unicode="!" horiz-adv-x="247" 
d="M138 703v-286c0 -14.667 -0.166992 -28.5 -0.5 -41.5s-0.666016 -26.333 -0.999023 -40s-0.833008 -28.167 -1.5 -43.5s-1.33398 -32.666 -2.00098 -51.999h-18c-0.666992 19.333 -1.33398 36.666 -2.00098 51.999s-1.16699 29.833 -1.5 43.5s-0.666016 27 -0.999023 40
s-0.5 26.833 -0.5 41.5v286h28zM84 30c0 10.667 3.66699 19.667 11 27s16.333 11 27 11s19.667 -3.66699 27 -11s11 -16.333 11 -27s-3.66699 -19.667 -11 -27s-16.333 -11 -27 -11s-19.667 3.66699 -27 11s-11 16.333 -11 27z" />
    <glyph glyph-name="quotedbl" unicode="&#x22;" horiz-adv-x="325" 
d="M107 703l-0.000976562 -147l-3 -76c0 -6.66699 -2.66699 -10 -8 -10s-8.66602 3.33301 -9.99902 10l-2 76v147h23zM240.999 703l-0.000976562 -147l-3 -76c0 -6.66699 -2.66699 -10 -8 -10s-8.66602 3.33301 -9.99902 10l-2 76v147h23z" />
    <glyph glyph-name="numbersign" unicode="#" horiz-adv-x="580" 
d="M366 226l-50 -226.001h-10c-4 0 -7 1 -9 3s-2.33301 5.66699 -1 11l47 212h-162l-47 -213c-1.33301 -4.66699 -3 -8 -5 -10s-5 -3 -9 -3h-11l49 226h-100c-3.33301 0 -6.16602 1 -8.49902 3s-2.83301 5 -1.5 9v8h114l45 211h-133l2 9c0 6.66699 4 10 12 10h122l46 214
c1.33301 8 6.66602 12.333 15.999 13h10l-50 -227h162l50 227h12c4 0 6.66699 -1.16699 8 -3.5s1.33301 -6.16602 0 -11.499l-47 -212h115l-1 -9c-0.666992 -6.66699 -5 -10 -13 -10h-104l-46 -211h125c8 0 11.333 -4 10 -12l-1 -8h-136zM184 245.999h162l46 211h-162z" />
    <glyph glyph-name="dollar" unicode="$" horiz-adv-x="580" 
d="M271 -8c-22.667 0 -43.1631 2.33008 -61.4961 6.99707s-35.333 11 -51 19s-30.167 17.333 -43.5 28s-26 23.334 -38 38.001l7 8l4 4c1.33301 1.33301 3 2 5 2c2.66699 0 6 -2 10 -6s9.16699 -9 15.5 -15s14.166 -12.667 23.499 -20s20.166 -14 32.499 -20
s26.5 -11.333 42.5 -16s34.333 -7 55 -7l14 346c-22.667 6.66699 -44.334 14.334 -65.001 23.001s-39.334 19.334 -56.001 32.001s-30 28.667 -40 48s-15 43.333 -15 72c0 22.667 4.33301 44.334 13 65.001s21 39 37 55s35.667 28.833 59 38.5s50.333 15.167 81 16.5l4 90
c0 7.33301 3.33301 11 10 11h10l-4 -101c33.333 -1.33301 62.333 -7.83301 87 -19.5s48.334 -28.834 71.001 -51.501l-6 -9c-2 -2.66699 -4.66699 -4 -8 -4c-4 0 -9 3 -15 9s-14.667 12.667 -26 20s-25.333 14.333 -42 21s-37.667 10.667 -63 12l-12 -309
c24 -8 47.5 -16.167 70.5 -24.5s43.667 -18.833 62 -31.5s33.166 -28.834 44.499 -48.501s17 -44.167 17 -73.5c0 -28 -4.66699 -54.5 -14 -79.5s-23 -46.833 -41 -65.5s-40 -33.667 -66 -45s-55.667 -17.666 -89 -18.999l-4 -114c0 -8 -3.33301 -12 -10 -12h-10z
M475.004 195.997c0 25.333 -4.83301 46.668 -14.5 64.001s-22.334 31.666 -38.001 42.999s-33.667 21 -54 29s-41.5 15.333 -63.5 22l-14 -340c29.333 1.33301 55.333 7 78 17s41.834 23.333 57.501 40s27.667 35.667 36 57s12.5 44 12.5 68zM135.004 535.999
c0 -23.333 4.16797 -43 12.501 -59s19.5 -29.833 33.5 -41.5s30.333 -21.334 49 -29.001s38 -14.834 58 -21.501l12 303c-26.667 -1.33301 -50.334 -6.33301 -71.001 -15s-38 -19.667 -52 -33s-24.5 -29.166 -31.5 -47.499s-10.5 -37.166 -10.5 -56.499z" />
    <glyph glyph-name="percent" unicode="%" horiz-adv-x="768" 
d="M340 534c0 -29.333 -3.83301 -55 -11.5 -77s-18 -40.333 -31 -55s-28.167 -25.667 -45.5 -33s-35.666 -11 -54.999 -11c-20 0 -38.667 3.66699 -56 11s-32.5 18.333 -45.5 33s-23.167 33 -30.5 55s-11 47.667 -11 77c0 30 3.66699 56.167 11 78.5s17.5 40.833 30.5 55.5
s28.167 25.5 45.5 32.5s36 10.5 56 10.5s38.5 -3.5 55.5 -10.5s32.167 -17.833 45.5 -32.5s23.666 -33.167 30.999 -55.5s11 -48.5 11 -78.5zM318 534c0 28 -3.16602 52 -9.49902 72s-15 36.333 -26 49s-23.833 22 -38.5 28s-30.334 9 -47.001 9s-32.334 -3 -47.001 -9
s-27.667 -15.333 -39 -28s-20.166 -29 -26.499 -49s-9.5 -44 -9.5 -72s3.16699 -51.833 9.5 -71.5s15.166 -35.834 26.499 -48.501s24.333 -22 39 -28s30.334 -9 47.001 -9c16 0 31.5 3 46.5 9s28 15.333 39 28s19.667 28.834 26 48.501s9.5 43.5 9.5 71.5zM617.001 697
c1.33301 2 2.83301 3.5 4.5 4.5s4.16699 1.5 7.5 1.5h17l-499 -697c-2 -4 -5.66699 -6 -11 -6h-18zM715.001 168c0 -29.333 -3.83398 -55.168 -11.501 -77.501s-18.167 -40.666 -31.5 -54.999s-28.666 -25.166 -45.999 -32.499s-35.333 -11 -54 -11
c-20 0 -38.667 3.66699 -56 11s-32.666 18.166 -45.999 32.499s-23.666 32.5 -30.999 54.5c-7.33301 22.667 -11 48.667 -11 78c0 30 3.66699 56 11 78s17.666 40.167 30.999 54.5s28.666 25.166 45.999 32.499s36 11 56 11s38.5 -3.66699 55.5 -11s32 -18.166 45 -32.499
s23.333 -32.5 31 -54.5s11.5 -48 11.5 -78zM694 167.998c0 28 -3.33496 51.833 -10.002 71.5s-15.5 36 -26.5 49s-24 22.5 -39 28.5s-30.5 9 -46.5 9c-16.667 0 -32.5 -3 -47.5 -9s-27.833 -15.5 -38.5 -28.5s-19.334 -29.5 -26.001 -49.5c-6.66699 -19.333 -10 -43 -10 -71
s3.33301 -52 10 -72s15.334 -36.333 26.001 -49s23.334 -22 38.001 -28s30.667 -9 48 -9c16.667 0 32.334 3 47.001 9s27.5 15.333 38.5 28s19.833 29 26.5 49s10 44 10 72z" />
    <glyph glyph-name="ampersand" unicode="&#x26;" horiz-adv-x="691" 
d="M328 711c20.667 0 40.5029 -3.66504 59.5029 -10.998s35.833 -17.166 50.5 -29.499s26.334 -26.833 35.001 -43.5s13 -34 13 -52l-12 -2c-2.66699 0 -5 0.666992 -7 2c-2 0.666992 -3.66699 3 -5 7c-1.33301 9.33301 -4.83301 20.166 -10.5 32.499s-14 24 -25 35
s-24.5 20.5 -40.5 28.5s-35.333 12 -58 12c-21.333 0 -41 -3.33301 -59 -10s-33.333 -16 -46 -28s-22.667 -26.333 -30 -43s-11 -35 -11 -55c0 -29.333 7.66699 -57.666 23 -84.999s39 -56 71 -86l232 -225c16 25.333 28.667 51.166 38 77.499
c9.33301 27 15.333 52.5 18 76.5c0.666992 3.33301 1.66699 5.83301 3 7.5s3.66602 2.5 6.99902 2.5h14c-0.666992 -27.333 -6.5 -56.666 -17.5 -87.999c-11 -32 -26.5 -62.667 -46.5 -92l148 -142h-23c-4 0 -7.5 0.333008 -10.5 1s-6.16699 3 -9.5 7l-119 115
c-14.667 -18.667 -30.834 -35.834 -48.501 -51.501s-37.167 -29.5 -58.5 -41.5s-44.166 -21.333 -68.499 -28s-50.5 -10 -78.5 -10c-24 0 -47.833 4 -71.5 12s-44.834 19.667 -63.501 35s-33.834 34.5 -45.501 57.5c-11.667 23.667 -17.5 50.167 -17.5 79.5
c0 24.667 4.66699 48.167 14 70.5s22 42.666 38 60.999s34.667 34.666 56 48.999s44.666 25.5 69.999 33.5c-26.667 28 -46.5 54.667 -59.5 80s-19.5 53.333 -19.5 84c0 22.667 4.16699 43.667 12.5 63s20 36 35 50s33 24.833 54 32.5s44.167 11.5 69.5 11.5z
M259.003 14.002c26.667 0 51.499 3.00195 74.499 9.00195s44.167 14.667 63.5 26s37.166 24.666 53.499 39.999c15.667 15.333 30.167 31.666 43.5 48.999l-235 228c-1.33301 1.33301 -2.83301 3 -4.5 5s-3.5 3.66699 -5.5 5c-24 -8.66699 -46.167 -19.834 -66.5 -33.501
s-37.666 -29.167 -51.999 -46.5s-25.5 -36 -33.5 -56s-12 -41 -12 -63c0 -28 5.5 -52.167 16.5 -72.5s24.833 -37.166 41.5 -50.499s35.334 -23.333 56.001 -30s40.667 -10 60 -10z" />
    <glyph glyph-name="quotesingle" unicode="'" horiz-adv-x="191" 
d="M107 703l-0.000976562 -147l-3 -76c0 -6.66699 -2.66699 -10 -8 -10s-8.66602 3.33301 -9.99902 10l-2 76v147h23z" />
    <glyph glyph-name="parenleft" unicode="(" horiz-adv-x="253" 
d="M84 316c0 -76.667 10.5 -149.671 31.5 -219.004c21 -68.667 52.833 -135.667 95.5 -201c2.66699 -4 3.5 -7 2.5 -9s-2.16699 -3.66699 -3.5 -5l-12 -7c-26 39.333 -47.667 77.333 -65 114s-31.5 72.834 -42.5 108.501s-18.833 71.334 -23.5 107.001s-7 72.834 -7 111.501
c0 38 2.33301 74.833 7 110.5s12.5 71.5 23.5 107.5s25.333 72.167 43 108.5c17.667 35.667 39.167 73.5 64.5 113.5l12 -6c1.33301 -1.33301 2.33301 -3 3 -5s0 -5 -2 -9c-42.667 -65.333 -74.5 -132.666 -95.5 -201.999s-31.5 -142 -31.5 -218z" />
    <glyph glyph-name="parenright" unicode=")" horiz-adv-x="253" 
d="M170 316c0 76 -10.667 148.669 -32 218.002s-53.333 136.666 -96 201.999c-2.66699 4 -3.5 7 -2.5 9c1.66699 2 3.16699 3.66699 4.5 5l11 6c26 -40 47.667 -78 65 -114s31.5 -72 42.5 -108s18.833 -72 23.5 -108s7 -72.667 7 -110c0 -38 -2.33301 -75 -7 -111
s-12.5 -71.833 -23.5 -107.5s-25.167 -71.834 -42.5 -108.501s-39 -74.667 -65 -114l-11 7c-1.33301 1.33301 -2.5 3 -3.5 5c-1.66699 2 -1.16699 5 1.5 9c42.667 65.333 74.667 132.5 96 201.5s32 141.833 32 218.5z" />
    <glyph glyph-name="asterisk" unicode="*" horiz-adv-x="425" 
d="M204 457l-0.000976562 111.002c0 4.66699 0.333008 8.66699 1 12c0.666992 4 1.66699 8.66699 3 14c-4 -4.66699 -7.33301 -8.16699 -10 -10.5s-6 -4.5 -10 -6.5l-98 -57l-8 14l98 58c4 2.66699 7.66699 4.16699 11 4.5c3.33301 1 8 2.16699 14 3.5v0
c-6 1.33301 -10.667 2.5 -14 3.5s-7 2.83301 -11 5.5l-98 57l8 14l98 -56c4 -2.66699 7.33301 -5.33398 10 -8.00098s6.33398 -6 11.001 -10c-2 6 -3.33301 10.667 -4 14s-1 7.33301 -1 12v111h16v-111c0 -4.66699 -0.333008 -8.83398 -1 -12.501s-1.66699 -8.5 -3 -14.5
c4 5.33301 7.33301 9.16602 10 11.499s6 4.83301 10 7.5l98 56l8 -14l-98 -57c-4 -2.66699 -7.66699 -4.66699 -11 -6c-3.33301 -0.666992 -8 -1.66699 -14 -3c6.66699 -1.33301 11.5 -2.5 14.5 -3.5c3 -0.333008 6.5 -1.83301 10.5 -4.5l100 -58l-8 -14l-100 57
c-4 2.66699 -7.33301 4.83398 -10 6.50098s-6 5.16699 -10 10.5l3 -13.5c0.666992 -3 1 -7.16699 1 -12.5v-111h-16z" />
    <glyph glyph-name="plus" unicode="+" horiz-adv-x="580" 
d="M300 576v-230h222v-21h-222v-233h-21v233h-221v21h221v230h21z" />
    <glyph glyph-name="comma" unicode="," horiz-adv-x="215" 
d="M73 32c0 9.33301 3.16699 17.668 9.5 25.001s14.833 11 25.5 11s19.5 -4 26.5 -12s10.5 -18.667 10.5 -32c0 -26.667 -6 -52.834 -18 -78.501c-11.333 -25.667 -27 -48.167 -47 -67.5l-4 4c-1.33301 1.33301 -2.33301 3.33301 -3 6
c0.666992 1.33301 1.66699 2.66602 3 3.99902c2.66699 3.33301 6.66699 8.5 12 15.5s10.666 15.167 15.999 24.5s10.333 20 15 32s7 24.667 7 38c-5.33301 -4 -12 -6 -20 -6c-9.33301 0 -17.166 3.33301 -23.499 10s-9.5 15.334 -9.5 26.001z" />
    <glyph glyph-name="hyphen" unicode="-" horiz-adv-x="369" 
d="M72 306h225v-22h-225v22z" />
    <glyph glyph-name="hyphen" unicode="&#x2010;" horiz-adv-x="369" 
d="M72 306h225v-22h-225v22z" />
    <glyph glyph-name="hyphen" unicode="&#xad;" horiz-adv-x="369" 
d="M72 306h225v-22h-225v22z" />
    <glyph glyph-name="period" unicode="." horiz-adv-x="232" 
d="M78 30c0 10.667 3.66699 19.667 11 27s16.333 11 27 11s19.667 -3.66699 27 -11s11 -16.333 11 -27s-3.66699 -19.667 -11 -27s-16.333 -11 -27 -11s-19.667 3.66699 -27 11s-11 16.333 -11 27z" />
    <glyph glyph-name="slash" unicode="/" horiz-adv-x="426" 
d="M69 -29c-1.33301 -4 -3.83301 -6.83301 -7.5 -8.5s-7.16699 -2.5 -10.5 -2.5h-10l316 752c4 7.33301 9.66699 11 17 11h11z" />
    <glyph glyph-name="zero" unicode="0" horiz-adv-x="580" 
d="M540 352c0 -61.333 -6.66699 -114.668 -20 -160.001s-31.333 -82.666 -54 -111.999s-49 -51.166 -79 -65.499s-62.333 -21.5 -97 -21.5s-67 7.16699 -97 21.5s-56.333 36.166 -79 65.499s-40.667 66.5 -54 111.5c-13.333 45.667 -20 99.167 -20 160.5
s6.66699 114.5 20 159.5s31.333 82.333 54 112s49 51.667 79 66s62.333 21.5 97 21.5s67 -7.16699 97 -21.5s56.333 -36.333 79 -66s40.667 -67 54 -112s20 -98.167 20 -159.5zM512 351.998c0 58.667 -5.83301 109.334 -17.5 152.001s-27.667 77.667 -48 105
s-44 47.5 -71 60.5s-55.5 19.5 -85.5 19.5c-30.667 0 -59.334 -6.5 -86.001 -19.5s-50.334 -33.167 -71.001 -60.5s-37 -62.333 -49 -105s-18 -93.334 -18 -152.001s6 -109.334 18 -152.001s28.333 -77.667 49 -105s44.334 -47.5 71.001 -60.5s55.334 -19.5 86.001 -19.5
c30 0 58.5 6.5 85.5 19.5s50.667 33.167 71 60.5s36.333 62.333 48 105s17.5 93.334 17.5 152.001z" />
    <glyph glyph-name="one" unicode="1" horiz-adv-x="580" 
d="M138 20l168 0.000976562v620c0 10 0.333008 20.333 1 31l-171 -154c-2.66699 -2.66699 -5.5 -3.83398 -8.5 -3.50098s-5.5 1.83301 -7.5 4.5l-8 10l200 178h20v-686h161v-20h-355v20z" />
    <glyph glyph-name="two" unicode="2" horiz-adv-x="580" 
d="M294 711c25.333 0 49.668 -3.66602 73.001 -10.999s44.333 -18.5 63 -33.5s33.334 -34.333 44.001 -58s16 -51.5 16 -83.5c0 -26.667 -4 -51.5 -12 -74.5s-19.167 -45 -33.5 -66s-30.833 -41.5 -49.5 -61.5s-38.334 -40.333 -59.001 -61l-237 -242
c8.66699 1.33301 18 2.33301 28 3s21 1 33 1h339c6 0 9 -3 9 -9v-15h-444v10c0 2.66699 0.5 5 1.5 7c1.66699 2 3.16699 3.66699 4.5 5l248 252c20 20.667 38.833 40.834 56.5 60.501s33.167 39.5 46.5 59.5s23.833 40.667 31.5 62s11.5 44 11.5 68
c0 28.667 -4.83301 53.5 -14.5 74.5s-22.5 38.167 -38.5 51.5s-34.167 23.166 -54.5 29.499s-41.833 9.5 -64.5 9.5c-24.667 0 -47.167 -3.83301 -67.5 -11.5s-38.5 -18.167 -54.5 -31.5s-29 -29.333 -39 -48s-17 -39.334 -21 -62.001
c-2.66699 -8.66699 -7.66699 -12.667 -15 -12l-13 2c4 29.333 12 55.333 24 78s27.167 42 45.5 58s39.666 28.167 63.999 36.5s50.5 12.5 78.5 12.5z" />
    <glyph glyph-name="three" unicode="3" horiz-adv-x="580" 
d="M296 711c25.333 0 49.667 -3.50195 73 -10.502s43.833 -17.833 61.5 -32.5s31.834 -33 42.501 -55s16 -48.333 16 -79c0 -23.333 -4 -44.5 -12 -63.5s-18.833 -35.5 -32.5 -49.5s-29.5 -26 -47.5 -36s-37 -17 -57 -21c27.333 -4 51.5 -11 72.5 -21s38.5 -22.5 52.5 -37.5
s24.667 -32.333 32 -52s11 -41.167 11 -64.5c0 -26.667 -5.66699 -52.167 -17 -76.5s-26.666 -45.333 -45.999 -63s-42.666 -31.667 -69.999 -42s-57 -15.5 -89 -15.5c-28 0 -52.333 2.66699 -73 8s-38.834 12.5 -54.501 21.5s-29 19.5 -40 31.5s-20.167 24.5 -27.5 37.5
s-13.333 26.5 -18 40.5s-8.33398 27 -11.001 39l8 4c2.66699 1.33301 6 1.66602 10 0.999023s7 -3.66699 9 -9c1.33301 -2.66699 3.16602 -8.33398 5.49902 -17.001s6.16602 -18.667 11.499 -30s12.333 -23.166 21 -35.499s20.334 -23.666 35.001 -33.999
s32 -18.833 52 -25.5s44 -10 72 -10c32.667 0 61.167 5.33301 85.5 16s44.833 24.667 61.5 42s29 36.333 37 57s12 40.334 12 59.001c0 22.667 -4 44 -12 64s-20.5 37.333 -37.5 52s-39 26.334 -66 35.001s-60.167 13 -99.5 13v18c30.667 1.33301 58.167 6 82.5 14
s44.833 19 61.5 33s29.5 30.667 38.5 50s13.5 41 13.5 65c0 27.333 -4.66699 50.833 -14 70.5s-21.833 35.834 -37.5 48.501s-33.5 22.167 -53.5 28.5s-41 9.5 -63 9.5c-24.667 0 -47.334 -3.83301 -68.001 -11.5s-39 -18.167 -55 -31.5s-29 -29.333 -39 -48
s-17 -39.334 -21 -62.001c-1.33301 -4.66699 -3 -8 -5 -10s-5 -2.66699 -9 -2l-13 2c4 29.333 11.833 55.333 23.5 78s26.834 42 45.501 58s40 28.167 64 36.5s50 12.5 78 12.5z" />
    <glyph glyph-name="four" unicode="4" horiz-adv-x="580" 
d="M406 232l140 -0.000976562v-12c0 -5.33301 -3.33301 -8.33301 -10 -9h-130v-211h-24v211h-342c-4 0 -7 0.666992 -9 2c-2 0.666992 -3 2.33398 -3 5.00098l-3 12l359 474h22v-472zM382 641.999c0 8 0.666992 16.667 2 26l-330 -436h328v410z" />
    <glyph glyph-name="five" unicode="5" horiz-adv-x="580" 
d="M476 692c0 -4 -1.33105 -7.16602 -3.99805 -9.49902s-6.66699 -3.5 -12 -3.5h-272l-47 -261c24 6.66699 46.833 11.334 68.5 14.001s41.834 4 60.501 4c36 0 68 -5.33301 96 -16s51.333 -25.167 70 -43.5s32.667 -40.333 42 -66s14 -53.834 14 -84.501
c0 -37.333 -6.33301 -70.333 -19 -99s-29.834 -53 -51.501 -73s-46.834 -35.333 -75.501 -46s-59 -16 -91 -16c-18.667 0 -36.5 1.66699 -53.5 5s-33 7.66602 -48 12.999s-28.667 11.333 -41 18s-23.166 13.334 -32.499 20.001l7 10c2 4 5 6 9 6
c3.33301 0 9.16602 -2.66699 17.499 -8s19 -10.833 32 -16.5s28.667 -11 47 -16s39.5 -7.5 63.5 -7.5c29.333 0 56.666 4.66699 81.999 14s47.333 22.833 66 40.5s33.667 39.667 45 66s17 56.166 17 89.499c0 27.333 -4 52.5 -12 75.5s-20.167 42.833 -36.5 59.5
s-37 29.667 -62 39s-54.5 14 -88.5 14c-38.667 0 -83.667 -6.66699 -135 -20l-18 6l54 303h308v-11z" />
    <glyph glyph-name="six" unicode="6" horiz-adv-x="580" 
d="M192 424c-14 -18.667 -26.167 -35.9971 -36.5 -51.9971s-19.5 -31.667 -27.5 -47c20 28 45.667 49.833 77 65.5s65.666 23.5 102.999 23.5c31.333 0 59.833 -5 85.5 -15s47.667 -24.167 66 -42.5s32.5 -40.333 42.5 -66s15 -53.834 15 -84.501c0 -32 -5.5 -61 -16.5 -87
s-26.667 -48.333 -47 -67s-44.333 -33.334 -72 -44.001s-58.167 -16 -91.5 -16c-32 0 -61 5 -87 15s-48.5 24.667 -67.5 44s-33.667 43.166 -44 71.499s-15.5 60.5 -15.5 96.5c0 26 7 56.333 21 91s37 74 69 118l200 268c2.66699 4 7.33398 6.33301 14.001 7h22z
M101 210.003c0 -28 4.49902 -53.999 13.499 -77.999s21.667 -44.667 38 -62s36 -31 59 -41s49.167 -15 78.5 -15c31.333 0 59.333 4.66699 84 14s45.667 22.666 63 39.999s30.5 37.666 39.5 60.999s13.5 48.666 13.5 75.999c0 29.333 -4.5 55.5 -13.5 78.5
s-21.667 42.833 -38 59.5s-36 29.334 -59 38.001c-22.333 8.66699 -47.5 13 -75.5 13c-32 0 -60.667 -5.66699 -86 -17s-46.666 -25.666 -63.999 -42.999s-30.5 -37 -39.5 -59s-13.5 -43.667 -13.5 -65z" />
    <glyph glyph-name="seven" unicode="7" horiz-adv-x="580" 
d="M530 703v-12c0 -2.66699 -0.333008 -5.33398 -1 -8.00098c-0.666992 -3.33301 -1.66699 -5.66602 -3 -6.99902l-338 -666c-2.66699 -6.66699 -8.66699 -10 -18 -10h-17l340 665c1.33301 2.66699 2.83301 5.16699 4.5 7.5s3.16699 4.5 4.5 6.5h-426c-5.33301 0 -8 3 -8 9
v15h462z" />
    <glyph glyph-name="eight" unicode="8" horiz-adv-x="580" 
d="M290 -8c-33.333 0 -63.6719 4.33594 -91.0049 13.0029s-50.833 21.334 -70.5 38.001s-35 36.667 -46 60s-16.5 49.666 -16.5 78.999c0 28 4.33301 52.667 13 74s20.334 39.333 35.001 54s32 26.667 52 36s41.333 16.333 64 21c-22 5.33301 -41.5 13.166 -58.5 23.499
s-31.5 22.833 -43.5 37.5s-21 31 -27 49s-9 37 -9 57c0 24 4.5 47 13.5 69s22 41 39 57s37.833 28.5 62.5 37.5s52.334 13.5 83.001 13.5s58.334 -4.5 83.001 -13.5s45.5 -21.5 62.5 -37.5s30 -34.833 39 -56.5c9 -22.333 13.5 -45.5 13.5 -69.5
c0 -20.667 -3 -39.834 -9 -57.501s-15 -33.834 -27 -48.501s-26.5 -27.167 -43.5 -37.5s-36.5 -18.166 -58.5 -23.499c22.667 -4 44 -10.833 64 -20.5s37.333 -21.834 52 -36.501s26.334 -32.667 35.001 -54s13 -46 13 -74c0 -29.333 -5.5 -55.666 -16.5 -78.999
s-26.333 -43.333 -46 -60s-43.167 -29.334 -70.5 -38.001s-57.666 -13 -90.999 -13zM289.994 13.0029c29.333 0 55.9961 4 79.9961 12s44.667 19.333 62 34s30.833 32.5 40.5 53.5s14.5 44.167 14.5 69.5c0 22.667 -3 42.834 -9 60.501s-14.167 33 -24.5 46
s-22.166 23.833 -35.499 32.5s-27.166 15.5 -41.499 20.5s-29 8.66699 -44 11s-29.167 3.5 -42.5 3.5s-27.5 -1.16699 -42.5 -3.5s-29.667 -6 -44 -11s-28.166 -11.833 -41.499 -20.5s-25.166 -19.5 -35.499 -32.5s-18.5 -28.333 -24.5 -46s-9 -37.834 -9 -60.501
c0 -25.333 4.83301 -48.5 14.5 -69.5s23.167 -38.833 40.5 -53.5s38 -26 62 -34s50.667 -12 80 -12zM289.99 377.003c29.333 0 54.666 4.33301 75.999 13s39.333 20.167 54 34.5s25.334 31.166 32.001 50.499s10 39 10 59c0 22.667 -3.83301 43.334 -11.5 62.001
s-19 35 -34 49s-33.167 25 -54.5 33s-45.333 12 -72 12s-50.667 -4 -72 -12s-39.5 -19 -54.5 -33s-26.333 -30.333 -34 -49s-11.5 -39.334 -11.5 -62.001c0 -20 3.33301 -39.667 10 -59s17.334 -36.166 32.001 -50.499s32.667 -25.833 54 -34.5s46.666 -13 75.999 -13z" />
    <glyph glyph-name="nine" unicode="9" horiz-adv-x="580" 
d="M386 296c12.667 18.667 24.335 35.6699 35.002 51.0029c10 15.333 19 30.333 27 45c-9.33301 -13.333 -20.333 -25.5 -33 -36.5s-26.667 -20.333 -42 -28s-31.333 -13.5 -48 -17.5s-33.667 -6 -51 -6c-30 0 -57.5 5 -82.5 15s-46.167 23.833 -63.5 41.5
s-31 38.667 -41 63s-15 51.5 -15 81.5c0 29.333 5.66699 56.666 17 81.999s26.666 47.166 45.999 65.499s42.333 32.666 69 42.999s56 15.5 88 15.5c29.333 0 56.666 -5.16699 81.999 -15.5s47 -25 65 -44s32.333 -41.833 43 -68.5s16 -56.334 16 -89.001
c0 -17.333 -2 -33.833 -6 -49.5s-9.83301 -31.667 -17.5 -48s-17 -33.166 -28 -50.499s-23.167 -36 -36.5 -56l-192 -284c-2.66699 -4 -7 -6 -13 -6h-23zM472.001 502.003c0 27.333 -4.50195 52.501 -13.502 75.501s-21.667 42.667 -38 59s-35.5 29.166 -57.5 38.499
s-45.667 14 -71 14c-28 0 -54 -4.5 -78 -13.5s-44.5 -21.5 -61.5 -37.5s-30.167 -35.333 -39.5 -58s-14 -47.334 -14 -74.001c0 -28 4.33301 -53 13 -75s20.834 -41 36.501 -57s34.5 -28 56.5 -36s46.333 -12 73 -12c30.667 0 58 5.33301 82 16s44.333 24.334 61 41.001
s29.334 35.5 38.001 56.5s13 41.833 13 62.5zM448.999 393.004l-1 -1z" />
    <glyph glyph-name="colon" unicode=":" horiz-adv-x="235" 
d="M80 30c0 10.667 3.66699 19.667 11 27s16.333 11 27 11s19.667 -3.66699 27 -11s11 -16.333 11 -27s-3.66699 -19.667 -11 -27s-16.333 -11 -27 -11s-19.667 3.66699 -27 11s-11 16.333 -11 27zM80 441c0 10.667 3.66699 19.667 11 27s16.333 11 27 11
s19.667 -3.66699 27 -11s11 -16.333 11 -27s-3.66699 -19.667 -11 -27s-16.333 -11 -27 -11s-19.667 3.66699 -27 11s-11 16.333 -11 27z" />
    <glyph glyph-name="semicolon" unicode=";" horiz-adv-x="245" 
d="M87 32c0 9.33301 3.16699 17.668 9.5 25.001s14.833 11 25.5 11s19.5 -4 26.5 -12s10.5 -18.667 10.5 -32c0 -26.667 -6 -52.834 -18 -78.501c-11.333 -25.667 -27 -48.167 -47 -67.5l-4 4c-1.33301 1.33301 -2.33301 3.33301 -3 6
c0.666992 1.33301 1.66699 2.66602 3 3.99902c2.66699 3.33301 6.66699 8.5 12 15.5s10.666 15.167 15.999 24.5s10.333 20 15 32s7 24.667 7 38c-5.33301 -4 -12 -6 -20 -6c-9.33301 0 -17.166 3.33301 -23.499 10s-9.5 15.334 -9.5 26.001zM84 441.002
c0 10.667 3.66699 19.667 11 27s16.333 11 27 11s19.667 -3.66699 27 -11s11 -16.333 11 -27s-3.66699 -19.667 -11 -27s-16.333 -11 -27 -11s-19.667 3.66699 -27 11s-11 16.333 -11 27z" />
    <glyph glyph-name="less" unicode="&#x3c;" horiz-adv-x="580" 
d="M90 341l370 189.001v-16c0 -5.33301 -4 -10 -12 -14l-304 -154c-9.33301 -5.33301 -19.333 -9 -30 -11c10.667 -2.66699 20.667 -6.33398 30 -11.001l304 -154c8 -4 12 -8.33301 12 -13v-17l-370 190v11z" />
    <glyph glyph-name="equal" unicode="=" horiz-adv-x="580" 
d="M87 273h405v-21h-405v21zM87 424h405v-20h-405v20z" />
    <glyph glyph-name="greater" unicode="&#x3e;" horiz-adv-x="580" 
d="M120 140l-0.000976562 17c0 5.33301 4 9.66602 12 12.999l304 154c4.66699 2.66699 9.33398 4.83398 14.001 6.50098s9.66699 3.16699 15 4.5c-10 2 -19.667 5.66699 -29 11l-304 154c-8 4 -12 8.66699 -12 14v16l370 -189v-11z" />
    <glyph glyph-name="question" unicode="?" horiz-adv-x="424" 
d="M50 642c8 8.66699 17.3359 17.1641 28.0029 25.4971s22.667 15.833 36 22.5s27.666 11.834 42.999 15.501s31.666 5.5 48.999 5.5c21.333 0 42 -3.33301 62 -10s37.667 -16.167 53 -28.5s27.5 -27.5 36.5 -45.5s13.5 -38.333 13.5 -61c0 -18.667 -2.33301 -35.667 -7 -51
s-10.834 -29 -18.501 -41s-16.5 -22.833 -26.5 -32.5s-20 -18.667 -30 -27s-20 -15.833 -30 -22.5s-19 -13.667 -27 -21s-14.667 -14.666 -20 -21.999s-8 -15.666 -8 -24.999l-4 -84h-18l-1 86c0 13.333 3.83301 25.333 11.5 36s17.834 20.667 30.501 30s26 19.333 40 30
s27.167 22.5 39.5 35.5s22.666 28.167 30.999 45.5c8.33301 16.667 12.5 37 12.5 61c0 20 -4 37.667 -12 53s-18.5 28.333 -31.5 39s-28 19 -45 25s-34.5 9 -52.5 9c-22.667 0 -42.5 -3.33301 -59.5 -10s-31.167 -13.667 -42.5 -21s-20.333 -14.333 -27 -21
s-10.667 -10 -12 -10c-2.66699 0 -5 1.33301 -7 4zM154.003 29.9971c0 10.667 3.5 19.667 10.5 27s15.833 11 26.5 11s19.834 -3.66699 27.501 -11s11.5 -16.333 11.5 -27s-3.83301 -19.667 -11.5 -27s-16.834 -11 -27.501 -11s-19.5 3.66699 -26.5 11
s-10.5 16.333 -10.5 27z" />
    <glyph glyph-name="at" unicode="@" horiz-adv-x="824" 
d="M588 94c-32 0 -54.6592 9.33398 -67.9922 28.001s-19.333 43.334 -18 74.001c-18 -34.667 -39.167 -59.667 -63.5 -75s-50.5 -23 -78.5 -23c-18 0 -33.667 3 -47 9s-24.333 14.333 -33 25s-15.167 23.334 -19.5 38.001s-6.5 30.667 -6.5 48c0 28 5.5 56.333 16.5 85
s26.667 54.334 47 77.001s45.333 41 75 55s63.167 21 100.5 21c15.333 0 30.333 -1.33301 45 -4s27.334 -6.66699 38.001 -12l-44 -170c-8.66699 -33.333 -12.834 -60.333 -12.501 -81s3.83301 -36.667 10.5 -48s15.5 -18.833 26.5 -22.5s22.5 -5.5 34.5 -5.5
c20 0 39.5 5.16699 58.5 15.5s35.667 25.166 50 44.499s25.666 42.666 33.999 69.999s12.5 58.333 12.5 93c0 51.333 -8.33301 96.166 -25 134.499s-39.334 69.833 -68.001 94.5s-62 43.167 -100 55.5s-78.333 18.5 -121 18.5c-30.667 0 -60.5 -4.16699 -89.5 -12.5
s-56.333 -20 -82 -35s-49.167 -33.5 -70.5 -55.5s-39.666 -46.667 -54.999 -74s-27.333 -57.166 -36 -89.499s-13 -66.5 -13 -102.5c0 -60 9.66699 -113 29 -159s45.333 -84.5 78 -115.5s71 -54.333 115 -70s90.667 -23.5 140 -23.5c96.667 0 181 23.333 253 70
c2.66699 2 5.16699 2.66699 7.5 2s4.16602 -2.33398 5.49902 -5.00098l5 -11c-37.333 -25.333 -78.5 -44.333 -123.5 -57s-94.167 -19 -147.5 -19s-103.333 8.33301 -150 25s-87.334 41.5 -122.001 74.5s-62 73.667 -82 122s-30 103.833 -30 166.5
c0 37.333 4.33301 72.833 13 106.5s21.167 65 37.5 94s35.666 55 57.999 78s47.166 42.667 74.499 59s56.666 28.833 87.999 37.5s63.666 13 96.999 13c29.333 0 58 -3 86 -9s54.333 -15 79 -27s47.5 -26.833 68.5 -44.5s39 -38.334 54 -62.001s26.833 -50.5 35.5 -80.5
s13 -63 13 -99s-4.83301 -69 -14.5 -99s-22.667 -55.5 -39 -76.5s-35.333 -37.333 -57 -49s-44.834 -17.5 -69.501 -17.5zM364.008 116.001c13.333 0 26.9971 2.33105 40.9971 6.99805s27.333 12.667 40 24s24.667 27 36 47s21 45.333 29 76l42 159
c-9.33301 2.66699 -18.666 4.66699 -27.999 6s-20.666 2 -33.999 2c-32.667 0 -62.167 -6.5 -88.5 -19.5s-48.666 -30 -66.999 -51s-32.333 -44.5 -42 -70.5s-14.5 -52 -14.5 -78c0 -14 1.66699 -27.167 5 -39.5s8.66602 -23.166 15.999 -32.499s16.333 -16.666 27 -21.999
s23.334 -8 38.001 -8z" />
    <glyph glyph-name="A" unicode="A" horiz-adv-x="644" 
d="M626 0h-21c-5.33301 0 -9 2.66699 -11 8l-92 223h-360l-92 -223c-1.33301 -5.33301 -5.33301 -8 -12 -8h-20l291 703h27zM150 252h344l-162 392c-1.33301 4.66699 -3 9.16699 -5 13.5s-3.66699 9.5 -5 15.5c-1.33301 -5.33301 -3 -10.5 -5 -15.5s-3.66699 -9.5 -5 -13.5z
" />
    <glyph glyph-name="B" unicode="B" horiz-adv-x="624" 
d="M112 0l-0.000976562 702.999h190c76.667 0 133.667 -15.333 171 -46c37.333 -31.333 56 -75 56 -131c0 -20 -3.66699 -39 -11 -57s-17.666 -34.5 -30.999 -49.5s-29.5 -27.833 -48.5 -38.5s-39.833 -18 -62.5 -22c29.333 -2.66699 55.333 -8.66699 78 -18
s41.834 -21.166 57.501 -35.499s27.667 -31.5 36 -51.5s12.5 -42 12.5 -66c0 -30 -5.16699 -56.667 -15.5 -80s-25.333 -43 -45 -59s-43.834 -28.167 -72.501 -36.5s-61.667 -12.5 -99 -12.5h-216zM138.999 345.999l-0.00195312 -324h189
c65.333 0 115.666 14.167 150.999 42.5s53 69.5 53 123.5c0 24 -4.66699 45.667 -14 65s-22.666 36 -39.999 50s-38.666 24.667 -63.999 32s-53.666 11 -84.999 11h-190zM138.997 365.999h166.999c35.333 0 65.333 4.83301 90 14.5s44.834 22 60.501 37s27.167 32 34.5 51
c7.33301 18.333 11 36.833 11 55.5c0 50.667 -16.333 89.5 -49 116.5s-83 40.5 -151 40.5h-163v-315z" />
    <glyph glyph-name="C" unicode="C" horiz-adv-x="680" 
d="M626 104c1.33301 0 3.32812 -0.661133 5.99512 -1.99414l10 -11c-14.667 -14.667 -30.5 -28.167 -47.5 -40.5s-35.667 -22.833 -56 -31.5s-42.5 -15.334 -66.5 -20.001s-50.667 -7 -80 -7c-48 0 -92 8.33301 -132 25s-74.5 40.667 -103.5 72s-51.667 69.166 -68 113.499
c-16.333 45 -24.5 94.833 -24.5 149.5c0 53.333 8.16699 102 24.5 146s39.333 81.833 69 113.5s65.334 56.167 107.001 73.5s87.5 26 137.5 26c46.667 0 88.334 -7.16699 125.001 -21.5s70.334 -34.833 101.001 -61.5l-7 -12c-1.33301 -2.66699 -4 -3.66699 -8 -3
c-2 0 -5.33301 1.83301 -10 5.5s-11 8.16699 -19 13.5s-17.667 11.333 -29 18s-24.333 12.667 -39 18s-31.667 10 -51 14s-40.333 6 -63 6c-45.333 0 -87 -8 -125 -24s-70.667 -38.333 -98 -67s-48.666 -63.834 -63.999 -105.501c-15.333 -41 -23 -87.5 -23 -139.5
c0 -52.667 7.66699 -99.834 23 -141.501s36.5 -76.834 63.5 -105.501s58.833 -50.667 95.5 -66c37.333 -15.333 77.333 -23 120 -23c26.667 0 50.667 1.66699 72 5s41 8.66602 59 15.999s34.5 16.333 49.5 27c15.667 10.667 30.834 23 45.501 37c2.66699 2 4.66699 3 6 3z
" />
    <glyph glyph-name="D" unicode="D" horiz-adv-x="759" 
d="M694 352c0 -54.667 -8 -104.001 -24 -148.001s-38.5 -81 -67.5 -111s-63.667 -53 -104 -69s-84.833 -24 -133.5 -24h-253v703h253c48.667 0 93.167 -8 133.5 -24s75 -39.167 104 -69.5s51.5 -67.166 67.5 -110.499s24 -92.333 24 -147zM665 351.999
c0 52 -7.16504 98.333 -21.498 139s-34.833 75 -61.5 103s-58.334 49.333 -95.001 64s-77.334 22 -122.001 22h-226v-658h226c44 0 84.5 7.33301 121.5 22s68.833 36 95.5 64s47.167 62.667 61.5 104s21.5 88 21.5 140z" />
    <glyph glyph-name="E" unicode="E" horiz-adv-x="581" 
d="M526 703v-23h-387v-312h327v-23h-327v-321h389l-2 -24h-414v703h414z" />
    <glyph glyph-name="F" unicode="F" horiz-adv-x="564" 
d="M526 703v-23h-387v-322h337v-24h-337v-334h-27v703h414z" />
    <glyph glyph-name="G" unicode="G" horiz-adv-x="738" 
d="M668 69c-34.667 -24 -72 -42.833 -112 -56.5s-85.333 -20.5 -136 -20.5c-54.667 0 -104 8.33301 -148 25s-81.333 40.667 -112 72s-54.334 69.166 -71.001 113.499c-16.667 45 -25 94.833 -25 149.5s8.16699 104 24.5 148s39.666 81.667 69.999 113s67 55.5 110 72.5
c43.667 17 92.167 25.5 145.5 25.5c26.667 0 51 -1.66699 73 -5s42.333 -8.5 61 -15.5s36.5 -15.5 53.5 -25.5c16.333 -10 32.5 -22 48.5 -36l-6 -11c-2.66699 -4 -6.66699 -5.33301 -12 -4c-3.33301 1.33301 -9.5 5.83301 -18.5 13.5s-21.833 16 -38.5 25
s-38.334 17.167 -65.001 24.5s-59 11 -97 11c-49.333 0 -93.666 -7.66699 -132.999 -23s-72.833 -37.666 -100.5 -66.999s-49.167 -64.666 -64.5 -105.999s-23 -88 -23 -140s7.66699 -99 23 -141s37 -77.5 65 -106.5s62.333 -51.333 103 -67s86.334 -23.5 137.001 -23.5
c22.667 0 44 1.66699 64 5s38.833 7.66602 56.5 12.999s34.834 12 51.501 20c16 8 32.667 17.333 50 28v207h-148c-2.66699 0 -4.66699 0.833008 -6 2.5s-2 3.5 -2 5.5v14h182v-240v0z" />
    <glyph glyph-name="H" unicode="H" horiz-adv-x="751" 
d="M640 0h-28v346h-473v-346h-27v703h27v-335h473v335h28v-703z" />
    <glyph glyph-name="I" unicode="I" horiz-adv-x="250" 
d="M139 0h-27v703h27v-703z" />
    <glyph glyph-name="J" unicode="J" horiz-adv-x="410" 
d="M306 230c0 -39.333 -4.66699 -73.833 -14 -103.5s-23 -54.5 -41 -74.5s-39.667 -35 -65 -45s-53.333 -15 -84 -15c-28 0 -57.333 5 -88 15l2 13c0.666992 1.33301 1.33398 3 2.00098 5c0 2 2 3 6 3c2.66699 0 6.33398 -0.666992 11.001 -2s10 -2.83301 16 -4.5
s13 -3.16699 21 -4.5s17.333 -2 28 -2c27.333 0 52.166 4.5 74.499 13.5s41.166 22.333 56.499 40s27 40 35 67s12 58.5 12 94.5v473h28v-473z" />
    <glyph glyph-name="K" unicode="K" horiz-adv-x="620" 
d="M139 370h45.002h16.5c4.33301 0 8.33301 0.666992 12 2s7.16699 3.33301 10.5 6s7 5.66699 11 9l310 305c4 4 7.66699 6.83301 11 8.5s7.33301 2.5 12 2.5h20l-327 -323c-6 -5.33301 -11.167 -9.5 -15.5 -12.5c-4.33301 -3.66699 -9.5 -6.16699 -15.5 -7.5
c6.66699 -1.33301 12.167 -3.5 16.5 -6.5c4.33301 -3.66699 9.16602 -8.16699 14.499 -13.5l347 -340h-20c-6.66699 0 -11.5 0.666992 -14.5 2s-5.83301 4 -8.5 8l-326 317c-4 4 -7.33301 7.16699 -10 9.5s-5.83398 4.33301 -9.50098 6s-8 3 -13 4s-11.5 1.5 -19.5 1.5h-47
v-348h-27v703h27v-333z" />
    <glyph glyph-name="L" unicode="L" horiz-adv-x="502" 
d="M139 24h349v-24h-376v703h27v-679z" />
    <glyph glyph-name="M" unicode="M" horiz-adv-x="898" 
d="M454 160c1.33301 2.66699 2.66699 5.66699 4 9l4 10l296 517c1.33301 2.66699 3 4.5 5 5.5s4.33301 1.5 7 1.5h16v-703h-24v643v7.5c0 2.33301 0.333008 4.83301 1 7.5l-295 -516c-3.33301 -5.33301 -7.33301 -8.33301 -12 -9h-5c-6 0.666992 -10.333 3.66699 -13 9
l-304 518c0 -2.66699 0.333008 -5.5 1 -8.5s1 -5.83301 1 -8.5v-643h-24v703h16c2.66699 0 5 -0.5 7 -1.5s3.66699 -2.83301 5 -5.5l305 -518z" />
    <glyph glyph-name="N" unicode="N" horiz-adv-x="751" 
d="M124 703c2.66699 0 4.83301 -0.5 6.5 -1.5s3.5 -2.83301 5.5 -5.5l480 -649v8.5v8.5v639h24v-703h-12c-4 0 -7.66699 2 -11 6l-483 652c0 -3.33301 0.333008 -6.5 1 -9.5s1 -5.83301 1 -8.5v-640h-24v703h12v0z" />
    <glyph glyph-name="O" unicode="O" horiz-adv-x="787" 
d="M722 352c0 -54.667 -7.99805 -104.333 -23.998 -149s-38.333 -82.5 -67 -113.5s-63.334 -54.833 -104.001 -71.5s-85.334 -25 -134.001 -25c-48 0 -92.167 8.33301 -132.5 25s-75.166 40.5 -104.499 71.5s-52 68.667 -68 113c-16 45 -24 94.833 -24 149.5s8 104 24 148
s38.667 81.667 68 113s64 55.5 104 72.5s84.333 25.5 133 25.5c49.333 0 94.166 -8.5 134.499 -25.5s74.833 -41 103.5 -72s51 -68.667 67 -113s24 -93.833 24 -148.5zM694.002 352.001c0 52 -7.33301 98.667 -22 140s-35.334 76.666 -62.001 105.999
s-58.334 51.666 -95.001 66.999s-77.334 23 -122.001 23c-44 0 -84.5 -7.66699 -121.5 -23s-68.667 -37.666 -95 -66.999s-47 -64.666 -62 -105.999s-22.5 -88 -22.5 -140s7.5 -99 22.5 -141s35.667 -77.333 62 -106s58 -50.667 95 -66s77.5 -23 121.5 -23
c44.667 0 85.334 7.66699 122.001 23s68.334 37.333 95.001 66s47.334 64 62.001 106s22 89 22 141z" />
    <glyph glyph-name="P" unicode="P" horiz-adv-x="566" 
d="M139 294l-0.000976562 -294.002h-27v703h168c79.333 0 139.5 -17 180.5 -51s61.5 -85 61.5 -153c0 -29.333 -5.66699 -56.666 -17 -81.999s-27.666 -47.166 -48.999 -65.499s-47 -32.5 -77 -42.5s-63 -15 -99 -15h-141zM138.999 315.998h141c33.333 0 63 4.66699 89 14
s48.333 22.333 67 39s33 36 43 58s15 46 15 72c0 59.333 -17.833 104.5 -53.5 135.5c-35 31 -88.5 46.5 -160.5 46.5h-141v-365z" />
    <glyph glyph-name="Q" unicode="Q" horiz-adv-x="787" 
d="M722 352c0 -37.333 -3.66699 -71.998 -11 -103.998s-17.666 -61.333 -30.999 -88s-29.833 -50.334 -49.5 -71.001s-41.834 -38.334 -66.501 -53.001l185 -196h-23c-8 0 -14.667 2.33301 -20 7l-165 177c-44 -20.667 -93.333 -31 -148 -31
c-48 0 -92.167 8.33301 -132.5 25s-75.166 40.5 -104.499 71.5s-52 68.667 -68 113c-16 45 -24 94.833 -24 149.5s8 104 24 148s38.667 81.667 68 113s64 55.5 104 72.5s84.333 25.5 133 25.5c49.333 0 94.166 -8.5 134.499 -25.5s74.833 -41 103.5 -72s51 -68.667 67 -113
s24 -93.833 24 -148.5zM694 352.002c0 52 -7.33301 98.667 -22 140s-35.334 76.666 -62.001 105.999s-58.334 51.666 -95.001 66.999s-77.334 23 -122.001 23c-44 0 -84.5 -7.66699 -121.5 -23s-68.667 -37.666 -95 -66.999s-47 -64.666 -62 -105.999s-22.5 -88 -22.5 -140
s7.5 -99 22.5 -141s35.667 -77.333 62 -106s58 -50.667 95 -66s77.5 -23 121.5 -23c44.667 0 85.334 7.66699 122.001 23s68.334 37.333 95.001 66s47.334 64 62.001 106s22 89 22 141z" />
    <glyph glyph-name="R" unicode="R" horiz-adv-x="597" 
d="M139 331l0.00488281 -330.999h-27v703h169c76 0 133.833 -14.833 173.5 -44.5s59.5 -74.5 59.5 -134.5c0 -28 -5 -53.333 -15 -76s-24.333 -42.334 -43 -59.001s-41.334 -29.667 -68.001 -39s-56.334 -15.333 -89.001 -18c6 -2.66699 11.667 -7.33398 17 -14.001
l262 -318h-22c-4 0 -7.33301 0.5 -10 1.5c-2.66699 0.333008 -5.33398 2.5 -8.00098 6.5l-248 304c-2.66699 4 -5.5 7 -8.5 9s-6.33301 3.83301 -10 5.5s-7.83398 2.83398 -12.501 3.50098s-10.334 1 -17.001 1h-103zM139.005 352.001l134 -0.000976562
c33.333 0 63.166 4 89.499 12s48.833 19.333 67.5 34s32.834 32.5 42.501 53.5c9.66699 20.333 14.5 43.833 14.5 70.5c0 54.667 -17.667 94.834 -53 120.501s-86.333 38.5 -153 38.5h-142v-329z" />
    <glyph glyph-name="S" unicode="S" horiz-adv-x="531" 
d="M444 630c-2 -3.33301 -5.00195 -4.99902 -9.00195 -4.99902s-9.16699 3.16699 -15.5 9.5s-15.333 13.5 -27 21.5s-26.667 15.333 -45 22s-40.833 10 -67.5 10c-27.333 0 -51.666 -4 -72.999 -12s-39.166 -19 -53.499 -33s-25.166 -30.167 -32.499 -48.5
s-11 -37.5 -11 -57.5c0 -25.333 5.16699 -46.666 15.5 -63.999s24 -31.833 41 -43.5s36.167 -21.5 57.5 -29.5s43.333 -15.667 66 -23s44.834 -15.333 66.501 -24s41 -19.5 58 -32.5s30.667 -29 41 -48s15.5 -42.833 15.5 -71.5c0 -29.333 -4.83301 -56.666 -14.5 -81.999
s-24 -47.5 -43 -66.5s-42 -33.833 -69 -44.5s-57.833 -16 -92.5 -16c-24 0 -45.667 2 -65 6s-37 10 -53 18s-30.667 17.667 -44 29s-26.333 24.333 -39 39l7 10c1.33301 1.33301 2.66602 2.33301 3.99902 3s3 1 5 1c2.66699 0 6 -2 10 -6s9.33301 -9 16 -15
s14.667 -12.667 24 -20s20.5 -14 33.5 -20s27.833 -11.167 44.5 -15.5s35.667 -6.5 57 -6.5c30.667 0 58 4.83301 82 14.5s44.167 22.667 60.5 39s28.833 35.5 37.5 57.5c8.66699 21.333 13 44.666 13 69.999c0 26.667 -5.16699 48.667 -15.5 66s-23.833 32 -40.5 44
s-36 21.833 -58 29.5s-44.167 15 -66.5 22s-44.333 14.833 -66 23.5s-40.834 19.667 -57.501 33s-30.334 29.666 -41.001 48.999s-16 43.666 -16 72.999c0 22.667 4.33301 44.667 13 66s21.334 40 38.001 56s37 28.833 61 38.5s52 14.5 84 14.5
c35.333 0 66.5 -5.66699 93.5 -17s52.5 -29 76.5 -53z" />
    <glyph glyph-name="T" unicode="T" horiz-adv-x="573" 
d="M558 703v-24h-257v-679h-27v679h-260v24h544z" />
    <glyph glyph-name="U" unicode="U" horiz-adv-x="723" 
d="M362 16c36 0 68.3311 6.33301 96.998 19s52.834 30.334 72.501 53.001s34.667 49 45 79s15.5 62.333 15.5 97v439h28v-439c0 -38 -6 -73.5 -18 -106.5s-29.167 -61.833 -51.5 -86.5s-49.333 -44.167 -81 -58.5s-67.5 -21.5 -107.5 -21.5s-76 7.16699 -108 21.5
s-59.333 33.833 -82 58.5s-40 53.5 -52 86.5s-18 68.5 -18 106.5v439h28v-438c0 -34.667 5.33301 -67.167 16 -97.5s25.834 -56.833 45.501 -79.5s44 -40.334 73 -53.001s61.5 -19 97.5 -19z" />
    <glyph glyph-name="V" unicode="V" horiz-adv-x="644" 
d="M18 703h22c5.33301 -0.666992 8.66602 -3.66699 9.99902 -9l262 -629c2 -5.33301 3.83301 -10.833 5.5 -16.5s3.16699 -11.167 4.5 -16.5c2.66699 11.333 6.33398 22.333 11.001 33l261 629c1.33301 5.33301 5.33301 8.33301 12 9h20l-292 -703h-24z" />
    <glyph glyph-name="W" unicode="W" horiz-adv-x="1007" 
d="M28 703h22c5.33301 -0.666992 9.33301 -3.66699 12 -9l194 -624c2.66699 -10.667 5.33398 -22.667 8.00098 -36c1.33301 6.66699 2.66602 13 3.99902 19s3 11.667 5 17l217 624c1.33301 5.33301 5.33301 8.33301 12 9h6c5.33301 -0.666992 9 -3.66699 11 -9l217 -624
c2.66699 -10.667 5.33398 -22.667 8.00098 -36c1.33301 6.66699 2.66602 13 3.99902 19s3 11.667 5 17l194 624c1.33301 5.33301 5.33301 8.33301 12 9h21l-223 -703h-25l-222 649c-2.66699 5.33301 -4.66699 12 -6 20c-0.666992 -4 -1.5 -7.5 -2.5 -10.5
s-2.16699 -6.16699 -3.5 -9.5l-224 -649h-24z" />
    <glyph glyph-name="X" unicode="X" horiz-adv-x="609" 
d="M286 360l-249.002 343h27c3.33301 0 5.83301 -0.833008 7.5 -2.5s3.16699 -3.5 4.5 -5.5l230 -321c0.666992 2.66699 2.33398 6 5.00098 10l223 310c1.33301 2 3 4 5 6s4.33301 3 7 3h26l-248 -341l260 -362h-28c-3.33301 0 -5.83301 1 -7.5 3s-3.16699 4 -4.5 6
l-240 338c-0.666992 -1.33301 -1.16699 -2.83301 -1.5 -4.5s-1.16602 -3.16699 -2.49902 -4.5l-236 -329l-6 -6c-2 -2 -4.33301 -3 -7 -3h-25z" />
    <glyph glyph-name="Y" unicode="Y" horiz-adv-x="580" 
d="M304 296l-0.000976562 -295.999h-28v296l-261 407h23c2.66699 0 5 -0.5 7 -1.5s3.66699 -2.83301 5 -5.5l223 -350c3.33301 -5.33301 6.33301 -10.666 9 -15.999l8 -16l8 16c2.66699 5.33301 5.66699 10.666 9 15.999l223 350
c2.66699 5.33301 6.33398 7.66602 11.001 6.99902h24z" />
    <glyph glyph-name="Z" unicode="Z" horiz-adv-x="595" 
d="M553 703v-8c0 -4.66699 -1.66699 -9.66699 -5 -15l-472 -656h475v-24h-513v8c0 2.66699 0.333008 5 1 7s2 4 4 6l473 659h-467v23h504z" />
    <glyph glyph-name="bracketleft" unicode="[" horiz-adv-x="292" 
d="M106 -126v880h146v-9c0 -6 -3.33301 -9 -10 -9h-112v-843h112c6.66699 0.666992 10 -2.33301 10 -9v-10h-146z" />
    <glyph glyph-name="backslash" unicode="\" horiz-adv-x="426" 
d="M41 723h11c8 0 13.333 -3.66699 16 -11l317 -752h-10c-4 0 -7.5 0.833008 -10.5 2.5s-5.5 4.5 -7.5 8.5z" />
    <glyph glyph-name="bracketright" unicode="]" horiz-adv-x="292" 
d="M40 -126v10c0 6.66699 3.33301 9.66699 10 9h113v843h-113c-6.66699 0 -10 3 -10 9v9h146v-880h-146z" />
    <glyph glyph-name="asciicircum" unicode="^" horiz-adv-x="580" 
d="M483 362h-16.998c-2.66699 0 -5.33398 1 -8.00098 3s-4.66699 4.33301 -6 7l-151 280c-4.66699 8 -8.33398 16.333 -11.001 25c-1.33301 -4 -3 -8.16699 -5 -12.5s-4 -8.5 -6 -12.5l-151 -280c-1.33301 -2 -3 -4.16699 -5 -6.5s-4.33301 -3.5 -7 -3.5h-19l185 341h16z
" />
    <glyph glyph-name="underscore" unicode="_" horiz-adv-x="446" 
d="M420 -113v-20h-394v20h394z" />
    <glyph glyph-name="grave" unicode="`" 
d="M140 711c6.66699 0 11.499 -0.833008 14.499 -2.5s6.16699 -5.16699 9.5 -10.5l80 -118h-14c-5.33301 0 -9.66602 2 -12.999 6l-104 125h27z" />
    <glyph glyph-name="a" unicode="a" horiz-adv-x="477" 
d="M386 0c-6.66699 0 -10.668 3.33398 -12.001 10.001l-5 73c-13.333 -14 -27 -26.667 -41 -38s-28.5 -20.833 -43.5 -28.5s-31.5 -13.667 -49.5 -18s-37.667 -6.5 -59 -6.5c-16 0 -31.5 2.33301 -46.5 7s-28.667 12 -41 22s-22.166 23 -29.499 39s-11 35 -11 57
c0 21.333 6.16699 40.833 18.5 58.5s31.666 33 57.999 46s59.666 23.333 99.999 31c39.667 7.66699 87.5 12.167 143.5 13.5v58c0 49.333 -10.667 87.666 -32 114.999s-52.666 41 -93.999 41c-25.333 0 -47 -3.66699 -65 -11s-33 -15.333 -45 -24s-21.667 -16.667 -29 -24
s-12.666 -11 -15.999 -11s-6.33301 2 -9 6l-4 7c24.667 25.333 50.5 44.666 77.5 57.999s57.833 20 92.5 20c25.333 0 47.5 -4.16699 66.5 -12.5s34.667 -20.166 47 -35.499s21.5 -33.833 27.5 -55.5s9 -46.167 9 -73.5v-324h-8zM181.999 12.001
c21.333 0 40.6689 2.33398 58.002 7.00098s33.666 11.167 48.999 19.5s29.333 18 42 29s25 23.167 37 36.5v142c-100.667 -3.33301 -175 -15.833 -223 -37.5s-72 -51.834 -72 -90.501c0 -18.667 3.16699 -34.667 9.5 -48s14.5 -24.333 24.5 -33s21.667 -15 35 -19
s26.666 -6 39.999 -6z" />
    <glyph glyph-name="b" unicode="b" horiz-adv-x="546" 
d="M88 0l0.000976562 723h26v-325c10.667 16 22.5 30.333 35.5 43s27 23.334 42 32.001s31.5 15.5 49.5 20.5s37 7.5 57 7.5c30 0 56.833 -5.33301 80.5 -16s43.667 -26.167 60 -46.5s28.666 -45.5 36.999 -75.5s12.5 -64.333 12.5 -103c0 -40 -4.66699 -76.333 -14 -109
s-23 -60.667 -41 -84s-40.333 -41.333 -67 -54s-57.334 -19 -92.001 -19c-70.667 0 -124 28 -160 84l-3 -69c0 -2.66699 -0.666992 -4.83398 -2 -6.50098s-3.66602 -2.5 -6.99902 -2.5h-14zM292.001 480c-38.667 0 -72.668 -9.66797 -102.001 -29.001
s-54.666 -45.666 -75.999 -78.999v-270c20 -32 42.833 -54.667 68.5 -68s54.5 -20 86.5 -20c32.667 0 61 6 85 18s44 28.667 60 50s28 47 36 77s12 63.333 12 100c0 73.333 -15 128.5 -45 165.5s-71.667 55.5 -125 55.5z" />
    <glyph glyph-name="c" unicode="c" horiz-adv-x="468" 
d="M414 439c-1.33301 -1.33301 -2.49512 -2.33301 -3.49512 -3c-1.66699 -0.666992 -3.16699 -1 -4.5 -1c-2.66699 0 -6.66699 2.33301 -12 7s-13 9.83398 -23 15.501s-22.667 10.834 -38 15.501s-34 7 -56 7c-30.667 0 -57.834 -5.33301 -81.501 -16
s-43.834 -26.334 -60.501 -47.001s-29.334 -45.334 -38.001 -74.001s-13 -61 -13 -97c0 -37.333 4.33301 -70.333 13 -99s21.167 -52.667 37.5 -72s36 -34.333 59 -45s48.5 -16 76.5 -16c25.333 0 46.5 3 63.5 9s31.167 12.667 42.5 20s20 13.833 26 19.5s10.333 8.5 13 8.5
c3.33301 0 5.66602 -1 6.99902 -3l6 -8c-6 -8 -14.333 -16 -25 -24s-22.834 -15 -36.501 -21s-29 -11 -46 -15c-17.667 -4 -35.834 -6 -54.501 -6c-32 0 -60.667 5.66699 -86 17s-47 27.833 -65 49.5s-32 48.167 -42 79.5c-10 30.667 -15 66 -15 106
c0 38 4.83301 72.833 14.5 104.5s23.834 58.5 42.501 80.5s41.5 39.167 68.5 51.5s57.833 18.5 92.5 18.5c30.667 0 58 -4.83301 82 -14.5s44.667 -22.5 62 -38.5z" />
    <glyph glyph-name="d" unicode="d" horiz-adv-x="546" 
d="M446 0c-6.66699 0 -10 3.33398 -10 10.001l-4 88c-22 -32 -48.167 -57.333 -78.5 -76s-63.833 -28 -100.5 -28c-62.667 0 -110.834 20.667 -144.501 62s-50.5 104.666 -50.5 189.999c0 36 4.66699 69.333 14 100s23 57.667 41 81s40.333 41.5 67 54.5s58 19.5 94 19.5
c68.667 0 121.334 -27 158.001 -81v303h26v-723h-12zM258 15.001c34.667 0 66.833 9.50098 96.5 28.501s55.5 45.167 77.5 78.5v271c-20.667 32 -43.5 54.5 -68.5 67.5s-53.5 19.5 -85.5 19.5s-60.167 -5.83301 -84.5 -17.5s-44.5 -28 -60.5 -49s-28 -45.833 -36 -74.5
s-12 -59.667 -12 -93c0 -78.667 14.667 -136.834 44 -174.501s72.333 -56.5 129 -56.5z" />
    <glyph glyph-name="e" unicode="e" horiz-adv-x="518" 
d="M276 501c26.667 0 51.498 -4.66699 74.498 -14s43.167 -23.166 60.5 -41.499s30.833 -40.833 40.5 -67.5s14.5 -57 14.5 -91c0 -7.33301 -2.66699 -11 -8 -11h-374v-9.5v-10.5c0 -39.333 4.66699 -73.833 14 -103.5s22.333 -54.834 39 -75.501s37.167 -36.167 61.5 -46.5
c25 -10.333 52.167 -15.5 81.5 -15.5c26.667 0 49.5 2.83301 68.5 8.5s35 12.167 48 19.5s23.167 13.833 30.5 19.5s11.666 8.5 12.999 8.5c2.66699 0 5 -1 7 -3l7 -8c-6.66699 -8 -16 -16 -28 -24s-25.833 -15 -41.5 -21s-32.667 -11 -51 -15s-36.833 -6 -55.5 -6
c-33.333 0 -63.666 6 -90.999 18s-50.666 29 -69.999 51s-34 49.333 -44 82s-15 69.667 -15 111c0 36 4.83301 69 14.5 99s23.834 55.833 42.501 77.5s41.5 38.5 68.5 50.5s57.833 18 92.5 18zM275.998 481c-28 0 -53 -4.49902 -75 -13.499s-41 -21.667 -57 -38
s-29 -36 -39 -59s-16.333 -48.5 -19 -76.5h356c0 29.333 -4.16699 55.666 -12.5 78.999s-20 43 -35 59s-32.5 28.167 -52.5 36.5s-42 12.5 -66 12.5z" />
    <glyph glyph-name="f" unicode="f" horiz-adv-x="335" 
d="M116 0l-0.00488281 453.998l-78 2c-6.66699 0.666992 -9.66699 3.33398 -9 8.00098v10h87v70c0 28 3.33301 52.5 10 73.5s16.334 38.333 29.001 52s27.667 23.834 45 30.501s36 10 56 10c10 0 20.167 -0.666992 30.5 -2s19.5 -4 27.5 -8l-2 -12c0 -2.66699 -1 -4 -3 -4
s-5.16699 0.333008 -9.5 1s-9.66602 1.66699 -15.999 3s-14.166 2 -23.499 2c-17.333 0 -33.166 -2.66699 -47.499 -8s-26.666 -13.666 -36.999 -24.999s-18.5 -26.333 -24.5 -45s-9 -41.334 -9 -68.001v-70h168v-20h-168v-454h-26z" />
    <glyph glyph-name="g" unicode="g" horiz-adv-x="505" 
d="M244 501c21.333 0 40.999 -2.83301 58.999 -8.5s34.333 -13.167 49 -22.5h122v-8c0 -2.66699 -1 -4.83398 -3 -6.50098c-2 -2.33301 -4.33301 -3.5 -7 -3.5l-88 -3c12 -13.333 21.333 -28.833 28 -46.5s10 -37.167 10 -58.5c0 -24 -4 -45.667 -12 -65
s-19.5 -35.833 -34.5 -49.5s-33 -24.334 -54 -32.001s-44.167 -11.5 -69.5 -11.5c-16 0 -31 1.5 -45 4.5s-27 7.16699 -39 12.5c-16 -9.33301 -28.667 -20.333 -38 -33c-9.33301 -12 -14 -24 -14 -36c0 -16 5.33301 -28.167 16 -36.5s24.334 -14.5 41.001 -18.5
s35.667 -6.5 57 -7.5s43.333 -2.16699 66 -3.5s44.667 -3.33301 66 -6s40.333 -7.33398 57 -14.001s30.167 -16.667 40.5 -30s15.5 -30.666 15.5 -51.999c0 -20 -5.16699 -39.333 -15.5 -58s-24.833 -35 -43.5 -49s-41.5 -25.167 -68.5 -33.5
c-26.333 -8.33301 -56.166 -12.5 -89.499 -12.5s-63 3.5 -89 10.5s-47.833 16.5 -65.5 28.5s-31 26 -40 42s-13.5 33.333 -13.5 52c0 26.667 9.33301 50 28 70s43.334 35.333 74.001 46c-18 5.33301 -32.167 13 -42.5 23s-15.5 24.667 -15.5 44
c0 6.66699 1.33301 13.834 4 21.501s6.66699 15 12 22s11.666 13.833 18.999 20.5c7.33301 6 15.666 11.667 24.999 17c-22.667 13.333 -40.5 31.333 -53.5 54s-19.5 49.334 -19.5 80.001c0 23.333 4 44.5 12 63.5s19.5 35.5 34.5 49.5s33 24.833 54 32.5
s44.5 11.5 70.5 11.5zM442.999 -37c0 17.333 -4.50293 31.168 -13.5029 41.501s-20.667 18.5 -35 24.5s-31 10.167 -50 12.5s-38.833 4 -59.5 5s-41.167 2.16699 -61.5 3.5c-21 1.33301 -40.167 3.33301 -57.5 6c-14.667 -5.33301 -28 -11.5 -40 -18.5s-22.333 -15 -31 -24
s-15.667 -19 -21 -30c-5.33301 -10.333 -8 -22.166 -8 -35.499c0 -16 4.33301 -31 13 -45s20.834 -26.167 36.501 -36.5s34.834 -18.5 57.501 -24.5s48.334 -9 77.001 -9c26 0 50.667 3.16699 74 9.5s43.833 15.166 61.5 26.499s31.667 25.166 42 41.499
s15.5 33.833 15.5 52.5zM243.996 206.002c22.667 0 43 3.33301 61 10s33.333 16 46 28s22.334 26.333 29.001 43s10 35.667 10 57c0 20 -3.33301 38.5 -10 55.5s-16.334 31.5 -29.001 43.5s-28 21.333 -46 28s-38.333 10 -61 10s-43 -3.33301 -61 -10s-33.333 -16 -46 -28
s-22.334 -26.5 -29.001 -43.5s-10 -35.5 -10 -55.5c0 -20.667 3.33301 -39.5 10 -56.5s16.334 -31.5 29.001 -43.5s28 -21.333 46 -28s38.333 -10 61 -10z" />
    <glyph glyph-name="h" unicode="h" horiz-adv-x="546" 
d="M88 0l0.000976562 723.001h26v-324c22.667 30.667 50 55.334 82 74.001s66.667 28 104 28c27.333 0 51.166 -4.16699 71.499 -12.5s37.333 -20.5 51 -36.5s24 -35.5 31 -58.5c7 -22.333 10.5 -48.166 10.5 -77.499v-316h-27v316c0 25.333 -2.83301 48.166 -8.5 68.499
s-14.5 37.666 -26.5 51.999s-26.667 25.166 -44 32.499s-38 11 -62 11c-36 0 -69.333 -9.33301 -100 -28s-58 -44.667 -82 -78v-374h-26z" />
    <glyph glyph-name="i" unicode="i" horiz-adv-x="214" 
d="M120 493v-493h-26v493h26zM142 671c0 -4.66699 -0.999023 -9 -2.99902 -13s-4.66699 -7.66699 -8 -11s-7 -5.83301 -11 -7.5s-8.33301 -2.5 -13 -2.5c-9.33301 0 -17.5 3.5 -24.5 10.5s-10.5 14.833 -10.5 23.5c0 9.33301 3.5 17.5 10.5 24.5s15.167 10.5 24.5 10.5
c4 0 8.16699 -1 12.5 -3s8.16602 -4.66699 11.499 -8s6 -7 8 -11s3 -8.33301 3 -13z" />
    <glyph glyph-name="j" unicode="j" horiz-adv-x="214" 
d="M120 493v-570.001c0 -16 -2.33301 -30.5 -7 -43.5s-11.667 -24.5 -21 -34.5s-20.5 -17.667 -33.5 -23c-12.333 -5.33301 -27.166 -8 -44.499 -8c-9.33301 0 -17.5 1 -24.5 3s-13.833 4.33301 -20.5 7l3 13c1.33301 2.66699 2.66602 4.16699 3.99902 4.5
s3.5 -0.166992 6.5 -1.5s6.66699 -2.66602 11 -3.99902s9.83301 -2 16.5 -2c28 0 49 8 63 24s21 37.667 21 65v570h26zM141 670.999c0 -4.66699 -1 -9 -3 -13s-4.5 -7.66699 -7.5 -11s-6.66699 -5.83301 -11 -7.5c-5 -1.66699 -9.5 -2.5 -13.5 -2.5
c-9.33301 0 -17.333 3.5 -24 10.5s-10 14.833 -10 23.5c0 9.33301 3.33301 17.5 10 24.5s14.667 10.5 24 10.5c4 0 8.33301 -1 13 -3s8.5 -4.66699 11.5 -8s5.5 -7 7.5 -11s3 -8.33301 3 -13z" />
    <glyph glyph-name="k" unicode="k" horiz-adv-x="459" 
d="M114 723l-0.000976562 -449.001h24c4 0 7.83301 0.666992 11.5 2c3 1.33301 7.16699 4 12.5 8l220 199c2.66699 3.33301 5.66699 5.83301 9 7.5s7.66602 2.5 12.999 2.5h22l-237 -213c-2.66699 -2.66699 -5.16699 -5 -7.5 -7s-4.83301 -3.66699 -7.5 -5
c4.66699 -1.33301 8.83398 -3.66602 12.501 -6.99902s6.83398 -6.33301 9.50098 -9l248 -252h-22c-3.33301 0 -6.5 0.5 -9.5 1.5s-5.83301 3.16699 -8.5 6.5l-231 234c-5.33301 5.33301 -10.5 9 -15.5 11s-12.167 3 -21.5 3h-22v-256h-26v723h26z" />
    <glyph glyph-name="l" unicode="l" horiz-adv-x="213" 
d="M120 723v-723h-26v723h26z" />
    <glyph glyph-name="m" unicode="m" horiz-adv-x="795" 
d="M88 0l0.00488281 492.999h12c6.66699 0 10 -3.33301 10 -10l4 -83c19.333 30.667 42 55.167 68 73.5c25.333 18.333 54 27.5 86 27.5c37.333 0 67.166 -11.333 89.499 -34c22.333 -22 36.833 -53.667 43.5 -95c5.33301 22 13.166 41 23.499 57s22.5 29.5 36.5 40.5
s29.333 19 46 24s33.667 7.5 51 7.5c24 0 45.667 -4.16699 65 -12.5s35.666 -20.166 48.999 -35.499s23.5 -34.666 30.5 -57.999s10.5 -49.666 10.5 -78.999v-316h-27v316c0 53.333 -11.333 94 -34 122s-55.334 42 -98.001 42c-18.667 0 -36.5 -3.33301 -53.5 -10
s-32 -17 -45 -31s-23.5 -31.333 -31.5 -52s-12 -44.334 -12 -71.001v-316h-27v316c0 52 -10.333 92.333 -31 121s-51 43 -91 43c-30 0 -57.5 -9.33301 -82.5 -28c-25.667 -18.667 -47.834 -44.334 -66.501 -77.001v-375h-26z" />
    <glyph glyph-name="n" unicode="n" horiz-adv-x="546" 
d="M88 0v493.002h12c6.66699 0 10 -3.33301 10 -10l4 -85c22.667 32 49.834 57.167 81.501 75.5s66.5 27.5 104.5 27.5c27.333 0 51.166 -4.16699 71.499 -12.5s37.333 -20.5 51 -36.5s24 -35.5 31 -58.5c7 -22.333 10.5 -48.166 10.5 -77.499v-316h-27v316
c0 25.333 -2.83301 48.166 -8.5 68.499s-14.5 37.666 -26.5 51.999s-26.667 25.166 -44 32.499s-38 11 -62 11c-36 0 -69.333 -9.33301 -100 -28s-58 -44.667 -82 -78v-374h-26z" />
    <glyph glyph-name="o" unicode="o" horiz-adv-x="553" 
d="M276 501c34.667 0 65.668 -6.16602 93.001 -18.499s50.333 -29.5 69 -51.5s33 -48.667 43 -80s15 -66.333 15 -105s-5 -73.334 -15 -104.001s-24.333 -57 -43 -79s-41.5 -39 -68.5 -51c-27.667 -12 -58.834 -18 -93.501 -18s-65.667 6 -93 18s-50.333 29 -69 51
s-32.667 48.5 -42 79.5c-9.33301 30.333 -14 64.833 -14 103.5s4.66699 73.667 14 105s23.333 58 42 80s41.667 39.167 69 51.5s58.333 18.5 93 18.5zM276.001 15.001c32 0 60 5.5 84 16.5s44.167 26.667 60.5 47s28.5 44.666 36.5 72.999s12 59.833 12 94.5
s-4 66.5 -12 95.5s-20.167 53.667 -36.5 74s-36.5 36.166 -60.5 47.499s-52 17 -84 17s-60 -5.66699 -84 -17s-44 -27.166 -60 -47.499s-28 -44.833 -36 -73.5c-8 -29.333 -12 -61.333 -12 -96s4 -66.167 12 -94.5s20 -52.666 36 -72.999s36 -36 60 -47s52 -16.5 84 -16.5z
" />
    <glyph glyph-name="p" unicode="p" horiz-adv-x="546" 
d="M88 -178l0.000976562 671h12c6.66699 0 10 -3.33301 10 -10l4 -86c22 32 48.167 57.333 78.5 76s64.166 28 101.499 28c62.667 0 110.667 -20.667 144 -62c33.333 -40.667 50 -103.667 50 -189c0 -36 -4.5 -69.667 -13.5 -101s-22.667 -58.333 -41 -81
s-40.833 -40.667 -67.5 -54s-57.667 -20 -93 -20c-70 0 -123 27.333 -159 82v-254h-26zM288.001 480c-34.667 0 -66.667 -9.66699 -96 -29s-55.333 -45.666 -78 -78.999v-270c20 -32 42.667 -54.667 68 -68s54.333 -20 87 -20c32 0 60.167 6 84.5 18s44.5 28.5 60.5 49.5
s28 45.833 36 74.5c8 29.333 12 60.666 12 93.999c0 78.667 -15 136.667 -45 174s-73 56 -129 56z" />
    <glyph glyph-name="q" unicode="q" horiz-adv-x="545" 
d="M458 493l0.000976562 -670.999h-26v274c-22 -32 -48.167 -57 -78.5 -75s-63.833 -27 -100.5 -27c-62.667 0 -110.834 20.667 -144.501 62s-50.5 104.666 -50.5 189.999c0 36 4.66699 69.333 14 100s23 57.667 41 81s40.333 41.5 67 54.5s58 19.5 94 19.5
c35.333 0 66 -6.83301 92 -20.5s48.333 -34.5 67 -62.5l3 65c0 6.66699 3.33301 10 10 10h12zM258.001 15.001c34.667 0 66.833 9.50098 96.5 28.501s55.5 45.167 77.5 78.5v272c-19.333 30.667 -41.833 52.667 -67.5 66s-54.5 20 -86.5 20s-60.167 -5.83301 -84.5 -17.5
s-44.5 -28 -60.5 -49s-28 -45.833 -36 -74.5s-12 -59.667 -12 -93c0 -78.667 14.667 -136.834 44 -174.501s72.333 -56.5 129 -56.5z" />
    <glyph glyph-name="r" unicode="r" horiz-adv-x="347" 
d="M88 0l0.00195312 493h12c6.66699 0 10 -3.66699 10 -11l4 -122c14.667 44.667 34.667 79.334 60 104.001s59.333 37 102 37c9.33301 0 19 -0.833008 29 -2.5s19 -4.5 27 -8.5l-2 -16c-1.33301 -4 -4 -6 -8 -6s-9.66699 1.33301 -17 4s-18.333 4 -33 4
c-21.333 0 -39.833 -3.33301 -55.5 -10s-29.834 -16.334 -42.501 -29.001s-23.834 -28.5 -33.501 -47.5s-18.5 -41.167 -26.5 -66.5v-323h-26z" />
    <glyph glyph-name="s" unicode="s" horiz-adv-x="421" 
d="M350 442c-1.33301 -2.66699 -4 -3.98926 -8 -3.98926c-2.66699 0 -6.66699 2.33301 -12 7s-13 9.5 -23 14.5s-22.167 9.66699 -36.5 14s-32.166 6.5 -53.499 6.5c-20 0 -38 -2.83301 -54 -8.5s-29.833 -13.334 -41.5 -23.001s-20.667 -21 -27 -34s-9.5 -26.5 -9.5 -40.5
c0 -16.667 4.16699 -30.667 12.5 -42s19.166 -20.833 32.499 -28.5s28.333 -14.334 45 -20.001s34 -11.334 52 -17.001s35.333 -11.5 52 -17.5s31.667 -13.667 45 -23s24.166 -21 32.499 -35s12.5 -31 12.5 -51c0 -20.667 -3.66699 -39.834 -11 -57.501
s-18.166 -33.334 -32.499 -47.001s-31.666 -24.334 -51.999 -32.001c-19.667 -7.66699 -42.834 -11.5 -69.501 -11.5c-17.333 0 -33.333 1.33301 -48 4s-28.167 6.66699 -40.5 12s-23.833 11.666 -34.5 18.999s-21 15.666 -31 24.999l6 8
c1.33301 1.33301 2.66602 2.5 3.99902 3.5s3.33301 1.5 6 1.5c3.33301 0 8.16602 -2.83301 14.499 -8.5s14.666 -11.834 24.999 -18.501s23.5 -12.667 39.5 -18s35.667 -8 59 -8c22.667 0 42.834 3.33301 60.501 10s32.334 15.667 44.001 27s20.5 24.5 26.5 39.5
c6 14.333 9 30.166 9 47.499c0 18 -4 33.167 -12 45.5s-18.667 22.5 -32 30.5s-28.5 14.833 -45.5 20.5s-34.333 11.167 -52 16.5s-35 11.166 -52 17.499s-32.167 14 -45.5 23s-24.166 20.167 -32.499 33.5s-12.5 30 -12.5 50c0 16.667 3.83301 32.667 11.5 48
s18.334 29 32.001 41s30.167 21.5 49.5 28.5s40.666 10.5 63.999 10.5c28.667 0 54 -4 76 -12s43 -20.667 63 -38z" />
    <glyph glyph-name="t" unicode="t" horiz-adv-x="334" 
d="M214 -8c-30.667 0 -54.667 8.33301 -72 25s-26 43.667 -26 81v356h-77c-6 0 -9 2.66699 -9 8v8l86 4l8 190c0 2 0.666992 3.83301 2 5.5s3.33301 2.5 6 2.5h10v-198h164v-20h-164v-354c0 -15.333 2 -28.5 6 -39.5s9.33301 -20 16 -27s14.667 -12 24 -15
s19.333 -4.5 30 -4.5c13.333 0 24.833 2 34.5 6s18 8.33301 25 13s12.667 9 17 13s7.5 6 9.5 6c1.33301 0 3.33301 -1.33301 6 -4l6 -9c-5.33301 -6.66699 -11.833 -12.834 -19.5 -18.501s-16 -10.667 -25 -15s-18.333 -7.66602 -28 -9.99902s-19.5 -3.5 -29.5 -3.5z" />
    <glyph glyph-name="u" unicode="u" horiz-adv-x="545" 
d="M109 493l-0.00195312 -315.001c0 -25.333 2.83301 -48.333 8.5 -69s14.5 -38 26.5 -52s26.833 -24.833 44.5 -32.5s38.5 -11.5 62.5 -11.5c36 0 69.167 9.5 99.5 28.5s57.5 45.167 81.5 78.5v373h26v-493h-12c-5.33301 0 -8.66602 3.33301 -9.99902 10l-3 86
c-23.333 -32 -50.833 -57.333 -82.5 -76s-66.5 -28 -104.5 -28c-27.333 0 -51.166 4.33301 -71.499 13s-37.333 20.834 -51 36.501s-24 35 -31 58s-10.5 49.167 -10.5 78.5v315h27z" />
    <glyph glyph-name="v" unicode="v" horiz-adv-x="494" 
d="M258 0h-22l-212 493h20c3.33301 0 5.83301 -1 7.5 -3s3.16699 -4 4.5 -6l182 -426c1.33301 -4.66699 3 -9.5 5 -14.5s3.33301 -9.5 4 -13.5c1.33301 4.66699 2.66602 9.16699 3.99902 13.5s3 9.16602 5 14.499l183 426c1.33301 2.66699 3 4.83398 5 6.50098
c2.66699 1.66699 5.33398 2.5 8.00098 2.5h18z" />
    <glyph glyph-name="w" unicode="w" horiz-adv-x="754" 
d="M30 493l18.002 -0.00292969c4 0 7 -1 9 -3s3 -4 3 -6l141 -426c1.33301 -5.33301 2.5 -10.666 3.5 -15.999s2.16699 -10.333 3.5 -15c1.33301 5.33301 2.83301 10.5 4.5 15.5c2.33301 5 4.16602 10.167 5.49902 15.5l146 430c1.33301 5.33301 4.33301 8 9 8h9
c4 0 7.33301 -2.66699 10 -8l145 -430c1.33301 -5.33301 2.83301 -10.666 4.5 -15.999s3.16699 -10.333 4.5 -15c1.33301 5.33301 2.66602 10.333 3.99902 15l4 16l140 426c1.33301 2.66699 3 4.83398 5 6.50098s4.33301 2.5 7 2.5h18l-166 -493h-18
c-4 0 -6.66699 2.33301 -8 7l-148 435c-2.66699 6.66699 -4.66699 13.334 -6 20.001c-1.33301 -6.66699 -3.33301 -13.334 -6 -20.001l-151 -435c-0.666992 -4.66699 -3 -7 -7 -7h-17z" />
    <glyph glyph-name="x" unicode="x" horiz-adv-x="454" 
d="M209 252l-174.997 241h25c3.33301 0 5.66602 -0.833008 6.99902 -2.5s2.66602 -3.5 3.99902 -5.5l158 -221c0.666992 4 2.66699 8 6 12l150 208c1.33301 2 3 4 5 6s4.33301 3 7 3h24l-175 -239l182 -254h-25c-3.33301 0 -5.83301 1 -7.5 3s-3.16699 4 -4.5 6l-164 231
c-1.33301 -4 -3 -8 -5 -12l-158 -219c-1.33301 -2 -3 -4 -5 -6c-2.66699 -2 -5.33398 -3 -8.00098 -3h-23z" />
    <glyph glyph-name="y" unicode="y" horiz-adv-x="494" 
d="M184 -166c-1.33301 -3.33301 -3.33203 -6.16797 -5.99902 -8.50098s-6 -3.5 -10 -3.5h-18l86 190l-212 481h20c4 0 7 -1 9 -3s3.66699 -4 5 -6l184 -422c2.66699 -6.66699 5 -14.334 7 -23.001c3.33301 6.66699 6.33301 14.334 9 23.001l182 422
c1.33301 2.66699 3.16602 4.83398 5.49902 6.50098s4.83301 2.5 7.5 2.5h19z" />
    <glyph glyph-name="z" unicode="z" horiz-adv-x="439" 
d="M403 482c0 -2 -0.5 -3.83301 -1.5 -5.5s-2.16699 -3.5 -3.5 -5.5l-330 -450h321v-21h-355v10c0 2 0.5 3.83301 1.5 5.5c1.66699 1.66699 3.16699 3.5 4.5 5.5l330 451h-318v21h351v-11z" />
    <glyph glyph-name="braceleft" unicode="{" horiz-adv-x="292" 
d="M128 228c0 11.333 -2.16699 21.668 -6.5 31.001s-10.166 17.5 -17.499 24.5s-16.166 12.5 -26.499 16.5s-21.5 6 -33.5 6v18c12 0 23.167 1.83301 33.5 5.5s19.166 9 26.499 16s13.166 15.167 17.499 24.5s6.5 19.666 6.5 30.999c0 18.667 -1.66699 37 -5 55
s-7.16602 35.833 -11.499 53.5s-8.16602 35.5 -11.499 53.5s-5 37 -5 57c0 18.667 3 36.167 9 52.5s14.5 30.666 25.5 42.999s24.5 21.833 40.5 28.5s33.667 10 53 10h28v-10c0 -2.66699 -0.833008 -4.66699 -2.5 -6s-3.83398 -2 -6.50098 -2h-20
c-14.667 0 -28.334 -2.83301 -41.001 -8.5s-23.667 -13.5 -33 -23.5s-16.666 -22.167 -21.999 -36.5s-8 -30.166 -8 -47.499c0 -18.667 1.66699 -37.167 5 -55.5s7 -36.5 11 -54.5s7.66699 -36.167 11 -54.5s5 -36.5 5 -54.5c0 -12.667 -2 -24 -6 -34
s-9.66699 -18.667 -17 -26s-15.333 -13.166 -24 -17.499c-8.66699 -5 -17.667 -8.16699 -27 -9.5c9.33301 -1.33301 18.333 -4.33301 27 -9s16.667 -10.667 24 -18s13 -16 17 -26s6 -21 6 -33c0 -18.667 -1.66699 -37 -5 -55s-7 -36 -11 -54s-7.66699 -36.333 -11 -55
s-5 -37.334 -5 -56.001c0 -17.333 2.66699 -33.166 8 -47.499s12.666 -26.5 21.999 -36.5s20.333 -17.667 33 -23s26.334 -8 41.001 -8h20c2.66699 0 4.83398 -0.666992 6.50098 -2c1.66699 -0.666992 2.5 -2.33398 2.5 -5.00098v-12h-28c-20 0 -37.833 3.5 -53.5 10.5
s-29 16.667 -40 29s-19.5 26.5 -25.5 42.5s-9 33.667 -9 53s1.66699 38 5 56s7.16602 35.833 11.499 53.5s8.16602 35.667 11.499 54s5 36.833 5 55.5z" />
    <glyph glyph-name="bar" unicode="|" horiz-adv-x="232" 
d="M106 754h20v-934h-20v934z" />
    <glyph glyph-name="braceright" unicode="}" horiz-adv-x="292" 
d="M164 228c0 -18.667 1.66699 -37.1699 5 -55.5029s7.16602 -36.333 11.499 -54s8.16602 -35.5 11.499 -53.5s5 -36.667 5 -56c0 -18.667 -3 -36.167 -9 -52.5s-14.5 -30.666 -25.5 -42.999s-24.5 -22 -40.5 -29s-33.667 -10.5 -53 -10.5h-28v12
c0 2.66699 0.833008 4.5 2.5 5.5s3.83398 1.5 6.50098 1.5h20c14.667 0 28.334 2.66699 41.001 8s23.667 13 33 23s16.666 22.167 21.999 36.5s8 30.166 8 47.499c0 18.667 -1.66699 37.334 -5 56.001s-7 37 -11 55s-7.66699 36 -11 54s-5 36.333 -5 55c0 12 2 23 6 33
s9.66699 18.667 17 26s15.333 13.333 24 18s17.667 7.66699 27 9c-9.33301 1.33301 -18.333 4.33301 -27 9s-16.667 10.667 -24 18s-13 16 -17 26s-6 21.333 -6 34c0 18.667 1.66699 37 5 55s7 36 11 54s7.66699 36.167 11 54.5s5 36.833 5 55.5
c0 17.333 -2.66699 33.166 -8 47.499s-12.666 26.5 -21.999 36.5s-20.333 17.833 -33 23.5s-26.334 8.5 -41.001 8.5h-20c-2.66699 0 -4.83398 0.666992 -6.50098 2s-2.5 3.33301 -2.5 6v10h28c19.333 0 37 -3.33301 53 -10s29.5 -16.167 40.5 -28.5
s19.5 -26.666 25.5 -42.999s9 -33.833 9 -52.5c0 -19.333 -1.66699 -38.166 -5 -56.499s-7.16602 -36.333 -11.499 -54s-8.16602 -35.334 -11.499 -53.001s-5 -36.167 -5 -55.5c0 -11.333 2.16699 -21.666 6.5 -30.999s10.166 -17.5 17.499 -24.5s16.166 -12.333 26.499 -16
s21.5 -5.5 33.5 -5.5v-18c-12 0 -23.167 -2 -33.5 -6s-19.166 -9.5 -26.499 -16.5s-13.166 -15.167 -17.499 -24.5s-6.5 -19.666 -6.5 -30.999z" />
    <glyph glyph-name="asciitilde" unicode="~" horiz-adv-x="580" 
d="M396 272c13.333 0 25.3301 2.33398 35.9971 7.00098s19.834 11.334 27.501 20.001s13.667 18.834 18 30.501c4.33301 12.333 6.5 25.166 6.5 38.499h22c0 -16 -2.5 -31.167 -7.5 -45.5s-12.167 -26.833 -21.5 -37.5s-20.666 -19.167 -33.999 -25.5
s-28.666 -9.5 -45.999 -9.5s-35.166 3.66699 -53.499 11s-36.5 15.166 -54.5 23.499s-35.667 16 -53 23s-33.666 10.5 -48.999 10.5c-13.333 0 -25.5 -2.33301 -36.5 -7s-20.167 -11.334 -27.5 -20.001s-13 -18.834 -17 -30.501c-4 -12.333 -6.33301 -25.166 -7 -38.499h-21
c0 16 2.33301 31.167 7 45.5s11.667 27 21 38s20.666 19.5 33.999 25.5s28.666 9 45.999 9c11.333 0 23 -1.66699 35 -5s24.167 -7.5 36.5 -12.5s24.5 -10.5 36.5 -16.5s23.833 -11.5 35.5 -16.5s23 -9.16699 34 -12.5s21.833 -5 32.5 -5z" />
    <glyph glyph-name="exclamdown" unicode="&#xa1;" horiz-adv-x="218" 
d="M96 -178l0.000976562 277c0 14.667 0.166992 28.5 0.5 41.5s0.666016 26.333 0.999023 40s0.833008 28.167 1.5 43.5s1.33398 32.666 2.00098 51.999h17c0.666992 -19.333 1.5 -36.666 2.5 -51.999s1.66699 -29.833 2 -43.5s0.666016 -27 0.999023 -40
s0.5 -26.833 0.5 -41.5v-277h-28zM70.001 464c0 10.667 3.66699 19.5 11 26.5s16.333 10.5 27 10.5s19.667 -3.5 27 -10.5s11 -15.833 11 -26.5s-3.66699 -19.834 -11 -27.501s-16.333 -11.5 -27 -11.5s-19.667 3.83301 -27 11.5s-11 16.834 -11 27.501z" />
    <glyph glyph-name="cent" unicode="&#xa2;" horiz-adv-x="580" 
d="M306 -6c-33.333 1.33301 -63.3262 7.99902 -89.9932 19.999s-49.334 28.667 -68.001 50s-33.167 47.333 -43.5 78s-15.5 65.334 -15.5 104.001c0 37.333 5.33301 71.666 16 102.999s26.167 58.333 46.5 81s45.166 40 74.499 52s62.666 18.333 99.999 19l5 110
c-0.666992 7.33301 2.33301 11 9 11h10l-4 -122c29.333 -1.33301 55.666 -6.66602 78.999 -15.999s43.666 -21.333 60.999 -36l-8 -9c-1.33301 -2 -3.33301 -3 -6 -3s-6.66699 2 -12 6s-13 8.66699 -23 14s-22.667 10.333 -38 15s-33.666 7.66699 -54.999 9l-18 -466
c18 0 34.167 1.66699 48.5 5s26.833 7 37.5 11s20 8.33301 28 13s14.667 9.16699 20 13.5s9.66602 7.83301 12.999 10.5s6.33301 4 9 4c2.66699 0.666992 4.66699 -0.333008 6 -3l6 -8c-6.66699 -8 -15.334 -15.833 -26.001 -23.5s-23.334 -14.667 -38.001 -21
s-30.667 -11.5 -48 -15.5s-36 -6 -56 -6l-5 -114c-0.666992 -7.33301 -3.66699 -11 -9 -11h-11zM115.007 245.999c0 -36 4.49902 -68.002 13.499 -96.002s21.833 -51.667 38.5 -71s36.834 -34.666 60.501 -45.999c23 -11.333 49.167 -17.666 78.5 -18.999l20 466
c-33.333 0 -63 -5.66699 -89 -17s-48 -27 -66 -47s-31.833 -44.5 -41.5 -73.5s-14.5 -61.167 -14.5 -96.5z" />
    <glyph glyph-name="sterling" unicode="&#xa3;" horiz-adv-x="580" 
d="M34 330c0 3.33301 1 5.83301 3 7.5s4.66699 2.5 8 2.5h91v156c0 30.667 4.16699 59 12.5 85s20.833 48.667 37.5 68s37.5 34.333 62.5 45s53.833 16 86.5 16c25.333 0 47.5 -3 66.5 -9s35.5 -14.167 49.5 -24.5s25.833 -22.333 35.5 -36s17.834 -28.5 24.501 -44.5
l-11 -4c-3.33301 -1.33301 -6.16602 -1.66602 -8.49902 -0.999023s-4.83301 2.66699 -7.5 6c-6.66699 11.333 -13.834 22.5 -21.501 33.5s-17.167 20.667 -28.5 29s-25 15.166 -41 20.499s-35.333 8 -58 8c-28 0 -52.833 -4.66699 -74.5 -14
s-39.834 -22.666 -54.501 -39.999s-25.667 -37.666 -33 -60.999s-11 -49 -11 -77v-156h250v-10c0 -2.66699 -1 -4.83398 -3 -6.50098s-4.33301 -2.5 -7 -2.5h-240v-169c0 -32.667 -7 -59.334 -21 -80.001s-32.667 -38 -56 -52c13.333 2 26.333 3 39 3h422v-11
c0 -2.66699 -1.16699 -5.33398 -3.5 -8.00098s-5.5 -4 -9.5 -4h-487v20c12 5.33301 23.333 11.333 34 18s20.167 15.167 28.5 25.5s15 22.333 20 36s7.5 29.834 7.5 48.501v173h-102v9z" />
    <glyph glyph-name="currency" unicode="&#xa4;" horiz-adv-x="580" 
d="M122 335c0 21.333 3.66602 41.5 10.999 60.5s17.666 35.833 30.999 50.5l-78 78l14 14l78 -78c14.667 13.333 31.667 24 51 32s39.666 12 60.999 12s41.5 -3.83301 60.5 -11.5c19.667 -7.66699 36.834 -18.167 51.501 -31.5l78 78l14 -15l-78 -77
c13.333 -14.667 23.666 -31.5 30.999 -50.5s11 -39.5 11 -61.5c0 -21.333 -3.66699 -41.5 -11 -60.5s-17.666 -35.833 -30.999 -50.5l78 -78l-14 -14l-78 78c-14.667 -13.333 -31.667 -23.666 -51 -30.999s-39.666 -11 -60.999 -11s-41.333 3.66699 -60 11
s-35.667 17.666 -51 30.999l-79 -78l-14 14l78 78c-13.333 14.667 -23.666 31.5 -30.999 50.5s-11 39.167 -11 60.5zM142.999 335c0 -20 3.83301 -38.833 11.5 -56.5s18.167 -33.167 31.5 -46.5s29 -24 47 -32s37 -12 57 -12s39 4 57 12s33.667 18.667 47 32
s24 28.833 32 46.5s12 36.5 12 56.5s-4 39.167 -12 57.5s-18.667 34.166 -32 47.499s-29 24 -47 32s-37 12 -57 12s-39 -4 -57 -12s-33.667 -18.667 -47 -32s-23.833 -29.166 -31.5 -47.499s-11.5 -37.5 -11.5 -57.5z" />
    <glyph glyph-name="yen" unicode="&#xa5;" horiz-adv-x="580" 
d="M87 306h184.001l-215 397h22c5.33301 0.666992 9.33301 -1.66602 12 -6.99902l190 -358c1.33301 -4 3 -8 5 -12s3.66699 -8 5 -12c1.33301 4 2.66602 7.83301 3.99902 11.5c1.33301 4.33301 3.33301 8.5 6 12.5l190 358c2.66699 5.33301 6.66699 7.66602 12 6.99902h22
l-215 -397h183v-18h-189v-62h189v-18h-189v-208h-26v208h-190v18h190v62h-190v18z" />
    <glyph glyph-name="brokenbar" unicode="&#xa6;" horiz-adv-x="235" 
d="M107 754h21v-384h-21v384zM107 206h21v-384h-21v384z" />
    <glyph glyph-name="section" unicode="&#xa7;" horiz-adv-x="479" 
d="M388 652c-2.66699 -2.66699 -5.32715 -3.99512 -7.99414 -3.99512s-6.66699 2.33301 -12 7s-13 9.5 -23 14.5s-22.333 9.66699 -37 14s-32.334 6.5 -53.001 6.5c-20 0 -38.167 -2.83301 -54.5 -8.5s-30.333 -13.334 -42 -23.001s-20.667 -21.167 -27 -34.5
s-9.5 -26.666 -9.5 -39.999c0 -16.667 4.33301 -31.167 13 -43.5s19.667 -23.5 33 -33.5s29 -19 47 -27l54 -24c18 -8 36 -16.667 54 -26s33.667 -20 47 -32s24.333 -25.667 33 -41s13 -33.333 13 -54c0 -28 -7 -52 -21 -72c-14 -19.333 -34.333 -35 -61 -47
c18 -12.667 32.667 -27.167 44 -43.5s17 -35.833 17 -58.5c0 -20.667 -3.66699 -40.167 -11 -58.5s-18.166 -34.166 -32.499 -47.499s-31.666 -23.833 -51.999 -31.5c-19.667 -7.66699 -42.834 -11.5 -69.501 -11.5c-17.333 0 -33.333 1.5 -48 4.5s-28 7 -40 12
s-23.333 11.167 -34 18.5c-10.667 6.66699 -21.334 14.667 -32.001 24l7 9c2.66699 3.33301 5.66699 5 9 5s8.16602 -2.66699 14.499 -8s14.666 -11.333 24.999 -18s23.666 -12.834 39.999 -18.501s35.833 -8.5 58.5 -8.5s42.834 3.16699 60.501 9.5
s32.5 15.166 44.5 26.499s21.167 24.666 27.5 39.999s9.5 31.666 9.5 48.999c0 18 -4.5 33.833 -13.5 47.5s-20.667 25.667 -35 36s-30.833 19.666 -49.5 27.999s-37.667 16.666 -57 24.999s-38.333 17 -57 26s-35.334 19.167 -50.001 30.5s-26.334 24.333 -35.001 39
s-13 31.667 -13 51c0 12 1.83301 23.833 5.5 35.5s9.5 22.5 17.5 32.5s18.333 19.333 31 28c12 8.66699 27.333 16.334 46 23.001c-18.667 12 -34 26 -46 42s-18 36 -18 60c0 17.333 3.66699 33.666 11 48.999s18 29 32 41s30.667 21.5 50 28.5s40.333 10.5 63 10.5
c28.667 0 54.167 -4 76.5 -12s43.166 -20.667 62.499 -38zM86.0068 364.005c0 -15.333 3.50195 -28.832 10.502 -40.499s16.667 -22.334 29 -32.001s26.333 -18.5 42 -26.5s32.167 -15.833 49.5 -23.5l52 -23c17.333 -7 33.666 -15.167 48.999 -24.5
c26.667 12 45.667 26.667 57 44s17 37.333 17 60c0 16.667 -3.16699 31.5 -9.5 44.5s-15 24.5 -26 34.5s-23.833 19 -38.5 27s-29.834 15.667 -45.501 23s-31.667 14.333 -48 21s-31.833 14 -46.5 22c-34 -13.333 -57.833 -28.833 -71.5 -46.5s-20.5 -37.5 -20.5 -59.5z" />
    <glyph glyph-name="dieresis" unicode="&#xa8;" 
d="M149 641c0 -8.66699 -3.50098 -16.334 -10.501 -23.001s-14.5 -10 -22.5 -10c-9.33301 0 -17.333 3.33301 -24 10s-10 14.334 -10 23.001c0 9.33301 3.33301 17.166 10 23.499s14.667 9.5 24 9.5c8.66699 0 16.334 -3.16699 23.001 -9.5s10 -14.166 10 -23.499z
M317.999 641c0 -8.66699 -3.33398 -16.334 -10.001 -23.001s-14.667 -10 -24 -10s-17.166 3.33301 -23.499 10s-9.5 14.334 -9.5 23.001c0 9.33301 3.33301 17.166 10 23.499c6 6.33301 13.667 9.5 23 9.5c8.66699 0 16.5 -3.16699 23.5 -9.5s10.5 -14.166 10.5 -23.499z
" />
    <glyph glyph-name="copyright" unicode="&#xa9;" horiz-adv-x="846" 
d="M578 200h2.99902h3l10 -10c-20 -18.667 -43 -33.667 -69 -45s-58.333 -17 -97 -17c-32 0 -61.333 5.33301 -88 16s-49.667 25.667 -69 45s-34.333 42.666 -45 69.999s-16 58.333 -16 93c0 33.333 5.5 63.666 16.5 90.999s26.333 51 46 71s43.334 35.333 71.001 46
c27 10.667 57.167 16 90.5 16c17.333 0 33 -1.16699 47 -3.5s27 -5.66602 39 -9.99902s23.333 -9.83301 34 -16.5s21.334 -14.334 32.001 -23.001l-6 -9c-1.33301 -2.66699 -3.33301 -3.66699 -6 -3c-2.66699 0 -6.83398 2.33301 -12.501 7s-13.667 9.83398 -24 15.501
s-23.833 10.834 -40.5 15.501s-37 7 -61 7c-29.333 0 -56.5 -4.83301 -81.5 -14.5s-46.333 -23.334 -64 -41.001s-31.5 -39.167 -41.5 -64.5s-15 -53.333 -15 -84c0 -32 5 -60.667 15 -86s23.667 -46.666 41 -63.999s37.666 -30.5 60.999 -39.5s49 -13.5 77 -13.5
c18.667 0 35.167 1.16699 49.5 3.5s27.333 5.83301 39 10.5s22.334 10 32.001 16s19.5 13 29.5 21zM63.999 352c0 33.333 4.33301 65 13 95s20.834 58.333 36.501 85s34.334 51 56.001 73s45.834 40.667 72.501 56s55.334 27.333 86.001 36s62.334 13 95.001 13
c33.333 0 65.166 -4.33301 95.499 -13s58.833 -20.667 85.5 -36s50.834 -34 72.501 -56s40.334 -46.333 56.001 -73s27.834 -55.167 36.501 -85.5c8.66699 -29.667 13 -61.167 13 -94.5s-4.33301 -65.333 -13 -96s-20.834 -59.334 -36.501 -86.001
s-34.334 -50.667 -56.001 -72s-45.834 -40 -72.501 -56s-55.334 -28.167 -86.001 -36.5s-62.334 -12.5 -95.001 -12.5c-33.333 0 -65.166 4.16699 -95.499 12.5s-58.833 20.5 -85.5 36.5s-50.834 34.667 -72.501 56s-40.334 45.333 -56.001 72
s-27.834 55.334 -36.501 86.001s-13 62.667 -13 96zM83.999 352c0 -31.333 4 -61.5 12 -90.5s19.333 -56.167 34 -81.5s32.334 -48.333 53.001 -69s43.5 -38.334 68.5 -53.001s52 -26.167 81 -34.5s59.167 -12.5 90.5 -12.5s61.5 4.16699 90.5 12.5s56 19.833 81 34.5
s48 32.334 69 53.001s38.833 43.667 53.5 69s26.167 52.333 34.5 81s12.5 59 12.5 91c0 31.333 -4.16699 61.5 -12.5 90.5s-19.833 56.167 -34.5 81.5s-32.5 48.333 -53.5 69s-44 38.334 -69 53.001s-52 26.167 -81 34.5s-59.167 12.5 -90.5 12.5
s-61.5 -4.16699 -90.5 -12.5s-56 -19.833 -81 -34.5s-47.833 -32.334 -68.5 -53.001s-38.334 -43.667 -53.001 -69s-26 -52.5 -34 -81.5s-12 -59.167 -12 -90.5z" />
    <glyph glyph-name="ordfeminine" unicode="&#xaa;" horiz-adv-x="368" 
d="M276 419c-4 0 -6.66895 2.33301 -8.00195 7l-3 40c-8.66699 -8 -17.334 -15.333 -26.001 -22s-17.667 -12 -27 -16s-19.166 -7.33301 -29.499 -10c-11 -2.66699 -22.5 -4 -34.5 -4c-10 0 -19.833 1.33301 -29.5 4s-18.167 7 -25.5 13s-13.333 13.667 -18 23
s-7 20.333 -7 33c0 12 3.66699 23.5 11 34.5s19 20.5 35 28.5s36.333 14.333 61 19s54.334 7 89.001 7v30c0 28 -6 49.333 -18 64s-31.667 22 -59 22c-14.667 0 -27.334 -2 -38.001 -6s-19.5 -8.33301 -26.5 -13s-12.667 -9 -17 -13s-7.83301 -6 -10.5 -6
c-1.33301 0 -2.66602 0.333008 -3.99902 1s-2.33301 1.66699 -3 3l-4 6c14.667 15.333 30.334 26.833 47.001 34.5s35.667 11.5 57 11.5c32 0 56.333 -9.33301 73 -28s25 -44 25 -76v-187h-10zM152.998 431c12 0 23.333 1.33398 34 4.00098s20.5 6.5 29.5 11.5
s17.333 10.5 25 16.5c7 6 14.5 12.667 22.5 20v78c-61.333 -2.66699 -106 -10.167 -134 -22.5s-42 -29.166 -42 -50.499c0 -10.667 1.83301 -19.334 5.5 -26.001s8.5 -12.334 14.5 -17.001s13 -8.16699 21 -10.5s16 -3.5 24 -3.5z" />
    <glyph glyph-name="guillemotleft" unicode="&#xab;" horiz-adv-x="380" 
d="M60 255l-0.000976562 2.99902l118 188l8 -5c6.66699 -3.33301 7.33398 -9 2.00098 -17l-98 -155c-2.66699 -4 -4.66699 -6.83301 -6 -8.5s-2.66602 -3.16699 -3.99902 -4.5c2.66699 -1.33301 6 -5.33301 10 -12l98 -155c2.66699 -4 3.66699 -7.33301 3 -10
c-0.666992 -3.33301 -2.33398 -5.66602 -5.00098 -6.99902l-8 -4zM176.999 254.999l-0.000976562 2.99902l118 188l8 -5c6.66699 -3.33301 7.33398 -9 2.00098 -17l-98 -155c-2.66699 -4 -4.66699 -6.83301 -6 -8.5s-2.66602 -3.16699 -3.99902 -4.5
c2.66699 -1.33301 6 -5.33301 10 -12l98 -155c2.66699 -4 3.66699 -7.33301 3 -10c-0.666992 -3.33301 -2.33398 -5.66602 -5.00098 -6.99902l-8 -4z" />
    <glyph glyph-name="logicalnot" unicode="&#xac;" horiz-adv-x="580" 
d="M88 346h406v-170h-22v149h-384v21z" />
    <glyph glyph-name="registered" unicode="&#xae;" horiz-adv-x="846" 
d="M64 352c0 33.333 4.33301 65 13 95s20.834 58.333 36.501 85s34.334 51 56.001 73s45.834 40.667 72.501 56s55.334 27.333 86.001 36s62.334 13 95.001 13c33.333 0 65.166 -4.33301 95.499 -13s58.833 -20.667 85.5 -36s50.834 -34 72.501 -56
s40.334 -46.333 56.001 -73s27.834 -55.167 36.501 -85.5c8.66699 -29.667 13 -61.167 13 -94.5s-4.33301 -65.333 -13 -96s-20.834 -59.334 -36.501 -86.001s-34.334 -50.667 -56.001 -72s-45.834 -40 -72.501 -56s-55.334 -28.167 -86.001 -36.5
s-62.334 -12.5 -95.001 -12.5c-33.333 0 -65.166 4.16699 -95.499 12.5s-58.833 20.5 -85.5 36.5s-50.834 34.667 -72.501 56s-40.334 45.333 -56.001 72s-27.834 55.334 -36.501 86.001s-13 62.667 -13 96zM84 352c0 -31.333 4 -61.5 12 -90.5s19.333 -56.167 34 -81.5
s32.334 -48.333 53.001 -69s43.5 -38.334 68.5 -53.001s52 -26.167 81 -34.5s59.167 -12.5 90.5 -12.5s61.5 4.16699 90.5 12.5s56 19.833 81 34.5s48 32.334 69 53.001s38.833 43.667 53.5 69s26.167 52.333 34.5 81s12.5 59 12.5 91c0 31.333 -4.16699 61.5 -12.5 90.5
s-19.833 56.167 -34.5 81.5s-32.5 48.333 -53.5 69s-44 38.334 -69 53.001s-52 26.167 -81 34.5s-59.167 12.5 -90.5 12.5s-61.5 -4.16699 -90.5 -12.5s-56 -19.833 -81 -34.5s-47.833 -32.334 -68.5 -53.001s-38.334 -43.667 -53.001 -69s-26 -52.5 -34 -81.5
s-12 -59.167 -12 -90.5zM322 336l-0.00195312 -205.001h-24v441h112c48 0 84.667 -9.16699 110 -27.5c25.333 -17.667 38 -45.834 38 -84.501c0 -17.333 -3 -33 -9 -47s-14.667 -26.167 -26 -36.5s-25.333 -18.666 -42 -24.999s-35 -10.166 -55 -11.499
c3.33301 -1.33301 6.33301 -3.33301 9 -6s5.33398 -6 8.00098 -10l157 -193h-22c-2.66699 0 -4.66699 0.333008 -6 1c-1.33301 0 -2.66602 1.33301 -3.99902 4l-154 189c-2.66699 3.33301 -6 6 -10 8s-10.667 3 -20 3h-62zM321.998 355.999l82 0.000976562
c42 0 74.167 8.66699 96.5 26s33.5 42.666 33.5 75.999s-10 57.5 -30 72.5s-51.333 22.5 -94 22.5h-88v-197z" />
    <glyph glyph-name="macron" unicode="&#xaf;" 
d="M68 650h264v-18h-264v18z" />
    <glyph glyph-name="macron" unicode="&#x2c9;" 
d="M68 650h264v-18h-264v18z" />
    <glyph glyph-name="degree" unicode="&#xb0;" horiz-adv-x="413" 
d="M62 569c0 20 3.83301 38.499 11.5 55.499s18 32 31 45s28.167 23.167 45.5 30.5s36 11 56 11s39 -3.66699 57 -11s33.333 -17.5 46 -30.5s22.834 -28.167 30.501 -45.5s11.5 -35.666 11.5 -54.999c0 -20 -3.83301 -38.5 -11.5 -55.5s-17.834 -32.167 -30.501 -45.5
s-28 -23.666 -46 -30.999s-37 -11 -57 -11s-38.667 3.66699 -56 11s-32.5 17.666 -45.5 30.999s-23.333 28.5 -31 45.5s-11.5 35.5 -11.5 55.5zM84 568.999c0 -17.333 3.16797 -33.5 9.50098 -48.5s15 -28 26 -39s24 -19.667 39 -26
c14.333 -6.33301 30.166 -9.5 47.499 -9.5s33.5 3.16699 48.5 9.5s28 15 39 26s19.833 24.167 26.5 39.5s10 31.333 10 48c0 17.333 -3.33301 33.5 -10 48.5s-15.5 27.833 -26.5 38.5s-24 19.334 -39 26.001s-31.167 10 -48.5 10s-33.333 -3.33301 -48 -10
s-27.5 -15.334 -38.5 -26.001s-19.667 -23.5 -26 -38.5s-9.5 -31.167 -9.5 -48.5z" />
    <glyph glyph-name="plusminus" unicode="&#xb1;" horiz-adv-x="580" 
d="M300 564v-210h222v-21h-222v-211h-22v211h-220v21h220v210h22zM58 60h464v-20h-464v20z" />
    <glyph glyph-name="uni00B2" unicode="&#xb2;" horiz-adv-x="334" 
d="M168 808c13.333 0 26.002 -2.00293 38.002 -6.00293s22.667 -10 32 -18s16.833 -18 22.5 -30s8.5 -26 8.5 -42c0 -13.333 -2.16699 -25.666 -6.5 -36.999s-9.83301 -22.333 -16.5 -33s-14.667 -20.834 -24 -30.501c-9.33301 -9 -19.333 -18.833 -30 -29.5l-114 -116
c9.33301 2 20.666 3 33.999 3h159c4.66699 0 7 -2.33301 7 -7v-12h-228v7c0 4 1.66699 7.33301 5 10l121 123c10 10 19.5 19.833 28.5 29.5s16.667 19.334 23 29.001s11.333 19.667 15 30s5.5 21.5 5.5 33.5c0 13.333 -2.33301 25 -7 35s-10.667 18 -18 24
s-15.833 10.667 -25.5 14c-9 3.33301 -18.833 5 -29.5 5c-23.333 0 -42.5 -6.66699 -57.5 -20s-24.833 -30.666 -29.5 -51.999c-0.666992 -4.66699 -4.33398 -7 -11.001 -7l-11 2c2 14.667 6 27.834 12 39.501s13.833 21.5 23.5 29.5s20.667 14.333 33 19s25.833 7 40.5 7z
" />
    <glyph glyph-name="uni00B3" unicode="&#xb3;" horiz-adv-x="334" 
d="M168 808c13.333 0 26.001 -2.00098 38.001 -6.00098s22.667 -9.66699 32 -17s16.666 -16.5 21.999 -27.5c5.33301 -11.667 8 -24.834 8 -39.501c0 -12 -2 -22.5 -6 -31.5s-9 -17 -15 -24s-13.5 -13.167 -22.5 -18.5s-18.5 -9 -28.5 -11
c26.667 -4.66699 46.834 -14.5 60.501 -29.5c13.667 -15.667 20.5 -34.834 20.5 -57.501c0 -14.667 -2.83301 -28 -8.5 -40s-13.667 -22.5 -24 -31.5s-22.333 -16 -36 -21s-28.5 -7.5 -44.5 -7.5c-20 0 -37 2.66699 -51 8s-25.167 12.333 -33.5 21
s-14.833 18.334 -19.5 29.001c-5.33301 10.667 -9.33301 21.334 -12 32.001l8 4c2.66699 1.33301 5.33398 1.66602 8.00098 0.999023s4.66699 -3 6 -7c1.33301 -2.66699 3.16602 -7.66699 5.49902 -15s6.66602 -15.166 12.999 -23.499s15.5 -15.666 27.5 -21.999
s27.667 -9.5 47 -9.5c15.333 0 28.666 2.33301 39.999 7s21 11 29 19s14 17 18 27s6 19.667 6 29c0 11.333 -2 21.666 -6 30.999s-10 17.5 -18 24.5s-18.667 12.5 -32 16.5s-29.333 6 -48 6v14c30.667 1.33301 54.167 8.83301 70.5 22.5
c16.333 14.333 24.5 32.833 24.5 55.5c0 12.667 -2.16699 23.5 -6.5 32.5s-10.166 16.5 -17.499 22.5s-15.666 10.667 -24.999 14s-19.333 5 -30 5c-23.333 0 -42.5 -6.66699 -57.5 -20s-24.5 -30.666 -28.5 -51.999c-1.33301 -4.66699 -5 -7 -11 -7l-11 2
c4 30 15.667 53.333 35 70s43.666 25 72.999 25z" />
    <glyph glyph-name="acute" unicode="&#xb4;" 
d="M296 711l-104 -125c-2.66699 -4 -6.66699 -6 -12 -6h-16l80 118c3.33301 5.33301 6.5 8.83301 9.5 10.5s7.83301 2.5 14.5 2.5h28z" />
    <glyph glyph-name="mu" unicode="&#xb5;" horiz-adv-x="629" 
d="M131 493l-0.00292969 -313c0 -25.333 2.83301 -48.333 8.5 -69s14.5 -38 26.5 -52s26.833 -24.667 44.5 -32s38.5 -11 62.5 -11c36.667 0 70.334 9.66699 101.001 29s57.334 46.333 80.001 81v367h26v-383c0 -16 2.33301 -30 7 -42s11.334 -21.667 20.001 -29
s19 -13 31 -17s24.667 -6 38 -6h18v-10c0 -2.66699 -2.5 -5 -7.5 -7s-12.5 -3 -22.5 -3c-13.333 0 -26.333 2 -39 6s-24 10.333 -34 19s-18 19.5 -24 32.5s-9.66699 28.833 -11 47.5c-22.667 -33.333 -49.667 -59.5 -81 -78.5s-65.666 -28.5 -102.999 -28.5
c-38.667 0 -69.834 8.33301 -93.501 25c-23 16.667 -39.833 40.667 -50.5 72c0.666992 -15.333 1.16699 -31.333 1.5 -48s0.5 -31.667 0.5 -45v-176h-13c-4 0 -7.16699 1 -9.5 3s-3.5 5 -3.5 9v659h27z" />
    <glyph glyph-name="paragraph" unicode="&#xb6;" horiz-adv-x="634" 
d="M599 680l-114 -0.000976562v-772h-25v772h-176v-772h-25v452c-34.667 0 -65.5 4.33301 -92.5 13s-49.833 21 -68.5 37s-33 34.667 -43 56s-15 44.666 -15 69.999s5 48.333 15 69s24.333 38.334 43 53.001s41.667 25.834 69 33.501s58 11.5 92 11.5h340v-23z" />
    <glyph glyph-name="periodcentered" unicode="&#xb7;" horiz-adv-x="233" 
d="M78 296c0 10.667 3.83105 19.667 11.498 27c8.33301 7.33301 17.166 11 26.499 11c10.667 0 19.834 -3.66699 27.501 -11s11.5 -16.333 11.5 -27c0 -5.33301 -1.16699 -10.333 -3.5 -15s-5.16602 -8.66699 -8.49902 -12s-7.33301 -6 -12 -8s-9.66699 -3 -15 -3
s-10.166 1 -14.499 3s-8.33301 4.66699 -12 8s-6.5 7.33301 -8.5 12s-3 9.66699 -3 15z" />
    <glyph glyph-name="periodcentered" unicode="&#x2219;" horiz-adv-x="233" 
d="M78 296c0 10.667 3.83105 19.667 11.498 27c8.33301 7.33301 17.166 11 26.499 11c10.667 0 19.834 -3.66699 27.501 -11s11.5 -16.333 11.5 -27c0 -5.33301 -1.16699 -10.333 -3.5 -15s-5.16602 -8.66699 -8.49902 -12s-7.33301 -6 -12 -8s-9.66699 -3 -15 -3
s-10.166 1 -14.499 3s-8.33301 4.66699 -12 8s-6.5 7.33301 -8.5 12s-3 9.66699 -3 15z" />
    <glyph glyph-name="cedilla" unicode="&#xb8;" 
d="M142 -144c1.33301 0 3.66309 -0.99707 6.99609 -2.99707s7.33301 -4.33301 12 -7s10.834 -5 18.501 -7s16.834 -3 27.501 -3c18.667 0 33.334 4 44.001 12s16 19.333 16 34c0 9.33301 -2.5 17.166 -7.5 23.499s-11.5 11.5 -19.5 15.5s-17.667 7.16699 -29 9.5
s-23.666 4.16602 -36.999 5.49902l21 66h17l-16 -54c14.667 -2.66699 27.667 -5.5 39 -8.5s21 -7 29 -12s14.167 -11.167 18.5 -18.5s6.5 -16 6.5 -26c0 -20 -7.83301 -35.333 -23.5 -46s-35.5 -16 -59.5 -16c-13.333 0 -26.833 2.16699 -40.5 6.5
s-24.5 10.166 -32.5 17.499l3 7c1.33301 2.66699 3.33301 4 6 4z" />
    <glyph glyph-name="uni00B9" unicode="&#xb9;" horiz-adv-x="334" 
d="M90 465h82v296l2 17l-82 -72c-1.33301 -1.33301 -3 -2 -5 -2s-3.66699 0.666992 -5 2l-6 9l102 91h16v-341h78v-15h-182v15z" />
    <glyph glyph-name="ordmasculine" unicode="&#xba;" horiz-adv-x="405" 
d="M203 710c21.333 0 40.5 -3.66602 57.5 -10.999s31.5 -17.333 43.5 -30s21 -28.334 27 -47.001s9 -39 9 -61c0 -22.667 -3 -43.167 -9 -61.5s-15 -33.833 -27 -46.5s-26.333 -22.5 -43 -29.5s-36 -10.5 -58 -10.5s-41.5 3.5 -58.5 10.5s-31.333 16.833 -43 29.5
s-20.5 28.167 -26.5 46.5s-9 38.833 -9 61.5s3 43.167 9 61.5s14.833 33.833 26.5 46.5s26 22.667 43 30s36.5 11 58.5 11zM203 430.001c18.667 0 35.3311 3 49.998 9s26.834 14.667 36.501 26s17 25.166 22 41.499s7.5 34.5 7.5 54.5s-2.5 38.167 -7.5 54.5
s-12.333 30.166 -22 41.499s-21.667 20.166 -36 26.499s-31.166 9.5 -50.499 9.5s-36.333 -3.16699 -51 -9.5s-26.834 -15.166 -36.501 -26.499s-17 -25.166 -22 -41.499s-7.5 -34.5 -7.5 -54.5s2.5 -38.167 7.5 -54.5s12.333 -30.166 22 -41.499s21.834 -20 36.501 -26
s31.667 -9 51 -9z" />
    <glyph glyph-name="guillemotright" unicode="&#xbb;" horiz-adv-x="381" 
d="M205 258v-2.99805l-119 -187l-7 4c-2.66699 1.33301 -4.5 3.66602 -5.5 6.99902s-0.166992 6.66602 2.5 9.99902l98 155c2 4 3.83301 7 5.5 9s3.16699 3 4.5 3c-1.33301 1.33301 -2.83301 3 -4.5 5s-3.5 4.66699 -5.5 8l-98 155c-4.66699 8 -3.66699 13.667 3 17l7 5z
M322 258.002v-2.99805l-119 -187l-7 4c-2.66699 1.33301 -4.5 3.66602 -5.5 6.99902s-0.166992 6.66602 2.5 9.99902l98 155c2 4 3.83301 7 5.5 9s3.16699 3 4.5 3c-1.33301 1.33301 -2.83301 3 -4.5 5s-3.5 4.66699 -5.5 8l-98 155c-4.66699 8 -3.66699 13.667 3 17l7 5z
" />
    <glyph glyph-name="onequarter" unicode="&#xbc;" horiz-adv-x="717" 
d="M178 10c-2.66699 -4 -5.5 -6.66797 -8.5 -8.00098s-6.16699 -2 -9.5 -2h-12l396 692c3.33301 6.66699 9 10.334 17 11.001h12zM70 364.999h82v296l2 17l-82 -72c-1.33301 -1.33301 -3 -2 -5 -2s-3.66699 0.666992 -5 2l-6 9l102 91h16v-341h78v-15h-182v15zM606 117.999
h68v-10c0 -4 -2 -6 -6 -6h-62v-102h-18v102h-168c-5.33301 0 -8.33301 2 -9 6l-2 9l179 237h18v-236zM588 309.999c0 5.33301 0.666992 11.667 2 19l-159 -211h157v192z" />
    <glyph glyph-name="onehalf" unicode="&#xbd;" horiz-adv-x="707" 
d="M156 10c-2.66699 -4 -5.5 -6.66797 -8.5 -8.00098s-6.16699 -2 -9.5 -2h-12l396 692c3.33301 6.66699 9 10.334 17 11.001h12zM72 364.999h82v296l2 17l-82 -72c-1.33301 -1.33301 -3 -2 -5 -2s-3.66699 0.666992 -5 2l-6 9l102 91h16v-341h78v-15h-182v15zM546 357.999
c13.333 0 26.002 -2.00293 38.002 -6.00293s22.667 -10 32 -18s16.833 -18 22.5 -30s8.5 -26 8.5 -42c0 -13.333 -2.16699 -25.666 -6.5 -36.999s-9.83301 -22.333 -16.5 -33s-14.667 -20.834 -24 -30.501c-9.33301 -9 -19.333 -18.833 -30 -29.5l-114 -116
c9.33301 2 20.666 3 33.999 3h159c4.66699 0 7 -2.33301 7 -7v-12h-228v7c0 4 1.66699 7.33301 5 10l121 123c10 10 19.5 19.833 28.5 29.5s16.667 19.334 23 29.001s11.333 19.667 15 30s5.5 21.5 5.5 33.5c0 13.333 -2.33301 25 -7 35s-10.667 18 -18 24
s-15.833 10.667 -25.5 14c-9 3.33301 -18.833 5 -29.5 5c-23.333 0 -42.5 -6.66699 -57.5 -20s-24.833 -30.666 -29.5 -51.999c-0.666992 -4.66699 -4.33398 -7 -11.001 -7l-11 2c2 14.667 6 27.834 12 39.501s13.833 21.5 23.5 29.5s20.667 14.333 33 19s25.833 7 40.5 7z
" />
    <glyph glyph-name="threequarters" unicode="&#xbe;" horiz-adv-x="727" 
d="M194 10c-2.66699 -4 -5.5 -6.66797 -8.5 -8.00098s-6.16699 -2 -9.5 -2h-12l396 692c3.33301 6.66699 9 10.334 17 11.001h12zM174 707.999c13.333 0 26.001 -2.00098 38.001 -6.00098s22.667 -9.66699 32 -17s16.666 -16.5 21.999 -27.5
c5.33301 -11.667 8 -24.834 8 -39.501c0 -12 -2 -22.5 -6 -31.5s-9 -17 -15 -24s-13.5 -13.167 -22.5 -18.5s-18.5 -9 -28.5 -11c26.667 -4.66699 46.834 -14.5 60.501 -29.5c13.667 -15.667 20.5 -34.834 20.5 -57.501c0 -14.667 -2.83301 -28 -8.5 -40
s-13.667 -22.5 -24 -31.5s-22.333 -16 -36 -21s-28.5 -7.5 -44.5 -7.5c-20 0 -37 2.66699 -51 8s-25.167 12.333 -33.5 21s-14.833 18.334 -19.5 29.001c-5.33301 10.667 -9.33301 21.334 -12 32.001l8 4c2.66699 1.33301 5.33398 1.66602 8.00098 0.999023s4.66699 -3 6 -7
c1.33301 -2.66699 3.16602 -7.66699 5.49902 -15s6.66602 -15.166 12.999 -23.499s15.5 -15.666 27.5 -21.999s27.667 -9.5 47 -9.5c15.333 0 28.666 2.33301 39.999 7s21 11 29 19s14 17 18 27s6 19.667 6 29c0 11.333 -2 21.666 -6 30.999s-10 17.5 -18 24.5
s-18.667 12.5 -32 16.5s-29.333 6 -48 6v14c30.667 1.33301 54.167 8.83301 70.5 22.5c16.333 14.333 24.5 32.833 24.5 55.5c0 12.667 -2.16699 23.5 -6.5 32.5s-10.166 16.5 -17.499 22.5s-15.666 10.667 -24.999 14s-19.333 5 -30 5c-23.333 0 -42.5 -6.66699 -57.5 -20
s-24.5 -30.666 -28.5 -51.999c-1.33301 -4.66699 -5 -7 -11 -7l-11 2c4 30 15.667 53.333 35 70s43.666 25 72.999 25zM616.001 117.998h68v-10c0 -4 -2 -6 -6 -6h-62v-102h-18v102h-168c-5.33301 0 -8.33301 2 -9 6l-2 9l179 237h18v-236zM598.001 309.998
c0 5.33301 0.666992 11.667 2 19l-159 -211h157v192z" />
    <glyph glyph-name="questiondown" unicode="&#xbf;" horiz-adv-x="412" 
d="M368 -115c-8 -8.66699 -17.3291 -17.1689 -27.9961 -25.502s-22.334 -15.666 -35.001 -21.999s-26.667 -11.5 -42 -15.5s-32.333 -6 -51 -6c-21.333 0 -42 3.33301 -62 10s-37.5 16.334 -52.5 29.001s-27 28 -36 46s-13.5 38.333 -13.5 61c0 25.333 4 46.833 12 64.5
s18.167 33 30.5 46s25.666 24.333 39.999 34s27.5 18.834 39.5 27.501s22.333 17.5 31 26.5s13 19.5 13 31.5l5 84h17l2 -86c0 -10 -2.33301 -19.167 -7 -27.5s-10.834 -15.833 -18.501 -22.5s-16.334 -13.334 -26.001 -20.001s-19.834 -13.667 -30.501 -21
s-21 -15.166 -31 -23.499s-18.667 -18 -26 -29s-13.5 -23.167 -18.5 -36.5s-7.5 -29 -7.5 -47c0 -20 3.83301 -37.667 11.5 -53s18.167 -28.333 31.5 -39s28.333 -18.834 45 -24.501s34.334 -8.5 53.001 -8.5c22.667 0 42.5 3.16699 59.5 9.5s31.333 13.333 43 21
s20.5 14.667 26.5 21s10 9.5 12 9.5c2.66699 0 5 -1.33301 7 -4zM190.004 461.998c0 10.667 3.66699 19.834 11 27.501s16.333 11.5 27 11.5s19.667 -3.83301 27 -11.5s11 -16.834 11 -27.501s-3.66699 -19.5 -11 -26.5s-16.333 -10.5 -27 -10.5s-19.667 3.5 -27 10.5
s-11 15.833 -11 26.5z" />
    <glyph glyph-name="Agrave" unicode="&#xc0;" horiz-adv-x="644" 
d="M626 0h-21c-5.33301 0 -9 2.66699 -11 8l-92 223h-360l-92 -223c-1.33301 -5.33301 -5.33301 -8 -12 -8h-20l291 703h27zM150 252h344l-162 392c-1.33301 4.66699 -3 9.16699 -5 13.5s-3.66699 9.5 -5 15.5c-1.33301 -5.33301 -3 -10.5 -5 -15.5s-3.66699 -9.5 -5 -13.5z
M221 918c6.66699 0 11.668 -0.667969 15.001 -2.00098s6.66602 -3.66602 9.99902 -6.99902l123 -139h-17c-2.66699 0 -5 0.166992 -7 0.5s-4 1.5 -6 3.5l-150 144h32z" />
    <glyph glyph-name="Aacute" unicode="&#xc1;" horiz-adv-x="644" 
d="M626 0h-21c-5.33301 0 -9 2.66699 -11 8l-92 223h-360l-92 -223c-1.33301 -5.33301 -5.33301 -8 -12 -8h-20l291 703h27zM150 252h344l-162 392c-1.33301 4.66699 -3 9.16699 -5 13.5s-3.66699 9.5 -5 15.5c-1.33301 -5.33301 -3 -10.5 -5 -15.5s-3.66699 -9.5 -5 -13.5z
M473 918l-165 -144c-3.33301 -2.66699 -7.66602 -4 -12.999 -4h-17l136 139c3.33301 4 6.66602 6.5 9.99902 7.5s8.33301 1.5 15 1.5h34z" />
    <glyph glyph-name="Acircumflex" unicode="&#xc2;" horiz-adv-x="644" 
d="M626 0h-21c-5.33301 0 -9 2.66699 -11 8l-92 223h-360l-92 -223c-1.33301 -5.33301 -5.33301 -8 -12 -8h-20l291 703h27zM150 252h344l-162 392c-1.33301 4.66699 -3 9.16699 -5 13.5s-3.66699 9.5 -5 15.5c-1.33301 -5.33301 -3 -10.5 -5 -15.5s-3.66699 -9.5 -5 -13.5z
M450 770h-20c-2 0 -4.33301 0.333008 -7 1c-2 0.666992 -4.33301 2.33398 -7 5.00098l-92 104l-2 4l-2 -4l-92 -104c-2.66699 -2.66699 -5 -4.33398 -7 -5.00098s-4.33301 -1 -7 -1h-19l117 132h21z" />
    <glyph glyph-name="Atilde" unicode="&#xc3;" horiz-adv-x="644" 
d="M626 0h-21c-5.33301 0 -9 2.66699 -11 8l-92 223h-360l-92 -223c-1.33301 -5.33301 -5.33301 -8 -12 -8h-20l291 703h27zM150 252h344l-162 392c-1.33301 4.66699 -3 9.16699 -5 13.5s-3.66699 9.5 -5 15.5c-1.33301 -5.33301 -3 -10.5 -5 -15.5s-3.66699 -9.5 -5 -13.5z
M386 796c16 0 28.6689 5.33301 38.002 16s14.666 24 15.999 40h16c0 -10 -1.5 -19.5 -4.5 -28.5s-7.33301 -17 -13 -24s-12.834 -12.5 -21.501 -16.5s-18.334 -6 -29.001 -6c-12 0 -23.333 3 -34 9s-21 12.5 -31 19.5s-19.833 13.5 -29.5 19.5
c-10.333 6 -20.166 9 -29.499 9c-8 0 -15.167 -1.5 -21.5 -4.5s-11.833 -7 -16.5 -12s-8.16699 -11 -10.5 -18s-3.83301 -14.167 -4.5 -21.5h-17c0 10 1.5 19.5 4.5 28.5s7.5 17 13.5 24s13.167 12.5 21.5 16.5s17.833 6 28.5 6c12 0 23.333 -3 34 -9s21 -12.5 31 -19.5
s20 -13.5 30 -19.5s19.667 -9 29 -9z" />
    <glyph glyph-name="Adieresis" unicode="&#xc4;" horiz-adv-x="644" 
d="M626 0h-21c-5.33301 0 -9 2.66699 -11 8l-92 223h-360l-92 -223c-1.33301 -5.33301 -5.33301 -8 -12 -8h-20l291 703h27zM150 252h344l-162 392c-1.33301 4.66699 -3 9.16699 -5 13.5s-3.66699 9.5 -5 15.5c-1.33301 -5.33301 -3 -10.5 -5 -15.5s-3.66699 -9.5 -5 -13.5z
M260 832c0 -8 -3.33301 -15.333 -10 -22s-14 -10 -22 -10c-4 0 -8.16699 1 -12.5 3s-8 4.33301 -11 7s-5.5 6 -7.5 10s-3 8 -3 12c0 9.33301 3.33301 17.333 10 24s14.667 10 24 10c8.66699 0 16.167 -3.33301 22.5 -10s9.5 -14.667 9.5 -24zM450 832
c0 -8 -3.5 -15.333 -10.5 -22c-7.66699 -6.66699 -15.5 -10 -23.5 -10c-9.33301 0 -17 3.33301 -23 10s-9 14 -9 22c0 9.33301 3.16699 17.333 9.5 24c5.66699 6.66699 13.167 10 22.5 10c8 0 15.667 -3.33301 23 -10s11 -14.667 11 -24z" />
    <glyph glyph-name="Aring" unicode="&#xc5;" horiz-adv-x="644" 
d="M626 0h-21c-5.33301 0 -9 2.66699 -11 8l-92 223h-360l-92 -223c-1.33301 -5.33301 -5.33301 -8 -12 -8h-20l291 703h27zM150 252h344l-162 392c-1.33301 4.66699 -3 9.16699 -5 13.5s-3.66699 9.5 -5 15.5c-1.33301 -5.33301 -3 -10.5 -5 -15.5s-3.66699 -9.5 -5 -13.5z
M244 839c0 10.667 2 20.5 6 29.5s9.66699 16.833 17 23.5s15.666 12 24.999 16s19.333 6 30 6s20.667 -2 30 -6s17.666 -9.33301 24.999 -16s13 -14.5 17 -23.5s6 -18.833 6 -29.5s-2 -20.5 -6 -29.5s-9.66699 -16.833 -17 -23.5s-15.666 -12 -24.999 -16s-19.333 -6 -30 -6
s-20.667 2 -30 6s-17.666 9.33301 -24.999 16s-13 14.5 -17 23.5s-6 18.833 -6 29.5zM262 839c0 -8.66699 1.3291 -16.667 3.99609 -24s6.66699 -13.666 12 -18.999s11.833 -9.66602 19.5 -12.999s15.834 -5 24.501 -5s16.834 1.66699 24.501 5s14.167 7.66602 19.5 12.999
s9.33301 11.666 12 18.999s4 15.333 4 24c0 17.333 -5.66699 31.833 -17 43.5s-25.666 17.5 -42.999 17.5s-31.666 -5.83301 -42.999 -17.5s-17 -26.167 -17 -43.5z" />
    <glyph glyph-name="AE" unicode="&#xc6;" horiz-adv-x="926" 
d="M871 680h-425l40 -312h324v-23h-321l41 -321h342l-1 -24h-363l-30 231h-308l-126 -223c-2.66699 -5.33301 -6.66699 -8 -12 -8h-22l397 703h464v-23zM182 252h293l-55 429c-1.33301 -6.66699 -3.33301 -12.667 -6 -18s-6 -11 -10 -17z" />
    <glyph glyph-name="Ccedilla" unicode="&#xc7;" horiz-adv-x="680" 
d="M336 -144c1.33301 0 3.49121 -0.991211 6.49121 -2.99121s7 -4.33301 12 -7s11.167 -5 18.5 -7s16.333 -3 27 -3c18.667 0 33.334 4 44.001 12s16 19.333 16 34c0 9.33301 -2.33301 17.166 -7 23.499s-11.167 11.5 -19.5 15.5s-18.166 7.16699 -29.499 9.5
c-10.667 2.33301 -22.667 4.16602 -36 5.49902l17 56c-46.667 1.33301 -89.667 10.5 -129 27.5s-73.166 41 -101.499 72s-50.5 68.5 -66.5 112.5s-24 93.333 -24 148c0 53.333 8.16699 102 24.5 146s39.333 81.833 69 113.5s65.334 56.167 107.001 73.5s87.5 26 137.5 26
c46.667 0 88.334 -7.16699 125.001 -21.5s70.334 -34.833 101.001 -61.5l-7 -12c-1.33301 -2.66699 -4 -3.66699 -8 -3c-2 0 -5.33301 1.83301 -10 5.5s-11 8.16699 -19 13.5s-17.667 11.333 -29 18s-24.333 12.667 -39 18s-31.667 10 -51 14s-40.333 6 -63 6
c-45.333 0 -87 -8 -125 -24s-70.667 -38.333 -98 -67s-48.666 -63.834 -63.999 -105.501c-15.333 -41 -23 -87.5 -23 -139.5c0 -52.667 7.66699 -99.834 23 -141.501s36.5 -76.834 63.5 -105.501s58.833 -50.667 95.5 -66c37.333 -15.333 77.333 -23 120 -23
c26.667 0 50.667 1.66699 72 5s41 8.66602 59 15.999s34.5 16.333 49.5 27c15.667 10.667 30.834 23 45.501 37c2.66699 2 4.66699 3 6 3s3.33301 -0.666992 6 -2l10 -11c-14.667 -14.667 -30 -27.834 -46 -39.501s-33.833 -21.834 -53.5 -30.501s-41 -15.5 -64 -20.5
s-48.5 -7.83301 -76.5 -8.5l-13 -44c14.667 -2.66699 27.834 -5.5 39.501 -8.5s21.5 -7 29.5 -12s14 -11.167 18 -18.5s6 -16 6 -26c0 -20 -7.66699 -35.333 -23 -46s-35.333 -16 -60 -16c-13.333 0 -26.833 2.16699 -40.5 6.5s-24.5 10.166 -32.5 17.499l4 7
c2 2.66699 4 4 6 4z" />
    <glyph glyph-name="Egrave" unicode="&#xc8;" horiz-adv-x="581" 
d="M526 703v-23h-387v-312h327v-23h-327v-321h389l-2 -24h-414v703h414zM222 918c6.66699 0 11.668 -0.667969 15.001 -2.00098s6.66602 -3.66602 9.99902 -6.99902l123 -139h-17c-2.66699 0 -5 0.166992 -7 0.5s-4 1.5 -6 3.5l-150 144h32z" />
    <glyph glyph-name="Eacute" unicode="&#xc9;" horiz-adv-x="581" 
d="M526 703v-23h-387v-312h327v-23h-327v-321h389l-2 -24h-414v703h414zM474 918l-165 -144c-3.33301 -2.66699 -7.66602 -4 -12.999 -4h-17l136 139c3.33301 4 6.66602 6.5 9.99902 7.5s8.33301 1.5 15 1.5h34z" />
    <glyph glyph-name="Ecircumflex" unicode="&#xca;" horiz-adv-x="581" 
d="M526 703v-23h-387v-312h327v-23h-327v-321h389l-2 -24h-414v703h414zM451 770h-20c-2 0 -4.33301 0.333008 -7 1c-2 0.666992 -4.33301 2.33398 -7 5.00098l-92 104l-2 4l-2 -4l-92 -104c-2.66699 -2.66699 -5 -4.33398 -7 -5.00098s-4.33301 -1 -7 -1h-19l117 132h21z
" />
    <glyph glyph-name="Edieresis" unicode="&#xcb;" horiz-adv-x="581" 
d="M526 703v-23h-387v-312h327v-23h-327v-321h389l-2 -24h-414v703h414zM261 832c0 -8 -3.33301 -15.333 -10 -22s-14 -10 -22 -10c-4 0 -8.16699 1 -12.5 3s-8 4.33301 -11 7s-5.5 6 -7.5 10s-3 8 -3 12c0 9.33301 3.33301 17.333 10 24s14.667 10 24 10
c8.66699 0 16.167 -3.33301 22.5 -10s9.5 -14.667 9.5 -24zM451 832c0 -8 -3.5 -15.333 -10.5 -22c-7.66699 -6.66699 -15.5 -10 -23.5 -10c-9.33301 0 -17 3.33301 -23 10s-9 14 -9 22c0 9.33301 3.16699 17.333 9.5 24c5.66699 6.66699 13.167 10 22.5 10
c8 0 15.667 -3.33301 23 -10s11 -14.667 11 -24z" />
    <glyph glyph-name="Igrave" unicode="&#xcc;" horiz-adv-x="250" 
d="M139 0h-27v703h27v-703zM26 918c6.66699 0 11.668 -0.667969 15.001 -2.00098s6.66602 -3.66602 9.99902 -6.99902l123 -139h-17c-2.66699 0 -5 0.166992 -7 0.5s-4 1.5 -6 3.5l-150 144h32z" />
    <glyph glyph-name="Iacute" unicode="&#xcd;" horiz-adv-x="250" 
d="M139 0h-27v703h27v-703zM278 918l-165 -144c-3.33301 -2.66699 -7.66602 -4 -12.999 -4h-17l136 139c3.33301 4 6.66602 6.5 9.99902 7.5s8.33301 1.5 15 1.5h34z" />
    <glyph glyph-name="Icircumflex" unicode="&#xce;" horiz-adv-x="250" 
d="M139 0h-27v703h27v-703zM254 770h-20c-2 0 -4.33301 0.333008 -7 1c-2 0.666992 -4.33301 2.33398 -7 5.00098l-92 104l-2 4l-2 -4l-92 -104c-2.66699 -2.66699 -5 -4.33398 -7 -5.00098s-4.33301 -1 -7 -1h-19l117 132h21z" />
    <glyph glyph-name="Idieresis" unicode="&#xcf;" horiz-adv-x="250" 
d="M139 0h-27v703h27v-703zM64 832c0 -8 -3.33301 -15.333 -10 -22s-14 -10 -22 -10c-4 0 -8.16699 1 -12.5 3s-8 4.33301 -11 7s-5.5 6 -7.5 10s-3 8 -3 12c0 9.33301 3.33301 17.333 10 24s14.667 10 24 10c8.66699 0 16.167 -3.33301 22.5 -10s9.5 -14.667 9.5 -24z
M254 832c0 -8 -3.5 -15.333 -10.5 -22c-7.66699 -6.66699 -15.5 -10 -23.5 -10c-9.33301 0 -17 3.33301 -23 10s-9 14 -9 22c0 9.33301 3.16699 17.333 9.5 24c5.66699 6.66699 13.167 10 22.5 10c8 0 15.667 -3.33301 23 -10s11 -14.667 11 -24z" />
    <glyph glyph-name="Eth" unicode="&#xd0;" horiz-adv-x="765" 
d="M4 366l114 -0.000976562v337h252c49.333 0 94.166 -8 134.499 -24s75 -39.167 104 -69.5s51.5 -67.166 67.5 -110.499s24 -92.333 24 -147s-8 -104 -24 -148s-38.5 -81 -67.5 -111s-63.667 -53 -104 -69s-85.166 -24 -134.499 -24h-252v348h-114v18zM671 351.999
c0 52 -7.16602 98.333 -21.499 139s-34.833 75 -61.5 103s-58.334 49.333 -95.001 64s-77.667 22 -123 22h-225v-314h167v-18h-167v-326h225c44.667 0 85.5 7.33301 122.5 22s68.833 36 95.5 64s47.167 62.667 61.5 104s21.5 88 21.5 140z" />
    <glyph glyph-name="Ntilde" unicode="&#xd1;" horiz-adv-x="751" 
d="M124 703c2.66699 0 4.83301 -0.5 6.5 -1.5s3.5 -2.83301 5.5 -5.5l480 -649v8.5v8.5v639h24v-703h-12c-4 0 -7.66699 2 -11 6l-483 652c0 -3.33301 0.333008 -6.5 1 -9.5s1 -5.83301 1 -8.5v-640h-24v703h12zM451.999 795c16 0 28.833 5.5 38.5 16.5
s14.834 23.833 15.501 38.5h16c0 -10 -1.33301 -19.5 -4 -28.5s-7 -16.833 -13 -23.5s-13.333 -12 -22 -16s-18.334 -6 -29.001 -6c-12 0 -23.167 3 -33.5 9s-20.666 12.5 -30.999 19.5s-20.166 13.5 -29.499 19.5s-19 9 -29 9c-8 0 -15.167 -1.5 -21.5 -4.5
s-11.833 -7.16699 -16.5 -12.5s-8.33398 -11.333 -11.001 -18s-4 -13.667 -4 -21h-18c0 10 1.66699 19.5 5 28.5s8 17 14 24s13.167 12.5 21.5 16.5s17.833 6 28.5 6c12 0 23.167 -3 33.5 -9s20.666 -12.5 30.999 -19.5s20.333 -13.5 30 -19.5s19.167 -9 28.5 -9z" />
    <glyph glyph-name="Ograve" unicode="&#xd2;" horiz-adv-x="787" 
d="M722 352c0 -54.667 -7.99805 -104.333 -23.998 -149s-38.333 -82.5 -67 -113.5s-63.334 -54.833 -104.001 -71.5s-85.334 -25 -134.001 -25c-48 0 -92.167 8.33301 -132.5 25s-75.166 40.5 -104.499 71.5s-52 68.667 -68 113c-16 45 -24 94.833 -24 149.5s8 104 24 148
s38.667 81.667 68 113s64 55.5 104 72.5s84.333 25.5 133 25.5c49.333 0 94.166 -8.5 134.499 -25.5s74.833 -41 103.5 -72s51 -68.667 67 -113s24 -93.833 24 -148.5zM694.002 352.001c0 52 -7.33301 98.667 -22 140s-35.334 76.666 -62.001 105.999
s-58.334 51.666 -95.001 66.999s-77.334 23 -122.001 23c-44 0 -84.5 -7.66699 -121.5 -23s-68.667 -37.666 -95 -66.999s-47 -64.666 -62 -105.999s-22.5 -88 -22.5 -140s7.5 -99 22.5 -141s35.667 -77.333 62 -106s58 -50.667 95 -66s77.5 -23 121.5 -23
c44.667 0 85.334 7.66699 122.001 23s68.334 37.333 95.001 66s47.334 64 62.001 106s22 89 22 141zM293.002 918.001c6.66699 0 11.668 -0.667969 15.001 -2.00098s6.66602 -3.66602 9.99902 -6.99902l123 -139h-17c-2.66699 0 -5 0.166992 -7 0.5s-4 1.5 -6 3.5l-150 144
h32z" />
    <glyph glyph-name="Oacute" unicode="&#xd3;" horiz-adv-x="787" 
d="M722 352c0 -54.667 -7.99805 -104.333 -23.998 -149s-38.333 -82.5 -67 -113.5s-63.334 -54.833 -104.001 -71.5s-85.334 -25 -134.001 -25c-48 0 -92.167 8.33301 -132.5 25s-75.166 40.5 -104.499 71.5s-52 68.667 -68 113c-16 45 -24 94.833 -24 149.5s8 104 24 148
s38.667 81.667 68 113s64 55.5 104 72.5s84.333 25.5 133 25.5c49.333 0 94.166 -8.5 134.499 -25.5s74.833 -41 103.5 -72s51 -68.667 67 -113s24 -93.833 24 -148.5zM694.002 352.001c0 52 -7.33301 98.667 -22 140s-35.334 76.666 -62.001 105.999
s-58.334 51.666 -95.001 66.999s-77.334 23 -122.001 23c-44 0 -84.5 -7.66699 -121.5 -23s-68.667 -37.666 -95 -66.999s-47 -64.666 -62 -105.999s-22.5 -88 -22.5 -140s7.5 -99 22.5 -141s35.667 -77.333 62 -106s58 -50.667 95 -66s77.5 -23 121.5 -23
c44.667 0 85.334 7.66699 122.001 23s68.334 37.333 95.001 66s47.334 64 62.001 106s22 89 22 141zM545.002 918.001l-165 -144c-3.33301 -2.66699 -7.66602 -4 -12.999 -4h-17l136 139c3.33301 4 6.66602 6.5 9.99902 7.5s8.33301 1.5 15 1.5h34z" />
    <glyph glyph-name="Ocircumflex" unicode="&#xd4;" horiz-adv-x="787" 
d="M722 352c0 -54.667 -7.99805 -104.333 -23.998 -149s-38.333 -82.5 -67 -113.5s-63.334 -54.833 -104.001 -71.5s-85.334 -25 -134.001 -25c-48 0 -92.167 8.33301 -132.5 25s-75.166 40.5 -104.499 71.5s-52 68.667 -68 113c-16 45 -24 94.833 -24 149.5s8 104 24 148
s38.667 81.667 68 113s64 55.5 104 72.5s84.333 25.5 133 25.5c49.333 0 94.166 -8.5 134.499 -25.5s74.833 -41 103.5 -72s51 -68.667 67 -113s24 -93.833 24 -148.5zM694.002 352.001c0 52 -7.33301 98.667 -22 140s-35.334 76.666 -62.001 105.999
s-58.334 51.666 -95.001 66.999s-77.334 23 -122.001 23c-44 0 -84.5 -7.66699 -121.5 -23s-68.667 -37.666 -95 -66.999s-47 -64.666 -62 -105.999s-22.5 -88 -22.5 -140s7.5 -99 22.5 -141s35.667 -77.333 62 -106s58 -50.667 95 -66s77.5 -23 121.5 -23
c44.667 0 85.334 7.66699 122.001 23s68.334 37.333 95.001 66s47.334 64 62.001 106s22 89 22 141zM522.002 770.001h-20c-2 0 -4.33301 0.333008 -7 1c-2 0.666992 -4.33301 2.33398 -7 5.00098l-92 104l-2 4l-2 -4l-92 -104c-2.66699 -2.66699 -5 -4.33398 -7 -5.00098
s-4.33301 -1 -7 -1h-19l117 132h21z" />
    <glyph glyph-name="Otilde" unicode="&#xd5;" horiz-adv-x="787" 
d="M722 352c0 -54.667 -7.99805 -104.333 -23.998 -149s-38.333 -82.5 -67 -113.5s-63.334 -54.833 -104.001 -71.5s-85.334 -25 -134.001 -25c-48 0 -92.167 8.33301 -132.5 25s-75.166 40.5 -104.499 71.5s-52 68.667 -68 113c-16 45 -24 94.833 -24 149.5s8 104 24 148
s38.667 81.667 68 113s64 55.5 104 72.5s84.333 25.5 133 25.5c49.333 0 94.166 -8.5 134.499 -25.5s74.833 -41 103.5 -72s51 -68.667 67 -113s24 -93.833 24 -148.5zM694.002 352.001c0 52 -7.33301 98.667 -22 140s-35.334 76.666 -62.001 105.999
s-58.334 51.666 -95.001 66.999s-77.334 23 -122.001 23c-44 0 -84.5 -7.66699 -121.5 -23s-68.667 -37.666 -95 -66.999s-47 -64.666 -62 -105.999s-22.5 -88 -22.5 -140s7.5 -99 22.5 -141s35.667 -77.333 62 -106s58 -50.667 95 -66s77.5 -23 121.5 -23
c44.667 0 85.334 7.66699 122.001 23s68.334 37.333 95.001 66s47.334 64 62.001 106s22 89 22 141zM458.002 796.001c16 0 28.6689 5.33301 38.002 16s14.666 24 15.999 40h16c0 -10 -1.5 -19.5 -4.5 -28.5s-7.33301 -17 -13 -24s-12.834 -12.5 -21.501 -16.5
s-18.334 -6 -29.001 -6c-12 0 -23.333 3 -34 9s-21 12.5 -31 19.5s-19.833 13.5 -29.5 19.5c-10.333 6 -20.166 9 -29.499 9c-8 0 -15.167 -1.5 -21.5 -4.5s-11.833 -7 -16.5 -12s-8.16699 -11 -10.5 -18s-3.83301 -14.167 -4.5 -21.5h-17c0 10 1.5 19.5 4.5 28.5
s7.5 17 13.5 24s13.167 12.5 21.5 16.5s17.833 6 28.5 6c12 0 23.333 -3 34 -9s21 -12.5 31 -19.5s20 -13.5 30 -19.5s19.667 -9 29 -9z" />
    <glyph glyph-name="Odieresis" unicode="&#xd6;" horiz-adv-x="787" 
d="M722 352c0 -54.667 -7.99805 -104.333 -23.998 -149s-38.333 -82.5 -67 -113.5s-63.334 -54.833 -104.001 -71.5s-85.334 -25 -134.001 -25c-48 0 -92.167 8.33301 -132.5 25s-75.166 40.5 -104.499 71.5s-52 68.667 -68 113c-16 45 -24 94.833 -24 149.5s8 104 24 148
s38.667 81.667 68 113s64 55.5 104 72.5s84.333 25.5 133 25.5c49.333 0 94.166 -8.5 134.499 -25.5s74.833 -41 103.5 -72s51 -68.667 67 -113s24 -93.833 24 -148.5zM694.002 352.001c0 52 -7.33301 98.667 -22 140s-35.334 76.666 -62.001 105.999
s-58.334 51.666 -95.001 66.999s-77.334 23 -122.001 23c-44 0 -84.5 -7.66699 -121.5 -23s-68.667 -37.666 -95 -66.999s-47 -64.666 -62 -105.999s-22.5 -88 -22.5 -140s7.5 -99 22.5 -141s35.667 -77.333 62 -106s58 -50.667 95 -66s77.5 -23 121.5 -23
c44.667 0 85.334 7.66699 122.001 23s68.334 37.333 95.001 66s47.334 64 62.001 106s22 89 22 141zM332.002 832.001c0 -8 -3.33301 -15.333 -10 -22s-14 -10 -22 -10c-4 0 -8.16699 1 -12.5 3s-8 4.33301 -11 7s-5.5 6 -7.5 10s-3 8 -3 12c0 9.33301 3.33301 17.333 10 24
s14.667 10 24 10c8.66699 0 16.167 -3.33301 22.5 -10s9.5 -14.667 9.5 -24zM522.002 832.001c0 -8 -3.5 -15.333 -10.5 -22c-7.66699 -6.66699 -15.5 -10 -23.5 -10c-9.33301 0 -17 3.33301 -23 10s-9 14 -9 22c0 9.33301 3.16699 17.333 9.5 24
c5.66699 6.66699 13.167 10 22.5 10c8 0 15.667 -3.33301 23 -10s11 -14.667 11 -24z" />
    <glyph glyph-name="multiply" unicode="&#xd7;" horiz-adv-x="580" 
d="M495 524l-189 -189l190 -191l-14 -14l-192 190l-192 -192l-14 15l192 192l-191 190l15 15l190 -190l190 190z" />
    <glyph glyph-name="Oslash" unicode="&#xd8;" horiz-adv-x="787" 
d="M722 352c0 -54.667 -7.99805 -104.332 -23.998 -148.999s-38.333 -82.5 -67 -113.5s-63.334 -54.833 -104.001 -71.5s-85.334 -25 -134.001 -25c-39.333 0 -76 5.5 -110 16.5s-64.667 27.167 -92 48.5l-74 -100c-2.66699 -4 -5.66699 -6.66699 -9 -8
s-6.66602 -2 -9.99902 -2h-13l91 122c-35.333 31.333 -62.833 70.833 -82.5 118.5s-29.5 102.167 -29.5 163.5c0 54.667 8 104 24 148s38.667 81.667 68 113s64 55.5 104 72.5s84.333 25.5 133 25.5c41.333 0 79.5 -6 114.5 -18c35 -12.667 66.5 -30.334 94.5 -53.001l64 86
c2.66699 3.33301 5 5.66602 7 6.99902s5 2 9 2h16l-81 -107c33.333 -31.333 59.166 -70.166 77.499 -116.499s27.5 -99.5 27.5 -159.5zM92.002 352.002c0 -57.333 8.66895 -108.002 26.002 -152.002s41.666 -80.333 72.999 -109l396 529c-25.333 22 -54.333 38.833 -87 50.5
s-68.334 17.5 -107.001 17.5c-44 0 -84.5 -7.66699 -121.5 -23s-68.667 -37.666 -95 -66.999s-47 -64.666 -62 -105.999s-22.5 -88 -22.5 -140zM694.004 352c0 55.333 -8.00195 104.168 -24.002 146.501s-38.667 78.166 -68 107.499l-396 -528
c25.333 -20 53.666 -35.333 84.999 -46s65.333 -16 102 -16c44.667 0 85.334 7.66699 122.001 23s68.334 37.333 95.001 66s47.334 64 62.001 106s22 89 22 141z" />
    <glyph glyph-name="Ugrave" unicode="&#xd9;" horiz-adv-x="723" 
d="M362 16c36 0 68.3311 6.33301 96.998 19s52.834 30.334 72.501 53.001s34.667 49 45 79s15.5 62.333 15.5 97v439h28v-439c0 -38 -6 -73.5 -18 -106.5s-29.167 -61.833 -51.5 -86.5s-49.333 -44.167 -81 -58.5s-67.5 -21.5 -107.5 -21.5s-76 7.16699 -108 21.5
s-59.333 33.833 -82 58.5s-40 53.5 -52 86.5s-18 68.5 -18 106.5v439h28v-438c0 -34.667 5.33301 -67.167 16 -97.5s25.834 -56.833 45.501 -79.5s44 -40.334 73 -53.001s61.5 -19 97.5 -19zM259.998 918c6.66699 0 11.668 -0.667969 15.001 -2.00098
s6.66602 -3.66602 9.99902 -6.99902l123 -139h-17c-2.66699 0 -5 0.166992 -7 0.5s-4 1.5 -6 3.5l-150 144h32z" />
    <glyph glyph-name="Uacute" unicode="&#xda;" horiz-adv-x="723" 
d="M362 16c36 0 68.3311 6.33301 96.998 19s52.834 30.334 72.501 53.001s34.667 49 45 79s15.5 62.333 15.5 97v439h28v-439c0 -38 -6 -73.5 -18 -106.5s-29.167 -61.833 -51.5 -86.5s-49.333 -44.167 -81 -58.5s-67.5 -21.5 -107.5 -21.5s-76 7.16699 -108 21.5
s-59.333 33.833 -82 58.5s-40 53.5 -52 86.5s-18 68.5 -18 106.5v439h28v-438c0 -34.667 5.33301 -67.167 16 -97.5s25.834 -56.833 45.501 -79.5s44 -40.334 73 -53.001s61.5 -19 97.5 -19zM511.998 918l-165 -144c-3.33301 -2.66699 -7.66602 -4 -12.999 -4h-17l136 139
c3.33301 4 6.66602 6.5 9.99902 7.5s8.33301 1.5 15 1.5h34z" />
    <glyph glyph-name="Ucircumflex" unicode="&#xdb;" horiz-adv-x="723" 
d="M362 16c36 0 68.3311 6.33301 96.998 19s52.834 30.334 72.501 53.001s34.667 49 45 79s15.5 62.333 15.5 97v439h28v-439c0 -38 -6 -73.5 -18 -106.5s-29.167 -61.833 -51.5 -86.5s-49.333 -44.167 -81 -58.5s-67.5 -21.5 -107.5 -21.5s-76 7.16699 -108 21.5
s-59.333 33.833 -82 58.5s-40 53.5 -52 86.5s-18 68.5 -18 106.5v439h28v-438c0 -34.667 5.33301 -67.167 16 -97.5s25.834 -56.833 45.501 -79.5s44 -40.334 73 -53.001s61.5 -19 97.5 -19zM489.998 770h-20c-2 0 -4.33301 0.333008 -7 1
c-2 0.666992 -4.33301 2.33398 -7 5.00098l-92 104l-2 4l-2 -4l-92 -104c-2.66699 -2.66699 -5 -4.33398 -7 -5.00098s-4.33301 -1 -7 -1h-19l117 132h21z" />
    <glyph glyph-name="Udieresis" unicode="&#xdc;" horiz-adv-x="723" 
d="M362 16c36 0 68.3311 6.33301 96.998 19s52.834 30.334 72.501 53.001s34.667 49 45 79s15.5 62.333 15.5 97v439h28v-439c0 -38 -6 -73.5 -18 -106.5s-29.167 -61.833 -51.5 -86.5s-49.333 -44.167 -81 -58.5s-67.5 -21.5 -107.5 -21.5s-76 7.16699 -108 21.5
s-59.333 33.833 -82 58.5s-40 53.5 -52 86.5s-18 68.5 -18 106.5v439h28v-438c0 -34.667 5.33301 -67.167 16 -97.5s25.834 -56.833 45.501 -79.5s44 -40.334 73 -53.001s61.5 -19 97.5 -19zM299.998 832c0 -8 -3.33301 -15.333 -10 -22s-14 -10 -22 -10
c-4 0 -8.16699 1 -12.5 3s-8 4.33301 -11 7s-5.5 6 -7.5 10s-3 8 -3 12c0 9.33301 3.33301 17.333 10 24s14.667 10 24 10c8.66699 0 16.167 -3.33301 22.5 -10s9.5 -14.667 9.5 -24zM489.998 832c0 -8 -3.5 -15.333 -10.5 -22c-7.66699 -6.66699 -15.5 -10 -23.5 -10
c-9.33301 0 -17 3.33301 -23 10s-9 14 -9 22c0 9.33301 3.16699 17.333 9.5 24c5.66699 6.66699 13.167 10 22.5 10c8 0 15.667 -3.33301 23 -10s11 -14.667 11 -24z" />
    <glyph glyph-name="Yacute" unicode="&#xdd;" horiz-adv-x="580" 
d="M304 296l-0.000976562 -295.999h-28v296l-261 407h23c2.66699 0 5 -0.5 7 -1.5s3.66699 -2.83301 5 -5.5l223 -350c3.33301 -5.33301 6.33301 -10.666 9 -15.999l8 -16l8 16c2.66699 5.33301 5.66699 10.666 9 15.999l223 350
c2.66699 5.33301 6.33398 7.66602 11.001 6.99902h24zM440.999 918.001l-165 -144c-3.33301 -2.66699 -7.66602 -4 -12.999 -4h-17l136 139c3.33301 4 6.66602 6.5 9.99902 7.5s8.33301 1.5 15 1.5h34z" />
    <glyph glyph-name="Thorn" unicode="&#xde;" horiz-adv-x="566" 
d="M139 146l-0.000976562 -146.003h-27v703h27v-147h141c79.333 0 139.5 -17 180.5 -51s61.5 -85 61.5 -153c0 -29.333 -5.66699 -56.666 -17 -81.999s-27.666 -47.166 -48.999 -65.499s-47 -32.666 -77 -42.999s-63 -15.5 -99 -15.5h-141zM138.999 168.997l141 0.00195312
c33.333 0 63 4.66699 89 14s48.333 22.166 67 38.499s33 35.666 43 57.999c10 23 15 47.167 15 72.5c0 59.333 -17.833 104.5 -53.5 135.5c-35 31 -88.5 46.5 -160.5 46.5h-141v-365z" />
    </font>
</defs>
</svg>
