<?xml version="1.0" standalone="no"?>
<!DOCTYPE svg PUBLIC "-//W3C//DTD SVG 1.1//EN" "http://www.w3.org/Graphics/SVG/1.1/DTD/svg11.dtd" >
<svg version="1.1" xmlns="http://www.w3.org/2000/svg">
<metadata>
Created by FontForge 20120731 at Fri Aug  1 16:50:23 2014

Copyright (c) 2010-2014 by tyPoland Lukasz Dziedzic with Reserved Font Name "Lato". Licensed under the SIL Open Font License, Version 1.1. 
</metadata>
<defs>
<font id="lato" horiz-adv-x="368" >
  <font-face 
    font-family="Lato Light"
    font-weight="300"
    font-style="italic"
    font-stretch="normal"
    units-per-em="1000"
    panose-1="2 15 4 2 2 2 4 3 2 3"
    ascent="805"
    descent="-195"
    x-height="498"
    cap-height="708"
    bbox="-478.997 -264 1288 1054"
    underline-thickness="97"
    underline-position="-3"
    slope="-7"
    unicode-range="U+000D-FEFF"
  />
<missing-glyph horiz-adv-x="512" 
d="M131 567c6.66699 6.66699 14.3311 13 22.998 19s18 11.333 28 16s20.833 8.5 32.5 11.5s24.834 4.5 39.501 4.5c18 0 34.667 -2.66699 50 -8s28.833 -13 40.5 -23s20.667 -21.833 27 -35.5s9.5 -29.167 9.5 -46.5c0 -18.667 -2.83301 -34.5 -8.5 -47.5
s-12.5 -24.5 -20.5 -34.5s-16.833 -18.667 -26.5 -26s-18.667 -14.333 -27 -21s-15.666 -13.334 -21.999 -20.001s-9.83301 -14 -10.5 -22l-5 -57h-33l-2 61c-0.666992 10.667 1.5 19.834 6.5 27.501s11.667 15 20 22s17.333 14 27 21s18.834 15 27.501 24s15.667 19 21 30
c5.33301 10.333 8 23.5 8 39.5c0 12 -2.33301 22.667 -7 32s-10.834 17.333 -18.501 24s-16.667 11.667 -27 15s-21.5 5 -33.5 5c-15.333 0 -28.5 -1.83301 -39.5 -5.5s-20.333 -8 -28 -13s-13.667 -9.33301 -18 -13s-7.83301 -5.5 -10.5 -5.5
c-4 -0.666992 -7.33301 1 -10 5zM204.997 132c0 10.667 3.66797 20 11.001 28c8 8 17.333 12 28 12s19.667 -4 27 -12s11 -17.333 11 -28s-3.66699 -19.667 -11 -27s-16.333 -11 -27 -11s-19.834 3.66699 -27.501 11s-11.5 16.333 -11.5 27zM23.998 708h465v-708h-465v708z
M40.998 18h429v672h-429v-672z" />
    <glyph glyph-name="uniFB00" unicode="ff" horiz-adv-x="597" 
d="M450 482l148.001 0.000976562l-4 -34h-146l-54 -438l-20 -114c-4 -13.333 -12.333 -20.333 -25 -21h-17l70 573h-236l-52 -438l-22 -114c-4 -13.333 -12 -20.333 -24 -21h-17l69 571l-62 5c-8 2 -12 6.33301 -12 13l2 18h77l7 56c4 28 10.667 53 20 75
s21.166 40 35.499 54s30.666 24.667 48.999 32s37.833 11 58.5 11c9.33301 0 18.666 -0.833008 27.999 -2.5c9.33301 -1 17.666 -3.5 24.999 -7.5l-5 -24c-1.33301 -2.66699 -3 -4.33398 -5 -5.00098s-4.83301 -0.666992 -8.5 0s-8.16699 1.33398 -13.5 2.00098
s-11.666 1 -18.999 1c-14.667 0 -28.667 -2.33301 -42 -7s-25.166 -12.334 -35.499 -23.001s-19.166 -24.334 -26.499 -41.001s-12.666 -37.667 -15.999 -63l-8 -58h237l8 66c4 28 10.667 52.667 20 74s21.333 39.333 36 54s31 25.5 49 32.5s37.667 10.5 59 10.5
c9.33301 0 18.666 -0.833008 27.999 -2.5s17.666 -4.5 24.999 -8.5l-5 -24c-1.33301 -2.66699 -3 -4 -5 -4h-9c-4 0 -8.66699 0.5 -14 1.5s-11.333 1.5 -18 1.5c-15.333 0 -29.666 -2.5 -42.999 -7.5s-25.333 -12.833 -36 -23.5s-19.667 -24.667 -27 -42
c-8 -17.333 -13.333 -38.666 -16 -63.999z" />
    <glyph glyph-name="uniFB01" unicode="fi" horiz-adv-x="499" 
d="M170 482l270.002 -0.000976562l-60 -482h-47l55 446h-221l-54 -436l-21 -115c-4 -14 -12 -21 -24 -21h-18l70 572l-62 4c-8 1.33301 -12 5.33301 -12 12l2 20h77l5 42c4 30.667 11.667 58.334 23 83.001s26 45.334 44 62.001s39 29.5 63 38.5s50.667 13.5 80 13.5
c5.33301 0 11 -0.166992 17 -0.5s12 -1 18 -2s11.667 -2.16699 17 -3.5c5.33301 -2 10 -3.66699 14 -5l-4 -22c-0.666992 -2.66699 -2.33398 -4.33398 -5.00098 -5.00098s-6.16699 -0.666992 -10.5 0s-9.66602 1.33398 -15.999 2.00098c-5.66699 0.666992 -13.167 1 -22.5 1
c-48.667 0 -87.834 -13.333 -117.501 -40s-47.834 -67.334 -54.501 -122.001z" />
    <glyph glyph-name="uniFB02" unicode="fl" horiz-adv-x="521" 
d="M167 447l-53.999 -437l-21 -115c-4 -14 -12 -21 -24 -21h-18l70 572l-62 4c-8 1.33301 -12 5.33301 -12 12l2 20h77l4 33c4 29.333 11.5 56.5 22.5 81.5s25.167 46.5 42.5 64.5s38.166 32.333 62.499 43c25 10.667 52.167 16 81.5 16c22.667 0 44.667 -1.16699 66 -3.5
s41.333 -3.5 60 -3.5h26l-87 -713h-47l83 678c-16 0.666992 -32.5 1.83398 -49.5 3.50098s-33.5 2.5 -49.5 2.5c-22.667 0 -43.667 -3.83301 -63 -11.5s-36 -18.834 -50 -33.501s-25.667 -32.5 -35 -53.5s-15.333 -44.5 -18 -70.5l-4 -33h132l-4 -35h-131z" />
    <glyph glyph-name="uniFB03" unicode="ffi" horiz-adv-x="779" 
d="M715 448l-54.998 -447.999h-46l55 448h-222l-54 -438l-21 -115c-4 -14 -12 -21 -24 -21h-18l71 574h-235l-52 -438l-22 -114c-4 -13.333 -12 -20.333 -24 -21h-17l69 571l-62 5c-8 2 -12 6.33301 -12 13l2 18h77l7 56c4 28 10.667 53 20 75s21.166 40 35.499 54
s30.666 24.667 48.999 32s37.833 11 58.5 11c9.33301 0 18.666 -0.833008 27.999 -2.5c9.33301 -1 17.666 -3.5 24.999 -7.5l-5 -24c-1.33301 -2.66699 -3 -4.33398 -5 -5.00098s-4.83301 -0.666992 -8.5 0s-8.16699 1.33398 -13.5 2.00098s-11.666 1 -18.999 1
c-14.667 0 -28.667 -2.33301 -42 -7s-25.166 -12.334 -35.499 -23.001s-19.166 -24.334 -26.499 -41.001s-12.666 -37.667 -15.999 -63l-8 -58h236l5 42c4 30.667 11.667 58.334 23 83.001s26 45.334 44 62.001s39 29.5 63 38.5s50.667 13.5 80 13.5
c5.33301 0 11 -0.166992 17 -0.5s12 -1 18 -2s11.667 -2.16699 17 -3.5c5.33301 -2 10 -3.66699 14 -5l-4 -22c-0.666992 -2.66699 -2.33398 -4.33398 -5.00098 -5.00098s-6.16699 -0.666992 -10.5 0s-9.66602 1.33398 -15.999 2.00098c-5.66699 0.666992 -13.167 1 -22.5 1
c-48.667 0 -87.834 -13.333 -117.501 -40s-47.834 -67.334 -54.501 -122.001l-6 -42h270l-4 -34h-1z" />
    <glyph glyph-name="uniFB04" unicode="ffl" horiz-adv-x="801" 
d="M168 482l238.001 0.00292969l4 33c4 29.333 11.333 56.5 22 81.5s24.834 46.5 42.501 64.5s38.667 32.333 63 43s51.166 16 80.499 16c22.667 0 44.667 -1.16699 66 -3.5s41.666 -3.5 60.999 -3.5h26l-87 -713h-47l83 678c-16 0.666992 -32.667 1.83398 -50 3.50098
s-34 2.5 -50 2.5c-22.667 0 -43.5 -3.83301 -62.5 -11.5s-35.667 -18.834 -50 -33.501s-26 -32.5 -35 -53.5c-9.66699 -21 -15.834 -44.5 -18.501 -70.5l-4 -33h148l-4 -35h-146l-54 -437l-22 -115c-4 -14 -12 -21 -24 -21h-17l70 573h-235l-53 -437l-21 -114
c-4 -13.333 -12 -20.333 -24 -21h-18l70 571l-62 4c-9.33301 1.33301 -13.333 5.66602 -12 12.999l2 19h76l8 56c4 28 10.667 53 20 75s21 40 35 54s30.167 24.667 48.5 32c17.667 7.33301 37.167 11 58.5 11c9.33301 0 18.666 -0.833008 27.999 -2.5
c9.33301 -1 18 -3.5 26 -7.5l-6 -24c-1.33301 -2.66699 -3 -4.33398 -5 -5.00098s-4.83301 -0.666992 -8.5 0s-8.16699 1.33398 -13.5 2.00098c-6 0.666992 -12.333 1 -19 1c-14.667 0 -28.667 -2.33301 -42 -7s-25.166 -12.334 -35.499 -23.001
s-19.166 -24.334 -26.499 -41.001c-8 -16.667 -13.333 -37.667 -16 -63z" />
    <glyph glyph-name="f_b.liga" unicode="fb" horiz-adv-x="829" 
d="M354 0l84.002 695.001c-14.667 1.33301 -30.167 3.16602 -46.5 5.49902c-17 2.33301 -32.833 3.5 -47.5 3.5c-23.333 0 -44.5 -4.16699 -63.5 -12.5s-35.833 -20 -50.5 -35s-26.5 -33.167 -35.5 -54.5c-9.66699 -21.333 -15.834 -45 -18.501 -71l-6 -49h134l-4 -35h-132
l-54 -437l-22 -115c-4 -14 -12 -21 -24 -21h-18l71 572l-63 4c-9.33301 1.33301 -13.333 5.33301 -12 12l2 20h78l6 49c4 29.333 11.333 56.5 22 81.5s25 46.667 43 65s39.333 32.666 64 42.999s51.667 15.5 81 15.5c27.333 0 53.5 -1.33301 78.5 -4s47.167 -4 66.5 -4h1
l-48 -398c13.333 26.667 28 50.667 44 72s32.667 39.666 50 54.999s35.833 27.166 55.5 35.499s39.5 12.5 59.5 12.5c21.333 0 40.166 -4.16699 56.499 -12.5s30.166 -20.166 41.499 -35.499s19.666 -33.666 24.999 -54.999s8 -45.333 8 -72
c0 -25.333 -2.66699 -51.333 -8 -78s-12.833 -52.5 -22.5 -77.5s-21.667 -48.5 -36 -70.5s-30.5 -41.167 -48.5 -57.5s-37.667 -29.166 -59 -38.499s-44 -14 -68 -14c-28 0 -53.667 6.33301 -77 19s-42.333 31.667 -57 57l-9 -54
c-1.33301 -5.33301 -3.16602 -9.33301 -5.49902 -12s-6.16602 -4 -11.499 -4h-24zM634.002 466.001c-18.667 0 -37.668 -5.33887 -57.001 -16.0059s-38 -25.667 -56 -45s-34.667 -42.666 -50 -69.999s-29 -57.666 -41 -90.999l-18 -142
c6.66699 -13.333 14.667 -24.333 24 -33s19.333 -16 30 -22s21.5 -10.167 32.5 -12.5c10.333 -2.33301 21.5 -3.5 33.5 -3.5c21.333 0 41 4.16699 59 12.5s34.5 19.833 49.5 34.5s28.333 31.834 40 51.501s21.334 40.334 29.001 62.001s13.667 43.834 18 66.501
s6.5 45 6.5 67c0 44.667 -8.5 79.334 -25.5 104.001s-41.833 37 -74.5 37z" />
    <glyph glyph-name="f_f_b.liga" unicode="ffb" horiz-adv-x="1109" 
d="M634 0l84 695.004c-14.667 1.33301 -30.167 3.16602 -46.5 5.49902c-17 2.33301 -32.833 3.5 -47.5 3.5c-22.667 0 -43.667 -4.16699 -63 -12.5s-36.166 -20 -50.499 -35s-26 -33.167 -35 -54.5s-15.5 -45 -19.5 -71l-6 -49h148l-4 -35h-146l-54 -437l-22 -115
c-4 -14 -12 -21 -24 -21h-17l71 573h-234l-54 -437l-20 -114c-4 -13.333 -12.333 -20.333 -25 -21h-17l70 571l-64 4c-4 0.666992 -7.33301 2.16699 -10 4.5s-3.33398 5.16602 -2.00098 8.49902l2 19h78l7 56c3.33301 28 9.83301 53 19.5 75s21.667 40 36 54
s30.5 24.667 48.5 32s37.667 11 59 11c9.33301 0 18.666 -0.833008 27.999 -2.5c9.33301 -1 17.666 -3.5 24.999 -7.5l-5 -24c-1.33301 -2.66699 -3 -4.33398 -5 -5.00098s-5 -0.666992 -9 0s-8.66699 1.33398 -14 2.00098s-11.333 1 -18 1
c-14.667 0 -28.667 -2.33301 -42 -7s-25.333 -12.334 -36 -23.001s-19.667 -24.334 -27 -41.001s-12.333 -37.667 -15 -63l-8 -58h236l6 49c4 29.333 11.5 56.5 22.5 81.5s25.333 46.667 43 65s38.834 32.666 63.501 42.999s51.667 15.5 81 15.5
c27.333 0 53.5 -1.33301 78.5 -4s47.167 -4 66.5 -4h2l-49 -398c13.333 26.667 28 50.667 44 72s32.833 39.666 50.5 54.999s36.334 27.166 56.001 35.499s39.5 12.5 59.5 12.5c21.333 0 40.166 -4.16699 56.499 -12.5s30 -20.166 41 -35.499s19.333 -33.666 25 -54.999
s8.5 -45.333 8.5 -72c0 -25.333 -2.66699 -51.333 -8 -78s-12.833 -52.5 -22.5 -77.5s-21.667 -48.5 -36 -70.5s-30.5 -41.167 -48.5 -57.5s-37.833 -29.166 -59.5 -38.499s-44.5 -14 -68.5 -14c-28 0 -53.667 6.33301 -77 19s-42 31.667 -56 57l-9 -54
c-1.33301 -5.33301 -3.16602 -9.33301 -5.49902 -12s-6.5 -4 -12.5 -4h-24zM914 466.004c-18.667 0 -37.666 -5.33887 -56.999 -16.0059s-38 -25.667 -56 -45s-34.667 -42.666 -50 -69.999s-29 -57.666 -41 -90.999l-18 -142c6.66699 -13.333 14.667 -24.333 24 -33
s19.333 -16 30 -22s21.667 -10.167 33 -12.5s22.666 -3.5 33.999 -3.5c21.333 0 41 4.16699 59 12.5s34.5 19.833 49.5 34.5s28.167 31.834 39.5 51.501s21 40.334 29 62.001s14 43.834 18 66.501s6 45 6 67c0 44.667 -8.5 79.334 -25.5 104.001s-41.833 37 -74.5 37z" />
    <glyph glyph-name="f_h.liga" unicode="fh" horiz-adv-x="827" 
d="M352 0l84.002 695.002c-14.667 1.33301 -30 3.16602 -46 5.49902s-31.333 3.5 -46 3.5c-22.667 0 -43.667 -4.16699 -63 -12.5s-36.333 -20 -51 -35s-26.5 -33.167 -35.5 -54.5s-15.167 -45 -18.5 -71l-6 -49h134l-4 -35h-133l-54 -437l-21 -115c-4 -14 -12 -21 -24 -21
h-18l71 572l-63 4c-8 1.33301 -12 5.33301 -12 12l2 20h78l6 49c4 29.333 11.333 56.5 22 81.5s25 46.667 43 65s39.167 32.666 63.5 42.999s51.5 15.5 81.5 15.5c26 0 50.833 -1.33301 74.5 -4s44.834 -4 63.501 -4h7l-46 -380c13.333 25.333 28.166 47.666 44.499 66.999
s33.333 35.666 51 48.999s35.834 23.5 54.501 30.5c19.333 7 38.333 10.5 57 10.5c21.333 0 39.666 -4.16699 54.999 -12.5s27.5 -20.5 36.5 -36.5s15 -35.667 18 -59s2.5 -49.666 -1.5 -78.999l-38 -318h-46l37 318c5.33301 47.333 2.16602 83.833 -9.50098 109.5
s-34.167 38.5 -67.5 38.5c-18 0 -36.333 -4.66699 -55 -14s-36.834 -22.666 -54.501 -39.999s-34.167 -38 -49.5 -62s-29 -51.333 -41 -82l-33 -268h-47z" />
    <glyph glyph-name="f_f_h.liga" unicode="ffh" horiz-adv-x="1108" 
d="M634 0l84.001 695.005c-14.667 1.33301 -30.167 3.16602 -46.5 5.49902c-17 2.33301 -32.833 3.5 -47.5 3.5c-22.667 0 -43.667 -4.16699 -63 -12.5s-36.166 -20 -50.499 -35s-26 -33.167 -35 -54.5s-15.5 -45 -19.5 -71l-6 -49h148l-4 -35h-146l-54 -437l-22 -115
c-4 -14 -12 -21 -24 -21h-17l71 573h-234l-54 -437l-20 -114c-4 -13.333 -12.333 -20.333 -25 -21h-17l70 571l-64 4c-4 0.666992 -7.33301 2.16699 -10 4.5s-3.33398 5.16602 -2.00098 8.49902l2 19h78l7 56c3.33301 28 9.83301 53 19.5 75s21.667 40 36 54
s30.5 24.667 48.5 32s37.667 11 59 11c9.33301 0 18.666 -0.833008 27.999 -2.5c9.33301 -1 17.666 -3.5 24.999 -7.5l-5 -24c-1.33301 -2.66699 -3 -4.33398 -5 -5.00098s-5 -0.666992 -9 0s-8.66699 1.33398 -14 2.00098s-11.333 1 -18 1
c-14.667 0 -28.667 -2.33301 -42 -7s-25.333 -12.334 -36 -23.001s-19.667 -24.334 -27 -41.001s-12.333 -37.667 -15 -63l-8 -58h236l6 49c4 29.333 11.5 56.5 22.5 81.5s25.333 46.667 43 65s38.834 32.666 63.501 42.999s51.667 15.5 81 15.5
c26 0 50.833 -1.33301 74.5 -4s45.167 -4 64.5 -4h7l-46 -380c13.333 25.333 28.166 47.666 44.499 66.999s33.333 35.666 51 48.999s35.834 23.5 54.501 30.5s37.667 10.5 57 10.5c21.333 0 39.833 -4.16699 55.5 -12.5s27.834 -20.5 36.501 -36.5s14.5 -35.667 17.5 -59
c3.66699 -23.333 3.5 -49.666 -0.5 -78.999l-38 -318h-47l37 318c5.33301 47.333 2.16602 83.833 -9.50098 109.5c-11 25.667 -33.167 38.5 -66.5 38.5c-18 0 -36.5 -4.66699 -55.5 -14s-37.167 -22.666 -54.5 -39.999s-33.833 -38 -49.5 -62s-29.5 -51.333 -41.5 -82
l-33 -268h-46z" />
    <glyph glyph-name="f_igrave.liga" unicode="f&#xec;" horiz-adv-x="499" 
d="M169 482h271l-60 -482h-47l55 446h-222l-52 -436l-21 -114c-4.66699 -13.333 -13 -20.333 -25 -21h-17l70 571l-63 4c-8 1.33301 -12 5.33301 -12 12l2 20h78l8 69c6.66699 55.333 22.167 97.333 46.5 126c23.667 28.667 54.167 43 91.5 43
c5.33301 0 11.166 -0.166992 17.499 -0.5c5.66699 -0.333008 10.5 -1.16602 14.5 -2.49902l-2 -25c0 -4 -2.16699 -6 -6.5 -6h-19.5c-26 0 -47.333 -11.333 -64 -34c-17.333 -22.667 -28.666 -56.334 -33.999 -101.001zM377 716c7.33301 0 12.667 -1.33203 16 -3.99902
s6.33301 -6.66699 9 -12l59 -120h-25c-4 0 -7.16699 0.666992 -9.5 2c-3 1.33301 -5.16699 3.66602 -6.5 6.99902l-86 127h43z" />
    <glyph glyph-name="f_icircumflex.liga" unicode="f&#xee;" horiz-adv-x="499" 
d="M169 482h271l-60 -482h-47l55 446h-222l-52 -436l-21 -114c-4.66699 -13.333 -13 -20.333 -25 -21h-17l70 571l-63 4c-8 1.33301 -12 5.33301 -12 12l2 20h78l8 69c6.66699 55.333 22.167 97.333 46.5 126c23.667 28.667 54.167 43 91.5 43
c5.33301 0 11.166 -0.166992 17.499 -0.5c5.66699 -0.333008 10.5 -1.16602 14.5 -2.49902l-2 -25c0 -4 -2.16699 -6 -6.5 -6h-19.5c-26 0 -47.333 -11.333 -64 -34c-17.333 -22.667 -28.666 -56.334 -33.999 -101.001zM556 584h-30.001c-2 0 -4.16699 0.666992 -6.5 2
s-4.16602 3.33301 -5.49902 6l-62 82c-0.666992 0.666992 -1.5 1.66699 -2.5 3c-1 0.666992 -1.5 1.66699 -1.5 3l-6 -6l-80 -82c-4 -5.33301 -8.66699 -8 -14 -8h-32l114 124h40z" />
    <glyph glyph-name="f_itilde.liga" unicode="f&#x129;" horiz-adv-x="499" 
d="M169 482h271l-60 -482h-47l55 446h-222l-52 -436l-21 -114c-4.66699 -13.333 -13 -20.333 -25 -21h-17l70 571l-63 4c-8 1.33301 -12 5.33301 -12 12l2 20h78l8 69c6.66699 55.333 22.167 97.333 46.5 126c23.667 28.667 54.167 43 91.5 43
c5.33301 0 11.166 -0.166992 17.499 -0.5c5.66699 -0.333008 10.5 -1.16602 14.5 -2.49902l-2 -25c0 -4 -2.16699 -6 -6.5 -6h-19.5c-26 0 -47.333 -11.333 -64 -34c-17.333 -22.667 -28.666 -56.334 -33.999 -101.001zM494 640c13.333 0 23.999 4.66699 31.999 14
s13 21.666 15 36.999h27c-1.33301 -12 -4 -23.167 -8 -33.5s-9.33301 -19.5 -16 -27.5s-14.334 -14 -23.001 -18s-18.334 -6 -29.001 -6s-20 2.66699 -28 8s-15.667 11.333 -23 18s-14.666 12.667 -21.999 18s-15 8 -23 8c-12.667 0 -23.167 -4.66699 -31.5 -14
s-13.166 -21.666 -14.499 -36.999h-28c1.33301 12 4 23.167 8 33.5s9.33301 19.5 16 27.5s14.334 14 23.001 18s18.334 6 29.001 6s20.167 -2.66699 28.5 -8s16.166 -11.333 23.499 -18s14.5 -12.667 21.5 -18s14.5 -8 22.5 -8z" />
    <glyph glyph-name="f_idieresis.liga" unicode="f&#xef;" horiz-adv-x="499" 
d="M408 642c0 -5.33301 -1.16797 -10.167 -3.50098 -14.5s-5.33301 -8.33301 -9 -12s-7.83398 -6.5 -12.501 -8.5s-9.66699 -3 -15 -3c-10.667 0 -19.667 3.83301 -27 11.5s-11 16.5 -11 26.5c0 5.33301 1 10.333 3 15s4.83301 8.83398 8.5 12.501s7.83398 6.66699 12.501 9
c4 2.33301 8.66699 3.5 14 3.5s10.333 -1.16699 15 -3.5s8.83398 -5.33301 12.501 -9s6.66699 -7.83398 9 -12.501s3.5 -9.66699 3.5 -15zM546.999 641.999c0 -5.33301 -1.16699 -10.167 -3.5 -14.5s-5.16602 -8.33301 -8.49902 -12s-7.33301 -6.5 -12 -8.5
s-9.66699 -3 -15 -3c-10.667 0 -19.667 3.83301 -27 11.5s-11 16.5 -11 26.5c0 5.33301 1 10.333 3 15s4.66699 8.83398 8 12.501s7.33301 6.66699 12 9s9.66699 3.5 15 3.5s10.333 -1.16699 15 -3.5s8.66699 -5.33301 12 -9s6.16602 -7.83398 8.49902 -12.501
s3.5 -9.66699 3.5 -15zM168.999 481.998h271l-60 -482h-47l55 446h-222l-52 -436l-21 -114c-4.66699 -13.333 -13 -20.333 -25 -21h-17l70 571l-63 4c-8 1.33301 -12 5.33301 -12 12l2 20h78l8 69c6.66699 55.333 22.167 97.333 46.5 126c23.667 28.667 54.167 43 91.5 43
c5.33301 0 11.166 -0.166992 17.499 -0.5c5.66699 -0.333008 10.5 -1.16602 14.5 -2.49902l-2 -25c0 -4 -2.16699 -6 -6.5 -6h-19.5c-26 0 -47.333 -11.333 -64 -34c-17.333 -22.667 -28.666 -56.334 -33.999 -101.001z" />
    <glyph glyph-name="f_imacron.liga" unicode="f&#x12b;" horiz-adv-x="499" 
d="M169 482h271l-60 -482h-47l55 446h-222l-52 -436l-21 -114c-4.66699 -13.333 -13 -20.333 -25 -21h-17l70 571l-63 4c-8 1.33301 -12 5.33301 -12 12l2 20h78l8 69c6.66699 55.333 22.167 97.333 46.5 126c23.667 28.667 54.167 43 91.5 43
c5.33301 0 11.166 -0.166992 17.499 -0.5c5.66699 -0.333008 10.5 -1.16602 14.5 -2.49902l-2 -25c0 -4 -2.16699 -6 -6.5 -6h-19.5c-26 0 -47.333 -11.333 -64 -34c-17.333 -22.667 -28.666 -56.334 -33.999 -101.001zM318 658h252l-4 -32h-251z" />
    <glyph glyph-name="f_ibreve.liga" unicode="f&#x12d;" horiz-adv-x="499" 
d="M169 482h271l-60 -482h-47l55 446h-222l-52 -436l-21 -114c-4.66699 -13.333 -13 -20.333 -25 -21h-17l70 571l-63 4c-8 1.33301 -12 5.33301 -12 12l2 20h78l8 69c6.66699 55.333 22.167 97.333 46.5 126c23.667 28.667 54.167 43 91.5 43
c5.33301 0 11.166 -0.166992 17.499 -0.5c5.66699 -0.333008 10.5 -1.16602 14.5 -2.49902l-2 -25c0 -4 -2.16699 -6 -6.5 -6h-19.5c-26 0 -47.333 -11.333 -64 -34c-17.333 -22.667 -28.666 -56.334 -33.999 -101.001zM434 584c-20 0 -36.6689 3.33203 -50.002 9.99902
s-23.666 15.667 -30.999 27s-12.333 24.333 -15 39s-2.66699 30.667 0 48h32c-1.33301 -12 -1.33301 -23.667 0 -35s4.5 -21.166 9.5 -29.499s12.333 -15 22 -20s21.834 -7.5 36.501 -7.5s27.167 2.5 37.5 7.5s19 11.667 26 20s12.5 18 16.5 29
c4 11.667 6.66699 23.5 8 35.5h32c-2 -16.667 -5.83301 -32.5 -11.5 -47.5s-13.5 -28.167 -23.5 -39.5s-22.333 -20.333 -37 -27s-32 -10 -52 -10z" />
    <glyph glyph-name="f_iogonek.liga" unicode="f&#x12f;" horiz-adv-x="499" 
d="M400 -122c2.66699 0 4.66992 -1.33301 6.00293 -4l6 -16c-9.33301 -8 -21 -14.5 -35 -19.5s-28 -7.5 -42 -7.5c-22 0 -39.333 5.5 -52 16.5s-19 26.167 -19 45.5c0 11.333 2.16699 22.166 6.5 32.499s10 20 17 29s15 17.333 24 25c9.66699 7.66699 19.167 14.5 28.5 20.5
h-7l55 446h-221l-54 -436l-21 -115c-4 -14 -12 -21 -24 -21h-18l70 572l-62 4c-8 1.33301 -12 5.33301 -12 12l2 20h77l5 42c4 30.667 11.667 58.334 23 83.001s26 45.334 44 62.001s39 29.5 63 38.5s50.667 13.5 80 13.5c5.33301 0 11 -0.166992 17 -0.5s12 -1 18 -2
s11.667 -2.16699 17 -3.5c5.33301 -2 10 -3.66699 14 -5l-4 -22c-0.666992 -2.66699 -2.33398 -4.33398 -5.00098 -5.00098s-6.16699 -0.666992 -10.5 0s-9.66602 1.33398 -15.999 2.00098c-5.66699 0.666992 -13.167 1 -22.5 1c-48.667 0 -87.834 -13.333 -117.501 -40
s-47.834 -67.334 -54.501 -122.001l-6 -42h270l-60 -482h-6c-6.66699 -4 -14.334 -9 -23.001 -15s-16.667 -13 -24 -21s-13.333 -17 -18 -27s-7 -20.667 -7 -32c0 -13.333 4.33301 -23.833 13 -31.5s19.667 -11.5 33 -11.5c8 0 15 0.833008 21 2.5s11 3.5 15 5.5
s7.33301 3.83301 10 5.5s4.66699 2.5 6 2.5z" />
    <glyph glyph-name="f_dotlessi.liga" unicode="f&#x131;" horiz-adv-x="499" 
d="M169 482h271l-60 -482h-47l55 446h-222l-52 -436l-21 -114c-4.66699 -13.333 -13 -20.333 -25 -21h-17l70 571l-63 4c-8 1.33301 -12 5.33301 -12 12l2 20h78l8 69c6.66699 55.333 22.167 97.333 46.5 126c23.667 28.667 54.167 43 91.5 43
c5.33301 0 11.166 -0.166992 17.499 -0.5c5.66699 -0.333008 10.5 -1.16602 14.5 -2.49902l-2 -25c0 -4 -2.16699 -6 -6.5 -6h-19.5c-26 0 -47.333 -11.333 -64 -34c-17.333 -22.667 -28.666 -56.334 -33.999 -101.001z" />
    <glyph glyph-name="f_f_igrave.liga" unicode="ff&#xec;" horiz-adv-x="780" 
d="M715 448l-55.0029 -447.998h-46l55 448h-223l-52 -438l-21 -114c-4.66699 -13.333 -13 -20.333 -25 -21h-16l69 573h-235l-52 -438l-22 -114c-4 -13.333 -12 -20.333 -24 -21h-17l69 571l-62 5c-8 2 -12 6.33301 -12 13l2 18h77l7 56c4 28 10.667 53 20 75
s21.166 40 35.499 54s30.666 24.667 48.999 32s37.833 11 58.5 11c9.33301 0 18.666 -0.833008 27.999 -2.5c9.33301 -1 17.666 -3.5 24.999 -7.5l-5 -24c-1.33301 -2.66699 -3 -4.33398 -5 -5.00098s-4.83301 -0.666992 -8.5 0s-8.16699 1.33398 -13.5 2.00098
s-11.666 1 -18.999 1c-14.667 0 -28.667 -2.33301 -42 -7s-25.166 -12.334 -35.499 -23.001s-19.166 -24.334 -26.499 -41.001s-12.666 -37.667 -15.999 -63l-8 -58h237l8 69c6.66699 55.333 22.334 97.333 47.001 126s55.334 43 92.001 43c5.33301 0 11 -0.166992 17 -0.5
s11 -1.16602 15 -2.49902l-3 -25c-0.666992 -4 -3 -6 -7 -6h-19c-26 0 -47.333 -11.333 -64 -34c-17.333 -22.667 -28.666 -56.334 -33.999 -101.001l-8 -69h270l-4 -34h-1zM655.997 716.002c7.33301 0 12.832 -1.33203 16.499 -3.99902s6.83398 -6.66699 9.50098 -12
l58 -120h-24c-4 0 -7.33301 0.666992 -10 2s-4.66699 3.66602 -6 6.99902l-86 127h42z" />
    <glyph glyph-name="f_f_icircumflex.liga" unicode="ff&#xee;" horiz-adv-x="780" 
d="M715 448l-55.0029 -447.998h-46l55 448h-223l-52 -438l-21 -114c-4.66699 -13.333 -13 -20.333 -25 -21h-16l69 573h-235l-52 -438l-22 -114c-4 -13.333 -12 -20.333 -24 -21h-17l69 571l-62 5c-8 2 -12 6.33301 -12 13l2 18h77l7 56c4 28 10.667 53 20 75
s21.166 40 35.499 54s30.666 24.667 48.999 32s37.833 11 58.5 11c9.33301 0 18.666 -0.833008 27.999 -2.5c9.33301 -1 17.666 -3.5 24.999 -7.5l-5 -24c-1.33301 -2.66699 -3 -4.33398 -5 -5.00098s-4.83301 -0.666992 -8.5 0s-8.16699 1.33398 -13.5 2.00098
s-11.666 1 -18.999 1c-14.667 0 -28.667 -2.33301 -42 -7s-25.166 -12.334 -35.499 -23.001s-19.166 -24.334 -26.499 -41.001s-12.666 -37.667 -15.999 -63l-8 -58h237l8 69c6.66699 55.333 22.334 97.333 47.001 126s55.334 43 92.001 43c5.33301 0 11 -0.166992 17 -0.5
s11 -1.16602 15 -2.49902l-3 -25c-0.666992 -4 -3 -6 -7 -6h-19c-26 0 -47.333 -11.333 -64 -34c-17.333 -22.667 -28.666 -56.334 -33.999 -101.001l-8 -69h270l-4 -34h-1zM831.997 584.002h-30c-2 0 -4.16699 0.666992 -6.5 2s-4.5 3.33301 -6.5 6l-61 82
c-0.666992 0.666992 -1.5 1.66699 -2.5 3c-1 0.666992 -1.83301 1.66699 -2.5 3l-5 -6l-81 -82c-4 -5.33301 -8.66699 -8 -14 -8h-31l114 124h39z" />
    <glyph glyph-name="f_f_itilde.liga" unicode="ff&#x129;" horiz-adv-x="780" 
d="M715 448l-55.0029 -447.998h-46l55 448h-223l-52 -438l-21 -114c-4.66699 -13.333 -13 -20.333 -25 -21h-16l69 573h-235l-52 -438l-22 -114c-4 -13.333 -12 -20.333 -24 -21h-17l69 571l-62 5c-8 2 -12 6.33301 -12 13l2 18h77l7 56c4 28 10.667 53 20 75
s21.166 40 35.499 54s30.666 24.667 48.999 32s37.833 11 58.5 11c9.33301 0 18.666 -0.833008 27.999 -2.5c9.33301 -1 17.666 -3.5 24.999 -7.5l-5 -24c-1.33301 -2.66699 -3 -4.33398 -5 -5.00098s-4.83301 -0.666992 -8.5 0s-8.16699 1.33398 -13.5 2.00098
s-11.666 1 -18.999 1c-14.667 0 -28.667 -2.33301 -42 -7s-25.166 -12.334 -35.499 -23.001s-19.166 -24.334 -26.499 -41.001s-12.666 -37.667 -15.999 -63l-8 -58h237l8 69c6.66699 55.333 22.334 97.333 47.001 126s55.334 43 92.001 43c5.33301 0 11 -0.166992 17 -0.5
s11 -1.16602 15 -2.49902l-3 -25c-0.666992 -4 -3 -6 -7 -6h-19c-26 0 -47.333 -11.333 -64 -34c-17.333 -22.667 -28.666 -56.334 -33.999 -101.001l-8 -69h270l-4 -34h-1zM771.997 640.002c13.333 0 23.999 4.66699 31.999 14s13 21.666 15 36.999h27
c-1.33301 -12 -4 -23.167 -8 -33.5s-9.33301 -19.5 -16 -27.5s-14.334 -14 -23.001 -18s-18.334 -6 -29.001 -6s-20 2.66699 -28 8s-15.667 11.333 -23 18s-14.666 12.667 -21.999 18s-15 8 -23 8c-12.667 0 -23.167 -4.66699 -31.5 -14s-13.166 -21.666 -14.499 -36.999
h-28c1.33301 12 4 23.167 8 33.5s9.33301 19.5 16 27.5s14.334 14 23.001 18s18.334 6 29.001 6s20.167 -2.66699 28.5 -8s16.166 -11.333 23.499 -18s14.5 -12.667 21.5 -18s14.5 -8 22.5 -8z" />
    <glyph glyph-name="f_f_idieresis.liga" unicode="ff&#xef;" horiz-adv-x="779" 
d="M694 642c0 -5.33301 -1.16797 -10.167 -3.50098 -14.5s-5.33301 -8.33301 -9 -12s-7.83398 -6.5 -12.501 -8.5s-9.66699 -3 -15 -3c-10.667 0 -19.667 3.83301 -27 11.5s-11 16.5 -11 26.5c0 5.33301 1 10.333 3 15s4.83301 8.83398 8.5 12.501s7.83398 6.66699 12.501 9
c4 2.33301 8.66699 3.5 14 3.5s10.333 -1.16699 15 -3.5s8.83398 -5.33301 12.501 -9s6.66699 -7.83398 9 -12.501s3.5 -9.66699 3.5 -15zM831.999 641.999c0 -5.33301 -1.00098 -10.167 -3.00098 -14.5s-4.66699 -8.33301 -8 -12s-7.5 -6.5 -12.5 -8.5
c-4.33301 -2 -9.16602 -3 -14.499 -3c-10.667 0 -19.834 3.83301 -27.501 11.5s-11.5 16.5 -11.5 26.5c0 5.33301 1 10.333 3 15s4.83301 8.83398 8.5 12.501s7.83398 6.66699 12.501 9s9.66699 3.5 15 3.5s10.333 -1.16699 15 -3.5s8.66699 -5.33301 12 -9
s6 -7.83398 8 -12.501s3 -9.66699 3 -15zM714.998 447.998l-55.0029 -447.998h-46l55 448h-223l-52 -438l-21 -114c-4.66699 -13.333 -13 -20.333 -25 -21h-16l69 573h-235l-52 -438l-22 -114c-4 -13.333 -12 -20.333 -24 -21h-17l69 571l-62 5c-8 2 -12 6.33301 -12 13
l2 18h77l7 56c4 28 10.667 53 20 75s21.166 40 35.499 54s30.666 24.667 48.999 32s37.833 11 58.5 11c9.33301 0 18.666 -0.833008 27.999 -2.5c9.33301 -1 17.666 -3.5 24.999 -7.5l-5 -24c-1.33301 -2.66699 -3 -4.33398 -5 -5.00098s-4.83301 -0.666992 -8.5 0
s-8.16699 1.33398 -13.5 2.00098s-11.666 1 -18.999 1c-14.667 0 -28.667 -2.33301 -42 -7s-25.166 -12.334 -35.499 -23.001s-19.166 -24.334 -26.499 -41.001s-12.666 -37.667 -15.999 -63l-8 -58h237l8 69c6.66699 55.333 22.334 97.333 47.001 126s55.334 43 92.001 43
c5.33301 0 11 -0.166992 17 -0.5s11 -1.16602 15 -2.49902l-3 -25c-0.666992 -4 -3 -6 -7 -6h-19c-26 0 -47.333 -11.333 -64 -34c-17.333 -22.667 -28.666 -56.334 -33.999 -101.001l-8 -69h270l-4 -34h-1z" />
    <glyph glyph-name="f_f_imacron.liga" unicode="ff&#x12b;" horiz-adv-x="780" 
d="M715 448l-55.0029 -447.998h-46l55 448h-223l-52 -438l-21 -114c-4.66699 -13.333 -13 -20.333 -25 -21h-16l69 573h-235l-52 -438l-22 -114c-4 -13.333 -12 -20.333 -24 -21h-17l69 571l-62 5c-8 2 -12 6.33301 -12 13l2 18h77l7 56c4 28 10.667 53 20 75
s21.166 40 35.499 54s30.666 24.667 48.999 32s37.833 11 58.5 11c9.33301 0 18.666 -0.833008 27.999 -2.5c9.33301 -1 17.666 -3.5 24.999 -7.5l-5 -24c-1.33301 -2.66699 -3 -4.33398 -5 -5.00098s-4.83301 -0.666992 -8.5 0s-8.16699 1.33398 -13.5 2.00098
s-11.666 1 -18.999 1c-14.667 0 -28.667 -2.33301 -42 -7s-25.166 -12.334 -35.499 -23.001s-19.166 -24.334 -26.499 -41.001s-12.666 -37.667 -15.999 -63l-8 -58h237l8 69c6.66699 55.333 22.334 97.333 47.001 126s55.334 43 92.001 43c5.33301 0 11 -0.166992 17 -0.5
s11 -1.16602 15 -2.49902l-3 -25c-0.666992 -4 -3 -6 -7 -6h-19c-26 0 -47.333 -11.333 -64 -34c-17.333 -22.667 -28.666 -56.334 -33.999 -101.001l-8 -69h270l-4 -34h-1zM589.997 658.002h252l-4 -32h-251z" />
    <glyph glyph-name="f_f_ibreve.liga" unicode="ff&#x12d;" horiz-adv-x="780" 
d="M715 448l-55.0029 -447.998h-46l55 448h-223l-52 -438l-21 -114c-4.66699 -13.333 -13 -20.333 -25 -21h-16l69 573h-235l-52 -438l-22 -114c-4 -13.333 -12 -20.333 -24 -21h-17l69 571l-62 5c-8 2 -12 6.33301 -12 13l2 18h77l7 56c4 28 10.667 53 20 75
s21.166 40 35.499 54s30.666 24.667 48.999 32s37.833 11 58.5 11c9.33301 0 18.666 -0.833008 27.999 -2.5c9.33301 -1 17.666 -3.5 24.999 -7.5l-5 -24c-1.33301 -2.66699 -3 -4.33398 -5 -5.00098s-4.83301 -0.666992 -8.5 0s-8.16699 1.33398 -13.5 2.00098
s-11.666 1 -18.999 1c-14.667 0 -28.667 -2.33301 -42 -7s-25.166 -12.334 -35.499 -23.001s-19.166 -24.334 -26.499 -41.001s-12.666 -37.667 -15.999 -63l-8 -58h237l8 69c6.66699 55.333 22.334 97.333 47.001 126s55.334 43 92.001 43c5.33301 0 11 -0.166992 17 -0.5
s11 -1.16602 15 -2.49902l-3 -25c-0.666992 -4 -3 -6 -7 -6h-19c-26 0 -47.333 -11.333 -64 -34c-17.333 -22.667 -28.666 -56.334 -33.999 -101.001l-8 -69h270l-4 -34h-1zM710.997 584.002c-20 0 -36.6689 3.33203 -50.002 9.99902s-23.666 15.667 -30.999 27
s-12.333 24.333 -15 39s-2.66699 30.667 0 48h32c-1.33301 -12 -1.33301 -23.667 0 -35s4.5 -21.166 9.5 -29.499s12.333 -15 22 -20s21.834 -7.5 36.501 -7.5s27.167 2.5 37.5 7.5s19 11.667 26 20s12.5 18 16.5 29c4 11.667 6.66699 23.5 8 35.5h32
c-2 -16.667 -5.83301 -32.5 -11.5 -47.5s-13.5 -28.167 -23.5 -39.5s-22.333 -20.333 -37 -27s-32 -10 -52 -10z" />
    <glyph glyph-name="f_f_iogonek.liga" unicode="ff&#x12f;" horiz-adv-x="780" 
d="M715 448l-54.9961 -447.998h-6c-6.66699 -4 -14.334 -9 -23.001 -15s-16.5 -13 -23.5 -21s-13 -17 -18 -27s-7.5 -20.667 -7.5 -32c0 -13.333 4.33301 -23.833 13 -31.5s19.667 -11.5 33 -11.5c8 0 15 0.833008 21 2.5s11.167 3.5 15.5 5.5s7.66602 3.83301 9.99902 5.5
s4.5 2.5 6.5 2.5c2.66699 0 4.66699 -1.33301 6 -4l5 -16c-9.33301 -8 -20.833 -14.5 -34.5 -19.5c-13 -5 -26.833 -7.5 -41.5 -7.5c-22 0 -39.5 5.5 -52.5 16.5s-19.5 26.167 -19.5 45.5c0 11.333 2.33301 22.166 7 32.499s10.334 20 17.001 29s14.667 17.333 24 25
s18.666 14.5 27.999 20.5h-6l55 448h-222l-54 -438l-21 -115c-4 -14 -12 -21 -24 -21h-18l71 574h-235l-52 -438l-22 -114c-4 -13.333 -12 -20.333 -24 -21h-17l69 571l-62 5c-8 2 -12 6.33301 -12 13l2 18h77l7 56c4 28 10.667 53 20 75s21.166 40 35.499 54
s30.666 24.667 48.999 32s37.833 11 58.5 11c9.33301 0 18.666 -0.833008 27.999 -2.5c9.33301 -1 17.666 -3.5 24.999 -7.5l-5 -24c-1.33301 -2.66699 -3 -4.33398 -5 -5.00098s-4.83301 -0.666992 -8.5 0s-8.16699 1.33398 -13.5 2.00098s-11.666 1 -18.999 1
c-14.667 0 -28.667 -2.33301 -42 -7s-25.166 -12.334 -35.499 -23.001s-19.166 -24.334 -26.499 -41.001s-12.666 -37.667 -15.999 -63l-8 -58h236l5 42c4 30.667 11.667 58.334 23 83.001s26 45.334 44 62.001s39 29.5 63 38.5s50.667 13.5 80 13.5
c5.33301 0 11 -0.166992 17 -0.5s12 -1 18 -2s11.667 -2.16699 17 -3.5c5.33301 -2 10 -3.66699 14 -5l-4 -22c-0.666992 -2.66699 -2.33398 -4.33398 -5.00098 -5.00098s-6.16699 -0.666992 -10.5 0s-9.66602 1.33398 -15.999 2.00098c-5.66699 0.666992 -13.167 1 -22.5 1
c-48.667 0 -87.834 -13.333 -117.501 -40s-47.834 -67.334 -54.501 -122.001l-6 -42h270l-4 -34h-1z" />
    <glyph glyph-name="f_f_dotlessi.liga" unicode="ff&#x131;" horiz-adv-x="780" 
d="M715 448l-55.0029 -447.998h-46l55 448h-223l-52 -438l-21 -114c-4.66699 -13.333 -13 -20.333 -25 -21h-16l69 573h-235l-52 -438l-22 -114c-4 -13.333 -12 -20.333 -24 -21h-17l69 571l-62 5c-8 2 -12 6.33301 -12 13l2 18h77l7 56c4 28 10.667 53 20 75
s21.166 40 35.499 54s30.666 24.667 48.999 32s37.833 11 58.5 11c9.33301 0 18.666 -0.833008 27.999 -2.5c9.33301 -1 17.666 -3.5 24.999 -7.5l-5 -24c-1.33301 -2.66699 -3 -4.33398 -5 -5.00098s-4.83301 -0.666992 -8.5 0s-8.16699 1.33398 -13.5 2.00098
s-11.666 1 -18.999 1c-14.667 0 -28.667 -2.33301 -42 -7s-25.166 -12.334 -35.499 -23.001s-19.166 -24.334 -26.499 -41.001s-12.666 -37.667 -15.999 -63l-8 -58h237l8 69c6.66699 55.333 22.334 97.333 47.001 126s55.334 43 92.001 43c5.33301 0 11 -0.166992 17 -0.5
s11 -1.16602 15 -2.49902l-3 -25c-0.666992 -4 -3 -6 -7 -6h-19c-26 0 -47.333 -11.333 -64 -34c-17.333 -22.667 -28.666 -56.334 -33.999 -101.001l-8 -69h270l-4 -34h-1z" />
    <glyph glyph-name="f_j.liga" unicode="fj" horiz-adv-x="499" 
d="M440 482l-66.9971 -546.001c-2 -17.333 -6.33301 -33.333 -13 -48s-15.334 -27.334 -26.001 -38.001s-23.167 -19 -37.5 -25c-15 -6 -31.167 -9 -48.5 -9c-9.33301 0 -17.5 0.666992 -24.5 2c-6.33301 1.33301 -12.833 4 -19.5 8l4 24
c1.33301 2.66699 3 4.33398 5 5.00098s4.16699 0.666992 6.5 0s5.33301 -1.33398 9 -2.00098s8.83398 -1 15.501 -1c24.667 0 43.667 7.33301 57 22c12.667 14.667 21 35.334 25 62.001l62 512h-220l-54 -438l-22 -115c-4 -14 -12 -21 -24 -21h-17l71 572l-64 5
c-8 2 -12 6.33301 -12 13l2 18h78l5 42c4 30.667 11.5 58.334 22.5 83.001s25.5 45.334 43.5 62.001s39.167 29.5 63.5 38.5s51.166 13.5 80.499 13.5c5.33301 0 11 -0.166992 17 -0.5s12 -1 18 -2s11.667 -2.16699 17 -3.5c4.66699 -2 9 -3.66699 13 -5l-4 -22
c-0.666992 -2.66699 -2.16699 -4.33398 -4.5 -5.00098s-5.83301 -0.666992 -10.5 0s-10 1.33398 -16 2.00098s-13.667 1 -23 1c-48.667 0 -87.834 -13.333 -117.501 -40s-47.834 -67.334 -54.501 -122.001l-6 -42h270z" />
    <glyph glyph-name="f_f_j.liga" unicode="ffj" horiz-adv-x="780" 
d="M169 482l235.998 0.000976562l5 42c4 30.667 11.667 58.334 23 83.001s26 45.334 44 62.001s39 29.5 63 38.5s50.667 13.5 80 13.5c5.33301 0 11 -0.166992 17 -0.5s12 -1 18 -2s11.667 -2.16699 17 -3.5c5.33301 -2 10 -3.66699 14 -5l-4 -22
c-0.666992 -2.66699 -2.33398 -4.33398 -5.00098 -5.00098s-6.16699 -0.666992 -10.5 0s-9.66602 1.33398 -15.999 2.00098c-5.66699 0.666992 -13.167 1 -22.5 1c-48.667 0 -87.834 -13.333 -117.501 -40s-47.834 -67.334 -54.501 -122.001l-6 -42h270l-66 -546
c-2 -17.333 -6.5 -33.333 -13.5 -48s-15.667 -27.334 -26 -38.001s-22.666 -19.167 -36.999 -25.5s-30.5 -9.5 -48.5 -9.5c-9.33301 0 -17.5 0.833008 -24.5 2.5s-13.833 4.5 -20.5 8.5l5 24c1.33301 2.66699 2.83301 4.33398 4.5 5.00098s3.83398 0.666992 6.50098 0
s5.83398 -1.33398 9.50098 -2.00098s8.5 -1 14.5 -1c24.667 0 43.834 7.33301 57.501 22s22.167 35.334 25.5 62.001l62 512h-222l-54 -438l-21 -115c-4 -14 -12 -21 -24 -21h-18l71 574h-235l-52 -438l-22 -114c-4 -13.333 -12 -20.333 -24 -21h-17l69 571l-62 5
c-8 2 -12 6.33301 -12 13l2 18h77l7 56c4 28 10.667 53 20 75s21.166 40 35.499 54s30.666 24.667 48.999 32s37.833 11 58.5 11c9.33301 0 18.666 -0.833008 27.999 -2.5c9.33301 -1 17.666 -3.5 24.999 -7.5l-5 -24c-1.33301 -2.66699 -3 -4.33398 -5 -5.00098
s-4.83301 -0.666992 -8.5 0s-8.16699 1.33398 -13.5 2.00098s-11.666 1 -18.999 1c-14.667 0 -28.667 -2.33301 -42 -7s-25.166 -12.334 -35.499 -23.001s-19.166 -24.334 -26.499 -41.001s-12.666 -37.667 -15.999 -63z" />
    <glyph glyph-name="f_k.liga" unicode="fk" horiz-adv-x="753" 
d="M167 447l-53.999 -436.997l-21 -115c-4 -14 -12 -21 -24 -21h-18l71 572l-63 4c-8 1.33301 -12 5.33301 -12 12l2 20h78l6 49c4 29.333 11.333 56.5 22 81.5s25 46.667 43 65s39.167 32.666 63.5 42.999s51.5 15.5 81.5 15.5c26 0 50.833 -1.33301 74.5 -4
s44.834 -4 63.501 -4h6l-54 -444h19c5.33301 0 10 0.666992 14 2s8.33301 4.66602 13 9.99902l206 189c4 4 8 7.16699 12 9.5s8.66699 3.5 14 3.5h40l-227 -209c-4 -4 -7.5 -7.16699 -10.5 -9.5s-6.16699 -4.83301 -9.5 -7.5c4 -2.66699 7.66699 -5.66699 11 -9
s6.33301 -7.33301 9 -12l182 -251h-39c-4.66699 0 -8.83398 0.666992 -12.501 2s-6.83398 4.66602 -9.50098 9.99902l-164 224c-4 6.66699 -8.33301 10.834 -13 12.501s-11.667 2.5 -21 2.5h-18l-30 -251h-47l85 695c-14.667 1.33301 -30 3.16602 -46 5.49902
s-31.333 3.5 -46 3.5c-22.667 0 -43.667 -4.16699 -63 -12.5s-36.333 -20 -51 -35s-26.5 -33.167 -35.5 -54.5s-15.167 -45 -18.5 -71l-6 -49h134l-4 -35h-133z" />
    <glyph glyph-name="f_f_k.liga" unicode="ffk" horiz-adv-x="1035" 
d="M170 482l235.999 0.00585938l6 49c4 29.333 11.5 56.5 22.5 81.5s25.5 46.667 43.5 65s39.167 32.666 63.5 42.999s51.5 15.5 81.5 15.5c26 0 50.833 -1.33301 74.5 -4s44.834 -4 63.501 -4h8l-55 -444h20c5.33301 0 10 0.666992 14 2s8 4.66602 12 9.99902l206 189
c4 4 8 7.16699 12 9.5s8.66699 3.5 14 3.5h41l-227 -209c-4 -4 -7.5 -7.16699 -10.5 -9.5c-2.33301 -2.33301 -5.5 -4.83301 -9.5 -7.5c4 -2.66699 7.66699 -5.66699 11 -9s6.33301 -7.33301 9 -12l182 -251h-40c-4.66699 0 -8.66699 0.666992 -12 2
s-6.33301 4.66602 -9 9.99902l-165 224c-4 6.66699 -8.33301 10.834 -13 12.501s-11.667 2.5 -21 2.5h-18l-30 -251h-46l84 695c-14.667 1.33301 -30 3.16602 -46 5.49902s-31.667 3.5 -47 3.5c-23.333 0 -44.666 -4.16699 -63.999 -12.5s-36.166 -20 -50.499 -35
s-26 -33.167 -35 -54.5s-15.167 -45 -18.5 -71l-7 -49h148l-4 -35h-146l-54 -437l-21 -115c-4.66699 -14 -13 -21 -25 -21h-17l71 573h-234l-54 -437l-20 -114c-4 -13.333 -12.333 -20.333 -25 -21h-17l70 571l-64 4c-9.33301 1.33301 -13.333 5.66602 -12 12.999l2 19h78
l7 56c4 28 10.833 53 20.5 75s21.5 40 35.5 54s30.167 24.667 48.5 32s37.833 11 58.5 11c9.33301 0 18.666 -0.833008 27.999 -2.5c9.33301 -1 17.666 -3.5 24.999 -7.5l-5 -24c-1.33301 -2.66699 -3 -4.33398 -5 -5.00098s-5 -0.666992 -9 0s-8.66699 1.33398 -14 2.00098
s-11.333 1 -18 1c-14.667 0 -28.667 -2.33301 -42 -7s-25.333 -12.334 -36 -23.001s-19.667 -24.334 -27 -41.001s-12.333 -37.667 -15 -63z" />
    <glyph glyph-name="f_t.liga" unicode="ft" horiz-adv-x="632" 
d="M170 482l245.002 -0.000976562l33 178c1.33301 2.66699 3 5.33398 5 8.00098s4.33301 4 7 4h24l-24 -190h144l-4 -34h-144l-34 -282c-1.33301 -13.333 -2.66602 -24.5 -3.99902 -33.5s-2.33301 -16.333 -3 -22s-1 -9.83398 -1 -12.501v-6c0 -21.333 5 -36.833 15 -46.5
s23 -14.5 39 -14.5c10.667 0 20.334 1.83301 29.001 5.5s16.167 7.5 22.5 11.5s11.666 7.66699 15.999 11s7.16602 5 8.49902 5c2.66699 0 5.33398 -1.33301 8.00098 -4l9 -22c-13.333 -14 -29.5 -25.167 -48.5 -33.5s-38.167 -12.5 -57.5 -12.5
c-27.333 0 -48.666 7.5 -63.999 22.5c-15.333 15.667 -23.333 38.834 -24 69.501c0 2 0.166992 4.5 0.5 7.5s0.666016 7.5 0.999023 13.5s1 13.667 2 23s2.5 21.333 4.5 36l35 284h-243l-53 -438l-21 -114c-4.66699 -13.333 -13 -20.333 -25 -21h-16l69 571l-63 5
c-8 2 -12 6.33301 -12 13l2 18h77l8 63c4 28 10.833 52.833 20.5 74.5s21.667 39.667 36 54s30.666 25 48.999 32s38.166 10.5 59.499 10.5c9.33301 0 18.5 -0.833008 27.5 -2.5c8.33301 -1.66699 16.5 -4.16699 24.5 -7.5l-4 -24
c-0.666992 -2.66699 -2.16699 -4.33398 -4.5 -5.00098s-5.5 -0.666992 -9.5 0s-8.66699 1.33398 -14 2.00098s-11.333 1 -18 1c-15.333 0 -29.833 -2.33301 -43.5 -7s-25.834 -12.5 -36.501 -23.5s-19.667 -25.167 -27 -42.5c-7.33301 -16.667 -12.333 -37.667 -15 -63z" />
    <glyph glyph-name="f_f_t.liga" unicode="fft" horiz-adv-x="912" 
d="M450 482l245.001 0.000976562l33 178c1.33301 2.66699 3 5.33398 5 8.00098s4.66699 4 8 4h23l-23 -190h145l-5 -35h-145l-34 -281c-1.33301 -13.333 -2.66602 -24.5 -3.99902 -33.5s-2.16602 -16.333 -2.49902 -22s-0.666016 -9.83398 -0.999023 -12.501
s-0.5 -4.66699 -0.5 -6c0 -21.333 5 -36.833 15 -46.5s23 -14.5 39 -14.5c10.667 0 20.5 1.83301 29.5 5.5s16.667 7.5 23 11.5s11.5 7.66699 15.5 11s7 5 9 5c2.66699 0 5 -1.33301 7 -4l10 -22c-13.333 -14 -29.666 -25.167 -48.999 -33.5s-38.333 -12.5 -57 -12.5
c-27.333 0 -48.833 7.5 -64.5 22.5c-15.667 15.667 -23.5 38.834 -23.5 69.501v7.5c0 3 0.333008 7.5 1 13.5s1.5 13.667 2.5 23c1.66699 9.33301 3.16699 21.333 4.5 36l34 283h-242l-54 -437l-20 -114c-4 -13.333 -12.333 -20.333 -25 -21h-17l69 572h-235l-52 -437
l-22 -114c-4 -13.333 -12 -20.333 -24 -21h-17l69 571l-62 4c-9.33301 1.33301 -13.333 5.66602 -12 12.999l2 19h77l7 56c4 28 10.667 53 20 75s21.166 40 35.499 54s30.666 24.667 48.999 32s37.833 11 58.5 11c9.33301 0 18.666 -0.833008 27.999 -2.5
c9.33301 -1 17.666 -3.5 24.999 -7.5l-5 -24c-1.33301 -2.66699 -3 -4.33398 -5 -5.00098s-4.83301 -0.666992 -8.5 0s-8.16699 1.33398 -13.5 2.00098s-11.666 1 -18.999 1c-14.667 0 -28.667 -2.33301 -42 -7s-25.166 -12.334 -35.499 -23.001
s-19.166 -24.334 -26.499 -41.001s-12.666 -37.667 -15.999 -63l-8 -58h237l8 66c3.33301 28 9.83301 52.667 19.5 74s21.667 39.333 36 54s30.666 25.5 48.999 32.5s38.166 10.5 59.499 10.5c9.33301 0 18.666 -0.833008 27.999 -2.5s17.333 -4.5 24 -8.5l-4 -24
c-1.33301 -2.66699 -3 -4 -5 -4h-9c-4 0 -8.66699 0.5 -14 1.5s-11.333 1.5 -18 1.5c-14.667 0 -28.834 -2.5 -42.501 -7.5s-25.834 -12.833 -36.501 -23.5s-19.667 -24.667 -27 -42c-8 -17.333 -13.333 -38.666 -16 -63.999z" />
    <glyph glyph-name="t_f.liga" unicode="tf" horiz-adv-x="618" 
d="M470 482l147.999 -0.00195312l-4 -35h-146l-54 -437l-20 -115c-4 -14 -12.333 -21 -25 -21h-17l70 573h-256l-35 -281c-1.33301 -13.333 -2.66602 -24.5 -3.99902 -33.5s-2.16602 -16.333 -2.49902 -22s-0.666016 -9.83398 -0.999023 -12.501s-0.5 -4.66699 -0.5 -6
c0 -21.333 5.16699 -36.833 15.5 -46.5s23.5 -14.5 39.5 -14.5c10.667 0 20.334 1.83301 29.001 5.5s16 7.5 22 11.5s11 7.66699 15 11s7.33301 5 10 5c2 0 3.5 -0.333008 4.5 -1s1.83301 -1.66699 2.5 -3l9 -22c-13.333 -14 -29.5 -25.167 -48.5 -33.5
c-19.667 -8.33301 -38.834 -12.5 -57.501 -12.5c-27.333 0 -48.666 7.5 -63.999 22.5c-16 15.667 -24 38.834 -24 69.501c0 2 0.166992 4.5 0.5 7.5s0.666016 7.5 0.999023 13.5s1.16602 13.667 2.49902 23s2.66602 21.333 3.99902 36l35 283h-65
c-3.33301 0 -6.16602 1 -8.49902 3c-2.33301 1.33301 -3.16602 4 -2.49902 8l3 18l78 6l33 178c0.666992 2.66699 2.16699 5.33398 4.5 8.00098s5.16602 4 8.49902 4h23l-23 -190h256l8 62c4 28 10.667 53 20 75s21.333 40 36 54s31 24.667 49 32s37.667 11 59 11
c9.33301 0 18.666 -0.833008 27.999 -2.5c9.33301 -1 17.666 -3.5 24.999 -7.5l-5 -24c-0.666992 -2.66699 -2.16699 -4.33398 -4.5 -5.00098s-5.5 -0.666992 -9.5 0s-8.66699 1.33398 -14 2.00098s-11.333 1 -18 1c-15.333 0 -29.666 -2.33301 -42.999 -7
s-25.333 -12.667 -36 -24s-19.667 -25.666 -27 -42.999c-8 -17.333 -13.333 -38.333 -16 -63z" />
    <glyph glyph-name="t_iogonek.liga" unicode="t&#x12f;" horiz-adv-x="539" 
d="M444 -122c2.66699 0 4.66602 -1.33398 5.99902 -4.00098l5 -16c-9.33301 -8 -20.833 -14.5 -34.5 -19.5s-27.5 -7.5 -41.5 -7.5c-22 0 -39.333 5.5 -52 16.5s-19 26.167 -19 45.5c0 11.333 2.16699 22.166 6.5 32.499s10 20 17 29s15 17.333 24 25
c9.66699 7.66699 19.167 14.5 28.5 20.5h-10l55 447h-263l-35 -281c-1.33301 -13.333 -2.66602 -24.5 -3.99902 -33.5s-2.16602 -16.333 -2.49902 -22s-0.666016 -9.83398 -0.999023 -12.501s-0.5 -4.66699 -0.5 -6c0 -21.333 5.16699 -36.833 15.5 -46.5
s23.5 -14.5 39.5 -14.5c10.667 0 20.334 1.83301 29.001 5.5s16 7.5 22 11.5s11 7.66699 15 11s7.33301 5 10 5c2 0 3.5 -0.333008 4.5 -1s1.83301 -1.66699 2.5 -3l9 -22c-13.333 -14 -29.5 -25.167 -48.5 -33.5c-19.667 -8.33301 -38.834 -12.5 -57.501 -12.5
c-27.333 0 -48.666 7.5 -63.999 22.5c-16 15.667 -24 38.834 -24 69.501c0 2 0.166992 4.5 0.5 7.5s0.666016 7.5 0.999023 13.5s1.16602 13.667 2.49902 23s2.66602 21.333 3.99902 36l35 283h-65c-3.33301 0 -6.16602 1 -8.49902 3
c-2.33301 1.33301 -3.16602 4 -2.49902 8l3 18l78 6l33 178c0.666992 2.66699 2.16699 5.33398 4.5 8.00098s5.16602 4 8.49902 4h23l-23 -190h310l-4 -35h-1l-55 -447h-3c-6.66699 -4 -14.334 -9 -23.001 -15s-16.5 -13 -23.5 -21s-13.167 -17 -18.5 -27s-8 -20.667 -8 -32
c0 -13.333 4.33301 -24.166 13 -32.499s20 -12.5 34 -12.5c8.66699 0 16 1 22 3s11 4 15 6s7.33301 4 10 6s4.66699 3 6 3zM521.999 668.999c0 -6 -1.33301 -11.667 -4 -17s-6 -10 -10 -14s-8.5 -7 -13.5 -9s-10.167 -3 -15.5 -3s-10.5 1 -15.5 3s-9.5 5 -13.5 9
s-7.16699 8.66699 -9.5 14s-3.5 11 -3.5 17s1.16699 11.667 3.5 17s5.5 10 9.5 14s8.33301 7.33301 13 10s10 4 16 4c5.33301 0 10.5 -1.33301 15.5 -4s9.5 -6 13.5 -10s7.33301 -8.66699 10 -14s4 -11 4 -17z" />
    <glyph glyph-name="t_dotlessi.liga" unicode="t&#x131;" horiz-adv-x="539" 
d="M480 482l-4.00293 -35.001h-1l-55 -447h-46l54 447h-263l-35 -281c-1.33301 -13.333 -2.5 -24.5 -3.5 -33.5s-1.66699 -16.333 -2 -22s-0.666016 -9.83398 -0.999023 -12.501s-0.5 -4.66699 -0.5 -6c0 -21.333 5 -36.833 15 -46.5s23 -14.5 39 -14.5
c10.667 0 20.5 1.83301 29.5 5.5s16.5 7.5 22.5 11.5s11 7.66699 15 11s7.33301 5 10 5s4.66699 -1.33301 6 -4l10 -22c-13.333 -14 -29.5 -25.167 -48.5 -33.5s-38.167 -12.5 -57.5 -12.5c-27.333 0 -48.666 7.5 -63.999 22.5c-15.333 15.667 -23.333 38.834 -24 69.501
v7.5c0 3 0.333008 7.5 1 13.5s1.66699 13.667 3 23s2.66602 21.333 3.99902 36l34 283h-64c-3.33301 0 -6.16602 1 -8.49902 3c-2.33301 1.33301 -3.16602 4 -2.49902 8l2 18l79 6l32 178c1.33301 2.66699 3 5.33398 5 8.00098s5 4 9 4h23l-23 -190h310z" />
    <glyph glyph-name="t_t.liga" unicode="tt" horiz-adv-x="633" 
d="M76 84l-0.00292969 7.49902c0 3 0.333008 7.5 1 13.5s1.66699 13.667 3 23s2.66602 21.333 3.99902 36l34 283h-64c-3.33301 0 -6.16602 1 -8.49902 3c-2.33301 1.33301 -3.16602 4 -2.49902 8l2 18l79 6l32 178c1.33301 2.66699 3 5.33398 5 8.00098s5 4 9 4h23
l-23 -190h246l33 178c0.666992 2.66699 2.16699 5.33398 4.5 8.00098s5.16602 4 8.49902 4h23l-23 -190h144l-5 -35h-143l-35 -281c-1.33301 -13.333 -2.66602 -24.5 -3.99902 -33.5s-2.16602 -16.333 -2.49902 -22s-0.666016 -9.83398 -0.999023 -12.501
s-0.5 -4.66699 -0.5 -6c0 -21.333 5.16699 -36.833 15.5 -46.5s23.5 -14.5 39.5 -14.5c10.667 0 20.334 1.83301 29.001 5.5s16 7.5 22 11.5s11 7.66699 15 11s7.33301 5 10 5c2 0 3.5 -0.333008 4.5 -1s1.83301 -1.66699 2.5 -3l9 -22
c-13.333 -14 -29.5 -25.167 -48.5 -33.5c-19.667 -8.33301 -38.834 -12.5 -57.501 -12.5c-27.333 0 -48.666 7.5 -63.999 22.5c-16 15.667 -24 38.834 -24 69.501c0 2 0.166992 4.5 0.5 7.5s0.666016 7.5 0.999023 13.5s1.16602 13.667 2.49902 23
s2.66602 21.333 3.99902 36l35 283h-246l-35 -281c-1.33301 -13.333 -2.5 -24.5 -3.5 -33.5s-1.66699 -16.333 -2 -22s-0.666016 -9.83398 -0.999023 -12.501s-0.5 -4.66699 -0.5 -6c0 -21.333 5 -36.833 15 -46.5s23 -14.5 39 -14.5c10.667 0 20.5 1.83301 29.5 5.5
s16.5 7.5 22.5 11.5s11 7.66699 15 11s7.33301 5 10 5s4.66699 -1.33301 6 -4l10 -22c-13.333 -14 -29.5 -25.167 -48.5 -33.5s-38.167 -12.5 -57.5 -12.5c-27.333 0 -48.666 7.66699 -63.999 23s-23.333 38.333 -24 69z" />
    <glyph glyph-name="t_t_f.liga" unicode="ttf" horiz-adv-x="909" 
d="M762 482l148.001 -0.00292969l-4 -35h-146l-54 -437l-20 -115c-4 -14 -12.333 -21 -25 -21h-17l70 573h-257l-35 -281c-1.33301 -13.333 -2.5 -24.5 -3.5 -33.5s-1.66699 -16.333 -2 -22s-0.666016 -9.83398 -0.999023 -12.501s-0.5 -4.66699 -0.5 -6
c0 -21.333 5 -36.833 15 -46.5s23 -14.5 39 -14.5c10.667 0 20.5 1.83301 29.5 5.5s16.5 7.5 22.5 11.5s11 7.66699 15 11s7.33301 5 10 5s4.66699 -1.33301 6 -4l10 -22c-13.333 -14 -29.5 -25.167 -48.5 -33.5s-38.167 -12.5 -57.5 -12.5
c-27.333 0 -48.666 7.5 -63.999 22.5c-15.333 15.667 -23.333 38.834 -24 69.501v7.5c0 3 0.333008 7.5 1 13.5s1.66699 13.667 3 23s2.66602 21.333 3.99902 36l34 283h-244l-35 -281c-1.33301 -13.333 -2.66602 -24.5 -3.99902 -33.5s-2.16602 -16.333 -2.49902 -22
s-0.666016 -9.83398 -0.999023 -12.501s-0.5 -4.66699 -0.5 -6c0 -21.333 5.16699 -36.833 15.5 -46.5s23.5 -14.5 39.5 -14.5c10.667 0 20.334 1.83301 29.001 5.5s16 7.5 22 11.5s11 7.66699 15 11s7.33301 5 10 5c2 0 3.5 -0.333008 4.5 -1s1.83301 -1.66699 2.5 -3
l9 -22c-13.333 -14 -29.5 -25.167 -48.5 -33.5c-19.667 -8.33301 -38.834 -12.5 -57.501 -12.5c-27.333 0 -48.666 7.5 -63.999 22.5c-16 15.667 -24 38.834 -24 69.501c0 2 0.166992 4.5 0.5 7.5s0.666016 7.5 0.999023 13.5s1.16602 13.667 2.49902 23
s2.66602 21.333 3.99902 36l35 283h-65c-3.33301 0 -6.16602 1 -8.49902 3c-2.33301 1.33301 -3.16602 4 -2.49902 8l3 18l78 6l33 178c0.666992 2.66699 2.16699 5.33398 4.5 8.00098s5.16602 4 8.49902 4h23l-23 -190h246l32 178c1.33301 2.66699 3 5.33398 5 8.00098
s5 4 9 4h23l-23 -190h256l8 62c3.33301 28 9.83301 53 19.5 75s21.667 40 36 54s30.666 24.667 48.999 32s38.166 11 59.499 11c9.33301 0 18.666 -0.833008 27.999 -2.5c9.33301 -1 17.333 -3.5 24 -7.5l-4 -24c-0.666992 -2.66699 -2.16699 -4.33398 -4.5 -5.00098
s-5.5 -0.666992 -9.5 0s-8.66699 1.33398 -14 2.00098s-11.333 1 -18 1c-14.667 0 -28.834 -2.33301 -42.501 -7s-25.834 -12.667 -36.501 -24s-19.667 -25.666 -27 -42.999s-12.666 -38.333 -15.999 -63z" />
    <glyph glyph-name="t_t_iogonek.liga" unicode="tt&#x12f;" horiz-adv-x="822" 
d="M730 -122c2.66699 0 4.66602 -1.33398 5.99902 -4.00098l6 -16c-9.33301 -8 -21 -14.5 -35 -19.5s-28.333 -7.5 -43 -7.5c-22 0 -39.167 5.5 -51.5 16.5s-18.5 26.167 -18.5 45.5c0 11.333 2 22.166 6 32.499s9.66699 20 17 29s15.333 17.333 24 25s18 14.5 28 20.5h-13
l56 447h-255l-35 -281c-1.33301 -13.333 -2.5 -24.5 -3.5 -33.5s-1.66699 -16.333 -2 -22s-0.666016 -9.83398 -0.999023 -12.501s-0.5 -4.66699 -0.5 -6c0 -21.333 5 -36.833 15 -46.5s23 -14.5 39 -14.5c10.667 0 20.5 1.83301 29.5 5.5s16.5 7.5 22.5 11.5
s11 7.66699 15 11s7.33301 5 10 5s4.66699 -1.33301 6 -4l10 -22c-13.333 -14 -29.5 -25.167 -48.5 -33.5s-38.167 -12.5 -57.5 -12.5c-27.333 0 -48.666 7.5 -63.999 22.5c-15.333 15.667 -23.333 38.834 -24 69.501v7.5c0 3 0.333008 7.5 1 13.5s1.66699 13.667 3 23
s2.66602 21.333 3.99902 36l34 283h-244l-35 -281c-1.33301 -13.333 -2.66602 -24.5 -3.99902 -33.5s-2.16602 -16.333 -2.49902 -22s-0.666016 -9.83398 -0.999023 -12.501s-0.5 -4.66699 -0.5 -6c0 -21.333 5.16699 -36.833 15.5 -46.5s23.5 -14.5 39.5 -14.5
c10.667 0 20.334 1.83301 29.001 5.5s16 7.5 22 11.5s11 7.66699 15 11s7.33301 5 10 5c2 0 3.5 -0.333008 4.5 -1s1.83301 -1.66699 2.5 -3l9 -22c-13.333 -14 -29.5 -25.167 -48.5 -33.5c-19.667 -8.33301 -38.834 -12.5 -57.501 -12.5
c-27.333 0 -48.666 7.5 -63.999 22.5c-16 15.667 -24 38.834 -24 69.501c0 2 0.166992 4.5 0.5 7.5s0.666016 7.5 0.999023 13.5s1.16602 13.667 2.49902 23s2.66602 21.333 3.99902 36l35 283h-65c-3.33301 0 -6.16602 1 -8.49902 3
c-2.33301 1.33301 -3.16602 4 -2.49902 8l3 18l78 6l33 178c0.666992 2.66699 2.16699 5.33398 4.5 8.00098s5.16602 4 8.49902 4h23l-23 -190h246l32 178c1.33301 2.66699 3 5.33398 5 8.00098s5 4 9 4h23l-23 -190h300l-4 -35v0l-55 -447h1
c-6.66699 -4 -14.334 -9 -23.001 -15s-16.667 -13 -24 -21s-13.333 -17 -18 -27s-7 -20.667 -7 -32c0 -13.333 4.16699 -23.833 12.5 -31.5s19.166 -11.5 32.499 -11.5c8 0 15.167 0.833008 21.5 2.5s11.5 3.5 15.5 5.5s7.33301 3.83301 10 5.5s4.66699 2.5 6 2.5z
M803.999 668.999c0 -6 -1 -11.667 -3 -17s-5 -10 -9 -14s-8.66699 -7 -14 -9s-10.666 -3 -15.999 -3s-10.666 1 -15.999 3s-9.83301 5 -13.5 9s-6.66699 8.66699 -9 14s-3.5 11 -3.5 17s1.16699 11.667 3.5 17s5.33301 10 9 14s8.16699 7.33301 13.5 10s10.666 4 15.999 4
s10.666 -1.33301 15.999 -4s10 -6 14 -10s7 -8.66699 9 -14s3 -11 3 -17z" />
    <glyph glyph-name="t_t_dotlessi.liga" unicode="tt&#x131;" horiz-adv-x="822" 
d="M76 84l-0.00683594 7.49902c0 3 0.333008 7.5 1 13.5s1.66699 13.667 3 23s2.66602 21.333 3.99902 36l34 283h-64c-3.33301 0 -6.16602 1 -8.49902 3c-2.33301 1.33301 -3.16602 4 -2.49902 8l2 18l79 6l32 178c1.33301 2.66699 3 5.33398 5 8.00098s5 4 9 4h23
l-23 -190h246l32 178c0.666992 2.66699 2.16699 5.33398 4.5 8.00098s5.5 4 9.5 4h22l-23 -190h301l-60 -482h-46l55 447h-254l-35 -281c-1.33301 -13.333 -2.66602 -24.5 -3.99902 -33.5s-2.16602 -16.333 -2.49902 -22s-0.666016 -9.83398 -0.999023 -12.501
s-0.5 -4.66699 -0.5 -6c0 -21.333 5.16699 -36.833 15.5 -46.5s23.5 -14.5 39.5 -14.5c10.667 0 20.334 1.83301 29.001 5.5s16.167 7.5 22.5 11.5s11.5 7.66699 15.5 11s7 5 9 5s3.5 -0.333008 4.5 -1c0.333008 -0.666992 1.16602 -1.66699 2.49902 -3l10 -22
c-13.333 -14 -29.666 -25.167 -48.999 -33.5s-38.333 -12.5 -57 -12.5c-27.333 0 -48.833 7.5 -64.5 22.5c-15.667 15.667 -23.5 38.834 -23.5 69.501v7.5c0 3 0.333008 7.5 1 13.5s1.5 13.667 2.5 23s2.5 21.333 4.5 36l34 283h-245l-35 -281
c-1.33301 -13.333 -2.5 -24.5 -3.5 -33.5s-1.66699 -16.333 -2 -22s-0.666016 -9.83398 -0.999023 -12.501s-0.5 -4.66699 -0.5 -6c0 -21.333 5 -36.833 15 -46.5s23 -14.5 39 -14.5c10.667 0 20.5 1.83301 29.5 5.5s16.5 7.5 22.5 11.5s11 7.66699 15 11s7.33301 5 10 5
s4.66699 -1.33301 6 -4l10 -22c-13.333 -14 -29.5 -25.167 -48.5 -33.5s-38.167 -12.5 -57.5 -12.5c-27.333 0 -48.666 7.66699 -63.999 23s-23.333 38.333 -24 69z" />
    <glyph glyph-name="f_uni01D0.liga" unicode="f&#x1d0;" horiz-adv-x="499" 
d="M168 482h271l-59 -482h-46l54 446h-222l-54 -436l-20 -114c-4 -13.333 -12 -20.333 -24 -21h-18l70 571l-62 4c-9.33301 1.33301 -13.333 5.33301 -12 12l2 20h77l9 69c6.66699 56 22 98.167 46 126.5s54.667 42.5 92 42.5c5.33301 0 11 -0.166992 17 -0.5
s11 -1.16602 15 -2.49902l-3 -25c0 -4 -2.16699 -6 -6.5 -6h-19.5c-26 0 -47.333 -11.333 -64 -34s-27.667 -56.334 -33 -101.001zM327 708l32.999 -0.000976562c2.66699 0 5 -0.666992 7 -2s3.66699 -2.66602 5 -3.99902l56 -82l4 -8
c1.33301 2.66699 3.33301 5.33398 6 8.00098l78 82c1.33301 1.33301 3.33301 2.66602 6 3.99902s5.33398 2 8.00098 2h32l-112 -124h-42z" />
    <glyph glyph-name="f_uni0209.liga" unicode="f&#x209;" horiz-adv-x="499" 
d="M169 482l232.999 -0.000976562v0h37l-59 -482h-46l54 446h-222l-52 -436l-21 -114c-4.66699 -13.333 -13 -20.333 -25 -21h-17l70 571l-63 4c-8 1.33301 -12 5.33301 -12 12l2 20h78l8 69c4 30.667 10.333 56.834 19 78.501s19.667 39.167 33 52.5s28.666 23 45.999 29
s36 9 56 9c11.333 0 20.333 -1.33301 27 -4c6 -2.66699 11.667 -8 17 -16l70 -120h-24c-6.66699 0 -12 2.66699 -16 8l-68 98c-17.333 0 -32.666 -2.5 -45.999 -7.5s-24.666 -12.833 -33.999 -23.5s-17 -24.5 -23 -41.5s-10.333 -37.833 -13 -62.5zM428.999 715.999
c8 0 13.667 -1.33301 17 -4s6.33301 -6.66699 9 -12l55 -120h-20c-8 0 -14 2.66699 -18 8l-75 128h32z" />
    <glyph glyph-name="f_uni020B.liga" unicode="f&#x20b;" horiz-adv-x="499" 
d="M168 482h271l-59 -482h-46l54 446h-222l-54 -436l-20 -114c-4 -13.333 -12 -20.333 -24 -21h-18l70 571l-62 4c-9.33301 1.33301 -13.333 5.33301 -12 12l2 20h77l9 69c6.66699 56 22 98.167 46 126.5s54.667 42.5 92 42.5c5.33301 0 11 -0.166992 17 -0.5
s11 -1.16602 15 -2.49902l-3 -25c0 -4 -2.16699 -6 -6.5 -6h-19.5c-26 0 -47.333 -11.333 -64 -34s-27.667 -56.334 -33 -101.001zM444 712c20 0 36.834 -3.16699 50.501 -9.5s24.334 -15 32.001 -26s12.5 -24.167 14.5 -39.5s2 -31 0 -47h-33
c1.33301 12 1.33301 23.667 0 35s-4.5 21 -9.5 29s-12.167 14.5 -21.5 19.5c-8.66699 5 -20.334 7.5 -35.001 7.5s-27.334 -2.5 -38.001 -7.5s-19.667 -11.5 -27 -19.5s-13 -17.667 -17 -29s-6.66699 -23 -8 -35h-34c2 16.667 6 32.5 12 47.5s14.167 28 24.5 39
s22.833 19.667 37.5 26s32 9.5 52 9.5z" />
    <glyph glyph-name="f_uni1E2F.liga" unicode="f&#x1e2f;" horiz-adv-x="499" 
d="M169 482h271l-60 -482h-47l55 446h-222l-52 -436l-21 -114c-4.66699 -13.333 -13 -20.333 -25 -21h-17l70 571l-63 4c-8 1.33301 -12 5.33301 -12 12l2 20h78l8 69c6.66699 55.333 22.167 97.333 46.5 126c23.667 28.667 54.167 43 91.5 43
c5.33301 0 11.166 -0.166992 17.499 -0.5c5.66699 -0.333008 10.5 -1.16602 14.5 -2.49902l-2 -25c0 -4 -2.16699 -6 -6.5 -6h-19.5c-26 0 -47.333 -11.333 -64 -34c-17.333 -22.667 -28.666 -56.334 -33.999 -101.001zM572 789l-112 -118.999
c-5.33301 -5.33301 -11.333 -8 -18 -8h-28l82 112c4 5.33301 8 9.16602 12 11.499s10 3.5 18 3.5h46zM540 602.001c0 -10.667 -4.00098 -19.667 -12.001 -27s-17 -11 -27 -11c-10.667 0 -19.667 3.66699 -27 11s-11 16.333 -11 27s3.83301 19.667 11.5 27s16.5 11 26.5 11
c10.667 0 19.834 -3.66699 27.501 -11s11.5 -16.333 11.5 -27zM397.999 602.001c0 -10.667 -3.83301 -19.668 -11.5 -27.001s-16.5 -11 -26.5 -11c-10.667 0 -19.667 3.66699 -27 11s-11 16.333 -11 27s3.66699 19.667 11 27s16.333 11 27 11c5.33301 0 10.333 -1 15 -3
s8.66699 -4.83301 12 -8.5s6 -7.66699 8 -12s3 -9.16602 3 -14.499z" />
    <glyph glyph-name="f_f_uni01D0.liga" unicode="ff&#x1d0;" horiz-adv-x="779" 
d="M449 482l271 0.00292969l-4 -35h-1l-55 -447h-46l55 447h-223l-52 -437l-21 -114c-4.66699 -13.333 -13 -20.333 -25 -21h-17l70 572h-235l-52 -437l-22 -114c-4 -13.333 -12 -20.333 -24 -21h-17l69 571l-62 4c-9.33301 1.33301 -13.333 5.66602 -12 12.999l2 19h77
l7 56c4 28 10.667 53 20 75s21.166 40 35.499 54s30.666 24.667 48.999 32s37.833 11 58.5 11c9.33301 0 18.666 -0.833008 27.999 -2.5c9.33301 -1 17.666 -3.5 24.999 -7.5l-5 -24c-1.33301 -2.66699 -3 -4.33398 -5 -5.00098s-4.83301 -0.666992 -8.5 0
s-8.16699 1.33398 -13.5 2.00098s-11.666 1 -18.999 1c-14.667 0 -28.667 -2.33301 -42 -7s-25.166 -12.334 -35.499 -23.001s-19.166 -24.334 -26.499 -41.001s-12.666 -37.667 -15.999 -63l-8 -58h237l8 69c6.66699 55.333 22.167 97.333 46.5 126
c23.667 28.667 54.167 43 91.5 43c5.33301 0 11.166 -0.166992 17.499 -0.5c5.66699 -0.333008 10.5 -1.16602 14.5 -2.49902l-2 -25c0 -4 -2.16699 -6 -6.5 -6h-19.5c-26 0 -47.333 -11.333 -64 -34c-17.333 -22.667 -28.666 -56.334 -33.999 -101.001zM608 708.003
l32.001 -0.000976562c2.66699 0 5 -0.666992 7 -2s3.66699 -2.66602 5 -3.99902l58 -82l3 -8l7 8l77 82c3.33301 4 7.66602 6 12.999 6h32l-112 -124h-41z" />
    <glyph glyph-name="f_f_uni0209.liga" unicode="ff&#x209;" horiz-adv-x="780" 
d="M170 482l236.003 0.00195312l9 69c4 30.667 10.5 56.834 19.5 78.501s20.167 39.167 33.5 52.5s28.5 23 45.5 29c17.667 6 36.5 9 56.5 9c11.333 0 20.166 -1.33301 26.499 -4s12.166 -8 17.499 -16l69 -120h-23c-6.66699 0 -12 2.66699 -16 8l-68 98
c-17.333 0 -32.666 -2.5 -45.999 -7.5s-24.666 -12.833 -33.999 -23.5s-17 -24.5 -23 -41.5s-10.333 -37.833 -13 -62.5l-10 -69h270v0l-1 -7l-3 -28v0l-55 -447h-46l55 447h-222l-54 -437l-20 -114c-4 -13.333 -12 -20.333 -24 -21h-18l70 572h-234l-54 -437l-20 -114
c-4 -13.333 -12.333 -20.333 -25 -21h-17l70 571l-64 4c-4 0.666992 -7.33301 2.16699 -10 4.5s-3.33398 5.16602 -2.00098 8.49902l2 19h78l7 56c3.33301 28 9.83301 53 19.5 75s21.667 40 36 54s30.5 24.667 48.5 32s37.667 11 59 11
c9.33301 0 18.666 -0.833008 27.999 -2.5c9.33301 -1 17.666 -3.5 24.999 -7.5l-5 -24c-1.33301 -2.66699 -3 -4.33398 -5 -5.00098s-5 -0.666992 -9 0s-8.66699 1.33398 -14 2.00098s-11.333 1 -18 1c-14.667 0 -28.667 -2.33301 -42 -7s-25.333 -12.334 -36 -23.001
s-19.667 -24.334 -27 -41.001s-12.333 -37.667 -15 -63zM710.003 716.002c8 0 13.667 -1.33301 17 -4s6.33301 -6.66699 9 -12l55 -120h-20c-8 0 -13.667 2.66699 -17 8l-76 128h32z" />
    <glyph glyph-name="f_f_uni020B.liga" unicode="ff&#x20b;" horiz-adv-x="779" 
d="M449 482l271 0.00292969l-4 -35h-1l-55 -447h-46l55 447h-223l-52 -437l-21 -114c-4.66699 -13.333 -13 -20.333 -25 -21h-17l70 572h-235l-52 -437l-22 -114c-4 -13.333 -12 -20.333 -24 -21h-17l69 571l-62 4c-9.33301 1.33301 -13.333 5.66602 -12 12.999l2 19h77
l7 56c4 28 10.667 53 20 75s21.166 40 35.499 54s30.666 24.667 48.999 32s37.833 11 58.5 11c9.33301 0 18.666 -0.833008 27.999 -2.5c9.33301 -1 17.666 -3.5 24.999 -7.5l-5 -24c-1.33301 -2.66699 -3 -4.33398 -5 -5.00098s-4.83301 -0.666992 -8.5 0
s-8.16699 1.33398 -13.5 2.00098s-11.666 1 -18.999 1c-14.667 0 -28.667 -2.33301 -42 -7s-25.166 -12.334 -35.499 -23.001s-19.166 -24.334 -26.499 -41.001s-12.666 -37.667 -15.999 -63l-8 -58h237l8 69c6.66699 55.333 22.167 97.333 46.5 126
c23.667 28.667 54.167 43 91.5 43c5.33301 0 11.166 -0.166992 17.499 -0.5c5.66699 -0.333008 10.5 -1.16602 14.5 -2.49902l-2 -25c0 -4 -2.16699 -6 -6.5 -6h-19.5c-26 0 -47.333 -11.333 -64 -34c-17.333 -22.667 -28.666 -56.334 -33.999 -101.001zM724 712.003
c20 0 36.8301 -3.16699 50.4971 -9.5s24.334 -15 32.001 -26s12.5 -24.167 14.5 -39.5s1.66699 -31 -1 -47h-33c1.33301 12 1.5 23.667 0.5 35s-4.16699 21 -9.5 29s-12.666 14.5 -21.999 19.5s-21 7.5 -35 7.5c-14.667 0 -27.167 -2.5 -37.5 -7.5
s-19.166 -11.5 -26.499 -19.5s-13 -17.667 -17 -29s-6.66699 -23 -8 -35h-34c2 16.667 6 32.5 12 47.5s14.167 28 24.5 39s22.833 19.667 37.5 26s32 9.5 52 9.5z" />
    <glyph glyph-name="f_f_uni1E2F.liga" unicode="ff&#x1e2f;" horiz-adv-x="779" 
d="M449 482l271.001 0.00292969l-4 -35h-1l-55 -447h-46l54 447h-222l-53 -437l-21 -114c-4 -13.333 -12 -20.333 -24 -21h-17l69 572h-232l-54 -437l-20 -114c-4 -13.333 -12.333 -20.333 -25 -21h-17l70 571l-64 4c-9.33301 1.33301 -13.666 5.66602 -12.999 12.999l3 19
h78l7 56c3.33301 28 9.83301 53 19.5 75s21.667 40 36 54s30.5 24.667 48.5 32s37.667 11 59 11c9.33301 0 18.666 -0.833008 27.999 -2.5c9.33301 -1 17.666 -3.5 24.999 -7.5l-5 -24c-1.33301 -2.66699 -3 -4.33398 -5 -5.00098s-5 -0.666992 -9 0
s-8.66699 1.33398 -14 2.00098s-11.333 1 -18 1c-14.667 0 -28.667 -2.33301 -42 -7s-25.333 -12.334 -36 -23.001s-19.667 -24.334 -27 -41.001s-12.333 -37.667 -15 -63l-8 -58h235l9 69c6.66699 55.333 22.167 97.333 46.5 126c23.667 28.667 54.167 43 91.5 43
c5.33301 0 11 -0.166992 17 -0.5s11 -1.16602 15 -2.49902l-2 -25c-0.666992 -4 -3.16699 -6 -7.5 -6h-18.5c-26 0 -47.5 -11.333 -64.5 -34s-28.167 -56.334 -33.5 -101.001zM852.001 789.003l-112 -118.999c-5.33301 -5.33301 -11.333 -8 -18 -8h-28l82 112
c4 5.33301 8 9.16602 12 11.499s10 3.5 18 3.5h46zM820.001 602.004c0 -10.667 -3.83301 -19.667 -11.5 -27c-7 -7.33301 -15.833 -11 -26.5 -11s-19.667 3.66699 -27 11s-11 16.333 -11 27s3.66699 19.667 11 27s16.333 11 27 11s19.667 -3.66699 27 -11s11 -16.333 11 -27
zM678.001 602.004c0 -10.667 -3.83301 -19.667 -11.5 -27s-16.5 -11 -26.5 -11s-18.833 3.66699 -26.5 11s-11.5 16.333 -11.5 27c0 5.33301 1 10.166 3 14.499s4.66699 8.33301 8 12s7.33301 6.5 12 8.5s9.66699 3 15 3s10.333 -1 15 -3s8.66699 -4.83301 12 -8.5
s6 -7.66699 8 -12s3 -9.16602 3 -14.499z" />
    <glyph glyph-name="f_uni0237.liga" unicode="f&#x237;" horiz-adv-x="499" 
d="M170 482h269.997l-67 -546c-2 -17.333 -6.33301 -33.333 -13 -48s-15.334 -27.334 -26.001 -38.001s-23.167 -19 -37.5 -25c-15 -6 -31.167 -9 -48.5 -9c-9.33301 0 -17.5 0.666992 -24.5 2c-6.33301 1.33301 -12.833 4 -19.5 8l4 24
c1.33301 2.66699 3 4.33398 5 5.00098s4.16699 0.666992 6.5 0s5.33301 -1.33398 9 -2.00098s8.83398 -1 15.501 -1c24.667 0 43.667 7.33301 57 22c12.667 14.667 21 35.334 25 62.001l62 512h-222l-52 -438l-21 -114c-4.66699 -13.333 -13 -20.333 -25 -21h-16l69 571
l-63 5c-8 2 -12 6.33301 -12 13l2 18h78l8 69c6.66699 55.333 22.334 97.333 47.001 126s55.334 43 92.001 43c5.33301 0 11 -0.166992 17 -0.5s11 -1.16602 15 -2.49902l-3 -25c-0.666992 -4 -3 -6 -7 -6h-19c-26 0 -47.333 -11.333 -64 -34
c-17.333 -22.667 -28.666 -56.334 -33.999 -101.001z" />
    <glyph glyph-name="f_f_uni0237.liga" unicode="ff&#x237;" horiz-adv-x="780" 
d="M450 482l269.995 0.00195312l-66 -546c-2 -17.333 -6.5 -33.333 -13.5 -48s-15.667 -27.334 -26 -38.001s-22.666 -19.167 -36.999 -25.5s-30.5 -9.5 -48.5 -9.5c-9.33301 0 -17.5 0.833008 -24.5 2.5s-13.833 4.5 -20.5 8.5l5 24
c1.33301 2.66699 2.83301 4.33398 4.5 5.00098s3.83398 0.666992 6.50098 0s5.83398 -1.33398 9.50098 -2.00098s8.5 -1 14.5 -1c24.667 0 43.834 7.33301 57.501 22s22.167 35.334 25.5 62.001l62 512h-223l-52 -438l-21 -114c-4.66699 -13.333 -13 -20.333 -25 -21h-16
l69 573h-235l-52 -438l-22 -114c-4 -13.333 -12 -20.333 -24 -21h-17l69 571l-62 5c-8 2 -12 6.33301 -12 13l2 18h77l7 56c4 28 10.667 53 20 75s21.166 40 35.499 54s30.666 24.667 48.999 32s37.833 11 58.5 11c9.33301 0 18.666 -0.833008 27.999 -2.5
c9.33301 -1 17.666 -3.5 24.999 -7.5l-5 -24c-1.33301 -2.66699 -3 -4.33398 -5 -5.00098s-4.83301 -0.666992 -8.5 0s-8.16699 1.33398 -13.5 2.00098s-11.666 1 -18.999 1c-14.667 0 -28.667 -2.33301 -42 -7s-25.166 -12.334 -35.499 -23.001
s-19.166 -24.334 -26.499 -41.001s-12.666 -37.667 -15.999 -63l-8 -58h237l8 69c6.66699 55.333 22.334 97.333 47.001 126s55 43 91 43c5.33301 0 11.166 -0.166992 17.499 -0.5c5.66699 -0.333008 10.5 -1.16602 14.5 -2.49902l-2 -25c-0.666992 -4 -3 -6 -7 -6h-19
c-26 0 -47.333 -11.333 -64 -34c-17.333 -22.667 -28.666 -56.334 -33.999 -101.001z" />
    <glyph glyph-name="f_jcircumflex.liga" unicode="f&#x135;" horiz-adv-x="499" 
d="M170 482h269.997l-67 -546c-2 -17.333 -6.33301 -33.333 -13 -48s-15.334 -27.334 -26.001 -38.001s-23.167 -19 -37.5 -25c-15 -6 -31.167 -9 -48.5 -9c-9.33301 0 -17.5 0.666992 -24.5 2c-6.33301 1.33301 -12.833 4 -19.5 8l4 24
c1.33301 2.66699 3 4.33398 5 5.00098s4.16699 0.666992 6.5 0s5.33301 -1.33398 9 -2.00098s8.83398 -1 15.501 -1c24.667 0 43.667 7.33301 57 22c12.667 14.667 21 35.334 25 62.001l62 512h-222l-52 -438l-21 -114c-4.66699 -13.333 -13 -20.333 -25 -21h-16l69 571
l-63 5c-8 2 -12 6.33301 -12 13l2 18h78l8 69c6.66699 55.333 22.334 97.333 47.001 126s55.334 43 92.001 43c5.33301 0 11 -0.166992 17 -0.5s11 -1.16602 15 -2.49902l-3 -25c-0.666992 -4 -3 -6 -7 -6h-19c-26 0 -47.333 -11.333 -64 -34
c-17.333 -22.667 -28.666 -56.334 -33.999 -101.001zM552.997 584h-30c-2 0 -4.16699 0.666992 -6.5 2s-4.5 3.33301 -6.5 6l-61 82c-0.666992 0.666992 -1.5 1.66699 -2.5 3c-1 0.666992 -1.83301 1.66699 -2.5 3l-5 -6l-81 -82c-4 -5.33301 -8.66699 -8 -14 -8h-31
l114 124h39z" />
    <glyph glyph-name="f_lcaron.liga" unicode="f&#x13e;" horiz-adv-x="521" 
d="M606 728c4 0 6.66699 -0.830078 8 -2.49707s2 -4.16699 2 -7.5s-0.666992 -7.83301 -2 -13.5s-3.83301 -13.334 -7.5 -23.001s-8.5 -21.834 -14.5 -36.501c-5.33301 -14.667 -12.666 -33 -21.999 -55c-2.66699 -4.66699 -5.33398 -7.83398 -8.00098 -9.50098
s-6.66699 -2.5 -12 -2.5h-12l42 150h26zM167 447.003l-53.999 -437l-21 -115c-4 -14 -12 -21 -24 -21h-18l70 572l-62 4c-8 1.33301 -12 5.33301 -12 12l2 20h77l4 33c4 29.333 11.5 56.5 22.5 81.5s25.167 46.5 42.5 64.5s38.166 32.333 62.499 43
c25 10.667 52.167 16 81.5 16c22.667 0 44.667 -1.16699 66 -3.5s41.333 -3.5 60 -3.5h26l-87 -713h-47l83 678c-16 0.666992 -32.5 1.83398 -49.5 3.50098s-33.5 2.5 -49.5 2.5c-22.667 0 -43.667 -3.83301 -63 -11.5s-36 -18.834 -50 -33.501s-25.667 -32.5 -35 -53.5
s-15.333 -44.5 -18 -70.5l-4 -33h132l-4 -35h-131z" />
    <glyph glyph-name="f_uni013C.liga" unicode="f&#x13c;" horiz-adv-x="521" 
d="M167 447l-53.999 -437l-21 -115c-4 -14 -12 -21 -24 -21h-18l70 572l-62 4c-8 1.33301 -12 5.33301 -12 12l2 20h77l4 33c4 29.333 11.5 56.5 22.5 81.5s25.167 46.5 42.5 64.5s38.166 32.333 62.499 43c25 10.667 52.167 16 81.5 16c22.667 0 44.667 -1.16699 66 -3.5
s41.333 -3.5 60 -3.5h26l-87 -713h-47l83 678c-16 0.666992 -32.5 1.83398 -49.5 3.50098s-33.5 2.5 -49.5 2.5c-22.667 0 -43.667 -3.83301 -63 -11.5s-36 -18.834 -50 -33.501s-25.667 -32.5 -35 -53.5s-15.333 -44.5 -18 -70.5l-4 -33h132l-4 -35h-131zM386.001 -52
c4 0 6.66797 -0.99707 8.00098 -2.99707s2 -4.33301 2 -7c0 -4 -0.833008 -8.66699 -2.5 -14s-4 -12.833 -7 -22.5s-7.16699 -21.334 -12.5 -35.001c-4.66699 -13.667 -11 -29.834 -19 -48.501c-2.66699 -4.66699 -5.33398 -7.83398 -8.00098 -9.50098
s-6.66699 -2.5 -12 -2.5h-16l39 142h28z" />
    <glyph glyph-name="f_uni021B.liga" unicode="f&#x21b;" horiz-adv-x="632" 
d="M170 482l245.002 -0.000976562l33 178c1.33301 2.66699 3 5.33398 5 8.00098s4.33301 4 7 4h24l-24 -190h144l-4 -34h-144l-34 -282c-1.33301 -13.333 -2.66602 -24.5 -3.99902 -33.5s-2.33301 -16.333 -3 -22s-1 -9.83398 -1 -12.501v-6c0 -21.333 5 -36.833 15 -46.5
s23 -14.5 39 -14.5c10.667 0 20.334 1.83301 29.001 5.5s16.167 7.5 22.5 11.5s11.666 7.66699 15.999 11s7.16602 5 8.49902 5c2.66699 0 5.33398 -1.33301 8.00098 -4l9 -22c-13.333 -14 -29.5 -25.167 -48.5 -33.5s-38.167 -12.5 -57.5 -12.5
c-27.333 0 -48.666 7.5 -63.999 22.5c-15.333 15.667 -23.333 38.834 -24 69.501c0 2 0.166992 4.5 0.5 7.5s0.666016 7.5 0.999023 13.5s1 13.667 2 23s2.5 21.333 4.5 36l35 284h-243l-53 -438l-21 -114c-4.66699 -13.333 -13 -20.333 -25 -21h-16l69 571l-63 5
c-8 2 -12 6.33301 -12 13l2 18h77l8 63c4 28 10.833 52.833 20.5 74.5s21.667 39.667 36 54s30.666 25 48.999 32s38.166 10.5 59.499 10.5c9.33301 0 18.5 -0.833008 27.5 -2.5c8.33301 -1.66699 16.5 -4.16699 24.5 -7.5l-4 -24
c-0.666992 -2.66699 -2.16699 -4.33398 -4.5 -5.00098s-5.5 -0.666992 -9.5 0s-8.66699 1.33398 -14 2.00098s-11.333 1 -18 1c-15.333 0 -29.833 -2.33301 -43.5 -7s-25.834 -12.5 -36.501 -23.5s-19.667 -25.167 -27 -42.5c-7.33301 -16.667 -12.333 -37.667 -15 -63z
M452.002 -52.001c4 0 6.66797 -0.99707 8.00098 -2.99707s2 -4.33301 2 -7c0 -4 -0.833008 -8.66699 -2.5 -14s-4 -12.833 -7 -22.5s-7.16699 -21.334 -12.5 -35.001c-4.66699 -13.667 -11 -29.834 -19 -48.501c-2.66699 -4.66699 -5.33398 -7.83398 -8.00098 -9.50098
s-6.66699 -2.5 -12 -2.5h-16l39 142h28z" />
    <glyph glyph-name="f_tcaron.liga" unicode="f&#x165;" horiz-adv-x="632" 
d="M608 728c4 0 6.66699 -0.830078 8 -2.49707s2 -4.16699 2 -7.5s-0.666992 -7.83301 -2 -13.5s-3.66602 -13.334 -6.99902 -23.001s-8 -21.834 -14 -36.501s-13.667 -33 -23 -55c-2.66699 -4.66699 -5.33398 -7.83398 -8.00098 -9.50098s-6.66699 -2.5 -12 -2.5h-12
l43 150h25zM170 482.003l245.002 -0.000976562l33 178c1.33301 2.66699 3 5.33398 5 8.00098s4.33301 4 7 4h24l-24 -190h144l-4 -34h-144l-34 -282c-1.33301 -13.333 -2.66602 -24.5 -3.99902 -33.5s-2.33301 -16.333 -3 -22s-1 -9.83398 -1 -12.501v-6
c0 -21.333 5 -36.833 15 -46.5s23 -14.5 39 -14.5c10.667 0 20.334 1.83301 29.001 5.5s16.167 7.5 22.5 11.5s11.666 7.66699 15.999 11s7.16602 5 8.49902 5c2.66699 0 5.33398 -1.33301 8.00098 -4l9 -22c-13.333 -14 -29.5 -25.167 -48.5 -33.5
s-38.167 -12.5 -57.5 -12.5c-27.333 0 -48.666 7.5 -63.999 22.5c-15.333 15.667 -23.333 38.834 -24 69.501c0 2 0.166992 4.5 0.5 7.5s0.666016 7.5 0.999023 13.5s1 13.667 2 23s2.5 21.333 4.5 36l35 284h-243l-53 -438l-21 -114c-4.66699 -13.333 -13 -20.333 -25 -21
h-16l69 571l-63 5c-8 2 -12 6.33301 -12 13l2 18h77l8 63c4 28 10.833 52.833 20.5 74.5s21.667 39.667 36 54s30.666 25 48.999 32s38.166 10.5 59.499 10.5c9.33301 0 18.5 -0.833008 27.5 -2.5c8.33301 -1.66699 16.5 -4.16699 24.5 -7.5l-4 -24
c-0.666992 -2.66699 -2.16699 -4.33398 -4.5 -5.00098s-5.5 -0.666992 -9.5 0s-8.66699 1.33398 -14 2.00098s-11.333 1 -18 1c-15.333 0 -29.833 -2.33301 -43.5 -7s-25.834 -12.5 -36.501 -23.5s-19.667 -25.167 -27 -42.5c-7.33301 -16.667 -12.333 -37.667 -15 -63z" />
    <glyph glyph-name="f_uni1ECB.liga" unicode="f&#x1ecb;" horiz-adv-x="499" 
d="M170 482l270.002 -0.000976562l-60 -482h-47l55 446h-221l-54 -436l-21 -115c-4 -14 -12 -21 -24 -21h-18l70 572l-62 4c-8 1.33301 -12 5.33301 -12 12l2 20h77l5 42c4 30.667 11.667 58.334 23 83.001s26 45.334 44 62.001s39 29.5 63 38.5s50.667 13.5 80 13.5
c5.33301 0 11 -0.166992 17 -0.5s12 -1 18 -2s11.667 -2.16699 17 -3.5c5.33301 -2 10 -3.66699 14 -5l-4 -22c-0.666992 -2.66699 -2.33398 -4.33398 -5.00098 -5.00098s-6.16699 -0.666992 -10.5 0s-9.66602 1.33398 -15.999 2.00098c-5.66699 0.666992 -13.167 1 -22.5 1
c-48.667 0 -87.834 -13.333 -117.501 -40s-47.834 -67.334 -54.501 -122.001zM379.002 -132.001c0 -5.33301 -1.16602 -10.667 -3.49902 -16s-5.33301 -9.66602 -9 -12.999s-8 -6.33301 -13 -9s-10.167 -4 -15.5 -4s-10.333 1.33301 -15 4s-8.83398 5.66699 -12.501 9
s-6.66699 7.66602 -9 12.999s-3.5 10.666 -3.5 15.999c0 12 4 22 12 30s17.333 12 28 12c5.33301 0 10.5 -1 15.5 -3s9.33301 -5 13 -9s6.66699 -8.66699 9 -14s3.5 -10.666 3.5 -15.999z" />
    <glyph glyph-name="f_uni1E2D.liga" unicode="f&#x1e2d;" horiz-adv-x="499" 
d="M170 482l270.002 -0.000976562l-60 -482h-47l55 446h-221l-54 -436l-21 -115c-4 -14 -12 -21 -24 -21h-18l70 572l-62 4c-8 1.33301 -12 5.33301 -12 12l2 20h77l5 42c4 30.667 11.667 58.334 23 83.001s26 45.334 44 62.001s39 29.5 63 38.5s50.667 13.5 80 13.5
c5.33301 0 11 -0.166992 17 -0.5s12 -1 18 -2s11.667 -2.16699 17 -3.5c5.33301 -2 10 -3.66699 14 -5l-4 -22c-0.666992 -2.66699 -2.33398 -4.33398 -5.00098 -5.00098s-6.16699 -0.666992 -10.5 0s-9.66602 1.33398 -15.999 2.00098c-5.66699 0.666992 -13.167 1 -22.5 1
c-48.667 0 -87.834 -13.333 -117.501 -40s-47.834 -67.334 -54.501 -122.001zM420.002 -106.001c13.333 0 23.999 4.66699 31.999 14s13 21.666 15 36.999h27c-1.33301 -12 -4 -23.167 -8 -33.5s-9.33301 -19.5 -16 -27.5s-14.334 -14 -23.001 -18s-18.334 -6 -29.001 -6
s-20 2.66699 -28 8s-15.667 11.333 -23 18s-14.666 12.667 -21.999 18s-15 8 -23 8c-12.667 0 -23.167 -4.66699 -31.5 -14s-13.166 -21.666 -14.499 -36.999h-28c1.33301 12 4 23.167 8 33.5s9.33301 19.5 16 27.5s14.334 14 23.001 18s18.334 6 29.001 6
s20.167 -2.66699 28.5 -8s16.166 -11.333 23.499 -18s14.5 -12.667 21.5 -18s14.5 -8 22.5 -8z" />
    <glyph glyph-name="f_uni0268.liga" unicode="f&#x268;" horiz-adv-x="540" 
d="M367 276l21.002 169.999h-221l-54 -436l-21 -115c-4 -14 -12 -21 -24 -21h-18l70 572l-62 4c-8 1.33301 -12 5.33301 -12 12l2 20h77l5 42c4 30.667 11.667 58.334 23 83.001s26 45.334 44 62.001s39 29.5 63 38.5s50.667 13.5 80 13.5c5.33301 0 11 -0.166992 17 -0.5
s12 -1 18 -2s11.667 -2.16699 17 -3.5c5.33301 -2 10 -3.66699 14 -5l-4 -22c-0.666992 -2.66699 -2.33398 -4.33398 -5.00098 -5.00098s-6.16699 -0.666992 -10.5 0s-9.66602 1.33398 -15.999 2.00098c-5.66699 0.666992 -13.167 1 -22.5 1
c-48.667 0 -87.834 -13.333 -117.501 -40s-47.834 -67.334 -54.501 -122.001l-6 -42h270l-26 -206h94l-4 -34h-94l-30 -242h-47l29 242h-60l4 34h61z" />
    <glyph glyph-name="f_iacute.liga" unicode="f&#xed;" horiz-adv-x="499" 
d="M169 482h271l-60 -482h-47l55 446h-222l-52 -436l-21 -114c-4.66699 -13.333 -13 -20.333 -25 -21h-17l70 571l-63 4c-8 1.33301 -12 5.33301 -12 12l2 20h78l8 69c6.66699 55.333 22.167 97.333 46.5 126c23.667 28.667 54.167 43 91.5 43
c5.33301 0 11.166 -0.166992 17.499 -0.5c5.66699 -0.333008 10.5 -1.16602 14.5 -2.49902l-2 -25c0 -4 -2.16699 -6 -6.5 -6h-19.5c-26 0 -47.333 -11.333 -64 -34c-17.333 -22.667 -28.666 -56.334 -33.999 -101.001zM539 716l-113.999 -127.001
c-2.66699 -3.33301 -5.33398 -5.66602 -8.00098 -6.99902s-6 -2 -10 -2h-26l86 120c4 6 8 10.167 12 12.5s9.33301 3.5 16 3.5h44z" />
    <glyph glyph-name="f_uni1EC9.liga" unicode="f&#x1ec9;" horiz-adv-x="499" 
d="M169 482h271l-60 -482h-47l55 446h-222l-52 -436l-21 -114c-4.66699 -13.333 -13 -20.333 -25 -21h-17l70 571l-63 4c-8 1.33301 -12 5.33301 -12 12l2 20h78l8 69c6.66699 55.333 22.167 97.333 46.5 126c23.667 28.667 54.167 43 91.5 43
c5.33301 0 11.166 -0.166992 17.499 -0.5c5.66699 -0.333008 10.5 -1.16602 14.5 -2.49902l-2 -25c0 -4 -2.16699 -6 -6.5 -6h-19.5c-26 0 -47.333 -11.333 -64 -34c-17.333 -22.667 -28.666 -56.334 -33.999 -101.001zM376 692c18.667 14.667 40.667 22 66 22
c22.667 0 39 -5.33301 49 -16s14 -24 12 -40c-1.33301 -14 -7.16602 -26 -17.499 -36c-10.333 -9.33301 -23.833 -16.666 -40.5 -21.999l-9 -40h-22l6 55c17.333 2.66699 30 7.5 38 14.5s12.333 15.167 13 24.5c0 4 -0.333008 8.16699 -1 12.5s-2.5 8.16602 -5.5 11.499
s-6.83301 6 -11.5 8s-11 3 -19 3c-6.66699 0 -12.334 -0.833008 -17.001 -2.5s-8.83398 -3.5 -12.501 -5.5s-6.66699 -3.66699 -9 -5s-4.16602 -2 -5.49902 -2c-2.66699 0 -5 1.66699 -7 5z" />
    <glyph glyph-name="f_f_uni1ECB.liga" unicode="ff&#x1ecb;" horiz-adv-x="780" 
d="M715 448l-54.998 -447.999h-46l55 448h-222l-54 -438l-21 -115c-4 -14 -12 -21 -24 -21h-18l71 574h-235l-52 -438l-22 -114c-4 -13.333 -12 -20.333 -24 -21h-17l69 571l-62 5c-8 2 -12 6.33301 -12 13l2 18h77l7 56c4 28 10.667 53 20 75s21.166 40 35.499 54
s30.666 24.667 48.999 32s37.833 11 58.5 11c9.33301 0 18.666 -0.833008 27.999 -2.5c9.33301 -1 17.666 -3.5 24.999 -7.5l-5 -24c-1.33301 -2.66699 -3 -4.33398 -5 -5.00098s-4.83301 -0.666992 -8.5 0s-8.16699 1.33398 -13.5 2.00098s-11.666 1 -18.999 1
c-14.667 0 -28.667 -2.33301 -42 -7s-25.166 -12.334 -35.499 -23.001s-19.166 -24.334 -26.499 -41.001s-12.666 -37.667 -15.999 -63l-8 -58h236l5 42c4 30.667 11.667 58.334 23 83.001s26 45.334 44 62.001s39 29.5 63 38.5s50.667 13.5 80 13.5
c5.33301 0 11 -0.166992 17 -0.5s12 -1 18 -2s11.667 -2.16699 17 -3.5c5.33301 -2 10 -3.66699 14 -5l-4 -22c-0.666992 -2.66699 -2.33398 -4.33398 -5.00098 -5.00098s-6.16699 -0.666992 -10.5 0s-9.66602 1.33398 -15.999 2.00098c-5.66699 0.666992 -13.167 1 -22.5 1
c-48.667 0 -87.834 -13.333 -117.501 -40s-47.834 -67.334 -54.501 -122.001l-6 -42h270l-4 -34h-1zM660.002 -131.999c0 -5.33301 -1.16602 -10.667 -3.49902 -16s-5.33301 -9.66602 -9 -12.999s-8 -6.33301 -13 -9s-10.167 -4 -15.5 -4s-10.333 1.33301 -15 4
s-8.83398 5.66699 -12.501 9s-6.66699 7.66602 -9 12.999s-3.5 10.666 -3.5 15.999c0 12 4 22 12 30s17.333 12 28 12c5.33301 0 10.5 -1 15.5 -3s9.33301 -5 13 -9s6.66699 -8.66699 9 -14s3.5 -10.666 3.5 -15.999z" />
    <glyph glyph-name="f_f_uni1E2D.liga" unicode="ff&#x1e2d;" horiz-adv-x="780" 
d="M715 448l-54.998 -447.999h-46l55 448h-222l-54 -438l-21 -115c-4 -14 -12 -21 -24 -21h-18l71 574h-235l-52 -438l-22 -114c-4 -13.333 -12 -20.333 -24 -21h-17l69 571l-62 5c-8 2 -12 6.33301 -12 13l2 18h77l7 56c4 28 10.667 53 20 75s21.166 40 35.499 54
s30.666 24.667 48.999 32s37.833 11 58.5 11c9.33301 0 18.666 -0.833008 27.999 -2.5c9.33301 -1 17.666 -3.5 24.999 -7.5l-5 -24c-1.33301 -2.66699 -3 -4.33398 -5 -5.00098s-4.83301 -0.666992 -8.5 0s-8.16699 1.33398 -13.5 2.00098s-11.666 1 -18.999 1
c-14.667 0 -28.667 -2.33301 -42 -7s-25.166 -12.334 -35.499 -23.001s-19.166 -24.334 -26.499 -41.001s-12.666 -37.667 -15.999 -63l-8 -58h236l5 42c4 30.667 11.667 58.334 23 83.001s26 45.334 44 62.001s39 29.5 63 38.5s50.667 13.5 80 13.5
c5.33301 0 11 -0.166992 17 -0.5s12 -1 18 -2s11.667 -2.16699 17 -3.5c5.33301 -2 10 -3.66699 14 -5l-4 -22c-0.666992 -2.66699 -2.33398 -4.33398 -5.00098 -5.00098s-6.16699 -0.666992 -10.5 0s-9.66602 1.33398 -15.999 2.00098c-5.66699 0.666992 -13.167 1 -22.5 1
c-48.667 0 -87.834 -13.333 -117.501 -40s-47.834 -67.334 -54.501 -122.001l-6 -42h270l-4 -34h-1zM678.002 -105.999c13.333 0 23.999 4.66699 31.999 14s13 21.666 15 36.999h27c-1.33301 -12 -4 -23.167 -8 -33.5s-9.33301 -19.5 -16 -27.5s-14.334 -14 -23.001 -18
s-18.334 -6 -29.001 -6s-20 2.66699 -28 8s-15.667 11.333 -23 18s-14.666 12.667 -21.999 18s-15 8 -23 8c-12.667 0 -23.167 -4.66699 -31.5 -14s-13.166 -21.666 -14.499 -36.999h-28c1.33301 12 4 23.167 8 33.5s9.33301 19.5 16 27.5s14.334 14 23.001 18
s18.334 6 29.001 6s20.167 -2.66699 28.5 -8s16.166 -11.333 23.499 -18s14.5 -12.667 21.5 -18s14.5 -8 22.5 -8z" />
    <glyph glyph-name="f_f_uni0268.liga" unicode="ff&#x268;" horiz-adv-x="794" 
d="M648 276l21.002 172.001h-222l-54 -438l-21 -115c-4 -14 -12 -21 -24 -21h-18l71 574h-235l-52 -438l-22 -114c-4 -13.333 -12 -20.333 -24 -21h-17l69 571l-62 5c-8 2 -12 6.33301 -12 13l2 18h77l7 56c4 28 10.667 53 20 75s21.166 40 35.499 54
s30.666 24.667 48.999 32s37.833 11 58.5 11c9.33301 0 18.666 -0.833008 27.999 -2.5c9.33301 -1 17.666 -3.5 24.999 -7.5l-5 -24c-1.33301 -2.66699 -3 -4.33398 -5 -5.00098s-4.83301 -0.666992 -8.5 0s-8.16699 1.33398 -13.5 2.00098s-11.666 1 -18.999 1
c-14.667 0 -28.667 -2.33301 -42 -7s-25.166 -12.334 -35.499 -23.001s-19.166 -24.334 -26.499 -41.001s-12.666 -37.667 -15.999 -63l-8 -58h236l5 42c4 30.667 11.667 58.334 23 83.001s26 45.334 44 62.001s39 29.5 63 38.5s50.667 13.5 80 13.5
c5.33301 0 11 -0.166992 17 -0.5s12 -1 18 -2s11.667 -2.16699 17 -3.5c5.33301 -2 10 -3.66699 14 -5l-4 -22c-0.666992 -2.66699 -2.33398 -4.33398 -5.00098 -5.00098s-6.16699 -0.666992 -10.5 0s-9.66602 1.33398 -15.999 2.00098c-5.66699 0.666992 -13.167 1 -22.5 1
c-48.667 0 -87.834 -13.333 -117.501 -40s-47.834 -67.334 -54.501 -122.001l-6 -42h270l-4 -34h-1l-21 -172h78l-4 -34h-78l-30 -242h-46l30 242h-78l4 34h78z" />
    <glyph glyph-name="f_f_iacute.liga" unicode="ff&#xed;" horiz-adv-x="779" 
d="M715 448l-55.0029 -447.998h-46l55 448h-223l-52 -438l-21 -114c-4.66699 -13.333 -13 -20.333 -25 -21h-16l69 573h-235l-52 -438l-22 -114c-4 -13.333 -12 -20.333 -24 -21h-17l69 571l-62 5c-8 2 -12 6.33301 -12 13l2 18h77l7 56c4 28 10.667 53 20 75
s21.166 40 35.499 54s30.666 24.667 48.999 32s37.833 11 58.5 11c9.33301 0 18.666 -0.833008 27.999 -2.5c9.33301 -1 17.666 -3.5 24.999 -7.5l-5 -24c-1.33301 -2.66699 -3 -4.33398 -5 -5.00098s-4.83301 -0.666992 -8.5 0s-8.16699 1.33398 -13.5 2.00098
s-11.666 1 -18.999 1c-14.667 0 -28.667 -2.33301 -42 -7s-25.166 -12.334 -35.499 -23.001s-19.166 -24.334 -26.499 -41.001s-12.666 -37.667 -15.999 -63l-8 -58h237l8 69c6.66699 55.333 22.334 97.333 47.001 126s55.334 43 92.001 43c5.33301 0 11 -0.166992 17 -0.5
s11 -1.16602 15 -2.49902l-3 -25c-0.666992 -4 -3 -6 -7 -6h-19c-26 0 -47.333 -11.333 -64 -34c-17.333 -22.667 -28.666 -56.334 -33.999 -101.001l-8 -69h270l-4 -34h-1zM827.997 716.002l-113.999 -127.001c-2.66699 -3.33301 -5.33398 -5.66602 -8.00098 -6.99902
s-6 -2 -10 -2h-26l86 120c4 6 8 10.167 12 12.5s9.33301 3.5 16 3.5h44z" />
    <glyph glyph-name="f_f_uni1EC9.liga" unicode="ff&#x1ec9;" horiz-adv-x="773" 
d="M715 448l-55.0029 -447.998h-46l55 448h-223l-52 -438l-21 -114c-4.66699 -13.333 -13 -20.333 -25 -21h-16l69 573h-235l-52 -438l-22 -114c-4 -13.333 -12 -20.333 -24 -21h-17l69 571l-62 5c-8 2 -12 6.33301 -12 13l2 18h77l7 56c4 28 10.667 53 20 75
s21.166 40 35.499 54s30.666 24.667 48.999 32s37.833 11 58.5 11c9.33301 0 18.666 -0.833008 27.999 -2.5c9.33301 -1 17.666 -3.5 24.999 -7.5l-5 -24c-1.33301 -2.66699 -3 -4.33398 -5 -5.00098s-4.83301 -0.666992 -8.5 0s-8.16699 1.33398 -13.5 2.00098
s-11.666 1 -18.999 1c-14.667 0 -28.667 -2.33301 -42 -7s-25.166 -12.334 -35.499 -23.001s-19.166 -24.334 -26.499 -41.001s-12.666 -37.667 -15.999 -63l-8 -58h237l8 69c6.66699 55.333 22.334 97.333 47.001 126s55.334 43 92.001 43c5.33301 0 11 -0.166992 17 -0.5
s11 -1.16602 15 -2.49902l-3 -25c-0.666992 -4 -3 -6 -7 -6h-19c-26 0 -47.333 -11.333 -64 -34c-17.333 -22.667 -28.666 -56.334 -33.999 -101.001l-8 -69h270l-4 -34h-1zM659.997 692.002c18.667 14.667 40.667 22 66 22c22.667 0 39 -5.33301 49 -16s14 -24 12 -40
c-1.33301 -14 -7.16602 -26 -17.499 -36c-10.333 -9.33301 -23.833 -16.666 -40.5 -21.999l-9 -40h-22l6 55c17.333 2.66699 30 7.5 38 14.5s12.333 15.167 13 24.5c0 4 -0.333008 8.16699 -1 12.5s-2.5 8.16602 -5.5 11.499s-6.83301 6 -11.5 8s-11 3 -19 3
c-6.66699 0 -12.334 -0.833008 -17.001 -2.5s-8.83398 -3.5 -12.501 -5.5s-6.66699 -3.66699 -9 -5s-4.16602 -2 -5.49902 -2c-2.66699 0 -5 1.66699 -7 5z" />
    <glyph glyph-name="f_lacute.liga" unicode="f&#x13a;" horiz-adv-x="521" 
d="M167 447l-53.999 -437l-21 -115c-4 -14 -12 -21 -24 -21h-18l70 572l-62 4c-8 1.33301 -12 5.33301 -12 12l2 20h77l4 33c4 29.333 11.5 56.5 22.5 81.5s25.167 46.5 42.5 64.5s38.166 32.333 62.499 43c25 10.667 52.167 16 81.5 16c22.667 0 44.667 -1.16699 66 -3.5
s41.333 -3.5 60 -3.5h26l-87 -713h-47l83 678c-16 0.666992 -32.5 1.83398 -49.5 3.50098s-33.5 2.5 -49.5 2.5c-22.667 0 -43.667 -3.83301 -63 -11.5s-36 -18.834 -50 -33.501s-25.667 -32.5 -35 -53.5s-15.333 -44.5 -18 -70.5l-4 -33h132l-4 -35h-131zM660.001 920
l-166 -142.999c-3.33301 -2.66699 -6.5 -4.33398 -9.5 -5.00098s-6.5 -1 -10.5 -1h-30l136 139c4 4.66699 8 7.5 12 8.5s9.33301 1.5 16 1.5h52z" />
    <glyph glyph-name="t_i.liga" unicode="ti" horiz-adv-x="539" 
d="M480 482l-4.00293 -35.001h-1l-55 -447h-46l54 447h-263l-35 -281c-1.33301 -13.333 -2.5 -24.5 -3.5 -33.5s-1.66699 -16.333 -2 -22s-0.666016 -9.83398 -0.999023 -12.501s-0.5 -4.66699 -0.5 -6c0 -21.333 5 -36.833 15 -46.5s23 -14.5 39 -14.5
c10.667 0 20.5 1.83301 29.5 5.5s16.5 7.5 22.5 11.5s11 7.66699 15 11s7.33301 5 10 5s4.66699 -1.33301 6 -4l10 -22c-13.333 -14 -29.5 -25.167 -48.5 -33.5s-38.167 -12.5 -57.5 -12.5c-27.333 0 -48.666 7.5 -63.999 22.5c-15.333 15.667 -23.333 38.834 -24 69.501
v7.5c0 3 0.333008 7.5 1 13.5s1.66699 13.667 3 23s2.66602 21.333 3.99902 36l34 283h-64c-3.33301 0 -6.16602 1 -8.49902 3c-2.33301 1.33301 -3.16602 4 -2.49902 8l2 18l79 6l32 178c1.33301 2.66699 3 5.33398 5 8.00098s5 4 9 4h23l-23 -190h310zM523.997 668.999
c0 -6 -1.16602 -11.667 -3.49902 -17s-5.5 -10 -9.5 -14s-8.5 -7 -13.5 -9s-10.167 -3 -15.5 -3s-10.666 1 -15.999 3s-9.83301 5 -13.5 9s-6.66699 8.66699 -9 14s-3.5 11 -3.5 17s1.16699 11.667 3.5 17s5.33301 10 9 14s8.16699 7.33301 13.5 10s10.666 4 15.999 4
s10.666 -1.33301 15.999 -4s10 -6 14 -10s7 -8.66699 9 -14s3 -11 3 -17z" />
    <glyph glyph-name="t_igrave.liga" unicode="t&#xec;" horiz-adv-x="539" 
d="M480 482l-4.00293 -35.001h-1l-55 -447h-46l54 447h-263l-35 -281c-1.33301 -13.333 -2.5 -24.5 -3.5 -33.5s-1.66699 -16.333 -2 -22s-0.666016 -9.83398 -0.999023 -12.501s-0.5 -4.66699 -0.5 -6c0 -21.333 5 -36.833 15 -46.5s23 -14.5 39 -14.5
c10.667 0 20.5 1.83301 29.5 5.5s16.5 7.5 22.5 11.5s11 7.66699 15 11s7.33301 5 10 5s4.66699 -1.33301 6 -4l10 -22c-13.333 -14 -29.5 -25.167 -48.5 -33.5s-38.167 -12.5 -57.5 -12.5c-27.333 0 -48.666 7.5 -63.999 22.5c-15.333 15.667 -23.333 38.834 -24 69.501
v7.5c0 3 0.333008 7.5 1 13.5s1.66699 13.667 3 23s2.66602 21.333 3.99902 36l34 283h-64c-3.33301 0 -6.16602 1 -8.49902 3c-2.33301 1.33301 -3.16602 4 -2.49902 8l2 18l79 6l32 178c1.33301 2.66699 3 5.33398 5 8.00098s5 4 9 4h23l-23 -190h310zM415.997 715.999
c7.33301 0 12.8311 -1.33203 16.498 -3.99902s6.83398 -6.66699 9.50098 -12l58 -120h-25c-4 0 -7.16699 0.666992 -9.5 2s-4.16602 3.66602 -5.49902 6.99902l-86 127h42z" />
    <glyph glyph-name="t_iacute.liga" unicode="t&#xed;" horiz-adv-x="539" 
d="M480 482l-4.00293 -35.001h-1l-55 -447h-46l54 447h-263l-35 -281c-1.33301 -13.333 -2.5 -24.5 -3.5 -33.5s-1.66699 -16.333 -2 -22s-0.666016 -9.83398 -0.999023 -12.501s-0.5 -4.66699 -0.5 -6c0 -21.333 5 -36.833 15 -46.5s23 -14.5 39 -14.5
c10.667 0 20.5 1.83301 29.5 5.5s16.5 7.5 22.5 11.5s11 7.66699 15 11s7.33301 5 10 5s4.66699 -1.33301 6 -4l10 -22c-13.333 -14 -29.5 -25.167 -48.5 -33.5s-38.167 -12.5 -57.5 -12.5c-27.333 0 -48.666 7.5 -63.999 22.5c-15.333 15.667 -23.333 38.834 -24 69.501
v7.5c0 3 0.333008 7.5 1 13.5s1.66699 13.667 3 23s2.66602 21.333 3.99902 36l34 283h-64c-3.33301 0 -6.16602 1 -8.49902 3c-2.33301 1.33301 -3.16602 4 -2.49902 8l2 18l79 6l32 178c1.33301 2.66699 3 5.33398 5 8.00098s5 4 9 4h23l-23 -190h310zM587.997 715.999
l-113.999 -127.001c-2.66699 -3.33301 -5.33398 -5.66602 -8.00098 -6.99902s-6 -2 -10 -2h-26l86 120c4 6 8 10.167 12 12.5s9.33301 3.5 16 3.5h44z" />
    <glyph glyph-name="t_icircumflex.liga" unicode="t&#xee;" horiz-adv-x="539" 
d="M480 482l-4.00293 -35.001h-1l-55 -447h-46l54 447h-263l-35 -281c-1.33301 -13.333 -2.5 -24.5 -3.5 -33.5s-1.66699 -16.333 -2 -22s-0.666016 -9.83398 -0.999023 -12.501s-0.5 -4.66699 -0.5 -6c0 -21.333 5 -36.833 15 -46.5s23 -14.5 39 -14.5
c10.667 0 20.5 1.83301 29.5 5.5s16.5 7.5 22.5 11.5s11 7.66699 15 11s7.33301 5 10 5s4.66699 -1.33301 6 -4l10 -22c-13.333 -14 -29.5 -25.167 -48.5 -33.5s-38.167 -12.5 -57.5 -12.5c-27.333 0 -48.666 7.5 -63.999 22.5c-15.333 15.667 -23.333 38.834 -24 69.501
v7.5c0 3 0.333008 7.5 1 13.5s1.66699 13.667 3 23s2.66602 21.333 3.99902 36l34 283h-64c-3.33301 0 -6.16602 1 -8.49902 3c-2.33301 1.33301 -3.16602 4 -2.49902 8l2 18l79 6l32 178c1.33301 2.66699 3 5.33398 5 8.00098s5 4 9 4h23l-23 -190h310zM595.997 583.999
h-30c-2 0 -4.16699 0.666992 -6.5 2s-4.5 3.33301 -6.5 6l-61 82c-0.666992 0.666992 -1.5 1.66699 -2.5 3c-1 0.666992 -1.83301 1.66699 -2.5 3l-5 -6l-81 -82c-4 -5.33301 -8.66699 -8 -14 -8h-31l114 124h39z" />
    <glyph glyph-name="t_idieresis.liga" unicode="t&#xef;" horiz-adv-x="539" 
d="M480 482l-4.00293 -35.001h-1l-55 -447h-46l54 447h-263l-35 -281c-1.33301 -13.333 -2.5 -24.5 -3.5 -33.5s-1.66699 -16.333 -2 -22s-0.666016 -9.83398 -0.999023 -12.501s-0.5 -4.66699 -0.5 -6c0 -21.333 5 -36.833 15 -46.5s23 -14.5 39 -14.5
c10.667 0 20.5 1.83301 29.5 5.5s16.5 7.5 22.5 11.5s11 7.66699 15 11s7.33301 5 10 5s4.66699 -1.33301 6 -4l10 -22c-13.333 -14 -29.5 -25.167 -48.5 -33.5s-38.167 -12.5 -57.5 -12.5c-27.333 0 -48.666 7.5 -63.999 22.5c-15.333 15.667 -23.333 38.834 -24 69.501
v7.5c0 3 0.333008 7.5 1 13.5s1.66699 13.667 3 23s2.66602 21.333 3.99902 36l34 283h-64c-3.33301 0 -6.16602 1 -8.49902 3c-2.33301 1.33301 -3.16602 4 -2.49902 8l2 18l79 6l32 178c1.33301 2.66699 3 5.33398 5 8.00098s5 4 9 4h23l-23 -190h310zM460.997 641.999
c0 -5.33301 -1.16797 -10.333 -3.50098 -15s-5.5 -9 -9.5 -13s-8.33301 -7 -13 -9s-9.66699 -3 -15 -3s-10.666 1 -15.999 3s-9.83301 5 -13.5 9s-6.66699 8.33301 -9 13s-3.5 9.66699 -3.5 15s1.16699 10.666 3.5 15.999s5.33301 9.83301 9 13.5s8 6.66699 13 9
c5.66699 2.33301 11.167 3.5 16.5 3.5s10.333 -1.16699 15 -3.5s9 -5.33301 13 -9s7.16699 -8.16699 9.5 -13.5s3.5 -10.666 3.5 -15.999zM589.996 641.999c0 -5.33301 -1.33301 -10.333 -4 -15s-5.66699 -9 -9 -13s-7.66602 -7 -12.999 -9s-10.666 -3 -15.999 -3
s-10.5 1 -15.5 3s-9.33301 5 -13 9s-6.5 8.33301 -8.5 13s-3 9.66699 -3 15c0 11.333 4 21.166 12 29.499s17.333 12.5 28 12.5c5.33301 0 10.666 -1.16699 15.999 -3.5s9.66602 -5.33301 12.999 -9s6.33301 -8.16699 9 -13.5s4 -10.666 4 -15.999z" />
    <glyph glyph-name="t_imacron.liga" unicode="t&#x12b;" horiz-adv-x="539" 
d="M480 482l-4.00293 -35.001h-1l-55 -447h-46l54 447h-263l-35 -281c-1.33301 -13.333 -2.5 -24.5 -3.5 -33.5s-1.66699 -16.333 -2 -22s-0.666016 -9.83398 -0.999023 -12.501s-0.5 -4.66699 -0.5 -6c0 -21.333 5 -36.833 15 -46.5s23 -14.5 39 -14.5
c10.667 0 20.5 1.83301 29.5 5.5s16.5 7.5 22.5 11.5s11 7.66699 15 11s7.33301 5 10 5s4.66699 -1.33301 6 -4l10 -22c-13.333 -14 -29.5 -25.167 -48.5 -33.5s-38.167 -12.5 -57.5 -12.5c-27.333 0 -48.666 7.5 -63.999 22.5c-15.333 15.667 -23.333 38.834 -24 69.501
v7.5c0 3 0.333008 7.5 1 13.5s1.66699 13.667 3 23s2.66602 21.333 3.99902 36l34 283h-64c-3.33301 0 -6.16602 1 -8.49902 3c-2.33301 1.33301 -3.16602 4 -2.49902 8l2 18l79 6l32 178c1.33301 2.66699 3 5.33398 5 8.00098s5 4 9 4h23l-23 -190h310zM349.997 657.999
h252l-4 -32h-251z" />
    <glyph glyph-name="t_itilde.liga" unicode="t&#x129;" horiz-adv-x="539" 
d="M480 482l-4.00293 -35.001h-1l-55 -447h-46l54 447h-263l-35 -281c-1.33301 -13.333 -2.5 -24.5 -3.5 -33.5s-1.66699 -16.333 -2 -22s-0.666016 -9.83398 -0.999023 -12.501s-0.5 -4.66699 -0.5 -6c0 -21.333 5 -36.833 15 -46.5s23 -14.5 39 -14.5
c10.667 0 20.5 1.83301 29.5 5.5s16.5 7.5 22.5 11.5s11 7.66699 15 11s7.33301 5 10 5s4.66699 -1.33301 6 -4l10 -22c-13.333 -14 -29.5 -25.167 -48.5 -33.5s-38.167 -12.5 -57.5 -12.5c-27.333 0 -48.666 7.5 -63.999 22.5c-15.333 15.667 -23.333 38.834 -24 69.501
v7.5c0 3 0.333008 7.5 1 13.5s1.66699 13.667 3 23s2.66602 21.333 3.99902 36l34 283h-64c-3.33301 0 -6.16602 1 -8.49902 3c-2.33301 1.33301 -3.16602 4 -2.49902 8l2 18l79 6l32 178c1.33301 2.66699 3 5.33398 5 8.00098s5 4 9 4h23l-23 -190h310zM529.997 639.999
c13.333 0 23.999 4.66699 31.999 14s13 21.666 15 36.999h27c-1.33301 -12 -4 -23.167 -8 -33.5s-9.33301 -19.5 -16 -27.5s-14.334 -14 -23.001 -18s-18.334 -6 -29.001 -6s-20 2.66699 -28 8s-15.667 11.333 -23 18s-14.666 12.667 -21.999 18s-15 8 -23 8
c-12.667 0 -23.167 -4.66699 -31.5 -14s-13.166 -21.666 -14.499 -36.999h-28c1.33301 12 4 23.167 8 33.5s9.33301 19.5 16 27.5s14.334 14 23.001 18s18.334 6 29.001 6s20.167 -2.66699 28.5 -8s16.166 -11.333 23.499 -18s14.5 -12.667 21.5 -18s14.5 -8 22.5 -8z" />
    <glyph glyph-name="t_ibreve.liga" unicode="t&#x12d;" horiz-adv-x="539" 
d="M480 482l-4.00293 -35.001h-1l-55 -447h-46l54 447h-263l-35 -281c-1.33301 -13.333 -2.5 -24.5 -3.5 -33.5s-1.66699 -16.333 -2 -22s-0.666016 -9.83398 -0.999023 -12.501s-0.5 -4.66699 -0.5 -6c0 -21.333 5 -36.833 15 -46.5s23 -14.5 39 -14.5
c10.667 0 20.5 1.83301 29.5 5.5s16.5 7.5 22.5 11.5s11 7.66699 15 11s7.33301 5 10 5s4.66699 -1.33301 6 -4l10 -22c-13.333 -14 -29.5 -25.167 -48.5 -33.5s-38.167 -12.5 -57.5 -12.5c-27.333 0 -48.666 7.5 -63.999 22.5c-15.333 15.667 -23.333 38.834 -24 69.501
v7.5c0 3 0.333008 7.5 1 13.5s1.66699 13.667 3 23s2.66602 21.333 3.99902 36l34 283h-64c-3.33301 0 -6.16602 1 -8.49902 3c-2.33301 1.33301 -3.16602 4 -2.49902 8l2 18l79 6l32 178c1.33301 2.66699 3 5.33398 5 8.00098s5 4 9 4h23l-23 -190h310zM471.997 583.999
c-20 0 -36.6689 3.33203 -50.002 9.99902s-23.666 15.667 -30.999 27s-12.333 24.333 -15 39s-2.66699 30.667 0 48h32c-1.33301 -12 -1.33301 -23.667 0 -35s4.5 -21.166 9.5 -29.499s12.333 -15 22 -20s21.834 -7.5 36.501 -7.5s27.167 2.5 37.5 7.5s19 11.667 26 20
s12.5 18 16.5 29c4 11.667 6.66699 23.5 8 35.5h32c-2 -16.667 -5.83301 -32.5 -11.5 -47.5s-13.5 -28.167 -23.5 -39.5s-22.333 -20.333 -37 -27s-32 -10 -52 -10z" />
    <glyph glyph-name="t_uni01D0.liga" unicode="t&#x1d0;" horiz-adv-x="539" 
d="M480 482l-4.00293 -35.001h-1l-55 -447h-46l54 447h-263l-35 -281c-1.33301 -13.333 -2.5 -24.5 -3.5 -33.5s-1.66699 -16.333 -2 -22s-0.666016 -9.83398 -0.999023 -12.501s-0.5 -4.66699 -0.5 -6c0 -21.333 5 -36.833 15 -46.5s23 -14.5 39 -14.5
c10.667 0 20.5 1.83301 29.5 5.5s16.5 7.5 22.5 11.5s11 7.66699 15 11s7.33301 5 10 5s4.66699 -1.33301 6 -4l10 -22c-13.333 -14 -29.5 -25.167 -48.5 -33.5s-38.167 -12.5 -57.5 -12.5c-27.333 0 -48.666 7.5 -63.999 22.5c-15.333 15.667 -23.333 38.834 -24 69.501
v7.5c0 3 0.333008 7.5 1 13.5s1.66699 13.667 3 23s2.66602 21.333 3.99902 36l34 283h-64c-3.33301 0 -6.16602 1 -8.49902 3c-2.33301 1.33301 -3.16602 4 -2.49902 8l2 18l79 6l32 178c1.33301 2.66699 3 5.33398 5 8.00098s5 4 9 4h23l-23 -190h310zM363.997 707.999h30
c5.33301 0 9.33301 -2 12 -6l63 -84l4 -6l6 6l81 84c4 4 8.33301 6 13 6h30l-113 -124h-40z" />
    <glyph glyph-name="t_uni1E2D.liga" unicode="t&#x1e2d;" horiz-adv-x="539" 
d="M480 482l-4.00293 -35.001h-1l-55 -447h-46l54 447h-263l-35 -281c-1.33301 -13.333 -2.5 -24.5 -3.5 -33.5s-1.66699 -16.333 -2 -22s-0.666016 -9.83398 -0.999023 -12.501s-0.5 -4.66699 -0.5 -6c0 -21.333 5 -36.833 15 -46.5s23 -14.5 39 -14.5
c10.667 0 20.5 1.83301 29.5 5.5s16.5 7.5 22.5 11.5s11 7.66699 15 11s7.33301 5 10 5s4.66699 -1.33301 6 -4l10 -22c-13.333 -14 -29.5 -25.167 -48.5 -33.5s-38.167 -12.5 -57.5 -12.5c-27.333 0 -48.666 7.5 -63.999 22.5c-15.333 15.667 -23.333 38.834 -24 69.501
v7.5c0 3 0.333008 7.5 1 13.5s1.66699 13.667 3 23s2.66602 21.333 3.99902 36l34 283h-64c-3.33301 0 -6.16602 1 -8.49902 3c-2.33301 1.33301 -3.16602 4 -2.49902 8l2 18l79 6l32 178c1.33301 2.66699 3 5.33398 5 8.00098s5 4 9 4h23l-23 -190h310zM523.997 668.999
c0 -6 -1.16602 -11.667 -3.49902 -17s-5.5 -10 -9.5 -14s-8.5 -7 -13.5 -9s-10.167 -3 -15.5 -3s-10.666 1 -15.999 3s-9.83301 5 -13.5 9s-6.66699 8.66699 -9 14s-3.5 11 -3.5 17s1.16699 11.667 3.5 17s5.33301 10 9 14s8.16699 7.33301 13.5 10s10.666 4 15.999 4
s10.666 -1.33301 15.999 -4s10 -6 14 -10s7 -8.66699 9 -14s3 -11 3 -17zM429.998 -106.001c13.333 0 23.999 4.66699 31.999 14s13 21.666 15 36.999h27c-1.33301 -12 -4 -23.167 -8 -33.5s-9.33301 -19.5 -16 -27.5s-14.334 -14 -23.001 -18s-18.334 -6 -29.001 -6
s-20 2.66699 -28 8s-15.667 11.333 -23 18s-14.666 12.667 -21.999 18s-15 8 -23 8c-12.667 0 -23.167 -4.66699 -31.5 -14s-13.166 -21.666 -14.499 -36.999h-28c1.33301 12 4 23.167 8 33.5s9.33301 19.5 16 27.5s14.334 14 23.001 18s18.334 6 29.001 6
s20.167 -2.66699 28.5 -8s16.166 -11.333 23.499 -18s14.5 -12.667 21.5 -18s14.5 -8 22.5 -8z" />
    <glyph glyph-name="t_uni1E2F.liga" unicode="t&#x1e2f;" horiz-adv-x="539" 
d="M480 482l-4.00293 -35.001h-1l-55 -447h-46l54 447h-263l-35 -281c-1.33301 -13.333 -2.5 -24.5 -3.5 -33.5s-1.66699 -16.333 -2 -22s-0.666016 -9.83398 -0.999023 -12.501s-0.5 -4.66699 -0.5 -6c0 -21.333 5 -36.833 15 -46.5s23 -14.5 39 -14.5
c10.667 0 20.5 1.83301 29.5 5.5s16.5 7.5 22.5 11.5s11 7.66699 15 11s7.33301 5 10 5s4.66699 -1.33301 6 -4l10 -22c-13.333 -14 -29.5 -25.167 -48.5 -33.5s-38.167 -12.5 -57.5 -12.5c-27.333 0 -48.666 7.5 -63.999 22.5c-15.333 15.667 -23.333 38.834 -24 69.501
v7.5c0 3 0.333008 7.5 1 13.5s1.66699 13.667 3 23s2.66602 21.333 3.99902 36l34 283h-64c-3.33301 0 -6.16602 1 -8.49902 3c-2.33301 1.33301 -3.16602 4 -2.49902 8l2 18l79 6l32 178c1.33301 2.66699 3 5.33398 5 8.00098s5 4 9 4h23l-23 -190h310zM619.997 867.999
l-113.999 -127.001c-2.66699 -3.33301 -5.33398 -5.66602 -8.00098 -6.99902s-6 -2 -10 -2h-26l86 120c4 6 8 10.167 12 12.5s9.33301 3.5 16 3.5h44zM443.998 641.998c0 -5.33301 -1 -10.333 -3 -15s-5 -9 -9 -13s-8.5 -7 -13.5 -9s-10.167 -3 -15.5 -3s-10.5 1 -15.5 3
s-9.33301 5 -13 9s-6.66699 8.33301 -9 13s-3.5 9.66699 -3.5 15s1.16699 10.666 3.5 15.999s5.33301 9.83301 9 13.5s8 6.66699 13 9s10.167 3.5 15.5 3.5s10.5 -1.16699 15.5 -3.5s9.5 -5.33301 13.5 -9s7 -8.16699 9 -13.5s3 -10.666 3 -15.999zM610.998 641.998
c0 -5.33301 -1.16797 -10.333 -3.50098 -15s-5.33301 -9 -9 -13s-8 -7 -13 -9s-10.167 -3 -15.5 -3s-10.666 1 -15.999 3s-9.83301 5 -13.5 9s-6.66699 8.33301 -9 13s-3.5 9.66699 -3.5 15s1.16699 10.666 3.5 15.999s5.33301 9.83301 9 13.5s8 6.66699 13 9
c5.66699 2.33301 11.167 3.5 16.5 3.5s10.5 -1.16699 15.5 -3.5s9.33301 -5.33301 13 -9s6.66699 -8.16699 9 -13.5s3.5 -10.666 3.5 -15.999z" />
    <glyph glyph-name="t_uni0268.liga" unicode="t&#x268;" horiz-adv-x="558" 
d="M408 276l19.9971 170.999h-263l-35 -281c-1.33301 -13.333 -2.5 -24.5 -3.5 -33.5s-1.66699 -16.333 -2 -22s-0.666016 -9.83398 -0.999023 -12.501s-0.5 -4.66699 -0.5 -6c0 -21.333 5 -36.833 15 -46.5s23 -14.5 39 -14.5c10.667 0 20.5 1.83301 29.5 5.5
s16.5 7.5 22.5 11.5s11 7.66699 15 11s7.33301 5 10 5s4.66699 -1.33301 6 -4l10 -22c-13.333 -14 -29.5 -25.167 -48.5 -33.5s-38.167 -12.5 -57.5 -12.5c-27.333 0 -48.666 7.5 -63.999 22.5c-15.333 15.667 -23.333 38.834 -24 69.501v7.5c0 3 0.333008 7.5 1 13.5
s1.66699 13.667 3 23s2.66602 21.333 3.99902 36l34 283h-64c-3.33301 0 -6.16602 1 -8.49902 3c-2.33301 1.33301 -3.16602 4 -2.49902 8l2 18l79 6l32 178c1.33301 2.66699 3 5.33398 5 8.00098s5 4 9 4h23l-23 -190h310l-4 -35h-1l-21 -171h81l-4 -34h-81l-30 -242h-46
l30 242h-75l4 34h75zM517.997 668.999c0 -6 -1.33301 -11.667 -4 -17s-6 -10 -10 -14s-8.5 -7 -13.5 -9s-10.167 -3 -15.5 -3s-10.5 1 -15.5 3s-9.5 5 -13.5 9s-7 8.66699 -9 14s-3 11 -3 17s1 11.667 3 17s5 10 9 14s8.5 7.33301 13.5 10c5.66699 2.66699 11.167 4 16.5 4
s10.5 -1.33301 15.5 -4s9.5 -6 13.5 -10s7.16699 -8.66699 9.5 -14s3.5 -11 3.5 -17z" />
    <glyph glyph-name="t_uni020B.liga" unicode="t&#x20b;" horiz-adv-x="539" 
d="M480 482l-4.00293 -35.001h-1l-55 -447h-46l54 447h-263l-35 -281c-1.33301 -13.333 -2.5 -24.5 -3.5 -33.5s-1.66699 -16.333 -2 -22s-0.666016 -9.83398 -0.999023 -12.501s-0.5 -4.66699 -0.5 -6c0 -21.333 5 -36.833 15 -46.5s23 -14.5 39 -14.5
c10.667 0 20.5 1.83301 29.5 5.5s16.5 7.5 22.5 11.5s11 7.66699 15 11s7.33301 5 10 5s4.66699 -1.33301 6 -4l10 -22c-13.333 -14 -29.5 -25.167 -48.5 -33.5s-38.167 -12.5 -57.5 -12.5c-27.333 0 -48.666 7.5 -63.999 22.5c-15.333 15.667 -23.333 38.834 -24 69.501
v7.5c0 3 0.333008 7.5 1 13.5s1.66699 13.667 3 23s2.66602 21.333 3.99902 36l34 283h-64c-3.33301 0 -6.16602 1 -8.49902 3c-2.33301 1.33301 -3.16602 4 -2.49902 8l2 18l79 6l32 178c1.33301 2.66699 3 5.33398 5 8.00098s5 4 9 4h23l-23 -190h310zM483.997 714.999
c20 0 36.667 -3.16797 50 -9.50098s23.833 -15.166 31.5 -26.499s12.667 -24.5 15 -39.5c2.33301 -14.333 2.5 -30.166 0.5 -47.499h-32c1.33301 12 1.33301 23.667 0 35s-4.5 21 -9.5 29s-12.333 14.5 -22 19.5s-21.834 7.5 -36.501 7.5s-27.167 -2.5 -37.5 -7.5
s-19.166 -11.5 -26.499 -19.5s-13 -17.667 -17 -29s-6.66699 -23 -8 -35h-32c2 17.333 5.83301 33.333 11.5 48s13.5 27.667 23.5 39s22.333 20.166 37 26.499s32 9.5 52 9.5z" />
    <glyph glyph-name="t_uni0209.liga" unicode="t&#x209;" horiz-adv-x="539" 
d="M480 482l-4.00293 -35.001h-1l-55 -447h-46l54 447h-263l-35 -281c-1.33301 -13.333 -2.5 -24.5 -3.5 -33.5s-1.66699 -16.333 -2 -22s-0.666016 -9.83398 -0.999023 -12.501s-0.5 -4.66699 -0.5 -6c0 -21.333 5 -36.833 15 -46.5s23 -14.5 39 -14.5
c10.667 0 20.5 1.83301 29.5 5.5s16.5 7.5 22.5 11.5s11 7.66699 15 11s7.33301 5 10 5s4.66699 -1.33301 6 -4l10 -22c-13.333 -14 -29.5 -25.167 -48.5 -33.5s-38.167 -12.5 -57.5 -12.5c-27.333 0 -48.666 7.5 -63.999 22.5c-15.333 15.667 -23.333 38.834 -24 69.501
v7.5c0 3 0.333008 7.5 1 13.5s1.66699 13.667 3 23s2.66602 21.333 3.99902 36l34 283h-64c-3.33301 0 -6.16602 1 -8.49902 3c-2.33301 1.33301 -3.16602 4 -2.49902 8l2 18l79 6l32 178c1.33301 2.66699 3 5.33398 5 8.00098s5 4 9 4h23l-23 -190h310zM469.997 715.999
c8 0 13.667 -1.33203 17 -3.99902s6.33301 -6.66699 9 -12l56 -120h-18c-4 0 -7.33301 0.666992 -10 2s-5 3.66602 -7 6.99902l-77 127h30zM348.997 716c8 0 13.5 -1.33203 16.5 -3.99902s5.83301 -6.66699 8.5 -12l71 -120h-21c-4 0 -7.33301 0.666992 -10 2
s-5 3.66602 -7 6.99902l-92 127h34z" />
    <glyph glyph-name="t_t_i.liga" unicode="tti" horiz-adv-x="822" 
d="M76 84l-0.00683594 7.49902c0 3 0.333008 7.5 1 13.5s1.66699 13.667 3 23s2.66602 21.333 3.99902 36l34 283h-64c-3.33301 0 -6.16602 1 -8.49902 3c-2.33301 1.33301 -3.16602 4 -2.49902 8l2 18l79 6l32 178c1.33301 2.66699 3 5.33398 5 8.00098s5 4 9 4h23
l-23 -190h246l32 178c0.666992 2.66699 2.16699 5.33398 4.5 8.00098s5.5 4 9.5 4h22l-23 -190h301l-60 -482h-46l55 447h-254l-35 -281c-1.33301 -13.333 -2.66602 -24.5 -3.99902 -33.5s-2.16602 -16.333 -2.49902 -22s-0.666016 -9.83398 -0.999023 -12.501
s-0.5 -4.66699 -0.5 -6c0 -21.333 5.16699 -36.833 15.5 -46.5s23.5 -14.5 39.5 -14.5c10.667 0 20.334 1.83301 29.001 5.5s16.167 7.5 22.5 11.5s11.5 7.66699 15.5 11s7 5 9 5s3.5 -0.333008 4.5 -1c0.333008 -0.666992 1.16602 -1.66699 2.49902 -3l10 -22
c-13.333 -14 -29.666 -25.167 -48.999 -33.5s-38.333 -12.5 -57 -12.5c-27.333 0 -48.833 7.5 -64.5 22.5c-15.667 15.667 -23.5 38.834 -23.5 69.501v7.5c0 3 0.333008 7.5 1 13.5s1.5 13.667 2.5 23s2.5 21.333 4.5 36l34 283h-245l-35 -281
c-1.33301 -13.333 -2.5 -24.5 -3.5 -33.5s-1.66699 -16.333 -2 -22s-0.666016 -9.83398 -0.999023 -12.501s-0.5 -4.66699 -0.5 -6c0 -21.333 5 -36.833 15 -46.5s23 -14.5 39 -14.5c10.667 0 20.5 1.83301 29.5 5.5s16.5 7.5 22.5 11.5s11 7.66699 15 11s7.33301 5 10 5
s4.66699 -1.33301 6 -4l10 -22c-13.333 -14 -29.5 -25.167 -48.5 -33.5s-38.167 -12.5 -57.5 -12.5c-27.333 0 -48.666 7.66699 -63.999 23s-23.333 38.333 -24 69zM801.993 668.999c0 -6 -1.16602 -11.667 -3.49902 -17s-5.5 -10 -9.5 -14s-8.5 -7 -13.5 -9
s-10.167 -3 -15.5 -3s-10.666 1 -15.999 3s-9.83301 5 -13.5 9s-6.66699 8.66699 -9 14s-3.5 11 -3.5 17s1.16699 11.667 3.5 17s5.33301 10 9 14s8.16699 7.33301 13.5 10s10.666 4 15.999 4s10.666 -1.33301 15.999 -4s10 -6 14 -10s7 -8.66699 9 -14s3 -11 3 -17z" />
    <glyph glyph-name="t_t_igrave.liga" unicode="tt&#xec;" horiz-adv-x="821" 
d="M76 84l-0.00683594 7.49902c0 3 0.333008 7.5 1 13.5s1.66699 13.667 3 23s2.66602 21.333 3.99902 36l34 283h-64c-3.33301 0 -6.16602 1 -8.49902 3c-2.33301 1.33301 -3.16602 4 -2.49902 8l2 18l79 6l32 178c1.33301 2.66699 3 5.33398 5 8.00098s5 4 9 4h23
l-23 -190h246l32 178c0.666992 2.66699 2.16699 5.33398 4.5 8.00098s5.5 4 9.5 4h22l-23 -190h301l-60 -482h-46l55 447h-254l-35 -281c-1.33301 -13.333 -2.66602 -24.5 -3.99902 -33.5s-2.16602 -16.333 -2.49902 -22s-0.666016 -9.83398 -0.999023 -12.501
s-0.5 -4.66699 -0.5 -6c0 -21.333 5.16699 -36.833 15.5 -46.5s23.5 -14.5 39.5 -14.5c10.667 0 20.334 1.83301 29.001 5.5s16.167 7.5 22.5 11.5s11.5 7.66699 15.5 11s7 5 9 5s3.5 -0.333008 4.5 -1c0.333008 -0.666992 1.16602 -1.66699 2.49902 -3l10 -22
c-13.333 -14 -29.666 -25.167 -48.999 -33.5s-38.333 -12.5 -57 -12.5c-27.333 0 -48.833 7.5 -64.5 22.5c-15.667 15.667 -23.5 38.834 -23.5 69.501v7.5c0 3 0.333008 7.5 1 13.5s1.5 13.667 2.5 23s2.5 21.333 4.5 36l34 283h-245l-35 -281
c-1.33301 -13.333 -2.5 -24.5 -3.5 -33.5s-1.66699 -16.333 -2 -22s-0.666016 -9.83398 -0.999023 -12.501s-0.5 -4.66699 -0.5 -6c0 -21.333 5 -36.833 15 -46.5s23 -14.5 39 -14.5c10.667 0 20.5 1.83301 29.5 5.5s16.5 7.5 22.5 11.5s11 7.66699 15 11s7.33301 5 10 5
s4.66699 -1.33301 6 -4l10 -22c-13.333 -14 -29.5 -25.167 -48.5 -33.5s-38.167 -12.5 -57.5 -12.5c-27.333 0 -48.666 7.66699 -63.999 23s-23.333 38.333 -24 69zM697.993 715.999c7.33301 0 12.8311 -1.33203 16.498 -3.99902s6.83398 -6.66699 9.50098 -12l58 -120h-25
c-4 0 -7.16699 0.666992 -9.5 2s-4.16602 3.66602 -5.49902 6.99902l-86 127h42z" />
    <glyph glyph-name="t_t_iacute.liga" unicode="tt&#xed;" horiz-adv-x="821" 
d="M76 84l-0.00683594 7.49902c0 3 0.333008 7.5 1 13.5s1.66699 13.667 3 23s2.66602 21.333 3.99902 36l34 283h-64c-3.33301 0 -6.16602 1 -8.49902 3c-2.33301 1.33301 -3.16602 4 -2.49902 8l2 18l79 6l32 178c1.33301 2.66699 3 5.33398 5 8.00098s5 4 9 4h23
l-23 -190h246l32 178c0.666992 2.66699 2.16699 5.33398 4.5 8.00098s5.5 4 9.5 4h22l-23 -190h301l-60 -482h-46l55 447h-254l-35 -281c-1.33301 -13.333 -2.66602 -24.5 -3.99902 -33.5s-2.16602 -16.333 -2.49902 -22s-0.666016 -9.83398 -0.999023 -12.501
s-0.5 -4.66699 -0.5 -6c0 -21.333 5.16699 -36.833 15.5 -46.5s23.5 -14.5 39.5 -14.5c10.667 0 20.334 1.83301 29.001 5.5s16.167 7.5 22.5 11.5s11.5 7.66699 15.5 11s7 5 9 5s3.5 -0.333008 4.5 -1c0.333008 -0.666992 1.16602 -1.66699 2.49902 -3l10 -22
c-13.333 -14 -29.666 -25.167 -48.999 -33.5s-38.333 -12.5 -57 -12.5c-27.333 0 -48.833 7.5 -64.5 22.5c-15.667 15.667 -23.5 38.834 -23.5 69.501v7.5c0 3 0.333008 7.5 1 13.5s1.5 13.667 2.5 23s2.5 21.333 4.5 36l34 283h-245l-35 -281
c-1.33301 -13.333 -2.5 -24.5 -3.5 -33.5s-1.66699 -16.333 -2 -22s-0.666016 -9.83398 -0.999023 -12.501s-0.5 -4.66699 -0.5 -6c0 -21.333 5 -36.833 15 -46.5s23 -14.5 39 -14.5c10.667 0 20.5 1.83301 29.5 5.5s16.5 7.5 22.5 11.5s11 7.66699 15 11s7.33301 5 10 5
s4.66699 -1.33301 6 -4l10 -22c-13.333 -14 -29.5 -25.167 -48.5 -33.5s-38.167 -12.5 -57.5 -12.5c-27.333 0 -48.666 7.66699 -63.999 23s-23.333 38.333 -24 69zM877.993 715.999l-113.999 -127.001c-2.66699 -3.33301 -5.33398 -5.66602 -8.00098 -6.99902s-6 -2 -10 -2
h-26l86 120c4 6 8 10.167 12 12.5s9.33301 3.5 16 3.5h44z" />
    <glyph glyph-name="t_t_icircumflex.liga" unicode="tt&#xee;" horiz-adv-x="822" 
d="M76 84l-0.00683594 7.49902c0 3 0.333008 7.5 1 13.5s1.66699 13.667 3 23s2.66602 21.333 3.99902 36l34 283h-64c-3.33301 0 -6.16602 1 -8.49902 3c-2.33301 1.33301 -3.16602 4 -2.49902 8l2 18l79 6l32 178c1.33301 2.66699 3 5.33398 5 8.00098s5 4 9 4h23
l-23 -190h246l32 178c0.666992 2.66699 2.16699 5.33398 4.5 8.00098s5.5 4 9.5 4h22l-23 -190h301l-60 -482h-46l55 447h-254l-35 -281c-1.33301 -13.333 -2.66602 -24.5 -3.99902 -33.5s-2.16602 -16.333 -2.49902 -22s-0.666016 -9.83398 -0.999023 -12.501
s-0.5 -4.66699 -0.5 -6c0 -21.333 5.16699 -36.833 15.5 -46.5s23.5 -14.5 39.5 -14.5c10.667 0 20.334 1.83301 29.001 5.5s16.167 7.5 22.5 11.5s11.5 7.66699 15.5 11s7 5 9 5s3.5 -0.333008 4.5 -1c0.333008 -0.666992 1.16602 -1.66699 2.49902 -3l10 -22
c-13.333 -14 -29.666 -25.167 -48.999 -33.5s-38.333 -12.5 -57 -12.5c-27.333 0 -48.833 7.5 -64.5 22.5c-15.667 15.667 -23.5 38.834 -23.5 69.501v7.5c0 3 0.333008 7.5 1 13.5s1.5 13.667 2.5 23s2.5 21.333 4.5 36l34 283h-245l-35 -281
c-1.33301 -13.333 -2.5 -24.5 -3.5 -33.5s-1.66699 -16.333 -2 -22s-0.666016 -9.83398 -0.999023 -12.501s-0.5 -4.66699 -0.5 -6c0 -21.333 5 -36.833 15 -46.5s23 -14.5 39 -14.5c10.667 0 20.5 1.83301 29.5 5.5s16.5 7.5 22.5 11.5s11 7.66699 15 11s7.33301 5 10 5
s4.66699 -1.33301 6 -4l10 -22c-13.333 -14 -29.5 -25.167 -48.5 -33.5s-38.167 -12.5 -57.5 -12.5c-27.333 0 -48.666 7.66699 -63.999 23s-23.333 38.333 -24 69zM869.993 583.999h-30c-2 0 -4.16699 0.666992 -6.5 2s-4.5 3.33301 -6.5 6l-61 82
c-0.666992 0.666992 -1.5 1.66699 -2.5 3c-1 0.666992 -1.83301 1.66699 -2.5 3l-5 -6l-81 -82c-4 -5.33301 -8.66699 -8 -14 -8h-31l114 124h39z" />
    <glyph glyph-name="t_t_idieresis.liga" unicode="tt&#xef;" horiz-adv-x="822" 
d="M76 84l-0.00683594 7.49902c0 3 0.333008 7.5 1 13.5s1.66699 13.667 3 23s2.66602 21.333 3.99902 36l34 283h-64c-3.33301 0 -6.16602 1 -8.49902 3c-2.33301 1.33301 -3.16602 4 -2.49902 8l2 18l79 6l32 178c1.33301 2.66699 3 5.33398 5 8.00098s5 4 9 4h23
l-23 -190h246l32 178c0.666992 2.66699 2.16699 5.33398 4.5 8.00098s5.5 4 9.5 4h22l-23 -190h301l-60 -482h-46l55 447h-254l-35 -281c-1.33301 -13.333 -2.66602 -24.5 -3.99902 -33.5s-2.16602 -16.333 -2.49902 -22s-0.666016 -9.83398 -0.999023 -12.501
s-0.5 -4.66699 -0.5 -6c0 -21.333 5.16699 -36.833 15.5 -46.5s23.5 -14.5 39.5 -14.5c10.667 0 20.334 1.83301 29.001 5.5s16.167 7.5 22.5 11.5s11.5 7.66699 15.5 11s7 5 9 5s3.5 -0.333008 4.5 -1c0.333008 -0.666992 1.16602 -1.66699 2.49902 -3l10 -22
c-13.333 -14 -29.666 -25.167 -48.999 -33.5s-38.333 -12.5 -57 -12.5c-27.333 0 -48.833 7.5 -64.5 22.5c-15.667 15.667 -23.5 38.834 -23.5 69.501v7.5c0 3 0.333008 7.5 1 13.5s1.5 13.667 2.5 23s2.5 21.333 4.5 36l34 283h-245l-35 -281
c-1.33301 -13.333 -2.5 -24.5 -3.5 -33.5s-1.66699 -16.333 -2 -22s-0.666016 -9.83398 -0.999023 -12.501s-0.5 -4.66699 -0.5 -6c0 -21.333 5 -36.833 15 -46.5s23 -14.5 39 -14.5c10.667 0 20.5 1.83301 29.5 5.5s16.5 7.5 22.5 11.5s11 7.66699 15 11s7.33301 5 10 5
s4.66699 -1.33301 6 -4l10 -22c-13.333 -14 -29.5 -25.167 -48.5 -33.5s-38.167 -12.5 -57.5 -12.5c-27.333 0 -48.666 7.66699 -63.999 23s-23.333 38.333 -24 69zM738.993 641.999c0 -5.33301 -1.16797 -10.333 -3.50098 -15s-5.5 -9 -9.5 -13s-8.33301 -7 -13 -9
s-9.66699 -3 -15 -3s-10.666 1 -15.999 3s-9.83301 5 -13.5 9s-6.66699 8.33301 -9 13s-3.5 9.66699 -3.5 15s1.16699 10.666 3.5 15.999s5.33301 9.83301 9 13.5s8 6.66699 13 9c5.66699 2.33301 11.167 3.5 16.5 3.5s10.333 -1.16699 15 -3.5s9 -5.33301 13 -9
s7.16699 -8.16699 9.5 -13.5s3.5 -10.666 3.5 -15.999zM867.992 641.999c0 -5.33301 -1.33301 -10.333 -4 -15s-5.66699 -9 -9 -13s-7.66602 -7 -12.999 -9s-10.666 -3 -15.999 -3s-10.5 1 -15.5 3s-9.33301 5 -13 9s-6.5 8.33301 -8.5 13s-3 9.66699 -3 15
c0 11.333 4 21.166 12 29.499s17.333 12.5 28 12.5c5.33301 0 10.666 -1.16699 15.999 -3.5s9.66602 -5.33301 12.999 -9s6.33301 -8.16699 9 -13.5s4 -10.666 4 -15.999z" />
    <glyph glyph-name="t_t_imacron.liga" unicode="tt&#x12b;" horiz-adv-x="821" 
d="M76 84l-0.00683594 7.49902c0 3 0.333008 7.5 1 13.5s1.66699 13.667 3 23s2.66602 21.333 3.99902 36l34 283h-64c-3.33301 0 -6.16602 1 -8.49902 3c-2.33301 1.33301 -3.16602 4 -2.49902 8l2 18l79 6l32 178c1.33301 2.66699 3 5.33398 5 8.00098s5 4 9 4h23
l-23 -190h246l32 178c0.666992 2.66699 2.16699 5.33398 4.5 8.00098s5.5 4 9.5 4h22l-23 -190h301l-60 -482h-46l55 447h-254l-35 -281c-1.33301 -13.333 -2.66602 -24.5 -3.99902 -33.5s-2.16602 -16.333 -2.49902 -22s-0.666016 -9.83398 -0.999023 -12.501
s-0.5 -4.66699 -0.5 -6c0 -21.333 5.16699 -36.833 15.5 -46.5s23.5 -14.5 39.5 -14.5c10.667 0 20.334 1.83301 29.001 5.5s16.167 7.5 22.5 11.5s11.5 7.66699 15.5 11s7 5 9 5s3.5 -0.333008 4.5 -1c0.333008 -0.666992 1.16602 -1.66699 2.49902 -3l10 -22
c-13.333 -14 -29.666 -25.167 -48.999 -33.5s-38.333 -12.5 -57 -12.5c-27.333 0 -48.833 7.5 -64.5 22.5c-15.667 15.667 -23.5 38.834 -23.5 69.501v7.5c0 3 0.333008 7.5 1 13.5s1.5 13.667 2.5 23s2.5 21.333 4.5 36l34 283h-245l-35 -281
c-1.33301 -13.333 -2.5 -24.5 -3.5 -33.5s-1.66699 -16.333 -2 -22s-0.666016 -9.83398 -0.999023 -12.501s-0.5 -4.66699 -0.5 -6c0 -21.333 5 -36.833 15 -46.5s23 -14.5 39 -14.5c10.667 0 20.5 1.83301 29.5 5.5s16.5 7.5 22.5 11.5s11 7.66699 15 11s7.33301 5 10 5
s4.66699 -1.33301 6 -4l10 -22c-13.333 -14 -29.5 -25.167 -48.5 -33.5s-38.167 -12.5 -57.5 -12.5c-27.333 0 -48.666 7.66699 -63.999 23s-23.333 38.333 -24 69zM635.993 657.999h252l-4 -32h-251z" />
    <glyph glyph-name="t_t_itilde.liga" unicode="tt&#x129;" horiz-adv-x="821" 
d="M76 84l-0.00683594 7.49902c0 3 0.333008 7.5 1 13.5s1.66699 13.667 3 23s2.66602 21.333 3.99902 36l34 283h-64c-3.33301 0 -6.16602 1 -8.49902 3c-2.33301 1.33301 -3.16602 4 -2.49902 8l2 18l79 6l32 178c1.33301 2.66699 3 5.33398 5 8.00098s5 4 9 4h23
l-23 -190h246l32 178c0.666992 2.66699 2.16699 5.33398 4.5 8.00098s5.5 4 9.5 4h22l-23 -190h301l-60 -482h-46l55 447h-254l-35 -281c-1.33301 -13.333 -2.66602 -24.5 -3.99902 -33.5s-2.16602 -16.333 -2.49902 -22s-0.666016 -9.83398 -0.999023 -12.501
s-0.5 -4.66699 -0.5 -6c0 -21.333 5.16699 -36.833 15.5 -46.5s23.5 -14.5 39.5 -14.5c10.667 0 20.334 1.83301 29.001 5.5s16.167 7.5 22.5 11.5s11.5 7.66699 15.5 11s7 5 9 5s3.5 -0.333008 4.5 -1c0.333008 -0.666992 1.16602 -1.66699 2.49902 -3l10 -22
c-13.333 -14 -29.666 -25.167 -48.999 -33.5s-38.333 -12.5 -57 -12.5c-27.333 0 -48.833 7.5 -64.5 22.5c-15.667 15.667 -23.5 38.834 -23.5 69.501v7.5c0 3 0.333008 7.5 1 13.5s1.5 13.667 2.5 23s2.5 21.333 4.5 36l34 283h-245l-35 -281
c-1.33301 -13.333 -2.5 -24.5 -3.5 -33.5s-1.66699 -16.333 -2 -22s-0.666016 -9.83398 -0.999023 -12.501s-0.5 -4.66699 -0.5 -6c0 -21.333 5 -36.833 15 -46.5s23 -14.5 39 -14.5c10.667 0 20.5 1.83301 29.5 5.5s16.5 7.5 22.5 11.5s11 7.66699 15 11s7.33301 5 10 5
s4.66699 -1.33301 6 -4l10 -22c-13.333 -14 -29.5 -25.167 -48.5 -33.5s-38.167 -12.5 -57.5 -12.5c-27.333 0 -48.666 7.66699 -63.999 23s-23.333 38.333 -24 69zM807.993 639.999c13.333 0 23.999 4.66699 31.999 14s13 21.666 15 36.999h27
c-1.33301 -12 -4 -23.167 -8 -33.5s-9.33301 -19.5 -16 -27.5s-14.334 -14 -23.001 -18s-18.334 -6 -29.001 -6s-20 2.66699 -28 8s-15.667 11.333 -23 18s-14.666 12.667 -21.999 18s-15 8 -23 8c-12.667 0 -23.167 -4.66699 -31.5 -14s-13.166 -21.666 -14.499 -36.999
h-28c1.33301 12 4 23.167 8 33.5s9.33301 19.5 16 27.5s14.334 14 23.001 18s18.334 6 29.001 6s20.167 -2.66699 28.5 -8s16.166 -11.333 23.499 -18s14.5 -12.667 21.5 -18s14.5 -8 22.5 -8z" />
    <glyph glyph-name="t_t_ibreve.liga" unicode="tt&#x12d;" horiz-adv-x="822" 
d="M76 84l-0.00683594 7.49902c0 3 0.333008 7.5 1 13.5s1.66699 13.667 3 23s2.66602 21.333 3.99902 36l34 283h-64c-3.33301 0 -6.16602 1 -8.49902 3c-2.33301 1.33301 -3.16602 4 -2.49902 8l2 18l79 6l32 178c1.33301 2.66699 3 5.33398 5 8.00098s5 4 9 4h23
l-23 -190h246l32 178c0.666992 2.66699 2.16699 5.33398 4.5 8.00098s5.5 4 9.5 4h22l-23 -190h301l-60 -482h-46l55 447h-254l-35 -281c-1.33301 -13.333 -2.66602 -24.5 -3.99902 -33.5s-2.16602 -16.333 -2.49902 -22s-0.666016 -9.83398 -0.999023 -12.501
s-0.5 -4.66699 -0.5 -6c0 -21.333 5.16699 -36.833 15.5 -46.5s23.5 -14.5 39.5 -14.5c10.667 0 20.334 1.83301 29.001 5.5s16.167 7.5 22.5 11.5s11.5 7.66699 15.5 11s7 5 9 5s3.5 -0.333008 4.5 -1c0.333008 -0.666992 1.16602 -1.66699 2.49902 -3l10 -22
c-13.333 -14 -29.666 -25.167 -48.999 -33.5s-38.333 -12.5 -57 -12.5c-27.333 0 -48.833 7.5 -64.5 22.5c-15.667 15.667 -23.5 38.834 -23.5 69.501v7.5c0 3 0.333008 7.5 1 13.5s1.5 13.667 2.5 23s2.5 21.333 4.5 36l34 283h-245l-35 -281
c-1.33301 -13.333 -2.5 -24.5 -3.5 -33.5s-1.66699 -16.333 -2 -22s-0.666016 -9.83398 -0.999023 -12.501s-0.5 -4.66699 -0.5 -6c0 -21.333 5 -36.833 15 -46.5s23 -14.5 39 -14.5c10.667 0 20.5 1.83301 29.5 5.5s16.5 7.5 22.5 11.5s11 7.66699 15 11s7.33301 5 10 5
s4.66699 -1.33301 6 -4l10 -22c-13.333 -14 -29.5 -25.167 -48.5 -33.5s-38.167 -12.5 -57.5 -12.5c-27.333 0 -48.666 7.66699 -63.999 23s-23.333 38.333 -24 69zM755.993 583.999c-20 0 -36.6689 3.33203 -50.002 9.99902s-23.666 15.667 -30.999 27
s-12.333 24.333 -15 39s-2.66699 30.667 0 48h32c-1.33301 -12 -1.33301 -23.667 0 -35s4.5 -21.166 9.5 -29.499s12.333 -15 22 -20s21.834 -7.5 36.501 -7.5s27.167 2.5 37.5 7.5s19 11.667 26 20s12.5 18 16.5 29c4 11.667 6.66699 23.5 8 35.5h32
c-2 -16.667 -5.83301 -32.5 -11.5 -47.5s-13.5 -28.167 -23.5 -39.5s-22.333 -20.333 -37 -27s-32 -10 -52 -10z" />
    <glyph glyph-name="t_t_uni01D0.liga" unicode="tt&#x1d0;" horiz-adv-x="821" 
d="M76 84l-0.00683594 7.49902c0 3 0.333008 7.5 1 13.5s1.66699 13.667 3 23s2.66602 21.333 3.99902 36l34 283h-64c-3.33301 0 -6.16602 1 -8.49902 3c-2.33301 1.33301 -3.16602 4 -2.49902 8l2 18l79 6l32 178c1.33301 2.66699 3 5.33398 5 8.00098s5 4 9 4h23
l-23 -190h246l32 178c0.666992 2.66699 2.16699 5.33398 4.5 8.00098s5.5 4 9.5 4h22l-23 -190h301l-60 -482h-46l55 447h-254l-35 -281c-1.33301 -13.333 -2.66602 -24.5 -3.99902 -33.5s-2.16602 -16.333 -2.49902 -22s-0.666016 -9.83398 -0.999023 -12.501
s-0.5 -4.66699 -0.5 -6c0 -21.333 5.16699 -36.833 15.5 -46.5s23.5 -14.5 39.5 -14.5c10.667 0 20.334 1.83301 29.001 5.5s16.167 7.5 22.5 11.5s11.5 7.66699 15.5 11s7 5 9 5s3.5 -0.333008 4.5 -1c0.333008 -0.666992 1.16602 -1.66699 2.49902 -3l10 -22
c-13.333 -14 -29.666 -25.167 -48.999 -33.5s-38.333 -12.5 -57 -12.5c-27.333 0 -48.833 7.5 -64.5 22.5c-15.667 15.667 -23.5 38.834 -23.5 69.501v7.5c0 3 0.333008 7.5 1 13.5s1.5 13.667 2.5 23s2.5 21.333 4.5 36l34 283h-245l-35 -281
c-1.33301 -13.333 -2.5 -24.5 -3.5 -33.5s-1.66699 -16.333 -2 -22s-0.666016 -9.83398 -0.999023 -12.501s-0.5 -4.66699 -0.5 -6c0 -21.333 5 -36.833 15 -46.5s23 -14.5 39 -14.5c10.667 0 20.5 1.83301 29.5 5.5s16.5 7.5 22.5 11.5s11 7.66699 15 11s7.33301 5 10 5
s4.66699 -1.33301 6 -4l10 -22c-13.333 -14 -29.5 -25.167 -48.5 -33.5s-38.167 -12.5 -57.5 -12.5c-27.333 0 -48.666 7.66699 -63.999 23s-23.333 38.333 -24 69zM647.993 707.999h30c5.33301 0 9.33301 -2 12 -6l63 -84l4 -6l6 6l81 84c4 4 8.33301 6 13 6h30l-113 -124
h-40z" />
    <glyph glyph-name="t_t_uni1E2D.liga" unicode="tt&#x1e2d;" horiz-adv-x="822" 
d="M76 84l-0.00683594 7.49902c0 3 0.333008 7.5 1 13.5s1.66699 13.667 3 23s2.66602 21.333 3.99902 36l34 283h-64c-3.33301 0 -6.16602 1 -8.49902 3c-2.33301 1.33301 -3.16602 4 -2.49902 8l2 18l79 6l32 178c1.33301 2.66699 3 5.33398 5 8.00098s5 4 9 4h23
l-23 -190h246l32 178c0.666992 2.66699 2.16699 5.33398 4.5 8.00098s5.5 4 9.5 4h22l-23 -190h301l-60 -482h-46l55 447h-254l-35 -281c-1.33301 -13.333 -2.66602 -24.5 -3.99902 -33.5s-2.16602 -16.333 -2.49902 -22s-0.666016 -9.83398 -0.999023 -12.501
s-0.5 -4.66699 -0.5 -6c0 -21.333 5.16699 -36.833 15.5 -46.5s23.5 -14.5 39.5 -14.5c10.667 0 20.334 1.83301 29.001 5.5s16.167 7.5 22.5 11.5s11.5 7.66699 15.5 11s7 5 9 5s3.5 -0.333008 4.5 -1c0.333008 -0.666992 1.16602 -1.66699 2.49902 -3l10 -22
c-13.333 -14 -29.666 -25.167 -48.999 -33.5s-38.333 -12.5 -57 -12.5c-27.333 0 -48.833 7.5 -64.5 22.5c-15.667 15.667 -23.5 38.834 -23.5 69.501v7.5c0 3 0.333008 7.5 1 13.5s1.5 13.667 2.5 23s2.5 21.333 4.5 36l34 283h-245l-35 -281
c-1.33301 -13.333 -2.5 -24.5 -3.5 -33.5s-1.66699 -16.333 -2 -22s-0.666016 -9.83398 -0.999023 -12.501s-0.5 -4.66699 -0.5 -6c0 -21.333 5 -36.833 15 -46.5s23 -14.5 39 -14.5c10.667 0 20.5 1.83301 29.5 5.5s16.5 7.5 22.5 11.5s11 7.66699 15 11s7.33301 5 10 5
s4.66699 -1.33301 6 -4l10 -22c-13.333 -14 -29.5 -25.167 -48.5 -33.5s-38.167 -12.5 -57.5 -12.5c-27.333 0 -48.666 7.66699 -63.999 23s-23.333 38.333 -24 69zM711.993 -106.001c13.333 0 23.999 4.66699 31.999 14s13 21.666 15 36.999h27
c-1.33301 -12 -4 -23.167 -8 -33.5s-9.33301 -19.5 -16 -27.5s-14.334 -14 -23.001 -18s-18.334 -6 -29.001 -6s-20 2.66699 -28 8s-15.667 11.333 -23 18s-14.666 12.667 -21.999 18s-15 8 -23 8c-12.667 0 -23.167 -4.66699 -31.5 -14s-13.166 -21.666 -14.499 -36.999
h-28c1.33301 12 4 23.167 8 33.5s9.33301 19.5 16 27.5s14.334 14 23.001 18s18.334 6 29.001 6s20.167 -2.66699 28.5 -8s16.166 -11.333 23.499 -18s14.5 -12.667 21.5 -18s14.5 -8 22.5 -8zM798.992 668.999c0 -6 -1.16602 -11.667 -3.49902 -17s-5.5 -10 -9.5 -14
s-8.5 -7 -13.5 -9s-10.167 -3 -15.5 -3s-10.666 1 -15.999 3s-9.83301 5 -13.5 9s-6.66699 8.66699 -9 14s-3.5 11 -3.5 17s1.16699 11.667 3.5 17s5.33301 10 9 14s8.16699 7.33301 13.5 10s10.666 4 15.999 4s10.666 -1.33301 15.999 -4s10 -6 14 -10s7 -8.66699 9 -14
s3 -11 3 -17z" />
    <glyph glyph-name="t_t_uni1E2F.liga" unicode="tt&#x1e2f;" horiz-adv-x="821" 
d="M76 84l-0.00683594 7.49902c0 3 0.333008 7.5 1 13.5s1.66699 13.667 3 23s2.66602 21.333 3.99902 36l34 283h-64c-3.33301 0 -6.16602 1 -8.49902 3c-2.33301 1.33301 -3.16602 4 -2.49902 8l2 18l79 6l32 178c1.33301 2.66699 3 5.33398 5 8.00098s5 4 9 4h23
l-23 -190h246l32 178c0.666992 2.66699 2.16699 5.33398 4.5 8.00098s5.5 4 9.5 4h22l-23 -190h301l-60 -482h-46l55 447h-254l-35 -281c-1.33301 -13.333 -2.66602 -24.5 -3.99902 -33.5s-2.16602 -16.333 -2.49902 -22s-0.666016 -9.83398 -0.999023 -12.501
s-0.5 -4.66699 -0.5 -6c0 -21.333 5.16699 -36.833 15.5 -46.5s23.5 -14.5 39.5 -14.5c10.667 0 20.334 1.83301 29.001 5.5s16.167 7.5 22.5 11.5s11.5 7.66699 15.5 11s7 5 9 5s3.5 -0.333008 4.5 -1c0.333008 -0.666992 1.16602 -1.66699 2.49902 -3l10 -22
c-13.333 -14 -29.666 -25.167 -48.999 -33.5s-38.333 -12.5 -57 -12.5c-27.333 0 -48.833 7.5 -64.5 22.5c-15.667 15.667 -23.5 38.834 -23.5 69.501v7.5c0 3 0.333008 7.5 1 13.5s1.5 13.667 2.5 23s2.5 21.333 4.5 36l34 283h-245l-35 -281
c-1.33301 -13.333 -2.5 -24.5 -3.5 -33.5s-1.66699 -16.333 -2 -22s-0.666016 -9.83398 -0.999023 -12.501s-0.5 -4.66699 -0.5 -6c0 -21.333 5 -36.833 15 -46.5s23 -14.5 39 -14.5c10.667 0 20.5 1.83301 29.5 5.5s16.5 7.5 22.5 11.5s11 7.66699 15 11s7.33301 5 10 5
s4.66699 -1.33301 6 -4l10 -22c-13.333 -14 -29.5 -25.167 -48.5 -33.5s-38.167 -12.5 -57.5 -12.5c-27.333 0 -48.666 7.66699 -63.999 23s-23.333 38.333 -24 69zM899.993 867.999l-113.999 -127.001c-2.66699 -3.33301 -5.33398 -5.66602 -8.00098 -6.99902s-6 -2 -10 -2
h-26l86 120c4 6 8 10.167 12 12.5s9.33301 3.5 16 3.5h44zM722.994 641.998c0 -5.33301 -1 -10.333 -3 -15s-5 -9 -9 -13s-8.5 -7 -13.5 -9s-10.167 -3 -15.5 -3s-10.5 1 -15.5 3s-9.33301 5 -13 9s-6.66699 8.33301 -9 13s-3.5 9.66699 -3.5 15s1.16699 10.666 3.5 15.999
s5.33301 9.83301 9 13.5s8 6.66699 13 9s10.167 3.5 15.5 3.5s10.5 -1.16699 15.5 -3.5s9.5 -5.33301 13.5 -9s7 -8.16699 9 -13.5s3 -10.666 3 -15.999zM889.994 641.998c0 -5.33301 -1.16797 -10.333 -3.50098 -15s-5.33301 -9 -9 -13s-8 -7 -13 -9s-10.167 -3 -15.5 -3
s-10.666 1 -15.999 3s-9.83301 5 -13.5 9s-6.66699 8.33301 -9 13s-3.5 9.66699 -3.5 15s1.16699 10.666 3.5 15.999s5.33301 9.83301 9 13.5s8 6.66699 13 9c5.66699 2.33301 11.167 3.5 16.5 3.5s10.5 -1.16699 15.5 -3.5s9.33301 -5.33301 13 -9
s6.66699 -8.16699 9 -13.5s3.5 -10.666 3.5 -15.999z" />
    <glyph glyph-name="t_t_uni0268.liga" unicode="tt&#x268;" horiz-adv-x="846" 
d="M690 276l20.9932 170.998h-254l-35 -281c-1.33301 -13.333 -2.66602 -24.5 -3.99902 -33.5s-2.16602 -16.333 -2.49902 -22s-0.666016 -9.83398 -0.999023 -12.501s-0.5 -4.66699 -0.5 -6c0 -21.333 5.16699 -36.833 15.5 -46.5s23.5 -14.5 39.5 -14.5
c10.667 0 20.334 1.83301 29.001 5.5s16.167 7.5 22.5 11.5s11.5 7.66699 15.5 11s7 5 9 5s3.5 -0.333008 4.5 -1c0.333008 -0.666992 1.16602 -1.66699 2.49902 -3l10 -22c-13.333 -14 -29.666 -25.167 -48.999 -33.5s-38.333 -12.5 -57 -12.5
c-27.333 0 -48.833 7.5 -64.5 22.5c-15.667 15.667 -23.5 38.834 -23.5 69.501v7.5c0 3 0.333008 7.5 1 13.5s1.5 13.667 2.5 23s2.5 21.333 4.5 36l34 283h-245l-35 -281c-1.33301 -13.333 -2.5 -24.5 -3.5 -33.5s-1.66699 -16.333 -2 -22
s-0.666016 -9.83398 -0.999023 -12.501s-0.5 -4.66699 -0.5 -6c0 -21.333 5 -36.833 15 -46.5s23 -14.5 39 -14.5c10.667 0 20.5 1.83301 29.5 5.5s16.5 7.5 22.5 11.5s11 7.66699 15 11s7.33301 5 10 5s4.66699 -1.33301 6 -4l10 -22
c-13.333 -14 -29.5 -25.167 -48.5 -33.5s-38.167 -12.5 -57.5 -12.5c-27.333 0 -48.666 7.5 -63.999 22.5c-15.333 15.667 -23.333 38.834 -24 69.501v7.5c0 3 0.333008 7.5 1 13.5s1.66699 13.667 3 23s2.66602 21.333 3.99902 36l34 283h-64
c-3.33301 0 -6.16602 1 -8.49902 3c-2.33301 1.33301 -3.16602 4 -2.49902 8l2 18l79 6l32 178c1.33301 2.66699 3 5.33398 5 8.00098s5 4 9 4h23l-23 -190h246l32 178c0.666992 2.66699 2.16699 5.33398 4.5 8.00098s5.5 4 9.5 4h22l-23 -190h301l-26 -206h84l-4 -34h-84
l-30 -242h-46l30 242h-72l4 34h72zM803.993 668.998c0 -6 -1.33398 -11.667 -4.00098 -17s-6 -10 -10 -14s-8.66699 -7 -14 -9s-10.666 -3 -15.999 -3s-10.5 1 -15.5 3s-9.33301 5 -13 9s-6.66699 8.66699 -9 14s-3.5 11 -3.5 17s1.16699 11.667 3.5 17s5.5 10 9.5 14
s8.33301 7.33301 13 10s10 4 16 4c5.33301 0 10.5 -1.33301 15.5 -4s9.5 -6 13.5 -10s7.33301 -8.66699 10 -14s4 -11 4 -17z" />
    <glyph glyph-name="t_t_uni020B.liga" unicode="tt&#x20b;" horiz-adv-x="821" 
d="M76 84l-0.00683594 7.49902c0 3 0.333008 7.5 1 13.5s1.66699 13.667 3 23s2.66602 21.333 3.99902 36l34 283h-64c-3.33301 0 -6.16602 1 -8.49902 3c-2.33301 1.33301 -3.16602 4 -2.49902 8l2 18l79 6l32 178c1.33301 2.66699 3 5.33398 5 8.00098s5 4 9 4h23
l-23 -190h246l32 178c0.666992 2.66699 2.16699 5.33398 4.5 8.00098s5.5 4 9.5 4h22l-23 -190h301l-60 -482h-46l55 447h-254l-35 -281c-1.33301 -13.333 -2.66602 -24.5 -3.99902 -33.5s-2.16602 -16.333 -2.49902 -22s-0.666016 -9.83398 -0.999023 -12.501
s-0.5 -4.66699 -0.5 -6c0 -21.333 5.16699 -36.833 15.5 -46.5s23.5 -14.5 39.5 -14.5c10.667 0 20.334 1.83301 29.001 5.5s16.167 7.5 22.5 11.5s11.5 7.66699 15.5 11s7 5 9 5s3.5 -0.333008 4.5 -1c0.333008 -0.666992 1.16602 -1.66699 2.49902 -3l10 -22
c-13.333 -14 -29.666 -25.167 -48.999 -33.5s-38.333 -12.5 -57 -12.5c-27.333 0 -48.833 7.5 -64.5 22.5c-15.667 15.667 -23.5 38.834 -23.5 69.501v7.5c0 3 0.333008 7.5 1 13.5s1.5 13.667 2.5 23s2.5 21.333 4.5 36l34 283h-245l-35 -281
c-1.33301 -13.333 -2.5 -24.5 -3.5 -33.5s-1.66699 -16.333 -2 -22s-0.666016 -9.83398 -0.999023 -12.501s-0.5 -4.66699 -0.5 -6c0 -21.333 5 -36.833 15 -46.5s23 -14.5 39 -14.5c10.667 0 20.5 1.83301 29.5 5.5s16.5 7.5 22.5 11.5s11 7.66699 15 11s7.33301 5 10 5
s4.66699 -1.33301 6 -4l10 -22c-13.333 -14 -29.5 -25.167 -48.5 -33.5s-38.167 -12.5 -57.5 -12.5c-27.333 0 -48.666 7.66699 -63.999 23s-23.333 38.333 -24 69zM767.993 714.999c20 0 36.667 -3.16797 50 -9.50098s23.833 -15.166 31.5 -26.499s12.667 -24.5 15 -39.5
c2.33301 -14.333 2.5 -30.166 0.5 -47.499h-32c1.33301 12 1.33301 23.667 0 35s-4.5 21 -9.5 29s-12.333 14.5 -22 19.5s-21.834 7.5 -36.501 7.5s-27.167 -2.5 -37.5 -7.5s-19.166 -11.5 -26.499 -19.5s-13 -17.667 -17 -29s-6.66699 -23 -8 -35h-32
c2 17.333 5.83301 33.333 11.5 48s13.5 27.667 23.5 39s22.333 20.166 37 26.499s32 9.5 52 9.5z" />
    <glyph glyph-name="t_t_uni0209.liga" unicode="tt&#x209;" horiz-adv-x="822" 
d="M76 84l-0.00683594 7.49902c0 3 0.333008 7.5 1 13.5s1.66699 13.667 3 23s2.66602 21.333 3.99902 36l34 283h-64c-3.33301 0 -6.16602 1 -8.49902 3c-2.33301 1.33301 -3.16602 4 -2.49902 8l2 18l79 6l32 178c1.33301 2.66699 3 5.33398 5 8.00098s5 4 9 4h23
l-23 -190h246l32 178c0.666992 2.66699 2.16699 5.33398 4.5 8.00098s5.5 4 9.5 4h22l-23 -190h301l-60 -482h-46l55 447h-254l-35 -281c-1.33301 -13.333 -2.66602 -24.5 -3.99902 -33.5s-2.16602 -16.333 -2.49902 -22s-0.666016 -9.83398 -0.999023 -12.501
s-0.5 -4.66699 -0.5 -6c0 -21.333 5.16699 -36.833 15.5 -46.5s23.5 -14.5 39.5 -14.5c10.667 0 20.334 1.83301 29.001 5.5s16.167 7.5 22.5 11.5s11.5 7.66699 15.5 11s7 5 9 5s3.5 -0.333008 4.5 -1c0.333008 -0.666992 1.16602 -1.66699 2.49902 -3l10 -22
c-13.333 -14 -29.666 -25.167 -48.999 -33.5s-38.333 -12.5 -57 -12.5c-27.333 0 -48.833 7.5 -64.5 22.5c-15.667 15.667 -23.5 38.834 -23.5 69.501v7.5c0 3 0.333008 7.5 1 13.5s1.5 13.667 2.5 23s2.5 21.333 4.5 36l34 283h-245l-35 -281
c-1.33301 -13.333 -2.5 -24.5 -3.5 -33.5s-1.66699 -16.333 -2 -22s-0.666016 -9.83398 -0.999023 -12.501s-0.5 -4.66699 -0.5 -6c0 -21.333 5 -36.833 15 -46.5s23 -14.5 39 -14.5c10.667 0 20.5 1.83301 29.5 5.5s16.5 7.5 22.5 11.5s11 7.66699 15 11s7.33301 5 10 5
s4.66699 -1.33301 6 -4l10 -22c-13.333 -14 -29.5 -25.167 -48.5 -33.5s-38.167 -12.5 -57.5 -12.5c-27.333 0 -48.666 7.66699 -63.999 23s-23.333 38.333 -24 69zM750.993 715.999c8 0 13.667 -1.33203 17 -3.99902s6.33301 -6.66699 9 -12l56 -120h-18
c-4 0 -7.33301 0.666992 -10 2s-5 3.66602 -7 6.99902l-77 127h30zM629.993 716c8 0 13.5 -1.33203 16.5 -3.99902s5.83301 -6.66699 8.5 -12l71 -120h-21c-4 0 -7.33301 0.666992 -10 2s-5 3.66602 -7 6.99902l-92 127h34z" />
    <glyph glyph-name=".notdef" horiz-adv-x="512" 
d="M131 567c6.66699 6.66699 14.3311 13 22.998 19s18 11.333 28 16s20.833 8.5 32.5 11.5s24.834 4.5 39.501 4.5c18 0 34.667 -2.66699 50 -8s28.833 -13 40.5 -23s20.667 -21.833 27 -35.5s9.5 -29.167 9.5 -46.5c0 -18.667 -2.83301 -34.5 -8.5 -47.5
s-12.5 -24.5 -20.5 -34.5s-16.833 -18.667 -26.5 -26s-18.667 -14.333 -27 -21s-15.666 -13.334 -21.999 -20.001s-9.83301 -14 -10.5 -22l-5 -57h-33l-2 61c-0.666992 10.667 1.5 19.834 6.5 27.501s11.667 15 20 22s17.333 14 27 21s18.834 15 27.501 24s15.667 19 21 30
c5.33301 10.333 8 23.5 8 39.5c0 12 -2.33301 22.667 -7 32s-10.834 17.333 -18.501 24s-16.667 11.667 -27 15s-21.5 5 -33.5 5c-15.333 0 -28.5 -1.83301 -39.5 -5.5s-20.333 -8 -28 -13s-13.667 -9.33301 -18 -13s-7.83301 -5.5 -10.5 -5.5
c-4 -0.666992 -7.33301 1 -10 5zM204.997 132c0 10.667 3.66797 20 11.001 28c8 8 17.333 12 28 12s19.667 -4 27 -12s11 -17.333 11 -28s-3.66699 -19.667 -11 -27s-16.333 -11 -27 -11s-19.834 3.66699 -27.501 11s-11.5 16.333 -11.5 27zM23.998 708h465v-708h-465v708z
M40.998 18h429v672h-429v-672z" />
    <glyph glyph-name="glyph1" horiz-adv-x="0" 
 />
    <glyph glyph-name="glyph1" horiz-adv-x="0" 
 />
    <glyph glyph-name="uni000D" unicode="&#xd;" horiz-adv-x="0" 
 />
    <glyph glyph-name="space" unicode=" " horiz-adv-x="252" 
 />
    <glyph glyph-name="space" unicode="&#xa0;" horiz-adv-x="252" 
 />
    <glyph glyph-name="exclam" unicode="!" horiz-adv-x="237" 
d="M189 708l-34.998 -285.998c-2 -14.667 -4 -28.834 -6 -42.501s-4.16699 -27.334 -6.5 -41.001s-4.83301 -28.167 -7.5 -43.5s-6 -32.333 -10 -51h-30c1.33301 18.667 2.33301 35.667 3 51s1.66699 29.833 3 43.5s2.66602 27.167 3.99902 40.5
c1.33301 14 2.66602 28.333 3.99902 43l36 286h45zM44.002 38.002c0 6.66699 1.33301 12.834 4 18.501s6 10.667 10 15s8.66699 7.66602 14 9.99902s11.333 3.5 18 3.5s12.834 -1.16699 18.501 -3.5s10.667 -5.66602 15 -9.99902s7.66602 -9.33301 9.99902 -15
s3.5 -11.834 3.5 -18.501s-1.16699 -12.667 -3.5 -18s-5.66602 -10 -9.99902 -14s-9.33301 -7.33301 -15 -10s-11.834 -4 -18.501 -4c-13.333 0 -24.333 4.33301 -33 13s-13 19.667 -13 33z" />
    <glyph glyph-name="quotedbl" unicode="&#x22;" horiz-adv-x="318" 
d="M162 708l-18 -146l-14 -78c-1.33301 -5.33301 -3.16602 -9.33301 -5.49902 -12c-3 -2.66699 -7.16699 -4 -12.5 -4c-4.66699 0 -7.83398 1.33301 -9.50098 4s-3.16699 6.66699 -4.5 12l6 78l18 146h40zM296 708l-18 -146l-14 -78
c-1.33301 -5.33301 -3.16602 -9.33301 -5.49902 -12c-3 -2.66699 -7.16699 -4 -12.5 -4c-4.66699 0 -7.83398 1.33301 -9.50098 4s-3.16699 6.66699 -4.5 12l6 78l18 146h40z" />
    <glyph glyph-name="numbersign" unicode="#" horiz-adv-x="580" 
d="M366 222l-74 -222h-20c-5.33301 0 -9.33301 2 -12 6s-2.66699 9.33301 0 16l67 200h-150l-67 -202c-2 -6.66699 -5.33301 -11.667 -10 -15c-5.33301 -3.33301 -10.666 -5 -15.999 -5h-20l74 222h-92c-12 0 -16 6.66699 -12 20l4 14h110l65 196h-127l5 18
c2.66699 10.667 10.667 16 24 16h107l69 202c4.66699 13.333 13 20 25 20h20l-75 -222h150l75 222h20c5.33301 0 9.33301 -2 12 -6s2.66699 -9 0 -15l-68 -201h112l-5 -18c-2.66699 -10.667 -10.334 -16 -23.001 -16h-94l-65 -196h113c5.33301 0 9.33301 -1.5 12 -4.5
s3 -8.16699 1 -15.5l-4 -14h-131zM186 256h150l66 196h-150z" />
    <glyph glyph-name="dollar" unicode="$" horiz-adv-x="580" 
d="M223 -8c-42.667 2 -78.8369 11.166 -108.504 27.499s-54.5 37.833 -74.5 64.5l15 20c4.66699 4 9.66699 6 15 6c2.66699 0 6 -1.66699 10 -5s8.83301 -7.83301 14.5 -13.5s12.334 -11.834 20.001 -18.501s17 -12.834 28 -18.501s23.667 -10.667 38 -15
c14.333 -3.66699 30.833 -6.16699 49.5 -7.5l55 320c-20 6.66699 -39.5 14 -58.5 22s-35.833 18 -50.5 30s-26.667 26.667 -36 44s-14 38.666 -14 63.999c0 26 5.16699 50.833 15.5 74.5s25 44.834 44 63.501s42.167 33.834 69.5 45.501c27.333 11 58.333 17.167 93 18.5
l14 84c0.666992 4.66699 2.5 8.5 5.5 11.5s6.5 4.5 10.5 4.5h18l-17 -100c33.333 -2.66699 61.833 -10 85.5 -22s44.834 -28.667 63.501 -50l-13 -17c-3.33301 -5.33301 -7.66602 -8 -12.999 -8c-4 0 -9 2.83301 -15 8.5s-14 11.834 -24 18.501s-22.333 13 -37 19
s-32.667 10 -54 12l-50 -288c21.333 -6.66699 42.333 -14.167 63 -22.5s39.334 -18.333 56.001 -30s30 -26.167 40 -43.5s15 -39 15 -65c0 -30.667 -5.66699 -59.667 -17 -87s-27.333 -51.666 -48 -72.999s-46 -38.5 -76 -51.5c-30 -13.667 -63.667 -21.167 -101 -22.5
l-18 -106c-0.666992 -4 -2.5 -7.5 -5.5 -10.5s-6.5 -4.5 -10.5 -4.5h-18zM450.997 214.999c0 19.333 -3.83203 35.6699 -11.499 49.0029s-17.834 24.666 -30.501 33.999s-27 17.5 -43 24.5s-33.333 13.5 -52 19.5l-53 -310c29.333 1.33301 55.833 7.16602 79.5 17.499
s43.667 23.666 60 39.999s28.833 35.333 37.5 57s13 44.5 13 68.5zM169.998 522.003c0 -18 3.33203 -33.5029 9.99902 -46.5029s15.667 -24.167 27 -33.5s24.333 -17.666 39 -24.999s30.334 -13.666 47.001 -18.999l48 278c-28 -1.33301 -52.5 -6.66602 -73.5 -15.999
s-38.833 -21 -53.5 -35s-25.667 -29.833 -33 -47.5s-11 -36.167 -11 -55.5z" />
    <glyph glyph-name="percent" unicode="%" horiz-adv-x="722" 
d="M354 568c0 -34.667 -4.66895 -64.835 -14.002 -90.502s-21.333 -47.167 -36 -64.5s-31.667 -30.333 -51 -39s-39.666 -13 -60.999 -13c-17.333 0 -33 3.16699 -47 9.5s-26.333 15.5 -37 27.5s-18.834 27.167 -24.501 45.5c-5.66699 17.667 -8.5 38.5 -8.5 62.5
c0 34.667 4.33301 65 13 91s20.334 47.667 35.001 65s31.834 30.5 51.501 39.5s40.167 13.5 61.5 13.5c17.333 0 33 -3.16699 47 -9.5s26.333 -15.666 37 -27.999s19 -27.666 25 -45.999s9 -39.5 9 -63.5zM316.998 567.999c0 20 -2.16699 37.335 -6.5 52.002
s-10.333 26.667 -18 36s-16.667 16.333 -27 21s-21.5 7 -33.5 7c-16 0 -31.333 -3.33301 -46 -10s-27.5 -17.334 -38.5 -32.001s-19.833 -33.167 -26.5 -55.5c-6.66699 -23 -10 -49.833 -10 -80.5c0 -20 2.16699 -37 6.5 -51s10.333 -25.667 18 -35s16.667 -16.333 27 -21
s21.5 -7 33.5 -7c16 0 31.333 3.33301 46 10s27.5 17.167 38.5 31.5s19.833 32.666 26.5 54.999s10 48.833 10 79.5zM617.998 698.001c2.66699 2.66699 5.33301 5 8 7s6 3 10 3h33l-555 -700c-2 -2.66699 -4.5 -4.66699 -7.5 -6s-6.16699 -2 -9.5 -2h-33zM661.997 199.001
c0 -34.667 -4.66992 -64.8359 -14.0029 -90.5029s-21.5 -47.167 -36.5 -64.5s-32.167 -30.333 -51.5 -39s-39.333 -13 -60 -13c-17.333 0 -33.166 3 -47.499 9s-26.666 15.333 -36.999 28s-18.5 28 -24.5 46s-9 38.667 -9 62c0 34.667 4.33301 65 13 91
s20.334 47.833 35.001 65.5s31.834 30.834 51.501 39.501c20.333 8.66699 41.166 13 62.499 13c17.333 0 33 -3.16699 47 -9.5s26.333 -15.666 37 -27.999s19 -27.666 25 -45.999s9 -39.5 9 -63.5zM623.994 198.999c0 20 -2 37.167 -6 51.5s-10 26.333 -18 36
s-17 16.667 -27 21s-21 6.5 -33 6.5c-16 0 -31.333 -3.33301 -46 -10s-27.667 -17.334 -39 -32.001s-20.333 -33 -27 -55s-10 -48.667 -10 -80c0 -20 2.33301 -37.167 7 -51.5s10.667 -26.166 18 -35.499s16.333 -16.166 27 -20.499s22 -6.5 34 -6.5
c16 0 31.167 3.33301 45.5 10s27 17.167 38 31.5s19.833 32.666 26.5 54.999s10 48.833 10 79.5z" />
    <glyph glyph-name="ampersand" unicode="&#x26;" horiz-adv-x="643" 
d="M356 716c21.333 0 40.667 -3.66992 58 -11.0029s32 -17.166 44 -29.499s21.333 -27.166 28 -44.499s10 -36.333 10 -57l-25 -4c-8.66699 -1.33301 -13.667 2.33398 -15 11.001c-0.666992 9.33301 -3.16699 19.833 -7.5 31.5s-10.5 22.5 -18.5 32.5
s-18.333 18.167 -31 24.5s-28 9.5 -46 9.5c-20.667 0 -39.334 -3.66699 -56.001 -11s-31.167 -17.5 -43.5 -30.5s-21.833 -28.167 -28.5 -45.5s-10 -36.333 -10 -57c0 -22.667 5.16699 -45.834 15.5 -69.501s25.5 -47.834 45.5 -72.501l176 -217
c16.667 24 30.5 48.833 41.5 74.5c11 25 18.5 49.5 22.5 73.5c1.33301 8 6 12.333 14 13h30c-4.66699 -31.333 -14 -63.666 -28 -96.999c-13.333 -33.333 -31.333 -65 -54 -95l118 -145h-39c-8 0 -14.167 1 -18.5 3s-9.16602 5.66699 -14.499 11l-76 95
c-16 -17.333 -33 -33.166 -51 -47.499s-37.167 -26.5 -57.5 -36.5s-41.666 -18 -63.999 -24s-45.5 -9 -69.5 -9c-23.333 0 -45.333 3.66699 -66 11s-38.834 18.166 -54.501 32.499s-27.834 31.833 -36.501 52.5s-13 44 -13 70c0 27.333 4.66699 53.166 14 77.499
s22.333 46.5 39 66.5s36.334 37.667 59.001 53s46.667 28 72 38c-16 23.333 -28 46 -36 68s-12 45 -12 69c0 26.667 4.33301 51.334 13 74.001s21.334 42.334 38.001 59.001s36.167 29.667 58.5 39s47.166 14 74.499 14zM216.001 29.9971
c20.667 0 40.5 2.66406 59.5 7.99707s37.333 12.833 55 22.5s34.334 21.167 50.001 34.5c15.667 12.667 30.167 27 43.5 43l-182 226l-4 4c-24 -10 -45.333 -22.167 -64 -36.5s-34.834 -30.166 -48.501 -47.499s-24.167 -36.166 -31.5 -56.499s-11 -41.5 -11 -63.5
s3.83301 -41.5 11.5 -58.5s17.667 -31.167 30 -42.5s26.5 -19.666 42.5 -24.999s32.333 -8 49 -8z" />
    <glyph glyph-name="quotesingle" unicode="'" horiz-adv-x="184" 
d="M162 708l-18 -146l-14 -78c-1.33301 -5.33301 -3.16602 -9.33301 -5.49902 -12c-3 -2.66699 -7.16699 -4 -12.5 -4c-4.66699 0 -7.83398 1.33301 -9.50098 4s-3.16699 6.66699 -4.5 12l6 78l18 146h40z" />
    <glyph glyph-name="parenleft" unicode="(" horiz-adv-x="248" 
d="M94 225c0 -26.667 1.33105 -53.835 3.99805 -81.502s6.83398 -55.5 12.501 -83.5s12.667 -55.333 21 -82s17.833 -52 28.5 -76c2.66699 -5.33301 3 -9.83301 1 -13.5c-2 -4.33301 -4.33301 -7.16602 -7 -8.49902l-22 -12c-14 29.333 -26 59.166 -36 89.499
s-18.167 60.333 -24.5 90s-11 59 -14 88s-4.5 56.833 -4.5 83.5c0 28.667 0.833008 56.667 2.5 84s5 55 10 83s11.833 56.167 20.5 84.5s20 57.833 34 88.5s31 62.834 51 96.501s43.667 69.167 71 106.5l20 -12c2.66699 -1.33301 4.33398 -3.66602 5.00098 -6.99902
s-1 -8 -5 -14c-28 -40 -52.333 -78.833 -73 -116.5s-38 -76.5 -52 -116.5s-24.667 -82.167 -32 -126.5s-11 -92.5 -11 -144.5z" />
    <glyph glyph-name="parenright" unicode=")" horiz-adv-x="248" 
d="M158 406c0 26.667 -1.33105 53.8389 -3.99805 81.5059s-7 55.334 -13 83.001s-13 55 -21 82s-17.333 52.5 -28 76.5c-2.66699 5.33301 -3.16699 9.83301 -1.5 13.5c2.33301 3.66699 4.83301 6.16699 7.5 7.5l22 12c14 -29.333 26 -59 36 -89s18.167 -60 24.5 -90
s11 -59.333 14 -88s4.5 -56.334 4.5 -83.001c0 -28.667 -0.833008 -56.834 -2.5 -84.501s-4.83398 -55.334 -9.50098 -83.001s-11.5 -55.667 -20.5 -84s-20.5 -57.833 -34.5 -88.5s-31 -62.834 -51 -96.501s-43.667 -69.5 -71 -107.5l-19 12
c-2.66699 1.33301 -4.33398 3.83301 -5.00098 7.5c-1.33301 4.33301 0 9.16602 4 14.499c27.333 40 51.5 79.667 72.5 119s38.5 79.666 52.5 120.999s24.667 83.666 32 126.999s11 89 11 137z" />
    <glyph glyph-name="asterisk" unicode="*" horiz-adv-x="393" 
d="M200 449l13.0039 106.996c0.666992 5.33301 1.66699 10.166 3 14.499c1.33301 5 3.66602 10.167 6.99902 15.5c-4 -5.33301 -7.83301 -9.33301 -11.5 -12s-8.16699 -5.33398 -13.5 -8.00098l-92 -55l-10 21l92 56c5.33301 2.66699 10.333 4.66699 15 6
s9.66699 2.33301 15 3v1c-6 1.33301 -10.833 2.5 -14.5 3.5c-3.66699 1.66699 -7.83398 3.83398 -12.501 6.50098l-79 54l14 22l80 -54c4.66699 -2.66699 8.33398 -5.66699 11.001 -9c2 -3.33301 5 -8 9 -14c-2 6.66699 -3.16699 12.167 -3.5 16.5
s-0.166016 9.5 0.500977 15.5l13 107h26l-14 -106c-0.666992 -6 -1.83398 -11.5 -3.50098 -16.5s-3.83398 -10.167 -6.50098 -15.5c4 5.33301 8 9.5 12 12.5c4 3.66699 8.66699 6.83398 14 9.50098l92 54l10 -22l-94 -54l-14 -7c-4 -2 -9.33301 -3.33301 -16 -4
c6 -0.666992 11.167 -1.66699 15.5 -3s8.5 -3.33301 12.5 -6l80 -56l-14 -21l-80 55c-4.66699 2.66699 -8.5 5.33398 -11.5 8.00098s-5.83301 6.33398 -8.5 11.001c1.33301 -5.33301 2.16602 -10.166 2.49902 -14.499s0.166016 -9.16602 -0.500977 -14.499l-13 -107h-25z
" />
    <glyph glyph-name="plus" unicode="+" horiz-adv-x="580" 
d="M343 578l-28 -225h217l-5 -35h-216l-28 -227h-38l28 227h-215l4 35h215l28 225h38z" />
    <glyph glyph-name="comma" unicode="," horiz-adv-x="212" 
d="M30 42c0 12 3.99805 22.168 11.998 30.501s18.333 12.5 31 12.5c14.667 0 25.834 -4.83301 33.501 -14.5s11.5 -22.5 11.5 -38.5c0 -13.333 -1.66699 -27.333 -5 -42s-8.33301 -28.667 -15 -42s-14.667 -26.333 -24 -39s-20 -24.334 -32 -35.001l-8 7
c-1.33301 1.33301 -2.16602 2.83301 -2.49902 4.5s-0.5 3.16699 -0.5 4.5c0 2.66699 2.5 7 7.5 13s10.833 13.833 17.5 23.5s13 20.667 19 33s9.66699 25.833 11 40.5c-2 -0.666992 -4.16699 -1.16699 -6.5 -1.5s-4.83301 -0.5 -7.5 -0.5c-12 0 -22 4 -30 12
s-12 18.667 -12 32z" />
    <glyph glyph-name="hyphen" unicode="-" horiz-adv-x="356" 
d="M72 316h214l-4 -39h-215z" />
    <glyph glyph-name="hyphen" unicode="&#x2010;" horiz-adv-x="356" 
d="M72 316h214l-4 -39h-215z" />
    <glyph glyph-name="hyphen" unicode="&#xad;" horiz-adv-x="356" 
d="M72 316h214l-4 -39h-215z" />
    <glyph glyph-name="period" unicode="." horiz-adv-x="229" 
d="M38 38c0 6.66699 1.16895 12.834 3.50195 18.501s5.66602 10.667 9.99902 15s9.16602 7.66602 14.499 9.99902s11.333 3.5 18 3.5s12.667 -1.16699 18 -3.5s10.166 -5.66602 14.499 -9.99902s7.66602 -9.33301 9.99902 -15s3.5 -11.834 3.5 -18.501
s-1.16699 -12.667 -3.5 -18s-5.66602 -10 -9.99902 -14s-9.16602 -7.33301 -14.499 -10s-11.333 -4 -18 -4c-13.333 0 -24.333 4.33301 -33 13s-13 19.667 -13 33z" />
    <glyph glyph-name="slash" unicode="/" horiz-adv-x="404" 
d="M44 -24c-2.66699 -6.66699 -6.99902 -11.333 -12.999 -14s-11.667 -4 -17 -4h-18l375 746c5.33301 12 14.666 18 27.999 18h19z" />
    <glyph glyph-name="zero" unicode="0" horiz-adv-x="580" 
d="M536 431c0 -74.667 -7.66992 -139.501 -23.0029 -194.501s-36.166 -100.5 -62.499 -136.5s-56.666 -63 -90.999 -81s-70.166 -27 -107.499 -27c-28 0 -54 6 -78 18s-44.667 29.833 -62 53.5s-31 53.334 -41 89.001s-15 76.834 -15 123.501c0 74 7.83301 138.5 23.5 193.5
s36.667 100.833 63 137.5s56.5 64 90.5 82s69.667 27 107 27c28 0 54 -6 78 -18s44.667 -29.833 62 -53.5s31 -53.334 41 -89.001s15 -77.167 15 -124.5zM487.997 433.999c0 42 -4 78.1699 -12 108.503s-18.833 55.5 -32.5 75.5s-29.667 34.667 -48 44
s-38.166 14 -59.499 14c-29.333 0 -58 -7.66699 -86 -23s-52.833 -39.333 -74.5 -72s-39 -74.334 -52 -125.001s-19.5 -111.334 -19.5 -182.001c0 -42 4 -78.167 12 -108.5s18.833 -55.5 32.5 -75.5s29.667 -34.667 48 -44s38.166 -14 59.499 -14c29.333 0 58 7.66699 86 23
s52.833 39.166 74.5 71.499s39 74 52 125s19.5 111.833 19.5 182.5z" />
    <glyph glyph-name="one" unicode="1" horiz-adv-x="580" 
d="M116 36h148.999l71 577c0.666992 5.33301 1.5 11 2.5 17s2.16699 12 3.5 18l-159 -139c-5.33301 -4 -10.166 -5.5 -14.499 -4.5s-7.5 2.83301 -9.5 5.5l-11 20l210 180h36l-82 -674h141l-5 -36h-336z" />
    <glyph glyph-name="two" unicode="2" horiz-adv-x="580" 
d="M347 716c22.667 0 44.1709 -3.66992 64.5039 -11.0029s38 -17.666 53 -30.999s26.833 -30.333 35.5 -51s13 -44.334 13 -71.001c0 -30.667 -4.66699 -58.667 -14 -84s-22 -49.333 -38 -72s-34.5 -44.834 -55.5 -66.501s-43.167 -43.834 -66.5 -66.501l-233 -227
c10.667 2.66699 21.667 4.66699 33 6s23 2 35 2h276c5.33301 0 9.33301 -1.66699 12 -5s4 -7.33301 4 -12l-4 -27h-422l3 16c0 4 1.16699 7.83301 3.5 11.5s4.83301 6.83398 7.5 9.50098l252 245c22.667 22.667 43.834 44.334 63.501 65.001s36.667 41.334 51 62.001
s25.5 42.334 33.5 65.001s12 47 12 73c0 22 -3.33301 41 -10 57s-15.834 29.333 -27.501 40s-25 18.667 -40 24s-31.167 8 -48.5 8c-20 0 -39 -3.33301 -57 -10s-34.333 -16.167 -49 -28.5s-27.334 -27 -38.001 -44s-19.334 -35.5 -26.001 -55.5
c-2.66699 -6.66699 -6 -11.334 -10 -14.001s-9.33301 -3.66699 -16 -3l-23 3c8 30 19.167 56.833 33.5 80.5s31.166 43.834 50.499 60.501s41.166 29.334 65.499 38.001s49.833 13 76.5 13z" />
    <glyph glyph-name="three" unicode="3" horiz-adv-x="580" 
d="M347 716c22.667 0 43.9971 -3.33496 63.9971 -10.002s37.333 -16.667 52 -30s26.167 -29.666 34.5 -48.999s12.5 -41.666 12.5 -66.999c0 -26.667 -4 -50.667 -12 -72s-18.833 -40 -32.5 -56s-29.667 -29.333 -48 -40s-38.166 -18.667 -59.499 -24
c21.333 -4 39.666 -10.5 54.999 -19.5s28.333 -20 39 -33s18.667 -27.833 24 -44.5s8 -34.334 8 -53.001c0 -32 -6.33301 -62 -19 -90s-29.667 -52 -51 -72s-46.333 -35.667 -75 -47s-59 -17 -91 -17c-37.333 0 -67.666 5.33301 -90.999 16s-41.833 24.667 -55.5 42
s-23.667 36.833 -30 58.5s-10.833 43.167 -13.5 64.5l18 7c5.33301 2.66699 11 3.5 17 2.5s9.66699 -4.83301 11 -11.5c1.33301 -4 2.83301 -10.167 4.5 -18.5s4.33398 -17.666 8.00098 -27.999s8.5 -21 14.5 -32s14.333 -21 25 -30s23.834 -16.333 39.501 -22
c15 -5.66699 33.833 -8.5 56.5 -8.5c29.333 0 55.666 5.5 78.999 16.5s43 25.333 59 43s28 37.5 36 59.5s12 44 12 66c0 18.667 -3 35.834 -9 51.501s-15.667 29.167 -29 40.5s-30.833 20.333 -52.5 27c-22.333 6.66699 -48.833 10 -79.5 10l4 34
c30.667 0.666992 57.834 5.16699 81.501 13.5s43.667 20 60 35s28.833 33 37.5 54s13 44.167 13 69.5c0 21.333 -3.33301 39.666 -10 54.999s-15.5 28.166 -26.5 38.499s-24 18 -39 23s-31.167 7.5 -48.5 7.5c-20 0 -39 -3.33301 -57 -10s-34.333 -16.167 -49 -28.5
s-27.5 -27 -38.5 -44s-19.5 -35.5 -25.5 -55.5c-2.66699 -6.66699 -6 -11.334 -10 -14.001s-9.33301 -3.66699 -16 -3l-22 3c8 30 19 56.833 33 80.5s30.833 43.834 50.5 60.501s41.5 29.334 65.5 38.001s49.333 13 76 13z" />
    <glyph glyph-name="four" unicode="4" horiz-adv-x="580" 
d="M403 240h118l-3 -24c-0.666992 -4 -2.16699 -7 -4.5 -9s-5.5 -3 -9.5 -3h-106l-24 -204h-41l25 204h-307c-4.66699 0 -8.16699 1 -10.5 3c-3 2 -4.5 5 -4.5 9l-2 22l386 470h40zM408 614c0.666992 5.33301 1.5 10.668 2.5 16.001s2.16699 10.666 3.5 15.999l-330 -406
h278z" />
    <glyph glyph-name="five" unicode="5" horiz-adv-x="580" 
d="M512 688c-0.666992 -6.66699 -3.33105 -12.1689 -7.99805 -16.502c-5.33301 -4.33301 -12.666 -6.5 -21.999 -6.5h-232l-68 -237c41.333 10.667 78.666 15.667 111.999 15c30.667 0 57.334 -4.5 80.001 -13.5s41.667 -21.667 57 -38s26.666 -35.666 33.999 -57.999
s11 -46.166 11 -71.499c0 -41.333 -7 -78.833 -21 -112.5s-33 -62.167 -57 -85.5s-51.333 -41.166 -82 -53.499s-63 -18.5 -97 -18.5c-18 0 -35 1.66699 -51 5s-30.833 8 -44.5 14s-26 12.667 -37 20s-20.833 15 -29.5 23l16 20c4 5.33301 9 7.66602 15 6.99902
c4 0 9.33301 -2.5 16 -7.5s15.667 -10.5 27 -16.5s24.666 -11.667 39.999 -17s33.666 -8 54.999 -8c28 0 54.333 5.33301 79 16s46.167 25.667 64.5 45s32.833 42.833 43.5 70.5c10.667 28.333 16 59.833 16 94.5c0 21.333 -3 41 -9 59s-15.167 33.333 -27.5 46
s-27.833 22.667 -46.5 30s-40.667 11 -66 11c-17.333 0 -36 -1.5 -56 -4.5s-41.333 -7.83301 -64 -14.5l-28 9l89 314h294z" />
    <glyph glyph-name="six" unicode="6" horiz-adv-x="533" 
d="M231 432c-10.667 -13.333 -20.499 -25.833 -29.499 -37.5s-17.5 -22.834 -25.5 -33.501c20 19.333 43 34.333 69 45s53 16 81 16c25.333 0 48.333 -4.33301 69 -13s38.5 -20.834 53.5 -36.501s26.667 -34.667 35 -57s12.5 -46.833 12.5 -73.5
c0 -36 -6.33301 -69.333 -19 -100s-30 -57.167 -52 -79.5s-47.833 -39.666 -77.5 -51.999s-61.834 -18.5 -96.501 -18.5c-28 0 -52.833 4.5 -74.5 13.5s-40.334 22 -56.001 39s-27.667 37.667 -36 62c-8.33301 23.667 -12.5 50.834 -12.5 81.501c0 20 2.16699 39.5 6.5 58.5
s11 38.5 20 58.5s20.5 40.667 34.5 62c14 22 30.667 45 50 69l209 260c2.66699 4 6.33398 7 11.001 9s9.66699 3 15 3h40zM116.001 186c0 -22.667 2.99805 -43.333 8.99805 -62s15 -35 27 -49s26.667 -25 44 -33s37 -12 59 -12c29.333 0 55.833 5.33301 79.5 16s44 25 61 43
s30.167 39.667 39.5 65s14 52.666 14 81.999c0 22.667 -3.16699 43.334 -9.5 62.001s-15.666 34.5 -27.999 47.5s-27.166 23 -44.499 30s-36.666 10.5 -57.999 10.5c-29.333 0 -55.833 -5.66699 -79.5 -17s-43.834 -26.333 -60.501 -45s-29.667 -40 -39 -64
s-14 -48.667 -14 -74z" />
    <glyph glyph-name="seven" unicode="7" horiz-adv-x="580" 
d="M560 708l-2 -22.002c-0.666992 -5.33301 -1.83398 -10 -3.50098 -14s-3.5 -7.33301 -5.5 -10l-376 -644c-2.66699 -5.33301 -6.5 -9.66602 -11.5 -12.999s-10.833 -5 -17.5 -5h-32l378 642c2.66699 4.66699 5.33398 8.83398 8.00098 12.501s6 7.16699 10 10.5h-374
c-4 0 -7 1.16699 -9 3.5s-2.66699 5.5 -2 9.5l3 30h434z" />
    <glyph glyph-name="eight" unicode="8" horiz-adv-x="580" 
d="M252 -8c-28.667 0 -54.834 4.00195 -78.501 12.002s-43.667 19.333 -60 34s-29 32.667 -38 54s-13.5 44.666 -13.5 69.999c0 30 4.16699 56.667 12.5 80s20 43.5 35 60.5s32.667 31.167 53 42.5c21 11.333 43.5 19.666 67.5 24.999
c-33.333 10.667 -58.666 28.667 -75.999 54s-26 55 -26 89c0 28 5.16699 54.333 15.5 79s25 46.167 44 64.5s41.5 32.833 67.5 43.5s54.333 16 85 16c26.667 0 50.5 -4.33301 71.5 -13s38.667 -20 53 -34s25.333 -30.833 33 -50.5s11.5 -40.5 11.5 -62.5
c0 -22.667 -3.16699 -44 -9.5 -64s-15.5 -38 -27.5 -54s-27 -30 -45 -42s-38 -21.333 -60 -28c18.667 -4.66699 35.5 -11.167 50.5 -19.5s27.833 -19 38.5 -32s19 -28.167 25 -45.5c6 -18 9 -37.667 9 -59c0 -34 -6 -64.5 -18 -91.5s-28.667 -50.167 -50 -69.5
s-46.5 -34 -75.5 -44s-60.5 -15 -94.5 -15zM256 29.002c26.667 0 51.5 4.33203 74.5 12.999s42.667 21 59 37s29.166 35.167 38.499 57.5s14 47.5 14 75.5c0 26.667 -4.33301 48.667 -13 66s-20.334 31.333 -35.001 42s-30.667 18.334 -48 23.001s-34 7 -50 7
c-13.333 0 -27 -1.33301 -41 -4s-28 -6.66699 -42 -12s-27.333 -12.666 -40 -21.999s-23.667 -20.833 -33 -34.5s-16.666 -29.667 -21.999 -48s-8 -39.5 -8 -63.5c0 -20.667 3.33301 -39.334 10 -56.001s16.334 -31 29.001 -43s28 -21.333 46 -28s38.333 -10 61 -10z
M300 386.001c26.667 0 50.3359 4.6709 71.0029 14.0039s37.667 21.666 51 36.999s23.666 33.166 30.999 53.499c7.33301 21 11 42.167 11 63.5c0 17.333 -2.83301 33.666 -8.5 48.999s-13.834 28.666 -24.501 39.999s-23.834 20.333 -39.501 27s-34.167 10 -55.5 10
c-25.333 0 -48 -4.33301 -68 -13s-37 -20.5 -51 -35.5s-24.667 -32.667 -32 -53s-11 -41.833 -11 -64.5c0 -16.667 2.33301 -32.667 7 -48s12.167 -28.833 22.5 -40.5s23.5 -21.167 39.5 -28.5s35 -11 57 -11z" />
    <glyph glyph-name="nine" unicode="9" horiz-adv-x="580" 
d="M364 292c10.667 14 20.833 27.167 30.5 39.5c9 12.333 17.5 24.5 25.5 36.5c-20.667 -21.333 -44.167 -37.666 -70.5 -48.999s-53.833 -17 -82.5 -17c-24 0 -45.833 4 -65.5 12s-36.834 19.667 -51.501 35s-25.834 33.666 -33.501 54.999s-11.5 45.333 -11.5 72
c0 34.667 6.16699 66.334 18.5 95.001s29.166 53.834 50.499 75.501s46.333 38.667 75 51s59.334 18.5 92.001 18.5c26.667 0 50.5 -4.66699 71.5 -14s39 -22.333 54 -39s26.667 -36.667 35 -60s12.5 -49.333 12.5 -78c0 -22.667 -2.33301 -43.667 -7 -63
s-11.667 -38.333 -21 -57s-20.666 -37.834 -33.999 -57.501s-28.666 -40.834 -45.999 -63.501l-204 -273c-2.66699 -4 -6.16699 -6.83301 -10.5 -8.5c-3.66699 -1.66699 -8.16699 -2.5 -13.5 -2.5h-42zM469.999 526c0 22 -3.33203 42.334 -9.99902 61.001
s-15.834 34.5 -27.501 47.5s-25.667 23.333 -42 31s-34.5 11.5 -54.5 11.5c-26.667 0 -51 -4.83301 -73 -14.5s-41.333 -23.167 -58 -40.5s-29.667 -38 -39 -62s-14 -50.667 -14 -80c0 -22 3 -41.833 9 -59.5s14.833 -32.5 26.5 -44.5s25.667 -21.333 42 -28
s34.5 -10 54.5 -10c28 0 53.5 5.33301 76.5 16s42.5 25 58.5 43s28.5 38.167 37.5 60.5s13.5 45.166 13.5 68.499z" />
    <glyph glyph-name="colon" unicode=":" horiz-adv-x="236" 
d="M42 38c0 6.66699 1.16895 12.834 3.50195 18.501s5.66602 10.667 9.99902 15s9.16602 7.66602 14.499 9.99902s11.333 3.5 18 3.5s12.667 -1.16699 18 -3.5s10.166 -5.66602 14.499 -9.99902s7.66602 -9.33301 9.99902 -15s3.5 -11.834 3.5 -18.501
s-1.16699 -12.667 -3.5 -18s-5.66602 -10 -9.99902 -14s-9.16602 -7.33301 -14.499 -10s-11.333 -4 -18 -4c-13.333 0 -24.333 4.33301 -33 13s-13 19.667 -13 33zM86.002 436c0 6.66699 1.16895 12.834 3.50195 18.501s5.66602 10.667 9.99902 15
s9.16602 7.66602 14.499 9.99902s11.333 3.5 18 3.5s12.667 -1.16699 18 -3.5s10.166 -5.66602 14.499 -9.99902s7.66602 -9.33301 9.99902 -15s3.5 -11.834 3.5 -18.501s-1.16699 -12.667 -3.5 -18s-5.66602 -10 -9.99902 -14s-9.16602 -7.33301 -14.499 -10
s-11.333 -4 -18 -4c-13.333 0 -24.333 4.33301 -33 13s-13 19.667 -13 33z" />
    <glyph glyph-name="semicolon" unicode=";" horiz-adv-x="246" 
d="M50 42c0 12 3.99805 22.168 11.998 30.501s18.333 12.5 31 12.5c14.667 0 25.834 -4.83301 33.501 -14.5s11.5 -22.5 11.5 -38.5c0 -13.333 -1.66699 -27.333 -5 -42s-8.33301 -28.667 -15 -42s-14.667 -26.333 -24 -39s-20 -24.334 -32 -35.001l-8 7
c-1.33301 1.33301 -2.16602 2.83301 -2.49902 4.5s-0.5 3.16699 -0.5 4.5c0 2.66699 2.5 7 7.5 13s10.833 13.833 17.5 23.5s13 20.667 19 33s9.66699 25.833 11 40.5c-2 -0.666992 -4.16699 -1.16699 -6.5 -1.5s-4.83301 -0.5 -7.5 -0.5c-12 0 -22 4 -30 12
s-12 18.667 -12 32zM90.998 436.001c0 6.66699 1.16895 12.834 3.50195 18.501s5.66602 10.667 9.99902 15s9.16602 7.66602 14.499 9.99902s11.333 3.5 18 3.5s12.667 -1.16699 18 -3.5s10.166 -5.66602 14.499 -9.99902s7.66602 -9.33301 9.99902 -15
s3.5 -11.834 3.5 -18.501s-1.16699 -12.667 -3.5 -18s-5.66602 -10 -9.99902 -14s-9.16602 -7.33301 -14.499 -10s-11.333 -4 -18 -4c-13.333 0 -24.333 4.33301 -33 13s-13 19.667 -13 33z" />
    <glyph glyph-name="less" unicode="&#x3c;" horiz-adv-x="580" 
d="M92 341l1 5l399 192l-4 -32c0 -6.66699 -5.33301 -12.667 -16 -18l-294 -140c-11.333 -5.33301 -23.666 -9.33301 -36.999 -12c13.333 -2.66699 24.666 -7 33.999 -13l259 -141c8 -4 12 -9.66699 12 -17l-4 -33l-352 194z" />
    <glyph glyph-name="equal" unicode="=" horiz-adv-x="580" 
d="M78 278h414l-4 -36h-414zM98 434h412l-4 -36h-412z" />
    <glyph glyph-name="greater" unicode="&#x3e;" horiz-adv-x="580" 
d="M96 132l4 33c0.666992 4 2 7.33301 4 10c2 2 5.66699 4.33301 11 7l294 141c10.667 6 23 10.333 37 13c-12.667 2.66699 -24 6.66699 -34 12l-260 140c-8 4.66699 -11.333 10.667 -10 18l4 32l351 -192l-2 -16l-1 -4z" />
    <glyph glyph-name="question" unicode="?" horiz-adv-x="404" 
d="M84 645c9.33301 9.33301 19.666 18.166 30.999 26.499s23.833 15.833 37.5 22.5s28.167 12 43.5 16s31.666 6 48.999 6c20 0 38.667 -3.33301 56 -10s32.166 -15.667 44.499 -27s22.166 -25.166 29.499 -41.499c7.33301 -15.667 11 -33.5 11 -53.5
c0 -28 -4.16699 -51.833 -12.5 -71.5s-18.666 -36.834 -30.999 -51.501s-26.166 -27.5 -41.499 -38.5s-29.666 -21.5 -42.999 -31.5s-25 -20 -35 -30s-16.333 -21.667 -19 -35l-16 -82h-32l8 84c1.33301 14.667 6.66602 27.834 15.999 39.501s20.666 22.667 33.999 33
s27.333 20.833 42 31.5s28.334 22.667 41.001 36s23.334 28.666 32.001 45.999s13 38 13 62c0 16 -2.66699 30 -8 42s-12.666 22.5 -21.999 31.5s-20.5 15.833 -33.5 20.5s-26.833 7 -41.5 7c-20.667 0 -38.667 -2.83301 -54 -8.5s-28.333 -12.167 -39 -19.5
s-19.334 -13.833 -26.001 -19.5s-11.667 -8.5 -15 -8.5c-2 0 -3.66699 0.333008 -5 1s-2.66602 2.33398 -3.99902 5.00098zM114 38c0 6.66699 1.16895 12.834 3.50195 18.501s5.66602 10.667 9.99902 15s9.16602 7.66602 14.499 9.99902s11.333 3.5 18 3.5
s12.834 -1.16699 18.501 -3.5s10.667 -5.66602 15 -9.99902s7.66602 -9.33301 9.99902 -15s3.5 -11.834 3.5 -18.501c0 -13.333 -4.5 -24.333 -13.5 -33s-20.167 -13 -33.5 -13s-24.333 4.33301 -33 13s-13 19.667 -13 33z" />
    <glyph glyph-name="at" unicode="@" horiz-adv-x="764" 
d="M518 94c-26.667 0 -45.832 7.66797 -57.499 23.001s-16.167 37.666 -13.5 66.999c-21.333 -30.667 -43.5 -53 -66.5 -67s-47.167 -21 -72.5 -21c-14.667 0 -27.667 2.66699 -39 8s-20.5 12.666 -27.5 21.999s-12.333 20.333 -16 33s-5.5 26.334 -5.5 41.001
c0 20 2.83301 40.333 8.5 61s13.667 40.667 24 60s23 37.5 38 54.5s32 31.833 51 44.5s39.833 22.667 62.5 30s46.667 11 72 11c16 0 31.167 -1.5 45.5 -4.5c15 -3 27.833 -7.16699 38.5 -12.5l-64 -174c-10.667 -30.667 -17 -55.5 -19 -74.5s-1 -33.667 3 -44
s10.333 -17.333 19 -21s18.334 -5.5 29.001 -5.5c20 0 39.667 6.16699 59 18.5s36.333 29.666 51 51.999s26.667 49.333 36 81s14 67.5 14 107.5c0 41.333 -6.33301 77.666 -19 108.999s-30 57.333 -52 78s-48 36.167 -78 46.5s-62.333 15.5 -97 15.5
c-30.667 0 -60.667 -4.5 -90 -13.5s-57.333 -22.167 -84 -39.5s-51 -38 -73 -62s-41 -51.333 -57 -82s-28.667 -64.167 -38 -100.5s-14 -74.833 -14 -115.5c0 -49.333 7.16699 -93 21.5 -131s34.333 -70 60 -96s55.667 -45.667 90 -59s71.833 -20 112.5 -20
c45.333 0 87.5 5.66699 126.5 17c38.333 11.333 73.5 27.333 105.5 48c6 4 10.833 5 14.5 3c3.66699 -1.33301 5.83398 -4 6.50098 -8l3 -16c-37.333 -24.667 -77.333 -43.667 -120 -57s-89.334 -20 -140.001 -20c-46 0 -88.167 7.5 -126.5 22.5s-71.5 37 -99.5 66
s-49.833 64.333 -65.5 106s-23.5 88.834 -23.5 141.501c0 42.667 5 83.5 15 122.5s23.833 75.167 41.5 108.5s38.834 63.333 63.501 90s51.667 49.334 81 68.001s60.333 33.167 93 43.5s66.334 15.5 101.001 15.5c37.333 0 72.666 -6.16699 105.999 -18.5
s62.666 -30.333 87.999 -54s45.333 -53 60 -88s22 -75.167 22 -120.5c0 -42.667 -5.66699 -82 -17 -118s-26.333 -66.667 -45 -92s-40.334 -45 -65.001 -59s-50.334 -21 -77.001 -21zM321.002 128.001c10.667 0 22.166 2.00098 34.499 6.00098s24.5 11.333 36.5 22
s23.667 25 35 43s22.333 41 33 69l56 155c-7.33301 2.66699 -14.833 4.5 -22.5 5.5s-16.834 1.5 -27.501 1.5c-20 0 -38.833 -3 -56.5 -9s-34.167 -14.5 -49.5 -25.5s-29.166 -23.833 -41.499 -38.5s-23 -30.167 -32 -46.5s-16 -33.5 -21 -51.5s-7.5 -35.667 -7.5 -53
c0 -10.667 1.33301 -20.834 4 -30.501s6.66699 -18 12 -25s11.833 -12.5 19.5 -16.5s16.834 -6 27.501 -6z" />
    <glyph glyph-name="A" unicode="A" horiz-adv-x="608" 
d="M558 0h-37.999c-4.66699 0 -8.33398 1.33301 -11.001 4c-2 2.66699 -3.66699 5.66699 -5 9l-51 207h-317l-102 -207c-1.33301 -4 -3.83301 -7.16699 -7.5 -9.5c-4.33301 -2.33301 -8.5 -3.5 -12.5 -3.5h-38l354 708h49zM154.001 256h289.998l-88 360
c-1.33301 6 -2.66602 12.667 -3.99902 20s-2.66602 15 -3.99902 23c-3.33301 -8 -6.5 -15.667 -9.5 -23s-5.83301 -14 -8.5 -20z" />
    <glyph glyph-name="B" unicode="B" horiz-adv-x="588" 
d="M62 0l86.999 708.002h189c34 0 63.167 -3.66699 87.5 -11s44.833 -17.5 61.5 -30.5s28.834 -29 36.501 -48s11.5 -40.5 11.5 -64.5c0 -22.667 -3.66699 -44.334 -11 -65.001s-17.833 -39.334 -31.5 -56.001s-30.167 -31.167 -49.5 -43.5s-41 -21.5 -65 -27.5
c46 -8 81.167 -24.5 105.5 -49.5c24.333 -25.667 36.5 -58.5 36.5 -98.5c0 -32.667 -5.66699 -62.167 -17 -88.5s-27.5 -48.833 -48.5 -67.5s-46.667 -33 -77 -43s-64.833 -15 -103.5 -15h-212zM153.999 340.002l-38 -299.998h162c62 0 109.5 15 142.5 45
s49.5 72.667 49.5 128c0 19.333 -3.33301 36.666 -10 51.999s-16.667 28.666 -30 39.999s-29.5 20 -48.5 26s-40.833 9 -65.5 9h-162zM157.999 376.004h140.001c32 0 59.833 4.66699 83.5 14s43.167 22 58.5 38s26.666 34.167 33.999 54.5c7.33301 21 11 42.167 11 63.5
c0 40 -12.5 70.333 -37.5 91s-63.167 31 -114.5 31h-139z" />
    <glyph glyph-name="C" unicode="C" horiz-adv-x="629" 
d="M334 34c24 0 45.6641 2.1709 64.9971 6.50391s36.5 9.66602 51.5 15.999s28 13 39 20s20.167 13.667 27.5 20s13.333 11.5 18 15.5s8.33398 6 11.001 6s5 -1 7 -3l18 -21c-30.667 -30.667 -65.834 -55.334 -105.501 -74.001s-86.167 -28 -139.5 -28
c-40.667 0 -77.5 7.33301 -110.5 22s-61.167 35.5 -84.5 62.5s-41.166 59.333 -53.499 97s-18.5 79.5 -18.5 125.5c0 61.333 9.5 117.666 28.5 168.999s44.833 95.333 77.5 132s71.334 65.167 116.001 85.5s92.667 30.5 144 30.5c24 0 45.833 -2 65.5 -6
s37.5 -9.66699 53.5 -17s30.667 -16.5 44 -27.5s26.666 -23.5 39.999 -37.5l-16 -20c-4 -4 -8.66699 -6 -14 -6c-2.66699 0 -6 1.66699 -10 5s-8.83301 7.66602 -14.5 12.999s-12.667 11 -21 17s-18.666 11.667 -30.999 17s-26.666 9.66602 -42.999 12.999
s-35.166 5 -56.499 5c-44 0 -85 -8.66699 -123 -26s-71 -42 -99 -74s-50 -70.667 -66 -116s-24 -96.666 -24 -153.999c0 -41.333 5.5 -78.5 16.5 -111.5s26.333 -61 46 -84s43.167 -40.833 70.5 -53.5s57.666 -19 90.999 -19z" />
    <glyph glyph-name="D" unicode="D" horiz-adv-x="706" 
d="M659 408c0 -41.333 -4.16602 -80.333 -12.499 -117s-20 -70 -35 -100s-33.333 -57 -55 -81s-45.834 -44 -72.501 -60s-55.334 -28.333 -86.001 -37s-63.334 -13 -98.001 -13h-238l87 708h238c41.333 0 78.833 -7.16699 112.5 -21.5s62.334 -34.5 86.001 -60.5
s41.834 -57.5 54.501 -94.5s19 -78.167 19 -123.5zM608.001 406c0 40 -5.33301 76.335 -16 109.002s-25.667 60.167 -45 82.5s-43 39.5 -71 51.5s-59.333 18 -94 18h-188l-78 -627h188c44 0 84.667 8.33301 122 25s69.333 40.667 96 72s47.667 69.666 63 114.999
s23 96.666 23 153.999z" />
    <glyph glyph-name="E" unicode="E" horiz-adv-x="539" 
d="M534 666h-340l-36 -288h284l-6 -40h-282l-37 -297h342l-5 -41h-392l87 708h391z" />
    <glyph glyph-name="F" unicode="F" horiz-adv-x="529" 
d="M534 666h-340l-37 -299h295l-6 -41h-294l-40 -326h-50l87 708h391z" />
    <glyph glyph-name="G" unicode="G" horiz-adv-x="683" 
d="M344 32c22.667 0 43.001 1.33105 61.001 3.99805s35.333 6.5 52 11.5s32.334 11 47.001 18s29.667 15.167 45 24.5l24 192h-123c-4 0 -7 1 -9 3s-3 4.66699 -3 8l4 27h181l-31 -250c-17.333 -12 -35.333 -23 -54 -33s-38.5 -18.333 -59.5 -25s-43.167 -11.667 -66.5 -15
s-48.666 -5 -75.999 -5c-42.667 0 -81 7.33301 -115 22s-63 35.667 -87 63s-42.333 59.833 -55 97.5s-19 79.5 -19 125.5c0 62.667 9 119.5 27 170.5s43.667 94.667 77 131s72.666 64.5 117.999 84.5s95.333 30 150 30c25.333 0 48.666 -2 69.999 -6
s40.666 -9.66699 57.999 -17s33.166 -16.333 47.499 -27s27.833 -22.667 40.5 -36l-16 -20c-5.33301 -8 -12 -10 -20 -6c-4.66699 2 -11 6.83301 -19 14.5s-18.833 15.5 -32.5 23.5s-31.167 15 -52.5 21s-48 9 -80 9c-46.667 0 -89.5 -8.66699 -128.5 -26
s-72.667 -42 -101 -74s-50.166 -70.833 -65.499 -116.5c-15.333 -45 -23 -96.167 -23 -153.5c0 -41.333 5.5 -78.666 16.5 -111.999s26.667 -61.666 47 -84.999s44.833 -41.333 73.5 -54s61 -19 97 -19z" />
    <glyph glyph-name="H" unicode="H" horiz-adv-x="701" 
d="M566 0h-50l42 340h-404l-42 -340h-50l87 708h50l-41 -331h404l41 331h50z" />
    <glyph glyph-name="I" unicode="I" horiz-adv-x="247" 
d="M112 0h-50l86 708h50z" />
    <glyph glyph-name="J" unicode="J" horiz-adv-x="390" 
d="M288 220c-4.66699 -38.667 -12.999 -72.333 -24.999 -101s-27.167 -52.334 -45.5 -71.001s-39.5 -32.667 -63.5 -42s-50.667 -14 -80 -14c-18 0 -34.333 1.16699 -49 3.5c-14 1.66699 -28.333 5.16699 -43 10.5l3 28c0.666992 2.66699 2 5 4 7s5 3 9 3
c3.33301 0 7.16602 -0.5 11.499 -1.5s9.33301 -2.16699 15 -3.5s12.667 -2.5 21 -3.5s18.166 -1.5 29.499 -1.5c20 0 38.833 3 56.5 9s33.834 16.333 48.501 31s27 33.834 37 57.501c10 24.333 17.333 53.833 22 88.5l60 488h49z" />
    <glyph glyph-name="K" unicode="K" horiz-adv-x="590" 
d="M158 380l38.0029 0.000976562c5.33301 0 10.333 0.333008 15 1s9 1.66699 13 3s7.66699 3.16602 11 5.49902s6.66602 5.5 9.99902 9.5l296 294c5.33301 6 10.5 10 15.5 12s10.5 3 16.5 3h41l-322 -319c-6 -6.66699 -11.5 -11.834 -16.5 -15.501s-10.167 -6.5 -15.5 -8.5
c12 -4 21.667 -12.333 29 -25l255 -340h-40c-8.66699 0 -14.5 1 -17.5 3s-5.83301 5.33301 -8.5 10l-236 307c-2.66699 4 -5.16699 7.33301 -7.5 10s-5.33301 4.83398 -9 6.50098s-7.83398 3 -12.501 4s-10.334 1.5 -17.001 1.5h-42l-42 -342h-50l86 708h50z" />
    <glyph glyph-name="L" unicode="L" horiz-adv-x="466" 
d="M116 42h308l-5 -42h-357l87 708h49z" />
    <glyph glyph-name="M" unicode="M" horiz-adv-x="843" 
d="M403 200c1.33301 -4 2.49805 -8 3.49805 -12s2.16699 -7.66699 3.5 -11c4 7.33301 8 15 12 23l318 498c3.33301 4 6.33301 6.66699 9 8s6.33398 2 11.001 2h34l-86 -708h-44l74 604c0.666992 4 1.5 8.33301 2.5 13s1.83301 9 2.5 13l-315 -494
c-5.33301 -8 -12 -12 -20 -12h-8c-9.33301 0 -15.333 4 -18 12l-201 496c0.666992 -10 0.333984 -19 -0.999023 -27l-74 -605h-44l87 708h34c4.66699 0 8.16699 -0.666992 10.5 -2s4.83301 -4 7.5 -8l202 -498v0z" />
    <glyph glyph-name="N" unicode="N" horiz-adv-x="701" 
d="M174 708c4.66699 0 7.83203 -0.666016 9.49902 -1.99902s3.83398 -4 6.50098 -8l344 -616v13.5c0 4.33301 0.666992 8.16602 2 11.499l74 601h43l-87 -708h-23c-4 0 -7.5 1 -10.5 3s-5.83301 4.66699 -8.5 8l-343 616l-1 -23l-74 -604h-44l87 708h25v0z" />
    <glyph glyph-name="O" unicode="O" horiz-adv-x="736" 
d="M690 408c0 -62.667 -9.00195 -119.331 -27.002 -169.998s-43.167 -94.334 -75.5 -131.001s-70.5 -65 -114.5 -85s-91.667 -30 -143 -30c-41.333 0 -78.666 7.5 -111.999 22.5s-61.666 36 -84.999 63s-41.333 59.333 -54 97c-12.667 38.333 -19 80.166 -19 125.499
c0 62 9 118.5 27 169.5s43.167 94.833 75.5 131.5s70.333 65 114 85s91.167 30 142.5 30c41.333 0 78.833 -7.5 112.5 -22.5s62.167 -36 85.5 -63s41.333 -59.5 54 -97.5s19 -79.667 19 -125zM638.998 407.003c0 41.333 -5.1709 78.333 -15.5039 111s-25.5 60.5 -45.5 83.5
s-43.833 40.833 -71.5 53.5c-27 12.667 -57.833 19 -92.5 19c-43.333 0 -83.5 -8.66699 -120.5 -26s-69.167 -42.166 -96.5 -74.499s-48.666 -71.5 -63.999 -117.5s-23 -97.667 -23 -155c0 -41.333 5.33301 -78.333 16 -111s25.834 -60.5 45.501 -83.5
s43.334 -40.833 71.001 -53.5s58.834 -19 93.501 -19c44 0 84.333 8.66699 121 26s68.667 42.166 96 74.499s48.5 71.5 63.5 117.5s22.5 97.667 22.5 155z" />
    <glyph glyph-name="P" unicode="P" horiz-adv-x="539" 
d="M146 286l-34 -286h-50l86 708h170c69.333 0 121.333 -15.667 156 -47s52 -75 52 -131c0 -36 -6 -69 -18 -99s-29.333 -55.667 -52 -77s-50 -38 -82 -50s-68 -18 -108 -18h-120zM194 668l-42 -341.999h120c31.333 0 59.5 5 84.5 15s46.5 23.667 64.5 41
s31.667 38.333 41 63s14 51 14 79c0 45.333 -13.5 80.666 -40.5 105.999c-26.333 25.333 -66.833 38 -121.5 38h-120z" />
    <glyph glyph-name="Q" unicode="Q" horiz-adv-x="736" 
d="M690 408c0 -42.667 -4.33398 -83 -13.001 -121s-21 -72.667 -37 -104s-35.5 -59.166 -58.5 -83.499c-23.667 -25 -49.5 -45.5 -77.5 -61.5l146 -194h-39c-12.667 0 -22.334 4 -29.001 12l-120 162c-41.333 -17.333 -85.333 -26 -132 -26
c-41.333 0 -78.666 7.5 -111.999 22.5s-61.666 36 -84.999 63s-41.333 59.333 -54 97c-12.667 38.333 -19 80.166 -19 125.499c0 62 9 118.5 27 169.5s43.167 94.833 75.5 131.5s70.333 65 114 85s91.167 30 142.5 30c41.333 0 78.833 -7.5 112.5 -22.5s62.167 -36 85.5 -63
s41.333 -59.5 54 -97.5s19 -79.667 19 -125zM638.999 407c0 41.333 -5.1709 78.333 -15.5039 111s-25.5 60.5 -45.5 83.5s-43.833 40.833 -71.5 53.5c-27 12.667 -57.833 19 -92.5 19c-43.333 0 -83.5 -8.66699 -120.5 -26s-69.167 -42.166 -96.5 -74.499
s-48.666 -71.5 -63.999 -117.5s-23 -97.667 -23 -155c0 -41.333 5.33301 -78.333 16 -111s25.834 -60.5 45.501 -83.5s43.334 -40.833 71.001 -53.5s58.834 -19 93.501 -19c44 0 84.333 8.66699 121 26s68.667 42.166 96 74.499s48.5 71.5 63.5 117.5s22.5 97.667 22.5 155z
" />
    <glyph glyph-name="R" unicode="R" horiz-adv-x="564" 
d="M151 320l-39 -320.002h-50l86 708h168c68 0 119 -13.667 153 -41s51 -67 51 -119c0 -30.667 -5 -58.667 -15 -84s-24 -47.666 -42 -66.999s-40 -35 -66 -47s-54.667 -20 -86 -24c6 -5.33301 11.667 -11.666 17 -18.999l185 -307h-43c-5.33301 0 -9.66602 1 -12.999 3
s-6.33301 5 -9 9l-170 288c-4.66699 7.33301 -9.83398 12.5 -15.501 15.5s-14.5 4.5 -26.5 4.5h-85zM194 667.998l-38 -310h111c32 0 60.5 4.33301 85.5 13s46.333 21 64 37s31.167 35.333 40.5 58s14 47.667 14 75c0 42.667 -13.5 74.5 -40.5 95.5s-66.5 31.5 -118.5 31.5
h-118z" />
    <glyph glyph-name="S" unicode="S" horiz-adv-x="498" 
d="M455 622c-4 -5.33301 -8.33203 -8 -12.999 -8c-4 0 -8.83301 3 -14.5 9s-13.334 12.833 -23.001 20.5s-22.334 14.667 -38.001 21s-35.167 9.5 -58.5 9.5c-25.333 0 -48 -4 -68 -12s-36.833 -19.167 -50.5 -33.5s-24.167 -31 -31.5 -50s-11 -39.167 -11 -60.5
c0 -20 4.16699 -37 12.5 -51s19.166 -25.833 32.499 -35.5s28.666 -18 45.999 -25s35 -14 53 -21s35.667 -14.667 53 -23s32.666 -18.166 45.999 -29.499s24.333 -25.333 33 -42s13 -37.334 13 -62.001c0 -32 -5.66699 -62.5 -17 -91.5s-27.166 -54.167 -47.499 -75.5
s-45.166 -38.333 -74.499 -51c-30 -12.667 -63 -19 -99 -19c-42.667 0 -78.667 8.33301 -108 25s-54 39 -74 67l17 22c4.66699 4.66699 9.33398 7 14.001 7c2.66699 0 6 -2 10 -6l14.5 -14.5c5.66699 -5.66699 12.167 -12 19.5 -19s16.333 -13.333 27 -19s23 -10.5 37 -14.5
s30.333 -6 49 -6c28 0 53.333 4.66699 76 14s42 22.333 58 39s28.333 36.334 37 59.001s13 46.667 13 72c0 20.667 -4.16699 38 -12.5 52s-19.333 25.833 -33 35.5s-29 17.834 -46 24.501s-34.5 13.334 -52.5 20.001s-35.667 14 -53 22s-32.833 18 -46.5 30
s-24.5 26.5 -32.5 43.5c-8 16.333 -12 37.166 -12 62.499c0 26.667 4.83301 52.667 14.5 78s23.667 47.666 42 66.999s40.5 34.666 66.5 45.999s56 17 90 17s63.833 -6.33301 89.5 -19s47.834 -31 66.501 -55z" />
    <glyph glyph-name="T" unicode="T" horiz-adv-x="532" 
d="M568 708l-4 -42h-228l-82 -666h-50l82 666h-229l5 42h506z" />
    <glyph glyph-name="U" unicode="U" horiz-adv-x="676" 
d="M306 35c30.667 0 58.998 6 84.998 18s48.667 28.5 68 49.5s35.333 45.833 48 74.5s21 59.667 25 93l54 438h50l-54 -438c-5.33301 -38.667 -15.666 -75 -30.999 -109s-35.333 -63.667 -60 -89s-53 -45 -85 -59s-67.333 -21 -106 -21c-38 0 -71.333 7 -100 21
s-52.167 33.667 -70.5 59s-31.166 54.833 -38.499 88.5c-7.33301 34.333 -8.66602 70.833 -3.99902 109.5l53 438h50l-54 -438c-4 -33.333 -3.16699 -64.333 2.5 -93s15.667 -53.5 30 -74.5s33.166 -37.5 56.499 -49.5s50.333 -18 81 -18z" />
    <glyph glyph-name="V" unicode="V" horiz-adv-x="606" 
d="M62 708h40.002c4.66699 0 8.16699 -1.33301 10.5 -4s4.16602 -6 5.49902 -10l146 -590c1.33301 -6.66699 3 -14 5 -22s3.66699 -16.667 5 -26c2.66699 8.66699 5.66699 17.167 9 25.5s6.66602 15.833 9.99902 22.5l291 590c1.33301 4 4 7.33301 8 10s8 4 12 4h40
l-356 -708h-44z" />
    <glyph glyph-name="W" unicode="W" horiz-adv-x="938" 
d="M71 708l39 -0.000976562c10.667 0 16 -4.66699 16 -14l94 -588c0.666992 -6.66699 1.16699 -13.167 1.5 -19.5s0.833008 -13.166 1.5 -20.499c4.66699 14.667 9.66699 28 15 40l255 588c1.33301 4 3.83301 7.33301 7.5 10s7.5 4 11.5 4h12c8.66699 0 14 -4.66699 16 -14
l110 -588c1.33301 -6 2.33301 -12.333 3 -19s1.66699 -13.667 3 -21c2 7.33301 4 14.333 6 21c1.33301 6 3.33301 12.333 6 19l238 588c1.33301 4 4 7.33301 8 10s8.33301 4 13 4h38l-291 -708h-45l-116 616c-0.666992 4 -1.33398 8.16699 -2.00098 12.5s-1 8.83301 -1 13.5
c-1.33301 -4.66699 -2.83301 -9.16699 -4.5 -13.5c-2.33301 -4.33301 -4.16602 -8.5 -5.49902 -12.5l-267 -616h-44z" />
    <glyph glyph-name="X" unicode="X" horiz-adv-x="583" 
d="M268 378l-176 329.998h45c4.66699 0 8 -1 10 -3s4 -4.66699 6 -8l151 -293c2.66699 4 5 8 7 12l216 282c4 6.66699 9.33301 10 16 10h49l-256 -328l198 -380h-44c-4.66699 0 -8 1.33301 -10 4c-2.66699 2.66699 -4.66699 5.33398 -6 8.00098l-172 340
c-1.33301 -2 -2.5 -4.16699 -3.5 -6.5c-1.66699 -2.33301 -3.16699 -4.16602 -4.5 -5.49902l-250 -328c-5.33301 -8 -12 -12 -20 -12h-48z" />
    <glyph glyph-name="Y" unicode="Y" horiz-adv-x="551" 
d="M300 292l-36.001 -291.999h-50l36 292l-190 416h44c8.66699 0 14.334 -4.33301 17.001 -13l149 -334c2 -5.33301 3.83301 -10.833 5.5 -16.5s3.16699 -11.167 4.5 -16.5c2.66699 5.33301 5.5 10.666 8.5 15.999c2.33301 5.33301 5.5 11 9.5 17l232 334
c2.66699 4 5.5 7.16699 8.5 9.5s6.83301 3.5 11.5 3.5h42z" />
    <glyph glyph-name="Z" unicode="Z" horiz-adv-x="548" 
d="M564 708l-1.99902 -17c-0.666992 -2.66699 -1.66699 -5.16699 -3 -7.5c-0.666992 -2.33301 -2.33398 -4.83301 -5.00098 -7.5l-488 -635h412l-5 -41h-479l2 16c0.666992 2.66699 1.5 5.16699 2.5 7.5s2.5 4.83301 4.5 7.5l488 635h-403l5 42h471z" />
    <glyph glyph-name="bracketleft" unicode="[" horiz-adv-x="279" 
d="M45 -132l108.999 890h147l-1 -18c-0.666992 -4 -2.5 -7.16699 -5.5 -9.5s-6.5 -3.5 -10.5 -3.5h-94l-102 -827h94c4 0 7.33301 -1.33301 10 -4s3.33398 -6 2.00098 -10l-2 -18h-147z" />
    <glyph glyph-name="backslash" unicode="\" horiz-adv-x="400" 
d="M88 722h19c13.333 0 21.333 -6 24 -18l192 -746h-19c-5.33301 0 -10.333 1.5 -15 4.5c-4.66699 2.33301 -8 6.83301 -10 13.5z" />
    <glyph glyph-name="bracketright" unicode="]" horiz-adv-x="281" 
d="M-16 -114c0.666992 4 2.49902 7.33301 5.49902 10s6.5 4 10.5 4h94l102 827h-94c-4.66699 0 -8.16699 1.16699 -10.5 3.5s-3.16602 5.5 -2.49902 9.5l2 18h148l-109 -890h-148z" />
    <glyph glyph-name="asciicircum" unicode="^" horiz-adv-x="580" 
d="M502 400l-34.001 0.000976562c-4 0 -7.33301 1 -10 3s-4.66699 5 -6 9l-121 218c-6 10.667 -10.667 20.667 -14 30c-1.33301 -5.33301 -3.16602 -10.333 -5.49902 -15l-7.5 -15l-120 -218c-1.33301 -2.66699 -3.33301 -5.33398 -6 -8.00098s-6.66699 -4 -12 -4h-34
l170 308h30z" />
    <glyph glyph-name="underscore" unicode="_" horiz-adv-x="443" 
d="M354 -104l-5 -32h-362l3 32h364z" />
    <glyph glyph-name="grave" unicode="`" 
d="M212 716c7.33301 0 12.8311 -1.33203 16.498 -3.99902s6.83398 -6.66699 9.50098 -12l58 -120h-25c-4 0 -7.16699 0.666992 -9.5 2s-4.16602 3.66602 -5.49902 6.99902l-86 127h42z" />
    <glyph glyph-name="a" unicode="a" horiz-adv-x="498" 
d="M386 0l-22.002 -0.00292969c-6.66699 0 -11.334 1.83301 -14.001 5.5s-4 7.83398 -4 12.501l18 155c-12.667 -26.667 -26.667 -51.167 -42 -73.5s-31.666 -41.166 -48.999 -56.499s-35.5 -27.333 -54.5 -36s-38.5 -13 -58.5 -13c-20.667 0 -39 4 -55 12
s-29.167 19.5 -39.5 34.5s-18.166 33.167 -23.499 54.5s-8 45.333 -8 72c0 29.333 3.66699 57.833 11 85.5s17.666 54 30.999 79s29.333 48 48 69s39.334 39.167 62.001 54.5s46.834 27.333 72.501 36s52.167 13 79.5 13c20 0 38.667 -1.66699 56 -5
s34.333 -9.66602 51 -18.999zM174.998 32.9971c18.667 0 37.166 5.33301 55.499 16s36 25.667 53 45s32.833 42.5 47.5 69.5c14 27 27 57.167 39 90.5l26 204c-20 6.66699 -41.333 10 -64 10c-33.333 0 -65 -8 -95 -24s-56.667 -37.667 -80 -65
s-41.666 -58.666 -54.999 -93.999s-20 -72.333 -20 -111c0 -44.667 7.5 -79.334 22.5 -104.001s38.5 -37 70.5 -37z" />
    <glyph glyph-name="b" unicode="b" horiz-adv-x="515" 
d="M40 0l87.999 727.999h47l-49 -398c13.333 26.667 28 50.667 44 72s32.833 39.666 50.5 54.999s36.334 27.166 56.001 35.499s39.5 12.5 59.5 12.5c21.333 0 40.166 -4.16699 56.499 -12.5s30 -20.166 41 -35.499s19.333 -33.666 25 -54.999s8.5 -45.333 8.5 -72
c0 -25.333 -2.66699 -51.333 -8 -78s-12.833 -52.5 -22.5 -77.5s-21.667 -48.5 -36 -70.5s-30.5 -41.167 -48.5 -57.5s-37.833 -29.166 -59.5 -38.499s-44.5 -14 -68.5 -14c-28 0 -53.667 6.33301 -77 19s-42 31.667 -56 57l-9 -54
c-1.33301 -5.33301 -3.16602 -9.33301 -5.49902 -12s-6.5 -4 -12.5 -4h-24zM319.999 465.999c-18.667 0 -37.666 -5.33887 -56.999 -16.0059s-38 -25.667 -56 -45s-34.667 -42.666 -50 -69.999s-29 -57.666 -41 -90.999l-18 -142c6.66699 -13.333 14.667 -24.333 24 -33
s19.333 -16 30 -22s21.667 -10.167 33 -12.5s22.666 -3.5 33.999 -3.5c21.333 0 41 4.16699 59 12.5s34.5 19.833 49.5 34.5s28.167 31.834 39.5 51.501s21 40.334 29 62.001s14 43.834 18 66.501s6 45 6 67c0 44.667 -8.5 79.334 -25.5 104.001s-41.833 37 -74.5 37z" />
    <glyph glyph-name="c" unicode="c" horiz-adv-x="455" 
d="M400 91c-17.333 -20 -34 -36.1719 -50 -48.5049s-31.5 -22.166 -46.5 -29.499s-30.333 -12.333 -46 -15s-32.167 -4 -49.5 -4c-28.667 0 -53.667 4.83301 -75 14.5s-39 23.334 -53 41.001s-24.5 38.667 -31.5 63s-10.5 50.833 -10.5 79.5
c0 26.667 2.66699 52.834 8 78.501s13.333 50.167 24 73.5s23.334 44.833 38.001 64.5s31 36.667 49 51s37.833 25.666 59.5 33.999c22.333 8.33301 45.5 12.5 69.5 12.5c16 0 30.667 -1.66699 44 -5s25.333 -8 36 -14s20.667 -13 30 -21s17.666 -17.333 24.999 -28l-14 -16
c-3.33301 -4 -7 -6 -11 -6c-3.33301 0 -7.33301 2.66699 -12 8s-11.167 11 -19.5 17s-18.833 11.667 -31.5 17s-29 8 -49 8c-28 0 -54 -7.33301 -78 -22s-45 -34.667 -63 -60s-32 -54.666 -42 -87.999s-15 -68 -15 -104c0 -22.667 2.5 -44 7.5 -64s13 -37 24 -51
s24.5 -25 40.5 -33s35.333 -12 58 -12c17.333 0 33 1.83301 47 5.5s26.5 8.33398 37.5 14.001s20.667 11.834 29 18.501s15.5 13 21.5 19s11.333 10.833 16 14.5s9 5.5 13 5.5s7.33301 -1.66699 10 -5l10 -13v0z" />
    <glyph glyph-name="d" unicode="d" horiz-adv-x="516" 
d="M380 0c-6.66699 0 -11.333 1.83203 -14 5.49902s-4 7.83398 -4 12.501l17 156c-13.333 -26.667 -28 -51.167 -44 -73.5s-33 -41.333 -51 -57s-36.833 -27.834 -56.5 -36.501s-39.5 -13 -59.5 -13c-21.333 0 -40.333 4 -57 12s-30.5 19.667 -41.5 35s-19.333 34 -25 56
s-8.5 46.333 -8.5 73c0 25.333 2.66699 51.333 8 78s13 52.334 23 77.001s22 48 36 70s30 41 48 57s37.667 28.833 59 38.5s44 14.5 68 14.5c26.667 0 51.5 -5.83301 74.5 -17.5s41.833 -29.5 56.5 -53.5l37 294h46l-90 -728h-22zM183.001 31.999
c18.667 0 37.502 5.33496 56.502 16.002s37.5 25.667 55.5 45s34.667 42.5 50 69.5c15.333 26.333 29 56.166 41 89.499l18 144c-14.667 26 -32.667 44.5 -54 55.5s-43.333 16.5 -66 16.5c-21.333 0 -41 -4.33301 -59 -13s-34.333 -20.334 -49 -35.001
s-27.834 -31.667 -39.501 -51s-21.334 -39.833 -29.001 -61.5s-13.667 -44 -18 -67s-6.5 -45.167 -6.5 -66.5c0 -44.667 8.5 -79.5 25.5 -104.5s41.833 -37.5 74.5 -37.5z" />
    <glyph glyph-name="e" unicode="e" horiz-adv-x="468" 
d="M422 402c0 -13.333 -1.99707 -26.1689 -5.99707 -38.502s-10.667 -24 -20 -35s-22 -21.5 -38 -31.5s-36.333 -19 -61 -27s-54.334 -15.333 -89.001 -22s-75.334 -12.334 -122.001 -17.001c-0.666992 -6.66699 -1.16699 -13.5 -1.5 -20.5s-0.5 -13.833 -0.5 -20.5
c0 -49.333 11.167 -88 33.5 -116s56.166 -42 101.499 -42c17.333 0 33.166 1.83301 47.499 5.5s27.166 8.5 38.499 14.5s21.166 12.333 29.499 19s15.833 13 22.5 19s12.5 10.833 17.5 14.5s9.5 5.5 13.5 5.5s7.33301 -1.33301 10 -4l11 -14
c-16 -17.333 -31.833 -32.166 -47.5 -44.499s-31.5 -22.5 -47.5 -30.5s-32.333 -13.833 -49 -17.5s-35 -5.5 -55 -5.5c-28 0 -52.667 4.5 -74 13.5s-39.333 22 -54 39s-25.667 37.5 -33 61.5s-11 51 -11 81c0 25.333 2.33301 50.5 7 75.5s12 49.167 22 72.5
s22.333 45.333 37 66s31.334 38.334 50.001 53.001s39.334 26.334 62.001 35.001s47 13 73 13c24 0 44.5 -3.33301 61.5 -10s30.833 -15 41.5 -25s18.334 -21 23.001 -33s7 -23.333 7 -34zM286.003 469.997c-26.667 0 -50.665 -5.66895 -71.998 -17.002
s-40.333 -26.5 -57 -45.5s-30.5 -41 -41.5 -66s-19.167 -50.833 -24.5 -77.5c42.667 4.66699 79.167 10.167 109.5 16.5s56.166 12.833 77.499 19.5s38.666 14 51.999 22s23.666 16.333 30.999 25s12.333 17.334 15 26.001s4 18 4 28c0 6.66699 -1.66699 14.167 -5 22.5
s-8.66602 15.833 -15.999 22.5s-17 12.334 -29 17.001s-26.667 7 -44 7z" />
    <glyph glyph-name="f" unicode="f" horiz-adv-x="308" 
d="M166 447l-53.999 -437l-20 -114c-4 -13.333 -12.333 -20.333 -25 -21h-17l70 571l-63 4c-4 0.666992 -7 2.16699 -9 4.5c-1.33301 2.33301 -2 5.5 -2 9.5l2 18h76l8 63c4 28 10.667 52.833 20 74.5s21.333 39.667 36 54s31 25 49 32s37.667 10.5 59 10.5
c9.33301 0 18.666 -0.833008 27.999 -2.5s17.666 -4.16699 24.999 -7.5l-5 -24c-0.666992 -2.66699 -2.16699 -4.33398 -4.5 -5.00098s-5.5 -0.666992 -9.5 0s-8.66699 1.33398 -14 2.00098s-11.333 1 -18 1c-15.333 0 -29.666 -2.33301 -42.999 -7s-25.333 -12.5 -36 -23.5
s-19.667 -25.167 -27 -42.5c-8 -16.667 -13.333 -37.667 -16 -63l-8 -62h141l-5 -35h-138z" />
    <glyph glyph-name="g" unicode="g" horiz-adv-x="462" 
d="M388 368c0 -18.667 -2.33008 -35.332 -6.99707 -49.999s-10.334 -28.334 -17.001 -41.001s-14 -24.334 -22 -35.001s-15.333 -21.334 -22 -32.001s-12.167 -21.334 -16.5 -32.001s-6.5 -22 -6.5 -34c0 -9.33301 1.83301 -18 5.5 -26s8.5 -16 14.5 -24s12.5 -16 19.5 -24
s13.5 -16.667 19.5 -26s10.833 -19.333 14.5 -30s5.5 -23 5.5 -37c0 -21.333 -5.33301 -41.666 -16 -60.999s-25.667 -36.5 -45 -51.5s-42.5 -27 -69.5 -36s-57.167 -13.5 -90.5 -13.5c-26.667 0 -50.834 2.66699 -72.501 8s-40.5 13.166 -56.5 23.499
s-28.333 22.833 -37 37.5s-13 31.334 -13 50.001c0 28 8.66699 52.333 26 73s40 37 68 49s60.333 20 97 24s75 3.33301 115 -2c-5.33301 8 -10.166 16.333 -14.499 25c-3.66699 8.66699 -5.5 18.334 -5.5 29.001c0 12 2 23.833 6 35.5s11.333 25.834 22 42.501
c-13.333 -9.33301 -27.666 -16.333 -42.999 -21s-31.666 -7 -48.999 -7c-18.667 0 -36.334 3 -53.001 9s-30.834 14.833 -42.501 26.5s-20.834 26 -27.501 43s-10 36.833 -10 59.5s4.16699 45.334 12.5 68.001s20.166 42.667 35.499 60s34.333 31.166 57 41.499
s48.667 15.5 78 15.5c34.667 0 63.667 -8.33301 87 -25h130l-1 -16c-0.666992 -3.33301 -2.16699 -6.16602 -4.5 -8.49902s-5.5 -4.16602 -9.5 -5.49902l-82 -6c6 -10.667 10.833 -22.334 14.5 -35.001s5.5 -26.334 5.5 -41.001zM333.003 -25.998
c0 16 -2.49805 29.8359 -7.49805 41.5029c-5 12.333 -11.5 23.166 -19.5 32.499v-2c-48 6.66699 -89.667 8.5 -125 5.5s-64.833 -9.83301 -88.5 -20.5s-41.334 -24.167 -53.001 -40.5s-17.5 -33.833 -17.5 -52.5c0 -14.667 3.16699 -27.334 9.5 -38.001
s15.5 -19.834 27.5 -27.501s26.5 -13.5 43.5 -17.5s35.833 -6 56.5 -6c26.667 0 50.5 3.5 71.5 10.5s39.167 16.333 54.5 28s27.166 25 35.499 40s12.5 30.5 12.5 46.5zM209.005 212.005c21.333 0 40.5 4.66699 57.5 14s31.167 21.166 42.5 35.499s20 30.666 26 48.999
s9 36.833 9 55.5c0 34.667 -9.16699 60.834 -27.5 78.501s-42.833 26.5 -73.5 26.5c-21.333 0 -40.5 -4.16699 -57.5 -12.5s-31.167 -19.5 -42.5 -33.5s-20 -30.167 -26 -48.5c-6 -19 -9 -37.833 -9 -56.5c0 -35.333 9.16699 -62.166 27.5 -80.499s42.833 -27.5 73.5 -27.5z
" />
    <glyph glyph-name="h" unicode="h" horiz-adv-x="515" 
d="M40 0l88.002 728h48l-46 -380c13.333 25.333 28 47.666 44 66.999s33 35.666 51 48.999s36.333 23.5 55 30.5s37.334 10.5 56.001 10.5c21.333 0 39.666 -4.16699 54.999 -12.5s27.666 -20.5 36.999 -36.5s15.333 -35.667 18 -59s2 -49.666 -2 -78.999l-37 -318h-47
l38 318c5.33301 47.333 2 83.833 -10 109.5s-34.667 38.5 -68 38.5c-18 0 -36.167 -4.66699 -54.5 -14s-36.333 -22.666 -54 -39.999s-34.334 -38 -50.001 -62s-29.5 -51.333 -41.5 -82l-32 -268h-48z" />
    <glyph glyph-name="i" unicode="i" horiz-adv-x="211" 
d="M153 498l-61 -498h-46l60 498h47zM190 669c0 -6 -1.33398 -11.667 -4.00098 -17s-6 -10 -10 -14s-8.66699 -7 -14 -9s-10.666 -3 -15.999 -3s-10.5 1 -15.5 3s-9.33301 5 -13 9s-6.66699 8.66699 -9 14s-3.5 11 -3.5 17s1.16699 11.667 3.5 17s5.5 10 9.5 14
s8.33301 7.33301 13 10s10 4 16 4c5.33301 0 10.5 -1.33301 15.5 -4s9.5 -6 13.5 -10s7.33301 -8.66699 10 -14s4 -11 4 -17z" />
    <glyph glyph-name="j" unicode="j" horiz-adv-x="211" 
d="M153 498l-69.001 -562c-2 -17.333 -6.33301 -33.333 -13 -48s-15.167 -27.334 -25.5 -38.001s-22.833 -19 -37.5 -25s-30.667 -9 -48 -9c-9.33301 0 -17.666 0.666992 -24.999 2s-14.333 4 -21 8l6 24c1.33301 2.66699 2.66602 4.33398 3.99902 5.00098
s3.33301 0.666992 6 0s6 -1.33398 10 -2.00098s8.66699 -1 14 -1c24.667 0 43.834 7.33301 57.501 22s22.5 35.334 26.5 62.001l68 562h47zM189.999 669c0 -6 -1.16797 -11.667 -3.50098 -17s-5.5 -10 -9.5 -14s-8.5 -7 -13.5 -9s-10.167 -3 -15.5 -3s-10.666 1 -15.999 3
s-10 5 -14 9s-7 8.66699 -9 14s-3 11 -3 17s1 11.667 3 17s5 10 9 14s8.5 7.33301 13.5 10c5.66699 2.66699 11.167 4 16.5 4s10.5 -1.33301 15.5 -4s9.5 -6 13.5 -10s7.16699 -8.66699 9.5 -14s3.5 -11 3.5 -17z" />
    <glyph glyph-name="k" unicode="k" horiz-adv-x="442" 
d="M176 728l-55.001 -443.999h19c5.33301 0 10 0.666992 14 2s8.33301 4.66602 13 9.99902l206 189c4 4 7.83301 7.16699 11.5 9.5s8.5 3.5 14.5 3.5h41l-228 -209c-4 -4 -7.33301 -7.16699 -10 -9.5s-6 -4.83301 -10 -7.5c4 -2.66699 7.66699 -5.66699 11 -9
s6.33301 -7.33301 9 -12l182 -251h-40c-4.66699 0 -8.5 0.666992 -11.5 2s-5.83301 4.66602 -8.5 9.99902l-166 224c-4 6.66699 -8.16699 10.834 -12.5 12.501s-11.166 2.5 -20.499 2.5h-18l-31 -251h-46l89 728h47z" />
    <glyph glyph-name="l" unicode="l" horiz-adv-x="209" 
d="M45 0l88 728h47l-89 -728h-46z" />
    <glyph glyph-name="m" unicode="m" horiz-adv-x="780" 
d="M40 0l60.0039 499.003h22c12 0 18 -6 18 -18l-14 -139c26 52 55.833 92.167 89.5 120.5s69.5 42.5 107.5 42.5c19.333 0 35.333 -3.5 48 -10.5s22.5 -17.167 29.5 -30.5s11.5 -30 13.5 -50s2 -42.667 0 -68c13.333 26.667 27.666 50 42.999 70s31.666 36.667 48.999 50
s35 23.166 53 29.499s35.667 9.5 53 9.5c21.333 0 39.166 -4.16699 53.499 -12.5s25.333 -20.5 33 -36.5s12.167 -35.667 13.5 -59s0.333008 -49.666 -3 -78.999l-37 -318h-47l37 318c2.66699 24 4 45 4 63s-2.5 33.333 -7.5 46s-12.333 22.167 -22 28.5
s-22.834 9.5 -39.501 9.5c-16 0 -32.5 -3.83301 -49.5 -11.5s-33.5 -18.834 -49.5 -33.501s-31.333 -33.334 -46 -56.001s-28 -49.334 -40 -80.001l-33 -284h-47l38 318c2.66699 24 4 45 4 63s-2 33.333 -6 46s-10.833 22.167 -20.5 28.5
c-10.333 6.33301 -23.5 9.5 -39.5 9.5c-38 0 -73 -17.333 -105 -52c-32.667 -34.667 -61 -83.667 -85 -147l-31 -266h-47z" />
    <glyph glyph-name="n" unicode="n" horiz-adv-x="516" 
d="M41 0l59.001 498.999h22c12 0 18 -6 18 -18l-15 -143c13.333 26.667 28.333 50.334 45 71.001s34.167 38 52.5 52s37.166 24.833 56.499 32.5s39 11.5 59 11.5c21.333 0 39.5 -4.16699 54.5 -12.5s27 -20.5 36 -36.5s15 -35.667 18 -59
c3.66699 -23.333 3.5 -49.666 -0.5 -78.999l-38 -318h-47l37 318c5.33301 47.333 2.16602 83.666 -9.50098 108.999c-11 25.333 -33.167 38 -66.5 38c-18.667 0 -37.667 -4.83301 -57 -14.5s-37.666 -23.167 -54.999 -40.5s-34 -38.333 -50 -63s-30 -52.667 -42 -84
l-30 -263h-47z" />
    <glyph glyph-name="o" unicode="o" horiz-adv-x="513" 
d="M220 31c29.333 0 56 7.50195 80 22.502s44.333 35.167 61 60.5s29.667 54.333 39 87s14 66 14 100c0 53.333 -11.833 94.333 -35.5 123s-56.5 43 -98.5 43c-29.333 0 -55.833 -7.5 -79.5 -22.5s-44 -34.833 -61 -59.5s-30.167 -53.334 -39.5 -86.001
s-14 -66.334 -14 -101.001c0 -53.333 11.667 -94.5 35 -123.5s56.333 -43.5 99 -43.5zM216 -5.99805c-26.667 0 -50.832 4.66992 -72.499 14.0029s-40.334 22.666 -56.001 39.999s-27.667 38.666 -36 63.999s-12.5 54 -12.5 86c0 40 6 78.667 18 116s28.833 70 50.5 98
s47.5 50.5 77.5 67.5s63 25.5 99 25.5c26.667 0 51 -4.66699 73 -14s40.667 -22.833 56 -40.5s27.333 -39.167 36 -64.5s13 -53.333 13 -84c0 -40 -6 -78.667 -18 -116s-29 -70.333 -51 -99s-48 -51.334 -78 -68.001s-63 -25 -99 -25z" />
    <glyph glyph-name="p" unicode="p" horiz-adv-x="516" 
d="M19 -176l81.999 674.994h21c12 0 18 -6 18 -18l-16 -157c13.333 26.667 28 51.334 44 74.001s33 41.834 51 57.501s37 27.834 57 36.501s40 13 60 13c21.333 0 40.333 -4.16699 57 -12.5s30.334 -20.166 41.001 -35.499s19 -33.666 25 -54.999s9 -45.333 9 -72
c0 -25.333 -2.66699 -51.333 -8 -78s-13 -52.5 -23 -77.5s-22 -48.5 -36 -70.5s-30 -41.167 -48 -57.5s-37.833 -29.166 -59.5 -38.499s-44.5 -14 -68.5 -14c-26.667 0 -51.5 6 -74.5 18s-41.833 29.333 -56.5 52l-29 -240h-46zM319.999 465.994
c-18.667 0 -37.668 -5.17188 -57.001 -15.5049s-37.666 -25.166 -54.999 -44.499s-34 -42.5 -50 -69.5s-30 -57.167 -42 -90.5l-17 -144c14.667 -26.667 32.667 -45.167 54 -55.5c22 -10.333 44.333 -15.5 67 -15.5c21.333 0 41 4.16699 59 12.5s34.333 19.833 49 34.5
s27.667 31.834 39 51.501s21 40.334 29 62.001s14 43.834 18 66.501s6 45 6 67c0 44.667 -8.5 79.334 -25.5 104.001s-41.833 37 -74.5 37z" />
    <glyph glyph-name="q" unicode="q" horiz-adv-x="499" 
d="M365 -176l-26.999 -0.000976562c-8 0 -13.333 2.33301 -16 7s-3.33398 11 -2.00098 19l40 314c-12.667 -25.333 -26.5 -48.5 -41.5 -69.5s-30.833 -39 -47.5 -54s-34.334 -26.5 -53.001 -34.5s-38 -12 -58 -12c-21.333 0 -39.666 4 -54.999 12s-28.333 19.5 -39 34.5
s-18.667 33.167 -24 54.5s-8 45.333 -8 72c0 29.333 3.66699 57.833 11 85.5s17.666 54 30.999 79s29.333 48 48 69s39.334 39.167 62.001 54.5s46.834 27.333 72.501 36s52.167 13 79.5 13c20 0 38.667 -1.66699 56 -5s34.666 -9.66602 51.999 -18.999zM394.001 247.999
c-9.33301 -29.333 -20.667 -57.333 -34 -84l10 90l26 204c-20 6.66699 -41.333 10 -64 10s-44.334 -3.66699 -65.001 -11s-40.334 -17.666 -59.001 -30.999s-35.667 -29.166 -51 -47.499s-28.666 -38.333 -39.999 -60s-20 -44.834 -26 -69.501s-9 -49.667 -9 -75
c0 -44.667 7.5 -79.334 22.5 -104.001c15.667 -24.667 39.5 -37 71.5 -37c20 0 39.5 5.83301 58.5 17.5s37.333 28.167 55 49.5s33.834 47 48.501 77s28 63 40 99z" />
    <glyph glyph-name="r" unicode="r" horiz-adv-x="328" 
d="M40 0l60.002 499.001h22c12 0 18 -6 18 -18l-15 -148c13.333 32.667 28.166 61 44.499 85s33.5 43 51.5 57s37 22.667 57 26s40 1 60 -7l-8 -44c-22.667 8.66699 -44.334 10.667 -65.001 6s-40 -15.5 -58 -32.5s-34.5 -39.833 -49.5 -68.5s-28.5 -62.334 -40.5 -101.001
l-30 -254h-47z" />
    <glyph glyph-name="s" unicode="s" horiz-adv-x="393" 
d="M348 436c-2.66699 -4 -6.00098 -6.00098 -10.001 -6.00098c-3.33301 0 -7.5 2 -12.5 6s-11.5 8.66699 -19.5 14s-18.333 10 -31 14s-28 6 -46 6c-17.333 0 -33.5 -2.83301 -48.5 -8.5s-28.167 -13.334 -39.5 -23.001s-20.166 -20.667 -26.499 -33s-9.5 -25.5 -9.5 -39.5
c0 -13.333 3.16699 -24.666 9.5 -33.999s14.833 -17.5 25.5 -24.5s22.5 -13 35.5 -18s26.5 -10 40.5 -15s27.5 -10.667 40.5 -17s24.833 -13.833 35.5 -22.5s19.167 -19.167 25.5 -31.5c6.33301 -13 9.5 -28.167 9.5 -45.5c0 -21.333 -4.16699 -42 -12.5 -62
s-20.5 -37.667 -36.5 -53s-35 -27.666 -57 -36.999s-47 -14 -75 -14c-32 0 -58.833 5.66699 -80.5 17c-21 11.333 -39.5 25.666 -55.5 42.999l12 18c4 5.33301 8.33301 8 13 8c3.33301 0 7.5 -2.66699 12.5 -8s11.833 -11.333 20.5 -18s19.834 -12.667 33.501 -18
s30.834 -8 51.501 -8c20 0 38.167 3.33301 54.5 10s30.166 15.667 41.499 27s20.166 24.333 26.499 39s9.5 30.334 9.5 47.001c0 14.667 -3.16699 27 -9.5 37s-14.833 18.5 -25.5 25.5s-22.5 13.167 -35.5 18.5s-26.5 10.333 -40.5 15s-27.5 10 -40.5 16
s-24.833 13 -35.5 21s-19.167 18 -25.5 30s-9.5 26.667 -9.5 44c0 19.333 4.16699 38 12.5 56s20 33.833 35 47.5s33 24.667 54 33s43.5 12.5 67.5 12.5c28 0 52.333 -4.33301 73 -13s39 -21.667 55 -39z" />
    <glyph glyph-name="t" unicode="t" horiz-adv-x="341" 
d="M76 84c0 2 0.168945 4.5 0.501953 7.5s0.666016 7.5 0.999023 13.5s1.16602 13.667 2.49902 23s2.66602 21.333 3.99902 36l34 282h-65c-3.33301 0 -6 1 -8 3s-2.66699 5 -2 9l3 18l78 6l33 178c0.666992 2.66699 2.16699 5.33398 4.5 8.00098s5.16602 4 8.49902 4h23
l-23 -190h144l-4 -36h-144l-35 -280c-1.33301 -13.333 -2.66602 -24.5 -3.99902 -33.5s-2.16602 -16.333 -2.49902 -22s-0.666016 -9.83398 -0.999023 -12.501s-0.5 -4.66699 -0.5 -6c0 -21.333 5.16699 -36.833 15.5 -46.5s23.5 -14.5 39.5 -14.5
c10.667 0 20.334 1.83301 29.001 5.5s16 7.5 22 11.5s11 7.66699 15 11s7.33301 5 10 5c3.33301 0 5.66602 -1.33301 6.99902 -4l9 -22c-13.333 -14 -29.5 -25.167 -48.5 -33.5c-19.667 -8.33301 -38.834 -12.5 -57.501 -12.5c-27.333 0 -48.833 7.66699 -64.5 23
s-23.5 38.333 -23.5 69z" />
    <glyph glyph-name="u" unicode="u" horiz-adv-x="516" 
d="M142 498l-37.0029 -316.998c-5.33301 -48 -2.16602 -84.667 9.50098 -110s34.167 -38 67.5 -38c18.667 0 37.334 4.66699 56.001 14s36.667 22.833 54 40.5s34 38.667 50 63s30 51.833 42 82.5l32 265h46l-60 -498h-22c-6.66699 0 -11.334 1.66699 -14.001 5
s-4 7.66602 -4 12.999l16 142c-13.333 -26.667 -28.333 -50.334 -45 -71.001s-34.167 -38 -52.5 -52s-37.166 -24.667 -56.499 -32s-38.666 -11 -57.999 -11c-42.667 0 -73.167 16.333 -91.5 49s-23.833 78.667 -16.5 138l38 317h46z" />
    <glyph glyph-name="v" unicode="v" horiz-adv-x="463" 
d="M42 498l36.999 0.000976562c4.66699 0 8.33398 -1.33301 11.001 -4s4 -5.33398 4 -8.00098l102 -393c1.33301 -8 2.33301 -15.5 3 -22.5s1.66699 -14.5 3 -22.5c4 14 9.33301 29 16 45l199 393c1.33301 4 3.5 7 6.5 9s6.5 3 10.5 3h36l-255 -498h-39z" />
    <glyph glyph-name="w" unicode="w" horiz-adv-x="705" 
d="M48 498l32.999 0.00195312c8.66699 0 13.667 -4 15 -12l67 -393c1.33301 -14.667 2.33301 -28.667 3 -42c5.33301 13.333 10.666 27.333 15.999 42l172 396c2.66699 7.33301 7.33398 11 14.001 11h18c6.66699 0 10.667 -3.66699 12 -11l74 -396
c1.33301 -7.33301 2.33301 -14.5 3 -21.5c0.666992 -7.66699 1.66699 -14.834 3 -21.501c2 6.66699 4.16699 13.667 6.5 21s4.83301 14.666 7.5 21.999l163 393c1.33301 4 3.5 7 6.5 9s6.5 3 10.5 3h33l-213 -498h-34c-5.33301 0 -8.66602 3.33301 -9.99902 10l-76 404
c-1.33301 8 -2.33301 16 -3 24l-4 -12c-2 -4 -3.66699 -8 -5 -12l-176 -404c-2.66699 -6.66699 -6.66699 -10 -12 -10h-32z" />
    <glyph glyph-name="x" unicode="x" horiz-adv-x="436" 
d="M186 266l-125.998 232h40c4 0 7 -0.666992 9 -2s4 -3.33301 6 -6l105 -199c2.66699 4.66699 5.33398 9 8.00098 13l144 185c3.33301 6 7.66602 9 12.999 9h42l-183 -232l140 -266h-40c-8 0 -13.333 3.66699 -16 11l-118 228c-2.66699 -4.66699 -5.33398 -9 -8.00098 -13
l-166 -216c-2.66699 -2.66699 -5.33398 -5 -8.00098 -7s-6 -3 -10 -3h-40z" />
    <glyph glyph-name="y" unicode="y" horiz-adv-x="464" 
d="M126 -162c-4.66699 -9.33301 -11.334 -13.999 -20.001 -13.999h-34l106 194l-134 480h37c4.66699 0 8.16699 -1.16699 10.5 -3.5c2.33301 -1.66699 3.83301 -4.5 4.5 -8.5l105 -388c2 -10.667 3.66699 -20.667 5 -30c2 5.33301 4.16699 10.5 6.5 15.5
c2.33301 4.33301 4.5 9.16602 6.5 14.499l201 389c1.33301 4 3.5 6.83301 6.5 8.5c3.66699 1.66699 6.83398 2.5 9.50098 2.5h36z" />
    <glyph glyph-name="z" unicode="z" horiz-adv-x="413" 
d="M402 478c0 -6.66699 -3.33398 -13.333 -10.001 -20l-336 -420h280l-4 -38h-337l2 19c0 2.66699 0.833008 5.66699 2.5 9c1.66699 4 3.83398 7.33301 6.50098 10l336 422h-276l5 38h333z" />
    <glyph glyph-name="braceleft" unicode="{" horiz-adv-x="277" 
d="M104 234c0 18.667 -5.66699 34 -17 46s-26.333 18 -45 18l3 30c24.667 0 44.667 9.66699 60 29s23 49 23 89c0 20 -1.16699 41.5 -3.5 64.5s-3.5 44.5 -3.5 64.5c0 28 3.5 53.333 10.5 76s17.167 41.834 30.5 57.501s29.166 27.834 47.499 36.501
c19 8.66699 39.833 13 62.5 13h25l-2 -20c-0.666992 -4 -2.5 -6.83301 -5.5 -8.5s-5.83301 -2.5 -8.5 -2.5h-15c-14.667 0 -28 -2.83301 -40 -8.5s-22.667 -14.167 -32 -25.5s-16.666 -25.5 -21.999 -42.5c-5.33301 -17.667 -8.33301 -37.167 -9 -58.5
c-0.666992 -13.333 -0.666992 -27 0 -41l2 -42c0.666992 -14 1.33398 -27.667 2.00098 -41s0.666992 -26 0 -38c-0.666992 -17.333 -3.33398 -32.833 -8.00098 -46.5s-11 -25.334 -19 -35.001s-16.667 -17.5 -26 -23.5s-19 -10 -29 -12c8 -2 15.5 -5.33301 22.5 -10
s13.167 -10.334 18.5 -17.001s9.5 -14.334 12.5 -23.001s4.5 -18.334 4.5 -29.001c0 -20 -2.83301 -40 -8.5 -60s-11.834 -40 -18.501 -60s-13 -40.167 -19 -60.5c-6 -21 -9 -42.167 -9 -63.5c0 -13.333 2 -25.5 6 -36.5s9.16699 -20.5 15.5 -28.5
s14.166 -14.167 23.499 -18.5c8.66699 -4.33301 19 -6.5 31 -6.5h16c2.66699 0 5.33398 -1 8.00098 -3s3.33398 -5 2.00098 -9l-2 -20h-26c-18.667 0 -35 3.16699 -49 9.5s-25.833 15 -35.5 26s-17 23.833 -22 38.5s-7.5 30.667 -7.5 48c0 22.667 3 44.334 9 65.001
s12.333 40.667 19 60s13 38.833 19 58.5s9 39.834 9 60.501z" />
    <glyph glyph-name="bar" unicode="|" horiz-adv-x="245" 
d="M102 758h38v-934h-38v934z" />
    <glyph glyph-name="braceright" unicode="}" horiz-adv-x="277" 
d="M153 181c0 -9.33301 0.333984 -19.5039 1.00098 -30.5039s1.5 -22.167 2.5 -33.5s1.83301 -22.666 2.5 -33.999s1 -21.666 1 -30.999c0 -28 -3.66699 -53.333 -11 -76s-17.5 -42 -30.5 -58s-28.667 -28.333 -47 -37s-39.166 -13 -62.499 -13h-25l2 20c0 4 1.66699 7 5 9
s6.33301 3 9 3h14c14 0 27.333 3 40 9s23.667 14.667 33 26s16.833 25.333 22.5 42s8.5 35.667 8.5 57v41c0 14 -0.333008 28 -1 42s-1.33398 27.667 -2.00098 41s-1 26 -1 38c0 17.333 2.66699 32.833 8 46.5s11.666 25.334 18.999 35.001s15.833 17.5 25.5 23.5
c10.333 6 20.166 10 29.499 12c-8 2 -15.667 5.33301 -23 10s-13.5 10.334 -18.5 17.001s-9 14.5 -12 23.5s-4.5 18.833 -4.5 29.5c0 20 2.66699 39.833 8 59.5s11.5 39.5 18.5 59.5s13.333 40.333 19 61s8.5 41.667 8.5 63c0 27.333 -6.83301 49.333 -20.5 66
s-32.167 25 -55.5 25h-14c-2.66699 0 -5.33398 0.833008 -8.00098 2.5s-3.66699 4.5 -3 8.5l2 20h25c18.667 0 35 -3 49 -9s26 -14.667 36 -26s17.333 -24.333 22 -39s7 -30.667 7 -48c0 -22.667 -2.66699 -44.334 -8 -65.001s-11.666 -40.667 -18.999 -60
s-13.666 -38.666 -18.999 -57.999s-8 -39.333 -8 -60c0 -18.667 5.33301 -34.167 16 -46.5s26 -18.5 46 -18.5l-4 -30c-24 0 -43.833 -9.5 -59.5 -28.5s-23.5 -48.5 -23.5 -88.5z" />
    <glyph glyph-name="asciitilde" unicode="~" horiz-adv-x="580" 
d="M390 284c12 0 22.999 2.16895 32.999 6.50195s18.667 10.5 26 18.5s12.833 17.5 16.5 28.5c4.33301 11 6.5 23.167 6.5 36.5h38c0 -18.667 -2.66699 -35.834 -8 -51.501s-13 -29.334 -23 -41.001s-22.333 -20.834 -37 -27.501s-31.334 -10 -50.001 -10
c-17.333 0 -34.833 3.33301 -52.5 10s-35.167 14 -52.5 22s-34.166 15.167 -50.499 21.5s-31.833 9.5 -46.5 9.5c-12.667 0 -23.834 -2.16699 -33.501 -6.5s-18.167 -10.5 -25.5 -18.5s-12.833 -17.667 -16.5 -29s-5.5 -23.333 -5.5 -36h-39
c0 18.667 2.66699 35.834 8 51.501s13 29.167 23 40.5s22.333 20.333 37 27s31.334 10 50.001 10c17.333 0 34.833 -3.16699 52.5 -9.5s35.334 -13.5 53.001 -21.5s34.5 -15.167 50.5 -21.5s31.333 -9.5 46 -9.5z" />
    <glyph glyph-name="exclamdown" unicode="&#xa1;" horiz-adv-x="215" 
d="M36 -176l34 274.998c1.33301 14.667 3 28.834 5 42.501l6 41c2 13.667 4.16699 28.167 6.5 43.5s4.83301 32.333 7.5 51h20c-1.33301 -18.667 -2.83301 -35.667 -4.5 -51s-3.16699 -29.833 -4.5 -43.5s-2.83301 -27.167 -4.5 -40.5s-3.5 -27.666 -5.5 -42.999l-34 -275
h-26zM79 457.998c0 13.333 4.49902 24.667 13.499 34s19.833 14 32.5 14c6.66699 0 12.834 -1.33301 18.501 -4s10.5 -6 14.5 -10s7.33301 -9 10 -15s4 -12.333 4 -19s-1.33301 -12.667 -4 -18s-6 -10 -10 -14s-9 -7.33301 -15 -10s-12 -4 -18 -4
c-13.333 0 -24.333 4.33301 -33 13s-13 19.667 -13 33z" />
    <glyph glyph-name="cent" unicode="&#xa2;" horiz-adv-x="580" 
d="M261 -6c-28.667 2 -54.5039 8.33008 -77.5039 18.9971s-42.667 25.167 -59 43.5s-28.833 40.5 -37.5 66.5s-13 55 -13 87c0 42.667 6.33301 82 19 118s30.834 67 54.501 93s52.334 46.333 86.001 61s71.834 22.334 114.501 23.001l18 103c1.33301 4 3.33301 7.66699 6 11
s6 5 10 5h18l-20 -120c28.667 -2.66699 53.834 -9 75.501 -19s39.834 -22.333 54.501 -37l-13 -16c-1.33301 -1.33301 -2.83301 -2.66602 -4.5 -3.99902s-3.83398 -2 -6.50098 -2s-6.66699 2 -12 6s-12.333 8.33301 -21 13s-19.5 9.33398 -32.5 14.001
s-28.833 7.66699 -47.5 9l-75 -438c25.333 0.666992 47 3.83398 65 9.50098s33 11.667 45 18s21.5 12.166 28.5 17.499c6.33301 5.33301 11.5 8 15.5 8c4 -0.666992 7 -2.33398 9 -5.00098l11 -14c-8.66699 -9.33301 -19.167 -18.166 -31.5 -26.499
s-26.333 -15.666 -42 -21.999s-32.5 -11.333 -50.5 -15s-36.667 -5.83398 -56 -6.50098l-18 -106c-0.666992 -4 -2.5 -7.33301 -5.5 -10s-6.5 -4 -10.5 -4h-18zM119.996 211.997c0 -26.667 3.33301 -50.667 10 -72s16.334 -39.833 29.001 -55.5s28 -28 46 -37
s38.667 -14.833 62 -17.5l75 438c-34.667 -1.33301 -65.834 -8 -93.501 -20s-51 -29 -70 -51s-33.5 -48.667 -43.5 -80s-15 -66.333 -15 -105z" />
    <glyph glyph-name="sterling" unicode="&#xa3;" horiz-adv-x="580" 
d="M426 330c-0.666992 -4 -2.50098 -7.33398 -5.50098 -10.001s-7.16699 -4 -12.5 -4h-237l-19 -160c-2 -14.667 -4.83301 -28 -8.5 -40s-8.5 -22.667 -14.5 -32s-12.833 -18 -20.5 -26c-7 -8 -15.833 -15.333 -26.5 -22c6.66699 1.33301 13.5 2.33301 20.5 3
s14.167 1 21.5 1h396l-2 -19c-0.666992 -5.33301 -3.16699 -10.166 -7.5 -14.499s-9.83301 -6.5 -16.5 -6.5h-486l4 32c12 4 23 9 33 15s19 13.333 27 22s14.5 19 19.5 31c4.33301 12 7.83301 27 10.5 45l22 171h-88l2 19c0.666992 4 2.5 7.16699 5.5 9.5
s6.83301 3.5 11.5 3.5h73l18 149c4 30.667 12.167 59.5 24.5 86.5s28.666 50.167 48.999 69.5s44.333 34.666 72 45.999s58.5 17 92.5 17c26.667 0 49.667 -3.16699 69 -9.5s36 -14.666 50 -24.999s25.333 -22.833 34 -37.5s15.334 -30 20.001 -46l-20 -10
c-10.667 -4 -18.667 -2 -24 6c-5.33301 10.667 -11.166 21 -17.499 31s-14.5 18.667 -24.5 26s-22.333 13.333 -37 18s-32.667 7 -54 7c-26 0 -49.833 -4.33301 -71.5 -13s-40.5 -21 -56.5 -37s-29 -34.833 -39 -56.5c-10 -21 -16.667 -44.833 -20 -71.5l-18 -150h252
l-1 -18v0z" />
    <glyph glyph-name="currency" unicode="&#xa4;" horiz-adv-x="580" 
d="M120 336c0 20.667 3.33496 40 10.002 58c6.66699 18.667 15.667 35.334 27 50.001l-77 76l25 26l77 -78c14.667 12 31.167 21.667 49.5 29c17.667 7.33301 37.167 11 58.5 11c20.667 0 40.167 -3.5 58.5 -10.5s35.166 -16.5 50.499 -28.5l77 77l24 -25l-76 -77
c12 -14.667 21.333 -31.167 28 -49.5c6.66699 -17.667 10 -37.167 10 -58.5c0 -20.667 -3.33301 -40.167 -10 -58.5s-16 -34.833 -28 -49.5l77 -78l-25 -24l-76 76c-14.667 -12 -31.334 -21.333 -50.001 -28s-38.667 -10 -60 -10c-20.667 0 -40 3.33301 -58 10
s-34.333 16 -49 28l-77 -77l-25 25l77 77c-12 14.667 -21.333 31.167 -28 49.5s-10 38.166 -10 59.499zM156.002 336c0 -18.667 3.49805 -36.334 10.498 -53.001s16.667 -31 29 -43s26.5 -21.667 42.5 -29s33.333 -11 52 -11s36.334 3.66699 53.001 11s31.334 17 44.001 29
s22.5 26.333 29.5 43s10.5 34.334 10.5 53.001s-3.5 36.167 -10.5 52.5s-16.833 30.666 -29.5 42.999s-27.167 22.166 -43.5 29.499c-17 7.33301 -34.833 11 -53.5 11s-36 -3.66699 -52 -11s-30.167 -17.166 -42.5 -29.499s-22 -26.666 -29 -42.999
s-10.5 -33.833 -10.5 -52.5z" />
    <glyph glyph-name="yen" unicode="&#xa5;" horiz-adv-x="580" 
d="M82 308h173.999l-162 400h38c9.33301 0 15 -4.33301 17 -13l133 -334c2 -6.66699 3.83301 -12.834 5.5 -18.501s2.83398 -11.167 3.50098 -16.5c2.66699 5.33301 5.16699 10.833 7.5 16.5s5.5 11.834 9.5 18.501l215 334c2.66699 4 5.5 7.16699 8.5 9.5
s6.83301 3.5 11.5 3.5h39l-261 -400h174l-3 -28h-184l-7 -60h183l-3 -28h-183l-24 -192h-46l24 192h-184l4 28h182l8 60h-184z" />
    <glyph glyph-name="brokenbar" unicode="&#xa6;" horiz-adv-x="245" 
d="M102 758h38v-388h-38v388zM102 212h38v-388h-38v388z" />
    <glyph glyph-name="section" unicode="&#xa7;" horiz-adv-x="452" 
d="M407 646c-2 -4 -5.66797 -6.00488 -11.001 -6.00488c-4 0 -8.33301 2 -13 6s-11.167 8.66699 -19.5 14s-18.666 10 -30.999 14s-27.5 6 -45.5 6s-34.667 -3 -50 -9s-28.5 -13.667 -39.5 -23s-19.667 -20.666 -26 -33.999s-9.5 -26.666 -9.5 -39.999
s3.33301 -25.333 10 -36s15.667 -20.334 27 -29.001s24 -16.667 38 -24s28.333 -14.666 43 -21.999s29 -15.333 43 -24s26.667 -18.334 38 -29.001s20.333 -22.834 27 -36.501c6.66699 -13 10 -28.833 10 -47.5c0 -31.333 -7.83301 -58.5 -23.5 -81.5
s-39.167 -41.167 -70.5 -54.5c13.333 -11.333 24.166 -24.166 32.499 -38.499s12.5 -30.833 12.5 -49.5c0 -22.667 -4.16699 -44.167 -12.5 -64.5s-20.166 -38.166 -35.499 -53.499s-34.333 -27.5 -57 -36.5s-48 -13.5 -76 -13.5c-32 0 -59 5.66699 -81 17
s-41 25.666 -57 42.999l12 18c2 2.66699 4 4.5 6 5.5c1.33301 1 4 1.5 8 1.5s8.66699 -2.66699 14 -8s12.333 -11.166 21 -17.499s19.667 -12.166 33 -17.499s30.666 -8 51.999 -8c20.667 0 39.167 3.33301 55.5 10s30.166 15.667 41.499 27s20 24.333 26 39
s9 30.334 9 47.001c0 20 -6.16699 37 -18.5 51s-27.666 26.333 -45.999 37s-38.166 20.834 -59.499 30.501s-41 20.5 -59 32.5s-33.167 26 -45.5 42s-18.5 36 -18.5 60c0 28 8.33301 53.5 25 76.5c16.667 23.667 44 42.167 82 55.5c-14 10.667 -25.333 23.167 -34 37.5
s-13 31.833 -13 52.5c0 20 4.16699 39 12.5 57s19.833 33.667 34.5 47s32.5 24.166 53.5 32.499s44.167 12.5 69.5 12.5c28 0 52.167 -4.33301 72.5 -13c20.333 -9.33301 38.5 -22.666 54.5 -39.999zM103.999 354.995c0 -12.667 2.66699 -23.998 8 -33.998
s12.666 -19.167 21.999 -27.5s20 -16 32 -23s24.667 -13.833 38 -20.5s26.833 -13.667 40.5 -21s26.5 -15 38.5 -23c26 12.667 44.667 27.834 56 45.501s17 38.167 17 61.5c0 13.333 -2.66699 25.166 -8 35.499s-12 19.833 -20 28.5s-17.667 16.5 -29 23.5
s-23.166 13.667 -35.499 20s-24.833 12.666 -37.5 18.999c-12 6.33301 -24 13.166 -36 20.499c-32 -14.667 -54.333 -30.5 -67 -47.5s-19 -36.167 -19 -57.5z" />
    <glyph glyph-name="dieresis" unicode="&#xa8;" 
d="M216 642c0 -5.33301 -1 -10.333 -3 -15s-5 -9 -9 -13s-8.5 -7 -13.5 -9s-10.167 -3 -15.5 -3s-10.5 1 -15.5 3s-9.33301 5 -13 9s-6.66699 8.33301 -9 13s-3.5 9.66699 -3.5 15s1.16699 10.666 3.5 15.999s5.33301 9.83301 9 13.5s8 6.66699 13 9s10.167 3.5 15.5 3.5
s10.5 -1.16699 15.5 -3.5s9.5 -5.33301 13.5 -9s7 -8.16699 9 -13.5s3 -10.666 3 -15.999zM383 642c0 -5.33301 -1.16797 -10.333 -3.50098 -15s-5.33301 -9 -9 -13s-8 -7 -13 -9s-10.167 -3 -15.5 -3s-10.666 1 -15.999 3s-9.83301 5 -13.5 9s-6.66699 8.33301 -9 13
s-3.5 9.66699 -3.5 15s1.16699 10.666 3.5 15.999s5.33301 9.83301 9 13.5s8 6.66699 13 9c5.66699 2.33301 11.167 3.5 16.5 3.5s10.5 -1.16699 15.5 -3.5s9.33301 -5.33301 13 -9s6.66699 -8.16699 9 -13.5s3.5 -10.666 3.5 -15.999z" />
    <glyph glyph-name="copyright" unicode="&#xa9;" horiz-adv-x="838" 
d="M572 213c2.66699 0 5.33691 -0.667969 8.00391 -2.00098l17 -17c-20 -20 -43.167 -35.833 -69.5 -47.5s-58.833 -17.5 -97.5 -17.5c-32 0 -61.5 5.5 -88.5 16.5s-50 26.167 -69 45.5s-33.833 43 -44.5 71s-16 58.667 -16 92s5.5 64 16.5 92s26.5 51.833 46.5 71.5
s43.833 35 71.5 46s58.167 16.5 91.5 16.5c17.333 0 33.166 -1.33301 47.499 -4s27.666 -6.33398 39.999 -11.001s23.833 -10.334 34.5 -17.001s21.334 -14.667 32.001 -24l-12 -16c-2.66699 -4 -6 -6 -10 -6c-3.33301 0 -7.83301 2.16699 -13.5 6.5s-13.334 9 -23.001 14
s-22 9.83301 -37 14.5s-33.833 7 -56.5 7c-28 0 -53.333 -4.5 -76 -13.5s-42 -21.667 -58 -38s-28.5 -36.166 -37.5 -59.499s-13.5 -49.666 -13.5 -78.999c0 -30 4.5 -56.5 13.5 -79.5s21.167 -42.667 36.5 -59s33.833 -28.666 55.5 -36.999
c22.333 -8.33301 46.166 -12.5 71.499 -12.5c18 0 33.5 1.16699 46.5 3.5s24.833 5.66602 35.5 9.99902s20.667 9.33301 30 15s18.666 11.834 27.999 18.501zM65.0029 353.999c0 33.333 4.33301 65.333 13 96s20.834 59.334 36.501 86.001s34.5 51 56.5 73
s46.333 40.833 73 56.5s55.334 27.834 86.001 36.501s62.667 13 96 13s65.333 -4.33301 96 -13s59.334 -20.834 86.001 -36.501s51 -34.5 73 -56.5s40.667 -46.333 56 -73s27.333 -55.334 36 -86.001s13 -62.667 13 -96s-4.33301 -65.333 -13 -96
s-20.667 -59.334 -36 -86.001s-34 -51 -56 -73s-46.333 -40.833 -73 -56.5s-55.334 -27.834 -86.001 -36.501s-62.667 -13 -96 -13s-65.333 4.33301 -96 13s-59.334 20.834 -86.001 36.501s-51 34.5 -73 56.5s-40.833 46.333 -56.5 73s-27.834 55.334 -36.501 86.001
s-13 62.667 -13 96zM94.0029 353.999c0 -46.667 8.66699 -90.167 26 -130.5s41 -75.666 71 -105.999s65 -54.166 105 -71.499s83.333 -26 130 -26c46 0 89.167 8.66699 129.5 26s75.5 41.166 105.5 71.499s53.667 65.666 71 105.999s26 83.833 26 130.5
s-8.66699 90.167 -26 130.5s-41 75.666 -71 105.999s-65.333 54.166 -106 71.499s-83.667 26 -129 26c-46 0 -89.167 -8.66699 -129.5 -26s-75.5 -41.166 -105.5 -71.499s-53.667 -65.666 -71 -105.999s-26 -83.833 -26 -130.5z" />
    <glyph glyph-name="ordfeminine" unicode="&#xaa;" horiz-adv-x="341" 
d="M268 420c-4 0 -6.66895 0.50293 -8.00195 1.50293c-1.33301 0.333008 -2.66602 2.5 -3.99902 6.5v34c-8.66699 -8 -17.167 -14.667 -25.5 -20s-16.833 -10 -25.5 -14s-17.667 -7.16699 -27 -9.5s-19.333 -3.5 -30 -3.5c-9.33301 0 -18.333 1.33301 -27 4
s-16 6.5 -22 11.5s-10.833 11.667 -14.5 20c-3.66699 9 -5.5 18.833 -5.5 29.5c0 13.333 3.5 26 10.5 38s18 22.667 33 32s34.667 16.666 59 21.999s53.5 8.66602 87.5 9.99902l3 26c2.66699 25.333 -0.333008 44.666 -9 57.999s-23.667 20 -45 20
c-13.333 0 -24.666 -2 -33.999 -6s-17.333 -8 -24 -12s-12.334 -8 -17.001 -12s-8.66699 -6 -12 -6c-2.66699 0 -4.83398 0.666992 -6.50098 2s-2.83398 3 -3.50098 5l-5 11c16.667 16 33.834 27.667 51.501 35s36.834 11 57.501 11c16 0 29.5 -2.83301 40.5 -8.5
s19.833 -13.5 26.5 -23.5s11.334 -21.5 14.001 -34.5s2.66699 -26.167 0 -39.5l-23 -188h-15zM159.998 440.003c20 0 37.666 4.5 52.999 13.5c15.333 9.66699 30.333 21.167 45 34.5l8 69c-53.333 -1.33301 -92.166 -8.33301 -116.499 -21s-36.5 -30 -36.5 -52
c0 -15.333 4.66699 -26.5 14 -33.5s20.333 -10.5 33 -10.5z" />
    <glyph glyph-name="guillemotleft" unicode="&#xab;" horiz-adv-x="366" 
d="M46 256v6.00195l136 190l13 -8c4 -2.66699 6.16699 -6 6.5 -10s-1.5 -8.33301 -5.5 -13l-101 -147c-6 -6.66699 -10.333 -11.334 -13 -14.001c2.66699 -2.66699 6 -7.33398 10 -14.001l65 -148c2.66699 -5.33301 3.16699 -10 1.5 -14s-4.5 -7.33301 -8.5 -10l-16 -7z
M162 256.002v6.00195l136 190l13 -8c4 -2.66699 6.16699 -6 6.5 -10s-1.5 -8.33301 -5.5 -13l-101 -147c-6 -6.66699 -10.333 -11.334 -13 -14.001c2.66699 -2.66699 6 -7.33398 10 -14.001l65 -148c2.66699 -5.33301 3.16699 -10 1.5 -14s-4.5 -7.33301 -8.5 -10l-16 -7z
" />
    <glyph glyph-name="logicalnot" unicode="&#xac;" horiz-adv-x="580" 
d="M90 353h414l-4 -35h-1l-18 -148h-40l19 148h-374z" />
    <glyph glyph-name="registered" unicode="&#xae;" horiz-adv-x="839" 
d="M65 354c0 33.333 4.33301 65.333 13 96s20.834 59.334 36.501 86.001s34.5 51 56.5 73s46.333 40.833 73 56.5s55.334 27.834 86.001 36.501s62.667 13 96 13s65.333 -4.33301 96 -13s59.334 -20.834 86.001 -36.501s51 -34.5 73 -56.5s40.667 -46.333 56 -73
s27.333 -55.334 36 -86.001s13 -62.667 13 -96s-4.33301 -65.333 -13 -96s-20.667 -59.334 -36 -86.001s-34 -51 -56 -73s-46.333 -40.833 -73 -56.5s-55.334 -27.834 -86.001 -36.501s-62.667 -13 -96 -13s-65.333 4.33301 -96 13s-59.334 20.834 -86.001 36.501
s-51 34.5 -73 56.5s-40.833 46.333 -56.5 73s-27.834 55.334 -36.501 86.001s-13 62.667 -13 96zM94 354c0 -46.667 8.66699 -90.167 26 -130.5s41 -75.666 71 -105.999s65 -54.166 105 -71.499s83.333 -26 130 -26c46 0 89.167 8.66699 129.5 26s75.5 41.166 105.5 71.499
s53.667 65.666 71 105.999s26 83.833 26 130.5s-8.66699 90.167 -26 130.5s-41 75.666 -71 105.999s-65.333 54.166 -106 71.499s-83.667 26 -129 26c-46 0 -89.167 -8.66699 -129.5 -26s-75.5 -41.166 -105.5 -71.499s-53.667 -65.666 -71 -105.999s-26 -83.833 -26 -130.5
zM334 328l-0.00195312 -195.003h-42v443h124c50.667 0 89 -9.66699 115 -29s39 -48.666 39 -87.999c0 -33.333 -10.667 -60.666 -32 -81.999s-51.333 -34.666 -90 -39.999c4 -2.66699 7.5 -5.5 10.5 -8.5c3.66699 -3 6.83398 -6.83301 9.50098 -11.5l142 -184h-40
c-3.33301 0 -6.16602 0.5 -8.49902 1.5s-4.83301 3.16699 -7.5 6.5l-134 175c-2.66699 4 -6.16699 7 -10.5 9c-3.66699 2 -10.167 3 -19.5 3h-56zM333.998 359.997l74 -0.000976562c40 0 70 8.16699 90 24.5c20 15.667 30 38.834 30 69.501s-9 53 -27 67s-46.333 21 -85 21
h-82v-182z" />
    <glyph glyph-name="macron" unicode="&#xaf;" 
d="M132 658h252l-4 -32h-251z" />
    <glyph glyph-name="macron" unicode="&#x2c9;" 
d="M132 658h252l-4 -32h-251z" />
    <glyph glyph-name="degree" unicode="&#xb0;" horiz-adv-x="407" 
d="M84 567c0 20.667 4 40 12 58s18.833 33.833 32.5 47.5s29.5 24.334 47.5 32.001s37.333 11.5 58 11.5c21.333 0 41.166 -3.83301 59.499 -11.5s34.333 -18.334 48 -32.001s24.334 -29.5 32.001 -47.5s11.5 -37.333 11.5 -58s-3.83301 -40 -11.5 -58
s-18.334 -33.667 -32.001 -47s-29.667 -24 -48 -32s-38.166 -12 -59.499 -12c-20.667 0 -40 4 -58 12s-33.833 18.667 -47.5 32s-24.5 29 -32.5 47s-12 37.333 -12 58zM118 567c0 -16 3 -31 9 -45s14.333 -26.167 25 -36.5s23 -18.5 37 -24.5s29 -9 45 -9s31 3 45 9
s26.167 14.167 36.5 24.5s18.5 22.5 24.5 36.5s9 29 9 45s-3 31 -9 45s-14.167 26.167 -24.5 36.5s-22.5 18.5 -36.5 24.5s-29 9 -45 9s-31 -3 -45 -9s-26.333 -14.167 -37 -24.5s-19 -22.5 -25 -36.5s-9 -29 -9 -45z" />
    <glyph glyph-name="plusminus" unicode="&#xb1;" horiz-adv-x="580" 
d="M344 576l-25 -204h217l-4 -35h-218l-24 -202h-38l25 202h-215l4 35h216l24 204h38zM30 76h469l-5 -36h-468z" />
    <glyph glyph-name="uni00B2" unicode="&#xb2;" horiz-adv-x="334" 
d="M233 811c13.333 0 25.832 -1.83789 37.499 -5.50488s21.667 -9.16699 30 -16.5s14.833 -16.333 19.5 -27s7 -22.667 7 -36c0 -14.667 -2.5 -28.5 -7.5 -41.5s-11.833 -25.167 -20.5 -36.5s-18.667 -22.166 -30 -32.499s-23 -21.166 -35 -32.499l-118 -106
c6.66699 1.33301 13.334 2.5 20.001 3.5s13.334 1.5 20.001 1.5h138c8 0 12 -4 12 -12l-3 -20h-237l2 12c0.666992 2.66699 1.5 5.33398 2.5 8.00098s2.83301 5 5.5 7l133 119c11.333 10.667 22 20.667 32 30s18.667 19.333 26 30s13.333 21.334 18 32.001s7 22 7 34
c0 10.667 -1.66699 19.667 -5 27s-8 13.333 -14 18s-13 8.33398 -21 11.001s-16 4 -24 4c-20.667 0 -38.334 -5.83301 -53.001 -17.5c-15.333 -12.333 -26.333 -27.833 -33 -46.5c-2.66699 -4 -5.16699 -6.66699 -7.5 -8c-1.66699 -1.33301 -5.16699 -1.33301 -10.5 0l-18 2
c8 32 23.5 56.5 46.5 73.5s49.833 25.5 80.5 25.5z" />
    </font>
</defs>
</svg>
