<?xml version="1.0" standalone="no"?>
<!DOCTYPE svg PUBLIC "-//W3C//DTD SVG 1.1//EN" "http://www.w3.org/Graphics/SVG/1.1/DTD/svg11.dtd" >
<svg version="1.1" xmlns="http://www.w3.org/2000/svg">
<metadata>
Created by FontForge 20120731 at Fri Aug  1 16:50:24 2014

Copyright (c) 2010-2014 by tyPoland Lukasz Dziedzic with Reserved Font Name "Lato". Licensed under the SIL Open Font License, Version 1.1. 
</metadata>
<defs>
<font id="lato" horiz-adv-x="368" >
  <font-face 
    font-family="Lato"
    font-weight="400"
    font-style="italic"
    font-stretch="normal"
    units-per-em="1000"
    panose-1="2 15 5 2 2 2 4 3 2 3"
    ascent="805"
    descent="-195"
    x-height="506"
    cap-height="716"
    bbox="-502 -268 1290 1078"
    underline-thickness="97"
    underline-position="-3"
    slope="-7"
    unicode-range="U+000D-FEFF"
  />
<missing-glyph horiz-adv-x="531" 
d="M125 570c8 7.33301 16.8398 14.1621 26.5068 20.4951s20.167 12 31.5 17s23.666 9 36.999 12s27.333 4.5 42 4.5c21.333 0 40.666 -3 57.999 -9s32 -14.333 44 -25s21.333 -23.667 28 -39s10 -32.333 10 -51s-2.33301 -34.5 -7 -47.5s-10.834 -24.333 -18.501 -34
s-16 -18.167 -25 -25.5s-17.5 -14.166 -25.5 -20.499s-15 -12.666 -21 -18.999s-9.66699 -13.166 -11 -20.499l-8 -53h-61l-6 59c-1.33301 11.333 0.166992 21.333 4.5 30s10.166 16.5 17.499 23.5s15.666 13.833 24.999 20.5s18 13.834 26 21.501s14.667 16.334 20 26.001
s8 21.167 8 34.5c0 17.333 -6 30.833 -18 40.5s-27.667 14.5 -47 14.5c-13.333 0 -24.833 -1.33301 -34.5 -4s-17.834 -6 -24.501 -10s-12.334 -7.33301 -17.001 -10s-8.66699 -4 -12 -4c-8.66699 0 -15 3.33301 -19 10zM198.007 145.996c0 16 5.16699 29.334 15.5 40.001
s23.5 16 39.5 16c7.33301 0 14.333 -1.5 21 -4.5s12.334 -7 17.001 -12s8.5 -10.833 11.5 -17.5s4.5 -14 4.5 -22s-1.5 -15.333 -4.5 -22s-6.83301 -12.334 -11.5 -17.001s-10.334 -8.5 -17.001 -11.5s-13.667 -4.5 -21 -4.5c-16 0 -29.167 5.16699 -39.5 15.5
s-15.5 23.5 -15.5 39.5zM22.0068 715.997h488v-716h-488v716zM48.0068 26.9971h433v662h-433v-662z" />
    <glyph glyph-name="uniFB00" unicode="ff" horiz-adv-x="617" 
d="M493 496l133.001 0.00195312l-8 -62h-130l-50 -418l-24 -103c-4 -12 -9.33301 -21.167 -16 -27.5s-16.667 -9.5 -30 -9.5h-34l67 558h-203l-50 -418l-24 -103c-4 -12 -9.33301 -21.167 -16 -27.5s-16.667 -9.5 -30 -9.5h-34l68 557l-50 7
c-6.66699 1.33301 -12 3.66602 -16 6.99902s-5.33301 8.33301 -4 15l4 34h74l4 42c4 29.333 11.333 55.166 22 77.499s24 41.333 40 57s34.667 27.5 56 35.5s44 12 68 12c20 0 38.667 -3.33301 56 -10l-8 -47c-1.33301 -3.33301 -3.16602 -5.66602 -5.49902 -6.99902
s-5.33301 -2.16602 -9 -2.49902s-7.83398 -0.333008 -12.501 0s-10 0.5 -16 0.5c-14 0 -27 -2 -39 -6s-22.5 -10.333 -31.5 -19s-16.667 -20.167 -23 -34.5c-6.33301 -15 -10.833 -33.167 -13.5 -54.5l-6 -44h206l7 55c4 29.333 11.333 55.166 22 77.499
s24.167 41.166 40.5 56.499s35.166 27 56.499 35s44 12 68 12c20.667 0 39.667 -3.33301 57 -10l-9 -46c-1.33301 -3.33301 -3 -5.5 -5 -6.5s-4.83301 -1.83301 -8.5 -2.5s-8 -1 -13 -1h-15.5c-14.667 0 -28 -2 -40 -6s-22.667 -10.667 -32 -20s-17 -21.5 -23 -36.5
c-6 -15.667 -10.333 -34.167 -13 -55.5z" />
    <glyph glyph-name="uniFB01" unicode="fi" horiz-adv-x="533" 
d="M202 496l284 0.00292969l-60 -496h-88l53 432h-193l-51 -416l-23 -104c-4 -12 -9.66699 -21.167 -17 -27.5s-17 -9.5 -29 -9.5h-36l69 556l-49 6c-6.66699 1.33301 -12 3.66602 -16 6.99902s-5.33301 8.33301 -4 15l4 37h73l3 28c4 30.667 12.167 59 24.5 85
s28.666 48.167 48.999 66.5s44.5 32.666 72.5 42.999s60 15.5 96 15.5c6 0 12.167 -0.333008 18.5 -1s12.833 -1.33398 19.5 -2.00098s12.834 -1.66699 18.501 -3c6.33301 -1.33301 11.5 -2.66602 15.5 -3.99902l-10 -46c-0.666992 -3.33301 -2.16699 -5.5 -4.5 -6.5
s-5.5 -1.83301 -9.5 -2.5s-8.66699 -0.666992 -14 0s-11.333 1 -18 1c-28 0 -52.167 -3 -72.5 -9s-37.5 -15 -51.5 -27s-25.167 -27.333 -33.5 -46s-13.833 -40.334 -16.5 -65.001z" />
    <glyph glyph-name="uniFB02" unicode="fl" horiz-adv-x="549" 
d="M198 432l-50.9971 -416l-23 -104c-4 -12 -9.66699 -21.167 -17 -27.5s-17 -9.5 -29 -9.5h-36l69 556l-49 6c-6.66699 1.33301 -12 3.66602 -16 6.99902s-5.33301 8.33301 -4 15l4 37h73l3 28c3.33301 28 10.5 54.5 21.5 79.5s25.667 46.833 44 65.5
s40.166 33.5 65.499 44.5c26 11 55 16.5 87 16.5c24 0 46.667 -1 68 -3s42.666 -3.33301 63.999 -4h60l-90 -723h-86l80 658c-14.667 1.33301 -29.834 2.83301 -45.501 4.5s-30.834 2.5 -45.501 2.5c-38.667 0 -70.167 -12.167 -94.5 -36.5
s-39.166 -59.166 -44.499 -104.499l-3 -28h119l-8 -64h-116z" />
    <glyph glyph-name="uniFB03" unicode="ffi" horiz-adv-x="823" 
d="M768 434l-51.999 -434h-86l52 434h-194l-50 -418l-24 -104c-4 -12 -9.5 -21.167 -16.5 -27.5s-16.833 -9.5 -29.5 -9.5h-35l69 559h-204l-50 -418l-24 -103c-4 -12 -9.33301 -21.167 -16 -27.5s-16.667 -9.5 -30 -9.5h-34l68 557l-50 7
c-6.66699 1.33301 -12 3.66602 -16 6.99902s-5.33301 8.33301 -4 15l4 34h74l4 42c4 29.333 11.333 55.166 22 77.499s24 41.333 40 57s34.667 27.5 56 35.5s44 12 68 12c20 0 38.667 -3.33301 56 -10l-8 -47c-1.33301 -3.33301 -3.16602 -5.66602 -5.49902 -6.99902
s-5.33301 -2.16602 -9 -2.49902s-7.83398 -0.333008 -12.501 0s-10 0.5 -16 0.5c-14 0 -27 -2 -39 -6s-22.5 -10.333 -31.5 -19s-16.667 -20.167 -23 -34.5c-6.33301 -15 -10.833 -33.167 -13.5 -54.5l-6 -44h208l3 28c4 30.667 12.167 59 24.5 85s28.5 48.167 48.5 66.5
s44 32.666 72 42.999s60 15.5 96 15.5c5.33301 0 11.333 -0.333008 18 -1l20 -2c6.66699 -0.666992 13 -1.66699 19 -3s11 -2.66602 15 -3.99902l-9 -46c-0.666992 -3.33301 -2.33398 -5.5 -5.00098 -6.5s-6 -1.83301 -10 -2.5s-8.66699 -0.666992 -14 0s-11.333 1 -18 1
c-54.667 0 -95.667 -12 -123 -36s-44.333 -61 -51 -111l-3 -27h283l-7 -62h-1z" />
    <glyph glyph-name="uniFB04" unicode="ffl" horiz-adv-x="838" 
d="M201 496l207.003 -0.000976562l4 28c3.33301 28 10.5 54.5 21.5 79.5s25.667 46.833 44 65.5s40.166 33.5 65.499 44.5c26 11 55 16.5 87 16.5c25.333 0 49.666 -1.16699 72.999 -3.5s46.333 -3.5 69 -3.5h49l-89 -723h-86l80 658c-14.667 1.33301 -30 2.83301 -46 4.5
s-31 2.5 -45 2.5c-39.333 0 -71 -12.167 -95 -36.5s-38.667 -59.166 -44 -104.499l-3 -28h133l-8 -63h-130l-52 -417l-22 -104c-4 -12 -9.66699 -21.167 -17 -27.5s-17 -9.5 -29 -9.5h-36l68 558h-204l-50 -417l-23 -103c-4 -12 -9.5 -21.167 -16.5 -27.5
s-16.833 -9.5 -29.5 -9.5h-35l68 556l-48 6c-6.66699 1.33301 -12 3.66602 -16 6.99902s-5.33301 8.33301 -4 15l4 36h72l5 42c4 29.333 11.167 55.166 21.5 77.499s23.666 41.333 39.999 57s35 27.5 56 35.5s43.5 12 67.5 12c20 0 38.667 -3.33301 56 -10l-8 -47
c-1.33301 -3.33301 -3 -5.66602 -5 -6.99902s-5 -2.16602 -9 -2.49902s-8.33301 -0.333008 -13 0s-9.66699 0.5 -15 0.5c-14 0 -27 -2 -39 -6s-22.5 -10.333 -31.5 -19s-16.667 -20.167 -23 -34.5c-6.33301 -15 -10.833 -33.167 -13.5 -54.5z" />
    <glyph glyph-name="f_b.liga" unicode="fb" horiz-adv-x="855" 
d="M356 0l82.002 676.998c-14 2 -28.5 4.33301 -43.5 7s-29.167 4 -42.5 4c-20 0 -38.167 -3.5 -54.5 -10.5s-30.666 -17 -42.999 -30s-22.5 -28.5 -30.5 -46.5s-13 -38.333 -15 -61l-5 -44h123l-7 -64h-122l-51 -416l-23 -104c-4 -12 -9.5 -21.167 -16.5 -27.5
s-16.833 -9.5 -29.5 -9.5h-35l69 556l-50 6c-6.66699 1.33301 -11.834 3.66602 -15.501 6.99902s-5.16699 8.33301 -4.5 15l4 37h74l5 44c3.33301 28 10.666 54.667 21.999 80s26.333 47.333 45 66s41 33.334 67 44.001s55.333 16 88 16c34.667 0 67.167 -1.33301 97.5 -4
s56.833 -4.66699 79.5 -6h8l-44 -358c12.667 20.667 26.334 39.334 41.001 56.001s30 30.834 46 42.501s32.667 20.834 50 27.501s35 10 53 10c43.333 0 77 -15.667 101 -47s36 -77 36 -137c0 -27.333 -2.83301 -54.833 -8.5 -82.5s-13.834 -53.834 -24.501 -78.501
s-23.334 -47.667 -38.001 -69s-31 -40 -49 -56s-37.667 -28.5 -59 -37.5s-44 -13.5 -68 -13.5c-26.667 0 -51 5.66699 -73 17c-22 10.667 -39.667 26.667 -53 48l-8 -32c-2.66699 -8.66699 -6 -15.167 -10 -19.5s-11 -6.5 -21 -6.5h-47zM645.002 441.998
c-16 0 -32.1719 -5.00098 -48.5049 -15.001s-32.166 -23.833 -47.499 -41.5s-29.666 -38.667 -42.999 -63s-24.666 -51.166 -33.999 -80.499l-16 -131c12.667 -18 27.834 -30.667 45.501 -38s35.834 -11 54.501 -11c17.333 0 33.666 3.66699 48.999 11s29.333 17.333 42 30
s23.834 27.334 33.501 44.001s18 34.667 25 54s12.167 39.166 15.5 59.499s5 40.5 5 60.5c0 40 -7 70.167 -21 90.5s-34 30.5 -60 30.5z" />
    <glyph glyph-name="f_f_b.liga" unicode="ffb" horiz-adv-x="1145" 
d="M646 0l82.001 675.996c-14 2.66699 -28.333 5.33398 -43 8.00098c-15.333 2.66699 -29.666 4 -42.999 4c-20 0 -38.167 -3.5 -54.5 -10.5s-30.666 -17 -42.999 -30s-22.5 -28.5 -30.5 -46.5s-13 -38.333 -15 -61l-5 -44h132l-8 -63h-130l-50 -417l-24 -104
c-4 -12 -9.5 -21.167 -16.5 -27.5s-16.833 -9.5 -29.5 -9.5h-35l69 558h-204l-50 -417l-24 -103c-4 -12 -9.33301 -21.167 -16 -27.5s-16.667 -9.5 -30 -9.5h-34l68 556l-50 6c-6.66699 1.33301 -12 3.66602 -16 6.99902s-5.33301 8.33301 -4 15l4 36h73l5 42
c4 29.333 11.333 55.166 22 77.499s24 41.333 40 57s34.667 27.5 56 35.5s44 12 68 12c20.667 0 39.334 -3.33301 56.001 -10l-8 -47c-1.33301 -3.33301 -3.16602 -5.66602 -5.49902 -6.99902s-5.33301 -2.16602 -9 -2.49902s-7.83398 -0.333008 -12.501 0s-10 0.5 -16 0.5
c-14 0 -27 -2 -39 -6s-22.333 -10.333 -31 -19s-16.167 -20.167 -22.5 -34.5c-6.33301 -15 -10.833 -33.167 -13.5 -54.5l-6 -44h207l5 44c3.33301 28 10.666 54.667 21.999 80s26.333 47.333 45 66s41 33.334 67 44.001s55.333 16 88 16
c17.333 0 34.166 -0.333008 50.499 -1s32 -1.66699 47 -3s29.167 -2.5 42.5 -3.5c13.333 -1.66699 25.666 -2.5 36.999 -2.5h8l-44 -358c12.667 20.667 26.5 39.334 41.5 56.001s30.5 30.834 46.5 42.501s32.667 20.834 50 27.501s34.666 10 51.999 10
c43.333 0 77.166 -15.667 101.499 -47s36.5 -77 36.5 -137c0 -27.333 -3 -54.833 -9 -82.5s-14.167 -53.834 -24.5 -78.501s-23 -47.667 -38 -69s-31.5 -40 -49.5 -56s-37.667 -28.5 -59 -37.5s-43.666 -13.5 -66.999 -13.5c-26.667 0 -51 5.66699 -73 17
c-22 10.667 -40 26.667 -54 48l-7 -32c-2.66699 -8.66699 -6 -15.167 -10 -19.5c-3.33301 -4.33301 -10.333 -6.5 -21 -6.5h-48zM936.001 441.996c-16 0 -32.3369 -5.00098 -49.0039 -15.001s-32.667 -23.833 -48 -41.5s-29.666 -38.667 -42.999 -63
s-24.666 -51.166 -33.999 -80.499l-16 -131c12.667 -18 27.834 -30.667 45.501 -38s35.834 -11 54.501 -11c17.333 0 33.666 3.66699 48.999 11s29.333 17.333 42 30s24 27.334 34 44.001s18.333 34.667 25 54s11.834 39.166 15.501 59.499s5.5 40.5 5.5 60.5
c0 40 -7 70.167 -21 90.5s-34 30.5 -60 30.5z" />
    <glyph glyph-name="f_h.liga" unicode="fh" horiz-adv-x="853" 
d="M354 0l81.002 676.999c-14 2.66699 -28 5.16699 -42 7.5s-27.667 3.5 -41 3.5c-20 0 -38.167 -3.5 -54.5 -10.5s-30.666 -17 -42.999 -30s-22.5 -28.5 -30.5 -46.5s-13.333 -38.333 -16 -61l-5 -44h123l-7 -64h-121l-51 -416l-23 -104c-4 -12 -9.66699 -21.167 -17 -27.5
s-17 -9.5 -29 -9.5h-36l70 556l-50 6c-6.66699 1.33301 -12 3.66602 -16 6.99902s-5.33301 8.33301 -4 15l4 37h74l5 44c3.33301 28 10.666 54.667 21.999 80s26.333 47.333 45 66s41 33.334 67 44.001s55 16 87 16c18 0 35.667 -0.333008 53 -1s33.833 -1.66699 49.5 -3
s30.5 -2.66602 44.5 -3.99902s26.333 -2 37 -2h2l-42 -342c26 39.333 55.167 69.166 87.5 89.499s65.166 30.5 98.499 30.5c21.333 0 40.333 -4.33301 57 -13s30 -21 40 -37s16.833 -36 20.5 -60c4.33301 -24 4.5 -51.333 0.5 -82l-38 -322h-90l38 322
c5.33301 40 3.16602 69.667 -6.50098 89c-9 19.333 -26.833 29 -53.5 29c-14.667 0 -30.167 -4 -46.5 -12s-32 -19.667 -47 -35s-29 -33.666 -42 -54.999c-13.667 -21.333 -25.167 -45 -34.5 -71l-32 -267h-88z" />
    <glyph glyph-name="f_f_h.liga" unicode="ffh" horiz-adv-x="1144" 
d="M644 0l82.001 676.999c-14 2.66699 -28.167 5.16699 -42.5 7.5s-28.166 3.5 -41.499 3.5c-20 0 -38.167 -3.5 -54.5 -10.5s-30.666 -17 -42.999 -30s-22.5 -28.5 -30.5 -46.5s-13 -38.333 -15 -61l-5 -44h132l-8 -63h-130l-50 -417l-24 -104
c-4 -12 -9.5 -21.167 -16.5 -27.5s-16.833 -9.5 -29.5 -9.5h-35l69 558h-204l-50 -417l-24 -103c-4 -12 -9.33301 -21.167 -16 -27.5s-16.667 -9.5 -30 -9.5h-34l68 556l-50 6c-6.66699 1.33301 -12 3.66602 -16 6.99902s-5.33301 8.33301 -4 15l4 36h73l5 42
c4 29.333 11.333 55.166 22 77.499s24 41.333 40 57s34.667 27.5 56 35.5s44 12 68 12c20.667 0 39.334 -3.33301 56.001 -10l-8 -47c-1.33301 -3.33301 -3.16602 -5.66602 -5.49902 -6.99902s-5.33301 -2.16602 -9 -2.49902s-7.83398 -0.333008 -12.501 0s-10 0.5 -16 0.5
c-14 0 -27 -2 -39 -6s-22.333 -10.333 -31 -19s-16.167 -20.167 -22.5 -34.5c-6.33301 -15 -10.833 -33.167 -13.5 -54.5l-6 -44h207l5 44c3.33301 28 10.666 54.667 21.999 80s26.333 47.333 45 66s41 33.334 67 44.001s55.333 16 88 16
c17.333 0 34.166 -0.333008 50.499 -1s32 -1.66699 47 -3s29.167 -2.5 42.5 -3.5c13.333 -1.66699 25.666 -2.5 36.999 -2.5h8l-41 -342c26 39.333 55 69.166 87 89.499s65 30.5 99 30.5c21.333 0 40.166 -4.33301 56.499 -13s29.666 -21 39.999 -37s17.333 -36 21 -60
s3.5 -51.333 -0.5 -82l-38 -322h-88l38 322c5.33301 40 3 69.667 -7 89s-28.333 29 -55 29c-14.667 0 -30 -4 -46 -12s-31.333 -19.667 -46 -35s-28.667 -33.666 -42 -54.999s-24.666 -45 -33.999 -71l-33 -267h-89z" />
    <glyph glyph-name="f_igrave.liga" unicode="f&#xec;" horiz-adv-x="533" 
d="M202 496l283.999 0.000976562l-60 -496h-88l53 432h-193l-51 -416l-22 -103c-4 -12 -9.5 -21.167 -16.5 -27.5s-16.833 -9.5 -29.5 -9.5h-35l68 554l-50 7c-6.66699 1.33301 -12 3.66602 -16 6.99902s-5.33301 8.33301 -4 15l4 37h74l8 62
c6.66699 55.333 23 97.833 49 127.5s60.333 44.5 103 44.5c6.66699 0 13.667 -0.333008 21 -1s13.666 -1.66699 18.999 -3l-6 -47c-0.666992 -5.33301 -3.5 -8.66602 -8.5 -9.99902s-11.167 -2 -18.5 -2c-21.333 0 -38.166 -8.83301 -50.499 -26.5
s-21.166 -44.834 -26.499 -81.501zM413.999 724.001c10 0 17.167 -1.66699 21.5 -5s8.5 -9 12.5 -17l54 -120h-46c-6.66699 0 -12 1 -16 3s-7.66699 5.66699 -11 11l-93 128h78z" />
    <glyph glyph-name="f_icircumflex.liga" unicode="f&#xee;" horiz-adv-x="533" 
d="M202 496l283.999 0.000976562l-60 -496h-88l53 432h-193l-51 -416l-22 -103c-4 -12 -9.5 -21.167 -16.5 -27.5s-16.833 -9.5 -29.5 -9.5h-35l68 554l-50 7c-6.66699 1.33301 -12 3.66602 -16 6.99902s-5.33301 8.33301 -4 15l4 37h74l8 62
c6.66699 55.333 23 97.833 49 127.5s60.333 44.5 103 44.5c6.66699 0 13.667 -0.333008 21 -1s13.666 -1.66699 18.999 -3l-6 -47c-0.666992 -5.33301 -3.5 -8.66602 -8.5 -9.99902s-11.167 -2 -18.5 -2c-21.333 0 -38.166 -8.83301 -50.499 -26.5
s-21.166 -44.834 -26.499 -81.501zM601.999 584.001l-55 0.000976562c-3.33301 0 -6.66602 0.666992 -9.99902 2s-6.33301 4 -9 8l-50 66c-1.33301 1.33301 -2.33301 2.83301 -3 4.5c-0.666992 2.33301 -1.66699 4.16602 -3 5.49902l-8 -10l-66 -66
c-6.66699 -6.66699 -13.334 -10 -20.001 -10h-58l118 132h76z" />
    <glyph glyph-name="f_itilde.liga" unicode="f&#x129;" horiz-adv-x="533" 
d="M202 496l283.999 0.000976562l-60 -496h-88l53 432h-193l-51 -416l-22 -103c-4 -12 -9.5 -21.167 -16.5 -27.5s-16.833 -9.5 -29.5 -9.5h-35l68 554l-50 7c-6.66699 1.33301 -12 3.66602 -16 6.99902s-5.33301 8.33301 -4 15l4 37h74l8 62
c6.66699 55.333 23 97.833 49 127.5s60.333 44.5 103 44.5c6.66699 0 13.667 -0.333008 21 -1s13.666 -1.66699 18.999 -3l-6 -47c-0.666992 -5.33301 -3.5 -8.66602 -8.5 -9.99902s-11.167 -2 -18.5 -2c-21.333 0 -38.166 -8.83301 -50.499 -26.5
s-21.166 -44.834 -26.499 -81.501zM517.999 662.001c22.667 0 35.6689 14.667 39.002 44h50c-1.33301 -16 -4.83301 -30.667 -10.5 -44s-12.5 -24.666 -20.5 -33.999s-17.333 -16.5 -28 -21.5s-22 -7.5 -34 -7.5c-10.667 0 -20.5 2.5 -29.5 7.5s-17.333 10.167 -25 15.5
s-14.834 10.5 -21.501 15.5s-13.667 7.5 -21 7.5c-22.667 0 -35.667 -14.667 -39 -44h-51c1.33301 16 4.83301 30.5 10.5 43.5s12.667 24.333 21 34s17.833 17 28.5 22s22 7.5 34 7.5c10.667 0 20.5 -2.33301 29.5 -7s17.167 -9.83398 24.5 -15.501s14.666 -11 21.999 -16
s14.333 -7.5 21 -7.5z" />
    <glyph glyph-name="f_idieresis.liga" unicode="f&#xef;" horiz-adv-x="533" 
d="M439 644c0 -6.66699 -1.50195 -13 -4.50195 -19s-6.83301 -11.333 -11.5 -16s-10.167 -8.33398 -16.5 -11.001c-7 -2.66699 -13.833 -4 -20.5 -4s-13 1.33301 -19 4s-11.333 6.33398 -16 11.001s-8.33398 10 -11.001 16s-4 12.333 -4 19
c0 7.33301 1.33301 14.166 4 20.499s6.33398 11.833 11.001 16.5s10 8.5 16 11.5s12.333 4.5 19 4.5s13.334 -1.5 20.001 -4.5s12.334 -6.83301 17.001 -11.5s8.5 -10.167 11.5 -16.5s4.5 -13.166 4.5 -20.499zM585.998 644c0 -6.66699 -1.33301 -13 -4 -19
s-6.5 -11.333 -11.5 -16s-10.667 -8.33398 -17 -11.001s-12.833 -4 -19.5 -4s-13.334 1.33301 -20.001 4s-12.334 6.33398 -17.001 11.001s-8.33398 10 -11.001 16s-4 12.333 -4 19c0 7.33301 1.33301 14.166 4 20.499s6.33398 11.833 11.001 16.5s10.334 8.5 17.001 11.5
s13.334 4.5 20.001 4.5s13.167 -1.5 19.5 -4.5s12 -6.83301 17 -11.5s8.83301 -10.167 11.5 -16.5s4 -13.166 4 -20.499zM201.998 496l283.999 0.000976562l-60 -496h-88l53 432h-193l-51 -416l-22 -103c-4 -12 -9.5 -21.167 -16.5 -27.5s-16.833 -9.5 -29.5 -9.5h-35
l68 554l-50 7c-6.66699 1.33301 -12 3.66602 -16 6.99902s-5.33301 8.33301 -4 15l4 37h74l8 62c6.66699 55.333 23 97.833 49 127.5s60.333 44.5 103 44.5c6.66699 0 13.667 -0.333008 21 -1s13.666 -1.66699 18.999 -3l-6 -47
c-0.666992 -5.33301 -3.5 -8.66602 -8.5 -9.99902s-11.167 -2 -18.5 -2c-21.333 0 -38.166 -8.83301 -50.499 -26.5s-21.166 -44.834 -26.499 -81.501z" />
    <glyph glyph-name="f_imacron.liga" unicode="f&#x12b;" horiz-adv-x="533" 
d="M202 496l283.999 0.000976562l-60 -496h-88l53 432h-193l-51 -416l-22 -103c-4 -12 -9.5 -21.167 -16.5 -27.5s-16.833 -9.5 -29.5 -9.5h-35l68 554l-50 7c-6.66699 1.33301 -12 3.66602 -16 6.99902s-5.33301 8.33301 -4 15l4 37h74l8 62
c6.66699 55.333 23 97.833 49 127.5s60.333 44.5 103 44.5c6.66699 0 13.667 -0.333008 21 -1s13.666 -1.66699 18.999 -3l-6 -47c-0.666992 -5.33301 -3.5 -8.66602 -8.5 -9.99902s-11.167 -2 -18.5 -2c-21.333 0 -38.166 -8.83301 -50.499 -26.5
s-21.166 -44.834 -26.499 -81.501zM335.999 674.001h264l-6 -58h-265z" />
    <glyph glyph-name="f_ibreve.liga" unicode="f&#x12d;" horiz-adv-x="533" 
d="M202 496l283.999 0.000976562l-60 -496h-88l53 432h-193l-51 -416l-22 -103c-4 -12 -9.5 -21.167 -16.5 -27.5s-16.833 -9.5 -29.5 -9.5h-35l68 554l-50 7c-6.66699 1.33301 -12 3.66602 -16 6.99902s-5.33301 8.33301 -4 15l4 37h74l8 62
c6.66699 55.333 23 97.833 49 127.5s60.333 44.5 103 44.5c6.66699 0 13.667 -0.333008 21 -1s13.666 -1.66699 18.999 -3l-6 -47c-0.666992 -5.33301 -3.5 -8.66602 -8.5 -9.99902s-11.167 -2 -18.5 -2c-21.333 0 -38.166 -8.83301 -50.499 -26.5
s-21.166 -44.834 -26.499 -81.501zM457.999 582.001c-23.333 0 -42.834 3.66602 -58.501 10.999s-27.667 17 -36 29s-13.666 26.167 -15.999 42.5c-2.33301 15.667 -2.83301 32.834 -1.5 51.501h59c-1.33301 -10.667 -1.5 -20.667 -0.5 -30s3.83301 -17.333 8.5 -24
s11 -12 19 -16s18.667 -6 32 -6s24.5 2 33.5 6s16.5 9.33301 22.5 16s10.5 14.667 13.5 24s5.16699 19.333 6.5 30h58c-2 -18.667 -6 -36 -12 -52s-14.5 -30 -25.5 -42s-25 -21.667 -42 -29s-37.167 -11 -60.5 -11z" />
    <glyph glyph-name="f_iogonek.liga" unicode="f&#x12f;" horiz-adv-x="533" 
d="M428 -106c4 0 6.66699 -1.99512 8 -5.99512l10 -33c-10.667 -8 -23.334 -14.333 -38.001 -19s-30 -7 -46 -7c-26 0 -45.833 5.83301 -59.5 17.5s-20.5 27.167 -20.5 46.5c0 21.333 7 41 21 59s32.333 34 55 48h-20l53 432h-193l-51 -416l-23 -104
c-4 -12 -9.66699 -21.167 -17 -27.5s-17 -9.5 -29 -9.5h-36l69 556l-49 6c-6.66699 1.33301 -12 3.66602 -16 6.99902s-5.33301 8.33301 -4 15l4 37h73l3 28c4 30.667 12.167 59 24.5 85s28.666 48.167 48.999 66.5s44.5 32.666 72.5 42.999s60 15.5 96 15.5
c6 0 12.167 -0.333008 18.5 -1s12.833 -1.33398 19.5 -2.00098s12.834 -1.66699 18.501 -3c6.33301 -1.33301 11.5 -2.66602 15.5 -3.99902l-10 -46c-0.666992 -3.33301 -2.16699 -5.5 -4.5 -6.5s-5.5 -1.83301 -9.5 -2.5s-8.66699 -0.666992 -14 0s-11.333 1 -18 1
c-28 0 -52.167 -3 -72.5 -9s-37.5 -15 -51.5 -27s-25.167 -27.333 -33.5 -46s-13.833 -40.334 -16.5 -65.001l-4 -27h284l-60 -496h-12c-6.66699 -4 -13.667 -8.66699 -21 -14s-14 -11.666 -20 -18.999s-11 -15 -15 -23s-6 -16.667 -6 -26c0 -10.667 3 -19.334 9 -26.001
s14.333 -10 25 -10c6.66699 0 12.334 0.666992 17.001 2s8.66699 2.66602 12 3.99902s6 2.66602 8 3.99902s3.66699 2 5 2z" />
    <glyph glyph-name="f_dotlessi.liga" unicode="f&#x131;" horiz-adv-x="533" 
d="M202 496l283.999 0.000976562l-60 -496h-88l53 432h-193l-51 -416l-22 -103c-4 -12 -9.5 -21.167 -16.5 -27.5s-16.833 -9.5 -29.5 -9.5h-35l68 554l-50 7c-6.66699 1.33301 -12 3.66602 -16 6.99902s-5.33301 8.33301 -4 15l4 37h74l8 62
c6.66699 55.333 23 97.833 49 127.5s60.333 44.5 103 44.5c6.66699 0 13.667 -0.333008 21 -1s13.666 -1.66699 18.999 -3l-6 -47c-0.666992 -5.33301 -3.5 -8.66602 -8.5 -9.99902s-11.167 -2 -18.5 -2c-21.333 0 -38.166 -8.83301 -50.499 -26.5
s-21.166 -44.834 -26.499 -81.501z" />
    <glyph glyph-name="f_f_igrave.liga" unicode="ff&#xec;" horiz-adv-x="824" 
d="M768 434l-52 -434h-86l52 434h-194l-50 -418l-22 -103c-4 -12 -9.66699 -21.167 -17 -27.5s-17 -9.5 -29 -9.5h-36l68 558h-204l-50 -418l-24 -103c-4 -12 -9.33301 -21.167 -16 -27.5s-16.667 -9.5 -30 -9.5h-34l68 557l-50 7c-6.66699 1.33301 -12 3.66602 -16 6.99902
s-5.33301 8.33301 -4 15l4 34h74l4 42c4 29.333 11.333 55.166 22 77.499s24 41.333 40 57s34.667 27.5 56 35.5s44 12 68 12c20 0 38.667 -3.33301 56 -10l-8 -47c-1.33301 -3.33301 -3.16602 -5.66602 -5.49902 -6.99902s-5.33301 -2.16602 -9 -2.49902
s-7.83398 -0.333008 -12.501 0s-10 0.5 -16 0.5c-14 0 -27 -2 -39 -6s-22.5 -10.333 -31.5 -19s-16.667 -20.167 -23 -34.5c-6.33301 -15 -10.833 -33.167 -13.5 -54.5l-6 -44h208l8 62c6.66699 55.333 23.167 97.833 49.5 127.5c25.667 29.667 59.834 44.5 102.501 44.5
c6.66699 0 13.667 -0.333008 21 -1s13.666 -1.66699 18.999 -3l-6 -47c-0.666992 -5.33301 -3.33398 -8.66602 -8.00098 -9.99902s-11 -2 -19 -2c-21.333 0 -38.166 -8.83301 -50.499 -26.5s-20.833 -44.834 -25.5 -81.501l-8 -63h283l-7 -62h-1zM704 724
c10 0 17.167 -1.66699 21.5 -5s8.5 -9 12.5 -17l54 -120h-46c-6.66699 0 -12 1 -16 3s-7.66699 5.66699 -11 11l-93 128h78z" />
    <glyph glyph-name="f_f_icircumflex.liga" unicode="ff&#xee;" horiz-adv-x="824" 
d="M768 434l-52 -434h-86l52 434h-194l-50 -418l-22 -103c-4 -12 -9.66699 -21.167 -17 -27.5s-17 -9.5 -29 -9.5h-36l68 558h-204l-50 -418l-24 -103c-4 -12 -9.33301 -21.167 -16 -27.5s-16.667 -9.5 -30 -9.5h-34l68 557l-50 7c-6.66699 1.33301 -12 3.66602 -16 6.99902
s-5.33301 8.33301 -4 15l4 34h74l4 42c4 29.333 11.333 55.166 22 77.499s24 41.333 40 57s34.667 27.5 56 35.5s44 12 68 12c20 0 38.667 -3.33301 56 -10l-8 -47c-1.33301 -3.33301 -3.16602 -5.66602 -5.49902 -6.99902s-5.33301 -2.16602 -9 -2.49902
s-7.83398 -0.333008 -12.501 0s-10 0.5 -16 0.5c-14 0 -27 -2 -39 -6s-22.5 -10.333 -31.5 -19s-16.667 -20.167 -23 -34.5c-6.33301 -15 -10.833 -33.167 -13.5 -54.5l-6 -44h208l8 62c6.66699 55.333 23.167 97.833 49.5 127.5c25.667 29.667 59.834 44.5 102.501 44.5
c6.66699 0 13.667 -0.333008 21 -1s13.666 -1.66699 18.999 -3l-6 -47c-0.666992 -5.33301 -3.33398 -8.66602 -8.00098 -9.99902s-11 -2 -19 -2c-21.333 0 -38.166 -8.83301 -50.499 -26.5s-20.833 -44.834 -25.5 -81.501l-8 -63h283l-7 -62h-1zM888 584
l-54.001 0.000976562c-3.33301 0 -6.66602 0.666992 -9.99902 2c-4 1.33301 -7.33301 4 -10 8l-49 66c-1.33301 1.33301 -2.5 2.83301 -3.5 4.5c-1 2.33301 -2.16699 4.16602 -3.5 5.49902l-8 -10l-65 -66c-6.66699 -6.66699 -13.667 -10 -21 -10h-57l117 132h76z" />
    <glyph glyph-name="f_f_itilde.liga" unicode="ff&#x129;" horiz-adv-x="824" 
d="M768 434l-52 -434h-86l52 434h-194l-50 -418l-22 -103c-4 -12 -9.66699 -21.167 -17 -27.5s-17 -9.5 -29 -9.5h-36l68 558h-204l-50 -418l-24 -103c-4 -12 -9.33301 -21.167 -16 -27.5s-16.667 -9.5 -30 -9.5h-34l68 557l-50 7c-6.66699 1.33301 -12 3.66602 -16 6.99902
s-5.33301 8.33301 -4 15l4 34h74l4 42c4 29.333 11.333 55.166 22 77.499s24 41.333 40 57s34.667 27.5 56 35.5s44 12 68 12c20 0 38.667 -3.33301 56 -10l-8 -47c-1.33301 -3.33301 -3.16602 -5.66602 -5.49902 -6.99902s-5.33301 -2.16602 -9 -2.49902
s-7.83398 -0.333008 -12.501 0s-10 0.5 -16 0.5c-14 0 -27 -2 -39 -6s-22.5 -10.333 -31.5 -19s-16.667 -20.167 -23 -34.5c-6.33301 -15 -10.833 -33.167 -13.5 -54.5l-6 -44h208l8 62c6.66699 55.333 23.167 97.833 49.5 127.5c25.667 29.667 59.834 44.5 102.501 44.5
c6.66699 0 13.667 -0.333008 21 -1s13.666 -1.66699 18.999 -3l-6 -47c-0.666992 -5.33301 -3.33398 -8.66602 -8.00098 -9.99902s-11 -2 -19 -2c-21.333 0 -38.166 -8.83301 -50.499 -26.5s-20.833 -44.834 -25.5 -81.501l-8 -63h283l-7 -62h-1zM810 662
c22.667 0 35.6689 14.667 39.002 44h50c-1.33301 -16 -4.83301 -30.667 -10.5 -44s-12.5 -24.666 -20.5 -33.999s-17.333 -16.5 -28 -21.5s-22 -7.5 -34 -7.5c-10.667 0 -20.5 2.5 -29.5 7.5s-17.333 10.167 -25 15.5s-14.834 10.5 -21.501 15.5s-13.667 7.5 -21 7.5
c-22.667 0 -35.667 -14.667 -39 -44h-51c1.33301 16 4.83301 30.5 10.5 43.5s12.667 24.333 21 34s17.833 17 28.5 22s22 7.5 34 7.5c10.667 0 20.5 -2.33301 29.5 -7s17.167 -9.83398 24.5 -15.501s14.666 -11 21.999 -16s14.333 -7.5 21 -7.5z" />
    <glyph glyph-name="f_f_idieresis.liga" unicode="ff&#xef;" horiz-adv-x="823" 
d="M746 644c0 -6.66699 -1.49805 -13 -4.49805 -19s-6.83301 -11.333 -11.5 -16s-10.167 -8.33398 -16.5 -11.001s-12.833 -4 -19.5 -4s-13.334 1.33301 -20.001 4s-12.334 6.33398 -17.001 11.001s-8.33398 10 -11.001 16s-4 12.333 -4 19
c0 7.33301 1.33301 14.166 4 20.499s6.33398 11.833 11.001 16.5s10.167 8.5 16.5 11.5c7 3 13.833 4.5 20.5 4.5s13.167 -1.5 19.5 -4.5s11.833 -6.83301 16.5 -11.5s8.5 -10.167 11.5 -16.5s4.5 -13.166 4.5 -20.499zM892.002 644c0 -6.66699 -1.33301 -13 -4 -19
s-6.33398 -11.333 -11.001 -16s-10.334 -8.33398 -17.001 -11.001s-13.334 -4 -20.001 -4s-13.167 1.33301 -19.5 4s-11.833 6.33398 -16.5 11.001s-8.33398 10 -11.001 16s-4 12.333 -4 19c0 7.33301 1.33301 14.166 4 20.499s6.33398 11.833 11.001 16.5
s10.167 8.5 16.5 11.5s12.833 4.5 19.5 4.5s13.334 -1.5 20.001 -4.5s12.334 -6.83301 17.001 -11.5s8.33398 -10.167 11.001 -16.5s4 -13.166 4 -20.499zM768.002 434l-52 -434h-86l52 434h-194l-50 -418l-22 -103c-4 -12 -9.66699 -21.167 -17 -27.5s-17 -9.5 -29 -9.5
h-36l68 558h-204l-50 -418l-24 -103c-4 -12 -9.33301 -21.167 -16 -27.5s-16.667 -9.5 -30 -9.5h-34l68 557l-50 7c-6.66699 1.33301 -12 3.66602 -16 6.99902s-5.33301 8.33301 -4 15l4 34h74l4 42c4 29.333 11.333 55.166 22 77.499s24 41.333 40 57s34.667 27.5 56 35.5
s44 12 68 12c20 0 38.667 -3.33301 56 -10l-8 -47c-1.33301 -3.33301 -3.16602 -5.66602 -5.49902 -6.99902s-5.33301 -2.16602 -9 -2.49902s-7.83398 -0.333008 -12.501 0s-10 0.5 -16 0.5c-14 0 -27 -2 -39 -6s-22.5 -10.333 -31.5 -19s-16.667 -20.167 -23 -34.5
c-6.33301 -15 -10.833 -33.167 -13.5 -54.5l-6 -44h208l8 62c6.66699 55.333 23.167 97.833 49.5 127.5c25.667 29.667 59.834 44.5 102.501 44.5c6.66699 0 13.667 -0.333008 21 -1s13.666 -1.66699 18.999 -3l-6 -47
c-0.666992 -5.33301 -3.33398 -8.66602 -8.00098 -9.99902s-11 -2 -19 -2c-21.333 0 -38.166 -8.83301 -50.499 -26.5s-20.833 -44.834 -25.5 -81.501l-8 -63h283l-7 -62h-1z" />
    <glyph glyph-name="f_f_imacron.liga" unicode="ff&#x12b;" horiz-adv-x="824" 
d="M768 434l-52 -434h-86l52 434h-194l-50 -418l-22 -103c-4 -12 -9.66699 -21.167 -17 -27.5s-17 -9.5 -29 -9.5h-36l68 558h-204l-50 -418l-24 -103c-4 -12 -9.33301 -21.167 -16 -27.5s-16.667 -9.5 -30 -9.5h-34l68 557l-50 7c-6.66699 1.33301 -12 3.66602 -16 6.99902
s-5.33301 8.33301 -4 15l4 34h74l4 42c4 29.333 11.333 55.166 22 77.499s24 41.333 40 57s34.667 27.5 56 35.5s44 12 68 12c20 0 38.667 -3.33301 56 -10l-8 -47c-1.33301 -3.33301 -3.16602 -5.66602 -5.49902 -6.99902s-5.33301 -2.16602 -9 -2.49902
s-7.83398 -0.333008 -12.501 0s-10 0.5 -16 0.5c-14 0 -27 -2 -39 -6s-22.5 -10.333 -31.5 -19s-16.667 -20.167 -23 -34.5c-6.33301 -15 -10.833 -33.167 -13.5 -54.5l-6 -44h208l8 62c6.66699 55.333 23.167 97.833 49.5 127.5c25.667 29.667 59.834 44.5 102.501 44.5
c6.66699 0 13.667 -0.333008 21 -1s13.666 -1.66699 18.999 -3l-6 -47c-0.666992 -5.33301 -3.33398 -8.66602 -8.00098 -9.99902s-11 -2 -19 -2c-21.333 0 -38.166 -8.83301 -50.499 -26.5s-20.833 -44.834 -25.5 -81.501l-8 -63h283l-7 -62h-1zM622 674h264l-6 -58h-265z
" />
    <glyph glyph-name="f_f_ibreve.liga" unicode="ff&#x12d;" horiz-adv-x="824" 
d="M768 434l-52 -434h-86l52 434h-194l-50 -418l-22 -103c-4 -12 -9.66699 -21.167 -17 -27.5s-17 -9.5 -29 -9.5h-36l68 558h-204l-50 -418l-24 -103c-4 -12 -9.33301 -21.167 -16 -27.5s-16.667 -9.5 -30 -9.5h-34l68 557l-50 7c-6.66699 1.33301 -12 3.66602 -16 6.99902
s-5.33301 8.33301 -4 15l4 34h74l4 42c4 29.333 11.333 55.166 22 77.499s24 41.333 40 57s34.667 27.5 56 35.5s44 12 68 12c20 0 38.667 -3.33301 56 -10l-8 -47c-1.33301 -3.33301 -3.16602 -5.66602 -5.49902 -6.99902s-5.33301 -2.16602 -9 -2.49902
s-7.83398 -0.333008 -12.501 0s-10 0.5 -16 0.5c-14 0 -27 -2 -39 -6s-22.5 -10.333 -31.5 -19s-16.667 -20.167 -23 -34.5c-6.33301 -15 -10.833 -33.167 -13.5 -54.5l-6 -44h208l8 62c6.66699 55.333 23.167 97.833 49.5 127.5c25.667 29.667 59.834 44.5 102.501 44.5
c6.66699 0 13.667 -0.333008 21 -1s13.666 -1.66699 18.999 -3l-6 -47c-0.666992 -5.33301 -3.33398 -8.66602 -8.00098 -9.99902s-11 -2 -19 -2c-21.333 0 -38.166 -8.83301 -50.499 -26.5s-20.833 -44.834 -25.5 -81.501l-8 -63h283l-7 -62h-1zM746 582
c-23.333 0 -42.834 3.66602 -58.501 10.999s-27.667 17 -36 29s-13.666 26.167 -15.999 42.5c-2.33301 15.667 -2.83301 32.834 -1.5 51.501h59c-1.33301 -10.667 -1.5 -20.667 -0.5 -30s3.83301 -17.333 8.5 -24s11 -12 19 -16s18.667 -6 32 -6s24.5 2 33.5 6
s16.5 9.33301 22.5 16s10.5 14.667 13.5 24s5.16699 19.333 6.5 30h58c-2 -18.667 -6 -36 -12 -52s-14.5 -30 -25.5 -42s-25 -21.667 -42 -29s-37.167 -11 -60.5 -11z" />
    <glyph glyph-name="f_f_iogonek.liga" unicode="ff&#x12f;" horiz-adv-x="824" 
d="M768 434l-52.001 -433.998h-12c-6.66699 -4 -14 -8.66699 -22 -14s-15 -11.666 -21 -18.999s-11 -15 -15 -23s-6 -16.667 -6 -26c0 -10.667 3.33301 -19.334 10 -26.001s15.334 -10 26.001 -10c6.66699 0 12.334 0.666992 17.001 2s8.5 2.66602 11.5 3.99902
s5.5 2.66602 7.5 3.99902c2.66699 1.33301 4.66699 2 6 2c4 0 6.66699 -2 8 -6l10 -33c-10.667 -8 -23.5 -14.333 -38.5 -19s-30.5 -7 -46.5 -7c-26 0 -46 5.83301 -60 17.5s-21 27.167 -21 46.5c0 21.333 7.16699 41 21.5 59s32.833 34 55.5 48h-17l52 434h-194l-50 -418
l-24 -104c-4 -12 -9.5 -21.167 -16.5 -27.5s-16.833 -9.5 -29.5 -9.5h-35l69 559h-204l-50 -418l-24 -103c-4 -12 -9.33301 -21.167 -16 -27.5s-16.667 -9.5 -30 -9.5h-34l68 557l-50 7c-6.66699 1.33301 -12 3.66602 -16 6.99902s-5.33301 8.33301 -4 15l4 34h74l4 42
c4 29.333 11.333 55.166 22 77.499s24 41.333 40 57s34.667 27.5 56 35.5s44 12 68 12c20 0 38.667 -3.33301 56 -10l-8 -47c-1.33301 -3.33301 -3.16602 -5.66602 -5.49902 -6.99902s-5.33301 -2.16602 -9 -2.49902s-7.83398 -0.333008 -12.501 0s-10 0.5 -16 0.5
c-14 0 -27 -2 -39 -6s-22.5 -10.333 -31.5 -19s-16.667 -20.167 -23 -34.5c-6.33301 -15 -10.833 -33.167 -13.5 -54.5l-6 -44h208l3 28c4 30.667 12.167 59 24.5 85s28.5 48.167 48.5 66.5s44 32.666 72 42.999s60 15.5 96 15.5c5.33301 0 11.333 -0.333008 18 -1l20 -2
c6.66699 -0.666992 13 -1.66699 19 -3s11 -2.66602 15 -3.99902l-9 -46c-0.666992 -3.33301 -2.33398 -5.5 -5.00098 -6.5s-6 -1.83301 -10 -2.5s-8.66699 -0.666992 -14 0s-11.333 1 -18 1c-54.667 0 -95.667 -12 -123 -36s-44.333 -61 -51 -111l-3 -27h283l-7 -62h-1z" />
    <glyph glyph-name="f_f_dotlessi.liga" unicode="ff&#x131;" horiz-adv-x="824" 
d="M768 434l-52 -434h-86l52 434h-194l-50 -418l-22 -103c-4 -12 -9.66699 -21.167 -17 -27.5s-17 -9.5 -29 -9.5h-36l68 558h-204l-50 -418l-24 -103c-4 -12 -9.33301 -21.167 -16 -27.5s-16.667 -9.5 -30 -9.5h-34l68 557l-50 7c-6.66699 1.33301 -12 3.66602 -16 6.99902
s-5.33301 8.33301 -4 15l4 34h74l4 42c4 29.333 11.333 55.166 22 77.499s24 41.333 40 57s34.667 27.5 56 35.5s44 12 68 12c20 0 38.667 -3.33301 56 -10l-8 -47c-1.33301 -3.33301 -3.16602 -5.66602 -5.49902 -6.99902s-5.33301 -2.16602 -9 -2.49902
s-7.83398 -0.333008 -12.501 0s-10 0.5 -16 0.5c-14 0 -27 -2 -39 -6s-22.5 -10.333 -31.5 -19s-16.667 -20.167 -23 -34.5c-6.33301 -15 -10.833 -33.167 -13.5 -54.5l-6 -44h208l8 62c6.66699 55.333 23.167 97.833 49.5 127.5c25.667 29.667 59.834 44.5 102.501 44.5
c6.66699 0 13.667 -0.333008 21 -1s13.666 -1.66699 18.999 -3l-6 -47c-0.666992 -5.33301 -3.33398 -8.66602 -8.00098 -9.99902s-11 -2 -19 -2c-21.333 0 -38.166 -8.83301 -50.499 -26.5s-20.833 -44.834 -25.5 -81.501l-8 -63h283l-7 -62h-1z" />
    <glyph glyph-name="f_j.liga" unicode="fj" horiz-adv-x="533" 
d="M486 496l-64.9961 -534c-2.66699 -20 -7.83398 -38.667 -15.501 -56s-17.834 -32.666 -30.501 -45.999s-27.667 -23.666 -45 -30.999s-37.333 -11 -60 -11c-12 0 -22 0.833008 -30 2.5s-16 4.16699 -24 7.5l9 48c1.33301 2.66699 2.83301 4.83398 4.5 6.50098
s3.66699 2.66699 6 3s5.33301 0.5 9 0.5h14.5c23.333 0 40.666 6 51.999 18s19 31.333 23 58l57 472h-192l-51 -418l-24 -104c-4 -12 -9.5 -21.167 -16.5 -27.5s-16.833 -9.5 -29.5 -9.5h-35l69 559l-50 6c-6.66699 1.33301 -12 3.66602 -16 6.99902s-5.33301 8.33301 -4 15
l4 34h74l3 28c4 30.667 12.167 59 24.5 85s28.5 48.167 48.5 66.5s44 32.666 72 42.999s60 15.5 96 15.5c6 0 12.167 -0.333008 18.5 -1s12.833 -1.33398 19.5 -2.00098s13 -1.66699 19 -3s11 -2.66602 15 -3.99902l-9 -46c-0.666992 -3.33301 -2.33398 -5.5 -5.00098 -6.5
s-6 -1.83301 -10 -2.5s-8.66699 -0.666992 -14 0s-11.333 1 -18 1c-28 0 -52 -3 -72 -9s-37 -15 -51 -27s-25.167 -27.333 -33.5 -46c-9 -18.667 -14.833 -40.334 -17.5 -65.001l-3 -27h283z" />
    <glyph glyph-name="f_f_j.liga" unicode="ffj" horiz-adv-x="824" 
d="M202 496l208.003 -0.000976562l3 28c4 30.667 12.167 59 24.5 85s28.5 48.167 48.5 66.5s44 32.666 72 42.999s60 15.5 96 15.5c5.33301 0 11.333 -0.333008 18 -1l20 -2c6.66699 -0.666992 13 -1.66699 19 -3s11 -2.66602 15 -3.99902l-9 -46
c-0.666992 -3.33301 -2.33398 -5.5 -5.00098 -6.5s-6 -1.83301 -10 -2.5s-8.66699 -0.666992 -14 0s-11.333 1 -18 1c-54.667 0 -95.667 -12 -123 -36s-44.333 -61 -51 -111l-3 -27h283l-7 -62l-57 -472c-2.66699 -20 -7.66699 -38.833 -15 -56.5s-17.333 -33 -30 -46
s-28 -23.167 -46 -30.5s-38 -11 -60 -11c-12 0 -22 0.666992 -30 2s-16 4 -24 8l9 48c1.33301 2.66699 2.66602 4.66699 3.99902 6s3.33301 2.33301 6 3s6 0.833984 10 0.500977s8.66699 -0.5 14 -0.5c23.333 0 40.666 6.16699 51.999 18.5c10.667 12.333 18 31.833 22 58.5
l58 472h-194l-50 -418l-24 -104c-4 -12 -9.5 -21.167 -16.5 -27.5s-16.833 -9.5 -29.5 -9.5h-35l69 559h-204l-50 -418l-24 -103c-4 -12 -9.33301 -21.167 -16 -27.5s-16.667 -9.5 -30 -9.5h-34l68 557l-50 7c-6.66699 1.33301 -12 3.66602 -16 6.99902
s-5.33301 8.33301 -4 15l4 34h74l4 42c4 29.333 11.333 55.166 22 77.499s24 41.333 40 57s34.667 27.5 56 35.5s44 12 68 12c20 0 38.667 -3.33301 56 -10l-8 -47c-1.33301 -3.33301 -3.16602 -5.66602 -5.49902 -6.99902s-5.33301 -2.16602 -9 -2.49902
s-7.83398 -0.333008 -12.501 0s-10 0.5 -16 0.5c-14 0 -27 -2 -39 -6s-22.5 -10.333 -31.5 -19s-16.667 -20.167 -23 -34.5c-6.33301 -15 -10.833 -33.167 -13.5 -54.5z" />
    <glyph glyph-name="f_k.liga" unicode="fk" horiz-adv-x="797" 
d="M198 432l-51.001 -416l-23 -104c-4 -12 -9.66699 -21.167 -17 -27.5s-17 -9.5 -29 -9.5h-36l70 556l-50 6c-6.66699 1.33301 -12 3.66602 -16 6.99902s-5.33301 8.33301 -4 15l4 37h74l5 44c3.33301 28 10.666 54.667 21.999 80s26.333 47.333 45 66s41 33.334 67 44.001
s55 16 87 16c17.333 0 34.333 -0.333008 51 -1s32.334 -1.66699 47.001 -3s28.667 -2.5 42 -3.5c13.333 -1.66699 26 -2.5 38 -2.5h7l-53 -433h15c6.66699 0 12.167 0.833008 16.5 2.5s9.16602 5.5 14.499 11.5l168 171c4.66699 5.33301 9.66699 9.66602 15 12.999
c4.66699 3.33301 11 5 19 5h80l-196 -198c-9.33301 -12 -19.333 -20.667 -30 -26c5.33301 -4 9.83301 -8.66699 13.5 -14s7.16699 -11.333 10.5 -18l152 -250h-76c-7.33301 0 -13.5 1.33301 -18.5 4s-8.83301 7.33398 -11.5 14.001l-130 207c-4 6.66699 -8 11.167 -12 13.5
s-10.667 3.5 -20 3.5h-18l-29 -242h-88l83 677c-14 2 -28.167 4.33301 -42.5 7s-28.166 4 -41.499 4c-20 0 -38.167 -3.5 -54.5 -10.5s-30.666 -17 -42.999 -30s-22.5 -28.5 -30.5 -46.5s-13.333 -38.333 -16 -61l-5 -44h123l-7 -64h-121z" />
    <glyph glyph-name="f_f_k.liga" unicode="ffk" horiz-adv-x="1089" 
d="M203 496l206.999 -0.00195312l6 44c3.33301 28 10.5 54.667 21.5 80s26 47.333 45 66s41.333 33.334 67 44.001s54.834 16 87.501 16c18 0 35.667 -0.333008 53 -1s33.666 -1.66699 48.999 -3s30 -2.66602 44 -3.99902s26.667 -2 38 -2h1l-52 -433h14
c6.66699 0 12.334 0.833008 17.001 2.5s9.66699 5.5 15 11.5l168 171c4.66699 5.33301 9.5 9.66602 14.5 12.999s11.5 5 19.5 5h79l-195 -198c-10 -12 -20.333 -20.667 -31 -26c5.33301 -4 9.83301 -8.66699 13.5 -14s7.5 -11.333 11.5 -18l152 -250h-77
c-7.33301 0 -13.333 1.33301 -18 4s-8.66699 7.33398 -12 14.001l-129 207c-4 6.66699 -8.16699 11.167 -12.5 13.5s-11.166 3.5 -20.499 3.5h-17l-30 -242h-88l84 677c-14 2 -28.333 4.33301 -43 7c-15.333 2.66699 -29.666 4 -42.999 4c-20 0 -38 -3.5 -54 -10.5
s-30.333 -17 -43 -30s-22.834 -28.5 -30.501 -46.5c-7 -18 -11.833 -38.333 -14.5 -61l-6 -44h132l-8 -63h-129l-51 -417l-24 -104c-4 -12 -9.5 -21.167 -16.5 -27.5s-16.833 -9.5 -29.5 -9.5h-34l68 558h-204l-50 -417l-23 -103c-4 -12 -9.5 -21.167 -16.5 -27.5
s-16.833 -9.5 -29.5 -9.5h-35l68 556l-50 6c-6.66699 1.33301 -12 3.66602 -16 6.99902s-5.33301 8.33301 -4 15l4 36h74l5 42c4 29.333 11.167 55.166 21.5 77.499s23.666 41.333 39.999 57s35 27.5 56 35.5s43.5 12 67.5 12c20 0 38.667 -3.33301 56 -10l-8 -47
c-1.33301 -3.33301 -3 -5.66602 -5 -6.99902s-5 -2.16602 -9 -2.49902s-8.33301 -0.333008 -13 0s-9.66699 0.5 -15 0.5c-14 0 -27 -2 -39 -6s-22.5 -10.333 -31.5 -19s-16.667 -20.167 -23 -34.5c-6.33301 -15 -10.833 -33.167 -13.5 -54.5z" />
    <glyph glyph-name="f_t.liga" unicode="ft" horiz-adv-x="654" 
d="M203 496l216.999 0.000976562l38 158c1.33301 5.33301 3.66602 9.5 6.99902 12.5s7.66602 4.5 12.999 4.5h48l-22 -175h133l-7 -62h-134l-30 -251c-1.33301 -13.333 -2.66602 -24.166 -3.99902 -32.499s-2.33301 -15.166 -3 -20.499s-1 -9 -1 -11v-4
c0 -17.333 4 -30 12 -38s18.667 -12 32 -12c8.66699 0 16.334 1.16699 23.001 3.5s12.5 5.16602 17.5 8.49902s9.16699 6.16602 12.5 8.49902s6.33301 3.5 9 3.5c5.33301 -0.666992 8.66602 -3.66699 9.99902 -9l19 -42c-16 -14.667 -34.5 -26 -55.5 -34
s-41.833 -12 -62.5 -12c-32 0 -57.5 8.83301 -76.5 26.5c-19 18.333 -28.5 44.166 -28.5 77.499v7.5c0 3 0.333008 7.5 1 13.5s1.33398 13.833 2.00098 23.5c0.666992 9 2.33398 21.5 5.00098 37.5l31 256h-210l-51 -418l-24 -103c-4 -12 -9.33301 -21.167 -16 -27.5
s-16.667 -9.5 -30 -9.5h-34l67 558l-49 6c-6.66699 1.33301 -12 3.66602 -16 6.99902s-5.33301 8.33301 -4 15l4 34h73l6 50c4 29.333 11.333 55 22 77s24.167 40.833 40.5 56.5s35.166 27.5 56.499 35.5s44.333 12 69 12c20.667 0 39.667 -3.33301 57 -10l-9 -46
c-0.666992 -3.33301 -2.16699 -5.66602 -4.5 -6.99902s-5.33301 -2.33301 -9 -3s-8 -0.833984 -13 -0.500977c-5.66699 0.333008 -11.167 0.5 -16.5 0.5c-14.667 0 -28 -2.16699 -40 -6.5s-22.667 -11.166 -32 -20.499s-17.166 -21.333 -23.499 -36s-10.833 -33 -13.5 -55z
" />
    <glyph glyph-name="f_f_t.liga" unicode="fft" horiz-adv-x="945" 
d="M492 496l217.995 0.00292969l38 158c1.33301 5.33301 4 9.5 8 12.5s8.66699 4.5 14 4.5h46l-22 -175h134l-8 -63h-133l-31 -250c-1.33301 -13.333 -2.66602 -24.166 -3.99902 -32.499s-2.16602 -15.166 -2.49902 -20.499s-0.666016 -9 -0.999023 -11
s-0.5 -3.33301 -0.5 -4c0 -17.333 4 -30 12 -38s19 -12 33 -12c8.66699 0 16.334 1.16699 23.001 3.5s12.334 5.16602 17.001 8.49902s8.66699 6.16602 12 8.49902s6.33301 3.5 9 3.5s4.83398 -0.666992 6.50098 -2c2.33301 -2 4.16602 -4.33301 5.49902 -7l18 -42
c-16 -14.667 -34.333 -26 -55 -34s-41.667 -12 -63 -12c-32 0 -57.333 8.83301 -76 26.5c-18.667 18.333 -28.667 44.166 -30 77.499c0 2 0.166992 4.5 0.5 7.5s0.666016 7.5 0.999023 13.5s1.16602 13.833 2.49902 23.5c1.33301 9 2.66602 21.5 3.99902 37.5l32 255h-212
l-50 -417l-24 -103c-4 -12 -9.5 -21.167 -16.5 -27.5s-16.833 -9.5 -29.5 -9.5h-35l67 557h-202l-50 -417l-24 -103c-4 -12 -9.5 -21.167 -16.5 -27.5s-16.833 -9.5 -29.5 -9.5h-35l68 556l-49 6c-6.66699 1.33301 -12 3.66602 -16 6.99902s-5.33301 8.33301 -4 15l4 36h72
l6 42c4 29.333 11.333 55.166 22 77.499s24 41.333 40 57s34.5 27.5 55.5 35.5s43.5 12 67.5 12c20.667 0 39.667 -3.33301 57 -10l-9 -47c-1.33301 -3.33301 -3.16602 -5.66602 -5.49902 -6.99902s-5.16602 -2.16602 -8.49902 -2.49902s-7.5 -0.333008 -12.5 0
c-5.66699 0.333008 -11.167 0.5 -16.5 0.5c-14 0 -26.833 -2 -38.5 -6s-22 -10.333 -31 -19s-16.667 -20.167 -23 -34.5c-6.33301 -15 -10.833 -33.167 -13.5 -54.5l-6 -44h206l6 55c4 29.333 11.333 55.166 22 77.499s24.334 41.166 41.001 56.499s35.667 27 57 35
s44 12 68 12c20 0 39 -3.33301 57 -10l-9 -46c-1.33301 -3.33301 -3 -5.5 -5 -6.5s-4.83301 -1.83301 -8.5 -2.5s-8 -1 -13 -1h-15.5c-14.667 0 -28 -2 -40 -6s-22.667 -10.667 -32 -20s-17 -21.5 -23 -36.5c-6 -15.667 -10.333 -34.167 -13 -55.5z" />
    <glyph glyph-name="t_f.liga" unicode="tf" horiz-adv-x="637" 
d="M512 496h133.999l-8 -63h-130l-51 -417l-23 -104c-4 -12 -9.66699 -21.167 -17 -27.5s-17 -9.5 -29 -9.5h-36l68 558h-224l-31 -250c-1.33301 -13.333 -2.5 -24.166 -3.5 -32.499s-1.83301 -15.166 -2.5 -20.499s-1 -9 -1 -11v-4c0 -17.333 4 -30 12 -38
s18.667 -12 32 -12c8.66699 0 16.334 1.16699 23.001 3.5s12.5 5.16602 17.5 8.49902s9.16699 6.16602 12.5 8.49902s6.33301 3.5 9 3.5s4.66699 -0.666992 6 -2c1.33301 -2 2.66602 -4.33301 3.99902 -7l19 -42c-16 -14.667 -34.5 -26 -55.5 -34s-41.833 -12 -62.5 -12
c-32 0 -57.5 8.83301 -76.5 26.5c-19 18.333 -28.5 44.166 -28.5 77.499v7.5c0 3 0.333008 7.5 1 13.5s1.33398 13.833 2.00098 23.5c0.666992 9 2.33398 21.5 5.00098 37.5l31 255h-55c-5.33301 0 -9.33301 1.66699 -12 5c-2.66699 2.66699 -4 7.33398 -4 14.001l4 34
l78 10l38 158c1.33301 5.33301 3.66602 9.5 6.99902 12.5s7.66602 4.5 12.999 4.5h48l-22 -175h224l6 49c4 29.333 11.333 55.166 22 77.499s24.334 41.166 41.001 56.499s35.5 27 56.5 35s43.833 12 68.5 12c20 0 38.667 -3.33301 56 -10l-8 -46
c-0.666992 -3.33301 -2.16699 -5.66602 -4.5 -6.99902s-5.5 -2.16602 -9.5 -2.49902s-8.33301 -0.5 -13 -0.5h-15c-14.667 0 -28 -2 -40 -6s-22.833 -10.667 -32.5 -20s-17.667 -21.5 -24 -36.5c-6.33301 -15.667 -10.833 -34.167 -13.5 -55.5z" />
    <glyph glyph-name="t_iogonek.liga" unicode="t&#x12f;" horiz-adv-x="573" 
d="M473 -107c4.66699 0 7.66797 -2 9.00098 -6l8 -32c-10.667 -8 -23.334 -14.333 -38.001 -19s-29.667 -7 -45 -7c-25.333 0 -44.833 5.83301 -58.5 17.5s-20.5 27.167 -20.5 46.5c0 21.333 7 41.166 21 59.499s32.333 34.166 55 47.499h-25l53 433h-236l-31 -250
c-1.33301 -13.333 -2.5 -24.166 -3.5 -32.499s-1.83301 -15.166 -2.5 -20.499s-1 -9 -1 -11v-4c0 -17.333 4 -30 12 -38s18.667 -12 32 -12c8.66699 0 16.334 1.16699 23.001 3.5s12.5 5.16602 17.5 8.49902s9.16699 6.16602 12.5 8.49902s6.33301 3.5 9 3.5
s4.66699 -0.666992 6 -2c1.33301 -2 2.66602 -4.33301 3.99902 -7l19 -42c-16 -14.667 -34.5 -26 -55.5 -34s-41.833 -12 -62.5 -12c-32 0 -57.5 8.83301 -76.5 26.5c-19 18.333 -28.5 44.166 -28.5 77.499v7.5c0 3 0.333008 7.5 1 13.5s1.33398 13.833 2.00098 23.5
c0.666992 9 2.33398 21.5 5.00098 37.5l31 255h-55c-5.33301 0 -9.33301 1.66699 -12 5c-2.66699 2.66699 -4 7.33398 -4 14.001l4 34l78 10l38 158c1.33301 5.33301 3.66602 9.5 6.99902 12.5s7.66602 4.5 12.999 4.5h48l-22 -175h322l-8 -63v0l-52 -433h-8
c-6.66699 -4 -13.834 -8.66699 -21.501 -14s-14.667 -11.666 -21 -18.999s-11.5 -15.166 -15.5 -23.499c-4 -9 -6 -18.167 -6 -27.5c0 -10.667 3.33301 -19.167 10 -25.5s15.334 -9.5 26.001 -9.5c6.66699 0 12.5 0.5 17.5 1.5s9.16699 2.33301 12.5 4s6 3.16699 8 4.5
s3.66699 2 5 2zM565.001 666c0 -8.66699 -1.83008 -16.834 -5.49707 -24.501s-8.33398 -14.5 -14.001 -20.5s-12.334 -10.667 -20.001 -14s-15.167 -5 -22.5 -5c-8 0 -15.5 1.66699 -22.5 5s-13.333 8 -19 14s-10.167 12.667 -13.5 20s-5 15.666 -5 24.999
c0 8.66699 1.66699 16.834 5 24.501s7.83301 14.334 13.5 20.001s12.167 10.334 19.5 14.001s15 5.5 23 5.5s15.667 -1.66699 23 -5s13.666 -8 18.999 -14s9.83301 -12.833 13.5 -20.5s5.5 -15.834 5.5 -24.501z" />
    <glyph glyph-name="t_dotlessi.liga" unicode="t&#x131;" horiz-adv-x="573" 
d="M526 496l-8 -63v0l-53 -433h-87l54 433h-236l-32 -250c-1.33301 -13.333 -2.5 -24.166 -3.5 -32.499s-1.66699 -15.166 -2 -20.499s-0.666016 -9 -0.999023 -11s-0.5 -3.33301 -0.5 -4c0 -17.333 4 -30 12 -38c8.66699 -8 19.667 -12 33 -12
c8.66699 0 16.167 1.16699 22.5 3.5s12 5.16602 17 8.49902s9.16699 6.16602 12.5 8.49902s6.33301 3.5 9 3.5s4.83398 -0.666992 6.50098 -2c1.66699 -2 3.16699 -4.33301 4.5 -7l18 -42c-16 -14.667 -34.333 -26 -55 -34s-41.667 -12 -63 -12
c-32 0 -57.333 8.83301 -76 26.5c-18.667 18.333 -28.334 44.166 -29.001 77.499c0 2 0.166992 4.5 0.5 7.5s0.666016 7.5 0.999023 13.5s1 13.833 2 23.5c1 9 2.5 21.5 4.5 37.5l31 255h-54c-5.33301 0 -9.5 1.66699 -12.5 5c-3 2.66699 -4.16699 7.33398 -3.5 14.001l4 34
l77 10l38 158c1.33301 5.33301 3.83301 9.5 7.5 12.5s8.16699 4.5 13.5 4.5h47l-22 -175h323z" />
    <glyph glyph-name="t_t.liga" unicode="tt" horiz-adv-x="653" 
d="M69 96c0 2 0.167969 4.5 0.500977 7.5s0.666016 7.5 0.999023 13.5s1 13.833 2 23.5c1 9 2.5 21.5 4.5 37.5l31 255h-54c-5.33301 0 -9.5 1.66699 -12.5 5c-3 2.66699 -4.16699 7.33398 -3.5 14.001l4 34l77 10l38 158c1.33301 5.33301 3.83301 9.5 7.5 12.5
s8.16699 4.5 13.5 4.5h47l-22 -175h215l39 158c1.33301 5.33301 3.83301 9.5 7.5 12.5s8.16699 4.5 13.5 4.5h46l-21 -175h133l-8 -63h-133l-31 -250c-1.33301 -13.333 -2.5 -24.166 -3.5 -32.499s-1.66699 -15.166 -2 -20.499s-0.666016 -9 -0.999023 -11
s-0.5 -3.33301 -0.5 -4c0 -17.333 4 -30 12 -38s18.667 -12 32 -12c9.33301 0 17.166 1.16699 23.499 3.5s12 5.16602 17 8.49902s9.16699 6.16602 12.5 8.49902c2.66699 2.33301 5.33398 3.5 8.00098 3.5s5 -0.666992 7 -2c2 -2 3.66699 -4.33301 5 -7l18 -42
c-16 -14.667 -34.333 -26 -55 -34s-41.667 -12 -63 -12c-32 0 -57.333 8.83301 -76 26.5c-18.667 18.333 -28.334 44.166 -29.001 77.499c0 2 0.166992 4.5 0.5 7.5s0.666016 7.5 0.999023 13.5s1 13.833 2 23.5c1 9 2.5 21.5 4.5 37.5l31 255h-212l-32 -250
c-1.33301 -13.333 -2.5 -24.166 -3.5 -32.499s-1.66699 -15.166 -2 -20.499s-0.666016 -9 -0.999023 -11s-0.5 -3.33301 -0.5 -4c0 -17.333 4 -30 12 -38c8.66699 -8 19.667 -12 33 -12c8.66699 0 16.167 1.16699 22.5 3.5s12 5.16602 17 8.49902
s9.16699 6.16602 12.5 8.49902s6.33301 3.5 9 3.5s4.83398 -0.666992 6.50098 -2c1.66699 -2 3.16699 -4.33301 4.5 -7l18 -42c-16 -14.667 -34.333 -26 -55 -34s-41.667 -12 -63 -12c-32 0 -57.333 9 -76 27s-28.334 43.667 -29.001 77z" />
    <glyph glyph-name="t_t_f.liga" unicode="ttf" horiz-adv-x="936" 
d="M812 496l133.003 0.000976562l-7 -63h-131l-51 -417l-23 -104c-4 -12 -9.5 -21.167 -16.5 -27.5s-16.833 -9.5 -29.5 -9.5h-35l68 558h-224l-31 -250c-1.33301 -13.333 -2.5 -24.166 -3.5 -32.499s-1.83301 -15.166 -2.5 -20.499s-1 -9 -1 -11v-4
c0 -17.333 3.83301 -30 11.5 -38c8.33301 -8 19.166 -12 32.499 -12c8.66699 0 16.167 1.16699 22.5 3.5s12 5.16602 17 8.49902s9.16699 6.16602 12.5 8.49902s6.33301 3.5 9 3.5c5.33301 -0.666992 9 -3.66699 11 -9l18 -42c-16 -14.667 -34.333 -26 -55 -34
s-41.667 -12 -63 -12c-32 0 -57.333 8.83301 -76 26.5c-18.667 18.333 -28.334 44.166 -29.001 77.499c0 2 0.166992 4.5 0.5 7.5s0.666016 7.5 0.999023 13.5s1 13.833 2 23.5c1 9 2.5 21.5 4.5 37.5l31 255h-212l-31 -250c-1.33301 -13.333 -2.5 -24.166 -3.5 -32.499
s-1.83301 -15.166 -2.5 -20.499s-1 -9 -1 -11v-4c0 -17.333 4 -30 12 -38s18.667 -12 32 -12c8.66699 0 16.334 1.16699 23.001 3.5s12.5 5.16602 17.5 8.49902s9.16699 6.16602 12.5 8.49902s6.33301 3.5 9 3.5s4.66699 -0.666992 6 -2
c1.33301 -2 2.66602 -4.33301 3.99902 -7l19 -42c-16 -14.667 -34.5 -26 -55.5 -34s-41.833 -12 -62.5 -12c-32 0 -57.5 8.83301 -76.5 26.5c-19 18.333 -28.5 44.166 -28.5 77.499v7.5c0 3 0.333008 7.5 1 13.5s1.33398 13.833 2.00098 23.5
c0.666992 9 2.33398 21.5 5.00098 37.5l31 255h-55c-5.33301 0 -9.33301 1.66699 -12 5c-2.66699 2.66699 -4 7.33398 -4 14.001l4 34l78 10l38 158c1.33301 5.33301 3.66602 9.5 6.99902 12.5s7.66602 4.5 12.999 4.5h48l-22 -175h215l38 158
c1.33301 5.33301 3.83301 9.5 7.5 12.5s8.16699 4.5 13.5 4.5h47l-21 -175h224l6 49c4 29.333 11.333 55.166 22 77.499s24.167 41.166 40.5 56.499s35 27 56 35s44.167 12 69.5 12c20 0 38.667 -3.33301 56 -10l-8 -46c-0.666992 -3.33301 -2.16699 -5.66602 -4.5 -6.99902
s-5.5 -2.16602 -9.5 -2.49902s-8.33301 -0.5 -13 -0.5h-16c-14.667 0 -28 -2 -40 -6s-22.833 -10.667 -32.5 -20s-17.5 -21.5 -23.5 -36.5c-6 -15.667 -10.333 -34.167 -13 -55.5z" />
    <glyph glyph-name="t_t_iogonek.liga" unicode="tt&#x12f;" horiz-adv-x="864" 
d="M772 -106c4 0 6.6709 -1.99707 8.00391 -5.99707l10 -33c-10.667 -8 -23.334 -14.333 -38.001 -19s-30 -7 -46 -7c-26 0 -46 5.83301 -60 17.5s-21 27.167 -21 46.5c0 21.333 7.16699 41 21.5 59s32.833 34 55.5 48h-32l52 433h-226l-31 -250
c-1.33301 -13.333 -2.5 -24.166 -3.5 -32.499s-1.83301 -15.166 -2.5 -20.499s-1 -9 -1 -11v-4c0 -17.333 3.83301 -30 11.5 -38c8.33301 -8 19.166 -12 32.499 -12c8.66699 0 16.167 1.16699 22.5 3.5s12 5.16602 17 8.49902s9.16699 6.16602 12.5 8.49902
s6.33301 3.5 9 3.5c5.33301 -0.666992 9 -3.66699 11 -9l18 -42c-16 -14.667 -34.333 -26 -55 -34s-41.667 -12 -63 -12c-32 0 -57.333 8.83301 -76 26.5c-18.667 18.333 -28.334 44.166 -29.001 77.499c0 2 0.166992 4.5 0.5 7.5s0.666016 7.5 0.999023 13.5
s1 13.833 2 23.5c1 9 2.5 21.5 4.5 37.5l31 255h-212l-31 -250c-1.33301 -13.333 -2.5 -24.166 -3.5 -32.499s-1.83301 -15.166 -2.5 -20.499s-1 -9 -1 -11v-4c0 -17.333 4 -30 12 -38s18.667 -12 32 -12c8.66699 0 16.334 1.16699 23.001 3.5s12.5 5.16602 17.5 8.49902
s9.16699 6.16602 12.5 8.49902s6.33301 3.5 9 3.5s4.66699 -0.666992 6 -2c1.33301 -2 2.66602 -4.33301 3.99902 -7l19 -42c-16 -14.667 -34.5 -26 -55.5 -34s-41.833 -12 -62.5 -12c-32 0 -57.5 8.83301 -76.5 26.5c-19 18.333 -28.5 44.166 -28.5 77.499v7.5
c0 3 0.333008 7.5 1 13.5s1.33398 13.833 2.00098 23.5c0.666992 9 2.33398 21.5 5.00098 37.5l31 255h-55c-5.33301 0 -9.33301 1.66699 -12 5c-2.66699 2.66699 -4 7.33398 -4 14.001l4 34l78 10l38 158c1.33301 5.33301 3.66602 9.5 6.99902 12.5s7.66602 4.5 12.999 4.5
h48l-22 -175h215l38 158c1.33301 5.33301 3.83301 9.5 7.5 12.5s8.16699 4.5 13.5 4.5h47l-21 -175h312l-7 -63h-1l-52 -433h2c-6.66699 -4 -13.834 -8.66699 -21.501 -14s-14.5 -11.666 -20.5 -18.999s-11 -15 -15 -23s-6 -16.667 -6 -26
c0 -10.667 3.16699 -19.334 9.5 -26.001s14.833 -10 25.5 -10c6.66699 0 12.334 0.666992 17.001 2s8.66699 2.66602 12 3.99902s6 2.66602 8 3.99902s3.66699 2 5 2zM856.004 666.003c0 -8.66699 -1.66699 -16.834 -5 -24.501s-8 -14.5 -14 -20.5s-12.667 -10.667 -20 -14
s-15 -5 -23 -5s-15.667 1.66699 -23 5s-13.666 8 -18.999 14s-9.66602 12.667 -12.999 20s-5 15.666 -5 24.999c0 8.66699 1.66699 16.834 5 24.501s7.66602 14.334 12.999 20.001s11.666 10.334 18.999 14.001s15 5.5 23 5.5s15.667 -1.66699 23 -5s14 -8 20 -14
s10.667 -12.833 14 -20.5s5 -15.834 5 -24.501z" />
    <glyph glyph-name="t_t_dotlessi.liga" unicode="tt&#x131;" horiz-adv-x="863" 
d="M816 496l-61 -495.999h-86l53 433h-227l-31 -250c-1.33301 -13.333 -2.5 -24.166 -3.5 -32.499s-1.66699 -15.166 -2 -20.499s-0.666016 -9 -0.999023 -11s-0.5 -3.33301 -0.5 -4c0 -17.333 3.83301 -30 11.5 -38s18.5 -12 32.5 -12c8.66699 0 16.334 1.16699 23.001 3.5
s12.334 5.16602 17.001 8.49902s8.66699 6.16602 12 8.49902s6.33301 3.5 9 3.5c5.33301 -0.666992 9.33301 -3.66699 12 -9l18 -42c-16 -14.667 -34.333 -26 -55 -34s-41.667 -12 -63 -12c-32 0 -57.333 8.83301 -76 26.5c-18.667 18.333 -28.667 44.166 -30 77.499
c0 2 0.166992 4.5 0.5 7.5s0.666016 7.5 0.999023 13.5s1.16602 13.833 2.49902 23.5c1.33301 9 2.66602 21.5 3.99902 37.5l32 255h-212l-32 -250c-1.33301 -13.333 -2.5 -24.166 -3.5 -32.499s-1.66699 -15.166 -2 -20.499s-0.666016 -9 -0.999023 -11
s-0.5 -3.33301 -0.5 -4c0 -17.333 4 -30 12 -38c8.66699 -8 19.667 -12 33 -12c8.66699 0 16.167 1.16699 22.5 3.5s12 5.16602 17 8.49902s9.16699 6.16602 12.5 8.49902s6.33301 3.5 9 3.5s4.83398 -0.666992 6.50098 -2c1.66699 -2 3.16699 -4.33301 4.5 -7l18 -42
c-16 -14.667 -34.333 -26 -55 -34s-41.667 -12 -63 -12c-32 0 -57.333 8.83301 -76 26.5c-18.667 18.333 -28.334 44.166 -29.001 77.499c0 2 0.166992 4.5 0.5 7.5s0.666016 7.5 0.999023 13.5s1 13.833 2 23.5c1 9 2.5 21.5 4.5 37.5l31 255h-54
c-5.33301 0 -9.5 1.66699 -12.5 5c-3 2.66699 -4.16699 7.33398 -3.5 14.001l4 34l77 10l38 158c1.33301 5.33301 3.83301 9.5 7.5 12.5s8.16699 4.5 13.5 4.5h47l-22 -175h215l38 158c1.33301 5.33301 4 9.5 8 12.5s8.66699 4.5 14 4.5h46l-21 -175h313z" />
    <glyph glyph-name="f_uni01D0.liga" unicode="f&#x1d0;" horiz-adv-x="532" 
d="M202 496l283 0.000976562l-61 -496h-86l53 432h-195l-50 -416l-22 -103c-4 -12 -9.66699 -21.167 -17 -27.5s-17 -9.5 -29 -9.5h-36l68 556l-48 6c-6.66699 1.33301 -12 3.66602 -16 6.99902s-5.33301 8.33301 -4 15l4 36h72l8 62
c6.66699 55.333 23.334 97.833 50.001 127.5s61 44.5 103 44.5c6.66699 0 13.5 -0.333008 20.5 -1s13.167 -1.66699 18.5 -3l-6 -47c-0.666992 -5.33301 -3.33398 -8.66602 -8.00098 -9.99902c-4 -1.33301 -10 -2 -18 -2c-21.333 0 -38.333 -8.83301 -51 -26.5
s-21 -44.834 -25 -81.501zM494 584.001h-79.999l-78 132h59c4 0 7.66699 -0.666992 11 -2s5.66602 -3.33301 6.99902 -6l41 -64l6 -12l10 12l58 64c1.33301 2.66699 4 4.66699 8 6s8 2 12 2h58z" />
    <glyph glyph-name="f_uni0209.liga" unicode="f&#x209;" horiz-adv-x="532" 
d="M202 496l206 0.000976562v0h77l-61 -496h-86l53 432h-194l-51 -416l-22 -103c-4 -12 -9.33301 -21.167 -16 -27.5s-16.667 -9.5 -30 -9.5h-34l68 555l-50 6c-6.66699 1.33301 -12 3.66602 -16 6.99902s-5.33301 8.33301 -4 15l4 37h74l7 62c4 31.333 10.833 58 20.5 80
s21.667 39.833 36 53.5s31 23.5 50 29.5s39.833 9 62.5 9c10 0 18.667 -0.333008 26 -1s13.5 -2 18.5 -4s9.5 -5 13.5 -9s7.33301 -8.66699 10 -14l68 -120h-42c-6.66699 0 -12 1 -16 3s-7.66699 5.33301 -11 10l-51 72c-17.333 0 -32 -1.83301 -44 -5.5
s-22 -9.66699 -30 -18s-14 -19.5 -18 -33.5s-7.33301 -31 -10 -51zM470 724.001c10.667 0 18.332 -1.66699 22.999 -5s8.33398 -9 11.001 -17l48 -120h-36c-6.66699 0 -12 1 -16 3s-8 5.33301 -12 10l-76 129h58z" />
    <glyph glyph-name="f_uni020B.liga" unicode="f&#x20b;" horiz-adv-x="532" 
d="M202 496l283 0.000976562l-61 -496h-86l53 432h-195l-50 -416l-22 -103c-4 -12 -9.66699 -21.167 -17 -27.5s-17 -9.5 -29 -9.5h-36l68 556l-48 6c-6.66699 1.33301 -12 3.66602 -16 6.99902s-5.33301 8.33301 -4 15l4 36h72l8 62
c6.66699 55.333 23.334 97.833 50.001 127.5s61 44.5 103 44.5c6.66699 0 13.5 -0.333008 20.5 -1s13.167 -1.66699 18.5 -3l-6 -47c-0.666992 -5.33301 -3.33398 -8.66602 -8.00098 -9.99902c-4 -1.33301 -10 -2 -18 -2c-21.333 0 -38.333 -8.83301 -51 -26.5
s-21 -44.834 -25 -81.501zM471 721.001c24 0 43.668 -3.50195 59.001 -10.502s27.333 -16.667 36 -29s14.167 -26.666 16.5 -42.999s2.5 -33.166 0.5 -50.499h-61c1.33301 10.667 1.66602 20.667 0.999023 30s-3.33398 17.666 -8.00098 24.999s-11 12.833 -19 16.5
s-18.333 5.5 -31 5.5s-23.667 -1.83301 -33 -5.5s-17 -9.16699 -23 -16.5s-10.667 -15.666 -14 -24.999s-5.66602 -19.333 -6.99902 -30h-60c2.66699 18 7 35 13 51s14.667 30.167 26 42.5s25.5 22 42.5 29s37.5 10.5 61.5 10.5z" />
    <glyph glyph-name="f_uni1E2F.liga" unicode="f&#x1e2f;" horiz-adv-x="533" 
d="M202 496l283.999 0.000976562l-60 -496h-88l53 432h-193l-51 -416l-22 -103c-4 -12 -9.5 -21.167 -16.5 -27.5s-16.833 -9.5 -29.5 -9.5h-35l68 554l-50 7c-6.66699 1.33301 -12 3.66602 -16 6.99902s-5.33301 8.33301 -4 15l4 37h74l8 62
c6.66699 55.333 23 97.833 49 127.5s60.333 44.5 103 44.5c6.66699 0 13.667 -0.333008 21 -1s13.666 -1.66699 18.999 -3l-6 -47c-0.666992 -5.33301 -3.5 -8.66602 -8.5 -9.99902s-11.167 -2 -18.5 -2c-21.333 0 -38.166 -8.83301 -50.499 -26.5
s-21.166 -44.834 -26.499 -81.501zM625.999 796.001l-113.999 -112c-4.66699 -5.33301 -9.5 -9 -14.5 -11s-10.833 -3 -17.5 -3h-50l72 104c5.33301 7.33301 10.666 12.833 15.999 16.5s13.333 5.5 24 5.5h84zM432 604.001c0 -6.66699 -1.33301 -13 -4 -19
s-6.33398 -11.333 -11.001 -16s-10 -8.16699 -16 -10.5s-12.333 -3.5 -19 -3.5s-13 1.16699 -19 3.5s-11.333 5.83301 -16 10.5s-8.33398 10 -11.001 16s-4 12.333 -4 19s1.33301 13.167 4 19.5s6.33398 11.833 11.001 16.5s10 8.33398 16 11.001s12.333 4 19 4
s13 -1.33301 19 -4s11.333 -6.33398 16 -11.001s8.33398 -10.167 11.001 -16.5s4 -12.833 4 -19.5zM584 604.001c0 -6.66699 -1.33301 -13 -4 -19s-6.33398 -11.333 -11.001 -16s-10 -8.16699 -16 -10.5s-12.333 -3.5 -19 -3.5s-13 1.16699 -19 3.5
s-11.333 5.83301 -16 10.5s-8.33398 10 -11.001 16s-4 12.333 -4 19s1.33301 13.167 4 19.5s6.33398 11.833 11.001 16.5s10 8.33398 16 11.001s12.333 4 19 4s13 -1.33301 19 -4s11.333 -6.33398 16 -11.001s8.33398 -10.167 11.001 -16.5s4 -12.833 4 -19.5z" />
    <glyph glyph-name="f_f_uni01D0.liga" unicode="ff&#x1d0;" horiz-adv-x="823" 
d="M492 496h284l-7 -63h-1l-52 -433h-86l52 433h-194l-52 -417l-21 -103c-4 -12 -9.5 -21.167 -16.5 -27.5s-16.833 -9.5 -29.5 -9.5h-35l68 557h-204l-50 -417l-24 -103c-4 -12 -9.33301 -21.167 -16 -27.5s-16.667 -9.5 -30 -9.5h-34l68 556l-50 6
c-6.66699 1.33301 -12 3.66602 -16 6.99902s-5.33301 8.33301 -4 15l4 36h74l4 42c4 29.333 11.333 55.166 22 77.499s24 41.333 40 57s34.667 27.5 56 35.5s44 12 68 12c20 0 38.667 -3.33301 56 -10l-8 -47c-1.33301 -3.33301 -3.16602 -5.66602 -5.49902 -6.99902
s-5.33301 -2.16602 -9 -2.49902s-7.83398 -0.333008 -12.501 0s-10 0.5 -16 0.5c-14 0 -27 -2 -39 -6s-22.5 -10.333 -31.5 -19s-16.667 -20.167 -23 -34.5c-6.33301 -15 -10.833 -33.167 -13.5 -54.5l-6 -44h208l8 62c6.66699 55.333 23 97.833 49 127.5
s60.333 44.5 103 44.5c6.66699 0 13.667 -0.333008 21 -1s13.333 -1.66699 18 -3l-5 -47c-0.666992 -5.33301 -3.5 -8.66602 -8.5 -9.99902s-11.5 -2 -19.5 -2c-21.333 0 -38 -8.83301 -50 -26.5s-20.667 -44.834 -26 -81.501zM786 584h-79.999l-80 132h60
c4 0 7.66699 -0.666992 11 -2s5.66602 -3.33301 6.99902 -6l42 -64l6 -12l10 12l58 64c1.33301 2.66699 3.83301 4.66699 7.5 6s7.5 2 11.5 2h58z" />
    <glyph glyph-name="f_f_uni0209.liga" unicode="ff&#x209;" horiz-adv-x="825" 
d="M204 496h207.999l7 62c4 31.333 10.833 58 20.5 80s21.667 39.833 36 53.5s31 23.5 50 29.5s39.833 9 62.5 9c10 0 18.667 -0.333008 26 -1s13.5 -2 18.5 -4s9.5 -5 13.5 -9s7.33301 -8.66699 10 -14l68 -120h-42c-6.66699 0 -12 1 -16 3s-7.66699 5.33301 -11 10l-51 72
c-17.333 0 -32 -1.83301 -44 -5.5s-21.833 -9.66699 -29.5 -18s-13.667 -19.5 -18 -33.5s-7.83301 -31 -10.5 -51l-8 -63h283v0h1l-62 -496h-86l53 433h-194l-51 -417l-22 -103c-4 -12 -9.33301 -21.167 -16 -27.5s-16.667 -9.5 -30 -9.5h-34l68 557h-204l-50 -417l-24 -103
c-4 -12 -9.5 -21.167 -16.5 -27.5s-16.833 -9.5 -29.5 -9.5h-35l68 556l-52 6c-6.66699 1.33301 -11.834 3.66602 -15.501 6.99902s-5.16699 8.33301 -4.5 15l5 36h75l5 42c4 29.333 11.333 55.166 22 77.499s24 41.333 40 57s34.5 27.5 55.5 35.5s43.5 12 67.5 12
c20.667 0 39.667 -3.33301 57 -10l-9 -47c-1.33301 -3.33301 -3.16602 -5.66602 -5.49902 -6.99902s-5.16602 -2.16602 -8.49902 -2.49902s-7.5 -0.333008 -12.5 0c-5.66699 0.333008 -11.167 0.5 -16.5 0.5c-14 0 -26.833 -2 -38.5 -6s-22.167 -10.333 -31.5 -19
s-17 -20.167 -23 -34.5c-6 -15 -10.333 -33.167 -13 -54.5zM761.999 724c10.667 0 18.332 -1.66699 22.999 -5s8.33398 -9 11.001 -17l48 -120h-36c-6.66699 0 -12 1 -16 3s-8 5.33301 -12 10l-75 129h57z" />
    <glyph glyph-name="f_f_uni020B.liga" unicode="ff&#x20b;" horiz-adv-x="823" 
d="M492 496h284l-7 -63h-1l-52 -433h-86l52 433h-194l-52 -417l-21 -103c-4 -12 -9.5 -21.167 -16.5 -27.5s-16.833 -9.5 -29.5 -9.5h-35l68 557h-204l-50 -417l-24 -103c-4 -12 -9.33301 -21.167 -16 -27.5s-16.667 -9.5 -30 -9.5h-34l68 556l-50 6
c-6.66699 1.33301 -12 3.66602 -16 6.99902s-5.33301 8.33301 -4 15l4 36h74l4 42c4 29.333 11.333 55.166 22 77.499s24 41.333 40 57s34.667 27.5 56 35.5s44 12 68 12c20 0 38.667 -3.33301 56 -10l-8 -47c-1.33301 -3.33301 -3.16602 -5.66602 -5.49902 -6.99902
s-5.33301 -2.16602 -9 -2.49902s-7.83398 -0.333008 -12.501 0s-10 0.5 -16 0.5c-14 0 -27 -2 -39 -6s-22.5 -10.333 -31.5 -19s-16.667 -20.167 -23 -34.5c-6.33301 -15 -10.833 -33.167 -13.5 -54.5l-6 -44h208l8 62c6.66699 55.333 23 97.833 49 127.5
s60.333 44.5 103 44.5c6.66699 0 13.667 -0.333008 21 -1s13.333 -1.66699 18 -3l-5 -47c-0.666992 -5.33301 -3.5 -8.66602 -8.5 -9.99902s-11.5 -2 -19.5 -2c-21.333 0 -38 -8.83301 -50 -26.5s-20.667 -44.834 -26 -81.501zM758 721c24 0 43.666 -3.50195 58.999 -10.502
s27.333 -16.667 36 -29s14.334 -26.666 17.001 -42.999s2.66699 -33.166 0 -50.499h-60c1.33301 10.667 1.33301 20.667 0 30s-4 17.666 -8 24.999s-10 12.833 -18 16.5s-18.667 5.5 -32 5.5c-12.667 0 -23.5 -1.83301 -32.5 -5.5s-16.5 -9.16699 -22.5 -16.5
s-10.667 -15.666 -14 -24.999s-5.66602 -19.333 -6.99902 -30h-61c2.66699 18 7.16699 35 13.5 51s15.166 30.167 26.499 42.5s25.333 22 42 29s37 10.5 61 10.5z" />
    <glyph glyph-name="f_f_uni1E2F.liga" unicode="ff&#x1e2f;" horiz-adv-x="823" 
d="M492 496h283.999l-60 -496h-88l53 433h-193l-51 -417l-22 -103c-4 -12 -9.5 -21.167 -16.5 -27.5s-16.833 -9.5 -29.5 -9.5h-35l68 557h-204l-50 -417l-24 -103c-4 -12 -9.33301 -21.167 -16 -27.5s-16.667 -9.5 -30 -9.5h-34l68 556l-50 6
c-6.66699 1.33301 -12 3.66602 -16 6.99902s-5.33301 8.33301 -4 15l4 36h74l4 42c4 29.333 11.333 55.166 22 77.499s24 41.333 40 57s34.667 27.5 56 35.5s44 12 68 12c20.667 0 39.334 -3.33301 56.001 -10l-8 -47
c-1.33301 -3.33301 -3.16602 -5.66602 -5.49902 -6.99902s-5.33301 -2.16602 -9 -2.49902s-7.83398 -0.333008 -12.501 0s-10 0.5 -16 0.5c-14 0 -27 -2 -39 -6s-22.333 -10.333 -31 -19s-16.167 -20.167 -22.5 -34.5c-6.33301 -15 -10.833 -33.167 -13.5 -54.5l-6 -44h207
l8 62c6.66699 55.333 23 97.833 49 127.5s60.333 44.5 103 44.5c6.66699 0 13.667 -0.333008 21 -1s13.333 -1.66699 18 -3l-5 -47c-0.666992 -5.33301 -3.5 -8.66602 -8.5 -9.99902s-11.5 -2 -19.5 -2c-21.333 0 -38 -8.83301 -50 -26.5s-20.667 -44.834 -26 -81.501z
M915.999 796l-113.998 -112c-4.66699 -5.33301 -9.33398 -9 -14.001 -11s-10.334 -3 -17.001 -3h-51l72 104c5.33301 7.33301 10.833 12.833 16.5 16.5c5 3.66699 12.833 5.5 23.5 5.5h84zM874.001 604c0 -6.66699 -1.33301 -13 -4 -19s-6.33398 -11.333 -11.001 -16
s-10 -8.16699 -16 -10.5s-12.333 -3.5 -19 -3.5s-13 1.16699 -19 3.5s-11.333 5.83301 -16 10.5s-8.33398 10 -11.001 16s-4 12.333 -4 19s1.33301 13.167 4 19.5s6.33398 11.833 11.001 16.5s10 8.33398 16 11.001s12.333 4 19 4s13 -1.33301 19 -4
s11.333 -6.33398 16 -11.001s8.33398 -10.167 11.001 -16.5s4 -12.833 4 -19.5zM722.001 604c0 -6.66699 -1.33301 -13 -4 -19s-6.33398 -11.333 -11.001 -16s-10 -8.16699 -16 -10.5s-12.333 -3.5 -19 -3.5s-13 1.16699 -19 3.5s-11.333 5.83301 -16 10.5
s-8.33398 10 -11.001 16s-4 12.333 -4 19s1.33301 13.167 4 19.5s6.33398 11.833 11.001 16.5s10 8.33398 16 11.001s12.333 4 19 4s13 -1.33301 19 -4s11.333 -6.33398 16 -11.001s8.33398 -10.167 11.001 -16.5s4 -12.833 4 -19.5z" />
    <glyph glyph-name="f_uni0237.liga" unicode="f&#x237;" horiz-adv-x="533" 
d="M202 496l284.003 -0.00195312l-65 -534c-2.66699 -20 -7.83398 -38.667 -15.501 -56s-17.834 -32.666 -30.501 -45.999s-27.667 -23.666 -45 -30.999s-37.333 -11 -60 -11c-12 0 -22 0.833008 -30 2.5s-16 4.16699 -24 7.5l9 48
c1.33301 2.66699 2.83301 4.83398 4.5 6.50098s3.66699 2.66699 6 3s5.33301 0.5 9 0.5h14.5c23.333 0 40.666 6 51.999 18s19 31.333 23 58l57 472h-193l-51 -418l-22 -103c-4 -12 -9.5 -21.167 -16.5 -27.5s-16.833 -9.5 -29.5 -9.5h-35l68 557l-50 7
c-6.66699 1.33301 -12 3.66602 -16 6.99902s-5.33301 8.33301 -4 15l4 34h74l8 62c6.66699 55.333 23 97.833 49 127.5s60.333 44.5 103 44.5c6.66699 0 13.667 -0.333008 21 -1s13.333 -1.66699 18 -3l-5 -47c-0.666992 -5.33301 -3.5 -8.66602 -8.5 -9.99902
s-11.5 -2 -19.5 -2c-21.333 0 -38 -8.83301 -50 -26.5s-20.667 -44.834 -26 -81.501z" />
    <glyph glyph-name="f_f_uni0237.liga" unicode="ff&#x237;" horiz-adv-x="824" 
d="M493 496l283.001 -0.000976562l-7 -62l-57 -472c-2.66699 -20 -7.66699 -38.833 -15 -56.5s-17.333 -33 -30 -46s-28 -23.167 -46 -30.5s-38 -11 -60 -11c-12 0 -22 0.666992 -30 2s-16 4 -24 8l9 48c1.33301 2.66699 2.66602 4.66699 3.99902 6s3.33301 2.33301 6 3
s6 0.833984 10 0.500977s8.66699 -0.5 14 -0.5c23.333 0 40.666 6.16699 51.999 18.5c10.667 12.333 18 31.833 22 58.5l58 472h-194l-51 -418l-22 -103c-4 -12 -9.5 -21.167 -16.5 -27.5s-16.833 -9.5 -29.5 -9.5h-35l68 558h-204l-50 -418l-24 -103
c-4 -12 -9.33301 -21.167 -16 -27.5s-16.667 -9.5 -30 -9.5h-34l68 557l-50 7c-6.66699 1.33301 -12 3.66602 -16 6.99902s-5.33301 8.33301 -4 15l4 34h74l4 42c4 29.333 11.333 55.166 22 77.499s24 41.333 40 57s34.667 27.5 56 35.5s44 12 68 12
c20 0 38.667 -3.33301 56 -10l-8 -47c-1.33301 -3.33301 -3.16602 -5.66602 -5.49902 -6.99902s-5.33301 -2.16602 -9 -2.49902s-7.83398 -0.333008 -12.501 0s-10 0.5 -16 0.5c-14 0 -27 -2 -39 -6s-22.5 -10.333 -31.5 -19s-16.667 -20.167 -23 -34.5
c-6.33301 -15 -10.833 -33.167 -13.5 -54.5l-6 -44h208l8 62c6.66699 55.333 23.167 97.833 49.5 127.5c25.667 29.667 59.834 44.5 102.501 44.5c6.66699 0 13.667 -0.333008 21 -1s13.666 -1.66699 18.999 -3l-6 -47c-0.666992 -5.33301 -3.5 -8.66602 -8.5 -9.99902
s-11.167 -2 -18.5 -2c-21.333 0 -38.166 -8.83301 -50.499 -26.5s-20.833 -44.834 -25.5 -81.501z" />
    <glyph glyph-name="f_jcircumflex.liga" unicode="f&#x135;" horiz-adv-x="533" 
d="M202 496l284.003 -0.00195312l-65 -534c-2.66699 -20 -7.83398 -38.667 -15.501 -56s-17.834 -32.666 -30.501 -45.999s-27.667 -23.666 -45 -30.999s-37.333 -11 -60 -11c-12 0 -22 0.833008 -30 2.5s-16 4.16699 -24 7.5l9 48
c1.33301 2.66699 2.83301 4.83398 4.5 6.50098s3.66699 2.66699 6 3s5.33301 0.5 9 0.5h14.5c23.333 0 40.666 6 51.999 18s19 31.333 23 58l57 472h-193l-51 -418l-22 -103c-4 -12 -9.5 -21.167 -16.5 -27.5s-16.833 -9.5 -29.5 -9.5h-35l68 557l-50 7
c-6.66699 1.33301 -12 3.66602 -16 6.99902s-5.33301 8.33301 -4 15l4 34h74l8 62c6.66699 55.333 23 97.833 49 127.5s60.333 44.5 103 44.5c6.66699 0 13.667 -0.333008 21 -1s13.333 -1.66699 18 -3l-5 -47c-0.666992 -5.33301 -3.5 -8.66602 -8.5 -9.99902
s-11.5 -2 -19.5 -2c-21.333 0 -38 -8.83301 -50 -26.5s-20.667 -44.834 -26 -81.501zM598.003 583.998l-54.001 0.000976562c-3.33301 0 -6.66602 0.666992 -9.99902 2c-4 1.33301 -7.33301 4 -10 8l-49 66c-1.33301 1.33301 -2.5 2.83301 -3.5 4.5
c-1 2.33301 -2.16699 4.16602 -3.5 5.49902l-8 -10l-65 -66c-6.66699 -6.66699 -13.667 -10 -21 -10h-57l117 132h76z" />
    <glyph glyph-name="f_lcaron.liga" unicode="f&#x13e;" horiz-adv-x="549" 
d="M654 736c5.33301 0 9 -1.16895 11 -3.50195s3 -5.16602 3 -8.49902s-0.666992 -7.5 -2 -12.5s-4 -12.167 -8 -21.5s-9.66699 -22 -17 -38s-17 -36 -29 -60c-4 -7.33301 -8.33301 -12.166 -13 -14.499s-11 -3.5 -19 -3.5h-22l46 162h50zM198 431.998l-50.9971 -416
l-23 -104c-4 -12 -9.66699 -21.167 -17 -27.5s-17 -9.5 -29 -9.5h-36l69 556l-49 6c-6.66699 1.33301 -12 3.66602 -16 6.99902s-5.33301 8.33301 -4 15l4 37h73l3 28c3.33301 28 10.5 54.5 21.5 79.5s25.667 46.833 44 65.5s40.166 33.5 65.499 44.5c26 11 55 16.5 87 16.5
c24 0 46.667 -1 68 -3s42.666 -3.33301 63.999 -4h60l-90 -723h-86l80 658c-14.667 1.33301 -29.834 2.83301 -45.501 4.5s-30.834 2.5 -45.501 2.5c-38.667 0 -70.167 -12.167 -94.5 -36.5s-39.166 -59.166 -44.499 -104.499l-3 -28h119l-8 -64h-116z" />
    <glyph glyph-name="f_uni013C.liga" unicode="f&#x13c;" horiz-adv-x="549" 
d="M198 432l-50.9971 -416l-23 -104c-4 -12 -9.66699 -21.167 -17 -27.5s-17 -9.5 -29 -9.5h-36l69 556l-49 6c-6.66699 1.33301 -12 3.66602 -16 6.99902s-5.33301 8.33301 -4 15l4 37h73l3 28c3.33301 28 10.5 54.5 21.5 79.5s25.667 46.833 44 65.5
s40.166 33.5 65.499 44.5c26 11 55 16.5 87 16.5c24 0 46.667 -1 68 -3s42.666 -3.33301 63.999 -4h60l-90 -723h-86l80 658c-14.667 1.33301 -29.834 2.83301 -45.501 4.5s-30.834 2.5 -45.501 2.5c-38.667 0 -70.167 -12.167 -94.5 -36.5
s-39.166 -59.166 -44.499 -104.499l-3 -28h119l-8 -64h-116zM418.003 -48c6 0 9.83203 -1.33398 11.499 -4.00098s2.5 -5.66699 2.5 -9c0 -4 -0.666992 -8.83301 -2 -14.5s-3.66602 -12.834 -6.99902 -21.501s-8 -19.667 -14 -33s-13 -28.666 -21 -45.999
c-4 -7.33301 -8.66699 -12.166 -14 -14.499s-12 -3.5 -20 -3.5h-31l41 146h54z" />
    <glyph glyph-name="f_uni021B.liga" unicode="f&#x21b;" horiz-adv-x="654" 
d="M203 496l216.999 0.000976562l38 158c1.33301 5.33301 3.66602 9.5 6.99902 12.5s7.66602 4.5 12.999 4.5h48l-22 -175h133l-7 -62h-134l-30 -251c-1.33301 -13.333 -2.66602 -24.166 -3.99902 -32.499s-2.33301 -15.166 -3 -20.499s-1 -9 -1 -11v-4
c0 -17.333 4 -30 12 -38s18.667 -12 32 -12c8.66699 0 16.334 1.16699 23.001 3.5s12.5 5.16602 17.5 8.49902s9.16699 6.16602 12.5 8.49902s6.33301 3.5 9 3.5c5.33301 -0.666992 8.66602 -3.66699 9.99902 -9l19 -42c-16 -14.667 -34.5 -26 -55.5 -34
s-41.833 -12 -62.5 -12c-32 0 -57.5 8.83301 -76.5 26.5c-19 18.333 -28.5 44.166 -28.5 77.499v7.5c0 3 0.333008 7.5 1 13.5s1.33398 13.833 2.00098 23.5c0.666992 9 2.33398 21.5 5.00098 37.5l31 256h-210l-51 -418l-24 -103c-4 -12 -9.33301 -21.167 -16 -27.5
s-16.667 -9.5 -30 -9.5h-34l67 558l-49 6c-6.66699 1.33301 -12 3.66602 -16 6.99902s-5.33301 8.33301 -4 15l4 34h73l6 50c4 29.333 11.333 55 22 77s24.167 40.833 40.5 56.5s35.166 27.5 56.499 35.5s44.333 12 69 12c20.667 0 39.667 -3.33301 57 -10l-9 -46
c-0.666992 -3.33301 -2.16699 -5.66602 -4.5 -6.99902s-5.33301 -2.33301 -9 -3s-8 -0.833984 -13 -0.500977c-5.66699 0.333008 -11.167 0.5 -16.5 0.5c-14.667 0 -28 -2.16699 -40 -6.5s-22.667 -11.166 -32 -20.499s-17.166 -21.333 -23.499 -36s-10.833 -33 -13.5 -55z
M481.999 -47.999c6 0 9.83203 -1.33398 11.499 -4.00098s2.5 -5.66699 2.5 -9c0 -4 -0.666992 -8.83301 -2 -14.5s-3.66602 -12.834 -6.99902 -21.501s-8 -19.667 -14 -33s-13 -28.666 -21 -45.999c-4 -7.33301 -8.66699 -12.166 -14 -14.499s-12 -3.5 -20 -3.5h-31l41 146
h54z" />
    <glyph glyph-name="f_tcaron.liga" unicode="f&#x165;" horiz-adv-x="654" 
d="M658 736c5.33301 0 9.16699 -1.16895 11.5 -3.50195s3.5 -5.16602 3.5 -8.49902s-0.666992 -7.5 -2 -12.5s-3.83301 -12.167 -7.5 -21.5s-9.16699 -22 -16.5 -38s-17 -36 -29 -60c-4 -7.33301 -8.5 -12.166 -13.5 -14.499c-4.33301 -2.33301 -10.5 -3.5 -18.5 -3.5h-22
l46 162h48zM203.001 495.998l216.999 0.000976562l38 158c1.33301 5.33301 3.66602 9.5 6.99902 12.5s7.66602 4.5 12.999 4.5h48l-22 -175h133l-7 -62h-134l-30 -251c-1.33301 -13.333 -2.66602 -24.166 -3.99902 -32.499s-2.33301 -15.166 -3 -20.499s-1 -9 -1 -11v-4
c0 -17.333 4 -30 12 -38s18.667 -12 32 -12c8.66699 0 16.334 1.16699 23.001 3.5s12.5 5.16602 17.5 8.49902s9.16699 6.16602 12.5 8.49902s6.33301 3.5 9 3.5c5.33301 -0.666992 8.66602 -3.66699 9.99902 -9l19 -42c-16 -14.667 -34.5 -26 -55.5 -34
s-41.833 -12 -62.5 -12c-32 0 -57.5 8.83301 -76.5 26.5c-19 18.333 -28.5 44.166 -28.5 77.499v7.5c0 3 0.333008 7.5 1 13.5s1.33398 13.833 2.00098 23.5c0.666992 9 2.33398 21.5 5.00098 37.5l31 256h-210l-51 -418l-24 -103c-4 -12 -9.33301 -21.167 -16 -27.5
s-16.667 -9.5 -30 -9.5h-34l67 558l-49 6c-6.66699 1.33301 -12 3.66602 -16 6.99902s-5.33301 8.33301 -4 15l4 34h73l6 50c4 29.333 11.333 55 22 77s24.167 40.833 40.5 56.5s35.166 27.5 56.499 35.5s44.333 12 69 12c20.667 0 39.667 -3.33301 57 -10l-9 -46
c-0.666992 -3.33301 -2.16699 -5.66602 -4.5 -6.99902s-5.33301 -2.33301 -9 -3s-8 -0.833984 -13 -0.500977c-5.66699 0.333008 -11.167 0.5 -16.5 0.5c-14.667 0 -28 -2.16699 -40 -6.5s-22.667 -11.166 -32 -20.499s-17.166 -21.333 -23.499 -36s-10.833 -33 -13.5 -55z
" />
    <glyph glyph-name="f_uni1ECB.liga" unicode="f&#x1ecb;" horiz-adv-x="533" 
d="M202 496l284 0.00292969l-60 -496h-88l53 432h-193l-51 -416l-23 -104c-4 -12 -9.66699 -21.167 -17 -27.5s-17 -9.5 -29 -9.5h-36l69 556l-49 6c-6.66699 1.33301 -12 3.66602 -16 6.99902s-5.33301 8.33301 -4 15l4 37h73l3 28c4 30.667 12.167 59 24.5 85
s28.666 48.167 48.999 66.5s44.5 32.666 72.5 42.999s60 15.5 96 15.5c6 0 12.167 -0.333008 18.5 -1s12.833 -1.33398 19.5 -2.00098s12.834 -1.66699 18.501 -3c6.33301 -1.33301 11.5 -2.66602 15.5 -3.99902l-10 -46c-0.666992 -3.33301 -2.16699 -5.5 -4.5 -6.5
s-5.5 -1.83301 -9.5 -2.5s-8.66699 -0.666992 -14 0s-11.333 1 -18 1c-28 0 -52.167 -3 -72.5 -9s-37.5 -15 -51.5 -27s-25.167 -27.333 -33.5 -46s-13.833 -40.334 -16.5 -65.001zM422 -127.997c0 -8 -1.66797 -15.5 -5.00098 -22.5s-7.66602 -13.167 -12.999 -18.5
s-11.666 -9.5 -18.999 -12.5s-14.333 -4.5 -21 -4.5c-7.33301 0 -14.5 1.5 -21.5 4.5s-13 7.16699 -18 12.5s-9 11.5 -12 18.5s-4.5 14.5 -4.5 22.5s1.5 15.667 4.5 23s7 13.666 12 18.999s11 9.66602 18 12.999s14.167 5 21.5 5s14.5 -1.66699 21.5 -5
s13.167 -7.66602 18.5 -12.999s9.66602 -11.666 12.999 -18.999s5 -15 5 -23z" />
    <glyph glyph-name="f_uni1E2D.liga" unicode="f&#x1e2d;" horiz-adv-x="533" 
d="M202 496l284 0.00292969l-60 -496h-88l53 432h-193l-51 -416l-23 -104c-4 -12 -9.66699 -21.167 -17 -27.5s-17 -9.5 -29 -9.5h-36l69 556l-49 6c-6.66699 1.33301 -12 3.66602 -16 6.99902s-5.33301 8.33301 -4 15l4 37h73l3 28c4 30.667 12.167 59 24.5 85
s28.666 48.167 48.999 66.5s44.5 32.666 72.5 42.999s60 15.5 96 15.5c6 0 12.167 -0.333008 18.5 -1s12.833 -1.33398 19.5 -2.00098s12.834 -1.66699 18.501 -3c6.33301 -1.33301 11.5 -2.66602 15.5 -3.99902l-10 -46c-0.666992 -3.33301 -2.16699 -5.5 -4.5 -6.5
s-5.5 -1.83301 -9.5 -2.5s-8.66699 -0.666992 -14 0s-11.333 1 -18 1c-28 0 -52.167 -3 -72.5 -9s-37.5 -15 -51.5 -27s-25.167 -27.333 -33.5 -46s-13.833 -40.334 -16.5 -65.001zM436 -89.9971c22.667 0 35.6689 14.667 39.002 44h50
c-1.33301 -16 -4.83301 -30.667 -10.5 -44s-12.5 -24.666 -20.5 -33.999s-17.333 -16.5 -28 -21.5s-22 -7.5 -34 -7.5c-10.667 0 -20.5 2.5 -29.5 7.5s-17.333 10.167 -25 15.5s-14.834 10.5 -21.501 15.5s-13.667 7.5 -21 7.5c-22.667 0 -35.667 -14.667 -39 -44h-51
c1.33301 16 4.83301 30.5 10.5 43.5s12.667 24.333 21 34s17.833 17 28.5 22s22 7.5 34 7.5c10.667 0 20.5 -2.33301 29.5 -7s17.167 -9.83398 24.5 -15.501s14.666 -11 21.999 -16s14.333 -7.5 21 -7.5z" />
    <glyph glyph-name="f_uni0268.liga" unicode="f&#x268;" horiz-adv-x="566" 
d="M372 282l19 150.003h-193l-51 -416l-23 -104c-4 -12 -9.66699 -21.167 -17 -27.5s-17 -9.5 -29 -9.5h-36l69 556l-49 6c-6.66699 1.33301 -12 3.66602 -16 6.99902s-5.33301 8.33301 -4 15l4 37h73l3 28c4 30.667 12.167 59 24.5 85s28.666 48.167 48.999 66.5
s44.5 32.666 72.5 42.999s60 15.5 96 15.5c6 0 12.167 -0.333008 18.5 -1s12.833 -1.33398 19.5 -2.00098s12.834 -1.66699 18.501 -3c6.33301 -1.33301 11.5 -2.66602 15.5 -3.99902l-10 -46c-0.666992 -3.33301 -2.16699 -5.5 -4.5 -6.5s-5.5 -1.83301 -9.5 -2.5
s-8.66699 -0.666992 -14 0s-11.333 1 -18 1c-28 0 -52.167 -3 -72.5 -9s-37.5 -15 -51.5 -27s-25.167 -27.333 -33.5 -46s-13.833 -40.334 -16.5 -65.001l-4 -27h284l-26 -214h81l-8 -63h-81l-26 -219h-88l26 219h-56l7 63h57z" />
    <glyph glyph-name="f_iacute.liga" unicode="f&#xed;" horiz-adv-x="533" 
d="M202 496l283.999 0.000976562l-60 -496h-88l53 432h-193l-51 -416l-22 -103c-4 -12 -9.5 -21.167 -16.5 -27.5s-16.833 -9.5 -29.5 -9.5h-35l68 554l-50 7c-6.66699 1.33301 -12 3.66602 -16 6.99902s-5.33301 8.33301 -4 15l4 37h74l8 62
c6.66699 55.333 23 97.833 49 127.5s60.333 44.5 103 44.5c6.66699 0 13.667 -0.333008 21 -1s13.666 -1.66699 18.999 -3l-6 -47c-0.666992 -5.33301 -3.5 -8.66602 -8.5 -9.99902s-11.167 -2 -18.5 -2c-21.333 0 -38.166 -8.83301 -50.499 -26.5
s-21.166 -44.834 -26.499 -81.501zM595.999 724.001l-121.999 -128c-4.66699 -5.33301 -9.16699 -9 -13.5 -11s-9.83301 -3 -16.5 -3h-49l81 120c5.33301 8 10.666 13.667 15.999 17s13.333 5 24 5h80z" />
    <glyph glyph-name="f_uni1EC9.liga" unicode="f&#x1ec9;" horiz-adv-x="533" 
d="M202 496l283.999 0.000976562l-60 -496h-88l53 432h-193l-51 -416l-22 -103c-4 -12 -9.5 -21.167 -16.5 -27.5s-16.833 -9.5 -29.5 -9.5h-35l68 554l-50 7c-6.66699 1.33301 -12 3.66602 -16 6.99902s-5.33301 8.33301 -4 15l4 37h74l8 62
c6.66699 55.333 23 97.833 49 127.5s60.333 44.5 103 44.5c6.66699 0 13.667 -0.333008 21 -1s13.666 -1.66699 18.999 -3l-6 -47c-0.666992 -5.33301 -3.5 -8.66602 -8.5 -9.99902s-11.167 -2 -18.5 -2c-21.333 0 -38.166 -8.83301 -50.499 -26.5
s-21.166 -44.834 -26.499 -81.501zM387.999 709.001c9.33301 8 21.668 14.166 37.001 18.499s31.333 6.5 48 6.5c13.333 0 25 -1.66699 35 -5s18.167 -7.66602 24.5 -12.999s10.5 -12 12.5 -20s2.66699 -16.333 2 -25c-1.33301 -16 -7.83301 -30.167 -19.5 -42.5
s-25.834 -21.5 -42.501 -27.5l-12 -41h-39l7 66c16.667 2.66699 28.5 7.16699 35.5 13.5c7 7 10.833 14.5 11.5 22.5s-1.16602 14.667 -5.49902 20s-12.5 8 -24.5 8c-6 0 -11.5 -0.666992 -16.5 -2s-9.5 -2.83301 -13.5 -4.5s-7.33301 -3.33398 -10 -5.00098
s-5 -2.5 -7 -2.5c-2.66699 0 -4.83398 0.833008 -6.50098 2.5s-3.16699 3.83398 -4.5 6.50098z" />
    <glyph glyph-name="f_f_uni1ECB.liga" unicode="ff&#x1ecb;" horiz-adv-x="824" 
d="M768 434l-51.999 -434h-86l52 434h-194l-50 -418l-24 -104c-4 -12 -9.5 -21.167 -16.5 -27.5s-16.833 -9.5 -29.5 -9.5h-35l69 559h-204l-50 -418l-24 -103c-4 -12 -9.33301 -21.167 -16 -27.5s-16.667 -9.5 -30 -9.5h-34l68 557l-50 7
c-6.66699 1.33301 -12 3.66602 -16 6.99902s-5.33301 8.33301 -4 15l4 34h74l4 42c4 29.333 11.333 55.166 22 77.499s24 41.333 40 57s34.667 27.5 56 35.5s44 12 68 12c20 0 38.667 -3.33301 56 -10l-8 -47c-1.33301 -3.33301 -3.16602 -5.66602 -5.49902 -6.99902
s-5.33301 -2.16602 -9 -2.49902s-7.83398 -0.333008 -12.501 0s-10 0.5 -16 0.5c-14 0 -27 -2 -39 -6s-22.5 -10.333 -31.5 -19s-16.667 -20.167 -23 -34.5c-6.33301 -15 -10.833 -33.167 -13.5 -54.5l-6 -44h208l3 28c4 30.667 12.167 59 24.5 85s28.5 48.167 48.5 66.5
s44 32.666 72 42.999s60 15.5 96 15.5c5.33301 0 11.333 -0.333008 18 -1l20 -2c6.66699 -0.666992 13 -1.66699 19 -3s11 -2.66602 15 -3.99902l-9 -46c-0.666992 -3.33301 -2.33398 -5.5 -5.00098 -6.5s-6 -1.83301 -10 -2.5s-8.66699 -0.666992 -14 0s-11.333 1 -18 1
c-54.667 0 -95.667 -12 -123 -36s-44.333 -61 -51 -111l-3 -27h283l-7 -62h-1zM713.001 -128c0 -8 -1.66797 -15.5 -5.00098 -22.5s-7.66602 -13.167 -12.999 -18.5s-11.666 -9.5 -18.999 -12.5s-14.333 -4.5 -21 -4.5c-7.33301 0 -14.5 1.5 -21.5 4.5s-13 7.16699 -18 12.5
s-9 11.5 -12 18.5s-4.5 14.5 -4.5 22.5s1.5 15.667 4.5 23s7 13.666 12 18.999s11 9.66602 18 12.999s14.167 5 21.5 5s14.5 -1.66699 21.5 -5s13.167 -7.66602 18.5 -12.999s9.66602 -11.666 12.999 -18.999s5 -15 5 -23z" />
    <glyph glyph-name="f_f_uni1E2D.liga" unicode="ff&#x1e2d;" horiz-adv-x="824" 
d="M768 434l-51.999 -434h-86l52 434h-194l-50 -418l-24 -104c-4 -12 -9.5 -21.167 -16.5 -27.5s-16.833 -9.5 -29.5 -9.5h-35l69 559h-204l-50 -418l-24 -103c-4 -12 -9.33301 -21.167 -16 -27.5s-16.667 -9.5 -30 -9.5h-34l68 557l-50 7
c-6.66699 1.33301 -12 3.66602 -16 6.99902s-5.33301 8.33301 -4 15l4 34h74l4 42c4 29.333 11.333 55.166 22 77.499s24 41.333 40 57s34.667 27.5 56 35.5s44 12 68 12c20 0 38.667 -3.33301 56 -10l-8 -47c-1.33301 -3.33301 -3.16602 -5.66602 -5.49902 -6.99902
s-5.33301 -2.16602 -9 -2.49902s-7.83398 -0.333008 -12.501 0s-10 0.5 -16 0.5c-14 0 -27 -2 -39 -6s-22.5 -10.333 -31.5 -19s-16.667 -20.167 -23 -34.5c-6.33301 -15 -10.833 -33.167 -13.5 -54.5l-6 -44h208l3 28c4 30.667 12.167 59 24.5 85s28.5 48.167 48.5 66.5
s44 32.666 72 42.999s60 15.5 96 15.5c5.33301 0 11.333 -0.333008 18 -1l20 -2c6.66699 -0.666992 13 -1.66699 19 -3s11 -2.66602 15 -3.99902l-9 -46c-0.666992 -3.33301 -2.33398 -5.5 -5.00098 -6.5s-6 -1.83301 -10 -2.5s-8.66699 -0.666992 -14 0s-11.333 1 -18 1
c-54.667 0 -95.667 -12 -123 -36s-44.333 -61 -51 -111l-3 -27h283l-7 -62h-1zM713.001 -90c22.667 0 35.6689 14.667 39.002 44h50c-1.33301 -16 -4.83301 -30.667 -10.5 -44s-12.5 -24.666 -20.5 -33.999s-17.333 -16.5 -28 -21.5s-22 -7.5 -34 -7.5
c-10.667 0 -20.5 2.5 -29.5 7.5s-17.333 10.167 -25 15.5s-14.834 10.5 -21.501 15.5s-13.667 7.5 -21 7.5c-22.667 0 -35.667 -14.667 -39 -44h-51c1.33301 16 4.83301 30.5 10.5 43.5s12.667 24.333 21 34s17.833 17 28.5 22s22 7.5 34 7.5
c10.667 0 20.5 -2.33301 29.5 -7s17.167 -9.83398 24.5 -15.501s14.666 -11 21.999 -16s14.333 -7.5 21 -7.5z" />
    <glyph glyph-name="f_f_uni0268.liga" unicode="ff&#x268;" horiz-adv-x="838" 
d="M664 282l18.001 152h-194l-50 -418l-24 -104c-4 -12 -9.5 -21.167 -16.5 -27.5s-16.833 -9.5 -29.5 -9.5h-35l69 559h-204l-50 -418l-24 -103c-4 -12 -9.33301 -21.167 -16 -27.5s-16.667 -9.5 -30 -9.5h-34l68 557l-50 7c-6.66699 1.33301 -12 3.66602 -16 6.99902
s-5.33301 8.33301 -4 15l4 34h74l4 42c4 29.333 11.333 55.166 22 77.499s24 41.333 40 57s34.667 27.5 56 35.5s44 12 68 12c20 0 38.667 -3.33301 56 -10l-8 -47c-1.33301 -3.33301 -3.16602 -5.66602 -5.49902 -6.99902s-5.33301 -2.16602 -9 -2.49902
s-7.83398 -0.333008 -12.501 0s-10 0.5 -16 0.5c-14 0 -27 -2 -39 -6s-22.5 -10.333 -31.5 -19s-16.667 -20.167 -23 -34.5c-6.33301 -15 -10.833 -33.167 -13.5 -54.5l-6 -44h208l3 28c4 30.667 12.167 59 24.5 85s28.5 48.167 48.5 66.5s44 32.666 72 42.999
s60 15.5 96 15.5c5.33301 0 11.333 -0.333008 18 -1l20 -2c6.66699 -0.666992 13 -1.66699 19 -3s11 -2.66602 15 -3.99902l-9 -46c-0.666992 -3.33301 -2.33398 -5.5 -5.00098 -6.5s-6 -1.83301 -10 -2.5s-8.66699 -0.666992 -14 0s-11.333 1 -18 1
c-54.667 0 -95.667 -12 -123 -36s-44.333 -61 -51 -111l-3 -27h283l-7 -62h-1l-18 -152h70l-8 -63h-70l-26 -219h-86l26 219h-70l8 63h70z" />
    <glyph glyph-name="f_f_iacute.liga" unicode="ff&#xed;" horiz-adv-x="823" 
d="M768 434l-52 -434h-86l52 434h-194l-50 -418l-22 -103c-4 -12 -9.66699 -21.167 -17 -27.5s-17 -9.5 -29 -9.5h-36l68 558h-204l-50 -418l-24 -103c-4 -12 -9.33301 -21.167 -16 -27.5s-16.667 -9.5 -30 -9.5h-34l68 557l-50 7c-6.66699 1.33301 -12 3.66602 -16 6.99902
s-5.33301 8.33301 -4 15l4 34h74l4 42c4 29.333 11.333 55.166 22 77.499s24 41.333 40 57s34.667 27.5 56 35.5s44 12 68 12c20 0 38.667 -3.33301 56 -10l-8 -47c-1.33301 -3.33301 -3.16602 -5.66602 -5.49902 -6.99902s-5.33301 -2.16602 -9 -2.49902
s-7.83398 -0.333008 -12.501 0s-10 0.5 -16 0.5c-14 0 -27 -2 -39 -6s-22.5 -10.333 -31.5 -19s-16.667 -20.167 -23 -34.5c-6.33301 -15 -10.833 -33.167 -13.5 -54.5l-6 -44h208l8 62c6.66699 55.333 23.167 97.833 49.5 127.5c25.667 29.667 59.834 44.5 102.501 44.5
c6.66699 0 13.667 -0.333008 21 -1s13.666 -1.66699 18.999 -3l-6 -47c-0.666992 -5.33301 -3.33398 -8.66602 -8.00098 -9.99902s-11 -2 -19 -2c-21.333 0 -38.166 -8.83301 -50.499 -26.5s-20.833 -44.834 -25.5 -81.501l-8 -63h283l-7 -62h-1zM892 724l-121.999 -128
c-4.66699 -5.33301 -9.16699 -9 -13.5 -11s-9.83301 -3 -16.5 -3h-49l81 120c5.33301 8 10.666 13.667 15.999 17s13.333 5 24 5h80z" />
    <glyph glyph-name="f_f_uni1EC9.liga" unicode="ff&#x1ec9;" horiz-adv-x="818" 
d="M768 434l-52 -434h-86l52 434h-194l-50 -418l-22 -103c-4 -12 -9.66699 -21.167 -17 -27.5s-17 -9.5 -29 -9.5h-36l68 558h-204l-50 -418l-24 -103c-4 -12 -9.33301 -21.167 -16 -27.5s-16.667 -9.5 -30 -9.5h-34l68 557l-50 7c-6.66699 1.33301 -12 3.66602 -16 6.99902
s-5.33301 8.33301 -4 15l4 34h74l4 42c4 29.333 11.333 55.166 22 77.499s24 41.333 40 57s34.667 27.5 56 35.5s44 12 68 12c20 0 38.667 -3.33301 56 -10l-8 -47c-1.33301 -3.33301 -3.16602 -5.66602 -5.49902 -6.99902s-5.33301 -2.16602 -9 -2.49902
s-7.83398 -0.333008 -12.501 0s-10 0.5 -16 0.5c-14 0 -27 -2 -39 -6s-22.5 -10.333 -31.5 -19s-16.667 -20.167 -23 -34.5c-6.33301 -15 -10.833 -33.167 -13.5 -54.5l-6 -44h208l8 62c6.66699 55.333 23.167 97.833 49.5 127.5c25.667 29.667 59.834 44.5 102.501 44.5
c6.66699 0 13.667 -0.333008 21 -1s13.666 -1.66699 18.999 -3l-6 -47c-0.666992 -5.33301 -3.33398 -8.66602 -8.00098 -9.99902s-11 -2 -19 -2c-21.333 0 -38.166 -8.83301 -50.499 -26.5s-20.833 -44.834 -25.5 -81.501l-8 -63h283l-7 -62h-1zM679 709
c9.33301 8 21.668 14.166 37.001 18.499s31.333 6.5 48 6.5c13.333 0 25 -1.66699 35 -5s18.167 -7.66602 24.5 -12.999s10.5 -12 12.5 -20s2.66699 -16.333 2 -25c-1.33301 -16 -7.83301 -30.167 -19.5 -42.5s-25.834 -21.5 -42.501 -27.5l-12 -41h-39l7 66
c16.667 2.66699 28.5 7.16699 35.5 13.5c7 7 10.833 14.5 11.5 22.5s-1.16602 14.667 -5.49902 20s-12.5 8 -24.5 8c-6 0 -11.5 -0.666992 -16.5 -2s-9.5 -2.83301 -13.5 -4.5s-7.33301 -3.33398 -10 -5.00098s-5 -2.5 -7 -2.5c-2.66699 0 -4.83398 0.833008 -6.50098 2.5
s-3.16699 3.83398 -4.5 6.50098z" />
    <glyph glyph-name="f_lacute.liga" unicode="f&#x13a;" horiz-adv-x="549" 
d="M198 432l-50.9971 -416l-23 -104c-4 -12 -9.66699 -21.167 -17 -27.5s-17 -9.5 -29 -9.5h-36l69 556l-49 6c-6.66699 1.33301 -12 3.66602 -16 6.99902s-5.33301 8.33301 -4 15l4 37h73l3 28c3.33301 28 10.5 54.5 21.5 79.5s25.667 46.833 44 65.5
s40.166 33.5 65.499 44.5c26 11 55 16.5 87 16.5c24 0 46.667 -1 68 -3s42.666 -3.33301 63.999 -4h60l-90 -723h-86l80 658c-14.667 1.33301 -29.834 2.83301 -45.501 4.5s-30.834 2.5 -45.501 2.5c-38.667 0 -70.167 -12.167 -94.5 -36.5
s-39.166 -59.166 -44.499 -104.499l-3 -28h119l-8 -64h-116zM706.003 926l-164.999 -143c-5.33301 -4.66699 -10.333 -7.5 -15 -8.5s-10.334 -1.5 -17.001 -1.5h-58l122 137c6 7.33301 11.833 11.833 17.5 13.5s13.167 2.5 22.5 2.5h93z" />
    <glyph glyph-name="t_i.liga" unicode="ti" horiz-adv-x="573" 
d="M526 496l-8 -63v0l-53 -433h-87l54 433h-236l-32 -250c-1.33301 -13.333 -2.5 -24.166 -3.5 -32.499s-1.66699 -15.166 -2 -20.499s-0.666016 -9 -0.999023 -11s-0.5 -3.33301 -0.5 -4c0 -17.333 4 -30 12 -38c8.66699 -8 19.667 -12 33 -12
c8.66699 0 16.167 1.16699 22.5 3.5s12 5.16602 17 8.49902s9.16699 6.16602 12.5 8.49902s6.33301 3.5 9 3.5s4.83398 -0.666992 6.50098 -2c1.66699 -2 3.16699 -4.33301 4.5 -7l18 -42c-16 -14.667 -34.333 -26 -55 -34s-41.667 -12 -63 -12
c-32 0 -57.333 8.83301 -76 26.5c-18.667 18.333 -28.334 44.166 -29.001 77.499c0 2 0.166992 4.5 0.5 7.5s0.666016 7.5 0.999023 13.5s1 13.833 2 23.5c1 9 2.5 21.5 4.5 37.5l31 255h-54c-5.33301 0 -9.5 1.66699 -12.5 5c-3 2.66699 -4.16699 7.33398 -3.5 14.001l4 34
l77 10l38 158c1.33301 5.33301 3.83301 9.5 7.5 12.5s8.16699 4.5 13.5 4.5h47l-22 -175h323zM570 666c0 -8.66699 -1.83203 -16.834 -5.49902 -24.501s-8.33398 -14.5 -14.001 -20.5s-12.334 -10.667 -20.001 -14s-15.5 -5 -23.5 -5s-15.5 1.66699 -22.5 5
s-13.333 8 -19 14s-10.167 12.667 -13.5 20s-5 15.666 -5 24.999c0 8.66699 1.66699 16.834 5 24.501s7.83301 14.334 13.5 20.001s12.167 10.334 19.5 14.001s15 5.5 23 5.5s15.667 -1.66699 23 -5s13.833 -8 19.5 -14s10.334 -12.833 14.001 -20.5
s5.5 -15.834 5.5 -24.501z" />
    <glyph glyph-name="t_igrave.liga" unicode="t&#xec;" horiz-adv-x="573" 
d="M526 496l-8 -63v0l-53 -433h-87l54 433h-236l-32 -250c-1.33301 -13.333 -2.5 -24.166 -3.5 -32.499s-1.66699 -15.166 -2 -20.499s-0.666016 -9 -0.999023 -11s-0.5 -3.33301 -0.5 -4c0 -17.333 4 -30 12 -38c8.66699 -8 19.667 -12 33 -12
c8.66699 0 16.167 1.16699 22.5 3.5s12 5.16602 17 8.49902s9.16699 6.16602 12.5 8.49902s6.33301 3.5 9 3.5s4.83398 -0.666992 6.50098 -2c1.66699 -2 3.16699 -4.33301 4.5 -7l18 -42c-16 -14.667 -34.333 -26 -55 -34s-41.667 -12 -63 -12
c-32 0 -57.333 8.83301 -76 26.5c-18.667 18.333 -28.334 44.166 -29.001 77.499c0 2 0.166992 4.5 0.5 7.5s0.666016 7.5 0.999023 13.5s1 13.833 2 23.5c1 9 2.5 21.5 4.5 37.5l31 255h-54c-5.33301 0 -9.5 1.66699 -12.5 5c-3 2.66699 -4.16699 7.33398 -3.5 14.001l4 34
l77 10l38 158c1.33301 5.33301 3.83301 9.5 7.5 12.5s8.16699 4.5 13.5 4.5h47l-22 -175h323zM453 724c10 0 17.167 -1.66699 21.5 -5s8.5 -9 12.5 -17l54 -120h-46c-6.66699 0 -12 1 -16 3s-7.66699 5.66699 -11 11l-93 128h78z" />
    <glyph glyph-name="t_iacute.liga" unicode="t&#xed;" horiz-adv-x="573" 
d="M526 496l-8 -63v0l-53 -433h-87l54 433h-236l-32 -250c-1.33301 -13.333 -2.5 -24.166 -3.5 -32.499s-1.66699 -15.166 -2 -20.499s-0.666016 -9 -0.999023 -11s-0.5 -3.33301 -0.5 -4c0 -17.333 4 -30 12 -38c8.66699 -8 19.667 -12 33 -12
c8.66699 0 16.167 1.16699 22.5 3.5s12 5.16602 17 8.49902s9.16699 6.16602 12.5 8.49902s6.33301 3.5 9 3.5s4.83398 -0.666992 6.50098 -2c1.66699 -2 3.16699 -4.33301 4.5 -7l18 -42c-16 -14.667 -34.333 -26 -55 -34s-41.667 -12 -63 -12
c-32 0 -57.333 8.83301 -76 26.5c-18.667 18.333 -28.334 44.166 -29.001 77.499c0 2 0.166992 4.5 0.5 7.5s0.666016 7.5 0.999023 13.5s1 13.833 2 23.5c1 9 2.5 21.5 4.5 37.5l31 255h-54c-5.33301 0 -9.5 1.66699 -12.5 5c-3 2.66699 -4.16699 7.33398 -3.5 14.001l4 34
l77 10l38 158c1.33301 5.33301 3.83301 9.5 7.5 12.5s8.16699 4.5 13.5 4.5h47l-22 -175h323zM645 724l-121.999 -128c-4.66699 -5.33301 -9.16699 -9 -13.5 -11s-9.83301 -3 -16.5 -3h-49l81 120c5.33301 8 10.666 13.667 15.999 17s13.333 5 24 5h80z" />
    <glyph glyph-name="t_icircumflex.liga" unicode="t&#xee;" horiz-adv-x="573" 
d="M526 496l-8 -63v0l-53 -433h-87l54 433h-236l-32 -250c-1.33301 -13.333 -2.5 -24.166 -3.5 -32.499s-1.66699 -15.166 -2 -20.499s-0.666016 -9 -0.999023 -11s-0.5 -3.33301 -0.5 -4c0 -17.333 4 -30 12 -38c8.66699 -8 19.667 -12 33 -12
c8.66699 0 16.167 1.16699 22.5 3.5s12 5.16602 17 8.49902s9.16699 6.16602 12.5 8.49902s6.33301 3.5 9 3.5s4.83398 -0.666992 6.50098 -2c1.66699 -2 3.16699 -4.33301 4.5 -7l18 -42c-16 -14.667 -34.333 -26 -55 -34s-41.667 -12 -63 -12
c-32 0 -57.333 8.83301 -76 26.5c-18.667 18.333 -28.334 44.166 -29.001 77.499c0 2 0.166992 4.5 0.5 7.5s0.666016 7.5 0.999023 13.5s1 13.833 2 23.5c1 9 2.5 21.5 4.5 37.5l31 255h-54c-5.33301 0 -9.5 1.66699 -12.5 5c-3 2.66699 -4.16699 7.33398 -3.5 14.001l4 34
l77 10l38 158c1.33301 5.33301 3.83301 9.5 7.5 12.5s8.16699 4.5 13.5 4.5h47l-22 -175h323zM640 584l-54.001 0.000976562c-3.33301 0 -6.66602 0.666992 -9.99902 2c-4 1.33301 -7.33301 4 -10 8l-49 66c-1.33301 1.33301 -2.5 2.83301 -3.5 4.5
c-1 2.33301 -2.16699 4.16602 -3.5 5.49902l-8 -10l-65 -66c-6.66699 -6.66699 -13.667 -10 -21 -10h-57l117 132h76z" />
    <glyph glyph-name="t_idieresis.liga" unicode="t&#xef;" horiz-adv-x="573" 
d="M526 496l-8 -63v0l-53 -433h-87l54 433h-236l-32 -250c-1.33301 -13.333 -2.5 -24.166 -3.5 -32.499s-1.66699 -15.166 -2 -20.499s-0.666016 -9 -0.999023 -11s-0.5 -3.33301 -0.5 -4c0 -17.333 4 -30 12 -38c8.66699 -8 19.667 -12 33 -12
c8.66699 0 16.167 1.16699 22.5 3.5s12 5.16602 17 8.49902s9.16699 6.16602 12.5 8.49902s6.33301 3.5 9 3.5s4.83398 -0.666992 6.50098 -2c1.66699 -2 3.16699 -4.33301 4.5 -7l18 -42c-16 -14.667 -34.333 -26 -55 -34s-41.667 -12 -63 -12
c-32 0 -57.333 8.83301 -76 26.5c-18.667 18.333 -28.334 44.166 -29.001 77.499c0 2 0.166992 4.5 0.5 7.5s0.666016 7.5 0.999023 13.5s1 13.833 2 23.5c1 9 2.5 21.5 4.5 37.5l31 255h-54c-5.33301 0 -9.5 1.66699 -12.5 5c-3 2.66699 -4.16699 7.33398 -3.5 14.001l4 34
l77 10l38 158c1.33301 5.33301 3.83301 9.5 7.5 12.5s8.16699 4.5 13.5 4.5h47l-22 -175h323zM497 644c0 -8 -1.5 -15.167 -4.5 -21.5s-7.16699 -12 -12.5 -17s-11.333 -9 -18 -12s-14 -4.5 -22 -4.5c-7.33301 0 -14.333 1.5 -21 4.5s-12.5 7 -17.5 12
s-9.16699 10.833 -12.5 17.5c-3.33301 6 -5 13 -5 21s1.66699 15.5 5 22.5s7.5 13 12.5 18s10.833 9.16699 17.5 12.5s13.667 5 21 5c8 0 15.333 -1.66699 22 -5s12.667 -7.5 18 -12.5s9.5 -11 12.5 -18s4.5 -14.5 4.5 -22.5zM643 644c0 -8 -1.49902 -15.167 -4.49902 -21.5
s-7.16699 -12 -12.5 -17s-11.333 -9 -18 -12s-14 -4.5 -22 -4.5s-15.333 1.5 -22 4.5s-12.334 7 -17.001 12s-8.66699 10.833 -12 17.5c-3.33301 6 -5 13 -5 21s1.66699 15.5 5 22.5s7.33301 13 12 18s10.5 9.16699 17.5 12.5c6.33301 3.33301 13.5 5 21.5 5
s15.333 -1.66699 22 -5s12.667 -7.5 18 -12.5s9.5 -11 12.5 -18s4.5 -14.5 4.5 -22.5z" />
    <glyph glyph-name="t_imacron.liga" unicode="t&#x12b;" horiz-adv-x="573" 
d="M526 496l-8 -63v0l-53 -433h-87l54 433h-236l-32 -250c-1.33301 -13.333 -2.5 -24.166 -3.5 -32.499s-1.66699 -15.166 -2 -20.499s-0.666016 -9 -0.999023 -11s-0.5 -3.33301 -0.5 -4c0 -17.333 4 -30 12 -38c8.66699 -8 19.667 -12 33 -12
c8.66699 0 16.167 1.16699 22.5 3.5s12 5.16602 17 8.49902s9.16699 6.16602 12.5 8.49902s6.33301 3.5 9 3.5s4.83398 -0.666992 6.50098 -2c1.66699 -2 3.16699 -4.33301 4.5 -7l18 -42c-16 -14.667 -34.333 -26 -55 -34s-41.667 -12 -63 -12
c-32 0 -57.333 8.83301 -76 26.5c-18.667 18.333 -28.334 44.166 -29.001 77.499c0 2 0.166992 4.5 0.5 7.5s0.666016 7.5 0.999023 13.5s1 13.833 2 23.5c1 9 2.5 21.5 4.5 37.5l31 255h-54c-5.33301 0 -9.5 1.66699 -12.5 5c-3 2.66699 -4.16699 7.33398 -3.5 14.001l4 34
l77 10l38 158c1.33301 5.33301 3.83301 9.5 7.5 12.5s8.16699 4.5 13.5 4.5h47l-22 -175h323zM374 674h264l-6 -58h-265z" />
    <glyph glyph-name="t_itilde.liga" unicode="t&#x129;" horiz-adv-x="573" 
d="M526 496l-8 -63v0l-53 -433h-87l54 433h-236l-32 -250c-1.33301 -13.333 -2.5 -24.166 -3.5 -32.499s-1.66699 -15.166 -2 -20.499s-0.666016 -9 -0.999023 -11s-0.5 -3.33301 -0.5 -4c0 -17.333 4 -30 12 -38c8.66699 -8 19.667 -12 33 -12
c8.66699 0 16.167 1.16699 22.5 3.5s12 5.16602 17 8.49902s9.16699 6.16602 12.5 8.49902s6.33301 3.5 9 3.5s4.83398 -0.666992 6.50098 -2c1.66699 -2 3.16699 -4.33301 4.5 -7l18 -42c-16 -14.667 -34.333 -26 -55 -34s-41.667 -12 -63 -12
c-32 0 -57.333 8.83301 -76 26.5c-18.667 18.333 -28.334 44.166 -29.001 77.499c0 2 0.166992 4.5 0.5 7.5s0.666016 7.5 0.999023 13.5s1 13.833 2 23.5c1 9 2.5 21.5 4.5 37.5l31 255h-54c-5.33301 0 -9.5 1.66699 -12.5 5c-3 2.66699 -4.16699 7.33398 -3.5 14.001l4 34
l77 10l38 158c1.33301 5.33301 3.83301 9.5 7.5 12.5s8.16699 4.5 13.5 4.5h47l-22 -175h323zM558 662c22.667 0 35.6689 14.667 39.002 44h50c-1.33301 -16 -4.83301 -30.667 -10.5 -44s-12.5 -24.666 -20.5 -33.999s-17.333 -16.5 -28 -21.5s-22 -7.5 -34 -7.5
c-10.667 0 -20.5 2.5 -29.5 7.5s-17.333 10.167 -25 15.5s-14.834 10.5 -21.501 15.5s-13.667 7.5 -21 7.5c-22.667 0 -35.667 -14.667 -39 -44h-51c1.33301 16 4.83301 30.5 10.5 43.5s12.667 24.333 21 34s17.833 17 28.5 22s22 7.5 34 7.5
c10.667 0 20.5 -2.33301 29.5 -7s17.167 -9.83398 24.5 -15.501s14.666 -11 21.999 -16s14.333 -7.5 21 -7.5z" />
    <glyph glyph-name="t_ibreve.liga" unicode="t&#x12d;" horiz-adv-x="573" 
d="M526 496l-8 -63v0l-53 -433h-87l54 433h-236l-32 -250c-1.33301 -13.333 -2.5 -24.166 -3.5 -32.499s-1.66699 -15.166 -2 -20.499s-0.666016 -9 -0.999023 -11s-0.5 -3.33301 -0.5 -4c0 -17.333 4 -30 12 -38c8.66699 -8 19.667 -12 33 -12
c8.66699 0 16.167 1.16699 22.5 3.5s12 5.16602 17 8.49902s9.16699 6.16602 12.5 8.49902s6.33301 3.5 9 3.5s4.83398 -0.666992 6.50098 -2c1.66699 -2 3.16699 -4.33301 4.5 -7l18 -42c-16 -14.667 -34.333 -26 -55 -34s-41.667 -12 -63 -12
c-32 0 -57.333 8.83301 -76 26.5c-18.667 18.333 -28.334 44.166 -29.001 77.499c0 2 0.166992 4.5 0.5 7.5s0.666016 7.5 0.999023 13.5s1 13.833 2 23.5c1 9 2.5 21.5 4.5 37.5l31 255h-54c-5.33301 0 -9.5 1.66699 -12.5 5c-3 2.66699 -4.16699 7.33398 -3.5 14.001l4 34
l77 10l38 158c1.33301 5.33301 3.83301 9.5 7.5 12.5s8.16699 4.5 13.5 4.5h47l-22 -175h323zM498 582c-23.333 0 -42.834 3.66602 -58.501 10.999s-27.667 17 -36 29s-13.666 26.167 -15.999 42.5c-2.33301 15.667 -2.83301 32.834 -1.5 51.501h59
c-1.33301 -10.667 -1.5 -20.667 -0.5 -30s3.83301 -17.333 8.5 -24s11 -12 19 -16s18.667 -6 32 -6s24.5 2 33.5 6s16.5 9.33301 22.5 16s10.5 14.667 13.5 24s5.16699 19.333 6.5 30h58c-2 -18.667 -6 -36 -12 -52s-14.5 -30 -25.5 -42s-25 -21.667 -42 -29
s-37.167 -11 -60.5 -11z" />
    <glyph glyph-name="t_uni01D0.liga" unicode="t&#x1d0;" horiz-adv-x="573" 
d="M526 496l-8 -63v0l-53 -433h-87l54 433h-236l-32 -250c-1.33301 -13.333 -2.5 -24.166 -3.5 -32.499s-1.66699 -15.166 -2 -20.499s-0.666016 -9 -0.999023 -11s-0.5 -3.33301 -0.5 -4c0 -17.333 4 -30 12 -38c8.66699 -8 19.667 -12 33 -12
c8.66699 0 16.167 1.16699 22.5 3.5s12 5.16602 17 8.49902s9.16699 6.16602 12.5 8.49902s6.33301 3.5 9 3.5s4.83398 -0.666992 6.50098 -2c1.66699 -2 3.16699 -4.33301 4.5 -7l18 -42c-16 -14.667 -34.333 -26 -55 -34s-41.667 -12 -63 -12
c-32 0 -57.333 8.83301 -76 26.5c-18.667 18.333 -28.334 44.166 -29.001 77.499c0 2 0.166992 4.5 0.5 7.5s0.666016 7.5 0.999023 13.5s1 13.833 2 23.5c1 9 2.5 21.5 4.5 37.5l31 255h-54c-5.33301 0 -9.5 1.66699 -12.5 5c-3 2.66699 -4.16699 7.33398 -3.5 14.001l4 34
l77 10l38 158c1.33301 5.33301 3.83301 9.5 7.5 12.5s8.16699 4.5 13.5 4.5h47l-22 -175h323zM366 716h56.001c4 0 7.66699 -0.666992 11 -2s5.66602 -3 6.99902 -5l52 -68l6 -10l9 10l67 68l9 4.5c3.33301 1.66699 6.33301 2.5 9 2.5h56l-118 -132h-76z" />
    <glyph glyph-name="t_uni1E2D.liga" unicode="t&#x1e2d;" horiz-adv-x="573" 
d="M526 496l-8 -63v0l-53 -433h-87l54 433h-236l-32 -250c-1.33301 -13.333 -2.5 -24.166 -3.5 -32.499s-1.66699 -15.166 -2 -20.499s-0.666016 -9 -0.999023 -11s-0.5 -3.33301 -0.5 -4c0 -17.333 4 -30 12 -38c8.66699 -8 19.667 -12 33 -12
c8.66699 0 16.167 1.16699 22.5 3.5s12 5.16602 17 8.49902s9.16699 6.16602 12.5 8.49902s6.33301 3.5 9 3.5s4.83398 -0.666992 6.50098 -2c1.66699 -2 3.16699 -4.33301 4.5 -7l18 -42c-16 -14.667 -34.333 -26 -55 -34s-41.667 -12 -63 -12
c-32 0 -57.333 8.83301 -76 26.5c-18.667 18.333 -28.334 44.166 -29.001 77.499c0 2 0.166992 4.5 0.5 7.5s0.666016 7.5 0.999023 13.5s1 13.833 2 23.5c1 9 2.5 21.5 4.5 37.5l31 255h-54c-5.33301 0 -9.5 1.66699 -12.5 5c-3 2.66699 -4.16699 7.33398 -3.5 14.001l4 34
l77 10l38 158c1.33301 5.33301 3.83301 9.5 7.5 12.5s8.16699 4.5 13.5 4.5h47l-22 -175h323zM564 666c0 -8.66699 -1.83203 -16.834 -5.49902 -24.501s-8.33398 -14.5 -14.001 -20.5s-12.334 -10.667 -20.001 -14s-15.5 -5 -23.5 -5s-15.5 1.66699 -22.5 5
s-13.333 8 -19 14s-10.167 12.667 -13.5 20s-5 15.666 -5 24.999c0 8.66699 1.66699 16.834 5 24.501s7.83301 14.334 13.5 20.001s12.167 10.334 19.5 14.001s15 5.5 23 5.5s15.667 -1.66699 23 -5s13.833 -8 19.5 -14s10.334 -12.833 14.001 -20.5
s5.5 -15.834 5.5 -24.501zM452.001 -90c22.667 0 35.6689 14.667 39.002 44h50c-1.33301 -16 -4.83301 -30.667 -10.5 -44s-12.5 -24.666 -20.5 -33.999s-17.333 -16.5 -28 -21.5s-22 -7.5 -34 -7.5c-10.667 0 -20.5 2.5 -29.5 7.5s-17.333 10.167 -25 15.5
s-14.834 10.5 -21.501 15.5s-13.667 7.5 -21 7.5c-22.667 0 -35.667 -14.667 -39 -44h-51c1.33301 16 4.83301 30.5 10.5 43.5s12.667 24.333 21 34s17.833 17 28.5 22s22 7.5 34 7.5c10.667 0 20.5 -2.33301 29.5 -7s17.167 -9.83398 24.5 -15.501s14.666 -11 21.999 -16
s14.333 -7.5 21 -7.5z" />
    <glyph glyph-name="t_uni1E2F.liga" unicode="t&#x1e2f;" horiz-adv-x="573" 
d="M526 496l-8 -63v0l-53 -433h-87l54 433h-236l-32 -250c-1.33301 -13.333 -2.5 -24.166 -3.5 -32.499s-1.66699 -15.166 -2 -20.499s-0.666016 -9 -0.999023 -11s-0.5 -3.33301 -0.5 -4c0 -17.333 4 -30 12 -38c8.66699 -8 19.667 -12 33 -12
c8.66699 0 16.167 1.16699 22.5 3.5s12 5.16602 17 8.49902s9.16699 6.16602 12.5 8.49902s6.33301 3.5 9 3.5s4.83398 -0.666992 6.50098 -2c1.66699 -2 3.16699 -4.33301 4.5 -7l18 -42c-16 -14.667 -34.333 -26 -55 -34s-41.667 -12 -63 -12
c-32 0 -57.333 8.83301 -76 26.5c-18.667 18.333 -28.334 44.166 -29.001 77.499c0 2 0.166992 4.5 0.5 7.5s0.666016 7.5 0.999023 13.5s1 13.833 2 23.5c1 9 2.5 21.5 4.5 37.5l31 255h-54c-5.33301 0 -9.5 1.66699 -12.5 5c-3 2.66699 -4.16699 7.33398 -3.5 14.001l4 34
l77 10l38 158c1.33301 5.33301 3.83301 9.5 7.5 12.5s8.16699 4.5 13.5 4.5h47l-22 -175h323zM673 881l-121.999 -128c-4.66699 -5.33301 -9.16699 -9 -13.5 -11s-9.83301 -3 -16.5 -3h-49l81 120c5.33301 8 10.666 13.667 15.999 17s13.333 5 24 5h80zM472.001 644
c0 -8 -1.66699 -15.167 -5 -21.5s-7.66602 -12 -12.999 -17s-11.333 -9 -18 -12s-14 -4.5 -22 -4.5s-15.167 1.5 -21.5 4.5s-12 7 -17 12s-9.16699 10.833 -12.5 17.5c-3.33301 6 -5 13 -5 21s1.66699 15.5 5 22.5s7.5 13 12.5 18s10.833 9.16699 17.5 12.5
c6 3.33301 13 5 21 5s15.333 -1.66699 22 -5s12.667 -7.5 18 -12.5s9.66602 -11 12.999 -18s5 -14.5 5 -22.5zM652.001 644c0 -8 -1.5 -15.167 -4.5 -21.5s-7 -12 -12 -17s-11 -9 -18 -12c-6.33301 -3 -13.5 -4.5 -21.5 -4.5s-15.333 1.5 -22 4.5s-12.667 7 -18 12
s-9.5 10.833 -12.5 17.5c-3 6 -4.5 13 -4.5 21s1.5 15.5 4.5 22.5s7.16699 13 12.5 18s11.333 9.16699 18 12.5s14 5 22 5s15.333 -1.66699 22 -5s12.5 -7.5 17.5 -12.5s9 -11 12 -18s4.5 -14.5 4.5 -22.5z" />
    <glyph glyph-name="t_uni0268.liga" unicode="t&#x268;" horiz-adv-x="591" 
d="M413 282l19 151h-236l-32 -250c-1.33301 -13.333 -2.5 -24.166 -3.5 -32.499s-1.66699 -15.166 -2 -20.499s-0.666016 -9 -0.999023 -11s-0.5 -3.33301 -0.5 -4c0 -17.333 4 -30 12 -38c8.66699 -8 19.667 -12 33 -12c8.66699 0 16.167 1.16699 22.5 3.5
s12 5.16602 17 8.49902s9.16699 6.16602 12.5 8.49902s6.33301 3.5 9 3.5s4.83398 -0.666992 6.50098 -2c1.66699 -2 3.16699 -4.33301 4.5 -7l18 -42c-16 -14.667 -34.333 -26 -55 -34s-41.667 -12 -63 -12c-32 0 -57.333 8.83301 -76 26.5
c-18.667 18.333 -28.334 44.166 -29.001 77.499c0 2 0.166992 4.5 0.5 7.5s0.666016 7.5 0.999023 13.5s1 13.833 2 23.5c1 9 2.5 21.5 4.5 37.5l31 255h-54c-5.33301 0 -9.5 1.66699 -12.5 5c-3 2.66699 -4.16699 7.33398 -3.5 14.001l4 34l77 10l38 158
c1.33301 5.33301 3.83301 9.5 7.5 12.5s8.16699 4.5 13.5 4.5h47l-22 -175h323l-8 -63v0l-19 -151h73l-8 -63h-72l-27 -219h-87l27 219h-67l8 63h67zM562 666c0 -8.66699 -1.83203 -16.834 -5.49902 -24.501s-8.33398 -14.5 -14.001 -20.5s-12.334 -10.667 -20.001 -14
s-15.5 -5 -23.5 -5s-15.5 1.66699 -22.5 5s-13.333 8 -19 14s-10.167 12.667 -13.5 20s-5 15.666 -5 24.999c0 8.66699 1.66699 16.834 5 24.501s7.83301 14.334 13.5 20.001s12.167 10.334 19.5 14.001s15 5.5 23 5.5s15.667 -1.66699 23 -5s13.833 -8 19.5 -14
s10.334 -12.833 14.001 -20.5s5.5 -15.834 5.5 -24.501z" />
    <glyph glyph-name="t_uni020B.liga" unicode="t&#x20b;" horiz-adv-x="573" 
d="M526 496l-8 -63v0l-53 -433h-87l54 433h-236l-32 -250c-1.33301 -13.333 -2.5 -24.166 -3.5 -32.499s-1.66699 -15.166 -2 -20.499s-0.666016 -9 -0.999023 -11s-0.5 -3.33301 -0.5 -4c0 -17.333 4 -30 12 -38c8.66699 -8 19.667 -12 33 -12
c8.66699 0 16.167 1.16699 22.5 3.5s12 5.16602 17 8.49902s9.16699 6.16602 12.5 8.49902s6.33301 3.5 9 3.5s4.83398 -0.666992 6.50098 -2c1.66699 -2 3.16699 -4.33301 4.5 -7l18 -42c-16 -14.667 -34.333 -26 -55 -34s-41.667 -12 -63 -12
c-32 0 -57.333 8.83301 -76 26.5c-18.667 18.333 -28.334 44.166 -29.001 77.499c0 2 0.166992 4.5 0.5 7.5s0.666016 7.5 0.999023 13.5s1 13.833 2 23.5c1 9 2.5 21.5 4.5 37.5l31 255h-54c-5.33301 0 -9.5 1.66699 -12.5 5c-3 2.66699 -4.16699 7.33398 -3.5 14.001l4 34
l77 10l38 158c1.33301 5.33301 3.83301 9.5 7.5 12.5s8.16699 4.5 13.5 4.5h47l-22 -175h323zM508 724c23.333 0 42.5 -3.66602 57.5 -10.999s26.833 -17 35.5 -29s14.334 -26.167 17.001 -42.5c2.66699 -15.667 2.66699 -32.834 0 -51.501h-58
c1.33301 10.667 1.5 20.667 0.5 30s-3.66699 17.333 -8 24s-10.833 12 -19.5 16s-19.334 6 -32.001 6c-13.333 0 -24.5 -2 -33.5 -6s-16.5 -9.33301 -22.5 -16s-10.667 -14.667 -14 -24s-5.66602 -19.333 -6.99902 -30h-58c2 18.667 6.16699 36 12.5 52s15.166 30 26.499 42
s25.5 21.667 42.5 29s37.167 11 60.5 11z" />
    <glyph glyph-name="t_uni0209.liga" unicode="t&#x209;" horiz-adv-x="573" 
d="M526 496l-8 -63v0l-53 -433h-87l54 433h-236l-32 -250c-1.33301 -13.333 -2.5 -24.166 -3.5 -32.499s-1.66699 -15.166 -2 -20.499s-0.666016 -9 -0.999023 -11s-0.5 -3.33301 -0.5 -4c0 -17.333 4 -30 12 -38c8.66699 -8 19.667 -12 33 -12
c8.66699 0 16.167 1.16699 22.5 3.5s12 5.16602 17 8.49902s9.16699 6.16602 12.5 8.49902s6.33301 3.5 9 3.5s4.83398 -0.666992 6.50098 -2c1.66699 -2 3.16699 -4.33301 4.5 -7l18 -42c-16 -14.667 -34.333 -26 -55 -34s-41.667 -12 -63 -12
c-32 0 -57.333 8.83301 -76 26.5c-18.667 18.333 -28.334 44.166 -29.001 77.499c0 2 0.166992 4.5 0.5 7.5s0.666016 7.5 0.999023 13.5s1 13.833 2 23.5c1 9 2.5 21.5 4.5 37.5l31 255h-54c-5.33301 0 -9.5 1.66699 -12.5 5c-3 2.66699 -4.16699 7.33398 -3.5 14.001l4 34
l77 10l38 158c1.33301 5.33301 3.83301 9.5 7.5 12.5s8.16699 4.5 13.5 4.5h47l-22 -175h323zM508 724c10 0 17.5 -1.66699 22.5 -5s8.83301 -9 11.5 -17l50 -120h-34c-6.66699 0 -12 1 -16 3s-7.33301 5.66699 -10 11l-78 128h54zM370 724c10.667 0 18 -1.66699 22 -5
s8 -9 12 -17l69 -120h-39c-6.66699 0 -12 1 -16 3s-7.66699 5.66699 -11 11l-97 128h60z" />
    <glyph glyph-name="t_t_i.liga" unicode="tti" horiz-adv-x="863" 
d="M816 496l-61 -495.999h-86l53 433h-227l-31 -250c-1.33301 -13.333 -2.5 -24.166 -3.5 -32.499s-1.66699 -15.166 -2 -20.499s-0.666016 -9 -0.999023 -11s-0.5 -3.33301 -0.5 -4c0 -17.333 3.83301 -30 11.5 -38s18.5 -12 32.5 -12c8.66699 0 16.334 1.16699 23.001 3.5
s12.334 5.16602 17.001 8.49902s8.66699 6.16602 12 8.49902s6.33301 3.5 9 3.5c5.33301 -0.666992 9.33301 -3.66699 12 -9l18 -42c-16 -14.667 -34.333 -26 -55 -34s-41.667 -12 -63 -12c-32 0 -57.333 8.83301 -76 26.5c-18.667 18.333 -28.667 44.166 -30 77.499
c0 2 0.166992 4.5 0.5 7.5s0.666016 7.5 0.999023 13.5s1.16602 13.833 2.49902 23.5c1.33301 9 2.66602 21.5 3.99902 37.5l32 255h-212l-32 -250c-1.33301 -13.333 -2.5 -24.166 -3.5 -32.499s-1.66699 -15.166 -2 -20.499s-0.666016 -9 -0.999023 -11
s-0.5 -3.33301 -0.5 -4c0 -17.333 4 -30 12 -38c8.66699 -8 19.667 -12 33 -12c8.66699 0 16.167 1.16699 22.5 3.5s12 5.16602 17 8.49902s9.16699 6.16602 12.5 8.49902s6.33301 3.5 9 3.5s4.83398 -0.666992 6.50098 -2c1.66699 -2 3.16699 -4.33301 4.5 -7l18 -42
c-16 -14.667 -34.333 -26 -55 -34s-41.667 -12 -63 -12c-32 0 -57.333 8.83301 -76 26.5c-18.667 18.333 -28.334 44.166 -29.001 77.499c0 2 0.166992 4.5 0.5 7.5s0.666016 7.5 0.999023 13.5s1 13.833 2 23.5c1 9 2.5 21.5 4.5 37.5l31 255h-54
c-5.33301 0 -9.5 1.66699 -12.5 5c-3 2.66699 -4.16699 7.33398 -3.5 14.001l4 34l77 10l38 158c1.33301 5.33301 3.83301 9.5 7.5 12.5s8.16699 4.5 13.5 4.5h47l-22 -175h215l38 158c1.33301 5.33301 4 9.5 8 12.5s8.66699 4.5 14 4.5h46l-21 -175h313zM856 666.001
c0 -8.66699 -1.83203 -16.834 -5.49902 -24.501s-8.33398 -14.5 -14.001 -20.5s-12.334 -10.667 -20.001 -14s-15.5 -5 -23.5 -5s-15.5 1.66699 -22.5 5s-13.333 8 -19 14s-10.167 12.667 -13.5 20s-5 15.666 -5 24.999c0 8.66699 1.66699 16.834 5 24.501
s7.83301 14.334 13.5 20.001s12.167 10.334 19.5 14.001s15 5.5 23 5.5s15.667 -1.66699 23 -5s13.833 -8 19.5 -14s10.334 -12.833 14.001 -20.5s5.5 -15.834 5.5 -24.501z" />
    <glyph glyph-name="t_t_igrave.liga" unicode="tt&#xec;" horiz-adv-x="863" 
d="M816 496l-61 -495.999h-86l53 433h-227l-31 -250c-1.33301 -13.333 -2.5 -24.166 -3.5 -32.499s-1.66699 -15.166 -2 -20.499s-0.666016 -9 -0.999023 -11s-0.5 -3.33301 -0.5 -4c0 -17.333 3.83301 -30 11.5 -38s18.5 -12 32.5 -12c8.66699 0 16.334 1.16699 23.001 3.5
s12.334 5.16602 17.001 8.49902s8.66699 6.16602 12 8.49902s6.33301 3.5 9 3.5c5.33301 -0.666992 9.33301 -3.66699 12 -9l18 -42c-16 -14.667 -34.333 -26 -55 -34s-41.667 -12 -63 -12c-32 0 -57.333 8.83301 -76 26.5c-18.667 18.333 -28.667 44.166 -30 77.499
c0 2 0.166992 4.5 0.5 7.5s0.666016 7.5 0.999023 13.5s1.16602 13.833 2.49902 23.5c1.33301 9 2.66602 21.5 3.99902 37.5l32 255h-212l-32 -250c-1.33301 -13.333 -2.5 -24.166 -3.5 -32.499s-1.66699 -15.166 -2 -20.499s-0.666016 -9 -0.999023 -11
s-0.5 -3.33301 -0.5 -4c0 -17.333 4 -30 12 -38c8.66699 -8 19.667 -12 33 -12c8.66699 0 16.167 1.16699 22.5 3.5s12 5.16602 17 8.49902s9.16699 6.16602 12.5 8.49902s6.33301 3.5 9 3.5s4.83398 -0.666992 6.50098 -2c1.66699 -2 3.16699 -4.33301 4.5 -7l18 -42
c-16 -14.667 -34.333 -26 -55 -34s-41.667 -12 -63 -12c-32 0 -57.333 8.83301 -76 26.5c-18.667 18.333 -28.334 44.166 -29.001 77.499c0 2 0.166992 4.5 0.5 7.5s0.666016 7.5 0.999023 13.5s1 13.833 2 23.5c1 9 2.5 21.5 4.5 37.5l31 255h-54
c-5.33301 0 -9.5 1.66699 -12.5 5c-3 2.66699 -4.16699 7.33398 -3.5 14.001l4 34l77 10l38 158c1.33301 5.33301 3.83301 9.5 7.5 12.5s8.16699 4.5 13.5 4.5h47l-22 -175h215l38 158c1.33301 5.33301 4 9.5 8 12.5s8.66699 4.5 14 4.5h46l-21 -175h313zM742 724.001
c10 0 17.167 -1.66699 21.5 -5s8.5 -9 12.5 -17l54 -120h-46c-6.66699 0 -12 1 -16 3s-7.66699 5.66699 -11 11l-93 128h78z" />
    <glyph glyph-name="t_t_iacute.liga" unicode="tt&#xed;" horiz-adv-x="863" 
d="M816 496l-61 -495.999h-86l53 433h-227l-31 -250c-1.33301 -13.333 -2.5 -24.166 -3.5 -32.499s-1.66699 -15.166 -2 -20.499s-0.666016 -9 -0.999023 -11s-0.5 -3.33301 -0.5 -4c0 -17.333 3.83301 -30 11.5 -38s18.5 -12 32.5 -12c8.66699 0 16.334 1.16699 23.001 3.5
s12.334 5.16602 17.001 8.49902s8.66699 6.16602 12 8.49902s6.33301 3.5 9 3.5c5.33301 -0.666992 9.33301 -3.66699 12 -9l18 -42c-16 -14.667 -34.333 -26 -55 -34s-41.667 -12 -63 -12c-32 0 -57.333 8.83301 -76 26.5c-18.667 18.333 -28.667 44.166 -30 77.499
c0 2 0.166992 4.5 0.5 7.5s0.666016 7.5 0.999023 13.5s1.16602 13.833 2.49902 23.5c1.33301 9 2.66602 21.5 3.99902 37.5l32 255h-212l-32 -250c-1.33301 -13.333 -2.5 -24.166 -3.5 -32.499s-1.66699 -15.166 -2 -20.499s-0.666016 -9 -0.999023 -11
s-0.5 -3.33301 -0.5 -4c0 -17.333 4 -30 12 -38c8.66699 -8 19.667 -12 33 -12c8.66699 0 16.167 1.16699 22.5 3.5s12 5.16602 17 8.49902s9.16699 6.16602 12.5 8.49902s6.33301 3.5 9 3.5s4.83398 -0.666992 6.50098 -2c1.66699 -2 3.16699 -4.33301 4.5 -7l18 -42
c-16 -14.667 -34.333 -26 -55 -34s-41.667 -12 -63 -12c-32 0 -57.333 8.83301 -76 26.5c-18.667 18.333 -28.334 44.166 -29.001 77.499c0 2 0.166992 4.5 0.5 7.5s0.666016 7.5 0.999023 13.5s1 13.833 2 23.5c1 9 2.5 21.5 4.5 37.5l31 255h-54
c-5.33301 0 -9.5 1.66699 -12.5 5c-3 2.66699 -4.16699 7.33398 -3.5 14.001l4 34l77 10l38 158c1.33301 5.33301 3.83301 9.5 7.5 12.5s8.16699 4.5 13.5 4.5h47l-22 -175h215l38 158c1.33301 5.33301 4 9.5 8 12.5s8.66699 4.5 14 4.5h46l-21 -175h313zM938 724.001
l-121.999 -128c-4.66699 -5.33301 -9.16699 -9 -13.5 -11s-9.83301 -3 -16.5 -3h-49l81 120c5.33301 8 10.666 13.667 15.999 17s13.333 5 24 5h80z" />
    <glyph glyph-name="t_t_icircumflex.liga" unicode="tt&#xee;" horiz-adv-x="863" 
d="M816 496l-61 -495.999h-86l53 433h-227l-31 -250c-1.33301 -13.333 -2.5 -24.166 -3.5 -32.499s-1.66699 -15.166 -2 -20.499s-0.666016 -9 -0.999023 -11s-0.5 -3.33301 -0.5 -4c0 -17.333 3.83301 -30 11.5 -38s18.5 -12 32.5 -12c8.66699 0 16.334 1.16699 23.001 3.5
s12.334 5.16602 17.001 8.49902s8.66699 6.16602 12 8.49902s6.33301 3.5 9 3.5c5.33301 -0.666992 9.33301 -3.66699 12 -9l18 -42c-16 -14.667 -34.333 -26 -55 -34s-41.667 -12 -63 -12c-32 0 -57.333 8.83301 -76 26.5c-18.667 18.333 -28.667 44.166 -30 77.499
c0 2 0.166992 4.5 0.5 7.5s0.666016 7.5 0.999023 13.5s1.16602 13.833 2.49902 23.5c1.33301 9 2.66602 21.5 3.99902 37.5l32 255h-212l-32 -250c-1.33301 -13.333 -2.5 -24.166 -3.5 -32.499s-1.66699 -15.166 -2 -20.499s-0.666016 -9 -0.999023 -11
s-0.5 -3.33301 -0.5 -4c0 -17.333 4 -30 12 -38c8.66699 -8 19.667 -12 33 -12c8.66699 0 16.167 1.16699 22.5 3.5s12 5.16602 17 8.49902s9.16699 6.16602 12.5 8.49902s6.33301 3.5 9 3.5s4.83398 -0.666992 6.50098 -2c1.66699 -2 3.16699 -4.33301 4.5 -7l18 -42
c-16 -14.667 -34.333 -26 -55 -34s-41.667 -12 -63 -12c-32 0 -57.333 8.83301 -76 26.5c-18.667 18.333 -28.334 44.166 -29.001 77.499c0 2 0.166992 4.5 0.5 7.5s0.666016 7.5 0.999023 13.5s1 13.833 2 23.5c1 9 2.5 21.5 4.5 37.5l31 255h-54
c-5.33301 0 -9.5 1.66699 -12.5 5c-3 2.66699 -4.16699 7.33398 -3.5 14.001l4 34l77 10l38 158c1.33301 5.33301 3.83301 9.5 7.5 12.5s8.16699 4.5 13.5 4.5h47l-22 -175h215l38 158c1.33301 5.33301 4 9.5 8 12.5s8.66699 4.5 14 4.5h46l-21 -175h313zM924 584.001
l-54.001 0.000976562c-3.33301 0 -6.66602 0.666992 -9.99902 2c-4 1.33301 -7.33301 4 -10 8l-49 66c-1.33301 1.33301 -2.5 2.83301 -3.5 4.5c-1 2.33301 -2.16699 4.16602 -3.5 5.49902l-8 -10l-65 -66c-6.66699 -6.66699 -13.667 -10 -21 -10h-57l117 132h76z" />
    <glyph glyph-name="t_t_idieresis.liga" unicode="tt&#xef;" horiz-adv-x="863" 
d="M816 496l-61 -495.999h-86l53 433h-227l-31 -250c-1.33301 -13.333 -2.5 -24.166 -3.5 -32.499s-1.66699 -15.166 -2 -20.499s-0.666016 -9 -0.999023 -11s-0.5 -3.33301 -0.5 -4c0 -17.333 3.83301 -30 11.5 -38s18.5 -12 32.5 -12c8.66699 0 16.334 1.16699 23.001 3.5
s12.334 5.16602 17.001 8.49902s8.66699 6.16602 12 8.49902s6.33301 3.5 9 3.5c5.33301 -0.666992 9.33301 -3.66699 12 -9l18 -42c-16 -14.667 -34.333 -26 -55 -34s-41.667 -12 -63 -12c-32 0 -57.333 8.83301 -76 26.5c-18.667 18.333 -28.667 44.166 -30 77.499
c0 2 0.166992 4.5 0.5 7.5s0.666016 7.5 0.999023 13.5s1.16602 13.833 2.49902 23.5c1.33301 9 2.66602 21.5 3.99902 37.5l32 255h-212l-32 -250c-1.33301 -13.333 -2.5 -24.166 -3.5 -32.499s-1.66699 -15.166 -2 -20.499s-0.666016 -9 -0.999023 -11
s-0.5 -3.33301 -0.5 -4c0 -17.333 4 -30 12 -38c8.66699 -8 19.667 -12 33 -12c8.66699 0 16.167 1.16699 22.5 3.5s12 5.16602 17 8.49902s9.16699 6.16602 12.5 8.49902s6.33301 3.5 9 3.5s4.83398 -0.666992 6.50098 -2c1.66699 -2 3.16699 -4.33301 4.5 -7l18 -42
c-16 -14.667 -34.333 -26 -55 -34s-41.667 -12 -63 -12c-32 0 -57.333 8.83301 -76 26.5c-18.667 18.333 -28.334 44.166 -29.001 77.499c0 2 0.166992 4.5 0.5 7.5s0.666016 7.5 0.999023 13.5s1 13.833 2 23.5c1 9 2.5 21.5 4.5 37.5l31 255h-54
c-5.33301 0 -9.5 1.66699 -12.5 5c-3 2.66699 -4.16699 7.33398 -3.5 14.001l4 34l77 10l38 158c1.33301 5.33301 3.83301 9.5 7.5 12.5s8.16699 4.5 13.5 4.5h47l-22 -175h215l38 158c1.33301 5.33301 4 9.5 8 12.5s8.66699 4.5 14 4.5h46l-21 -175h313zM783 644.001
c0 -8 -1.5 -15.167 -4.5 -21.5s-7.16699 -12 -12.5 -17s-11.333 -9 -18 -12s-14 -4.5 -22 -4.5c-7.33301 0 -14.333 1.5 -21 4.5s-12.5 7 -17.5 12s-9.16699 10.833 -12.5 17.5c-3.33301 6 -5 13 -5 21s1.66699 15.5 5 22.5s7.5 13 12.5 18s10.833 9.16699 17.5 12.5
s13.667 5 21 5c8 0 15.333 -1.66699 22 -5s12.667 -7.5 18 -12.5s9.5 -11 12.5 -18s4.5 -14.5 4.5 -22.5zM929 644.001c0 -8 -1.49902 -15.167 -4.49902 -21.5s-7.16699 -12 -12.5 -17s-11.333 -9 -18 -12s-14 -4.5 -22 -4.5s-15.333 1.5 -22 4.5s-12.334 7 -17.001 12
s-8.66699 10.833 -12 17.5c-3.33301 6 -5 13 -5 21s1.66699 15.5 5 22.5s7.33301 13 12 18s10.5 9.16699 17.5 12.5c6.33301 3.33301 13.5 5 21.5 5s15.333 -1.66699 22 -5s12.667 -7.5 18 -12.5s9.5 -11 12.5 -18s4.5 -14.5 4.5 -22.5z" />
    <glyph glyph-name="t_t_imacron.liga" unicode="tt&#x12b;" horiz-adv-x="863" 
d="M816 496l-61 -495.999h-86l53 433h-227l-31 -250c-1.33301 -13.333 -2.5 -24.166 -3.5 -32.499s-1.66699 -15.166 -2 -20.499s-0.666016 -9 -0.999023 -11s-0.5 -3.33301 -0.5 -4c0 -17.333 3.83301 -30 11.5 -38s18.5 -12 32.5 -12c8.66699 0 16.334 1.16699 23.001 3.5
s12.334 5.16602 17.001 8.49902s8.66699 6.16602 12 8.49902s6.33301 3.5 9 3.5c5.33301 -0.666992 9.33301 -3.66699 12 -9l18 -42c-16 -14.667 -34.333 -26 -55 -34s-41.667 -12 -63 -12c-32 0 -57.333 8.83301 -76 26.5c-18.667 18.333 -28.667 44.166 -30 77.499
c0 2 0.166992 4.5 0.5 7.5s0.666016 7.5 0.999023 13.5s1.16602 13.833 2.49902 23.5c1.33301 9 2.66602 21.5 3.99902 37.5l32 255h-212l-32 -250c-1.33301 -13.333 -2.5 -24.166 -3.5 -32.499s-1.66699 -15.166 -2 -20.499s-0.666016 -9 -0.999023 -11
s-0.5 -3.33301 -0.5 -4c0 -17.333 4 -30 12 -38c8.66699 -8 19.667 -12 33 -12c8.66699 0 16.167 1.16699 22.5 3.5s12 5.16602 17 8.49902s9.16699 6.16602 12.5 8.49902s6.33301 3.5 9 3.5s4.83398 -0.666992 6.50098 -2c1.66699 -2 3.16699 -4.33301 4.5 -7l18 -42
c-16 -14.667 -34.333 -26 -55 -34s-41.667 -12 -63 -12c-32 0 -57.333 8.83301 -76 26.5c-18.667 18.333 -28.334 44.166 -29.001 77.499c0 2 0.166992 4.5 0.5 7.5s0.666016 7.5 0.999023 13.5s1 13.833 2 23.5c1 9 2.5 21.5 4.5 37.5l31 255h-54
c-5.33301 0 -9.5 1.66699 -12.5 5c-3 2.66699 -4.16699 7.33398 -3.5 14.001l4 34l77 10l38 158c1.33301 5.33301 3.83301 9.5 7.5 12.5s8.16699 4.5 13.5 4.5h47l-22 -175h215l38 158c1.33301 5.33301 4 9.5 8 12.5s8.66699 4.5 14 4.5h46l-21 -175h313zM664 674.001h264
l-6 -58h-265z" />
    <glyph glyph-name="t_t_itilde.liga" unicode="tt&#x129;" horiz-adv-x="863" 
d="M816 496l-61 -495.999h-86l53 433h-227l-31 -250c-1.33301 -13.333 -2.5 -24.166 -3.5 -32.499s-1.66699 -15.166 -2 -20.499s-0.666016 -9 -0.999023 -11s-0.5 -3.33301 -0.5 -4c0 -17.333 3.83301 -30 11.5 -38s18.5 -12 32.5 -12c8.66699 0 16.334 1.16699 23.001 3.5
s12.334 5.16602 17.001 8.49902s8.66699 6.16602 12 8.49902s6.33301 3.5 9 3.5c5.33301 -0.666992 9.33301 -3.66699 12 -9l18 -42c-16 -14.667 -34.333 -26 -55 -34s-41.667 -12 -63 -12c-32 0 -57.333 8.83301 -76 26.5c-18.667 18.333 -28.667 44.166 -30 77.499
c0 2 0.166992 4.5 0.5 7.5s0.666016 7.5 0.999023 13.5s1.16602 13.833 2.49902 23.5c1.33301 9 2.66602 21.5 3.99902 37.5l32 255h-212l-32 -250c-1.33301 -13.333 -2.5 -24.166 -3.5 -32.499s-1.66699 -15.166 -2 -20.499s-0.666016 -9 -0.999023 -11
s-0.5 -3.33301 -0.5 -4c0 -17.333 4 -30 12 -38c8.66699 -8 19.667 -12 33 -12c8.66699 0 16.167 1.16699 22.5 3.5s12 5.16602 17 8.49902s9.16699 6.16602 12.5 8.49902s6.33301 3.5 9 3.5s4.83398 -0.666992 6.50098 -2c1.66699 -2 3.16699 -4.33301 4.5 -7l18 -42
c-16 -14.667 -34.333 -26 -55 -34s-41.667 -12 -63 -12c-32 0 -57.333 8.83301 -76 26.5c-18.667 18.333 -28.334 44.166 -29.001 77.499c0 2 0.166992 4.5 0.5 7.5s0.666016 7.5 0.999023 13.5s1 13.833 2 23.5c1 9 2.5 21.5 4.5 37.5l31 255h-54
c-5.33301 0 -9.5 1.66699 -12.5 5c-3 2.66699 -4.16699 7.33398 -3.5 14.001l4 34l77 10l38 158c1.33301 5.33301 3.83301 9.5 7.5 12.5s8.16699 4.5 13.5 4.5h47l-22 -175h215l38 158c1.33301 5.33301 4 9.5 8 12.5s8.66699 4.5 14 4.5h46l-21 -175h313zM844 662.001
c22.667 0 35.6689 14.667 39.002 44h50c-1.33301 -16 -4.83301 -30.667 -10.5 -44s-12.5 -24.666 -20.5 -33.999s-17.333 -16.5 -28 -21.5s-22 -7.5 -34 -7.5c-10.667 0 -20.5 2.5 -29.5 7.5s-17.333 10.167 -25 15.5s-14.834 10.5 -21.501 15.5s-13.667 7.5 -21 7.5
c-22.667 0 -35.667 -14.667 -39 -44h-51c1.33301 16 4.83301 30.5 10.5 43.5s12.667 24.333 21 34s17.833 17 28.5 22s22 7.5 34 7.5c10.667 0 20.5 -2.33301 29.5 -7s17.167 -9.83398 24.5 -15.501s14.666 -11 21.999 -16s14.333 -7.5 21 -7.5z" />
    <glyph glyph-name="t_t_ibreve.liga" unicode="tt&#x12d;" horiz-adv-x="863" 
d="M816 496l-61 -495.999h-86l53 433h-227l-31 -250c-1.33301 -13.333 -2.5 -24.166 -3.5 -32.499s-1.66699 -15.166 -2 -20.499s-0.666016 -9 -0.999023 -11s-0.5 -3.33301 -0.5 -4c0 -17.333 3.83301 -30 11.5 -38s18.5 -12 32.5 -12c8.66699 0 16.334 1.16699 23.001 3.5
s12.334 5.16602 17.001 8.49902s8.66699 6.16602 12 8.49902s6.33301 3.5 9 3.5c5.33301 -0.666992 9.33301 -3.66699 12 -9l18 -42c-16 -14.667 -34.333 -26 -55 -34s-41.667 -12 -63 -12c-32 0 -57.333 8.83301 -76 26.5c-18.667 18.333 -28.667 44.166 -30 77.499
c0 2 0.166992 4.5 0.5 7.5s0.666016 7.5 0.999023 13.5s1.16602 13.833 2.49902 23.5c1.33301 9 2.66602 21.5 3.99902 37.5l32 255h-212l-32 -250c-1.33301 -13.333 -2.5 -24.166 -3.5 -32.499s-1.66699 -15.166 -2 -20.499s-0.666016 -9 -0.999023 -11
s-0.5 -3.33301 -0.5 -4c0 -17.333 4 -30 12 -38c8.66699 -8 19.667 -12 33 -12c8.66699 0 16.167 1.16699 22.5 3.5s12 5.16602 17 8.49902s9.16699 6.16602 12.5 8.49902s6.33301 3.5 9 3.5s4.83398 -0.666992 6.50098 -2c1.66699 -2 3.16699 -4.33301 4.5 -7l18 -42
c-16 -14.667 -34.333 -26 -55 -34s-41.667 -12 -63 -12c-32 0 -57.333 8.83301 -76 26.5c-18.667 18.333 -28.334 44.166 -29.001 77.499c0 2 0.166992 4.5 0.5 7.5s0.666016 7.5 0.999023 13.5s1 13.833 2 23.5c1 9 2.5 21.5 4.5 37.5l31 255h-54
c-5.33301 0 -9.5 1.66699 -12.5 5c-3 2.66699 -4.16699 7.33398 -3.5 14.001l4 34l77 10l38 158c1.33301 5.33301 3.83301 9.5 7.5 12.5s8.16699 4.5 13.5 4.5h47l-22 -175h215l38 158c1.33301 5.33301 4 9.5 8 12.5s8.66699 4.5 14 4.5h46l-21 -175h313zM792 582.001
c-23.333 0 -42.834 3.66602 -58.501 10.999s-27.667 17 -36 29s-13.666 26.167 -15.999 42.5c-2.33301 15.667 -2.83301 32.834 -1.5 51.501h59c-1.33301 -10.667 -1.5 -20.667 -0.5 -30s3.83301 -17.333 8.5 -24s11 -12 19 -16s18.667 -6 32 -6s24.5 2 33.5 6
s16.5 9.33301 22.5 16s10.5 14.667 13.5 24s5.16699 19.333 6.5 30h58c-2 -18.667 -6 -36 -12 -52s-14.5 -30 -25.5 -42s-25 -21.667 -42 -29s-37.167 -11 -60.5 -11z" />
    <glyph glyph-name="t_t_uni01D0.liga" unicode="tt&#x1d0;" horiz-adv-x="863" 
d="M816 496l-61 -495.999h-86l53 433h-227l-31 -250c-1.33301 -13.333 -2.5 -24.166 -3.5 -32.499s-1.66699 -15.166 -2 -20.499s-0.666016 -9 -0.999023 -11s-0.5 -3.33301 -0.5 -4c0 -17.333 3.83301 -30 11.5 -38s18.5 -12 32.5 -12c8.66699 0 16.334 1.16699 23.001 3.5
s12.334 5.16602 17.001 8.49902s8.66699 6.16602 12 8.49902s6.33301 3.5 9 3.5c5.33301 -0.666992 9.33301 -3.66699 12 -9l18 -42c-16 -14.667 -34.333 -26 -55 -34s-41.667 -12 -63 -12c-32 0 -57.333 8.83301 -76 26.5c-18.667 18.333 -28.667 44.166 -30 77.499
c0 2 0.166992 4.5 0.5 7.5s0.666016 7.5 0.999023 13.5s1.16602 13.833 2.49902 23.5c1.33301 9 2.66602 21.5 3.99902 37.5l32 255h-212l-32 -250c-1.33301 -13.333 -2.5 -24.166 -3.5 -32.499s-1.66699 -15.166 -2 -20.499s-0.666016 -9 -0.999023 -11
s-0.5 -3.33301 -0.5 -4c0 -17.333 4 -30 12 -38c8.66699 -8 19.667 -12 33 -12c8.66699 0 16.167 1.16699 22.5 3.5s12 5.16602 17 8.49902s9.16699 6.16602 12.5 8.49902s6.33301 3.5 9 3.5s4.83398 -0.666992 6.50098 -2c1.66699 -2 3.16699 -4.33301 4.5 -7l18 -42
c-16 -14.667 -34.333 -26 -55 -34s-41.667 -12 -63 -12c-32 0 -57.333 8.83301 -76 26.5c-18.667 18.333 -28.334 44.166 -29.001 77.499c0 2 0.166992 4.5 0.5 7.5s0.666016 7.5 0.999023 13.5s1 13.833 2 23.5c1 9 2.5 21.5 4.5 37.5l31 255h-54
c-5.33301 0 -9.5 1.66699 -12.5 5c-3 2.66699 -4.16699 7.33398 -3.5 14.001l4 34l77 10l38 158c1.33301 5.33301 3.83301 9.5 7.5 12.5s8.16699 4.5 13.5 4.5h47l-22 -175h215l38 158c1.33301 5.33301 4 9.5 8 12.5s8.66699 4.5 14 4.5h46l-21 -175h313zM660 716.001
h56.001c4 0 7.66699 -0.666992 11 -2s5.66602 -3 6.99902 -5l52 -68l6 -10l9 10l67 68l9 4.5c3.33301 1.66699 6.33301 2.5 9 2.5h56l-118 -132h-76z" />
    <glyph glyph-name="t_t_uni1E2D.liga" unicode="tt&#x1e2d;" horiz-adv-x="863" 
d="M816 496l-61 -495.999h-86l53 433h-227l-31 -250c-1.33301 -13.333 -2.5 -24.166 -3.5 -32.499s-1.66699 -15.166 -2 -20.499s-0.666016 -9 -0.999023 -11s-0.5 -3.33301 -0.5 -4c0 -17.333 3.83301 -30 11.5 -38s18.5 -12 32.5 -12c8.66699 0 16.334 1.16699 23.001 3.5
s12.334 5.16602 17.001 8.49902s8.66699 6.16602 12 8.49902s6.33301 3.5 9 3.5c5.33301 -0.666992 9.33301 -3.66699 12 -9l18 -42c-16 -14.667 -34.333 -26 -55 -34s-41.667 -12 -63 -12c-32 0 -57.333 8.83301 -76 26.5c-18.667 18.333 -28.667 44.166 -30 77.499
c0 2 0.166992 4.5 0.5 7.5s0.666016 7.5 0.999023 13.5s1.16602 13.833 2.49902 23.5c1.33301 9 2.66602 21.5 3.99902 37.5l32 255h-212l-32 -250c-1.33301 -13.333 -2.5 -24.166 -3.5 -32.499s-1.66699 -15.166 -2 -20.499s-0.666016 -9 -0.999023 -11
s-0.5 -3.33301 -0.5 -4c0 -17.333 4 -30 12 -38c8.66699 -8 19.667 -12 33 -12c8.66699 0 16.167 1.16699 22.5 3.5s12 5.16602 17 8.49902s9.16699 6.16602 12.5 8.49902s6.33301 3.5 9 3.5s4.83398 -0.666992 6.50098 -2c1.66699 -2 3.16699 -4.33301 4.5 -7l18 -42
c-16 -14.667 -34.333 -26 -55 -34s-41.667 -12 -63 -12c-32 0 -57.333 8.83301 -76 26.5c-18.667 18.333 -28.334 44.166 -29.001 77.499c0 2 0.166992 4.5 0.5 7.5s0.666016 7.5 0.999023 13.5s1 13.833 2 23.5c1 9 2.5 21.5 4.5 37.5l31 255h-54
c-5.33301 0 -9.5 1.66699 -12.5 5c-3 2.66699 -4.16699 7.33398 -3.5 14.001l4 34l77 10l38 158c1.33301 5.33301 3.83301 9.5 7.5 12.5s8.16699 4.5 13.5 4.5h47l-22 -175h215l38 158c1.33301 5.33301 4 9.5 8 12.5s8.66699 4.5 14 4.5h46l-21 -175h313zM740 -89.999
c22.667 0 35.6689 14.667 39.002 44h50c-1.33301 -16 -4.83301 -30.667 -10.5 -44s-12.5 -24.666 -20.5 -33.999s-17.333 -16.5 -28 -21.5s-22 -7.5 -34 -7.5c-10.667 0 -20.5 2.5 -29.5 7.5s-17.333 10.167 -25 15.5s-14.834 10.5 -21.501 15.5s-13.667 7.5 -21 7.5
c-22.667 0 -35.667 -14.667 -39 -44h-51c1.33301 16 4.83301 30.5 10.5 43.5s12.667 24.333 21 34s17.833 17 28.5 22s22 7.5 34 7.5c10.667 0 20.5 -2.33301 29.5 -7s17.167 -9.83398 24.5 -15.501s14.666 -11 21.999 -16s14.333 -7.5 21 -7.5zM850.002 666.001
c0 -8.66699 -1.83203 -16.834 -5.49902 -24.501s-8.33398 -14.5 -14.001 -20.5s-12.334 -10.667 -20.001 -14s-15.5 -5 -23.5 -5s-15.5 1.66699 -22.5 5s-13.333 8 -19 14s-10.167 12.667 -13.5 20s-5 15.666 -5 24.999c0 8.66699 1.66699 16.834 5 24.501
s7.83301 14.334 13.5 20.001s12.167 10.334 19.5 14.001s15 5.5 23 5.5s15.667 -1.66699 23 -5s13.833 -8 19.5 -14s10.334 -12.833 14.001 -20.5s5.5 -15.834 5.5 -24.501z" />
    <glyph glyph-name="t_t_uni1E2F.liga" unicode="tt&#x1e2f;" horiz-adv-x="863" 
d="M816 496l-61 -495.999h-86l53 433h-227l-31 -250c-1.33301 -13.333 -2.5 -24.166 -3.5 -32.499s-1.66699 -15.166 -2 -20.499s-0.666016 -9 -0.999023 -11s-0.5 -3.33301 -0.5 -4c0 -17.333 3.83301 -30 11.5 -38s18.5 -12 32.5 -12c8.66699 0 16.334 1.16699 23.001 3.5
s12.334 5.16602 17.001 8.49902s8.66699 6.16602 12 8.49902s6.33301 3.5 9 3.5c5.33301 -0.666992 9.33301 -3.66699 12 -9l18 -42c-16 -14.667 -34.333 -26 -55 -34s-41.667 -12 -63 -12c-32 0 -57.333 8.83301 -76 26.5c-18.667 18.333 -28.667 44.166 -30 77.499
c0 2 0.166992 4.5 0.5 7.5s0.666016 7.5 0.999023 13.5s1.16602 13.833 2.49902 23.5c1.33301 9 2.66602 21.5 3.99902 37.5l32 255h-212l-32 -250c-1.33301 -13.333 -2.5 -24.166 -3.5 -32.499s-1.66699 -15.166 -2 -20.499s-0.666016 -9 -0.999023 -11
s-0.5 -3.33301 -0.5 -4c0 -17.333 4 -30 12 -38c8.66699 -8 19.667 -12 33 -12c8.66699 0 16.167 1.16699 22.5 3.5s12 5.16602 17 8.49902s9.16699 6.16602 12.5 8.49902s6.33301 3.5 9 3.5s4.83398 -0.666992 6.50098 -2c1.66699 -2 3.16699 -4.33301 4.5 -7l18 -42
c-16 -14.667 -34.333 -26 -55 -34s-41.667 -12 -63 -12c-32 0 -57.333 8.83301 -76 26.5c-18.667 18.333 -28.334 44.166 -29.001 77.499c0 2 0.166992 4.5 0.5 7.5s0.666016 7.5 0.999023 13.5s1 13.833 2 23.5c1 9 2.5 21.5 4.5 37.5l31 255h-54
c-5.33301 0 -9.5 1.66699 -12.5 5c-3 2.66699 -4.16699 7.33398 -3.5 14.001l4 34l77 10l38 158c1.33301 5.33301 3.83301 9.5 7.5 12.5s8.16699 4.5 13.5 4.5h47l-22 -175h215l38 158c1.33301 5.33301 4 9.5 8 12.5s8.66699 4.5 14 4.5h46l-21 -175h313zM964 881.001
l-121.999 -128c-4.66699 -5.33301 -9.16699 -9 -13.5 -11s-9.83301 -3 -16.5 -3h-49l81 120c5.33301 8 10.666 13.667 15.999 17s13.333 5 24 5h80zM764.001 644.001c0 -8 -1.66699 -15.167 -5 -21.5s-7.66602 -12 -12.999 -17s-11.333 -9 -18 -12s-14 -4.5 -22 -4.5
s-15.167 1.5 -21.5 4.5s-12 7 -17 12s-9.16699 10.833 -12.5 17.5c-3.33301 6 -5 13 -5 21s1.66699 15.5 5 22.5s7.5 13 12.5 18s10.833 9.16699 17.5 12.5c6 3.33301 13 5 21 5s15.333 -1.66699 22 -5s12.667 -7.5 18 -12.5s9.66602 -11 12.999 -18s5 -14.5 5 -22.5z
M944.001 644.001c0 -8 -1.5 -15.167 -4.5 -21.5s-7 -12 -12 -17s-11 -9 -18 -12c-6.33301 -3 -13.5 -4.5 -21.5 -4.5s-15.333 1.5 -22 4.5s-12.667 7 -18 12s-9.5 10.833 -12.5 17.5c-3 6 -4.5 13 -4.5 21s1.5 15.5 4.5 22.5s7.16699 13 12.5 18s11.333 9.16699 18 12.5
s14 5 22 5s15.333 -1.66699 22 -5s12.5 -7.5 17.5 -12.5s9 -11 12 -18s4.5 -14.5 4.5 -22.5z" />
    <glyph glyph-name="t_t_uni0268.liga" unicode="tt&#x268;" horiz-adv-x="883" 
d="M704 282l18 151.001h-227l-31 -250c-1.33301 -13.333 -2.5 -24.166 -3.5 -32.499s-1.66699 -15.166 -2 -20.499s-0.666016 -9 -0.999023 -11s-0.5 -3.33301 -0.5 -4c0 -17.333 3.83301 -30 11.5 -38s18.5 -12 32.5 -12c8.66699 0 16.334 1.16699 23.001 3.5
s12.334 5.16602 17.001 8.49902s8.66699 6.16602 12 8.49902s6.33301 3.5 9 3.5c5.33301 -0.666992 9.33301 -3.66699 12 -9l18 -42c-16 -14.667 -34.333 -26 -55 -34s-41.667 -12 -63 -12c-32 0 -57.333 8.83301 -76 26.5c-18.667 18.333 -28.667 44.166 -30 77.499
c0 2 0.166992 4.5 0.5 7.5s0.666016 7.5 0.999023 13.5s1.16602 13.833 2.49902 23.5c1.33301 9 2.66602 21.5 3.99902 37.5l32 255h-212l-32 -250c-1.33301 -13.333 -2.5 -24.166 -3.5 -32.499s-1.66699 -15.166 -2 -20.499s-0.666016 -9 -0.999023 -11
s-0.5 -3.33301 -0.5 -4c0 -17.333 4 -30 12 -38c8.66699 -8 19.667 -12 33 -12c8.66699 0 16.167 1.16699 22.5 3.5s12 5.16602 17 8.49902s9.16699 6.16602 12.5 8.49902s6.33301 3.5 9 3.5s4.83398 -0.666992 6.50098 -2c1.66699 -2 3.16699 -4.33301 4.5 -7l18 -42
c-16 -14.667 -34.333 -26 -55 -34s-41.667 -12 -63 -12c-32 0 -57.333 8.83301 -76 26.5c-18.667 18.333 -28.334 44.166 -29.001 77.499c0 2 0.166992 4.5 0.5 7.5s0.666016 7.5 0.999023 13.5s1 13.833 2 23.5c1 9 2.5 21.5 4.5 37.5l31 255h-54
c-5.33301 0 -9.5 1.66699 -12.5 5c-3 2.66699 -4.16699 7.33398 -3.5 14.001l4 34l77 10l38 158c1.33301 5.33301 3.83301 9.5 7.5 12.5s8.16699 4.5 13.5 4.5h47l-22 -175h215l38 158c1.33301 5.33301 4 9.5 8 12.5s8.66699 4.5 14 4.5h46l-21 -175h313l-26 -214h73l-8 -63
h-73l-27 -219h-86l27 219h-66l7 63h67zM852 666.001c0 -8.66699 -1.66699 -16.834 -5 -24.501s-8 -14.5 -14 -20.5s-12.667 -10.667 -20 -14s-15 -5 -23 -5s-15.667 1.66699 -23 5s-13.666 8 -18.999 14s-9.66602 12.667 -12.999 20s-5 15.666 -5 24.999
c0 8.66699 1.66699 16.834 5 24.501s7.66602 14.334 12.999 20.001s11.666 10.334 18.999 14.001s15 5.5 23 5.5s15.667 -1.66699 23 -5s14 -8 20 -14s10.667 -12.833 14 -20.5s5 -15.834 5 -24.501z" />
    <glyph glyph-name="t_t_uni020B.liga" unicode="tt&#x20b;" horiz-adv-x="863" 
d="M816 496l-61 -495.999h-86l53 433h-227l-31 -250c-1.33301 -13.333 -2.5 -24.166 -3.5 -32.499s-1.66699 -15.166 -2 -20.499s-0.666016 -9 -0.999023 -11s-0.5 -3.33301 -0.5 -4c0 -17.333 3.83301 -30 11.5 -38s18.5 -12 32.5 -12c8.66699 0 16.334 1.16699 23.001 3.5
s12.334 5.16602 17.001 8.49902s8.66699 6.16602 12 8.49902s6.33301 3.5 9 3.5c5.33301 -0.666992 9.33301 -3.66699 12 -9l18 -42c-16 -14.667 -34.333 -26 -55 -34s-41.667 -12 -63 -12c-32 0 -57.333 8.83301 -76 26.5c-18.667 18.333 -28.667 44.166 -30 77.499
c0 2 0.166992 4.5 0.5 7.5s0.666016 7.5 0.999023 13.5s1.16602 13.833 2.49902 23.5c1.33301 9 2.66602 21.5 3.99902 37.5l32 255h-212l-32 -250c-1.33301 -13.333 -2.5 -24.166 -3.5 -32.499s-1.66699 -15.166 -2 -20.499s-0.666016 -9 -0.999023 -11
s-0.5 -3.33301 -0.5 -4c0 -17.333 4 -30 12 -38c8.66699 -8 19.667 -12 33 -12c8.66699 0 16.167 1.16699 22.5 3.5s12 5.16602 17 8.49902s9.16699 6.16602 12.5 8.49902s6.33301 3.5 9 3.5s4.83398 -0.666992 6.50098 -2c1.66699 -2 3.16699 -4.33301 4.5 -7l18 -42
c-16 -14.667 -34.333 -26 -55 -34s-41.667 -12 -63 -12c-32 0 -57.333 8.83301 -76 26.5c-18.667 18.333 -28.334 44.166 -29.001 77.499c0 2 0.166992 4.5 0.5 7.5s0.666016 7.5 0.999023 13.5s1 13.833 2 23.5c1 9 2.5 21.5 4.5 37.5l31 255h-54
c-5.33301 0 -9.5 1.66699 -12.5 5c-3 2.66699 -4.16699 7.33398 -3.5 14.001l4 34l77 10l38 158c1.33301 5.33301 3.83301 9.5 7.5 12.5s8.16699 4.5 13.5 4.5h47l-22 -175h215l38 158c1.33301 5.33301 4 9.5 8 12.5s8.66699 4.5 14 4.5h46l-21 -175h313zM802 724.001
c23.333 0 42.5 -3.66602 57.5 -10.999s26.833 -17 35.5 -29s14.334 -26.167 17.001 -42.5c2.66699 -15.667 2.66699 -32.834 0 -51.501h-58c1.33301 10.667 1.5 20.667 0.5 30s-3.66699 17.333 -8 24s-10.833 12 -19.5 16s-19.334 6 -32.001 6c-13.333 0 -24.5 -2 -33.5 -6
s-16.5 -9.33301 -22.5 -16s-10.667 -14.667 -14 -24s-5.66602 -19.333 -6.99902 -30h-58c2 18.667 6.16699 36 12.5 52s15.166 30 26.499 42s25.5 21.667 42.5 29s37.167 11 60.5 11z" />
    <glyph glyph-name="t_t_uni0209.liga" unicode="tt&#x209;" horiz-adv-x="863" 
d="M816 496l-61 -495.999h-86l53 433h-227l-31 -250c-1.33301 -13.333 -2.5 -24.166 -3.5 -32.499s-1.66699 -15.166 -2 -20.499s-0.666016 -9 -0.999023 -11s-0.5 -3.33301 -0.5 -4c0 -17.333 3.83301 -30 11.5 -38s18.5 -12 32.5 -12c8.66699 0 16.334 1.16699 23.001 3.5
s12.334 5.16602 17.001 8.49902s8.66699 6.16602 12 8.49902s6.33301 3.5 9 3.5c5.33301 -0.666992 9.33301 -3.66699 12 -9l18 -42c-16 -14.667 -34.333 -26 -55 -34s-41.667 -12 -63 -12c-32 0 -57.333 8.83301 -76 26.5c-18.667 18.333 -28.667 44.166 -30 77.499
c0 2 0.166992 4.5 0.5 7.5s0.666016 7.5 0.999023 13.5s1.16602 13.833 2.49902 23.5c1.33301 9 2.66602 21.5 3.99902 37.5l32 255h-212l-32 -250c-1.33301 -13.333 -2.5 -24.166 -3.5 -32.499s-1.66699 -15.166 -2 -20.499s-0.666016 -9 -0.999023 -11
s-0.5 -3.33301 -0.5 -4c0 -17.333 4 -30 12 -38c8.66699 -8 19.667 -12 33 -12c8.66699 0 16.167 1.16699 22.5 3.5s12 5.16602 17 8.49902s9.16699 6.16602 12.5 8.49902s6.33301 3.5 9 3.5s4.83398 -0.666992 6.50098 -2c1.66699 -2 3.16699 -4.33301 4.5 -7l18 -42
c-16 -14.667 -34.333 -26 -55 -34s-41.667 -12 -63 -12c-32 0 -57.333 8.83301 -76 26.5c-18.667 18.333 -28.334 44.166 -29.001 77.499c0 2 0.166992 4.5 0.5 7.5s0.666016 7.5 0.999023 13.5s1 13.833 2 23.5c1 9 2.5 21.5 4.5 37.5l31 255h-54
c-5.33301 0 -9.5 1.66699 -12.5 5c-3 2.66699 -4.16699 7.33398 -3.5 14.001l4 34l77 10l38 158c1.33301 5.33301 3.83301 9.5 7.5 12.5s8.16699 4.5 13.5 4.5h47l-22 -175h215l38 158c1.33301 5.33301 4 9.5 8 12.5s8.66699 4.5 14 4.5h46l-21 -175h313zM796 724.001
c10 0 17.5 -1.66699 22.5 -5s8.83301 -9 11.5 -17l50 -120h-34c-6.66699 0 -12 1 -16 3s-7.33301 5.66699 -10 11l-78 128h54zM658 724.001c10.667 0 18 -1.66699 22 -5s8 -9 12 -17l69 -120h-39c-6.66699 0 -12 1 -16 3s-7.66699 5.66699 -11 11l-97 128h60z" />
    <glyph glyph-name=".notdef" horiz-adv-x="531" 
d="M125 570c8 7.33301 16.8398 14.1621 26.5068 20.4951s20.167 12 31.5 17s23.666 9 36.999 12s27.333 4.5 42 4.5c21.333 0 40.666 -3 57.999 -9s32 -14.333 44 -25s21.333 -23.667 28 -39s10 -32.333 10 -51s-2.33301 -34.5 -7 -47.5s-10.834 -24.333 -18.501 -34
s-16 -18.167 -25 -25.5s-17.5 -14.166 -25.5 -20.499s-15 -12.666 -21 -18.999s-9.66699 -13.166 -11 -20.499l-8 -53h-61l-6 59c-1.33301 11.333 0.166992 21.333 4.5 30s10.166 16.5 17.499 23.5s15.666 13.833 24.999 20.5s18 13.834 26 21.501s14.667 16.334 20 26.001
s8 21.167 8 34.5c0 17.333 -6 30.833 -18 40.5s-27.667 14.5 -47 14.5c-13.333 0 -24.833 -1.33301 -34.5 -4s-17.834 -6 -24.501 -10s-12.334 -7.33301 -17.001 -10s-8.66699 -4 -12 -4c-8.66699 0 -15 3.33301 -19 10zM198.007 145.996c0 16 5.16699 29.334 15.5 40.001
s23.5 16 39.5 16c7.33301 0 14.333 -1.5 21 -4.5s12.334 -7 17.001 -12s8.5 -10.833 11.5 -17.5s4.5 -14 4.5 -22s-1.5 -15.333 -4.5 -22s-6.83301 -12.334 -11.5 -17.001s-10.334 -8.5 -17.001 -11.5s-13.667 -4.5 -21 -4.5c-16 0 -29.167 5.16699 -39.5 15.5
s-15.5 23.5 -15.5 39.5zM22.0068 715.997h488v-716h-488v716zM48.0068 26.9971h433v662h-433v-662z" />
    <glyph glyph-name="glyph1" horiz-adv-x="0" 
 />
    <glyph glyph-name="glyph1" horiz-adv-x="0" 
 />
    <glyph glyph-name="uni000D" unicode="&#xd;" horiz-adv-x="0" 
 />
    <glyph glyph-name="space" unicode=" " horiz-adv-x="234" 
 />
    <glyph glyph-name="space" unicode="&#xa0;" horiz-adv-x="234" 
 />
    <glyph glyph-name="exclam" unicode="!" horiz-adv-x="252" 
d="M215 716l-35 -285.999c-2 -14.667 -4.16699 -29.334 -6.5 -44.001s-4.83301 -29 -7.5 -43s-5.66699 -28.667 -9 -44s-7 -31.666 -11 -48.999h-58c0 17.333 0.333008 33.666 1 48.999s1.33398 30 2.00098 44s1.66699 28.167 3 42.5
c1.33301 15 2.66602 29.833 3.99902 44.5l36 286h81zM38 55.001c0 8.66699 1.50098 16.834 4.50098 24.501s7.33301 14.334 13 20.001s12.167 10.167 19.5 13.5s15.666 5 24.999 5c8.66699 0 16.667 -1.66699 24 -5s13.833 -7.83301 19.5 -13.5s10.167 -12.334 13.5 -20.001
s5 -15.834 5 -24.501c0 -9.33301 -1.66699 -17.666 -5 -24.999s-7.83301 -13.833 -13.5 -19.5s-12.334 -10.167 -20.001 -13.5s-15.5 -5 -23.5 -5c-9.33301 0 -17.666 1.66699 -24.999 5s-13.833 7.83301 -19.5 13.5s-10 12.167 -13 19.5s-4.5 15.666 -4.5 24.999z" />
    <glyph glyph-name="quotedbl" unicode="&#x22;" horiz-adv-x="347" 
d="M184 716l-18.001 -145l-16 -77c-2.66699 -10.667 -6.66699 -18.834 -12 -24.501s-12.666 -8.5 -21.999 -8.5c-8.66699 0 -15 2.83301 -19 8.5s-6.33301 13.834 -7 24.501l2 77l18 145h74zM336.999 716l-18.001 -145l-16 -77
c-2.66699 -10.667 -6.66699 -18.834 -12 -24.501s-12.666 -8.5 -21.999 -8.5c-8.66699 0 -15 2.83301 -19 8.5s-6.33301 13.834 -7 24.501l2 77l18 145h74z" />
    <glyph glyph-name="numbersign" unicode="#" horiz-adv-x="580" 
d="M384 212l-68.002 -212.001h-40c-8.66699 0 -15.167 3.66699 -19.5 11s-4.5 16.333 -0.5 27l56 174h-124l-58 -179c-4 -12 -10 -20.5 -18 -25.5s-16.667 -7.5 -26 -7.5h-38l68 212h-74c-9.33301 0 -15.666 2.66699 -18.999 8s-3 14.666 1 27.999l7 28h103l52 165h-116
l10 35c2.66699 9.33301 7.33398 16.333 14.001 21s16.334 7 29.001 7h81l58 181c3.33301 9.33301 8.83301 16.833 16.5 22.5s16.167 8.5 25.5 8.5h40l-70 -212h126l68 212h39c9.33301 0 16.333 -3 21 -9s5.33398 -13.667 2.00098 -23l-59 -180h107l-11 -36
c-2.66699 -9.33301 -7.16699 -16.166 -13.5 -20.499s-15.5 -6.5 -27.5 -6.5h-72l-53 -165h91c9.33301 0 15.666 -2.66699 18.999 -8s3.66602 -14.666 0.999023 -27.999l-8 -28h-120zM203.998 275.999h126l53 165h-125z" />
    <glyph glyph-name="dollar" unicode="$" horiz-adv-x="580" 
d="M207 -6c-40 4 -75.4951 13.999 -106.495 29.999s-57.167 36.667 -78.5 62l31 38c2.66699 4 6.16699 7.16699 10.5 9.5s9.16602 3.5 14.499 3.5c6 0 12.5 -3.16699 19.5 -9.5s15.833 -13.5 26.5 -21.5s23.667 -16 39 -24s34.333 -13.333 57 -16l52 270
c-20.667 6.66699 -40.834 14 -60.501 22s-37.334 18.333 -53.001 31s-28.334 28.167 -38.001 46.5s-14.5 41.166 -14.5 68.499c0 28 5.66699 54.667 17 80s27.166 48 47.499 68s45.333 36.333 75 49s63.167 19.667 100.5 21l14 73c1.33301 6.66699 4.33301 12.334 9 17.001
s10.334 7 17.001 7h32l-18 -99c34.667 -4 63.667 -12.667 87 -26s43.666 -30 60.999 -50l-24 -32c-7.33301 -9.33301 -15.333 -14 -24 -14c-4.66699 0 -10.167 2.16699 -16.5 6.5s-13.833 9.33301 -22.5 15s-19.334 11.167 -32.001 16.5s-27 9.33301 -43 12l-46 -246
c21.333 -6.66699 42.333 -14.167 63 -22.5s39.334 -18.666 56.001 -30.999s30.167 -27.5 40.5 -45.5s15.5 -40 15.5 -66c0 -32 -5.83301 -62.167 -17.5 -90.5s-28.5 -53.5 -50.5 -75.5s-48.667 -40 -80 -54s-66.333 -22.333 -105 -25l-18 -88
c-0.666992 -6 -3.5 -11.5 -8.5 -16.5s-10.833 -7.5 -17.5 -7.5h-32zM430.005 215.999c0 14.667 -2.66602 27.334 -7.99902 38.001s-13 20 -23 28s-21.333 15 -34 21s-26.334 11.667 -41.001 17l-48 -254c24.667 2.66699 46.5 8 65.5 16s35.167 18.667 48.5 32
s23.333 28.666 30 45.999s10 36 10 56zM190.006 523.999c0 -14 2.5 -26.334 7.5 -37.001s12 -20.167 21 -28.5s19.5 -15.5 31.5 -21.5s24.667 -11.667 38 -17l44 229c-24 -2 -45 -6.66699 -63 -14s-33 -16.666 -45 -27.999s-20.667 -24 -26 -38s-8 -29 -8 -45z" />
    <glyph glyph-name="percent" unicode="%" horiz-adv-x="744" 
d="M368 572c0 -33.333 -5.00195 -62.668 -15.002 -88.001s-23 -47 -39 -65s-34.333 -31.5 -55 -40.5s-41.667 -13.5 -63 -13.5c-18.667 0 -35.667 3.5 -51 10.5s-28.666 16.833 -39.999 29.5s-20 28.334 -26 47.001s-9 39.334 -9 62.001c0 33.333 4.33301 63 13 89
s20.834 47.833 36.501 65.5s34 31.167 55 40.5s42.833 14 65.5 14c18.667 0 36 -3.5 52 -10.5s29.5 -16.833 40.5 -29.5s19.667 -28.334 26 -47.001s9.5 -40 9.5 -64zM299.998 571.998c0 16.667 -1.66699 30.834 -5 42.501s-8 21.5 -14 29.5s-13 13.667 -21 17
s-16.667 5 -26 5c-13.333 0 -26 -2.66699 -38 -8s-22.333 -14.333 -31 -27s-15.667 -28.5 -21 -47.5c-5.33301 -19.667 -8 -42.834 -8 -69.501c0 -16 1.66699 -29.667 5 -41s8 -20.833 14 -28.5s13 -13.334 21 -17.001s17 -5.5 27 -5.5c13.333 0 25.833 2.83301 37.5 8.5
s22 14.334 31 26.001s16 27.167 21 46.5s7.5 42.333 7.5 69zM615.998 701.998c4 4 8.33398 7.33301 13.001 10s10.667 4 18 4h63l-571 -702c-3.33301 -4 -7.33301 -7.33301 -12 -10s-10.334 -4 -17.001 -4h-63zM687.999 197.998
c0 -33.333 -5.00293 -62.6699 -15.0029 -88.0029s-23 -46.833 -39 -64.5s-34.167 -31 -54.5 -40c-21 -9 -42.167 -13.5 -63.5 -13.5c-18.667 0 -35.667 3.33301 -51 10s-28.666 16.334 -39.999 29.001s-20 28.334 -26 47.001s-9 39.334 -9 62.001c0 33.333 4.5 63 13.5 89
s21.333 48 37 66s33.834 31.667 54.501 41s42.334 14 65.001 14c18.667 0 36 -3.5 52 -10.5s29.5 -17 40.5 -30s19.667 -28.833 26 -47.5s9.5 -40 9.5 -64zM619.996 197.994c0 16.667 -1.66602 30.835 -4.99902 42.502s-8 21.5 -14 29.5s-13 13.667 -21 17s-16.667 5 -26 5
c-13.333 0 -26 -2.83301 -38 -8.5s-22.333 -14.667 -31 -27s-15.667 -28 -21 -47c-5.33301 -19.667 -8 -42.834 -8 -69.501c0 -16 1.66699 -29.833 5 -41.5s8 -21.334 14 -29.001s13.167 -13.167 21.5 -16.5c9 -3.33301 18.167 -5 27.5 -5c13.333 0 25.666 2.66699 36.999 8
s21.5 14 30.5 26s16 27.667 21 47s7.5 42.333 7.5 69z" />
    <glyph glyph-name="ampersand" unicode="&#x26;" horiz-adv-x="657" 
d="M361 724c24 0 45.8301 -3.99805 65.4971 -11.998s36.167 -18.833 49.5 -32.5s23.333 -29.667 30 -48s10 -38.166 10 -59.499l-50 -10c-8 -1.33301 -14 -1 -18 1s-6.66699 7 -8 15c-1.33301 9.33301 -4.16602 18.666 -8.49902 27.999s-10 17.666 -17 24.999
s-15.5 13.333 -25.5 18s-21.667 7 -35 7c-17.333 0 -32.833 -3 -46.5 -9s-25.334 -14.667 -35.001 -26s-17.167 -24.666 -22.5 -39.999s-8 -31.666 -8 -48.999c0 -37.333 16 -77.333 48 -120l161 -204c13.333 22 24.5 44.833 33.5 68.5s16.167 47.167 21.5 70.5
c1.33301 6 3.33301 10.833 6 14.5s7.33398 5.5 14.001 5.5h60c-5.33301 -38.667 -15.666 -76.5 -30.999 -113.5s-35 -71.5 -59 -103.5l120 -150h-74c-6.66699 0 -12.667 0.333008 -18 1s-10 2 -14 4s-7.83301 4.66699 -11.5 8s-7.5 7.66602 -11.5 12.999l-48 60
c-31.333 -29.333 -66.166 -52.333 -104.499 -69c-39 -16.667 -79.833 -25 -122.5 -25c-27.333 0 -52.166 4 -74.499 12s-41.833 19.667 -58.5 35s-29.334 33.833 -38.001 55.5c-8.66699 22.333 -13 46.833 -13 73.5s4.33301 51.5 13 74.5s20.667 44.333 36 64
s33.5 37.167 54.5 52.5s43.5 28.333 67.5 39c-13.333 22 -23 43.5 -29 64.5s-9 42.167 -9 63.5c0 27.333 4.83301 53.166 14.5 77.499s23.167 45.166 40.5 62.499s38.333 31.333 63 42s52 16 82 16zM230.997 62.002c32 0 61.833 7.00098 89.5 21.001s53.5 33 77.5 57
l-167 212c-38.667 -20.667 -67.5 -45.834 -86.5 -75.501s-28.5 -62.5 -28.5 -98.5c0 -18.667 3 -35.167 9 -49.5s14 -26.5 24 -36.5s22.167 -17.5 36.5 -22.5s29.5 -7.5 45.5 -7.5z" />
    <glyph glyph-name="quotesingle" unicode="'" horiz-adv-x="194" 
d="M184 716l-18.001 -145l-16 -77c-2.66699 -10.667 -6.66699 -18.834 -12 -24.501s-12.666 -8.5 -21.999 -8.5c-8.66699 0 -15 2.83301 -19 8.5s-6.33301 13.834 -7 24.501l2 77l18 145h74z" />
    <glyph glyph-name="parenleft" unicode="(" horiz-adv-x="258" 
d="M118 220c0 -24.667 1.33398 -50.1689 4.00098 -76.502s6.16699 -52.833 10.5 -79.5s10 -52.834 17 -78.501c7 -25 15.167 -48.833 24.5 -71.5c4 -10 4.33301 -17.833 1 -23.5s-7.66602 -9.83398 -12.999 -12.501l-41 -24c-14 28.667 -26 58.334 -36 89.001
s-18 61.334 -24 92.001s-10.667 61 -14 91c-3.33301 29.333 -5 58 -5 86c0 46.667 2.66699 92.167 8 136.5s15.166 89 29.499 134s33.833 91.5 58.5 139.5c25.333 48 57.333 98.667 96 152l35 -23c4 -3.33301 7.16699 -7.66602 9.5 -12.999
s0.166016 -12.666 -6.50098 -21.999c-24.667 -38 -46.5 -76 -65.5 -114s-35 -77 -48 -117s-23 -81.833 -30 -125.5s-10.5 -90.167 -10.5 -139.5z" />
    <glyph glyph-name="parenright" unicode=")" horiz-adv-x="258" 
d="M143 408c0 24 -1.16699 49.499 -3.5 76.499s-5.83301 53.833 -10.5 80.5s-10.5 52.834 -17.5 78.501c-6.33301 25.667 -14.166 49.834 -23.499 72.501c-4 9.33301 -4.5 16.666 -1.5 21.999s7.16699 9.66602 12.5 12.999l41 23c13.333 -29.333 25 -59 35 -89
s18.167 -60.333 24.5 -91s11 -61 14 -91s4.5 -59 4.5 -87c0 -46.667 -2.66699 -92 -8 -136s-15 -88.667 -29 -134s-33.333 -91.666 -58 -138.999s-56.334 -98.333 -95.001 -153l-36 24c-2.66699 1.33301 -4.66699 3 -6 5s-2.33301 4.33301 -3 7s-0.666992 6 0 10
s3 8.66699 7 14c24 38 45.5 76.167 64.5 114.5s35 78 48 119s23 83 30 126s10.5 87.833 10.5 134.5z" />
    <glyph glyph-name="asterisk" unicode="*" horiz-adv-x="395" 
d="M190 432l11.998 100.001c0.666992 6 1.83398 11.667 3.50098 17c1.66699 4.66699 3.83398 9.66699 6.50098 15c-4 -4 -8.16699 -7.66699 -12.5 -11c-5 -3.33301 -10.167 -6.33301 -15.5 -9l-84 -50l-16 36l84 50c6.66699 4 12.667 7 18 9s11.333 3 18 3
c-6 0.666992 -11.667 2 -17 4c-5.33301 1.33301 -10.666 4 -15.999 8l-73 52l26 36l72 -50c5.33301 -3.33301 10 -7 14 -11s7.33301 -8.33301 10 -13c-2 5.33301 -3.16699 10.833 -3.5 16.5s-0.166016 11.834 0.500977 18.501l13 99h42l-12 -98
c-0.666992 -6.66699 -1.83398 -12.834 -3.50098 -18.501s-4.16699 -11.167 -7.5 -16.5c4 4.66699 8.5 8.66699 13.5 12s10.167 7 15.5 11l84 50l16 -37l-84 -51c-6 -3.33301 -11.833 -5.83301 -17.5 -7.5s-11.167 -3.16699 -16.5 -4.5
c5.33301 -0.666992 10.666 -1.83398 15.999 -3.50098s10.333 -4.5 15 -8.5l73 -50l-26 -36l-72 50c-5.33301 3.33301 -10 6.5 -14 9.5s-7.33301 6.83301 -10 11.5c2.66699 -10.667 3.66699 -21.667 3 -33l-13 -100h-42z" />
    <glyph glyph-name="plus" unicode="+" horiz-adv-x="580" 
d="M359 582l-27 -214h206l-8 -65h-206l-26 -215h-70l26 215h-203l8 65h203l27 214h70z" />
    <glyph glyph-name="comma" unicode="," horiz-adv-x="224" 
d="M22 62c0 16 5.33301 29.332 16 39.999s25 16 43 16c10 0 18.833 -1.83301 26.5 -5.5s14 -8.66699 19 -15s8.83301 -13.833 11.5 -22.5s4 -18 4 -28c0 -14.667 -2 -30.167 -6 -46.5s-10 -32.5 -18 -48.5s-18 -31.333 -30 -46s-25.333 -28.667 -40 -42l-16 15
c-4 4 -6 8.66699 -6 14c0 4 2.66699 9.16699 8 15.5s11.5 13.833 18.5 22.5s13.833 18.834 20.5 30.501c6 11.667 10.333 24.5 13 38.5h-6c-17.333 0 -31.333 5.83301 -42 17.5s-16 26.5 -16 44.5z" />
    <glyph glyph-name="hyphen" unicode="-" horiz-adv-x="351" 
d="M65 336h229l-10 -73h-228z" />
    <glyph glyph-name="hyphen" unicode="&#x2010;" horiz-adv-x="351" 
d="M65 336h229l-10 -73h-228z" />
    <glyph glyph-name="hyphen" unicode="&#xad;" horiz-adv-x="351" 
d="M65 336h229l-10 -73h-228z" />
    <glyph glyph-name="period" unicode="." horiz-adv-x="234" 
d="M26 55c0 8.66699 1.66699 16.834 5 24.501s7.66602 14.334 12.999 20.001s11.833 10.167 19.5 13.5s15.834 5 24.501 5s16.834 -1.66699 24.501 -5s14.334 -7.83301 20.001 -13.5s10.167 -12.334 13.5 -20.001s5 -15.834 5 -24.501
c0 -9.33301 -1.66699 -17.666 -5 -24.999s-7.83301 -13.833 -13.5 -19.5s-12.334 -10.167 -20.001 -13.5s-15.834 -5 -24.501 -5s-16.834 1.66699 -24.501 5s-14.167 7.83301 -19.5 13.5s-9.66602 12.167 -12.999 19.5s-5 15.666 -5 24.999z" />
    <glyph glyph-name="slash" unicode="/" horiz-adv-x="418" 
d="M76 -12c-5.33301 -10.667 -12.668 -19 -22.001 -25s-18.666 -9 -27.999 -9h-36l362 740c5.33301 9.33301 12 17 20 23s17.333 9 28 9h37z" />
    <glyph glyph-name="zero" unicode="0" horiz-adv-x="580" 
d="M542 436c0 -74.667 -7.83301 -139.834 -23.5 -195.501s-36.667 -102 -63 -139s-57.166 -64.5 -92.499 -82.5s-72.666 -27 -111.999 -27c-29.333 0 -56.166 6 -80.499 18s-45.5 30 -63.5 54s-32 54 -42 90s-15 78 -15 126c0 74.667 7.83301 139.834 23.5 195.501
s36.667 102 63 139s57.166 64.5 92.499 82.5s72.666 27 111.999 27c29.333 0 56.166 -6 80.499 -18s45.5 -30 63.5 -54s32 -54 42 -90s15 -78 15 -126zM454 441c0 37.333 -3.33301 69.5029 -10 96.5029s-15.334 48.833 -26.001 65.5s-23.5 29 -38.5 37s-30.833 12 -47.5 12
c-24 0 -47.667 -6.83301 -71 -20.5s-44 -35.334 -62 -65.001s-32.5 -68.5 -43.5 -116.5s-16.5 -106.667 -16.5 -176c0 -37.333 3.16699 -69.333 9.5 -96s14.833 -48.334 25.5 -65.001s23.334 -28.834 38.001 -36.501s30.667 -11.5 48 -11.5c24 0 47.667 6.5 71 19.5
s44 34.5 62 64.5s32.667 68.833 44 116.5s17 106.167 17 175.5z" />
    <glyph glyph-name="one" unicode="1" horiz-adv-x="580" 
d="M110 66h140.999l61 495c0.666992 6.66699 1.5 13.5 2.5 20.5s2.16699 14.167 3.5 21.5l-128 -110c-4.66699 -3.33301 -9.16699 -5.5 -13.5 -6.5s-8.16602 -1 -11.499 0s-6.33301 2.33301 -9 4s-4.66699 3.5 -6 5.5l-22 38l219 184h71l-80 -652h128l-8 -66h-356z" />
    <glyph glyph-name="two" unicode="2" horiz-adv-x="580" 
d="M348 724c26 0 49.8311 -3.99805 71.498 -11.998s40.334 -19.333 56.001 -34s27.834 -32.667 36.501 -54s13 -45.333 13 -72c0 -30.667 -4.5 -58.667 -13.5 -84s-21.333 -49.333 -37 -72s-33.667 -44.5 -54 -65.5c-20.333 -20.333 -42.166 -41.833 -65.499 -64.5
l-201 -198c14 4 28.167 7.33301 42.5 10s27.5 4 39.5 4h215c9.33301 0 16.5 -2.83301 21.5 -8.5s6.83301 -12.834 5.5 -21.501l-6 -52h-442l3 30c0.666992 6 2.66699 12.167 6 18.5s8.33301 12.166 15 17.499l238 232c22.667 22 42.834 42.833 60.501 62.5
s32.667 39.167 45 58.5s21.833 39 28.5 59s10 42 10 66c0 17.333 -2.66699 32.666 -8 45.999s-12.333 24.333 -21 33s-19.334 15.334 -32.001 20.001s-26.334 7 -41.001 7c-16 0 -31.167 -2.66699 -45.5 -8s-27.333 -12.833 -39 -22.5s-22.167 -21.167 -31.5 -34.5
s-16.333 -28 -21 -44c-5.33301 -11.333 -11.5 -19 -18.5 -23s-16.167 -4.66699 -27.5 -2l-44 7c8 32.667 19.833 61.5 35.5 86.5s34 46 55 63s44.167 29.833 69.5 38.5s52.333 13 81 13z" />
    <glyph glyph-name="three" unicode="3" horiz-adv-x="580" 
d="M350 724c26 0 49.498 -3.83203 70.498 -11.499s39.167 -18.5 54.5 -32.5s27 -30.833 35 -50.5s12 -41.5 12 -65.5c0 -26.667 -3.33301 -50.334 -10 -71.001s-16 -38.667 -28 -54s-26.5 -28.333 -43.5 -39c-16.333 -10.667 -35.166 -18.667 -56.499 -24
c37.333 -11.333 65.333 -29.5 84 -54.5s28 -55.833 28 -92.5c0 -36 -6.83301 -68.667 -20.5 -98s-32 -54.166 -55 -74.499s-49.5 -36.166 -79.5 -47.499s-61 -17 -93 -17c-34.667 0 -64 4.66699 -88 14s-43.667 22.5 -59 39.5s-27.333 36.833 -36 59.5
c-8.66699 22 -15 46.333 -19 73l39 16c10.667 4 20.5 5 29.5 3s14.833 -7 17.5 -15c3.33301 -9.33301 7.16602 -20.666 11.499 -33.999s10.833 -26 19.5 -38s20.334 -22.333 35.001 -31s34 -13 58 -13s45.667 4.66699 65 14s35.5 21.666 48.5 36.999s23 32.666 30 51.999
s10.5 39 10.5 59c0 15.333 -2.5 29.5 -7.5 42.5s-13.333 24.5 -25 34.5s-27.334 17.667 -47.001 23s-44.167 8 -73.5 8l7 62c58.667 1.33301 102 15 130 41s42 62 42 108c0 17.333 -2.33301 32.5 -7 45.5s-11.5 23.667 -20.5 32s-19.667 14.666 -32 18.999
s-25.833 6.5 -40.5 6.5c-16 0 -31.333 -2.66699 -46 -8s-28 -12.833 -40 -22.5s-22.333 -21.167 -31 -34.5s-15.667 -28 -21 -44c-5.33301 -11.333 -11.333 -19 -18 -23s-16 -4.66699 -28 -2l-44 7c8 32.667 20 61.5 36 86.5s34.333 46 55 63s43.834 29.833 69.501 38.5
s52.834 13 81.501 13z" />
    <glyph glyph-name="four" unicode="4" horiz-adv-x="580" 
d="M428 258l98.001 -0.000976562l-6 -50c-0.666992 -5.33301 -2.83398 -9.66602 -6.50098 -12.999s-8.5 -5 -14.5 -5h-79l-24 -190h-74l22 190h-290c-6.66699 0 -12 1.66699 -16 5s-6.66699 8 -8 14l-3 44l377 463h80zM390.001 557.999c0.666992 8 1.83301 16.333 3.5 25
s3.5 17.667 5.5 27l-281 -352h235z" />
    <glyph glyph-name="five" unicode="5" horiz-adv-x="580" 
d="M521 678c-1.33301 -12 -6.33398 -22.001 -15.001 -30.001c-8 -8 -21.333 -12 -40 -12h-204l-54 -190c34.667 8 66.667 12 96 12c30.667 0 57.667 -4.83301 81 -14.5s42.833 -23 58.5 -40s27.334 -36.833 35.001 -59.5s11.5 -47 11.5 -73
c0 -42.667 -7.16699 -81.167 -21.5 -115.5s-34 -63.5 -59 -87.5s-53.833 -42.667 -86.5 -56s-67.334 -20 -104.001 -20c-20 0 -38.5 2 -55.5 6s-32.833 9.5 -47.5 16.5s-28.167 15 -40.5 24c-11.667 9 -22.167 18.167 -31.5 27.5l30 38c6.66699 8 14.667 12 24 12
c6.66699 0 13.667 -2.66699 21 -8s16 -11 26 -17s22 -11.667 36 -17s31.333 -8 52 -8c25.333 0 48.5 4.83301 69.5 14.5s39 23.167 54 40.5s26.5 37.833 34.5 61.5s12 49.834 12 78.501c0 18.667 -2.5 35.667 -7.5 51s-12.833 28.5 -23.5 39.5s-24 19.5 -40 25.5
s-34.333 9 -55 9c-16 0 -33.167 -1.66699 -51.5 -5s-37.166 -8 -56.499 -14l-52 15l95 334h314z" />
    <glyph glyph-name="six" unicode="6" horiz-adv-x="533" 
d="M262 447c-6.66699 -8 -12.998 -15.4971 -18.998 -22.4971s-11.667 -13.833 -17 -20.5c16 10.667 33.667 19 53 25s39.666 9 60.999 9c24 0 46.333 -4.16699 67 -12.5s38.667 -20.333 54 -36s27.333 -34.834 36 -57.501s13 -48.667 13 -78
c0 -37.333 -6.5 -71.833 -19.5 -103.5s-31 -59.334 -54 -83.001s-50.167 -42.167 -81.5 -55.5s-65.666 -20 -102.999 -20c-30 0 -56.833 5 -80.5 15s-43.834 24 -60.501 42s-29.334 39.667 -38.001 65s-13 54 -13 86c0 21.333 2.16699 41.833 6.5 61.5s11 39.667 20 60
s20.333 41.166 34 62.499s29.834 43.333 48.501 66l197 245c5.33301 6 12.166 11 20.499 15s17.5 6 27.5 6h76zM142.002 196.003c0 -18.667 2.66699 -36.3311 8 -52.998s12.833 -30.834 22.5 -42.501s21.834 -20.667 36.501 -27c15.333 -6.33301 32.333 -9.5 51 -9.5
c24 0 45.833 4.33301 65.5 13s36.667 21 51 37s25.666 34.833 33.999 56.5c8.33301 22.333 12.5 46.166 12.5 71.499c0 20 -2.83301 38 -8.5 54s-13.667 29.667 -24 41s-23 20 -38 26s-31.5 9 -49.5 9c-24 0 -45.833 -4.66699 -65.5 -14s-36.5 -22 -50.5 -38
s-25 -34.667 -33 -56s-12 -44 -12 -68z" />
    <glyph glyph-name="seven" unicode="7" horiz-adv-x="580" 
d="M569 716l-5.00098 -37.999c-1.33301 -10.667 -3.66602 -19.667 -6.99902 -27s-6.33301 -13.666 -9 -18.999l-344 -602c-5.33301 -8.66699 -12 -15.834 -20 -21.501s-18.333 -8.5 -31 -8.5h-61l346 594c5.33301 8 10.666 15.667 15.999 23s11 13.666 17 18.999h-341
c-5.33301 0 -9.66602 2.33301 -12.999 7s-5 9.66699 -5 15l8 58h449z" />
    <glyph glyph-name="eight" unicode="8" horiz-adv-x="580" 
d="M252 -8c-30.667 0 -58.334 4.33398 -83.001 13.001s-45.667 20.667 -63 36s-30.666 34 -39.999 56s-14 46.333 -14 73c0 53.333 13 97.333 39 132s64 58.667 114 72c-29.333 12.667 -51.5 31 -66.5 55c-15 24.667 -22.5 53 -22.5 85c0 29.333 5.66699 56.666 17 81.999
s27 47.666 47 66.999s43.667 34.333 71 45s57.666 16 90.999 16c28 0 52.833 -4.33301 74.5 -13s40.334 -20.5 56.001 -35.5s27.5 -32.667 35.5 -53s12 -41.833 12 -64.5c0 -44 -11 -82.167 -33 -114.5s-53.667 -55.833 -95 -70.5c36 -12 63.333 -30.5 82 -55.5
s28 -56.833 28 -95.5c0 -35.333 -6.33301 -67.166 -19 -95.499s-30 -52.5 -52 -72.5s-48.333 -35.333 -79 -46s-64 -16 -100 -16zM260 60.001c24 0 45.332 4 63.999 12s34.667 19 48 33s23.666 31 30.999 51s11 42 11 66c0 20.667 -3.33301 38.167 -10 52.5
s-15.5 26.166 -26.5 35.499s-23.667 16.166 -38 20.499s-29.5 6.5 -45.5 6.5c-18.667 0 -37.167 -2.83301 -55.5 -8.5s-34.666 -14.667 -48.999 -27s-26.166 -28.666 -35.499 -48.999s-14 -45.5 -14 -75.5c0 -17.333 2.66699 -33.166 8 -47.499s13 -26.5 23 -36.5
s22.667 -18 38 -24s32.333 -9 51 -9zM301.999 406.001c22.667 0 42.3311 3.99805 58.998 11.998s30.667 18.667 42 32s19.666 28.833 24.999 46.5c5.33301 17 8 35.5 8 55.5c0 14.667 -2.16699 28.334 -6.5 41.001s-10.666 23.834 -18.999 33.501s-19 17.334 -32 23.001
c-12.333 5.66699 -27.166 8.5 -44.499 8.5c-21.333 0 -40.5 -4 -57.5 -12s-31 -18.333 -42 -31s-19.5 -27.834 -25.5 -45.501s-9 -36.5 -9 -56.5c0 -14 1.83301 -27.333 5.5 -40s9.66699 -24 18 -34s18.833 -18 31.5 -24s28.334 -9 47.001 -9z" />
    <glyph glyph-name="nine" unicode="9" horiz-adv-x="580" 
d="M340 286c8 9.33301 15.334 18.334 22.001 27.001s13 17 19 25c-18.667 -14 -38.834 -24.667 -60.501 -32s-44.167 -11 -67.5 -11c-22.667 0 -43.667 4 -63 12s-36.333 19.5 -51 34.5s-26.167 33.5 -34.5 55.5s-12.5 47 -12.5 75c0 35.333 6.33301 68.166 19 98.499
s30.167 56.833 52.5 79.5s48.666 40.667 78.999 54s62.833 20 97.5 20c29.333 0 55.5 -5 78.5 -15s42.333 -23.667 58 -41s27.834 -38 36.501 -62s13 -50.667 13 -80c0 -24.667 -2.33301 -47.5 -7 -68.5s-11.667 -41.5 -21 -61.5s-20.5 -39.833 -33.5 -59.5
s-27.833 -40.5 -44.5 -62.5l-190 -254c-4.66699 -5.33301 -11.167 -10 -19.5 -14s-17.833 -6 -28.5 -6h-78zM444.001 526.001c0 18.667 -2.66699 35.833 -8 51.5s-13 29 -23 40s-22 19.5 -36 25.5s-29.333 9 -46 9c-22 0 -42.333 -4 -61 -12s-34.667 -19.667 -48 -35
s-23.833 -33.333 -31.5 -54s-11.5 -43.667 -11.5 -69c0 -37.333 9.83301 -66.833 29.5 -88.5s46.834 -32.5 81.501 -32.5c23.333 0 44.5 4.5 63.5 13.5s35.167 21.167 48.5 36.5s23.666 33 30.999 53s11 40.667 11 62z" />
    <glyph glyph-name="colon" unicode=":" horiz-adv-x="248" 
d="M34 55c0 8.66699 1.66699 16.834 5 24.501s7.66602 14.334 12.999 20.001s11.833 10.167 19.5 13.5s15.834 5 24.501 5s16.834 -1.66699 24.501 -5s14.334 -7.83301 20.001 -13.5s10.167 -12.334 13.5 -20.001s5 -15.834 5 -24.501
c0 -9.33301 -1.66699 -17.666 -5 -24.999s-7.83301 -13.833 -13.5 -19.5s-12.334 -10.167 -20.001 -13.5s-15.834 -5 -24.501 -5s-16.834 1.66699 -24.501 5s-14.167 7.83301 -19.5 13.5s-9.66602 12.167 -12.999 19.5s-5 15.666 -5 24.999zM76 430
c0 8.66699 1.66699 16.834 5 24.501s7.66602 14.334 12.999 20.001s11.833 10.167 19.5 13.5s15.834 5 24.501 5s16.834 -1.66699 24.501 -5s14.334 -7.83301 20.001 -13.5s10.167 -12.334 13.5 -20.001s5 -15.834 5 -24.501c0 -9.33301 -1.66699 -17.666 -5 -24.999
s-7.83301 -13.833 -13.5 -19.5s-12.334 -10.167 -20.001 -13.5s-15.834 -5 -24.501 -5s-16.834 1.66699 -24.501 5s-14.167 7.83301 -19.5 13.5s-9.66602 12.167 -12.999 19.5s-5 15.666 -5 24.999z" />
    <glyph glyph-name="semicolon" unicode=";" horiz-adv-x="259" 
d="M41 62c0 16 5.33301 29.332 16 39.999s25 16 43 16c10 0 18.833 -1.83301 26.5 -5.5s14 -8.66699 19 -15s8.83301 -13.833 11.5 -22.5s4 -18 4 -28c0 -14.667 -2 -30.167 -6 -46.5s-10 -32.5 -18 -48.5s-18 -31.333 -30 -46s-25.333 -28.667 -40 -42l-16 15
c-4 4 -6 8.66699 -6 14c0 4 2.66699 9.16699 8 15.5s11.5 13.833 18.5 22.5s13.833 18.834 20.5 30.501c6 11.667 10.333 24.5 13 38.5h-6c-17.333 0 -31.333 5.83301 -42 17.5s-16 26.5 -16 44.5zM80 429.999c0 8.66699 1.66699 16.834 5 24.501
s7.66602 14.334 12.999 20.001s11.833 10.167 19.5 13.5s15.834 5 24.501 5s16.834 -1.66699 24.501 -5s14.334 -7.83301 20.001 -13.5s10.167 -12.334 13.5 -20.001s5 -15.834 5 -24.501c0 -9.33301 -1.66699 -17.666 -5 -24.999s-7.83301 -13.833 -13.5 -19.5
s-12.334 -10.167 -20.001 -13.5s-15.834 -5 -24.501 -5s-16.834 1.66699 -24.501 5s-14.167 7.83301 -19.5 13.5s-9.66602 12.167 -12.999 19.5s-5 15.666 -5 24.999z" />
    <glyph glyph-name="less" unicode="&#x3c;" horiz-adv-x="580" 
d="M86 346l2.00195 8.99609l411 201l-7 -64c-0.666992 -5.33301 -2.83398 -10.166 -6.50098 -14.499s-8.83398 -8.16602 -15.501 -11.499l-238 -114c-13.333 -6.66699 -29 -12 -47 -16c16 -4 30.333 -9.33301 43 -16l210 -113c6 -3.33301 10.167 -7.16602 12.5 -11.499
s3.5 -9.16602 3.5 -14.499l-9 -64l-361 201z" />
    <glyph glyph-name="equal" unicode="=" horiz-adv-x="580" 
d="M72 286h428l-8 -65h-428zM93 453h428l-7 -65h-429z" />
    <glyph glyph-name="greater" unicode="&#x3e;" horiz-adv-x="580" 
d="M88 117l7.99902 64.0039c0.666992 5.33301 2.5 10.166 5.5 14.499s8.16699 8.16602 15.5 11.499l239 113c6.66699 3.33301 13.834 6.5 21.501 9.5c8.33301 3 16.5 5.16699 24.5 6.5c-8 2 -15.667 4.16699 -23 6.5s-14 5.5 -20 9.5l-211 114
c-6 3.33301 -10 7.16602 -12 11.499s-2.66699 9.16602 -2 14.499l8 64l362 -201l-4 -28v-9z" />
    <glyph glyph-name="question" unicode="?" horiz-adv-x="418" 
d="M79 652c10.667 9.33301 22.332 18.332 34.999 26.999s26.167 16.334 40.5 23.001s29.833 12 46.5 16s34.334 6 53.001 6c23.333 0 44.5 -3.66699 63.5 -11s35.167 -17 48.5 -29s23.333 -26.5 30 -43.5c6.66699 -16.333 10 -34.5 10 -54.5c0 -28 -3.83301 -52 -11.5 -72
s-17.5 -37.167 -29.5 -51.5s-25.167 -26.666 -39.5 -36.999s-28.166 -20.5 -41.499 -30.5s-25 -20.333 -35 -31s-17 -23.334 -21 -38.001l-18 -76h-60l6 82c0.666992 16 5.5 30.167 14.5 42.5s19.667 24 32 35s25.666 21.5 39.999 31.5s27.833 21.167 40.5 33.5s23 26 31 41
s12 32.833 12 53.5c0 26 -7.83301 46.5 -23.5 61.5c-16.333 15 -37.833 22.5 -64.5 22.5c-18.667 0 -34.667 -2.5 -48 -7.5s-25 -10.5 -35 -16.5s-18.333 -11.5 -25 -16.5s-12 -7.5 -16 -7.5s-7.33301 0.833008 -10 2.5s-5 4.5 -7 8.5zM105.998 54.999
c0 8.66699 1.66602 16.834 4.99902 24.501s7.66602 14.334 12.999 20.001s12 10.167 20 13.5s16 5 24 5c8.66699 0 16.834 -1.66699 24.501 -5s14.5 -7.83301 20.5 -13.5s10.667 -12.334 14 -20.001s5 -15.834 5 -24.501c0 -9.33301 -1.66699 -17.666 -5 -24.999
s-8 -13.833 -14 -19.5s-12.667 -10.167 -20 -13.5s-15.666 -5 -24.999 -5c-8.66699 0 -16.834 1.66699 -24.501 5s-14.167 7.83301 -19.5 13.5s-9.66602 12.167 -12.999 19.5s-5 15.666 -5 24.999z" />
    <glyph glyph-name="at" unicode="@" horiz-adv-x="768" 
d="M518 93c-23.333 0 -41.8281 6.17188 -55.4951 18.5049s-21.167 31.166 -22.5 56.499c-21.333 -26.667 -43 -45.667 -65 -57s-45 -17 -69 -17c-16 0 -30 3 -42 9s-21.833 14 -29.5 24s-13.334 21.667 -17.001 35s-5.5 28 -5.5 44c0 20 2.66699 40.667 8 62
s13.333 41.666 24 60.999s23.5 37.666 38.5 54.999s32.333 32.5 52 45.5s41.5 23.333 65.5 31s50 11.5 78 11.5c21.333 0 39.666 -1.66699 54.999 -5s29.666 -8.33301 42.999 -15l-66 -180c-9.33301 -25.333 -14.833 -46.333 -16.5 -63s-0.833984 -29.334 2.49902 -38.001
s8.66602 -14.667 15.999 -18s15.666 -5 24.999 -5c17.333 0 34.166 5.83301 50.499 17.5s30.666 28 42.999 49s22.333 46.167 30 75.5s11.5 61.666 11.5 96.999c0 38.667 -5.66699 72.667 -17 102s-27.166 53.833 -47.499 73.5s-44.666 34.5 -72.999 44.5
s-59.166 15 -92.499 15c-45.333 0 -88.166 -9.66699 -128.499 -29s-75.666 -46.666 -105.999 -81.999s-54.5 -77 -72.5 -125s-27 -100.333 -27 -157c0 -46.667 6.66699 -88.167 20 -124.5s31.833 -66.833 55.5 -91.5s52 -43.334 85 -56.001s69.167 -19 108.5 -19
c46.667 0 88.167 5.33301 124.5 16s66.5 23.667 90.5 39c5.33301 2.66699 10.166 4.33398 14.499 5.00098s8 0.5 11 -0.5s5.16699 -2.83301 6.5 -5.5s2.66602 -5.66699 3.99902 -9l6 -25c-36 -24 -75.667 -43 -119 -57s-91.666 -21 -144.999 -21
c-48.667 0 -92.834 8 -132.501 24s-73.834 39 -102.501 69s-51 66.167 -67 108.5s-24 90.166 -24 143.499c0 42.667 5 83.334 15 122.001s24 74.834 42 108.501s39.333 64.167 64 91.5s52 50.666 82 69.999s62 34.333 96 45s69.333 16 106 16
c38.667 0 75.334 -6.5 110.001 -19.5s64.834 -32 90.501 -57s46.167 -55.5 61.5 -91.5s23 -77 23 -123c0 -42.667 -5.83301 -81.834 -17.5 -117.501s-27.334 -66.5 -47.001 -92.5s-42.5 -46.5 -68.5 -61.5s-53.667 -22.5 -83 -22.5zM330.005 152.005
c9.33301 0 18.999 1.66895 28.999 5.00195s19.833 9.16602 29.5 17.499s19.167 19.666 28.5 33.999c8.66699 14.333 17 32.833 25 55.5l54 148c-12 2.66699 -24.667 4 -38 4c-24 0 -46.833 -5.83301 -68.5 -17.5s-40.667 -27 -57 -46s-29.166 -40.5 -38.499 -64.5
s-14 -48 -14 -72c0 -18.667 4 -34 12 -46s20.667 -18 38 -18z" />
    <glyph glyph-name="A" unicode="A" horiz-adv-x="631" 
d="M589 0h-72c-8 0 -14.5 2 -19.5 6s-8.16699 9.33301 -9.5 16l-40 176h-291l-82 -176c-2.66699 -6 -7.16699 -11.167 -13.5 -15.5s-13.5 -6.5 -21.5 -6.5h-72l350 716h96zM188 266h246l-66 296c-1.33301 9.33301 -3.33301 19.666 -6 30.999s-4.66699 24 -6 38
c-5.33301 -13.333 -10.5 -26 -15.5 -38c-4.33301 -11.333 -8.5 -21.666 -12.5 -30.999z" />
    <glyph glyph-name="B" unicode="B" horiz-adv-x="602" 
d="M49 0l87.998 715.996h213c37.333 0 69.333 -3.66699 96 -11s48.667 -18 66 -32s30 -30.833 38 -50.5c8 -20.333 12 -42.5 12 -66.5c0 -21.333 -3 -41.666 -9 -60.999s-15.167 -37 -27.5 -53s-27.666 -30.333 -45.999 -43s-40.166 -23 -65.499 -31
c42.667 -9.33301 75 -26.166 97 -50.499s33 -55.166 33 -92.499c0 -33.333 -6 -63.666 -18 -90.999s-29 -51 -51 -71s-49.167 -35.5 -81.5 -46.5c-33 -11 -69.5 -16.5 -109.5 -16.5h-235zM181.998 327.996l-30.001 -254h140c26.667 0 50 3.5 70 10.5s36.667 17 50 30
s23.333 28.667 30 47c6.66699 19 10 39.833 10 62.5c0 32 -10.667 57.333 -32 76s-53.666 28 -96.999 28h-141zM189.997 393.996h115.999c26.667 0 50.334 3.5 71.001 10.5s37.667 17 51 30s23.333 28.5 30 46.5s10 37.667 10 59c0 34.667 -10.333 60.5 -31 77.5
s-52.667 25.5 -96 25.5h-119z" />
    <glyph glyph-name="C" unicode="C" horiz-adv-x="624" 
d="M338 72c22 0 41.5029 2 58.5029 6s32.167 8.66699 45.5 14s24.5 11.166 33.5 17.499s17 12.166 24 17.499s12.833 9.83301 17.5 13.5s8.66699 5.5 12 5.5c2.66699 0 5.16699 -0.666992 7.5 -2s4.16602 -2.66602 5.49902 -3.99902l32 -40
c-31.333 -34 -67.5 -60.5 -108.5 -79.5s-88.5 -28.5 -142.5 -28.5c-42.667 0 -81 7.66699 -115 23s-62.833 36.666 -86.5 63.999s-41.667 60 -54 98s-18.5 80 -18.5 126c0 62.667 9.66699 119.834 29 171.501s45.833 96 79.5 133s73.5 65.667 119.5 86s95 30.5 147 30.5
c25.333 0 48.333 -2 69 -6s39.667 -10.333 57 -19s32.833 -18.667 46.5 -30s26.5 -24.333 38.5 -39l-32 -39c-2.66699 -3.33301 -5.66699 -6 -9 -8c-2.66699 -2 -6.66699 -3 -12 -3c-6 0 -12.5 3.33301 -19.5 10s-16.167 13.834 -27.5 21.501s-26 14.834 -44 21.501
s-41.667 10 -71 10c-38.667 0 -74.834 -7.83301 -108.501 -23.5s-62.834 -37.834 -87.501 -66.501s-44.167 -63.5 -58.5 -104.5c-14.333 -41.667 -21.5 -87.834 -21.5 -138.501c0 -37.333 5 -70.5 15 -99.5s23.5 -53.667 40.5 -74s37.333 -36.166 61 -47.499
s49.5 -17 77.5 -17z" />
    <glyph glyph-name="D" unicode="D" horiz-adv-x="707" 
d="M671 408c0 -61.333 -9.5 -116.999 -28.5 -166.999s-45.167 -92.833 -78.5 -128.5s-72.833 -63.334 -118.5 -83.001s-95.5 -29.5 -149.5 -29.5h-247l88 716h247c44 0 83.667 -7.33301 119 -22s65.5 -35.667 90.5 -63s44.167 -60 57.5 -98s20 -79.667 20 -125zM574 406.001
c0 36 -4.33301 68.667 -13 98s-21.667 54 -39 74s-38.333 35.333 -63 46s-52.334 16 -83.001 16h-154l-70 -564h154c40 0 76.333 7.5 109 22.5s60.834 36.667 84.501 65s42 62.833 55 103.5s19.5 87 19.5 139z" />
    <glyph glyph-name="E" unicode="E" horiz-adv-x="538" 
d="M536 640h-314l-30 -242h254l-10 -73h-254l-30 -249h315l-9 -76h-409l88 716h408z" />
    <glyph glyph-name="F" unicode="F" horiz-adv-x="530" 
d="M536 640h-314l-32 -255h268l-10 -76h-267l-38 -309h-94l88 716h408z" />
    <glyph glyph-name="G" unicode="G" horiz-adv-x="680" 
d="M351 68c17.333 0 33.5 0.833984 48.5 2.50098s29.167 4.33398 42.5 8.00098s26 8.16699 38 13.5s24 11.333 36 18l20 162h-100c-6 0 -10.667 1.66699 -14 5s-4.66602 7.66602 -3.99902 12.999l6 53h206l-34 -273c-18 -13.333 -36.667 -24.833 -56 -34.5
s-39.5 -17.667 -60.5 -24s-43.5 -11.166 -67.5 -14.499s-49.333 -5 -76 -5c-43.333 0 -82.833 7.66699 -118.5 23s-65.834 37 -90.501 65s-43.834 61.333 -57.501 100s-20.5 81 -20.5 127c0 61.333 9.5 117.666 28.5 168.999s45.5 95.5 79.5 132.5s74.333 65.5 121 85.5
s97.334 30 152.001 30c28 0 53.333 -2.33301 76 -7s43.167 -11 61.5 -19s35 -17.667 50 -29s28.5 -23.666 40.5 -36.999l-30 -40c-5.33301 -6.66699 -11.333 -10.834 -18 -12.501s-13.667 -0.166992 -21 4.5c-7.33301 4 -15.333 9.5 -24 16.5s-19.334 13.667 -32.001 20
s-28 11.666 -46 15.999s-39.333 6.5 -64 6.5c-41.333 0 -79 -7.83301 -113 -23.5s-63.167 -38 -87.5 -67s-43.333 -64 -57 -105s-20.5 -86.833 -20.5 -137.5c0 -37.333 4.83301 -71 14.5 -101s23.5 -55.5 41.5 -76.5s39.833 -37 65.5 -48s53.834 -16.5 84.501 -16.5z" />
    <glyph glyph-name="H" unicode="H" horiz-adv-x="710" 
d="M586 0h-94l40 327h-349l-40 -327h-94l88 716h94l-39 -321h349l39 321h95z" />
    <glyph glyph-name="I" unicode="I" horiz-adv-x="266" 
d="M143 0h-94l87 716h94z" />
    <glyph glyph-name="J" unicode="J" horiz-adv-x="400" 
d="M312 238c-5.33301 -40 -13.998 -75.3311 -25.998 -105.998s-28 -56.334 -48 -77.001s-43.333 -36.334 -70 -47.001s-56.334 -16 -89.001 -16c-18 0 -34.667 1.16699 -50 3.5s-31 5.83301 -47 10.5l6 54c1.33301 5.33301 3.5 9.83301 6.5 13.5s7.83301 5.5 14.5 5.5
c4 0 8 -0.5 12 -1.5s8.83301 -2 14.5 -3s12 -2 19 -3c7.66699 -1 16.167 -1.5 25.5 -1.5c17.333 0 33.666 3 48.999 9s29 15.333 41 28s22.333 29.667 31 51s14.667 47.333 18 78l59 480h94z" />
    <glyph glyph-name="K" unicode="K" horiz-adv-x="618" 
d="M191 401l33 -0.00292969c12 0 21.667 1.5 29 4.5s14.333 8.5 21 16.5l248 272c6.66699 9.33301 14 15.333 22 18s17 4 27 4h79l-286 -310c-13.333 -15.333 -26 -25.666 -38 -30.999c8 -3.33301 15 -7.66602 21 -12.999s11.667 -12.666 17 -21.999l216 -340h-81
c-12 0 -20.5 1.66699 -25.5 5s-9.5 8.33301 -13.5 15l-188 286c-5.33301 8 -11.333 13.833 -18 17.5s-17 5.5 -31 5.5h-41l-40 -329h-93l87 716h94z" />
    <glyph glyph-name="L" unicode="L" horiz-adv-x="475" 
d="M152 79h283l-9 -79h-377l88 716h93z" />
    <glyph glyph-name="M" unicode="M" horiz-adv-x="862" 
d="M410 250c2 -6.66699 3.83398 -13.332 5.50098 -19.999s3.5 -13.334 5.5 -20.001l10 20c3.33301 6.66699 7 13.334 11 20.001l282 450c5.33301 6.66699 10.333 11 15 13s11 3 19 3h70l-89 -716h-81l64 530c1.33301 6.66699 2.66602 14 3.99902 22s3 16 5 24l-279 -450
c-8.66699 -14.667 -20.667 -22 -36 -22h-14c-7.33301 0 -13.666 2 -18.999 6c-4.66699 4 -8.33398 9.33301 -11.001 16l-174 450c0 -8 -0.166992 -15.833 -0.5 -23.5s-0.833008 -14.834 -1.5 -21.501l-64 -531h-83l88 716h69c8 0 14 -1 18 -3s8 -6.33301 12 -13l174 -450v0z
" />
    <glyph glyph-name="N" unicode="N" horiz-adv-x="710" 
d="M186 716c8 0 13.833 -1.00098 17.5 -3.00098s7.5 -6.33301 11.5 -13l309 -547c0 8 0.5 15.333 1.5 22c1 6 1.83301 12.333 2.5 19l64 522h83l-89 -716h-46c-8 0 -14.333 1.33301 -19 4s-9 7.33398 -13 14.001l-309 547l-3 -35l-64 -530h-83l88 716h49v0z" />
    <glyph glyph-name="O" unicode="O" horiz-adv-x="745" 
d="M710 409c0 -61.333 -9.33105 -117.498 -27.998 -168.498s-44.834 -94.833 -78.501 -131.5s-73.334 -65.334 -119.001 -86.001s-95.834 -31 -150.501 -31c-44 0 -83.5 8 -118.5 24s-65 37.833 -90 65.5s-44 60.667 -57 99s-19.5 80.166 -19.5 125.499
c0 61.333 9.5 117.666 28.5 168.999s45.333 95.333 79 132s73.334 65.334 119.001 86.001s95.5 31 149.5 31c44 0 83.5 -7.83301 118.5 -23.5s64.833 -37.5 89.5 -65.5s43.667 -61.333 57 -100s20 -80.667 20 -126zM614.002 407.002c0 36 -4.66602 68.833 -13.999 98.5
s-22.666 54.834 -39.999 75.501s-38.333 36.667 -63 48s-52.334 17 -83.001 17c-39.333 0 -75.5 -8 -108.5 -24s-61.5 -38.667 -85.5 -68s-42.5 -64.666 -55.5 -105.999s-19.5 -87.666 -19.5 -138.999c0 -36 4.5 -68.833 13.5 -98.5s22.167 -54.834 39.5 -75.501
s38.333 -36.5 63 -47.5s52.667 -16.5 84 -16.5c40 0 76.5 7.83301 109.5 23.5s61.167 38.167 84.5 67.5s41.666 64.666 54.999 105.999s20 87.666 20 138.999z" />
    <glyph glyph-name="P" unicode="P" horiz-adv-x="562" 
d="M175 269l-33 -269.001h-93l87 716h198c38 0 71 -4.33301 99 -13s51.167 -21.334 69.5 -38.001s31.833 -36.667 40.5 -60s13 -49.666 13 -78.999c0 -37.333 -6 -71.666 -18 -102.999s-29.833 -58.333 -53.5 -81s-52.667 -40.5 -87 -53.5s-73.833 -19.5 -118.5 -19.5h-104z
M221 642.999l-37.0029 -299.999h104c28 0 53 4.33301 75 13s40.333 20.834 55 36.501s25.667 34.167 33 55.5s11 44.666 11 69.999c0 19.333 -2.66699 36.666 -8 51.999s-13.666 28.5 -24.999 39.5s-25.666 19.333 -42.999 25s-37.666 8.5 -60.999 8.5h-104z" />
    <glyph glyph-name="Q" unicode="Q" horiz-adv-x="745" 
d="M710 409c0 -40 -4.33496 -78.166 -13.002 -114.499s-20.667 -69.833 -36 -100.5s-34.166 -58.334 -56.499 -83.001s-47.166 -45.667 -74.499 -63l145 -196h-75c-12 0 -22.333 1.66699 -31 5s-16.334 9 -23.001 17l-98 136c-18 -5.33301 -36.5 -9.66602 -55.5 -12.999
s-38.5 -5 -58.5 -5c-44 0 -83.5 8 -118.5 24s-65 37.833 -90 65.5s-44 60.667 -57 99s-19.5 80.166 -19.5 125.499c0 61.333 9.5 117.666 28.5 168.999s45.333 95.333 79 132s73.334 65.334 119.001 86.001s95.5 31 149.5 31c44 0 83.5 -7.83301 118.5 -23.5
s64.833 -37.5 89.5 -65.5s43.667 -61.333 57 -100s20 -80.667 20 -126zM613.998 407.001c0 36 -4.66602 68.833 -13.999 98.5s-22.666 54.834 -39.999 75.501s-38.333 36.667 -63 48s-52.334 17 -83.001 17c-39.333 0 -75.5 -8 -108.5 -24s-61.5 -38.667 -85.5 -68
s-42.5 -64.666 -55.5 -105.999s-19.5 -87.666 -19.5 -138.999c0 -36 4.5 -68.833 13.5 -98.5s22.167 -54.834 39.5 -75.501s38.333 -36.5 63 -47.5s52.667 -16.5 84 -16.5c40 0 76.5 7.83301 109.5 23.5s61.167 38.167 84.5 67.5s41.666 64.666 54.999 105.999
s20 87.666 20 138.999z" />
    <glyph glyph-name="R" unicode="R" horiz-adv-x="583" 
d="M179 300l-36.999 -300.001h-93l87 716h189c38 0 71 -4 99 -12s51 -19.333 69 -34s31.333 -32.667 40 -54s13 -44.666 13 -69.999c0 -29.333 -4.33301 -56.5 -13 -81.5s-21 -47.333 -37 -67s-35.667 -36.5 -59 -50.5s-49.333 -24.333 -78 -31
c11.333 -7.33301 20.333 -17.333 27 -30l154 -286h-83c-17.333 0 -29 6.66699 -35 20l-135 258c-4 8 -8.83301 13.667 -14.5 17s-14.834 5 -27.501 5h-66zM222.001 642.999l-34 -275h91c28 0 52.833 4 74.5 12s40 19.333 55 34s26.333 32 34 52s11.5 41.667 11.5 65
c0 36 -11.5 63.667 -34.5 83c-23.667 19.333 -58.167 29 -103.5 29h-94z" />
    <glyph glyph-name="S" unicode="S" horiz-adv-x="508" 
d="M464 606c-4 -4.66699 -7.66797 -8.33789 -11.001 -11.0049s-7.33301 -4 -12 -4c-5.33301 0 -11.166 2.83301 -17.499 8.5s-14.5 12 -24.5 19s-22 13.333 -36 19s-31.667 8.5 -53 8.5s-40.333 -3.33301 -57 -10s-30.667 -15.667 -42 -27s-20 -24.666 -26 -39.999
s-9 -31.666 -9 -48.999s4 -32 12 -44s18.5 -22.333 31.5 -31s28 -16.167 45 -22.5s34.167 -13 51.5 -20s34.333 -14.5 51 -22.5s31.5 -18.333 44.5 -31s23.5 -27.667 31.5 -45s12 -38 12 -62c0 -34 -5.83301 -66.167 -17.5 -96.5s-28.5 -56.833 -50.5 -79.5
s-48.333 -40.667 -79 -54s-65.334 -20 -104.001 -20c-42.667 0 -80.834 8.33301 -114.501 25c-34.333 16.667 -62.166 39.667 -83.499 69l34 44c2.66699 4 6 7 10 9s8 3 12 3c6.66699 0 13.667 -3.66699 21 -11s16.666 -15.666 27.999 -24.999s25.333 -17.666 42 -24.999
s37.667 -11 63 -11c22.667 0 43.334 3.66699 62.001 11s34.334 17.5 47.001 30.5s22.5 28.667 29.5 47s10.5 38.166 10.5 59.499c0 18.667 -4 34 -12 46s-18.5 22.333 -31.5 31s-27.833 16 -44.5 22s-33.667 12.167 -51 18.5s-34.333 13.5 -51 21.5s-31.5 18.167 -44.5 30.5
s-23.5 27.5 -31.5 45.5s-12 40.333 -12 67c0 29.333 5.33301 57.333 16 84s26 50.334 46 71.001s44.5 37.334 73.5 50.001s61.5 19 97.5 19c36.667 0 69.5 -7 98.5 -21s53.167 -33.333 72.5 -58z" />
    <glyph glyph-name="T" unicode="T" horiz-adv-x="546" 
d="M582 716l-10 -78h-212l-78 -638h-93l78 638h-212l9 78h518z" />
    <glyph glyph-name="U" unicode="U" horiz-adv-x="685" 
d="M314 74c26.667 0 51.332 5.00098 73.999 15.001s42.334 24.167 59.001 42.5s30.5 40.166 41.5 65.499c10.333 25.333 17.5 53 21.5 83l54 436h94l-54 -436c-5.33301 -41.333 -16.333 -79.5 -33 -114.5s-38 -65.333 -64 -91s-56 -45.834 -90 -60.501s-71.667 -22 -113 -22
c-40.667 0 -76.5 7.33301 -107.5 22s-56.167 34.834 -75.5 60.501s-33 56 -41 91s-9.33301 73.167 -4 114.5l52 436h94l-54 -436c-4 -30 -3.5 -57.5 1.5 -82.5s13.667 -46.833 26 -65.5s28.5 -33 48.5 -43s43.333 -15 70 -15z" />
    <glyph glyph-name="V" unicode="V" horiz-adv-x="629" 
d="M54 716l76 0.00195312c8 0 14.333 -2 19 -6s7.66699 -9.33301 9 -16l120 -512c2.66699 -10.667 5.16699 -22.334 7.5 -35.001c3 -12.667 5.16699 -26.334 6.5 -41.001c4.66699 14 9.5 27.5 14.5 40.5s10.167 24.833 15.5 35.5l244 512
c2.66699 5.33301 7.16699 10.333 13.5 15s13.5 7 21.5 7h75l-356 -716h-84z" />
    <glyph glyph-name="W" unicode="W" horiz-adv-x="955" 
d="M62 716h74.001c8 0 14.667 -2 20 -6s8 -9.33301 8 -16l78 -507c0.666992 -9.33301 1.33398 -18.833 2.00098 -28.5s1.33398 -20.167 2.00098 -31.5c4 10.667 7.66699 21.167 11 31.5s7 19.833 11 28.5l214 507c2.66699 5.33301 7 10.333 13 15s13 7 21 7h21
c8 0 14.5 -2 19.5 -6s8.16699 -9.33301 9.5 -16l90 -507c1.33301 -8.66699 2.66602 -17.834 3.99902 -27.501s2 -19.834 2 -30.501c2.66699 10.667 5.66699 20.834 9 30.501s6.66602 18.834 9.99902 27.501l201 507c1.33301 5.33301 5.66602 10.333 12.999 15s15 7 23 7h73
l-294 -716h-85l-96 552c-1.33301 5.33301 -2.33301 11 -3 17s-1.66699 12.333 -3 19c-2.66699 -6.66699 -5 -13 -7 -19s-3.66699 -11.667 -5 -17l-234 -552h-84z" />
    <glyph glyph-name="X" unicode="X" horiz-adv-x="609" 
d="M250 382l-167.998 334.003h85c6.66699 0 11.5 -1 14.5 -3s5.83301 -5.66699 8.5 -11l128 -270l4.5 9c1 3.33301 2.83301 6.66602 5.5 9.99902l182 251c4 5.33301 7.66699 9 11 11s7.66602 3 12.999 3h96l-250 -330l189 -386h-84c-6.66699 0 -11.834 2 -15.501 6
s-6.5 8 -8.5 12l-146 312c-1.33301 -2.66699 -2.83301 -5.16699 -4.5 -7.5c-1.66699 -1.66699 -3.16699 -3.83398 -4.5 -6.50098l-216 -298c-4 -6.66699 -8.66699 -11.334 -14 -14.001s-11 -4 -17 -4h-93z" />
    <glyph glyph-name="Y" unicode="Y" horiz-adv-x="582" 
d="M336 286l-36.001 -286h-93l35 286l-188 430h82c8 0 14.333 -2 19 -6s8.33398 -9.33301 11.001 -16l118 -286c6.66699 -18.667 12 -36.667 16 -54c4 8.66699 8.33301 17.334 13 26.001c4.66699 9.33301 9.66699 18.666 15 27.999l190 286c4 5.33301 8.66699 10.333 14 15
s12 7 20 7h78z" />
    <glyph glyph-name="Z" unicode="Z" horiz-adv-x="555" 
d="M576 716l-4 -30c-0.666992 -4.66699 -2 -8.83398 -4 -12.501s-4.33301 -7.5 -7 -11.5l-438 -586h369l-10 -76h-495l4 30c0.666992 4.66699 2 8.83398 4 12.501s4.33301 7.5 7 11.5l438 586h-356l9 76h483z" />
    <glyph glyph-name="bracketleft" unicode="[" horiz-adv-x="290" 
d="M34 -144l111.999 910.001h170l-3 -34c-0.666992 -6.66699 -3.66699 -12 -9 -16s-11.333 -6 -18 -6h-75l-99 -796h77c6.66699 0 11.834 -2.33301 15.501 -7s5.5 -10.334 5.5 -17.001l-4 -34h-172z" />
    <glyph glyph-name="backslash" unicode="\" horiz-adv-x="414" 
d="M82 726h36.999c10.667 0 19.5 -3 26.5 -9s11.833 -13.667 14.5 -23l180 -740h-35c-9.33301 0 -18.166 3 -26.499 9s-13.833 14.333 -16.5 25z" />
    <glyph glyph-name="bracketright" unicode="]" horiz-adv-x="290" 
d="M-21 -110c0.666992 6.66699 3.49902 12.333 8.49902 17c5.66699 4.66699 11.834 7 18.501 7h76l98 796h-76c-7.33301 0 -12.833 2 -16.5 6s-5.5 9.33301 -5.5 16l4 34h172l-112 -910h-171z" />
    <glyph glyph-name="asciicircum" unicode="^" horiz-adv-x="580" 
d="M524 394l-66 0.000976562c-5.33301 0 -10 1.66699 -14 5s-7.33301 7 -10 11l-98 176c-4 8 -7.66699 15.667 -11 23s-6.33301 14.333 -9 21c-4.66699 -14.667 -10.667 -29.334 -18 -44.001l-96 -176c-2.66699 -4.66699 -6 -8.5 -10 -11.5s-9.33301 -4.5 -16 -4.5h-68
l179 322h57z" />
    <glyph glyph-name="underscore" unicode="_" horiz-adv-x="444" 
d="M356 -84l-7 -58h-363l8 58h362z" />
    <glyph glyph-name="grave" unicode="`" 
d="M220 724c10 0 17.167 -1.66699 21.5 -5s8.5 -9 12.5 -17l54 -120h-46c-6.66699 0 -12 1 -16 3s-7.66699 5.66699 -11 11l-93 128h78z" />
    <glyph glyph-name="a" unicode="a" horiz-adv-x="511" 
d="M409 0l-46.002 0.00195312c-12 0 -20 3 -24 9s-6 13.333 -6 22l9 103c-12 -21.333 -25 -40.666 -39 -57.999s-28.667 -32.166 -44 -44.499s-31.5 -21.833 -48.5 -28.5c-16.333 -6.66699 -33.833 -10 -52.5 -10c-20 0 -38.333 3.83301 -55 11.5s-30.667 19.167 -42 34.5
s-20.166 34 -26.499 56s-9.5 47.667 -9.5 77c0 30 3.83301 59.167 11.5 87.5s18.334 55.166 32.001 80.499s30.167 48.666 49.5 69.999s40.833 39.666 64.5 54.999s49.167 27.333 76.5 36s56.333 13 87 13c21.333 0 42.333 -1.83301 63 -5.5s41 -9.83398 61 -18.501z
M190.998 67.002c16 0 31.833 5.16699 47.5 15.5s30.5 24.5 44.5 42.5s27.167 39.333 39.5 64s23.166 51.667 32.499 81l21 174c-7.33301 1.33301 -14.5 2.33301 -21.5 3s-13.833 1 -20.5 1c-20 0 -39.333 -3.16699 -58 -9.5s-36.334 -15.333 -53.001 -27
s-31.667 -25.5 -45 -41.5s-24.666 -33.667 -33.999 -53s-16.666 -40 -21.999 -62s-8 -44.333 -8 -67c0 -80 25.667 -120.333 77 -121z" />
    <glyph glyph-name="b" unicode="b" horiz-adv-x="528" 
d="M30 0l87.999 735.998h88l-44 -358c12.667 20.667 26.167 39.334 40.5 56.001s29.5 30.834 45.5 42.501s32.667 20.834 50 27.501s35.333 10 54 10c43.333 0 76.833 -15.667 100.5 -47s35.5 -77 35.5 -137c0 -27.333 -2.66699 -54.833 -8 -82.5
s-13.333 -53.834 -24 -78.501s-23.334 -47.667 -38.001 -69s-31.167 -40 -49.5 -56s-38.166 -28.5 -59.499 -37.5s-43.666 -13.5 -66.999 -13.5c-26.667 0 -51 5.66699 -73 17c-22 10.667 -40 26.667 -54 48l-7 -32c-2.66699 -8.66699 -6 -15.167 -10 -19.5
s-11.333 -6.5 -22 -6.5h-46zM317.999 441.998c-16 0 -32.167 -5.00098 -48.5 -15.001s-32.166 -23.833 -47.499 -41.5s-29.5 -38.667 -42.5 -63s-24.5 -51.166 -34.5 -80.499l-16 -131c12.667 -18 28 -30.667 46 -38s36 -11 54 -11c17.333 0 33.666 3.66699 48.999 11
s29.333 17.333 42 30s23.834 27.334 33.501 44.001s18.167 34.667 25.5 54s12.666 39.166 15.999 59.499s5 40.5 5 60.5c0 40 -7.16699 70.167 -21.5 90.5s-34.5 30.5 -60.5 30.5z" />
    <glyph glyph-name="c" unicode="c" horiz-adv-x="454" 
d="M409 91c-17.333 -18.667 -33.8301 -34.498 -49.4971 -47.498s-31.334 -23.167 -47.001 -30.5s-32 -12.5 -49 -15.5s-34.833 -4.5 -53.5 -4.5c-29.333 0 -55.333 5 -78 15s-41.667 24.167 -57 42.5s-26.833 40.166 -34.5 65.499s-11.5 53.333 -11.5 84
c0 41.333 6.5 80.666 19.5 117.999s30.833 70.666 53.5 99.999s50 52.666 82 69.999s66.667 26 104 26c33.333 0 61.5 -6 84.5 -18c22.333 -12 42.166 -29.333 59.499 -52l-28 -34c-2.66699 -2.66699 -5.33398 -4.66699 -8.00098 -6s-5.66699 -2 -9 -2
c-4.66699 0 -9.33398 2 -14.001 6s-10.667 8.66699 -18 14s-16.333 10 -27 14s-24.667 6 -42 6c-22.667 0 -44.167 -6.33301 -64.5 -19s-38.166 -29.667 -53.499 -51s-27.5 -47 -36.5 -77s-13.5 -61.667 -13.5 -95c0 -20.667 2.33301 -39.5 7 -56.5s11.667 -31.5 21 -43.5
s20.833 -21.167 34.5 -27.5s29.5 -9.5 47.5 -9.5c22.667 0 41.5 3.33301 56.5 10s27.667 13.834 38 21.501s19.166 14.834 26.499 21.501s14.333 10 21 10s12.334 -2.66699 17.001 -8l22 -27v0z" />
    <glyph glyph-name="d" unicode="d" horiz-adv-x="529" 
d="M379 0c-12 0 -19.834 3.00195 -23.501 9.00195s-5.5 13.333 -5.5 22l9 107c-12.667 -22 -26.5 -41.833 -41.5 -59.5s-30.667 -32.834 -47 -45.501s-33.5 -22.5 -51.5 -29.5s-36.333 -10.5 -55 -10.5c-43.333 0 -76.833 15.833 -100.5 47.5s-35.5 77.5 -35.5 137.5
c0 27.333 2.66699 54.5 8 81.5s13.333 53.167 24 78.5s23.334 48.666 38.001 69.999s31.334 39.833 50.001 55.5s38.5 28 59.5 37s43.167 13.5 66.5 13.5c25.333 0 48.166 -5 68.499 -15s37.5 -23.667 51.5 -41l35 278h87l-90 -736h-47zM197.999 64.002
c16 0 32.0029 5 48.0029 15s31.667 24 47 42s29.666 39.167 42.999 63.5c13.333 23.667 24.666 50.167 33.999 79.5l16 132c-12.667 17.333 -27.834 29.666 -45.501 36.999s-35.5 11 -53.5 11c-26.667 0 -50.5 -7.66699 -71.5 -23s-38.833 -35.5 -53.5 -60.5
s-26 -52.833 -34 -83.5c-8 -31.333 -12 -61.666 -12 -90.999c0 -40 7 -70.333 21 -91s34.333 -31 61 -31z" />
    <glyph glyph-name="e" unicode="e" horiz-adv-x="478" 
d="M440 398c0 -22 -4.5 -42.166 -13.5 -60.499s-25.5 -35 -49.5 -50s-57 -28 -99 -39s-96 -19.833 -162 -26.5v-11v-11c0 -44.667 9.66699 -78.667 29 -102s48.666 -35 87.999 -35c16 0 30.167 1.66699 42.5 5s23.5 7.5 33.5 12.5s18.667 10.333 26 16s14.166 11 20.499 16
s12.166 9.16699 17.499 12.5s10.666 5 15.999 5c6.66699 0 12.334 -3 17.001 -9l22 -27c-17.333 -17.333 -34 -32.333 -50 -45s-32.5 -23.334 -49.5 -32.001s-34.667 -14.834 -53 -18.501s-38.166 -5.5 -59.499 -5.5c-29.333 0 -55.5 4.83301 -78.5 14.5
s-42.5 23.5 -58.5 41.5s-28.333 39.667 -37 65s-13 53.333 -13 84c0 26 2.83301 52 8.5 78s13.667 50.667 24 74s23 45 38 65s32.333 37.167 52 51.5s41.334 25.833 65.001 34.5s48.834 13 75.501 13c25.333 0 47.333 -3.66699 66 -11s34 -16.666 46 -27.999s21 -24 27 -38
s9 -27 9 -39zM287 450.001c-21.333 0 -40.833 -4.33398 -58.5 -13.001s-33.167 -20.667 -46.5 -36s-25 -33.333 -35 -54s-17.667 -42.667 -23 -66c51.333 6.66699 92.5 14 123.5 22s54.833 16.833 71.5 26.5s27.667 19.834 33 30.501s8 22 8 34c0 6 -1.33301 12.333 -4 19
s-6.83398 12.667 -12.501 18s-13.167 9.83301 -22.5 13.5s-20.666 5.5 -33.999 5.5z" />
    <glyph glyph-name="f" unicode="f" horiz-adv-x="320" 
d="M198 432l-50.999 -416l-23 -103c-4 -12 -9.66699 -21.167 -17 -27.5s-17 -9.5 -29 -9.5h-35l67 555l-50 7c-6 1.33301 -10.833 3.66602 -14.5 6.99902s-4.83398 8.33301 -3.50098 15l4 36h72l6 50c4 29.333 11.333 55 22 77s24.334 40.833 41.001 56.5
s35.5 27.5 56.5 35.5s43.833 12 68.5 12c20 0 38.667 -3.33301 56 -10l-8 -46c-1.33301 -6.66699 -5.83301 -10 -13.5 -10h-28.5c-14.667 0 -28 -2.16699 -40 -6.5s-22.667 -11.166 -32 -20.499s-17.333 -21.333 -24 -36s-11.334 -33 -14.001 -55l-6 -47h127l-9 -64h-122z
" />
    <glyph glyph-name="g" unicode="g" horiz-adv-x="484" 
d="M412 366c0 -16.667 -1.82715 -31.6689 -5.49414 -45.002s-8.33398 -25.666 -14.001 -36.999s-11.834 -22 -18.501 -32s-12.834 -19.833 -18.501 -29.5s-10.334 -19.834 -14.001 -30.501s-5.5 -22 -5.5 -34c0 -9.33301 1.5 -18 4.5 -26s7 -16 12 -24s10.333 -16 16 -24
s11 -16.5 16 -25.5s9 -18.667 12 -29s4.5 -22.166 4.5 -35.499c0 -24 -5.5 -46.333 -16.5 -67s-26.833 -39.334 -47.5 -56.001s-45.334 -29.667 -74.001 -39s-61.334 -14 -98.001 -14c-29.333 0 -55.833 3 -79.5 9s-43.834 14.5 -60.501 25.5s-29.667 24.333 -39 40
s-14 32.834 -14 51.501c0 21.333 4.5 40 13.5 56s21.167 30 36.5 42s33.166 21.833 53.499 29.5s41.833 13.334 64.5 17.001s46 5.5 70 5.5s47.667 -2 71 -6c-2.66699 6.66699 -5.16699 13.334 -7.5 20.001s-3.16602 14 -2.49902 22c0 10.667 1.5 21.5 4.5 32.5
c3 11.667 8.5 24.167 16.5 37.5c-12.667 -8.66699 -26.834 -15.5 -42.501 -20.5s-33.5 -7.5 -53.5 -7.5c-19.333 0 -37.5 3.33301 -54.5 10s-31.833 16 -44.5 28s-22.667 27.333 -30 46s-11 40.334 -11 65.001c0 24 4.33301 47.5 13 70.5s21.667 43.667 39 62
s38.333 33 63 44s53.667 16.5 87 16.5c36.667 0 68.334 -8.66699 95.001 -26h137l-4 -30c-1.33301 -12 -8 -20 -20 -24l-63 -10c2.66699 -8.66699 4.83398 -17.834 6.50098 -27.501s2.5 -19.834 2.5 -30.501zM220.006 227.998c18 0 33.834 3.99902 47.501 11.999
s25.167 18.333 34.5 31s16.666 27 21.999 43s8 32.333 8 49c0 29.333 -7.5 51.5 -22.5 66.5s-35.5 22.5 -61.5 22.5c-18 0 -33.833 -3.66699 -47.5 -11s-25.167 -17.166 -34.5 -29.499s-16.5 -26.333 -21.5 -42s-7.5 -32.167 -7.5 -49.5c0 -30 7.33301 -52.833 22 -68.5
s35 -23.5 61 -23.5zM320.007 -12.0029c0 8.66699 -0.832031 16.668 -2.49902 24.001s-3.83398 14.333 -6.50098 21c-44 7.33301 -82 10 -114 8s-58.5 -7 -79.5 -15s-36.5 -18.333 -46.5 -31s-15 -26.334 -15 -41.001c0 -24 10.167 -42.333 30.5 -55
c19.667 -12.667 48.167 -19 85.5 -19c22 0 42.167 3 60.5 9s33.833 13.833 46.5 23.5s22.667 21 30 34s11 26.833 11 41.5z" />
    <glyph glyph-name="h" unicode="h" horiz-adv-x="529" 
d="M30 0l88.002 736h90l-42 -342c26 39.333 55.167 69.166 87.5 89.499s65.166 30.5 98.499 30.5c21.333 0 40.333 -4.33301 57 -13s30 -21 40 -37s16.833 -36 20.5 -60c4.33301 -24 4.5 -51.333 0.5 -82l-38 -322h-90l38 322c5.33301 40 3.16602 69.667 -6.50098 89
c-9 19.333 -26.833 29 -53.5 29c-14.667 0 -30.167 -4 -46.5 -12s-32 -19.667 -47 -35s-29 -33.666 -42 -54.999c-13.667 -21.333 -25.167 -45 -34.5 -71l-32 -267h-88z" />
    <glyph glyph-name="i" unicode="i" horiz-adv-x="230" 
d="M183 506l-61 -506h-88l62 506h87zM217 666c0 -8.66699 -1.83008 -16.834 -5.49707 -24.501s-8.33398 -14.5 -14.001 -20.5s-12.334 -10.667 -20.001 -14s-15.5 -5 -23.5 -5s-15.5 1.66699 -22.5 5s-13.333 8 -19 14s-10.167 12.667 -13.5 20s-5 15.666 -5 24.999
c0 8.66699 1.66699 16.834 5 24.501s8 14.334 14 20.001s12.667 10.334 20 14.001s14.666 5.5 21.999 5.5c8 0 15.833 -1.66699 23.5 -5s14.167 -8 19.5 -14s9.83301 -12.833 13.5 -20.5s5.5 -15.834 5.5 -24.501z" />
    <glyph glyph-name="j" unicode="j" horiz-adv-x="229" 
d="M183 506l-66.9971 -544.003c-2.66699 -20 -7.66699 -38.667 -15 -56s-17.333 -32.666 -30 -45.999s-27.834 -23.666 -45.501 -30.999c-17 -7.33301 -36.833 -11 -59.5 -11c-12 0 -22 0.833008 -30 2.5s-16 4.16699 -24 7.5l8 48
c1.33301 2.66699 2.66602 4.83398 3.99902 6.50098s3.33301 2.66699 6 3s6 0.5 10 0.5h14c24 0 41.667 6 53 18s18.666 31.333 21.999 58l67 544h87zM214.003 665.997c0 -8.66699 -1.66699 -16.834 -5 -24.501s-8 -14.5 -14 -20.5s-12.667 -10.667 -20 -14s-15 -5 -23 -5
s-15.5 1.66699 -22.5 5s-13.333 8 -19 14s-10.167 12.667 -13.5 20s-5 15.666 -5 24.999c0 8.66699 1.66699 16.834 5 24.501s8 14.334 14 20.001s12.5 10.334 19.5 14.001s14.5 5.5 22.5 5.5s15.667 -1.66699 23 -5s13.833 -8 19.5 -14s10.167 -12.833 13.5 -20.5
s5 -15.834 5 -24.501z" />
    <glyph glyph-name="k" unicode="k" horiz-adv-x="474" 
d="M206 736l-52.002 -433h14c6.66699 0 12.334 0.833008 17.001 2.5s9.66699 5.5 15 11.5l168 171c4.66699 5.33301 9.5 9.66602 14.5 12.999s11.5 5 19.5 5h79l-195 -198c-10 -12 -20.333 -20.667 -31 -26c5.33301 -4 9.83301 -8.66699 13.5 -14s7.5 -11.333 11.5 -18
l152 -250h-77c-7.33301 0 -13.333 1.33301 -18 4s-8.66699 7.33398 -12 14.001l-129 207c-4 6.66699 -8.16699 11.167 -12.5 13.5s-11.166 3.5 -20.499 3.5h-17l-30 -242h-88l91 736h87z" />
    <glyph glyph-name="l" unicode="l" horiz-adv-x="225" 
d="M32 0l90 736h87l-89 -736h-88z" />
    <glyph glyph-name="m" unicode="m" horiz-adv-x="787" 
d="M30 0l59.9971 506.999h44c20 0 30.333 -10 31 -30l-7 -90c25.333 41.333 52.833 72.833 82.5 94.5s60.834 32.5 93.501 32.5c34.667 0 60 -11.667 76 -35s24 -57 24 -101c25.333 46.667 53.666 81 84.999 103s64.666 33 99.999 33c43.333 0 74 -16.667 92 -50
s23.333 -80.666 16 -141.999l-38 -322h-88l39 322c4.66699 40 3.33398 69.667 -3.99902 89c-6.66699 19.333 -22.667 29 -48 29c-14.667 0 -29 -3.66699 -43 -11s-27.667 -17.833 -41 -31.5s-25.833 -30.667 -37.5 -51c-11 -20.333 -21.167 -43.833 -30.5 -70.5v-1l-33 -275
h-88l38 322c5.33301 40 4.83301 69.667 -1.5 89s-22.166 29 -47.499 29c-16 0 -31.333 -4 -46 -12s-28.667 -19.667 -42 -35s-25.666 -33.833 -36.999 -55.5s-21.666 -46.167 -30.999 -73.5l-32 -264h-86z" />
    <glyph glyph-name="n" unicode="n" horiz-adv-x="530" 
d="M30 0l60 507h44c20 0 30 -10 30 -30l-7 -99c26.667 44.667 57.167 78.5 91.5 101.5s69.5 34.5 105.5 34.5c21.333 0 40 -4.33301 56 -13s29 -21 39 -37s17 -36 21 -60s4 -51.333 0 -82l-38 -322h-88l38 322c4.66699 40 2.16699 69.667 -7.5 89s-27.834 29 -54.501 29
c-16 0 -32.167 -4.33301 -48.5 -13s-32.166 -21 -47.499 -37s-29.5 -35.333 -42.5 -58s-24.167 -47.667 -33.5 -75l-30 -257h-88z" />
    <glyph glyph-name="o" unicode="o" horiz-adv-x="519" 
d="M226 62c24 0 46.002 6.66797 66.002 20.001s37.167 31.166 51.5 53.499s25.333 48 33 77s11.5 59.5 11.5 91.5c0 46.667 -9.33301 81.667 -28 105s-45.334 35 -80.001 35c-24.667 0 -46.834 -6.66699 -66.501 -20s-36.5 -31 -50.5 -53s-24.833 -47.333 -32.5 -76
s-11.5 -59 -11.5 -91c0 -46.667 9.16699 -82 27.5 -106s44.833 -36 79.5 -36zM218.002 -6.99902c-28 0 -53.3301 4.83496 -75.9971 14.502s-42.334 23.5 -59.001 41.5s-29.667 40 -39 66s-14 55.667 -14 89c0 42.667 6.66699 82.667 20 120s31.666 70.166 54.999 98.499
s50.666 50.666 81.999 66.999s65 24.5 101 24.5c28 0 53.5 -4.66699 76.5 -14s42.833 -23 59.5 -41s29.667 -40 39 -66s14 -55.667 14 -89c0 -42.667 -6.66699 -82.667 -20 -120s-31.5 -70.333 -54.5 -99s-50.5 -51.167 -82.5 -67.5s-66 -24.5 -102 -24.5z" />
    <glyph glyph-name="p" unicode="p" horiz-adv-x="528" 
d="M8 -172l82.998 678.999h44c20 0 30 -10 30 -30l-9 -108c12.667 22 26.5 42 41.5 60s30.833 33.333 47.5 46s34 22.334 52 29.001s36.333 10 55 10c43.333 0 76.833 -15.667 100.5 -47s35.5 -77 35.5 -137c0 -27.333 -2.66699 -54.833 -8 -82.5
s-13.333 -53.834 -24 -78.501s-23.334 -47.667 -38.001 -69s-31.167 -40 -49.5 -56s-38.166 -28.5 -59.499 -37.5s-43.666 -13.5 -66.999 -13.5c-25.333 0 -48.166 4.83301 -68.499 14.5s-37.5 23.834 -51.5 42.501l-27 -222h-87zM317.998 441.999
c-16 0 -32.002 -4.83203 -48.002 -14.499s-31.667 -23.334 -47 -41.001s-29.666 -38.667 -42.999 -63c-13.333 -23.667 -24.666 -50.167 -33.999 -79.5l-16 -133c12.667 -17.333 27.834 -29.833 45.501 -37.5s35.5 -11.5 53.5 -11.5c17.333 0 33.666 3.66699 48.999 11
s29.333 17.333 42 30s24 27.334 34 44.001s18.5 34.667 25.5 54s12.167 39.166 15.5 59.499s5 40.5 5 60.5c0 40 -7.16699 70.167 -21.5 90.5s-34.5 30.5 -60.5 30.5z" />
    <glyph glyph-name="q" unicode="q" horiz-adv-x="511" 
d="M388 -172l-56.0029 0.00292969c-6 0 -11 1.16699 -15 3.5s-7.16699 5.33301 -9.5 9s-3.83301 7.83398 -4.5 12.501s-0.333984 9 0.999023 13l32 256c-12 -20 -24.667 -38 -38 -54s-27.5 -29.5 -42.5 -40.5s-30.667 -19.5 -47 -25.5s-33.166 -9 -50.499 -9
c-20 0 -38.167 3.83301 -54.5 11.5s-30.333 19.167 -42 34.5s-20.667 34 -27 56s-9.5 47.667 -9.5 77c0 30 3.83301 59.167 11.5 87.5s18.334 55.166 32.001 80.499s30.334 48.666 50.001 69.999s41.334 39.666 65.001 54.999s49.167 27.333 76.5 36s56 13 86 13
c21.333 0 42.333 -1.83301 63 -5.5s41 -9.83398 61 -18.501zM191.997 67.0029c16 0 31.667 4.99902 47 14.999s30 23.833 44 41.5s27 38.834 39 63.501s22.667 51.667 32 81l22 176c-6.66699 1.33301 -13.667 2.33301 -21 3s-14.333 1 -21 1
c-20 0 -39.333 -3.16699 -58 -9.5s-36.334 -15.333 -53.001 -27s-31.667 -25.5 -45 -41.5s-24.666 -33.667 -33.999 -53s-16.666 -40 -21.999 -62s-8 -44.333 -8 -67c0 -40 6.66699 -70.167 20 -90.5s32.666 -30.5 57.999 -30.5z" />
    <glyph glyph-name="r" unicode="r" horiz-adv-x="342" 
d="M30 0l60 507.002h44c20 0 30.333 -10 31 -30l-9 -112c13.333 28 27.833 52.5 43.5 73.5s32 37.5 49 49.5s34.5 19.333 52.5 22s36.333 0 55 -8l-16 -86c-44 17.333 -82.333 11.166 -115 -18.501s-59.667 -83.834 -81 -162.501l-28 -235h-86z" />
    <glyph glyph-name="s" unicode="s" horiz-adv-x="400" 
d="M356 426c-2.66699 -4 -5.33008 -7 -7.99707 -9s-6 -3 -10 -3c-4.66699 0 -9.83398 1.83301 -15.501 5.5s-12.334 7.66699 -20.001 12s-17.167 8.5 -28.5 12.5s-25 6 -41 6c-14.667 0 -28.167 -2 -40.5 -6s-23 -9.66699 -32 -17s-16 -16 -21 -26s-7.5 -20.333 -7.5 -31
c0 -16 5.33301 -28.667 16 -38s23.667 -17.333 39 -24s32 -13.334 50 -20.001s35 -14.667 51 -24s29 -21.666 39 -36.999s15 -35 15 -59c0 -23.333 -4.5 -45.5 -13.5 -66.5s-22 -39.667 -39 -56s-37.667 -29.333 -62 -39s-51.5 -14.5 -81.5 -14.5
c-32 0 -60.5 5.66699 -85.5 17c-24.333 11.333 -44.5 26.333 -60.5 45l22 34c2.66699 4 5.66699 7.16699 9 9.5s8 3.5 14 3.5c5.33301 0 10.666 -2.33301 15.999 -7s12 -9.83398 20 -15.501s18.167 -10.834 30.5 -15.501s27.833 -7 46.5 -7c16 0 30.667 2.33301 44 7
s24.5 11.334 33.5 20.001s16 18.5 21 29.5s7.5 22.833 7.5 35.5c0 17.333 -5.33301 31 -16 41s-23.667 18.333 -39 25s-32 12.834 -50 18.501s-35 13 -51 22s-29 20.833 -39 35.5s-15 34.334 -15 59.001c0 21.333 4.16699 41.833 12.5 61.5s20.5 37.167 36.5 52.5
s35.5 27.666 58.5 36.999s48.5 14 76.5 14c30.667 0 57.667 -5 81 -15s43 -23.667 59 -41z" />
    <glyph glyph-name="t" unicode="t" horiz-adv-x="354" 
d="M70 96l0.00195312 7.5c0 3 0.166992 7.5 0.5 13.5s1 13.833 2 23.5c1 9 2.83301 21.5 5.5 37.5l30 254h-56c-4.66699 0 -8.5 1.66699 -11.5 5s-3.83301 8.33301 -2.5 15l4 35l78 11l38 156c1.33301 5.33301 3.66602 9.5 6.99902 12.5s7.66602 4.5 12.999 4.5h47l-21 -175
h132l-7 -64h-133l-31 -249c-1.33301 -13.333 -2.5 -24.166 -3.5 -32.499s-1.83301 -15.166 -2.5 -20.499s-1 -9 -1 -11v-4c0 -17.333 4 -30 12 -38s18.667 -12 32 -12c9.33301 0 17 1.16699 23 3.5s11.667 5.16602 17 8.49902s9.66602 6.16602 12.999 8.49902s6 3.5 8 3.5
c2.66699 0 4.83398 -0.666992 6.50098 -2c1.66699 -2 3.16699 -4.33301 4.5 -7l19 -42c-16 -14.667 -34.5 -26 -55.5 -34s-42.167 -12 -63.5 -12c-32 0 -57.167 9 -75.5 27s-27.833 43.667 -28.5 77z" />
    <glyph glyph-name="u" unicode="u" horiz-adv-x="529" 
d="M174 506l-38.002 -322c-4.66699 -40 -2.16699 -69.5 7.5 -88.5s27.5 -28.5 53.5 -28.5c15.333 0 31 4.16699 47 12.5s31.667 20.166 47 35.499s29.5 33.833 42.5 55.5c13.667 21.667 25.167 45.834 34.5 72.501l31 263h89l-62 -506h-44c-21.333 0 -32 10.667 -32 32l8 92
c-26.667 -42.667 -56.834 -75.167 -90.501 -97.5s-68.167 -33.5 -103.5 -33.5c-21.333 0 -40.166 4.16699 -56.499 12.5s-29.666 20.833 -39.999 37.5s-17.166 36.667 -20.499 60s-3 50.333 1 81l38 322h88z" />
    <glyph glyph-name="v" unicode="v" horiz-adv-x="479" 
d="M35 506h71.999c6.66699 0 12 -1.66699 16 -5s6.66699 -7.66602 8 -12.999l75 -326c2 -12.667 3.66699 -25.167 5 -37.5s2.33301 -24.5 3 -36.5c4 12 8.16699 24 12.5 36c5 12 10.167 24.667 15.5 38l156 326c2.66699 5.33301 6.33398 9.66602 11.001 12.999s10 5 16 5h69
l-254 -506h-74z" />
    <glyph glyph-name="w" unicode="w" horiz-adv-x="723" 
d="M39 506l66.999 -0.000976562c6.66699 0 12 -1.66699 16 -5s6.66699 -7.66602 8 -12.999l46 -326c0.666992 -12 1.33398 -23.333 2.00098 -34c1.33301 -10.667 2 -21.334 2 -32.001l12 32c4 10.667 8.33301 22 13 34l139 328c1.33301 5.33301 4.33301 9.66602 9 12.999
s9.66699 5 15 5h38c6.66699 0 11.667 -1.66699 15 -5s5.33301 -7.66602 6 -12.999l57 -328c1.33301 -12 2.66602 -23.333 3.99902 -34l4 -32c2.66699 10.667 5.83398 21.334 9.50098 32.001s7.5 22 11.5 34l129 326c1.33301 5.33301 4.33301 9.66602 9 12.999s10 5 16 5h65
l-213 -506h-67c-8 0 -13.333 5.66699 -16 17l-61 343l-2 16c-0.666992 5.33301 -1 10.666 -1 15.999c-1.33301 -5.33301 -3.16602 -10.666 -5.49902 -15.999c-1.66699 -5.33301 -3.83398 -10.666 -6.50098 -15.999l-146 -343c-4.66699 -11.333 -11.667 -17 -21 -17h-65z" />
    <glyph glyph-name="x" unicode="x" horiz-adv-x="464" 
d="M173 272l-120.998 234.001h79c6.66699 0 11.5 -0.833008 14.5 -2.5s5.5 -4.83398 7.5 -9.50098l85 -174c4 7.33301 8 14.333 12 21l115 151c5.33301 9.33301 12.333 14 21 14h80l-181 -234l135 -272h-79c-6.66699 0 -11.834 1.66699 -15.501 5
s-6.83398 7.66602 -9.50098 12.999l-95 202c-3.33301 -7.33301 -7 -13.666 -11 -18.999l-138 -184c-4 -4.66699 -7.83301 -8.66699 -11.5 -12s-8.5 -5 -14.5 -5h-78z" />
    <glyph glyph-name="y" unicode="y" horiz-adv-x="479" 
d="M154 -151c-4 -6.66699 -8.33301 -11.834 -13 -15.501s-10.667 -5.5 -18 -5.5h-65l110 202l-132 476h74c7.33301 0 12.5 -1.66699 15.5 -5s5.5 -7.66602 7.5 -12.999l81 -319c1.33301 -6.66699 2.66602 -13.5 3.99902 -20.5s2.33301 -14.167 3 -21.5
c2.66699 6.66699 5.5 13.667 8.5 21c3 8 6.5 15.333 10.5 22l160 319c2.66699 5.33301 6.33398 9.5 11.001 12.5s9.66699 4.5 15 4.5h70z" />
    <glyph glyph-name="z" unicode="z" horiz-adv-x="424" 
d="M413 468c-0.666992 -6.66699 -2.33301 -12.668 -5 -18.001s-6 -10.666 -10 -15.999l-292 -364h250l-8 -70h-357l5 37c0 4 1.33301 9.16699 4 15.5s6 11.833 10 16.5l294 367h-246l9 70h351z" />
    <glyph glyph-name="braceleft" unicode="{" horiz-adv-x="284" 
d="M88 226c0 17.333 -4.66504 31.6699 -13.998 43.0029s-23 17 -41 17l7 52c24.667 0 43 9.83301 55 29.5s18 50.167 18 91.5c0 7.33301 -0.166992 15.333 -0.5 24s-0.833008 17.667 -1.5 27s-1.33398 18.333 -2.00098 27s-1 17 -1 25c0 32 4 60.667 12 86
s19.333 46.666 34 63.999s33 30.666 55 39.999s47 14 75 14h25l-5 -38c-0.666992 -6.66699 -3.5 -11.334 -8.5 -14.001s-9.16699 -4 -12.5 -4h-9c-25.333 0 -45.833 -9.66699 -61.5 -29c-16.333 -19.333 -25.166 -46.666 -26.499 -81.999c-1.33301 -16 -2 -31.333 -2 -46
s0.333008 -29.167 1 -43.5s1 -28.5 1 -42.5s-0.666992 -27.667 -2 -41c-1.33301 -15.333 -4 -29.5 -8 -42.5s-9.83301 -24.167 -17.5 -33.5s-16.334 -17.333 -26.001 -24s-20.167 -11.667 -31.5 -15c18 -5.33301 32.333 -15.666 43 -30.999
c10.667 -14.667 16 -32.667 16 -54c0 -20 -2.66699 -39.667 -8 -59s-10.833 -38.5 -16.5 -57.5s-11 -38.333 -16 -58s-7.5 -39.834 -7.5 -60.501c0 -23.333 5.66699 -42 17 -56s27 -21 47 -21h10c4 0 8 -1.66699 12 -5s5.33301 -8 4 -14l-4 -39h-26
c-22.667 0 -42.334 3.33301 -59.001 10s-30.667 16 -42 28s-20 26.167 -26 42.5s-9 34.166 -9 53.499c0 22 2.66699 43 8 63s11.333 39.5 18 58.5s12.667 37.833 18 56.5s8 38 8 58z" />
    <glyph glyph-name="bar" unicode="|" horiz-adv-x="258" 
d="M94 766h69v-938h-69v938z" />
    <glyph glyph-name="braceright" unicode="}" horiz-adv-x="284" 
d="M174 164l0.000976562 -23.998c0 -9.33301 0.333008 -18.5 1 -27.5l2 -27c0.666992 -9 1 -16.833 1 -23.5c0 -32 -4 -60.833 -12 -86.5s-19.333 -47.334 -34 -65.001s-33 -31.167 -55 -40.5s-47 -14 -75 -14h-25l5 39c0.666992 6.66699 3.5 11.5 8.5 14.5
s9.5 4.5 13.5 4.5h8c25.333 0 46 9.5 62 28.5s24.667 46.167 26 81.5c1.33301 15.333 2 30.5 2 45.5s-0.166992 29.667 -0.5 44s-0.5 28.333 -0.5 42c-0.666992 13.667 -0.333984 27.167 0.999023 40.5c0.666992 15.333 3.5 29.5 8.5 42.5s11.167 24.333 18.5 34
s15.666 17.667 24.999 24s19.666 11.166 30.999 14.499c-18 5.33301 -32.333 15.833 -43 31.5s-16 34.167 -16 55.5c0 20 2.66699 39.333 8 58s11 37.667 17 57s11.333 38.666 16 57.999s7 39.666 7 60.999c0 22.667 -5.5 41.334 -16.5 56.001s-26.833 22 -47.5 22h-8
c-4 0 -8.16699 1.33301 -12.5 4c-5 2.66699 -6.83301 7.33398 -5.5 14.001l5 38h25c22.667 0 42.5 -3.33301 59.5 -10s31 -16 42 -28s19.5 -26 25.5 -42s9 -34 9 -54c0 -22 -2.66699 -42.833 -8 -62.5s-11.166 -39.167 -17.499 -58.5s-12 -38.333 -17 -57s-7.5 -38 -7.5 -58
c0 -17.333 4.33301 -31.333 13 -42s22.334 -16 41.001 -16l-7 -52c-24 0 -42.167 -10 -54.5 -30s-18.5 -50.667 -18.5 -92z" />
    <glyph glyph-name="asciitilde" unicode="~" horiz-adv-x="580" 
d="M380 306c21.333 0 37.999 7.16895 49.999 21.502s18.333 33.166 19 56.499h73c0 -22.667 -3.16699 -43.334 -9.5 -62.001s-15.333 -34.667 -27 -48s-25.834 -23.666 -42.501 -30.999s-35.667 -11 -57 -11c-17.333 0 -34.666 2.66699 -51.999 8s-33.833 11.333 -49.5 18
s-30.667 12.667 -45 18s-27.5 8 -39.5 8c-21.333 0 -38.333 -7 -51 -21s-19 -32.667 -19 -56h-72c0 22.667 3 43.167 9 61.5s14.833 34.166 26.5 47.499s26 23.833 43 31.5s36.167 11.5 57.5 11.5c17.333 0 34.5 -2.83301 51.5 -8.5s33.333 -11.667 49 -18
s30.834 -12.333 45.501 -18s28 -8.5 40 -8.5z" />
    <glyph glyph-name="exclamdown" unicode="&#xa1;" horiz-adv-x="235" 
d="M24 -172l34.002 271.002c1.33301 14.667 3.16602 29.167 5.49902 43.5s4.83301 28.666 7.5 42.999s5.5 29.166 8.5 44.499c3 16 6.16699 32.667 9.5 50h52c-0.666992 -17.333 -1.33398 -33.833 -2.00098 -49.5s-1.66699 -30.667 -3 -45s-2.5 -28.5 -3.5 -42.5
s-2.5 -28.667 -4.5 -44l-33 -271h-71zM72.002 452.002c0 8.66699 1.66211 16.833 4.99512 24.5s7.66602 14.167 12.999 19.5s11.833 9.66602 19.5 12.999c7 3.33301 15.167 5 24.5 5c8.66699 0 16.834 -1.66699 24.501 -5s14.334 -7.66602 20.001 -12.999
s10.167 -12 13.5 -20s5 -16 5 -24c0 -9.33301 -1.66699 -17.666 -5 -24.999s-7.83301 -14 -13.5 -20s-12.167 -10.5 -19.5 -13.5s-15.666 -4.5 -24.999 -4.5s-17.666 1.5 -24.999 4.5s-13.666 7.5 -18.999 13.5s-9.66602 12.667 -12.999 20s-5 15.666 -5 24.999z" />
    <glyph glyph-name="cent" unicode="&#xa2;" horiz-adv-x="580" 
d="M244 -5c-27.333 2.66699 -52.166 9.83203 -74.499 21.499s-41.5 26.834 -57.5 45.501s-28.333 41 -37 67s-13 55 -13 87c0 42 6.33301 80.833 19 116.5s31 66.667 55 93s53.333 47.166 88 62.499c34.667 14.667 74 22.667 118 24l18 91
c1.33301 6.66699 4.33301 12.334 9 17.001s10.667 7 18 7h32l-23 -117c27.333 -4 51.5 -11.333 72.5 -22s39.5 -24 55.5 -40l-26 -30c-2.66699 -4 -5.33398 -6.66699 -8.00098 -8s-6.66699 -2 -12 -2c-4 0 -8.33301 1.66699 -13 5s-10.667 7 -18 11s-16 8 -26 12
s-22.333 7 -37 9l-73 -385c21.333 1.33301 39.5 4.5 54.5 9.5s27.833 10.333 38.5 16s19.334 10.834 26.001 15.501s12.667 7 18 7c7.33301 0 12.666 -2.66699 15.999 -8l20 -30c-22.667 -24 -50.167 -42 -82.5 -54c-33 -12 -67.5 -19.333 -103.5 -22l-16 -88
c-1.33301 -6.66699 -4.5 -12.334 -9.5 -17.001s-10.833 -7 -17.5 -7h-32zM146 219.998c0 -44 9.66797 -79.499 29.001 -106.499c19.333 -27.667 46.666 -44.834 81.999 -51.501l73 384c-29.333 -2 -55.5 -8.5 -78.5 -19.5s-42.333 -26.5 -58 -46.5s-27.5 -43.333 -35.5 -70
s-12 -56.667 -12 -90z" />
    <glyph glyph-name="sterling" unicode="&#xa3;" horiz-adv-x="580" 
d="M438 330c-0.666992 -5.33301 -3.66699 -10.332 -9 -14.999c-4.66699 -4.66699 -11 -7 -19 -7h-212l-16 -128c-2.66699 -25.333 -8.66699 -46.833 -18 -64.5s-22 -33.5 -38 -47.5c10 2 20 3.5 30 4.5s20 1.5 30 1.5h342l-4 -36c-0.666992 -4 -2 -8.33301 -4 -13
s-4.83301 -8.83398 -8.5 -12.501s-8 -6.66699 -13 -9c-5.66699 -2.33301 -11.167 -3.5 -16.5 -3.5h-482l6 56c12 3.33301 22.833 7.5 32.5 12.5s18 11.5 25 19.5s12.833 17.667 17.5 29s8 24.333 10 39l18 152h-81l4 34c0.666992 6 3.5 11.5 8.5 16.5s11.5 7.5 19.5 7.5h56
l16 132c4 31.333 12.667 60.833 26 88.5s30.833 51.5 52.5 71.5s47.167 36 76.5 48c30 12 63 18 99 18c28 0 52 -3.33301 72 -10s37.333 -15.334 52 -26.001s27 -23.667 37 -39s17.667 -31.666 23 -48.999l-37 -22c-8.66699 -4 -16.667 -5.66699 -24 -5
s-13.666 4.33398 -18.999 11.001c-5.33301 9.33301 -11 18.166 -17 26.499s-13.333 15.333 -22 21s-18.834 10.167 -30.501 13.5s-26.167 5 -43.5 5c-21.333 0 -41 -3.66699 -59 -11s-33.833 -17.5 -47.5 -30.5s-24.667 -28.833 -33 -47.5
c-8.33301 -19.333 -13.833 -40.333 -16.5 -63l-17 -132h237l-3 -36v0z" />
    <glyph glyph-name="currency" unicode="&#xa4;" horiz-adv-x="580" 
d="M113 336c0 18.667 2.83203 36.5 8.49902 53.5s13.167 32.833 22.5 47.5l-76 77l45 44l75 -76c14.667 10.667 30.667 18.834 48 24.501s36 8.5 56 8.5c18.667 0 36.5 -2.83301 53.5 -8.5s32.833 -13.167 47.5 -22.5l76 76l45 -46l-76 -76
c10.667 -14.667 18.667 -30.5 24 -47.5s8 -35.167 8 -54.5c0 -18.667 -2.66699 -36.667 -8 -54s-12.666 -33 -21.999 -47l76 -75l-46 -46l-76 76c-14.667 -10 -30.667 -17.833 -48 -23.5s-35.333 -8.5 -54 -8.5s-36.667 2.66699 -54 8s-33.333 12.666 -48 21.999l-76 -76
l-44 46l75 76c-10 14.667 -17.833 30.5 -23.5 47.5s-8.5 35.167 -8.5 54.5zM179.999 336c0 -15.333 2.83496 -29.833 8.50195 -43.5s13.667 -25.5 24 -35.5s22.166 -18 35.499 -24s28 -9 44 -9s30.667 3 44 9s25.166 14 35.499 24s18.5 21.833 24.5 35.5s9 28.167 9 43.5
c0 16 -3 30.667 -9 44s-14.167 25.333 -24.5 36s-22.333 18.834 -36 24.501c-13 5.66699 -27.5 8.5 -43.5 8.5c-15.333 0 -29.833 -2.83301 -43.5 -8.5s-25.667 -13.834 -36 -24.501s-18.333 -22.667 -24 -36s-8.5 -28 -8.5 -44z" />
    <glyph glyph-name="yen" unicode="&#xa5;" horiz-adv-x="580" 
d="M74 312h156.002l-156 404h72c8 0 14.5 -2 19.5 -6c5.66699 -4 9.16699 -9.33301 10.5 -16l106 -286c2.66699 -11.333 5 -21.833 7 -31.5s3.66699 -19.167 5 -28.5c3.33301 9.33301 7.16602 18.833 11.499 28.5c4.33301 10.333 9.16602 20.833 14.499 31.5l176 286
c4 5.33301 8.66699 10.333 14 15s12 7 20 7h73l-255 -404h155l-6 -50h-171l-7 -52h171l-6 -50h-171l-19 -160h-86l19 160h-171l6 50h171l7 52h-172z" />
    <glyph glyph-name="brokenbar" unicode="&#xa6;" horiz-adv-x="258" 
d="M94 766h69v-396h-69v396zM94 226h69v-398h-69v398z" />
    <glyph glyph-name="section" unicode="&#xa7;" horiz-adv-x="462" 
d="M414 634c-5.33301 -8 -11.332 -11.999 -17.999 -11.999c-5.33301 0 -10.666 2 -15.999 6s-12 8.33301 -20 13s-17.5 8.83398 -28.5 12.501s-24.5 5.5 -40.5 5.5s-30.167 -2.33301 -42.5 -7s-23 -10.834 -32 -18.501s-16 -16.667 -21 -27s-7.5 -21.166 -7.5 -32.499
c0 -15.333 5.66699 -28.5 17 -39.5s25.666 -21.167 42.999 -30.5s35.833 -18.666 55.5 -27.999s38 -20 55 -32s31.167 -26.333 42.5 -43s17 -37 17 -61c0 -30.667 -7.33301 -58 -22 -82s-38 -42.667 -70 -56c12 -10.667 21.667 -23.167 29 -37.5
c7.33301 -15 11 -31.833 11 -50.5c0 -24.667 -4.33301 -47.667 -13 -69s-21.667 -40 -39 -56s-38.166 -28.5 -62.499 -37.5s-52.166 -13.5 -83.499 -13.5c-32 0 -60.833 5.66699 -86.5 17s-46.5 25.666 -62.5 42.999l24 34c2.66699 4 6 7 10 9c4.66699 2 9.66699 3 15 3
c6 0 11.667 -2.33301 17 -7s12.166 -9.83398 20.499 -15.501s18.5 -10.834 30.5 -15.501s27.333 -7 46 -7c16.667 0 31.667 2.5 45 7.5s24.5 11.667 33.5 20s16 18.333 21 30s7.5 24.167 7.5 37.5s-3.5 25 -10.5 35s-15.833 19 -26.5 27s-23.167 15.333 -37.5 22
s-28.833 13.667 -43.5 21s-29.167 15 -43.5 23s-26.833 17.167 -37.5 27.5s-19.5 22.333 -26.5 36s-10.5 29.834 -10.5 48.501c0 29.333 8.16699 55.666 24.5 78.999s41.166 41.666 74.499 54.999c-12 11.333 -21.833 24.333 -29.5 39s-11.5 32.334 -11.5 53.001
c0 21.333 4.33301 42 13 62s21 37.333 37 52s35.5 26.5 58.5 35.5s49.167 13.5 78.5 13.5c30.667 0 57.667 -5.16699 81 -15.5s42.666 -24.5 57.999 -42.5zM132.001 356.001c0 -16 4.66699 -29.5029 14 -40.5029s21.666 -21.167 36.999 -30.5s32 -18.166 50 -26.499
s35.667 -17.5 53 -27.5c20 9.33301 34 21.166 42 35.499s12 30.5 12 48.5c0 16 -4.5 29.833 -13.5 41.5s-20.667 21.834 -35 30.501s-30.166 17 -47.499 25s-34 17 -50 27c-22.667 -11.333 -38.667 -23.666 -48 -36.999s-14 -28.666 -14 -45.999z" />
    <glyph glyph-name="dieresis" unicode="&#xa8;" 
d="M224 644c0 -8 -1.66699 -15.167 -5 -21.5s-7.66602 -12 -12.999 -17s-11.333 -9 -18 -12s-14 -4.5 -22 -4.5s-15.167 1.5 -21.5 4.5s-12 7 -17 12s-9.16699 10.833 -12.5 17.5c-3.33301 6 -5 13 -5 21s1.66699 15.5 5 22.5s7.5 13 12.5 18s10.833 9.16699 17.5 12.5
c6 3.33301 13 5 21 5s15.333 -1.66699 22 -5s12.667 -7.5 18 -12.5s9.66602 -11 12.999 -18s5 -14.5 5 -22.5zM404 644c0 -8 -1.5 -15.167 -4.5 -21.5s-7 -12 -12 -17s-11 -9 -18 -12c-6.33301 -3 -13.5 -4.5 -21.5 -4.5s-15.333 1.5 -22 4.5s-12.667 7 -18 12
s-9.5 10.833 -12.5 17.5c-3 6 -4.5 13 -4.5 21s1.5 15.5 4.5 22.5s7.16699 13 12.5 18s11.333 9.16699 18 12.5s14 5 22 5s15.333 -1.66699 22 -5s12.5 -7.5 17.5 -12.5s9 -11 12 -18s4.5 -14.5 4.5 -22.5z" />
    <glyph glyph-name="copyright" unicode="&#xa9;" horiz-adv-x="831" 
d="M550 237c5.33301 0.666992 9.66797 -1.00293 13.001 -5.00293l31 -32c-18.667 -22 -42 -39.167 -70 -51.5s-61.333 -18.5 -100 -18.5c-32.667 0 -62.5 5.66699 -89.5 17s-50 27.166 -69 47.499s-33.667 44.5 -44 72.5s-15.5 58.667 -15.5 92s5.66699 64.166 17 92.499
s27.166 52.5 47.499 72.5s44.333 35.667 72 47s58.167 17 91.5 17c36 0 66.667 -5.66699 92 -17s47.333 -26.333 66 -45l-23 -32c-1.33301 -2 -3.5 -4 -6.5 -6s-6.5 -3 -10.5 -3c-4.66699 0 -9.5 1.83301 -14.5 5.5s-11.5 7.83398 -19.5 12.501s-18.5 8.83398 -31.5 12.501
s-29.167 5.5 -48.5 5.5c-24 0 -45.333 -3.83301 -64 -11.5s-34.667 -18.5 -48 -32.5s-23.5 -31 -30.5 -51s-10.5 -42.333 -10.5 -67c0 -25.333 3.5 -48.166 10.5 -68.499s16.833 -37.333 29.5 -51s28 -24 46 -31s37 -10.5 57 -10.5c17.333 0 32 1.33301 44 4
s22.333 5.83398 31 9.50098s16.667 7.83398 24 12.501s15 9 23 13zM57.002 357.997c0 33.333 4.33301 65.666 13 96.999s20.834 60.666 36.501 87.999s34.834 52 57.501 74s47.334 41 74.001 57s55.667 28.333 87 37s63.666 13 96.999 13s65.666 -4.33301 96.999 -13
s60.5 -21 87.5 -37s51.667 -35 74 -57s41.5 -46.667 57.5 -74s28.333 -56.666 37 -87.999s13 -63.666 13 -96.999s-4.33301 -65.666 -13 -96.999s-21 -60.333 -37 -87s-35.167 -51.167 -57.5 -73.5s-47 -41.5 -74 -57.5s-56.167 -28.333 -87.5 -37s-63.666 -13 -96.999 -13
s-65.666 4.33301 -96.999 13s-60.333 21 -87 37s-51.334 35.167 -74.001 57.5s-41.834 46.833 -57.501 73.5s-27.834 55.667 -36.501 87s-13 63.666 -13 96.999zM107.002 357.997c0 -29.333 3.66992 -57.666 11.0029 -84.999s17.833 -53 31.5 -77s30 -45.667 49 -65
s40.167 -36 63.5 -50s48.5 -24.667 75.5 -32s55.167 -11 84.5 -11s57.666 3.66699 84.999 11s52.666 18 75.999 32s44.666 30.667 63.999 50s35.666 41 48.999 65s23.833 49.667 31.5 77s11.5 55.666 11.5 84.999c0 44.667 -8.16699 86.5 -24.5 125.5
s-38.833 73.167 -67.5 102.5s-62.334 52.333 -101.001 69s-80 25 -124 25s-85.167 -8.33301 -123.5 -25s-71.666 -39.667 -99.999 -69s-50.666 -63.5 -66.999 -102.5s-24.5 -80.833 -24.5 -125.5z" />
    <glyph glyph-name="ordfeminine" unicode="&#xaa;" horiz-adv-x="342" 
d="M266 420c-5.33301 0 -9.33203 0.998047 -11.999 2.99805s-5.33398 5.66699 -8.00098 11l-2 24c-8 -6.66699 -16 -12.667 -24 -18s-16 -9.83301 -24 -13.5s-16.333 -6.33398 -25 -8.00098s-18.334 -2.5 -29.001 -2.5c-21.333 0 -38.833 5.66699 -52.5 17
s-20.5 28.333 -20.5 51c0 13.333 3.16699 26.333 9.5 39s16.5 23.834 30.5 33.501s33 17.667 57 24s53.333 10.166 88 11.499l3 18c1.33301 18.667 -1.16699 33.834 -7.5 45.501s-18.166 17.5 -35.499 17.5c-12 0 -22 -1.5 -30 -4.5s-15 -6.16699 -21 -9.5
s-11.333 -6.66602 -16 -9.99902s-9.66699 -5 -15 -5c-4.66699 0 -8.16699 1.33301 -10.5 4s-4.5 5.33398 -6.5 8.00098l-9 20c18 16.667 37.167 28.834 57.5 36.501s41.833 11.5 64.5 11.5c16 0 30 -3 42 -9s22 -14.333 30 -25s13.5 -22.834 16.5 -36.501
c3 -14.333 3.5 -28.833 1.5 -43.5l-24 -190h-28zM167.001 459.998c15.333 0 29 3.16699 41 9.5c12 5.66699 24 14.5 36 26.5l6 55c-22 -0.666992 -40.667 -2.5 -56 -5.5s-27.833 -7 -37.5 -12s-16.5 -11 -20.5 -18s-6 -14.833 -6 -23.5c0 -11.333 3.5 -19.5 10.5 -24.5
s15.833 -7.5 26.5 -7.5z" />
    <glyph glyph-name="guillemotleft" unicode="&#xab;" horiz-adv-x="394" 
d="M40 259l0.999023 11l139 194l26 -14c6.66699 -4 10.5 -9 11.5 -15c0.333008 -6 -2.16699 -13 -7.5 -21l-87 -132c-6.66699 -9.33301 -12 -15.333 -16 -18c4 -4 7.66699 -10 11 -18l56 -131c3.33301 -8 3.83301 -15.167 1.5 -21.5s-7.16602 -11.5 -14.499 -15.5l-30 -14z
M175.999 259l0.999023 11l139 194l26 -14c6.66699 -4 10.5 -9 11.5 -15c0.333008 -6 -2.16699 -13 -7.5 -21l-87 -132c-6.66699 -9.33301 -12 -15.333 -16 -18c4 -4 7.66699 -10 11 -18l56 -131c3.33301 -8 3.83301 -15.167 1.5 -21.5s-7.16602 -11.5 -14.499 -15.5l-30 -14
z" />
    <glyph glyph-name="logicalnot" unicode="&#xac;" horiz-adv-x="580" 
d="M82 368h430l-8 -65l-18 -144h-74l18 144h-355z" />
    </font>
</defs>
</svg>
