<?xml version="1.0" standalone="no"?>
<!DOCTYPE svg PUBLIC "-//W3C//DTD SVG 1.1//EN" "http://www.w3.org/Graphics/SVG/1.1/DTD/svg11.dtd" >
<svg>
<metadata>
Created by FontForge 20120731 at Fri Aug  1 16:50:24 2014
 By Alfred Xing
Copyright (c) 2010-2014 by tyPoland Lukasz Dziedzic with Reserved Font Name "Lato". Licensed under the SIL Open Font License, Version 1.1. 
</metadata>
<defs>
<font id="Lato-Medium" horiz-adv-x="400" >
  <font-face 
    font-family="Lato Medium"
    font-weight="500"
    font-stretch="normal"
    units-per-em="1000"
    panose-1="2 15 6 2 2 2 4 3 2 3"
    ascent="805"
    descent="-195"
    x-height="507.999"
    cap-height="718"
    bbox="-555.999 -270 1343 1082"
    underline-thickness="97"
    underline-position="-3"
    unicode-range="U+000D-FEFF"
  />
<missing-glyph horiz-adv-x="534" 
d="M124 571c17.333 14.667 37.1689 27.1689 59.502 37.502c23 10.333 49.833 15.5 80.5 15.5c21.333 0 40.666 -3 57.999 -9s32.166 -14.333 44.499 -25s22 -23.667 29 -39s10.5 -32.333 10.5 -51s-2.5 -34.667 -7.5 -48s-11.333 -24.833 -19 -34.5s-15.834 -18 -24.501 -25
s-17 -13.833 -25 -20.5s-15 -13 -21 -19s-9.66699 -13 -11 -21l-8 -51h-66l-6 59c-1.33301 12 0 22 4 30s9.83301 15.667 17.5 23s16 14.166 25 20.499s17.5 13.333 25.5 21s14.667 16.167 20 25.5s8 20.666 8 33.999c0 16 -5.83301 28.667 -17.5 38
c-11 9.33301 -25.833 14 -44.5 14c-13.333 0 -24.666 -1.33301 -33.999 -4s-17.333 -5.66699 -24 -9s-12.167 -6.5 -16.5 -9.5s-8.5 -4.5 -12.5 -4.5c-9.33301 -0.666992 -16 3 -20 11zM197.003 148.002c0 8 1.5 15.5 4.5 22.5s7 13 12 18s11 9.16699 18 12.5s14.5 5 22.5 5
s15.333 -1.66699 22 -5s12.667 -7.5 18 -12.5s9.33301 -11 12 -18s4 -14.5 4 -22.5s-1.33301 -15.5 -4 -22.5s-6.66699 -13 -12 -18s-11.333 -9.16699 -18 -12.5s-14 -5 -22 -5s-15.5 1.66699 -22.5 5s-13 7.5 -18 12.5s-9 11 -12 18s-4.5 14.5 -4.5 22.5zM22.0029 718.002
h490v-718h-490v718zM48.0029 28.002h434v661h-434v-661z" />
    <glyph glyph-name="uniFB00" unicode="ff" horiz-adv-x="668" 
d="M102 0l-0.00195312 429.003l-54 7c-8 1.33301 -14.167 3.83301 -18.5 7.5c-4.33301 4.33301 -6.5 9.83301 -6.5 16.5v39h79v39c0 29.333 4.33301 55.333 13 78s20.667 41.667 36 57s33.833 27 55.5 35c22.333 8 46.833 12 73.5 12c10.667 0 21.334 -0.666992 32.001 -2
s20.667 -3.66602 30 -6.99902l-2 -48c0 -4 -1.16699 -7.16699 -3.5 -9.5s-5.5 -3.83301 -9.5 -4.5s-8.66699 -1 -14 -1h-18c-15.333 0 -29.166 -2 -41.499 -6s-23 -10.333 -32 -19s-15.833 -20.334 -20.5 -35.001s-7 -32.334 -7 -53.001v-36h225v53
c0 29.333 4.16699 55.166 12.5 77.499s20.166 41.333 35.499 57s33.833 27.5 55.5 35.5c22.333 8 46.833 12 73.5 12c22.667 0 43.667 -3.33301 63 -10l-2 -47c0 -4 -1.16699 -7.16699 -3.5 -9.5s-5.5 -3.83301 -9.5 -4.5s-8.66699 -1 -14 -1h-18
c-15.333 0 -29.166 -2 -41.499 -6s-23 -10.333 -32 -19s-15.833 -20.334 -20.5 -35.001s-7 -32.667 -7 -54v-49h144v-69h-141v-430h-95v430h-221v-430h-96z" />
    <glyph glyph-name="uniFB01" unicode="fi" horiz-adv-x="577" 
d="M103 0l-0.00292969 429.001l-54 7c-8 1.33301 -14.167 3.83301 -18.5 7.5c-4.33301 4.33301 -6.5 9.83301 -6.5 16.5v39h79v25c0 30.667 4.83301 59.334 14.5 86.001s24.334 49.334 44.001 68.001s44.334 33.167 74.001 43.5s63.834 15.5 102.501 15.5
c12.667 0 25.834 -0.833008 39.501 -2.5s25.167 -3.83398 34.5 -6.50098l-2 -50c0 -3.33301 -1.33301 -5.83301 -4 -7.5s-5.83398 -2.83398 -9.50098 -3.50098s-8.16699 -0.833984 -13.5 -0.500977s-11.333 0.5 -18 0.5c-30 0 -55.667 -3 -77 -9s-39 -15.167 -53 -27.5
s-24.167 -27.5 -30.5 -45.5s-9.5 -39 -9.5 -63v-23h308v-499h-95v430h-210v-430h-95z" />
    <glyph glyph-name="uniFB02" unicode="fl" horiz-adv-x="593" 
d="M103 0l-0.000976562 429l-54 7c-8 1.33301 -14.167 3.83301 -18.5 7.5c-4.33301 4.33301 -6.5 9.83301 -6.5 16.5v39h79v25c0 28 4.33301 54.667 13 80s21.667 47.333 39 66s39.166 33.667 65.499 45s56.833 17 91.5 17c26 0 51 -1 75 -3
c24.667 -2 48.334 -3.33301 71.001 -4h64v-725h-94v658c-18 0.666992 -36.167 1.5 -54.5 2.5s-34.166 1.5 -47.499 1.5c-42.667 0 -75.167 -12 -97.5 -36s-33.5 -58 -33.5 -102v-25h131v-69h-128v-430h-95z" />
    <glyph glyph-name="uniFB03" unicode="ffi" horiz-adv-x="893" 
d="M103 0l-0.00292969 429.003l-54 7c-8 1.33301 -14.167 3.83301 -18.5 7.5c-4.33301 4.33301 -6.5 9.83301 -6.5 16.5v39h79v39c0 29.333 4.16699 55.333 12.5 78s20.166 41.667 35.499 57s34 27 56 35s46.333 12 73 12c23.333 0 44.333 -3 63 -9l-2 -48
c0 -4 -1.16699 -7.16699 -3.5 -9.5s-5.5 -3.83301 -9.5 -4.5s-8.66699 -1 -14 -1h-18c-15.333 0 -29.166 -2 -41.499 -6s-23 -10.333 -32 -19s-15.833 -20.334 -20.5 -35.001s-7 -32.334 -7 -53.001v-36h225v25c0 30.667 4.83301 59.334 14.5 86.001
s24.334 49.334 44.001 68.001s44.167 33.167 73.5 43.5s63.333 15.5 102 15.5c12.667 0 25.834 -0.833008 39.501 -2.5s25.5 -3.83398 35.5 -6.50098l-3 -50c0 -3.33301 -1.16699 -5.83301 -3.5 -7.5s-5.33301 -2.83398 -9 -3.50098s-8.16699 -0.833984 -13.5 -0.500977
s-11.666 0.5 -18.999 0.5c-60 0 -103.167 -12.167 -129.5 -36.5s-39.5 -60.5 -39.5 -108.5v-23h308v-499h-96v430h-210v-430h-94v430h-222v-430h-95z" />
    <glyph glyph-name="uniFB04" unicode="ffl" horiz-adv-x="909" 
d="M102 0l-0.000976562 429.001l-54 7c-8 1.33301 -14.167 3.83301 -18.5 7.5c-4.33301 4.33301 -6.5 9.83301 -6.5 16.5v39h79v39c0 29.333 4.33301 55.333 13 78s20.667 41.667 36 57s33.833 27 55.5 35c22.333 8 46.833 12 73.5 12c10.667 0 21.334 -0.666992 32.001 -2
s20.667 -3.66602 30 -6.99902l-2 -48c0 -4 -1.16699 -7.16699 -3.5 -9.5s-5.5 -3.83301 -9.5 -4.5s-8.66699 -1 -14 -1h-18c-15.333 0 -29.166 -2 -41.499 -6s-23 -10.333 -32 -19s-15.833 -20.334 -20.5 -35.001s-7 -32.334 -7 -53.001v-36h225v25
c0 28 4.33301 54.667 13 80s21.667 47.333 39 66s39.166 33.667 65.499 45s56.833 17 91.5 17c28 0 55 -1.16699 81 -3.5s51 -3.5 75 -3.5h54v-725h-95v658c-18 0.666992 -36 1.5 -54 2.5s-33.667 1.5 -47 1.5c-42.667 0 -75.167 -12 -97.5 -36s-33.5 -58 -33.5 -102v-25
h144v-69h-141v-430h-95v430h-221v-430h-96z" />
    <glyph glyph-name="f_b.liga" unicode="fb" horiz-adv-x="917" 
d="M424 0l-0.00292969 671.998c-14 4 -28.5 7.33301 -43.5 10s-29.167 4 -42.5 4c-24.667 0 -46.167 -3.66699 -64.5 -11s-33.166 -17.666 -44.499 -30.999s-20 -29 -26 -47s-9 -37.667 -9 -59v-39h144v-69h-140v-430h-96v429l-54 7c-8 1.33301 -14.167 3.83301 -18.5 7.5
c-4.33301 4.33301 -6.5 9.83301 -6.5 16.5v39h79v39c0 30.667 4.5 58.834 13.5 84.501s23 47.667 42 66s43.833 32.833 74.5 43.5s67.667 16 111 16c14.667 0 28.834 -0.666992 42.501 -2s27.334 -2.5 41.001 -3.5s28 -2 43 -3s31.833 -1.5 50.5 -1.5v-302
c21.333 24 45.333 43.333 72 58s57 22 91 22c29.333 0 56 -5.83301 80 -17.5s44.333 -28.167 61 -49.5s29.5 -47.5 38.5 -78.5s13.5 -65.5 13.5 -103.5c0 -41.333 -5.16699 -78.833 -15.5 -112.5s-25 -62.5 -44 -86.5s-41.833 -42.5 -68.5 -55.5s-56.667 -19.5 -90 -19.5
s-61.333 6.16699 -84 18.5s-42.667 29.833 -60 52.5l-4 -44c-2.66699 -13.333 -10.667 -20 -24 -20h-62zM651.997 439.998c-28 0 -52.6699 -6.33398 -74.0029 -19.001s-40.666 -31 -57.999 -55v-242c16 -21.333 33.333 -36.333 52 -45s39.334 -13 62.001 -13
c46.667 0 82.334 16.333 107.001 49s37 82.334 37 149.001c0 60.667 -11 105.167 -33 133.5s-53 42.5 -93 42.5z" />
    <glyph glyph-name="f_f_b.liga" unicode="ffb" horiz-adv-x="1233" 
d="M102 0l-0.00390625 428.999l-54 7c-8 1.33301 -14.167 3.83301 -18.5 7.5c-4.33301 4.33301 -6.5 9.83301 -6.5 16.5v39h79v39c0 29.333 4.33301 55.333 13 78s20.667 41.667 36 57s33.833 27 55.5 35c22.333 8 46.833 12 73.5 12c10.667 0 21.334 -0.666992 32.001 -2
s20.667 -3.66602 30 -6.99902l-2 -48c0 -4 -1.16699 -7.16699 -3.5 -9.5s-5.5 -3.83301 -9.5 -4.5s-8.66699 -1 -14 -1h-18c-15.333 0 -29.166 -2 -41.499 -6s-23 -10.333 -32 -19s-15.833 -20.334 -20.5 -35.001s-7 -32.334 -7 -53.001v-36h225v39
c0 30.667 4.5 58.834 13.5 84.501s23 47.667 42 66s43.667 32.833 74 43.5s67.5 16 111.5 16c14.667 0 28.667 -0.666992 42 -2s27 -2.5 41 -3.5s28.333 -2 43 -3s31.334 -1.5 50.001 -1.5v-302c21.333 24 45.333 43.333 72 58s57.334 22 92.001 22
c29.333 0 56 -5.83301 80 -17.5s44.333 -28.167 61 -49.5s29.334 -47.5 38.001 -78.5s13 -65.5 13 -103.5c0 -41.333 -5 -78.833 -15 -112.5s-24.5 -62.5 -43.5 -86.5s-42 -42.5 -69 -55.5s-57.167 -19.5 -90.5 -19.5s-61.333 6.16699 -84 18.5s-42.334 29.833 -59.001 52.5
l-5 -44c-2.66699 -13.333 -10.667 -20 -24 -20h-61v672c-14 4 -28.667 7.33301 -44 10s-29.666 4 -42.999 4c-24.667 0 -46 -3.66699 -64 -11s-32.833 -17.666 -44.5 -30.999s-20.334 -29 -26.001 -47s-8.5 -37.667 -8.5 -59v-39h144v-69h-141v-430h-95v430h-221v-430h-96z
M967.996 439.999c-28 0 -52.501 -6.33398 -73.501 -19.001s-40.5 -31 -58.5 -55v-242c16 -21.333 33.5 -36.333 52.5 -45c18.333 -8.66699 38.833 -13 61.5 -13c46.667 0 82.334 16.333 107.001 49s37 82.334 37 149.001c0 60.667 -11 105.167 -33 133.5s-53 42.5 -93 42.5z
" />
    <glyph glyph-name="f_h.liga" unicode="fh" horiz-adv-x="914" 
d="M424 0l-0.00292969 671.998c-14 4 -28.5 7.33301 -43.5 10s-29.167 4 -42.5 4c-24.667 0 -46.167 -3.66699 -64.5 -11s-33.166 -17.666 -44.499 -30.999s-20 -29 -26 -47s-9 -37.667 -9 -59v-39h144v-69h-140v-430h-96v429l-54 7c-8 1.33301 -14.167 3.83301 -18.5 7.5
c-4.33301 4.33301 -6.5 9.83301 -6.5 16.5v39h79v39c0 30.667 4.5 58.834 13.5 84.501s23 47.667 42 66s43.833 32.833 74.5 43.5s67.667 16 111 16c14.667 0 28.834 -0.666992 42.501 -2s27.334 -2.5 41.001 -3.5s28 -2 43 -3s31.833 -1.5 50.5 -1.5v-296
c21.333 22 45 39.833 71 53.5s55.667 20.5 89 20.5c28 0 52.667 -4.66699 74 -14s39 -22.5 53 -39.5s24.667 -37.333 32 -61s11 -49.5 11 -77.5v-324h-94v324c0 36.667 -8.66699 65.167 -26 85.5s-43.333 30.5 -78 30.5c-25.333 0 -49 -6 -71 -18s-42.333 -28.667 -61 -50
v-372h-96z" />
    <glyph glyph-name="f_f_h.liga" unicode="ffh" horiz-adv-x="1231" 
d="M102 0l-0.00292969 428.999l-54 7c-8 1.33301 -14.167 3.83301 -18.5 7.5c-4.33301 4.33301 -6.5 9.83301 -6.5 16.5v39h79v39c0 29.333 4.33301 55.333 13 78s20.667 41.667 36 57s33.833 27 55.5 35c22.333 8 46.833 12 73.5 12c10.667 0 21.334 -0.666992 32.001 -2
s20.667 -3.66602 30 -6.99902l-2 -48c0 -4 -1.16699 -7.16699 -3.5 -9.5s-5.5 -3.83301 -9.5 -4.5s-8.66699 -1 -14 -1h-18c-15.333 0 -29.166 -2 -41.499 -6s-23 -10.333 -32 -19s-15.833 -20.334 -20.5 -35.001s-7 -32.334 -7 -53.001v-36h225v39
c0 30.667 4.5 58.834 13.5 84.501s23 47.667 42 66s43.667 32.833 74 43.5s67.5 16 111.5 16c14.667 0 28.667 -0.666992 42 -2s27 -2.5 41 -3.5s28.333 -2 43 -3s31.334 -1.5 50.001 -1.5v-296c21.333 22 45 39.833 71 53.5s56 20.5 90 20.5c28 0 52.5 -4.66699 73.5 -14
s38.667 -22.5 53 -39.5s25.166 -37.333 32.499 -61s11 -49.5 11 -77.5v-324h-95v324c0 36.667 -8.5 65.167 -25.5 85.5s-42.833 30.5 -77.5 30.5c-25.333 0 -49.166 -6 -71.499 -18s-42.833 -28.667 -61.5 -50v-372h-95v672c-14 4 -28.667 7.33301 -44 10
s-29.666 4 -42.999 4c-24.667 0 -46 -3.66699 -64 -11s-32.833 -17.666 -44.5 -30.999s-20.334 -29 -26.001 -47s-8.5 -37.667 -8.5 -59v-39h144v-69h-141v-430h-95v430h-221v-430h-96z" />
    <glyph glyph-name="f_igrave.liga" unicode="f&#xec;" horiz-adv-x="577" 
d="M352 737c19.333 0 34.999 -3.16992 46.999 -9.50293c12.667 -6.33301 21.667 -14.5 27 -24.5l74 -121h-54c-7.33301 0 -13.5 1 -18.5 3s-9.83301 5.66699 -14.5 11l-65 71c-53.333 -1.33301 -92.166 -14.166 -116.499 -38.499s-36.5 -59.833 -36.5 -106.5v-23h308v-499
h-95v430h-210v-430h-95v429l-54 7c-8 1.33301 -14.167 3.83301 -18.5 7.5c-4.33301 4.33301 -6.5 9.83301 -6.5 16.5v39h79v25c0 30.667 4.83301 59.334 14.5 86.001s24.5 49.334 44.5 68.001s45.667 33.167 77 43.5s69 15.5 113 15.5z" />
    <glyph glyph-name="f_icircumflex.liga" unicode="f&#xee;" horiz-adv-x="577" 
d="M103 0v428.999l-54 7c-8 1.33301 -14.167 3.83301 -18.5 7.5c-4.33301 4.33301 -6.5 9.83301 -6.5 16.5v39h79v65c0 54.667 12.833 96.334 38.5 125.001s61.5 43 107.5 43c8 0 15.333 -0.333008 22 -1s13 -1.66699 19 -3v-52c0 -5.33301 -2.5 -9 -7.5 -11
s-11.833 -3 -20.5 -3c-22.667 0 -39.5 -7.66699 -50.5 -23s-16.5 -40.333 -16.5 -75v-65h308v-499h-95v430h-210v-430h-95zM615 583.999h-62.999c-4 0 -8 0.666992 -12 2s-8 4 -12 8l-60 64c-2.66699 2.66699 -5.33398 6 -8.00098 10l-8 -10l-60 -64
c-7.33301 -6.66699 -15.333 -10 -24 -10h-66l112 134h88z" />
    <glyph glyph-name="f_itilde.liga" unicode="f&#x129;" horiz-adv-x="577" 
d="M511 666c12 0 21 3.33398 27 10.001c6.66699 6.66699 10 17.334 10 32.001h58c0 -16 -2.33301 -30.833 -7 -44.5s-11 -25.334 -19 -35.001s-17.5 -17.167 -28.5 -22.5c-11.667 -5.33301 -24.167 -8 -37.5 -8c-12 0 -23 2.33301 -33 7s-19.333 10 -28 16
s-17.167 11.333 -25.5 16s-16.166 7 -23.499 7c-23.333 0 -35.333 -14.667 -36 -44h-59c0 16 2.16699 31 6.5 45s10.666 25.667 18.999 35s18 16.666 29 21.999s23.167 8 36.5 8c12 0 23.167 -2.33301 33.5 -7s20 -9.66699 29 -15s17.333 -10.333 25 -15s15.5 -7 23.5 -7z
M103 0.000976562v428.999l-54 7c-8 1.33301 -14.167 3.83301 -18.5 7.5c-4.33301 4.33301 -6.5 9.83301 -6.5 16.5v39h79v65c0 54.667 12.833 96.334 38.5 125.001s61.5 43 107.5 43c8 0 15.333 -0.333008 22 -1s13 -1.66699 19 -3v-52c0 -5.33301 -2.5 -9 -7.5 -11
s-11.833 -3 -20.5 -3c-22.667 0 -39.5 -7.66699 -50.5 -23s-16.5 -40.333 -16.5 -75v-65h308v-499h-95v430h-210v-430h-95z" />
    <glyph glyph-name="f_idieresis.liga" unicode="f&#xef;" horiz-adv-x="577" 
d="M430 644c0 -8 -1.49902 -15.333 -4.49902 -22s-7.33301 -12.667 -13 -18s-12 -9.33301 -19 -12s-14.5 -4 -22.5 -4s-15.5 1.33301 -22.5 4s-13 6.66699 -18 12s-9 11.333 -12 18s-4.5 14 -4.5 22s1.5 15.667 4.5 23s7 13.666 12 18.999s11.167 9.66602 18.5 12.999
s14.666 5 21.999 5c8 0 15.5 -1.66699 22.5 -5s13.333 -7.66602 19 -12.999s10 -11.666 13 -18.999s4.5 -15 4.5 -23zM597.001 644c0 -8 -1.5 -15.333 -4.5 -22s-7.16699 -12.667 -12.5 -18s-11.666 -9.33301 -18.999 -12s-15 -4 -23 -4s-15.5 1.33301 -22.5 4
s-13 6.66699 -18 12s-9.16699 11.333 -12.5 18s-5 14 -5 22s1.66699 15.667 5 23s7.5 13.666 12.5 18.999s11 9.66602 18 12.999s14.5 5 22.5 5s15.667 -1.66699 23 -5s13.666 -7.66602 18.999 -12.999s9.5 -11.666 12.5 -18.999s4.5 -15 4.5 -23zM103.001 0v428.999l-54 7
c-8 1.33301 -14.167 3.83301 -18.5 7.5c-4.33301 4.33301 -6.5 9.83301 -6.5 16.5v39h79v65c0 54.667 12.833 96.334 38.5 125.001s61.5 43 107.5 43c8 0 15.333 -0.333008 22 -1s13 -1.66699 19 -3v-52c0 -5.33301 -2.5 -9 -7.5 -11s-11.833 -3 -20.5 -3
c-22.667 0 -39.5 -7.66699 -50.5 -23s-16.5 -40.333 -16.5 -75v-65h308v-499h-95v430h-210v-430h-95z" />
    <glyph glyph-name="f_imacron.liga" unicode="f&#x12b;" horiz-adv-x="577" 
d="M312 676h288v-62h-288v62zM103 0v428.999l-54 7c-8 1.33301 -14.167 3.83301 -18.5 7.5c-4.33301 4.33301 -6.5 9.83301 -6.5 16.5v39h79v65c0 54.667 12.833 96.334 38.5 125.001s61.5 43 107.5 43c8 0 15.333 -0.333008 22 -1s13 -1.66699 19 -3v-52
c0 -5.33301 -2.5 -9 -7.5 -11s-11.833 -3 -20.5 -3c-22.667 0 -39.5 -7.66699 -50.5 -23s-16.5 -40.333 -16.5 -75v-65h308v-499h-95v430h-210v-430h-95z" />
    <glyph glyph-name="f_ibreve.liga" unicode="f&#x12d;" horiz-adv-x="577" 
d="M456 582c-26 0 -47.833 3.66602 -65.5 10.999s-32 17 -43 29s-18.833 26.333 -23.5 43s-7 34.334 -7 53.001h67c0 -10.667 1 -20.667 3 -30s5.83301 -17.333 11.5 -24s13.167 -11.667 22.5 -15s21 -5 35 -5s25.667 1.66699 35 5s16.833 8.33301 22.5 15
s9.5 14.5 11.5 23.5c2 9.66699 3 19.834 3 30.501h67c0 -18.667 -2.33301 -36.334 -7 -53.001s-12.5 -31 -23.5 -43s-25.333 -21.667 -43 -29s-39.5 -11 -65.5 -11zM103 -0.000976562v428.999l-54 7c-8 1.33301 -14.167 3.83301 -18.5 7.5
c-4.33301 4.33301 -6.5 9.83301 -6.5 16.5v39h79v65c0 54.667 12.833 96.334 38.5 125.001s61.5 43 107.5 43c8 0 15.333 -0.333008 22 -1s13 -1.66699 19 -3v-52c0 -5.33301 -2.5 -9 -7.5 -11s-11.833 -3 -20.5 -3c-22.667 0 -39.5 -7.66699 -50.5 -23
s-16.5 -40.333 -16.5 -75v-65h308v-499h-95v430h-210v-430h-95z" />
    <glyph glyph-name="f_iogonek.liga" unicode="f&#x12f;" horiz-adv-x="577" 
d="M103 0l-0.00292969 429.002l-54 7c-8 1.33301 -14.167 3.83301 -18.5 7.5c-4.33301 4.33301 -6.5 9.83301 -6.5 16.5v39h79v25c0 30.667 4.83301 59.334 14.5 86.001s24.334 49.334 44.001 68.001s44.334 33.167 74.001 43.5s63.834 15.5 102.501 15.5
c12.667 0 25.834 -0.833008 39.501 -2.5s25.167 -3.83398 34.5 -6.50098l-2 -50c0 -3.33301 -1.33301 -5.83301 -4 -7.5s-5.83398 -2.83398 -9.50098 -3.50098s-8.16699 -0.833984 -13.5 -0.500977s-11.333 0.5 -18 0.5c-30 0 -55.667 -3 -77 -9s-39 -15.167 -53 -27.5
s-24.167 -27.5 -30.5 -45.5s-9.5 -39 -9.5 -63v-23h308v-499h-11c-6.66699 -4 -13.334 -8.33301 -20.001 -13s-12.667 -10.334 -18 -17.001s-9.83301 -13.667 -13.5 -21s-5.5 -15.333 -5.5 -24c0 -12 3.83301 -21.5 11.5 -28.5s18.167 -10.5 31.5 -10.5
c7.33301 0 13.5 0.5 18.5 1.5s9.16699 2.16699 12.5 3.5s6 2.5 8 3.5s3.66699 1.5 5 1.5c5.33301 0 8.66602 -2 9.99902 -6l15 -36c-10.667 -8 -23.667 -14.167 -39 -18.5s-31.666 -6.5 -48.999 -6.5c-30 0 -53.333 6.5 -70 19.5s-25 30.833 -25 53.5
c0 18.667 6.33301 36.5 19 53.5s29.334 31.833 50.001 44.5h-25v430h-210v-430h-95z" />
    <glyph glyph-name="f_dotlessi.liga" unicode="f&#x131;" horiz-adv-x="577" 
d="M103 0v428.999l-54 7c-8 1.33301 -14.167 3.83301 -18.5 7.5c-4.33301 4.33301 -6.5 9.83301 -6.5 16.5v39h79v65c0 54.667 12.833 96.334 38.5 125.001s61.5 43 107.5 43c8 0 15.333 -0.333008 22 -1s13 -1.66699 19 -3v-52c0 -5.33301 -2.5 -9 -7.5 -11
s-11.833 -3 -20.5 -3c-22.667 0 -39.5 -7.66699 -50.5 -23s-16.5 -40.333 -16.5 -75v-65h308v-499h-95v430h-210v-430h-95z" />
    <glyph glyph-name="f_f_igrave.liga" unicode="ff&#xec;" horiz-adv-x="893" 
d="M103 0l-0.00195312 429l-55 7c-8 1.33301 -14.167 3.83301 -18.5 7.5c-4.33301 4.33301 -6.5 9.83301 -6.5 16.5v39h80v39c0 29.333 4.16699 55.333 12.5 78s20.166 41.667 35.499 57s34 27 56 35s46.333 12 73 12c23.333 0 44.333 -3 63 -9l-2 -48
c0 -4 -1.16699 -7.16699 -3.5 -9.5s-5.5 -3.83301 -9.5 -4.5s-8.66699 -1 -14 -1h-18c-15.333 0 -29.166 -2 -41.499 -6s-23 -10.333 -32 -19s-15.833 -20.334 -20.5 -35.001s-7 -32.334 -7 -53.001v-36h224v53c0 58.667 18.5 103.667 55.5 135s95.167 47 174.5 47
c50.667 0 80.334 -7.33301 89.001 -22l78 -130h-54c-7.33301 0 -13.166 1 -17.499 3s-9.16602 5.66699 -14.499 11l-66 72c-2.66699 0 -5.33398 0.166992 -8.00098 0.5s-5.33398 0.5 -8.00098 0.5c-22.667 0 -42.667 -2.16699 -60 -6.5s-31.666 -11.166 -42.999 -20.499
s-19.833 -21.666 -25.5 -36.999s-8.5 -34.333 -8.5 -57v-49h308v-499h-95v430h-210v-430h-95v430h-221v-430h-95z" />
    <glyph glyph-name="f_f_icircumflex.liga" unicode="ff&#xee;" horiz-adv-x="893" 
d="M103 0l0.000976562 429.001l-54 7c-8 1.33301 -14.167 3.83301 -18.5 7.5c-4.33301 4.33301 -6.5 9.83301 -6.5 16.5v39h79v39c0 29.333 4.16699 55.333 12.5 78s20.166 41.667 35.499 57s34 27 56 35s46.333 12 73 12c23.333 0 44.333 -3 63 -9l-2 -48
c0 -4 -1.16699 -7.16699 -3.5 -9.5s-5.5 -3.83301 -9.5 -4.5s-8.66699 -1 -14 -1h-18c-15.333 0 -29.166 -2 -41.499 -6s-23 -10.333 -32 -19s-15.833 -20.334 -20.5 -35.001s-7 -32.334 -7 -53.001v-36h225v65c0 54.667 12.667 96.334 38 125.001s61.333 43 108 43
c8 0 15.333 -0.333008 22 -1s12.667 -1.66699 18 -3v-52c0 -5.33301 -2.33301 -9 -7 -11s-11.667 -3 -21 -3c-22.667 0 -39.334 -7.66699 -50.001 -23s-16 -40.333 -16 -75v-65h308v-499h-96v430h-210v-430h-94v430h-222v-430h-95zM930.001 584.001h-62.999
c-4 0 -7.83301 0.666992 -11.5 2s-7.5 4 -11.5 8l-60 64c-2.66699 2.66699 -5.33398 6 -8.00098 10l-9 -10l-60 -64c-7.33301 -6.66699 -15 -10 -23 -10h-66l112 134h88z" />
    <glyph glyph-name="f_f_itilde.liga" unicode="ff&#x129;" horiz-adv-x="893" 
d="M103 0l0.000976562 429.001l-54 7c-8 1.33301 -14.167 3.83301 -18.5 7.5c-4.33301 4.33301 -6.5 9.83301 -6.5 16.5v39h79v39c0 29.333 4.16699 55.333 12.5 78s20.166 41.667 35.499 57s34 27 56 35s46.333 12 73 12c23.333 0 44.333 -3 63 -9l-2 -48
c0 -4 -1.16699 -7.16699 -3.5 -9.5s-5.5 -3.83301 -9.5 -4.5s-8.66699 -1 -14 -1h-18c-15.333 0 -29.166 -2 -41.499 -6s-23 -10.333 -32 -19s-15.833 -20.334 -20.5 -35.001s-7 -32.334 -7 -53.001v-36h225v65c0 54.667 12.667 96.334 38 125.001s61.333 43 108 43
c8 0 15.333 -0.333008 22 -1s12.667 -1.66699 18 -3v-52c0 -5.33301 -2.33301 -9 -7 -11s-11.667 -3 -21 -3c-22.667 0 -39.334 -7.66699 -50.001 -23s-16 -40.333 -16 -75v-65h308v-499h-96v430h-210v-430h-94v430h-222v-430h-95zM827.001 666.001
c12 0 21 3.33398 27 10.001c6.66699 6.66699 10 17.334 10 32.001h58c0 -16 -2.33301 -30.833 -7 -44.5s-11 -25.334 -19 -35.001s-17.5 -17.167 -28.5 -22.5c-11.667 -5.33301 -24.167 -8 -37.5 -8c-12 0 -23 2.33301 -33 7s-19.333 10 -28 16s-17.167 11.333 -25.5 16
s-16.166 7 -23.499 7c-23.333 0 -35.333 -14.667 -36 -44h-59c0 16 2.16699 31 6.5 45s10.666 25.667 18.999 35s18 16.666 29 21.999s23.167 8 36.5 8c12 0 23.167 -2.33301 33.5 -7s20 -9.66699 29 -15s17.333 -10.333 25 -15s15.5 -7 23.5 -7z" />
    <glyph glyph-name="f_f_idieresis.liga" unicode="ff&#xef;" horiz-adv-x="893" 
d="M745 644c0 -8 -1.5 -15.333 -4.5 -22s-7.33301 -12.667 -13 -18s-12 -9.33301 -19 -12s-14.5 -4 -22.5 -4s-15.5 1.33301 -22.5 4s-13 6.66699 -18 12s-9.16699 11.333 -12.5 18s-5 14 -5 22s1.66699 15.667 5 23s7.5 13.666 12.5 18.999s11 9.66602 18 12.999
s14.5 5 22.5 5s15.5 -1.66699 22.5 -5s13.333 -7.66602 19 -12.999s10 -11.666 13 -18.999s4.5 -15 4.5 -23zM912 644c0 -8 -1.66699 -15.333 -5 -22s-7.66602 -12.667 -12.999 -18s-11.666 -9.33301 -18.999 -12s-15 -4 -23 -4s-15.333 1.33301 -22 4
s-12.667 6.66699 -18 12s-9.66602 11.333 -12.999 18s-5 14 -5 22s1.66699 15.667 5 23s7.66602 13.666 12.999 18.999s11.333 9.66602 18 12.999s14 5 22 5s15.667 -1.66699 23 -5s13.666 -7.66602 18.999 -12.999s9.66602 -11.666 12.999 -18.999s5 -15 5 -23zM103 0
l0.000976562 429.001l-54 7c-8 1.33301 -14.167 3.83301 -18.5 7.5c-4.33301 4.33301 -6.5 9.83301 -6.5 16.5v39h79v39c0 29.333 4.16699 55.333 12.5 78s20.166 41.667 35.499 57s34 27 56 35s46.333 12 73 12c23.333 0 44.333 -3 63 -9l-2 -48
c0 -4 -1.16699 -7.16699 -3.5 -9.5s-5.5 -3.83301 -9.5 -4.5s-8.66699 -1 -14 -1h-18c-15.333 0 -29.166 -2 -41.499 -6s-23 -10.333 -32 -19s-15.833 -20.334 -20.5 -35.001s-7 -32.334 -7 -53.001v-36h225v65c0 54.667 12.667 96.334 38 125.001s61.333 43 108 43
c8 0 15.333 -0.333008 22 -1s12.667 -1.66699 18 -3v-52c0 -5.33301 -2.33301 -9 -7 -11s-11.667 -3 -21 -3c-22.667 0 -39.334 -7.66699 -50.001 -23s-16 -40.333 -16 -75v-65h308v-499h-96v430h-210v-430h-94v430h-222v-430h-95z" />
    <glyph glyph-name="f_f_imacron.liga" unicode="ff&#x12b;" horiz-adv-x="893" 
d="M103 0l0.000976562 429.001l-54 7c-8 1.33301 -14.167 3.83301 -18.5 7.5c-4.33301 4.33301 -6.5 9.83301 -6.5 16.5v39h79v39c0 29.333 4.16699 55.333 12.5 78s20.166 41.667 35.499 57s34 27 56 35s46.333 12 73 12c23.333 0 44.333 -3 63 -9l-2 -48
c0 -4 -1.16699 -7.16699 -3.5 -9.5s-5.5 -3.83301 -9.5 -4.5s-8.66699 -1 -14 -1h-18c-15.333 0 -29.166 -2 -41.499 -6s-23 -10.333 -32 -19s-15.833 -20.334 -20.5 -35.001s-7 -32.334 -7 -53.001v-36h225v65c0 54.667 12.667 96.334 38 125.001s61.333 43 108 43
c8 0 15.333 -0.333008 22 -1s12.667 -1.66699 18 -3v-52c0 -5.33301 -2.33301 -9 -7 -11s-11.667 -3 -21 -3c-22.667 0 -39.334 -7.66699 -50.001 -23s-16 -40.333 -16 -75v-65h308v-499h-96v430h-210v-430h-94v430h-222v-430h-95zM630.001 676.001h288v-62h-288v62z" />
    <glyph glyph-name="f_f_ibreve.liga" unicode="ff&#x12d;" horiz-adv-x="893" 
d="M103 0l0.000976562 429.001l-54 7c-8 1.33301 -14.167 3.83301 -18.5 7.5c-4.33301 4.33301 -6.5 9.83301 -6.5 16.5v39h79v39c0 29.333 4.16699 55.333 12.5 78s20.166 41.667 35.499 57s34 27 56 35s46.333 12 73 12c23.333 0 44.333 -3 63 -9l-2 -48
c0 -4 -1.16699 -7.16699 -3.5 -9.5s-5.5 -3.83301 -9.5 -4.5s-8.66699 -1 -14 -1h-18c-15.333 0 -29.166 -2 -41.499 -6s-23 -10.333 -32 -19s-15.833 -20.334 -20.5 -35.001s-7 -32.334 -7 -53.001v-36h225v65c0 54.667 12.667 96.334 38 125.001s61.333 43 108 43
c8 0 15.333 -0.333008 22 -1s12.667 -1.66699 18 -3v-52c0 -5.33301 -2.33301 -9 -7 -11s-11.667 -3 -21 -3c-22.667 0 -39.334 -7.66699 -50.001 -23s-16 -40.333 -16 -75v-65h308v-499h-96v430h-210v-430h-94v430h-222v-430h-95zM774.001 582.001
c-26 0 -47.833 3.66602 -65.5 10.999s-32 17 -43 29s-18.833 26.333 -23.5 43s-7 34.334 -7 53.001h67c0 -10.667 1 -20.667 3 -30s5.83301 -17.333 11.5 -24s13.167 -11.667 22.5 -15s21 -5 35 -5s25.667 1.66699 35 5s16.833 8.33301 22.5 15s9.5 14.5 11.5 23.5
c2 9.66699 3 19.834 3 30.501h67c0 -18.667 -2.33301 -36.334 -7 -53.001s-12.5 -31 -23.5 -43s-25.333 -21.667 -43 -29s-39.5 -11 -65.5 -11z" />
    <glyph glyph-name="f_f_iogonek.liga" unicode="ff&#x12f;" horiz-adv-x="893" 
d="M103 0v429.004l-54 7c-8 1.33301 -14.167 3.83301 -18.5 7.5c-4.33301 4.33301 -6.5 9.83301 -6.5 16.5v39h79v39c0 29.333 4.16699 55.333 12.5 78s20.166 41.667 35.499 57s34 27 56 35s46.333 12 73 12c23.333 0 44.333 -3 63 -9l-2 -48
c0 -4 -1.16699 -7.16699 -3.5 -9.5s-5.5 -3.83301 -9.5 -4.5s-8.66699 -1 -14 -1h-18c-15.333 0 -29.166 -2 -41.499 -6s-23 -10.333 -32 -19s-15.833 -20.334 -20.5 -35.001s-7 -32.334 -7 -53.001v-36h225v25c0 30.667 4.83301 59.334 14.5 86.001
s24.334 49.334 44.001 68.001s44.167 33.167 73.5 43.5s63.333 15.5 102 15.5c12.667 0 25.834 -0.833008 39.501 -2.5s25.5 -3.83398 35.5 -6.50098l-3 -50c0 -3.33301 -1.16699 -5.83301 -3.5 -7.5s-5.33301 -2.83398 -9 -3.50098s-8.16699 -0.833984 -13.5 -0.500977
s-11.666 0.5 -18.999 0.5c-60 0 -103.167 -12.167 -129.5 -36.5s-39.5 -60.5 -39.5 -108.5v-23h308v-499h-10c-6.66699 -4 -13.334 -8.33301 -20.001 -13s-12.834 -10.334 -18.501 -17.001s-10.334 -13.667 -14.001 -21s-5.5 -15.333 -5.5 -24c0 -12 4 -21.5 12 -28.5
s18.667 -10.5 32 -10.5c7.33301 0 13.5 0.5 18.5 1.5s9.16699 2.16699 12.5 3.5s6 2.5 8 3.5s3.66699 1.5 5 1.5c5.33301 0 8.66602 -2 9.99902 -6l14 -36c-10.667 -8 -23.667 -14.167 -39 -18.5s-31.666 -6.5 -48.999 -6.5c-30 0 -53.333 6.5 -70 19.5s-25 30.833 -25 53.5
c0 18.667 6.5 36.5 19.5 53.5s29.5 31.833 49.5 44.5h-26v430h-210v-430h-94v430h-222v-430h-95z" />
    <glyph glyph-name="f_f_dotlessi.liga" unicode="ff&#x131;" horiz-adv-x="893" 
d="M103 0l0.000976562 429.001l-54 7c-8 1.33301 -14.167 3.83301 -18.5 7.5c-4.33301 4.33301 -6.5 9.83301 -6.5 16.5v39h79v39c0 29.333 4.16699 55.333 12.5 78s20.166 41.667 35.499 57s34 27 56 35s46.333 12 73 12c23.333 0 44.333 -3 63 -9l-2 -48
c0 -4 -1.16699 -7.16699 -3.5 -9.5s-5.5 -3.83301 -9.5 -4.5s-8.66699 -1 -14 -1h-18c-15.333 0 -29.166 -2 -41.499 -6s-23 -10.333 -32 -19s-15.833 -20.334 -20.5 -35.001s-7 -32.334 -7 -53.001v-36h225v65c0 54.667 12.667 96.334 38 125.001s61.333 43 108 43
c8 0 15.333 -0.333008 22 -1s12.667 -1.66699 18 -3v-52c0 -5.33301 -2.33301 -9 -7 -11s-11.667 -3 -21 -3c-22.667 0 -39.334 -7.66699 -50.001 -23s-16 -40.333 -16 -75v-65h308v-499h-96v430h-210v-430h-94v430h-222v-430h-95z" />
    <glyph glyph-name="f_j.liga" unicode="fj" horiz-adv-x="577" 
d="M103 0l-0.00195312 429.001l-54 7c-8 1.33301 -14.167 3.83301 -18.5 7.5c-4.33301 4.33301 -6.5 9.83301 -6.5 16.5v39h79v25c0 30.667 4.83301 59.334 14.5 86.001s24.334 49.334 44.001 68.001s44.334 33.167 74.001 43.5s63.834 15.5 102.501 15.5
c12.667 0 25.834 -0.833008 39.501 -2.5s25.167 -3.83398 34.5 -6.50098l-2 -50c0 -3.33301 -1.33301 -5.83301 -4 -7.5s-5.83398 -2.83398 -9.50098 -3.50098s-8.16699 -0.833984 -13.5 -0.500977s-11.333 0.5 -18 0.5c-30 0 -55.667 -3 -77 -9s-39 -15.167 -53 -27.5
s-24.167 -27.5 -30.5 -45.5s-9.5 -39 -9.5 -63v-23h308v-533c0 -20.667 -2.83301 -40 -8.5 -58s-14.167 -33.5 -25.5 -46.5s-26.333 -23.5 -45 -31.5s-41.334 -12 -68.001 -12c-10.667 0 -20.667 0.833008 -30 2.5s-18.333 4.16699 -27 7.5l3 52
c1.33301 6.66699 4.33301 10 9 10h27c25.333 0 43.333 6 54 18s16 31.333 16 58v464h-210v-430h-95z" />
    <glyph glyph-name="f_f_j.liga" unicode="ffj" horiz-adv-x="893" 
d="M103 0l-0.000976562 429.003l-54 7c-8 1.33301 -14.167 3.83301 -18.5 7.5c-4.33301 4.33301 -6.5 9.83301 -6.5 16.5v39h79v39c0 29.333 4.16699 55.333 12.5 78s20.166 41.667 35.499 57s34 27 56 35s46.333 12 73 12c23.333 0 44.333 -3 63 -9l-2 -48
c0 -4 -1.16699 -7.16699 -3.5 -9.5s-5.5 -3.83301 -9.5 -4.5s-8.66699 -1 -14 -1h-18c-15.333 0 -29.166 -2 -41.499 -6s-23 -10.333 -32 -19s-15.833 -20.334 -20.5 -35.001s-7 -32.334 -7 -53.001v-36h225v25c0 30.667 4.83301 59.334 14.5 86.001
s24.334 49.334 44.001 68.001s44.167 33.167 73.5 43.5s63.333 15.5 102 15.5c12.667 0 25.834 -0.833008 39.501 -2.5s25.5 -3.83398 35.5 -6.50098l-3 -50c0 -3.33301 -1.16699 -5.83301 -3.5 -7.5s-5.33301 -2.83398 -9 -3.50098s-8.16699 -0.833984 -13.5 -0.500977
s-11.666 0.5 -18.999 0.5c-60 0 -103.167 -12.167 -129.5 -36.5s-39.5 -60.5 -39.5 -108.5v-23h308v-533c0 -20.667 -2.83301 -40 -8.5 -58s-14.334 -33.5 -26.001 -46.5s-26.834 -23.5 -45.501 -31.5s-41 -12 -67 -12c-10.667 0 -20.667 0.833008 -30 2.5
c-8.66699 1.66699 -17.667 4.16699 -27 7.5l3 52c0.666992 2.66699 1.66699 4.66699 3 6s3.33301 2.33301 6 3s6 1 10 1h16c25.333 0 43.333 6 54 18s16 31.333 16 58v464h-210v-430h-94v430h-222v-430h-95z" />
    <glyph glyph-name="f_k.liga" unicode="fk" horiz-adv-x="868" 
d="M102 0l-0.00585938 428.997l-54 7c-8 1.33301 -14.167 3.83301 -18.5 7.5c-4.33301 4.33301 -6.5 9.83301 -6.5 16.5v39h79v39c0 30.667 4.5 58.834 13.5 84.501s23 47.667 42 66s43.833 32.833 74.5 43.5s67.667 16 111 16c14.667 0 28.834 -0.666992 42.501 -2
s27.334 -2.5 41.001 -3.5s28 -2 43 -3s31.833 -1.5 50.5 -1.5v-432h22c6.66699 0 12.334 1 17.001 3s9.66699 5.66699 15 11l155 169c4.66699 6 9.66699 10.667 15 14s12.666 5 21.999 5h86l-182 -198c-9.33301 -12 -19.666 -21.333 -30.999 -28
c6.66699 -4 12.334 -8.66699 17.001 -14s9.33398 -11.333 14.001 -18l194 -250h-86c-8 0 -14.667 1.33301 -20 4s-10.333 7.33398 -15 14.001l-161 206c-5.33301 7.33301 -10.333 12 -15 14s-11.667 3 -21 3h-26v-241h-96v672c-14 4 -28.5 7.33301 -43.5 10
s-29.167 4 -42.5 4c-24.667 0 -46.167 -3.66699 -64.5 -11s-33.166 -17.666 -44.499 -30.999s-20 -29 -26 -47s-9 -37.667 -9 -59v-39h144v-69h-140v-430h-96z" />
    <glyph glyph-name="f_f_k.liga" unicode="ffk" horiz-adv-x="1185" 
d="M103 0l-0.000976562 428.999l-54 7c-8 1.33301 -14.167 3.83301 -18.5 7.5c-4.33301 4.33301 -6.5 9.83301 -6.5 16.5v39h79v39c0 29.333 4.16699 55.333 12.5 78s20.166 41.667 35.499 57s34 27 56 35s46.333 12 73 12c23.333 0 44.333 -3 63 -9l-2 -48
c0 -4 -1.16699 -7.16699 -3.5 -9.5s-5.5 -3.83301 -9.5 -4.5s-8.66699 -1 -14 -1h-18c-15.333 0 -29.166 -2 -41.499 -6s-23 -10.333 -32 -19s-15.833 -20.334 -20.5 -35.001s-7 -32.334 -7 -53.001v-36h225v39c0 30.667 4.33301 58.834 13 84.501s22.667 47.667 42 66
s44.166 32.833 74.499 43.5s67.166 16 110.499 16c14 0 27.5 -0.5 40.5 -1.5s25.833 -2.16699 38.5 -3.5s26 -2.5 40 -3.5s29.667 -1.5 47 -1.5h10v-432h24c6.66699 0 12.334 1 17.001 3s9.33398 5.66699 14.001 11l155 169c4.66699 6 9.83398 10.667 15.501 14
s12.5 5 20.5 5h86l-182 -198c-9.33301 -12 -19.333 -21.333 -30 -28c6.66699 -4 12.334 -8.66699 17.001 -14s9.33398 -11.333 14.001 -18l193 -250h-84c-8 0 -15 1.33301 -21 4s-11 7.33398 -15 14.001l-160 206c-5.33301 7.33301 -10.333 12 -15 14s-12.334 3 -23.001 3
h-26v-241h-94v672c-14 4 -28.5 7.33301 -43.5 10s-29.833 4 -44.5 4c-24.667 0 -45.834 -3.66699 -63.501 -11s-32.5 -17.666 -44.5 -30.999s-20.667 -29 -26 -47s-8 -37.667 -8 -59v-39h144v-69h-142v-430h-94v430h-222v-430h-95z" />
    <glyph glyph-name="f_t.liga" unicode="ft" horiz-adv-x="688" 
d="M522 430l-0.00195312 -300c0 -20 5 -35 15 -45s23 -15 39 -15c9.33301 0 17.333 1 24 3s12.334 4.66699 17.001 8s8.66699 6 12 8s6.33301 3 9 3s5 -0.666992 7 -2s4 -3.33301 6 -6l28 -46c-16 -14.667 -34.833 -26 -56.5 -34s-44.5 -12 -68.5 -12
c-40.667 0 -71.834 11.333 -93.501 34s-32.5 55.334 -32.5 98.001v306h-230v-430h-96v429l-54 7c-8 1.33301 -14.167 3.83301 -18.5 7.5c-4.33301 4.33301 -6.5 9.83301 -6.5 16.5v39h79v47c0 29.333 4.33301 55.333 13 78s20.667 41.667 36 57s33.833 27 55.5 35
c22.333 8 46.833 12 73.5 12c10.667 0 21.334 -0.666992 32.001 -2s20.667 -3.66602 30 -6.99902l-2 -48c0 -4 -1.16699 -7.16699 -3.5 -9.5s-5.5 -3.83301 -9.5 -4.5s-8.66699 -1 -14 -1h-18c-15.333 0 -29.166 -2 -41.499 -6s-23 -10.333 -32 -19
s-15.833 -20.334 -20.5 -35.001s-7 -32.334 -7 -53.001v-44h237l21 154c1.33301 5.33301 4 9.5 8 12.5s8.66699 4.5 14 4.5h48v-171h145v-69h-145z" />
    <glyph glyph-name="f_f_t.liga" unicode="fft" horiz-adv-x="1005" 
d="M103 0l0.00390625 429.002l-54 7c-8 1.33301 -14.167 3.83301 -18.5 7.5c-4.33301 4.33301 -6.5 9.83301 -6.5 16.5v39h79v39c0 29.333 4.16699 55.333 12.5 78s20.166 41.667 35.499 57s34 27 56 35s46.333 12 73 12c23.333 0 44.333 -3 63 -9l-2 -48
c0 -4 -1.16699 -7.16699 -3.5 -9.5s-5.5 -3.83301 -9.5 -4.5s-8.66699 -1 -14 -1h-18c-15.333 0 -29.166 -2 -41.499 -6s-23 -10.333 -32 -19s-15.833 -20.334 -20.5 -35.001s-7 -32.334 -7 -53.001v-36h225v47c0 29.333 4 55.333 12 78s19.667 41.667 35 57s34 27 56 35
s46.333 12 73 12c11.333 0 22.333 -0.666992 33 -2c11.333 -1.33301 21.666 -3.66602 30.999 -6.99902l-2 -48c0 -4 -1.33301 -7.16699 -4 -9.5s-6 -3.83301 -10 -4.5s-8.66699 -1 -14 -1h-18c-15.333 0 -29.166 -2 -41.499 -6s-22.833 -10.333 -31.5 -19
s-15.334 -20.334 -20.001 -35.001s-7 -32.334 -7 -53.001v-44h236l22 154c1.33301 5.33301 3.66602 9.5 6.99902 12.5s8.33301 4.5 15 4.5h48v-171h144v-69h-144v-300c0 -20 4.83301 -35 14.5 -45s22.5 -15 38.5 -15c9.33301 0 17.166 1 23.499 3s12 4.66699 17 8
s9.16699 6 12.5 8s6.33301 3 9 3c5.33301 0 9.66602 -2.66699 12.999 -8l28 -46c-16 -14.667 -35 -26 -57 -34s-44.333 -12 -67 -12c-40.667 0 -72.167 11.333 -94.5 34s-33.5 55.334 -33.5 98.001v306h-230v-430h-94v430h-222v-430h-95z" />
    <glyph glyph-name="t_f.liga" unicode="tf" horiz-adv-x="690" 
d="M440 0v430h-245v-300c0 -20 4.83301 -35 14.5 -45s22.5 -15 38.5 -15c9.33301 0 17.333 1 24 3s12.334 4.66699 17.001 8s8.66699 6 12 8s6.33301 3 9 3s5 -0.666992 7 -2s4.33301 -3.33301 7 -6l28 -46c-16 -14.667 -35 -26 -57 -34s-44.667 -12 -68 -12
c-40.667 0 -72 11.333 -94 34s-33 55.334 -33 98.001v306h-60c-5.33301 0 -9.83301 1.66699 -13.5 5s-5.5 8.33301 -5.5 15v38l83 12l21 153c1.33301 5.33301 3.83301 9.5 7.5 12.5s8.5 4.5 14.5 4.5h48v-171h245v47c0 29.333 4.16699 55.333 12.5 78
s20.166 41.667 35.499 57s33.833 27 55.5 35s46.167 12 73.5 12c11.333 0 22.333 -0.666992 33 -2s20.667 -3.66602 30 -6.99902l-2 -48c0 -4 -1.33301 -7.16699 -4 -9.5s-6 -3.83301 -10 -4.5s-8.66699 -1 -14 -1h-18c-15.333 0 -29.166 -2 -41.499 -6
s-22.833 -10.333 -31.5 -19s-15.334 -20.334 -20.001 -35.001s-7 -32.334 -7 -53.001v-44h144v-69h-141v-430h-95z" />
    <glyph glyph-name="t_iogonek.liga" unicode="t&#x12f;" horiz-adv-x="620" 
d="M568 -104c4 0 7.33789 -2 10.0049 -6l15 -36c-10.667 -8 -23.834 -14.167 -39.501 -18.5s-31.834 -6.5 -48.501 -6.5c-30.667 0 -54.334 6.5 -71.001 19.5s-25 30.833 -25 53.5c0 18.667 6.5 36.5 19.5 53.5s29.5 31.833 49.5 44.5h-26v430h-258v-300c0 -20 5 -35 15 -45
s23 -15 39 -15c9.33301 0 17.333 1 24 3s12.334 4.66699 17.001 8s8.66699 6 12 8s6.33301 3 9 3c5.33301 0 10 -2.66699 14 -8l28 -46c-16 -14.667 -35 -26 -57 -34s-45 -12 -69 -12c-40 0 -71 11.333 -93 34s-33 55.334 -33 98.001v306h-60c-5.33301 0 -10 1.66699 -14 5
s-6 8.33301 -6 15v38l84 12l20 153c1.33301 5.33301 4 9.5 8 12.5s8.66699 4.5 14 4.5h48v-171h352v-499h-8c-6.66699 -4 -13.334 -8.33301 -20.001 -13s-12.834 -10.334 -18.501 -17.001s-10.334 -13.667 -14.001 -21s-5.5 -15.333 -5.5 -24c0 -12 4 -21.5 12 -28.5
s18.667 -10.5 32 -10.5c7.33301 0 13.5 0.5 18.5 1.5s9.16699 2.16699 12.5 3.5s6 2.5 8 3.5s3.66699 1.5 5 1.5zM565.005 665c0 -9.33301 -1.83301 -17.833 -5.5 -25.5s-8.5 -14.5 -14.5 -20.5s-13 -10.667 -21 -14s-16.667 -5 -26 -5
c-8.66699 0 -16.834 1.66699 -24.501 5s-14.5 8 -20.5 14s-10.833 13 -14.5 21s-5.5 16.333 -5.5 25c0 9.33301 1.83301 18 5.5 26s8.5 15 14.5 21s12.833 10.833 20.5 14.5s15.834 5.5 24.501 5.5c9.33301 0 18 -1.83301 26 -5.5s15 -8.5 21 -14.5s10.833 -13 14.5 -21
s5.5 -16.667 5.5 -26z" />
    <glyph glyph-name="t_dotlessi.liga" unicode="t&#x131;" horiz-adv-x="621" 
d="M547 499l-0.000976562 -499.001h-95v430h-257v-300c0 -20 4.83301 -35 14.5 -45s22.5 -15 38.5 -15c9.33301 0 17.333 1 24 3s12.334 4.66699 17.001 8s8.66699 6 12 8s6.33301 3 9 3s5 -0.666992 7 -2s4.33301 -3.33301 7 -6l28 -46c-16 -14.667 -35 -26 -57 -34
s-44.667 -12 -68 -12c-40.667 0 -72 11.333 -94 34s-33 55.334 -33 98.001v306h-60c-5.33301 0 -9.83301 1.66699 -13.5 5s-5.5 8.33301 -5.5 15v38l83 12l21 153c1.33301 5.33301 3.83301 9.5 7.5 12.5s8.5 4.5 14.5 4.5h48v-171h352z" />
    <glyph glyph-name="t_t.liga" unicode="tt" horiz-adv-x="686" 
d="M227 -8c-40.667 0 -72.002 11.3311 -94.002 33.998s-33 55.334 -33 98.001v306h-60c-5.33301 0 -9.83301 1.66699 -13.5 5s-5.5 8.33301 -5.5 15v38l83 12l21 153c1.33301 5.33301 3.83301 9.5 7.5 12.5s8.5 4.5 14.5 4.5h48v-171h235l20 154
c1.33301 5.33301 4 9.5 8 12.5s8.66699 4.5 14 4.5h48v-171h146v-69h-146v-300c0 -20 5 -35 15 -45s23 -15 39 -15c9.33301 0 17.333 1 24 3s12.334 4.66699 17.001 8s8.66699 6 12 8s6.33301 3 9 3c5.33301 0 10 -2.66699 14 -8l28 -46c-16 -14.667 -35 -26 -57 -34
s-45 -12 -69 -12c-40 0 -71 11.333 -93 34s-33 55.334 -33 98.001v306h-231v-300c0 -20 4.83301 -35 14.5 -45s22.5 -15 38.5 -15c9.33301 0 17.333 1 24 3s12.334 4.66699 17.001 8s8.66699 6 12 8s6.33301 3 9 3s5 -0.666992 7 -2s4.33301 -3.33301 7 -6l28 -46
c-16 -14.667 -35 -26 -57 -34s-44.667 -12 -68 -12z" />
    <glyph glyph-name="t_t_f.liga" unicode="ttf" horiz-adv-x="1015" 
d="M766 0l-0.00292969 429.999h-246v-300c0 -20 5 -35 15 -45s23 -15 39 -15c9.33301 0 17.333 1 24 3s12.334 4.66699 17.001 8s8.66699 6 12 8s6.33301 3 9 3c5.33301 0 10 -2.66699 14 -8l28 -46c-16 -14.667 -35 -26 -57 -34s-45 -12 -69 -12c-40 0 -71 11.333 -93 34
s-33 55.334 -33 98.001v306h-231v-300c0 -20 4.83301 -35 14.5 -45s22.5 -15 38.5 -15c9.33301 0 17.333 1 24 3s12.334 4.66699 17.001 8s8.66699 6 12 8s6.33301 3 9 3s5 -0.666992 7 -2s4.33301 -3.33301 7 -6l28 -46c-16 -14.667 -35 -26 -57 -34s-44.667 -12 -68 -12
c-40.667 0 -72 11.333 -94 34s-33 55.334 -33 98.001v306h-60c-5.33301 0 -9.83301 1.66699 -13.5 5s-5.5 8.33301 -5.5 15v38l83 12l21 153c1.33301 5.33301 3.83301 9.5 7.5 12.5s8.5 4.5 14.5 4.5h48v-171h235l20 154c1.33301 5.33301 4 9.5 8 12.5s8.66699 4.5 14 4.5
h48v-171h246v47c0 29.333 4.16699 55.333 12.5 78s20 41.667 35 57s33.5 27 55.5 35s46.333 12 73 12c11.333 0 22.5 -0.666992 33.5 -2s21.167 -3.66602 30.5 -6.99902l-2 -48c-0.666992 -8 -5.16699 -12.5 -13.5 -13.5s-19.166 -1.5 -32.499 -1.5
c-15.333 0 -29.166 -2 -41.499 -6s-22.833 -10.333 -31.5 -19s-15.334 -20.334 -20.001 -35.001s-7 -32.334 -7 -53.001v-44h144v-69h-141v-430h-95z" />
    <glyph glyph-name="t_t_iogonek.liga" unicode="tt&#x12f;" horiz-adv-x="936" 
d="M885 -104c5.33301 0 8.66895 -2.00098 10.002 -6.00098l15 -36c-10.667 -8 -23.667 -14.167 -39 -18.5s-31.666 -6.5 -48.999 -6.5c-30 0 -53.5 6.5 -70.5 19.5s-25.5 30.833 -25.5 53.5c0 18.667 6.33301 36.5 19 53.5s29.667 31.833 51 44.5h-28v430h-248v-300
c0 -20 5 -35 15 -45s23 -15 39 -15c9.33301 0 17.333 1 24 3s12.334 4.66699 17.001 8s8.66699 6 12 8s6.33301 3 9 3s5 -0.666992 7 -2s4 -3.33301 6 -6l28 -46c-16 -14.667 -34.833 -26 -56.5 -34s-44.5 -12 -68.5 -12c-40.667 0 -71.834 11.333 -93.501 34
s-32.5 55.334 -32.5 98.001v306h-232v-300c0 -20 5 -35 15 -45s23 -15 39 -15c9.33301 0 17.333 1 24 3s12.334 4.66699 17.001 8s8.66699 6 12 8s6.33301 3 9 3c5.33301 0 10 -2.66699 14 -8l28 -46c-16 -14.667 -35 -26 -57 -34s-45 -12 -69 -12c-40 0 -71 11.333 -93 34
s-33 55.334 -33 98.001v306h-60c-5.33301 0 -10 1.66699 -14 5s-6 8.33301 -6 15v38l84 12l20 153c1.33301 5.33301 4 9.5 8 12.5s8.66699 4.5 14 4.5h48v-171h235l21 154c1.33301 5.33301 4 9.5 8 12.5s8.66699 4.5 14 4.5h48v-171h342v-499h-7
c-6.66699 -4 -13.334 -8.33301 -20.001 -13s-12.834 -10.334 -18.501 -17.001s-10.167 -13.667 -13.5 -21s-5 -15.333 -5 -24c0 -12 3.83301 -21.5 11.5 -28.5s18.167 -10.5 31.5 -10.5c7.33301 0 13.333 0.5 18 1.5s8.66699 2.16699 12 3.5s6.16602 2.5 8.49902 3.5
s4.16602 1.5 5.49902 1.5zM881.003 664.999c0 -9.33301 -1.83301 -17.833 -5.5 -25.5s-8.5 -14.5 -14.5 -20.5s-13 -10.667 -21 -14s-16.667 -5 -26 -5s-17.833 1.66699 -25.5 5s-14.334 8 -20.001 14s-10.334 13 -14.001 21s-5.5 16.333 -5.5 25
c0 9.33301 1.83301 18 5.5 26s8.33398 15 14.001 21s12.334 10.833 20.001 14.5s16.167 5.5 25.5 5.5s18 -1.83301 26 -5.5s15 -8.5 21 -14.5s10.833 -13 14.5 -21s5.5 -16.667 5.5 -26z" />
    <glyph glyph-name="t_t_dotlessi.liga" unicode="tt&#x131;" horiz-adv-x="936" 
d="M862 499l-0.00195312 -499.002h-94v430h-248v-300c0 -20 5 -35 15 -45s23 -15 39 -15c9.33301 0 17.333 1 24 3s12.334 4.66699 17.001 8s8.66699 6 12 8s6.33301 3 9 3c5.33301 0 10 -2.66699 14 -8l28 -46c-16 -14.667 -35 -26 -57 -34s-45 -12 -69 -12
c-40 0 -71 11.333 -93 34s-33 55.334 -33 98.001v306h-231v-300c0 -20 4.83301 -35 14.5 -45s22.5 -15 38.5 -15c9.33301 0 17.333 1 24 3s12.334 4.66699 17.001 8s8.66699 6 12 8s6.33301 3 9 3s5 -0.666992 7 -2s4.33301 -3.33301 7 -6l28 -46
c-16 -14.667 -35 -26 -57 -34s-44.667 -12 -68 -12c-40.667 0 -72 11.333 -94 34s-33 55.334 -33 98.001v306h-60c-5.33301 0 -9.83301 1.66699 -13.5 5s-5.5 8.33301 -5.5 15v38l83 12l21 153c1.33301 5.33301 3.83301 9.5 7.5 12.5s8.5 4.5 14.5 4.5h48v-171h235l20 154
c1.33301 5.33301 4 9.5 8 12.5s8.66699 4.5 14 4.5h48v-171h342z" />
    <glyph glyph-name="f_uni01D0.liga" unicode="f&#x1d0;" horiz-adv-x="577" 
d="M103 0v428.999l-54 7c-8 1.33301 -14.167 3.83301 -18.5 7.5c-4.33301 4.33301 -6.5 9.83301 -6.5 16.5v39h79v65c0 54.667 12.833 96.334 38.5 125.001s61.5 43 107.5 43c8 0 15.333 -0.333008 22 -1s13 -1.66699 19 -3v-52c0 -5.33301 -2.5 -9 -7.5 -11
s-11.833 -3 -20.5 -3c-22.667 0 -39.5 -7.66699 -50.5 -23s-16.5 -40.333 -16.5 -75v-65h308v-499h-95v430h-210v-430h-95zM310 717.999h66c4 0 8 -0.666992 12 -2s7 -3.33301 9 -6l53 -66l10 -16l4 8l4 8l54 66c1.33301 2.66699 4 4.66699 8 6s8 2 12 2h64l-104 -134h-88z
" />
    <glyph glyph-name="f_uni0209.liga" unicode="f&#x209;" horiz-adv-x="577" 
d="M266 732c10.667 0 20.002 -0.332031 28.002 -0.999023s15 -2.16699 21 -4.5s11.333 -5.33301 16 -9s9 -8.5 13 -14.5l89 -121h-45c-8 0 -14.333 1 -19 3s-9 5.66699 -13 11l-62 66c-18.667 -0.666992 -34.334 -2.83398 -47.001 -6.50098s-22.834 -9.16699 -30.501 -16.5
s-13.167 -17.333 -16.5 -30s-5 -27.667 -5 -45v-65h308v-499h-95v430h-210v-430h-95v429l-54 7c-8 1.33301 -14.167 3.83301 -18.5 7.5c-4.33301 4.33301 -6.5 9.83301 -6.5 16.5v39h79v65c0 28 4 52.333 12 73s19.167 38.167 33.5 52.5s31.5 25 51.5 32s42 10.5 66 10.5z
M456.002 726.001c11.333 0 19.833 -2 25.5 -6s10.5 -9.66699 14.5 -17l68 -121h-39c-7.33301 0 -13.5 1 -18.5 3c-5.66699 2 -10.5 5.66699 -14.5 11l-99 130h63z" />
    <glyph glyph-name="f_uni020B.liga" unicode="f&#x20b;" horiz-adv-x="577" 
d="M103 0v428.999l-54 7c-8 1.33301 -14.167 3.83301 -18.5 7.5c-4.33301 4.33301 -6.5 9.83301 -6.5 16.5v39h79v65c0 54.667 12.833 96.334 38.5 125.001s61.5 43 107.5 43c8 0 15.333 -0.333008 22 -1s13 -1.66699 19 -3v-52c0 -5.33301 -2.5 -9 -7.5 -11
s-11.833 -3 -20.5 -3c-22.667 0 -39.5 -7.66699 -50.5 -23s-16.5 -40.333 -16.5 -75v-65h308v-499h-95v430h-210v-430h-95zM458 721.999c26 0 47.832 -3.49805 65.499 -10.498s32.167 -16.667 43.5 -29s19.333 -26.833 24 -43.5s7 -34 7 -52h-68c0 10.667 -1 20.5 -3 29.5
s-5.83301 16.833 -11.5 23.5s-13 11.834 -22 15.501s-20.833 5.5 -35.5 5.5c-14 0 -25.5 -1.83301 -34.5 -5.5s-16.333 -8.83398 -22 -15.501s-9.66699 -14.334 -12 -23.001s-3.5 -18.667 -3.5 -30h-67c0 18.667 2.5 36.167 7.5 52.5s12.833 30.666 23.5 42.999
s24.834 22 42.501 29s39.5 10.5 65.5 10.5z" />
    <glyph glyph-name="f_uni1E2F.liga" unicode="f&#x1e2f;" horiz-adv-x="577" 
d="M428 604c0 -6.66699 -1.33301 -13.334 -4 -20.001s-6.5 -12.334 -11.5 -17.001s-10.667 -8.33398 -17 -11.001s-13.5 -4 -21.5 -4c-6.66699 0 -13.167 1.33301 -19.5 4s-12 6.33398 -17 11.001s-8.83301 10.334 -11.5 17.001s-4 13.334 -4 20.001
c0 7.33301 1.33301 14.166 4 20.499s6.5 12.166 11.5 17.499s10.667 9.33301 17 12s12.833 4 19.5 4c7.33301 0 14.333 -1.33301 21 -4s12.5 -6.66699 17.5 -12s8.83301 -11.166 11.5 -17.499s4 -13.166 4 -20.499zM594 604c0 -6.66699 -1.33496 -13.334 -4.00195 -20.001
s-6.5 -12.334 -11.5 -17.001s-10.667 -8.33398 -17 -11.001s-13.166 -4 -20.499 -4s-14.166 1.33301 -20.499 4s-12 6.33398 -17 11.001s-8.83301 10.334 -11.5 17.001s-4 13.334 -4 20.001c0 7.33301 1.33301 14.166 4 20.499s6.5 12.166 11.5 17.499s10.667 9.33301 17 12
s13.166 4 20.499 4c6.66699 0 13.334 -1.33301 20.001 -4s12.5 -6.66699 17.5 -12s8.83301 -11.166 11.5 -17.499s4 -13.166 4 -20.499zM616.998 796l-109.002 -110c-5.33301 -4.66699 -11 -8.16699 -17 -10.5s-13 -3.5 -21 -3.5h-52l66 102
c4.66699 8 9.83398 13.667 15.501 17s13.834 5 24.501 5h93zM102.996 0v428.999l-54 7c-8 1.33301 -14.167 3.83301 -18.5 7.5c-4.33301 4.33301 -6.5 9.83301 -6.5 16.5v39h79v65c0 54.667 12.833 96.334 38.5 125.001s61.5 43 107.5 43c8 0 15.333 -0.333008 22 -1
s13 -1.66699 19 -3v-52c0 -5.33301 -2.5 -9 -7.5 -11s-11.833 -3 -20.5 -3c-22.667 0 -39.5 -7.66699 -50.5 -23s-16.5 -40.333 -16.5 -75v-65h308v-499h-95v430h-210v-430h-95z" />
    <glyph glyph-name="f_f_uni01D0.liga" unicode="ff&#x1d0;" horiz-adv-x="893" 
d="M724 0l0.000976562 430.001h-210v-430h-94v430h-222v-430h-95v429l-54 7c-8 1.33301 -14.167 3.83301 -18.5 7.5c-4.33301 4.33301 -6.5 9.83301 -6.5 16.5v39h79v39c0 29.333 4.16699 55.333 12.5 78s20.166 41.667 35.499 57s34 27 56 35s46.333 12 73 12
c23.333 0 44.333 -3 63 -9l-2 -48c0 -4 -1.16699 -7.16699 -3.5 -9.5s-5.5 -3.83301 -9.5 -4.5s-8.66699 -1 -14 -1h-18c-15.333 0 -29.166 -2 -41.499 -6s-23 -10.333 -32 -19s-15.833 -20.334 -20.5 -35.001s-7 -32.334 -7 -53.001v-36h225v65
c0 54.667 12.667 96.334 38 125.001s61.333 43 108 43c8 0 15.333 -0.333008 22 -1s12.667 -1.66699 18 -3v-52c0 -5.33301 -2.33301 -9 -7 -11s-11.667 -3 -21 -3c-22.667 0 -39.334 -7.66699 -50.001 -23s-16 -40.333 -16 -75v-65h308v-499h-96zM624.001 718.001h66
c4 0 8 -0.666992 12 -2s7 -3.33301 9 -6l53 -66l10 -16l4 8l4 8l54 66c1.33301 2.66699 4 4.66699 8 6s8 2 12 2h64l-104 -134h-88z" />
    <glyph glyph-name="f_f_uni0209.liga" unicode="ff&#x209;" horiz-adv-x="893" 
d="M103 0l-0.000976562 429.002l-54 7c-8 1.33301 -14.167 3.83301 -18.5 7.5c-4.33301 4.33301 -6.5 9.83301 -6.5 16.5v39h79v39c0 29.333 4.16699 55.333 12.5 78s20.166 41.667 35.499 57s34 27 56 35s46.333 12 73 12c23.333 0 44.333 -3 63 -9l-2 -48
c0 -4 -1.16699 -7.16699 -3.5 -9.5s-5.5 -3.83301 -9.5 -4.5s-8.66699 -1 -14 -1h-18c-15.333 0 -29.166 -2 -41.499 -6s-23 -10.333 -32 -19s-15.833 -20.334 -20.5 -35.001s-7 -32.334 -7 -53.001v-36h225v65c0 54.667 14 96.334 42 125.001s69.333 43 124 43
c10.667 0 20 -0.333008 28 -1s15 -2.16699 21 -4.5s11.333 -5.33301 16 -9s9 -8.5 13 -14.5l90 -121h-46c-7.33301 0 -13.166 1.16699 -17.499 3.5c-4.33301 1.66699 -9.16602 5.16699 -14.499 10.5l-62 66c-18.667 -0.666992 -34.334 -2.83398 -47.001 -6.50098
s-23.167 -9.16699 -31.5 -16.5s-14.333 -17.333 -18 -30s-5.5 -27.667 -5.5 -45v-65h308v-499h-96v430h-210v-430h-94v430h-222v-430h-95zM776.999 726.002c11.333 0 20 -2 26 -6s11 -9.66699 15 -17l68 -121h-40c-8 0 -14.333 1 -19 3s-9 5.66699 -13 11l-100 130h63z" />
    <glyph glyph-name="f_f_uni020B.liga" unicode="ff&#x20b;" horiz-adv-x="893" 
d="M724 0l0.000976562 430.001h-210v-430h-94v430h-222v-430h-95v429l-54 7c-8 1.33301 -14.167 3.83301 -18.5 7.5c-4.33301 4.33301 -6.5 9.83301 -6.5 16.5v39h79v39c0 29.333 4.16699 55.333 12.5 78s20.166 41.667 35.499 57s34 27 56 35s46.333 12 73 12
c23.333 0 44.333 -3 63 -9l-2 -48c0 -4 -1.16699 -7.16699 -3.5 -9.5s-5.5 -3.83301 -9.5 -4.5s-8.66699 -1 -14 -1h-18c-15.333 0 -29.166 -2 -41.499 -6s-23 -10.333 -32 -19s-15.833 -20.334 -20.5 -35.001s-7 -32.334 -7 -53.001v-36h225v65
c0 54.667 12.667 96.334 38 125.001s61.333 43 108 43c8 0 15.333 -0.333008 22 -1s12.667 -1.66699 18 -3v-52c0 -5.33301 -2.33301 -9 -7 -11s-11.667 -3 -21 -3c-22.667 0 -39.334 -7.66699 -50.001 -23s-16 -40.333 -16 -75v-65h308v-499h-96zM770.001 722.001
c26 0 47.8311 -3.49805 65.498 -10.498s31.834 -16.667 42.501 -29s18.5 -26.833 23.5 -43.5s7.5 -34 7.5 -52h-67c0 10.667 -1.16699 20.5 -3.5 29.5s-6.33301 16.833 -12 23.5s-13.167 11.834 -22.5 15.501s-20.666 5.5 -33.999 5.5c-14 0 -25.833 -1.83301 -35.5 -5.5
s-17.167 -8.83398 -22.5 -15.501s-9 -14.334 -11 -23.001s-3 -18.667 -3 -30h-68c0 18.667 2.33301 36.167 7 52.5s12.667 30.666 24 42.999s25.833 22 43.5 29s39.5 10.5 65.5 10.5z" />
    <glyph glyph-name="f_f_uni1E2F.liga" unicode="ff&#x1e2f;" horiz-adv-x="893" 
d="M103 0l0.000976562 429.001l-54 7c-8 1.33301 -14.167 3.83301 -18.5 7.5c-4.33301 4.33301 -6.5 9.83301 -6.5 16.5v39h79v39c0 29.333 4.16699 55.333 12.5 78s20.166 41.667 35.499 57s34 27 56 35s46.333 12 73 12c23.333 0 44.333 -3 63 -9l-2 -48
c0 -4 -1.16699 -7.16699 -3.5 -9.5s-5.5 -3.83301 -9.5 -4.5s-8.66699 -1 -14 -1h-18c-15.333 0 -29.166 -2 -41.499 -6s-23 -10.333 -32 -19s-15.833 -20.334 -20.5 -35.001s-7 -32.334 -7 -53.001v-36h225v65c0 54.667 12.667 96.334 38 125.001s61.333 43 108 43
c8 0 15.333 -0.333008 22 -1s12.667 -1.66699 18 -3v-52c0 -5.33301 -2.33301 -9 -7 -11s-11.667 -3 -21 -3c-22.667 0 -39.334 -7.66699 -50.001 -23s-16 -40.333 -16 -75v-65h308v-499h-96v430h-210v-430h-94v430h-222v-430h-95zM934.001 796.001l-110.001 -110
c-5.33301 -4.66699 -11 -8.16699 -17 -10.5s-13 -3.5 -21 -3.5h-51l65 102c4.66699 8 9.83398 13.667 15.501 17s14.167 5 25.5 5h93zM910 604.001c0 -6.66699 -1.33398 -13.334 -4.00098 -20.001s-6.33398 -12.334 -11.001 -17.001s-10.334 -8.33398 -17.001 -11.001
s-13.334 -4 -20.001 -4c-7.33301 0 -14.166 1.33301 -20.499 4s-12 6.33398 -17 11.001s-9 10.334 -12 17.001s-4.5 13.334 -4.5 20.001c0 7.33301 1.5 14.166 4.5 20.499s7 12.166 12 17.499s10.5 9.33301 16.5 12s13 4 21 4c6.66699 0 13.334 -1.33301 20.001 -4
s12.334 -6.66699 17.001 -12s8.33398 -11.166 11.001 -17.499s4 -13.166 4 -20.499zM743.999 604.001c0 -6.66699 -1.33496 -13.334 -4.00195 -20.001s-6.5 -12.334 -11.5 -17.001s-10.667 -8.33398 -17 -11.001s-13.166 -4 -20.499 -4c-6.66699 0 -13.167 1.33301 -19.5 4
s-12 6.33398 -17 11.001s-9 10.334 -12 17.001s-4.5 13.334 -4.5 20.001c0 7.33301 1.5 14.166 4.5 20.499s7 12.166 12 17.499s10.5 9.33301 16.5 12s12.667 4 20 4c6.66699 0 13.334 -1.33301 20.001 -4s12.5 -6.66699 17.5 -12s8.83301 -11.166 11.5 -17.499
s4 -13.166 4 -20.499z" />
    <glyph glyph-name="f_uni0237.liga" unicode="f&#x237;" horiz-adv-x="577" 
d="M103 0l0.000976562 428.999l-54 7c-8 1.33301 -14.167 3.83301 -18.5 7.5c-4.33301 4.33301 -6.5 9.83301 -6.5 16.5v39h79v65c0 54.667 12.833 96.334 38.5 125.001s61.5 43 107.5 43c8 0 15.333 -0.333008 22 -1s13 -1.66699 19 -3v-52c0 -5.33301 -2.5 -9 -7.5 -11
s-11.833 -3 -20.5 -3c-22.667 0 -39.5 -7.66699 -50.5 -23s-16.5 -40.333 -16.5 -75v-65h308v-533c0 -20.667 -2.83301 -40 -8.5 -58s-14.167 -33.5 -25.5 -46.5s-26.333 -23.5 -45 -31.5s-41.334 -12 -68.001 -12c-10.667 0 -20.667 0.833008 -30 2.5
s-18.333 4.16699 -27 7.5l3 52c1.33301 6.66699 4.33301 10 9 10h27c25.333 0 43.333 6 54 18s16 31.333 16 58v464h-210v-430h-95z" />
    <glyph glyph-name="f_f_uni0237.liga" unicode="ff&#x237;" horiz-adv-x="893" 
d="M103 0l0.00292969 429.001l-54 7c-8 1.33301 -14.167 3.83301 -18.5 7.5c-4.33301 4.33301 -6.5 9.83301 -6.5 16.5v39h79v39c0 29.333 4.16699 55.333 12.5 78s20.166 41.667 35.499 57s34 27 56 35s46.333 12 73 12c23.333 0 44.333 -3 63 -9l-2 -48
c0 -4 -1.16699 -7.16699 -3.5 -9.5s-5.5 -3.83301 -9.5 -4.5s-8.66699 -1 -14 -1h-18c-15.333 0 -29.166 -2 -41.499 -6s-23 -10.333 -32 -19s-15.833 -20.334 -20.5 -35.001s-7 -32.334 -7 -53.001v-36h225v65c0 54.667 12.667 96.334 38 125.001s61.333 43 108 43
c8 0 15.333 -0.333008 22 -1s12.667 -1.66699 18 -3v-52c0 -5.33301 -2.33301 -9 -7 -11s-11.667 -3 -21 -3c-22.667 0 -39.334 -7.66699 -50.001 -23s-16 -40.333 -16 -75v-65h308v-533c0 -20.667 -2.83301 -40 -8.5 -58s-14.334 -33.5 -26.001 -46.5
s-26.834 -23.5 -45.501 -31.5s-41 -12 -67 -12c-10.667 0 -20.667 0.833008 -30 2.5c-8.66699 1.66699 -17.667 4.16699 -27 7.5l3 52c0.666992 2.66699 1.66699 4.66699 3 6s3.33301 2.33301 6 3s6 1 10 1h16c25.333 0 43.333 6 54 18s16 31.333 16 58v464h-210v-430h-94
v430h-222v-430h-95z" />
    <glyph glyph-name="f_jcircumflex.liga" unicode="f&#x135;" horiz-adv-x="577" 
d="M103 0l0.000976562 428.999l-54 7c-8 1.33301 -14.167 3.83301 -18.5 7.5c-4.33301 4.33301 -6.5 9.83301 -6.5 16.5v39h79v65c0 54.667 12.833 96.334 38.5 125.001s61.5 43 107.5 43c8 0 15.333 -0.333008 22 -1s13 -1.66699 19 -3v-52c0 -5.33301 -2.5 -9 -7.5 -11
s-11.833 -3 -20.5 -3c-22.667 0 -39.5 -7.66699 -50.5 -23s-16.5 -40.333 -16.5 -75v-65h308v-533c0 -20.667 -2.83301 -40 -8.5 -58s-14.167 -33.5 -25.5 -46.5s-26.333 -23.5 -45 -31.5s-41.334 -12 -68.001 -12c-10.667 0 -20.667 0.833008 -30 2.5
s-18.333 4.16699 -27 7.5l3 52c1.33301 6.66699 4.33301 10 9 10h27c25.333 0 43.333 6 54 18s16 31.333 16 58v464h-210v-430h-95zM613.001 583.999h-62.999c-4 0 -7.83301 0.666992 -11.5 2s-7.5 4 -11.5 8l-60 64c-2.66699 2.66699 -5.33398 6 -8.00098 10l-9 -10
l-60 -64c-7.33301 -6.66699 -15 -10 -23 -10h-66l112 134h88z" />
    <glyph glyph-name="f_lcaron.liga" unicode="f&#x13e;" horiz-adv-x="593" 
d="M103 0l-0.000976562 429l-54 7c-8 1.33301 -14.167 3.83301 -18.5 7.5c-4.33301 4.33301 -6.5 9.83301 -6.5 16.5v39h79v25c0 28 4.33301 54.667 13 80s21.667 47.333 39 66s39.166 33.667 65.499 45s56.833 17 91.5 17c26 0 51 -1 75 -3
c24.667 -2 48.334 -3.33301 71.001 -4h64v-725h-94v658c-18 0.666992 -36.167 1.5 -54.5 2.5s-34.166 1.5 -47.499 1.5c-42.667 0 -75.167 -12 -97.5 -36s-33.5 -58 -33.5 -102v-25h131v-69h-128v-430h-95zM671.999 738c8 0 12.834 -1.66699 14.501 -5s2.5 -7 2.5 -11
c0 -2.66699 -0.5 -7 -1.5 -13s-3 -13.833 -6 -23.5s-7.33301 -22 -13 -37s-12.834 -33.833 -21.501 -56.5c-4 -8 -8.33301 -13 -13 -15s-11.667 -3 -21 -3h-33l29 164h63z" />
    <glyph glyph-name="f_uni013C.liga" unicode="f&#x13c;" horiz-adv-x="593" 
d="M103 0l-0.000976562 429l-54 7c-8 1.33301 -14.167 3.83301 -18.5 7.5c-4.33301 4.33301 -6.5 9.83301 -6.5 16.5v39h79v25c0 28 4.33301 54.667 13 80s21.667 47.333 39 66s39.166 33.667 65.499 45s56.833 17 91.5 17c26 0 51 -1 75 -3
c24.667 -2 48.334 -3.33301 71.001 -4h64v-725h-94v658c-18 0.666992 -36.167 1.5 -54.5 2.5s-34.166 1.5 -47.499 1.5c-42.667 0 -75.167 -12 -97.5 -36s-33.5 -58 -33.5 -102v-25h131v-69h-128v-430h-95zM499.999 -48c8 0 12.834 -1.66504 14.501 -4.99805s2.5 -7 2.5 -11
c0 -3.33301 -0.333008 -7.83301 -1 -13.5s-2.33398 -12.834 -5.00098 -21.501s-6 -19.334 -10 -32.001s-9.33301 -27.667 -16 -45c-4 -8 -8.5 -13 -13.5 -15s-11.833 -3 -20.5 -3h-33l25 146h57z" />
    <glyph glyph-name="f_uni021B.liga" unicode="f&#x21b;" horiz-adv-x="688" 
d="M522 430l-0.00195312 -300c0 -20 5 -35 15 -45s23 -15 39 -15c9.33301 0 17.333 1 24 3s12.334 4.66699 17.001 8s8.66699 6 12 8s6.33301 3 9 3s5 -0.666992 7 -2s4 -3.33301 6 -6l28 -46c-16 -14.667 -34.833 -26 -56.5 -34s-44.5 -12 -68.5 -12
c-40.667 0 -71.834 11.333 -93.501 34s-32.5 55.334 -32.5 98.001v306h-230v-430h-96v429l-54 7c-8 1.33301 -14.167 3.83301 -18.5 7.5c-4.33301 4.33301 -6.5 9.83301 -6.5 16.5v39h79v47c0 29.333 4.33301 55.333 13 78s20.667 41.667 36 57s33.833 27 55.5 35
c22.333 8 46.833 12 73.5 12c10.667 0 21.334 -0.666992 32.001 -2s20.667 -3.66602 30 -6.99902l-2 -48c0 -4 -1.16699 -7.16699 -3.5 -9.5s-5.5 -3.83301 -9.5 -4.5s-8.66699 -1 -14 -1h-18c-15.333 0 -29.166 -2 -41.499 -6s-23 -10.333 -32 -19
s-15.833 -20.334 -20.5 -35.001s-7 -32.334 -7 -53.001v-44h237l21 154c1.33301 5.33301 4 9.5 8 12.5s8.66699 4.5 14 4.5h48v-171h145v-69h-145zM569.998 -48c8 0 12.834 -1.66504 14.501 -4.99805s2.5 -7 2.5 -11c0 -3.33301 -0.333008 -7.83301 -1 -13.5
s-2.33398 -12.834 -5.00098 -21.501s-6 -19.334 -10 -32.001s-9.33301 -27.667 -16 -45c-4 -8 -8.5 -13 -13.5 -15s-11.833 -3 -20.5 -3h-33l25 146h57z" />
    <glyph glyph-name="f_tcaron.liga" unicode="f&#x165;" horiz-adv-x="688" 
d="M522 430l-0.00195312 -300c0 -20 5 -35 15 -45s23 -15 39 -15c9.33301 0 17.333 1 24 3s12.334 4.66699 17.001 8s8.66699 6 12 8s6.33301 3 9 3s5 -0.666992 7 -2s4 -3.33301 6 -6l28 -46c-16 -14.667 -34.833 -26 -56.5 -34s-44.5 -12 -68.5 -12
c-40.667 0 -71.834 11.333 -93.501 34s-32.5 55.334 -32.5 98.001v306h-230v-430h-96v429l-54 7c-8 1.33301 -14.167 3.83301 -18.5 7.5c-4.33301 4.33301 -6.5 9.83301 -6.5 16.5v39h79v47c0 29.333 4.33301 55.333 13 78s20.667 41.667 36 57s33.833 27 55.5 35
c22.333 8 46.833 12 73.5 12c10.667 0 21.334 -0.666992 32.001 -2s20.667 -3.66602 30 -6.99902l-2 -48c0 -4 -1.16699 -7.16699 -3.5 -9.5s-5.5 -3.83301 -9.5 -4.5s-8.66699 -1 -14 -1h-18c-15.333 0 -29.166 -2 -41.499 -6s-23 -10.333 -32 -19
s-15.833 -20.334 -20.5 -35.001s-7 -32.334 -7 -53.001v-44h237l21 154c1.33301 5.33301 4 9.5 8 12.5s8.66699 4.5 14 4.5h48v-171h145v-69h-145zM718.998 738c8 0 12.834 -1.66699 14.501 -5s2.5 -7 2.5 -11c0 -2.66699 -0.5 -7 -1.5 -13s-3 -13.833 -6 -23.5
s-7.33301 -22 -13 -37s-12.834 -33.833 -21.501 -56.5c-4 -8 -8.33301 -13 -13 -15s-11.667 -3 -21 -3h-33l29 164h63z" />
    <glyph glyph-name="f_uni1ECB.liga" unicode="f&#x1ecb;" horiz-adv-x="577" 
d="M103 0l-0.00292969 429.001l-54 7c-8 1.33301 -14.167 3.83301 -18.5 7.5c-4.33301 4.33301 -6.5 9.83301 -6.5 16.5v39h79v25c0 30.667 4.83301 59.334 14.5 86.001s24.334 49.334 44.001 68.001s44.334 33.167 74.001 43.5s63.834 15.5 102.501 15.5
c12.667 0 25.834 -0.833008 39.501 -2.5s25.167 -3.83398 34.5 -6.50098l-2 -50c0 -3.33301 -1.33301 -5.83301 -4 -7.5s-5.83398 -2.83398 -9.50098 -3.50098s-8.16699 -0.833984 -13.5 -0.500977s-11.333 0.5 -18 0.5c-30 0 -55.667 -3 -77 -9s-39 -15.167 -53 -27.5
s-24.167 -27.5 -30.5 -45.5s-9.5 -39 -9.5 -63v-23h308v-499h-95v430h-210v-430h-95zM515.997 -123.999c0 -8 -1.66699 -15.333 -5 -22s-7.66602 -12.667 -12.999 -18s-11.666 -9.66602 -18.999 -12.999s-15 -5 -23 -5s-15.5 1.66699 -22.5 5s-13 7.66602 -18 12.999
s-9.16699 11.333 -12.5 18s-5 14 -5 22s1.66699 15.667 5 23s7.5 13.666 12.5 18.999s11 9.66602 18 12.999s14.5 5 22.5 5s15.667 -1.66699 23 -5s13.666 -7.66602 18.999 -12.999s9.66602 -11.666 12.999 -18.999s5 -15 5 -23z" />
    <glyph glyph-name="f_uni1E2D.liga" unicode="f&#x1e2d;" horiz-adv-x="577" 
d="M103 0l-0.00292969 429.001l-54 7c-8 1.33301 -14.167 3.83301 -18.5 7.5c-4.33301 4.33301 -6.5 9.83301 -6.5 16.5v39h79v25c0 30.667 4.83301 59.334 14.5 86.001s24.334 49.334 44.001 68.001s44.334 33.167 74.001 43.5s63.834 15.5 102.501 15.5
c12.667 0 25.834 -0.833008 39.501 -2.5s25.167 -3.83398 34.5 -6.50098l-2 -50c0 -3.33301 -1.33301 -5.83301 -4 -7.5s-5.83398 -2.83398 -9.50098 -3.50098s-8.16699 -0.833984 -13.5 -0.500977s-11.333 0.5 -18 0.5c-30 0 -55.667 -3 -77 -9s-39 -15.167 -53 -27.5
s-24.167 -27.5 -30.5 -45.5s-9.5 -39 -9.5 -63v-23h308v-499h-95v430h-210v-430h-95zM508.997 -85.999c12 0 21 3.33398 27 10.001c6.66699 6.66699 10 17.334 10 32.001h58c0 -16 -2.33301 -30.833 -7 -44.5s-11 -25.334 -19 -35.001s-17.5 -17.167 -28.5 -22.5
c-11.667 -5.33301 -24.167 -8 -37.5 -8c-12 0 -23 2.33301 -33 7s-19.333 10 -28 16s-17.167 11.333 -25.5 16s-16.166 7 -23.499 7c-23.333 0 -35.333 -14.667 -36 -44h-59c0 16 2.16699 31 6.5 45s10.666 25.667 18.999 35s18 16.666 29 21.999s23.167 8 36.5 8
c12 0 23.167 -2.33301 33.5 -7s20 -9.66699 29 -15s17.333 -10.333 25 -15s15.5 -7 23.5 -7z" />
    <glyph glyph-name="f_uni0268.liga" unicode="f&#x268;" horiz-adv-x="596" 
d="M408 283l-0.00292969 147.001h-210v-430h-95v429l-54 7c-8 1.33301 -14.167 3.83301 -18.5 7.5c-4.33301 4.33301 -6.5 9.83301 -6.5 16.5v39h79v25c0 30.667 4.83301 59.334 14.5 86.001s24.334 49.334 44.001 68.001s44.334 33.167 74.001 43.5
s63.834 15.5 102.501 15.5c12.667 0 25.834 -0.833008 39.501 -2.5s25.167 -3.83398 34.5 -6.50098l-2 -50c0 -3.33301 -1.33301 -5.83301 -4 -7.5s-5.83398 -2.83398 -9.50098 -3.50098s-8.16699 -0.833984 -13.5 -0.500977s-11.333 0.5 -18 0.5c-30 0 -55.667 -3 -77 -9
s-39 -15.167 -53 -27.5s-24.167 -27.5 -30.5 -45.5s-9.5 -39 -9.5 -63v-23h308v-216h77v-69h-77v-214h-95v214h-74v69h74z" />
    <glyph glyph-name="f_iacute.liga" unicode="f&#xed;" horiz-adv-x="577" 
d="M103 0v428.999l-54 7c-8 1.33301 -14.167 3.83301 -18.5 7.5c-4.33301 4.33301 -6.5 9.83301 -6.5 16.5v39h79v65c0 54.667 12.833 96.334 38.5 125.001s61.5 43 107.5 43c8 0 15.333 -0.333008 22 -1s13 -1.66699 19 -3v-52c0 -5.33301 -2.5 -9 -7.5 -11
s-11.833 -3 -20.5 -3c-22.667 0 -39.5 -7.66699 -50.5 -23s-16.5 -40.333 -16.5 -75v-65h308v-499h-95v430h-210v-430h-95zM605 725.999l-117.999 -130c-4.66699 -5.33301 -9.33398 -9 -14.001 -11s-10.667 -3 -18 -3h-57l74 121c4.66699 8 9.66699 13.833 15 17.5
s14 5.5 26 5.5h92z" />
    <glyph glyph-name="f_uni1EC9.liga" unicode="f&#x1ec9;" horiz-adv-x="577" 
d="M103 0v428.999l-54 7c-8 1.33301 -14.167 3.83301 -18.5 7.5c-4.33301 4.33301 -6.5 9.83301 -6.5 16.5v39h79v65c0 54.667 12.833 96.334 38.5 125.001s61.5 43 107.5 43c8 0 15.333 -0.333008 22 -1s13 -1.66699 19 -3v-52c0 -5.33301 -2.5 -9 -7.5 -11
s-11.833 -3 -20.5 -3c-22.667 0 -39.5 -7.66699 -50.5 -23s-16.5 -40.333 -16.5 -75v-65h308v-499h-95v430h-210v-430h-95zM360 711.999c10 8 23.167 14.166 39.5 18.499s33.833 6.5 52.5 6.5c30.667 0 53.334 -6.16699 68.001 -18.5s22 -27.833 22 -46.5
c0 -16 -5.5 -30.167 -16.5 -42.5s-25.167 -21.833 -42.5 -28.5l-8 -41h-46v68c17.333 2 29.5 6.16699 36.5 12.5s10.5 13.5 10.5 21.5s-2.83301 14.667 -8.5 20s-14.834 8 -27.501 8c-6.66699 0 -12.5 -0.666992 -17.5 -2s-9.5 -2.83301 -13.5 -4.5
s-7.5 -3.16699 -10.5 -4.5s-5.83301 -2 -8.5 -2s-5 0.833008 -7 2.5s-3.66699 3.83398 -5 6.50098z" />
    <glyph glyph-name="f_f_uni1ECB.liga" unicode="ff&#x1ecb;" horiz-adv-x="893" 
d="M103 0l-0.00292969 429.003l-54 7c-8 1.33301 -14.167 3.83301 -18.5 7.5c-4.33301 4.33301 -6.5 9.83301 -6.5 16.5v39h79v39c0 29.333 4.16699 55.333 12.5 78s20.166 41.667 35.499 57s34 27 56 35s46.333 12 73 12c23.333 0 44.333 -3 63 -9l-2 -48
c0 -4 -1.16699 -7.16699 -3.5 -9.5s-5.5 -3.83301 -9.5 -4.5s-8.66699 -1 -14 -1h-18c-15.333 0 -29.166 -2 -41.499 -6s-23 -10.333 -32 -19s-15.833 -20.334 -20.5 -35.001s-7 -32.334 -7 -53.001v-36h225v25c0 30.667 4.83301 59.334 14.5 86.001
s24.334 49.334 44.001 68.001s44.167 33.167 73.5 43.5s63.333 15.5 102 15.5c12.667 0 25.834 -0.833008 39.501 -2.5s25.5 -3.83398 35.5 -6.50098l-3 -50c0 -3.33301 -1.16699 -5.83301 -3.5 -7.5s-5.33301 -2.83398 -9 -3.50098s-8.16699 -0.833984 -13.5 -0.500977
s-11.666 0.5 -18.999 0.5c-60 0 -103.167 -12.167 -129.5 -36.5s-39.5 -60.5 -39.5 -108.5v-23h308v-499h-96v430h-210v-430h-94v430h-222v-430h-95zM833.997 -123.997c0 -8 -1.66699 -15.333 -5 -22s-7.66602 -12.667 -12.999 -18s-11.666 -9.66602 -18.999 -12.999
s-15 -5 -23 -5s-15.5 1.66699 -22.5 5s-13 7.66602 -18 12.999s-9.16699 11.333 -12.5 18s-5 14 -5 22s1.66699 15.667 5 23s7.5 13.666 12.5 18.999s11 9.66602 18 12.999s14.5 5 22.5 5s15.667 -1.66699 23 -5s13.666 -7.66602 18.999 -12.999
s9.66602 -11.666 12.999 -18.999s5 -15 5 -23z" />
    <glyph glyph-name="f_f_uni1E2D.liga" unicode="ff&#x1e2d;" horiz-adv-x="893" 
d="M103 0l-0.00292969 429.003l-54 7c-8 1.33301 -14.167 3.83301 -18.5 7.5c-4.33301 4.33301 -6.5 9.83301 -6.5 16.5v39h79v39c0 29.333 4.16699 55.333 12.5 78s20.166 41.667 35.499 57s34 27 56 35s46.333 12 73 12c23.333 0 44.333 -3 63 -9l-2 -48
c0 -4 -1.16699 -7.16699 -3.5 -9.5s-5.5 -3.83301 -9.5 -4.5s-8.66699 -1 -14 -1h-18c-15.333 0 -29.166 -2 -41.499 -6s-23 -10.333 -32 -19s-15.833 -20.334 -20.5 -35.001s-7 -32.334 -7 -53.001v-36h225v25c0 30.667 4.83301 59.334 14.5 86.001
s24.334 49.334 44.001 68.001s44.167 33.167 73.5 43.5s63.333 15.5 102 15.5c12.667 0 25.834 -0.833008 39.501 -2.5s25.5 -3.83398 35.5 -6.50098l-3 -50c0 -3.33301 -1.16699 -5.83301 -3.5 -7.5s-5.33301 -2.83398 -9 -3.50098s-8.16699 -0.833984 -13.5 -0.500977
s-11.666 0.5 -18.999 0.5c-60 0 -103.167 -12.167 -129.5 -36.5s-39.5 -60.5 -39.5 -108.5v-23h308v-499h-96v430h-210v-430h-94v430h-222v-430h-95zM826.997 -85.9971c12 0 21 3.33398 27 10.001c6.66699 6.66699 10 17.334 10 32.001h58c0 -16 -2.33301 -30.833 -7 -44.5
s-11 -25.334 -19 -35.001s-17.5 -17.167 -28.5 -22.5c-11.667 -5.33301 -24.167 -8 -37.5 -8c-12 0 -23 2.33301 -33 7s-19.333 10 -28 16s-17.167 11.333 -25.5 16s-16.166 7 -23.499 7c-23.333 0 -35.333 -14.667 -36 -44h-59c0 16 2.16699 31 6.5 45
s10.666 25.667 18.999 35s18 16.666 29 21.999s23.167 8 36.5 8c12 0 23.167 -2.33301 33.5 -7s20 -9.66699 29 -15s17.333 -10.333 25 -15s15.5 -7 23.5 -7z" />
    <glyph glyph-name="f_f_uni0268.liga" unicode="ff&#x268;" horiz-adv-x="914" 
d="M724 283l-0.00292969 147.003h-210v-430h-94v430h-222v-430h-95v429l-54 7c-8 1.33301 -14.167 3.83301 -18.5 7.5c-4.33301 4.33301 -6.5 9.83301 -6.5 16.5v39h79v39c0 29.333 4.16699 55.333 12.5 78s20.166 41.667 35.499 57s34 27 56 35s46.333 12 73 12
c23.333 0 44.333 -3 63 -9l-2 -48c0 -4 -1.16699 -7.16699 -3.5 -9.5s-5.5 -3.83301 -9.5 -4.5s-8.66699 -1 -14 -1h-18c-15.333 0 -29.166 -2 -41.499 -6s-23 -10.333 -32 -19s-15.833 -20.334 -20.5 -35.001s-7 -32.334 -7 -53.001v-36h225v25
c0 30.667 4.83301 59.334 14.5 86.001s24.334 49.334 44.001 68.001s44.167 33.167 73.5 43.5s63.333 15.5 102 15.5c12.667 0 25.834 -0.833008 39.501 -2.5s25.5 -3.83398 35.5 -6.50098l-3 -50c0 -3.33301 -1.16699 -5.83301 -3.5 -7.5s-5.33301 -2.83398 -9 -3.50098
s-8.16699 -0.833984 -13.5 -0.500977s-11.666 0.5 -18.999 0.5c-60 0 -103.167 -12.167 -129.5 -36.5s-39.5 -60.5 -39.5 -108.5v-23h308v-216h76v-69h-76v-214h-96v214h-74v69h74z" />
    <glyph glyph-name="f_f_iacute.liga" unicode="ff&#xed;" horiz-adv-x="893" 
d="M103 0l0.000976562 429.001l-54 7c-8 1.33301 -14.167 3.83301 -18.5 7.5c-4.33301 4.33301 -6.5 9.83301 -6.5 16.5v39h79v39c0 29.333 4.16699 55.333 12.5 78s20.166 41.667 35.499 57s34 27 56 35s46.333 12 73 12c23.333 0 44.333 -3 63 -9l-2 -48
c0 -4 -1.16699 -7.16699 -3.5 -9.5s-5.5 -3.83301 -9.5 -4.5s-8.66699 -1 -14 -1h-18c-15.333 0 -29.166 -2 -41.499 -6s-23 -10.333 -32 -19s-15.833 -20.334 -20.5 -35.001s-7 -32.334 -7 -53.001v-36h225v65c0 54.667 12.667 96.334 38 125.001s61.333 43 108 43
c8 0 15.333 -0.333008 22 -1s12.667 -1.66699 18 -3v-52c0 -5.33301 -2.33301 -9 -7 -11s-11.667 -3 -21 -3c-22.667 0 -39.334 -7.66699 -50.001 -23s-16 -40.333 -16 -75v-65h308v-499h-96v430h-210v-430h-94v430h-222v-430h-95zM924.001 726.001l-117.999 -130
c-4.66699 -5.33301 -9.33398 -9 -14.001 -11s-10.667 -3 -18 -3h-57l74 121c4.66699 8 9.66699 13.833 15 17.5s14 5.5 26 5.5h92z" />
    <glyph glyph-name="f_f_uni1EC9.liga" unicode="ff&#x1ec9;" horiz-adv-x="888" 
d="M103 0l0.000976562 429.001l-54 7c-8 1.33301 -14.167 3.83301 -18.5 7.5c-4.33301 4.33301 -6.5 9.83301 -6.5 16.5v39h79v39c0 29.333 4.16699 55.333 12.5 78s20.166 41.667 35.499 57s34 27 56 35s46.333 12 73 12c23.333 0 44.333 -3 63 -9l-2 -48
c0 -4 -1.16699 -7.16699 -3.5 -9.5s-5.5 -3.83301 -9.5 -4.5s-8.66699 -1 -14 -1h-18c-15.333 0 -29.166 -2 -41.499 -6s-23 -10.333 -32 -19s-15.833 -20.334 -20.5 -35.001s-7 -32.334 -7 -53.001v-36h225v65c0 54.667 12.667 96.334 38 125.001s61.333 43 108 43
c8 0 15.333 -0.333008 22 -1s12.667 -1.66699 18 -3v-52c0 -5.33301 -2.33301 -9 -7 -11s-11.667 -3 -21 -3c-22.667 0 -39.334 -7.66699 -50.001 -23s-16 -40.333 -16 -75v-65h308v-499h-96v430h-210v-430h-94v430h-222v-430h-95zM678.001 712.001
c10 8 23.167 14.166 39.5 18.499s33.833 6.5 52.5 6.5c30.667 0 53.334 -6.16699 68.001 -18.5s22 -27.833 22 -46.5c0 -16 -5.5 -30.167 -16.5 -42.5s-25.167 -21.833 -42.5 -28.5l-8 -41h-46v68c17.333 2 29.5 6.16699 36.5 12.5s10.5 13.5 10.5 21.5
s-2.83301 14.667 -8.5 20s-14.834 8 -27.501 8c-6.66699 0 -12.5 -0.666992 -17.5 -2s-9.5 -2.83301 -13.5 -4.5s-7.5 -3.16699 -10.5 -4.5s-5.83301 -2 -8.5 -2s-5 0.833008 -7 2.5s-3.66699 3.83398 -5 6.50098z" />
    <glyph glyph-name="f_lacute.liga" unicode="f&#x13a;" horiz-adv-x="593" 
d="M103 0l-0.000976562 429l-54 7c-8 1.33301 -14.167 3.83301 -18.5 7.5c-4.33301 4.33301 -6.5 9.83301 -6.5 16.5v39h79v25c0 28 4.33301 54.667 13 80s21.667 47.333 39 66s39.166 33.667 65.499 45s56.833 17 91.5 17c26 0 51 -1 75 -3
c24.667 -2 48.334 -3.33301 71.001 -4h64v-725h-94v658c-18 0.666992 -36.167 1.5 -54.5 2.5s-34.166 1.5 -47.499 1.5c-42.667 0 -75.167 -12 -97.5 -36s-33.5 -58 -33.5 -102v-25h131v-69h-128v-430h-95zM667.999 927l-162 -142.999
c-5.33301 -4.66699 -10.333 -7.66699 -15 -9s-11 -2 -19 -2h-68l114 137c2.66699 4 5.33398 7 8.00098 9s5.66699 3.66699 9 5s7.16602 2.16602 11.499 2.49902c5 0.333008 10.167 0.5 15.5 0.5h106z" />
    <glyph glyph-name="t_i.liga" unicode="ti" horiz-adv-x="620" 
d="M547 499l-0.000976562 -499.001h-95v430h-257v-300c0 -20 4.83301 -35 14.5 -45s22.5 -15 38.5 -15c9.33301 0 17.333 1 24 3s12.334 4.66699 17.001 8s8.66699 6 12 8s6.33301 3 9 3s5 -0.666992 7 -2s4.33301 -3.33301 7 -6l28 -46c-16 -14.667 -35 -26 -57 -34
s-44.667 -12 -68 -12c-40.667 0 -72 11.333 -94 34s-33 55.334 -33 98.001v306h-60c-5.33301 0 -9.83301 1.66699 -13.5 5s-5.5 8.33301 -5.5 15v38l83 12l21 153c1.33301 5.33301 3.83301 9.5 7.5 12.5s8.5 4.5 14.5 4.5h48v-171h352zM567.999 667.999
c0 -9.33301 -1.66699 -17.8311 -5 -25.498s-8 -14.334 -14 -20.001s-13.167 -10.334 -21.5 -14.001c-7.66699 -3.66699 -16.167 -5.5 -25.5 -5.5s-18 1.83301 -26 5.5s-14.833 8.33398 -20.5 14.001s-10.334 12.5 -14.001 20.5c-3.66699 7.33301 -5.5 15.666 -5.5 24.999
s1.83301 18 5.5 26s8.33398 15 14.001 21s12.5 10.833 20.5 14.5s16.667 5.5 26 5.5s18 -1.83301 26 -5.5s15 -8.5 21 -14.5s10.667 -13 14 -21s5 -16.667 5 -26z" />
    <glyph glyph-name="t_igrave.liga" unicode="t&#xec;" horiz-adv-x="620" 
d="M547 499l-0.000976562 -499.001h-95v430h-257v-300c0 -20 4.83301 -35 14.5 -45s22.5 -15 38.5 -15c9.33301 0 17.333 1 24 3s12.334 4.66699 17.001 8s8.66699 6 12 8s6.33301 3 9 3s5 -0.666992 7 -2s4.33301 -3.33301 7 -6l28 -46c-16 -14.667 -35 -26 -57 -34
s-44.667 -12 -68 -12c-40.667 0 -72 11.333 -94 34s-33 55.334 -33 98.001v306h-60c-5.33301 0 -9.83301 1.66699 -13.5 5s-5.5 8.33301 -5.5 15v38l83 12l21 153c1.33301 5.33301 3.83301 9.5 7.5 12.5s8.5 4.5 14.5 4.5h48v-171h352zM452.999 725.999
c11.333 0 19.668 -2 25.001 -6s10.666 -9.66699 15.999 -17l74 -121h-54c-7.33301 0 -13.5 1 -18.5 3s-9.83301 5.66699 -14.5 11l-117 130h89z" />
    <glyph glyph-name="t_iacute.liga" unicode="t&#xed;" horiz-adv-x="619" 
d="M546 499l-0.000976562 -499.001h-95v430h-257v-300c0 -20 4.83301 -35 14.5 -45s22.5 -15 38.5 -15c9.33301 0 17.333 1 24 3s12.334 4.66699 17.001 8s8.66699 6 12 8s6.33301 3 9 3s5 -0.666992 7 -2s4.33301 -3.33301 7 -6l28 -46c-16 -14.667 -35 -26 -57 -34
s-44.667 -12 -68 -12c-40.667 0 -72 11.333 -94 34s-33 55.334 -33 98.001v306h-60c-5.33301 0 -9.83301 1.66699 -13.5 5s-5.5 8.33301 -5.5 15v38l83 12l21 153c1.33301 5.33301 3.83301 9.5 7.5 12.5s8.5 4.5 14.5 4.5h48v-171h352zM651.999 725.999l-117.999 -130
c-4.66699 -5.33301 -9.33398 -9 -14.001 -11s-10.667 -3 -18 -3h-57l74 121c4.66699 8 9.66699 13.833 15 17.5s14 5.5 26 5.5h92z" />
    <glyph glyph-name="t_icircumflex.liga" unicode="t&#xee;" horiz-adv-x="620" 
d="M547 499l-0.000976562 -499.001h-95v430h-257v-300c0 -20 4.83301 -35 14.5 -45s22.5 -15 38.5 -15c9.33301 0 17.333 1 24 3s12.334 4.66699 17.001 8s8.66699 6 12 8s6.33301 3 9 3s5 -0.666992 7 -2s4.33301 -3.33301 7 -6l28 -46c-16 -14.667 -35 -26 -57 -34
s-44.667 -12 -68 -12c-40.667 0 -72 11.333 -94 34s-33 55.334 -33 98.001v306h-60c-5.33301 0 -9.83301 1.66699 -13.5 5s-5.5 8.33301 -5.5 15v38l83 12l21 153c1.33301 5.33301 3.83301 9.5 7.5 12.5s8.5 4.5 14.5 4.5h48v-171h352zM657.999 583.999h-62.999
c-4 0 -7.83301 0.666992 -11.5 2s-7.5 4 -11.5 8l-60 64c-2.66699 2.66699 -5.33398 6 -8.00098 10l-9 -10l-60 -64c-7.33301 -6.66699 -15 -10 -23 -10h-66l112 134h88z" />
    <glyph glyph-name="t_idieresis.liga" unicode="t&#xef;" horiz-adv-x="620" 
d="M547 499l-0.000976562 -499.001h-95v430h-257v-300c0 -20 4.83301 -35 14.5 -45s22.5 -15 38.5 -15c9.33301 0 17.333 1 24 3s12.334 4.66699 17.001 8s8.66699 6 12 8s6.33301 3 9 3s5 -0.666992 7 -2s4.33301 -3.33301 7 -6l28 -46c-16 -14.667 -35 -26 -57 -34
s-44.667 -12 -68 -12c-40.667 0 -72 11.333 -94 34s-33 55.334 -33 98.001v306h-60c-5.33301 0 -9.83301 1.66699 -13.5 5s-5.5 8.33301 -5.5 15v38l83 12l21 153c1.33301 5.33301 3.83301 9.5 7.5 12.5s8.5 4.5 14.5 4.5h48v-171h352zM481.999 643.999
c0 -8 -1.66699 -15.333 -5 -22s-7.66602 -12.667 -12.999 -18s-11.666 -9.33301 -18.999 -12s-15 -4 -23 -4s-15.333 1.33301 -22 4s-12.667 6.66699 -18 12s-9.66602 11.333 -12.999 18s-5 14 -5 22s1.66699 15.667 5 23s7.66602 13.666 12.999 18.999
s11.333 9.66602 18 12.999s14 5 22 5s15.667 -1.66699 23 -5s13.666 -7.66602 18.999 -12.999s9.66602 -11.666 12.999 -18.999s5 -15 5 -23zM639.999 643.999c0 -8 -1.66699 -15.333 -5 -22s-7.66602 -12.667 -12.999 -18s-11.5 -9.33301 -18.5 -12s-14.5 -4 -22.5 -4
s-15.5 1.33301 -22.5 4s-13.167 6.66699 -18.5 12s-9.66602 11.333 -12.999 18s-5 14 -5 22s1.66699 15.667 5 23s7.66602 13.666 12.999 18.999s11.5 9.66602 18.5 12.999s14.5 5 22.5 5s15.5 -1.66699 22.5 -5s13.167 -7.66602 18.5 -12.999
s9.66602 -11.666 12.999 -18.999s5 -15 5 -23z" />
    <glyph glyph-name="t_imacron.liga" unicode="t&#x12b;" horiz-adv-x="620" 
d="M547 499l-0.000976562 -499.001h-95v430h-257v-300c0 -20 4.83301 -35 14.5 -45s22.5 -15 38.5 -15c9.33301 0 17.333 1 24 3s12.334 4.66699 17.001 8s8.66699 6 12 8s6.33301 3 9 3s5 -0.666992 7 -2s4.33301 -3.33301 7 -6l28 -46c-16 -14.667 -35 -26 -57 -34
s-44.667 -12 -68 -12c-40.667 0 -72 11.333 -94 34s-33 55.334 -33 98.001v306h-60c-5.33301 0 -9.83301 1.66699 -13.5 5s-5.5 8.33301 -5.5 15v38l83 12l21 153c1.33301 5.33301 3.83301 9.5 7.5 12.5s8.5 4.5 14.5 4.5h48v-171h352zM357.999 675.999h288v-62h-288v62z
" />
    <glyph glyph-name="t_itilde.liga" unicode="t&#x129;" horiz-adv-x="620" 
d="M546 499l-0.000976562 -499.001h-95v430h-257v-300c0 -20 4.83301 -35 14.5 -45s22.5 -15 38.5 -15c9.33301 0 17.333 1 24 3s12.334 4.66699 17.001 8s8.66699 6 12 8s6.33301 3 9 3s5 -0.666992 7 -2s4.33301 -3.33301 7 -6l28 -46c-16 -14.667 -35 -26 -57 -34
s-44.667 -12 -68 -12c-40.667 0 -72 11.333 -94 34s-33 55.334 -33 98.001v306h-60c-5.33301 0 -9.83301 1.66699 -13.5 5s-5.5 8.33301 -5.5 15v38l83 12l21 153c1.33301 5.33301 3.83301 9.5 7.5 12.5s8.5 4.5 14.5 4.5h48v-171h352zM556.999 665.999
c12 0 21 3.33398 27 10.001c6.66699 6.66699 10 17.334 10 32.001h58c0 -16 -2.33301 -30.833 -7 -44.5s-11 -25.334 -19 -35.001s-17.5 -17.167 -28.5 -22.5c-11.667 -5.33301 -24.167 -8 -37.5 -8c-12 0 -23 2.33301 -33 7s-19.333 10 -28 16s-17.167 11.333 -25.5 16
s-16.166 7 -23.499 7c-23.333 0 -35.333 -14.667 -36 -44h-59c0 16 2.16699 31 6.5 45s10.666 25.667 18.999 35s18 16.666 29 21.999s23.167 8 36.5 8c12 0 23.167 -2.33301 33.5 -7s20 -9.66699 29 -15s17.333 -10.333 25 -15s15.5 -7 23.5 -7z" />
    <glyph glyph-name="t_ibreve.liga" unicode="t&#x12d;" horiz-adv-x="620" 
d="M547 499l-0.000976562 -499.001h-95v430h-257v-300c0 -20 4.83301 -35 14.5 -45s22.5 -15 38.5 -15c9.33301 0 17.333 1 24 3s12.334 4.66699 17.001 8s8.66699 6 12 8s6.33301 3 9 3s5 -0.666992 7 -2s4.33301 -3.33301 7 -6l28 -46c-16 -14.667 -35 -26 -57 -34
s-44.667 -12 -68 -12c-40.667 0 -72 11.333 -94 34s-33 55.334 -33 98.001v306h-60c-5.33301 0 -9.83301 1.66699 -13.5 5s-5.5 8.33301 -5.5 15v38l83 12l21 153c1.33301 5.33301 3.83301 9.5 7.5 12.5s8.5 4.5 14.5 4.5h48v-171h352zM501.999 581.999
c-26 0 -47.833 3.66602 -65.5 10.999s-32 17 -43 29s-18.833 26.333 -23.5 43s-7 34.334 -7 53.001h67c0 -10.667 1 -20.667 3 -30s5.83301 -17.333 11.5 -24s13.167 -11.667 22.5 -15s21 -5 35 -5s25.667 1.66699 35 5s16.833 8.33301 22.5 15s9.5 14.5 11.5 23.5
c2 9.66699 3 19.834 3 30.501h67c0 -18.667 -2.33301 -36.334 -7 -53.001s-12.5 -31 -23.5 -43s-25.333 -21.667 -43 -29s-39.5 -11 -65.5 -11z" />
    <glyph glyph-name="t_uni01D0.liga" unicode="t&#x1d0;" horiz-adv-x="620" 
d="M547 499l-0.000976562 -499.001h-95v430h-257v-300c0 -20 4.83301 -35 14.5 -45s22.5 -15 38.5 -15c9.33301 0 17.333 1 24 3s12.334 4.66699 17.001 8s8.66699 6 12 8s6.33301 3 9 3s5 -0.666992 7 -2s4.33301 -3.33301 7 -6l28 -46c-16 -14.667 -35 -26 -57 -34
s-44.667 -12 -68 -12c-40.667 0 -72 11.333 -94 34s-33 55.334 -33 98.001v306h-60c-5.33301 0 -9.83301 1.66699 -13.5 5s-5.5 8.33301 -5.5 15v38l83 12l21 153c1.33301 5.33301 3.83301 9.5 7.5 12.5s8.5 4.5 14.5 4.5h48v-171h352zM345.999 717.999h65.999
c4 0 7.83301 -0.833008 11.5 -2.5s6.5 -3.5 8.5 -5.5l62 -66l9 -10l9 10l62 66c2.66699 1.33301 5.83398 3 9.50098 5s7.5 3 11.5 3h63l-112 -134h-88z" />
    <glyph glyph-name="t_uni1E2D.liga" unicode="t&#x1e2d;" horiz-adv-x="620" 
d="M546 499l-0.000976562 -499.001h-95v430h-257v-300c0 -20 4.83301 -35 14.5 -45s22.5 -15 38.5 -15c9.33301 0 17.333 1 24 3s12.334 4.66699 17.001 8s8.66699 6 12 8s6.33301 3 9 3s5 -0.666992 7 -2s4.33301 -3.33301 7 -6l28 -46c-16 -14.667 -35 -26 -57 -34
s-44.667 -12 -68 -12c-40.667 0 -72 11.333 -94 34s-33 55.334 -33 98.001v306h-60c-5.33301 0 -9.83301 1.66699 -13.5 5s-5.5 8.33301 -5.5 15v38l83 12l21 153c1.33301 5.33301 3.83301 9.5 7.5 12.5s8.5 4.5 14.5 4.5h48v-171h352zM567.999 667.999
c0 -9.33301 -1.66699 -17.8311 -5 -25.498s-8 -14.334 -14 -20.001s-13.167 -10.334 -21.5 -14.001c-7.66699 -3.66699 -16.167 -5.5 -25.5 -5.5s-18 1.83301 -26 5.5s-14.833 8.33398 -20.5 14.001s-10.334 12.5 -14.001 20.5c-3.66699 7.33301 -5.5 15.666 -5.5 24.999
s1.83301 18 5.5 26s8.33398 15 14.001 21s12.5 10.833 20.5 14.5s16.667 5.5 26 5.5s18 -1.83301 26 -5.5s15 -8.5 21 -14.5s10.667 -13 14 -21s5 -16.667 5 -26zM553.999 -85.999c12 0 21 3.33398 27 10.001c6.66699 6.66699 10 17.334 10 32.001h58
c0 -16 -2.33301 -30.833 -7 -44.5s-11 -25.334 -19 -35.001s-17.5 -17.167 -28.5 -22.5c-11.667 -5.33301 -24.167 -8 -37.5 -8c-12 0 -23 2.33301 -33 7s-19.333 10 -28 16s-17.167 11.333 -25.5 16s-16.166 7 -23.499 7c-23.333 0 -35.333 -14.667 -36 -44h-59
c0 16 2.16699 31 6.5 45s10.666 25.667 18.999 35s18 16.666 29 21.999s23.167 8 36.5 8c12 0 23.167 -2.33301 33.5 -7s20 -9.66699 29 -15s17.333 -10.333 25 -15s15.5 -7 23.5 -7z" />
    <glyph glyph-name="t_uni1E2F.liga" unicode="t&#x1e2f;" horiz-adv-x="619" 
d="M546 499l-0.000976562 -499.001h-95v430h-257v-300c0 -20 4.83301 -35 14.5 -45s22.5 -15 38.5 -15c9.33301 0 17.333 1 24 3s12.334 4.66699 17.001 8s8.66699 6 12 8s6.33301 3 9 3s5 -0.666992 7 -2s4.33301 -3.33301 7 -6l28 -46c-16 -14.667 -35 -26 -57 -34
s-44.667 -12 -68 -12c-40.667 0 -72 11.333 -94 34s-33 55.334 -33 98.001v306h-60c-5.33301 0 -9.83301 1.66699 -13.5 5s-5.5 8.33301 -5.5 15v38l83 12l21 153c1.33301 5.33301 3.83301 9.5 7.5 12.5s8.5 4.5 14.5 4.5h48v-171h352zM673.999 883.999l-117.999 -130
c-4.66699 -5.33301 -9.33398 -9 -14.001 -11s-10.667 -3 -18 -3h-57l74 121c4.66699 8 9.66699 13.833 15 17.5s14 5.5 26 5.5h92zM464 643.999c0 -8 -1.66602 -15.333 -4.99902 -22s-7.66602 -12.667 -12.999 -18s-11.5 -9.33301 -18.5 -12s-14.5 -4 -22.5 -4
s-15.5 1.33301 -22.5 4s-13 6.66699 -18 12s-9 11.333 -12 18s-4.5 14 -4.5 22s1.5 15.667 4.5 23s7 13.666 12 18.999s11.167 9.66602 18.5 12.999s14.666 5 21.999 5c8 0 15.5 -1.66699 22.5 -5s13.167 -7.66602 18.5 -12.999s9.66602 -11.666 12.999 -18.999s5 -15 5 -23
zM656.001 643.999c0 -8 -1.5 -15.333 -4.5 -22s-7 -12.667 -12 -18s-11.167 -9.33301 -18.5 -12s-15 -4 -23 -4s-15.5 1.33301 -22.5 4s-13.167 6.66699 -18.5 12s-9.5 11.333 -12.5 18s-4.5 14 -4.5 22s1.5 15.667 4.5 23s7.16699 13.666 12.5 18.999
s11.5 9.66602 18.5 12.999s14.5 5 22.5 5s15.667 -1.66699 23 -5s13.5 -7.66602 18.5 -12.999s9 -11.666 12 -18.999s4.5 -15 4.5 -23z" />
    <glyph glyph-name="t_uni0268.liga" unicode="t&#x268;" horiz-adv-x="644" 
d="M452 283l-0.000976562 146.999h-257v-300c0 -20 4.83301 -35 14.5 -45s22.5 -15 38.5 -15c9.33301 0 17.333 1 24 3s12.334 4.66699 17.001 8s8.66699 6 12 8s6.33301 3 9 3s5 -0.666992 7 -2s4.33301 -3.33301 7 -6l28 -46c-16 -14.667 -35 -26 -57 -34
s-44.667 -12 -68 -12c-40.667 0 -72 11.333 -94 34s-33 55.334 -33 98.001v306h-60c-5.33301 0 -9.83301 1.66699 -13.5 5s-5.5 8.33301 -5.5 15v38l83 12l21 153c1.33301 5.33301 3.83301 9.5 7.5 12.5s8.5 4.5 14.5 4.5h48v-171h352v-216h79v-69h-79v-214h-95v214h-72v69
h72zM568.999 667.999c0 -9.33301 -1.83301 -17.8311 -5.5 -25.498s-8.5 -14.334 -14.5 -20.001s-13 -10.334 -21 -14.001s-16.667 -5.5 -26 -5.5s-17.833 1.83301 -25.5 5.5s-14.334 8.33398 -20.001 14.001s-10.334 12.5 -14.001 20.5
c-3.66699 7.33301 -5.5 15.666 -5.5 24.999s1.83301 18 5.5 26s8.33398 15 14.001 21s12.334 10.833 20.001 14.5s16.167 5.5 25.5 5.5s18 -1.83301 26 -5.5s15 -8.5 21 -14.5s10.833 -13 14.5 -21s5.5 -16.667 5.5 -26z" />
    <glyph glyph-name="t_uni020B.liga" unicode="t&#x20b;" horiz-adv-x="620" 
d="M547 499l-0.000976562 -499.001h-95v430h-257v-300c0 -20 4.83301 -35 14.5 -45s22.5 -15 38.5 -15c9.33301 0 17.333 1 24 3s12.334 4.66699 17.001 8s8.66699 6 12 8s6.33301 3 9 3s5 -0.666992 7 -2s4.33301 -3.33301 7 -6l28 -46c-16 -14.667 -35 -26 -57 -34
s-44.667 -12 -68 -12c-40.667 0 -72 11.333 -94 34s-33 55.334 -33 98.001v306h-60c-5.33301 0 -9.83301 1.66699 -13.5 5s-5.5 8.33301 -5.5 15v38l83 12l21 153c1.33301 5.33301 3.83301 9.5 7.5 12.5s8.5 4.5 14.5 4.5h48v-171h352zM501.999 724.999
c26 0 47.833 -3.49902 65.5 -10.499s32 -16.833 43 -29.5s18.833 -27.167 23.5 -43.5c4.66699 -15.667 7 -32.834 7 -51.501h-67c0 10.667 -1 20.5 -3 29.5s-5.83301 16.667 -11.5 23s-13.167 11.5 -22.5 15.5s-21 6 -35 6s-25.667 -2 -35 -6s-16.833 -9.16699 -22.5 -15.5
s-9.5 -14 -11.5 -23s-3 -18.833 -3 -29.5h-67c0 18.667 2.33301 36 7 52s12.5 30.333 23.5 43s25.333 22.5 43 29.5s39.5 10.5 65.5 10.5z" />
    <glyph glyph-name="t_uni0209.liga" unicode="t&#x209;" horiz-adv-x="620" 
d="M547 499l-0.000976562 -499.001h-95v430h-257v-300c0 -20 4.83301 -35 14.5 -45s22.5 -15 38.5 -15c9.33301 0 17.333 1 24 3s12.334 4.66699 17.001 8s8.66699 6 12 8s6.33301 3 9 3s5 -0.666992 7 -2s4.33301 -3.33301 7 -6l28 -46c-16 -14.667 -35 -26 -57 -34
s-44.667 -12 -68 -12c-40.667 0 -72 11.333 -94 34s-33 55.334 -33 98.001v306h-60c-5.33301 0 -9.83301 1.66699 -13.5 5s-5.5 8.33301 -5.5 15v38l83 12l21 153c1.33301 5.33301 3.83301 9.5 7.5 12.5s8.5 4.5 14.5 4.5h48v-171h352zM505.999 725.999
c11.333 0 19.833 -2 25.5 -6s10.5 -9.66699 14.5 -17l68 -121h-39c-8 0 -14.333 1 -19 3c-5.33301 2 -10 5.66699 -14 11l-99 130h63zM351.999 725.999c11.333 0 19.668 -2 25.001 -6s10.666 -9.66699 15.999 -17l90 -121h-45c-7.33301 0 -13.5 1 -18.5 3
s-9.83301 5.66699 -14.5 11l-122 130h69z" />
    <glyph glyph-name="t_t_i.liga" unicode="tti" horiz-adv-x="936" 
d="M862 499l-0.00195312 -499.002h-94v430h-248v-300c0 -20 5 -35 15 -45s23 -15 39 -15c9.33301 0 17.333 1 24 3s12.334 4.66699 17.001 8s8.66699 6 12 8s6.33301 3 9 3c5.33301 0 10 -2.66699 14 -8l28 -46c-16 -14.667 -35 -26 -57 -34s-45 -12 -69 -12
c-40 0 -71 11.333 -93 34s-33 55.334 -33 98.001v306h-231v-300c0 -20 4.83301 -35 14.5 -45s22.5 -15 38.5 -15c9.33301 0 17.333 1 24 3s12.334 4.66699 17.001 8s8.66699 6 12 8s6.33301 3 9 3s5 -0.666992 7 -2s4.33301 -3.33301 7 -6l28 -46
c-16 -14.667 -35 -26 -57 -34s-44.667 -12 -68 -12c-40.667 0 -72 11.333 -94 34s-33 55.334 -33 98.001v306h-60c-5.33301 0 -9.83301 1.66699 -13.5 5s-5.5 8.33301 -5.5 15v38l83 12l21 153c1.33301 5.33301 3.83301 9.5 7.5 12.5s8.5 4.5 14.5 4.5h48v-171h235l20 154
c1.33301 5.33301 4 9.5 8 12.5s8.66699 4.5 14 4.5h48v-171h342zM881.998 667.998c0 -9.33301 -1.66699 -17.8311 -5 -25.498s-8 -14.334 -14 -20.001s-13.167 -10.334 -21.5 -14.001c-7.66699 -3.66699 -16.167 -5.5 -25.5 -5.5s-18 1.83301 -26 5.5
s-14.833 8.33398 -20.5 14.001s-10.334 12.5 -14.001 20.5c-3.66699 7.33301 -5.5 15.666 -5.5 24.999s1.83301 18 5.5 26s8.33398 15 14.001 21s12.5 10.833 20.5 14.5s16.667 5.5 26 5.5s18 -1.83301 26 -5.5s15 -8.5 21 -14.5s10.667 -13 14 -21s5 -16.667 5 -26z" />
    <glyph glyph-name="t_t_igrave.liga" unicode="tt&#xec;" horiz-adv-x="936" 
d="M862 499l-0.00195312 -499.002h-94v430h-248v-300c0 -20 5 -35 15 -45s23 -15 39 -15c9.33301 0 17.333 1 24 3s12.334 4.66699 17.001 8s8.66699 6 12 8s6.33301 3 9 3c5.33301 0 10 -2.66699 14 -8l28 -46c-16 -14.667 -35 -26 -57 -34s-45 -12 -69 -12
c-40 0 -71 11.333 -93 34s-33 55.334 -33 98.001v306h-231v-300c0 -20 4.83301 -35 14.5 -45s22.5 -15 38.5 -15c9.33301 0 17.333 1 24 3s12.334 4.66699 17.001 8s8.66699 6 12 8s6.33301 3 9 3s5 -0.666992 7 -2s4.33301 -3.33301 7 -6l28 -46
c-16 -14.667 -35 -26 -57 -34s-44.667 -12 -68 -12c-40.667 0 -72 11.333 -94 34s-33 55.334 -33 98.001v306h-60c-5.33301 0 -9.83301 1.66699 -13.5 5s-5.5 8.33301 -5.5 15v38l83 12l21 153c1.33301 5.33301 3.83301 9.5 7.5 12.5s8.5 4.5 14.5 4.5h48v-171h235l20 154
c1.33301 5.33301 4 9.5 8 12.5s8.66699 4.5 14 4.5h48v-171h342zM766.998 725.998c11.333 0 19.668 -2 25.001 -6s10.666 -9.66699 15.999 -17l74 -121h-54c-7.33301 0 -13.5 1 -18.5 3s-9.83301 5.66699 -14.5 11l-117 130h89z" />
    <glyph glyph-name="t_t_iacute.liga" unicode="tt&#xed;" horiz-adv-x="935" 
d="M861 499l-0.00195312 -499.002h-94v430h-248v-300c0 -20 5 -35 15 -45s23 -15 39 -15c9.33301 0 17.333 1 24 3s12.334 4.66699 17.001 8s8.66699 6 12 8s6.33301 3 9 3c5.33301 0 10 -2.66699 14 -8l28 -46c-16 -14.667 -35 -26 -57 -34s-45 -12 -69 -12
c-40 0 -71 11.333 -93 34s-33 55.334 -33 98.001v306h-231v-300c0 -20 4.83301 -35 14.5 -45s22.5 -15 38.5 -15c9.33301 0 17.333 1 24 3s12.334 4.66699 17.001 8s8.66699 6 12 8s6.33301 3 9 3s5 -0.666992 7 -2s4.33301 -3.33301 7 -6l28 -46
c-16 -14.667 -35 -26 -57 -34s-44.667 -12 -68 -12c-40.667 0 -72 11.333 -94 34s-33 55.334 -33 98.001v306h-60c-5.33301 0 -9.83301 1.66699 -13.5 5s-5.5 8.33301 -5.5 15v38l83 12l21 153c1.33301 5.33301 3.83301 9.5 7.5 12.5s8.5 4.5 14.5 4.5h48v-171h235l20 154
c1.33301 5.33301 4 9.5 8 12.5s8.66699 4.5 14 4.5h48v-171h342zM965.998 725.998l-117.999 -130c-4.66699 -5.33301 -9.33398 -9 -14.001 -11s-10.667 -3 -18 -3h-57l74 121c4.66699 8 9.66699 13.833 15 17.5s14 5.5 26 5.5h92z" />
    <glyph glyph-name="t_t_icircumflex.liga" unicode="tt&#xee;" horiz-adv-x="936" 
d="M862 499l-0.00195312 -499.002h-94v430h-248v-300c0 -20 5 -35 15 -45s23 -15 39 -15c9.33301 0 17.333 1 24 3s12.334 4.66699 17.001 8s8.66699 6 12 8s6.33301 3 9 3c5.33301 0 10 -2.66699 14 -8l28 -46c-16 -14.667 -35 -26 -57 -34s-45 -12 -69 -12
c-40 0 -71 11.333 -93 34s-33 55.334 -33 98.001v306h-231v-300c0 -20 4.83301 -35 14.5 -45s22.5 -15 38.5 -15c9.33301 0 17.333 1 24 3s12.334 4.66699 17.001 8s8.66699 6 12 8s6.33301 3 9 3s5 -0.666992 7 -2s4.33301 -3.33301 7 -6l28 -46
c-16 -14.667 -35 -26 -57 -34s-44.667 -12 -68 -12c-40.667 0 -72 11.333 -94 34s-33 55.334 -33 98.001v306h-60c-5.33301 0 -9.83301 1.66699 -13.5 5s-5.5 8.33301 -5.5 15v38l83 12l21 153c1.33301 5.33301 3.83301 9.5 7.5 12.5s8.5 4.5 14.5 4.5h48v-171h235l20 154
c1.33301 5.33301 4 9.5 8 12.5s8.66699 4.5 14 4.5h48v-171h342zM971.998 583.998h-62.999c-4 0 -7.83301 0.666992 -11.5 2s-7.5 4 -11.5 8l-60 64c-2.66699 2.66699 -5.33398 6 -8.00098 10l-9 -10l-60 -64c-7.33301 -6.66699 -15 -10 -23 -10h-66l112 134h88z" />
    <glyph glyph-name="t_t_idieresis.liga" unicode="tt&#xef;" horiz-adv-x="936" 
d="M862 499l-0.00195312 -499.002h-94v430h-248v-300c0 -20 5 -35 15 -45s23 -15 39 -15c9.33301 0 17.333 1 24 3s12.334 4.66699 17.001 8s8.66699 6 12 8s6.33301 3 9 3c5.33301 0 10 -2.66699 14 -8l28 -46c-16 -14.667 -35 -26 -57 -34s-45 -12 -69 -12
c-40 0 -71 11.333 -93 34s-33 55.334 -33 98.001v306h-231v-300c0 -20 4.83301 -35 14.5 -45s22.5 -15 38.5 -15c9.33301 0 17.333 1 24 3s12.334 4.66699 17.001 8s8.66699 6 12 8s6.33301 3 9 3s5 -0.666992 7 -2s4.33301 -3.33301 7 -6l28 -46
c-16 -14.667 -35 -26 -57 -34s-44.667 -12 -68 -12c-40.667 0 -72 11.333 -94 34s-33 55.334 -33 98.001v306h-60c-5.33301 0 -9.83301 1.66699 -13.5 5s-5.5 8.33301 -5.5 15v38l83 12l21 153c1.33301 5.33301 3.83301 9.5 7.5 12.5s8.5 4.5 14.5 4.5h48v-171h235l20 154
c1.33301 5.33301 4 9.5 8 12.5s8.66699 4.5 14 4.5h48v-171h342zM795.998 643.998c0 -8 -1.66699 -15.333 -5 -22s-7.66602 -12.667 -12.999 -18s-11.666 -9.33301 -18.999 -12s-15 -4 -23 -4s-15.333 1.33301 -22 4s-12.667 6.66699 -18 12s-9.66602 11.333 -12.999 18
s-5 14 -5 22s1.66699 15.667 5 23s7.66602 13.666 12.999 18.999s11.333 9.66602 18 12.999s14 5 22 5s15.667 -1.66699 23 -5s13.666 -7.66602 18.999 -12.999s9.66602 -11.666 12.999 -18.999s5 -15 5 -23zM953.998 643.998c0 -8 -1.66699 -15.333 -5 -22
s-7.66602 -12.667 -12.999 -18s-11.5 -9.33301 -18.5 -12s-14.5 -4 -22.5 -4s-15.5 1.33301 -22.5 4s-13.167 6.66699 -18.5 12s-9.66602 11.333 -12.999 18s-5 14 -5 22s1.66699 15.667 5 23s7.66602 13.666 12.999 18.999s11.5 9.66602 18.5 12.999s14.5 5 22.5 5
s15.5 -1.66699 22.5 -5s13.167 -7.66602 18.5 -12.999s9.66602 -11.666 12.999 -18.999s5 -15 5 -23z" />
    <glyph glyph-name="t_t_imacron.liga" unicode="tt&#x12b;" horiz-adv-x="936" 
d="M862 499l-0.00195312 -499.002h-94v430h-248v-300c0 -20 5 -35 15 -45s23 -15 39 -15c9.33301 0 17.333 1 24 3s12.334 4.66699 17.001 8s8.66699 6 12 8s6.33301 3 9 3c5.33301 0 10 -2.66699 14 -8l28 -46c-16 -14.667 -35 -26 -57 -34s-45 -12 -69 -12
c-40 0 -71 11.333 -93 34s-33 55.334 -33 98.001v306h-231v-300c0 -20 4.83301 -35 14.5 -45s22.5 -15 38.5 -15c9.33301 0 17.333 1 24 3s12.334 4.66699 17.001 8s8.66699 6 12 8s6.33301 3 9 3s5 -0.666992 7 -2s4.33301 -3.33301 7 -6l28 -46
c-16 -14.667 -35 -26 -57 -34s-44.667 -12 -68 -12c-40.667 0 -72 11.333 -94 34s-33 55.334 -33 98.001v306h-60c-5.33301 0 -9.83301 1.66699 -13.5 5s-5.5 8.33301 -5.5 15v38l83 12l21 153c1.33301 5.33301 3.83301 9.5 7.5 12.5s8.5 4.5 14.5 4.5h48v-171h235l20 154
c1.33301 5.33301 4 9.5 8 12.5s8.66699 4.5 14 4.5h48v-171h342zM671.998 675.998h288v-62h-288v62z" />
    <glyph glyph-name="t_t_itilde.liga" unicode="tt&#x129;" horiz-adv-x="935" 
d="M861 499l-0.00195312 -499.002h-94v430h-248v-300c0 -20 5 -35 15 -45s23 -15 39 -15c9.33301 0 17.333 1 24 3s12.334 4.66699 17.001 8s8.66699 6 12 8s6.33301 3 9 3c5.33301 0 10 -2.66699 14 -8l28 -46c-16 -14.667 -35 -26 -57 -34s-45 -12 -69 -12
c-40 0 -71 11.333 -93 34s-33 55.334 -33 98.001v306h-231v-300c0 -20 4.83301 -35 14.5 -45s22.5 -15 38.5 -15c9.33301 0 17.333 1 24 3s12.334 4.66699 17.001 8s8.66699 6 12 8s6.33301 3 9 3s5 -0.666992 7 -2s4.33301 -3.33301 7 -6l28 -46
c-16 -14.667 -35 -26 -57 -34s-44.667 -12 -68 -12c-40.667 0 -72 11.333 -94 34s-33 55.334 -33 98.001v306h-60c-5.33301 0 -9.83301 1.66699 -13.5 5s-5.5 8.33301 -5.5 15v38l83 12l21 153c1.33301 5.33301 3.83301 9.5 7.5 12.5s8.5 4.5 14.5 4.5h48v-171h235l20 154
c1.33301 5.33301 4 9.5 8 12.5s8.66699 4.5 14 4.5h48v-171h342zM870.998 665.998c12 0 21 3.33398 27 10.001c6.66699 6.66699 10 17.334 10 32.001h58c0 -16 -2.33301 -30.833 -7 -44.5s-11 -25.334 -19 -35.001s-17.5 -17.167 -28.5 -22.5
c-11.667 -5.33301 -24.167 -8 -37.5 -8c-12 0 -23 2.33301 -33 7s-19.333 10 -28 16s-17.167 11.333 -25.5 16s-16.166 7 -23.499 7c-23.333 0 -35.333 -14.667 -36 -44h-59c0 16 2.16699 31 6.5 45s10.666 25.667 18.999 35s18 16.666 29 21.999s23.167 8 36.5 8
c12 0 23.167 -2.33301 33.5 -7s20 -9.66699 29 -15s17.333 -10.333 25 -15s15.5 -7 23.5 -7z" />
    <glyph glyph-name="t_t_ibreve.liga" unicode="tt&#x12d;" horiz-adv-x="936" 
d="M862 499l-0.00195312 -499.002h-94v430h-248v-300c0 -20 5 -35 15 -45s23 -15 39 -15c9.33301 0 17.333 1 24 3s12.334 4.66699 17.001 8s8.66699 6 12 8s6.33301 3 9 3c5.33301 0 10 -2.66699 14 -8l28 -46c-16 -14.667 -35 -26 -57 -34s-45 -12 -69 -12
c-40 0 -71 11.333 -93 34s-33 55.334 -33 98.001v306h-231v-300c0 -20 4.83301 -35 14.5 -45s22.5 -15 38.5 -15c9.33301 0 17.333 1 24 3s12.334 4.66699 17.001 8s8.66699 6 12 8s6.33301 3 9 3s5 -0.666992 7 -2s4.33301 -3.33301 7 -6l28 -46
c-16 -14.667 -35 -26 -57 -34s-44.667 -12 -68 -12c-40.667 0 -72 11.333 -94 34s-33 55.334 -33 98.001v306h-60c-5.33301 0 -9.83301 1.66699 -13.5 5s-5.5 8.33301 -5.5 15v38l83 12l21 153c1.33301 5.33301 3.83301 9.5 7.5 12.5s8.5 4.5 14.5 4.5h48v-171h235l20 154
c1.33301 5.33301 4 9.5 8 12.5s8.66699 4.5 14 4.5h48v-171h342zM815.998 581.998c-26 0 -47.833 3.66602 -65.5 10.999s-32 17 -43 29s-18.833 26.333 -23.5 43s-7 34.334 -7 53.001h67c0 -10.667 1 -20.667 3 -30s5.83301 -17.333 11.5 -24s13.167 -11.667 22.5 -15
s21 -5 35 -5s25.667 1.66699 35 5s16.833 8.33301 22.5 15s9.5 14.5 11.5 23.5c2 9.66699 3 19.834 3 30.501h67c0 -18.667 -2.33301 -36.334 -7 -53.001s-12.5 -31 -23.5 -43s-25.333 -21.667 -43 -29s-39.5 -11 -65.5 -11z" />
    <glyph glyph-name="t_t_uni01D0.liga" unicode="tt&#x1d0;" horiz-adv-x="936" 
d="M862 499l-0.00195312 -499.002h-94v430h-248v-300c0 -20 5 -35 15 -45s23 -15 39 -15c9.33301 0 17.333 1 24 3s12.334 4.66699 17.001 8s8.66699 6 12 8s6.33301 3 9 3c5.33301 0 10 -2.66699 14 -8l28 -46c-16 -14.667 -35 -26 -57 -34s-45 -12 -69 -12
c-40 0 -71 11.333 -93 34s-33 55.334 -33 98.001v306h-231v-300c0 -20 4.83301 -35 14.5 -45s22.5 -15 38.5 -15c9.33301 0 17.333 1 24 3s12.334 4.66699 17.001 8s8.66699 6 12 8s6.33301 3 9 3s5 -0.666992 7 -2s4.33301 -3.33301 7 -6l28 -46
c-16 -14.667 -35 -26 -57 -34s-44.667 -12 -68 -12c-40.667 0 -72 11.333 -94 34s-33 55.334 -33 98.001v306h-60c-5.33301 0 -9.83301 1.66699 -13.5 5s-5.5 8.33301 -5.5 15v38l83 12l21 153c1.33301 5.33301 3.83301 9.5 7.5 12.5s8.5 4.5 14.5 4.5h48v-171h235l20 154
c1.33301 5.33301 4 9.5 8 12.5s8.66699 4.5 14 4.5h48v-171h342zM659.998 717.998h65.999c4 0 7.83301 -0.833008 11.5 -2.5s6.5 -3.5 8.5 -5.5l62 -66l9 -10l9 10l62 66c2.66699 1.33301 5.83398 3 9.50098 5s7.5 3 11.5 3h63l-112 -134h-88z" />
    <glyph glyph-name="t_t_uni1E2D.liga" unicode="tt&#x1e2d;" horiz-adv-x="935" 
d="M861 499l-0.00195312 -499.002h-94v430h-248v-300c0 -20 5 -35 15 -45s23 -15 39 -15c9.33301 0 17.333 1 24 3s12.334 4.66699 17.001 8s8.66699 6 12 8s6.33301 3 9 3c5.33301 0 10 -2.66699 14 -8l28 -46c-16 -14.667 -35 -26 -57 -34s-45 -12 -69 -12
c-40 0 -71 11.333 -93 34s-33 55.334 -33 98.001v306h-231v-300c0 -20 4.83301 -35 14.5 -45s22.5 -15 38.5 -15c9.33301 0 17.333 1 24 3s12.334 4.66699 17.001 8s8.66699 6 12 8s6.33301 3 9 3s5 -0.666992 7 -2s4.33301 -3.33301 7 -6l28 -46
c-16 -14.667 -35 -26 -57 -34s-44.667 -12 -68 -12c-40.667 0 -72 11.333 -94 34s-33 55.334 -33 98.001v306h-60c-5.33301 0 -9.83301 1.66699 -13.5 5s-5.5 8.33301 -5.5 15v38l83 12l21 153c1.33301 5.33301 3.83301 9.5 7.5 12.5s8.5 4.5 14.5 4.5h48v-171h235l20 154
c1.33301 5.33301 4 9.5 8 12.5s8.66699 4.5 14 4.5h48v-171h342zM868.998 -86.002c12 0 21 3.33398 27 10.001c6.66699 6.66699 10 17.334 10 32.001h58c0 -16 -2.33301 -30.833 -7 -44.5s-11 -25.334 -19 -35.001s-17.5 -17.167 -28.5 -22.5
c-11.667 -5.33301 -24.167 -8 -37.5 -8c-12 0 -23 2.33301 -33 7s-19.333 10 -28 16s-17.167 11.333 -25.5 16s-16.166 7 -23.499 7c-23.333 0 -35.333 -14.667 -36 -44h-59c0 16 2.16699 31 6.5 45s10.666 25.667 18.999 35s18 16.666 29 21.999s23.167 8 36.5 8
c12 0 23.167 -2.33301 33.5 -7s20 -9.66699 29 -15s17.333 -10.333 25 -15s15.5 -7 23.5 -7zM881.998 667.999c0 -9.33301 -1.66699 -17.8311 -5 -25.498s-8 -14.334 -14 -20.001s-13.167 -10.334 -21.5 -14.001c-7.66699 -3.66699 -16.167 -5.5 -25.5 -5.5
s-18 1.83301 -26 5.5s-14.833 8.33398 -20.5 14.001s-10.334 12.5 -14.001 20.5c-3.66699 7.33301 -5.5 15.666 -5.5 24.999s1.83301 18 5.5 26s8.33398 15 14.001 21s12.5 10.833 20.5 14.5s16.667 5.5 26 5.5s18 -1.83301 26 -5.5s15 -8.5 21 -14.5s10.667 -13 14 -21
s5 -16.667 5 -26z" />
    <glyph glyph-name="t_t_uni1E2F.liga" unicode="tt&#x1e2f;" horiz-adv-x="935" 
d="M861 499l-0.00195312 -499.002h-94v430h-248v-300c0 -20 5 -35 15 -45s23 -15 39 -15c9.33301 0 17.333 1 24 3s12.334 4.66699 17.001 8s8.66699 6 12 8s6.33301 3 9 3c5.33301 0 10 -2.66699 14 -8l28 -46c-16 -14.667 -35 -26 -57 -34s-45 -12 -69 -12
c-40 0 -71 11.333 -93 34s-33 55.334 -33 98.001v306h-231v-300c0 -20 4.83301 -35 14.5 -45s22.5 -15 38.5 -15c9.33301 0 17.333 1 24 3s12.334 4.66699 17.001 8s8.66699 6 12 8s6.33301 3 9 3s5 -0.666992 7 -2s4.33301 -3.33301 7 -6l28 -46
c-16 -14.667 -35 -26 -57 -34s-44.667 -12 -68 -12c-40.667 0 -72 11.333 -94 34s-33 55.334 -33 98.001v306h-60c-5.33301 0 -9.83301 1.66699 -13.5 5s-5.5 8.33301 -5.5 15v38l83 12l21 153c1.33301 5.33301 3.83301 9.5 7.5 12.5s8.5 4.5 14.5 4.5h48v-171h235l20 154
c1.33301 5.33301 4 9.5 8 12.5s8.66699 4.5 14 4.5h48v-171h342zM987.998 883.998l-117.999 -130c-4.66699 -5.33301 -9.33398 -9 -14.001 -11s-10.667 -3 -18 -3h-57l74 121c4.66699 8 9.66699 13.833 15 17.5s14 5.5 26 5.5h92zM777.999 643.998
c0 -8 -1.66602 -15.333 -4.99902 -22s-7.66602 -12.667 -12.999 -18s-11.5 -9.33301 -18.5 -12s-14.5 -4 -22.5 -4s-15.5 1.33301 -22.5 4s-13 6.66699 -18 12s-9 11.333 -12 18s-4.5 14 -4.5 22s1.5 15.667 4.5 23s7 13.666 12 18.999s11.167 9.66602 18.5 12.999
s14.666 5 21.999 5c8 0 15.5 -1.66699 22.5 -5s13.167 -7.66602 18.5 -12.999s9.66602 -11.666 12.999 -18.999s5 -15 5 -23zM970 643.998c0 -8 -1.5 -15.333 -4.5 -22s-7 -12.667 -12 -18s-11.167 -9.33301 -18.5 -12s-15 -4 -23 -4s-15.5 1.33301 -22.5 4
s-13.167 6.66699 -18.5 12s-9.5 11.333 -12.5 18s-4.5 14 -4.5 22s1.5 15.667 4.5 23s7.16699 13.666 12.5 18.999s11.5 9.66602 18.5 12.999s14.5 5 22.5 5s15.667 -1.66699 23 -5s13.5 -7.66602 18.5 -12.999s9 -11.666 12 -18.999s4.5 -15 4.5 -23z" />
    <glyph glyph-name="t_t_uni0268.liga" unicode="tt&#x268;" horiz-adv-x="959" 
d="M768 283l-0.00195312 146.998h-248v-300c0 -20 5 -35 15 -45s23 -15 39 -15c9.33301 0 17.333 1 24 3s12.334 4.66699 17.001 8s8.66699 6 12 8s6.33301 3 9 3c5.33301 0 10 -2.66699 14 -8l28 -46c-16 -14.667 -35 -26 -57 -34s-45 -12 -69 -12c-40 0 -71 11.333 -93 34
s-33 55.334 -33 98.001v306h-231v-300c0 -20 4.83301 -35 14.5 -45s22.5 -15 38.5 -15c9.33301 0 17.333 1 24 3s12.334 4.66699 17.001 8s8.66699 6 12 8s6.33301 3 9 3s5 -0.666992 7 -2s4.33301 -3.33301 7 -6l28 -46c-16 -14.667 -35 -26 -57 -34s-44.667 -12 -68 -12
c-40.667 0 -72 11.333 -94 34s-33 55.334 -33 98.001v306h-60c-5.33301 0 -9.83301 1.66699 -13.5 5s-5.5 8.33301 -5.5 15v38l83 12l21 153c1.33301 5.33301 3.83301 9.5 7.5 12.5s8.5 4.5 14.5 4.5h48v-171h235l20 154c1.33301 5.33301 4 9.5 8 12.5s8.66699 4.5 14 4.5
h48v-171h342v-216h78v-69h-78v-214h-94v214h-74v69h74zM882.998 667.998c0 -9.33301 -1.83301 -17.8311 -5.5 -25.498s-8.5 -14.334 -14.5 -20.001s-13 -10.334 -21 -14.001s-16.667 -5.5 -26 -5.5s-17.833 1.83301 -25.5 5.5s-14.334 8.33398 -20.001 14.001
s-10.334 12.5 -14.001 20.5c-3.66699 7.33301 -5.5 15.666 -5.5 24.999s1.83301 18 5.5 26s8.33398 15 14.001 21s12.334 10.833 20.001 14.5s16.167 5.5 25.5 5.5s18 -1.83301 26 -5.5s15 -8.5 21 -14.5s10.833 -13 14.5 -21s5.5 -16.667 5.5 -26z" />
    <glyph glyph-name="t_t_uni020B.liga" unicode="tt&#x20b;" horiz-adv-x="936" 
d="M862 499l-0.00195312 -499.002h-94v430h-248v-300c0 -20 5 -35 15 -45s23 -15 39 -15c9.33301 0 17.333 1 24 3s12.334 4.66699 17.001 8s8.66699 6 12 8s6.33301 3 9 3c5.33301 0 10 -2.66699 14 -8l28 -46c-16 -14.667 -35 -26 -57 -34s-45 -12 -69 -12
c-40 0 -71 11.333 -93 34s-33 55.334 -33 98.001v306h-231v-300c0 -20 4.83301 -35 14.5 -45s22.5 -15 38.5 -15c9.33301 0 17.333 1 24 3s12.334 4.66699 17.001 8s8.66699 6 12 8s6.33301 3 9 3s5 -0.666992 7 -2s4.33301 -3.33301 7 -6l28 -46
c-16 -14.667 -35 -26 -57 -34s-44.667 -12 -68 -12c-40.667 0 -72 11.333 -94 34s-33 55.334 -33 98.001v306h-60c-5.33301 0 -9.83301 1.66699 -13.5 5s-5.5 8.33301 -5.5 15v38l83 12l21 153c1.33301 5.33301 3.83301 9.5 7.5 12.5s8.5 4.5 14.5 4.5h48v-171h235l20 154
c1.33301 5.33301 4 9.5 8 12.5s8.66699 4.5 14 4.5h48v-171h342zM815.998 724.998c26 0 47.833 -3.49902 65.5 -10.499s32 -16.833 43 -29.5s18.833 -27.167 23.5 -43.5c4.66699 -15.667 7 -32.834 7 -51.501h-67c0 10.667 -1 20.5 -3 29.5s-5.83301 16.667 -11.5 23
s-13.167 11.5 -22.5 15.5s-21 6 -35 6s-25.667 -2 -35 -6s-16.833 -9.16699 -22.5 -15.5s-9.5 -14 -11.5 -23s-3 -18.833 -3 -29.5h-67c0 18.667 2.33301 36 7 52s12.5 30.333 23.5 43s25.333 22.5 43 29.5s39.5 10.5 65.5 10.5z" />
    <glyph glyph-name="t_t_uni0209.liga" unicode="tt&#x209;" horiz-adv-x="936" 
d="M862 499l-0.00195312 -499.002h-94v430h-248v-300c0 -20 5 -35 15 -45s23 -15 39 -15c9.33301 0 17.333 1 24 3s12.334 4.66699 17.001 8s8.66699 6 12 8s6.33301 3 9 3c5.33301 0 10 -2.66699 14 -8l28 -46c-16 -14.667 -35 -26 -57 -34s-45 -12 -69 -12
c-40 0 -71 11.333 -93 34s-33 55.334 -33 98.001v306h-231v-300c0 -20 4.83301 -35 14.5 -45s22.5 -15 38.5 -15c9.33301 0 17.333 1 24 3s12.334 4.66699 17.001 8s8.66699 6 12 8s6.33301 3 9 3s5 -0.666992 7 -2s4.33301 -3.33301 7 -6l28 -46
c-16 -14.667 -35 -26 -57 -34s-44.667 -12 -68 -12c-40.667 0 -72 11.333 -94 34s-33 55.334 -33 98.001v306h-60c-5.33301 0 -9.83301 1.66699 -13.5 5s-5.5 8.33301 -5.5 15v38l83 12l21 153c1.33301 5.33301 3.83301 9.5 7.5 12.5s8.5 4.5 14.5 4.5h48v-171h235l20 154
c1.33301 5.33301 4 9.5 8 12.5s8.66699 4.5 14 4.5h48v-171h342zM819.998 725.998c11.333 0 19.833 -2 25.5 -6s10.5 -9.66699 14.5 -17l68 -121h-39c-8 0 -14.333 1 -19 3c-5.33301 2 -10 5.66699 -14 11l-99 130h63zM665.998 725.998c11.333 0 19.668 -2 25.001 -6
s10.666 -9.66699 15.999 -17l90 -121h-45c-7.33301 0 -13.5 1 -18.5 3s-9.83301 5.66699 -14.5 11l-122 130h69z" />
    <glyph glyph-name=".notdef" horiz-adv-x="534" 
d="M124 571c17.333 14.667 37.1689 27.1689 59.502 37.502c23 10.333 49.833 15.5 80.5 15.5c21.333 0 40.666 -3 57.999 -9s32.166 -14.333 44.499 -25s22 -23.667 29 -39s10.5 -32.333 10.5 -51s-2.5 -34.667 -7.5 -48s-11.333 -24.833 -19 -34.5s-15.834 -18 -24.501 -25
s-17 -13.833 -25 -20.5s-15 -13 -21 -19s-9.66699 -13 -11 -21l-8 -51h-66l-6 59c-1.33301 12 0 22 4 30s9.83301 15.667 17.5 23s16 14.166 25 20.499s17.5 13.333 25.5 21s14.667 16.167 20 25.5s8 20.666 8 33.999c0 16 -5.83301 28.667 -17.5 38
c-11 9.33301 -25.833 14 -44.5 14c-13.333 0 -24.666 -1.33301 -33.999 -4s-17.333 -5.66699 -24 -9s-12.167 -6.5 -16.5 -9.5s-8.5 -4.5 -12.5 -4.5c-9.33301 -0.666992 -16 3 -20 11zM197.003 148.002c0 8 1.5 15.5 4.5 22.5s7 13 12 18s11 9.16699 18 12.5s14.5 5 22.5 5
s15.333 -1.66699 22 -5s12.667 -7.5 18 -12.5s9.33301 -11 12 -18s4 -14.5 4 -22.5s-1.33301 -15.5 -4 -22.5s-6.66699 -13 -12 -18s-11.333 -9.16699 -18 -12.5s-14 -5 -22 -5s-15.5 1.66699 -22.5 5s-13 7.5 -18 12.5s-9 11 -12 18s-4.5 14.5 -4.5 22.5zM22.0029 718.002
h490v-718h-490v718zM48.0029 28.002h434v661h-434v-661z" />
    <glyph glyph-name="glyph1" horiz-adv-x="0" 
 />
    <glyph glyph-name="glyph1" horiz-adv-x="0" 
 />
    <glyph glyph-name="uni000D" unicode="&#xd;" horiz-adv-x="0" 
 />
    <glyph glyph-name="space" unicode=" " horiz-adv-x="253" 
 />
    <glyph glyph-name="space" unicode="&#xa0;" horiz-adv-x="253" 
 />
    <glyph glyph-name="exclam" unicode="!" horiz-adv-x="271" 
d="M181 718v-285.998c0 -14.667 -0.333008 -29.334 -1 -44.001s-1.5 -29.334 -2.5 -44.001s-2.33301 -29.667 -4 -45s-3.5 -31.333 -5.5 -48h-64c-2 17.333 -3.83301 33.5 -5.5 48.5s-3 29.833 -4 44.5s-1.83301 29.167 -2.5 43.5c-0.666992 15 -1 29.833 -1 44.5v286h90z
M70 58.002c0 9.33301 1.66699 17.667 5 25s7.83301 14 13.5 20s12.334 10.667 20.001 14s16.167 5 25.5 5s18 -1.66699 26 -5s14.833 -8 20.5 -14s10.167 -12.833 13.5 -20.5c3.33301 -7 5 -15.167 5 -24.5s-1.66699 -18 -5 -26s-7.83301 -15 -13.5 -21
s-12.5 -10.667 -20.5 -14s-16.667 -5 -26 -5s-17.833 1.66699 -25.5 5s-14.334 8 -20.001 14s-10.167 13 -13.5 21s-5 16.667 -5 26z" />
    <glyph glyph-name="quotedbl" unicode="&#x22;" horiz-adv-x="374" 
d="M144 718l-0.000976562 -145l-8 -78c-1.33301 -11.333 -4.66602 -20 -9.99902 -26s-13.333 -9 -24 -9c-9.33301 0 -16.5 3 -21.5 9s-8.5 14.667 -10.5 26l-8 78v145h82zM313.999 718l-0.000976562 -145l-8 -78c-1.33301 -11.333 -4.66602 -20 -9.99902 -26
s-13.333 -9 -24 -9c-9.33301 0 -16.5 3 -21.5 9s-8.5 14.667 -10.5 26l-8 78v145h82z" />
    <glyph glyph-name="numbersign" unicode="#" horiz-adv-x="580" 
d="M399 210l-41.001 -210.001h-43c-4.66699 0 -9 1 -13 3s-7.33301 5 -10 9s-4.5 8.33301 -5.5 13s-0.833008 9.66699 0.5 15l34 170h-120l-34 -174c-2.66699 -13.333 -8 -22.666 -16 -27.999c-7.33301 -5.33301 -16.333 -8 -27 -8h-42l40 210h-70
c-9.33301 0 -16.333 3 -21 9s-5.66699 16.333 -3 31l4 30h101l31 158h-114l7 40c1.33301 10.667 5.16602 18.334 11.499 23.001s16.833 7 31.5 7h74l36 176c2 10.667 6.83301 19 14.5 25s16.5 9 26.5 9h43l-42 -210h120l42 210h42c10.667 0 18.834 -3.33301 24.501 -10
s7.5 -15.334 5.5 -26.001l-36 -174h106l-7 -40c-1.33301 -10 -5.16602 -17.5 -11.499 -22.5s-16.833 -7.5 -31.5 -7.5h-66l-30 -158h86c9.33301 0 16.333 -3 21 -9s6 -16.333 4 -31l-5 -30h-117zM211.999 279.999h120l30 158h-120z" />
    <glyph glyph-name="dollar" unicode="$" horiz-adv-x="580" 
d="M243 -6c-40 4 -76.833 14.002 -110.5 30.002s-62.5 36.667 -86.5 62l29 44c2.66699 4 6.16699 7.16699 10.5 9.5s9.16602 3.5 14.499 3.5c6.66699 0 14 -3.16699 22 -9.5s17.667 -13.333 29 -21s25 -15.334 41 -23.001s34.667 -12.834 56 -15.501l19 258
c-23.333 6.66699 -46.333 14.5 -69 23.5s-43 20.667 -61 35s-32.333 32.333 -43 54s-16 48.834 -16 81.501c0 24.667 4.66699 48.5 14 71.5s23.333 43.667 42 62s41.334 33.333 68.001 45s57.334 18.167 92.001 19.5l6 70c0.666992 6.66699 3.16699 12.667 7.5 18
s10.5 8 18.5 8h35l-7 -98c34.667 -4.66699 64.834 -14 90.501 -28c25 -14.667 47.5 -31.334 67.5 -50.001l-22 -34c-6.66699 -10.667 -15 -16 -25 -16c-4.66699 0 -10.334 2 -17.001 6s-14.834 8.66699 -24.501 14s-20.667 10.666 -33 15.999s-26.5 9.33301 -42.5 12
l-16 -236c24 -7.33301 47.667 -15.5 71 -24.5s44.333 -20.333 63 -34s33.667 -30.667 45 -51s17 -46.166 17 -77.499c0 -30 -5 -58.333 -15 -85s-24.667 -50 -44 -70s-43 -36.333 -71 -49s-60 -20 -96 -22l-6 -85c-0.666992 -6.66699 -3.16699 -12.667 -7.5 -18
s-10.5 -8 -18.5 -8h-35zM438 204.002c0 16 -3 29.834 -9 41.501s-14 21.667 -24 30s-22 15.666 -36 21.999c-14 5.66699 -28.667 11.167 -44 16.5l-17 -240c42.667 4.66699 75 18.5 97 41.5s33 52.5 33 88.5zM167 535.003c0 -15.333 2.83203 -28.666 8.49902 -39.999
s13.167 -21.333 22.5 -30s20.5 -16.334 33.5 -23.001c13.667 -6.66699 27.834 -12.667 42.501 -18l14 218c-21.333 -2 -39.5 -6.16699 -54.5 -12.5s-27.5 -14.333 -37.5 -24s-17.333 -20.5 -22 -32.5s-7 -24.667 -7 -38z" />
    <glyph glyph-name="percent" unicode="%" horiz-adv-x="804" 
d="M363 544c0 -28 -4.33398 -53 -13.001 -75s-20.5 -40.667 -35.5 -56s-32.167 -27 -51.5 -35s-39.666 -12 -60.999 -12c-22.667 0 -43.667 4 -63 12s-36 19.667 -50 35s-25.167 34 -33.5 56s-12.5 47 -12.5 75c0 28.667 4.16699 54.167 12.5 76.5s19.5 41.333 33.5 57
s30.667 27.5 50 35.5s40.333 12 63 12s44 -4 64 -12s37 -19.833 51 -35.5s25.167 -34.667 33.5 -57s12.5 -47.833 12.5 -76.5zM289.999 544c0 21.333 -2.33301 39.666 -7 54.999s-11 27.666 -19 36.999s-17.333 16 -28 20s-22 6 -34 6s-23 -2 -33 -6s-19 -10.667 -27 -20
s-14.167 -21.666 -18.5 -36.999s-6.5 -33.666 -6.5 -54.999s2.16699 -39.166 6.5 -53.499s10.5 -26 18.5 -35s17 -15.667 27 -20s21 -6.5 33 -6.5s23.333 2.16699 34 6.5s20 11 28 20s14.333 20.667 19 35s7 32.166 7 53.499zM613.999 702c3.33301 4 7.5 7.66699 12.5 11
s11.5 5 19.5 5h68l-526 -703c-3.33301 -4 -7.5 -7.5 -12.5 -10.5s-10.833 -4.5 -17.5 -4.5h-70zM761.999 170c0 -28 -4.33398 -53 -13.001 -75s-20.5 -40.667 -35.5 -56s-32.167 -27 -51.5 -35s-39.666 -12 -60.999 -12c-22.667 0 -43.834 4 -63.501 12
s-36.5 19.667 -50.5 35s-25 34 -33 56s-12 47 -12 75c0 28.667 4 54.167 12 76.5s19 41.166 33 56.499s30.833 27 50.5 35s40.834 12 63.501 12s43.834 -4 63.501 -12s36.667 -19.667 51 -35s25.666 -34.166 33.999 -56.499s12.5 -47.833 12.5 -76.5zM687.998 170
c0 21.333 -2.33301 39.333 -7 54s-11 26.834 -19 36.501s-17.167 16.667 -27.5 21s-21.5 6.5 -33.5 6.5s-23.167 -2.16699 -33.5 -6.5s-19.5 -11.333 -27.5 -21s-14 -21.834 -18 -36.501s-6 -32.667 -6 -54s2 -39.333 6 -54s10 -26.667 18 -36s17.167 -16 27.5 -20
s21.5 -6 33.5 -6s23.167 2 33.5 6s19.5 10.667 27.5 20s14.333 21.333 19 36s7 32.667 7 54z" />
    <glyph glyph-name="ampersand" unicode="&#x26;" horiz-adv-x="714" 
d="M334 726c26.667 0 50.9971 -4.33301 72.9971 -13s41 -20.167 57 -34.5s28.5 -30.666 37.5 -48.999s14.167 -37.5 15.5 -57.5l-59 -13c-5.33301 -1.33301 -10.333 -0.666016 -15 2.00098s-8.33398 7.33398 -11.001 14.001c-2.66699 8.66699 -6.5 17.667 -11.5 27
s-11.5 17.666 -19.5 24.999s-17.5 13.333 -28.5 18s-23.833 7 -38.5 7c-16 0 -30.667 -2.66699 -44 -8s-24.5 -12.666 -33.5 -21.999s-16 -20.333 -21 -33s-7.5 -26 -7.5 -40c0 -11.333 1.33301 -22.333 4 -33s6.83398 -21.167 12.501 -31.5s12.834 -21 21.501 -32
c9.33301 -11 20 -22.833 32 -35.5l204 -208c12 22.667 21.667 46.167 29 70.5s12.333 48.5 15 72.5c0.666992 6.66699 2.83398 12 6.50098 16s8.5 6 14.5 6h59c-0.666992 -39.333 -7 -77.833 -19 -115.5s-29 -72.834 -51 -105.501l150 -153h-92c-10.667 0 -19 1.33301 -25 4
s-12.667 7.66699 -20 15l-69 69c-31.333 -29.333 -67.166 -52.666 -107.499 -69.999s-84.833 -26 -133.5 -26c-26.667 0 -52.834 4.66699 -78.501 14s-48.834 22.5 -69.501 39.5s-37.167 38 -49.5 63s-18.5 52.833 -18.5 83.5c0 22.667 3.83301 44.667 11.5 66
s18.334 40.666 32.001 57.999s30 33 49 47s39.5 26 61.5 36c-20 25.333 -34.5 50.166 -43.5 74.499s-13.5 49.166 -13.5 74.499c0 24 4.33301 47 13 69s21.334 41 38.001 57s37.167 28.667 61.5 38s51.5 14 81.5 14zM274.997 69c36 0 68.501 6.5 97.501 19.5
s54.5 30.167 76.5 51.5l-209 210c-34 -18.667 -59.167 -40.667 -75.5 -66s-24.5 -53.333 -24.5 -84c0 -21.333 3.66699 -40 11 -56s17.333 -29.667 30 -41s27.167 -19.833 43.5 -25.5s33.166 -8.5 50.499 -8.5z" />
    <glyph glyph-name="quotesingle" unicode="'" horiz-adv-x="205" 
d="M144 718l-0.000976562 -145l-8 -78c-1.33301 -11.333 -4.66602 -20 -9.99902 -26s-13.333 -9 -24 -9c-9.33301 0 -16.5 3 -21.5 9s-8.5 14.667 -10.5 26l-8 78v145h82z" />
    <glyph glyph-name="parenleft" unicode="(" horiz-adv-x="268" 
d="M126 314c0 -70.667 8.99805 -139.668 26.998 -207.001s44.333 -131 79 -191c2.66699 -5.33301 4.16699 -10 4.5 -14s0 -7.66699 -1 -11s-2.66699 -6 -5 -8s-4.83301 -4 -7.5 -6l-42 -25c-25.333 38.667 -46.666 76.667 -63.999 114s-31.5 75 -42.5 113
s-18.833 76.5 -23.5 115.5s-7 78.833 -7 119.5s2.33301 80.5 7 119.5s12.5 77.5 23.5 115.5s25.333 76 43 114s38.834 76 63.501 114l42 -25c2.66699 -1.33301 5.16699 -3.33301 7.5 -6s4 -5.5 5 -8.5s1.33301 -6.66699 1 -11s-1.83301 -9.16602 -4.5 -14.499
c-34.667 -60 -61 -123.667 -79 -191s-27 -136.333 -27 -207z" />
    <glyph glyph-name="parenright" unicode=")" horiz-adv-x="268" 
d="M142 314c0 70.667 -8.99902 139.667 -26.999 207s-44 131 -78 191c-5.33301 10.667 -6.83301 19 -4.5 25s6.5 11 12.5 15l42 25c25.333 -38.667 46.666 -76.834 63.999 -114.501s31.5 -75.5 42.5 -113.5s18.833 -76.5 23.5 -115.5s7 -78.833 7 -119.5
s-2.33301 -80.5 -7 -119.5s-12.5 -77.5 -23.5 -115.5s-25.333 -75.833 -43 -113.5c-17.667 -37 -38.834 -74.833 -63.501 -113.5l-42 25c-5.33301 4 -9.5 8.83301 -12.5 14.5s-1.5 13.834 4.5 24.501c34.667 60 60.834 123.667 78.501 191s26.5 136.333 26.5 207z" />
    <glyph glyph-name="asterisk" unicode="*" horiz-adv-x="425" 
d="M189 429l0.000976562 96.998c0 6.66699 0.5 12.834 1.5 18.501s2.5 11.167 4.5 16.5c-6.66699 -8 -15.667 -15.333 -27 -22l-84 -49l-24 40l85 49c6 3.33301 11.833 6 17.5 8s11.5 3.33301 17.5 4c-12 1.33301 -23.667 5.66602 -35 12.999l-85 50l23 40l85 -50
c12 -6.66699 21.333 -14.667 28 -24c-2.66699 5.33301 -4.5 11 -5.5 17s-1.5 12.333 -1.5 19v98h47v-97c0 -6.66699 -0.666992 -13.167 -2 -19.5s-3.33301 -12.166 -6 -17.499c6.66699 9.33301 16.334 17.333 29.001 24l85 49l22 -40l-84 -49
c-5.33301 -3.33301 -11 -6.16602 -17 -8.49902s-11.667 -3.83301 -17 -4.5c11.333 -1.33301 22.666 -5.33301 33.999 -12l85 -50l-23 -40l-85 50c-6.66699 4 -12.334 7.83301 -17.001 11.5c-4 3.66699 -8 8.16699 -12 13.5c5.33301 -10.667 8 -23 8 -37v-98h-47z" />
    <glyph glyph-name="plus" unicode="+" horiz-adv-x="580" 
d="M328 584v-212h202v-72h-202v-214h-77v214h-201v72h201v212h77z" />
    <glyph glyph-name="comma" unicode="," horiz-adv-x="228" 
d="M52 64c0 16 5.66602 29.666 16.999 40.999s26.333 17 45 17c10.667 0 19.834 -1.83301 27.501 -5.5s14.334 -8.83398 20.001 -15.501s9.83398 -14.5 12.501 -23.5s4 -18.5 4 -28.5c0 -14.667 -2.33301 -30.334 -7 -47.001s-11 -33.167 -19 -49.5
s-18.167 -32.166 -30.5 -47.499s-26.166 -29 -41.499 -41l-16 14c-2.66699 2.66699 -4.5 5.16699 -5.5 7.5c-1 3 -1.5 5.83301 -1.5 8.5c-0.666992 4.66699 1.66602 9.33398 6.99902 14.001c3.33301 4 7.66602 9 12.999 15s10.666 13 15.999 21s10.166 16.667 14.499 26
s7.5 19.333 9.5 30h-5c-9.33301 0 -17.666 1.66699 -24.999 5s-13.5 7.83301 -18.5 13.5s-9 12.334 -12 20.001s-4.5 16.167 -4.5 25.5z" />
    <glyph glyph-name="hyphen" unicode="-" horiz-adv-x="372" 
d="M62 340h248v-80h-248v80z" />
    <glyph glyph-name="hyphen" unicode="&#x2010;" horiz-adv-x="372" 
d="M62 340h248v-80h-248v80z" />
    <glyph glyph-name="hyphen" unicode="&#xad;" horiz-adv-x="372" 
d="M62 340h248v-80h-248v80z" />
    <glyph glyph-name="period" unicode="." horiz-adv-x="236" 
d="M54 58c0 9.33301 1.66699 17.667 5 25s7.66602 14 12.999 20s12 10.667 20 14s16.667 5 26 5s17.833 -1.66699 25.5 -5s14.334 -8 20.001 -14s10.167 -12.833 13.5 -20.5c3.33301 -7 5 -15.167 5 -24.5s-1.66699 -18 -5 -26s-7.83301 -15 -13.5 -21
s-12.334 -10.667 -20.001 -14s-16.167 -5 -25.5 -5s-18 1.66699 -26 5s-14.667 8 -20 14s-9.66602 13 -12.999 21s-5 16.667 -5 26z" />
    <glyph glyph-name="slash" unicode="/" horiz-adv-x="454" 
d="M124 -9c-4.66699 -12 -11.832 -21.167 -21.499 -27.5s-19.834 -9.5 -30.501 -9.5h-40l300 749c4 10.667 10.333 19.167 19 25.5s18.667 9.5 30 9.5h41z" />
    <glyph glyph-name="zero" unicode="0" horiz-adv-x="580" 
d="M551 359c0 -62.667 -6.83105 -117 -20.498 -163s-32.167 -84.167 -55.5 -114.5s-51 -52.833 -83 -67.5s-66 -22 -102 -22c-36.667 0 -70.834 7.33301 -102.501 22s-59.334 37.167 -83.001 67.5s-42.167 68.5 -55.5 114.5s-20 100.333 -20 163s6.66699 117 20 163
s31.833 84.167 55.5 114.5s51.167 52.833 82.5 67.5s65.666 22 102.999 22c36.667 0 70.834 -7.33301 102.501 -22s59.167 -37.167 82.5 -67.5s41.833 -68.5 55.5 -114.5s20.5 -100.333 20.5 -163zM452.002 359c0 54 -4.33301 99.333 -13 136s-20.667 66.167 -36 88.5
s-32.666 38.333 -51.999 48s-39.666 14.5 -60.999 14.5s-42 -4.83301 -62 -14.5s-37.333 -25.667 -52 -48s-26.5 -51.833 -35.5 -88.5s-13.5 -82 -13.5 -136c0 -54.667 4.5 -100.167 13.5 -136.5s20.833 -65.666 35.5 -87.999s32 -38.333 52 -48s40.667 -14.5 62 -14.5
s41.666 4.83301 60.999 14.5s36.666 25.667 51.999 48s27.333 51.666 36 87.999s13 81.833 13 136.5z" />
    <glyph glyph-name="one" unicode="1" horiz-adv-x="580" 
d="M124 72h152v477c0 14 0.666992 29 2 45l-124 -105c-4.66699 -4 -9.16699 -6.5 -13.5 -7.5s-8.5 -1 -12.5 0s-7.66699 2.5 -11 4.5c-3.33301 1.33301 -6 3.33301 -8 6l-29 42l214 185h77v-647h139v-72h-386v72z" />
    <glyph glyph-name="two" unicode="2" horiz-adv-x="580" 
d="M296 726c30.667 0 59.333 -4.66406 86 -13.9971s49.667 -22.666 69 -39.999s34.333 -38.333 45 -63s16 -52.667 16 -84c0 -26.667 -3.83301 -51.5 -11.5 -74.5s-18.334 -44.833 -32.001 -65.5s-29.334 -40.667 -47.001 -60s-36.5 -39 -56.5 -59l-185 -188
c13.333 4 27.166 7 41.499 9s27.833 3 40.5 3h231c10.667 0 18.834 -3 24.501 -9s8.5 -13.667 8.5 -23v-58h-480v32c0 6.66699 1.33301 13.667 4 21s7 13.666 13 18.999l227 230c18.667 19.333 35.834 37.833 51.501 55.5s29 35.167 40 52.5s19.5 35.166 25.5 53.499
s9 37.833 9 58.5c0 20 -3.33301 37.667 -10 53s-15.5 28.333 -26.5 39s-24.167 18.334 -39.5 23.001c-16 4.66699 -32.667 7 -50 7s-33.333 -2.5 -48 -7.5s-27.667 -12 -39 -21s-21 -19.833 -29 -32.5s-13.667 -26.334 -17 -41.001c-4 -12 -9.66699 -20.333 -17 -25
c-6.66699 -4.66699 -16.667 -5.66699 -30 -3l-50 8c5.33301 33.333 14.666 62.666 27.999 87.999s30.333 46.666 51 63.999s44.334 30.333 71.001 39s55.334 13 86.001 13z" />
    <glyph glyph-name="three" unicode="3" horiz-adv-x="580" 
d="M300 726c30.667 0 58.8301 -4.50293 84.4971 -13.5029s47.667 -21.667 66 -38s32.833 -35.666 43.5 -57.999s16 -47.166 16 -74.499c0 -22.667 -3 -43 -9 -61s-14.333 -33.667 -25 -47s-23.5 -24.666 -38.5 -33.999c-15.667 -9.33301 -32.834 -16.666 -51.501 -21.999
c46.667 -12.667 81.667 -33.5 105 -62.5s35 -65.167 35 -108.5c0 -33.333 -6.33301 -63.333 -19 -90s-30 -49.167 -52 -67.5s-47.5 -32.5 -76.5 -42.5c-28.333 -10 -59.166 -15 -92.499 -15c-37.333 0 -69.666 4.66699 -96.999 14s-50.5 22.333 -69.5 39
s-34.667 36.334 -47 59.001s-22.5 48 -30.5 76l40 17c10.667 4.66699 21 6 31 4s17.667 -7.66699 23 -17c4.66699 -9.33301 10.167 -20.5 16.5 -33.5s15.166 -25.333 26.499 -37s25.333 -21.334 42 -29.001s37.667 -11.5 63 -11.5c24 0 45.333 4 64 12s34 18.333 46 31
s21 26.834 27 42.501s9 30.834 9 45.501c0 18.667 -2.33301 36 -7 52s-13.667 29.667 -27 41s-31.666 20.166 -54.999 26.499s-53.666 9.5 -90.999 9.5v69c30.667 0 56.667 3.16699 78 9.5s38.666 15 51.999 26s22.833 23.833 28.5 38.5s8.5 31.334 8.5 50.001
c0 20 -3.16699 37.333 -9.5 52s-14.833 27 -25.5 37s-23.667 17.333 -39 22s-31.666 7 -48.999 7s-33.5 -2.5 -48.5 -7.5s-28.333 -12 -40 -21s-21.334 -19.833 -29.001 -32.5s-13.167 -26.334 -16.5 -41.001c-4.66699 -12 -10.5 -20.333 -17.5 -25
s-16.833 -5.66699 -29.5 -3l-50 8c4.66699 33.333 13.834 62.666 27.501 87.999s30.834 46.666 51.501 63.999s44.5 30.333 71.5 39s55.833 13 86.5 13z" />
    <glyph glyph-name="four" unicode="4" horiz-adv-x="580" 
d="M446 261h105.999v-55c0 -5.33301 -1.66699 -10 -5 -14s-8.33301 -6 -15 -6h-86v-186h-82v186h-316c-6.66699 0 -12.667 2 -18 6s-8.66602 9.33301 -9.99902 16l-10 48l348 462h88v-457zM363.999 546c0 9.33301 0.333008 19.332 1 29.999s1.66699 21.334 3 32.001
l-255 -347h251v285z" />
    <glyph glyph-name="five" unicode="5" horiz-adv-x="580" 
d="M492 676c0 -13.333 -4.16895 -24.335 -12.502 -33.002s-22.5 -13 -42.5 -13h-221l-32 -182c36 8 70 12 102 12c37.333 0 70.333 -5.5 99 -16.5s52.667 -26.333 72 -46s33.833 -42.667 43.5 -69s14.5 -54.833 14.5 -85.5c0 -38 -6.66699 -72.5 -20 -103.5
s-31.5 -57.333 -54.5 -79s-50.5 -38.5 -82.5 -50.5s-66 -18 -102 -18c-21.333 0 -41.833 2 -61.5 6s-38 9.66699 -55 17s-32.667 15.666 -47 24.999s-27.166 19 -38.499 29l29 41c6.66699 9.33301 15 14 25 14c6.66699 0 14.334 -2.66699 23.001 -8
s18.834 -11.166 30.501 -17.499s25.667 -12 42 -17s35.166 -7.5 56.499 -7.5c24 0 46 3.83301 66 11.5s37 18.667 51 33s24.667 31.833 32 52.5s11 43 11 67c0 22 -3.33301 41.833 -10 59.5s-16.334 32.834 -29.001 45.501s-28.667 22.334 -48 29.001s-41.666 10 -66.999 10
c-36 0 -74 -6.66699 -114 -20l-60 18l58 338h342v-42z" />
    <glyph glyph-name="six" unicode="6" horiz-adv-x="580" 
d="M241 450c-6 -8 -11.834 -15.3379 -17.501 -22.0049c-5 -6.66699 -10.167 -13.667 -15.5 -21c16 10.667 34 19 54 25s41.333 9 64 9c28.667 0 55.834 -4.66699 81.501 -14s48.167 -23.166 67.5 -41.499s34.666 -40.833 45.999 -67.5s17 -57 17 -91
c0 -33.333 -6 -64.166 -18 -92.499s-28.833 -53.166 -50.5 -74.499s-47.667 -38 -78 -50s-63.833 -18 -100.5 -18s-69.667 5.83301 -99 17.5s-54.333 28.334 -75 50.001s-36.667 47.5 -48 77.5s-17 63.667 -17 101c0 32 7 65.667 21 101s35.667 73.333 65 114l181 241
c4.66699 6.66699 11.5 12.334 20.5 17.001c9.66699 4.66699 19.834 7 30.501 7h84zM142.999 221.995c0 -22.667 3.16602 -43.1709 9.49902 -61.5039s15.833 -34.166 28.5 -47.499s28 -23.666 46 -30.999s38.667 -11 62 -11s44.5 3.83301 63.5 11.5s35.333 18.167 49 31.5
s24.167 29 31.5 47s11 37.667 11 59c0 22.667 -3.66699 43.334 -11 62.001s-17.666 34.334 -30.999 47.001s-29 22.334 -47 29.001s-38 10 -60 10c-23.333 0 -44.333 -3.83301 -63 -11.5s-34.667 -18.334 -48 -32.001s-23.5 -29.167 -30.5 -46.5s-10.5 -36 -10.5 -56z" />
    <glyph glyph-name="seven" unicode="7" horiz-adv-x="580" 
d="M542 718l0.00292969 -41.999c0 -12 -1.33301 -22 -4 -30s-5.33398 -14.667 -8.00098 -20l-294 -592c-4.66699 -9.33301 -10.834 -17.333 -18.501 -24s-18.5 -10 -32.5 -10h-68l297 584c8 17.333 18 32.666 30 45.999h-368c-6.66699 0 -12.334 2.33301 -17.001 7
s-7 10 -7 16v65h490z" />
    <glyph glyph-name="eight" unicode="8" horiz-adv-x="580" 
d="M290 -8c-36 0 -69.001 4.83203 -99.001 14.499s-55.667 23.334 -77 41.001s-37.833 39.167 -49.5 64.5s-17.5 53.666 -17.5 84.999c0 45.333 11.833 82.833 35.5 112.5s57.5 51.167 101.5 64.5c-37.333 14 -65.333 34.833 -84 62.5s-28 60.834 -28 99.501
c0 26.667 5.16699 51.667 15.5 75s25 43.333 44 60s42 30 69 40s56.833 15 89.5 15s62.5 -5 89.5 -15s50 -23.333 69 -40s33.667 -36.667 44 -60s15.5 -48.333 15.5 -75c0 -38.667 -9.5 -71.834 -28.5 -99.501s-47.167 -48.5 -84.5 -62.5
c44.667 -13.333 78.834 -34.666 102.501 -63.999s35.5 -67 35.5 -113c0 -31.333 -5.83301 -59.666 -17.5 -84.999s-28.167 -46.833 -49.5 -64.5s-47 -31.334 -77 -41.001s-63 -14.5 -99 -14.5zM289.999 67.999c22.667 0 42.9971 3.16602 60.9971 9.49902
s33.333 15.333 46 27s22.334 25.5 29.001 41.5s10 33.667 10 53c0 24 -4 44.5 -12 61.5s-18.667 30.833 -32 41.5s-28.833 18.667 -46.5 24s-36.167 8 -55.5 8c-20 0 -38.667 -2.66699 -56 -8s-32.666 -13.333 -45.999 -24s-24 -24.667 -32 -42s-12 -37.666 -12 -60.999
c0 -19.333 3.33301 -37 10 -53s16.334 -29.833 29.001 -41.5s28 -20.667 46 -27s38.333 -9.5 61 -9.5zM289.996 409.998c22.667 0 41.998 3.33301 57.998 10s29 16 39 28s17.333 25.333 22 40s7 30 7 46s-2.66699 31.333 -8 46s-13.333 27.334 -24 38.001s-23.667 19 -39 25
s-33.666 9 -54.999 9s-39.666 -3 -54.999 -9s-28.333 -14.333 -39 -25s-18.667 -23.334 -24 -38.001s-8 -30 -8 -46s2.33301 -31.333 7 -46s12 -28 22 -40s23 -21.333 39 -28s35.333 -10 58 -10z" />
    <glyph glyph-name="nine" unicode="9" horiz-adv-x="580" 
d="M346 284c6.66699 9.33301 13.001 18.1699 19.001 26.5029s12 16.5 18 24.5c-18 -14 -38.333 -24.5 -61 -31.5s-46.334 -10.5 -71.001 -10.5c-26.667 0 -52.167 4.5 -76.5 13.5s-45.5 22.167 -63.5 39.5s-32.667 39 -44 65s-17 55.333 -17 88c0 31.333 6 60.833 18 88.5
s28.5 51.667 49.5 72s46.167 36.5 75.5 48.5c30 12 62.333 18 97 18s66 -5.66699 94 -17s52 -27.333 72 -48s35.667 -45.334 47 -74.001s17 -60 17 -94c0 -21.333 -2 -41.333 -6 -60s-9.66699 -36.834 -17 -54.501s-16 -35.334 -26 -53.001
c-10 -17 -21.667 -34.833 -35 -53.5l-173 -250c-4 -6.66699 -10.5 -12 -19.5 -16s-18.833 -6 -29.5 -6h-87zM428.001 504.004c0 22 -3.33105 41.832 -9.99805 59.499s-16.334 32.5 -29.001 44.5s-27.667 21.333 -45 28s-36 10 -56 10
c-21.333 0 -40.666 -3.33301 -57.999 -10s-32.333 -16.334 -45 -29.001s-22.334 -27.667 -29.001 -45s-10 -36 -10 -56c0 -44.667 12 -79.167 36 -103.5s57.667 -36.5 101 -36.5c23.333 0 44 3.66699 62 11s33.167 17.333 45.5 30s21.666 27.334 27.999 44.001
s9.5 34.334 9.5 53.001z" />
    <glyph glyph-name="colon" unicode=":" horiz-adv-x="251" 
d="M62 58c0 9.33301 1.66699 17.667 5 25s7.66602 14 12.999 20s12 10.667 20 14s16.667 5 26 5s17.833 -1.66699 25.5 -5s14.334 -8 20.001 -14s10.167 -12.833 13.5 -20.5c3.33301 -7 5 -15.167 5 -24.5s-1.66699 -18 -5 -26s-7.83301 -15 -13.5 -21
s-12.334 -10.667 -20.001 -14s-16.167 -5 -25.5 -5s-18 1.66699 -26 5s-14.667 8 -20 14s-9.66602 13 -12.999 21s-5 16.667 -5 26zM62 430.001c0 9.33301 1.66699 17.667 5 25s7.66602 14 12.999 20s12 10.667 20 14s16.667 5 26 5s17.833 -1.66699 25.5 -5
s14.334 -8 20.001 -14s10.167 -12.833 13.5 -20.5c3.33301 -7 5 -15.167 5 -24.5s-1.66699 -18 -5 -26s-7.83301 -15 -13.5 -21s-12.334 -10.667 -20.001 -14s-16.167 -5 -25.5 -5s-18 1.66699 -26 5s-14.667 8 -20 14s-9.66602 13 -12.999 21s-5 16.667 -5 26z" />
    <glyph glyph-name="semicolon" unicode=";" horiz-adv-x="263" 
d="M70 64c0 16 5.66602 29.666 16.999 40.999s26.333 17 45 17c10.667 0 19.834 -1.83301 27.501 -5.5s14.334 -8.83398 20.001 -15.501s9.83398 -14.5 12.501 -23.5s4 -18.5 4 -28.5c0 -14.667 -2.33301 -30.334 -7 -47.001s-11 -33.167 -19 -49.5
s-18.167 -32.166 -30.5 -47.499s-26.166 -29 -41.499 -41l-16 14c-2.66699 2.66699 -4.5 5.16699 -5.5 7.5c-1 3 -1.5 5.83301 -1.5 8.5c-0.666992 4.66699 1.66602 9.33398 6.99902 14.001c3.33301 4 7.66602 9 12.999 15s10.666 13 15.999 21s10.166 16.667 14.499 26
s7.5 19.333 9.5 30h-5c-9.33301 0 -17.666 1.66699 -24.999 5s-13.5 7.83301 -18.5 13.5s-9 12.334 -12 20.001s-4.5 16.167 -4.5 25.5zM66.999 429.999c0 9.33301 1.66699 17.667 5 25s7.66602 14 12.999 20s12 10.667 20 14s16.667 5 26 5s17.833 -1.66699 25.5 -5
s14.334 -8 20.001 -14s10.167 -12.833 13.5 -20.5c3.33301 -7 5 -15.167 5 -24.5s-1.66699 -18 -5 -26s-7.83301 -15 -13.5 -21s-12.334 -10.667 -20.001 -14s-16.167 -5 -25.5 -5s-18 1.66699 -26 5s-14.667 8 -20 14s-9.66602 13 -12.999 21s-5 16.667 -5 26z" />
    <glyph glyph-name="less" unicode="&#x3c;" horiz-adv-x="580" 
d="M80 356l387.999 201.999v-68c0 -5.33301 -1.33301 -10.333 -4 -15s-7.33398 -9 -14.001 -13l-218 -110c-6.66699 -4 -13.667 -7 -21 -9s-15.333 -4.33301 -24 -7c8 -2 15.833 -4.16699 23.5 -6.5s14.834 -5.5 21.501 -9.5l218 -110
c6.66699 -3.33301 11.334 -7.16602 14.001 -11.499s4 -9.5 4 -15.5v-68l-388 202v39z" />
    <glyph glyph-name="equal" unicode="=" horiz-adv-x="580" 
d="M74 288h432v-72h-432v72zM74 458h432v-72h-432v72z" />
    <glyph glyph-name="greater" unicode="&#x3e;" horiz-adv-x="580" 
d="M500 317l-388 -202v68c0 5.33301 1.33301 10.333 4 15s7.33398 8.66699 14.001 12l218 110c6.66699 3.33301 13.667 6.5 21 9.5s15.333 5.16699 24 6.5c-8.66699 2 -16.667 4.33301 -24 7c-7.33301 2 -14.333 5 -21 9l-218 110c-6.66699 4 -11.334 8.33301 -14.001 13
s-4 9.66699 -4 15v68l388 -202v-39z" />
    <glyph glyph-name="question" unicode="?" horiz-adv-x="449" 
d="M40 654c10.667 9.33301 22.332 18.332 34.999 26.999s26.334 16.334 41.001 23.001s30.667 12 48 16s36.333 6 57 6c26.667 0 51.334 -4 74.001 -12s42.167 -19 58.5 -33s29.166 -31 38.499 -51s14 -42.667 14 -68s-3.66699 -47.333 -11 -66s-16.666 -34.667 -27.999 -48
s-23.666 -25.166 -36.999 -35.499s-26 -20 -38 -29s-22.333 -17.833 -31 -26.5s-13.667 -18.667 -15 -30l-10 -76h-64l-6 83c-1.33301 14.667 1.33398 27.667 8.00098 39s15.667 22 27 32s23.666 19.667 36.999 29s26 19.666 38 30.999s22 24.333 30 39s12 32 12 52
c0 14 -2.66699 26.833 -8 38.5s-12.833 21.5 -22.5 29.5s-20.834 14 -33.501 18s-26.334 6 -41.001 6c-20 0 -37.167 -2.33301 -51.5 -7s-26.5 -10 -36.5 -16s-18.167 -11.333 -24.5 -16s-11.5 -7 -15.5 -7c-9.33301 0 -16 3.66699 -20 11zM136.998 57.999
c0 9.33301 1.66797 17.667 5.00098 25s7.83301 14 13.5 20s12.5 10.667 20.5 14s16.667 5 26 5s17.666 -1.66699 24.999 -5s14 -8 20 -14s10.667 -12.833 14 -20.5c3.33301 -7 5 -15.167 5 -24.5s-1.66699 -18 -5 -26s-8 -15 -14 -21s-12.833 -10.667 -20.5 -14
c-7 -3.33301 -15.167 -5 -24.5 -5s-18 1.66699 -26 5s-14.833 8 -20.5 14s-10.167 13 -13.5 21s-5 16.667 -5 26z" />
    <glyph glyph-name="at" unicode="@" horiz-adv-x="837" 
d="M593 92c-25.333 0 -46.166 6.17188 -62.499 18.5049c-16.333 13 -27.166 32.167 -32.499 57.5c-19.333 -26 -40.333 -44.833 -63 -56.5s-47 -17.5 -73 -17.5c-20 0 -37.333 3.5 -52 10.5s-27 16.667 -37 29s-17.333 26.833 -22 43.5s-7 35 -7 55
c0 28 5.33301 56.333 16 85s26.667 54.667 48 78s48 42.333 80 57s69 22 111 22c22.667 0 42.667 -1.66699 60 -5s33.666 -8.33301 48.999 -15l-47 -182c-6.66699 -24.667 -9.83398 -44.834 -9.50098 -60.501s2.83301 -27.834 7.5 -36.501s11.334 -14.5 20.001 -17.5
s18 -4.5 28 -4.5c16 0 31.167 4.66699 45.5 14s26.833 22.333 37.5 39s19.167 36.834 25.5 60.501s9.5 49.5 9.5 77.5c0 45.333 -7.16699 85.333 -21.5 120s-34.333 63.334 -60 86.001s-56 39.834 -91 51.501s-72.5 17.5 -112.5 17.5c-44.667 0 -86.5 -8.5 -125.5 -25.5
s-72.833 -40.333 -101.5 -70s-51.334 -64.834 -68.001 -105.501c-16.667 -40 -25 -84 -25 -132c0 -56 9 -105.5 27 -148.5s42.333 -79 73 -108s66.667 -50.667 108 -65s85.666 -21.5 132.999 -21.5c50.667 0 95.334 5.5 134.001 16.5c38 11 71 24.5 99 40.5
c6.66699 4 12.834 5.33301 18.501 4c5 -1.33301 8.83301 -5.33301 11.5 -12l14 -35c-36 -23.333 -76.833 -42 -122.5 -56s-97.167 -21 -154.5 -21c-38.667 0 -75.834 4.16699 -111.501 12.5s-68.5 20.333 -98.5 36s-57.333 35.167 -82 58.5s-45.667 50 -63 80
s-30.833 63.333 -40.5 100s-14.5 76.334 -14.5 119.001c0 36 4.5 70.667 13.5 104s21.833 64.666 38.5 93.999s36.834 56.166 60.501 80.499s50 45.166 79 62.499s60 30.833 93 40.5c33.667 9.66699 68.5 14.5 104.5 14.5c30.667 0 60.667 -3.5 90 -10.5
s57.166 -17 83.499 -30s50.5 -29.167 72.5 -48.5s41 -41.333 57 -66s28.5 -52.334 37.5 -83.001s13.5 -64 13.5 -100s-5.16699 -69.333 -15.5 -100s-24.5 -57.334 -42.5 -80.001s-39.333 -40.334 -64 -53.001s-51 -19 -79 -19zM381 156.005
c10 0 20.1709 1.66602 30.5039 4.99902s20.166 9 29.499 17s18 19 26 33c8.66699 14 15.667 31.333 21 52l37 146c-12.667 3.33301 -26.334 5 -41.001 5c-24 0 -46.333 -5.16699 -67 -15.5s-38.334 -24 -53.001 -41s-26 -36.167 -34 -57.5s-12 -43.333 -12 -66
c0 -23.333 5.16699 -42.166 15.5 -56.499s26.166 -21.5 47.499 -21.5z" />
    <glyph glyph-name="A" unicode="A" horiz-adv-x="680" 
d="M678 0h-80.001c-9.33301 0 -16.666 2.33301 -21.999 7s-9.33301 10.334 -12 17.001l-65 169h-319l-64 -169c-2 -6.66699 -6.16699 -12.334 -12.5 -17.001s-13.5 -7 -21.5 -7h-80l286 718h104zM208.999 267l261 0.000976562l-108 283
c-4 9.33301 -7.83301 19.666 -11.5 30.999c-3 11.333 -6.5 24.333 -10.5 39c-4 -14 -7.83301 -27.167 -11.5 -39.5c-3 -12.333 -6.5 -22.833 -10.5 -31.5z" />
    <glyph glyph-name="B" unicode="B" horiz-adv-x="648" 
d="M90 0l-0.00195312 717.998h232c44.667 0 82.834 -4.33301 114.501 -13s57.834 -21.167 78.501 -37.5s36 -36.166 46 -59.499c10 -22.667 15 -48.667 15 -78c0 -17.333 -2.66699 -34.166 -8 -50.499s-13.666 -31.333 -24.999 -45s-25.333 -26.167 -42 -37.5
s-36 -20.333 -58 -27c52 -10.667 91.167 -29.667 117.5 -57s39.5 -63 39.5 -107c0 -30.667 -5.66699 -58.667 -17 -84s-27.833 -47 -49.5 -65s-48.334 -32 -80.001 -42s-67.5 -15 -107.5 -15h-256zM191.998 324.998v-243h152c27.333 0 50.833 3.16699 70.5 9.5
s35.5 15 47.5 26s21 24.167 27 39.5s9 32.333 9 51c0 36 -12.667 64.5 -38 85.5s-64 31.5 -116 31.5h-152zM191.998 397.998h124.997c26.667 0 49.834 2.83301 69.501 8.5s35.834 13.667 48.501 24s22.334 22.833 29.001 37.5s10 31 10 49c0 41.333 -12.5 71.5 -37.5 90.5
c-24.333 19 -62.5 28.5 -114.5 28.5h-130v-238z" />
    <glyph glyph-name="C" unicode="C" horiz-adv-x="667" 
d="M592 152c5.33301 0 10 -2 14 -6l42 -46c-29.333 -34.667 -65.166 -61.334 -107.499 -80.001c-43 -18.667 -93.833 -28 -152.5 -28c-52 0 -99 9 -141 27s-78 43.167 -108 75.5s-53 71 -69 116s-24 94.5 -24 148.5s8.5 103.5 25.5 148.5s41 83.667 72 116
s68.167 57.5 111.5 75.5s91 27 143 27c50.667 0 95.667 -8.33301 135 -25s73.666 -39 102.999 -67l-34 -48c-2.66699 -3.33301 -5.33398 -6.16602 -8.00098 -8.49902s-7 -3.5 -13 -3.5c-6.66699 0 -14.167 3.33301 -22.5 10s-19.5 13.834 -33.5 21.501
s-31.333 14.667 -52 21s-46 9.5 -76 9.5c-36 0 -69.167 -6.33301 -99.5 -19s-56.166 -30.834 -77.499 -54.501s-38 -52.667 -50 -87s-18 -73.166 -18 -116.499c0 -44 6.16699 -83.167 18.5 -117.5s29.333 -63.5 51 -87.5s47.5 -42.167 77.5 -54.5s61.667 -18.5 95 -18.5
c21.333 0 40.333 1.16699 57 3.5s32 6.16602 46 11.499s27.333 12 40 20s25 17.333 37 28c2.66699 2.66699 5.5 4.66699 8.5 6s6.16699 2 9.5 2z" />
    <glyph glyph-name="D" unicode="D" horiz-adv-x="760" 
d="M714 359c0 -53.333 -8.66699 -102.172 -26 -146.505s-41.5 -82.166 -72.5 -113.499s-68.333 -55.666 -112 -72.999s-92.167 -26 -145.5 -26h-268v718h268c53.333 0 101.833 -8.66699 145.5 -26s81 -41.666 112 -72.999s55.167 -69.166 72.5 -113.499
s26 -93.166 26 -146.499zM608 358.994c0 42.667 -5.66602 81.168 -16.999 115.501s-28 63.166 -50 86.499s-48.333 41.333 -79 54s-65.334 19 -104.001 19h-165v-550h165c38 0 72.5 6.16699 103.5 18.5s57.5 30.333 79.5 54s38.667 52.5 50 86.5s17 72.667 17 116z" />
    <glyph glyph-name="E" unicode="E" horiz-adv-x="577" 
d="M534 718v-84h-341v-232h275v-80h-275v-238h341v-84h-444v718h444z" />
    <glyph glyph-name="F" unicode="F" horiz-adv-x="565" 
d="M534 718v-84h-341v-244h291v-84h-291v-306h-103v718h444z" />
    <glyph glyph-name="G" unicode="G" horiz-adv-x="729" 
d="M674 70c-36 -26 -74.499 -45.501 -115.499 -58.501c-41.667 -13 -86.5 -19.5 -134.5 -19.5c-57.333 0 -109.333 9 -156 27s-86.5 43.167 -119.5 75.5s-58.333 71 -76 116s-26.5 94.5 -26.5 148.5c0 54.667 8.5 104.5 25.5 149.5s41.5 83.5 73.5 115.5s70.667 57 116 75
c46 18 97 27 153 27c28.667 0 55.167 -2.33301 79.5 -7s46.833 -10.834 67.5 -18.501s40 -17 58 -28s34.333 -23.833 49 -38.5l-28 -46c-4.66699 -7.33301 -10.834 -12 -18.501 -14s-15.834 -0.333008 -24.501 5s-18.334 11.166 -29.001 17.499s-23.167 12.5 -37.5 18.5
s-31.333 11 -51 15s-42.834 6 -69.501 6c-40 0 -76 -6.5 -108 -19.5s-59.167 -31.5 -81.5 -55.5s-39.666 -53.167 -51.999 -87.5s-18.5 -72.5 -18.5 -114.5c0 -44.667 6.33301 -84.5 19 -119.5s30.834 -64.667 54.501 -89s52.334 -42.833 86.001 -55.5s71.167 -19 112.5 -19
c16 0 31 0.833008 45 2.5s27.333 4.33398 40 8.00098s25 7.83398 37 12.501s24 10.334 36 17.001v153h-107c-6.66699 0 -12.167 1.83301 -16.5 5.5s-6.5 8.5 -6.5 14.5v59h224v-278v0z" />
    <glyph glyph-name="H" unicode="H" horiz-adv-x="765" 
d="M675 0h-103v324h-379v-324h-103v718h103v-318h379v318h103v-718z" />
    <glyph glyph-name="I" unicode="I" horiz-adv-x="283" 
d="M193 0h-103v718h103v-718z" />
    <glyph glyph-name="J" unicode="J" horiz-adv-x="423" 
d="M342 250c0 -40 -5.00293 -76.001 -15.0029 -108.001s-24.667 -59 -44 -81s-43.166 -39 -71.499 -51s-60.833 -18 -97.5 -18c-33.333 0 -67.333 4.66699 -102 14l6 61c0.666992 5.33301 2.83398 10 6.50098 14s8.83398 6 15.501 6c6 0 14 -1.5 24 -4.5
c10.667 -3 24 -4.5 40 -4.5c21.333 0 40.333 3.33301 57 10s30.667 16.834 42 30.501s20 31 26 52s9 46.5 9 76.5v471h104v-468z" />
    <glyph glyph-name="K" unicode="K" horiz-adv-x="666" 
d="M192 406l35.9971 0.000976562c12.667 0 22.834 1.66699 30.501 5s14.834 8.66602 21.501 15.999l232 267c6.66699 8.66699 14 14.834 22 18.501s17.333 5.5 28 5.5h88l-268 -307c-13.333 -16 -26.666 -27.333 -39.999 -34c18.667 -6.66699 34.667 -19.334 48 -38.001
l278 -339h-89c-13.333 0 -23.166 2 -29.499 6s-11.833 9.33301 -16.5 16l-240 281c-6.66699 8 -13.834 13.833 -21.501 17.5s-19.5 5.5 -35.5 5.5h-44v-326h-102v718h102v-312z" />
    <glyph glyph-name="L" unicode="L" horiz-adv-x="514" 
d="M192 87h307v-87h-409v718h102v-631z" />
    <glyph glyph-name="M" unicode="M" horiz-adv-x="931" 
d="M444 266c8 -16.667 15.999 -34.666 23.999 -53.999c4 9.33301 7.66699 18.666 11 27.999s7.66602 18.333 12.999 27l238 433c4 8 8.66699 13 14 15s12.333 3 21 3h77v-718h-91v516c0 7.33301 0.166992 15.166 0.5 23.499s0.833008 16.833 1.5 25.5l-241 -441
c-4 -8 -9.16699 -14 -15.5 -18s-13.5 -6 -21.5 -6h-15c-17.333 0 -29.666 8 -36.999 24l-246 443c0.666992 -9.33301 1.33398 -18.166 2.00098 -26.499s1 -16.5 1 -24.5v-516h-90v718h76c9.33301 0 16.5 -1 21.5 -3c5.66699 -2 10.5 -7 14.5 -15l242 -434v0z" />
    <glyph glyph-name="N" unicode="N" horiz-adv-x="765" 
d="M143 718c9.33301 0 16.1689 -1.00098 20.502 -3.00098s9.16602 -7 14.499 -15l409 -530c-0.666992 9.33301 -1.33398 18.5 -2.00098 27.5c-0.666992 8.33301 -1 16.5 -1 24.5v496h91v-718h-52c-8 0 -14.833 1.33301 -20.5 4s-11.167 7.33398 -16.5 14.001l-408 530
c0.666992 -8.66699 1.16699 -17.167 1.5 -25.5s0.5 -16.5 0.5 -24.5v-498h-90v718h53v0z" />
    <glyph glyph-name="O" unicode="O" horiz-adv-x="801" 
d="M756 359c0 -53.333 -8.6709 -102.501 -26.0039 -147.501s-41.333 -83.833 -72 -116.5s-68 -58 -112 -76s-92.333 -27 -145 -27c-53.333 0 -101.666 9 -144.999 27s-80.666 43.333 -111.999 76s-55.5 71.334 -72.5 116.001s-25.5 94 -25.5 148
c0 53.333 8.5 102.5 25.5 147.5s41.167 83.667 72.5 116s68.833 57.666 112.5 75.999s91.834 27.5 144.501 27.5c53.333 0 101.833 -9.16699 145.5 -27.5s80.834 -43.666 111.501 -75.999s54.667 -71 72 -116s26 -94.167 26 -147.5zM649.996 358.999
c0 42.667 -5.66699 81.167 -17 115.5s-28 63.5 -50 87.5s-48.333 42.333 -79 55s-65 19 -103 19s-72.333 -6.33301 -103 -19s-57 -31 -79 -55s-39 -53 -51 -87s-18 -72.667 -18 -116s6 -82.166 18 -116.499s29 -63.333 51 -87s48.333 -41.834 79 -54.501s65 -19 103 -19
s72.333 6.33301 103 19s57 30.834 79 54.501s38.667 52.667 50 87s17 73.166 17 116.499z" />
    <glyph glyph-name="P" unicode="P" horiz-adv-x="603" 
d="M192 266l0.000976562 -265.998h-102v718h215c45.333 0 85 -5.33301 119 -16s62.167 -25.834 84.5 -45.501s38.833 -43.334 49.5 -71.001s16 -58.167 16 -91.5s-5.66699 -64 -17 -92s-28.333 -52.167 -51 -72.5s-50.834 -36 -84.501 -47s-72.5 -16.5 -116.5 -16.5h-113z
M192.001 348.002l113 0.00195312c26.667 0 50.5 3.5 71.5 10.5s38.5 17 52.5 30s24.667 28.5 32 46.5s11 37.667 11 59c0 22.667 -3.5 42.667 -10.5 60s-17.333 32.166 -31 44.499s-31 21.666 -52 27.999s-45.5 9.5 -73.5 9.5h-113v-288z" />
    <glyph glyph-name="Q" unicode="Q" horiz-adv-x="802" 
d="M756 359c0 -33.333 -3.33008 -65.1689 -9.99707 -95.502s-16.334 -58.5 -29.001 -84.5s-28.334 -49.667 -47.001 -71s-39.667 -40 -63 -56l183 -198h-84c-12.667 0 -24 1.66699 -34 5c-10.667 3.33301 -20 9.33301 -28 18l-122 133
c-18.667 -5.33301 -38 -9.66602 -58 -12.999s-40.667 -5 -62 -5c-53.333 0 -101.666 9 -144.999 27s-80.666 43.333 -111.999 76s-55.666 71.334 -72.999 116.001s-26 94 -26 148c0 53.333 8.66699 102.5 26 147.5s41.666 83.667 72.999 116s68.666 57.666 111.999 75.999
s91.666 27.5 144.999 27.5s101.666 -9.16699 144.999 -27.5s80.5 -43.666 111.5 -75.999s55 -71 72 -116s25.5 -94.167 25.5 -147.5zM651.003 358.997c0 42.667 -5.83398 81.167 -17.501 115.5s-28.5 63.5 -50.5 87.5s-48.333 42.333 -79 55s-64.667 19 -102 19
c-38 0 -72.5 -6.33301 -103.5 -19s-57.5 -31 -79.5 -55s-38.833 -53 -50.5 -87s-17.5 -72.667 -17.5 -116s5.83301 -82.166 17.5 -116.499s28.5 -63.333 50.5 -87s48.333 -41.834 79 -54.501s65.334 -19 104.001 -19c38 0 72.167 6.33301 102.5 19s56.5 30.834 78.5 54.501
s38.833 52.667 50.5 87s17.5 73.166 17.5 116.499z" />
    <glyph glyph-name="R" unicode="R" horiz-adv-x="629" 
d="M192 296v-295.998h-102v718h205c46 0 85.667 -4.66699 119 -14s61 -22.833 83 -40.5s38 -38.834 48 -63.501c10 -24 15 -51.333 15 -82c0 -25.333 -3.83301 -49 -11.5 -71s-19 -41.833 -34 -59.5s-33.167 -32.834 -54.5 -45.501c-21.333 -12 -45.666 -21.333 -72.999 -28
c12.667 -8 23.667 -19 33 -33l205 -281h-92c-18.667 0 -32.334 7.33301 -41.001 22l-180 252c-5.33301 8 -11.333 13.667 -18 17s-16.667 5 -30 5h-72zM192 372.002l99.999 0.000976562c28 0 52.333 3.33301 73 10s38 16 52 28s24.667 26.5 32 43.5s11 35.833 11 56.5
c0 41.333 -13.667 72.666 -41 93.999s-68.666 32 -123.999 32h-103v-264z" />
    <glyph glyph-name="S" unicode="S" horiz-adv-x="543" 
d="M459 602c-2.66699 -5.33301 -5.83203 -9.33691 -9.49902 -12.0039s-8.16699 -4 -13.5 -4c-6 0 -12.833 2.83301 -20.5 8.5s-17.334 12 -29.001 19s-25.5 13.167 -41.5 18.5c-15.333 5.33301 -34.333 8 -57 8c-21.333 0 -40.166 -2.66699 -56.499 -8s-30 -13 -41 -23
s-19.167 -21.5 -24.5 -34.5s-8 -27.167 -8 -42.5c0 -20 5 -36.333 15 -49s23 -23.5 39 -32.5s34.167 -16.833 54.5 -23.5s41.166 -13.667 62.499 -21s42.166 -15.5 62.499 -24.5s38.5 -20.667 54.5 -35s29 -31.666 39 -51.999s15 -45.5 15 -75.5
c0 -32 -5.33301 -61.667 -16 -89s-26.334 -51.166 -47.001 -71.499s-46 -36.5 -76 -48.5s-64.333 -18 -103 -18c-22.667 0 -44.834 2.33301 -66.501 7s-42 11 -61 19s-37 17.667 -54 29s-32.167 24.333 -45.5 39l30 49c2.66699 4 6.16699 7.16699 10.5 9.5
s8.83301 3.5 13.5 3.5c6.66699 0 14.667 -3.66699 24 -11s20.833 -15.333 34.5 -24s29.834 -16.667 48.501 -24s41.667 -11 69 -11c22.667 0 42.834 3 60.501 9s32.5 14.5 44.5 25.5s21.167 24.333 27.5 40s9.5 32.834 9.5 51.501c0 21.333 -4.83301 38.833 -14.5 52.5
s-22.5 25 -38.5 34s-34.333 16.667 -55 23s-41.667 13 -63 20s-42.166 14.833 -62.499 23.5s-38.5 20.334 -54.5 35.001s-28.833 32.834 -38.5 54.501s-14.5 48.5 -14.5 80.5c0 25.333 5 50 15 74s24.333 45.167 43 63.5s42 33.166 70 44.499s60 17 96 17
c40 0 76.833 -6.33301 110.5 -19c33 -12.667 62.167 -31 87.5 -55z" />
    <glyph glyph-name="T" unicode="T" horiz-adv-x="592" 
d="M578 718v-87h-230v-631h-103v631h-230v87h563z" />
    <glyph glyph-name="U" unicode="U" horiz-adv-x="737" 
d="M368 82c29.333 0 55.334 4.99902 78.001 14.999s42 23.833 58 41.5s28.167 38.667 36.5 63s12.5 51.5 12.5 81.5v435h103v-435c0 -41.333 -6.66699 -79.833 -20 -115.5s-32.333 -66.5 -57 -92.5s-54.834 -46.333 -90.501 -61c-36.333 -14.667 -76.5 -22 -120.5 -22
c-44.667 0 -84.667 7.33301 -120 22s-65.5 35 -90.5 61s-44.167 56.667 -57.5 92s-20 74 -20 116v435h104v-435c0 -29.333 4 -56.166 12 -80.499s20 -45.5 36 -63.5s35.333 -32 58 -42s48.667 -15 78 -15z" />
    <glyph glyph-name="V" unicode="V" horiz-adv-x="680" 
d="M2 718l82 0.000976562c9.33301 0 16.833 -2.33301 22.5 -7s9.83398 -10.667 12.501 -18l197 -493c4.66699 -12 9.16699 -25 13.5 -39s8.16602 -29 11.499 -45c3.33301 15.333 7 30.166 11 44.499s8 27.5 12 39.5l197 493c2 6.66699 6 12.5 12 17.5s13.667 7.5 23 7.5h82
l-292 -718h-92z" />
    <glyph glyph-name="W" unicode="W" horiz-adv-x="1038" 
d="M14 718l86 0.00195312c9.33301 0 17 -2.33301 23 -7s10.333 -10.667 13 -18l143 -486c2.66699 -9.33301 5 -19.5 7 -30.5c1.33301 -11 3.33301 -22.5 6 -34.5c2.66699 12 5.33398 23.5 8.00098 34.5s5.33398 21.167 8.00098 30.5l164 486
c2 6.66699 6.16699 12.5 12.5 17.5s14.166 7.5 23.499 7.5h30c9.33301 0 16.666 -2.33301 21.999 -7s9.33301 -10.667 12 -18l164 -486c6.66699 -18.667 12 -39.334 16 -62.001c1.33301 12 3.16602 23.167 5.49902 33.5c1.66699 10.333 3.83398 19.833 6.50098 28.5l144 486
c1.33301 6.66699 5.33301 12.5 12 17.5s14.667 7.5 24 7.5h80l-224 -718h-92l-178 537c-1.33301 5.33301 -3 11.166 -5 17.499s-3.66699 12.833 -5 19.5c-2.66699 -14 -6 -26.333 -10 -37l-179 -537h-93z" />
    <glyph glyph-name="X" unicode="X" horiz-adv-x="652" 
d="M254 369l-236.002 348.999h104c7.33301 0 12.666 -1.33301 15.999 -4s6.33301 -6 9 -10l183 -284c1.33301 4 2.83301 8 4.5 12s3.83398 8 6.50098 12l172 258c6 10.667 13.667 16 23 16h100l-238 -345l245 -373h-103c-8 0 -14 2 -18 6s-7.33301 8.66699 -10 14l-188 296
c-1.33301 -4 -2.66602 -7.66699 -3.99902 -11s-3 -6.66602 -5 -9.99902l-183 -275c-3.33301 -4.66699 -7.16602 -9.16699 -11.499 -13.5s-9.83301 -6.5 -16.5 -6.5h-96z" />
    <glyph glyph-name="Y" unicode="Y" horiz-adv-x="628" 
d="M366 284v-283.999h-104v284l-262 434h90c9.33301 0 16.666 -2.33301 21.999 -7s10 -10.334 14 -17.001l158 -272c6.66699 -12 12.5 -23.333 17.5 -34s9.5 -21.334 13.5 -32.001c4 10.667 8.33301 21.334 13 32.001s10 22 16 34l158 272c3.33301 6 7.83301 11.5 13.5 16.5
s12.834 7.5 21.501 7.5h91z" />
    <glyph glyph-name="Z" unicode="Z" horiz-adv-x="602" 
d="M571 718l0.000976562 -37.999c-0.666992 -12 -4.33398 -23.333 -11.001 -34l-400 -562h404v-84h-538v40c0 5.33301 0.833008 10.666 2.5 15.999c2.33301 5.33301 4.83301 10 7.5 14l400 564h-391v84h526z" />
    <glyph glyph-name="bracketleft" unicode="[" horiz-adv-x="307" 
d="M90 -146v914.001h187v-38c0 -6.66699 -2.5 -12.5 -7.5 -17.5s-11.167 -7.5 -18.5 -7.5h-82v-789h82c8 0 14.333 -2.33301 19 -7s7 -10.334 7 -17.001v-38h-187z" />
    <glyph glyph-name="backslash" unicode="\" horiz-adv-x="454" 
d="M32 738h41c12 0 22.167 -3 30.5 -9s14.5 -14.667 18.5 -26l300 -749h-40c-10 0 -20 3 -30 9s-17.333 15.333 -22 28z" />
    <glyph glyph-name="bracketright" unicode="]" horiz-adv-x="307" 
d="M30 -146v37.999c0 6.66699 2.33301 12.334 7 17.001s11 7 19 7h82v789h-82c-8 0 -14.333 2.5 -19 7.5s-7 10.833 -7 17.5v38h188v-914h-188z" />
    <glyph glyph-name="asciicircum" unicode="^" horiz-adv-x="580" 
d="M516 346l-68 0.00195312c-6 0 -11.167 1.66699 -15.5 5s-7.83301 7.66602 -10.5 12.999l-112 216c-8 17.333 -14.667 34.333 -20 51c-5.33301 -16.667 -12 -33.667 -20 -51l-107 -216c-2.66699 -4.66699 -6.16699 -8.83398 -10.5 -12.501s-9.83301 -5.5 -16.5 -5.5h-72
l194 372h61z" />
    <glyph glyph-name="underscore" unicode="_" horiz-adv-x="460" 
d="M427 -80v-64h-394v64h394z" />
    <glyph glyph-name="grave" unicode="`" 
d="M151 726c11.333 0 19.668 -2 25.001 -6s10.666 -9.66699 15.999 -17l74 -121h-54c-7.33301 0 -13.5 1 -18.5 3s-9.83301 5.66699 -14.5 11l-117 130h89z" />
    <glyph glyph-name="a" unicode="a" horiz-adv-x="499" 
d="M394 0c-9.33301 0 -16.665 1.50293 -21.998 4.50293s-9.33301 8.83301 -12 17.5l-10 46c-13.333 -12 -26.333 -22.833 -39 -32.5s-26 -17.667 -40 -24s-28.667 -11.166 -44 -14.499s-33 -5 -53 -5s-38.667 2.66699 -56 8s-32.333 13.666 -45 24.999
s-22.667 25.5 -30 42.5c-7.33301 17.667 -11 37.834 -11 60.501c0 20 5.33301 39 16 57s28.334 34.333 53.001 49s56.667 26.667 96 36s87.666 14.666 144.999 15.999v38c0 38.667 -8.16699 67.667 -24.5 87s-40.5 29 -72.5 29c-21.333 0 -39.333 -2.66699 -54 -8
s-27.167 -11.333 -37.5 -18s-19.5 -12.667 -27.5 -18s-16 -8 -24 -8c-6.66699 0 -12.334 1.66699 -17.001 5s-8.66699 7.66602 -12 12.999l-17 30c28 26.667 58.5 46.667 91.5 60c32.333 13.333 68.5 20 108.5 20c28.667 0 54.167 -4.66699 76.5 -14
s41.166 -22.333 56.499 -39s27 -36.834 35 -60.501s12 -49.834 12 -78.501v-324h-42zM203.001 58.0029c14.667 0 28.5 1.66602 41.5 4.99902s25.167 7.66602 36.5 12.999s22 12.166 32 20.499c10 7.66699 19.667 16.834 29 27.501v102c-40 -1.33301 -74 -4.33301 -102 -9
s-50.667 -11 -68 -19s-30 -17.667 -38 -29s-12 -23.666 -12 -36.999s2 -24.666 6 -33.999s9.66699 -16.833 17 -22.5s16 -10 26 -13s20.667 -4.5 32 -4.5z" />
    <glyph glyph-name="b" unicode="b" horiz-adv-x="561" 
d="M69 0l-0.000976562 738h95v-302c21.333 24 45.333 43.333 72 58s57.334 22 92.001 22c29.333 0 56 -5.83301 80 -17.5s44.333 -28.167 61 -49.5s29.334 -47.5 38.001 -78.5s13 -65.5 13 -103.5c0 -41.333 -5 -78.833 -15 -112.5s-24.5 -62.5 -43.5 -86.5
s-42 -42.5 -69 -55.5s-57.167 -19.5 -90.5 -19.5s-61.333 6.16699 -84 18.5s-42.334 29.833 -59.001 52.5l-5 -44c-2.66699 -13.333 -10.667 -20 -24 -20h-61zM295.999 440c-28 0 -52.501 -6.33398 -73.501 -19.001s-40.5 -31 -58.5 -55v-242
c16 -21.333 33.5 -36.333 52.5 -45c18.333 -8.66699 38.833 -13 61.5 -13c46.667 0 82.334 16.333 107.001 49s37 82.334 37 149.001c0 60.667 -11 105.167 -33 133.5s-53 42.5 -93 42.5z" />
    <glyph glyph-name="c" unicode="c" horiz-adv-x="478" 
d="M424 414c-2.66699 -4 -5.33301 -6.99707 -8 -8.99707s-6.66699 -3 -12 -3s-11 2.16699 -17 6.5s-13.333 9 -22 14s-19.334 9.5 -32.001 13.5s-28.334 6 -47.001 6c-24 0 -45.333 -4.33301 -64 -13s-34.334 -21.167 -47.001 -37.5s-22 -36 -28 -59s-9 -49.167 -9 -78.5
c0 -30 3.33301 -56.5 10 -79.5s16.334 -42.5 29.001 -58.5s27.834 -28.333 45.501 -37s37.5 -13 59.5 -13c21.333 0 38.833 2.66699 52.5 8s25 11 34 17s16.5 11.667 22.5 17s12.333 8 19 8c8 0 14 -3.33301 18 -10l27 -34c-12 -14 -25.167 -26 -39.5 -36
s-29.5 -18.167 -45.5 -24.5s-33 -11 -51 -14s-36 -4.5 -54 -4.5c-32 0 -61.5 5.83301 -88.5 17.5s-50.667 28.667 -71 51s-36.333 49.666 -48 81.999s-17.5 69.166 -17.5 110.499c0 37.333 5.33301 72 16 104s26.167 59.667 46.5 83s45.333 41.666 75 54.999
s63.834 20 102.501 20c36 0 68 -6 96 -18s52.333 -28.333 73 -49z" />
    <glyph glyph-name="d" unicode="d" horiz-adv-x="561" 
d="M436 0c-13.333 0 -22 6.33398 -26 19.001l-8 59c-10.667 -13.333 -22.167 -25 -34.5 -35s-25.5 -18.833 -39.5 -26.5s-28.833 -13.5 -44.5 -17.5s-32.5 -6 -50.5 -6c-29.333 0 -55.666 5.5 -78.999 16.5s-43.5 27.5 -60.5 49.5s-29.833 49.167 -38.5 81.5
s-13 69.5 -13 111.5c0 37.333 5 72.166 15 104.499s24.333 60.333 43 84s41.667 42.167 69 55.5s57.666 20 90.999 20c30.667 0 57 -5 79 -15s41.667 -24.333 59 -43v280h94v-738h-56zM264 70.001c28 0 52.667 6.33496 74 19.002s41.333 31 60 55v242
c-16 21.333 -33.667 36.166 -53 44.499s-40.333 12.5 -63 12.5c-45.333 0 -80.333 -16.333 -105 -49s-37 -80 -37 -142c0 -32 2.66699 -59.667 8 -83s13.333 -42.333 24 -57s23.667 -25.334 39 -32.001s33 -10 53 -10z" />
    <glyph glyph-name="e" unicode="e" horiz-adv-x="529" 
d="M278 516c30.667 0 58.999 -5.16797 84.999 -15.501s48.667 -25.166 68 -44.499s34.333 -43.166 45 -71.499s16 -60.5 16 -96.5c0 -14.667 -1.66699 -24.5 -5 -29.5s-9.33301 -7.5 -18 -7.5h-335c1.33301 -30.667 5.83301 -57.5 13.5 -80.5s18.334 -42.167 32.001 -57.5
s29.834 -26.666 48.501 -33.999s40 -11 64 -11c22 0 40.833 2.33301 56.5 7s29.167 10 40.5 16s21 11.667 29 17s15.333 8 22 8c8 0 13.667 -3.33301 17 -10l27 -34c-12 -14 -25.667 -25.833 -41 -35.5s-31.666 -17.834 -48.999 -24.501s-35.5 -11.5 -54.5 -14.5
c-18.333 -3 -36.833 -4.5 -55.5 -4.5c-34.667 0 -67 5.83301 -97 17.5s-56 29 -78 52s-39 51.333 -51 85s-18 72.5 -18 116.5c0 35.333 5.5 68.333 16.5 99s26.667 57.167 47 79.5s45.166 40.166 74.499 53.499s62.666 20 99.999 20zM279.999 445.999
c-41.333 0 -74 -12 -98 -36s-39 -57.333 -45 -100h269c0 20 -2.66699 38.333 -8 55s-13.5 31 -24.5 43s-24.333 21.333 -40 28s-33.5 10 -53.5 10z" />
    <glyph glyph-name="f" unicode="f" horiz-adv-x="351" 
d="M102 0l-0.00195312 429.001l-54 7c-8 1.33301 -14.167 3.83301 -18.5 7.5c-4.33301 4.33301 -6.5 9.83301 -6.5 16.5v39h79v47c0 29.333 4.33301 55.333 13 78s20.667 41.667 36 57s33.833 27 55.5 35c22.333 8 46.833 12 73.5 12c10.667 0 21.334 -0.666992 32.001 -2
s20.667 -3.66602 30 -6.99902l-2 -48c0 -4 -1.16699 -7.16699 -3.5 -9.5s-5.5 -3.83301 -9.5 -4.5s-8.66699 -1 -14 -1h-18c-15.333 0 -29.166 -2 -41.499 -6s-23 -10.333 -32 -19s-15.833 -20.334 -20.5 -35.001s-7 -32.334 -7 -53.001v-44h144v-69h-140v-430h-96z" />
    <glyph glyph-name="g" unicode="g" horiz-adv-x="521" 
d="M247 516c22 0 42.333 -2.32129 61 -6.98828s36 -11.667 52 -21h140v-35c0 -12.667 -7.33301 -20.334 -22 -23.001l-55 -8c10 -21.333 15 -44.666 15 -69.999s-4.66699 -47.833 -14 -67.5s-22.5 -36.667 -39.5 -51s-37.333 -25.333 -61 -33s-49.167 -11.5 -76.5 -11.5
c-23.333 -0.666992 -45 1.66602 -65 6.99902c-21.333 -13.333 -32 -27.333 -32 -42c0 -12 5 -20.667 15 -26s23 -9.33301 39 -12s34.167 -4.33398 54.5 -5.00098s41.166 -1.83398 62.499 -3.50098s42.166 -4.33398 62.499 -8.00098s38.5 -9.83398 54.5 -18.501
s29 -20.334 39 -35.001s15 -33.667 15 -57c0 -22 -5.5 -43.333 -16.5 -64s-26.667 -38.834 -47 -54.501s-45.5 -28.334 -75.5 -38.001s-63.667 -14.5 -101 -14.5s-69.833 3.66699 -97.5 11s-50.667 17.166 -69 29.499s-32.166 26.666 -41.499 42.999s-14 33.166 -14 50.499
c0 25.333 7.66699 46.5 23 63.5c15.333 17.667 36.666 31.167 63.999 40.5c-14.667 6.66699 -26.5 15.667 -35.5 27s-13.5 26.333 -13.5 45c0 7.33301 1.33301 15 4 23s6.83398 15.833 12.501 23.5s12.667 15.167 21 22.5s17.833 13.666 28.5 18.999
c-25.333 14 -45.166 32.5 -59.499 55.5s-21.5 49.833 -21.5 80.5c0 25.333 4.83301 48 14.5 68s23.167 37.167 40.5 51.5s37.833 25.333 61.5 33s49.5 11.5 77.5 11.5zM404 -25.9883c0 12 -3.33496 21.666 -10.002 28.999s-16 13 -28 17s-25.667 7 -41 9
s-31.333 3.33301 -48 4s-34 1.66699 -52 3s-35 3 -51 5c-18 -8.66699 -32.833 -19.334 -44.5 -32.001s-17.5 -27.667 -17.5 -45c0 -10.667 3 -20.667 9 -30s14.667 -17.5 26 -24.5s26 -12.5 44 -16.5s39 -6 63 -6s45.333 2.16699 64 6.5s34.334 10.333 47.001 18
s22.334 16.834 29.001 27.501s10 22.334 10 35.001zM246.998 252.011c17.333 0 32.832 2.33301 46.499 7s24.834 11.334 33.501 20.001s15.334 19 20.001 31s7 25.333 7 40c0 30 -9 53.833 -27 71.5s-44.667 26.5 -80 26.5c-34.667 0 -61.167 -8.83301 -79.5 -26.5
s-27.5 -41.5 -27.5 -71.5c0 -14.667 2.33301 -28 7 -40s11.5 -22.333 20.5 -31s20.167 -15.334 33.5 -20.001s28.666 -7 45.999 -7z" />
    <glyph glyph-name="h" unicode="h" horiz-adv-x="559" 
d="M69 0v738h95v-296c21.333 22 45 39.833 71 53.5s56 20.5 90 20.5c28 0 52.5 -4.66699 73.5 -14s38.667 -22.5 53 -39.5s25.166 -37.333 32.499 -61s11 -49.5 11 -77.5v-324h-95v324c0 36.667 -8.5 65.167 -25.5 85.5s-42.833 30.5 -77.5 30.5
c-25.333 0 -49.166 -6 -71.499 -18s-42.833 -28.667 -61.5 -50v-372h-95z" />
    <glyph glyph-name="i" unicode="i" horiz-adv-x="242" 
d="M168 508v-508h-94v508h94zM187 665c0 -9.33301 -1.83301 -17.833 -5.5 -25.5s-8.5 -14.5 -14.5 -20.5s-13 -10.667 -21 -14s-16.667 -5 -26 -5c-8.66699 0 -16.834 1.66699 -24.501 5s-14.5 8 -20.5 14s-10.833 13 -14.5 21s-5.5 16.333 -5.5 25
c0 9.33301 1.83301 18 5.5 26s8.5 15 14.5 21s12.833 10.833 20.5 14.5s15.834 5.5 24.501 5.5c9.33301 0 18 -1.83301 26 -5.5s15 -8.5 21 -14.5s10.833 -13 14.5 -21s5.5 -16.667 5.5 -26z" />
    <glyph glyph-name="j" unicode="j" horiz-adv-x="242" 
d="M168 508l0.00195312 -542c0 -20.667 -2.66699 -40 -8 -58s-13.833 -33.5 -25.5 -46.5s-26.834 -23.5 -45.501 -31.5s-41 -12 -67 -12c-10.667 0 -20.667 0.833008 -30 2.5s-18.666 4.16699 -27.999 7.5l4 52c0.666992 2.66699 1.66699 4.66699 3 6
s3.16602 2.33301 5.49902 3s5.66602 1 9.99902 1h15.5c26 0 44.5 6 55.5 18s16.5 31.333 16.5 58v542h94zM187.002 665c0 -9.33301 -1.83301 -17.833 -5.5 -25.5s-8.5 -14.5 -14.5 -20.5s-13 -10.667 -21 -14s-16.667 -5 -26 -5s-17.833 1.66699 -25.5 5
s-14.334 8 -20.001 14s-10.334 13 -14.001 21s-5.5 16.333 -5.5 25c0 9.33301 1.83301 18 5.5 26s8.33398 15 14.001 21s12.334 10.833 20.001 14.5s16.167 5.5 25.5 5.5s18 -1.83301 26 -5.5s15 -8.5 21 -14.5s10.833 -13 14.5 -21s5.5 -16.667 5.5 -26z" />
    <glyph glyph-name="k" unicode="k" horiz-adv-x="512" 
d="M164 738l-0.00195312 -432.001h23c6.66699 0 12.334 1 17.001 3c4 2 8.66699 5.66699 14 11l156 169c4.66699 6 9.66699 10.667 15 14s12.333 5 21 5h86l-182 -198c-9.33301 -12 -19.333 -21.333 -30 -28c6.66699 -4 12.334 -8.66699 17.001 -14s9 -11.333 13 -18
l194 -250h-85c-8 0 -14.833 1.33301 -20.5 4s-10.5 7.33398 -14.5 14.001l-161 206c-5.33301 7.33301 -10.333 12 -15 14s-12 3 -22 3h-26v-241h-95v738h95z" />
    <glyph glyph-name="l" unicode="l" horiz-adv-x="238" 
d="M166 738v-738h-94v738h94z" />
    <glyph glyph-name="m" unicode="m" horiz-adv-x="825" 
d="M69 0l0.00195312 508h57c13.333 0 21.666 -6.66699 24.999 -20l7 -49c18.667 22.667 39.334 41.167 62.001 55.5s49.334 21.5 80.001 21.5c34 0 61.5 -9.33301 82.5 -28s36.167 -44 45.5 -76c7.33301 18 16.833 33.5 28.5 46.5s24.834 23.833 39.501 32.5s30 15 46 19
s32.333 6 49 6c54.667 0 96.834 -16.667 126.501 -50s44.5 -80.666 44.5 -141.999v-324h-96v324c0 38.667 -8.33301 67.667 -25 87s-41 29 -73 29c-14.667 0 -28.334 -2.5 -41.001 -7.5s-23.834 -12.333 -33.501 -22s-17.334 -21.834 -23.001 -36.501
s-8.5 -31.334 -8.5 -50.001v-324h-95v324c0 39.333 -7.83301 68.5 -23.5 87.5s-38.834 28.5 -69.501 28.5c-21.333 0 -41.333 -5.66699 -60 -17s-35.334 -26.666 -50.001 -45.999v-377h-95z" />
    <glyph glyph-name="n" unicode="n" horiz-adv-x="559" 
d="M69 0l0.000976562 508h57c13.333 0 21.666 -6.66699 24.999 -20l7 -52c22 24 46.5 43.333 73.5 58s58.167 22 93.5 22c28 0 52.5 -4.66699 73.5 -14s38.667 -22.5 53 -39.5s25.166 -37.333 32.499 -61s11 -49.5 11 -77.5v-324h-95v324c0 36.667 -8.5 65.167 -25.5 85.5
s-42.833 30.5 -77.5 30.5c-25.333 0 -49.166 -6 -71.499 -18s-42.833 -28.667 -61.5 -50v-372h-95z" />
    <glyph glyph-name="o" unicode="o" horiz-adv-x="568" 
d="M284 516c37.333 0 71 -6.16699 101 -18.5s55.667 -29.833 77 -52.5s37.666 -50.167 48.999 -82.5s17 -68.5 17 -108.5s-5.66699 -76 -17 -108s-27.666 -59.333 -48.999 -82s-47 -40.167 -77 -52.5s-63.667 -18.5 -101 -18.5s-71 6.16699 -101 18.5
s-55.667 29.833 -77 52.5s-37.666 50 -48.999 82s-17 68 -17 108s5.66699 76.167 17 108.5s27.666 59.833 48.999 82.5s47 40.167 77 52.5s63.667 18.5 101 18.5zM284 67c48.667 0 85.167 16.333 109.5 49s36.5 78.667 36.5 138c0 58.667 -12 104.667 -36 138
s-60.667 50 -110 50s-86 -16.667 -110 -50s-36 -79.333 -36 -138c0 -59.333 12 -105.333 36 -138s60.667 -49 110 -49z" />
    <glyph glyph-name="p" unicode="p" horiz-adv-x="562" 
d="M69 -170l0.00292969 677.999h57c13.333 0 21.666 -6.66699 24.999 -20l8 -58c21.333 25.333 45.833 46 73.5 62s59.5 24 95.5 24c29.333 0 55.666 -5.5 78.999 -16.5s43.5 -27.5 60.5 -49.5s30 -49.167 39 -81.5s13.5 -69.166 13.5 -110.499
c0 -37.333 -5 -72.333 -15 -105s-24.5 -60.667 -43.5 -84s-42 -41.833 -69 -55.5s-57.5 -20.5 -91.5 -20.5c-30.667 0 -56.834 5 -78.501 15s-41.167 24.333 -58.5 43v-221h-95zM298.003 439.999c-28.667 0 -53.666 -6.33398 -74.999 -19.001s-41 -31 -59 -55v-242
c16 -21.333 33.333 -36.333 52 -45s40 -13 64 -13c45.333 0 80.333 16.333 105 49s37 80.334 37 143.001c0 32 -2.83301 59.5 -8.5 82.5s-13.834 42 -24.501 57s-23.5 25.833 -38.5 32.5s-32.5 10 -52.5 10z" />
    <glyph glyph-name="q" unicode="q" horiz-adv-x="561" 
d="M492 508v-677.999h-94v243c-21.333 -24 -45.5 -43.333 -72.5 -58s-57.833 -22 -92.5 -22c-29.333 0 -55.666 5.5 -78.999 16.5s-43.5 27.5 -60.5 49.5s-29.833 49.167 -38.5 81.5s-13 69.5 -13 111.5c0 37.333 5 72.166 15 104.499s24.333 60.333 43 84
s41.667 42.167 69 55.5s57.666 20 90.999 20c16 0 31 -1.33301 45 -4s26.833 -7 38.5 -13s22.5 -13 32.5 -21s19.333 -17.333 28 -28l6 38c4 13.333 12.667 20 26 20h56zM264 70.001c28 0 52.667 6.33301 74 19s41.333 31 60 55v242c-16 20.667 -33.667 35.334 -53 44.001
s-40.333 13 -63 13c-45.333 0 -80.333 -16.333 -105 -49s-37 -80 -37 -142c0 -32 2.66699 -59.667 8 -83s13.333 -42.333 24 -57s23.667 -25.334 39 -32.001s33 -10 53 -10z" />
    <glyph glyph-name="r" unicode="r" horiz-adv-x="365" 
d="M69 0l0.00195312 508.001h55c10.667 0 17.667 -2 21 -6s5.66602 -10.667 6.99902 -20l6 -74c16 33.333 35.667 59.666 59 78.999s51.666 29 84.999 29c10.667 0 21 -1 31 -3s18.333 -5.66699 25 -11l-6 -71c-2 -8.66699 -7.33301 -13 -16 -13c-4.66699 0 -11.5 1 -20.5 3
s-19.167 3 -30.5 3c-16 0 -30 -2.33301 -42 -7s-22.833 -11.667 -32.5 -21s-18.167 -20.333 -25.5 -33s-14.333 -27.667 -21 -45v-318h-95z" />
    <glyph glyph-name="s" unicode="s" horiz-adv-x="434" 
d="M367 422c-4.66699 -8 -11.0049 -12.001 -19.0049 -12.001c-5.33301 0 -11.333 1.66699 -18 5s-14.5 7.33301 -23.5 12s-19.667 8.83398 -32 12.501s-27.166 5.5 -44.499 5.5c-14.667 0 -27.667 -1.83301 -39 -5.5s-21.166 -8.66699 -29.499 -15
s-14.666 -13.666 -18.999 -21.999s-6.5 -17.833 -6.5 -28.5c0 -12.667 3.66699 -23.167 11 -31.5s17 -15.5 29 -21.5s26 -11.5 42 -16.5s32 -10.167 48 -15.5s32 -11.5 48 -18.5s30 -15.5 42 -25.5s21.667 -22.167 29 -36.5c7.33301 -15 11 -32.5 11 -52.5
c0 -24 -4.16699 -45.833 -12.5 -65.5s-20.666 -36.834 -36.999 -51.501s-36.5 -26.167 -60.5 -34.5s-52 -12.5 -84 -12.5c-35.333 0 -67.5 5.83301 -96.5 17.5s-53.5 26.5 -73.5 44.5l22 36c2.66699 4.66699 6 8.16699 10 10.5s9 3.5 15 3.5
c6.66699 0 13.167 -2.33301 19.5 -7s14.333 -9.66699 24 -15s21.334 -10.333 35.001 -15s30.5 -7 50.5 -7c17.333 0 32 2.16699 44 6.5s22.333 10 31 17s15 15.5 19 25.5s6 20.333 6 31c0 13.333 -3.83301 24.5 -11.5 33.5s-17.667 16.667 -30 23
s-26.166 11.833 -41.499 16.5s-31.333 9.66699 -48 15s-32.834 11.333 -48.501 18s-29.667 15.334 -42 26.001s-22.166 23.667 -29.499 39s-11 34 -11 56c0 20 4 38.833 12 56.5s19.667 33.5 35 47.5s34.333 25 57 33s48.667 12 78 12c33.333 0 63.666 -5.33301 90.999 -16
s50.333 -25.334 69 -44.001z" />
    <glyph glyph-name="t" unicode="t" horiz-adv-x="360" 
d="M227 -8c-40.667 0 -72.001 11.332 -94.001 33.999s-33 55.334 -33 98.001v306h-60c-5.33301 0 -9.83301 1.66699 -13.5 5s-5.5 8.33301 -5.5 15v38l83 12l21 153c1.33301 5.33301 3.83301 9.5 7.5 12.5s8.5 4.5 14.5 4.5h48v-171h145v-69h-145v-300
c0 -20 4.83301 -35 14.5 -45s22.5 -15 38.5 -15c9.33301 0 17.333 1 24 3s12.334 4.66699 17.001 8s8.66699 6 12 8s6.33301 3 9 3s5 -0.666992 7 -2s4.33301 -3.33301 7 -6l28 -46c-16 -14.667 -35 -26 -57 -34s-44.667 -12 -68 -12z" />
    <glyph glyph-name="u" unicode="u" horiz-adv-x="558" 
d="M159 508l-0.000976562 -324.002c0 -36.667 8.5 -65.167 25.5 -85.5s42.833 -30.5 77.5 -30.5c25.333 0 49 5.83301 71 17.5c22 11 42.667 27.167 62 48.5v374h95v-508h-57c-13.333 0 -21.666 6.33301 -24.999 19l-8 53c-22 -24 -46.333 -43.333 -73 -58
s-57.667 -22 -93 -22c-28 0 -52.667 4.66699 -74 14s-39 22.333 -53 39s-24.667 36.834 -32 60.501s-11 49.834 -11 78.501v324h95z" />
    <glyph glyph-name="v" unicode="v" horiz-adv-x="518" 
d="M302 0l-85.999 0.000976562l-206 508h78c8 0 14.333 -2 19 -6s7.66699 -8.66699 9 -14l124 -316c4 -12.667 7.66699 -25.167 11 -37.5s6.33301 -24.833 9 -37.5c2.66699 12 5.66699 24.167 9 36.5s7 25.166 11 38.499l126 316c1.33301 5.33301 4.66602 10 9.99902 14
s11.333 6 18 6h74z" />
    <glyph glyph-name="w" unicode="w" horiz-adv-x="788" 
d="M15 508h74.9971c8 0 14.333 -2 19 -6s7.66699 -8.66699 9 -14l94 -316c2.66699 -12.667 5.33398 -24.834 8.00098 -36.501s4.66699 -23.5 6 -35.5c2.66699 12 5.83398 23.833 9.50098 35.5c3 11.667 6.5 23.834 10.5 36.501l104 318
c1.33301 5.33301 4.33301 9.83301 9 13.5s10.334 5.5 17.001 5.5h40c6.66699 0 12.5 -1.83301 17.5 -5.5c5.66699 -3.66699 9.16699 -8.16699 10.5 -13.5l101 -318c4 -12.667 7.5 -24.834 10.5 -36.501s5.83301 -23.5 8.5 -35.5c2 12 4.16699 23.833 6.5 35.5
s5.16602 23.834 8.49902 36.501l95 316c2 5.33301 5.5 10 10.5 14s10.833 6 17.5 6h71l-164 -508h-75c-9.33301 0 -15.666 6 -18.999 18l-109 335c-2.66699 8 -5 16 -7 24s-3.66699 16 -5 24c-1.33301 -8 -3 -16.167 -5 -24.5s-4.33301 -16.5 -7 -24.5l-110 -334
c-4 -12 -11.333 -18 -22 -18h-71z" />
    <glyph glyph-name="x" unicode="x" horiz-adv-x="502" 
d="M188 261l-171 246.998h91c8 0 13.667 -1.33301 17 -4s6.33301 -6 9 -10l122 -187c1.33301 4.66699 3 9.33398 5 14.001s4.66699 9.66699 8 15l105 156c2.66699 5.33301 6 9.33301 10 12s8.66699 4 14 4h87l-171 -243l178 -265h-91c-8 0 -14.167 2 -18.5 6
s-7.83301 8.66699 -10.5 14l-124 194c-1.33301 -5.33301 -3 -10.166 -5 -14.499c-2 -3.66699 -4.33301 -7.5 -7 -11.5l-114 -168c-3.33301 -4.66699 -7 -9.16699 -11 -13.5s-9.33301 -6.5 -16 -6.5h-85z" />
    <glyph glyph-name="y" unicode="y" horiz-adv-x="517" 
d="M228 -148c-2.66699 -7.33301 -6.33105 -12.833 -10.998 -16.5s-11.667 -5.5 -21 -5.5h-71l93 201l-209 477h83c8 0 14.333 -2 19 -6s7.66699 -8.66699 9 -14l132 -310c5.33301 -15.333 9.66602 -30.333 12.999 -45c2.66699 8 5.16699 15.833 7.5 23.5
s5.16602 15.5 8.49902 23.5l127 308c2 5.33301 5.5 10 10.5 14s10.833 6 17.5 6h75z" />
    <glyph glyph-name="z" unicode="z" horiz-adv-x="453" 
d="M422 468c0 -6.66699 -1.33301 -13.332 -4 -19.999s-5.66699 -12.334 -9 -17.001l-270 -357h273v-74h-384v40c0 4 1.16699 9.16699 3.5 15.5c3 7 6.5 13.167 10.5 18.5l270 360h-268v74h378v-40z" />
    <glyph glyph-name="braceleft" unicode="{" horiz-adv-x="302" 
d="M100 211c0 21.333 -5.66699 38.5049 -17 51.5049s-28 19.5 -50 19.5v58c22 0 38.667 6.5 50 19.5c11.333 12.333 17 29.166 17 50.499c0 16.667 -1.33301 33.167 -4 49.5s-5.5 32.666 -8.5 48.999s-5.83301 32.666 -8.5 48.999s-4 33.166 -4 50.499
c0 23.333 3.5 44.833 10.5 64.5s17.5 36.5 31.5 50.5s31.5 25 52.5 33s45.5 12 73.5 12h27v-42c0 -6.66699 -2.66699 -11.834 -8 -15.501s-10 -5.5 -14 -5.5h-8c-25.333 0 -45.333 -8.16699 -60 -24.5s-22 -38.5 -22 -66.5c0 -18.667 1.16699 -36.667 3.5 -54
s5 -34.166 8 -50.499s5.5 -32.666 7.5 -48.999s3 -32.5 3 -48.5c0 -12 -1.66699 -23.667 -5 -35s-8.33301 -21.333 -15 -30s-14.667 -16 -24 -22s-20 -10.667 -32 -14c22.667 -6.66699 41 -18.834 55 -36.501s21 -39.167 21 -64.5c0 -16 -1 -32.167 -3 -48.5
s-4.5 -32.666 -7.5 -48.999s-5.66699 -33.166 -8 -50.499s-3.5 -35.333 -3.5 -54c0 -28 7.33301 -50.333 22 -67s34.667 -25 60 -25h8c4 0 8.66699 -1.5 14 -4.5c5.33301 -3.66699 8 -8.83398 8 -15.501v-42h-27c-28 0 -52.5 4 -73.5 12s-38.5 19 -52.5 33
s-24.5 30.667 -31.5 50s-10.5 41 -10.5 65c0 17.333 1.33301 34.166 4 50.499s5.5 32.666 8.5 48.999s5.83301 32.5 8.5 48.5s4 32.333 4 49z" />
    <glyph glyph-name="bar" unicode="|" horiz-adv-x="252" 
d="M90 768h73v-942h-73v942z" />
    <glyph glyph-name="braceright" unicode="}" horiz-adv-x="302" 
d="M202 211c0 -16.667 1.33496 -33 4.00195 -49s5.5 -32.167 8.5 -48.5s5.66699 -32.666 8 -48.999s3.5 -33.166 3.5 -50.499c0 -24 -3.33301 -45.667 -10 -65s-17 -36 -31 -50s-31.5 -25 -52.5 -33s-45.5 -12 -73.5 -12h-27v42c0 6.66699 2.66699 11.667 8 15s10 5 14 5h8
c25.333 0 45.333 8.33301 60 25s22 39 22 67c0 18.667 -1.33301 36.667 -4 54s-5.33398 34.166 -8.00098 50.499s-5 32.666 -7 48.999s-3 32.5 -3 48.5c0 25.333 7 47 21 65s32 30 54 36c-10.667 2.66699 -20.834 7.16699 -30.501 13.5s-17.834 13.833 -24.501 22.5
s-11.667 18.667 -15 30s-5 23 -5 35c0 16 1 32.167 3 48.5s4.33301 32.666 7 48.999s5.33398 33.166 8.00098 50.499s4 35.333 4 54c0 28 -7.33301 50.167 -22 66.5s-34.667 24.5 -60 24.5h-8c-4 0 -8.66699 1.66699 -14 5c-5.33301 4 -8 9.33301 -8 16v42h27
c28 0 52.5 -4 73.5 -12s38.5 -19 52.5 -33s24.333 -30.833 31 -50.5s10 -41.167 10 -64.5c0 -17.333 -1.16699 -34.166 -3.5 -50.499s-5 -32.666 -8 -48.999s-5.83301 -32.5 -8.5 -48.5s-4 -32.667 -4 -50c0 -21.333 5.66699 -38.333 17 -51s28 -19 50 -19v-58
c-22 0 -38.667 -6.5 -50 -19.5s-17 -30.167 -17 -51.5z" />
    <glyph glyph-name="asciitilde" unicode="~" horiz-adv-x="580" 
d="M380 310c21.333 0 38 6.83398 50 20.501c12 14.333 18 32.833 18 55.5h76c0 -22.667 -3 -43.667 -9 -63s-15 -35.833 -27 -49.5s-26.5 -24.334 -43.5 -32.001s-36.5 -11.5 -58.5 -11.5c-17.333 0 -34.333 2.66699 -51 8s-32.834 11.333 -48.501 18s-30.667 12.667 -45 18
s-27.5 8 -39.5 8c-21.333 0 -37.666 -7 -48.999 -21s-17.333 -32.333 -18 -55h-77c0 22.667 3.16699 43.5 9.5 62.5s15.333 35.333 27 49s26.167 24.167 43.5 31.5s37 11 59 11c17.333 0 34.5 -2.66699 51.5 -8s33.167 -11 48.5 -17s30 -11.667 44 -17s27 -8 39 -8z" />
    <glyph glyph-name="exclamdown" unicode="&#xa1;" horiz-adv-x="255" 
d="M83 -170v269c0 14.667 0.333008 29.167 1 43.5s1.5 28.833 2.5 43.5s2.33301 29.667 4 45s3.5 31.666 5.5 48.999h64c2 -17.333 3.83301 -33.666 5.5 -48.999s3 -30.333 4 -45s1.83301 -29 2.5 -43s1 -28.667 1 -44v-269h-90zM62 451
c0 9.33301 1.66895 17.833 5.00195 25.5s7.83301 14.5 13.5 20.5s12.5 10.667 20.5 14c7.33301 3.33301 15.666 5 24.999 5s18 -1.66699 26 -5s14.833 -8 20.5 -14s10.167 -13 13.5 -21s5 -16.333 5 -25c0 -9.33301 -1.66699 -17.833 -5 -25.5s-7.83301 -14.5 -13.5 -20.5
s-12.5 -10.667 -20.5 -14s-16.667 -5 -26 -5s-17.833 1.66699 -25.5 5s-14.334 8 -20.001 14s-10.167 12.833 -13.5 20.5s-5 16.167 -5 25.5z" />
    <glyph glyph-name="cent" unicode="&#xa2;" horiz-adv-x="580" 
d="M279 -5c-30.667 3.33301 -58.8291 11.6719 -84.4961 25.0049s-47.834 31 -66.501 53s-33.334 48.167 -44.001 78.5s-16 64.5 -16 102.5c0 36.667 5.5 70.667 16.5 102s27 58.5 48 81.5s46.833 41.167 77.5 54.5s66 20.666 106 21.999l6 88
c0.666992 6.66699 3.5 12.667 8.5 18s11.167 8 18.5 8h35l-8 -116c27.333 -4 51.833 -11.333 73.5 -22s41.5 -24.334 59.5 -41.001l-25 -33c-2.66699 -4 -5.33398 -7 -8.00098 -9s-6.33398 -3 -11.001 -3c-4 0 -8.83301 1.33301 -14.5 4s-12.167 6 -19.5 10s-16 8 -26 12
s-21.667 7.33301 -35 10l-26 -374c20 1.33301 37 4.66602 51 9.99902s25.667 10.666 35 15.999s17.333 10.333 24 15s12.667 7 18 7c4 0 7.5 -0.833008 10.5 -2.5s5.5 -3.83398 7.5 -6.50098l26 -33c-20.667 -24.667 -46.5 -43.167 -77.5 -55.5s-64.5 -19.833 -100.5 -22.5
l-6 -85c-0.666992 -6.66699 -3.16699 -12.5 -7.5 -17.5s-10.5 -7.5 -18.5 -7.5h-35zM162.005 254.006c0 -52 10.6689 -93.668 32.002 -125.001s51.333 -51 90 -59l27 372c-24.667 -2 -46.334 -7.83301 -65.001 -17.5s-34.334 -22.5 -47.001 -38.5s-22 -35.167 -28 -57.5
s-9 -47.166 -9 -74.499z" />
    <glyph glyph-name="sterling" unicode="&#xa3;" horiz-adv-x="580" 
d="M23 337c0 9.33301 2.83105 17.166 8.49805 23.499s13.834 9.5 24.501 9.5h64v128c0 31.333 4.66699 60.833 14 88.5s23 51.834 41 72.501s40.833 36.834 68.5 48.501c27 11.667 59.167 17.5 96.5 17.5c26 0 49.333 -3.16699 70 -9.5s38.834 -15.166 54.501 -26.499
s29.334 -24.666 41.001 -39.999c12.333 -15.333 22.5 -31.666 30.5 -48.999l-39 -25c-8.66699 -4.66699 -17 -6.66699 -25 -6s-15.667 5 -23 13c-6.66699 8.66699 -13.167 16.834 -19.5 24.501s-13.833 14.167 -22.5 19.5s-18.334 9.66602 -29.001 12.999
s-23.334 5 -38.001 5c-20 0 -37.667 -3.33301 -53 -10s-28.166 -16.334 -38.499 -29.001s-18 -28 -23 -46s-7.5 -38.333 -7.5 -61v-128h217v-38c0 -6.66699 -2.5 -12.667 -7.5 -18s-11.5 -8 -19.5 -8h-190v-117c0 -24 -4.66699 -45.167 -14 -63.5s-22 -34.833 -38 -49.5
c9.33301 2 19 3.5 29 4.5s20.333 1.5 31 1.5h330v-40c0 -4.66699 -1 -9.5 -3 -14.5s-4.66699 -9.5 -8 -13.5s-7.66602 -7.33301 -12.999 -10s-11 -4 -17 -4h-481v61c11.333 3.33301 22.166 7.66602 32.499 12.999s19.5 12.166 27.5 20.499s14.333 18.166 19 29.499
c4.66699 12 7 25.333 7 40v142h-97v31z" />
    <glyph glyph-name="currency" unicode="&#xa4;" horiz-adv-x="580" 
d="M110 336c0 18.667 2.66699 36.502 8 53.502c5.33301 16.333 12.666 31.833 21.999 46.5l-76 76l48 48l76 -76c14.667 10 30.667 17.833 48 23.5s35.333 8.5 54 8.5s36.334 -2.66699 53.001 -8s32.334 -12.666 47.001 -21.999l76 76l48 -48l-76 -76
c9.33301 -14.667 17 -30.667 23 -48s9 -35.333 9 -54s-2.66699 -36.334 -8 -53.001s-12.666 -32.334 -21.999 -47.001l76 -76l-48 -48l-76 76c-14.667 -9.33301 -30.667 -17 -48 -23s-35.333 -9 -54 -9s-36.334 2.66699 -53.001 8s-32.334 12.666 -47.001 21.999l-76 -76
l-48 49l76 75c-10 14.667 -17.833 30.667 -23.5 48s-8.5 35.333 -8.5 54zM181 336.002c0 -14.667 2.83301 -28.667 8.5 -42s13.5 -24.833 23.5 -34.5s21.667 -17.334 35 -23.001s27.333 -8.5 42 -8.5c15.333 0 29.666 2.83301 42.999 8.5s25 13.334 35 23.001
s17.833 21.167 23.5 34.5s8.5 27.333 8.5 42c0 15.333 -2.83301 29.666 -8.5 42.999s-13.5 25 -23.5 35s-21.667 17.833 -35 23.5s-27.666 8.5 -42.999 8.5c-14.667 0 -28.667 -2.83301 -42 -8.5s-25 -13.5 -35 -23.5s-17.833 -21.667 -23.5 -35s-8.5 -27.666 -8.5 -42.999z
" />
    <glyph glyph-name="yen" unicode="&#xa5;" horiz-adv-x="580" 
d="M74 314l149.999 -0.000976562l-202 404h78c9.33301 0 17 -2.16699 23 -6.5c6 -3.66699 10.333 -9.5 13 -17.5l134 -276c4.66699 -12 8.66699 -23.167 12 -33.5c2.66699 -11 5.33398 -21.167 8.00098 -30.5c2.66699 10 5.66699 20.167 9 30.5s7.33301 21.5 12 33.5
l133 276c2.66699 6.66699 7 12.334 13 17.001s13.333 7 22 7h79l-203 -404h151v-55h-168v-52h168v-54h-168v-153h-96v153h-168v54h168v52h-168v55z" />
    <glyph glyph-name="brokenbar" unicode="&#xa6;" horiz-adv-x="255" 
d="M91 768h73v-398h-73v398zM91 228h73v-398h-73v398z" />
    <glyph glyph-name="section" unicode="&#xa7;" horiz-adv-x="496" 
d="M404 630c-4.66699 -8 -11.3379 -11.6689 -20.0049 -11.002c-5.33301 0 -11.166 1.83301 -17.499 5.5s-14 7.66699 -23 12s-19.833 8.33301 -32.5 12s-27.667 5.5 -45 5.5c-16 0 -30 -2 -42 -6s-22.333 -9.33301 -31 -16s-15.334 -14.334 -20.001 -23.001
s-7 -18.334 -7 -29.001c0 -12 4 -22.667 12 -32s18.667 -17.833 32 -25.5s28.5 -15 45.5 -22s34.333 -14.333 52 -22s34.834 -16 51.501 -25s31.667 -19.5 45 -31.5s24 -25.667 32 -41s12 -33 12 -53c0 -26.667 -6.5 -50.667 -19.5 -72s-33.5 -38.666 -61.5 -51.999
c16 -12.667 29.167 -27.167 39.5 -43.5s15.5 -35.833 15.5 -58.5c0 -24 -4.33301 -46 -13 -66s-21 -37.167 -37 -51.5s-36.167 -25.666 -60.5 -33.999c-25 -8.33301 -52.833 -12.5 -83.5 -12.5c-35.333 0 -67.5 5.83301 -96.5 17.5s-53.5 26.5 -73.5 44.5l22 36
c2.66699 4.66699 6 8.16699 10 10.5s9 3.5 15 3.5c6.66699 0 13.167 -2.33301 19.5 -7s14.5 -9.66699 24.5 -15s21.833 -10.333 35.5 -15c13 -4.66699 30.167 -7 51.5 -7c16 0 30.5 2 43.5 6s23.833 9.5 32.5 16.5s15.334 15.333 20.001 25s7 20.5 7 32.5
c0 14.667 -4.16699 27.5 -12.5 38.5s-19.166 20.667 -32.499 29s-28.666 15.833 -45.999 22.5s-35.166 13.667 -53.499 21s-36.166 15.333 -53.499 24s-32.833 18.834 -46.5 30.501s-24.5 25.334 -32.5 41.001s-12 34.167 -12 55.5c0 26.667 7 50.334 21 71.001
s36.333 36.667 67 48c-16.667 12.667 -30.167 27.667 -40.5 45s-15.5 38.666 -15.5 63.999c0 20 4 39 12 57s19.833 33.833 35.5 47.5s34.834 24.5 57.501 32.5c22 8 47.667 12 77 12c33.333 0 63.666 -5.33301 90.999 -16c27.333 -10 50.666 -24.333 69.999 -43z
M133.996 362.998c0 -16 5.66602 -29.832 16.999 -41.499s25.666 -22.167 42.999 -31.5s36.833 -18.333 58.5 -27s42.834 -18 63.501 -28c17.333 8 29.833 18.167 37.5 30.5s11.5 25.833 11.5 40.5c0 17.333 -5.33301 32 -16 44s-24.5 22.667 -41.5 32
s-35.667 18.166 -56 26.499c-20.333 9 -40.5 18.167 -60.5 27.5c-21.333 -9.33301 -36.166 -20 -44.499 -32s-12.5 -25.667 -12.5 -41z" />
    <glyph glyph-name="dieresis" unicode="&#xa8;" 
d="M162 644c0 -8 -1.66602 -15.333 -4.99902 -22s-7.66602 -12.667 -12.999 -18s-11.5 -9.33301 -18.5 -12s-14.5 -4 -22.5 -4s-15.5 1.33301 -22.5 4s-13 6.66699 -18 12s-9 11.333 -12 18s-4.5 14 -4.5 22s1.5 15.667 4.5 23s7 13.666 12 18.999
s11.167 9.66602 18.5 12.999s14.666 5 21.999 5c8 0 15.5 -1.66699 22.5 -5s13.167 -7.66602 18.5 -12.999s9.66602 -11.666 12.999 -18.999s5 -15 5 -23zM354.001 644c0 -8 -1.5 -15.333 -4.5 -22s-7 -12.667 -12 -18s-11.167 -9.33301 -18.5 -12s-15 -4 -23 -4
s-15.5 1.33301 -22.5 4s-13.167 6.66699 -18.5 12s-9.5 11.333 -12.5 18s-4.5 14 -4.5 22s1.5 15.667 4.5 23s7.16699 13.666 12.5 18.999s11.5 9.66602 18.5 12.999s14.5 5 22.5 5s15.667 -1.66699 23 -5s13.5 -7.66602 18.5 -12.999s9 -11.666 12 -18.999s4.5 -15 4.5 -23
z" />
    <glyph glyph-name="copyright" unicode="&#xa9;" horiz-adv-x="830" 
d="M540 240c2.66699 0 5.33398 -0.49707 8.00098 -1.49707c2.66699 -1.66699 4.66699 -3.16699 6 -4.5l32 -34c-18.667 -22.667 -41.834 -40 -69.501 -52s-60.834 -18 -99.501 -18c-32.667 0 -62.334 5.83301 -89.001 17.5s-49.667 27.667 -69 48s-34.333 44.5 -45 72.5
s-16 58.667 -16 92s5.83301 64.166 17.5 92.499s27.667 52.666 48 72.999s44.5 36.166 72.5 47.499s58 17 90 17c36 0 66.833 -5.83301 92.5 -17.5c26.333 -12.333 48.833 -27.833 67.5 -46.5l-25 -34c-1.33301 -2 -3.5 -4.16699 -6.5 -6.5s-6.5 -3.5 -10.5 -3.5
c-4.66699 0 -9.5 2 -14.5 6s-11.667 8.16699 -20 12.5s-18.666 8.33301 -30.999 12s-28.166 5.5 -47.499 5.5c-22.667 0 -43.167 -3.66699 -61.5 -11s-33.833 -17.833 -46.5 -31.5s-22.5 -30.334 -29.5 -50.001s-10.5 -41.5 -10.5 -65.5c0 -25.333 3.5 -47.666 10.5 -66.999
s16.5 -35.833 28.5 -49.5s26.667 -24 44 -31s36 -10.5 56 -10.5c17.333 0 31.666 1.33301 42.999 4s21.333 6 30 10s16.334 8 23.001 12s14 8 22 12zM49 359.003c0 33.333 4.33301 65.667 13 97s21 60.5 37 87.5s35.167 51.667 57.5 74s47 41.5 74 57.5s56 28.333 87 37
s63.5 13 97.5 13c33.333 0 65.666 -4.33301 96.999 -13s60.5 -21 87.5 -37s51.667 -35.167 74 -57.5s41.5 -47 57.5 -74s28.333 -56 37 -87s13 -63.5 13 -97.5c0 -33.333 -4.33301 -65.666 -13 -96.999s-21 -60.5 -37 -87.5s-35.167 -51.667 -57.5 -74s-47 -41.5 -74 -57.5
s-56 -28.333 -87 -37s-63.5 -13 -97.5 -13c-33.333 0 -65.666 4.33301 -96.999 13s-60.5 21 -87.5 37s-51.667 35.167 -74 57.5s-41.5 47 -57.5 74s-28.333 56.167 -37 87.5s-13 63.666 -13 96.999zM102 359.004c0 -44.667 8.16699 -86.334 24.5 -125.001
s38.666 -72.334 66.999 -101.001s61.5 -51.334 99.5 -68.001s78.667 -25 122 -25c44 0 85.167 8.33301 123.5 25s71.5 39.334 99.5 68.001s50.333 62.334 67 101.001s25 80.334 25 125.001c0 44 -8.33301 85.5 -25 124.5s-39 73 -67 102s-61.167 51.833 -99.5 68.5
s-79.5 25 -123.5 25s-84.833 -8.33301 -122.5 -25s-70.667 -39.5 -99 -68.5s-50.666 -63 -66.999 -102s-24.5 -80.5 -24.5 -124.5z" />
    <glyph glyph-name="ordfeminine" unicode="&#xaa;" horiz-adv-x="367" 
d="M272 420c-6.66699 0 -11.668 0.998047 -15.001 2.99805s-6.33301 6 -9 12l-6 23c-8 -6.66699 -15.833 -12.667 -23.5 -18s-15.667 -9.66602 -24 -12.999s-17.166 -6 -26.499 -8s-19.333 -3 -30 -3c-12.667 0 -24.5 1.66699 -35.5 5s-20.5 8.33301 -28.5 15
s-14.333 15.167 -19 25.5c-4.66699 11 -7 23.167 -7 36.5c0 11.333 3.16699 22.5 9.5 33.5s16.666 21 30.999 30s33.666 16.333 57.999 22c23.667 5.66699 53.5 9.16699 89.5 10.5v17c0 20.667 -4.66699 35.667 -14 45s-23 14 -41 14c-12 0 -22.167 -1.33301 -30.5 -4
s-15.666 -5.66699 -21.999 -9s-12 -6.5 -17 -9.5s-10.167 -4.5 -15.5 -4.5c-4.66699 0 -8.5 1.5 -11.5 4.5l-8.5 8.5l-12 22c17.333 16.667 36.333 28.834 57 36.501s43.334 11.5 68.001 11.5c18 0 34.167 -2.66699 48.5 -8s26.333 -13.333 36 -24s17.167 -23 22.5 -37
s8 -29.333 8 -46v-191h-32zM158.999 463.998c16 0 30.001 2.99902 42.001 8.99902c11.333 6 23 14.667 35 26v51c-22.667 -0.666992 -41.667 -2.5 -57 -5.5s-27.833 -6.5 -37.5 -10.5s-16.667 -9 -21 -15s-6.5 -12.333 -6.5 -19c0 -13.333 4.16699 -22.666 12.5 -27.999
s19.166 -8 32.499 -8z" />
    <glyph glyph-name="guillemotleft" unicode="&#xab;" horiz-adv-x="433" 
d="M50 260v12l124 194l32 -14c8 -4 12.667 -9.5 14 -16.5c1.33301 -7.66699 -0.333984 -15.5 -5.00098 -23.5l-77 -128c-5.33301 -8 -10.666 -14 -15.999 -18c5.33301 -4.66699 10.666 -11 15.999 -19l77 -129c4.66699 -8 6.33398 -15.5 5.00098 -22.5s-6 -12.5 -14 -16.5
l-32 -15zM200 260v12l124 194l32 -14c8 -4 12.667 -9.5 14 -16.5c1.33301 -7.66699 -0.333984 -15.5 -5.00098 -23.5l-77 -128c-5.33301 -8 -10.666 -14 -15.999 -18c5.33301 -4.66699 10.666 -11 15.999 -19l77 -129c4.66699 -8 6.33398 -15.5 5.00098 -22.5
s-6 -12.5 -14 -16.5l-32 -15z" />
    <glyph glyph-name="logicalnot" unicode="&#xac;" horiz-adv-x="580" 
d="M72 372h433v-216h-81v144h-352v72z" />
    <glyph glyph-name="registered" unicode="&#xae;" horiz-adv-x="830" 
d="M49 359c0 33.333 4.33301 65.667 13 97s21 60.5 37 87.5s35.167 51.667 57.5 74s47 41.5 74 57.5s56 28.333 87 37s63.5 13 97.5 13c33.333 0 65.666 -4.33301 96.999 -13s60.5 -21 87.5 -37s51.667 -35.167 74 -57.5s41.5 -47 57.5 -74s28.333 -56 37 -87
s13 -63.5 13 -97.5c0 -33.333 -4.33301 -65.666 -13 -96.999s-21 -60.5 -37 -87.5s-35.167 -51.667 -57.5 -74s-47 -41.5 -74 -57.5s-56 -28.333 -87 -37s-63.5 -13 -97.5 -13c-33.333 0 -65.666 4.33301 -96.999 13s-60.5 21 -87.5 37s-51.667 35.167 -74 57.5
s-41.5 47 -57.5 74s-28.333 56.167 -37 87.5s-13 63.666 -13 96.999zM102 359.001c0 -44.667 8.16699 -86.334 24.5 -125.001s38.666 -72.334 66.999 -101.001s61.5 -51.334 99.5 -68.001s78.667 -25 122 -25c44 0 85.167 8.33301 123.5 25s71.5 39.334 99.5 68.001
s50.333 62.334 67 101.001s25 80.334 25 125.001c0 44 -8.33301 85.5 -25 124.5s-39 73 -67 102s-61.167 51.833 -99.5 68.5s-79.5 25 -123.5 25s-84.833 -8.33301 -122.5 -25s-70.667 -39.5 -99 -68.5s-50.666 -63 -66.999 -102s-24.5 -80.5 -24.5 -124.5zM346 311.001
v-175h-83v447h147c58.667 0 101.667 -10.5 129 -31.5s41 -52.167 41 -93.5c0 -30.667 -8.66699 -57 -26 -79s-43.333 -37.667 -78 -47c5.33301 -4 10.333 -8.33301 15 -13s9 -10.667 13 -18l110 -165h-79c-11.333 0 -19.666 4.66699 -24.999 14l-96 147
c-2.66699 4.66699 -6.33398 8.16699 -11.001 10.5s-11 3.5 -19 3.5h-38zM346 372.001l56.001 0.00195312c18.667 0 34 1.66699 46 5s21.833 8.16602 29.5 14.499s13.167 14.166 16.5 23.499c3.33301 10 5 21 5 33s-1.5 22.333 -4.5 31s-7.83301 16 -14.5 22
s-15.834 10.5 -27.501 13.5c-11 3 -25.167 4.5 -42.5 4.5h-64v-147z" />
    <glyph glyph-name="macron" unicode="&#xaf;" 
d="M56 676h288v-62h-288v62z" />
    <glyph glyph-name="macron" unicode="&#x2c9;" 
d="M56 676h288v-62h-288v62z" />
    <glyph glyph-name="degree" unicode="&#xb0;" horiz-adv-x="414" 
d="M42 564c0 22.667 4.33301 43.667 13 63s20.334 36.333 35.001 51s32 26.334 52 35.001s41.667 13 65 13c22.667 0 44.167 -4.33301 64.5 -13s37.833 -20.334 52.5 -35.001s26.334 -31.667 35.001 -51s13 -40.333 13 -63c0 -22 -4.33301 -43 -13 -63
s-20.334 -37.333 -35.001 -52s-32 -26.334 -52 -35.001s-41.667 -13 -65 -13c-22.667 0 -44.167 4.33301 -64.5 13s-37.833 20.334 -52.5 35.001s-26.334 32 -35.001 52s-13 41 -13 63zM110 563c0 -13.333 2.33301 -26 7 -38s11.334 -22.5 20.001 -31.5s19 -15.833 31 -20.5
s25 -7 39 -7s27 2.33301 39 7s22.333 11.5 31 20.5s15.334 19.333 20.001 31s7 24.5 7 38.5c0 13.333 -2.33301 26.166 -7 38.499s-11.334 22.833 -20.001 31.5s-19 15.667 -31 21s-25 8 -39 8s-27 -2.66699 -39 -8s-22.333 -12.333 -31 -21s-15.334 -19.167 -20.001 -31.5
s-7 -25.166 -7 -38.499z" />
    <glyph glyph-name="plusminus" unicode="&#xb1;" horiz-adv-x="580" 
d="M328 604v-186h202v-72h-202v-181h-77v181h-201v72h201v186h77zM50 112h480v-72h-480v72z" />
    <glyph glyph-name="uni00B2" unicode="&#xb2;" horiz-adv-x="334" 
d="M169 820c17.333 0 33.334 -2.66699 48.001 -8s27 -12.666 37 -21.999s17.667 -20.333 23 -33s8 -26.667 8 -42c0 -13.333 -2 -25.833 -6 -37.5s-9.5 -22.5 -16.5 -32.5s-15 -20 -24 -30s-18.167 -20 -27.5 -30l-79 -79c8 2.66699 16.167 4.5 24.5 5.5
s15.833 1.5 22.5 1.5h92c7.33301 0 13 -2 17 -6s6 -9.33301 6 -16v-41h-258v22c0 4.66699 0.833008 9.5 2.5 14.5s4.5 9.83301 8.5 14.5l110 109c16.667 16 30.667 32.667 42 50s17 34.666 17 51.999c0 16 -4.83301 28.667 -14.5 38s-21.5 14 -35.5 14
c-14.667 0 -26.5 -4 -35.5 -12s-15.833 -18.667 -20.5 -32c-3.33301 -6 -7.33301 -10.167 -12 -12.5s-11.667 -2.83301 -21 -1.5l-38 6c5.33301 36 19.666 63 42.999 81s52.333 27 87 27z" />
    <glyph glyph-name="uni00B3" unicode="&#xb3;" horiz-adv-x="334" 
d="M171 820c17.333 0 32.9971 -2.66699 46.9971 -8s25.833 -12.166 35.5 -20.499s17.167 -18.333 22.5 -30s8 -23.834 8 -36.501c0 -42 -19.333 -71 -58 -87c21.333 -6.66699 37.5 -16.334 48.5 -29.001s16.5 -29 16.5 -49c0 -18.667 -3.33301 -35.167 -10 -49.5
s-16 -26.333 -28 -36s-25.667 -16.834 -41 -21.501s-31 -7 -47 -7c-18.667 0 -35 2 -49 6s-26.167 10 -36.5 18s-19.166 18.167 -26.499 30.5c-7.33301 13 -13.666 27.5 -18.999 43.5l29 12c8 2.66699 15.5 3.33398 22.5 2.00098s11.833 -5 14.5 -11
c1.33301 -3.33301 3.5 -7.33301 6.5 -12s6.83301 -9.33398 11.5 -14.001s10.5 -8.66699 17.5 -12s15.833 -5 26.5 -5c9.33301 0 17.833 1.5 25.5 4.5s14 7 19 12s8.83301 10.667 11.5 17s4 12.833 4 19.5c0 9.33301 -1.33301 17.5 -4 24.5s-7.16699 12.833 -13.5 17.5
s-14.833 8 -25.5 10s-23.667 3 -39 3v46c28.667 0 48.667 5 60 15s17 23.333 17 40c0 16 -4.5 28.167 -13.5 36.5s-21.167 12.5 -36.5 12.5s-27.5 -3.66699 -36.5 -11s-15.5 -17.333 -19.5 -30c-4 -6.66699 -8 -11.167 -12 -13.5s-10.333 -2.83301 -19 -1.5l-35 6
c2.66699 18 7.66699 33.833 15 47.5s16.333 24.834 27 33.501s23.334 15.334 38.001 20.001s30 7 46 7z" />
    <glyph glyph-name="acute" unicode="&#xb4;" 
d="M350 726l-117.999 -130c-4.66699 -5.33301 -9.33398 -9 -14.001 -11s-10.667 -3 -18 -3h-57l74 121c4.66699 8 9.66699 13.833 15 17.5s14 5.5 26 5.5h92z" />
    <glyph glyph-name="mu" unicode="&#xb5;" horiz-adv-x="651" 
d="M184 508l-0.000976562 -306c0 -18.667 2.16699 -35.334 6.5 -50.001s10.666 -27.167 18.999 -37.5s19 -18.333 32 -24s28.167 -8.5 45.5 -8.5c29.333 0 55.166 8 77.499 24s40.833 38.667 55.5 68v334h95v-368c0 -25.333 6.5 -44 19.5 -56s30.167 -18 51.5 -18h30v-38
c0 -8 -5.5 -15.5 -16.5 -22.5s-26.5 -10.5 -46.5 -10.5c-14 0 -27.333 2 -40 6s-24.334 10.167 -35.001 18.5s-20 18.833 -28 31.5s-13.667 28 -17 46c-19.333 -29.333 -41.666 -52.166 -66.999 -68.499s-53.666 -24.5 -84.999 -24.5c-24 0 -45 3.66699 -63 11
s-33.333 18 -46 32c2.66699 -14 4.33398 -28 5.00098 -42s1 -27 1 -39v-136h-47c-13.333 0 -23.666 3.33301 -30.999 10s-11 16.667 -11 30v638h95z" />
    <glyph glyph-name="paragraph" unicode="&#xb6;" horiz-adv-x="706" 
d="M671 718v-81.9971h-109v-737h-84v737h-134v-737h-84v429c-34.667 0 -65.834 5 -93.501 15s-51.334 24 -71.001 42s-34.834 38.833 -45.501 62.5c-10.667 24.333 -16 49.833 -16 76.5c0 29.333 5.33301 55.666 16 78.999s25.834 43.666 45.501 60.999
s43.334 30.666 71.001 39.999s58.834 14 93.501 14h411z" />
    <glyph glyph-name="periodcentered" unicode="&#xb7;" horiz-adv-x="262" 
d="M54 297c0 10.667 2.00098 20.832 6.00098 30.499s9.33301 18 16 25s14.667 12.667 24 17s19.333 6.5 30 6.5s21 -2.16699 31 -6.5s18.333 -10 25 -17s12.167 -15.167 16.5 -24.5s6.5 -19.666 6.5 -30.999c0 -10.667 -2.16699 -20.667 -6.5 -30
s-9.83301 -17.5 -16.5 -24.5s-14.834 -12.5 -24.501 -16.5c-10.333 -4 -20.833 -6 -31.5 -6s-20.667 2 -30 6s-17.333 9.5 -24 16.5s-12 15.167 -16 24.5s-6 19.333 -6 30z" />
    <glyph glyph-name="periodcentered" unicode="&#x2219;" horiz-adv-x="262" 
d="M54 297c0 10.667 2.00098 20.832 6.00098 30.499s9.33301 18 16 25s14.667 12.667 24 17s19.333 6.5 30 6.5s21 -2.16699 31 -6.5s18.333 -10 25 -17s12.167 -15.167 16.5 -24.5s6.5 -19.666 6.5 -30.999c0 -10.667 -2.16699 -20.667 -6.5 -30
s-9.83301 -17.5 -16.5 -24.5s-14.834 -12.5 -24.501 -16.5c-10.333 -4 -20.833 -6 -31.5 -6s-20.667 2 -30 6s-17.333 9.5 -24 16.5s-12 15.167 -16 24.5s-6 19.333 -6 30z" />
    <glyph glyph-name="cedilla" unicode="&#xb8;" 
d="M141 -124c2 0 4.33105 -0.667969 6.99805 -2.00098s5.83398 -2.66602 9.50098 -3.99902s8 -2.66602 13 -3.99902s10.833 -2 17.5 -2c13.333 0 23.5 2.66699 30.5 8s10.5 12.333 10.5 21c0 12 -6.83301 20.5 -20.5 25.5s-33.167 9.16699 -58.5 12.5l27 83h53l-14 -50
c30.667 -6.66699 53 -16 67 -28s21 -26.667 21 -44c0 -10.667 -2.66699 -20.334 -8 -29.001s-13 -16 -23 -22s-21.667 -10.667 -35 -14s-28.333 -5 -45 -5c-13.333 0 -26.166 1.33301 -38.499 4s-23.833 6 -34.5 10l9 30c2 6.66699 6 10 12 10z" />
    <glyph glyph-name="uni00B9" unicode="&#xb9;" horiz-adv-x="334" 
d="M78 495l73.002 -0.000976562v213l2 22l-51 -42c-6.66699 -4.66699 -12.834 -6 -18.501 -4c-5.66699 2.66699 -9.83398 5.33398 -12.501 8.00098l-21 29l113 95h56v-321h64v-45h-205v45z" />
    <glyph glyph-name="ordmasculine" unicode="&#xba;" horiz-adv-x="402" 
d="M202 726c23.333 0 44.5 -3.66699 63.5 -11s35.333 -17.666 49 -30.999s24.167 -29.666 31.5 -48.999s11 -41 11 -65s-3.66699 -45.667 -11 -65s-17.833 -35.666 -31.5 -48.999s-30 -23.666 -49 -30.999s-40.167 -11 -63.5 -11c-24 0 -45.667 3.66699 -65 11
s-35.666 17.666 -48.999 30.999s-23.833 29.666 -31.5 48.999s-11.5 41 -11.5 65s3.83301 45.667 11.5 65s18.167 35.666 31.5 48.999s29.666 23.666 48.999 30.999s41 11 65 11zM202 470c26.667 0 46.667 8.5 60 25.5s20 41.833 20 74.5s-6.66699 57.5 -20 74.5
s-33.333 25.5 -60 25.5c-28 0 -48.667 -8.5 -62 -25.5s-20 -41.833 -20 -74.5s6.66699 -57.5 20 -74.5s34 -25.5 62 -25.5z" />
    <glyph glyph-name="guillemotright" unicode="&#xbb;" horiz-adv-x="433" 
d="M234 272v-12l-126 -196l-30 15c-8 4 -12.833 9.5 -14.5 16.5s-0.166992 14.5 4.5 22.5l78 129l7 10.5c2 3 4.33301 5.83301 7 8.5c-2.66699 2 -5 4.5 -7 7.5l-7 10.5l-78 128c-4.66699 8 -6.16699 15.667 -4.5 23s6.5 13 14.5 17l30 14zM384 272v-12l-126 -196l-30 15
c-8 4 -12.833 9.5 -14.5 16.5s-0.166992 14.5 4.5 22.5l78 129l7 10.5c2 3 4.33301 5.83301 7 8.5c-2.66699 2 -5 4.5 -7 7.5l-7 10.5l-78 128c-4.66699 8 -6.16699 15.667 -4.5 23s6.5 13 14.5 17l30 14z" />
    <glyph glyph-name="onequarter" unicode="&#xbc;" horiz-adv-x="735" 
d="M212 28c-6.66699 -10.667 -13.834 -18.001 -21.501 -22.001c-7 -4 -15.833 -6 -26.5 -6h-41l411 685c6.66699 10.667 13.834 18.834 21.501 24.501c7 5.66699 16.5 8.5 28.5 8.5h41zM71 396.999l73.002 -0.000976562v213l2 22l-51 -42
c-6.66699 -4.66699 -12.834 -6 -18.501 -4c-5.66699 2.66699 -9.83398 5.33398 -12.501 8.00098l-21 29l113 95h56v-321h64v-45h-205v45zM644.002 134.998h51.999v-35c0 -4 -1 -7.33301 -3 -10s-5.33301 -4 -10 -4h-39v-86h-58v86h-152c-6.66699 0 -11.667 1.5 -15 4.5
c-3.33301 3.66699 -5.66602 7.5 -6.99902 11.5l-5 30l171 234h66v-231zM586.001 248.998c0 6.66699 0.167969 13.833 0.500977 21.5s1.16602 15.5 2.49902 23.5l-117 -159h114v114z" />
    <glyph glyph-name="onehalf" unicode="&#xbd;" horiz-adv-x="727" 
d="M192 28c-6.66699 -10.667 -13.834 -18.001 -21.501 -22.001c-7 -4 -15.833 -6 -26.5 -6h-41l411 685c6.66699 10.667 13.834 18.834 21.501 24.501c7 5.66699 16.5 8.5 28.5 8.5h41zM71 396.999l73.002 -0.000976562v213l2 22l-51 -42
c-6.66699 -4.66699 -12.834 -6 -18.501 -4c-5.66699 2.66699 -9.83398 5.33398 -12.501 8.00098l-21 29l113 95h56v-321h64v-45h-205v45zM558.002 369.998c17.333 0 33.334 -2.66699 48.001 -8s27 -12.666 37 -21.999s17.667 -20.333 23 -33s8 -26.667 8 -42
c0 -13.333 -2 -25.833 -6 -37.5s-9.5 -22.5 -16.5 -32.5s-15 -20 -24 -30s-18.167 -20 -27.5 -30l-79 -79c8 2.66699 16.167 4.5 24.5 5.5s15.833 1.5 22.5 1.5h92c7.33301 0 13 -2 17 -6s6 -9.33301 6 -16v-41h-258v22c0 4.66699 0.833008 9.5 2.5 14.5
s4.5 9.83301 8.5 14.5l110 109c16.667 16 30.667 32.667 42 50s17 34.666 17 51.999c0 16 -4.83301 28.667 -14.5 38s-21.5 14 -35.5 14c-14.667 0 -26.5 -4 -35.5 -12s-15.833 -18.667 -20.5 -32c-3.33301 -6 -7.33301 -10.167 -12 -12.5s-11.667 -2.83301 -21 -1.5l-38 6
c5.33301 36 19.666 63 42.999 81s52.333 27 87 27z" />
    <glyph glyph-name="threequarters" unicode="&#xbe;" horiz-adv-x="743" 
d="M222 28c-6.66699 -10.667 -13.834 -18.001 -21.501 -22.001c-7 -4 -15.833 -6 -26.5 -6h-41l411 685c6.66699 10.667 13.834 18.834 21.501 24.501c7 5.66699 16.5 8.5 28.5 8.5h41zM180 721.999c17.333 0 32.9971 -2.66699 46.9971 -8s25.833 -12.166 35.5 -20.499
s17.167 -18.333 22.5 -30s8 -23.834 8 -36.501c0 -42 -19.333 -71 -58 -87c21.333 -6.66699 37.5 -16.334 48.5 -29.001s16.5 -29 16.5 -49c0 -18.667 -3.33301 -35.167 -10 -49.5s-16 -26.333 -28 -36s-25.667 -16.834 -41 -21.501s-31 -7 -47 -7c-18.667 0 -35 2 -49 6
s-26.167 10 -36.5 18s-19.166 18.167 -26.499 30.5c-7.33301 13 -13.666 27.5 -18.999 43.5l29 12c8 2.66699 15.5 3.33398 22.5 2.00098s11.833 -5 14.5 -11c1.33301 -3.33301 3.5 -7.33301 6.5 -12s6.83301 -9.33398 11.5 -14.001s10.5 -8.66699 17.5 -12
s15.833 -5 26.5 -5c9.33301 0 17.833 1.5 25.5 4.5s14 7 19 12s8.83301 10.667 11.5 17s4 12.833 4 19.5c0 9.33301 -1.33301 17.5 -4 24.5s-7.16699 12.833 -13.5 17.5s-14.833 8 -25.5 10s-23.667 3 -39 3v46c28.667 0 48.667 5 60 15s17 23.333 17 40
c0 16 -4.5 28.167 -13.5 36.5s-21.167 12.5 -36.5 12.5s-27.5 -3.66699 -36.5 -11s-15.5 -17.333 -19.5 -30c-4 -6.66699 -8 -11.167 -12 -13.5s-10.333 -2.83301 -19 -1.5l-35 6c2.66699 18 7.66699 33.833 15 47.5s16.333 24.834 27 33.501s23.334 15.334 38.001 20.001
s30 7 46 7zM651.997 134.999h51.999v-35c0 -4 -1 -7.33301 -3 -10s-5.33301 -4 -10 -4h-39v-86h-58v86h-152c-6.66699 0 -11.667 1.5 -15 4.5c-3.33301 3.66699 -5.66602 7.5 -6.99902 11.5l-5 30l171 234h66v-231zM593.996 248.999
c0 6.66699 0.167969 13.833 0.500977 21.5s1.16602 15.5 2.49902 23.5l-117 -159h114v114z" />
    <glyph glyph-name="questiondown" unicode="&#xbf;" horiz-adv-x="442" 
d="M408 -106c-10.667 -9.33301 -22.332 -18.3311 -34.999 -26.998s-26.5 -16.334 -41.5 -23.001s-31.167 -12 -48.5 -16c-18 -4 -37 -6 -57 -6c-26.667 0 -51.334 3.66699 -74.001 11s-42.167 18 -58.5 32s-29.166 31 -38.499 51s-14 42.667 -14 68
s3.83301 46.666 11.5 63.999s17.167 32.333 28.5 45s23.666 23.5 36.999 32.5s26 17.333 38 25s22.167 15.667 30.5 24c9 9 14.167 18.833 15.5 29.5l8 76h66l6 -83c1.33301 -16 -1.5 -29.5 -8.5 -40.5s-16 -20.833 -27 -29.5s-23.5 -17 -37.5 -25
s-26.667 -16.833 -38 -26.5s-21 -21.167 -29 -34.5c-8 -12.667 -12 -29 -12 -49c0 -14 2.66699 -26.667 8 -38s12.666 -21 21.999 -29s20.333 -14.167 33 -18.5s26.334 -6.5 41.001 -6.5c20 0 37.167 2.5 51.5 7.5s26.5 10.333 36.5 16s18.167 11 24.5 16s11.5 7.5 15.5 7.5
c9.33301 0 16 -4 20 -12zM180.002 450.002c0 9.33301 1.66699 18 5 26s8 15 14 21s13 10.667 21 14s16.333 5 25 5c9.33301 0 17.833 -1.66699 25.5 -5s14.5 -8 20.5 -14s10.667 -13 14 -21s5 -16.667 5 -26s-1.66699 -17.833 -5 -25.5s-8 -14.334 -14 -20.001
s-13 -10.167 -21 -13.5s-16.333 -5 -25 -5c-9.33301 0 -17.833 1.66699 -25.5 5s-14.5 7.83301 -20.5 13.5s-10.667 12.334 -14 20.001s-5 16.167 -5 25.5z" />
    <glyph glyph-name="Agrave" unicode="&#xc0;" horiz-adv-x="680" 
d="M678 0h-80.001c-9.33301 0 -16.666 2.33301 -21.999 7s-9.33301 10.334 -12 17.001l-65 169h-319l-64 -169c-2 -6.66699 -6.16699 -12.334 -12.5 -17.001s-13.5 -7 -21.5 -7h-80l286 718h104zM208.999 267l261 0.000976562l-108 283
c-4 9.33301 -7.83301 19.666 -11.5 30.999c-3 11.333 -6.5 24.333 -10.5 39c-4 -14 -7.83301 -27.167 -11.5 -39.5c-3 -12.333 -6.5 -22.833 -10.5 -31.5zM251.999 927.001c5.33301 0 10.332 -0.167969 14.999 -0.500977s8.5 -1.16602 11.5 -2.49902s6 -3 9 -5
s5.83301 -5 8.5 -9l113 -137h-68c-8 0 -14.167 0.5 -18.5 1.5s-9.16602 3.83301 -14.499 8.5l-156 144h100z" />
    <glyph glyph-name="Aacute" unicode="&#xc1;" horiz-adv-x="680" 
d="M678 0h-80.001c-9.33301 0 -16.666 2.33301 -21.999 7s-9.33301 10.334 -12 17.001l-65 169h-319l-64 -169c-2 -6.66699 -6.16699 -12.334 -12.5 -17.001s-13.5 -7 -21.5 -7h-80l286 718h104zM208.999 267l261 0.000976562l-108 283
c-4 9.33301 -7.83301 19.666 -11.5 30.999c-3 11.333 -6.5 24.333 -10.5 39c-4 -14 -7.83301 -27.167 -11.5 -39.5c-3 -12.333 -6.5 -22.833 -10.5 -31.5zM531.999 927.001l-162 -142.999c-5.33301 -4.66699 -10.333 -7.66699 -15 -9s-11 -2 -19 -2h-68l114 137
c2.66699 4 5.33398 7 8.00098 9s5.66699 3.66699 9 5s7.16602 2.16602 11.499 2.49902c5 0.333008 10.167 0.5 15.5 0.5h106z" />
    <glyph glyph-name="Acircumflex" unicode="&#xc2;" horiz-adv-x="680" 
d="M678 0h-80.001c-9.33301 0 -16.666 2.33301 -21.999 7s-9.33301 10.334 -12 17.001l-65 169h-319l-64 -169c-2 -6.66699 -6.16699 -12.334 -12.5 -17.001s-13.5 -7 -21.5 -7h-80l286 718h104zM208.999 267l261 0.000976562l-108 283
c-4 9.33301 -7.83301 19.666 -11.5 30.999c-3 11.333 -6.5 24.333 -10.5 39c-4 -14 -7.83301 -27.167 -11.5 -39.5c-3 -12.333 -6.5 -22.833 -10.5 -31.5zM503.999 773.001l-70 -0.00195312c-4 0 -9 0.833008 -15 2.5s-11.667 5.83398 -17 12.501l-56 68
c-2.66699 2.66699 -4.66699 5.66699 -6 9l-6 -9l-56 -68c-6 -7.33301 -11.833 -11.666 -17.5 -12.999s-10.5 -2 -14.5 -2h-66l119 136h85z" />
    <glyph glyph-name="Atilde" unicode="&#xc3;" horiz-adv-x="680" 
d="M678 0h-80.001c-9.33301 0 -16.666 2.33301 -21.999 7s-9.33301 10.334 -12 17.001l-65 169h-319l-64 -169c-2 -6.66699 -6.16699 -12.334 -12.5 -17.001s-13.5 -7 -21.5 -7h-80l286 718h104zM208.999 267l261 0.000976562l-108 283
c-4 9.33301 -7.83301 19.666 -11.5 30.999c-3 11.333 -6.5 24.333 -10.5 39c-4 -14 -7.83301 -27.167 -11.5 -39.5c-3 -12.333 -6.5 -22.833 -10.5 -31.5zM402.999 834.001c8 0 14.834 1.66699 20.501 5s10.334 7.33301 14.001 12s6.5 9.83398 8.5 15.501s3 11.5 3 17.5h58
c0 -14.667 -2 -28.667 -6 -42s-10 -25.333 -18 -36s-17.833 -19 -29.5 -25s-24.834 -9 -39.501 -9c-15.333 0 -29 2.66699 -41 8s-23.167 11.166 -33.5 17.499s-19.833 12.333 -28.5 18s-17.667 8.5 -27 8.5c-8 0 -14.667 -1.66699 -20 -5s-10 -7.33301 -14 -12
s-7 -10 -9 -16s-3 -11.667 -3 -17h-59c0 14.667 2.16699 28.667 6.5 42s10.5 25.333 18.5 36s17.667 19.167 29 25.5s24.333 9.5 39 9.5c15.333 0 29.166 -2.83301 41.499 -8.5s23.5 -11.667 33.5 -18s19.5 -12.333 28.5 -18s18.167 -8.5 27.5 -8.5z" />
    <glyph glyph-name="Adieresis" unicode="&#xc4;" horiz-adv-x="680" 
d="M678 0h-80.001c-9.33301 0 -16.666 2.33301 -21.999 7s-9.33301 10.334 -12 17.001l-65 169h-319l-64 -169c-2 -6.66699 -6.16699 -12.334 -12.5 -17.001s-13.5 -7 -21.5 -7h-80l286 718h104zM208.999 267l261 0.000976562l-108 283
c-4 9.33301 -7.83301 19.666 -11.5 30.999c-3 11.333 -6.5 24.333 -10.5 39c-4 -14 -7.83301 -27.167 -11.5 -39.5c-3 -12.333 -6.5 -22.833 -10.5 -31.5zM291.999 833.001c0 -8 -1.66699 -15.333 -5 -22s-7.66602 -12.5 -12.999 -17.5s-11.333 -9 -18 -12
s-14 -4.5 -22 -4.5c-7.33301 0 -14.5 1.5 -21.5 4.5s-13.167 7 -18.5 12s-9.33301 11 -12 18s-4 14.167 -4 21.5c0 8 1.33301 15.5 4 22.5s6.66699 13.167 12 18.5s11.333 9.5 18 12.5s14 4.5 22 4.5s15.333 -1.5 22 -4.5s12.667 -7.16699 18 -12.5
s9.66602 -11.5 12.999 -18.5s5 -14.5 5 -22.5zM501.999 833.001c0 -8 -1.33301 -15.333 -4 -22s-6.66699 -12.5 -12 -17.5s-11.5 -9 -18.5 -12c-6.33301 -3 -13.5 -4.5 -21.5 -4.5s-15.5 1.5 -22.5 4.5s-13 7 -18 12s-9.16699 11 -12.5 18s-5 14.167 -5 21.5
c0 8 1.66699 15.5 5 22.5s7.5 13.167 12.5 18.5s11 9.5 18 12.5s14.5 4.5 22.5 4.5s15.333 -1.5 22 -4.5s12.667 -7.16699 18 -12.5s9.33301 -11.5 12 -18.5s4 -14.5 4 -22.5z" />
    <glyph glyph-name="Aring" unicode="&#xc5;" horiz-adv-x="680" 
d="M678 0h-80.001c-9.33301 0 -16.666 2.33301 -21.999 7s-9.33301 10.334 -12 17.001l-65 169h-319l-64 -169c-2 -6.66699 -6.16699 -12.334 -12.5 -17.001s-13.5 -7 -21.5 -7h-80l286 718h104zM208.999 267l261 0.000976562l-108 283
c-4 9.33301 -7.83301 19.666 -11.5 30.999c-3 11.333 -6.5 24.333 -10.5 39c-4 -14 -7.83301 -27.167 -11.5 -39.5c-3 -12.333 -6.5 -22.833 -10.5 -31.5zM243.999 850.001c0 13.333 2.5 25.333 7.5 36s12 20 21 28s19.167 14.333 30.5 19s23.333 7 36 7
c13.333 0 25.833 -2.33301 37.5 -7s22 -11 31 -19s16 -17.333 21 -28s7.5 -22.667 7.5 -36s-2.5 -25.5 -7.5 -36.5s-12 -20.333 -21 -28s-19.5 -13.667 -31.5 -18s-24.333 -6.5 -37 -6.5s-24.667 2.16699 -36 6.5s-21.5 10.333 -30.5 18s-16 17 -21 28
s-7.5 23.167 -7.5 36.5zM289.999 850.001c0 -14.667 4.5 -26.667 13.5 -36c8.33301 -9.33301 20.5 -14 36.5 -14c14.667 0 26.667 4.66699 36 14s14 21.333 14 36s-4.66699 26.5 -14 35.5s-21.333 13.5 -36 13.5c-16 0 -28.333 -4.5 -37 -13.5s-13 -20.833 -13 -35.5z" />
    <glyph glyph-name="AE" unicode="&#xc6;" horiz-adv-x="931" 
d="M887 634l-369 -0.000976562l28 -232h276v-80h-266l30 -238h302l-1 -84h-388l-24 193h-275l-86 -169c-4 -7.33301 -9.33301 -13.166 -16 -17.499s-14.667 -6.5 -24 -6.5h-78l376 718h515v-84zM238 266.999h228l-46 373c-4.66699 -14.667 -9.5 -28.167 -14.5 -40.5
s-10.167 -23.833 -15.5 -34.5z" />
    <glyph glyph-name="Ccedilla" unicode="&#xc7;" horiz-adv-x="667" 
d="M331 -124c2 0 4.33105 -0.666992 6.99805 -2s5.83398 -2.66602 9.50098 -3.99902s8 -2.66602 13 -3.99902s10.833 -2 17.5 -2c13.333 0 23.5 2.66699 30.5 8s10.5 12.333 10.5 21c0 12 -6.83301 20.5 -20.5 25.5s-33.167 9.16699 -58.5 12.5l20 62
c-48 3.33301 -91.333 14.666 -130 33.999s-71.667 45 -99 77s-48.333 69.667 -63 113s-22 90.666 -22 141.999c0 54 8.5 103.5 25.5 148.5s41 83.667 72 116s68.167 57.5 111.5 75.5s91 27 143 27c50.667 0 95.667 -8.33301 135 -25s73.666 -39 102.999 -67l-34 -48
c-2.66699 -3.33301 -5.33398 -6.16602 -8.00098 -8.49902s-7 -3.5 -13 -3.5c-6.66699 0 -14.167 3.33301 -22.5 10s-19.5 13.834 -33.5 21.501s-31.333 14.667 -52 21s-46 9.5 -76 9.5c-36 0 -69.167 -6.33301 -99.5 -19s-56.166 -30.834 -77.499 -54.501
s-38 -52.667 -50 -87s-18 -73.166 -18 -116.499c0 -44 6.16699 -83.167 18.5 -117.5s29.333 -63.5 51 -87.5s47.5 -42.167 77.5 -54.5s61.667 -18.5 95 -18.5c21.333 0 40.333 1.16699 57 3.5s32 6.16602 46 11.499s27.333 12 40 20s25 17.333 37 28
c2.66699 2.66699 5.33398 4.66699 8.00098 6s6 2 10 2c5.33301 0 10 -2 14 -6l42 -46c-26.667 -32 -59.167 -57.167 -97.5 -75.5c-39 -18.333 -84.5 -28.833 -136.5 -31.5l-8 -29c30.667 -6.66699 53 -16 67 -28s21 -26.667 21 -44c0 -10.667 -2.66699 -20.334 -8 -29.001
s-13 -16 -23 -22s-21.667 -10.667 -35 -14s-28.333 -5 -45 -5c-13.333 0 -26.166 1.33301 -38.499 4s-23.833 6 -34.5 10l9 30c2 6.66699 6 10 12 10z" />
    <glyph glyph-name="Egrave" unicode="&#xc8;" horiz-adv-x="577" 
d="M534 718v-84h-341v-232h275v-80h-275v-238h341v-84h-444v718h444zM230 927c5.33301 0 10.332 -0.167969 14.999 -0.500977s8.5 -1.16602 11.5 -2.49902s6 -3 9 -5s5.83301 -5 8.5 -9l113 -137h-68c-8 0 -14.167 0.5 -18.5 1.5s-9.16602 3.83301 -14.499 8.5l-156 144h100
z" />
    <glyph glyph-name="Eacute" unicode="&#xc9;" horiz-adv-x="577" 
d="M534 718v-84h-341v-232h275v-80h-275v-238h341v-84h-444v718h444zM510 927l-162 -142.999c-5.33301 -4.66699 -10.333 -7.66699 -15 -9s-11 -2 -19 -2h-68l114 137c2.66699 4 5.33398 7 8.00098 9s5.66699 3.66699 9 5s7.16602 2.16602 11.499 2.49902
c5 0.333008 10.167 0.5 15.5 0.5h106z" />
    <glyph glyph-name="Ecircumflex" unicode="&#xca;" horiz-adv-x="577" 
d="M534 718v-84h-341v-232h275v-80h-275v-238h341v-84h-444v718h444zM482 773l-70 -0.00195312c-4 0 -9 0.833008 -15 2.5s-11.667 5.83398 -17 12.501l-56 68c-2.66699 2.66699 -4.66699 5.66699 -6 9l-6 -9l-56 -68c-6 -7.33301 -11.833 -11.666 -17.5 -12.999
s-10.5 -2 -14.5 -2h-66l119 136h85z" />
    <glyph glyph-name="Edieresis" unicode="&#xcb;" horiz-adv-x="577" 
d="M534 718v-84h-341v-232h275v-80h-275v-238h341v-84h-444v718h444zM270 833c0 -8 -1.66699 -15.333 -5 -22s-7.66602 -12.5 -12.999 -17.5s-11.333 -9 -18 -12s-14 -4.5 -22 -4.5c-7.33301 0 -14.5 1.5 -21.5 4.5s-13.167 7 -18.5 12s-9.33301 11 -12 18
s-4 14.167 -4 21.5c0 8 1.33301 15.5 4 22.5s6.66699 13.167 12 18.5s11.333 9.5 18 12.5s14 4.5 22 4.5s15.333 -1.5 22 -4.5s12.667 -7.16699 18 -12.5s9.66602 -11.5 12.999 -18.5s5 -14.5 5 -22.5zM480 833c0 -8 -1.33301 -15.333 -4 -22s-6.66699 -12.5 -12 -17.5
s-11.5 -9 -18.5 -12c-6.33301 -3 -13.5 -4.5 -21.5 -4.5s-15.5 1.5 -22.5 4.5s-13 7 -18 12s-9.16699 11 -12.5 18s-5 14.167 -5 21.5c0 8 1.66699 15.5 5 22.5s7.5 13.167 12.5 18.5s11 9.5 18 12.5s14.5 4.5 22.5 4.5s15.333 -1.5 22 -4.5s12.667 -7.16699 18 -12.5
s9.33301 -11.5 12 -18.5s4 -14.5 4 -22.5z" />
    <glyph glyph-name="Igrave" unicode="&#xcc;" horiz-adv-x="283" 
d="M193 0h-103v718h103v-718zM55 927c5.33301 0 10.332 -0.167969 14.999 -0.500977s8.5 -1.16602 11.5 -2.49902s6 -3 9 -5s5.83301 -5 8.5 -9l113 -137h-68c-8 0 -14.167 0.5 -18.5 1.5s-9.16602 3.83301 -14.499 8.5l-156 144h100z" />
    <glyph glyph-name="Iacute" unicode="&#xcd;" horiz-adv-x="283" 
d="M193 0h-103v718h103v-718zM335 927l-162 -142.999c-5.33301 -4.66699 -10.333 -7.66699 -15 -9s-11 -2 -19 -2h-68l114 137c2.66699 4 5.33398 7 8.00098 9s5.66699 3.66699 9 5s7.16602 2.16602 11.499 2.49902c5 0.333008 10.167 0.5 15.5 0.5h106z" />
    <glyph glyph-name="Icircumflex" unicode="&#xce;" horiz-adv-x="283" 
d="M193 0h-103v718h103v-718zM307 773l-70 -0.00195312c-4 0 -9 0.833008 -15 2.5s-11.667 5.83398 -17 12.501l-56 68c-2.66699 2.66699 -4.66699 5.66699 -6 9l-6 -9l-56 -68c-6 -7.33301 -11.833 -11.666 -17.5 -12.999s-10.5 -2 -14.5 -2h-66l119 136h85z" />
    <glyph glyph-name="Idieresis" unicode="&#xcf;" horiz-adv-x="283" 
d="M193 0h-103v718h103v-718zM95 833c0 -8 -1.66699 -15.333 -5 -22s-7.66602 -12.5 -12.999 -17.5s-11.333 -9 -18 -12s-14 -4.5 -22 -4.5c-7.33301 0 -14.5 1.5 -21.5 4.5s-13.167 7 -18.5 12s-9.33301 11 -12 18s-4 14.167 -4 21.5c0 8 1.33301 15.5 4 22.5
s6.66699 13.167 12 18.5s11.333 9.5 18 12.5s14 4.5 22 4.5s15.333 -1.5 22 -4.5s12.667 -7.16699 18 -12.5s9.66602 -11.5 12.999 -18.5s5 -14.5 5 -22.5zM305 833c0 -8 -1.33301 -15.333 -4 -22s-6.66699 -12.5 -12 -17.5s-11.5 -9 -18.5 -12
c-6.33301 -3 -13.5 -4.5 -21.5 -4.5s-15.5 1.5 -22.5 4.5s-13 7 -18 12s-9.16699 11 -12.5 18s-5 14.167 -5 21.5c0 8 1.66699 15.5 5 22.5s7.5 13.167 12.5 18.5s11 9.5 18 12.5s14.5 4.5 22.5 4.5s15.333 -1.5 22 -4.5s12.667 -7.16699 18 -12.5s9.33301 -11.5 12 -18.5
s4 -14.5 4 -22.5z" />
    <glyph glyph-name="Eth" unicode="&#xd0;" horiz-adv-x="769" 
d="M1 392l97 -0.00585938v326h269c53.333 0 101.833 -8.66699 145.5 -26s81 -41.666 112 -72.999s55 -69.166 72 -113.499s25.5 -93.166 25.5 -146.499s-8.5 -102.166 -25.5 -146.499s-41 -82.166 -72 -113.499s-68.5 -55.666 -112.5 -72.999s-92.333 -26 -145 -26h-269v332
h-97v60zM616 358.994c0 42.667 -5.66699 81.168 -17 115.501s-28 63.166 -50 86.499s-48.333 41.333 -79 54s-65 19 -103 19h-165v-242h142v-60h-142v-248h165c38 0 72.333 6.16699 103 18.5s57 30.333 79 54s38.667 52.5 50 86.5s17 72.667 17 116z" />
    <glyph glyph-name="Ntilde" unicode="&#xd1;" horiz-adv-x="765" 
d="M143 718c9.33301 0 16.1689 -1.00098 20.502 -3.00098s9.16602 -7 14.499 -15l409 -530c-0.666992 9.33301 -1.33398 18.5 -2.00098 27.5c-0.666992 8.33301 -1 16.5 -1 24.5v496h91v-718h-52c-8 0 -14.833 1.33301 -20.5 4s-11.167 7.33398 -16.5 14.001l-408 530
c0.666992 -8.66699 1.16699 -17.167 1.5 -25.5s0.5 -16.5 0.5 -24.5v-498h-90v718h53zM452.003 833.999c8 0 14.665 1.49707 19.998 4.49707s10 6.83301 14 11.5s7 9.83398 9 15.501s3 11.834 3 18.501h58c0 -14.667 -2 -28.834 -6 -42.501s-10 -25.667 -18 -36
s-17.667 -18.666 -29 -24.999s-24.666 -9.5 -39.999 -9.5s-29 2.66699 -41 8s-23 11.166 -33 17.499s-19.667 12.333 -29 18s-18.666 8.5 -27.999 8.5c-8 0 -14.667 -1.5 -20 -4.5s-9.83301 -6.83301 -13.5 -11.5s-6.5 -10 -8.5 -16s-3 -12 -3 -18h-59
c0 14.667 2 28.834 6 42.501s10 25.834 18 36.501s18 19 30 25s25.333 9 40 9c15.333 0 29 -2.66699 41 -8s23.167 -11.333 33.5 -18s19.833 -12.667 28.5 -18s17.667 -8 27 -8z" />
    <glyph glyph-name="Ograve" unicode="&#xd2;" horiz-adv-x="801" 
d="M756 359c0 -53.333 -8.6709 -102.501 -26.0039 -147.501s-41.333 -83.833 -72 -116.5s-68 -58 -112 -76s-92.333 -27 -145 -27c-53.333 0 -101.666 9 -144.999 27s-80.666 43.333 -111.999 76s-55.5 71.334 -72.5 116.001s-25.5 94 -25.5 148
c0 53.333 8.5 102.5 25.5 147.5s41.167 83.667 72.5 116s68.833 57.666 112.5 75.999s91.834 27.5 144.501 27.5c53.333 0 101.833 -9.16699 145.5 -27.5s80.834 -43.666 111.501 -75.999s54.667 -71 72 -116s26 -94.167 26 -147.5zM649.996 358.999
c0 42.667 -5.66699 81.167 -17 115.5s-28 63.5 -50 87.5s-48.333 42.333 -79 55s-65 19 -103 19s-72.333 -6.33301 -103 -19s-57 -31 -79 -55s-39 -53 -51 -87s-18 -72.667 -18 -116s6 -82.166 18 -116.499s29 -63.333 51 -87s48.333 -41.834 79 -54.501s65 -19 103 -19
s72.333 6.33301 103 19s57 30.834 79 54.501s38.667 52.667 50 87s17 73.166 17 116.499zM313.996 926.999c5.33301 0 10.332 -0.167969 14.999 -0.500977s8.5 -1.16602 11.5 -2.49902s6 -3 9 -5s5.83301 -5 8.5 -9l113 -137h-68c-8 0 -14.167 0.5 -18.5 1.5
s-9.16602 3.83301 -14.499 8.5l-156 144h100z" />
    <glyph glyph-name="Oacute" unicode="&#xd3;" horiz-adv-x="801" 
d="M756 359c0 -53.333 -8.6709 -102.501 -26.0039 -147.501s-41.333 -83.833 -72 -116.5s-68 -58 -112 -76s-92.333 -27 -145 -27c-53.333 0 -101.666 9 -144.999 27s-80.666 43.333 -111.999 76s-55.5 71.334 -72.5 116.001s-25.5 94 -25.5 148
c0 53.333 8.5 102.5 25.5 147.5s41.167 83.667 72.5 116s68.833 57.666 112.5 75.999s91.834 27.5 144.501 27.5c53.333 0 101.833 -9.16699 145.5 -27.5s80.834 -43.666 111.501 -75.999s54.667 -71 72 -116s26 -94.167 26 -147.5zM649.996 358.999
c0 42.667 -5.66699 81.167 -17 115.5s-28 63.5 -50 87.5s-48.333 42.333 -79 55s-65 19 -103 19s-72.333 -6.33301 -103 -19s-57 -31 -79 -55s-39 -53 -51 -87s-18 -72.667 -18 -116s6 -82.166 18 -116.499s29 -63.333 51 -87s48.333 -41.834 79 -54.501s65 -19 103 -19
s72.333 6.33301 103 19s57 30.834 79 54.501s38.667 52.667 50 87s17 73.166 17 116.499zM593.996 926.999l-162 -142.999c-5.33301 -4.66699 -10.333 -7.66699 -15 -9s-11 -2 -19 -2h-68l114 137c2.66699 4 5.33398 7 8.00098 9s5.66699 3.66699 9 5
s7.16602 2.16602 11.499 2.49902c5 0.333008 10.167 0.5 15.5 0.5h106z" />
    <glyph glyph-name="Ocircumflex" unicode="&#xd4;" horiz-adv-x="801" 
d="M756 359c0 -53.333 -8.6709 -102.501 -26.0039 -147.501s-41.333 -83.833 -72 -116.5s-68 -58 -112 -76s-92.333 -27 -145 -27c-53.333 0 -101.666 9 -144.999 27s-80.666 43.333 -111.999 76s-55.5 71.334 -72.5 116.001s-25.5 94 -25.5 148
c0 53.333 8.5 102.5 25.5 147.5s41.167 83.667 72.5 116s68.833 57.666 112.5 75.999s91.834 27.5 144.501 27.5c53.333 0 101.833 -9.16699 145.5 -27.5s80.834 -43.666 111.501 -75.999s54.667 -71 72 -116s26 -94.167 26 -147.5zM649.996 358.999
c0 42.667 -5.66699 81.167 -17 115.5s-28 63.5 -50 87.5s-48.333 42.333 -79 55s-65 19 -103 19s-72.333 -6.33301 -103 -19s-57 -31 -79 -55s-39 -53 -51 -87s-18 -72.667 -18 -116s6 -82.166 18 -116.499s29 -63.333 51 -87s48.333 -41.834 79 -54.501s65 -19 103 -19
s72.333 6.33301 103 19s57 30.834 79 54.501s38.667 52.667 50 87s17 73.166 17 116.499zM565.996 772.999l-70 -0.00195312c-4 0 -9 0.833008 -15 2.5s-11.667 5.83398 -17 12.501l-56 68c-2.66699 2.66699 -4.66699 5.66699 -6 9l-6 -9l-56 -68
c-6 -7.33301 -11.833 -11.666 -17.5 -12.999s-10.5 -2 -14.5 -2h-66l119 136h85z" />
    <glyph glyph-name="Otilde" unicode="&#xd5;" horiz-adv-x="801" 
d="M756 359c0 -53.333 -8.6709 -102.501 -26.0039 -147.501s-41.333 -83.833 -72 -116.5s-68 -58 -112 -76s-92.333 -27 -145 -27c-53.333 0 -101.666 9 -144.999 27s-80.666 43.333 -111.999 76s-55.5 71.334 -72.5 116.001s-25.5 94 -25.5 148
c0 53.333 8.5 102.5 25.5 147.5s41.167 83.667 72.5 116s68.833 57.666 112.5 75.999s91.834 27.5 144.501 27.5c53.333 0 101.833 -9.16699 145.5 -27.5s80.834 -43.666 111.501 -75.999s54.667 -71 72 -116s26 -94.167 26 -147.5zM649.996 358.999
c0 42.667 -5.66699 81.167 -17 115.5s-28 63.5 -50 87.5s-48.333 42.333 -79 55s-65 19 -103 19s-72.333 -6.33301 -103 -19s-57 -31 -79 -55s-39 -53 -51 -87s-18 -72.667 -18 -116s6 -82.166 18 -116.499s29 -63.333 51 -87s48.333 -41.834 79 -54.501s65 -19 103 -19
s72.333 6.33301 103 19s57 30.834 79 54.501s38.667 52.667 50 87s17 73.166 17 116.499zM464.996 833.999c8 0 14.834 1.66699 20.501 5s10.334 7.33301 14.001 12s6.5 9.83398 8.5 15.501s3 11.5 3 17.5h58c0 -14.667 -2 -28.667 -6 -42s-10 -25.333 -18 -36
s-17.833 -19 -29.5 -25s-24.834 -9 -39.501 -9c-15.333 0 -29 2.66699 -41 8s-23.167 11.166 -33.5 17.499s-19.833 12.333 -28.5 18s-17.667 8.5 -27 8.5c-8 0 -14.667 -1.66699 -20 -5s-10 -7.33301 -14 -12s-7 -10 -9 -16s-3 -11.667 -3 -17h-59
c0 14.667 2.16699 28.667 6.5 42s10.5 25.333 18.5 36s17.667 19.167 29 25.5s24.333 9.5 39 9.5c15.333 0 29.166 -2.83301 41.499 -8.5s23.5 -11.667 33.5 -18s19.5 -12.333 28.5 -18s18.167 -8.5 27.5 -8.5z" />
    <glyph glyph-name="Odieresis" unicode="&#xd6;" horiz-adv-x="801" 
d="M756 359c0 -53.333 -8.6709 -102.501 -26.0039 -147.501s-41.333 -83.833 -72 -116.5s-68 -58 -112 -76s-92.333 -27 -145 -27c-53.333 0 -101.666 9 -144.999 27s-80.666 43.333 -111.999 76s-55.5 71.334 -72.5 116.001s-25.5 94 -25.5 148
c0 53.333 8.5 102.5 25.5 147.5s41.167 83.667 72.5 116s68.833 57.666 112.5 75.999s91.834 27.5 144.501 27.5c53.333 0 101.833 -9.16699 145.5 -27.5s80.834 -43.666 111.501 -75.999s54.667 -71 72 -116s26 -94.167 26 -147.5zM649.996 358.999
c0 42.667 -5.66699 81.167 -17 115.5s-28 63.5 -50 87.5s-48.333 42.333 -79 55s-65 19 -103 19s-72.333 -6.33301 -103 -19s-57 -31 -79 -55s-39 -53 -51 -87s-18 -72.667 -18 -116s6 -82.166 18 -116.499s29 -63.333 51 -87s48.333 -41.834 79 -54.501s65 -19 103 -19
s72.333 6.33301 103 19s57 30.834 79 54.501s38.667 52.667 50 87s17 73.166 17 116.499zM353.996 832.999c0 -8 -1.66699 -15.333 -5 -22s-7.66602 -12.5 -12.999 -17.5s-11.333 -9 -18 -12s-14 -4.5 -22 -4.5c-7.33301 0 -14.5 1.5 -21.5 4.5s-13.167 7 -18.5 12
s-9.33301 11 -12 18s-4 14.167 -4 21.5c0 8 1.33301 15.5 4 22.5s6.66699 13.167 12 18.5s11.333 9.5 18 12.5s14 4.5 22 4.5s15.333 -1.5 22 -4.5s12.667 -7.16699 18 -12.5s9.66602 -11.5 12.999 -18.5s5 -14.5 5 -22.5zM563.996 832.999c0 -8 -1.33301 -15.333 -4 -22
s-6.66699 -12.5 -12 -17.5s-11.5 -9 -18.5 -12c-6.33301 -3 -13.5 -4.5 -21.5 -4.5s-15.5 1.5 -22.5 4.5s-13 7 -18 12s-9.16699 11 -12.5 18s-5 14.167 -5 21.5c0 8 1.66699 15.5 5 22.5s7.5 13.167 12.5 18.5s11 9.5 18 12.5s14.5 4.5 22.5 4.5s15.333 -1.5 22 -4.5
s12.667 -7.16699 18 -12.5s9.33301 -11.5 12 -18.5s4 -14.5 4 -22.5z" />
    </font>
</defs>
</svg>
