<svg xmlns="http://www.w3.org/2000/svg">
<defs>
<font id="lato" horiz-adv-x="368" >
  <font-face 
    font-family="Lato"
    font-weight="700"
    font-style="italic"
    font-stretch="normal"
    units-per-em="1000"
    panose-1="2 15 8 2 2 2 4 3 2 3"
    ascent="805"
    descent="-195"
    x-height="513"
    cap-height="722"
    bbox="-519.999 -283 1293 1098"
    underline-thickness="97"
    underline-position="-3"
    slope="-7"
    unicode-range="U+000D-FEFF"
  />
<missing-glyph horiz-adv-x="547" 
d="M120 574c18.667 15.333 40.001 28.168 64.001 38.501s52.667 15.5 86 15.5c23.333 0 44.333 -3.16699 63 -9.5s34.5 -15.333 47.5 -27s22.833 -25.5 29.5 -41.5s10 -34 10 -54c0 -18.667 -2.33301 -34.334 -7 -47.001s-10.334 -24 -17.001 -34
s-14.334 -18.5 -23.001 -25.5s-16.667 -13.667 -24 -20s-14 -12.5 -20 -18.5s-9.66699 -12.333 -11 -19l-12 -48h-84l-8 56c-2 12 -1.16699 22.667 2.5 32s8.83398 17.5 15.501 24.5s14.334 13.667 23.001 20s16.667 12.833 24 19.5s13.666 14.334 18.999 23.001
s8 18.667 8 30c0 12 -4 21.5 -12 28.5s-19.667 10.5 -35 10.5c-12 0 -22.167 -1 -30.5 -3s-15.5 -4.33301 -21.5 -7s-11.167 -5.33398 -15.5 -8.00098c-3.66699 -2.66699 -8.16699 -4 -13.5 -4c-12 0 -20.667 5 -26 15zM192.001 156.002c0 9.33301 1.83301 18.333 5.5 27
s8.5 16 14.5 22s13.167 10.667 21.5 14s17.166 5 26.499 5s18.166 -1.66699 26.499 -5s15.666 -8 21.999 -14s11.166 -13.333 14.499 -22s5 -17.667 5 -27s-1.66699 -18 -5 -26s-8.16602 -15 -14.499 -21s-13.666 -10.833 -21.999 -14.5s-17.166 -5.5 -26.499 -5.5
s-18.166 1.83301 -26.499 5.5s-15.5 8.5 -21.5 14.5s-10.833 13 -14.5 21s-5.5 16.667 -5.5 26zM21.001 723.002h505v-723h-505v723zM54.001 34.002h436v655h-436v-655z" />
    <glyph glyph-name="uniFB00" unicode="ff" horiz-adv-x="633" 
d="M528 508l121.995 0.00195312l-12 -84h-116l-48 -403l-26 -94c-5.33301 -16 -12.666 -28.5 -21.999 -37.5s-23.333 -13.5 -42 -13.5h-49l65 548h-176l-48 -403l-26 -94c-5.33301 -16 -12.666 -28.5 -21.999 -37.5s-23 -13.5 -41 -13.5h-50l67 547l-39 7
c-8.66699 1.33301 -15.667 4.33301 -21 9s-7.33301 11.667 -6 21l6 48h70l4 30c4 29.333 11.667 55.666 23 78.999s25.833 43 43.5 59s38 28.333 61 37s48.167 13 75.5 13c20.667 0 40.334 -3 59.001 -9l-11 -64c-1.33301 -8 -5.83301 -12.5 -13.5 -13.5
s-16.167 -1.5 -25.5 -1.5c-13.333 0 -25.333 -1.5 -36 -4.5s-20 -8.16699 -28 -15.5s-14.667 -17.166 -20 -29.499s-9.33301 -27.833 -12 -46.5l-4 -34h180l6 46c4 29.333 11.833 55.666 23.5 78.999s26.5 43.166 44.5 59.499s38.833 28.833 62.5 37.5s49.167 13 76.5 13
c10.667 0 20.834 -0.833008 30.501 -2.5s19.167 -3.83398 28.5 -6.50098l-11 -64c-1.33301 -8 -5.83301 -12.667 -13.5 -14s-16.167 -2 -25.5 -2c-13.333 0 -25.666 -1.83301 -36.999 -5.5s-21 -9.66699 -29 -18s-14.833 -19.166 -20.5 -32.499
c-5 -13.333 -8.83301 -29.333 -11.5 -48z" />
    <glyph glyph-name="uniFB01" unicode="fi" horiz-adv-x="562" 
d="M230 508l295.002 0.000976562l-62 -508h-121l52 420h-170l-49 -400l-25 -94c-5.33301 -16 -12.833 -28.333 -22.5 -37s-23.5 -13 -41.5 -13h-50l68 544l-38 7c-9.33301 2 -16.5 5.33301 -21.5 10c-5.66699 4.66699 -7.83398 11 -6.50098 19l6 52h70l2 17
c4 31.333 12.333 60.333 25 87s30 49.667 52 69s48.667 34.5 80 45.5s67.666 16.5 108.999 16.5c13.333 0 27.166 -0.833008 41.499 -2.5c15 -1.66699 27.167 -3.83398 36.5 -6.50098l-12 -62c-1.33301 -8 -6 -12.5 -14 -13.5s-17.333 -1.5 -28 -1.5
c-30 0 -55.5 -2.83301 -76.5 -8.5s-38.167 -14 -51.5 -25s-23.666 -25 -30.999 -42s-12.333 -36.833 -15 -59.5z" />
    <glyph glyph-name="uniFB02" unicode="fl" horiz-adv-x="571" 
d="M224 420l-49.0029 -400l-25 -94c-5.33301 -16 -12.833 -28.333 -22.5 -37s-23.5 -13 -41.5 -13h-50l67 544l-37 7c-9.33301 2 -16.666 5.33301 -21.999 10s-7.33301 11 -6 19l6 52h70l2 23c3.33301 27.333 10.5 53.333 21.5 78s25.833 46.667 44.5 66
s41.334 34.5 68.001 45.5s57 16.5 91 16.5c28 0 54.5 -1 79.5 -3s50.5 -3 76.5 -3h69l-90 -731h-120l78 643c-14.667 1.33301 -29 2.83301 -43 4.5s-27.667 2.5 -41 2.5c-33.333 0 -60.166 -10 -80.499 -30s-32.5 -49.667 -36.5 -89l-3 -23h109l-11 -88h-104z" />
    <glyph glyph-name="uniFB03" unicode="ffi" horiz-adv-x="860" 
d="M230 508l183.995 -0.000976562l2 17c4 31.333 12.333 60.333 25 87s30 49.667 52 69s48.667 34.5 80 45.5s67.666 16.5 108.999 16.5c6.66699 0 13.334 -0.166992 20.001 -0.5s13.334 -0.833008 20.001 -1.5s13.334 -1.66699 20.001 -3s12 -2.66602 16 -3.99902l-12 -62
c-1.33301 -8 -5.83301 -12.5 -13.5 -13.5c-7 -1 -15.833 -1.5 -26.5 -1.5c-30.667 0 -56.5 -2.83301 -77.5 -8.5s-38.333 -14 -52 -25s-24.167 -25 -31.5 -42s-12.333 -36.833 -15 -59.5l-1 -14h294l-62 -508h-119l52 424h-171l-49 -404l-26 -94
c-5.33301 -16 -12.666 -28.333 -21.999 -37s-23 -13 -41 -13h-49l67 548h-179l-48 -403l-26 -94c-5.33301 -16 -12.666 -28.5 -21.999 -37.5s-23 -13.5 -41 -13.5h-50l67 547l-39 7c-8.66699 1.33301 -15.667 4.33301 -21 9s-7.33301 11.667 -6 21l6 48h70l4 30
c4 29.333 11.667 55.666 23 78.999s25.833 43 43.5 59s38 28.333 61 37s48.167 13 75.5 13c20.667 0 40.334 -3 59.001 -9l-11 -64c-1.33301 -8 -5.83301 -12.5 -13.5 -13.5s-16.167 -1.5 -25.5 -1.5c-13.333 0 -25.333 -1.5 -36 -4.5s-20 -8.16699 -28 -15.5
s-14.667 -17.166 -20 -29.499s-9.33301 -27.833 -12 -46.5z" />
    <glyph glyph-name="uniFB04" unicode="ffl" horiz-adv-x="869" 
d="M228 507h182.997l3 24c3.33301 27.333 10.5 53.333 21.5 78s25.833 46.667 44.5 66s41.334 34.5 68.001 45.5s56.667 16.5 90 16.5c28 0 54.667 -1 80 -3s50.666 -3 75.999 -3h69l-90 -731h-119l78 643c-14.667 1.33301 -29.167 2.83301 -43.5 4.5
s-28.166 2.5 -41.499 2.5c-33.333 0 -60.166 -10 -80.499 -30s-32.5 -49.667 -36.5 -89l-2 -24h122l-12 -85h-116l-50 -402l-25 -94c-5.33301 -16 -12.833 -28.333 -22.5 -37s-23.167 -13 -40.5 -13h-50l66 546h-178l-48 -401l-26 -94
c-5.33301 -16 -12.666 -28.5 -21.999 -37.5s-23 -13.5 -41 -13.5h-49l66 546l-37 7c-8.66699 1.33301 -15.667 4.5 -21 9.5s-7.33301 11.833 -6 20.5l6 48h68l4 31c4 29.333 11.667 55.666 23 78.999s26 43 44 59s38.5 28.333 61.5 37c23.667 8.66699 48.834 13 75.501 13
c21.333 0 40.666 -3 57.999 -9l-10 -64c-1.33301 -4 -3.33301 -7 -6 -9s-5.66699 -3.5 -9 -4.5s-7.33301 -1.5 -12 -1.5h-13c-13.333 0 -25.333 -1.5 -36 -4.5s-20 -8.16699 -28 -15.5s-14.667 -17.166 -20 -29.499s-9.33301 -27.833 -12 -46.5z" />
    <glyph glyph-name="f_b.liga" unicode="fb" horiz-adv-x="876" 
d="M358 0l79.9971 663.999l-40 8c-13.333 2.66699 -26.333 4 -39 4c-17.333 0 -33.166 -3 -47.499 -9s-26.666 -14.667 -36.999 -26s-18.833 -24.833 -25.5 -40.5s-11 -33.167 -13 -52.5l-5 -40h115l-10 -88h-112l-49 -400l-25 -94c-5.33301 -16 -12.833 -28.333 -22.5 -37
s-23.5 -13 -41.5 -13h-50l68 544l-38 7c-9.33301 2 -16.666 5.33301 -21.999 10s-7.33301 11 -6 19l6 52h70l6 40c3.33301 27.333 10.666 53.5 21.999 78.5s26.666 46.833 45.999 65.5s42.5 33.667 69.5 45s57.833 17 92.5 17c21.333 0 42.333 -0.5 63 -1.5
s40.334 -2.33301 59.001 -4s36 -3 52 -4s30.667 -1.5 44 -1.5v0l-40 -331c24 33.333 50.667 59.833 80 79.5s60.666 29.5 93.999 29.5c21.333 0 40.666 -3.83301 57.999 -11.5s32.333 -19.5 45 -35.5s22.334 -36 29.001 -60s10 -52 10 -84c0 -29.333 -3 -58 -9 -86
s-14.5 -54.333 -25.5 -79s-24.167 -47.667 -39.5 -69s-32.166 -39.666 -50.499 -54.999s-38.166 -27.333 -59.499 -36s-43.333 -13 -66 -13c-26.667 0 -50.167 5.33301 -70.5 16s-37.5 25 -51.5 43l-4 -17c-4 -12 -9 -20.667 -15 -26s-15.667 -8 -29 -8h-66z
M653.997 423.999c-13.333 0 -27 -4.66699 -41 -14s-27.5 -22 -40.5 -38s-25 -35 -36 -57s-20.5 -45.667 -28.5 -71l-16 -124c11.333 -12 24.333 -20.667 39 -26c14 -5.33301 28.333 -8 43 -8c22 0 42.167 7 60.5 21s33.833 32 46.5 54s22.5 46.667 29.5 74s10.5 55 10.5 83
c0 36 -5.83301 62.667 -17.5 80s-28.167 26 -49.5 26z" />
    <glyph glyph-name="f_f_b.liga" unicode="ffb" horiz-adv-x="1174" 
d="M656 0l79.9941 663.999l-40 8c-13.333 2.66699 -26 4 -38 4c-17.333 0 -33.166 -3 -47.499 -9s-26.833 -14.667 -37.5 -26s-19.167 -24.833 -25.5 -40.5s-10.833 -33.167 -13.5 -52.5l-4 -41h119l-11 -85h-115l-49 -402l-26 -94
c-5.33301 -16 -12.666 -28.333 -21.999 -37s-23.333 -13 -42 -13h-49l67 546h-178l-48 -401l-26 -94c-5.33301 -16 -12.666 -28.5 -21.999 -37.5s-23.333 -13.5 -42 -13.5h-49l67 546l-40 7c-8.66699 1.33301 -15.5 4.5 -20.5 9.5s-6.83301 11.833 -5.5 20.5l6 48h70l4 31
c4 29.333 11.667 55.666 23 78.999s25.833 43 43.5 59s38 28.333 61 37s48.167 13 75.5 13c20.667 0 40.334 -3 59.001 -9l-11 -64c-1.33301 -8 -5.83301 -12.5 -13.5 -13.5s-16.167 -1.5 -25.5 -1.5c-13.333 0 -25.333 -1.5 -36 -4.5s-20 -8.16699 -28 -15.5
s-14.667 -17.166 -20 -29.499s-9.33301 -27.833 -12 -46.5l-4 -35h183l5 41c3.33301 27.333 10.833 53.5 22.5 78.5s27.167 46.833 46.5 65.5s42.5 33.667 69.5 45s57.833 17 92.5 17c20 0 39.833 -0.5 59.5 -1.5s38.5 -2.16699 56.5 -3.5s34.833 -2.5 50.5 -3.5
s29.834 -1.83301 42.501 -2.5h8l-40 -331c24 33.333 50.667 59.833 80 79.5s60.666 29.5 93.999 29.5c21.333 0 40.666 -3.83301 57.999 -11.5s32.333 -19.5 45 -35.5s22.334 -36 29.001 -60s10 -52 10 -84c0 -29.333 -3 -58 -9 -86s-14.5 -54.333 -25.5 -79
s-24.167 -47.667 -39.5 -69s-32.166 -39.666 -50.499 -54.999s-38.166 -27.333 -59.499 -36s-43.333 -13 -66 -13c-26.667 0 -50.167 5.33301 -70.5 16s-37.5 25 -51.5 43l-4 -17c-4 -12 -9 -20.667 -15 -26s-15.667 -8 -29 -8h-66zM951.994 423.999
c-13.333 0 -27 -4.66699 -41 -14s-27.5 -22 -40.5 -38s-25 -35 -36 -57s-20.5 -45.667 -28.5 -71l-16 -124c11.333 -12 24.333 -20.667 39 -26c14 -5.33301 28.333 -8 43 -8c22 0 42.167 7 60.5 21s33.833 32 46.5 54s22.5 46.667 29.5 74s10.5 55 10.5 83
c0 36 -5.83301 62.667 -17.5 80s-28.167 26 -49.5 26z" />
    <glyph glyph-name="f_h.liga" unicode="fh" horiz-adv-x="875" 
d="M354 0l80.001 663.998c-13.333 2.66699 -26.333 5.33398 -39 8.00098s-24.667 4 -36 4c-17.333 0 -33.166 -3 -47.499 -9s-26.833 -14.667 -37.5 -26s-19.334 -24.833 -26.001 -40.5s-10.667 -33.167 -12 -52.5l-5 -40h115l-10 -88h-112l-49 -400l-25 -94
c-5.33301 -16 -12.833 -28.333 -22.5 -37s-23.5 -13 -41.5 -13h-50l68 544l-38 7c-9.33301 2 -16.666 5.33301 -21.999 10s-7.33301 11 -6 19l6 52h70l6 40c3.33301 27.333 10.666 53.5 21.999 78.5s26.666 46.833 45.999 65.5s42.5 33.667 69.5 45s57.833 17 92.5 17
c20 0 40 -0.5 60 -1.5s38.833 -2.16699 56.5 -3.5s34.334 -2.5 50.001 -3.5s29.834 -1.83301 42.501 -2.5h9l-39 -317c25.333 32 52.5 55.833 81.5 71.5s58.833 23.5 89.5 23.5c21.333 0 40.666 -4.33301 57.999 -13s31.333 -21.167 42 -37.5s18.334 -36.666 23.001 -60.999
c4.66699 -25 5 -52.833 1 -83.5l-39 -326h-123l38 326c4 33.333 2.33301 57.333 -5 72s-21.666 22 -42.999 22c-12.667 0 -25.834 -3.5 -39.501 -10.5s-26.834 -17 -39.501 -30s-24.334 -28.833 -35.001 -47.5s-20 -39.667 -28 -63l-32 -269h-124z" />
    <glyph glyph-name="f_f_h.liga" unicode="ffh" horiz-adv-x="1174" 
d="M653 0l81.001 663.998c-13.333 2.66699 -26.333 5.33398 -39 8.00098s-25 4 -37 4c-17.333 0 -33.166 -3 -47.499 -9s-26.833 -14.667 -37.5 -26s-19.167 -24.833 -25.5 -40.5s-10.833 -33.167 -13.5 -52.5l-4 -41h119l-11 -85h-115l-49 -402l-26 -94
c-5.33301 -16 -12.666 -28.333 -21.999 -37s-23.333 -13 -42 -13h-49l67 546h-178l-48 -401l-26 -94c-5.33301 -16 -12.666 -28.5 -21.999 -37.5s-23.333 -13.5 -42 -13.5h-49l67 546l-40 7c-8.66699 1.33301 -15.5 4.5 -20.5 9.5s-6.83301 11.833 -5.5 20.5l6 48h70l4 31
c4 29.333 11.667 55.666 23 78.999s25.833 43 43.5 59s38 28.333 61 37s48.167 13 75.5 13c20.667 0 40.334 -3 59.001 -9l-11 -64c-1.33301 -8 -5.83301 -12.5 -13.5 -13.5s-16.167 -1.5 -25.5 -1.5c-13.333 0 -25.333 -1.5 -36 -4.5s-20 -8.16699 -28 -15.5
s-14.667 -17.166 -20 -29.499s-9.33301 -27.833 -12 -46.5l-4 -35h183l5 41c3.33301 27.333 10.833 53.5 22.5 78.5s27.167 46.833 46.5 65.5s42.5 33.667 69.5 45s57.833 17 92.5 17c21.333 0 42.333 -0.5 63 -1.5s40.167 -2.33301 58.5 -4s35.666 -3 51.999 -4
s30.833 -1.5 43.5 -1.5v0l-38 -317c25.333 32 52.5 55.833 81.5 71.5c28.333 15.667 57.833 23.5 88.5 23.5c21.333 0 40.666 -4.33301 57.999 -13s31.666 -21.167 42.999 -37.5s19.166 -36.666 23.499 -60.999c4.33301 -25 4.5 -52.833 0.5 -83.5l-39 -326h-123l39 326
c4 33.333 2 57.333 -6 72s-22 22 -42 22c-12.667 0 -25.834 -3.5 -39.501 -10.5s-26.834 -17 -39.501 -30s-24.667 -28.833 -36 -47.5s-20.666 -39.667 -27.999 -63l-33 -269h-123z" />
    <glyph glyph-name="f_igrave.liga" unicode="f&#xec;" horiz-adv-x="562" 
d="M230 508h295l-62 -508h-121l52 420h-170l-50 -399l-22 -94c-5.33301 -16 -13 -28.5 -23 -37.5s-23.667 -13.5 -41 -13.5h-50l66 544l-38 7c-9.33301 2 -16.666 5.33301 -21.999 10s-7.33301 11 -6 19l6 52h72l6 57c3.33301 26.667 9.5 50.834 18.5 72.501
s20.5 40 34.5 55s30.333 26.333 49 34s39.334 11.5 62.001 11.5c8 0 16 -0.333008 24 -1s15.333 -2 22 -4l-8 -65c-0.666992 -6 -3.83398 -10.167 -9.50098 -12.5s-11.834 -3.5 -18.501 -3.5c-17.333 0 -30.5 -6.83301 -39.5 -20.5
c-8.33301 -13.667 -14.5 -35.834 -18.5 -66.501zM444 731c12 0 20.833 -2.16797 26.5 -6.50098c5 -4.33301 9.5 -11.166 13.5 -20.499l52 -121h-64c-8.66699 0 -15.667 1.16699 -21 3.5s-10.333 6.83301 -15 13.5l-99 131h107z" />
    <glyph glyph-name="f_icircumflex.liga" unicode="f&#xee;" horiz-adv-x="562" 
d="M230 508h295l-62 -508h-121l52 420h-170l-50 -399l-22 -94c-5.33301 -16 -13 -28.5 -23 -37.5s-23.667 -13.5 -41 -13.5h-50l66 544l-38 7c-9.33301 2 -16.666 5.33301 -21.999 10s-7.33301 11 -6 19l6 52h72l6 57c3.33301 26.667 9.5 50.834 18.5 72.501
s20.5 40 34.5 55s30.333 26.333 49 34s39.334 11.5 62.001 11.5c8 0 16 -0.333008 24 -1s15.333 -2 22 -4l-8 -65c-0.666992 -6 -3.83398 -10.167 -9.50098 -12.5s-11.834 -3.5 -18.501 -3.5c-17.333 0 -30.5 -6.83301 -39.5 -20.5
c-8.33301 -13.667 -14.5 -35.834 -18.5 -66.501zM640 584h-76.002c-4 0 -8 1 -12 3s-8 5 -12 9l-40 52c-1.33301 1.33301 -2.66602 3.16602 -3.99902 5.49902c-1.33301 1.66699 -2.66602 3.83398 -3.99902 6.50098c-1.33301 -2.66699 -3 -4.83398 -5 -6.50098
c-2 -2.33301 -4 -4.16602 -6 -5.49902l-51 -52c-4 -4 -8.5 -7 -13.5 -9s-9.83301 -3 -14.5 -3h-79l121 139h107z" />
    <glyph glyph-name="f_itilde.liga" unicode="f&#x129;" horiz-adv-x="562" 
d="M230 508h295l-62 -508h-121l52 420h-170l-50 -399l-22 -94c-5.33301 -16 -13 -28.5 -23 -37.5s-23.667 -13.5 -41 -13.5h-50l66 544l-38 7c-9.33301 2 -16.666 5.33301 -21.999 10s-7.33301 11 -6 19l6 52h72l6 57c3.33301 26.667 9.5 50.834 18.5 72.501
s20.5 40 34.5 55s30.333 26.333 49 34s39.334 11.5 62.001 11.5c8 0 16 -0.333008 24 -1s15.333 -2 22 -4l-8 -65c-0.666992 -6 -3.83398 -10.167 -9.50098 -12.5s-11.834 -3.5 -18.501 -3.5c-17.333 0 -30.5 -6.83301 -39.5 -20.5
c-8.33301 -13.667 -14.5 -35.834 -18.5 -66.501zM536 680c9.33301 0 16.8301 2.66797 22.4971 8.00098c6.33301 5.33301 10.166 15.333 11.499 30h69c-2.66699 -18.667 -7.16699 -35.667 -13.5 -51s-14.166 -28.333 -23.499 -39s-20.166 -19 -32.499 -25
c-13 -6 -26.167 -9 -39.5 -9c-10.667 0 -20.667 2.16699 -30 6.5s-17.666 9 -24.999 14s-14.5 9.66699 -21.5 14s-13.5 6.5 -19.5 6.5c-9.33301 0 -16.666 -2.83301 -21.999 -8.5s-9 -15.834 -11 -30.501h-70c2 18.667 6.33301 35.667 13 51s14.834 28.333 24.501 39
s20.667 19 33 25s25.166 9 38.499 9c10.667 0 20.667 -2 30 -6s18 -8.66699 26 -14s15.167 -10 21.5 -14s12.5 -6 18.5 -6z" />
    <glyph glyph-name="f_idieresis.liga" unicode="f&#xef;" horiz-adv-x="562" 
d="M464 646c0 -8 -1.66797 -15.667 -5.00098 -23s-7.66602 -13.666 -12.999 -18.999s-12 -9.66602 -20 -12.999s-16 -5 -24 -5s-15.833 1.66699 -23.5 5s-14.334 7.66602 -20.001 12.999s-10.167 11.666 -13.5 18.999s-5 15 -5 23c0 8.66699 1.66699 16.834 5 24.501
s7.83301 14.334 13.5 20.001s12.334 10.167 20.001 13.5s15.5 5 23.5 5c8.66699 0 16.834 -1.66699 24.501 -5s14.167 -7.83301 19.5 -13.5s9.66602 -12.334 12.999 -20.001s5 -15.834 5 -24.501zM617.999 646c0 -8 -1.66699 -15.667 -5 -23s-8 -13.666 -14 -18.999
s-12.667 -9.66602 -20 -12.999s-15.333 -5 -24 -5s-16.667 1.66699 -24 5s-13.833 7.66602 -19.5 12.999s-10 11.666 -13 18.999s-4.5 15 -4.5 23c0 8.66699 1.5 16.834 4.5 24.501s7.33301 14.334 13 20.001s12.167 10.167 19.5 13.5s15.333 5 24 5s16.667 -1.66699 24 -5
s14 -7.83301 20 -13.5s10.667 -12.334 14 -20.001s5 -15.834 5 -24.501zM229.999 508h295l-62 -508h-121l52 420h-170l-50 -399l-22 -94c-5.33301 -16 -13 -28.5 -23 -37.5s-23.667 -13.5 -41 -13.5h-50l66 544l-38 7c-9.33301 2 -16.666 5.33301 -21.999 10
s-7.33301 11 -6 19l6 52h72l6 57c3.33301 26.667 9.5 50.834 18.5 72.501s20.5 40 34.5 55s30.333 26.333 49 34s39.334 11.5 62.001 11.5c8 0 16 -0.333008 24 -1s15.333 -2 22 -4l-8 -65c-0.666992 -6 -3.83398 -10.167 -9.50098 -12.5s-11.834 -3.5 -18.501 -3.5
c-17.333 0 -30.5 -6.83301 -39.5 -20.5c-8.33301 -13.667 -14.5 -35.834 -18.5 -66.501z" />
    <glyph glyph-name="f_imacron.liga" unicode="f&#x12b;" horiz-adv-x="562" 
d="M230 508h295l-62 -508h-121l52 420h-170l-50 -399l-22 -94c-5.33301 -16 -13 -28.5 -23 -37.5s-23.667 -13.5 -41 -13.5h-50l66 544l-38 7c-9.33301 2 -16.666 5.33301 -21.999 10s-7.33301 11 -6 19l6 52h72l6 57c3.33301 26.667 9.5 50.834 18.5 72.501
s20.5 40 34.5 55s30.333 26.333 49 34s39.334 11.5 62.001 11.5c8 0 16 -0.333008 24 -1s15.333 -2 22 -4l-8 -65c-0.666992 -6 -3.83398 -10.167 -9.50098 -12.5s-11.834 -3.5 -18.501 -3.5c-17.333 0 -30.5 -6.83301 -39.5 -20.5
c-8.33301 -13.667 -14.5 -35.834 -18.5 -66.501zM350 686h275l-9 -79h-275z" />
    <glyph glyph-name="f_ibreve.liga" unicode="f&#x12d;" horiz-adv-x="562" 
d="M230 508h295l-62 -508h-121l52 420h-170l-50 -399l-22 -94c-5.33301 -16 -13 -28.5 -23 -37.5s-23.667 -13.5 -41 -13.5h-50l66 544l-38 7c-9.33301 2 -16.666 5.33301 -21.999 10s-7.33301 11 -6 19l6 52h72l6 57c3.33301 26.667 9.5 50.834 18.5 72.501
s20.5 40 34.5 55s30.333 26.333 49 34s39.334 11.5 62.001 11.5c8 0 16 -0.333008 24 -1s15.333 -2 22 -4l-8 -65c-0.666992 -6 -3.83398 -10.167 -9.50098 -12.5s-11.834 -3.5 -18.501 -3.5c-17.333 0 -30.5 -6.83301 -39.5 -20.5
c-8.33301 -13.667 -14.5 -35.834 -18.5 -66.501zM479 580c-26.667 0 -48.334 3.83301 -65.001 11.5s-29.667 18 -39 31s-15.333 28.167 -18 45.5s-3.33398 35.666 -2.00098 54.999h80c-1.33301 -10 -1.5 -19 -0.5 -27s3.33301 -14.667 7 -20s9.16699 -9.66602 16.5 -12.999
s17 -5 29 -5s22 1.66699 30 5s14.5 7.66602 19.5 12.999s8.83301 12 11.5 20s4.66699 17 6 27h79c-2 -19.333 -6.16699 -37.666 -12.5 -54.999s-15.666 -32.5 -27.999 -45.5s-27.666 -23.333 -45.999 -31s-40.833 -11.5 -67.5 -11.5z" />
    <glyph glyph-name="f_iogonek.liga" unicode="f&#x12f;" horiz-adv-x="562" 
d="M451 -94c6 0 9.66895 -2.66797 11.002 -8.00098l12 -45c-11.333 -7.33301 -24.833 -13.333 -40.5 -18s-32.167 -7 -49.5 -7c-28.667 0 -50.5 6 -65.5 18s-22.5 28 -22.5 48s6.5 39 19.5 57c13.667 18 33.167 34.333 58.5 49h-32l52 420h-170l-49 -400l-25 -94
c-5.33301 -16 -12.833 -28.333 -22.5 -37s-23.5 -13 -41.5 -13h-50l68 544l-38 7c-9.33301 2 -16.5 5.33301 -21.5 10c-5.66699 4.66699 -7.83398 11 -6.50098 19l6 52h70l2 17c4 31.333 12.333 60.333 25 87s30 49.667 52 69s48.667 34.5 80 45.5s67.666 16.5 108.999 16.5
c13.333 0 27.166 -0.833008 41.499 -2.5c15 -1.66699 27.167 -3.83398 36.5 -6.50098l-12 -62c-1.33301 -8 -6 -12.5 -14 -13.5s-17.333 -1.5 -28 -1.5c-30 0 -55.5 -2.83301 -76.5 -8.5s-38.167 -14 -51.5 -25s-23.666 -25 -30.999 -42s-12.333 -36.833 -15 -59.5l-2 -14
h295l-62 -508h-15c-6.66699 -4 -13.5 -8.5 -20.5 -13.5s-13 -10.667 -18 -17s-9.16699 -13 -12.5 -20s-5 -14.5 -5 -22.5s2.33301 -14.5 7 -19.5s11 -7.5 19 -7.5c5.33301 0 9.83301 0.333008 13.5 1s6.66699 1.33398 9 2.00098s4.33301 1.33398 6 2.00098s3.16699 1 4.5 1z
" />
    <glyph glyph-name="f_dotlessi.liga" unicode="f&#x131;" horiz-adv-x="562" 
d="M230 508h295l-62 -508h-121l52 420h-170l-50 -399l-22 -94c-5.33301 -16 -13 -28.5 -23 -37.5s-23.667 -13.5 -41 -13.5h-50l66 544l-38 7c-9.33301 2 -16.666 5.33301 -21.999 10s-7.33301 11 -6 19l6 52h72l6 57c3.33301 26.667 9.5 50.834 18.5 72.501
s20.5 40 34.5 55s30.333 26.333 49 34s39.334 11.5 62.001 11.5c8 0 16 -0.333008 24 -1s15.333 -2 22 -4l-8 -65c-0.666992 -6 -3.83398 -10.167 -9.50098 -12.5s-11.834 -3.5 -18.501 -3.5c-17.333 0 -30.5 -6.83301 -39.5 -20.5
c-8.33301 -13.667 -14.5 -35.834 -18.5 -66.501z" />
    <glyph glyph-name="f_f_igrave.liga" unicode="ff&#xec;" horiz-adv-x="860" 
d="M529 508h293.996l-62 -508h-119l52 424h-172l-48 -403l-24 -94c-5.33301 -16 -12.666 -28.5 -21.999 -37.5s-23.333 -13.5 -42 -13.5h-49l67 548h-180l-48 -403l-26 -94c-5.33301 -16 -12.666 -28.5 -21.999 -37.5s-23 -13.5 -41 -13.5h-50l67 547l-39 7
c-8.66699 1.33301 -15.667 4.33301 -21 9s-7.33301 11.667 -6 21l6 48h70l4 30c4 29.333 11.667 55.666 23 78.999s25.833 43 43.5 59s38 28.333 61 37s48.167 13 75.5 13c20.667 0 40.334 -3 59.001 -9l-11 -64c-1.33301 -8 -5.83301 -12.5 -13.5 -13.5
s-16.167 -1.5 -25.5 -1.5c-13.333 0 -25.333 -1.5 -36 -4.5s-20 -8.16699 -28 -15.5s-14.667 -17.166 -20 -29.499s-9.33301 -27.833 -12 -46.5l-4 -34h184l7 57c3.33301 26.667 9.33301 50.834 18 72.501s20 40 34 55s30.5 26.333 49.5 34
c19.667 7.66699 40.834 11.5 63.501 11.5c8 0 15.667 -0.333008 23 -1s14.333 -2 21 -4l-8 -65c-0.666992 -6 -3.5 -10.167 -8.5 -12.5s-11.167 -3.5 -18.5 -3.5c-17.333 0 -30.5 -6.83301 -39.5 -20.5s-15.5 -35.834 -19.5 -66.501zM742.996 731
c12 0 20.833 -2.16797 26.5 -6.50098s10.5 -11.166 14.5 -20.499l51 -121h-65c-8.66699 0 -15.5 1.16699 -20.5 3.5s-9.83301 6.83301 -14.5 13.5l-99 131h107z" />
    <glyph glyph-name="f_f_icircumflex.liga" unicode="ff&#xee;" horiz-adv-x="860" 
d="M529 508h293.996l-62 -508h-119l52 424h-172l-48 -403l-24 -94c-5.33301 -16 -12.666 -28.5 -21.999 -37.5s-23.333 -13.5 -42 -13.5h-49l67 548h-180l-48 -403l-26 -94c-5.33301 -16 -12.666 -28.5 -21.999 -37.5s-23 -13.5 -41 -13.5h-50l67 547l-39 7
c-8.66699 1.33301 -15.667 4.33301 -21 9s-7.33301 11.667 -6 21l6 48h70l4 30c4 29.333 11.667 55.666 23 78.999s25.833 43 43.5 59s38 28.333 61 37s48.167 13 75.5 13c20.667 0 40.334 -3 59.001 -9l-11 -64c-1.33301 -8 -5.83301 -12.5 -13.5 -13.5
s-16.167 -1.5 -25.5 -1.5c-13.333 0 -25.333 -1.5 -36 -4.5s-20 -8.16699 -28 -15.5s-14.667 -17.166 -20 -29.499s-9.33301 -27.833 -12 -46.5l-4 -34h184l7 57c3.33301 26.667 9.33301 50.834 18 72.501s20 40 34 55s30.5 26.333 49.5 34
c19.667 7.66699 40.834 11.5 63.501 11.5c8 0 15.667 -0.333008 23 -1s14.333 -2 21 -4l-8 -65c-0.666992 -6 -3.5 -10.167 -8.5 -12.5s-11.167 -3.5 -18.5 -3.5c-17.333 0 -30.5 -6.83301 -39.5 -20.5s-15.5 -35.834 -19.5 -66.501zM935.996 584h-76.002c-4 0 -8 1 -12 3
s-8 5 -12 9l-40 52c-1.33301 1.33301 -2.66602 3.16602 -3.99902 5.49902c-1.33301 1.66699 -2.66602 3.83398 -3.99902 6.50098c-1.33301 -2.66699 -3 -4.83398 -5 -6.50098c-2 -2.33301 -4 -4.16602 -6 -5.49902l-51 -52c-4 -4 -8.5 -7 -13.5 -9s-9.83301 -3 -14.5 -3h-79
l121 139h107z" />
    <glyph glyph-name="f_f_itilde.liga" unicode="ff&#x129;" horiz-adv-x="860" 
d="M529 508h293.996l-62 -508h-119l52 424h-172l-48 -403l-24 -94c-5.33301 -16 -12.666 -28.5 -21.999 -37.5s-23.333 -13.5 -42 -13.5h-49l67 548h-180l-48 -403l-26 -94c-5.33301 -16 -12.666 -28.5 -21.999 -37.5s-23 -13.5 -41 -13.5h-50l67 547l-39 7
c-8.66699 1.33301 -15.667 4.33301 -21 9s-7.33301 11.667 -6 21l6 48h70l4 30c4 29.333 11.667 55.666 23 78.999s25.833 43 43.5 59s38 28.333 61 37s48.167 13 75.5 13c20.667 0 40.334 -3 59.001 -9l-11 -64c-1.33301 -8 -5.83301 -12.5 -13.5 -13.5
s-16.167 -1.5 -25.5 -1.5c-13.333 0 -25.333 -1.5 -36 -4.5s-20 -8.16699 -28 -15.5s-14.667 -17.166 -20 -29.499s-9.33301 -27.833 -12 -46.5l-4 -34h184l7 57c3.33301 26.667 9.33301 50.834 18 72.501s20 40 34 55s30.5 26.333 49.5 34
c19.667 7.66699 40.834 11.5 63.501 11.5c8 0 15.667 -0.333008 23 -1s14.333 -2 21 -4l-8 -65c-0.666992 -6 -3.5 -10.167 -8.5 -12.5s-11.167 -3.5 -18.5 -3.5c-17.333 0 -30.5 -6.83301 -39.5 -20.5s-15.5 -35.834 -19.5 -66.501zM837.996 680
c9.33301 0 16.8301 2.66797 22.4971 8.00098c6.33301 5.33301 10.166 15.333 11.499 30h69c-2.66699 -18.667 -7.16699 -35.667 -13.5 -51s-14.166 -28.333 -23.499 -39s-20.166 -19 -32.499 -25c-13 -6 -26.167 -9 -39.5 -9c-10.667 0 -20.667 2.16699 -30 6.5
s-17.666 9 -24.999 14s-14.5 9.66699 -21.5 14s-13.5 6.5 -19.5 6.5c-9.33301 0 -16.666 -2.83301 -21.999 -8.5s-9 -15.834 -11 -30.501h-70c2 18.667 6.33301 35.667 13 51s14.834 28.333 24.501 39s20.667 19 33 25s25.166 9 38.499 9c10.667 0 20.667 -2 30 -6
s18 -8.66699 26 -14s15.167 -10 21.5 -14s12.5 -6 18.5 -6z" />
    <glyph glyph-name="f_f_idieresis.liga" unicode="ff&#xef;" horiz-adv-x="860" 
d="M788 646c0 -8 -1.66602 -15.667 -4.99902 -23s-7.83301 -13.666 -13.5 -18.999s-12.334 -9.66602 -20.001 -12.999s-15.5 -5 -23.5 -5s-15.833 1.66699 -23.5 5s-14.334 7.66602 -20.001 12.999s-10.167 11.666 -13.5 18.999s-5 15 -5 23
c0 8.66699 1.66699 16.834 5 24.501s7.83301 14.334 13.5 20.001s12.334 10.167 20.001 13.5s15.5 5 23.5 5c8.66699 0 16.667 -1.66699 24 -5s13.833 -7.83301 19.5 -13.5s10.167 -12.334 13.5 -20.001s5 -15.834 5 -24.501zM941.001 646
c0 -8 -1.66992 -15.667 -5.00293 -23s-7.83301 -13.666 -13.5 -18.999s-12.167 -9.66602 -19.5 -12.999s-15.666 -5 -24.999 -5c-8.66699 0 -16.5 1.66699 -23.5 5s-13.5 7.66602 -19.5 12.999s-10.5 11.666 -13.5 18.999s-4.5 15 -4.5 23c0 8.66699 1.5 16.834 4.5 24.501
s7.5 14.334 13.5 20.001s12.667 10.167 20 13.5s15 5 23 5c8.66699 0 16.834 -1.66699 24.501 -5s14.334 -7.83301 20.001 -13.5s10.167 -12.334 13.5 -20.001s5 -15.834 5 -24.501zM528.998 508h293.996l-62 -508h-119l52 424h-172l-48 -403l-24 -94
c-5.33301 -16 -12.666 -28.5 -21.999 -37.5s-23.333 -13.5 -42 -13.5h-49l67 548h-180l-48 -403l-26 -94c-5.33301 -16 -12.666 -28.5 -21.999 -37.5s-23 -13.5 -41 -13.5h-50l67 547l-39 7c-8.66699 1.33301 -15.667 4.33301 -21 9s-7.33301 11.667 -6 21l6 48h70l4 30
c4 29.333 11.667 55.666 23 78.999s25.833 43 43.5 59s38 28.333 61 37s48.167 13 75.5 13c20.667 0 40.334 -3 59.001 -9l-11 -64c-1.33301 -8 -5.83301 -12.5 -13.5 -13.5s-16.167 -1.5 -25.5 -1.5c-13.333 0 -25.333 -1.5 -36 -4.5s-20 -8.16699 -28 -15.5
s-14.667 -17.166 -20 -29.499s-9.33301 -27.833 -12 -46.5l-4 -34h184l7 57c3.33301 26.667 9.33301 50.834 18 72.501s20 40 34 55s30.5 26.333 49.5 34c19.667 7.66699 40.834 11.5 63.501 11.5c8 0 15.667 -0.333008 23 -1s14.333 -2 21 -4l-8 -65
c-0.666992 -6 -3.5 -10.167 -8.5 -12.5s-11.167 -3.5 -18.5 -3.5c-17.333 0 -30.5 -6.83301 -39.5 -20.5s-15.5 -35.834 -19.5 -66.501z" />
    <glyph glyph-name="f_f_imacron.liga" unicode="ff&#x12b;" horiz-adv-x="860" 
d="M529 508h293.996l-62 -508h-119l52 424h-172l-48 -403l-24 -94c-5.33301 -16 -12.666 -28.5 -21.999 -37.5s-23.333 -13.5 -42 -13.5h-49l67 548h-180l-48 -403l-26 -94c-5.33301 -16 -12.666 -28.5 -21.999 -37.5s-23 -13.5 -41 -13.5h-50l67 547l-39 7
c-8.66699 1.33301 -15.667 4.33301 -21 9s-7.33301 11.667 -6 21l6 48h70l4 30c4 29.333 11.667 55.666 23 78.999s25.833 43 43.5 59s38 28.333 61 37s48.167 13 75.5 13c20.667 0 40.334 -3 59.001 -9l-11 -64c-1.33301 -8 -5.83301 -12.5 -13.5 -13.5
s-16.167 -1.5 -25.5 -1.5c-13.333 0 -25.333 -1.5 -36 -4.5s-20 -8.16699 -28 -15.5s-14.667 -17.166 -20 -29.499s-9.33301 -27.833 -12 -46.5l-4 -34h184l7 57c3.33301 26.667 9.33301 50.834 18 72.501s20 40 34 55s30.5 26.333 49.5 34
c19.667 7.66699 40.834 11.5 63.501 11.5c8 0 15.667 -0.333008 23 -1s14.333 -2 21 -4l-8 -65c-0.666992 -6 -3.5 -10.167 -8.5 -12.5s-11.167 -3.5 -18.5 -3.5c-17.333 0 -30.5 -6.83301 -39.5 -20.5s-15.5 -35.834 -19.5 -66.501zM646.996 686h275l-9 -79h-275z" />
    <glyph glyph-name="f_f_ibreve.liga" unicode="ff&#x12d;" horiz-adv-x="860" 
d="M529 508h293.996l-62 -508h-119l52 424h-172l-48 -403l-24 -94c-5.33301 -16 -12.666 -28.5 -21.999 -37.5s-23.333 -13.5 -42 -13.5h-49l67 548h-180l-48 -403l-26 -94c-5.33301 -16 -12.666 -28.5 -21.999 -37.5s-23 -13.5 -41 -13.5h-50l67 547l-39 7
c-8.66699 1.33301 -15.667 4.33301 -21 9s-7.33301 11.667 -6 21l6 48h70l4 30c4 29.333 11.667 55.666 23 78.999s25.833 43 43.5 59s38 28.333 61 37s48.167 13 75.5 13c20.667 0 40.334 -3 59.001 -9l-11 -64c-1.33301 -8 -5.83301 -12.5 -13.5 -13.5
s-16.167 -1.5 -25.5 -1.5c-13.333 0 -25.333 -1.5 -36 -4.5s-20 -8.16699 -28 -15.5s-14.667 -17.166 -20 -29.499s-9.33301 -27.833 -12 -46.5l-4 -34h184l7 57c3.33301 26.667 9.33301 50.834 18 72.501s20 40 34 55s30.5 26.333 49.5 34
c19.667 7.66699 40.834 11.5 63.501 11.5c8 0 15.667 -0.333008 23 -1s14.333 -2 21 -4l-8 -65c-0.666992 -6 -3.5 -10.167 -8.5 -12.5s-11.167 -3.5 -18.5 -3.5c-17.333 0 -30.5 -6.83301 -39.5 -20.5s-15.5 -35.834 -19.5 -66.501zM773.996 580
c-26.667 0 -48.334 3.83301 -65.001 11.5s-29.667 18 -39 31s-15.333 28.167 -18 45.5s-3.33398 35.666 -2.00098 54.999h80c-1.33301 -10 -1.5 -19 -0.5 -27s3.33301 -14.667 7 -20s9.16699 -9.66602 16.5 -12.999s17 -5 29 -5s22 1.66699 30 5s14.5 7.66602 19.5 12.999
s8.83301 12 11.5 20s4.66699 17 6 27h79c-2 -19.333 -6.16699 -37.666 -12.5 -54.999s-15.666 -32.5 -27.999 -45.5s-27.666 -23.333 -45.999 -31s-40.833 -11.5 -67.5 -11.5z" />
    <glyph glyph-name="f_f_iogonek.liga" unicode="ff&#x12f;" horiz-adv-x="860" 
d="M230 508l183.996 -0.00292969l2 17c4 31.333 12.333 60.333 25 87s30 49.667 52 69s48.667 34.5 80 45.5s67.666 16.5 108.999 16.5c6.66699 0 13.334 -0.166992 20.001 -0.5s13.334 -0.833008 20.001 -1.5s13.334 -1.66699 20.001 -3s12 -2.66602 16 -3.99902l-12 -62
c-1.33301 -8 -5.83301 -12.5 -13.5 -13.5c-7 -1 -15.833 -1.5 -26.5 -1.5c-30.667 0 -56.5 -2.83301 -77.5 -8.5s-38.333 -14 -52 -25s-24.167 -25 -31.5 -42s-12.333 -36.833 -15 -59.5l-1 -14h294l-62 -508h-17c-6.66699 -4 -13.5 -8.5 -20.5 -13.5s-13 -10.667 -18 -17
s-9.16699 -13 -12.5 -20s-5 -14.5 -5 -22.5s2.33301 -14.5 7 -19.5s11 -7.5 19 -7.5c5.33301 0 9.83301 0.333008 13.5 1s6.66699 1.33398 9 2.00098s4.16602 1.33398 5.49902 2.00098s3 1 5 1c6 0 9.66699 -2.66699 11 -8l12 -45
c-11.333 -7.33301 -24.833 -13.333 -40.5 -18s-32.167 -7 -49.5 -7c-28.667 0 -50.5 6 -65.5 18s-22.5 28 -22.5 48s6.5 39 19.5 57c13.667 18 33.167 34.333 58.5 49h-28l52 424h-171l-49 -404l-26 -94c-5.33301 -16 -12.666 -28.333 -21.999 -37s-23 -13 -41 -13h-49
l67 548h-179l-48 -403l-26 -94c-5.33301 -16 -12.666 -28.5 -21.999 -37.5s-23 -13.5 -41 -13.5h-50l67 547l-39 7c-8.66699 1.33301 -15.667 4.33301 -21 9s-7.33301 11.667 -6 21l6 48h70l4 30c4 29.333 11.667 55.666 23 78.999s25.833 43 43.5 59s38 28.333 61 37
s48.167 13 75.5 13c20.667 0 40.334 -3 59.001 -9l-11 -64c-1.33301 -8 -5.83301 -12.5 -13.5 -13.5s-16.167 -1.5 -25.5 -1.5c-13.333 0 -25.333 -1.5 -36 -4.5s-20 -8.16699 -28 -15.5s-14.667 -17.166 -20 -29.499s-9.33301 -27.833 -12 -46.5z" />
    <glyph glyph-name="f_f_dotlessi.liga" unicode="ff&#x131;" horiz-adv-x="860" 
d="M529 508h293.996l-62 -508h-119l52 424h-172l-48 -403l-24 -94c-5.33301 -16 -12.666 -28.5 -21.999 -37.5s-23.333 -13.5 -42 -13.5h-49l67 548h-180l-48 -403l-26 -94c-5.33301 -16 -12.666 -28.5 -21.999 -37.5s-23 -13.5 -41 -13.5h-50l67 547l-39 7
c-8.66699 1.33301 -15.667 4.33301 -21 9s-7.33301 11.667 -6 21l6 48h70l4 30c4 29.333 11.667 55.666 23 78.999s25.833 43 43.5 59s38 28.333 61 37s48.167 13 75.5 13c20.667 0 40.334 -3 59.001 -9l-11 -64c-1.33301 -8 -5.83301 -12.5 -13.5 -13.5
s-16.167 -1.5 -25.5 -1.5c-13.333 0 -25.333 -1.5 -36 -4.5s-20 -8.16699 -28 -15.5s-14.667 -17.166 -20 -29.499s-9.33301 -27.833 -12 -46.5l-4 -34h184l7 57c3.33301 26.667 9.33301 50.834 18 72.501s20 40 34 55s30.5 26.333 49.5 34
c19.667 7.66699 40.834 11.5 63.501 11.5c8 0 15.667 -0.333008 23 -1s14.333 -2 21 -4l-8 -65c-0.666992 -6 -3.5 -10.167 -8.5 -12.5s-11.167 -3.5 -18.5 -3.5c-17.333 0 -30.5 -6.83301 -39.5 -20.5s-15.5 -35.834 -19.5 -66.501z" />
    <glyph glyph-name="f_j.liga" unicode="fj" horiz-adv-x="561" 
d="M524 508l-64.0049 -525.999c-2.66699 -22.667 -8.16699 -43.667 -16.5 -63s-19.666 -36.333 -33.999 -51s-31.5 -26.334 -51.5 -35.001s-43.333 -13 -70 -13c-13.333 0 -24.666 0.666992 -33.999 2s-18.666 4 -27.999 8l12 66c1.33301 6.66699 4.33301 11 9 13s13 3 25 3
c10.667 0 20 1.16699 28 3.5s14.667 6.33301 20 12s9.5 12.834 12.5 21.501c3.66699 8.66699 6.16699 19.667 7.5 33l52 442h-168l-48 -404l-26 -94c-5.33301 -16 -12.666 -28.333 -21.999 -37s-23.333 -13 -42 -13h-49l67 547l-39 7
c-8.66699 1.33301 -15.667 4.33301 -21 9s-7.33301 11.667 -6 21l6 48h71l2 17c4 31.333 12.333 60.333 25 87s30 49.667 52 69s48.667 34.5 80 45.5c30.667 11 66.667 16.5 108 16.5c13.333 0 27.333 -0.833008 42 -2.5s26.667 -3.83398 36 -6.50098l-12 -62
c-1.33301 -8 -6 -12.5 -14 -13.5s-17.333 -1.5 -28 -1.5c-30 0 -55.5 -2.83301 -76.5 -8.5s-38.167 -14 -51.5 -25s-23.666 -25 -30.999 -42s-12.333 -36.833 -15 -59.5l-2 -14h294z" />
    <glyph glyph-name="f_f_j.liga" unicode="ffj" horiz-adv-x="861" 
d="M230 508h183.993l2 17c4 31.333 12.333 60.333 25 87s30 49.667 52 69s48.667 34.5 80 45.5s67.666 16.5 108.999 16.5c6.66699 0 13.334 -0.166992 20.001 -0.5s13.334 -0.833008 20.001 -1.5s13.334 -1.66699 20.001 -3s12 -2.66602 16 -3.99902l-12 -62
c-1.33301 -8 -5.83301 -12.5 -13.5 -13.5c-7 -1 -15.833 -1.5 -26.5 -1.5c-30.667 0 -56.5 -2.83301 -77.5 -8.5s-38.333 -14 -52 -25s-24.167 -25 -31.5 -42s-12.333 -36.833 -15 -59.5l-1 -14h295l-64 -526c-2.66699 -22.667 -8.16699 -43.667 -16.5 -63
s-19.666 -36.5 -33.999 -51.5s-31.5 -26.667 -51.5 -35s-43.333 -12.5 -70 -12.5c-13.333 0 -24.666 0.666992 -33.999 2s-18.666 3.66602 -27.999 6.99902l12 67c2 6.66699 5.16699 11 9.5 13s12.166 3 23.499 3s21 1 29 3s14.5 5.83301 19.5 11.5s9 13 12 22
s5.5 20.167 7.5 33.5l53 442h-169l-49 -404l-26 -94c-5.33301 -16 -12.666 -28.333 -21.999 -37s-23 -13 -41 -13h-49l67 548h-179l-48 -403l-26 -94c-5.33301 -16 -12.666 -28.5 -21.999 -37.5s-23 -13.5 -41 -13.5h-50l67 547l-39 7
c-8.66699 1.33301 -15.667 4.33301 -21 9s-7.33301 11.667 -6 21l6 48h70l4 30c4 29.333 11.667 55.666 23 78.999s25.833 43 43.5 59s38 28.333 61 37s48.167 13 75.5 13c20.667 0 40.334 -3 59.001 -9l-11 -64c-1.33301 -8 -5.83301 -12.5 -13.5 -13.5
s-16.167 -1.5 -25.5 -1.5c-13.333 0 -25.333 -1.5 -36 -4.5s-20 -8.16699 -28 -15.5s-14.667 -17.166 -20 -29.499s-9.33301 -27.833 -12 -46.5z" />
    <glyph glyph-name="f_k.liga" unicode="fk" horiz-adv-x="834" 
d="M224 420l-48.999 -400.001l-25 -94c-5.33301 -16 -12.833 -28.333 -22.5 -37s-23.5 -13 -41.5 -13h-50l68 544l-38 7c-9.33301 2 -16.666 5.33301 -21.999 10s-7.33301 11 -6 19l6 52h70l6 40c3.33301 27.333 10.666 53.5 21.999 78.5s26.666 46.833 45.999 65.5
s42.5 33.667 69.5 45s57.833 17 92.5 17c20 0 40 -0.5 60 -1.5s38.833 -2.16699 56.5 -3.5s34.334 -2.5 50.001 -3.5s29.834 -1.83301 42.501 -2.5h9l-52 -425h12c8 0 14.333 1 19 3s9.66699 6.33301 15 13l137 158c5.33301 6.66699 11.166 11.834 17.499 15.501
s14.5 5.5 24.5 5.5h110l-169 -191c-12 -14.667 -25 -26 -39 -34c6.66699 -4.66699 12.167 -10.334 16.5 -17.001s8.5 -14 12.5 -22l126 -249h-107c-9.33301 0 -16.833 1.66699 -22.5 5s-10.5 9 -14.5 17l-100 194c-4 8 -8 13.167 -12 15.5s-10.667 3.5 -20 3.5h-16l-29 -235
h-122l81 664c-13.333 2.66699 -26.333 5.33398 -39 8.00098s-25.334 4 -38.001 4c-17.333 0 -33.166 -3 -47.499 -9s-26.833 -14.667 -37.5 -26s-19.334 -24.833 -26.001 -40.5s-10.667 -33.167 -12 -52.5l-5 -40h115l-10 -88h-112z" />
    <glyph glyph-name="f_f_k.liga" unicode="ffk" horiz-adv-x="1134" 
d="M230 507l182.996 -0.000976562l5 41c3.33301 27.333 10.833 53.5 22.5 78.5s27.167 46.833 46.5 65.5s42.5 33.667 69.5 45s57.833 17 92.5 17c20 0 39.833 -0.5 59.5 -1.5s38.5 -2.16699 56.5 -3.5s34.833 -2.5 50.5 -3.5s29.834 -1.83301 42.501 -2.5h8l-52 -425h13
c8 0 14.333 1 19 3s9.66699 6.33301 15 13l137 158c5.33301 6.66699 11.166 11.834 17.499 15.501c7 3.66699 15.167 5.5 24.5 5.5h110l-170 -191c-12 -14.667 -24.667 -26 -38 -34c6.66699 -4.66699 12 -10.334 16 -17.001s8 -14 12 -22l126 -249h-106
c-9.33301 0 -17 1.66699 -23 5s-11 9 -15 17l-99 194c-4 8 -8 13.167 -12 15.5s-10.667 3.5 -20 3.5h-17l-28 -235h-122l81 664c-13.333 2.66699 -26.5 5.33398 -39.5 8.00098s-25.5 4 -37.5 4c-17.333 0 -33.166 -3 -47.499 -9s-26.666 -14.667 -36.999 -26
s-18.833 -24.833 -25.5 -40.5s-11.334 -33.167 -14.001 -52.5l-4 -41h119l-11 -85h-115l-49 -402l-26 -94c-5.33301 -16 -12.666 -28.333 -21.999 -37s-23.333 -13 -42 -13h-49l67 546h-178l-48 -401l-26 -94c-5.33301 -16 -12.666 -28.5 -21.999 -37.5
s-23.333 -13.5 -42 -13.5h-49l67 546l-40 7c-8.66699 1.33301 -15.5 4.5 -20.5 9.5s-6.83301 11.833 -5.5 20.5l6 48h70l4 31c4 29.333 11.667 55.666 23 78.999s25.833 43 43.5 59s38 28.333 61 37s48.167 13 75.5 13c20.667 0 40.334 -3 59.001 -9l-11 -64
c-1.33301 -8 -5.83301 -12.5 -13.5 -13.5s-16.167 -1.5 -25.5 -1.5c-13.333 0 -25.333 -1.5 -36 -4.5s-20 -8.16699 -28 -15.5s-14.667 -17.166 -20 -29.499s-9.33301 -27.833 -12 -46.5z" />
    <glyph glyph-name="f_t.liga" unicode="ft" horiz-adv-x="672" 
d="M231 508l192.991 -0.00195312l42 141c2.66699 6.66699 6.33398 11.834 11.001 15.501s10.334 5.5 17.001 5.5h66l-20 -162h124l-10 -84h-124l-28 -227c-1.33301 -13.333 -2.66602 -24.166 -3.99902 -32.499s-2.33301 -14.666 -3 -18.999s-1 -7.33301 -1 -9v-4.5
c0 -12.667 3 -22.5 9 -29.5s15 -10.5 27 -10.5c6.66699 0 12.5 0.833008 17.5 2.5s9.33301 3.5 13 5.5s7 3.83301 10 5.5s5.83301 2.5 8.5 2.5c4 0 6.83301 -0.833008 8.5 -2.5c1.66699 -1 3.5 -3.5 5.5 -7.5l27 -60c-18.667 -14.667 -39 -26 -61 -34s-44.333 -12 -67 -12
c-36 0 -64.667 9.83301 -86 29.5c-21.333 19 -32.666 46.5 -33.999 82.5v9c0 3.33301 0.333008 8 1 14s1.33398 14 2.00098 24s2.33398 23 5.00098 39l28 234h-183l-49 -403l-26 -94c-5.33301 -16 -12.666 -28.5 -21.999 -37.5s-23 -13.5 -41 -13.5h-49l66 547l-39 7
c-8.66699 1.33301 -15.667 4.33301 -21 9s-7.33301 11.667 -6 21l6 48h70l4 38c4 29.333 12 55.666 24 78.999s27 43.333 45 60s38.667 29.334 62 38.001s49 13 77 13c21.333 0 41 -3.33301 59 -10l-11 -64c-0.666992 -4 -2.16699 -7 -4.5 -9s-5.5 -3.5 -9.5 -4.5
s-8.16699 -1.66699 -12.5 -2s-8.83301 -0.5 -13.5 -0.5c-13.333 0 -25.666 -1.83301 -36.999 -5.5s-21.166 -9.66699 -29.499 -18s-15.333 -19 -21 -32c-5.66699 -13.667 -9.5 -29.834 -11.5 -48.501z" />
    <glyph glyph-name="f_f_t.liga" unicode="fft" horiz-adv-x="972" 
d="M528 507l195.992 -0.00195312l42 142c2.66699 6.66699 6.16699 11.834 10.5 15.501c5 3.66699 10.833 5.5 17.5 5.5h66l-20 -163h124l-11 -85h-124l-28 -225c-1.33301 -13.333 -2.5 -24.166 -3.5 -32.499s-1.83301 -14.666 -2.5 -18.999s-1 -7.33301 -1 -9v-4.5
c0 -12.667 3 -22.5 9 -29.5s15 -10.5 27 -10.5c6.66699 0 12.5 0.833008 17.5 2.5s9.33301 3.5 13 5.5s6.83398 3.83301 9.50098 5.5s5.33398 2.5 8.00098 2.5c4 0 7 -0.833008 9 -2.5c2 -1 4 -3.5 6 -7.5l27 -60c-18.667 -14.667 -39.167 -26 -61.5 -34
s-44.833 -12 -67.5 -12c-36 0 -64.667 9.83301 -86 29.5c-21.333 19 -32.666 46.5 -33.999 82.5c0 2.66699 0.166992 5.66699 0.5 9s0.666016 8 0.999023 14s1 14 2 24s2.5 23 4.5 39l29 232h-186l-49 -401l-25 -94c-5.33301 -16 -12.833 -28.5 -22.5 -37.5
s-23.5 -13.5 -41.5 -13.5h-50l66 546h-176l-48 -401l-26 -94c-5.33301 -16 -12.666 -28.5 -21.999 -37.5s-23.333 -13.5 -42 -13.5h-49l67 546l-39 7c-8.66699 1.33301 -15.667 4.5 -21 9.5s-7.33301 11.833 -6 20.5l6 48h70l4 31c4 29.333 11.667 55.666 23 78.999
s25.833 43 43.5 59s38 28.333 61 37s48.167 13 75.5 13c21.333 0 41 -3 59 -9l-11 -64c-1.33301 -4 -3.16602 -7 -5.49902 -9s-5.16602 -3.5 -8.49902 -4.5s-7.33301 -1.5 -12 -1.5h-14c-13.333 0 -25.166 -1.5 -35.499 -4.5s-19.5 -8.16699 -27.5 -15.5
s-14.667 -17.166 -20 -29.499s-9.33301 -27.833 -12 -46.5l-4 -35h180l6 47c4 29.333 11.667 55.666 23 78.999s26.166 43.166 44.499 59.499s39.333 28.833 63 37.5s49.167 13 76.5 13c20.667 0 40.334 -3 59.001 -9l-11 -64c-1.33301 -4 -3.16602 -7 -5.49902 -9
s-5.16602 -3.66699 -8.49902 -5s-7.33301 -2 -12 -2h-14c-13.333 0 -25.5 -1.83301 -36.5 -5.5s-20.667 -9.66699 -29 -18s-15.333 -19.166 -21 -32.499s-9.5 -29.333 -11.5 -48z" />
    <glyph glyph-name="t_f.liga" unicode="tf" horiz-adv-x="653" 
d="M546 507h121.997l-10 -85h-118l-48 -402l-26 -94c-5.33301 -16 -12.666 -28.333 -21.999 -37s-23.333 -13 -42 -13h-49l67 546h-198l-28 -225c-1.33301 -13.333 -2.66602 -24.166 -3.99902 -32.499s-2.33301 -14.666 -3 -18.999s-1 -7.33301 -1 -9v-4.5
c0 -12.667 3.16699 -22.5 9.5 -29.5s15.166 -10.5 26.499 -10.5c6.66699 0 12.667 0.833008 18 2.5s9.66602 3.5 12.999 5.5s6.5 3.83301 9.5 5.5s5.83301 2.5 8.5 2.5c4 0 7 -0.833008 9 -2.5c2.66699 -1 4.66699 -3.5 6 -7.5l26 -60c-18.667 -14.667 -39 -26 -61 -34
s-44.333 -12 -67 -12c-36 0 -64.667 9.83301 -86 29.5c-21.333 19 -32.666 46.5 -33.999 82.5v9c0 3.33301 0.333008 8 1 14s1.5 14 2.5 24s2.5 23 4.5 39l28 232h-46c-6.66699 0 -11.834 2.16699 -15.501 6.5c-3.66699 5 -5.16699 11.5 -4.5 19.5l6 47l76 13l42 141
c2.66699 6.66699 6.33398 11.834 11.001 15.501s10.334 5.5 17.001 5.5h66l-20 -163h198l4 39c4 29.333 11.833 55.666 23.5 78.999s26.667 43.166 45 59.499s39.166 28.833 62.499 37.5s49 13 77 13c10.667 0 20.834 -0.833008 30.501 -2.5s19.167 -3.83398 28.5 -6.50098
l-11 -65c-1.33301 -8 -6 -12.5 -14 -13.5s-16.667 -1.5 -26 -1.5c-13.333 0 -25.666 -2 -36.999 -6s-21.166 -10 -29.499 -18s-15.333 -18.667 -21 -32s-9.83398 -29.333 -12.501 -48z" />
    <glyph glyph-name="t_iogonek.liga" unicode="t&#x12f;" horiz-adv-x="601" 
d="M497 -95c5.33301 0 8.66309 -2.6709 9.99609 -8.00391l13 -44c-10.667 -7.33301 -24 -13.333 -40 -18s-32.667 -7 -50 -7c-28 0 -49.333 6 -64 18s-22 27.667 -22 47c0 20 6.66699 39.167 20 57.5s32.333 34.833 57 49.5h-37l52 422h-214l-28 -225
c-1.33301 -13.333 -2.66602 -24.166 -3.99902 -32.499s-2.33301 -14.666 -3 -18.999s-1 -7.33301 -1 -9v-4.5c0 -12.667 3.16699 -22.5 9.5 -29.5s15.166 -10.5 26.499 -10.5c6.66699 0 12.667 0.833008 18 2.5s9.66602 3.5 12.999 5.5s6.5 3.83301 9.5 5.5
s5.83301 2.5 8.5 2.5c4 0 7 -0.833008 9 -2.5c2.66699 -1 4.66699 -3.5 6 -7.5l26 -60c-18.667 -14.667 -39 -26 -61 -34s-44.333 -12 -67 -12c-36 0 -64.667 9.83301 -86 29.5c-21.333 19 -32.666 46.5 -33.999 82.5v9c0 3.33301 0.333008 8 1 14s1.5 14 2.5 24
s2.5 23 4.5 39l28 232h-46c-6.66699 0 -11.834 2.16699 -15.501 6.5c-3.66699 5 -5.16699 11.5 -4.5 19.5l6 47l76 13l42 141c2.66699 6.66699 6.33398 11.834 11.001 15.501s10.334 5.5 17.001 5.5h66l-20 -163h332l-10 -85v0l-52 -422h-10
c-6.66699 -4 -13.5 -8.5 -20.5 -13.5s-13 -10.667 -18 -17s-9.16699 -13.166 -12.5 -20.499s-5 -15 -5 -23c0 -8.66699 2.33301 -15.667 7 -21s11.334 -8 20.001 -8c5.33301 0 9.83301 0.5 13.5 1.5s6.83398 1.83301 9.50098 2.5s4.83398 1.5 6.50098 2.5
s3.16699 1.5 4.5 1.5zM599.997 661.996c0 -10.667 -2.16602 -20.667 -6.49902 -30s-10 -17.333 -17 -24s-15.167 -12.167 -24.5 -16.5s-19.333 -6.5 -30 -6.5c-9.33301 0 -18.5 2.16699 -27.5 6.5s-17 9.83301 -24 16.5s-12.5 14.667 -16.5 24s-6 19.333 -6 30s2 21 6 31
s9.66699 18.5 17 25.5s15.333 12.667 24 17s18 6.5 28 6.5s19.667 -2.16699 29 -6.5s17.666 -10 24.999 -17s13 -15.5 17 -25.5s6 -20.333 6 -31z" />
    <glyph glyph-name="t_dotlessi.liga" unicode="t&#x131;" horiz-adv-x="601" 
d="M564 507l-10 -85.0029l-52 -422h-120l52 422h-213l-28 -225c-1.33301 -13.333 -2.5 -24.166 -3.5 -32.499s-1.83301 -14.666 -2.5 -18.999s-1 -7.33301 -1 -9v-4.5c0 -12.667 3 -22.5 9 -29.5s14.667 -10.5 26 -10.5c6.66699 0 12.5 0.833008 17.5 2.5s9.5 3.5 13.5 5.5
s7.33301 3.83301 10 5.5s5.33398 2.5 8.00098 2.5c4 0 7 -0.833008 9 -2.5c2 -1 3.66699 -3.5 5 -7.5l28 -60c-18.667 -14.667 -39.167 -26 -61.5 -34s-44.833 -12 -67.5 -12c-36 0 -64.667 9.83301 -86 29.5c-21.333 19 -32.666 46.5 -33.999 82.5v9
c0 3.33301 0.166992 8 0.5 14s1.16602 14 2.49902 24s3 23 5 39l29 232h-46c-6.66699 0 -12 2.16699 -16 6.5c-4 5 -5.33301 11.5 -4 19.5l6 47l76 13l42 141c2 6.66699 5.16699 11.834 9.5 15.501s10.166 5.5 17.499 5.5h67l-20 -163h332z" />
    <glyph glyph-name="t_t.liga" unicode="tt" horiz-adv-x="670" 
d="M63 104l-0.00195312 8.99414c0 3.33301 0.166992 8 0.5 14s1.16602 14 2.49902 24s3 23 5 39l29 232h-46c-6.66699 0 -12 2.16699 -16 6.5c-4 5 -5.33301 11.5 -4 19.5l6 47l76 13l42 141c2 6.66699 5.16699 11.834 9.5 15.501s10.166 5.5 17.499 5.5h67l-20 -163h190
l42 142c2.66699 6.66699 6.16699 11.834 10.5 15.501c5 3.66699 10.833 5.5 17.5 5.5h66l-20 -163h122l-10 -85h-123l-28 -225c-1.33301 -13.333 -2.5 -24.166 -3.5 -32.499s-1.83301 -14.666 -2.5 -18.999s-1 -7.33301 -1 -9v-4.5c0 -12.667 3 -22.5 9 -29.5
s15 -10.5 27 -10.5c6.66699 0 12.334 0.833008 17.001 2.5s9 3.5 13 5.5s7.33301 3.83301 10 5.5s5.33398 2.5 8.00098 2.5c4 0 7 -0.833008 9 -2.5c2 -1 4 -3.5 6 -7.5l27 -60c-18.667 -14.667 -39.167 -26 -61.5 -34s-44.833 -12 -67.5 -12
c-36 0 -64.667 9.83301 -86 29.5c-21.333 19 -32.666 46.5 -33.999 82.5c0 2.66699 0.166992 5.66699 0.5 9s0.666016 8 0.999023 14s1 14 2 24s2.5 23 4.5 39l29 232h-185l-28 -225c-1.33301 -13.333 -2.5 -24.166 -3.5 -32.499s-1.83301 -14.666 -2.5 -18.999
s-1 -7.33301 -1 -9v-4.5c0 -12.667 3 -22.5 9 -29.5s14.667 -10.5 26 -10.5c6.66699 0 12.5 0.833008 17.5 2.5s9.5 3.5 13.5 5.5s7.33301 3.83301 10 5.5s5.33398 2.5 8.00098 2.5c4 0 7 -0.833008 9 -2.5c2 -1 3.66699 -3.5 5 -7.5l28 -60
c-18.667 -14.667 -39.167 -26 -61.5 -34s-44.833 -12 -67.5 -12c-36 0 -64.667 9.66699 -86 29s-32.666 47 -33.999 83z" />
    <glyph glyph-name="t_t_f.liga" unicode="ttf" horiz-adv-x="959" 
d="M852 507l121.997 -0.00292969l-11 -85h-117l-48 -402l-26 -94c-5.33301 -16 -12.666 -28.333 -21.999 -37s-23.333 -13 -42 -13h-49l67 546h-198l-28 -225c-1.33301 -13.333 -2.66602 -24.166 -3.99902 -32.499s-2.33301 -14.666 -3 -18.999s-1 -7.33301 -1 -9v-4.5
c0 -12.667 3.16699 -22.5 9.5 -29.5s15.166 -10.5 26.499 -10.5c6.66699 0 12.667 0.833008 18 2.5s9.66602 3.5 12.999 5.5s6.66602 3.83301 9.99902 5.5s6.33301 2.5 9 2.5c4 0 6.83301 -0.833008 8.5 -2.5c2.33301 -1 4.16602 -3.5 5.49902 -7.5l26 -60
c-18.667 -14.667 -39 -26 -61 -34s-44.333 -12 -67 -12c-36 0 -64.667 9.83301 -86 29.5c-21.333 19 -32.666 46.5 -33.999 82.5v9c0 3.33301 0.333008 8 1 14s1.5 14 2.5 24s2.5 23 4.5 39l28 232h-184l-28 -225c-1.33301 -13.333 -2.66602 -24.166 -3.99902 -32.499
s-2.33301 -14.666 -3 -18.999s-1 -7.33301 -1 -9v-4.5c0 -12.667 3.16699 -22.5 9.5 -29.5s15.166 -10.5 26.499 -10.5c6.66699 0 12.667 0.833008 18 2.5s9.66602 3.5 12.999 5.5s6.5 3.83301 9.5 5.5s5.83301 2.5 8.5 2.5c4 0 7 -0.833008 9 -2.5
c2.66699 -1 4.66699 -3.5 6 -7.5l26 -60c-18.667 -14.667 -39 -26 -61 -34s-44.333 -12 -67 -12c-36 0 -64.667 9.83301 -86 29.5c-21.333 19 -32.666 46.5 -33.999 82.5v9c0 3.33301 0.333008 8 1 14s1.5 14 2.5 24s2.5 23 4.5 39l28 232h-46
c-6.66699 0 -11.834 2.16699 -15.501 6.5c-3.66699 5 -5.16699 11.5 -4.5 19.5l6 47l76 13l42 141c2.66699 6.66699 6.33398 11.834 11.001 15.501s10.334 5.5 17.001 5.5h66l-20 -163h190l42 142c2.66699 6.66699 6.33398 11.834 11.001 15.501s10.334 5.5 17.001 5.5h66
l-20 -163h198l4 39c4 29.333 11.833 55.666 23.5 78.999s26.667 43.166 45 59.499s39.166 28.833 62.499 37.5s49 13 77 13c10.667 0 20.834 -0.833008 30.501 -2.5s19.167 -3.83398 28.5 -6.50098l-11 -65c-1.33301 -8 -6 -12.5 -14 -13.5s-16.667 -1.5 -26 -1.5
c-13.333 0 -25.666 -2 -36.999 -6s-21.333 -10 -30 -18s-15.667 -18.667 -21 -32s-9.33301 -29.333 -12 -48z" />
    <glyph glyph-name="t_t_iogonek.liga" unicode="tt&#x12f;" horiz-adv-x="898" 
d="M807 -94c6 0 9.66602 -2.6748 10.999 -8.00781l12 -45c-11.333 -7.33301 -24.833 -13.333 -40.5 -18s-32.167 -7 -49.5 -7c-28.667 0 -50.5 6 -65.5 18s-22.5 28 -22.5 48s6.5 39 19.5 57c13.667 18 33.167 34.333 58.5 49h-50l52 422h-204l-28 -225
c-1.33301 -13.333 -2.66602 -24.166 -3.99902 -32.499s-2.33301 -14.666 -3 -18.999s-1 -7.33301 -1 -9v-4.5c0 -12.667 3.16699 -22.5 9.5 -29.5s15.166 -10.5 26.499 -10.5c6.66699 0 12.667 0.833008 18 2.5s9.66602 3.5 12.999 5.5s6.66602 3.83301 9.99902 5.5
s6.33301 2.5 9 2.5c4 0 6.83301 -0.833008 8.5 -2.5c2.33301 -1 4.16602 -3.5 5.49902 -7.5l26 -60c-18.667 -14.667 -39 -26 -61 -34s-44.333 -12 -67 -12c-36 0 -64.667 9.83301 -86 29.5c-21.333 19 -32.666 46.5 -33.999 82.5v9c0 3.33301 0.333008 8 1 14
s1.5 14 2.5 24s2.5 23 4.5 39l28 232h-184l-28 -225c-1.33301 -13.333 -2.66602 -24.166 -3.99902 -32.499s-2.33301 -14.666 -3 -18.999s-1 -7.33301 -1 -9v-4.5c0 -12.667 3.16699 -22.5 9.5 -29.5s15.166 -10.5 26.499 -10.5c6.66699 0 12.667 0.833008 18 2.5
s9.66602 3.5 12.999 5.5s6.5 3.83301 9.5 5.5s5.83301 2.5 8.5 2.5c4 0 7 -0.833008 9 -2.5c2.66699 -1 4.66699 -3.5 6 -7.5l26 -60c-18.667 -14.667 -39 -26 -61 -34s-44.333 -12 -67 -12c-36 0 -64.667 9.83301 -86 29.5c-21.333 19 -32.666 46.5 -33.999 82.5v9
c0 3.33301 0.333008 8 1 14s1.5 14 2.5 24s2.5 23 4.5 39l28 232h-46c-6.66699 0 -11.834 2.16699 -15.501 6.5c-3.66699 5 -5.16699 11.5 -4.5 19.5l6 47l76 13l42 141c2.66699 6.66699 6.33398 11.834 11.001 15.501s10.334 5.5 17.001 5.5h66l-20 -163h190l42 142
c2.66699 6.66699 6.33398 11.834 11.001 15.501s10.334 5.5 17.001 5.5h66l-20 -163h324l-11 -85l-52 -422h5c-6.66699 -4 -13.5 -8.5 -20.5 -13.5s-13 -10.667 -18 -17s-9.16699 -13 -12.5 -20s-5 -14.5 -5 -22.5s2.33301 -14.5 7 -19.5s11 -7.5 19 -7.5
c5.33301 0 9.83301 0.333008 13.5 1s6.66699 1.33398 9 2.00098s4.33301 1.33398 6 2.00098s3.16699 1 4.5 1zM897.999 661.992c0 -10.667 -2.33301 -20.667 -7 -30s-10.5 -17.333 -17.5 -24s-15.167 -12.167 -24.5 -16.5s-19 -6.5 -29 -6.5
c-9.33301 0 -18.666 2.16699 -27.999 6.5s-17.333 9.83301 -24 16.5s-12.167 14.667 -16.5 24s-6.5 19.333 -6.5 30s2.16699 21 6.5 31s9.83301 18.5 16.5 25.5s14.667 12.667 24 17s18.666 6.5 27.999 6.5c10 0 19.833 -2.16699 29.5 -6.5s18 -10 25 -17
s12.667 -15.5 17 -25.5s6.5 -20.333 6.5 -31z" />
    <glyph glyph-name="t_t_dotlessi.liga" unicode="tt&#x131;" horiz-adv-x="897" 
d="M860 507l-62.0029 -507.006h-118l51 422h-204l-28 -225c-1.33301 -13.333 -2.5 -24.166 -3.5 -32.499s-1.83301 -14.666 -2.5 -18.999s-1 -7.33301 -1 -9v-4.5c0 -12.667 3 -22.5 9 -29.5s15 -10.5 27 -10.5c6.66699 0 12.334 0.833008 17.001 2.5s9 3.5 13 5.5
s7.33301 3.83301 10 5.5s5.33398 2.5 8.00098 2.5c4 0 7 -0.833008 9 -2.5c2 -1 3.66699 -3.5 5 -7.5l28 -60c-18.667 -14.667 -39.167 -26 -61.5 -34s-44.833 -12 -67.5 -12c-36 0 -64.667 9.83301 -86 29.5c-21.333 19 -32.666 46.5 -33.999 82.5
c0 2.66699 0.166992 5.66699 0.5 9s0.666016 8 0.999023 14s1 14 2 24s2.5 23 4.5 39l29 232h-185l-28 -225c-1.33301 -13.333 -2.5 -24.166 -3.5 -32.499s-1.83301 -14.666 -2.5 -18.999s-1 -7.33301 -1 -9v-4.5c0 -12.667 3 -22.5 9 -29.5s14.667 -10.5 26 -10.5
c6.66699 0 12.5 0.833008 17.5 2.5s9.5 3.5 13.5 5.5s7.33301 3.83301 10 5.5s5.33398 2.5 8.00098 2.5c4 0 7 -0.833008 9 -2.5c2 -1 3.66699 -3.5 5 -7.5l28 -60c-18.667 -14.667 -39.167 -26 -61.5 -34s-44.833 -12 -67.5 -12c-36 0 -64.667 9.83301 -86 29.5
c-21.333 19 -32.666 46.5 -33.999 82.5v9c0 3.33301 0.166992 8 0.5 14s1.16602 14 2.49902 24s3 23 5 39l29 232h-46c-6.66699 0 -12 2.16699 -16 6.5c-4 5 -5.33301 11.5 -4 19.5l6 47l76 13l42 141c2 6.66699 5.16699 11.834 9.5 15.501s10.166 5.5 17.499 5.5h67
l-20 -163h190l42 142c2 6.66699 5.33301 11.834 10 15.501s10.334 5.5 17.001 5.5h67l-20 -163h322z" />
    <glyph glyph-name="f_uni01D0.liga" unicode="f&#x1d0;" horiz-adv-x="560" 
d="M228 508h295.001l-62 -508h-119l51 421h-171l-50 -400l-22 -94c-5.33301 -16 -13 -28.5 -23 -37.5s-23.667 -13.5 -41 -13.5h-50l66 544l-37 8c-8.66699 1.33301 -15.667 4.33301 -21 9s-7.33301 11.667 -6 21l6 50h70l6 57c3.33301 26.667 9.5 50.834 18.5 72.501
s20.5 40 34.5 55s30.333 26.333 49 34s39.334 11.5 62.001 11.5c8 0 16 -0.333008 24 -1s15.333 -2 22 -4l-8 -65c-0.666992 -6 -3.83398 -10.167 -9.50098 -12.5s-11.834 -3.5 -18.501 -3.5c-17.333 0 -30.5 -6.83301 -39.5 -20.5
c-8.33301 -13.667 -14.5 -35.834 -18.5 -66.501zM342.001 722h82.998c4.66699 0 9.33398 -0.666992 14.001 -2s7.66699 -3.33301 9 -6l28 -50c0.666992 -2 1.83398 -4.5 3.50098 -7.5s3.16699 -6.5 4.5 -10.5l12 18l42 50c2 2.66699 5.33301 4.66699 10 6s9.66699 2 15 2h79
l-111 -138h-112z" />
    <glyph glyph-name="f_uni0209.liga" unicode="f&#x209;" horiz-adv-x="560" 
d="M229 508l184.998 0.00292969v-1h110l-63 -507h-119l52 420h-172l-48 -399l-24 -94c-5.33301 -16 -12.666 -28.5 -21.999 -37.5s-23.333 -13.5 -42 -13.5h-49l66 544l-37 7c-9.33301 2 -16.666 5.33301 -21.999 10s-7.33301 11 -6 19l6 52h70l7 57c4 31.333 11 58 21 80
s22.833 40 38.5 54s33.834 24 54.501 30s43.334 9 68.001 9c13.333 0 24.833 -0.333008 34.5 -1s17.667 -2.33398 24 -5.00098s11.666 -6.33398 15.999 -11.001s8.5 -10.334 12.5 -17.001l66 -121h-56c-8.66699 0 -15.667 1.16699 -21 3.5
c-4.66699 2.33301 -9.66699 6.83301 -15 13.5l-38 53c-17.333 0 -31.333 -1.33301 -42 -4s-19.334 -7.5 -26.001 -14.5s-11.5 -16.167 -14.5 -27.5s-5.5 -25.333 -7.5 -42zM502.998 730.003c12.667 0 22.001 -2 28.001 -6s10.667 -10.667 14 -20l43 -121h-50
c-8.66699 0 -15.834 1.16699 -21.501 3.5s-10.5 6.83301 -14.5 13.5l-76 130h77z" />
    <glyph glyph-name="f_uni020B.liga" unicode="f&#x20b;" horiz-adv-x="560" 
d="M228 508h295.001l-62 -508h-119l51 421h-171l-50 -400l-22 -94c-5.33301 -16 -13 -28.5 -23 -37.5s-23.667 -13.5 -41 -13.5h-50l66 544l-37 8c-8.66699 1.33301 -15.667 4.33301 -21 9s-7.33301 11.667 -6 21l6 50h70l6 57c3.33301 26.667 9.5 50.834 18.5 72.501
s20.5 40 34.5 55s30.333 26.333 49 34s39.334 11.5 62.001 11.5c8 0 16 -0.333008 24 -1s15.333 -2 22 -4l-8 -65c-0.666992 -6 -3.83398 -10.167 -9.50098 -12.5s-11.834 -3.5 -18.501 -3.5c-17.333 0 -30.5 -6.83301 -39.5 -20.5
c-8.33301 -13.667 -14.5 -35.834 -18.5 -66.501zM493.001 728c26.667 0 48.5 -3.83203 65.5 -11.499s30.167 -18 39.5 -31s15.5 -28 18.5 -45c3.66699 -17.667 4.16699 -35.834 1.5 -54.501h-84c1.33301 10 1.66602 19.167 0.999023 27.5s-3 15.5 -7 21.5
s-9.33301 10.333 -16 13s-16 4 -28 4c-11.333 0 -20.833 -1.33301 -28.5 -4s-14 -7 -19 -13s-9 -13 -12 -21s-5.16699 -17.333 -6.5 -28h-83c2.66699 18.667 7.5 36.667 14.5 54s16.667 32.5 29 45.5s27.833 23.333 46.5 31s41.334 11.5 68.001 11.5z" />
    <glyph glyph-name="f_uni1E2F.liga" unicode="f&#x1e2f;" horiz-adv-x="562" 
d="M230 508h295l-62 -508h-121l52 420h-170l-50 -399l-22 -94c-5.33301 -16 -13 -28.5 -23 -37.5s-23.667 -13.5 -41 -13.5h-50l66 544l-38 7c-9.33301 2 -16.666 5.33301 -21.999 10s-7.33301 11 -6 19l6 52h72l6 57c3.33301 26.667 9.5 50.834 18.5 72.501
s20.5 40 34.5 55s30.333 26.333 49 34s39.334 11.5 62.001 11.5c8 0 16 -0.333008 24 -1s15.333 -2 22 -4l-8 -65c-0.666992 -6 -3.83398 -10.167 -9.50098 -12.5s-11.834 -3.5 -18.501 -3.5c-17.333 0 -30.5 -6.83301 -39.5 -20.5
c-8.33301 -13.667 -14.5 -35.834 -18.5 -66.501zM672 800l-117.999 -106c-6.66699 -6.66699 -13 -11.167 -19 -13.5s-13.333 -3.5 -22 -3.5h-71l66 98c5.33301 8 11.5 14.167 18.5 18.5c6.33301 4.33301 16.166 6.5 29.499 6.5h116zM460.001 606
c0 -8 -1.66699 -15.667 -5 -23s-7.66602 -13.666 -12.999 -18.999s-11.666 -9.33301 -18.999 -12s-15 -4 -23 -4s-15.667 1.33301 -23 4s-13.666 6.66699 -18.999 12s-9.66602 11.666 -12.999 18.999s-5 15 -5 23s1.66699 15.667 5 23s7.66602 13.833 12.999 19.5
s11.666 10 18.999 13s15 4.5 23 4.5s15.667 -1.5 23 -4.5s13.666 -7.33301 18.999 -13s9.66602 -12.167 12.999 -19.5s5 -15 5 -23zM620.001 606c0 -8 -1.5 -15.667 -4.5 -23s-7.33301 -13.666 -13 -18.999s-12.167 -9.33301 -19.5 -12s-15 -4 -23 -4s-15.667 1.33301 -23 4
s-13.666 6.66699 -18.999 12s-9.5 11.666 -12.5 18.999s-4.5 15 -4.5 23s1.5 15.667 4.5 23s7.16699 13.833 12.5 19.5s11.666 10 18.999 13s15 4.5 23 4.5s15.667 -1.5 23 -4.5s13.833 -7.33301 19.5 -13s10 -12.167 13 -19.5s4.5 -15 4.5 -23z" />
    <glyph glyph-name="f_f_uni01D0.liga" unicode="ff&#x1d0;" horiz-adv-x="860" 
d="M528 508h294.999l-11 -86l-51 -422h-119l52 422h-172l-50 -401l-22 -94c-5.33301 -16 -13 -28.5 -23 -37.5s-23.667 -13.5 -41 -13.5h-50l67 546h-179l-48 -401l-26 -94c-5.33301 -16 -12.666 -28.5 -21.999 -37.5s-23 -13.5 -41 -13.5h-50l67 546l-39 7
c-8.66699 1.33301 -15.667 4.5 -21 9.5s-7.33301 11.833 -6 20.5l6 49h70l4 30c4 29.333 11.667 55.666 23 78.999s25.833 43 43.5 59s38 28.333 61 37s48.167 13 75.5 13c20.667 0 40.334 -3 59.001 -9l-11 -64c-1.33301 -8 -5.83301 -12.5 -13.5 -13.5
s-16.167 -1.5 -25.5 -1.5c-13.333 0 -25.333 -1.5 -36 -4.5s-20 -8.16699 -28 -15.5s-14.667 -17.166 -20 -29.499s-9.33301 -27.833 -12 -46.5l-4 -34h184l6 57c3.33301 26.667 9.5 50.834 18.5 72.501s20.5 40 34.5 55s30.333 26.333 49 34s39.334 11.5 62.001 11.5
c8 0 16 -0.333008 24 -1s15.333 -2 22 -4l-8 -65c-0.666992 -6 -3.83398 -10.167 -9.50098 -12.5s-11.834 -3.5 -18.501 -3.5c-17.333 0 -30.5 -6.83301 -39.5 -20.5c-8.33301 -13.667 -14.5 -35.834 -18.5 -66.501zM830.999 584h-112.001l-77 138h83
c4.66699 0 9.16699 -0.666992 13.5 -2c5 -1.33301 8.16699 -3.33301 9.5 -6l28 -50c0.666992 -2 1.83398 -4.5 3.50098 -7.5s3.16699 -6.5 4.5 -10.5l12 18l42 50c2 2.66699 5.16699 4.66699 9.5 6s9.5 2 15.5 2h79z" />
    <glyph glyph-name="f_f_uni0209.liga" unicode="ff&#x209;" horiz-adv-x="861" 
d="M232 508l182.992 0.00292969l7 57c4 31.333 11 58 21 80s22.833 40 38.5 54s33.834 24 54.501 30c20 6 42.667 9 68 9c13.333 0 24.833 -0.333008 34.5 -1s17.667 -2.33398 24 -5.00098s11.833 -6.33398 16.5 -11.001s8.66699 -10.334 12 -17.001l67 -121h-56
c-9.33301 0 -16.666 1.16699 -21.999 3.5s-10.666 6.83301 -15.999 13.5l-38 53c-17.333 0 -31.166 -1.33301 -41.499 -4s-18.666 -7.5 -24.999 -14.5s-11.166 -16.167 -14.499 -27.5s-5.66602 -25.333 -6.99902 -42l-8 -57h294v-1v0l-62 -507h-119l52 422h-171l-49 -401
l-23 -94c-5.33301 -16 -12.833 -28.5 -22.5 -37.5s-23.5 -13.5 -41.5 -13.5h-50l66 546h-178l-48 -401l-25 -94c-5.33301 -16 -12.833 -28.5 -22.5 -37.5s-23.5 -13.5 -41.5 -13.5h-49l66 546l-42 7c-8.66699 1.33301 -15.5 4.5 -20.5 9.5s-6.83301 11.833 -5.5 20.5l6 49
h73l3 30c4 29.333 11.667 55.666 23 78.999s26 43 44 59s38.5 28.333 61.5 37c23.667 8.66699 48.834 13 75.501 13c21.333 0 41 -3 59 -9l-11 -64c-1.33301 -8 -6 -12.5 -14 -13.5s-16.667 -1.5 -26 -1.5c-13.333 0 -25.333 -1.5 -36 -4.5s-20 -8.16699 -28 -15.5
s-14.667 -17.166 -20 -29.499s-9 -27.833 -11 -46.5zM803.992 730.003c12.667 0 22.166 -2 28.499 -6s10.833 -10.667 13.5 -20l42 -121h-48c-9.33301 0 -16.666 1.16699 -21.999 3.5s-10.333 6.83301 -15 13.5l-76 130h77z" />
    <glyph glyph-name="f_f_uni020B.liga" unicode="ff&#x20b;" horiz-adv-x="859" 
d="M528 508h294.999l-11 -86l-51 -422h-119l52 422h-172l-50 -401l-22 -94c-5.33301 -16 -13 -28.5 -23 -37.5s-23.667 -13.5 -41 -13.5h-50l67 546h-179l-48 -401l-26 -94c-5.33301 -16 -12.666 -28.5 -21.999 -37.5s-23 -13.5 -41 -13.5h-50l67 546l-39 7
c-8.66699 1.33301 -15.667 4.5 -21 9.5s-7.33301 11.833 -6 20.5l6 49h70l4 30c4 29.333 11.667 55.666 23 78.999s25.833 43 43.5 59s38 28.333 61 37s48.167 13 75.5 13c20.667 0 40.334 -3 59.001 -9l-11 -64c-1.33301 -8 -5.83301 -12.5 -13.5 -13.5
s-16.167 -1.5 -25.5 -1.5c-13.333 0 -25.333 -1.5 -36 -4.5s-20 -8.16699 -28 -15.5s-14.667 -17.166 -20 -29.499s-9.33301 -27.833 -12 -46.5l-4 -34h184l6 57c3.33301 26.667 9.5 50.834 18.5 72.501s20.5 40 34.5 55s30.333 26.333 49 34s39.334 11.5 62.001 11.5
c8 0 16 -0.333008 24 -1s15.333 -2 22 -4l-8 -65c-0.666992 -6 -3.83398 -10.167 -9.50098 -12.5s-11.834 -3.5 -18.501 -3.5c-17.333 0 -30.5 -6.83301 -39.5 -20.5c-8.33301 -13.667 -14.5 -35.834 -18.5 -66.501zM785.999 728c26.667 0 48.667 -3.83203 66 -11.499
s30.666 -18 39.999 -31s15.5 -28 18.5 -45c3.66699 -17.667 4.16699 -35.834 1.5 -54.501h-84c1.33301 10 1.66602 19.167 0.999023 27.5s-3 15.5 -7 21.5s-9.5 10.333 -16.5 13s-16.167 4 -27.5 4s-20.833 -1.33301 -28.5 -4s-14.167 -7 -19.5 -13s-9.33301 -13 -12 -21
s-4.66699 -17.333 -6 -28h-83c2.66699 18.667 7.33398 36.667 14.001 54s16.167 32.5 28.5 45.5s27.833 23.333 46.5 31s41.334 11.5 68.001 11.5z" />
    <glyph glyph-name="f_f_uni1E2F.liga" unicode="ff&#x1e2f;" horiz-adv-x="860" 
d="M528 508h294.997l-11 -86l-51 -422h-121l52 422h-170l-49 -401l-23 -94c-5.33301 -16 -12.833 -28.5 -22.5 -37.5s-23.5 -13.5 -41.5 -13.5h-50l67 546h-179l-48 -401l-26 -94c-5.33301 -16 -12.666 -28.5 -21.999 -37.5s-23.333 -13.5 -42 -13.5h-49l67 546l-39 7
c-8.66699 1.33301 -15.667 4.5 -21 9.5s-7.33301 11.833 -6 20.5l6 49h70l4 30c4 29.333 11.667 55.666 23 78.999s25.833 43 43.5 59s38 28.333 61 37s48.167 13 75.5 13c20.667 0 40.334 -3 59.001 -9l-11 -64c-1.33301 -8 -5.83301 -12.5 -13.5 -13.5
s-16.167 -1.5 -25.5 -1.5c-13.333 0 -25.333 -1.5 -36 -4.5s-20 -8.16699 -28 -15.5s-14.667 -17.166 -20 -29.499s-9.33301 -27.833 -12 -46.5l-4 -34h184l6 57c3.33301 26.667 9.5 50.834 18.5 72.501s20.5 40 34.5 55s30.333 26.333 49 34s39.667 11.5 63 11.5
c8 0 15.833 -0.333008 23.5 -1s14.834 -2 21.501 -4l-8 -65c-0.666992 -6 -3.66699 -10.167 -9 -12.5c-6 -2.33301 -12.333 -3.5 -19 -3.5c-17.333 0 -30.5 -6.83301 -39.5 -20.5s-15.167 -35.834 -18.5 -66.501zM969.997 800l-116.999 -106
c-6.66699 -6.66699 -13.167 -11.167 -19.5 -13.5s-13.5 -3.5 -21.5 -3.5h-72l66 98c5.33301 8 11.666 14.167 18.999 18.5s17 6.5 29 6.5h116zM917.998 606c0 -8 -1.5 -15.667 -4.5 -23s-7.33301 -13.666 -13 -18.999s-12.167 -9.33301 -19.5 -12s-15 -4 -23 -4
s-15.667 1.33301 -23 4s-13.666 6.66699 -18.999 12s-9.5 11.666 -12.5 18.999s-4.5 15 -4.5 23s1.5 15.667 4.5 23s7.16699 13.833 12.5 19.5s11.666 10 18.999 13s15 4.5 23 4.5s15.667 -1.5 23 -4.5s13.833 -7.33301 19.5 -13s10 -12.167 13 -19.5s4.5 -15 4.5 -23z
M758.998 606c0 -8 -1.66699 -15.667 -5 -23s-7.83301 -13.666 -13.5 -18.999s-12.167 -9.33301 -19.5 -12s-15 -4 -23 -4s-15.667 1.33301 -23 4s-13.666 6.66699 -18.999 12s-9.5 11.666 -12.5 18.999s-4.5 15 -4.5 23s1.5 15.667 4.5 23s7.16699 13.833 12.5 19.5
s11.666 10 18.999 13s15 4.5 23 4.5s15.667 -1.5 23 -4.5s13.833 -7.33301 19.5 -13s10.167 -12.167 13.5 -19.5s5 -15 5 -23z" />
    <glyph glyph-name="f_uni0237.liga" unicode="f&#x237;" horiz-adv-x="561" 
d="M230 508h293.995l-64 -526c-2.66699 -22.667 -8.16699 -43.667 -16.5 -63s-19.666 -36.333 -33.999 -51s-31.5 -26.334 -51.5 -35.001s-43.333 -13 -70 -13c-13.333 0 -24.666 0.666992 -33.999 2s-18.666 4 -27.999 8l12 66c1.33301 6.66699 4.33301 11 9 13s13 3 25 3
c10.667 0 20 1.16699 28 3.5s14.667 6.33301 20 12s9.5 12.834 12.5 21.501c3.66699 8.66699 6.16699 19.667 7.5 33l52 442h-168l-50 -403l-23 -94c-5.33301 -16 -12.833 -28.5 -22.5 -37.5s-23.167 -13.5 -40.5 -13.5h-50l66 547l-39 7
c-8.66699 1.33301 -15.667 4.33301 -21 9s-7.33301 11.667 -6 21l6 48h71l7 57c3.33301 26.667 9.5 50.834 18.5 72.501s20.333 40 34 55s30 26.333 49 34s39.833 11.5 62.5 11.5c8 0 16 -0.333008 24 -1s15 -2 21 -4l-8 -65c-0.666992 -6 -3.66699 -10.167 -9 -12.5
s-11.333 -3.5 -18 -3.5c-17.333 0 -30.666 -6.83301 -39.999 -20.5s-15.666 -35.834 -18.999 -66.501z" />
    <glyph glyph-name="f_f_uni0237.liga" unicode="ff&#x237;" horiz-adv-x="861" 
d="M528 508l295.995 0.000976562l-64 -526c-2.66699 -22.667 -8.16699 -43.667 -16.5 -63s-19.666 -36.5 -33.999 -51.5s-31.5 -26.667 -51.5 -35s-43.333 -12.5 -70 -12.5c-13.333 0 -24.666 0.666992 -33.999 2s-18.666 3.66602 -27.999 6.99902l12 67
c2 6.66699 5.16699 11 9.5 13s12.166 3 23.499 3s21 1 29 3s14.5 5.83301 19.5 11.5s9 13 12 22s5.5 20.167 7.5 33.5l53 442h-170l-49 -403l-23 -94c-5.33301 -16 -12.833 -28.5 -22.5 -37.5s-23.5 -13.5 -41.5 -13.5h-50l67 548h-179l-48 -403l-26 -94
c-5.33301 -16 -12.666 -28.5 -21.999 -37.5s-23 -13.5 -41 -13.5h-50l67 547l-39 7c-8.66699 1.33301 -15.667 4.33301 -21 9s-7.33301 11.667 -6 21l6 48h70l4 30c4 29.333 11.667 55.666 23 78.999s25.833 43 43.5 59s38 28.333 61 37s48.167 13 75.5 13
c20.667 0 40.334 -3 59.001 -9l-11 -64c-1.33301 -8 -5.83301 -12.5 -13.5 -13.5s-16.167 -1.5 -25.5 -1.5c-13.333 0 -25.333 -1.5 -36 -4.5s-20 -8.16699 -28 -15.5s-14.667 -17.166 -20 -29.499s-9.33301 -27.833 -12 -46.5l-4 -34h184l6 57
c3.33301 26.667 9.5 50.834 18.5 72.501s20.5 40 34.5 55s30.333 26.333 49 34s39.667 11.5 63 11.5c8 0 15.833 -0.333008 23.5 -1s14.834 -2 21.501 -4l-8 -65c-0.666992 -6 -3.66699 -10.167 -9 -12.5c-6 -2.33301 -12.333 -3.5 -19 -3.5
c-17.333 0 -30.5 -6.83301 -39.5 -20.5s-15.167 -35.834 -18.5 -66.501z" />
    <glyph glyph-name="f_jcircumflex.liga" unicode="f&#x135;" horiz-adv-x="561" 
d="M230 508h293.995l-64 -526c-2.66699 -22.667 -8.16699 -43.667 -16.5 -63s-19.666 -36.333 -33.999 -51s-31.5 -26.334 -51.5 -35.001s-43.333 -13 -70 -13c-13.333 0 -24.666 0.666992 -33.999 2s-18.666 4 -27.999 8l12 66c1.33301 6.66699 4.33301 11 9 13s13 3 25 3
c10.667 0 20 1.16699 28 3.5s14.667 6.33301 20 12s9.5 12.834 12.5 21.501c3.66699 8.66699 6.16699 19.667 7.5 33l52 442h-168l-50 -403l-23 -94c-5.33301 -16 -12.833 -28.5 -22.5 -37.5s-23.167 -13.5 -40.5 -13.5h-50l66 547l-39 7
c-8.66699 1.33301 -15.667 4.33301 -21 9s-7.33301 11.667 -6 21l6 48h71l7 57c3.33301 26.667 9.5 50.834 18.5 72.501s20.333 40 34 55s30 26.333 49 34s39.833 11.5 62.5 11.5c8 0 16 -0.333008 24 -1s15 -2 21 -4l-8 -65c-0.666992 -6 -3.66699 -10.167 -9 -12.5
s-11.333 -3.5 -18 -3.5c-17.333 0 -30.666 -6.83301 -39.999 -20.5s-15.666 -35.834 -18.999 -66.501zM637.995 584h-76.002c-4 0 -8 1 -12 3s-8 5 -12 9l-40 52c-1.33301 1.33301 -2.66602 3.16602 -3.99902 5.49902c-1.33301 1.66699 -2.66602 3.83398 -3.99902 6.50098
c-1.33301 -2.66699 -3 -4.83398 -5 -6.50098c-2 -2.33301 -4 -4.16602 -6 -5.49902l-51 -52c-4 -4 -8.5 -7 -13.5 -9s-9.83301 -3 -14.5 -3h-79l121 139h107z" />
    <glyph glyph-name="f_lcaron.liga" unicode="f&#x13e;" horiz-adv-x="571" 
d="M692 744c8 0 13.001 -1.66602 15.001 -4.99902s3 -7 3 -11c0 -2.66699 -0.666992 -6.33398 -2 -11.001s-4 -11.667 -8 -21s-10 -22.166 -18 -38.499c-8 -15.667 -19.333 -36.834 -34 -63.501c-5.33301 -9.33301 -11.333 -15.333 -18 -18s-15.334 -4 -26.001 -4h-30
l50 172h68zM224.001 420.001l-49.0029 -400l-25 -94c-5.33301 -16 -12.833 -28.333 -22.5 -37s-23.5 -13 -41.5 -13h-50l67 544l-37 7c-9.33301 2 -16.666 5.33301 -21.999 10s-7.33301 11 -6 19l6 52h70l2 23c3.33301 27.333 10.5 53.333 21.5 78s25.833 46.667 44.5 66
s41.334 34.5 68.001 45.5s57 16.5 91 16.5c28 0 54.5 -1 79.5 -3s50.5 -3 76.5 -3h69l-90 -731h-120l78 643c-14.667 1.33301 -29 2.83301 -43 4.5s-27.667 2.5 -41 2.5c-33.333 0 -60.166 -10 -80.499 -30s-32.5 -49.667 -36.5 -89l-3 -23h109l-11 -88h-104z" />
    <glyph glyph-name="f_uni013C.liga" unicode="f&#x13c;" horiz-adv-x="571" 
d="M224 420l-49.0029 -400l-25 -94c-5.33301 -16 -12.833 -28.333 -22.5 -37s-23.5 -13 -41.5 -13h-50l67 544l-37 7c-9.33301 2 -16.666 5.33301 -21.999 10s-7.33301 11 -6 19l6 52h70l2 23c3.33301 27.333 10.5 53.333 21.5 78s25.833 46.667 44.5 66
s41.334 34.5 68.001 45.5s57 16.5 91 16.5c28 0 54.5 -1 79.5 -3s50.5 -3 76.5 -3h69l-90 -731h-120l78 643c-14.667 1.33301 -29 2.83301 -43 4.5s-27.667 2.5 -41 2.5c-33.333 0 -60.166 -10 -80.499 -30s-32.5 -49.667 -36.5 -89l-3 -23h109l-11 -88h-104zM442.997 -45
c8 0 12.998 -1.66699 14.998 -5s3 -6.66602 3 -9.99902c0 -4 -0.666992 -8.66699 -2 -14s-3.66602 -12.333 -6.99902 -21s-8.16602 -19.334 -14.499 -32.001s-14.166 -27.667 -23.499 -45c-5.33301 -9.33301 -11.333 -15.333 -18 -18s-15.334 -4 -26.001 -4h-44l42 149h75z
" />
    <glyph glyph-name="f_uni021B.liga" unicode="f&#x21b;" horiz-adv-x="672" 
d="M231 508l192.991 -0.00195312l42 141c2.66699 6.66699 6.33398 11.834 11.001 15.501s10.334 5.5 17.001 5.5h66l-20 -162h124l-10 -84h-124l-28 -227c-1.33301 -13.333 -2.66602 -24.166 -3.99902 -32.499s-2.33301 -14.666 -3 -18.999s-1 -7.33301 -1 -9v-4.5
c0 -12.667 3 -22.5 9 -29.5s15 -10.5 27 -10.5c6.66699 0 12.5 0.833008 17.5 2.5s9.33301 3.5 13 5.5s7 3.83301 10 5.5s5.83301 2.5 8.5 2.5c4 0 6.83301 -0.833008 8.5 -2.5c1.66699 -1 3.5 -3.5 5.5 -7.5l27 -60c-18.667 -14.667 -39 -26 -61 -34s-44.333 -12 -67 -12
c-36 0 -64.667 9.83301 -86 29.5c-21.333 19 -32.666 46.5 -33.999 82.5v9c0 3.33301 0.333008 8 1 14s1.33398 14 2.00098 24s2.33398 23 5.00098 39l28 234h-183l-49 -403l-26 -94c-5.33301 -16 -12.666 -28.5 -21.999 -37.5s-23 -13.5 -41 -13.5h-49l66 547l-39 7
c-8.66699 1.33301 -15.667 4.33301 -21 9s-7.33301 11.667 -6 21l6 48h70l4 38c4 29.333 12 55.666 24 78.999s27 43.333 45 60s38.667 29.334 62 38.001s49 13 77 13c21.333 0 41 -3.33301 59 -10l-11 -64c-0.666992 -4 -2.16699 -7 -4.5 -9s-5.5 -3.5 -9.5 -4.5
s-8.16699 -1.66699 -12.5 -2s-8.83301 -0.5 -13.5 -0.5c-13.333 0 -25.666 -1.83301 -36.999 -5.5s-21.166 -9.66699 -29.499 -18s-15.333 -19 -21 -32c-5.66699 -13.667 -9.5 -29.834 -11.5 -48.501zM504.991 -45.002c8 0 12.998 -1.66699 14.998 -5s3 -6.66602 3 -9.99902
c0 -4 -0.666992 -8.66699 -2 -14s-3.66602 -12.333 -6.99902 -21s-8.16602 -19.334 -14.499 -32.001s-14.166 -27.667 -23.499 -45c-5.33301 -9.33301 -11.333 -15.333 -18 -18s-15.334 -4 -26.001 -4h-44l42 149h75z" />
    <glyph glyph-name="f_tcaron.liga" unicode="f&#x165;" horiz-adv-x="672" 
d="M700 744c7.33301 0 12.168 -1.66602 14.501 -4.99902s3.5 -7 3.5 -11c0 -2.66699 -0.666992 -6.33398 -2 -11.001s-4 -11.667 -8 -21s-10 -22.166 -18 -38.499c-8 -15.667 -19.333 -36.834 -34 -63.501c-5.33301 -9.33301 -11.333 -15.333 -18 -18s-15.334 -4 -26.001 -4
h-30l50 172h68zM231.002 508.001l192.991 -0.00195312l42 141c2.66699 6.66699 6.33398 11.834 11.001 15.501s10.334 5.5 17.001 5.5h66l-20 -162h124l-10 -84h-124l-28 -227c-1.33301 -13.333 -2.66602 -24.166 -3.99902 -32.499s-2.33301 -14.666 -3 -18.999
s-1 -7.33301 -1 -9v-4.5c0 -12.667 3 -22.5 9 -29.5s15 -10.5 27 -10.5c6.66699 0 12.5 0.833008 17.5 2.5s9.33301 3.5 13 5.5s7 3.83301 10 5.5s5.83301 2.5 8.5 2.5c4 0 6.83301 -0.833008 8.5 -2.5c1.66699 -1 3.5 -3.5 5.5 -7.5l27 -60
c-18.667 -14.667 -39 -26 -61 -34s-44.333 -12 -67 -12c-36 0 -64.667 9.83301 -86 29.5c-21.333 19 -32.666 46.5 -33.999 82.5v9c0 3.33301 0.333008 8 1 14s1.33398 14 2.00098 24s2.33398 23 5.00098 39l28 234h-183l-49 -403l-26 -94
c-5.33301 -16 -12.666 -28.5 -21.999 -37.5s-23 -13.5 -41 -13.5h-49l66 547l-39 7c-8.66699 1.33301 -15.667 4.33301 -21 9s-7.33301 11.667 -6 21l6 48h70l4 38c4 29.333 12 55.666 24 78.999s27 43.333 45 60s38.667 29.334 62 38.001s49 13 77 13
c21.333 0 41 -3.33301 59 -10l-11 -64c-0.666992 -4 -2.16699 -7 -4.5 -9s-5.5 -3.5 -9.5 -4.5s-8.16699 -1.66699 -12.5 -2s-8.83301 -0.5 -13.5 -0.5c-13.333 0 -25.666 -1.83301 -36.999 -5.5s-21.166 -9.66699 -29.499 -18s-15.333 -19 -21 -32
c-5.66699 -13.667 -9.5 -29.834 -11.5 -48.501z" />
    <glyph glyph-name="f_uni1ECB.liga" unicode="f&#x1ecb;" horiz-adv-x="562" 
d="M230 508l295.002 0.000976562l-62 -508h-121l52 420h-170l-49 -400l-25 -94c-5.33301 -16 -12.833 -28.333 -22.5 -37s-23.5 -13 -41.5 -13h-50l68 544l-38 7c-9.33301 2 -16.5 5.33301 -21.5 10c-5.66699 4.66699 -7.83398 11 -6.50098 19l6 52h70l2 17
c4 31.333 12.333 60.333 25 87s30 49.667 52 69s48.667 34.5 80 45.5s67.666 16.5 108.999 16.5c13.333 0 27.166 -0.833008 41.499 -2.5c15 -1.66699 27.167 -3.83398 36.5 -6.50098l-12 -62c-1.33301 -8 -6 -12.5 -14 -13.5s-17.333 -1.5 -28 -1.5
c-30 0 -55.5 -2.83301 -76.5 -8.5s-38.167 -14 -51.5 -25s-23.666 -25 -30.999 -42s-12.333 -36.833 -15 -59.5zM456.002 -123.999c0 -10 -1.99805 -19.502 -5.99805 -28.502s-9.5 -16.667 -16.5 -23s-14.833 -11.333 -23.5 -15s-17.334 -5.5 -26.001 -5.5
c-9.33301 0 -18.166 1.83301 -26.499 5.5s-15.5 8.66699 -21.5 15s-11 13.833 -15 22.5s-6 18.334 -6 29.001c0 9.33301 2 18.333 6 27s9.16699 16.334 15.5 23.001s13.666 12 21.999 16s17.166 6 26.499 6s18.333 -2 27 -6s16.167 -9.16699 22.5 -15.5
s11.5 -13.833 15.5 -22.5s6 -18 6 -28z" />
    <glyph glyph-name="f_uni1E2D.liga" unicode="f&#x1e2d;" horiz-adv-x="562" 
d="M230 508l295.002 0.000976562l-62 -508h-121l52 420h-170l-49 -400l-25 -94c-5.33301 -16 -12.833 -28.333 -22.5 -37s-23.5 -13 -41.5 -13h-50l68 544l-38 7c-9.33301 2 -16.5 5.33301 -21.5 10c-5.66699 4.66699 -7.83398 11 -6.50098 19l6 52h70l2 17
c4 31.333 12.333 60.333 25 87s30 49.667 52 69s48.667 34.5 80 45.5s67.666 16.5 108.999 16.5c13.333 0 27.166 -0.833008 41.499 -2.5c15 -1.66699 27.167 -3.83398 36.5 -6.50098l-12 -62c-1.33301 -8 -6 -12.5 -14 -13.5s-17.333 -1.5 -28 -1.5
c-30 0 -55.5 -2.83301 -76.5 -8.5s-38.167 -14 -51.5 -25s-23.666 -25 -30.999 -42s-12.333 -36.833 -15 -59.5zM446.002 -75.999c9.33301 0 16.8301 2.66797 22.4971 8.00098c6.33301 5.33301 10.166 15.333 11.499 30h69c-2.66699 -18.667 -7.16699 -35.667 -13.5 -51
s-14.166 -28.333 -23.499 -39s-20.166 -19 -32.499 -25c-13 -6 -26.167 -9 -39.5 -9c-10.667 0 -20.667 2.16699 -30 6.5s-17.666 9 -24.999 14s-14.5 9.66699 -21.5 14s-13.5 6.5 -19.5 6.5c-9.33301 0 -16.666 -2.83301 -21.999 -8.5s-9 -15.834 -11 -30.501h-70
c2 18.667 6.33301 35.667 13 51s14.834 28.333 24.501 39s20.667 19 33 25s25.166 9 38.499 9c10.667 0 20.667 -2 30 -6s18 -8.66699 26 -14s15.167 -10 21.5 -14s12.5 -6 18.5 -6z" />
    <glyph glyph-name="f_uni0268.liga" unicode="f&#x268;" horiz-adv-x="587" 
d="M377 286l17.002 134.001h-170l-49 -400l-25 -94c-5.33301 -16 -12.833 -28.333 -22.5 -37s-23.5 -13 -41.5 -13h-50l68 544l-38 7c-9.33301 2 -16.5 5.33301 -21.5 10c-5.66699 4.66699 -7.83398 11 -6.50098 19l6 52h70l2 17c4 31.333 12.333 60.333 25 87
s30 49.667 52 69s48.667 34.5 80 45.5s67.666 16.5 108.999 16.5c13.333 0 27.166 -0.833008 41.499 -2.5c15 -1.66699 27.167 -3.83398 36.5 -6.50098l-12 -62c-1.33301 -8 -6 -12.5 -14 -13.5s-17.333 -1.5 -28 -1.5c-30 0 -55.5 -2.83301 -76.5 -8.5
s-38.167 -14 -51.5 -25s-23.666 -25 -30.999 -42s-12.333 -36.833 -15 -59.5l-2 -14h295l-27 -222h70l-11 -84h-69l-25 -202h-121l24 202h-54l10 84h55z" />
    <glyph glyph-name="f_iacute.liga" unicode="f&#xed;" horiz-adv-x="562" 
d="M230 508h295l-62 -508h-121l52 420h-170l-50 -399l-22 -94c-5.33301 -16 -13 -28.5 -23 -37.5s-23.667 -13.5 -41 -13.5h-50l66 544l-38 7c-9.33301 2 -16.666 5.33301 -21.999 10s-7.33301 11 -6 19l6 52h72l6 57c3.33301 26.667 9.5 50.834 18.5 72.501
s20.5 40 34.5 55s30.333 26.333 49 34s39.334 11.5 62.001 11.5c8 0 16 -0.333008 24 -1s15.333 -2 22 -4l-8 -65c-0.666992 -6 -3.83398 -10.167 -9.50098 -12.5s-11.834 -3.5 -18.501 -3.5c-17.333 0 -30.5 -6.83301 -39.5 -20.5
c-8.33301 -13.667 -14.5 -35.834 -18.5 -66.501zM644 731l-128.999 -131.001c-6.66699 -6.66699 -12.834 -11.167 -18.501 -13.5s-12.5 -3.5 -20.5 -3.5h-68l78 121c5.33301 8.66699 11.5 15.334 18.5 20.001c7.66699 4.66699 17.5 7 29.5 7h110z" />
    <glyph glyph-name="f_uni1EC9.liga" unicode="f&#x1ec9;" horiz-adv-x="562" 
d="M230 508h295l-62 -508h-121l52 420h-170l-50 -399l-22 -94c-5.33301 -16 -13 -28.5 -23 -37.5s-23.667 -13.5 -41 -13.5h-50l66 544l-38 7c-9.33301 2 -16.666 5.33301 -21.999 10s-7.33301 11 -6 19l6 52h72l6 57c3.33301 26.667 9.5 50.834 18.5 72.501
s20.5 40 34.5 55s30.333 26.333 49 34s39.334 11.5 62.001 11.5c8 0 16 -0.333008 24 -1s15.333 -2 22 -4l-8 -65c-0.666992 -6 -3.83398 -10.167 -9.50098 -12.5s-11.834 -3.5 -18.501 -3.5c-17.333 0 -30.5 -6.83301 -39.5 -20.5
c-8.33301 -13.667 -14.5 -35.834 -18.5 -66.501zM396 722c10.667 8 25.167 14.665 43.5 19.998c17.667 5.33301 36.5 8 56.5 8c32 0 55 -6.66699 69 -20s19.667 -30 17 -50c-2 -17.333 -9.16699 -32.666 -21.5 -45.999s-26.833 -24 -43.5 -32l-15 -42h-54l9 75
c16 2.66699 27.167 6.83398 33.5 12.501s9.83301 12.167 10.5 19.5c0.666992 6.66699 -1 12.5 -5 17.5s-10.667 7.5 -20 7.5c-5.33301 0 -10.5 -0.666992 -15.5 -2s-9.5 -3 -13.5 -5s-7.5 -3.66699 -10.5 -5s-5.83301 -2 -8.5 -2c-4 0 -7 1 -9 3s-3.66699 5 -5 9z" />
    <glyph glyph-name="f_f_uni1ECB.liga" unicode="ff&#x1ecb;" horiz-adv-x="860" 
d="M230 508l183.995 -0.000976562l2 17c4 31.333 12.333 60.333 25 87s30 49.667 52 69s48.667 34.5 80 45.5s67.666 16.5 108.999 16.5c6.66699 0 13.334 -0.166992 20.001 -0.5s13.334 -0.833008 20.001 -1.5s13.334 -1.66699 20.001 -3s12 -2.66602 16 -3.99902l-12 -62
c-1.33301 -8 -5.83301 -12.5 -13.5 -13.5c-7 -1 -15.833 -1.5 -26.5 -1.5c-30.667 0 -56.5 -2.83301 -77.5 -8.5s-38.333 -14 -52 -25s-24.167 -25 -31.5 -42s-12.333 -36.833 -15 -59.5l-1 -14h294l-62 -508h-119l52 424h-171l-49 -404l-26 -94
c-5.33301 -16 -12.666 -28.333 -21.999 -37s-23 -13 -41 -13h-49l67 548h-179l-48 -403l-26 -94c-5.33301 -16 -12.666 -28.5 -21.999 -37.5s-23 -13.5 -41 -13.5h-50l67 547l-39 7c-8.66699 1.33301 -15.667 4.33301 -21 9s-7.33301 11.667 -6 21l6 48h70l4 30
c4 29.333 11.667 55.666 23 78.999s25.833 43 43.5 59s38 28.333 61 37s48.167 13 75.5 13c20.667 0 40.334 -3 59.001 -9l-11 -64c-1.33301 -8 -5.83301 -12.5 -13.5 -13.5s-16.167 -1.5 -25.5 -1.5c-13.333 0 -25.333 -1.5 -36 -4.5s-20 -8.16699 -28 -15.5
s-14.667 -17.166 -20 -29.499s-9.33301 -27.833 -12 -46.5zM754.995 -124.001c0 -10 -1.99805 -19.502 -5.99805 -28.502s-9.5 -16.667 -16.5 -23s-14.833 -11.333 -23.5 -15s-17.334 -5.5 -26.001 -5.5c-9.33301 0 -18.166 1.83301 -26.499 5.5s-15.5 8.66699 -21.5 15
s-11 13.833 -15 22.5s-6 18.334 -6 29.001c0 9.33301 2 18.333 6 27s9.16699 16.334 15.5 23.001s13.666 12 21.999 16s17.166 6 26.499 6s18.333 -2 27 -6s16.167 -9.16699 22.5 -15.5s11.5 -13.833 15.5 -22.5s6 -18 6 -28z" />
    <glyph glyph-name="f_f_uni1E2D.liga" unicode="ff&#x1e2d;" horiz-adv-x="860" 
d="M230 508l183.995 -0.000976562l2 17c4 31.333 12.333 60.333 25 87s30 49.667 52 69s48.667 34.5 80 45.5s67.666 16.5 108.999 16.5c6.66699 0 13.334 -0.166992 20.001 -0.5s13.334 -0.833008 20.001 -1.5s13.334 -1.66699 20.001 -3s12 -2.66602 16 -3.99902l-12 -62
c-1.33301 -8 -5.83301 -12.5 -13.5 -13.5c-7 -1 -15.833 -1.5 -26.5 -1.5c-30.667 0 -56.5 -2.83301 -77.5 -8.5s-38.333 -14 -52 -25s-24.167 -25 -31.5 -42s-12.333 -36.833 -15 -59.5l-1 -14h294l-62 -508h-119l52 424h-171l-49 -404l-26 -94
c-5.33301 -16 -12.666 -28.333 -21.999 -37s-23 -13 -41 -13h-49l67 548h-179l-48 -403l-26 -94c-5.33301 -16 -12.666 -28.5 -21.999 -37.5s-23 -13.5 -41 -13.5h-50l67 547l-39 7c-8.66699 1.33301 -15.667 4.33301 -21 9s-7.33301 11.667 -6 21l6 48h70l4 30
c4 29.333 11.667 55.666 23 78.999s25.833 43 43.5 59s38 28.333 61 37s48.167 13 75.5 13c20.667 0 40.334 -3 59.001 -9l-11 -64c-1.33301 -8 -5.83301 -12.5 -13.5 -13.5s-16.167 -1.5 -25.5 -1.5c-13.333 0 -25.333 -1.5 -36 -4.5s-20 -8.16699 -28 -15.5
s-14.667 -17.166 -20 -29.499s-9.33301 -27.833 -12 -46.5zM739.995 -76.001c9.33301 0 16.8301 2.66797 22.4971 8.00098c6.33301 5.33301 10.166 15.333 11.499 30h69c-2.66699 -18.667 -7.16699 -35.667 -13.5 -51s-14.166 -28.333 -23.499 -39s-20.166 -19 -32.499 -25
c-13 -6 -26.167 -9 -39.5 -9c-10.667 0 -20.667 2.16699 -30 6.5s-17.666 9 -24.999 14s-14.5 9.66699 -21.5 14s-13.5 6.5 -19.5 6.5c-9.33301 0 -16.666 -2.83301 -21.999 -8.5s-9 -15.834 -11 -30.501h-70c2 18.667 6.33301 35.667 13 51s14.834 28.333 24.501 39
s20.667 19 33 25s25.166 9 38.499 9c10.667 0 20.667 -2 30 -6s18 -8.66699 26 -14s15.167 -10 21.5 -14s12.5 -6 18.5 -6z" />
    <glyph glyph-name="f_f_uni0268.liga" unicode="ff&#x268;" horiz-adv-x="875" 
d="M676 286l17.9951 137.999h-171l-49 -404l-26 -94c-5.33301 -16 -12.666 -28.333 -21.999 -37s-23 -13 -41 -13h-49l67 548h-179l-48 -403l-26 -94c-5.33301 -16 -12.666 -28.5 -21.999 -37.5s-23 -13.5 -41 -13.5h-50l67 547l-39 7
c-8.66699 1.33301 -15.667 4.33301 -21 9s-7.33301 11.667 -6 21l6 48h70l4 30c4 29.333 11.667 55.666 23 78.999s25.833 43 43.5 59s38 28.333 61 37s48.167 13 75.5 13c20.667 0 40.334 -3 59.001 -9l-11 -64c-1.33301 -8 -5.83301 -12.5 -13.5 -13.5
s-16.167 -1.5 -25.5 -1.5c-13.333 0 -25.333 -1.5 -36 -4.5s-20 -8.16699 -28 -15.5s-14.667 -17.166 -20 -29.499s-9.33301 -27.833 -12 -46.5l-4 -34h184l2 17c4 31.333 12.333 60.333 25 87s30 49.667 52 69s48.667 34.5 80 45.5s67.666 16.5 108.999 16.5
c6.66699 0 13.334 -0.166992 20.001 -0.5s13.334 -0.833008 20.001 -1.5s13.334 -1.66699 20.001 -3s12 -2.66602 16 -3.99902l-12 -62c-1.33301 -8 -5.83301 -12.5 -13.5 -13.5c-7 -1 -15.833 -1.5 -26.5 -1.5c-30.667 0 -56.5 -2.83301 -77.5 -8.5s-38.333 -14 -52 -25
s-24.167 -25 -31.5 -42s-12.333 -36.833 -15 -59.5l-1 -14h294l-27 -222h63l-11 -84h-62l-25 -202h-119l24 202h-62l10 84h62z" />
    <glyph glyph-name="f_f_iacute.liga" unicode="ff&#xed;" horiz-adv-x="860" 
d="M529 508h293.996l-62 -508h-119l52 424h-172l-48 -403l-24 -94c-5.33301 -16 -12.666 -28.5 -21.999 -37.5s-23.333 -13.5 -42 -13.5h-49l67 548h-180l-48 -403l-26 -94c-5.33301 -16 -12.666 -28.5 -21.999 -37.5s-23 -13.5 -41 -13.5h-50l67 547l-39 7
c-8.66699 1.33301 -15.667 4.33301 -21 9s-7.33301 11.667 -6 21l6 48h70l4 30c4 29.333 11.667 55.666 23 78.999s25.833 43 43.5 59s38 28.333 61 37s48.167 13 75.5 13c20.667 0 40.334 -3 59.001 -9l-11 -64c-1.33301 -8 -5.83301 -12.5 -13.5 -13.5
s-16.167 -1.5 -25.5 -1.5c-13.333 0 -25.333 -1.5 -36 -4.5s-20 -8.16699 -28 -15.5s-14.667 -17.166 -20 -29.499s-9.33301 -27.833 -12 -46.5l-4 -34h184l7 57c3.33301 26.667 9.33301 50.834 18 72.501s20 40 34 55s30.5 26.333 49.5 34
c19.667 7.66699 40.834 11.5 63.501 11.5c8 0 15.667 -0.333008 23 -1s14.333 -2 21 -4l-8 -65c-0.666992 -6 -3.5 -10.167 -8.5 -12.5s-11.167 -3.5 -18.5 -3.5c-17.333 0 -30.5 -6.83301 -39.5 -20.5s-15.5 -35.834 -19.5 -66.501zM945.996 731l-128.999 -131.001
c-6.66699 -6.66699 -12.834 -11.167 -18.501 -13.5s-12.5 -3.5 -20.5 -3.5h-68l78 121c5.33301 8.66699 11.5 15.334 18.5 20.001c7.66699 4.66699 17.5 7 29.5 7h110z" />
    <glyph glyph-name="f_f_uni1EC9.liga" unicode="ff&#x1ec9;" horiz-adv-x="855" 
d="M529 508h293.996l-62 -508h-119l52 424h-172l-48 -403l-24 -94c-5.33301 -16 -12.666 -28.5 -21.999 -37.5s-23.333 -13.5 -42 -13.5h-49l67 548h-180l-48 -403l-26 -94c-5.33301 -16 -12.666 -28.5 -21.999 -37.5s-23 -13.5 -41 -13.5h-50l67 547l-39 7
c-8.66699 1.33301 -15.667 4.33301 -21 9s-7.33301 11.667 -6 21l6 48h70l4 30c4 29.333 11.667 55.666 23 78.999s25.833 43 43.5 59s38 28.333 61 37s48.167 13 75.5 13c20.667 0 40.334 -3 59.001 -9l-11 -64c-1.33301 -8 -5.83301 -12.5 -13.5 -13.5
s-16.167 -1.5 -25.5 -1.5c-13.333 0 -25.333 -1.5 -36 -4.5s-20 -8.16699 -28 -15.5s-14.667 -17.166 -20 -29.499s-9.33301 -27.833 -12 -46.5l-4 -34h184l7 57c3.33301 26.667 9.33301 50.834 18 72.501s20 40 34 55s30.5 26.333 49.5 34
c19.667 7.66699 40.834 11.5 63.501 11.5c8 0 15.667 -0.333008 23 -1s14.333 -2 21 -4l-8 -65c-0.666992 -6 -3.5 -10.167 -8.5 -12.5s-11.167 -3.5 -18.5 -3.5c-17.333 0 -30.5 -6.83301 -39.5 -20.5s-15.5 -35.834 -19.5 -66.501zM693.996 722
c10.667 8 25.167 14.665 43.5 19.998c17.667 5.33301 36.5 8 56.5 8c32 0 55 -6.66699 69 -20s19.667 -30 17 -50c-2 -17.333 -9.16699 -32.666 -21.5 -45.999s-26.833 -24 -43.5 -32l-15 -42h-54l9 75c16 2.66699 27.167 6.83398 33.5 12.501s9.83301 12.167 10.5 19.5
c0.666992 6.66699 -1 12.5 -5 17.5s-10.667 7.5 -20 7.5c-5.33301 0 -10.5 -0.666992 -15.5 -2s-9.5 -3 -13.5 -5s-7.5 -3.66699 -10.5 -5s-5.83301 -2 -8.5 -2c-4 0 -7 1 -9 3s-3.66699 5 -5 9z" />
    <glyph glyph-name="f_lacute.liga" unicode="f&#x13a;" horiz-adv-x="571" 
d="M224 420l-49.0029 -400l-25 -94c-5.33301 -16 -12.833 -28.333 -22.5 -37s-23.5 -13 -41.5 -13h-50l67 544l-37 7c-9.33301 2 -16.666 5.33301 -21.999 10s-7.33301 11 -6 19l6 52h70l2 23c3.33301 27.333 10.5 53.333 21.5 78s25.833 46.667 44.5 66
s41.334 34.5 68.001 45.5s57 16.5 91 16.5c28 0 54.5 -1 79.5 -3s50.5 -3 76.5 -3h69l-90 -731h-120l78 643c-14.667 1.33301 -29 2.83301 -43 4.5s-27.667 2.5 -41 2.5c-33.333 0 -60.166 -10 -80.499 -30s-32.5 -49.667 -36.5 -89l-3 -23h109l-11 -88h-104zM742.997 930
l-164.999 -142c-6.66699 -6 -12.834 -9.83301 -18.501 -11.5s-12.834 -2.5 -21.501 -2.5h-82l112 136c4 4.66699 7.5 8.5 10.5 11.5s6.33301 5.16699 10 6.5s7.83398 2 12.501 2h16h126z" />
    <glyph glyph-name="t_i.liga" unicode="ti" horiz-adv-x="601" 
d="M564 507l-10 -85.0029l-52 -422h-120l52 422h-213l-28 -225c-1.33301 -13.333 -2.5 -24.166 -3.5 -32.499s-1.83301 -14.666 -2.5 -18.999s-1 -7.33301 -1 -9v-4.5c0 -12.667 3 -22.5 9 -29.5s14.667 -10.5 26 -10.5c6.66699 0 12.5 0.833008 17.5 2.5s9.5 3.5 13.5 5.5
s7.33301 3.83301 10 5.5s5.33398 2.5 8.00098 2.5c4 0 7 -0.833008 9 -2.5c2 -1 3.66699 -3.5 5 -7.5l28 -60c-18.667 -14.667 -39.167 -26 -61.5 -34s-44.833 -12 -67.5 -12c-36 0 -64.667 9.83301 -86 29.5c-21.333 19 -32.666 46.5 -33.999 82.5v9
c0 3.33301 0.166992 8 0.5 14s1.16602 14 2.49902 24s3 23 5 39l29 232h-46c-6.66699 0 -12 2.16699 -16 6.5c-4 5 -5.33301 11.5 -4 19.5l6 47l76 13l42 141c2 6.66699 5.16699 11.834 9.5 15.501s10.166 5.5 17.499 5.5h67l-20 -163h332zM607 661.997
c0 -10.667 -2.16895 -20.667 -6.50195 -30s-10.166 -17.333 -17.499 -24s-15.666 -12.167 -24.999 -16.5s-19 -6.5 -29 -6.5c-9.33301 0 -18.666 2.16699 -27.999 6.5s-17.5 9.83301 -24.5 16.5s-12.5 14.667 -16.5 24s-6 19.333 -6 30s2 21 6 31s9.66699 18.5 17 25.5
s15.5 12.667 24.5 17c9.66699 4.33301 19.167 6.5 28.5 6.5c10 0 19.5 -2.16699 28.5 -6.5s17.167 -10 24.5 -17s13.166 -15.5 17.499 -25.5s6.5 -20.333 6.5 -31z" />
    <glyph glyph-name="t_igrave.liga" unicode="t&#xec;" horiz-adv-x="601" 
d="M564 507l-10 -85.0029l-52 -422h-120l52 422h-213l-28 -225c-1.33301 -13.333 -2.5 -24.166 -3.5 -32.499s-1.83301 -14.666 -2.5 -18.999s-1 -7.33301 -1 -9v-4.5c0 -12.667 3 -22.5 9 -29.5s14.667 -10.5 26 -10.5c6.66699 0 12.5 0.833008 17.5 2.5s9.5 3.5 13.5 5.5
s7.33301 3.83301 10 5.5s5.33398 2.5 8.00098 2.5c4 0 7 -0.833008 9 -2.5c2 -1 3.66699 -3.5 5 -7.5l28 -60c-18.667 -14.667 -39.167 -26 -61.5 -34s-44.833 -12 -67.5 -12c-36 0 -64.667 9.83301 -86 29.5c-21.333 19 -32.666 46.5 -33.999 82.5v9
c0 3.33301 0.166992 8 0.5 14s1.16602 14 2.49902 24s3 23 5 39l29 232h-46c-6.66699 0 -12 2.16699 -16 6.5c-4 5 -5.33301 11.5 -4 19.5l6 47l76 13l42 141c2 6.66699 5.16699 11.834 9.5 15.501s10.166 5.5 17.499 5.5h67l-20 -163h332zM483 730.997
c12 0 20.833 -2.16797 26.5 -6.50098c5 -4.33301 9.5 -11.166 13.5 -20.499l52 -121h-64c-8.66699 0 -15.667 1.16699 -21 3.5s-10.333 6.83301 -15 13.5l-99 131h107z" />
    <glyph glyph-name="t_iacute.liga" unicode="t&#xed;" horiz-adv-x="601" 
d="M564 507l-10 -85.0029l-52 -422h-120l52 422h-213l-28 -225c-1.33301 -13.333 -2.5 -24.166 -3.5 -32.499s-1.83301 -14.666 -2.5 -18.999s-1 -7.33301 -1 -9v-4.5c0 -12.667 3 -22.5 9 -29.5s14.667 -10.5 26 -10.5c6.66699 0 12.5 0.833008 17.5 2.5s9.5 3.5 13.5 5.5
s7.33301 3.83301 10 5.5s5.33398 2.5 8.00098 2.5c4 0 7 -0.833008 9 -2.5c2 -1 3.66699 -3.5 5 -7.5l28 -60c-18.667 -14.667 -39.167 -26 -61.5 -34s-44.833 -12 -67.5 -12c-36 0 -64.667 9.83301 -86 29.5c-21.333 19 -32.666 46.5 -33.999 82.5v9
c0 3.33301 0.166992 8 0.5 14s1.16602 14 2.49902 24s3 23 5 39l29 232h-46c-6.66699 0 -12 2.16699 -16 6.5c-4 5 -5.33301 11.5 -4 19.5l6 47l76 13l42 141c2 6.66699 5.16699 11.834 9.5 15.501s10.166 5.5 17.499 5.5h67l-20 -163h332zM692 730.997l-128.999 -131.001
c-6.66699 -6.66699 -12.834 -11.167 -18.501 -13.5s-12.5 -3.5 -20.5 -3.5h-68l78 121c5.33301 8.66699 11.5 15.334 18.5 20.001c7.66699 4.66699 17.5 7 29.5 7h110z" />
    <glyph glyph-name="t_icircumflex.liga" unicode="t&#xee;" horiz-adv-x="600" 
d="M564 507l-10 -85.0029l-52 -422h-120l52 422h-213l-28 -225c-1.33301 -13.333 -2.5 -24.166 -3.5 -32.499s-1.83301 -14.666 -2.5 -18.999s-1 -7.33301 -1 -9v-4.5c0 -12.667 3 -22.5 9 -29.5s14.667 -10.5 26 -10.5c6.66699 0 12.5 0.833008 17.5 2.5s9.5 3.5 13.5 5.5
s7.33301 3.83301 10 5.5s5.33398 2.5 8.00098 2.5c4 0 7 -0.833008 9 -2.5c2 -1 3.66699 -3.5 5 -7.5l28 -60c-18.667 -14.667 -39.167 -26 -61.5 -34s-44.833 -12 -67.5 -12c-36 0 -64.667 9.83301 -86 29.5c-21.333 19 -32.666 46.5 -33.999 82.5v9
c0 3.33301 0.166992 8 0.5 14s1.16602 14 2.49902 24s3 23 5 39l29 232h-46c-6.66699 0 -12 2.16699 -16 6.5c-4 5 -5.33301 11.5 -4 19.5l6 47l76 13l42 141c2 6.66699 5.16699 11.834 9.5 15.501s10.166 5.5 17.499 5.5h67l-20 -163h332zM678 583.997h-76.002
c-4 0 -8 1 -12 3s-8 5 -12 9l-40 52c-1.33301 1.33301 -2.66602 3.16602 -3.99902 5.49902c-1.33301 1.66699 -2.66602 3.83398 -3.99902 6.50098c-1.33301 -2.66699 -3 -4.83398 -5 -6.50098c-2 -2.33301 -4 -4.16602 -6 -5.49902l-51 -52c-4 -4 -8.5 -7 -13.5 -9
s-9.83301 -3 -14.5 -3h-79l121 139h107z" />
    <glyph glyph-name="t_idieresis.liga" unicode="t&#xef;" horiz-adv-x="600" 
d="M564 507l-10 -85.0029l-52 -422h-120l52 422h-213l-28 -225c-1.33301 -13.333 -2.5 -24.166 -3.5 -32.499s-1.83301 -14.666 -2.5 -18.999s-1 -7.33301 -1 -9v-4.5c0 -12.667 3 -22.5 9 -29.5s14.667 -10.5 26 -10.5c6.66699 0 12.5 0.833008 17.5 2.5s9.5 3.5 13.5 5.5
s7.33301 3.83301 10 5.5s5.33398 2.5 8.00098 2.5c4 0 7 -0.833008 9 -2.5c2 -1 3.66699 -3.5 5 -7.5l28 -60c-18.667 -14.667 -39.167 -26 -61.5 -34s-44.833 -12 -67.5 -12c-36 0 -64.667 9.83301 -86 29.5c-21.333 19 -32.666 46.5 -33.999 82.5v9
c0 3.33301 0.166992 8 0.5 14s1.16602 14 2.49902 24s3 23 5 39l29 232h-46c-6.66699 0 -12 2.16699 -16 6.5c-4 5 -5.33301 11.5 -4 19.5l6 47l76 13l42 141c2 6.66699 5.16699 11.834 9.5 15.501s10.166 5.5 17.499 5.5h67l-20 -163h332zM526 645.997
c0 -9.33301 -1.83301 -18 -5.5 -26s-8.66699 -15 -15 -21s-13.833 -10.833 -22.5 -14.5s-17.667 -5.5 -27 -5.5s-18 1.83301 -26 5.5s-15.167 8.5 -21.5 14.5s-11.333 13 -15 21s-5.5 16.667 -5.5 26s1.83301 18.333 5.5 27s8.66699 16.167 15 22.5s13.5 11.333 21.5 15
s16.667 5.5 26 5.5s18.333 -1.83301 27 -5.5s16.167 -8.66699 22.5 -15s11.333 -13.833 15 -22.5s5.5 -17.667 5.5 -27zM686 645.997c0 -9.33301 -1.83301 -18 -5.5 -26s-8.66699 -15 -15 -21s-13.833 -10.833 -22.5 -14.5s-17.667 -5.5 -27 -5.5s-18 1.83301 -26 5.5
s-15.167 8.5 -21.5 14.5s-11.333 13 -15 21s-5.5 16.667 -5.5 26s1.83301 18.333 5.5 27s8.66699 16.167 15 22.5s13.5 11.333 21.5 15s16.667 5.5 26 5.5s18.333 -1.83301 27 -5.5s16.167 -8.66699 22.5 -15s11.333 -13.833 15 -22.5s5.5 -17.667 5.5 -27z" />
    <glyph glyph-name="t_imacron.liga" unicode="t&#x12b;" horiz-adv-x="601" 
d="M564 507l-10 -85.0029l-52 -422h-120l52 422h-213l-28 -225c-1.33301 -13.333 -2.5 -24.166 -3.5 -32.499s-1.83301 -14.666 -2.5 -18.999s-1 -7.33301 -1 -9v-4.5c0 -12.667 3 -22.5 9 -29.5s14.667 -10.5 26 -10.5c6.66699 0 12.5 0.833008 17.5 2.5s9.5 3.5 13.5 5.5
s7.33301 3.83301 10 5.5s5.33398 2.5 8.00098 2.5c4 0 7 -0.833008 9 -2.5c2 -1 3.66699 -3.5 5 -7.5l28 -60c-18.667 -14.667 -39.167 -26 -61.5 -34s-44.833 -12 -67.5 -12c-36 0 -64.667 9.83301 -86 29.5c-21.333 19 -32.666 46.5 -33.999 82.5v9
c0 3.33301 0.166992 8 0.5 14s1.16602 14 2.49902 24s3 23 5 39l29 232h-46c-6.66699 0 -12 2.16699 -16 6.5c-4 5 -5.33301 11.5 -4 19.5l6 47l76 13l42 141c2 6.66699 5.16699 11.834 9.5 15.501s10.166 5.5 17.499 5.5h67l-20 -163h332zM392 685.997h275l-9 -79h-275z
" />
    <glyph glyph-name="t_itilde.liga" unicode="t&#x129;" horiz-adv-x="601" 
d="M564 507l-10 -85.0029l-52 -422h-120l52 422h-213l-28 -225c-1.33301 -13.333 -2.5 -24.166 -3.5 -32.499s-1.83301 -14.666 -2.5 -18.999s-1 -7.33301 -1 -9v-4.5c0 -12.667 3 -22.5 9 -29.5s14.667 -10.5 26 -10.5c6.66699 0 12.5 0.833008 17.5 2.5s9.5 3.5 13.5 5.5
s7.33301 3.83301 10 5.5s5.33398 2.5 8.00098 2.5c4 0 7 -0.833008 9 -2.5c2 -1 3.66699 -3.5 5 -7.5l28 -60c-18.667 -14.667 -39.167 -26 -61.5 -34s-44.833 -12 -67.5 -12c-36 0 -64.667 9.83301 -86 29.5c-21.333 19 -32.666 46.5 -33.999 82.5v9
c0 3.33301 0.166992 8 0.5 14s1.16602 14 2.49902 24s3 23 5 39l29 232h-46c-6.66699 0 -12 2.16699 -16 6.5c-4 5 -5.33301 11.5 -4 19.5l6 47l76 13l42 141c2 6.66699 5.16699 11.834 9.5 15.501s10.166 5.5 17.499 5.5h67l-20 -163h332zM580 679.997
c9.33301 0 16.8301 2.66797 22.4971 8.00098c6.33301 5.33301 10.166 15.333 11.499 30h69c-2.66699 -18.667 -7.16699 -35.667 -13.5 -51s-14.166 -28.333 -23.499 -39s-20.166 -19 -32.499 -25c-13 -6 -26.167 -9 -39.5 -9c-10.667 0 -20.667 2.16699 -30 6.5
s-17.666 9 -24.999 14s-14.5 9.66699 -21.5 14s-13.5 6.5 -19.5 6.5c-9.33301 0 -16.666 -2.83301 -21.999 -8.5s-9 -15.834 -11 -30.501h-70c2 18.667 6.33301 35.667 13 51s14.834 28.333 24.501 39s20.667 19 33 25s25.166 9 38.499 9c10.667 0 20.667 -2 30 -6
s18 -8.66699 26 -14s15.167 -10 21.5 -14s12.5 -6 18.5 -6z" />
    <glyph glyph-name="t_ibreve.liga" unicode="t&#x12d;" horiz-adv-x="601" 
d="M564 507l-10 -85.0029l-52 -422h-120l52 422h-213l-28 -225c-1.33301 -13.333 -2.5 -24.166 -3.5 -32.499s-1.83301 -14.666 -2.5 -18.999s-1 -7.33301 -1 -9v-4.5c0 -12.667 3 -22.5 9 -29.5s14.667 -10.5 26 -10.5c6.66699 0 12.5 0.833008 17.5 2.5s9.5 3.5 13.5 5.5
s7.33301 3.83301 10 5.5s5.33398 2.5 8.00098 2.5c4 0 7 -0.833008 9 -2.5c2 -1 3.66699 -3.5 5 -7.5l28 -60c-18.667 -14.667 -39.167 -26 -61.5 -34s-44.833 -12 -67.5 -12c-36 0 -64.667 9.83301 -86 29.5c-21.333 19 -32.666 46.5 -33.999 82.5v9
c0 3.33301 0.166992 8 0.5 14s1.16602 14 2.49902 24s3 23 5 39l29 232h-46c-6.66699 0 -12 2.16699 -16 6.5c-4 5 -5.33301 11.5 -4 19.5l6 47l76 13l42 141c2 6.66699 5.16699 11.834 9.5 15.501s10.166 5.5 17.499 5.5h67l-20 -163h332zM520 579.997
c-26.667 0 -48.334 3.83301 -65.001 11.5s-29.667 18 -39 31s-15.333 28.167 -18 45.5s-3.33398 35.666 -2.00098 54.999h80c-1.33301 -10 -1.5 -19 -0.5 -27s3.33301 -14.667 7 -20s9.16699 -9.66602 16.5 -12.999s17 -5 29 -5s22 1.66699 30 5s14.5 7.66602 19.5 12.999
s8.83301 12 11.5 20s4.66699 17 6 27h79c-2 -19.333 -6.16699 -37.666 -12.5 -54.999s-15.666 -32.5 -27.999 -45.5s-27.666 -23.333 -45.999 -31s-40.833 -11.5 -67.5 -11.5z" />
    <glyph glyph-name="t_uni01D0.liga" unicode="t&#x1d0;" horiz-adv-x="600" 
d="M564 507l-10 -85.0029l-52 -422h-120l52 422h-213l-28 -225c-1.33301 -13.333 -2.5 -24.166 -3.5 -32.499s-1.83301 -14.666 -2.5 -18.999s-1 -7.33301 -1 -9v-4.5c0 -12.667 3 -22.5 9 -29.5s14.667 -10.5 26 -10.5c6.66699 0 12.5 0.833008 17.5 2.5s9.5 3.5 13.5 5.5
s7.33301 3.83301 10 5.5s5.33398 2.5 8.00098 2.5c4 0 7 -0.833008 9 -2.5c2 -1 3.66699 -3.5 5 -7.5l28 -60c-18.667 -14.667 -39.167 -26 -61.5 -34s-44.833 -12 -67.5 -12c-36 0 -64.667 9.83301 -86 29.5c-21.333 19 -32.666 46.5 -33.999 82.5v9
c0 3.33301 0.166992 8 0.5 14s1.16602 14 2.49902 24s3 23 5 39l29 232h-46c-6.66699 0 -12 2.16699 -16 6.5c-4 5 -5.33301 11.5 -4 19.5l6 47l76 13l42 141c2 6.66699 5.16699 11.834 9.5 15.501s10.166 5.5 17.499 5.5h67l-20 -163h332zM565 583.997
l-107.004 0.000976562l-89 139h79c4.66699 0 8.83398 -0.833008 12.501 -2.5s6.83398 -3.83398 9.50098 -6.50098l42 -55l8 -13c2 2.66699 3.83301 5 5.5 7s3.83398 4 6.50098 6l54 55c2.66699 2 6.33398 4 11.001 6s9 3 13 3h76z" />
    <glyph glyph-name="t_uni1E2D.liga" unicode="t&#x1e2d;" horiz-adv-x="601" 
d="M564 507l-10 -85.0029l-52 -422h-120l52 422h-213l-28 -225c-1.33301 -13.333 -2.5 -24.166 -3.5 -32.499s-1.83301 -14.666 -2.5 -18.999s-1 -7.33301 -1 -9v-4.5c0 -12.667 3 -22.5 9 -29.5s14.667 -10.5 26 -10.5c6.66699 0 12.5 0.833008 17.5 2.5s9.5 3.5 13.5 5.5
s7.33301 3.83301 10 5.5s5.33398 2.5 8.00098 2.5c4 0 7 -0.833008 9 -2.5c2 -1 3.66699 -3.5 5 -7.5l28 -60c-18.667 -14.667 -39.167 -26 -61.5 -34s-44.833 -12 -67.5 -12c-36 0 -64.667 9.83301 -86 29.5c-21.333 19 -32.666 46.5 -33.999 82.5v9
c0 3.33301 0.166992 8 0.5 14s1.16602 14 2.49902 24s3 23 5 39l29 232h-46c-6.66699 0 -12 2.16699 -16 6.5c-4 5 -5.33301 11.5 -4 19.5l6 47l76 13l42 141c2 6.66699 5.16699 11.834 9.5 15.501s10.166 5.5 17.499 5.5h67l-20 -163h332zM595 661.997
c0 -10.667 -2.16895 -20.667 -6.50195 -30s-10.166 -17.333 -17.499 -24s-15.666 -12.167 -24.999 -16.5s-19 -6.5 -29 -6.5c-9.33301 0 -18.666 2.16699 -27.999 6.5s-17.5 9.83301 -24.5 16.5s-12.5 14.667 -16.5 24s-6 19.333 -6 30s2 21 6 31s9.66699 18.5 17 25.5
s15.5 12.667 24.5 17c9.66699 4.33301 19.167 6.5 28.5 6.5c10 0 19.5 -2.16699 28.5 -6.5s17.167 -10 24.5 -17s13.166 -15.5 17.499 -25.5s6.5 -20.333 6.5 -31zM467.998 -76.0029c9.33301 0 16.8301 2.66797 22.4971 8.00098c6.33301 5.33301 10.166 15.333 11.499 30h69
c-2.66699 -18.667 -7.16699 -35.667 -13.5 -51s-14.166 -28.333 -23.499 -39s-20.166 -19 -32.499 -25c-13 -6 -26.167 -9 -39.5 -9c-10.667 0 -20.667 2.16699 -30 6.5s-17.666 9 -24.999 14s-14.5 9.66699 -21.5 14s-13.5 6.5 -19.5 6.5
c-9.33301 0 -16.666 -2.83301 -21.999 -8.5s-9 -15.834 -11 -30.501h-70c2 18.667 6.33301 35.667 13 51s14.834 28.333 24.501 39s20.667 19 33 25s25.166 9 38.499 9c10.667 0 20.667 -2 30 -6s18 -8.66699 26 -14s15.167 -10 21.5 -14s12.5 -6 18.5 -6z" />
    <glyph glyph-name="t_uni1E2F.liga" unicode="t&#x1e2f;" horiz-adv-x="600" 
d="M564 507l-10 -85.0029l-52 -422h-120l52 422h-213l-28 -225c-1.33301 -13.333 -2.5 -24.166 -3.5 -32.499s-1.83301 -14.666 -2.5 -18.999s-1 -7.33301 -1 -9v-4.5c0 -12.667 3 -22.5 9 -29.5s14.667 -10.5 26 -10.5c6.66699 0 12.5 0.833008 17.5 2.5s9.5 3.5 13.5 5.5
s7.33301 3.83301 10 5.5s5.33398 2.5 8.00098 2.5c4 0 7 -0.833008 9 -2.5c2 -1 3.66699 -3.5 5 -7.5l28 -60c-18.667 -14.667 -39.167 -26 -61.5 -34s-44.833 -12 -67.5 -12c-36 0 -64.667 9.83301 -86 29.5c-21.333 19 -32.666 46.5 -33.999 82.5v9
c0 3.33301 0.166992 8 0.5 14s1.16602 14 2.49902 24s3 23 5 39l29 232h-46c-6.66699 0 -12 2.16699 -16 6.5c-4 5 -5.33301 11.5 -4 19.5l6 47l76 13l42 141c2 6.66699 5.16699 11.834 9.5 15.501s10.166 5.5 17.499 5.5h67l-20 -163h332zM716 891.997l-128.999 -131.001
c-6.66699 -6.66699 -12.834 -11.167 -18.501 -13.5s-12.5 -3.5 -20.5 -3.5h-68l78 121c5.33301 8.66699 11.5 15.334 18.5 20.001c7.66699 4.66699 17.5 7 29.5 7h110zM495.001 645.996c0 -9.33301 -1.83203 -18 -5.49902 -26s-8.83398 -15 -15.501 -21
s-14.167 -10.833 -22.5 -14.5s-17.166 -5.5 -26.499 -5.5s-18 1.83301 -26 5.5s-15.167 8.5 -21.5 14.5s-11.333 13 -15 21s-5.5 16.667 -5.5 26s1.83301 18.333 5.5 27s8.66699 16.167 15 22.5s13.666 11.333 21.999 15s16.833 5.5 25.5 5.5
c9.33301 0 18.166 -1.83301 26.499 -5.5s15.833 -8.66699 22.5 -15s11.834 -13.833 15.501 -22.5s5.5 -17.667 5.5 -27zM687.002 645.996c0 -9.33301 -1.83301 -18 -5.5 -26s-8.5 -15 -14.5 -21s-13.333 -10.833 -22 -14.5s-17.667 -5.5 -27 -5.5
s-18.166 1.83301 -26.499 5.5s-15.666 8.5 -21.999 14.5s-11.166 13 -14.499 21s-5 16.667 -5 26s1.66699 18.333 5 27s8.16602 16.167 14.499 22.5s13.666 11.333 21.999 15s17.166 5.5 26.499 5.5s18.333 -1.83301 27 -5.5s16 -8.66699 22 -15s10.833 -13.833 14.5 -22.5
s5.5 -17.667 5.5 -27z" />
    <glyph glyph-name="t_uni0268.liga" unicode="t&#x268;" horiz-adv-x="618" 
d="M418 286l16 135.997h-213l-28 -225c-1.33301 -13.333 -2.5 -24.166 -3.5 -32.499s-1.83301 -14.666 -2.5 -18.999s-1 -7.33301 -1 -9v-4.5c0 -12.667 3 -22.5 9 -29.5s14.667 -10.5 26 -10.5c6.66699 0 12.5 0.833008 17.5 2.5s9.5 3.5 13.5 5.5s7.33301 3.83301 10 5.5
s5.33398 2.5 8.00098 2.5c4 0 7 -0.833008 9 -2.5c2 -1 3.66699 -3.5 5 -7.5l28 -60c-18.667 -14.667 -39.167 -26 -61.5 -34s-44.833 -12 -67.5 -12c-36 0 -64.667 9.83301 -86 29.5c-21.333 19 -32.666 46.5 -33.999 82.5v9c0 3.33301 0.166992 8 0.5 14
s1.16602 14 2.49902 24s3 23 5 39l29 232h-46c-6.66699 0 -12 2.16699 -16 6.5c-4 5 -5.33301 11.5 -4 19.5l6 47l76 13l42 141c2 6.66699 5.16699 11.834 9.5 15.501s10.166 5.5 17.499 5.5h67l-20 -163h332l-10 -85l-18 -136h66l-11 -84h-65l-24 -202h-120l25 202h-61
l10 84h62zM598 661.997c0 -10.667 -2.33594 -20.667 -7.00293 -30s-10.667 -17.333 -18 -24s-15.666 -12.167 -24.999 -16.5s-18.666 -6.5 -27.999 -6.5s-18.666 2.16699 -27.999 6.5s-17.666 9.83301 -24.999 16.5s-13 14.667 -17 24s-6 19.333 -6 30s2.16699 21 6.5 31
s10 18.5 17 25.5s15.167 12.667 24.5 17s18.666 6.5 27.999 6.5c10 0 19.667 -2.16699 29 -6.5s17.5 -10 24.5 -17s12.833 -15.5 17.5 -25.5s7 -20.333 7 -31z" />
    <glyph glyph-name="t_uni020B.liga" unicode="t&#x20b;" horiz-adv-x="601" 
d="M564 507l-10 -85.0029l-52 -422h-120l52 422h-213l-28 -225c-1.33301 -13.333 -2.5 -24.166 -3.5 -32.499s-1.83301 -14.666 -2.5 -18.999s-1 -7.33301 -1 -9v-4.5c0 -12.667 3 -22.5 9 -29.5s14.667 -10.5 26 -10.5c6.66699 0 12.5 0.833008 17.5 2.5s9.5 3.5 13.5 5.5
s7.33301 3.83301 10 5.5s5.33398 2.5 8.00098 2.5c4 0 7 -0.833008 9 -2.5c2 -1 3.66699 -3.5 5 -7.5l28 -60c-18.667 -14.667 -39.167 -26 -61.5 -34s-44.833 -12 -67.5 -12c-36 0 -64.667 9.83301 -86 29.5c-21.333 19 -32.666 46.5 -33.999 82.5v9
c0 3.33301 0.166992 8 0.5 14s1.16602 14 2.49902 24s3 23 5 39l29 232h-46c-6.66699 0 -12 2.16699 -16 6.5c-4 5 -5.33301 11.5 -4 19.5l6 47l76 13l42 141c2 6.66699 5.16699 11.834 9.5 15.501s10.166 5.5 17.499 5.5h67l-20 -163h332zM528 729.997
c26.667 0 48.3359 -3.66699 65.0029 -11s29.667 -17.5 39 -30.5s15.333 -28.167 18 -45.5s3 -35.666 1 -54.999h-79c1.33301 10 1.5 19 0.5 27s-3.33301 14.833 -7 20.5s-9.16699 10 -16.5 13s-17 4.5 -29 4.5s-22 -1.5 -30 -4.5s-14.667 -7.33301 -20 -13
s-9.33301 -12.5 -12 -20.5s-4.33398 -17 -5.00098 -27h-79c2 19.333 6.16699 37.666 12.5 54.999s15.666 32.5 27.999 45.5s27.666 23.167 45.999 30.5s40.833 11 67.5 11z" />
    <glyph glyph-name="t_uni0209.liga" unicode="t&#x209;" horiz-adv-x="601" 
d="M564 507l-10 -85.0029l-52 -422h-120l52 422h-213l-28 -225c-1.33301 -13.333 -2.5 -24.166 -3.5 -32.499s-1.83301 -14.666 -2.5 -18.999s-1 -7.33301 -1 -9v-4.5c0 -12.667 3 -22.5 9 -29.5s14.667 -10.5 26 -10.5c6.66699 0 12.5 0.833008 17.5 2.5s9.5 3.5 13.5 5.5
s7.33301 3.83301 10 5.5s5.33398 2.5 8.00098 2.5c4 0 7 -0.833008 9 -2.5c2 -1 3.66699 -3.5 5 -7.5l28 -60c-18.667 -14.667 -39.167 -26 -61.5 -34s-44.833 -12 -67.5 -12c-36 0 -64.667 9.83301 -86 29.5c-21.333 19 -32.666 46.5 -33.999 82.5v9
c0 3.33301 0.166992 8 0.5 14s1.16602 14 2.49902 24s3 23 5 39l29 232h-46c-6.66699 0 -12 2.16699 -16 6.5c-4 5 -5.33301 11.5 -4 19.5l6 47l76 13l42 141c2 6.66699 5.16699 11.834 9.5 15.501s10.166 5.5 17.499 5.5h67l-20 -163h332zM542 730.997
c12 0 21 -2.16797 27 -6.50098s10.333 -11.166 13 -20.499l45 -121h-47c-8.66699 0 -15.667 1.16699 -21 3.5s-10 6.83301 -14 13.5l-77 131h74zM390 730.996c12 0 20.667 -2.16797 26 -6.50098s10 -11.166 14 -20.499l68 -121h-54c-8.66699 0 -15.5 1.16699 -20.5 3.5
s-10.167 6.83301 -15.5 13.5l-100 131h82z" />
    <glyph glyph-name="t_t_i.liga" unicode="tti" horiz-adv-x="897" 
d="M860 507l-62.0029 -507.006h-118l51 422h-204l-28 -225c-1.33301 -13.333 -2.5 -24.166 -3.5 -32.499s-1.83301 -14.666 -2.5 -18.999s-1 -7.33301 -1 -9v-4.5c0 -12.667 3 -22.5 9 -29.5s15 -10.5 27 -10.5c6.66699 0 12.334 0.833008 17.001 2.5s9 3.5 13 5.5
s7.33301 3.83301 10 5.5s5.33398 2.5 8.00098 2.5c4 0 7 -0.833008 9 -2.5c2 -1 3.66699 -3.5 5 -7.5l28 -60c-18.667 -14.667 -39.167 -26 -61.5 -34s-44.833 -12 -67.5 -12c-36 0 -64.667 9.83301 -86 29.5c-21.333 19 -32.666 46.5 -33.999 82.5
c0 2.66699 0.166992 5.66699 0.5 9s0.666016 8 0.999023 14s1 14 2 24s2.5 23 4.5 39l29 232h-185l-28 -225c-1.33301 -13.333 -2.5 -24.166 -3.5 -32.499s-1.83301 -14.666 -2.5 -18.999s-1 -7.33301 -1 -9v-4.5c0 -12.667 3 -22.5 9 -29.5s14.667 -10.5 26 -10.5
c6.66699 0 12.5 0.833008 17.5 2.5s9.5 3.5 13.5 5.5s7.33301 3.83301 10 5.5s5.33398 2.5 8.00098 2.5c4 0 7 -0.833008 9 -2.5c2 -1 3.66699 -3.5 5 -7.5l28 -60c-18.667 -14.667 -39.167 -26 -61.5 -34s-44.833 -12 -67.5 -12c-36 0 -64.667 9.83301 -86 29.5
c-21.333 19 -32.666 46.5 -33.999 82.5v9c0 3.33301 0.166992 8 0.5 14s1.16602 14 2.49902 24s3 23 5 39l29 232h-46c-6.66699 0 -12 2.16699 -16 6.5c-4 5 -5.33301 11.5 -4 19.5l6 47l76 13l42 141c2 6.66699 5.16699 11.834 9.5 15.501s10.166 5.5 17.499 5.5h67
l-20 -163h190l42 142c2 6.66699 5.33301 11.834 10 15.501s10.334 5.5 17.001 5.5h67l-20 -163h322zM898.997 661.994c0 -10.667 -2.16895 -20.667 -6.50195 -30s-10.166 -17.333 -17.499 -24s-15.666 -12.167 -24.999 -16.5s-19 -6.5 -29 -6.5
c-9.33301 0 -18.666 2.16699 -27.999 6.5s-17.5 9.83301 -24.5 16.5s-12.5 14.667 -16.5 24s-6 19.333 -6 30s2 21 6 31s9.66699 18.5 17 25.5s15.5 12.667 24.5 17c9.66699 4.33301 19.167 6.5 28.5 6.5c10 0 19.5 -2.16699 28.5 -6.5s17.167 -10 24.5 -17
s13.166 -15.5 17.499 -25.5s6.5 -20.333 6.5 -31z" />
    <glyph glyph-name="t_t_igrave.liga" unicode="tt&#xec;" horiz-adv-x="897" 
d="M860 507l-62.0029 -507.006h-118l51 422h-204l-28 -225c-1.33301 -13.333 -2.5 -24.166 -3.5 -32.499s-1.83301 -14.666 -2.5 -18.999s-1 -7.33301 -1 -9v-4.5c0 -12.667 3 -22.5 9 -29.5s15 -10.5 27 -10.5c6.66699 0 12.334 0.833008 17.001 2.5s9 3.5 13 5.5
s7.33301 3.83301 10 5.5s5.33398 2.5 8.00098 2.5c4 0 7 -0.833008 9 -2.5c2 -1 3.66699 -3.5 5 -7.5l28 -60c-18.667 -14.667 -39.167 -26 -61.5 -34s-44.833 -12 -67.5 -12c-36 0 -64.667 9.83301 -86 29.5c-21.333 19 -32.666 46.5 -33.999 82.5
c0 2.66699 0.166992 5.66699 0.5 9s0.666016 8 0.999023 14s1 14 2 24s2.5 23 4.5 39l29 232h-185l-28 -225c-1.33301 -13.333 -2.5 -24.166 -3.5 -32.499s-1.83301 -14.666 -2.5 -18.999s-1 -7.33301 -1 -9v-4.5c0 -12.667 3 -22.5 9 -29.5s14.667 -10.5 26 -10.5
c6.66699 0 12.5 0.833008 17.5 2.5s9.5 3.5 13.5 5.5s7.33301 3.83301 10 5.5s5.33398 2.5 8.00098 2.5c4 0 7 -0.833008 9 -2.5c2 -1 3.66699 -3.5 5 -7.5l28 -60c-18.667 -14.667 -39.167 -26 -61.5 -34s-44.833 -12 -67.5 -12c-36 0 -64.667 9.83301 -86 29.5
c-21.333 19 -32.666 46.5 -33.999 82.5v9c0 3.33301 0.166992 8 0.5 14s1.16602 14 2.49902 24s3 23 5 39l29 232h-46c-6.66699 0 -12 2.16699 -16 6.5c-4 5 -5.33301 11.5 -4 19.5l6 47l76 13l42 141c2 6.66699 5.16699 11.834 9.5 15.501s10.166 5.5 17.499 5.5h67
l-20 -163h190l42 142c2 6.66699 5.33301 11.834 10 15.501s10.334 5.5 17.001 5.5h67l-20 -163h322zM775.997 730.994c12 0 20.833 -2.16797 26.5 -6.50098c5 -4.33301 9.5 -11.166 13.5 -20.499l52 -121h-64c-8.66699 0 -15.667 1.16699 -21 3.5s-10.333 6.83301 -15 13.5
l-99 131h107z" />
    <glyph glyph-name="t_t_iacute.liga" unicode="tt&#xed;" horiz-adv-x="897" 
d="M860 507l-62.0029 -507.006h-118l51 422h-204l-28 -225c-1.33301 -13.333 -2.5 -24.166 -3.5 -32.499s-1.83301 -14.666 -2.5 -18.999s-1 -7.33301 -1 -9v-4.5c0 -12.667 3 -22.5 9 -29.5s15 -10.5 27 -10.5c6.66699 0 12.334 0.833008 17.001 2.5s9 3.5 13 5.5
s7.33301 3.83301 10 5.5s5.33398 2.5 8.00098 2.5c4 0 7 -0.833008 9 -2.5c2 -1 3.66699 -3.5 5 -7.5l28 -60c-18.667 -14.667 -39.167 -26 -61.5 -34s-44.833 -12 -67.5 -12c-36 0 -64.667 9.83301 -86 29.5c-21.333 19 -32.666 46.5 -33.999 82.5
c0 2.66699 0.166992 5.66699 0.5 9s0.666016 8 0.999023 14s1 14 2 24s2.5 23 4.5 39l29 232h-185l-28 -225c-1.33301 -13.333 -2.5 -24.166 -3.5 -32.499s-1.83301 -14.666 -2.5 -18.999s-1 -7.33301 -1 -9v-4.5c0 -12.667 3 -22.5 9 -29.5s14.667 -10.5 26 -10.5
c6.66699 0 12.5 0.833008 17.5 2.5s9.5 3.5 13.5 5.5s7.33301 3.83301 10 5.5s5.33398 2.5 8.00098 2.5c4 0 7 -0.833008 9 -2.5c2 -1 3.66699 -3.5 5 -7.5l28 -60c-18.667 -14.667 -39.167 -26 -61.5 -34s-44.833 -12 -67.5 -12c-36 0 -64.667 9.83301 -86 29.5
c-21.333 19 -32.666 46.5 -33.999 82.5v9c0 3.33301 0.166992 8 0.5 14s1.16602 14 2.49902 24s3 23 5 39l29 232h-46c-6.66699 0 -12 2.16699 -16 6.5c-4 5 -5.33301 11.5 -4 19.5l6 47l76 13l42 141c2 6.66699 5.16699 11.834 9.5 15.501s10.166 5.5 17.499 5.5h67
l-20 -163h190l42 142c2 6.66699 5.33301 11.834 10 15.501s10.334 5.5 17.001 5.5h67l-20 -163h322zM986.997 730.994l-128.999 -131.001c-6.66699 -6.66699 -12.834 -11.167 -18.501 -13.5s-12.5 -3.5 -20.5 -3.5h-68l78 121c5.33301 8.66699 11.5 15.334 18.5 20.001
c7.66699 4.66699 17.5 7 29.5 7h110z" />
    <glyph glyph-name="t_t_icircumflex.liga" unicode="tt&#xee;" horiz-adv-x="897" 
d="M860 507l-62.0029 -507.006h-118l51 422h-204l-28 -225c-1.33301 -13.333 -2.5 -24.166 -3.5 -32.499s-1.83301 -14.666 -2.5 -18.999s-1 -7.33301 -1 -9v-4.5c0 -12.667 3 -22.5 9 -29.5s15 -10.5 27 -10.5c6.66699 0 12.334 0.833008 17.001 2.5s9 3.5 13 5.5
s7.33301 3.83301 10 5.5s5.33398 2.5 8.00098 2.5c4 0 7 -0.833008 9 -2.5c2 -1 3.66699 -3.5 5 -7.5l28 -60c-18.667 -14.667 -39.167 -26 -61.5 -34s-44.833 -12 -67.5 -12c-36 0 -64.667 9.83301 -86 29.5c-21.333 19 -32.666 46.5 -33.999 82.5
c0 2.66699 0.166992 5.66699 0.5 9s0.666016 8 0.999023 14s1 14 2 24s2.5 23 4.5 39l29 232h-185l-28 -225c-1.33301 -13.333 -2.5 -24.166 -3.5 -32.499s-1.83301 -14.666 -2.5 -18.999s-1 -7.33301 -1 -9v-4.5c0 -12.667 3 -22.5 9 -29.5s14.667 -10.5 26 -10.5
c6.66699 0 12.5 0.833008 17.5 2.5s9.5 3.5 13.5 5.5s7.33301 3.83301 10 5.5s5.33398 2.5 8.00098 2.5c4 0 7 -0.833008 9 -2.5c2 -1 3.66699 -3.5 5 -7.5l28 -60c-18.667 -14.667 -39.167 -26 -61.5 -34s-44.833 -12 -67.5 -12c-36 0 -64.667 9.83301 -86 29.5
c-21.333 19 -32.666 46.5 -33.999 82.5v9c0 3.33301 0.166992 8 0.5 14s1.16602 14 2.49902 24s3 23 5 39l29 232h-46c-6.66699 0 -12 2.16699 -16 6.5c-4 5 -5.33301 11.5 -4 19.5l6 47l76 13l42 141c2 6.66699 5.16699 11.834 9.5 15.501s10.166 5.5 17.499 5.5h67
l-20 -163h190l42 142c2 6.66699 5.33301 11.834 10 15.501s10.334 5.5 17.001 5.5h67l-20 -163h322zM969.997 583.994h-76.002c-4 0 -8 1 -12 3s-8 5 -12 9l-40 52c-1.33301 1.33301 -2.66602 3.16602 -3.99902 5.49902c-1.33301 1.66699 -2.66602 3.83398 -3.99902 6.50098
c-1.33301 -2.66699 -3 -4.83398 -5 -6.50098c-2 -2.33301 -4 -4.16602 -6 -5.49902l-51 -52c-4 -4 -8.5 -7 -13.5 -9s-9.83301 -3 -14.5 -3h-79l121 139h107z" />
    <glyph glyph-name="t_t_idieresis.liga" unicode="tt&#xef;" horiz-adv-x="897" 
d="M860 507l-62.0029 -507.006h-118l51 422h-204l-28 -225c-1.33301 -13.333 -2.5 -24.166 -3.5 -32.499s-1.83301 -14.666 -2.5 -18.999s-1 -7.33301 -1 -9v-4.5c0 -12.667 3 -22.5 9 -29.5s15 -10.5 27 -10.5c6.66699 0 12.334 0.833008 17.001 2.5s9 3.5 13 5.5
s7.33301 3.83301 10 5.5s5.33398 2.5 8.00098 2.5c4 0 7 -0.833008 9 -2.5c2 -1 3.66699 -3.5 5 -7.5l28 -60c-18.667 -14.667 -39.167 -26 -61.5 -34s-44.833 -12 -67.5 -12c-36 0 -64.667 9.83301 -86 29.5c-21.333 19 -32.666 46.5 -33.999 82.5
c0 2.66699 0.166992 5.66699 0.5 9s0.666016 8 0.999023 14s1 14 2 24s2.5 23 4.5 39l29 232h-185l-28 -225c-1.33301 -13.333 -2.5 -24.166 -3.5 -32.499s-1.83301 -14.666 -2.5 -18.999s-1 -7.33301 -1 -9v-4.5c0 -12.667 3 -22.5 9 -29.5s14.667 -10.5 26 -10.5
c6.66699 0 12.5 0.833008 17.5 2.5s9.5 3.5 13.5 5.5s7.33301 3.83301 10 5.5s5.33398 2.5 8.00098 2.5c4 0 7 -0.833008 9 -2.5c2 -1 3.66699 -3.5 5 -7.5l28 -60c-18.667 -14.667 -39.167 -26 -61.5 -34s-44.833 -12 -67.5 -12c-36 0 -64.667 9.83301 -86 29.5
c-21.333 19 -32.666 46.5 -33.999 82.5v9c0 3.33301 0.166992 8 0.5 14s1.16602 14 2.49902 24s3 23 5 39l29 232h-46c-6.66699 0 -12 2.16699 -16 6.5c-4 5 -5.33301 11.5 -4 19.5l6 47l76 13l42 141c2 6.66699 5.16699 11.834 9.5 15.501s10.166 5.5 17.499 5.5h67
l-20 -163h190l42 142c2 6.66699 5.33301 11.834 10 15.501s10.334 5.5 17.001 5.5h67l-20 -163h322zM817.997 645.994c0 -9.33301 -1.83301 -18 -5.5 -26s-8.66699 -15 -15 -21s-13.833 -10.833 -22.5 -14.5s-17.667 -5.5 -27 -5.5s-18 1.83301 -26 5.5
s-15.167 8.5 -21.5 14.5s-11.333 13 -15 21s-5.5 16.667 -5.5 26s1.83301 18.333 5.5 27s8.66699 16.167 15 22.5s13.5 11.333 21.5 15s16.667 5.5 26 5.5s18.333 -1.83301 27 -5.5s16.167 -8.66699 22.5 -15s11.333 -13.833 15 -22.5s5.5 -17.667 5.5 -27zM977.997 645.994
c0 -9.33301 -1.83301 -18 -5.5 -26s-8.66699 -15 -15 -21s-13.833 -10.833 -22.5 -14.5s-17.667 -5.5 -27 -5.5s-18 1.83301 -26 5.5s-15.167 8.5 -21.5 14.5s-11.333 13 -15 21s-5.5 16.667 -5.5 26s1.83301 18.333 5.5 27s8.66699 16.167 15 22.5s13.5 11.333 21.5 15
s16.667 5.5 26 5.5s18.333 -1.83301 27 -5.5s16.167 -8.66699 22.5 -15s11.333 -13.833 15 -22.5s5.5 -17.667 5.5 -27z" />
    <glyph glyph-name="t_t_imacron.liga" unicode="tt&#x12b;" horiz-adv-x="897" 
d="M860 507l-62.0029 -507.006h-118l51 422h-204l-28 -225c-1.33301 -13.333 -2.5 -24.166 -3.5 -32.499s-1.83301 -14.666 -2.5 -18.999s-1 -7.33301 -1 -9v-4.5c0 -12.667 3 -22.5 9 -29.5s15 -10.5 27 -10.5c6.66699 0 12.334 0.833008 17.001 2.5s9 3.5 13 5.5
s7.33301 3.83301 10 5.5s5.33398 2.5 8.00098 2.5c4 0 7 -0.833008 9 -2.5c2 -1 3.66699 -3.5 5 -7.5l28 -60c-18.667 -14.667 -39.167 -26 -61.5 -34s-44.833 -12 -67.5 -12c-36 0 -64.667 9.83301 -86 29.5c-21.333 19 -32.666 46.5 -33.999 82.5
c0 2.66699 0.166992 5.66699 0.5 9s0.666016 8 0.999023 14s1 14 2 24s2.5 23 4.5 39l29 232h-185l-28 -225c-1.33301 -13.333 -2.5 -24.166 -3.5 -32.499s-1.83301 -14.666 -2.5 -18.999s-1 -7.33301 -1 -9v-4.5c0 -12.667 3 -22.5 9 -29.5s14.667 -10.5 26 -10.5
c6.66699 0 12.5 0.833008 17.5 2.5s9.5 3.5 13.5 5.5s7.33301 3.83301 10 5.5s5.33398 2.5 8.00098 2.5c4 0 7 -0.833008 9 -2.5c2 -1 3.66699 -3.5 5 -7.5l28 -60c-18.667 -14.667 -39.167 -26 -61.5 -34s-44.833 -12 -67.5 -12c-36 0 -64.667 9.83301 -86 29.5
c-21.333 19 -32.666 46.5 -33.999 82.5v9c0 3.33301 0.166992 8 0.5 14s1.16602 14 2.49902 24s3 23 5 39l29 232h-46c-6.66699 0 -12 2.16699 -16 6.5c-4 5 -5.33301 11.5 -4 19.5l6 47l76 13l42 141c2 6.66699 5.16699 11.834 9.5 15.501s10.166 5.5 17.499 5.5h67
l-20 -163h190l42 142c2 6.66699 5.33301 11.834 10 15.501s10.334 5.5 17.001 5.5h67l-20 -163h322zM686.997 685.994h275l-9 -79h-275z" />
    <glyph glyph-name="t_t_itilde.liga" unicode="tt&#x129;" horiz-adv-x="897" 
d="M860 507l-62.0029 -507.006h-118l51 422h-204l-28 -225c-1.33301 -13.333 -2.5 -24.166 -3.5 -32.499s-1.83301 -14.666 -2.5 -18.999s-1 -7.33301 -1 -9v-4.5c0 -12.667 3 -22.5 9 -29.5s15 -10.5 27 -10.5c6.66699 0 12.334 0.833008 17.001 2.5s9 3.5 13 5.5
s7.33301 3.83301 10 5.5s5.33398 2.5 8.00098 2.5c4 0 7 -0.833008 9 -2.5c2 -1 3.66699 -3.5 5 -7.5l28 -60c-18.667 -14.667 -39.167 -26 -61.5 -34s-44.833 -12 -67.5 -12c-36 0 -64.667 9.83301 -86 29.5c-21.333 19 -32.666 46.5 -33.999 82.5
c0 2.66699 0.166992 5.66699 0.5 9s0.666016 8 0.999023 14s1 14 2 24s2.5 23 4.5 39l29 232h-185l-28 -225c-1.33301 -13.333 -2.5 -24.166 -3.5 -32.499s-1.83301 -14.666 -2.5 -18.999s-1 -7.33301 -1 -9v-4.5c0 -12.667 3 -22.5 9 -29.5s14.667 -10.5 26 -10.5
c6.66699 0 12.5 0.833008 17.5 2.5s9.5 3.5 13.5 5.5s7.33301 3.83301 10 5.5s5.33398 2.5 8.00098 2.5c4 0 7 -0.833008 9 -2.5c2 -1 3.66699 -3.5 5 -7.5l28 -60c-18.667 -14.667 -39.167 -26 -61.5 -34s-44.833 -12 -67.5 -12c-36 0 -64.667 9.83301 -86 29.5
c-21.333 19 -32.666 46.5 -33.999 82.5v9c0 3.33301 0.166992 8 0.5 14s1.16602 14 2.49902 24s3 23 5 39l29 232h-46c-6.66699 0 -12 2.16699 -16 6.5c-4 5 -5.33301 11.5 -4 19.5l6 47l76 13l42 141c2 6.66699 5.16699 11.834 9.5 15.501s10.166 5.5 17.499 5.5h67
l-20 -163h190l42 142c2 6.66699 5.33301 11.834 10 15.501s10.334 5.5 17.001 5.5h67l-20 -163h322zM871.997 679.994c9.33301 0 16.8301 2.66797 22.4971 8.00098c6.33301 5.33301 10.166 15.333 11.499 30h69c-2.66699 -18.667 -7.16699 -35.667 -13.5 -51
s-14.166 -28.333 -23.499 -39s-20.166 -19 -32.499 -25c-13 -6 -26.167 -9 -39.5 -9c-10.667 0 -20.667 2.16699 -30 6.5s-17.666 9 -24.999 14s-14.5 9.66699 -21.5 14s-13.5 6.5 -19.5 6.5c-9.33301 0 -16.666 -2.83301 -21.999 -8.5s-9 -15.834 -11 -30.501h-70
c2 18.667 6.33301 35.667 13 51s14.834 28.333 24.501 39s20.667 19 33 25s25.166 9 38.499 9c10.667 0 20.667 -2 30 -6s18 -8.66699 26 -14s15.167 -10 21.5 -14s12.5 -6 18.5 -6z" />
    <glyph glyph-name="t_t_ibreve.liga" unicode="tt&#x12d;" horiz-adv-x="897" 
d="M860 507l-62.0029 -507.006h-118l51 422h-204l-28 -225c-1.33301 -13.333 -2.5 -24.166 -3.5 -32.499s-1.83301 -14.666 -2.5 -18.999s-1 -7.33301 -1 -9v-4.5c0 -12.667 3 -22.5 9 -29.5s15 -10.5 27 -10.5c6.66699 0 12.334 0.833008 17.001 2.5s9 3.5 13 5.5
s7.33301 3.83301 10 5.5s5.33398 2.5 8.00098 2.5c4 0 7 -0.833008 9 -2.5c2 -1 3.66699 -3.5 5 -7.5l28 -60c-18.667 -14.667 -39.167 -26 -61.5 -34s-44.833 -12 -67.5 -12c-36 0 -64.667 9.83301 -86 29.5c-21.333 19 -32.666 46.5 -33.999 82.5
c0 2.66699 0.166992 5.66699 0.5 9s0.666016 8 0.999023 14s1 14 2 24s2.5 23 4.5 39l29 232h-185l-28 -225c-1.33301 -13.333 -2.5 -24.166 -3.5 -32.499s-1.83301 -14.666 -2.5 -18.999s-1 -7.33301 -1 -9v-4.5c0 -12.667 3 -22.5 9 -29.5s14.667 -10.5 26 -10.5
c6.66699 0 12.5 0.833008 17.5 2.5s9.5 3.5 13.5 5.5s7.33301 3.83301 10 5.5s5.33398 2.5 8.00098 2.5c4 0 7 -0.833008 9 -2.5c2 -1 3.66699 -3.5 5 -7.5l28 -60c-18.667 -14.667 -39.167 -26 -61.5 -34s-44.833 -12 -67.5 -12c-36 0 -64.667 9.83301 -86 29.5
c-21.333 19 -32.666 46.5 -33.999 82.5v9c0 3.33301 0.166992 8 0.5 14s1.16602 14 2.49902 24s3 23 5 39l29 232h-46c-6.66699 0 -12 2.16699 -16 6.5c-4 5 -5.33301 11.5 -4 19.5l6 47l76 13l42 141c2 6.66699 5.16699 11.834 9.5 15.501s10.166 5.5 17.499 5.5h67
l-20 -163h190l42 142c2 6.66699 5.33301 11.834 10 15.501s10.334 5.5 17.001 5.5h67l-20 -163h322zM819.997 579.994c-26.667 0 -48.334 3.83301 -65.001 11.5s-29.667 18 -39 31s-15.333 28.167 -18 45.5s-3.33398 35.666 -2.00098 54.999h80
c-1.33301 -10 -1.5 -19 -0.5 -27s3.33301 -14.667 7 -20s9.16699 -9.66602 16.5 -12.999s17 -5 29 -5s22 1.66699 30 5s14.5 7.66602 19.5 12.999s8.83301 12 11.5 20s4.66699 17 6 27h79c-2 -19.333 -6.16699 -37.666 -12.5 -54.999s-15.666 -32.5 -27.999 -45.5
s-27.666 -23.333 -45.999 -31s-40.833 -11.5 -67.5 -11.5z" />
    <glyph glyph-name="t_t_uni01D0.liga" unicode="tt&#x1d0;" horiz-adv-x="897" 
d="M860 507l-62.0029 -507.006h-118l51 422h-204l-28 -225c-1.33301 -13.333 -2.5 -24.166 -3.5 -32.499s-1.83301 -14.666 -2.5 -18.999s-1 -7.33301 -1 -9v-4.5c0 -12.667 3 -22.5 9 -29.5s15 -10.5 27 -10.5c6.66699 0 12.334 0.833008 17.001 2.5s9 3.5 13 5.5
s7.33301 3.83301 10 5.5s5.33398 2.5 8.00098 2.5c4 0 7 -0.833008 9 -2.5c2 -1 3.66699 -3.5 5 -7.5l28 -60c-18.667 -14.667 -39.167 -26 -61.5 -34s-44.833 -12 -67.5 -12c-36 0 -64.667 9.83301 -86 29.5c-21.333 19 -32.666 46.5 -33.999 82.5
c0 2.66699 0.166992 5.66699 0.5 9s0.666016 8 0.999023 14s1 14 2 24s2.5 23 4.5 39l29 232h-185l-28 -225c-1.33301 -13.333 -2.5 -24.166 -3.5 -32.499s-1.83301 -14.666 -2.5 -18.999s-1 -7.33301 -1 -9v-4.5c0 -12.667 3 -22.5 9 -29.5s14.667 -10.5 26 -10.5
c6.66699 0 12.5 0.833008 17.5 2.5s9.5 3.5 13.5 5.5s7.33301 3.83301 10 5.5s5.33398 2.5 8.00098 2.5c4 0 7 -0.833008 9 -2.5c2 -1 3.66699 -3.5 5 -7.5l28 -60c-18.667 -14.667 -39.167 -26 -61.5 -34s-44.833 -12 -67.5 -12c-36 0 -64.667 9.83301 -86 29.5
c-21.333 19 -32.666 46.5 -33.999 82.5v9c0 3.33301 0.166992 8 0.5 14s1.16602 14 2.49902 24s3 23 5 39l29 232h-46c-6.66699 0 -12 2.16699 -16 6.5c-4 5 -5.33301 11.5 -4 19.5l6 47l76 13l42 141c2 6.66699 5.16699 11.834 9.5 15.501s10.166 5.5 17.499 5.5h67
l-20 -163h190l42 142c2 6.66699 5.33301 11.834 10 15.501s10.334 5.5 17.001 5.5h67l-20 -163h322zM865.997 583.994l-107.004 0.000976562l-89 139h79c4.66699 0 8.83398 -0.833008 12.501 -2.5s6.83398 -3.83398 9.50098 -6.50098l42 -55l8 -13
c2 2.66699 3.83301 5 5.5 7s3.83398 4 6.50098 6l54 55c2.66699 2 6.33398 4 11.001 6s9 3 13 3h76z" />
    <glyph glyph-name="t_t_uni1E2D.liga" unicode="tt&#x1e2d;" horiz-adv-x="898" 
d="M860 507l-62.0029 -507.006h-118l51 422h-204l-28 -225c-1.33301 -13.333 -2.5 -24.166 -3.5 -32.499s-1.83301 -14.666 -2.5 -18.999s-1 -7.33301 -1 -9v-4.5c0 -12.667 3 -22.5 9 -29.5s15 -10.5 27 -10.5c6.66699 0 12.334 0.833008 17.001 2.5s9 3.5 13 5.5
s7.33301 3.83301 10 5.5s5.33398 2.5 8.00098 2.5c4 0 7 -0.833008 9 -2.5c2 -1 3.66699 -3.5 5 -7.5l28 -60c-18.667 -14.667 -39.167 -26 -61.5 -34s-44.833 -12 -67.5 -12c-36 0 -64.667 9.83301 -86 29.5c-21.333 19 -32.666 46.5 -33.999 82.5
c0 2.66699 0.166992 5.66699 0.5 9s0.666016 8 0.999023 14s1 14 2 24s2.5 23 4.5 39l29 232h-185l-28 -225c-1.33301 -13.333 -2.5 -24.166 -3.5 -32.499s-1.83301 -14.666 -2.5 -18.999s-1 -7.33301 -1 -9v-4.5c0 -12.667 3 -22.5 9 -29.5s14.667 -10.5 26 -10.5
c6.66699 0 12.5 0.833008 17.5 2.5s9.5 3.5 13.5 5.5s7.33301 3.83301 10 5.5s5.33398 2.5 8.00098 2.5c4 0 7 -0.833008 9 -2.5c2 -1 3.66699 -3.5 5 -7.5l28 -60c-18.667 -14.667 -39.167 -26 -61.5 -34s-44.833 -12 -67.5 -12c-36 0 -64.667 9.83301 -86 29.5
c-21.333 19 -32.666 46.5 -33.999 82.5v9c0 3.33301 0.166992 8 0.5 14s1.16602 14 2.49902 24s3 23 5 39l29 232h-46c-6.66699 0 -12 2.16699 -16 6.5c-4 5 -5.33301 11.5 -4 19.5l6 47l76 13l42 141c2 6.66699 5.16699 11.834 9.5 15.501s10.166 5.5 17.499 5.5h67
l-20 -163h190l42 142c2 6.66699 5.33301 11.834 10 15.501s10.334 5.5 17.001 5.5h67l-20 -163h322zM761.997 -76.0059c9.33301 0 16.8301 2.66797 22.4971 8.00098c6.33301 5.33301 10.166 15.333 11.499 30h69c-2.66699 -18.667 -7.16699 -35.667 -13.5 -51
s-14.166 -28.333 -23.499 -39s-20.166 -19 -32.499 -25c-13 -6 -26.167 -9 -39.5 -9c-10.667 0 -20.667 2.16699 -30 6.5s-17.666 9 -24.999 14s-14.5 9.66699 -21.5 14s-13.5 6.5 -19.5 6.5c-9.33301 0 -16.666 -2.83301 -21.999 -8.5s-9 -15.834 -11 -30.501h-70
c2 18.667 6.33301 35.667 13 51s14.834 28.333 24.501 39s20.667 19 33 25s25.166 9 38.499 9c10.667 0 20.667 -2 30 -6s18 -8.66699 26 -14s15.167 -10 21.5 -14s12.5 -6 18.5 -6zM890.994 661.995c0 -10.667 -2.16895 -20.667 -6.50195 -30s-10.166 -17.333 -17.499 -24
s-15.666 -12.167 -24.999 -16.5s-19 -6.5 -29 -6.5c-9.33301 0 -18.666 2.16699 -27.999 6.5s-17.5 9.83301 -24.5 16.5s-12.5 14.667 -16.5 24s-6 19.333 -6 30s2 21 6 31s9.66699 18.5 17 25.5s15.5 12.667 24.5 17c9.66699 4.33301 19.167 6.5 28.5 6.5
c10 0 19.5 -2.16699 28.5 -6.5s17.167 -10 24.5 -17s13.166 -15.5 17.499 -25.5s6.5 -20.333 6.5 -31z" />
    <glyph glyph-name="t_t_uni1E2F.liga" unicode="tt&#x1e2f;" horiz-adv-x="897" 
d="M860 507l-62.0029 -507.006h-118l51 422h-204l-28 -225c-1.33301 -13.333 -2.5 -24.166 -3.5 -32.499s-1.83301 -14.666 -2.5 -18.999s-1 -7.33301 -1 -9v-4.5c0 -12.667 3 -22.5 9 -29.5s15 -10.5 27 -10.5c6.66699 0 12.334 0.833008 17.001 2.5s9 3.5 13 5.5
s7.33301 3.83301 10 5.5s5.33398 2.5 8.00098 2.5c4 0 7 -0.833008 9 -2.5c2 -1 3.66699 -3.5 5 -7.5l28 -60c-18.667 -14.667 -39.167 -26 -61.5 -34s-44.833 -12 -67.5 -12c-36 0 -64.667 9.83301 -86 29.5c-21.333 19 -32.666 46.5 -33.999 82.5
c0 2.66699 0.166992 5.66699 0.5 9s0.666016 8 0.999023 14s1 14 2 24s2.5 23 4.5 39l29 232h-185l-28 -225c-1.33301 -13.333 -2.5 -24.166 -3.5 -32.499s-1.83301 -14.666 -2.5 -18.999s-1 -7.33301 -1 -9v-4.5c0 -12.667 3 -22.5 9 -29.5s14.667 -10.5 26 -10.5
c6.66699 0 12.5 0.833008 17.5 2.5s9.5 3.5 13.5 5.5s7.33301 3.83301 10 5.5s5.33398 2.5 8.00098 2.5c4 0 7 -0.833008 9 -2.5c2 -1 3.66699 -3.5 5 -7.5l28 -60c-18.667 -14.667 -39.167 -26 -61.5 -34s-44.833 -12 -67.5 -12c-36 0 -64.667 9.83301 -86 29.5
c-21.333 19 -32.666 46.5 -33.999 82.5v9c0 3.33301 0.166992 8 0.5 14s1.16602 14 2.49902 24s3 23 5 39l29 232h-46c-6.66699 0 -12 2.16699 -16 6.5c-4 5 -5.33301 11.5 -4 19.5l6 47l76 13l42 141c2 6.66699 5.16699 11.834 9.5 15.501s10.166 5.5 17.499 5.5h67
l-20 -163h190l42 142c2 6.66699 5.33301 11.834 10 15.501s10.334 5.5 17.001 5.5h67l-20 -163h322zM1016 891.994l-128.999 -131.001c-6.66699 -6.66699 -12.834 -11.167 -18.501 -13.5s-12.5 -3.5 -20.5 -3.5h-68l78 121c5.33301 8.66699 11.5 15.334 18.5 20.001
c7.66699 4.66699 17.5 7 29.5 7h110zM794.998 645.993c0 -9.33301 -1.83203 -18 -5.49902 -26s-8.83398 -15 -15.501 -21s-14.167 -10.833 -22.5 -14.5s-17.166 -5.5 -26.499 -5.5s-18 1.83301 -26 5.5s-15.167 8.5 -21.5 14.5s-11.333 13 -15 21s-5.5 16.667 -5.5 26
s1.83301 18.333 5.5 27s8.66699 16.167 15 22.5s13.666 11.333 21.999 15s16.833 5.5 25.5 5.5c9.33301 0 18.166 -1.83301 26.499 -5.5s15.833 -8.66699 22.5 -15s11.834 -13.833 15.501 -22.5s5.5 -17.667 5.5 -27zM986.999 645.993c0 -9.33301 -1.83301 -18 -5.5 -26
s-8.5 -15 -14.5 -21s-13.333 -10.833 -22 -14.5s-17.667 -5.5 -27 -5.5s-18.166 1.83301 -26.499 5.5s-15.666 8.5 -21.999 14.5s-11.166 13 -14.499 21s-5 16.667 -5 26s1.66699 18.333 5 27s8.16602 16.167 14.499 22.5s13.666 11.333 21.999 15s17.166 5.5 26.499 5.5
s18.333 -1.83301 27 -5.5s16 -8.66699 22 -15s10.833 -13.833 14.5 -22.5s5.5 -17.667 5.5 -27z" />
    <glyph glyph-name="t_t_uni0268.liga" unicode="tt&#x268;" horiz-adv-x="914" 
d="M714 286l16.9971 135.994h-204l-28 -225c-1.33301 -13.333 -2.5 -24.166 -3.5 -32.499s-1.83301 -14.666 -2.5 -18.999s-1 -7.33301 -1 -9v-4.5c0 -12.667 3 -22.5 9 -29.5s15 -10.5 27 -10.5c6.66699 0 12.334 0.833008 17.001 2.5s9 3.5 13 5.5s7.33301 3.83301 10 5.5
s5.33398 2.5 8.00098 2.5c4 0 7 -0.833008 9 -2.5c2 -1 3.66699 -3.5 5 -7.5l28 -60c-18.667 -14.667 -39.167 -26 -61.5 -34s-44.833 -12 -67.5 -12c-36 0 -64.667 9.83301 -86 29.5c-21.333 19 -32.666 46.5 -33.999 82.5c0 2.66699 0.166992 5.66699 0.5 9
s0.666016 8 0.999023 14s1 14 2 24s2.5 23 4.5 39l29 232h-185l-28 -225c-1.33301 -13.333 -2.5 -24.166 -3.5 -32.499s-1.83301 -14.666 -2.5 -18.999s-1 -7.33301 -1 -9v-4.5c0 -12.667 3 -22.5 9 -29.5s14.667 -10.5 26 -10.5c6.66699 0 12.5 0.833008 17.5 2.5
s9.5 3.5 13.5 5.5s7.33301 3.83301 10 5.5s5.33398 2.5 8.00098 2.5c4 0 7 -0.833008 9 -2.5c2 -1 3.66699 -3.5 5 -7.5l28 -60c-18.667 -14.667 -39.167 -26 -61.5 -34s-44.833 -12 -67.5 -12c-36 0 -64.667 9.83301 -86 29.5c-21.333 19 -32.666 46.5 -33.999 82.5v9
c0 3.33301 0.166992 8 0.5 14s1.16602 14 2.49902 24s3 23 5 39l29 232h-46c-6.66699 0 -12 2.16699 -16 6.5c-4 5 -5.33301 11.5 -4 19.5l6 47l76 13l42 141c2 6.66699 5.16699 11.834 9.5 15.501s10.166 5.5 17.499 5.5h67l-20 -163h190l42 142
c2 6.66699 5.33301 11.834 10 15.501s10.334 5.5 17.001 5.5h67l-20 -163h322l-26 -221h64l-11 -84h-64l-25 -202h-118l24 202h-62l10 84h62zM891.997 661.994c0 -10.667 -2.33398 -20.667 -7.00098 -30s-10.5 -17.333 -17.5 -24s-15.167 -12.167 -24.5 -16.5
s-19 -6.5 -29 -6.5c-9.33301 0 -18.666 2.16699 -27.999 6.5s-17.5 9.83301 -24.5 16.5s-12.667 14.667 -17 24s-6.5 19.333 -6.5 30s2.33301 21 7 31s10.334 18.5 17.001 25.5s14.667 12.667 24 17s18.666 6.5 27.999 6.5c10 0 19.833 -2.16699 29.5 -6.5s18 -10 25 -17
s12.667 -15.5 17 -25.5s6.5 -20.333 6.5 -31z" />
    <glyph glyph-name="t_t_uni020B.liga" unicode="tt&#x20b;" horiz-adv-x="897" 
d="M860 507l-62.0029 -507.006h-118l51 422h-204l-28 -225c-1.33301 -13.333 -2.5 -24.166 -3.5 -32.499s-1.83301 -14.666 -2.5 -18.999s-1 -7.33301 -1 -9v-4.5c0 -12.667 3 -22.5 9 -29.5s15 -10.5 27 -10.5c6.66699 0 12.334 0.833008 17.001 2.5s9 3.5 13 5.5
s7.33301 3.83301 10 5.5s5.33398 2.5 8.00098 2.5c4 0 7 -0.833008 9 -2.5c2 -1 3.66699 -3.5 5 -7.5l28 -60c-18.667 -14.667 -39.167 -26 -61.5 -34s-44.833 -12 -67.5 -12c-36 0 -64.667 9.83301 -86 29.5c-21.333 19 -32.666 46.5 -33.999 82.5
c0 2.66699 0.166992 5.66699 0.5 9s0.666016 8 0.999023 14s1 14 2 24s2.5 23 4.5 39l29 232h-185l-28 -225c-1.33301 -13.333 -2.5 -24.166 -3.5 -32.499s-1.83301 -14.666 -2.5 -18.999s-1 -7.33301 -1 -9v-4.5c0 -12.667 3 -22.5 9 -29.5s14.667 -10.5 26 -10.5
c6.66699 0 12.5 0.833008 17.5 2.5s9.5 3.5 13.5 5.5s7.33301 3.83301 10 5.5s5.33398 2.5 8.00098 2.5c4 0 7 -0.833008 9 -2.5c2 -1 3.66699 -3.5 5 -7.5l28 -60c-18.667 -14.667 -39.167 -26 -61.5 -34s-44.833 -12 -67.5 -12c-36 0 -64.667 9.83301 -86 29.5
c-21.333 19 -32.666 46.5 -33.999 82.5v9c0 3.33301 0.166992 8 0.5 14s1.16602 14 2.49902 24s3 23 5 39l29 232h-46c-6.66699 0 -12 2.16699 -16 6.5c-4 5 -5.33301 11.5 -4 19.5l6 47l76 13l42 141c2 6.66699 5.16699 11.834 9.5 15.501s10.166 5.5 17.499 5.5h67
l-20 -163h190l42 142c2 6.66699 5.33301 11.834 10 15.501s10.334 5.5 17.001 5.5h67l-20 -163h322zM828.997 729.994c26.667 0 48.3359 -3.66699 65.0029 -11s29.667 -17.5 39 -30.5s15.333 -28.167 18 -45.5s3 -35.666 1 -54.999h-79c1.33301 10 1.5 19 0.5 27
s-3.33301 14.833 -7 20.5s-9.16699 10 -16.5 13s-17 4.5 -29 4.5s-22 -1.5 -30 -4.5s-14.667 -7.33301 -20 -13s-9.33301 -12.5 -12 -20.5s-4.33398 -17 -5.00098 -27h-79c2 19.333 6.16699 37.666 12.5 54.999s15.666 32.5 27.999 45.5s27.666 23.167 45.999 30.5
s40.833 11 67.5 11z" />
    <glyph glyph-name="t_t_uni0209.liga" unicode="tt&#x209;" horiz-adv-x="897" 
d="M860 507l-62.0029 -507.006h-118l51 422h-204l-28 -225c-1.33301 -13.333 -2.5 -24.166 -3.5 -32.499s-1.83301 -14.666 -2.5 -18.999s-1 -7.33301 -1 -9v-4.5c0 -12.667 3 -22.5 9 -29.5s15 -10.5 27 -10.5c6.66699 0 12.334 0.833008 17.001 2.5s9 3.5 13 5.5
s7.33301 3.83301 10 5.5s5.33398 2.5 8.00098 2.5c4 0 7 -0.833008 9 -2.5c2 -1 3.66699 -3.5 5 -7.5l28 -60c-18.667 -14.667 -39.167 -26 -61.5 -34s-44.833 -12 -67.5 -12c-36 0 -64.667 9.83301 -86 29.5c-21.333 19 -32.666 46.5 -33.999 82.5
c0 2.66699 0.166992 5.66699 0.5 9s0.666016 8 0.999023 14s1 14 2 24s2.5 23 4.5 39l29 232h-185l-28 -225c-1.33301 -13.333 -2.5 -24.166 -3.5 -32.499s-1.83301 -14.666 -2.5 -18.999s-1 -7.33301 -1 -9v-4.5c0 -12.667 3 -22.5 9 -29.5s14.667 -10.5 26 -10.5
c6.66699 0 12.5 0.833008 17.5 2.5s9.5 3.5 13.5 5.5s7.33301 3.83301 10 5.5s5.33398 2.5 8.00098 2.5c4 0 7 -0.833008 9 -2.5c2 -1 3.66699 -3.5 5 -7.5l28 -60c-18.667 -14.667 -39.167 -26 -61.5 -34s-44.833 -12 -67.5 -12c-36 0 -64.667 9.83301 -86 29.5
c-21.333 19 -32.666 46.5 -33.999 82.5v9c0 3.33301 0.166992 8 0.5 14s1.16602 14 2.49902 24s3 23 5 39l29 232h-46c-6.66699 0 -12 2.16699 -16 6.5c-4 5 -5.33301 11.5 -4 19.5l6 47l76 13l42 141c2 6.66699 5.16699 11.834 9.5 15.501s10.166 5.5 17.499 5.5h67
l-20 -163h190l42 142c2 6.66699 5.33301 11.834 10 15.501s10.334 5.5 17.001 5.5h67l-20 -163h322zM834.997 730.994c12 0 21 -2.16797 27 -6.50098s10.333 -11.166 13 -20.499l45 -121h-47c-8.66699 0 -15.667 1.16699 -21 3.5s-10 6.83301 -14 13.5l-77 131h74z
M682.997 730.993c12 0 20.667 -2.16797 26 -6.50098s10 -11.166 14 -20.499l68 -121h-54c-8.66699 0 -15.5 1.16699 -20.5 3.5s-10.167 6.83301 -15.5 13.5l-100 131h82z" />
    <glyph glyph-name=".notdef" horiz-adv-x="547" 
d="M120 574c18.667 15.333 40.001 28.168 64.001 38.501s52.667 15.5 86 15.5c23.333 0 44.333 -3.16699 63 -9.5s34.5 -15.333 47.5 -27s22.833 -25.5 29.5 -41.5s10 -34 10 -54c0 -18.667 -2.33301 -34.334 -7 -47.001s-10.334 -24 -17.001 -34
s-14.334 -18.5 -23.001 -25.5s-16.667 -13.667 -24 -20s-14 -12.5 -20 -18.5s-9.66699 -12.333 -11 -19l-12 -48h-84l-8 56c-2 12 -1.16699 22.667 2.5 32s8.83398 17.5 15.501 24.5s14.334 13.667 23.001 20s16.667 12.833 24 19.5s13.666 14.334 18.999 23.001
s8 18.667 8 30c0 12 -4 21.5 -12 28.5s-19.667 10.5 -35 10.5c-12 0 -22.167 -1 -30.5 -3s-15.5 -4.33301 -21.5 -7s-11.167 -5.33398 -15.5 -8.00098c-3.66699 -2.66699 -8.16699 -4 -13.5 -4c-12 0 -20.667 5 -26 15zM192.001 156.002c0 9.33301 1.83301 18.333 5.5 27
s8.5 16 14.5 22s13.167 10.667 21.5 14s17.166 5 26.499 5s18.166 -1.66699 26.499 -5s15.666 -8 21.999 -14s11.166 -13.333 14.499 -22s5 -17.667 5 -27s-1.66699 -18 -5 -26s-8.16602 -15 -14.499 -21s-13.666 -10.833 -21.999 -14.5s-17.166 -5.5 -26.499 -5.5
s-18.166 1.83301 -26.499 5.5s-15.5 8.5 -21.5 14.5s-10.833 13 -14.5 21s-5.5 16.667 -5.5 26zM21.001 723.002h505v-723h-505v723zM54.001 34.002h436v655h-436v-655z" />
    <glyph glyph-name="glyph1" horiz-adv-x="0" 
 />
    <glyph glyph-name="glyph1" horiz-adv-x="0" 
 />
    <glyph glyph-name="uni000D" unicode="&#xd;" horiz-adv-x="0" 
 />
    <glyph glyph-name="space" unicode=" " horiz-adv-x="219" 
 />
    <glyph glyph-name="space" unicode="&#xa0;" horiz-adv-x="219" 
 />
    <glyph glyph-name="exclam" unicode="!" horiz-adv-x="265" 
d="M236 723l-33.999 -286.999c-4 -30.667 -9.33301 -60.334 -16 -89.001s-14.334 -59.667 -23.001 -93h-81c-0.666992 33.333 -0.5 64.5 0.5 93.5c1 28.333 3.5 57.833 7.5 88.5l35 287h111zM32.001 68.001c0 10.667 1.83301 20.667 5.5 30s8.83398 17.333 15.501 24
s14.667 12 24 16s19.333 6 30 6s20.5 -2 29.5 -6s17 -9.33301 24 -16s12.5 -14.667 16.5 -24s6 -19.333 6 -30s-2 -20.667 -6 -30s-9.5 -17.333 -16.5 -24s-15.167 -11.834 -24.5 -15.501s-19 -5.5 -29 -5.5c-10.667 0 -20.667 1.83301 -30 5.5s-17.333 8.83398 -24 15.501
s-11.834 14.667 -15.501 24s-5.5 19.333 -5.5 30z" />
    <glyph glyph-name="quotedbl" unicode="&#x22;" horiz-adv-x="371" 
d="M203 722l-18 -144l-20 -78c-4 -14 -9.33301 -24.833 -16 -32.5s-17 -11.5 -31 -11.5c-12 0 -20.5 3.83301 -25.5 11.5s-8.16699 18.5 -9.5 32.5l-1 78l18 144h103zM373 722l-18 -144l-20 -78c-4 -14 -9.33301 -24.833 -16 -32.5s-17 -11.5 -31 -11.5
c-12 0 -20.5 3.83301 -25.5 11.5s-8.16699 18.5 -9.5 32.5l-1 78l18 144h103z" />
    <glyph glyph-name="numbersign" unicode="#" horiz-adv-x="580" 
d="M399 204l-63 -204h-56c-5.33301 0 -10.333 1.33301 -15 4s-8.33398 6.33398 -11.001 11.001s-4.16699 10 -4.5 16c-1 6 -0.166992 12.333 2.5 19l50 154h-106l-50 -160c-4.66699 -16 -12.5 -27.333 -23.5 -34s-22.5 -10 -34.5 -10h-54l64 204h-59
c-12 0 -20.333 3.66699 -25 11s-4.66699 20 0 38l11 37h96l44 142h-108l15 50c4 12.667 10.333 21.834 19 27.501s21.667 8.5 39 8.5h58l51 164c4 12.667 11.167 22.5 21.5 29.5s21.833 10.5 34.5 10.5h55l-64 -204h104l64 204h54c12 0 21.333 -4 28 -12s8 -18 4 -30
l-52 -162h103l-16 -50c-4 -12.667 -10.167 -21.834 -18.5 -27.501s-21.166 -8.5 -38.499 -8.5h-52l-44 -142h73c12 0 20.333 -3.33301 25 -10s4.66699 -19.334 0 -38.001l-12 -38h-109zM218 290h106l44 142h-105z" />
    <glyph glyph-name="dollar" unicode="$" horiz-adv-x="580" 
d="M194 -4c-38.667 5.33301 -74 15.832 -106 31.499s-58.667 35.5 -80 59.5l44 55c4 4.66699 8.66699 8.5 14 11.5s11.333 4.5 18 4.5s13.667 -2.66699 21 -8s16 -11.666 26 -18.999s21.667 -14.5 35 -21.5s29.333 -12.167 48 -15.5l46 230c-21.333 6.66699 -42 14 -62 22
s-38 18.333 -54 31s-29 28.834 -39 48.501s-15 43.834 -15 72.501c0 29.333 5.83301 57.333 17.5 84s28.5 50.667 50.5 72s48.667 38.666 80 51.999s66.666 21 105.999 23l13 63c1.33301 8 5.5 15.167 12.5 21.5s14.833 9.5 23.5 9.5h44l-20 -98
c34.667 -5.33301 63.834 -15.166 87.501 -29.499s44.167 -30.833 61.5 -49.5l-34 -43c-5.33301 -6.66699 -10.5 -11.5 -15.5 -14.5s-10.833 -4.5 -17.5 -4.5c-5.33301 0 -11.166 1.66699 -17.499 5s-13.5 7.33301 -21.5 12s-17.333 9.33398 -28 14.001
s-22.667 8.33398 -36 11.001l-43 -212c21.333 -6.66699 42.5 -14 63.5 -22s40 -18.333 57 -31s30.667 -28.334 41 -47.001s15.5 -41.334 15.5 -68.001c0 -32.667 -6 -63.834 -18 -93.501s-29.333 -55.834 -52 -78.501s-50.334 -41.167 -83.001 -55.5
s-69.334 -22.833 -110.001 -25.5l-15 -75c-1.33301 -8 -5.5 -15 -12.5 -21c-6.33301 -6 -14.166 -9 -23.499 -9h-44zM414 216.999c0 11.333 -2.16602 21.332 -6.49902 29.999s-10.333 16.334 -18 23.001s-16.5 12.5 -26.5 17.5c-10 5.66699 -21 10.5 -33 14.5l-42 -210
c41.333 4.66699 72.666 18.167 93.999 40.5s32 50.5 32 84.5zM205.001 523.998c0 -11.333 1.99902 -21.166 5.99902 -29.499s9.5 -16 16.5 -23s15.333 -13.333 25 -19s20.167 -10.5 31.5 -14.5l39 190c-21.333 -2.66699 -39.5 -7 -54.5 -13s-27.167 -13.667 -36.5 -23
s-16.166 -19.833 -20.499 -31.5s-6.5 -23.834 -6.5 -36.501z" />
    <glyph glyph-name="percent" unicode="%" horiz-adv-x="761" 
d="M379 575c0 -32 -5.16699 -60.8311 -15.5 -86.498s-23.833 -47.334 -40.5 -65.001s-36 -31.334 -58 -41.001s-44 -14.5 -66 -14.5c-20 0 -38.167 3.66699 -54.5 11s-30.5 17.666 -42.5 30.999s-21.167 29.333 -27.5 48s-9.5 40 -9.5 64c0 32 4.66699 60.667 14 86
s22.166 47 38.499 65s35.333 32 57 42s44.834 15 69.501 15c20 0 38.333 -3.66699 55 -11s31 -17.666 43 -30.999s21.167 -29.5 27.5 -48.5s9.5 -40.5 9.5 -64.5zM286 574.002c0 28 -4.83691 48.001 -14.5039 60.001s-22.167 18 -37.5 18c-10.667 0 -20.667 -2.33301 -30 -7
s-17.666 -12.334 -24.999 -23.001s-12.833 -24.167 -16.5 -40.5c-3.66699 -15.667 -5.5 -35.5 -5.5 -59.5c0 -13.333 1.16699 -25 3.5 -35s5.83301 -18 10.5 -24s10.334 -10.333 17.001 -13s13.667 -4 21 -4c10.667 0 20.834 2.33301 30.501 7s17.834 12 24.501 22
s12 23 16 39s6 36 6 60zM614.996 704.003c4.66699 4.66699 10 8.83203 16 12.499s14.333 5.5 25 5.5h86l-582 -704c-4.66699 -5.33301 -10.167 -9.66602 -16.5 -12.999s-13.833 -5 -22.5 -5h-88zM709.996 198.001c0 -32 -5.16699 -60.833 -15.5 -86.5
s-23.833 -47.334 -40.5 -65.001s-35.834 -31.334 -57.501 -41.001s-43.834 -14.5 -66.501 -14.5c-20 0 -38.333 3.66699 -55 11s-30.667 17.5 -42 30.5s-20.333 29 -27 48c-6.66699 19.667 -10 40.834 -10 63.501c0 32 4.66699 60.833 14 86.5s22 47.5 38 65.5
s35 31.833 57 41.5s45.333 14.5 70 14.5c20 0 38.333 -3.66699 55 -11s30.834 -17.666 42.501 -30.999s20.834 -29.333 27.501 -48s10 -40 10 -64zM617.996 197.001c0 28 -4.99902 47.834 -14.999 59.501s-22.333 17.5 -37 17.5c-10.667 0 -21 -2.33301 -31 -7
s-18.333 -12.334 -25 -23.001s-12 -24.167 -16 -40.5c-4 -15.667 -6 -35.5 -6 -59.5c0 -26.667 4.83301 -46 14.5 -58s22.167 -18 37.5 -18c10.667 0 20.667 2.33301 30 7s17.666 12 24.999 22s13 23.167 17 39.5s6 36.5 6 60.5z" />
    <glyph glyph-name="ampersand" unicode="&#x26;" horiz-adv-x="668" 
d="M364 730c27.333 0 51.6719 -4.33105 73.0049 -12.998s39.166 -20.334 53.499 -35.001s25 -31.667 32 -51c6.33301 -19.333 9.5 -39.666 9.5 -60.999l-71 -14c-10 -2 -17.667 -1.66699 -23 1c-5.33301 2 -9.33301 7.66699 -12 17c-2 9.33301 -5 18 -9 26s-9 15 -15 21
s-13 10.667 -21 14c-7.33301 3.33301 -16.333 5 -27 5c-14 0 -26.667 -3 -38 -9s-20.833 -13.833 -28.5 -23.5s-13.667 -21 -18 -34s-6.5 -27.167 -6.5 -42.5c0 -16 3.16699 -32.5 9.5 -49.5s16.166 -34.833 29.499 -53.5l148 -192c10.667 20 20 40.667 28 62
s14 43.666 18 66.999c1.33301 8 4.16602 14.167 8.49902 18.5s10.5 6.5 18.5 6.5h83c-5.33301 -44 -16 -86 -32 -126s-36.333 -76.667 -61 -110l119 -154h-103c-9.33301 0 -17.5 0.666992 -24.5 2s-13.167 3.33301 -18.5 6s-10.333 6.16699 -15 10.5
c-4.66699 3.66699 -9.66699 8.83398 -15 15.501l-26 34c-30.667 -24 -63.834 -42.667 -99.501 -56s-73.167 -20 -112.5 -20c-30.667 0 -58.167 4.33301 -82.5 13s-45 20.834 -62 36.501s-30 34.667 -39 57s-13.5 47.5 -13.5 75.5c0 25.333 4.16699 49.666 12.5 72.999
s19.666 44.5 33.999 63.5s31.333 36.167 51 51.5s41.167 28.333 64.5 39c-10.667 21.333 -18.5 42.166 -23.5 62.499s-7.5 40.166 -7.5 59.499c0 28 5 54.667 15 80s24.167 47.5 42.5 66.5s40.5 33.833 66.5 44.5s55.333 16 88 16zM244.006 87.002c24 0 47 4.83301 69 14.5
s42.667 23.167 62 40.5l-149 194c-29.333 -19.333 -50.333 -41.333 -63 -66c-12.667 -25.333 -19 -52 -19 -80c0 -32 8.66699 -57.167 26 -75.5s42 -27.5 74 -27.5z" />
    <glyph glyph-name="quotesingle" unicode="'" horiz-adv-x="202" 
d="M203 722l-18 -144l-20 -78c-4 -14 -9.33301 -24.833 -16 -32.5s-17 -11.5 -31 -11.5c-12 0 -20.5 3.83301 -25.5 11.5s-8.16699 18.5 -9.5 32.5l-1 78l18 144h103z" />
    <glyph glyph-name="parenleft" unicode="(" horiz-adv-x="266" 
d="M138 216c0 -22.667 1.00098 -46.833 3.00098 -72.5s5 -51.334 9 -77.001s8.66699 -50.834 14 -75.501s12 -47.667 20 -69c5.33301 -13.333 5.66602 -23.333 0.999023 -30s-10.334 -12 -17.001 -16l-57 -32c-13.333 28 -24.833 57.333 -34.5 88s-17.667 61.667 -24 93
s-11 62.333 -14 93s-4.5 60.667 -4.5 90c0 49.333 3 97.333 9 144s16.333 93.334 31 140.001s34.334 94 59.001 142s55.667 98 93 150l50 -32c2.66699 -2 5.16699 -4.5 7.5 -7.5s4 -6.16699 5 -9.5s0.833008 -7.66602 -0.5 -12.999s-4 -11 -8 -17
c-21.333 -36.667 -41 -73.834 -59 -111.501s-33 -76.5 -45 -116.5s-21.333 -81.667 -28 -125s-10 -88.666 -10 -135.999z" />
    <glyph glyph-name="parenright" unicode=")" horiz-adv-x="266" 
d="M130 410c0 22.667 -1.00195 46.998 -3.00195 72.998s-5 52 -9 78s-8.83301 51.333 -14.5 76s-12.167 47.334 -19.5 68.001c-5.33301 13.333 -5.66602 23.5 -0.999023 30.5s10.334 12.5 17.001 16.5l57 32c13.333 -28 24.833 -57.333 34.5 -88s17.667 -61.667 24 -93
s11 -62.5 14 -93.5s4.5 -60.833 4.5 -89.5c0 -49.333 -3 -97.5 -9 -144.5s-16.333 -93.833 -31 -140.5s-34.5 -93.834 -59.5 -141.501c-24.333 -47.667 -55.166 -97.5 -92.499 -149.5l-49 32c-2.66699 2 -5.33398 4.33301 -8.00098 7s-4.5 5.83398 -5.5 9.50098
s-0.833008 7.83398 0.5 12.501s4 10.334 8 17.001c22 36.667 41.833 74.167 59.5 112.5s32.5 77.666 44.5 117.999s21.333 81.833 28 124.5s10 87 10 133z" />
    <glyph glyph-name="asterisk" unicode="*" horiz-adv-x="396" 
d="M182 420l11.9941 92c0.666992 6.66699 1.66699 13 3 19s3.33301 11.667 6 17c-4 -4 -8.5 -7.66699 -13.5 -11l-16.5 -11l-77 -46l-22 48l77 46c6.66699 4 13 7.33301 19 10c5.33301 2.66699 11.333 4 18 4c-13.333 1.33301 -24.666 6 -33.999 14l-66 48l34 48l67 -48
c5.33301 -3.33301 10 -6.66602 14 -9.99902c4.66699 -3.33301 8.33398 -7.33301 11.001 -12c-1.33301 5.33301 -2.16602 11 -2.49902 17s-0.166016 12.333 0.500977 19l12 93h56l-11 -92c-1.33301 -14 -4.66602 -26.333 -9.99902 -37c8.66699 8 19 15.333 31 22l77 48
l22 -49l-77 -47c-13.333 -8 -25.666 -12.667 -36.999 -14c5.33301 -1.33301 10.833 -3 16.5 -5s11.167 -5 16.5 -9l66 -46l-34 -48l-66 46c-5.33301 3.33301 -10 6.83301 -14 10.5s-7.66699 7.5 -11 11.5c2 -10.667 2.33301 -22.334 1 -35.001l-11 -93h-57z" />
    <glyph glyph-name="plus" unicode="+" horiz-adv-x="580" 
d="M372 586l-25 -206h196l-11 -88h-196l-25 -208h-97l25 208h-194l11 88h194l26 206h96z" />
    <glyph glyph-name="comma" unicode="," horiz-adv-x="235" 
d="M16 76c0 9.33301 1.66895 18.001 5.00195 26.001s8.16602 15.167 14.499 21.5s14 11.333 23 15s18.833 5.5 29.5 5.5c12.667 0 23.667 -2.33301 33 -7s17.166 -11 23.499 -19s11 -17 14 -27s4.5 -20.667 4.5 -32c0 -16 -2.5 -32.833 -7.5 -50.5
s-12.167 -35.334 -21.5 -53.001s-20.666 -34.834 -33.999 -51.501s-29.333 -32 -48 -46l-21 20c-6 5.33301 -9 11.333 -9 18c0 5.33301 2.83301 11 8.5 17s12 13.333 19 22s14.167 18.5 21.5 29.5c7.33301 11.667 12.333 24.167 15 37.5
c-10.667 0 -20.334 1.83301 -29.001 5.5s-16 8.83398 -22 15.501s-10.667 14.5 -14 23.5s-5 18.833 -5 29.5z" />
    <glyph glyph-name="hyphen" unicode="-" horiz-adv-x="347" 
d="M58 352h241l-13 -100h-240z" />
    <glyph glyph-name="hyphen" unicode="&#x2010;" horiz-adv-x="347" 
d="M58 352h241l-13 -100h-240z" />
    <glyph glyph-name="hyphen" unicode="&#xad;" horiz-adv-x="347" 
d="M58 352h241l-13 -100h-240z" />
    <glyph glyph-name="period" unicode="." horiz-adv-x="238" 
d="M16 68c0 10.667 1.83398 20.667 5.50098 30s9 17.333 16 24s15.167 12 24.5 16s19.333 6 30 6s20.5 -2 29.5 -6s17 -9.33301 24 -16s12.5 -14.667 16.5 -24s6 -19.333 6 -30s-2 -20.667 -6 -30s-9.5 -17.333 -16.5 -24s-15.167 -11.834 -24.5 -15.501
c-8.66699 -3.66699 -18.334 -5.5 -29.001 -5.5s-20.667 1.83301 -30 5.5s-17.5 8.83398 -24.5 15.501s-12.333 14.667 -16 24s-5.5 19.333 -5.5 30z" />
    <glyph glyph-name="slash" unicode="/" horiz-adv-x="429" 
d="M104 -4c-7.33301 -14.667 -17.501 -25.666 -30.501 -32.999s-25.5 -11 -37.5 -11h-51l351 734c6.66699 13.333 15.834 23.666 27.501 30.999s24.5 11 38.5 11h50z" />
    <glyph glyph-name="zero" unicode="0" horiz-adv-x="580" 
d="M548 440c0 -76 -7.99805 -142 -23.998 -198s-37.5 -102.5 -64.5 -139.5s-58.5 -64.667 -94.5 -83c-36.667 -18.333 -75 -27.5 -115 -27.5c-30.667 0 -58.334 6 -83.001 18s-46 30 -64 54s-32 54.333 -42 91s-15 79 -15 127c0 76 7.66699 142 23 198
s36.333 102.667 63 140s58 65 94 83s74.333 27 115 27c30.667 0 58.5 -6 83.5 -18s46.667 -30 65 -54s32.666 -54.333 42.999 -91s15.5 -79 15.5 -127zM425.002 446c0 34.667 -2.49902 63.8262 -7.49902 87.4932s-12 42.667 -21 57s-19.333 24.833 -31 31.5
s-23.834 10 -36.501 10c-13.333 0 -26.5 -2.66699 -39.5 -8s-25.5 -13.666 -37.5 -24.999s-23.333 -26.166 -34 -44.499s-19.667 -40.666 -27 -66.999s-13 -57.166 -17 -92.499s-6 -75.333 -6 -120c0 -34.667 2.5 -63.667 7.5 -87s11.833 -42.166 20.5 -56.499
s18.834 -24.666 30.501 -30.999s23.5 -9.5 35.5 -9.5c20 0 39.667 5.83301 59 17.5s36.666 31.334 51.999 59.001s27.833 64 37.5 109s14.5 101.5 14.5 169.5z" />
    <glyph glyph-name="one" unicode="1" horiz-adv-x="580" 
d="M106 89l133.001 0.000976562l53 431c0.666992 8 1.5 16 2.5 24s2.5 16 4.5 24l-103 -88c-6 -4.66699 -11.833 -7.5 -17.5 -8.5s-10.834 -1 -15.501 0s-8.83398 2.66699 -12.501 5c-4.33301 2.33301 -7.16602 5.16602 -8.49902 8.49902l-30 51l226 188h98l-78 -635h118
l-11 -89h-371z" />
    <glyph glyph-name="two" unicode="2" horiz-adv-x="580" 
d="M350 730c28 0 53.3301 -4.16699 75.9971 -12.5s42 -20.333 58 -36s28.333 -34.5 37 -56.5s13 -46.333 13 -73c0 -30.667 -4.33301 -58.5 -13 -83.5s-20.667 -48.667 -36 -71s-33 -44.166 -53 -65.499s-41.333 -43 -64 -65l-176 -172c17.333 4.66699 34.333 8.5 51 11.5
s31.667 4.5 45 4.5h163c12.667 0 22.334 -3.66699 29.001 -11s9.33398 -17 8.00098 -29l-9 -71h-459l5 40c1.33301 8 4 16.333 8 25s10.333 16.667 19 24l227 221c22.667 21.333 42.167 41.5 58.5 60.5s30 37.667 41 56s19.333 36.833 25 55.5s8.5 38.667 8.5 60
c0 29.333 -7.33301 51.333 -22 66s-34.667 22 -60 22c-13.333 0 -25.666 -2.16699 -36.999 -6.5s-21.666 -10.333 -30.999 -18s-17.666 -16.834 -24.999 -27.501s-13 -22 -17 -34c-7.33301 -14.667 -15.833 -24.5 -25.5 -29.5s-22.5 -6.16699 -38.5 -3.5l-61 11
c9.33301 34.667 22.166 65 38.499 91s35.5 47.667 57.5 65s46.667 30.333 74 39s55.666 13 84.999 13z" />
    <glyph glyph-name="three" unicode="3" horiz-adv-x="580" 
d="M352 730c28.667 0 54.1641 -3.99805 76.4971 -11.998s41.166 -19.5 56.499 -34.5s27 -32.5 35 -52.5s12 -41.667 12 -65c0 -26.667 -2.83301 -50 -8.5 -70s-14 -37.667 -25 -53s-24.5 -28 -40.5 -38s-34.667 -18.333 -56 -25c34.667 -12 60.5 -30 77.5 -54
s25.5 -53.333 25.5 -88c0 -38.667 -7.16699 -73.334 -21.5 -104.001s-33.5 -56.667 -57.5 -78s-51.5 -37.333 -82.5 -48s-63.167 -16 -96.5 -16s-61.833 4.33301 -85.5 13s-43.834 21 -60.501 37s-30 35.833 -40 59.5c-10 23 -18 49.833 -24 80.5l55 22
c14.667 5.33301 27.834 7 39.501 5s19.5 -8.33301 23.5 -19c4 -11.333 8.83301 -22.833 14.5 -34.5s12.167 -22.167 19.5 -31.5s16.666 -17 27.999 -23s25 -9 41 -9c20 0 38 4 54 12s29.5 18.833 40.5 32.5s19.333 29.167 25 46.5s8.5 35.333 8.5 54
c0 13.333 -2 25.5 -6 36.5s-11.167 20.5 -21.5 28.5s-24.333 14.333 -42 19s-40.5 7 -68.5 7l10 84c28.667 0 52.834 3 72.501 9s35.834 14.667 48.501 26s21.667 25 27 41s8 34.333 8 55c0 28 -7.16699 49.5 -21.5 64.5c-15 15 -35.167 22.5 -60.5 22.5
c-13.333 0 -25.666 -2.16699 -36.999 -6.5s-21.666 -10.333 -30.999 -18s-17.666 -16.834 -24.999 -27.501s-13 -22 -17 -34c-7.33301 -14.667 -15.833 -24.5 -25.5 -29.5s-22.5 -6.16699 -38.5 -3.5l-60 11c9.33301 34.667 22 65 38 91s35.167 47.667 57.5 65
s47 30.333 74 39s55.167 13 84.5 13z" />
    <glyph glyph-name="four" unicode="4" horiz-adv-x="580" 
d="M448 270l82 0.000976562l-8 -68c-0.666992 -6.66699 -3.5 -12.334 -8.5 -17.001s-11.5 -7 -19.5 -7h-56l-22 -178h-104l22 178h-279c-8 0 -14.667 2.33301 -20 7s-8.33301 11 -9 19l-5 60l371 459h112zM375 516.001c1.33301 9.33301 2.83203 19 4.49902 29
s3.83398 20.333 6.50098 31l-240 -306h199z" />
    <glyph glyph-name="five" unicode="5" horiz-adv-x="580" 
d="M528 672c-2 -17.333 -8.83594 -31.332 -20.5029 -41.999s-30.167 -16 -55.5 -16h-178l-44 -154c14.667 3.33301 28.834 5.5 42.501 6.5s26.834 1.5 39.501 1.5c32 0 59.667 -4.83301 83 -14.5s43 -23 59 -40s28 -37.167 36 -60.5s12 -48.333 12 -75
c0 -42.667 -7.33301 -81.334 -22 -116.001s-34.834 -64.667 -60.501 -90s-55.667 -45 -90 -59s-71.166 -21 -110.499 -21c-21.333 0 -41.166 2.33301 -59.499 7s-35.166 10.834 -50.499 18.501s-29.5 16.667 -42.5 27s-24.5 20.833 -34.5 31.5l43 50c10 10.667 21 16 33 16
c8 0 15.667 -2.66699 23 -8s15.666 -11 24.999 -17s20.5 -11.667 33.5 -17c12.333 -5.33301 28.5 -8 48.5 -8c24 0 45 4.66699 63 14s33 21.666 45 36.999s21 33.5 27 54.5s9 43.167 9 66.5c0 33.333 -9 59.5 -27 78.5s-45 28.5 -81 28.5c-16 0 -32 -1.5 -48 -4.5
s-32.667 -7.83301 -50 -14.5l-71 22l99 348h331z" />
    <glyph glyph-name="six" unicode="6" horiz-adv-x="533" 
d="M262 430c13.333 6.66699 27.3291 11.6611 41.9961 14.9941s30 5 46 5c22.667 0 44.5 -4 65.5 -12s39.333 -19.667 55 -35s28.167 -34.666 37.5 -57.999s14 -50 14 -80c0 -25.333 -3 -49.666 -9 -72.999s-14.667 -45.166 -26 -65.499s-25 -38.666 -41 -54.999
s-34 -30.333 -54 -42s-41.667 -20.834 -65 -27.501s-47.666 -10 -72.999 -10c-32 0 -60.667 5.33301 -86 16s-46.666 25.334 -63.999 44.001s-30.666 41.334 -39.999 68.001s-14 56 -14 88c0 22 2.33301 43.333 7 64s11.334 41.334 20.001 62.001s19.667 41.5 33 62.5
s29.333 42.5 48 64.5l186 233c6.66699 8 16 14.667 28 20s24.667 8 38 8h106l-229 -263zM163.996 202.994c0 -16.667 2.00391 -32.001 6.00391 -46.001s10.167 -26 18.5 -36s18.666 -17.667 30.999 -23s27.166 -8 44.499 -8c19.333 0 37.166 3.83301 53.499 11.5
s30.833 18.5 43.5 32.5s22.667 30.5 30 49.5s11 39.833 11 62.5c0 17.333 -2.5 33.333 -7.5 48s-12 26.834 -21 36.501s-19.833 17.167 -32.5 22.5s-27 8 -43 8c-18.667 0 -36.334 -4 -53.001 -12s-31 -19 -43 -33s-21.333 -30.667 -28 -50s-10 -40.333 -10 -63z" />
    <glyph glyph-name="seven" unicode="7" horiz-adv-x="580" 
d="M576 722l-6 -51.001c-2 -15.333 -5.5 -27.666 -10.5 -36.999s-9.16699 -17.333 -12.5 -24l-318 -570c-6.66699 -11.333 -15.5 -20.833 -26.5 -28.5s-24.833 -11.5 -41.5 -11.5h-87l322 558c6.66699 10.667 13.667 20.667 21 30s15.333 18 24 26h-313
c-6.66699 0 -12.667 3 -18 9s-7.33301 12.333 -6 19l10 80h462z" />
    <glyph glyph-name="eight" unicode="8" horiz-adv-x="580" 
d="M252 -8c-32 0 -61.001 4.33008 -87.001 12.9971s-48 21 -66 37s-32 35.333 -42 58s-15 48 -15 76c0 50 11.667 92.333 35 127s60 59.667 110 75c-26.667 13.333 -46.834 31.333 -60.501 54s-20.5 50 -20.5 82c0 30.667 6 59.167 18 85.5s28.667 49.333 50 69
s46.333 34.834 75 45.501s59.667 16 93 16c28 0 53.667 -4.33301 77 -13s43.333 -20.667 60 -36s29.334 -33.666 38.001 -54.999s13 -44 13 -68c0 -44 -10 -81.333 -30 -112s-50 -54 -90 -70c34.667 -12.667 60.334 -31.5 77.001 -56.5s25 -55.5 25 -91.5
s-6.66699 -68.5 -20 -97.5s-31.5 -53.667 -54.5 -74s-50.333 -36.166 -82 -47.499s-66.167 -17 -103.5 -17zM261.999 84.9971c20.667 0 38.8291 3.50098 54.4961 10.501s28.834 17 39.501 30s18.834 28.333 24.501 46s8.5 37.167 8.5 58.5c0 32 -8.5 56.167 -25.5 72.5
s-40.833 24.5 -71.5 24.5c-18 0 -34.667 -2.66699 -50 -8s-28.666 -13.833 -39.999 -25.5s-20.166 -26.334 -26.499 -44.001c-6.33301 -17 -9.5 -38.167 -9.5 -63.5c0 -14.667 2 -28.167 6 -40.5s10 -23 18 -32s18 -16 30 -21s26 -7.5 42 -7.5zM303.994 420.998
c18.667 0 34.835 3.50098 48.502 10.501s25 16.333 34 28s15.833 25.334 20.5 41.001s7 32.834 7 51.501c0 12 -1.66699 23.333 -5 34s-8.33301 20 -15 28s-15.334 14.333 -26.001 19s-23 7 -37 7c-18.667 0 -34.834 -3.33301 -48.501 -10s-25 -15.834 -34 -27.501
s-15.667 -25.334 -20 -41.001s-6.5 -32.167 -6.5 -49.5c0 -12 1.33301 -23.333 4 -34s7.33398 -20.334 14.001 -29.001s15.167 -15.5 25.5 -20.5s23.166 -7.5 38.499 -7.5z" />
    <glyph glyph-name="nine" unicode="9" horiz-adv-x="580" 
d="M320 282c5.33301 6.66699 10.668 13.167 16.001 19.5c5.33301 5.66699 10.666 11.834 15.999 18.501c-16 -10 -33.333 -17.5 -52 -22.5s-38 -7.5 -58 -7.5c-20.667 0 -40.834 3.66699 -60.501 11s-36.834 18.666 -51.501 33.999s-26.667 34 -36 56s-14 47.667 -14 77
c0 36 6.66699 70 20 102s31.666 59.833 54.999 83.5s50.833 42.334 82.5 56.001c31 13.667 65.167 20.5 102.5 20.5c30.667 0 58.334 -5 83.001 -15s45.334 -24 62.001 -42s29.334 -39.5 38.001 -64.5c8.66699 -25.667 13 -53.167 13 -82.5
c0 -25.333 -2.33301 -49.333 -7 -72s-11.5 -44.334 -20.5 -65.001s-20 -41 -33 -61s-27.5 -40.667 -43.5 -62l-180 -238c-6.66699 -8 -15.667 -14.667 -27 -20s-24 -8 -38 -8h-110zM423.002 525c0 34 -8.66797 60.5 -26.001 79.5s-40.666 28.5 -69.999 28.5
c-18.667 0 -35.667 -3.66699 -51 -11s-28.5 -17.666 -39.5 -30.999s-19.5 -29.166 -25.5 -47.499s-9 -38.833 -9 -61.5c0 -32.667 8 -57.834 24 -75.501s39 -26.5 69 -26.5c20 0 37.833 3.66699 53.5 11s29 17.666 40 30.999s19.5 28.833 25.5 46.5s9 36.5 9 56.5z" />
    <glyph glyph-name="colon" unicode=":" horiz-adv-x="259" 
d="M26 68c0 10.667 1.83398 20.667 5.50098 30s9 17.333 16 24s15.167 12 24.5 16s19.333 6 30 6s20.5 -2 29.5 -6s17 -9.33301 24 -16s12.5 -14.667 16.5 -24s6 -19.333 6 -30s-2 -20.667 -6 -30s-9.5 -17.333 -16.5 -24s-15.167 -11.834 -24.5 -15.501
c-8.66699 -3.66699 -18.334 -5.5 -29.001 -5.5s-20.667 1.83301 -30 5.5s-17.5 8.83398 -24.5 15.501s-12.333 14.667 -16 24s-5.5 19.333 -5.5 30zM66.001 424c0 10.667 1.83398 20.667 5.50098 30s9 17.333 16 24s15.167 12 24.5 16s19.333 6 30 6s20.5 -2 29.5 -6
s17 -9.33301 24 -16s12.5 -14.667 16.5 -24s6 -19.333 6 -30s-2 -20.667 -6 -30s-9.5 -17.333 -16.5 -24s-15.167 -11.834 -24.5 -15.501c-8.66699 -3.66699 -18.334 -5.5 -29.001 -5.5s-20.667 1.83301 -30 5.5s-17.5 8.83398 -24.5 15.501s-12.333 14.667 -16 24
s-5.5 19.333 -5.5 30z" />
    <glyph glyph-name="semicolon" unicode=";" horiz-adv-x="270" 
d="M35 76c0 9.33301 1.66895 18.001 5.00195 26.001s8.16602 15.167 14.499 21.5s14 11.333 23 15s18.833 5.5 29.5 5.5c12.667 0 23.667 -2.33301 33 -7s17.166 -11 23.499 -19s11 -17 14 -27s4.5 -20.667 4.5 -32c0 -16 -2.5 -32.833 -7.5 -50.5
s-12.167 -35.334 -21.5 -53.001s-20.666 -34.834 -33.999 -51.501s-29.333 -32 -48 -46l-21 20c-6 5.33301 -9 11.333 -9 18c0 5.33301 2.83301 11 8.5 17s12 13.333 19 22s14.167 18.5 21.5 29.5c7.33301 11.667 12.333 24.167 15 37.5
c-10.667 0 -20.334 1.83301 -29.001 5.5s-16 8.83398 -22 15.501s-10.667 14.5 -14 23.5s-5 18.833 -5 29.5zM72.002 424.001c0 10.667 1.83398 20.667 5.50098 30s9 17.333 16 24s15.167 12 24.5 16s19.333 6 30 6s20.5 -2 29.5 -6s17 -9.33301 24 -16
s12.5 -14.667 16.5 -24s6 -19.333 6 -30s-2 -20.667 -6 -30s-9.5 -17.333 -16.5 -24s-15.167 -11.834 -24.5 -15.501c-8.66699 -3.66699 -18.334 -5.5 -29.001 -5.5s-20.667 1.83301 -30 5.5s-17.5 8.83398 -24.5 15.501s-12.333 14.667 -16 24s-5.5 19.333 -5.5 30z" />
    <glyph glyph-name="less" unicode="&#x3c;" horiz-adv-x="580" 
d="M82 350l1.99902 12.001l422 206l-12 -88c-0.666992 -6.66699 -2.83398 -12.667 -6.50098 -18s-9.83398 -10 -18.501 -14l-193 -93c-8 -4 -16.667 -7.5 -26 -10.5s-18.666 -5.5 -27.999 -7.5c18.667 -4.66699 35.334 -10.667 50.001 -18l170 -93
c6.66699 -4 11.334 -8.83301 14.001 -14.5s4 -11.834 4 -18.501l-12 -88l-370 207z" />
    <glyph glyph-name="equal" unicode="=" horiz-adv-x="580" 
d="M67 293h441l-11 -89h-441zM88 468h442l-11 -89h-441z" />
    <glyph glyph-name="greater" unicode="&#x3e;" horiz-adv-x="580" 
d="M82 105l11 87.998c0.666992 6.66699 3 12.834 7 18.501s10 10.5 18 14.5l193 93c15.333 7.33301 33 13.333 53 18c-9.33301 2.66699 -18 5.33398 -26 8.00098s-15.333 6 -22 10l-170 93c-7.33301 4 -12.333 8.66699 -15 14s-3.66699 11.333 -3 18l10 88l372 -206l-6 -50z
" />
    <glyph glyph-name="question" unicode="?" horiz-adv-x="430" 
d="M74 657c12 10 25.0049 19.335 39.0049 28.002s28.667 16.5 44 23.5s31.666 12.333 48.999 16s36 5.5 56 5.5c26 0 49.167 -3.66699 69.5 -11s37.166 -17.5 50.499 -30.5s23.666 -28.333 30.999 -46s11 -36.5 11 -56.5c0 -28 -3.83301 -51.667 -11.5 -71
s-17.334 -36.166 -29.001 -50.499s-24.334 -26.666 -38.001 -36.999s-27 -20.5 -40 -30.5s-24.667 -20.333 -35 -31c-11 -10.667 -18.5 -23.334 -22.5 -38.001l-20 -74h-82l2 82c0 16.667 4.33301 31.5 13 44.5s19 25 31 36s25.167 21.667 39.5 32s27.5 21.166 39.5 32.499
s22 23.666 30 36.999s12 28.666 12 45.999c0 21.333 -6.16699 38.333 -18.5 51s-30.5 19 -54.5 19c-17.333 0 -32.166 -2.16699 -44.499 -6.5s-23 -9 -32 -14s-16.833 -9.83301 -23.5 -14.5s-12.334 -7 -17.001 -7c-6 0 -10.667 1.16699 -14 3.5
c-3.33301 3 -6.33301 7.16699 -9 12.5zM100.005 68.002c0 10.667 2 20.667 6 30s9.33301 17.333 16 24s14.667 12 24 16s19.333 6 30 6s20.5 -2 29.5 -6s17 -9.33301 24 -16s12.5 -14.667 16.5 -24s6 -19.333 6 -30s-2 -20.667 -6 -30s-9.5 -17.333 -16.5 -24
s-15 -11.834 -24 -15.501s-18.833 -5.5 -29.5 -5.5s-20.667 1.83301 -30 5.5s-17.333 8.83398 -24 15.501s-12 14.667 -16 24s-6 19.333 -6 30z" />
    <glyph glyph-name="at" unicode="@" horiz-adv-x="772" 
d="M518 92c-21.333 0 -39.3369 5.33105 -54.0039 15.998s-24 27.334 -28 50.001c-21.333 -24 -42.666 -41 -63.999 -51s-44 -15 -68 -15c-17.333 0 -32 3 -44 9s-22.333 14.333 -31 25s-15 23.334 -19 38.001s-6 30.334 -6 47.001c0 20 2.66699 40.667 8 62s13.333 42 24 62
s23.667 38.833 39 56.5s33.333 33 54 46s43.5 23.333 68.5 31c25.667 7.66699 53.167 11.5 82.5 11.5c12 0 23 -0.5 33 -1.5s19.333 -2.33301 28 -4s17 -3.83398 25 -6.50098s15.667 -6 23 -10l-67 -185c-7.33301 -21.333 -11.833 -39 -13.5 -53s-1.16699 -25 1.5 -33
s7 -13.5 13 -16.5s13 -4.5 21 -4.5c14.667 0 29 5.66699 43 17s26.333 27 37 47s19 43.667 25 71s9 57 9 89c0 36 -5 68 -15 96s-24.333 51.333 -43 70s-41.5 32.834 -68.5 42.501c-26.333 9.66699 -56.166 14.5 -89.499 14.5c-44 0 -85.333 -9.5 -124 -28.5
s-72.334 -45.333 -101.001 -79s-51.167 -73.5 -67.5 -119.5s-24.5 -96 -24.5 -150c0 -45.333 6.16699 -85.333 18.5 -120s29.833 -63.667 52.5 -87s49.834 -41.166 81.501 -53.499c31 -12.333 65.833 -18.5 104.5 -18.5c24 0 46.333 1.33301 67 4
s39.334 6.16699 56.001 10.5s31.667 9.5 45 15.5s24.666 11.667 33.999 17c7.33301 4 13.833 6.33301 19.5 7s10.5 0 14.5 -2s7 -4.66699 9 -8s3.66699 -7 5 -11l9 -34c-34.667 -22.667 -74.167 -41 -118.5 -55s-93.833 -21 -148.5 -21c-50.667 0 -96.667 8.16699 -138 24.5
s-76.666 39.666 -105.999 69.999s-52 67.166 -68 110.499s-24 92.333 -24 147c0 41.333 5 81.333 15 120s24 75 42 109s39.667 65 65 93s53.333 52 84 72s63.5 35.5 98.5 46.5s71.167 16.5 108.5 16.5c40 0 77.833 -6.83301 113.5 -20.5s66.5 -33.5 92.5 -59.5
s46.667 -57.5 62 -94.5s23 -78.5 23 -124.5c0 -42 -5.83301 -81.167 -17.5 -117.5s-27.667 -67.833 -48 -94.5s-44.166 -47.667 -71.499 -63s-56.333 -23 -87 -23zM337.996 169.998c8 0 15.998 1.33203 23.998 3.99902s16 7.5 24 14.5s15.667 16.333 23 28s14 26.5 20 44.5
l51 142c-9.33301 2 -18.666 3 -27.999 3c-20 0 -39.333 -5.16699 -58 -15.5s-35.167 -24 -49.5 -41s-25.666 -36.5 -33.999 -58.5s-12.5 -44.333 -12.5 -67c0 -17.333 3.33301 -30.666 10 -39.999s16.667 -14 30 -14z" />
    <glyph glyph-name="A" unicode="A" horiz-adv-x="650" 
d="M614 0l-100.001 0.000976562c-11.333 0 -20.166 2.66699 -26.499 8s-10.833 12.666 -13.5 21.999l-30 150h-269l-67 -150c-4 -8 -10 -15 -18 -21s-17.333 -9 -28 -9h-102l350 723h132zM215.999 272.001l210.001 -0.00195312l-49 248
c-2.66699 11.333 -5.16699 24.5 -7.5 39.5s-4.83301 31.167 -7.5 48.5c-6.66699 -17.333 -13.334 -33.666 -20.001 -48.999s-12 -28.666 -16 -39.999z" />
    <glyph glyph-name="B" unicode="B" horiz-adv-x="614" 
d="M38 0l90.001 723.002h232c40 0 74.167 -3.83301 102.5 -11.5s51.666 -18.834 69.999 -33.501s31.833 -32 40.5 -52s13 -42.667 13 -68c0 -20.667 -2.83301 -40.5 -8.5 -59.5s-14.334 -36.5 -26.001 -52.5s-26.5 -30.333 -44.5 -43s-39.667 -23 -65 -31
c41.333 -10.667 72 -27.5 92 -50.5c20 -22.333 30 -51.5 30 -87.5c0 -33.333 -6.16699 -64.333 -18.5 -93s-30.166 -53.334 -53.499 -74.001s-51.833 -37 -85.5 -49s-71.5 -18 -113.5 -18h-255zM207.001 318.002l-27.002 -216.997h124c22.667 0 42.334 3.16699 59.001 9.5
s30.334 15.166 41.001 26.499s18.667 25.166 24 41.499s8 34.166 8 53.499c0 26.667 -8.33301 47.667 -25 63s-44 23 -82 23h-122zM217.999 408.005l96 -0.000976562c44.667 0 79.167 10.5 103.5 31.5s36.5 53.167 36.5 96.5c0 30.667 -8.66699 52.834 -26 66.501
s-44 20.5 -80 20.5h-104z" />
    <glyph glyph-name="C" unicode="C" horiz-adv-x="620" 
d="M342 102c20 0 37.665 1.66699 52.998 5s28.666 7.33301 39.999 12s21 9.83398 29 15.501s15 11 21 16s11.333 9.16699 16 12.5s9 5 13 5s7.5 -1 10.5 -3c3.66699 -2 6.16699 -3.66699 7.5 -5l45 -56c-31.333 -36 -68.166 -63.667 -110.499 -83
c-43 -19.333 -91.833 -29 -146.5 -29c-44.667 0 -84.167 8 -118.5 24s-63.5 38 -87.5 66s-42.333 61 -55 99s-19 79.667 -19 125c0 41.333 4.66699 80.666 14 117.999s22.333 71.833 39 103.5s36.5 60 59.5 85s48.667 46.333 77 64s59 31.167 92 40.5
c32.333 9.33301 66.5 14 102.5 14c26.667 0 50.834 -2.5 72.501 -7.5s41.334 -11.833 59.001 -20.5s33.5 -19 47.5 -31s26.667 -25.333 38 -40l-45 -54c-3.33301 -4 -7.16602 -7.66699 -11.499 -11s-9.83301 -5 -16.5 -5c-7.33301 0 -14.5 3 -21.5 9s-15.5 12.667 -25.5 20
s-23 14 -39 20s-37.333 9 -64 9c-34.667 0 -67 -7 -97 -21s-56 -34.333 -78 -61s-39.167 -58.5 -51.5 -95.5c-12.333 -36.333 -18.5 -77.833 -18.5 -124.5c0 -33.333 4.16699 -63.5 12.5 -90.5s20.166 -49.667 35.499 -68s33.333 -32.5 54 -42.5s43 -15 67 -15z" />
    <glyph glyph-name="D" unicode="D" horiz-adv-x="708" 
d="M680 410c0 -60 -9.66992 -115.168 -29.0029 -165.501s-46.166 -93.666 -80.499 -129.999s-75.166 -64.5 -122.499 -84.5s-99 -30 -155 -30h-255l90 723h254c46 0 87.5 -7.83301 124.5 -23.5s68.333 -37.334 94 -65.001s45.334 -60.667 59.001 -99
s20.5 -80.166 20.5 -125.499zM547.997 406.999c0 32 -4 61.166 -12 87.499s-19.667 48.833 -35 67.5s-34 33 -56 43s-47 15 -75 15h-124l-64 -516h124c36 0 69 7 99 21s55.5 34 76.5 60s37.333 57.833 49 95.5s17.5 79.834 17.5 126.501z" />
    <glyph glyph-name="E" unicode="E" horiz-adv-x="536" 
d="M549 723l-13 -103h-291l-25 -206h228l-12 -100h-228l-26 -210h292l-14 -104h-422l90 723h421z" />
    <glyph glyph-name="F" unicode="F" horiz-adv-x="531" 
d="M536 620h-291l-27 -220h246l-14 -104h-244l-37 -296h-131l90 723h421z" />
    <glyph glyph-name="G" unicode="G" horiz-adv-x="677" 
d="M357 96c26.667 0 50.502 2.49902 71.502 7.49902s40.833 12.167 59.5 21.5l17 138h-80c-8 0 -14.167 2.16699 -18.5 6.5s-6.16602 9.83301 -5.49902 16.5l9 74h224l-36 -290c-36.667 -26.667 -76.167 -46.334 -118.5 -59.001s-90.5 -19 -144.5 -19
c-44 0 -84.167 8 -120.5 24s-67.5 38.333 -93.5 67s-46 62.5 -60 101.5c-14 38.333 -21 80.833 -21 127.5c0 40.667 4.66699 79.334 14 116.001s22.166 70.5 38.499 101.5s36.166 58.833 59.499 83.5s49.333 45.834 78 63.501s59.834 31.167 93.501 40.5s68.5 14 104.5 14
c29.333 0 56 -2.5 80 -7.5s45.667 -12.167 65 -21.5s36.666 -20 51.999 -32s29 -24.667 41 -38l-42 -54c-6.66699 -9.33301 -14.834 -15 -24.501 -17s-19.5 0.333008 -29.5 7c-9.33301 6.66699 -19 13 -29 19s-20.667 11.5 -32 16.5s-24.333 9 -39 12s-32 4.5 -52 4.5
c-36 0 -69 -7.33301 -99 -22s-55.667 -35.167 -77 -61.5s-38 -58 -50 -95s-18 -78.5 -18 -124.5c0 -34.667 4.33301 -65.667 13 -93s21 -50.5 37 -69.5s35.167 -33.5 57.5 -43.5s47.5 -15 75.5 -15z" />
    <glyph glyph-name="H" unicode="H" horiz-adv-x="717" 
d="M604 0h-131l39 318h-304l-39 -318h-131l90 723h130l-39 -313h305l38 313h131z" />
    <glyph glyph-name="I" unicode="I" horiz-adv-x="282" 
d="M169 0h-131l88 723h131z" />
    <glyph glyph-name="J" unicode="J" horiz-adv-x="409" 
d="M332 250c-5.33301 -40 -14.3301 -76.002 -26.9971 -108.002s-29.334 -59 -50.001 -81s-45.334 -39 -74.001 -51s-61.334 -18 -98.001 -18c-18 0 -35 1 -51 3s-32.667 5.66699 -50 11l10 76c1.33301 6.66699 3.83301 12.334 7.5 17.001s9.83398 7 18.501 7
c8 0 17 -1.16699 27 -3.5s22.667 -3.5 38 -3.5s29.666 2.66699 42.999 8s25 13.833 35 25.5s18.667 27 26 46c7.33301 19.667 12.333 42.834 15 69.501l58 475h130z" />
    <glyph glyph-name="K" unicode="K" horiz-adv-x="641" 
d="M218 418h28.002c12 0 22 1.66699 30 5s15.333 9 22 17l210 255c8 10.667 17 18 27 22s21.333 6 34 6h111l-256 -303c-7.33301 -9.33301 -14.5 -17 -21.5 -23s-14.5 -11 -22.5 -15c9.33301 -4 17.666 -9.33301 24.999 -16s14 -16 20 -28l184 -338h-115
c-8 0 -14.5 0.666992 -19.5 2s-9.33301 3 -13 5s-6.83398 4.66699 -9.50098 8s-5 7 -7 11l-149 269c-4 9.33301 -9.83301 15.833 -17.5 19.5c-7 3.66699 -17.833 5.5 -32.5 5.5h-40l-38 -320h-130l88 724h130z" />
    <glyph glyph-name="L" unicode="L" horiz-adv-x="483" 
d="M181 108h263l-12 -108h-394l90 723h129z" />
    <glyph glyph-name="M" unicode="M" horiz-adv-x="879" 
d="M416 289c2.66699 -8.66699 5.33398 -17.499 8.00098 -26.499s5 -18.167 7 -27.5c4 9.33301 8.33301 18.5 13 27.5s9.66699 17.833 15 26.5l251 413c4 4 7.66699 7.5 11 10.5s6.66602 5.33301 9.99902 7s7 2.66699 11 3s8.66699 0.5 14 0.5h98l-88 -723h-114l58 471
c1.33301 8 2.66602 17.167 3.99902 27.5s3.33301 20.833 6 31.5l-248 -412c-5.33301 -9.33301 -12.333 -16.333 -21 -21s-18 -7 -28 -7h-18c-10 0 -18.667 2.33301 -26 7s-13 11.667 -17 21l-148 412c0 -10.667 -0.5 -20.834 -1.5 -30.501s-1.83301 -18.5 -2.5 -26.5
l-57 -473h-115l90 723h97c5.33301 0 10 -0.166992 14 -0.5s7.5 -1.33301 10.5 -3s5.83301 -4 8.5 -7s5.33398 -6.5 8.00098 -10.5l150 -413v0z" />
    <glyph glyph-name="N" unicode="N" horiz-adv-x="717" 
d="M196 723c5.33301 0 10 -0.165039 14 -0.498047s7.33301 -1.33301 10 -3s5.33398 -3.83398 8.00098 -6.50098s5.33398 -6.33398 8.00098 -11.001l281 -494l2 28c0.666992 9.33301 1.66699 18 3 26l56 461h115l-89 -723h-67c-10 0 -18.333 1.66699 -25 5s-12.667 9 -18 17
l-280 494c-0.666992 -8 -1.33398 -15.667 -2.00098 -23s-1.33398 -14.333 -2.00098 -21l-57 -472h-115l90 723h68v0z" />
    <glyph glyph-name="O" unicode="O" horiz-adv-x="753" 
d="M726 410c0 -40 -4.33301 -78.002 -13 -114.002s-21.167 -69.667 -37.5 -101s-36.166 -59.333 -59.499 -84s-49.5 -46 -78.5 -64s-60.167 -31.667 -93.5 -41s-68.666 -14 -105.999 -14c-46 0 -87.333 8.16699 -124 24.5s-67.834 38.833 -93.501 67.5
s-45.5 62.5 -59.5 101.5s-21 81.167 -21 126.5c0 40 4.5 78.167 13.5 114.5s21.667 70 38 101s36.166 59 59.499 84s49.333 46.333 78 64s60 31.334 94 41.001s69.667 14.5 107 14.5c46 0 87.167 -8.16699 123.5 -24.5s67.5 -38.833 93.5 -67.5s45.667 -62.667 59 -102
s20 -81.666 20 -126.999zM594 406.998c0 32.667 -4.16699 62.3301 -12.5 88.9971s-20.333 49.5 -36 68.5s-34.5 33.667 -56.5 44s-47 15.5 -75 15.5c-36 0 -68.833 -7.33301 -98.5 -22s-55 -35.5 -76 -62.5s-37.167 -59.5 -48.5 -97.5c-11.333 -37.333 -17 -79.333 -17 -126
c0 -32.667 4 -62.5 12 -89.5s19.667 -49.833 35 -68.5s34 -33 56 -43s47 -15 75 -15c36 0 69 7.33301 99 22s55.5 35.334 76.5 62.001s37.333 58.834 49 96.501s17.5 79.834 17.5 126.501z" />
    <glyph glyph-name="P" unicode="P" horiz-adv-x="581" 
d="M199 256l-30.9971 -255.999h-130l88 723h220c41.333 0 76.666 -4.83301 105.999 -14.5s53.666 -23.5 72.999 -41.5s33.5 -39 42.5 -63s13.5 -50.667 13.5 -80c0 -38.667 -6.16699 -74.334 -18.5 -107.001s-30.5 -61 -54.5 -85s-54.333 -42.667 -91 -56
s-79.334 -20 -128.001 -20h-90zM244.003 623.001l-32 -266.001h90c25.333 0 47.333 3.83301 66 11.5s34.167 18.5 46.5 32.5s21.333 30.333 27 49s8.5 39.667 8.5 63c0 16 -2.33301 30.833 -7 44.5s-11.667 25.334 -21 35.001s-21.333 17.167 -36 22.5s-32 8 -52 8h-90z" />
    <glyph glyph-name="Q" unicode="Q" horiz-adv-x="753" 
d="M726 410c0 -38.667 -4 -75.335 -12 -110.002s-19.667 -67.167 -35 -97.5s-33.666 -58 -54.999 -83s-45.666 -46.167 -72.999 -63.5l145 -198h-106c-15.333 0 -29 2 -41 6s-22.333 12 -31 24l-83 116c-15.333 -4 -31 -7 -47 -9s-32.667 -3 -50 -3
c-46 0 -87.333 8.16699 -124 24.5s-67.834 38.833 -93.501 67.5s-45.5 62.5 -59.5 101.5s-21 81.167 -21 126.5c0 40 4.5 78.167 13.5 114.5s21.667 70 38 101s36.166 59 59.499 84s49.333 46.333 78 64s60 31.334 94 41.001s69.667 14.5 107 14.5
c46 0 87.167 -8.16699 123.5 -24.5s67.5 -38.833 93.5 -67.5s45.667 -62.667 59 -102s20 -81.666 20 -126.999zM594 406.999c0 32.667 -4.16699 62.3301 -12.5 88.9971s-20.333 49.5 -36 68.5s-34.5 33.667 -56.5 44s-47 15.5 -75 15.5c-36 0 -68.833 -7.33301 -98.5 -22
s-55 -35.5 -76 -62.5s-37.167 -59.5 -48.5 -97.5c-11.333 -37.333 -17 -79.333 -17 -126c0 -32.667 4 -62.5 12 -89.5s19.667 -49.833 35 -68.5s34 -33 56 -43s47 -15 75 -15c36 0 69 7.33301 99 22s55.5 35.334 76.5 62.001s37.333 58.834 49 96.501
s17.5 79.834 17.5 126.501z" />
    <glyph glyph-name="R" unicode="R" horiz-adv-x="599" 
d="M202 285l-33.998 -285.001h-130l88 723h206c41.333 0 77 -4.5 107 -13.5s54.5 -21.333 73.5 -37s33 -34.5 42 -56.5c9 -21.333 13.5 -45.333 13.5 -72c0 -28 -4 -54.333 -12 -79s-19.333 -47 -34 -67s-32.667 -37.5 -54 -52.5c-21.333 -15.667 -45.333 -27.5 -72 -35.5
c15.333 -9.33301 27.666 -22.666 36.999 -39.999l129 -270h-116c-22.667 0 -37.667 8.66699 -45 26l-106 234c-4 8.66699 -8.83301 15 -14.5 19s-14.834 6 -27.501 6h-51zM244.002 622.999l-30 -244.998h74c26 0 48.5 3.66699 67.5 11s34.667 17.666 47 30.999
s21.5 28.666 27.5 45.999s9 36.333 9 57c0 31.333 -9.83301 55.833 -29.5 73.5s-49.5 26.5 -89.5 26.5h-76z" />
    <glyph glyph-name="S" unicode="S" horiz-adv-x="515" 
d="M470 593c-4.66699 -6.66699 -9.16504 -11.4961 -13.498 -14.4961s-9.83301 -4.5 -16.5 -4.5s-13.5 2.66699 -20.5 8s-15.333 11.166 -25 17.499s-21.167 12.166 -34.5 17.499s-29.333 8 -48 8c-18 0 -34 -2.66699 -48 -8s-25.833 -12.666 -35.5 -21.999
s-16.834 -20.333 -21.501 -33s-7 -26.334 -7 -41.001c0 -15.333 4 -28 12 -38s18.333 -19 31 -27s27 -15 43 -21s32.5 -12.333 49.5 -19s33.667 -14.334 50 -23.001s30.833 -19.334 43.5 -32.001s23 -27.834 31 -45.501s12 -39.167 12 -64.5
c0 -35.333 -6.33301 -68.666 -19 -99.999s-30.334 -58.666 -53.001 -81.999s-50.334 -42 -83.001 -56s-69 -21 -109 -21c-21.333 0 -42 2.33301 -62 7s-39 11 -57 19s-34.667 18 -50 30s-29 25 -41 39l46 62c4 4.66699 8.83301 8.5 14.5 11.5
c6.33301 3 12.166 4.5 17.499 4.5s10.5 -1.66699 15.5 -5s10.667 -7.5 17 -12.5s13 -10.333 20 -16s15 -11 24 -16s19.5 -9.16699 31.5 -12.5s25.333 -5 40 -5c38 0 67.833 10.667 89.5 32s32.5 51 32.5 89c0 16.667 -4 30.334 -12 41.001s-18.333 19.667 -31 27
s-27 13.666 -43 18.999s-32.333 11.166 -49 17.499s-33 13.666 -49 21.999s-30.333 18.833 -43 31.5s-23 28.334 -31 47.001s-12 41.667 -12 69c0 30.667 5.83301 60.5 17.5 89.5s28.334 54.333 50.001 76s47.667 39 78 52c29.667 13 63.834 19.5 102.501 19.5
c20 0 39 -2 57 -6s35 -9.66699 51 -17s30.5 -16 43.5 -26c13.667 -10 25.167 -21 34.5 -33z" />
    <glyph glyph-name="T" unicode="T" horiz-adv-x="557" 
d="M592 723l-13 -107h-197l-76 -616h-130l76 616h-199l13 107h526z" />
    <glyph glyph-name="U" unicode="U" horiz-adv-x="691" 
d="M321 104c23.333 0 44.666 4.33301 63.999 13s36.333 21.167 51 37.5s26.834 35.833 36.501 58.5c9.66699 22 16.167 47 19.5 75l53 435h130l-53 -435c-5.33301 -42.667 -16.666 -82 -33.999 -118s-39.666 -67.333 -66.999 -94s-59 -47.334 -95 -62.001
s-75.667 -22 -119 -22c-42.667 0 -80.334 7.33301 -113.001 22s-59.334 35.334 -80.001 62.001s-35.167 58 -43.5 94s-9.83301 75.333 -4.5 118l52 435h130l-53 -434c-3.33301 -28 -3 -53.333 1 -76s11.333 -42.167 22 -58.5s24.5 -28.833 41.5 -37.5s37.5 -13 61.5 -13z
" />
    <glyph glyph-name="V" unicode="V" horiz-adv-x="649" 
d="M48 723h104.001c11.333 0 20.333 -2.83301 27 -8.5c7.33301 -5.66699 11.666 -12.5 12.999 -20.5l96 -451c4 -14 7.5 -29.333 10.5 -46c2.33301 -16.667 4.83301 -33.667 7.5 -51c5.33301 18 11.5 35.167 18.5 51.5c7.66699 16.333 14.834 31.5 21.501 45.5l206 451
c3.33301 7.33301 9.16602 14 17.499 20s17.833 9 28.5 9h105l-357 -723h-118z" />
    <glyph glyph-name="W" unicode="W" horiz-adv-x="968" 
d="M56 723l102.001 -0.00195312c11.333 0 20.333 -2.83301 27 -8.5s10.667 -12.5 12 -20.5l63 -444c1.33301 -10.667 2.33301 -22.167 3 -34.5c0.666992 -13 1.66699 -26.167 3 -39.5c8.66699 27.333 17.334 52 26.001 74l180 444c4 7.33301 10 14 18 20s17.333 9 28 9h30
c11.333 0 20.166 -2.83301 26.499 -8.5s10.833 -12.5 13.5 -20.5l72 -444c1.33301 -10.667 3 -22 5 -34s3.33301 -24.333 4 -37c4 13.333 7.83301 25.833 11.5 37.5s7.16699 22.834 10.5 33.501l171 444c1.33301 4 3.66602 7.66699 6.99902 11s7 6.33301 11 9
s8.66699 4.83398 14 6.50098s10.666 2.5 15.999 2.5h102l-296 -723h-117l-81 501c-1.33301 6.66699 -2.66602 13.667 -3.99902 21c-1.33301 8 -2 16 -2 24c-2.66699 -8 -5.5 -16 -8.5 -24s-5.83301 -15 -8.5 -21l-205 -501h-116z" />
    <glyph glyph-name="X" unicode="X" horiz-adv-x="630" 
d="M237 386l-162.999 337.001h118c8.66699 0 14.834 -1.16699 18.501 -3.5s6.83398 -6.83301 9.50098 -13.5l111 -248c1.33301 3.33301 3.16602 6.5 5.49902 9.5s4.5 6.5 6.5 10.5l154 227c7.33301 12 17 18 29 18h136l-246 -331l182 -392h-117
c-8.66699 0 -15.334 2.33301 -20.001 7s-8.33398 9.66699 -11.001 15l-126 290l-4 -8c-1.33301 -2.66699 -3 -5.33398 -5 -8.00098l-187 -274c-5.33301 -8 -11.5 -13.667 -18.5 -17c-6.33301 -3.33301 -13.5 -5 -21.5 -5h-130z" />
    <glyph glyph-name="Y" unicode="Y" horiz-adv-x="607" 
d="M366 282l-36.001 -281.999h-129l35 281l-188 442h115c11.333 0 20.166 -2.66699 26.499 -8c7 -4.66699 11.833 -11.667 14.5 -21l92 -250c4 -12 7.66699 -24 11 -36s6.33301 -23.333 9 -34c5.33301 10.667 11 21.667 17 33s12.667 23.666 20 36.999l155 250
c4.66699 8 10.834 14.833 18.501 20.5s16.834 8.5 27.501 8.5h108z" />
    <glyph glyph-name="Z" unicode="Z" horiz-adv-x="561" 
d="M587 723l-5 -41c-1.33301 -5.33301 -3.33301 -10.5 -6 -15.5c-2.66699 -4.33301 -5.66699 -9.16602 -9 -14.499l-399 -548h334l-12 -104h-508l4 40c0.666992 5.33301 2.5 10.5 5.5 15.5c3 4.33301 5.83301 9.16602 8.5 14.499l401 550h-321l12 103h495z" />
    <glyph glyph-name="bracketleft" unicode="[" horiz-adv-x="298" 
d="M24 -152l114.002 924h192l-6 -46c-1.33301 -8 -5.33301 -15 -12 -21s-14.334 -9 -23.001 -9h-61l-95 -772h61c9.33301 0 16.666 -3 21.999 -9s7.33301 -13 6 -21l-6 -46h-192z" />
    <glyph glyph-name="backslash" unicode="\" horiz-adv-x="426" 
d="M78 728l51 -0.000976562c14.667 0 26.667 -3.66699 36 -11c8.66699 -7.33301 15 -17.666 19 -30.999l172 -734h-50c-12.667 0 -24.5 3.66699 -35.5 11s-18.5 18.333 -22.5 33z" />
    <glyph glyph-name="bracketright" unicode="]" horiz-adv-x="298" 
d="M-25 -106c1.33301 8.66699 5.16797 15.833 11.501 21.5s14.166 8.5 23.499 8.5h61l95 772h-62c-9.33301 0 -16.333 3 -21 9s-7 13 -7 21l7 46h191l-114 -924h-191z" />
    <glyph glyph-name="asciicircum" unicode="^" horiz-adv-x="580" 
d="M541 388l-90.998 0.000976562c-8 0 -14.333 2 -19 6s-8.33398 9 -11.001 15l-80 145c-5.33301 9.33301 -10 18.166 -14 26.499c-4 9 -7.33301 17.5 -10 25.5c-2.66699 -8.66699 -5.83398 -17.334 -9.50098 -26.001c-3 -8 -7.16699 -16.667 -12.5 -26l-78 -145
c-2.66699 -5.33301 -6.66699 -10.166 -12 -14.499s-12.333 -6.5 -21 -6.5h-95l186 335h80z" />
    <glyph glyph-name="underscore" unicode="_" horiz-adv-x="444" 
d="M358 -69l-10 -77h-362l10 77h362z" />
    <glyph glyph-name="grave" unicode="`" 
d="M226 731c12 0 20.833 -2.16797 26.5 -6.50098c5 -4.33301 9.5 -11.166 13.5 -20.499l52 -121h-64c-8.66699 0 -15.667 1.16699 -21 3.5s-10.333 6.83301 -15 13.5l-99 131h107z" />
    <glyph glyph-name="a" unicode="a" horiz-adv-x="521" 
d="M428 0h-65.999c-16 0 -26.667 4 -32 12s-8 17.667 -8 29l4 66c-22.667 -35.333 -48.167 -63.333 -76.5 -84s-59.5 -31 -93.5 -31c-19.333 0 -37.5 4 -54.5 12s-31.667 19.5 -44 34.5s-22 34 -29 57s-10.5 49.833 -10.5 80.5s3.66699 60.334 11 89.001
s18.166 55.834 32.499 81.501s31.5 49.167 51.5 70.5s42.5 39.666 67.5 54.999s51.833 27.166 80.5 35.499s59 12.5 91 12.5c22.667 0 45.667 -1.66699 69 -5s46 -9 68 -17zM204.001 94c13.333 0 26.666 4.66895 39.999 14.002s26 22.333 38 39s23 36 33 58s18.333 46 25 72
l20 155c-9.33301 1.33301 -18 1.66602 -26 0.999023c-28 0 -53.667 -6.33301 -77 -19s-43.666 -29.834 -60.999 -51.501s-30.833 -46.667 -40.5 -75c-9.66699 -27.667 -14.5 -57.5 -14.5 -89.5c0 -36 5.5 -62.333 16.5 -79s26.5 -25 46.5 -25z" />
    <glyph glyph-name="b" unicode="b" horiz-adv-x="539" 
d="M20 0l90.002 742.999h121l-41 -331c24 33.333 50.833 59.833 80.5 79.5s61.167 29.5 94.5 29.5c21.333 0 40.666 -3.83301 57.999 -11.5s32.166 -19.5 44.499 -35.5s21.833 -36 28.5 -60s10 -52 10 -84c0 -29.333 -3 -58 -9 -86s-14.333 -54.333 -25 -79
s-23.667 -47.667 -39 -69s-32.333 -39.666 -51 -54.999s-38.667 -27.333 -60 -36s-43.333 -13 -66 -13c-26.667 0 -50 5.33301 -70 16s-37.333 25 -52 43l-4 -17c-4 -12 -8.83301 -20.667 -14.5 -26s-15.167 -8 -28.5 -8h-67zM317.002 423.999
c-13.333 0 -27.167 -4.66699 -41.5 -14s-27.833 -22 -40.5 -38s-24.667 -35 -36 -57s-21 -45.667 -29 -71l-16 -124c11.333 -12 24.5 -20.667 39.5 -26s29.5 -8 43.5 -8c22 0 42 7 60 21s33.333 32 46 54s22.667 46.667 30 74s11 55 11 83c0 36 -5.83301 62.667 -17.5 80
s-28.167 26 -49.5 26z" />
    <glyph glyph-name="c" unicode="c" horiz-adv-x="453" 
d="M416 91c-17.333 -18.667 -33.6699 -34.3301 -49.0029 -46.9971s-31 -22.834 -47 -30.501s-32.833 -13.167 -50.5 -16.5c-17 -3.33301 -36.167 -5 -57.5 -5c-29.333 0 -56 5.16699 -80 15.5s-44 24.833 -60 43.5s-28.333 41.167 -37 67.5s-13 55.5 -13 87.5
c0 28 3 55.167 9 81.5s14.667 51.166 26 74.499s25 44.666 41 63.999s34 36 54 50s41.667 24.833 65 32.5s48.333 11.5 75 11.5c34 0 62.833 -6 86.5 -18s44.834 -30 63.501 -54l-40 -46c-2.66699 -2.66699 -6 -5.33398 -10 -8.00098s-8.33301 -4 -13 -4
c-5.33301 0 -10.333 1.66699 -15 5s-10.167 7 -16.5 11s-14 7.66699 -23 11s-20.833 5 -35.5 5c-18.667 0 -36.834 -5 -54.501 -15s-33.167 -24.667 -46.5 -44s-23.833 -42.333 -31.5 -69s-11.5 -56 -11.5 -88c0 -37.333 8.33301 -66.333 25 -87s39.334 -31 68.001 -31
c12.667 0 23.834 1.33301 33.501 4s18.167 6 25.5 10s14 8.16699 20 12.5s11.333 8.33301 16 12s9.33398 6.83398 14.001 9.50098s9.66699 4 15 4c4 0 8 -1 12 -3s7.33301 -4.66699 10 -8l32 -38v0z" />
    <glyph glyph-name="d" unicode="d" horiz-adv-x="539" 
d="M379 0c-16 0 -26.668 4.00098 -32.001 12.001s-8 17.667 -8 29l4 71c-12 -18.667 -25.167 -35.334 -39.5 -50.001s-29 -27 -44 -37s-30.667 -18 -47 -24s-33.166 -9 -50.499 -9c-21.333 0 -40.666 4 -57.999 12s-32.333 19.833 -45 35.5s-22.334 35.5 -29.001 59.5
s-10 52.333 -10 85c0 29.333 3 57.833 9 85.5s14.667 54 26 79s24.5 48 39.5 69s31.833 39.167 50.5 54.5s38.5 27.333 59.5 36s42.833 13 65.5 13s43.5 -4.16699 62.5 -12.5s35.5 -19.833 49.5 -34.5l34 269h120l-92 -743h-65zM209.999 90.001c13.333 0 27 4.5 41 13.5
s27.333 21.667 40 38s24.667 35.5 36 57.5s21 45.667 29 71l16 124c-11.333 12 -24.333 20.5 -39 25.5c-14 5 -28.333 7.5 -43 7.5c-22 0 -42.167 -6.83301 -60.5 -20.5s-33.833 -31.5 -46.5 -53.5s-22.5 -46.667 -29.5 -74s-10.5 -55 -10.5 -83
c0 -36 5.83301 -62.667 17.5 -80s28.167 -26 49.5 -26z" />
    <glyph glyph-name="e" unicode="e" horiz-adv-x="487" 
d="M456 394c0 -22.667 -4.67285 -43.6641 -14.0059 -62.9971s-25.833 -36.333 -49.5 -51s-55.667 -27.5 -96 -38.5c-40.333 -10.333 -91.833 -18.833 -154.5 -25.5v-7c0 -80.667 34 -121 102 -121c14.667 0 27.667 1.33301 39 4s21.333 6 30 10s16.334 8.66699 23.001 14
s13 10 19 14s11.667 7.33301 17 10s11.333 4 18 4c4 0 8 -1 12 -3s7.33301 -4.66699 10 -8l32 -38c-17.333 -17.333 -34.666 -32.5 -51.999 -45.5s-34.666 -23.833 -51.999 -32.5s-36 -15 -56 -19s-41.333 -6 -64 -6c-30 0 -57.167 5.16699 -81.5 15.5
s-45.166 24.666 -62.499 42.999s-30.666 40.666 -39.999 66.999c-9.33301 27 -14 56.5 -14 88.5c0 26.667 2.83301 53 8.5 79s14 50.667 25 74s24.5 44.833 40.5 64.5s34 36.667 54 51s42.167 25.5 66.5 33.5c23.667 8 49.5 12 77.5 12c26.667 0 50.167 -3.83301 70.5 -11.5
s37.333 -17.667 51 -30s23.834 -25.833 30.501 -40.5s10 -29.334 10 -44.001zM287.994 434.003c-16.667 0 -32.167 -3.33203 -46.5 -9.99902s-27.333 -16.334 -39 -29.001s-21.834 -27.5 -30.501 -44.5c-8 -17.667 -14.667 -36.5 -20 -56.5
c41.333 5.33301 74.5 11.5 99.5 18.5s44.333 14.5 58 22.5s22.834 16.5 27.501 25.5s7 18.833 7 29.5c0 5.33301 -1 10.5 -3 15.5s-5.33301 9.66699 -10 14s-10.5 7.83301 -17.5 10.5s-15.5 4 -25.5 4z" />
    <glyph glyph-name="f" unicode="f" horiz-adv-x="331" 
d="M224 420l-48 -398.999l-26 -94c-5.33301 -16 -12.666 -28.5 -21.999 -37.5s-23.333 -13.5 -42 -13.5h-49l65 544l-39 8c-8 1.33301 -14.5 4.33301 -19.5 9s-6.83301 11.667 -5.5 21l6 50h70l4 38c4 29.333 11.833 55.666 23.5 78.999s26.667 43.333 45 60
s39.166 29.334 62.499 38.001s49 13 77 13c21.333 0 40.666 -3.33301 57.999 -10l-10 -64c-1.33301 -8 -6 -12.667 -14 -14s-16.667 -2 -26 -2c-13.333 0 -25.666 -1.83301 -36.999 -5.5s-21.333 -9.66699 -30 -18s-15.667 -19 -21 -32
c-5.33301 -13.667 -9.33301 -29.834 -12 -48.501l-4 -34h116l-12 -88h-110z" />
    <glyph glyph-name="g" unicode="g" horiz-adv-x="502" 
d="M434 364c0 -15.333 -1.66309 -29.001 -4.99609 -41.001s-7.5 -23.167 -12.5 -33.5s-10.333 -20.166 -16 -29.499s-10.834 -18.666 -15.501 -27.999s-8.66699 -19.333 -12 -30s-5 -22 -5 -34c0 -13.333 2.66699 -26 8 -38s11.333 -24 18 -36s13 -24.667 19 -38
s9 -29.333 9 -48c0 -25.333 -5.83301 -49.333 -17.5 -72s-28 -42.667 -49 -60s-46.833 -31 -77.5 -41s-65.334 -15 -104.001 -15c-31.333 0 -59.833 3.33301 -85.5 10s-47.167 15.834 -64.5 27.501s-31 25.334 -41 41.001s-15 33.167 -15 52.5c0 23.333 5 43.666 15 60.999
s23.333 32 40 44s36 21.333 58 28s44.667 11.5 68 14.5s46.666 4.16699 69.999 3.5s45 -2.66699 65 -6c-2.66699 10.667 -4.33398 21.667 -5.00098 33c0 19.333 5.33301 40.666 16 63.999c-13.333 -8.66699 -28 -15.334 -44 -20.001c-15.333 -4.66699 -34.333 -7 -57 -7
c-19.333 0 -37.833 3.16699 -55.5 9.5s-33.167 16 -46.5 29s-24 29.167 -32 48.5s-12 42.333 -12 69c0 25.333 4.66699 49.666 14 72.999s23.333 44.5 42 63.5s41.334 34.167 68.001 45.5s58 17 94 17c18.667 0 36.667 -2.16699 54 -6.5s33.333 -11.166 48 -20.499h143
l-5 -40c-2.66699 -16 -11 -26.667 -25 -32l-53 -14c1.33301 -6.66699 2.66602 -13.667 3.99902 -21s2 -15 2 -23zM228.004 239.999c14.667 0 27.833 3.66895 39.5 11.002s21.334 16.666 29.001 27.999s13.5 24 17.5 38s6.33301 28.333 7 43
c0 25.333 -5.83301 44.666 -17.5 57.999s-28.834 20 -51.501 20c-14.667 0 -27.667 -3.33301 -39 -10s-21 -15.334 -29 -26.001s-13.833 -23 -17.5 -37s-5.5 -28.667 -5.5 -44c0 -25.333 5.83301 -45.166 17.5 -59.499s28.167 -21.5 49.5 -21.5zM309.003 -1.99902
c0 4.66699 -0.167969 9.16797 -0.500977 13.501s-1.16602 8.5 -2.49902 12.5c-39.333 6.66699 -72.833 9.66699 -100.5 9s-50.5 -4 -68.5 -10s-31 -14 -39 -24s-12 -21 -12 -33c0 -20 8 -35 24 -45s40.667 -15 74 -15c18.667 0 35.667 2.33301 51 7s28.5 11 39.5 19
s19.5 17.667 25.5 29s9 23.666 9 36.999z" />
    <glyph glyph-name="h" unicode="h" horiz-adv-x="541" 
d="M20 0l90.002 742.999h124l-39 -317c25.333 32 52.5 55.833 81.5 71.5s58.833 23.5 89.5 23.5c21.333 0 40.666 -4.33301 57.999 -13s31.333 -21.167 42 -37.5s18.334 -36.666 23.001 -60.999c4.66699 -25 5 -52.833 1 -83.5l-39 -326h-123l38 326
c4 33.333 2.33301 57.333 -5 72s-21.666 22 -42.999 22c-12.667 0 -25.834 -3.5 -39.501 -10.5s-26.834 -17 -39.501 -30s-24.334 -28.833 -35.001 -47.5s-20 -39.667 -28 -63l-32 -269h-124z" />
    <glyph glyph-name="i" unicode="i" horiz-adv-x="245" 
d="M208 513l-62 -513h-121l61 513h122zM240 662c0 -10.667 -2.33301 -20.667 -7 -30s-10.667 -17.333 -18 -24s-15.666 -12.167 -24.999 -16.5s-19 -6.5 -29 -6.5c-9.33301 0 -18.5 2.16699 -27.5 6.5s-17.167 9.83301 -24.5 16.5s-13 14.667 -17 24s-6 19.333 -6 30
s2.16699 21 6.5 31s10 18.5 17 25.5s15.167 12.667 24.5 17s18.666 6.5 27.999 6.5c10 0 19.667 -2.16699 29 -6.5s17.5 -10 24.5 -17s12.833 -15.5 17.5 -25.5s7 -20.333 7 -31z" />
    <glyph glyph-name="j" unicode="j" horiz-adv-x="244" 
d="M208 513l-65 -531c-2.66699 -22.667 -8.16699 -43.667 -16.5 -63s-19.833 -36.333 -34.5 -51s-32 -26.334 -52 -35.001s-43 -13 -69 -13c-13.333 0 -24.666 0.666992 -33.999 2s-18.666 4 -27.999 8l12 66c1.33301 6.66699 4.33301 11 9 13s12.667 3 24 3
c10.667 0 20 1.16699 28 3.5s14.667 6.33301 20 12s9.66602 12.834 12.999 21.501s5.66602 19.667 6.99902 33l64 531h122zM235 662c0 -10.667 -2.16797 -20.667 -6.50098 -30s-10.166 -17.333 -17.499 -24s-15.666 -12.167 -24.999 -16.5s-19.333 -6.5 -30 -6.5
c-9.33301 0 -18.5 2.16699 -27.5 6.5s-17 9.83301 -24 16.5s-12.5 14.667 -16.5 24s-6 19.333 -6 30s2 21 6 31s9.66699 18.5 17 25.5s15.5 12.667 24.5 17c9.66699 4.33301 19.167 6.5 28.5 6.5c10 0 19.5 -2.16699 28.5 -6.5s17.167 -10 24.5 -17
s13.166 -15.5 17.499 -25.5s6.5 -20.333 6.5 -31z" />
    <glyph glyph-name="k" unicode="k" horiz-adv-x="500" 
d="M232 743l-51.999 -425h12c8 0 14.333 1 19 3s9.66699 6.33301 15 13l137 158c5.33301 6.66699 11.166 11.834 17.499 15.501s14.5 5.5 24.5 5.5h110l-169 -191c-12 -14.667 -25 -26 -39 -34c6.66699 -4.66699 12.167 -10.334 16.5 -17.001s8.5 -14 12.5 -22l126 -249
h-107c-9.33301 0 -16.833 1.66699 -22.5 5s-10.5 9 -14.5 17l-100 194c-4 8 -8 13.167 -12 15.5s-10.667 3.5 -20 3.5h-16l-29 -235h-122l91 743h122z" />
    <glyph glyph-name="l" unicode="l" horiz-adv-x="238" 
d="M22 0l90 743h122l-91 -743h-121z" />
    <glyph glyph-name="m" unicode="m" horiz-adv-x="793" 
d="M20 0l62.002 514h63c13.333 0 23.5 -3.33301 30.5 -10s10.5 -16.667 10.5 -30l-2 -57c22.667 34.667 47.5 60.667 74.5 78s55.167 26 84.5 26c31.333 0 56.166 -10.5 74.499 -31.5c19 -21 29.833 -51.5 32.5 -91.5c24 42 50.5 73 79.5 93c28.333 20 59.833 30 94.5 30
c21.333 0 40.333 -4.33301 57 -13s30.167 -21.167 40.5 -37.5s17.333 -36.666 21 -60.999c3.66699 -25 3.5 -52.833 -0.5 -83.5l-38 -326h-122l38 326c4 33.333 3 57.333 -3 72s-18.333 22 -37 22c-12.667 0 -25 -3.33301 -37 -10s-23.5 -16.334 -34.5 -29.001
s-21 -28.167 -30 -46.5c-9.66699 -19 -17.834 -39.833 -24.501 -62.5l-32 -272h-122l40 326c4 33.333 3 57.333 -3 72s-18.333 22 -37 22c-13.333 0 -26 -3.5 -38 -10.5s-23.5 -17 -34.5 -30s-21 -29 -30 -48s-17.167 -40.167 -24.5 -63.5l-32 -268h-121z" />
    <glyph glyph-name="n" unicode="n" horiz-adv-x="541" 
d="M20 0l62 513.997h62c13.333 0 23.666 -3.33301 30.999 -10s11 -16.667 11 -30l-4 -67c26 38.667 54.833 67.334 86.5 86.001s64.5 28 98.5 28c21.333 0 40.5 -4.33301 57.5 -13s31 -21.167 42 -37.5s18.667 -36.666 23 -60.999c4.33301 -25 4.5 -52.833 0.5 -83.5
l-38 -326h-124l39 326c4 33.333 2.16699 57.333 -5.5 72s-21.5 22 -41.5 22c-13.333 0 -27.333 -4 -42 -12s-28.667 -19.167 -42 -33.5s-25.666 -31.666 -36.999 -51.999s-20.333 -42.833 -27 -67.5l-28 -255h-124z" />
    <glyph glyph-name="o" unicode="o" horiz-adv-x="523" 
d="M231 88c20.667 0 39.333 5.83105 56 17.498s30.834 27.334 42.501 47.001s20.667 42.834 27 69.501s9.5 54.334 9.5 83.001c0 41.333 -7 71.833 -21 91.5s-35.333 29.5 -64 29.5c-20.667 0 -39.334 -5.83301 -56.001 -17.5s-31 -27.334 -43 -47.001
s-21 -42.834 -27 -69.501s-9 -54.667 -9 -84c0 -41.333 6.83301 -71.666 20.5 -90.999s35.167 -29 64.5 -29zM219.999 -8.00195c-28 0 -54.168 4.83203 -78.501 14.499s-45.333 23.667 -63 42s-31.5 40.833 -41.5 67.5s-15 57.334 -15 92.001
c0 44 7.16699 85.167 21.5 123.5s33.666 71.5 57.999 99.5s52.833 50 85.5 66s67.667 24 105 24c28 0 54.167 -4.83301 78.5 -14.5s45.333 -23.5 63 -41.5s31.5 -40.333 41.5 -67s15 -57.334 15 -92.001c0 -44 -7.33301 -85 -22 -123s-34.167 -71.167 -58.5 -99.5
s-52.666 -50.666 -84.999 -66.999s-67.166 -24.5 -104.499 -24.5z" />
    <glyph glyph-name="p" unicode="p" horiz-adv-x="539" 
d="M0 -168l82 681.999h63c13.333 0 23.5 -3.33301 30.5 -10s10.5 -16.667 10.5 -30l-4 -74c24.667 37.333 52.667 66.833 84 88.5c32 21.667 65.333 32.5 100 32.5c21.333 0 40.666 -3.83301 57.999 -11.5s32 -19.5 44 -35.5s21.333 -36 28 -60s10 -52 10 -84
c0 -29.333 -3 -58 -9 -86s-14.333 -54.333 -25 -79s-23.667 -47.667 -39 -69s-32.333 -39.666 -51 -54.999s-38.667 -27.333 -60 -36s-43.333 -13 -66 -13c-23.333 0 -44.166 4.33301 -62.499 13s-34.5 20 -48.5 34l-25 -207h-120zM317 423.999
c-13.333 0 -27.167 -4.66699 -41.5 -14s-27.833 -22 -40.5 -38s-24.667 -35 -36 -57s-21 -45.667 -29 -71l-15 -124c11.333 -12 24.333 -20.667 39 -26s29 -8 43 -8c22 0 42 7 60 21s33.5 32 46.5 54s23 46.667 30 74s10.5 55 10.5 83c0 36 -5.83301 62.667 -17.5 80
s-28.167 26 -49.5 26z" />
    <glyph glyph-name="q" unicode="q" horiz-adv-x="521" 
d="M406 -168l-79.999 0.00195312c-8 0 -14.333 1.5 -19 4.5s-8.5 6.66699 -11.5 11s-5 9.16602 -6 14.499s-0.833008 10.666 0.5 15.999l27 215c-22 -31.333 -46.333 -56 -73 -74s-56 -27 -88 -27c-19.333 0 -37.5 4 -54.5 12s-31.667 19.5 -44 34.5s-22 34 -29 57
s-10.5 49.833 -10.5 80.5s3.66699 60.334 11 89.001s18.166 55.834 32.499 81.501s31.5 49.167 51.5 70.5s42.5 39.666 67.5 54.999s51.833 27.166 80.5 35.499s59 12.5 91 12.5c23.333 0 46.5 -1.66699 69.5 -5s45.833 -9 68.5 -17zM205.001 94.002
c13.333 0 26.499 4.67188 39.499 14.0049s25.5 22.166 37.5 38.499s23 35.666 33 57.999s18.333 46.166 25 71.499l20 156c-9.33301 1.33301 -17.666 1.66602 -24.999 0.999023c-28 0 -53.833 -6.33301 -77.5 -19s-44 -29.834 -61 -51.501s-30.333 -46.667 -40 -75
c-9.66699 -27.667 -14.5 -57.5 -14.5 -89.5c0 -36 5.5 -62.333 16.5 -79s26.5 -25 46.5 -25z" />
    <glyph glyph-name="r" unicode="r" horiz-adv-x="353" 
d="M20 0l62 514h63c13.333 0 23.5 -3.33301 30.5 -10s10.5 -16.667 10.5 -30l-4 -84c13.333 25.333 27.333 47 42 65s30 32.167 46 42.5s32.5 16.333 49.5 18s34.167 -0.833008 51.5 -7.5l-23 -118c-41.333 17.333 -77 13 -107 -13s-54.333 -76.333 -73 -151l-27 -226h-121z
" />
    <glyph glyph-name="s" unicode="s" horiz-adv-x="405" 
d="M362 416c-4 -5.33301 -7.66699 -8.99707 -11 -10.9971s-7.66602 -3 -12.999 -3c-6 0 -11.833 1.66699 -17.5 5s-12.5 7 -20.5 11s-17 7.66699 -27 11s-22.333 5 -37 5c-26.667 0 -46.834 -5.83301 -60.501 -17.5c-13.667 -12.333 -20.5 -27.166 -20.5 -44.499
c0 -13.333 4.83301 -24.166 14.5 -32.499s22.167 -15.666 37.5 -21.999s31.5 -12.833 48.5 -19.5s33 -14.834 48 -24.501s27.5 -22.334 37.5 -38.001s15 -35.5 15 -59.5c0 -24.667 -5 -48.167 -15 -70.5s-24.167 -41.833 -42.5 -58.5s-40.333 -30 -66 -40
s-54.834 -15 -87.501 -15c-16 0 -31.667 1.66699 -47 5s-29.5 7.66602 -42.5 12.999s-25.167 12 -36.5 20s-20.666 16.333 -27.999 25l31 47c4 5.33301 8.33301 9.66602 13 12.999s10.667 5 18 5c6.66699 0 12.834 -2.33301 18.501 -7s12.334 -9.5 20.001 -14.5
s17 -9.66699 28 -14s24.833 -6.5 41.5 -6.5c13.333 0 25.333 1.83301 36 5.5s19.667 8.66699 27 15s12.833 13.666 16.5 21.999s5.5 17.166 5.5 26.499c0 11.333 -2.83301 20.666 -8.5 27.999s-13.334 13.833 -23.001 19.5s-20.5 10.667 -32.5 15
s-24.167 8.83301 -36.5 13.5s-24.333 10 -36 16s-22.334 13.5 -32.001 22.5s-17.334 20 -23.001 33s-8.5 29.167 -8.5 48.5c0 22.667 4.33301 44.834 13 66.501s21.334 40.667 38.001 57s37.334 29.5 62.001 39.5s52.667 15 84 15c32.667 0 61.667 -5.5 87 -16.5
s46.666 -25.167 63.999 -42.5z" />
    <glyph glyph-name="t" unicode="t" horiz-adv-x="366" 
d="M64 104v8.99707c0 3.33301 0.166992 8 0.5 14s1 14 2 24s2.83301 23 5.5 39l28 230h-48c-6 0 -11 2.33301 -15 7s-5.33301 11 -4 19l5 50l78 13l42 140c2.66699 6.66699 6.16699 11.834 10.5 15.501c5 3.66699 10.833 5.5 17.5 5.5h66l-20 -162h124l-11 -88h-125
l-27 -223c-1.33301 -13.333 -2.5 -24.166 -3.5 -32.499s-1.83301 -14.666 -2.5 -18.999s-1 -7.33301 -1 -9v-4.5c0 -12.667 3 -22.5 9 -29.5s15 -10.5 27 -10.5c6.66699 0 12.5 0.833008 17.5 2.5s9.33301 3.5 13 5.5s7 3.83301 10 5.5s5.83301 2.5 8.5 2.5
c4 0 6.83301 -0.833008 8.5 -2.5c1.66699 -1 3.5 -3.5 5.5 -7.5l27 -60c-18.667 -14.667 -39 -26 -61 -34s-44.667 -12 -68 -12c-36 0 -64.5 9.66699 -85.5 29s-32.167 47 -33.5 83z" />
    <glyph glyph-name="u" unicode="u" horiz-adv-x="541" 
d="M200 513l-38 -324.999c-4 -33.333 -2.33301 -57.333 5 -72s21.333 -22 42 -22c13.333 0 26.833 3.66699 40.5 11s27.167 17.666 40.5 30.999s25.333 29.666 36 48.999s20 41 28 65l31 263h123l-62 -513h-62c-29.333 0 -44 14 -44 42l3 60
c-26 -36.667 -54.333 -64.167 -85 -82.5s-62.667 -27.5 -96 -27.5c-21.333 0 -40.5 4.33301 -57.5 13s-31 21.334 -42 38.001s-18.833 37.167 -23.5 61.5c-4.66699 25 -5 52.833 -1 83.5l39 325h123z" />
    <glyph glyph-name="v" unicode="v" horiz-adv-x="491" 
d="M29 513l100.999 0.00195312c8.66699 0 15.667 -2.16699 21 -6.5s8.66602 -9.83301 9.99902 -16.5l53 -274c2.66699 -16.667 5 -32.834 7 -48.501s3.33301 -31.5 4 -47.5c5.33301 16 10.833 31.667 16.5 47s11.834 31.666 18.501 48.999l122 274
c2.66699 6.66699 7.33398 12.167 14.001 16.5s13.667 6.5 21 6.5h97l-253 -513h-103z" />
    <glyph glyph-name="w" unicode="w" horiz-adv-x="738" 
d="M32 513l93.999 -0.000976562c8 0 14.667 -2.16699 20 -6.5s8.66602 -9.83301 9.99902 -16.5l30 -274c1.33301 -14.667 2.33301 -29 3 -43s1.33398 -27.667 2.00098 -41c5.33301 14 10.5 27.833 15.5 41.5s10.833 27.834 17.5 42.501l111 275
c2.66699 6.66699 7 12.167 13 16.5c5.33301 4.33301 12 6.5 20 6.5h53c8.66699 0 15.667 -2.16699 21 -6.5s8.33301 -9.83301 9 -16.5l43 -275c2 -14.667 3.83301 -29 5.5 -43s3.16699 -28.333 4.5 -43c4 14 8.16699 28.167 12.5 42.5
c3.66699 14.333 8.16699 28.833 13.5 43.5l100 274c2.66699 6.66699 7 12.167 13 16.5s12.667 6.5 20 6.5h91l-212 -513h-96c-10.667 0 -17 7.33301 -19 22l-49 296c-1.33301 13.333 -2.66602 26.333 -3.99902 39c-2.66699 -6.66699 -5.16699 -13.167 -7.5 -19.5
s-4.83301 -12.833 -7.5 -19.5l-121 -296c-6.66699 -14.667 -16 -22 -28 -22h-91z" />
    <glyph glyph-name="x" unicode="x" horiz-adv-x="487" 
d="M164 277l-119.001 235.999h112c8 0 13.833 -1.16699 17.5 -3.5s6.83398 -6.16602 9.50098 -11.499l70 -153c2 4 4.16699 8 6.5 12c2.33301 4.66699 5.16602 9 8.49902 13l91 126c6.66699 12 15.334 17.667 26.001 17h112l-180 -236l132 -277h-112
c-8 0 -14.5 2.33301 -19.5 7s-8.83301 9.66699 -11.5 15l-79 180c-1.33301 -4 -3 -7.66699 -5 -11s-4.33301 -6.33301 -7 -9l-114 -160c-4 -5.33301 -8.66699 -10.333 -14 -15s-12 -7 -20 -7h-108z" />
    <glyph glyph-name="y" unicode="y" horiz-adv-x="491" 
d="M177 -142c-4.66699 -8.66699 -10.167 -15.168 -16.5 -19.501s-14.166 -6.5 -23.499 -6.5h-91l114 207l-130 474h104c9.33301 0 16 -2.16699 20 -6.5s7 -9.83301 9 -16.5l63 -266c4 -17.333 6.66699 -34.333 8 -51c4 8.66699 7.66699 17.334 11 26.001s7 17 11 25l127 266
c3.33301 6.66699 8.16602 12.167 14.499 16.5s12.833 6.5 19.5 6.5h99z" />
    <glyph glyph-name="z" unicode="z" horiz-adv-x="433" 
d="M422 462c-0.666992 -8.66699 -2.83301 -17.168 -6.5 -25.501s-8.16699 -15.166 -13.5 -20.499l-256 -321h226l-12 -95h-372l6 52c0 5.33301 2 12 6 20s8.66699 15.333 14 22l258 324h-220l12 95h365z" />
    <glyph glyph-name="braceleft" unicode="{" horiz-adv-x="290" 
d="M74 220c0 16 -3.99902 29.3281 -11.999 39.9951s-20 16 -36 16l9 68c24.667 0 41.834 10.333 51.501 31s14.5 52.334 14.5 95.001c0 5.33301 -0.166992 11.333 -0.5 18s-0.5 13.834 -0.5 21.501s-0.333008 15 -1 22s-1 13.5 -1 19.5c0 35.333 4 66.666 12 93.999
s20.167 50.5 36.5 69.5s36.833 33.333 61.5 43s53.667 14.5 87 14.5h24l-7 -53c0 -4 -1 -7.5 -3 -10.5s-4.5 -5.5 -7.5 -7.5s-6 -3.33301 -9 -4s-5.83301 -1 -8.5 -1h-3c-22 0 -39.333 -8 -52 -24s-20.334 -38.667 -23.001 -68
c-1.33301 -17.333 -2.33301 -33.666 -3 -48.999s-1 -30.5 -1 -45.5v-44c0 -14.333 -0.666992 -28.5 -2 -42.5c-2.66699 -28 -11.667 -52.167 -27 -72.5s-35 -34.166 -59 -41.499c19.333 -6.66699 34.166 -18.167 44.499 -34.5s15.5 -35.166 15.5 -56.499
c0 -19.333 -2.33301 -38.166 -7 -56.499s-9.66699 -36.833 -15 -55.5s-10 -37.334 -14 -56.001s-6 -38 -6 -58s4.5 -36.333 13.5 -49s22.5 -19 40.5 -19h4c2.66699 0 5.33398 -0.333008 8.00098 -1s5.16699 -2 7.5 -4s4.16602 -4.66699 5.49902 -8s1.66602 -7 0.999023 -11
l-6 -52h-25c-26.667 0 -49.5 3.33301 -68.5 10s-34.833 16.334 -47.5 29.001s-22 27.667 -28 45s-9 36.666 -9 57.999s2.33301 41.833 7 61.5s9.83398 38.834 15.501 57.501s11 37.167 16 55.5s7.5 36.833 7.5 55.5z" />
    <glyph glyph-name="bar" unicode="|" horiz-adv-x="269" 
d="M86 774h96v-942h-96v942z" />
    <glyph glyph-name="braceright" unicode="}" horiz-adv-x="290" 
d="M190 150l0.00683594 -18.499c0 -7 0.333008 -14.167 1 -21.5s1 -14.666 1 -21.999v-19c0 -70.667 -16 -125.167 -48 -163.5s-81.333 -57.5 -148 -57.5h-24l7 52c0 4 1.16699 7.66699 3.5 11s4.83301 6 7.5 8s5.5 3.33301 8.5 4c2.33301 0.666992 4.83301 1 7.5 1h4
c22 0 39.5 8 52.5 24s20.5 38.667 22.5 68c1.33301 17.333 2.33301 33.666 3 48.999s1 30.333 1 45s0.166992 29.167 0.5 43.5s1.16602 28.5 2.49902 42.5c2.66699 28 11.5 52.167 26.5 72.5c15 21 34.5 34.833 58.5 41.5c-20 6.66699 -35 18.334 -45 35.001
s-15 35.667 -15 57c0 18.667 2.16699 37.334 6.5 56.001s9.16602 37.167 14.499 55.5s10.333 37 15 56s7 38.5 7 58.5s-4.66699 36.333 -14 49s-23 19 -41 19h-3c-2.66699 0 -5.33398 0.333008 -8.00098 1s-5.33398 2 -8.00098 4s-4.66699 4.5 -6 7.5s-1.33301 6.5 0 10.5
l6 53h24c26.667 0 49.5 -3.33301 68.5 -10s34.667 -16.334 47 -29.001s21.666 -27.834 27.999 -45.501c6.33301 -17 9.5 -36.167 9.5 -57.5s-2.33301 -42 -7 -62s-9.83398 -39.333 -15.501 -58s-10.834 -37 -15.501 -55s-7 -36.333 -7 -55c0 -16 3.66699 -29.333 11 -40
s19 -16 35 -16l-8 -68c-24 0 -41 -10.333 -51 -31s-15 -52.334 -15 -95.001z" />
    <glyph glyph-name="asciitilde" unicode="~" horiz-adv-x="580" 
d="M372 324c18.667 0 33 5.99805 43 17.998s15.333 28.667 16 50h99c0 -25.333 -3.33301 -48.333 -10 -69s-16.334 -38.5 -29.001 -53.5s-28.334 -26.5 -47.001 -34.5s-40 -12 -64 -12c-17.333 0 -34.333 2.33301 -51 7s-32.167 9.83398 -46.5 15.501s-28 10.834 -41 15.501
s-24.5 7 -34.5 7c-18.667 0 -33.167 -6 -43.5 -18s-15.5 -29 -15.5 -51h-100c0 25.333 3.33301 48.5 10 69.5s16.667 38.833 30 53.5s29.333 26 48 34s40 12 64 12c17.333 0 34 -2.33301 50 -7s31.333 -9.66699 46 -15s28.334 -10.333 41.001 -15s24.334 -7 35.001 -7z" />
    <glyph glyph-name="exclamdown" unicode="&#xa1;" horiz-adv-x="251" 
d="M14 -168l34 267c4 30.667 9 60.5 15 89.5s13 59.833 21 92.5h78c0 -33.333 -0.333008 -64.5 -1 -93.5s-3 -58.5 -7 -88.5l-32 -267h-108zM66 446c0 10.667 2 20.501 6 29.501s9.33301 16.833 16 23.5s14.667 12 24 16s19.333 6 30 6s20.667 -2 30 -6
s17.333 -9.33301 24 -16s12 -14.667 16 -24c4 -8.66699 6 -18.334 6 -29.001s-2 -20.667 -6 -30s-9.33301 -17.333 -16 -24s-14.667 -12 -24 -16s-19.333 -6 -30 -6s-20.667 2 -30 6s-17.333 9.33301 -24 16s-12 14.667 -16 24s-6 19.333 -6 30z" />
    <glyph glyph-name="cent" unicode="&#xa2;" horiz-adv-x="580" 
d="M230 -4c-26.667 4 -50.8311 11.999 -72.498 23.999s-40.334 27.5 -56.001 46.5s-27.834 41.333 -36.501 67s-13 54.5 -13 86.5c0 41.333 6.33301 79.833 19 115.5s31.334 66.834 56.001 93.501s54.667 47.834 90 63.501s75.666 24.5 120.999 26.5l16 80
c1.33301 8 5.5 15.167 12.5 21.5c6.33301 6.33301 14.166 9.5 23.499 9.5h44l-24 -116c26 -4.66699 49.167 -12.5 69.5 -23.5s38.5 -24.5 54.5 -40.5l-36 -42c-4 -4.66699 -7.66699 -8.16699 -11 -10.5s-8.33301 -3.5 -15 -3.5c-4.66699 0 -9.33398 1.16699 -14.001 3.5
s-10.167 5.16602 -16.5 8.49902s-13.5 6.83301 -21.5 10.5s-17.333 6.5 -28 8.5l-70 -342c18.667 1.33301 34.334 4.5 47.001 9.5s23.667 10 33 15s17.333 9.5 24 13.5s13.334 6 20.001 6c9.33301 0 16 -3.33301 20 -10l28 -42c-13.333 -13.333 -27.333 -24.833 -42 -34.5
s-30.167 -17.834 -46.5 -24.501s-33 -11.667 -50 -15s-34.167 -5.66602 -51.5 -6.99902l-16 -76c-1.33301 -8 -5.33301 -15 -12 -21s-14.667 -9 -24 -9h-44zM168.003 225.999c0 -36 6.99707 -65.665 20.9971 -88.998s34.333 -39.333 61 -48l70 339
c-25.333 -2.66699 -47.666 -9.33398 -66.999 -20.001s-35.166 -24.667 -47.499 -42s-21.666 -37.833 -27.999 -61.5s-9.5 -49.834 -9.5 -78.501z" />
    <glyph glyph-name="sterling" unicode="&#xa3;" horiz-adv-x="580" 
d="M448 331c-1.33301 -8 -5.33496 -14.999 -12.002 -20.999s-15.334 -9 -26.001 -9h-190l-12 -103c-2.66699 -22.667 -8 -42.5 -16 -59.5c-8 -16.333 -19.333 -31.833 -34 -46.5c13.333 2.66699 26.666 4.83398 39.999 6.50098s26.333 2.5 39 2.5h299l-6 -49
c-0.666992 -6 -2.5 -12.167 -5.5 -18.5s-7.16699 -11.833 -12.5 -16.5s-11.333 -8.66699 -18 -12s-13.667 -5 -21 -5h-481l10 75c23.333 5.33301 41.5 14.833 54.5 28.5s21.167 34.5 24.5 62.5l17 135h-78l6 48c1.33301 7.33301 5.33301 14 12 20s15 9 25 9h44l15 121
c4 31.333 12.833 61 26.5 89s31.834 52.667 54.501 74s49.5 38 80.5 50s65.5 18 103.5 18c28 0 52.833 -3.16699 74.5 -9.5s40.167 -15.333 55.5 -27s28.166 -25.334 38.499 -41.001s18.833 -32.834 25.5 -51.501l-51 -31c-12 -5.33301 -23 -7.66602 -33 -6.99902
s-19 5.66699 -27 15c-5.33301 8 -10.666 15.333 -15.999 22s-11.666 12.167 -18.999 16.5s-15.666 7.66602 -24.999 9.99902s-21 3.5 -35 3.5c-17.333 0 -33.5 -3 -48.5 -9s-28.167 -14.667 -39.5 -26s-20.666 -25 -27.999 -41s-12.333 -34 -15 -54l-15 -122h224l-5 -47v0z
" />
    <glyph glyph-name="currency" unicode="&#xa4;" horiz-adv-x="580" 
d="M108 336c0 17.333 2.16602 33.999 6.49902 49.999c5 16 11.5 31.333 19.5 46l-76 76l62 60l75 -74c14 8.66699 29.333 15.334 46 20.001s33.667 7 51 7s34 -2.16699 50 -6.5s31 -10.833 45 -19.5l77 76l61 -61l-75 -76c8.66699 -14 15.334 -29.167 20.001 -45.5
s7 -33.833 7 -52.5c0 -17.333 -2.16699 -33.833 -6.5 -49.5s-10.833 -30.5 -19.5 -44.5l76 -76l-62 -62l-75 76c-14.667 -8.66699 -30 -15.5 -46 -20.5s-33.333 -7.5 -52 -7.5c-17.333 0 -33.833 2.33301 -49.5 7s-30.5 11 -44.5 19l-76 -76l-62 62l76 75
c-8.66699 14.667 -15.5 30 -20.5 46s-7.5 33 -7.5 51zM198.999 335.999c0 -12.667 2.50098 -24.668 7.50098 -36.001s11.667 -21.166 20 -29.499s18.166 -15.166 29.499 -20.499c10.667 -5.33301 22.667 -8 36 -8s25.666 2.66699 36.999 8s21.333 12.166 30 20.499
s15.334 18.333 20.001 30s7 23.5 7 35.5c0 13.333 -2.33301 25.833 -7 37.5s-11.334 21.667 -20.001 30s-18.667 15.166 -30 20.499s-23.666 8 -36.999 8s-25.5 -2.66699 -36.5 -8s-20.667 -12.166 -29 -20.499s-15 -18.333 -20 -30s-7.5 -24.167 -7.5 -37.5z" />
    <glyph glyph-name="yen" unicode="&#xa5;" horiz-adv-x="580" 
d="M68 316h139.997l-150 406h100c10.667 0 19.334 -2.66699 26.001 -8s11.334 -12.333 14.001 -21l82 -249c4 -14.667 7.33301 -28.167 10 -40.5s4.66699 -24.5 6 -36.5c4 12 8.83301 24.167 14.5 36.5c5 12.333 11.5 25.833 19.5 40.5l143 249c4 8 10 14.833 18 20.5
c8.66699 5.66699 18.334 8.5 29.001 8.5h100l-251 -406h141l-8 -66h-162l-6 -48h161l-8 -67h-161l-16 -135h-119l17 135h-162l8 67h162l5 48h-161z" />
    <glyph glyph-name="brokenbar" unicode="&#xa6;" horiz-adv-x="268" 
d="M86 774h96v-405h-96v405zM86 236h96v-404h-96v404z" />
    <glyph glyph-name="section" unicode="&#xa7;" horiz-adv-x="470" 
d="M421 624c-4 -5.33301 -7.8291 -9.00293 -11.4961 -11.0029s-8.16699 -3 -13.5 -3c-6 0 -12.167 1.66699 -18.5 5s-13.166 7 -20.499 11s-16 7.66699 -26 11s-22.333 5 -37 5c-13.333 0 -25.166 -1.66699 -35.499 -5s-19.166 -8.16602 -26.499 -14.499
s-12.833 -13.666 -16.5 -21.999s-5.5 -17.166 -5.5 -26.499s3.33301 -17.833 10 -25.5s15.167 -15 25.5 -22s22.166 -13.5 35.499 -19.5s27.166 -12.667 41.499 -20s28.166 -15.166 41.499 -23.499s25.166 -17.833 35.499 -28.5s18.666 -22.834 24.999 -36.501
s9.5 -29.5 9.5 -47.5c0 -29.333 -7 -56.5 -21 -81.5s-37 -44.833 -69 -59.5c10.667 -10.667 19.334 -23 26.001 -37s10 -30.333 10 -49c0 -26 -4.66699 -50.167 -14 -72.5s-23 -41.833 -41 -58.5s-40.333 -29.667 -67 -39s-56.667 -14 -90 -14c-16 0 -31.833 1.5 -47.5 4.5
s-30.334 7.33301 -44.001 13s-26.167 12.167 -37.5 19.5s-21 15.666 -29 24.999l34 45c4 5.33301 8.5 9.5 13.5 12.5c4.33301 3 10.5 4.5 18.5 4.5c7.33301 0 14 -2.16699 20 -6.5s12.833 -9 20.5 -14s17 -9.66699 28 -14s25.5 -6.5 43.5 -6.5
c26.667 0 47.667 6.83301 63 20.5s23 31.167 23 52.5c0 16 -5.66699 29.333 -17 40s-25.5 20.334 -42.5 29.001s-35.333 17.334 -55 26.001s-37.834 18.667 -54.501 30s-30.667 25.333 -42 42s-17 37.667 -17 63c0 30.667 7.66699 57.667 23 81s39 42 71 56
c-10.667 11.333 -19.5 24.333 -26.5 39s-10.5 32.667 -10.5 54c0 23.333 4.5 45.5 13.5 66.5s21.833 39.5 38.5 55.5s37.667 28.667 63 38s54 14 86 14c33.333 0 62.666 -5.83301 87.999 -17.5s45.333 -26.834 60 -45.501zM154.004 355.997c0 -13.333 4 -24.665 12 -33.998
s18.333 -17.833 31 -25.5s27 -15.167 43 -22.5c16 -8 31.667 -16 47 -24c14 8 24 17.667 30 29s9 23.666 9 36.999s-3.66699 25 -11 35s-17.333 18.667 -30 26s-26.667 14.666 -42 21.999s-30.333 15 -45 23c-16 -9.33301 -27.333 -19.333 -34 -30s-10 -22.667 -10 -36z" />
    <glyph glyph-name="dieresis" unicode="&#xa8;" 
d="M229 646c0 -9.33301 -1.83203 -18 -5.49902 -26s-8.83398 -15 -15.501 -21s-14.167 -10.833 -22.5 -14.5s-17.166 -5.5 -26.499 -5.5s-18 1.83301 -26 5.5s-15.167 8.5 -21.5 14.5s-11.333 13 -15 21s-5.5 16.667 -5.5 26s1.83301 18.333 5.5 27s8.66699 16.167 15 22.5
s13.666 11.333 21.999 15s16.833 5.5 25.5 5.5c9.33301 0 18.166 -1.83301 26.499 -5.5s15.833 -8.66699 22.5 -15s11.834 -13.833 15.501 -22.5s5.5 -17.667 5.5 -27zM421.001 646c0 -9.33301 -1.83301 -18 -5.5 -26s-8.5 -15 -14.5 -21s-13.333 -10.833 -22 -14.5
s-17.667 -5.5 -27 -5.5s-18.166 1.83301 -26.499 5.5s-15.666 8.5 -21.999 14.5s-11.166 13 -14.499 21s-5 16.667 -5 26s1.66699 18.333 5 27s8.16602 16.167 14.499 22.5s13.666 11.333 21.999 15s17.166 5.5 26.499 5.5s18.333 -1.83301 27 -5.5s16 -8.66699 22 -15
s10.833 -13.833 14.5 -22.5s5.5 -17.667 5.5 -27z" />
    <glyph glyph-name="copyright" unicode="&#xa9;" horiz-adv-x="824" 
d="M532 256c3.33301 0 6.49707 -0.666016 9.49707 -1.99902s5.83301 -3.33301 8.5 -6l40 -44c-18.667 -24 -42 -42.167 -70 -54.5s-61.333 -18.5 -100 -18.5c-33.333 0 -63.5 5.83301 -90.5 17.5s-50 28 -69 49s-33.833 45.667 -44.5 74s-16 58.833 -16 91.5
c0 34 6 65.167 18 93.5s28.333 52.666 49 72.999s44.834 36.166 72.501 47.499s57.834 17 90.501 17c37.333 0 69.333 -6 96 -18s48.667 -28 66 -48l-32 -44c-2 -2.66699 -4.66699 -5.33398 -8 -8.00098s-7.66602 -4 -12.999 -4s-10.5 1.66699 -15.5 5s-11.167 7 -18.5 11
s-16.333 7.66699 -27 11s-24.667 5 -42 5c-20 0 -37.667 -3.33301 -53 -10s-28.5 -16 -39.5 -28s-19.333 -26.667 -25 -44s-8.5 -37 -8.5 -59c0 -22.667 3 -42.667 9 -60s14 -31.833 24 -43.5s22.167 -20.667 36.5 -27s29.833 -9.5 46.5 -9.5c16 0 29.333 1.33301 40 4
s19.667 5.83398 27 9.50098s13.833 7.33398 19.5 11.001s12.167 6.5 19.5 8.5zM49.9971 362.001c0 34 4.33301 66.668 13 98.001s21 60.666 37 87.999s35.333 52.166 58 74.499s47.667 41.5 75 57.5s56.666 28.5 87.999 37.5s64 13.5 98 13.5s66.667 -4.5 98 -13.5
s60.666 -21.5 87.999 -37.5s52.333 -35.167 75 -57.5s42 -47.166 58 -74.499s28.333 -56.833 37 -88.5s13 -64.167 13 -97.5s-4.33301 -66 -13 -98s-21 -61.5 -37 -88.5s-35.333 -51.667 -58 -74s-47.667 -41.5 -75 -57.5s-56.666 -28.5 -87.999 -37.5s-64 -13.5 -98 -13.5
s-66.667 4.5 -98 13.5s-60.666 21.5 -87.999 37.5s-52.333 35.167 -75 57.5s-42 47 -58 74s-28.333 56.333 -37 88s-13 64.5 -13 98.5zM117.997 362.002c0 -43.333 7.66797 -83.833 23.001 -121.5s36.666 -70.5 63.999 -98.5s59.333 -50 96 -66s76 -24 118 -24
c42.667 0 82.5 8 119.5 24s69.167 38 96.5 66s48.666 60.667 63.999 98s23 78 23 122c0 29.333 -3.5 57.166 -10.5 83.499s-17 51 -30 74s-28.667 44 -47 63s-38.666 35.333 -60.999 49s-46.5 24.167 -72.5 31.5s-53.333 11 -82 11c-28 0 -55 -3.66699 -81 -11
s-50.167 -17.833 -72.5 -31.5s-42.5 -30 -60.5 -49s-33.667 -40 -47 -63s-23.333 -47.667 -30 -74s-10 -54.166 -10 -83.499z" />
    <glyph glyph-name="ordfeminine" unicode="&#xaa;" horiz-adv-x="343" 
d="M264 420c-8 0 -13.6689 1.33008 -17.002 3.99707s-6.33301 7.33398 -9 14.001l-4 18c-8 -6.66699 -15.667 -12.5 -23 -17.5s-14.666 -9 -21.999 -12s-15.333 -5.5 -24 -7.5s-17.667 -3 -27 -3c-24 0 -42.833 6.33301 -56.5 19s-20.5 30.334 -20.5 53.001
c0 12.667 2.66699 25.334 8 38.001s14.833 24.167 28.5 34.5s32.167 19.166 55.5 26.499s53 11.333 89 12l2 13c0 6.66699 -0.333008 13.334 -1 20.001s-2.16699 12.334 -4.5 17.001s-5.83301 8.33398 -10.5 11.001s-10.667 4 -18 4c-10.667 0 -19.334 -1.33301 -26.001 -4
s-12.667 -5.33398 -18 -8.00098l-16 -8c-5.33301 -2.66699 -11 -4 -17 -4c-6.66699 0 -11.667 1.66699 -15 5s-6 7 -8 11l-12 28c20 17.333 40.833 29.666 62.5 36.999s44.5 11 68.5 11c16.667 0 31.5 -3.16699 44.5 -9.5s23.833 -15 32.5 -26s14.834 -23.833 18.501 -38.5
s4.83398 -30 3.50098 -46l-24 -192h-40zM171.998 474.997c11.333 0 21.5 2.16797 30.5 6.50098s18.5 11.166 28.5 20.499l5 44c-17.333 -0.666992 -32 -2.16699 -44 -4.5s-21.667 -5.5 -29 -9.5s-12.333 -9 -15 -15s-4 -12.333 -4 -19c0 -8.66699 2.33301 -14.667 7 -18
s11.667 -5 21 -5z" />
    <glyph glyph-name="guillemotleft" unicode="&#xab;" horiz-adv-x="417" 
d="M34 261l2.00098 14.999l144 198l36 -19c9.33301 -4 14.333 -10.333 15 -19c0.666992 -9.33301 -2.33301 -18.666 -9 -27.999l-76 -119c-6.66699 -10 -12.667 -17 -18 -21c4 -5.33301 8 -12 12 -20l48 -120c4 -10 4.66699 -19.167 2 -27.5s-9.33398 -14.833 -20.001 -19.5
l-42 -18zM185.001 260.999l2.00098 14.999l144 198l36 -19c9.33301 -4 14.333 -10.333 15 -19c0.666992 -9.33301 -2.33301 -18.666 -9 -27.999l-76 -119c-6.66699 -10 -12.667 -17 -18 -21c4 -5.33301 8 -12 12 -20l48 -120c4 -10 4.66699 -19.167 2 -27.5
s-9.33398 -14.833 -20.001 -19.5l-42 -18z" />
    <glyph glyph-name="logicalnot" unicode="&#xac;" horiz-adv-x="580" 
d="M76 380h442l-11 -88l-17 -142h-101l17 142h-340z" />
    <glyph glyph-name="registered" unicode="&#xae;" horiz-adv-x="825" 
d="M50 362c0 34 4.33301 66.668 13 98.001s21 60.666 37 87.999s35.333 52.166 58 74.499s47.667 41.5 75 57.5s56.666 28.5 87.999 37.5s64 13.5 98 13.5s66.667 -4.5 98 -13.5s60.666 -21.5 87.999 -37.5s52.333 -35.167 75 -57.5s42 -47.166 58 -74.499
s28.333 -56.833 37 -88.5s13 -64.167 13 -97.5s-4.33301 -66 -13 -98s-21 -61.5 -37 -88.5s-35.333 -51.667 -58 -74s-47.667 -41.5 -75 -57.5s-56.666 -28.5 -87.999 -37.5s-64 -13.5 -98 -13.5s-66.667 4.5 -98 13.5s-60.666 21.5 -87.999 37.5s-52.333 35.167 -75 57.5
s-42 47 -58 74s-28.333 56.333 -37 88s-13 64.5 -13 98.5zM118 362.001c0 -43.333 7.66797 -83.833 23.001 -121.5s36.666 -70.5 63.999 -98.5s59.333 -50 96 -66s76 -24 118 -24c42.667 0 82.5 8 119.5 24s69.167 38 96.5 66s48.666 60.667 63.999 98s23 78 23 122
c0 29.333 -3.5 57.166 -10.5 83.499s-17 51 -30 74s-28.667 44 -47 63s-38.666 35.333 -60.999 49s-46.5 24.167 -72.5 31.5s-53.333 11 -82 11c-28 0 -55 -3.66699 -81 -11s-50.167 -17.833 -72.5 -31.5s-42.5 -30 -60.5 -49s-33.667 -40 -47 -63s-23.333 -47.667 -30 -74
s-10 -54.166 -10 -83.499zM363.001 301.001l0.000976562 -162.999h-107v449h160c62.667 0 108.5 -11.167 137.5 -33.5s43.5 -54.166 43.5 -95.499c0 -29.333 -7.66699 -55.333 -23 -78c-16 -22.667 -40 -39 -72 -49c8 -4 14.667 -9.33301 20 -16s10 -14.334 14 -23.001
l91 -154h-103c-14.667 0 -25.334 5.66699 -32.001 17l-72 131c-2.66699 5.33301 -6.16699 9.16602 -10.5 11.499c-5 2.33301 -11.5 3.5 -19.5 3.5h-27zM363.002 378.002l45.001 -0.00195312c17.333 0 31.333 1.33301 42 4s19 6.83398 25 12.501s10.333 12.667 13 21
s4 17.833 4 28.5s-1 19.834 -3 27.501s-5.83301 14 -11.5 19s-13.334 8.83301 -23.001 11.5s-22.5 4 -38.5 4h-53v-128z" />
    <glyph glyph-name="macron" unicode="&#xaf;" 
d="M124 686h275l-9 -79h-275z" />
    <glyph glyph-name="macron" unicode="&#x2c9;" 
d="M124 686h275l-9 -79h-275z" />
    <glyph glyph-name="degree" unicode="&#xb0;" horiz-adv-x="412" 
d="M64 562c0 24 4.33301 46.333 13 67s20.667 38.667 36 54s33.666 27.333 54.999 36s44 13 68 13s46.667 -4.33301 68 -13s39.666 -20.667 54.999 -36s27.666 -33.5 36.999 -54.5c9.33301 -20.333 14 -42.5 14 -66.5c0 -22.667 -4.66699 -44.5 -14 -65.5
s-21.666 -39.333 -36.999 -55s-33.666 -27.834 -54.999 -36.501s-44 -13 -68 -13s-46.667 4.33301 -68 13s-39.666 20.834 -54.999 36.501s-27.333 34 -36 55s-13 42.833 -13 65.5zM149 560c0 -12 2.16699 -23.333 6.5 -34s10.5 -20 18.5 -28s17.167 -14.167 27.5 -18.5
s21.833 -6.5 34.5 -6.5c12 0 23.333 2.16699 34 6.5s20 10.5 28 18.5s14 17.333 18 28s6 22 6 34c0 12.667 -2 24.5 -6 35.5s-10 20.5 -18 28.5s-17.333 14.333 -28 19s-22 7 -34 7c-12.667 0 -24.167 -2.33301 -34.5 -7s-19.5 -11 -27.5 -19s-14.167 -17.5 -18.5 -28.5
s-6.5 -22.833 -6.5 -35.5z" />
    <glyph glyph-name="plusminus" unicode="&#xb1;" horiz-adv-x="580" 
d="M378 618l-22 -178h195l-11 -89h-196l-20 -172h-97l21 172h-194l10 89h195l22 178h97zM26 128h487l-11 -88h-486z" />
    <glyph glyph-name="uni00B2" unicode="&#xb2;" horiz-adv-x="334" 
d="M234 824c17.333 0 32.833 -2.50293 46.5 -7.50293s25.167 -11.667 34.5 -20s16.333 -18.5 21 -30.5s7 -24.667 7 -38c0 -15.333 -2.66699 -29.333 -8 -42s-12.166 -24.5 -20.499 -35.5s-18 -21.833 -29 -32.5s-22.5 -21.334 -34.5 -32.001l-76 -68
c9.33301 2.66699 18.833 4.83398 28.5 6.50098c9 1.66699 17.5 2.5 25.5 2.5h70c9.33301 0 16 -2.33301 20 -7c4 -5.33301 5.33301 -12 4 -20l-5 -50h-269l4 28c0.666992 5.33301 2.33398 11 5.00098 17c3.33301 6 7.66602 11.667 12.999 17l118 104
c9.33301 8 18 16.333 26 25s15 17.334 21 26.001s10.667 17.334 14 26.001s5 17.334 5 26.001c0 10.667 -3 19.334 -9 26.001s-14.333 10 -25 10c-12 0 -21.667 -2.83301 -29 -8.5s-14 -13.834 -20 -24.501c-5.33301 -7.33301 -10.833 -12.5 -16.5 -15.5
s-14.5 -3.83301 -26.5 -2.5l-46 8c5.33301 18.667 12.666 35 21.999 49s20.666 25.667 33.999 35s27.833 16.333 43.5 21s32.834 7 51.501 7z" />
    </font>
</defs>
</svg>
