<?xml version="1.0" standalone="no"?>
<!DOCTYPE svg PUBLIC "-//W3C//DTD SVG 1.1//EN" "http://www.w3.org/Graphics/SVG/1.1/DTD/svg11.dtd" >
<svg version="1.1" xmlns="http://www.w3.org/2000/svg">
<metadata>
Created by FontForge 20120731 at Fri Aug  1 16:50:26 2014

Copyright (c) 2010-2014 by tyPoland Lukasz Dziedzic with Reserved Font Name "Lato". Licensed under the SIL Open Font License, Version 1.1. 
</metadata>
<defs>
<font id="lato" horiz-adv-x="400" >
  <font-face 
    font-family="Lato Heavy"
    font-weight="800"
    font-stretch="normal"
    units-per-em="1000"
    panose-1="2 15 9 2 2 2 4 3 2 3"
    ascent="805"
    descent="-195"
    x-height="516"
    cap-height="726"
    bbox="-625.998 -292 1344 1108"
    underline-thickness="97"
    underline-position="-3"
    unicode-range="U+000D-FEFF"
  />
<missing-glyph horiz-adv-x="553" 
d="M118 574c20 16 42.333 29.3359 67 40.0029s54 16 88 16c24 0 45.833 -3.33301 65.5 -10s36 -15.834 49 -27.501s23 -25.834 30 -42.501s10.5 -35 10.5 -55c0 -18.667 -2.33301 -34.5 -7 -47.5s-10.334 -24.5 -17.001 -34.5s-14 -18.333 -22 -25s-15.667 -13 -23 -19
s-14 -12 -20 -18s-9.66699 -12.667 -11 -20l-13 -47h-94l-9 57c-2.66699 12.667 -2.33398 23.5 0.999023 32.5s8.33301 17 15 24s14.334 13.5 23.001 19.5s16.667 12.333 24 19s13.333 14 18 22s7 17.667 7 29c0 9.33301 -3 17.166 -9 23.499s-16.333 9.5 -31 9.5
c-12 0 -21.667 -1 -29 -3s-13.666 -4.16699 -18.999 -6.5s-10.333 -4.5 -15 -6.5s-9.66699 -3 -15 -3c-12 0 -21.333 5.33301 -28 16zM190 160.003c0 10 1.83203 19.502 5.49902 28.502s8.83398 16.833 15.501 23.5s14.5 11.834 23.5 15.501s18.833 5.5 29.5 5.5
s20.334 -1.83301 29.001 -5.5s16.167 -8.83398 22.5 -15.501s11.333 -14.334 15 -23.001s5.5 -18.334 5.5 -29.001c0 -10 -1.83301 -19.333 -5.5 -28s-8.66699 -16.167 -15 -22.5s-14 -11.5 -23 -15.5c-8.33301 -4 -17.833 -6 -28.5 -6s-20.5 2 -29.5 6
s-16.833 9.16699 -23.5 15.5s-11.834 13.833 -15.501 22.5s-5.5 18 -5.5 28zM19.999 726.005h513v-726h-513v726zM55.999 37.0049h438v651h-438v-651z" />
    <glyph glyph-name="uniFB00" unicode="ff" horiz-adv-x="689" 
d="M94 0l-0.00292969 416.001l-40 8c-10.667 2 -19 5.5 -25 10.5s-9 12.833 -9 23.5v54h74v26c0 29.333 4.66699 55.833 14 79.5s22.5 43.667 39.5 60s37.833 29.166 62.5 38.499c25.333 9.33301 53.333 14 84 14c12 0 23.333 -1 34 -3s21.334 -4.33301 32.001 -7l-2 -68
c-0.666992 -10 -5.16699 -16.667 -13.5 -20s-17.5 -5 -27.5 -5c-14 0 -26.667 -1.5 -38 -4.5s-20.666 -8.16699 -27.999 -15.5s-13 -17 -17 -29s-6 -27 -6 -45v-21h194v43c0 29.333 4.66699 55.833 14 79.5s22.333 43.834 39 60.501s37.334 29.5 62.001 38.5
s52.667 13.5 84 13.5c12 0 23.5 -0.833008 34.5 -2.5s21.833 -3.83398 32.5 -6.50098l-3 -68c-0.666992 -10.667 -5 -17.5 -13 -20.5s-17.333 -4.5 -28 -4.5c-14 0 -26.5 -1.5 -37.5 -4.5s-20.167 -8.16699 -27.5 -15.5s-13 -17 -17 -29s-6 -27 -6 -45v-39h127v-96h-123
v-416h-138v416h-190v-416h-138z" />
    <glyph glyph-name="uniFB01" unicode="fi" horiz-adv-x="612" 
d="M94 0l-0.000976562 416.001l-40 8c-10.667 2 -19 5.5 -25 10.5s-9 12.833 -9 23.5v54h74v13c0 31.333 5.33301 60.666 16 87.999s27 51 49 71s49.667 35.667 83 47s73 17 119 17c14.667 0 29.5 -0.666992 44.5 -2s28.167 -3.33301 39.5 -6l-5 -71
c0 -4 -1 -7.16699 -3 -9.5s-5 -4.16602 -9 -5.49902s-8.16699 -2.16602 -12.5 -2.49902c-3.66699 -0.333008 -8.16699 -0.5 -13.5 -0.5c-33.333 0 -61.333 -2.83301 -84 -8.5s-40.667 -13.834 -54 -24.501s-22.666 -24.334 -27.999 -41.001s-8 -35.667 -8 -57v-8h323v-512
h-138v416h-181v-416h-138z" />
    <glyph glyph-name="uniFB02" unicode="fl" horiz-adv-x="621" 
d="M94 0l-0.000976562 416l-40 8c-10.667 2 -19 5.5 -25 10.5s-9 12.833 -9 23.5v54h74v20c0 26.667 4.33301 52.667 13 78s22 47.666 40 66.999s40.667 34.833 68 46.5s60 17.5 98 17.5c31.333 0 61 -1.16699 89 -3.5s56 -3.5 84 -3.5h78v-734h-138v641
c-17.333 0.666992 -34.166 1.33398 -50.499 2.00098s-29.833 1 -40.5 1c-34.667 0 -61.167 -9.5 -79.5 -28.5c-18.333 -19.667 -27.5 -47.5 -27.5 -83.5v-20h117v-96h-113v-416h-138z" />
    <glyph glyph-name="uniFB03" unicode="ffi" horiz-adv-x="940" 
d="M94 0l-0.00390625 416.004l-40 8c-10.667 2 -19 5.5 -25 10.5s-9 12.833 -9 23.5v54h74v26c0 29.333 4.66699 55.833 14 79.5s22.666 43.667 39.999 60s38.166 29.166 62.499 38.499c25 9.33301 52.833 14 83.5 14c12 0 23.333 -1 34 -3s21.334 -4.33301 32.001 -7
l-2 -68c-0.666992 -10 -5.16699 -16.667 -13.5 -20s-17.166 -5 -26.499 -5c-14.667 0 -27.5 -1.5 -38.5 -4.5s-20.333 -8.16699 -28 -15.5s-13.5 -17 -17.5 -29s-6 -27 -6 -45v-21h194v13c0 31.333 5.33301 60.666 16 87.999s26.834 51 48.501 71s49.334 35.667 83.001 47
s73.167 17 118.5 17c14.667 0 29.667 -0.666992 45 -2s28.333 -3.33301 39 -6l-4 -71c-0.666992 -8 -4.83398 -13 -12.501 -15s-16.5 -3 -26.5 -3c-33.333 0 -61.166 -2.83301 -83.499 -8.5s-40.166 -13.834 -53.499 -24.501s-22.666 -24.334 -27.999 -41.001
s-8 -35.667 -8 -57v-8h322v-512h-138v416h-180v-416h-138v416h-190v-416h-138z" />
    <glyph glyph-name="uniFB04" unicode="ffl" horiz-adv-x="948" 
d="M94 0l0.000976562 416.001l-40 8c-10.667 2 -19 5.5 -25 10.5s-9 12.833 -9 23.5v54h74v26c0 29.333 4.66699 55.833 14 79.5s22.5 43.667 39.5 60s37.833 29.166 62.5 38.499c25.333 9.33301 53.333 14 84 14c12 0 23.333 -1 34 -3s21.334 -4.33301 32.001 -7l-2 -68
c-0.666992 -10 -5.16699 -16.667 -13.5 -20s-17.5 -5 -27.5 -5c-14 0 -26.667 -1.5 -38 -4.5s-20.666 -8.16699 -27.999 -15.5s-13 -17 -17 -29s-6 -27 -6 -45v-21h194v20c0 26.667 4.33301 52.667 13 78s22 47.666 40 66.999s40.667 34.833 68 46.5
s59.666 17.5 96.999 17.5c31.333 0 61.166 -1.16699 89.499 -3.5s56.5 -3.5 84.5 -3.5h76v-734h-136v641c-17.333 0.666992 -34.333 1.33398 -51 2.00098s-30.334 1 -41.001 1c-34.667 0 -61 -9.5 -79 -28.5c-18 -19.667 -27 -47.5 -27 -83.5v-20h127v-96h-123v-416h-138
v416h-190v-416h-138z" />
    <glyph glyph-name="f_b.liga" unicode="fb" horiz-adv-x="941" 
d="M428 0v654.996c-12 4.66699 -24.833 8.33398 -38.5 11.001c-13 2.66699 -26.167 4 -39.5 4c-20 0 -37.667 -3 -53 -9s-28 -14.667 -38 -26s-17.667 -24.833 -23 -40.5s-8 -32.5 -8 -50.5v-32h128v-96h-124v-416h-138v416l-40 8c-10.667 2 -19 5.5 -25 10.5
s-9 12.833 -9 23.5v54h74v32c0 30.667 5 59.167 15 85.5s25.667 49 47 68s48.666 33.833 81.999 44.5s73.333 16 120 16c17.333 0 33.666 -0.666992 48.999 -2s31 -2.66602 47 -3.99902s33 -2.66602 51 -3.99902s38.333 -2 61 -2v-290c20 20 42.333 36.333 67 49
s52.334 19 83.001 19c29.333 0 56 -6 80 -18s44.5 -29 61.5 -51s30 -48.667 39 -80s13.5 -66.333 13.5 -105c0 -41.333 -5.16699 -79 -15.5 -113s-25.166 -63.333 -44.499 -88s-42.5 -43.667 -69.5 -57s-56.833 -20 -89.5 -20c-16 0 -30.333 1.66699 -43 5
s-24.334 7.83301 -35.001 13.5s-20.5 12.334 -29.5 20.001s-17.5 16.5 -25.5 26.5l-6 -31c-2.66699 -9.33301 -6.5 -16 -11.5 -20c-4.33301 -4 -11.166 -6 -20.499 -6h-92zM668 417.996c-21.333 0 -39.998 -4.83301 -55.998 -14.5s-31.333 -23.5 -46 -41.5v-226
c13.333 -14.667 27.5 -25 42.5 -31c15.667 -6 31.5 -9 47.5 -9c17.333 0 32.666 3 45.999 9s25 15.667 35 29s17.667 31 23 53s8 48.333 8 79c0 27.333 -2 50.5 -6 69.5s-10.333 34.667 -19 47s-19.334 21.333 -32.001 27s-27 8.5 -43 8.5z" />
    <glyph glyph-name="f_f_b.liga" unicode="ffb" horiz-adv-x="1269" 
d="M94 0v415.997l-40 8c-10.667 2 -19 5.5 -25 10.5s-9 12.833 -9 23.5v54h74v26c0 29.333 4.66699 55.833 14 79.5s22.5 43.667 39.5 60s37.833 29.166 62.5 38.499c25.333 9.33301 53.333 14 84 14c12 0 23.333 -1 34 -3s21.334 -4.33301 32.001 -7l-2 -68
c-0.666992 -10 -5.16699 -16.667 -13.5 -20s-17.5 -5 -27.5 -5c-14 0 -26.667 -1.5 -38 -4.5s-20.666 -8.16699 -27.999 -15.5s-13 -17 -17 -29s-6 -27 -6 -45v-21h194v32c0 30.667 5 59.167 15 85.5s25.5 49 46.5 68s48.167 33.833 81.5 44.5s73.666 16 120.999 16
c17.333 0 33.666 -0.666992 48.999 -2s30.833 -2.66602 46.5 -3.99902s32.5 -2.66602 50.5 -3.99902c18.667 -1.33301 39.334 -2 62.001 -2v-290c20 20 42.333 36.333 67 49s52.334 19 83.001 19c29.333 0 56 -6 80 -18s44.333 -29 61 -51s29.667 -48.667 39 -80
s14 -66.333 14 -105c0 -41.333 -5.33301 -79 -16 -113s-25.667 -63.333 -45 -88s-42.333 -43.667 -69 -57s-56.667 -20 -90 -20c-16 0 -30.333 1.66699 -43 5s-24.334 7.83301 -35.001 13.5s-20.334 12.334 -29.001 20.001s-17 16.5 -25 26.5l-6 -31
c-2.66699 -9.33301 -6.66699 -16 -12 -20s-12.333 -6 -21 -6h-91v655c-12 4.66699 -24.833 8.33398 -38.5 11.001s-27.167 4 -40.5 4c-20 0 -37.5 -3 -52.5 -9s-27.5 -14.667 -37.5 -26s-17.667 -24.833 -23 -40.5s-8 -32.5 -8 -50.5v-32h127v-96h-123v-416h-138v416h-190
v-416h-138zM996 417.997c-21.333 0 -40.002 -4.83301 -56.002 -14.5s-31.333 -23.5 -46 -41.5v-226c13.333 -14.667 27.333 -25 42 -31s30.334 -9 47.001 -9c17.333 0 32.833 3 46.5 9s25.5 15.667 35.5 29s17.667 31 23 53s8 48.333 8 79c0 27.333 -2.16699 50.5 -6.5 69.5
s-10.666 34.667 -18.999 47s-18.833 21.333 -31.5 27s-27 8.5 -43 8.5z" />
    <glyph glyph-name="f_h.liga" unicode="fh" horiz-adv-x="937" 
d="M428 0l0.00195312 654.998c-12 4.66699 -24.833 8.33398 -38.5 11.001c-13 2.66699 -26.167 4 -39.5 4c-20 0 -37.667 -3 -53 -9s-28 -14.667 -38 -26s-17.667 -24.833 -23 -40.5s-8 -32.5 -8 -50.5v-32h128v-96h-124v-416h-138v416l-40 8c-10.667 2 -19 5.5 -25 10.5
s-9 12.833 -9 23.5v54h74v32c0 30.667 5 59.167 15 85.5s25.667 49 47 68s48.666 33.833 81.999 44.5s73.333 16 120 16c17.333 0 33.666 -0.666992 48.999 -2s31 -2.66602 47 -3.99902s33 -2.66602 51 -3.99902s38.333 -2 61 -2v-282
c19.333 17.333 40.5 31.666 63.5 42.999s50.5 17 82.5 17c28 0 52.667 -5 74 -15s39.5 -23.667 54.5 -41s26.333 -38 34 -62s11.5 -50 11.5 -78v-328h-138v328c0 28.667 -6.66699 50.834 -20 66.501s-33 23.5 -59 23.5c-20 0 -38.333 -4.33301 -55 -13
s-32.667 -20.334 -48 -35.001v-370h-138z" />
    <glyph glyph-name="f_f_h.liga" unicode="ffh" horiz-adv-x="1265" 
d="M94 0l-0.00195312 415.999l-40 8c-10.667 2 -19 5.5 -25 10.5s-9 12.833 -9 23.5v54h74v26c0 29.333 4.66699 55.833 14 79.5s22.5 43.667 39.5 60s37.833 29.166 62.5 38.499c25.333 9.33301 53.333 14 84 14c12 0 23.333 -1 34 -3s21.334 -4.33301 32.001 -7l-2 -68
c-0.666992 -10 -5.16699 -16.667 -13.5 -20s-17.5 -5 -27.5 -5c-14 0 -26.667 -1.5 -38 -4.5s-20.666 -8.16699 -27.999 -15.5s-13 -17 -17 -29s-6 -27 -6 -45v-21h194v32c0 30.667 5 59.167 15 85.5s25.5 49 46.5 68s48.167 33.833 81.5 44.5s73.666 16 120.999 16
c17.333 0 33.666 -0.666992 48.999 -2s30.833 -2.66602 46.5 -3.99902s32.5 -2.66602 50.5 -3.99902c18.667 -1.33301 39.334 -2 62.001 -2v-282c19.333 17.333 40.5 31.666 63.5 42.999s50.167 17 81.5 17c28 0 52.833 -5 74.5 -15s39.834 -23.667 54.501 -41
s25.834 -38 33.501 -62s11.5 -50 11.5 -78v-328h-137v328c0 28.667 -6.66699 50.834 -20 66.501s-33.333 23.5 -60 23.5c-20 0 -38.333 -4.33301 -55 -13s-32.334 -20.334 -47.001 -35.001v-370h-138v655c-12 4.66699 -24.833 8.33398 -38.5 11.001s-27.167 4 -40.5 4
c-20 0 -37.5 -3 -52.5 -9s-27.5 -14.667 -37.5 -26s-17.667 -24.833 -23 -40.5s-8 -32.5 -8 -50.5v-32h127v-96h-123v-416h-138v416h-190v-416h-138z" />
    <glyph glyph-name="f_igrave.liga" unicode="f&#xec;" horiz-adv-x="612" 
d="M383 748c25.333 0 45.501 -4.00195 60.501 -12.002s25.833 -18 32.5 -30l70 -122h-78c-10.667 0 -19.167 1.33301 -25.5 4s-12.833 7.33398 -19.5 14.001l-47 48c-28 -1.33301 -51.333 -4.66602 -70 -9.99902s-33.834 -13.666 -45.501 -24.999s-20 -24.833 -25 -40.5
c-5 -16.333 -7.5 -34.5 -7.5 -54.5v-8h323v-512h-138v416h-181v-416h-138v416l-40 8c-10.667 2 -19 5.5 -25 10.5s-9 12.833 -9 23.5v54h74v13c0 31.333 5 60.666 15 87.999s26.333 51 49 71s52.5 35.667 89.5 47s82.167 17 135.5 17z" />
    <glyph glyph-name="f_icircumflex.liga" unicode="f&#xee;" horiz-adv-x="612" 
d="M94 0v416.001l-40 8c-10.667 2 -19 5.5 -25 10.5s-9 12.833 -9 23.5v54h74v56c0 26.667 3.66699 51 11 73s17.833 40.333 31.5 55s30.5 26 50.5 34c20.667 8 43.667 12 69 12c9.33301 0 17.666 -0.333008 24.999 -1s15 -2.33398 23 -5.00098v-74
c0 -6.66699 -2.66699 -11.334 -8 -14.001s-12 -4 -20 -4c-17.333 0 -29.666 -5.66699 -36.999 -17s-11 -30.666 -11 -57.999v-57h323v-512h-138v416h-181v-416h-138zM666 584.001h-92.001c-5.33301 0 -10.333 1 -15 3s-9.66699 5.33301 -15 10l-44 47
c-2 1.33301 -4 3.33301 -6 6c-2.66699 2.66699 -4.66699 5 -6 7c-2 -2.66699 -3.83301 -5 -5.5 -7c-1.66699 -2.66699 -3.5 -4.66699 -5.5 -6l-45 -47c-9.33301 -8.66699 -19.666 -13 -30.999 -13h-95l116 142h128z" />
    <glyph glyph-name="f_itilde.liga" unicode="f&#x129;" horiz-adv-x="612" 
d="M535 686c9.33301 0 16.498 2.33301 21.498 7s7.5 14.334 7.5 29.001h84c0 -20 -2.66699 -38 -8 -54s-12.833 -29.667 -22.5 -41s-21.167 -20 -34.5 -26s-27.666 -9 -42.999 -9c-12 0 -23.333 2 -34 6s-20.5 8.5 -29.5 13.5s-17.333 9.66699 -25 14s-14.5 6.5 -20.5 6.5
c-9.33301 0 -16.5 -2.66699 -21.5 -8s-7.5 -15 -7.5 -29h-85c0 20 2.83301 37.833 8.5 53.5s13.334 29.167 23.001 40.5s21 20.166 34 26.499s27.5 9.5 43.5 9.5c12 0 23.333 -2 34 -6s20.5 -8.5 29.5 -13.5s17.167 -9.5 24.5 -13.5s14.333 -6 21 -6zM93.998 0v416.001
l-40 8c-10.667 2 -19 5.5 -25 10.5s-9 12.833 -9 23.5v54h74v56c0 26.667 3.66699 51 11 73s17.833 40.333 31.5 55s30.5 26 50.5 34c20.667 8 43.667 12 69 12c9.33301 0 17.666 -0.333008 24.999 -1s15 -2.33398 23 -5.00098v-74c0 -6.66699 -2.66699 -11.334 -8 -14.001
s-12 -4 -20 -4c-17.333 0 -29.666 -5.66699 -36.999 -17s-11 -30.666 -11 -57.999v-57h323v-512h-138v416h-181v-416h-138z" />
    <glyph glyph-name="f_idieresis.liga" unicode="f&#xef;" horiz-adv-x="612" 
d="M468 647c0 -10 -2 -19.333 -6 -28s-9.5 -16.334 -16.5 -23.001s-15 -11.667 -24 -15s-18.833 -5 -29.5 -5c-9.33301 0 -18.5 1.66699 -27.5 5s-16.833 8.33301 -23.5 15s-12 14.334 -16 23.001s-6 18 -6 28s2 19.5 6 28.5s9.33301 17 16 24s14.5 12.333 23.5 16
s18.167 5.5 27.5 5.5c10.667 0 20.5 -1.83301 29.5 -5.5s17 -9 24 -16s12.5 -15 16.5 -24s6 -18.5 6 -28.5zM646 647c0 -10 -2.00293 -19.333 -6.00293 -28s-9.33301 -16.334 -16 -23.001s-14.5 -11.667 -23.5 -15c-8.33301 -3.33301 -17.833 -5 -28.5 -5
c-10 0 -19.5 1.66699 -28.5 5s-17 8.33301 -24 15s-12.333 14.334 -16 23.001s-5.5 18 -5.5 28s1.83301 19.5 5.5 28.5s9 17 16 24s14.833 12.333 23.5 16s18.334 5.5 29.001 5.5s20.334 -1.83301 29.001 -5.5s16.334 -9 23.001 -16s12 -15 16 -24s6 -18.5 6 -28.5z
M93.9971 0v416.001l-40 8c-10.667 2 -19 5.5 -25 10.5s-9 12.833 -9 23.5v54h74v56c0 26.667 3.66699 51 11 73s17.833 40.333 31.5 55s30.5 26 50.5 34c20.667 8 43.667 12 69 12c9.33301 0 17.666 -0.333008 24.999 -1s15 -2.33398 23 -5.00098v-74
c0 -6.66699 -2.66699 -11.334 -8 -14.001s-12 -4 -20 -4c-17.333 0 -29.666 -5.66699 -36.999 -17s-11 -30.666 -11 -57.999v-57h323v-512h-138v416h-181v-416h-138z" />
    <glyph glyph-name="f_imacron.liga" unicode="f&#x12b;" horiz-adv-x="612" 
d="M330 690h304v-86h-304v86zM94 0v416.001l-40 8c-10.667 2 -19 5.5 -25 10.5s-9 12.833 -9 23.5v54h74v56c0 26.667 3.66699 51 11 73s17.833 40.333 31.5 55s30.5 26 50.5 34c20.667 8 43.667 12 69 12c9.33301 0 17.666 -0.333008 24.999 -1s15 -2.33398 23 -5.00098
v-74c0 -6.66699 -2.66699 -11.334 -8 -14.001s-12 -4 -20 -4c-17.333 0 -29.666 -5.66699 -36.999 -17s-11 -30.666 -11 -57.999v-57h323v-512h-138v416h-181v-416h-138z" />
    <glyph glyph-name="f_ibreve.liga" unicode="f&#x12d;" horiz-adv-x="612" 
d="M482 580c-29.333 0 -54.1699 3.83398 -74.5029 11.501s-36.666 18.167 -48.999 31.5s-21 28.833 -26 46.5s-7.5 36.5 -7.5 56.5h97c0 -9.33301 0.666992 -18 2 -26s4.33301 -14.5 9 -19.5s11 -8.83301 19 -11.5s18 -4 30 -4s22 1.33301 30 4s14.333 6.5 19 11.5
s7.66699 11.333 9 19c1.33301 8.33301 2 17.166 2 26.499h97c0 -20 -2.5 -38.833 -7.5 -56.5s-13.667 -33.167 -26 -46.5s-28.666 -23.833 -48.999 -31.5s-45.166 -11.5 -74.499 -11.5zM93.9961 0.000976562v416.001l-40 8c-10.667 2 -19 5.5 -25 10.5s-9 12.833 -9 23.5v54
h74v56c0 26.667 3.66699 51 11 73s17.833 40.333 31.5 55s30.5 26 50.5 34c20.667 8 43.667 12 69 12c9.33301 0 17.666 -0.333008 24.999 -1s15 -2.33398 23 -5.00098v-74c0 -6.66699 -2.66699 -11.334 -8 -14.001s-12 -4 -20 -4c-17.333 0 -29.666 -5.66699 -36.999 -17
s-11 -30.666 -11 -57.999v-57h323v-512h-138v416h-181v-416h-138z" />
    <glyph glyph-name="f_iogonek.liga" unicode="f&#x12f;" horiz-adv-x="612" 
d="M94 0l0.000976562 416l-40 8c-10.667 2 -19 5.5 -25 10.5s-9 12.833 -9 23.5v54h74v13c0 31.333 5.33301 60.666 16 87.999s27 51 49 71s49.667 35.667 83 47s73 17 119 17c14.667 0 29.5 -0.666992 44.5 -2s28.167 -3.33301 39.5 -6l-5 -71c0 -4 -1 -7.16699 -3 -9.5
s-5 -4.16602 -9 -5.49902s-8.16699 -2.16602 -12.5 -2.49902c-3.66699 -0.333008 -8.16699 -0.5 -13.5 -0.5c-33.333 0 -61.333 -2.83301 -84 -8.5s-40.667 -13.834 -54 -24.501s-22.666 -24.334 -27.999 -41.001s-8 -35.667 -8 -57v-8h323v-512h-17
c-6.66699 -4 -13 -8.16699 -19 -12.5s-11.167 -9.33301 -15.5 -15s-8 -11.5 -11 -17.5s-4.5 -12.333 -4.5 -19c0 -9.33301 2.83301 -16.666 8.5 -21.999s13.5 -8 23.5 -8c5.33301 0 10 0.166992 14 0.5s7 1 9 2s3.83301 1.66699 5.5 2
c2.33301 0.333008 4.16602 0.5 5.49902 0.5c6.66699 -0.666992 10.667 -3.66699 12 -9l21 -50c-11.333 -7.33301 -25.333 -13.333 -42 -18s-34.667 -7 -54 -7c-34.667 0 -60.834 6.83301 -78.501 20.5s-26.5 31.5 -26.5 53.5c0 18 6 35.5 18 52.5s29.667 32.5 53 46.5h-40
v416h-181v-416h-138z" />
    <glyph glyph-name="f_dotlessi.liga" unicode="f&#x131;" horiz-adv-x="612" 
d="M94 0v416.001l-40 8c-10.667 2 -19 5.5 -25 10.5s-9 12.833 -9 23.5v54h74v56c0 26.667 3.66699 51 11 73s17.833 40.333 31.5 55s30.5 26 50.5 34c20.667 8 43.667 12 69 12c9.33301 0 17.666 -0.333008 24.999 -1s15 -2.33398 23 -5.00098v-74
c0 -6.66699 -2.66699 -11.334 -8 -14.001s-12 -4 -20 -4c-17.333 0 -29.666 -5.66699 -36.999 -17s-11 -30.666 -11 -57.999v-57h323v-512h-138v416h-181v-416h-138z" />
    <glyph glyph-name="f_f_igrave.liga" unicode="ff&#xec;" horiz-adv-x="940" 
d="M740 0l0.00195312 415.999h-180v-416h-138v416h-190v-416h-138v416l-40 8c-10.667 2 -19 5.5 -25 10.5s-9 12.833 -9 23.5v54h74v26c0 29.333 4.66699 55.833 14 79.5s22.666 43.667 39.999 60s38.166 29.166 62.499 38.499c25 9.33301 52.833 14 83.5 14
c12 0 23.333 -1 34 -3s21.334 -4.33301 32.001 -7l-2 -68c-0.666992 -10 -5.16699 -16.667 -13.5 -20s-17.166 -5 -26.499 -5c-14.667 0 -27.5 -1.5 -38.5 -4.5s-20.333 -8.16699 -28 -15.5s-13.5 -17 -17.5 -29s-6 -27 -6 -45v-21h194v43c0 29.333 5.33301 55.833 16 79.5
s27 43.834 49 60.501s49.667 29.5 83 38.5s72.666 13.5 117.999 13.5c33.333 0 58.166 -2.33301 74.499 -7c15.667 -5.33301 26.167 -12 31.5 -20l78 -136h-78c-10.667 0 -19 1.33301 -25 4s-12.333 7.33398 -19 14.001l-52 54h-8c-25.333 0 -46.5 -2 -63.5 -6
s-30.667 -10.333 -41 -19s-17.833 -19.667 -22.5 -33s-7 -29 -7 -47v-39h322v-512h-138z" />
    <glyph glyph-name="f_f_icircumflex.liga" unicode="ff&#xee;" horiz-adv-x="939" 
d="M94 0v416.002l-40 8c-10.667 2 -19 5.5 -25 10.5s-9 12.833 -9 23.5v54h74v26c0 29.333 4.66699 55.833 14 79.5s22.666 43.667 39.999 60s38.166 29.166 62.499 38.499c25 9.33301 52.833 14 83.5 14c12 0 23.333 -1 34 -3s21.334 -4.33301 32.001 -7l-2 -68
c-0.666992 -10 -5.16699 -16.667 -13.5 -20s-17.166 -5 -26.499 -5c-14.667 0 -27.5 -1.5 -38.5 -4.5s-20.333 -8.16699 -28 -15.5s-13.5 -17 -17.5 -29s-6 -27 -6 -45v-21h194v56c0 26.667 3.66699 51 11 73s17.666 40.333 30.999 55s30 26 50 34s43 12 69 12
c9.33301 0 17.833 -0.333008 25.5 -1s15.5 -2.33398 23.5 -5.00098v-74c0 -6.66699 -2.83301 -11.334 -8.5 -14.001c-5 -2.66699 -11.5 -4 -19.5 -4c-17.333 0 -29.666 -5.66699 -36.999 -17s-11 -30.666 -11 -57.999v-57h322v-512h-138v416h-180v-416h-138v416h-190v-416
h-138zM992 584.002h-92.001c-5.33301 0 -10.333 1 -15 3s-9.66699 5.33301 -15 10l-44 47c-2 1.33301 -4 3.33301 -6 6c-2.66699 2.66699 -4.66699 5 -6 7c-2 -2.66699 -3.83301 -5 -5.5 -7c-1.66699 -2.66699 -3.5 -4.66699 -5.5 -6l-45 -47
c-9.33301 -8.66699 -19.666 -13 -30.999 -13h-95l116 142h128z" />
    <glyph glyph-name="f_f_itilde.liga" unicode="ff&#x129;" horiz-adv-x="939" 
d="M94 0v416.002l-40 8c-10.667 2 -19 5.5 -25 10.5s-9 12.833 -9 23.5v54h74v26c0 29.333 4.66699 55.833 14 79.5s22.666 43.667 39.999 60s38.166 29.166 62.499 38.499c25 9.33301 52.833 14 83.5 14c12 0 23.333 -1 34 -3s21.334 -4.33301 32.001 -7l-2 -68
c-0.666992 -10 -5.16699 -16.667 -13.5 -20s-17.166 -5 -26.499 -5c-14.667 0 -27.5 -1.5 -38.5 -4.5s-20.333 -8.16699 -28 -15.5s-13.5 -17 -17.5 -29s-6 -27 -6 -45v-21h194v56c0 26.667 3.66699 51 11 73s17.666 40.333 30.999 55s30 26 50 34s43 12 69 12
c9.33301 0 17.833 -0.333008 25.5 -1s15.5 -2.33398 23.5 -5.00098v-74c0 -6.66699 -2.83301 -11.334 -8.5 -14.001c-5 -2.66699 -11.5 -4 -19.5 -4c-17.333 0 -29.666 -5.66699 -36.999 -17s-11 -30.666 -11 -57.999v-57h322v-512h-138v416h-180v-416h-138v416h-190v-416
h-138zM865 686.002c9.33301 0 16.498 2.33301 21.498 7s7.5 14.334 7.5 29.001h84c0 -20 -2.66699 -38 -8 -54s-12.833 -29.667 -22.5 -41s-21.167 -20 -34.5 -26s-27.666 -9 -42.999 -9c-12 0 -23.333 2 -34 6s-20.5 8.5 -29.5 13.5s-17.333 9.66699 -25 14
s-14.5 6.5 -20.5 6.5c-9.33301 0 -16.5 -2.66699 -21.5 -8s-7.5 -15 -7.5 -29h-85c0 20 2.83301 37.833 8.5 53.5s13.334 29.167 23.001 40.5s21 20.166 34 26.499s27.5 9.5 43.5 9.5c12 0 23.333 -2 34 -6s20.5 -8.5 29.5 -13.5s17.167 -9.5 24.5 -13.5s14.333 -6 21 -6z
" />
    <glyph glyph-name="f_f_idieresis.liga" unicode="ff&#xef;" horiz-adv-x="939" 
d="M795 647c0 -10 -2.00195 -19.333 -6.00195 -28s-9.5 -16.334 -16.5 -23.001s-15 -11.667 -24 -15c-8.33301 -3.33301 -17.833 -5 -28.5 -5c-9.33301 0 -18.666 1.66699 -27.999 5s-17.333 8.33301 -24 15s-12 14.334 -16 23.001s-6 18 -6 28s2 19.5 6 28.5
s9.33301 17 16 24s14.5 12.333 23.5 16c9.66699 3.66699 19.167 5.5 28.5 5.5c10.667 0 20.334 -1.83301 29.001 -5.5s16.5 -9 23.5 -16s12.5 -15 16.5 -24s6 -18.5 6 -28.5zM973.998 647c0 -10 -1.99902 -19.333 -5.99902 -28s-9.33301 -16.334 -16 -23.001
s-14.667 -11.667 -24 -15s-19.333 -5 -30 -5c-10 0 -19.5 1.66699 -28.5 5s-16.833 8.33301 -23.5 15s-11.834 14.334 -15.501 23.001s-5.5 18 -5.5 28s1.83301 19.5 5.5 28.5s8.83398 17 15.501 24s14.667 12.333 24 16s18.666 5.5 27.999 5.5
c10.667 0 20.667 -1.83301 30 -5.5s17.333 -9 24 -16s12 -15 16 -24s6 -18.5 6 -28.5zM93.999 0v416.002l-40 8c-10.667 2 -19 5.5 -25 10.5s-9 12.833 -9 23.5v54h74v26c0 29.333 4.66699 55.833 14 79.5s22.666 43.667 39.999 60s38.166 29.166 62.499 38.499
c25 9.33301 52.833 14 83.5 14c12 0 23.333 -1 34 -3s21.334 -4.33301 32.001 -7l-2 -68c-0.666992 -10 -5.16699 -16.667 -13.5 -20s-17.166 -5 -26.499 -5c-14.667 0 -27.5 -1.5 -38.5 -4.5s-20.333 -8.16699 -28 -15.5s-13.5 -17 -17.5 -29s-6 -27 -6 -45v-21h194v56
c0 26.667 3.66699 51 11 73s17.666 40.333 30.999 55s30 26 50 34s43 12 69 12c9.33301 0 17.833 -0.333008 25.5 -1s15.5 -2.33398 23.5 -5.00098v-74c0 -6.66699 -2.83301 -11.334 -8.5 -14.001c-5 -2.66699 -11.5 -4 -19.5 -4c-17.333 0 -29.666 -5.66699 -36.999 -17
s-11 -30.666 -11 -57.999v-57h322v-512h-138v416h-180v-416h-138v416h-190v-416h-138z" />
    <glyph glyph-name="f_f_imacron.liga" unicode="ff&#x12b;" horiz-adv-x="939" 
d="M94 0v416.002l-40 8c-10.667 2 -19 5.5 -25 10.5s-9 12.833 -9 23.5v54h74v26c0 29.333 4.66699 55.833 14 79.5s22.666 43.667 39.999 60s38.166 29.166 62.499 38.499c25 9.33301 52.833 14 83.5 14c12 0 23.333 -1 34 -3s21.334 -4.33301 32.001 -7l-2 -68
c-0.666992 -10 -5.16699 -16.667 -13.5 -20s-17.166 -5 -26.499 -5c-14.667 0 -27.5 -1.5 -38.5 -4.5s-20.333 -8.16699 -28 -15.5s-13.5 -17 -17.5 -29s-6 -27 -6 -45v-21h194v56c0 26.667 3.66699 51 11 73s17.666 40.333 30.999 55s30 26 50 34s43 12 69 12
c9.33301 0 17.833 -0.333008 25.5 -1s15.5 -2.33398 23.5 -5.00098v-74c0 -6.66699 -2.83301 -11.334 -8.5 -14.001c-5 -2.66699 -11.5 -4 -19.5 -4c-17.333 0 -29.666 -5.66699 -36.999 -17s-11 -30.666 -11 -57.999v-57h322v-512h-138v416h-180v-416h-138v416h-190v-416
h-138zM660 690.002h304v-86h-304v86z" />
    <glyph glyph-name="f_f_ibreve.liga" unicode="ff&#x12d;" horiz-adv-x="939" 
d="M94 0v416.002l-40 8c-10.667 2 -19 5.5 -25 10.5s-9 12.833 -9 23.5v54h74v26c0 29.333 4.66699 55.833 14 79.5s22.666 43.667 39.999 60s38.166 29.166 62.499 38.499c25 9.33301 52.833 14 83.5 14c12 0 23.333 -1 34 -3s21.334 -4.33301 32.001 -7l-2 -68
c-0.666992 -10 -5.16699 -16.667 -13.5 -20s-17.166 -5 -26.499 -5c-14.667 0 -27.5 -1.5 -38.5 -4.5s-20.333 -8.16699 -28 -15.5s-13.5 -17 -17.5 -29s-6 -27 -6 -45v-21h194v56c0 26.667 3.66699 51 11 73s17.666 40.333 30.999 55s30 26 50 34s43 12 69 12
c9.33301 0 17.833 -0.333008 25.5 -1s15.5 -2.33398 23.5 -5.00098v-74c0 -6.66699 -2.83301 -11.334 -8.5 -14.001c-5 -2.66699 -11.5 -4 -19.5 -4c-17.333 0 -29.666 -5.66699 -36.999 -17s-11 -30.666 -11 -57.999v-57h322v-512h-138v416h-180v-416h-138v416h-190v-416
h-138zM812 580.002c-29.333 0 -54.1699 3.83398 -74.5029 11.501s-36.666 18.167 -48.999 31.5s-21 28.833 -26 46.5s-7.5 36.5 -7.5 56.5h97c0 -9.33301 0.666992 -18 2 -26s4.33301 -14.5 9 -19.5s11 -8.83301 19 -11.5s18 -4 30 -4s22 1.33301 30 4s14.333 6.5 19 11.5
s7.66699 11.333 9 19c1.33301 8.33301 2 17.166 2 26.499h97c0 -20 -2.5 -38.833 -7.5 -56.5s-13.667 -33.167 -26 -46.5s-28.666 -23.833 -48.999 -31.5s-45.166 -11.5 -74.499 -11.5z" />
    <glyph glyph-name="f_f_iogonek.liga" unicode="ff&#x12f;" horiz-adv-x="939" 
d="M94 0l-0.00195312 416.003l-40 8c-10.667 2 -19 5.5 -25 10.5s-9 12.833 -9 23.5v54h74v26c0 29.333 4.66699 55.833 14 79.5s22.666 43.667 39.999 60s38.166 29.166 62.499 38.499c25 9.33301 52.833 14 83.5 14c12 0 23.333 -1 34 -3s21.334 -4.33301 32.001 -7
l-2 -68c-0.666992 -10 -5.16699 -16.667 -13.5 -20s-17.166 -5 -26.499 -5c-14.667 0 -27.5 -1.5 -38.5 -4.5s-20.333 -8.16699 -28 -15.5s-13.5 -17 -17.5 -29s-6 -27 -6 -45v-21h194v13c0 31.333 5.33301 60.666 16 87.999s26.834 51 48.501 71s49.334 35.667 83.001 47
s73.167 17 118.5 17c14.667 0 29.667 -0.666992 45 -2s28.333 -3.33301 39 -6l-4 -71c-0.666992 -8 -4.83398 -13 -12.501 -15s-16.5 -3 -26.5 -3c-33.333 0 -61.166 -2.83301 -83.499 -8.5s-40.166 -13.834 -53.499 -24.501s-22.666 -24.334 -27.999 -41.001
s-8 -35.667 -8 -57v-8h322v-512h-14c-6.66699 -4 -13 -8.16699 -19 -12.5s-11.167 -9.33301 -15.5 -15s-8 -11.5 -11 -17.5s-4.5 -12.333 -4.5 -19c0 -9.33301 2.83301 -16.666 8.5 -21.999s13.5 -8 23.5 -8c5.33301 0 10 0.166992 14 0.5s7 1 9 2s3.83301 1.66699 5.5 2
c2.33301 0.333008 4.16602 0.5 5.49902 0.5c6.66699 -0.666992 10.667 -3.66699 12 -9l21 -50c-11.333 -7.33301 -25.333 -13.333 -42 -18s-34.667 -7 -54 -7c-34.667 0 -60.834 6.83301 -78.501 20.5s-26.5 31.5 -26.5 53.5c0 18 6 35.5 18 52.5s29.667 32.5 53 46.5h-43
v416h-180v-416h-138v416h-190v-416h-138z" />
    <glyph glyph-name="f_f_dotlessi.liga" unicode="ff&#x131;" horiz-adv-x="940" 
d="M94 0v416.002l-40 8c-10.667 2 -19 5.5 -25 10.5s-9 12.833 -9 23.5v54h74v26c0 29.333 4.66699 55.833 14 79.5s22.666 43.667 39.999 60s38.166 29.166 62.499 38.499c25 9.33301 52.833 14 83.5 14c12 0 23.333 -1 34 -3s21.334 -4.33301 32.001 -7l-2 -68
c-0.666992 -10 -5.16699 -16.667 -13.5 -20s-17.166 -5 -26.499 -5c-14.667 0 -27.5 -1.5 -38.5 -4.5s-20.333 -8.16699 -28 -15.5s-13.5 -17 -17.5 -29s-6 -27 -6 -45v-21h194v56c0 26.667 3.66699 51 11 73s17.666 40.333 30.999 55s30 26 50 34s43 12 69 12
c9.33301 0 17.833 -0.333008 25.5 -1s15.5 -2.33398 23.5 -5.00098v-74c0 -6.66699 -2.83301 -11.334 -8.5 -14.001c-5 -2.66699 -11.5 -4 -19.5 -4c-17.333 0 -29.666 -5.66699 -36.999 -17s-11 -30.666 -11 -57.999v-57h322v-512h-138v416h-180v-416h-138v416h-190v-416
h-138z" />
    <glyph glyph-name="f_j.liga" unicode="fj" horiz-adv-x="612" 
d="M94 0l-0.000976562 415.998l-40 8c-10.667 2 -19 5.5 -25 10.5s-9 12.833 -9 23.5v54h74v13c0 31.333 5.33301 60.666 16 87.999s27 51 49 71s49.667 35.667 83 47s73 17 119 17c14.667 0 29.5 -0.666992 44.5 -2s28.167 -3.33301 39.5 -6l-5 -71
c0 -4 -1 -7.16699 -3 -9.5s-5 -4.16602 -9 -5.49902s-8.16699 -2.16602 -12.5 -2.49902c-3.66699 -0.333008 -8.16699 -0.5 -13.5 -0.5c-33.333 0 -61.333 -2.83301 -84 -8.5s-40.667 -13.834 -54 -24.501s-22.666 -24.334 -27.999 -41.001s-8 -35.667 -8 -57v-8h323v-522
c0 -23.333 -3 -45.166 -9 -65.499s-15.833 -38.166 -29.5 -53.499s-31.334 -27.666 -53.001 -36.999s-48.5 -14 -80.5 -14c-12 0 -23.167 1 -33.5 3s-21.166 4.33301 -32.499 7l5 73c0.666992 6.66699 3.16699 11.334 7.5 14.001s12.5 4 24.5 4s22 1.16699 30 3.5
s14.5 6.16602 19.5 11.499s8.5 12.333 10.5 21s3 19.667 3 33v426h-181v-416h-138z" />
    <glyph glyph-name="f_f_j.liga" unicode="ffj" horiz-adv-x="940" 
d="M94 0l-0.00390625 416.001l-40 8c-10.667 2 -19 5.5 -25 10.5s-9 12.833 -9 23.5v54h74v26c0 29.333 4.66699 55.833 14 79.5s22.666 43.667 39.999 60s38.166 29.166 62.499 38.499c25 9.33301 52.833 14 83.5 14c12 0 23.333 -1 34 -3s21.334 -4.33301 32.001 -7
l-2 -68c-0.666992 -10 -5.16699 -16.667 -13.5 -20s-17.166 -5 -26.499 -5c-14.667 0 -27.5 -1.5 -38.5 -4.5s-20.333 -8.16699 -28 -15.5s-13.5 -17 -17.5 -29s-6 -27 -6 -45v-21h194v13c0 31.333 5.33301 60.666 16 87.999s26.834 51 48.501 71s49.334 35.667 83.001 47
s73.167 17 118.5 17c14.667 0 29.667 -0.666992 45 -2s28.333 -3.33301 39 -6l-4 -71c-0.666992 -8 -4.83398 -13 -12.501 -15s-16.5 -3 -26.5 -3c-33.333 0 -61.166 -2.83301 -83.499 -8.5s-40.166 -13.834 -53.499 -24.501s-22.666 -24.334 -27.999 -41.001
s-8 -35.667 -8 -57v-8h322v-522c0 -23.333 -3 -45.166 -9 -65.499s-15.667 -38.166 -29 -53.499s-31 -27.666 -53 -36.999s-49 -14 -81 -14c-12 0 -23.167 1 -33.5 3s-20.833 4.33301 -31.5 7l5 73c0.666992 6.66699 3 11.334 7 14.001c4.66699 2.66699 13 4 25 4
s22 1.16699 30 3.5s14.333 6.16602 19 11.499s8 12.333 10 21s3 19.667 3 33v426h-180v-416h-138v416h-190v-416h-138z" />
    <glyph glyph-name="f_k.liga" unicode="fk" horiz-adv-x="916" 
d="M94 0l0.00488281 415.997l-40 8c-10.667 2 -19 5.5 -25 10.5s-9 12.833 -9 23.5v54h74v32c0 30.667 5 59.167 15 85.5s25.667 49 47 68s48.666 33.833 81.999 44.5s73.333 16 120 16c16 0 31.333 -0.666992 46 -2s29.667 -2.66602 45 -3.99902
s31.166 -2.66602 47.499 -3.99902c15.667 -1.33301 34.167 -2 55.5 -2h14v-424h23c8.66699 0 15.5 1.33301 20.5 4c4.33301 2.66699 9.16602 7.33398 14.499 14.001l114 152c5.33301 8 11.666 14 18.999 18s16.666 6 27.999 6h126l-148 -188
c-12.667 -16 -26.334 -28.667 -41.001 -38c8 -5.33301 14.833 -11.333 20.5 -18s11.167 -14.667 16.5 -24l159 -248h-124c-10.667 0 -19.667 1.66699 -27 5s-13.666 9.66602 -18.999 18.999l-116 190c-4.66699 8 -9.5 13 -14.5 15s-12.5 3 -22.5 3h-29v-232h-138v655
c-12 4.66699 -24.833 8.33398 -38.5 11.001c-13 2.66699 -26.167 4 -39.5 4c-20 0 -37.667 -3 -53 -9s-28 -14.667 -38 -26s-17.667 -24.833 -23 -40.5s-8 -32.5 -8 -50.5v-32h128v-96h-124v-416h-138z" />
    <glyph glyph-name="f_f_k.liga" unicode="ffk" horiz-adv-x="1244" 
d="M94 0l0.00292969 415.999l-40 8c-10.667 2 -19 5.5 -25 10.5s-9 12.833 -9 23.5v54h74v26c0 29.333 4.66699 55.833 14 79.5s22.666 43.667 39.999 60s38.166 29.166 62.499 38.499c25 9.33301 52.833 14 83.5 14c12 0 23.333 -1 34 -3s21.334 -4.33301 32.001 -7l-2 -68
c-0.666992 -10 -5.16699 -16.667 -13.5 -20s-17.166 -5 -26.499 -5c-14.667 0 -27.5 -1.5 -38.5 -4.5s-20.333 -8.16699 -28 -15.5s-13.5 -17 -17.5 -29s-6 -27 -6 -45v-21h194v32c0 30.667 5 59.167 15 85.5s25.5 49 46.5 68s48.167 33.833 81.5 44.5s73.666 16 120.999 16
c16 0 31.333 -0.666992 46 -2s29.5 -2.66602 44.5 -3.99902s30.833 -2.66602 47.5 -3.99902s35.334 -2 56.001 -2h14v-424h22c8.66699 0 15.5 1.33301 20.5 4s10.167 7.33398 15.5 14.001l114 152c5.33301 8 11.666 14 18.999 18s16.333 6 27 6h126l-148 -188
c-12 -16 -25.333 -28.667 -40 -38c8 -5.33301 14.667 -11.333 20 -18s10.666 -14.667 15.999 -24l160 -248h-124c-10.667 0 -19.834 1.66699 -27.501 5c-7 3.33301 -13.167 9.66602 -18.5 18.999l-116 190c-4.66699 8 -9.5 13 -14.5 15s-12.833 3 -23.5 3h-28v-232h-138v656
c-12 4.66699 -24.833 8.16699 -38.5 10.5c-13 2.33301 -26.167 3.5 -39.5 3.5c-20 0 -37.667 -3 -53 -9s-28 -14.667 -38 -26s-17.667 -24.833 -23 -40.5s-8 -32.5 -8 -50.5v-32h128v-96h-124v-416h-138v416h-190v-416h-138z" />
    <glyph glyph-name="f_t.liga" unicode="ft" horiz-adv-x="717" 
d="M568 416l-0.00390625 -268.004c0 -14.667 3.33301 -26.167 10 -34.5s16.334 -12.5 29.001 -12.5c6.66699 0 12.334 0.833008 17.001 2.5s8.66699 3.33398 12 5.00098s6.5 3.33398 9.5 5.00098s5.83301 2.5 8.5 2.5c4 0 7.33301 -1 10 -3s5.33398 -5 8.00098 -9l42 -66
c-18.667 -14.667 -40.167 -26 -64.5 -34c-25 -8 -50.167 -12 -75.5 -12c-23.333 0 -43.833 3.33301 -61.5 10s-32.834 16.334 -45.501 29.001s-22 28 -28 46s-9 38.333 -9 61v278h-198v-416h-138v416l-40 8c-10.667 2 -19 5.5 -25 10.5s-9 12.833 -9 23.5v54h74v34
c0 29.333 4.66699 56 14 80s22.5 44.333 39.5 61s37.833 29.334 62.5 38.001c25.333 8.66699 53.333 13 84 13c12 0 23.333 -0.666992 34 -2s21.334 -3.33301 32.001 -6l-2 -68c-0.666992 -10.667 -5.16699 -17.667 -13.5 -21s-17.5 -5 -27.5 -5
c-14 0 -26.667 -1.33301 -38 -4s-20.666 -7.66699 -27.999 -15s-13 -17 -17 -29s-6 -27.333 -6 -46v-30h208l30 135c4 15.333 14 23 30 23h72v-158h132v-96h-132z" />
    <glyph glyph-name="f_f_t.liga" unicode="fft" horiz-adv-x="1044" 
d="M94 0l0.000976562 415.996l-40 8c-10.667 2 -19 5.5 -25 10.5s-9 12.833 -9 23.5v54h74v26c0 29.333 4.66699 55.833 14 79.5s22.666 43.667 39.999 60s38.166 29.166 62.499 38.499c25 9.33301 52.833 14 83.5 14c12 0 23.333 -1 34 -3s21.334 -4.33301 32.001 -7
l-2 -68c-0.666992 -10 -5.16699 -16.667 -13.5 -20s-17.166 -5 -26.499 -5c-14.667 0 -27.5 -1.5 -38.5 -4.5s-20.333 -8.16699 -28 -15.5s-13.5 -17 -17.5 -29s-6 -27 -6 -45v-21h194v34c0 29.333 4.66699 56 14 80s22.5 44.333 39.5 61s37.667 29.334 62 38.001
s52.166 13 83.499 13c12 0 23.5 -0.666992 34.5 -2s21.833 -3.33301 32.5 -6l-2 -68c0 -5.33301 -1.33301 -9.66602 -4 -12.999s-6 -6 -10 -8s-8.33301 -3.33301 -13 -4s-9.33398 -1 -14.001 -1c-14.667 0 -27.5 -1.33301 -38.5 -4s-20.167 -7.66699 -27.5 -15
s-13 -17 -17 -29s-6 -27.333 -6 -46v-30h208l29 135c4.66699 15.333 15 23 31 23h71v-158h133v-96h-133v-268c0 -14.667 3.5 -26.167 10.5 -34.5s16.833 -12.5 29.5 -12.5c6.66699 0 12.167 0.833008 16.5 2.5s8.33301 3.33398 12 5.00098s7 3.33398 10 5.00098
s5.83301 2.5 8.5 2.5c4 0 7.33301 -1 10 -3s5.33398 -5 8.00098 -9l42 -66c-18.667 -14.667 -40.167 -26 -64.5 -34s-49.5 -12 -75.5 -12c-23.333 0 -44 3.33301 -62 10s-33.167 16.334 -45.5 29.001s-21.5 28 -27.5 46s-9 38.333 -9 61v278h-198v-416h-138v416h-190v-416
h-138z" />
    <glyph glyph-name="t_f.liga" unicode="tf" horiz-adv-x="709" 
d="M441 0l-0.00683594 415.996h-213v-268c0 -14.667 3.33301 -26.167 10 -34.5s16.667 -12.5 30 -12.5c6.66699 0 12.334 0.833008 17.001 2.5s8.66699 3.33398 12 5.00098s6.33301 3.33398 9 5.00098s5.33398 2.5 8.00098 2.5c4 0 7.33301 -1 10 -3s5.33398 -5 8.00098 -9
l42 -66c-18.667 -14.667 -40 -26 -64 -34s-49 -12 -75 -12c-23.333 0 -44 3.33301 -62 10s-33.167 16.334 -45.5 29.001s-21.666 28 -27.999 46s-9.5 38.333 -9.5 61v278h-48c-7.33301 0 -13.666 2.33301 -18.999 7s-8 11.667 -8 21v54l83 16l28 133c4 15.333 14 23 30 23
h72v-158h213v34c0 29.333 4.5 56 13.5 80s22.167 44.333 39.5 61s38.333 29.334 63 38.001s52.334 13 83.001 13c12 0 23.333 -0.666992 34 -2s21.667 -3.33301 33 -6l-3 -68c-0.666992 -10.667 -5.16699 -17.667 -13.5 -21s-17.166 -5 -26.499 -5
c-14 0 -26.667 -1.33301 -38 -4s-20.833 -7.66699 -28.5 -15s-13.5 -17 -17.5 -29s-6 -27.333 -6 -46v-30h128v-96h-124v-416h-137z" />
    <glyph glyph-name="t_iogonek.liga" unicode="t&#x12f;" horiz-adv-x="656" 
d="M598 -89c6.66699 -0.666992 10.665 -3.6709 11.998 -9.00391l21 -50c-11.333 -7.33301 -25.333 -13.333 -42 -18s-34.667 -7 -54 -7c-34.667 0 -60.834 6.83301 -78.501 20.5s-26.5 31.5 -26.5 53.5c0 18 6 35.5 18 52.5s29.667 32.5 53 46.5h-44v416h-229v-268
c0 -14.667 3.66699 -26.167 11 -34.5s17 -12.5 29 -12.5c6.66699 0 12.334 0.833008 17.001 2.5s8.66699 3.33398 12 5.00098s6.33301 3.33398 9 5.00098s5.66699 2.5 9 2.5c4 0 7.33301 -1 10 -3s5.33398 -5 8.00098 -9l41 -66c-18.667 -14.667 -40 -26 -64 -34
s-48.667 -12 -74 -12c-23.333 0 -44.166 3.33301 -62.499 10s-33.5 16.334 -45.5 29.001s-21.333 28 -28 46s-10 38.333 -10 61v278h-48c-7.33301 0 -13.5 2.33301 -18.5 7s-7.5 11.667 -7.5 21v54l82 16l28 133c4 15.333 14.333 23 31 23h71v-158h366v-512h-12
c-6.66699 -4 -13 -8.16699 -19 -12.5s-11.167 -9.33301 -15.5 -15s-8 -11.5 -11 -17.5s-4.5 -12.333 -4.5 -19c0 -9.33301 2.66699 -16.666 8 -21.999s13.333 -8 24 -8c5.33301 0 10 0.166992 14 0.5s7 1 9 2s4 1.66699 6 2s3.66699 0.5 5 0.5zM611.998 661.996
c0 -12 -2.33203 -23 -6.99902 -33s-11 -18.667 -19 -26s-17.333 -13.333 -28 -18s-22 -7 -34 -7s-23 2.33301 -33 7s-18.667 10.667 -26 18s-13.333 16 -18 26s-7 21 -7 33s2.33301 23 7 33s10.667 18.833 18 26.5s16.166 13.667 26.499 18
c9.66699 4.33301 20.5 6.5 32.5 6.5s23.333 -2.16699 34 -6.5s20 -10.333 28 -18s14.333 -16.5 19 -26.5s7 -21 7 -33z" />
    <glyph glyph-name="t_dotlessi.liga" unicode="t&#x131;" horiz-adv-x="655" 
d="M594 512l-0.00488281 -512.003h-138v416h-228v-268c0 -14.667 3.33301 -26.167 10 -34.5s16.667 -12.5 30 -12.5c6.66699 0 12.334 0.833008 17.001 2.5s8.66699 3.33398 12 5.00098s6.33301 3.33398 9 5.00098s5.33398 2.5 8.00098 2.5c4 0 7.33301 -1 10 -3
s5.33398 -5 8.00098 -9l42 -66c-18.667 -14.667 -40 -26 -64 -34s-49 -12 -75 -12c-23.333 0 -44 3.33301 -62 10s-33.167 16.334 -45.5 29.001s-21.666 28 -27.999 46s-9.5 38.333 -9.5 61v278h-48c-7.33301 0 -13.666 2.33301 -18.999 7s-8 11.667 -8 21v54l83 16l28 133
c4 15.333 14 23 30 23h72v-158h366z" />
    <glyph glyph-name="t_t.liga" unicode="tt" horiz-adv-x="711" 
d="M235 -8c-23.333 0 -44.0098 3.32715 -62.0098 9.99414s-33.167 16.334 -45.5 29.001s-21.666 28 -27.999 46s-9.5 38.333 -9.5 61v278h-48c-7.33301 0 -13.666 2.33301 -18.999 7s-8 11.667 -8 21v54l83 16l28 133c4 15.333 14 23 30 23h72v-158h203l29 135
c4 15.333 14 23 30 23h72v-158h133v-96h-133v-268c0 -14.667 3.5 -26.167 10.5 -34.5c7.66699 -8.33301 17.5 -12.5 29.5 -12.5c6.66699 0 12.334 0.833008 17.001 2.5s8.66699 3.33398 12 5.00098s6.33301 3.33398 9 5.00098s5.33398 2.5 8.00098 2.5c4 0 7.33301 -1 10 -3
s5.33398 -5 8.00098 -9l42 -66c-18.667 -14.667 -40 -26 -64 -34s-49 -12 -75 -12c-23.333 0 -44 3.33301 -62 10s-33.167 16.334 -45.5 29.001s-21.666 28 -27.999 46s-9.5 38.333 -9.5 61v278h-196v-268c0 -14.667 3.33301 -26.167 10 -34.5s16.667 -12.5 30 -12.5
c6.66699 0 12.334 0.833008 17.001 2.5s8.66699 3.33398 12 5.00098s6.33301 3.33398 9 5.00098s5.33398 2.5 8.00098 2.5c4 0 7.33301 -1 10 -3s5.33398 -5 8.00098 -9l42 -66c-18.667 -14.667 -40.167 -26 -64.5 -34s-49.166 -12 -74.499 -12z" />
    <glyph glyph-name="t_t_f.liga" unicode="ttf" horiz-adv-x="1043" 
d="M775 0l-0.0107422 415.993h-213v-268c0 -14.667 3.5 -26.167 10.5 -34.5c7.66699 -8.33301 17.5 -12.5 29.5 -12.5c6.66699 0 12.334 0.833008 17.001 2.5s8.66699 3.33398 12 5.00098s6.33301 3.33398 9 5.00098s5.33398 2.5 8.00098 2.5c4 0 7.33301 -1 10 -3
s5.33398 -5 8.00098 -9l42 -66c-18.667 -14.667 -40 -26 -64 -34s-49 -12 -75 -12c-23.333 0 -44 3.33301 -62 10s-33.167 16.334 -45.5 29.001s-21.666 28 -27.999 46s-9.5 38.333 -9.5 61v278h-196v-268c0 -14.667 3.33301 -26.167 10 -34.5s16.667 -12.5 30 -12.5
c6.66699 0 12.334 0.833008 17.001 2.5s8.66699 3.33398 12 5.00098s6.33301 3.33398 9 5.00098s5.33398 2.5 8.00098 2.5c4 0 7.33301 -1 10 -3s5.33398 -5 8.00098 -9l42 -66c-18.667 -14.667 -40 -26 -64 -34s-49 -12 -75 -12c-23.333 0 -44 3.33301 -62 10
s-33.167 16.334 -45.5 29.001s-21.666 28 -27.999 46s-9.5 38.333 -9.5 61v278h-48c-7.33301 0 -13.666 2.33301 -18.999 7s-8 11.667 -8 21v54l83 16l28 133c4 15.333 14 23 30 23h72v-158h203l29 135c4 15.333 14 23 30 23h72v-158h213v34c0 29.333 4.5 56 13.5 80
s22.167 44.333 39.5 61s38.333 29.334 63 38.001s52.334 13 83.001 13c12 0 23.333 -0.666992 34 -2s21.667 -3.33301 33 -6l-3 -68c-0.666992 -10.667 -5.16699 -17.667 -13.5 -21s-17.166 -5 -26.499 -5c-14 0 -26.667 -1.33301 -38 -4s-20.833 -7.66699 -28.5 -15
s-13.5 -17 -17.5 -29s-6 -27.333 -6 -46v-30h128v-96h-124v-416h-137z" />
    <glyph glyph-name="t_t_iogonek.liga" unicode="tt&#x12f;" horiz-adv-x="980" 
d="M923 -89c6.66699 -0.666992 10.9941 -3.67383 12.9941 -9.00684l20 -50c-11.333 -7.33301 -25.333 -13.333 -42 -18c-17.333 -4.66699 -35.333 -7 -54 -7c-34.667 0 -60.667 6.83301 -78 20.5s-26 31.5 -26 53.5c0 18 5.83301 35.5 17.5 52.5c11 17 28.5 32.5 52.5 46.5
h-45v416h-219v-268c0 -14.667 3.66699 -26.167 11 -34.5s17 -12.5 29 -12.5c6.66699 0 12.334 0.833008 17.001 2.5s8.66699 3.33398 12 5.00098s6.33301 3.33398 9 5.00098s5.66699 2.5 9 2.5c4 0 7.33301 -1 10 -3s5.33398 -5 8.00098 -9l42 -66
c-18.667 -14.667 -40.167 -26 -64.5 -34s-49.166 -12 -74.499 -12c-23.333 0 -44.166 3.33301 -62.499 10s-33.5 16.334 -45.5 29.001s-21.167 28 -27.5 46s-9.5 38.333 -9.5 61v278h-197v-268c0 -14.667 3.66699 -26.167 11 -34.5s17 -12.5 29 -12.5
c6.66699 0 12.334 0.833008 17.001 2.5s8.66699 3.33398 12 5.00098s6.33301 3.33398 9 5.00098s5.66699 2.5 9 2.5c4 0 7.33301 -1 10 -3s5.33398 -5 8.00098 -9l41 -66c-18.667 -14.667 -40 -26 -64 -34s-48.667 -12 -74 -12c-23.333 0 -44.166 3.33301 -62.499 10
s-33.5 16.334 -45.5 29.001s-21.333 28 -28 46s-10 38.333 -10 61v278h-48c-7.33301 0 -13.5 2.33301 -18.5 7s-7.5 11.667 -7.5 21v54l82 16l28 133c4 15.333 14.333 23 31 23h71v-158h204l28 135c4 15.333 14.333 23 31 23h71v-158h357v-512h-11
c-6.66699 -4 -13 -8.16699 -19 -12.5s-11.333 -9.33301 -16 -15s-8.33398 -11.5 -11.001 -17.5s-4 -12.333 -4 -19c0 -9.33301 2.66699 -16.666 8 -21.999s13.333 -8 24 -8c5.33301 0 9.83301 0.166992 13.5 0.5s6.66699 1 9 2s4.33301 1.66699 6 2s3.16699 0.5 4.5 0.5z
M935.994 661.993c0 -12 -2.33301 -23 -7 -33s-11 -18.667 -19 -26s-17.333 -13.333 -28 -18s-22 -7 -34 -7c-11.333 0 -22 2.33301 -32 7s-18.833 10.667 -26.5 18s-13.834 16 -18.501 26s-7 21 -7 33s2.33301 23 7 33s10.834 18.833 18.501 26.5s16.667 13.667 27 18
s20.833 6.5 31.5 6.5c12 0 23.333 -2.16699 34 -6.5s20 -10.333 28 -18s14.333 -16.5 19 -26.5s7 -21 7 -33z" />
    <glyph glyph-name="t_t_dotlessi.liga" unicode="tt&#x131;" horiz-adv-x="979" 
d="M235 -8c-23.333 0 -44.0098 3.32715 -62.0098 9.99414s-33.167 16.334 -45.5 29.001s-21.666 28 -27.999 46s-9.5 38.333 -9.5 61v278h-48c-7.33301 0 -13.666 2.33301 -18.999 7s-8 11.667 -8 21v54l83 16l28 133c4 15.333 14 23 30 23h72v-158h203l29 135
c4 15.333 14 23 30 23h72v-158h356v-512h-138v416h-218v-268c0 -14.667 3.5 -26.167 10.5 -34.5c7.66699 -8.33301 17.5 -12.5 29.5 -12.5c6.66699 0 12.334 0.833008 17.001 2.5s8.66699 3.33398 12 5.00098s6.33301 3.33398 9 5.00098s5.33398 2.5 8.00098 2.5
c4 0 7.33301 -1 10 -3s5.33398 -5 8.00098 -9l42 -66c-18.667 -14.667 -40 -26 -64 -34s-49 -12 -75 -12c-23.333 0 -44 3.33301 -62 10s-33.167 16.334 -45.5 29.001s-21.666 28 -27.999 46s-9.5 38.333 -9.5 61v278h-196v-268c0 -14.667 3.33301 -26.167 10 -34.5
s16.667 -12.5 30 -12.5c6.66699 0 12.334 0.833008 17.001 2.5s8.66699 3.33398 12 5.00098s6.33301 3.33398 9 5.00098s5.33398 2.5 8.00098 2.5c4 0 7.33301 -1 10 -3s5.33398 -5 8.00098 -9l42 -66c-18.667 -14.667 -40.167 -26 -64.5 -34s-49.166 -12 -74.499 -12z" />
    <glyph glyph-name="f_uni01D0.liga" unicode="f&#x1d0;" horiz-adv-x="612" 
d="M94 0v416.001l-40 8c-10.667 2 -19 5.5 -25 10.5s-9 12.833 -9 23.5v54h74v56c0 26.667 3.66699 51 11 73s17.833 40.333 31.5 55s30.5 26 50.5 34c20.667 8 43.667 12 69 12c9.33301 0 17.666 -0.333008 24.999 -1s15 -2.33398 23 -5.00098v-74
c0 -6.66699 -2.66699 -11.334 -8 -14.001s-12 -4 -20 -4c-17.333 0 -29.666 -5.66699 -36.999 -17s-11 -30.666 -11 -57.999v-57h323v-512h-138v416h-181v-416h-138zM318 726.001h95.002c5.33301 0 10.833 -0.833008 16.5 -2.5c5.66699 -2.33301 9.16699 -4.83301 10.5 -7.5
l35 -50c2 -3.33301 4 -7 6 -11l6 -12c1.33301 4 3 7.83301 5 11.5c1.33301 3.66699 3.33301 7.5 6 11.5l36 50c1.33301 2.66699 4.66602 5 9.99902 7s10.666 3 15.999 3h92l-102 -142h-130z" />
    <glyph glyph-name="f_uni0209.liga" unicode="f&#x209;" horiz-adv-x="612" 
d="M273 742c16 0 29.3301 -0.5 39.9971 -1.5s19.834 -3 27.501 -6s14.334 -6.83301 20.001 -11.5c5 -4.66699 10.167 -10.334 15.5 -17.001l89 -122h-65c-10.667 0 -19.167 1.33301 -25.5 4s-12.833 7.33398 -19.5 14.001l-39 42c-17.333 0 -31.833 -1.33301 -43.5 -4
s-20.667 -7 -27 -13s-10.833 -13.667 -13.5 -23s-4 -21 -4 -35v-57h323v-512h-138v416h-181v-416h-138v416l-40 8c-10.667 2 -19 5.5 -25 10.5s-9 12.833 -9 23.5v54h74v56c0 28 4.33301 52.667 13 74s21 39.5 37 54.5s34.833 26.333 56.5 34s45.834 11.5 72.501 11.5z
M497.997 734c14.667 0 25.6689 -2.33301 33.002 -7s13.333 -11.667 18 -21l61 -122h-56c-10.667 0 -19.334 1.16699 -26.001 3.5c-6.66699 1.66699 -13.334 6.5 -20.001 14.5l-99 132h89z" />
    <glyph glyph-name="f_uni020B.liga" unicode="f&#x20b;" horiz-adv-x="612" 
d="M94 0v416.001l-40 8c-10.667 2 -19 5.5 -25 10.5s-9 12.833 -9 23.5v54h74v56c0 26.667 3.66699 51 11 73s17.833 40.333 31.5 55s30.5 26 50.5 34c20.667 8 43.667 12 69 12c9.33301 0 17.666 -0.333008 24.999 -1s15 -2.33398 23 -5.00098v-74
c0 -6.66699 -2.66699 -11.334 -8 -14.001s-12 -4 -20 -4c-17.333 0 -29.666 -5.66699 -36.999 -17s-11 -30.666 -11 -57.999v-57h323v-512h-138v416h-181v-416h-138zM486 730.001c29.333 0 54.1699 -3.83398 74.5029 -11.501s36.666 -18 48.999 -31s21 -28.5 26 -46.5
s7.5 -36.667 7.5 -56h-97c0 9.33301 -0.666992 17.833 -2 25.5s-4.33301 14.167 -9 19.5s-11 9.33301 -19 12s-18 4 -30 4s-22 -1.33301 -30 -4s-14.333 -6.66699 -19 -12s-7.66699 -11.666 -9 -18.999s-2 -16 -2 -26h-97c0 20 2.5 38.833 7.5 56.5s13.667 33 26 46
s28.666 23.333 48.999 31s45.166 11.5 74.499 11.5z" />
    <glyph glyph-name="f_uni1E2F.liga" unicode="f&#x1e2f;" horiz-adv-x="612" 
d="M464 606c0 -9.33301 -1.66699 -17.667 -5 -25s-8 -14 -14 -20s-13.167 -10.667 -21.5 -14c-7.66699 -3.33301 -16.167 -5 -25.5 -5c-8.66699 0 -17 1.66699 -25 5s-15 8 -21 14s-10.833 12.833 -14.5 20.5c-3.66699 7 -5.5 15.167 -5.5 24.5s1.83301 18 5.5 26
s8.5 15 14.5 21s12.833 10.667 20.5 14s16.167 5 25.5 5s18 -1.66699 26 -5s15 -8 21 -14s10.667 -13 14 -21s5 -16.667 5 -26zM642 605.999c0 -9.33301 -1.83398 -17.667 -5.50098 -25s-8.5 -14 -14.5 -20s-13 -10.667 -21 -14c-7.33301 -3.33301 -15.666 -5 -24.999 -5
s-18 1.66699 -26 5s-15 8 -21 14s-10.667 12.833 -14 20.5c-3.33301 7 -5 15.167 -5 24.5s1.66699 18 5 26s8 15 14 21s13 10.667 21 14s16.667 5 26 5s17.833 -1.66699 25.5 -5s14.5 -8 20.5 -14s10.833 -13 14.5 -21s5.5 -16.667 5.5 -26zM674.999 801.998l-112.999 -103
c-8 -6.66699 -16 -11.5 -24 -14.5s-18 -4.5 -30 -4.5h-74l56 94c5.33301 9.33301 11.666 16.333 18.999 21s18.333 7 33 7h133zM94 -0.00195312v416.001l-40 8c-10.667 2 -19 5.5 -25 10.5s-9 12.833 -9 23.5v54h74v56c0 26.667 3.66699 51 11 73s17.833 40.333 31.5 55
s30.5 26 50.5 34c20.667 8 43.667 12 69 12c9.33301 0 17.666 -0.333008 24.999 -1s15 -2.33398 23 -5.00098v-74c0 -6.66699 -2.66699 -11.334 -8 -14.001s-12 -4 -20 -4c-17.333 0 -29.666 -5.66699 -36.999 -17s-11 -30.666 -11 -57.999v-57h323v-512h-138v416h-181v-416
h-138z" />
    <glyph glyph-name="f_f_uni01D0.liga" unicode="ff&#x1d0;" horiz-adv-x="939" 
d="M740 0v416.002h-180v-416h-138v416h-190v-416h-138v416l-40 8c-10.667 2 -19 5.5 -25 10.5s-9 12.833 -9 23.5v54h74v26c0 29.333 4.66699 55.833 14 79.5s22.666 43.667 39.999 60s38.166 29.166 62.499 38.499c25 9.33301 52.833 14 83.5 14c12 0 23.333 -1 34 -3
s21.334 -4.33301 32.001 -7l-2 -68c-0.666992 -10 -5.16699 -16.667 -13.5 -20s-17.166 -5 -26.499 -5c-14.667 0 -27.5 -1.5 -38.5 -4.5s-20.333 -8.16699 -28 -15.5s-13.5 -17 -17.5 -29s-6 -27 -6 -45v-21h194v56c0 26.667 3.66699 51 11 73s17.666 40.333 30.999 55
s30 26 50 34s43 12 69 12c9.33301 0 17.833 -0.333008 25.5 -1s15.5 -2.33398 23.5 -5.00098v-74c0 -6.66699 -2.83301 -11.334 -8.5 -14.001c-5 -2.66699 -11.5 -4 -19.5 -4c-17.333 0 -29.666 -5.66699 -36.999 -17s-11 -30.666 -11 -57.999v-57h322v-512h-138z
M642 726.002h95.001c5.33301 0 10.833 -0.833008 16.5 -2.5c5.66699 -2.33301 9.16699 -4.83301 10.5 -7.5l35 -50c2 -3.33301 4 -6.83301 6 -10.5s4 -7.5 6 -11.5c2 8 5.66699 15.333 11 22l35 50c2 2.66699 5.66699 5 11 7s10.666 3 15.999 3h92l-102 -142h-130z" />
    <glyph glyph-name="f_f_uni0209.liga" unicode="ff&#x209;" horiz-adv-x="939" 
d="M94 0l-0.00390625 416.001l-40 8c-10.667 2 -19 5.5 -25 10.5s-9 12.833 -9 23.5v54h74v26c0 29.333 4.66699 55.833 14 79.5s22.666 43.667 39.999 60s38.166 29.166 62.499 38.499c25 9.33301 52.833 14 83.5 14c12 0 23.333 -1 34 -3s21.334 -4.33301 32.001 -7
l-2 -68c-0.666992 -10 -5.16699 -16.667 -13.5 -20s-17.166 -5 -26.499 -5c-14.667 0 -27.5 -1.5 -38.5 -4.5s-20.333 -8.16699 -28 -15.5s-13.5 -17 -17.5 -29s-6 -27 -6 -45v-21h194v56c0 26.667 4 51 12 73s19.667 40.333 35 55s34.333 26 57 34s49.334 12 80.001 12
c16 0 29.333 -0.5 40 -1.5s19.834 -3 27.501 -6s14.334 -6.83301 20.001 -11.5s10.834 -10.334 15.501 -17.001l89 -122h-66c-10.667 0 -19 1.33301 -25 4s-12.333 7.33398 -19 14.001l-40 42c-17.333 -0.666992 -32 -2.16699 -44 -4.5s-21.667 -6.5 -29 -12.5
s-12.333 -13.667 -15 -23s-4 -21 -4 -35v-57h322v-512h-138v416h-180v-416h-138v416h-190v-416h-138zM831.996 734.001c14.667 0 25.5 -2.33301 32.5 -7s12.833 -11.667 17.5 -21l61 -122h-56c-10.667 0 -19.5 1.16699 -26.5 3.5c-7 1.66699 -13.167 6.5 -18.5 14.5
l-100 132h90z" />
    <glyph glyph-name="f_f_uni020B.liga" unicode="ff&#x20b;" horiz-adv-x="939" 
d="M740 0v416.002h-180v-416h-138v416h-190v-416h-138v416l-40 8c-10.667 2 -19 5.5 -25 10.5s-9 12.833 -9 23.5v54h74v26c0 29.333 4.66699 55.833 14 79.5s22.666 43.667 39.999 60s38.166 29.166 62.499 38.499c25 9.33301 52.833 14 83.5 14c12 0 23.333 -1 34 -3
s21.334 -4.33301 32.001 -7l-2 -68c-0.666992 -10 -5.16699 -16.667 -13.5 -20s-17.166 -5 -26.499 -5c-14.667 0 -27.5 -1.5 -38.5 -4.5s-20.333 -8.16699 -28 -15.5s-13.5 -17 -17.5 -29s-6 -27 -6 -45v-21h194v56c0 26.667 3.66699 51 11 73s17.666 40.333 30.999 55
s30 26 50 34s43 12 69 12c9.33301 0 17.833 -0.333008 25.5 -1s15.5 -2.33398 23.5 -5.00098v-74c0 -6.66699 -2.83301 -11.334 -8.5 -14.001c-5 -2.66699 -11.5 -4 -19.5 -4c-17.333 0 -29.666 -5.66699 -36.999 -17s-11 -30.666 -11 -57.999v-57h322v-512h-138z
M806 730.002c29.333 0 54 -3.83398 74 -11.501s36 -18 48 -31s20.667 -28.5 26 -46.5s8 -36.667 8 -56h-96c0 9.33301 -1 17.833 -3 25.5s-5.16699 14.167 -9.5 19.5s-10.333 9.33301 -18 12s-17.5 4 -29.5 4s-22 -1.33301 -30 -4s-14.333 -6.66699 -19 -12
s-8 -11.666 -10 -18.999s-3 -16 -3 -26h-96c0 20 2.66699 38.833 8 56.5s14 33 26 46s28.333 23.333 49 31s45.667 11.5 75 11.5z" />
    <glyph glyph-name="f_f_uni1E2F.liga" unicode="ff&#x1e2f;" horiz-adv-x="939" 
d="M740 0v416.002h-180v-416h-138v416h-190v-416h-138v416l-40 8c-10.667 2 -19 5.5 -25 10.5s-9 12.833 -9 23.5v54h74v26c0 29.333 4.66699 55.833 14 79.5s22.666 43.667 39.999 60s38.166 29.166 62.499 38.499c25 9.33301 52.833 14 83.5 14c12 0 23.333 -1 34 -3
s21.334 -4.33301 32.001 -7l-2 -68c-0.666992 -10 -5.16699 -16.667 -13.5 -20s-17.166 -5 -26.499 -5c-14.667 0 -27.5 -1.5 -38.5 -4.5s-20.333 -8.16699 -28 -15.5s-13.5 -17 -17.5 -29s-6 -27 -6 -45v-21h194v56c0 26.667 3.66699 51 11 73s17.666 40.333 30.999 55
s30 26 50 34s43 12 69 12c9.33301 0 17.833 -0.333008 25.5 -1s15.5 -2.33398 23.5 -5.00098v-74c0 -6.66699 -2.83301 -11.334 -8.5 -14.001c-5 -2.66699 -11.5 -4 -19.5 -4c-17.333 0 -29.666 -5.66699 -36.999 -17s-11 -30.666 -11 -57.999v-57h322v-512h-138z
M1002 802.002l-114 -103c-8 -6.66699 -16 -11.5 -24 -14.5s-18 -4.5 -30 -4.5h-74l57 94c5.33301 9.33301 11.5 16.333 18.5 21s17.833 7 32.5 7h134zM968 606.002c0 -9.33301 -1.83398 -17.667 -5.50098 -25s-8.5 -14 -14.5 -20s-13 -10.667 -21 -14
c-7.33301 -3.33301 -15.666 -5 -24.999 -5s-18 1.66699 -26 5s-15 8 -21 14s-10.667 12.833 -14 20.5c-3.33301 7 -5 15.167 -5 24.5s1.66699 18 5 26s8 15 14 21s13 10.667 21 14s16.667 5 26 5s17.833 -1.66699 25.5 -5s14.5 -8 20.5 -14s10.833 -13 14.5 -21
s5.5 -16.667 5.5 -26zM789.999 606.001c0 -9.33301 -1.66699 -17.667 -5 -25s-8 -14 -14 -20s-13.167 -10.667 -21.5 -14c-7.66699 -3.33301 -16.167 -5 -25.5 -5c-8.66699 0 -17 1.66699 -25 5s-15 8 -21 14s-10.833 12.833 -14.5 20.5c-3.66699 7 -5.5 15.167 -5.5 24.5
s1.83301 18 5.5 26s8.5 15 14.5 21s12.833 10.667 20.5 14s16.167 5 25.5 5s18 -1.66699 26 -5s15 -8 21 -14s10.667 -13 14 -21s5 -16.667 5 -26z" />
    <glyph glyph-name="f_uni0237.liga" unicode="f&#x237;" horiz-adv-x="612" 
d="M94 0v415.998l-40 8c-10.667 2 -19 5.5 -25 10.5s-9 12.833 -9 23.5v54h74v56c0 26.667 3.66699 51 11 73s17.833 40.333 31.5 55s30.5 26 50.5 34c20.667 8 43.667 12 69 12c9.33301 0 17.666 -0.333008 24.999 -1s15 -2.33398 23 -5.00098v-74
c0 -6.66699 -2.66699 -11.334 -8 -14.001s-12 -4 -20 -4c-17.333 0 -29.666 -5.66699 -36.999 -17s-11 -30.666 -11 -57.999v-57h323v-522c0 -23.333 -3 -45.166 -9 -65.499s-15.833 -38.166 -29.5 -53.499s-31.334 -27.666 -53.001 -36.999s-48.5 -14 -80.5 -14
c-12 0 -23.167 1 -33.5 3s-21.166 4.33301 -32.499 7l5 73c0.666992 6.66699 3.16699 11.334 7.5 14.001s12.5 4 24.5 4s22 1.16699 30 3.5s14.5 6.16602 19.5 11.499s8.5 12.333 10.5 21s3 19.667 3 33v426h-181v-416h-138z" />
    <glyph glyph-name="f_f_uni0237.liga" unicode="ff&#x237;" horiz-adv-x="940" 
d="M878 -10c0 -23.333 -3 -45.167 -9 -65.5s-15.667 -38.166 -29 -53.499s-31 -27.666 -53 -36.999s-49 -14 -81 -14c-12 0 -23.167 1 -33.5 3s-20.833 4.33301 -31.5 7l5 73c0.666992 6.66699 3 11.334 7 14.001c4.66699 2.66699 13 4 25 4s22 1.16699 30 3.5
s14.333 6.16602 19 11.499s8 12.333 10 21s3 19.667 3 33v426h-180v-416h-138v416h-190v-416h-138v416l-40 8c-10.667 2 -19 5.5 -25 10.5s-9 12.833 -9 23.5v54h74v26c0 29.333 4.66699 55.833 14 79.5s22.666 43.667 39.999 60s38.166 29.166 62.499 38.499
c25 9.33301 52.833 14 83.5 14c12 0 23.333 -1 34 -3s21.334 -4.33301 32.001 -7l-2 -68c-0.666992 -10 -5.16699 -16.667 -13.5 -20s-17.166 -5 -26.499 -5c-14.667 0 -27.5 -1.5 -38.5 -4.5s-20.333 -8.16699 -28 -15.5s-13.5 -17 -17.5 -29s-6 -27 -6 -45v-21h194v56
c0 26.667 3.66699 51 11 73s17.666 40.333 30.999 55s30 26 50 34s43 12 69 12c9.33301 0 17.833 -0.333008 25.5 -1s15.5 -2.33398 23.5 -5.00098v-74c0 -6.66699 -2.83301 -11.334 -8.5 -14.001c-5 -2.66699 -11.5 -4 -19.5 -4c-17.333 0 -29.666 -5.66699 -36.999 -17
s-11 -30.666 -11 -57.999v-57h322v-522v0z" />
    <glyph glyph-name="f_jcircumflex.liga" unicode="f&#x135;" horiz-adv-x="612" 
d="M94 0v415.998l-40 8c-10.667 2 -19 5.5 -25 10.5s-9 12.833 -9 23.5v54h74v56c0 26.667 3.66699 51 11 73s17.833 40.333 31.5 55s30.5 26 50.5 34c20.667 8 43.667 12 69 12c9.33301 0 17.666 -0.333008 24.999 -1s15 -2.33398 23 -5.00098v-74
c0 -6.66699 -2.66699 -11.334 -8 -14.001s-12 -4 -20 -4c-17.333 0 -29.666 -5.66699 -36.999 -17s-11 -30.666 -11 -57.999v-57h323v-522c0 -23.333 -3 -45.166 -9 -65.499s-15.833 -38.166 -29.5 -53.499s-31.334 -27.666 -53.001 -36.999s-48.5 -14 -80.5 -14
c-12 0 -23.167 1 -33.5 3s-21.166 4.33301 -32.499 7l5 73c0.666992 6.66699 3.16699 11.334 7.5 14.001s12.5 4 24.5 4s22 1.16699 30 3.5s14.5 6.16602 19.5 11.499s8.5 12.333 10.5 21s3 19.667 3 33v426h-181v-416h-138zM663 583.998h-92.001
c-5.33301 0 -10.333 1 -15 3s-9.66699 5.33301 -15 10l-44 47c-2 1.33301 -4 3.33301 -6 6c-2.66699 2.66699 -4.66699 5 -6 7c-2 -2.66699 -3.83301 -5 -5.5 -7c-1.66699 -2.66699 -3.5 -4.66699 -5.5 -6l-45 -47c-9.33301 -8.66699 -19.666 -13 -30.999 -13h-95l116 142
h128z" />
    <glyph glyph-name="f_lcaron.liga" unicode="f&#x13e;" horiz-adv-x="621" 
d="M94 0l-0.000976562 416l-40 8c-10.667 2 -19 5.5 -25 10.5s-9 12.833 -9 23.5v54h74v20c0 26.667 4.33301 52.667 13 78s22 47.666 40 66.999s40.667 34.833 68 46.5s60 17.5 98 17.5c31.333 0 61 -1.16699 89 -3.5s56 -3.5 84 -3.5h78v-734h-138v641
c-17.333 0.666992 -34.166 1.33398 -50.499 2.00098s-29.833 1 -40.5 1c-34.667 0 -61.167 -9.5 -79.5 -28.5c-18.333 -19.667 -27.5 -47.5 -27.5 -83.5v-20h117v-96h-113v-416h-138zM735.999 746c10 0 16.166 -2.16699 18.499 -6.5s3.5 -8.5 3.5 -12.5
c0 -2.66699 -0.666992 -6.5 -2 -11.5s-3.66602 -12.5 -6.99902 -22.5s-8.33301 -23 -15 -39s-15.334 -36 -26.001 -60c-5.33301 -10 -11.666 -16.5 -18.999 -19.5s-17 -4.5 -29 -4.5h-49l32 176h93z" />
    <glyph glyph-name="f_uni013C.liga" unicode="f&#x13c;" horiz-adv-x="621" 
d="M94 0l-0.000976562 416l-40 8c-10.667 2 -19 5.5 -25 10.5s-9 12.833 -9 23.5v54h74v20c0 26.667 4.33301 52.667 13 78s22 47.666 40 66.999s40.667 34.833 68 46.5s60 17.5 98 17.5c31.333 0 61 -1.16699 89 -3.5s56 -3.5 84 -3.5h78v-734h-138v641
c-17.333 0.666992 -34.166 1.33398 -50.499 2.00098s-29.833 1 -40.5 1c-34.667 0 -61.167 -9.5 -79.5 -28.5c-18.333 -19.667 -27.5 -47.5 -27.5 -83.5v-20h117v-96h-113v-416h-138zM533.999 -44c10 0 16.168 -2.33203 18.501 -6.99902s3.5 -9 3.5 -13
c0 -2.66699 -0.333008 -6.66699 -1 -12s-2.33398 -12 -5.00098 -20s-6.33398 -18.167 -11.001 -30.5s-11 -26.833 -19 -43.5c-5.33301 -10.667 -11.666 -17.334 -18.999 -20.001s-17 -4 -29 -4h-48l25 150h85z" />
    <glyph glyph-name="f_uni021B.liga" unicode="f&#x21b;" horiz-adv-x="717" 
d="M568 416l-0.00390625 -268.004c0 -14.667 3.33301 -26.167 10 -34.5s16.334 -12.5 29.001 -12.5c6.66699 0 12.334 0.833008 17.001 2.5s8.66699 3.33398 12 5.00098s6.5 3.33398 9.5 5.00098s5.83301 2.5 8.5 2.5c4 0 7.33301 -1 10 -3s5.33398 -5 8.00098 -9l42 -66
c-18.667 -14.667 -40.167 -26 -64.5 -34c-25 -8 -50.167 -12 -75.5 -12c-23.333 0 -43.833 3.33301 -61.5 10s-32.834 16.334 -45.501 29.001s-22 28 -28 46s-9 38.333 -9 61v278h-198v-416h-138v416l-40 8c-10.667 2 -19 5.5 -25 10.5s-9 12.833 -9 23.5v54h74v34
c0 29.333 4.66699 56 14 80s22.5 44.333 39.5 61s37.833 29.334 62.5 38.001c25.333 8.66699 53.333 13 84 13c12 0 23.333 -0.666992 34 -2s21.334 -3.33301 32.001 -6l-2 -68c-0.666992 -10.667 -5.16699 -17.667 -13.5 -21s-17.5 -5 -27.5 -5
c-14 0 -26.667 -1.33301 -38 -4s-20.666 -7.66699 -27.999 -15s-13 -17 -17 -29s-6 -27.333 -6 -46v-30h208l30 135c4 15.333 14 23 30 23h72v-158h132v-96h-132zM600.996 -44.0039c10 0 16.168 -2.33203 18.501 -6.99902s3.5 -9 3.5 -13
c0 -2.66699 -0.333008 -6.66699 -1 -12s-2.33398 -12 -5.00098 -20s-6.33398 -18.167 -11.001 -30.5s-11 -26.833 -19 -43.5c-5.33301 -10.667 -11.666 -17.334 -18.999 -20.001s-17 -4 -29 -4h-48l25 150h85z" />
    <glyph glyph-name="f_tcaron.liga" unicode="f&#x165;" horiz-adv-x="717" 
d="M568 416l-0.00390625 -268.004c0 -14.667 3.33301 -26.167 10 -34.5s16.334 -12.5 29.001 -12.5c6.66699 0 12.334 0.833008 17.001 2.5s8.66699 3.33398 12 5.00098s6.5 3.33398 9.5 5.00098s5.83301 2.5 8.5 2.5c4 0 7.33301 -1 10 -3s5.33398 -5 8.00098 -9l42 -66
c-18.667 -14.667 -40.167 -26 -64.5 -34c-25 -8 -50.167 -12 -75.5 -12c-23.333 0 -43.833 3.33301 -61.5 10s-32.834 16.334 -45.501 29.001s-22 28 -28 46s-9 38.333 -9 61v278h-198v-416h-138v416l-40 8c-10.667 2 -19 5.5 -25 10.5s-9 12.833 -9 23.5v54h74v34
c0 29.333 4.66699 56 14 80s22.5 44.333 39.5 61s37.833 29.334 62.5 38.001c25.333 8.66699 53.333 13 84 13c12 0 23.333 -0.666992 34 -2s21.334 -3.33301 32.001 -6l-2 -68c-0.666992 -10.667 -5.16699 -17.667 -13.5 -21s-17.5 -5 -27.5 -5
c-14 0 -26.667 -1.33301 -38 -4s-20.666 -7.66699 -27.999 -15s-13 -17 -17 -29s-6 -27.333 -6 -46v-30h208l30 135c4 15.333 14 23 30 23h72v-158h132v-96h-132zM764.996 745.996c10 0 16.166 -2.16699 18.499 -6.5s3.5 -8.5 3.5 -12.5c0 -2.66699 -0.666992 -6.5 -2 -11.5
s-3.66602 -12.5 -6.99902 -22.5s-8.33301 -23 -15 -39s-15.334 -36 -26.001 -60c-5.33301 -10 -11.666 -16.5 -18.999 -19.5s-17 -4.5 -29 -4.5h-49l32 176h93z" />
    <glyph glyph-name="f_uni1ECB.liga" unicode="f&#x1ecb;" horiz-adv-x="612" 
d="M94 0l-0.000976562 416.001l-40 8c-10.667 2 -19 5.5 -25 10.5s-9 12.833 -9 23.5v54h74v13c0 31.333 5.33301 60.666 16 87.999s27 51 49 71s49.667 35.667 83 47s73 17 119 17c14.667 0 29.5 -0.666992 44.5 -2s28.167 -3.33301 39.5 -6l-5 -71
c0 -4 -1 -7.16699 -3 -9.5s-5 -4.16602 -9 -5.49902s-8.16699 -2.16602 -12.5 -2.49902c-3.66699 -0.333008 -8.16699 -0.5 -13.5 -0.5c-33.333 0 -61.333 -2.83301 -84 -8.5s-40.667 -13.834 -54 -24.501s-22.666 -24.334 -27.999 -41.001s-8 -35.667 -8 -57v-8h323v-512
h-138v416h-181v-416h-138zM557.999 -117.999c0 -10 -2 -19.332 -6 -27.999s-9.5 -16.334 -16.5 -23.001s-15 -11.834 -24 -15.501s-18.833 -5.5 -29.5 -5.5c-10 0 -19.5 1.83301 -28.5 5.5s-16.833 8.83398 -23.5 15.501s-12 14.5 -16 23.5s-6 18.167 -6 27.5
c0 10.667 2 20.5 6 29.5s9.33301 16.833 16 23.5s14.5 11.834 23.5 15.501s18.5 5.5 28.5 5.5c10.667 0 20.5 -1.83301 29.5 -5.5s17 -8.83398 24 -15.501s12.5 -14.5 16.5 -23.5s6 -18.833 6 -29.5z" />
    <glyph glyph-name="f_uni1E2D.liga" unicode="f&#x1e2d;" horiz-adv-x="612" 
d="M94 0l-0.000976562 416.001l-40 8c-10.667 2 -19 5.5 -25 10.5s-9 12.833 -9 23.5v54h74v13c0 31.333 5.33301 60.666 16 87.999s27 51 49 71s49.667 35.667 83 47s73 17 119 17c14.667 0 29.5 -0.666992 44.5 -2s28.167 -3.33301 39.5 -6l-5 -71
c0 -4 -1 -7.16699 -3 -9.5s-5 -4.16602 -9 -5.49902s-8.16699 -2.16602 -12.5 -2.49902c-3.66699 -0.333008 -8.16699 -0.5 -13.5 -0.5c-33.333 0 -61.333 -2.83301 -84 -8.5s-40.667 -13.834 -54 -24.501s-22.666 -24.334 -27.999 -41.001s-8 -35.667 -8 -57v-8h323v-512
h-138v416h-181v-416h-138zM533.999 -70.999c9.33301 0 16.498 2.33301 21.498 7s7.5 14.334 7.5 29.001h84c0 -20 -2.66699 -38 -8 -54s-12.833 -29.667 -22.5 -41s-21.167 -20 -34.5 -26s-27.666 -9 -42.999 -9c-12 0 -23.333 2 -34 6s-20.5 8.5 -29.5 13.5
s-17.333 9.66699 -25 14s-14.5 6.5 -20.5 6.5c-9.33301 0 -16.5 -2.66699 -21.5 -8s-7.5 -15 -7.5 -29h-85c0 20 2.83301 37.833 8.5 53.5s13.334 29.167 23.001 40.5s21 20.166 34 26.499s27.5 9.5 43.5 9.5c12 0 23.333 -2 34 -6s20.5 -8.5 29.5 -13.5
s17.167 -9.5 24.5 -13.5s14.333 -6 21 -6z" />
    <glyph glyph-name="f_uni0268.liga" unicode="f&#x268;" horiz-adv-x="634" 
d="M413 288l-0.000976562 128.001h-181v-416h-138v416l-40 8c-10.667 2 -19 5.5 -25 10.5s-9 12.833 -9 23.5v54h74v13c0 31.333 5.33301 60.666 16 87.999s27 51 49 71s49.667 35.667 83 47s73 17 119 17c14.667 0 29.5 -0.666992 44.5 -2s28.167 -3.33301 39.5 -6l-5 -71
c0 -4 -1 -7.16699 -3 -9.5s-5 -4.16602 -9 -5.49902s-8.16699 -2.16602 -12.5 -2.49902c-3.66699 -0.333008 -8.16699 -0.5 -13.5 -0.5c-33.333 0 -61.333 -2.83301 -84 -8.5s-40.667 -13.834 -54 -24.501s-22.666 -24.334 -27.999 -41.001s-8 -35.667 -8 -57v-8h323v-224
h69v-96h-69v-192h-138v192h-65v96h65z" />
    <glyph glyph-name="f_iacute.liga" unicode="f&#xed;" horiz-adv-x="612" 
d="M94 0v416.001l-40 8c-10.667 2 -19 5.5 -25 10.5s-9 12.833 -9 23.5v54h74v56c0 26.667 3.66699 51 11 73s17.833 40.333 31.5 55s30.5 26 50.5 34c20.667 8 43.667 12 69 12c9.33301 0 17.666 -0.333008 24.999 -1s15 -2.33398 23 -5.00098v-74
c0 -6.66699 -2.66699 -11.334 -8 -14.001s-12 -4 -20 -4c-17.333 0 -29.666 -5.66699 -36.999 -17s-11 -30.666 -11 -57.999v-57h323v-512h-138v416h-181v-416h-138zM666 734.001l-125.999 -131.999c-6.66699 -6.66699 -13.334 -11.334 -20.001 -14.001s-15 -4 -25 -4h-83
l70 122c5.33301 9.33301 11.5 16.333 18.5 21s17.833 7 32.5 7h133z" />
    <glyph glyph-name="f_uni1EC9.liga" unicode="f&#x1ec9;" horiz-adv-x="612" 
d="M94 0v416.001l-40 8c-10.667 2 -19 5.5 -25 10.5s-9 12.833 -9 23.5v54h74v56c0 26.667 3.66699 51 11 73s17.833 40.333 31.5 55s30.5 26 50.5 34c20.667 8 43.667 12 69 12c9.33301 0 17.666 -0.333008 24.999 -1s15 -2.33398 23 -5.00098v-74
c0 -6.66699 -2.66699 -11.334 -8 -14.001s-12 -4 -20 -4c-17.333 0 -29.666 -5.66699 -36.999 -17s-11 -30.666 -11 -57.999v-57h323v-512h-138v416h-181v-416h-138zM366 727.001c10.667 8 26.332 14.832 46.999 20.499s42.334 8.5 65.001 8.5c18 0 33.833 -2 47.5 -6
s24.834 -9 33.501 -15s15.167 -13.333 19.5 -22s6.5 -18.334 6.5 -29.001c0 -18 -5.83301 -33.833 -17.5 -47.5s-26.5 -24.5 -44.5 -32.5l-12 -44h-65v78c17.333 2 28.666 6.16699 33.999 12.5s8 12.833 8 19.5s-2.16699 12 -6.5 16c-5 4 -12.167 6 -21.5 6
c-6 0 -11.5 -0.666992 -16.5 -2s-9.5 -2.66602 -13.5 -3.99902s-7.83301 -2.66602 -11.5 -3.99902c-4.33301 -1.33301 -7.83301 -2 -10.5 -2c-4 0 -7.16699 1 -9.5 3s-4.83301 5 -7.5 9z" />
    <glyph glyph-name="f_f_uni1ECB.liga" unicode="ff&#x1ecb;" horiz-adv-x="940" 
d="M94 0l-0.00390625 416.004l-40 8c-10.667 2 -19 5.5 -25 10.5s-9 12.833 -9 23.5v54h74v26c0 29.333 4.66699 55.833 14 79.5s22.666 43.667 39.999 60s38.166 29.166 62.499 38.499c25 9.33301 52.833 14 83.5 14c12 0 23.333 -1 34 -3s21.334 -4.33301 32.001 -7
l-2 -68c-0.666992 -10 -5.16699 -16.667 -13.5 -20s-17.166 -5 -26.499 -5c-14.667 0 -27.5 -1.5 -38.5 -4.5s-20.333 -8.16699 -28 -15.5s-13.5 -17 -17.5 -29s-6 -27 -6 -45v-21h194v13c0 31.333 5.33301 60.666 16 87.999s26.834 51 48.501 71s49.334 35.667 83.001 47
s73.167 17 118.5 17c14.667 0 29.667 -0.666992 45 -2s28.333 -3.33301 39 -6l-4 -71c-0.666992 -8 -4.83398 -13 -12.501 -15s-16.5 -3 -26.5 -3c-33.333 0 -61.166 -2.83301 -83.499 -8.5s-40.166 -13.834 -53.499 -24.501s-22.666 -24.334 -27.999 -41.001
s-8 -35.667 -8 -57v-8h322v-512h-138v416h-180v-416h-138v416h-190v-416h-138zM887.996 -117.996c0 -10 -2 -19.332 -6 -27.999s-9.5 -16.334 -16.5 -23.001s-15 -11.834 -24 -15.501s-18.833 -5.5 -29.5 -5.5c-10 0 -19.5 1.83301 -28.5 5.5s-16.833 8.83398 -23.5 15.501
s-12 14.5 -16 23.5s-6 18.167 -6 27.5c0 10.667 2 20.5 6 29.5s9.33301 16.833 16 23.5s14.5 11.834 23.5 15.501s18.5 5.5 28.5 5.5c10.667 0 20.5 -1.83301 29.5 -5.5s17 -8.83398 24 -15.501s12.5 -14.5 16.5 -23.5s6 -18.833 6 -29.5z" />
    <glyph glyph-name="f_f_uni1E2D.liga" unicode="ff&#x1e2d;" horiz-adv-x="940" 
d="M94 0l-0.00390625 416.004l-40 8c-10.667 2 -19 5.5 -25 10.5s-9 12.833 -9 23.5v54h74v26c0 29.333 4.66699 55.833 14 79.5s22.666 43.667 39.999 60s38.166 29.166 62.499 38.499c25 9.33301 52.833 14 83.5 14c12 0 23.333 -1 34 -3s21.334 -4.33301 32.001 -7
l-2 -68c-0.666992 -10 -5.16699 -16.667 -13.5 -20s-17.166 -5 -26.499 -5c-14.667 0 -27.5 -1.5 -38.5 -4.5s-20.333 -8.16699 -28 -15.5s-13.5 -17 -17.5 -29s-6 -27 -6 -45v-21h194v13c0 31.333 5.33301 60.666 16 87.999s26.834 51 48.501 71s49.334 35.667 83.001 47
s73.167 17 118.5 17c14.667 0 29.667 -0.666992 45 -2s28.333 -3.33301 39 -6l-4 -71c-0.666992 -8 -4.83398 -13 -12.501 -15s-16.5 -3 -26.5 -3c-33.333 0 -61.166 -2.83301 -83.499 -8.5s-40.166 -13.834 -53.499 -24.501s-22.666 -24.334 -27.999 -41.001
s-8 -35.667 -8 -57v-8h322v-512h-138v416h-180v-416h-138v416h-190v-416h-138zM862.996 -70.9961c9.33301 0 16.498 2.33301 21.498 7s7.5 14.334 7.5 29.001h84c0 -20 -2.66699 -38 -8 -54s-12.833 -29.667 -22.5 -41s-21.167 -20 -34.5 -26s-27.666 -9 -42.999 -9
c-12 0 -23.333 2 -34 6s-20.5 8.5 -29.5 13.5s-17.333 9.66699 -25 14s-14.5 6.5 -20.5 6.5c-9.33301 0 -16.5 -2.66699 -21.5 -8s-7.5 -15 -7.5 -29h-85c0 20 2.83301 37.833 8.5 53.5s13.334 29.167 23.001 40.5s21 20.166 34 26.499s27.5 9.5 43.5 9.5
c12 0 23.333 -2 34 -6s20.5 -8.5 29.5 -13.5s17.167 -9.5 24.5 -13.5s14.333 -6 21 -6z" />
    <glyph glyph-name="f_f_uni0268.liga" unicode="ff&#x268;" horiz-adv-x="963" 
d="M740 288l-0.00390625 128.004h-180v-416h-138v416h-190v-416h-138v416l-40 8c-10.667 2 -19 5.5 -25 10.5s-9 12.833 -9 23.5v54h74v26c0 29.333 4.66699 55.833 14 79.5s22.666 43.667 39.999 60s38.166 29.166 62.499 38.499c25 9.33301 52.833 14 83.5 14
c12 0 23.333 -1 34 -3s21.334 -4.33301 32.001 -7l-2 -68c-0.666992 -10 -5.16699 -16.667 -13.5 -20s-17.166 -5 -26.499 -5c-14.667 0 -27.5 -1.5 -38.5 -4.5s-20.333 -8.16699 -28 -15.5s-13.5 -17 -17.5 -29s-6 -27 -6 -45v-21h194v13
c0 31.333 5.33301 60.666 16 87.999s26.834 51 48.501 71s49.334 35.667 83.001 47s73.167 17 118.5 17c14.667 0 29.667 -0.666992 45 -2s28.333 -3.33301 39 -6l-4 -71c-0.666992 -8 -4.83398 -13 -12.501 -15s-16.5 -3 -26.5 -3c-33.333 0 -61.166 -2.83301 -83.499 -8.5
s-40.166 -13.834 -53.499 -24.501s-22.666 -24.334 -27.999 -41.001s-8 -35.667 -8 -57v-8h322v-224h70v-96h-70v-192h-138v192h-62v96h62z" />
    <glyph glyph-name="f_f_iacute.liga" unicode="ff&#xed;" horiz-adv-x="939" 
d="M94 0v416.002l-40 8c-10.667 2 -19 5.5 -25 10.5s-9 12.833 -9 23.5v54h74v26c0 29.333 4.66699 55.833 14 79.5s22.666 43.667 39.999 60s38.166 29.166 62.499 38.499c25 9.33301 52.833 14 83.5 14c12 0 23.333 -1 34 -3s21.334 -4.33301 32.001 -7l-2 -68
c-0.666992 -10 -5.16699 -16.667 -13.5 -20s-17.166 -5 -26.499 -5c-14.667 0 -27.5 -1.5 -38.5 -4.5s-20.333 -8.16699 -28 -15.5s-13.5 -17 -17.5 -29s-6 -27 -6 -45v-21h194v56c0 26.667 3.66699 51 11 73s17.666 40.333 30.999 55s30 26 50 34s43 12 69 12
c9.33301 0 17.833 -0.333008 25.5 -1s15.5 -2.33398 23.5 -5.00098v-74c0 -6.66699 -2.83301 -11.334 -8.5 -14.001c-5 -2.66699 -11.5 -4 -19.5 -4c-17.333 0 -29.666 -5.66699 -36.999 -17s-11 -30.666 -11 -57.999v-57h322v-512h-138v416h-180v-416h-138v416h-190v-416
h-138zM996 734.002l-125.999 -131.999c-6.66699 -6.66699 -13.334 -11.334 -20.001 -14.001s-15 -4 -25 -4h-83l70 122c5.33301 9.33301 11.5 16.333 18.5 21s17.833 7 32.5 7h133z" />
    <glyph glyph-name="f_f_uni1EC9.liga" unicode="ff&#x1ec9;" horiz-adv-x="935" 
d="M94 0v416.002l-40 8c-10.667 2 -19 5.5 -25 10.5s-9 12.833 -9 23.5v54h74v26c0 29.333 4.66699 55.833 14 79.5s22.666 43.667 39.999 60s38.166 29.166 62.499 38.499c25 9.33301 52.833 14 83.5 14c12 0 23.333 -1 34 -3s21.334 -4.33301 32.001 -7l-2 -68
c-0.666992 -10 -5.16699 -16.667 -13.5 -20s-17.166 -5 -26.499 -5c-14.667 0 -27.5 -1.5 -38.5 -4.5s-20.333 -8.16699 -28 -15.5s-13.5 -17 -17.5 -29s-6 -27 -6 -45v-21h194v56c0 26.667 3.66699 51 11 73s17.666 40.333 30.999 55s30 26 50 34s43 12 69 12
c9.33301 0 17.833 -0.333008 25.5 -1s15.5 -2.33398 23.5 -5.00098v-74c0 -6.66699 -2.83301 -11.334 -8.5 -14.001c-5 -2.66699 -11.5 -4 -19.5 -4c-17.333 0 -29.666 -5.66699 -36.999 -17s-11 -30.666 -11 -57.999v-57h322v-512h-138v416h-180v-416h-138v416h-190v-416
h-138zM696 727.002c10.667 8 26.332 14.832 46.999 20.499s42.334 8.5 65.001 8.5c18 0 33.833 -2 47.5 -6s24.834 -9 33.501 -15s15.167 -13.333 19.5 -22s6.5 -18.334 6.5 -29.001c0 -18 -5.83301 -33.833 -17.5 -47.5s-26.5 -24.5 -44.5 -32.5l-12 -44h-65v78
c17.333 2 28.666 6.16699 33.999 12.5s8 12.833 8 19.5s-2.16699 12 -6.5 16c-5 4 -12.167 6 -21.5 6c-6 0 -11.5 -0.666992 -16.5 -2s-9.5 -2.66602 -13.5 -3.99902s-7.83301 -2.66602 -11.5 -3.99902c-4.33301 -1.33301 -7.83301 -2 -10.5 -2c-4 0 -7.16699 1 -9.5 3
s-4.83301 5 -7.5 9z" />
    <glyph glyph-name="f_lacute.liga" unicode="f&#x13a;" horiz-adv-x="621" 
d="M94 0l-0.000976562 416l-40 8c-10.667 2 -19 5.5 -25 10.5s-9 12.833 -9 23.5v54h74v20c0 26.667 4.33301 52.667 13 78s22 47.666 40 66.999s40.667 34.833 68 46.5s60 17.5 98 17.5c31.333 0 61 -1.16699 89 -3.5s56 -3.5 84 -3.5h78v-734h-138v641
c-17.333 0.666992 -34.166 1.33398 -50.499 2.00098s-29.833 1 -40.5 1c-34.667 0 -61.167 -9.5 -79.5 -28.5c-18.333 -19.667 -27.5 -47.5 -27.5 -83.5v-20h117v-96h-113v-416h-138zM714.999 932l-162 -143.001c-4 -2.66699 -7.66699 -5 -11 -7
s-6.66602 -3.5 -9.99902 -4.5s-7 -1.66699 -11 -2s-8.66699 -0.5 -14 -0.5h-100l100 135c4 5.33301 7.66699 9.33301 11 12s7 4.83398 11 6.50098s8.66699 2.66699 14 3s11.666 0.5 18.999 0.5h153z" />
    <glyph glyph-name="t_i.liga" unicode="ti" horiz-adv-x="655" 
d="M594 512l-0.00488281 -512.003h-138v416h-228v-268c0 -14.667 3.33301 -26.167 10 -34.5s16.667 -12.5 30 -12.5c6.66699 0 12.334 0.833008 17.001 2.5s8.66699 3.33398 12 5.00098s6.33301 3.33398 9 5.00098s5.33398 2.5 8.00098 2.5c4 0 7.33301 -1 10 -3
s5.33398 -5 8.00098 -9l42 -66c-18.667 -14.667 -40 -26 -64 -34s-49 -12 -75 -12c-23.333 0 -44 3.33301 -62 10s-33.167 16.334 -45.5 29.001s-21.666 28 -27.999 46s-9.5 38.333 -9.5 61v278h-48c-7.33301 0 -13.666 2.33301 -18.999 7s-8 11.667 -8 21v54l83 16l28 133
c4 15.333 14 23 30 23h72v-158h366zM615.995 662.997c0 -11.333 -2.33301 -22 -7 -32s-11 -18.833 -19 -26.5s-17.167 -13.667 -27.5 -18s-21.5 -6.5 -33.5 -6.5c-11.333 0 -22 2.16699 -32 6.5s-19 10.333 -27 18s-14.167 16.5 -18.5 26.5s-6.5 20.667 -6.5 32
c0 12 2.16699 23 6.5 33s10.5 18.833 18.5 26.5s17 13.834 27 18.501s20.667 7 32 7c12 0 23.167 -2.33301 33.5 -7s19.5 -10.834 27.5 -18.501s14.333 -16.5 19 -26.5s7 -21 7 -33z" />
    <glyph glyph-name="t_igrave.liga" unicode="t&#xec;" horiz-adv-x="655" 
d="M594 512l-0.00488281 -512.003h-138v416h-228v-268c0 -14.667 3.33301 -26.167 10 -34.5s16.667 -12.5 30 -12.5c6.66699 0 12.334 0.833008 17.001 2.5s8.66699 3.33398 12 5.00098s6.33301 3.33398 9 5.00098s5.33398 2.5 8.00098 2.5c4 0 7.33301 -1 10 -3
s5.33398 -5 8.00098 -9l42 -66c-18.667 -14.667 -40 -26 -64 -34s-49 -12 -75 -12c-23.333 0 -44 3.33301 -62 10s-33.167 16.334 -45.5 29.001s-21.666 28 -27.999 46s-9.5 38.333 -9.5 61v278h-48c-7.33301 0 -13.666 2.33301 -18.999 7s-8 11.667 -8 21v54l83 16l28 133
c4 15.333 14 23 30 23h72v-158h366zM487.995 733.997c14.667 0 25.5 -2.33398 32.5 -7.00098s13.167 -11.667 18.5 -21l69 -122h-78c-10.667 0 -19 1.33301 -25 4s-12.333 7.33398 -19 14.001l-127 132h129z" />
    <glyph glyph-name="t_iacute.liga" unicode="t&#xed;" horiz-adv-x="655" 
d="M594 512l-0.00488281 -512.003h-138v416h-228v-268c0 -14.667 3.33301 -26.167 10 -34.5s16.667 -12.5 30 -12.5c6.66699 0 12.334 0.833008 17.001 2.5s8.66699 3.33398 12 5.00098s6.33301 3.33398 9 5.00098s5.33398 2.5 8.00098 2.5c4 0 7.33301 -1 10 -3
s5.33398 -5 8.00098 -9l42 -66c-18.667 -14.667 -40 -26 -64 -34s-49 -12 -75 -12c-23.333 0 -44 3.33301 -62 10s-33.167 16.334 -45.5 29.001s-21.666 28 -27.999 46s-9.5 38.333 -9.5 61v278h-48c-7.33301 0 -13.666 2.33301 -18.999 7s-8 11.667 -8 21v54l83 16l28 133
c4 15.333 14 23 30 23h72v-158h366zM713.995 733.997l-125.999 -131.999c-6.66699 -6.66699 -13.334 -11.334 -20.001 -14.001s-15 -4 -25 -4h-83l70 122c5.33301 9.33301 11.5 16.333 18.5 21s17.833 7 32.5 7h133z" />
    <glyph glyph-name="t_icircumflex.liga" unicode="t&#xee;" horiz-adv-x="655" 
d="M594 512l-0.00488281 -512.003h-138v416h-228v-268c0 -14.667 3.33301 -26.167 10 -34.5s16.667 -12.5 30 -12.5c6.66699 0 12.334 0.833008 17.001 2.5s8.66699 3.33398 12 5.00098s6.33301 3.33398 9 5.00098s5.33398 2.5 8.00098 2.5c4 0 7.33301 -1 10 -3
s5.33398 -5 8.00098 -9l42 -66c-18.667 -14.667 -40 -26 -64 -34s-49 -12 -75 -12c-23.333 0 -44 3.33301 -62 10s-33.167 16.334 -45.5 29.001s-21.666 28 -27.999 46s-9.5 38.333 -9.5 61v278h-48c-7.33301 0 -13.666 2.33301 -18.999 7s-8 11.667 -8 21v54l83 16l28 133
c4 15.333 14 23 30 23h72v-158h366zM709.995 583.997h-92.001c-5.33301 0 -10.333 1 -15 3s-9.66699 5.33301 -15 10l-44 47c-2 1.33301 -4 3.33301 -6 6c-2.66699 2.66699 -4.66699 5 -6 7c-2 -2.66699 -3.83301 -5 -5.5 -7c-1.66699 -2.66699 -3.5 -4.66699 -5.5 -6
l-45 -47c-9.33301 -8.66699 -19.666 -13 -30.999 -13h-95l116 142h128z" />
    <glyph glyph-name="t_idieresis.liga" unicode="t&#xef;" horiz-adv-x="655" 
d="M594 512l-0.00488281 -512.003h-138v416h-228v-268c0 -14.667 3.33301 -26.167 10 -34.5s16.667 -12.5 30 -12.5c6.66699 0 12.334 0.833008 17.001 2.5s8.66699 3.33398 12 5.00098s6.33301 3.33398 9 5.00098s5.33398 2.5 8.00098 2.5c4 0 7.33301 -1 10 -3
s5.33398 -5 8.00098 -9l42 -66c-18.667 -14.667 -40 -26 -64 -34s-49 -12 -75 -12c-23.333 0 -44 3.33301 -62 10s-33.167 16.334 -45.5 29.001s-21.666 28 -27.999 46s-9.5 38.333 -9.5 61v278h-48c-7.33301 0 -13.666 2.33301 -18.999 7s-8 11.667 -8 21v54l83 16l28 133
c4 15.333 14 23 30 23h72v-158h366zM515.995 646.997c0 -10 -2 -19.333 -6 -28s-9.33301 -16.334 -16 -23.001s-14.667 -11.667 -24 -15s-19.333 -5 -30 -5c-9.33301 0 -18.333 1.66699 -27 5s-16.334 8.33301 -23.001 15s-12 14.334 -16 23.001s-6 18 -6 28s2 19.5 6 28.5
s9.33301 17 16 24s14.334 12.333 23.001 16s17.667 5.5 27 5.5c10.667 0 20.667 -1.83301 30 -5.5s17.333 -9 24 -16s12 -15 16 -24s6 -18.5 6 -28.5zM691.995 646.997c0 -10 -2.00391 -19.333 -6.00391 -28s-9.33301 -16.334 -16 -23.001s-14.5 -11.667 -23.5 -15
c-8.33301 -3.33301 -17.833 -5 -28.5 -5c-10 0 -19.5 1.66699 -28.5 5s-16.833 8.33301 -23.5 15s-12 14.334 -16 23.001s-6 18 -6 28s2 19.5 6 28.5s9.33301 17 16 24s14.334 12.333 23.001 16s18.334 5.5 29.001 5.5s20.334 -1.83301 29.001 -5.5s16.334 -9 23.001 -16
s12 -15 16 -24s6 -18.5 6 -28.5z" />
    <glyph glyph-name="t_imacron.liga" unicode="t&#x12b;" horiz-adv-x="655" 
d="M594 512l-0.00488281 -512.003h-138v416h-228v-268c0 -14.667 3.33301 -26.167 10 -34.5s16.667 -12.5 30 -12.5c6.66699 0 12.334 0.833008 17.001 2.5s8.66699 3.33398 12 5.00098s6.33301 3.33398 9 5.00098s5.33398 2.5 8.00098 2.5c4 0 7.33301 -1 10 -3
s5.33398 -5 8.00098 -9l42 -66c-18.667 -14.667 -40 -26 -64 -34s-49 -12 -75 -12c-23.333 0 -44 3.33301 -62 10s-33.167 16.334 -45.5 29.001s-21.666 28 -27.999 46s-9.5 38.333 -9.5 61v278h-48c-7.33301 0 -13.666 2.33301 -18.999 7s-8 11.667 -8 21v54l83 16l28 133
c4 15.333 14 23 30 23h72v-158h366zM377.995 689.997h304v-86h-304v86z" />
    <glyph glyph-name="t_itilde.liga" unicode="t&#x129;" horiz-adv-x="655" 
d="M594 512l-0.00488281 -512.003h-138v416h-228v-268c0 -14.667 3.33301 -26.167 10 -34.5s16.667 -12.5 30 -12.5c6.66699 0 12.334 0.833008 17.001 2.5s8.66699 3.33398 12 5.00098s6.33301 3.33398 9 5.00098s5.33398 2.5 8.00098 2.5c4 0 7.33301 -1 10 -3
s5.33398 -5 8.00098 -9l42 -66c-18.667 -14.667 -40 -26 -64 -34s-49 -12 -75 -12c-23.333 0 -44 3.33301 -62 10s-33.167 16.334 -45.5 29.001s-21.666 28 -27.999 46s-9.5 38.333 -9.5 61v278h-48c-7.33301 0 -13.666 2.33301 -18.999 7s-8 11.667 -8 21v54l83 16l28 133
c4 15.333 14 23 30 23h72v-158h366zM582.995 685.997c9.33301 0 16.498 2.33301 21.498 7s7.5 14.334 7.5 29.001h84c0 -20 -2.66699 -38 -8 -54s-12.833 -29.667 -22.5 -41s-21.167 -20 -34.5 -26s-27.666 -9 -42.999 -9c-12 0 -23.333 2 -34 6s-20.5 8.5 -29.5 13.5
s-17.333 9.66699 -25 14s-14.5 6.5 -20.5 6.5c-9.33301 0 -16.5 -2.66699 -21.5 -8s-7.5 -15 -7.5 -29h-85c0 20 2.83301 37.833 8.5 53.5s13.334 29.167 23.001 40.5s21 20.166 34 26.499s27.5 9.5 43.5 9.5c12 0 23.333 -2 34 -6s20.5 -8.5 29.5 -13.5
s17.167 -9.5 24.5 -13.5s14.333 -6 21 -6z" />
    <glyph glyph-name="t_ibreve.liga" unicode="t&#x12d;" horiz-adv-x="655" 
d="M594 512l-0.00488281 -512.003h-138v416h-228v-268c0 -14.667 3.33301 -26.167 10 -34.5s16.667 -12.5 30 -12.5c6.66699 0 12.334 0.833008 17.001 2.5s8.66699 3.33398 12 5.00098s6.33301 3.33398 9 5.00098s5.33398 2.5 8.00098 2.5c4 0 7.33301 -1 10 -3
s5.33398 -5 8.00098 -9l42 -66c-18.667 -14.667 -40 -26 -64 -34s-49 -12 -75 -12c-23.333 0 -44 3.33301 -62 10s-33.167 16.334 -45.5 29.001s-21.666 28 -27.999 46s-9.5 38.333 -9.5 61v278h-48c-7.33301 0 -13.666 2.33301 -18.999 7s-8 11.667 -8 21v54l83 16l28 133
c4 15.333 14 23 30 23h72v-158h366zM529.995 579.997c-29.333 0 -54.1699 3.83398 -74.5029 11.501s-36.666 18.167 -48.999 31.5s-21 28.833 -26 46.5s-7.5 36.5 -7.5 56.5h97c0 -9.33301 0.666992 -18 2 -26s4.33301 -14.5 9 -19.5s11 -8.83301 19 -11.5s18 -4 30 -4
s22 1.33301 30 4s14.333 6.5 19 11.5s7.66699 11.333 9 19c1.33301 8.33301 2 17.166 2 26.499h97c0 -20 -2.5 -38.833 -7.5 -56.5s-13.667 -33.167 -26 -46.5s-28.666 -23.833 -48.999 -31.5s-45.166 -11.5 -74.499 -11.5z" />
    <glyph glyph-name="t_uni01D0.liga" unicode="t&#x1d0;" horiz-adv-x="655" 
d="M594 512l-0.00488281 -512.003h-138v416h-228v-268c0 -14.667 3.33301 -26.167 10 -34.5s16.667 -12.5 30 -12.5c6.66699 0 12.334 0.833008 17.001 2.5s8.66699 3.33398 12 5.00098s6.33301 3.33398 9 5.00098s5.33398 2.5 8.00098 2.5c4 0 7.33301 -1 10 -3
s5.33398 -5 8.00098 -9l42 -66c-18.667 -14.667 -40 -26 -64 -34s-49 -12 -75 -12c-23.333 0 -44 3.33301 -62 10s-33.167 16.334 -45.5 29.001s-21.666 28 -27.999 46s-9.5 38.333 -9.5 61v278h-48c-7.33301 0 -13.666 2.33301 -18.999 7s-8 11.667 -8 21v54l83 16l28 133
c4 15.333 14 23 30 23h72v-158h366zM349.995 725.997h95c5.33301 0 10.5 -1 15.5 -3s8.83301 -4.33301 11.5 -7l48 -50c1.33301 -2 3.16602 -4.16699 5.49902 -6.5s4.5 -4.83301 6.5 -7.5c1.33301 2.66699 3 5 5 7l7 7l48 50c2.66699 2 6.33398 4.16699 11.001 6.5
s9.66699 3.5 15 3.5h92l-116 -142h-128z" />
    <glyph glyph-name="t_uni1E2D.liga" unicode="t&#x1e2d;" horiz-adv-x="655" 
d="M594 512l-0.00488281 -512.003h-138v416h-228v-268c0 -14.667 3.33301 -26.167 10 -34.5s16.667 -12.5 30 -12.5c6.66699 0 12.334 0.833008 17.001 2.5s8.66699 3.33398 12 5.00098s6.33301 3.33398 9 5.00098s5.33398 2.5 8.00098 2.5c4 0 7.33301 -1 10 -3
s5.33398 -5 8.00098 -9l42 -66c-18.667 -14.667 -40 -26 -64 -34s-49 -12 -75 -12c-23.333 0 -44 3.33301 -62 10s-33.167 16.334 -45.5 29.001s-21.666 28 -27.999 46s-9.5 38.333 -9.5 61v278h-48c-7.33301 0 -13.666 2.33301 -18.999 7s-8 11.667 -8 21v54l83 16l28 133
c4 15.333 14 23 30 23h72v-158h366zM615.995 662.997c0 -11.333 -2.33301 -22 -7 -32s-11 -18.833 -19 -26.5s-17.167 -13.667 -27.5 -18s-21.5 -6.5 -33.5 -6.5c-11.333 0 -22 2.16699 -32 6.5s-19 10.333 -27 18s-14.167 16.5 -18.5 26.5s-6.5 20.667 -6.5 32
c0 12 2.16699 23 6.5 33s10.5 18.833 18.5 26.5s17 13.834 27 18.501s20.667 7 32 7c12 0 23.167 -2.33301 33.5 -7s19.5 -10.834 27.5 -18.501s14.333 -16.5 19 -26.5s7 -21 7 -33zM580.995 -71.0029c9.33301 0 16.498 2.33301 21.498 7s7.5 14.334 7.5 29.001h84
c0 -20 -2.66699 -38 -8 -54s-12.833 -29.667 -22.5 -41s-21.167 -20 -34.5 -26s-27.666 -9 -42.999 -9c-12 0 -23.333 2 -34 6s-20.5 8.5 -29.5 13.5s-17.333 9.66699 -25 14s-14.5 6.5 -20.5 6.5c-9.33301 0 -16.5 -2.66699 -21.5 -8s-7.5 -15 -7.5 -29h-85
c0 20 2.83301 37.833 8.5 53.5s13.334 29.167 23.001 40.5s21 20.166 34 26.499s27.5 9.5 43.5 9.5c12 0 23.333 -2 34 -6s20.5 -8.5 29.5 -13.5s17.167 -9.5 24.5 -13.5s14.333 -6 21 -6z" />
    <glyph glyph-name="t_uni1E2F.liga" unicode="t&#x1e2f;" horiz-adv-x="655" 
d="M594 512l-0.00488281 -512.003h-138v416h-228v-268c0 -14.667 3.33301 -26.167 10 -34.5s16.667 -12.5 30 -12.5c6.66699 0 12.334 0.833008 17.001 2.5s8.66699 3.33398 12 5.00098s6.33301 3.33398 9 5.00098s5.33398 2.5 8.00098 2.5c4 0 7.33301 -1 10 -3
s5.33398 -5 8.00098 -9l42 -66c-18.667 -14.667 -40 -26 -64 -34s-49 -12 -75 -12c-23.333 0 -44 3.33301 -62 10s-33.167 16.334 -45.5 29.001s-21.666 28 -27.999 46s-9.5 38.333 -9.5 61v278h-48c-7.33301 0 -13.666 2.33301 -18.999 7s-8 11.667 -8 21v54l83 16l28 133
c4 15.333 14 23 30 23h72v-158h366zM733.995 895.997l-125.999 -131.999c-6.66699 -6.66699 -13.334 -11.334 -20.001 -14.001s-15 -4 -25 -4h-83l70 122c5.33301 9.33301 11.5 16.333 18.5 21s17.833 7 32.5 7h133zM499.996 646.998c0 -10 -2.00098 -19.333 -6.00098 -28
s-9.33301 -16.334 -16 -23.001s-14.667 -11.667 -24 -15s-19 -5 -29 -5c-9.33301 0 -18.5 1.66699 -27.5 5s-16.833 8.33301 -23.5 15s-12 14.334 -16 23.001s-6 18 -6 28s2 19.5 6 28.5s9.33301 17 16 24s14.334 12.333 23.001 16s18 5.5 28 5.5
c10.667 0 20.5 -1.83301 29.5 -5.5s16.833 -9 23.5 -16s12 -15 16 -24s6 -18.5 6 -28.5zM707.995 646.998c0 -10 -2 -19.333 -6 -28s-9.33301 -16.334 -16 -23.001s-14.667 -11.667 -24 -15s-19 -5 -29 -5s-19.5 1.66699 -28.5 5s-16.833 8.33301 -23.5 15
s-11.834 14.334 -15.501 23.001s-5.5 18 -5.5 28s1.83301 19.5 5.5 28.5s8.83398 17 15.501 24s14.5 12.333 23.5 16s18.5 5.5 28.5 5.5c10.667 0 20.5 -1.83301 29.5 -5.5s16.833 -9 23.5 -16s12 -15 16 -24s6 -18.5 6 -28.5z" />
    <glyph glyph-name="t_uni0268.liga" unicode="t&#x268;" horiz-adv-x="684" 
d="M456 288l-0.00488281 127.997h-228v-268c0 -14.667 3.33301 -26.167 10 -34.5s16.667 -12.5 30 -12.5c6.66699 0 12.334 0.833008 17.001 2.5s8.66699 3.33398 12 5.00098s6.33301 3.33398 9 5.00098s5.33398 2.5 8.00098 2.5c4 0 7.33301 -1 10 -3
s5.33398 -5 8.00098 -9l42 -66c-18.667 -14.667 -40 -26 -64 -34s-49 -12 -75 -12c-23.333 0 -44 3.33301 -62 10s-33.167 16.334 -45.5 29.001s-21.666 28 -27.999 46s-9.5 38.333 -9.5 61v278h-48c-7.33301 0 -13.666 2.33301 -18.999 7s-8 11.667 -8 21v54l83 16l28 133
c4 15.333 14 23 30 23h72v-158h366v-224h73v-96h-73v-192h-138v192h-60v96h60zM615.995 662.997c0 -11.333 -2.33301 -22 -7 -32s-11 -18.833 -19 -26.5s-17.333 -13.667 -28 -18s-22 -6.5 -34 -6.5c-11.333 0 -22 2.16699 -32 6.5s-18.833 10.333 -26.5 18
s-13.834 16.5 -18.501 26.5s-7 20.667 -7 32c0 12 2.33301 23 7 33s10.834 18.833 18.501 26.5s16.667 13.834 27 18.501s20.833 7 31.5 7c12 0 23.333 -2.33301 34 -7s20 -10.834 28 -18.501s14.333 -16.5 19 -26.5s7 -21 7 -33z" />
    <glyph glyph-name="t_uni020B.liga" unicode="t&#x20b;" horiz-adv-x="655" 
d="M594 512l-0.00488281 -512.003h-138v416h-228v-268c0 -14.667 3.33301 -26.167 10 -34.5s16.667 -12.5 30 -12.5c6.66699 0 12.334 0.833008 17.001 2.5s8.66699 3.33398 12 5.00098s6.33301 3.33398 9 5.00098s5.33398 2.5 8.00098 2.5c4 0 7.33301 -1 10 -3
s5.33398 -5 8.00098 -9l42 -66c-18.667 -14.667 -40 -26 -64 -34s-49 -12 -75 -12c-23.333 0 -44 3.33301 -62 10s-33.167 16.334 -45.5 29.001s-21.666 28 -27.999 46s-9.5 38.333 -9.5 61v278h-48c-7.33301 0 -13.666 2.33301 -18.999 7s-8 11.667 -8 21v54l83 16l28 133
c4 15.333 14 23 30 23h72v-158h366zM529.995 732.997c29.333 0 54.1699 -3.83203 74.5029 -11.499s36.666 -18.167 48.999 -31.5s21 -28.833 26 -46.5c5 -17 7.5 -35.5 7.5 -55.5h-97c0 9.33301 -0.666992 17.666 -2 24.999s-4.33301 13.666 -9 18.999s-11 9.33301 -19 12
s-18 4 -30 4s-22 -1.33301 -30 -4s-14.333 -6.66699 -19 -12s-7.66699 -11.666 -9 -18.999s-2 -15.666 -2 -24.999h-97c0 20 2.5 38.667 7.5 56s13.667 32.666 26 45.999s28.666 23.833 48.999 31.5s45.166 11.5 74.499 11.5z" />
    <glyph glyph-name="t_uni0209.liga" unicode="t&#x209;" horiz-adv-x="655" 
d="M594 512l-0.00488281 -512.003h-138v416h-228v-268c0 -14.667 3.33301 -26.167 10 -34.5s16.667 -12.5 30 -12.5c6.66699 0 12.334 0.833008 17.001 2.5s8.66699 3.33398 12 5.00098s6.33301 3.33398 9 5.00098s5.33398 2.5 8.00098 2.5c4 0 7.33301 -1 10 -3
s5.33398 -5 8.00098 -9l42 -66c-18.667 -14.667 -40 -26 -64 -34s-49 -12 -75 -12c-23.333 0 -44 3.33301 -62 10s-33.167 16.334 -45.5 29.001s-21.666 28 -27.999 46s-9.5 38.333 -9.5 61v278h-48c-7.33301 0 -13.666 2.33301 -18.999 7s-8 11.667 -8 21v54l83 16l28 133
c4 15.333 14 23 30 23h72v-158h366zM549.995 733.997c14.667 0 25.668 -2.33301 33.001 -7s13.333 -11.667 18 -21l61 -122h-56c-10.667 0 -19.334 1.16699 -26.001 3.5c-6.66699 1.66699 -13 6.5 -19 14.5l-100 132h89zM377.996 733.997
c6.66699 0 12.667 -0.667969 18 -2.00098s9.83301 -3.33301 13.5 -6s7 -5.66699 10 -9s6.16699 -7 9.5 -11l89 -122h-66c-10.667 0 -19 1.33301 -25 4s-12.333 7.33398 -19 14.001l-128 132h98z" />
    <glyph glyph-name="t_t_i.liga" unicode="tti" horiz-adv-x="979" 
d="M235 -8c-23.333 0 -44.0098 3.32715 -62.0098 9.99414s-33.167 16.334 -45.5 29.001s-21.666 28 -27.999 46s-9.5 38.333 -9.5 61v278h-48c-7.33301 0 -13.666 2.33301 -18.999 7s-8 11.667 -8 21v54l83 16l28 133c4 15.333 14 23 30 23h72v-158h203l29 135
c4 15.333 14 23 30 23h72v-158h356v-512h-138v416h-218v-268c0 -14.667 3.5 -26.167 10.5 -34.5c7.66699 -8.33301 17.5 -12.5 29.5 -12.5c6.66699 0 12.334 0.833008 17.001 2.5s8.66699 3.33398 12 5.00098s6.33301 3.33398 9 5.00098s5.33398 2.5 8.00098 2.5
c4 0 7.33301 -1 10 -3s5.33398 -5 8.00098 -9l42 -66c-18.667 -14.667 -40 -26 -64 -34s-49 -12 -75 -12c-23.333 0 -44 3.33301 -62 10s-33.167 16.334 -45.5 29.001s-21.666 28 -27.999 46s-9.5 38.333 -9.5 61v278h-196v-268c0 -14.667 3.33301 -26.167 10 -34.5
s16.667 -12.5 30 -12.5c6.66699 0 12.334 0.833008 17.001 2.5s8.66699 3.33398 12 5.00098s6.33301 3.33398 9 5.00098s5.33398 2.5 8.00098 2.5c4 0 7.33301 -1 10 -3s5.33398 -5 8.00098 -9l42 -66c-18.667 -14.667 -40.167 -26 -64.5 -34s-49.166 -12 -74.499 -12z
M936.99 662.994c0 -11.333 -2.33301 -22 -7 -32s-11 -18.833 -19 -26.5s-17.167 -13.667 -27.5 -18s-21.5 -6.5 -33.5 -6.5c-11.333 0 -22 2.16699 -32 6.5s-19 10.333 -27 18s-14.167 16.5 -18.5 26.5s-6.5 20.667 -6.5 32c0 12 2.16699 23 6.5 33s10.5 18.833 18.5 26.5
s17 13.834 27 18.501s20.667 7 32 7c12 0 23.167 -2.33301 33.5 -7s19.5 -10.834 27.5 -18.501s14.333 -16.5 19 -26.5s7 -21 7 -33z" />
    <glyph glyph-name="t_t_igrave.liga" unicode="tt&#xec;" horiz-adv-x="979" 
d="M235 -8c-23.333 0 -44.0098 3.32715 -62.0098 9.99414s-33.167 16.334 -45.5 29.001s-21.666 28 -27.999 46s-9.5 38.333 -9.5 61v278h-48c-7.33301 0 -13.666 2.33301 -18.999 7s-8 11.667 -8 21v54l83 16l28 133c4 15.333 14 23 30 23h72v-158h203l29 135
c4 15.333 14 23 30 23h72v-158h356v-512h-138v416h-218v-268c0 -14.667 3.5 -26.167 10.5 -34.5c7.66699 -8.33301 17.5 -12.5 29.5 -12.5c6.66699 0 12.334 0.833008 17.001 2.5s8.66699 3.33398 12 5.00098s6.33301 3.33398 9 5.00098s5.33398 2.5 8.00098 2.5
c4 0 7.33301 -1 10 -3s5.33398 -5 8.00098 -9l42 -66c-18.667 -14.667 -40 -26 -64 -34s-49 -12 -75 -12c-23.333 0 -44 3.33301 -62 10s-33.167 16.334 -45.5 29.001s-21.666 28 -27.999 46s-9.5 38.333 -9.5 61v278h-196v-268c0 -14.667 3.33301 -26.167 10 -34.5
s16.667 -12.5 30 -12.5c6.66699 0 12.334 0.833008 17.001 2.5s8.66699 3.33398 12 5.00098s6.33301 3.33398 9 5.00098s5.33398 2.5 8.00098 2.5c4 0 7.33301 -1 10 -3s5.33398 -5 8.00098 -9l42 -66c-18.667 -14.667 -40.167 -26 -64.5 -34s-49.166 -12 -74.499 -12z
M808.99 733.994c14.667 0 25.5 -2.33398 32.5 -7.00098s13.167 -11.667 18.5 -21l69 -122h-78c-10.667 0 -19 1.33301 -25 4s-12.333 7.33398 -19 14.001l-127 132h129z" />
    <glyph glyph-name="t_t_iacute.liga" unicode="tt&#xed;" horiz-adv-x="979" 
d="M235 -8c-23.333 0 -44.0098 3.32715 -62.0098 9.99414s-33.167 16.334 -45.5 29.001s-21.666 28 -27.999 46s-9.5 38.333 -9.5 61v278h-48c-7.33301 0 -13.666 2.33301 -18.999 7s-8 11.667 -8 21v54l83 16l28 133c4 15.333 14 23 30 23h72v-158h203l29 135
c4 15.333 14 23 30 23h72v-158h356v-512h-138v416h-218v-268c0 -14.667 3.5 -26.167 10.5 -34.5c7.66699 -8.33301 17.5 -12.5 29.5 -12.5c6.66699 0 12.334 0.833008 17.001 2.5s8.66699 3.33398 12 5.00098s6.33301 3.33398 9 5.00098s5.33398 2.5 8.00098 2.5
c4 0 7.33301 -1 10 -3s5.33398 -5 8.00098 -9l42 -66c-18.667 -14.667 -40 -26 -64 -34s-49 -12 -75 -12c-23.333 0 -44 3.33301 -62 10s-33.167 16.334 -45.5 29.001s-21.666 28 -27.999 46s-9.5 38.333 -9.5 61v278h-196v-268c0 -14.667 3.33301 -26.167 10 -34.5
s16.667 -12.5 30 -12.5c6.66699 0 12.334 0.833008 17.001 2.5s8.66699 3.33398 12 5.00098s6.33301 3.33398 9 5.00098s5.33398 2.5 8.00098 2.5c4 0 7.33301 -1 10 -3s5.33398 -5 8.00098 -9l42 -66c-18.667 -14.667 -40.167 -26 -64.5 -34s-49.166 -12 -74.499 -12z
M1034.99 733.994l-125.999 -131.999c-6.66699 -6.66699 -13.334 -11.334 -20.001 -14.001s-15 -4 -25 -4h-83l70 122c5.33301 9.33301 11.5 16.333 18.5 21s17.833 7 32.5 7h133z" />
    <glyph glyph-name="t_t_icircumflex.liga" unicode="tt&#xee;" horiz-adv-x="979" 
d="M235 -8c-23.333 0 -44.0098 3.32715 -62.0098 9.99414s-33.167 16.334 -45.5 29.001s-21.666 28 -27.999 46s-9.5 38.333 -9.5 61v278h-48c-7.33301 0 -13.666 2.33301 -18.999 7s-8 11.667 -8 21v54l83 16l28 133c4 15.333 14 23 30 23h72v-158h203l29 135
c4 15.333 14 23 30 23h72v-158h356v-512h-138v416h-218v-268c0 -14.667 3.5 -26.167 10.5 -34.5c7.66699 -8.33301 17.5 -12.5 29.5 -12.5c6.66699 0 12.334 0.833008 17.001 2.5s8.66699 3.33398 12 5.00098s6.33301 3.33398 9 5.00098s5.33398 2.5 8.00098 2.5
c4 0 7.33301 -1 10 -3s5.33398 -5 8.00098 -9l42 -66c-18.667 -14.667 -40 -26 -64 -34s-49 -12 -75 -12c-23.333 0 -44 3.33301 -62 10s-33.167 16.334 -45.5 29.001s-21.666 28 -27.999 46s-9.5 38.333 -9.5 61v278h-196v-268c0 -14.667 3.33301 -26.167 10 -34.5
s16.667 -12.5 30 -12.5c6.66699 0 12.334 0.833008 17.001 2.5s8.66699 3.33398 12 5.00098s6.33301 3.33398 9 5.00098s5.33398 2.5 8.00098 2.5c4 0 7.33301 -1 10 -3s5.33398 -5 8.00098 -9l42 -66c-18.667 -14.667 -40.167 -26 -64.5 -34s-49.166 -12 -74.499 -12z
M1030.99 583.994h-92.001c-5.33301 0 -10.333 1 -15 3s-9.66699 5.33301 -15 10l-44 47c-2 1.33301 -4 3.33301 -6 6c-2.66699 2.66699 -4.66699 5 -6 7c-2 -2.66699 -3.83301 -5 -5.5 -7c-1.66699 -2.66699 -3.5 -4.66699 -5.5 -6l-45 -47
c-9.33301 -8.66699 -19.666 -13 -30.999 -13h-95l116 142h128z" />
    <glyph glyph-name="t_t_idieresis.liga" unicode="tt&#xef;" horiz-adv-x="979" 
d="M235 -8c-23.333 0 -44.0098 3.32715 -62.0098 9.99414s-33.167 16.334 -45.5 29.001s-21.666 28 -27.999 46s-9.5 38.333 -9.5 61v278h-48c-7.33301 0 -13.666 2.33301 -18.999 7s-8 11.667 -8 21v54l83 16l28 133c4 15.333 14 23 30 23h72v-158h203l29 135
c4 15.333 14 23 30 23h72v-158h356v-512h-138v416h-218v-268c0 -14.667 3.5 -26.167 10.5 -34.5c7.66699 -8.33301 17.5 -12.5 29.5 -12.5c6.66699 0 12.334 0.833008 17.001 2.5s8.66699 3.33398 12 5.00098s6.33301 3.33398 9 5.00098s5.33398 2.5 8.00098 2.5
c4 0 7.33301 -1 10 -3s5.33398 -5 8.00098 -9l42 -66c-18.667 -14.667 -40 -26 -64 -34s-49 -12 -75 -12c-23.333 0 -44 3.33301 -62 10s-33.167 16.334 -45.5 29.001s-21.666 28 -27.999 46s-9.5 38.333 -9.5 61v278h-196v-268c0 -14.667 3.33301 -26.167 10 -34.5
s16.667 -12.5 30 -12.5c6.66699 0 12.334 0.833008 17.001 2.5s8.66699 3.33398 12 5.00098s6.33301 3.33398 9 5.00098s5.33398 2.5 8.00098 2.5c4 0 7.33301 -1 10 -3s5.33398 -5 8.00098 -9l42 -66c-18.667 -14.667 -40.167 -26 -64.5 -34s-49.166 -12 -74.499 -12z
M836.99 646.994c0 -10 -2 -19.333 -6 -28s-9.33301 -16.334 -16 -23.001s-14.667 -11.667 -24 -15s-19.333 -5 -30 -5c-9.33301 0 -18.333 1.66699 -27 5s-16.334 8.33301 -23.001 15s-12 14.334 -16 23.001s-6 18 -6 28s2 19.5 6 28.5s9.33301 17 16 24
s14.334 12.333 23.001 16s17.667 5.5 27 5.5c10.667 0 20.667 -1.83301 30 -5.5s17.333 -9 24 -16s12 -15 16 -24s6 -18.5 6 -28.5zM1012.99 646.994c0 -10 -2.00391 -19.333 -6.00391 -28s-9.33301 -16.334 -16 -23.001s-14.5 -11.667 -23.5 -15
c-8.33301 -3.33301 -17.833 -5 -28.5 -5c-10 0 -19.5 1.66699 -28.5 5s-16.833 8.33301 -23.5 15s-12 14.334 -16 23.001s-6 18 -6 28s2 19.5 6 28.5s9.33301 17 16 24s14.334 12.333 23.001 16s18.334 5.5 29.001 5.5s20.334 -1.83301 29.001 -5.5s16.334 -9 23.001 -16
s12 -15 16 -24s6 -18.5 6 -28.5z" />
    <glyph glyph-name="t_t_imacron.liga" unicode="tt&#x12b;" horiz-adv-x="979" 
d="M235 -8c-23.333 0 -44.0098 3.32715 -62.0098 9.99414s-33.167 16.334 -45.5 29.001s-21.666 28 -27.999 46s-9.5 38.333 -9.5 61v278h-48c-7.33301 0 -13.666 2.33301 -18.999 7s-8 11.667 -8 21v54l83 16l28 133c4 15.333 14 23 30 23h72v-158h203l29 135
c4 15.333 14 23 30 23h72v-158h356v-512h-138v416h-218v-268c0 -14.667 3.5 -26.167 10.5 -34.5c7.66699 -8.33301 17.5 -12.5 29.5 -12.5c6.66699 0 12.334 0.833008 17.001 2.5s8.66699 3.33398 12 5.00098s6.33301 3.33398 9 5.00098s5.33398 2.5 8.00098 2.5
c4 0 7.33301 -1 10 -3s5.33398 -5 8.00098 -9l42 -66c-18.667 -14.667 -40 -26 -64 -34s-49 -12 -75 -12c-23.333 0 -44 3.33301 -62 10s-33.167 16.334 -45.5 29.001s-21.666 28 -27.999 46s-9.5 38.333 -9.5 61v278h-196v-268c0 -14.667 3.33301 -26.167 10 -34.5
s16.667 -12.5 30 -12.5c6.66699 0 12.334 0.833008 17.001 2.5s8.66699 3.33398 12 5.00098s6.33301 3.33398 9 5.00098s5.33398 2.5 8.00098 2.5c4 0 7.33301 -1 10 -3s5.33398 -5 8.00098 -9l42 -66c-18.667 -14.667 -40.167 -26 -64.5 -34s-49.166 -12 -74.499 -12z
M698.99 689.994h304v-86h-304v86z" />
    <glyph glyph-name="t_t_itilde.liga" unicode="tt&#x129;" horiz-adv-x="979" 
d="M235 -8c-23.333 0 -44.0098 3.32715 -62.0098 9.99414s-33.167 16.334 -45.5 29.001s-21.666 28 -27.999 46s-9.5 38.333 -9.5 61v278h-48c-7.33301 0 -13.666 2.33301 -18.999 7s-8 11.667 -8 21v54l83 16l28 133c4 15.333 14 23 30 23h72v-158h203l29 135
c4 15.333 14 23 30 23h72v-158h356v-512h-138v416h-218v-268c0 -14.667 3.5 -26.167 10.5 -34.5c7.66699 -8.33301 17.5 -12.5 29.5 -12.5c6.66699 0 12.334 0.833008 17.001 2.5s8.66699 3.33398 12 5.00098s6.33301 3.33398 9 5.00098s5.33398 2.5 8.00098 2.5
c4 0 7.33301 -1 10 -3s5.33398 -5 8.00098 -9l42 -66c-18.667 -14.667 -40 -26 -64 -34s-49 -12 -75 -12c-23.333 0 -44 3.33301 -62 10s-33.167 16.334 -45.5 29.001s-21.666 28 -27.999 46s-9.5 38.333 -9.5 61v278h-196v-268c0 -14.667 3.33301 -26.167 10 -34.5
s16.667 -12.5 30 -12.5c6.66699 0 12.334 0.833008 17.001 2.5s8.66699 3.33398 12 5.00098s6.33301 3.33398 9 5.00098s5.33398 2.5 8.00098 2.5c4 0 7.33301 -1 10 -3s5.33398 -5 8.00098 -9l42 -66c-18.667 -14.667 -40.167 -26 -64.5 -34s-49.166 -12 -74.499 -12z
M903.99 685.994c9.33301 0 16.498 2.33301 21.498 7s7.5 14.334 7.5 29.001h84c0 -20 -2.66699 -38 -8 -54s-12.833 -29.667 -22.5 -41s-21.167 -20 -34.5 -26s-27.666 -9 -42.999 -9c-12 0 -23.333 2 -34 6s-20.5 8.5 -29.5 13.5s-17.333 9.66699 -25 14
s-14.5 6.5 -20.5 6.5c-9.33301 0 -16.5 -2.66699 -21.5 -8s-7.5 -15 -7.5 -29h-85c0 20 2.83301 37.833 8.5 53.5s13.334 29.167 23.001 40.5s21 20.166 34 26.499s27.5 9.5 43.5 9.5c12 0 23.333 -2 34 -6s20.5 -8.5 29.5 -13.5s17.167 -9.5 24.5 -13.5s14.333 -6 21 -6z
" />
    <glyph glyph-name="t_t_ibreve.liga" unicode="tt&#x12d;" horiz-adv-x="979" 
d="M235 -8c-23.333 0 -44.0098 3.32715 -62.0098 9.99414s-33.167 16.334 -45.5 29.001s-21.666 28 -27.999 46s-9.5 38.333 -9.5 61v278h-48c-7.33301 0 -13.666 2.33301 -18.999 7s-8 11.667 -8 21v54l83 16l28 133c4 15.333 14 23 30 23h72v-158h203l29 135
c4 15.333 14 23 30 23h72v-158h356v-512h-138v416h-218v-268c0 -14.667 3.5 -26.167 10.5 -34.5c7.66699 -8.33301 17.5 -12.5 29.5 -12.5c6.66699 0 12.334 0.833008 17.001 2.5s8.66699 3.33398 12 5.00098s6.33301 3.33398 9 5.00098s5.33398 2.5 8.00098 2.5
c4 0 7.33301 -1 10 -3s5.33398 -5 8.00098 -9l42 -66c-18.667 -14.667 -40 -26 -64 -34s-49 -12 -75 -12c-23.333 0 -44 3.33301 -62 10s-33.167 16.334 -45.5 29.001s-21.666 28 -27.999 46s-9.5 38.333 -9.5 61v278h-196v-268c0 -14.667 3.33301 -26.167 10 -34.5
s16.667 -12.5 30 -12.5c6.66699 0 12.334 0.833008 17.001 2.5s8.66699 3.33398 12 5.00098s6.33301 3.33398 9 5.00098s5.33398 2.5 8.00098 2.5c4 0 7.33301 -1 10 -3s5.33398 -5 8.00098 -9l42 -66c-18.667 -14.667 -40.167 -26 -64.5 -34s-49.166 -12 -74.499 -12z
M850.99 579.994c-29.333 0 -54.1699 3.83398 -74.5029 11.501s-36.666 18.167 -48.999 31.5s-21 28.833 -26 46.5s-7.5 36.5 -7.5 56.5h97c0 -9.33301 0.666992 -18 2 -26s4.33301 -14.5 9 -19.5s11 -8.83301 19 -11.5s18 -4 30 -4s22 1.33301 30 4s14.333 6.5 19 11.5
s7.66699 11.333 9 19c1.33301 8.33301 2 17.166 2 26.499h97c0 -20 -2.5 -38.833 -7.5 -56.5s-13.667 -33.167 -26 -46.5s-28.666 -23.833 -48.999 -31.5s-45.166 -11.5 -74.499 -11.5z" />
    <glyph glyph-name="t_t_uni01D0.liga" unicode="tt&#x1d0;" horiz-adv-x="979" 
d="M235 -8c-23.333 0 -44.0098 3.32715 -62.0098 9.99414s-33.167 16.334 -45.5 29.001s-21.666 28 -27.999 46s-9.5 38.333 -9.5 61v278h-48c-7.33301 0 -13.666 2.33301 -18.999 7s-8 11.667 -8 21v54l83 16l28 133c4 15.333 14 23 30 23h72v-158h203l29 135
c4 15.333 14 23 30 23h72v-158h356v-512h-138v416h-218v-268c0 -14.667 3.5 -26.167 10.5 -34.5c7.66699 -8.33301 17.5 -12.5 29.5 -12.5c6.66699 0 12.334 0.833008 17.001 2.5s8.66699 3.33398 12 5.00098s6.33301 3.33398 9 5.00098s5.33398 2.5 8.00098 2.5
c4 0 7.33301 -1 10 -3s5.33398 -5 8.00098 -9l42 -66c-18.667 -14.667 -40 -26 -64 -34s-49 -12 -75 -12c-23.333 0 -44 3.33301 -62 10s-33.167 16.334 -45.5 29.001s-21.666 28 -27.999 46s-9.5 38.333 -9.5 61v278h-196v-268c0 -14.667 3.33301 -26.167 10 -34.5
s16.667 -12.5 30 -12.5c6.66699 0 12.334 0.833008 17.001 2.5s8.66699 3.33398 12 5.00098s6.33301 3.33398 9 5.00098s5.33398 2.5 8.00098 2.5c4 0 7.33301 -1 10 -3s5.33398 -5 8.00098 -9l42 -66c-18.667 -14.667 -40.167 -26 -64.5 -34s-49.166 -12 -74.499 -12z
M670.99 725.994h95c5.33301 0 10.5 -1 15.5 -3s8.83301 -4.33301 11.5 -7l48 -50c1.33301 -2 3.16602 -4.16699 5.49902 -6.5s4.5 -4.83301 6.5 -7.5c1.33301 2.66699 3 5 5 7l7 7l48 50c2.66699 2 6.33398 4.16699 11.001 6.5s9.66699 3.5 15 3.5h92l-116 -142h-128z" />
    <glyph glyph-name="t_t_uni1E2D.liga" unicode="tt&#x1e2d;" horiz-adv-x="979" 
d="M235 -8c-23.333 0 -44.0098 3.32715 -62.0098 9.99414s-33.167 16.334 -45.5 29.001s-21.666 28 -27.999 46s-9.5 38.333 -9.5 61v278h-48c-7.33301 0 -13.666 2.33301 -18.999 7s-8 11.667 -8 21v54l83 16l28 133c4 15.333 14 23 30 23h72v-158h203l29 135
c4 15.333 14 23 30 23h72v-158h356v-512h-138v416h-218v-268c0 -14.667 3.5 -26.167 10.5 -34.5c7.66699 -8.33301 17.5 -12.5 29.5 -12.5c6.66699 0 12.334 0.833008 17.001 2.5s8.66699 3.33398 12 5.00098s6.33301 3.33398 9 5.00098s5.33398 2.5 8.00098 2.5
c4 0 7.33301 -1 10 -3s5.33398 -5 8.00098 -9l42 -66c-18.667 -14.667 -40 -26 -64 -34s-49 -12 -75 -12c-23.333 0 -44 3.33301 -62 10s-33.167 16.334 -45.5 29.001s-21.666 28 -27.999 46s-9.5 38.333 -9.5 61v278h-196v-268c0 -14.667 3.33301 -26.167 10 -34.5
s16.667 -12.5 30 -12.5c6.66699 0 12.334 0.833008 17.001 2.5s8.66699 3.33398 12 5.00098s6.33301 3.33398 9 5.00098s5.33398 2.5 8.00098 2.5c4 0 7.33301 -1 10 -3s5.33398 -5 8.00098 -9l42 -66c-18.667 -14.667 -40.167 -26 -64.5 -34s-49.166 -12 -74.499 -12z
M903.99 -71.0059c9.33301 0 16.498 2.33301 21.498 7s7.5 14.334 7.5 29.001h84c0 -20 -2.66699 -38 -8 -54s-12.833 -29.667 -22.5 -41s-21.167 -20 -34.5 -26s-27.666 -9 -42.999 -9c-12 0 -23.333 2 -34 6s-20.5 8.5 -29.5 13.5s-17.333 9.66699 -25 14
s-14.5 6.5 -20.5 6.5c-9.33301 0 -16.5 -2.66699 -21.5 -8s-7.5 -15 -7.5 -29h-85c0 20 2.83301 37.833 8.5 53.5s13.334 29.167 23.001 40.5s21 20.166 34 26.499s27.5 9.5 43.5 9.5c12 0 23.333 -2 34 -6s20.5 -8.5 29.5 -13.5s17.167 -9.5 24.5 -13.5s14.333 -6 21 -6z
M936.988 662.994c0 -11.333 -2.33301 -22 -7 -32s-11 -18.833 -19 -26.5s-17.167 -13.667 -27.5 -18s-21.5 -6.5 -33.5 -6.5c-11.333 0 -22 2.16699 -32 6.5s-19 10.333 -27 18s-14.167 16.5 -18.5 26.5s-6.5 20.667 -6.5 32c0 12 2.16699 23 6.5 33s10.5 18.833 18.5 26.5
s17 13.834 27 18.501s20.667 7 32 7c12 0 23.167 -2.33301 33.5 -7s19.5 -10.834 27.5 -18.501s14.333 -16.5 19 -26.5s7 -21 7 -33z" />
    <glyph glyph-name="t_t_uni1E2F.liga" unicode="tt&#x1e2f;" horiz-adv-x="979" 
d="M235 -8c-23.333 0 -44.0098 3.32715 -62.0098 9.99414s-33.167 16.334 -45.5 29.001s-21.666 28 -27.999 46s-9.5 38.333 -9.5 61v278h-48c-7.33301 0 -13.666 2.33301 -18.999 7s-8 11.667 -8 21v54l83 16l28 133c4 15.333 14 23 30 23h72v-158h203l29 135
c4 15.333 14 23 30 23h72v-158h356v-512h-138v416h-218v-268c0 -14.667 3.5 -26.167 10.5 -34.5c7.66699 -8.33301 17.5 -12.5 29.5 -12.5c6.66699 0 12.334 0.833008 17.001 2.5s8.66699 3.33398 12 5.00098s6.33301 3.33398 9 5.00098s5.33398 2.5 8.00098 2.5
c4 0 7.33301 -1 10 -3s5.33398 -5 8.00098 -9l42 -66c-18.667 -14.667 -40 -26 -64 -34s-49 -12 -75 -12c-23.333 0 -44 3.33301 -62 10s-33.167 16.334 -45.5 29.001s-21.666 28 -27.999 46s-9.5 38.333 -9.5 61v278h-196v-268c0 -14.667 3.33301 -26.167 10 -34.5
s16.667 -12.5 30 -12.5c6.66699 0 12.334 0.833008 17.001 2.5s8.66699 3.33398 12 5.00098s6.33301 3.33398 9 5.00098s5.33398 2.5 8.00098 2.5c4 0 7.33301 -1 10 -3s5.33398 -5 8.00098 -9l42 -66c-18.667 -14.667 -40.167 -26 -64.5 -34s-49.166 -12 -74.499 -12z
M1054.99 895.994l-125.999 -131.999c-6.66699 -6.66699 -13.334 -11.334 -20.001 -14.001s-15 -4 -25 -4h-83l70 122c5.33301 9.33301 11.5 16.333 18.5 21s17.833 7 32.5 7h133zM820.991 646.995c0 -10 -2.00098 -19.333 -6.00098 -28s-9.33301 -16.334 -16 -23.001
s-14.667 -11.667 -24 -15s-19 -5 -29 -5c-9.33301 0 -18.5 1.66699 -27.5 5s-16.833 8.33301 -23.5 15s-12 14.334 -16 23.001s-6 18 -6 28s2 19.5 6 28.5s9.33301 17 16 24s14.334 12.333 23.001 16s18 5.5 28 5.5c10.667 0 20.5 -1.83301 29.5 -5.5s16.833 -9 23.5 -16
s12 -15 16 -24s6 -18.5 6 -28.5zM1028.99 646.995c0 -10 -2 -19.333 -6 -28s-9.33301 -16.334 -16 -23.001s-14.667 -11.667 -24 -15s-19 -5 -29 -5s-19.5 1.66699 -28.5 5s-16.833 8.33301 -23.5 15s-11.834 14.334 -15.501 23.001s-5.5 18 -5.5 28s1.83301 19.5 5.5 28.5
s8.83398 17 15.501 24s14.5 12.333 23.5 16s18.5 5.5 28.5 5.5c10.667 0 20.5 -1.83301 29.5 -5.5s16.833 -9 23.5 -16s12 -15 16 -24s6 -18.5 6 -28.5z" />
    <glyph glyph-name="t_t_uni0268.liga" unicode="tt&#x268;" horiz-adv-x="1006" 
d="M780 288l-0.00878906 127.994h-218v-268c0 -14.667 3.5 -26.167 10.5 -34.5c7.66699 -8.33301 17.5 -12.5 29.5 -12.5c6.66699 0 12.334 0.833008 17.001 2.5s8.66699 3.33398 12 5.00098s6.33301 3.33398 9 5.00098s5.33398 2.5 8.00098 2.5c4 0 7.33301 -1 10 -3
s5.33398 -5 8.00098 -9l42 -66c-18.667 -14.667 -40 -26 -64 -34s-49 -12 -75 -12c-23.333 0 -44 3.33301 -62 10s-33.167 16.334 -45.5 29.001s-21.666 28 -27.999 46s-9.5 38.333 -9.5 61v278h-196v-268c0 -14.667 3.33301 -26.167 10 -34.5s16.667 -12.5 30 -12.5
c6.66699 0 12.334 0.833008 17.001 2.5s8.66699 3.33398 12 5.00098s6.33301 3.33398 9 5.00098s5.33398 2.5 8.00098 2.5c4 0 7.33301 -1 10 -3s5.33398 -5 8.00098 -9l42 -66c-18.667 -14.667 -40 -26 -64 -34s-49 -12 -75 -12c-23.333 0 -44 3.33301 -62 10
s-33.167 16.334 -45.5 29.001s-21.666 28 -27.999 46s-9.5 38.333 -9.5 61v278h-48c-7.33301 0 -13.666 2.33301 -18.999 7s-8 11.667 -8 21v54l83 16l28 133c4 15.333 14 23 30 23h72v-158h203l29 135c4 15.333 14 23 30 23h72v-158h356v-224h72v-96h-72v-192h-138v192h-61
v96h61zM936.991 662.994c0 -11.333 -2.33301 -22 -7 -32s-10.834 -18.833 -18.501 -26.5s-16.834 -13.667 -27.501 -18s-22 -6.5 -34 -6.5c-11.333 0 -22.166 2.16699 -32.499 6.5s-19.166 10.333 -26.499 18s-13.333 16.5 -18 26.5s-7 20.667 -7 32c0 12 2.33301 23 7 33
s10.667 18.833 18 26.5s16.166 13.834 26.499 18.501s21.166 7 32.499 7c12 0 23.333 -2.33301 34 -7s19.834 -10.834 27.501 -18.501s13.834 -16.5 18.501 -26.5s7 -21 7 -33z" />
    <glyph glyph-name="t_t_uni020B.liga" unicode="tt&#x20b;" horiz-adv-x="979" 
d="M235 -8c-23.333 0 -44.0098 3.32715 -62.0098 9.99414s-33.167 16.334 -45.5 29.001s-21.666 28 -27.999 46s-9.5 38.333 -9.5 61v278h-48c-7.33301 0 -13.666 2.33301 -18.999 7s-8 11.667 -8 21v54l83 16l28 133c4 15.333 14 23 30 23h72v-158h203l29 135
c4 15.333 14 23 30 23h72v-158h356v-512h-138v416h-218v-268c0 -14.667 3.5 -26.167 10.5 -34.5c7.66699 -8.33301 17.5 -12.5 29.5 -12.5c6.66699 0 12.334 0.833008 17.001 2.5s8.66699 3.33398 12 5.00098s6.33301 3.33398 9 5.00098s5.33398 2.5 8.00098 2.5
c4 0 7.33301 -1 10 -3s5.33398 -5 8.00098 -9l42 -66c-18.667 -14.667 -40 -26 -64 -34s-49 -12 -75 -12c-23.333 0 -44 3.33301 -62 10s-33.167 16.334 -45.5 29.001s-21.666 28 -27.999 46s-9.5 38.333 -9.5 61v278h-196v-268c0 -14.667 3.33301 -26.167 10 -34.5
s16.667 -12.5 30 -12.5c6.66699 0 12.334 0.833008 17.001 2.5s8.66699 3.33398 12 5.00098s6.33301 3.33398 9 5.00098s5.33398 2.5 8.00098 2.5c4 0 7.33301 -1 10 -3s5.33398 -5 8.00098 -9l42 -66c-18.667 -14.667 -40.167 -26 -64.5 -34s-49.166 -12 -74.499 -12z
M850.99 732.994c29.333 0 54.1699 -3.83203 74.5029 -11.499s36.666 -18.167 48.999 -31.5s21 -28.833 26 -46.5c5 -17 7.5 -35.5 7.5 -55.5h-97c0 9.33301 -0.666992 17.666 -2 24.999s-4.33301 13.666 -9 18.999s-11 9.33301 -19 12s-18 4 -30 4s-22 -1.33301 -30 -4
s-14.333 -6.66699 -19 -12s-7.66699 -11.666 -9 -18.999s-2 -15.666 -2 -24.999h-97c0 20 2.5 38.667 7.5 56s13.667 32.666 26 45.999s28.666 23.833 48.999 31.5s45.166 11.5 74.499 11.5z" />
    <glyph glyph-name="t_t_uni0209.liga" unicode="tt&#x209;" horiz-adv-x="979" 
d="M235 -8c-23.333 0 -44.0098 3.32715 -62.0098 9.99414s-33.167 16.334 -45.5 29.001s-21.666 28 -27.999 46s-9.5 38.333 -9.5 61v278h-48c-7.33301 0 -13.666 2.33301 -18.999 7s-8 11.667 -8 21v54l83 16l28 133c4 15.333 14 23 30 23h72v-158h203l29 135
c4 15.333 14 23 30 23h72v-158h356v-512h-138v416h-218v-268c0 -14.667 3.5 -26.167 10.5 -34.5c7.66699 -8.33301 17.5 -12.5 29.5 -12.5c6.66699 0 12.334 0.833008 17.001 2.5s8.66699 3.33398 12 5.00098s6.33301 3.33398 9 5.00098s5.33398 2.5 8.00098 2.5
c4 0 7.33301 -1 10 -3s5.33398 -5 8.00098 -9l42 -66c-18.667 -14.667 -40 -26 -64 -34s-49 -12 -75 -12c-23.333 0 -44 3.33301 -62 10s-33.167 16.334 -45.5 29.001s-21.666 28 -27.999 46s-9.5 38.333 -9.5 61v278h-196v-268c0 -14.667 3.33301 -26.167 10 -34.5
s16.667 -12.5 30 -12.5c6.66699 0 12.334 0.833008 17.001 2.5s8.66699 3.33398 12 5.00098s6.33301 3.33398 9 5.00098s5.33398 2.5 8.00098 2.5c4 0 7.33301 -1 10 -3s5.33398 -5 8.00098 -9l42 -66c-18.667 -14.667 -40.167 -26 -64.5 -34s-49.166 -12 -74.499 -12z
M870.99 733.994c14.667 0 25.668 -2.33301 33.001 -7s13.333 -11.667 18 -21l61 -122h-56c-10.667 0 -19.334 1.16699 -26.001 3.5c-6.66699 1.66699 -13 6.5 -19 14.5l-100 132h89zM698.991 733.994c6.66699 0 12.667 -0.667969 18 -2.00098s9.83301 -3.33301 13.5 -6
s7 -5.66699 10 -9s6.16699 -7 9.5 -11l89 -122h-66c-10.667 0 -19 1.33301 -25 4s-12.333 7.33398 -19 14.001l-128 132h98z" />
    <glyph glyph-name=".notdef" horiz-adv-x="553" 
d="M118 574c20 16 42.333 29.3359 67 40.0029s54 16 88 16c24 0 45.833 -3.33301 65.5 -10s36 -15.834 49 -27.501s23 -25.834 30 -42.501s10.5 -35 10.5 -55c0 -18.667 -2.33301 -34.5 -7 -47.5s-10.334 -24.5 -17.001 -34.5s-14 -18.333 -22 -25s-15.667 -13 -23 -19
s-14 -12 -20 -18s-9.66699 -12.667 -11 -20l-13 -47h-94l-9 57c-2.66699 12.667 -2.33398 23.5 0.999023 32.5s8.33301 17 15 24s14.334 13.5 23.001 19.5s16.667 12.333 24 19s13.333 14 18 22s7 17.667 7 29c0 9.33301 -3 17.166 -9 23.499s-16.333 9.5 -31 9.5
c-12 0 -21.667 -1 -29 -3s-13.666 -4.16699 -18.999 -6.5s-10.333 -4.5 -15 -6.5s-9.66699 -3 -15 -3c-12 0 -21.333 5.33301 -28 16zM190 160.003c0 10 1.83203 19.502 5.49902 28.502s8.83398 16.833 15.501 23.5s14.5 11.834 23.5 15.501s18.833 5.5 29.5 5.5
s20.334 -1.83301 29.001 -5.5s16.167 -8.83398 22.5 -15.501s11.333 -14.334 15 -23.001s5.5 -18.334 5.5 -29.001c0 -10 -1.83301 -19.333 -5.5 -28s-8.66699 -16.167 -15 -22.5s-14 -11.5 -23 -15.5c-8.33301 -4 -17.833 -6 -28.5 -6s-20.5 2 -29.5 6
s-16.833 9.16699 -23.5 15.5s-11.834 13.833 -15.501 22.5s-5.5 18 -5.5 28zM19.999 726.005h513v-726h-513v726zM55.999 37.0049h438v651h-438v-651z" />
    <glyph glyph-name="glyph1" horiz-adv-x="0" 
 />
    <glyph glyph-name="glyph1" horiz-adv-x="0" 
 />
    <glyph glyph-name="uni000D" unicode="&#xd;" horiz-adv-x="0" 
 />
    <glyph glyph-name="space" unicode=" " horiz-adv-x="237" 
 />
    <glyph glyph-name="space" unicode="&#xa0;" horiz-adv-x="237" 
 />
    <glyph glyph-name="exclam" unicode="!" horiz-adv-x="286" 
d="M208 726l-0.00195312 -286c0 -30.667 -1.66699 -60.834 -5 -90.501s-7.66602 -60.5 -12.999 -92.5h-93c-5.33301 32 -9.66602 62.833 -12.999 92.5s-5 59.834 -5 90.501v286h129zM59.998 72c0 10.667 2.16699 21 6.5 31s10.166 18.667 17.499 26s15.833 13 25.5 17
s20.5 6 32.5 6c11.333 0 21.833 -2 31.5 -6s18.167 -9.66699 25.5 -17s13.333 -15.833 18 -25.5c4.66699 -10.333 7 -20.833 7 -31.5c0 -11.333 -2.33301 -21.833 -7 -31.5s-10.667 -18 -18 -25s-15.833 -12.5 -25.5 -16.5s-20.167 -6 -31.5 -6c-12 0 -22.833 2 -32.5 6
s-18.167 9.5 -25.5 16.5s-13.166 15.333 -17.499 25s-6.5 20.167 -6.5 31.5z" />
    <glyph glyph-name="quotedbl" unicode="&#x22;" horiz-adv-x="405" 
d="M167 726l0.000976562 -144l-12 -78c-2.66699 -16 -7.5 -28.333 -14.5 -37s-18.167 -13 -33.5 -13c-13.333 0 -23.833 4.33301 -31.5 13s-12.834 21 -15.501 37l-13 78v144h120zM358.001 726l0.000976562 -144l-12 -78c-2.66699 -16 -7.5 -28.333 -14.5 -37
s-18.167 -13 -33.5 -13c-13.333 0 -23.833 4.33301 -31.5 13s-12.834 21 -15.501 37l-13 78v144h120z" />
    <glyph glyph-name="numbersign" unicode="#" horiz-adv-x="580" 
d="M421 201l-37 -201h-64c-6.66699 0 -12.667 1.5 -18 4.5s-9.83301 7 -13.5 12s-6.33398 10.833 -8.00098 17.5s-1.5 14 0.5 22l27 145h-94l-26 -152c-3.33301 -17.333 -10.833 -29.833 -22.5 -37.5s-24.834 -11.5 -39.501 -11.5h-62l37 201h-51
c-14 0 -24 4.16699 -30 12.5c-5.33301 8.33301 -6.66602 22.5 -3.99902 42.5l6 43h92l24 129h-104l11 56c2.66699 14 8.5 24.5 17.5 31.5s23.5 10.5 43.5 10.5h46l28 154c2.66699 14 9.5 25.167 20.5 33.5c10.333 8.33301 22.833 12.5 37.5 12.5h64l-38 -200h94l37 200h61
c14.667 0 26.334 -4.5 35.001 -13.5s11.667 -20.167 9 -33.5l-28 -153h98l-10 -58c-2.66699 -14 -8.5 -24.167 -17.5 -30.5c-8.33301 -6.33301 -22.5 -9.5 -42.5 -9.5h-42l-24 -129h64c14 0 23.833 -4.16699 29.5 -12.5s7.16699 -22.5 4.5 -42.5l-7 -43h-104zM228 299h93
l23 129h-93z" />
    <glyph glyph-name="dollar" unicode="$" horiz-adv-x="580" 
d="M225 -4c-19.333 2.66699 -38.3301 6.83105 -56.9971 12.498s-36.334 12.334 -53.001 20.001s-32.5 16.5 -47.5 26.5s-28.5 21 -40.5 33l43 62c4 5.33301 9 9.66602 15 12.999s12.333 5 19 5c8 0 16 -2.33301 24 -7s17.167 -10.167 27.5 -16.5s22 -12.833 35 -19.5
c13 -6 27.833 -11 44.5 -15l19 207c-16 4 -32 8.83301 -48 14.5s-31.333 12.167 -46 19.5s-28.167 16 -40.5 26s-23.166 21.667 -32.499 35s-16.666 29 -21.999 47s-8 38.667 -8 62c0 26 5.16699 51.333 15.5 76s25.5 46.667 45.5 66s44.333 35.166 73 47.499
s62 19.5 100 21.5l5 60c0.666992 8.66699 4.5 16.334 11.5 23.001s15.833 10 26.5 10h50l-8 -98c36 -6.66699 66.667 -17.167 92 -31.5s47.333 -30.166 66 -47.499l-34 -50c-4.66699 -8 -9.66699 -13.667 -15 -17s-11.666 -5 -18.999 -5c-5.33301 0 -11.333 1.33301 -18 4
s-14.334 6 -23.001 10s-18 8.33301 -28 13s-20.667 8.33398 -32 11.001l-17 -194c24 -7.33301 47.667 -15.5 71 -24.5s44.666 -20.5 63.999 -34.5s34.666 -31.667 45.999 -53s17 -47.333 17 -78s-5.33301 -60 -16 -88s-26 -52.5 -46 -73.5s-44.667 -38.167 -74 -51.5
s-63 -21.333 -101 -24l-6 -68c-0.666992 -8.66699 -4.33398 -16.5 -11.001 -23.5s-15.334 -10.5 -26.001 -10.5h-50zM416.003 207.997c0 11.333 -2 21.332 -6 29.999s-9.66699 16.334 -17 23.001s-15.833 12.5 -25.5 17.5s-20.167 9.5 -31.5 13.5l-16 -185
c32 4.66699 56 15.5 72 32.5s24 39.833 24 68.5zM186.003 533.996c0 -11.333 2.00098 -21.333 6.00098 -30s9.5 -16.5 16.5 -23.5s15.333 -13.167 25 -18.5s20.5 -10.666 32.5 -15.999l14 170c-17.333 -2.66699 -31.833 -6.33398 -43.5 -11.001s-21.334 -10.667 -29.001 -18
s-13.167 -15.5 -16.5 -24.5s-5 -18.5 -5 -28.5z" />
    <glyph glyph-name="percent" unicode="%" horiz-adv-x="827" 
d="M378 550c0 -26.667 -4.66699 -51 -14 -73s-22 -41 -38 -57s-34.333 -28.333 -55 -37s-42.334 -13 -65.001 -13c-24.667 0 -47.167 4.33301 -67.5 13s-38.166 21 -53.499 37s-27.333 35 -36 57s-13 46.333 -13 73c0 28 4.33301 53.333 13 76s20.667 41.834 36 57.501
s33.333 27.834 54 36.501s43 13 67 13c24.667 0 47.5 -4.33301 68.5 -13s39.167 -20.834 54.5 -36.501s27.333 -34.834 36 -57.501s13 -48 13 -76zM272 550c0 18 -1.66895 33.167 -5.00195 45.5s-8 22.166 -14 29.499s-13 12.5 -21 15.5s-16.667 4.5 -26 4.5
s-17.666 -1.5 -24.999 -4.5s-13.833 -8.16699 -19.5 -15.5s-10 -17.166 -13 -29.499s-4.5 -27.5 -4.5 -45.5c0 -17.333 1.5 -32 4.5 -44s7.33301 -21.5 13 -28.5s12.334 -12 20.001 -15c7 -3 15.167 -4.5 24.5 -4.5s18 1.5 26 4.5s15 8 21 15s10.667 16.5 14 28.5
s5 26.667 5 44zM611.998 704c4.66699 5.33301 10.333 10.333 17 15c6 4.66699 15 7 27 7h101l-543 -706c-4.66699 -5.33301 -10.167 -10 -16.5 -14s-14.5 -6 -24.5 -6h-103zM789.997 170c0 -26.667 -4.66602 -51 -13.999 -73s-21.833 -41 -37.5 -57
s-33.834 -28.167 -54.501 -36.5c-20 -8.33301 -41.333 -12.5 -64 -12.5c-24.667 0 -47.5 4.16699 -68.5 12.5s-39 20.5 -54 36.5s-26.667 35 -35 57s-12.5 46.333 -12.5 73c0 28 4.16699 53.333 12.5 76s20 42 35 58s32.833 28.167 53.5 36.5s43.667 12.5 69 12.5
c24.667 0 47.5 -4.16699 68.5 -12.5s39 -20.5 54 -36.5s26.667 -35.333 35 -58s12.5 -48 12.5 -76zM683.998 170c0 18 -1.66895 33.168 -5.00195 45.501s-7.83301 22.166 -13.5 29.499s-12.5 12.666 -20.5 15.999c-7.33301 3.33301 -15.666 5 -24.999 5s-18 -1.66699 -26 -5
s-14.667 -8.66602 -20 -15.999s-9.66602 -17 -12.999 -29s-5 -27.333 -5 -46c0 -17.333 1.66699 -31.833 5 -43.5s7.66602 -21 12.999 -28s12 -12.167 20 -15.5s16.667 -5 26 -5s17.833 1.66699 25.5 5s14.334 8.5 20.001 15.5s10.167 16.333 13.5 28s5 26.167 5 43.5z" />
    <glyph glyph-name="ampersand" unicode="&#x26;" horiz-adv-x="728" 
d="M337 734c30.667 0 57.999 -4.66797 81.999 -14.001s44.333 -21.666 61 -36.999s29.834 -32.833 39.501 -52.5s15.167 -40.167 16.5 -61.5l-88 -18c-16 -3.33301 -27.667 3.33398 -35 20.001c-6.66699 17.333 -15.834 31.5 -27.501 42.5s-27.834 16.5 -48.501 16.5
c-12.667 0 -24 -2.16699 -34 -6.5s-18.333 -10.333 -25 -18s-11.834 -16.5 -15.501 -26.5s-5.5 -21 -5.5 -33c0 -9.33301 0.833008 -18.333 2.5 -27s4.66699 -17.334 9 -26.001s10 -17.667 17 -27s15.5 -19.333 25.5 -30l187 -196c10.667 20 18.834 41.5 24.501 64.5
c5.66699 22.333 9.5 45.5 11.5 69.5c1.33301 8.66699 4.33301 15.5 9 20.5s11 7.5 19 7.5h87c0 -46 -6.5 -89.5 -19.5 -130.5s-30.833 -78.5 -53.5 -112.5l152 -159h-136c-6.66699 0 -12.667 0.333008 -18 1s-10.333 2 -15 4s-9.33398 4.66699 -14.001 8
s-9 7.66602 -13 12.999l-42 42c-32 -24 -67.167 -42.667 -105.5 -56s-79.5 -20 -123.5 -20c-28 0 -55.833 5 -83.5 15s-52.167 24 -73.5 42s-38.333 40 -51 66s-19 55 -19 87c0 22.667 3.33301 43.834 10 63.501s16.334 38 29.001 55s27.834 32.5 45.501 46.5
c17 14 36.167 26.333 57.5 37c-16.667 24.667 -28.667 48.667 -36 72c-7.33301 24 -11 47.333 -11 70c0 25.333 4.66699 49.333 14 72s22.833 42.667 40.5 60s39.334 31 65.001 41s55.167 15 88.5 15zM285.999 99.999c26 0 50 3.66699 72 11c21.333 7.33301 41.333 18 60 32
l-180 188c-22.667 -16.667 -39 -35 -49 -55s-15 -41 -15 -63c0 -17.333 2.83301 -32.833 8.5 -46.5s13.5 -25.5 23.5 -35.5s21.833 -17.667 35.5 -23s28.5 -8 44.5 -8z" />
    <glyph glyph-name="quotesingle" unicode="'" horiz-adv-x="214" 
d="M167 726l0.000976562 -144l-12 -78c-2.66699 -16 -7.5 -28.333 -14.5 -37s-18.167 -13 -33.5 -13c-13.333 0 -23.833 4.33301 -31.5 13s-12.834 21 -15.501 37l-13 78v144h120z" />
    <glyph glyph-name="parenleft" unicode="(" horiz-adv-x="277" 
d="M152 314c0 -68 8.00098 -134.998 24.001 -200.998s38.667 -127.667 68 -185c4 -7.33301 6.33301 -13.833 7 -19.5s0.166992 -10.667 -1.5 -15s-4 -8 -7 -11s-6.5 -5.83301 -10.5 -8.5l-62 -36c-24.667 38 -45.5 76.167 -62.5 114.5s-31.167 77.166 -42.5 116.499
s-19.5 79.333 -24.5 120s-7.5 82.334 -7.5 125.001c0 42 2.5 83.167 7.5 123.5s13.167 80.166 24.5 119.499s25.666 78.333 42.999 117s38 76.667 62 114l62 -36c4 -2.66699 7.5 -5.33398 10.5 -8.00098s5.33301 -6.16699 7 -10.5s2.16699 -9.33301 1.5 -15
s-3 -12.167 -7 -19.5c-29.333 -57.333 -52 -118.833 -68 -184.5s-24 -132.5 -24 -200.5z" />
    <glyph glyph-name="parenright" unicode=")" horiz-adv-x="277" 
d="M125 314c0 68 -7.83398 134.834 -23.501 200.501s-38.167 127.167 -67.5 184.5c-4 7.33301 -6.33301 13.833 -7 19.5s-0.333984 10.667 0.999023 15s3.66602 8 6.99902 11c3.33301 2.33301 7 4.83301 11 7.5l61 36c24 -37.333 44.833 -75.333 62.5 -114
s31.834 -77.667 42.501 -117s18.667 -79.333 24 -120s8 -81.667 8 -123c0 -42.667 -2.66699 -84.334 -8 -125.001s-13.333 -80.667 -24 -120s-24.667 -78.166 -42 -116.499s-38.333 -76.5 -63 -114.5l-61 36c-4 2.66699 -7.66699 5.5 -11 8.5s-5.66602 6.66699 -6.99902 11
s-1.66602 9.16602 -0.999023 14.499s3 12 7 20c29.333 57.333 51.833 119 67.5 185s23.5 133 23.5 201z" />
    <glyph glyph-name="asterisk" unicode="*" horiz-adv-x="425" 
d="M180 414v87.998c0 6.66699 0.333008 13.334 1 20.001s2 12.667 4 18c-4 -4 -8.5 -8 -13.5 -12s-10.5 -7.33301 -16.5 -10l-76 -45l-33 55l77 44c6 4 12 7.16699 18 9.5c6 1.66699 12.333 3.16699 19 4.5c-6.66699 1.33301 -13 3.33301 -19 6s-12 6 -18 10l-77 45l32 54
l77 -45c6 -4 11.667 -7.83301 17 -11.5s10 -7.83398 14 -12.501c-4 12 -6 24.667 -6 38v90h65v-90c0 -6.66699 -0.5 -13.334 -1.5 -20.001s-2.16699 -12.667 -3.5 -18c4 4.66699 8.5 8.83398 13.5 12.501s10.5 7.5 16.5 11.5l76 44l32 -54l-76 -44
c-6 -4 -12.167 -7.33301 -18.5 -10s-12.5 -4.66699 -18.5 -6c12 -2 24.333 -6.66699 37 -14l76 -46l-32 -54l-76 46c-12.667 6.66699 -23 14.334 -31 23.001c4 -11.333 6 -23.666 6 -36.999v-90h-65z" />
    <glyph glyph-name="plus" unicode="+" horiz-adv-x="580" 
d="M346 588v-202h190v-100h-190v-203h-112v203h-190v100h190v202h112z" />
    <glyph glyph-name="comma" unicode="," horiz-adv-x="236" 
d="M39 82c0 10 1.8291 19.1641 5.49609 27.4971s8.83398 15.833 15.501 22.5s14.834 11.667 24.501 15c9 3.33301 19.5 5 31.5 5c13.333 0 25.333 -2.33301 36 -7s19.334 -11 26.001 -19s11.667 -17.333 15 -28s5 -22 5 -34c0 -16 -2.66699 -33.333 -8 -52s-13 -37 -23 -55
s-22.167 -35.833 -36.5 -53.5c-15 -17 -31.833 -32.833 -50.5 -47.5l-24 21c-4 2.66699 -6.66699 5.5 -8 8.5s-2 6.83301 -2 11.5c0 2.66699 1.16699 5.83398 3.5 9.50098c3 3.66699 5.83301 6.83398 8.5 9.50098c4 4 8.5 9 13.5 15s10 12.667 15 20s9.83301 15.333 14.5 24
s8.33398 17.667 11.001 27c-10.667 0 -20.667 2.33301 -30 7s-17 10.334 -23 17.001s-10.833 15 -14.5 25s-5.5 20.333 -5.5 31z" />
    <glyph glyph-name="hyphen" unicode="-" horiz-adv-x="373" 
d="M54 360h264v-114h-264v114z" />
    <glyph glyph-name="hyphen" unicode="&#x2010;" horiz-adv-x="373" 
d="M54 360h264v-114h-264v114z" />
    <glyph glyph-name="hyphen" unicode="&#xad;" horiz-adv-x="373" 
d="M54 360h264v-114h-264v114z" />
    <glyph glyph-name="period" unicode="." horiz-adv-x="238" 
d="M38 72c0 10.667 2 21 6 31s9.66699 18.667 17 26s16 13 26 17s20.667 6 32 6s22 -2 32 -6s18.667 -9.66699 26 -17s13 -15.833 17 -25.5c4 -10.333 6 -20.833 6 -31.5c0 -11.333 -2 -21.833 -6 -31.5s-9.66699 -18 -17 -25s-16 -12.5 -26 -16.5s-20.667 -6 -32 -6
c-12 0 -22.833 2 -32.5 6s-18.167 9.5 -25.5 16.5s-13 15.333 -17 25s-6 20.167 -6 31.5z" />
    <glyph glyph-name="slash" unicode="/" horiz-adv-x="472" 
d="M158 2c-6.66699 -16.667 -16.667 -29.168 -30 -37.501s-27.333 -12.5 -42 -12.5h-58l288 746c5.33301 14.667 14.333 26.334 27 35.001s27 13 43 13h58z" />
    <glyph glyph-name="zero" unicode="0" horiz-adv-x="580" 
d="M558 363c0 -63.333 -7 -118.333 -21 -165s-33 -85.334 -57 -116.001s-52.333 -53.334 -85 -68.001s-68 -22 -106 -22s-73.333 7.33301 -106 22s-60.834 37.334 -84.501 68.001s-42.334 69.334 -56.001 116.001s-20.5 101.667 -20.5 165s6.83301 118.333 20.5 165
s32.334 85.167 56.001 115.5s51.834 53 84.501 68s68 22.5 106 22.5s73.333 -7.5 106 -22.5s61 -37.667 85 -68s43 -68.833 57 -115.5s21 -101.667 21 -165zM415 363c0 51.333 -3.5 93.666 -10.5 126.999s-16.5 59.666 -28.5 78.999s-25.5 32.833 -40.5 40.5
s-30.5 11.5 -46.5 11.5s-31.5 -3.83301 -46.5 -11.5s-28.167 -21.167 -39.5 -40.5s-20.5 -45.666 -27.5 -78.999s-10.5 -75.666 -10.5 -126.999c0 -52 3.5 -94.5 10.5 -127.5s16.167 -59.167 27.5 -78.5s24.5 -33 39.5 -41s30.5 -12 46.5 -12s31.5 4 46.5 12
s28.5 21.667 40.5 41s21.5 45.5 28.5 78.5s10.5 75.5 10.5 127.5z" />
    <glyph glyph-name="one" unicode="1" horiz-adv-x="580" 
d="M114 102l144 -0.00195312v396c0 17.333 0.666992 35.333 2 54l-95 -78c-6.66699 -5.33301 -13.167 -8.66602 -19.5 -9.99902s-12.333 -1.33301 -18 0s-10.667 3.33301 -15 6s-7.83301 5.33398 -10.5 8.00098l-43 59l223 189h114v-624h125v-102h-407v102z" />
    <glyph glyph-name="two" unicode="2" horiz-adv-x="580" 
d="M298 734c34.667 0 65.9971 -5.17285 93.9971 -15.5059s52 -24.666 72 -42.999s35.333 -40.166 46 -65.499s16 -53.666 16 -84.999c0 -26.667 -3.66699 -51.334 -11 -74.001s-17.666 -44.167 -30.999 -64.5s-28.666 -40.166 -45.999 -59.499s-35.666 -39 -54.999 -59
l-154 -158c17.333 4.66699 34.166 8.5 50.499 11.5s31.833 4.5 46.5 4.5h164c14.667 0 26.334 -4 35.001 -12s13 -19 13 -33v-81h-504v45c0 8.66699 2 18 6 28s10 19.333 18 28l216 215c18.667 18.667 34.834 36.334 48.501 53.001s25.167 33.167 34.5 49.5
s16.333 32.833 21 49.5c4.66699 16 7 33.333 7 52c0 32 -8.33301 56.667 -25 74c-16 17.333 -39.333 26 -70 26c-13.333 0 -25.666 -2 -36.999 -6s-21.333 -9.33301 -30 -16s-16.334 -14.5 -23.001 -23.5s-11.334 -18.833 -14.001 -29.5
c-6 -16.667 -14.167 -27.667 -24.5 -33s-24.833 -6.66602 -43.5 -3.99902l-72 13c5.33301 35.333 15.333 66.333 30 93s33 48.834 55 66.501s47.167 31 75.5 40s58.833 13.5 91.5 13.5z" />
    <glyph glyph-name="three" unicode="3" horiz-adv-x="580" 
d="M301 734c34.667 0 65.832 -5.00293 93.499 -15.0029s50.834 -23.5 69.501 -40.5s33.167 -36.833 43.5 -59.5s15.5 -47 15.5 -73c0 -22.667 -2.5 -42.834 -7.5 -60.501s-12.167 -33 -21.5 -46s-21 -24 -35 -33s-30 -16.5 -48 -22.5c83.333 -28 125 -83.333 125 -166
c0 -37.333 -6.66699 -70 -20 -98s-31.666 -51.667 -54.999 -71s-50.166 -33.666 -80.499 -42.999s-62.166 -14 -95.499 -14c-35.333 0 -66.5 4 -93.5 12s-50.667 20 -71 36s-37.833 36 -52.5 60s-27.667 52.333 -39 85l61 25c16 6.66699 31 8.5 45 5.5
c14 -2.33301 23.667 -9.5 29 -21.5c6.66699 -12.667 13.834 -24.5 21.501 -35.5s16.167 -20.333 25.5 -28s19.833 -13.667 31.5 -18s25.5 -6.5 41.5 -6.5c19.333 0 36.166 3.16699 50.499 9.5s26.166 14.666 35.499 24.999s16.5 21.833 21.5 34.5s7.5 25.334 7.5 38.001
c0 16.667 -1.5 31.667 -4.5 45s-9.83301 24.833 -20.5 34.5s-26.667 17 -48 22s-50 7.5 -86 7.5v98c30.667 0 55.5 2.33301 74.5 7s34 11.667 45 21s18.5 20.333 22.5 33s6 26.334 6 41.001c0 32 -8.16699 56.333 -24.5 73c-15.667 16.667 -38.834 25 -69.501 25
c-13.333 0 -25.666 -2 -36.999 -6s-21.333 -9.33301 -30 -16s-16.334 -14.5 -23.001 -23.5s-11.334 -18.833 -14.001 -29.5c-6.66699 -16.667 -15 -27.667 -25 -33s-24.333 -6.66602 -43 -3.99902l-72 13c5.33301 35.333 15.333 66.333 30 93s33 48.834 55 66.501
s47 31 75 40s58.333 13.5 91 13.5z" />
    <glyph glyph-name="four" unicode="4" horiz-adv-x="580" 
d="M472 277h84v-78c0 -7.33301 -2.33301 -13.666 -7 -18.999s-11.667 -8 -21 -8h-56v-172h-120v172h-300c-8.66699 0 -16.5 2.66699 -23.5 8s-11.167 12.666 -12.5 21.999l-15 68l340 456h131v-449zM352 493c0 11.333 0.333008 23.333 1 36s1.66699 26 3 40l-209 -292h205
v216z" />
    <glyph glyph-name="five" unicode="5" horiz-adv-x="580" 
d="M503 668c0 -9.33301 -1.49805 -18 -4.49805 -26s-7.66699 -15 -14 -21s-14.666 -10.667 -24.999 -14s-22.833 -5 -37.5 -5h-187l-24 -136c14.667 2.66699 29.167 4.66699 43.5 6s27.833 2 40.5 2c38 0 71.667 -5.66699 101 -17s53.833 -27 73.5 -47
s34.5 -43.667 44.5 -71s15 -56.333 15 -87c0 -38.667 -6.83301 -74 -20.5 -106s-32.5 -59.333 -56.5 -82s-52.833 -40.334 -86.5 -53.001c-33 -12.667 -69.5 -19 -109.5 -19c-22.667 0 -44.667 2.33301 -66 7s-41 11.167 -59 19.5s-35 17.833 -51 28.5c-16 10 -30 21 -42 33
l42 58c9.33301 12 21.333 18.333 36 19c9.33301 0 18.166 -2.66699 26.499 -8s18 -11.166 29 -17.499s23.833 -12.166 38.5 -17.499s32.667 -8 54 -8s40 3.5 56 10.5s29.333 16.667 40 29s18.5 27.166 23.5 44.499s7.5 36 7.5 56c0 37.333 -10.833 66.333 -32.5 87
s-52.834 31 -93.501 31c-32.667 0 -66.334 -6.66699 -101.001 -20l-86 24l61 358h364v-58z" />
    <glyph glyph-name="six" unicode="6" horiz-adv-x="580" 
d="M271 465c-8.66699 -9.33301 -16.335 -18.332 -23.002 -26.999c12.667 5.33301 26.5 9.66602 41.5 12.999s31.167 5 48.5 5c26.667 0 52.834 -4.5 78.501 -13.5s48.5 -22.5 68.5 -40.5s36.167 -40.5 48.5 -67.5s18.5 -59.167 18.5 -96.5c0 -33.333 -6.33301 -65 -19 -95
s-30.334 -56.167 -53.001 -78.5s-50 -40 -82 -53s-67.333 -19.5 -106 -19.5c-40 0 -75.667 6.33301 -107 19s-58 30.334 -80 53.001s-38.833 49.667 -50.5 81s-17.5 66 -17.5 104c0 34.667 6.83301 70.167 20.5 106.5s34.834 73.166 63.501 110.499l169 228
c6.66699 8.66699 16.334 16.167 29.001 22.5s27.667 9.5 45 9.5h122zM169.999 229.001c0 -18.667 2.33301 -35.8301 7 -51.4971s12 -29 22 -40s22.5 -19.5 37.5 -25.5s32.5 -9 52.5 -9c18 0 34.667 3.16699 50 9.5s28.5 15.166 39.5 26.499s19.667 24.666 26 39.999
s9.5 31.666 9.5 48.999c0 20 -3 37.833 -9 53.5s-14.5 29 -25.5 40s-24.167 19.167 -39.5 24.5s-32.333 8 -51 8c-17.333 0 -33.5 -3 -48.5 -9s-27.667 -14.667 -38 -26s-18.333 -24.5 -24 -39.5s-8.5 -31.833 -8.5 -50.5z" />
    <glyph glyph-name="seven" unicode="7" horiz-adv-x="580" 
d="M548 726v-59.998c0 -17.333 -1.83301 -31.333 -5.5 -42c-3 -10.667 -6.5 -19.334 -10.5 -26.001l-264 -552c-6.66699 -12.667 -15.667 -23.5 -27 -32.5s-27 -13.5 -47 -13.5h-100l271 538c6.66699 12.667 13.5 24.167 20.5 34.5s14.833 20.166 23.5 29.499h-335
c-8 0 -15.167 3.33301 -21.5 10s-9.5 14 -9.5 22v92h505z" />
    <glyph glyph-name="eight" unicode="8" horiz-adv-x="580" 
d="M290 -8c-38 0 -72.668 5.00098 -104.001 15.001s-58.166 24.333 -80.499 43s-39.666 41.167 -51.999 67.5c-12.333 27 -18.5 56.5 -18.5 88.5c0 41.333 10 76.666 30 105.999s52 51.333 96 66c-34.667 14.667 -60.334 35.667 -77.001 63s-25 59.666 -25 96.999
c0 28 5.66699 53.833 17 77.5s27.166 44.334 47.499 62.001s44.833 31.5 73.5 41.5s59.667 15 93 15s64.333 -5 93 -15s53.167 -23.833 73.5 -41.5s36.166 -38.334 47.499 -62.001s17 -49.5 17 -77.5c0 -37.333 -8.5 -69.666 -25.5 -96.999s-42.5 -48.333 -76.5 -63
c44 -14.667 76 -36.667 96 -66s30 -64.666 30 -105.999c0 -32 -6.16699 -61.333 -18.5 -88s-29.666 -49.334 -51.999 -68.001s-49.166 -33 -80.499 -43s-66 -15 -104 -15zM289.999 98.001c18.667 0 35.1689 2.66699 49.502 8s26.166 13 35.499 23s16.333 21.667 21 35
s7 28 7 44c0 36 -9.16699 64 -27.5 84s-46.833 30 -85.5 30s-67.167 -10 -85.5 -30s-27.5 -48 -27.5 -84c0 -16 2.33301 -30.667 7 -44s11.667 -25 21 -35s21.166 -17.667 35.499 -23s30.833 -8 49.5 -8zM290.001 428.001c18.667 0 34.332 3 46.999 9s22.667 14 30 24
s12.333 21.333 15 34s4 26 4 40c0 12.667 -1.66699 24.834 -5 36.501s-9 22 -17 31s-18 16.167 -30 21.5s-26.667 8 -44 8s-32 -2.66699 -44 -8s-22 -12.5 -30 -21.5s-13.667 -19.333 -17 -31s-5 -23.834 -5 -36.501c0 -13.333 1.33301 -26.5 4 -39.5
s7.66699 -24.5 15 -34.5s17.333 -18 30 -24s28.334 -9 47.001 -9z" />
    <glyph glyph-name="nine" unicode="9" horiz-adv-x="580" 
d="M320 278c5.33301 6.66699 10.335 13.0029 15.002 19.0029l14 18c-16 -9.33301 -33.5 -16.5 -52.5 -21.5s-38.833 -7.5 -59.5 -7.5c-24 0 -48 4.33301 -72 13s-45.5 21.667 -64.5 39s-34.333 39.166 -46 65.499s-17.5 57.166 -17.5 92.499c0 32 6 62.5 18 91.5
s29 54.333 51 76s48.5 38.834 79.5 51.501s65.167 19 102.5 19c38 0 72.167 -6 102.5 -18s56 -28.667 77 -50s37.167 -46.666 48.5 -75.999s17 -62 17 -98c0 -22.667 -1.83301 -44.334 -5.5 -65.001s-9 -40.334 -16 -59.001s-15.333 -36.834 -25 -54.501
c-9.66699 -17 -20.834 -34.167 -33.501 -51.5l-161 -231c-6.66699 -8.66699 -16.334 -16 -29.001 -22s-27 -9 -43 -9h-127zM402.002 506.003c0 18.667 -3.00098 35.3359 -9.00098 50.0029s-14 27 -24 37s-22 17.5 -36 22.5s-29.667 7.5 -47 7.5
s-32.666 -2.83301 -45.999 -8.5s-25 -13.834 -35 -24.501s-17.5 -23.167 -22.5 -37.5s-7.5 -29.833 -7.5 -46.5c0 -38.667 9.5 -68 28.5 -88s46.5 -30 82.5 -30c18.667 0 35.167 3 49.5 9s26.333 14.167 36 24.5s17.167 22.666 22.5 36.999s8 30.166 8 47.499z" />
    <glyph glyph-name="colon" unicode=":" horiz-adv-x="261" 
d="M50 72c0 10.667 2 21 6 31s9.66699 18.667 17 26s16 13 26 17s20.667 6 32 6s22 -2 32 -6s18.667 -9.66699 26 -17s13 -15.833 17 -25.5c4 -10.333 6 -20.833 6 -31.5c0 -11.333 -2 -21.833 -6 -31.5s-9.66699 -18 -17 -25s-16 -12.5 -26 -16.5s-20.667 -6 -32 -6
c-12 0 -22.833 2 -32.5 6s-18.167 9.5 -25.5 16.5s-13 15.333 -17 25s-6 20.167 -6 31.5zM50 422c0 10.667 2 21 6 31s9.66699 18.667 17 26s16 13 26 17s20.667 6 32 6s22 -2 32 -6s18.667 -9.66699 26 -17s13 -15.833 17 -25.5c4 -10.333 6 -20.833 6 -31.5
c0 -11.333 -2 -21.833 -6 -31.5s-9.66699 -18 -17 -25s-16 -12.5 -26 -16.5s-20.667 -6 -32 -6c-12 0 -22.833 2 -32.5 6s-18.167 9.5 -25.5 16.5s-13 15.333 -17 25s-6 20.167 -6 31.5z" />
    <glyph glyph-name="semicolon" unicode=";" horiz-adv-x="274" 
d="M59 82c0 10 1.8291 19.1641 5.49609 27.4971s8.83398 15.833 15.501 22.5s14.834 11.667 24.501 15c9 3.33301 19.5 5 31.5 5c13.333 0 25.333 -2.33301 36 -7s19.334 -11 26.001 -19s11.667 -17.333 15 -28s5 -22 5 -34c0 -16 -2.66699 -33.333 -8 -52s-13 -37 -23 -55
s-22.167 -35.833 -36.5 -53.5c-15 -17 -31.833 -32.833 -50.5 -47.5l-24 21c-4 2.66699 -6.66699 5.5 -8 8.5s-2 6.83301 -2 11.5c0 2.66699 1.16699 5.83398 3.5 9.50098c3 3.66699 5.83301 6.83398 8.5 9.50098c4 4 8.5 9 13.5 15s10 12.667 15 20s9.83301 15.333 14.5 24
s8.33398 17.667 11.001 27c-10.667 0 -20.667 2.33301 -30 7s-17 10.334 -23 17.001s-10.833 15 -14.5 25s-5.5 20.333 -5.5 31zM54.9961 421.997c0 10.667 2 21 6 31s9.66699 18.667 17 26s16 13 26 17s20.667 6 32 6s22 -2 32 -6s18.667 -9.66699 26 -17
s13 -15.833 17 -25.5c4 -10.333 6 -20.833 6 -31.5c0 -11.333 -2 -21.833 -6 -31.5s-9.66699 -18 -17 -25s-16 -12.5 -26 -16.5s-20.667 -6 -32 -6c-12 0 -22.833 2 -32.5 6s-18.167 9.5 -25.5 16.5s-13 15.333 -17 25s-6 20.167 -6 31.5z" />
    <glyph glyph-name="less" unicode="&#x3c;" horiz-adv-x="580" 
d="M74 364l399.998 210v-98c0 -6.66699 -1.66699 -13 -5 -19s-9.66602 -11 -18.999 -15l-163 -86c-8 -4 -16.5 -7.5 -25.5 -10.5s-18.833 -5.83301 -29.5 -8.5c10 -2.66699 19.5 -5.5 28.5 -8.5s17.833 -6.5 26.5 -10.5l163 -86c8.66699 -4 14.834 -9 18.501 -15
s5.5 -12.333 5.5 -19v-98l-400 210v54z" />
    <glyph glyph-name="equal" unicode="=" horiz-adv-x="580" 
d="M66 296h448v-100h-448v100zM66 476h448v-100h-448v100z" />
    <glyph glyph-name="greater" unicode="&#x3e;" horiz-adv-x="580" 
d="M106 100l0.00195312 98c0 7.33301 1.66699 13.833 5 19.5s9.66602 10.5 18.999 14.5l163 86c8 4 16.5 7.5 25.5 10.5s18.833 5.83301 29.5 8.5c-20 4 -38.333 10.333 -55 19l-163 86c-8.66699 4 -14.834 9 -18.501 15s-5.5 12.333 -5.5 19v98l400 -210v-54z" />
    <glyph glyph-name="question" unicode="?" horiz-adv-x="465" 
d="M33 660c12 10.667 24.8369 20.335 38.5039 29.002s28.667 16.334 45 23.001s34 12 53 16s39.167 6 60.5 6c30 0 57.167 -4.16699 81.5 -12.5s45.166 -20 62.499 -35s30.666 -33.167 39.999 -54.5s14 -45.333 14 -72c0 -25.333 -3.5 -47.333 -10.5 -66
s-16 -34.667 -27 -48s-22.833 -25 -35.5 -35s-25 -19.333 -37 -28s-22.167 -17.334 -30.5 -26.001s-13.5 -18.334 -15.5 -29.001l-12 -71h-95l-9 81c-2.66699 16 -0.833984 30 5.49902 42s14.833 22.833 25.5 32.5s22.5 19 35.5 28s25.333 18.833 37 29.5
s21.334 22.667 29.001 36s11.5 28.666 11.5 45.999c0 22 -7.5 39.5 -22.5 52.5c-14.333 13 -34.166 19.5 -59.499 19.5c-18.667 0 -34.334 -2 -47.001 -6s-23.334 -8.33301 -32.001 -13s-16.334 -9 -23.001 -13s-12.667 -6 -18 -6c-12 0 -21.333 5.33301 -28 16z
M126.004 72.001c0 10.667 2.16699 21 6.5 31s10.166 18.667 17.499 26s15.833 13 25.5 17s20.5 6 32.5 6c11.333 0 22 -2 32 -6s18.667 -9.66699 26 -17s13.166 -15.833 17.499 -25.5c4.33301 -10.333 6.5 -20.833 6.5 -31.5c0 -11.333 -2.16699 -21.833 -6.5 -31.5
s-10.166 -18 -17.499 -25s-16 -12.5 -26 -16.5s-20.667 -6 -32 -6c-12 0 -22.833 2 -32.5 6s-18.167 9.5 -25.5 16.5s-13.166 15.333 -17.499 25s-6.5 20.167 -6.5 31.5z" />
    <glyph glyph-name="at" unicode="@" horiz-adv-x="846" 
d="M596 92c-22 0 -42 4.99414 -60 14.9941s-31 26.333 -39 49c-20 -22.667 -40.833 -39 -62.5 -49s-45.167 -15 -70.5 -15c-21.333 0 -40 3.66699 -56 11s-29.333 17.666 -40 30.999s-18.667 29 -24 47s-8 37.333 -8 58c0 18.667 2.5 37.834 7.5 57.501s12.333 38.5 22 56.5
s21.834 35 36.501 51s31.834 30 51.501 42s42 21.333 67 28s52.5 10 82.5 10c13.333 0 25.833 -0.333008 37.5 -1s22.5 -2 32.5 -4s19.333 -4.66699 28 -8s17.667 -6.66602 27 -9.99902l-49 -187c-4.66699 -20 -7 -36.333 -7 -49s1.66699 -22.667 5 -30
s8.5 -12.5 15.5 -15.5c6.33301 -3 14.166 -4.5 23.499 -4.5c13.333 0 25.833 4.33301 37.5 13s21.834 20.834 30.501 36.501s15.5 34 20.5 55c5 20.333 7.5 43.166 7.5 68.499c0 42.667 -6.5 80.334 -19.5 113.001s-31.333 59.667 -55 81s-51.834 37.666 -84.501 48.999
s-69 17 -109 17c-29.333 0 -57 -3.66699 -83 -11s-50.167 -17.666 -72.5 -30.999s-42.5 -29.666 -60.5 -48.999s-33.333 -40.666 -46 -63.999s-22.5 -48.333 -29.5 -75s-10.5 -54.667 -10.5 -84c0 -54 8.33301 -101.5 25 -142.5s39.667 -75.167 69 -102.5
s63.833 -48 103.5 -62c39 -14 81.833 -21 128.5 -21c26 0 50.167 1.5 72.5 4.5s42.833 6.83301 61.5 11.5s35.334 10 50.001 16c14.667 5.33301 27.334 11.333 38.001 18c9.33301 5.33301 17.666 7 24.999 5s12.666 -7.33301 15.999 -16l19 -49
c-34.667 -22.667 -75.167 -41 -121.5 -55c-47 -14 -100.5 -21 -160.5 -21c-61.333 0 -118 9.5 -170 28.5s-96.833 46.333 -134.5 82s-67.167 79.167 -88.5 130.5s-32 109 -32 173c0 35.333 4.66699 69.833 14 103.5s22.5 65.334 39.5 95.001s37.5 57 61.5 82
s51 46.333 81 64s62.167 31.5 96.5 41.5s70.5 15 108.5 15c32 0 63.167 -3.5 93.5 -10.5s59 -17.5 86 -31.5s52 -31 75 -51s42.667 -43 59 -69s29.166 -54.333 38.499 -85s14 -64 14 -100s-5.33301 -69.333 -16 -100s-25.5 -57.667 -44.5 -81s-41.667 -41.666 -68 -54.999
s-54.833 -20 -85.5 -20zM392 178.994c8 0 16.0029 1.1709 24.0029 3.50391s15.667 6.66602 23 12.999s13.833 14.666 19.5 24.999s10.5 23.166 14.5 38.499l36 139c-4.66699 0.666992 -9.33398 1.16699 -14.001 1.5s-9.66699 0.5 -15 0.5
c-18.667 0 -36.334 -4.33301 -53.001 -13s-31.334 -20.167 -44.001 -34.5s-22.667 -31 -30 -50s-11 -39.167 -11 -60.5c0 -20.667 4.33301 -36.334 13 -47.001s21 -16 37 -16z" />
    <glyph glyph-name="A" unicode="A" horiz-adv-x="702" 
d="M711 0h-117.002c-13.333 0 -24 3 -32 9s-14 14 -18 24l-48 139h-290l-48 -139c-3.33301 -8 -9.16602 -15.5 -17.499 -22.5s-19.166 -10.5 -32.499 -10.5h-117l283 726h154zM242.998 276l216 0.000976562l-79 222c-4.66699 12 -9.5 25.667 -14.5 41s-10.167 32 -15.5 50
c-4.66699 -18.667 -9.5 -35.834 -14.5 -51.501s-9.5 -29.5 -13.5 -41.5z" />
    <glyph glyph-name="B" unicode="B" horiz-adv-x="663" 
d="M76 0l0.000976562 725.998h258c48.667 0 90.167 -4.66699 124.5 -14s62.5 -22.333 84.5 -39s38 -37 48 -61s15 -51 15 -81c0 -16.667 -2.5 -32.667 -7.5 -48s-12.667 -29.666 -23 -42.999s-23.5 -25.666 -39.5 -36.999s-34.667 -20.666 -56 -27.999
c96 -22 144 -75 144 -159c0 -30.667 -5.83301 -59.334 -17.5 -86.001s-28.834 -49.667 -51.501 -69s-50.5 -34.333 -83.5 -45s-71.167 -16 -114.5 -16h-281zM226.001 313.998v-199h128c24 0 43.833 2.83301 59.5 8.5s28.167 13.5 37.5 23.5s15.833 21.167 19.5 33.5
s5.5 25.166 5.5 38.499c0 14.667 -2.16699 27.834 -6.5 39.501s-11.333 21.5 -21 29.5s-22.167 14.333 -37.5 19s-34.333 7 -57 7h-128zM226.001 415.998l98.001 -0.00195312c21.333 0 40.166 1.66699 56.499 5s30 8.83301 41 16.5s19.5 17.667 25.5 30s9 27.5 9 45.5
s-2.5 33.333 -7.5 46s-12.5 22.834 -22.5 30.501s-22.667 13.334 -38 17.001c-14.667 3.66699 -32.667 5.5 -54 5.5h-108v-196z" />
    <glyph glyph-name="C" unicode="C" horiz-adv-x="659" 
d="M570 178c8 0 14.9971 -2.66504 20.9971 -7.99805l59 -64c-29.333 -37.333 -65.666 -65.666 -108.999 -84.999s-95 -29 -155 -29c-54.667 0 -103.667 9.33301 -147 28s-80 44.334 -110 77.001s-53.333 71.667 -70 117s-25 95 -25 149c0 36 4 70.167 12 102.5
s19.5 62.166 34.5 89.499s33 52 54 74s44.833 40.833 71.5 56.5s55.834 27.667 87.501 36c31 8.33301 64.5 12.5 100.5 12.5c26.667 0 52 -2.33301 76 -7s46.333 -11.334 67 -20.001s39.667 -18.834 57 -30.501s33.333 -24.5 48 -38.5l-51 -69
c-2.66699 -4 -6.5 -7.83301 -11.5 -11.5s-11.5 -5.5 -19.5 -5.5s-16 3 -24 9s-18 12.333 -30 19s-26.833 13 -44.5 19s-40.167 9 -67.5 9c-30.667 0 -58.667 -5.66699 -84 -17s-47 -27.333 -65 -48s-32 -46.167 -42 -76.5s-15 -64.833 -15 -103.5
s5.33301 -73.334 16 -104.001s25.5 -56.5 44.5 -77.5s41 -36.833 66 -47.5s52.167 -16 81.5 -16c17.333 0 32.666 0.666992 45.999 2s26 4 38 8s23.333 9.33301 34 16s21.334 14.667 32.001 24c4 2.66699 7.83301 5 11.5 7s7.83398 3 12.501 3z" />
    <glyph glyph-name="D" unicode="D" horiz-adv-x="761" 
d="M726 363c0 -53.333 -8.83301 -102.168 -26.5 -146.501s-42.667 -82.5 -75 -114.5s-71.5 -57 -117.5 -75s-96.667 -27 -152 -27h-279v726h279c56 0 106.833 -9 152.5 -27s84.667 -43.167 117 -75.5s57.333 -70.666 75 -114.999s26.5 -92.833 26.5 -145.5zM572 362.998
c0 38 -5 72.167 -15 102.5s-24.333 56 -43 77s-41.334 37.167 -68.001 48.5s-57 17 -91 17h-128v-490h128c34 0 64.333 5.5 91 16.5s49.334 27 68.001 48s33 46.667 43 77s15 64.833 15 103.5z" />
    <glyph glyph-name="E" unicode="E" horiz-adv-x="574" 
d="M538 726v-118h-311v-186h242v-114h-242v-190h311v-118h-462v726h462z" />
    <glyph glyph-name="F" unicode="F" horiz-adv-x="566" 
d="M538 726v-118h-311v-200h261v-118h-261v-290h-151v726h462z" />
    <glyph glyph-name="G" unicode="G" horiz-adv-x="724" 
d="M678 70c-37.333 -26.667 -76.8359 -46.3359 -118.503 -59.0029s-85.834 -19 -132.501 -19c-60 0 -114.167 9.33301 -162.5 28s-89.5 44.334 -123.5 77.001s-60.333 71.667 -79 117s-28 95 -28 149c0 54.667 8.83301 104.5 26.5 149.5s43 83.833 76 116.5
s72.833 58.334 119.5 77.001s99.334 28 158.001 28c30 0 57.833 -2.5 83.5 -7.5s49.5 -11.667 71.5 -20s42.333 -18.5 61 -30.5s35.334 -24.667 50.001 -38l-44 -68c-6.66699 -10.667 -15.334 -17 -26.001 -19s-22 0.666992 -34 8s-23.833 14 -35.5 20s-24 11 -37 15
s-27.167 7.33301 -42.5 10s-33 4 -53 4c-33.333 0 -63.666 -6 -90.999 -18s-50.666 -28.667 -69.999 -50s-34.166 -47 -44.499 -77s-15.5 -63.333 -15.5 -100c0 -40 5.66699 -75.833 17 -107.5s27.333 -58.167 48 -79.5s45.5 -37.666 74.5 -48.999s60.833 -17 95.5 -17
c24 0 45.5 2.33301 64.5 7s37.5 11 55.5 19v122h-82c-9.33301 0 -16.833 2.66699 -22.5 8s-8.5 12 -8.5 20v84h249v-300v0z" />
    <glyph glyph-name="H" unicode="H" horiz-adv-x="773" 
d="M698 0h-152v312h-319v-312h-151v726h151v-308h319v308h152v-726z" />
    <glyph glyph-name="I" unicode="I" horiz-adv-x="303" 
d="M227 0h-151v726h151v-726z" />
    <glyph glyph-name="J" unicode="J" horiz-adv-x="432" 
d="M363 260c0 -40.667 -4.99707 -77.498 -14.9971 -110.498s-25.167 -61.167 -45.5 -84.5s-45.5 -41.333 -75.5 -54s-65.333 -19 -106 -19c-18.667 0 -36.834 1 -54.501 3s-36.5 5.66699 -56.5 11l8 88c1.33301 8 4.66602 14.333 9.99902 19s13 7 23 7
c5.33301 0 12.5 -1 21.5 -3s20.167 -3 33.5 -3c18 0 33.5 2.5 46.5 7.5s24.167 13.167 33.5 24.5s16.166 26.166 20.499 44.499s6.5 40.166 6.5 65.499v470h150v-466z" />
    <glyph glyph-name="K" unicode="K" horiz-adv-x="695" 
d="M226 426l30 0.00195312c24.667 0 42.334 7.66699 53.001 23l183 245c8.66699 12 18.167 20.333 28.5 25s23.166 7 38.499 7h130l-231 -298c-14.667 -20 -30 -34 -46 -42c12 -4.66699 22.5 -10.667 31.5 -18c9 -8 17.833 -18 26.5 -30l237 -338h-133
c-8.66699 0 -16.167 0.666992 -22.5 2s-11.833 3.16602 -16.5 5.49902s-8.66699 5.33301 -12 9s-6.33301 7.5 -9 11.5l-187 262c-6.66699 9.33301 -14.167 15.666 -22.5 18.999s-20.5 5 -36.5 5h-42v-314h-150v726h150v-300z" />
    <glyph glyph-name="L" unicode="L" horiz-adv-x="522" 
d="M226 122h280v-122h-430v726h150v-604z" />
    <glyph glyph-name="M" unicode="M" horiz-adv-x="951" 
d="M443 315c6 -12 11.668 -24.165 17.001 -36.498s10.666 -24.833 15.999 -37.5c5.33301 13.333 10.666 26.333 15.999 39c5.33301 12 11.333 24 18 36l202 386c2.66699 5.33301 5.66699 9.66602 9 12.999s7 5.66602 11 6.99902s8.33301 2.33301 13 3s10.334 1 17.001 1h114
v-726h-132v446c0 9.33301 0.166992 19.166 0.5 29.499c-0.333008 10.333 0.166992 21.166 1.5 32.499l-206 -394c-11.333 -21.333 -29 -32 -53 -32h-21c-12 0 -22.333 2.66699 -31 8s-15.667 13.333 -21 24l-209 395c1.33301 -11.333 2.16602 -22.333 2.49902 -33
s0.5 -20.667 0.5 -30v-446h-132v726h114c6.66699 0 12.334 -0.333008 17.001 -1s9 -1.66699 13 -3s7.66699 -3.66602 11 -6.99902s6.33301 -7.66602 9 -12.999l203 -387v0z" />
    <glyph glyph-name="N" unicode="N" horiz-adv-x="773" 
d="M155 726c6.66699 0 12.167 -0.334961 16.5 -1.00195s8.33301 -2 12 -4s7.16699 -4.33301 10.5 -7s7 -6.66699 11 -12l364 -462c-1.33301 12.667 -2.33301 24.834 -3 36.501s-1 22.834 -1 33.501v416h133v-726h-78c-12 0 -22 2 -30 6s-15.667 10.667 -23 20l-361 459
c1.33301 -12 2 -23.5 2 -34.5v-30.5v-420h-132v726h79v0z" />
    <glyph glyph-name="O" unicode="O" horiz-adv-x="811" 
d="M777 363c0 -53.333 -8.83203 -102.499 -26.499 -147.499s-42.834 -84.167 -75.501 -117.5s-71.834 -59.333 -117.501 -78c-45 -18.667 -95.5 -28 -151.5 -28s-106.833 9.33301 -152.5 28s-84.834 44.667 -117.501 78s-57.834 72.666 -75.501 117.999
s-26.5 94.333 -26.5 147c0 53.333 8.83301 102.5 26.5 147.5s42.834 84 75.501 117s71.834 59 117.501 78s96.5 28.5 152.5 28.5s106.667 -9.5 152 -28.5s84.333 -45 117 -78s57.834 -72.167 75.501 -117.5s26.5 -94.333 26.5 -147zM624.001 363.001
c0 38 -5.00098 72 -15.001 102s-24.5 55.667 -43.5 77s-42 37.666 -69 48.999s-57.167 17 -90.5 17c-34 0 -64.5 -5.66699 -91.5 -17s-50 -27.666 -69 -48.999s-33.5 -47 -43.5 -77s-15 -64 -15 -102c0 -38.667 5 -73 15 -103s24.5 -55.5 43.5 -76.5
s41.833 -37.167 68.5 -48.5s57.334 -17 92.001 -17c34 0 64.333 5.66699 91 17s49.5 27.5 68.5 48.5s33.5 46.5 43.5 76.5s15 64.333 15 103z" />
    <glyph glyph-name="P" unicode="P" horiz-adv-x="627" 
d="M226 250l0.00292969 -249.999h-150v726h245c49.333 0 92.166 -6 128.499 -18s66.166 -28.333 89.499 -49s40.666 -45.334 51.999 -74.001s17 -59.667 17 -93c0 -36 -6 -68.833 -18 -98.5s-29.667 -55.167 -53 -76.5s-53 -37.833 -89 -49.5s-78.333 -17.5 -127 -17.5h-95z
M226.003 364.001h95c46.667 0 81 11.333 103 34s33 54 33 94c0 18 -2.83301 34.333 -8.5 49s-14 27.167 -25 37.5s-25 18.5 -42 24.5s-37.167 9 -60.5 9h-95v-248z" />
    <glyph glyph-name="Q" unicode="Q" horiz-adv-x="811" 
d="M778 363c0 -32 -3.33203 -62.5 -9.99902 -91.5s-16.334 -56.5 -29.001 -82.5s-28 -49.667 -46 -71s-38.333 -40.333 -61 -57l184 -200h-123c-18 0 -34 2.33301 -48 7s-27 13.334 -39 26.001l-99 110c-32 -8 -65.667 -12 -101 -12c-56 0 -106.667 9.33301 -152 28
s-84.333 44.667 -117 78s-58 72.666 -76 117.999s-27 94.333 -27 147c0 53.333 9 102.5 27 147.5s43.333 84 76 117s71.667 59 117 78s96 28.5 152 28.5s106.667 -9.5 152 -28.5s84.333 -45 117 -78s58 -72.167 76 -117.5s27 -94.333 27 -147zM624.001 363
c0 38 -5 72 -15 102s-24.333 55.667 -43 77s-41.5 37.666 -68.5 48.999s-57.5 17 -91.5 17s-64.5 -5.66699 -91.5 -17s-49.833 -27.666 -68.5 -48.999s-33 -47 -43 -77s-15 -64 -15 -102c0 -38.667 5 -73 15 -103s24.333 -55.5 43 -76.5s41.5 -37.167 68.5 -48.5
s57.5 -17 91.5 -17s64.5 5.66699 91.5 17s49.833 27.5 68.5 48.5s33 46.5 43 76.5s15 64.333 15 103z" />
    <glyph glyph-name="R" unicode="R" horiz-adv-x="649" 
d="M226 276l-0.00195312 -276h-150v726h228c50.667 0 94 -5.33301 130 -16s65.5 -25.334 88.5 -44.001s39.833 -41 50.5 -67s16 -54.333 16 -85c0 -24 -3.5 -46.667 -10.5 -68s-16.833 -41 -29.5 -59s-28.667 -33.667 -48 -47s-41 -24.333 -65 -33
c9.33301 -5.33301 18.333 -11.833 27 -19.5s16.334 -16.5 23.001 -26.5l168 -261h-135c-25.333 0 -43.666 9.66699 -54.999 29l-138 223c-5.33301 8.66699 -11.5 14.834 -18.5 18.501s-17.167 5.5 -30.5 5.5h-51zM225.998 382h77.002c24 0 44.833 3 62.5 9
s32.167 14.5 43.5 25.5s19.666 23.833 24.999 38.5s8 30.667 8 48c0 34.667 -11.333 61.5 -34 80.5s-57.334 28.5 -104.001 28.5h-78v-230z" />
    <glyph glyph-name="S" unicode="S" horiz-adv-x="551" 
d="M469 586c-4.66699 -8 -9.33887 -13.667 -14.0059 -17s-11 -5 -19 -5c-7.33301 0 -15.166 2.66699 -23.499 8s-18.166 11 -29.499 17s-24.333 11.667 -39 17s-32 8 -52 8c-34.667 0 -60.667 -7.83301 -78 -23.5c-17.333 -15 -26 -35.167 -26 -60.5
c0 -16 4.66699 -29.333 14 -40s21.833 -19.834 37.5 -27.501s33.334 -14.5 53.001 -20.5s39.834 -12.5 60.501 -19.5s40.834 -15.5 60.501 -25.5s37.334 -22.333 53.001 -37s28.167 -32.5 37.5 -53.5c9.33301 -20.333 14 -45.833 14 -76.5
c0 -33.333 -5.66699 -64.333 -17 -93s-28 -53.834 -50 -75.501s-48.833 -38.667 -80.5 -51c-32.333 -12.333 -68.5 -18.5 -108.5 -18.5c-22.667 0 -45.334 2.33301 -68.001 7s-44.667 11.167 -66 19.5s-41.333 18.333 -60 30s-35 24.834 -49 39.501l44 70
c4 5.33301 8.83301 9.83301 14.5 13.5s11.834 5.5 18.501 5.5c9.33301 0 19 -3.33301 29 -10s21.5 -14 34.5 -22s28 -15.333 45 -22s37.5 -10 61.5 -10c34.667 0 61.667 8 81 24c19.333 15.333 29 39 29 71c0 18.667 -4.66699 33.667 -14 45s-21.666 20.833 -36.999 28.5
s-32.833 14.334 -52.5 20.001s-39.834 11.834 -60.501 18.501s-40.834 14.667 -60.501 24s-37.167 21.666 -52.5 36.999s-27.666 34.333 -36.999 57s-14 50.667 -14 84c0 26.667 5.33301 52.667 16 78s26.334 48 47.001 68s46 36 76 48s64.333 18 103 18
c44 0 84.667 -6.83301 122 -20.5s68.666 -32.5 93.999 -56.5z" />
    <glyph glyph-name="T" unicode="T" horiz-adv-x="604" 
d="M590 726v-122h-212v-604h-151v604h-212v122h575z" />
    <glyph glyph-name="U" unicode="U" horiz-adv-x="745" 
d="M373 120c24 0 45.834 4 65.501 12s36.167 19.667 49.5 35s23.333 33.666 30 54.999s10 45.333 10 72v432h150v-432c0 -44 -7 -84.5 -21 -121.5s-34.167 -68.833 -60.5 -95.5s-58.333 -47.5 -96 -62.5s-80.167 -22.5 -127.5 -22.5s-90 7.5 -128 22.5s-70 35.833 -96 62.5
s-46.167 58.5 -60.5 95.5s-21.5 77.5 -21.5 121.5v432h150v-432c0 -26.667 3.5 -50.667 10.5 -72s17.167 -39.666 30.5 -54.999s29.666 -27 48.999 -35s41.333 -12 66 -12z" />
    <glyph glyph-name="V" unicode="V" horiz-adv-x="702" 
d="M-9 726h121.002c13.333 0 24 -3.16699 32 -9.5c8 -7 14 -15.167 18 -24.5l157 -418c6 -16 12 -33 18 -51s11 -37.333 15 -58c4 20 8.83301 39.333 14.5 58c5.66699 18 11.5 35 17.5 51l156 418c3.33301 8 9.16602 15.667 17.499 23s19.166 11 32.499 11h121l-292 -726
h-136z" />
    <glyph glyph-name="W" unicode="W" horiz-adv-x="1057" 
d="M6 726l125.992 0.00195312c13.333 0 24.333 -3 33 -9s14.334 -14.333 17.001 -25l112 -408c2.66699 -12 5.33398 -24.5 8.00098 -37.5s5.33398 -26.833 8.00098 -41.5c2.66699 14.667 5.83398 28.5 9.50098 41.5s7.5 25.5 11.5 37.5l131 408
c2.66699 8 8.33398 15.667 17.001 23s19.667 11 33 11h44c13.333 0 24 -3.16699 32 -9.5c8 -7 14 -15.167 18 -24.5l130 -408c4 -10.667 7.66699 -22.334 11 -35.001s6.33301 -26.334 9 -41.001c2.66699 14 5.33398 27.5 8.00098 40.5s5.33398 24.833 8.00098 35.5l112 408
c2.66699 8.66699 8.5 16.5 17.5 23.5s19.833 10.5 32.5 10.5h118l-225 -726h-135l-149 474c-2.66699 6.66699 -5.16699 14 -7.5 22s-4.16602 16.667 -5.49902 26c-2.66699 -8.66699 -5 -17.167 -7 -25.5s-4.33301 -15.833 -7 -22.5l-150 -474h-136z" />
    <glyph glyph-name="X" unicode="X" horiz-adv-x="679" 
d="M236 373l-229 353.001h150c10 0 17.333 -1.33301 22 -4s9 -7.33398 13 -14.001l155 -256c1.33301 4 3.16602 8 5.49902 12s4.83301 8.33301 7.5 13l140 229c4 6.66699 8.33301 11.667 13 15s10.667 5 18 5h143l-230 -346l236 -380h-150c-10 0 -18 2.5 -24 7.5
c-5.33301 5 -10 10.833 -14 17.5l-158 267c-1.33301 -4 -2.83301 -7.66699 -4.5 -11c-2.33301 -3.33301 -4.16602 -6.33301 -5.49902 -9l-148 -247c-4 -6.66699 -9 -12.5 -15 -17.5s-13.667 -7.5 -23 -7.5h-140z" />
    <glyph glyph-name="Y" unicode="Y" horiz-adv-x="658" 
d="M404 278v-278.002h-150v278l-264 448h132c13.333 0 24 -3.16699 32 -9.5c8 -7 14 -15.167 18 -24.5l120 -228c8 -15.333 15.167 -29.666 21.5 -42.999s11.833 -26.666 16.5 -39.999c9.33301 25.333 22 53 38 83l118 228c4 8 10 15.667 18 23s18 11 30 11h134z" />
    <glyph glyph-name="Z" unicode="Z" horiz-adv-x="607" 
d="M582 726v-55.999c0 -8 -1.16699 -15.667 -3.5 -23s-5.83301 -14.333 -10.5 -21l-358 -508h362v-118h-554v58c0 6.66699 1 13.667 3 21s5.33301 13.666 10 18.999l359 510h-347v118h539z" />
    <glyph glyph-name="bracketleft" unicode="[" horiz-adv-x="316" 
d="M79 -158v934h214v-54c0 -9.33301 -3.5 -17.333 -10.5 -24s-15.833 -10 -26.5 -10h-62v-758h62c10.667 0 19.5 -3.33301 26.5 -10s10.5 -14.667 10.5 -24v-54h-214z" />
    <glyph glyph-name="backslash" unicode="\" horiz-adv-x="472" 
d="M28 746l58.002 0.000976562c16 0 30.333 -4.33301 43 -13s21.667 -20.334 27 -35.001l288 -746h-58c-14.667 0 -28.834 4.16699 -42.501 12.5s-23.834 20.833 -30.501 37.5z" />
    <glyph glyph-name="bracketright" unicode="]" horiz-adv-x="316" 
d="M24 776h214v-934h-214v54c0 9.33301 3.33301 17.333 10 24s15.334 10 26.001 10h62v758h-62c-10.667 0 -19.334 3.33301 -26.001 10s-10 14.667 -10 24v54z" />
    <glyph glyph-name="asciicircum" unicode="^" horiz-adv-x="580" 
d="M538 338l-102 0.00195312c-8 0 -14.667 2 -20 6s-10 9.33301 -14 16l-86 182c-5.33301 11.333 -10.333 22.166 -15 32.499s-8.66699 20.166 -12 29.499c-2.66699 -10 -6.16699 -20.167 -10.5 -30.5s-8.83301 -20.833 -13.5 -31.5l-81 -182
c-2.66699 -6.66699 -7 -12 -13 -16s-13.333 -6 -22 -6h-107l201 388h89z" />
    <glyph glyph-name="underscore" unicode="_" horiz-adv-x="469" 
d="M432 -61v-88h-394v88h394z" />
    <glyph glyph-name="grave" unicode="`" 
d="M158 734c14.667 0 25.5 -2.33398 32.5 -7.00098s13.167 -11.667 18.5 -21l69 -122h-78c-10.667 0 -19 1.33301 -25 4s-12.333 7.33398 -19 14.001l-127 132h129z" />
    <glyph glyph-name="a" unicode="a" horiz-adv-x="512" 
d="M398 0c-13.333 0 -23.3311 1.83398 -29.998 5.50098c-6.66699 3 -12 10.5 -16 22.5l-12 33c-13.333 -11.333 -26 -21.333 -38 -30s-24.5 -15.834 -37.5 -21.501s-27 -10 -42 -13s-31.167 -4.5 -48.5 -4.5c-22.667 0 -43.334 3 -62.001 9s-34.834 15 -48.501 27
s-24.167 26.667 -31.5 44s-11 37.666 -11 60.999c0 18.667 4.83301 37.5 14.5 56.5s26.167 36.167 49.5 51.5s54.666 28.333 93.999 39s88.333 16.667 147 18v26c0 32 -6.66699 55.667 -20 71s-33 23 -59 23c-18.667 0 -34.5 -2.33301 -47.5 -7s-24.167 -9.5 -33.5 -14.5
s-18.166 -9.66699 -26.499 -14c-9 -4.33301 -18.833 -6.5 -29.5 -6.5c-9.33301 0 -17.333 2.33301 -24 7s-12 10.334 -16 17.001l-24 44c30.667 27.333 64.167 47.833 100.5 61.5s75.833 20.5 118.5 20.5c30.667 0 58.167 -5 82.5 -15s44.833 -24 61.5 -42
s29.5 -39.333 38.5 -64s13.5 -51.667 13.5 -81v-324h-63zM216.002 85.001c22.667 0 42.666 4.16602 59.999 12.499s34 20.833 50 37.5v80c-33.333 -1.33301 -61.166 -4.16602 -83.499 -8.49902s-40 -9.83301 -53 -16.5s-22.333 -14.167 -28 -22.5s-8.5 -17.5 -8.5 -27.5
c0 -20 5.5 -34.167 16.5 -42.5s26.5 -12.5 46.5 -12.5z" />
    <glyph glyph-name="b" unicode="b" horiz-adv-x="571" 
d="M57 0v745.999h138v-290c20 20 42.333 36.333 67 49c25.333 12.667 53.333 19 84 19c29.333 0 56 -6 80 -18s44.333 -29 61 -51s29.667 -48.667 39 -80s14 -66.333 14 -105c0 -41.333 -5.33301 -79 -16 -113s-25.667 -63.333 -45 -88s-42.333 -43.667 -69 -57
s-56.667 -20 -90 -20c-16 0 -30.333 1.66699 -43 5s-24.334 7.83301 -35.001 13.5s-20.5 12.334 -29.5 20.001s-17.5 16.5 -25.5 26.5l-5 -31c-2.66699 -9.33301 -6.66699 -16 -12 -20s-12.666 -6 -21.999 -6h-91zM298 417.999c-21.333 0 -40.001 -4.83301 -56.001 -14.5
s-31.667 -23.5 -47 -41.5v-226c13.333 -14.667 27.5 -25 42.5 -31s30.5 -9 46.5 -9c17.333 0 33 3 47 9s26 15.667 36 29s17.667 31 23 53s8 48.333 8 79c0 27.333 -2.33301 50.5 -7 69.5s-11.167 34.667 -19.5 47s-18.666 21.333 -30.999 27s-26.5 8.5 -42.5 8.5z" />
    <glyph glyph-name="c" unicode="c" horiz-adv-x="484" 
d="M431 400c-4 -5.33301 -7.99707 -9.33203 -11.9971 -11.999s-9.66699 -4 -17 -4c-6.66699 0 -13 2 -19 6s-13 8.16699 -21 12.5s-17.667 8.33301 -29 12s-25 5.5 -41 5.5c-20.667 0 -38.5 -3.66699 -53.5 -11s-27.5 -18 -37.5 -32s-17.5 -31 -22.5 -51
s-7.5 -42.667 -7.5 -68c0 -52.667 10.5 -92.834 31.5 -120.501s50.167 -41.5 87.5 -41.5c12.667 0 23.5 1 32.5 3s16.833 4.66699 23.5 8s12.667 7 18 11s10.166 7.66699 14.499 11s8.66602 6 12.999 8s9.5 3 15.5 3c10.667 0 19 -4 25 -12l40 -50
c-14.667 -17.333 -30.334 -31.333 -47.001 -42s-34 -19.334 -52 -26.001s-36.167 -11.334 -54.5 -14.001s-36.5 -4 -54.5 -4c-32 0 -62 6 -90 18s-52.667 29.333 -74 52s-38.333 50.5 -51 83.5c-12.667 32.333 -19 69.833 -19 112.5c0 37.333 5.5 72.333 16.5 105
s27.167 60.834 48.5 84.501s47.833 42.334 79.5 56.001s68.167 20.5 109.5 20.5c39.333 0 73.833 -6.33301 103.5 -19s56.167 -31 79.5 -55z" />
    <glyph glyph-name="d" unicode="d" horiz-adv-x="571" 
d="M428 0c-17.333 0 -28.6641 7.99902 -33.9971 23.999l-11 45c-20.667 -22.667 -44 -41.167 -70 -55.5s-57 -21.5 -93 -21.5c-28 0 -53.333 6 -76 18s-42.5 29.167 -59.5 51.5s-30.167 49.833 -39.5 82.5s-14 70 -14 112c0 38.667 5.16699 74.334 15.5 107.001
s25.166 61 44.499 85s42.666 43 69.999 57s57.666 21 90.999 21c28 0 51.667 -4.33301 71 -13s37 -20 53 -34v267h138v-746h-86zM268.002 99.999c24 0 44.332 4.66699 60.999 14s32.334 23 47.001 41v227c-13.333 14.667 -27.666 25 -42.999 31s-31.333 9 -48 9
s-31.834 -3.16699 -45.501 -9.5s-25.334 -16.333 -35.001 -30s-17.167 -30.834 -22.5 -51.501s-8 -45.667 -8 -75c0 -28.667 2 -53 6 -73s10.167 -36.167 18.5 -48.5s18.333 -21.166 30 -26.499s24.834 -8 39.501 -8z" />
    <glyph glyph-name="e" unicode="e" horiz-adv-x="536" 
d="M280 524c33.333 0 63.999 -5.33203 91.999 -15.999s52 -26 72 -46s35.667 -44.667 47 -74s17 -62.666 17 -99.999c0 -10.667 -0.666992 -19.167 -2 -25.5s-3 -11.5 -5 -15.5s-5 -6.83301 -9 -8.5s-9.33301 -2.5 -16 -2.5h-310c4 -48 17.667 -83.167 41 -105.5
s54 -33.5 92 -33.5c18.667 0 35 2.16699 49 6.5s26.167 9.33301 36.5 15s19.833 10.667 28.5 15s17 6.5 25 6.5c10.667 0 19.334 -4 26.001 -12l40 -50c-14.667 -17.333 -31 -31.333 -49 -42s-36.333 -19.334 -55 -26.001s-37.667 -11.334 -57 -14.001s-38.333 -4 -57 -4
c-36 0 -69.5 6 -100.5 18s-58 29.667 -81 53s-41.167 52 -54.5 86s-20 73.667 -20 119c0 34.667 5.66699 67.667 17 99s27.833 58.5 49.5 81.5s48 41.333 79 55s65.833 20.5 104.5 20.5zM282.999 426.001c-33.333 0 -59.167 -9.33203 -77.5 -27.999
s-30.5 -45.334 -36.5 -80.001h215c0 14.667 -2 28.5 -6 41.5s-10 24.5 -18 34.5s-18.5 17.833 -31.5 23.5s-28.167 8.5 -45.5 8.5z" />
    <glyph glyph-name="f" unicode="f" horiz-adv-x="362" 
d="M94 0l-0.00195312 415.999l-40 8c-10.667 2 -19 5.5 -25 10.5s-9 12.833 -9 23.5v54h74v34c0 29.333 4.66699 56 14 80s22.5 44.333 39.5 61s37.833 29.334 62.5 38.001c25.333 8.66699 53.333 13 84 13c12 0 23.333 -0.666992 34 -2s21.334 -3.33301 32.001 -6l-2 -68
c-0.666992 -10.667 -5.16699 -17.667 -13.5 -21s-17.5 -5 -27.5 -5c-14 0 -26.667 -1.33301 -38 -4s-20.666 -7.66699 -27.999 -15s-13 -17 -17 -29s-6 -27.333 -6 -46v-30h128v-96h-124v-416h-138z" />
    <glyph glyph-name="g" unicode="g" horiz-adv-x="531" 
d="M249 524c22 0 42.6621 -2.16406 61.9951 -6.49707c19.333 -5 37.333 -11.5 54 -19.5h151v-50c0 -8 -2.16699 -14.333 -6.5 -19c-3.66699 -4.66699 -10.834 -8.33398 -21.501 -11.001l-42 -8c5.33301 -16 8 -33.333 8 -52c0 -25.333 -5.33301 -48.333 -16 -69
s-25 -38.334 -43 -53.001s-39.667 -26 -65 -34s-52.333 -12 -81 -12c-9.33301 0 -18.166 0.333008 -26.499 1s-16.833 1.66699 -25.5 3c-14 -8 -21 -17.333 -21 -28c0 -9.33301 4.83301 -16.166 14.5 -20.499s22.334 -7.33301 38.001 -9s33.334 -2.83398 53.001 -3.50098
s39.667 -1.83398 60 -3.50098s40.5 -4.66699 60.5 -9s37.667 -11.166 53 -20.499s27.833 -21.833 37.5 -37.5s14.5 -35.834 14.5 -60.501c0 -22.667 -5.66699 -45 -17 -67s-27.833 -41.333 -49.5 -58s-48.167 -30.334 -79.5 -41.001s-67 -16 -107 -16
s-74.333 3.83301 -103 11.5s-52.667 17.667 -72 30s-33.666 26.833 -42.999 43.5s-14 33.667 -14 51c0 22.667 7 42 21 58s33 29 57 39c-13.333 7.33301 -23.666 17 -30.999 29s-11 27.333 -11 46c0 15.333 5.66699 31.5 17 48.5s28.333 30.833 51 41.5
c-26.667 14.667 -47.5 33.667 -62.5 57s-22.5 51 -22.5 83c0 25.333 5.16699 48.333 15.5 69s24.833 38.334 43.5 53.001s40.834 25.667 66.501 33s53.167 11 82.5 11zM379.995 -20.9971c0 9.33301 -3.00098 16.834 -9.00098 22.501s-13.667 10.167 -23 13.5
s-20.5 5.66602 -33.5 6.99902s-26.833 2.33301 -41.5 3s-29.834 1.33398 -45.501 2.00098s-31.167 2 -46.5 4c-12 -6.66699 -21.5 -14.834 -28.5 -24.501s-10.5 -20.5 -10.5 -32.5c0 -8 1.83301 -15.667 5.5 -23s10 -13.333 19 -18s20.833 -8.5 35.5 -11.5s33 -4.5 55 -4.5
c22.667 0 41.834 1.5 57.501 4.5s28.334 7.16699 38.001 12.5s16.667 11.833 21 19.5s6.5 16.167 6.5 25.5zM248.994 277.004c28 0 48.833 7.16699 62.5 21.5s20.5 32.833 20.5 55.5c0 24 -6.66699 42.667 -20 56s-34.333 20 -63 20c-28 0 -48.833 -6.66699 -62.5 -20
s-20.5 -32 -20.5 -56c0 -22.667 6.83301 -41.167 20.5 -55.5s34.5 -21.5 62.5 -21.5z" />
    <glyph glyph-name="h" unicode="h" horiz-adv-x="567" 
d="M57 0v746.001h138v-282c19.333 17.333 40.5 31.666 63.5 42.999c22.333 11.333 49.5 17 81.5 17c28 0 53 -5 75 -15s40.333 -23.667 55 -41s25.667 -38 33 -62s11 -50 11 -78v-328h-137v328c0 28.667 -6.66699 50.834 -20 66.501s-33 23.5 -59 23.5
c-20 0 -38.333 -4.33301 -55 -13s-32.667 -20.334 -48 -35.001v-370h-138z" />
    <glyph glyph-name="i" unicode="i" horiz-adv-x="260" 
d="M199 516v-516h-138v516h138zM216 662c0 -12 -2.33301 -23 -7 -33s-11 -18.667 -19 -26s-17.333 -13.333 -28 -18s-22 -7 -34 -7c-11.333 0 -22 2.33301 -32 7s-18.833 10.667 -26.5 18s-13.834 16 -18.501 26s-7 21 -7 33s2.33301 23 7 33s10.834 18.833 18.501 26.5
s16.667 13.667 27 18s20.833 6.5 31.5 6.5c12 0 23.333 -2.16699 34 -6.5s20 -10.333 28 -18s14.333 -16.5 19 -26.5s7 -21 7 -33z" />
    <glyph glyph-name="j" unicode="j" horiz-adv-x="260" 
d="M199 516v-526.003c0 -23.333 -3 -45.166 -9 -65.499s-15.833 -38.166 -29.5 -53.499s-31.334 -27.666 -53.001 -36.999s-48.5 -14 -80.5 -14c-12 0 -23.167 1 -33.5 3s-21.166 4.33301 -32.499 7l5 73c0.666992 6.66699 3.16699 11.334 7.5 14.001s12.5 4 24.5 4
s22 1.16699 30 3.5s14.5 6.16602 19.5 11.499s8.5 12.333 10.5 21s3 19.667 3 33v526h138zM216 661.997c0 -12 -2.33301 -23 -7 -33s-11 -18.667 -19 -26s-17.333 -13.333 -28 -18s-22 -7 -34 -7c-11.333 0 -22 2.33301 -32 7s-18.833 10.667 -26.5 18
s-13.834 16 -18.501 26s-7 21 -7 33s2.33301 23 7 33s10.834 18.833 18.501 26.5s16.667 13.667 27 18s20.833 6.5 31.5 6.5c12 0 23.333 -2.16699 34 -6.5s20 -10.333 28 -18s14.333 -16.5 19 -26.5s7 -21 7 -33z" />
    <glyph glyph-name="k" unicode="k" horiz-adv-x="545" 
d="M195 746l0.00195312 -424h23c8.66699 0 15.5 1.33301 20.5 4s10.167 7.33398 15.5 14.001l114 152c5.33301 8 11.666 14 18.999 18s16.333 6 27 6h126l-148 -188c-12 -16 -25.333 -28.667 -40 -38c8 -5.33301 14.667 -11.333 20 -18s10.666 -14.667 15.999 -24l160 -248
h-124c-10.667 0 -20 1.66699 -28 5s-14.333 9.66602 -19 18.999l-116 190c-4.66699 8 -9.5 13 -14.5 15s-12.5 3 -22.5 3h-29v-232h-138v746h138z" />
    <glyph glyph-name="l" unicode="l" horiz-adv-x="254" 
d="M196 746v-746h-138v746h138z" />
    <glyph glyph-name="m" unicode="m" horiz-adv-x="843" 
d="M57 0l0.00390625 515.997h85c17.333 0 28.666 -8 33.999 -24l8 -34c9.33301 9.33301 18.666 18 27.999 26s19.666 15 30.999 21s23.333 10.667 36 14s26.334 5 41.001 5c32 0 58.333 -8.5 79 -25.5s36.334 -39.5 47.001 -67.5c8 16 18.167 30 30.5 42
s25.666 21.667 39.999 29s29.666 12.833 45.999 16.5c17 3.66699 33.5 5.5 49.5 5.5c29.333 0 55 -4.33301 77 -13s40.667 -21.5 56 -38.5s27 -37.667 35 -62s12 -51.833 12 -82.5v-328h-138v328c0 60 -26 90 -78 90c-12 0 -22.833 -2 -32.5 -6
s-18.334 -9.66699 -26.001 -17s-13.5 -16.666 -17.5 -27.999s-6 -24.333 -6 -39v-328h-138v328c0 32.667 -6.33301 55.834 -19 69.501s-31.667 20.5 -57 20.5c-16 0 -31 -3.66699 -45 -11s-27.333 -17.666 -40 -30.999v-376h-138z" />
    <glyph glyph-name="n" unicode="n" horiz-adv-x="567" 
d="M57 0l0.000976562 516h85c17.333 0 28.666 -8 33.999 -24l9 -36c10.667 10 21.5 19.167 32.5 27.5s22.833 15.5 35.5 21.5s26.167 10.667 40.5 14c13.667 3.33301 29.167 5 46.5 5c28 0 53 -5 75 -15s40.333 -23.667 55 -41s25.667 -38 33 -62s11 -50 11 -78v-328h-137
v328c0 28.667 -6.66699 50.834 -20 66.501s-33 23.5 -59 23.5c-20 0 -38.333 -4.33301 -55 -13s-32.667 -20.334 -48 -35.001v-370h-138z" />
    <glyph glyph-name="o" unicode="o" horiz-adv-x="577" 
d="M290 524c38.667 0 73.667 -6.33105 105 -18.998s58.333 -30.334 81 -53.001s40.334 -50.334 53.001 -83.001s19 -69.667 19 -111s-6.33301 -78.333 -19 -111s-30.334 -60.334 -53.001 -83.001s-49.667 -40.334 -81 -53.001s-66.333 -19 -105 -19s-74 6.33301 -106 19
s-59.333 30.334 -82 53.001s-40.334 50.5 -53.001 83.5c-12.667 32.333 -19 69.166 -19 110.499s6.33301 78.333 19 111s30.334 60.334 53.001 83.001s50 40.334 82 53.001s67.333 19 106 19zM290 96.002c39.333 0 68.5 13.667 87.5 41s28.5 67.666 28.5 120.999
s-9.66699 93.666 -29 120.999s-48.333 41 -87 41c-40 0 -69.667 -13.667 -89 -41s-29 -67.666 -29 -120.999s9.66699 -93.666 29 -120.999s49 -41 89 -41z" />
    <glyph glyph-name="p" unicode="p" horiz-adv-x="571" 
d="M57 -166l-0.000976562 682h85c17.333 0 28.666 -8 33.999 -24l11 -44c10.667 11.333 21.834 21.833 33.501 31.5s24.167 17.834 37.5 24.501s27.666 12 42.999 16s31.666 6 48.999 6c28 0 53.667 -6 77 -18s43.333 -29.333 60 -52s29.667 -50.334 39 -83.001
s14 -69.667 14 -111c0 -38.667 -5.33301 -74.5 -16 -107.5s-25.667 -61.5 -45 -85.5s-42.666 -42.833 -69.999 -56.5s-57.666 -20.5 -90.999 -20.5c-28 0 -51.667 4.33301 -71 13s-36.666 20 -51.999 34v-205h-138zM302.999 418c-24 0 -44.332 -4.83496 -60.999 -14.502
s-32.334 -23.5 -47.001 -41.5v-226c13.333 -14.667 27.5 -25 42.5 -31s31.167 -9 48.5 -9c16.667 0 31.834 3 45.501 9s25.5 15.833 35.5 29.5s17.667 31 23 52s8 46.167 8 75.5c0 28.667 -2.33301 52.834 -7 72.501s-11 35.834 -19 48.501s-17.833 21.667 -29.5 27
s-24.834 8 -39.501 8z" />
    <glyph glyph-name="q" unicode="q" horiz-adv-x="570" 
d="M514 516l0.00292969 -682.001h-138v227c-20 -20.667 -42.667 -37.334 -68 -50.001s-54.666 -19 -87.999 -19c-28 0 -53.333 6 -76 18s-42.5 29.167 -59.5 51.5s-30.167 49.833 -39.5 82.5s-14 70 -14 112c0 38.667 5.16699 74.334 15.5 107.001s25.166 61 44.499 85
s42.666 43 69.999 57s57.666 21 90.999 21c16 0 30.5 -1.5 43.5 -4.5s25 -7 36 -12s21 -11.167 30 -18.5c9.66699 -7.33301 18.5 -15.666 26.5 -24.999l6 26c5.33301 16 16.666 24 33.999 24h86zM268.003 99.999c24 0 44.332 4.66699 60.999 14s32.334 23 47.001 41v227
c-13.333 14.667 -27.666 25 -42.999 31s-31.333 9 -48 9s-31.834 -3.16699 -45.501 -9.5s-25.334 -16.333 -35.001 -30s-17.167 -30.834 -22.5 -51.501s-8 -45.667 -8 -75c0 -28.667 2 -53 6 -73s10.167 -36.167 18.5 -48.5s18.333 -21.166 30 -26.499s24.834 -8 39.501 -8z
" />
    <glyph glyph-name="r" unicode="r" horiz-adv-x="377" 
d="M57 0l-0.000976562 516.001h81c14 0 23.833 -2.66699 29.5 -8s9.5 -14 11.5 -26l7 -52c16 29.333 34.833 52.666 56.5 69.999s46.834 26 75.501 26c23.333 0 42.333 -5.66699 57 -17l-9 -102c-1.33301 -6.66699 -3.83301 -11.167 -7.5 -13.5s-8.5 -3.5 -14.5 -3.5
c-5.33301 0 -13 0.666992 -23 2s-19.333 2 -28 2c-25.333 0 -45.5 -7 -60.5 -21s-27.5 -33 -37.5 -57v-316h-138z" />
    <glyph glyph-name="s" unicode="s" horiz-adv-x="442" 
d="M378 410c-4 -5.33301 -8.00488 -9.33008 -12.0049 -11.9971s-9.33301 -4 -16 -4s-13.334 1.66699 -20.001 5s-14.334 6.83301 -23.001 10.5s-18.667 7.16699 -30 10.5s-24.333 5 -39 5c-22.667 0 -40 -4.5 -52 -13.5s-18 -21.167 -18 -36.5
c0 -10.667 3.33301 -19.5 10 -26.5s15.834 -13 27.501 -18s24.834 -9.66699 39.501 -14s29.834 -9.16602 45.501 -14.499s30.834 -11.666 45.501 -18.999s27.667 -16.166 39 -26.499s20.5 -23 27.5 -38s10.5 -32.833 10.5 -53.5c0 -25.333 -4.5 -48.5 -13.5 -69.5
s-22.5 -39.167 -40.5 -54.5s-40 -27.333 -66 -36s-56.333 -13 -91 -13c-17.333 0 -34.666 1.66699 -51.999 5s-34 7.83301 -50 13.5s-30.667 12.334 -44 20.001s-25.333 16.167 -36 25.5l32 51c4 6 8.66699 10.667 14 14s12.666 5 21.999 5c8 0 15.5 -2 22.5 -6
s14.833 -8.5 23.5 -13.5s18.834 -9.66699 30.501 -14s26.5 -6.5 44.5 -6.5c13.333 0 24.833 1.66699 34.5 5s17.5 7.5 23.5 12.5s10.333 10.667 13 17s4 13.166 4 20.499c0 11.333 -3.5 20.666 -10.5 27.999s-16.333 13.666 -28 18.999s-24.834 10 -39.501 14
s-29.834 8.66699 -45.501 14s-31 11.666 -46 18.999s-28.167 16.666 -39.5 27.999s-20.666 25.166 -27.999 41.499s-11 36.166 -11 59.499c0 21.333 4.33301 41.666 13 60.999s21.334 36.333 38.001 51s37.334 26.334 62.001 35.001s53.334 13 86.001 13
c36.667 0 70 -6 100 -18s54.667 -28 74 -48z" />
    <glyph glyph-name="t" unicode="t" horiz-adv-x="377" 
d="M235 -8c-23.333 0 -44.0059 3.33008 -62.0059 9.99707s-33.167 16.334 -45.5 29.001s-21.666 28 -27.999 46s-9.5 38.333 -9.5 61v278h-48c-7.33301 0 -13.666 2.33301 -18.999 7s-8 11.667 -8 21v54l83 16l28 133c4 15.333 14 23 30 23h72v-158h133v-96h-133v-268
c0 -14.667 3.33301 -26.167 10 -34.5s16.667 -12.5 30 -12.5c6.66699 0 12.334 0.833008 17.001 2.5s8.66699 3.33398 12 5.00098s6.33301 3.33398 9 5.00098s5.33398 2.5 8.00098 2.5c4 0 7.33301 -1 10 -3s5.33398 -5 8.00098 -9l42 -66
c-18.667 -14.667 -40.167 -26 -64.5 -34s-49.166 -12 -74.499 -12z" />
    <glyph glyph-name="u" unicode="u" horiz-adv-x="566" 
d="M190 516l0.00195312 -327.999c0 -28.667 6.66699 -50.834 20 -66.501s32.666 -23.5 57.999 -23.5c19.333 0 37.5 4.16699 54.5 12.5s33.5 19.833 49.5 34.5v371h138v-516h-86c-17.333 0 -28.666 8 -33.999 24l-8 36c-20.667 -20 -43.334 -36.333 -68.001 -49
c-25.333 -12.667 -54.666 -19 -87.999 -19c-28 0 -52.833 4.83301 -74.5 14.5s-39.834 23.167 -54.501 40.5s-25.834 38 -33.501 62s-11.5 50.333 -11.5 79v328h138z" />
    <glyph glyph-name="v" unicode="v" horiz-adv-x="533" 
d="M2 516h114.001c10 0 18.333 -2.33301 25 -7s11.334 -11 14.001 -19l87 -254c5.33301 -17.333 10.166 -34.333 14.499 -51s8.16602 -33.334 11.499 -50.001c4 16.667 8.16699 33.334 12.5 50.001s9.5 33.667 15.5 51l90 254c2.66699 7.33301 7.16699 13.5 13.5 18.5
c5.66699 5 13.167 7.5 22.5 7.5h110l-203 -516h-125z" />
    <glyph glyph-name="w" unicode="w" horiz-adv-x="809" 
d="M6 516l109.998 -0.000976562c10 0 18.5 -2.33301 25.5 -7s11.5 -11 13.5 -19l63 -254c4 -16 7.66699 -31.833 11 -47.5c3.33301 -16.333 6 -31.833 8 -46.5c4 14.667 8.33301 29.834 13 45.501c4 16.333 8.66699 32.5 14 48.5l76 256
c2.66699 6.66699 7.33398 12.334 14.001 17.001s14.334 7 23.001 7h61c9.33301 0 17.5 -2.33301 24.5 -7c6.33301 -4.66699 10.833 -10.334 13.5 -17.001l74 -256c4.66699 -16 9.16699 -31.833 13.5 -47.5s8.16602 -31.167 11.499 -46.5
c2.66699 14.667 5.5 29.834 8.5 45.501c3 16.333 6.83301 32.5 11.5 48.5l67 254c2.66699 7.33301 7.16699 13.5 13.5 18.5c5.66699 5 13.167 7.5 22.5 7.5h106l-162 -516h-112c-5.33301 0 -10.333 1.83301 -15 5.5s-8.33398 9.83398 -11.001 18.501l-84 279
c-3.33301 10.667 -6.16602 21.167 -8.49902 31.5s-4.83301 20.833 -7.5 31.5c-2 -10.667 -4.16699 -21.334 -6.5 -32.001s-5.16602 -21.334 -8.49902 -32.001l-85 -278c-4.66699 -16 -14.667 -24 -30 -24h-106z" />
    <glyph glyph-name="x" unicode="x" horiz-adv-x="532" 
d="M174 266l-168 250h133c10 0 17.333 -1.33301 22 -4s9 -7.33398 13 -14.001l100 -163c2 5.33301 4.33301 10.833 7 16.5c2 5.66699 5 11.834 9 18.501l78 126c8 13.333 18.333 20 31 20h127l-168 -244l174 -272h-132c-10 0 -18.167 2.5 -24.5 7.5
s-11.166 10.833 -14.499 17.5l-101 169c-2.66699 -12 -7.33398 -22 -14.001 -30l-86 -139c-4 -6.66699 -9 -12.5 -15 -17.5s-13.667 -7.5 -23 -7.5h-122z" />
    <glyph glyph-name="y" unicode="y" horiz-adv-x="532" 
d="M257 -138c-4 -9.33301 -9.16797 -16.333 -15.501 -21s-16.166 -7 -29.499 -7h-102l97 207l-207 475h121c10.667 0 19.167 -2.66699 25.5 -8s10.833 -11.333 13.5 -18l98 -246c6.66699 -20 12.667 -39.333 18 -58c2.66699 10 5.66699 19.833 9 29.5s7 19.167 11 28.5
l91 246c2.66699 7.33301 7.5 13.5 14.5 18.5s14.5 7.5 22.5 7.5h111z" />
    <glyph glyph-name="z" unicode="z" horiz-adv-x="462" 
d="M434 460c0 -9.33301 -1.66699 -18.667 -5 -28s-7.66602 -17 -12.999 -23l-232 -305h243v-104h-403v57c0 5.33301 1.66699 12.5 5 21.5s7.66602 17.167 12.999 24.5l234 309h-237v104h395v-56z" />
    <glyph glyph-name="braceleft" unicode="{" horiz-adv-x="308" 
d="M83 202c0 20 -4.33203 36.3301 -12.999 48.9971s-23.334 19 -44.001 19v78c20.667 0 35.334 6.33301 44.001 19s13 29 13 49c0 15.333 -1.16699 30.5 -3.5 45.5s-4.66602 30.333 -6.99902 46s-4.5 31.334 -6.5 47.001s-3 31.5 -3 47.5c0 26 3.83301 49.667 11.5 71
s19.334 39.666 35.001 54.999s35.667 27.166 60 35.499s52.833 12.5 85.5 12.5h27v-60c0 -5.33301 -1.16699 -9.66602 -3.5 -12.999s-5 -6.16602 -8 -8.49902s-6.16699 -4 -9.5 -5s-6.33301 -1.5 -9 -1.5h-2c-22.667 0 -39.5 -7 -50.5 -21s-16.5 -33 -16.5 -57
c0 -18.667 0.833008 -36.334 2.5 -53.001s3.5 -32.667 5.5 -48s4 -30.5 6 -45.5s3 -30.167 3 -45.5c0 -12.667 -1.83301 -24.834 -5.5 -36.501s-8.83398 -22.167 -15.501 -31.5s-14.834 -17.666 -24.501 -24.999s-21.167 -12.666 -34.5 -15.999c12.667 -4 24 -9.5 34 -16.5
s18.333 -15.167 25 -24.5s11.834 -19.833 15.501 -31.5c3.66699 -12.333 5.5 -24.5 5.5 -36.5c0 -15.333 -1 -30.5 -3 -45.5s-4 -30.167 -6 -45.5s-3.83301 -31.333 -5.5 -48s-2.5 -34.334 -2.5 -53.001c0 -24 5.5 -43 16.5 -57s27.833 -21 50.5 -21h2
c2.66699 0 5.66699 -0.5 9 -1.5s6.5 -2.66699 9.5 -5s5.66699 -5.16602 8 -8.49902s3.5 -7.66602 3.5 -12.999v-60h-27c-33.333 0 -62 4.33301 -86 13s-43.833 20.5 -59.5 35.5s-27.334 33.333 -35.001 55s-11.5 45.167 -11.5 70.5c0 16 1 31.833 3 47.5
s4.16699 31.334 6.5 47.001s4.66602 31 6.99902 46s3.5 30.167 3.5 45.5z" />
    <glyph glyph-name="bar" unicode="|" horiz-adv-x="265" 
d="M79 776h107v-947h-107v947z" />
    <glyph glyph-name="braceright" unicode="}" horiz-adv-x="308" 
d="M225 202c0 -15.333 0.999023 -30.498 2.99902 -45.498s4.16699 -30.333 6.5 -46l7 -47c2.33301 -15.667 3.5 -31.5 3.5 -47.5c0 -26 -3.83301 -49.667 -11.5 -71s-19.334 -39.5 -35.001 -54.5s-35.667 -26.833 -60 -35.5s-52.833 -13 -85.5 -13h-27v60
c0 5.33301 1 9.66602 3 12.999s4.66699 6.16602 8 8.49902s6.66602 4 9.99902 5s6.33301 1.5 9 1.5h2c22.667 0 39.5 7 50.5 21s16.5 33 16.5 57c0 18.667 -0.833008 36.334 -2.5 53.001s-3.5 32.667 -5.5 48l-6 46c-2 15.333 -3 30.333 -3 45c0 12 1.83301 24 5.5 36
s8.83398 22.667 15.501 32s14.834 17.666 24.501 24.999s21.167 12.666 34.5 15.999c-12.667 4 -24 9.5 -34 16.5s-18.333 15.167 -25 24.5s-11.834 19.833 -15.501 31.5s-5.5 23.834 -5.5 36.501c0 15.333 1 30.5 3 45.5s4 30.167 6 45.5s3.83301 31.333 5.5 48
s2.5 34.334 2.5 53.001c0 24 -5.5 43 -16.5 57s-27.833 21 -50.5 21h-2c-2.66699 0 -5.66699 0.5 -9 1.5s-6.66602 2.66699 -9.99902 5s-6 5.16602 -8 8.49902s-3 7.66602 -3 12.999v60h27c33.333 0 62 -4.16699 86 -12.5s43.833 -20.166 59.5 -35.499
s27.334 -33.833 35.001 -55.5s11.5 -45.167 11.5 -70.5c0 -16 -1.16699 -31.833 -3.5 -47.5l-7 -47c-2.33301 -15.667 -4.5 -31 -6.5 -46s-3 -30.167 -3 -45.5c0 -20 4.33301 -36.333 13 -49s23.334 -19 44.001 -19v-78c-20.667 0 -35.334 -6.33301 -44.001 -19
s-13 -29 -13 -49z" />
    <glyph glyph-name="asciitilde" unicode="~" horiz-adv-x="580" 
d="M370 330c17.333 0 31.0039 5.66797 41.0039 17.001s15 27.666 15 48.999h110c0 -26.667 -3.33301 -51 -10 -73s-16.834 -40.667 -30.501 -56s-30.334 -27 -50.001 -35s-41.5 -12 -65.5 -12c-17.333 0 -34.166 2.16699 -50.499 6.5s-31.5 9 -45.5 14
s-26.833 9.66699 -38.5 14s-22.834 6.5 -33.501 6.5c-17.333 0 -30.666 -5.5 -39.999 -16.5s-14 -27.167 -14 -48.5h-112c0 26.667 3.66699 51 11 73s17.666 40.5 30.999 55.5s29.666 26.667 48.999 35s41.666 12.5 66.999 12.5c17.333 0 34 -2.16699 50 -6.5s31 -9 45 -14
s26.833 -9.83301 38.5 -14.5s22.5 -7 32.5 -7z" />
    <glyph glyph-name="exclamdown" unicode="&#xa1;" horiz-adv-x="277" 
d="M75 -166l0.000976562 264.999c0 30.667 1.5 60.834 4.5 90.501s7.5 60.5 13.5 92.5h93c5.33301 -32 9.66602 -63 12.999 -93s5 -60 5 -90v-265h-129zM56.001 443.999c0 11.333 2.16699 21.833 6.5 31.5s10 18.167 17 25.5s15.5 13 25.5 17s21 6 33 6
c11.333 0 21.833 -2 31.5 -6s18.167 -9.66699 25.5 -17s13.333 -15.833 18 -25.5s7 -20.167 7 -31.5c0 -10.667 -2.33301 -21 -7 -31s-10.667 -18.667 -18 -26s-15.833 -13 -25.5 -17s-20.167 -6 -31.5 -6c-12 0 -23 2 -33 6s-18.5 9.66699 -25.5 17s-12.667 16 -17 26
s-6.5 20.333 -6.5 31z" />
    <glyph glyph-name="cent" unicode="&#xa2;" horiz-adv-x="580" 
d="M262 -4c-29.333 4.66699 -56.666 13.9971 -81.999 27.9971s-47.333 32.167 -66 54.5s-33.167 48.5 -43.5 78.5s-15.5 63.667 -15.5 101c0 36 5.5 69.667 16.5 101s27.333 58.833 49 82.5s48.334 42.667 80.001 57s68.167 22.166 109.5 23.499l8 75
c1.33301 8 5 15.5 11 22.5s14.333 10.5 25 10.5h51l-11 -114c26 -5.33301 49.5 -13.5 70.5 -24.5c21 -10.333 40.833 -24.166 59.5 -41.499l-36 -48c-4 -5.33301 -7.83301 -9.33301 -11.5 -12c-4.33301 -2.66699 -9.83301 -4 -16.5 -4c-4.66699 0 -9.5 1 -14.5 3
s-10.5 4.5 -16.5 7.5s-12.5 6 -19.5 9s-15.167 5.83301 -24.5 8.5l-30 -319c16 2 29.5 5.33301 40.5 10s20.5 9.33398 28.5 14.001s15.167 8.83398 21.5 12.501s13.166 5.5 20.499 5.5c5.33301 0 10.166 -1 14.499 -3s7.83301 -4.66699 10.5 -8l38 -48
c-12 -14 -25.167 -26.167 -39.5 -36.5s-29.5 -18.666 -45.5 -24.999s-32.167 -11.333 -48.5 -15s-32.833 -6.16699 -49.5 -7.5l-6 -69c-0.666992 -8 -4.5 -15.5 -11.5 -22.5s-15.5 -10.5 -25.5 -10.5h-51zM191 257.997c0 -40 6.83203 -73 20.499 -99
s33.834 -44.333 60.501 -55l29 315c-37.333 -6 -65 -23 -83 -51s-27 -64.667 -27 -110z" />
    <glyph glyph-name="sterling" unicode="&#xa3;" horiz-adv-x="580" 
d="M16 341c0 12 3.83203 22.5 11.499 31.5s19.167 13.5 34.5 13.5h48v114c0 31.333 4.83301 61.166 14.5 89.499s24.167 53.166 43.5 74.499s43.5 38.333 72.5 51s63.5 19 103.5 19c26.667 0 50.667 -3.5 72 -10.5s40.5 -16.333 57.5 -28s31.833 -25.667 44.5 -42
c12 -16.333 22.667 -33.833 32 -52.5l-54 -35c-12.667 -6.66699 -25 -9.66699 -37 -9c-12.667 0.666992 -23.667 6.33398 -33 17.001c-6.66699 6.66699 -12.667 13 -18 19s-11.333 11 -18 15s-13.667 7 -21 9s-15.666 3 -24.999 3c-31.333 0 -54.5 -10.5 -69.5 -31.5
s-22.5 -50.5 -22.5 -88.5v-114h198v-54c0 -4 -1 -8 -3 -12s-4.66699 -7.66699 -8 -11s-7.33301 -6 -12 -8s-10 -3 -16 -3h-159v-89c0 -21.333 -4 -40.333 -12 -57c-8 -16 -18.667 -31.333 -32 -46c13.333 2.66699 26.666 4.83398 39.999 6.50098s27 2.5 41 2.5h274v-57
c0 -6.66699 -1.5 -13.5 -4.5 -20.5s-7 -13.333 -12 -19s-11 -10.167 -18 -13.5s-15.167 -5 -24.5 -5h-478v84c10.667 2.66699 21.167 6.33398 31.5 11.001s19.333 10.5 27 17.5s13.834 15.5 18.501 25.5c4.66699 9.33301 7 20.666 7 33.999v126h-94v43z" />
    <glyph glyph-name="currency" unicode="&#xa4;" horiz-adv-x="580" 
d="M103 336c0 17.333 2.16895 33.666 6.50195 48.999s10.5 30 18.5 44l-78 77l70 66l76 -74c14 8 28.833 14.167 44.5 18.5s32.167 6.5 49.5 6.5s33.666 -2.16699 48.999 -6.5s29.666 -10.166 42.999 -17.499l76 76l69 -67l-76 -76c8 -14 14.333 -29 19 -45
c4.66699 -16.667 7 -33.667 7 -51s-2.16699 -33.5 -6.5 -48.5c-4.33301 -15.667 -10.5 -30.167 -18.5 -43.5l78 -76l-70 -67l-76 75c-14 -8 -28.833 -14.333 -44.5 -19s-32.167 -7 -49.5 -7s-33.5 2 -48.5 6c-15.667 4 -30.167 10 -43.5 18l-76 -76l-69 68l76 75
c-8 14 -14.333 29 -19 45s-7 32.667 -7 50zM204.002 336c0 -12 2.33301 -23.167 7 -33.5s10.834 -19.5 18.501 -27.5s16.667 -14.333 27 -19s21.5 -7 33.5 -7s23.333 2.33301 34 7s19.834 11 27.501 19s13.667 17.333 18 28c4.33301 10 6.5 21 6.5 33
s-2.16699 23.667 -6.5 35s-10.333 21 -18 29s-16.834 14.167 -27.501 18.5s-22 6.5 -34 6.5s-23.167 -2.16699 -33.5 -6.5s-19.333 -10.5 -27 -18.5s-13.834 -17.667 -18.501 -29s-7 -23 -7 -35z" />
    <glyph glyph-name="yen" unicode="&#xa5;" horiz-adv-x="580" 
d="M66 318h131.999l-198 408h115c12.667 0 23.167 -3 31.5 -9s14.5 -14.333 18.5 -25l97 -229c6.66699 -16 12.334 -30.833 17.001 -44.5s8.66699 -27.167 12 -40.5c2.66699 13.333 6.16699 26.833 10.5 40.5s9.83301 28.5 16.5 44.5l97 229c4 8 10.167 15.667 18.5 23
s18.5 11 30.5 11h116l-198 -408h132v-75h-155v-47h155v-74h-155v-122h-138v122h-155v74h155v47h-155v75z" />
    <glyph glyph-name="brokenbar" unicode="&#xa6;" horiz-adv-x="268" 
d="M80 776h108v-407h-108v407zM80 240h108v-406h-108v406z" />
    <glyph glyph-name="section" unicode="&#xa7;" horiz-adv-x="507" 
d="M414 618c-4 -5.33301 -7.99707 -9.16992 -11.9971 -11.5029s-9.33301 -3.5 -16 -3.5s-13.334 1.5 -20.001 4.5s-14.5 6.5 -23.5 10.5s-19 7.66699 -30 11s-23.833 5 -38.5 5c-26 0 -45.833 -5.33301 -59.5 -16s-20.5 -23.667 -20.5 -39c0 -9.33301 4 -17.833 12 -25.5
s18.333 -14.834 31 -21.501s27.334 -13.334 44.001 -20.001s33.334 -13.667 50.001 -21s33.334 -15.666 50.001 -24.999s31.334 -19.833 44.001 -31.5s23 -25 31 -40s12 -32.5 12 -52.5c0 -26.667 -6.33301 -51 -19 -73s-32.334 -40.333 -59.001 -55
c14.667 -12 26.5 -26 35.5 -42s13.5 -35.333 13.5 -58c0 -25.333 -4.5 -48.666 -13.5 -69.999s-22.5 -39.666 -40.5 -54.999s-40.167 -27.333 -66.5 -36c-25.667 -8.66699 -55.834 -13 -90.501 -13c-17.333 0 -34.833 1.66699 -52.5 5s-34.334 8 -50.001 14
s-30.334 12.667 -44.001 20s-25.5 15.666 -35.5 24.999l32 52c4 6 8.66699 10.5 14 13.5s12.666 4.5 21.999 4.5c8 0 15.5 -2 22.5 -6s15 -8.33301 24 -13s19.833 -9.16699 32.5 -13.5s28.334 -6.5 47.001 -6.5c25.333 0 44.666 4.83301 57.999 14.5s20 23.834 20 42.501
c0 13.333 -4 24.333 -12 33s-18.333 16.667 -31 24s-27.334 14 -44.001 20s-33.667 12.333 -51 19s-34.333 14.167 -51 22.5s-31.334 18.333 -44.001 30s-23 25.5 -31 41.5s-12 35.333 -12 58c0 26.667 6.66699 50.334 20 71.001s33.666 37.334 60.999 50.001
c-14.667 13.333 -26.834 28.833 -36.501 46.5s-14.5 39.5 -14.5 65.5c0 21.333 4.33301 41.666 13 60.999s21.334 36.333 38.001 51s37.334 26.334 62.001 35.001s53.334 13 86.001 13c36 0 69.167 -6.16699 99.5 -18.5s54.833 -27.833 73.5 -46.5zM164.003 361.996
c0 -13.333 4.33203 -24.6719 12.999 -34.0049s20.334 -17.666 35.001 -24.999s31 -14.666 49 -21.999s36 -15 54 -23c12 6.66699 20.5 14.334 25.5 23.001s7.5 18.334 7.5 29.001c0 13.333 -4.33301 24.833 -13 34.5s-20.167 18.334 -34.5 26.001s-30.333 15 -48 22
s-35.5 14.5 -53.5 22.5c-12.667 -6.66699 -21.667 -14.5 -27 -23.5s-8 -18.833 -8 -29.5z" />
    <glyph glyph-name="dieresis" unicode="&#xa8;" 
d="M170 647c0 -10 -2.00098 -19.333 -6.00098 -28s-9.33301 -16.334 -16 -23.001s-14.667 -11.667 -24 -15s-19 -5 -29 -5c-9.33301 0 -18.5 1.66699 -27.5 5s-16.833 8.33301 -23.5 15s-12 14.334 -16 23.001s-6 18 -6 28s2 19.5 6 28.5s9.33301 17 16 24
s14.334 12.333 23.001 16s18 5.5 28 5.5c10.667 0 20.5 -1.83301 29.5 -5.5s16.833 -9 23.5 -16s12 -15 16 -24s6 -18.5 6 -28.5zM377.999 647c0 -10 -2 -19.333 -6 -28s-9.33301 -16.334 -16 -23.001s-14.667 -11.667 -24 -15s-19 -5 -29 -5s-19.5 1.66699 -28.5 5
s-16.833 8.33301 -23.5 15s-11.834 14.334 -15.501 23.001s-5.5 18 -5.5 28s1.83301 19.5 5.5 28.5s8.83398 17 15.501 24s14.5 12.333 23.5 16s18.5 5.5 28.5 5.5c10.667 0 20.5 -1.83301 29.5 -5.5s16.833 -9 23.5 -16s12 -15 16 -24s6 -18.5 6 -28.5z" />
    <glyph glyph-name="copyright" unicode="&#xa9;" horiz-adv-x="821" 
d="M518 263c4 0 7.33496 -0.837891 10.002 -2.50488s5.33398 -3.83398 8.00098 -6.50098l46 -48c-18.667 -24 -42.334 -42.333 -71.001 -55s-62.334 -19 -101.001 -19c-33.333 0 -63.5 6 -90.5 18s-50 28.333 -69 49s-33.667 45.334 -44 74.001s-15.5 59 -15.5 91
c0 34 5.83301 65.167 17.5 93.5s27.834 52.833 48.501 73.5s45 36.834 73 48.501s58.333 17.5 91 17.5c37.333 0 69.5 -6.5 96.5 -19.5s49.5 -29.167 67.5 -48.5l-36 -49c-2.66699 -2.66699 -5.83398 -5.66699 -9.50098 -9s-8.16699 -5 -13.5 -5
c-6.66699 0 -12.334 1.66699 -17.001 5s-10.334 7 -17.001 11s-15 7.5 -25 10.5s-23 4.5 -39 4.5c-18.667 0 -35 -3.16699 -49 -9.5s-26 -15.166 -36 -26.499s-17.5 -25.166 -22.5 -41.499c-5 -17 -7.5 -35.5 -7.5 -55.5c0 -21.333 2.5 -40.166 7.5 -56.499
s12.167 -30.166 21.5 -41.499s20.5 -19.833 33.5 -25.5c13.667 -5.66699 27.834 -8.5 42.501 -8.5c16 0 28.833 1.33301 38.5 4s18 5.83398 25 9.50098s13.167 7.16699 18.5 10.5s11.333 5.66602 18 6.99902zM40.002 362.995c0 34 4.33301 66.833 13 98.5s21 61.167 37 88.5
s35.333 52.333 58 75s47.667 42 75 58s56.833 28.5 88.5 37.5s64.5 13.5 98.5 13.5s66.833 -4.5 98.5 -13.5s61.167 -21.5 88.5 -37.5s52.333 -35.333 75 -58s42 -47.667 58 -75s28.5 -56.833 37.5 -88.5s13.5 -64.5 13.5 -98.5s-4.5 -66.667 -13.5 -98
s-21.5 -60.666 -37.5 -87.999s-35.333 -52.333 -58 -75s-47.667 -42 -75 -58s-56.833 -28.5 -88.5 -37.5s-64.5 -13.5 -98.5 -13.5s-66.833 4.5 -98.5 13.5s-61.167 21.5 -88.5 37.5s-52.333 35.333 -75 58s-42 47.667 -58 75s-28.333 56.666 -37 87.999s-13 64 -13 98z
M114.002 362.995c0 -42.667 7.66504 -82.665 22.998 -119.998s36.333 -69.833 63 -97.5s58 -49.334 94 -65.001s74.667 -23.5 116 -23.5s80.333 7.83301 117 23.5s68.334 37.334 95.001 65.001s47.667 60 63 97s23 77.167 23 120.5c0 28.667 -3.33301 56.167 -10 82.5
s-16.5 51 -29.5 74s-28.5 43.833 -46.5 62.5s-38.167 34.667 -60.5 48s-46.166 23.5 -71.499 30.5s-52 10.5 -80 10.5c-41.333 0 -80 -8 -116 -24s-67.333 -37.833 -94 -65.5s-47.667 -60.334 -63 -98.001s-23 -77.834 -23 -120.501z" />
    <glyph glyph-name="ordfeminine" unicode="&#xaa;" horiz-adv-x="367" 
d="M268 420c-9.33301 0 -16 1.33105 -20 3.99805s-8 8 -12 16l-7 16c-8 -6.66699 -15.5 -12.5 -22.5 -17.5s-14.333 -9 -22 -12s-15.834 -5.5 -24.501 -7.5s-18.334 -3 -29.001 -3c-28.667 0 -51.667 7.5 -69 22.5s-26 36.5 -26 64.5c0 10.667 2.66699 21.834 8 33.501
s15 22.167 29 31.5s32.667 17.333 56 24s53 10.334 89 11.001v11c0 17.333 -3.5 29 -10.5 35s-17.167 9 -30.5 9c-10.667 0 -19.5 -1 -26.5 -3s-13.167 -4.33301 -18.5 -7s-10.666 -5.16699 -15.999 -7.5s-11.666 -3.5 -18.999 -3.5c-6.66699 0 -12.167 2 -16.5 6
c-4.33301 4.66699 -8.5 9 -12.5 13l-16 30c18.667 17.333 39.5 30 62.5 38c23.667 8 48.834 12 75.501 12c19.333 0 36.666 -3 51.999 -9s28.5 -14.667 39.5 -26s19.333 -24.333 25 -39s8.5 -30.667 8.5 -48v-194h-47zM163 482.998c10.667 0 20.332 1.83105 28.999 5.49805
c8 3.66699 16.667 9.83398 26 18.501v37c-17.333 -0.666992 -31.666 -2.16699 -42.999 -4.5s-20.333 -5.16602 -27 -8.49902s-11.167 -7 -13.5 -11s-3.5 -8 -3.5 -12c0 -9.33301 2.66699 -15.833 8 -19.5s13.333 -5.5 24 -5.5z" />
    <glyph glyph-name="guillemotleft" unicode="&#xab;" horiz-adv-x="466" 
d="M43 262l0.000976562 16.9961l129 199l46 -20c12 -5.33301 18.667 -12.666 20 -21.999s-0.666992 -19.333 -6 -30l-66 -114c-5.33301 -9.33301 -10.666 -16.666 -15.999 -21.999c5.33301 -5.33301 10.666 -12.666 15.999 -21.999l66 -113
c5.33301 -10.667 7.16602 -20.667 5.49902 -30c-1 -9.33301 -7.5 -16.666 -19.5 -21.999l-46 -21zM215.001 261.996l0.000976562 16.9961l129 199l46 -20c12 -5.33301 18.667 -12.666 20 -21.999s-0.666992 -19.333 -6 -30l-66 -114
c-5.33301 -9.33301 -10.666 -16.666 -15.999 -21.999c5.33301 -5.33301 10.666 -12.666 15.999 -21.999l66 -113c5.33301 -10.667 7.16602 -20.667 5.49902 -30c-1 -9.33301 -7.5 -16.666 -19.5 -21.999l-46 -21z" />
    <glyph glyph-name="logicalnot" unicode="&#xac;" horiz-adv-x="580" 
d="M63 386h449v-241h-117v141h-332v100z" />
    <glyph glyph-name="registered" unicode="&#xae;" horiz-adv-x="821" 
d="M40 363c0 34 4.33301 66.833 13 98.5s21 61.167 37 88.5s35.333 52.333 58 75s47.667 42 75 58s56.833 28.5 88.5 37.5s64.5 13.5 98.5 13.5s66.833 -4.5 98.5 -13.5s61.167 -21.5 88.5 -37.5s52.333 -35.333 75 -58s42 -47.667 58 -75s28.5 -56.833 37.5 -88.5
s13.5 -64.5 13.5 -98.5s-4.5 -66.667 -13.5 -98s-21.5 -60.666 -37.5 -87.999s-35.333 -52.333 -58 -75s-47.667 -42 -75 -58s-56.833 -28.5 -88.5 -37.5s-64.5 -13.5 -98.5 -13.5s-66.833 4.5 -98.5 13.5s-61.167 21.5 -88.5 37.5s-52.333 35.333 -75 58s-42 47.667 -58 75
s-28.333 56.666 -37 87.999s-13 64 -13 98zM114 363c0 -42.667 7.66406 -82.6621 22.9971 -119.995s36.333 -69.833 63 -97.5s58 -49.334 94 -65.001s74.667 -23.5 116 -23.5c40 0 77.667 7.16699 113 21.5s66.333 34.833 93 61.5h-108c-16 0 -27.333 5.66699 -34 17
l-61 125c-3.33301 5.33301 -7 9 -11 11s-10.333 3 -19 3h-22v-156h-119v449h167c64 0 110.833 -11.333 140.5 -34c29.667 -22 44.5 -54.333 44.5 -97c0 -29.333 -7.16699 -55.333 -21.5 -78s-37.166 -39.334 -68.499 -50.001c8.66699 -4.66699 15.834 -10.5 21.501 -17.5
s11.167 -15.167 16.5 -24.5l78 -144c28 28 49.667 60.667 65 98s23 77.666 23 120.999c0 28.667 -3.33301 56.167 -10 82.5s-16.5 51 -29.5 74s-28.5 43.833 -46.5 62.5s-38.167 34.667 -60.5 48s-46.166 23.5 -71.499 30.5s-52 10.5 -80 10.5c-41.333 0 -80 -8 -116 -24
s-67.333 -37.833 -94 -65.5s-47.667 -60.334 -63 -98.001s-23 -77.834 -23 -120.501zM360.997 380.005h39c16.667 0 30 1.33301 40 4s17.833 6.66699 23.5 12s9.33398 11.833 11.001 19.5s2.5 16.5 2.5 26.5c0 9.33301 -0.833008 17.666 -2.5 24.999
s-4.83398 13.333 -9.50098 18s-11.667 8.33398 -21 11.001s-21 4 -35 4h-48v-120z" />
    <glyph glyph-name="macron" unicode="&#xaf;" 
d="M48 690h304v-86h-304v86z" />
    <glyph glyph-name="macron" unicode="&#x2c9;" 
d="M48 690h304v-86h-304v86z" />
    <glyph glyph-name="degree" unicode="&#xb0;" horiz-adv-x="415" 
d="M30 560c0 24 4.66797 46.667 14.001 68s22 40 38 56s34.667 28.333 56 37s44.666 13 69.999 13s48.666 -4.33301 69.999 -13s40 -21 56 -37s28.5 -34.667 37.5 -56s13.5 -44 13.5 -68s-4.5 -46.333 -13.5 -67s-21.5 -38.834 -37.5 -54.501s-34.833 -28 -56.5 -37
c-21 -9 -44.167 -13.5 -69.5 -13.5s-48.666 4.5 -69.999 13.5s-40 21.333 -56 37s-28.667 33.834 -38 54.501s-14 43 -14 67zM126.001 560c0 -12 2 -23 6 -33s9.66699 -18.833 17 -26.5s16 -13.667 26 -18s21 -6.5 33 -6.5s22.833 2.16699 32.5 6.5s18 10.333 25 18
s12.5 16.5 16.5 26.5s6 21 6 33s-2 23.167 -6 33.5s-9.5 19.333 -16.5 27s-15.5 13.667 -25.5 18c-9.33301 4.33301 -20 6.5 -32 6.5s-23 -2.16699 -33 -6.5s-18.667 -10.333 -26 -18s-13 -16.667 -17 -27s-6 -21.5 -6 -33.5z" />
    <glyph glyph-name="plusminus" unicode="&#xb1;" horiz-adv-x="580" 
d="M346 628v-174h190v-100h-190v-166h-112v166h-190v100h190v174h112zM44 140h492v-100h-492v100z" />
    <glyph glyph-name="uni00B2" unicode="&#xb2;" horiz-adv-x="334" 
d="M171 826c20 0 37.8291 -2.83789 53.4961 -8.50488s28.834 -13.5 39.501 -23.5s18.667 -21.667 24 -35c5.33301 -14 8 -28.333 8 -43c0 -13.333 -2 -25.666 -6 -36.999s-9.5 -22.166 -16.5 -32.499s-15 -20.333 -24 -30s-18.167 -19.5 -27.5 -29.5l-58 -59
c10 2.66699 19.833 5 29.5 7s18.5 3 26.5 3h51c10.667 0 18.834 -2.83301 24.501 -8.5s8.5 -13.167 8.5 -22.5v-57h-277v32c0 6 1.16699 12.5 3.5 19.5s6.5 13.167 12.5 18.5l102 100c7.33301 6.66699 14 14 20 22s11.333 16.167 16 24.5s8.33398 16.333 11.001 24
s4 15.167 4 22.5c0 10.667 -2.5 19.334 -7.5 26.001c-4.33301 6.66699 -11.833 10 -22.5 10c-9.33301 0 -16.833 -2.16699 -22.5 -6.5s-10.5 -11.166 -14.5 -20.499c-5.33301 -8 -11.166 -13.667 -17.499 -17s-15.833 -3.66602 -28.5 -0.999023l-55 8c2.66699 20 8 37 16 51
s18.333 25.833 31 35.5s27.167 16.667 43.5 21s33.833 6.5 52.5 6.5z" />
    <glyph glyph-name="uni00B3" unicode="&#xb3;" horiz-adv-x="334" 
d="M172 826c20 0 37.5029 -2.66992 52.5029 -8.00293s27.667 -12.666 38 -21.999s18.166 -19.833 23.499 -31.5s8 -23.5 8 -35.5c0 -21.333 -4 -39.166 -12 -53.499s-21.333 -25.5 -40 -33.5c19.333 -6.66699 33.833 -16 43.5 -28s14.5 -27.667 14.5 -47
c0 -21.333 -3.83301 -39.5 -11.5 -54.5s-17.834 -27.5 -30.501 -37.5s-27 -17.333 -43 -22s-32 -7 -48 -7c-17.333 0 -33.333 1.66699 -48 5s-27.834 8.83301 -39.501 16.5s-21.834 18 -30.501 31s-16.334 29.5 -23.001 49.5l42 17c10.667 4 21 5 31 3
s16.667 -6.66699 20 -14c4 -8 9.5 -14.667 16.5 -20s15.833 -8 26.5 -8c12.667 0 22.5 3.66699 29.5 11s10.5 16.333 10.5 27c0 8.66699 -1.16699 15.834 -3.5 21.501s-6 10 -11 13s-12 5 -21 6s-20.167 1.5 -33.5 1.5v64c13.333 0 24.5 1 33.5 3s15.833 4.66699 20.5 8
s8 7.66602 10 12.999s3 11.333 3 18c0 10.667 -2.66699 19.167 -8 25.5s-14 9.5 -26 9.5c-10 0 -17.667 -2.16699 -23 -6.5s-9.66602 -10.166 -12.999 -17.499c-5.33301 -9.33301 -10.666 -15.5 -15.999 -18.5s-14.666 -3.16699 -27.999 -0.5l-51 8
c2.66699 20 8.16699 37 16.5 51s18.5 25.833 30.5 35.5s25.667 16.667 41 21s31.666 6.5 48.999 6.5z" />
    <glyph glyph-name="acute" unicode="&#xb4;" 
d="M384 734l-125.999 -131.999c-6.66699 -6.66699 -13.334 -11.334 -20.001 -14.001s-15 -4 -25 -4h-83l70 122c5.33301 9.33301 11.5 16.333 18.5 21s17.833 7 32.5 7h133z" />
    <glyph glyph-name="mu" unicode="&#xb5;" horiz-adv-x="664" 
d="M217 516l-0.00292969 -301.998c0 -28.667 6.5 -51.667 19.5 -69s32.833 -26 59.5 -26c25.333 0 46.333 6.83301 63 20.5s30 32.5 40 56.5v320h138v-360c0 -21.333 4.83301 -37 14.5 -47s23.167 -15 40.5 -15h38v-54c0 -5.33301 -1.83301 -10.666 -5.5 -15.999
s-9.16699 -10.333 -16.5 -15s-16.166 -8.33398 -26.499 -11.001s-22.166 -4 -35.499 -4c-14 0 -27.5 2 -40.5 6s-25 10.167 -36 18.5s-20.667 18.666 -29 30.999s-15.166 27.166 -20.499 44.499c-17.333 -26.667 -36.833 -47.5 -58.5 -62.5
c-22.333 -15 -47.5 -22.5 -75.5 -22.5c-36 0.666992 -65.333 9.66699 -88 27c4 -14.667 6.66699 -29.667 8 -45s2 -30 2 -44v-113h-68c-19.333 0 -34.333 4.66699 -45 14s-16 23.333 -16 42v626h138z" />
    <glyph glyph-name="paragraph" unicode="&#xb6;" horiz-adv-x="752" 
d="M716 726v-113.999h-106v-718h-120v718h-109v-718h-120v416c-34.667 0 -66.167 5.33301 -94.5 16s-52.5 25.5 -72.5 44.5s-35.333 41 -46 66s-16 51.5 -16 79.5c0 30.667 5.33301 59 16 85s26 48.167 46 66.5s44.167 32.666 72.5 42.999s59.833 15.5 94.5 15.5h455z" />
    <glyph glyph-name="periodcentered" unicode="&#xb7;" horiz-adv-x="280" 
d="M38 298c0 14 2.66699 27.167 8 39.5s12.666 23 21.999 32s20.166 16 32.499 21s25.5 7.5 39.5 7.5c14.667 0 28.167 -2.5 40.5 -7.5s23.166 -12 32.499 -21s16.666 -19.833 21.999 -32.5s8 -25.667 8 -39s-2.66699 -26.333 -8 -39s-12.666 -23.334 -21.999 -32.001
s-20.166 -15.667 -32.499 -21s-25.833 -8 -40.5 -8c-14 0 -27.167 2.66699 -39.5 8s-23.166 12.333 -32.499 21s-16.666 19.334 -21.999 32.001s-8 25.667 -8 39z" />
    <glyph glyph-name="periodcentered" unicode="&#x2219;" horiz-adv-x="280" 
d="M38 298c0 14 2.66699 27.167 8 39.5s12.666 23 21.999 32s20.166 16 32.499 21s25.5 7.5 39.5 7.5c14.667 0 28.167 -2.5 40.5 -7.5s23.166 -12 32.499 -21s16.666 -19.833 21.999 -32.5s8 -25.667 8 -39s-2.66699 -26.333 -8 -39s-12.666 -23.334 -21.999 -32.001
s-20.166 -15.667 -32.499 -21s-25.833 -8 -40.5 -8c-14 0 -27.167 2.66699 -39.5 8s-23.166 12.333 -32.499 21s-16.666 19.334 -21.999 32.001s-8 25.667 -8 39z" />
    <glyph glyph-name="cedilla" unicode="&#xb8;" 
d="M140 -114c4.66699 0 9.66895 -0.999023 15.002 -2.99902s12.333 -3 21 -3c10 0 17.333 2 22 6s7 8.33301 7 13c0 8 -5.5 14 -16.5 18c-11 3.33301 -29.167 7 -54.5 11l32 92h76l-12 -48c16 -4 29.167 -8.5 39.5 -13.5s18.666 -10.667 24.999 -17s11 -13.333 14 -21
c3 -8.33301 4.5 -16.5 4.5 -24.5c0 -12 -3.16699 -22.333 -9.5 -31s-15 -16.334 -26 -23.001s-24.333 -11.667 -40 -15s-32.834 -5 -51.501 -5c-13.333 0 -26 0.666992 -38 2s-24 4 -36 8l12 42c2.66699 8 8 12 16 12z" />
    <glyph glyph-name="uni00B9" unicode="&#xb9;" horiz-adv-x="334" 
d="M70 512h68v166l2 26l-32 -25c-4.66699 -3.33301 -9.16699 -5.33301 -13.5 -6s-8.5 -0.666992 -12.5 0s-7.33301 2 -10 4s-5 4.33301 -7 7l-31 40l119 98h83v-310h54v-62h-220v62z" />
    <glyph glyph-name="ordmasculine" unicode="&#xba;" 
d="M201 735c24 0 46.332 -3.66699 66.999 -11s38.334 -17.833 53.001 -31.5s26.167 -30.334 34.5 -50.001s12.5 -41.834 12.5 -66.501c0 -25.333 -4.16699 -48 -12.5 -68s-19.833 -36.833 -34.5 -50.5s-32.167 -24.334 -52.5 -32.001s-42.833 -11.5 -67.5 -11.5
c-25.333 0 -48.166 3.83301 -68.499 11.5s-38 18.334 -53 32.001s-26.667 30.5 -35 50.5s-12.5 42.667 -12.5 68c0 24.667 4.16699 46.834 12.5 66.501s20 36.334 35 50.001s32.667 24.167 53 31.5s43.166 11 68.499 11zM200.999 494c20 0 34.833 6.33203 44.5 18.999
s14.5 33.334 14.5 62.001s-4.83301 49.334 -14.5 62.001s-24.5 19 -44.5 19c-21.333 0 -36.833 -6.33301 -46.5 -19s-14.5 -33.334 -14.5 -62.001c0 -28 4.83301 -48.5 14.5 -61.5s25.167 -19.5 46.5 -19.5z" />
    <glyph glyph-name="guillemotright" unicode="&#xbb;" horiz-adv-x="466" 
d="M252 279l0.000976562 -16.9971l-130 -200l-45 21c-12 5.33301 -18.833 12.666 -20.5 21.999s0.5 19.333 6.5 30l65 113c5.33301 8 11 15.333 17 22c-6.66699 5.33301 -12.334 12.666 -17.001 21.999l-65 114c-6 10.667 -8 20.667 -6 30s8.66699 16.666 20 21.999l45 20z
M424.001 279.003l0.000976562 -16.9971l-130 -200l-45 21c-12 5.33301 -18.833 12.666 -20.5 21.999s0.5 19.333 6.5 30l65 113c5.33301 8 11 15.333 17 22c-6.66699 5.33301 -12.334 12.666 -17.001 21.999l-65 114c-6 10.667 -8 20.667 -6 30s8.66699 16.666 20 21.999
l45 20z" />
    <glyph glyph-name="onequarter" unicode="&#xbc;" horiz-adv-x="747" 
d="M234 38c-9.33301 -14.667 -19.666 -24.667 -30.999 -30s-24 -8 -38 -8h-59l420 681c9.33301 14 19.666 25 30.999 33s25 12 41 12h59zM70 416h68v166l2 26l-32 -25c-4.66699 -3.33301 -9.16699 -5.33301 -13.5 -6s-8.5 -0.666992 -12.5 0s-7.33301 2 -10 4
s-5 4.33301 -7 7l-31 40l119 98h83v-310h54v-62h-220v62zM666 144l43.999 0.000976562v-48c0 -4.66699 -1.66699 -8.83398 -5 -12.501s-7.66602 -5.5 -12.999 -5.5h-26v-78h-82v78h-141c-8.66699 0 -15.5 2 -20.5 6s-8.16699 8.66699 -9.5 14l-8 42l166 232h95v-228z
M583.999 214.001c0 8 0.333008 17 1 27s1.66699 20.333 3 31l-94 -128h90v70z" />
    <glyph glyph-name="onehalf" unicode="&#xbd;" horiz-adv-x="739" 
d="M214 38c-9.33301 -14.667 -19.666 -24.667 -30.999 -30s-24 -8 -38 -8h-59l420 681c9.33301 14 19.666 25 30.999 33s25 12 41 12h59zM70 416h68v166l2 26l-32 -25c-4.66699 -3.33301 -9.16699 -5.33301 -13.5 -6s-8.5 -0.666992 -12.5 0s-7.33301 2 -10 4
s-5 4.33301 -7 7l-31 40l119 98h83v-310h54v-62h-220v62zM566 376c20 0 37.8291 -2.83789 53.4961 -8.50488s28.834 -13.5 39.501 -23.5s18.667 -21.667 24 -35c5.33301 -14 8 -28.333 8 -43c0 -13.333 -2 -25.666 -6 -36.999s-9.5 -22.166 -16.5 -32.499
s-15 -20.333 -24 -30s-18.167 -19.5 -27.5 -29.5l-58 -59c10 2.66699 19.833 5 29.5 7s18.5 3 26.5 3h51c10.667 0 18.834 -2.83301 24.501 -8.5s8.5 -13.167 8.5 -22.5v-57h-277v32c0 6 1.16699 12.5 3.5 19.5s6.5 13.167 12.5 18.5l102 100c7.33301 6.66699 14 14 20 22
s11.333 16.167 16 24.5s8.33398 16.333 11.001 24s4 15.167 4 22.5c0 10.667 -2.5 19.334 -7.5 26.001c-4.33301 6.66699 -11.833 10 -22.5 10c-9.33301 0 -16.833 -2.16699 -22.5 -6.5s-10.5 -11.166 -14.5 -20.499c-5.33301 -8 -11.166 -13.667 -17.499 -17
s-15.833 -3.66602 -28.5 -0.999023l-55 8c2.66699 20 8 37 16 51s18.333 25.833 31 35.5s27.167 16.667 43.5 21s33.833 6.5 52.5 6.5z" />
    <glyph glyph-name="threequarters" unicode="&#xbe;" horiz-adv-x="752" 
d="M242 38c-9.33301 -14.667 -19.666 -24.667 -30.999 -30s-24 -8 -38 -8h-59l420 681c9.33301 14 19.666 25 30.999 33s25 12 41 12h59zM182 730c20 0 37.5029 -2.66992 52.5029 -8.00293s27.667 -12.666 38 -21.999s18.166 -19.833 23.499 -31.5s8 -23.5 8 -35.5
c0 -21.333 -4 -39.166 -12 -53.499s-21.333 -25.5 -40 -33.5c19.333 -6.66699 33.833 -16 43.5 -28s14.5 -27.667 14.5 -47c0 -21.333 -3.83301 -39.5 -11.5 -54.5s-17.834 -27.5 -30.501 -37.5s-27 -17.333 -43 -22s-32 -7 -48 -7c-17.333 0 -33.333 1.66699 -48 5
s-27.834 8.83301 -39.501 16.5s-21.834 18 -30.501 31s-16.334 29.5 -23.001 49.5l42 17c10.667 4 21 5 31 3s16.667 -6.66699 20 -14c4 -8 9.5 -14.667 16.5 -20s15.833 -8 26.5 -8c12.667 0 22.5 3.66699 29.5 11s10.5 16.333 10.5 27
c0 8.66699 -1.16699 15.834 -3.5 21.501s-6 10 -11 13s-12 5 -21 6s-20.167 1.5 -33.5 1.5v64c13.333 0 24.5 1 33.5 3s15.833 4.66699 20.5 8s8 7.66602 10 12.999s3 11.333 3 18c0 10.667 -2.66699 19.167 -8 25.5s-14 9.5 -26 9.5c-10 0 -17.667 -2.16699 -23 -6.5
s-9.66602 -10.166 -12.999 -17.499c-5.33301 -9.33301 -10.666 -15.5 -15.999 -18.5s-14.666 -3.16699 -27.999 -0.5l-51 8c2.66699 20 8.16699 37 16.5 51s18.5 25.833 30.5 35.5s25.667 16.667 41 21s31.666 6.5 48.999 6.5zM673.003 143.997l43.999 0.000976562v-48
c0 -4.66699 -1.66699 -8.83398 -5 -12.501s-7.66602 -5.5 -12.999 -5.5h-26v-78h-82v78h-141c-8.66699 0 -15.5 2 -20.5 6s-8.16699 8.66699 -9.5 14l-8 42l166 232h95v-228zM591.002 213.998c0 8 0.333008 17 1 27s1.66699 20.333 3 31l-94 -128h90v70z" />
    <glyph glyph-name="questiondown" unicode="&#xbf;" horiz-adv-x="461" 
d="M432 -100c-12 -10.667 -24.998 -20.3291 -38.998 -28.9961s-29 -16.334 -45 -23.001s-33.333 -12 -52 -16s-39 -6 -61 -6c-30 0 -57.333 4 -82 12s-45.5 19.167 -62.5 33.5s-30.333 32 -40 53s-14.5 44.833 -14.5 71.5c0 25.333 3.66699 46.666 11 63.999
s16.333 32.333 27 45s22.667 23.167 36 31.5s25.666 16.333 36.999 24s21.333 15.167 30 22.5s14 16.333 16 27l13 72h94l10 -81c2 -17.333 -0.166992 -31.833 -6.5 -43.5s-14.833 -21.834 -25.5 -30.501s-22.667 -16.334 -36 -23.001s-25.666 -14.334 -36.999 -23.001
s-21 -18.667 -29 -30s-12 -25.666 -12 -42.999c0 -22 7.66699 -39.667 23 -53s35.666 -20 60.999 -20c18 0 33.167 2 45.5 6s23 8.5 32 13.5s16.667 9.5 23 13.5s12.166 6 17.499 6c13.333 0 23.333 -5.66699 30 -17zM174.002 444.005c0 10.667 2 21 6 31
s9.66699 18.5 17 25.5s16 12.667 26 17s21 6.5 33 6.5c11.333 0 21.833 -2.16699 31.5 -6.5s18.167 -10 25.5 -17s13.166 -15.5 17.499 -25.5s6.5 -20.333 6.5 -31c0 -11.333 -2.16699 -21.833 -6.5 -31.5s-10.166 -18.167 -17.499 -25.5s-16 -13 -26 -17s-20.333 -6 -31 -6
c-12 0 -23 2 -33 6s-18.667 9.66699 -26 17s-13 15.833 -17 25.5s-6 20.167 -6 31.5z" />
    <glyph glyph-name="Agrave" unicode="&#xc0;" horiz-adv-x="702" 
d="M711 0h-117.002c-13.333 0 -24 3 -32 9s-14 14 -18 24l-48 139h-290l-48 -139c-3.33301 -8 -9.16602 -15.5 -17.499 -22.5s-19.166 -10.5 -32.499 -10.5h-117l283 726h154zM242.998 276l216 0.000976562l-79 222c-4.66699 12 -9.5 25.667 -14.5 41s-10.167 32 -15.5 50
c-4.66699 -18.667 -9.5 -35.834 -14.5 -51.501s-9.5 -29.5 -13.5 -41.5zM271.998 932.001c6.66699 0 12.665 -0.166016 17.998 -0.499023s10 -1.33301 14 -3s8 -3.83398 12 -6.50098s8 -6.66699 12 -12l106 -135h-100c-5.33301 0 -10 0.166992 -14 0.5
s-7.66699 0.833008 -11 1.5s-6.66602 2 -9.99902 4s-6.66602 4.33301 -9.99902 7l-161 144h144z" />
    <glyph glyph-name="Aacute" unicode="&#xc1;" horiz-adv-x="702" 
d="M711 0h-117.002c-13.333 0 -24 3 -32 9s-14 14 -18 24l-48 139h-290l-48 -139c-3.33301 -8 -9.16602 -15.5 -17.499 -22.5s-19.166 -10.5 -32.499 -10.5h-117l283 726h154zM242.998 276l216 0.000976562l-79 222c-4.66699 12 -9.5 25.667 -14.5 41s-10.167 32 -15.5 50
c-4.66699 -18.667 -9.5 -35.834 -14.5 -51.501s-9.5 -29.5 -13.5 -41.5zM569.998 932.001l-162 -143.001c-4 -2.66699 -7.66699 -5 -11 -7s-6.66602 -3.5 -9.99902 -4.5s-7 -1.66699 -11 -2s-8.66699 -0.5 -14 -0.5h-100l100 135c4 5.33301 7.66699 9.33301 11 12
s7 4.83398 11 6.50098s8.66699 2.66699 14 3s11.666 0.5 18.999 0.5h153z" />
    <glyph glyph-name="Acircumflex" unicode="&#xc2;" horiz-adv-x="702" 
d="M711 0h-117.002c-13.333 0 -24 3 -32 9s-14 14 -18 24l-48 139h-290l-48 -139c-3.33301 -8 -9.16602 -15.5 -17.499 -22.5s-19.166 -10.5 -32.499 -10.5h-117l283 726h154zM242.998 276l216 0.000976562l-79 222c-4.66699 12 -9.5 25.667 -14.5 41s-10.167 32 -15.5 50
c-4.66699 -18.667 -9.5 -35.834 -14.5 -51.501s-9.5 -29.5 -13.5 -41.5zM535.998 775.001l-100 -0.000976562c-5.33301 0 -12 1 -20 3c-8 2.66699 -16 8.66699 -24 18l-34 46l-8 12l-8 -12l-34 -46c-8 -9.33301 -16 -15.166 -24 -17.499s-14.667 -3.5 -20 -3.5h-96l122 138
h124z" />
    <glyph glyph-name="Atilde" unicode="&#xc3;" horiz-adv-x="702" 
d="M711 0h-117.002c-13.333 0 -24 3 -32 9s-14 14 -18 24l-48 139h-290l-48 -139c-3.33301 -8 -9.16602 -15.5 -17.499 -22.5s-19.166 -10.5 -32.499 -10.5h-117l283 726h154zM242.998 276l216 0.000976562l-79 222c-4.66699 12 -9.5 25.667 -14.5 41s-10.167 32 -15.5 50
c-4.66699 -18.667 -9.5 -35.834 -14.5 -51.501s-9.5 -29.5 -13.5 -41.5zM411.998 856.001c7.33301 0 13.667 1.50195 19 4.50195s9.66602 6.66699 12.999 11s5.83301 9.16602 7.5 14.499s2.5 10.666 2.5 15.999h84c0 -17.333 -2.33301 -34 -7 -50s-11.667 -30.167 -21 -42.5
s-20.666 -22.333 -33.999 -30s-29 -11.5 -47 -11.5c-17.333 0 -32.5 2.66699 -45.5 8s-24.5 11 -34.5 17s-19.333 11.667 -28 17s-17.667 8 -27 8c-7.33301 0 -13.5 -1.5 -18.5 -4.5s-9.16699 -6.83301 -12.5 -11.5s-5.66602 -9.66699 -6.99902 -15
c-1.33301 -4.66699 -2 -9.66699 -2 -15h-85c0 17.333 2.5 34 7.5 50s12 30.333 21 43s20.333 22.667 34 30s29.167 11 46.5 11s32.666 -2.66699 45.999 -8s25 -11 35 -17s19.167 -11.667 27.5 -17s16.833 -8 25.5 -8z" />
    <glyph glyph-name="Adieresis" unicode="&#xc4;" horiz-adv-x="702" 
d="M711 0h-117.002c-13.333 0 -24 3 -32 9s-14 14 -18 24l-48 139h-290l-48 -139c-3.33301 -8 -9.16602 -15.5 -17.499 -22.5s-19.166 -10.5 -32.499 -10.5h-117l283 726h154zM242.998 276l216 0.000976562l-79 222c-4.66699 12 -9.5 25.667 -14.5 41s-10.167 32 -15.5 50
c-4.66699 -18.667 -9.5 -35.834 -14.5 -51.501s-9.5 -29.5 -13.5 -41.5zM309.998 834.001c0 -9.33301 -2 -18.332 -6 -26.999s-9.33301 -16.167 -16 -22.5s-14.5 -11.333 -23.5 -15s-18.5 -5.5 -28.5 -5.5c-9.33301 0 -18.166 1.83301 -26.499 5.5
s-15.666 8.66699 -21.999 15s-11.5 13.666 -15.5 21.999c-4 9 -6 18.167 -6 27.5s2 18.333 6 27s9.16699 16.334 15.5 23.001s13.666 12 21.999 16s17.166 6 26.499 6c10 0 19.5 -2 28.5 -6s16.833 -9.33301 23.5 -16s12 -14.334 16 -23.001s6 -17.667 6 -27z
M533.998 834.002c0 -9.33301 -2 -18.332 -6 -26.999s-9.16699 -16.167 -15.5 -22.5s-13.833 -11.333 -22.5 -15s-18 -5.5 -28 -5.5s-19.333 1.83301 -28 5.5s-16.167 8.66699 -22.5 15s-11.5 13.666 -15.5 21.999c-4 9 -6 18.167 -6 27.5s2 18.333 6 27
s9.16699 16.334 15.5 23.001s13.833 12 22.5 16s18 6 28 6s19.333 -2 28 -6s16.167 -9.33301 22.5 -16s11.5 -14.334 15.5 -23.001s6 -17.667 6 -27z" />
    <glyph glyph-name="Aring" unicode="&#xc5;" horiz-adv-x="702" 
d="M711 0h-117.002c-13.333 0 -24 3 -32 9s-14 14 -18 24l-48 139h-290l-48 -139c-3.33301 -8 -9.16602 -15.5 -17.499 -22.5s-19.166 -10.5 -32.499 -10.5h-117l283 726h154zM242.998 276l216 0.000976562l-79 222c-4.66699 12 -9.5 25.667 -14.5 41s-10.167 32 -15.5 50
c-4.66699 -18.667 -9.5 -35.834 -14.5 -51.501s-9.5 -29.5 -13.5 -41.5zM243.998 855.001c0 14.667 3.00098 28.167 9.00098 40.5s13.833 22.833 23.5 31.5s21 15.334 34 20.001s26.167 7 39.5 7c14.667 0 28.667 -2.33301 42 -7s25 -11.334 35 -20.001s18 -19.167 24 -31.5
s9 -25.833 9 -40.5s-3 -27.834 -9 -39.501s-14 -21.667 -24 -30s-21.667 -14.833 -35 -19.5s-27.333 -7 -42 -7c-14 0 -27.333 2.33301 -40 7s-23.834 11.167 -33.501 19.5s-17.5 18.333 -23.5 30s-9 24.834 -9 39.501zM309.999 855.001c0 -12.667 3.66602 -23 10.999 -31
s17.666 -12 30.999 -12c12.667 0 22.834 4 30.501 12s11.5 18.333 11.5 31c0 13.333 -3.66699 23.833 -11 31.5s-17.666 11.5 -30.999 11.5c-14 0 -24.5 -3.83301 -31.5 -11.5s-10.5 -18.167 -10.5 -31.5z" />
    <glyph glyph-name="AE" unicode="&#xc6;" horiz-adv-x="934" 
d="M350 726l548.001 -0.000976562v-118h-336l22 -186h244v-114h-230l24 -190h276v-118h-404l-22 172h-251l-64 -139c-4.66699 -9.33301 -11.834 -17.166 -21.501 -23.499s-21.167 -9.5 -34.5 -9.5h-114zM269.001 275.999l190.999 -0.000976562l-41 338
c-5.33301 -18.667 -11.166 -35.667 -17.499 -51s-12.833 -29.666 -19.5 -42.999z" />
    <glyph glyph-name="Ccedilla" unicode="&#xc7;" horiz-adv-x="659" 
d="M328 -114c4.66699 0 9.66699 -0.994141 15 -2.99414s12.333 -3 21 -3c10 0 17.333 2 22 6s7 8.33301 7 13c0 8 -5.5 14 -16.5 18c-11 3.33301 -29.167 7 -54.5 11l22 66c-48 4.66699 -91 17.167 -129 37.5s-70.5 46.666 -97.5 78.999s-47.667 70 -62 113
s-21.5 89.5 -21.5 139.5c0 36 4 70.167 12 102.5s19.5 62.166 34.5 89.499s33 52 54 74s44.833 40.833 71.5 56.5s55.834 27.667 87.501 36c31 8.33301 64.5 12.5 100.5 12.5c26.667 0 52 -2.33301 76 -7s46.333 -11.334 67 -20.001s39.667 -18.834 57 -30.501
s33.333 -24.5 48 -38.5l-51 -69c-2.66699 -4 -6.5 -7.83301 -11.5 -11.5s-11.5 -5.5 -19.5 -5.5s-16 3 -24 9s-18 12.333 -30 19s-26.833 13 -44.5 19s-40.167 9 -67.5 9c-30.667 0 -58.667 -5.66699 -84 -17s-47 -27.333 -65 -48s-32 -46.167 -42 -76.5
s-15 -64.833 -15 -103.5s5.33301 -73.334 16 -104.001s25.5 -56.5 44.5 -77.5s41 -36.833 66 -47.5s52.167 -16 81.5 -16c17.333 0 32.666 0.666992 45.999 2s26 4 38 8s23.333 9.33301 34 16s21.334 14.667 32.001 24c4 2.66699 7.83301 5 11.5 7s7.83398 3 12.501 3
c8 0 15 -2.66699 21 -8l59 -64c-26 -33.333 -57.667 -59.5 -95 -78.5c-37.333 -18.333 -81.333 -29.5 -132 -33.5l-5 -22c16 -4 29.167 -8.5 39.5 -13.5s18.666 -10.667 24.999 -17s11 -13.333 14 -21c3 -8.33301 4.5 -16.5 4.5 -24.5c0 -12 -3.16699 -22.333 -9.5 -31
s-15 -16.334 -26 -23.001s-24.333 -11.667 -40 -15s-32.834 -5 -51.501 -5c-13.333 0 -26 0.666992 -38 2s-24 4 -36 8l12 42c2.66699 8 8 12 16 12z" />
    <glyph glyph-name="Egrave" unicode="&#xc8;" horiz-adv-x="574" 
d="M538 726v-118h-311v-186h242v-114h-242v-190h311v-118h-462v726h462zM236 932c6.66699 0 12.665 -0.166016 17.998 -0.499023s10 -1.33301 14 -3s8 -3.83398 12 -6.50098s8 -6.66699 12 -12l106 -135h-100c-5.33301 0 -10 0.166992 -14 0.5s-7.66699 0.833008 -11 1.5
s-6.66602 2 -9.99902 4s-6.66602 4.33301 -9.99902 7l-161 144h144z" />
    <glyph glyph-name="Eacute" unicode="&#xc9;" horiz-adv-x="574" 
d="M538 726v-118h-311v-186h242v-114h-242v-190h311v-118h-462v726h462zM534 932l-162 -143.001c-4 -2.66699 -7.66699 -5 -11 -7s-6.66602 -3.5 -9.99902 -4.5s-7 -1.66699 -11 -2s-8.66699 -0.5 -14 -0.5h-100l100 135c4 5.33301 7.66699 9.33301 11 12
s7 4.83398 11 6.50098s8.66699 2.66699 14 3s11.666 0.5 18.999 0.5h153z" />
    <glyph glyph-name="Ecircumflex" unicode="&#xca;" horiz-adv-x="574" 
d="M538 726v-118h-311v-186h242v-114h-242v-190h311v-118h-462v726h462zM501 775l-100 -0.000976562c-5.33301 0 -12 1 -20 3c-8 2.66699 -16 8.66699 -24 18l-34 46l-8 12l-8 -12l-34 -46c-8 -9.33301 -16 -15.166 -24 -17.499s-14.667 -3.5 -20 -3.5h-96l122 138h124z" />
    <glyph glyph-name="Edieresis" unicode="&#xcb;" horiz-adv-x="574" 
d="M538 726v-118h-311v-186h242v-114h-242v-190h311v-118h-462v726h462zM275 834c0 -9.33301 -2 -18.332 -6 -26.999s-9.33301 -16.167 -16 -22.5s-14.5 -11.333 -23.5 -15s-18.5 -5.5 -28.5 -5.5c-9.33301 0 -18.166 1.83301 -26.499 5.5s-15.666 8.66699 -21.999 15
s-11.5 13.666 -15.5 21.999c-4 9 -6 18.167 -6 27.5s2 18.333 6 27s9.16699 16.334 15.5 23.001s13.666 12 21.999 16s17.166 6 26.499 6c10 0 19.5 -2 28.5 -6s16.833 -9.33301 23.5 -16s12 -14.334 16 -23.001s6 -17.667 6 -27zM499 834.001
c0 -9.33301 -2 -18.332 -6 -26.999s-9.16699 -16.167 -15.5 -22.5s-13.833 -11.333 -22.5 -15s-18 -5.5 -28 -5.5s-19.333 1.83301 -28 5.5s-16.167 8.66699 -22.5 15s-11.5 13.666 -15.5 21.999c-4 9 -6 18.167 -6 27.5s2 18.333 6 27s9.16699 16.334 15.5 23.001
s13.833 12 22.5 16s18 6 28 6s19.333 -2 28 -6s16.167 -9.33301 22.5 -16s11.5 -14.334 15.5 -23.001s6 -17.667 6 -27z" />
    <glyph glyph-name="Igrave" unicode="&#xcc;" horiz-adv-x="303" 
d="M227 0h-151v726h151v-726zM74 932c6.66699 0 12.665 -0.166016 17.998 -0.499023s10 -1.33301 14 -3s8 -3.83398 12 -6.50098s8 -6.66699 12 -12l106 -135h-100c-5.33301 0 -10 0.166992 -14 0.5s-7.66699 0.833008 -11 1.5s-6.66602 2 -9.99902 4
s-6.66602 4.33301 -9.99902 7l-161 144h144z" />
    <glyph glyph-name="Iacute" unicode="&#xcd;" horiz-adv-x="303" 
d="M227 0h-151v726h151v-726zM372 932l-162 -143.001c-4 -2.66699 -7.66699 -5 -11 -7s-6.66602 -3.5 -9.99902 -4.5s-7 -1.66699 -11 -2s-8.66699 -0.5 -14 -0.5h-100l100 135c4 5.33301 7.66699 9.33301 11 12s7 4.83398 11 6.50098s8.66699 2.66699 14 3
s11.666 0.5 18.999 0.5h153z" />
    <glyph glyph-name="Icircumflex" unicode="&#xce;" horiz-adv-x="303" 
d="M227 0h-151v726h151v-726zM340 775l-100 -0.000976562c-5.33301 0 -12 1 -20 3c-8 2.66699 -16 8.66699 -24 18l-34 46l-8 12l-8 -12l-34 -46c-8 -9.33301 -16 -15.166 -24 -17.499s-14.667 -3.5 -20 -3.5h-96l122 138h124z" />
    <glyph glyph-name="Idieresis" unicode="&#xcf;" horiz-adv-x="303" 
d="M227 0h-151v726h151v-726zM114 834c0 -9.33301 -2 -18.332 -6 -26.999s-9.33301 -16.167 -16 -22.5s-14.5 -11.333 -23.5 -15s-18.5 -5.5 -28.5 -5.5c-9.33301 0 -18.166 1.83301 -26.499 5.5s-15.666 8.66699 -21.999 15s-11.5 13.666 -15.5 21.999
c-4 9 -6 18.167 -6 27.5s2 18.333 6 27s9.16699 16.334 15.5 23.001s13.666 12 21.999 16s17.166 6 26.499 6c10 0 19.5 -2 28.5 -6s16.833 -9.33301 23.5 -16s12 -14.334 16 -23.001s6 -17.667 6 -27zM338 834.001c0 -9.33301 -2 -18.332 -6 -26.999
s-9.16699 -16.167 -15.5 -22.5s-13.833 -11.333 -22.5 -15s-18 -5.5 -28 -5.5s-19.333 1.83301 -28 5.5s-16.167 8.66699 -22.5 15s-11.5 13.666 -15.5 21.999c-4 9 -6 18.167 -6 27.5s2 18.333 6 27s9.16699 16.334 15.5 23.001s13.833 12 22.5 16s18 6 28 6
s19.333 -2 28 -6s16.167 -9.33301 22.5 -16s11.5 -14.334 15.5 -23.001s6 -17.667 6 -27z" />
    </font>
</defs>
</svg>
