<?xml version="1.0" standalone="no"?>
<!DOCTYPE svg PUBLIC "-//W3C//DTD SVG 1.1//EN" "http://www.w3.org/Graphics/SVG/1.1/DTD/svg11.dtd" >
<svg>
<metadata>
Created by FontForge 20120731 at Fri Aug  1 16:50:21 2014
 By Alfred Xing
Copyright (c) 2011-2012, Jonathan Pinhorn (jonpinhorn.typedesign@gmail.com), with Reserved Font Names 'Karla'
</metadata>
<defs>
<font id="Karla-Regular" horiz-adv-x="280" >
  <font-face 
    font-family="Karla"
    font-weight="400"
    font-stretch="normal"
    units-per-em="1000"
    panose-1="0 0 0 0 0 0 0 0 0 0"
    ascent="800"
    descent="-200"
    x-height="478"
    cap-height="629"
    bbox="-85.999 -246 893.998 879"
    underline-thickness="50"
    underline-position="-50"
    unicode-range="U+0020-2212"
  />
<missing-glyph horiz-adv-x="553" 
 />
    <glyph glyph-name=".notdef" horiz-adv-x="553" 
 />
    <glyph glyph-name="space" unicode=" " horiz-adv-x="238" 
 />
    <glyph glyph-name="space" unicode="&#xa0;" horiz-adv-x="238" 
 />
    <glyph glyph-name="exclam" unicode="!" horiz-adv-x="278" 
d="M99 627h83l-9 -451h-64zM98.5 7.5c-11 11 -16.5 24.333 -16.5 40s5.5 29 16.5 40s25 16.5 42 16.5s31.333 -5.5 43 -16.5s17.5 -24.333 17.5 -40s-5.83301 -29 -17.5 -40s-26 -16.5 -43 -16.5s-31 5.5 -42 16.5z" />
    <glyph glyph-name="quotedbl" unicode="&#x22;" horiz-adv-x="306" 
d="M110 681l-11 -220h-60l-11 220h82zM278 681l-11 -220h-60l-11 220h82z" />
    <glyph glyph-name="numbersign" unicode="#" horiz-adv-x="627" 
d="M380 170h-154l-14 -139h-74l14 139h-99l5 54h100l19 178h-101l6 53h100l15 138h74l-15 -138h154l15 138h73l-15 -138h103l-6 -53h-102l-19 -178h103l-6 -54h-103l-14 -139h-74zM232 224h153l19 178h-153z" />
    <glyph glyph-name="dollar" unicode="$" horiz-adv-x="632" 
d="M417 330c46 -15.333 81.832 -35.8359 107.499 -61.5029s38.5 -60.667 38.5 -105s-19 -83.3887 -57 -117.166s-91 -52.5547 -159 -56.332v-81h-62v82c-63.2842 5.625 -115.105 25.4854 -155.463 59.5811s-60.5361 80.2354 -60.5361 138.419h77
c0 -75.1748 46.333 -117.175 139 -126v235l-32 12c-55.333 17.333 -97.166 38 -125.499 62s-42.5 58.333 -42.5 103s16.833 81.834 50.5 111.501s83.5 46.834 149.5 51.501v75h62v-76c58 -4.66699 102.667 -21.334 134 -50.001s50.666 -65.667 57.999 -111h-78
c-11.2773 53.5664 -49.2773 84.2334 -114 92v-215zM474.999 166.997c0 49.1514 -30.667 83.4844 -92 103l-36 12v-220c42 3.33301 73.833 15.333 95.5 36s32.5 43.667 32.5 69zM198.999 535.997c-19.333 -18 -29 -39.167 -29 -63.5s6.66699 -43.333 20 -57
s35 -25.167 65 -34.5l30 -11v199c-38 -4 -66.667 -15 -86 -33z" />
    <glyph glyph-name="percent" unicode="%" horiz-adv-x="726" 
d="M279 602c25.333 -25.333 38 -60.667 38 -106s-12.5 -80.5 -37.5 -105.5s-55.417 -37.5 -91.25 -37.5s-66 12.5996 -90.5 37.7998s-36.75 60.2666 -36.75 105.2s12.4121 80.167 37.2363 105.7s54.8242 38.2998 90 38.2998s65.4307 -12.667 90.7637 -38zM235 564.999
c-12 14.667 -27.667 22 -47 22s-35 -7.33301 -47 -22s-18 -37.667 -18 -69s6 -54 18 -68s27.667 -21 47 -21s35 7 47 21s18 36.667 18 68s-6 54.333 -18 69zM534 628.999h82l-423 -629h-81zM538 275.999c36 0 66.5 -12.5 91.5 -37.5s37.5 -60.333 37.5 -106
s-12.5 -81 -37.5 -106s-55.5 -37.5 -91.5 -37.5c-35.667 0 -65.75 12.5996 -90.25 37.7998s-36.75 60.4336 -36.75 105.7s12.25 80.5 36.75 105.7s54.583 37.7998 90.25 37.7998zM538 222.999c-19.333 0 -35 -7.33301 -47 -22s-18 -37.667 -18 -69s6 -54 18 -68
s27.667 -21 47 -21s35 7 47 21s18 36.667 18 68s-6 54.333 -18 69s-27.667 22 -47 22z" />
    <glyph glyph-name="ampersand" unicode="&#x26;" horiz-adv-x="916" 
d="M725 350c-29.8984 -91.1201 -68.2295 -165.12 -114.997 -222l43 -37c13.333 -11.333 25.166 -19.666 35.499 -24.999s23.666 -8 39.999 -8s31 6.16699 44 18.5s20.5 33.5 22.5 63.5h74c-2.66699 -48 -15.167 -85.167 -37.5 -111.5s-54.833 -39.5 -97.5 -39.5
c-26 0 -50 5.33301 -72 16s-46 27.667 -72 51l-26 22c-66.3965 -59.333 -142.396 -89 -228 -89c-69.959 0 -128.615 17.5781 -175.969 52.7344s-71.0303 77.3232 -71.0303 126.5s15.833 86.2656 47.5 111.266s78.167 42.5 139.5 52.5l-14 13
c-51.333 44.3965 -77 93.3965 -77 147c0 42.2666 17.417 77.333 52.25 105.199s81.1152 41.7998 138.846 41.7998s103.813 -13.9893 138.249 -41.9688s51.6533 -61.8125 51.6533 -101.5s-13 -73.8643 -39 -102.531s-68.333 -55.667 -127 -81l158 -139
c45.46 54.5518 82.793 123.552 112 207zM211.502 251c-24.333 -18 -36.501 -43 -36.501 -75s13.833 -59.5 41.5 -82.5s70.1836 -34.5 127.549 -34.5s113.016 22 166.951 66l-186 163c-51.333 -6.66699 -89.166 -19 -113.499 -37zM480.001 488c0 24 -9.16797 44 -27.501 60
s-44 24 -77 24s-58.667 -9.16699 -77 -27.5s-27.5 -38.166 -27.5 -59.499s4.33301 -40.333 13 -57s23 -33.667 43 -51l27 -25c69.0254 31.7139 109.192 65.0469 120.501 99.999c3.66699 11.333 5.5 23.333 5.5 36z" />
    <glyph glyph-name="quotesingle" unicode="'" horiz-adv-x="136" 
d="M109 677l-11 -220h-60l-11 220h82z" />
    <glyph glyph-name="parenleft" unicode="(" horiz-adv-x="356" 
d="M155 307c0 -136.659 57.667 -263.324 173 -379.999l-57 -40c-65.333 59.333 -114.666 125 -147.999 197s-50 146.5 -50 223.5s16.667 151.333 50 223s82.666 137.5 147.999 197.5l57 -41c-115.333 -116.675 -173 -243.342 -173 -380.001z" />
    <glyph glyph-name="parenright" unicode=")" horiz-adv-x="356" 
d="M201 307c0 136.659 -57.667 263.324 -173 379.999l57 41c65.333 -60 114.666 -125.833 147.999 -197.5s50 -146 50 -223s-16.667 -151.5 -50 -223.5s-82.666 -137.667 -147.999 -197l-57 40c115.333 116.675 173 243.342 173 380.001z" />
    <glyph glyph-name="asterisk" unicode="*" horiz-adv-x="412" 
d="M173 516l-117 40l24 54l106 -54l-10 128h62l-10 -128l106 54l24 -54l-116 -40l90 -89l-44 -39l-80 104l-80 -104l-45 39z" />
    <glyph glyph-name="plus" unicode="+" horiz-adv-x="527" 
d="M303 491v-212h206v-67h-206v-212h-79v212h-206v67h206v212h79z" />
    <glyph glyph-name="comma" unicode="," horiz-adv-x="210" 
d="M67 10c-10 8.66699 -15 20.335 -15 35.002s5.16699 27 15.5 37s25 15 44 15s34.833 -7.5 47.5 -22.5s19 -33.833 19 -56.5s-7.33301 -45.834 -22 -69.501s-37 -42.834 -67 -57.501l-59 29c41.627 20.0957 66.627 45.0957 75 75c-15.333 1.33301 -28 6.33301 -38 15z" />
    <glyph glyph-name="hyphen" unicode="-" horiz-adv-x="349" 
d="M38 325h272v-68h-272v68z" />
    <glyph glyph-name="period" unicode="." horiz-adv-x="179" 
d="M46.5 7.5c-11 11 -16.5 24.333 -16.5 40s5.5 29 16.5 40s25 16.5 42 16.5s31.167 -5.5 42.5 -16.5s17 -24.333 17 -40s-5.66699 -29 -17 -40s-25.5 -16.5 -42.5 -16.5s-31 5.5 -42 16.5z" />
    <glyph glyph-name="slash" unicode="/" horiz-adv-x="432" 
d="M308 731h80l-252 -804h-79z" />
    <glyph glyph-name="zero" unicode="0" horiz-adv-x="594" 
d="M477.803 556.219c44.1318 -55.8545 66.1973 -136.426 66.1973 -241.718s-22.0654 -185.865 -66.1973 -241.72s-104.148 -83.7812 -180.05 -83.7812s-136.002 27.6025 -180.303 82.8076s-66.4512 136.103 -66.4512 242.692s22.1504 187.487 66.4512 242.692
s104.401 82.8076 180.303 82.8076s135.918 -27.9268 180.05 -83.7812zM420 502.502c-28 43.667 -68.833 65.5 -122.5 65.5s-94.5 -21.833 -122.5 -65.5s-42 -106.334 -42 -188.001s14 -144.334 42 -188.001s68.833 -65.5 122.5 -65.5s94.5 21.833 122.5 65.5
s42 106.334 42 188.001s-14 144.334 -42 188.001z" />
    <glyph glyph-name="one" unicode="1" horiz-adv-x="331" 
d="M49 580c44.8857 5.79199 83.8848 22.792 116.999 51h64v-631h-78v537c-33.333 -21.333 -67.666 -33 -102.999 -35v78z" />
    <glyph glyph-name="two" unicode="2" horiz-adv-x="580" 
d="M143 73h365.001v-73h-444v93c0 73.9248 28.167 128.425 84.5 163.5c17.667 11 37.5 20.833 59.5 29.5l124 50c64 25.333 96 67 96 125c0 32 -11 58.167 -33 78.5s-52.833 30.5 -92.5 30.5s-72 -8.33301 -97 -25s-39.5 -41.667 -43.5 -75h-87
c3.33301 54.667 25.333 96.667 66 126s92.7656 44 156.296 44s115.363 -17.251 155.499 -51.7539s60.2041 -77.3359 60.2041 -128.5s-13.167 -91.7461 -39.5 -121.746s-62.5 -54 -108.5 -72l-127 -51c-32 -13.333 -55.833 -28.5 -71.5 -45.5s-23.5 -39.167 -23.5 -66.5v-30z
" />
    <glyph glyph-name="three" unicode="3" horiz-adv-x="591" 
d="M505 468c0 -66.8643 -36.6641 -113.198 -109.997 -139.001c40 -11.333 72.333 -30 97 -56s37 -59.333 37 -100c0 -55.5996 -20.958 -100.166 -62.875 -133.699s-97.2207 -50.2998 -165.912 -50.2998s-127.233 17.8838 -175.626 53.6523
s-72.5889 85.8848 -72.5889 150.349h82c1.33301 -42.667 17.1104 -75.334 47.333 -98.001s68.7227 -34 115.5 -34s83 11.167 108.667 33.5s38.5 50 38.5 83s-12.333 60 -37 81s-64.667 31.5 -120 31.5h-72v63h49c48 0 86 9.5 114 28.5s42 44.5 42 76.5
s-11.333 58.333 -34 79s-52.667 31 -90 31s-68.5 -6.5 -93.5 -19.5s-41.833 -37.167 -50.5 -72.5h-82c7.55176 55.3818 30.5479 96.5605 68.9883 123.536s88.3008 40.4639 149.58 40.4639s112.671 -16.1006 154.175 -48.3018s62.2559 -73.4336 62.2559 -123.698z" />
    <glyph glyph-name="four" unicode="4" horiz-adv-x="559" 
d="M428 638v-418h109v-68h-109v-152h-77v152h-325v61l329 425h73zM120 213h233v300z" />
    <glyph glyph-name="five" unicode="5" horiz-adv-x="565" 
d="M427 204c0 79.333 -51.667 118.998 -155 118.998h-169l27 306h349v-72h-273l-17 -181c34.5 6 67.5 9 99 9c68.667 0 122.667 -15.167 162 -45.5s59 -76.0918 59 -137.275s-20.5967 -112.017 -61.79 -152.499s-94.5059 -60.7236 -159.937 -60.7236
s-118.834 16.4805 -160.21 49.4414c-41.376 32.96 -62.0635 78.4795 -62.0635 136.559h79c0 -54.4316 28.167 -89.9316 84.5 -106.5c17 -5 35.833 -7.5 56.5 -7.5c42.3857 0 76.6484 13.4238 102.789 40.2705s39.2109 61.0898 39.2109 102.729z" />
    <glyph glyph-name="six" unicode="6" horiz-adv-x="573" 
d="M425 470c-11.6152 65.333 -47.3818 98.002 -107.306 98.002s-106.021 -24.7168 -138.289 -74.1494s-48.4023 -116.717 -48.4023 -201.852c0 -35.333 1.66699 -64.666 5 -87.999c3.76367 61.4805 22.5459 106.018 56.3467 133.61
c33.8018 27.5928 77.1025 41.3896 129.903 41.3896s98.126 -18.5742 135.975 -55.7227s56.7734 -84.4434 56.7734 -141.885s-19.624 -104.034 -58.8721 -139.778s-90.957 -53.6162 -155.127 -53.6162c-74.8623 0 -135.245 30.0127 -181.147 90.0381
s-68.8535 138.849 -68.8535 236.47s23.333 176.285 70 235.991c46.6357 59.667 110.303 89.5 191 89.5c55.7773 0 101.385 -15.6338 136.822 -46.9023s55.8301 -72.3008 61.1768 -123.097h-85zM207.503 273.502c-25 -23.5713 -37.501 -53.667 -37.501 -90.2861
s12.2656 -66.1426 36.7969 -88.5713s55.8643 -33.6426 94 -33.6426s69.7031 11 94.7031 33s37.5 52.333 37.5 91s-12.5 69 -37.5 91s-56.3076 33 -93.9238 33s-68.9746 -11.833 -94.0752 -35.5z" />
    <glyph glyph-name="seven" unicode="7" horiz-adv-x="470" 
d="M452 629v-73l-288 -556h-106l302 553h-336v76h428z" />
    <glyph glyph-name="eight" unicode="8" horiz-adv-x="615" 
d="M201 318c-83.333 37.8789 -125.001 89.5469 -125.001 155.001c0 49.9209 20.5869 90.2344 61.7607 120.94s95.9424 46.0596 164.305 46.0596s124.608 -16.3711 168.739 -49.1133s66.1963 -74.7041 66.1963 -125.887c0 -34.667 -11.5 -65.667 -34.5 -93
s-56.833 -44.333 -101.5 -51l17 -6c46 -17.333 81.333 -37.833 106 -61.5s37 -55.834 37 -96.501c0 -50.5459 -22.5332 -91.1826 -67.5996 -121.91s-105.785 -46.0908 -182.156 -46.0908s-138.171 16.918 -185.4 50.7539s-70.8438 76.585 -70.8438 128.247
c0 41.333 13.5 75 40.5 101s62.167 42.333 105.5 49zM275.999 289.001c-42 -4.66699 -75.665 -17.832 -100.998 -39.499s-38 -48.4355 -38 -80.3047s15.9658 -57.8691 47.8965 -78s73.7637 -30.1963 125.499 -30.1963s92.7695 8.66699 123.103 26s45.5 38.333 45.5 63
s-8 44.5 -24 59.5s-38 27.5 -66 37.5zM159.001 463.003c0 -18 7.33105 -33.501 21.998 -46.501s35.667 -24.833 63 -35.5l73 -28c40.1885 1.38574 73.2354 11.8809 99.1416 31.4854s38.8594 45.2578 38.8594 76.9609s-13.667 57.3877 -41 77.0547
s-62.6289 29.5 -105.888 29.5s-78.9258 -9.47461 -107 -28.4248s-42.1113 -44.4756 -42.1113 -76.5752z" />
    <glyph glyph-name="nine" unicode="9" horiz-adv-x="581" 
d="M282.5 640c33.667 0 65.8311 -7.33691 96.498 -22.0039s57.167 -35.667 79.5 -63c47.667 -58.3379 71.5 -134.671 71.5 -228.999c0 -163.011 -45.5 -267.511 -136.5 -313.5c-31 -15.667 -64.833 -23.5 -101.5 -23.5c-68.541 0 -122.843 18.626 -162.905 55.8779
c-40.0625 37.251 -60.0938 84.292 -60.0938 141.122h83c1.33301 -38 13.333 -68.333 36 -91s51.334 -34 86.001 -34s62.5 6.5 83.5 19.5c61 37.7617 91.5 123.262 91.5 256.5c0 27.1113 -1.66699 51.7783 -5 74.001c-6.66699 -54 -26.167 -94.333 -58.5 -121
s-74.7422 -40 -127.227 -40s-97.6514 18.5742 -135.5 55.7227s-56.7734 84.2412 -56.7734 141.278c0 58.2139 19.7266 104.935 59.1797 140.161s91.8936 52.8398 157.32 52.8398zM278.997 566.996c-38 0 -69.3311 -10.998 -93.998 -32.998s-37 -52.333 -37 -91
s12.5 -69 37.5 -91s56.3076 -33 93.9238 -33s68.9746 11.833 94.0752 35.5c25 23.5713 37.5 53.751 37.5 90.5391s-12.5205 66.3115 -37.5625 88.5703s-56.5215 33.3887 -94.4385 33.3887z" />
    <glyph glyph-name="colon" unicode=":" horiz-adv-x="231" 
d="M72.5 39.5c-11 11 -16.5 24.333 -16.5 40s5.5 29 16.5 40s25 16.5 42 16.5s31.167 -5.5 42.5 -16.5s17 -24.333 17 -40s-5.66699 -29 -17 -40s-25.5 -16.5 -42.5 -16.5s-31 5.5 -42 16.5zM72.5 345.5c-11 11 -16.5 24.333 -16.5 40s5.5 29 16.5 40s25 16.5 42 16.5
s31.167 -5.5 42.5 -16.5s17 -24.333 17 -40s-5.66699 -29 -17 -40s-25.5 -16.5 -42.5 -16.5s-31 5.5 -42 16.5z" />
    <glyph glyph-name="semicolon" unicode=";" horiz-adv-x="262" 
d="M94 10c-10 8.66699 -15 20.335 -15 35.002s5.16699 27 15.5 37s25 15 44 15s34.833 -7.5 47.5 -22.5s19 -33.833 19 -56.5s-7.33301 -45.834 -22 -69.501s-37 -42.834 -67 -57.501l-59 29c41.627 20.0957 66.627 45.0957 75 75c-15.333 1.33301 -28 6.33301 -38 15z
M98.5 345.501c-11 11 -16.5 24.333 -16.5 40s5.5 29 16.5 40s25 16.5 42 16.5s31.167 -5.5 42.5 -16.5s17 -24.333 17 -40s-5.66699 -29 -17 -40s-25.5 -16.5 -42.5 -16.5s-31 5.5 -42 16.5z" />
    <glyph glyph-name="less" unicode="&#x3c;" horiz-adv-x="454" 
d="M408 512l-288 -207l288 -204l-52 -61l-316 231v69l316 232z" />
    <glyph glyph-name="equal" unicode="=" horiz-adv-x="488" 
d="M409 185v-68h-330v68h330zM409 377v-69h-330v69h330z" />
    <glyph glyph-name="greater" unicode="&#x3e;" horiz-adv-x="454" 
d="M98 572l316 -232v-69l-316 -231l-51 61l286 204l-286 207z" />
    <glyph glyph-name="question" unicode="?" horiz-adv-x="499" 
d="M248 568c-78.1816 0 -122.849 -30.6699 -134 -92.0029h-84c4.66699 49.333 25 89 61 119s86.5625 45 151.688 45s116.459 -15.9375 154 -47.8115s56.3115 -70.9365 56.3115 -117.188c0 -34.667 -8.66699 -63.5 -26 -86.5s-45.333 -45.167 -84 -66.5
c-16.667 -9.33301 -30.667 -17.666 -42 -24.999s-20.333 -15.5 -27 -24.5c-12.667 -17.0996 -19 -41.2666 -19 -72.5v-39h-78v45c0 42.2314 7.06152 74.3994 21.1836 96.5039s39.459 43.1621 76.0107 63.1729s61.1572 37.5518 73.8164 52.623
s18.9893 35.2891 18.9893 60.6543s-10.5 46.5479 -31.5 63.5479s-50.167 25.5 -87.5 25.5zM217 101.997c17.333 0 31.666 -5.66699 42.999 -17s17 -24.833 17 -40.5s-5.66699 -28.834 -17 -39.501s-25.666 -16 -42.999 -16s-31.333 5.33301 -42 16s-16 23.834 -16 39.501
s5.33301 29.167 16 40.5s24.667 17 42 17z" />
    <glyph glyph-name="at" unicode="@" horiz-adv-x="940" 
d="M575 289c0 56 -19.8311 83.998 -59.498 83.998c-38.6973 0 -73.7881 -16.1084 -105.272 -48.3252s-47.2266 -73.1084 -47.2266 -122.674c0 -35.333 9.16699 -62.666 27.5 -81.999s41.166 -29 68.499 -29s49.666 7.83301 66.999 23.5s33.666 38.5 48.999 68.5v106z
M641.002 137.998c0 -34 13 -50.998 39 -50.998c13.333 0 27.833 4.5 43.5 13.5s30 22.167 43 39.5c30.333 40.4443 45.5 92.4443 45.5 156c0 79.4014 -27.0361 144.752 -81.1084 196.051s-127.369 76.9482 -219.892 76.9482c-54.667 0 -104.334 -9.33301 -149.001 -28
s-82.834 -43.834 -114.501 -75.501c-66.333 -66.333 -99.5 -149.168 -99.5 -248.505s35.333 -179.835 106 -241.495c70.6738 -61.667 167.674 -92.5 291 -92.5v-64c-141.889 0 -257.556 38.333 -347 115c-42 36 -74.333 78.833 -97 128.5s-34 104.167 -34 163.5
s11 114.333 33 165s52.667 94.5 92 131.5s86.166 65.833 140.499 86.5s111.833 31 172.5 31s114.667 -9 162 -27s87.666 -42.5 120.999 -73.5s59.333 -67.5 78 -109.5s28 -85.167 28 -129.5c0 -81.5557 -21.4521 -147.361 -64.3564 -197.417
s-93.1182 -75.083 -150.642 -75.083c-28.667 0 -51.667 6 -69 18s-27.666 29.333 -30.999 52l-3 16c-12 -25.333 -28 -46 -48 -62s-43.5 -24 -70.5 -24c-48.7041 0 -88.9629 16.2686 -120.777 48.8066s-47.7217 73.9355 -47.7217 124.193
c0 66.2793 22.0742 121.85 66.2227 166.71s96.4072 67.29 156.777 67.29c40 0 71.5 -12 94.5 -36s34.5 -60.333 34.5 -109v-152z" />
    <glyph glyph-name="A" unicode="A" horiz-adv-x="575" 
d="M242 629h96l211 -629h-82l-54 160h-250l-54 -160h-83zM184 222h209l-104 310z" />
    <glyph glyph-name="B" unicode="B" horiz-adv-x="622" 
d="M101 629l235.001 -0.000976562c66.2666 0 117.167 -15.6768 152.7 -47.0293s53.2998 -70.6758 53.2998 -117.97c0 -36 -9.83301 -67.333 -29.5 -94s-49.5 -44.667 -89.5 -54c39.21 -6.76074 70.6787 -23.75 94.4072 -50.9678s35.5928 -58.2285 35.5928 -93.0322
c0 -77.3174 -37.833 -129.65 -113.5 -157c-27.667 -10 -61.834 -15 -102.501 -15h-236v629zM335.001 68.999c48 0 82.333 9.66699 103 29s31 45 31 77s-11.333 57.5 -34 76.5s-56 28.5 -100 28.5h-155v-211h155zM180.001 347.999h154c38.667 0 69.5 9.5 92.5 28.5
s34.5 45.167 34.5 78.5s-11.167 59.333 -33.5 78s-53.5 28 -93.5 28h-154v-213z" />
    <glyph glyph-name="C" unicode="C" horiz-adv-x="613" 
d="M319 640c67.333 0 121.499 -16.833 162.499 -50.5s69.167 -77.5 84.5 -131.5l-85 -17c-13.333 39.333 -34.166 70.5 -62.499 93.5s-61.5 34.5 -99.5 34.5c-52.4023 0 -96.0029 -21.9238 -130.802 -65.7705s-52.1982 -104.969 -52.1982 -183.366
s15.4639 -141.308 46.3916 -188.729s76.4639 -71.1328 136.608 -71.1328c50 0 89.5 13.167 118.5 39.5s43.5 61.166 43.5 104.499h85c0 -65.9893 -22.4434 -118.32 -67.3301 -156.992s-106.635 -58.0078 -185.244 -58.0078s-141.999 30.0195 -190.17 90.0586
s-72.2559 140.352 -72.2559 240.938s25.0557 179.066 75.167 235.441s114.389 84.5625 192.833 84.5625z" />
    <glyph glyph-name="D" unicode="D" horiz-adv-x="661" 
d="M285 629c94.667 0 170.5 -28.5 227.5 -85.5s85.5 -133.333 85.5 -229s-28.5 -172 -85.5 -229s-132.833 -85.5 -227.5 -85.5h-185v629h185zM179 69h106c69.9492 0 125.604 23.1328 166.962 69.3984s62.0381 105.133 62.0381 176.602
c0 71.1641 -20.7637 129.622 -62.292 175.373s-97.0977 68.627 -166.708 68.627h-106v-490z" />
    <glyph glyph-name="E" unicode="E" horiz-adv-x="562" 
d="M100 629h387v-68h-308v-211h290v-67h-290v-214h308v-69h-387v629z" />
    <glyph glyph-name="F" unicode="F" horiz-adv-x="524" 
d="M101 629h382v-68h-303v-209h282v-68h-282v-284h-79v629z" />
    <glyph glyph-name="G" unicode="G" horiz-adv-x="645" 
d="M490 108c-27.8359 -79.333 -82.1797 -119.001 -163.028 -119.001s-147.057 29.3154 -198.623 87.9453s-77.3496 137.673 -77.3496 237.129s28.2441 178.475 84.7324 237.055s126.577 87.8701 210.268 87.8701c49.333 0 92.5 -10 129.5 -30s68.833 -52 95.5 -96l-76 -26
c-43.333 54 -94.0615 81 -152.186 81s-107.291 -23.6318 -147.5 -70.8945s-60.3135 -108.822 -60.3135 -184.679s17.3789 -136.725 52.1367 -182.604s81.3789 -68.8203 139.863 -68.8203c47.9717 0 86.6309 16.0391 115.979 48.1162s44.0215 79.3721 44.0215 141.884v2
l-158 6v52h235v-311h-64z" />
    <glyph glyph-name="H" unicode="H" horiz-adv-x="669" 
d="M180 629v-277h309v277h79v-629h-79v284h-309v-284h-79v629h79z" />
    <glyph glyph-name="I" unicode="I" 
d="M101 629h79v-629h-79v629z" />
    <glyph glyph-name="J" unicode="J" horiz-adv-x="404" 
d="M277.5 34c-31 -30 -70.4453 -45 -118.334 -45s-98.2773 14 -151.166 42v82c46.667 -32 90.5 -48 131.5 -48s68.833 10 83.5 30s22 49 22 87v447h79v-447c0 -68.667 -15.5 -118 -46.5 -148z" />
    <glyph glyph-name="K" unicode="K" horiz-adv-x="609" 
d="M181 629v-291l281 291h109l-275 -283l292 -346h-102l-243 291l-62 -64v-227h-80v629h80z" />
    <glyph glyph-name="L" unicode="L" horiz-adv-x="468" 
d="M180 69h280v-69h-359v629h79v-560z" />
    <glyph glyph-name="M" unicode="M" horiz-adv-x="848" 
d="M214 629l212 -426l210 426h111v-629h-79v517l-216 -438h-53l-219 445v-524h-79v629h113z" />
    <glyph glyph-name="N" unicode="N" horiz-adv-x="685" 
d="M193 629l312 -505v505h79v-629h-88l-317 512v-512h-80v629h94z" />
    <glyph glyph-name="O" unicode="O" horiz-adv-x="646" 
d="M323 640c81.3662 0 147.21 -27.915 197.526 -83.7461s75.4746 -136.843 75.4746 -243.034s-25.083 -186.776 -75.25 -241.754s-116.084 -82.4658 -197.751 -82.4658c-82.2959 0 -148.203 27.8545 -197.722 83.5625s-74.2773 136.188 -74.2773 241.438
c0 105.917 24.7588 186.729 74.2773 242.438s115.426 83.5625 197.722 83.5625zM323.002 569c-58.667 0 -105 -22 -139 -66s-51 -107.333 -51 -190s17 -145.334 51 -188.001s80.333 -64 139 -64s105.167 21.333 139.5 64s51.5 105.334 51.5 188.001s-17.167 146 -51.5 190
s-80.833 66 -139.5 66z" />
    <glyph glyph-name="P" unicode="P" horiz-adv-x="554" 
d="M460.5 576.5c36.333 -35 54.5 -82.168 54.5 -141.501s-18.167 -106.166 -54.5 -140.499s-89.166 -51.5 -158.499 -51.5h-124v-243h-79v629h203c69.333 0 122.166 -17.5 158.499 -52.5zM302 310.999c43.333 0 76.166 11 98.499 33s33.5 52.167 33.5 90.5
s-11.167 69 -33.5 92s-55.166 34.5 -98.499 34.5h-124v-250h124z" />
    <glyph glyph-name="Q" unicode="Q" horiz-adv-x="652" 
d="M596 -148c-26.4844 -12.667 -54.6025 -19.001 -84.3604 -19.001c-56.6367 0 -105.183 29.667 -145.637 89l-47 67c-80.3428 1.38477 -145.095 29.7314 -194.257 85.0391s-73.7432 135.607 -73.7432 240.899s24.7588 185.792 74.2773 241.5
s115.426 83.5625 197.722 83.5625c81.3662 0 147.208 -27.915 197.524 -83.7461s75.4746 -136.582 75.4746 -242.253c0 -87.9619 -17.7021 -158.836 -53.1064 -212.623s-83.3691 -88.2461 -143.895 -103.377l31 -44c19.0303 -25.7471 42.0303 -39.4141 69 -41.001
c28.5557 0 60.8887 8.33301 97 25v-86zM323.003 568.999c-58.667 0 -105 -22 -139 -66s-51 -107.333 -51 -190s17 -145.334 51 -188.001s80.333 -64 139 -64s105.167 21.333 139.5 64s51.5 105.334 51.5 188.001s-17.167 146 -51.5 190s-80.833 66 -139.5 66z" />
    <glyph glyph-name="R" unicode="R" horiz-adv-x="613" 
d="M497.5 323c-27.667 -32 -68.499 -52.667 -122.499 -62l180 -261h-102l-163 257h-110v-257h-79v629h219c70.8662 0 125.083 -17.0762 162.649 -51.2275s56.3496 -77.1514 56.3496 -129s-13.833 -93.7725 -41.5 -125.772zM314.001 312c47.333 0 83.168 11.5 107.501 34.5
s36.5 53.333 36.5 91s-11.833 67.667 -35.5 90s-57.834 33.5 -102.501 33.5h-140v-249h134z" />
    <glyph glyph-name="S" unicode="S" horiz-adv-x="605" 
d="M436 476c-11.1514 61.333 -56.1494 91.999 -134.998 91.999c-42 0 -74.333 -9.16699 -97 -27.5s-34 -40.333 -34 -66s7 -45.167 21 -58.5s36.667 -25 68 -35l131 -45c44.667 -15.333 80.167 -36.333 106.5 -63s39.5 -64.167 39.5 -112.5s-20.625 -89 -61.875 -122
s-96.623 -49.5 -166.12 -49.5s-126.384 17.5703 -170.66 52.7109s-67.0576 84.2373 -68.3447 147.29h77c0 -41.3018 14.4482 -72.9609 43.3438 -94.9766s66.2285 -33.0234 111.999 -33.0234s81.9893 10.167 108.656 30.5s40 44.333 40 72s-8.16699 49.5 -24.5 65.5
s-40.5 29.333 -72.5 40l-111 41c-52 17.333 -91.333 38 -118 62s-40 59.167 -40 105.5s18.667 85 56 116s89.666 46.5 156.999 46.5s118.833 -14.833 154.5 -44.5s56.167 -69.5 61.5 -119.5h-77z" />
    <glyph glyph-name="T" unicode="T" horiz-adv-x="501" 
d="M6 629h489v-68h-205v-561h-79v561h-205v68z" />
    <glyph glyph-name="U" unicode="U" horiz-adv-x="654" 
d="M166 629v-402c0 -58.667 14.667 -101 44 -127s68 -39 116 -39s86.667 13 116 39s44 68.333 44 127v402h79v-402c0 -78.667 -21.667 -138 -65 -178s-101.5 -60 -174.5 -60s-131 20 -174 60s-64.5 99.333 -64.5 178v402h79z" />
    <glyph glyph-name="V" unicode="V" horiz-adv-x="563" 
d="M101 629l180 -529l181 529h83l-223 -629h-82l-222 629h83z" />
    <glyph glyph-name="W" unicode="W" horiz-adv-x="895" 
d="M102 629l153 -523l155 458h53l154 -458l176 523h87l-222 -629h-83l-137 403l-142 -403h-83l-199 629h88z" />
    <glyph glyph-name="X" unicode="X" horiz-adv-x="642" 
d="M593 0h-98l-182 251l-169 -251h-96l222 312l-223 317h95l180 -257l166 257h95l-217 -316z" />
    <glyph glyph-name="Y" unicode="Y" horiz-adv-x="549" 
d="M104 629l169 -289l173 289h93l-226 -371v-258h-80v258l-223 371h94z" />
    <glyph glyph-name="Z" unicode="Z" horiz-adv-x="592" 
d="M73 71l363 483l-363 3v72h462v-71l-363 -483l363 -3v-72h-462v71z" />
    <glyph glyph-name="bracketleft" unicode="[" horiz-adv-x="317" 
d="M101 731h198v-70h-119v-693h119v-70h-198v833z" />
    <glyph glyph-name="backslash" unicode="\" horiz-adv-x="432" 
d="M45 731h79l252 -804h-80z" />
    <glyph glyph-name="bracketright" unicode="]" horiz-adv-x="285" 
d="M184 -102h-198v70h119v693h-119v70h198v-833z" />
    <glyph glyph-name="asciicircum" unicode="^" horiz-adv-x="448" 
d="M21 245l176 341h61l176 -341h-88l-119 246l-117 -246h-89z" />
    <glyph glyph-name="underscore" unicode="_" horiz-adv-x="726" 
d="M55 -56h616v-68h-616v68z" />
    <glyph glyph-name="grave" unicode="`" horiz-adv-x="315" 
d="M57 860l235 -133l-23 -50l-245 113z" />
    <glyph glyph-name="a" unicode="a" horiz-adv-x="560" 
d="M397 310c0 43.333 -9 74.334 -27 93.001s-44.167 28 -78.5 28s-62 -6.83301 -83 -20.5s-31.5 -35.167 -31.5 -64.5h-87c0 73.1855 39.333 118.519 118 136c24 5.33301 50.167 8 78.5 8c58.7422 0 104.845 -15.0234 138.307 -45.0713s50.1934 -75.6904 50.1934 -136.929
v-308h-68l-8 80c-29.333 -60.667 -82.333 -91 -159 -91c-51.4961 0 -92.7031 14.4053 -123.622 43.2158s-46.3779 64.4268 -46.3779 106.85s17.2139 75.6846 51.6426 99.7842s77.2617 36.1494 128.5 36.1494s100.19 -8.66699 146.857 -26v61zM397 199.001
c-47.4072 13.333 -88.7607 20 -124.057 20s-63.9443 -6.33301 -85.9443 -19s-33 -32.667 -33 -60c0 -60 34 -90 102 -90c38.667 0 71.834 13.833 99.501 41.5s41.5 63.5 41.5 107.5z" />
    <glyph glyph-name="b" unicode="b" horiz-adv-x="584" 
d="M180 407c31.8164 55.333 78.4102 83.002 139.778 83.002s112.414 -22.8623 153.138 -68.5879s61.0859 -106.054 61.0859 -180.984s-20.7148 -135.568 -62.1445 -181.913s-91.7148 -69.5166 -150.856 -69.5166c-32 0 -60.833 8 -86.5 24s-45.834 39.667 -60.501 71
l-18 -84h-55v681h79v-274zM219.737 383.272c-25.1865 -24.4863 -38.4287 -58.2422 -39.7324 -101.27v-78c0 -44 13.167 -79.167 39.5 -105.5s58.209 -39.5 95.627 -39.5s69.751 16.4189 96.999 49.2568s40.8721 76.752 40.8721 131.743s-13.4854 98.7393 -40.457 131.243
s-59.5527 48.7559 -97.7432 48.7559s-69.8789 -12.2432 -95.0654 -36.7295z" />
    <glyph glyph-name="c" unicode="c" horiz-adv-x="515" 
d="M395.128 446.513c33.1328 -28.9912 54.7559 -65.1631 64.8711 -108.514l-80 -7c-8.66699 28 -22.667 49.833 -42 65.5s-40.5 23.5 -63.5 23.5c-43.0596 0 -77.7412 -15.9951 -104.045 -47.9863s-39.4551 -75.4219 -39.4551 -130.292s12.8193 -99.041 38.458 -132.514
s57.6387 -50.209 96 -50.209s67.042 8.83301 86.042 26.5s28.5 42.834 28.5 75.501h81c0 -51.4512 -17.9111 -92.9805 -53.7334 -124.588s-82.2441 -47.4111 -139.267 -47.4111c-60.4619 0 -111.911 22.9863 -154.347 68.959s-63.6533 107.084 -63.6533 183.334
s20.9893 136.764 62.9688 181.541s91.2178 67.166 147.715 67.166s101.312 -14.4961 134.445 -43.4873z" />
    <glyph glyph-name="d" unicode="d" horiz-adv-x="594" 
d="M414 407l-0.000976562 274h78v-681h-64l-10 80c-15.333 -30 -35.666 -52.667 -60.999 -68s-53 -23 -83 -23c-60.8281 0 -111.702 23.2812 -152.621 69.8447s-61.3789 107.388 -61.3789 182.474s20.1953 135.305 60.5859 180.655s91.4365 68.0264 153.138 68.0264
s108.46 -27.667 140.276 -83zM180.701 370.895c-26.4678 -32.7373 -39.7021 -76.3691 -39.7021 -130.896s13.3691 -98.3242 40.1064 -131.395s58.7324 -49.6055 95.9854 -49.6055s69.0654 12.4727 95.4365 37.4189s40.1953 58.4736 41.4717 100.582v78
c0 44.667 -13 80 -39 106s-58.2656 39 -96.7979 39s-71.0322 -16.3682 -97.5 -49.1055z" />
    <glyph glyph-name="e" unicode="e" horiz-adv-x="515" 
d="M266 53c66.1064 0 103.772 29.001 113 87.001h81c-7.33301 -48 -28.5 -85.167 -63.5 -111.5s-78.5 -39.5 -130.5 -39.5c-64.123 0 -116.154 22.7715 -156.093 68.3154s-59.9072 106.4 -59.9072 182.569s20.2051 136.897 60.6152 182.185s94.0859 67.9307 161.027 67.9307
s116.878 -25.9258 149.811 -77.7773s44.4482 -115.26 34.5469 -190.225h-327c0 -49.4512 11.9404 -89.9805 35.8223 -121.588s57.6074 -47.4111 101.178 -47.4111zM323.499 415.001c-15 8 -33.333 12.002 -55 12.002c-41.2998 0 -73.6699 -13.7891 -97.1113 -41.3672
s-37.2373 -62.123 -41.3887 -103.634h255c0 66.7998 -20.5 111.133 -61.5 132.999z" />
    <glyph glyph-name="f" unicode="f" horiz-adv-x="343" 
d="M333 614c-21.667 8.66699 -38.916 13.002 -51.749 13.002c-23.3428 0 -41.7207 -5.7002 -55.1328 -17.1006s-20.1182 -31.3672 -20.1182 -59.9004v-72h99v-54h-99v-424h-78v424h-79v54h79v73c0 47.333 13 82.166 39 104.499s56 33.5 90 33.5s64 -4.33301 90 -13z" />
    <glyph glyph-name="g" unicode="g" horiz-adv-x="565" 
d="M121 15c-40 19.3105 -60.002 49.1465 -60.002 89.5029c0 20.333 7.83301 38.333 23.5 54s35.167 26.167 58.5 31.5c-36 31.8457 -54 73.8457 -54 126c0 52.0254 18.4814 94.0322 55.4443 126.02s80.8057 47.9805 131.529 47.9805s93.7324 -12 129.026 -36
c4.66699 35.333 18.834 63.666 42.501 84.999s54.834 32 93.501 32l-7 -78c-58.7373 0 -89.4043 -24.667 -92.001 -74c23.333 -28.8232 35 -63.1562 35 -102.999c0 -51.5977 -18.5322 -93.8301 -55.5957 -126.698s-83.1982 -49.3018 -138.404 -49.3018
c-38 0 -71.667 7.66699 -101 23c-13.333 -2.66699 -25.333 -8.83398 -36 -18.501s-16 -22.834 -16 -39.501c0 -35.333 29.333 -53 88 -53h186c44.667 0 80 -9.5 106 -28.5s39 -45.5 39 -79.5c0 -50.333 -25.4443 -94.583 -76.333 -132.75s-115.409 -57.25 -193.561 -57.25
s-139.54 14.5215 -184.166 43.5635s-66.9395 65.5205 -66.9395 109.436c0 28.667 8.5 52 25.5 70s39.5 30.667 67.5 38zM105.998 -89.9971c0 -25.333 13.833 -47.167 41.5 -65.5s69.6377 -27.5 125.912 -27.5s103.274 12.1006 141 36.3018s56.5879 52.7676 56.5879 85.6982
c0 15.333 -5.5 28.5 -16.5 39.5s-27.833 16.5 -50.5 16.5h-193c-34 -1.33301 -60 -9.5 -78 -24.5s-27 -35.167 -27 -60.5zM368.998 400.502c-20.667 21.667 -49.167 32.501 -85.5 32.501s-64.833 -10.833 -85.5 -32.5s-31 -49.834 -31 -84.501s10.5 -63.167 31.5 -85.5
s49.5 -33.5 85.5 -33.5s64.333 11.333 85 34s31 51.167 31 85.5s-10.333 62.333 -31 84z" />
    <glyph glyph-name="h" unicode="h" horiz-adv-x="604" 
d="M180 390c31.9443 66.667 84.9453 100 159.001 100c56.667 0 100.834 -18.667 132.501 -56s47.5 -88.333 47.5 -153v-281h-78v281c0 46 -10.833 80.667 -32.5 104s-52.834 35 -93.501 35s-73.334 -17.167 -98.001 -51.5s-37 -81.833 -37 -142.5v-226h-79v681h79v-291z" />
    <glyph glyph-name="i" unicode="i" horiz-adv-x="299" 
d="M106 479h79v-479h-79v479zM107.5 604.5c-9 9 -13.5 21 -13.5 36s4.5 27 13.5 36s21.5 13.5 37.5 13.5s28.833 -4.5 38.5 -13.5s14.5 -21 14.5 -36s-4.83301 -27 -14.5 -36s-22.5 -13.5 -38.5 -13.5s-28.5 4.5 -37.5 13.5z" />
    <glyph glyph-name="j" unicode="j" horiz-adv-x="314" 
d="M122.5 604.5c-9 9 -13.5 21 -13.5 36s4.5 27 13.5 36s21.5 13.5 37.5 13.5s28.833 -4.5 38.5 -13.5s14.5 -21 14.5 -36s-4.83301 -27 -14.5 -36s-22.5 -13.5 -38.5 -13.5s-28.5 4.5 -37.5 13.5zM33 -177c58.667 0 88.002 36.667 88.002 110v547h79v-547
c0 -91.2383 -30 -147.571 -90 -169c-18.667 -6.66699 -39.334 -10 -62.001 -10c-41.3701 0 -86.0371 12.333 -134 37l4 69c42.0781 -24.667 80.4111 -37 114.999 -37z" />
    <glyph glyph-name="k" unicode="k" horiz-adv-x="564" 
d="M244 253l-64 -52v-201h-79v681h79v-396l231 193h110l-220 -179l231 -299h-97z" />
    <glyph glyph-name="l" unicode="l" 
d="M101 681h79v-681h-79v681z" />
    <glyph glyph-name="m" unicode="m" horiz-adv-x="935" 
d="M177 386c31.2676 69.333 84.9365 104 161.002 104c41.333 0 76 -10.167 104 -30.5s48.333 -48.5 61 -84.5c30 76.667 85.667 115 167 115c57.333 0 101.666 -18.667 132.999 -56s47 -88.333 47 -153v-281h-78v281c0 46 -10.833 80.667 -32.5 104s-52.834 35 -93.501 35
s-72.167 -16.667 -94.5 -50s-33.5 -79.333 -33.5 -138v-232h-78v281c0 46 -10.833 80.667 -32.5 104s-52.5 35 -92.5 35s-72.333 -16.333 -97 -49s-37.667 -78 -39 -136v-235h-79v478h68z" />
    <glyph glyph-name="n" unicode="n" horiz-adv-x="603" 
d="M177 386c31.2676 69.333 84.9336 104 160.999 104c56.667 0 100.834 -18.667 132.501 -56s47.5 -88.333 47.5 -153v-281h-78v281c0 46 -10.833 80.667 -32.5 104s-52.5 35 -92.5 35s-72.333 -16.333 -97 -49s-37.667 -78 -39 -136v-235h-79v478h68z" />
    <glyph glyph-name="o" unicode="o" horiz-adv-x="546" 
d="M273 490c66.3496 0 120.104 -21.6084 161.263 -64.8252s61.7383 -105.275 61.7383 -186.176c0 -80.2334 -20.5791 -141.958 -61.7383 -185.175s-94.9131 -64.8252 -161.263 -64.8252s-120.104 21.6084 -161.263 64.8252s-61.7383 104.941 -61.7383 185.175
c0 80.9004 20.5791 142.959 61.7383 186.176s94.9131 64.8252 161.263 64.8252zM380 373.5c-24 32.333 -59.165 48.5 -105.498 48.5s-81.833 -16.167 -106.5 -48.5s-37 -77 -37 -134s11.667 -101.667 35 -134s58.166 -48.5 104.499 -48.5s82.166 16.167 107.499 48.5
s38 77 38 134s-12 101.667 -36 134z" />
    <glyph glyph-name="p" unicode="p" horiz-adv-x="594" 
d="M175 405c31.0322 56.667 77.8135 85 140.344 85s114.605 -22.9268 156.226 -68.7803s62.4307 -106.534 62.4307 -182.042s-21.0645 -136.081 -63.1924 -181.72s-93.7949 -68.458 -155 -68.458s-106.475 23 -135.808 69v-293h-79v713h65zM410.25 106.964
c28.5 31.9756 42.749 75.8916 42.749 131.745s-13.4854 100.032 -40.457 132.536s-59.7236 48.7559 -98.2568 48.7559s-70.2314 -12.0869 -95.0957 -36.2607s-37.9277 -57.0869 -39.1895 -98.7402v-91c0 -42.1113 12.6768 -75.1387 38.0293 -99.083
s56.6025 -35.917 93.75 -35.917s69.9707 15.9883 98.4707 47.9639z" />
    <glyph glyph-name="q" unicode="q" horiz-adv-x="585" 
d="M264 490c68 0 117.334 -29.998 148.001 -89.998l17 78h54v-559c0 -32.625 3.83301 -54.4482 11.5 -65.4688s16.334 -19.0312 26.001 -24.0312s21.5 -9.83301 35.5 -14.5l-26 -61c-45.4375 11.6836 -77.6299 30.5928 -96.5781 56.7275s-28.4219 63.8916 -28.4219 113.271
v152c-27.6191 -58 -72.46 -87 -134.522 -87s-114.158 22.8193 -156.286 68.458s-63.1924 106.212 -63.1924 181.72s20.8105 136.188 62.4307 182.042s91.8096 68.7803 150.568 68.7803zM172.458 371.245c-26.9717 -32.5039 -40.458 -76.6836 -40.458 -132.537
s14.25 -99.7676 42.75 -131.743s61.917 -47.9639 100.25 -47.9639c54.6807 0 93.8477 24.167 117.5 72.5c7.66699 15.667 11.834 34.167 12.501 55.5v91c0 44 -12.667 78.667 -38 104s-57.3477 38 -96.043 38s-71.5283 -16.252 -98.5 -48.7559z" />
    <glyph glyph-name="r" unicode="r" horiz-adv-x="381" 
d="M296 411c-75.1055 0 -114.104 -59.333 -116.999 -178v-233h-79v479h79v-92c24 66.667 66.333 100 127 100c19.333 0 37.666 -3 54.999 -9l-4 -77c-20 6.66699 -40.333 10 -61 10z" />
    <glyph glyph-name="s" unicode="s" horiz-adv-x="526" 
d="M126.5 455c33.667 23.333 79.1699 35.0039 136.503 35.0039s102.166 -12 134.499 -36s49.166 -54.333 50.499 -91h-77c-6 43.333 -42.667 65 -110 65c-32.667 0 -57.834 -7.33301 -75.501 -22s-26.5 -30.5 -26.5 -47.5s6.66699 -31.333 20 -43
s34.666 -21.834 63.999 -30.501l96 -32c40.667 -12.667 71.834 -28.834 93.501 -48.501s32.5 -46.6572 32.5 -80.9707s-17.748 -65.3135 -53.2441 -93s-84.8291 -41.5303 -148 -41.5303s-112.423 14.167 -147.756 42.5s-54 64.833 -56 109.5h76
c1.33301 -30 13.5 -52.5 36.5 -67.5s51.9004 -22.5 86.7002 -22.5s63.4668 7.26855 86 21.8066s33.7998 32.0381 33.7998 52.5s-6.66699 36.0264 -20 46.6934s-35 20 -65 28l-93 31c-83.333 24.667 -125 68 -125 130c0 39.333 16.833 70.666 50.5 93.999z" />
    <glyph glyph-name="t" unicode="t" horiz-adv-x="376" 
d="M351 14c-57.3574 -26.4727 -109.691 -32.1377 -157.001 -16.999c-34.165 10.9326 -58.332 33.2656 -72.5 66.999c-7 16.667 -10.5 36.667 -10.5 60v294h-77v60h77v133h78v-133h150v-60h-150v-293c0 -48.667 22.667 -73 68 -73c24.667 0 52.334 6 83.001 18z" />
    <glyph glyph-name="u" unicode="u" horiz-adv-x="606" 
d="M426 95c-32.6279 -69.333 -85.6279 -104 -159 -104c-54 0 -97.5 15 -130.5 45s-49.5 76.333 -49.5 139v304h79v-298c0 -80.667 37.333 -121 112 -121c43.25 0 78.417 16.667 105.5 50c26.9971 33.2275 41.1641 75.8945 42.5 128v241h79v-479h-79v95z" />
    <glyph glyph-name="v" unicode="v" horiz-adv-x="503" 
d="M107 478l144 -395l145 395h89l-190 -478h-87l-190 478h89z" />
    <glyph glyph-name="w" unicode="w" horiz-adv-x="725" 
d="M100 478l116 -381l114 358h66l113 -362l117 385h78l-156 -478h-77l-110 335l-108 -335h-76l-159 478h82z" />
    <glyph glyph-name="x" unicode="x" horiz-adv-x="512" 
d="M485 0h-96l-137 181l-130 -181h-96l181 239l-181 240h96l137 -180l131 180h96l-183 -240z" />
    <glyph glyph-name="y" unicode="y" horiz-adv-x="484" 
d="M5 -139c32.9336 -25.333 67.2676 -38 103.001 -38c26.7412 0 49.7412 13.333 69 40c13.792 19.0967 26.459 48.4297 38 88l14 49l-196 478h88l145 -381l113 381h80l-179 -573c-15.333 -48.667 -35.5 -86 -60.5 -112s-56.7061 -39 -95.1182 -39
s-78.2061 11.667 -119.383 35v72z" />
    <glyph glyph-name="z" unicode="z" horiz-adv-x="475" 
d="M53 64l281 350h-281v64h370v-64l-277 -350h277v-64h-370v64z" />
    <glyph glyph-name="braceleft" unicode="{" horiz-adv-x="349" 
d="M154 303c34.667 -16.5801 52 -54.2461 52 -113v-93c0 -54 10.167 -95.167 30.5 -123.5s55.166 -42.5 104.499 -42.5v-69c-142 0 -213 78 -213 234v92c0 28.667 -2.83301 49 -8.5 61s-14.834 18 -27.501 18h-17v76h17c12.667 0 21.834 5.83301 27.501 17.5
s8.5 32.167 8.5 61.5v91c0 112.305 37.833 184.805 113.5 217.5c27 11.667 60.167 17.5 99.5 17.5v-69c-49.333 0 -84.166 -14.167 -104.499 -42.5s-30.5 -69.833 -30.5 -124.5v-92c0 -57.2461 -17.333 -94.9131 -52 -113v-4z" />
    <glyph glyph-name="bar" unicode="|" 
d="M101 750h79v-872h-79v872z" />
    <glyph glyph-name="braceright" unicode="}" horiz-adv-x="349" 
d="M195 307c-34.667 18.0869 -52 55.7539 -52 113v92c0 54.667 -10.167 96.167 -30.5 124.5s-55.166 42.5 -104.499 42.5v69c142 0 213 -78.333 213 -235v-91c0 -29.333 2.83301 -49.833 8.5 -61.5s14.834 -17.5 27.501 -17.5h17v-76h-17c-12.667 0 -21.834 -6 -27.501 -18
s-8.5 -32.333 -8.5 -61v-92c0 -111.895 -38 -184.062 -114 -216.501c-27.333 -11.667 -60.333 -17.5 -99 -17.5v69c49.333 0 84.166 14.167 104.499 42.5s30.5 69.5 30.5 123.5v93c0 58.7539 17.333 96.4209 52 113.001v4z" />
    <glyph glyph-name="asciitilde" unicode="~" horiz-adv-x="515" 
d="M158 282c-24.6875 0 -45.0215 -19.667 -61.001 -59l-44 23c21.9258 74 57.5928 111 107 111c23 0 56.6875 -9.16699 101.062 -27.5s75.3545 -27.5 92.9375 -27.5c26.667 0 48.334 19 65.001 57l43 -27c-23.5557 -70.667 -61.2227 -106 -113 -106c-15.333 0 -39 6 -71 18
s-52.833 19.833 -62.5 23.5c-25.4844 9.66699 -44.6514 14.5 -57.5 14.5z" />
    <glyph glyph-name="sterling" unicode="&#xa3;" horiz-adv-x="565" 
d="M400 490c-10.667 52 -44.667 77.998 -102 77.998c-28 0 -51.5 -10.667 -70.5 -32s-28.5 -56 -28.5 -104v-109h182v-56h-182v-104c0 -45.4004 -12.333 -76.7334 -37 -94h183c32.667 0 56.5 6.83301 71.5 20.5s24.5 35.167 28.5 64.5h84
c-4.25586 -51.0752 -20.249 -89.5107 -47.9795 -115.307s-73.0703 -38.6934 -136.021 -38.6934h-325v69h28c25.333 0 43.833 7.33301 55.5 22s17.5 37.334 17.5 68.001v108h-91v56h91v109c0 66 15.5 117.167 46.5 153.5s76.833 54.5 137.5 54.5c47.333 0 86 -12.667 116 -38
s48.667 -62.666 56 -111.999h-77z" />
    <glyph glyph-name="dieresis" unicode="&#xa8;" horiz-adv-x="323" 
d="M38.5 793.5c-9.66699 9.66699 -14.5 21.5 -14.5 35.5s4.83301 25.833 14.5 35.5s22.167 14.5 37.5 14.5s28.166 -4.83301 38.499 -14.5s15.5 -21.5 15.5 -35.5s-5.16699 -25.833 -15.5 -35.5s-23.166 -14.5 -38.499 -14.5s-27.833 4.83301 -37.5 14.5zM207 793.5
c-10 9.66699 -15 21.5 -15 35.5s5 25.833 15 35.5s22.5 14.5 37.5 14.5s27.667 -4.83301 38 -14.5s15.5 -21.5 15.5 -35.5s-5.16699 -25.833 -15.5 -35.5s-23 -14.5 -38 -14.5s-27.5 4.83301 -37.5 14.5z" />
    <glyph glyph-name="acute" unicode="&#xb4;" horiz-adv-x="315" 
d="M290 790l-244 -113l-23 50l235 133z" />
    <glyph glyph-name="Agrave" unicode="&#xc0;" horiz-adv-x="575" 
d="M242 629h96l211 -629h-82l-54 160h-250l-54 -160h-83zM184 222h209l-104 310zM190 860l235 -133l-23 -50l-245 113z" />
    <glyph glyph-name="Aacute" unicode="&#xc1;" horiz-adv-x="575" 
d="M242 629h96l211 -629h-82l-54 160h-250l-54 -160h-83zM184 222h209l-104 310zM423 790l-244 -113l-23 50l235 133z" />
    <glyph glyph-name="Acircumflex" unicode="&#xc2;" horiz-adv-x="575" 
d="M242 629h96l211 -629h-82l-54 160h-250l-54 -160h-83zM184 222h209l-104 310zM469 716l-50 -39l-129 108l-130 -108l-50 39l180 156z" />
    <glyph glyph-name="Atilde" unicode="&#xc3;" horiz-adv-x="575" 
d="M242 629h96l211 -629h-82l-54 160h-250l-54 -160h-83zM184 222h209l-104 310zM221 770c-21.5859 0 -40.585 -17.001 -56.999 -51.001l-32 19c8 34 19.667 59.833 35 77.5s31.666 26.5 48.999 26.5s37.166 -5.66699 59.499 -17
c30.7842 -15.6221 50.6748 -25.3604 59.6719 -29.2158s17.8848 -5.7832 26.6621 -5.7832s17.833 4.16699 27.166 12.5s17.333 21.5 24 39.5l35 -23c-7.33301 -32 -19.166 -56.667 -35.499 -74s-31.333 -26 -45 -26s-26.167 2 -37.5 6s-27 11.167 -47 21.5
s-33.5 16.833 -40.5 19.5s-14.167 4 -21.5 4z" />
    <glyph glyph-name="Adieresis" unicode="&#xc4;" horiz-adv-x="575" 
d="M242 629h96l211 -629h-82l-54 160h-250l-54 -160h-83zM184 222h209l-104 310zM188.5 749.5c-9.66699 9.66699 -14.5 21.5 -14.5 35.5s4.83301 25.833 14.5 35.5s22.167 14.5 37.5 14.5s28.166 -4.83301 38.499 -14.5s15.5 -21.5 15.5 -35.5s-5.16699 -25.833 -15.5 -35.5
s-23.166 -14.5 -38.499 -14.5s-27.833 4.83301 -37.5 14.5zM357 749.5c-10 9.66699 -15 21.5 -15 35.5s5 25.833 15 35.5s22.5 14.5 37.5 14.5s27.667 -4.83301 38 -14.5s15.5 -21.5 15.5 -35.5s-5.16699 -25.833 -15.5 -35.5s-23 -14.5 -38 -14.5s-27.5 4.83301 -37.5 14.5
z" />
    <glyph glyph-name="Egrave" unicode="&#xc8;" horiz-adv-x="564" 
d="M100 629h387v-68h-308v-211h290v-67h-290v-214h308v-69h-387v629zM194 860l235 -133l-23 -50l-245 113z" />
    <glyph glyph-name="Eacute" unicode="&#xc9;" horiz-adv-x="564" 
d="M100 0h387v69h-308v214h290v67h-290v211h308v68h-387v-629zM427 790l-244 -113l-23 50l235 133z" />
    <glyph glyph-name="Ecircumflex" unicode="&#xca;" horiz-adv-x="564" 
d="M105 629h387v-68h-308v-211h290v-67h-290v-214h308v-69h-387v629zM479 716l-50 -39l-129 108l-130 -108l-50 39l180 156z" />
    <glyph glyph-name="Edieresis" unicode="&#xcb;" horiz-adv-x="564" 
d="M100 629h387v-68h-308v-211h290v-67h-290v-214h308v-69h-387v629zM172.5 749.5c-9.66699 9.66699 -14.5 21.5 -14.5 35.5s4.83301 25.833 14.5 35.5s22.167 14.5 37.5 14.5s28.166 -4.83301 38.499 -14.5s15.5 -21.5 15.5 -35.5s-5.16699 -25.833 -15.5 -35.5
s-23.166 -14.5 -38.499 -14.5s-27.833 4.83301 -37.5 14.5zM341 749.5c-10 9.66699 -15 21.5 -15 35.5s5 25.833 15 35.5s22.5 14.5 37.5 14.5s27.667 -4.83301 38 -14.5s15.5 -21.5 15.5 -35.5s-5.16699 -25.833 -15.5 -35.5s-23 -14.5 -38 -14.5s-27.5 4.83301 -37.5 14.5
z" />
    <glyph glyph-name="Igrave" unicode="&#xcc;" 
d="M101 629h79v-629h-79v629zM40 860l235 -133l-23 -50l-245 113z" />
    <glyph glyph-name="Iacute" unicode="&#xcd;" 
d="M101 0h79v629h-79v-629zM273 790l-244 -113l-23 50l235 133z" />
    <glyph glyph-name="Icircumflex" unicode="&#xce;" 
d="M101 629h79v-629h-79v629zM320 716l-50 -39l-129 108l-130 -108l-50 39l180 156z" />
    <glyph glyph-name="Idieresis" unicode="&#xcf;" 
d="M101 629h79v-629h-79v629zM18.5 749.5c-9.66699 9.66699 -14.5 21.5 -14.5 35.5s4.83301 25.833 14.5 35.5s22.167 14.5 37.5 14.5s28.166 -4.83301 38.499 -14.5s15.5 -21.5 15.5 -35.5s-5.16699 -25.833 -15.5 -35.5s-23.166 -14.5 -38.499 -14.5
s-27.833 4.83301 -37.5 14.5zM187 749.5c-10 9.66699 -15 21.5 -15 35.5s5 25.833 15 35.5s22.5 14.5 37.5 14.5s27.667 -4.83301 38 -14.5s15.5 -21.5 15.5 -35.5s-5.16699 -25.833 -15.5 -35.5s-23 -14.5 -38 -14.5s-27.5 4.83301 -37.5 14.5z" />
    <glyph glyph-name="Ntilde" unicode="&#xd1;" horiz-adv-x="686" 
d="M99 629v-629h80v512l317 -512h88v629h-79v-505l-312 505h-94zM274 770c-21.5859 0 -40.585 -17.001 -56.999 -51.001l-32 19c8 34 19.667 59.833 35 77.5s31.666 26.5 48.999 26.5s37.166 -5.66699 59.499 -17c30.7842 -15.6221 50.6748 -25.3604 59.6719 -29.2158
s17.8848 -5.7832 26.6621 -5.7832s17.833 4.16699 27.166 12.5s17.333 21.5 24 39.5l35 -23c-7.33301 -32 -19.166 -56.667 -35.499 -74s-31.333 -26 -45 -26s-26.167 2 -37.5 6s-27 11.167 -47 21.5s-33.5 16.833 -40.5 19.5s-14.167 4 -21.5 4z" />
    <glyph glyph-name="Ograve" unicode="&#xd2;" horiz-adv-x="646" 
d="M323 640c81.3662 0 147.21 -27.915 197.526 -83.7461s75.4746 -136.843 75.4746 -243.034s-25.083 -186.776 -75.25 -241.754s-116.084 -82.4658 -197.751 -82.4658c-82.2959 0 -148.203 27.8545 -197.722 83.5625s-74.2773 136.188 -74.2773 241.438
c0 105.917 24.7588 186.729 74.2773 242.438s115.426 83.5625 197.722 83.5625zM323.002 569c-58.667 0 -105 -22 -139 -66s-51 -107.333 -51 -190s17 -145.334 51 -188.001s80.333 -64 139 -64s105.167 21.333 139.5 64s51.5 105.334 51.5 188.001s-17.167 146 -51.5 190
s-80.833 66 -139.5 66zM223.002 860l235 -133l-23 -50l-245 113z" />
    <glyph glyph-name="Oacute" unicode="&#xd3;" horiz-adv-x="646" 
d="M323 640c-82.2959 0 -148.205 -27.8555 -197.724 -83.5635s-74.2773 -136.521 -74.2773 -242.438c0 -105.25 24.7588 -185.729 74.2773 -241.438s115.426 -83.5625 197.722 -83.5625c81.667 0 147.584 27.4883 197.751 82.4658s75.25 135.562 75.25 241.754
s-25.1582 187.203 -75.4746 243.034s-116.158 83.7471 -197.524 83.7471zM322.998 568.999c58.667 0 105.167 -22 139.5 -66s51.5 -107.333 51.5 -190s-17.167 -145.334 -51.5 -188.001s-80.833 -64 -139.5 -64s-105 21.333 -139 64s-51 105.334 -51 188.001s17 146 51 190
s80.333 66 139 66zM455.998 789.999l-244 -113l-23 50l235 133z" />
    <glyph glyph-name="Ocircumflex" unicode="&#xd4;" horiz-adv-x="646" 
d="M323 640c81.3662 0 147.21 -27.915 197.526 -83.7461s75.4746 -136.843 75.4746 -243.034s-25.083 -186.776 -75.25 -241.754s-116.084 -82.4658 -197.751 -82.4658c-82.2959 0 -148.203 27.8545 -197.722 83.5625s-74.2773 136.188 -74.2773 241.438
c0 105.917 24.7588 186.729 74.2773 242.438s115.426 83.5625 197.722 83.5625zM323.002 569c-58.667 0 -105 -22 -139 -66s-51 -107.333 -51 -190s17 -145.334 51 -188.001s80.333 -64 139 -64s105.167 21.333 139.5 64s51.5 105.334 51.5 188.001s-17.167 146 -51.5 190
s-80.833 66 -139.5 66zM502.002 716l-50 -39l-129 108l-130 -108l-50 39l180 156z" />
    <glyph glyph-name="Otilde" unicode="&#xd5;" horiz-adv-x="646" 
d="M323 640c-82.2959 0 -148.205 -27.8555 -197.724 -83.5635s-74.2773 -136.521 -74.2773 -242.438c0 -105.25 24.7588 -185.729 74.2773 -241.438s115.426 -83.5625 197.722 -83.5625c81.667 0 147.584 27.4883 197.751 82.4658s75.25 135.562 75.25 241.754
s-25.1582 187.203 -75.4746 243.034s-116.158 83.7471 -197.524 83.7471zM322.998 568.999c58.667 0 105.167 -22 139.5 -66s51.5 -107.333 51.5 -190s-17.167 -145.334 -51.5 -188.001s-80.833 -64 -139.5 -64s-105 21.333 -139 64s-51 105.334 -51 188.001s17 146 51 190
s80.333 66 139 66zM253.998 769.999c-21.5859 0 -40.585 -17.001 -56.999 -51.001l-32 19c8 34 19.667 59.833 35 77.5s31.666 26.5 48.999 26.5s37.166 -5.66699 59.499 -17c30.7842 -15.6221 50.6748 -25.3604 59.6719 -29.2158s17.8848 -5.7832 26.6621 -5.7832
s17.833 4.16699 27.166 12.5s17.333 21.5 24 39.5l35 -23c-7.33301 -32 -19.166 -56.667 -35.499 -74s-31.333 -26 -45 -26s-26.167 2 -37.5 6s-27 11.167 -47 21.5s-33.5 16.833 -40.5 19.5s-14.167 4 -21.5 4z" />
    <glyph glyph-name="Odieresis" unicode="&#xd6;" horiz-adv-x="646" 
d="M323 640c81.3662 0 147.21 -27.915 197.526 -83.7461s75.4746 -136.843 75.4746 -243.034s-25.083 -186.776 -75.25 -241.754s-116.084 -82.4658 -197.751 -82.4658c-82.2959 0 -148.203 27.8545 -197.722 83.5625s-74.2773 136.188 -74.2773 241.438
c0 105.917 24.7588 186.729 74.2773 242.438s115.426 83.5625 197.722 83.5625zM323.002 569c-58.667 0 -105 -22 -139 -66s-51 -107.333 -51 -190s17 -145.334 51 -188.001s80.333 -64 139 -64s105.167 21.333 139.5 64s51.5 105.334 51.5 188.001s-17.167 146 -51.5 190
s-80.833 66 -139.5 66zM200.502 749.5c-9.66699 9.66699 -14.5 21.5 -14.5 35.5s4.83301 25.833 14.5 35.5s22.167 14.5 37.5 14.5s28.166 -4.83301 38.499 -14.5s15.5 -21.5 15.5 -35.5s-5.16699 -25.833 -15.5 -35.5s-23.166 -14.5 -38.499 -14.5
s-27.833 4.83301 -37.5 14.5zM369.002 749.5c-10 9.66699 -15 21.5 -15 35.5s5 25.833 15 35.5s22.5 14.5 37.5 14.5s27.667 -4.83301 38 -14.5s15.5 -21.5 15.5 -35.5s-5.16699 -25.833 -15.5 -35.5s-23 -14.5 -38 -14.5s-27.5 4.83301 -37.5 14.5z" />
    <glyph glyph-name="Ugrave" unicode="&#xd9;" horiz-adv-x="654" 
d="M166 629v-402c0 -58.667 14.667 -101 44 -127s68 -39 116 -39s86.667 13 116 39s44 68.333 44 127v402h79v-402c0 -78.667 -21.667 -138 -65 -178s-101.5 -60 -174.5 -60s-131 20 -174 60s-64.5 99.333 -64.5 178v402h79zM226 860l235 -133l-23 -50l-245 113z" />
    <glyph glyph-name="Uacute" unicode="&#xda;" horiz-adv-x="654" 
d="M87 629v-402c0 -78.667 21.5 -138 64.5 -178s101 -60 174 -60s131.167 20 174.5 60s65 99.333 65 178v402h-79v-402c0 -58.667 -14.667 -101 -44 -127s-68 -39 -116 -39s-86.667 13 -116 39s-44 68.333 -44 127v402h-79zM459 790l-244 -113l-23 50l235 133z" />
    <glyph glyph-name="Ucircumflex" unicode="&#xdb;" horiz-adv-x="654" 
d="M166 629v-402c0 -58.667 14.667 -101 44 -127s68 -39 116 -39s86.667 13 116 39s44 68.333 44 127v402h79v-402c0 -78.667 -21.667 -138 -65 -178s-101.5 -60 -174.5 -60s-131 20 -174 60s-64.5 99.333 -64.5 178v402h79zM505 716l-50 -39l-129 108l-130 -108l-50 39
l180 156z" />
    <glyph glyph-name="Udieresis" unicode="&#xdc;" horiz-adv-x="654" 
d="M166 629v-402c0 -58.667 14.667 -101 44 -127s68 -39 116 -39s86.667 13 116 39s44 68.333 44 127v402h79v-402c0 -78.667 -21.667 -138 -65 -178s-101.5 -60 -174.5 -60s-131 20 -174 60s-64.5 99.333 -64.5 178v402h79zM203.5 749.5
c-9.66699 9.66699 -14.5 21.5 -14.5 35.5s4.83301 25.833 14.5 35.5s22.167 14.5 37.5 14.5s28.166 -4.83301 38.499 -14.5s15.5 -21.5 15.5 -35.5s-5.16699 -25.833 -15.5 -35.5s-23.166 -14.5 -38.499 -14.5s-27.833 4.83301 -37.5 14.5zM372 749.5
c-10 9.66699 -15 21.5 -15 35.5s5 25.833 15 35.5s22.5 14.5 37.5 14.5s27.667 -4.83301 38 -14.5s15.5 -21.5 15.5 -35.5s-5.16699 -25.833 -15.5 -35.5s-23 -14.5 -38 -14.5s-27.5 4.83301 -37.5 14.5z" />
    <glyph glyph-name="agrave" unicode="&#xe0;" horiz-adv-x="551" 
d="M387 310c0 43.333 -9 74.334 -27 93.001s-44.167 28 -78.5 28s-62 -6.83301 -83 -20.5s-31.5 -35.167 -31.5 -64.5h-87c0 73.1855 39.333 118.519 118 136c24 5.33301 50.167 8 78.5 8c58.7422 0 104.845 -15.0234 138.307 -45.0713s50.1934 -75.6904 50.1934 -136.929
v-308h-68l-8 80c-29.333 -60.667 -82.333 -91 -159 -91c-51.4961 0 -92.7031 14.4053 -123.622 43.2158s-46.3779 64.4268 -46.3779 106.85s17.2139 75.6846 51.6426 99.7842s77.2617 36.1494 128.5 36.1494s100.19 -8.66699 146.857 -26v61zM387 199.001
c-47.4072 13.333 -88.7607 20 -124.057 20s-63.9443 -6.33301 -85.9443 -19s-33 -32.667 -33 -60c0 -60 34 -90 102 -90c38.667 0 71.834 13.833 99.501 41.5s41.5 63.5 41.5 107.5zM181.998 731.001l235 -133l-23 -50l-245 113z" />
    <glyph glyph-name="aacute" unicode="&#xe1;" horiz-adv-x="551" 
d="M387 310c0 43.333 -9 74.334 -27 93.001s-44.167 28 -78.5 28s-62 -6.83301 -83 -20.5s-31.5 -35.167 -31.5 -64.5h-87c0 73.1855 39.333 118.519 118 136c24 5.33301 50.167 8 78.5 8c58.7422 0 104.845 -15.0234 138.307 -45.0713s50.1934 -75.6904 50.1934 -136.929
v-308h-68l-8 80c-29.333 -60.667 -82.333 -91 -159 -91c-51.4961 0 -92.7031 14.4053 -123.622 43.2158s-46.3779 64.4268 -46.3779 106.85s17.2139 75.6846 51.6426 99.7842s77.2617 36.1494 128.5 36.1494s100.19 -8.66699 146.857 -26v61zM387 199.001
c-47.4072 13.333 -88.7598 20 -124.056 20s-63.9443 -6.33301 -85.9443 -19s-33 -32.667 -33 -60c0 -60 34 -90 102 -90c38.3154 0 71.0732 13.252 98.2744 39.7549s41.4434 60.918 42.7256 103.245v6zM414.999 661.001l-244 -113l-23 50l235 133z" />
    <glyph glyph-name="acircumflex" unicode="&#xe2;" horiz-adv-x="551" 
d="M387 310c0 43.333 -9 74.334 -27 93.001s-44.167 28 -78.5 28s-62 -6.83301 -83 -20.5s-31.5 -35.167 -31.5 -64.5h-87c0 73.1855 39.333 118.519 118 136c24 5.33301 50.167 8 78.5 8c58.7422 0 104.845 -15.0234 138.307 -45.0713s50.1934 -75.6904 50.1934 -136.929
v-308h-68l-8 80c-29.333 -60.667 -82.333 -91 -159 -91c-51.4961 0 -92.7031 14.4053 -123.622 43.2158s-46.3779 64.4268 -46.3779 106.85s17.2139 75.6846 51.6426 99.7842s77.2617 36.1494 128.5 36.1494s100.19 -8.66699 146.857 -26v61zM387 199.001
c-47.4072 13.333 -88.7607 20 -124.057 20s-63.9443 -6.33301 -85.9443 -19s-33 -32.667 -33 -60c0 -60 34 -90 102 -90c38.667 0 71.834 13.833 99.501 41.5s41.5 63.5 41.5 107.5zM460.998 587.001l-50 -39l-129 108l-130 -108l-50 39l180 156z" />
    <glyph glyph-name="atilde" unicode="&#xe3;" horiz-adv-x="551" 
d="M387 310c0 43.333 -9 74.334 -27 93.001s-44.167 28 -78.5 28s-62 -6.83301 -83 -20.5s-31.5 -35.167 -31.5 -64.5h-87c0 73.1855 39.333 118.519 118 136c24 5.33301 50.167 8 78.5 8c58.7422 0 104.845 -15.0234 138.307 -45.0713s50.1934 -75.6904 50.1934 -136.929
v-308h-68l-8 80c-29.333 -60.667 -82.333 -91 -159 -91c-51.4961 0 -92.7031 14.4053 -123.622 43.2158s-46.3779 64.4268 -46.3779 106.85s17.2139 75.6846 51.6426 99.7842s77.2617 36.1494 128.5 36.1494s100.19 -8.66699 146.857 -26v61zM387 199.001
c-47.4072 13.333 -88.7598 20 -124.056 20s-63.9443 -6.33301 -85.9443 -19s-33 -32.667 -33 -60c0 -60 34 -90 102 -90c38.3154 0 71.0732 13.252 98.2744 39.7549s41.4434 60.918 42.7256 103.245v6zM212.999 641.001c-21.5859 0 -40.585 -17.001 -56.999 -51.001l-32 19
c8 34 19.667 59.833 35 77.5s31.666 26.5 48.999 26.5s37.166 -5.66699 59.499 -17c30.7842 -15.6221 50.6748 -25.3604 59.6719 -29.2158s17.8848 -5.7832 26.6621 -5.7832s17.833 4.16699 27.166 12.5s17.333 21.5 24 39.5l35 -23
c-7.33301 -32 -19.166 -56.667 -35.499 -74s-31.333 -26 -45 -26s-26.167 2 -37.5 6s-27 11.167 -47 21.5s-33.5 16.833 -40.5 19.5s-14.167 4 -21.5 4z" />
    <glyph glyph-name="adieresis" unicode="&#xe4;" horiz-adv-x="551" 
d="M387 310c0 43.333 -9 74.334 -27 93.001s-44.167 28 -78.5 28s-62 -6.83301 -83 -20.5s-31.5 -35.167 -31.5 -64.5h-87c0 73.1855 39.333 118.519 118 136c24 5.33301 50.167 8 78.5 8c58.7422 0 104.845 -15.0234 138.307 -45.0713s50.1934 -75.6904 50.1934 -136.929
v-308h-68l-8 80c-29.333 -60.667 -82.333 -91 -159 -91c-51.4961 0 -92.7031 14.4053 -123.622 43.2158s-46.3779 64.4268 -46.3779 106.85s17.2139 75.6846 51.6426 99.7842s77.2617 36.1494 128.5 36.1494s100.19 -8.66699 146.857 -26v61zM387 199.001
c-47.4072 13.333 -88.7607 20 -124.057 20s-63.9443 -6.33301 -85.9443 -19s-33 -32.667 -33 -60c0 -60 34 -90 102 -90c38.667 0 71.834 13.833 99.501 41.5s41.5 63.5 41.5 107.5zM159.498 619.501c-9.66699 9.66699 -14.5 21.5 -14.5 35.5s4.83301 25.833 14.5 35.5
s22.167 14.5 37.5 14.5s28.166 -4.83301 38.499 -14.5s15.5 -21.5 15.5 -35.5s-5.16699 -25.833 -15.5 -35.5s-23.166 -14.5 -38.499 -14.5s-27.833 4.83301 -37.5 14.5zM327.998 619.501c-10 9.66699 -15 21.5 -15 35.5s5 25.833 15 35.5s22.5 14.5 37.5 14.5
s27.667 -4.83301 38 -14.5s15.5 -21.5 15.5 -35.5s-5.16699 -25.833 -15.5 -35.5s-23 -14.5 -38 -14.5s-27.5 4.83301 -37.5 14.5z" />
    <glyph glyph-name="egrave" unicode="&#xe8;" horiz-adv-x="514" 
d="M267 53c66.1064 0 103.772 29.001 113 87.001h81c-7.33301 -48 -28.5 -85.167 -63.5 -111.5s-78.5 -39.5 -130.5 -39.5c-64.123 0 -116.154 22.7715 -156.093 68.3154s-59.9072 106.4 -59.9072 182.569s20.2051 136.897 60.6152 182.185s94.0859 67.9307 161.027 67.9307
s116.878 -25.9258 149.811 -77.7773s44.4482 -115.26 34.5469 -190.225h-327c0 -49.4512 11.9404 -89.9805 35.8223 -121.588s57.6074 -47.4111 101.178 -47.4111zM324.499 415.001c-15 8 -33.333 12.002 -55 12.002c-41.2998 0 -73.6699 -13.7891 -97.1113 -41.3672
s-37.2373 -62.123 -41.3887 -103.634h255c0 66.7998 -20.5 111.133 -61.5 132.999zM158.999 736.003l235 -133l-23 -50l-245 113z" />
    <glyph glyph-name="eacute" unicode="&#xe9;" horiz-adv-x="514" 
d="M380 140c-9.22754 -58 -46.8936 -87.001 -113 -87.001c-43.5703 0 -77.2959 15.8037 -101.178 47.4111s-35.8223 72.1367 -35.8223 121.588h327c9.90137 74.9648 -1.61426 138.373 -34.5469 190.225s-82.8691 77.7773 -149.811 77.7773
s-120.617 -22.6436 -161.027 -67.9307s-60.6152 -106.016 -60.6152 -182.185s19.9688 -137.025 59.9072 -182.569s91.9697 -68.3154 156.093 -68.3154c52 0 95.5 13.167 130.5 39.5s56.167 63.5 63.5 111.5h-81zM358.599 385.388
c18.2686 -27.7412 27.4023 -62.2041 27.4023 -103.39h-255c4.15137 41.5107 17.9473 76.0557 41.3887 103.634s55.7695 41.3672 96.9844 41.3672s70.9561 -13.8701 89.2246 -41.6113zM392.001 665.999l-244 -113l-23 50l235 133z" />
    <glyph glyph-name="ecircumflex" unicode="&#xea;" horiz-adv-x="514" 
d="M270 53c66.1064 0 103.772 29.001 113 87.001h81c-7.33301 -48 -28.5 -85.167 -63.5 -111.5s-78.5 -39.5 -130.5 -39.5c-64.123 0 -116.154 22.7715 -156.093 68.3154s-59.9072 106.4 -59.9072 182.569s20.2051 136.897 60.6152 182.185s94.0859 67.9307 161.027 67.9307
s116.878 -25.9258 149.811 -77.7773s44.4482 -115.26 34.5469 -190.225h-327c0 -49.4512 11.9404 -89.9805 35.8223 -121.588s57.6074 -47.4111 101.178 -47.4111zM327.499 415.001c-15 8 -33.333 12.002 -55 12.002c-41.2998 0 -73.6699 -13.7891 -97.1113 -41.3672
s-37.2373 -62.123 -41.3887 -103.634h255c0 66.7998 -20.5 111.133 -61.5 132.999zM441.999 592.003l-50 -39l-129 108l-130 -108l-50 39l180 156z" />
    <glyph glyph-name="edieresis" unicode="&#xeb;" horiz-adv-x="514" 
d="M267 53c66.1064 0 103.772 29.001 113 87.001h81c-7.33301 -48 -28.5 -85.167 -63.5 -111.5s-78.5 -39.5 -130.5 -39.5c-64.123 0 -116.154 22.7715 -156.093 68.3154s-59.9072 106.4 -59.9072 182.569s20.2051 136.897 60.6152 182.185s94.0859 67.9307 161.027 67.9307
s116.878 -25.9258 149.811 -77.7773s44.4482 -115.26 34.5469 -190.225h-327c0 -49.4512 11.9404 -89.9805 35.8223 -121.588s57.6074 -47.4111 101.178 -47.4111zM324.499 415.001c-15 8 -33.333 12.002 -55 12.002c-41.2998 0 -73.6699 -13.7891 -97.1113 -41.3672
s-37.2373 -62.123 -41.3887 -103.634h255c0 66.7998 -20.5 111.133 -61.5 132.999zM137.499 619.503c-9.66699 9.66699 -14.5 21.5 -14.5 35.5s4.83301 25.833 14.5 35.5s22.167 14.5 37.5 14.5s28.166 -4.83301 38.499 -14.5s15.5 -21.5 15.5 -35.5
s-5.16699 -25.833 -15.5 -35.5s-23.166 -14.5 -38.499 -14.5s-27.833 4.83301 -37.5 14.5zM305.999 619.503c-10 9.66699 -15 21.5 -15 35.5s5 25.833 15 35.5s22.5 14.5 37.5 14.5s27.667 -4.83301 38 -14.5s15.5 -21.5 15.5 -35.5s-5.16699 -25.833 -15.5 -35.5
s-23 -14.5 -38 -14.5s-27.5 4.83301 -37.5 14.5z" />
    <glyph glyph-name="igrave" unicode="&#xec;" horiz-adv-x="299" 
d="M106 479h79v-479h-79v479zM45 731l235 -133l-23 -50l-245 113z" />
    <glyph glyph-name="iacute" unicode="&#xed;" horiz-adv-x="299" 
d="M106 0h79v479h-79v-479zM278 661l-244 -113l-23 50l235 133z" />
    <glyph glyph-name="icircumflex" unicode="&#xee;" horiz-adv-x="299" 
d="M106 479h79v-479h-79v479zM325 587l-50 -39l-129 108l-130 -108l-50 39l180 156z" />
    <glyph glyph-name="idieresis" unicode="&#xef;" horiz-adv-x="299" 
d="M106 479h79v-479h-79v479zM23.5 619.5c-9.66699 9.66699 -14.5 21.5 -14.5 35.5s4.83301 25.833 14.5 35.5s22.167 14.5 37.5 14.5s28.166 -4.83301 38.499 -14.5s15.5 -21.5 15.5 -35.5s-5.16699 -25.833 -15.5 -35.5s-23.166 -14.5 -38.499 -14.5
s-27.833 4.83301 -37.5 14.5zM192 619.5c-10 9.66699 -15 21.5 -15 35.5s5 25.833 15 35.5s22.5 14.5 37.5 14.5s27.667 -4.83301 38 -14.5s15.5 -21.5 15.5 -35.5s-5.16699 -25.833 -15.5 -35.5s-23 -14.5 -38 -14.5s-27.5 4.83301 -37.5 14.5z" />
    <glyph glyph-name="ntilde" unicode="&#xf1;" horiz-adv-x="604" 
d="M339 490c-76.0654 0 -129.731 -34.667 -160.999 -104l-9 92h-68v-478h79v235c1.33301 58 14.333 103.333 39 136s57 49 97 49s70.833 -11.667 92.5 -35s32.5 -58 32.5 -104v-281h78v281c0 64.667 -15.833 115.667 -47.5 153s-75.834 56 -132.501 56zM237.001 641
c-21.5859 0 -40.585 -17.001 -56.999 -51.001l-32 19c8 34 19.667 59.833 35 77.5s31.666 26.5 48.999 26.5s37.166 -5.66699 59.499 -17c30.7842 -15.6221 50.6748 -25.3604 59.6719 -29.2158s17.8848 -5.7832 26.6621 -5.7832s17.833 4.16699 27.166 12.5
s17.333 21.5 24 39.5l35 -23c-7.33301 -32 -19.166 -56.667 -35.499 -74s-31.333 -26 -45 -26s-26.167 2 -37.5 6s-27 11.167 -47 21.5s-33.5 16.833 -40.5 19.5s-14.167 4 -21.5 4z" />
    <glyph glyph-name="ograve" unicode="&#xf2;" horiz-adv-x="547" 
d="M274 490c66.3496 0 120.104 -21.6084 161.263 -64.8252s61.7383 -105.275 61.7383 -186.176c0 -80.2334 -20.5791 -141.958 -61.7383 -185.175s-94.9131 -64.8252 -161.263 -64.8252s-120.104 21.6084 -161.263 64.8252s-61.7383 104.941 -61.7383 185.175
c0 80.9004 20.5791 142.959 61.7383 186.176s94.9131 64.8252 161.263 64.8252zM381 373.5c-24 32.333 -59.165 48.5 -105.498 48.5s-81.833 -16.167 -106.5 -48.5s-37 -77 -37 -134s11.667 -101.667 35 -134s58.166 -48.5 104.499 -48.5s82.166 16.167 107.499 48.5
s38 77 38 134s-12 101.667 -36 134zM174.002 731l235 -133l-23 -50l-245 113z" />
    <glyph glyph-name="oacute" unicode="&#xf3;" horiz-adv-x="547" 
d="M274 490c-66.3496 0 -120.104 -21.6084 -161.263 -64.8252s-61.7383 -105.275 -61.7383 -186.176c0 -80.2334 20.5791 -141.958 61.7383 -185.175s94.9131 -64.8252 161.263 -64.8252s120.104 21.6084 161.263 64.8252s61.7383 104.941 61.7383 185.175
c0 80.9004 -20.5791 142.959 -61.7383 186.176s-94.9131 64.8252 -161.263 64.8252zM169 373.5c24.667 32.333 60.165 48.5 106.498 48.5s81.5 -16.167 105.5 -48.5s36 -77 36 -134s-12.667 -101.667 -38 -134s-61.166 -48.5 -107.499 -48.5s-81.166 16.167 -104.499 48.5
s-35 77 -35 134s12.333 101.667 37 134zM406.998 661l-244 -113l-23 50l235 133z" />
    <glyph glyph-name="ocircumflex" unicode="&#xf4;" horiz-adv-x="547" 
d="M274 490c66.3496 0 120.104 -21.6084 161.263 -64.8252s61.7383 -105.275 61.7383 -186.176c0 -80.2334 -20.5791 -141.958 -61.7383 -185.175s-94.9131 -64.8252 -161.263 -64.8252s-120.104 21.6084 -161.263 64.8252s-61.7383 104.941 -61.7383 185.175
c0 80.9004 20.5791 142.959 61.7383 186.176s94.9131 64.8252 161.263 64.8252zM381 373.5c-24 32.333 -59.165 48.5 -105.498 48.5s-81.833 -16.167 -106.5 -48.5s-37 -77 -37 -134s11.667 -101.667 35 -134s58.166 -48.5 104.499 -48.5s82.166 16.167 107.499 48.5
s38 77 38 134s-12 101.667 -36 134zM453.002 587l-50 -39l-129 108l-130 -108l-50 39l180 156z" />
    <glyph glyph-name="otilde" unicode="&#xf5;" horiz-adv-x="547" 
d="M274 490c-66.3496 0 -120.104 -21.6084 -161.263 -64.8252s-61.7383 -105.275 -61.7383 -186.176c0 -80.2334 20.5791 -141.958 61.7383 -185.175s94.9131 -64.8252 161.263 -64.8252s120.104 21.6084 161.263 64.8252s61.7383 104.941 61.7383 185.175
c0 80.9004 -20.5791 142.959 -61.7383 186.176s-94.9131 64.8252 -161.263 64.8252zM169 373.5c24.667 32.333 60.165 48.5 106.498 48.5s81.5 -16.167 105.5 -48.5s36 -77 36 -134s-12.667 -101.667 -38 -134s-61.166 -48.5 -107.499 -48.5s-81.166 16.167 -104.499 48.5
s-35 77 -35 134s12.333 101.667 37 134zM205.998 641c-21.5859 0 -40.585 -17.001 -56.999 -51.001l-32 19c8 34 19.667 59.833 35 77.5s31.666 26.5 48.999 26.5s37.166 -5.66699 59.499 -17c30.7842 -15.6221 50.6748 -25.3604 59.6719 -29.2158
s17.8848 -5.7832 26.6621 -5.7832s17.833 4.16699 27.166 12.5s17.333 21.5 24 39.5l35 -23c-7.33301 -32 -19.166 -56.667 -35.499 -74s-31.333 -26 -45 -26s-26.167 2 -37.5 6s-27 11.167 -47 21.5s-33.5 16.833 -40.5 19.5s-14.167 4 -21.5 4z" />
    <glyph glyph-name="odieresis" unicode="&#xf6;" horiz-adv-x="547" 
d="M274 490c66.3496 0 120.104 -21.6084 161.263 -64.8252s61.7383 -105.275 61.7383 -186.176c0 -80.2334 -20.5791 -141.958 -61.7383 -185.175s-94.9131 -64.8252 -161.263 -64.8252s-120.104 21.6084 -161.263 64.8252s-61.7383 104.941 -61.7383 185.175
c0 80.9004 20.5791 142.959 61.7383 186.176s94.9131 64.8252 161.263 64.8252zM381 373.5c-24 32.333 -59.165 48.5 -105.498 48.5s-81.833 -16.167 -106.5 -48.5s-37 -77 -37 -134s11.667 -101.667 35 -134s58.166 -48.5 104.499 -48.5s82.166 16.167 107.499 48.5
s38 77 38 134s-12 101.667 -36 134zM152.502 619.5c-9.66699 9.66699 -14.5 21.5 -14.5 35.5s4.83301 25.833 14.5 35.5s22.167 14.5 37.5 14.5s28.166 -4.83301 38.499 -14.5s15.5 -21.5 15.5 -35.5s-5.16699 -25.833 -15.5 -35.5s-23.166 -14.5 -38.499 -14.5
s-27.833 4.83301 -37.5 14.5zM321.002 619.5c-10 9.66699 -15 21.5 -15 35.5s5 25.833 15 35.5s22.5 14.5 37.5 14.5s27.667 -4.83301 38 -14.5s15.5 -21.5 15.5 -35.5s-5.16699 -25.833 -15.5 -35.5s-23 -14.5 -38 -14.5s-27.5 4.83301 -37.5 14.5z" />
    <glyph glyph-name="ugrave" unicode="&#xf9;" horiz-adv-x="606" 
d="M426 95c-32.6279 -69.333 -85.6279 -104 -159 -104c-54 0 -97.5 15 -130.5 45s-49.5 76.333 -49.5 139v304h79v-298c0 -80.667 37.333 -121 112 -121c43.25 0 78.417 16.667 105.5 50c26.9971 33.2275 41.1641 75.8945 42.5 128v241h79v-479h-79v95zM200 769l235 -133
l-23 -50l-245 113z" />
    <glyph glyph-name="uacute" unicode="&#xfa;" horiz-adv-x="606" 
d="M267 -9c73.3721 0 126.372 34.668 159 104.001v-95h79v479h-79v-233c0 -55.0771 -13.7139 -99.8467 -41.1426 -134.309s-63.0479 -51.6924 -106.857 -51.6924c-74.667 0 -112 40.333 -112 121v298h-79v-304c0 -62.667 16.5 -109 49.5 -139s76.5 -45 130.5 -45z
M433 699.001l-244 -113l-23 50l235 133z" />
    <glyph glyph-name="ucircumflex" unicode="&#xfb;" horiz-adv-x="606" 
d="M426 95c-32.6279 -69.333 -85.6279 -104 -159 -104c-54 0 -97.5 15 -130.5 45s-49.5 76.333 -49.5 139v304h79v-298c0 -80.667 37.333 -121 112 -121c43.25 0 78.417 16.667 105.5 50c26.9971 33.2275 41.1641 75.8945 42.5 128v241h79v-479h-79v95zM480 625l-50 -39
l-129 108l-130 -108l-50 39l180 156z" />
    <glyph glyph-name="udieresis" unicode="&#xfc;" horiz-adv-x="606" 
d="M426 95c-32.6279 -69.333 -85.6279 -104 -159 -104c-54 0 -97.5 15 -130.5 45s-49.5 76.333 -49.5 139v304h79v-298c0 -80.667 37.333 -121 112 -121c43.25 0 78.417 16.667 105.5 50c26.9971 33.2275 41.1641 75.8945 42.5 128v241h79v-479h-79v95zM178.5 619.5
c-9.66699 9.66699 -14.5 21.5 -14.5 35.5s4.83301 25.833 14.5 35.5s22.167 14.5 37.5 14.5s28.166 -4.83301 38.499 -14.5s15.5 -21.5 15.5 -35.5s-5.16699 -25.833 -15.5 -35.5s-23.166 -14.5 -38.499 -14.5s-27.833 4.83301 -37.5 14.5zM347 619.5
c-10 9.66699 -15 21.5 -15 35.5s5 25.833 15 35.5s22.5 14.5 37.5 14.5s27.667 -4.83301 38 -14.5s15.5 -21.5 15.5 -35.5s-5.16699 -25.833 -15.5 -35.5s-23 -14.5 -38 -14.5s-27.5 4.83301 -37.5 14.5z" />
    <glyph glyph-name="dotlessi" unicode="&#x131;" 
d="M101 479h79v-479h-79v479z" />
    <glyph glyph-name="apostrophe" unicode="&#x2bc;" horiz-adv-x="184" 
d="M73 538c-10 8.66699 -15 20.335 -15 35.002s5.16699 27 15.5 37s25 15 44 15s34.833 -7.5 47.5 -22.5s19 -33.833 19 -56.5s-7.33301 -45.834 -22 -69.501s-37 -42.834 -67 -57.501l-59 29c41.627 20.0957 66.627 45.0957 75 75c-15.333 1.33301 -28 6.33301 -38 15z" />
    <glyph glyph-name="circumflex" unicode="&#x2c6;" horiz-adv-x="407" 
d="M383 716l-50 -39l-129 108l-130 -108l-50 39l180 156z" />
    <glyph glyph-name="tilde" unicode="&#x2dc;" horiz-adv-x="366" 
d="M112 770c-21.5859 0 -40.585 -17.001 -56.999 -51.001l-32 19c8 34 19.667 59.833 35 77.5s31.666 26.5 48.999 26.5s37.166 -5.66699 59.499 -17c30.7842 -15.6221 50.6748 -25.3604 59.6719 -29.2158s17.8848 -5.7832 26.6621 -5.7832s17.833 4.16699 27.166 12.5
s17.333 21.5 24 39.5l35 -23c-7.33301 -32 -19.166 -56.667 -35.499 -74s-31.333 -26 -45 -26s-26.167 2 -37.5 6s-27 11.167 -47 21.5s-33.5 16.833 -40.5 19.5s-14.167 4 -21.5 4z" />
    <glyph glyph-name="endash" unicode="&#x2013;" horiz-adv-x="474" 
d="M55 325h364v-68h-364v68z" />
    <glyph glyph-name="emdash" unicode="&#x2014;" horiz-adv-x="726" 
d="M55 325h616v-68h-616v68z" />
    <glyph glyph-name="quoteleft" unicode="&#x2018;" horiz-adv-x="214" 
d="M146.5 433.5c-10.333 -10.333 -24.833 -15.5 -43.5 -15.5s-34.5 7.66699 -47.5 23s-19.5 34.5 -19.5 57.5s7.83301 46.333 23.5 70s38.5 42.834 68.5 57.501l56 -29c-41.4805 -21.4551 -66.4805 -46.7881 -75 -76c15.333 -1.33301 28 -6.33301 38 -15
s15 -20.334 15 -35.001s-5.16699 -27.167 -15.5 -37.5z" />
    <glyph glyph-name="quoteright" unicode="&#x2019;" horiz-adv-x="214" 
d="M52 611c10.667 10 25.498 14.999 44.498 14.999s34.667 -7.33301 47 -22s18.5 -33.667 18.5 -57s-7.83301 -46.833 -23.5 -70.5s-38.167 -43.167 -67.5 -58.5l-56 30c41.4805 21.4551 66.4805 46.7881 75.001 76c-15.333 1.33301 -28.166 6.33301 -38.499 15
s-15.5 20.334 -15.5 35.001s5.33301 27 16 37z" />
    <glyph glyph-name="rupeesymbol" unicode="&#x20b9;" horiz-adv-x="581" 
d="M92 629l416.002 -0.000976562v-49h-183c46 -24 74 -58.333 84 -103h99v-48h-94c-4.37793 -76.6221 -44.0449 -129.455 -119 -158.5c-26.667 -10.333 -58.334 -17.166 -95.001 -20.499l274 -250h-112l-270 248v48h61c58 0 101 12.667 129 38s43 57 45 95h-235v48h231
c-7.33301 30.667 -24.833 55.5 -52.5 74.5s-66.834 28.5 -117.501 28.5h-61v49z" />
    <glyph glyph-name="minus" unicode="&#x2212;" horiz-adv-x="488" 
d="M409 325v-67h-330v67h330z" />
    <glyph glyph-name=".null" horiz-adv-x="0" 
 />
    <glyph glyph-name="nonmarkingreturn" horiz-adv-x="553" 
 />
    <glyph glyph-name="zero.propold" horiz-adv-x="531" 
d="M265.5 551c65.6006 0 117.918 -24.3115 156.951 -72.9316s58.5498 -117.977 58.5498 -208.07s-19.5166 -159.45 -58.5498 -208.07s-91.3506 -72.9297 -156.951 -72.9297s-117.751 24.1025 -156.45 72.3076s-58.0488 117.77 -58.0488 208.693
s19.3496 160.488 58.0488 208.693s90.8496 72.3076 156.45 72.3076zM400 269.998c0 141.333 -44.667 212 -134 212s-134 -70.667 -134 -212c0 -140.667 44.667 -211 134 -211s134 70.333 134 211z" />
    <glyph glyph-name="one.propold" horiz-adv-x="331" 
d="M49 489c46.0176 7.42188 85.0176 24.7549 117 51.999h64v-541h-78v446c-34 -21.333 -68.333 -32.666 -103 -33.999v77z" />
    <glyph glyph-name="two.propold" horiz-adv-x="575" 
d="M143 73l357.001 -0.000976562v-73h-436v84c0 53.333 12.333 93.833 37 121.5s62.334 47.167 113.001 58.5l103 25c35.333 8 61.5 20 78.5 36s25.5 37 25.5 63s-10.667 48 -32 66s-51.333 27 -90 27s-70.167 -7.66699 -94.5 -23s-38.5 -38.666 -42.5 -69.999h-87
c3.33301 52 24.333 92.167 63 120.5s89.4336 42.5 152.3 42.5s113.699 -16.167 152.499 -48.5s58.2002 -70.5 58.2002 -114.5s-12.333 -78.167 -37 -102.5s-62.334 -42.5 -113.001 -54.5l-111 -27c-64.667 -14.6416 -97 -47.6416 -97 -99v-32z" />
    <glyph glyph-name="three.propold" horiz-adv-x="562" 
d="M260 483c-73.415 0 -117.082 -31 -131 -93h-83c14.6367 107.333 85.6367 161 213 161c61.833 0 112.125 -15.5 150.875 -46.5s58.125 -71.167 58.125 -120.5c0 -34 -9.5 -61.333 -28.5 -82s-45.5 -37.334 -79.5 -50.001c40.667 -13.333 73 -35.833 97 -67.5
s36 -68.5 36 -110.5c0 -54.7539 -21.5 -99.7539 -64.5 -135c-43.1064 -35.333 -98.7168 -53 -166.83 -53s-124.087 17.3945 -167.92 52.1826s-65.75 84.7275 -65.75 149.817h80c1.33301 -46 15.833 -79.833 43.5 -101.5s63.3994 -32.5 107.197 -32.5
s80.2979 11.752 109.5 35.2559s43.8027 53.4189 43.8027 89.7441c0 58.9111 -29.667 99.2441 -89 121c-20 7.33301 -44 11 -72 11h-61v63h43c48 0 85.833 8.66699 113.5 26s41.5 42.333 41.5 75s-11.333 58.834 -34 78.501s-54 29.5 -94 29.5z" />
    <glyph glyph-name="four.propold" horiz-adv-x="560" 
d="M427 546v-425h109v-67h-109v-159h-78v159h-325v61l329 431h74zM112 115h239v307z" />
    <glyph glyph-name="five.propold" horiz-adv-x="569" 
d="M187 296c30.667 6.66699 61.999 9.99805 93.999 9.99805c70 0 125 -17.667 165 -53s60 -84.3809 60 -147.143s-22.373 -115.095 -67.1191 -156.999s-98.7461 -62.8564 -162 -62.8564s-114.381 16.7139 -153.381 50.1426s-58.5 79.7148 -58.5 138.857h77
c0 -38 11.667 -67 35 -87s55.9834 -30 97.9502 -30s77.6504 14 107.051 42c29.333 27.9365 44 63.0869 44 105.452s-13.5 75.5479 -40.5 99.5479s-66.833 36 -119.5 36h-162l28 304h345v-71h-272z" />
    <glyph glyph-name="six.propold" horiz-adv-x="573" 
d="M425 470c-11.6152 65.333 -47.3818 98.002 -107.306 98.002s-106.021 -24.7168 -138.289 -74.1494s-48.4023 -116.717 -48.4023 -201.852c0 -35.333 1.66699 -64.666 5 -87.999c3.76367 61.4805 22.5459 106.018 56.3467 133.61
c33.8018 27.5928 77.1025 41.3896 129.903 41.3896s98.126 -18.5742 135.975 -55.7227s56.7734 -84.4434 56.7734 -141.885s-19.624 -104.034 -58.8721 -139.778s-90.957 -53.6162 -155.127 -53.6162c-74.8623 0 -135.245 30.0127 -181.147 90.0381
s-68.8535 138.849 -68.8535 236.47s23.333 176.285 70 235.991c46.6357 59.667 110.303 89.5 191 89.5c55.7773 0 101.385 -15.6338 136.822 -46.9023s55.8301 -72.3008 61.1768 -123.097h-85zM207.503 273.502c-25 -23.5713 -37.501 -53.667 -37.501 -90.2861
s12.2656 -66.1426 36.7969 -88.5713s55.8643 -33.6426 94 -33.6426s69.7031 11 94.7031 33s37.5 52.333 37.5 91s-12.5 69 -37.5 91s-56.3076 33 -93.9238 33s-68.9746 -11.833 -94.0752 -35.5z" />
    <glyph glyph-name="seven.propold" horiz-adv-x="470" 
d="M452 551v-67l-300 -582h-97l314 579h-345v70h428z" />
    <glyph glyph-name="eight.propold" horiz-adv-x="615" 
d="M201 318c-83.333 37.8789 -125.001 89.5469 -125.001 155.001c0 49.9209 20.5869 90.2344 61.7607 120.94s95.9424 46.0596 164.305 46.0596s124.608 -16.3711 168.739 -49.1133s66.1963 -74.7041 66.1963 -125.887c0 -34.667 -11.5 -65.667 -34.5 -93
s-56.833 -44.333 -101.5 -51l17 -6c46 -17.333 81.333 -37.833 106 -61.5s37 -55.834 37 -96.501c0 -50.5459 -22.5332 -91.1826 -67.5996 -121.91s-105.785 -46.0908 -182.156 -46.0908s-138.171 16.918 -185.4 50.7539s-70.8438 76.585 -70.8438 128.247
c0 41.333 13.5 75 40.5 101s62.167 42.333 105.5 49zM275.999 289.001c-42 -4.66699 -75.665 -17.832 -100.998 -39.499s-38 -48.4355 -38 -80.3047s15.9658 -57.8691 47.8965 -78s73.7637 -30.1963 125.499 -30.1963s92.7695 8.66699 123.103 26s45.5 38.333 45.5 63
s-8 44.5 -24 59.5s-38 27.5 -66 37.5zM159.001 463.003c0 -18 7.33105 -33.501 21.998 -46.501s35.667 -24.833 63 -35.5l73 -28c40.1885 1.38574 73.2354 11.8809 99.1416 31.4854s38.8594 45.2578 38.8594 76.9609s-13.667 57.3877 -41 77.0547
s-62.6289 29.5 -105.888 29.5s-78.9258 -9.47461 -107 -28.4248s-42.1113 -44.4756 -42.1113 -76.5752z" />
    <glyph glyph-name="nine.propold" horiz-adv-x="580" 
d="M285.5 551c35.667 0 68.998 -8.50293 99.998 -25.5029s57.167 -40 78.5 -69c44 -59.8125 66 -139.666 66 -239.562s-21.6084 -180.025 -64.8242 -240.391s-104.607 -90.5479 -184.176 -90.5479c-62.2393 0 -112.966 18.5566 -152.18 55.6699
s-58.8203 84.2236 -58.8203 141.331h83c1.33301 -38 12.833 -68.333 34.5 -91s50 -34 85 -34s63 6.5 84 19.5c61.667 38.1748 92.5 125.008 92.5 260.5c0 30 -1.66699 56.667 -5 80c-5.33301 -51.333 -23.666 -91.166 -54.999 -119.499s-73.2109 -42.5 -125.634 -42.5
s-98.4229 18.709 -138 56.127s-59.3652 84.709 -59.3652 141.873c0 58.1426 19.7051 105.512 59.1152 142.107s92.8721 54.8936 160.385 54.8936zM278.998 480.997c-40 0 -71.833 -11.5 -95.5 -34.5s-35.5 -54 -35.5 -93s12 -70 36 -93s55.5 -34.5 94.5 -34.5
s70.833 12.333 95.5 37s37 55.667 37 93s-12 67.5 -36 90.5s-56 34.5 -96 34.5z" />
    </font>
</defs>
</svg>
