<?xml version="1.0" standalone="no"?>
<!DOCTYPE svg PUBLIC "-//W3C//DTD SVG 1.1//EN" "http://www.w3.org/Graphics/SVG/1.1/DTD/svg11.dtd" >
<svg version="1.1" xmlns="http://www.w3.org/2000/svg">
<metadata>
Created by FontForge 20120731 at Fri Aug  1 16:50:21 2014

Copyright (c) 2011-2012, Jonathan Pinhorn (jonpinhorn.typedesign@gmail.com), with Reserved Font Names 'Karla'
</metadata>
<defs>
<font id="karla" horiz-adv-x="508" >
  <font-face 
    font-family="Karla"
    font-weight="400"
    font-style="italic"
    font-stretch="normal"
    units-per-em="1000"
    panose-1="0 0 0 0 0 0 0 0 0 0"
    ascent="800"
    descent="-200"
    x-height="478"
    cap-height="629"
    bbox="-96.0029 -246 851 879"
    underline-thickness="50"
    underline-position="-50"
    unicode-range="U+0020-2212"
  />
<missing-glyph horiz-adv-x="498" 
 />
    <glyph glyph-name=".notdef" horiz-adv-x="498" 
 />
    <glyph glyph-name="space" unicode=" " horiz-adv-x="214" 
 />
    <glyph glyph-name="space" unicode="&#xa0;" horiz-adv-x="214" 
 />
    <glyph glyph-name="exclam" unicode="!" horiz-adv-x="250" 
d="M148 627h74l-50 -451h-58zM88.5 7.5c-9 11 -12.6689 24.333 -11.002 40s7.83398 29 18.501 40s23.667 16.5 39 16.5s27.833 -5.5 37.5 -16.5s13.667 -24.333 12 -40s-8.16699 -29 -19.5 -40s-24.666 -16.5 -39.999 -16.5s-27.5 5.5 -36.5 16.5z" />
    <glyph glyph-name="quotedbl" unicode="&#x22;" horiz-adv-x="275" 
d="M163 681l-31 -220h-54l11 220h74zM314 681l-31 -220h-54l11 220h74z" />
    <glyph glyph-name="numbersign" unicode="#" horiz-adv-x="564" 
d="M357 170h-138l-26 -139h-66l26 139h-90l10 54h90l34 178h-91l10 53h91l26 138h67l-26 -138h138l26 138h66l-26 -138h92l-10 -53h-92l-34 -178h92l-10 -54h-92l-26 -139h-67zM230 224h138l34 178h-138z" />
    <glyph glyph-name="dollar" unicode="$" horiz-adv-x="569" 
d="M406 330c40 -15.333 70.3301 -35.834 90.9971 -61.501s29 -60.167 25 -103.5c-4.24219 -45.251 -24.0752 -83.918 -59.5 -116c-39.208 -35.5098 -90.041 -55.1768 -152.499 -59.001l-7 -81h-56l7 82c-55.1885 5.51855 -98.8555 24.6855 -131 57.5
c-34.5264 35.2461 -49.1934 82.0791 -44 140.5h69c-3.33301 -40 5.33398 -70 26.001 -90s49.667 -32 87 -36l23 236l-28 11c-49.3408 17.8174 -84.8408 38.4844 -106.5 62c-22.9199 24.8838 -32.3994 59.4385 -28.4395 103.663s22.4395 81.1699 55.4395 110.837
s79.5 46.834 139.5 51.501l7 75h56l-7 -76c51.333 -4.66699 89.833 -21.167 115.5 -49.5s39.834 -65.5 42.501 -111.5h-70c-5.4873 52.1309 -37.1543 82.7979 -95 92.001l-20 -215zM442.997 166.999c3.89258 49.3027 -20.4414 83.6357 -73 103l-32 12l-21 -220
c38.667 3.33301 68.5 15.333 89.5 36s33.167 43.667 36.5 69zM228.996 535.999c-19.333 -18 -30 -39.167 -32 -63.5s2.5 -43.333 13.5 -57s29.167 -25.167 54.5 -34.5l26 -10l18 197c-34 -3.33301 -60.667 -14 -80 -32z" />
    <glyph glyph-name="percent" unicode="%" horiz-adv-x="653" 
d="M331.39 494.213c-4.25977 -46.1426 -19.0557 -81.2129 -44.3887 -105.213s-53.333 -36 -84 -36c-32.667 0 -58.334 12 -77.001 36c-19.9189 25.6104 -27.7324 61.6797 -23.4395 108.208s18.9395 81.959 43.9395 106.292s53.2041 36.5 84.6113 36.5
s57.0371 -12.7627 76.8896 -38.2871s27.6484 -61.3574 23.3887 -107.5zM264.501 565.001c-9.66699 14.667 -23.167 22 -40.5 22s-32 -7.33301 -44 -22s-19.667 -37.667 -23 -69s-0.166016 -54 9.50098 -68s23.167 -21 40.5 -21s32 7 44 21s19.667 36.667 23 68
s0.166016 54.333 -9.50098 69zM540.001 629.001h74l-440 -629h-73zM510.001 276.001c32.667 0 58.335 -12 77.002 -36c20.4727 -26.3223 28.8057 -62.3223 24.999 -108c-3.875 -45.208 -18.875 -80.875 -45 -107c-24 -24 -52.333 -36 -85 -36c-32 0 -57.333 12 -76 36
c-19.9189 25.6104 -27.9189 61.2773 -24 107c3.78125 45.375 18.6143 81.375 44.5 108c23.333 24 51.166 36 83.499 36zM505.002 223.001c-17.333 0 -32.168 -7.33301 -44.501 -22s-20 -37.667 -23 -69s0.333008 -54 10 -68s23.167 -21 40.5 -21s32 7 44 21
s19.333 36.667 22 68c3.33301 31.333 0.333008 54.333 -9 69s-22.666 22 -39.999 22z" />
    <glyph glyph-name="ampersand" unicode="&#x26;" horiz-adv-x="824" 
d="M685 350c-36.4189 -93.2334 -77.7559 -167.234 -124.003 -222.001l35 -37c10.667 -11.333 20.5 -19.666 29.5 -24.999s20.833 -8 35.5 -8s28.334 6.16699 41.001 18.5s21.334 33.5 26.001 63.5h67c-7.33301 -48 -22.333 -85.167 -45 -111.5s-53 -39.5 -91 -39.5
c-23.333 0 -44.5 5.33301 -63.5 16s-39.167 27.667 -60.5 51l-21 22c-64.9844 -59.333 -135.984 -89 -213 -89c-62.9658 0 -114.466 17.833 -154.5 53.5c-39.0869 34.8223 -56.1084 76.7783 -51.0654 125.867s22.8975 86.1328 53.5645 111.133s74.334 42.5 131.001 52.5
l-12 13c-42.3633 45.1875 -61.0303 94.1875 -56 147c4.1543 42.9229 23.1543 77.9229 57 105c35 28 79.333 42 133 42c48.9404 0 87.9404 -14.167 117 -42.5c28.0322 -27.332 40.207 -60.915 36.5244 -100.749s-18.5244 -74.084 -44.5244 -102.751s-66.667 -55.667 -122 -81
l130 -139c43.667 52.4004 83.334 121.4 119.001 207zM173.996 176.999c-3.33301 -32.667 6.33398 -60.5 29.001 -83.5s58 -34.5 106 -34.5c58.5 0 112.5 22 162 66l-151 164c-92.667 -12.667 -141.334 -50 -146.001 -112zM468.996 451.999
c4.66699 11.333 7.83301 26.166 9.5 44.499s-5 35.5 -20 51.5s-37.333 24 -67 24s-53.667 -9.16699 -72 -27.5s-28.5 -38.166 -30.5 -59.499c-3.66895 -39.1367 9.66406 -75.1367 40 -108l23 -25c63.1865 30.6904 102.187 64.0234 117 100z" />
    <glyph glyph-name="quotesingle" unicode="'" horiz-adv-x="122" 
d="M162 677l-31 -220h-54l11 220h74z" />
    <glyph glyph-name="parenleft" unicode="(" horiz-adv-x="320" 
d="M360 687c-114.813 -117.516 -178.815 -244.181 -192.002 -379.999c-12.1055 -137.2 27.8945 -263.867 120 -380.001l-55 -40c-53.333 59.333 -91.666 125 -114.999 197s-31.333 146.5 -24 223.5s29.333 151.333 66 223s87.334 137.5 152.001 197.5z" />
    <glyph glyph-name="parenright" unicode=")" horiz-adv-x="320" 
d="M145 728c107.181 -120.578 153.181 -260.912 138 -421c-7.33301 -76.667 -29.333 -151 -66 -223s-87 -137.667 -151 -197l-48 40c114.67 117.368 178.67 244.035 192 380c12 137.333 -28 264 -120 380z" />
    <glyph glyph-name="asterisk" unicode="*" horiz-adv-x="371" 
d="M204 516l-101 40l27 54l90 -54l2 128h56l-21 -128l101 54l16 -54l-108 -40l72 -89l-43 -39l-62 104l-82 -104l-37 39z" />
    <glyph glyph-name="plus" unicode="+" horiz-adv-x="474" 
d="M319 491l-20 -212h185l-6 -67h-186l-19 -212h-71l19 212h-185l6 67h186l19 212h72z" />
    <glyph glyph-name="comma" unicode="," horiz-adv-x="189" 
d="M61 10c-8.66699 8.66699 -12.333 20.335 -11 35.002s7.33301 27 18 37s24.5 15 41.5 15s30.5 -7.5 40.5 -22.5s13.833 -33.833 11.5 -56.5s-11.333 -45.834 -27 -69.501s-37.5 -42.834 -65.5 -57.501l-50 29c40.7637 21.1367 65.7637 46.1367 75 75
c-13.333 1.33301 -24.333 6.33301 -33 15z" />
    <glyph glyph-name="hyphen" unicode="-" horiz-adv-x="314" 
d="M65 325h245l-7 -68h-245z" />
    <glyph glyph-name="period" unicode="." horiz-adv-x="161" 
d="M42.5 7.5c-9 11 -12.834 24.333 -11.501 40s7.33301 29 18 40s23.834 16.5 39.501 16.5s28 -5.5 37 -16.5s12.833 -24.333 11.5 -40s-7.5 -29 -18.5 -40s-24.167 -16.5 -39.5 -16.5s-27.5 5.5 -36.5 16.5z" />
    <glyph glyph-name="slash" unicode="/" horiz-adv-x="389" 
d="M346 731h72l-303 -804h-71z" />
    <glyph glyph-name="zero" unicode="0" horiz-adv-x="535" 
d="M328 640c68.4609 0 119.461 -27.167 153 -81.5c34.5283 -55.9355 47.1953 -137.103 38 -243.5c-15.6709 -160.627 -69.1709 -262.46 -160.5 -305.5c-29 -13.667 -60.167 -20.5 -93.5 -20.5c-67.7939 0 -118.461 27.167 -152 81.5
c-35.0322 56.752 -47.3652 138.252 -37 244.5c9.12793 105.627 36.7949 186.794 83 243.5c44.2715 54.333 100.604 81.5 169 81.5zM425.5 502.5c-21 43.667 -55.832 65.5 -104.499 65.5s-87.5 -21.833 -116.5 -65.5s-47.5 -106.334 -55.5 -188.001
s-1.33301 -144.334 20 -188.001s56.166 -65.5 104.499 -65.5s87 21.833 116 65.5s47.5 106.334 55.5 188.001s1.5 144.334 -19.5 188.001z" />
    <glyph glyph-name="one" unicode="1" horiz-adv-x="298" 
d="M266 631l-59 -630.999h-70l50 537c-29.1904 -20.3066 -61.1904 -31.9736 -96 -35.001l7 78c42.1348 5.81152 79.1348 22.8115 111 51h57z" />
    <glyph glyph-name="two" unicode="2" horiz-adv-x="522" 
d="M135 73h327.999l-6 -73h-399l8 93c7.24023 74.2148 37.7402 128.715 91.5 163.5c17 11 35.833 20.833 56.5 29.5l116 50c60.3008 25.46 92.9678 67.127 98 125c3.33301 32 -4 58.167 -22 78.5s-44.833 30.5 -80.5 30.5s-65.5 -8.33301 -89.5 -25s-39.333 -41.667 -46 -75
h-78c8 54.667 31.5 96.667 70.5 126s88.5 44 148.5 44c55.7686 0 99.7686 -17.167 132 -51.5c33.2275 -35.3945 47.2012 -78.4932 41.9209 -129.296s-21.0869 -91.2041 -47.4199 -121.204s-61.166 -54 -104.499 -72l-119 -51c-30 -13.333 -52.833 -28.5 -68.5 -45.5
s-24.834 -39.167 -27.501 -66.5z" />
    <glyph glyph-name="three" unicode="3" horiz-adv-x="532" 
d="M321 640c26.667 0 51.499 -4.33398 74.499 -13.001s42.5 -20.5 58.5 -35.5c34.085 -31.9541 49.085 -73.1211 45 -123.5c-7.33301 -67.333 -45 -113.666 -113 -138.999c34.667 -11.333 61.834 -30 81.501 -56s28 -56 25 -90s-10.5 -62.333 -22.5 -85s-27.667 -42 -47 -58
c-41.083 -34 -93.416 -51 -156.999 -51c-60.9678 0 -110.301 17.167 -148 51.5c-41.7021 37.9785 -59.3691 88.8115 -53 152.499h74c-3.33301 -43.333 7.83398 -76.166 33.501 -98.499s59.334 -33.5 101.001 -33.5s75 11.167 100 33.5s39.167 50 42.5 83
s-5.16699 60 -25.5 81s-55.5 31.5 -105.5 31.5h-65l7 63h44c43.333 0 78.333 9.5 105 28.5s41.667 44.5 45 76.5s-4.33398 58.333 -23.001 79s-44.834 31 -78.501 31s-62.334 -6.5 -86.001 -19.5s-40.834 -37.167 -51.501 -72.5h-74
c11.3389 55.4326 37.0059 97.4326 77.001 126c35.4668 25.333 80.7998 38 136 38z" />
    <glyph glyph-name="four" unicode="4" horiz-adv-x="503" 
d="M445 638l-39 -418h98l-7 -68h-98l-14 -152h-69l13 152h-292l6 61l337 425h65zM128 213h209l28 300z" />
    <glyph glyph-name="five" unicode="5" 
d="M205 376c33 6 63 9 90 9c62 0 109.167 -15.167 141.5 -45.5s45.833 -75.5 40.5 -135.5c-6.99219 -64.3252 -30.1592 -115.492 -69.501 -153.5c-42.4385 -41 -93.9385 -61.5 -154.5 -61.5c-55.9854 0 -100.485 15.833 -133.5 47.5
c-34.8984 33.4746 -49.7314 79.6416 -44.499 138.501h71c-3.33301 -38 6 -66.5 28 -85.5s50.667 -28.5 86 -28.5c39.0527 0 71.8857 13.667 98.5 41c25.6338 26.3262 40.292 59.7412 43.9756 100.244c7.32031 80.5029 -35.5049 120.755 -128.476 120.755h-152l54 306h314
l-7 -72h-245z" />
    <glyph glyph-name="six" unicode="6" horiz-adv-x="516" 
d="M427 470c-4.35547 65.333 -34.6904 98.002 -91.002 98.002c-52.0928 0 -94.9258 -24.667 -128.5 -74c-37.0254 -54.4053 -59.0254 -136.238 -65.999 -245.5c-1 -15.667 -1.16699 -30.5 -0.5 -44.5c14.7197 90.1572 54.5527 145.49 119.5 166c19 6 39.833 9 62.5 9
s44.5 -4.83301 65.5 -14.5s38.833 -23.334 53.5 -41.001c31.2715 -37.668 44.2715 -84.835 39 -141.501c-6.59766 -58.0566 -29.0977 -104.89 -67.5 -140.499c-38.4639 -35.667 -86.6309 -53.5 -144.5 -53.5c-66.7998 0 -118.3 30.167 -154.5 90.5
c-35.1562 58.5928 -48.6562 133.426 -40.5 224.499c9.20605 103.897 38.0391 186.397 86.5 247.5c47.3223 59.667 107.489 89.5 180.501 89.5c51.333 0 91.333 -15.667 120 -47s42.667 -72.333 42 -123h-76zM169.506 182.109
c-3.00586 -36.7383 5.6582 -66.1094 25.9912 -88.1094s47.5 -33 81.5 -33s63.333 11 88 33s38.667 52.333 42 91s-5.16699 69 -25.5 91s-47.3076 33 -80.9238 33s-63.1133 -11.9639 -88.4912 -35.8916s-39.5703 -54.2607 -42.5762 -90.999z" />
    <glyph glyph-name="seven" unicode="7" horiz-adv-x="423" 
d="M466 629l-7 -73l-311 -556h-96l324 553h-302l7 76h385z" />
    <glyph glyph-name="eight" unicode="8" horiz-adv-x="553" 
d="M334.5 640c31.667 0 59.6699 -4.5 84.0029 -13.5s44.833 -21.167 61.5 -36.5c36.0869 -33.1992 51.4199 -74.8662 46 -125c-2.71973 -35.3545 -15.8867 -66.1875 -39.501 -92.5c-25.0332 -27.8945 -56.8662 -45.0615 -95.499 -51.5l15 -6
c40 -17.333 69.833 -37.833 89.5 -61.5s27.167 -58.167 22.5 -103.5s-28.334 -83.5 -71.001 -114.5s-100.334 -46.5 -173.001 -46.5c-65.667 0 -118.334 17 -158.001 51c-39.2979 33.6836 -56.2979 76.3506 -51 128c3.33301 41.333 18.333 75 45 101s60 42.333 100 49
c-30.083 15.833 -51.7705 32.458 -65.0625 49.875c-25.6104 33.5586 -36.5898 68.6006 -32.9375 105.125c4.14746 49.7666 26.1475 89.7666 66 120c41.3027 31.333 93.4697 47 156.5 47zM275.003 289c-37.2246 -3.85059 -68.8926 -17.0166 -95.001 -39.499
c-24.6221 -21.2031 -38.2891 -46.0361 -41 -74.5c-3.9248 -35.3213 8.24219 -63.4883 36.5 -84.501c26.4482 -19.667 62.9766 -29.5 109.586 -29.5s84.2471 8.66699 112.914 26s44.167 38.333 46.5 63s-3.16699 44.5 -16.5 59.5s-31.666 27.5 -54.999 37.5zM256.002 381.001
l63 -28c35.8691 1.37988 66.2021 11.7129 91 31c24.6465 19.1689 38.8076 44.7949 42.4844 76.877s-5.98438 57.9561 -28.9844 77.623s-54.5 29.5 -94.5 29.5c-37.9258 0 -70.2588 -9.5 -97 -28.5c-27.415 -19.4785 -42.5957 -45.1299 -45.542 -76.9531
s20.2344 -59.0059 69.542 -81.5469z" />
    <glyph glyph-name="nine" unicode="9" horiz-adv-x="523" 
d="M314.5 640c30.333 0 58.6689 -7.33496 85.002 -22.002s48.166 -35.667 65.499 -63c37.7256 -59.4902 52.0586 -135.823 43 -229c-16.7666 -163.478 -67.7666 -267.978 -153 -313.5c-29.333 -15.667 -60.5 -23.5 -93.5 -23.5s-61 4.83301 -84 14.5
s-42.167 23.334 -57.5 41.001c-32.6133 37.5762 -46.2803 84.7432 -41.001 141.501h75c-3.33301 -38 4.33398 -68.333 23.001 -91s43.667 -34 75 -34s57 6.5 77 19.5s37.333 31.5 52 55.5c28.3184 46.3389 46.6514 113.339 55 201c2.5332 25.333 3.2002 50 2 74
c-11.333 -54 -32.833 -94.333 -64.5 -121s-68.834 -40 -111.501 -40c-51.2832 0 -92.2832 18.5 -123 55.5c-30.6719 36.9453 -43.3389 84.1123 -38 141.5c5.38867 57.9287 27.5557 104.596 66.5 140c38.8662 35.333 87.8662 53 147 53zM385.503 533.998
c-20.333 22 -47.3301 32.999 -80.9971 32.999s-62.834 -11 -87.501 -33s-38.834 -52.333 -42.501 -91s4.66602 -69 24.999 -91s47.833 -33 82.5 -33c33.6162 0 62.6162 11.833 87 35.5c25.3545 24.6084 39.5264 55.1777 42.5156 91.707s-5.68262 65.7939 -26.0156 87.7939z
" />
    <glyph glyph-name="colon" unicode=":" horiz-adv-x="208" 
d="M68.5 39.5c-9 11 -12.834 24.333 -11.501 40s7.33301 29 18 40s23.834 16.5 39.501 16.5s28 -5.5 37 -16.5s12.833 -24.333 11.5 -40s-7.5 -29 -18.5 -40s-24.167 -16.5 -39.5 -16.5s-27.5 5.5 -36.5 16.5zM97.499 345.5c-9 11 -12.834 24.333 -11.501 40
s7.33301 29 18 40s23.834 16.5 39.501 16.5s28 -5.5 37 -16.5s12.833 -24.333 11.5 -40s-7.5 -29 -18.5 -40s-24.167 -16.5 -39.5 -16.5s-27.5 5.5 -36.5 16.5z" />
    <glyph glyph-name="semicolon" unicode=";" horiz-adv-x="236" 
d="M85 10c-8.66699 8.66699 -12.333 20.335 -11 35.002s7.33301 27 18 37s24.5 15 41.5 15s30.5 -7.5 40.5 -22.5s13.833 -33.833 11.5 -56.5s-11.333 -45.834 -27 -69.501s-37.5 -42.834 -65.5 -57.501l-50 29c40.7637 21.1367 65.7637 46.1367 75 75
c-13.333 1.33301 -24.333 6.33301 -33 15zM120.501 345.501c-9 11 -12.834 24.333 -11.501 40s7.33301 29 18 40s23.834 16.5 39.501 16.5s28 -5.5 37 -16.5s12.833 -24.333 11.5 -40s-7.5 -29 -18.5 -40s-24.167 -16.5 -39.5 -16.5s-27.5 5.5 -36.5 16.5z" />
    <glyph glyph-name="less" unicode="&#x3c;" horiz-adv-x="409" 
d="M415 512l-279 -207l240 -204l-52 -61l-263 231l6 69l307 232z" />
    <glyph glyph-name="equal" unicode="=" horiz-adv-x="439" 
d="M385 185l-6 -68h-297l6 68h297zM403 377l-6 -69h-297l6 69h297z" />
    <glyph glyph-name="greater" unicode="&#x3e;" horiz-adv-x="409" 
d="M142 572l262 -232l-6 -69l-306 -231l-41 61l277 204l-238 207z" />
    <glyph glyph-name="question" unicode="?" horiz-adv-x="449" 
d="M276 568c-70 0 -112.668 -30.666 -128.001 -91.999h-76c8.66699 49.333 30.667 89 66 119s83.333 45 144 45c56.7705 0 100.604 -16.167 131.5 -48.5c29.7705 -31.1553 42.6035 -69.9883 38.5 -116.5c-3.33301 -34.667 -14 -63.667 -32 -87s-45.333 -45.333 -82 -66
c-34.1699 -19.9326 -55.5459 -35.416 -64.1279 -46.4502c-14.7344 -18.9443 -23.3584 -44.1279 -25.8721 -75.5508l-4 -39h-70l4 45c4.04297 43.1289 13.543 75.4619 28.5 96.999c15.4521 22.251 40.9521 43.251 76.5 63c32.2744 18.8262 53.5098 34.0332 63.7061 45.6201
c16.2148 18.4258 25.6514 40.5957 28.3086 66.5098s-4.68066 47.3711 -22.0137 64.3711s-43 25.5 -77 25.5zM203.999 102.001c15.333 0 27.666 -5.66699 36.999 -17s13.333 -24.833 12 -40.5s-7.83301 -28.834 -19.5 -39.501s-25.167 -16 -40.5 -16
s-27.166 5.33301 -35.499 16s-11.833 23.834 -10.5 39.501s7.33301 29.167 18 40.5s23.667 17 39 17z" />
    <glyph glyph-name="at" unicode="@" horiz-adv-x="846" 
d="M544 289c3.33301 28.667 1.16504 49.833 -6.50195 63.5s-20.5 20.5 -38.5 20.5s-35.167 -4 -51.5 -12s-31.666 -19.333 -45.999 -34c-33.3057 -34.0811 -51.8057 -75.748 -55.5 -125.001c-4 -35.333 1.33301 -62.666 16 -81.999s34.334 -29 59.001 -29
s45.5 7.83301 62.5 23.5s34.167 38.5 51.5 68.5zM356.499 608.999c51 20.667 103.827 31.0029 158.494 31.0029s102.334 -9 143.001 -27s74.667 -42.5 102 -73.5s47.333 -67.5 60 -109.5s16.834 -85.167 12.501 -129.5s-13.5 -83 -27.5 -116s-31.167 -61.167 -51.5 -84.5
c-41.8281 -48 -88.6611 -72 -140.499 -72c-25.333 0 -45.166 6 -59.499 18s-22.166 29.333 -23.499 52l-2 16c-13.333 -25.333 -29.666 -46 -48.999 -62s-41.166 -24 -65.499 -24s-44.666 4.16699 -60.999 12.5s-30.333 20 -42 35
c-26.1348 33.6016 -36.6348 75.4346 -31.5 125.499c6.5791 65.7891 32.0791 121.622 76.5 167.5c42.9258 44.333 91.4258 66.5 145.5 66.5c36 0 63.333 -12 82 -36s25.667 -60.333 21 -109l-15 -152c-2.51855 -34 7.81445 -51 31 -51c27.1406 0 54.6406 17.667 82.5 53
c31.3711 39.7881 50.2041 91.7881 56.499 156c6.83594 79.2939 -11.3311 144.294 -54.5 195c-44.2705 52 -108.104 78 -191.5 78c-95.333 0 -177.5 -34.5 -246.5 -103.5c-65.3799 -65.3799 -102.88 -147.547 -112.5 -246.501c-10.751 -100.792 12.916 -181.959 71 -243.501
c58.2021 -61.667 142.869 -92.5 254 -92.5l-7 -64c-64.667 0 -122.5 10.167 -173.5 30.5s-93.5 48.5 -127.5 84.5s-58.833 78.833 -74.5 128.5s-20.834 104.167 -15.501 163.5s20.333 114.333 45 165s56.5 94.5 95.5 131.5s84 65.833 135 86.5z" />
    <glyph glyph-name="A" unicode="A" horiz-adv-x="517" 
d="M277 629h87l130 -629h-74l-33 160h-225l-64 -160h-75zM186 222h188l-64 311z" />
    <glyph glyph-name="B" unicode="B" horiz-adv-x="560" 
d="M150 629l212 -0.00195312c59.2002 0 104.2 -16.5 135 -49.5c27.0332 -28.9648 38.625 -64.4561 34.7744 -106.474c-7.88281 -86.0264 -48.4746 -138.368 -121.775 -157.026c34.4639 -6.89258 60.9639 -23.7256 79.5 -50.499c30.377 -43.8779 33.377 -96.0449 9 -156.5
c-17.4863 -43.3662 -51.3193 -74.6992 -101.499 -93.999c-26 -10 -57.333 -15 -94 -15h-212zM308 68.998c79.3057 0 122.64 35.333 130.001 106c3.33301 32 -4.33398 57.5 -23.001 76.5s-47.667 28.5 -87 28.5h-140l-20 -211h140zM194.001 347.998h139.001
c34.667 0 63.167 9.5 85.5 28.5s35.166 45.167 38.499 78.5s-4.16699 59.333 -22.5 78s-45.5 28 -81.5 28h-139z" />
    <glyph glyph-name="C" unicode="C" horiz-adv-x="552" 
d="M488.5 589.5c33.667 -33.667 55.1689 -77.499 64.502 -131.499l-79 -17c-8 39.333 -23.833 70.5 -47.5 93.5s-52.5 34.5 -86.5 34.5c-46.7305 0 -87.2305 -21.167 -121.5 -63.5c-36.6133 -45.2285 -58.7803 -107.729 -66.5 -187.5
c-10.8613 -121.643 12.4717 -201.31 69.999 -239c19.333 -12.667 42.666 -19 69.999 -19c45.333 0 82.333 13.167 111 39.5s45 61.166 49 104.499h76c-6.54199 -66.7236 -31.875 -119.391 -76 -158c-43.4287 -38 -99.0957 -57 -167 -57c-73.9072 0 -129.907 30.333 -168 91
c-36.7988 58.6055 -50.4658 137.938 -41.001 238c9.16797 102.154 39.668 181.987 91.5 239.5c49.5684 55 107.044 82.5 172.427 82.5s114.907 -16.833 148.574 -50.5z" />
    <glyph glyph-name="D" unicode="D" horiz-adv-x="595" 
d="M316 629c85.1865 0 150.854 -28.667 197 -86c46.0156 -57.1709 64.3486 -133.171 54.999 -228c-9.29395 -95.5986 -42.127 -171.932 -98.499 -229c-56.6338 -57.333 -127.801 -86 -213.5 -86h-166l59 629h167zM167 69l96.001 -0.00195312
c62.2422 0 114.575 23.333 156.999 70c41.207 45.3281 65.207 103.995 72 176.001c6.78613 71.9355 -6.21387 130.103 -39 174.501c-34.2158 46.333 -82.2158 69.5 -144 69.5h-96z" />
    <glyph glyph-name="E" unicode="E" horiz-adv-x="506" 
d="M149 629h349l-8 -68h-277l-20 -211h261l-6 -67h-261l-20 -214h278l-7 -69h-348z" />
    <glyph glyph-name="F" unicode="F" horiz-adv-x="472" 
d="M150 629h344l-7 -68h-273l-20 -209h254l-6 -68h-254l-26 -284h-71z" />
    <glyph glyph-name="G" unicode="G" horiz-adv-x="580" 
d="M451 109c-32.2803 -80 -86.6152 -120 -163.001 -120c-69.502 0 -124.169 28.5 -164 85.5c-41.6855 59.6543 -58.0186 137.154 -48.999 232.5c8.9043 103.037 43.0713 185.37 102.5 247c54.6426 56.667 119.476 85 194.499 85c89.7578 0 153.091 -42 190 -126l-71 -26
c-34.667 54 -77.667 81 -129 81c-51.8906 0 -97.8906 -23.167 -138 -69.5c-41.4902 -47.9287 -66.1572 -111.762 -74 -191.5c-6.6416 -71.7275 3.3584 -130.728 30 -177c26.4844 -46 66.4844 -69 120 -69c40.667 0 75.834 15 105.501 45s48.167 76.333 55.5 139l1 6v2
l-142 6l5 52h211l-28 -311h-58z" />
    <glyph glyph-name="H" unicode="H" horiz-adv-x="602" 
d="M221 629l-27 -277h278l27 277h72l-60 -629h-71l26 284h-278l-26 -284h-71l59 629h71z" />
    <glyph glyph-name="I" unicode="I" horiz-adv-x="252" 
d="M150 629h71l-59 -629h-71z" />
    <glyph glyph-name="J" unicode="J" horiz-adv-x="364" 
d="M17 113c40 -32 78.333 -48 115 -48s62.5 10 77.5 30s24.5 49 28.5 87l42 447h71l-42 -447c-7.33301 -68.667 -26.333 -118 -57 -148s-69 -45 -115 -45c-25.333 0 -48 4 -68 12s-39.667 18 -59 30z" />
    <glyph glyph-name="K" unicode="K" horiz-adv-x="548" 
d="M222 629l-27 -291l280 291h98l-274 -282l230 -347h-92l-191 291l-62 -63l-21 -228h-72l59 629h72z" />
    <glyph glyph-name="L" unicode="L" horiz-adv-x="421" 
d="M168 69h252l-6 -69h-323l59 629h71z" />
    <glyph glyph-name="M" unicode="M" horiz-adv-x="763" 
d="M252 629l150 -426l230 426h100l-60 -629h-71l48 516l-235 -437h-48l-155 446l-49 -525h-71l59 629h102z" />
    <glyph glyph-name="N" unicode="N" horiz-adv-x="616" 
d="M233 629l232 -504l49 504h71l-59 -629h-80l-237 513l-48 -513h-72l59 629h85z" />
    <glyph glyph-name="O" unicode="O" horiz-adv-x="581" 
d="M351 640c73.0947 0 129.096 -27.166 168.001 -81.499c40.5283 -56.5996 56.1953 -138.1 47 -244.5c-10.2852 -106.704 -41.6182 -188.371 -94 -245c-49.333 -53.333 -110.333 -80 -183 -80c-73.9014 0 -129.734 26.833 -167.5 80.5
c-40.6064 57.7031 -55.7734 139.203 -45.501 244.5c8.98145 105.207 39.8145 187.04 92.5 245.499c48.3662 53.667 109.199 80.5 182.5 80.5zM463.501 503.001c-27 44 -67.001 66 -120.001 66s-96.667 -22 -131 -66s-55.5 -107.333 -63.5 -190s1.33301 -145.334 28 -188.001
s66.334 -64 119.001 -64s96.5 21.333 131.5 64s56.5 105.334 64.5 188.001s-1.5 146 -28.5 190z" />
    <glyph glyph-name="P" unicode="P" horiz-adv-x="499" 
d="M469 576.5c29.333 -35 41.167 -82.168 35.5 -141.501s-26.5 -106.166 -62.5 -140.499s-85.333 -51.5 -148 -51.5h-111l-23 -243h-71l59 629h183c62.667 0 108.667 -17.5 138 -52.5zM301.001 310.999c38.667 0 69.168 11 91.501 33s35.166 52.167 38.499 90.5
s-4 69 -22 92s-46.333 34.5 -85 34.5h-112l-23 -250h112z" />
    <glyph glyph-name="Q" unicode="Q" horiz-adv-x="587" 
d="M440 -87c25.2773 0 55.2773 8.33594 90 25.0029l-8 -86c-25.333 -12.667 -51.333 -19 -78 -19c-50.9844 0 -91.9844 29.667 -123 89l-36 67c-71.9365 1.38379 -126.77 28.8838 -164.5 82.5c-40.0176 56.8662 -54.8506 137.699 -44.5 242.499
c8.98145 105.207 39.8145 187.04 92.5 245.499c48.3662 53.667 109.199 80.5 182.5 80.5c73.0947 0 129.095 -27.167 168 -81.5c40.5283 -56.5996 56.1953 -138.1 47 -244.5c-9.33301 -92 -32.833 -163.833 -70.5 -215.5s-83.5 -85.167 -137.5 -100.5l24 -44
c15.7666 -25.9023 35.0996 -39.5693 58 -41.001zM463.5 503.003c-27 44 -67.001 66 -120.001 66s-96.667 -22 -131 -66s-55.5 -107.333 -63.5 -190s1.33301 -145.334 28 -188.001s66.334 -64 119.001 -64s96.5 21.333 131.5 64s56.5 105.334 64.5 188.001
s-1.5 146 -28.5 190z" />
    <glyph glyph-name="R" unicode="R" horiz-adv-x="552" 
d="M361 261l138.001 -261h-91l-123 257h-99l-24 -257h-71l59 629h197c63.7998 0 111.3 -17.333 142.5 -52c29.7559 -33.0625 42.1113 -75.8281 37.0664 -128.297c-10.3643 -107.8 -65.5537 -170.367 -165.567 -187.703zM311.001 312c42.667 0 76.168 11.5 100.501 34.5
s38.166 53.333 41.499 91s-4.66699 67.667 -24 90s-49 33.5 -89 33.5h-126l-23 -249h120z" />
    <glyph glyph-name="S" unicode="S" horiz-adv-x="544" 
d="M331 640c58 0 101.667 -14.834 131 -44.501s44.333 -69.5 45 -119.5h-70c-1.33301 29.333 -11.5 52 -30.5 68s-47 24 -84 24s-66.5 -9.16699 -88.5 -27.5s-34.167 -40.333 -36.5 -66s2.16699 -45.167 13.5 -58.5s30.666 -25 57.999 -35l113 -45
c39.333 -15.333 69.5 -36.333 90.5 -63s29.5 -62 25.5 -106c-4.07617 -51.626 -26.0762 -93.959 -66 -127c-41.083 -34 -95.083 -51 -162 -51c-58.6396 0 -105.64 17 -141 51c-37.2236 35.792 -53.8906 85.459 -50 149h69c-3.79395 -41.7383 7.20605 -74.0713 33 -97
c23.25 -20.667 55.2295 -31 95.9375 -31s74.0625 10.167 100.062 30.5s40.333 44.333 43 72s-2.5 49.5 -15.5 65.5s-33.5 29.333 -61.5 40l-96 41c-45.333 17.333 -78.833 38 -100.5 62s-30.5 58 -26.5 102c8.56445 77.0771 50.7314 128.244 126.501 153.501
c25 8.33301 53.167 12.5 84.5 12.5z" />
    <glyph glyph-name="T" unicode="T" horiz-adv-x="451" 
d="M65 629h440l-7 -68h-185l-52 -561h-71l52 561h-184z" />
    <glyph glyph-name="U" unicode="U" horiz-adv-x="589" 
d="M209 629l-39.002 -402c-5.33301 -58.667 3.83398 -101 27.501 -127s57.334 -39 101.001 -39s79.834 13 108.501 39s45.667 68.333 51 127l39 402h71l-39 -402c-7.33301 -78.667 -32.333 -138 -75 -178s-96.834 -60 -162.501 -60s-116 20 -151 60
s-48.833 99.333 -41.5 178l39 402h71z" />
    <glyph glyph-name="V" unicode="V" horiz-adv-x="507" 
d="M150 629l112 -531l213 531h75l-260 -629h-74l-140 629h74z" />
    <glyph glyph-name="W" unicode="W" horiz-adv-x="805" 
d="M151 629l88 -522l183 457h48l94 -459l209 524h78l-259 -629h-75l-85 402l-166 -402h-74l-120 629h79z" />
    <glyph glyph-name="X" unicode="X" horiz-adv-x="578" 
d="M534 0h-89l-140 251l-175 -251h-87l229 312l-170 317h85l138 -257l174 257h85l-226 -316z" />
    <glyph glyph-name="Y" unicode="Y" horiz-adv-x="494" 
d="M153 629l125 -289l183 289h83l-238 -371l-24 -258h-72l24 258l-166 371h85z" />
    <glyph glyph-name="Z" unicode="Z" horiz-adv-x="533" 
d="M72 71l373 483l-327 3l7 72h416l-7 -71l-373 -483l327 -3l-7 -72h-415z" />
    <glyph glyph-name="bracketleft" unicode="[" horiz-adv-x="285" 
d="M159 731h178l-6 -70h-107l-66 -693h107l-6 -70h-178z" />
    <glyph glyph-name="backslash" unicode="\" horiz-adv-x="389" 
d="M95 731h71l303 -804h-72z" />
    <glyph glyph-name="bracketright" unicode="]" horiz-adv-x="316" 
d="M197.987 -101.993h-177.988l5.99902 69.9951h106.993l65.9961 692.958h-106.993l6 69.9961h177.989z" />
    <glyph glyph-name="asciicircum" unicode="^" horiz-adv-x="403" 
d="M41 245l191 341h55l126 -341h-79l-84 247l-129 -247h-80z" />
    <glyph glyph-name="underscore" unicode="_" horiz-adv-x="653" 
d="M44 -56h554l-6 -68h-554z" />
    <glyph glyph-name="grave" unicode="`" horiz-adv-x="283" 
d="M132 860l199 -133l-25 -50l-210 113z" />
    <glyph glyph-name="a" unicode="a" horiz-adv-x="504" 
d="M386 310c4 43.333 -1.16699 74.334 -15.5 93.001s-36.833 28 -67.5 28s-56.167 -6.66699 -76.5 -20s-31.833 -35 -34.5 -65h-79c5.33301 52 25.666 89 60.999 111s78.666 33 129.999 33c80.6953 0 129.695 -33.167 147 -99.5c6 -23 7.66699 -50.5 5 -82.5l-29 -308h-60
v80c-32.667 -60.667 -83.667 -91 -153 -91c-42.667 0 -77 13 -103 39c-24 24 -36 51.667 -36 83s4.83301 56.666 14.5 75.999s22.667 35.5 39 48.5c33.0859 26.333 73.2744 39.5 120.565 39.5s90.9365 -8.66699 130.937 -26zM375 199.001
c-41.4814 13.333 -78.6836 20.001 -111.609 20.001s-59.8887 -7.5 -80.8887 -22.5s-31.5 -39.5 -31.5 -73.5c0 -21.333 6.16699 -38.833 18.5 -52.5s34.166 -20.5 65.499 -20.5c34.2773 0 64.7773 12.333 91.5 37c29.1348 26.8936 44.9678 61.2266 47.499 102.999z" />
    <glyph glyph-name="b" unicode="b" horiz-adv-x="526" 
d="M199 406c34.1465 56 80.8135 84 140 84c46.9697 0 86.1367 -19.167 117.5 -57.5c32.333 -39.5186 48.5 -91.6855 48.5 -156.5c0 -70.667 -18 -134 -54 -190c-18 -28 -40.667 -51.167 -68 -69.5s-57.333 -27.5 -90 -27.5c-65.7871 0 -108.787 31.667 -129 95l-24 -84h-49
l64 681h71zM180 204c-3.77051 -43.9941 5.5625 -79.8271 28 -107.5c20.2705 -25 44.6719 -37.5 73.2031 -37.5s51.9639 6.83301 70.2969 20.5s33.5 31 45.5 52c23.333 40.833 35 86.125 35 135.875s-10.667 87.625 -32 113.625s-48.333 39 -81 39
c-33 0 -61.833 -12.667 -86.5 -38c-27.2705 -28.0078 -42.7705 -65.0078 -46.5 -111z" />
    <glyph glyph-name="c" unicode="c" horiz-adv-x="463" 
d="M286 490c25.333 0 47.3311 -4.17188 65.998 -12.5049s34.5 -19.5 47.5 -33.5c26.0752 -28.0801 41.2422 -63.4131 45.501 -105.999l-72 -7c-5.33301 28 -15.833 49.833 -31.5 65.5s-33.834 23.5 -54.501 23.5s-38.834 -3.83301 -54.501 -11.5s-29.834 -19 -42.501 -34
c-28.3467 -33.5684 -45.0137 -78.4014 -50 -134.499c-5.33691 -54.7061 2.16309 -98.5391 22.5 -131.499c20.3613 -33 47.7021 -49.5 82.0215 -49.5s60.8125 8.83301 79.4795 26.5s29.334 42.834 32.001 75.501h73c-3.95898 -50.1533 -23.459 -91.3203 -58.5 -123.5
c-35.207 -32.333 -79.04 -48.5 -131.499 -48.5c-53.4355 0 -96.7686 22.5 -129.999 67.5c-34.5166 46.7412 -48.5166 107.908 -42 183.5c7.67676 76.7666 33.3438 138.434 77 185.001c40.625 43.333 87.958 65 142 65z" />
    <glyph glyph-name="d" unicode="d" horiz-adv-x="535" 
d="M383 80c-33.7041 -60.667 -80.0381 -90.998 -139.001 -90.998c-50.2109 0 -90.7109 19.5 -121.5 58.5c-32.333 40.9551 -48.5 93.7881 -48.5 158.499c0 70.333 18 133.166 54 188.499c41.4219 63.667 92.9688 95.5 154.642 95.5s104.126 -27.333 127.359 -82l26 273h71
l-64 -681h-58zM284.999 420.002c-20 0 -39.167 -6.83301 -57.5 -20.5s-33.333 -30.667 -45 -51c-23 -40.0859 -34.5 -84.8574 -34.5 -134.314s10.5 -87.6855 31.5 -114.686s47.5 -40.5 79.5 -40.5c30.667 0 58.5 12.5 83.5 37.5c27.25 27.25 43.417 63.75 48.5 109.5l7 70
c3.77344 46.5391 -5.22656 82.8721 -27 109c-19.4443 23.333 -48.1113 35 -86 35z" />
    <glyph glyph-name="e" unicode="e" horiz-adv-x="463" 
d="M244 53c58.833 0 95.499 29.001 109.999 87.001h73c-11.333 -48 -34 -85.167 -68 -111.5s-74.333 -39.5 -121 -39.5c-57.292 0 -101.625 22.167 -132.999 66.5c-33.084 46.748 -45.751 107.581 -38.001 182.499c7.85742 77.2656 32.1904 138.766 73 184.5
c40.1543 45 88.4873 67.5 145 67.5c63.0635 0 107.73 -27 134.001 -81c23.7441 -48.8076 27.7441 -111.141 12 -187h-295c-6.47559 -77.7119 12.0244 -129.712 55.5 -156c14.333 -8.66699 31.833 -13 52.5 -13zM329.499 415.001c-13 8 -29.168 12.001 -48.501 12.001
s-36.666 -3.83301 -51.999 -11.5s-28.833 -18.167 -40.5 -31.5c-23.4707 -26.8232 -38.6377 -60.8232 -45.5 -102h230c7.11816 66.4395 -7.38184 110.772 -43.5 132.999z" />
    <glyph glyph-name="f" unicode="f" horiz-adv-x="309" 
d="M89 478h69.999l7 73c4.66699 48 19.834 83 45.501 105s53.5 33 83.5 33s57 -4.33301 81 -13l-19 -62c-18.667 8.66699 -33.834 13 -45.501 13s-21.167 -1.16699 -28.5 -3.5s-14.166 -6.33301 -20.499 -12c-14.5684 -13.0352 -23.0684 -33.5352 -25.5 -61.5l-7 -72h89
l-5 -54h-89l-40 -424h-70l39 424h-70z" />
    <glyph glyph-name="g" unicode="g" 
d="M407 454c7.33301 35.333 22.6641 63.6689 45.9971 85.002s52.666 32 87.999 32l-15 -78c-52.9297 0 -82.5967 -24.333 -89 -73c18.4863 -29.8623 26.1084 -61.1611 22.8652 -93.8965s-10.3652 -59.9365 -21.3652 -81.6035s-25.167 -40.334 -42.5 -56.001
c-35.7734 -32.333 -78.7734 -48.5 -129 -48.5c-34 0 -63.333 7.66699 -88 23c-12.667 -2.66699 -24.167 -8.83398 -34.5 -18.501s-16.333 -22.5 -18 -38.5c-3.75 -36 21.083 -54 74.5 -54h167c40 0 71 -9.5 93 -28.5s31.333 -45.5 28 -79.5
c-4.15918 -49.9131 -30.4922 -93.5801 -78.999 -131c-50.9873 -39.333 -114.32 -59 -189.999 -59c-64.6504 0 -116.15 14.833 -154.5 44.5c-37.0908 28.6934 -53.5908 64.8604 -49.5 108.5c2 28.667 11.667 52 29 70s39 30.667 65 38c-16.667 9.33301 -29 21.5 -37 36.5
s-11 32.667 -9 53s10.833 38.333 26.5 54s34.167 26.167 55.5 31.5c-29.1738 33.5508 -41.1738 75.5508 -35.999 126c5.36426 52.3018 26.1973 94.4688 62.5 126.5c35.8887 31.667 76.9443 47.5 123.167 47.5s83.334 -12 111.334 -36zM85.998 -89.9971
c-2 -25.333 8.66699 -47.166 32 -65.499s59 -27.5 107 -27.5c52.667 0 97.5 12.333 134.5 37c34.8184 23.2119 54.3184 51.5449 58.5 84.999c1.33301 15.333 -2.5 28.5 -11.5 39.5s-23.5 16.5 -43.5 16.5h-175c-30.667 -1.33301 -54.5 -9.5 -71.5 -24.5
s-27.167 -35.167 -30.5 -60.5zM369.998 400.503c-16.667 21.667 -41.501 32.501 -74.501 32.501s-59.667 -10.833 -80 -32.5s-32.166 -49.834 -35.499 -84.501s3.33398 -63.167 20.001 -85.5s41.167 -33.5 73.5 -33.5s59 11.333 80 34s33.167 51.167 36.5 85.5
s-3.33398 62.333 -20.001 84z" />
    <glyph glyph-name="h" unicode="h" horiz-adv-x="544" 
d="M198 390c36.1113 66.667 87.1113 100 153 100c51.333 0 89.5 -18.667 114.5 -56s34.167 -88.333 27.5 -153l-26 -281h-70l26 281c4.66699 46 -1.66602 80.667 -18.999 104s-44.333 35 -81 35s-67.834 -17.167 -93.501 -51.5s-41.167 -81.833 -46.5 -142.5l-21 -226h-71
l64 681h71z" />
    <glyph glyph-name="i" unicode="i" horiz-adv-x="269" 
d="M140 479h71l-45 -479h-71zM153.5 604.5c-7 9 -9.83691 21 -8.50391 36s6.33301 27 15 36s20.334 13.5 35.001 13.5s25.834 -4.5 33.501 -13.5s10.834 -21 9.50098 -36s-6.66602 -27 -15.999 -36s-21.333 -13.5 -36 -13.5s-25.5 4.5 -32.5 13.5z" />
    <glyph glyph-name="j" unicode="j" horiz-adv-x="283" 
d="M167 604.5c-7.33301 9 -10.3359 21 -9.00293 36s6.5 27 15.5 36s20.833 13.5 35.5 13.5s25.834 -4.5 33.501 -13.5s10.834 -21 9.50098 -36s-6.66602 -27 -15.999 -36s-21.333 -13.5 -36 -13.5s-25.667 4.5 -33 13.5zM-86.0029 -140
c34.8232 -24.667 66.3643 -37 94.6191 -37s49.8828 8.83301 64.8828 26.5s24.5 45.5 28.5 83.5l52 547h71l-52 -547c-6 -64 -22.833 -109.833 -50.5 -137.5s-61.834 -41.5 -102.501 -41.5c-37.5928 0 -76.2598 12.333 -116.001 37z" />
    <glyph glyph-name="k" unicode="k" 
d="M243 253l-62 -52l-19 -201h-71l64 681h71l-37 -395l226 192h99l-215 -179l180 -299h-88z" />
    <glyph glyph-name="l" unicode="l" horiz-adv-x="252" 
d="M155 681h71l-64 -681h-71z" />
    <glyph glyph-name="m" unicode="m" horiz-adv-x="841" 
d="M195 385c35.6865 70 87.3516 105 154.999 105c37.333 0 67.666 -10.167 90.999 -30.5s39 -48.5 47 -84.5c34 76.667 87.667 115 161 115c51.333 0 89.5 -18.667 114.5 -56s34.167 -88.333 27.5 -153l-26 -281h-70l26 281c4.66699 46 -1.66602 80.667 -18.999 104
s-44.333 35 -81 35s-66.667 -16.667 -90 -50s-37.666 -79.333 -42.999 -138h-1l-21 -232h-70l26 281c4.66699 46 -1.66602 80.667 -18.999 104s-44.333 35 -81 35s-67.834 -17.167 -93.501 -51.5s-41.167 -81.833 -46.5 -142.5l-21 -226h-71l45 478h61z" />
    <glyph glyph-name="n" unicode="n" horiz-adv-x="543" 
d="M195 385c35.6865 70 87.3525 105 155 105c51.333 0 89.5 -18.667 114.5 -56s34.167 -88.333 27.5 -153l-26 -281h-70l26 281c4.66699 46 -1.66602 80.667 -18.999 104s-44.333 35 -81 35s-67.834 -17.167 -93.501 -51.5s-41.167 -81.833 -46.5 -142.5l-21 -226h-71
l45 478h61z" />
    <glyph glyph-name="o" unicode="o" horiz-adv-x="491" 
d="M291.5 490c29 0 55.333 -5.33398 79 -16.001s43.334 -26.5 59.001 -47.5c34.0176 -45.5977 47.1846 -108.098 39.5 -187.5c-7.73828 -79.958 -32.7383 -142.125 -75 -186.5c-40.3174 -42.333 -90.3174 -63.5 -150 -63.5c-59.7461 0 -105.746 21.167 -138 63.5
c-33.7461 44.292 -46.7461 106.459 -39 186.501c7.7666 80.2598 32.5996 142.76 74.499 187.5c39.6455 42.333 89.6455 63.5 150 63.5zM287 421.999c-42 0 -75.6689 -16.167 -101.002 -48.5s-40.666 -77 -45.999 -134s0.833984 -101.667 18.501 -134s47.5 -48.5 89.5 -48.5
s76 16.167 102 48.5s41.667 77 47 134s-1.16699 101.667 -19.5 134s-48.5 48.5 -90.5 48.5z" />
    <glyph glyph-name="p" unicode="p" horiz-adv-x="535" 
d="M195 405c35.0791 56.667 81.7441 85 139.998 85c52.2773 0 94.4443 -22.167 126.501 -66.5c34.1426 -47.2178 47.9756 -108.385 41.5 -183.5c-7.70117 -75.7324 -33.3682 -137.232 -77 -184.5c-40.9229 -44.333 -88.6533 -66.5 -143.191 -66.5s-93.1406 23 -115.808 69
l-28 -293h-71l68 713h58zM179.998 194c-3.73535 -41.084 4.93262 -74.418 26.001 -100.001c19.2158 -23.333 44.8828 -35 77 -35c35 0 66.167 15.333 93.5 46c29.3223 32.8975 46.9023 77.7891 52.7412 134.674s-2.0752 101.16 -23.7422 132.827s-50.5 47.5 -86.5 47.5
c-33.333 0 -62 -12 -86 -36c-26.1875 -26.1875 -41.1875 -61.5205 -45 -106h-1l-8 -84h1z" />
    <glyph glyph-name="q" unicode="q" horiz-adv-x="526" 
d="M371 77c-29.333 -58.667 -73.665 -88.001 -132.998 -88.001c-53.2617 0 -96.2617 22.167 -129 66.5c-35.0195 47.4219 -48.6865 108.922 -41.001 184.5c7.85742 75.957 33.1904 137.124 75.999 183.501c40.9229 44.333 87.2559 66.5 138.999 66.5
c29.333 0 54.833 -7.66699 76.5 -23s37.834 -38 48.501 -68l23 79h49l-53 -559c-3.76855 -32.665 -2.54395 -54.498 3.67383 -65.499s13.3271 -19.001 21.3271 -24.001s18 -9.83301 30 -14.5l-28 -61c-40.54 11.7695 -68.207 31.1025 -83 58
c-14.667 26.667 -19.334 64 -14.001 112zM283.501 419.999c-15.667 0 -31.668 -4.00098 -48.001 -12.001s-31 -19.833 -44 -35.5c-28.5283 -34.3799 -45.3613 -78.5469 -50.5 -132.5c-4.93164 -55.4785 4.23535 -100.479 27.5 -135c20.667 -30.667 48.834 -46 84.501 -46
c32.3428 0 60.3428 11.5 84 34.5c26.2275 25.499 41.2275 58.999 45 100.5l10 99c0 40.1611 -10.5 71.8281 -31.5 95.001c-19.333 21.333 -45 32 -77 32z" />
    <glyph glyph-name="r" unicode="r" horiz-adv-x="343" 
d="M359 401c-18.667 6.66699 -36.667 10 -54 10c-38 0 -66.667 -17.5 -86 -52.5s-32 -82.5 -38 -142.5h-22c6.66699 72 19.334 129.333 38.001 172l-36 -388h-71l45 479h71l-9 -91c28.667 66 70 99 124 99c17.333 0 33.666 -3 48.999 -9z" />
    <glyph glyph-name="s" unicode="s" horiz-adv-x="473" 
d="M157 455c32.667 23.333 74.6641 35.0029 125.997 35.0029s90.333 -12 117 -36s39 -54.333 37 -91h-69c-2 43.333 -33.333 65 -94 65c-29.333 0 -52.5 -7.33301 -69.5 -22s-26.333 -30.5 -28 -47.5s3 -31.333 14 -43s29.167 -21.834 54.5 -30.501l83 -32
c36 -12.667 62.833 -28.834 80.5 -48.501s24.834 -45.167 21.501 -76.5c-4.1875 -37.6865 -23.0205 -69.8535 -56.5 -96.5c-35.5986 -28.333 -81.5811 -42.5 -137.948 -42.5s-99.2178 14.167 -128.551 42.5s-42.666 64.833 -39.999 109.5h68
c-1.33301 -30 7.66699 -52.5 27 -67.5s44.833 -22.5 76.5 -22.5s58 7.33301 79 22s32.5 32.167 34.5 52.5s-2.5 35.833 -13.5 46.5s-29.5 20 -55.5 28l-81 31c-72.667 24 -106 67.333 -100 130c4 39.333 22.333 70.666 55 93.999z" />
    <glyph glyph-name="t" unicode="t" horiz-adv-x="338" 
d="M317 14c-34.7227 -16.667 -68.0723 -25 -100.045 -25s-58.625 11 -79.958 33s-29.666 56 -24.999 102l27 294h-70l7 60h68l13 133h71l-13 -133h135l-6 -60h-135l-27 -293c-3.33301 -24.667 -0.166016 -43 9.50098 -55s24.834 -18 45.501 -18s45.667 6 75 18z" />
    <glyph glyph-name="u" unicode="u" horiz-adv-x="545" 
d="M392 95c-35.3467 -69.333 -86.3447 -104 -152.998 -104c-48.667 0 -86.334 15 -113.001 45s-37.334 76.333 -32.001 139l29 304h71l-28 -298c-8.06641 -80.667 21.9336 -121 90 -121c39.8096 0 73.6426 17.5 101.5 52.5c26.9541 33.8662 43.1211 78.3662 48.5 133.5
l22 233h71l-45 -479h-71z" />
    <glyph glyph-name="v" unicode="v" horiz-adv-x="453" 
d="M141 478l93 -395l167 395h80l-216 -478h-78l-126 478h80z" />
    <glyph glyph-name="w" unicode="w" horiz-adv-x="652" 
d="M135 478l69 -380l135 357h60l68 -362l141 385h71l-186 -478h-69l-68 335l-128 -335h-69l-98 478h74z" />
    <glyph glyph-name="x" unicode="x" horiz-adv-x="461" 
d="M436 0h-86l-106 181l-134 -181h-87l186 239l-141 240h87l106 -180l135 180h86l-187 -240z" />
    <glyph glyph-name="y" unicode="y" horiz-adv-x="436" 
d="M-8 -139c26.5996 -25.333 55.9336 -38 88 -38c43.5557 0 79.5557 42.667 108 128l18 49l-131 478h79l94 -380l138 380h72l-215 -573c-18.667 -48.667 -40.5 -86 -65.5 -112s-54.7549 -39 -89.2646 -39s-68.9219 11.667 -103.235 35z" />
    <glyph glyph-name="z" unicode="z" horiz-adv-x="427" 
d="M53 64l286 350h-253l7 64h333l-7 -64l-282 -350h249l-5 -64h-333z" />
    <glyph glyph-name="braceleft" unicode="{" horiz-adv-x="314" 
d="M293 -138c-66.2793 0 -113.615 22.001 -142.002 66.001c-25.1572 38.9941 -34.1572 94.9941 -27 168l8 92c6.12402 52.667 -1.87598 79 -24 79h-15l7 76h15c11.333 0 20 5.83301 26 17.5s10.667 32.167 14 61.5l8 91c11.0107 112.308 52.0107 184.808 123 217.5
c25.333 11.667 55.666 17.5 90.999 17.5l-6 -69c-44 0 -76.667 -14.167 -98 -42.5s-34.666 -69.833 -39.999 -124.5l-8 -92c-6.12598 -57.584 -25.459 -95.251 -58 -113l-1 -4c30.2441 -16.6348 42.2441 -54.3018 36 -113.001l-8 -93
c-5.33301 -54 -0.166016 -95.167 15.501 -123.5s45.834 -42.5 90.501 -42.5z" />
    <glyph glyph-name="bar" unicode="|" horiz-adv-x="252" 
d="M161 750h71l-82 -872h-71z" />
    <glyph glyph-name="braceright" unicode="}" horiz-adv-x="319" 
d="M79 748c124.902 0 181.236 -78.001 169.001 -234.001l-8 -92c-2.66699 -28.667 -2.16699 -49 1.5 -61s11.167 -18 22.5 -18h15l-7 -76h-15c-11.333 0 -20.166 -5.83301 -26.499 -17.5s-10.833 -32.167 -13.5 -61.5l-8 -91
c-11.0381 -112.594 -52.2051 -185.094 -123.5 -217.5c-25.667 -11.667 -55.834 -17.5 -90.501 -17.5l6 69c44 0 76.833 14.167 98.5 42.5s34.834 69.833 39.501 124.5l8 92c6.12598 57.584 25.459 95.251 58 113l1 4c-29.0518 15.9785 -41.0518 53.6455 -36 113.001l8 93
c5.33301 54 0.166016 95.167 -15.501 123.5s-45.834 42.5 -90.501 42.5z" />
    <glyph glyph-name="asciitilde" unicode="~" horiz-adv-x="463" 
d="M168 282c-22.792 0 -42.791 -19.666 -59.999 -58.999l-38 23c27.4072 74 63.0742 111 107 111c20.167 0 45.709 -7.33301 76.626 -22s51.875 -23.834 62.875 -27.501s20.833 -5.5 29.5 -5.5c24 0 45.333 19 64 57l36 -27c-27.4814 -70.667 -64.4814 -106 -111 -106
c-14 0 -37.833 7.33301 -71.5 22s-55.834 24 -66.501 28s-20.334 6 -29.001 6z" />
    <glyph glyph-name="sterling" unicode="&#xa3;" 
d="M24 69l25 -0.00195312c44.667 0 69.334 30 74.001 90l10 108h-81l5 56h82l10 109c6.66699 66 25.667 117.167 57 153.5s74.333 54.5 129 54.5c42 0 75.333 -12.667 100 -38s38 -62.666 40 -111.999h-69c-2.66699 26 -11 45.5 -25 58.5s-33.833 19.5 -59.5 19.5
s-47.834 -10.667 -66.501 -32s-30.334 -56 -35.001 -104l-11 -109h164l-5 -56h-164l-10 -104c-5.46191 -46.4229 -19.7949 -77.7559 -43 -93.999h166c29.333 0 51.333 6.83301 66 20.5s25.334 35.167 32.001 64.5h75c-8.55957 -51.3574 -25.7266 -89.0244 -51.5 -113
c-29.3838 -27.333 -72.2168 -41 -128.5 -41h-292z" />
    <glyph glyph-name="dieresis" unicode="&#xa8;" horiz-adv-x="291" 
d="M109.5 793.5c-7.66699 9.66699 -10.834 21.5 -9.50098 35.5s6.83301 25.833 16.5 35.5s21.334 14.5 35.001 14.5s24.667 -4.83301 33 -14.5s11.833 -21.5 10.5 -35.5s-7.16602 -25.833 -17.499 -35.5s-22.333 -14.5 -36 -14.5s-24.334 4.83301 -32.001 14.5zM260.5 793.5
c-7.66699 9.66699 -10.834 21.5 -9.50098 35.5s6.83301 25.833 16.5 35.5s21.334 14.5 35.001 14.5s24.667 -4.83301 33 -14.5s11.833 -21.5 10.5 -35.5s-7.16602 -25.833 -17.499 -35.5s-22.333 -14.5 -36 -14.5s-24.334 4.83301 -32.001 14.5z" />
    <glyph glyph-name="acute" unicode="&#xb4;" horiz-adv-x="283" 
d="M336 790l-231 -113l-16 50l224 133z" />
    <glyph glyph-name="Agrave" unicode="&#xc0;" horiz-adv-x="517" 
d="M277 629h87l130 -629h-74l-33 160h-225l-64 -160h-75zM186 222h188l-64 311zM252 860l199 -133l-25 -50l-210 113z" />
    <glyph glyph-name="Aacute" unicode="&#xc1;" horiz-adv-x="517" 
d="M277 629h87l130 -629h-74l-33 160h-225l-64 -160h-75zM186 222h188l-64 311zM456 790l-231 -113l-16 50l224 133z" />
    <glyph glyph-name="Acircumflex" unicode="&#xc2;" horiz-adv-x="517" 
d="M277 629h87l130 -629h-74l-33 160h-225l-64 -160h-75zM186 222h188l-64 311zM489 716l-48 -39l-107 108l-127 -108l-41 39l176 156z" />
    <glyph glyph-name="Atilde" unicode="&#xc3;" horiz-adv-x="517" 
d="M277 629h87l130 -629h-74l-33 160h-225l-64 -160h-75zM186 222h188l-64 311zM271 770c-19.7471 0 -38.415 -17.001 -56.001 -51.001l-27 19c21.333 69.333 51.333 104 90 104c12.75 0 28.6045 -5.66699 47.5625 -17s31.4375 -18.666 37.4375 -21.999s11 -6 15 -8
c6.66699 -3.33301 13.667 -5 21 -5c19.333 0 36.666 17.333 51.999 52l29 -23c-9.33301 -32 -22.166 -56.667 -38.499 -74s-30.833 -26 -43.5 -26s-23.667 2 -33 6s-22.666 11.167 -39.999 21.5c-26.2793 15.667 -44.2793 23.5 -54 23.5z" />
    <glyph glyph-name="Adieresis" unicode="&#xc4;" horiz-adv-x="517" 
d="M277 629h87l130 -629h-74l-33 160h-225l-64 -160h-75zM186 222h188l-64 311zM239.5 749.5c-7.66699 9.66699 -10.834 21.5 -9.50098 35.5s6.83301 25.833 16.5 35.5s21.334 14.5 35.001 14.5s24.667 -4.83301 33 -14.5s11.833 -21.5 10.5 -35.5
s-7.16602 -25.833 -17.499 -35.5s-22.333 -14.5 -36 -14.5s-24.334 4.83301 -32.001 14.5zM390.5 749.5c-7.66699 9.66699 -10.834 21.5 -9.50098 35.5s6.83301 25.833 16.5 35.5s21.334 14.5 35.001 14.5s24.667 -4.83301 33 -14.5s11.833 -21.5 10.5 -35.5
s-7.16602 -25.833 -17.499 -35.5s-22.333 -14.5 -36 -14.5s-24.334 4.83301 -32.001 14.5z" />
    <glyph glyph-name="Egrave" unicode="&#xc8;" 
d="M149 629h349l-8 -68h-277l-20 -211h261l-6 -67h-261l-20 -214h278l-7 -69h-348zM255 860l199 -133l-25 -50l-210 113z" />
    <glyph glyph-name="Eacute" unicode="&#xc9;" 
d="M90 0l59 629h349l-8 -68h-277l-20 -211h261l-6 -67h-261l-20 -214h278l-7 -69h-348zM459 790l-231 -113l-16 50l224 133z" />
    <glyph glyph-name="Ecircumflex" unicode="&#xca;" 
d="M153 629h349l-8 -68h-277l-20 -211h261l-6 -67h-261l-20 -214h278l-7 -69h-348zM498 716l-48 -39l-107 108l-127 -108l-41 39l176 156z" />
    <glyph glyph-name="Edieresis" unicode="&#xcb;" 
d="M149 629h349l-8 -68h-277l-20 -211h261l-6 -67h-261l-20 -214h278l-7 -69h-348zM225.5 749.5c-7.66699 9.66699 -10.834 21.5 -9.50098 35.5s6.83301 25.833 16.5 35.5s21.334 14.5 35.001 14.5s24.667 -4.83301 33 -14.5s11.833 -21.5 10.5 -35.5
s-7.16602 -25.833 -17.499 -35.5s-22.333 -14.5 -36 -14.5s-24.334 4.83301 -32.001 14.5zM376.5 749.5c-7.66699 9.66699 -10.834 21.5 -9.50098 35.5s6.83301 25.833 16.5 35.5s21.334 14.5 35.001 14.5s24.667 -4.83301 33 -14.5s11.833 -21.5 10.5 -35.5
s-7.16602 -25.833 -17.499 -35.5s-22.333 -14.5 -36 -14.5s-24.334 4.83301 -32.001 14.5z" />
    <glyph glyph-name="Igrave" unicode="&#xcc;" horiz-adv-x="252" 
d="M150 629h71l-59 -629h-71zM117 860l199 -133l-25 -50l-210 113z" />
    <glyph glyph-name="Iacute" unicode="&#xcd;" horiz-adv-x="252" 
d="M91 0l59 629h71l-59 -629h-71zM321 790l-231 -113l-16 50l224 133z" />
    <glyph glyph-name="Icircumflex" unicode="&#xce;" horiz-adv-x="252" 
d="M150 629h71l-59 -629h-71zM355 716l-48 -39l-107 108l-127 -108l-41 39l176 156z" />
    <glyph glyph-name="Idieresis" unicode="&#xcf;" horiz-adv-x="252" 
d="M150 629h71l-59 -629h-71zM87.5 749.5c-7.66699 9.66699 -10.834 21.5 -9.50098 35.5s6.83301 25.833 16.5 35.5s21.334 14.5 35.001 14.5s24.667 -4.83301 33 -14.5s11.833 -21.5 10.5 -35.5s-7.16602 -25.833 -17.499 -35.5s-22.333 -14.5 -36 -14.5
s-24.334 4.83301 -32.001 14.5zM238.5 749.5c-7.66699 9.66699 -10.834 21.5 -9.50098 35.5s6.83301 25.833 16.5 35.5s21.334 14.5 35.001 14.5s24.667 -4.83301 33 -14.5s11.833 -21.5 10.5 -35.5s-7.16602 -25.833 -17.499 -35.5s-22.333 -14.5 -36 -14.5
s-24.334 4.83301 -32.001 14.5z" />
    <glyph glyph-name="Ntilde" unicode="&#xd1;" horiz-adv-x="617" 
d="M148 629h85l232 -504l49 504h71l-59 -629h-80l-237 513l-48 -513h-72zM319 770c-19.7471 0 -38.415 -17.001 -56.001 -51.001l-27 19c21.333 69.333 51.333 104 90 104c12.75 0 28.6045 -5.66699 47.5625 -17s31.4375 -18.666 37.4375 -21.999s11 -6 15 -8
c6.66699 -3.33301 13.667 -5 21 -5c19.333 0 36.666 17.333 51.999 52l29 -23c-9.33301 -32 -22.166 -56.667 -38.499 -74s-30.833 -26 -43.5 -26s-23.667 2 -33 6s-22.666 11.167 -39.999 21.5c-26.2793 15.667 -44.2793 23.5 -54 23.5z" />
    <glyph glyph-name="Ograve" unicode="&#xd2;" horiz-adv-x="581" 
d="M351 640c73.0947 0 129.096 -27.166 168.001 -81.499c40.5283 -56.5996 56.1953 -138.1 47 -244.5c-10.2852 -106.704 -41.6182 -188.371 -94 -245c-49.333 -53.333 -110.333 -80 -183 -80c-73.9014 0 -129.734 26.833 -167.5 80.5
c-40.6064 57.7031 -55.7734 139.203 -45.501 244.5c8.98145 105.207 39.8145 187.04 92.5 245.499c48.3662 53.667 109.199 80.5 182.5 80.5zM463.501 503.001c-27 44 -67.001 66 -120.001 66s-96.667 -22 -131 -66s-55.5 -107.333 -63.5 -190s1.33301 -145.334 28 -188.001
s66.334 -64 119.001 -64s96.5 21.333 131.5 64s56.5 105.334 64.5 188.001s-1.5 146 -28.5 190zM281 860.001l199 -133l-25 -50l-210 113z" />
    <glyph glyph-name="Oacute" unicode="&#xd3;" horiz-adv-x="581" 
d="M351 640c73.0947 0 129.096 -27.166 168.001 -81.499c40.5283 -56.5996 56.1953 -138.1 47 -244.5c-10.2852 -106.704 -41.6182 -188.371 -94 -245c-49.333 -53.333 -110.333 -80 -183 -80c-73.9014 0 -129.734 26.833 -167.5 80.5
c-40.6064 57.7031 -55.7734 139.203 -45.501 244.5c8.98145 105.207 39.8145 187.04 92.5 245.499c48.3662 53.667 109.199 80.5 182.5 80.5zM212.501 503.001c-34.333 -44 -55.501 -107.333 -63.501 -190s1.33301 -145.334 28 -188.001s66.334 -64 119.001 -64
s96.5 21.333 131.5 64s56.5 105.334 64.5 188.001s-1.5 146 -28.5 190s-67 66 -120 66s-96.667 -22 -131 -66zM485 790.001l-231 -113l-16 50l224 133z" />
    <glyph glyph-name="Ocircumflex" unicode="&#xd4;" horiz-adv-x="581" 
d="M351 640c73.0947 0 129.096 -27.166 168.001 -81.499c40.5283 -56.5996 56.1953 -138.1 47 -244.5c-10.2852 -106.704 -41.6182 -188.371 -94 -245c-49.333 -53.333 -110.333 -80 -183 -80c-73.9014 0 -129.734 26.833 -167.5 80.5
c-40.6064 57.7031 -55.7734 139.203 -45.501 244.5c8.98145 105.207 39.8145 187.04 92.5 245.499c48.3662 53.667 109.199 80.5 182.5 80.5zM463.501 503.001c-27 44 -67.001 66 -120.001 66s-96.667 -22 -131 -66s-55.5 -107.333 -63.5 -190s1.33301 -145.334 28 -188.001
s66.334 -64 119.001 -64s96.5 21.333 131.5 64s56.5 105.334 64.5 188.001s-1.5 146 -28.5 190zM519 716.001l-48 -39l-107 108l-127 -108l-41 39l176 156z" />
    <glyph glyph-name="Otilde" unicode="&#xd5;" horiz-adv-x="581" 
d="M351 640c73.0947 0 129.096 -27.166 168.001 -81.499c40.5283 -56.5996 56.1953 -138.1 47 -244.5c-10.2852 -106.704 -41.6182 -188.371 -94 -245c-49.333 -53.333 -110.333 -80 -183 -80c-73.9014 0 -129.734 26.833 -167.5 80.5
c-40.6064 57.7031 -55.7734 139.203 -45.501 244.5c8.98145 105.207 39.8145 187.04 92.5 245.499c48.3662 53.667 109.199 80.5 182.5 80.5zM212.501 503.001c-34.333 -44 -55.501 -107.333 -63.501 -190s1.33301 -145.334 28 -188.001s66.334 -64 119.001 -64
s96.5 21.333 131.5 64s56.5 105.334 64.5 188.001s-1.5 146 -28.5 190s-67 66 -120 66s-96.667 -22 -131 -66zM301 770.001c-19.7471 0 -38.415 -17.001 -56.001 -51.001l-27 19c21.333 69.333 51.333 104 90 104c12.75 0 28.6045 -5.66699 47.5625 -17
s31.4375 -18.666 37.4375 -21.999s11 -6 15 -8c6.66699 -3.33301 13.667 -5 21 -5c19.333 0 36.666 17.333 51.999 52l29 -23c-9.33301 -32 -22.166 -56.667 -38.499 -74s-30.833 -26 -43.5 -26s-23.667 2 -33 6s-22.666 11.167 -39.999 21.5
c-26.2793 15.667 -44.2793 23.5 -54 23.5z" />
    <glyph glyph-name="Odieresis" unicode="&#xd6;" horiz-adv-x="581" 
d="M351 640c73.0947 0 129.096 -27.166 168.001 -81.499c40.5283 -56.5996 56.1953 -138.1 47 -244.5c-10.2852 -106.704 -41.6182 -188.371 -94 -245c-49.333 -53.333 -110.333 -80 -183 -80c-73.9014 0 -129.734 26.833 -167.5 80.5
c-40.6064 57.7031 -55.7734 139.203 -45.501 244.5c8.98145 105.207 39.8145 187.04 92.5 245.499c48.3662 53.667 109.199 80.5 182.5 80.5zM463.501 503.001c-27 44 -67.001 66 -120.001 66s-96.667 -22 -131 -66s-55.5 -107.333 -63.5 -190s1.33301 -145.334 28 -188.001
s66.334 -64 119.001 -64s96.5 21.333 131.5 64s56.5 105.334 64.5 188.001s-1.5 146 -28.5 190zM250.5 749.501c-7.66699 9.66699 -10.834 21.5 -9.50098 35.5s6.83301 25.833 16.5 35.5s21.334 14.5 35.001 14.5s24.667 -4.83301 33 -14.5s11.833 -21.5 10.5 -35.5
s-7.16602 -25.833 -17.499 -35.5s-22.333 -14.5 -36 -14.5s-24.334 4.83301 -32.001 14.5zM401.5 749.501c-7.66699 9.66699 -10.834 21.5 -9.50098 35.5s6.83301 25.833 16.5 35.5s21.334 14.5 35.001 14.5s24.667 -4.83301 33 -14.5s11.833 -21.5 10.5 -35.5
s-7.16602 -25.833 -17.499 -35.5s-22.333 -14.5 -36 -14.5s-24.334 4.83301 -32.001 14.5z" />
    <glyph glyph-name="Ugrave" unicode="&#xd9;" horiz-adv-x="589" 
d="M209 629l-39.002 -402c-5.33301 -58.667 3.83398 -101 27.501 -127s57.334 -39 101.001 -39s79.834 13 108.501 39s45.667 68.333 51 127l39 402h71l-39 -402c-7.33301 -78.667 -32.333 -138 -75 -178s-96.834 -60 -162.501 -60s-116 20 -151 60
s-48.833 99.333 -41.5 178l39 402h71zM283.998 860l199 -133l-25 -50l-210 113z" />
    <glyph glyph-name="Uacute" unicode="&#xda;" horiz-adv-x="589" 
d="M138 629h70.998l-39 -402c-5.33301 -58.667 3.83398 -101 27.501 -127s57.334 -39 101.001 -39s79.834 13 108.501 39s45.667 68.333 51 127l39 402h71l-39 -402c-7.33301 -78.667 -32.333 -138 -75 -178s-96.834 -60 -162.501 -60s-116 20 -151 60
s-48.833 99.333 -41.5 178zM487.998 790l-231 -113l-16 50l224 133z" />
    <glyph glyph-name="Ucircumflex" unicode="&#xdb;" horiz-adv-x="589" 
d="M209 629l-39.002 -402c-5.33301 -58.667 3.83398 -101 27.501 -127s57.334 -39 101.001 -39s79.834 13 108.501 39s45.667 68.333 51 127l39 402h71l-39 -402c-7.33301 -78.667 -32.333 -138 -75 -178s-96.834 -60 -162.501 -60s-116 20 -151 60
s-48.833 99.333 -41.5 178l39 402h71zM521.998 716l-48 -39l-107 108l-127 -108l-41 39l176 156z" />
    <glyph glyph-name="Udieresis" unicode="&#xdc;" horiz-adv-x="589" 
d="M209 629l-39.002 -402c-5.33301 -58.667 3.83398 -101 27.501 -127s57.334 -39 101.001 -39s79.834 13 108.501 39s45.667 68.333 51 127l39 402h71l-39 -402c-7.33301 -78.667 -32.333 -138 -75 -178s-96.834 -60 -162.501 -60s-116 20 -151 60
s-48.833 99.333 -41.5 178l39 402h71zM253.498 749.5c-7.66699 9.66699 -10.834 21.5 -9.50098 35.5s6.83301 25.833 16.5 35.5s21.334 14.5 35.001 14.5s24.667 -4.83301 33 -14.5s11.833 -21.5 10.5 -35.5s-7.16602 -25.833 -17.499 -35.5s-22.333 -14.5 -36 -14.5
s-24.334 4.83301 -32.001 14.5zM404.498 749.5c-7.66699 9.66699 -10.834 21.5 -9.50098 35.5s6.83301 25.833 16.5 35.5s21.334 14.5 35.001 14.5s24.667 -4.83301 33 -14.5s11.833 -21.5 10.5 -35.5s-7.16602 -25.833 -17.499 -35.5s-22.333 -14.5 -36 -14.5
s-24.334 4.83301 -32.001 14.5z" />
    <glyph glyph-name="agrave" unicode="&#xe0;" horiz-adv-x="496" 
d="M377 310c4 43.333 -1.16504 74.333 -15.498 93s-36.833 28 -67.5 28s-56.167 -6.66699 -76.5 -20s-31.833 -35 -34.5 -65h-79c5.33301 52 25.666 89 60.999 111s78.666 33 129.999 33c80.6953 0 129.695 -33.167 147 -99.5c6 -23 7.66699 -50.5 5 -82.5l-29 -308h-61
l1 80c-32.667 -60.667 -83.667 -91 -153 -91c-45.9512 0 -81.9512 14.833 -108 44.5c-24.2227 27.5869 -34.2227 61.0869 -30 100.5c3.79785 45.5752 23.1309 81.0752 58 106.5c31.543 23 70.4287 34.5 116.657 34.5s89.3428 -8.66699 129.343 -26zM366.002 199
c-41.4814 13.333 -78.0146 20.001 -109.607 20.001s-57.7227 -6.16699 -78.3896 -18.5s-32.334 -32.333 -35.001 -60s2.16602 -49.667 14.499 -66s35 -24.5 68 -24.5s62.667 12.167 89 36.5s43.166 57.166 50.499 98.499v3zM232.006 731.001l199 -133l-25 -50l-210 113z" />
    <glyph glyph-name="aacute" unicode="&#xe1;" horiz-adv-x="496" 
d="M377 310c4 43.333 -1.16504 74.333 -15.498 93s-36.833 28 -67.5 28s-56.167 -6.66699 -76.5 -20s-31.833 -35 -34.5 -65h-79c5.33301 52 25.666 89 60.999 111s78.666 33 129.999 33c80.6953 0 129.695 -33.167 147 -99.5c6 -23 7.66699 -50.5 5 -82.5l-29 -308h-61
l1 80c-32.667 -60.667 -83.667 -91 -153 -91c-45.9512 0 -81.9512 14.833 -108 44.5c-24.2227 27.5869 -34.2227 61.0869 -30 100.5c3.79785 45.5752 23.1309 81.0752 58 106.5c31.543 23 70.4287 34.5 116.657 34.5s89.3428 -8.66699 129.343 -26zM366.002 199
c-41.4814 13.333 -78.0146 20.001 -109.607 20.001s-57.7227 -6.16699 -78.3896 -18.5s-32.334 -32.333 -35.001 -60s2.16602 -49.667 14.499 -66s35 -24.5 68 -24.5s62.667 12.167 89 36.5s43.166 57.166 50.499 98.499v3zM436.006 661.001l-231 -113l-16 50l224 133z" />
    <glyph glyph-name="acircumflex" unicode="&#xe2;" horiz-adv-x="496" 
d="M377 310c4 43.333 -1.16504 74.333 -15.498 93s-36.833 28 -67.5 28s-56.167 -6.66699 -76.5 -20s-31.833 -35 -34.5 -65h-79c5.33301 52 25.666 89 60.999 111s78.666 33 129.999 33c80.6953 0 129.695 -33.167 147 -99.5c6 -23 7.66699 -50.5 5 -82.5l-29 -308h-61
l1 80c-32.667 -60.667 -83.667 -91 -153 -91c-45.9512 0 -81.9512 14.833 -108 44.5c-24.2227 27.5869 -34.2227 61.0869 -30 100.5c3.79785 45.5752 23.1309 81.0752 58 106.5c31.543 23 70.4287 34.5 116.657 34.5s89.3428 -8.66699 129.343 -26zM366.002 199
c-41.4814 13.333 -78.0137 20 -109.606 20s-57.7227 -6.16699 -78.3896 -18.5s-32.334 -32.333 -35.001 -60s2.16602 -49.667 14.499 -66s35.166 -24.5 68.499 -24.5c34.3145 0 64.1475 12.333 89.499 37c26.5098 25.793 43.0098 59.46 49.5 101zM470.007 587l-48 -39
l-107 108l-127 -108l-41 39l176 156z" />
    <glyph glyph-name="atilde" unicode="&#xe3;" horiz-adv-x="496" 
d="M377 310c4 43.333 -1.16504 74.333 -15.498 93s-36.833 28 -67.5 28s-56.167 -6.66699 -76.5 -20s-31.833 -35 -34.5 -65h-79c5.33301 52 25.666 89 60.999 111s78.666 33 129.999 33c80.6953 0 129.695 -33.167 147 -99.5c6 -23 7.66699 -50.5 5 -82.5l-29 -308h-61
l1 80c-32.667 -60.667 -83.667 -91 -153 -91c-45.9512 0 -81.9512 14.833 -108 44.5c-24.2227 27.5869 -34.2227 61.0869 -30 100.5c3.79785 45.5752 23.1309 81.0752 58 106.5c31.543 23 70.4287 34.5 116.657 34.5s89.3428 -8.66699 129.343 -26zM366.002 199
c-41.4814 13.333 -78.0146 20.001 -109.607 20.001s-57.7227 -6.16699 -78.3896 -18.5s-32.334 -32.333 -35.001 -60s2.16602 -49.667 14.499 -66s35 -24.5 68 -24.5s62.667 12.167 89 36.5s43.166 57.166 50.499 98.499v3zM251.006 641.001
c-19.7471 0 -38.415 -17.001 -56.001 -51.001l-27 19c21.333 69.333 51.333 104 90 104c12.75 0 28.6045 -5.66699 47.5625 -17s31.4375 -18.666 37.4375 -21.999s11 -6 15 -8c6.66699 -3.33301 13.667 -5 21 -5c19.333 0 36.666 17.333 51.999 52l29 -23
c-9.33301 -32 -22.166 -56.667 -38.499 -74s-30.833 -26 -43.5 -26s-23.667 2 -33 6s-22.666 11.167 -39.999 21.5c-26.2793 15.667 -44.2793 23.5 -54 23.5z" />
    <glyph glyph-name="adieresis" unicode="&#xe4;" horiz-adv-x="496" 
d="M377 310c4 43.333 -1.16504 74.333 -15.498 93s-36.833 28 -67.5 28s-56.167 -6.66699 -76.5 -20s-31.833 -35 -34.5 -65h-79c5.33301 52 25.666 89 60.999 111s78.666 33 129.999 33c80.6953 0 129.695 -33.167 147 -99.5c6 -23 7.66699 -50.5 5 -82.5l-29 -308h-61
l1 80c-32.667 -60.667 -83.667 -91 -153 -91c-45.9512 0 -81.9512 14.833 -108 44.5c-24.2227 27.5869 -34.2227 61.0869 -30 100.5c3.79785 45.5752 23.1309 81.0752 58 106.5c31.543 23 70.4287 34.5 116.657 34.5s89.3428 -8.66699 129.343 -26zM366.002 199
c-41.4814 13.333 -78.0137 20 -109.606 20s-57.7227 -6.16699 -78.3896 -18.5s-32.334 -32.333 -35.001 -60s2.16602 -49.667 14.499 -66s35.166 -24.5 68.499 -24.5c34.3145 0 64.1475 12.333 89.499 37c26.5098 25.793 43.0098 59.46 49.5 101zM201.507 619.5
c-7.66699 9.66699 -10.834 21.5 -9.50098 35.5s6.83301 25.833 16.5 35.5s21.334 14.5 35.001 14.5s24.667 -4.83301 33 -14.5s11.833 -21.5 10.5 -35.5s-7.16602 -25.833 -17.499 -35.5s-22.333 -14.5 -36 -14.5s-24.334 4.83301 -32.001 14.5zM352.507 619.5
c-7.66699 9.66699 -10.834 21.5 -9.50098 35.5s6.83301 25.833 16.5 35.5s21.334 14.5 35.001 14.5s24.667 -4.83301 33 -14.5s11.833 -21.5 10.5 -35.5s-7.16602 -25.833 -17.499 -35.5s-22.333 -14.5 -36 -14.5s-24.334 4.83301 -32.001 14.5z" />
    <glyph glyph-name="egrave" unicode="&#xe8;" horiz-adv-x="463" 
d="M245 53c58.833 0 95.499 29.001 109.999 87.001h73c-11.333 -48 -34 -85.167 -68 -111.5s-74.333 -39.5 -121 -39.5c-57.292 0 -101.625 22.167 -132.999 66.5c-33.084 46.748 -45.751 107.581 -38.001 182.499c7.85742 77.2656 32.1904 138.766 73 184.5
c40.1543 45 88.4873 67.5 145 67.5c63.0635 0 107.73 -27 134.001 -81c23.7441 -48.8076 27.7441 -111.141 12 -187h-295c-6.47559 -77.7119 12.0244 -129.712 55.5 -156c14.333 -8.66699 31.833 -13 52.5 -13zM330.499 415.001c-13 8 -29.168 12.001 -48.501 12.001
s-36.666 -3.83301 -51.999 -11.5s-28.833 -18.167 -40.5 -31.5c-23.4707 -26.8232 -38.6377 -60.8232 -45.5 -102h230c7.11816 66.4395 -7.38184 110.772 -43.5 132.999zM210.998 736.002l199 -133l-25 -50l-210 113z" />
    <glyph glyph-name="eacute" unicode="&#xe9;" horiz-adv-x="463" 
d="M355 140l72.9971 0.000976562c-11.333 -48 -34 -85.167 -68 -111.5s-74.333 -39.5 -121 -39.5c-57.292 0 -101.625 22.167 -132.999 66.5c-33.083 46.748 -45.75 107.581 -38 182.499c7.85742 77.2656 32.1904 138.766 73 184.5c40.1543 45 88.4873 67.5 145 67.5
c63.0635 0 107.73 -27 134.001 -81c23.7441 -48.8076 27.7441 -111.141 12 -187h-295c-4.21094 -50.5361 2.62207 -90.7031 20.5 -120.5c19.4004 -32.333 48.5674 -48.5 87.501 -48.5c58.833 0 95.5 29 110 87zM281.997 427.001c-36.583 0 -67.417 -14.333 -92.5 -43
c-23.4707 -26.8232 -38.6377 -60.8232 -45.5 -102h230c4.37988 40.8779 -0.120117 74.3779 -13.5 100.5c-7 13.667 -17 24.5 -30 32.5s-29.167 12 -48.5 12zM414.996 666.001l-231 -113l-16 50l224 133z" />
    <glyph glyph-name="ecircumflex" unicode="&#xea;" horiz-adv-x="463" 
d="M248 53c58.833 0 95.499 29.001 109.999 87.001h73c-11.333 -48 -34 -85.167 -68 -111.5s-74.333 -39.5 -121 -39.5c-57.292 0 -101.625 22.167 -132.999 66.5c-33.084 46.748 -45.751 107.581 -38.001 182.499c7.85742 77.2656 32.1904 138.766 73 184.5
c40.1543 45 88.4873 67.5 145 67.5c63.0635 0 107.73 -27 134.001 -81c23.7441 -48.8076 27.7441 -111.141 12 -187h-295c-6.47559 -77.7119 12.0244 -129.712 55.5 -156c14.333 -8.66699 31.833 -13 52.5 -13zM333.499 415.001c-13 8 -29.168 12.001 -48.501 12.001
s-36.666 -3.83301 -51.999 -11.5s-28.833 -18.167 -40.5 -31.5c-23.4707 -26.8232 -38.6377 -60.8232 -45.5 -102h230c7.11816 66.4395 -7.38184 110.772 -43.5 132.999zM451.998 592.002l-48 -39l-107 108l-127 -108l-41 39l176 156z" />
    <glyph glyph-name="edieresis" unicode="&#xeb;" horiz-adv-x="463" 
d="M245 53c58.833 0 95.499 29.001 109.999 87.001h73c-11.333 -48 -34 -85.167 -68 -111.5s-74.333 -39.5 -121 -39.5c-57.292 0 -101.625 22.167 -132.999 66.5c-33.084 46.748 -45.751 107.581 -38.001 182.499c7.85742 77.2656 32.1904 138.766 73 184.5
c40.1543 45 88.4873 67.5 145 67.5c63.0635 0 107.73 -27 134.001 -81c23.7441 -48.8076 27.7441 -111.141 12 -187h-295c-6.47559 -77.7119 12.0244 -129.712 55.5 -156c14.333 -8.66699 31.833 -13 52.5 -13zM330.499 415.001c-13 8 -29.168 12.001 -48.501 12.001
s-36.666 -3.83301 -51.999 -11.5s-28.833 -18.167 -40.5 -31.5c-23.4707 -26.8232 -38.6377 -60.8232 -45.5 -102h230c7.11816 66.4395 -7.38184 110.772 -43.5 132.999zM181.498 619.502c-7.66699 9.66699 -10.834 21.5 -9.50098 35.5s6.83301 25.833 16.5 35.5
s21.334 14.5 35.001 14.5s24.667 -4.83301 33 -14.5s11.833 -21.5 10.5 -35.5s-7.16602 -25.833 -17.499 -35.5s-22.333 -14.5 -36 -14.5s-24.334 4.83301 -32.001 14.5zM332.498 619.502c-7.66699 9.66699 -10.834 21.5 -9.50098 35.5s6.83301 25.833 16.5 35.5
s21.334 14.5 35.001 14.5s24.667 -4.83301 33 -14.5s11.833 -21.5 10.5 -35.5s-7.16602 -25.833 -17.499 -35.5s-22.333 -14.5 -36 -14.5s-24.334 4.83301 -32.001 14.5z" />
    <glyph glyph-name="igrave" unicode="&#xec;" horiz-adv-x="269" 
d="M140 479h71l-45 -479h-71zM109 731l199 -133l-25 -50l-210 113z" />
    <glyph glyph-name="iacute" unicode="&#xed;" horiz-adv-x="269" 
d="M95 0l45 479h71l-45 -479h-71zM313 661l-231 -113l-16 50l224 133z" />
    <glyph glyph-name="icircumflex" unicode="&#xee;" horiz-adv-x="269" 
d="M140 479h71l-45 -479h-71zM348 587l-48 -39l-107 108l-127 -108l-41 39l176 156z" />
    <glyph glyph-name="idieresis" unicode="&#xef;" horiz-adv-x="269" 
d="M140 479h71l-45 -479h-71zM79.5 619.5c-7.66699 9.66699 -10.834 21.5 -9.50098 35.5s6.83301 25.833 16.5 35.5s21.334 14.5 35.001 14.5s24.667 -4.83301 33 -14.5s11.833 -21.5 10.5 -35.5s-7.16602 -25.833 -17.499 -35.5s-22.333 -14.5 -36 -14.5
s-24.334 4.83301 -32.001 14.5zM230.5 619.5c-7.66699 9.66699 -10.834 21.5 -9.50098 35.5s6.83301 25.833 16.5 35.5s21.334 14.5 35.001 14.5s24.667 -4.83301 33 -14.5s11.833 -21.5 10.5 -35.5s-7.16602 -25.833 -17.499 -35.5s-22.333 -14.5 -36 -14.5
s-24.334 4.83301 -32.001 14.5z" />
    <glyph glyph-name="ntilde" unicode="&#xf1;" horiz-adv-x="544" 
d="M351 490c51.333 0 89.499 -18.667 114.499 -56s34.167 -88.333 27.5 -153l-26 -281h-70l26 281c4.66699 46 -1.66602 80.667 -18.999 104s-44.333 35 -81 35s-67.834 -17.167 -93.501 -51.5s-41.167 -81.833 -46.5 -142.5l-21 -226h-71l45 478h61l-1 -93
c35.6865 70 87.3535 105 155.001 105zM272.999 641c-19.7471 0 -38.415 -17.001 -56.001 -51.001l-27 19c21.333 69.333 51.333 104 90 104c12.75 0 28.6045 -5.66699 47.5625 -17s31.4375 -18.666 37.4375 -21.999s11 -6 15 -8c6.66699 -3.33301 13.667 -5 21 -5
c19.333 0 36.666 17.333 51.999 52l29 -23c-9.33301 -32 -22.166 -56.667 -38.499 -74s-30.833 -26 -43.5 -26s-23.667 2 -33 6s-22.666 11.167 -39.999 21.5c-26.2793 15.667 -44.2793 23.5 -54 23.5z" />
    <glyph glyph-name="ograve" unicode="&#xf2;" horiz-adv-x="492" 
d="M292.5 490c29 0 55.333 -5.33398 79 -16.001s43.334 -26.5 59.001 -47.5c34.0176 -45.5977 47.1846 -108.098 39.5 -187.5c-7.73828 -79.958 -32.7383 -142.125 -75 -186.5c-40.3174 -42.333 -90.3174 -63.5 -150 -63.5c-59.7461 0 -105.746 21.167 -138 63.5
c-33.7461 44.292 -46.7461 106.459 -39 186.501c7.7666 80.2598 32.5996 142.76 74.499 187.5c39.6455 42.333 89.6455 63.5 150 63.5zM288 421.999c-42 0 -75.6689 -16.167 -101.002 -48.5s-40.666 -77 -45.999 -134s0.833984 -101.667 18.501 -134s47.5 -48.5 89.5 -48.5
s76 16.167 102 48.5s41.667 77 47 134s-1.16699 101.667 -19.5 134s-48.5 48.5 -90.5 48.5zM224.998 730.999l199 -133l-25 -50l-210 113z" />
    <glyph glyph-name="oacute" unicode="&#xf3;" horiz-adv-x="492" 
d="M292.5 490c60.418 0 106.417 -21.168 137.999 -63.501c34.0176 -45.5977 47.1846 -108.098 39.501 -187.5c-7.73828 -79.958 -32.7383 -142.125 -75 -186.5c-40.3174 -42.333 -90.3174 -63.5 -150 -63.5c-59.7461 0 -105.746 21.167 -138 63.5
c-33.7461 44.292 -46.7461 106.459 -39 186.501c7.7666 80.2598 32.5996 142.76 74.499 187.5c19.667 21 42.334 36.833 68.001 47.5s53 16 82 16zM287.999 421.999c-42 0 -75.6689 -16.167 -101.002 -48.5s-40.666 -77 -45.999 -134s0.833984 -101.667 18.501 -134
s47.5 -48.5 89.5 -48.5s76 16.167 102 48.5s41.667 77 47 134s-1.16699 101.667 -19.5 134s-48.5 48.5 -90.5 48.5zM428.997 660.999l-231 -113l-16 50l224 133z" />
    <glyph glyph-name="ocircumflex" unicode="&#xf4;" horiz-adv-x="492" 
d="M292.5 490c29 0 55.333 -5.33398 79 -16.001s43.334 -26.5 59.001 -47.5c34.0176 -45.5977 47.1846 -108.098 39.5 -187.5c-7.73828 -79.958 -32.7383 -142.125 -75 -186.5c-40.3174 -42.333 -90.3174 -63.5 -150 -63.5c-59.7461 0 -105.746 21.167 -138 63.5
c-33.7461 44.292 -46.7461 106.459 -39 186.501c7.7666 80.2598 32.5996 142.76 74.499 187.5c39.6455 42.333 89.6455 63.5 150 63.5zM288 421.999c-42 0 -75.6689 -16.167 -101.002 -48.5s-40.666 -77 -45.999 -134s0.833984 -101.667 18.501 -134s47.5 -48.5 89.5 -48.5
s76 16.167 102 48.5s41.667 77 47 134s-1.16699 101.667 -19.5 134s-48.5 48.5 -90.5 48.5zM461.998 586.999l-48 -39l-107 108l-127 -108l-41 39l176 156z" />
    <glyph glyph-name="otilde" unicode="&#xf5;" horiz-adv-x="492" 
d="M292.5 490c60.418 0 106.417 -21.168 137.999 -63.501c34.0176 -45.5977 47.1846 -108.098 39.501 -187.5c-7.73828 -79.958 -32.7383 -142.125 -75 -186.5c-40.3174 -42.333 -90.3174 -63.5 -150 -63.5c-59.7461 0 -105.746 21.167 -138 63.5
c-33.7461 44.292 -46.7461 106.459 -39 186.501c7.7666 80.2598 32.5996 142.76 74.499 187.5c19.667 21 42.334 36.833 68.001 47.5s53 16 82 16zM287.999 421.999c-42 0 -75.6689 -16.167 -101.002 -48.5s-40.666 -77 -45.999 -134s0.833984 -101.667 18.501 -134
s47.5 -48.5 89.5 -48.5s76 16.167 102 48.5s41.667 77 47 134s-1.16699 101.667 -19.5 134s-48.5 48.5 -90.5 48.5zM244.997 640.999c-19.7471 0 -38.415 -17.001 -56.001 -51.001l-27 19c21.333 69.333 51.333 104 90 104c12.75 0 28.6045 -5.66699 47.5625 -17
s31.4375 -18.666 37.4375 -21.999s11 -6 15 -8c6.66699 -3.33301 13.667 -5 21 -5c19.333 0 36.666 17.333 51.999 52l29 -23c-9.33301 -32 -22.166 -56.667 -38.499 -74s-30.833 -26 -43.5 -26s-23.667 2 -33 6s-22.666 11.167 -39.999 21.5
c-26.2793 15.667 -44.2793 23.5 -54 23.5z" />
    <glyph glyph-name="odieresis" unicode="&#xf6;" horiz-adv-x="492" 
d="M292.5 490c29 0 55.333 -5.33398 79 -16.001s43.334 -26.5 59.001 -47.5c34.0176 -45.5977 47.1846 -108.098 39.5 -187.5c-7.73828 -79.958 -32.7383 -142.125 -75 -186.5c-40.3174 -42.333 -90.3174 -63.5 -150 -63.5c-59.7461 0 -105.746 21.167 -138 63.5
c-33.7461 44.292 -46.7461 106.459 -39 186.501c7.7666 80.2598 32.5996 142.76 74.499 187.5c39.6455 42.333 89.6455 63.5 150 63.5zM288 421.999c-42 0 -75.6689 -16.167 -101.002 -48.5s-40.666 -77 -45.999 -134s0.833984 -101.667 18.501 -134s47.5 -48.5 89.5 -48.5
s76 16.167 102 48.5s41.667 77 47 134s-1.16699 101.667 -19.5 134s-48.5 48.5 -90.5 48.5zM194.498 619.499c-7.66699 9.66699 -10.834 21.5 -9.50098 35.5s6.83301 25.833 16.5 35.5s21.334 14.5 35.001 14.5s24.667 -4.83301 33 -14.5s11.833 -21.5 10.5 -35.5
s-7.16602 -25.833 -17.499 -35.5s-22.333 -14.5 -36 -14.5s-24.334 4.83301 -32.001 14.5zM345.498 619.499c-7.66699 9.66699 -10.834 21.5 -9.50098 35.5s6.83301 25.833 16.5 35.5s21.334 14.5 35.001 14.5s24.667 -4.83301 33 -14.5s11.833 -21.5 10.5 -35.5
s-7.16602 -25.833 -17.499 -35.5s-22.333 -14.5 -36 -14.5s-24.334 4.83301 -32.001 14.5z" />
    <glyph glyph-name="ugrave" unicode="&#xf9;" horiz-adv-x="545" 
d="M392 95c-35.3467 -69.333 -86.3447 -104 -152.998 -104c-48.667 0 -86.334 15 -113.001 45s-37.334 76.333 -32.001 139l29 304h71l-28 -298c-8.06641 -80.667 21.9336 -121 90 -121c39.8096 0 73.6426 17.5 101.5 52.5c26.9541 33.8662 43.1211 78.3662 48.5 133.5
l22 233h71l-45 -479h-71zM252.002 769l199 -133l-25 -50l-210 113z" />
    <glyph glyph-name="uacute" unicode="&#xfa;" horiz-adv-x="545" 
d="M256 60c39.8096 0 73.6445 17.5 101.502 52.5c26.9541 33.8662 43.1211 78.3662 48.5 133.5l22 233h71l-45 -479h-71l9 95c-35.3467 -69.333 -86.3467 -104 -153 -104c-48.667 0 -86.334 15 -113.001 45s-37.334 76.333 -32.001 139l29 304h71l-28 -298
c-8.06641 -80.667 21.9336 -121 90 -121zM456.002 699l-231 -113l-16 50l224 133z" />
    <glyph glyph-name="ucircumflex" unicode="&#xfb;" horiz-adv-x="545" 
d="M392 95c-35.3467 -69.333 -86.3447 -104 -152.998 -104c-48.667 0 -86.334 15 -113.001 45s-37.334 76.333 -32.001 139l29 304h71l-28 -298c-8.06641 -80.667 21.9336 -121 90 -121c39.8096 0 73.6426 17.5 101.5 52.5c26.9541 33.8662 43.1211 78.3662 48.5 133.5
l22 233h71l-45 -479h-71zM490.002 625l-48 -39l-107 108l-127 -108l-41 39l176 156z" />
    <glyph glyph-name="udieresis" unicode="&#xfc;" horiz-adv-x="545" 
d="M392 95c-35.3467 -69.333 -86.3447 -104 -152.998 -104c-48.667 0 -86.334 15 -113.001 45s-37.334 76.333 -32.001 139l29 304h71l-28 -298c-8.06641 -80.667 21.9336 -121 90 -121c39.8096 0 73.6426 17.5 101.5 52.5c26.9541 33.8662 43.1211 78.3662 48.5 133.5
l22 233h71l-45 -479h-71zM218.502 619.5c-7.66699 9.66699 -10.834 21.5 -9.50098 35.5s6.83301 25.833 16.5 35.5s21.334 14.5 35.001 14.5s24.667 -4.83301 33 -14.5s11.833 -21.5 10.5 -35.5s-7.16602 -25.833 -17.499 -35.5s-22.333 -14.5 -36 -14.5
s-24.334 4.83301 -32.001 14.5zM369.502 619.5c-7.66699 9.66699 -10.834 21.5 -9.50098 35.5s6.83301 25.833 16.5 35.5s21.334 14.5 35.001 14.5s24.667 -4.83301 33 -14.5s11.833 -21.5 10.5 -35.5s-7.16602 -25.833 -17.499 -35.5s-22.333 -14.5 -36 -14.5
s-24.334 4.83301 -32.001 14.5z" />
    <glyph glyph-name="dotlessi" unicode="&#x131;" horiz-adv-x="252" 
d="M136 479h71l-45 -479h-71z" />
    <glyph glyph-name="apostrophe" unicode="&#x2bc;" horiz-adv-x="166" 
d="M116 538c-8.66699 8.66699 -12.333 20.335 -11 35.002s7.33301 27 18 37s24.5 15 41.5 15s30.5 -7.5 40.5 -22.5s13.833 -33.833 11.5 -56.5s-11.333 -45.834 -27 -69.501s-37.5 -42.834 -65.5 -57.501l-50 29c40.7637 21.1367 65.7637 46.1367 75 75
c-13.333 1.33301 -24.333 6.33301 -33 15z" />
    <glyph glyph-name="circumflex" unicode="&#x2c6;" horiz-adv-x="366" 
d="M412 716l-48 -39l-107 108l-127 -108l-41 39l176 156z" />
    <glyph glyph-name="tilde" unicode="&#x2dc;" horiz-adv-x="329" 
d="M173 770c-19.7471 0 -38.415 -17.001 -56.001 -51.001l-27 19c21.333 69.333 51.333 104 90 104c12.75 0 28.6045 -5.66699 47.5625 -17s31.4375 -18.666 37.4375 -21.999s11 -6 15 -8c6.66699 -3.33301 13.667 -5 21 -5c19.333 0 36.666 17.333 51.999 52l29 -23
c-9.33301 -32 -22.166 -56.667 -38.499 -74s-30.833 -26 -43.5 -26s-23.667 2 -33 6s-22.666 11.167 -39.999 21.5c-26.2793 15.667 -44.2793 23.5 -54 23.5z" />
    <glyph glyph-name="endash" unicode="&#x2013;" horiz-adv-x="427" 
d="M80 325h328l-7 -68h-327z" />
    <glyph glyph-name="emdash" unicode="&#x2014;" horiz-adv-x="653" 
d="M80 325h554l-6 -68h-554z" />
    <glyph glyph-name="quoteleft" unicode="&#x2018;" horiz-adv-x="193" 
d="M172 433.5c-10.667 -10.333 -24.3301 -15.5 -40.9971 -15.5s-30 7.66699 -40 23s-13.833 34.5 -11.5 57.5s11.666 46.333 27.999 70s38.5 42.834 66.5 57.501l47 -29c-39.8184 -22.1211 -64.4854 -47.4541 -74.001 -76c13.333 -1.33301 24.166 -6.33301 32.499 -15
s11.833 -20.334 10.5 -35.001s-7.33301 -27.167 -18 -37.5z" />
    <glyph glyph-name="quoteright" unicode="&#x2019;" horiz-adv-x="193" 
d="M104 611c10.667 10 24.499 14.999 41.499 14.999s30.5 -7.33301 40.5 -22s13.833 -33.667 11.5 -57s-11.666 -46.833 -27.999 -70.5s-38.5 -43.167 -66.5 -58.5l-47 30c39.8184 22.1211 64.4854 47.4541 74.001 76c-13.333 1.33301 -24.333 6.33301 -33 15
s-12.334 20.334 -11.001 35.001s7.33301 27 18 37z" />
    <glyph glyph-name="rupeesymbol" unicode="&#x20b9;" horiz-adv-x="523" 
d="M142 629l374.999 -0.000976562l-6 -49h-164c38.667 -24 60.667 -58.333 66 -103h89l-4 -48h-86c-10.9209 -76.4492 -51.2539 -129.282 -120.999 -158.5c-24.667 -10.333 -53.667 -17.166 -87 -20.499l223 -250h-101l-220 248l5 48h55c51.333 0 90.833 12.667 118.5 38
s44.5 57 50.5 95h-212l5 48h208c-4 30.667 -17.5 55.5 -40.5 74.5s-57.5 28.5 -103.5 28.5h-55z" />
    <glyph glyph-name="minus" unicode="&#x2212;" horiz-adv-x="439" 
d="M399 325l-7 -67h-297l7 67h297z" />
    <glyph glyph-name=".null" horiz-adv-x="0" 
 />
    <glyph glyph-name="nonmarkingreturn" horiz-adv-x="498" 
 />
    <glyph glyph-name="zero.propold" horiz-adv-x="478" 
d="M457.74 267.399c-9.16016 -91.5996 -33.9072 -160.899 -74.2402 -207.899s-88.833 -70.5 -145.5 -70.5c-59.2109 0 -103.711 23.5 -133.5 70.5c-31.4111 49.5596 -42.5137 120.532 -33.3086 212.919s33.6406 161.914 73.3076 208.581s88.6367 70 146.909 70
s102.853 -24.3672 133.74 -73.1006s41.752 -118.9 32.5918 -210.5zM385 270c13.5898 141.333 -19.9082 212 -100.498 212c-41.667 0 -73.834 -18 -96.501 -54s-37.5 -88.667 -44.5 -158c-14.2021 -140.667 19.6309 -211 101.499 -211c42 0 74.167 17.833 96.5 53.5
s36.833 88.167 43.5 157.5z" />
    <glyph glyph-name="one.propold" horiz-adv-x="298" 
d="M257 541l-50.001 -541.001h-70l41 446c-32 -21.333 -63.667 -32.666 -95 -33.999l7 77c42.4111 7.3125 79.0781 24.6455 110.001 52h57z" />
    <glyph glyph-name="two.propold" horiz-adv-x="517" 
d="M135 73l320.999 -0.000976562l-6 -73h-392l7 84c5.33301 53.333 20.333 93.833 45 121.5s60.334 47.167 107.001 58.5l95 25c32.667 8 57.334 20 74.001 36s26.334 37 29.001 63s-4.83301 48 -22.5 66s-43.834 27 -78.501 27s-63.667 -7.66699 -87 -23
s-38.333 -38.666 -45 -69.999h-79c8.66699 52 31.667 92.167 69 120.5s85.666 42.5 144.999 42.5c53.333 0 96.5 -16.5 129.5 -49.5c31.167 -31.167 44.709 -68.875 40.626 -113.125s-18.458 -78.542 -43.125 -102.875s-60.334 -42.5 -107.001 -54.5l-102 -27
c-61.083 -14.959 -93.083 -47.959 -96 -99z" />
    <glyph glyph-name="three.propold" horiz-adv-x="506" 
d="M279 483c-66.9521 0 -109.282 -30.999 -126.996 -92.999h-75c12.6182 55.5205 37.9512 97.0205 76 124.5c33.6924 24.333 77.3594 36.5 131 36.5c56.2881 0 100.455 -15.667 132.501 -47c31.1299 -30.4385 44.6299 -70.4385 40.5 -120
c-3.33301 -34 -14.5 -61.333 -33.5 -82s-44.5 -37.334 -76.5 -50.001c36 -13.333 63.167 -35.833 81.5 -67.5s25.833 -64.834 22.5 -99.501s-11.166 -63.5 -23.499 -86.5s-28.5 -42.833 -48.5 -59.5c-42.4004 -35.333 -95.0674 -53 -158.001 -53
c-59.333 0 -106.333 16.667 -141 50c-37.7129 36.2627 -53.3799 86.9297 -47 152.001h72c-3.33301 -46 6.5 -79.833 29.5 -101.5s54.167 -32.5 93.5 -32.5c39.9795 0 74.3125 11.833 102.999 35.5c27.1963 22.4375 42.8633 52.2705 47 89.5
c4.59961 59.8008 -18.2334 100.134 -68.5 120.999c-17.667 7.33301 -38.834 11 -63.501 11h-55l5 63h39c43.333 0 78.166 8.66699 104.499 26s41.166 42.333 44.499 75s-4.33398 58.834 -23.001 78.501s-46 29.5 -82 29.5z" />
    <glyph glyph-name="four.propold" horiz-adv-x="504" 
d="M436 546l-41 -425h98l-6 -67h-98l-16 -159h-70l16 159h-293l6 61l337 431h67zM112 115h215l28 307z" />
    <glyph glyph-name="five.propold" horiz-adv-x="512" 
d="M196 296c29.333 6.66699 57.999 10.001 85.999 10.001c62.667 0 110.334 -17.667 143.001 -53s46 -84.333 40 -147c-6.63965 -63.7373 -31.6396 -116.237 -75 -157.5c-43.7852 -41.667 -96.7852 -62.5 -159 -62.5c-52 0 -93.333 16 -124 48
c-34.3242 35.8164 -48.3242 82.8164 -42 141h69c-3.33301 -38 4.5 -67 23.5 -87s45.833 -30 80.5 -30c41.6338 0 76.8008 14 105.501 42c29.0303 28.3223 45.3711 63.5693 49.0225 105.741s-5.35645 75.2578 -27.0234 99.2578s-56.167 36 -103.5 36h-146l54 304h311l-8 -71
h-244z" />
    <glyph glyph-name="six.propold" horiz-adv-x="516" 
d="M427 470c-4.35547 65.333 -34.6904 98.002 -91.002 98.002c-52.0928 0 -94.9258 -24.667 -128.5 -74c-37.0254 -54.4053 -59.0254 -136.238 -65.999 -245.5c-1 -15.667 -1.16699 -30.5 -0.5 -44.5c14.7197 90.1572 54.5527 145.49 119.5 166c19 6 39.833 9 62.5 9
s44.5 -4.83301 65.5 -14.5s38.833 -23.334 53.5 -41.001c31.2715 -37.668 44.2715 -84.835 39 -141.501c-6.59766 -58.0566 -29.0977 -104.89 -67.5 -140.499c-38.4639 -35.667 -86.6309 -53.5 -144.5 -53.5c-66.7998 0 -118.3 30.167 -154.5 90.5
c-35.1562 58.5928 -48.6562 133.426 -40.5 224.499c9.20605 103.897 38.0391 186.397 86.5 247.5c47.3223 59.667 107.489 89.5 180.501 89.5c51.333 0 91.333 -15.667 120 -47s42.667 -72.333 42 -123h-76zM169.506 182.109
c-3.00586 -36.7383 5.6582 -66.1094 25.9912 -88.1094s47.5 -33 81.5 -33s63.333 11 88 33s38.667 52.333 42 91s-5.16699 69 -25.5 91s-47.3076 33 -80.9238 33s-63.1133 -11.9639 -88.4912 -35.8916s-39.5703 -54.2607 -42.5762 -90.999z" />
    <glyph glyph-name="seven.propold" horiz-adv-x="423" 
d="M458 551l-6 -67l-325 -582h-87l337 579h-310l6 70h385z" />
    <glyph glyph-name="eight.propold" horiz-adv-x="553" 
d="M334.5 640c31.667 0 59.6699 -4.5 84.0029 -13.5s44.833 -21.167 61.5 -36.5c36.0869 -33.1992 51.4199 -74.8662 46 -125c-2.71973 -35.3545 -15.8867 -66.1875 -39.501 -92.5c-25.0332 -27.8945 -56.8662 -45.0615 -95.499 -51.5l15 -6
c40 -17.333 69.833 -37.833 89.5 -61.5s27.167 -58.167 22.5 -103.5s-28.334 -83.5 -71.001 -114.5s-100.334 -46.5 -173.001 -46.5c-65.667 0 -118.334 17 -158.001 51c-39.2979 33.6836 -56.2979 76.3506 -51 128c3.33301 41.333 18.333 75 45 101s60 42.333 100 49
c-30.083 15.833 -51.7705 32.458 -65.0625 49.875c-25.6104 33.5586 -36.5898 68.6006 -32.9375 105.125c4.14746 49.7666 26.1475 89.7666 66 120c41.3027 31.333 93.4697 47 156.5 47zM275.003 289c-37.2246 -3.85059 -68.8926 -17.0166 -95.001 -39.499
c-24.6221 -21.2031 -38.2891 -46.0361 -41 -74.5c-3.9248 -35.3213 8.24219 -63.4883 36.5 -84.501c26.4482 -19.667 62.9766 -29.5 109.586 -29.5s84.2471 8.66699 112.914 26s44.167 38.333 46.5 63s-3.16699 44.5 -16.5 59.5s-31.666 27.5 -54.999 37.5zM256.002 381.001
l63 -28c35.8691 1.37988 66.2021 11.7129 91 31c24.6465 19.1689 38.8076 44.7949 42.4844 76.877s-5.98438 57.9561 -28.9844 77.623s-54.5 29.5 -94.5 29.5c-37.9258 0 -70.2588 -9.5 -97 -28.5c-27.415 -19.4785 -42.5957 -45.1299 -45.542 -76.9531
s20.2344 -59.0059 69.542 -81.5469z" />
    <glyph glyph-name="nine.propold" horiz-adv-x="522" 
d="M308 551c32 0 61.1631 -8.50098 87.4961 -25.501s47.833 -40 64.5 -69c33.7725 -58.7637 46.4395 -135.264 38 -229.5c-16.418 -164.178 -69.085 -270.011 -158.001 -317.5c-29.333 -15.667 -60 -23.5 -92 -23.5s-59.167 4.83301 -81.5 14.5
s-41.166 23.334 -56.499 41.001c-32.0107 36.8818 -45.3438 84.0488 -39.999 141.5h75c-3.33301 -38 3.83398 -68.333 21.501 -91s42.334 -34 74.001 -34s57.667 6.5 78 19.5s37.666 31.5 51.999 55.5c27.9971 46.8789 46.8301 115.212 56.5 204.999
c0.666992 13.333 1.33398 26.5 2.00098 39.5s0.666992 26.5 0 40.5c-9.33301 -51.333 -29.5 -91.166 -60.5 -119.499s-68.167 -42.5 -111.5 -42.5c-51.0771 0 -92.4102 18.667 -124 56c-31.959 37.7705 -45.292 85.1035 -39.999 142c5.47852 58.8975 27.4785 106.23 66 142
c39.4873 36.667 89.1543 55 149 55zM295.996 480.999c-36 0 -65.666 -11.5 -88.999 -34.5s-36.833 -54 -40.5 -93s4.16602 -70 23.499 -93s47 -34.5 83 -34.5c34 0 63.5 12.5 88.5 37.5c23.4062 23.4062 37.0078 54.0078 40.8047 91.8047s-3.97168 68.1953 -23.3047 91.1953
s-47 34.5 -83 34.5z" />
    </font>
</defs>
</svg>
