<?xml version="1.0" standalone="no"?>
<!DOCTYPE svg PUBLIC "-//W3C//DTD SVG 1.1//EN" "http://www.w3.org/Graphics/SVG/1.1/DTD/svg11.dtd" >
<svg>
<metadata>
Created by FontForge 20120731 at Fri Aug  1 16:50:21 2014
 By Alfred Xing
Copyright (c) 2011-2012, Jonathan Pinhorn (jonpinhorn.typedesign@gmail.com), with Reserved Font Names 'Karla'
</metadata>
<defs>
<font id="Karla-Bold" horiz-adv-x="304" >
  <font-face 
    font-family="Karla"
    font-weight="700"
    font-stretch="normal"
    units-per-em="1000"
    panose-1="0 0 0 0 0 0 0 0 0 0"
    ascent="800"
    descent="-200"
    x-height="486"
    cap-height="649"
    bbox="-76 -251.003 975.999 913"
    underline-thickness="50"
    underline-position="-50"
    unicode-range="U+0020-2212"
  />
<missing-glyph horiz-adv-x="589" 
 />
    <glyph glyph-name=".notdef" horiz-adv-x="589" 
 />
    <glyph glyph-name="space" unicode=" " horiz-adv-x="253" 
 />
    <glyph glyph-name="space" unicode="&#xa0;" horiz-adv-x="253" 
 />
    <glyph glyph-name="exclam" unicode="!" horiz-adv-x="293" 
d="M86 664h128l-14 -445h-101zM91 13c-15.333 14.667 -23 33.334 -23 56.001s7.66699 41.667 23 57s35 23 59 23s44 -7.66699 60 -23s24 -34.333 24 -57s-8 -41.334 -24 -56.001s-36 -22 -60 -22s-43.667 7.33301 -59 22z" />
    <glyph glyph-name="quotedbl" unicode="&#x22;" horiz-adv-x="383" 
d="M150 686l-16 -238h-87l-15 238h118zM351 686l-16 -238h-87l-15 238h118z" />
    <glyph glyph-name="numbersign" unicode="#" horiz-adv-x="678" 
d="M396 164h-136l-14 -131h-111l14 131h-92l7 77h93l17 158h-93l8 78h93l14 129h111l-14 -129h136l14 129h111l-14 -129h94l-9 -78h-93l-17 -158h94l-8 -77h-94l-14 -131h-111zM268 241h136l17 158h-136z" />
    <glyph glyph-name="dollar" unicode="$" horiz-adv-x="689" 
d="M475 343c50 -17.333 87.332 -39.168 111.999 -65.501s37 -61.166 37 -104.499c0 -47.667 -19.333 -88.5 -58 -122.5c-42.4072 -37.2891 -102.074 -58.4561 -179 -63.5v-88h-84v90c-69.333 6.93359 -125.5 27.6006 -168.5 62.001c-46.333 37.0664 -69.5 87.7334 -69.5 152
h117c0 -32 10.333 -56.333 31 -73s50.667 -27.334 90 -32.001v194l-50 17c-56 18.667 -99.333 41.167 -130 67.5s-46 63.166 -46 110.499s19.167 86.833 57.5 118.5s94.5 50.167 168.5 55.5v76h84v-77c64.667 -6.66699 114 -26.667 148 -60s55.667 -76.666 65 -129.999h-117
c-3.33301 20 -13.166 37.833 -29.499 53.5s-38.5 26.5 -66.5 32.5v-182zM465.999 122.998c16.667 14.667 25 32 25 52c0 38.1719 -24 66.1719 -72 84l-32 12v-175c36 3.33301 62.333 12.333 79 27zM230.499 531.998c-16.333 -14 -24.5 -30.333 -24.5 -49
s5.33301 -33.5 16 -44.5s27.667 -20.5 51 -28.5l30 -12v161c-32 -4 -56.167 -13 -72.5 -27z" />
    <glyph glyph-name="percent" unicode="%" horiz-adv-x="765" 
d="M197.5 662c18.333 0 35.8311 -3.16797 52.498 -9.50098s31.334 -15.666 44.001 -27.999c27.333 -26.6143 41 -64.4473 41 -113.5c0 -48.667 -13.667 -86.667 -41 -114c-25.333 -25.333 -57.666 -38 -96.999 -38c-38 0 -69.667 12.667 -95 38
c-27.333 27.333 -41 65.333 -41 114c0 49.0527 13.667 86.8857 41 113.5c25.6758 25 57.5088 37.5 95.5 37.5zM245.998 510.999c0 50.667 -16.333 76 -49 76c-32 0 -48 -25.333 -48 -76c0 -51.333 16 -77 48 -77c32.667 0 49 25.667 49 77zM545.998 648.999h119l-439 -649
h-120zM572.998 289.999c38.3242 0 70.3242 -12.5 96 -37.5c27.333 -26.6143 41 -64.4473 41 -113.5c0 -49.333 -13.667 -87.666 -41 -114.999c-25.333 -25.333 -57.333 -38 -96 -38s-70.667 12.667 -96 38c-27.333 27.333 -41 65.666 -41 114.999
c0 49.0527 13.667 86.8857 41 113.5c25.6758 25 57.6758 37.5 96 37.5zM572.998 214.999c-32 0 -48 -25.502 -48 -76.502s16 -76.5 48 -76.5c14 0 25.667 5.83301 35 17.5s14 31.334 14 59.001s-4.66699 47.334 -14 59.001s-21 17.5 -35 17.5z" />
    <glyph glyph-name="ampersand" unicode="&#x26;" horiz-adv-x="965" 
d="M764 344c-29.2334 -83.5234 -65.8975 -152.521 -109.998 -206.998l17 -15c12 -10.667 23.333 -18.667 34 -24s23.834 -8 39.501 -8s29.167 5.83301 40.5 17.5s17.666 30.5 18.999 56.5h107c-1.33301 -54.667 -14.833 -98 -40.5 -130s-63.834 -48 -114.501 -48
c-32 0 -61.5 6.33301 -88.5 19s-55.5 32.667 -85.5 60c-66.5264 -52.667 -140.526 -79 -222 -79c-74.9629 0 -138.13 19 -189.5 57c-52.333 38.7119 -78.5 86.0449 -78.5 141.999c0 86.5908 61 139.591 183 159l-16 15c-48 43.5 -72 91.167 -72 143c0 46.167 19 83.5 57 112
c40.8887 30.667 94.8887 46 162 46c64.8408 0 117.341 -15.333 157.5 -46c37.667 -28.7637 56.5 -64.7881 56.5 -108.073s-13.833 -79.7607 -41.5 -109.428s-69.834 -55.167 -126.501 -76.5l127 -115c40.9082 48.5791 75.9082 109.579 105 183zM342.003 284.002
c-80 -11.4287 -120 -42.0957 -120 -92c0 -28 12.167 -51.5 36.5 -70.5s58.5 -28.5 102.5 -28.5c50.6348 0 98.3018 14.667 143 44zM465.503 428.002c16.333 17.333 24.499 36.833 24.499 58.5s-7.66699 39 -23 52s-36.666 19.5 -63.999 19.5s-48.5 -7.16699 -63.5 -21.5
s-22.5 -31.5 -22.5 -51.5c0 -29.333 15.667 -57.666 47 -84.999l23 -21c36 15.333 62.167 31.666 78.5 48.999z" />
    <glyph glyph-name="quotesingle" unicode="'" horiz-adv-x="180" 
d="M149 677l-16 -238h-87l-15 238h118z" />
    <glyph glyph-name="parenleft" unicode="(" horiz-adv-x="400" 
d="M282 -118c-139.333 123.852 -209 269.188 -209 436.002c0 168.104 69.667 313.438 209 435.999l85 -62c-57.333 -60 -100.333 -120.167 -129 -180.5s-43 -124.833 -43 -193.5s14.333 -132.834 43 -192.501s71.667 -119.5 129 -179.5z" />
    <glyph glyph-name="parenright" unicode=")" horiz-adv-x="400" 
d="M118 754c139.333 -123.707 209 -269.041 209 -436.001c0 -165.657 -69.667 -310.99 -209 -436l-86 64c58 60 101.333 119.833 130 179.5s43 123.834 43 192.501s-14.5 133.167 -43.5 193.5s-72.167 120.5 -129.5 180.5z" />
    <glyph glyph-name="asterisk" unicode="*" horiz-adv-x="409" 
d="M161 528l-111 37l30 70l99 -50l-12 119h80l-12 -119l99 52l30 -71l-109 -37l86 -82l-59 -51l-74 101l-76 -101l-57 51z" />
    <glyph glyph-name="plus" unicode="+" horiz-adv-x="544" 
d="M331 491v-194h195v-103h-195v-194h-118v194h-195v103h195v194h118z" />
    <glyph glyph-name="comma" unicode="," horiz-adv-x="253" 
d="M68.5 17.5c-13 11.667 -19.501 27.334 -19.501 47.001s7.66699 36.5 23 50.5s36.333 21 63 21s48.334 -10.333 65.001 -31s25 -46 25 -76c0 -48.8574 -22 -93.1904 -66 -133c-14 -12.667 -29.667 -23.334 -47 -32.001l-88 44c22 11.333 41.5 24 58.5 38
s28.167 30.333 33.5 49c-18.667 3.33301 -34.5 10.833 -47.5 22.5z" />
    <glyph glyph-name="hyphen" unicode="-" horiz-adv-x="373" 
d="M46 353h281v-103h-281v103z" />
    <glyph glyph-name="period" unicode="." horiz-adv-x="215" 
d="M47 13c-15.333 14.667 -23 33.334 -23 56.001s7.66699 41.667 23 57s35 23 59 23s44 -7.66699 60 -23s24 -34.333 24 -57s-8 -41.334 -24 -56.001s-36 -22 -60 -22s-43.667 7.33301 -59 22z" />
    <glyph glyph-name="slash" unicode="/" horiz-adv-x="472" 
d="M310 745h121l-258 -826h-120z" />
    <glyph glyph-name="zero" unicode="0" horiz-adv-x="633" 
d="M316.5 662c39.667 0 76 -6.83301 109 -20.5s61.333 -34.5 85 -62.5c50.333 -59.5488 75.5 -144.549 75.5 -255s-25.167 -195.451 -75.5 -255c-46.7695 -55.333 -111.27 -83 -193.5 -83c-82.5713 0 -147.571 27.667 -195 83c-50 58.333 -75 143.333 -75 255
s25 196.667 75 255c47.4287 55.333 112.262 83 194.5 83zM425.5 495.5c-25.667 39.667 -62 59.5 -109 59.5s-83.333 -19.833 -109 -59.5s-38.5 -96.834 -38.5 -171.501s12.833 -131.5 38.5 -170.5s62 -58.5 109 -58.5s83.333 19.5 109 58.5s38.5 95.833 38.5 170.5
s-12.833 131.834 -38.5 171.501z" />
    <glyph glyph-name="one" unicode="1" horiz-adv-x="357" 
d="M42 600c49.9336 7.34277 93.9336 25.0098 132 53h89v-653h-118v512c-34 -16.667 -68.333 -25 -103 -25v113z" />
    <glyph glyph-name="two" unicode="2" horiz-adv-x="605" 
d="M178 108l370.999 -0.000976562v-108h-489v111c0 77.7617 27.667 134.429 83 170c18.667 12 40.334 22.667 65.001 32l133 51c29.333 11.333 50.833 25.5 64.5 42.5s20.5 38.167 20.5 63.5s-9 46.5 -27 63.5s-43.667 25.5 -77 25.5s-60.833 -8 -82.5 -24
s-34.167 -39.667 -37.5 -71h-131c1.26855 63.4258 25.6016 113.093 73 149c43.1201 32.667 101.453 49 175 49c67.3848 0 122.885 -18 166.5 -54c45 -37.1426 67.5 -82.7617 67.5 -136.857s-13.5 -97.3096 -40.5 -129.643s-68.833 -59.5 -125.5 -81.5l-135 -52
c-26 -10 -44.833 -21.167 -56.5 -33.5s-17.5 -28.166 -17.5 -47.499v-19z" />
    <glyph glyph-name="three" unicode="3" horiz-adv-x="622" 
d="M309 555c-72.6377 0 -114.973 -27.667 -127.002 -83h-124c6.41699 64.1719 32.584 112.505 78.5 144.999c42.3916 30 98.2246 45 167.5 45c71.1943 0 129.361 -16.667 174.5 -50c46.333 -34.2158 69.5 -77.8828 69.5 -131.001c0 -33.333 -9 -62.166 -27 -86.499
s-44.667 -42.5 -80 -54.5c39.333 -13.333 70.833 -33.166 94.5 -59.499s35.5 -56.5 35.5 -90.5s-6.16699 -63 -18.5 -87s-29.833 -44.667 -52.5 -62c-47.9482 -36.667 -110.281 -55 -186.999 -55c-73.2119 0 -135.045 18.5 -185.499 55.5
c-55.667 40.8223 -83.5 94.9893 -83.5 162.5h126c2 -34 15.833 -60.667 41.5 -80s59.167 -29 100.5 -29s73.5 9.16699 96.5 27.5s34.5 41.666 34.5 69.999s-10.5 50.5 -31.5 66.5s-54.167 24 -99.5 24h-86v93h74c38 0 67.667 8.16699 89 24.5s32 37.833 32 64.5
s-9.16699 48.334 -27.5 65.001s-46.5 25 -84.5 25z" />
    <glyph glyph-name="four" unicode="4" horiz-adv-x="595" 
d="M468 656v-411h113v-101h-113v-144h-117v144h-329v89l332 423h114zM162 233h195v248z" />
    <glyph glyph-name="five" unicode="5" horiz-adv-x="582" 
d="M219 395c36 6 70.332 8.99902 102.999 8.99902c67.333 0 121 -16.167 161 -48.5s60 -78.833 60 -139.5c0 -65.7432 -22.5 -120.076 -67.5 -162.999c-46.8281 -44.667 -106.328 -67 -178.5 -67c-71.1445 0 -128.312 18.167 -171.5 54.5
c-44.3662 37.3242 -67.1992 88.4912 -68.499 153.5h121c0 -34 11.333 -59 34 -75s51.667 -24 87 -24s64.5 11.5 87.5 34.5s34.5 51.833 34.5 86.5c0 66 -44.667 99 -134 99h-198l30 334h389v-108h-275z" />
    <glyph glyph-name="six" unicode="6" horiz-adv-x="607" 
d="M425 471c-3.33301 26 -12.667 46.501 -28 61.501s-36.5 22.5 -63.5 22.5s-50.667 -5.83301 -71 -17.5s-37.666 -28.5 -51.999 -50.5c-29.667 -45.5352 -44.5 -106.868 -44.5 -184c0 -28.333 1 -50 3 -65c7.44922 57.1123 29.1162 98.9453 65 125.499
c31.0811 23 70.0811 34.5 117 34.5c60.2842 0 110.117 -19.333 149.5 -58c38.333 -37.6367 57.5 -86.9697 57.5 -148c0 -61.5918 -21.667 -111.259 -65 -149.001c-43.6299 -38 -100.297 -57 -170.001 -57c-81.2568 0 -147.757 30.833 -199.5 92.5
c-51 60.7812 -76.5 138.948 -76.5 234.501c0 110.595 25.667 196.762 77 258.5c50.165 60.333 118.165 90.5 204 90.5c65.1201 0 117.787 -17.333 158 -52c40.6533 -35.0459 62.3203 -81.3789 65 -139h-126zM242.499 272.501c-21.667 -19 -32.499 -44.167 -32.499 -75.5
s10.833 -56.166 32.5 -74.499s48.334 -27.5 80.001 -27.5s58.5 9.16699 80.5 27.5s33 43.166 33 74.499c0 31.5488 -11.167 57.0488 -33.5 76.5c-21.0498 18.333 -47.5625 27.5 -79.5381 27.5s-58.7969 -9.5 -80.4639 -28.5z" />
    <glyph glyph-name="seven" unicode="7" horiz-adv-x="498" 
d="M480 649v-113l-277 -536h-159l297 535h-317v114h456z" />
    <glyph glyph-name="eight" unicode="8" horiz-adv-x="647" 
d="M502 609.5c48.667 -35.0684 73 -79.5693 73 -133.501c0 -32.667 -11.167 -61.834 -33.5 -87.501s-54.5 -42.167 -96.5 -49.5c55.2344 -22.0938 93.4014 -44.2607 114.501 -66.5c25.667 -27.0537 38.5 -60.5537 38.5 -100.5c0 -55.4004 -24 -99.9004 -72 -133.5
c-50 -35 -117.667 -52.5 -203 -52.5c-81.8799 0 -148.38 18 -199.5 54c-49.667 34.9766 -74.5 79.9766 -74.5 135c0 40.667 14.167 73.5 42.5 98.5s64.5 40.167 108.5 45.5c-58.2832 27.875 -97.4502 64.042 -117.5 108.501c-7.66699 17 -11.5 36.167 -11.5 57.5
c0 54.667 21.833 97.834 65.5 129.501s103.357 47.5 179.071 47.5s137.856 -17.5 186.428 -52.5zM303 277.999c-60.7393 -4.18848 -101.574 -23.3584 -122.501 -57.5029c-6.33301 -10.333 -9.5 -22.166 -9.5 -35.499s4 -25.666 12 -36.999s18.833 -21 32.5 -29
c27.333 -16 65.083 -24 113.25 -24s84.75 6.5 109.75 19.5s37.5 29 37.5 48s-6.16699 34.333 -18.5 46s-29.166 21.834 -50.499 30.501zM258.998 410.996l75 -28.999c31.667 0 59.5 8 83.5 24c23.667 15.7773 35.5 36.7217 35.5 62.833s-12 47 -36 62.667
s-55.333 23.5 -94 23.5c-37.167 0 -68 -7 -92.5 -21c-25 -14.2861 -37.5 -33.8887 -37.5 -58.8086s22 -46.3174 66 -64.1924z" />
    <glyph glyph-name="nine" unicode="9" horiz-adv-x="610" 
d="M293 95c101.333 0 152.003 83.333 152.003 250c0 18 -1.33301 37.667 -4 59c-8.83398 -51.7402 -30.501 -90.9072 -65.001 -117.501c-30.7031 -23.667 -69.7031 -35.5 -117 -35.5c-60.667 0 -110.167 19.167 -148.5 57.5s-57.5 87.5 -57.5 147.5
c0 61.5918 21.667 111.259 65 149.001c43.6299 38 99.9629 57 169 57c78.6748 0 144.175 -30 196.5 -90c53.667 -61.5381 80.5 -140.538 80.5 -237c0 -167.333 -50 -275.5 -150 -324.5c-33.333 -16.333 -69.5 -24.5 -108.5 -24.5s-73 5 -102 15s-54.167 24 -75.5 42
c-45.333 38.25 -68 87.917 -68 149h123c1.33301 -30 12.166 -53.667 32.499 -71s46.166 -26 77.499 -26zM207.503 526.5c-21.667 -18.333 -32.498 -43.666 -32.498 -75.999s10.833 -57.5 32.5 -75.5s48.5 -27 80.5 -27c31.1855 0 57.6855 9.5 79.5 28.5
c22.333 19.4512 33.5 44.2842 33.5 74.499c0 30.8818 -11.167 56.0488 -33.5 75.5c-21.0498 18.333 -47.5625 27.5 -79.5381 27.5s-58.7969 -9.16699 -80.4639 -27.5z" />
    <glyph glyph-name="colon" unicode=":" horiz-adv-x="270" 
d="M74 30c-15.333 14.667 -23 33.334 -23 56.001s7.66699 41.667 23 57s35 23 59 23s44 -7.66699 60 -23s24 -34.333 24 -57s-8 -41.334 -24 -56.001s-36 -22 -60 -22s-43.667 7.33301 -59 22zM74 327c-15.333 14.667 -23 33.334 -23 56.001s7.66699 41.667 23 57
s35 23 59 23s44 -7.66699 60 -23s24 -34.333 24 -57s-8 -41.334 -24 -56.001s-36 -22 -60 -22s-43.667 7.33301 -59 22z" />
    <glyph glyph-name="semicolon" unicode=";" horiz-adv-x="308" 
d="M98.5 17.5c-13 11.667 -19.501 27.334 -19.501 47.001s7.66699 36.5 23 50.5s36.333 21 63 21s48.334 -10.333 65.001 -31s25 -46 25 -76c0 -48.8574 -22 -93.1904 -66 -133c-14 -12.667 -29.667 -23.334 -47 -32.001l-88 44c22 11.333 41.5 24 58.5 38
s28.167 30.333 33.5 49c-18.667 3.33301 -34.5 10.833 -47.5 22.5zM107.999 327c-15.333 14.667 -23 33.334 -23 56.001s7.66699 41.667 23 57s35 23 59 23s44 -7.66699 60 -23s24 -34.333 24 -57s-8 -41.334 -24 -56.001s-36 -22 -60 -22s-43.667 7.33301 -59 22z" />
    <glyph glyph-name="less" unicode="&#x3c;" horiz-adv-x="502" 
d="M457 527l-291 -205l291 -204l-78 -90l-334 241v107l334 241z" />
    <glyph glyph-name="equal" unicode="=" horiz-adv-x="506" 
d="M427 198v-103h-348v103h348zM427 408v-102h-348v102h348z" />
    <glyph glyph-name="greater" unicode="&#x3e;" horiz-adv-x="502" 
d="M123 617l334 -241v-107l-334 -241l-78 90l290 204l-290 205z" />
    <glyph glyph-name="question" unicode="?" horiz-adv-x="517" 
d="M485 481c0 -35.333 -8.66504 -64.8301 -25.998 -88.4971s-44.666 -44.834 -81.999 -63.501c-31.6191 -15.8096 -52.1904 -29.4287 -61.7139 -40.8574s-15.6191 -21.9766 -18.2861 -31.6436s-4 -20.834 -4 -33.501v-29h-118v40c0 60.0879 18 102.921 54 128.5
c12.667 9 31.334 19.833 56.001 32.5s42.5 25.5 53.5 38.5s16.5 29.667 16.5 50s-8.33301 37.333 -25 51s-41.334 20.5 -74.001 20.5s-58.334 -7.83301 -77.001 -23.5s-29.334 -36.167 -32.001 -61.5h-123c3.33301 58 24.666 104.5 63.999 139.5s94.5469 52.5 165.643 52.5
s127.429 -17.2627 169 -51.7881s62.3574 -77.5957 62.3574 -129.212zM177.502 121.003c15 14.667 34.667 22 59 22s44.5 -7.33301 60.5 -22s24 -33.334 24 -56.001s-8 -41.5 -24 -56.5s-36.167 -22.5 -60.5 -22.5s-44 7.5 -59 22.5s-22.5 33.833 -22.5 56.5
s7.5 41.334 22.5 56.001z" />
    <glyph glyph-name="at" unicode="@" horiz-adv-x="1027" 
d="M609 280c0 20.667 -3.83398 37.333 -11.501 50s-20.167 19 -37.5 19s-33.666 -3.5 -48.999 -10.5s-29.333 -17.333 -42 -31c-29.333 -31.6494 -44 -69.4824 -44 -113.5c0 -30 7.83301 -52.833 23.5 -68.5s35.167 -23.5 58.5 -23.5s42.833 6.5 58.5 19.5
s30.167 32.5 43.5 58.5v100zM703.999 149.999c0 -34 11.6689 -51 35.002 -51c10.667 0 22.834 3.5 36.501 10.5s26.5 18.333 38.5 34c28.667 37.4258 43 87.2588 43 149.5c0 77.3857 -25.667 139.719 -77 186.999c-55.0098 50.667 -128.343 76 -220 76
c-110.208 0 -200.375 -34 -270.5 -102c-69 -66.9092 -103.5 -150.909 -103.5 -252c0 -97.7549 33 -175.255 99 -232.5c69.5605 -60.333 164.228 -90.5 284 -90.5v-97c-76 0 -144.833 11.167 -206.5 33.5s-114.5 52.666 -158.5 90.999s-77.833 83.5 -101.5 135.5
s-35.5 109.833 -35.5 173.5s12.333 123.334 37 179.001s59 103.334 103 143.001s96.167 70.334 156.5 92.001s123.666 32.5 189.999 32.5s125.166 -9.5 176.499 -28.5s95.166 -45.167 131.499 -78.5s64.5 -72.5 84.5 -117.5s30 -91.833 30 -140.5s-7 -90.834 -21 -126.501
s-32.167 -65.667 -54.5 -90s-48 -42.833 -77 -55.5s-59 -19 -90 -19s-56.5 5.83301 -76.5 17.5s-33 28.167 -39 49.5l-6 16c-13.333 -25.333 -29.5 -45.5 -48.5 -60.5s-42.5 -22.5 -70.5 -22.5s-51.833 4.66699 -71.5 14s-37.167 22.166 -52.5 38.499
c-34 36.2178 -51 80.7178 -51 133.5c0 68.9395 24 127.772 72 176.5c46.9551 47.667 103.288 71.5 169 71.5c44 0 79.167 -13.167 105.5 -39.5s39.5 -66.166 39.5 -119.499v-131z" />
    <glyph glyph-name="A" unicode="A" horiz-adv-x="626" 
d="M243 649h148l213 -649h-125l-45 140h-241l-46 -140h-125zM223 229h182l-90 279z" />
    <glyph glyph-name="B" unicode="B" horiz-adv-x="648" 
d="M93 649h262c72.2695 0 128.103 -16.833 167.5 -50.5c37 -31.6182 55.5 -72.1182 55.5 -121.5c0 -36.667 -10.167 -68 -30.5 -94s-48.833 -44.333 -85.5 -55c36.667 -7.33301 67 -23.833 91 -49.5s36 -58.5 36 -98.5c0 -79.9111 -39.667 -134.411 -119 -163.5
c-30 -11 -68 -16.5 -114 -16.5h-263v649zM353 103c38 0 65.501 7.66797 82.501 23.001s25.5 35.666 25.5 60.999s-8.83301 45.833 -26.5 61.5s-44.834 23.5 -81.501 23.5h-142v-169h142zM211.001 375.001l139 0.000976562c35.333 0 62 7.66699 80 23s27 36.166 27 62.499
s-8.83301 47.333 -26.5 63s-44.167 23.5 -79.5 23.5h-140v-172z" />
    <glyph glyph-name="C" unicode="C" horiz-adv-x="634" 
d="M326.5 662c39.667 0 74.168 -4.83203 103.501 -14.499s54.666 -23.167 75.999 -40.5c42.1758 -34.2676 69.5088 -81.9346 81.999 -143l-126 -23c-10.667 34 -27.167 61.5 -49.5 82.5s-50.166 31.5 -83.499 31.5c-45.0879 0 -81.7549 -19.167 -110.001 -57.5
c-30 -40.7139 -45 -97.6426 -45 -170.785s13.333 -130.214 40 -171.214s63 -61.5 109 -61.5s80.667 11.167 104 33.5s35 51.166 35 86.499h127c0 -72.667 -23.167 -128.834 -69.5 -168.501s-109.833 -59.5 -190.5 -59.5c-86.2119 0 -154.545 30 -204.999 90
c-51.333 61.0449 -77 144.378 -77 250c0 106.934 26.5 190.434 79.5 250.5c50.2939 57 116.961 85.5 200 85.5z" />
    <glyph glyph-name="D" unicode="D" horiz-adv-x="686" 
d="M303 649c98.9043 0 178.737 -29.333 239.499 -88c61 -58.8965 91.5 -137.896 91.5 -237c0 -98.4365 -30.5 -177.104 -91.5 -236c-60.7617 -58.667 -140.595 -88 -239.499 -88h-211v649h211zM211 107l92 0.000976562c61.2295 0 110.729 20.667 148.5 62
c36.333 39.7607 54.5 91.4277 54.5 155c0 64.9053 -18.167 117.238 -54.5 156.999c-37.1611 40.667 -86.6611 61 -148.5 61h-92v-435z" />
    <glyph glyph-name="E" unicode="E" horiz-adv-x="586" 
d="M92 649h418v-102h-300v-171h281v-102h-281v-171h300v-103h-418v649z" />
    <glyph glyph-name="F" unicode="F" horiz-adv-x="547" 
d="M93 649h409v-102h-291v-171h266v-101h-266v-275h-118v649z" />
    <glyph glyph-name="G" unicode="G" horiz-adv-x="677" 
d="M491 103c-27.8574 -78 -81.5234 -116.998 -161 -116.998c-81.0303 0 -148.03 30.667 -201 92c-54.667 63.2979 -82 144.298 -82 243c0 103.707 29.333 187.04 88 249.999c56.5303 60.667 129.53 91 219 91c60.667 0 111.5 -13.167 152.5 -39.5
s73.167 -67.833 96.5 -124.5l-121 -28c-35.0791 56.667 -79.7461 85 -134 85c-49.2129 0 -90.2129 -20.833 -123 -62.5c-34 -43.208 -51 -100.375 -51 -171.5c0 -67.5156 15.333 -122.183 46 -164.001c30.3115 -41.333 70.3115 -62 120 -62c42.667 0 77.667 13.667 105 41
c28 28 42 66.333 42 115v4l-146 3v76h259v-334h-96z" />
    <glyph glyph-name="H" unicode="H" horiz-adv-x="706" 
d="M211 649v-271h283v271h118v-649h-118v275h-283v-275h-118v649h118z" />
    <glyph glyph-name="I" unicode="I" 
d="M93 649h118v-649h-118v649z" />
    <glyph glyph-name="J" unicode="J" horiz-adv-x="444" 
d="M16 27v118.001c51.0146 -29.333 100.682 -44 149.001 -44c28.667 0 49.5 8.33301 62.5 25s19.5 42 19.5 76v447h119v-447c0 -74.9678 -17.833 -130.635 -53.5 -167.001c-32.0381 -32.667 -76.1777 -49 -132.418 -49s-110.935 13.667 -164.083 41z" />
    <glyph glyph-name="K" unicode="K" horiz-adv-x="654" 
d="M212 649v-267l256 267h162l-286 -292l305 -357h-153l-231 275l-53 -54v-221h-119v649h119z" />
    <glyph glyph-name="L" unicode="L" horiz-adv-x="494" 
d="M211 103h267v-103h-385v649h118v-546z" />
    <glyph glyph-name="M" unicode="M" horiz-adv-x="874" 
d="M262 649l178 -386l178 386h163v-649h-119v493l-184 -422h-77l-190 436v-507h-118v649h169z" />
    <glyph glyph-name="N" unicode="N" horiz-adv-x="717" 
d="M220 649l286 -460v460h118v-649h-120l-295 476v-476h-118v649h129z" />
    <glyph glyph-name="O" unicode="O" horiz-adv-x="683" 
d="M341.5 662c43.667 0 83.5 -7.16895 119.5 -21.502s67 -35.5 93 -63.5c54.667 -58.8721 82 -142.872 82 -252c0 -110.094 -27.333 -194.927 -82 -254.499c-51.6943 -56.333 -122.694 -84.5 -213 -84.5c-89.0273 0 -159.694 28.5 -212 85.5
c-54.667 59.5723 -82 144.072 -82 253.5c0 110.462 27.333 195.129 82 254.001c51.3809 55.333 122.214 83 212.5 83zM467.5 495.498c-31 40.333 -72.833 60.5 -125.5 60.5s-94.667 -20.167 -126 -60.5s-47 -97.666 -47 -171.999s15.667 -131.333 47 -171
s73.333 -59.5 126 -59.5s94.5 19.833 125.5 59.5s46.5 96.667 46.5 171s-15.5 131.666 -46.5 171.999z" />
    <glyph glyph-name="P" unicode="P" horiz-adv-x="581" 
d="M490.5 595.5c41 -35.667 61.5 -86.667 61.5 -153s-20.5 -117.333 -61.5 -153s-98.167 -53.5 -171.5 -53.5h-110v-236h-119v649h229c73.333 0 130.5 -17.833 171.5 -53.5zM319 339c36.667 0 64.334 9.66797 83.001 29.001s28 44.166 28 74.499s-9.33301 55.333 -28 75
s-46.334 29.5 -83.001 29.5h-110v-208h110z" />
    <glyph glyph-name="Q" unicode="Q" horiz-adv-x="686" 
d="M628 -162c-27.5996 -12 -57.332 -18 -89.1982 -18c-64.3115 0 -118.911 33.667 -163.8 101l-43 65c-86.1475 1.36719 -154.647 30.8672 -205.5 88.5c-53 60.0664 -79.5 143.566 -79.5 250.5c0 110.462 27.333 195.129 82 254.001c51.3809 55.333 122.048 83 212 83
c89.3809 0 160.381 -28.333 213 -85c54.667 -58.8721 82 -142.872 82 -252c0 -90 -17.333 -161.833 -52 -215.5s-81.334 -89.834 -140.001 -108.501l16 -25c16.2988 -24.4482 39.9658 -37.4482 71 -39c28.4238 0 60.7568 7.66699 96.999 23v-122zM467.501 495.5
c-31 40.333 -72.833 60.5 -125.5 60.5s-94.667 -20.167 -126 -60.5s-47 -97.666 -47 -171.999s15.667 -131.333 47 -171s73.333 -59.5 126 -59.5s94.5 19.833 125.5 59.5s46.5 96.667 46.5 171s-15.5 131.666 -46.5 171.999z" />
    <glyph glyph-name="R" unicode="R" horiz-adv-x="644" 
d="M575 450c0 -46 -13 -85.332 -39 -117.999s-63.333 -55.334 -112 -68.001l174 -264h-154l-143 253h-90v-253h-118v649h240c76.8301 0 136.497 -18.167 179 -54.5c42 -35.9033 63 -84.0703 63 -144.5zM322 332.001c43.333 0 76 9.83301 98 29.5s33 45.667 33 78
s-10 58.333 -30 78s-50 29.5 -90 29.5h-122v-215h111z" />
    <glyph glyph-name="S" unicode="S" horiz-adv-x="638" 
d="M434 470c-10.4385 56.667 -50.4375 85.001 -119.999 85.001c-34 0 -60.5 -6.83301 -79.5 -20.5s-28.5 -30.167 -28.5 -49.5s6.16699 -34.5 18.5 -45.5s31.5 -21.167 57.5 -30.5l141 -55c48 -18.667 85 -42.167 111 -70.5s39 -63.833 39 -106.5
c0 -58.667 -22 -105.167 -66 -139.5s-106.667 -51.5 -188 -51.5c-71.8516 0 -130.352 17.667 -175.5 53c-49.8213 38.9902 -75.9883 93.6572 -78.501 164h117c0 -53.2803 27.667 -87.1133 83 -101.5c16.667 -4.33301 38.667 -6.5 66 -6.5s52.666 6.83301 75.999 20.5
s35 32 35 55s-6.33301 40.667 -19 53s-33.334 23.833 -62.001 34.5l-129 51c-50 19.333 -88.333 42 -115 68s-40 62 -40 108c0 53.9121 20.833 96.5791 62.5 128c43.3193 32.667 101.399 49 174.24 49s129.095 -16.833 168.762 -50.5s62.5 -80.834 68.5 -141.501h-117z" />
    <glyph glyph-name="T" unicode="T" horiz-adv-x="532" 
d="M6 649h520v-102h-201v-547h-118v547h-201v102z" />
    <glyph glyph-name="U" unicode="U" horiz-adv-x="690" 
d="M201 649v-404c0 -53.333 13.5 -91.666 40.5 -114.999s61.833 -35 104.5 -35s77.5 11.667 104.5 35s40.5 61.666 40.5 114.999v404h118v-404c0 -82.667 -23 -146.5 -69 -191.5s-110.667 -67.5 -194 -67.5s-148 22.5 -194 67.5s-69 108.833 -69 191.5v404h118z" />
    <glyph glyph-name="V" unicode="V" horiz-adv-x="607" 
d="M145 649l158 -501l160 501h124l-223 -649h-124l-220 649h125z" />
    <glyph glyph-name="W" unicode="W" horiz-adv-x="966" 
d="M152 649l143 -493l139 450h80l147 -452l152 495h133l-223 -649h-124l-122 366l-121 -366h-124l-212 649h132z" />
    <glyph glyph-name="X" unicode="X" horiz-adv-x="684" 
d="M649 0h-148l-171 230l-152 -230h-144l229 323l-230 326h145l164 -234l142 234h143l-219 -324z" />
    <glyph glyph-name="Y" unicode="Y" horiz-adv-x="604" 
d="M156 649l143 -259l150 259h139l-231 -381v-268h-118v268l-223 381h140z" />
    <glyph glyph-name="Z" unicode="Z" horiz-adv-x="629" 
d="M73 102l343 438l-343 1v108h491v-101l-342 -439l342 -1v-108h-491v102z" />
    <glyph glyph-name="bracketleft" unicode="[" horiz-adv-x="352" 
d="M93 790h247v-106h-129v-718h129v-107h-247v931z" />
    <glyph glyph-name="backslash" unicode="\" horiz-adv-x="472" 
d="M41 746h120l258 -826h-121z" />
    <glyph glyph-name="bracketright" unicode="]" horiz-adv-x="336" 
d="M243 -141h-247v107h129v718h-129v106h247v-931z" />
    <glyph glyph-name="asciicircum" unicode="^" horiz-adv-x="527" 
d="M20 218l198 385h96l197 -385h-130l-115 246l-116 -246h-130z" />
    <glyph glyph-name="underscore" unicode="_" horiz-adv-x="768" 
d="M55 -55h659v-103h-659v103z" />
    <glyph glyph-name="grave" unicode="`" horiz-adv-x="356" 
d="M66 900l267 -132l-30 -74l-279 104z" />
    <glyph glyph-name="a" unicode="a" horiz-adv-x="584" 
d="M253 284c38.667 0 83.333 -6.33398 134 -19.001v48c0 34 -6.83301 59.167 -20.5 75.5s-36 24.5 -67 24.5s-54.833 -6.16699 -71.5 -18.5s-25 -29.833 -25 -52.5h-129c0 55.333 19.5 95.333 58.5 120s93.5 37 163.5 37c100.167 0 164.834 -35 194.001 -105
c10 -24 15 -52.333 15 -85v-309h-103l-9 65c-31.5996 -52.667 -79.5996 -79 -144 -79c-62.7285 0 -111.396 15.5 -146 46.5c-32 28.667 -48 65.584 -48 110.751s17.667 79.917 53 104.25s83.666 36.5 144.999 36.5zM386.999 189.999
c-39.6191 10.667 -76.2861 15.999 -110 15.999c-64 0 -96 -21.333 -96 -64c0 -18 7.33301 -33.5 22 -46.5s38.167 -19.5 70.5 -19.5s59 10.833 80 32.5s32.167 48.834 33.5 81.501z" />
    <glyph glyph-name="b" unicode="b" horiz-adv-x="614" 
d="M563 245c0 -76.2227 -21.667 -138.888 -65 -187.999c-41.7646 -47.333 -94.0977 -71 -157 -71c-30 0 -57.5 8 -82.5 24s-44.833 40.667 -59.5 74l-29 -84h-77v686h118v-261c30.667 49.333 76.5605 74 137.682 74s112.121 -23.2588 153 -69.7764
s61.3184 -107.926 61.3184 -184.225zM211 273.002l-0.00390625 -64c1.29688 -33.7061 13.4639 -61.7061 36.501 -84c22.0449 -21.333 48.9727 -32 80.7842 -32s59.0508 13.833 81.7178 41.5s34 64.167 34 109.5s-11.167 81.5 -33.5 108.5s-50.166 40.5 -83.499 40.5
s-61 -11 -83 -33s-33 -51 -33 -87z" />
    <glyph glyph-name="c" unicode="c" horiz-adv-x="530" 
d="M277.5 499c31 0 58.667 -5.16895 83 -15.502s45 -23.833 62 -40.5c32.9551 -32.3096 52.4551 -72.6426 58.5 -121l-119 -3c-5.33301 21.333 -15.166 39 -29.499 53s-30.833 21 -49.5 21s-34.667 -2.83301 -48 -8.5s-25 -14.667 -35 -27
c-22.667 -27.9551 -34 -66.5273 -34 -115.716s10.667 -86.2832 32 -111.283s47.166 -37.5 77.499 -37.5s52.333 7.16699 66 21.5s20.5 33.833 20.5 58.5h119c0 -53.333 -17.5 -97.5 -52.5 -132.5c-36.333 -36.333 -86.833 -54.5 -151.5 -54.5
c-63.7646 0 -117.265 23.333 -160.5 70c-46.333 50.0107 -69.5 112.344 -69.5 187c0 78.5293 23.167 141.696 69.5 189.501c42.9688 44.333 96.6357 66.5 161 66.5z" />
    <glyph glyph-name="d" unicode="d" horiz-adv-x="614" 
d="M410 75c-30.3262 -59.333 -76.3271 -89.001 -138.001 -89.001c-62.2354 0 -114.235 23.667 -156 71c-43.333 49.1113 -65 111.778 -65 188.001c0 76.2988 20.667 137.966 62 185c40.4238 46 91.0303 69 151.818 69s106.516 -24.333 137.183 -73v260h119v-686h-97z
M203.499 352.499c-22.333 -27 -33.502 -63.166 -33.502 -108.499s11.333 -81.833 34 -109.5s51.334 -41.5 86.001 -41.5c28.667 0 54.334 11.333 77.001 34c23.333 23.333 35 52.666 35 87.999v63c-1.28223 34.6152 -12.9492 62.9482 -35.001 85c-20 20 -46.667 30 -80 30
s-61.166 -13.5 -83.499 -40.5z" />
    <glyph glyph-name="e" unicode="e" horiz-adv-x="530" 
d="M469.5 354c8.33301 -28 12.499 -53.668 12.499 -77.001s-1.33301 -44.333 -4 -63h-314c1.33301 -39.333 11 -71.333 29 -96s45.333 -37 82 -37c48.667 0 77.667 21.333 87 64h119c-8.29297 -48.376 -30.626 -86.709 -67 -115c-37.7139 -29.333 -84.0469 -44 -138.999 -44
c-63.8408 0 -117.508 23.5 -161 70.5c-44.667 48.2686 -67 110.436 -67 186.5c0 77.7852 22.333 140.452 67 188.001c42.5859 45.333 96.2529 68 161 68c67.4561 0 119.623 -23.5 156.5 -70.5c17 -21.667 29.667 -46.5 38 -74.5zM275.999 404.999
c-33.333 0 -59.333 -10.833 -78 -32.5s-29.667 -49.5 -33 -83.5h207c0 52.4688 -16.833 87.8018 -50.5 106c-12.333 6.66699 -27.5 10 -45.5 10z" />
    <glyph glyph-name="f" unicode="f" horiz-adv-x="366" 
d="M40 486h72v57c0 50.2275 14.833 88.7275 44.5 115.5c26.2256 23.667 60.7256 35.5 103.5 35.5c27.333 0 61 -4 101 -12l-23 -91c-18.667 6.66699 -35.5 10 -50.5 10s-28.167 -4.16699 -39.5 -12.5s-17 -23.833 -17 -46.5v-56h89v-79h-89v-407h-119v407h-72v79z" />
    <glyph glyph-name="g" unicode="g" horiz-adv-x="582" 
d="M135 199c-39.333 33.5059 -58.999 75.1699 -58.999 124.997c0 52.6318 20.5 95.1318 61.5 127.5c40.1113 31.667 86.0557 47.5 137.833 47.5s95 -9.66699 129.667 -29c3.92676 37.9561 20.2598 68.7891 49 92.5c27.8789 23 60.8789 34.5 99 34.5l-6 -113
c-57.333 0 -87 -19 -89 -57c24.667 -30.4707 37 -61.7549 37 -93.8525s-5.66699 -58.9805 -17 -80.6475s-26.5 -40 -45.5 -55c-40.1113 -31.667 -88.9443 -47.5 -146.5 -47.5c-32.667 0 -62.334 5 -89.001 15c-26.667 -7.84277 -40 -23.8428 -40 -48
c0 -30 25.333 -45 76 -45h163c110.667 0 166 -38.667 166 -116c0 -26 -6.5 -51.5 -19.5 -76.5s-31.833 -47.167 -56.5 -66.5c-54.4365 -42.667 -123.104 -64 -206 -64c-80.1338 0 -145.134 16.5 -195 49.5c-46.667 30.8828 -70 69.0498 -70 114.501
c0 30 9.16699 53.833 27.5 71.5s42.5 28.834 72.5 33.501c-39.333 23.8809 -59 53.5479 -59 89c0 23.333 7.33301 42.833 22 58.5s33.667 26.834 57 33.501zM225.001 -11.0029c-62.667 -2.78516 -93.999 -26.6182 -93.999 -71.5c0 -22.333 13.167 -40.333 39.5 -54
s57.5 -20.5 93.5 -20.5s64.167 3 84.5 9s37.666 13.833 51.999 23.5c29.667 20.0078 44.5 44.1748 44.5 72.5c0 12 -4.16699 21.833 -12.5 29.5s-20.5 11.5 -36.5 11.5h-171zM355.502 391.497c-15 17 -37.833 25.5 -68.5 25.5s-54 -8.5 -70 -25.5s-24 -39 -24 -66
s8 -49.167 24 -66.5s39.333 -26 70 -26s53.5 8.66699 68.5 26s22.5 39.5 22.5 66.5s-7.5 49 -22.5 66z" />
    <glyph glyph-name="h" unicode="h" horiz-adv-x="623" 
d="M211 407c33.333 61.333 81.9971 92 145.997 92s111.167 -19.667 141.5 -59s45.5 -91.333 45.5 -156v-284h-118v284c0 36 -8.66699 63.167 -26 81.5s-41.666 27.5 -72.999 27.5s-58.166 -14 -80.499 -42s-34.166 -70 -35.499 -126v-225h-118v686h118v-279z" />
    <glyph glyph-name="i" unicode="i" horiz-adv-x="328" 
d="M103 487h118v-487h-118v487zM89 643c0 21.333 6.33301 38.166 19 50.499s30.5 18.5 53.5 18.5s41 -6.16699 54 -18.5s19.5 -29.166 19.5 -50.499s-6.5 -38.166 -19.5 -50.499s-31 -18.5 -54 -18.5s-40.833 6.16699 -53.5 18.5s-19 29.166 -19 50.499z" />
    <glyph glyph-name="j" unicode="j" horiz-adv-x="335" 
d="M95 643c0 21.333 6.5 38.166 19.5 50.499s31 18.5 54 18.5s40.833 -6.16699 53.5 -18.5s19 -29.166 19 -50.499s-6.33301 -38.166 -19 -50.499s-30.5 -18.5 -53.5 -18.5s-41 6.16699 -54 18.5s-19.5 29.166 -19.5 50.499zM-74 -118c40 -20 74.332 -30 102.999 -30
s49.334 6.83301 62.001 20.5s19 37.5 19 71.5v544h118v-546c0 -69.333 -14.5 -118.833 -43.5 -148.5s-66.75 -44.5 -113.25 -44.5s-95.583 10.333 -147.25 31z" />
    <glyph glyph-name="k" unicode="k" horiz-adv-x="575" 
d="M265 237l-54 -45v-192h-118v686h118v-371l192 171h160l-215 -180l227 -306h-144z" />
    <glyph glyph-name="l" unicode="l" 
d="M93 686h118v-686h-118v686z" />
    <glyph glyph-name="m" unicode="m" horiz-adv-x="949" 
d="M525 394c31.25 70 86.2461 105 164.996 105c57.6904 0 102.69 -19.667 135 -59c30.667 -37.333 46 -89.333 46 -156v-284h-119v284c0 36 -8.66699 63.167 -26 81.5s-41.666 27.5 -72.999 27.5s-57 -13.667 -77 -41s-30.667 -68.666 -32 -123.999v-228h-118v284
c0 36 -8.66699 63.167 -26 81.5s-41.666 27.5 -72.999 27.5s-58.166 -14 -80.499 -42s-34.166 -70 -35.499 -126v-225h-118v486h103l13 -84c31.6738 64.667 83.0068 97 154 97c40.667 0 74.5 -9.33301 101.5 -28s47.167 -44.334 60.5 -77.001z" />
    <glyph glyph-name="n" unicode="n" horiz-adv-x="623" 
d="M209 402c31.6738 64.667 83.0039 97 153.997 97c60 0 105.167 -19.667 135.5 -59s45.5 -91.333 45.5 -156v-284h-118v284c0 36 -8.66699 63.167 -26 81.5s-41.666 27.5 -72.999 27.5s-58.166 -14 -80.499 -42s-34.166 -70 -35.499 -126v-225h-118v486h103z" />
    <glyph glyph-name="o" unicode="o" horiz-adv-x="566" 
d="M283.5 499c33 0 63.833 -5.16797 92.5 -15.501s53.5 -26.166 74.5 -47.499c45.667 -46.3916 68.5 -111.059 68.5 -194c0 -81.6084 -22.833 -145.608 -68.5 -192c-42 -42.667 -97.5 -64 -166.5 -64c-69.333 0 -125.333 21.333 -168 64c-46 46 -69 110 -69 192
c0 83.333 23 148 69 194c42 42 97.833 63 167.5 63zM371 358.499c-20 25.667 -47.8311 38.5 -83.498 38.5s-64.834 -12.833 -87.501 -38.5s-34 -64.167 -34 -115.5s10.167 -89.833 30.5 -115.5s48.166 -38.5 83.499 -38.5s64.333 12.833 87 38.5s34 64.167 34 115.5
s-10 89.833 -30 115.5z" />
    <glyph glyph-name="p" unicode="p" horiz-adv-x="610" 
d="M201 420c30.8291 52.667 77.4961 79 140 79c60.0811 0 111.414 -22.667 154 -68c45.333 -48.2578 68 -110.925 68 -188c0 -78.1592 -22.833 -141.159 -68.5 -189c-43.2725 -45.333 -94.5068 -68 -153.704 -68s-102.463 17.667 -129.796 53v-276h-118v723h97zM319.5 93
c14.333 0 28.999 2.99902 43.999 8.99902s28.5 15.333 40.5 28c26.667 28.1484 40 65.6855 40 112.611s-11.5 83.7217 -34.5 110.389s-51 40 -84 40s-60 -9.5 -81 -28.5s-32.167 -46.167 -33.5 -81.5v-87c0 -31.5996 11 -56.9326 33 -75.999
c20.7695 -18 45.9365 -27 75.501 -27z" />
    <glyph glyph-name="q" unicode="q" horiz-adv-x="610" 
d="M398 63c-24.2412 -51.333 -65.5771 -76.999 -124.003 -76.999c-62.3936 0 -115.227 22.667 -158.499 68c-45.667 47.8408 -68.5 110.841 -68.5 189c0 76.6445 22.5 139.312 67.5 188c41.8994 45.333 93.0664 68 153.501 68c30 0 57.833 -7.16699 83.5 -21.5
s46.5 -36.5 62.5 -66.5l26 75h77v-561c0 -28.667 3.5 -47.667 10.5 -57s14.833 -16.166 23.5 -20.499s19.334 -8.5 32.001 -12.5l-34 -86c-54.667 13.333 -93.5 34.666 -116.5 63.999s-34.5 69.666 -34.5 120.999v129zM365.997 363.001
c-21.333 20 -48.5 30.002 -81.5 30.002s-61 -13.333 -84 -40s-34.5 -63.334 -34.5 -110.001c0 -47.1855 13.333 -84.8525 40 -113.001c23.3682 -24.667 51.7012 -37 84.999 -37c27.5996 0 51.5996 8.5 72 25.5c22.0303 18.3584 33.6973 42.5254 35.001 72.5v87
c0 36.667 -10.667 65 -32 85z" />
    <glyph glyph-name="r" unicode="r" horiz-adv-x="416" 
d="M211 390c29.0566 70 73.0566 105 132 105c11.5557 0 25.8887 -2.33301 43 -7l-2 -118c-18.667 4 -37 6 -55 6c-78.667 0 -118 -54.333 -118 -163v-213h-118v487h118v-97z" />
    <glyph glyph-name="s" unicode="s" horiz-adv-x="527" 
d="M159 148c1.27734 -46 34.9453 -69.002 101.001 -69.002c25.333 0 46.166 5.5 62.499 16.5s24.5 23.833 24.5 38.5s-5 26 -15 34s-25.667 15.333 -47 22l-106 38c-78.667 27.6025 -118 72.2695 -118 134.001c0 41.333 18.5 74.5 55.5 99.5s86.667 37.5 149 37.5
s110.333 -13.667 144 -41s51.167 -61.666 52.5 -102.999h-111c-1.33301 16 -9 28.667 -23 38s-34 14 -60 14s-46.167 -5.16699 -60.5 -15.5s-21.5 -22.166 -21.5 -35.499c0 -23.333 19.667 -40.666 59 -51.999l115 -43c38 -12.667 67.167 -28.834 87.5 -48.501
s30.5 -45.167 30.5 -76.5c0 -39.7773 -19 -74.4443 -57 -104c-39.4287 -30.667 -91.4521 -46 -156.071 -46s-116.596 14.167 -155.929 42.5s-59.333 68.166 -60 119.499h110z" />
    <glyph glyph-name="t" unicode="t" horiz-adv-x="395" 
d="M367 12c-44.1211 -17.333 -78.8184 -26 -104.091 -26s-47.4092 3 -66.4092 9s-35.667 15.167 -50 27.5c-31 26.6748 -46.5 64.1748 -46.5 112.5v272h-68v79h68v128h118v-128h132v-79h-132v-268c0 -40 19 -60 57 -60c19.333 0 44.333 5.33301 75 16z" />
    <glyph glyph-name="u" unicode="u" horiz-adv-x="627" 
d="M416 88c-30.3535 -64.667 -79.6846 -97 -147.997 -97c-86.3008 0 -143.134 33.5 -170.5 100.5c-9.66699 23.667 -14.5 52.167 -14.5 85.5v310h118v-298c0 -32 7.66699 -55.833 23 -71.5s34.166 -23.5 56.499 -23.5s41.166 3.16699 56.499 9.5s28.666 16 39.999 29
c24.7383 28.376 37.7383 66.543 39 114.5v240h118v-487h-118v88z" />
    <glyph glyph-name="v" unicode="v" horiz-adv-x="519" 
d="M148 486l111 -369l112 369h136l-181 -486h-133l-181 486h136z" />
    <glyph glyph-name="w" unicode="w" horiz-adv-x="758" 
d="M136 486l98 -347l93 320h107l93 -321l99 348h118l-160 -486h-116l-90 291l-88 -291h-117l-161 486h124z" />
    <glyph glyph-name="x" unicode="x" horiz-adv-x="554" 
d="M537 0h-144l-120 156l-112 -156h-145l189 242l-189 245h145l119 -156l113 156h144l-188 -245z" />
    <glyph glyph-name="y" unicode="y" horiz-adv-x="504" 
d="M153 486l117 -350l102 350h120l-186 -574c-19.333 -58 -42.833 -99.667 -70.5 -125s-63 -38 -106 -38s-86.167 10.667 -129.5 32v104c34.667 -22 69.667 -33 105 -33c23.333 0 42.5 9.33301 57.5 28s27.167 43 36.5 73l15 47l-195 486h134z" />
    <glyph glyph-name="z" unicode="z" horiz-adv-x="495" 
d="M57 96l252 294h-252v96h382v-96l-244 -294h244v-96h-382v96z" />
    <glyph glyph-name="braceleft" unicode="{" horiz-adv-x="391" 
d="M387 -156c-87.4727 0 -153.306 23.5 -197.5 70.5c-40.333 42.8945 -60.5 103.395 -60.5 181.5v91c0 28 -2.16699 47.167 -6.5 57.5s-13.166 15.5 -26.499 15.5h-25v119h25c13.333 0 22.166 5.16699 26.499 15.5s6.5 29.5 6.5 57.5v92c0 119.51 47 197.01 141 232.5
c32.667 12.333 71.667 18.5 117 18.5v-107c-49.333 0 -85.166 -11.833 -107.499 -35.5s-33.5 -60.5 -33.5 -110.5v-96c0 -32 -6.16699 -58.333 -18.5 -79s-28.166 -35.667 -47.499 -45v-5c19.333 -9.33301 35.166 -24.333 47.499 -45s18.5 -47 18.5 -79v-96
c0 -50 11.167 -86.833 33.5 -110.5s58.166 -35.5 107.499 -35.5v-107z" />
    <glyph glyph-name="bar" unicode="|" 
d="M93 771h118v-893h-118v893z" />
    <glyph glyph-name="braceright" unicode="}" horiz-adv-x="391" 
d="M4 -49c49.333 0 85.166 11.834 107.499 35.501s33.5 60.5 33.5 110.5v96c0 32 6.16699 58.333 18.5 79s28.166 35.667 47.499 45v5c-19.333 9.33301 -35.166 24.333 -47.499 45s-18.5 47 -18.5 79v96c0 50 -11.167 86.833 -33.5 110.5s-58.166 35.5 -107.499 35.5v107
c87.4727 0 153.306 -23.5 197.5 -70.5c40.333 -42.8945 60.5 -103.062 60.5 -180.501v-92c0 -28 2.16699 -47.167 6.5 -57.5s13.166 -15.5 26.499 -15.5h25v-119h-25c-13.333 0 -22.166 -5.16699 -26.499 -15.5s-6.5 -29.5 -6.5 -57.5v-91
c0 -120.177 -47 -198.01 -141 -233.5c-32.667 -12.333 -71.667 -18.5 -117 -18.5v107z" />
    <glyph glyph-name="asciitilde" unicode="~" horiz-adv-x="570" 
d="M184 265c-25.4141 0 -46.7461 -20.333 -63.999 -61l-63 34c11.333 43.333 27.166 77.5 47.499 102.5s47.166 37.5 80.499 37.5c22.667 0 52.334 -7 89.001 -21c57.6191 -22 94.2861 -33 110 -33c27.333 0 49 18.667 65 56l64 -41c-26.458 -84.667 -72.458 -127 -138 -127
c-21.9551 0 -55.9551 9.33301 -102 28c-24.667 8.66699 -43.167 15 -55.5 19s-23.5 6 -33.5 6z" />
    <glyph glyph-name="sterling" unicode="&#xa3;" horiz-adv-x="602" 
d="M22 107l32.002 0.000976562c24.667 0 42 7 52 21s15 36 15 66v87h-83v79h83v84c0 72 18.667 126.333 56 163s86.666 55 147.999 55c112 0 176 -58.333 192 -175h-116c-3.33301 22 -11.666 38.833 -24.999 50.5s-31.5 17.5 -54.5 17.5s-42.5 -9 -58.5 -27s-24 -46 -24 -84
v-84h171v-79h-171v-79c0 -43.333 -12 -75 -36 -95h136c33.333 0 57.166 6.16699 71.499 18.5s23.166 31.833 26.499 58.5h129c-2.79199 -61.4307 -20.792 -106.598 -54 -135.501c-37.1494 -32.333 -94.4824 -48.5 -172 -48.5h-318v107z" />
    <glyph glyph-name="dieresis" unicode="&#xa8;" horiz-adv-x="382" 
d="M43.5 788.5c-13 12.333 -19.5 28 -19.5 47s6.5 34.833 19.5 47.5s29.833 19 50.5 19s37.667 -6.33301 51 -19s20 -28.5 20 -47.5s-6.66699 -34.667 -20 -47s-30.333 -18.5 -51 -18.5s-37.5 6.16699 -50.5 18.5zM217 836c0 19.333 6.66699 35.333 20 48
s30.166 19 50.499 19s37.166 -6.33301 50.499 -19s20 -28.667 20 -48s-6.66699 -35 -20 -47s-30.166 -18 -50.499 -18s-37.166 6 -50.499 18s-20 27.667 -20 47z" />
    <glyph glyph-name="acute" unicode="&#xb4;" horiz-adv-x="356" 
d="M332 798l-279 -104l-30 74l267 132z" />
    <glyph glyph-name="Agrave" unicode="&#xc0;" horiz-adv-x="626" 
d="M243 649h148l213 -649h-125l-45 140h-241l-46 -140h-125zM205 900l267 -132l-30 -74l-279 104zM223 229h182l-90 279z" />
    <glyph glyph-name="Aacute" unicode="&#xc1;" horiz-adv-x="626" 
d="M243 649h148l213 -649h-125l-45 140h-241l-46 -140h-125zM471 798l-279 -104l-30 74l267 132zM223 229h182l-90 279z" />
    <glyph glyph-name="Acircumflex" unicode="&#xc2;" horiz-adv-x="626" 
d="M243 649h148l213 -649h-125l-45 140h-241l-46 -140h-125zM524 752l-75 -59l-133 101l-134 -101l-75 59l209 161zM223 229h182l-90 279z" />
    <glyph glyph-name="Atilde" unicode="&#xc3;" horiz-adv-x="626" 
d="M243 649h148l213 -649h-125l-45 140h-241l-46 -140h-125zM386 838c21.5127 0 39.1807 16.333 53.001 49l50 -33c-7.33301 -36 -20.5 -65.5 -39.5 -88.5s-39.167 -34.5 -60.5 -34.5c-12 0 -23.833 2.33301 -35.5 7s-26.334 11.5 -44.001 20.5
c-29.4443 15 -49.5557 22.5 -60.333 22.5c-23.3525 0 -43.0752 -16.667 -59.167 -50l-47 28c8 40.667 21.5 72.167 40.5 94.5s41.167 33.5 66.5 33.5c17.8096 0 38.7617 -6.16699 62.8574 -18.5s40.3096 -20.5 48.6426 -24.5s16.5 -6 24.5 -6zM223.001 229h182l-90 279z" />
    <glyph glyph-name="Adieresis" unicode="&#xc4;" horiz-adv-x="626" 
d="M243 649h148l213 -649h-125l-45 140h-241l-46 -140h-125zM223 229h182l-90 279zM168.5 767.5c-13 12.333 -19.5 28 -19.5 47s6.5 34.833 19.5 47.5s29.833 19 50.5 19s37.667 -6.33301 51 -19s20 -28.5 20 -47.5s-6.66699 -34.667 -20 -47s-30.333 -18.5 -51 -18.5
s-37.5 6.16699 -50.5 18.5zM342 815c0 19.333 6.66699 35.333 20 48s30.166 19 50.499 19s37.166 -6.33301 50.499 -19s20 -28.667 20 -48s-6.66699 -35 -20 -47s-30.166 -18 -50.499 -18s-37.166 6 -50.499 18s-20 27.667 -20 47z" />
    <glyph glyph-name="Egrave" unicode="&#xc8;" horiz-adv-x="588" 
d="M92 649h418v-102h-300v-171h281v-102h-281v-171h300v-103h-418v649zM190 900l267 -132l-30 -74l-279 104z" />
    <glyph glyph-name="Eacute" unicode="&#xc9;" horiz-adv-x="588" 
d="M92 0h418v103h-300v171h281v102h-281v171h300v102h-418v-649zM456 798l-279 -104l-30 74l267 132z" />
    <glyph glyph-name="Ecircumflex" unicode="&#xca;" horiz-adv-x="588" 
d="M102 649h418v-102h-300v-171h281v-102h-281v-171h300v-103h-418v649zM520 752l-75 -59l-133 101l-134 -101l-75 59l209 161z" />
    <glyph glyph-name="Edieresis" unicode="&#xcb;" horiz-adv-x="588" 
d="M92 649h418v-102h-300v-171h281v-102h-281v-171h300v-103h-418v649zM154.5 767.5c-13 12.333 -19.5 28 -19.5 47s6.5 34.833 19.5 47.5s29.833 19 50.5 19s37.667 -6.33301 51 -19s20 -28.5 20 -47.5s-6.66699 -34.667 -20 -47s-30.333 -18.5 -51 -18.5
s-37.5 6.16699 -50.5 18.5zM328 815c0 19.333 6.66699 35.333 20 48s30.166 19 50.499 19s37.166 -6.33301 50.499 -19s20 -28.667 20 -48s-6.66699 -35 -20 -47s-30.166 -18 -50.499 -18s-37.166 6 -50.499 18s-20 27.667 -20 47z" />
    <glyph glyph-name="Igrave" unicode="&#xcc;" 
d="M93 649h118v-649h-118v649zM41 900l267 -132l-30 -74l-279 104z" />
    <glyph glyph-name="Iacute" unicode="&#xcd;" 
d="M93 0h118v649h-118v-649zM307 798l-279 -104l-30 74l267 132z" />
    <glyph glyph-name="Icircumflex" unicode="&#xce;" 
d="M93 649h118v-649h-118v649zM361 752l-75 -59l-133 101l-134 -101l-75 59l209 161z" />
    <glyph glyph-name="Idieresis" unicode="&#xcf;" 
d="M93 649h118v-649h-118v649zM5.5 767.5c-13 12.333 -19.5 28 -19.5 47s6.5 34.833 19.5 47.5s29.833 19 50.5 19s37.667 -6.33301 51 -19s20 -28.5 20 -47.5s-6.66699 -34.667 -20 -47s-30.333 -18.5 -51 -18.5s-37.5 6.16699 -50.5 18.5zM179 815
c0 19.333 6.66699 35.333 20 48s30.166 19 50.499 19s37.166 -6.33301 50.499 -19s20 -28.667 20 -48s-6.66699 -35 -20 -47s-30.166 -18 -50.499 -18s-37.166 6 -50.499 18s-20 27.667 -20 47z" />
    <glyph glyph-name="Ntilde" unicode="&#xd1;" horiz-adv-x="720" 
d="M91 649v-649h118v476l295 -476h120v649h-118v-460l-286 460h-129zM429 838c21.5127 0 39.1807 16.333 53.001 49l50 -33c-7.33301 -36 -20.5 -65.5 -39.5 -88.5s-39.167 -34.5 -60.5 -34.5c-12 0 -23.833 2.33301 -35.5 7s-26.334 11.5 -44.001 20.5
c-29.4443 15 -49.5557 22.5 -60.333 22.5c-23.3525 0 -43.0752 -16.667 -59.167 -50l-47 28c8 40.667 21.5 72.167 40.5 94.5s41.167 33.5 66.5 33.5c17.8096 0 38.7617 -6.16699 62.8574 -18.5s40.3096 -20.5 48.6426 -24.5s16.5 -6 24.5 -6z" />
    <glyph glyph-name="Ograve" unicode="&#xd2;" horiz-adv-x="683" 
d="M341.5 662c43.667 0 83.5 -7.16895 119.5 -21.502s67 -35.5 93 -63.5c54.667 -58.8721 82 -142.872 82 -252c0 -110.094 -27.333 -194.927 -82 -254.499c-51.6943 -56.333 -122.694 -84.5 -213 -84.5c-89.0273 0 -159.694 28.5 -212 85.5
c-54.667 59.5723 -82 144.072 -82 253.5c0 110.462 27.333 195.129 82 254.001c51.3809 55.333 122.214 83 212.5 83zM467.5 495.498c-31 40.333 -72.833 60.5 -125.5 60.5s-94.667 -20.167 -126 -60.5s-47 -97.666 -47 -171.999s15.667 -131.333 47 -171
s73.333 -59.5 126 -59.5s94.5 19.833 125.5 59.5s46.5 96.667 46.5 171s-15.5 131.666 -46.5 171.999zM228 899.998l267 -132l-30 -74l-279 104z" />
    <glyph glyph-name="Oacute" unicode="&#xd3;" horiz-adv-x="683" 
d="M341.5 662c-43.667 0 -83.5 -6.83105 -119.5 -20.498s-67 -34.5 -93 -62.5c-54.667 -58.8721 -82 -143.539 -82 -254.001c0 -109.428 27.333 -193.928 82 -253.5c52.3057 -57 122.973 -85.5 212 -85.5c90.3057 0 161.306 28.167 213 84.5
c54.667 59.5723 82 144.405 82 254.499c0 109.128 -27.333 193.128 -82 252c-52.6191 56.667 -123.452 85 -212.5 85zM216 495.502c31.333 40.333 73.333 60.5 126 60.5s94.5 -20.167 125.5 -60.5s46.5 -97.666 46.5 -171.999s-15.5 -131.333 -46.5 -171
s-72.833 -59.5 -125.5 -59.5s-94.667 19.833 -126 59.5s-47 96.667 -47 171s15.667 131.666 47 171.999zM494 798.002l-279 -104l-30 74l267 132z" />
    <glyph glyph-name="Ocircumflex" unicode="&#xd4;" horiz-adv-x="683" 
d="M341.5 662c43.667 0 83.5 -7.16895 119.5 -21.502s67 -35.5 93 -63.5c54.667 -58.8721 82 -142.872 82 -252c0 -110.094 -27.333 -194.927 -82 -254.499c-51.6943 -56.333 -122.694 -84.5 -213 -84.5c-89.0273 0 -159.694 28.5 -212 85.5
c-54.667 59.5723 -82 144.072 -82 253.5c0 110.462 27.333 195.129 82 254.001c51.3809 55.333 122.214 83 212.5 83zM467.5 495.498c-31 40.333 -72.833 60.5 -125.5 60.5s-94.667 -20.167 -126 -60.5s-47 -97.666 -47 -171.999s15.667 -131.333 47 -171
s73.333 -59.5 126 -59.5s94.5 19.833 125.5 59.5s46.5 96.667 46.5 171s-15.5 131.666 -46.5 171.999zM549 751.998l-75 -59l-133 101l-134 -101l-75 59l209 161z" />
    <glyph glyph-name="Otilde" unicode="&#xd5;" horiz-adv-x="683" 
d="M341.5 662c-43.667 0 -83.5 -6.83105 -119.5 -20.498s-67 -34.5 -93 -62.5c-54.667 -58.8721 -82 -143.539 -82 -254.001c0 -109.428 27.333 -193.928 82 -253.5c52.3057 -57 122.973 -85.5 212 -85.5c90.3057 0 161.306 28.167 213 84.5
c54.667 59.5723 82 144.405 82 254.499c0 109.128 -27.333 193.128 -82 252c-52.6191 56.667 -123.452 85 -212.5 85zM216 495.502c31.333 40.333 73.333 60.5 126 60.5s94.5 -20.167 125.5 -60.5s46.5 -97.666 46.5 -171.999s-15.5 -131.333 -46.5 -171
s-72.833 -59.5 -125.5 -59.5s-94.667 19.833 -126 59.5s-47 96.667 -47 171s15.667 131.666 47 171.999zM411 838.002c21.5127 0 39.1807 16.333 53.001 49l50 -33c-7.33301 -36 -20.5 -65.5 -39.5 -88.5s-39.167 -34.5 -60.5 -34.5c-12 0 -23.833 2.33301 -35.5 7
s-26.334 11.5 -44.001 20.5c-29.4443 15 -49.5557 22.5 -60.333 22.5c-23.3525 0 -43.0752 -16.667 -59.167 -50l-47 28c8 40.667 21.5 72.167 40.5 94.5s41.167 33.5 66.5 33.5c17.8096 0 38.7617 -6.16699 62.8574 -18.5s40.3096 -20.5 48.6426 -24.5s16.5 -6 24.5 -6z
" />
    <glyph glyph-name="Odieresis" unicode="&#xd6;" horiz-adv-x="683" 
d="M341.5 662c43.667 0 83.5 -7.16895 119.5 -21.502s67 -35.5 93 -63.5c54.667 -58.8721 82 -142.872 82 -252c0 -110.094 -27.333 -194.927 -82 -254.499c-51.6943 -56.333 -122.694 -84.5 -213 -84.5c-89.0273 0 -159.694 28.5 -212 85.5
c-54.667 59.5723 -82 144.072 -82 253.5c0 110.462 27.333 195.129 82 254.001c51.3809 55.333 122.214 83 212.5 83zM467.5 495.498c-31 40.333 -72.833 60.5 -125.5 60.5s-94.667 -20.167 -126 -60.5s-47 -97.666 -47 -171.999s15.667 -131.333 47 -171
s73.333 -59.5 126 -59.5s94.5 19.833 125.5 59.5s46.5 96.667 46.5 171s-15.5 131.666 -46.5 171.999zM193.5 767.498c-13 12.333 -19.5 28 -19.5 47s6.5 34.833 19.5 47.5s29.833 19 50.5 19s37.667 -6.33301 51 -19s20 -28.5 20 -47.5s-6.66699 -34.667 -20 -47
s-30.333 -18.5 -51 -18.5s-37.5 6.16699 -50.5 18.5zM367 814.998c0 19.333 6.66699 35.333 20 48s30.166 19 50.499 19s37.166 -6.33301 50.499 -19s20 -28.667 20 -48s-6.66699 -35 -20 -47s-30.166 -18 -50.499 -18s-37.166 6 -50.499 18s-20 27.667 -20 47z" />
    <glyph glyph-name="Ugrave" unicode="&#xd9;" horiz-adv-x="690" 
d="M201 649v-404c0 -53.333 13.5 -91.666 40.5 -114.999s61.833 -35 104.5 -35s77.5 11.667 104.5 35s40.5 61.666 40.5 114.999v404h118v-404c0 -82.667 -23 -146.5 -69 -191.5s-110.667 -67.5 -194 -67.5s-148 22.5 -194 67.5s-69 108.833 -69 191.5v404h118zM233 900
l267 -132l-30 -74l-279 104z" />
    <glyph glyph-name="Uacute" unicode="&#xda;" horiz-adv-x="690" 
d="M83 649v-404c0 -82.667 23 -146.5 69 -191.5s110.667 -67.5 194 -67.5s148 22.5 194 67.5s69 108.833 69 191.5v404h-118v-404c0 -53.333 -13.5 -91.666 -40.5 -114.999s-61.833 -35 -104.5 -35s-77.5 11.667 -104.5 35s-40.5 61.666 -40.5 114.999v404h-118zM499 798
l-279 -104l-30 74l267 132z" />
    <glyph glyph-name="Ucircumflex" unicode="&#xdb;" horiz-adv-x="690" 
d="M201 649v-404c0 -53.333 13.5 -91.666 40.5 -114.999s61.833 -35 104.5 -35s77.5 11.667 104.5 35s40.5 61.666 40.5 114.999v404h118v-404c0 -82.667 -23 -146.5 -69 -191.5s-110.667 -67.5 -194 -67.5s-148 22.5 -194 67.5s-69 108.833 -69 191.5v404h118zM554 752
l-75 -59l-133 101l-134 -101l-75 59l209 161z" />
    <glyph glyph-name="Udieresis" unicode="&#xdc;" horiz-adv-x="690" 
d="M201 649v-404c0 -53.333 13.5 -91.666 40.5 -114.999s61.833 -35 104.5 -35s77.5 11.667 104.5 35s40.5 61.666 40.5 114.999v404h118v-404c0 -82.667 -23 -146.5 -69 -191.5s-110.667 -67.5 -194 -67.5s-148 22.5 -194 67.5s-69 108.833 -69 191.5v404h118zM199.5 767.5
c-13 12.333 -19.5 28 -19.5 47s6.5 34.833 19.5 47.5s29.833 19 50.5 19s37.667 -6.33301 51 -19s20 -28.5 20 -47.5s-6.66699 -34.667 -20 -47s-30.333 -18.5 -51 -18.5s-37.5 6.16699 -50.5 18.5zM373 815c0 19.333 6.66699 35.333 20 48s30.166 19 50.499 19
s37.166 -6.33301 50.499 -19s20 -28.667 20 -48s-6.66699 -35 -20 -47s-30.166 -18 -50.499 -18s-37.166 6 -50.499 18s-20 27.667 -20 47z" />
    <glyph glyph-name="agrave" unicode="&#xe0;" horiz-adv-x="585" 
d="M253 284c38.667 0 83.333 -6.33398 134 -19.001v48c0 34 -6.83301 59.167 -20.5 75.5s-36 24.5 -67 24.5s-54.833 -6.16699 -71.5 -18.5s-25 -29.833 -25 -52.5h-129c0 55.333 19.5 95.333 58.5 120s93.5 37 163.5 37c100.167 0 164.834 -35 194.001 -105
c10 -24 15 -52.333 15 -85v-309h-103l-9 65c-31.5996 -52.667 -79.5996 -79 -144 -79c-62.7285 0 -111.396 15.5 -146 46.5c-32 28.667 -48 65.584 -48 110.751s17.667 79.917 53 104.25s83.666 36.5 144.999 36.5zM184.999 763.999l267 -132l-30 -74l-279 104z
M386.999 189.999c-39.6191 10.667 -76.2861 15.999 -110 15.999c-64 0 -96 -21.333 -96 -64c0 -18 7.33301 -33.5 22 -46.5s38.167 -19.5 70.5 -19.5s59 10.833 80 32.5s32.167 48.834 33.5 81.501z" />
    <glyph glyph-name="aacute" unicode="&#xe1;" horiz-adv-x="585" 
d="M253 284c38.667 0 83.333 -6.33398 134 -19.001v48c0 34 -6.83301 59.167 -20.5 75.5s-36 24.5 -67 24.5s-54.833 -6.16699 -71.5 -18.5s-25 -29.833 -25 -52.5h-129c0 55.333 19.5 95.333 58.5 120s93.5 37 163.5 37c100.167 0 164.834 -35 194.001 -105
c10 -24 15 -52.333 15 -85v-309h-103l-9 65c-31.5996 -52.667 -79.5996 -79 -144 -79c-62.7285 0 -111.396 15.5 -146 46.5c-32 28.667 -48 65.584 -48 110.751s17.667 79.917 53 104.25s83.666 36.5 144.999 36.5zM450.999 661.999l-279 -104l-30 74l267 132z
M386.999 189.999c-39.6191 10.667 -76.2861 15.999 -110 15.999c-64 0 -96 -21.333 -96 -64c0 -18 7.33301 -33.5 22 -46.5s38.167 -19.5 70.5 -19.5s59 10.833 80 32.5s32.167 48.834 33.5 81.501z" />
    <glyph glyph-name="acircumflex" unicode="&#xe2;" horiz-adv-x="585" 
d="M253 284c38.667 0 83.333 -6.33398 134 -19.001v48c0 34 -6.83301 59.167 -20.5 75.5s-36 24.5 -67 24.5s-54.833 -6.16699 -71.5 -18.5s-25 -29.833 -25 -52.5h-129c0 55.333 19.5 95.333 58.5 120s93.5 37 163.5 37c100.167 0 164.834 -35 194.001 -105
c10 -24 15 -52.333 15 -85v-309h-103l-9 65c-31.5996 -52.667 -79.5996 -79 -144 -79c-62.7285 0 -111.396 15.5 -146 46.5c-32 28.667 -48 65.584 -48 110.751s17.667 79.917 53 104.25s83.666 36.5 144.999 36.5zM505.999 615.999l-75 -59l-133 101l-134 -101l-75 59
l209 161zM386.999 189.999c-39.6191 10.667 -76.2861 15.999 -110 15.999c-64 0 -96 -21.333 -96 -64c0 -18 7.33301 -33.5 22 -46.5s38.167 -19.5 70.5 -19.5s59 10.833 80 32.5s32.167 48.834 33.5 81.501z" />
    <glyph glyph-name="atilde" unicode="&#xe3;" horiz-adv-x="585" 
d="M253 284c38.667 0 83.333 -6.33398 134 -19.001v48c0 34 -6.83301 59.167 -20.5 75.5s-36 24.5 -67 24.5s-54.833 -6.16699 -71.5 -18.5s-25 -29.833 -25 -52.5h-129c0 55.333 19.5 95.333 58.5 120s93.5 37 163.5 37c100.167 0 164.834 -35 194.001 -105
c10 -24 15 -52.333 15 -85v-309h-103l-9 65c-31.5996 -52.667 -79.5996 -79 -144 -79c-62.7285 0 -111.396 15.5 -146 46.5c-32 28.667 -48 65.584 -48 110.751s17.667 79.917 53 104.25s83.666 36.5 144.999 36.5zM367.999 701.999c21.5127 0 39.1807 16.333 53.001 49
l50 -33c-7.33301 -36 -20.5 -65.5 -39.5 -88.5s-39.167 -34.5 -60.5 -34.5c-12 0 -23.833 2.33301 -35.5 7s-26.334 11.5 -44.001 20.5c-29.4443 15 -49.5557 22.5 -60.333 22.5c-23.3525 0 -43.0752 -16.667 -59.167 -50l-47 28c8 40.667 21.5 72.167 40.5 94.5
s41.167 33.5 66.5 33.5c17.8096 0 38.7617 -6.16699 62.8574 -18.5s40.3096 -20.5 48.6426 -24.5s16.5 -6 24.5 -6zM387 189.999c-39.6191 10.667 -76.2861 15.999 -110 15.999c-64 0 -96 -21.333 -96 -64c0 -18 7.33301 -33.5 22 -46.5s38.167 -19.5 70.5 -19.5
s59 10.833 80 32.5s32.167 48.834 33.5 81.501z" />
    <glyph glyph-name="adieresis" unicode="&#xe4;" horiz-adv-x="585" 
d="M253 284c38.667 0 83.333 -6.33398 134 -19.001v48c0 34 -6.83301 59.167 -20.5 75.5s-36 24.5 -67 24.5s-54.833 -6.16699 -71.5 -18.5s-25 -29.833 -25 -52.5h-129c0 55.333 19.5 95.333 58.5 120s93.5 37 163.5 37c100.167 0 164.834 -35 194.001 -105
c10 -24 15 -52.333 15 -85v-309h-103l-9 65c-31.5996 -52.667 -79.5996 -79 -144 -79c-62.7285 0 -111.396 15.5 -146 46.5c-32 28.667 -48 65.584 -48 110.751s17.667 79.917 53 104.25s83.666 36.5 144.999 36.5zM386.999 189.999
c-39.6191 10.667 -76.2861 15.999 -110 15.999c-64 0 -96 -21.333 -96 -64c0 -18 7.33301 -33.5 22 -46.5s38.167 -19.5 70.5 -19.5s59 10.833 80 32.5s32.167 48.834 33.5 81.501zM150.499 631.498c-13 12.333 -19.5 28 -19.5 47s6.5 34.833 19.5 47.5s29.833 19 50.5 19
s37.667 -6.33301 51 -19s20 -28.5 20 -47.5s-6.66699 -34.667 -20 -47s-30.333 -18.5 -51 -18.5s-37.5 6.16699 -50.5 18.5zM323.999 678.998c0 19.333 6.66699 35.333 20 48s30.166 19 50.499 19s37.166 -6.33301 50.499 -19s20 -28.667 20 -48s-6.66699 -35 -20 -47
s-30.166 -18 -50.499 -18s-37.166 6 -50.499 18s-20 27.667 -20 47z" />
    <glyph glyph-name="egrave" unicode="&#xe8;" horiz-adv-x="530" 
d="M469.5 354c8.33301 -28 12.499 -53.668 12.499 -77.001s-1.33301 -44.333 -4 -63h-314c1.33301 -39.333 11 -71.333 29 -96s45.333 -37 82 -37c48.667 0 77.667 21.333 87 64h119c-8.29297 -48.376 -30.626 -86.709 -67 -115c-37.7139 -29.333 -84.0469 -44 -138.999 -44
c-63.8408 0 -117.508 23.5 -161 70.5c-44.667 48.2686 -67 110.436 -67 186.5c0 77.7852 22.333 140.452 67 188.001c42.5859 45.333 96.2529 68 161 68c67.4561 0 119.623 -23.5 156.5 -70.5c17 -21.667 29.667 -46.5 38 -74.5zM153.999 773.999l267 -132l-30 -74l-279 104
zM275.999 404.999c-33.333 0 -59.333 -10.833 -78 -32.5s-29.667 -49.5 -33 -83.5h207c0 52.4688 -16.833 87.8018 -50.5 106c-12.333 6.66699 -27.5 10 -45.5 10z" />
    <glyph glyph-name="eacute" unicode="&#xe9;" horiz-adv-x="530" 
d="M362 145c-9.33301 -42.667 -38.332 -63.999 -86.999 -63.999c-36.667 0 -64 12.333 -82 37s-27.667 56.667 -29 96h314c2.66699 18.667 4 39.667 4 63s-4.16699 49 -12.5 77s-21 52.833 -38 74.5c-36.877 47 -89.0439 70.5 -156.5 70.5
c-64.7471 0 -118.414 -22.667 -161 -68c-44.667 -47.5488 -67 -110.216 -67 -188.001c0 -76.0645 22.333 -138.231 67 -186.5c43.4922 -47 97.1592 -70.5 161 -70.5c54.9521 0 101.285 14.667 138.999 44c36.374 28.291 58.707 66.624 67 115h-119zM420.001 672.001
l-279 -104l-30 74l267 132zM372.001 289.001h-206.999c3.33301 34 14.333 61.833 33 83.5s44.6045 32.5 77.8125 32.5s57.541 -10.7539 72.999 -32.2607s23.1875 -49.4199 23.1875 -83.7393z" />
    <glyph glyph-name="ecircumflex" unicode="&#xea;" horiz-adv-x="530" 
d="M476.5 354c8.33301 -28 12.499 -53.668 12.499 -77.001s-1.33301 -44.333 -4 -63h-314c1.33301 -39.333 11 -71.333 29 -96s45.333 -37 82 -37c48.667 0 77.667 21.333 87 64h119c-8.29297 -48.376 -30.626 -86.709 -67 -115c-37.7139 -29.333 -84.0469 -44 -138.999 -44
c-63.8408 0 -117.508 23.5 -161 70.5c-44.667 48.2686 -67 110.436 -67 186.5c0 77.7852 22.333 140.452 67 188.001c42.5859 45.333 96.2529 68 161 68c67.4561 0 119.623 -23.5 156.5 -70.5c17 -21.667 29.667 -46.5 38 -74.5zM479.999 625.999l-75 -59l-133 101
l-134 -101l-75 59l209 161zM282.999 404.999c-33.333 0 -59.333 -10.833 -78 -32.5s-29.667 -49.5 -33 -83.5h207c0 52.4688 -16.833 87.8018 -50.5 106c-12.333 6.66699 -27.5 10 -45.5 10z" />
    <glyph glyph-name="edieresis" unicode="&#xeb;" horiz-adv-x="530" 
d="M469.5 354c8.33301 -28 12.499 -53.668 12.499 -77.001s-1.33301 -44.333 -4 -63h-314c1.33301 -39.333 11 -71.333 29 -96s45.333 -37 82 -37c48.667 0 77.667 21.333 87 64h119c-8.29297 -48.376 -30.626 -86.709 -67 -115c-37.7139 -29.333 -84.0469 -44 -138.999 -44
c-63.8408 0 -117.508 23.5 -161 70.5c-44.667 48.2686 -67 110.436 -67 186.5c0 77.7852 22.333 140.452 67 188.001c42.5859 45.333 96.2529 68 161 68c67.4561 0 119.623 -23.5 156.5 -70.5c17 -21.667 29.667 -46.5 38 -74.5zM275.999 404.999
c-33.333 0 -59.333 -10.833 -78 -32.5s-29.667 -49.5 -33 -83.5h207c0 52.4688 -16.833 87.8018 -50.5 106c-12.333 6.66699 -27.5 10 -45.5 10zM118.499 631.499c-13 12.333 -19.5 28 -19.5 47s6.5 34.833 19.5 47.5s29.833 19 50.5 19s37.667 -6.33301 51 -19
s20 -28.5 20 -47.5s-6.66699 -34.667 -20 -47s-30.333 -18.5 -51 -18.5s-37.5 6.16699 -50.5 18.5zM291.999 678.999c0 19.333 6.66699 35.333 20 48s30.166 19 50.499 19s37.166 -6.33301 50.499 -19s20 -28.667 20 -48s-6.66699 -35 -20 -47s-30.166 -18 -50.499 -18
s-37.166 6 -50.499 18s-20 27.667 -20 47z" />
    <glyph glyph-name="igrave" unicode="&#xec;" horiz-adv-x="328" 
d="M103 487h118v-487h-118v487zM50 764l267 -132l-30 -74l-279 104z" />
    <glyph glyph-name="iacute" unicode="&#xed;" horiz-adv-x="328" 
d="M103 0h118v487h-118v-487zM316 662l-279 -104l-30 74l267 132z" />
    <glyph glyph-name="icircumflex" unicode="&#xee;" horiz-adv-x="328" 
d="M103 487h118v-487h-118v487zM370 616l-75 -59l-133 101l-134 -101l-75 59l209 161z" />
    <glyph glyph-name="idieresis" unicode="&#xef;" horiz-adv-x="328" 
d="M103 487h118v-487h-118v487zM14.5 631.5c-13 12.333 -19.5 28 -19.5 47s6.5 34.833 19.5 47.5s29.833 19 50.5 19s37.667 -6.33301 51 -19s20 -28.5 20 -47.5s-6.66699 -34.667 -20 -47s-30.333 -18.5 -51 -18.5s-37.5 6.16699 -50.5 18.5zM188 679
c0 19.333 6.66699 35.333 20 48s30.166 19 50.499 19s37.166 -6.33301 50.499 -19s20 -28.667 20 -48s-6.66699 -35 -20 -47s-30.166 -18 -50.499 -18s-37.166 6 -50.499 18s-20 27.667 -20 47z" />
    <glyph glyph-name="ntilde" unicode="&#xf1;" horiz-adv-x="623" 
d="M363 499c-70.9932 0 -122.323 -32.333 -153.997 -97l-13 84h-103v-486h118v225c1.33301 56 13.166 98 35.499 126s49.166 42 80.499 42s55.666 -9.16699 72.999 -27.5s26 -45.5 26 -81.5v-284h118v284c0 64.667 -15.167 116.667 -45.5 156s-75.5 59 -135.5 59z
M384.003 702c21.5127 0 39.1807 16.333 53.001 49l50 -33c-7.33301 -36 -20.5 -65.5 -39.5 -88.5s-39.167 -34.5 -60.5 -34.5c-12 0 -23.833 2.33301 -35.5 7s-26.334 11.5 -44.001 20.5c-29.4443 15 -49.5557 22.5 -60.333 22.5c-23.3525 0 -43.0752 -16.667 -59.167 -50
l-47 28c8 40.667 21.5 72.167 40.5 94.5s41.167 33.5 66.5 33.5c17.8096 0 38.7617 -6.16699 62.8574 -18.5s40.3096 -20.5 48.6426 -24.5s16.5 -6 24.5 -6z" />
    <glyph glyph-name="ograve" unicode="&#xf2;" horiz-adv-x="566" 
d="M283.5 499c33 0 63.833 -5.16797 92.5 -15.501s53.5 -26.166 74.5 -47.499c45.667 -46.3916 68.5 -111.059 68.5 -194c0 -81.6084 -22.833 -145.608 -68.5 -192c-42 -42.667 -97.5 -64 -166.5 -64c-69.333 0 -125.333 21.333 -168 64c-46 46 -69 110 -69 192
c0 83.333 23 148 69 194c42 42 97.833 63 167.5 63zM371 358.499c-20 25.667 -47.8311 38.5 -83.498 38.5s-64.834 -12.833 -87.501 -38.5s-34 -64.167 -34 -115.5s10.167 -89.833 30.5 -115.5s48.166 -38.5 83.499 -38.5s64.333 12.833 87 38.5s34 64.167 34 115.5
s-10 89.833 -30 115.5zM172.002 763.999l267 -132l-30 -74l-279 104z" />
    <glyph glyph-name="oacute" unicode="&#xf3;" horiz-adv-x="566" 
d="M283.5 499c-33 0 -63.833 -5.16797 -92.5 -15.501s-53.667 -26.166 -75 -47.499c-46 -46 -69 -110.667 -69 -194c0 -82 23 -146 69 -192c42.667 -42.667 98.667 -64 168 -64c69 0 124.5 21.333 166.5 64c45.667 46.3916 68.5 110.392 68.5 192
c0 82.9414 -22.833 147.608 -68.5 194c-41.3438 42 -97.0107 63 -167 63zM200 358.499c22.667 25.667 51.832 38.5 87.499 38.5s63.5 -12.833 83.5 -38.5s30 -64.167 30 -115.5s-11.333 -89.833 -34 -115.5s-51.667 -38.5 -87 -38.5s-63.166 12.833 -83.499 38.5
s-30.5 64.167 -30.5 115.5s11.333 89.833 34 115.5zM437.998 661.999l-279 -104l-30 74l267 132z" />
    <glyph glyph-name="ocircumflex" unicode="&#xf4;" horiz-adv-x="566" 
d="M283.5 499c33 0 63.833 -5.16797 92.5 -15.501s53.5 -26.166 74.5 -47.499c45.667 -46.3916 68.5 -111.059 68.5 -194c0 -81.6084 -22.833 -145.608 -68.5 -192c-42 -42.667 -97.5 -64 -166.5 -64c-69.333 0 -125.333 21.333 -168 64c-46 46 -69 110 -69 192
c0 83.333 23 148 69 194c42 42 97.833 63 167.5 63zM371 358.499c-20 25.667 -47.8311 38.5 -83.498 38.5s-64.834 -12.833 -87.501 -38.5s-34 -64.167 -34 -115.5s10.167 -89.833 30.5 -115.5s48.166 -38.5 83.499 -38.5s64.333 12.833 87 38.5s34 64.167 34 115.5
s-10 89.833 -30 115.5zM492.002 615.999l-75 -59l-133 101l-134 -101l-75 59l209 161z" />
    <glyph glyph-name="otilde" unicode="&#xf5;" horiz-adv-x="566" 
d="M283.5 499c-33 0 -63.833 -5.16797 -92.5 -15.501s-53.667 -26.166 -75 -47.499c-46 -46 -69 -110.667 -69 -194c0 -82 23 -146 69 -192c42.667 -42.667 98.667 -64 168 -64c69 0 124.5 21.333 166.5 64c45.667 46.3916 68.5 110.392 68.5 192
c0 82.9414 -22.833 147.608 -68.5 194c-41.3438 42 -97.0107 63 -167 63zM200 358.499c22.667 25.667 51.832 38.5 87.499 38.5s63.5 -12.833 83.5 -38.5s30 -64.167 30 -115.5s-11.333 -89.833 -34 -115.5s-51.667 -38.5 -87 -38.5s-63.166 12.833 -83.499 38.5
s-30.5 64.167 -30.5 115.5s11.333 89.833 34 115.5zM352.998 701.999c21.5127 0 39.1807 16.333 53.001 49l50 -33c-7.33301 -36 -20.5 -65.5 -39.5 -88.5s-39.167 -34.5 -60.5 -34.5c-12 0 -23.833 2.33301 -35.5 7s-26.334 11.5 -44.001 20.5
c-29.4443 15 -49.5557 22.5 -60.333 22.5c-23.3525 0 -43.0752 -16.667 -59.167 -50l-47 28c8 40.667 21.5 72.167 40.5 94.5s41.167 33.5 66.5 33.5c17.8096 0 38.7617 -6.16699 62.8574 -18.5s40.3096 -20.5 48.6426 -24.5s16.5 -6 24.5 -6z" />
    <glyph glyph-name="odieresis" unicode="&#xf6;" horiz-adv-x="566" 
d="M283.5 499c33 0 63.833 -5.16797 92.5 -15.501s53.5 -26.166 74.5 -47.499c45.667 -46.3916 68.5 -111.059 68.5 -194c0 -81.6084 -22.833 -145.608 -68.5 -192c-42 -42.667 -97.5 -64 -166.5 -64c-69.333 0 -125.333 21.333 -168 64c-46 46 -69 110 -69 192
c0 83.333 23 148 69 194c42 42 97.833 63 167.5 63zM371 358.499c-20 25.667 -47.8311 38.5 -83.498 38.5s-64.834 -12.833 -87.501 -38.5s-34 -64.167 -34 -115.5s10.167 -89.833 30.5 -115.5s48.166 -38.5 83.499 -38.5s64.333 12.833 87 38.5s34 64.167 34 115.5
s-10 89.833 -30 115.5zM136.502 631.499c-13 12.333 -19.5 28 -19.5 47s6.5 34.833 19.5 47.5s29.833 19 50.5 19s37.667 -6.33301 51 -19s20 -28.5 20 -47.5s-6.66699 -34.667 -20 -47s-30.333 -18.5 -51 -18.5s-37.5 6.16699 -50.5 18.5zM310.002 678.999
c0 19.333 6.66699 35.333 20 48s30.166 19 50.499 19s37.166 -6.33301 50.499 -19s20 -28.667 20 -48s-6.66699 -35 -20 -47s-30.166 -18 -50.499 -18s-37.166 6 -50.499 18s-20 27.667 -20 47z" />
    <glyph glyph-name="ugrave" unicode="&#xf9;" horiz-adv-x="627" 
d="M416 88c-30.3535 -64.667 -79.6846 -97 -147.997 -97c-86.3008 0 -143.134 33.5 -170.5 100.5c-9.66699 23.667 -14.5 52.167 -14.5 85.5v310h118v-298c0 -32 7.66699 -55.833 23 -71.5s34.166 -23.5 56.499 -23.5s41.166 3.16699 56.499 9.5s28.666 16 39.999 29
c24.7383 28.376 37.7383 66.543 39 114.5v240h118v-487h-118v88zM201.002 784l267 -132l-30 -74l-279 104z" />
    <glyph glyph-name="uacute" unicode="&#xfa;" horiz-adv-x="627" 
d="M268 -9c68.3125 0 117.646 32.333 148 97v-88h118v487h-118v-232c0 -51.0479 -12.5 -91.2148 -37.5 -120.501c-23.0488 -27 -50.7275 -40.5 -83.0361 -40.5s-56.1299 7.83301 -71.4629 23.5s-23 39.5 -23 71.5v298h-118v-310c0 -62.9111 17.833 -110.744 53.5 -143.499
c30.8516 -28.333 74.6846 -42.5 131.499 -42.5zM467.001 682l-279 -104l-30 74l267 132z" />
    <glyph glyph-name="ucircumflex" unicode="&#xfb;" horiz-adv-x="627" 
d="M416 88c-30.3535 -64.667 -79.6846 -97 -147.997 -97c-86.3008 0 -143.134 33.5 -170.5 100.5c-9.66699 23.667 -14.5 52.167 -14.5 85.5v310h118v-298c0 -32 7.66699 -55.833 23 -71.5s34.166 -23.5 56.499 -23.5s41.166 3.16699 56.499 9.5s28.666 16 39.999 29
c24.7383 28.376 37.7383 66.543 39 114.5v240h118v-487h-118v88zM521.002 636l-75 -59l-133 101l-134 -101l-75 59l209 161z" />
    <glyph glyph-name="udieresis" unicode="&#xfc;" horiz-adv-x="627" 
d="M416 88c-30.3535 -64.667 -79.6846 -97 -147.997 -97c-86.3008 0 -143.134 33.5 -170.5 100.5c-9.66699 23.667 -14.5 52.167 -14.5 85.5v310h118v-298c0 -32 7.66699 -55.833 23 -71.5s34.166 -23.5 56.499 -23.5s41.166 3.16699 56.499 9.5s28.666 16 39.999 29
c24.7383 28.376 37.7383 66.543 39 114.5v240h118v-487h-118v88zM165.502 631.5c-13 12.333 -19.5 28 -19.5 47s6.5 34.833 19.5 47.5s29.833 19 50.5 19s37.667 -6.33301 51 -19s20 -28.5 20 -47.5s-6.66699 -34.667 -20 -47s-30.333 -18.5 -51 -18.5
s-37.5 6.16699 -50.5 18.5zM339.002 679c0 19.333 6.66699 35.333 20 48s30.166 19 50.499 19s37.166 -6.33301 50.499 -19s20 -28.667 20 -48s-6.66699 -35 -20 -47s-30.166 -18 -50.499 -18s-37.166 6 -50.499 18s-20 27.667 -20 47z" />
    <glyph glyph-name="dotlessi" unicode="&#x131;" 
d="M93 487h118v-487h-118v487z" />
    <glyph glyph-name="apostrophe" unicode="&#x2bc;" horiz-adv-x="237" 
d="M80.5 537.5c-13 11.667 -19.501 27.334 -19.501 47.001s7.66699 36.5 23 50.5s36.333 21 63 21s48.334 -10.333 65.001 -31s25 -46 25 -76c0 -48.8574 -22 -93.1904 -66 -133c-14 -12.667 -29.667 -23.334 -47 -32.001l-88 44c22 11.333 41.5 24 58.5 38
s28.167 30.333 33.5 49c-18.667 3.33301 -34.5 10.833 -47.5 22.5z" />
    <glyph glyph-name="circumflex" unicode="&#x2c6;" horiz-adv-x="465" 
d="M441 752l-75 -59l-133 101l-134 -101l-75 59l209 161z" />
    <glyph glyph-name="tilde" unicode="&#x2dc;" horiz-adv-x="394" 
d="M266 838c21.5127 0 39.1807 16.333 53.001 49l50 -33c-7.33301 -36 -20.5 -65.5 -39.5 -88.5s-39.167 -34.5 -60.5 -34.5c-12 0 -23.833 2.33301 -35.5 7s-26.334 11.5 -44.001 20.5c-29.4443 15 -49.5557 22.5 -60.333 22.5c-23.3525 0 -43.0752 -16.667 -59.167 -50
l-47 28c8 40.667 21.5 72.167 40.5 94.5s41.167 33.5 66.5 33.5c17.8096 0 38.7617 -6.16699 62.8574 -18.5s40.3096 -20.5 48.6426 -24.5s16.5 -6 24.5 -6z" />
    <glyph glyph-name="endash" unicode="&#x2013;" horiz-adv-x="525" 
d="M55 353h415v-103h-415v103z" />
    <glyph glyph-name="emdash" unicode="&#x2014;" horiz-adv-x="768" 
d="M55 353h659v-103h-659v103z" />
    <glyph glyph-name="quoteleft" unicode="&#x2018;" horiz-adv-x="271" 
d="M189.5 400c-15 -14 -35.833 -21.001 -62.5 -21.001s-48.5 10.5 -65.5 31.5s-25.5 47 -25.5 78s10.833 61.5 32.5 91.5s50.5 54 86.5 72l83 -46c-51.5254 -24.2471 -82.5254 -53.2471 -93 -87c18.667 -3.33301 34.5 -10.666 47.5 -21.999s19.5 -26.833 19.5 -46.5
s-7.5 -36.5 -22.5 -50.5z" />
    <glyph glyph-name="quoteright" unicode="&#x2019;" horiz-adv-x="271" 
d="M77 631.5c15.333 13.667 36.167 20.501 62.5 20.501s48 -10.5 65 -31.5s25.5 -47 25.5 -78s-10.833 -61.5 -32.5 -91.5s-50.5 -54 -86.5 -72l-82 45c51.4043 25.7021 82.4043 55.0352 93 88c-19.333 3.33301 -35.5 10.666 -48.5 21.999s-19.5 27 -19.5 47
s7.66699 36.833 23 50.5z" />
    <glyph glyph-name="rupeesymbol" unicode="&#x20a8;" horiz-adv-x="604" 
d="M83 649h464v-66h-182c40 -24 65 -55.333 75 -94h107v-67h-104c-4.66699 -42.667 -22.667 -79.167 -54 -109.5s-80 -50.5 -146 -60.5l261 -252h-166l-255 246v67h77c48.667 1.33301 85.5 12 110.5 32s40.167 45.667 45.5 77h-233v67h229c-7.33301 28 -24 50.667 -50 68
s-62.667 26 -110 26h-69v66z" />
    <glyph glyph-name="minus" unicode="&#x2212;" horiz-adv-x="506" 
d="M427 353v-103h-348v103h348z" />
    <glyph glyph-name=".null" horiz-adv-x="0" 
 />
    <glyph glyph-name="nonmarkingreturn" horiz-adv-x="589" 
 />
    <glyph glyph-name="zero.propold" horiz-adv-x="570" 
d="M285 583c70.8262 0 127.661 -25.501 170.501 -76.501c44.333 -52.7773 66.5 -126.61 66.5 -221.499c0 -94.5186 -22.167 -168.519 -66.5 -222c-42.5527 -51.333 -99.3857 -77 -170.5 -77s-127.947 25.667 -170.5 77c-45 54.2861 -67.5 128.286 -67.5 222
c0 94.0957 22.5 167.929 67.5 221.5c42.8398 51 99.6729 76.5 170.499 76.5zM405.002 284.999c0 128 -40 192 -120 192c-79.333 0 -119 -64 -119 -192s39.833 -192 119.5 -192s119.5 64 119.5 192z" />
    <glyph glyph-name="one.propold" horiz-adv-x="357" 
d="M42 518c49.3936 5.81152 93.3926 23.4785 131.999 53.001h89v-571h-118v430c-31.833 -15.917 -66.166 -24.584 -102.999 -26.001v114z" />
    <glyph glyph-name="two.propold" horiz-adv-x="595" 
d="M313 480c-67.6504 0 -104.65 -26.665 -111 -79.998h-131c1.29785 59.7051 23.9648 105.538 68 137.499c41.793 30.333 97.793 45.5 168 45.5c65.4443 0 119.111 -17.333 161 -52c40.667 -33.6553 61 -75.0693 61 -124.242s-13.167 -87.2588 -39.5 -114.259
s-68.833 -47.833 -127.5 -62.5l-105 -26c-28 -7.33301 -48.167 -16.833 -60.5 -28.5s-18.5 -26.167 -18.5 -43.5v-24h355v-108h-473v98c0 55.3848 12.833 97.8848 38.5 127.5c24.4326 28.1914 63.5996 49.0244 117.5 62.5l95 23c36.667 9.33301 62.5 21.5 77.5 36.5
s22.5 33.5 22.5 55.5s-8.66699 40.333 -26 55s-41.333 22 -72 22z" />
    <glyph glyph-name="three.propold" horiz-adv-x="588" 
d="M501 407c0 -66.5488 -35.0029 -113.547 -105.003 -140.998c40.667 -15.333 72 -39 94 -71s33 -65.833 33 -101.5s-6 -65.834 -18 -90.501s-29 -46 -51 -64c-47.2588 -38.667 -107.592 -58 -180.999 -58c-70.667 0 -129.334 17.333 -176.001 52
c-51.333 38.1338 -77 92.1338 -77 162h120c2.66699 -40 16.334 -69 41.001 -87s55.834 -27 93.501 -27s68.667 10.667 93 32s36.5 48.166 36.5 80.499s-12 59.333 -36 81s-58 32.5 -102 32.5h-67v93h61c38 0 68 8.16699 90 24.5s33 38.5 33 66.5s-9.66699 50.5 -29 67.5
s-45.166 25.5 -77.499 25.5s-59 -7.5 -80 -22.5s-33.5 -36.167 -37.5 -63.5h-126c11.4893 95.7402 60.6562 154.073 147.501 175c27.667 6.66699 58.667 10 93 10s65.666 -4.5 93.999 -13.5s52.333 -21.333 72 -37c41 -32.6611 61.5 -74.4941 61.5 -125.5z" />
    <glyph glyph-name="four.propold" horiz-adv-x="596" 
d="M466 574v-423h112v-102h-112v-157h-119v157h-329v89l332 436h116zM148 138h205v263z" />
    <glyph glyph-name="five.propold" horiz-adv-x="589" 
d="M503 581l0.00195312 -107.999h-273l-15 -156c30 8 61.833 12 95.5 12s64.5 -5.16699 92.5 -15.5s52 -24.833 72 -43.5c41.333 -38.5781 62 -90.2451 62 -155.001c0 -67.2734 -24.167 -123.273 -72.5 -168c-47.5488 -44 -107.716 -66 -180.501 -66
c-63.667 0 -116.5 18 -158.5 54c-45.667 39.1426 -68.5 91.4756 -68.5 156.999h117c0 -34 10.333 -59.667 31 -77s48 -26 82 -26c37.5762 0 68.9092 11.5 94 34.5c25.333 23.2227 38 53.6113 38 91.167s-11.833 66.667 -35.5 87.334s-59.834 31 -108.501 31h-184l31 348h381
z" />
    <glyph glyph-name="six.propold" horiz-adv-x="607" 
d="M425 471c-3.33301 26 -12.667 46.501 -28 61.501s-36.5 22.5 -63.5 22.5s-50.667 -5.83301 -71 -17.5s-37.666 -28.5 -51.999 -50.5c-29.667 -45.5352 -44.5 -106.868 -44.5 -184c0 -28.333 1 -50 3 -65c7.44922 57.1123 29.1162 98.9453 65 125.499
c31.0811 23 70.0811 34.5 117 34.5c60.2842 0 110.117 -19.333 149.5 -58c38.333 -37.6367 57.5 -86.9697 57.5 -148c0 -61.5918 -21.667 -111.259 -65 -149.001c-43.6299 -38 -100.297 -57 -170.001 -57c-81.2568 0 -147.757 30.833 -199.5 92.5
c-51 60.7812 -76.5 138.948 -76.5 234.501c0 110.595 25.667 196.762 77 258.5c50.165 60.333 118.165 90.5 204 90.5c65.1201 0 117.787 -17.333 158 -52c40.6533 -35.0459 62.3203 -81.3789 65 -139h-126zM242.499 272.501c-21.667 -19 -32.499 -44.167 -32.499 -75.5
s10.833 -56.166 32.5 -74.499s48.334 -27.5 80.001 -27.5s58.5 9.16699 80.5 27.5s33 43.166 33 74.499c0 31.5488 -11.167 57.0488 -33.5 76.5c-21.0498 18.333 -47.5625 27.5 -79.5381 27.5s-58.7969 -9.5 -80.4639 -28.5z" />
    <glyph glyph-name="seven.propold" horiz-adv-x="498" 
d="M480 583v-102l-300 -585h-144l323 584h-335v103h456z" />
    <glyph glyph-name="eight.propold" horiz-adv-x="647" 
d="M502 609.5c48.667 -35.0684 73 -79.5693 73 -133.501c0 -32.667 -11.167 -61.834 -33.5 -87.501s-54.5 -42.167 -96.5 -49.5c55.2344 -22.0938 93.4014 -44.2607 114.501 -66.5c25.667 -27.0537 38.5 -60.5537 38.5 -100.5c0 -55.4004 -24 -99.9004 -72 -133.5
c-50 -35 -117.667 -52.5 -203 -52.5c-81.8799 0 -148.38 18 -199.5 54c-49.667 34.9766 -74.5 79.9766 -74.5 135c0 40.667 14.167 73.5 42.5 98.5s64.5 40.167 108.5 45.5c-58.2832 27.875 -97.4502 64.042 -117.5 108.501c-7.66699 17 -11.5 36.167 -11.5 57.5
c0 54.667 21.833 97.834 65.5 129.501s103.357 47.5 179.071 47.5s137.856 -17.5 186.428 -52.5zM303 277.999c-60.7393 -4.18848 -101.574 -23.3584 -122.501 -57.5029c-6.33301 -10.333 -9.5 -22.166 -9.5 -35.499s4 -25.666 12 -36.999s18.833 -21 32.5 -29
c27.333 -16 65.083 -24 113.25 -24s84.75 6.5 109.75 19.5s37.5 29 37.5 48s-6.16699 34.333 -18.5 46s-29.166 21.834 -50.499 30.501zM258.998 410.996l75 -28.999c31.667 0 59.5 8 83.5 24c23.667 15.7773 35.5 36.7217 35.5 62.833s-12 47 -36 62.667
s-55.333 23.5 -94 23.5c-37.167 0 -68 -7 -92.5 -21c-25 -14.2861 -37.5 -33.8887 -37.5 -58.8086s22 -46.3174 66 -64.1924z" />
    <glyph glyph-name="nine.propold" horiz-adv-x="609" 
d="M295.5 583c40.333 0 77.666 -9.83301 111.999 -29.5s63 -45.667 86 -78c46.333 -65.1357 69.5 -144.636 69.5 -238.5c0 -110.31 -24.833 -197.643 -74.5 -261.999c-48.3623 -62.667 -113.862 -94 -196.5 -94c-65.7041 0 -120.371 19 -164.001 57
c-44 38.3223 -66 87.6553 -66 147.999h124c2 -30.667 11.833 -54.5 29.5 -71.5s43.167 -25.5 76.5 -25.5c52.667 0 91.334 23.167 116.001 69.5s37 108.833 37 187.5c0 24.667 -1.33301 48.334 -4 71.001c-6.66699 -50 -25.834 -88.167 -57.501 -114.5
s-69.5 -39.5 -113.5 -39.5c-61.5391 0 -112.872 19.5 -153.999 58.5c-42 39.8271 -63 89.6602 -63 149.499c0 62.1934 21.667 112.86 65 152c44.2861 40 103.453 60 177.501 60zM287 480c-35.333 0 -62.834 -10.332 -82.501 -30.999s-29.5 -47 -29.5 -79s10 -58.333 30 -79
s47.667 -31 83 -31s63 10.667 83 32s30 47.666 30 78.999s-10.167 57.333 -30.5 78s-48.166 31 -83.499 31z" />
    </font>
</defs>
</svg>
